tick,type,numerator,denominator,clocks_per_click,notated_32nd_notes_per_beat,time,meta,track,data,tempo,control,value,channel,program,key,note,velocity
0,time_signature,3,4,96,8,0,1,0,,,,,,,,,
0,key_signature,,,,,0,1,4,,,,,,,C,,
0,program_change,,,,,0,0,4,,,,,3,19,,,
0,control_change,,,,,0,0,4,,,7,127,3,,,,
0,control_change,,,,,0,0,4,,,10,64,3,,,,
0,control_change,,,,,0,0,4,,,0,0,3,,,,
0,track_name,,,,,0,1,4,,,,,,,,,
0,note_on,,,,,0,0,3,,,,,1,,,64,75
0,note_on,,,,,0,0,3,,,,,1,,,72,75
0,key_signature,,,,,0,1,3,,,,,,,C,,
0,note_on,,,,,0,0,4,,,,,3,,,57,75
0,program_change,,,,,0,0,3,,,,,1,19,,,
0,control_change,,,,,0,0,3,,,7,127,1,,,,
0,control_change,,,,,0,0,3,,,10,51,1,,,,
0,control_change,,,,,0,0,3,,,0,0,1,,,,
0,track_name,,,,,0,1,3,,,,,,,,,
0,key_signature,,,,,0,1,11,,,,,,,C,,
0,key_signature,,,,,0,1,2,,,,,,,C,,
0,program_change,,,,,0,0,2,,,,,5,71,,,
0,control_change,,,,,0,0,2,,,7,127,5,,,,
0,control_change,,,,,0,0,2,,,10,75,5,,,,
0,control_change,,,,,0,0,3,,,7,127,1,,,,
0,control_change,,,,,0,0,2,,,0,0,5,,,,
0,track_name,,,,,0,1,5,,,,,,,,,
0,control_change,,,,,0,0,5,,,10,64,4,,,,
0,track_name,,,,,0,1,11,,,,,,,,,
0,end_of_track,,,,,0,1,10,,,,,,,,,
0,key_signature,,,,,0,1,10,,,,,,,C,,
0,track_name,,,,,0,1,10,,,,,,,,,
0,end_of_track,,,,,0,1,9,,,,,,,,,
0,key_signature,,,,,0,1,9,,,,,,,C,,
0,track_name,,,,,0,1,9,,,,,,,,,
0,end_of_track,,,,,0,1,8,,,,,,,,,
0,key_signature,,,,,0,1,8,,,,,,,C,,
0,control_change,,,,,0,0,5,,,0,0,4,,,,
0,track_name,,,,,0,1,8,,,,,,,,,
0,key_signature,,,,,0,1,7,,,,,,,C,,
0,track_name,,,,,0,1,7,,,,,,,,,
0,end_of_track,,,,,0,1,6,,,,,,,,,
0,key_signature,,,,,0,1,6,,,,,,,C,,
0,track_name,,,,,0,1,6,,,,,,,,,
0,note_on,,,,,0,0,5,,,,,4,,,45,69
0,key_signature,,,,,0,1,5,,,,,,,C,,
0,program_change,,,,,0,0,5,,,,,4,42,,,
0,control_change,,,,,0,0,5,,,7,127,4,,,,
0,end_of_track,,,,,0,1,7,,,,,,,,,
0,track_name,,,,,0,1,2,,,,,,,,,
0,end_of_track,,,,,0,1,11,,,,,,,,,
0,control_change,,,,,0,0,1,,,0,0,0,,,,
0,program_change,,,,,0,0,1,,,,,0,19,,,
0,control_change,,,,,0,0,1,,,7,127,0,,,,
0,control_change,,,,,0,0,1,,,10,74,0,,,,
0,track_name,,,,,0,1,1,,,,,,,,,
0,set_tempo,,,,,0,1,0,,833333,,,,,,,
0,sequencer_specific,,,,,0,1,0,"(0, 0, 65)",,,,,,,,
0,key_signature,,,,,0,1,1,,,,,,,C,,
384,note_off,,,,,384,0,3,,,,,1,,,72,0
384,note_off,,,,,384,0,4,,,,,3,,,57,0
384,note_on,,,,,0,0,4,,,,,3,,,60,75
384,note_off,,,,,384,0,5,,,,,4,,,45,0
384,note_on,,,,,0,0,3,,,,,1,,,69,75
384,note_on,,,,,0,0,5,,,,,4,,,48,69
768,note_off,,,,,384,0,5,,,,,4,,,48,0
768,note_off,,,,,384,0,4,,,,,3,,,60,0
768,note_on,,,,,0,0,5,,,,,4,,,47,69
768,note_on,,,,,0,0,3,,,,,1,,,62,75
768,note_on,,,,,0,0,3,,,,,1,,,71,75
768,note_on,,,,,0,0,3,,,,,1,,,68,75
768,note_off,,,,,0,0,3,,,,,1,,,69,0
768,note_off,,,,,384,0,3,,,,,1,,,64,0
768,note_on,,,,,0,0,4,,,,,3,,,59,75
1152,note_off,,,,,384,0,5,,,,,4,,,47,0
1152,note_off,,,,,384,0,3,,,,,1,,,68,0
1152,note_on,,,,,0,0,5,,,,,4,,,45,69
1152,note_off,,,,,384,0,4,,,,,3,,,59,0
1152,note_on,,,,,0,0,4,,,,,3,,,57,75
1152,note_off,,,,,0,0,3,,,,,1,,,62,0
1152,note_on,,,,,0,0,3,,,,,1,,,69,75
1152,note_on,,,,,0,0,3,,,,,1,,,72,75
1152,note_on,,,,,0,0,3,,,,,1,,,64,75
1152,note_off,,,,,0,0,3,,,,,1,,,71,0
1536,note_off,,,,,384,0,4,,,,,3,,,57,0
1536,note_on,,,,,0,0,4,,,,,3,,,55,75
1536,note_off,,,,,384,0,5,,,,,4,,,45,0
1536,note_on,,,,,0,0,5,,,,,4,,,43,69
1920,note_off,,,,,768,0,3,,,,,1,,,72,0
1920,note_off,,,,,0,0,3,,,,,1,,,64,0
1920,note_on,,,,,0,0,3,,,,,1,,,74,75
1920,note_on,,,,,0,0,3,,,,,1,,,62,75
1920,note_on,,,,,0,0,5,,,,,4,,,41,69
1920,note_on,,,,,0,0,4,,,,,3,,,53,75
1920,note_off,,,,,384,0,4,,,,,3,,,55,0
1920,note_off,,,,,384,0,5,,,,,4,,,43,0
2304,note_on,,,,,0,0,4,,,,,3,,,52,75
2304,note_off,,,,,384,0,4,,,,,3,,,53,0
2304,note_off,,,,,0,0,3,,,,,1,,,62,0
2304,note_on,,,,,0,0,3,,,,,1,,,68,75
2304,note_off,,,,,384,0,3,,,,,1,,,69,0
2304,note_on,,,,,0,0,5,,,,,4,,,40,69
2304,note_off,,,,,384,0,5,,,,,4,,,41,0
2304,note_on,,,,,0,0,3,,,,,1,,,64,75
2304,note_on,,,,,0,0,3,,,,,1,,,71,75
2304,note_off,,,,,0,0,3,,,,,1,,,74,0
2688,note_on,,,,,0,0,4,,,,,3,,,50,75
2688,note_on,,,,,0,0,5,,,,,4,,,38,69
2688,note_off,,,,,384,0,5,,,,,4,,,40,0
2688,note_off,,,,,384,0,4,,,,,3,,,52,0
3072,note_off,,,,,768,0,3,,,,,1,,,68,0
3072,note_off,,,,,0,0,3,,,,,1,,,71,0
3072,note_off,,,,,384,0,5,,,,,4,,,38,0
3072,note_on,,,,,0,0,3,,,,,1,,,76,75
3072,note_on,,,,,0,0,4,,,,,3,,,48,75
3072,note_on,,,,,0,0,5,,,,,4,,,36,69
3072,note_off,,,,,384,0,4,,,,,3,,,50,0
3072,note_on,,,,,0,0,3,,,,,1,,,69,75
3456,note_off,,,,,384,0,5,,,,,4,,,36,0
3456,note_on,,,,,0,0,5,,,,,4,,,38,69
3456,note_off,,,,,384,0,4,,,,,3,,,48,0
3456,note_on,,,,,0,0,3,,,,,1,,,74,75
3456,note_off,,,,,0,0,3,,,,,1,,,69,0
3456,note_on,,,,,0,0,4,,,,,3,,,50,75
3456,note_on,,,,,0,0,3,,,,,1,,,65,75
3456,note_off,,,,,384,0,3,,,,,1,,,64,0
3456,note_on,,,,,0,0,3,,,,,1,,,71,75
3456,note_off,,,,,0,0,3,,,,,1,,,76,0
3840,note_off,,,,,384,0,3,,,,,1,,,71,0
3840,note_off,,,,,0,0,3,,,,,1,,,74,0
3840,note_off,,,,,0,0,3,,,,,1,,,65,0
3840,note_on,,,,,0,0,3,,,,,1,,,72,75
3840,note_on,,,,,0,0,3,,,,,1,,,64,75
3840,note_off,,,,,384,0,5,,,,,4,,,38,0
3840,note_off,,,,,384,0,4,,,,,3,,,50,0
3840,note_on,,,,,0,0,4,,,,,3,,,52,75
3840,note_on,,,,,0,0,5,,,,,4,,,40,69
3840,note_on,,,,,0,0,3,,,,,1,,,69,75
4224,note_on,,,,,0,0,4,,,,,3,,,40,75
4224,note_off,,,,,384,0,4,,,,,3,,,52,0
4224,note_on,,,,,0,0,5,,,,,4,,,28,69
4224,note_off,,,,,384,0,5,,,,,4,,,40,0
4224,note_off,,,,,384,0,3,,,,,1,,,69,0
4224,note_on,,,,,0,0,3,,,,,1,,,71,75
4224,note_on,,,,,0,0,3,,,,,1,,,68,75
4224,note_off,,,,,0,0,3,,,,,1,,,72,0
4608,note_on,,,,,0,0,4,,,,,3,,,45,75
4608,note_off,,,,,384,0,3,,,,,1,,,68,0
4608,note_on,,,,,0,0,5,,,,,4,,,33,69
4608,note_off,,,,,384,0,5,,,,,4,,,28,0
4608,note_off,,,,,0,0,3,,,,,1,,,71,0
4608,note_on,,,,,0,0,3,,,,,1,,,69,75
4608,note_on,,,,,0,0,3,,,,,1,,,72,75
4608,note_on,,,,,4608,0,1,,,,,0,,,76,75
4608,note_on,,,,,4608,0,2,,,,,5,,,76,65
4608,note_off,,,,,384,0,4,,,,,3,,,40,0
4928,note_off,,,,,0,0,3,,,,,1,,,72,0
4928,note_off,,,,,320,0,3,,,,,1,,,69,0
4928,note_off,,,,,320,0,5,,,,,4,,,33,0
4928,note_off,,,,,320,0,4,,,,,3,,,45,0
4992,note_on,,,,,64,0,4,,,,,3,,,60,75
4992,note_on,,,,,64,0,5,,,,,4,,,48,69
4992,note_on,,,,,64,0,3,,,,,1,,,69,75
5280,note_off,,,,,288,0,3,,,,,1,,,64,0
5376,note_on,,,,,0,0,3,,,,,1,,,71,75
5376,note_off,,,,,384,0,4,,,,,3,,,60,0
5376,note_off,,,,,384,0,5,,,,,4,,,48,0
5376,note_on,,,,,0,0,5,,,,,4,,,47,69
5376,note_off,,,,,96,0,3,,,,,1,,,69,0
5376,note_on,,,,,0,0,3,,,,,1,,,68,75
5376,note_on,,,,,0,0,3,,,,,1,,,62,75
5376,note_on,,,,,0,0,4,,,,,3,,,59,75
5760,note_off,,,,,384,0,3,,,,,1,,,68,0
5760,note_off,,,,,0,0,3,,,,,1,,,71,0
5760,note_off,,,,,0,0,3,,,,,1,,,62,0
5760,note_on,,,,,0,0,3,,,,,1,,,69,75
5760,note_on,,,,,0,0,3,,,,,1,,,64,75
5760,note_on,,,,,0,0,4,,,,,3,,,57,75
5760,note_off,,,,,384,0,4,,,,,3,,,59,0
5760,note_on,,,,,0,0,5,,,,,4,,,45,69
5760,note_off,,,,,384,0,5,,,,,4,,,47,0
5760,note_on,,,,,0,0,3,,,,,1,,,72,75
6144,note_off,,,,,384,0,4,,,,,3,,,57,0
6144,note_on,,,,,0,0,5,,,,,4,,,43,69
6144,note_on,,,,,0,0,4,,,,,3,,,55,75
6144,note_off,,,,,384,0,5,,,,,4,,,45,0
6528,note_on,,,,,0,0,4,,,,,3,,,53,75
6528,note_off,,,,,0,0,3,,,,,1,,,64,0
6528,note_off,,,,,384,0,4,,,,,3,,,55,0
6528,note_off,,,,,768,0,3,,,,,1,,,72,0
6528,note_on,,,,,0,0,3,,,,,1,,,62,75
6528,note_on,,,,,0,0,2,,,,,5,,,83,65
6528,note_off,,,,,1920,0,2,,,,,5,,,76,0
6528,note_on,,,,,0,0,3,,,,,1,,,74,75
6528,note_off,,,,,1920,0,1,,,,,0,,,76,0
6528,note_on,,,,,0,0,1,,,,,0,,,83,75
6528,note_on,,,,,0,0,5,,,,,4,,,41,69
6528,note_off,,,,,384,0,5,,,,,4,,,43,0
6592,note_off,,,,,64,0,2,,,,,5,,,83,0
6592,note_off,,,,,64,0,1,,,,,0,,,83,0
6592,note_on,,,,,0,0,1,,,,,0,,,81,75
6592,note_on,,,,,0,0,2,,,,,5,,,81,65
6656,note_on,,,,,0,0,2,,,,,5,,,79,65
6656,note_off,,,,,64,0,2,,,,,5,,,81,0
6656,note_on,,,,,0,0,1,,,,,0,,,79,75
6656,note_off,,,,,64,0,1,,,,,0,,,81,0
6720,note_on,,,,,0,0,1,,,,,0,,,81,75
6720,note_off,,,,,64,0,1,,,,,0,,,79,0
6720,note_on,,,,,0,0,2,,,,,5,,,81,65
6720,note_off,,,,,64,0,2,,,,,5,,,79,0
6908,note_off,,,,,188,0,1,,,,,0,,,81,0
6908,note_off,,,,,188,0,2,,,,,5,,,81,0
6912,note_off,,,,,0,0,3,,,,,1,,,74,0
6912,note_off,,,,,384,0,5,,,,,4,,,41,0
6912,note_on,,,,,0,0,5,,,,,4,,,40,69
6912,note_on,,,,,0,0,3,,,,,1,,,64,75
6912,note_on,,,,,0,0,3,,,,,1,,,71,75
6912,note_off,,,,,384,0,3,,,,,1,,,69,0
6912,note_off,,,,,0,0,3,,,,,1,,,62,0
6912,note_on,,,,,4,0,1,,,,,0,,,80,75
6912,note_on,,,,,0,0,4,,,,,3,,,52,75
6912,note_off,,,,,384,0,4,,,,,3,,,53,0
6912,note_on,,,,,4,0,2,,,,,5,,,80,65
6912,note_on,,,,,0,0,3,,,,,1,,,68,75
7296,note_on,,,,,0,0,4,,,,,3,,,50,75
7296,note_off,,,,,384,0,4,,,,,3,,,52,0
7296,note_on,,,,,0,0,5,,,,,4,,,38,69
7296,note_off,,,,,384,0,5,,,,,4,,,40,0
7680,note_off,,,,,384,0,4,,,,,3,,,50,0
7680,note_off,,,,,768,0,2,,,,,5,,,80,0
7680,note_on,,,,,0,0,2,,,,,5,,,88,72
7680,note_on,,,,,0,0,1,,,,,0,,,88,83
7680,note_off,,,,,768,0,1,,,,,0,,,80,0
7680,note_off,,,,,768,0,3,,,,,1,,,68,0
7680,note_on,,,,,0,0,3,,,,,1,,,69,75
7680,note_on,,,,,0,0,5,,,,,4,,,36,69
7680,note_off,,,,,384,0,5,,,,,4,,,38,0
7680,note_on,,,,,0,0,4,,,,,3,,,48,75
7680,note_off,,,,,0,0,3,,,,,1,,,71,0
8064,note_on,,,,,0,0,3,,,,,1,,,65,75
8064,note_off,,,,,384,0,1,,,,,0,,,88,0
8064,note_off,,,,,384,0,3,,,,,1,,,64,0
8064,note_on,,,,,0,0,3,,,,,1,,,71,75
8064,note_on,,,,,0,0,1,,,,,0,,,86,87
8064,note_off,,,,,384,0,5,,,,,4,,,36,0
8064,note_off,,,,,384,0,2,,,,,5,,,88,0
8064,note_on,,,,,0,0,2,,,,,5,,,86,75
8064,note_on,,,,,0,0,5,,,,,4,,,38,69
8064,note_on,,,,,0,0,4,,,,,3,,,50,75
8064,note_off,,,,,384,0,4,,,,,3,,,48,0
8448,note_on,,,,,0,0,1,,,,,0,,,84,92
8448,note_on,,,,,0,0,3,,,,,1,,,72,75
8448,note_on,,,,,0,0,3,,,,,1,,,64,75
8448,note_off,,,,,384,0,4,,,,,3,,,50,0
8448,note_off,,,,,384,0,5,,,,,4,,,38,0
8448,note_on,,,,,0,0,5,,,,,4,,,40,69
8448,note_off,,,,,384,0,1,,,,,0,,,86,0
8448,note_off,,,,,0,0,3,,,,,1,,,65,0
8448,note_on,,,,,0,0,2,,,,,5,,,84,80
8448,note_off,,,,,384,0,2,,,,,5,,,86,0
8448,note_on,,,,,0,0,4,,,,,3,,,52,75
8448,note_off,,,,,384,0,3,,,,,1,,,71,0
8736,note_on,,,,,0,0,1,,,,,0,,,86,92
8736,note_off,,,,,288,0,1,,,,,0,,,84,0
8736,note_on,,,,,0,0,2,,,,,5,,,86,80
8736,note_off,,,,,288,0,2,,,,,5,,,84,0
8832,note_off,,,,,384,0,3,,,,,1,,,69,0
8832,note_on,,,,,0,0,3,,,,,1,,,68,75
8832,note_on,,,,,0,0,3,,,,,1,,,74,75
8832,note_off,,,,,0,0,3,,,,,1,,,72,0
8832,note_off,,,,,384,0,5,,,,,4,,,40,0
8832,note_on,,,,,0,0,1,,,,,0,,,83,92
8832,note_on,,,,,0,0,5,,,,,4,,,28,69
8832,note_off,,,,,96,0,1,,,,,0,,,86,0
8832,note_on,,,,,0,0,2,,,,,5,,,83,80
8832,note_off,,,,,96,0,2,,,,,5,,,86,0
8832,note_on,,,,,0,0,4,,,,,3,,,40,75
8832,note_off,,,,,384,0,4,,,,,3,,,52,0
9216,note_off,,,,,0,0,3,,,,,1,,,74,0
9216,note_on,,,,,0,0,4,,,,,3,,,45,75
9216,note_on,,,,,0,0,3,,,,,1,,,69,75
9216,note_on,,,,,0,0,3,,,,,1,,,72,75
9216,note_off,,,,,384,0,3,,,,,1,,,68,0
9216,note_off,,,,,384,0,4,,,,,3,,,40,0
9216,note_on,,,,,0,0,1,,,,,0,,,86,92
9216,note_off,,,,,384,0,1,,,,,0,,,83,0
9216,note_off,,,,,384,0,5,,,,,4,,,28,0
9216,note_on,,,,,0,0,5,,,,,4,,,33,69
9216,note_on,,,,,0,0,2,,,,,5,,,86,80
9216,note_off,,,,,384,0,2,,,,,5,,,83,0
9240,note_off,,,,,24,0,2,,,,,5,,,86,0
9240,note_off,,,,,24,0,1,,,,,0,,,86,0
9240,note_on,,,,,0,0,1,,,,,0,,,84,91
9240,note_on,,,,,0,0,2,,,,,5,,,84,79
9264,note_off,,,,,24,0,2,,,,,5,,,84,0
9264,note_on,,,,,0,0,2,,,,,5,,,86,78
9264,note_off,,,,,24,0,1,,,,,0,,,84,0
9264,note_on,,,,,0,0,1,,,,,0,,,86,90
9288,note_on,,,,,0,0,2,,,,,5,,,84,77
9288,note_off,,,,,24,0,1,,,,,0,,,86,0
9288,note_on,,,,,0,0,1,,,,,0,,,84,89
9288,note_off,,,,,24,0,2,,,,,5,,,86,0
9312,note_off,,,,,24,0,1,,,,,0,,,84,0
9312,note_on,,,,,0,0,1,,,,,0,,,86,88
9312,note_off,,,,,24,0,2,,,,,5,,,84,0
9312,note_on,,,,,0,0,2,,,,,5,,,86,76
9336,note_on,,,,,0,0,2,,,,,5,,,84,75
9336,note_off,,,,,24,0,2,,,,,5,,,86,0
9336,note_off,,,,,24,0,1,,,,,0,,,86,0
9336,note_on,,,,,0,0,1,,,,,0,,,84,87
9360,note_off,,,,,24,0,1,,,,,0,,,84,0
9360,note_on,,,,,0,0,1,,,,,0,,,86,86
9360,note_off,,,,,24,0,2,,,,,5,,,84,0
9360,note_on,,,,,0,0,2,,,,,5,,,86,74
9384,note_off,,,,,24,0,1,,,,,0,,,86,0
9384,note_on,,,,,0,0,1,,,,,0,,,84,85
9384,note_off,,,,,24,0,2,,,,,5,,,86,0
9384,note_on,,,,,0,0,2,,,,,5,,,84,73
9504,note_on,,,,,0,0,2,,,,,5,,,83,69
9504,note_off,,,,,120,0,1,,,,,0,,,84,0
9504,note_on,,,,,0,0,1,,,,,0,,,83,80
9504,note_off,,,,,120,0,2,,,,,5,,,84,0
9536,note_off,,,,,320,0,3,,,,,1,,,72,0
9536,note_off,,,,,320,0,4,,,,,3,,,45,0
9536,note_off,,,,,320,0,5,,,,,4,,,33,0
9600,note_on,,,,,0,0,2,,,,,5,,,81,65
9600,note_off,,,,,96,0,1,,,,,0,,,83,0
9600,note_on,,,,,64,0,3,,,,,1,,,76,75
9600,note_on,,,,,0,0,1,,,,,0,,,81,75
9600,note_off,,,,,96,0,2,,,,,5,,,83,0
9600,note_on,,,,,64,0,5,,,,,4,,,48,69
9600,note_on,,,,,64,0,4,,,,,3,,,60,75
9920,note_off,,,,,320,0,1,,,,,0,,,81,0
9920,note_off,,,,,320,0,2,,,,,5,,,81,0
9984,note_off,,,,,384,0,4,,,,,3,,,60,0
9984,note_off,,,,,384,0,5,,,,,4,,,48,0
9984,note_on,,,,,0,0,5,,,,,4,,,47,69
9984,note_off,,,,,384,0,3,,,,,1,,,76,0
9984,note_on,,,,,0,0,4,,,,,3,,,59,75
9984,note_on,,,,,0,0,3,,,,,1,,,74,75
10368,note_off,,,,,384,0,3,,,,,1,,,74,0
10368,note_on,,,,,0,0,3,,,,,1,,,72,75
10368,note_on,,,,,0,0,5,,,,,4,,,45,69
10368,note_off,,,,,384,0,5,,,,,4,,,47,0
10368,note_off,,,,,384,0,4,,,,,3,,,59,0
10368,note_on,,,,,0,0,4,,,,,3,,,57,75
10752,note_off,,,,,384,0,5,,,,,4,,,45,0
10752,note_off,,,,,384,0,4,,,,,3,,,57,0
10752,note_off,,,,,384,0,3,,,,,1,,,69,0
10752,note_off,,,,,0,0,3,,,,,1,,,72,0
10752,note_on,,,,,0,0,3,,,,,1,,,71,75
10752,note_on,,,,,0,0,4,,,,,3,,,55,75
10752,note_on,,,,,832,0,1,,,,,0,,,76,75
10752,note_on,,,,,0,0,5,,,,,4,,,43,69
10752,note_on,,,,,832,0,2,,,,,5,,,76,65
10944,note_off,,,,,192,0,2,,,,,5,,,76,0
10944,note_on,,,,,0,0,2,,,,,5,,,77,65
10944,note_on,,,,,0,0,1,,,,,0,,,77,75
10944,note_off,,,,,192,0,1,,,,,0,,,76,0
11132,note_off,,,,,188,0,2,,,,,5,,,77,0
11132,note_off,,,,,188,0,1,,,,,0,,,77,0
11136,note_on,,,,,0,0,5,,,,,4,,,41,69
11136,note_off,,,,,384,0,5,,,,,4,,,43,0
11136,note_off,,,,,384,0,3,,,,,1,,,64,0
11136,note_off,,,,,0,0,3,,,,,1,,,71,0
11136,note_on,,,,,0,0,3,,,,,1,,,65,75
11136,note_on,,,,,0,0,3,,,,,1,,,69,75
11136,note_on,,,,,4,0,1,,,,,0,,,79,75
11136,note_on,,,,,0,0,3,,,,,1,,,65,75
11136,note_on,,,,,0,0,4,,,,,3,,,53,75
11136,note_on,,,,,4,0,2,,,,,5,,,79,65
11136,note_off,,,,,384,0,4,,,,,3,,,55,0
11160,note_on,,,,,0,0,2,,,,,5,,,77,65
11160,note_off,,,,,24,0,2,,,,,5,,,79,0
11160,note_on,,,,,0,0,1,,,,,0,,,77,75
11160,note_off,,,,,24,0,1,,,,,0,,,79,0
11184,note_on,,,,,0,0,1,,,,,0,,,79,75
11184,note_on,,,,,0,0,2,,,,,5,,,79,65
11184,note_off,,,,,24,0,2,,,,,5,,,77,0
11184,note_off,,,,,24,0,1,,,,,0,,,77,0
11208,note_on,,,,,0,0,2,,,,,5,,,77,65
11208,note_off,,,,,24,0,2,,,,,5,,,79,0
11208,note_on,,,,,0,0,1,,,,,0,,,77,75
11208,note_off,,,,,24,0,1,,,,,0,,,79,0
11232,note_on,,,,,0,0,2,,,,,5,,,79,65
11232,note_on,,,,,0,0,1,,,,,0,,,79,75
11232,note_off,,,,,24,0,1,,,,,0,,,77,0
11232,note_off,,,,,24,0,2,,,,,5,,,77,0
11256,note_off,,,,,24,0,2,,,,,5,,,79,0
11256,note_on,,,,,0,0,2,,,,,5,,,77,65
11256,note_on,,,,,0,0,1,,,,,0,,,77,75
11256,note_off,,,,,24,0,1,,,,,0,,,79,0
11280,note_off,,,,,24,0,1,,,,,0,,,77,0
11280,note_on,,,,,0,0,2,,,,,5,,,79,65
11280,note_off,,,,,24,0,2,,,,,5,,,77,0
11280,note_on,,,,,0,0,1,,,,,0,,,79,75
11304,note_off,,,,,24,0,2,,,,,5,,,79,0
11304,note_on,,,,,0,0,2,,,,,5,,,77,65
11304,note_on,,,,,0,0,1,,,,,0,,,77,75
11304,note_off,,,,,24,0,1,,,,,0,,,79,0
11424,note_off,,,,,120,0,2,,,,,5,,,77,0
11424,note_on,,,,,0,0,1,,,,,0,,,76,75
11424,note_off,,,,,120,0,1,,,,,0,,,77,0
11424,note_on,,,,,0,0,2,,,,,5,,,76,65
11472,note_on,,,,,0,0,2,,,,,5,,,77,65
11472,note_on,,,,,0,0,1,,,,,0,,,77,75
11472,note_off,,,,,48,0,1,,,,,0,,,76,0
11472,note_off,,,,,48,0,2,,,,,5,,,76,0
11516,note_off,,,,,44,0,1,,,,,0,,,77,0
11516,note_off,,,,,44,0,2,,,,,5,,,77,0
11520,note_on,,,,,4,0,2,,,,,5,,,79,65
11520,note_off,,,,,0,0,3,,,,,1,,,69,0
11520,note_off,,,,,384,0,5,,,,,4,,,41,0
11520,note_on,,,,,0,0,5,,,,,4,,,40,69
11520,note_off,,,,,0,0,3,,,,,1,,,65,0
11520,note_on,,,,,0,0,3,,,,,1,,,67,75
11520,note_on,,,,,0,0,3,,,,,1,,,67,75
11520,note_off,,,,,384,0,4,,,,,3,,,53,0
11520,note_on,,,,,0,0,4,,,,,3,,,52,75
11520,note_on,,,,,4,0,1,,,,,0,,,79,75
11520,note_off,,,,,384,0,3,,,,,1,,,65,0
11840,note_off,,,,,320,0,3,,,,,1,,,67,0
11840,note_off,,,,,320,0,4,,,,,3,,,52,0
11840,note_off,,,,,0,0,3,,,,,1,,,67,0
11840,note_off,,,,,320,0,5,,,,,4,,,40,0
11904,note_on,,,,,64,0,5,,,,,4,,,52,69
11904,note_on,,,,,64,0,4,,,,,3,,,64,75
11904,note_on,,,,,64,0,3,,,,,1,,,72,75
11904,note_on,,,,,0,0,3,,,,,1,,,67,75
12288,note_on,,,,,0,0,4,,,,,3,,,62,75
12288,note_off,,,,,384,0,4,,,,,3,,,64,0
12288,note_off,,,,,384,0,3,,,,,1,,,72,0
12288,note_off,,,,,0,0,3,,,,,1,,,67,0
12288,note_on,,,,,0,0,3,,,,,1,,,74,75
12288,note_on,,,,,0,0,3,,,,,1,,,71,75
12288,note_on,,,,,0,0,5,,,,,4,,,50,69
12288,note_off,,,,,384,0,5,,,,,4,,,52,0
12288,note_on,,,,,0,0,3,,,,,1,,,65,75
12672,note_off,,,,,384,0,3,,,,,1,,,71,0
12672,note_off,,,,,384,0,4,,,,,3,,,62,0
12672,note_off,,,,,0,0,3,,,,,1,,,74,0
12672,note_off,,,,,0,0,3,,,,,1,,,65,0
12672,note_on,,,,,0,0,3,,,,,1,,,72,75
12672,note_on,,,,,0,0,3,,,,,1,,,76,75
12672,note_off,,,,,384,0,5,,,,,4,,,50,0
12672,note_on,,,,,0,0,5,,,,,4,,,48,69
12672,note_on,,,,,0,0,3,,,,,1,,,67,75
12672,note_on,,,,,0,0,4,,,,,3,,,60,75
13056,note_on,,,,,0,0,5,,,,,4,,,47,69
13056,note_off,,,,,384,0,5,,,,,4,,,48,0
13056,note_on,,,,,0,0,4,,,,,3,,,59,75
13056,note_on,,,,,0,0,3,,,,,1,,,74,75
13056,note_off,,,,,0,0,3,,,,,1,,,76,0
13056,note_off,,,,,384,0,3,,,,,1,,,72,0
13056,note_off,,,,,384,0,4,,,,,3,,,60,0
13344,note_off,,,,,1824,0,2,,,,,5,,,79,0
13344,note_off,,,,,1824,0,1,,,,,0,,,79,0
13440,note_on,,,,,96,0,2,,,,,5,,,81,65
13440,note_on,,,,,0,0,3,,,,,1,,,65,75
13440,note_on,,,,,0,0,3,,,,,1,,,76,75
13440,note_on,,,,,96,0,1,,,,,0,,,81,75
13440,note_off,,,,,384,0,5,,,,,4,,,47,0
13440,note_on,,,,,0,0,3,,,,,1,,,72,75
13440,note_off,,,,,0,0,3,,,,,1,,,74,0
13440,note_off,,,,,384,0,3,,,,,1,,,67,0
13440,note_off,,,,,384,0,4,,,,,3,,,59,0
13440,note_on,,,,,0,0,4,,,,,3,,,57,75
13440,note_on,,,,,0,0,5,,,,,4,,,45,69
13632,note_on,,,,,0,0,1,,,,,0,,,83,75
13632,note_off,,,,,192,0,1,,,,,0,,,81,0
13632,note_off,,,,,192,0,2,,,,,5,,,81,0
13632,note_on,,,,,0,0,2,,,,,5,,,83,65
13728,note_off,,,,,96,0,1,,,,,0,,,83,0
13728,note_off,,,,,96,0,2,,,,,5,,,83,0
13728,note_on,,,,,0,0,1,,,,,0,,,84,75
13728,note_on,,,,,0,0,2,,,,,5,,,84,65
13820,note_off,,,,,92,0,2,,,,,5,,,84,0
13820,note_off,,,,,92,0,1,,,,,0,,,84,0
13824,note_on,,,,,0,0,5,,,,,4,,,43,69
13824,note_on,,,,,0,0,3,,,,,1,,,67,75
13824,note_on,,,,,0,0,3,,,,,1,,,76,75
13824,note_on,,,,,0,0,3,,,,,1,,,71,75
13824,note_off,,,,,0,0,3,,,,,1,,,65,0
13824,note_off,,,,,0,0,3,,,,,1,,,76,0
13824,note_off,,,,,384,0,3,,,,,1,,,72,0
13824,note_on,,,,,4,0,1,,,,,0,,,83,75
13824,note_off,,,,,384,0,4,,,,,3,,,57,0
13824,note_off,,,,,384,0,5,,,,,4,,,45,0
13824,note_on,,,,,4,0,2,,,,,5,,,83,65
13824,note_on,,,,,0,0,4,,,,,3,,,55,75
14016,note_off,,,,,192,0,2,,,,,5,,,83,0
14016,note_on,,,,,0,0,2,,,,,5,,,81,65
14016,note_on,,,,,0,0,1,,,,,0,,,81,75
14016,note_off,,,,,192,0,1,,,,,0,,,83,0
14112,note_off,,,,,96,0,2,,,,,5,,,81,0
14112,note_on,,,,,0,0,2,,,,,5,,,83,65
14112,note_on,,,,,0,0,1,,,,,0,,,83,75
14112,note_off,,,,,96,0,1,,,,,0,,,81,0
14208,note_on,,,,,0,0,1,,,,,0,,,84,75
14208,note_off,,,,,96,0,1,,,,,0,,,83,0
14208,note_off,,,,,96,0,2,,,,,5,,,83,0
14208,note_on,,,,,0,0,3,,,,,1,,,74,75
14208,note_off,,,,,384,0,4,,,,,3,,,55,0
14208,note_on,,,,,0,0,4,,,,,3,,,53,75
14208,note_on,,,,,0,0,2,,,,,5,,,84,65
14208,note_off,,,,,384,0,3,,,,,1,,,76,0
14208,note_on,,,,,0,0,5,,,,,4,,,41,69
14208,note_off,,,,,384,0,5,,,,,4,,,43,0
14304,note_off,,,,,96,0,1,,,,,0,,,84,0
14304,note_on,,,,,0,0,1,,,,,0,,,83,75
14304,note_on,,,,,0,0,2,,,,,5,,,83,65
14304,note_off,,,,,96,0,2,,,,,5,,,84,0
14400,note_on,,,,,0,0,2,,,,,5,,,81,65
14400,note_on,,,,,0,0,1,,,,,0,,,81,75
14400,note_off,,,,,96,0,1,,,,,0,,,83,0
14400,note_off,,,,,96,0,2,,,,,5,,,83,0
14496,note_on,,,,,0,0,1,,,,,0,,,79,75
14496,note_off,,,,,96,0,1,,,,,0,,,81,0
14496,note_on,,,,,0,0,2,,,,,5,,,79,65
14496,note_off,,,,,96,0,2,,,,,5,,,81,0
14592,note_off,,,,,384,0,5,,,,,4,,,41,0
14592,note_on,,,,,0,0,5,,,,,4,,,40,69
14592,note_on,,,,,0,0,1,,,,,0,,,84,75
14592,note_off,,,,,96,0,1,,,,,0,,,79,0
14592,note_off,,,,,384,0,4,,,,,3,,,53,0
14592,note_on,,,,,0,0,4,,,,,3,,,52,75
14592,note_off,,,,,96,0,2,,,,,5,,,79,0
14592,note_on,,,,,0,0,2,,,,,5,,,84,65
14592,note_on,,,,,0,0,3,,,,,1,,,72,75
14592,note_off,,,,,0,0,3,,,,,1,,,74,0
14592,note_off,,,,,384,0,3,,,,,1,,,71,0
14912,note_off,,,,,320,0,2,,,,,5,,,84,0
14912,note_off,,,,,320,0,1,,,,,0,,,84,0
14976,note_off,,,,,384,0,4,,,,,3,,,52,0
14976,note_on,,,,,0,0,4,,,,,3,,,53,75
14976,note_on,,,,,64,0,2,,,,,5,,,74,65
14976,note_on,,,,,64,0,1,,,,,0,,,74,75
14976,note_off,,,,,384,0,3,,,,,1,,,67,0
14976,note_on,,,,,0,0,3,,,,,1,,,69,75
14976,note_on,,,,,0,0,3,,,,,1,,,62,75
14976,note_on,,,,,0,0,5,,,,,4,,,41,69
14976,note_off,,,,,384,0,5,,,,,4,,,40,0
15296,note_off,,,,,320,0,2,,,,,5,,,74,0
15296,note_off,,,,,320,0,1,,,,,0,,,74,0
15360,note_on,,,,,0,0,4,,,,,3,,,55,75
15360,note_on,,,,,64,0,2,,,,,5,,,76,65
15360,note_off,,,,,0,0,3,,,,,1,,,62,0
15360,note_on,,,,,0,0,3,,,,,1,,,67,75
15360,note_on,,,,,0,0,3,,,,,1,,,64,75
15360,note_off,,,,,384,0,4,,,,,3,,,53,0
15360,note_off,,,,,384,0,3,,,,,1,,,69,0
15360,note_off,,,,,384,0,5,,,,,4,,,41,0
15360,note_on,,,,,0,0,5,,,,,4,,,43,69
15360,note_on,,,,,64,0,1,,,,,0,,,76,75
15648,note_off,,,,,288,0,1,,,,,0,,,76,0
15648,note_on,,,,,0,0,1,,,,,0,,,77,75
15648,note_on,,,,,0,0,2,,,,,5,,,77,65
15648,note_off,,,,,288,0,2,,,,,5,,,76,0
15744,note_on,,,,,0,0,3,,,,,1,,,65,75
15744,note_on,,,,,0,0,3,,,,,1,,,71,75
15744,note_off,,,,,0,0,3,,,,,1,,,64,0
15744,note_off,,,,,384,0,3,,,,,1,,,72,0
15744,note_off,,,,,384,0,5,,,,,4,,,43,0
15744,note_on,,,,,0,0,5,,,,,4,,,31,69
15744,note_on,,,,,0,0,2,,,,,5,,,79,65
15744,note_off,,,,,96,0,2,,,,,5,,,77,0
15744,note_on,,,,,0,0,4,,,,,3,,,43,75
15744,note_off,,,,,384,0,4,,,,,3,,,55,0
15744,note_on,,,,,0,0,1,,,,,0,,,79,75
15744,note_off,,,,,96,0,1,,,,,0,,,77,0
15840,note_on,,,,,0,0,1,,,,,0,,,77,75
15840,note_on,,,,,0,0,2,,,,,5,,,77,65
15840,note_off,,,,,96,0,1,,,,,0,,,79,0
15840,note_off,,,,,96,0,2,,,,,5,,,79,0
15936,note_off,,,,,96,0,1,,,,,0,,,77,0
15936,note_on,,,,,0,0,2,,,,,5,,,76,65
15936,note_off,,,,,96,0,2,,,,,5,,,77,0
15936,note_on,,,,,0,0,1,,,,,0,,,76,75
16032,note_on,,,,,0,0,2,,,,,5,,,74,65
16032,note_off,,,,,96,0,2,,,,,5,,,76,0
16032,note_on,,,,,0,0,1,,,,,0,,,74,75
16032,note_off,,,,,96,0,1,,,,,0,,,76,0
16124,note_off,,,,,92,0,1,,,,,0,,,74,0
16124,note_off,,,,,92,0,2,,,,,5,,,74,0
16128,note_off,,,,,384,0,3,,,,,1,,,71,0
16128,note_off,,,,,0,0,3,,,,,1,,,65,0
16128,note_on,,,,,0,0,3,,,,,1,,,72,75
16128,note_on,,,,,0,0,3,,,,,1,,,64,75
16128,note_off,,,,,384,0,5,,,,,4,,,31,0
16128,note_on,,,,,0,0,5,,,,,4,,,36,69
16128,note_on,,,,,4,0,2,,,,,5,,,77,65
16128,note_off,,,,,384,0,4,,,,,3,,,43,0
16128,note_on,,,,,0,0,4,,,,,3,,,48,75
16128,note_on,,,,,4,0,1,,,,,0,,,77,75
16164,note_on,,,,,0,0,2,,,,,5,,,76,65
16164,note_on,,,,,0,0,1,,,,,0,,,76,75
16164,note_off,,,,,36,0,2,,,,,5,,,77,0
16164,note_off,,,,,36,0,1,,,,,0,,,77,0
16200,note_on,,,,,0,0,2,,,,,5,,,77,65
16200,note_off,,,,,36,0,2,,,,,5,,,76,0
16200,note_on,,,,,0,0,1,,,,,0,,,77,75
16200,note_off,,,,,36,0,1,,,,,0,,,76,0
16236,note_off,,,,,36,0,2,,,,,5,,,77,0
16236,note_on,,,,,0,0,1,,,,,0,,,76,75
16236,note_off,,,,,36,0,1,,,,,0,,,77,0
16236,note_on,,,,,0,0,2,,,,,5,,,76,65
16272,note_on,,,,,0,0,2,,,,,5,,,77,65
16272,note_on,,,,,0,0,1,,,,,0,,,77,75
16272,note_off,,,,,36,0,1,,,,,0,,,76,0
16272,note_off,,,,,36,0,2,,,,,5,,,76,0
16308,note_on,,,,,0,0,1,,,,,0,,,76,75
16308,note_off,,,,,36,0,1,,,,,0,,,77,0
16308,note_off,,,,,36,0,2,,,,,5,,,77,0
16308,note_on,,,,,0,0,2,,,,,5,,,76,65
16344,note_off,,,,,36,0,1,,,,,0,,,76,0
16344,note_off,,,,,36,0,2,,,,,5,,,76,0
16344,note_on,,,,,0,0,2,,,,,5,,,77,65
16344,note_on,,,,,0,0,1,,,,,0,,,77,75
16380,note_off,,,,,36,0,1,,,,,0,,,77,0
16380,note_on,,,,,0,0,1,,,,,0,,,76,75
16380,note_off,,,,,36,0,2,,,,,5,,,77,0
16380,note_on,,,,,0,0,2,,,,,5,,,76,65
16416,note_off,,,,,36,0,2,,,,,5,,,76,0
16416,note_on,,,,,0,0,2,,,,,5,,,77,65
16416,note_on,,,,,0,0,1,,,,,0,,,77,75
16416,note_off,,,,,36,0,1,,,,,0,,,76,0
16448,note_off,,,,,320,0,3,,,,,1,,,67,0
16448,note_off,,,,,0,0,3,,,,,1,,,72,0
16448,note_off,,,,,0,0,3,,,,,1,,,64,0
16448,note_off,,,,,320,0,5,,,,,4,,,36,0
16448,note_off,,,,,320,0,4,,,,,3,,,48,0
16452,note_on,,,,,0,0,2,,,,,5,,,76,65
16452,note_off,,,,,36,0,2,,,,,5,,,77,0
16452,note_off,,,,,36,0,1,,,,,0,,,77,0
16452,note_on,,,,,0,0,1,,,,,0,,,76,75
16488,note_on,,,,,0,0,2,,,,,5,,,77,65
16488,note_off,,,,,36,0,2,,,,,5,,,76,0
16488,note_off,,,,,36,0,1,,,,,0,,,76,0
16488,note_on,,,,,0,0,1,,,,,0,,,77,75
16512,note_on,,,,,64,0,4,,,,,3,,,52,75
16512,note_on,,,,,0,0,3,,,,,1,,,60,75
16512,note_on,,,,,64,0,3,,,,,1,,,67,75
16512,note_on,,,,,64,0,5,,,,,4,,,40,69
16524,note_off,,,,,36,0,1,,,,,0,,,77,0
16524,note_on,,,,,0,0,1,,,,,0,,,76,75
16524,note_off,,,,,36,0,2,,,,,5,,,77,0
16524,note_on,,,,,0,0,2,,,,,5,,,76,65
16560,note_off,,,,,36,0,1,,,,,0,,,76,0
16560,note_on,,,,,0,0,1,,,,,0,,,77,75
16560,note_off,,,,,36,0,2,,,,,5,,,76,0
16560,note_on,,,,,0,0,2,,,,,5,,,77,65
16596,note_off,,,,,36,0,1,,,,,0,,,77,0
16596,note_on,,,,,0,0,1,,,,,0,,,76,75
16596,note_off,,,,,36,0,2,,,,,5,,,77,0
16596,note_on,,,,,0,0,2,,,,,5,,,76,65
16632,note_off,,,,,36,0,1,,,,,0,,,76,0
16632,note_on,,,,,0,0,1,,,,,0,,,77,75
16632,note_off,,,,,36,0,2,,,,,5,,,76,0
16632,note_on,,,,,0,0,2,,,,,5,,,77,65
16668,note_off,,,,,36,0,1,,,,,0,,,77,0
16668,note_on,,,,,0,0,1,,,,,0,,,76,75
16668,note_on,,,,,0,0,2,,,,,5,,,76,65
16668,note_off,,,,,36,0,2,,,,,5,,,77,0
16700,note_off,,,,,32,0,2,,,,,5,,,76,0
16700,note_off,,,,,32,0,1,,,,,0,,,76,0
16704,note_on,,,,,4,0,2,,,,,5,,,77,65
16704,note_on,,,,,4,0,1,,,,,0,,,77,75
16740,note_on,,,,,0,0,1,,,,,0,,,76,75
16740,note_on,,,,,0,0,2,,,,,5,,,76,65
16740,note_off,,,,,36,0,1,,,,,0,,,77,0
16740,note_off,,,,,36,0,2,,,,,5,,,77,0
16776,note_on,,,,,0,0,1,,,,,0,,,77,75
16776,note_off,,,,,36,0,1,,,,,0,,,76,0
16776,note_off,,,,,36,0,2,,,,,5,,,76,0
16776,note_on,,,,,0,0,2,,,,,5,,,77,65
16812,note_on,,,,,0,0,2,,,,,5,,,76,65
16812,note_off,,,,,36,0,2,,,,,5,,,77,0
16812,note_off,,,,,36,0,1,,,,,0,,,77,0
16812,note_on,,,,,0,0,1,,,,,0,,,76,75
16848,note_on,,,,,0,0,2,,,,,5,,,77,65
16848,note_off,,,,,36,0,2,,,,,5,,,76,0
16848,note_off,,,,,36,0,1,,,,,0,,,76,0
16848,note_on,,,,,0,0,1,,,,,0,,,77,75
16884,note_off,,,,,36,0,2,,,,,5,,,77,0
16884,note_off,,,,,36,0,1,,,,,0,,,77,0
16884,note_on,,,,,0,0,1,,,,,0,,,76,75
16884,note_on,,,,,0,0,2,,,,,5,,,76,65
16896,note_off,,,,,384,0,5,,,,,4,,,40,0
16896,note_on,,,,,0,0,4,,,,,3,,,50,75
16896,note_off,,,,,384,0,4,,,,,3,,,52,0
16896,note_on,,,,,0,0,5,,,,,4,,,38,69
16896,note_off,,,,,384,0,3,,,,,1,,,60,0
16896,note_on,,,,,0,0,3,,,,,1,,,65,75
16896,note_on,,,,,0,0,3,,,,,1,,,71,75
16920,note_off,,,,,36,0,2,,,,,5,,,76,0
16920,note_on,,,,,0,0,2,,,,,5,,,77,65
16920,note_off,,,,,36,0,1,,,,,0,,,76,0
16920,note_on,,,,,0,0,1,,,,,0,,,77,75
16956,note_off,,,,,36,0,2,,,,,5,,,77,0
16956,note_on,,,,,0,0,2,,,,,5,,,76,65
16956,note_off,,,,,36,0,1,,,,,0,,,77,0
16956,note_on,,,,,0,0,1,,,,,0,,,76,75
16992,note_off,,,,,36,0,2,,,,,5,,,76,0
16992,note_on,,,,,0,0,2,,,,,5,,,77,65
16992,note_off,,,,,36,0,1,,,,,0,,,76,0
16992,note_on,,,,,0,0,1,,,,,0,,,77,75
17028,note_off,,,,,36,0,1,,,,,0,,,77,0
17028,note_on,,,,,0,0,1,,,,,0,,,76,75
17028,note_off,,,,,36,0,2,,,,,5,,,77,0
17028,note_on,,,,,0,0,2,,,,,5,,,76,65
17064,note_off,,,,,36,0,2,,,,,5,,,76,0
17064,note_on,,,,,0,0,1,,,,,0,,,77,75
17064,note_off,,,,,36,0,1,,,,,0,,,76,0
17064,note_on,,,,,0,0,2,,,,,5,,,77,65
17100,note_on,,,,,0,0,2,,,,,5,,,76,65
17100,note_on,,,,,0,0,1,,,,,0,,,76,75
17100,note_off,,,,,36,0,1,,,,,0,,,77,0
17100,note_off,,,,,36,0,2,,,,,5,,,77,0
17136,note_on,,,,,0,0,1,,,,,0,,,77,75
17136,note_off,,,,,36,0,2,,,,,5,,,76,0
17136,note_on,,,,,0,0,2,,,,,5,,,77,65
17136,note_off,,,,,36,0,1,,,,,0,,,76,0
17172,note_off,,,,,36,0,1,,,,,0,,,77,0
17172,note_off,,,,,36,0,2,,,,,5,,,77,0
17172,note_on,,,,,0,0,2,,,,,5,,,76,65
17172,note_on,,,,,0,0,1,,,,,0,,,76,75
17208,note_on,,,,,0,0,2,,,,,5,,,77,65
17208,note_off,,,,,36,0,1,,,,,0,,,76,0
17208,note_off,,,,,36,0,2,,,,,5,,,76,0
17208,note_on,,,,,0,0,1,,,,,0,,,77,75
17244,note_off,,,,,36,0,2,,,,,5,,,77,0
17244,note_on,,,,,0,0,1,,,,,0,,,76,75
17244,note_off,,,,,36,0,1,,,,,0,,,77,0
17244,note_on,,,,,0,0,2,,,,,5,,,76,65
17280,note_on,,,,,0,0,3,,,,,1,,,72,75
17280,note_on,,,,,0,0,4,,,,,3,,,48,75
17280,note_off,,,,,0,0,3,,,,,1,,,65,0
17280,note_off,,,,,384,0,5,,,,,4,,,38,0
17280,note_on,,,,,0,0,5,,,,,4,,,36,69
17280,note_off,,,,,384,0,3,,,,,1,,,71,0
17280,note_off,,,,,384,0,4,,,,,3,,,50,0
17280,note_on,,,,,0,0,3,,,,,1,,,64,75
17600,note_off,,,,,356,0,2,,,,,5,,,76,0
17600,note_off,,,,,356,0,1,,,,,0,,,76,0
17664,note_on,,,,,64,0,1,,,,,0,,,79,75
17664,note_on,,,,,0,0,5,,,,,4,,,35,69
17664,note_off,,,,,384,0,5,,,,,4,,,36,0
17664,note_on,,,,,0,0,4,,,,,3,,,47,75
17664,note_off,,,,,384,0,4,,,,,3,,,48,0
17664,note_on,,,,,64,0,2,,,,,5,,,79,65
17952,note_off,,,,,288,0,1,,,,,0,,,79,0
17952,note_on,,,,,0,0,1,,,,,0,,,81,75
17952,note_off,,,,,288,0,2,,,,,5,,,79,0
17952,note_on,,,,,0,0,2,,,,,5,,,81,65
18044,note_off,,,,,92,0,1,,,,,0,,,81,0
18044,note_off,,,,,92,0,2,,,,,5,,,81,0
18048,note_on,,,,,4,0,2,,,,,5,,,79,65
18048,note_on,,,,,0,0,3,,,,,1,,,66,75
18048,note_on,,,,,0,0,3,,,,,1,,,60,75
18048,note_on,,,,,0,0,4,,,,,3,,,45,75
18048,note_off,,,,,384,0,4,,,,,3,,,47,0
18048,note_on,,,,,4,0,1,,,,,0,,,79,75
18048,note_off,,,,,384,0,5,,,,,4,,,35,0
18048,note_on,,,,,0,0,5,,,,,4,,,33,69
18048,note_off,,,,,768,0,3,,,,,1,,,67,0
18048,note_off,,,,,0,0,3,,,,,1,,,64,0
18072,note_on,,,,,0,0,1,,,,,0,,,78,75
18072,note_on,,,,,0,0,2,,,,,5,,,78,65
18072,note_off,,,,,24,0,2,,,,,5,,,79,0
18072,note_off,,,,,24,0,1,,,,,0,,,79,0
18096,note_on,,,,,0,0,2,,,,,5,,,79,65
18096,note_off,,,,,24,0,2,,,,,5,,,78,0
18096,note_off,,,,,24,0,1,,,,,0,,,78,0
18096,note_on,,,,,0,0,1,,,,,0,,,79,75
18120,note_on,,,,,0,0,2,,,,,5,,,78,65
18120,note_off,,,,,24,0,2,,,,,5,,,79,0
18120,note_off,,,,,24,0,1,,,,,0,,,79,0
18120,note_on,,,,,0,0,1,,,,,0,,,78,75
18144,note_off,,,,,24,0,2,,,,,5,,,78,0
18144,note_on,,,,,0,0,2,,,,,5,,,79,65
18144,note_on,,,,,0,0,1,,,,,0,,,79,75
18144,note_off,,,,,24,0,1,,,,,0,,,78,0
18168,note_on,,,,,0,0,1,,,,,0,,,78,75
18168,note_off,,,,,24,0,1,,,,,0,,,79,0
18168,note_on,,,,,0,0,2,,,,,5,,,78,65
18168,note_off,,,,,24,0,2,,,,,5,,,79,0
18192,note_on,,,,,0,0,2,,,,,5,,,79,65
18192,note_off,,,,,24,0,2,,,,,5,,,78,0
18192,note_on,,,,,0,0,1,,,,,0,,,79,75
18192,note_off,,,,,24,0,1,,,,,0,,,78,0
18216,note_off,,,,,24,0,1,,,,,0,,,79,0
18216,note_off,,,,,24,0,2,,,,,5,,,79,0
18216,note_on,,,,,0,0,2,,,,,5,,,78,65
18216,note_on,,,,,0,0,1,,,,,0,,,78,75
18336,note_on,,,,,0,0,1,,,,,0,,,76,75
18336,note_off,,,,,120,0,2,,,,,5,,,78,0
18336,note_on,,,,,0,0,2,,,,,5,,,76,65
18336,note_off,,,,,120,0,1,,,,,0,,,78,0
18384,note_off,,,,,48,0,2,,,,,5,,,76,0
18384,note_on,,,,,0,0,2,,,,,5,,,78,65
18384,note_on,,,,,0,0,1,,,,,0,,,78,75
18384,note_off,,,,,48,0,1,,,,,0,,,76,0
18428,note_off,,,,,44,0,2,,,,,5,,,78,0
18428,note_off,,,,,44,0,1,,,,,0,,,78,0
18432,note_off,,,,,384,0,4,,,,,3,,,45,0
18432,note_off,,,,,384,0,5,,,,,4,,,33,0
18432,note_on,,,,,0,0,5,,,,,4,,,31,69
18432,note_off,,,,,384,0,3,,,,,1,,,72,0
18432,note_off,,,,,0,0,3,,,,,1,,,66,0
18432,note_off,,,,,0,0,3,,,,,1,,,60,0
18432,note_on,,,,,0,0,3,,,,,1,,,67,75
18432,note_on,,,,,0,0,3,,,,,1,,,71,75
18432,note_on,,,,,4,0,1,,,,,0,,,79,75
18432,note_on,,,,,0,0,3,,,,,1,,,62,75
18432,note_on,,,,,0,0,4,,,,,3,,,43,75
18432,note_on,,,,,4,0,2,,,,,5,,,79,65
18752,note_off,,,,,0,0,3,,,,,1,,,71,0
18752,note_off,,,,,0,0,3,,,,,1,,,62,0
18752,note_off,,,,,320,0,5,,,,,4,,,31,0
18752,note_off,,,,,320,0,4,,,,,3,,,43,0
18752,note_off,,,,,320,0,3,,,,,1,,,67,0
18816,note_on,,,,,64,0,3,,,,,1,,,71,75
18816,note_on,,,,,0,0,3,,,,,1,,,74,75
18816,note_on,,,,,0,0,3,,,,,1,,,67,75
18816,note_on,,,,,64,0,4,,,,,3,,,55,75
18816,note_on,,,,,64,0,5,,,,,4,,,43,69
19200,note_on,,,,,0,0,4,,,,,3,,,53,75
19200,note_off,,,,,384,0,4,,,,,3,,,55,0
19200,note_on,,,,,0,0,5,,,,,4,,,41,69
19200,note_off,,,,,384,0,5,,,,,4,,,43,0
19488,note_off,,,,,1056,0,2,,,,,5,,,79,0
19488,note_off,,,,,1056,0,1,,,,,0,,,79,0
19584,note_on,,,,,0,0,5,,,,,4,,,40,69
19584,note_off,,,,,384,0,5,,,,,4,,,41,0
19584,note_off,,,,,768,0,3,,,,,1,,,71,0
19584,note_off,,,,,384,0,4,,,,,3,,,53,0
19584,note_on,,,,,0,0,4,,,,,3,,,52,75
19584,note_on,,,,,0,0,3,,,,,1,,,68,75
19584,note_on,,,,,0,0,3,,,,,1,,,76,75
19584,note_on,,,,,0,0,3,,,,,1,,,71,75
19584,note_off,,,,,0,0,3,,,,,1,,,67,0
19584,note_off,,,,,0,0,3,,,,,1,,,74,0
19584,note_on,,,,,96,0,1,,,,,0,,,80,78
19584,note_on,,,,,96,0,2,,,,,5,,,80,67
19904,note_off,,,,,320,0,5,,,,,4,,,40,0
19904,note_off,,,,,320,0,4,,,,,3,,,52,0
19968,note_on,,,,,64,0,4,,,,,3,,,64,75
19968,note_on,,,,,64,0,5,,,,,4,,,52,69
20352,note_on,,,,,0,0,4,,,,,3,,,62,75
20352,note_on,,,,,0,0,5,,,,,4,,,50,69
20352,note_off,,,,,384,0,4,,,,,3,,,64,0
20352,note_off,,,,,384,0,5,,,,,4,,,52,0
20640,note_off,,,,,1056,0,1,,,,,0,,,80,0
20640,note_off,,,,,1056,0,2,,,,,5,,,80,0
20736,note_on,,,,,0,0,3,,,,,1,,,69,75
20736,note_on,,,,,0,0,3,,,,,1,,,72,75
20736,note_off,,,,,0,0,3,,,,,1,,,68,0
20736,note_off,,,,,0,0,3,,,,,1,,,76,0
20736,note_off,,,,,1152,0,3,,,,,1,,,71,0
20736,note_on,,,,,0,0,3,,,,,1,,,76,75
20736,note_on,,,,,96,0,1,,,,,0,,,79,81
20736,note_on,,,,,0,0,4,,,,,3,,,60,75
20736,note_on,,,,,96,0,2,,,,,5,,,79,70
20736,note_off,,,,,384,0,5,,,,,4,,,50,0
20736,note_on,,,,,0,0,5,,,,,4,,,48,69
20736,note_off,,,,,384,0,4,,,,,3,,,62,0
20784,note_off,,,,,48,0,2,,,,,5,,,79,0
20784,note_on,,,,,0,0,2,,,,,5,,,78,70
20784,note_on,,,,,0,0,1,,,,,0,,,78,81
20784,note_off,,,,,48,0,1,,,,,0,,,79,0
20832,note_off,,,,,48,0,1,,,,,0,,,78,0
20832,note_on,,,,,0,0,1,,,,,0,,,79,81
20832,note_on,,,,,0,0,2,,,,,5,,,79,70
20832,note_off,,,,,48,0,2,,,,,5,,,78,0
21120,note_on,,,,,0,0,5,,,,,4,,,47,69
21120,note_off,,,,,384,0,5,,,,,4,,,48,0
21120,note_on,,,,,0,0,4,,,,,3,,,59,75
21120,note_off,,,,,384,0,4,,,,,3,,,60,0
21504,note_off,,,,,384,0,4,,,,,3,,,59,0
21504,note_on,,,,,0,0,5,,,,,4,,,45,69
21504,note_on,,,,,0,0,4,,,,,3,,,57,75
21504,note_off,,,,,384,0,5,,,,,4,,,47,0
21792,note_off,,,,,960,0,1,,,,,0,,,79,0
21792,note_off,,,,,0,0,3,,,,,1,,,76,0
21792,note_off,,,,,0,0,3,,,,,1,,,69,0
21792,note_off,,,,,960,0,2,,,,,5,,,79,0
21792,note_off,,,,,1056,0,3,,,,,1,,,72,0
21824,note_off,,,,,320,0,5,,,,,4,,,45,0
21824,note_off,,,,,320,0,4,,,,,3,,,57,0
21888,note_on,,,,,96,0,2,,,,,5,,,84,72
21888,note_on,,,,,64,0,5,,,,,4,,,44,69
21888,note_on,,,,,64,0,4,,,,,3,,,56,75
21888,note_on,,,,,96,0,1,,,,,0,,,84,83
21888,note_on,,,,,0,0,3,,,,,1,,,71,75
21888,note_on,,,,,96,0,3,,,,,1,,,76,75
21912,note_off,,,,,24,0,1,,,,,0,,,84,0
21912,note_on,,,,,0,0,1,,,,,0,,,83,83
21912,note_on,,,,,0,0,2,,,,,5,,,83,72
21912,note_off,,,,,24,0,2,,,,,5,,,84,0
21936,note_off,,,,,24,0,2,,,,,5,,,83,0
21936,note_on,,,,,0,0,2,,,,,5,,,84,72
21936,note_on,,,,,0,0,1,,,,,0,,,84,83
21936,note_off,,,,,24,0,1,,,,,0,,,83,0
21960,note_off,,,,,24,0,1,,,,,0,,,84,0
21960,note_off,,,,,24,0,2,,,,,5,,,84,0
21960,note_on,,,,,0,0,2,,,,,5,,,83,72
21960,note_on,,,,,0,0,1,,,,,0,,,83,83
21984,note_on,,,,,0,0,1,,,,,0,,,84,83
21984,note_off,,,,,24,0,2,,,,,5,,,83,0
21984,note_off,,,,,24,0,1,,,,,0,,,83,0
21984,note_on,,,,,0,0,2,,,,,5,,,84,72
22008,note_on,,,,,0,0,1,,,,,0,,,83,83
22008,note_off,,,,,24,0,2,,,,,5,,,84,0
22008,note_on,,,,,0,0,2,,,,,5,,,83,72
22008,note_off,,,,,24,0,1,,,,,0,,,84,0
22128,note_on,,,,,0,0,1,,,,,0,,,81,83
22128,note_off,,,,,120,0,1,,,,,0,,,83,0
22128,note_on,,,,,0,0,2,,,,,5,,,81,72
22128,note_off,,,,,120,0,2,,,,,5,,,83,0
22272,note_off,,,,,0,0,3,,,,,1,,,71,0
22272,note_off,,,,,384,0,3,,,,,1,,,76,0
22272,note_off,,,,,384,0,5,,,,,4,,,44,0
22272,note_on,,,,,0,0,5,,,,,4,,,42,69
22272,note_off,,,,,144,0,2,,,,,5,,,81,0
22272,note_on,,,,,0,0,1,,,,,0,,,83,83
22272,note_off,,,,,144,0,1,,,,,0,,,81,0
22272,note_on,,,,,0,0,3,,,,,1,,,75,75
22272,note_on,,,,,0,0,2,,,,,5,,,83,72
22272,note_on,,,,,0,0,3,,,,,1,,,69,75
22272,note_on,,,,,0,0,3,,,,,1,,,78,75
22272,note_off,,,,,384,0,4,,,,,3,,,56,0
22272,note_on,,,,,0,0,4,,,,,3,,,54,75
22656,note_off,,,,,0,0,3,,,,,1,,,69,0
22656,note_on,,,,,0,0,3,,,,,1,,,80,75
22656,note_on,,,,,0,0,4,,,,,3,,,52,75
22656,note_on,,,,,0,0,3,,,,,1,,,76,75
22656,note_off,,,,,384,0,3,,,,,1,,,75,0
22656,note_off,,,,,384,0,4,,,,,3,,,54,0
22656,note_off,,,,,0,0,3,,,,,1,,,78,0
22656,note_on,,,,,0,0,3,,,,,1,,,71,75
22656,note_on,,,,,0,0,5,,,,,4,,,40,69
22656,note_off,,,,,384,0,5,,,,,4,,,42,0
22944,note_off,,,,,672,0,1,,,,,0,,,83,0
22944,note_off,,,,,672,0,2,,,,,5,,,83,0
22976,note_off,,,,,320,0,3,,,,,1,,,80,0
22976,note_off,,,,,320,0,4,,,,,3,,,52,0
22976,note_off,,,,,320,0,5,,,,,4,,,40,0
22976,note_off,,,,,0,0,3,,,,,1,,,71,0
23040,note_on,,,,,0,0,3,,,,,1,,,72,75
23040,note_on,,,,,64,0,3,,,,,1,,,81,75
23040,note_on,,,,,96,0,2,,,,,5,,,86,74
23040,note_on,,,,,96,0,1,,,,,0,,,86,86
23040,note_on,,,,,64,0,4,,,,,3,,,57,75
23040,note_on,,,,,64,0,5,,,,,4,,,45,69
23064,note_off,,,,,24,0,1,,,,,0,,,86,0
23064,note_on,,,,,0,0,1,,,,,0,,,84,86
23064,note_on,,,,,0,0,2,,,,,5,,,84,74
23064,note_off,,,,,24,0,2,,,,,5,,,86,0
23088,note_off,,,,,24,0,2,,,,,5,,,84,0
23088,note_on,,,,,0,0,2,,,,,5,,,86,74
23088,note_on,,,,,0,0,1,,,,,0,,,86,86
23088,note_off,,,,,24,0,1,,,,,0,,,84,0
23112,note_off,,,,,24,0,1,,,,,0,,,86,0
23112,note_on,,,,,0,0,1,,,,,0,,,84,86
23112,note_off,,,,,24,0,2,,,,,5,,,86,0
23112,note_on,,,,,0,0,2,,,,,5,,,84,74
23136,note_on,,,,,0,0,2,,,,,5,,,86,74
23136,note_on,,,,,0,0,1,,,,,0,,,86,86
23136,note_off,,,,,24,0,2,,,,,5,,,84,0
23136,note_off,,,,,24,0,1,,,,,0,,,84,0
23160,note_on,,,,,0,0,2,,,,,5,,,84,74
23160,note_off,,,,,24,0,1,,,,,0,,,86,0
23160,note_on,,,,,0,0,1,,,,,0,,,84,86
23160,note_off,,,,,24,0,2,,,,,5,,,86,0
23184,note_on,,,,,0,0,1,,,,,0,,,86,86
23184,note_off,,,,,24,0,1,,,,,0,,,84,0
23184,note_off,,,,,24,0,2,,,,,5,,,84,0
23184,note_on,,,,,0,0,2,,,,,5,,,86,74
23208,note_off,,,,,24,0,2,,,,,5,,,86,0
23208,note_on,,,,,0,0,1,,,,,0,,,84,86
23208,note_off,,,,,24,0,1,,,,,0,,,86,0
23208,note_on,,,,,0,0,2,,,,,5,,,84,74
23232,note_off,,,,,24,0,1,,,,,0,,,84,0
23232,note_on,,,,,0,0,2,,,,,5,,,86,74
23232,note_on,,,,,0,0,1,,,,,0,,,86,86
23232,note_off,,,,,24,0,2,,,,,5,,,84,0
23256,note_off,,,,,24,0,2,,,,,5,,,86,0
23256,note_on,,,,,0,0,2,,,,,5,,,84,74
23256,note_on,,,,,0,0,1,,,,,0,,,84,86
23256,note_off,,,,,24,0,1,,,,,0,,,86,0
23280,note_off,,,,,24,0,2,,,,,5,,,84,0
23280,note_on,,,,,0,0,1,,,,,0,,,86,86
23280,note_off,,,,,24,0,1,,,,,0,,,84,0
23280,note_on,,,,,0,0,2,,,,,5,,,86,74
23304,note_off,,,,,24,0,1,,,,,0,,,86,0
23304,note_off,,,,,24,0,2,,,,,5,,,86,0
23304,note_on,,,,,0,0,2,,,,,5,,,84,74
23304,note_on,,,,,0,0,1,,,,,0,,,84,86
23424,note_off,,,,,384,0,4,,,,,3,,,57,0
23424,note_on,,,,,0,0,3,,,,,1,,,74,75
23424,note_off,,,,,384,0,3,,,,,1,,,76,0
23424,note_on,,,,,0,0,4,,,,,3,,,54,75
23424,note_on,,,,,0,0,5,,,,,4,,,42,69
23424,note_off,,,,,384,0,5,,,,,4,,,45,0
23612,note_off,,,,,308,0,2,,,,,5,,,84,0
23612,note_off,,,,,308,0,1,,,,,0,,,84,0
23616,note_on,,,,,4,0,1,,,,,0,,,83,88
23616,note_on,,,,,4,0,2,,,,,5,,,83,76
23712,note_on,,,,,0,0,1,,,,,0,,,84,88
23712,note_off,,,,,288,0,3,,,,,1,,,81,0
23712,note_off,,,,,96,0,2,,,,,5,,,83,0
23712,note_on,,,,,0,0,2,,,,,5,,,84,76
23712,note_off,,,,,96,0,1,,,,,0,,,83,0
23808,note_off,,,,,384,0,5,,,,,4,,,42,0
23808,note_on,,,,,0,0,5,,,,,4,,,43,69
23808,note_on,,,,,0,0,1,,,,,0,,,83,88
23808,note_off,,,,,96,0,1,,,,,0,,,84,0
23808,note_off,,,,,384,0,4,,,,,3,,,54,0
23808,note_off,,,,,96,0,3,,,,,1,,,72,0
23808,note_on,,,,,0,0,2,,,,,5,,,83,76
23808,note_off,,,,,96,0,2,,,,,5,,,84,0
23808,note_on,,,,,0,0,3,,,,,1,,,71,75
23808,note_on,,,,,0,0,3,,,,,1,,,79,75
23808,note_on,,,,,0,0,3,,,,,1,,,74,75
23808,note_off,,,,,0,0,3,,,,,1,,,74,0
23808,note_on,,,,,0,0,4,,,,,3,,,55,75
24128,note_off,,,,,320,0,2,,,,,5,,,83,0
24128,note_off,,,,,320,0,1,,,,,0,,,83,0
24128,note_off,,,,,320,0,5,,,,,4,,,43,0
24128,note_off,,,,,320,0,4,,,,,3,,,55,0
24192,note_on,,,,,64,0,1,,,,,0,,,76,92
24192,note_on,,,,,64,0,5,,,,,4,,,48,69
24192,note_on,,,,,64,0,4,,,,,3,,,60,75
24192,note_on,,,,,64,0,2,,,,,5,,,76,80
24192,note_off,,,,,0,0,3,,,,,1,,,71,0
24192,note_on,,,,,0,0,3,,,,,1,,,76,75
24192,note_off,,,,,384,0,3,,,,,1,,,74,0
24192,note_off,,,,,0,0,3,,,,,1,,,79,0
24192,note_on,,,,,0,0,3,,,,,1,,,79,75
24192,note_on,,,,,0,0,3,,,,,1,,,69,75
24512,note_off,,,,,320,0,3,,,,,1,,,69,0
24576,note_off,,,,,384,0,4,,,,,3,,,60,0
24576,note_on,,,,,0,0,4,,,,,3,,,59,75
24576,note_on,,,,,64,0,3,,,,,1,,,71,75
24576,note_on,,,,,0,0,5,,,,,4,,,47,69
24576,note_off,,,,,384,0,5,,,,,4,,,48,0
24768,note_on,,,,,0,0,1,,,,,0,,,78,92
24768,note_off,,,,,576,0,1,,,,,0,,,76,0
24768,note_off,,,,,576,0,2,,,,,5,,,76,0
24768,note_on,,,,,0,0,2,,,,,5,,,78,80
24864,note_on,,,,,0,0,1,,,,,0,,,79,92
24864,note_off,,,,,96,0,2,,,,,5,,,78,0
24864,note_on,,,,,0,0,2,,,,,5,,,79,80
24864,note_off,,,,,288,0,3,,,,,1,,,79,0
24864,note_off,,,,,96,0,1,,,,,0,,,78,0
24896,note_off,,,,,32,0,3,,,,,1,,,71,0
24960,note_on,,,,,0,0,1,,,,,0,,,81,92
24960,note_off,,,,,96,0,2,,,,,5,,,79,0
24960,note_off,,,,,96,0,1,,,,,0,,,79,0
24960,note_on,,,,,0,0,2,,,,,5,,,81,80
24960,note_on,,,,,0,0,5,,,,,4,,,45,69
24960,note_off,,,,,384,0,5,,,,,4,,,47,0
24960,note_on,,,,,0,0,3,,,,,1,,,72,75
24960,note_on,,,,,64,0,3,,,,,1,,,78,75
24960,note_on,,,,,0,0,4,,,,,3,,,57,75
24960,note_off,,,,,384,0,4,,,,,3,,,59,0
25056,note_on,,,,,0,0,2,,,,,5,,,79,80
25056,note_off,,,,,96,0,1,,,,,0,,,81,0
25056,note_on,,,,,0,0,1,,,,,0,,,79,92
25056,note_off,,,,,96,0,2,,,,,5,,,81,0
25152,note_off,,,,,96,0,2,,,,,5,,,79,0
25152,note_on,,,,,0,0,2,,,,,5,,,78,80
25152,note_on,,,,,0,0,1,,,,,0,,,78,92
25152,note_off,,,,,96,0,1,,,,,0,,,79,0
25248,note_on,,,,,0,0,1,,,,,0,,,76,92
25248,note_off,,,,,96,0,2,,,,,5,,,78,0
25248,note_off,,,,,96,0,1,,,,,0,,,78,0
25248,note_on,,,,,0,0,2,,,,,5,,,76,80
25340,note_off,,,,,92,0,1,,,,,0,,,76,0
25340,note_off,,,,,92,0,2,,,,,5,,,76,0
25344,note_on,,,,,4,0,2,,,,,5,,,76,80
25344,note_off,,,,,0,0,3,,,,,1,,,72,0
25344,note_off,,,,,384,0,3,,,,,1,,,76,0
25344,note_off,,,,,0,0,3,,,,,1,,,78,0
25344,note_on,,,,,4,0,1,,,,,0,,,76,92
25344,note_on,,,,,0,0,4,,,,,3,,,59,75
25344,note_on,,,,,0,0,3,,,,,1,,,75,75
25344,note_off,,,,,384,0,5,,,,,4,,,45,0
25344,note_on,,,,,0,0,5,,,,,4,,,47,69
25344,note_on,,,,,0,0,3,,,,,1,,,71,75
25344,note_on,,,,,0,0,3,,,,,1,,,78,75
25344,note_off,,,,,384,0,4,,,,,3,,,57,0
25368,note_on,,,,,0,0,2,,,,,5,,,75,80
25368,note_off,,,,,24,0,2,,,,,5,,,76,0
25368,note_off,,,,,24,0,1,,,,,0,,,76,0
25368,note_on,,,,,0,0,1,,,,,0,,,75,92
25392,note_off,,,,,24,0,2,,,,,5,,,75,0
25392,note_on,,,,,0,0,2,,,,,5,,,76,80
25392,note_on,,,,,0,0,1,,,,,0,,,76,92
25392,note_off,,,,,24,0,1,,,,,0,,,75,0
25416,note_on,,,,,0,0,2,,,,,5,,,75,80
25416,note_on,,,,,0,0,1,,,,,0,,,75,92
25416,note_off,,,,,24,0,1,,,,,0,,,76,0
25416,note_off,,,,,24,0,2,,,,,5,,,76,0
25440,note_on,,,,,0,0,1,,,,,0,,,76,92
25440,note_off,,,,,24,0,2,,,,,5,,,75,0
25440,note_off,,,,,24,0,1,,,,,0,,,75,0
25440,note_on,,,,,0,0,2,,,,,5,,,76,80
25464,note_on,,,,,0,0,2,,,,,5,,,75,80
25464,note_on,,,,,0,0,1,,,,,0,,,75,92
25464,note_off,,,,,24,0,1,,,,,0,,,76,0
25464,note_off,,,,,24,0,2,,,,,5,,,76,0
25488,note_off,,,,,24,0,2,,,,,5,,,75,0
25488,note_off,,,,,24,0,1,,,,,0,,,75,0
25488,note_on,,,,,0,0,1,,,,,0,,,76,92
25488,note_on,,,,,0,0,2,,,,,5,,,76,80
25512,note_off,,,,,24,0,1,,,,,0,,,76,0
25512,note_on,,,,,0,0,1,,,,,0,,,75,92
25512,note_on,,,,,0,0,2,,,,,5,,,75,80
25512,note_off,,,,,24,0,2,,,,,5,,,76,0
25536,note_off,,,,,24,0,2,,,,,5,,,75,0
25536,note_on,,,,,0,0,1,,,,,0,,,76,92
25536,note_off,,,,,24,0,1,,,,,0,,,75,0
25536,note_on,,,,,0,0,2,,,,,5,,,76,80
25560,note_off,,,,,24,0,1,,,,,0,,,76,0
25560,note_on,,,,,0,0,2,,,,,5,,,75,80
25560,note_off,,,,,24,0,2,,,,,5,,,76,0
25560,note_on,,,,,0,0,1,,,,,0,,,75,92
25584,note_on,,,,,0,0,1,,,,,0,,,76,92
25584,note_off,,,,,24,0,1,,,,,0,,,75,0
25584,note_on,,,,,0,0,2,,,,,5,,,76,80
25584,note_off,,,,,24,0,2,,,,,5,,,75,0
25608,note_on,,,,,0,0,1,,,,,0,,,75,92
25608,note_off,,,,,24,0,1,,,,,0,,,76,0
25608,note_off,,,,,24,0,2,,,,,5,,,76,0
25608,note_on,,,,,0,0,2,,,,,5,,,75,80
25664,note_off,,,,,320,0,5,,,,,4,,,47,0
25664,note_off,,,,,320,0,4,,,,,3,,,59,0
25664,note_off,,,,,320,0,3,,,,,1,,,75,0
25664,note_off,,,,,0,0,3,,,,,1,,,78,0
25664,note_off,,,,,0,0,3,,,,,1,,,71,0
25728,note_on,,,,,64,0,4,,,,,3,,,47,75
25728,note_on,,,,,0,0,3,,,,,1,,,75,75
25728,note_on,,,,,64,0,5,,,,,4,,,35,69
25728,note_on,,,,,64,0,3,,,,,1,,,71,75
25728,note_on,,,,,0,0,3,,,,,1,,,66,75
25920,note_on,,,,,0,0,2,,,,,5,,,73,71
25920,note_on,,,,,0,0,1,,,,,0,,,73,82
25920,note_off,,,,,312,0,1,,,,,0,,,75,0
25920,note_off,,,,,312,0,2,,,,,5,,,75,0
26112,note_on,,,,,0,0,1,,,,,0,,,71,75
26112,note_on,,,,,0,0,2,,,,,5,,,71,65
26112,note_off,,,,,384,0,4,,,,,3,,,47,0
26112,note_on,,,,,0,0,4,,,,,3,,,45,75
26112,note_off,,,,,192,0,1,,,,,0,,,73,0
26112,note_off,,,,,384,0,5,,,,,4,,,35,0
26112,note_on,,,,,0,0,5,,,,,4,,,33,69
26112,note_off,,,,,192,0,2,,,,,5,,,73,0
26400,note_off,,,,,672,0,3,,,,,1,,,75,0
26432,note_off,,,,,320,0,2,,,,,5,,,71,0
26432,note_off,,,,,320,0,1,,,,,0,,,71,0
26496,note_on,,,,,0,0,5,,,,,4,,,31,69
26496,note_off,,,,,384,0,4,,,,,3,,,45,0
26496,note_on,,,,,0,0,3,,,,,1,,,64,75
26496,note_on,,,,,0,0,3,,,,,1,,,76,75
26496,note_off,,,,,96,0,3,,,,,1,,,66,0
26496,note_on,,,,,0,0,4,,,,,3,,,43,75
26496,note_off,,,,,384,0,5,,,,,4,,,33,0
26816,note_off,,,,,0,0,3,,,,,1,,,64,0
26816,note_off,,,,,320,0,4,,,,,3,,,43,0
26816,note_off,,,,,320,0,3,,,,,1,,,71,0
26816,note_off,,,,,0,0,3,,,,,1,,,76,0
26816,note_off,,,,,320,0,5,,,,,4,,,31,0
26880,note_on,,,,,0,0,3,,,,,1,,,76,75
26880,note_on,,,,,64,0,5,,,,,4,,,43,69
26880,note_on,,,,,64,0,4,,,,,3,,,55,75
26880,note_on,,,,,0,0,3,,,,,1,,,71,75
26880,note_on,,,,,448,0,2,,,,,5,,,76,65
26880,note_on,,,,,448,0,1,,,,,0,,,76,75
26880,note_on,,,,,64,0,3,,,,,1,,,71,75
27072,note_on,,,,,0,0,1,,,,,0,,,74,75
27072,note_off,,,,,192,0,1,,,,,0,,,76,0
27072,note_off,,,,,192,0,2,,,,,5,,,76,0
27072,note_on,,,,,0,0,2,,,,,5,,,74,65
27260,note_off,,,,,188,0,1,,,,,0,,,74,0
27260,note_off,,,,,188,0,2,,,,,5,,,74,0
27264,note_on,,,,,0,0,3,,,,,1,,,69,75
27264,note_off,,,,,0,0,3,,,,,1,,,71,0
27264,note_off,,,,,0,0,3,,,,,1,,,76,0
27264,note_off,,,,,384,0,3,,,,,1,,,71,0
27264,note_on,,,,,0,0,4,,,,,3,,,54,75
27264,note_off,,,,,384,0,4,,,,,3,,,55,0
27264,note_on,,,,,4,0,2,,,,,5,,,74,65
27264,note_on,,,,,0,0,3,,,,,1,,,78,75
27264,note_on,,,,,0,0,5,,,,,4,,,42,69
27264,note_off,,,,,384,0,5,,,,,4,,,43,0
27264,note_on,,,,,4,0,1,,,,,0,,,74,75
27264,note_on,,,,,0,0,3,,,,,1,,,74,75
27456,note_on,,,,,0,0,2,,,,,5,,,72,65
27456,note_off,,,,,192,0,2,,,,,5,,,74,0
27456,note_on,,,,,0,0,1,,,,,0,,,72,75
27456,note_off,,,,,192,0,1,,,,,0,,,74,0
27644,note_off,,,,,188,0,1,,,,,0,,,72,0
27644,note_off,,,,,188,0,2,,,,,5,,,72,0
27648,note_off,,,,,384,0,5,,,,,4,,,42,0
27648,note_on,,,,,4,0,2,,,,,5,,,74,65
27648,note_on,,,,,0,0,5,,,,,4,,,40,69
27648,note_off,,,,,384,0,3,,,,,1,,,74,0
27648,note_off,,,,,0,0,3,,,,,1,,,78,0
27648,note_off,,,,,0,0,3,,,,,1,,,69,0
27648,note_on,,,,,0,0,3,,,,,1,,,72,75
27648,note_on,,,,,0,0,3,,,,,1,,,79,75
27648,note_on,,,,,0,0,3,,,,,1,,,67,75
27648,note_off,,,,,384,0,4,,,,,3,,,54,0
27648,note_on,,,,,0,0,4,,,,,3,,,52,75
27648,note_on,,,,,4,0,1,,,,,0,,,74,75
27672,note_off,,,,,24,0,1,,,,,0,,,74,0
27672,note_on,,,,,0,0,1,,,,,0,,,72,75
27672,note_off,,,,,24,0,2,,,,,5,,,74,0
27672,note_on,,,,,0,0,2,,,,,5,,,72,65
27696,note_on,,,,,0,0,1,,,,,0,,,74,75
27696,note_off,,,,,24,0,1,,,,,0,,,72,0
27696,note_off,,,,,24,0,2,,,,,5,,,72,0
27696,note_on,,,,,0,0,2,,,,,5,,,74,65
27720,note_off,,,,,24,0,2,,,,,5,,,74,0
27720,note_off,,,,,24,0,1,,,,,0,,,74,0
27720,note_on,,,,,0,0,1,,,,,0,,,72,75
27720,note_on,,,,,0,0,2,,,,,5,,,72,65
27744,note_off,,,,,24,0,1,,,,,0,,,72,0
27744,note_on,,,,,0,0,1,,,,,0,,,74,75
27744,note_on,,,,,0,0,2,,,,,5,,,74,65
27744,note_off,,,,,24,0,2,,,,,5,,,72,0
27768,note_off,,,,,24,0,1,,,,,0,,,74,0
27768,note_on,,,,,0,0,1,,,,,0,,,72,75
27768,note_off,,,,,24,0,2,,,,,5,,,74,0
27768,note_on,,,,,0,0,2,,,,,5,,,72,65
27792,note_off,,,,,24,0,1,,,,,0,,,72,0
27792,note_on,,,,,0,0,1,,,,,0,,,74,75
27792,note_off,,,,,24,0,2,,,,,5,,,72,0
27792,note_on,,,,,0,0,2,,,,,5,,,74,65
27816,note_off,,,,,24,0,1,,,,,0,,,74,0
27816,note_on,,,,,0,0,1,,,,,0,,,72,75
27816,note_off,,,,,24,0,2,,,,,5,,,74,0
27816,note_on,,,,,0,0,2,,,,,5,,,72,65
27840,note_on,,,,,0,0,2,,,,,5,,,74,65
27840,note_off,,,,,24,0,2,,,,,5,,,72,0
27840,note_off,,,,,24,0,1,,,,,0,,,72,0
27840,note_on,,,,,0,0,1,,,,,0,,,74,75
27864,note_on,,,,,0,0,1,,,,,0,,,72,75
27864,note_on,,,,,0,0,2,,,,,5,,,72,65
27864,note_off,,,,,24,0,2,,,,,5,,,74,0
27864,note_off,,,,,24,0,1,,,,,0,,,74,0
27888,note_on,,,,,0,0,2,,,,,5,,,74,65
27888,note_off,,,,,24,0,2,,,,,5,,,72,0
27888,note_off,,,,,24,0,1,,,,,0,,,72,0
27888,note_on,,,,,0,0,1,,,,,0,,,74,75
27912,note_on,,,,,0,0,2,,,,,5,,,72,65
27912,note_off,,,,,24,0,2,,,,,5,,,74,0
27912,note_on,,,,,0,0,1,,,,,0,,,72,75
27912,note_off,,,,,24,0,1,,,,,0,,,74,0
27968,note_off,,,,,0,0,3,,,,,1,,,79,0
27968,note_off,,,,,320,0,3,,,,,1,,,72,0
27968,note_off,,,,,320,0,4,,,,,3,,,52,0
27968,note_off,,,,,320,0,5,,,,,4,,,40,0
28032,note_on,,,,,64,0,5,,,,,4,,,52,69
28032,note_on,,,,,64,0,3,,,,,1,,,72,75
28032,note_on,,,,,64,0,4,,,,,3,,,64,75
28224,note_off,,,,,312,0,2,,,,,5,,,72,0
28224,note_on,,,,,0,0,1,,,,,0,,,71,75
28224,note_off,,,,,312,0,1,,,,,0,,,72,0
28224,note_on,,,,,0,0,2,,,,,5,,,71,65
28320,note_off,,,,,96,0,1,,,,,0,,,71,0
28320,note_on,,,,,0,0,2,,,,,5,,,72,65
28320,note_off,,,,,96,0,2,,,,,5,,,71,0
28320,note_on,,,,,0,0,1,,,,,0,,,72,75
28320,note_off,,,,,288,0,3,,,,,1,,,67,0
28412,note_off,,,,,92,0,1,,,,,0,,,72,0
28412,note_off,,,,,92,0,2,,,,,5,,,72,0
28416,note_on,,,,,0,0,5,,,,,4,,,50,69
28416,note_off,,,,,384,0,5,,,,,4,,,52,0
28416,note_off,,,,,384,0,4,,,,,3,,,64,0
28416,note_on,,,,,0,0,4,,,,,3,,,62,75
28416,note_on,,,,,4,0,1,,,,,0,,,71,75
28416,note_off,,,,,96,0,3,,,,,1,,,72,0
28416,note_on,,,,,0,0,3,,,,,1,,,71,75
28416,note_on,,,,,0,0,3,,,,,1,,,74,75
28416,note_on,,,,,0,0,3,,,,,1,,,65,75
28416,note_on,,,,,4,0,2,,,,,5,,,71,65
28736,note_off,,,,,320,0,1,,,,,0,,,71,0
28736,note_off,,,,,320,0,2,,,,,5,,,71,0
28800,note_off,,,,,384,0,5,,,,,4,,,50,0
28800,note_on,,,,,0,0,3,,,,,1,,,64,75
28800,note_on,,,,,0,0,3,,,,,1,,,76,75
28800,note_off,,,,,0,0,3,,,,,1,,,74,0
28800,note_off,,,,,0,0,3,,,,,1,,,65,0
28800,note_on,,,,,0,0,5,,,,,4,,,48,69
28800,note_off,,,,,384,0,3,,,,,1,,,71,0
28800,note_on,,,,,0,0,4,,,,,3,,,60,75
28800,note_off,,,,,384,0,4,,,,,3,,,62,0
28800,note_on,,,,,0,0,3,,,,,1,,,69,75
29184,note_off,,,,,384,0,3,,,,,1,,,69,0
29184,note_off,,,,,0,0,3,,,,,1,,,64,0
29184,note_on,,,,,0,0,3,,,,,1,,,69,75
29184,note_on,,,,,0,0,4,,,,,3,,,57,75
29184,note_on,,,,,0,0,3,,,,,1,,,69,75
29184,note_on,,,,,0,0,5,,,,,4,,,45,69
29184,note_on,,,,,448,0,2,,,,,5,,,83,65
29184,note_on,,,,,0,0,3,,,,,1,,,72,75
29184,note_off,,,,,384,0,5,,,,,4,,,48,0
29184,note_on,,,,,448,0,1,,,,,0,,,83,75
29184,note_off,,,,,384,0,4,,,,,3,,,60,0
29208,note_on,,,,,0,0,2,,,,,5,,,81,65
29208,note_off,,,,,24,0,2,,,,,5,,,83,0
29208,note_off,,,,,24,0,1,,,,,0,,,83,0
29208,note_on,,,,,0,0,1,,,,,0,,,81,75
29232,note_on,,,,,0,0,2,,,,,5,,,83,65
29232,note_off,,,,,24,0,2,,,,,5,,,81,0
29232,note_off,,,,,24,0,1,,,,,0,,,81,0
29232,note_on,,,,,0,0,1,,,,,0,,,83,75
29256,note_off,,,,,24,0,2,,,,,5,,,83,0
29256,note_on,,,,,0,0,2,,,,,5,,,81,65
29256,note_on,,,,,0,0,1,,,,,0,,,81,75
29256,note_off,,,,,24,0,1,,,,,0,,,83,0
29280,note_on,,,,,0,0,1,,,,,0,,,83,75
29280,note_off,,,,,24,0,1,,,,,0,,,81,0
29280,note_off,,,,,24,0,2,,,,,5,,,81,0
29280,note_on,,,,,0,0,2,,,,,5,,,83,65
29304,note_off,,,,,24,0,2,,,,,5,,,83,0
29304,note_on,,,,,0,0,1,,,,,0,,,81,75
29304,note_off,,,,,24,0,1,,,,,0,,,83,0
29304,note_on,,,,,0,0,2,,,,,5,,,81,65
29328,note_on,,,,,0,0,2,,,,,5,,,83,65
29328,note_on,,,,,0,0,1,,,,,0,,,83,75
29328,note_off,,,,,24,0,1,,,,,0,,,81,0
29328,note_off,,,,,24,0,2,,,,,5,,,81,0
29352,note_off,,,,,24,0,2,,,,,5,,,83,0
29352,note_on,,,,,0,0,2,,,,,5,,,81,65
29352,note_on,,,,,0,0,1,,,,,0,,,81,75
29352,note_off,,,,,24,0,1,,,,,0,,,83,0
29472,note_on,,,,,0,0,2,,,,,5,,,80,65
29472,note_off,,,,,120,0,1,,,,,0,,,81,0
29472,note_off,,,,,120,0,2,,,,,5,,,81,0
29472,note_on,,,,,0,0,1,,,,,0,,,80,75
29564,note_off,,,,,92,0,1,,,,,0,,,80,0
29564,note_off,,,,,92,0,2,,,,,5,,,80,0
29568,note_on,,,,,0,0,5,,,,,4,,,48,69
29568,note_off,,,,,384,0,5,,,,,4,,,45,0
29568,note_off,,,,,0,0,3,,,,,1,,,69,0
29568,note_on,,,,,0,0,3,,,,,1,,,66,75
29568,note_on,,,,,4,0,1,,,,,0,,,81,75
29568,note_off,,,,,384,0,4,,,,,3,,,57,0
29568,note_off,,,,,384,0,3,,,,,1,,,69,0
29568,note_on,,,,,4,0,2,,,,,5,,,81,65
29568,note_on,,,,,0,0,4,,,,,3,,,60,75
29888,note_off,,,,,320,0,4,,,,,3,,,60,0
29888,note_off,,,,,320,0,2,,,,,5,,,81,0
29888,note_off,,,,,320,0,1,,,,,0,,,81,0
29888,note_off,,,,,0,0,3,,,,,1,,,72,0
29888,note_off,,,,,320,0,3,,,,,1,,,76,0
29888,note_off,,,,,320,0,5,,,,,4,,,48,0
29952,note_on,,,,,64,0,5,,,,,4,,,39,69
29952,note_on,,,,,64,0,4,,,,,3,,,51,75
29952,note_on,,,,,0,0,3,,,,,1,,,66,75
29952,note_on,,,,,64,0,2,,,,,5,,,80,66
29952,note_off,,,,,64,0,3,,,,,1,,,66,0
29952,note_on,,,,,0,0,3,,,,,1,,,71,75
29952,note_on,,,,,0,0,3,,,,,1,,,78,75
29952,note_on,,,,,64,0,1,,,,,0,,,80,77
30048,note_on,,,,,0,0,2,,,,,5,,,81,66
30048,note_on,,,,,0,0,1,,,,,0,,,81,77
30048,note_off,,,,,96,0,1,,,,,0,,,80,0
30048,note_off,,,,,96,0,2,,,,,5,,,80,0
30144,note_off,,,,,96,0,1,,,,,0,,,81,0
30144,note_off,,,,,96,0,2,,,,,5,,,81,0
30144,note_on,,,,,0,0,2,,,,,5,,,83,66
30144,note_on,,,,,0,0,1,,,,,0,,,83,77
30240,note_on,,,,,0,0,2,,,,,5,,,81,66
30240,note_off,,,,,96,0,2,,,,,5,,,83,0
30240,note_off,,,,,96,0,1,,,,,0,,,83,0
30240,note_on,,,,,0,0,1,,,,,0,,,81,77
30336,note_on,,,,,0,0,3,,,,,1,,,69,75
30336,note_on,,,,,0,0,3,,,,,1,,,75,75
30336,note_off,,,,,0,0,3,,,,,1,,,66,0
30336,note_off,,,,,384,0,3,,,,,1,,,78,0
30336,note_on,,,,,0,0,5,,,,,4,,,35,69
30336,note_off,,,,,384,0,5,,,,,4,,,39,0
30336,note_on,,,,,0,0,4,,,,,3,,,47,75
30336,note_off,,,,,384,0,4,,,,,3,,,51,0
30524,note_off,,,,,284,0,2,,,,,5,,,81,0
30524,note_off,,,,,284,0,1,,,,,0,,,81,0
30528,note_on,,,,,4,0,1,,,,,0,,,83,78
30528,note_on,,,,,4,0,2,,,,,5,,,83,67
30716,note_off,,,,,188,0,1,,,,,0,,,83,0
30716,note_off,,,,,188,0,2,,,,,5,,,83,0
30720,note_off,,,,,384,0,4,,,,,3,,,47,0
30720,note_on,,,,,0,0,4,,,,,3,,,52,75
30720,note_off,,,,,384,0,5,,,,,4,,,35,0
30720,note_on,,,,,4,0,1,,,,,0,,,79,79
30720,note_on,,,,,4,0,2,,,,,5,,,79,68
30720,note_off,,,,,384,0,3,,,,,1,,,75,0
30720,note_off,,,,,0,0,3,,,,,1,,,69,0
30720,note_on,,,,,0,0,3,,,,,1,,,76,75
30720,note_on,,,,,0,0,3,,,,,1,,,67,75
30720,note_on,,,,,0,0,5,,,,,4,,,40,69
31040,note_off,,,,,320,0,4,,,,,3,,,52,0
31040,note_off,,,,,320,0,3,,,,,1,,,71,0
31040,note_off,,,,,320,0,5,,,,,4,,,40,0
31104,note_on,,,,,64,0,4,,,,,3,,,57,75
31104,note_on,,,,,64,0,5,,,,,4,,,45,69
31104,note_on,,,,,64,0,3,,,,,1,,,72,75
31200,note_off,,,,,480,0,1,,,,,0,,,79,0
31200,note_on,,,,,0,0,1,,,,,0,,,84,82
31200,note_on,,,,,0,0,2,,,,,5,,,84,71
31200,note_off,,,,,480,0,2,,,,,5,,,79,0
31296,note_off,,,,,96,0,2,,,,,5,,,84,0
31296,note_off,,,,,96,0,1,,,,,0,,,84,0
31296,note_on,,,,,0,0,1,,,,,0,,,81,82
31296,note_on,,,,,0,0,2,,,,,5,,,81,71
31392,note_off,,,,,96,0,1,,,,,0,,,81,0
31392,note_on,,,,,0,0,2,,,,,5,,,79,72
31392,note_off,,,,,96,0,2,,,,,5,,,81,0
31392,note_on,,,,,0,0,1,,,,,0,,,79,83
31484,note_off,,,,,92,0,2,,,,,5,,,79,0
31484,note_off,,,,,92,0,1,,,,,0,,,79,0
31488,note_on,,,,,4,0,2,,,,,5,,,79,73
31488,note_on,,,,,0,0,4,,,,,3,,,59,75
31488,note_off,,,,,384,0,4,,,,,3,,,57,0
31488,note_off,,,,,0,0,3,,,,,1,,,72,0
31488,note_off,,,,,384,0,3,,,,,1,,,67,0
31488,note_on,,,,,0,0,5,,,,,4,,,47,69
31488,note_on,,,,,0,0,3,,,,,1,,,71,75
31488,note_on,,,,,0,0,3,,,,,1,,,66,75
31488,note_on,,,,,4,0,1,,,,,0,,,79,84
31488,note_off,,,,,384,0,5,,,,,4,,,45,0
31512,note_off,,,,,24,0,2,,,,,5,,,79,0
31512,note_on,,,,,0,0,2,,,,,5,,,78,73
31512,note_on,,,,,0,0,1,,,,,0,,,78,84
31512,note_off,,,,,24,0,1,,,,,0,,,79,0
31536,note_off,,,,,24,0,1,,,,,0,,,78,0
31536,note_on,,,,,0,0,1,,,,,0,,,79,84
31536,note_off,,,,,24,0,2,,,,,5,,,78,0
31536,note_on,,,,,0,0,2,,,,,5,,,79,73
31560,note_off,,,,,24,0,1,,,,,0,,,79,0
31560,note_on,,,,,0,0,1,,,,,0,,,78,84
31560,note_off,,,,,24,0,2,,,,,5,,,79,0
31560,note_on,,,,,0,0,2,,,,,5,,,78,73
31584,note_on,,,,,0,0,2,,,,,5,,,79,73
31584,note_on,,,,,0,0,1,,,,,0,,,79,84
31584,note_off,,,,,24,0,1,,,,,0,,,78,0
31584,note_off,,,,,24,0,2,,,,,5,,,78,0
31608,note_off,,,,,24,0,2,,,,,5,,,79,0
31608,note_on,,,,,0,0,2,,,,,5,,,78,73
31608,note_off,,,,,24,0,1,,,,,0,,,79,0
31608,note_on,,,,,0,0,1,,,,,0,,,78,84
31632,note_on,,,,,0,0,1,,,,,0,,,79,84
31632,note_off,,,,,24,0,2,,,,,5,,,78,0
31632,note_on,,,,,0,0,2,,,,,5,,,79,73
31632,note_off,,,,,24,0,1,,,,,0,,,78,0
31656,note_off,,,,,24,0,1,,,,,0,,,79,0
31656,note_off,,,,,24,0,2,,,,,5,,,79,0
31656,note_on,,,,,0,0,1,,,,,0,,,78,84
31656,note_on,,,,,0,0,2,,,,,5,,,78,73
31680,note_on,,,,,0,0,1,,,,,0,,,79,84
31680,note_off,,,,,24,0,2,,,,,5,,,78,0
31680,note_on,,,,,0,0,2,,,,,5,,,79,73
31680,note_off,,,,,24,0,1,,,,,0,,,78,0
31704,note_on,,,,,0,0,1,,,,,0,,,78,84
31704,note_off,,,,,24,0,1,,,,,0,,,79,0
31704,note_off,,,,,24,0,2,,,,,5,,,79,0
31704,note_on,,,,,0,0,2,,,,,5,,,78,73
31728,note_on,,,,,0,0,2,,,,,5,,,79,73
31728,note_off,,,,,24,0,1,,,,,0,,,78,0
31728,note_off,,,,,24,0,2,,,,,5,,,78,0
31728,note_on,,,,,0,0,1,,,,,0,,,79,84
31752,note_on,,,,,0,0,2,,,,,5,,,78,73
31752,note_on,,,,,0,0,1,,,,,0,,,78,84
31752,note_off,,,,,24,0,2,,,,,5,,,79,0
31752,note_off,,,,,24,0,1,,,,,0,,,79,0
31776,note_off,,,,,288,0,3,,,,,1,,,76,0
31872,note_on,,,,,96,0,3,,,,,1,,,75,75
31872,note_on,,,,,0,0,5,,,,,4,,,35,69
31872,note_off,,,,,384,0,5,,,,,4,,,47,0
31872,note_off,,,,,384,0,4,,,,,3,,,59,0
31872,note_on,,,,,0,0,4,,,,,3,,,47,75
32064,note_on,,,,,0,0,2,,,,,5,,,76,76
32064,note_off,,,,,312,0,2,,,,,5,,,78,0
32064,note_on,,,,,0,0,1,,,,,0,,,76,88
32064,note_off,,,,,312,0,1,,,,,0,,,78,0
32252,note_off,,,,,188,0,2,,,,,5,,,76,0
32252,note_off,,,,,188,0,1,,,,,0,,,76,0
32256,note_on,,,,,0,0,5,,,,,4,,,40,69
32256,note_off,,,,,384,0,5,,,,,4,,,35,0
32256,note_on,,,,,0,0,3,,,,,1,,,67,75
32256,note_off,,,,,0,0,3,,,,,1,,,75,0
32256,note_off,,,,,384,0,3,,,,,1,,,66,0
32256,note_on,,,,,0,0,3,,,,,1,,,76,75
32256,note_off,,,,,384,0,4,,,,,3,,,47,0
32256,note_on,,,,,0,0,4,,,,,3,,,52,75
32256,note_on,,,,,4,0,2,,,,,5,,,76,80
32256,note_on,,,,,4,0,1,,,,,0,,,76,92
32576,note_off,,,,,320,0,5,,,,,4,,,40,0
32576,note_off,,,,,320,0,4,,,,,3,,,52,0
32640,note_on,,,,,0,0,3,,,,,1,,,69,75
32640,note_on,,,,,0,0,3,,,,,1,,,64,75
32640,note_on,,,,,0,0,3,,,,,1,,,64,75
32640,note_off,,,,,0,0,3,,,,,1,,,67,0
32640,note_off,,,,,384,0,3,,,,,1,,,71,0
32640,note_off,,,,,0,0,3,,,,,1,,,76,0
32640,note_on,,,,,64,0,4,,,,,3,,,60,75
32640,note_on,,,,,64,0,5,,,,,4,,,48,69
33024,note_on,,,,,0,0,5,,,,,4,,,47,69
33024,note_off,,,,,384,0,5,,,,,4,,,48,0
33024,note_off,,,,,384,0,4,,,,,3,,,60,0
33024,note_off,,,,,384,0,3,,,,,1,,,64,0
33024,note_off,,,,,0,0,3,,,,,1,,,69,0
33024,note_off,,,,,0,0,3,,,,,1,,,64,0
33024,note_on,,,,,0,0,3,,,,,1,,,68,75
33024,note_on,,,,,0,0,3,,,,,1,,,71,75
33024,note_on,,,,,0,0,3,,,,,1,,,62,75
33024,note_on,,,,,0,0,4,,,,,3,,,59,75
33312,note_off,,,,,1056,0,2,,,,,5,,,76,0
33312,note_off,,,,,1056,0,1,,,,,0,,,76,0
33408,note_on,,,,,0,0,3,,,,,1,,,64,75
33408,note_on,,,,,0,0,3,,,,,1,,,72,75
33408,note_on,,,,,0,0,3,,,,,1,,,69,75
33408,note_off,,,,,0,0,3,,,,,1,,,62,0
33408,note_off,,,,,384,0,4,,,,,3,,,59,0
33408,note_on,,,,,0,0,4,,,,,3,,,57,75
33408,note_on,,,,,0,0,5,,,,,4,,,45,69
33408,note_off,,,,,384,0,5,,,,,4,,,47,0
33408,note_off,,,,,0,0,3,,,,,1,,,71,0
33408,note_off,,,,,384,0,3,,,,,1,,,68,0
33792,note_off,,,,,384,0,4,,,,,3,,,57,0
33792,note_on,,,,,0,0,5,,,,,4,,,43,69
33792,note_off,,,,,384,0,5,,,,,4,,,45,0
33792,note_on,,,,,0,0,4,,,,,3,,,55,75
34176,note_off,,,,,0,0,3,,,,,1,,,64,0
34176,note_on,,,,,0,0,3,,,,,1,,,74,75
34176,note_on,,,,,0,0,3,,,,,1,,,62,75
34176,note_off,,,,,384,0,4,,,,,3,,,55,0
34176,note_off,,,,,768,0,3,,,,,1,,,72,0
34176,note_off,,,,,384,0,5,,,,,4,,,43,0
34176,note_on,,,,,0,0,4,,,,,3,,,53,75
34176,note_on,,,,,0,0,5,,,,,4,,,41,69
34560,note_off,,,,,384,0,4,,,,,3,,,53,0
34560,note_off,,,,,384,0,5,,,,,4,,,41,0
34560,note_on,,,,,0,0,5,,,,,4,,,40,69
34560,note_on,,,,,0,0,3,,,,,1,,,64,75
34560,note_on,,,,,0,0,3,,,,,1,,,71,75
34560,note_on,,,,,0,0,3,,,,,1,,,68,75
34560,note_off,,,,,0,0,3,,,,,1,,,62,0
34560,note_off,,,,,0,0,3,,,,,1,,,74,0
34560,note_off,,,,,384,0,3,,,,,1,,,69,0
34560,note_on,,,,,0,0,4,,,,,3,,,52,75
34944,note_off,,,,,384,0,5,,,,,4,,,40,0
34944,note_on,,,,,0,0,5,,,,,4,,,38,69
34944,note_off,,,,,384,0,4,,,,,3,,,52,0
34944,note_on,,,,,0,0,4,,,,,3,,,50,75
35328,note_on,,,,,0,0,5,,,,,4,,,36,69
35328,note_on,,,,,0,0,3,,,,,1,,,69,75
35328,note_off,,,,,0,0,3,,,,,1,,,71,0
35328,note_off,,,,,768,0,3,,,,,1,,,68,0
35328,note_off,,,,,384,0,5,,,,,4,,,38,0
35328,note_on,,,,,0,0,4,,,,,3,,,48,75
35328,note_off,,,,,384,0,4,,,,,3,,,50,0
35712,note_on,,,,,0,0,5,,,,,4,,,38,69
35712,note_off,,,,,384,0,4,,,,,3,,,48,0
35712,note_on,,,,,0,0,4,,,,,3,,,50,75
35712,note_on,,,,,0,0,3,,,,,1,,,71,75
35712,note_off,,,,,384,0,3,,,,,1,,,64,0
35712,note_on,,,,,0,0,3,,,,,1,,,65,75
35712,note_off,,,,,384,0,5,,,,,4,,,36,0
36096,note_off,,,,,384,0,4,,,,,3,,,50,0
36096,note_on,,,,,0,0,4,,,,,3,,,52,75
36096,note_on,,,,,2784,0,2,,,,,5,,,83,65
36096,note_off,,,,,384,0,3,,,,,1,,,65,0
36096,note_on,,,,,0,0,3,,,,,1,,,64,75
36096,note_off,,,,,384,0,5,,,,,4,,,38,0
36096,note_on,,,,,2784,0,1,,,,,0,,,83,75
36096,note_on,,,,,0,0,5,,,,,4,,,40,69
36416,note_off,,,,,320,0,1,,,,,0,,,83,0
36416,note_off,,,,,320,0,2,,,,,5,,,83,0
36480,note_on,,,,,0,0,3,,,,,1,,,68,75
36480,note_on,,,,,0,0,5,,,,,4,,,28,69
36480,note_on,,,,,64,0,1,,,,,0,,,83,75
36480,note_off,,,,,384,0,4,,,,,3,,,52,0
36480,note_on,,,,,64,0,2,,,,,5,,,83,65
36480,note_on,,,,,0,0,4,,,,,3,,,40,75
36480,note_off,,,,,384,0,3,,,,,1,,,69,0
36480,note_off,,,,,384,0,5,,,,,4,,,40,0
36672,note_on,,,,,0,0,1,,,,,0,,,84,75
36672,note_off,,,,,192,0,2,,,,,5,,,83,0
36672,note_on,,,,,0,0,2,,,,,5,,,84,65
36672,note_off,,,,,192,0,1,,,,,0,,,83,0
36768,note_off,,,,,96,0,1,,,,,0,,,84,0
36768,note_on,,,,,0,0,1,,,,,0,,,86,75
36768,note_off,,,,,96,0,2,,,,,5,,,84,0
36768,note_on,,,,,0,0,2,,,,,5,,,86,65
36860,note_off,,,,,92,0,1,,,,,0,,,86,0
36860,note_off,,,,,92,0,2,,,,,5,,,86,0
36864,note_on,,,,,0,0,4,,,,,3,,,45,75
36864,note_off,,,,,384,0,4,,,,,3,,,40,0
36864,note_on,,,,,4,0,2,,,,,5,,,84,65
36864,note_on,,,,,0,0,3,,,,,1,,,72,75
36864,note_off,,,,,0,0,3,,,,,1,,,68,0
36864,note_off,,,,,384,0,3,,,,,1,,,71,0
36864,note_on,,,,,0,0,3,,,,,1,,,69,75
36864,note_off,,,,,384,0,5,,,,,4,,,28,0
36864,note_on,,,,,0,0,5,,,,,4,,,33,69
36864,note_on,,,,,4,0,1,,,,,0,,,84,75
37184,note_off,,,,,320,0,5,,,,,4,,,33,0
37184,note_off,,,,,320,0,3,,,,,1,,,69,0
37184,note_off,,,,,0,0,3,,,,,1,,,72,0
37184,note_off,,,,,320,0,4,,,,,3,,,45,0
37184,note_off,,,,,320,0,2,,,,,5,,,84,0
37184,note_off,,,,,320,0,1,,,,,0,,,84,0
37248,note_on,,,,,64,0,5,,,,,4,,,31,69
37248,note_on,,,,,64,0,2,,,,,5,,,76,52
37248,note_on,,,,,64,0,4,,,,,3,,,43,75
37248,note_on,,,,,64,0,3,,,,,1,,,71,75
37248,note_on,,,,,0,0,3,,,,,1,,,76,75
37248,note_on,,,,,64,0,1,,,,,0,,,76,60
37440,note_off,,,,,192,0,1,,,,,0,,,76,0
37440,note_off,,,,,192,0,2,,,,,5,,,76,0
37440,note_on,,,,,0,0,2,,,,,5,,,77,52
37440,note_on,,,,,0,0,1,,,,,0,,,77,60
37536,note_off,,,,,288,0,3,,,,,1,,,64,0
37628,note_off,,,,,188,0,1,,,,,0,,,77,0
37628,note_off,,,,,188,0,2,,,,,5,,,77,0
37632,note_off,,,,,384,0,4,,,,,3,,,43,0
37632,note_on,,,,,4,0,1,,,,,0,,,79,60
37632,note_on,,,,,0,0,4,,,,,3,,,41,75
37632,note_on,,,,,0,0,3,,,,,1,,,65,75
37632,note_on,,,,,0,0,3,,,,,1,,,74,75
37632,note_on,,,,,4,0,2,,,,,5,,,79,52
37632,note_off,,,,,384,0,5,,,,,4,,,31,0
37632,note_on,,,,,0,0,3,,,,,1,,,69,75
37632,note_off,,,,,96,0,3,,,,,1,,,71,0
37632,note_off,,,,,0,0,3,,,,,1,,,76,0
37632,note_on,,,,,0,0,5,,,,,4,,,29,69
37656,note_off,,,,,24,0,2,,,,,5,,,79,0
37656,note_on,,,,,0,0,2,,,,,5,,,77,52
37656,note_on,,,,,0,0,1,,,,,0,,,77,60
37656,note_off,,,,,24,0,1,,,,,0,,,79,0
37680,note_off,,,,,24,0,2,,,,,5,,,77,0
37680,note_on,,,,,0,0,1,,,,,0,,,79,60
37680,note_off,,,,,24,0,1,,,,,0,,,77,0
37680,note_on,,,,,0,0,2,,,,,5,,,79,52
37704,note_off,,,,,24,0,2,,,,,5,,,79,0
37704,note_on,,,,,0,0,1,,,,,0,,,77,60
37704,note_off,,,,,24,0,1,,,,,0,,,79,0
37704,note_on,,,,,0,0,2,,,,,5,,,77,52
37728,note_on,,,,,0,0,2,,,,,5,,,79,52
37728,note_off,,,,,24,0,2,,,,,5,,,77,0
37728,note_on,,,,,0,0,1,,,,,0,,,79,60
37728,note_off,,,,,24,0,1,,,,,0,,,77,0
37752,note_on,,,,,0,0,1,,,,,0,,,77,60
37752,note_off,,,,,24,0,1,,,,,0,,,79,0
37752,note_on,,,,,0,0,2,,,,,5,,,77,52
37752,note_off,,,,,24,0,2,,,,,5,,,79,0
37920,note_on,,,,,0,0,1,,,,,0,,,76,60
37920,note_off,,,,,168,0,1,,,,,0,,,77,0
37920,note_on,,,,,0,0,2,,,,,5,,,76,52
37920,note_off,,,,,168,0,2,,,,,5,,,77,0
37952,note_off,,,,,320,0,3,,,,,1,,,65,0
37968,note_on,,,,,0,0,2,,,,,5,,,77,52
37968,note_off,,,,,48,0,1,,,,,0,,,76,0
37968,note_on,,,,,0,0,1,,,,,0,,,77,60
37968,note_off,,,,,48,0,2,,,,,5,,,76,0
38012,note_off,,,,,44,0,2,,,,,5,,,77,0
38012,note_off,,,,,44,0,1,,,,,0,,,77,0
38016,note_on,,,,,0,0,3,,,,,1,,,67,75
38016,note_off,,,,,384,0,4,,,,,3,,,41,0
38016,note_off,,,,,0,0,3,,,,,1,,,74,0
38016,note_off,,,,,64,0,3,,,,,1,,,69,0
38016,note_on,,,,,0,0,4,,,,,3,,,40,75
38016,note_on,,,,,0,0,3,,,,,1,,,73,75
38016,note_off,,,,,384,0,5,,,,,4,,,29,0
38016,note_on,,,,,0,0,5,,,,,4,,,28,69
38016,note_on,,,,,4,0,2,,,,,5,,,79,52
38016,note_on,,,,,4,0,1,,,,,0,,,79,60
38400,note_off,,,,,384,0,5,,,,,4,,,28,0
38400,note_off,,,,,384,0,4,,,,,3,,,40,0
38400,note_off,,,,,384,0,3,,,,,1,,,73,0
38400,note_on,,,,,0,0,3,,,,,1,,,76,75
38400,note_on,,,,,0,0,3,,,,,1,,,69,75
38400,note_on,,,,,0,0,5,,,,,4,,,37,69
38400,note_on,,,,,0,0,4,,,,,3,,,49,75
38688,note_off,,,,,672,0,2,,,,,5,,,79,0
38688,note_off,,,,,672,0,1,,,,,0,,,79,0
38784,note_off,,,,,384,0,4,,,,,3,,,49,0
38784,note_off,,,,,384,0,3,,,,,1,,,76,0
38784,note_on,,,,,0,0,4,,,,,3,,,45,75
38784,note_off,,,,,384,0,5,,,,,4,,,37,0
38784,note_on,,,,,96,0,2,,,,,5,,,81,52
38784,note_on,,,,,0,0,5,,,,,4,,,33,69
38784,note_on,,,,,0,0,3,,,,,1,,,73,75
38784,note_on,,,,,96,0,1,,,,,0,,,81,60
38976,note_off,,,,,192,0,1,,,,,0,,,81,0
38976,note_on,,,,,0,0,1,,,,,0,,,76,60
38976,note_on,,,,,0,0,2,,,,,5,,,76,52
38976,note_off,,,,,192,0,2,,,,,5,,,81,0
39164,note_off,,,,,188,0,1,,,,,0,,,76,0
39164,note_off,,,,,188,0,2,,,,,5,,,76,0
39168,note_on,,,,,4,0,1,,,,,0,,,79,60
39168,note_off,,,,,384,0,5,,,,,4,,,33,0
39168,note_on,,,,,4,0,2,,,,,5,,,79,52
39168,note_off,,,,,384,0,3,,,,,1,,,67,0
39168,note_on,,,,,0,0,5,,,,,4,,,38,69
39168,note_off,,,,,0,0,3,,,,,1,,,73,0
39168,note_on,,,,,0,0,3,,,,,1,,,74,75
39168,note_on,,,,,0,0,3,,,,,1,,,65,75
39168,note_on,,,,,0,0,4,,,,,3,,,50,75
39168,note_off,,,,,384,0,4,,,,,3,,,45,0
39192,note_on,,,,,0,0,1,,,,,0,,,77,60
39192,note_off,,,,,24,0,1,,,,,0,,,79,0
39192,note_on,,,,,0,0,2,,,,,5,,,77,52
39192,note_off,,,,,24,0,2,,,,,5,,,79,0
39216,note_off,,,,,24,0,1,,,,,0,,,77,0
39216,note_on,,,,,0,0,2,,,,,5,,,79,52
39216,note_off,,,,,24,0,2,,,,,5,,,77,0
39216,note_on,,,,,0,0,1,,,,,0,,,79,60
39240,note_on,,,,,0,0,2,,,,,5,,,77,52
39240,note_on,,,,,0,0,1,,,,,0,,,77,60
39240,note_off,,,,,24,0,1,,,,,0,,,79,0
39240,note_off,,,,,24,0,2,,,,,5,,,79,0
39264,note_off,,,,,24,0,1,,,,,0,,,77,0
39264,note_off,,,,,24,0,2,,,,,5,,,77,0
39264,note_on,,,,,0,0,2,,,,,5,,,79,52
39264,note_on,,,,,0,0,1,,,,,0,,,79,60
39288,note_off,,,,,24,0,2,,,,,5,,,79,0
39288,note_on,,,,,0,0,2,,,,,5,,,77,52
39288,note_on,,,,,0,0,1,,,,,0,,,77,60
39288,note_off,,,,,24,0,1,,,,,0,,,79,0
39312,note_on,,,,,0,0,1,,,,,0,,,79,60
39312,note_on,,,,,0,0,2,,,,,5,,,79,52
39312,note_off,,,,,24,0,1,,,,,0,,,77,0
39312,note_off,,,,,24,0,2,,,,,5,,,77,0
39336,note_off,,,,,24,0,1,,,,,0,,,79,0
39336,note_on,,,,,0,0,1,,,,,0,,,77,60
39336,note_on,,,,,0,0,2,,,,,5,,,77,52
39336,note_off,,,,,24,0,2,,,,,5,,,79,0
39360,note_off,,,,,24,0,1,,,,,0,,,77,0
39360,note_on,,,,,0,0,1,,,,,0,,,79,60
39360,note_on,,,,,0,0,2,,,,,5,,,79,52
39360,note_off,,,,,24,0,2,,,,,5,,,77,0
39384,note_off,,,,,24,0,1,,,,,0,,,79,0
39384,note_off,,,,,24,0,2,,,,,5,,,79,0
39384,note_on,,,,,0,0,2,,,,,5,,,77,52
39384,note_on,,,,,0,0,1,,,,,0,,,77,60
39408,note_off,,,,,24,0,1,,,,,0,,,77,0
39408,note_on,,,,,0,0,1,,,,,0,,,79,60
39408,note_on,,,,,0,0,2,,,,,5,,,79,52
39408,note_off,,,,,24,0,2,,,,,5,,,77,0
39432,note_off,,,,,24,0,1,,,,,0,,,79,0
39432,note_on,,,,,0,0,1,,,,,0,,,77,60
39432,note_on,,,,,0,0,2,,,,,5,,,77,52
39432,note_off,,,,,24,0,2,,,,,5,,,79,0
39552,note_off,,,,,0,0,3,,,,,1,,,65,0
39552,note_off,,,,,384,0,4,,,,,3,,,50,0
39552,note_off,,,,,384,0,3,,,,,1,,,69,0
39552,note_on,,,,,0,0,4,,,,,3,,,52,75
39552,note_on,,,,,0,0,3,,,,,1,,,67,75
39552,note_on,,,,,0,0,5,,,,,4,,,40,69
39552,note_off,,,,,384,0,5,,,,,4,,,38,0
39744,note_on,,,,,0,0,2,,,,,5,,,76,52
39744,note_off,,,,,312,0,2,,,,,5,,,77,0
39744,note_off,,,,,312,0,1,,,,,0,,,77,0
39744,note_on,,,,,0,0,1,,,,,0,,,76,60
39936,note_on,,,,,0,0,3,,,,,1,,,65,75
39936,note_on,,,,,0,0,3,,,,,1,,,69,75
39936,note_on,,,,,0,0,2,,,,,5,,,74,52
39936,note_off,,,,,384,0,4,,,,,3,,,52,0
39936,note_on,,,,,0,0,4,,,,,3,,,53,75
39936,note_off,,,,,192,0,2,,,,,5,,,76,0
39936,note_on,,,,,0,0,5,,,,,4,,,41,69
39936,note_on,,,,,0,0,1,,,,,0,,,74,60
39936,note_off,,,,,384,0,5,,,,,4,,,40,0
39936,note_off,,,,,384,0,3,,,,,1,,,67,0
39936,note_off,,,,,192,0,1,,,,,0,,,76,0
40256,note_off,,,,,320,0,4,,,,,3,,,53,0
40256,note_off,,,,,320,0,5,,,,,4,,,41,0
40256,note_off,,,,,320,0,2,,,,,5,,,74,0
40256,note_off,,,,,320,0,1,,,,,0,,,74,0
40320,note_on,,,,,64,0,5,,,,,4,,,32,69
40320,note_off,,,,,384,0,3,,,,,1,,,65,0
40320,note_off,,,,,0,0,3,,,,,1,,,69,0
40320,note_on,,,,,0,0,3,,,,,1,,,71,75
40320,note_on,,,,,0,0,3,,,,,1,,,64,75
40320,note_on,,,,,64,0,4,,,,,3,,,44,75
40704,note_on,,,,,448,0,1,,,,,0,,,83,60
40704,note_on,,,,,448,0,2,,,,,5,,,83,52
40992,note_off,,,,,672,0,4,,,,,3,,,44,0
40992,note_off,,,,,672,0,5,,,,,4,,,32,0
40992,note_off,,,,,288,0,2,,,,,5,,,83,0
40992,note_on,,,,,0,0,2,,,,,5,,,74,57
40992,note_on,,,,,0,0,1,,,,,0,,,74,66
40992,note_off,,,,,288,0,1,,,,,0,,,83,0
41088,note_on,,,,,0,0,2,,,,,5,,,76,59
41088,note_off,,,,,96,0,2,,,,,5,,,74,0
41088,note_on,,,,,0,0,1,,,,,0,,,76,68
41088,note_off,,,,,96,0,1,,,,,0,,,74,0
41088,note_on,,,,,96,0,5,,,,,4,,,44,69
41088,note_on,,,,,96,0,4,,,,,3,,,56,75
41184,note_on,,,,,0,0,1,,,,,0,,,80,70
41184,note_off,,,,,96,0,1,,,,,0,,,76,0
41184,note_on,,,,,0,0,2,,,,,5,,,80,60
41184,note_off,,,,,96,0,2,,,,,5,,,76,0
41280,note_off,,,,,96,0,2,,,,,5,,,80,0
41280,note_on,,,,,0,0,2,,,,,5,,,83,62
41280,note_off,,,,,96,0,1,,,,,0,,,80,0
41280,note_on,,,,,0,0,1,,,,,0,,,83,72
41376,note_off,,,,,96,0,1,,,,,0,,,83,0
41376,note_on,,,,,0,0,1,,,,,0,,,86,74
41376,note_on,,,,,0,0,2,,,,,5,,,86,64
41376,note_off,,,,,96,0,2,,,,,5,,,83,0
41376,note_off,,,,,1056,0,3,,,,,1,,,74,0
41376,note_off,,,,,0,0,3,,,,,1,,,71,0
41408,note_off,,,,,320,0,5,,,,,4,,,44,0
41408,note_off,,,,,320,0,4,,,,,3,,,56,0
41468,note_off,,,,,92,0,1,,,,,0,,,86,0
41468,note_off,,,,,92,0,2,,,,,5,,,86,0
41472,note_on,,,,,4,0,2,,,,,5,,,86,66
41472,note_on,,,,,96,0,3,,,,,1,,,69,75
41472,note_on,,,,,0,0,3,,,,,1,,,72,75
41472,note_on,,,,,64,0,5,,,,,4,,,45,69
41472,note_on,,,,,64,0,4,,,,,3,,,57,75
41472,note_on,,,,,4,0,1,,,,,0,,,86,76
41496,note_on,,,,,0,0,2,,,,,5,,,84,66
41496,note_off,,,,,24,0,2,,,,,5,,,86,0
41496,note_off,,,,,24,0,1,,,,,0,,,86,0
41496,note_on,,,,,0,0,1,,,,,0,,,84,76
41520,note_on,,,,,0,0,1,,,,,0,,,86,76
41520,note_on,,,,,0,0,2,,,,,5,,,86,66
41520,note_off,,,,,24,0,2,,,,,5,,,84,0
41520,note_off,,,,,24,0,1,,,,,0,,,84,0
41544,note_on,,,,,0,0,1,,,,,0,,,84,76
41544,note_on,,,,,0,0,2,,,,,5,,,84,66
41544,note_off,,,,,24,0,1,,,,,0,,,86,0
41544,note_off,,,,,24,0,2,,,,,5,,,86,0
41568,note_off,,,,,24,0,1,,,,,0,,,84,0
41568,note_off,,,,,24,0,2,,,,,5,,,84,0
41568,note_on,,,,,0,0,2,,,,,5,,,86,66
41568,note_on,,,,,0,0,1,,,,,0,,,86,76
41592,note_off,,,,,24,0,1,,,,,0,,,86,0
41592,note_off,,,,,24,0,2,,,,,5,,,86,0
41592,note_on,,,,,0,0,2,,,,,5,,,84,66
41592,note_on,,,,,0,0,1,,,,,0,,,84,76
41616,note_on,,,,,0,0,1,,,,,0,,,86,76
41616,note_off,,,,,24,0,1,,,,,0,,,84,0
41616,note_on,,,,,0,0,2,,,,,5,,,86,66
41616,note_off,,,,,24,0,2,,,,,5,,,84,0
41640,note_off,,,,,24,0,1,,,,,0,,,86,0
41640,note_on,,,,,0,0,1,,,,,0,,,84,76
41640,note_on,,,,,0,0,2,,,,,5,,,84,66
41640,note_off,,,,,24,0,2,,,,,5,,,86,0
41664,note_off,,,,,24,0,1,,,,,0,,,84,0
41664,note_on,,,,,0,0,1,,,,,0,,,86,76
41664,note_on,,,,,0,0,2,,,,,5,,,86,66
41664,note_off,,,,,24,0,2,,,,,5,,,84,0
41688,note_off,,,,,24,0,1,,,,,0,,,86,0
41688,note_on,,,,,0,0,1,,,,,0,,,84,77
41688,note_on,,,,,0,0,2,,,,,5,,,84,66
41688,note_off,,,,,24,0,2,,,,,5,,,86,0
41712,note_off,,,,,24,0,2,,,,,5,,,84,0
41712,note_on,,,,,0,0,2,,,,,5,,,86,67
41712,note_on,,,,,0,0,1,,,,,0,,,86,78
41712,note_off,,,,,24,0,1,,,,,0,,,84,0
41736,note_off,,,,,24,0,2,,,,,5,,,86,0
41736,note_on,,,,,0,0,2,,,,,5,,,84,68
41736,note_on,,,,,0,0,1,,,,,0,,,84,79
41736,note_off,,,,,24,0,1,,,,,0,,,86,0
41792,note_off,,,,,320,0,4,,,,,3,,,57,0
41792,note_off,,,,,0,0,3,,,,,1,,,72,0
41792,note_off,,,,,0,0,3,,,,,1,,,69,0
41792,note_off,,,,,320,0,3,,,,,1,,,64,0
41792,note_off,,,,,320,0,5,,,,,4,,,45,0
41856,note_on,,,,,64,0,4,,,,,3,,,52,75
41856,note_on,,,,,64,0,5,,,,,4,,,40,69
41856,note_on,,,,,0,0,3,,,,,1,,,68,75
41856,note_on,,,,,64,0,3,,,,,1,,,72,75
41856,note_on,,,,,0,0,3,,,,,1,,,76,75
42048,note_on,,,,,0,0,2,,,,,5,,,83,80
42048,note_off,,,,,312,0,2,,,,,5,,,84,0
42048,note_on,,,,,0,0,1,,,,,0,,,83,92
42048,note_off,,,,,312,0,1,,,,,0,,,84,0
42236,note_off,,,,,188,0,2,,,,,5,,,83,0
42236,note_off,,,,,188,0,1,,,,,0,,,83,0
42240,note_off,,,,,0,0,3,,,,,1,,,76,0
42240,note_on,,,,,4,0,1,,,,,0,,,81,92
42240,note_on,,,,,0,0,5,,,,,4,,,41,69
42240,note_off,,,,,384,0,5,,,,,4,,,40,0
42240,note_on,,,,,4,0,2,,,,,5,,,81,80
42240,note_off,,,,,384,0,3,,,,,1,,,72,0
42240,note_on,,,,,0,0,4,,,,,3,,,53,75
42240,note_off,,,,,384,0,4,,,,,3,,,52,0
42240,note_on,,,,,0,0,3,,,,,1,,,69,75
42240,note_on,,,,,0,0,3,,,,,1,,,72,75
42240,note_off,,,,,0,0,3,,,,,1,,,68,0
42560,note_off,,,,,320,0,3,,,,,1,,,72,0
42560,note_off,,,,,320,0,5,,,,,4,,,41,0
42560,note_off,,,,,320,0,4,,,,,3,,,53,0
42624,note_on,,,,,64,0,4,,,,,3,,,50,75
42624,note_on,,,,,64,0,3,,,,,1,,,71,75
42624,note_on,,,,,64,0,5,,,,,4,,,38,69
42624,note_on,,,,,0,0,3,,,,,1,,,77,75
42720,note_off,,,,,480,0,2,,,,,5,,,81,0
42720,note_on,,,,,0,0,2,,,,,5,,,89,80
42720,note_off,,,,,480,0,1,,,,,0,,,81,0
42720,note_on,,,,,0,0,1,,,,,0,,,89,92
42816,note_off,,,,,96,0,2,,,,,5,,,89,0
42816,note_on,,,,,0,0,2,,,,,5,,,83,80
42816,note_off,,,,,96,0,1,,,,,0,,,89,0
42816,note_on,,,,,0,0,1,,,,,0,,,83,92
42912,note_on,,,,,0,0,2,,,,,5,,,81,80
42912,note_off,,,,,96,0,2,,,,,5,,,83,0
42912,note_off,,,,,96,0,1,,,,,0,,,83,0
42912,note_on,,,,,0,0,1,,,,,0,,,81,92
43004,note_off,,,,,92,0,1,,,,,0,,,81,0
43004,note_off,,,,,92,0,2,,,,,5,,,81,0
43008,note_off,,,,,384,0,3,,,,,1,,,69,0
43008,note_off,,,,,0,0,3,,,,,1,,,77,0
43008,note_on,,,,,0,0,4,,,,,3,,,52,75
43008,note_off,,,,,384,0,4,,,,,3,,,50,0
43008,note_on,,,,,4,0,1,,,,,0,,,81,92
43008,note_on,,,,,0,0,3,,,,,1,,,68,75
43008,note_off,,,,,384,0,5,,,,,4,,,38,0
43008,note_on,,,,,0,0,5,,,,,4,,,40,69
43008,note_on,,,,,0,0,3,,,,,1,,,76,75
43008,note_on,,,,,4,0,2,,,,,5,,,81,80
43032,note_off,,,,,24,0,2,,,,,5,,,81,0
43032,note_off,,,,,24,0,1,,,,,0,,,81,0
43032,note_on,,,,,0,0,1,,,,,0,,,80,92
43032,note_on,,,,,0,0,2,,,,,5,,,80,80
43056,note_on,,,,,0,0,1,,,,,0,,,81,92
43056,note_off,,,,,24,0,1,,,,,0,,,80,0
43056,note_on,,,,,0,0,2,,,,,5,,,81,80
43056,note_off,,,,,24,0,2,,,,,5,,,80,0
43080,note_off,,,,,24,0,1,,,,,0,,,81,0
43080,note_on,,,,,0,0,2,,,,,5,,,80,80
43080,note_off,,,,,24,0,2,,,,,5,,,81,0
43080,note_on,,,,,0,0,1,,,,,0,,,80,92
43104,note_off,,,,,24,0,1,,,,,0,,,80,0
43104,note_on,,,,,0,0,2,,,,,5,,,81,80
43104,note_on,,,,,0,0,1,,,,,0,,,81,92
43104,note_off,,,,,24,0,2,,,,,5,,,80,0
43128,note_off,,,,,24,0,2,,,,,5,,,81,0
43128,note_on,,,,,0,0,2,,,,,5,,,80,80
43128,note_on,,,,,0,0,1,,,,,0,,,80,92
43128,note_off,,,,,24,0,1,,,,,0,,,81,0
43152,note_on,,,,,0,0,2,,,,,5,,,81,80
43152,note_on,,,,,0,0,1,,,,,0,,,81,92
43152,note_off,,,,,24,0,1,,,,,0,,,80,0
43152,note_off,,,,,24,0,2,,,,,5,,,80,0
43176,note_off,,,,,24,0,2,,,,,5,,,81,0
43176,note_on,,,,,0,0,2,,,,,5,,,80,80
43176,note_on,,,,,0,0,1,,,,,0,,,80,92
43176,note_off,,,,,24,0,1,,,,,0,,,81,0
43200,note_off,,,,,24,0,2,,,,,5,,,80,0
43200,note_on,,,,,0,0,2,,,,,5,,,81,80
43200,note_on,,,,,0,0,1,,,,,0,,,81,92
43200,note_off,,,,,24,0,1,,,,,0,,,80,0
43224,note_on,,,,,0,0,2,,,,,5,,,80,80
43224,note_off,,,,,24,0,2,,,,,5,,,81,0
43224,note_off,,,,,24,0,1,,,,,0,,,81,0
43224,note_on,,,,,0,0,1,,,,,0,,,80,92
43248,note_on,,,,,0,0,2,,,,,5,,,81,80
43248,note_on,,,,,0,0,1,,,,,0,,,81,92
43248,note_off,,,,,24,0,1,,,,,0,,,80,0
43248,note_off,,,,,24,0,2,,,,,5,,,80,0
43272,note_on,,,,,0,0,1,,,,,0,,,80,92
43272,note_off,,,,,24,0,1,,,,,0,,,81,0
43272,note_off,,,,,24,0,2,,,,,5,,,81,0
43272,note_on,,,,,0,0,2,,,,,5,,,80,80
43392,note_on,,,,,0,0,5,,,,,4,,,28,69
43392,note_off,,,,,384,0,5,,,,,4,,,40,0
43392,note_off,,,,,384,0,4,,,,,3,,,52,0
43392,note_on,,,,,0,0,4,,,,,3,,,40,75
43392,note_off,,,,,384,0,3,,,,,1,,,76,0
43392,note_on,,,,,0,0,3,,,,,1,,,74,75
43584,note_off,,,,,312,0,1,,,,,0,,,80,0
43584,note_on,,,,,0,0,1,,,,,0,,,81,92
43584,note_on,,,,,0,0,2,,,,,5,,,81,80
43584,note_off,,,,,312,0,2,,,,,5,,,80,0
43680,note_off,,,,,288,0,3,,,,,1,,,71,0
43680,note_off,,,,,0,0,3,,,,,1,,,68,0
43712,note_off,,,,,320,0,4,,,,,3,,,40,0
43712,note_off,,,,,320,0,5,,,,,4,,,28,0
43712,note_off,,,,,32,0,3,,,,,1,,,74,0
43772,note_off,,,,,188,0,2,,,,,5,,,81,0
43772,note_off,,,,,188,0,1,,,,,0,,,81,0
43776,set_tempo,,,,,43776,1,0,,1000000,,,,,,,
43776,note_on,,,,,4,0,2,,,,,5,,,74,80
43776,note_on,,,,,4,0,1,,,,,0,,,74,92
43824,note_off,,,,,48,0,2,,,,,5,,,74,0
43824,note_on,,,,,0,0,2,,,,,5,,,73,80
43824,note_off,,,,,48,0,1,,,,,0,,,74,0
43824,note_on,,,,,0,0,1,,,,,0,,,73,92
43872,note_off,,,,,48,0,1,,,,,0,,,73,0
43872,note_off,,,,,48,0,2,,,,,5,,,73,0
43872,note_on,,,,,0,0,1,,,,,0,,,74,92
43872,note_on,,,,,0,0,2,,,,,5,,,74,80
44160,set_tempo,,,,,384,1,0,,857142,,,,,,,
44160,note_on,,,,,448,0,5,,,,,4,,,41,69
44160,note_on,,,,,0,0,3,,,,,1,,,74,75
44160,note_on,,,,,0,0,3,,,,,1,,,69,75
44160,note_on,,,,,448,0,4,,,,,3,,,53,75
44160,note_on,,,,,448,0,3,,,,,1,,,74,75
44544,note_on,,,,,0,0,5,,,,,4,,,38,69
44544,note_off,,,,,384,0,5,,,,,4,,,41,0
44544,note_off,,,,,384,0,4,,,,,3,,,53,0
44544,note_on,,,,,0,0,3,,,,,1,,,77,75
44544,note_off,,,,,384,0,3,,,,,1,,,74,0
44544,note_on,,,,,0,0,4,,,,,3,,,50,75
44832,note_off,,,,,288,0,3,,,,,1,,,69,0
44832,note_off,,,,,0,0,3,,,,,1,,,74,0
44864,note_off,,,,,32,0,3,,,,,1,,,77,0
44864,note_off,,,,,320,0,4,,,,,3,,,50,0
44864,note_off,,,,,320,0,5,,,,,4,,,38,0
44928,note_on,,,,,64,0,3,,,,,1,,,76,75
44928,note_off,,,,,1056,0,2,,,,,5,,,74,0
44928,note_on,,,,,0,0,2,,,,,5,,,74,74
44928,note_on,,,,,0,0,3,,,,,1,,,76,75
44928,note_on,,,,,0,0,3,,,,,1,,,71,75
44928,note_on,,,,,0,0,1,,,,,0,,,74,86
44928,note_on,,,,,64,0,5,,,,,4,,,32,69
44928,note_off,,,,,1056,0,1,,,,,0,,,74,0
44928,note_on,,,,,64,0,4,,,,,3,,,44,75
45248,note_off,,,,,320,0,3,,,,,1,,,76,0
45312,note_on,,,,,64,0,3,,,,,1,,,83,75
45440,note_off,,,,,512,0,2,,,,,5,,,74,0
45440,note_off,,,,,512,0,1,,,,,0,,,74,0
45504,note_on,,,,,64,0,1,,,,,0,,,76,81
45504,note_on,,,,,64,0,2,,,,,5,,,76,70
45600,note_off,,,,,672,0,4,,,,,3,,,44,0
45600,note_off,,,,,96,0,1,,,,,0,,,76,0
45600,note_off,,,,,672,0,5,,,,,4,,,32,0
45600,note_on,,,,,0,0,2,,,,,5,,,77,69
45600,note_off,,,,,96,0,2,,,,,5,,,76,0
45600,note_on,,,,,0,0,1,,,,,0,,,77,80
45696,note_on,,,,,96,0,4,,,,,3,,,56,75
45696,note_on,,,,,96,0,5,,,,,4,,,44,69
45696,note_off,,,,,96,0,2,,,,,5,,,77,0
45696,note_off,,,,,96,0,1,,,,,0,,,77,0
45696,note_on,,,,,0,0,1,,,,,0,,,76,79
45696,note_on,,,,,0,0,2,,,,,5,,,76,68
45792,note_off,,,,,96,0,2,,,,,5,,,76,0
45792,note_on,,,,,0,0,2,,,,,5,,,74,67
45792,note_off,,,,,96,0,1,,,,,0,,,76,0
45792,note_on,,,,,0,0,1,,,,,0,,,74,78
45888,note_off,,,,,96,0,2,,,,,5,,,74,0
45888,note_on,,,,,0,0,2,,,,,5,,,72,66
45888,note_on,,,,,0,0,1,,,,,0,,,72,77
45888,note_off,,,,,96,0,1,,,,,0,,,74,0
45984,note_off,,,,,96,0,2,,,,,5,,,72,0
45984,note_on,,,,,0,0,1,,,,,0,,,71,76
45984,note_off,,,,,96,0,1,,,,,0,,,72,0
45984,note_on,,,,,0,0,2,,,,,5,,,71,66
45984,note_off,,,,,672,0,3,,,,,1,,,71,0
45984,note_off,,,,,0,0,3,,,,,1,,,83,0
46016,note_off,,,,,320,0,5,,,,,4,,,44,0
46016,note_off,,,,,320,0,4,,,,,3,,,56,0
46076,note_off,,,,,92,0,1,,,,,0,,,71,0
46076,note_off,,,,,92,0,2,,,,,5,,,71,0
46080,note_on,,,,,64,0,4,,,,,3,,,57,75
46080,note_on,,,,,0,0,3,,,,,1,,,72,75
46080,note_on,,,,,64,0,5,,,,,4,,,45,69
46080,note_on,,,,,0,0,3,,,,,1,,,81,75
46080,note_on,,,,,4,0,2,,,,,5,,,72,65
46080,note_on,,,,,4,0,1,,,,,0,,,72,75
46080,note_on,,,,,96,0,3,,,,,1,,,76,75
46364,note_off,,,,,284,0,2,,,,,5,,,72,0
46364,note_off,,,,,284,0,1,,,,,0,,,72,0
46368,note_on,,,,,4,0,1,,,,,0,,,71,75
46368,note_on,,,,,4,0,2,,,,,5,,,71,65
46400,note_off,,,,,0,0,3,,,,,1,,,72,0
46400,note_off,,,,,0,0,3,,,,,1,,,81,0
46400,note_off,,,,,0,0,3,,,,,1,,,76,0
46400,note_off,,,,,320,0,3,,,,,1,,,76,0
46460,note_off,,,,,92,0,1,,,,,0,,,71,0
46460,note_off,,,,,92,0,2,,,,,5,,,71,0
46464,note_on,,,,,4,0,1,,,,,0,,,71,75
46464,note_on,,,,,0,0,5,,,,,4,,,40,69
46464,note_off,,,,,384,0,5,,,,,4,,,45,0
46464,note_off,,,,,384,0,4,,,,,3,,,57,0
46464,note_on,,,,,0,0,4,,,,,3,,,52,75
46464,note_on,,,,,4,0,2,,,,,5,,,71,65
46464,note_on,,,,,0,0,3,,,,,1,,,71,75
46464,note_on,,,,,64,0,3,,,,,1,,,80,75
46464,note_on,,,,,0,0,3,,,,,1,,,74,75
46488,note_on,,,,,0,0,1,,,,,0,,,69,75
46488,note_off,,,,,24,0,1,,,,,0,,,71,0
46488,note_off,,,,,24,0,2,,,,,5,,,71,0
46488,note_on,,,,,0,0,2,,,,,5,,,69,65
46512,note_off,,,,,24,0,1,,,,,0,,,69,0
46512,note_on,,,,,0,0,1,,,,,0,,,71,75
46512,note_off,,,,,24,0,2,,,,,5,,,69,0
46512,note_on,,,,,0,0,2,,,,,5,,,71,65
46536,note_on,,,,,0,0,1,,,,,0,,,69,75
46536,note_off,,,,,24,0,1,,,,,0,,,71,0
46536,note_off,,,,,24,0,2,,,,,5,,,71,0
46536,note_on,,,,,0,0,2,,,,,5,,,69,65
46560,note_off,,,,,24,0,2,,,,,5,,,69,0
46560,note_on,,,,,0,0,2,,,,,5,,,71,65
46560,note_on,,,,,0,0,1,,,,,0,,,71,75
46560,note_off,,,,,24,0,1,,,,,0,,,69,0
46584,note_off,,,,,24,0,2,,,,,5,,,71,0
46584,note_on,,,,,0,0,2,,,,,5,,,69,65
46584,note_on,,,,,0,0,1,,,,,0,,,69,75
46584,note_off,,,,,24,0,1,,,,,0,,,71,0
46748,note_off,,,,,164,0,2,,,,,5,,,69,0
46748,note_off,,,,,164,0,1,,,,,0,,,69,0
46752,note_on,,,,,4,0,1,,,,,0,,,68,75
46752,note_on,,,,,4,0,2,,,,,5,,,68,65
46784,note_off,,,,,0,0,3,,,,,1,,,74,0
46784,note_off,,,,,0,0,3,,,,,1,,,71,0
46784,note_off,,,,,320,0,3,,,,,1,,,80,0
46844,note_off,,,,,92,0,1,,,,,0,,,68,0
46844,note_off,,,,,92,0,2,,,,,5,,,68,0
46848,note_on,,,,,0,0,3,,,,,1,,,69,75
46848,note_on,,,,,64,0,3,,,,,1,,,81,75
46848,note_on,,,,,0,0,3,,,,,1,,,72,75
46848,note_on,,,,,4,0,1,,,,,0,,,69,76
46848,note_on,,,,,0,0,5,,,,,4,,,41,69
46848,note_on,,,,,4,0,2,,,,,5,,,69,66
46848,note_on,,,,,0,0,4,,,,,3,,,53,75
46848,note_off,,,,,384,0,5,,,,,4,,,40,0
46848,note_off,,,,,384,0,4,,,,,3,,,52,0
47168,note_off,,,,,320,0,5,,,,,4,,,41,0
47168,note_off,,,,,320,0,4,,,,,3,,,53,0
47168,note_off,,,,,0,0,3,,,,,1,,,72,0
47168,note_off,,,,,320,0,3,,,,,1,,,81,0
47232,note_on,,,,,64,0,5,,,,,4,,,38,69
47232,set_tempo,,,,,3072,1,0,,1000000,,,,,,,
47232,note_on,,,,,0,0,3,,,,,1,,,77,75
47232,note_on,,,,,64,0,3,,,,,1,,,71,75
47232,note_on,,,,,64,0,4,,,,,3,,,50,75
47280,note_off,,,,,432,0,2,,,,,5,,,69,0
47280,note_off,,,,,432,0,1,,,,,0,,,69,0
47280,note_on,,,,,0,0,1,,,,,0,,,71,80
47280,note_on,,,,,0,0,2,,,,,5,,,71,69
47328,note_off,,,,,48,0,1,,,,,0,,,71,0
47328,note_on,,,,,0,0,1,,,,,0,,,74,80
47328,note_off,,,,,48,0,2,,,,,5,,,71,0
47328,note_on,,,,,0,0,2,,,,,5,,,74,69
47376,note_on,,,,,0,0,1,,,,,0,,,72,80
47376,note_off,,,,,48,0,1,,,,,0,,,74,0
47376,note_off,,,,,48,0,2,,,,,5,,,74,0
47376,note_on,,,,,0,0,2,,,,,5,,,72,69
47424,note_on,,,,,0,0,1,,,,,0,,,79,80
47424,note_off,,,,,48,0,1,,,,,0,,,72,0
47424,note_off,,,,,48,0,2,,,,,5,,,72,0
47424,note_on,,,,,0,0,2,,,,,5,,,79,69
47472,note_off,,,,,48,0,2,,,,,5,,,79,0
47472,note_on,,,,,0,0,2,,,,,5,,,77,69
47472,note_on,,,,,0,0,1,,,,,0,,,77,80
47472,note_off,,,,,48,0,1,,,,,0,,,79,0
47520,note_off,,,,,48,0,2,,,,,5,,,77,0
47520,note_on,,,,,0,0,2,,,,,5,,,76,69
47520,note_off,,,,,48,0,1,,,,,0,,,77,0
47520,note_on,,,,,0,0,1,,,,,0,,,76,80
47568,note_on,,,,,0,0,2,,,,,5,,,74,69
47568,note_off,,,,,48,0,2,,,,,5,,,76,0
47568,note_off,,,,,48,0,1,,,,,0,,,76,0
47568,note_on,,,,,0,0,1,,,,,0,,,74,80
47612,note_off,,,,,44,0,2,,,,,5,,,74,0
47612,note_off,,,,,44,0,1,,,,,0,,,74,0
47616,note_off,,,,,384,0,5,,,,,4,,,38,0
47616,note_off,,,,,0,0,3,,,,,1,,,77,0
47616,note_off,,,,,384,0,3,,,,,1,,,71,0
47616,note_off,,,,,384,0,4,,,,,3,,,50,0
47616,note_on,,,,,4,0,2,,,,,5,,,72,69
47616,note_on,,,,,4,0,1,,,,,0,,,72,80
47616,note_on,,,,,0,0,3,,,,,1,,,76,75
47616,note_on,,,,,0,0,5,,,,,4,,,40,69
47616,note_on,,,,,0,0,4,,,,,3,,,52,75
47616,set_tempo,,,,,384,1,0,,1090909,,,,,,,
47616,note_on,,,,,0,0,3,,,,,1,,,72,75
47808,note_off,,,,,192,0,1,,,,,0,,,72,0
47808,note_off,,,,,192,0,2,,,,,5,,,72,0
47808,note_on,,,,,0,0,2,,,,,5,,,69,72
47808,note_on,,,,,0,0,1,,,,,0,,,69,83
47872,note_on,,,,,0,0,1,,,,,0,,,71,84
47872,note_off,,,,,64,0,1,,,,,0,,,69,0
47872,note_off,,,,,64,0,2,,,,,5,,,69,0
47872,note_on,,,,,0,0,2,,,,,5,,,71,73
47936,note_off,,,,,64,0,2,,,,,5,,,71,0
47936,note_on,,,,,0,0,2,,,,,5,,,72,73
47936,note_on,,,,,0,0,1,,,,,0,,,72,85
47936,note_off,,,,,64,0,1,,,,,0,,,71,0
47996,note_off,,,,,60,0,2,,,,,5,,,72,0
47996,note_off,,,,,60,0,1,,,,,0,,,72,0
48000,note_off,,,,,384,0,3,,,,,1,,,69,0
48000,set_tempo,,,,,384,1,0,,1200000,,,,,,,
48000,note_off,,,,,384,0,5,,,,,4,,,40,0
48000,note_off,,,,,0,0,3,,,,,1,,,72,0
48000,note_on,,,,,4,0,1,,,,,0,,,72,86
48000,note_off,,,,,0,0,3,,,,,1,,,76,0
48000,note_on,,,,,0,0,3,,,,,1,,,74,75
48000,note_on,,,,,0,0,3,,,,,1,,,80,75
48000,note_on,,,,,0,0,3,,,,,1,,,71,75
48000,note_off,,,,,384,0,4,,,,,3,,,52,0
48000,note_on,,,,,0,0,4,,,,,3,,,40,75
48000,note_on,,,,,4,0,2,,,,,5,,,72,74
48000,note_on,,,,,0,0,5,,,,,4,,,28,69
48000,note_on,,,,,0,0,3,,,,,1,,,76,75
48020,note_off,,,,,20,0,1,,,,,0,,,72,0
48020,note_off,,,,,20,0,2,,,,,5,,,72,0
48024,note_on,,,,,4,0,2,,,,,5,,,71,74
48024,note_on,,,,,4,0,1,,,,,0,,,71,86
48048,note_on,,,,,0,0,1,,,,,0,,,72,86
48048,note_off,,,,,24,0,1,,,,,0,,,71,0
48048,note_on,,,,,0,0,2,,,,,5,,,72,74
48048,note_off,,,,,24,0,2,,,,,5,,,71,0
48072,note_on,,,,,0,0,1,,,,,0,,,71,86
48072,note_on,,,,,0,0,2,,,,,5,,,71,74
48072,note_off,,,,,24,0,2,,,,,5,,,72,0
48072,note_off,,,,,24,0,1,,,,,0,,,72,0
48096,note_on,,,,,0,0,2,,,,,5,,,72,74
48096,note_off,,,,,24,0,2,,,,,5,,,71,0
48096,note_off,,,,,24,0,1,,,,,0,,,71,0
48096,note_on,,,,,0,0,1,,,,,0,,,72,86
48120,note_off,,,,,24,0,1,,,,,0,,,72,0
48120,note_on,,,,,0,0,1,,,,,0,,,71,86
48120,note_on,,,,,0,0,2,,,,,5,,,71,74
48120,note_off,,,,,24,0,2,,,,,5,,,72,0
48288,note_off,,,,,168,0,1,,,,,0,,,71,0
48288,note_off,,,,,168,0,2,,,,,5,,,71,0
48288,note_on,,,,,0,0,2,,,,,5,,,69,77
48288,note_on,,,,,0,0,1,,,,,0,,,69,89
48320,note_off,,,,,320,0,5,,,,,4,,,28,0
48320,note_off,,,,,0,0,3,,,,,1,,,71,0
48320,note_off,,,,,0,0,3,,,,,1,,,74,0
48320,note_off,,,,,320,0,4,,,,,3,,,40,0
48320,note_off,,,,,320,0,3,,,,,1,,,76,0
48320,note_off,,,,,0,0,3,,,,,1,,,80,0
48380,note_off,,,,,92,0,1,,,,,0,,,69,0
48380,note_off,,,,,92,0,2,,,,,5,,,69,0
48384,note_on,,,,,64,0,4,,,,,3,,,45,75
48384,set_tempo,,,,,384,1,0,,1000000,,,,,,,
48384,end_of_track,,,,,0,1,0,,,,,,,,,
48384,note_on,,,,,0,0,3,,,,,1,,,69,75
48384,note_on,,,,,0,0,3,,,,,1,,,76,75
48384,note_on,,,,,64,0,3,,,,,1,,,72,75
48384,note_on,,,,,0,0,3,,,,,1,,,81,75
48384,note_on,,,,,64,0,5,,,,,4,,,33,69
48384,note_on,,,,,4,0,1,,,,,0,,,69,92
48384,note_on,,,,,4,0,2,,,,,5,,,69,80
49440,end_of_track,,,,,0,1,5,,,,,,,,,
49440,note_off,,,,,1056,0,5,,,,,4,,,33,0
49440,end_of_track,,,,,0,1,3,,,,,,,,,
49440,note_off,,,,,1056,0,3,,,,,1,,,72,0
49440,end_of_track,,,,,0,1,1,,,,,,,,,
49440,note_off,,,,,1056,0,1,,,,,0,,,69,0
49440,note_off,,,,,1056,0,2,,,,,5,,,69,0
49440,end_of_track,,,,,0,1,2,,,,,,,,,
49440,end_of_track,,,,,0,1,4,,,,,,,,,
49440,note_off,,,,,1056,0,4,,,,,3,,,45,0
49440,note_off,,,,,0,0,3,,,,,1,,,76,0
49440,note_off,,,,,0,0,3,,,,,1,,,81,0
49440,note_off,,,,,0,0,3,,,,,1,,,69,0
