tick,type,time,meta,track,numerator,denominator,clocks_per_click,notated_32nd_notes_per_beat,key,tempo,control,value,channel,program,note,velocity
0,track_name,0,1,0,,,,,,,,,,,,
0,copyright,0,1,0,,,,,,,,,,,,
0,text,0,1,0,,,,,,,,,,,,
0,text,0,1,0,,,,,,,,,,,,
0,text,0,1,0,,,,,,,,,,,,
0,time_signature,0,1,0,4,4,24,8,,,,,,,,
0,key_signature,0,1,0,,,,,C,,,,,,,
0,set_tempo,0,1,0,,,,,,625000,,,,,,
0,marker,0,1,0,,,,,,,,,,,,
0,control_change,0,0,0,,,,,,,0,0,0,,,
0,control_change,0,0,0,,,,,,,32,43,0,,,
0,program_change,0,0,0,,,,,,,,,0,19,,
0,control_change,0,0,0,,,,,,,7,100,0,,,
0,control_change,0,0,0,,,,,,,10,63,0,,,
0,note_on,0,0,0,,,,,,,,,0,,73,100
0,control_change,0,0,0,,,,,,,0,43,1,,,
0,program_change,0,0,0,,,,,,,,,1,19,,
0,control_change,0,0,0,,,,,,,7,100,1,,,
0,control_change,0,0,0,,,,,,,10,63,1,,,
0,note_on,0,0,0,,,,,,,,,1,,45,100
0,control_change,0,0,0,,,,,,,7,110,2,,,
0,control_change,0,0,0,,,,,,,10,63,2,,,
0,control_change,0,0,0,,,,,,,0,43,3,,,
0,program_change,0,0,0,,,,,,,,,3,19,,
0,control_change,0,0,0,,,,,,,7,110,3,,,
0,control_change,0,0,0,,,,,,,10,63,3,,,
0,note_on,0,0,0,,,,,,,,,3,,73,100
0,control_change,0,0,0,,,,,,,7,80,4,,,
0,control_change,0,0,0,,,,,,,10,63,4,,,
0,control_change,0,0,0,,,,,,,0,42,4,,,
0,control_change,0,0,0,,,,,,,0,42,4,,,
0,control_change,0,0,0,,,,,,,0,42,4,,,
0,control_change,0,0,0,,,,,,,0,0,5,,,
0,control_change,0,0,0,,,,,,,32,0,5,,,
0,program_change,0,0,0,,,,,,,,,5,48,,
0,control_change,0,0,0,,,,,,,7,105,5,,,
0,control_change,0,0,0,,,,,,,10,33,5,,,
0,note_on,0,0,0,,,,,,,,,5,,73,100
0,control_change,0,0,0,,,,,,,0,0,6,,,
0,control_change,0,0,0,,,,,,,32,0,6,,,
0,program_change,0,0,0,,,,,,,,,6,48,,
0,control_change,0,0,0,,,,,,,7,100,6,,,
0,control_change,0,0,0,,,,,,,10,103,6,,,
0,note_on,0,0,0,,,,,,,,,6,,64,100
0,control_change,0,0,0,,,,,,,7,110,7,,,
0,control_change,0,0,0,,,,,,,10,78,7,,,
0,control_change,0,0,0,,,,,,,32,0,7,,,
0,control_change,0,0,0,,,,,,,0,0,7,,,
0,control_change,0,0,0,,,,,,,32,0,7,,,
0,control_change,0,0,0,,,,,,,0,0,7,,,
0,control_change,0,0,0,,,,,,,32,0,7,,,
0,control_change,0,0,0,,,,,,,0,0,7,,,
0,control_change,0,0,0,,,,,,,0,0,8,,,
0,control_change,0,0,0,,,,,,,32,0,8,,,
0,program_change,0,0,0,,,,,,,,,8,42,,
0,control_change,0,0,0,,,,,,,7,110,8,,,
0,control_change,0,0,0,,,,,,,10,58,8,,,
0,note_on,0,0,0,,,,,,,,,8,,45,100
0,control_change,0,0,0,,,,,,,0,0,10,,,
0,control_change,0,0,0,,,,,,,32,0,10,,,
0,program_change,0,0,0,,,,,,,,,10,43,,
0,control_change,0,0,0,,,,,,,7,95,10,,,
0,control_change,0,0,0,,,,,,,10,88,10,,,
0,note_on,0,0,0,,,,,,,,,10,,33,100
0,control_change,0,0,0,,,,,,,7,65,11,,,
0,control_change,0,0,0,,,,,,,10,43,11,,,
0,control_change,0,0,0,,,,,,,32,0,11,,,
0,control_change,0,0,0,,,,,,,0,0,11,,,
0,control_change,0,0,0,,,,,,,32,0,11,,,
0,control_change,0,0,0,,,,,,,0,0,11,,,
0,control_change,0,0,0,,,,,,,32,0,11,,,
0,control_change,0,0,0,,,,,,,0,0,11,,,
0,control_change,0,0,0,,,,,,,7,65,12,,,
0,control_change,0,0,0,,,,,,,10,83,12,,,
0,control_change,0,0,0,,,,,,,32,0,12,,,
0,control_change,0,0,0,,,,,,,0,0,12,,,
0,control_change,0,0,0,,,,,,,32,0,12,,,
0,control_change,0,0,0,,,,,,,0,0,12,,,
0,control_change,0,0,0,,,,,,,32,0,12,,,
0,control_change,0,0,0,,,,,,,0,0,12,,,
0,control_change,0,0,0,,,,,,,0,0,13,,,
0,control_change,0,0,0,,,,,,,32,0,13,,,
0,program_change,0,0,0,,,,,,,,,13,68,,
0,control_change,0,0,0,,,,,,,7,100,13,,,
0,control_change,0,0,0,,,,,,,10,58,13,,,
0,note_on,0,0,0,,,,,,,,,13,,73,100
0,control_change,0,0,0,,,,,,,0,0,14,,,
0,control_change,0,0,0,,,,,,,32,0,14,,,
0,program_change,0,0,0,,,,,,,,,14,70,,
0,control_change,0,0,0,,,,,,,7,100,14,,,
0,control_change,0,0,0,,,,,,,10,83,14,,,
0,note_on,0,0,0,,,,,,,,,14,,45,100
0,control_change,0,0,0,,,,,,,0,40,15,,,
0,program_change,0,0,0,,,,,,,,,15,6,,
0,control_change,0,0,0,,,,,,,7,75,15,,,
0,control_change,0,0,0,,,,,,,10,48,15,,,
0,note_on,0,0,0,,,,,,,,,15,,45,100
0,control_change,0,0,0,,,,,,,32,0,12,,,
0,program_change,0,0,0,,,,,,,,,4,57,,
0,control_change,0,0,0,,,,,,,32,0,11,,,
0,control_change,0,0,0,,,,,,,32,0,7,,,
0,program_change,0,0,0,,,,,,,,,12,40,,
0,program_change,0,0,0,,,,,,,,,11,40,,
0,program_change,0,0,0,,,,,,,,,7,41,,
15,note_on,15,0,0,,,,,,,,,15,,49,100
30,note_on,15,0,0,,,,,,,,,15,,61,100
30,note_on,0,0,0,,,,,,,,,15,,52,100
45,note_on,15,0,0,,,,,,,,,15,,64,100
45,note_on,0,0,0,,,,,,,,,15,,57,100
75,note_on,30,0,0,,,,,,,,,15,,69,100
165,note_on,90,0,0,,,,,,,,,13,,73,0
165,note_on,0,0,0,,,,,,,,,3,,73,0
165,note_on,0,0,0,,,,,,,,,0,,73,0
180,note_on,15,0,0,,,,,,,,,6,,64,0
180,note_on,0,0,0,,,,,,,,,5,,73,0
210,note_on,30,0,0,,,,,,,,,0,,69,100
210,note_on,0,0,0,,,,,,,,,3,,69,100
210,note_on,0,0,0,,,,,,,,,5,,69,100
210,note_on,0,0,0,,,,,,,,,13,,69,100
240,note_on,30,0,0,,,,,,,,,13,,69,0
240,note_on,0,0,0,,,,,,,,,0,,69,0
240,note_on,0,0,0,,,,,,,,,5,,69,0
240,note_on,0,0,0,,,,,,,,,3,,69,0
240,note_on,0,0,0,,,,,,,,,0,,76,100
240,note_on,0,0,0,,,,,,,,,3,,76,100
240,note_on,0,0,0,,,,,,,,,5,,76,100
240,note_on,0,0,0,,,,,,,,,6,,61,100
240,note_on,0,0,0,,,,,,,,,13,,76,100
310,note_on,70,0,0,,,,,,,,,15,,45,0
310,note_on,0,0,0,,,,,,,,,8,,45,0
310,note_on,0,0,0,,,,,,,,,14,,45,0
310,note_on,0,0,0,,,,,,,,,10,,33,0
325,note_on,15,0,0,,,,,,,,,15,,49,0
330,note_on,5,0,0,,,,,,,,,1,,45,0
340,note_on,10,0,0,,,,,,,,,15,,52,0
340,note_on,0,0,0,,,,,,,,,15,,61,0
345,note_on,5,0,0,,,,,,,,,6,,61,0
355,note_on,10,0,0,,,,,,,,,15,,64,0
355,note_on,0,0,0,,,,,,,,,15,,57,0
360,note_on,5,0,0,,,,,,,,,15,,69,0
360,note_on,0,0,0,,,,,,,,,1,,47,100
360,note_on,0,0,0,,,,,,,,,6,,62,100
360,note_on,0,0,0,,,,,,,,,8,,47,100
360,note_on,0,0,0,,,,,,,,,10,,35,100
360,note_on,0,0,0,,,,,,,,,14,,47,100
360,note_on,0,0,0,,,,,,,,,15,,47,100
360,note_on,0,0,0,,,,,,,,,15,,52,100
375,note_on,15,0,0,,,,,,,,,15,,64,100
375,note_on,0,0,0,,,,,,,,,15,,56,100
390,note_on,15,0,0,,,,,,,,,15,,66,100
390,note_on,0,0,0,,,,,,,,,15,,59,100
405,note_on,15,0,0,,,,,,,,,15,,64,0
405,note_on,0,0,0,,,,,,,,,13,,76,0
405,note_on,0,0,0,,,,,,,,,5,,76,0
405,note_on,0,0,0,,,,,,,,,3,,76,0
405,note_on,0,0,0,,,,,,,,,0,,76,0
405,note_on,0,0,0,,,,,,,,,15,,62,100
420,note_on,15,0,0,,,,,,,,,15,,68,100
435,note_on,15,0,0,,,,,,,,,0,,64,100
435,note_on,0,0,0,,,,,,,,,3,,64,100
435,note_on,0,0,0,,,,,,,,,5,,64,100
435,note_on,0,0,0,,,,,,,,,13,,64,100
435,note_on,0,0,0,,,,,,,,,15,,69,100
450,note_on,15,0,0,,,,,,,,,13,,64,0
450,note_on,0,0,0,,,,,,,,,5,,64,0
450,note_on,0,0,0,,,,,,,,,3,,64,0
450,note_on,0,0,0,,,,,,,,,0,,64,0
450,note_on,0,0,0,,,,,,,,,15,,68,0
450,note_on,0,0,0,,,,,,,,,0,,66,100
450,note_on,0,0,0,,,,,,,,,3,,66,100
450,note_on,0,0,0,,,,,,,,,5,,66,100
450,note_on,0,0,0,,,,,,,,,13,,66,100
450,note_on,0,0,0,,,,,,,,,15,,71,100
465,note_on,15,0,0,,,,,,,,,13,,66,0
465,note_on,0,0,0,,,,,,,,,5,,66,0
465,note_on,0,0,0,,,,,,,,,3,,66,0
465,note_on,0,0,0,,,,,,,,,15,,69,0
465,note_on,0,0,0,,,,,,,,,15,,66,0
465,note_on,0,0,0,,,,,,,,,1,,47,0
465,note_on,0,0,0,,,,,,,,,6,,62,0
465,note_on,0,0,0,,,,,,,,,0,,66,0
465,note_on,0,0,0,,,,,,,,,0,,68,100
465,note_on,0,0,0,,,,,,,,,3,,68,100
465,note_on,0,0,0,,,,,,,,,5,,68,100
465,note_on,0,0,0,,,,,,,,,13,,68,100
480,note_on,15,0,0,,,,,,,,,13,,68,0
480,note_on,0,0,0,,,,,,,,,8,,47,0
480,note_on,0,0,0,,,,,,,,,15,,62,0
480,note_on,0,0,0,,,,,,,,,15,,59,0
480,note_on,0,0,0,,,,,,,,,15,,52,0
480,note_on,0,0,0,,,,,,,,,14,,47,0
480,note_on,0,0,0,,,,,,,,,10,,35,0
480,note_on,0,0,0,,,,,,,,,15,,56,0
480,note_on,0,0,0,,,,,,,,,3,,68,0
480,note_on,0,0,0,,,,,,,,,15,,47,0
480,note_on,0,0,0,,,,,,,,,15,,71,0
480,note_on,0,0,0,,,,,,,,,5,,68,0
480,note_on,0,0,0,,,,,,,,,0,,68,0
480,note_on,0,0,0,,,,,,,,,0,,69,100
480,note_on,0,0,0,,,,,,,,,1,,49,100
480,note_on,0,0,0,,,,,,,,,3,,69,100
480,note_on,0,0,0,,,,,,,,,5,,69,100
480,note_on,0,0,0,,,,,,,,,6,,64,100
480,note_on,0,0,0,,,,,,,,,8,,49,100
480,note_on,0,0,0,,,,,,,,,10,,37,100
480,note_on,0,0,0,,,,,,,,,13,,69,100
480,note_on,0,0,0,,,,,,,,,14,,49,100
480,note_on,0,0,0,,,,,,,,,15,,69,100
480,note_on,0,0,0,,,,,,,,,15,,49,100
495,note_on,15,0,0,,,,,,,,,15,,64,100
510,note_on,15,0,0,,,,,,,,,15,,61,100
520,note_on,10,0,0,,,,,,,,,15,,57,100
645,note_on,125,0,0,,,,,,,,,13,,69,0
645,note_on,0,0,0,,,,,,,,,5,,69,0
660,note_on,15,0,0,,,,,,,,,10,,37,0
660,note_on,0,0,0,,,,,,,,,0,,69,0
660,note_on,0,0,0,,,,,,,,,15,,69,0
660,note_on,0,0,0,,,,,,,,,3,,69,0
660,note_on,0,0,0,,,,,,,,,14,,49,0
660,note_on,0,0,0,,,,,,,,,6,,64,0
660,note_on,0,0,0,,,,,,,,,8,,49,0
660,note_on,0,0,0,,,,,,,,,15,,64,0
660,note_on,0,0,0,,,,,,,,,15,,49,0
660,note_on,0,0,0,,,,,,,,,15,,61,0
670,note_on,10,0,0,,,,,,,,,15,,57,0
690,note_on,20,0,0,,,,,,,,,1,,49,0
690,note_on,0,0,0,,,,,,,,,0,,73,100
690,note_on,0,0,0,,,,,,,,,3,,73,100
690,note_on,0,0,0,,,,,,,,,5,,73,100
690,note_on,0,0,0,,,,,,,,,13,,73,100
720,note_on,30,0,0,,,,,,,,,13,,73,0
720,note_on,0,0,0,,,,,,,,,0,,73,0
720,note_on,0,0,0,,,,,,,,,3,,73,0
720,note_on,0,0,0,,,,,,,,,5,,73,0
720,note_on,0,0,0,,,,,,,,,0,,78,100
720,note_on,0,0,0,,,,,,,,,1,,50,100
720,note_on,0,0,0,,,,,,,,,3,,78,100
720,note_on,0,0,0,,,,,,,,,5,,78,100
720,note_on,0,0,0,,,,,,,,,6,,69,100
720,note_on,0,0,0,,,,,,,,,8,,50,100
720,note_on,0,0,0,,,,,,,,,10,,38,100
720,note_on,0,0,0,,,,,,,,,13,,78,100
720,note_on,0,0,0,,,,,,,,,14,,50,100
720,note_on,0,0,0,,,,,,,,,15,,59,100
720,note_on,0,0,0,,,,,,,,,15,,66,100
720,note_on,0,0,0,,,,,,,,,15,,69,100
720,note_on,0,0,0,,,,,,,,,15,,50,100
830,note_on,110,0,0,,,,,,,,,15,,50,0
830,note_on,0,0,0,,,,,,,,,10,,38,0
830,note_on,0,0,0,,,,,,,,,14,,50,0
830,note_on,0,0,0,,,,,,,,,8,,50,0
840,note_on,10,0,0,,,,,,,,,15,,69,0
840,note_on,0,0,0,,,,,,,,,15,,66,0
840,note_on,0,0,0,,,,,,,,,15,,59,0
840,note_on,0,0,0,,,,,,,,,1,,50,0
840,note_on,0,0,0,,,,,,,,,1,,49,100
840,note_on,0,0,0,,,,,,,,,8,,49,100
840,note_on,0,0,0,,,,,,,,,10,,37,100
840,note_on,0,0,0,,,,,,,,,14,,49,100
840,note_on,0,0,0,,,,,,,,,15,,61,100
840,note_on,0,0,0,,,,,,,,,15,,64,100
840,note_on,0,0,0,,,,,,,,,15,,69,100
840,note_on,0,0,0,,,,,,,,,15,,49,100
855,note_on,15,0,0,,,,,,,,,0,,78,0
855,note_on,0,0,0,,,,,,,,,3,,78,0
885,note_on,30,0,0,,,,,,,,,5,,78,0
885,note_on,0,0,0,,,,,,,,,13,,78,0
885,note_on,0,0,0,,,,,,,,,6,,69,0
914,note_on,29,0,0,,,,,,,,,5,,69,100
914,note_on,0,0,0,,,,,,,,,13,,69,100
915,note_on,1,0,0,,,,,,,,,0,,69,100
915,note_on,0,0,0,,,,,,,,,3,,69,100
929,note_on,14,0,0,,,,,,,,,13,,69,0
929,note_on,0,0,0,,,,,,,,,5,,69,0
929,note_on,0,0,0,,,,,,,,,5,,71,100
929,note_on,0,0,0,,,,,,,,,13,,71,100
930,note_on,1,0,0,,,,,,,,,0,,69,0
930,note_on,0,0,0,,,,,,,,,3,,69,0
930,note_on,0,0,0,,,,,,,,,0,,71,100
930,note_on,0,0,0,,,,,,,,,3,,71,100
930,note_on,0,0,0,,,,,,,,,6,,69,100
944,note_on,14,0,0,,,,,,,,,5,,71,0
944,note_on,0,0,0,,,,,,,,,13,,71,0
944,note_on,0,0,0,,,,,,,,,5,,73,100
944,note_on,0,0,0,,,,,,,,,13,,73,100
945,note_on,1,0,0,,,,,,,,,0,,71,0
945,note_on,0,0,0,,,,,,,,,3,,71,0
945,note_on,0,0,0,,,,,,,,,0,,73,100
945,note_on,0,0,0,,,,,,,,,3,,73,100
950,note_on,5,0,0,,,,,,,,,10,,37,0
950,note_on,0,0,0,,,,,,,,,14,,49,0
950,note_on,0,0,0,,,,,,,,,15,,49,0
950,note_on,0,0,0,,,,,,,,,8,,49,0
959,note_on,9,0,0,,,,,,,,,5,,73,0
959,note_on,0,0,0,,,,,,,,,13,,73,0
959,note_on,0,0,0,,,,,,,,,5,,74,100
959,note_on,0,0,0,,,,,,,,,13,,74,100
960,note_on,1,0,0,,,,,,,,,1,,49,0
960,note_on,0,0,0,,,,,,,,,15,,64,0
960,note_on,0,0,0,,,,,,,,,15,,69,0
960,note_on,0,0,0,,,,,,,,,0,,73,0
960,note_on,0,0,0,,,,,,,,,6,,69,0
960,note_on,0,0,0,,,,,,,,,3,,73,0
960,note_on,0,0,0,,,,,,,,,15,,61,0
960,note_on,0,0,0,,,,,,,,,0,,74,100
960,note_on,0,0,0,,,,,,,,,1,,47,100
960,note_on,0,0,0,,,,,,,,,3,,74,100
960,note_on,0,0,0,,,,,,,,,6,,71,100
960,note_on,0,0,0,,,,,,,,,8,,47,100
960,note_on,0,0,0,,,,,,,,,10,,35,100
960,note_on,0,0,0,,,,,,,,,14,,47,100
960,note_on,0,0,0,,,,,,,,,15,,68,100
960,note_on,0,0,0,,,,,,,,,15,,47,100
960,note_on,0,0,0,,,,,,,,,15,,71,100
960,note_on,0,0,0,,,,,,,,,15,,64,100
1080,note_on,120,0,0,,,,,,,,,1,,47,0
1125,note_on,45,0,0,,,,,,,,,15,,47,0
1125,note_on,0,0,0,,,,,,,,,10,,35,0
1125,note_on,0,0,0,,,,,,,,,14,,47,0
1125,note_on,0,0,0,,,,,,,,,8,,47,0
1125,note_on,0,0,0,,,,,,,,,6,,71,0
1139,note_on,14,0,0,,,,,,,,,5,,74,0
1139,note_on,0,0,0,,,,,,,,,13,,74,0
1140,note_on,1,0,0,,,,,,,,,15,,64,0
1140,note_on,0,0,0,,,,,,,,,0,,74,0
1140,note_on,0,0,0,,,,,,,,,15,,71,0
1140,note_on,0,0,0,,,,,,,,,15,,68,0
1140,note_on,0,0,0,,,,,,,,,3,,74,0
1155,note_on,15,0,0,,,,,,,,,1,,47,100
1155,note_on,0,0,0,,,,,,,,,8,,47,100
1155,note_on,0,0,0,,,,,,,,,10,,35,100
1155,note_on,0,0,0,,,,,,,,,14,,47,100
1155,note_on,0,0,0,,,,,,,,,15,,47,100
1169,note_on,14,0,0,,,,,,,,,5,,78,100
1169,note_on,0,0,0,,,,,,,,,13,,78,100
1170,note_on,1,0,0,,,,,,,,,15,,47,0
1170,note_on,0,0,0,,,,,,,,,14,,47,0
1170,note_on,0,0,0,,,,,,,,,1,,47,0
1170,note_on,0,0,0,,,,,,,,,10,,35,0
1170,note_on,0,0,0,,,,,,,,,8,,47,0
1170,note_on,0,0,0,,,,,,,,,0,,78,100
1170,note_on,0,0,0,,,,,,,,,1,,49,100
1170,note_on,0,0,0,,,,,,,,,3,,78,100
1170,note_on,0,0,0,,,,,,,,,6,,71,100
1170,note_on,0,0,0,,,,,,,,,8,,49,100
1170,note_on,0,0,0,,,,,,,,,10,,37,100
1170,note_on,0,0,0,,,,,,,,,14,,49,100
1170,note_on,0,0,0,,,,,,,,,15,,49,100
1185,note_on,15,0,0,,,,,,,,,15,,49,0
1185,note_on,0,0,0,,,,,,,,,14,,49,0
1185,note_on,0,0,0,,,,,,,,,8,,49,0
1185,note_on,0,0,0,,,,,,,,,10,,37,0
1185,note_on,0,0,0,,,,,,,,,1,,49,0
1185,note_on,0,0,0,,,,,,,,,1,,50,100
1185,note_on,0,0,0,,,,,,,,,8,,50,100
1185,note_on,0,0,0,,,,,,,,,10,,38,100
1185,note_on,0,0,0,,,,,,,,,14,,50,100
1185,note_on,0,0,0,,,,,,,,,15,,50,100
1190,note_on,5,0,0,,,,,,,,,6,,71,0
1199,note_on,9,0,0,,,,,,,,,5,,78,0
1199,note_on,0,0,0,,,,,,,,,13,,78,0
1199,note_on,0,0,0,,,,,,,,,5,,81,100
1199,note_on,0,0,0,,,,,,,,,13,,81,100
1200,note_on,1,0,0,,,,,,,,,3,,78,0
1200,note_on,0,0,0,,,,,,,,,10,,38,0
1200,note_on,0,0,0,,,,,,,,,14,,50,0
1200,note_on,0,0,0,,,,,,,,,1,,50,0
1200,note_on,0,0,0,,,,,,,,,0,,78,0
1200,note_on,0,0,0,,,,,,,,,15,,50,0
1200,note_on,0,0,0,,,,,,,,,8,,50,0
1200,note_on,0,0,0,,,,,,,,,0,,81,100
1200,note_on,0,0,0,,,,,,,,,1,,52,100
1200,note_on,0,0,0,,,,,,,,,3,,81,100
1200,note_on,0,0,0,,,,,,,,,6,,71,100
1200,note_on,0,0,0,,,,,,,,,8,,52,100
1200,note_on,0,0,0,,,,,,,,,10,,40,100
1200,note_on,0,0,0,,,,,,,,,14,,52,100
1200,note_on,0,0,0,,,,,,,,,15,,59,100
1200,note_on,0,0,0,,,,,,,,,15,,56,100
1200,note_on,0,0,0,,,,,,,,,15,,64,100
1200,note_on,0,0,0,,,,,,,,,15,,52,100
1214,note_on,14,0,0,,,,,,,,,13,,81,0
1214,note_on,0,0,0,,,,,,,,,5,,81,0
1214,note_on,0,0,0,,,,,,,,,5,,80,100
1214,note_on,0,0,0,,,,,,,,,13,,80,100
1215,note_on,1,0,0,,,,,,,,,3,,81,0
1215,note_on,0,0,0,,,,,,,,,0,,81,0
1215,note_on,0,0,0,,,,,,,,,0,,80,100
1215,note_on,0,0,0,,,,,,,,,3,,80,100
1229,note_on,14,0,0,,,,,,,,,5,,80,0
1229,note_on,0,0,0,,,,,,,,,13,,80,0
1229,note_on,0,0,0,,,,,,,,,5,,81,100
1229,note_on,0,0,0,,,,,,,,,13,,81,100
1230,note_on,1,0,0,,,,,,,,,0,,80,0
1230,note_on,0,0,0,,,,,,,,,3,,80,0
1230,note_on,0,0,0,,,,,,,,,0,,81,100
1230,note_on,0,0,0,,,,,,,,,3,,81,100
1244,note_on,14,0,0,,,,,,,,,5,,81,0
1244,note_on,0,0,0,,,,,,,,,13,,81,0
1244,note_on,0,0,0,,,,,,,,,5,,80,100
1244,note_on,0,0,0,,,,,,,,,13,,80,100
1245,note_on,1,0,0,,,,,,,,,0,,81,0
1245,note_on,0,0,0,,,,,,,,,3,,81,0
1245,note_on,0,0,0,,,,,,,,,0,,80,100
1245,note_on,0,0,0,,,,,,,,,3,,80,100
1259,note_on,14,0,0,,,,,,,,,5,,80,0
1259,note_on,0,0,0,,,,,,,,,13,,80,0
1259,note_on,0,0,0,,,,,,,,,5,,81,100
1259,note_on,0,0,0,,,,,,,,,13,,81,100
1260,note_on,1,0,0,,,,,,,,,0,,80,0
1260,note_on,0,0,0,,,,,,,,,3,,80,0
1260,note_on,0,0,0,,,,,,,,,0,,81,100
1260,note_on,0,0,0,,,,,,,,,3,,81,100
1274,note_on,14,0,0,,,,,,,,,5,,81,0
1274,note_on,0,0,0,,,,,,,,,13,,81,0
1274,note_on,0,0,0,,,,,,,,,5,,80,100
1274,note_on,0,0,0,,,,,,,,,13,,80,100
1275,note_on,1,0,0,,,,,,,,,0,,81,0
1275,note_on,0,0,0,,,,,,,,,3,,81,0
1275,note_on,0,0,0,,,,,,,,,0,,80,100
1275,note_on,0,0,0,,,,,,,,,3,,80,100
1289,note_on,14,0,0,,,,,,,,,5,,80,0
1289,note_on,0,0,0,,,,,,,,,13,,80,0
1289,note_on,0,0,0,,,,,,,,,5,,81,100
1289,note_on,0,0,0,,,,,,,,,13,,81,100
1290,note_on,1,0,0,,,,,,,,,0,,80,0
1290,note_on,0,0,0,,,,,,,,,3,,80,0
1290,note_on,0,0,0,,,,,,,,,0,,81,100
1290,note_on,0,0,0,,,,,,,,,3,,81,100
1304,note_on,14,0,0,,,,,,,,,5,,81,0
1304,note_on,0,0,0,,,,,,,,,13,,81,0
1304,note_on,0,0,0,,,,,,,,,5,,80,100
1304,note_on,0,0,0,,,,,,,,,13,,80,100
1305,note_on,1,0,0,,,,,,,,,15,,52,0
1305,note_on,0,0,0,,,,,,,,,14,,52,0
1305,note_on,0,0,0,,,,,,,,,10,,40,0
1305,note_on,0,0,0,,,,,,,,,0,,81,0
1305,note_on,0,0,0,,,,,,,,,3,,81,0
1305,note_on,0,0,0,,,,,,,,,8,,52,0
1305,note_on,0,0,0,,,,,,,,,0,,80,100
1305,note_on,0,0,0,,,,,,,,,3,,80,100
1320,note_on,15,0,0,,,,,,,,,3,,80,0
1320,note_on,0,0,0,,,,,,,,,15,,64,0
1320,note_on,0,0,0,,,,,,,,,0,,80,0
1320,note_on,0,0,0,,,,,,,,,15,,59,0
1320,note_on,0,0,0,,,,,,,,,1,,52,0
1320,note_on,0,0,0,,,,,,,,,15,,56,0
1320,note_on,0,0,0,,,,,,,,,0,,81,100
1320,note_on,0,0,0,,,,,,,,,1,,50,100
1320,note_on,0,0,0,,,,,,,,,3,,81,100
1320,note_on,0,0,0,,,,,,,,,8,,50,100
1320,note_on,0,0,0,,,,,,,,,10,,38,100
1320,note_on,0,0,0,,,,,,,,,14,,50,100
1320,note_on,0,0,0,,,,,,,,,15,,59,100
1320,note_on,0,0,0,,,,,,,,,15,,64,100
1320,note_on,0,0,0,,,,,,,,,15,,68,100
1320,note_on,0,0,0,,,,,,,,,15,,50,100
1335,note_on,15,0,0,,,,,,,,,3,,81,0
1335,note_on,0,0,0,,,,,,,,,0,,81,0
1335,note_on,0,0,0,,,,,,,,,0,,80,100
1335,note_on,0,0,0,,,,,,,,,3,,80,100
1364,note_on,29,0,0,,,,,,,,,5,,80,0
1364,note_on,0,0,0,,,,,,,,,13,,80,0
1365,note_on,1,0,0,,,,,,,,,6,,71,0
1365,note_on,0,0,0,,,,,,,,,0,,80,0
1365,note_on,0,0,0,,,,,,,,,3,,80,0
1394,note_on,29,0,0,,,,,,,,,5,,76,100
1394,note_on,0,0,0,,,,,,,,,13,,76,100
1395,note_on,1,0,0,,,,,,,,,0,,76,100
1395,note_on,0,0,0,,,,,,,,,3,,76,100
1409,note_on,14,0,0,,,,,,,,,13,,76,0
1409,note_on,0,0,0,,,,,,,,,5,,76,0
1409,note_on,0,0,0,,,,,,,,,5,,78,100
1409,note_on,0,0,0,,,,,,,,,13,,78,100
1410,note_on,1,0,0,,,,,,,,,0,,76,0
1410,note_on,0,0,0,,,,,,,,,3,,76,0
1410,note_on,0,0,0,,,,,,,,,0,,78,100
1410,note_on,0,0,0,,,,,,,,,3,,78,100
1410,note_on,0,0,0,,,,,,,,,6,,71,100
1424,note_on,14,0,0,,,,,,,,,5,,78,0
1424,note_on,0,0,0,,,,,,,,,13,,78,0
1424,note_on,0,0,0,,,,,,,,,5,,80,100
1424,note_on,0,0,0,,,,,,,,,13,,80,100
1425,note_on,1,0,0,,,,,,,,,0,,78,0
1425,note_on,0,0,0,,,,,,,,,10,,38,0
1425,note_on,0,0,0,,,,,,,,,14,,50,0
1425,note_on,0,0,0,,,,,,,,,15,,50,0
1425,note_on,0,0,0,,,,,,,,,3,,78,0
1425,note_on,0,0,0,,,,,,,,,8,,50,0
1425,note_on,0,0,0,,,,,,,,,0,,80,100
1425,note_on,0,0,0,,,,,,,,,3,,80,100
1439,note_on,14,0,0,,,,,,,,,13,,80,0
1439,note_on,0,0,0,,,,,,,,,5,,80,0
1439,note_on,0,0,0,,,,,,,,,5,,81,100
1439,note_on,0,0,0,,,,,,,,,13,,81,100
1440,note_on,1,0,0,,,,,,,,,6,,71,0
1440,note_on,0,0,0,,,,,,,,,0,,80,0
1440,note_on,0,0,0,,,,,,,,,3,,80,0
1440,note_on,0,0,0,,,,,,,,,1,,50,0
1440,note_on,0,0,0,,,,,,,,,15,,64,0
1440,note_on,0,0,0,,,,,,,,,15,,68,0
1440,note_on,0,0,0,,,,,,,,,15,,59,0
1440,note_on,0,0,0,,,,,,,,,0,,81,100
1440,note_on,0,0,0,,,,,,,,,1,,49,100
1440,note_on,0,0,0,,,,,,,,,3,,81,100
1440,note_on,0,0,0,,,,,,,,,6,,64,100
1440,note_on,0,0,0,,,,,,,,,8,,49,100
1440,note_on,0,0,0,,,,,,,,,10,,37,100
1440,note_on,0,0,0,,,,,,,,,14,,49,100
1440,note_on,0,0,0,,,,,,,,,15,,61,100
1440,note_on,0,0,0,,,,,,,,,15,,64,100
1440,note_on,0,0,0,,,,,,,,,15,,69,100
1440,note_on,0,0,0,,,,,,,,,15,,49,100
1575,note_on,135,0,0,,,,,,,,,1,,49,0
1605,note_on,30,0,0,,,,,,,,,8,,49,0
1605,note_on,0,0,0,,,,,,,,,15,,64,0
1605,note_on,0,0,0,,,,,,,,,14,,49,0
1605,note_on,0,0,0,,,,,,,,,10,,37,0
1605,note_on,0,0,0,,,,,,,,,15,,61,0
1605,note_on,0,0,0,,,,,,,,,15,,49,0
1605,note_on,0,0,0,,,,,,,,,6,,64,0
1605,note_on,0,0,0,,,,,,,,,15,,69,0
1619,note_on,14,0,0,,,,,,,,,13,,81,0
1619,note_on,0,0,0,,,,,,,,,5,,81,0
1620,note_on,1,0,0,,,,,,,,,0,,81,0
1620,note_on,0,0,0,,,,,,,,,3,,81,0
1635,note_on,15,0,0,,,,,,,,,1,,61,100
1635,note_on,0,0,0,,,,,,,,,8,,61,100
1635,note_on,0,0,0,,,,,,,,,10,,49,100
1635,note_on,0,0,0,,,,,,,,,14,,61,100
1635,note_on,0,0,0,,,,,,,,,15,,61,100
1649,note_on,14,0,0,,,,,,,,,5,,76,100
1649,note_on,0,0,0,,,,,,,,,13,,76,100
1650,note_on,1,0,0,,,,,,,,,15,,61,0
1650,note_on,0,0,0,,,,,,,,,14,,61,0
1650,note_on,0,0,0,,,,,,,,,1,,61,0
1650,note_on,0,0,0,,,,,,,,,10,,49,0
1650,note_on,0,0,0,,,,,,,,,8,,61,0
1650,note_on,0,0,0,,,,,,,,,0,,76,100
1650,note_on,0,0,0,,,,,,,,,1,,59,100
1650,note_on,0,0,0,,,,,,,,,3,,76,100
1650,note_on,0,0,0,,,,,,,,,6,,64,100
1650,note_on,0,0,0,,,,,,,,,8,,59,100
1650,note_on,0,0,0,,,,,,,,,10,,47,100
1650,note_on,0,0,0,,,,,,,,,14,,59,100
1650,note_on,0,0,0,,,,,,,,,15,,59,100
1665,note_on,15,0,0,,,,,,,,,15,,59,0
1665,note_on,0,0,0,,,,,,,,,14,,59,0
1665,note_on,0,0,0,,,,,,,,,8,,59,0
1665,note_on,0,0,0,,,,,,,,,10,,47,0
1665,note_on,0,0,0,,,,,,,,,1,,59,0
1665,note_on,0,0,0,,,,,,,,,1,,57,100
1665,note_on,0,0,0,,,,,,,,,8,,57,100
1665,note_on,0,0,0,,,,,,,,,10,,45,100
1665,note_on,0,0,0,,,,,,,,,14,,57,100
1665,note_on,0,0,0,,,,,,,,,15,,57,100
1670,note_on,5,0,0,,,,,,,,,6,,64,0
1679,note_on,9,0,0,,,,,,,,,5,,76,0
1679,note_on,0,0,0,,,,,,,,,13,,76,0
1679,note_on,0,0,0,,,,,,,,,5,,85,100
1679,note_on,0,0,0,,,,,,,,,13,,85,100
1680,note_on,1,0,0,,,,,,,,,3,,76,0
1680,note_on,0,0,0,,,,,,,,,10,,45,0
1680,note_on,0,0,0,,,,,,,,,14,,57,0
1680,note_on,0,0,0,,,,,,,,,1,,57,0
1680,note_on,0,0,0,,,,,,,,,0,,76,0
1680,note_on,0,0,0,,,,,,,,,15,,57,0
1680,note_on,0,0,0,,,,,,,,,8,,57,0
1680,note_on,0,0,0,,,,,,,,,0,,85,100
1680,note_on,0,0,0,,,,,,,,,1,,56,100
1680,note_on,0,0,0,,,,,,,,,3,,85,100
1680,note_on,0,0,0,,,,,,,,,6,,64,100
1680,note_on,0,0,0,,,,,,,,,8,,56,100
1680,note_on,0,0,0,,,,,,,,,10,,44,100
1680,note_on,0,0,0,,,,,,,,,14,,56,100
1680,note_on,0,0,0,,,,,,,,,15,,62,100
1680,note_on,0,0,0,,,,,,,,,15,,68,100
1680,note_on,0,0,0,,,,,,,,,15,,64,100
1680,note_on,0,0,0,,,,,,,,,15,,56,100
1694,note_on,14,0,0,,,,,,,,,13,,85,0
1694,note_on,0,0,0,,,,,,,,,5,,85,0
1694,note_on,0,0,0,,,,,,,,,5,,83,100
1694,note_on,0,0,0,,,,,,,,,13,,83,100
1695,note_on,1,0,0,,,,,,,,,3,,85,0
1695,note_on,0,0,0,,,,,,,,,0,,85,0
1695,note_on,0,0,0,,,,,,,,,0,,83,100
1695,note_on,0,0,0,,,,,,,,,3,,83,100
1709,note_on,14,0,0,,,,,,,,,5,,83,0
1709,note_on,0,0,0,,,,,,,,,13,,83,0
1709,note_on,0,0,0,,,,,,,,,5,,85,100
1709,note_on,0,0,0,,,,,,,,,13,,85,100
1710,note_on,1,0,0,,,,,,,,,0,,83,0
1710,note_on,0,0,0,,,,,,,,,3,,83,0
1710,note_on,0,0,0,,,,,,,,,0,,85,100
1710,note_on,0,0,0,,,,,,,,,3,,85,100
1724,note_on,14,0,0,,,,,,,,,5,,85,0
1724,note_on,0,0,0,,,,,,,,,13,,85,0
1724,note_on,0,0,0,,,,,,,,,5,,83,100
1724,note_on,0,0,0,,,,,,,,,13,,83,100
1725,note_on,1,0,0,,,,,,,,,0,,85,0
1725,note_on,0,0,0,,,,,,,,,3,,85,0
1725,note_on,0,0,0,,,,,,,,,0,,83,100
1725,note_on,0,0,0,,,,,,,,,3,,83,100
1739,note_on,14,0,0,,,,,,,,,5,,83,0
1739,note_on,0,0,0,,,,,,,,,13,,83,0
1739,note_on,0,0,0,,,,,,,,,5,,85,100
1739,note_on,0,0,0,,,,,,,,,13,,85,100
1740,note_on,1,0,0,,,,,,,,,0,,83,0
1740,note_on,0,0,0,,,,,,,,,3,,83,0
1740,note_on,0,0,0,,,,,,,,,0,,85,100
1740,note_on,0,0,0,,,,,,,,,3,,85,100
1754,note_on,14,0,0,,,,,,,,,5,,85,0
1754,note_on,0,0,0,,,,,,,,,13,,85,0
1754,note_on,0,0,0,,,,,,,,,5,,83,100
1754,note_on,0,0,0,,,,,,,,,13,,83,100
1755,note_on,1,0,0,,,,,,,,,6,,64,0
1755,note_on,0,0,0,,,,,,,,,0,,85,0
1755,note_on,0,0,0,,,,,,,,,3,,85,0
1755,note_on,0,0,0,,,,,,,,,0,,83,100
1755,note_on,0,0,0,,,,,,,,,3,,83,100
1769,note_on,14,0,0,,,,,,,,,5,,83,0
1769,note_on,0,0,0,,,,,,,,,13,,83,0
1769,note_on,0,0,0,,,,,,,,,5,,85,100
1769,note_on,0,0,0,,,,,,,,,13,,85,100
1770,note_on,1,0,0,,,,,,,,,15,,56,0
1770,note_on,0,0,0,,,,,,,,,0,,83,0
1770,note_on,0,0,0,,,,,,,,,1,,56,0
1770,note_on,0,0,0,,,,,,,,,10,,44,0
1770,note_on,0,0,0,,,,,,,,,14,,56,0
1770,note_on,0,0,0,,,,,,,,,3,,83,0
1770,note_on,0,0,0,,,,,,,,,8,,56,0
1770,note_on,0,0,0,,,,,,,,,0,,85,100
1770,note_on,0,0,0,,,,,,,,,3,,85,100
1784,note_on,14,0,0,,,,,,,,,5,,85,0
1784,note_on,0,0,0,,,,,,,,,13,,85,0
1784,note_on,0,0,0,,,,,,,,,5,,83,100
1784,note_on,0,0,0,,,,,,,,,13,,83,100
1785,note_on,1,0,0,,,,,,,,,0,,85,0
1785,note_on,0,0,0,,,,,,,,,15,,64,0
1785,note_on,0,0,0,,,,,,,,,15,,68,0
1785,note_on,0,0,0,,,,,,,,,15,,62,0
1785,note_on,0,0,0,,,,,,,,,3,,85,0
1785,note_on,0,0,0,,,,,,,,,0,,83,100
1785,note_on,0,0,0,,,,,,,,,3,,83,100
1799,note_on,14,0,0,,,,,,,,,13,,83,0
1799,note_on,0,0,0,,,,,,,,,5,,83,0
1800,note_on,1,0,0,,,,,,,,,0,,83,0
1800,note_on,0,0,0,,,,,,,,,3,,83,0
1800,note_on,0,0,0,,,,,,,,,0,,85,100
1800,note_on,0,0,0,,,,,,,,,1,,52,100
1800,note_on,0,0,0,,,,,,,,,3,,85,100
1800,note_on,0,0,0,,,,,,,,,5,,85,100
1800,note_on,0,0,0,,,,,,,,,6,,68,100
1800,note_on,0,0,0,,,,,,,,,8,,52,100
1800,note_on,0,0,0,,,,,,,,,10,,40,100
1800,note_on,0,0,0,,,,,,,,,13,,85,100
1800,note_on,0,0,0,,,,,,,,,14,,52,100
1800,note_on,0,0,0,,,,,,,,,15,,59,100
1800,note_on,0,0,0,,,,,,,,,15,,64,100
1800,note_on,0,0,0,,,,,,,,,15,,68,100
1800,note_on,0,0,0,,,,,,,,,15,,52,100
1815,note_on,15,0,0,,,,,,,,,13,,85,0
1815,note_on,0,0,0,,,,,,,,,5,,85,0
1815,note_on,0,0,0,,,,,,,,,3,,85,0
1815,note_on,0,0,0,,,,,,,,,0,,85,0
1815,note_on,0,0,0,,,,,,,,,0,,83,100
1815,note_on,0,0,0,,,,,,,,,3,,83,100
1815,note_on,0,0,0,,,,,,,,,5,,83,100
1815,note_on,0,0,0,,,,,,,,,13,,83,100
1830,note_on,15,0,0,,,,,,,,,13,,83,0
1830,note_on,0,0,0,,,,,,,,,0,,83,0
1830,note_on,0,0,0,,,,,,,,,5,,83,0
1830,note_on,0,0,0,,,,,,,,,3,,83,0
1830,note_on,0,0,0,,,,,,,,,0,,85,100
1830,note_on,0,0,0,,,,,,,,,3,,85,100
1830,note_on,0,0,0,,,,,,,,,5,,85,100
1830,note_on,0,0,0,,,,,,,,,13,,85,100
1845,note_on,15,0,0,,,,,,,,,13,,85,0
1845,note_on,0,0,0,,,,,,,,,0,,85,0
1845,note_on,0,0,0,,,,,,,,,5,,85,0
1845,note_on,0,0,0,,,,,,,,,3,,85,0
1845,note_on,0,0,0,,,,,,,,,0,,83,100
1845,note_on,0,0,0,,,,,,,,,3,,83,100
1845,note_on,0,0,0,,,,,,,,,5,,83,100
1845,note_on,0,0,0,,,,,,,,,13,,83,100
1860,note_on,15,0,0,,,,,,,,,13,,83,0
1860,note_on,0,0,0,,,,,,,,,0,,83,0
1860,note_on,0,0,0,,,,,,,,,5,,83,0
1860,note_on,0,0,0,,,,,,,,,3,,83,0
1860,note_on,0,0,0,,,,,,,,,0,,85,100
1860,note_on,0,0,0,,,,,,,,,3,,85,100
1860,note_on,0,0,0,,,,,,,,,5,,85,100
1860,note_on,0,0,0,,,,,,,,,13,,85,100
1875,note_on,15,0,0,,,,,,,,,13,,85,0
1875,note_on,0,0,0,,,,,,,,,0,,85,0
1875,note_on,0,0,0,,,,,,,,,5,,85,0
1875,note_on,0,0,0,,,,,,,,,3,,85,0
1875,note_on,0,0,0,,,,,,,,,0,,83,100
1875,note_on,0,0,0,,,,,,,,,3,,83,100
1875,note_on,0,0,0,,,,,,,,,5,,83,100
1875,note_on,0,0,0,,,,,,,,,13,,83,100
1890,note_on,15,0,0,,,,,,,,,13,,83,0
1890,note_on,0,0,0,,,,,,,,,15,,59,0
1890,note_on,0,0,0,,,,,,,,,15,,52,0
1890,note_on,0,0,0,,,,,,,,,15,,68,0
1890,note_on,0,0,0,,,,,,,,,15,,64,0
1890,note_on,0,0,0,,,,,,,,,14,,52,0
1890,note_on,0,0,0,,,,,,,,,0,,83,0
1890,note_on,0,0,0,,,,,,,,,10,,40,0
1890,note_on,0,0,0,,,,,,,,,3,,83,0
1890,note_on,0,0,0,,,,,,,,,8,,52,0
1890,note_on,0,0,0,,,,,,,,,1,,52,0
1890,note_on,0,0,0,,,,,,,,,5,,83,0
1890,note_on,0,0,0,,,,,,,,,0,,81,100
1890,note_on,0,0,0,,,,,,,,,3,,81,100
1890,note_on,0,0,0,,,,,,,,,5,,81,100
1890,note_on,0,0,0,,,,,,,,,13,,81,100
1905,note_on,15,0,0,,,,,,,,,13,,81,0
1905,note_on,0,0,0,,,,,,,,,3,,81,0
1905,note_on,0,0,0,,,,,,,,,5,,81,0
1905,note_on,0,0,0,,,,,,,,,0,,81,0
1905,note_on,0,0,0,,,,,,,,,0,,83,100
1905,note_on,0,0,0,,,,,,,,,3,,83,100
1905,note_on,0,0,0,,,,,,,,,5,,83,100
1905,note_on,0,0,0,,,,,,,,,13,,83,100
1920,note_on,15,0,0,,,,,,,,,13,,83,0
1920,note_on,0,0,0,,,,,,,,,3,,83,0
1920,note_on,0,0,0,,,,,,,,,6,,68,0
1920,note_on,0,0,0,,,,,,,,,0,,83,0
1920,note_on,0,0,0,,,,,,,,,5,,83,0
1920,note_on,0,0,0,,,,,,,,,0,,85,100
1920,note_on,0,0,0,,,,,,,,,1,,57,100
1920,note_on,0,0,0,,,,,,,,,3,,85,100
1920,note_on,0,0,0,,,,,,,,,5,,85,100
1920,note_on,0,0,0,,,,,,,,,6,,69,100
1920,note_on,0,0,0,,,,,,,,,8,,57,100
1920,note_on,0,0,0,,,,,,,,,10,,45,100
1920,note_on,0,0,0,,,,,,,,,13,,85,100
1920,note_on,0,0,0,,,,,,,,,14,,57,100
1920,note_on,0,0,0,,,,,,,,,15,,64,100
1920,note_on,0,0,0,,,,,,,,,15,,69,100
1920,note_on,0,0,0,,,,,,,,,15,,61,100
1920,note_on,0,0,0,,,,,,,,,15,,57,100
2070,note_on,150,0,0,,,,,,,,,3,,85,0
2070,note_on,0,0,0,,,,,,,,,0,,85,0
2085,note_on,15,0,0,,,,,,,,,13,,85,0
2085,note_on,0,0,0,,,,,,,,,6,,69,0
2085,note_on,0,0,0,,,,,,,,,5,,85,0
2100,note_on,15,0,0,,,,,,,,,14,,57,0
2100,note_on,0,0,0,,,,,,,,,1,,57,0
2100,note_on,0,0,0,,,,,,,,,10,,45,0
2100,note_on,0,0,0,,,,,,,,,15,,57,0
2100,note_on,0,0,0,,,,,,,,,15,,69,0
2100,note_on,0,0,0,,,,,,,,,8,,57,0
2100,note_on,0,0,0,,,,,,,,,15,,61,0
2100,note_on,0,0,0,,,,,,,,,15,,64,0
2115,note_on,15,0,0,,,,,,,,,0,,76,100
2115,note_on,0,0,0,,,,,,,,,3,,76,100
2115,note_on,0,0,0,,,,,,,,,5,,76,100
2115,note_on,0,0,0,,,,,,,,,13,,76,100
2130,note_on,15,0,0,,,,,,,,,13,,76,0
2130,note_on,0,0,0,,,,,,,,,0,,76,0
2130,note_on,0,0,0,,,,,,,,,3,,76,0
2130,note_on,0,0,0,,,,,,,,,5,,76,0
2130,note_on,0,0,0,,,,,,,,,0,,78,100
2130,note_on,0,0,0,,,,,,,,,1,,62,100
2130,note_on,0,0,0,,,,,,,,,3,,78,100
2130,note_on,0,0,0,,,,,,,,,5,,78,100
2130,note_on,0,0,0,,,,,,,,,6,,69,100
2130,note_on,0,0,0,,,,,,,,,8,,62,100
2130,note_on,0,0,0,,,,,,,,,10,,50,100
2130,note_on,0,0,0,,,,,,,,,13,,78,100
2130,note_on,0,0,0,,,,,,,,,14,,62,100
2130,note_on,0,0,0,,,,,,,,,15,,62,100
2145,note_on,15,0,0,,,,,,,,,13,,78,0
2145,note_on,0,0,0,,,,,,,,,5,,78,0
2145,note_on,0,0,0,,,,,,,,,3,,78,0
2145,note_on,0,0,0,,,,,,,,,0,,78,0
2145,note_on,0,0,0,,,,,,,,,0,,80,100
2145,note_on,0,0,0,,,,,,,,,3,,80,100
2145,note_on,0,0,0,,,,,,,,,5,,80,100
2145,note_on,0,0,0,,,,,,,,,13,,80,100
2160,note_on,15,0,0,,,,,,,,,13,,80,0
2160,note_on,0,0,0,,,,,,,,,15,,62,0
2160,note_on,0,0,0,,,,,,,,,14,,62,0
2160,note_on,0,0,0,,,,,,,,,6,,69,0
2160,note_on,0,0,0,,,,,,,,,1,,62,0
2160,note_on,0,0,0,,,,,,,,,8,,62,0
2160,note_on,0,0,0,,,,,,,,,3,,80,0
2160,note_on,0,0,0,,,,,,,,,0,,80,0
2160,note_on,0,0,0,,,,,,,,,10,,50,0
2160,note_on,0,0,0,,,,,,,,,5,,80,0
2160,note_on,0,0,0,,,,,,,,,0,,81,100
2160,note_on,0,0,0,,,,,,,,,1,,61,100
2160,note_on,0,0,0,,,,,,,,,3,,81,100
2160,note_on,0,0,0,,,,,,,,,5,,81,100
2160,note_on,0,0,0,,,,,,,,,6,,64,100
2160,note_on,0,0,0,,,,,,,,,8,,61,100
2160,note_on,0,0,0,,,,,,,,,10,,49,100
2160,note_on,0,0,0,,,,,,,,,13,,81,100
2160,note_on,0,0,0,,,,,,,,,14,,61,100
2160,note_on,0,0,0,,,,,,,,,15,,64,100
2160,note_on,0,0,0,,,,,,,,,15,,73,100
2160,note_on,0,0,0,,,,,,,,,15,,69,100
2160,note_on,0,0,0,,,,,,,,,15,,61,100
2295,note_on,135,0,0,,,,,,,,,1,,61,0
2310,note_on,15,0,0,,,,,,,,,0,,81,0
2310,note_on,0,0,0,,,,,,,,,3,,81,0
2325,note_on,15,0,0,,,,,,,,,15,,64,0
2325,note_on,0,0,0,,,,,,,,,6,,64,0
2325,note_on,0,0,0,,,,,,,,,13,,81,0
2325,note_on,0,0,0,,,,,,,,,5,,81,0
2325,note_on,0,0,0,,,,,,,,,10,,49,0
2325,note_on,0,0,0,,,,,,,,,15,,61,0
2325,note_on,0,0,0,,,,,,,,,15,,73,0
2325,note_on,0,0,0,,,,,,,,,14,,61,0
2325,note_on,0,0,0,,,,,,,,,8,,61,0
2325,note_on,0,0,0,,,,,,,,,15,,69,0
2355,note_on,30,0,0,,,,,,,,,0,,73,100
2355,note_on,0,0,0,,,,,,,,,1,,61,100
2355,note_on,0,0,0,,,,,,,,,3,,73,100
2355,note_on,0,0,0,,,,,,,,,5,,73,100
2355,note_on,0,0,0,,,,,,,,,8,,57,100
2355,note_on,0,0,0,,,,,,,,,10,,45,100
2355,note_on,0,0,0,,,,,,,,,13,,73,100
2355,note_on,0,0,0,,,,,,,,,14,,57,100
2355,note_on,0,0,0,,,,,,,,,15,,57,100
2370,note_on,15,0,0,,,,,,,,,15,,57,0
2370,note_on,0,0,0,,,,,,,,,5,,73,0
2370,note_on,0,0,0,,,,,,,,,0,,73,0
2370,note_on,0,0,0,,,,,,,,,8,,57,0
2370,note_on,0,0,0,,,,,,,,,1,,61,0
2370,note_on,0,0,0,,,,,,,,,3,,73,0
2370,note_on,0,0,0,,,,,,,,,13,,73,0
2370,note_on,0,0,0,,,,,,,,,10,,45,0
2370,note_on,0,0,0,,,,,,,,,14,,57,0
2370,note_on,0,0,0,,,,,,,,,0,,74,100
2370,note_on,0,0,0,,,,,,,,,1,,62,100
2370,note_on,0,0,0,,,,,,,,,3,,74,100
2370,note_on,0,0,0,,,,,,,,,5,,74,100
2370,note_on,0,0,0,,,,,,,,,6,,69,100
2370,note_on,0,0,0,,,,,,,,,8,,59,100
2370,note_on,0,0,0,,,,,,,,,10,,47,100
2370,note_on,0,0,0,,,,,,,,,13,,74,100
2370,note_on,0,0,0,,,,,,,,,14,,59,100
2370,note_on,0,0,0,,,,,,,,,15,,59,100
2385,note_on,15,0,0,,,,,,,,,15,,59,0
2385,note_on,0,0,0,,,,,,,,,14,,59,0
2385,note_on,0,0,0,,,,,,,,,3,,74,0
2385,note_on,0,0,0,,,,,,,,,10,,47,0
2385,note_on,0,0,0,,,,,,,,,5,,74,0
2385,note_on,0,0,0,,,,,,,,,1,,62,0
2385,note_on,0,0,0,,,,,,,,,13,,74,0
2385,note_on,0,0,0,,,,,,,,,0,,74,0
2385,note_on,0,0,0,,,,,,,,,8,,59,0
2385,note_on,0,0,0,,,,,,,,,0,,76,100
2385,note_on,0,0,0,,,,,,,,,1,,64,100
2385,note_on,0,0,0,,,,,,,,,3,,76,100
2385,note_on,0,0,0,,,,,,,,,5,,76,100
2385,note_on,0,0,0,,,,,,,,,8,,61,100
2385,note_on,0,0,0,,,,,,,,,10,,49,100
2385,note_on,0,0,0,,,,,,,,,13,,76,100
2385,note_on,0,0,0,,,,,,,,,14,,61,100
2385,note_on,0,0,0,,,,,,,,,15,,61,100
2390,note_on,5,0,0,,,,,,,,,6,,69,0
2400,note_on,10,0,0,,,,,,,,,3,,76,0
2400,note_on,0,0,0,,,,,,,,,5,,76,0
2400,note_on,0,0,0,,,,,,,,,0,,76,0
2400,note_on,0,0,0,,,,,,,,,8,,61,0
2400,note_on,0,0,0,,,,,,,,,1,,64,0
2400,note_on,0,0,0,,,,,,,,,14,,61,0
2400,note_on,0,0,0,,,,,,,,,13,,76,0
2400,note_on,0,0,0,,,,,,,,,10,,49,0
2400,note_on,0,0,0,,,,,,,,,15,,61,0
2400,note_on,0,0,0,,,,,,,,,0,,78,100
2400,note_on,0,0,0,,,,,,,,,1,,50,100
2400,note_on,0,0,0,,,,,,,,,3,,78,100
2400,note_on,0,0,0,,,,,,,,,5,,78,100
2400,note_on,0,0,0,,,,,,,,,6,,69,100
2400,note_on,0,0,0,,,,,,,,,8,,50,100
2400,note_on,0,0,0,,,,,,,,,10,,38,100
2400,note_on,0,0,0,,,,,,,,,13,,78,100
2400,note_on,0,0,0,,,,,,,,,14,,50,100
2400,note_on,0,0,0,,,,,,,,,15,,62,100
2400,note_on,0,0,0,,,,,,,,,15,,66,100
2400,note_on,0,0,0,,,,,,,,,15,,71,100
2400,note_on,0,0,0,,,,,,,,,15,,50,100
2550,note_on,150,0,0,,,,,,,,,3,,78,0
2550,note_on,0,0,0,,,,,,,,,0,,78,0
2550,note_on,0,0,0,,,,,,,,,1,,50,0
2565,note_on,15,0,0,,,,,,,,,15,,62,0
2565,note_on,0,0,0,,,,,,,,,15,,71,0
2565,note_on,0,0,0,,,,,,,,,13,,78,0
2565,note_on,0,0,0,,,,,,,,,14,,50,0
2565,note_on,0,0,0,,,,,,,,,10,,38,0
2565,note_on,0,0,0,,,,,,,,,15,,50,0
2565,note_on,0,0,0,,,,,,,,,15,,66,0
2565,note_on,0,0,0,,,,,,,,,5,,78,0
2565,note_on,0,0,0,,,,,,,,,8,,50,0
2580,note_on,15,0,0,,,,,,,,,6,,69,0
2595,note_on,15,0,0,,,,,,,,,0,,66,100
2595,note_on,0,0,0,,,,,,,,,1,,54,100
2595,note_on,0,0,0,,,,,,,,,3,,66,100
2595,note_on,0,0,0,,,,,,,,,5,,66,100
2595,note_on,0,0,0,,,,,,,,,8,,54,100
2595,note_on,0,0,0,,,,,,,,,10,,42,100
2595,note_on,0,0,0,,,,,,,,,13,,66,100
2595,note_on,0,0,0,,,,,,,,,14,,54,100
2595,note_on,0,0,0,,,,,,,,,15,,54,100
2610,note_on,15,0,0,,,,,,,,,15,,54,0
2610,note_on,0,0,0,,,,,,,,,5,,66,0
2610,note_on,0,0,0,,,,,,,,,0,,66,0
2610,note_on,0,0,0,,,,,,,,,8,,54,0
2610,note_on,0,0,0,,,,,,,,,1,,54,0
2610,note_on,0,0,0,,,,,,,,,3,,66,0
2610,note_on,0,0,0,,,,,,,,,13,,66,0
2610,note_on,0,0,0,,,,,,,,,10,,42,0
2610,note_on,0,0,0,,,,,,,,,14,,54,0
2610,note_on,0,0,0,,,,,,,,,0,,68,100
2610,note_on,0,0,0,,,,,,,,,1,,52,100
2610,note_on,0,0,0,,,,,,,,,3,,68,100
2610,note_on,0,0,0,,,,,,,,,5,,68,100
2610,note_on,0,0,0,,,,,,,,,6,,61,100
2610,note_on,0,0,0,,,,,,,,,8,,52,100
2610,note_on,0,0,0,,,,,,,,,10,,40,100
2610,note_on,0,0,0,,,,,,,,,13,,68,100
2610,note_on,0,0,0,,,,,,,,,14,,52,100
2610,note_on,0,0,0,,,,,,,,,15,,52,100
2625,note_on,15,0,0,,,,,,,,,15,,52,0
2625,note_on,0,0,0,,,,,,,,,14,,52,0
2625,note_on,0,0,0,,,,,,,,,3,,68,0
2625,note_on,0,0,0,,,,,,,,,10,,40,0
2625,note_on,0,0,0,,,,,,,,,5,,68,0
2625,note_on,0,0,0,,,,,,,,,1,,52,0
2625,note_on,0,0,0,,,,,,,,,13,,68,0
2625,note_on,0,0,0,,,,,,,,,0,,68,0
2625,note_on,0,0,0,,,,,,,,,8,,52,0
2625,note_on,0,0,0,,,,,,,,,0,,69,100
2625,note_on,0,0,0,,,,,,,,,1,,54,100
2625,note_on,0,0,0,,,,,,,,,3,,69,100
2625,note_on,0,0,0,,,,,,,,,5,,69,100
2625,note_on,0,0,0,,,,,,,,,8,,54,100
2625,note_on,0,0,0,,,,,,,,,10,,42,100
2625,note_on,0,0,0,,,,,,,,,13,,69,100
2625,note_on,0,0,0,,,,,,,,,14,,54,100
2625,note_on,0,0,0,,,,,,,,,15,,54,100
2640,note_on,15,0,0,,,,,,,,,15,,54,0
2640,note_on,0,0,0,,,,,,,,,1,,54,0
2640,note_on,0,0,0,,,,,,,,,3,,69,0
2640,note_on,0,0,0,,,,,,,,,6,,61,0
2640,note_on,0,0,0,,,,,,,,,5,,69,0
2640,note_on,0,0,0,,,,,,,,,0,,69,0
2640,note_on,0,0,0,,,,,,,,,13,,69,0
2640,note_on,0,0,0,,,,,,,,,10,,42,0
2640,note_on,0,0,0,,,,,,,,,8,,54,0
2640,note_on,0,0,0,,,,,,,,,14,,54,0
2640,note_on,0,0,0,,,,,,,,,0,,71,100
2640,note_on,0,0,0,,,,,,,,,1,,51,100
2640,note_on,0,0,0,,,,,,,,,3,,71,100
2640,note_on,0,0,0,,,,,,,,,5,,71,100
2640,note_on,0,0,0,,,,,,,,,6,,66,100
2640,note_on,0,0,0,,,,,,,,,8,,51,100
2640,note_on,0,0,0,,,,,,,,,10,,39,100
2640,note_on,0,0,0,,,,,,,,,13,,71,100
2640,note_on,0,0,0,,,,,,,,,14,,51,100
2640,note_on,0,0,0,,,,,,,,,15,,59,100
2640,note_on,0,0,0,,,,,,,,,15,,66,100
2640,note_on,0,0,0,,,,,,,,,15,,71,100
2640,note_on,0,0,0,,,,,,,,,15,,51,100
2730,note_on,90,0,0,,,,,,,,,6,,66,0
2745,note_on,15,0,0,,,,,,,,,14,,51,0
2745,note_on,0,0,0,,,,,,,,,15,,51,0
2745,note_on,0,0,0,,,,,,,,,10,,39,0
2745,note_on,0,0,0,,,,,,,,,8,,51,0
2760,note_on,15,0,0,,,,,,,,,15,,71,0
2760,note_on,0,0,0,,,,,,,,,1,,51,0
2760,note_on,0,0,0,,,,,,,,,15,,66,0
2760,note_on,0,0,0,,,,,,,,,15,,59,0
2760,note_on,0,0,0,,,,,,,,,1,,47,100
2760,note_on,0,0,0,,,,,,,,,6,,63,100
2760,note_on,0,0,0,,,,,,,,,8,,47,100
2760,note_on,0,0,0,,,,,,,,,10,,35,100
2760,note_on,0,0,0,,,,,,,,,14,,47,100
2760,note_on,0,0,0,,,,,,,,,15,,66,100
2760,note_on,0,0,0,,,,,,,,,15,,63,100
2760,note_on,0,0,0,,,,,,,,,15,,69,100
2760,note_on,0,0,0,,,,,,,,,15,,47,100
2805,note_on,45,0,0,,,,,,,,,5,,71,0
2805,note_on,0,0,0,,,,,,,,,13,,71,0
2820,note_on,15,0,0,,,,,,,,,0,,71,0
2820,note_on,0,0,0,,,,,,,,,3,,71,0
2850,note_on,30,0,0,,,,,,,,,1,,47,0
2850,note_on,0,0,0,,,,,,,,,0,,69,100
2850,note_on,0,0,0,,,,,,,,,3,,69,100
2850,note_on,0,0,0,,,,,,,,,5,,69,100
2850,note_on,0,0,0,,,,,,,,,13,,69,100
2860,note_on,10,0,0,,,,,,,,,6,,63,0
2865,note_on,5,0,0,,,,,,,,,15,,47,0
2865,note_on,0,0,0,,,,,,,,,10,,35,0
2865,note_on,0,0,0,,,,,,,,,14,,47,0
2865,note_on,0,0,0,,,,,,,,,8,,47,0
2880,note_on,15,0,0,,,,,,,,,15,,66,0
2880,note_on,0,0,0,,,,,,,,,15,,69,0
2880,note_on,0,0,0,,,,,,,,,13,,69,0
2880,note_on,0,0,0,,,,,,,,,5,,69,0
2880,note_on,0,0,0,,,,,,,,,15,,63,0
2880,note_on,0,0,0,,,,,,,,,0,,69,0
2880,note_on,0,0,0,,,,,,,,,3,,69,0
2880,note_on,0,0,0,,,,,,,,,0,,68,100
2880,note_on,0,0,0,,,,,,,,,1,,52,100
2880,note_on,0,0,0,,,,,,,,,3,,68,100
2880,note_on,0,0,0,,,,,,,,,5,,68,100
2880,note_on,0,0,0,,,,,,,,,6,,64,100
2880,note_on,0,0,0,,,,,,,,,8,,52,100
2880,note_on,0,0,0,,,,,,,,,10,,40,100
2880,note_on,0,0,0,,,,,,,,,13,,68,100
2880,note_on,0,0,0,,,,,,,,,14,,52,100
2880,note_on,0,0,0,,,,,,,,,15,,59,100
2880,note_on,0,0,0,,,,,,,,,15,,64,100
2880,note_on,0,0,0,,,,,,,,,15,,68,100
2880,note_on,0,0,0,,,,,,,,,15,,52,100
2980,note_on,100,0,0,,,,,,,,,6,,64,0
2985,note_on,5,0,0,,,,,,,,,10,,40,0
2985,note_on,0,0,0,,,,,,,,,0,,68,0
2985,note_on,0,0,0,,,,,,,,,14,,52,0
2985,note_on,0,0,0,,,,,,,,,3,,68,0
2985,note_on,0,0,0,,,,,,,,,5,,68,0
2985,note_on,0,0,0,,,,,,,,,15,,64,0
2985,note_on,0,0,0,,,,,,,,,8,,52,0
2985,note_on,0,0,0,,,,,,,,,15,,68,0
2985,note_on,0,0,0,,,,,,,,,15,,59,0
2985,note_on,0,0,0,,,,,,,,,13,,68,0
2985,note_on,0,0,0,,,,,,,,,15,,52,0
3060,note_on,75,0,0,,,,,,,,,1,,52,0
3090,note_on,30,0,0,,,,,,,,,1,,54,100
3120,note_on,30,0,0,,,,,,,,,1,,54,0
3120,note_on,0,0,0,,,,,,,,,1,,56,100
3180,note_on,60,0,0,,,,,,,,,0,,71,100
3210,note_on,30,0,0,,,,,,,,,0,,71,0
3240,note_on,30,0,0,,,,,,,,,1,,56,0
3240,note_on,0,0,0,,,,,,,,,0,,76,100
3240,note_on,0,0,0,,,,,,,,,1,,52,100
3300,note_on,60,0,0,,,,,,,,,0,,76,0
3300,note_on,0,0,0,,,,,,,,,0,,80,100
3330,note_on,30,0,0,,,,,,,,,0,,80,0
3330,note_on,0,0,0,,,,,,,,,1,,52,0
3360,note_on,30,0,0,,,,,,,,,0,,80,100
3360,note_on,0,0,0,,,,,,,,,1,,57,100
3375,note_on,15,0,0,,,,,,,,,0,,80,0
3375,note_on,0,0,0,,,,,,,,,0,,78,100
3390,note_on,15,0,0,,,,,,,,,0,,78,0
3390,note_on,0,0,0,,,,,,,,,0,,80,100
3405,note_on,15,0,0,,,,,,,,,0,,80,0
3405,note_on,0,0,0,,,,,,,,,0,,78,100
3420,note_on,15,0,0,,,,,,,,,0,,78,0
3420,note_on,0,0,0,,,,,,,,,0,,80,100
3435,note_on,15,0,0,,,,,,,,,0,,80,0
3435,note_on,0,0,0,,,,,,,,,0,,78,100
3450,note_on,15,0,0,,,,,,,,,0,,78,0
3450,note_on,0,0,0,,,,,,,,,0,,80,100
3465,note_on,15,0,0,,,,,,,,,0,,80,0
3465,note_on,0,0,0,,,,,,,,,1,,57,0
3465,note_on,0,0,0,,,,,,,,,0,,78,100
3480,note_on,15,0,0,,,,,,,,,0,,78,0
3480,note_on,0,0,0,,,,,,,,,0,,76,100
3480,note_on,0,0,0,,,,,,,,,1,,56,100
3555,note_on,75,0,0,,,,,,,,,0,,76,0
3585,note_on,30,0,0,,,,,,,,,1,,56,0
3600,note_on,15,0,0,,,,,,,,,1,,52,100
3660,note_on,60,0,0,,,,,,,,,1,,71,100
3690,note_on,30,0,0,,,,,,,,,1,,71,0
3705,note_on,15,0,0,,,,,,,,,1,,52,0
3720,note_on,15,0,0,,,,,,,,,1,,76,100
3720,note_on,0,0,0,,,,,,,,,1,,56,100
3780,note_on,60,0,0,,,,,,,,,1,,76,0
3780,note_on,0,0,0,,,,,,,,,1,,80,100
3810,note_on,30,0,0,,,,,,,,,1,,80,0
3825,note_on,15,0,0,,,,,,,,,1,,56,0
3840,note_on,15,0,0,,,,,,,,,1,,80,100
3840,note_on,0,0,0,,,,,,,,,1,,57,100
3855,note_on,15,0,0,,,,,,,,,1,,80,0
3855,note_on,0,0,0,,,,,,,,,1,,78,100
3870,note_on,15,0,0,,,,,,,,,1,,78,0
3870,note_on,0,0,0,,,,,,,,,1,,80,100
3885,note_on,15,0,0,,,,,,,,,1,,80,0
3885,note_on,0,0,0,,,,,,,,,1,,78,100
3900,note_on,15,0,0,,,,,,,,,1,,78,0
3900,note_on,0,0,0,,,,,,,,,1,,80,100
3915,note_on,15,0,0,,,,,,,,,1,,80,0
3915,note_on,0,0,0,,,,,,,,,1,,78,100
3930,note_on,15,0,0,,,,,,,,,1,,78,0
3930,note_on,0,0,0,,,,,,,,,1,,80,100
3945,note_on,15,0,0,,,,,,,,,1,,80,0
3945,note_on,0,0,0,,,,,,,,,1,,57,0
3945,note_on,0,0,0,,,,,,,,,1,,78,100
3960,note_on,15,0,0,,,,,,,,,1,,78,0
3960,note_on,0,0,0,,,,,,,,,1,,76,100
3960,note_on,0,0,0,,,,,,,,,1,,56,100
4035,note_on,75,0,0,,,,,,,,,1,,76,0
4065,note_on,30,0,0,,,,,,,,,1,,56,0
4080,note_on,15,0,0,,,,,,,,,1,,52,100
4140,note_on,60,0,0,,,,,,,,,0,,83,100
4170,note_on,30,0,0,,,,,,,,,0,,83,0
4185,note_on,15,0,0,,,,,,,,,1,,52,0
4200,note_on,15,0,0,,,,,,,,,0,,80,100
4200,note_on,0,0,0,,,,,,,,,1,,56,100
4250,note_on,50,0,0,,,,,,,,,0,,80,0
4260,note_on,10,0,0,,,,,,,,,0,,78,100
4290,note_on,30,0,0,,,,,,,,,0,,78,0
4290,note_on,0,0,0,,,,,,,,,0,,76,100
4305,note_on,15,0,0,,,,,,,,,1,,56,0
4310,note_on,5,0,0,,,,,,,,,0,,76,0
4320,note_on,10,0,0,,,,,,,,,0,,78,100
4320,note_on,0,0,0,,,,,,,,,1,,57,100
4350,note_on,30,0,0,,,,,,,,,0,,78,0
4380,note_on,30,0,0,,,,,,,,,0,,75,100
4410,note_on,30,0,0,,,,,,,,,0,,75,0
4425,note_on,15,0,0,,,,,,,,,1,,57,0
4440,note_on,15,0,0,,,,,,,,,0,,76,100
4440,note_on,0,0,0,,,,,,,,,1,,56,100
4530,note_on,90,0,0,,,,,,,,,0,,76,0
4545,note_on,15,0,0,,,,,,,,,1,,56,0
4560,note_on,15,0,0,,,,,,,,,1,,52,100
4620,note_on,60,0,0,,,,,,,,,1,,83,100
4650,note_on,30,0,0,,,,,,,,,1,,83,0
4665,note_on,15,0,0,,,,,,,,,1,,52,0
4680,note_on,15,0,0,,,,,,,,,1,,56,100
4680,note_on,0,0,0,,,,,,,,,1,,80,100
4720,note_on,40,0,0,,,,,,,,,1,,80,0
4740,note_on,20,0,0,,,,,,,,,1,,78,100
4770,note_on,30,0,0,,,,,,,,,1,,78,0
4770,note_on,0,0,0,,,,,,,,,1,,76,100
4785,note_on,15,0,0,,,,,,,,,1,,56,0
4790,note_on,5,0,0,,,,,,,,,1,,76,0
4800,note_on,10,0,0,,,,,,,,,1,,57,100
4800,note_on,0,0,0,,,,,,,,,1,,78,100
4830,note_on,30,0,0,,,,,,,,,1,,78,0
4860,note_on,30,0,0,,,,,,,,,1,,75,100
4890,note_on,30,0,0,,,,,,,,,1,,75,0
4905,note_on,15,0,0,,,,,,,,,1,,57,0
4920,note_on,15,0,0,,,,,,,,,1,,56,100
4920,note_on,0,0,0,,,,,,,,,1,,76,100
5010,note_on,90,0,0,,,,,,,,,1,,76,0
5025,note_on,15,0,0,,,,,,,,,1,,56,0
5040,note_on,15,0,0,,,,,,,,,1,,52,100
5100,note_on,60,0,0,,,,,,,,,0,,83,100
5130,note_on,30,0,0,,,,,,,,,0,,83,0
5145,note_on,15,0,0,,,,,,,,,1,,52,0
5160,note_on,15,0,0,,,,,,,,,0,,85,100
5160,note_on,0,0,0,,,,,,,,,1,,56,100
5175,note_on,15,0,0,,,,,,,,,0,,85,0
5175,note_on,0,0,0,,,,,,,,,0,,83,100
5190,note_on,15,0,0,,,,,,,,,0,,83,0
5190,note_on,0,0,0,,,,,,,,,0,,85,100
5205,note_on,15,0,0,,,,,,,,,0,,85,0
5205,note_on,0,0,0,,,,,,,,,0,,83,100
5220,note_on,15,0,0,,,,,,,,,0,,83,0
5220,note_on,0,0,0,,,,,,,,,0,,85,100
5235,note_on,15,0,0,,,,,,,,,0,,85,0
5235,note_on,0,0,0,,,,,,,,,0,,83,100
5250,note_on,15,0,0,,,,,,,,,0,,83,0
5250,note_on,0,0,0,,,,,,,,,0,,81,100
5265,note_on,15,0,0,,,,,,,,,0,,81,0
5265,note_on,0,0,0,,,,,,,,,1,,56,0
5265,note_on,0,0,0,,,,,,,,,0,,83,100
5280,note_on,15,0,0,,,,,,,,,0,,83,0
5280,note_on,0,0,0,,,,,,,,,0,,85,100
5280,note_on,0,0,0,,,,,,,,,1,,57,100
5385,note_on,105,0,0,,,,,,,,,1,,57,0
5430,note_on,45,0,0,,,,,,,,,0,,85,0
5505,note_on,75,0,0,,,,,,,,,0,,76,100
5520,note_on,15,0,0,,,,,,,,,0,,76,0
5520,note_on,0,0,0,,,,,,,,,0,,83,100
5520,note_on,0,0,0,,,,,,,,,1,,56,100
5625,note_on,105,0,0,,,,,,,,,1,,56,0
5685,note_on,60,0,0,,,,,,,,,0,,83,0
5700,note_on,15,0,0,,,,,,,,,0,,78,100
5710,note_on,10,0,0,,,,,,,,,0,,76,100
5715,note_on,5,0,0,,,,,,,,,0,,78,0
5720,note_on,5,0,0,,,,,,,,,0,,78,100
5725,note_on,5,0,0,,,,,,,,,0,,76,0
5730,note_on,5,0,0,,,,,,,,,0,,78,0
5730,note_on,0,0,0,,,,,,,,,0,,76,100
5740,note_on,10,0,0,,,,,,,,,0,,76,0
5740,note_on,0,0,0,,,,,,,,,0,,75,100
5750,note_on,10,0,0,,,,,,,,,0,,75,0
5750,note_on,0,0,0,,,,,,,,,0,,76,100
5760,note_on,10,0,0,,,,,,,,,0,,76,0
5760,note_on,0,0,0,,,,,,,,,0,,81,100
5760,note_on,0,0,0,,,,,,,,,1,,54,100
5865,note_on,105,0,0,,,,,,,,,1,,54,0
5880,note_on,15,0,0,,,,,,,,,1,,59,100
5940,note_on,60,0,0,,,,,,,,,0,,81,0
5970,note_on,30,0,0,,,,,,,,,0,,80,100
5985,note_on,15,0,0,,,,,,,,,1,,59,0
6000,note_on,15,0,0,,,,,,,,,0,,80,0
6000,note_on,0,0,0,,,,,,,,,0,,81,100
6000,note_on,0,0,0,,,,,,,,,1,,52,100
6015,note_on,15,0,0,,,,,,,,,0,,81,0
6015,note_on,0,0,0,,,,,,,,,0,,80,100
6105,note_on,90,0,0,,,,,,,,,1,,52,0
6120,note_on,15,0,0,,,,,,,,,1,,59,100
6180,note_on,60,0,0,,,,,,,,,0,,80,0
6210,note_on,30,0,0,,,,,,,,,0,,78,100
6225,note_on,15,0,0,,,,,,,,,1,,59,0
6240,note_on,15,0,0,,,,,,,,,0,,78,0
6240,note_on,0,0,0,,,,,,,,,0,,80,100
6240,note_on,0,0,0,,,,,,,,,1,,51,100
6255,note_on,15,0,0,,,,,,,,,0,,80,0
6255,note_on,0,0,0,,,,,,,,,0,,78,100
6345,note_on,90,0,0,,,,,,,,,1,,51,0
6360,note_on,15,0,0,,,,,,,,,1,,59,100
6420,note_on,60,0,0,,,,,,,,,0,,78,0
6450,note_on,30,0,0,,,,,,,,,0,,83,100
6465,note_on,15,0,0,,,,,,,,,1,,59,0
6480,note_on,15,0,0,,,,,,,,,0,,83,0
6480,note_on,0,0,0,,,,,,,,,0,,78,100
6480,note_on,0,0,0,,,,,,,,,1,,49,100
6495,note_on,15,0,0,,,,,,,,,0,,78,0
6495,note_on,0,0,0,,,,,,,,,0,,76,100
6585,note_on,90,0,0,,,,,,,,,1,,49,0
6600,note_on,15,0,0,,,,,,,,,1,,59,100
6660,note_on,60,0,0,,,,,,,,,0,,76,0
6690,note_on,30,0,0,,,,,,,,,0,,83,100
6705,note_on,15,0,0,,,,,,,,,1,,59,0
6720,note_on,15,0,0,,,,,,,,,0,,83,0
6720,note_on,0,0,0,,,,,,,,,0,,76,100
6720,note_on,0,0,0,,,,,,,,,1,,47,100
6735,note_on,15,0,0,,,,,,,,,0,,76,0
6735,note_on,0,0,0,,,,,,,,,0,,75,100
6825,note_on,90,0,0,,,,,,,,,1,,47,0
6840,note_on,15,0,0,,,,,,,,,1,,56,100
6900,note_on,60,0,0,,,,,,,,,0,,75,0
6930,note_on,30,0,0,,,,,,,,,0,,83,100
6945,note_on,15,0,0,,,,,,,,,1,,56,0
6960,note_on,15,0,0,,,,,,,,,0,,83,0
6960,note_on,0,0,0,,,,,,,,,0,,75,100
6960,note_on,0,0,0,,,,,,,,,1,,45,100
6975,note_on,15,0,0,,,,,,,,,0,,75,0
6975,note_on,0,0,0,,,,,,,,,0,,73,100
7065,note_on,90,0,0,,,,,,,,,1,,45,0
7080,note_on,15,0,0,,,,,,,,,1,,54,100
7140,note_on,60,0,0,,,,,,,,,0,,73,0
7170,note_on,30,0,0,,,,,,,,,0,,83,100
7185,note_on,15,0,0,,,,,,,,,1,,54,0
7200,note_on,15,0,0,,,,,,,,,0,,83,0
7200,note_on,0,0,0,,,,,,,,,0,,73,100
7200,note_on,0,0,0,,,,,,,,,1,,44,100
7215,note_on,15,0,0,,,,,,,,,0,,73,0
7215,note_on,0,0,0,,,,,,,,,0,,71,100
7305,note_on,90,0,0,,,,,,,,,1,,44,0
7320,note_on,15,0,0,,,,,,,,,1,,52,100
7380,note_on,60,0,0,,,,,,,,,0,,71,0
7410,note_on,30,0,0,,,,,,,,,0,,83,100
7425,note_on,15,0,0,,,,,,,,,1,,52,0
7440,note_on,15,0,0,,,,,,,,,0,,83,0
7440,note_on,0,0,0,,,,,,,,,0,,71,100
7440,note_on,0,0,0,,,,,,,,,1,,42,100
7455,note_on,15,0,0,,,,,,,,,0,,71,0
7455,note_on,0,0,0,,,,,,,,,0,,69,100
7470,note_on,15,0,0,,,,,,,,,0,,69,0
7470,note_on,0,0,0,,,,,,,,,0,,71,100
7485,note_on,15,0,0,,,,,,,,,0,,71,0
7485,note_on,0,0,0,,,,,,,,,0,,69,100
7500,note_on,15,0,0,,,,,,,,,0,,69,0
7500,note_on,0,0,0,,,,,,,,,0,,71,100
7515,note_on,15,0,0,,,,,,,,,0,,71,0
7515,note_on,0,0,0,,,,,,,,,0,,69,100
7530,note_on,15,0,0,,,,,,,,,0,,69,0
7530,note_on,0,0,0,,,,,,,,,0,,71,100
7545,note_on,15,0,0,,,,,,,,,0,,71,0
7545,note_on,0,0,0,,,,,,,,,1,,42,0
7545,note_on,0,0,0,,,,,,,,,0,,69,100
7560,note_on,15,0,0,,,,,,,,,0,,69,0
7560,note_on,0,0,0,,,,,,,,,0,,71,100
7560,note_on,0,0,0,,,,,,,,,1,,51,100
7570,note_on,10,0,0,,,,,,,,,0,,71,0
7570,note_on,0,0,0,,,,,,,,,0,,69,100
7580,note_on,10,0,0,,,,,,,,,0,,69,0
7580,note_on,0,0,0,,,,,,,,,0,,71,100
7590,note_on,10,0,0,,,,,,,,,0,,71,0
7590,note_on,0,0,0,,,,,,,,,0,,69,100
7600,note_on,10,0,0,,,,,,,,,0,,69,0
7600,note_on,0,0,0,,,,,,,,,0,,71,100
7610,note_on,10,0,0,,,,,,,,,0,,71,0
7610,note_on,0,0,0,,,,,,,,,0,,69,100
7620,note_on,10,0,0,,,,,,,,,0,,69,0
7620,note_on,0,0,0,,,,,,,,,0,,71,100
7630,note_on,10,0,0,,,,,,,,,0,,71,0
7630,note_on,0,0,0,,,,,,,,,0,,69,100
7640,note_on,10,0,0,,,,,,,,,0,,69,0
7640,note_on,0,0,0,,,,,,,,,0,,68,100
7650,note_on,10,0,0,,,,,,,,,0,,68,0
7650,note_on,0,0,0,,,,,,,,,0,,69,100
7660,note_on,10,0,0,,,,,,,,,0,,69,0
7665,note_on,5,0,0,,,,,,,,,1,,51,0
7680,note_on,15,0,0,,,,,,,,,0,,69,100
7680,note_on,0,0,0,,,,,,,,,1,,40,100
7695,note_on,15,0,0,,,,,,,,,0,,69,0
7695,note_on,0,0,0,,,,,,,,,0,,68,100
7710,note_on,15,0,0,,,,,,,,,0,,68,0
7710,note_on,0,0,0,,,,,,,,,0,,69,100
7725,note_on,15,0,0,,,,,,,,,0,,69,0
7725,note_on,0,0,0,,,,,,,,,0,,68,100
7770,note_on,45,0,0,,,,,,,,,0,,68,0
7785,note_on,15,0,0,,,,,,,,,1,,40,0
7815,note_on,30,0,0,,,,,,,,,0,,64,100
7815,note_on,0,0,0,,,,,,,,,3,,64,100
7815,note_on,0,0,0,,,,,,,,,5,,64,100
7815,note_on,0,0,0,,,,,,,,,13,,64,100
7830,note_on,15,0,0,,,,,,,,,13,,64,0
7830,note_on,0,0,0,,,,,,,,,0,,64,0
7830,note_on,0,0,0,,,,,,,,,3,,64,0
7830,note_on,0,0,0,,,,,,,,,5,,64,0
7830,note_on,0,0,0,,,,,,,,,0,,66,100
7830,note_on,0,0,0,,,,,,,,,3,,66,100
7830,note_on,0,0,0,,,,,,,,,5,,66,100
7830,note_on,0,0,0,,,,,,,,,13,,66,100
7845,note_on,15,0,0,,,,,,,,,13,,66,0
7845,note_on,0,0,0,,,,,,,,,0,,66,0
7845,note_on,0,0,0,,,,,,,,,3,,66,0
7845,note_on,0,0,0,,,,,,,,,5,,66,0
7845,note_on,0,0,0,,,,,,,,,0,,68,100
7845,note_on,0,0,0,,,,,,,,,3,,68,100
7845,note_on,0,0,0,,,,,,,,,5,,68,100
7845,note_on,0,0,0,,,,,,,,,13,,68,100
7860,note_on,15,0,0,,,,,,,,,13,,68,0
7860,note_on,0,0,0,,,,,,,,,0,,68,0
7860,note_on,0,0,0,,,,,,,,,3,,68,0
7860,note_on,0,0,0,,,,,,,,,5,,68,0
7860,note_on,0,0,0,,,,,,,,,0,,69,100
7860,note_on,0,0,0,,,,,,,,,3,,69,100
7860,note_on,0,0,0,,,,,,,,,5,,69,100
7860,note_on,0,0,0,,,,,,,,,13,,69,100
7875,note_on,15,0,0,,,,,,,,,13,,69,0
7875,note_on,0,0,0,,,,,,,,,0,,69,0
7875,note_on,0,0,0,,,,,,,,,3,,69,0
7875,note_on,0,0,0,,,,,,,,,5,,69,0
7875,note_on,0,0,0,,,,,,,,,0,,71,100
7875,note_on,0,0,0,,,,,,,,,3,,71,100
7875,note_on,0,0,0,,,,,,,,,5,,71,100
7875,note_on,0,0,0,,,,,,,,,13,,71,100
7890,note_on,15,0,0,,,,,,,,,13,,71,0
7890,note_on,0,0,0,,,,,,,,,0,,71,0
7890,note_on,0,0,0,,,,,,,,,3,,71,0
7890,note_on,0,0,0,,,,,,,,,5,,71,0
7890,note_on,0,0,0,,,,,,,,,0,,52,100
7890,note_on,0,0,0,,,,,,,,,0,,73,100
7890,note_on,0,0,0,,,,,,,,,3,,52,100
7890,note_on,0,0,0,,,,,,,,,3,,73,100
7890,note_on,0,0,0,,,,,,,,,5,,73,100
7890,note_on,0,0,0,,,,,,,,,8,,52,100
7890,note_on,0,0,0,,,,,,,,,10,,40,100
7890,note_on,0,0,0,,,,,,,,,13,,73,100
7890,note_on,0,0,0,,,,,,,,,14,,52,100
7890,note_on,0,0,0,,,,,,,,,15,,52,100
7900,note_on,10,0,0,,,,,,,,,6,,68,100
7905,note_on,5,0,0,,,,,,,,,13,,73,0
7905,note_on,0,0,0,,,,,,,,,5,,73,0
7905,note_on,0,0,0,,,,,,,,,3,,73,0
7905,note_on,0,0,0,,,,,,,,,0,,73,0
7905,note_on,0,0,0,,,,,,,,,0,,75,100
7905,note_on,0,0,0,,,,,,,,,3,,75,100
7905,note_on,0,0,0,,,,,,,,,5,,75,100
7905,note_on,0,0,0,,,,,,,,,13,,75,100
7910,note_on,5,0,0,,,,,,,,,14,,52,0
7910,note_on,0,0,0,,,,,,,,,0,,52,0
7910,note_on,0,0,0,,,,,,,,,15,,52,0
7910,note_on,0,0,0,,,,,,,,,10,,40,0
7910,note_on,0,0,0,,,,,,,,,3,,52,0
7910,note_on,0,0,0,,,,,,,,,8,,52,0
7920,note_on,10,0,0,,,,,,,,,0,,75,0
7920,note_on,0,0,0,,,,,,,,,13,,75,0
7920,note_on,0,0,0,,,,,,,,,3,,75,0
7920,note_on,0,0,0,,,,,,,,,6,,68,0
7920,note_on,0,0,0,,,,,,,,,5,,75,0
7920,note_on,0,0,0,,,,,,,,,0,,56,100
7920,note_on,0,0,0,,,,,,,,,0,,76,100
7920,note_on,0,0,0,,,,,,,,,3,,56,100
7920,note_on,0,0,0,,,,,,,,,3,,76,100
7920,note_on,0,0,0,,,,,,,,,5,,76,100
7920,note_on,0,0,0,,,,,,,,,6,,71,100
7920,note_on,0,0,0,,,,,,,,,8,,56,100
7920,note_on,0,0,0,,,,,,,,,10,,44,100
7920,note_on,0,0,0,,,,,,,,,13,,76,100
7920,note_on,0,0,0,,,,,,,,,14,,56,100
7920,note_on,0,0,0,,,,,,,,,15,,64,100
7920,note_on,0,0,0,,,,,,,,,15,,71,100
7920,note_on,0,0,0,,,,,,,,,15,,76,100
7920,note_on,0,0,0,,,,,,,,,15,,56,100
7995,note_on,75,0,0,,,,,,,,,15,,56,0
7995,note_on,0,0,0,,,,,,,,,5,,76,0
7995,note_on,0,0,0,,,,,,,,,13,,76,0
7995,note_on,0,0,0,,,,,,,,,8,,56,0
7995,note_on,0,0,0,,,,,,,,,0,,56,0
7995,note_on,0,0,0,,,,,,,,,3,,56,0
7995,note_on,0,0,0,,,,,,,,,3,,76,0
7995,note_on,0,0,0,,,,,,,,,10,,44,0
7995,note_on,0,0,0,,,,,,,,,6,,71,0
7995,note_on,0,0,0,,,,,,,,,0,,76,0
7995,note_on,0,0,0,,,,,,,,,14,,56,0
8020,note_on,25,0,0,,,,,,,,,0,,76,100
8020,note_on,0,0,0,,,,,,,,,0,,54,100
8020,note_on,0,0,0,,,,,,,,,3,,76,100
8020,note_on,0,0,0,,,,,,,,,3,,54,100
8020,note_on,0,0,0,,,,,,,,,5,,76,100
8020,note_on,0,0,0,,,,,,,,,6,,69,100
8020,note_on,0,0,0,,,,,,,,,8,,54,100
8020,note_on,0,0,0,,,,,,,,,10,,42,100
8020,note_on,0,0,0,,,,,,,,,13,,76,100
8020,note_on,0,0,0,,,,,,,,,14,,54,100
8020,note_on,0,0,0,,,,,,,,,15,,54,100
8025,note_on,5,0,0,,,,,,,,,15,,64,0
8025,note_on,0,0,0,,,,,,,,,15,,76,0
8025,note_on,0,0,0,,,,,,,,,15,,71,0
8035,note_on,10,0,0,,,,,,,,,3,,76,0
8035,note_on,0,0,0,,,,,,,,,8,,54,0
8035,note_on,0,0,0,,,,,,,,,0,,54,0
8035,note_on,0,0,0,,,,,,,,,3,,54,0
8035,note_on,0,0,0,,,,,,,,,5,,76,0
8035,note_on,0,0,0,,,,,,,,,15,,54,0
8035,note_on,0,0,0,,,,,,,,,14,,54,0
8035,note_on,0,0,0,,,,,,,,,10,,42,0
8035,note_on,0,0,0,,,,,,,,,0,,76,0
8035,note_on,0,0,0,,,,,,,,,13,,76,0
8040,note_on,5,0,0,,,,,,,,,6,,69,0
8040,note_on,0,0,0,,,,,,,,,0,,76,100
8040,note_on,0,0,0,,,,,,,,,0,,56,100
8040,note_on,0,0,0,,,,,,,,,3,,76,100
8040,note_on,0,0,0,,,,,,,,,3,,56,100
8040,note_on,0,0,0,,,,,,,,,5,,76,100
8040,note_on,0,0,0,,,,,,,,,6,,71,100
8040,note_on,0,0,0,,,,,,,,,8,,56,100
8040,note_on,0,0,0,,,,,,,,,10,,44,100
8040,note_on,0,0,0,,,,,,,,,13,,76,100
8040,note_on,0,0,0,,,,,,,,,14,,56,100
8040,note_on,0,0,0,,,,,,,,,15,,71,100
8040,note_on,0,0,0,,,,,,,,,15,,64,100
8040,note_on,0,0,0,,,,,,,,,15,,76,100
8040,note_on,0,0,0,,,,,,,,,15,,74,100
8040,note_on,0,0,0,,,,,,,,,15,,56,100
8115,note_on,75,0,0,,,,,,,,,15,,56,0
8115,note_on,0,0,0,,,,,,,,,5,,76,0
8115,note_on,0,0,0,,,,,,,,,13,,76,0
8115,note_on,0,0,0,,,,,,,,,8,,56,0
8115,note_on,0,0,0,,,,,,,,,0,,76,0
8115,note_on,0,0,0,,,,,,,,,3,,56,0
8115,note_on,0,0,0,,,,,,,,,10,,44,0
8115,note_on,0,0,0,,,,,,,,,3,,76,0
8115,note_on,0,0,0,,,,,,,,,14,,56,0
8115,note_on,0,0,0,,,,,,,,,6,,71,0
8115,note_on,0,0,0,,,,,,,,,0,,56,0
8140,note_on,25,0,0,,,,,,,,,0,,76,100
8140,note_on,0,0,0,,,,,,,,,0,,52,100
8140,note_on,0,0,0,,,,,,,,,3,,76,100
8140,note_on,0,0,0,,,,,,,,,3,,52,100
8140,note_on,0,0,0,,,,,,,,,5,,76,100
8140,note_on,0,0,0,,,,,,,,,6,,68,100
8140,note_on,0,0,0,,,,,,,,,8,,52,100
8140,note_on,0,0,0,,,,,,,,,10,,40,100
8140,note_on,0,0,0,,,,,,,,,13,,76,100
8140,note_on,0,0,0,,,,,,,,,14,,52,100
8140,note_on,0,0,0,,,,,,,,,15,,52,100
8145,note_on,5,0,0,,,,,,,,,15,,71,0
8145,note_on,0,0,0,,,,,,,,,15,,76,0
8145,note_on,0,0,0,,,,,,,,,15,,64,0
8145,note_on,0,0,0,,,,,,,,,15,,74,0
8155,note_on,10,0,0,,,,,,,,,0,,52,0
8155,note_on,0,0,0,,,,,,,,,0,,76,0
8155,note_on,0,0,0,,,,,,,,,3,,76,0
8155,note_on,0,0,0,,,,,,,,,5,,76,0
8155,note_on,0,0,0,,,,,,,,,14,,52,0
8155,note_on,0,0,0,,,,,,,,,15,,52,0
8155,note_on,0,0,0,,,,,,,,,13,,76,0
8155,note_on,0,0,0,,,,,,,,,8,,52,0
8155,note_on,0,0,0,,,,,,,,,3,,52,0
8155,note_on,0,0,0,,,,,,,,,10,,40,0
8160,note_on,5,0,0,,,,,,,,,6,,68,0
8160,note_on,0,0,0,,,,,,,,,0,,57,100
8160,note_on,0,0,0,,,,,,,,,0,,76,100
8160,note_on,0,0,0,,,,,,,,,3,,57,100
8160,note_on,0,0,0,,,,,,,,,3,,76,100
8160,note_on,0,0,0,,,,,,,,,5,,76,100
8160,note_on,0,0,0,,,,,,,,,6,,73,100
8160,note_on,0,0,0,,,,,,,,,8,,57,100
8160,note_on,0,0,0,,,,,,,,,10,,45,100
8160,note_on,0,0,0,,,,,,,,,13,,76,100
8160,note_on,0,0,0,,,,,,,,,14,,57,100
8160,note_on,0,0,0,,,,,,,,,15,,64,100
8160,note_on,0,0,0,,,,,,,,,15,,73,100
8160,note_on,0,0,0,,,,,,,,,15,,76,100
8160,note_on,0,0,0,,,,,,,,,15,,57,100
8235,note_on,75,0,0,,,,,,,,,15,,57,0
8235,note_on,0,0,0,,,,,,,,,5,,76,0
8235,note_on,0,0,0,,,,,,,,,13,,76,0
8235,note_on,0,0,0,,,,,,,,,8,,57,0
8235,note_on,0,0,0,,,,,,,,,0,,57,0
8235,note_on,0,0,0,,,,,,,,,3,,57,0
8235,note_on,0,0,0,,,,,,,,,3,,76,0
8235,note_on,0,0,0,,,,,,,,,10,,45,0
8235,note_on,0,0,0,,,,,,,,,6,,73,0
8235,note_on,0,0,0,,,,,,,,,0,,76,0
8235,note_on,0,0,0,,,,,,,,,14,,57,0
8260,note_on,25,0,0,,,,,,,,,0,,59,100
8260,note_on,0,0,0,,,,,,,,,3,,59,100
8260,note_on,0,0,0,,,,,,,,,6,,71,100
8260,note_on,0,0,0,,,,,,,,,8,,59,100
8260,note_on,0,0,0,,,,,,,,,10,,47,100
8260,note_on,0,0,0,,,,,,,,,14,,59,100
8260,note_on,0,0,0,,,,,,,,,15,,59,100
8275,note_on,15,0,0,,,,,,,,,15,,59,0
8275,note_on,0,0,0,,,,,,,,,14,,59,0
8275,note_on,0,0,0,,,,,,,,,8,,59,0
8275,note_on,0,0,0,,,,,,,,,0,,59,0
8275,note_on,0,0,0,,,,,,,,,10,,47,0
8275,note_on,0,0,0,,,,,,,,,3,,59,0
8280,note_on,5,0,0,,,,,,,,,6,,71,0
8280,note_on,0,0,0,,,,,,,,,15,,73,0
8280,note_on,0,0,0,,,,,,,,,0,,61,100
8280,note_on,0,0,0,,,,,,,,,3,,61,100
8280,note_on,0,0,0,,,,,,,,,6,,69,100
8280,note_on,0,0,0,,,,,,,,,8,,61,100
8280,note_on,0,0,0,,,,,,,,,10,,49,100
8280,note_on,0,0,0,,,,,,,,,14,,61,100
8280,note_on,0,0,0,,,,,,,,,15,,61,100
8280,note_on,0,0,0,,,,,,,,,15,,69,100
8295,note_on,15,0,0,,,,,,,,,0,,69,100
8295,note_on,0,0,0,,,,,,,,,3,,69,100
8295,note_on,0,0,0,,,,,,,,,5,,69,100
8295,note_on,0,0,0,,,,,,,,,13,,69,100
8310,note_on,15,0,0,,,,,,,,,13,,69,0
8310,note_on,0,0,0,,,,,,,,,5,,69,0
8310,note_on,0,0,0,,,,,,,,,0,,69,0
8310,note_on,0,0,0,,,,,,,,,3,,69,0
8310,note_on,0,0,0,,,,,,,,,0,,71,100
8310,note_on,0,0,0,,,,,,,,,3,,71,100
8310,note_on,0,0,0,,,,,,,,,5,,71,100
8310,note_on,0,0,0,,,,,,,,,13,,71,100
8325,note_on,15,0,0,,,,,,,,,13,,71,0
8325,note_on,0,0,0,,,,,,,,,5,,71,0
8325,note_on,0,0,0,,,,,,,,,0,,71,0
8325,note_on,0,0,0,,,,,,,,,3,,71,0
8325,note_on,0,0,0,,,,,,,,,0,,73,100
8325,note_on,0,0,0,,,,,,,,,3,,73,100
8325,note_on,0,0,0,,,,,,,,,5,,73,100
8325,note_on,0,0,0,,,,,,,,,13,,73,100
8340,note_on,15,0,0,,,,,,,,,13,,73,0
8340,note_on,0,0,0,,,,,,,,,5,,73,0
8340,note_on,0,0,0,,,,,,,,,0,,73,0
8340,note_on,0,0,0,,,,,,,,,3,,73,0
8340,note_on,0,0,0,,,,,,,,,0,,74,100
8340,note_on,0,0,0,,,,,,,,,3,,74,100
8340,note_on,0,0,0,,,,,,,,,5,,74,100
8340,note_on,0,0,0,,,,,,,,,13,,74,100
8355,note_on,15,0,0,,,,,,,,,13,,74,0
8355,note_on,0,0,0,,,,,,,,,8,,61,0
8355,note_on,0,0,0,,,,,,,,,6,,69,0
8355,note_on,0,0,0,,,,,,,,,15,,61,0
8355,note_on,0,0,0,,,,,,,,,0,,61,0
8355,note_on,0,0,0,,,,,,,,,10,,49,0
8355,note_on,0,0,0,,,,,,,,,3,,61,0
8355,note_on,0,0,0,,,,,,,,,14,,61,0
8355,note_on,0,0,0,,,,,,,,,3,,74,0
8355,note_on,0,0,0,,,,,,,,,0,,74,0
8355,note_on,0,0,0,,,,,,,,,5,,74,0
8355,note_on,0,0,0,,,,,,,,,0,,76,100
8355,note_on,0,0,0,,,,,,,,,3,,76,100
8355,note_on,0,0,0,,,,,,,,,5,,76,100
8355,note_on,0,0,0,,,,,,,,,13,,76,100
8370,note_on,15,0,0,,,,,,,,,13,,76,0
8370,note_on,0,0,0,,,,,,,,,3,,76,0
8370,note_on,0,0,0,,,,,,,,,15,,64,0
8370,note_on,0,0,0,,,,,,,,,15,,69,0
8370,note_on,0,0,0,,,,,,,,,15,,76,0
8370,note_on,0,0,0,,,,,,,,,5,,76,0
8370,note_on,0,0,0,,,,,,,,,0,,76,0
8370,note_on,0,0,0,,,,,,,,,0,,78,100
8370,note_on,0,0,0,,,,,,,,,3,,78,100
8370,note_on,0,0,0,,,,,,,,,5,,78,100
8370,note_on,0,0,0,,,,,,,,,13,,78,100
8380,note_on,10,0,0,,,,,,,,,0,,59,100
8380,note_on,0,0,0,,,,,,,,,3,,59,100
8380,note_on,0,0,0,,,,,,,,,6,,68,100
8380,note_on,0,0,0,,,,,,,,,8,,59,100
8380,note_on,0,0,0,,,,,,,,,10,,47,100
8380,note_on,0,0,0,,,,,,,,,14,,59,100
8380,note_on,0,0,0,,,,,,,,,15,,59,100
8385,note_on,5,0,0,,,,,,,,,13,,78,0
8385,note_on,0,0,0,,,,,,,,,5,,78,0
8385,note_on,0,0,0,,,,,,,,,0,,78,0
8385,note_on,0,0,0,,,,,,,,,3,,78,0
8385,note_on,0,0,0,,,,,,,,,0,,80,100
8385,note_on,0,0,0,,,,,,,,,3,,80,100
8385,note_on,0,0,0,,,,,,,,,5,,80,100
8385,note_on,0,0,0,,,,,,,,,13,,80,100
8395,note_on,10,0,0,,,,,,,,,8,,59,0
8395,note_on,0,0,0,,,,,,,,,0,,59,0
8395,note_on,0,0,0,,,,,,,,,14,,59,0
8395,note_on,0,0,0,,,,,,,,,15,,59,0
8395,note_on,0,0,0,,,,,,,,,10,,47,0
8395,note_on,0,0,0,,,,,,,,,3,,59,0
8400,note_on,5,0,0,,,,,,,,,0,,80,0
8400,note_on,0,0,0,,,,,,,,,5,,80,0
8400,note_on,0,0,0,,,,,,,,,13,,80,0
8400,note_on,0,0,0,,,,,,,,,6,,68,0
8400,note_on,0,0,0,,,,,,,,,3,,80,0
8400,note_on,0,0,0,,,,,,,,,0,,81,100
8400,note_on,0,0,0,,,,,,,,,0,,57,100
8400,note_on,0,0,0,,,,,,,,,3,,81,100
8400,note_on,0,0,0,,,,,,,,,3,,57,100
8400,note_on,0,0,0,,,,,,,,,5,,81,100
8400,note_on,0,0,0,,,,,,,,,6,,73,100
8400,note_on,0,0,0,,,,,,,,,8,,57,100
8400,note_on,0,0,0,,,,,,,,,10,,45,100
8400,note_on,0,0,0,,,,,,,,,13,,81,100
8400,note_on,0,0,0,,,,,,,,,14,,57,100
8400,note_on,0,0,0,,,,,,,,,15,,64,100
8400,note_on,0,0,0,,,,,,,,,15,,69,100
8400,note_on,0,0,0,,,,,,,,,15,,73,100
8400,note_on,0,0,0,,,,,,,,,15,,57,100
8475,note_on,75,0,0,,,,,,,,,15,,57,0
8475,note_on,0,0,0,,,,,,,,,0,,57,0
8475,note_on,0,0,0,,,,,,,,,13,,81,0
8475,note_on,0,0,0,,,,,,,,,8,,57,0
8475,note_on,0,0,0,,,,,,,,,0,,81,0
8475,note_on,0,0,0,,,,,,,,,3,,81,0
8475,note_on,0,0,0,,,,,,,,,3,,57,0
8475,note_on,0,0,0,,,,,,,,,10,,45,0
8475,note_on,0,0,0,,,,,,,,,5,,81,0
8475,note_on,0,0,0,,,,,,,,,14,,57,0
8480,note_on,5,0,0,,,,,,,,,6,,73,0
8500,note_on,20,0,0,,,,,,,,,0,,81,100
8500,note_on,0,0,0,,,,,,,,,0,,56,100
8500,note_on,0,0,0,,,,,,,,,3,,81,100
8500,note_on,0,0,0,,,,,,,,,3,,56,100
8500,note_on,0,0,0,,,,,,,,,5,,81,100
8500,note_on,0,0,0,,,,,,,,,6,,71,100
8500,note_on,0,0,0,,,,,,,,,8,,56,100
8500,note_on,0,0,0,,,,,,,,,10,,44,100
8500,note_on,0,0,0,,,,,,,,,13,,81,100
8500,note_on,0,0,0,,,,,,,,,14,,56,100
8500,note_on,0,0,0,,,,,,,,,15,,56,100
8515,note_on,15,0,0,,,,,,,,,15,,56,0
8515,note_on,0,0,0,,,,,,,,,0,,56,0
8515,note_on,0,0,0,,,,,,,,,3,,81,0
8515,note_on,0,0,0,,,,,,,,,8,,56,0
8515,note_on,0,0,0,,,,,,,,,3,,56,0
8515,note_on,0,0,0,,,,,,,,,0,,81,0
8515,note_on,0,0,0,,,,,,,,,5,,81,0
8515,note_on,0,0,0,,,,,,,,,14,,56,0
8515,note_on,0,0,0,,,,,,,,,13,,81,0
8515,note_on,0,0,0,,,,,,,,,10,,44,0
8520,note_on,5,0,0,,,,,,,,,6,,71,0
8520,note_on,0,0,0,,,,,,,,,0,,81,100
8520,note_on,0,0,0,,,,,,,,,0,,54,100
8520,note_on,0,0,0,,,,,,,,,3,,81,100
8520,note_on,0,0,0,,,,,,,,,3,,54,100
8520,note_on,0,0,0,,,,,,,,,5,,81,100
8520,note_on,0,0,0,,,,,,,,,6,,69,100
8520,note_on,0,0,0,,,,,,,,,8,,54,100
8520,note_on,0,0,0,,,,,,,,,10,,42,100
8520,note_on,0,0,0,,,,,,,,,13,,81,100
8520,note_on,0,0,0,,,,,,,,,14,,54,100
8520,note_on,0,0,0,,,,,,,,,15,,54,100
8595,note_on,75,0,0,,,,,,,,,15,,54,0
8595,note_on,0,0,0,,,,,,,,,0,,54,0
8595,note_on,0,0,0,,,,,,,,,3,,81,0
8595,note_on,0,0,0,,,,,,,,,8,,54,0
8595,note_on,0,0,0,,,,,,,,,3,,54,0
8595,note_on,0,0,0,,,,,,,,,0,,81,0
8595,note_on,0,0,0,,,,,,,,,5,,81,0
8595,note_on,0,0,0,,,,,,,,,14,,54,0
8595,note_on,0,0,0,,,,,,,,,13,,81,0
8595,note_on,0,0,0,,,,,,,,,10,,42,0
8600,note_on,5,0,0,,,,,,,,,6,,69,0
8610,note_on,10,0,0,,,,,,,,,15,,73,0
8610,note_on,0,0,0,,,,,,,,,15,,64,0
8610,note_on,0,0,0,,,,,,,,,15,,69,0
8620,note_on,10,0,0,,,,,,,,,0,,81,100
8620,note_on,0,0,0,,,,,,,,,0,,52,100
8620,note_on,0,0,0,,,,,,,,,3,,81,100
8620,note_on,0,0,0,,,,,,,,,3,,52,100
8620,note_on,0,0,0,,,,,,,,,5,,81,100
8620,note_on,0,0,0,,,,,,,,,6,,68,100
8620,note_on,0,0,0,,,,,,,,,8,,52,100
8620,note_on,0,0,0,,,,,,,,,10,,40,100
8620,note_on,0,0,0,,,,,,,,,13,,81,100
8620,note_on,0,0,0,,,,,,,,,14,,52,100
8620,note_on,0,0,0,,,,,,,,,15,,52,100
8635,note_on,15,0,0,,,,,,,,,15,,52,0
8635,note_on,0,0,0,,,,,,,,,10,,40,0
8635,note_on,0,0,0,,,,,,,,,3,,81,0
8635,note_on,0,0,0,,,,,,,,,3,,52,0
8635,note_on,0,0,0,,,,,,,,,0,,81,0
8635,note_on,0,0,0,,,,,,,,,0,,52,0
8635,note_on,0,0,0,,,,,,,,,14,,52,0
8635,note_on,0,0,0,,,,,,,,,13,,81,0
8635,note_on,0,0,0,,,,,,,,,8,,52,0
8635,note_on,0,0,0,,,,,,,,,5,,81,0
8640,note_on,5,0,0,,,,,,,,,6,,68,0
8640,note_on,0,0,0,,,,,,,,,0,,81,100
8640,note_on,0,0,0,,,,,,,,,0,,51,100
8640,note_on,0,0,0,,,,,,,,,3,,81,100
8640,note_on,0,0,0,,,,,,,,,3,,51,100
8640,note_on,0,0,0,,,,,,,,,5,,81,100
8640,note_on,0,0,0,,,,,,,,,6,,66,100
8640,note_on,0,0,0,,,,,,,,,8,,51,100
8640,note_on,0,0,0,,,,,,,,,10,,39,100
8640,note_on,0,0,0,,,,,,,,,13,,81,100
8640,note_on,0,0,0,,,,,,,,,14,,51,100
8640,note_on,0,0,0,,,,,,,,,15,,66,100
8640,note_on,0,0,0,,,,,,,,,15,,71,100
8640,note_on,0,0,0,,,,,,,,,15,,59,100
8640,note_on,0,0,0,,,,,,,,,15,,51,100
8715,note_on,75,0,0,,,,,,,,,15,,51,0
8715,note_on,0,0,0,,,,,,,,,10,,39,0
8715,note_on,0,0,0,,,,,,,,,0,,51,0
8715,note_on,0,0,0,,,,,,,,,8,,51,0
8715,note_on,0,0,0,,,,,,,,,14,,51,0
8715,note_on,0,0,0,,,,,,,,,3,,51,0
8730,note_on,15,0,0,,,,,,,,,15,,71,0
8730,note_on,0,0,0,,,,,,,,,15,,66,0
8730,note_on,0,0,0,,,,,,,,,15,,59,0
8740,note_on,10,0,0,,,,,,,,,0,,54,100
8740,note_on,0,0,0,,,,,,,,,3,,54,100
8740,note_on,0,0,0,,,,,,,,,8,,54,100
8740,note_on,0,0,0,,,,,,,,,10,,42,100
8740,note_on,0,0,0,,,,,,,,,14,,54,100
8740,note_on,0,0,0,,,,,,,,,15,,54,100
8755,note_on,15,0,0,,,,,,,,,15,,54,0
8755,note_on,0,0,0,,,,,,,,,8,,54,0
8755,note_on,0,0,0,,,,,,,,,14,,54,0
8755,note_on,0,0,0,,,,,,,,,3,,54,0
8755,note_on,0,0,0,,,,,,,,,10,,42,0
8755,note_on,0,0,0,,,,,,,,,0,,54,0
8760,note_on,5,0,0,,,,,,,,,0,,47,100
8760,note_on,0,0,0,,,,,,,,,3,,47,100
8760,note_on,0,0,0,,,,,,,,,8,,47,100
8760,note_on,0,0,0,,,,,,,,,10,,35,100
8760,note_on,0,0,0,,,,,,,,,14,,47,100
8760,note_on,0,0,0,,,,,,,,,15,,71,100
8760,note_on,0,0,0,,,,,,,,,15,,66,100
8760,note_on,0,0,0,,,,,,,,,15,,63,100
8760,note_on,0,0,0,,,,,,,,,15,,47,100
8830,note_on,70,0,0,,,,,,,,,3,,81,0
8830,note_on,0,0,0,,,,,,,,,6,,66,0
8830,note_on,0,0,0,,,,,,,,,13,,81,0
8830,note_on,0,0,0,,,,,,,,,0,,81,0
8830,note_on,0,0,0,,,,,,,,,5,,81,0
8850,note_on,20,0,0,,,,,,,,,3,,47,0
8850,note_on,0,0,0,,,,,,,,,8,,47,0
8850,note_on,0,0,0,,,,,,,,,10,,35,0
8850,note_on,0,0,0,,,,,,,,,15,,47,0
8850,note_on,0,0,0,,,,,,,,,14,,47,0
8850,note_on,0,0,0,,,,,,,,,0,,47,0
8860,note_on,10,0,0,,,,,,,,,0,,69,100
8860,note_on,0,0,0,,,,,,,,,3,,69,100
8860,note_on,0,0,0,,,,,,,,,5,,69,100
8860,note_on,0,0,0,,,,,,,,,6,,66,100
8860,note_on,0,0,0,,,,,,,,,13,,69,100
8875,note_on,15,0,0,,,,,,,,,13,,69,0
8875,note_on,0,0,0,,,,,,,,,5,,69,0
8875,note_on,0,0,0,,,,,,,,,0,,69,0
8875,note_on,0,0,0,,,,,,,,,3,,69,0
8880,note_on,5,0,0,,,,,,,,,15,,63,0
8880,note_on,0,0,0,,,,,,,,,6,,66,0
8880,note_on,0,0,0,,,,,,,,,15,,66,0
8880,note_on,0,0,0,,,,,,,,,0,,68,100
8880,note_on,0,0,0,,,,,,,,,3,,68,100
8880,note_on,0,0,0,,,,,,,,,5,,68,100
8880,note_on,0,0,0,,,,,,,,,6,,64,100
8880,note_on,0,0,0,,,,,,,,,13,,68,100
8880,note_on,0,0,0,,,,,,,,,15,,64,100
8880,note_on,0,0,0,,,,,,,,,15,,68,100
8970,note_on,90,0,0,,,,,,,,,13,,68,0
8970,note_on,0,0,0,,,,,,,,,3,,68,0
8970,note_on,0,0,0,,,,,,,,,5,,68,0
8970,note_on,0,0,0,,,,,,,,,0,,68,0
8980,note_on,10,0,0,,,,,,,,,0,,59,100
8980,note_on,0,0,0,,,,,,,,,3,,59,100
8980,note_on,0,0,0,,,,,,,,,8,,59,100
8980,note_on,0,0,0,,,,,,,,,10,,47,100
8980,note_on,0,0,0,,,,,,,,,14,,59,100
8980,note_on,0,0,0,,,,,,,,,15,,59,100
8995,note_on,15,0,0,,,,,,,,,15,,59,0
8995,note_on,0,0,0,,,,,,,,,14,,59,0
8995,note_on,0,0,0,,,,,,,,,8,,59,0
8995,note_on,0,0,0,,,,,,,,,10,,47,0
8995,note_on,0,0,0,,,,,,,,,0,,59,0
8995,note_on,0,0,0,,,,,,,,,3,,59,0
9000,note_on,5,0,0,,,,,,,,,0,,47,100
9000,note_on,0,0,0,,,,,,,,,3,,47,100
9000,note_on,0,0,0,,,,,,,,,8,,47,100
9000,note_on,0,0,0,,,,,,,,,10,,35,100
9000,note_on,0,0,0,,,,,,,,,14,,47,100
9000,note_on,0,0,0,,,,,,,,,15,,47,100
9050,note_on,50,0,0,,,,,,,,,6,,64,0
9090,note_on,40,0,0,,,,,,,,,15,,71,0
9090,note_on,0,0,0,,,,,,,,,0,,47,0
9090,note_on,0,0,0,,,,,,,,,15,,68,0
9090,note_on,0,0,0,,,,,,,,,3,,47,0
9090,note_on,0,0,0,,,,,,,,,15,,64,0
9090,note_on,0,0,0,,,,,,,,,14,,47,0
9090,note_on,0,0,0,,,,,,,,,10,,35,0
9090,note_on,0,0,0,,,,,,,,,8,,47,0
9090,note_on,0,0,0,,,,,,,,,15,,47,0
9100,note_on,10,0,0,,,,,,,,,0,,80,100
9100,note_on,0,0,0,,,,,,,,,3,,80,100
9100,note_on,0,0,0,,,,,,,,,5,,80,100
9100,note_on,0,0,0,,,,,,,,,6,,76,100
9100,note_on,0,0,0,,,,,,,,,13,,80,100
9115,note_on,15,0,0,,,,,,,,,13,,80,0
9115,note_on,0,0,0,,,,,,,,,0,,80,0
9115,note_on,0,0,0,,,,,,,,,5,,80,0
9115,note_on,0,0,0,,,,,,,,,3,,80,0
9120,note_on,5,0,0,,,,,,,,,6,,76,0
9120,note_on,0,0,0,,,,,,,,,0,,78,100
9120,note_on,0,0,0,,,,,,,,,3,,78,100
9120,note_on,0,0,0,,,,,,,,,5,,78,100
9120,note_on,0,0,0,,,,,,,,,6,,75,100
9120,note_on,0,0,0,,,,,,,,,13,,78,100
9120,note_on,0,0,0,,,,,,,,,15,,63,100
9120,note_on,0,0,0,,,,,,,,,15,,66,100
9120,note_on,0,0,0,,,,,,,,,15,,71,100
9210,note_on,90,0,0,,,,,,,,,13,,78,0
9210,note_on,0,0,0,,,,,,,,,5,,78,0
9210,note_on,0,0,0,,,,,,,,,0,,78,0
9210,note_on,0,0,0,,,,,,,,,3,,78,0
9220,note_on,10,0,0,,,,,,,,,0,,57,100
9220,note_on,0,0,0,,,,,,,,,3,,57,100
9220,note_on,0,0,0,,,,,,,,,8,,57,100
9220,note_on,0,0,0,,,,,,,,,10,,45,100
9220,note_on,0,0,0,,,,,,,,,14,,57,100
9220,note_on,0,0,0,,,,,,,,,15,,57,100
9235,note_on,15,0,0,,,,,,,,,15,,57,0
9235,note_on,0,0,0,,,,,,,,,14,,57,0
9235,note_on,0,0,0,,,,,,,,,8,,57,0
9235,note_on,0,0,0,,,,,,,,,10,,45,0
9235,note_on,0,0,0,,,,,,,,,0,,57,0
9235,note_on,0,0,0,,,,,,,,,3,,57,0
9240,note_on,5,0,0,,,,,,,,,0,,47,100
9240,note_on,0,0,0,,,,,,,,,3,,47,100
9240,note_on,0,0,0,,,,,,,,,8,,47,100
9240,note_on,0,0,0,,,,,,,,,10,,35,100
9240,note_on,0,0,0,,,,,,,,,14,,47,100
9240,note_on,0,0,0,,,,,,,,,15,,47,100
9290,note_on,50,0,0,,,,,,,,,6,,75,0
9330,note_on,40,0,0,,,,,,,,,15,,71,0
9330,note_on,0,0,0,,,,,,,,,0,,47,0
9330,note_on,0,0,0,,,,,,,,,15,,66,0
9330,note_on,0,0,0,,,,,,,,,3,,47,0
9330,note_on,0,0,0,,,,,,,,,15,,63,0
9330,note_on,0,0,0,,,,,,,,,14,,47,0
9330,note_on,0,0,0,,,,,,,,,10,,35,0
9330,note_on,0,0,0,,,,,,,,,8,,47,0
9330,note_on,0,0,0,,,,,,,,,15,,47,0
9340,note_on,10,0,0,,,,,,,,,0,,66,100
9340,note_on,0,0,0,,,,,,,,,3,,66,100
9340,note_on,0,0,0,,,,,,,,,5,,66,100
9340,note_on,0,0,0,,,,,,,,,6,,63,100
9340,note_on,0,0,0,,,,,,,,,13,,66,100
9355,note_on,15,0,0,,,,,,,,,13,,66,0
9355,note_on,0,0,0,,,,,,,,,0,,66,0
9355,note_on,0,0,0,,,,,,,,,5,,66,0
9355,note_on,0,0,0,,,,,,,,,3,,66,0
9360,note_on,5,0,0,,,,,,,,,6,,63,0
9360,note_on,0,0,0,,,,,,,,,0,,64,100
9360,note_on,0,0,0,,,,,,,,,3,,64,100
9360,note_on,0,0,0,,,,,,,,,5,,64,100
9360,note_on,0,0,0,,,,,,,,,6,,59,100
9360,note_on,0,0,0,,,,,,,,,13,,64,100
9360,note_on,0,0,0,,,,,,,,,15,,71,100
9360,note_on,0,0,0,,,,,,,,,15,,68,100
9360,note_on,0,0,0,,,,,,,,,15,,64,100
9450,note_on,90,0,0,,,,,,,,,13,,64,0
9450,note_on,0,0,0,,,,,,,,,5,,64,0
9450,note_on,0,0,0,,,,,,,,,0,,64,0
9450,note_on,0,0,0,,,,,,,,,3,,64,0
9460,note_on,10,0,0,,,,,,,,,0,,56,100
9460,note_on,0,0,0,,,,,,,,,3,,56,100
9460,note_on,0,0,0,,,,,,,,,8,,56,100
9460,note_on,0,0,0,,,,,,,,,10,,44,100
9460,note_on,0,0,0,,,,,,,,,14,,56,100
9460,note_on,0,0,0,,,,,,,,,15,,56,100
9475,note_on,15,0,0,,,,,,,,,15,,56,0
9475,note_on,0,0,0,,,,,,,,,14,,56,0
9475,note_on,0,0,0,,,,,,,,,8,,56,0
9475,note_on,0,0,0,,,,,,,,,10,,44,0
9475,note_on,0,0,0,,,,,,,,,0,,56,0
9475,note_on,0,0,0,,,,,,,,,3,,56,0
9480,note_on,5,0,0,,,,,,,,,0,,47,100
9480,note_on,0,0,0,,,,,,,,,3,,47,100
9480,note_on,0,0,0,,,,,,,,,8,,47,100
9480,note_on,0,0,0,,,,,,,,,10,,35,100
9480,note_on,0,0,0,,,,,,,,,14,,47,100
9480,note_on,0,0,0,,,,,,,,,15,,47,100
9530,note_on,50,0,0,,,,,,,,,6,,59,0
9570,note_on,40,0,0,,,,,,,,,15,,64,0
9570,note_on,0,0,0,,,,,,,,,0,,47,0
9570,note_on,0,0,0,,,,,,,,,15,,68,0
9570,note_on,0,0,0,,,,,,,,,3,,47,0
9570,note_on,0,0,0,,,,,,,,,15,,71,0
9570,note_on,0,0,0,,,,,,,,,14,,47,0
9570,note_on,0,0,0,,,,,,,,,10,,35,0
9570,note_on,0,0,0,,,,,,,,,8,,47,0
9570,note_on,0,0,0,,,,,,,,,15,,47,0
9580,note_on,10,0,0,,,,,,,,,0,,76,100
9580,note_on,0,0,0,,,,,,,,,3,,76,100
9580,note_on,0,0,0,,,,,,,,,5,,76,100
9580,note_on,0,0,0,,,,,,,,,6,,68,100
9580,note_on,0,0,0,,,,,,,,,13,,76,100
9595,note_on,15,0,0,,,,,,,,,13,,76,0
9595,note_on,0,0,0,,,,,,,,,0,,76,0
9595,note_on,0,0,0,,,,,,,,,5,,76,0
9595,note_on,0,0,0,,,,,,,,,3,,76,0
9600,note_on,5,0,0,,,,,,,,,6,,68,0
9600,note_on,0,0,0,,,,,,,,,0,,75,100
9600,note_on,0,0,0,,,,,,,,,3,,75,100
9600,note_on,0,0,0,,,,,,,,,5,,75,100
9600,note_on,0,0,0,,,,,,,,,6,,66,100
9600,note_on,0,0,0,,,,,,,,,13,,75,100
9600,note_on,0,0,0,,,,,,,,,15,,69,100
9600,note_on,0,0,0,,,,,,,,,15,,63,100
9600,note_on,0,0,0,,,,,,,,,15,,66,100
9700,note_on,100,0,0,,,,,,,,,0,,47,100
9700,note_on,0,0,0,,,,,,,,,3,,47,100
9700,note_on,0,0,0,,,,,,,,,8,,47,100
9700,note_on,0,0,0,,,,,,,,,10,,35,100
9700,note_on,0,0,0,,,,,,,,,14,,47,100
9700,note_on,0,0,0,,,,,,,,,15,,47,100
9715,note_on,15,0,0,,,,,,,,,15,,47,0
9715,note_on,0,0,0,,,,,,,,,3,,47,0
9715,note_on,0,0,0,,,,,,,,,0,,47,0
9715,note_on,0,0,0,,,,,,,,,14,,47,0
9715,note_on,0,0,0,,,,,,,,,8,,47,0
9715,note_on,0,0,0,,,,,,,,,10,,35,0
9720,note_on,5,0,0,,,,,,,,,0,,45,100
9720,note_on,0,0,0,,,,,,,,,3,,45,100
9720,note_on,0,0,0,,,,,,,,,8,,45,100
9720,note_on,0,0,0,,,,,,,,,10,,33,100
9720,note_on,0,0,0,,,,,,,,,14,,45,100
9720,note_on,0,0,0,,,,,,,,,15,,45,100
9760,note_on,40,0,0,,,,,,,,,0,,75,0
9760,note_on,0,0,0,,,,,,,,,3,,75,0
9760,note_on,0,0,0,,,,,,,,,6,,66,0
9760,note_on,0,0,0,,,,,,,,,5,,75,0
9760,note_on,0,0,0,,,,,,,,,13,,75,0
9810,note_on,50,0,0,,,,,,,,,3,,45,0
9810,note_on,0,0,0,,,,,,,,,0,,45,0
9810,note_on,0,0,0,,,,,,,,,15,,66,0
9810,note_on,0,0,0,,,,,,,,,15,,45,0
9810,note_on,0,0,0,,,,,,,,,14,,45,0
9810,note_on,0,0,0,,,,,,,,,10,,33,0
9810,note_on,0,0,0,,,,,,,,,15,,63,0
9810,note_on,0,0,0,,,,,,,,,8,,45,0
9810,note_on,0,0,0,,,,,,,,,15,,69,0
9820,note_on,10,0,0,,,,,,,,,0,,66,100
9820,note_on,0,0,0,,,,,,,,,3,,66,100
9820,note_on,0,0,0,,,,,,,,,5,,66,100
9820,note_on,0,0,0,,,,,,,,,6,,63,100
9820,note_on,0,0,0,,,,,,,,,13,,66,100
9835,note_on,15,0,0,,,,,,,,,13,,66,0
9835,note_on,0,0,0,,,,,,,,,5,,66,0
9835,note_on,0,0,0,,,,,,,,,0,,66,0
9835,note_on,0,0,0,,,,,,,,,3,,66,0
9835,note_on,0,0,0,,,,,,,,,6,,63,0
9840,note_on,5,0,0,,,,,,,,,0,,44,100
9840,note_on,0,0,0,,,,,,,,,0,,71,100
9840,note_on,0,0,0,,,,,,,,,3,,44,100
9840,note_on,0,0,0,,,,,,,,,3,,71,100
9840,note_on,0,0,0,,,,,,,,,5,,71,100
9840,note_on,0,0,0,,,,,,,,,6,,59,100
9840,note_on,0,0,0,,,,,,,,,8,,44,100
9840,note_on,0,0,0,,,,,,,,,10,,32,100
9840,note_on,0,0,0,,,,,,,,,13,,71,100
9840,note_on,0,0,0,,,,,,,,,14,,44,100
9840,note_on,0,0,0,,,,,,,,,15,,59,100
9840,note_on,0,0,0,,,,,,,,,15,,64,100
9840,note_on,0,0,0,,,,,,,,,15,,71,100
9840,note_on,0,0,0,,,,,,,,,15,,44,100
9930,note_on,90,0,0,,,,,,,,,15,,44,0
9930,note_on,0,0,0,,,,,,,,,0,,71,0
9930,note_on,0,0,0,,,,,,,,,13,,71,0
9930,note_on,0,0,0,,,,,,,,,8,,44,0
9930,note_on,0,0,0,,,,,,,,,0,,44,0
9930,note_on,0,0,0,,,,,,,,,3,,44,0
9930,note_on,0,0,0,,,,,,,,,3,,71,0
9930,note_on,0,0,0,,,,,,,,,10,,32,0
9930,note_on,0,0,0,,,,,,,,,5,,71,0
9930,note_on,0,0,0,,,,,,,,,14,,44,0
9930,note_on,0,0,0,,,,,,,,,0,,64,100
9930,note_on,0,0,0,,,,,,,,,3,,64,100
9930,note_on,0,0,0,,,,,,,,,5,,64,100
9930,note_on,0,0,0,,,,,,,,,13,,64,100
9940,note_on,10,0,0,,,,,,,,,6,,59,0
9950,note_on,10,0,0,,,,,,,,,13,,64,0
9950,note_on,0,0,0,,,,,,,,,3,,64,0
9950,note_on,0,0,0,,,,,,,,,0,,64,0
9950,note_on,0,0,0,,,,,,,,,5,,64,0
9960,note_on,10,0,0,,,,,,,,,0,,42,100
9960,note_on,0,0,0,,,,,,,,,0,,63,100
9960,note_on,0,0,0,,,,,,,,,3,,42,100
9960,note_on,0,0,0,,,,,,,,,3,,63,100
9960,note_on,0,0,0,,,,,,,,,5,,63,100
9960,note_on,0,0,0,,,,,,,,,6,,57,100
9960,note_on,0,0,0,,,,,,,,,8,,42,100
9960,note_on,0,0,0,,,,,,,,,10,,30,100
9960,note_on,0,0,0,,,,,,,,,13,,63,100
9960,note_on,0,0,0,,,,,,,,,14,,42,100
9960,note_on,0,0,0,,,,,,,,,15,,42,100
10050,note_on,90,0,0,,,,,,,,,15,,42,0
10050,note_on,0,0,0,,,,,,,,,0,,63,0
10050,note_on,0,0,0,,,,,,,,,3,,42,0
10050,note_on,0,0,0,,,,,,,,,15,,71,0
10050,note_on,0,0,0,,,,,,,,,3,,63,0
10050,note_on,0,0,0,,,,,,,,,15,,59,0
10050,note_on,0,0,0,,,,,,,,,8,,42,0
10050,note_on,0,0,0,,,,,,,,,0,,42,0
10050,note_on,0,0,0,,,,,,,,,13,,63,0
10050,note_on,0,0,0,,,,,,,,,10,,30,0
10050,note_on,0,0,0,,,,,,,,,5,,63,0
10050,note_on,0,0,0,,,,,,,,,15,,64,0
10050,note_on,0,0,0,,,,,,,,,14,,42,0
10050,note_on,0,0,0,,,,,,,,,0,,71,100
10050,note_on,0,0,0,,,,,,,,,3,,71,100
10050,note_on,0,0,0,,,,,,,,,5,,71,100
10050,note_on,0,0,0,,,,,,,,,13,,71,100
10060,note_on,10,0,0,,,,,,,,,6,,57,0
10070,note_on,10,0,0,,,,,,,,,5,,71,0
10070,note_on,0,0,0,,,,,,,,,0,,71,0
10070,note_on,0,0,0,,,,,,,,,3,,71,0
10070,note_on,0,0,0,,,,,,,,,13,,71,0
10080,note_on,10,0,0,,,,,,,,,0,,44,100
10080,note_on,0,0,0,,,,,,,,,0,,71,100
10080,note_on,0,0,0,,,,,,,,,3,,44,100
10080,note_on,0,0,0,,,,,,,,,3,,71,100
10080,note_on,0,0,0,,,,,,,,,5,,71,100
10080,note_on,0,0,0,,,,,,,,,6,,59,100
10080,note_on,0,0,0,,,,,,,,,8,,44,100
10080,note_on,0,0,0,,,,,,,,,10,,32,100
10080,note_on,0,0,0,,,,,,,,,13,,71,100
10080,note_on,0,0,0,,,,,,,,,14,,44,100
10080,note_on,0,0,0,,,,,,,,,15,,59,100
10080,note_on,0,0,0,,,,,,,,,15,,64,100
10080,note_on,0,0,0,,,,,,,,,15,,68,100
10080,note_on,0,0,0,,,,,,,,,15,,44,100
10170,note_on,90,0,0,,,,,,,,,15,,44,0
10170,note_on,0,0,0,,,,,,,,,0,,71,0
10170,note_on,0,0,0,,,,,,,,,13,,71,0
10170,note_on,0,0,0,,,,,,,,,8,,44,0
10170,note_on,0,0,0,,,,,,,,,0,,44,0
10170,note_on,0,0,0,,,,,,,,,3,,44,0
10170,note_on,0,0,0,,,,,,,,,3,,71,0
10170,note_on,0,0,0,,,,,,,,,10,,32,0
10170,note_on,0,0,0,,,,,,,,,5,,71,0
10170,note_on,0,0,0,,,,,,,,,14,,44,0
10170,note_on,0,0,0,,,,,,,,,0,,64,100
10170,note_on,0,0,0,,,,,,,,,3,,64,100
10170,note_on,0,0,0,,,,,,,,,5,,64,100
10170,note_on,0,0,0,,,,,,,,,13,,64,100
10180,note_on,10,0,0,,,,,,,,,6,,59,0
10185,note_on,5,0,0,,,,,,,,,15,,68,0
10185,note_on,0,0,0,,,,,,,,,15,,59,0
10185,note_on,0,0,0,,,,,,,,,15,,64,0
10190,note_on,5,0,0,,,,,,,,,0,,64,0
10190,note_on,0,0,0,,,,,,,,,13,,64,0
10190,note_on,0,0,0,,,,,,,,,3,,64,0
10190,note_on,0,0,0,,,,,,,,,5,,64,0
10200,note_on,10,0,0,,,,,,,,,0,,42,100
10200,note_on,0,0,0,,,,,,,,,0,,63,100
10200,note_on,0,0,0,,,,,,,,,3,,42,100
10200,note_on,0,0,0,,,,,,,,,3,,63,100
10200,note_on,0,0,0,,,,,,,,,5,,63,100
10200,note_on,0,0,0,,,,,,,,,6,,57,100
10200,note_on,0,0,0,,,,,,,,,8,,42,100
10200,note_on,0,0,0,,,,,,,,,10,,30,100
10200,note_on,0,0,0,,,,,,,,,13,,63,100
10200,note_on,0,0,0,,,,,,,,,14,,42,100
10200,note_on,0,0,0,,,,,,,,,15,,59,100
10200,note_on,0,0,0,,,,,,,,,15,,63,100
10200,note_on,0,0,0,,,,,,,,,15,,69,100
10200,note_on,0,0,0,,,,,,,,,15,,42,100
10290,note_on,90,0,0,,,,,,,,,15,,42,0
10290,note_on,0,0,0,,,,,,,,,0,,63,0
10290,note_on,0,0,0,,,,,,,,,13,,63,0
10290,note_on,0,0,0,,,,,,,,,8,,42,0
10290,note_on,0,0,0,,,,,,,,,0,,42,0
10290,note_on,0,0,0,,,,,,,,,3,,42,0
10290,note_on,0,0,0,,,,,,,,,3,,63,0
10290,note_on,0,0,0,,,,,,,,,10,,30,0
10290,note_on,0,0,0,,,,,,,,,5,,63,0
10290,note_on,0,0,0,,,,,,,,,14,,42,0
10290,note_on,0,0,0,,,,,,,,,0,,71,100
10290,note_on,0,0,0,,,,,,,,,3,,71,100
10290,note_on,0,0,0,,,,,,,,,5,,71,100
10290,note_on,0,0,0,,,,,,,,,13,,71,100
10300,note_on,10,0,0,,,,,,,,,6,,57,0
10305,note_on,5,0,0,,,,,,,,,15,,69,0
10305,note_on,0,0,0,,,,,,,,,15,,59,0
10305,note_on,0,0,0,,,,,,,,,15,,63,0
10310,note_on,5,0,0,,,,,,,,,0,,71,0
10310,note_on,0,0,0,,,,,,,,,13,,71,0
10310,note_on,0,0,0,,,,,,,,,3,,71,0
10310,note_on,0,0,0,,,,,,,,,5,,71,0
10320,note_on,10,0,0,,,,,,,,,0,,44,100
10320,note_on,0,0,0,,,,,,,,,0,,71,100
10320,note_on,0,0,0,,,,,,,,,3,,44,100
10320,note_on,0,0,0,,,,,,,,,3,,71,100
10320,note_on,0,0,0,,,,,,,,,5,,71,100
10320,note_on,0,0,0,,,,,,,,,6,,59,100
10320,note_on,0,0,0,,,,,,,,,8,,44,100
10320,note_on,0,0,0,,,,,,,,,10,,32,100
10320,note_on,0,0,0,,,,,,,,,13,,71,100
10320,note_on,0,0,0,,,,,,,,,14,,44,100
10320,note_on,0,0,0,,,,,,,,,15,,59,100
10320,note_on,0,0,0,,,,,,,,,15,,64,100
10320,note_on,0,0,0,,,,,,,,,15,,68,100
10320,note_on,0,0,0,,,,,,,,,15,,44,100
10410,note_on,90,0,0,,,,,,,,,15,,44,0
10410,note_on,0,0,0,,,,,,,,,0,,71,0
10410,note_on,0,0,0,,,,,,,,,13,,71,0
10410,note_on,0,0,0,,,,,,,,,8,,44,0
10410,note_on,0,0,0,,,,,,,,,0,,44,0
10410,note_on,0,0,0,,,,,,,,,3,,44,0
10410,note_on,0,0,0,,,,,,,,,3,,71,0
10410,note_on,0,0,0,,,,,,,,,10,,32,0
10410,note_on,0,0,0,,,,,,,,,5,,71,0
10410,note_on,0,0,0,,,,,,,,,14,,44,0
10410,note_on,0,0,0,,,,,,,,,0,,64,100
10410,note_on,0,0,0,,,,,,,,,3,,64,100
10410,note_on,0,0,0,,,,,,,,,5,,64,100
10410,note_on,0,0,0,,,,,,,,,13,,64,100
10420,note_on,10,0,0,,,,,,,,,6,,59,0
10425,note_on,5,0,0,,,,,,,,,15,,68,0
10425,note_on,0,0,0,,,,,,,,,15,,59,0
10425,note_on,0,0,0,,,,,,,,,15,,64,0
10430,note_on,5,0,0,,,,,,,,,0,,64,0
10430,note_on,0,0,0,,,,,,,,,13,,64,0
10430,note_on,0,0,0,,,,,,,,,3,,64,0
10430,note_on,0,0,0,,,,,,,,,5,,64,0
10440,note_on,10,0,0,,,,,,,,,0,,42,100
10440,note_on,0,0,0,,,,,,,,,0,,63,100
10440,note_on,0,0,0,,,,,,,,,3,,42,100
10440,note_on,0,0,0,,,,,,,,,3,,63,100
10440,note_on,0,0,0,,,,,,,,,5,,63,100
10440,note_on,0,0,0,,,,,,,,,6,,57,100
10440,note_on,0,0,0,,,,,,,,,8,,42,100
10440,note_on,0,0,0,,,,,,,,,10,,30,100
10440,note_on,0,0,0,,,,,,,,,13,,63,100
10440,note_on,0,0,0,,,,,,,,,14,,42,100
10440,note_on,0,0,0,,,,,,,,,15,,59,100
10440,note_on,0,0,0,,,,,,,,,15,,63,100
10440,note_on,0,0,0,,,,,,,,,15,,69,100
10440,note_on,0,0,0,,,,,,,,,15,,42,100
10530,note_on,90,0,0,,,,,,,,,15,,42,0
10530,note_on,0,0,0,,,,,,,,,0,,63,0
10530,note_on,0,0,0,,,,,,,,,13,,63,0
10530,note_on,0,0,0,,,,,,,,,8,,42,0
10530,note_on,0,0,0,,,,,,,,,0,,42,0
10530,note_on,0,0,0,,,,,,,,,3,,42,0
10530,note_on,0,0,0,,,,,,,,,3,,63,0
10530,note_on,0,0,0,,,,,,,,,10,,30,0
10530,note_on,0,0,0,,,,,,,,,5,,63,0
10530,note_on,0,0,0,,,,,,,,,14,,42,0
10530,note_on,0,0,0,,,,,,,,,0,,75,100
10530,note_on,0,0,0,,,,,,,,,3,,75,100
10530,note_on,0,0,0,,,,,,,,,5,,75,100
10530,note_on,0,0,0,,,,,,,,,13,,75,100
10540,note_on,10,0,0,,,,,,,,,6,,57,0
10545,note_on,5,0,0,,,,,,,,,15,,69,0
10545,note_on,0,0,0,,,,,,,,,15,,59,0
10545,note_on,0,0,0,,,,,,,,,15,,63,0
10550,note_on,5,0,0,,,,,,,,,0,,75,0
10550,note_on,0,0,0,,,,,,,,,13,,75,0
10550,note_on,0,0,0,,,,,,,,,3,,75,0
10550,note_on,0,0,0,,,,,,,,,5,,75,0
10560,note_on,10,0,0,,,,,,,,,0,,44,100
10560,note_on,0,0,0,,,,,,,,,0,,76,100
10560,note_on,0,0,0,,,,,,,,,3,,44,100
10560,note_on,0,0,0,,,,,,,,,3,,76,100
10560,note_on,0,0,0,,,,,,,,,5,,76,100
10560,note_on,0,0,0,,,,,,,,,6,,59,100
10560,note_on,0,0,0,,,,,,,,,8,,44,100
10560,note_on,0,0,0,,,,,,,,,10,,32,100
10560,note_on,0,0,0,,,,,,,,,13,,76,100
10560,note_on,0,0,0,,,,,,,,,14,,44,100
10560,note_on,0,0,0,,,,,,,,,15,,59,100
10560,note_on,0,0,0,,,,,,,,,15,,64,100
10560,note_on,0,0,0,,,,,,,,,15,,71,100
10560,note_on,0,0,0,,,,,,,,,15,,44,100
10650,note_on,90,0,0,,,,,,,,,15,,44,0
10650,note_on,0,0,0,,,,,,,,,0,,44,0
10650,note_on,0,0,0,,,,,,,,,10,,32,0
10650,note_on,0,0,0,,,,,,,,,8,,44,0
10650,note_on,0,0,0,,,,,,,,,14,,44,0
10650,note_on,0,0,0,,,,,,,,,3,,44,0
10660,note_on,10,0,0,,,,,,,,,6,,59,0
10680,note_on,20,0,0,,,,,,,,,0,,56,100
10680,note_on,0,0,0,,,,,,,,,3,,56,100
10680,note_on,0,0,0,,,,,,,,,6,,71,100
10680,note_on,0,0,0,,,,,,,,,8,,56,100
10680,note_on,0,0,0,,,,,,,,,10,,44,100
10680,note_on,0,0,0,,,,,,,,,14,,56,100
10680,note_on,0,0,0,,,,,,,,,15,,56,100
10720,note_on,40,0,0,,,,,,,,,13,,76,0
10720,note_on,0,0,0,,,,,,,,,0,,76,0
10720,note_on,0,0,0,,,,,,,,,3,,76,0
10720,note_on,0,0,0,,,,,,,,,5,,76,0
10760,note_on,40,0,0,,,,,,,,,0,,75,100
10760,note_on,0,0,0,,,,,,,,,3,,75,100
10760,note_on,0,0,0,,,,,,,,,5,,75,100
10760,note_on,0,0,0,,,,,,,,,13,,75,100
10770,note_on,10,0,0,,,,,,,,,8,,56,0
10770,note_on,0,0,0,,,,,,,,,10,,44,0
10770,note_on,0,0,0,,,,,,,,,3,,56,0
10770,note_on,0,0,0,,,,,,,,,15,,64,0
10770,note_on,0,0,0,,,,,,,,,0,,56,0
10770,note_on,0,0,0,,,,,,,,,15,,59,0
10770,note_on,0,0,0,,,,,,,,,15,,71,0
10770,note_on,0,0,0,,,,,,,,,14,,56,0
10770,note_on,0,0,0,,,,,,,,,15,,56,0
10780,note_on,10,0,0,,,,,,,,,6,,71,0
10790,note_on,10,0,0,,,,,,,,,0,,75,0
10790,note_on,0,0,0,,,,,,,,,3,,75,0
10790,note_on,0,0,0,,,,,,,,,13,,75,0
10790,note_on,0,0,0,,,,,,,,,5,,75,0
10800,note_on,10,0,0,,,,,,,,,0,,57,100
10800,note_on,0,0,0,,,,,,,,,0,,73,100
10800,note_on,0,0,0,,,,,,,,,3,,57,100
10800,note_on,0,0,0,,,,,,,,,3,,73,100
10800,note_on,0,0,0,,,,,,,,,5,,73,100
10800,note_on,0,0,0,,,,,,,,,6,,64,100
10800,note_on,0,0,0,,,,,,,,,8,,57,100
10800,note_on,0,0,0,,,,,,,,,10,,45,100
10800,note_on,0,0,0,,,,,,,,,13,,73,100
10800,note_on,0,0,0,,,,,,,,,14,,57,100
10800,note_on,0,0,0,,,,,,,,,15,,61,100
10800,note_on,0,0,0,,,,,,,,,15,,57,100
10800,note_on,0,0,0,,,,,,,,,15,,68,100
10800,note_on,0,0,0,,,,,,,,,15,,64,100
10840,note_on,40,0,0,,,,,,,,,13,,73,0
10840,note_on,0,0,0,,,,,,,,,5,,73,0
10840,note_on,0,0,0,,,,,,,,,3,,73,0
10840,note_on,0,0,0,,,,,,,,,0,,73,0
10840,note_on,0,0,0,,,,,,,,,0,,71,100
10840,note_on,0,0,0,,,,,,,,,3,,71,100
10840,note_on,0,0,0,,,,,,,,,5,,71,100
10840,note_on,0,0,0,,,,,,,,,13,,71,100
10880,note_on,40,0,0,,,,,,,,,13,,71,0
10880,note_on,0,0,0,,,,,,,,,5,,71,0
10880,note_on,0,0,0,,,,,,,,,0,,71,0
10880,note_on,0,0,0,,,,,,,,,3,,71,0
10880,note_on,0,0,0,,,,,,,,,0,,69,100
10880,note_on,0,0,0,,,,,,,,,3,,69,100
10880,note_on,0,0,0,,,,,,,,,5,,69,100
10880,note_on,0,0,0,,,,,,,,,13,,69,100
10890,note_on,10,0,0,,,,,,,,,14,,57,0
10890,note_on,0,0,0,,,,,,,,,0,,57,0
10890,note_on,0,0,0,,,,,,,,,10,,45,0
10890,note_on,0,0,0,,,,,,,,,8,,57,0
10890,note_on,0,0,0,,,,,,,,,3,,57,0
10890,note_on,0,0,0,,,,,,,,,15,,57,0
10900,note_on,10,0,0,,,,,,,,,6,,64,0
10905,note_on,5,0,0,,,,,,,,,15,,61,0
10905,note_on,0,0,0,,,,,,,,,15,,64,0
10905,note_on,0,0,0,,,,,,,,,15,,68,0
10920,note_on,15,0,0,,,,,,,,,0,,69,0
10920,note_on,0,0,0,,,,,,,,,5,,69,0
10920,note_on,0,0,0,,,,,,,,,13,,69,0
10920,note_on,0,0,0,,,,,,,,,3,,69,0
10920,note_on,0,0,0,,,,,,,,,0,,49,100
10920,note_on,0,0,0,,,,,,,,,0,,68,100
10920,note_on,0,0,0,,,,,,,,,3,,49,100
10920,note_on,0,0,0,,,,,,,,,3,,68,100
10920,note_on,0,0,0,,,,,,,,,5,,68,100
10920,note_on,0,0,0,,,,,,,,,6,,57,100
10920,note_on,0,0,0,,,,,,,,,8,,49,100
10920,note_on,0,0,0,,,,,,,,,10,,37,100
10920,note_on,0,0,0,,,,,,,,,13,,68,100
10920,note_on,0,0,0,,,,,,,,,14,,49,100
10920,note_on,0,0,0,,,,,,,,,15,,57,100
10920,note_on,0,0,0,,,,,,,,,15,,69,100
10920,note_on,0,0,0,,,,,,,,,15,,49,100
10920,note_on,0,0,0,,,,,,,,,15,,64,100
10960,note_on,40,0,0,,,,,,,,,13,,68,0
10960,note_on,0,0,0,,,,,,,,,5,,68,0
10960,note_on,0,0,0,,,,,,,,,3,,68,0
10960,note_on,0,0,0,,,,,,,,,0,,68,0
10960,note_on,0,0,0,,,,,,,,,0,,66,100
10960,note_on,0,0,0,,,,,,,,,3,,66,100
10960,note_on,0,0,0,,,,,,,,,5,,66,100
10960,note_on,0,0,0,,,,,,,,,13,,66,100
11000,note_on,40,0,0,,,,,,,,,13,,66,0
11000,note_on,0,0,0,,,,,,,,,5,,66,0
11000,note_on,0,0,0,,,,,,,,,0,,66,0
11000,note_on,0,0,0,,,,,,,,,3,,66,0
11000,note_on,0,0,0,,,,,,,,,0,,64,100
11000,note_on,0,0,0,,,,,,,,,3,,64,100
11000,note_on,0,0,0,,,,,,,,,5,,64,100
11000,note_on,0,0,0,,,,,,,,,13,,64,100
11010,note_on,10,0,0,,,,,,,,,14,,49,0
11010,note_on,0,0,0,,,,,,,,,0,,49,0
11010,note_on,0,0,0,,,,,,,,,10,,37,0
11010,note_on,0,0,0,,,,,,,,,8,,49,0
11010,note_on,0,0,0,,,,,,,,,3,,49,0
11010,note_on,0,0,0,,,,,,,,,15,,49,0
11020,note_on,10,0,0,,,,,,,,,6,,57,0
11025,note_on,5,0,0,,,,,,,,,15,,64,0
11025,note_on,0,0,0,,,,,,,,,15,,69,0
11025,note_on,0,0,0,,,,,,,,,15,,57,0
11030,note_on,5,0,0,,,,,,,,,5,,64,0
11030,note_on,0,0,0,,,,,,,,,0,,64,0
11030,note_on,0,0,0,,,,,,,,,13,,64,0
11030,note_on,0,0,0,,,,,,,,,3,,64,0
11040,note_on,10,0,0,,,,,,,,,0,,47,100
11040,note_on,0,0,0,,,,,,,,,0,,63,100
11040,note_on,0,0,0,,,,,,,,,3,,47,100
11040,note_on,0,0,0,,,,,,,,,3,,63,100
11040,note_on,0,0,0,,,,,,,,,5,,63,100
11040,note_on,0,0,0,,,,,,,,,6,,57,100
11040,note_on,0,0,0,,,,,,,,,8,,47,100
11040,note_on,0,0,0,,,,,,,,,10,,35,100
11040,note_on,0,0,0,,,,,,,,,13,,63,100
11040,note_on,0,0,0,,,,,,,,,14,,47,100
11040,note_on,0,0,0,,,,,,,,,15,,63,100
11040,note_on,0,0,0,,,,,,,,,15,,66,100
11040,note_on,0,0,0,,,,,,,,,15,,71,100
11040,note_on,0,0,0,,,,,,,,,15,,47,100
11115,note_on,75,0,0,,,,,,,,,15,,47,0
11115,note_on,0,0,0,,,,,,,,,0,,63,0
11115,note_on,0,0,0,,,,,,,,,10,,35,0
11115,note_on,0,0,0,,,,,,,,,3,,47,0
11115,note_on,0,0,0,,,,,,,,,0,,47,0
11115,note_on,0,0,0,,,,,,,,,8,,47,0
11115,note_on,0,0,0,,,,,,,,,14,,47,0
11115,note_on,0,0,0,,,,,,,,,3,,63,0
11120,note_on,5,0,0,,,,,,,,,13,,63,0
11120,note_on,0,0,0,,,,,,,,,5,,63,0
11130,note_on,10,0,0,,,,,,,,,0,,73,100
11130,note_on,0,0,0,,,,,,,,,0,,54,100
11130,note_on,0,0,0,,,,,,,,,3,,73,100
11130,note_on,0,0,0,,,,,,,,,3,,54,100
11130,note_on,0,0,0,,,,,,,,,5,,73,100
11130,note_on,0,0,0,,,,,,,,,8,,54,100
11130,note_on,0,0,0,,,,,,,,,10,,42,100
11130,note_on,0,0,0,,,,,,,,,13,,73,100
11130,note_on,0,0,0,,,,,,,,,14,,54,100
11130,note_on,0,0,0,,,,,,,,,15,,54,100
11140,note_on,10,0,0,,,,,,,,,6,,57,0
11150,note_on,10,0,0,,,,,,,,,0,,54,0
11150,note_on,0,0,0,,,,,,,,,3,,73,0
11150,note_on,0,0,0,,,,,,,,,10,,42,0
11150,note_on,0,0,0,,,,,,,,,5,,73,0
11150,note_on,0,0,0,,,,,,,,,3,,54,0
11150,note_on,0,0,0,,,,,,,,,0,,73,0
11150,note_on,0,0,0,,,,,,,,,8,,54,0
11150,note_on,0,0,0,,,,,,,,,14,,54,0
11150,note_on,0,0,0,,,,,,,,,13,,73,0
11150,note_on,0,0,0,,,,,,,,,15,,54,0
11160,note_on,10,0,0,,,,,,,,,0,,56,100
11160,note_on,0,0,0,,,,,,,,,0,,71,100
11160,note_on,0,0,0,,,,,,,,,3,,56,100
11160,note_on,0,0,0,,,,,,,,,3,,71,100
11160,note_on,0,0,0,,,,,,,,,5,,71,100
11160,note_on,0,0,0,,,,,,,,,6,,56,100
11160,note_on,0,0,0,,,,,,,,,8,,56,100
11160,note_on,0,0,0,,,,,,,,,10,,44,100
11160,note_on,0,0,0,,,,,,,,,13,,71,100
11160,note_on,0,0,0,,,,,,,,,14,,56,100
11160,note_on,0,0,0,,,,,,,,,15,,56,100
11235,note_on,75,0,0,,,,,,,,,15,,56,0
11235,note_on,0,0,0,,,,,,,,,0,,71,0
11235,note_on,0,0,0,,,,,,,,,3,,56,0
11235,note_on,0,0,0,,,,,,,,,8,,56,0
11235,note_on,0,0,0,,,,,,,,,3,,71,0
11235,note_on,0,0,0,,,,,,,,,0,,56,0
11235,note_on,0,0,0,,,,,,,,,5,,71,0
11235,note_on,0,0,0,,,,,,,,,14,,56,0
11235,note_on,0,0,0,,,,,,,,,13,,71,0
11235,note_on,0,0,0,,,,,,,,,10,,44,0
11240,note_on,5,0,0,,,,,,,,,6,,56,0
11250,note_on,10,0,0,,,,,,,,,15,,66,0
11250,note_on,0,0,0,,,,,,,,,15,,63,0
11250,note_on,0,0,0,,,,,,,,,15,,71,0
11250,note_on,0,0,0,,,,,,,,,0,,69,100
11250,note_on,0,0,0,,,,,,,,,0,,57,100
11250,note_on,0,0,0,,,,,,,,,3,,69,100
11250,note_on,0,0,0,,,,,,,,,3,,57,100
11250,note_on,0,0,0,,,,,,,,,5,,69,100
11250,note_on,0,0,0,,,,,,,,,8,,57,100
11250,note_on,0,0,0,,,,,,,,,10,,45,100
11250,note_on,0,0,0,,,,,,,,,13,,69,100
11250,note_on,0,0,0,,,,,,,,,14,,57,100
11250,note_on,0,0,0,,,,,,,,,15,,57,100
11260,note_on,10,0,0,,,,,,,,,6,,64,100
11270,note_on,10,0,0,,,,,,,,,6,,64,0
11270,note_on,0,0,0,,,,,,,,,13,,69,0
11270,note_on,0,0,0,,,,,,,,,3,,69,0
11270,note_on,0,0,0,,,,,,,,,3,,57,0
11270,note_on,0,0,0,,,,,,,,,0,,69,0
11270,note_on,0,0,0,,,,,,,,,5,,69,0
11270,note_on,0,0,0,,,,,,,,,0,,57,0
11270,note_on,0,0,0,,,,,,,,,14,,57,0
11270,note_on,0,0,0,,,,,,,,,10,,45,0
11270,note_on,0,0,0,,,,,,,,,8,,57,0
11270,note_on,0,0,0,,,,,,,,,15,,57,0
11280,note_on,10,0,0,,,,,,,,,0,,59,100
11280,note_on,0,0,0,,,,,,,,,0,,68,100
11280,note_on,0,0,0,,,,,,,,,3,,59,100
11280,note_on,0,0,0,,,,,,,,,3,,68,100
11280,note_on,0,0,0,,,,,,,,,5,,68,100
11280,note_on,0,0,0,,,,,,,,,6,,64,100
11280,note_on,0,0,0,,,,,,,,,8,,59,100
11280,note_on,0,0,0,,,,,,,,,10,,47,100
11280,note_on,0,0,0,,,,,,,,,13,,68,100
11280,note_on,0,0,0,,,,,,,,,14,,59,100
11280,note_on,0,0,0,,,,,,,,,15,,71,100
11280,note_on,0,0,0,,,,,,,,,15,,66,100
11280,note_on,0,0,0,,,,,,,,,15,,64,100
11280,note_on,0,0,0,,,,,,,,,15,,59,100
11370,note_on,90,0,0,,,,,,,,,15,,59,0
11370,note_on,0,0,0,,,,,,,,,0,,59,0
11370,note_on,0,0,0,,,,,,,,,10,,47,0
11370,note_on,0,0,0,,,,,,,,,8,,59,0
11370,note_on,0,0,0,,,,,,,,,14,,59,0
11370,note_on,0,0,0,,,,,,,,,3,,59,0
11380,note_on,10,0,0,,,,,,,,,5,,68,0
11380,note_on,0,0,0,,,,,,,,,13,,68,0
11380,note_on,0,0,0,,,,,,,,,0,,68,0
11380,note_on,0,0,0,,,,,,,,,3,,68,0
11380,note_on,0,0,0,,,,,,,,,6,,64,0
11385,note_on,5,0,0,,,,,,,,,15,,66,0
11385,note_on,0,0,0,,,,,,,,,15,,71,0
11385,note_on,0,0,0,,,,,,,,,15,,64,0
11400,note_on,15,0,0,,,,,,,,,0,,47,100
11400,note_on,0,0,0,,,,,,,,,0,,68,100
11400,note_on,0,0,0,,,,,,,,,3,,47,100
11400,note_on,0,0,0,,,,,,,,,3,,68,100
11400,note_on,0,0,0,,,,,,,,,5,,68,100
11400,note_on,0,0,0,,,,,,,,,6,,63,100
11400,note_on,0,0,0,,,,,,,,,8,,47,100
11400,note_on,0,0,0,,,,,,,,,10,,35,100
11400,note_on,0,0,0,,,,,,,,,13,,68,100
11400,note_on,0,0,0,,,,,,,,,14,,47,100
11400,note_on,0,0,0,,,,,,,,,15,,71,100
11400,note_on,0,0,0,,,,,,,,,15,,66,100
11400,note_on,0,0,0,,,,,,,,,15,,63,100
11400,note_on,0,0,0,,,,,,,,,15,,47,100
11415,note_on,15,0,0,,,,,,,,,13,,68,0
11415,note_on,0,0,0,,,,,,,,,5,,68,0
11415,note_on,0,0,0,,,,,,,,,3,,68,0
11415,note_on,0,0,0,,,,,,,,,0,,68,0
11415,note_on,0,0,0,,,,,,,,,0,,66,100
11415,note_on,0,0,0,,,,,,,,,3,,66,100
11415,note_on,0,0,0,,,,,,,,,5,,66,100
11415,note_on,0,0,0,,,,,,,,,13,,66,100
11430,note_on,15,0,0,,,,,,,,,13,,66,0
11430,note_on,0,0,0,,,,,,,,,5,,66,0
11430,note_on,0,0,0,,,,,,,,,0,,66,0
11430,note_on,0,0,0,,,,,,,,,3,,66,0
11430,note_on,0,0,0,,,,,,,,,0,,68,100
11430,note_on,0,0,0,,,,,,,,,3,,68,100
11430,note_on,0,0,0,,,,,,,,,5,,68,100
11430,note_on,0,0,0,,,,,,,,,13,,68,100
11445,note_on,15,0,0,,,,,,,,,13,,68,0
11445,note_on,0,0,0,,,,,,,,,5,,68,0
11445,note_on,0,0,0,,,,,,,,,0,,68,0
11445,note_on,0,0,0,,,,,,,,,3,,68,0
11445,note_on,0,0,0,,,,,,,,,0,,66,100
11445,note_on,0,0,0,,,,,,,,,3,,66,100
11445,note_on,0,0,0,,,,,,,,,5,,66,100
11445,note_on,0,0,0,,,,,,,,,13,,66,100
11460,note_on,15,0,0,,,,,,,,,13,,66,0
11460,note_on,0,0,0,,,,,,,,,5,,66,0
11460,note_on,0,0,0,,,,,,,,,0,,66,0
11460,note_on,0,0,0,,,,,,,,,3,,66,0
11460,note_on,0,0,0,,,,,,,,,0,,68,100
11460,note_on,0,0,0,,,,,,,,,3,,68,100
11460,note_on,0,0,0,,,,,,,,,5,,68,100
11460,note_on,0,0,0,,,,,,,,,13,,68,100
11475,note_on,15,0,0,,,,,,,,,13,,68,0
11475,note_on,0,0,0,,,,,,,,,5,,68,0
11475,note_on,0,0,0,,,,,,,,,0,,68,0
11475,note_on,0,0,0,,,,,,,,,3,,68,0
11475,note_on,0,0,0,,,,,,,,,0,,66,100
11475,note_on,0,0,0,,,,,,,,,3,,66,100
11475,note_on,0,0,0,,,,,,,,,5,,66,100
11475,note_on,0,0,0,,,,,,,,,13,,66,100
11490,note_on,15,0,0,,,,,,,,,14,,47,0
11490,note_on,0,0,0,,,,,,,,,3,,47,0
11490,note_on,0,0,0,,,,,,,,,10,,35,0
11490,note_on,0,0,0,,,,,,,,,0,,47,0
11490,note_on,0,0,0,,,,,,,,,15,,47,0
11490,note_on,0,0,0,,,,,,,,,8,,47,0
11500,note_on,10,0,0,,,,,,,,,13,,66,0
11500,note_on,0,0,0,,,,,,,,,3,,66,0
11500,note_on,0,0,0,,,,,,,,,0,,66,0
11500,note_on,0,0,0,,,,,,,,,5,,66,0
11500,note_on,0,0,0,,,,,,,,,0,,64,100
11500,note_on,0,0,0,,,,,,,,,3,,64,100
11500,note_on,0,0,0,,,,,,,,,5,,64,100
11500,note_on,0,0,0,,,,,,,,,13,,64,100
11505,note_on,5,0,0,,,,,,,,,15,,71,0
11505,note_on,0,0,0,,,,,,,,,15,,63,0
11505,note_on,0,0,0,,,,,,,,,15,,66,0
11510,note_on,5,0,0,,,,,,,,,3,,64,0
11510,note_on,0,0,0,,,,,,,,,0,,64,0
11510,note_on,0,0,0,,,,,,,,,13,,64,0
11510,note_on,0,0,0,,,,,,,,,5,,64,0
11510,note_on,0,0,0,,,,,,,,,6,,63,0
11520,note_on,10,0,0,,,,,,,,,0,,52,100
11520,note_on,0,0,0,,,,,,,,,0,,64,100
11520,note_on,0,0,0,,,,,,,,,3,,52,100
11520,note_on,0,0,0,,,,,,,,,3,,64,100
11520,note_on,0,0,0,,,,,,,,,5,,64,100
11520,note_on,0,0,0,,,,,,,,,6,,64,100
11520,note_on,0,0,0,,,,,,,,,8,,52,100
11520,note_on,0,0,0,,,,,,,,,10,,40,100
11520,note_on,0,0,0,,,,,,,,,13,,64,100
11520,note_on,0,0,0,,,,,,,,,14,,52,100
11520,note_on,0,0,0,,,,,,,,,15,,64,100
11520,note_on,0,0,0,,,,,,,,,15,,68,100
11520,note_on,0,0,0,,,,,,,,,15,,71,100
11520,note_on,0,0,0,,,,,,,,,15,,52,100
11700,note_on,180,0,0,,,,,,,,,15,,52,0
11700,note_on,0,0,0,,,,,,,,,0,,52,0
11700,note_on,0,0,0,,,,,,,,,10,,40,0
11700,note_on,0,0,0,,,,,,,,,8,,52,0
11700,note_on,0,0,0,,,,,,,,,14,,52,0
11700,note_on,0,0,0,,,,,,,,,3,,52,0
11730,note_on,30,0,0,,,,,,,,,0,,54,100
11730,note_on,0,0,0,,,,,,,,,3,,54,100
11730,note_on,0,0,0,,,,,,,,,8,,54,100
11730,note_on,0,0,0,,,,,,,,,10,,42,100
11730,note_on,0,0,0,,,,,,,,,14,,54,100
11730,note_on,0,0,0,,,,,,,,,15,,54,100
11760,note_on,30,0,0,,,,,,,,,15,,54,0
11760,note_on,0,0,0,,,,,,,,,3,,54,0
11760,note_on,0,0,0,,,,,,,,,0,,54,0
11760,note_on,0,0,0,,,,,,,,,14,,54,0
11760,note_on,0,0,0,,,,,,,,,8,,54,0
11760,note_on,0,0,0,,,,,,,,,10,,42,0
11760,note_on,0,0,0,,,,,,,,,0,,52,100
11760,note_on,0,0,0,,,,,,,,,3,,52,100
11760,note_on,0,0,0,,,,,,,,,8,,52,100
11760,note_on,0,0,0,,,,,,,,,10,,40,100
11760,note_on,0,0,0,,,,,,,,,14,,52,100
11760,note_on,0,0,0,,,,,,,,,15,,52,100
11830,note_on,70,0,0,,,,,,,,,0,,64,0
11830,note_on,0,0,0,,,,,,,,,3,,64,0
11840,note_on,10,0,0,,,,,,,,,13,,64,0
11840,note_on,0,0,0,,,,,,,,,5,,64,0
11850,note_on,10,0,0,,,,,,,,,3,,52,0
11850,note_on,0,0,0,,,,,,,,,10,,40,0
11850,note_on,0,0,0,,,,,,,,,0,,52,0
11850,note_on,0,0,0,,,,,,,,,8,,52,0
11850,note_on,0,0,0,,,,,,,,,15,,52,0
11850,note_on,0,0,0,,,,,,,,,14,,52,0
11860,note_on,10,0,0,,,,,,,,,0,,50,100
11860,note_on,0,0,0,,,,,,,,,3,,50,100
11860,note_on,0,0,0,,,,,,,,,8,,50,100
11860,note_on,0,0,0,,,,,,,,,10,,38,100
11860,note_on,0,0,0,,,,,,,,,14,,50,100
11860,note_on,0,0,0,,,,,,,,,15,,50,100
11880,note_on,20,0,0,,,,,,,,,15,,50,0
11880,note_on,0,0,0,,,,,,,,,14,,50,0
11880,note_on,0,0,0,,,,,,,,,8,,50,0
11880,note_on,0,0,0,,,,,,,,,10,,38,0
11880,note_on,0,0,0,,,,,,,,,0,,50,0
11880,note_on,0,0,0,,,,,,,,,3,,50,0
11880,note_on,0,0,0,,,,,,,,,0,,49,100
11880,note_on,0,0,0,,,,,,,,,3,,49,100
11880,note_on,0,0,0,,,,,,,,,8,,49,100
11880,note_on,0,0,0,,,,,,,,,10,,37,100
11880,note_on,0,0,0,,,,,,,,,14,,49,100
11880,note_on,0,0,0,,,,,,,,,15,,49,100
11925,note_on,45,0,0,,,,,,,,,0,,64,100
11925,note_on,0,0,0,,,,,,,,,3,,64,100
11925,note_on,0,0,0,,,,,,,,,5,,64,100
11925,note_on,0,0,0,,,,,,,,,13,,64,100
11940,note_on,15,0,0,,,,,,,,,13,,64,0
11940,note_on,0,0,0,,,,,,,,,5,,64,0
11940,note_on,0,0,0,,,,,,,,,0,,64,0
11940,note_on,0,0,0,,,,,,,,,3,,64,0
11940,note_on,0,0,0,,,,,,,,,0,,66,100
11940,note_on,0,0,0,,,,,,,,,3,,66,100
11940,note_on,0,0,0,,,,,,,,,5,,66,100
11940,note_on,0,0,0,,,,,,,,,13,,66,100
11950,note_on,10,0,0,,,,,,,,,3,,66,0
11950,note_on,0,0,0,,,,,,,,,0,,66,0
11955,note_on,5,0,0,,,,,,,,,15,,64,0
11955,note_on,0,0,0,,,,,,,,,15,,68,0
11955,note_on,0,0,0,,,,,,,,,5,,66,0
11955,note_on,0,0,0,,,,,,,,,15,,71,0
11955,note_on,0,0,0,,,,,,,,,13,,66,0
11955,note_on,0,0,0,,,,,,,,,0,,68,100
11955,note_on,0,0,0,,,,,,,,,3,,68,100
11955,note_on,0,0,0,,,,,,,,,5,,68,100
11955,note_on,0,0,0,,,,,,,,,13,,68,100
11965,note_on,10,0,0,,,,,,,,,3,,68,0
11965,note_on,0,0,0,,,,,,,,,0,,68,0
11970,note_on,5,0,0,,,,,,,,,8,,49,0
11970,note_on,0,0,0,,,,,,,,,14,,49,0
11970,note_on,0,0,0,,,,,,,,,5,,68,0
11970,note_on,0,0,0,,,,,,,,,0,,49,0
11970,note_on,0,0,0,,,,,,,,,15,,49,0
11970,note_on,0,0,0,,,,,,,,,13,,68,0
11970,note_on,0,0,0,,,,,,,,,3,,49,0
11970,note_on,0,0,0,,,,,,,,,10,,37,0
11970,note_on,0,0,0,,,,,,,,,0,,69,100
11970,note_on,0,0,0,,,,,,,,,3,,69,100
11970,note_on,0,0,0,,,,,,,,,5,,69,100
11970,note_on,0,0,0,,,,,,,,,13,,69,100
11980,note_on,10,0,0,,,,,,,,,3,,69,0
11980,note_on,0,0,0,,,,,,,,,0,,69,0
11980,note_on,0,0,0,,,,,,,,,0,,47,100
11980,note_on,0,0,0,,,,,,,,,3,,47,100
11980,note_on,0,0,0,,,,,,,,,8,,47,100
11980,note_on,0,0,0,,,,,,,,,10,,35,100
11980,note_on,0,0,0,,,,,,,,,14,,47,100
11980,note_on,0,0,0,,,,,,,,,15,,47,100
11985,note_on,5,0,0,,,,,,,,,6,,64,0
11985,note_on,0,0,0,,,,,,,,,13,,69,0
11985,note_on,0,0,0,,,,,,,,,5,,69,0
11985,note_on,0,0,0,,,,,,,,,0,,71,100
11985,note_on,0,0,0,,,,,,,,,3,,71,100
11985,note_on,0,0,0,,,,,,,,,5,,71,100
11985,note_on,0,0,0,,,,,,,,,13,,71,100
11995,note_on,10,0,0,,,,,,,,,3,,71,0
11995,note_on,0,0,0,,,,,,,,,0,,71,0
12000,note_on,5,0,0,,,,,,,,,14,,47,0
12000,note_on,0,0,0,,,,,,,,,15,,47,0
12000,note_on,0,0,0,,,,,,,,,0,,47,0
12000,note_on,0,0,0,,,,,,,,,8,,47,0
12000,note_on,0,0,0,,,,,,,,,13,,71,0
12000,note_on,0,0,0,,,,,,,,,5,,71,0
12000,note_on,0,0,0,,,,,,,,,10,,35,0
12000,note_on,0,0,0,,,,,,,,,3,,47,0
12000,note_on,0,0,0,,,,,,,,,0,,73,100
12000,note_on,0,0,0,,,,,,,,,1,,45,100
12000,note_on,0,0,0,,,,,,,,,3,,73,100
12000,note_on,0,0,0,,,,,,,,,5,,73,100
12000,note_on,0,0,0,,,,,,,,,6,,64,100
12000,note_on,0,0,0,,,,,,,,,8,,45,100
12000,note_on,0,0,0,,,,,,,,,10,,33,100
12000,note_on,0,0,0,,,,,,,,,13,,73,100
12000,note_on,0,0,0,,,,,,,,,14,,45,100
12000,note_on,0,0,0,,,,,,,,,15,,45,100
12015,note_on,15,0,0,,,,,,,,,15,,49,100
12030,note_on,15,0,0,,,,,,,,,15,,61,100
12030,note_on,0,0,0,,,,,,,,,15,,52,100
12045,note_on,15,0,0,,,,,,,,,15,,64,100
12045,note_on,0,0,0,,,,,,,,,15,,57,100
12075,note_on,30,0,0,,,,,,,,,15,,69,100
12165,note_on,90,0,0,,,,,,,,,13,,73,0
12165,note_on,0,0,0,,,,,,,,,3,,73,0
12180,note_on,15,0,0,,,,,,,,,6,,64,0
12180,note_on,0,0,0,,,,,,,,,5,,73,0
12180,note_on,0,0,0,,,,,,,,,0,,73,0
12210,note_on,30,0,0,,,,,,,,,0,,69,100
12210,note_on,0,0,0,,,,,,,,,3,,69,100
12210,note_on,0,0,0,,,,,,,,,5,,69,100
12210,note_on,0,0,0,,,,,,,,,13,,69,100
12240,note_on,30,0,0,,,,,,,,,13,,69,0
12240,note_on,0,0,0,,,,,,,,,0,,69,0
12240,note_on,0,0,0,,,,,,,,,5,,69,0
12240,note_on,0,0,0,,,,,,,,,3,,69,0
12240,note_on,0,0,0,,,,,,,,,0,,76,100
12240,note_on,0,0,0,,,,,,,,,3,,76,100
12240,note_on,0,0,0,,,,,,,,,5,,76,100
12240,note_on,0,0,0,,,,,,,,,6,,61,100
12240,note_on,0,0,0,,,,,,,,,13,,76,100
12310,note_on,70,0,0,,,,,,,,,15,,45,0
12310,note_on,0,0,0,,,,,,,,,8,,45,0
12310,note_on,0,0,0,,,,,,,,,14,,45,0
12310,note_on,0,0,0,,,,,,,,,10,,33,0
12325,note_on,15,0,0,,,,,,,,,15,,49,0
12330,note_on,5,0,0,,,,,,,,,1,,45,0
12340,note_on,10,0,0,,,,,,,,,15,,52,0
12340,note_on,0,0,0,,,,,,,,,15,,61,0
12345,note_on,5,0,0,,,,,,,,,6,,61,0
12355,note_on,10,0,0,,,,,,,,,15,,64,0
12355,note_on,0,0,0,,,,,,,,,15,,57,0
12360,note_on,5,0,0,,,,,,,,,15,,69,0
12360,note_on,0,0,0,,,,,,,,,1,,47,100
12360,note_on,0,0,0,,,,,,,,,6,,62,100
12360,note_on,0,0,0,,,,,,,,,8,,47,100
12360,note_on,0,0,0,,,,,,,,,10,,35,100
12360,note_on,0,0,0,,,,,,,,,14,,47,100
12360,note_on,0,0,0,,,,,,,,,15,,47,100
12360,note_on,0,0,0,,,,,,,,,15,,52,100
12375,note_on,15,0,0,,,,,,,,,15,,64,100
12375,note_on,0,0,0,,,,,,,,,15,,56,100
12390,note_on,15,0,0,,,,,,,,,15,,66,100
12390,note_on,0,0,0,,,,,,,,,15,,59,100
12405,note_on,15,0,0,,,,,,,,,15,,64,0
12405,note_on,0,0,0,,,,,,,,,13,,76,0
12405,note_on,0,0,0,,,,,,,,,5,,76,0
12405,note_on,0,0,0,,,,,,,,,3,,76,0
12405,note_on,0,0,0,,,,,,,,,0,,76,0
12405,note_on,0,0,0,,,,,,,,,15,,62,100
12420,note_on,15,0,0,,,,,,,,,15,,68,100
12435,note_on,15,0,0,,,,,,,,,0,,64,100
12435,note_on,0,0,0,,,,,,,,,3,,64,100
12435,note_on,0,0,0,,,,,,,,,5,,64,100
12435,note_on,0,0,0,,,,,,,,,13,,64,100
12435,note_on,0,0,0,,,,,,,,,15,,69,100
12450,note_on,15,0,0,,,,,,,,,13,,64,0
12450,note_on,0,0,0,,,,,,,,,5,,64,0
12450,note_on,0,0,0,,,,,,,,,3,,64,0
12450,note_on,0,0,0,,,,,,,,,0,,64,0
12450,note_on,0,0,0,,,,,,,,,15,,68,0
12450,note_on,0,0,0,,,,,,,,,0,,66,100
12450,note_on,0,0,0,,,,,,,,,3,,66,100
12450,note_on,0,0,0,,,,,,,,,5,,66,100
12450,note_on,0,0,0,,,,,,,,,13,,66,100
12450,note_on,0,0,0,,,,,,,,,15,,71,100
12465,note_on,15,0,0,,,,,,,,,13,,66,0
12465,note_on,0,0,0,,,,,,,,,5,,66,0
12465,note_on,0,0,0,,,,,,,,,3,,66,0
12465,note_on,0,0,0,,,,,,,,,15,,69,0
12465,note_on,0,0,0,,,,,,,,,15,,66,0
12465,note_on,0,0,0,,,,,,,,,1,,47,0
12465,note_on,0,0,0,,,,,,,,,6,,62,0
12465,note_on,0,0,0,,,,,,,,,0,,66,0
12465,note_on,0,0,0,,,,,,,,,0,,68,100
12465,note_on,0,0,0,,,,,,,,,3,,68,100
12465,note_on,0,0,0,,,,,,,,,5,,68,100
12465,note_on,0,0,0,,,,,,,,,13,,68,100
12480,note_on,15,0,0,,,,,,,,,13,,68,0
12480,note_on,0,0,0,,,,,,,,,8,,47,0
12480,note_on,0,0,0,,,,,,,,,15,,62,0
12480,note_on,0,0,0,,,,,,,,,15,,59,0
12480,note_on,0,0,0,,,,,,,,,15,,52,0
12480,note_on,0,0,0,,,,,,,,,14,,47,0
12480,note_on,0,0,0,,,,,,,,,10,,35,0
12480,note_on,0,0,0,,,,,,,,,15,,56,0
12480,note_on,0,0,0,,,,,,,,,3,,68,0
12480,note_on,0,0,0,,,,,,,,,15,,47,0
12480,note_on,0,0,0,,,,,,,,,15,,71,0
12480,note_on,0,0,0,,,,,,,,,5,,68,0
12480,note_on,0,0,0,,,,,,,,,0,,68,0
12480,note_on,0,0,0,,,,,,,,,0,,69,100
12480,note_on,0,0,0,,,,,,,,,1,,49,100
12480,note_on,0,0,0,,,,,,,,,3,,69,100
12480,note_on,0,0,0,,,,,,,,,5,,69,100
12480,note_on,0,0,0,,,,,,,,,6,,64,100
12480,note_on,0,0,0,,,,,,,,,8,,49,100
12480,note_on,0,0,0,,,,,,,,,10,,37,100
12480,note_on,0,0,0,,,,,,,,,13,,69,100
12480,note_on,0,0,0,,,,,,,,,14,,49,100
12480,note_on,0,0,0,,,,,,,,,15,,69,100
12480,note_on,0,0,0,,,,,,,,,15,,49,100
12495,note_on,15,0,0,,,,,,,,,15,,64,100
12510,note_on,15,0,0,,,,,,,,,15,,61,100
12520,note_on,10,0,0,,,,,,,,,15,,57,100
12645,note_on,125,0,0,,,,,,,,,13,,69,0
12645,note_on,0,0,0,,,,,,,,,5,,69,0
12660,note_on,15,0,0,,,,,,,,,10,,37,0
12660,note_on,0,0,0,,,,,,,,,0,,69,0
12660,note_on,0,0,0,,,,,,,,,15,,69,0
12660,note_on,0,0,0,,,,,,,,,3,,69,0
12660,note_on,0,0,0,,,,,,,,,14,,49,0
12660,note_on,0,0,0,,,,,,,,,6,,64,0
12660,note_on,0,0,0,,,,,,,,,8,,49,0
12660,note_on,0,0,0,,,,,,,,,15,,64,0
12660,note_on,0,0,0,,,,,,,,,15,,49,0
12660,note_on,0,0,0,,,,,,,,,15,,61,0
12670,note_on,10,0,0,,,,,,,,,15,,57,0
12690,note_on,20,0,0,,,,,,,,,1,,49,0
12690,note_on,0,0,0,,,,,,,,,0,,73,100
12690,note_on,0,0,0,,,,,,,,,3,,73,100
12690,note_on,0,0,0,,,,,,,,,5,,73,100
12690,note_on,0,0,0,,,,,,,,,13,,73,100
12720,note_on,30,0,0,,,,,,,,,13,,73,0
12720,note_on,0,0,0,,,,,,,,,0,,73,0
12720,note_on,0,0,0,,,,,,,,,3,,73,0
12720,note_on,0,0,0,,,,,,,,,5,,73,0
12720,note_on,0,0,0,,,,,,,,,0,,78,100
12720,note_on,0,0,0,,,,,,,,,1,,50,100
12720,note_on,0,0,0,,,,,,,,,3,,78,100
12720,note_on,0,0,0,,,,,,,,,5,,78,100
12720,note_on,0,0,0,,,,,,,,,6,,69,100
12720,note_on,0,0,0,,,,,,,,,8,,50,100
12720,note_on,0,0,0,,,,,,,,,10,,38,100
12720,note_on,0,0,0,,,,,,,,,13,,78,100
12720,note_on,0,0,0,,,,,,,,,14,,50,100
12720,note_on,0,0,0,,,,,,,,,15,,59,100
12720,note_on,0,0,0,,,,,,,,,15,,66,100
12720,note_on,0,0,0,,,,,,,,,15,,69,100
12720,note_on,0,0,0,,,,,,,,,15,,50,100
12830,note_on,110,0,0,,,,,,,,,15,,50,0
12830,note_on,0,0,0,,,,,,,,,10,,38,0
12830,note_on,0,0,0,,,,,,,,,14,,50,0
12830,note_on,0,0,0,,,,,,,,,8,,50,0
12840,note_on,10,0,0,,,,,,,,,15,,69,0
12840,note_on,0,0,0,,,,,,,,,15,,66,0
12840,note_on,0,0,0,,,,,,,,,15,,59,0
12840,note_on,0,0,0,,,,,,,,,1,,50,0
12840,note_on,0,0,0,,,,,,,,,1,,49,100
12840,note_on,0,0,0,,,,,,,,,8,,49,100
12840,note_on,0,0,0,,,,,,,,,10,,37,100
12840,note_on,0,0,0,,,,,,,,,14,,49,100
12840,note_on,0,0,0,,,,,,,,,15,,61,100
12840,note_on,0,0,0,,,,,,,,,15,,64,100
12840,note_on,0,0,0,,,,,,,,,15,,69,100
12840,note_on,0,0,0,,,,,,,,,15,,49,100
12855,note_on,15,0,0,,,,,,,,,0,,78,0
12855,note_on,0,0,0,,,,,,,,,3,,78,0
12885,note_on,30,0,0,,,,,,,,,5,,78,0
12885,note_on,0,0,0,,,,,,,,,13,,78,0
12885,note_on,0,0,0,,,,,,,,,6,,69,0
12914,note_on,29,0,0,,,,,,,,,5,,69,100
12914,note_on,0,0,0,,,,,,,,,13,,69,100
12915,note_on,1,0,0,,,,,,,,,0,,69,100
12915,note_on,0,0,0,,,,,,,,,3,,69,100
12929,note_on,14,0,0,,,,,,,,,13,,69,0
12929,note_on,0,0,0,,,,,,,,,5,,69,0
12929,note_on,0,0,0,,,,,,,,,5,,71,100
12929,note_on,0,0,0,,,,,,,,,13,,71,100
12930,note_on,1,0,0,,,,,,,,,0,,69,0
12930,note_on,0,0,0,,,,,,,,,3,,69,0
12930,note_on,0,0,0,,,,,,,,,0,,71,100
12930,note_on,0,0,0,,,,,,,,,3,,71,100
12930,note_on,0,0,0,,,,,,,,,6,,69,100
12944,note_on,14,0,0,,,,,,,,,5,,71,0
12944,note_on,0,0,0,,,,,,,,,13,,71,0
12944,note_on,0,0,0,,,,,,,,,5,,73,100
12944,note_on,0,0,0,,,,,,,,,13,,73,100
12945,note_on,1,0,0,,,,,,,,,0,,71,0
12945,note_on,0,0,0,,,,,,,,,3,,71,0
12945,note_on,0,0,0,,,,,,,,,0,,73,100
12945,note_on,0,0,0,,,,,,,,,3,,73,100
12950,note_on,5,0,0,,,,,,,,,10,,37,0
12950,note_on,0,0,0,,,,,,,,,14,,49,0
12950,note_on,0,0,0,,,,,,,,,15,,49,0
12950,note_on,0,0,0,,,,,,,,,8,,49,0
12959,note_on,9,0,0,,,,,,,,,5,,73,0
12959,note_on,0,0,0,,,,,,,,,13,,73,0
12959,note_on,0,0,0,,,,,,,,,5,,74,100
12959,note_on,0,0,0,,,,,,,,,13,,74,100
12960,note_on,1,0,0,,,,,,,,,1,,49,0
12960,note_on,0,0,0,,,,,,,,,15,,64,0
12960,note_on,0,0,0,,,,,,,,,15,,69,0
12960,note_on,0,0,0,,,,,,,,,0,,73,0
12960,note_on,0,0,0,,,,,,,,,6,,69,0
12960,note_on,0,0,0,,,,,,,,,3,,73,0
12960,note_on,0,0,0,,,,,,,,,15,,61,0
12960,note_on,0,0,0,,,,,,,,,0,,74,100
12960,note_on,0,0,0,,,,,,,,,1,,47,100
12960,note_on,0,0,0,,,,,,,,,3,,74,100
12960,note_on,0,0,0,,,,,,,,,6,,71,100
12960,note_on,0,0,0,,,,,,,,,8,,47,100
12960,note_on,0,0,0,,,,,,,,,10,,35,100
12960,note_on,0,0,0,,,,,,,,,14,,47,100
12960,note_on,0,0,0,,,,,,,,,15,,68,100
12960,note_on,0,0,0,,,,,,,,,15,,47,100
12960,note_on,0,0,0,,,,,,,,,15,,71,100
12960,note_on,0,0,0,,,,,,,,,15,,64,100
13080,note_on,120,0,0,,,,,,,,,1,,47,0
13125,note_on,45,0,0,,,,,,,,,15,,47,0
13125,note_on,0,0,0,,,,,,,,,10,,35,0
13125,note_on,0,0,0,,,,,,,,,14,,47,0
13125,note_on,0,0,0,,,,,,,,,8,,47,0
13125,note_on,0,0,0,,,,,,,,,6,,71,0
13139,note_on,14,0,0,,,,,,,,,5,,74,0
13139,note_on,0,0,0,,,,,,,,,13,,74,0
13140,note_on,1,0,0,,,,,,,,,15,,64,0
13140,note_on,0,0,0,,,,,,,,,0,,74,0
13140,note_on,0,0,0,,,,,,,,,15,,71,0
13140,note_on,0,0,0,,,,,,,,,15,,68,0
13140,note_on,0,0,0,,,,,,,,,3,,74,0
13155,note_on,15,0,0,,,,,,,,,1,,47,100
13155,note_on,0,0,0,,,,,,,,,8,,47,100
13155,note_on,0,0,0,,,,,,,,,10,,35,100
13155,note_on,0,0,0,,,,,,,,,14,,47,100
13155,note_on,0,0,0,,,,,,,,,15,,47,100
13169,note_on,14,0,0,,,,,,,,,5,,78,100
13169,note_on,0,0,0,,,,,,,,,13,,78,100
13170,note_on,1,0,0,,,,,,,,,15,,47,0
13170,note_on,0,0,0,,,,,,,,,14,,47,0
13170,note_on,0,0,0,,,,,,,,,1,,47,0
13170,note_on,0,0,0,,,,,,,,,10,,35,0
13170,note_on,0,0,0,,,,,,,,,8,,47,0
13170,note_on,0,0,0,,,,,,,,,0,,78,100
13170,note_on,0,0,0,,,,,,,,,1,,49,100
13170,note_on,0,0,0,,,,,,,,,3,,78,100
13170,note_on,0,0,0,,,,,,,,,6,,71,100
13170,note_on,0,0,0,,,,,,,,,8,,49,100
13170,note_on,0,0,0,,,,,,,,,10,,37,100
13170,note_on,0,0,0,,,,,,,,,14,,49,100
13170,note_on,0,0,0,,,,,,,,,15,,49,100
13185,note_on,15,0,0,,,,,,,,,15,,49,0
13185,note_on,0,0,0,,,,,,,,,14,,49,0
13185,note_on,0,0,0,,,,,,,,,8,,49,0
13185,note_on,0,0,0,,,,,,,,,10,,37,0
13185,note_on,0,0,0,,,,,,,,,1,,49,0
13185,note_on,0,0,0,,,,,,,,,1,,50,100
13185,note_on,0,0,0,,,,,,,,,8,,50,100
13185,note_on,0,0,0,,,,,,,,,10,,38,100
13185,note_on,0,0,0,,,,,,,,,14,,50,100
13185,note_on,0,0,0,,,,,,,,,15,,50,100
13190,note_on,5,0,0,,,,,,,,,6,,71,0
13199,note_on,9,0,0,,,,,,,,,5,,78,0
13199,note_on,0,0,0,,,,,,,,,13,,78,0
13199,note_on,0,0,0,,,,,,,,,5,,81,100
13199,note_on,0,0,0,,,,,,,,,13,,81,100
13200,note_on,1,0,0,,,,,,,,,3,,78,0
13200,note_on,0,0,0,,,,,,,,,10,,38,0
13200,note_on,0,0,0,,,,,,,,,14,,50,0
13200,note_on,0,0,0,,,,,,,,,1,,50,0
13200,note_on,0,0,0,,,,,,,,,0,,78,0
13200,note_on,0,0,0,,,,,,,,,15,,50,0
13200,note_on,0,0,0,,,,,,,,,8,,50,0
13200,note_on,0,0,0,,,,,,,,,0,,81,100
13200,note_on,0,0,0,,,,,,,,,1,,52,100
13200,note_on,0,0,0,,,,,,,,,3,,81,100
13200,note_on,0,0,0,,,,,,,,,6,,71,100
13200,note_on,0,0,0,,,,,,,,,8,,52,100
13200,note_on,0,0,0,,,,,,,,,10,,40,100
13200,note_on,0,0,0,,,,,,,,,14,,52,100
13200,note_on,0,0,0,,,,,,,,,15,,59,100
13200,note_on,0,0,0,,,,,,,,,15,,56,100
13200,note_on,0,0,0,,,,,,,,,15,,64,100
13200,note_on,0,0,0,,,,,,,,,15,,52,100
13214,note_on,14,0,0,,,,,,,,,13,,81,0
13214,note_on,0,0,0,,,,,,,,,5,,81,0
13214,note_on,0,0,0,,,,,,,,,5,,80,100
13214,note_on,0,0,0,,,,,,,,,13,,80,100
13215,note_on,1,0,0,,,,,,,,,3,,81,0
13215,note_on,0,0,0,,,,,,,,,0,,81,0
13215,note_on,0,0,0,,,,,,,,,0,,80,100
13215,note_on,0,0,0,,,,,,,,,3,,80,100
13229,note_on,14,0,0,,,,,,,,,5,,80,0
13229,note_on,0,0,0,,,,,,,,,13,,80,0
13229,note_on,0,0,0,,,,,,,,,5,,81,100
13229,note_on,0,0,0,,,,,,,,,13,,81,100
13230,note_on,1,0,0,,,,,,,,,0,,80,0
13230,note_on,0,0,0,,,,,,,,,3,,80,0
13230,note_on,0,0,0,,,,,,,,,0,,81,100
13230,note_on,0,0,0,,,,,,,,,3,,81,100
13244,note_on,14,0,0,,,,,,,,,5,,81,0
13244,note_on,0,0,0,,,,,,,,,13,,81,0
13244,note_on,0,0,0,,,,,,,,,5,,80,100
13244,note_on,0,0,0,,,,,,,,,13,,80,100
13245,note_on,1,0,0,,,,,,,,,0,,81,0
13245,note_on,0,0,0,,,,,,,,,3,,81,0
13245,note_on,0,0,0,,,,,,,,,0,,80,100
13245,note_on,0,0,0,,,,,,,,,3,,80,100
13259,note_on,14,0,0,,,,,,,,,5,,80,0
13259,note_on,0,0,0,,,,,,,,,13,,80,0
13259,note_on,0,0,0,,,,,,,,,5,,81,100
13259,note_on,0,0,0,,,,,,,,,13,,81,100
13260,note_on,1,0,0,,,,,,,,,0,,80,0
13260,note_on,0,0,0,,,,,,,,,3,,80,0
13260,note_on,0,0,0,,,,,,,,,0,,81,100
13260,note_on,0,0,0,,,,,,,,,3,,81,100
13274,note_on,14,0,0,,,,,,,,,5,,81,0
13274,note_on,0,0,0,,,,,,,,,13,,81,0
13274,note_on,0,0,0,,,,,,,,,5,,80,100
13274,note_on,0,0,0,,,,,,,,,13,,80,100
13275,note_on,1,0,0,,,,,,,,,0,,81,0
13275,note_on,0,0,0,,,,,,,,,3,,81,0
13275,note_on,0,0,0,,,,,,,,,0,,80,100
13275,note_on,0,0,0,,,,,,,,,3,,80,100
13289,note_on,14,0,0,,,,,,,,,5,,80,0
13289,note_on,0,0,0,,,,,,,,,13,,80,0
13289,note_on,0,0,0,,,,,,,,,5,,81,100
13289,note_on,0,0,0,,,,,,,,,13,,81,100
13290,note_on,1,0,0,,,,,,,,,0,,80,0
13290,note_on,0,0,0,,,,,,,,,3,,80,0
13290,note_on,0,0,0,,,,,,,,,0,,81,100
13290,note_on,0,0,0,,,,,,,,,3,,81,100
13304,note_on,14,0,0,,,,,,,,,5,,81,0
13304,note_on,0,0,0,,,,,,,,,13,,81,0
13304,note_on,0,0,0,,,,,,,,,5,,80,100
13304,note_on,0,0,0,,,,,,,,,13,,80,100
13305,note_on,1,0,0,,,,,,,,,15,,52,0
13305,note_on,0,0,0,,,,,,,,,14,,52,0
13305,note_on,0,0,0,,,,,,,,,10,,40,0
13305,note_on,0,0,0,,,,,,,,,0,,81,0
13305,note_on,0,0,0,,,,,,,,,3,,81,0
13305,note_on,0,0,0,,,,,,,,,8,,52,0
13305,note_on,0,0,0,,,,,,,,,0,,80,100
13305,note_on,0,0,0,,,,,,,,,3,,80,100
13320,note_on,15,0,0,,,,,,,,,3,,80,0
13320,note_on,0,0,0,,,,,,,,,15,,64,0
13320,note_on,0,0,0,,,,,,,,,0,,80,0
13320,note_on,0,0,0,,,,,,,,,15,,59,0
13320,note_on,0,0,0,,,,,,,,,1,,52,0
13320,note_on,0,0,0,,,,,,,,,15,,56,0
13320,note_on,0,0,0,,,,,,,,,0,,81,100
13320,note_on,0,0,0,,,,,,,,,1,,50,100
13320,note_on,0,0,0,,,,,,,,,3,,81,100
13320,note_on,0,0,0,,,,,,,,,8,,50,100
13320,note_on,0,0,0,,,,,,,,,10,,38,100
13320,note_on,0,0,0,,,,,,,,,14,,50,100
13320,note_on,0,0,0,,,,,,,,,15,,59,100
13320,note_on,0,0,0,,,,,,,,,15,,64,100
13320,note_on,0,0,0,,,,,,,,,15,,68,100
13320,note_on,0,0,0,,,,,,,,,15,,50,100
13335,note_on,15,0,0,,,,,,,,,3,,81,0
13335,note_on,0,0,0,,,,,,,,,0,,81,0
13335,note_on,0,0,0,,,,,,,,,0,,80,100
13335,note_on,0,0,0,,,,,,,,,3,,80,100
13364,note_on,29,0,0,,,,,,,,,5,,80,0
13364,note_on,0,0,0,,,,,,,,,13,,80,0
13365,note_on,1,0,0,,,,,,,,,6,,71,0
13365,note_on,0,0,0,,,,,,,,,0,,80,0
13365,note_on,0,0,0,,,,,,,,,3,,80,0
13394,note_on,29,0,0,,,,,,,,,5,,76,100
13394,note_on,0,0,0,,,,,,,,,13,,76,100
13395,note_on,1,0,0,,,,,,,,,0,,76,100
13395,note_on,0,0,0,,,,,,,,,3,,76,100
13409,note_on,14,0,0,,,,,,,,,13,,76,0
13409,note_on,0,0,0,,,,,,,,,5,,76,0
13409,note_on,0,0,0,,,,,,,,,5,,78,100
13409,note_on,0,0,0,,,,,,,,,13,,78,100
13410,note_on,1,0,0,,,,,,,,,0,,76,0
13410,note_on,0,0,0,,,,,,,,,3,,76,0
13410,note_on,0,0,0,,,,,,,,,0,,78,100
13410,note_on,0,0,0,,,,,,,,,3,,78,100
13410,note_on,0,0,0,,,,,,,,,6,,71,100
13424,note_on,14,0,0,,,,,,,,,5,,78,0
13424,note_on,0,0,0,,,,,,,,,13,,78,0
13424,note_on,0,0,0,,,,,,,,,5,,80,100
13424,note_on,0,0,0,,,,,,,,,13,,80,100
13425,note_on,1,0,0,,,,,,,,,0,,78,0
13425,note_on,0,0,0,,,,,,,,,10,,38,0
13425,note_on,0,0,0,,,,,,,,,14,,50,0
13425,note_on,0,0,0,,,,,,,,,15,,50,0
13425,note_on,0,0,0,,,,,,,,,3,,78,0
13425,note_on,0,0,0,,,,,,,,,8,,50,0
13425,note_on,0,0,0,,,,,,,,,0,,80,100
13425,note_on,0,0,0,,,,,,,,,3,,80,100
13439,note_on,14,0,0,,,,,,,,,13,,80,0
13439,note_on,0,0,0,,,,,,,,,5,,80,0
13439,note_on,0,0,0,,,,,,,,,5,,81,100
13439,note_on,0,0,0,,,,,,,,,13,,81,100
13440,note_on,1,0,0,,,,,,,,,6,,71,0
13440,note_on,0,0,0,,,,,,,,,0,,80,0
13440,note_on,0,0,0,,,,,,,,,3,,80,0
13440,note_on,0,0,0,,,,,,,,,1,,50,0
13440,note_on,0,0,0,,,,,,,,,15,,64,0
13440,note_on,0,0,0,,,,,,,,,15,,68,0
13440,note_on,0,0,0,,,,,,,,,15,,59,0
13440,note_on,0,0,0,,,,,,,,,0,,81,100
13440,note_on,0,0,0,,,,,,,,,1,,49,100
13440,note_on,0,0,0,,,,,,,,,3,,81,100
13440,note_on,0,0,0,,,,,,,,,6,,64,100
13440,note_on,0,0,0,,,,,,,,,8,,49,100
13440,note_on,0,0,0,,,,,,,,,10,,37,100
13440,note_on,0,0,0,,,,,,,,,14,,49,100
13440,note_on,0,0,0,,,,,,,,,15,,61,100
13440,note_on,0,0,0,,,,,,,,,15,,64,100
13440,note_on,0,0,0,,,,,,,,,15,,69,100
13440,note_on,0,0,0,,,,,,,,,15,,49,100
13575,note_on,135,0,0,,,,,,,,,1,,49,0
13605,note_on,30,0,0,,,,,,,,,8,,49,0
13605,note_on,0,0,0,,,,,,,,,15,,64,0
13605,note_on,0,0,0,,,,,,,,,14,,49,0
13605,note_on,0,0,0,,,,,,,,,10,,37,0
13605,note_on,0,0,0,,,,,,,,,15,,61,0
13605,note_on,0,0,0,,,,,,,,,15,,49,0
13605,note_on,0,0,0,,,,,,,,,6,,64,0
13605,note_on,0,0,0,,,,,,,,,15,,69,0
13619,note_on,14,0,0,,,,,,,,,13,,81,0
13619,note_on,0,0,0,,,,,,,,,5,,81,0
13620,note_on,1,0,0,,,,,,,,,0,,81,0
13620,note_on,0,0,0,,,,,,,,,3,,81,0
13635,note_on,15,0,0,,,,,,,,,1,,61,100
13635,note_on,0,0,0,,,,,,,,,8,,61,100
13635,note_on,0,0,0,,,,,,,,,10,,49,100
13635,note_on,0,0,0,,,,,,,,,14,,61,100
13635,note_on,0,0,0,,,,,,,,,15,,61,100
13649,note_on,14,0,0,,,,,,,,,5,,76,100
13649,note_on,0,0,0,,,,,,,,,13,,76,100
13650,note_on,1,0,0,,,,,,,,,15,,61,0
13650,note_on,0,0,0,,,,,,,,,14,,61,0
13650,note_on,0,0,0,,,,,,,,,1,,61,0
13650,note_on,0,0,0,,,,,,,,,10,,49,0
13650,note_on,0,0,0,,,,,,,,,8,,61,0
13650,note_on,0,0,0,,,,,,,,,0,,76,100
13650,note_on,0,0,0,,,,,,,,,1,,59,100
13650,note_on,0,0,0,,,,,,,,,3,,76,100
13650,note_on,0,0,0,,,,,,,,,6,,64,100
13650,note_on,0,0,0,,,,,,,,,8,,59,100
13650,note_on,0,0,0,,,,,,,,,10,,47,100
13650,note_on,0,0,0,,,,,,,,,14,,59,100
13650,note_on,0,0,0,,,,,,,,,15,,59,100
13665,note_on,15,0,0,,,,,,,,,15,,59,0
13665,note_on,0,0,0,,,,,,,,,14,,59,0
13665,note_on,0,0,0,,,,,,,,,8,,59,0
13665,note_on,0,0,0,,,,,,,,,10,,47,0
13665,note_on,0,0,0,,,,,,,,,1,,59,0
13665,note_on,0,0,0,,,,,,,,,1,,57,100
13665,note_on,0,0,0,,,,,,,,,8,,57,100
13665,note_on,0,0,0,,,,,,,,,10,,45,100
13665,note_on,0,0,0,,,,,,,,,14,,57,100
13665,note_on,0,0,0,,,,,,,,,15,,57,100
13670,note_on,5,0,0,,,,,,,,,6,,64,0
13679,note_on,9,0,0,,,,,,,,,5,,76,0
13679,note_on,0,0,0,,,,,,,,,13,,76,0
13679,note_on,0,0,0,,,,,,,,,5,,85,100
13679,note_on,0,0,0,,,,,,,,,13,,85,100
13680,note_on,1,0,0,,,,,,,,,3,,76,0
13680,note_on,0,0,0,,,,,,,,,10,,45,0
13680,note_on,0,0,0,,,,,,,,,14,,57,0
13680,note_on,0,0,0,,,,,,,,,1,,57,0
13680,note_on,0,0,0,,,,,,,,,0,,76,0
13680,note_on,0,0,0,,,,,,,,,15,,57,0
13680,note_on,0,0,0,,,,,,,,,8,,57,0
13680,note_on,0,0,0,,,,,,,,,0,,85,100
13680,note_on,0,0,0,,,,,,,,,1,,56,100
13680,note_on,0,0,0,,,,,,,,,3,,85,100
13680,note_on,0,0,0,,,,,,,,,6,,64,100
13680,note_on,0,0,0,,,,,,,,,8,,56,100
13680,note_on,0,0,0,,,,,,,,,10,,44,100
13680,note_on,0,0,0,,,,,,,,,14,,56,100
13680,note_on,0,0,0,,,,,,,,,15,,62,100
13680,note_on,0,0,0,,,,,,,,,15,,68,100
13680,note_on,0,0,0,,,,,,,,,15,,64,100
13680,note_on,0,0,0,,,,,,,,,15,,56,100
13694,note_on,14,0,0,,,,,,,,,13,,85,0
13694,note_on,0,0,0,,,,,,,,,5,,85,0
13694,note_on,0,0,0,,,,,,,,,5,,83,100
13694,note_on,0,0,0,,,,,,,,,13,,83,100
13695,note_on,1,0,0,,,,,,,,,3,,85,0
13695,note_on,0,0,0,,,,,,,,,0,,85,0
13695,note_on,0,0,0,,,,,,,,,0,,83,100
13695,note_on,0,0,0,,,,,,,,,3,,83,100
13709,note_on,14,0,0,,,,,,,,,5,,83,0
13709,note_on,0,0,0,,,,,,,,,13,,83,0
13709,note_on,0,0,0,,,,,,,,,5,,85,100
13709,note_on,0,0,0,,,,,,,,,13,,85,100
13710,note_on,1,0,0,,,,,,,,,0,,83,0
13710,note_on,0,0,0,,,,,,,,,3,,83,0
13710,note_on,0,0,0,,,,,,,,,0,,85,100
13710,note_on,0,0,0,,,,,,,,,3,,85,100
13724,note_on,14,0,0,,,,,,,,,5,,85,0
13724,note_on,0,0,0,,,,,,,,,13,,85,0
13724,note_on,0,0,0,,,,,,,,,5,,83,100
13724,note_on,0,0,0,,,,,,,,,13,,83,100
13725,note_on,1,0,0,,,,,,,,,0,,85,0
13725,note_on,0,0,0,,,,,,,,,3,,85,0
13725,note_on,0,0,0,,,,,,,,,0,,83,100
13725,note_on,0,0,0,,,,,,,,,3,,83,100
13739,note_on,14,0,0,,,,,,,,,5,,83,0
13739,note_on,0,0,0,,,,,,,,,13,,83,0
13739,note_on,0,0,0,,,,,,,,,5,,85,100
13739,note_on,0,0,0,,,,,,,,,13,,85,100
13740,note_on,1,0,0,,,,,,,,,0,,83,0
13740,note_on,0,0,0,,,,,,,,,3,,83,0
13740,note_on,0,0,0,,,,,,,,,0,,85,100
13740,note_on,0,0,0,,,,,,,,,3,,85,100
13754,note_on,14,0,0,,,,,,,,,5,,85,0
13754,note_on,0,0,0,,,,,,,,,13,,85,0
13754,note_on,0,0,0,,,,,,,,,5,,83,100
13754,note_on,0,0,0,,,,,,,,,13,,83,100
13755,note_on,1,0,0,,,,,,,,,6,,64,0
13755,note_on,0,0,0,,,,,,,,,0,,85,0
13755,note_on,0,0,0,,,,,,,,,3,,85,0
13755,note_on,0,0,0,,,,,,,,,0,,83,100
13755,note_on,0,0,0,,,,,,,,,3,,83,100
13769,note_on,14,0,0,,,,,,,,,5,,83,0
13769,note_on,0,0,0,,,,,,,,,13,,83,0
13769,note_on,0,0,0,,,,,,,,,5,,85,100
13769,note_on,0,0,0,,,,,,,,,13,,85,100
13770,note_on,1,0,0,,,,,,,,,15,,56,0
13770,note_on,0,0,0,,,,,,,,,0,,83,0
13770,note_on,0,0,0,,,,,,,,,1,,56,0
13770,note_on,0,0,0,,,,,,,,,10,,44,0
13770,note_on,0,0,0,,,,,,,,,14,,56,0
13770,note_on,0,0,0,,,,,,,,,3,,83,0
13770,note_on,0,0,0,,,,,,,,,8,,56,0
13770,note_on,0,0,0,,,,,,,,,0,,85,100
13770,note_on,0,0,0,,,,,,,,,3,,85,100
13784,note_on,14,0,0,,,,,,,,,5,,85,0
13784,note_on,0,0,0,,,,,,,,,13,,85,0
13784,note_on,0,0,0,,,,,,,,,5,,83,100
13784,note_on,0,0,0,,,,,,,,,13,,83,100
13785,note_on,1,0,0,,,,,,,,,0,,85,0
13785,note_on,0,0,0,,,,,,,,,15,,64,0
13785,note_on,0,0,0,,,,,,,,,15,,68,0
13785,note_on,0,0,0,,,,,,,,,15,,62,0
13785,note_on,0,0,0,,,,,,,,,3,,85,0
13785,note_on,0,0,0,,,,,,,,,0,,83,100
13785,note_on,0,0,0,,,,,,,,,3,,83,100
13799,note_on,14,0,0,,,,,,,,,13,,83,0
13799,note_on,0,0,0,,,,,,,,,5,,83,0
13800,note_on,1,0,0,,,,,,,,,0,,83,0
13800,note_on,0,0,0,,,,,,,,,3,,83,0
13800,note_on,0,0,0,,,,,,,,,0,,85,100
13800,note_on,0,0,0,,,,,,,,,1,,52,100
13800,note_on,0,0,0,,,,,,,,,3,,85,100
13800,note_on,0,0,0,,,,,,,,,5,,85,100
13800,note_on,0,0,0,,,,,,,,,6,,68,100
13800,note_on,0,0,0,,,,,,,,,8,,52,100
13800,note_on,0,0,0,,,,,,,,,10,,40,100
13800,note_on,0,0,0,,,,,,,,,13,,85,100
13800,note_on,0,0,0,,,,,,,,,14,,52,100
13800,note_on,0,0,0,,,,,,,,,15,,59,100
13800,note_on,0,0,0,,,,,,,,,15,,64,100
13800,note_on,0,0,0,,,,,,,,,15,,68,100
13800,note_on,0,0,0,,,,,,,,,15,,52,100
13815,note_on,15,0,0,,,,,,,,,13,,85,0
13815,note_on,0,0,0,,,,,,,,,5,,85,0
13815,note_on,0,0,0,,,,,,,,,3,,85,0
13815,note_on,0,0,0,,,,,,,,,0,,85,0
13815,note_on,0,0,0,,,,,,,,,0,,83,100
13815,note_on,0,0,0,,,,,,,,,3,,83,100
13815,note_on,0,0,0,,,,,,,,,5,,83,100
13815,note_on,0,0,0,,,,,,,,,13,,83,100
13830,note_on,15,0,0,,,,,,,,,13,,83,0
13830,note_on,0,0,0,,,,,,,,,0,,83,0
13830,note_on,0,0,0,,,,,,,,,5,,83,0
13830,note_on,0,0,0,,,,,,,,,3,,83,0
13830,note_on,0,0,0,,,,,,,,,0,,85,100
13830,note_on,0,0,0,,,,,,,,,3,,85,100
13830,note_on,0,0,0,,,,,,,,,5,,85,100
13830,note_on,0,0,0,,,,,,,,,13,,85,100
13845,note_on,15,0,0,,,,,,,,,13,,85,0
13845,note_on,0,0,0,,,,,,,,,0,,85,0
13845,note_on,0,0,0,,,,,,,,,5,,85,0
13845,note_on,0,0,0,,,,,,,,,3,,85,0
13845,note_on,0,0,0,,,,,,,,,0,,83,100
13845,note_on,0,0,0,,,,,,,,,3,,83,100
13845,note_on,0,0,0,,,,,,,,,5,,83,100
13845,note_on,0,0,0,,,,,,,,,13,,83,100
13860,note_on,15,0,0,,,,,,,,,13,,83,0
13860,note_on,0,0,0,,,,,,,,,0,,83,0
13860,note_on,0,0,0,,,,,,,,,5,,83,0
13860,note_on,0,0,0,,,,,,,,,3,,83,0
13860,note_on,0,0,0,,,,,,,,,0,,85,100
13860,note_on,0,0,0,,,,,,,,,3,,85,100
13860,note_on,0,0,0,,,,,,,,,5,,85,100
13860,note_on,0,0,0,,,,,,,,,13,,85,100
13875,note_on,15,0,0,,,,,,,,,13,,85,0
13875,note_on,0,0,0,,,,,,,,,0,,85,0
13875,note_on,0,0,0,,,,,,,,,5,,85,0
13875,note_on,0,0,0,,,,,,,,,3,,85,0
13875,note_on,0,0,0,,,,,,,,,0,,83,100
13875,note_on,0,0,0,,,,,,,,,3,,83,100
13875,note_on,0,0,0,,,,,,,,,5,,83,100
13875,note_on,0,0,0,,,,,,,,,13,,83,100
13890,note_on,15,0,0,,,,,,,,,13,,83,0
13890,note_on,0,0,0,,,,,,,,,15,,59,0
13890,note_on,0,0,0,,,,,,,,,15,,52,0
13890,note_on,0,0,0,,,,,,,,,15,,68,0
13890,note_on,0,0,0,,,,,,,,,15,,64,0
13890,note_on,0,0,0,,,,,,,,,14,,52,0
13890,note_on,0,0,0,,,,,,,,,0,,83,0
13890,note_on,0,0,0,,,,,,,,,10,,40,0
13890,note_on,0,0,0,,,,,,,,,3,,83,0
13890,note_on,0,0,0,,,,,,,,,8,,52,0
13890,note_on,0,0,0,,,,,,,,,1,,52,0
13890,note_on,0,0,0,,,,,,,,,5,,83,0
13890,note_on,0,0,0,,,,,,,,,0,,81,100
13890,note_on,0,0,0,,,,,,,,,3,,81,100
13890,note_on,0,0,0,,,,,,,,,5,,81,100
13890,note_on,0,0,0,,,,,,,,,13,,81,100
13905,note_on,15,0,0,,,,,,,,,13,,81,0
13905,note_on,0,0,0,,,,,,,,,3,,81,0
13905,note_on,0,0,0,,,,,,,,,5,,81,0
13905,note_on,0,0,0,,,,,,,,,0,,81,0
13905,note_on,0,0,0,,,,,,,,,0,,83,100
13905,note_on,0,0,0,,,,,,,,,3,,83,100
13905,note_on,0,0,0,,,,,,,,,5,,83,100
13905,note_on,0,0,0,,,,,,,,,13,,83,100
13920,note_on,15,0,0,,,,,,,,,13,,83,0
13920,note_on,0,0,0,,,,,,,,,3,,83,0
13920,note_on,0,0,0,,,,,,,,,6,,68,0
13920,note_on,0,0,0,,,,,,,,,0,,83,0
13920,note_on,0,0,0,,,,,,,,,5,,83,0
13920,note_on,0,0,0,,,,,,,,,0,,85,100
13920,note_on,0,0,0,,,,,,,,,1,,57,100
13920,note_on,0,0,0,,,,,,,,,3,,85,100
13920,note_on,0,0,0,,,,,,,,,5,,85,100
13920,note_on,0,0,0,,,,,,,,,6,,69,100
13920,note_on,0,0,0,,,,,,,,,8,,57,100
13920,note_on,0,0,0,,,,,,,,,10,,45,100
13920,note_on,0,0,0,,,,,,,,,13,,85,100
13920,note_on,0,0,0,,,,,,,,,14,,57,100
13920,note_on,0,0,0,,,,,,,,,15,,64,100
13920,note_on,0,0,0,,,,,,,,,15,,69,100
13920,note_on,0,0,0,,,,,,,,,15,,61,100
13920,note_on,0,0,0,,,,,,,,,15,,57,100
14070,note_on,150,0,0,,,,,,,,,3,,85,0
14070,note_on,0,0,0,,,,,,,,,0,,85,0
14085,note_on,15,0,0,,,,,,,,,13,,85,0
14085,note_on,0,0,0,,,,,,,,,6,,69,0
14085,note_on,0,0,0,,,,,,,,,5,,85,0
14100,note_on,15,0,0,,,,,,,,,14,,57,0
14100,note_on,0,0,0,,,,,,,,,1,,57,0
14100,note_on,0,0,0,,,,,,,,,10,,45,0
14100,note_on,0,0,0,,,,,,,,,15,,57,0
14100,note_on,0,0,0,,,,,,,,,15,,69,0
14100,note_on,0,0,0,,,,,,,,,8,,57,0
14100,note_on,0,0,0,,,,,,,,,15,,61,0
14100,note_on,0,0,0,,,,,,,,,15,,64,0
14115,note_on,15,0,0,,,,,,,,,0,,76,100
14115,note_on,0,0,0,,,,,,,,,3,,76,100
14115,note_on,0,0,0,,,,,,,,,5,,76,100
14115,note_on,0,0,0,,,,,,,,,13,,76,100
14130,note_on,15,0,0,,,,,,,,,13,,76,0
14130,note_on,0,0,0,,,,,,,,,0,,76,0
14130,note_on,0,0,0,,,,,,,,,3,,76,0
14130,note_on,0,0,0,,,,,,,,,5,,76,0
14130,note_on,0,0,0,,,,,,,,,0,,78,100
14130,note_on,0,0,0,,,,,,,,,1,,62,100
14130,note_on,0,0,0,,,,,,,,,3,,78,100
14130,note_on,0,0,0,,,,,,,,,5,,78,100
14130,note_on,0,0,0,,,,,,,,,6,,69,100
14130,note_on,0,0,0,,,,,,,,,8,,62,100
14130,note_on,0,0,0,,,,,,,,,10,,50,100
14130,note_on,0,0,0,,,,,,,,,13,,78,100
14130,note_on,0,0,0,,,,,,,,,14,,62,100
14130,note_on,0,0,0,,,,,,,,,15,,62,100
14145,note_on,15,0,0,,,,,,,,,13,,78,0
14145,note_on,0,0,0,,,,,,,,,5,,78,0
14145,note_on,0,0,0,,,,,,,,,3,,78,0
14145,note_on,0,0,0,,,,,,,,,0,,78,0
14145,note_on,0,0,0,,,,,,,,,0,,80,100
14145,note_on,0,0,0,,,,,,,,,3,,80,100
14145,note_on,0,0,0,,,,,,,,,5,,80,100
14145,note_on,0,0,0,,,,,,,,,13,,80,100
14160,note_on,15,0,0,,,,,,,,,13,,80,0
14160,note_on,0,0,0,,,,,,,,,15,,62,0
14160,note_on,0,0,0,,,,,,,,,14,,62,0
14160,note_on,0,0,0,,,,,,,,,6,,69,0
14160,note_on,0,0,0,,,,,,,,,1,,62,0
14160,note_on,0,0,0,,,,,,,,,8,,62,0
14160,note_on,0,0,0,,,,,,,,,3,,80,0
14160,note_on,0,0,0,,,,,,,,,0,,80,0
14160,note_on,0,0,0,,,,,,,,,10,,50,0
14160,note_on,0,0,0,,,,,,,,,5,,80,0
14160,note_on,0,0,0,,,,,,,,,0,,81,100
14160,note_on,0,0,0,,,,,,,,,1,,61,100
14160,note_on,0,0,0,,,,,,,,,3,,81,100
14160,note_on,0,0,0,,,,,,,,,5,,81,100
14160,note_on,0,0,0,,,,,,,,,6,,64,100
14160,note_on,0,0,0,,,,,,,,,8,,61,100
14160,note_on,0,0,0,,,,,,,,,10,,49,100
14160,note_on,0,0,0,,,,,,,,,13,,81,100
14160,note_on,0,0,0,,,,,,,,,14,,61,100
14160,note_on,0,0,0,,,,,,,,,15,,64,100
14160,note_on,0,0,0,,,,,,,,,15,,73,100
14160,note_on,0,0,0,,,,,,,,,15,,69,100
14160,note_on,0,0,0,,,,,,,,,15,,61,100
14295,note_on,135,0,0,,,,,,,,,1,,61,0
14310,note_on,15,0,0,,,,,,,,,0,,81,0
14310,note_on,0,0,0,,,,,,,,,3,,81,0
14325,note_on,15,0,0,,,,,,,,,15,,64,0
14325,note_on,0,0,0,,,,,,,,,6,,64,0
14325,note_on,0,0,0,,,,,,,,,13,,81,0
14325,note_on,0,0,0,,,,,,,,,5,,81,0
14325,note_on,0,0,0,,,,,,,,,10,,49,0
14325,note_on,0,0,0,,,,,,,,,15,,61,0
14325,note_on,0,0,0,,,,,,,,,15,,73,0
14325,note_on,0,0,0,,,,,,,,,14,,61,0
14325,note_on,0,0,0,,,,,,,,,8,,61,0
14325,note_on,0,0,0,,,,,,,,,15,,69,0
14355,note_on,30,0,0,,,,,,,,,0,,73,100
14355,note_on,0,0,0,,,,,,,,,1,,61,100
14355,note_on,0,0,0,,,,,,,,,3,,73,100
14355,note_on,0,0,0,,,,,,,,,5,,73,100
14355,note_on,0,0,0,,,,,,,,,8,,57,100
14355,note_on,0,0,0,,,,,,,,,10,,45,100
14355,note_on,0,0,0,,,,,,,,,13,,73,100
14355,note_on,0,0,0,,,,,,,,,14,,57,100
14355,note_on,0,0,0,,,,,,,,,15,,57,100
14370,note_on,15,0,0,,,,,,,,,15,,57,0
14370,note_on,0,0,0,,,,,,,,,5,,73,0
14370,note_on,0,0,0,,,,,,,,,0,,73,0
14370,note_on,0,0,0,,,,,,,,,8,,57,0
14370,note_on,0,0,0,,,,,,,,,1,,61,0
14370,note_on,0,0,0,,,,,,,,,3,,73,0
14370,note_on,0,0,0,,,,,,,,,13,,73,0
14370,note_on,0,0,0,,,,,,,,,10,,45,0
14370,note_on,0,0,0,,,,,,,,,14,,57,0
14370,note_on,0,0,0,,,,,,,,,0,,74,100
14370,note_on,0,0,0,,,,,,,,,1,,62,100
14370,note_on,0,0,0,,,,,,,,,3,,74,100
14370,note_on,0,0,0,,,,,,,,,5,,74,100
14370,note_on,0,0,0,,,,,,,,,6,,69,100
14370,note_on,0,0,0,,,,,,,,,8,,59,100
14370,note_on,0,0,0,,,,,,,,,10,,47,100
14370,note_on,0,0,0,,,,,,,,,13,,74,100
14370,note_on,0,0,0,,,,,,,,,14,,59,100
14370,note_on,0,0,0,,,,,,,,,15,,59,100
14385,note_on,15,0,0,,,,,,,,,15,,59,0
14385,note_on,0,0,0,,,,,,,,,14,,59,0
14385,note_on,0,0,0,,,,,,,,,3,,74,0
14385,note_on,0,0,0,,,,,,,,,10,,47,0
14385,note_on,0,0,0,,,,,,,,,5,,74,0
14385,note_on,0,0,0,,,,,,,,,1,,62,0
14385,note_on,0,0,0,,,,,,,,,13,,74,0
14385,note_on,0,0,0,,,,,,,,,0,,74,0
14385,note_on,0,0,0,,,,,,,,,8,,59,0
14385,note_on,0,0,0,,,,,,,,,0,,76,100
14385,note_on,0,0,0,,,,,,,,,1,,64,100
14385,note_on,0,0,0,,,,,,,,,3,,76,100
14385,note_on,0,0,0,,,,,,,,,5,,76,100
14385,note_on,0,0,0,,,,,,,,,8,,61,100
14385,note_on,0,0,0,,,,,,,,,10,,49,100
14385,note_on,0,0,0,,,,,,,,,13,,76,100
14385,note_on,0,0,0,,,,,,,,,14,,61,100
14385,note_on,0,0,0,,,,,,,,,15,,61,100
14390,note_on,5,0,0,,,,,,,,,6,,69,0
14400,note_on,10,0,0,,,,,,,,,3,,76,0
14400,note_on,0,0,0,,,,,,,,,5,,76,0
14400,note_on,0,0,0,,,,,,,,,0,,76,0
14400,note_on,0,0,0,,,,,,,,,8,,61,0
14400,note_on,0,0,0,,,,,,,,,1,,64,0
14400,note_on,0,0,0,,,,,,,,,14,,61,0
14400,note_on,0,0,0,,,,,,,,,13,,76,0
14400,note_on,0,0,0,,,,,,,,,10,,49,0
14400,note_on,0,0,0,,,,,,,,,15,,61,0
14400,note_on,0,0,0,,,,,,,,,0,,78,100
14400,note_on,0,0,0,,,,,,,,,1,,50,100
14400,note_on,0,0,0,,,,,,,,,3,,78,100
14400,note_on,0,0,0,,,,,,,,,5,,78,100
14400,note_on,0,0,0,,,,,,,,,6,,69,100
14400,note_on,0,0,0,,,,,,,,,8,,50,100
14400,note_on,0,0,0,,,,,,,,,10,,38,100
14400,note_on,0,0,0,,,,,,,,,13,,78,100
14400,note_on,0,0,0,,,,,,,,,14,,50,100
14400,note_on,0,0,0,,,,,,,,,15,,62,100
14400,note_on,0,0,0,,,,,,,,,15,,66,100
14400,note_on,0,0,0,,,,,,,,,15,,71,100
14400,note_on,0,0,0,,,,,,,,,15,,50,100
14550,note_on,150,0,0,,,,,,,,,3,,78,0
14550,note_on,0,0,0,,,,,,,,,0,,78,0
14550,note_on,0,0,0,,,,,,,,,1,,50,0
14565,note_on,15,0,0,,,,,,,,,15,,62,0
14565,note_on,0,0,0,,,,,,,,,15,,71,0
14565,note_on,0,0,0,,,,,,,,,13,,78,0
14565,note_on,0,0,0,,,,,,,,,14,,50,0
14565,note_on,0,0,0,,,,,,,,,10,,38,0
14565,note_on,0,0,0,,,,,,,,,15,,50,0
14565,note_on,0,0,0,,,,,,,,,15,,66,0
14565,note_on,0,0,0,,,,,,,,,5,,78,0
14565,note_on,0,0,0,,,,,,,,,8,,50,0
14580,note_on,15,0,0,,,,,,,,,6,,69,0
14595,note_on,15,0,0,,,,,,,,,0,,66,100
14595,note_on,0,0,0,,,,,,,,,1,,54,100
14595,note_on,0,0,0,,,,,,,,,3,,66,100
14595,note_on,0,0,0,,,,,,,,,5,,66,100
14595,note_on,0,0,0,,,,,,,,,8,,54,100
14595,note_on,0,0,0,,,,,,,,,10,,42,100
14595,note_on,0,0,0,,,,,,,,,13,,66,100
14595,note_on,0,0,0,,,,,,,,,14,,54,100
14595,note_on,0,0,0,,,,,,,,,15,,54,100
14610,note_on,15,0,0,,,,,,,,,15,,54,0
14610,note_on,0,0,0,,,,,,,,,5,,66,0
14610,note_on,0,0,0,,,,,,,,,0,,66,0
14610,note_on,0,0,0,,,,,,,,,8,,54,0
14610,note_on,0,0,0,,,,,,,,,1,,54,0
14610,note_on,0,0,0,,,,,,,,,3,,66,0
14610,note_on,0,0,0,,,,,,,,,13,,66,0
14610,note_on,0,0,0,,,,,,,,,10,,42,0
14610,note_on,0,0,0,,,,,,,,,14,,54,0
14610,note_on,0,0,0,,,,,,,,,0,,68,100
14610,note_on,0,0,0,,,,,,,,,1,,52,100
14610,note_on,0,0,0,,,,,,,,,3,,68,100
14610,note_on,0,0,0,,,,,,,,,5,,68,100
14610,note_on,0,0,0,,,,,,,,,6,,61,100
14610,note_on,0,0,0,,,,,,,,,8,,52,100
14610,note_on,0,0,0,,,,,,,,,10,,40,100
14610,note_on,0,0,0,,,,,,,,,13,,68,100
14610,note_on,0,0,0,,,,,,,,,14,,52,100
14610,note_on,0,0,0,,,,,,,,,15,,52,100
14625,note_on,15,0,0,,,,,,,,,15,,52,0
14625,note_on,0,0,0,,,,,,,,,14,,52,0
14625,note_on,0,0,0,,,,,,,,,3,,68,0
14625,note_on,0,0,0,,,,,,,,,10,,40,0
14625,note_on,0,0,0,,,,,,,,,5,,68,0
14625,note_on,0,0,0,,,,,,,,,1,,52,0
14625,note_on,0,0,0,,,,,,,,,13,,68,0
14625,note_on,0,0,0,,,,,,,,,0,,68,0
14625,note_on,0,0,0,,,,,,,,,8,,52,0
14625,note_on,0,0,0,,,,,,,,,0,,69,100
14625,note_on,0,0,0,,,,,,,,,1,,54,100
14625,note_on,0,0,0,,,,,,,,,3,,69,100
14625,note_on,0,0,0,,,,,,,,,5,,69,100
14625,note_on,0,0,0,,,,,,,,,8,,54,100
14625,note_on,0,0,0,,,,,,,,,10,,42,100
14625,note_on,0,0,0,,,,,,,,,13,,69,100
14625,note_on,0,0,0,,,,,,,,,14,,54,100
14625,note_on,0,0,0,,,,,,,,,15,,54,100
14640,note_on,15,0,0,,,,,,,,,15,,54,0
14640,note_on,0,0,0,,,,,,,,,1,,54,0
14640,note_on,0,0,0,,,,,,,,,3,,69,0
14640,note_on,0,0,0,,,,,,,,,6,,61,0
14640,note_on,0,0,0,,,,,,,,,5,,69,0
14640,note_on,0,0,0,,,,,,,,,0,,69,0
14640,note_on,0,0,0,,,,,,,,,13,,69,0
14640,note_on,0,0,0,,,,,,,,,10,,42,0
14640,note_on,0,0,0,,,,,,,,,8,,54,0
14640,note_on,0,0,0,,,,,,,,,14,,54,0
14640,note_on,0,0,0,,,,,,,,,0,,71,100
14640,note_on,0,0,0,,,,,,,,,1,,51,100
14640,note_on,0,0,0,,,,,,,,,3,,71,100
14640,note_on,0,0,0,,,,,,,,,5,,71,100
14640,note_on,0,0,0,,,,,,,,,6,,66,100
14640,note_on,0,0,0,,,,,,,,,8,,51,100
14640,note_on,0,0,0,,,,,,,,,10,,39,100
14640,note_on,0,0,0,,,,,,,,,13,,71,100
14640,note_on,0,0,0,,,,,,,,,14,,51,100
14640,note_on,0,0,0,,,,,,,,,15,,59,100
14640,note_on,0,0,0,,,,,,,,,15,,66,100
14640,note_on,0,0,0,,,,,,,,,15,,71,100
14640,note_on,0,0,0,,,,,,,,,15,,51,100
14730,note_on,90,0,0,,,,,,,,,6,,66,0
14745,note_on,15,0,0,,,,,,,,,14,,51,0
14745,note_on,0,0,0,,,,,,,,,15,,51,0
14745,note_on,0,0,0,,,,,,,,,10,,39,0
14745,note_on,0,0,0,,,,,,,,,8,,51,0
14760,note_on,15,0,0,,,,,,,,,15,,71,0
14760,note_on,0,0,0,,,,,,,,,1,,51,0
14760,note_on,0,0,0,,,,,,,,,15,,66,0
14760,note_on,0,0,0,,,,,,,,,15,,59,0
14760,note_on,0,0,0,,,,,,,,,1,,47,100
14760,note_on,0,0,0,,,,,,,,,6,,63,100
14760,note_on,0,0,0,,,,,,,,,8,,47,100
14760,note_on,0,0,0,,,,,,,,,10,,35,100
14760,note_on,0,0,0,,,,,,,,,14,,47,100
14760,note_on,0,0,0,,,,,,,,,15,,66,100
14760,note_on,0,0,0,,,,,,,,,15,,63,100
14760,note_on,0,0,0,,,,,,,,,15,,69,100
14760,note_on,0,0,0,,,,,,,,,15,,47,100
14805,note_on,45,0,0,,,,,,,,,5,,71,0
14805,note_on,0,0,0,,,,,,,,,13,,71,0
14820,note_on,15,0,0,,,,,,,,,0,,71,0
14820,note_on,0,0,0,,,,,,,,,3,,71,0
14850,note_on,30,0,0,,,,,,,,,1,,47,0
14850,note_on,0,0,0,,,,,,,,,0,,69,100
14850,note_on,0,0,0,,,,,,,,,3,,69,100
14850,note_on,0,0,0,,,,,,,,,5,,69,100
14850,note_on,0,0,0,,,,,,,,,13,,69,100
14860,note_on,10,0,0,,,,,,,,,6,,63,0
14865,note_on,5,0,0,,,,,,,,,15,,47,0
14865,note_on,0,0,0,,,,,,,,,10,,35,0
14865,note_on,0,0,0,,,,,,,,,14,,47,0
14865,note_on,0,0,0,,,,,,,,,8,,47,0
14880,note_on,15,0,0,,,,,,,,,15,,66,0
14880,note_on,0,0,0,,,,,,,,,15,,69,0
14880,note_on,0,0,0,,,,,,,,,13,,69,0
14880,note_on,0,0,0,,,,,,,,,5,,69,0
14880,note_on,0,0,0,,,,,,,,,15,,63,0
14880,note_on,0,0,0,,,,,,,,,0,,69,0
14880,note_on,0,0,0,,,,,,,,,3,,69,0
14880,note_on,0,0,0,,,,,,,,,0,,68,100
14880,note_on,0,0,0,,,,,,,,,1,,52,100
14880,note_on,0,0,0,,,,,,,,,3,,68,100
14880,note_on,0,0,0,,,,,,,,,5,,68,100
14880,note_on,0,0,0,,,,,,,,,6,,64,100
14880,note_on,0,0,0,,,,,,,,,8,,52,100
14880,note_on,0,0,0,,,,,,,,,10,,40,100
14880,note_on,0,0,0,,,,,,,,,13,,68,100
14880,note_on,0,0,0,,,,,,,,,14,,52,100
14880,note_on,0,0,0,,,,,,,,,15,,59,100
14880,note_on,0,0,0,,,,,,,,,15,,64,100
14880,note_on,0,0,0,,,,,,,,,15,,68,100
14880,note_on,0,0,0,,,,,,,,,15,,52,100
14980,note_on,100,0,0,,,,,,,,,6,,64,0
14985,note_on,5,0,0,,,,,,,,,10,,40,0
14985,note_on,0,0,0,,,,,,,,,0,,68,0
14985,note_on,0,0,0,,,,,,,,,14,,52,0
14985,note_on,0,0,0,,,,,,,,,3,,68,0
14985,note_on,0,0,0,,,,,,,,,5,,68,0
14985,note_on,0,0,0,,,,,,,,,15,,64,0
14985,note_on,0,0,0,,,,,,,,,8,,52,0
14985,note_on,0,0,0,,,,,,,,,15,,68,0
14985,note_on,0,0,0,,,,,,,,,15,,59,0
14985,note_on,0,0,0,,,,,,,,,13,,68,0
14985,note_on,0,0,0,,,,,,,,,15,,52,0
15060,note_on,75,0,0,,,,,,,,,1,,52,0
15090,note_on,30,0,0,,,,,,,,,1,,54,100
15120,note_on,30,0,0,,,,,,,,,1,,54,0
15120,note_on,0,0,0,,,,,,,,,1,,56,100
15180,note_on,60,0,0,,,,,,,,,0,,71,100
15210,note_on,30,0,0,,,,,,,,,0,,71,0
15240,note_on,30,0,0,,,,,,,,,1,,56,0
15240,note_on,0,0,0,,,,,,,,,0,,76,100
15240,note_on,0,0,0,,,,,,,,,1,,52,100
15300,note_on,60,0,0,,,,,,,,,0,,76,0
15300,note_on,0,0,0,,,,,,,,,0,,80,100
15330,note_on,30,0,0,,,,,,,,,0,,80,0
15330,note_on,0,0,0,,,,,,,,,1,,52,0
15360,note_on,30,0,0,,,,,,,,,0,,80,100
15360,note_on,0,0,0,,,,,,,,,1,,57,100
15375,note_on,15,0,0,,,,,,,,,0,,80,0
15375,note_on,0,0,0,,,,,,,,,0,,78,100
15390,note_on,15,0,0,,,,,,,,,0,,78,0
15390,note_on,0,0,0,,,,,,,,,0,,80,100
15405,note_on,15,0,0,,,,,,,,,0,,80,0
15405,note_on,0,0,0,,,,,,,,,0,,78,100
15420,note_on,15,0,0,,,,,,,,,0,,78,0
15420,note_on,0,0,0,,,,,,,,,0,,80,100
15435,note_on,15,0,0,,,,,,,,,0,,80,0
15435,note_on,0,0,0,,,,,,,,,0,,78,100
15450,note_on,15,0,0,,,,,,,,,0,,78,0
15450,note_on,0,0,0,,,,,,,,,0,,80,100
15465,note_on,15,0,0,,,,,,,,,0,,80,0
15465,note_on,0,0,0,,,,,,,,,1,,57,0
15465,note_on,0,0,0,,,,,,,,,0,,78,100
15480,note_on,15,0,0,,,,,,,,,0,,78,0
15480,note_on,0,0,0,,,,,,,,,0,,76,100
15480,note_on,0,0,0,,,,,,,,,1,,56,100
15555,note_on,75,0,0,,,,,,,,,0,,76,0
15585,note_on,30,0,0,,,,,,,,,1,,56,0
15600,note_on,15,0,0,,,,,,,,,1,,52,100
15660,note_on,60,0,0,,,,,,,,,1,,71,100
15690,note_on,30,0,0,,,,,,,,,1,,71,0
15705,note_on,15,0,0,,,,,,,,,1,,52,0
15720,note_on,15,0,0,,,,,,,,,1,,76,100
15720,note_on,0,0,0,,,,,,,,,1,,56,100
15780,note_on,60,0,0,,,,,,,,,1,,76,0
15780,note_on,0,0,0,,,,,,,,,1,,80,100
15810,note_on,30,0,0,,,,,,,,,1,,80,0
15825,note_on,15,0,0,,,,,,,,,1,,56,0
15840,note_on,15,0,0,,,,,,,,,1,,80,100
15840,note_on,0,0,0,,,,,,,,,1,,57,100
15855,note_on,15,0,0,,,,,,,,,1,,80,0
15855,note_on,0,0,0,,,,,,,,,1,,78,100
15870,note_on,15,0,0,,,,,,,,,1,,78,0
15870,note_on,0,0,0,,,,,,,,,1,,80,100
15885,note_on,15,0,0,,,,,,,,,1,,80,0
15885,note_on,0,0,0,,,,,,,,,1,,78,100
15900,note_on,15,0,0,,,,,,,,,1,,78,0
15900,note_on,0,0,0,,,,,,,,,1,,80,100
15915,note_on,15,0,0,,,,,,,,,1,,80,0
15915,note_on,0,0,0,,,,,,,,,1,,78,100
15930,note_on,15,0,0,,,,,,,,,1,,78,0
15930,note_on,0,0,0,,,,,,,,,1,,80,100
15945,note_on,15,0,0,,,,,,,,,1,,80,0
15945,note_on,0,0,0,,,,,,,,,1,,57,0
15945,note_on,0,0,0,,,,,,,,,1,,78,100
15960,note_on,15,0,0,,,,,,,,,1,,78,0
15960,note_on,0,0,0,,,,,,,,,1,,76,100
15960,note_on,0,0,0,,,,,,,,,1,,56,100
16035,note_on,75,0,0,,,,,,,,,1,,76,0
16065,note_on,30,0,0,,,,,,,,,1,,56,0
16080,note_on,15,0,0,,,,,,,,,1,,52,100
16140,note_on,60,0,0,,,,,,,,,0,,83,100
16170,note_on,30,0,0,,,,,,,,,0,,83,0
16185,note_on,15,0,0,,,,,,,,,1,,52,0
16200,note_on,15,0,0,,,,,,,,,0,,80,100
16200,note_on,0,0,0,,,,,,,,,1,,56,100
16250,note_on,50,0,0,,,,,,,,,0,,80,0
16260,note_on,10,0,0,,,,,,,,,0,,78,100
16290,note_on,30,0,0,,,,,,,,,0,,78,0
16290,note_on,0,0,0,,,,,,,,,0,,76,100
16305,note_on,15,0,0,,,,,,,,,1,,56,0
16310,note_on,5,0,0,,,,,,,,,0,,76,0
16320,note_on,10,0,0,,,,,,,,,0,,78,100
16320,note_on,0,0,0,,,,,,,,,1,,57,100
16350,note_on,30,0,0,,,,,,,,,0,,78,0
16380,note_on,30,0,0,,,,,,,,,0,,75,100
16410,note_on,30,0,0,,,,,,,,,0,,75,0
16425,note_on,15,0,0,,,,,,,,,1,,57,0
16440,note_on,15,0,0,,,,,,,,,0,,76,100
16440,note_on,0,0,0,,,,,,,,,1,,56,100
16530,note_on,90,0,0,,,,,,,,,0,,76,0
16545,note_on,15,0,0,,,,,,,,,1,,56,0
16560,note_on,15,0,0,,,,,,,,,1,,52,100
16620,note_on,60,0,0,,,,,,,,,1,,83,100
16650,note_on,30,0,0,,,,,,,,,1,,83,0
16665,note_on,15,0,0,,,,,,,,,1,,52,0
16680,note_on,15,0,0,,,,,,,,,1,,56,100
16680,note_on,0,0,0,,,,,,,,,1,,80,100
16720,note_on,40,0,0,,,,,,,,,1,,80,0
16740,note_on,20,0,0,,,,,,,,,1,,78,100
16770,note_on,30,0,0,,,,,,,,,1,,78,0
16770,note_on,0,0,0,,,,,,,,,1,,76,100
16785,note_on,15,0,0,,,,,,,,,1,,56,0
16790,note_on,5,0,0,,,,,,,,,1,,76,0
16800,note_on,10,0,0,,,,,,,,,1,,57,100
16800,note_on,0,0,0,,,,,,,,,1,,78,100
16830,note_on,30,0,0,,,,,,,,,1,,78,0
16860,note_on,30,0,0,,,,,,,,,1,,75,100
16890,note_on,30,0,0,,,,,,,,,1,,75,0
16905,note_on,15,0,0,,,,,,,,,1,,57,0
16920,note_on,15,0,0,,,,,,,,,1,,56,100
16920,note_on,0,0,0,,,,,,,,,1,,76,100
17010,note_on,90,0,0,,,,,,,,,1,,76,0
17025,note_on,15,0,0,,,,,,,,,1,,56,0
17040,note_on,15,0,0,,,,,,,,,1,,52,100
17100,note_on,60,0,0,,,,,,,,,0,,83,100
17130,note_on,30,0,0,,,,,,,,,0,,83,0
17145,note_on,15,0,0,,,,,,,,,1,,52,0
17160,note_on,15,0,0,,,,,,,,,0,,85,100
17160,note_on,0,0,0,,,,,,,,,1,,56,100
17175,note_on,15,0,0,,,,,,,,,0,,85,0
17175,note_on,0,0,0,,,,,,,,,0,,83,100
17190,note_on,15,0,0,,,,,,,,,0,,83,0
17190,note_on,0,0,0,,,,,,,,,0,,85,100
17205,note_on,15,0,0,,,,,,,,,0,,85,0
17205,note_on,0,0,0,,,,,,,,,0,,83,100
17220,note_on,15,0,0,,,,,,,,,0,,83,0
17220,note_on,0,0,0,,,,,,,,,0,,85,100
17235,note_on,15,0,0,,,,,,,,,0,,85,0
17235,note_on,0,0,0,,,,,,,,,0,,83,100
17250,note_on,15,0,0,,,,,,,,,0,,83,0
17250,note_on,0,0,0,,,,,,,,,0,,81,100
17265,note_on,15,0,0,,,,,,,,,0,,81,0
17265,note_on,0,0,0,,,,,,,,,1,,56,0
17265,note_on,0,0,0,,,,,,,,,0,,83,100
17280,note_on,15,0,0,,,,,,,,,0,,83,0
17280,note_on,0,0,0,,,,,,,,,0,,85,100
17280,note_on,0,0,0,,,,,,,,,1,,57,100
17385,note_on,105,0,0,,,,,,,,,1,,57,0
17430,note_on,45,0,0,,,,,,,,,0,,85,0
17505,note_on,75,0,0,,,,,,,,,0,,76,100
17520,note_on,15,0,0,,,,,,,,,0,,76,0
17520,note_on,0,0,0,,,,,,,,,0,,83,100
17520,note_on,0,0,0,,,,,,,,,1,,56,100
17625,note_on,105,0,0,,,,,,,,,1,,56,0
17685,note_on,60,0,0,,,,,,,,,0,,83,0
17700,note_on,15,0,0,,,,,,,,,0,,78,100
17710,note_on,10,0,0,,,,,,,,,0,,76,100
17715,note_on,5,0,0,,,,,,,,,0,,78,0
17720,note_on,5,0,0,,,,,,,,,0,,78,100
17725,note_on,5,0,0,,,,,,,,,0,,76,0
17730,note_on,5,0,0,,,,,,,,,0,,78,0
17730,note_on,0,0,0,,,,,,,,,0,,76,100
17740,note_on,10,0,0,,,,,,,,,0,,76,0
17740,note_on,0,0,0,,,,,,,,,0,,75,100
17750,note_on,10,0,0,,,,,,,,,0,,75,0
17750,note_on,0,0,0,,,,,,,,,0,,76,100
17760,note_on,10,0,0,,,,,,,,,0,,76,0
17760,note_on,0,0,0,,,,,,,,,0,,81,100
17760,note_on,0,0,0,,,,,,,,,1,,54,100
17865,note_on,105,0,0,,,,,,,,,1,,54,0
17880,note_on,15,0,0,,,,,,,,,1,,59,100
17940,note_on,60,0,0,,,,,,,,,0,,81,0
17970,note_on,30,0,0,,,,,,,,,0,,80,100
17985,note_on,15,0,0,,,,,,,,,1,,59,0
18000,note_on,15,0,0,,,,,,,,,0,,80,0
18000,note_on,0,0,0,,,,,,,,,0,,81,100
18000,note_on,0,0,0,,,,,,,,,1,,52,100
18015,note_on,15,0,0,,,,,,,,,0,,81,0
18015,note_on,0,0,0,,,,,,,,,0,,80,100
18105,note_on,90,0,0,,,,,,,,,1,,52,0
18120,note_on,15,0,0,,,,,,,,,1,,59,100
18180,note_on,60,0,0,,,,,,,,,0,,80,0
18210,note_on,30,0,0,,,,,,,,,0,,78,100
18225,note_on,15,0,0,,,,,,,,,1,,59,0
18240,note_on,15,0,0,,,,,,,,,0,,78,0
18240,note_on,0,0,0,,,,,,,,,0,,80,100
18240,note_on,0,0,0,,,,,,,,,1,,51,100
18255,note_on,15,0,0,,,,,,,,,0,,80,0
18255,note_on,0,0,0,,,,,,,,,0,,78,100
18345,note_on,90,0,0,,,,,,,,,1,,51,0
18360,note_on,15,0,0,,,,,,,,,1,,59,100
18420,note_on,60,0,0,,,,,,,,,0,,78,0
18450,note_on,30,0,0,,,,,,,,,0,,83,100
18465,note_on,15,0,0,,,,,,,,,1,,59,0
18480,note_on,15,0,0,,,,,,,,,0,,83,0
18480,note_on,0,0,0,,,,,,,,,0,,78,100
18480,note_on,0,0,0,,,,,,,,,1,,49,100
18495,note_on,15,0,0,,,,,,,,,0,,78,0
18495,note_on,0,0,0,,,,,,,,,0,,76,100
18585,note_on,90,0,0,,,,,,,,,1,,49,0
18600,note_on,15,0,0,,,,,,,,,1,,59,100
18660,note_on,60,0,0,,,,,,,,,0,,76,0
18690,note_on,30,0,0,,,,,,,,,0,,83,100
18705,note_on,15,0,0,,,,,,,,,1,,59,0
18720,note_on,15,0,0,,,,,,,,,0,,83,0
18720,note_on,0,0,0,,,,,,,,,0,,76,100
18720,note_on,0,0,0,,,,,,,,,1,,47,100
18735,note_on,15,0,0,,,,,,,,,0,,76,0
18735,note_on,0,0,0,,,,,,,,,0,,75,100
18825,note_on,90,0,0,,,,,,,,,1,,47,0
18840,note_on,15,0,0,,,,,,,,,1,,56,100
18900,note_on,60,0,0,,,,,,,,,0,,75,0
18930,note_on,30,0,0,,,,,,,,,0,,83,100
18945,note_on,15,0,0,,,,,,,,,1,,56,0
18960,note_on,15,0,0,,,,,,,,,0,,83,0
18960,note_on,0,0,0,,,,,,,,,0,,75,100
18960,note_on,0,0,0,,,,,,,,,1,,45,100
18975,note_on,15,0,0,,,,,,,,,0,,75,0
18975,note_on,0,0,0,,,,,,,,,0,,73,100
19065,note_on,90,0,0,,,,,,,,,1,,45,0
19080,note_on,15,0,0,,,,,,,,,1,,54,100
19140,note_on,60,0,0,,,,,,,,,0,,73,0
19170,note_on,30,0,0,,,,,,,,,0,,83,100
19185,note_on,15,0,0,,,,,,,,,1,,54,0
19200,note_on,15,0,0,,,,,,,,,0,,83,0
19200,note_on,0,0,0,,,,,,,,,0,,73,100
19200,note_on,0,0,0,,,,,,,,,1,,44,100
19215,note_on,15,0,0,,,,,,,,,0,,73,0
19215,note_on,0,0,0,,,,,,,,,0,,71,100
19305,note_on,90,0,0,,,,,,,,,1,,44,0
19320,note_on,15,0,0,,,,,,,,,1,,52,100
19380,note_on,60,0,0,,,,,,,,,0,,71,0
19410,note_on,30,0,0,,,,,,,,,0,,83,100
19425,note_on,15,0,0,,,,,,,,,1,,52,0
19440,note_on,15,0,0,,,,,,,,,0,,83,0
19440,note_on,0,0,0,,,,,,,,,0,,71,100
19440,note_on,0,0,0,,,,,,,,,1,,42,100
19455,note_on,15,0,0,,,,,,,,,0,,71,0
19455,note_on,0,0,0,,,,,,,,,0,,69,100
19470,note_on,15,0,0,,,,,,,,,0,,69,0
19470,note_on,0,0,0,,,,,,,,,0,,71,100
19485,note_on,15,0,0,,,,,,,,,0,,71,0
19485,note_on,0,0,0,,,,,,,,,0,,69,100
19500,note_on,15,0,0,,,,,,,,,0,,69,0
19500,note_on,0,0,0,,,,,,,,,0,,71,100
19515,note_on,15,0,0,,,,,,,,,0,,71,0
19515,note_on,0,0,0,,,,,,,,,0,,69,100
19530,note_on,15,0,0,,,,,,,,,0,,69,0
19530,note_on,0,0,0,,,,,,,,,0,,71,100
19545,note_on,15,0,0,,,,,,,,,0,,71,0
19545,note_on,0,0,0,,,,,,,,,1,,42,0
19545,note_on,0,0,0,,,,,,,,,0,,69,100
19560,note_on,15,0,0,,,,,,,,,0,,69,0
19560,note_on,0,0,0,,,,,,,,,0,,71,100
19560,note_on,0,0,0,,,,,,,,,1,,51,100
19570,note_on,10,0,0,,,,,,,,,0,,71,0
19570,note_on,0,0,0,,,,,,,,,0,,69,100
19580,note_on,10,0,0,,,,,,,,,0,,69,0
19580,note_on,0,0,0,,,,,,,,,0,,71,100
19590,note_on,10,0,0,,,,,,,,,0,,71,0
19590,note_on,0,0,0,,,,,,,,,0,,69,100
19600,note_on,10,0,0,,,,,,,,,0,,69,0
19600,note_on,0,0,0,,,,,,,,,0,,71,100
19610,note_on,10,0,0,,,,,,,,,0,,71,0
19610,note_on,0,0,0,,,,,,,,,0,,69,100
19620,note_on,10,0,0,,,,,,,,,0,,69,0
19620,note_on,0,0,0,,,,,,,,,0,,71,100
19630,note_on,10,0,0,,,,,,,,,0,,71,0
19630,note_on,0,0,0,,,,,,,,,0,,69,100
19640,note_on,10,0,0,,,,,,,,,0,,69,0
19640,note_on,0,0,0,,,,,,,,,0,,68,100
19650,note_on,10,0,0,,,,,,,,,0,,68,0
19650,note_on,0,0,0,,,,,,,,,0,,69,100
19660,note_on,10,0,0,,,,,,,,,0,,69,0
19665,note_on,5,0,0,,,,,,,,,1,,51,0
19680,note_on,15,0,0,,,,,,,,,0,,69,100
19680,note_on,0,0,0,,,,,,,,,1,,40,100
19695,note_on,15,0,0,,,,,,,,,0,,69,0
19695,note_on,0,0,0,,,,,,,,,0,,68,100
19710,note_on,15,0,0,,,,,,,,,0,,68,0
19710,note_on,0,0,0,,,,,,,,,0,,69,100
19725,note_on,15,0,0,,,,,,,,,0,,69,0
19725,note_on,0,0,0,,,,,,,,,0,,68,100
19770,note_on,45,0,0,,,,,,,,,0,,68,0
19785,note_on,15,0,0,,,,,,,,,1,,40,0
19815,note_on,30,0,0,,,,,,,,,0,,64,100
19815,note_on,0,0,0,,,,,,,,,3,,64,100
19815,note_on,0,0,0,,,,,,,,,5,,64,100
19815,note_on,0,0,0,,,,,,,,,13,,64,100
19830,note_on,15,0,0,,,,,,,,,13,,64,0
19830,note_on,0,0,0,,,,,,,,,0,,64,0
19830,note_on,0,0,0,,,,,,,,,3,,64,0
19830,note_on,0,0,0,,,,,,,,,5,,64,0
19830,note_on,0,0,0,,,,,,,,,0,,66,100
19830,note_on,0,0,0,,,,,,,,,3,,66,100
19830,note_on,0,0,0,,,,,,,,,5,,66,100
19830,note_on,0,0,0,,,,,,,,,13,,66,100
19845,note_on,15,0,0,,,,,,,,,13,,66,0
19845,note_on,0,0,0,,,,,,,,,0,,66,0
19845,note_on,0,0,0,,,,,,,,,3,,66,0
19845,note_on,0,0,0,,,,,,,,,5,,66,0
19845,note_on,0,0,0,,,,,,,,,0,,68,100
19845,note_on,0,0,0,,,,,,,,,3,,68,100
19845,note_on,0,0,0,,,,,,,,,5,,68,100
19845,note_on,0,0,0,,,,,,,,,13,,68,100
19860,note_on,15,0,0,,,,,,,,,13,,68,0
19860,note_on,0,0,0,,,,,,,,,0,,68,0
19860,note_on,0,0,0,,,,,,,,,3,,68,0
19860,note_on,0,0,0,,,,,,,,,5,,68,0
19860,note_on,0,0,0,,,,,,,,,0,,69,100
19860,note_on,0,0,0,,,,,,,,,3,,69,100
19860,note_on,0,0,0,,,,,,,,,5,,69,100
19860,note_on,0,0,0,,,,,,,,,13,,69,100
19875,note_on,15,0,0,,,,,,,,,13,,69,0
19875,note_on,0,0,0,,,,,,,,,0,,69,0
19875,note_on,0,0,0,,,,,,,,,3,,69,0
19875,note_on,0,0,0,,,,,,,,,5,,69,0
19875,note_on,0,0,0,,,,,,,,,0,,71,100
19875,note_on,0,0,0,,,,,,,,,3,,71,100
19875,note_on,0,0,0,,,,,,,,,5,,71,100
19875,note_on,0,0,0,,,,,,,,,13,,71,100
19890,note_on,15,0,0,,,,,,,,,13,,71,0
19890,note_on,0,0,0,,,,,,,,,0,,71,0
19890,note_on,0,0,0,,,,,,,,,3,,71,0
19890,note_on,0,0,0,,,,,,,,,5,,71,0
19890,note_on,0,0,0,,,,,,,,,0,,52,100
19890,note_on,0,0,0,,,,,,,,,0,,73,100
19890,note_on,0,0,0,,,,,,,,,3,,52,100
19890,note_on,0,0,0,,,,,,,,,3,,73,100
19890,note_on,0,0,0,,,,,,,,,5,,73,100
19890,note_on,0,0,0,,,,,,,,,8,,52,100
19890,note_on,0,0,0,,,,,,,,,10,,40,100
19890,note_on,0,0,0,,,,,,,,,13,,73,100
19890,note_on,0,0,0,,,,,,,,,14,,52,100
19890,note_on,0,0,0,,,,,,,,,15,,52,100
19900,note_on,10,0,0,,,,,,,,,6,,68,100
19905,note_on,5,0,0,,,,,,,,,13,,73,0
19905,note_on,0,0,0,,,,,,,,,5,,73,0
19905,note_on,0,0,0,,,,,,,,,3,,73,0
19905,note_on,0,0,0,,,,,,,,,0,,73,0
19905,note_on,0,0,0,,,,,,,,,0,,75,100
19905,note_on,0,0,0,,,,,,,,,3,,75,100
19905,note_on,0,0,0,,,,,,,,,5,,75,100
19905,note_on,0,0,0,,,,,,,,,13,,75,100
19910,note_on,5,0,0,,,,,,,,,14,,52,0
19910,note_on,0,0,0,,,,,,,,,0,,52,0
19910,note_on,0,0,0,,,,,,,,,15,,52,0
19910,note_on,0,0,0,,,,,,,,,10,,40,0
19910,note_on,0,0,0,,,,,,,,,3,,52,0
19910,note_on,0,0,0,,,,,,,,,8,,52,0
19920,note_on,10,0,0,,,,,,,,,0,,75,0
19920,note_on,0,0,0,,,,,,,,,13,,75,0
19920,note_on,0,0,0,,,,,,,,,3,,75,0
19920,note_on,0,0,0,,,,,,,,,6,,68,0
19920,note_on,0,0,0,,,,,,,,,5,,75,0
19920,note_on,0,0,0,,,,,,,,,0,,56,100
19920,note_on,0,0,0,,,,,,,,,0,,76,100
19920,note_on,0,0,0,,,,,,,,,3,,56,100
19920,note_on,0,0,0,,,,,,,,,3,,76,100
19920,note_on,0,0,0,,,,,,,,,5,,76,100
19920,note_on,0,0,0,,,,,,,,,6,,71,100
19920,note_on,0,0,0,,,,,,,,,8,,56,100
19920,note_on,0,0,0,,,,,,,,,10,,44,100
19920,note_on,0,0,0,,,,,,,,,13,,76,100
19920,note_on,0,0,0,,,,,,,,,14,,56,100
19920,note_on,0,0,0,,,,,,,,,15,,64,100
19920,note_on,0,0,0,,,,,,,,,15,,71,100
19920,note_on,0,0,0,,,,,,,,,15,,76,100
19920,note_on,0,0,0,,,,,,,,,15,,56,100
19995,note_on,75,0,0,,,,,,,,,15,,56,0
19995,note_on,0,0,0,,,,,,,,,5,,76,0
19995,note_on,0,0,0,,,,,,,,,13,,76,0
19995,note_on,0,0,0,,,,,,,,,8,,56,0
19995,note_on,0,0,0,,,,,,,,,0,,56,0
19995,note_on,0,0,0,,,,,,,,,3,,56,0
19995,note_on,0,0,0,,,,,,,,,3,,76,0
19995,note_on,0,0,0,,,,,,,,,10,,44,0
19995,note_on,0,0,0,,,,,,,,,6,,71,0
19995,note_on,0,0,0,,,,,,,,,0,,76,0
19995,note_on,0,0,0,,,,,,,,,14,,56,0
20020,note_on,25,0,0,,,,,,,,,0,,76,100
20020,note_on,0,0,0,,,,,,,,,0,,54,100
20020,note_on,0,0,0,,,,,,,,,3,,76,100
20020,note_on,0,0,0,,,,,,,,,3,,54,100
20020,note_on,0,0,0,,,,,,,,,5,,76,100
20020,note_on,0,0,0,,,,,,,,,6,,69,100
20020,note_on,0,0,0,,,,,,,,,8,,54,100
20020,note_on,0,0,0,,,,,,,,,10,,42,100
20020,note_on,0,0,0,,,,,,,,,13,,76,100
20020,note_on,0,0,0,,,,,,,,,14,,54,100
20020,note_on,0,0,0,,,,,,,,,15,,54,100
20025,note_on,5,0,0,,,,,,,,,15,,64,0
20025,note_on,0,0,0,,,,,,,,,15,,76,0
20025,note_on,0,0,0,,,,,,,,,15,,71,0
20035,note_on,10,0,0,,,,,,,,,3,,76,0
20035,note_on,0,0,0,,,,,,,,,8,,54,0
20035,note_on,0,0,0,,,,,,,,,0,,54,0
20035,note_on,0,0,0,,,,,,,,,3,,54,0
20035,note_on,0,0,0,,,,,,,,,5,,76,0
20035,note_on,0,0,0,,,,,,,,,15,,54,0
20035,note_on,0,0,0,,,,,,,,,14,,54,0
20035,note_on,0,0,0,,,,,,,,,10,,42,0
20035,note_on,0,0,0,,,,,,,,,0,,76,0
20035,note_on,0,0,0,,,,,,,,,13,,76,0
20040,note_on,5,0,0,,,,,,,,,6,,69,0
20040,note_on,0,0,0,,,,,,,,,0,,76,100
20040,note_on,0,0,0,,,,,,,,,0,,56,100
20040,note_on,0,0,0,,,,,,,,,3,,76,100
20040,note_on,0,0,0,,,,,,,,,3,,56,100
20040,note_on,0,0,0,,,,,,,,,5,,76,100
20040,note_on,0,0,0,,,,,,,,,6,,71,100
20040,note_on,0,0,0,,,,,,,,,8,,56,100
20040,note_on,0,0,0,,,,,,,,,10,,44,100
20040,note_on,0,0,0,,,,,,,,,13,,76,100
20040,note_on,0,0,0,,,,,,,,,14,,56,100
20040,note_on,0,0,0,,,,,,,,,15,,71,100
20040,note_on,0,0,0,,,,,,,,,15,,64,100
20040,note_on,0,0,0,,,,,,,,,15,,76,100
20040,note_on,0,0,0,,,,,,,,,15,,74,100
20040,note_on,0,0,0,,,,,,,,,15,,56,100
20115,note_on,75,0,0,,,,,,,,,15,,56,0
20115,note_on,0,0,0,,,,,,,,,5,,76,0
20115,note_on,0,0,0,,,,,,,,,13,,76,0
20115,note_on,0,0,0,,,,,,,,,8,,56,0
20115,note_on,0,0,0,,,,,,,,,0,,76,0
20115,note_on,0,0,0,,,,,,,,,3,,56,0
20115,note_on,0,0,0,,,,,,,,,10,,44,0
20115,note_on,0,0,0,,,,,,,,,3,,76,0
20115,note_on,0,0,0,,,,,,,,,14,,56,0
20115,note_on,0,0,0,,,,,,,,,6,,71,0
20115,note_on,0,0,0,,,,,,,,,0,,56,0
20140,note_on,25,0,0,,,,,,,,,0,,76,100
20140,note_on,0,0,0,,,,,,,,,0,,52,100
20140,note_on,0,0,0,,,,,,,,,3,,76,100
20140,note_on,0,0,0,,,,,,,,,3,,52,100
20140,note_on,0,0,0,,,,,,,,,5,,76,100
20140,note_on,0,0,0,,,,,,,,,6,,68,100
20140,note_on,0,0,0,,,,,,,,,8,,52,100
20140,note_on,0,0,0,,,,,,,,,10,,40,100
20140,note_on,0,0,0,,,,,,,,,13,,76,100
20140,note_on,0,0,0,,,,,,,,,14,,52,100
20140,note_on,0,0,0,,,,,,,,,15,,52,100
20145,note_on,5,0,0,,,,,,,,,15,,71,0
20145,note_on,0,0,0,,,,,,,,,15,,76,0
20145,note_on,0,0,0,,,,,,,,,15,,64,0
20145,note_on,0,0,0,,,,,,,,,15,,74,0
20155,note_on,10,0,0,,,,,,,,,0,,52,0
20155,note_on,0,0,0,,,,,,,,,0,,76,0
20155,note_on,0,0,0,,,,,,,,,3,,76,0
20155,note_on,0,0,0,,,,,,,,,5,,76,0
20155,note_on,0,0,0,,,,,,,,,14,,52,0
20155,note_on,0,0,0,,,,,,,,,15,,52,0
20155,note_on,0,0,0,,,,,,,,,13,,76,0
20155,note_on,0,0,0,,,,,,,,,8,,52,0
20155,note_on,0,0,0,,,,,,,,,3,,52,0
20155,note_on,0,0,0,,,,,,,,,10,,40,0
20160,note_on,5,0,0,,,,,,,,,6,,68,0
20160,note_on,0,0,0,,,,,,,,,0,,57,100
20160,note_on,0,0,0,,,,,,,,,0,,76,100
20160,note_on,0,0,0,,,,,,,,,3,,57,100
20160,note_on,0,0,0,,,,,,,,,3,,76,100
20160,note_on,0,0,0,,,,,,,,,5,,76,100
20160,note_on,0,0,0,,,,,,,,,6,,73,100
20160,note_on,0,0,0,,,,,,,,,8,,57,100
20160,note_on,0,0,0,,,,,,,,,10,,45,100
20160,note_on,0,0,0,,,,,,,,,13,,76,100
20160,note_on,0,0,0,,,,,,,,,14,,57,100
20160,note_on,0,0,0,,,,,,,,,15,,64,100
20160,note_on,0,0,0,,,,,,,,,15,,73,100
20160,note_on,0,0,0,,,,,,,,,15,,76,100
20160,note_on,0,0,0,,,,,,,,,15,,57,100
20235,note_on,75,0,0,,,,,,,,,15,,57,0
20235,note_on,0,0,0,,,,,,,,,5,,76,0
20235,note_on,0,0,0,,,,,,,,,13,,76,0
20235,note_on,0,0,0,,,,,,,,,8,,57,0
20235,note_on,0,0,0,,,,,,,,,0,,57,0
20235,note_on,0,0,0,,,,,,,,,3,,57,0
20235,note_on,0,0,0,,,,,,,,,3,,76,0
20235,note_on,0,0,0,,,,,,,,,10,,45,0
20235,note_on,0,0,0,,,,,,,,,6,,73,0
20235,note_on,0,0,0,,,,,,,,,0,,76,0
20235,note_on,0,0,0,,,,,,,,,14,,57,0
20260,note_on,25,0,0,,,,,,,,,0,,59,100
20260,note_on,0,0,0,,,,,,,,,3,,59,100
20260,note_on,0,0,0,,,,,,,,,6,,71,100
20260,note_on,0,0,0,,,,,,,,,8,,59,100
20260,note_on,0,0,0,,,,,,,,,10,,47,100
20260,note_on,0,0,0,,,,,,,,,14,,59,100
20260,note_on,0,0,0,,,,,,,,,15,,59,100
20275,note_on,15,0,0,,,,,,,,,15,,59,0
20275,note_on,0,0,0,,,,,,,,,14,,59,0
20275,note_on,0,0,0,,,,,,,,,8,,59,0
20275,note_on,0,0,0,,,,,,,,,0,,59,0
20275,note_on,0,0,0,,,,,,,,,10,,47,0
20275,note_on,0,0,0,,,,,,,,,3,,59,0
20280,note_on,5,0,0,,,,,,,,,6,,71,0
20280,note_on,0,0,0,,,,,,,,,15,,73,0
20280,note_on,0,0,0,,,,,,,,,0,,61,100
20280,note_on,0,0,0,,,,,,,,,3,,61,100
20280,note_on,0,0,0,,,,,,,,,6,,69,100
20280,note_on,0,0,0,,,,,,,,,8,,61,100
20280,note_on,0,0,0,,,,,,,,,10,,49,100
20280,note_on,0,0,0,,,,,,,,,14,,61,100
20280,note_on,0,0,0,,,,,,,,,15,,69,100
20280,note_on,0,0,0,,,,,,,,,15,,61,100
20295,note_on,15,0,0,,,,,,,,,0,,69,100
20295,note_on,0,0,0,,,,,,,,,3,,69,100
20295,note_on,0,0,0,,,,,,,,,5,,69,100
20295,note_on,0,0,0,,,,,,,,,13,,69,100
20310,note_on,15,0,0,,,,,,,,,13,,69,0
20310,note_on,0,0,0,,,,,,,,,5,,69,0
20310,note_on,0,0,0,,,,,,,,,0,,69,0
20310,note_on,0,0,0,,,,,,,,,3,,69,0
20310,note_on,0,0,0,,,,,,,,,0,,71,100
20310,note_on,0,0,0,,,,,,,,,3,,71,100
20310,note_on,0,0,0,,,,,,,,,5,,71,100
20310,note_on,0,0,0,,,,,,,,,13,,71,100
20325,note_on,15,0,0,,,,,,,,,13,,71,0
20325,note_on,0,0,0,,,,,,,,,5,,71,0
20325,note_on,0,0,0,,,,,,,,,0,,71,0
20325,note_on,0,0,0,,,,,,,,,3,,71,0
20325,note_on,0,0,0,,,,,,,,,0,,73,100
20325,note_on,0,0,0,,,,,,,,,3,,73,100
20325,note_on,0,0,0,,,,,,,,,5,,73,100
20325,note_on,0,0,0,,,,,,,,,13,,73,100
20340,note_on,15,0,0,,,,,,,,,13,,73,0
20340,note_on,0,0,0,,,,,,,,,5,,73,0
20340,note_on,0,0,0,,,,,,,,,0,,73,0
20340,note_on,0,0,0,,,,,,,,,3,,73,0
20340,note_on,0,0,0,,,,,,,,,0,,74,100
20340,note_on,0,0,0,,,,,,,,,3,,74,100
20340,note_on,0,0,0,,,,,,,,,5,,74,100
20340,note_on,0,0,0,,,,,,,,,13,,74,100
20355,note_on,15,0,0,,,,,,,,,13,,74,0
20355,note_on,0,0,0,,,,,,,,,8,,61,0
20355,note_on,0,0,0,,,,,,,,,6,,69,0
20355,note_on,0,0,0,,,,,,,,,15,,61,0
20355,note_on,0,0,0,,,,,,,,,10,,49,0
20355,note_on,0,0,0,,,,,,,,,0,,61,0
20355,note_on,0,0,0,,,,,,,,,3,,61,0
20355,note_on,0,0,0,,,,,,,,,14,,61,0
20355,note_on,0,0,0,,,,,,,,,3,,74,0
20355,note_on,0,0,0,,,,,,,,,0,,74,0
20355,note_on,0,0,0,,,,,,,,,5,,74,0
20355,note_on,0,0,0,,,,,,,,,0,,76,100
20355,note_on,0,0,0,,,,,,,,,3,,76,100
20355,note_on,0,0,0,,,,,,,,,5,,76,100
20355,note_on,0,0,0,,,,,,,,,13,,76,100
20370,note_on,15,0,0,,,,,,,,,13,,76,0
20370,note_on,0,0,0,,,,,,,,,3,,76,0
20370,note_on,0,0,0,,,,,,,,,15,,69,0
20370,note_on,0,0,0,,,,,,,,,15,,64,0
20370,note_on,0,0,0,,,,,,,,,15,,76,0
20370,note_on,0,0,0,,,,,,,,,5,,76,0
20370,note_on,0,0,0,,,,,,,,,0,,76,0
20370,note_on,0,0,0,,,,,,,,,0,,78,100
20370,note_on,0,0,0,,,,,,,,,3,,78,100
20370,note_on,0,0,0,,,,,,,,,5,,78,100
20370,note_on,0,0,0,,,,,,,,,13,,78,100
20380,note_on,10,0,0,,,,,,,,,0,,59,100
20380,note_on,0,0,0,,,,,,,,,3,,59,100
20380,note_on,0,0,0,,,,,,,,,6,,68,100
20380,note_on,0,0,0,,,,,,,,,8,,59,100
20380,note_on,0,0,0,,,,,,,,,10,,47,100
20380,note_on,0,0,0,,,,,,,,,14,,59,100
20380,note_on,0,0,0,,,,,,,,,15,,59,100
20385,note_on,5,0,0,,,,,,,,,13,,78,0
20385,note_on,0,0,0,,,,,,,,,5,,78,0
20385,note_on,0,0,0,,,,,,,,,0,,78,0
20385,note_on,0,0,0,,,,,,,,,3,,78,0
20385,note_on,0,0,0,,,,,,,,,0,,80,100
20385,note_on,0,0,0,,,,,,,,,3,,80,100
20385,note_on,0,0,0,,,,,,,,,5,,80,100
20385,note_on,0,0,0,,,,,,,,,13,,80,100
20395,note_on,10,0,0,,,,,,,,,8,,59,0
20395,note_on,0,0,0,,,,,,,,,0,,59,0
20395,note_on,0,0,0,,,,,,,,,14,,59,0
20395,note_on,0,0,0,,,,,,,,,15,,59,0
20395,note_on,0,0,0,,,,,,,,,10,,47,0
20395,note_on,0,0,0,,,,,,,,,3,,59,0
20400,note_on,5,0,0,,,,,,,,,0,,80,0
20400,note_on,0,0,0,,,,,,,,,5,,80,0
20400,note_on,0,0,0,,,,,,,,,13,,80,0
20400,note_on,0,0,0,,,,,,,,,6,,68,0
20400,note_on,0,0,0,,,,,,,,,3,,80,0
20400,note_on,0,0,0,,,,,,,,,0,,81,100
20400,note_on,0,0,0,,,,,,,,,0,,57,100
20400,note_on,0,0,0,,,,,,,,,3,,81,100
20400,note_on,0,0,0,,,,,,,,,3,,57,100
20400,note_on,0,0,0,,,,,,,,,5,,81,100
20400,note_on,0,0,0,,,,,,,,,6,,73,100
20400,note_on,0,0,0,,,,,,,,,8,,57,100
20400,note_on,0,0,0,,,,,,,,,10,,45,100
20400,note_on,0,0,0,,,,,,,,,13,,81,100
20400,note_on,0,0,0,,,,,,,,,14,,57,100
20400,note_on,0,0,0,,,,,,,,,15,,64,100
20400,note_on,0,0,0,,,,,,,,,15,,69,100
20400,note_on,0,0,0,,,,,,,,,15,,73,100
20400,note_on,0,0,0,,,,,,,,,15,,57,100
20475,note_on,75,0,0,,,,,,,,,15,,57,0
20475,note_on,0,0,0,,,,,,,,,0,,57,0
20475,note_on,0,0,0,,,,,,,,,13,,81,0
20475,note_on,0,0,0,,,,,,,,,8,,57,0
20475,note_on,0,0,0,,,,,,,,,0,,81,0
20475,note_on,0,0,0,,,,,,,,,3,,81,0
20475,note_on,0,0,0,,,,,,,,,3,,57,0
20475,note_on,0,0,0,,,,,,,,,10,,45,0
20475,note_on,0,0,0,,,,,,,,,5,,81,0
20475,note_on,0,0,0,,,,,,,,,14,,57,0
20480,note_on,5,0,0,,,,,,,,,6,,73,0
20500,note_on,20,0,0,,,,,,,,,0,,81,100
20500,note_on,0,0,0,,,,,,,,,0,,56,100
20500,note_on,0,0,0,,,,,,,,,3,,81,100
20500,note_on,0,0,0,,,,,,,,,3,,56,100
20500,note_on,0,0,0,,,,,,,,,5,,81,100
20500,note_on,0,0,0,,,,,,,,,6,,71,100
20500,note_on,0,0,0,,,,,,,,,8,,56,100
20500,note_on,0,0,0,,,,,,,,,10,,44,100
20500,note_on,0,0,0,,,,,,,,,13,,81,100
20500,note_on,0,0,0,,,,,,,,,14,,56,100
20500,note_on,0,0,0,,,,,,,,,15,,56,100
20515,note_on,15,0,0,,,,,,,,,15,,56,0
20515,note_on,0,0,0,,,,,,,,,0,,56,0
20515,note_on,0,0,0,,,,,,,,,3,,81,0
20515,note_on,0,0,0,,,,,,,,,8,,56,0
20515,note_on,0,0,0,,,,,,,,,3,,56,0
20515,note_on,0,0,0,,,,,,,,,0,,81,0
20515,note_on,0,0,0,,,,,,,,,5,,81,0
20515,note_on,0,0,0,,,,,,,,,14,,56,0
20515,note_on,0,0,0,,,,,,,,,13,,81,0
20515,note_on,0,0,0,,,,,,,,,10,,44,0
20520,note_on,5,0,0,,,,,,,,,6,,71,0
20520,note_on,0,0,0,,,,,,,,,0,,81,100
20520,note_on,0,0,0,,,,,,,,,0,,54,100
20520,note_on,0,0,0,,,,,,,,,3,,81,100
20520,note_on,0,0,0,,,,,,,,,3,,54,100
20520,note_on,0,0,0,,,,,,,,,5,,81,100
20520,note_on,0,0,0,,,,,,,,,6,,69,100
20520,note_on,0,0,0,,,,,,,,,8,,54,100
20520,note_on,0,0,0,,,,,,,,,10,,42,100
20520,note_on,0,0,0,,,,,,,,,13,,81,100
20520,note_on,0,0,0,,,,,,,,,14,,54,100
20520,note_on,0,0,0,,,,,,,,,15,,54,100
20595,note_on,75,0,0,,,,,,,,,15,,54,0
20595,note_on,0,0,0,,,,,,,,,0,,54,0
20595,note_on,0,0,0,,,,,,,,,3,,81,0
20595,note_on,0,0,0,,,,,,,,,8,,54,0
20595,note_on,0,0,0,,,,,,,,,3,,54,0
20595,note_on,0,0,0,,,,,,,,,0,,81,0
20595,note_on,0,0,0,,,,,,,,,5,,81,0
20595,note_on,0,0,0,,,,,,,,,14,,54,0
20595,note_on,0,0,0,,,,,,,,,13,,81,0
20595,note_on,0,0,0,,,,,,,,,10,,42,0
20600,note_on,5,0,0,,,,,,,,,6,,69,0
20610,note_on,10,0,0,,,,,,,,,15,,73,0
20610,note_on,0,0,0,,,,,,,,,15,,64,0
20610,note_on,0,0,0,,,,,,,,,15,,69,0
20620,note_on,10,0,0,,,,,,,,,0,,81,100
20620,note_on,0,0,0,,,,,,,,,0,,52,100
20620,note_on,0,0,0,,,,,,,,,3,,81,100
20620,note_on,0,0,0,,,,,,,,,3,,52,100
20620,note_on,0,0,0,,,,,,,,,5,,81,100
20620,note_on,0,0,0,,,,,,,,,6,,68,100
20620,note_on,0,0,0,,,,,,,,,8,,52,100
20620,note_on,0,0,0,,,,,,,,,10,,40,100
20620,note_on,0,0,0,,,,,,,,,13,,81,100
20620,note_on,0,0,0,,,,,,,,,14,,52,100
20620,note_on,0,0,0,,,,,,,,,15,,52,100
20635,note_on,15,0,0,,,,,,,,,15,,52,0
20635,note_on,0,0,0,,,,,,,,,10,,40,0
20635,note_on,0,0,0,,,,,,,,,3,,81,0
20635,note_on,0,0,0,,,,,,,,,3,,52,0
20635,note_on,0,0,0,,,,,,,,,0,,81,0
20635,note_on,0,0,0,,,,,,,,,0,,52,0
20635,note_on,0,0,0,,,,,,,,,14,,52,0
20635,note_on,0,0,0,,,,,,,,,13,,81,0
20635,note_on,0,0,0,,,,,,,,,8,,52,0
20635,note_on,0,0,0,,,,,,,,,5,,81,0
20640,note_on,5,0,0,,,,,,,,,6,,68,0
20640,note_on,0,0,0,,,,,,,,,0,,81,100
20640,note_on,0,0,0,,,,,,,,,0,,51,100
20640,note_on,0,0,0,,,,,,,,,3,,81,100
20640,note_on,0,0,0,,,,,,,,,3,,51,100
20640,note_on,0,0,0,,,,,,,,,5,,81,100
20640,note_on,0,0,0,,,,,,,,,6,,66,100
20640,note_on,0,0,0,,,,,,,,,8,,51,100
20640,note_on,0,0,0,,,,,,,,,10,,39,100
20640,note_on,0,0,0,,,,,,,,,13,,81,100
20640,note_on,0,0,0,,,,,,,,,14,,51,100
20640,note_on,0,0,0,,,,,,,,,15,,66,100
20640,note_on,0,0,0,,,,,,,,,15,,71,100
20640,note_on,0,0,0,,,,,,,,,15,,59,100
20640,note_on,0,0,0,,,,,,,,,15,,51,100
20715,note_on,75,0,0,,,,,,,,,15,,51,0
20715,note_on,0,0,0,,,,,,,,,10,,39,0
20715,note_on,0,0,0,,,,,,,,,0,,51,0
20715,note_on,0,0,0,,,,,,,,,8,,51,0
20715,note_on,0,0,0,,,,,,,,,14,,51,0
20715,note_on,0,0,0,,,,,,,,,3,,51,0
20730,note_on,15,0,0,,,,,,,,,15,,71,0
20730,note_on,0,0,0,,,,,,,,,15,,66,0
20730,note_on,0,0,0,,,,,,,,,15,,59,0
20740,note_on,10,0,0,,,,,,,,,0,,54,100
20740,note_on,0,0,0,,,,,,,,,3,,54,100
20740,note_on,0,0,0,,,,,,,,,8,,54,100
20740,note_on,0,0,0,,,,,,,,,10,,42,100
20740,note_on,0,0,0,,,,,,,,,14,,54,100
20740,note_on,0,0,0,,,,,,,,,15,,54,100
20755,note_on,15,0,0,,,,,,,,,15,,54,0
20755,note_on,0,0,0,,,,,,,,,8,,54,0
20755,note_on,0,0,0,,,,,,,,,14,,54,0
20755,note_on,0,0,0,,,,,,,,,3,,54,0
20755,note_on,0,0,0,,,,,,,,,10,,42,0
20755,note_on,0,0,0,,,,,,,,,0,,54,0
20760,note_on,5,0,0,,,,,,,,,0,,47,100
20760,note_on,0,0,0,,,,,,,,,3,,47,100
20760,note_on,0,0,0,,,,,,,,,8,,47,100
20760,note_on,0,0,0,,,,,,,,,10,,35,100
20760,note_on,0,0,0,,,,,,,,,14,,47,100
20760,note_on,0,0,0,,,,,,,,,15,,71,100
20760,note_on,0,0,0,,,,,,,,,15,,66,100
20760,note_on,0,0,0,,,,,,,,,15,,63,100
20760,note_on,0,0,0,,,,,,,,,15,,47,100
20830,note_on,70,0,0,,,,,,,,,3,,81,0
20830,note_on,0,0,0,,,,,,,,,6,,66,0
20830,note_on,0,0,0,,,,,,,,,13,,81,0
20830,note_on,0,0,0,,,,,,,,,0,,81,0
20830,note_on,0,0,0,,,,,,,,,5,,81,0
20850,note_on,20,0,0,,,,,,,,,3,,47,0
20850,note_on,0,0,0,,,,,,,,,8,,47,0
20850,note_on,0,0,0,,,,,,,,,10,,35,0
20850,note_on,0,0,0,,,,,,,,,15,,47,0
20850,note_on,0,0,0,,,,,,,,,14,,47,0
20850,note_on,0,0,0,,,,,,,,,0,,47,0
20860,note_on,10,0,0,,,,,,,,,0,,69,100
20860,note_on,0,0,0,,,,,,,,,3,,69,100
20860,note_on,0,0,0,,,,,,,,,5,,69,100
20860,note_on,0,0,0,,,,,,,,,6,,66,100
20860,note_on,0,0,0,,,,,,,,,13,,69,100
20875,note_on,15,0,0,,,,,,,,,13,,69,0
20875,note_on,0,0,0,,,,,,,,,5,,69,0
20875,note_on,0,0,0,,,,,,,,,0,,69,0
20875,note_on,0,0,0,,,,,,,,,3,,69,0
20880,note_on,5,0,0,,,,,,,,,15,,63,0
20880,note_on,0,0,0,,,,,,,,,15,,71,0
20880,note_on,0,0,0,,,,,,,,,15,,66,0
20880,note_on,0,0,0,,,,,,,,,6,,66,0
20880,note_on,0,0,0,,,,,,,,,0,,68,100
20880,note_on,0,0,0,,,,,,,,,3,,68,100
20880,note_on,0,0,0,,,,,,,,,5,,68,100
20880,note_on,0,0,0,,,,,,,,,6,,64,100
20880,note_on,0,0,0,,,,,,,,,13,,68,100
20880,note_on,0,0,0,,,,,,,,,15,,64,100
20880,note_on,0,0,0,,,,,,,,,15,,68,100
20880,note_on,0,0,0,,,,,,,,,15,,71,100
20970,note_on,90,0,0,,,,,,,,,13,,68,0
20970,note_on,0,0,0,,,,,,,,,5,,68,0
20970,note_on,0,0,0,,,,,,,,,0,,68,0
20970,note_on,0,0,0,,,,,,,,,3,,68,0
20980,note_on,10,0,0,,,,,,,,,0,,59,100
20980,note_on,0,0,0,,,,,,,,,3,,59,100
20980,note_on,0,0,0,,,,,,,,,8,,59,100
20980,note_on,0,0,0,,,,,,,,,10,,47,100
20980,note_on,0,0,0,,,,,,,,,14,,59,100
20980,note_on,0,0,0,,,,,,,,,15,,59,100
20995,note_on,15,0,0,,,,,,,,,15,,59,0
20995,note_on,0,0,0,,,,,,,,,14,,59,0
20995,note_on,0,0,0,,,,,,,,,8,,59,0
20995,note_on,0,0,0,,,,,,,,,10,,47,0
20995,note_on,0,0,0,,,,,,,,,0,,59,0
20995,note_on,0,0,0,,,,,,,,,3,,59,0
21000,note_on,5,0,0,,,,,,,,,0,,47,100
21000,note_on,0,0,0,,,,,,,,,3,,47,100
21000,note_on,0,0,0,,,,,,,,,8,,47,100
21000,note_on,0,0,0,,,,,,,,,10,,35,100
21000,note_on,0,0,0,,,,,,,,,14,,47,100
21000,note_on,0,0,0,,,,,,,,,15,,47,100
21050,note_on,50,0,0,,,,,,,,,6,,64,0
21090,note_on,40,0,0,,,,,,,,,15,,47,0
21090,note_on,0,0,0,,,,,,,,,10,,35,0
21090,note_on,0,0,0,,,,,,,,,0,,47,0
21090,note_on,0,0,0,,,,,,,,,3,,47,0
21090,note_on,0,0,0,,,,,,,,,14,,47,0
21090,note_on,0,0,0,,,,,,,,,8,,47,0
21100,note_on,10,0,0,,,,,,,,,15,,71,0
21100,note_on,0,0,0,,,,,,,,,15,,68,0
21100,note_on,0,0,0,,,,,,,,,15,,64,0
21100,note_on,0,0,0,,,,,,,,,0,,80,100
21100,note_on,0,0,0,,,,,,,,,3,,80,100
21100,note_on,0,0,0,,,,,,,,,5,,80,100
21100,note_on,0,0,0,,,,,,,,,6,,76,100
21100,note_on,0,0,0,,,,,,,,,13,,80,100
21115,note_on,15,0,0,,,,,,,,,13,,80,0
21115,note_on,0,0,0,,,,,,,,,0,,80,0
21115,note_on,0,0,0,,,,,,,,,5,,80,0
21115,note_on,0,0,0,,,,,,,,,3,,80,0
21120,note_on,5,0,0,,,,,,,,,6,,76,0
21120,note_on,0,0,0,,,,,,,,,0,,78,100
21120,note_on,0,0,0,,,,,,,,,3,,78,100
21120,note_on,0,0,0,,,,,,,,,5,,78,100
21120,note_on,0,0,0,,,,,,,,,6,,75,100
21120,note_on,0,0,0,,,,,,,,,13,,78,100
21120,note_on,0,0,0,,,,,,,,,15,,63,100
21120,note_on,0,0,0,,,,,,,,,15,,66,100
21120,note_on,0,0,0,,,,,,,,,15,,71,100
21210,note_on,90,0,0,,,,,,,,,13,,78,0
21210,note_on,0,0,0,,,,,,,,,5,,78,0
21210,note_on,0,0,0,,,,,,,,,0,,78,0
21210,note_on,0,0,0,,,,,,,,,3,,78,0
21220,note_on,10,0,0,,,,,,,,,0,,57,100
21220,note_on,0,0,0,,,,,,,,,3,,57,100
21220,note_on,0,0,0,,,,,,,,,8,,57,100
21220,note_on,0,0,0,,,,,,,,,10,,45,100
21220,note_on,0,0,0,,,,,,,,,14,,57,100
21220,note_on,0,0,0,,,,,,,,,15,,57,100
21235,note_on,15,0,0,,,,,,,,,15,,57,0
21235,note_on,0,0,0,,,,,,,,,14,,57,0
21235,note_on,0,0,0,,,,,,,,,8,,57,0
21235,note_on,0,0,0,,,,,,,,,10,,45,0
21235,note_on,0,0,0,,,,,,,,,0,,57,0
21235,note_on,0,0,0,,,,,,,,,3,,57,0
21240,note_on,5,0,0,,,,,,,,,0,,47,100
21240,note_on,0,0,0,,,,,,,,,3,,47,100
21240,note_on,0,0,0,,,,,,,,,8,,47,100
21240,note_on,0,0,0,,,,,,,,,10,,35,100
21240,note_on,0,0,0,,,,,,,,,14,,47,100
21240,note_on,0,0,0,,,,,,,,,15,,47,100
21290,note_on,50,0,0,,,,,,,,,6,,75,0
21330,note_on,40,0,0,,,,,,,,,15,,71,0
21330,note_on,0,0,0,,,,,,,,,0,,47,0
21330,note_on,0,0,0,,,,,,,,,15,,66,0
21330,note_on,0,0,0,,,,,,,,,3,,47,0
21330,note_on,0,0,0,,,,,,,,,15,,63,0
21330,note_on,0,0,0,,,,,,,,,14,,47,0
21330,note_on,0,0,0,,,,,,,,,10,,35,0
21330,note_on,0,0,0,,,,,,,,,8,,47,0
21330,note_on,0,0,0,,,,,,,,,15,,47,0
21340,note_on,10,0,0,,,,,,,,,0,,66,100
21340,note_on,0,0,0,,,,,,,,,3,,66,100
21340,note_on,0,0,0,,,,,,,,,5,,66,100
21340,note_on,0,0,0,,,,,,,,,6,,63,100
21340,note_on,0,0,0,,,,,,,,,13,,66,100
21355,note_on,15,0,0,,,,,,,,,13,,66,0
21355,note_on,0,0,0,,,,,,,,,0,,66,0
21355,note_on,0,0,0,,,,,,,,,5,,66,0
21355,note_on,0,0,0,,,,,,,,,3,,66,0
21360,note_on,5,0,0,,,,,,,,,6,,63,0
21360,note_on,0,0,0,,,,,,,,,0,,64,100
21360,note_on,0,0,0,,,,,,,,,3,,64,100
21360,note_on,0,0,0,,,,,,,,,5,,64,100
21360,note_on,0,0,0,,,,,,,,,6,,59,100
21360,note_on,0,0,0,,,,,,,,,13,,64,100
21360,note_on,0,0,0,,,,,,,,,15,,71,100
21360,note_on,0,0,0,,,,,,,,,15,,68,100
21360,note_on,0,0,0,,,,,,,,,15,,64,100
21450,note_on,90,0,0,,,,,,,,,13,,64,0
21450,note_on,0,0,0,,,,,,,,,5,,64,0
21450,note_on,0,0,0,,,,,,,,,0,,64,0
21450,note_on,0,0,0,,,,,,,,,3,,64,0
21460,note_on,10,0,0,,,,,,,,,0,,56,100
21460,note_on,0,0,0,,,,,,,,,3,,56,100
21460,note_on,0,0,0,,,,,,,,,8,,56,100
21460,note_on,0,0,0,,,,,,,,,10,,44,100
21460,note_on,0,0,0,,,,,,,,,14,,56,100
21460,note_on,0,0,0,,,,,,,,,15,,56,100
21475,note_on,15,0,0,,,,,,,,,15,,56,0
21475,note_on,0,0,0,,,,,,,,,14,,56,0
21475,note_on,0,0,0,,,,,,,,,8,,56,0
21475,note_on,0,0,0,,,,,,,,,10,,44,0
21475,note_on,0,0,0,,,,,,,,,0,,56,0
21475,note_on,0,0,0,,,,,,,,,3,,56,0
21480,note_on,5,0,0,,,,,,,,,0,,47,100
21480,note_on,0,0,0,,,,,,,,,3,,47,100
21480,note_on,0,0,0,,,,,,,,,8,,47,100
21480,note_on,0,0,0,,,,,,,,,10,,35,100
21480,note_on,0,0,0,,,,,,,,,14,,47,100
21480,note_on,0,0,0,,,,,,,,,15,,47,100
21530,note_on,50,0,0,,,,,,,,,6,,59,0
21570,note_on,40,0,0,,,,,,,,,15,,64,0
21570,note_on,0,0,0,,,,,,,,,0,,47,0
21570,note_on,0,0,0,,,,,,,,,15,,68,0
21570,note_on,0,0,0,,,,,,,,,3,,47,0
21570,note_on,0,0,0,,,,,,,,,15,,71,0
21570,note_on,0,0,0,,,,,,,,,14,,47,0
21570,note_on,0,0,0,,,,,,,,,10,,35,0
21570,note_on,0,0,0,,,,,,,,,8,,47,0
21570,note_on,0,0,0,,,,,,,,,15,,47,0
21580,note_on,10,0,0,,,,,,,,,0,,76,100
21580,note_on,0,0,0,,,,,,,,,3,,76,100
21580,note_on,0,0,0,,,,,,,,,5,,76,100
21580,note_on,0,0,0,,,,,,,,,6,,68,100
21580,note_on,0,0,0,,,,,,,,,13,,76,100
21595,note_on,15,0,0,,,,,,,,,13,,76,0
21595,note_on,0,0,0,,,,,,,,,0,,76,0
21595,note_on,0,0,0,,,,,,,,,5,,76,0
21595,note_on,0,0,0,,,,,,,,,3,,76,0
21600,note_on,5,0,0,,,,,,,,,6,,68,0
21600,note_on,0,0,0,,,,,,,,,0,,75,100
21600,note_on,0,0,0,,,,,,,,,3,,75,100
21600,note_on,0,0,0,,,,,,,,,5,,75,100
21600,note_on,0,0,0,,,,,,,,,6,,66,100
21600,note_on,0,0,0,,,,,,,,,13,,75,100
21600,note_on,0,0,0,,,,,,,,,15,,69,100
21600,note_on,0,0,0,,,,,,,,,15,,63,100
21600,note_on,0,0,0,,,,,,,,,15,,66,100
21700,note_on,100,0,0,,,,,,,,,0,,47,100
21700,note_on,0,0,0,,,,,,,,,3,,47,100
21700,note_on,0,0,0,,,,,,,,,8,,47,100
21700,note_on,0,0,0,,,,,,,,,10,,35,100
21700,note_on,0,0,0,,,,,,,,,14,,47,100
21700,note_on,0,0,0,,,,,,,,,15,,47,100
21715,note_on,15,0,0,,,,,,,,,15,,47,0
21715,note_on,0,0,0,,,,,,,,,3,,47,0
21715,note_on,0,0,0,,,,,,,,,0,,47,0
21715,note_on,0,0,0,,,,,,,,,14,,47,0
21715,note_on,0,0,0,,,,,,,,,8,,47,0
21715,note_on,0,0,0,,,,,,,,,10,,35,0
21720,note_on,5,0,0,,,,,,,,,0,,45,100
21720,note_on,0,0,0,,,,,,,,,3,,45,100
21720,note_on,0,0,0,,,,,,,,,8,,45,100
21720,note_on,0,0,0,,,,,,,,,10,,33,100
21720,note_on,0,0,0,,,,,,,,,14,,45,100
21720,note_on,0,0,0,,,,,,,,,15,,45,100
21760,note_on,40,0,0,,,,,,,,,0,,75,0
21760,note_on,0,0,0,,,,,,,,,3,,75,0
21760,note_on,0,0,0,,,,,,,,,6,,66,0
21760,note_on,0,0,0,,,,,,,,,5,,75,0
21760,note_on,0,0,0,,,,,,,,,13,,75,0
21810,note_on,50,0,0,,,,,,,,,3,,45,0
21810,note_on,0,0,0,,,,,,,,,0,,45,0
21810,note_on,0,0,0,,,,,,,,,15,,66,0
21810,note_on,0,0,0,,,,,,,,,15,,45,0
21810,note_on,0,0,0,,,,,,,,,14,,45,0
21810,note_on,0,0,0,,,,,,,,,10,,33,0
21810,note_on,0,0,0,,,,,,,,,15,,63,0
21810,note_on,0,0,0,,,,,,,,,8,,45,0
21810,note_on,0,0,0,,,,,,,,,15,,69,0
21820,note_on,10,0,0,,,,,,,,,0,,66,100
21820,note_on,0,0,0,,,,,,,,,3,,66,100
21820,note_on,0,0,0,,,,,,,,,5,,66,100
21820,note_on,0,0,0,,,,,,,,,6,,63,100
21820,note_on,0,0,0,,,,,,,,,13,,66,100
21835,note_on,15,0,0,,,,,,,,,13,,66,0
21835,note_on,0,0,0,,,,,,,,,5,,66,0
21835,note_on,0,0,0,,,,,,,,,0,,66,0
21835,note_on,0,0,0,,,,,,,,,3,,66,0
21835,note_on,0,0,0,,,,,,,,,6,,63,0
21840,note_on,5,0,0,,,,,,,,,0,,44,100
21840,note_on,0,0,0,,,,,,,,,0,,71,100
21840,note_on,0,0,0,,,,,,,,,3,,44,100
21840,note_on,0,0,0,,,,,,,,,3,,71,100
21840,note_on,0,0,0,,,,,,,,,5,,71,100
21840,note_on,0,0,0,,,,,,,,,6,,59,100
21840,note_on,0,0,0,,,,,,,,,8,,44,100
21840,note_on,0,0,0,,,,,,,,,10,,32,100
21840,note_on,0,0,0,,,,,,,,,13,,71,100
21840,note_on,0,0,0,,,,,,,,,14,,44,100
21840,note_on,0,0,0,,,,,,,,,15,,59,100
21840,note_on,0,0,0,,,,,,,,,15,,64,100
21840,note_on,0,0,0,,,,,,,,,15,,71,100
21840,note_on,0,0,0,,,,,,,,,15,,44,100
21930,note_on,90,0,0,,,,,,,,,15,,44,0
21930,note_on,0,0,0,,,,,,,,,0,,71,0
21930,note_on,0,0,0,,,,,,,,,13,,71,0
21930,note_on,0,0,0,,,,,,,,,8,,44,0
21930,note_on,0,0,0,,,,,,,,,0,,44,0
21930,note_on,0,0,0,,,,,,,,,3,,44,0
21930,note_on,0,0,0,,,,,,,,,3,,71,0
21930,note_on,0,0,0,,,,,,,,,10,,32,0
21930,note_on,0,0,0,,,,,,,,,5,,71,0
21930,note_on,0,0,0,,,,,,,,,14,,44,0
21930,note_on,0,0,0,,,,,,,,,0,,64,100
21930,note_on,0,0,0,,,,,,,,,3,,64,100
21930,note_on,0,0,0,,,,,,,,,5,,64,100
21930,note_on,0,0,0,,,,,,,,,13,,64,100
21940,note_on,10,0,0,,,,,,,,,6,,59,0
21950,note_on,10,0,0,,,,,,,,,13,,64,0
21950,note_on,0,0,0,,,,,,,,,3,,64,0
21950,note_on,0,0,0,,,,,,,,,0,,64,0
21950,note_on,0,0,0,,,,,,,,,5,,64,0
21960,note_on,10,0,0,,,,,,,,,0,,42,100
21960,note_on,0,0,0,,,,,,,,,0,,63,100
21960,note_on,0,0,0,,,,,,,,,3,,42,100
21960,note_on,0,0,0,,,,,,,,,3,,63,100
21960,note_on,0,0,0,,,,,,,,,5,,63,100
21960,note_on,0,0,0,,,,,,,,,6,,57,100
21960,note_on,0,0,0,,,,,,,,,8,,42,100
21960,note_on,0,0,0,,,,,,,,,10,,30,100
21960,note_on,0,0,0,,,,,,,,,13,,63,100
21960,note_on,0,0,0,,,,,,,,,14,,42,100
21960,note_on,0,0,0,,,,,,,,,15,,42,100
22050,note_on,90,0,0,,,,,,,,,15,,42,0
22050,note_on,0,0,0,,,,,,,,,0,,63,0
22050,note_on,0,0,0,,,,,,,,,3,,42,0
22050,note_on,0,0,0,,,,,,,,,15,,71,0
22050,note_on,0,0,0,,,,,,,,,3,,63,0
22050,note_on,0,0,0,,,,,,,,,15,,59,0
22050,note_on,0,0,0,,,,,,,,,8,,42,0
22050,note_on,0,0,0,,,,,,,,,0,,42,0
22050,note_on,0,0,0,,,,,,,,,13,,63,0
22050,note_on,0,0,0,,,,,,,,,10,,30,0
22050,note_on,0,0,0,,,,,,,,,5,,63,0
22050,note_on,0,0,0,,,,,,,,,15,,64,0
22050,note_on,0,0,0,,,,,,,,,14,,42,0
22050,note_on,0,0,0,,,,,,,,,0,,71,100
22050,note_on,0,0,0,,,,,,,,,3,,71,100
22050,note_on,0,0,0,,,,,,,,,5,,71,100
22050,note_on,0,0,0,,,,,,,,,13,,71,100
22060,note_on,10,0,0,,,,,,,,,6,,57,0
22070,note_on,10,0,0,,,,,,,,,5,,71,0
22070,note_on,0,0,0,,,,,,,,,0,,71,0
22070,note_on,0,0,0,,,,,,,,,3,,71,0
22070,note_on,0,0,0,,,,,,,,,13,,71,0
22080,note_on,10,0,0,,,,,,,,,0,,44,100
22080,note_on,0,0,0,,,,,,,,,0,,71,100
22080,note_on,0,0,0,,,,,,,,,3,,44,100
22080,note_on,0,0,0,,,,,,,,,3,,71,100
22080,note_on,0,0,0,,,,,,,,,5,,71,100
22080,note_on,0,0,0,,,,,,,,,6,,59,100
22080,note_on,0,0,0,,,,,,,,,8,,44,100
22080,note_on,0,0,0,,,,,,,,,10,,32,100
22080,note_on,0,0,0,,,,,,,,,13,,71,100
22080,note_on,0,0,0,,,,,,,,,14,,44,100
22080,note_on,0,0,0,,,,,,,,,15,,59,100
22080,note_on,0,0,0,,,,,,,,,15,,64,100
22080,note_on,0,0,0,,,,,,,,,15,,68,100
22080,note_on,0,0,0,,,,,,,,,15,,44,100
22170,note_on,90,0,0,,,,,,,,,15,,44,0
22170,note_on,0,0,0,,,,,,,,,0,,71,0
22170,note_on,0,0,0,,,,,,,,,13,,71,0
22170,note_on,0,0,0,,,,,,,,,8,,44,0
22170,note_on,0,0,0,,,,,,,,,0,,44,0
22170,note_on,0,0,0,,,,,,,,,3,,44,0
22170,note_on,0,0,0,,,,,,,,,3,,71,0
22170,note_on,0,0,0,,,,,,,,,10,,32,0
22170,note_on,0,0,0,,,,,,,,,5,,71,0
22170,note_on,0,0,0,,,,,,,,,14,,44,0
22170,note_on,0,0,0,,,,,,,,,0,,64,100
22170,note_on,0,0,0,,,,,,,,,3,,64,100
22170,note_on,0,0,0,,,,,,,,,5,,64,100
22170,note_on,0,0,0,,,,,,,,,13,,64,100
22180,note_on,10,0,0,,,,,,,,,6,,59,0
22185,note_on,5,0,0,,,,,,,,,15,,68,0
22185,note_on,0,0,0,,,,,,,,,15,,59,0
22185,note_on,0,0,0,,,,,,,,,15,,64,0
22190,note_on,5,0,0,,,,,,,,,0,,64,0
22190,note_on,0,0,0,,,,,,,,,13,,64,0
22190,note_on,0,0,0,,,,,,,,,3,,64,0
22190,note_on,0,0,0,,,,,,,,,5,,64,0
22200,note_on,10,0,0,,,,,,,,,0,,42,100
22200,note_on,0,0,0,,,,,,,,,0,,63,100
22200,note_on,0,0,0,,,,,,,,,3,,42,100
22200,note_on,0,0,0,,,,,,,,,3,,63,100
22200,note_on,0,0,0,,,,,,,,,5,,63,100
22200,note_on,0,0,0,,,,,,,,,6,,57,100
22200,note_on,0,0,0,,,,,,,,,8,,42,100
22200,note_on,0,0,0,,,,,,,,,10,,30,100
22200,note_on,0,0,0,,,,,,,,,13,,63,100
22200,note_on,0,0,0,,,,,,,,,14,,42,100
22200,note_on,0,0,0,,,,,,,,,15,,59,100
22200,note_on,0,0,0,,,,,,,,,15,,63,100
22200,note_on,0,0,0,,,,,,,,,15,,69,100
22200,note_on,0,0,0,,,,,,,,,15,,42,100
22290,note_on,90,0,0,,,,,,,,,15,,42,0
22290,note_on,0,0,0,,,,,,,,,0,,63,0
22290,note_on,0,0,0,,,,,,,,,13,,63,0
22290,note_on,0,0,0,,,,,,,,,8,,42,0
22290,note_on,0,0,0,,,,,,,,,0,,42,0
22290,note_on,0,0,0,,,,,,,,,3,,42,0
22290,note_on,0,0,0,,,,,,,,,3,,63,0
22290,note_on,0,0,0,,,,,,,,,10,,30,0
22290,note_on,0,0,0,,,,,,,,,5,,63,0
22290,note_on,0,0,0,,,,,,,,,14,,42,0
22290,note_on,0,0,0,,,,,,,,,0,,71,100
22290,note_on,0,0,0,,,,,,,,,3,,71,100
22290,note_on,0,0,0,,,,,,,,,5,,71,100
22290,note_on,0,0,0,,,,,,,,,13,,71,100
22300,note_on,10,0,0,,,,,,,,,6,,57,0
22305,note_on,5,0,0,,,,,,,,,15,,69,0
22305,note_on,0,0,0,,,,,,,,,15,,59,0
22305,note_on,0,0,0,,,,,,,,,15,,63,0
22310,note_on,5,0,0,,,,,,,,,0,,71,0
22310,note_on,0,0,0,,,,,,,,,13,,71,0
22310,note_on,0,0,0,,,,,,,,,3,,71,0
22310,note_on,0,0,0,,,,,,,,,5,,71,0
22320,note_on,10,0,0,,,,,,,,,0,,44,100
22320,note_on,0,0,0,,,,,,,,,0,,71,100
22320,note_on,0,0,0,,,,,,,,,3,,44,100
22320,note_on,0,0,0,,,,,,,,,3,,71,100
22320,note_on,0,0,0,,,,,,,,,5,,71,100
22320,note_on,0,0,0,,,,,,,,,6,,59,100
22320,note_on,0,0,0,,,,,,,,,8,,44,100
22320,note_on,0,0,0,,,,,,,,,10,,32,100
22320,note_on,0,0,0,,,,,,,,,13,,71,100
22320,note_on,0,0,0,,,,,,,,,14,,44,100
22320,note_on,0,0,0,,,,,,,,,15,,59,100
22320,note_on,0,0,0,,,,,,,,,15,,64,100
22320,note_on,0,0,0,,,,,,,,,15,,68,100
22320,note_on,0,0,0,,,,,,,,,15,,44,100
22410,note_on,90,0,0,,,,,,,,,15,,44,0
22410,note_on,0,0,0,,,,,,,,,0,,71,0
22410,note_on,0,0,0,,,,,,,,,13,,71,0
22410,note_on,0,0,0,,,,,,,,,8,,44,0
22410,note_on,0,0,0,,,,,,,,,0,,44,0
22410,note_on,0,0,0,,,,,,,,,3,,44,0
22410,note_on,0,0,0,,,,,,,,,3,,71,0
22410,note_on,0,0,0,,,,,,,,,10,,32,0
22410,note_on,0,0,0,,,,,,,,,5,,71,0
22410,note_on,0,0,0,,,,,,,,,14,,44,0
22410,note_on,0,0,0,,,,,,,,,0,,64,100
22410,note_on,0,0,0,,,,,,,,,3,,64,100
22410,note_on,0,0,0,,,,,,,,,5,,64,100
22410,note_on,0,0,0,,,,,,,,,13,,64,100
22420,note_on,10,0,0,,,,,,,,,6,,59,0
22425,note_on,5,0,0,,,,,,,,,15,,68,0
22425,note_on,0,0,0,,,,,,,,,15,,59,0
22425,note_on,0,0,0,,,,,,,,,15,,64,0
22430,note_on,5,0,0,,,,,,,,,0,,64,0
22430,note_on,0,0,0,,,,,,,,,13,,64,0
22430,note_on,0,0,0,,,,,,,,,3,,64,0
22430,note_on,0,0,0,,,,,,,,,5,,64,0
22440,note_on,10,0,0,,,,,,,,,0,,42,100
22440,note_on,0,0,0,,,,,,,,,0,,63,100
22440,note_on,0,0,0,,,,,,,,,3,,42,100
22440,note_on,0,0,0,,,,,,,,,3,,63,100
22440,note_on,0,0,0,,,,,,,,,5,,63,100
22440,note_on,0,0,0,,,,,,,,,6,,57,100
22440,note_on,0,0,0,,,,,,,,,8,,42,100
22440,note_on,0,0,0,,,,,,,,,10,,30,100
22440,note_on,0,0,0,,,,,,,,,13,,63,100
22440,note_on,0,0,0,,,,,,,,,14,,42,100
22440,note_on,0,0,0,,,,,,,,,15,,59,100
22440,note_on,0,0,0,,,,,,,,,15,,63,100
22440,note_on,0,0,0,,,,,,,,,15,,69,100
22440,note_on,0,0,0,,,,,,,,,15,,42,100
22530,note_on,90,0,0,,,,,,,,,15,,42,0
22530,note_on,0,0,0,,,,,,,,,0,,63,0
22530,note_on,0,0,0,,,,,,,,,13,,63,0
22530,note_on,0,0,0,,,,,,,,,8,,42,0
22530,note_on,0,0,0,,,,,,,,,0,,42,0
22530,note_on,0,0,0,,,,,,,,,3,,42,0
22530,note_on,0,0,0,,,,,,,,,3,,63,0
22530,note_on,0,0,0,,,,,,,,,10,,30,0
22530,note_on,0,0,0,,,,,,,,,5,,63,0
22530,note_on,0,0,0,,,,,,,,,14,,42,0
22530,note_on,0,0,0,,,,,,,,,0,,75,100
22530,note_on,0,0,0,,,,,,,,,3,,75,100
22530,note_on,0,0,0,,,,,,,,,5,,75,100
22530,note_on,0,0,0,,,,,,,,,13,,75,100
22540,note_on,10,0,0,,,,,,,,,6,,57,0
22545,note_on,5,0,0,,,,,,,,,15,,69,0
22545,note_on,0,0,0,,,,,,,,,15,,59,0
22545,note_on,0,0,0,,,,,,,,,15,,63,0
22550,note_on,5,0,0,,,,,,,,,0,,75,0
22550,note_on,0,0,0,,,,,,,,,13,,75,0
22550,note_on,0,0,0,,,,,,,,,3,,75,0
22550,note_on,0,0,0,,,,,,,,,5,,75,0
22560,note_on,10,0,0,,,,,,,,,0,,44,100
22560,note_on,0,0,0,,,,,,,,,0,,76,100
22560,note_on,0,0,0,,,,,,,,,3,,44,100
22560,note_on,0,0,0,,,,,,,,,3,,76,100
22560,note_on,0,0,0,,,,,,,,,5,,76,100
22560,note_on,0,0,0,,,,,,,,,6,,59,100
22560,note_on,0,0,0,,,,,,,,,8,,44,100
22560,note_on,0,0,0,,,,,,,,,10,,32,100
22560,note_on,0,0,0,,,,,,,,,13,,76,100
22560,note_on,0,0,0,,,,,,,,,14,,44,100
22560,note_on,0,0,0,,,,,,,,,15,,59,100
22560,note_on,0,0,0,,,,,,,,,15,,64,100
22560,note_on,0,0,0,,,,,,,,,15,,71,100
22560,note_on,0,0,0,,,,,,,,,15,,44,100
22650,note_on,90,0,0,,,,,,,,,15,,44,0
22650,note_on,0,0,0,,,,,,,,,0,,44,0
22650,note_on,0,0,0,,,,,,,,,10,,32,0
22650,note_on,0,0,0,,,,,,,,,8,,44,0
22650,note_on,0,0,0,,,,,,,,,14,,44,0
22650,note_on,0,0,0,,,,,,,,,3,,44,0
22660,note_on,10,0,0,,,,,,,,,6,,59,0
22680,note_on,20,0,0,,,,,,,,,0,,56,100
22680,note_on,0,0,0,,,,,,,,,3,,56,100
22680,note_on,0,0,0,,,,,,,,,6,,71,100
22680,note_on,0,0,0,,,,,,,,,8,,56,100
22680,note_on,0,0,0,,,,,,,,,10,,44,100
22680,note_on,0,0,0,,,,,,,,,14,,56,100
22680,note_on,0,0,0,,,,,,,,,15,,56,100
22720,note_on,40,0,0,,,,,,,,,13,,76,0
22720,note_on,0,0,0,,,,,,,,,0,,76,0
22720,note_on,0,0,0,,,,,,,,,3,,76,0
22720,note_on,0,0,0,,,,,,,,,5,,76,0
22760,note_on,40,0,0,,,,,,,,,0,,75,100
22760,note_on,0,0,0,,,,,,,,,3,,75,100
22760,note_on,0,0,0,,,,,,,,,5,,75,100
22760,note_on,0,0,0,,,,,,,,,13,,75,100
22770,note_on,10,0,0,,,,,,,,,8,,56,0
22770,note_on,0,0,0,,,,,,,,,10,,44,0
22770,note_on,0,0,0,,,,,,,,,3,,56,0
22770,note_on,0,0,0,,,,,,,,,15,,64,0
22770,note_on,0,0,0,,,,,,,,,0,,56,0
22770,note_on,0,0,0,,,,,,,,,15,,59,0
22770,note_on,0,0,0,,,,,,,,,15,,71,0
22770,note_on,0,0,0,,,,,,,,,14,,56,0
22770,note_on,0,0,0,,,,,,,,,15,,56,0
22780,note_on,10,0,0,,,,,,,,,6,,71,0
22790,note_on,10,0,0,,,,,,,,,0,,75,0
22790,note_on,0,0,0,,,,,,,,,3,,75,0
22790,note_on,0,0,0,,,,,,,,,13,,75,0
22790,note_on,0,0,0,,,,,,,,,5,,75,0
22800,note_on,10,0,0,,,,,,,,,0,,57,100
22800,note_on,0,0,0,,,,,,,,,0,,73,100
22800,note_on,0,0,0,,,,,,,,,3,,57,100
22800,note_on,0,0,0,,,,,,,,,3,,73,100
22800,note_on,0,0,0,,,,,,,,,5,,73,100
22800,note_on,0,0,0,,,,,,,,,6,,64,100
22800,note_on,0,0,0,,,,,,,,,8,,57,100
22800,note_on,0,0,0,,,,,,,,,10,,45,100
22800,note_on,0,0,0,,,,,,,,,13,,73,100
22800,note_on,0,0,0,,,,,,,,,14,,57,100
22800,note_on,0,0,0,,,,,,,,,15,,61,100
22800,note_on,0,0,0,,,,,,,,,15,,57,100
22800,note_on,0,0,0,,,,,,,,,15,,68,100
22800,note_on,0,0,0,,,,,,,,,15,,64,100
22840,note_on,40,0,0,,,,,,,,,13,,73,0
22840,note_on,0,0,0,,,,,,,,,5,,73,0
22840,note_on,0,0,0,,,,,,,,,3,,73,0
22840,note_on,0,0,0,,,,,,,,,0,,73,0
22840,note_on,0,0,0,,,,,,,,,0,,71,100
22840,note_on,0,0,0,,,,,,,,,3,,71,100
22840,note_on,0,0,0,,,,,,,,,5,,71,100
22840,note_on,0,0,0,,,,,,,,,13,,71,100
22880,note_on,40,0,0,,,,,,,,,13,,71,0
22880,note_on,0,0,0,,,,,,,,,5,,71,0
22880,note_on,0,0,0,,,,,,,,,0,,71,0
22880,note_on,0,0,0,,,,,,,,,3,,71,0
22880,note_on,0,0,0,,,,,,,,,0,,69,100
22880,note_on,0,0,0,,,,,,,,,3,,69,100
22880,note_on,0,0,0,,,,,,,,,5,,69,100
22880,note_on,0,0,0,,,,,,,,,13,,69,100
22890,note_on,10,0,0,,,,,,,,,14,,57,0
22890,note_on,0,0,0,,,,,,,,,0,,57,0
22890,note_on,0,0,0,,,,,,,,,10,,45,0
22890,note_on,0,0,0,,,,,,,,,8,,57,0
22890,note_on,0,0,0,,,,,,,,,3,,57,0
22890,note_on,0,0,0,,,,,,,,,15,,57,0
22900,note_on,10,0,0,,,,,,,,,6,,64,0
22905,note_on,5,0,0,,,,,,,,,15,,61,0
22905,note_on,0,0,0,,,,,,,,,15,,64,0
22905,note_on,0,0,0,,,,,,,,,15,,68,0
22920,note_on,15,0,0,,,,,,,,,0,,69,0
22920,note_on,0,0,0,,,,,,,,,5,,69,0
22920,note_on,0,0,0,,,,,,,,,13,,69,0
22920,note_on,0,0,0,,,,,,,,,3,,69,0
22920,note_on,0,0,0,,,,,,,,,0,,49,100
22920,note_on,0,0,0,,,,,,,,,0,,68,100
22920,note_on,0,0,0,,,,,,,,,3,,49,100
22920,note_on,0,0,0,,,,,,,,,3,,68,100
22920,note_on,0,0,0,,,,,,,,,5,,68,100
22920,note_on,0,0,0,,,,,,,,,6,,57,100
22920,note_on,0,0,0,,,,,,,,,8,,49,100
22920,note_on,0,0,0,,,,,,,,,10,,37,100
22920,note_on,0,0,0,,,,,,,,,13,,68,100
22920,note_on,0,0,0,,,,,,,,,14,,49,100
22920,note_on,0,0,0,,,,,,,,,15,,57,100
22920,note_on,0,0,0,,,,,,,,,15,,69,100
22920,note_on,0,0,0,,,,,,,,,15,,49,100
22920,note_on,0,0,0,,,,,,,,,15,,64,100
22960,note_on,40,0,0,,,,,,,,,13,,68,0
22960,note_on,0,0,0,,,,,,,,,5,,68,0
22960,note_on,0,0,0,,,,,,,,,3,,68,0
22960,note_on,0,0,0,,,,,,,,,0,,68,0
22960,note_on,0,0,0,,,,,,,,,0,,66,100
22960,note_on,0,0,0,,,,,,,,,3,,66,100
22960,note_on,0,0,0,,,,,,,,,5,,66,100
22960,note_on,0,0,0,,,,,,,,,13,,66,100
23000,note_on,40,0,0,,,,,,,,,13,,66,0
23000,note_on,0,0,0,,,,,,,,,5,,66,0
23000,note_on,0,0,0,,,,,,,,,0,,66,0
23000,note_on,0,0,0,,,,,,,,,3,,66,0
23000,note_on,0,0,0,,,,,,,,,0,,64,100
23000,note_on,0,0,0,,,,,,,,,3,,64,100
23000,note_on,0,0,0,,,,,,,,,5,,64,100
23000,note_on,0,0,0,,,,,,,,,13,,64,100
23010,note_on,10,0,0,,,,,,,,,14,,49,0
23010,note_on,0,0,0,,,,,,,,,0,,49,0
23010,note_on,0,0,0,,,,,,,,,10,,37,0
23010,note_on,0,0,0,,,,,,,,,8,,49,0
23010,note_on,0,0,0,,,,,,,,,3,,49,0
23010,note_on,0,0,0,,,,,,,,,15,,49,0
23020,note_on,10,0,0,,,,,,,,,6,,57,0
23025,note_on,5,0,0,,,,,,,,,15,,64,0
23025,note_on,0,0,0,,,,,,,,,15,,69,0
23025,note_on,0,0,0,,,,,,,,,15,,57,0
23030,note_on,5,0,0,,,,,,,,,5,,64,0
23030,note_on,0,0,0,,,,,,,,,0,,64,0
23030,note_on,0,0,0,,,,,,,,,13,,64,0
23030,note_on,0,0,0,,,,,,,,,3,,64,0
23040,note_on,10,0,0,,,,,,,,,0,,47,100
23040,note_on,0,0,0,,,,,,,,,0,,63,100
23040,note_on,0,0,0,,,,,,,,,3,,47,100
23040,note_on,0,0,0,,,,,,,,,3,,63,100
23040,note_on,0,0,0,,,,,,,,,5,,63,100
23040,note_on,0,0,0,,,,,,,,,6,,57,100
23040,note_on,0,0,0,,,,,,,,,8,,47,100
23040,note_on,0,0,0,,,,,,,,,10,,35,100
23040,note_on,0,0,0,,,,,,,,,13,,63,100
23040,note_on,0,0,0,,,,,,,,,14,,47,100
23040,note_on,0,0,0,,,,,,,,,15,,63,100
23040,note_on,0,0,0,,,,,,,,,15,,66,100
23040,note_on,0,0,0,,,,,,,,,15,,71,100
23040,note_on,0,0,0,,,,,,,,,15,,47,100
23115,note_on,75,0,0,,,,,,,,,15,,47,0
23115,note_on,0,0,0,,,,,,,,,0,,63,0
23115,note_on,0,0,0,,,,,,,,,10,,35,0
23115,note_on,0,0,0,,,,,,,,,3,,47,0
23115,note_on,0,0,0,,,,,,,,,0,,47,0
23115,note_on,0,0,0,,,,,,,,,8,,47,0
23115,note_on,0,0,0,,,,,,,,,14,,47,0
23115,note_on,0,0,0,,,,,,,,,3,,63,0
23120,note_on,5,0,0,,,,,,,,,13,,63,0
23120,note_on,0,0,0,,,,,,,,,5,,63,0
23130,note_on,10,0,0,,,,,,,,,0,,73,100
23130,note_on,0,0,0,,,,,,,,,0,,54,100
23130,note_on,0,0,0,,,,,,,,,3,,73,100
23130,note_on,0,0,0,,,,,,,,,3,,54,100
23130,note_on,0,0,0,,,,,,,,,5,,73,100
23130,note_on,0,0,0,,,,,,,,,8,,54,100
23130,note_on,0,0,0,,,,,,,,,10,,42,100
23130,note_on,0,0,0,,,,,,,,,13,,73,100
23130,note_on,0,0,0,,,,,,,,,14,,54,100
23130,note_on,0,0,0,,,,,,,,,15,,54,100
23140,note_on,10,0,0,,,,,,,,,6,,57,0
23150,note_on,10,0,0,,,,,,,,,0,,54,0
23150,note_on,0,0,0,,,,,,,,,3,,73,0
23150,note_on,0,0,0,,,,,,,,,10,,42,0
23150,note_on,0,0,0,,,,,,,,,5,,73,0
23150,note_on,0,0,0,,,,,,,,,3,,54,0
23150,note_on,0,0,0,,,,,,,,,0,,73,0
23150,note_on,0,0,0,,,,,,,,,8,,54,0
23150,note_on,0,0,0,,,,,,,,,14,,54,0
23150,note_on,0,0,0,,,,,,,,,13,,73,0
23150,note_on,0,0,0,,,,,,,,,15,,54,0
23160,note_on,10,0,0,,,,,,,,,0,,56,100
23160,note_on,0,0,0,,,,,,,,,0,,71,100
23160,note_on,0,0,0,,,,,,,,,3,,56,100
23160,note_on,0,0,0,,,,,,,,,3,,71,100
23160,note_on,0,0,0,,,,,,,,,5,,71,100
23160,note_on,0,0,0,,,,,,,,,6,,56,100
23160,note_on,0,0,0,,,,,,,,,8,,56,100
23160,note_on,0,0,0,,,,,,,,,10,,44,100
23160,note_on,0,0,0,,,,,,,,,13,,71,100
23160,note_on,0,0,0,,,,,,,,,14,,56,100
23160,note_on,0,0,0,,,,,,,,,15,,56,100
23235,note_on,75,0,0,,,,,,,,,15,,56,0
23235,note_on,0,0,0,,,,,,,,,0,,71,0
23235,note_on,0,0,0,,,,,,,,,3,,56,0
23235,note_on,0,0,0,,,,,,,,,8,,56,0
23235,note_on,0,0,0,,,,,,,,,3,,71,0
23235,note_on,0,0,0,,,,,,,,,0,,56,0
23235,note_on,0,0,0,,,,,,,,,5,,71,0
23235,note_on,0,0,0,,,,,,,,,14,,56,0
23235,note_on,0,0,0,,,,,,,,,13,,71,0
23235,note_on,0,0,0,,,,,,,,,10,,44,0
23240,note_on,5,0,0,,,,,,,,,6,,56,0
23250,note_on,10,0,0,,,,,,,,,15,,66,0
23250,note_on,0,0,0,,,,,,,,,15,,63,0
23250,note_on,0,0,0,,,,,,,,,15,,71,0
23250,note_on,0,0,0,,,,,,,,,0,,69,100
23250,note_on,0,0,0,,,,,,,,,0,,57,100
23250,note_on,0,0,0,,,,,,,,,3,,69,100
23250,note_on,0,0,0,,,,,,,,,3,,57,100
23250,note_on,0,0,0,,,,,,,,,5,,69,100
23250,note_on,0,0,0,,,,,,,,,8,,57,100
23250,note_on,0,0,0,,,,,,,,,10,,45,100
23250,note_on,0,0,0,,,,,,,,,13,,69,100
23250,note_on,0,0,0,,,,,,,,,14,,57,100
23250,note_on,0,0,0,,,,,,,,,15,,57,100
23260,note_on,10,0,0,,,,,,,,,6,,64,100
23270,note_on,10,0,0,,,,,,,,,6,,64,0
23270,note_on,0,0,0,,,,,,,,,13,,69,0
23270,note_on,0,0,0,,,,,,,,,3,,69,0
23270,note_on,0,0,0,,,,,,,,,3,,57,0
23270,note_on,0,0,0,,,,,,,,,0,,69,0
23270,note_on,0,0,0,,,,,,,,,5,,69,0
23270,note_on,0,0,0,,,,,,,,,0,,57,0
23270,note_on,0,0,0,,,,,,,,,14,,57,0
23270,note_on,0,0,0,,,,,,,,,10,,45,0
23270,note_on,0,0,0,,,,,,,,,8,,57,0
23270,note_on,0,0,0,,,,,,,,,15,,57,0
23280,set_tempo,10,1,0,,,,,,625000,,,,,,
23280,note_on,0,0,0,,,,,,,,,0,,59,100
23280,note_on,0,0,0,,,,,,,,,0,,68,100
23280,note_on,0,0,0,,,,,,,,,3,,59,100
23280,note_on,0,0,0,,,,,,,,,3,,68,100
23280,note_on,0,0,0,,,,,,,,,5,,68,100
23280,note_on,0,0,0,,,,,,,,,6,,64,100
23280,note_on,0,0,0,,,,,,,,,8,,59,100
23280,note_on,0,0,0,,,,,,,,,10,,47,100
23280,note_on,0,0,0,,,,,,,,,13,,68,100
23280,note_on,0,0,0,,,,,,,,,14,,59,100
23280,note_on,0,0,0,,,,,,,,,15,,71,100
23280,note_on,0,0,0,,,,,,,,,15,,66,100
23280,note_on,0,0,0,,,,,,,,,15,,64,100
23280,note_on,0,0,0,,,,,,,,,15,,59,100
23289,set_tempo,9,1,0,,,,,,631579,,,,,,
23299,set_tempo,10,1,0,,,,,,638298,,,,,,
23308,set_tempo,9,1,0,,,,,,645161,,,,,,
23317,set_tempo,9,1,0,,,,,,652174,,,,,,
23326,set_tempo,9,1,0,,,,,,659341,,,,,,
23336,set_tempo,10,1,0,,,,,,666667,,,,,,
23343,set_tempo,7,1,0,,,,,,674157,,,,,,
23353,set_tempo,10,1,0,,,,,,681818,,,,,,
23362,set_tempo,9,1,0,,,,,,689655,,,,,,
23370,note_on,8,0,0,,,,,,,,,15,,59,0
23370,note_on,0,0,0,,,,,,,,,0,,59,0
23370,note_on,0,0,0,,,,,,,,,10,,47,0
23370,note_on,0,0,0,,,,,,,,,8,,59,0
23370,note_on,0,0,0,,,,,,,,,14,,59,0
23370,note_on,0,0,0,,,,,,,,,3,,59,0
23371,set_tempo,1,1,0,,,,,,697674,,,,,,
23380,set_tempo,9,1,0,,,,,,705882,,,,,,
23380,note_on,0,0,0,,,,,,,,,5,,68,0
23380,note_on,0,0,0,,,,,,,,,13,,68,0
23380,note_on,0,0,0,,,,,,,,,0,,68,0
23380,note_on,0,0,0,,,,,,,,,3,,68,0
23380,note_on,0,0,0,,,,,,,,,6,,64,0
23385,note_on,5,0,0,,,,,,,,,15,,66,0
23385,note_on,0,0,0,,,,,,,,,15,,71,0
23385,note_on,0,0,0,,,,,,,,,15,,64,0
23389,set_tempo,4,1,0,,,,,,714286,,,,,,
23397,set_tempo,8,1,0,,,,,,722892,,,,,,
23400,note_on,3,0,0,,,,,,,,,0,,47,100
23400,note_on,0,0,0,,,,,,,,,0,,68,100
23400,note_on,0,0,0,,,,,,,,,3,,47,100
23400,note_on,0,0,0,,,,,,,,,3,,68,100
23400,note_on,0,0,0,,,,,,,,,5,,68,100
23400,note_on,0,0,0,,,,,,,,,6,,63,100
23400,note_on,0,0,0,,,,,,,,,8,,47,100
23400,note_on,0,0,0,,,,,,,,,10,,35,100
23400,note_on,0,0,0,,,,,,,,,13,,68,100
23400,note_on,0,0,0,,,,,,,,,14,,47,100
23400,note_on,0,0,0,,,,,,,,,15,,71,100
23400,note_on,0,0,0,,,,,,,,,15,,66,100
23400,note_on,0,0,0,,,,,,,,,15,,63,100
23400,note_on,0,0,0,,,,,,,,,15,,47,100
23406,set_tempo,6,1,0,,,,,,731707,,,,,,
23415,note_on,9,0,0,,,,,,,,,13,,68,0
23415,note_on,0,0,0,,,,,,,,,5,,68,0
23415,note_on,0,0,0,,,,,,,,,3,,68,0
23415,note_on,0,0,0,,,,,,,,,0,,68,0
23415,note_on,0,0,0,,,,,,,,,0,,66,100
23415,note_on,0,0,0,,,,,,,,,3,,66,100
23415,note_on,0,0,0,,,,,,,,,5,,66,100
23415,note_on,0,0,0,,,,,,,,,13,,66,100
23416,set_tempo,1,1,0,,,,,,740741,,,,,,
23425,set_tempo,9,1,0,,,,,,750000,,,,,,
23430,note_on,5,0,0,,,,,,,,,13,,66,0
23430,note_on,0,0,0,,,,,,,,,5,,66,0
23430,note_on,0,0,0,,,,,,,,,0,,66,0
23430,note_on,0,0,0,,,,,,,,,3,,66,0
23430,note_on,0,0,0,,,,,,,,,0,,68,100
23430,note_on,0,0,0,,,,,,,,,3,,68,100
23430,note_on,0,0,0,,,,,,,,,5,,68,100
23430,note_on,0,0,0,,,,,,,,,13,,68,100
23434,set_tempo,4,1,0,,,,,,759494,,,,,,
23443,set_tempo,9,1,0,,,,,,769231,,,,,,
23445,note_on,2,0,0,,,,,,,,,13,,68,0
23445,note_on,0,0,0,,,,,,,,,5,,68,0
23445,note_on,0,0,0,,,,,,,,,0,,68,0
23445,note_on,0,0,0,,,,,,,,,3,,68,0
23445,note_on,0,0,0,,,,,,,,,0,,66,100
23445,note_on,0,0,0,,,,,,,,,3,,66,100
23445,note_on,0,0,0,,,,,,,,,5,,66,100
23445,note_on,0,0,0,,,,,,,,,13,,66,100
23453,set_tempo,8,1,0,,,,,,779221,,,,,,
23460,note_on,7,0,0,,,,,,,,,13,,66,0
23460,note_on,0,0,0,,,,,,,,,5,,66,0
23460,note_on,0,0,0,,,,,,,,,0,,66,0
23460,note_on,0,0,0,,,,,,,,,3,,66,0
23460,note_on,0,0,0,,,,,,,,,0,,68,100
23460,note_on,0,0,0,,,,,,,,,3,,68,100
23460,note_on,0,0,0,,,,,,,,,5,,68,100
23460,note_on,0,0,0,,,,,,,,,13,,68,100
23462,set_tempo,2,1,0,,,,,,789474,,,,,,
23471,set_tempo,9,1,0,,,,,,800000,,,,,,
23475,note_on,4,0,0,,,,,,,,,13,,68,0
23475,note_on,0,0,0,,,,,,,,,5,,68,0
23475,note_on,0,0,0,,,,,,,,,0,,68,0
23475,note_on,0,0,0,,,,,,,,,3,,68,0
23475,note_on,0,0,0,,,,,,,,,0,,66,100
23475,note_on,0,0,0,,,,,,,,,3,,66,100
23475,note_on,0,0,0,,,,,,,,,5,,66,100
23475,note_on,0,0,0,,,,,,,,,13,,66,100
23480,set_tempo,5,1,0,,,,,,810811,,,,,,
23489,set_tempo,9,1,0,,,,,,821918,,,,,,
23490,note_on,1,0,0,,,,,,,,,14,,47,0
23490,note_on,0,0,0,,,,,,,,,3,,47,0
23490,note_on,0,0,0,,,,,,,,,10,,35,0
23490,note_on,0,0,0,,,,,,,,,0,,47,0
23490,note_on,0,0,0,,,,,,,,,15,,47,0
23490,note_on,0,0,0,,,,,,,,,8,,47,0
23499,set_tempo,9,1,0,,,,,,833333,,,,,,
23500,note_on,1,0,0,,,,,,,,,13,,66,0
23500,note_on,0,0,0,,,,,,,,,3,,66,0
23500,note_on,0,0,0,,,,,,,,,0,,66,0
23500,note_on,0,0,0,,,,,,,,,5,,66,0
23500,note_on,0,0,0,,,,,,,,,0,,64,100
23500,note_on,0,0,0,,,,,,,,,3,,64,100
23500,note_on,0,0,0,,,,,,,,,5,,64,100
23500,note_on,0,0,0,,,,,,,,,13,,64,100
23502,set_tempo,2,1,0,,,,,,845070,,,,,,
23503,set_tempo,1,1,0,,,,,,857143,,,,,,
23505,note_on,2,0,0,,,,,,,,,15,,71,0
23505,note_on,0,0,0,,,,,,,,,15,,63,0
23505,note_on,0,0,0,,,,,,,,,15,,66,0
23506,set_tempo,1,1,0,,,,,,869565,,,,,,
23508,set_tempo,2,1,0,,,,,,882353,,,,,,
23510,note_on,2,0,0,,,,,,,,,3,,64,0
23510,note_on,0,0,0,,,,,,,,,0,,64,0
23510,note_on,0,0,0,,,,,,,,,13,,64,0
23510,note_on,0,0,0,,,,,,,,,5,,64,0
23510,note_on,0,0,0,,,,,,,,,6,,63,0
23511,set_tempo,1,1,0,,,,,,895522,,,,,,
23513,set_tempo,2,1,0,,,,,,909091,,,,,,
23516,set_tempo,3,1,0,,,,,,923077,,,,,,
23517,set_tempo,1,1,0,,,,,,937500,,,,,,
23520,note_on,3,0,0,,,,,,,,,0,,52,100
23520,note_on,0,0,0,,,,,,,,,0,,64,100
23520,note_on,0,0,0,,,,,,,,,3,,52,100
23520,note_on,0,0,0,,,,,,,,,3,,64,100
23520,note_on,0,0,0,,,,,,,,,5,,64,100
23520,note_on,0,0,0,,,,,,,,,6,,64,100
23520,note_on,0,0,0,,,,,,,,,8,,52,100
23520,note_on,0,0,0,,,,,,,,,10,,40,100
23520,note_on,0,0,0,,,,,,,,,13,,64,100
23520,note_on,0,0,0,,,,,,,,,14,,52,100
23520,note_on,0,0,0,,,,,,,,,15,,52,100
23535,note_on,15,0,0,,,,,,,,,15,,59,100
23550,note_on,15,0,0,,,,,,,,,15,,64,100
23565,note_on,15,0,0,,,,,,,,,15,,68,100
23580,note_on,15,0,0,,,,,,,,,15,,71,100
23610,set_tempo,30,1,0,,,,,,937647,,,,,,
23618,set_tempo,8,1,0,,,,,,923219,,,,,,
23626,set_tempo,8,1,0,,,,,,909229,,,,,,
23633,set_tempo,7,1,0,,,,,,895656,,,,,,
23641,set_tempo,8,1,0,,,,,,882483,,,,,,
23649,set_tempo,8,1,0,,,,,,869691,,,,,,
23656,set_tempo,7,1,0,,,,,,857265,,,,,,
23664,set_tempo,8,1,0,,,,,,845189,,,,,,
23672,set_tempo,8,1,0,,,,,,833449,,,,,,
23680,set_tempo,8,1,0,,,,,,822030,,,,,,
23687,set_tempo,7,1,0,,,,,,810920,,,,,,
23695,set_tempo,8,1,0,,,,,,800107,,,,,,
23703,set_tempo,8,1,0,,,,,,789578,,,,,,
23710,set_tempo,7,1,0,,,,,,779322,,,,,,
23718,set_tempo,8,1,0,,,,,,769329,,,,,,
23724,set_tempo,6,1,0,,,,,,759590,,,,,,
23732,set_tempo,8,1,0,,,,,,750094,,,,,,
23740,set_tempo,8,1,0,,,,,,740832,,,,,,
23747,set_tempo,7,1,0,,,,,,731797,,,,,,
23755,set_tempo,8,1,0,,,,,,722979,,,,,,
23763,set_tempo,8,1,0,,,,,,714371,,,,,,
23770,set_tempo,7,1,0,,,,,,705965,,,,,,
23778,set_tempo,8,1,0,,,,,,697756,,,,,,
23786,set_tempo,8,1,0,,,,,,689734,,,,,,
23793,set_tempo,7,1,0,,,,,,681896,,,,,,
23801,set_tempo,8,1,0,,,,,,674233,,,,,,
23809,set_tempo,8,1,0,,,,,,666741,,,,,,
23816,set_tempo,7,1,0,,,,,,659413,,,,,,
23824,set_tempo,8,1,0,,,,,,652245,,,,,,
23830,set_tempo,6,1,0,,,,,,645231,,,,,,
23940,note_on,110,0,0,,,,,,,,,15,,71,0
23940,note_on,0,0,0,,,,,,,,,15,,59,0
23940,note_on,0,0,0,,,,,,,,,5,,64,0
23940,note_on,0,0,0,,,,,,,,,6,,64,0
23940,note_on,0,0,0,,,,,,,,,0,,64,0
23940,note_on,0,0,0,,,,,,,,,10,,40,0
23940,note_on,0,0,0,,,,,,,,,3,,52,0
23940,note_on,0,0,0,,,,,,,,,3,,64,0
23940,note_on,0,0,0,,,,,,,,,0,,52,0
23940,note_on,0,0,0,,,,,,,,,15,,64,0
23940,note_on,0,0,0,,,,,,,,,15,,52,0
23940,note_on,0,0,0,,,,,,,,,13,,64,0
23940,note_on,0,0,0,,,,,,,,,8,,52,0
23940,note_on,0,0,0,,,,,,,,,15,,68,0
23940,note_on,0,0,0,,,,,,,,,14,,52,0
23955,set_tempo,15,1,0,,,,,,909229,,,,,,
23956,set_tempo,1,1,0,,,,,,967898,,,,,,
23958,set_tempo,2,1,0,,,,,,1034661,,,,,,
23960,set_tempo,2,1,0,,,,,,1132289,,,,,,
23961,set_tempo,1,1,0,,,,,,1224740,,,,,,
23963,set_tempo,2,1,0,,,,,,1363946,,,,,,
23964,set_tempo,1,1,0,,,,,,1500375,,,,,,
23966,set_tempo,2,1,0,,,,,,1667130,,,,,,
23967,set_tempo,1,1,0,,,,,,1936108,,,,,,
23969,set_tempo,2,1,0,,,,,,2223046,,,,,,
23970,set_tempo,1,1,0,,,,,,2728513,,,,,,
23972,set_tempo,2,1,0,,,,,,3335186,,,,,,
23973,set_tempo,1,1,0,,,,,,4618938,,,,,,
24000,set_tempo,27,1,0,,,,,,535714,,,,,,
24000,marker,0,1,0,,,,,,,,,,,,
24000,note_on,0,0,0,,,,,,,,,0,,69,100
24000,note_on,0,0,0,,,,,,,,,6,,69,100
24000,note_on,0,0,0,,,,,,,,,13,,69,100
24150,note_on,150,0,0,,,,,,,,,13,,69,0
24150,note_on,0,0,0,,,,,,,,,6,,69,0
24150,note_on,0,0,0,,,,,,,,,0,,69,0
24180,note_on,30,0,0,,,,,,,,,0,,69,100
24180,note_on,0,0,0,,,,,,,,,6,,69,100
24180,note_on,0,0,0,,,,,,,,,13,,69,100
24210,note_on,30,0,0,,,,,,,,,13,,69,0
24210,note_on,0,0,0,,,,,,,,,6,,69,0
24210,note_on,0,0,0,,,,,,,,,0,,69,0
24240,note_on,30,0,0,,,,,,,,,0,,76,100
24240,note_on,0,0,0,,,,,,,,,6,,76,100
24240,note_on,0,0,0,,,,,,,,,13,,76,100
24345,note_on,105,0,0,,,,,,,,,13,,76,0
24345,note_on,0,0,0,,,,,,,,,6,,76,0
24345,note_on,0,0,0,,,,,,,,,0,,76,0
24360,note_on,15,0,0,,,,,,,,,0,,73,100
24360,note_on,0,0,0,,,,,,,,,6,,73,100
24360,note_on,0,0,0,,,,,,,,,13,,73,100
24465,note_on,105,0,0,,,,,,,,,13,,73,0
24465,note_on,0,0,0,,,,,,,,,6,,73,0
24465,note_on,0,0,0,,,,,,,,,0,,73,0
24540,note_on,75,0,0,,,,,,,,,0,,69,100
24540,note_on,0,0,0,,,,,,,,,6,,69,100
24540,note_on,0,0,0,,,,,,,,,13,,69,100
24570,note_on,30,0,0,,,,,,,,,13,,69,0
24570,note_on,0,0,0,,,,,,,,,6,,69,0
24570,note_on,0,0,0,,,,,,,,,0,,69,0
24600,note_on,30,0,0,,,,,,,,,0,,74,100
24600,note_on,0,0,0,,,,,,,,,6,,74,100
24600,note_on,0,0,0,,,,,,,,,13,,74,100
24630,note_on,30,0,0,,,,,,,,,13,,74,0
24630,note_on,0,0,0,,,,,,,,,6,,74,0
24630,note_on,0,0,0,,,,,,,,,0,,74,0
24660,note_on,30,0,0,,,,,,,,,0,,62,100
24660,note_on,0,0,0,,,,,,,,,6,,62,100
24660,note_on,0,0,0,,,,,,,,,13,,62,100
24690,note_on,30,0,0,,,,,,,,,13,,62,0
24690,note_on,0,0,0,,,,,,,,,6,,62,0
24690,note_on,0,0,0,,,,,,,,,0,,62,0
24720,note_on,30,0,0,,,,,,,,,0,,74,100
24720,note_on,0,0,0,,,,,,,,,6,,74,100
24720,note_on,0,0,0,,,,,,,,,13,,74,100
24810,note_on,90,0,0,,,,,,,,,0,,74,0
24825,note_on,15,0,0,,,,,,,,,13,,74,0
24825,note_on,0,0,0,,,,,,,,,6,,74,0
24840,note_on,15,0,0,,,,,,,,,0,,71,100
24840,note_on,0,0,0,,,,,,,,,6,,71,100
24840,note_on,0,0,0,,,,,,,,,13,,71,100
24930,note_on,90,0,0,,,,,,,,,0,,71,0
24945,note_on,15,0,0,,,,,,,,,13,,71,0
24945,note_on,0,0,0,,,,,,,,,6,,71,0
25020,note_on,75,0,0,,,,,,,,,0,,68,100
25020,note_on,0,0,0,,,,,,,,,6,,68,100
25020,note_on,0,0,0,,,,,,,,,13,,68,100
25050,note_on,30,0,0,,,,,,,,,13,,68,0
25050,note_on,0,0,0,,,,,,,,,6,,68,0
25050,note_on,0,0,0,,,,,,,,,0,,68,0
25080,note_on,30,0,0,,,,,,,,,0,,73,100
25080,note_on,0,0,0,,,,,,,,,6,,73,100
25080,note_on,0,0,0,,,,,,,,,13,,73,100
25110,note_on,30,0,0,,,,,,,,,6,,73,0
25110,note_on,0,0,0,,,,,,,,,0,,73,0
25140,note_on,30,0,0,,,,,,,,,0,,61,100
25140,note_on,0,0,0,,,,,,,,,6,,61,100
25170,note_on,30,0,0,,,,,,,,,6,,61,0
25170,note_on,0,0,0,,,,,,,,,0,,61,0
25185,note_on,15,0,0,,,,,,,,,13,,73,0
25200,note_on,15,0,0,,,,,,,,,0,,73,100
25200,note_on,0,0,0,,,,,,,,,6,,73,100
25200,note_on,0,0,0,,,,,,,,,13,,73,100
25305,note_on,105,0,0,,,,,,,,,13,,73,0
25305,note_on,0,0,0,,,,,,,,,6,,73,0
25305,note_on,0,0,0,,,,,,,,,0,,73,0
25320,note_on,15,0,0,,,,,,,,,0,,69,100
25320,note_on,0,0,0,,,,,,,,,6,,69,100
25320,note_on,0,0,0,,,,,,,,,13,,69,100
25425,note_on,105,0,0,,,,,,,,,13,,69,0
25425,note_on,0,0,0,,,,,,,,,6,,69,0
25425,note_on,0,0,0,,,,,,,,,0,,69,0
25500,note_on,75,0,0,,,,,,,,,0,,66,100
25500,note_on,0,0,0,,,,,,,,,6,,66,100
25500,note_on,0,0,0,,,,,,,,,13,,66,100
25530,note_on,30,0,0,,,,,,,,,13,,66,0
25530,note_on,0,0,0,,,,,,,,,6,,66,0
25530,note_on,0,0,0,,,,,,,,,0,,66,0
25560,note_on,30,0,0,,,,,,,,,0,,71,100
25560,note_on,0,0,0,,,,,,,,,6,,71,100
25560,note_on,0,0,0,,,,,,,,,13,,71,100
25590,note_on,30,0,0,,,,,,,,,6,,71,0
25590,note_on,0,0,0,,,,,,,,,0,,71,0
25620,note_on,30,0,0,,,,,,,,,0,,59,100
25620,note_on,0,0,0,,,,,,,,,6,,59,100
25650,note_on,30,0,0,,,,,,,,,6,,59,0
25650,note_on,0,0,0,,,,,,,,,0,,59,0
25665,note_on,15,0,0,,,,,,,,,13,,71,0
25680,note_on,15,0,0,,,,,,,,,0,,71,100
25680,note_on,0,0,0,,,,,,,,,6,,71,100
25680,note_on,0,0,0,,,,,,,,,13,,71,100
25785,note_on,105,0,0,,,,,,,,,13,,71,0
25785,note_on,0,0,0,,,,,,,,,6,,71,0
25785,note_on,0,0,0,,,,,,,,,0,,71,0
25800,note_on,15,0,0,,,,,,,,,0,,68,100
25800,note_on,0,0,0,,,,,,,,,6,,68,100
25800,note_on,0,0,0,,,,,,,,,13,,68,100
25905,note_on,105,0,0,,,,,,,,,13,,68,0
25905,note_on,0,0,0,,,,,,,,,6,,68,0
25905,note_on,0,0,0,,,,,,,,,0,,68,0
25920,note_on,15,0,0,,,,,,,,,0,,76,100
25920,note_on,0,0,0,,,,,,,,,5,,76,100
25920,note_on,0,0,0,,,,,,,,,13,,76,100
25980,note_on,60,0,0,,,,,,,,,0,,64,100
25980,note_on,0,0,0,,,,,,,,,6,,64,100
25980,note_on,0,0,0,,,,,,,,,13,,64,100
26010,note_on,30,0,0,,,,,,,,,13,,64,0
26010,note_on,0,0,0,,,,,,,,,0,,64,0
26010,note_on,0,0,0,,,,,,,,,6,,64,0
26040,note_on,30,0,0,,,,,,,,,0,,69,100
26040,note_on,0,0,0,,,,,,,,,6,,69,100
26040,note_on,0,0,0,,,,,,,,,13,,69,100
26070,note_on,30,0,0,,,,,,,,,13,,69,0
26070,note_on,0,0,0,,,,,,,,,13,,76,0
26070,note_on,0,0,0,,,,,,,,,0,,76,0
26070,note_on,0,0,0,,,,,,,,,5,,76,0
26070,note_on,0,0,0,,,,,,,,,6,,69,0
26070,note_on,0,0,0,,,,,,,,,0,,69,0
26100,note_on,30,0,0,,,,,,,,,0,,73,100
26100,note_on,0,0,0,,,,,,,,,0,,76,100
26100,note_on,0,0,0,,,,,,,,,5,,76,100
26100,note_on,0,0,0,,,,,,,,,6,,73,100
26100,note_on,0,0,0,,,,,,,,,13,,76,100
26100,note_on,0,0,0,,,,,,,,,13,,73,100
26130,note_on,30,0,0,,,,,,,,,13,,73,0
26130,note_on,0,0,0,,,,,,,,,0,,76,0
26130,note_on,0,0,0,,,,,,,,,5,,76,0
26130,note_on,0,0,0,,,,,,,,,0,,73,0
26130,note_on,0,0,0,,,,,,,,,13,,76,0
26130,note_on,0,0,0,,,,,,,,,6,,73,0
26160,note_on,30,0,0,,,,,,,,,0,,66,100
26160,note_on,0,0,0,,,,,,,,,0,,81,100
26160,note_on,0,0,0,,,,,,,,,5,,81,100
26160,note_on,0,0,0,,,,,,,,,6,,66,100
26160,note_on,0,0,0,,,,,,,,,13,,81,100
26160,note_on,0,0,0,,,,,,,,,13,,66,100
26190,note_on,30,0,0,,,,,,,,,13,,66,0
26190,note_on,0,0,0,,,,,,,,,0,,66,0
26190,note_on,0,0,0,,,,,,,,,6,,66,0
26220,note_on,30,0,0,,,,,,,,,0,,75,100
26220,note_on,0,0,0,,,,,,,,,6,,75,100
26220,note_on,0,0,0,,,,,,,,,13,,75,100
26250,note_on,30,0,0,,,,,,,,,13,,75,0
26250,note_on,0,0,0,,,,,,,,,0,,75,0
26250,note_on,0,0,0,,,,,,,,,6,,75,0
26265,note_on,15,0,0,,,,,,,,,5,,81,0
26265,note_on,0,0,0,,,,,,,,,0,,81,0
26265,note_on,0,0,0,,,,,,,,,13,,81,0
26280,note_on,15,0,0,,,,,,,,,0,,76,100
26280,note_on,0,0,0,,,,,,,,,0,,80,100
26280,note_on,0,0,0,,,,,,,,,5,,80,100
26280,note_on,0,0,0,,,,,,,,,6,,76,100
26280,note_on,0,0,0,,,,,,,,,13,,80,100
26280,note_on,0,0,0,,,,,,,,,13,,76,100
26310,note_on,30,0,0,,,,,,,,,13,,76,0
26310,note_on,0,0,0,,,,,,,,,0,,76,0
26310,note_on,0,0,0,,,,,,,,,6,,76,0
26340,note_on,30,0,0,,,,,,,,,0,,71,100
26340,note_on,0,0,0,,,,,,,,,6,,71,100
26340,note_on,0,0,0,,,,,,,,,13,,71,100
26370,note_on,30,0,0,,,,,,,,,13,,71,0
26370,note_on,0,0,0,,,,,,,,,0,,71,0
26370,note_on,0,0,0,,,,,,,,,6,,71,0
26385,note_on,15,0,0,,,,,,,,,5,,80,0
26385,note_on,0,0,0,,,,,,,,,0,,80,0
26385,note_on,0,0,0,,,,,,,,,13,,80,0
26400,note_on,15,0,0,,,,,,,,,0,,73,100
26400,note_on,0,0,0,,,,,,,,,6,,73,100
26400,note_on,0,0,0,,,,,,,,,13,,73,100
26460,note_on,60,0,0,,,,,,,,,0,,76,100
26460,note_on,0,0,0,,,,,,,,,5,,76,100
26460,note_on,0,0,0,,,,,,,,,13,,76,100
26490,note_on,30,0,0,,,,,,,,,13,,76,0
26490,note_on,0,0,0,,,,,,,,,0,,76,0
26490,note_on,0,0,0,,,,,,,,,5,,76,0
26505,note_on,15,0,0,,,,,,,,,0,,73,0
26505,note_on,0,0,0,,,,,,,,,13,,73,0
26505,note_on,0,0,0,,,,,,,,,6,,73,0
26520,note_on,15,0,0,,,,,,,,,0,,81,100
26520,note_on,0,0,0,,,,,,,,,0,,61,100
26520,note_on,0,0,0,,,,,,,,,5,,81,100
26520,note_on,0,0,0,,,,,,,,,6,,61,100
26520,note_on,0,0,0,,,,,,,,,13,,81,100
26550,note_on,30,0,0,,,,,,,,,13,,81,0
26550,note_on,0,0,0,,,,,,,,,5,,81,0
26550,note_on,0,0,0,,,,,,,,,0,,81,0
26580,note_on,30,0,0,,,,,,,,,0,,69,100
26580,note_on,0,0,0,,,,,,,,,5,,69,100
26580,note_on,0,0,0,,,,,,,,,13,,69,100
26610,note_on,30,0,0,,,,,,,,,13,,69,0
26610,note_on,0,0,0,,,,,,,,,0,,69,0
26610,note_on,0,0,0,,,,,,,,,5,,69,0
26625,note_on,15,0,0,,,,,,,,,0,,61,0
26625,note_on,0,0,0,,,,,,,,,6,,61,0
26640,note_on,15,0,0,,,,,,,,,0,,81,100
26640,note_on,0,0,0,,,,,,,,,5,,81,100
26640,note_on,0,0,0,,,,,,,,,13,,81,100
26700,note_on,60,0,0,,,,,,,,,0,,73,100
26700,note_on,0,0,0,,,,,,,,,6,,73,100
26700,note_on,0,0,0,,,,,,,,,13,,73,100
26730,note_on,30,0,0,,,,,,,,,13,,73,0
26730,note_on,0,0,0,,,,,,,,,0,,73,0
26730,note_on,0,0,0,,,,,,,,,6,,73,0
26745,note_on,15,0,0,,,,,,,,,0,,81,0
26745,note_on,0,0,0,,,,,,,,,13,,81,0
26745,note_on,0,0,0,,,,,,,,,5,,81,0
26760,note_on,15,0,0,,,,,,,,,0,,75,100
26760,note_on,0,0,0,,,,,,,,,0,,78,100
26760,note_on,0,0,0,,,,,,,,,5,,78,100
26760,note_on,0,0,0,,,,,,,,,6,,75,100
26760,note_on,0,0,0,,,,,,,,,13,,78,100
26760,note_on,0,0,0,,,,,,,,,13,,75,100
26790,note_on,30,0,0,,,,,,,,,13,,75,0
26790,note_on,0,0,0,,,,,,,,,0,,75,0
26790,note_on,0,0,0,,,,,,,,,6,,75,0
26820,note_on,30,0,0,,,,,,,,,0,,73,100
26820,note_on,0,0,0,,,,,,,,,6,,73,100
26820,note_on,0,0,0,,,,,,,,,13,,73,100
26850,note_on,30,0,0,,,,,,,,,13,,73,0
26850,note_on,0,0,0,,,,,,,,,0,,73,0
26850,note_on,0,0,0,,,,,,,,,6,,73,0
26865,note_on,15,0,0,,,,,,,,,5,,78,0
26865,note_on,0,0,0,,,,,,,,,0,,78,0
26865,note_on,0,0,0,,,,,,,,,13,,78,0
26880,note_on,15,0,0,,,,,,,,,0,,71,100
26880,note_on,0,0,0,,,,,,,,,6,,71,100
26880,note_on,0,0,0,,,,,,,,,13,,71,100
26940,note_on,60,0,0,,,,,,,,,0,,75,100
26940,note_on,0,0,0,,,,,,,,,5,,75,100
26940,note_on,0,0,0,,,,,,,,,13,,75,100
26970,note_on,30,0,0,,,,,,,,,13,,75,0
26970,note_on,0,0,0,,,,,,,,,0,,75,0
26970,note_on,0,0,0,,,,,,,,,5,,75,0
26985,note_on,15,0,0,,,,,,,,,0,,71,0
26985,note_on,0,0,0,,,,,,,,,13,,71,0
26985,note_on,0,0,0,,,,,,,,,6,,71,0
27000,note_on,15,0,0,,,,,,,,,0,,59,100
27000,note_on,0,0,0,,,,,,,,,0,,80,100
27000,note_on,0,0,0,,,,,,,,,5,,80,100
27000,note_on,0,0,0,,,,,,,,,6,,59,100
27000,note_on,0,0,0,,,,,,,,,13,,80,100
27030,note_on,30,0,0,,,,,,,,,13,,80,0
27030,note_on,0,0,0,,,,,,,,,5,,80,0
27030,note_on,0,0,0,,,,,,,,,0,,80,0
27060,note_on,30,0,0,,,,,,,,,0,,68,100
27060,note_on,0,0,0,,,,,,,,,5,,68,100
27060,note_on,0,0,0,,,,,,,,,13,,68,100
27090,note_on,30,0,0,,,,,,,,,13,,68,0
27090,note_on,0,0,0,,,,,,,,,0,,68,0
27090,note_on,0,0,0,,,,,,,,,5,,68,0
27105,note_on,15,0,0,,,,,,,,,0,,59,0
27105,note_on,0,0,0,,,,,,,,,6,,59,0
27120,note_on,15,0,0,,,,,,,,,0,,80,100
27120,note_on,0,0,0,,,,,,,,,5,,80,100
27120,note_on,0,0,0,,,,,,,,,13,,80,100
27180,note_on,60,0,0,,,,,,,,,0,,71,100
27180,note_on,0,0,0,,,,,,,,,6,,71,100
27180,note_on,0,0,0,,,,,,,,,13,,71,100
27210,note_on,30,0,0,,,,,,,,,13,,71,0
27210,note_on,0,0,0,,,,,,,,,0,,71,0
27210,note_on,0,0,0,,,,,,,,,6,,71,0
27225,note_on,15,0,0,,,,,,,,,0,,80,0
27225,note_on,0,0,0,,,,,,,,,13,,80,0
27225,note_on,0,0,0,,,,,,,,,5,,80,0
27240,note_on,15,0,0,,,,,,,,,0,,73,100
27240,note_on,0,0,0,,,,,,,,,0,,76,100
27240,note_on,0,0,0,,,,,,,,,5,,76,100
27240,note_on,0,0,0,,,,,,,,,6,,73,100
27240,note_on,0,0,0,,,,,,,,,13,,76,100
27240,note_on,0,0,0,,,,,,,,,13,,73,100
27270,note_on,30,0,0,,,,,,,,,13,,73,0
27270,note_on,0,0,0,,,,,,,,,0,,73,0
27270,note_on,0,0,0,,,,,,,,,6,,73,0
27300,note_on,30,0,0,,,,,,,,,0,,71,100
27300,note_on,0,0,0,,,,,,,,,6,,71,100
27300,note_on,0,0,0,,,,,,,,,13,,71,100
27330,note_on,30,0,0,,,,,,,,,13,,71,0
27330,note_on,0,0,0,,,,,,,,,0,,71,0
27330,note_on,0,0,0,,,,,,,,,6,,71,0
27345,note_on,15,0,0,,,,,,,,,5,,76,0
27345,note_on,0,0,0,,,,,,,,,0,,76,0
27345,note_on,0,0,0,,,,,,,,,13,,76,0
27360,note_on,15,0,0,,,,,,,,,0,,69,100
27360,note_on,0,0,0,,,,,,,,,6,,69,100
27360,note_on,0,0,0,,,,,,,,,13,,69,100
27420,note_on,60,0,0,,,,,,,,,0,,73,100
27420,note_on,0,0,0,,,,,,,,,5,,73,100
27420,note_on,0,0,0,,,,,,,,,13,,73,100
27450,note_on,30,0,0,,,,,,,,,13,,73,0
27450,note_on,0,0,0,,,,,,,,,0,,73,0
27450,note_on,0,0,0,,,,,,,,,5,,73,0
27465,note_on,15,0,0,,,,,,,,,0,,69,0
27465,note_on,0,0,0,,,,,,,,,13,,69,0
27465,note_on,0,0,0,,,,,,,,,6,,69,0
27480,note_on,15,0,0,,,,,,,,,0,,78,100
27480,note_on,0,0,0,,,,,,,,,0,,57,100
27480,note_on,0,0,0,,,,,,,,,5,,78,100
27480,note_on,0,0,0,,,,,,,,,6,,57,100
27480,note_on,0,0,0,,,,,,,,,13,,78,100
27510,note_on,30,0,0,,,,,,,,,13,,78,0
27510,note_on,0,0,0,,,,,,,,,5,,78,0
27510,note_on,0,0,0,,,,,,,,,0,,78,0
27540,note_on,30,0,0,,,,,,,,,0,,66,100
27540,note_on,0,0,0,,,,,,,,,5,,66,100
27540,note_on,0,0,0,,,,,,,,,13,,66,100
27570,note_on,30,0,0,,,,,,,,,13,,66,0
27570,note_on,0,0,0,,,,,,,,,0,,66,0
27570,note_on,0,0,0,,,,,,,,,5,,66,0
27585,note_on,15,0,0,,,,,,,,,0,,57,0
27585,note_on,0,0,0,,,,,,,,,6,,57,0
27600,note_on,15,0,0,,,,,,,,,0,,78,100
27600,note_on,0,0,0,,,,,,,,,5,,78,100
27600,note_on,0,0,0,,,,,,,,,13,,78,100
27660,note_on,60,0,0,,,,,,,,,0,,69,100
27660,note_on,0,0,0,,,,,,,,,6,,69,100
27660,note_on,0,0,0,,,,,,,,,13,,69,100
27690,note_on,30,0,0,,,,,,,,,13,,69,0
27690,note_on,0,0,0,,,,,,,,,0,,69,0
27690,note_on,0,0,0,,,,,,,,,6,,69,0
27705,note_on,15,0,0,,,,,,,,,0,,78,0
27705,note_on,0,0,0,,,,,,,,,13,,78,0
27705,note_on,0,0,0,,,,,,,,,5,,78,0
27720,note_on,15,0,0,,,,,,,,,0,,71,100
27720,note_on,0,0,0,,,,,,,,,0,,75,100
27720,note_on,0,0,0,,,,,,,,,5,,75,100
27720,note_on,0,0,0,,,,,,,,,6,,71,100
27720,note_on,0,0,0,,,,,,,,,13,,75,100
27720,note_on,0,0,0,,,,,,,,,13,,71,100
27750,note_on,30,0,0,,,,,,,,,13,,71,0
27750,note_on,0,0,0,,,,,,,,,0,,71,0
27750,note_on,0,0,0,,,,,,,,,6,,71,0
27780,note_on,30,0,0,,,,,,,,,0,,69,100
27780,note_on,0,0,0,,,,,,,,,6,,69,100
27780,note_on,0,0,0,,,,,,,,,13,,69,100
27810,note_on,30,0,0,,,,,,,,,13,,69,0
27810,note_on,0,0,0,,,,,,,,,13,,75,0
27810,note_on,0,0,0,,,,,,,,,5,,75,0
27810,note_on,0,0,0,,,,,,,,,0,,69,0
27810,note_on,0,0,0,,,,,,,,,6,,69,0
27825,note_on,15,0,0,,,,,,,,,0,,75,0
27840,note_on,15,0,0,,,,,,,,,0,,76,100
27840,note_on,0,0,0,,,,,,,,,0,,69,100
27840,note_on,0,0,0,,,,,,,,,5,,76,100
27840,note_on,0,0,0,,,,,,,,,6,,68,100
27840,note_on,0,0,0,,,,,,,,,13,,76,100
27840,note_on,0,0,0,,,,,,,,,13,,68,100
27855,note_on,15,0,0,,,,,,,,,0,,69,0
27855,note_on,0,0,0,,,,,,,,,0,,68,100
27870,note_on,15,0,0,,,,,,,,,0,,68,0
27870,note_on,0,0,0,,,,,,,,,5,,76,0
27870,note_on,0,0,0,,,,,,,,,0,,76,0
27870,note_on,0,0,0,,,,,,,,,13,,76,0
27870,note_on,0,0,0,,,,,,,,,0,,69,100
27885,note_on,15,0,0,,,,,,,,,0,,69,0
27885,note_on,0,0,0,,,,,,,,,0,,68,100
27900,note_on,15,0,0,,,,,,,,,0,,68,0
27900,note_on,0,0,0,,,,,,,,,0,,71,100
27900,note_on,0,0,0,,,,,,,,,0,,69,100
27900,note_on,0,0,0,,,,,,,,,5,,71,100
27900,note_on,0,0,0,,,,,,,,,13,,71,100
27915,note_on,15,0,0,,,,,,,,,0,,69,0
27915,note_on,0,0,0,,,,,,,,,0,,68,100
27930,note_on,15,0,0,,,,,,,,,0,,68,0
27930,note_on,0,0,0,,,,,,,,,13,,71,0
27930,note_on,0,0,0,,,,,,,,,0,,71,0
27930,note_on,0,0,0,,,,,,,,,5,,71,0
27930,note_on,0,0,0,,,,,,,,,0,,69,100
27945,note_on,15,0,0,,,,,,,,,0,,69,0
27945,note_on,0,0,0,,,,,,,,,0,,68,100
27960,note_on,15,0,0,,,,,,,,,0,,68,0
27960,note_on,0,0,0,,,,,,,,,0,,76,100
27960,note_on,0,0,0,,,,,,,,,0,,69,100
27960,note_on,0,0,0,,,,,,,,,5,,76,100
27960,note_on,0,0,0,,,,,,,,,13,,76,100
27975,note_on,15,0,0,,,,,,,,,0,,69,0
27975,note_on,0,0,0,,,,,,,,,0,,68,100
27990,note_on,15,0,0,,,,,,,,,0,,68,0
27990,note_on,0,0,0,,,,,,,,,0,,69,100
28005,note_on,15,0,0,,,,,,,,,0,,69,0
28005,note_on,0,0,0,,,,,,,,,0,,68,100
28020,note_on,15,0,0,,,,,,,,,0,,68,0
28020,note_on,0,0,0,,,,,,,,,6,,68,0
28020,note_on,0,0,0,,,,,,,,,13,,68,0
28020,note_on,0,0,0,,,,,,,,,0,,66,100
28020,note_on,0,0,0,,,,,,,,,6,,66,100
28020,note_on,0,0,0,,,,,,,,,13,,66,100
28050,note_on,30,0,0,,,,,,,,,13,,66,0
28050,note_on,0,0,0,,,,,,,,,0,,66,0
28050,note_on,0,0,0,,,,,,,,,6,,66,0
28050,note_on,0,0,0,,,,,,,,,0,,64,100
28050,note_on,0,0,0,,,,,,,,,6,,64,100
28050,note_on,0,0,0,,,,,,,,,13,,64,100
28080,note_on,30,0,0,,,,,,,,,13,,64,0
28080,note_on,0,0,0,,,,,,,,,0,,64,0
28080,note_on,0,0,0,,,,,,,,,6,,64,0
28080,note_on,0,0,0,,,,,,,,,0,,66,100
28080,note_on,0,0,0,,,,,,,,,6,,66,100
28080,note_on,0,0,0,,,,,,,,,13,,66,100
28110,note_on,30,0,0,,,,,,,,,13,,66,0
28110,note_on,0,0,0,,,,,,,,,13,,76,0
28110,note_on,0,0,0,,,,,,,,,0,,76,0
28110,note_on,0,0,0,,,,,,,,,0,,66,0
28110,note_on,0,0,0,,,,,,,,,6,,66,0
28140,note_on,30,0,0,,,,,,,,,5,,76,0
28140,note_on,0,0,0,,,,,,,,,0,,74,100
28140,note_on,0,0,0,,,,,,,,,0,,71,100
28140,note_on,0,0,0,,,,,,,,,5,,74,100
28140,note_on,0,0,0,,,,,,,,,6,,71,100
28140,note_on,0,0,0,,,,,,,,,13,,74,100
28140,note_on,0,0,0,,,,,,,,,13,,71,100
28170,note_on,30,0,0,,,,,,,,,13,,71,0
28170,note_on,0,0,0,,,,,,,,,0,,71,0
28170,note_on,0,0,0,,,,,,,,,5,,74,0
28170,note_on,0,0,0,,,,,,,,,0,,74,0
28170,note_on,0,0,0,,,,,,,,,13,,74,0
28170,note_on,0,0,0,,,,,,,,,6,,71,0
28170,note_on,0,0,0,,,,,,,,,0,,73,100
28170,note_on,0,0,0,,,,,,,,,5,,73,100
28170,note_on,0,0,0,,,,,,,,,13,,73,100
28200,note_on,30,0,0,,,,,,,,,13,,73,0
28200,note_on,0,0,0,,,,,,,,,5,,73,0
28200,note_on,0,0,0,,,,,,,,,0,,73,0
28200,note_on,0,0,0,,,,,,,,,0,,74,100
28200,note_on,0,0,0,,,,,,,,,0,,66,100
28200,note_on,0,0,0,,,,,,,,,5,,74,100
28200,note_on,0,0,0,,,,,,,,,6,,66,100
28200,note_on,0,0,0,,,,,,,,,13,,74,100
28200,note_on,0,0,0,,,,,,,,,13,,66,100
28230,note_on,30,0,0,,,,,,,,,13,,66,0
28230,note_on,0,0,0,,,,,,,,,0,,66,0
28230,note_on,0,0,0,,,,,,,,,6,,66,0
28260,note_on,30,0,0,,,,,,,,,0,,68,100
28260,note_on,0,0,0,,,,,,,,,6,,68,100
28260,note_on,0,0,0,,,,,,,,,13,,68,100
28290,note_on,30,0,0,,,,,,,,,13,,68,0
28290,note_on,0,0,0,,,,,,,,,0,,68,0
28290,note_on,0,0,0,,,,,,,,,6,,68,0
28320,note_on,30,0,0,,,,,,,,,0,,57,100
28320,note_on,0,0,0,,,,,,,,,6,,69,100
28320,note_on,0,0,0,,,,,,,,,7,,57,100
28320,note_on,0,0,0,,,,,,,,,8,,57,100
28320,note_on,0,0,0,,,,,,,,,13,,69,100
28350,note_on,30,0,0,,,,,,,,,13,,69,0
28350,note_on,0,0,0,,,,,,,,,6,,69,0
28380,note_on,30,0,0,,,,,,,,,6,,64,100
28380,note_on,0,0,0,,,,,,,,,13,,64,100
28395,note_on,15,0,0,,,,,,,,,5,,74,0
28395,note_on,0,0,0,,,,,,,,,0,,74,0
28410,note_on,15,0,0,,,,,,,,,13,,64,0
28410,note_on,0,0,0,,,,,,,,,13,,74,0
28410,note_on,0,0,0,,,,,,,,,6,,64,0
28440,note_on,30,0,0,,,,,,,,,0,,73,100
28440,note_on,0,0,0,,,,,,,,,5,,73,100
28440,note_on,0,0,0,,,,,,,,,6,,69,100
28440,note_on,0,0,0,,,,,,,,,13,,73,100
28440,note_on,0,0,0,,,,,,,,,13,,69,100
28470,note_on,30,0,0,,,,,,,,,0,,57,0
28470,note_on,0,0,0,,,,,,,,,7,,57,0
28470,note_on,0,0,0,,,,,,,,,8,,57,0
28500,note_on,30,0,0,,,,,,,,,0,,57,100
28500,note_on,0,0,0,,,,,,,,,7,,57,100
28500,note_on,0,0,0,,,,,,,,,8,,57,100
28530,note_on,30,0,0,,,,,,,,,8,,57,0
28530,note_on,0,0,0,,,,,,,,,7,,57,0
28530,note_on,0,0,0,,,,,,,,,0,,73,0
28530,note_on,0,0,0,,,,,,,,,0,,57,0
28545,note_on,15,0,0,,,,,,,,,5,,73,0
28560,note_on,15,0,0,,,,,,,,,13,,73,0
28560,note_on,0,0,0,,,,,,,,,0,,64,100
28560,note_on,0,0,0,,,,,,,,,0,,71,100
28560,note_on,0,0,0,,,,,,,,,5,,71,100
28560,note_on,0,0,0,,,,,,,,,7,,64,100
28560,note_on,0,0,0,,,,,,,,,8,,64,100
28560,note_on,0,0,0,,,,,,,,,13,,71,100
28590,note_on,30,0,0,,,,,,,,,13,,69,0
28590,note_on,0,0,0,,,,,,,,,6,,69,0
28620,note_on,30,0,0,,,,,,,,,6,,68,100
28620,note_on,0,0,0,,,,,,,,,13,,68,100
28650,note_on,30,0,0,,,,,,,,,0,,71,0
28650,note_on,0,0,0,,,,,,,,,13,,71,0
28650,note_on,0,0,0,,,,,,,,,5,,71,0
28665,note_on,15,0,0,,,,,,,,,0,,64,0
28665,note_on,0,0,0,,,,,,,,,7,,64,0
28665,note_on,0,0,0,,,,,,,,,8,,64,0
28680,note_on,15,0,0,,,,,,,,,0,,61,100
28680,note_on,0,0,0,,,,,,,,,0,,76,100
28680,note_on,0,0,0,,,,,,,,,5,,76,100
28680,note_on,0,0,0,,,,,,,,,7,,61,100
28680,note_on,0,0,0,,,,,,,,,8,,61,100
28680,note_on,0,0,0,,,,,,,,,13,,76,100
28710,note_on,30,0,0,,,,,,,,,6,,68,0
28710,note_on,0,0,0,,,,,,,,,13,,68,0
28740,note_on,30,0,0,,,,,,,,,6,,64,100
28740,note_on,0,0,0,,,,,,,,,13,,64,100
28770,note_on,30,0,0,,,,,,,,,13,,64,0
28770,note_on,0,0,0,,,,,,,,,6,,64,0
28785,note_on,15,0,0,,,,,,,,,8,,61,0
28785,note_on,0,0,0,,,,,,,,,0,,61,0
28785,note_on,0,0,0,,,,,,,,,7,,61,0
28800,note_on,15,0,0,,,,,,,,,6,,69,100
28800,note_on,0,0,0,,,,,,,,,13,,69,100
28830,note_on,30,0,0,,,,,,,,,0,,76,0
28830,note_on,0,0,0,,,,,,,,,13,,76,0
28830,note_on,0,0,0,,,,,,,,,5,,76,0
28860,note_on,30,0,0,,,,,,,,,0,,73,100
28860,note_on,0,0,0,,,,,,,,,0,,57,100
28860,note_on,0,0,0,,,,,,,,,5,,73,100
28860,note_on,0,0,0,,,,,,,,,7,,57,100
28860,note_on,0,0,0,,,,,,,,,8,,57,100
28860,note_on,0,0,0,,,,,,,,,13,,73,100
28890,note_on,30,0,0,,,,,,,,,13,,73,0
28890,note_on,0,0,0,,,,,,,,,8,,57,0
28890,note_on,0,0,0,,,,,,,,,5,,73,0
28890,note_on,0,0,0,,,,,,,,,0,,57,0
28890,note_on,0,0,0,,,,,,,,,0,,73,0
28890,note_on,0,0,0,,,,,,,,,7,,57,0
28920,note_on,30,0,0,,,,,,,,,0,,78,100
28920,note_on,0,0,0,,,,,,,,,0,,62,100
28920,note_on,0,0,0,,,,,,,,,5,,78,100
28920,note_on,0,0,0,,,,,,,,,7,,62,100
28920,note_on,0,0,0,,,,,,,,,8,,62,100
28920,note_on,0,0,0,,,,,,,,,13,,78,100
28950,note_on,30,0,0,,,,,,,,,8,,62,0
28950,note_on,0,0,0,,,,,,,,,7,,62,0
28950,note_on,0,0,0,,,,,,,,,0,,62,0
28980,note_on,30,0,0,,,,,,,,,0,,50,100
28980,note_on,0,0,0,,,,,,,,,7,,50,100
28980,note_on,0,0,0,,,,,,,,,8,,50,100
28995,note_on,15,0,0,,,,,,,,,13,,69,0
28995,note_on,0,0,0,,,,,,,,,6,,69,0
29010,note_on,15,0,0,,,,,,,,,0,,50,0
29010,note_on,0,0,0,,,,,,,,,8,,50,0
29010,note_on,0,0,0,,,,,,,,,7,,50,0
29040,note_on,30,0,0,,,,,,,,,0,,62,100
29040,note_on,0,0,0,,,,,,,,,6,,66,100
29040,note_on,0,0,0,,,,,,,,,7,,62,100
29040,note_on,0,0,0,,,,,,,,,8,,62,100
29040,note_on,0,0,0,,,,,,,,,13,,66,100
29070,note_on,30,0,0,,,,,,,,,0,,78,0
29070,note_on,0,0,0,,,,,,,,,13,,78,0
29070,note_on,0,0,0,,,,,,,,,5,,78,0
29100,note_on,30,0,0,,,,,,,,,0,,69,100
29100,note_on,0,0,0,,,,,,,,,5,,69,100
29100,note_on,0,0,0,,,,,,,,,13,,69,100
29130,note_on,30,0,0,,,,,,,,,13,,69,0
29130,note_on,0,0,0,,,,,,,,,5,,69,0
29130,note_on,0,0,0,,,,,,,,,0,,69,0
29145,note_on,15,0,0,,,,,,,,,8,,62,0
29145,note_on,0,0,0,,,,,,,,,0,,62,0
29145,note_on,0,0,0,,,,,,,,,7,,62,0
29160,note_on,15,0,0,,,,,,,,,0,,74,100
29160,note_on,0,0,0,,,,,,,,,0,,59,100
29160,note_on,0,0,0,,,,,,,,,5,,74,100
29160,note_on,0,0,0,,,,,,,,,7,,59,100
29160,note_on,0,0,0,,,,,,,,,8,,59,100
29160,note_on,0,0,0,,,,,,,,,13,,74,100
29190,note_on,30,0,0,,,,,,,,,13,,66,0
29190,note_on,0,0,0,,,,,,,,,6,,66,0
29220,note_on,30,0,0,,,,,,,,,6,,66,100
29220,note_on,0,0,0,,,,,,,,,13,,66,100
29250,note_on,30,0,0,,,,,,,,,13,,66,0
29250,note_on,0,0,0,,,,,,,,,6,,66,0
29265,note_on,15,0,0,,,,,,,,,8,,59,0
29265,note_on,0,0,0,,,,,,,,,0,,74,0
29265,note_on,0,0,0,,,,,,,,,5,,74,0
29265,note_on,0,0,0,,,,,,,,,0,,59,0
29265,note_on,0,0,0,,,,,,,,,7,,59,0
29265,note_on,0,0,0,,,,,,,,,13,,74,0
29280,note_on,15,0,0,,,,,,,,,6,,68,100
29280,note_on,0,0,0,,,,,,,,,13,,68,100
29340,note_on,60,0,0,,,,,,,,,0,,71,100
29340,note_on,0,0,0,,,,,,,,,0,,56,100
29340,note_on,0,0,0,,,,,,,,,5,,71,100
29340,note_on,0,0,0,,,,,,,,,7,,56,100
29340,note_on,0,0,0,,,,,,,,,8,,56,100
29340,note_on,0,0,0,,,,,,,,,13,,71,100
29370,note_on,30,0,0,,,,,,,,,13,,71,0
29370,note_on,0,0,0,,,,,,,,,8,,56,0
29370,note_on,0,0,0,,,,,,,,,5,,71,0
29370,note_on,0,0,0,,,,,,,,,0,,56,0
29370,note_on,0,0,0,,,,,,,,,0,,71,0
29370,note_on,0,0,0,,,,,,,,,7,,56,0
29400,note_on,30,0,0,,,,,,,,,0,,61,100
29400,note_on,0,0,0,,,,,,,,,0,,76,100
29400,note_on,0,0,0,,,,,,,,,5,,76,100
29400,note_on,0,0,0,,,,,,,,,7,,61,100
29400,note_on,0,0,0,,,,,,,,,8,,61,100
29400,note_on,0,0,0,,,,,,,,,13,,76,100
29430,note_on,30,0,0,,,,,,,,,8,,61,0
29430,note_on,0,0,0,,,,,,,,,7,,61,0
29430,note_on,0,0,0,,,,,,,,,0,,61,0
29460,note_on,30,0,0,,,,,,,,,0,,49,100
29460,note_on,0,0,0,,,,,,,,,7,,49,100
29460,note_on,0,0,0,,,,,,,,,8,,49,100
29475,note_on,15,0,0,,,,,,,,,13,,68,0
29475,note_on,0,0,0,,,,,,,,,6,,68,0
29490,note_on,15,0,0,,,,,,,,,7,,49,0
29490,note_on,0,0,0,,,,,,,,,8,,49,0
29490,note_on,0,0,0,,,,,,,,,0,,49,0
29520,note_on,30,0,0,,,,,,,,,0,,61,100
29520,note_on,0,0,0,,,,,,,,,6,,64,100
29520,note_on,0,0,0,,,,,,,,,7,,61,100
29520,note_on,0,0,0,,,,,,,,,8,,61,100
29520,note_on,0,0,0,,,,,,,,,13,,64,100
29550,note_on,30,0,0,,,,,,,,,0,,76,0
29550,note_on,0,0,0,,,,,,,,,13,,76,0
29550,note_on,0,0,0,,,,,,,,,5,,76,0
29580,note_on,30,0,0,,,,,,,,,0,,68,100
29580,note_on,0,0,0,,,,,,,,,5,,68,100
29580,note_on,0,0,0,,,,,,,,,13,,68,100
29610,note_on,30,0,0,,,,,,,,,13,,68,0
29610,note_on,0,0,0,,,,,,,,,5,,68,0
29610,note_on,0,0,0,,,,,,,,,0,,68,0
29625,note_on,15,0,0,,,,,,,,,8,,61,0
29625,note_on,0,0,0,,,,,,,,,0,,61,0
29625,note_on,0,0,0,,,,,,,,,7,,61,0
29640,note_on,15,0,0,,,,,,,,,0,,73,100
29640,note_on,0,0,0,,,,,,,,,0,,57,100
29640,note_on,0,0,0,,,,,,,,,5,,73,100
29640,note_on,0,0,0,,,,,,,,,7,,57,100
29640,note_on,0,0,0,,,,,,,,,8,,57,100
29640,note_on,0,0,0,,,,,,,,,13,,73,100
29670,note_on,30,0,0,,,,,,,,,13,,64,0
29670,note_on,0,0,0,,,,,,,,,6,,64,0
29700,note_on,30,0,0,,,,,,,,,6,,64,100
29700,note_on,0,0,0,,,,,,,,,13,,64,100
29730,note_on,30,0,0,,,,,,,,,13,,64,0
29730,note_on,0,0,0,,,,,,,,,6,,64,0
29745,note_on,15,0,0,,,,,,,,,8,,57,0
29745,note_on,0,0,0,,,,,,,,,0,,73,0
29745,note_on,0,0,0,,,,,,,,,5,,73,0
29745,note_on,0,0,0,,,,,,,,,0,,57,0
29745,note_on,0,0,0,,,,,,,,,7,,57,0
29745,note_on,0,0,0,,,,,,,,,13,,73,0
29760,note_on,15,0,0,,,,,,,,,6,,66,100
29760,note_on,0,0,0,,,,,,,,,13,,66,100
29820,note_on,60,0,0,,,,,,,,,0,,54,100
29820,note_on,0,0,0,,,,,,,,,0,,69,100
29820,note_on,0,0,0,,,,,,,,,5,,69,100
29820,note_on,0,0,0,,,,,,,,,7,,54,100
29820,note_on,0,0,0,,,,,,,,,8,,54,100
29820,note_on,0,0,0,,,,,,,,,13,,69,100
29850,note_on,30,0,0,,,,,,,,,13,,69,0
29850,note_on,0,0,0,,,,,,,,,8,,54,0
29850,note_on,0,0,0,,,,,,,,,5,,69,0
29850,note_on,0,0,0,,,,,,,,,0,,69,0
29850,note_on,0,0,0,,,,,,,,,0,,54,0
29850,note_on,0,0,0,,,,,,,,,7,,54,0
29880,note_on,30,0,0,,,,,,,,,0,,59,100
29880,note_on,0,0,0,,,,,,,,,0,,74,100
29880,note_on,0,0,0,,,,,,,,,5,,74,100
29880,note_on,0,0,0,,,,,,,,,7,,59,100
29880,note_on,0,0,0,,,,,,,,,8,,59,100
29880,note_on,0,0,0,,,,,,,,,13,,74,100
29910,note_on,30,0,0,,,,,,,,,8,,59,0
29910,note_on,0,0,0,,,,,,,,,13,,66,0
29910,note_on,0,0,0,,,,,,,,,0,,59,0
29910,note_on,0,0,0,,,,,,,,,6,,66,0
29910,note_on,0,0,0,,,,,,,,,7,,59,0
29940,note_on,30,0,0,,,,,,,,,0,,57,100
29940,note_on,0,0,0,,,,,,,,,6,,66,100
29940,note_on,0,0,0,,,,,,,,,7,,57,100
29940,note_on,0,0,0,,,,,,,,,8,,57,100
29940,note_on,0,0,0,,,,,,,,,13,,66,100
29970,note_on,30,0,0,,,,,,,,,13,,66,0
29970,note_on,0,0,0,,,,,,,,,8,,57,0
29970,note_on,0,0,0,,,,,,,,,0,,57,0
29970,note_on,0,0,0,,,,,,,,,7,,57,0
29985,note_on,15,0,0,,,,,,,,,6,,66,0
30000,note_on,15,0,0,,,,,,,,,0,,56,100
30000,note_on,0,0,0,,,,,,,,,6,,64,100
30000,note_on,0,0,0,,,,,,,,,7,,56,100
30000,note_on,0,0,0,,,,,,,,,8,,56,100
30000,note_on,0,0,0,,,,,,,,,13,,64,100
30060,note_on,60,0,0,,,,,,,,,0,,74,0
30060,note_on,0,0,0,,,,,,,,,13,,74,0
30060,note_on,0,0,0,,,,,,,,,5,,74,0
30060,note_on,0,0,0,,,,,,,,,0,,73,100
30060,note_on,0,0,0,,,,,,,,,5,,73,100
30060,note_on,0,0,0,,,,,,,,,13,,73,100
30090,note_on,30,0,0,,,,,,,,,13,,73,0
30090,note_on,0,0,0,,,,,,,,,5,,73,0
30090,note_on,0,0,0,,,,,,,,,0,,73,0
30090,note_on,0,0,0,,,,,,,,,0,,71,100
30090,note_on,0,0,0,,,,,,,,,5,,71,100
30090,note_on,0,0,0,,,,,,,,,13,,71,100
30105,note_on,15,0,0,,,,,,,,,8,,56,0
30105,note_on,0,0,0,,,,,,,,,0,,56,0
30105,note_on,0,0,0,,,,,,,,,7,,56,0
30120,note_on,15,0,0,,,,,,,,,0,,71,0
30120,note_on,0,0,0,,,,,,,,,13,,71,0
30120,note_on,0,0,0,,,,,,,,,5,,71,0
30120,note_on,0,0,0,,,,,,,,,0,,57,100
30120,note_on,0,0,0,,,,,,,,,0,,73,100
30120,note_on,0,0,0,,,,,,,,,5,,73,100
30120,note_on,0,0,0,,,,,,,,,7,,57,100
30120,note_on,0,0,0,,,,,,,,,8,,57,100
30120,note_on,0,0,0,,,,,,,,,13,,73,100
30150,note_on,30,0,0,,,,,,,,,13,,64,0
30150,note_on,0,0,0,,,,,,,,,6,,64,0
30180,note_on,30,0,0,,,,,,,,,6,,69,100
30180,note_on,0,0,0,,,,,,,,,13,,69,100
30210,note_on,30,0,0,,,,,,,,,13,,69,0
30210,note_on,0,0,0,,,,,,,,,6,,69,0
30225,note_on,15,0,0,,,,,,,,,8,,57,0
30225,note_on,0,0,0,,,,,,,,,0,,57,0
30225,note_on,0,0,0,,,,,,,,,5,,73,0
30225,note_on,0,0,0,,,,,,,,,13,,73,0
30225,note_on,0,0,0,,,,,,,,,7,,57,0
30240,note_on,15,0,0,,,,,,,,,0,,73,0
30240,note_on,0,0,0,,,,,,,,,0,,52,100
30240,note_on,0,0,0,,,,,,,,,0,,71,100
30240,note_on,0,0,0,,,,,,,,,5,,71,100
30240,note_on,0,0,0,,,,,,,,,6,,69,100
30240,note_on,0,0,0,,,,,,,,,7,,64,100
30240,note_on,0,0,0,,,,,,,,,8,,52,100
30240,note_on,0,0,0,,,,,,,,,10,,40,100
30240,note_on,0,0,0,,,,,,,,,13,,71,100
30240,note_on,0,0,0,,,,,,,,,13,,69,100
30240,note_on,0,0,0,,,,,,,,,14,,52,100
30240,note_on,0,0,0,,,,,,,,,15,,57,100
30240,note_on,0,0,0,,,,,,,,,15,,69,100
30240,note_on,0,0,0,,,,,,,,,15,,52,100
30240,note_on,0,0,0,,,,,,,,,15,,61,100
30270,note_on,30,0,0,,,,,,,,,13,,71,0
30270,note_on,0,0,0,,,,,,,,,5,,71,0
30270,note_on,0,0,0,,,,,,,,,0,,71,0
30300,note_on,30,0,0,,,,,,,,,13,,69,0
30300,note_on,0,0,0,,,,,,,,,6,,69,0
30300,note_on,0,0,0,,,,,,,,,0,,76,100
30300,note_on,0,0,0,,,,,,,,,5,,76,100
30300,note_on,0,0,0,,,,,,,,,6,,68,100
30300,note_on,0,0,0,,,,,,,,,13,,76,100
30300,note_on,0,0,0,,,,,,,,,13,,68,100
30330,note_on,30,0,0,,,,,,,,,13,,68,0
30330,note_on,0,0,0,,,,,,,,,0,,76,0
30330,note_on,0,0,0,,,,,,,,,13,,76,0
30330,note_on,0,0,0,,,,,,,,,5,,76,0
30330,note_on,0,0,0,,,,,,,,,6,,68,0
30345,note_on,15,0,0,,,,,,,,,7,,64,0
30360,note_on,15,0,0,,,,,,,,,15,,61,0
30360,note_on,0,0,0,,,,,,,,,15,,57,0
30360,note_on,0,0,0,,,,,,,,,15,,69,0
30360,note_on,0,0,0,,,,,,,,,0,,76,100
30360,note_on,0,0,0,,,,,,,,,5,,76,100
30360,note_on,0,0,0,,,,,,,,,6,,68,100
30360,note_on,0,0,0,,,,,,,,,7,,71,100
30360,note_on,0,0,0,,,,,,,,,13,,76,100
30360,note_on,0,0,0,,,,,,,,,13,,68,100
30360,note_on,0,0,0,,,,,,,,,15,,59,100
30360,note_on,0,0,0,,,,,,,,,15,,64,100
30360,note_on,0,0,0,,,,,,,,,15,,68,100
30390,note_on,30,0,0,,,,,,,,,0,,52,0
30390,note_on,0,0,0,,,,,,,,,10,,40,0
30390,note_on,0,0,0,,,,,,,,,8,,52,0
30390,note_on,0,0,0,,,,,,,,,14,,52,0
30390,note_on,0,0,0,,,,,,,,,15,,52,0
30420,note_on,30,0,0,,,,,,,,,6,,68,0
30420,note_on,0,0,0,,,,,,,,,13,,76,0
30420,note_on,0,0,0,,,,,,,,,13,,68,0
30420,note_on,0,0,0,,,,,,,,,5,,76,0
30420,note_on,0,0,0,,,,,,,,,0,,76,0
30420,note_on,0,0,0,,,,,,,,,0,,52,100
30420,note_on,0,0,0,,,,,,,,,0,,74,100
30420,note_on,0,0,0,,,,,,,,,5,,74,100
30420,note_on,0,0,0,,,,,,,,,6,,66,100
30420,note_on,0,0,0,,,,,,,,,8,,52,100
30420,note_on,0,0,0,,,,,,,,,10,,40,100
30420,note_on,0,0,0,,,,,,,,,13,,74,100
30420,note_on,0,0,0,,,,,,,,,13,,66,100
30420,note_on,0,0,0,,,,,,,,,14,,52,100
30420,note_on,0,0,0,,,,,,,,,15,,52,100
30450,note_on,30,0,0,,,,,,,,,15,,52,0
30450,note_on,0,0,0,,,,,,,,,0,,52,0
30450,note_on,0,0,0,,,,,,,,,0,,74,0
30450,note_on,0,0,0,,,,,,,,,10,,40,0
30450,note_on,0,0,0,,,,,,,,,6,,66,0
30450,note_on,0,0,0,,,,,,,,,5,,74,0
30450,note_on,0,0,0,,,,,,,,,8,,52,0
30450,note_on,0,0,0,,,,,,,,,14,,52,0
30450,note_on,0,0,0,,,,,,,,,13,,66,0
30450,note_on,0,0,0,,,,,,,,,13,,74,0
30465,note_on,15,0,0,,,,,,,,,7,,71,0
30480,note_on,15,0,0,,,,,,,,,15,,68,0
30480,note_on,0,0,0,,,,,,,,,15,,59,0
30480,note_on,0,0,0,,,,,,,,,15,,64,0
30480,note_on,0,0,0,,,,,,,,,0,,57,100
30480,note_on,0,0,0,,,,,,,,,0,,73,100
30480,note_on,0,0,0,,,,,,,,,5,,73,100
30480,note_on,0,0,0,,,,,,,,,6,,64,100
30480,note_on,0,0,0,,,,,,,,,7,,69,100
30480,note_on,0,0,0,,,,,,,,,8,,57,100
30480,note_on,0,0,0,,,,,,,,,10,,45,100
30480,note_on,0,0,0,,,,,,,,,13,,73,100
30480,note_on,0,0,0,,,,,,,,,13,,64,100
30480,note_on,0,0,0,,,,,,,,,14,,57,100
30480,note_on,0,0,0,,,,,,,,,15,,61,100
30480,note_on,0,0,0,,,,,,,,,15,,64,100
30480,note_on,0,0,0,,,,,,,,,15,,69,100
30480,note_on,0,0,0,,,,,,,,,15,,57,100
30540,note_on,60,0,0,,,,,,,,,13,,64,0
30585,note_on,45,0,0,,,,,,,,,7,,69,0
30585,note_on,0,0,0,,,,,,,,,14,,57,0
30585,note_on,0,0,0,,,,,,,,,10,,45,0
30585,note_on,0,0,0,,,,,,,,,0,,57,0
30585,note_on,0,0,0,,,,,,,,,5,,73,0
30585,note_on,0,0,0,,,,,,,,,6,,64,0
30585,note_on,0,0,0,,,,,,,,,13,,73,0
30585,note_on,0,0,0,,,,,,,,,8,,57,0
30585,note_on,0,0,0,,,,,,,,,0,,73,0
30585,note_on,0,0,0,,,,,,,,,15,,57,0
30600,note_on,15,0,0,,,,,,,,,15,,61,0
30600,note_on,0,0,0,,,,,,,,,15,,64,0
30600,note_on,0,0,0,,,,,,,,,15,,69,0
30600,note_on,0,0,0,,,,,,,,,0,,56,100
30600,note_on,0,0,0,,,,,,,,,0,,71,100
30600,note_on,0,0,0,,,,,,,,,5,,71,100
30600,note_on,0,0,0,,,,,,,,,6,,76,100
30600,note_on,0,0,0,,,,,,,,,7,,64,100
30600,note_on,0,0,0,,,,,,,,,8,,56,100
30600,note_on,0,0,0,,,,,,,,,10,,44,100
30600,note_on,0,0,0,,,,,,,,,13,,71,100
30600,note_on,0,0,0,,,,,,,,,13,,76,100
30600,note_on,0,0,0,,,,,,,,,14,,56,100
30600,note_on,0,0,0,,,,,,,,,15,,71,100
30600,note_on,0,0,0,,,,,,,,,15,,64,100
30600,note_on,0,0,0,,,,,,,,,15,,59,100
30600,note_on,0,0,0,,,,,,,,,15,,56,100
30705,note_on,105,0,0,,,,,,,,,15,,56,0
30705,note_on,0,0,0,,,,,,,,,7,,64,0
30705,note_on,0,0,0,,,,,,,,,13,,76,0
30705,note_on,0,0,0,,,,,,,,,10,,44,0
30705,note_on,0,0,0,,,,,,,,,0,,56,0
30705,note_on,0,0,0,,,,,,,,,5,,71,0
30705,note_on,0,0,0,,,,,,,,,6,,76,0
30705,note_on,0,0,0,,,,,,,,,13,,71,0
30705,note_on,0,0,0,,,,,,,,,8,,56,0
30705,note_on,0,0,0,,,,,,,,,0,,71,0
30705,note_on,0,0,0,,,,,,,,,14,,56,0
30720,note_on,15,0,0,,,,,,,,,15,,71,0
30720,note_on,0,0,0,,,,,,,,,15,,64,0
30720,note_on,0,0,0,,,,,,,,,15,,59,0
30720,note_on,0,0,0,,,,,,,,,0,,73,100
30720,note_on,0,0,0,,,,,,,,,5,,73,100
30720,note_on,0,0,0,,,,,,,,,7,,64,100
30720,note_on,0,0,0,,,,,,,,,13,,73,100
30720,note_on,0,0,0,,,,,,,,,15,,64,100
30720,note_on,0,0,0,,,,,,,,,15,,69,100
30720,note_on,0,0,0,,,,,,,,,15,,61,100
30780,note_on,60,0,0,,,,,,,,,0,,52,100
30780,note_on,0,0,0,,,,,,,,,8,,52,100
30780,note_on,0,0,0,,,,,,,,,10,,40,100
30780,note_on,0,0,0,,,,,,,,,14,,52,100
30780,note_on,0,0,0,,,,,,,,,15,,52,100
30810,note_on,30,0,0,,,,,,,,,15,,52,0
30810,note_on,0,0,0,,,,,,,,,10,,40,0
30810,note_on,0,0,0,,,,,,,,,8,,52,0
30810,note_on,0,0,0,,,,,,,,,0,,52,0
30810,note_on,0,0,0,,,,,,,,,14,,52,0
30825,note_on,15,0,0,,,,,,,,,13,,73,0
30825,note_on,0,0,0,,,,,,,,,0,,73,0
30825,note_on,0,0,0,,,,,,,,,5,,73,0
30825,note_on,0,0,0,,,,,,,,,7,,64,0
30840,note_on,15,0,0,,,,,,,,,15,,64,0
30840,note_on,0,0,0,,,,,,,,,15,,69,0
30840,note_on,0,0,0,,,,,,,,,0,,57,100
30840,note_on,0,0,0,,,,,,,,,0,,61,100
30840,note_on,0,0,0,,,,,,,,,5,,61,100
30840,note_on,0,0,0,,,,,,,,,6,,64,100
30840,note_on,0,0,0,,,,,,,,,7,,61,100
30840,note_on,0,0,0,,,,,,,,,8,,57,100
30840,note_on,0,0,0,,,,,,,,,10,,45,100
30840,note_on,0,0,0,,,,,,,,,13,,64,100
30840,note_on,0,0,0,,,,,,,,,14,,57,100
30840,note_on,0,0,0,,,,,,,,,15,,73,100
30840,note_on,0,0,0,,,,,,,,,15,,64,100
30840,note_on,0,0,0,,,,,,,,,15,,57,100
30870,note_on,30,0,0,,,,,,,,,15,,57,0
30870,note_on,0,0,0,,,,,,,,,10,,45,0
30870,note_on,0,0,0,,,,,,,,,8,,57,0
30870,note_on,0,0,0,,,,,,,,,14,,57,0
30870,note_on,0,0,0,,,,,,,,,0,,57,0
30900,note_on,30,0,0,,,,,,,,,13,,64,0
30900,note_on,0,0,0,,,,,,,,,6,,64,0
30900,note_on,0,0,0,,,,,,,,,0,,45,100
30900,note_on,0,0,0,,,,,,,,,8,,45,100
30900,note_on,0,0,0,,,,,,,,,10,,33,100
30900,note_on,0,0,0,,,,,,,,,14,,45,100
30900,note_on,0,0,0,,,,,,,,,15,,45,100
30930,note_on,30,0,0,,,,,,,,,15,,45,0
30930,note_on,0,0,0,,,,,,,,,8,,45,0
30930,note_on,0,0,0,,,,,,,,,14,,45,0
30930,note_on,0,0,0,,,,,,,,,0,,45,0
30930,note_on,0,0,0,,,,,,,,,10,,33,0
30945,note_on,15,0,0,,,,,,,,,5,,61,0
30945,note_on,0,0,0,,,,,,,,,0,,61,0
30945,note_on,0,0,0,,,,,,,,,7,,61,0
30960,note_on,15,0,0,,,,,,,,,15,,64,0
30960,note_on,0,0,0,,,,,,,,,15,,61,0
30960,note_on,0,0,0,,,,,,,,,15,,73,0
30960,note_on,0,0,0,,,,,,,,,0,,57,100
30960,note_on,0,0,0,,,,,,,,,6,,66,100
30960,note_on,0,0,0,,,,,,,,,8,,57,100
30960,note_on,0,0,0,,,,,,,,,10,,45,100
30960,note_on,0,0,0,,,,,,,,,13,,66,100
30960,note_on,0,0,0,,,,,,,,,14,,57,100
30960,note_on,0,0,0,,,,,,,,,15,,66,100
30960,note_on,0,0,0,,,,,,,,,15,,69,100
30960,note_on,0,0,0,,,,,,,,,15,,57,100
30960,note_on,0,0,0,,,,,,,,,15,,61,100
31020,note_on,60,0,0,,,,,,,,,0,,73,100
31020,note_on,0,0,0,,,,,,,,,5,,73,100
31020,note_on,0,0,0,,,,,,,,,13,,73,100
31050,note_on,30,0,0,,,,,,,,,13,,73,0
31050,note_on,0,0,0,,,,,,,,,5,,73,0
31050,note_on,0,0,0,,,,,,,,,0,,73,0
31065,note_on,15,0,0,,,,,,,,,15,,69,0
31065,note_on,0,0,0,,,,,,,,,15,,61,0
31065,note_on,0,0,0,,,,,,,,,15,,66,0
31065,note_on,0,0,0,,,,,,,,,8,,57,0
31065,note_on,0,0,0,,,,,,,,,10,,45,0
31065,note_on,0,0,0,,,,,,,,,14,,57,0
31065,note_on,0,0,0,,,,,,,,,15,,57,0
31065,note_on,0,0,0,,,,,,,,,0,,57,0
31080,note_on,15,0,0,,,,,,,,,0,,75,100
31080,note_on,0,0,0,,,,,,,,,0,,54,100
31080,note_on,0,0,0,,,,,,,,,5,,75,100
31080,note_on,0,0,0,,,,,,,,,7,,69,100
31080,note_on,0,0,0,,,,,,,,,8,,54,100
31080,note_on,0,0,0,,,,,,,,,10,,42,100
31080,note_on,0,0,0,,,,,,,,,13,,75,100
31080,note_on,0,0,0,,,,,,,,,14,,54,100
31080,note_on,0,0,0,,,,,,,,,15,,63,100
31080,note_on,0,0,0,,,,,,,,,15,,71,100
31080,note_on,0,0,0,,,,,,,,,15,,59,100
31080,note_on,0,0,0,,,,,,,,,15,,54,100
31110,note_on,30,0,0,,,,,,,,,13,,75,0
31110,note_on,0,0,0,,,,,,,,,5,,75,0
31110,note_on,0,0,0,,,,,,,,,0,,75,0
31125,note_on,15,0,0,,,,,,,,,0,,73,100
31140,note_on,15,0,0,,,,,,,,,13,,66,0
31140,note_on,0,0,0,,,,,,,,,5,,73,100
31140,note_on,0,0,0,,,,,,,,,13,,73,100
31155,note_on,15,0,0,,,,,,,,,0,,73,0
31170,note_on,15,0,0,,,,,,,,,6,,66,0
31170,note_on,0,0,0,,,,,,,,,13,,73,0
31170,note_on,0,0,0,,,,,,,,,5,,73,0
31185,note_on,15,0,0,,,,,,,,,14,,54,0
31185,note_on,0,0,0,,,,,,,,,10,,42,0
31185,note_on,0,0,0,,,,,,,,,0,,54,0
31185,note_on,0,0,0,,,,,,,,,15,,54,0
31185,note_on,0,0,0,,,,,,,,,7,,69,0
31185,note_on,0,0,0,,,,,,,,,15,,71,0
31185,note_on,0,0,0,,,,,,,,,8,,54,0
31185,note_on,0,0,0,,,,,,,,,15,,63,0
31185,note_on,0,0,0,,,,,,,,,15,,59,0
31200,note_on,15,0,0,,,,,,,,,0,,71,100
31200,note_on,0,0,0,,,,,,,,,5,,71,100
31200,note_on,0,0,0,,,,,,,,,7,,63,100
31200,note_on,0,0,0,,,,,,,,,13,,71,100
31200,note_on,0,0,0,,,,,,,,,15,,69,100
31200,note_on,0,0,0,,,,,,,,,15,,63,100
31200,note_on,0,0,0,,,,,,,,,15,,71,100
31230,note_on,30,0,0,,,,,,,,,7,,63,0
31260,note_on,30,0,0,,,,,,,,,0,,51,100
31260,note_on,0,0,0,,,,,,,,,7,,66,100
31260,note_on,0,0,0,,,,,,,,,8,,51,100
31260,note_on,0,0,0,,,,,,,,,10,,39,100
31260,note_on,0,0,0,,,,,,,,,14,,51,100
31260,note_on,0,0,0,,,,,,,,,15,,51,100
31290,note_on,30,0,0,,,,,,,,,15,,51,0
31290,note_on,0,0,0,,,,,,,,,10,,39,0
31290,note_on,0,0,0,,,,,,,,,7,,66,0
31290,note_on,0,0,0,,,,,,,,,0,,51,0
31290,note_on,0,0,0,,,,,,,,,8,,51,0
31290,note_on,0,0,0,,,,,,,,,14,,51,0
31305,note_on,15,0,0,,,,,,,,,15,,71,0
31305,note_on,0,0,0,,,,,,,,,15,,63,0
31305,note_on,0,0,0,,,,,,,,,13,,71,0
31305,note_on,0,0,0,,,,,,,,,5,,71,0
31305,note_on,0,0,0,,,,,,,,,0,,71,0
31305,note_on,0,0,0,,,,,,,,,15,,69,0
31320,note_on,15,0,0,,,,,,,,,0,,59,100
31320,note_on,0,0,0,,,,,,,,,0,,56,100
31320,note_on,0,0,0,,,,,,,,,5,,59,100
31320,note_on,0,0,0,,,,,,,,,6,,63,100
31320,note_on,0,0,0,,,,,,,,,7,,68,100
31320,note_on,0,0,0,,,,,,,,,8,,56,100
31320,note_on,0,0,0,,,,,,,,,10,,44,100
31320,note_on,0,0,0,,,,,,,,,13,,63,100
31320,note_on,0,0,0,,,,,,,,,14,,56,100
31320,note_on,0,0,0,,,,,,,,,15,,63,100
31320,note_on,0,0,0,,,,,,,,,15,,71,100
31320,note_on,0,0,0,,,,,,,,,15,,59,100
31320,note_on,0,0,0,,,,,,,,,15,,56,100
31350,note_on,30,0,0,,,,,,,,,15,,56,0
31350,note_on,0,0,0,,,,,,,,,10,,44,0
31350,note_on,0,0,0,,,,,,,,,14,,56,0
31350,note_on,0,0,0,,,,,,,,,8,,56,0
31350,note_on,0,0,0,,,,,,,,,0,,56,0
31380,note_on,30,0,0,,,,,,,,,0,,44,100
31380,note_on,0,0,0,,,,,,,,,8,,44,100
31380,note_on,0,0,0,,,,,,,,,10,,32,100
31380,note_on,0,0,0,,,,,,,,,14,,44,100
31380,note_on,0,0,0,,,,,,,,,15,,44,100
31410,note_on,30,0,0,,,,,,,,,15,,44,0
31410,note_on,0,0,0,,,,,,,,,8,,44,0
31410,note_on,0,0,0,,,,,,,,,6,,63,0
31410,note_on,0,0,0,,,,,,,,,0,,44,0
31410,note_on,0,0,0,,,,,,,,,13,,63,0
31410,note_on,0,0,0,,,,,,,,,14,,44,0
31410,note_on,0,0,0,,,,,,,,,10,,32,0
31425,note_on,15,0,0,,,,,,,,,15,,63,0
31425,note_on,0,0,0,,,,,,,,,15,,59,0
31425,note_on,0,0,0,,,,,,,,,5,,59,0
31425,note_on,0,0,0,,,,,,,,,7,,68,0
31425,note_on,0,0,0,,,,,,,,,0,,59,0
31425,note_on,0,0,0,,,,,,,,,15,,71,0
31440,note_on,15,0,0,,,,,,,,,0,,56,100
31440,note_on,0,0,0,,,,,,,,,6,,64,100
31440,note_on,0,0,0,,,,,,,,,8,,56,100
31440,note_on,0,0,0,,,,,,,,,10,,44,100
31440,note_on,0,0,0,,,,,,,,,13,,64,100
31440,note_on,0,0,0,,,,,,,,,14,,56,100
31440,note_on,0,0,0,,,,,,,,,15,,59,100
31440,note_on,0,0,0,,,,,,,,,15,,68,100
31440,note_on,0,0,0,,,,,,,,,15,,64,100
31440,note_on,0,0,0,,,,,,,,,15,,56,100
31500,note_on,60,0,0,,,,,,,,,0,,83,100
31500,note_on,0,0,0,,,,,,,,,5,,83,100
31500,note_on,0,0,0,,,,,,,,,13,,83,100
31530,note_on,30,0,0,,,,,,,,,13,,83,0
31530,note_on,0,0,0,,,,,,,,,13,,64,0
31530,note_on,0,0,0,,,,,,,,,6,,64,0
31530,note_on,0,0,0,,,,,,,,,5,,83,0
31530,note_on,0,0,0,,,,,,,,,0,,83,0
31545,note_on,15,0,0,,,,,,,,,15,,68,0
31545,note_on,0,0,0,,,,,,,,,0,,56,0
31545,note_on,0,0,0,,,,,,,,,14,,56,0
31545,note_on,0,0,0,,,,,,,,,15,,56,0
31545,note_on,0,0,0,,,,,,,,,15,,59,0
31545,note_on,0,0,0,,,,,,,,,15,,64,0
31545,note_on,0,0,0,,,,,,,,,10,,44,0
31545,note_on,0,0,0,,,,,,,,,8,,56,0
31560,note_on,15,0,0,,,,,,,,,0,,85,100
31560,note_on,0,0,0,,,,,,,,,0,,52,100
31560,note_on,0,0,0,,,,,,,,,5,,85,100
31560,note_on,0,0,0,,,,,,,,,6,,68,100
31560,note_on,0,0,0,,,,,,,,,7,,61,100
31560,note_on,0,0,0,,,,,,,,,8,,52,100
31560,note_on,0,0,0,,,,,,,,,10,,40,100
31560,note_on,0,0,0,,,,,,,,,13,,85,100
31560,note_on,0,0,0,,,,,,,,,13,,68,100
31560,note_on,0,0,0,,,,,,,,,14,,52,100
31560,note_on,0,0,0,,,,,,,,,15,,68,100
31560,note_on,0,0,0,,,,,,,,,15,,56,100
31560,note_on,0,0,0,,,,,,,,,15,,61,100
31560,note_on,0,0,0,,,,,,,,,15,,52,100
31590,note_on,30,0,0,,,,,,,,,13,,85,0
31590,note_on,0,0,0,,,,,,,,,5,,85,0
31590,note_on,0,0,0,,,,,,,,,0,,85,0
31620,note_on,30,0,0,,,,,,,,,0,,83,100
31620,note_on,0,0,0,,,,,,,,,5,,83,100
31620,note_on,0,0,0,,,,,,,,,13,,83,100
31650,note_on,30,0,0,,,,,,,,,13,,83,0
31650,note_on,0,0,0,,,,,,,,,6,,68,0
31650,note_on,0,0,0,,,,,,,,,5,,83,0
31650,note_on,0,0,0,,,,,,,,,13,,68,0
31650,note_on,0,0,0,,,,,,,,,0,,83,0
31665,note_on,15,0,0,,,,,,,,,7,,61,0
31665,note_on,0,0,0,,,,,,,,,10,,40,0
31665,note_on,0,0,0,,,,,,,,,0,,52,0
31665,note_on,0,0,0,,,,,,,,,15,,61,0
31665,note_on,0,0,0,,,,,,,,,15,,56,0
31665,note_on,0,0,0,,,,,,,,,15,,68,0
31665,note_on,0,0,0,,,,,,,,,8,,52,0
31665,note_on,0,0,0,,,,,,,,,14,,52,0
31665,note_on,0,0,0,,,,,,,,,15,,52,0
31680,note_on,15,0,0,,,,,,,,,0,,81,100
31680,note_on,0,0,0,,,,,,,,,5,,81,100
31680,note_on,0,0,0,,,,,,,,,6,,73,100
31680,note_on,0,0,0,,,,,,,,,7,,66,100
31680,note_on,0,0,0,,,,,,,,,13,,81,100
31680,note_on,0,0,0,,,,,,,,,13,,73,100
31680,note_on,0,0,0,,,,,,,,,15,,66,100
31680,note_on,0,0,0,,,,,,,,,15,,69,100
31680,note_on,0,0,0,,,,,,,,,15,,57,100
31740,note_on,60,0,0,,,,,,,,,0,,49,100
31740,note_on,0,0,0,,,,,,,,,8,,49,100
31740,note_on,0,0,0,,,,,,,,,10,,37,100
31740,note_on,0,0,0,,,,,,,,,14,,49,100
31740,note_on,0,0,0,,,,,,,,,15,,49,100
31770,note_on,30,0,0,,,,,,,,,15,,49,0
31770,note_on,0,0,0,,,,,,,,,0,,49,0
31770,note_on,0,0,0,,,,,,,,,6,,73,0
31770,note_on,0,0,0,,,,,,,,,14,,49,0
31770,note_on,0,0,0,,,,,,,,,8,,49,0
31770,note_on,0,0,0,,,,,,,,,10,,37,0
31785,note_on,15,0,0,,,,,,,,,13,,81,0
31785,note_on,0,0,0,,,,,,,,,0,,81,0
31785,note_on,0,0,0,,,,,,,,,15,,57,0
31785,note_on,0,0,0,,,,,,,,,5,,81,0
31785,note_on,0,0,0,,,,,,,,,13,,73,0
31785,note_on,0,0,0,,,,,,,,,15,,69,0
31785,note_on,0,0,0,,,,,,,,,7,,66,0
31785,note_on,0,0,0,,,,,,,,,15,,66,0
31800,note_on,15,0,0,,,,,,,,,0,,69,100
31800,note_on,0,0,0,,,,,,,,,0,,54,100
31800,note_on,0,0,0,,,,,,,,,5,,69,100
31800,note_on,0,0,0,,,,,,,,,6,,61,100
31800,note_on,0,0,0,,,,,,,,,7,,66,100
31800,note_on,0,0,0,,,,,,,,,8,,54,100
31800,note_on,0,0,0,,,,,,,,,10,,42,100
31800,note_on,0,0,0,,,,,,,,,13,,73,100
31800,note_on,0,0,0,,,,,,,,,13,,69,100
31800,note_on,0,0,0,,,,,,,,,14,,54,100
31800,note_on,0,0,0,,,,,,,,,15,,69,100
31800,note_on,0,0,0,,,,,,,,,15,,66,100
31800,note_on,0,0,0,,,,,,,,,15,,64,100
31800,note_on,0,0,0,,,,,,,,,15,,54,100
31830,note_on,30,0,0,,,,,,,,,15,,54,0
31830,note_on,0,0,0,,,,,,,,,0,,54,0
31830,note_on,0,0,0,,,,,,,,,10,,42,0
31830,note_on,0,0,0,,,,,,,,,14,,54,0
31830,note_on,0,0,0,,,,,,,,,8,,54,0
31860,note_on,30,0,0,,,,,,,,,0,,52,100
31860,note_on,0,0,0,,,,,,,,,8,,52,100
31860,note_on,0,0,0,,,,,,,,,10,,40,100
31860,note_on,0,0,0,,,,,,,,,14,,52,100
31860,note_on,0,0,0,,,,,,,,,15,,52,100
31890,note_on,30,0,0,,,,,,,,,15,,52,0
31890,note_on,0,0,0,,,,,,,,,0,,52,0
31890,note_on,0,0,0,,,,,,,,,6,,61,0
31890,note_on,0,0,0,,,,,,,,,14,,52,0
31890,note_on,0,0,0,,,,,,,,,8,,52,0
31890,note_on,0,0,0,,,,,,,,,10,,40,0
31905,note_on,15,0,0,,,,,,,,,13,,73,0
31905,note_on,0,0,0,,,,,,,,,0,,69,0
31905,note_on,0,0,0,,,,,,,,,7,,66,0
31905,note_on,0,0,0,,,,,,,,,15,,64,0
31905,note_on,0,0,0,,,,,,,,,5,,69,0
31905,note_on,0,0,0,,,,,,,,,13,,69,0
31905,note_on,0,0,0,,,,,,,,,15,,66,0
31905,note_on,0,0,0,,,,,,,,,15,,69,0
31920,note_on,15,0,0,,,,,,,,,0,,51,100
31920,note_on,0,0,0,,,,,,,,,6,,59,100
31920,note_on,0,0,0,,,,,,,,,7,,66,100
31920,note_on,0,0,0,,,,,,,,,8,,51,100
31920,note_on,0,0,0,,,,,,,,,10,,39,100
31920,note_on,0,0,0,,,,,,,,,13,,71,100
31920,note_on,0,0,0,,,,,,,,,14,,51,100
31920,note_on,0,0,0,,,,,,,,,15,,63,100
31920,note_on,0,0,0,,,,,,,,,15,,66,100
31920,note_on,0,0,0,,,,,,,,,15,,59,100
31920,note_on,0,0,0,,,,,,,,,15,,51,100
31980,note_on,60,0,0,,,,,,,,,0,,81,100
31980,note_on,0,0,0,,,,,,,,,5,,81,100
31980,note_on,0,0,0,,,,,,,,,13,,81,100
32010,note_on,30,0,0,,,,,,,,,13,,81,0
32010,note_on,0,0,0,,,,,,,,,5,,81,0
32010,note_on,0,0,0,,,,,,,,,6,,59,0
32010,note_on,0,0,0,,,,,,,,,0,,81,0
32025,note_on,15,0,0,,,,,,,,,15,,66,0
32025,note_on,0,0,0,,,,,,,,,8,,51,0
32025,note_on,0,0,0,,,,,,,,,10,,39,0
32025,note_on,0,0,0,,,,,,,,,0,,51,0
32025,note_on,0,0,0,,,,,,,,,14,,51,0
32025,note_on,0,0,0,,,,,,,,,13,,71,0
32025,note_on,0,0,0,,,,,,,,,15,,59,0
32025,note_on,0,0,0,,,,,,,,,15,,63,0
32025,note_on,0,0,0,,,,,,,,,7,,66,0
32025,note_on,0,0,0,,,,,,,,,15,,51,0
32040,note_on,15,0,0,,,,,,,,,0,,83,100
32040,note_on,0,0,0,,,,,,,,,0,,47,100
32040,note_on,0,0,0,,,,,,,,,5,,83,100
32040,note_on,0,0,0,,,,,,,,,6,,75,100
32040,note_on,0,0,0,,,,,,,,,8,,47,100
32040,note_on,0,0,0,,,,,,,,,10,,35,100
32040,note_on,0,0,0,,,,,,,,,13,,83,100
32040,note_on,0,0,0,,,,,,,,,13,,75,100
32040,note_on,0,0,0,,,,,,,,,14,,47,100
32040,note_on,0,0,0,,,,,,,,,15,,63,100
32040,note_on,0,0,0,,,,,,,,,15,,54,100
32040,note_on,0,0,0,,,,,,,,,15,,66,100
32040,note_on,0,0,0,,,,,,,,,15,,47,100
32070,note_on,30,0,0,,,,,,,,,13,,83,0
32070,note_on,0,0,0,,,,,,,,,5,,83,0
32070,note_on,0,0,0,,,,,,,,,0,,83,0
32100,note_on,30,0,0,,,,,,,,,0,,81,100
32100,note_on,0,0,0,,,,,,,,,5,,81,100
32100,note_on,0,0,0,,,,,,,,,13,,81,100
32130,note_on,30,0,0,,,,,,,,,13,,81,0
32130,note_on,0,0,0,,,,,,,,,5,,81,0
32130,note_on,0,0,0,,,,,,,,,0,,81,0
32145,note_on,15,0,0,,,,,,,,,15,,63,0
32145,note_on,0,0,0,,,,,,,,,6,,75,0
32145,note_on,0,0,0,,,,,,,,,8,,47,0
32145,note_on,0,0,0,,,,,,,,,0,,47,0
32145,note_on,0,0,0,,,,,,,,,15,,66,0
32145,note_on,0,0,0,,,,,,,,,10,,35,0
32145,note_on,0,0,0,,,,,,,,,15,,54,0
32145,note_on,0,0,0,,,,,,,,,13,,75,0
32145,note_on,0,0,0,,,,,,,,,15,,47,0
32145,note_on,0,0,0,,,,,,,,,14,,47,0
32160,note_on,15,0,0,,,,,,,,,0,,80,100
32160,note_on,0,0,0,,,,,,,,,5,,80,100
32160,note_on,0,0,0,,,,,,,,,6,,76,100
32160,note_on,0,0,0,,,,,,,,,13,,80,100
32160,note_on,0,0,0,,,,,,,,,13,,76,100
32160,note_on,0,0,0,,,,,,,,,15,,71,100
32160,note_on,0,0,0,,,,,,,,,15,,68,100
32160,note_on,0,0,0,,,,,,,,,15,,64,100
32190,note_on,30,0,0,,,,,,,,,13,,76,0
32190,note_on,0,0,0,,,,,,,,,13,,80,0
32190,note_on,0,0,0,,,,,,,,,0,,80,0
32190,note_on,0,0,0,,,,,,,,,6,,76,0
32190,note_on,0,0,0,,,,,,,,,5,,80,0
32220,note_on,30,0,0,,,,,,,,,0,,59,100
32220,note_on,0,0,0,,,,,,,,,0,,75,100
32220,note_on,0,0,0,,,,,,,,,5,,75,100
32220,note_on,0,0,0,,,,,,,,,6,,71,100
32220,note_on,0,0,0,,,,,,,,,8,,59,100
32220,note_on,0,0,0,,,,,,,,,10,,47,100
32220,note_on,0,0,0,,,,,,,,,13,,75,100
32220,note_on,0,0,0,,,,,,,,,13,,71,100
32220,note_on,0,0,0,,,,,,,,,14,,59,100
32220,note_on,0,0,0,,,,,,,,,15,,59,100
32250,note_on,30,0,0,,,,,,,,,13,,71,0
32250,note_on,0,0,0,,,,,,,,,13,,75,0
32250,note_on,0,0,0,,,,,,,,,6,,71,0
32250,note_on,0,0,0,,,,,,,,,5,,75,0
32250,note_on,0,0,0,,,,,,,,,0,,75,0
32265,note_on,15,0,0,,,,,,,,,15,,71,0
32265,note_on,0,0,0,,,,,,,,,15,,64,0
32265,note_on,0,0,0,,,,,,,,,15,,68,0
32280,note_on,15,0,0,,,,,,,,,15,,59,0
32280,note_on,0,0,0,,,,,,,,,8,,59,0
32280,note_on,0,0,0,,,,,,,,,10,,47,0
32280,note_on,0,0,0,,,,,,,,,14,,59,0
32280,note_on,0,0,0,,,,,,,,,0,,59,0
32280,note_on,0,0,0,,,,,,,,,0,,61,100
32280,note_on,0,0,0,,,,,,,,,0,,76,100
32280,note_on,0,0,0,,,,,,,,,5,,76,100
32280,note_on,0,0,0,,,,,,,,,6,,69,100
32280,note_on,0,0,0,,,,,,,,,8,,61,100
32280,note_on,0,0,0,,,,,,,,,10,,49,100
32280,note_on,0,0,0,,,,,,,,,13,,76,100
32280,note_on,0,0,0,,,,,,,,,13,,69,100
32280,note_on,0,0,0,,,,,,,,,14,,61,100
32280,note_on,0,0,0,,,,,,,,,15,,71,100
32280,note_on,0,0,0,,,,,,,,,15,,66,100
32280,note_on,0,0,0,,,,,,,,,15,,69,100
32280,note_on,0,0,0,,,,,,,,,15,,61,100
32310,note_on,30,0,0,,,,,,,,,13,,69,0
32310,note_on,0,0,0,,,,,,,,,6,,69,0
32340,note_on,30,0,0,,,,,,,,,14,,61,0
32340,note_on,0,0,0,,,,,,,,,8,,61,0
32340,note_on,0,0,0,,,,,,,,,0,,61,0
32340,note_on,0,0,0,,,,,,,,,15,,61,0
32340,note_on,0,0,0,,,,,,,,,10,,49,0
32340,note_on,0,0,0,,,,,,,,,0,,59,100
32340,note_on,0,0,0,,,,,,,,,6,,68,100
32340,note_on,0,0,0,,,,,,,,,8,,59,100
32340,note_on,0,0,0,,,,,,,,,10,,47,100
32340,note_on,0,0,0,,,,,,,,,13,,68,100
32340,note_on,0,0,0,,,,,,,,,14,,59,100
32340,note_on,0,0,0,,,,,,,,,15,,59,100
32370,note_on,30,0,0,,,,,,,,,13,,68,0
32370,note_on,0,0,0,,,,,,,,,6,,68,0
32385,note_on,15,0,0,,,,,,,,,15,,69,0
32385,note_on,0,0,0,,,,,,,,,15,,71,0
32385,note_on,0,0,0,,,,,,,,,15,,66,0
32400,note_on,15,0,0,,,,,,,,,0,,59,0
32400,note_on,0,0,0,,,,,,,,,8,,59,0
32400,note_on,0,0,0,,,,,,,,,10,,47,0
32400,note_on,0,0,0,,,,,,,,,14,,59,0
32400,note_on,0,0,0,,,,,,,,,15,,59,0
32400,note_on,0,0,0,,,,,,,,,0,,57,100
32400,note_on,0,0,0,,,,,,,,,6,,66,100
32400,note_on,0,0,0,,,,,,,,,8,,57,100
32400,note_on,0,0,0,,,,,,,,,10,,45,100
32400,note_on,0,0,0,,,,,,,,,13,,66,100
32400,note_on,0,0,0,,,,,,,,,14,,57,100
32400,note_on,0,0,0,,,,,,,,,15,,61,100
32400,note_on,0,0,0,,,,,,,,,15,,69,100
32400,note_on,0,0,0,,,,,,,,,15,,71,100
32400,note_on,0,0,0,,,,,,,,,15,,57,100
32430,note_on,30,0,0,,,,,,,,,15,,57,0
32430,note_on,0,0,0,,,,,,,,,10,,45,0
32430,note_on,0,0,0,,,,,,,,,14,,57,0
32430,note_on,0,0,0,,,,,,,,,8,,57,0
32430,note_on,0,0,0,,,,,,,,,0,,57,0
32460,note_on,30,0,0,,,,,,,,,0,,57,100
32460,note_on,0,0,0,,,,,,,,,8,,57,100
32460,note_on,0,0,0,,,,,,,,,10,,45,100
32460,note_on,0,0,0,,,,,,,,,14,,57,100
32460,note_on,0,0,0,,,,,,,,,15,,57,100
32490,note_on,30,0,0,,,,,,,,,0,,76,0
32490,note_on,0,0,0,,,,,,,,,13,,76,0
32490,note_on,0,0,0,,,,,,,,,5,,76,0
32505,note_on,15,0,0,,,,,,,,,15,,69,0
32505,note_on,0,0,0,,,,,,,,,15,,71,0
32505,note_on,0,0,0,,,,,,,,,15,,61,0
32520,note_on,15,0,0,,,,,,,,,10,,45,0
32520,note_on,0,0,0,,,,,,,,,14,,57,0
32520,note_on,0,0,0,,,,,,,,,15,,57,0
32520,note_on,0,0,0,,,,,,,,,8,,57,0
32520,note_on,0,0,0,,,,,,,,,0,,57,0
32520,note_on,0,0,0,,,,,,,,,0,,59,100
32520,note_on,0,0,0,,,,,,,,,0,,75,100
32520,note_on,0,0,0,,,,,,,,,5,,75,100
32520,note_on,0,0,0,,,,,,,,,8,,59,100
32520,note_on,0,0,0,,,,,,,,,10,,47,100
32520,note_on,0,0,0,,,,,,,,,13,,75,100
32520,note_on,0,0,0,,,,,,,,,14,,59,100
32520,note_on,0,0,0,,,,,,,,,15,,63,100
32520,note_on,0,0,0,,,,,,,,,15,,66,100
32520,note_on,0,0,0,,,,,,,,,15,,71,100
32520,note_on,0,0,0,,,,,,,,,15,,59,100
32550,note_on,30,0,0,,,,,,,,,13,,66,0
32550,note_on,0,0,0,,,,,,,,,6,,66,0
32580,note_on,30,0,0,,,,,,,,,0,,59,0
32580,note_on,0,0,0,,,,,,,,,14,,59,0
32580,note_on,0,0,0,,,,,,,,,15,,59,0
32580,note_on,0,0,0,,,,,,,,,10,,47,0
32580,note_on,0,0,0,,,,,,,,,8,,59,0
32580,note_on,0,0,0,,,,,,,,,0,,57,100
32580,note_on,0,0,0,,,,,,,,,6,,66,100
32580,note_on,0,0,0,,,,,,,,,8,,57,100
32580,note_on,0,0,0,,,,,,,,,10,,45,100
32580,note_on,0,0,0,,,,,,,,,13,,66,100
32580,note_on,0,0,0,,,,,,,,,14,,57,100
32580,note_on,0,0,0,,,,,,,,,15,,57,100
32610,note_on,30,0,0,,,,,,,,,13,,66,0
32610,note_on,0,0,0,,,,,,,,,6,,66,0
32625,note_on,15,0,0,,,,,,,,,13,,75,0
32625,note_on,0,0,0,,,,,,,,,0,,75,0
32625,note_on,0,0,0,,,,,,,,,5,,75,0
32630,note_on,5,0,0,,,,,,,,,15,,66,0
32630,note_on,0,0,0,,,,,,,,,15,,71,0
32630,note_on,0,0,0,,,,,,,,,15,,63,0
32640,note_on,10,0,0,,,,,,,,,15,,57,0
32640,note_on,0,0,0,,,,,,,,,14,,57,0
32640,note_on,0,0,0,,,,,,,,,10,,45,0
32640,note_on,0,0,0,,,,,,,,,0,,57,0
32640,note_on,0,0,0,,,,,,,,,8,,57,0
32640,note_on,0,0,0,,,,,,,,,0,,56,100
32640,note_on,0,0,0,,,,,,,,,0,,76,100
32640,note_on,0,0,0,,,,,,,,,5,,76,100
32640,note_on,0,0,0,,,,,,,,,6,,59,100
32640,note_on,0,0,0,,,,,,,,,8,,56,100
32640,note_on,0,0,0,,,,,,,,,10,,44,100
32640,note_on,0,0,0,,,,,,,,,13,,76,100
32640,note_on,0,0,0,,,,,,,,,13,,64,100
32640,note_on,0,0,0,,,,,,,,,14,,56,100
32640,note_on,0,0,0,,,,,,,,,15,,59,100
32640,note_on,0,0,0,,,,,,,,,15,,64,100
32640,note_on,0,0,0,,,,,,,,,15,,71,100
32640,note_on,0,0,0,,,,,,,,,15,,56,100
32670,note_on,30,0,0,,,,,,,,,15,,56,0
32670,note_on,0,0,0,,,,,,,,,13,,64,0
32670,note_on,0,0,0,,,,,,,,,10,,44,0
32670,note_on,0,0,0,,,,,,,,,6,,59,0
32670,note_on,0,0,0,,,,,,,,,0,,56,0
32670,note_on,0,0,0,,,,,,,,,14,,56,0
32670,note_on,0,0,0,,,,,,,,,8,,56,0
32685,note_on,15,0,0,,,,,,,,,0,,76,0
32700,note_on,15,0,0,,,,,,,,,0,,56,100
32700,note_on,0,0,0,,,,,,,,,0,,71,100
32700,note_on,0,0,0,,,,,,,,,6,,71,100
32700,note_on,0,0,0,,,,,,,,,8,,56,100
32700,note_on,0,0,0,,,,,,,,,10,,44,100
32700,note_on,0,0,0,,,,,,,,,13,,71,100
32700,note_on,0,0,0,,,,,,,,,14,,56,100
32700,note_on,0,0,0,,,,,,,,,15,,56,100
32730,note_on,30,0,0,,,,,,,,,13,,76,0
32745,note_on,15,0,0,,,,,,,,,5,,76,0
32750,note_on,5,0,0,,,,,,,,,15,,71,0
32750,note_on,0,0,0,,,,,,,,,15,,64,0
32750,note_on,0,0,0,,,,,,,,,15,,59,0
32760,note_on,10,0,0,,,,,,,,,8,,56,0
32760,note_on,0,0,0,,,,,,,,,6,,71,0
32760,note_on,0,0,0,,,,,,,,,0,,71,0
32760,note_on,0,0,0,,,,,,,,,15,,56,0
32760,note_on,0,0,0,,,,,,,,,0,,56,0
32760,note_on,0,0,0,,,,,,,,,14,,56,0
32760,note_on,0,0,0,,,,,,,,,10,,44,0
32760,note_on,0,0,0,,,,,,,,,13,,71,0
32760,note_on,0,0,0,,,,,,,,,0,,57,100
32760,note_on,0,0,0,,,,,,,,,0,,73,100
32760,note_on,0,0,0,,,,,,,,,6,,73,100
32760,note_on,0,0,0,,,,,,,,,7,,64,100
32760,note_on,0,0,0,,,,,,,,,8,,57,100
32760,note_on,0,0,0,,,,,,,,,10,,45,100
32760,note_on,0,0,0,,,,,,,,,13,,73,100
32760,note_on,0,0,0,,,,,,,,,14,,57,100
32760,note_on,0,0,0,,,,,,,,,15,,61,100
32760,note_on,0,0,0,,,,,,,,,15,,66,100
32760,note_on,0,0,0,,,,,,,,,15,,69,100
32760,note_on,0,0,0,,,,,,,,,15,,57,100
32820,note_on,60,0,0,,,,,,,,,15,,57,0
32820,note_on,0,0,0,,,,,,,,,0,,73,0
32820,note_on,0,0,0,,,,,,,,,13,,73,0
32820,note_on,0,0,0,,,,,,,,,6,,73,0
32820,note_on,0,0,0,,,,,,,,,0,,57,0
32820,note_on,0,0,0,,,,,,,,,14,,57,0
32820,note_on,0,0,0,,,,,,,,,8,,57,0
32820,note_on,0,0,0,,,,,,,,,10,,45,0
32820,note_on,0,0,0,,,,,,,,,0,,56,100
32820,note_on,0,0,0,,,,,,,,,0,,71,100
32820,note_on,0,0,0,,,,,,,,,6,,71,100
32820,note_on,0,0,0,,,,,,,,,8,,56,100
32820,note_on,0,0,0,,,,,,,,,10,,44,100
32820,note_on,0,0,0,,,,,,,,,13,,71,100
32820,note_on,0,0,0,,,,,,,,,14,,56,100
32820,note_on,0,0,0,,,,,,,,,15,,56,100
32865,note_on,45,0,0,,,,,,,,,15,,56,0
32865,note_on,0,0,0,,,,,,,,,10,,44,0
32865,note_on,0,0,0,,,,,,,,,0,,56,0
32865,note_on,0,0,0,,,,,,,,,7,,64,0
32865,note_on,0,0,0,,,,,,,,,8,,56,0
32865,note_on,0,0,0,,,,,,,,,14,,56,0
32870,note_on,5,0,0,,,,,,,,,15,,66,0
32870,note_on,0,0,0,,,,,,,,,15,,61,0
32870,note_on,0,0,0,,,,,,,,,15,,69,0
32880,note_on,10,0,0,,,,,,,,,6,,71,0
32880,note_on,0,0,0,,,,,,,,,13,,71,0
32880,note_on,0,0,0,,,,,,,,,0,,71,0
32880,note_on,0,0,0,,,,,,,,,0,,54,100
32880,note_on,0,0,0,,,,,,,,,0,,69,100
32880,note_on,0,0,0,,,,,,,,,6,,69,100
32880,note_on,0,0,0,,,,,,,,,7,,64,100
32880,note_on,0,0,0,,,,,,,,,8,,54,100
32880,note_on,0,0,0,,,,,,,,,10,,42,100
32880,note_on,0,0,0,,,,,,,,,13,,69,100
32880,note_on,0,0,0,,,,,,,,,14,,54,100
32880,note_on,0,0,0,,,,,,,,,15,,57,100
32880,note_on,0,0,0,,,,,,,,,15,,63,100
32880,note_on,0,0,0,,,,,,,,,15,,69,100
32880,note_on,0,0,0,,,,,,,,,15,,54,100
32910,note_on,30,0,0,,,,,,,,,13,,69,0
32910,note_on,0,0,0,,,,,,,,,6,,69,0
32910,note_on,0,0,0,,,,,,,,,0,,69,0
32940,note_on,30,0,0,,,,,,,,,0,,69,100
32940,note_on,0,0,0,,,,,,,,,6,,69,100
32940,note_on,0,0,0,,,,,,,,,13,,69,100
32985,note_on,45,0,0,,,,,,,,,14,,54,0
32985,note_on,0,0,0,,,,,,,,,8,,54,0
32985,note_on,0,0,0,,,,,,,,,0,,54,0
32985,note_on,0,0,0,,,,,,,,,7,,64,0
32985,note_on,0,0,0,,,,,,,,,15,,54,0
32985,note_on,0,0,0,,,,,,,,,10,,42,0
32990,note_on,5,0,0,,,,,,,,,15,,63,0
32990,note_on,0,0,0,,,,,,,,,15,,57,0
32990,note_on,0,0,0,,,,,,,,,15,,69,0
33000,note_on,10,0,0,,,,,,,,,0,,69,0
33000,note_on,0,0,0,,,,,,,,,6,,69,0
33000,note_on,0,0,0,,,,,,,,,13,,69,0
33000,note_on,0,0,0,,,,,,,,,0,,47,100
33000,note_on,0,0,0,,,,,,,,,0,,71,100
33000,note_on,0,0,0,,,,,,,,,6,,71,100
33000,note_on,0,0,0,,,,,,,,,7,,63,100
33000,note_on,0,0,0,,,,,,,,,8,,47,100
33000,note_on,0,0,0,,,,,,,,,10,,35,100
33000,note_on,0,0,0,,,,,,,,,13,,71,100
33000,note_on,0,0,0,,,,,,,,,14,,47,100
33000,note_on,0,0,0,,,,,,,,,15,,63,100
33000,note_on,0,0,0,,,,,,,,,15,,66,100
33000,note_on,0,0,0,,,,,,,,,15,,69,100
33000,note_on,0,0,0,,,,,,,,,15,,47,100
33060,note_on,60,0,0,,,,,,,,,13,,71,0
33060,note_on,0,0,0,,,,,,,,,6,,71,0
33060,note_on,0,0,0,,,,,,,,,0,,71,0
33060,note_on,0,0,0,,,,,,,,,0,,69,100
33060,note_on,0,0,0,,,,,,,,,6,,69,100
33060,note_on,0,0,0,,,,,,,,,13,,69,100
33105,note_on,45,0,0,,,,,,,,,13,,69,0
33105,note_on,0,0,0,,,,,,,,,15,,47,0
33105,note_on,0,0,0,,,,,,,,,15,,69,0
33105,note_on,0,0,0,,,,,,,,,15,,66,0
33105,note_on,0,0,0,,,,,,,,,8,,47,0
33105,note_on,0,0,0,,,,,,,,,0,,47,0
33105,note_on,0,0,0,,,,,,,,,10,,35,0
33105,note_on,0,0,0,,,,,,,,,15,,63,0
33105,note_on,0,0,0,,,,,,,,,7,,63,0
33105,note_on,0,0,0,,,,,,,,,14,,47,0
33105,note_on,0,0,0,,,,,,,,,6,,69,0
33105,note_on,0,0,0,,,,,,,,,0,,69,0
33120,note_on,15,0,0,,,,,,,,,0,,52,100
33120,note_on,0,0,0,,,,,,,,,0,,69,100
33120,note_on,0,0,0,,,,,,,,,6,,69,100
33120,note_on,0,0,0,,,,,,,,,7,,59,100
33120,note_on,0,0,0,,,,,,,,,8,,52,100
33120,note_on,0,0,0,,,,,,,,,10,,40,100
33120,note_on,0,0,0,,,,,,,,,13,,69,100
33120,note_on,0,0,0,,,,,,,,,14,,52,100
33120,note_on,0,0,0,,,,,,,,,15,,59,100
33120,note_on,0,0,0,,,,,,,,,15,,64,100
33120,note_on,0,0,0,,,,,,,,,15,,68,100
33120,note_on,0,0,0,,,,,,,,,15,,52,100
33135,note_on,15,0,0,,,,,,,,,13,,69,0
33135,note_on,0,0,0,,,,,,,,,6,,69,0
33135,note_on,0,0,0,,,,,,,,,0,,69,0
33135,note_on,0,0,0,,,,,,,,,0,,68,100
33135,note_on,0,0,0,,,,,,,,,6,,68,100
33135,note_on,0,0,0,,,,,,,,,13,,68,100
33150,note_on,15,0,0,,,,,,,,,13,,68,0
33150,note_on,0,0,0,,,,,,,,,0,,68,0
33150,note_on,0,0,0,,,,,,,,,7,,59,0
33150,note_on,0,0,0,,,,,,,,,0,,52,0
33150,note_on,0,0,0,,,,,,,,,6,,68,0
33150,note_on,0,0,0,,,,,,,,,0,,69,100
33150,note_on,0,0,0,,,,,,,,,6,,69,100
33150,note_on,0,0,0,,,,,,,,,13,,69,100
33165,note_on,15,0,0,,,,,,,,,13,,69,0
33165,note_on,0,0,0,,,,,,,,,6,,69,0
33165,note_on,0,0,0,,,,,,,,,14,,52,0
33165,note_on,0,0,0,,,,,,,,,8,,52,0
33165,note_on,0,0,0,,,,,,,,,10,,40,0
33165,note_on,0,0,0,,,,,,,,,0,,69,0
33165,note_on,0,0,0,,,,,,,,,15,,52,0
33165,note_on,0,0,0,,,,,,,,,0,,68,100
33165,note_on,0,0,0,,,,,,,,,6,,68,100
33165,note_on,0,0,0,,,,,,,,,13,,68,100
33180,note_on,15,0,0,,,,,,,,,13,,68,0
33180,note_on,0,0,0,,,,,,,,,0,,68,0
33180,note_on,0,0,0,,,,,,,,,6,,68,0
33180,note_on,0,0,0,,,,,,,,,0,,47,100
33180,note_on,0,0,0,,,,,,,,,0,,69,100
33180,note_on,0,0,0,,,,,,,,,6,,69,100
33180,note_on,0,0,0,,,,,,,,,7,,63,100
33180,note_on,0,0,0,,,,,,,,,8,,47,100
33180,note_on,0,0,0,,,,,,,,,10,,35,100
33180,note_on,0,0,0,,,,,,,,,13,,69,100
33180,note_on,0,0,0,,,,,,,,,14,,47,100
33180,note_on,0,0,0,,,,,,,,,15,,47,100
33195,note_on,15,0,0,,,,,,,,,13,,69,0
33195,note_on,0,0,0,,,,,,,,,6,,69,0
33195,note_on,0,0,0,,,,,,,,,0,,69,0
33195,note_on,0,0,0,,,,,,,,,0,,68,100
33195,note_on,0,0,0,,,,,,,,,6,,68,100
33195,note_on,0,0,0,,,,,,,,,13,,68,100
33210,note_on,15,0,0,,,,,,,,,13,,68,0
33210,note_on,0,0,0,,,,,,,,,0,,68,0
33210,note_on,0,0,0,,,,,,,,,0,,47,0
33210,note_on,0,0,0,,,,,,,,,6,,68,0
33210,note_on,0,0,0,,,,,,,,,7,,63,0
33210,note_on,0,0,0,,,,,,,,,0,,66,100
33210,note_on,0,0,0,,,,,,,,,6,,66,100
33210,note_on,0,0,0,,,,,,,,,13,,66,100
33225,note_on,15,0,0,,,,,,,,,13,,66,0
33225,note_on,0,0,0,,,,,,,,,15,,47,0
33225,note_on,0,0,0,,,,,,,,,15,,59,0
33225,note_on,0,0,0,,,,,,,,,10,,35,0
33225,note_on,0,0,0,,,,,,,,,14,,47,0
33225,note_on,0,0,0,,,,,,,,,15,,64,0
33225,note_on,0,0,0,,,,,,,,,0,,66,0
33225,note_on,0,0,0,,,,,,,,,15,,68,0
33225,note_on,0,0,0,,,,,,,,,8,,47,0
33225,note_on,0,0,0,,,,,,,,,6,,66,0
33225,note_on,0,0,0,,,,,,,,,0,,68,100
33225,note_on,0,0,0,,,,,,,,,6,,68,100
33225,note_on,0,0,0,,,,,,,,,13,,68,100
33240,note_on,15,0,0,,,,,,,,,13,,68,0
33240,note_on,0,0,0,,,,,,,,,6,,68,0
33240,note_on,0,0,0,,,,,,,,,0,,68,0
33240,note_on,0,0,0,,,,,,,,,0,,49,100
33240,note_on,0,0,0,,,,,,,,,0,,69,100
33240,note_on,0,0,0,,,,,,,,,6,,69,100
33240,note_on,0,0,0,,,,,,,,,7,,64,100
33240,note_on,0,0,0,,,,,,,,,8,,49,100
33240,note_on,0,0,0,,,,,,,,,10,,37,100
33240,note_on,0,0,0,,,,,,,,,13,,69,100
33240,note_on,0,0,0,,,,,,,,,14,,49,100
33240,note_on,0,0,0,,,,,,,,,15,,57,100
33240,note_on,0,0,0,,,,,,,,,15,,66,100
33240,note_on,0,0,0,,,,,,,,,15,,69,100
33240,note_on,0,0,0,,,,,,,,,15,,49,100
33270,note_on,30,0,0,,,,,,,,,13,,69,0
33270,note_on,0,0,0,,,,,,,,,6,,69,0
33270,note_on,0,0,0,,,,,,,,,0,,49,0
33270,note_on,0,0,0,,,,,,,,,7,,64,0
33270,note_on,0,0,0,,,,,,,,,0,,69,0
33285,note_on,15,0,0,,,,,,,,,10,,37,0
33285,note_on,0,0,0,,,,,,,,,14,,49,0
33285,note_on,0,0,0,,,,,,,,,8,,49,0
33285,note_on,0,0,0,,,,,,,,,15,,49,0
33300,note_on,15,0,0,,,,,,,,,0,,45,100
33300,note_on,0,0,0,,,,,,,,,0,,66,100
33300,note_on,0,0,0,,,,,,,,,6,,66,100
33300,note_on,0,0,0,,,,,,,,,7,,61,100
33300,note_on,0,0,0,,,,,,,,,8,,45,100
33300,note_on,0,0,0,,,,,,,,,10,,33,100
33300,note_on,0,0,0,,,,,,,,,13,,66,100
33300,note_on,0,0,0,,,,,,,,,14,,45,100
33300,note_on,0,0,0,,,,,,,,,15,,45,100
33330,note_on,30,0,0,,,,,,,,,13,,66,0
33330,note_on,0,0,0,,,,,,,,,7,,61,0
33330,note_on,0,0,0,,,,,,,,,0,,45,0
33330,note_on,0,0,0,,,,,,,,,6,,66,0
33330,note_on,0,0,0,,,,,,,,,0,,66,0
33345,note_on,15,0,0,,,,,,,,,10,,33,0
33345,note_on,0,0,0,,,,,,,,,8,,45,0
33345,note_on,0,0,0,,,,,,,,,14,,45,0
33345,note_on,0,0,0,,,,,,,,,15,,45,0
33350,note_on,5,0,0,,,,,,,,,15,,57,0
33350,note_on,0,0,0,,,,,,,,,15,,69,0
33350,note_on,0,0,0,,,,,,,,,15,,66,0
33360,note_on,10,0,0,,,,,,,,,0,,47,100
33360,note_on,0,0,0,,,,,,,,,0,,64,100
33360,note_on,0,0,0,,,,,,,,,6,,63,100
33360,note_on,0,0,0,,,,,,,,,7,,54,100
33360,note_on,0,0,0,,,,,,,,,8,,47,100
33360,note_on,0,0,0,,,,,,,,,10,,35,100
33360,note_on,0,0,0,,,,,,,,,13,,63,100
33360,note_on,0,0,0,,,,,,,,,14,,47,100
33360,note_on,0,0,0,,,,,,,,,15,,59,100
33360,note_on,0,0,0,,,,,,,,,15,,63,100
33360,note_on,0,0,0,,,,,,,,,15,,66,100
33360,note_on,0,0,0,,,,,,,,,15,,47,100
33375,note_on,15,0,0,,,,,,,,,0,,64,0
33375,note_on,0,0,0,,,,,,,,,0,,63,100
33390,note_on,15,0,0,,,,,,,,,0,,63,0
33390,note_on,0,0,0,,,,,,,,,0,,64,100
33405,note_on,15,0,0,,,,,,,,,0,,64,0
33405,note_on,0,0,0,,,,,,,,,0,,63,100
33420,note_on,15,0,0,,,,,,,,,0,,63,0
33420,note_on,0,0,0,,,,,,,,,0,,64,100
33435,note_on,15,0,0,,,,,,,,,0,,64,0
33435,note_on,0,0,0,,,,,,,,,0,,63,100
33450,note_on,15,0,0,,,,,,,,,0,,63,0
33450,note_on,0,0,0,,,,,,,,,0,,64,100
33465,note_on,15,0,0,,,,,,,,,0,,64,0
33465,note_on,0,0,0,,,,,,,,,7,,54,0
33465,note_on,0,0,0,,,,,,,,,0,,63,100
33470,note_on,5,0,0,,,,,,,,,15,,63,0
33470,note_on,0,0,0,,,,,,,,,15,,59,0
33470,note_on,0,0,0,,,,,,,,,15,,66,0
33480,note_on,10,0,0,,,,,,,,,0,,63,0
33480,note_on,0,0,0,,,,,,,,,0,,64,100
33480,note_on,0,0,0,,,,,,,,,7,,59,100
33480,note_on,0,0,0,,,,,,,,,15,,59,100
33480,note_on,0,0,0,,,,,,,,,15,,66,100
33480,note_on,0,0,0,,,,,,,,,15,,69,100
33495,note_on,15,0,0,,,,,,,,,0,,64,0
33495,note_on,0,0,0,,,,,,,,,0,,63,100
33510,note_on,15,0,0,,,,,,,,,14,,47,0
33510,note_on,0,0,0,,,,,,,,,0,,47,0
33510,note_on,0,0,0,,,,,,,,,8,,47,0
33510,note_on,0,0,0,,,,,,,,,15,,47,0
33510,note_on,0,0,0,,,,,,,,,10,,35,0
33525,note_on,15,0,0,,,,,,,,,6,,63,0
33525,note_on,0,0,0,,,,,,,,,0,,63,0
33540,note_on,15,0,0,,,,,,,,,13,,63,0
33540,note_on,0,0,0,,,,,,,,,0,,64,100
33540,note_on,0,0,0,,,,,,,,,0,,47,100
33540,note_on,0,0,0,,,,,,,,,6,,64,100
33540,note_on,0,0,0,,,,,,,,,8,,47,100
33540,note_on,0,0,0,,,,,,,,,10,,35,100
33540,note_on,0,0,0,,,,,,,,,13,,64,100
33540,note_on,0,0,0,,,,,,,,,14,,47,100
33540,note_on,0,0,0,,,,,,,,,15,,47,100
33570,note_on,30,0,0,,,,,,,,,13,,64,0
33570,note_on,0,0,0,,,,,,,,,0,,47,0
33570,note_on,0,0,0,,,,,,,,,0,,64,0
33585,note_on,15,0,0,,,,,,,,,8,,47,0
33585,note_on,0,0,0,,,,,,,,,7,,59,0
33585,note_on,0,0,0,,,,,,,,,14,,47,0
33585,note_on,0,0,0,,,,,,,,,10,,35,0
33585,note_on,0,0,0,,,,,,,,,15,,47,0
33590,note_on,5,0,0,,,,,,,,,15,,59,0
33590,note_on,0,0,0,,,,,,,,,15,,69,0
33590,note_on,0,0,0,,,,,,,,,15,,66,0
33600,note_on,10,0,0,,,,,,,,,6,,64,0
33600,note_on,0,0,0,,,,,,,,,0,,40,100
33600,note_on,0,0,0,,,,,,,,,0,,76,100
33600,note_on,0,0,0,,,,,,,,,5,,76,100
33600,note_on,0,0,0,,,,,,,,,6,,59,100
33600,note_on,0,0,0,,,,,,,,,7,,56,100
33600,note_on,0,0,0,,,,,,,,,8,,40,100
33600,note_on,0,0,0,,,,,,,,,10,,28,100
33600,note_on,0,0,0,,,,,,,,,13,,76,100
33600,note_on,0,0,0,,,,,,,,,13,,64,100
33600,note_on,0,0,0,,,,,,,,,14,,40,100
33600,note_on,0,0,0,,,,,,,,,15,,59,100
33600,note_on,0,0,0,,,,,,,,,15,,64,100
33600,note_on,0,0,0,,,,,,,,,15,,68,100
33600,note_on,0,0,0,,,,,,,,,15,,40,100
33705,note_on,105,0,0,,,,,,,,,15,,40,0
33705,note_on,0,0,0,,,,,,,,,7,,56,0
33705,note_on,0,0,0,,,,,,,,,13,,64,0
33705,note_on,0,0,0,,,,,,,,,6,,59,0
33705,note_on,0,0,0,,,,,,,,,10,,28,0
33705,note_on,0,0,0,,,,,,,,,0,,40,0
33705,note_on,0,0,0,,,,,,,,,14,,40,0
33705,note_on,0,0,0,,,,,,,,,8,,40,0
33710,note_on,5,0,0,,,,,,,,,15,,64,0
33710,note_on,0,0,0,,,,,,,,,15,,59,0
33710,note_on,0,0,0,,,,,,,,,15,,68,0
33750,note_on,40,0,0,,,,,,,,,5,,76,0
33750,note_on,0,0,0,,,,,,,,,13,,76,0
33750,note_on,0,0,0,,,,,,,,,0,,76,0
33780,note_on,30,0,0,,,,,,,,,0,,76,100
33780,note_on,0,0,0,,,,,,,,,5,,76,100
33780,note_on,0,0,0,,,,,,,,,13,,76,100
33810,note_on,30,0,0,,,,,,,,,13,,76,0
33810,note_on,0,0,0,,,,,,,,,5,,76,0
33810,note_on,0,0,0,,,,,,,,,0,,76,0
33840,note_on,30,0,0,,,,,,,,,0,,81,100
33840,note_on,0,0,0,,,,,,,,,5,,81,100
33840,note_on,0,0,0,,,,,,,,,13,,81,100
33900,note_on,60,0,0,,,,,,,,,0,,69,100
33900,note_on,0,0,0,,,,,,,,,6,,69,100
33900,note_on,0,0,0,,,,,,,,,13,,69,100
33930,note_on,30,0,0,,,,,,,,,13,,69,0
33930,note_on,0,0,0,,,,,,,,,0,,69,0
33930,note_on,0,0,0,,,,,,,,,6,,69,0
33945,note_on,15,0,0,,,,,,,,,0,,81,0
33945,note_on,0,0,0,,,,,,,,,13,,81,0
33945,note_on,0,0,0,,,,,,,,,5,,81,0
33960,note_on,15,0,0,,,,,,,,,0,,71,100
33960,note_on,0,0,0,,,,,,,,,0,,78,100
33960,note_on,0,0,0,,,,,,,,,5,,78,100
33960,note_on,0,0,0,,,,,,,,,6,,71,100
33960,note_on,0,0,0,,,,,,,,,13,,71,100
33960,note_on,0,0,0,,,,,,,,,13,,78,100
33990,note_on,30,0,0,,,,,,,,,13,,71,0
33990,note_on,0,0,0,,,,,,,,,6,,71,0
33990,note_on,0,0,0,,,,,,,,,0,,71,0
34020,note_on,30,0,0,,,,,,,,,0,,73,100
34020,note_on,0,0,0,,,,,,,,,6,,73,100
34020,note_on,0,0,0,,,,,,,,,13,,73,100
34050,note_on,30,0,0,,,,,,,,,13,,73,0
34050,note_on,0,0,0,,,,,,,,,0,,73,0
34050,note_on,0,0,0,,,,,,,,,6,,73,0
34065,note_on,15,0,0,,,,,,,,,5,,78,0
34065,note_on,0,0,0,,,,,,,,,0,,78,0
34065,note_on,0,0,0,,,,,,,,,13,,78,0
34080,note_on,15,0,0,,,,,,,,,0,,74,100
34080,note_on,0,0,0,,,,,,,,,6,,74,100
34080,note_on,0,0,0,,,,,,,,,13,,74,100
34110,note_on,30,0,0,,,,,,,,,13,,74,0
34110,note_on,0,0,0,,,,,,,,,6,,74,0
34110,note_on,0,0,0,,,,,,,,,0,,74,0
34110,note_on,0,0,0,,,,,,,,,0,,76,100
34110,note_on,0,0,0,,,,,,,,,6,,76,100
34110,note_on,0,0,0,,,,,,,,,13,,76,100
34140,note_on,30,0,0,,,,,,,,,13,,76,0
34140,note_on,0,0,0,,,,,,,,,6,,76,0
34140,note_on,0,0,0,,,,,,,,,0,,76,0
34140,note_on,0,0,0,,,,,,,,,0,,74,100
34140,note_on,0,0,0,,,,,,,,,0,,78,100
34140,note_on,0,0,0,,,,,,,,,5,,78,100
34140,note_on,0,0,0,,,,,,,,,6,,74,100
34140,note_on,0,0,0,,,,,,,,,13,,74,100
34140,note_on,0,0,0,,,,,,,,,13,,78,100
34170,note_on,30,0,0,,,,,,,,,13,,78,0
34170,note_on,0,0,0,,,,,,,,,0,,78,0
34170,note_on,0,0,0,,,,,,,,,5,,78,0
34170,note_on,0,0,0,,,,,,,,,0,,74,0
34170,note_on,0,0,0,,,,,,,,,13,,74,0
34170,note_on,0,0,0,,,,,,,,,6,,74,0
34200,note_on,30,0,0,,,,,,,,,0,,83,100
34200,note_on,0,0,0,,,,,,,,,0,,68,100
34200,note_on,0,0,0,,,,,,,,,5,,83,100
34200,note_on,0,0,0,,,,,,,,,6,,68,100
34200,note_on,0,0,0,,,,,,,,,13,,68,100
34200,note_on,0,0,0,,,,,,,,,13,,83,100
34230,note_on,30,0,0,,,,,,,,,13,,83,0
34230,note_on,0,0,0,,,,,,,,,0,,83,0
34230,note_on,0,0,0,,,,,,,,,5,,83,0
34260,note_on,30,0,0,,,,,,,,,0,,71,100
34260,note_on,0,0,0,,,,,,,,,5,,71,100
34260,note_on,0,0,0,,,,,,,,,13,,71,100
34290,note_on,30,0,0,,,,,,,,,13,,71,0
34290,note_on,0,0,0,,,,,,,,,0,,71,0
34290,note_on,0,0,0,,,,,,,,,5,,71,0
34305,note_on,15,0,0,,,,,,,,,13,,68,0
34305,note_on,0,0,0,,,,,,,,,0,,68,0
34305,note_on,0,0,0,,,,,,,,,6,,68,0
34320,note_on,15,0,0,,,,,,,,,0,,83,100
34320,note_on,0,0,0,,,,,,,,,5,,83,100
34320,note_on,0,0,0,,,,,,,,,13,,83,100
34380,note_on,60,0,0,,,,,,,,,0,,71,100
34380,note_on,0,0,0,,,,,,,,,6,,71,100
34380,note_on,0,0,0,,,,,,,,,13,,71,100
34410,note_on,30,0,0,,,,,,,,,13,,71,0
34410,note_on,0,0,0,,,,,,,,,0,,71,0
34410,note_on,0,0,0,,,,,,,,,6,,71,0
34425,note_on,15,0,0,,,,,,,,,0,,83,0
34425,note_on,0,0,0,,,,,,,,,13,,83,0
34425,note_on,0,0,0,,,,,,,,,5,,83,0
34440,note_on,15,0,0,,,,,,,,,0,,73,100
34440,note_on,0,0,0,,,,,,,,,0,,80,100
34440,note_on,0,0,0,,,,,,,,,5,,80,100
34440,note_on,0,0,0,,,,,,,,,6,,73,100
34440,note_on,0,0,0,,,,,,,,,13,,73,100
34440,note_on,0,0,0,,,,,,,,,13,,80,100
34470,note_on,30,0,0,,,,,,,,,13,,73,0
34470,note_on,0,0,0,,,,,,,,,6,,73,0
34470,note_on,0,0,0,,,,,,,,,0,,73,0
34500,note_on,30,0,0,,,,,,,,,0,,74,100
34500,note_on,0,0,0,,,,,,,,,6,,74,100
34500,note_on,0,0,0,,,,,,,,,13,,74,100
34530,note_on,30,0,0,,,,,,,,,13,,74,0
34530,note_on,0,0,0,,,,,,,,,0,,74,0
34530,note_on,0,0,0,,,,,,,,,6,,74,0
34545,note_on,15,0,0,,,,,,,,,5,,80,0
34545,note_on,0,0,0,,,,,,,,,0,,80,0
34545,note_on,0,0,0,,,,,,,,,13,,80,0
34560,note_on,15,0,0,,,,,,,,,0,,76,100
34560,note_on,0,0,0,,,,,,,,,6,,76,100
34560,note_on,0,0,0,,,,,,,,,13,,76,100
34590,note_on,30,0,0,,,,,,,,,13,,76,0
34590,note_on,0,0,0,,,,,,,,,6,,76,0
34590,note_on,0,0,0,,,,,,,,,0,,76,0
34590,note_on,0,0,0,,,,,,,,,0,,78,100
34590,note_on,0,0,0,,,,,,,,,6,,78,100
34590,note_on,0,0,0,,,,,,,,,13,,78,100
34620,note_on,30,0,0,,,,,,,,,13,,78,0
34620,note_on,0,0,0,,,,,,,,,6,,78,0
34620,note_on,0,0,0,,,,,,,,,0,,78,0
34620,note_on,0,0,0,,,,,,,,,0,,80,100
34620,note_on,0,0,0,,,,,,,,,0,,76,100
34620,note_on,0,0,0,,,,,,,,,5,,80,100
34620,note_on,0,0,0,,,,,,,,,6,,76,100
34620,note_on,0,0,0,,,,,,,,,13,,76,100
34620,note_on,0,0,0,,,,,,,,,13,,80,100
34650,note_on,30,0,0,,,,,,,,,13,,80,0
34650,note_on,0,0,0,,,,,,,,,0,,76,0
34650,note_on,0,0,0,,,,,,,,,5,,80,0
34650,note_on,0,0,0,,,,,,,,,0,,80,0
34650,note_on,0,0,0,,,,,,,,,13,,76,0
34650,note_on,0,0,0,,,,,,,,,6,,76,0
34680,note_on,30,0,0,,,,,,,,,0,,85,100
34680,note_on,0,0,0,,,,,,,,,0,,69,100
34680,note_on,0,0,0,,,,,,,,,5,,85,100
34680,note_on,0,0,0,,,,,,,,,6,,69,100
34680,note_on,0,0,0,,,,,,,,,13,,69,100
34680,note_on,0,0,0,,,,,,,,,13,,85,100
34710,note_on,30,0,0,,,,,,,,,13,,85,0
34710,note_on,0,0,0,,,,,,,,,0,,85,0
34710,note_on,0,0,0,,,,,,,,,5,,85,0
34740,note_on,30,0,0,,,,,,,,,0,,73,100
34740,note_on,0,0,0,,,,,,,,,5,,73,100
34740,note_on,0,0,0,,,,,,,,,13,,73,100
34770,note_on,30,0,0,,,,,,,,,13,,73,0
34770,note_on,0,0,0,,,,,,,,,0,,73,0
34770,note_on,0,0,0,,,,,,,,,5,,73,0
34785,note_on,15,0,0,,,,,,,,,13,,69,0
34785,note_on,0,0,0,,,,,,,,,0,,69,0
34785,note_on,0,0,0,,,,,,,,,6,,69,0
34800,note_on,15,0,0,,,,,,,,,0,,85,100
34800,note_on,0,0,0,,,,,,,,,5,,85,100
34800,note_on,0,0,0,,,,,,,,,13,,85,100
34860,note_on,60,0,0,,,,,,,,,0,,73,100
34860,note_on,0,0,0,,,,,,,,,6,,73,100
34860,note_on,0,0,0,,,,,,,,,13,,73,100
34890,note_on,30,0,0,,,,,,,,,13,,73,0
34890,note_on,0,0,0,,,,,,,,,0,,73,0
34890,note_on,0,0,0,,,,,,,,,6,,73,0
34905,note_on,15,0,0,,,,,,,,,0,,85,0
34905,note_on,0,0,0,,,,,,,,,13,,85,0
34905,note_on,0,0,0,,,,,,,,,5,,85,0
34920,note_on,15,0,0,,,,,,,,,0,,74,100
34920,note_on,0,0,0,,,,,,,,,0,,81,100
34920,note_on,0,0,0,,,,,,,,,5,,81,100
34920,note_on,0,0,0,,,,,,,,,6,,74,100
34920,note_on,0,0,0,,,,,,,,,13,,74,100
34920,note_on,0,0,0,,,,,,,,,13,,81,100
34950,note_on,30,0,0,,,,,,,,,13,,74,0
34950,note_on,0,0,0,,,,,,,,,6,,74,0
34950,note_on,0,0,0,,,,,,,,,0,,74,0
34980,note_on,30,0,0,,,,,,,,,0,,76,100
34980,note_on,0,0,0,,,,,,,,,6,,76,100
34980,note_on,0,0,0,,,,,,,,,13,,76,100
35010,note_on,30,0,0,,,,,,,,,13,,76,0
35010,note_on,0,0,0,,,,,,,,,0,,76,0
35010,note_on,0,0,0,,,,,,,,,6,,76,0
35025,note_on,15,0,0,,,,,,,,,5,,81,0
35025,note_on,0,0,0,,,,,,,,,0,,81,0
35025,note_on,0,0,0,,,,,,,,,13,,81,0
35040,note_on,15,0,0,,,,,,,,,0,,78,100
35040,note_on,0,0,0,,,,,,,,,6,,78,100
35040,note_on,0,0,0,,,,,,,,,13,,78,100
35070,note_on,30,0,0,,,,,,,,,13,,78,0
35070,note_on,0,0,0,,,,,,,,,6,,78,0
35070,note_on,0,0,0,,,,,,,,,0,,78,0
35070,note_on,0,0,0,,,,,,,,,0,,80,100
35070,note_on,0,0,0,,,,,,,,,6,,80,100
35070,note_on,0,0,0,,,,,,,,,13,,80,100
35100,note_on,30,0,0,,,,,,,,,13,,80,0
35100,note_on,0,0,0,,,,,,,,,6,,80,0
35100,note_on,0,0,0,,,,,,,,,0,,80,0
35100,note_on,0,0,0,,,,,,,,,0,,81,100
35100,note_on,0,0,0,,,,,,,,,0,,78,100
35100,note_on,0,0,0,,,,,,,,,5,,81,100
35100,note_on,0,0,0,,,,,,,,,6,,78,100
35100,note_on,0,0,0,,,,,,,,,13,,78,100
35100,note_on,0,0,0,,,,,,,,,13,,81,100
35130,note_on,30,0,0,,,,,,,,,13,,81,0
35130,note_on,0,0,0,,,,,,,,,0,,78,0
35130,note_on,0,0,0,,,,,,,,,5,,81,0
35130,note_on,0,0,0,,,,,,,,,0,,81,0
35130,note_on,0,0,0,,,,,,,,,13,,78,0
35130,note_on,0,0,0,,,,,,,,,6,,78,0
35160,note_on,30,0,0,,,,,,,,,0,,86,100
35160,note_on,0,0,0,,,,,,,,,0,,71,100
35160,note_on,0,0,0,,,,,,,,,5,,86,100
35160,note_on,0,0,0,,,,,,,,,6,,71,100
35160,note_on,0,0,0,,,,,,,,,13,,71,100
35160,note_on,0,0,0,,,,,,,,,13,,86,100
35190,note_on,30,0,0,,,,,,,,,13,,86,0
35190,note_on,0,0,0,,,,,,,,,0,,71,0
35190,note_on,0,0,0,,,,,,,,,5,,86,0
35190,note_on,0,0,0,,,,,,,,,0,,86,0
35190,note_on,0,0,0,,,,,,,,,13,,71,0
35190,note_on,0,0,0,,,,,,,,,6,,71,0
35190,note_on,0,0,0,,,,,,,,,0,,73,100
35190,note_on,0,0,0,,,,,,,,,6,,73,100
35190,note_on,0,0,0,,,,,,,,,13,,73,100
35220,note_on,30,0,0,,,,,,,,,13,,73,0
35220,note_on,0,0,0,,,,,,,,,6,,73,0
35220,note_on,0,0,0,,,,,,,,,0,,73,0
35220,note_on,0,0,0,,,,,,,,,0,,74,100
35220,note_on,0,0,0,,,,,,,,,0,,71,100
35220,note_on,0,0,0,,,,,,,,,5,,74,100
35220,note_on,0,0,0,,,,,,,,,6,,71,100
35220,note_on,0,0,0,,,,,,,,,13,,71,100
35220,note_on,0,0,0,,,,,,,,,13,,74,100
35250,note_on,30,0,0,,,,,,,,,13,,74,0
35250,note_on,0,0,0,,,,,,,,,0,,71,0
35250,note_on,0,0,0,,,,,,,,,5,,74,0
35250,note_on,0,0,0,,,,,,,,,0,,74,0
35250,note_on,0,0,0,,,,,,,,,13,,71,0
35250,note_on,0,0,0,,,,,,,,,6,,71,0
35280,note_on,30,0,0,,,,,,,,,0,,76,100
35280,note_on,0,0,0,,,,,,,,,0,,80,100
35280,note_on,0,0,0,,,,,,,,,5,,76,100
35280,note_on,0,0,0,,,,,,,,,6,,80,100
35280,note_on,0,0,0,,,,,,,,,13,,80,100
35280,note_on,0,0,0,,,,,,,,,13,,76,100
35310,note_on,30,0,0,,,,,,,,,13,,76,0
35310,note_on,0,0,0,,,,,,,,,0,,80,0
35310,note_on,0,0,0,,,,,,,,,5,,76,0
35310,note_on,0,0,0,,,,,,,,,0,,76,0
35310,note_on,0,0,0,,,,,,,,,13,,80,0
35310,note_on,0,0,0,,,,,,,,,6,,80,0
35310,note_on,0,0,0,,,,,,,,,0,,81,100
35310,note_on,0,0,0,,,,,,,,,6,,81,100
35310,note_on,0,0,0,,,,,,,,,13,,81,100
35340,note_on,30,0,0,,,,,,,,,13,,81,0
35340,note_on,0,0,0,,,,,,,,,6,,81,0
35340,note_on,0,0,0,,,,,,,,,0,,81,0
35340,note_on,0,0,0,,,,,,,,,0,,83,100
35340,note_on,0,0,0,,,,,,,,,0,,80,100
35340,note_on,0,0,0,,,,,,,,,5,,83,100
35340,note_on,0,0,0,,,,,,,,,6,,80,100
35340,note_on,0,0,0,,,,,,,,,13,,80,100
35340,note_on,0,0,0,,,,,,,,,13,,83,100
35370,note_on,30,0,0,,,,,,,,,13,,83,0
35370,note_on,0,0,0,,,,,,,,,0,,80,0
35370,note_on,0,0,0,,,,,,,,,5,,83,0
35370,note_on,0,0,0,,,,,,,,,0,,83,0
35370,note_on,0,0,0,,,,,,,,,13,,80,0
35370,note_on,0,0,0,,,,,,,,,6,,80,0
35400,note_on,30,0,0,,,,,,,,,0,,81,100
35400,note_on,0,0,0,,,,,,,,,0,,85,100
35400,note_on,0,0,0,,,,,,,,,5,,85,100
35400,note_on,0,0,0,,,,,,,,,6,,81,100
35400,note_on,0,0,0,,,,,,,,,13,,81,100
35400,note_on,0,0,0,,,,,,,,,13,,85,100
35430,note_on,30,0,0,,,,,,,,,13,,85,0
35430,note_on,0,0,0,,,,,,,,,0,,85,0
35430,note_on,0,0,0,,,,,,,,,5,,85,0
35430,note_on,0,0,0,,,,,,,,,0,,81,0
35430,note_on,0,0,0,,,,,,,,,13,,81,0
35430,note_on,0,0,0,,,,,,,,,6,,81,0
35460,note_on,30,0,0,,,,,,,,,0,,73,100
35460,note_on,0,0,0,,,,,,,,,0,,76,100
35460,note_on,0,0,0,,,,,,,,,5,,76,100
35460,note_on,0,0,0,,,,,,,,,6,,73,100
35460,note_on,0,0,0,,,,,,,,,13,,73,100
35460,note_on,0,0,0,,,,,,,,,13,,76,100
35490,note_on,30,0,0,,,,,,,,,13,,76,0
35490,note_on,0,0,0,,,,,,,,,0,,76,0
35490,note_on,0,0,0,,,,,,,,,5,,76,0
35490,note_on,0,0,0,,,,,,,,,0,,73,0
35490,note_on,0,0,0,,,,,,,,,13,,73,0
35490,note_on,0,0,0,,,,,,,,,6,,73,0
35520,note_on,30,0,0,,,,,,,,,0,,78,100
35520,note_on,0,0,0,,,,,,,,,0,,74,100
35520,note_on,0,0,0,,,,,,,,,5,,78,100
35520,note_on,0,0,0,,,,,,,,,6,,74,100
35520,note_on,0,0,0,,,,,,,,,13,,78,100
35520,note_on,0,0,0,,,,,,,,,13,,74,100
35550,note_on,30,0,0,,,,,,,,,13,,78,0
35550,note_on,0,0,0,,,,,,,,,5,,78,0
35550,note_on,0,0,0,,,,,,,,,0,,78,0
35550,note_on,0,0,0,,,,,,,,,0,,80,100
35550,note_on,0,0,0,,,,,,,,,5,,80,100
35550,note_on,0,0,0,,,,,,,,,13,,80,100
35580,note_on,30,0,0,,,,,,,,,13,,80,0
35580,note_on,0,0,0,,,,,,,,,0,,80,0
35580,note_on,0,0,0,,,,,,,,,5,,80,0
35580,note_on,0,0,0,,,,,,,,,0,,78,100
35580,note_on,0,0,0,,,,,,,,,5,,78,100
35580,note_on,0,0,0,,,,,,,,,13,,78,100
35610,note_on,30,0,0,,,,,,,,,13,,78,0
35610,note_on,0,0,0,,,,,,,,,0,,78,0
35610,note_on,0,0,0,,,,,,,,,5,,78,0
35640,note_on,30,0,0,,,,,,,,,0,,83,100
35640,note_on,0,0,0,,,,,,,,,5,,83,100
35640,note_on,0,0,0,,,,,,,,,13,,83,100
35670,note_on,30,0,0,,,,,,,,,13,,83,0
35670,note_on,0,0,0,,,,,,,,,13,,74,0
35670,note_on,0,0,0,,,,,,,,,6,,74,0
35670,note_on,0,0,0,,,,,,,,,0,,74,0
35670,note_on,0,0,0,,,,,,,,,5,,83,0
35670,note_on,0,0,0,,,,,,,,,0,,83,0
35670,note_on,0,0,0,,,,,,,,,0,,85,100
35670,note_on,0,0,0,,,,,,,,,5,,85,100
35670,note_on,0,0,0,,,,,,,,,13,,85,100
35700,note_on,30,0,0,,,,,,,,,13,,85,0
35700,note_on,0,0,0,,,,,,,,,5,,85,0
35700,note_on,0,0,0,,,,,,,,,0,,85,0
35700,note_on,0,0,0,,,,,,,,,0,,74,100
35700,note_on,0,0,0,,,,,,,,,0,,83,100
35700,note_on,0,0,0,,,,,,,,,5,,83,100
35700,note_on,0,0,0,,,,,,,,,6,,74,100
35700,note_on,0,0,0,,,,,,,,,13,,74,100
35700,note_on,0,0,0,,,,,,,,,13,,83,100
35730,note_on,30,0,0,,,,,,,,,13,,83,0
35730,note_on,0,0,0,,,,,,,,,0,,83,0
35730,note_on,0,0,0,,,,,,,,,5,,83,0
35730,note_on,0,0,0,,,,,,,,,0,,74,0
35730,note_on,0,0,0,,,,,,,,,13,,74,0
35730,note_on,0,0,0,,,,,,,,,6,,74,0
35760,note_on,30,0,0,,,,,,,,,0,,73,100
35760,note_on,0,0,0,,,,,,,,,0,,76,100
35760,note_on,0,0,0,,,,,,,,,5,,76,100
35760,note_on,0,0,0,,,,,,,,,6,,73,100
35760,note_on,0,0,0,,,,,,,,,13,,73,100
35760,note_on,0,0,0,,,,,,,,,13,,76,100
35790,note_on,30,0,0,,,,,,,,,13,,76,0
35790,note_on,0,0,0,,,,,,,,,0,,76,0
35790,note_on,0,0,0,,,,,,,,,5,,76,0
35790,note_on,0,0,0,,,,,,,,,0,,73,0
35790,note_on,0,0,0,,,,,,,,,13,,73,0
35790,note_on,0,0,0,,,,,,,,,6,,73,0
35790,note_on,0,0,0,,,,,,,,,0,,74,100
35790,note_on,0,0,0,,,,,,,,,0,,78,100
35790,note_on,0,0,0,,,,,,,,,5,,78,100
35790,note_on,0,0,0,,,,,,,,,6,,74,100
35790,note_on,0,0,0,,,,,,,,,13,,74,100
35790,note_on,0,0,0,,,,,,,,,13,,78,100
35820,note_on,30,0,0,,,,,,,,,13,,78,0
35820,note_on,0,0,0,,,,,,,,,0,,78,0
35820,note_on,0,0,0,,,,,,,,,5,,78,0
35820,note_on,0,0,0,,,,,,,,,0,,74,0
35820,note_on,0,0,0,,,,,,,,,13,,74,0
35820,note_on,0,0,0,,,,,,,,,6,,74,0
35820,note_on,0,0,0,,,,,,,,,0,,73,100
35820,note_on,0,0,0,,,,,,,,,0,,76,100
35820,note_on,0,0,0,,,,,,,,,5,,76,100
35820,note_on,0,0,0,,,,,,,,,6,,73,100
35820,note_on,0,0,0,,,,,,,,,13,,73,100
35820,note_on,0,0,0,,,,,,,,,13,,76,100
35850,note_on,30,0,0,,,,,,,,,13,,76,0
35850,note_on,0,0,0,,,,,,,,,0,,76,0
35850,note_on,0,0,0,,,,,,,,,5,,76,0
35850,note_on,0,0,0,,,,,,,,,0,,73,0
35850,note_on,0,0,0,,,,,,,,,13,,73,0
35850,note_on,0,0,0,,,,,,,,,6,,73,0
35880,note_on,30,0,0,,,,,,,,,0,,78,100
35880,note_on,0,0,0,,,,,,,,,0,,81,100
35880,note_on,0,0,0,,,,,,,,,5,,81,100
35880,note_on,0,0,0,,,,,,,,,6,,78,100
35880,note_on,0,0,0,,,,,,,,,13,,78,100
35880,note_on,0,0,0,,,,,,,,,13,,81,100
35910,note_on,30,0,0,,,,,,,,,13,,78,0
35910,note_on,0,0,0,,,,,,,,,6,,78,0
35910,note_on,0,0,0,,,,,,,,,0,,78,0
35910,note_on,0,0,0,,,,,,,,,0,,80,100
35910,note_on,0,0,0,,,,,,,,,6,,80,100
35910,note_on,0,0,0,,,,,,,,,13,,80,100
35940,note_on,30,0,0,,,,,,,,,13,,80,0
35940,note_on,0,0,0,,,,,,,,,0,,80,0
35940,note_on,0,0,0,,,,,,,,,6,,80,0
35940,note_on,0,0,0,,,,,,,,,0,,78,100
35940,note_on,0,0,0,,,,,,,,,6,,78,100
35940,note_on,0,0,0,,,,,,,,,13,,78,100
35970,note_on,30,0,0,,,,,,,,,13,,78,0
35970,note_on,0,0,0,,,,,,,,,0,,78,0
35970,note_on,0,0,0,,,,,,,,,6,,78,0
36000,note_on,30,0,0,,,,,,,,,0,,71,100
36000,note_on,0,0,0,,,,,,,,,6,,71,100
36000,note_on,0,0,0,,,,,,,,,13,,71,100
36030,note_on,30,0,0,,,,,,,,,13,,71,0
36030,note_on,0,0,0,,,,,,,,,5,,81,0
36030,note_on,0,0,0,,,,,,,,,13,,81,0
36030,note_on,0,0,0,,,,,,,,,0,,81,0
36030,note_on,0,0,0,,,,,,,,,6,,71,0
36030,note_on,0,0,0,,,,,,,,,0,,71,0
36030,note_on,0,0,0,,,,,,,,,0,,73,100
36030,note_on,0,0,0,,,,,,,,,6,,73,100
36030,note_on,0,0,0,,,,,,,,,13,,73,100
36060,note_on,30,0,0,,,,,,,,,13,,73,0
36060,note_on,0,0,0,,,,,,,,,6,,73,0
36060,note_on,0,0,0,,,,,,,,,0,,73,0
36060,note_on,0,0,0,,,,,,,,,0,,81,100
36060,note_on,0,0,0,,,,,,,,,0,,71,100
36060,note_on,0,0,0,,,,,,,,,5,,81,100
36060,note_on,0,0,0,,,,,,,,,6,,71,100
36060,note_on,0,0,0,,,,,,,,,13,,71,100
36060,note_on,0,0,0,,,,,,,,,13,,81,100
36090,note_on,30,0,0,,,,,,,,,13,,81,0
36090,note_on,0,0,0,,,,,,,,,0,,71,0
36090,note_on,0,0,0,,,,,,,,,5,,81,0
36090,note_on,0,0,0,,,,,,,,,0,,81,0
36090,note_on,0,0,0,,,,,,,,,13,,71,0
36090,note_on,0,0,0,,,,,,,,,6,,71,0
36120,note_on,30,0,0,,,,,,,,,0,,80,100
36120,note_on,0,0,0,,,,,,,,,0,,76,100
36120,note_on,0,0,0,,,,,,,,,5,,80,100
36120,note_on,0,0,0,,,,,,,,,6,,76,100
36120,note_on,0,0,0,,,,,,,,,13,,76,100
36120,note_on,0,0,0,,,,,,,,,13,,80,100
36150,note_on,30,0,0,,,,,,,,,13,,80,0
36150,note_on,0,0,0,,,,,,,,,0,,80,0
36150,note_on,0,0,0,,,,,,,,,5,,80,0
36150,note_on,0,0,0,,,,,,,,,0,,81,100
36150,note_on,0,0,0,,,,,,,,,5,,81,100
36150,note_on,0,0,0,,,,,,,,,13,,81,100
36180,note_on,30,0,0,,,,,,,,,13,,81,0
36180,note_on,0,0,0,,,,,,,,,0,,81,0
36180,note_on,0,0,0,,,,,,,,,5,,81,0
36180,note_on,0,0,0,,,,,,,,,0,,80,100
36180,note_on,0,0,0,,,,,,,,,5,,80,100
36180,note_on,0,0,0,,,,,,,,,13,,80,100
36210,note_on,30,0,0,,,,,,,,,13,,80,0
36210,note_on,0,0,0,,,,,,,,,0,,80,0
36210,note_on,0,0,0,,,,,,,,,5,,80,0
36240,note_on,30,0,0,,,,,,,,,0,,78,100
36240,note_on,0,0,0,,,,,,,,,5,,78,100
36240,note_on,0,0,0,,,,,,,,,13,,78,100
36270,note_on,30,0,0,,,,,,,,,13,,78,0
36270,note_on,0,0,0,,,,,,,,,13,,76,0
36270,note_on,0,0,0,,,,,,,,,6,,76,0
36270,note_on,0,0,0,,,,,,,,,0,,76,0
36270,note_on,0,0,0,,,,,,,,,5,,78,0
36270,note_on,0,0,0,,,,,,,,,0,,78,0
36300,note_on,30,0,0,,,,,,,,,0,,69,100
36300,note_on,0,0,0,,,,,,,,,0,,78,100
36300,note_on,0,0,0,,,,,,,,,5,,78,100
36300,note_on,0,0,0,,,,,,,,,6,,69,100
36300,note_on,0,0,0,,,,,,,,,13,,69,100
36300,note_on,0,0,0,,,,,,,,,13,,78,100
36330,note_on,30,0,0,,,,,,,,,13,,78,0
36330,note_on,0,0,0,,,,,,,,,0,,78,0
36330,note_on,0,0,0,,,,,,,,,5,,78,0
36330,note_on,0,0,0,,,,,,,,,0,,69,0
36330,note_on,0,0,0,,,,,,,,,13,,69,0
36330,note_on,0,0,0,,,,,,,,,6,,69,0
36360,note_on,30,0,0,,,,,,,,,0,,74,100
36360,note_on,0,0,0,,,,,,,,,0,,78,100
36360,note_on,0,0,0,,,,,,,,,5,,78,100
36360,note_on,0,0,0,,,,,,,,,6,,74,100
36360,note_on,0,0,0,,,,,,,,,13,,74,100
36360,note_on,0,0,0,,,,,,,,,13,,78,100
36390,note_on,30,0,0,,,,,,,,,13,,78,0
36390,note_on,0,0,0,,,,,,,,,0,,78,0
36390,note_on,0,0,0,,,,,,,,,5,,78,0
36390,note_on,0,0,0,,,,,,,,,0,,80,100
36390,note_on,0,0,0,,,,,,,,,5,,80,100
36390,note_on,0,0,0,,,,,,,,,13,,80,100
36420,note_on,30,0,0,,,,,,,,,13,,80,0
36420,note_on,0,0,0,,,,,,,,,0,,80,0
36420,note_on,0,0,0,,,,,,,,,5,,80,0
36420,note_on,0,0,0,,,,,,,,,0,,78,100
36420,note_on,0,0,0,,,,,,,,,5,,78,100
36420,note_on,0,0,0,,,,,,,,,13,,78,100
36450,note_on,30,0,0,,,,,,,,,13,,78,0
36450,note_on,0,0,0,,,,,,,,,0,,78,0
36450,note_on,0,0,0,,,,,,,,,5,,78,0
36465,note_on,15,0,0,,,,,,,,,0,,74,0
36480,set_tempo,15,1,0,,,,,,535714,,,,,,
36480,note_on,0,0,0,,,,,,,,,0,,45,100
36480,note_on,0,0,0,,,,,,,,,0,,76,100
36480,note_on,0,0,0,,,,,,,,,5,,76,100
36480,note_on,0,0,0,,,,,,,,,8,,45,100
36480,note_on,0,0,0,,,,,,,,,10,,33,100
36480,note_on,0,0,0,,,,,,,,,13,,76,100
36480,note_on,0,0,0,,,,,,,,,14,,45,100
36480,note_on,0,0,0,,,,,,,,,15,,57,100
36480,note_on,0,0,0,,,,,,,,,15,,61,100
36480,note_on,0,0,0,,,,,,,,,15,,64,100
36480,note_on,0,0,0,,,,,,,,,15,,45,100
36510,note_on,30,0,0,,,,,,,,,13,,74,0
36525,note_on,15,0,0,,,,,,,,,6,,74,0
36540,note_on,15,0,0,,,,,,,,,6,,73,100
36540,note_on,0,0,0,,,,,,,,,7,,64,100
36540,note_on,0,0,0,,,,,,,,,13,,73,100
36570,note_on,30,0,0,,,,,,,,,13,,73,0
36570,note_on,0,0,0,,,,,,,,,7,,64,0
36570,note_on,0,0,0,,,,,,,,,6,,73,0
36570,note_on,0,0,0,,,,,,,,,6,,71,100
36570,note_on,0,0,0,,,,,,,,,7,,62,100
36570,note_on,0,0,0,,,,,,,,,13,,71,100
36585,note_on,15,0,0,,,,,,,,,0,,76,0
36585,note_on,0,0,0,,,,,,,,,5,,76,0
36585,note_on,0,0,0,,,,,,,,,13,,76,0
36590,note_on,5,0,0,,,,,,,,,15,,57,0
36590,note_on,0,0,0,,,,,,,,,15,,61,0
36590,note_on,0,0,0,,,,,,,,,15,,64,0
36600,note_on,10,0,0,,,,,,,,,6,,71,0
36600,note_on,0,0,0,,,,,,,,,7,,62,0
36600,note_on,0,0,0,,,,,,,,,13,,71,0
36600,note_on,0,0,0,,,,,,,,,6,,69,100
36600,note_on,0,0,0,,,,,,,,,7,,61,100
36600,note_on,0,0,0,,,,,,,,,13,,69,100
36600,note_on,0,0,0,,,,,,,,,15,,61,100
36600,note_on,0,0,0,,,,,,,,,15,,64,100
36600,note_on,0,0,0,,,,,,,,,15,,69,100
36630,note_on,30,0,0,,,,,,,,,13,,69,0
36630,note_on,0,0,0,,,,,,,,,7,,61,0
36630,note_on,0,0,0,,,,,,,,,14,,45,0
36630,note_on,0,0,0,,,,,,,,,0,,45,0
36630,note_on,0,0,0,,,,,,,,,8,,45,0
36630,note_on,0,0,0,,,,,,,,,15,,45,0
36630,note_on,0,0,0,,,,,,,,,10,,33,0
36630,note_on,0,0,0,,,,,,,,,6,,69,0
36660,note_on,30,0,0,,,,,,,,,0,,45,100
36660,note_on,0,0,0,,,,,,,,,6,,68,100
36660,note_on,0,0,0,,,,,,,,,7,,59,100
36660,note_on,0,0,0,,,,,,,,,8,,45,100
36660,note_on,0,0,0,,,,,,,,,10,,33,100
36660,note_on,0,0,0,,,,,,,,,13,,68,100
36660,note_on,0,0,0,,,,,,,,,14,,45,100
36660,note_on,0,0,0,,,,,,,,,15,,45,100
36690,note_on,30,0,0,,,,,,,,,15,,45,0
36690,note_on,0,0,0,,,,,,,,,10,,33,0
36690,note_on,0,0,0,,,,,,,,,14,,45,0
36690,note_on,0,0,0,,,,,,,,,8,,45,0
36690,note_on,0,0,0,,,,,,,,,0,,45,0
36690,note_on,0,0,0,,,,,,,,,6,,68,0
36690,note_on,0,0,0,,,,,,,,,13,,68,0
36690,note_on,0,0,0,,,,,,,,,7,,59,0
36710,note_on,20,0,0,,,,,,,,,15,,64,0
36710,note_on,0,0,0,,,,,,,,,15,,69,0
36710,note_on,0,0,0,,,,,,,,,15,,61,0
36720,note_on,10,0,0,,,,,,,,,0,,50,100
36720,note_on,0,0,0,,,,,,,,,6,,66,100
36720,note_on,0,0,0,,,,,,,,,7,,57,100
36720,note_on,0,0,0,,,,,,,,,8,,50,100
36720,note_on,0,0,0,,,,,,,,,10,,38,100
36720,note_on,0,0,0,,,,,,,,,13,,66,100
36720,note_on,0,0,0,,,,,,,,,14,,50,100
36720,note_on,0,0,0,,,,,,,,,15,,64,100
36720,note_on,0,0,0,,,,,,,,,15,,59,100
36720,note_on,0,0,0,,,,,,,,,15,,69,100
36720,note_on,0,0,0,,,,,,,,,15,,50,100
36750,note_on,30,0,0,,,,,,,,,7,,57,0
36780,note_on,30,0,0,,,,,,,,,0,,69,100
36780,note_on,0,0,0,,,,,,,,,5,,69,100
36780,note_on,0,0,0,,,,,,,,,7,,62,100
36780,note_on,0,0,0,,,,,,,,,13,,69,100
36810,note_on,30,0,0,,,,,,,,,13,,69,0
36810,note_on,0,0,0,,,,,,,,,7,,62,0
36810,note_on,0,0,0,,,,,,,,,0,,69,0
36810,note_on,0,0,0,,,,,,,,,5,,69,0
36825,note_on,15,0,0,,,,,,,,,15,,69,0
36825,note_on,0,0,0,,,,,,,,,8,,50,0
36825,note_on,0,0,0,,,,,,,,,10,,38,0
36825,note_on,0,0,0,,,,,,,,,0,,50,0
36825,note_on,0,0,0,,,,,,,,,14,,50,0
36825,note_on,0,0,0,,,,,,,,,13,,66,0
36825,note_on,0,0,0,,,,,,,,,15,,50,0
36825,note_on,0,0,0,,,,,,,,,15,,64,0
36825,note_on,0,0,0,,,,,,,,,6,,66,0
36825,note_on,0,0,0,,,,,,,,,15,,59,0
36840,note_on,15,0,0,,,,,,,,,0,,71,100
36840,note_on,0,0,0,,,,,,,,,0,,47,100
36840,note_on,0,0,0,,,,,,,,,5,,71,100
36840,note_on,0,0,0,,,,,,,,,6,,62,100
36840,note_on,0,0,0,,,,,,,,,7,,66,100
36840,note_on,0,0,0,,,,,,,,,8,,47,100
36840,note_on,0,0,0,,,,,,,,,10,,35,100
36840,note_on,0,0,0,,,,,,,,,13,,71,100
36840,note_on,0,0,0,,,,,,,,,14,,47,100
36840,note_on,0,0,0,,,,,,,,,15,,62,100
36840,note_on,0,0,0,,,,,,,,,15,,66,100
36840,note_on,0,0,0,,,,,,,,,15,,71,100
36840,note_on,0,0,0,,,,,,,,,15,,47,100
36870,note_on,30,0,0,,,,,,,,,13,,71,0
36870,note_on,0,0,0,,,,,,,,,5,,71,0
36870,note_on,0,0,0,,,,,,,,,0,,71,0
36900,note_on,30,0,0,,,,,,,,,0,,73,100
36900,note_on,0,0,0,,,,,,,,,5,,73,100
36900,note_on,0,0,0,,,,,,,,,13,,73,100
36930,note_on,30,0,0,,,,,,,,,13,,73,0
36930,note_on,0,0,0,,,,,,,,,5,,73,0
36930,note_on,0,0,0,,,,,,,,,0,,73,0
36945,note_on,15,0,0,,,,,,,,,15,,66,0
36945,note_on,0,0,0,,,,,,,,,15,,62,0
36945,note_on,0,0,0,,,,,,,,,6,,62,0
36945,note_on,0,0,0,,,,,,,,,14,,47,0
36945,note_on,0,0,0,,,,,,,,,10,,35,0
36945,note_on,0,0,0,,,,,,,,,8,,47,0
36945,note_on,0,0,0,,,,,,,,,15,,71,0
36945,note_on,0,0,0,,,,,,,,,0,,47,0
36945,note_on,0,0,0,,,,,,,,,15,,47,0
36960,note_on,15,0,0,,,,,,,,,0,,74,100
36960,note_on,0,0,0,,,,,,,,,5,,74,100
36960,note_on,0,0,0,,,,,,,,,6,,59,100
36960,note_on,0,0,0,,,,,,,,,13,,74,100
36960,note_on,0,0,0,,,,,,,,,15,,62,100
36960,note_on,0,0,0,,,,,,,,,15,,68,100
36960,note_on,0,0,0,,,,,,,,,15,,71,100
36990,note_on,30,0,0,,,,,,,,,13,,74,0
36990,note_on,0,0,0,,,,,,,,,5,,74,0
36990,note_on,0,0,0,,,,,,,,,0,,74,0
36990,note_on,0,0,0,,,,,,,,,0,,76,100
36990,note_on,0,0,0,,,,,,,,,5,,76,100
36990,note_on,0,0,0,,,,,,,,,13,,76,100
37020,note_on,30,0,0,,,,,,,,,13,,76,0
37020,note_on,0,0,0,,,,,,,,,5,,76,0
37020,note_on,0,0,0,,,,,,,,,0,,76,0
37020,note_on,0,0,0,,,,,,,,,0,,47,100
37020,note_on,0,0,0,,,,,,,,,0,,74,100
37020,note_on,0,0,0,,,,,,,,,5,,74,100
37020,note_on,0,0,0,,,,,,,,,8,,47,100
37020,note_on,0,0,0,,,,,,,,,10,,35,100
37020,note_on,0,0,0,,,,,,,,,13,,74,100
37020,note_on,0,0,0,,,,,,,,,14,,47,100
37020,note_on,0,0,0,,,,,,,,,15,,47,100
37050,note_on,30,0,0,,,,,,,,,13,,74,0
37050,note_on,0,0,0,,,,,,,,,5,,74,0
37050,note_on,0,0,0,,,,,,,,,0,,74,0
37050,note_on,0,0,0,,,,,,,,,0,,47,0
37050,note_on,0,0,0,,,,,,,,,7,,66,0
37065,note_on,15,0,0,,,,,,,,,15,,71,0
37065,note_on,0,0,0,,,,,,,,,15,,62,0
37065,note_on,0,0,0,,,,,,,,,10,,35,0
37065,note_on,0,0,0,,,,,,,,,15,,47,0
37065,note_on,0,0,0,,,,,,,,,14,,47,0
37065,note_on,0,0,0,,,,,,,,,8,,47,0
37065,note_on,0,0,0,,,,,,,,,6,,59,0
37065,note_on,0,0,0,,,,,,,,,15,,68,0
37080,note_on,15,0,0,,,,,,,,,0,,52,100
37080,note_on,0,0,0,,,,,,,,,0,,68,100
37080,note_on,0,0,0,,,,,,,,,5,,68,100
37080,note_on,0,0,0,,,,,,,,,6,,71,100
37080,note_on,0,0,0,,,,,,,,,7,,68,100
37080,note_on,0,0,0,,,,,,,,,8,,52,100
37080,note_on,0,0,0,,,,,,,,,10,,40,100
37080,note_on,0,0,0,,,,,,,,,13,,68,100
37080,note_on,0,0,0,,,,,,,,,13,,71,100
37080,note_on,0,0,0,,,,,,,,,14,,52,100
37080,note_on,0,0,0,,,,,,,,,15,,64,100
37080,note_on,0,0,0,,,,,,,,,15,,68,100
37080,note_on,0,0,0,,,,,,,,,15,,71,100
37080,note_on,0,0,0,,,,,,,,,15,,52,100
37110,note_on,30,0,0,,,,,,,,,15,,52,0
37110,note_on,0,0,0,,,,,,,,,0,,52,0
37110,note_on,0,0,0,,,,,,,,,10,,40,0
37110,note_on,0,0,0,,,,,,,,,14,,52,0
37110,note_on,0,0,0,,,,,,,,,8,,52,0
37140,note_on,30,0,0,,,,,,,,,0,,40,100
37140,note_on,0,0,0,,,,,,,,,8,,40,100
37140,note_on,0,0,0,,,,,,,,,10,,28,100
37140,note_on,0,0,0,,,,,,,,,14,,40,100
37140,note_on,0,0,0,,,,,,,,,15,,40,100
37170,note_on,30,0,0,,,,,,,,,15,,40,0
37170,note_on,0,0,0,,,,,,,,,0,,40,0
37170,note_on,0,0,0,,,,,,,,,14,,40,0
37170,note_on,0,0,0,,,,,,,,,8,,40,0
37170,note_on,0,0,0,,,,,,,,,10,,28,0
37185,note_on,15,0,0,,,,,,,,,15,,64,0
37185,note_on,0,0,0,,,,,,,,,6,,71,0
37185,note_on,0,0,0,,,,,,,,,5,,68,0
37185,note_on,0,0,0,,,,,,,,,15,,71,0
37185,note_on,0,0,0,,,,,,,,,13,,71,0
37185,note_on,0,0,0,,,,,,,,,15,,68,0
37185,note_on,0,0,0,,,,,,,,,0,,68,0
37185,note_on,0,0,0,,,,,,,,,13,,68,0
37200,note_on,15,0,0,,,,,,,,,0,,52,100
37200,note_on,0,0,0,,,,,,,,,6,,68,100
37200,note_on,0,0,0,,,,,,,,,8,,52,100
37200,note_on,0,0,0,,,,,,,,,10,,40,100
37200,note_on,0,0,0,,,,,,,,,13,,68,100
37200,note_on,0,0,0,,,,,,,,,14,,52,100
37200,note_on,0,0,0,,,,,,,,,15,,62,100
37200,note_on,0,0,0,,,,,,,,,15,,64,100
37200,note_on,0,0,0,,,,,,,,,15,,71,100
37200,note_on,0,0,0,,,,,,,,,15,,52,100
37260,note_on,60,0,0,,,,,,,,,0,,71,100
37260,note_on,0,0,0,,,,,,,,,5,,71,100
37260,note_on,0,0,0,,,,,,,,,13,,71,100
37290,note_on,30,0,0,,,,,,,,,13,,71,0
37290,note_on,0,0,0,,,,,,,,,5,,71,0
37290,note_on,0,0,0,,,,,,,,,7,,68,0
37290,note_on,0,0,0,,,,,,,,,0,,71,0
37305,note_on,15,0,0,,,,,,,,,15,,64,0
37305,note_on,0,0,0,,,,,,,,,8,,52,0
37305,note_on,0,0,0,,,,,,,,,10,,40,0
37305,note_on,0,0,0,,,,,,,,,0,,52,0
37305,note_on,0,0,0,,,,,,,,,14,,52,0
37305,note_on,0,0,0,,,,,,,,,13,,68,0
37305,note_on,0,0,0,,,,,,,,,15,,71,0
37305,note_on,0,0,0,,,,,,,,,15,,62,0
37305,note_on,0,0,0,,,,,,,,,6,,68,0
37305,note_on,0,0,0,,,,,,,,,15,,52,0
37320,note_on,15,0,0,,,,,,,,,0,,49,100
37320,note_on,0,0,0,,,,,,,,,0,,73,100
37320,note_on,0,0,0,,,,,,,,,5,,73,100
37320,note_on,0,0,0,,,,,,,,,6,,64,100
37320,note_on,0,0,0,,,,,,,,,7,,68,100
37320,note_on,0,0,0,,,,,,,,,8,,49,100
37320,note_on,0,0,0,,,,,,,,,10,,37,100
37320,note_on,0,0,0,,,,,,,,,13,,64,100
37320,note_on,0,0,0,,,,,,,,,13,,73,100
37320,note_on,0,0,0,,,,,,,,,14,,49,100
37320,note_on,0,0,0,,,,,,,,,15,,64,100
37320,note_on,0,0,0,,,,,,,,,15,,73,100
37320,note_on,0,0,0,,,,,,,,,15,,69,100
37320,note_on,0,0,0,,,,,,,,,15,,49,100
37350,note_on,30,0,0,,,,,,,,,13,,73,0
37350,note_on,0,0,0,,,,,,,,,5,,73,0
37350,note_on,0,0,0,,,,,,,,,0,,73,0
37380,note_on,30,0,0,,,,,,,,,0,,74,100
37380,note_on,0,0,0,,,,,,,,,5,,74,100
37380,note_on,0,0,0,,,,,,,,,13,,74,100
37410,note_on,30,0,0,,,,,,,,,13,,74,0
37410,note_on,0,0,0,,,,,,,,,5,,74,0
37410,note_on,0,0,0,,,,,,,,,0,,74,0
37425,note_on,15,0,0,,,,,,,,,15,,69,0
37425,note_on,0,0,0,,,,,,,,,14,,49,0
37425,note_on,0,0,0,,,,,,,,,10,,37,0
37425,note_on,0,0,0,,,,,,,,,6,,64,0
37425,note_on,0,0,0,,,,,,,,,13,,64,0
37425,note_on,0,0,0,,,,,,,,,15,,49,0
37425,note_on,0,0,0,,,,,,,,,8,,49,0
37425,note_on,0,0,0,,,,,,,,,15,,64,0
37425,note_on,0,0,0,,,,,,,,,0,,49,0
37425,note_on,0,0,0,,,,,,,,,15,,73,0
37440,note_on,15,0,0,,,,,,,,,0,,76,100
37440,note_on,0,0,0,,,,,,,,,5,,76,100
37440,note_on,0,0,0,,,,,,,,,6,,61,100
37440,note_on,0,0,0,,,,,,,,,13,,76,100
37440,note_on,0,0,0,,,,,,,,,15,,57,100
37440,note_on,0,0,0,,,,,,,,,15,,64,100
37440,note_on,0,0,0,,,,,,,,,15,,69,100
37470,note_on,30,0,0,,,,,,,,,13,,76,0
37470,note_on,0,0,0,,,,,,,,,5,,76,0
37470,note_on,0,0,0,,,,,,,,,0,,76,0
37470,note_on,0,0,0,,,,,,,,,0,,78,100
37470,note_on,0,0,0,,,,,,,,,5,,78,100
37470,note_on,0,0,0,,,,,,,,,13,,78,100
37485,note_on,15,0,0,,,,,,,,,5,,76,100
37500,note_on,15,0,0,,,,,,,,,13,,78,0
37500,note_on,0,0,0,,,,,,,,,5,,78,0
37500,note_on,0,0,0,,,,,,,,,0,,78,0
37500,note_on,0,0,0,,,,,,,,,0,,76,100
37500,note_on,0,0,0,,,,,,,,,0,,49,100
37500,note_on,0,0,0,,,,,,,,,8,,49,100
37500,note_on,0,0,0,,,,,,,,,10,,37,100
37500,note_on,0,0,0,,,,,,,,,13,,76,100
37500,note_on,0,0,0,,,,,,,,,14,,49,100
37500,note_on,0,0,0,,,,,,,,,15,,49,100
37515,note_on,15,0,0,,,,,,,,,5,,76,0
37530,note_on,15,0,0,,,,,,,,,0,,76,0
37530,note_on,0,0,0,,,,,,,,,13,,76,0
37530,note_on,0,0,0,,,,,,,,,8,,49,0
37530,note_on,0,0,0,,,,,,,,,0,,49,0
37530,note_on,0,0,0,,,,,,,,,10,,37,0
37530,note_on,0,0,0,,,,,,,,,15,,49,0
37530,note_on,0,0,0,,,,,,,,,7,,68,0
37530,note_on,0,0,0,,,,,,,,,14,,49,0
37545,note_on,15,0,0,,,,,,,,,6,,61,0
37545,note_on,0,0,0,,,,,,,,,15,,64,0
37545,note_on,0,0,0,,,,,,,,,15,,57,0
37545,note_on,0,0,0,,,,,,,,,15,,69,0
37560,note_on,15,0,0,,,,,,,,,0,,69,100
37560,note_on,0,0,0,,,,,,,,,0,,54,100
37560,note_on,0,0,0,,,,,,,,,5,,69,100
37560,note_on,0,0,0,,,,,,,,,6,,73,100
37560,note_on,0,0,0,,,,,,,,,7,,69,100
37560,note_on,0,0,0,,,,,,,,,8,,54,100
37560,note_on,0,0,0,,,,,,,,,10,,42,100
37560,note_on,0,0,0,,,,,,,,,13,,69,100
37560,note_on,0,0,0,,,,,,,,,13,,73,100
37560,note_on,0,0,0,,,,,,,,,14,,54,100
37560,note_on,0,0,0,,,,,,,,,15,,57,100
37560,note_on,0,0,0,,,,,,,,,15,,61,100
37560,note_on,0,0,0,,,,,,,,,15,,69,100
37560,note_on,0,0,0,,,,,,,,,15,,54,100
37590,note_on,30,0,0,,,,,,,,,15,,54,0
37590,note_on,0,0,0,,,,,,,,,0,,54,0
37590,note_on,0,0,0,,,,,,,,,10,,42,0
37590,note_on,0,0,0,,,,,,,,,14,,54,0
37590,note_on,0,0,0,,,,,,,,,8,,54,0
37620,note_on,30,0,0,,,,,,,,,0,,42,100
37620,note_on,0,0,0,,,,,,,,,8,,42,100
37620,note_on,0,0,0,,,,,,,,,10,,30,100
37620,note_on,0,0,0,,,,,,,,,14,,42,100
37620,note_on,0,0,0,,,,,,,,,15,,42,100
37650,note_on,30,0,0,,,,,,,,,15,,42,0
37650,note_on,0,0,0,,,,,,,,,0,,42,0
37650,note_on,0,0,0,,,,,,,,,14,,42,0
37650,note_on,0,0,0,,,,,,,,,8,,42,0
37650,note_on,0,0,0,,,,,,,,,10,,30,0
37665,note_on,15,0,0,,,,,,,,,15,,57,0
37665,note_on,0,0,0,,,,,,,,,6,,73,0
37665,note_on,0,0,0,,,,,,,,,5,,69,0
37665,note_on,0,0,0,,,,,,,,,15,,69,0
37665,note_on,0,0,0,,,,,,,,,13,,73,0
37665,note_on,0,0,0,,,,,,,,,15,,61,0
37665,note_on,0,0,0,,,,,,,,,0,,69,0
37665,note_on,0,0,0,,,,,,,,,13,,69,0
37680,note_on,15,0,0,,,,,,,,,0,,54,100
37680,note_on,0,0,0,,,,,,,,,6,,69,100
37680,note_on,0,0,0,,,,,,,,,8,,54,100
37680,note_on,0,0,0,,,,,,,,,10,,42,100
37680,note_on,0,0,0,,,,,,,,,13,,69,100
37680,note_on,0,0,0,,,,,,,,,14,,54,100
37680,note_on,0,0,0,,,,,,,,,15,,57,100
37680,note_on,0,0,0,,,,,,,,,15,,61,100
37680,note_on,0,0,0,,,,,,,,,15,,69,100
37680,note_on,0,0,0,,,,,,,,,15,,54,100
37740,note_on,60,0,0,,,,,,,,,0,,73,100
37740,note_on,0,0,0,,,,,,,,,5,,73,100
37740,note_on,0,0,0,,,,,,,,,13,,73,100
37770,note_on,30,0,0,,,,,,,,,13,,73,0
37770,note_on,0,0,0,,,,,,,,,5,,73,0
37770,note_on,0,0,0,,,,,,,,,7,,69,0
37770,note_on,0,0,0,,,,,,,,,0,,73,0
37785,note_on,15,0,0,,,,,,,,,15,,61,0
37785,note_on,0,0,0,,,,,,,,,8,,54,0
37785,note_on,0,0,0,,,,,,,,,10,,42,0
37785,note_on,0,0,0,,,,,,,,,0,,54,0
37785,note_on,0,0,0,,,,,,,,,14,,54,0
37785,note_on,0,0,0,,,,,,,,,13,,69,0
37785,note_on,0,0,0,,,,,,,,,15,,69,0
37785,note_on,0,0,0,,,,,,,,,15,,57,0
37785,note_on,0,0,0,,,,,,,,,6,,69,0
37785,note_on,0,0,0,,,,,,,,,15,,54,0
37800,note_on,15,0,0,,,,,,,,,0,,74,100
37800,note_on,0,0,0,,,,,,,,,0,,50,100
37800,note_on,0,0,0,,,,,,,,,5,,74,100
37800,note_on,0,0,0,,,,,,,,,6,,66,100
37800,note_on,0,0,0,,,,,,,,,7,,69,100
37800,note_on,0,0,0,,,,,,,,,8,,50,100
37800,note_on,0,0,0,,,,,,,,,10,,38,100
37800,note_on,0,0,0,,,,,,,,,13,,66,100
37800,note_on,0,0,0,,,,,,,,,13,,74,100
37800,note_on,0,0,0,,,,,,,,,14,,50,100
37800,note_on,0,0,0,,,,,,,,,15,,62,100
37800,note_on,0,0,0,,,,,,,,,15,,66,100
37800,note_on,0,0,0,,,,,,,,,15,,69,100
37800,note_on,0,0,0,,,,,,,,,15,,50,100
37830,note_on,30,0,0,,,,,,,,,13,,74,0
37830,note_on,0,0,0,,,,,,,,,5,,74,0
37830,note_on,0,0,0,,,,,,,,,0,,74,0
37860,note_on,30,0,0,,,,,,,,,0,,76,100
37860,note_on,0,0,0,,,,,,,,,5,,76,100
37860,note_on,0,0,0,,,,,,,,,13,,76,100
37890,note_on,30,0,0,,,,,,,,,13,,76,0
37890,note_on,0,0,0,,,,,,,,,5,,76,0
37890,note_on,0,0,0,,,,,,,,,0,,76,0
37905,note_on,15,0,0,,,,,,,,,15,,69,0
37905,note_on,0,0,0,,,,,,,,,14,,50,0
37905,note_on,0,0,0,,,,,,,,,10,,38,0
37905,note_on,0,0,0,,,,,,,,,6,,66,0
37905,note_on,0,0,0,,,,,,,,,13,,66,0
37905,note_on,0,0,0,,,,,,,,,15,,50,0
37905,note_on,0,0,0,,,,,,,,,8,,50,0
37905,note_on,0,0,0,,,,,,,,,15,,62,0
37905,note_on,0,0,0,,,,,,,,,0,,50,0
37905,note_on,0,0,0,,,,,,,,,15,,66,0
37920,note_on,15,0,0,,,,,,,,,0,,78,100
37920,note_on,0,0,0,,,,,,,,,5,,78,100
37920,note_on,0,0,0,,,,,,,,,6,,62,100
37920,note_on,0,0,0,,,,,,,,,13,,62,100
37920,note_on,0,0,0,,,,,,,,,13,,78,100
37920,note_on,0,0,0,,,,,,,,,15,,66,100
37920,note_on,0,0,0,,,,,,,,,15,,69,100
37920,note_on,0,0,0,,,,,,,,,15,,62,100
37950,note_on,30,0,0,,,,,,,,,13,,78,0
37950,note_on,0,0,0,,,,,,,,,5,,78,0
37950,note_on,0,0,0,,,,,,,,,0,,78,0
37950,note_on,0,0,0,,,,,,,,,0,,80,100
37950,note_on,0,0,0,,,,,,,,,5,,80,100
37950,note_on,0,0,0,,,,,,,,,13,,80,100
37980,note_on,30,0,0,,,,,,,,,13,,80,0
37980,note_on,0,0,0,,,,,,,,,5,,80,0
37980,note_on,0,0,0,,,,,,,,,0,,80,0
37980,note_on,0,0,0,,,,,,,,,0,,78,100
37980,note_on,0,0,0,,,,,,,,,0,,50,100
37980,note_on,0,0,0,,,,,,,,,5,,78,100
37980,note_on,0,0,0,,,,,,,,,8,,50,100
37980,note_on,0,0,0,,,,,,,,,10,,38,100
37980,note_on,0,0,0,,,,,,,,,13,,78,100
37980,note_on,0,0,0,,,,,,,,,14,,50,100
37980,note_on,0,0,0,,,,,,,,,15,,50,100
38010,note_on,30,0,0,,,,,,,,,15,,50,0
38010,note_on,0,0,0,,,,,,,,,8,,50,0
38010,note_on,0,0,0,,,,,,,,,7,,69,0
38010,note_on,0,0,0,,,,,,,,,0,,78,0
38010,note_on,0,0,0,,,,,,,,,5,,78,0
38010,note_on,0,0,0,,,,,,,,,0,,50,0
38010,note_on,0,0,0,,,,,,,,,14,,50,0
38010,note_on,0,0,0,,,,,,,,,10,,38,0
38010,note_on,0,0,0,,,,,,,,,13,,78,0
38025,note_on,15,0,0,,,,,,,,,15,,62,0
38025,note_on,0,0,0,,,,,,,,,15,,69,0
38025,note_on,0,0,0,,,,,,,,,6,,62,0
38025,note_on,0,0,0,,,,,,,,,15,,66,0
38025,note_on,0,0,0,,,,,,,,,13,,62,0
38040,note_on,15,0,0,,,,,,,,,0,,54,100
38040,note_on,0,0,0,,,,,,,,,0,,69,100
38040,note_on,0,0,0,,,,,,,,,5,,69,100
38040,note_on,0,0,0,,,,,,,,,6,,74,100
38040,note_on,0,0,0,,,,,,,,,7,,69,100
38040,note_on,0,0,0,,,,,,,,,8,,54,100
38040,note_on,0,0,0,,,,,,,,,10,,42,100
38040,note_on,0,0,0,,,,,,,,,13,,74,100
38040,note_on,0,0,0,,,,,,,,,13,,69,100
38040,note_on,0,0,0,,,,,,,,,14,,54,100
38040,note_on,0,0,0,,,,,,,,,15,,57,100
38040,note_on,0,0,0,,,,,,,,,15,,69,100
38040,note_on,0,0,0,,,,,,,,,15,,62,100
38040,note_on,0,0,0,,,,,,,,,15,,54,100
38070,note_on,30,0,0,,,,,,,,,15,,54,0
38070,note_on,0,0,0,,,,,,,,,5,,69,0
38070,note_on,0,0,0,,,,,,,,,13,,69,0
38070,note_on,0,0,0,,,,,,,,,0,,54,0
38070,note_on,0,0,0,,,,,,,,,10,,42,0
38070,note_on,0,0,0,,,,,,,,,14,,54,0
38070,note_on,0,0,0,,,,,,,,,0,,69,0
38070,note_on,0,0,0,,,,,,,,,8,,54,0
38100,note_on,30,0,0,,,,,,,,,0,,50,100
38100,note_on,0,0,0,,,,,,,,,0,,78,100
38100,note_on,0,0,0,,,,,,,,,5,,78,100
38100,note_on,0,0,0,,,,,,,,,8,,50,100
38100,note_on,0,0,0,,,,,,,,,10,,38,100
38100,note_on,0,0,0,,,,,,,,,13,,78,100
38100,note_on,0,0,0,,,,,,,,,14,,50,100
38100,note_on,0,0,0,,,,,,,,,15,,50,100
38130,note_on,30,0,0,,,,,,,,,15,,50,0
38130,note_on,0,0,0,,,,,,,,,8,,50,0
38130,note_on,0,0,0,,,,,,,,,0,,50,0
38130,note_on,0,0,0,,,,,,,,,5,,78,0
38130,note_on,0,0,0,,,,,,,,,0,,78,0
38130,note_on,0,0,0,,,,,,,,,14,,50,0
38130,note_on,0,0,0,,,,,,,,,10,,38,0
38130,note_on,0,0,0,,,,,,,,,13,,78,0
38145,note_on,15,0,0,,,,,,,,,15,,57,0
38145,note_on,0,0,0,,,,,,,,,15,,69,0
38145,note_on,0,0,0,,,,,,,,,7,,69,0
38145,note_on,0,0,0,,,,,,,,,6,,74,0
38145,note_on,0,0,0,,,,,,,,,15,,62,0
38145,note_on,0,0,0,,,,,,,,,13,,74,0
38160,note_on,15,0,0,,,,,,,,,0,,57,100
38160,note_on,0,0,0,,,,,,,,,0,,76,100
38160,note_on,0,0,0,,,,,,,,,5,,76,100
38160,note_on,0,0,0,,,,,,,,,6,,73,100
38160,note_on,0,0,0,,,,,,,,,7,,69,100
38160,note_on,0,0,0,,,,,,,,,8,,57,100
38160,note_on,0,0,0,,,,,,,,,10,,45,100
38160,note_on,0,0,0,,,,,,,,,13,,73,100
38160,note_on,0,0,0,,,,,,,,,13,,76,100
38160,note_on,0,0,0,,,,,,,,,14,,57,100
38160,note_on,0,0,0,,,,,,,,,15,,61,100
38160,note_on,0,0,0,,,,,,,,,15,,64,100
38160,note_on,0,0,0,,,,,,,,,15,,69,100
38160,note_on,0,0,0,,,,,,,,,15,,57,100
38190,note_on,30,0,0,,,,,,,,,13,,76,0
38190,note_on,0,0,0,,,,,,,,,13,,73,0
38190,note_on,0,0,0,,,,,,,,,6,,73,0
38190,note_on,0,0,0,,,,,,,,,5,,76,0
38190,note_on,0,0,0,,,,,,,,,0,,76,0
38190,note_on,0,0,0,,,,,,,,,0,,78,100
38190,note_on,0,0,0,,,,,,,,,5,,78,100
38190,note_on,0,0,0,,,,,,,,,6,,74,100
38190,note_on,0,0,0,,,,,,,,,13,,74,100
38190,note_on,0,0,0,,,,,,,,,13,,78,100
38220,note_on,30,0,0,,,,,,,,,13,,78,0
38220,note_on,0,0,0,,,,,,,,,0,,78,0
38220,note_on,0,0,0,,,,,,,,,13,,74,0
38220,note_on,0,0,0,,,,,,,,,5,,78,0
38220,note_on,0,0,0,,,,,,,,,6,,74,0
38220,note_on,0,0,0,,,,,,,,,0,,76,100
38220,note_on,0,0,0,,,,,,,,,5,,76,100
38220,note_on,0,0,0,,,,,,,,,6,,73,100
38220,note_on,0,0,0,,,,,,,,,13,,73,100
38220,note_on,0,0,0,,,,,,,,,13,,76,100
38250,note_on,30,0,0,,,,,,,,,13,,76,0
38250,note_on,0,0,0,,,,,,,,,0,,76,0
38250,note_on,0,0,0,,,,,,,,,13,,73,0
38250,note_on,0,0,0,,,,,,,,,5,,76,0
38250,note_on,0,0,0,,,,,,,,,6,,73,0
38265,note_on,15,0,0,,,,,,,,,7,,69,0
38265,note_on,0,0,0,,,,,,,,,10,,45,0
38265,note_on,0,0,0,,,,,,,,,0,,57,0
38265,note_on,0,0,0,,,,,,,,,14,,57,0
38265,note_on,0,0,0,,,,,,,,,8,,57,0
38265,note_on,0,0,0,,,,,,,,,15,,61,0
38265,note_on,0,0,0,,,,,,,,,15,,64,0
38265,note_on,0,0,0,,,,,,,,,15,,57,0
38265,note_on,0,0,0,,,,,,,,,15,,69,0
38278,control_change,13,0,0,,,,,,,11,124,13,,,
38280,note_on,2,0,0,,,,,,,,,0,,49,100
38280,note_on,0,0,0,,,,,,,,,0,,81,100
38280,note_on,0,0,0,,,,,,,,,5,,81,100
38280,note_on,0,0,0,,,,,,,,,6,,76,100
38280,note_on,0,0,0,,,,,,,,,7,,64,100
38280,note_on,0,0,0,,,,,,,,,8,,49,100
38280,note_on,0,0,0,,,,,,,,,10,,37,100
38280,control_change,0,0,0,,,,,,,11,125,13,,,
38280,note_on,0,0,0,,,,,,,,,13,,76,100
38280,note_on,0,0,0,,,,,,,,,14,,49,100
38280,note_on,0,0,0,,,,,,,,,15,,57,100
38280,note_on,0,0,0,,,,,,,,,15,,64,100
38280,note_on,0,0,0,,,,,,,,,15,,69,100
38280,note_on,0,0,0,,,,,,,,,15,,49,100
38310,note_on,30,0,0,,,,,,,,,15,,49,0
38310,note_on,0,0,0,,,,,,,,,0,,81,0
38310,note_on,0,0,0,,,,,,,,,13,,76,0
38310,note_on,0,0,0,,,,,,,,,10,,37,0
38310,note_on,0,0,0,,,,,,,,,0,,49,0
38310,note_on,0,0,0,,,,,,,,,5,,81,0
38310,note_on,0,0,0,,,,,,,,,14,,49,0
38310,note_on,0,0,0,,,,,,,,,6,,76,0
38310,note_on,0,0,0,,,,,,,,,8,,49,0
38310,note_on,0,0,0,,,,,,,,,0,,83,100
38310,note_on,0,0,0,,,,,,,,,5,,83,100
38340,note_on,30,0,0,,,,,,,,,5,,83,0
38340,note_on,0,0,0,,,,,,,,,0,,83,0
38340,note_on,0,0,0,,,,,,,,,0,,61,100
38340,note_on,0,0,0,,,,,,,,,0,,81,100
38340,note_on,0,0,0,,,,,,,,,5,,81,100
38340,note_on,0,0,0,,,,,,,,,6,,81,100
38340,note_on,0,0,0,,,,,,,,,8,,61,100
38340,note_on,0,0,0,,,,,,,,,10,,49,100
38340,note_on,0,0,0,,,,,,,,,13,,81,100
38340,note_on,0,0,0,,,,,,,,,14,,61,100
38340,note_on,0,0,0,,,,,,,,,15,,61,100
38370,note_on,30,0,0,,,,,,,,,15,,61,0
38370,note_on,0,0,0,,,,,,,,,0,,81,0
38370,note_on,0,0,0,,,,,,,,,8,,61,0
38370,note_on,0,0,0,,,,,,,,,5,,81,0
38370,note_on,0,0,0,,,,,,,,,14,,61,0
38370,note_on,0,0,0,,,,,,,,,10,,49,0
38370,note_on,0,0,0,,,,,,,,,0,,61,0
38385,note_on,15,0,0,,,,,,,,,15,,57,0
38385,note_on,0,0,0,,,,,,,,,7,,64,0
38385,note_on,0,0,0,,,,,,,,,15,,69,0
38385,note_on,0,0,0,,,,,,,,,15,,64,0
38400,note_on,15,0,0,,,,,,,,,0,,59,100
38400,note_on,0,0,0,,,,,,,,,0,,86,100
38400,note_on,0,0,0,,,,,,,,,5,,86,100
38400,note_on,0,0,0,,,,,,,,,7,,66,100
38400,note_on,0,0,0,,,,,,,,,8,,59,100
38400,note_on,0,0,0,,,,,,,,,10,,47,100
38400,note_on,0,0,0,,,,,,,,,14,,59,100
38400,note_on,0,0,0,,,,,,,,,15,,62,100
38400,note_on,0,0,0,,,,,,,,,15,,66,100
38400,note_on,0,0,0,,,,,,,,,15,,69,100
38400,note_on,0,0,0,,,,,,,,,15,,59,100
38430,note_on,30,0,0,,,,,,,,,15,,59,0
38430,note_on,0,0,0,,,,,,,,,10,,47,0
38430,note_on,0,0,0,,,,,,,,,8,,59,0
38430,note_on,0,0,0,,,,,,,,,0,,86,0
38430,note_on,0,0,0,,,,,,,,,0,,59,0
38430,note_on,0,0,0,,,,,,,,,14,,59,0
38430,note_on,0,0,0,,,,,,,,,7,,66,0
38430,note_on,0,0,0,,,,,,,,,5,,86,0
38430,note_on,0,0,0,,,,,,,,,0,,85,100
38430,note_on,0,0,0,,,,,,,,,5,,85,100
38460,note_on,30,0,0,,,,,,,,,5,,85,0
38460,note_on,0,0,0,,,,,,,,,6,,81,0
38460,note_on,0,0,0,,,,,,,,,13,,81,0
38460,note_on,0,0,0,,,,,,,,,0,,85,0
38460,note_on,0,0,0,,,,,,,,,0,,52,100
38460,note_on,0,0,0,,,,,,,,,0,,86,100
38460,note_on,0,0,0,,,,,,,,,5,,86,100
38460,note_on,0,0,0,,,,,,,,,6,,80,100
38460,note_on,0,0,0,,,,,,,,,7,,64,100
38460,note_on,0,0,0,,,,,,,,,8,,52,100
38460,note_on,0,0,0,,,,,,,,,10,,40,100
38460,note_on,0,0,0,,,,,,,,,13,,80,100
38460,note_on,0,0,0,,,,,,,,,14,,52,100
38460,note_on,0,0,0,,,,,,,,,15,,52,100
38490,note_on,30,0,0,,,,,,,,,15,,52,0
38490,note_on,0,0,0,,,,,,,,,5,,86,0
38490,note_on,0,0,0,,,,,,,,,10,,40,0
38490,note_on,0,0,0,,,,,,,,,7,,64,0
38490,note_on,0,0,0,,,,,,,,,6,,80,0
38490,note_on,0,0,0,,,,,,,,,0,,52,0
38490,note_on,0,0,0,,,,,,,,,8,,52,0
38490,note_on,0,0,0,,,,,,,,,0,,86,0
38490,note_on,0,0,0,,,,,,,,,13,,80,0
38490,note_on,0,0,0,,,,,,,,,14,,52,0
38505,note_on,15,0,0,,,,,,,,,15,,69,0
38505,note_on,0,0,0,,,,,,,,,15,,66,0
38520,note_on,15,0,0,,,,,,,,,0,,56,100
38520,note_on,0,0,0,,,,,,,,,0,,76,100
38520,note_on,0,0,0,,,,,,,,,5,,76,100
38520,note_on,0,0,0,,,,,,,,,6,,76,100
38520,note_on,0,0,0,,,,,,,,,7,,71,100
38520,note_on,0,0,0,,,,,,,,,8,,56,100
38520,note_on,0,0,0,,,,,,,,,10,,44,100
38520,note_on,0,0,0,,,,,,,,,13,,76,100
38520,note_on,0,0,0,,,,,,,,,14,,56,100
38520,note_on,0,0,0,,,,,,,,,15,,68,100
38520,note_on,0,0,0,,,,,,,,,15,,64,100
38520,note_on,0,0,0,,,,,,,,,15,,56,100
38550,note_on,30,0,0,,,,,,,,,15,,56,0
38550,note_on,0,0,0,,,,,,,,,0,,56,0
38550,note_on,0,0,0,,,,,,,,,13,,76,0
38550,note_on,0,0,0,,,,,,,,,8,,56,0
38550,note_on,0,0,0,,,,,,,,,0,,76,0
38550,note_on,0,0,0,,,,,,,,,5,,76,0
38550,note_on,0,0,0,,,,,,,,,10,,44,0
38550,note_on,0,0,0,,,,,,,,,6,,76,0
38550,note_on,0,0,0,,,,,,,,,7,,71,0
38550,note_on,0,0,0,,,,,,,,,14,,56,0
38580,note_on,30,0,0,,,,,,,,,0,,52,100
38580,note_on,0,0,0,,,,,,,,,0,,86,100
38580,note_on,0,0,0,,,,,,,,,5,,86,100
38580,note_on,0,0,0,,,,,,,,,6,,80,100
38580,note_on,0,0,0,,,,,,,,,7,,64,100
38580,note_on,0,0,0,,,,,,,,,8,,52,100
38580,note_on,0,0,0,,,,,,,,,10,,40,100
38580,note_on,0,0,0,,,,,,,,,13,,80,100
38580,note_on,0,0,0,,,,,,,,,14,,52,100
38580,note_on,0,0,0,,,,,,,,,15,,52,100
38610,note_on,30,0,0,,,,,,,,,15,,52,0
38610,note_on,0,0,0,,,,,,,,,5,,86,0
38610,note_on,0,0,0,,,,,,,,,10,,40,0
38610,note_on,0,0,0,,,,,,,,,7,,64,0
38610,note_on,0,0,0,,,,,,,,,6,,80,0
38610,note_on,0,0,0,,,,,,,,,0,,52,0
38610,note_on,0,0,0,,,,,,,,,8,,52,0
38610,note_on,0,0,0,,,,,,,,,0,,86,0
38610,note_on,0,0,0,,,,,,,,,13,,80,0
38610,note_on,0,0,0,,,,,,,,,14,,52,0
38620,note_on,10,0,0,,,,,,,,,15,,62,0
38625,note_on,5,0,0,,,,,,,,,15,,64,0
38625,note_on,0,0,0,,,,,,,,,15,,68,0
38640,note_on,15,0,0,,,,,,,,,0,,85,100
38640,note_on,0,0,0,,,,,,,,,0,,57,100
38640,note_on,0,0,0,,,,,,,,,5,,85,100
38640,note_on,0,0,0,,,,,,,,,6,,81,100
38640,note_on,0,0,0,,,,,,,,,7,,64,100
38640,note_on,0,0,0,,,,,,,,,8,,57,100
38640,note_on,0,0,0,,,,,,,,,10,,45,100
38640,note_on,0,0,0,,,,,,,,,13,,81,100
38640,note_on,0,0,0,,,,,,,,,14,,57,100
38640,note_on,0,0,0,,,,,,,,,15,,64,100
38640,note_on,0,0,0,,,,,,,,,15,,69,100
38640,note_on,0,0,0,,,,,,,,,15,,61,100
38640,note_on,0,0,0,,,,,,,,,15,,57,100
38670,note_on,30,0,0,,,,,,,,,7,,64,0
38670,note_on,0,0,0,,,,,,,,,6,,81,0
38700,note_on,30,0,0,,,,,,,,,6,,69,100
38700,note_on,0,0,0,,,,,,,,,7,,69,100
38700,note_on,0,0,0,,,,,,,,,13,,69,100
38730,note_on,30,0,0,,,,,,,,,13,,69,0
38730,note_on,0,0,0,,,,,,,,,7,,69,0
38730,note_on,0,0,0,,,,,,,,,6,,69,0
38745,note_on,15,0,0,,,,,,,,,15,,61,0
38745,note_on,0,0,0,,,,,,,,,15,,64,0
38745,note_on,0,0,0,,,,,,,,,5,,85,0
38745,note_on,0,0,0,,,,,,,,,13,,81,0
38745,note_on,0,0,0,,,,,,,,,0,,85,0
38745,note_on,0,0,0,,,,,,,,,8,,57,0
38745,note_on,0,0,0,,,,,,,,,0,,57,0
38745,note_on,0,0,0,,,,,,,,,15,,69,0
38745,note_on,0,0,0,,,,,,,,,14,,57,0
38745,note_on,0,0,0,,,,,,,,,15,,57,0
38745,note_on,0,0,0,,,,,,,,,10,,45,0
38760,note_on,15,0,0,,,,,,,,,6,,73,100
38760,note_on,0,0,0,,,,,,,,,7,,64,100
38790,note_on,30,0,0,,,,,,,,,7,,64,0
38790,note_on,0,0,0,,,,,,,,,6,,73,0
38820,note_on,30,0,0,,,,,,,,,6,,74,100
38820,note_on,0,0,0,,,,,,,,,7,,62,100
38850,note_on,30,0,0,,,,,,,,,7,,62,0
38850,note_on,0,0,0,,,,,,,,,6,,74,0
38880,note_on,30,0,0,,,,,,,,,0,,69,100
38880,note_on,0,0,0,,,,,,,,,5,,69,100
38880,note_on,0,0,0,,,,,,,,,6,,76,100
38880,note_on,0,0,0,,,,,,,,,7,,61,100
38880,note_on,0,0,0,,,,,,,,,13,,69,100
38910,note_on,30,0,0,,,,,,,,,7,,61,0
38910,note_on,0,0,0,,,,,,,,,6,,76,0
38940,note_on,30,0,0,,,,,,,,,6,,61,100
38940,note_on,0,0,0,,,,,,,,,7,,64,100
38970,note_on,30,0,0,,,,,,,,,7,,64,0
38970,note_on,0,0,0,,,,,,,,,6,,61,0
38970,note_on,0,0,0,,,,,,,,,6,,62,100
38970,note_on,0,0,0,,,,,,,,,7,,62,100
39000,note_on,30,0,0,,,,,,,,,7,,62,0
39000,note_on,0,0,0,,,,,,,,,6,,62,0
39000,note_on,0,0,0,,,,,,,,,6,,64,100
39000,note_on,0,0,0,,,,,,,,,7,,61,100
39030,note_on,30,0,0,,,,,,,,,7,,61,0
39030,note_on,0,0,0,,,,,,,,,0,,69,0
39030,note_on,0,0,0,,,,,,,,,13,,69,0
39030,note_on,0,0,0,,,,,,,,,5,,69,0
39030,note_on,0,0,0,,,,,,,,,6,,64,0
39060,note_on,30,0,0,,,,,,,,,0,,69,100
39060,note_on,0,0,0,,,,,,,,,5,,69,100
39060,note_on,0,0,0,,,,,,,,,6,,62,100
39060,note_on,0,0,0,,,,,,,,,7,,59,100
39060,note_on,0,0,0,,,,,,,,,13,,69,100
39090,note_on,30,0,0,,,,,,,,,13,,69,0
39090,note_on,0,0,0,,,,,,,,,6,,62,0
39090,note_on,0,0,0,,,,,,,,,0,,69,0
39090,note_on,0,0,0,,,,,,,,,5,,69,0
39090,note_on,0,0,0,,,,,,,,,7,,59,0
39120,note_on,30,0,0,,,,,,,,,0,,76,100
39120,note_on,0,0,0,,,,,,,,,5,,76,100
39120,note_on,0,0,0,,,,,,,,,6,,61,100
39120,note_on,0,0,0,,,,,,,,,7,,57,100
39120,note_on,0,0,0,,,,,,,,,13,,76,100
39120,note_on,0,0,0,,,,,,,,,15,,64,100
39120,note_on,0,0,0,,,,,,,,,15,,57,100
39120,note_on,0,0,0,,,,,,,,,15,,69,100
39150,note_on,30,0,0,,,,,,,,,6,,61,0
39180,note_on,30,0,0,,,,,,,,,0,,49,100
39180,note_on,0,0,0,,,,,,,,,6,,64,100
39180,note_on,0,0,0,,,,,,,,,8,,49,100
39180,note_on,0,0,0,,,,,,,,,10,,37,100
39180,note_on,0,0,0,,,,,,,,,14,,49,100
39180,note_on,0,0,0,,,,,,,,,15,,49,100
39210,note_on,30,0,0,,,,,,,,,15,,49,0
39210,note_on,0,0,0,,,,,,,,,8,,49,0
39210,note_on,0,0,0,,,,,,,,,7,,57,0
39210,note_on,0,0,0,,,,,,,,,6,,64,0
39210,note_on,0,0,0,,,,,,,,,0,,49,0
39210,note_on,0,0,0,,,,,,,,,14,,49,0
39210,note_on,0,0,0,,,,,,,,,10,,37,0
39225,note_on,15,0,0,,,,,,,,,5,,76,0
39225,note_on,0,0,0,,,,,,,,,0,,76,0
39225,note_on,0,0,0,,,,,,,,,13,,76,0
39240,note_on,15,0,0,,,,,,,,,15,,57,0
39240,note_on,0,0,0,,,,,,,,,15,,69,0
39240,note_on,0,0,0,,,,,,,,,15,,64,0
39240,note_on,0,0,0,,,,,,,,,0,,50,100
39240,note_on,0,0,0,,,,,,,,,0,,73,100
39240,note_on,0,0,0,,,,,,,,,5,,73,100
39240,note_on,0,0,0,,,,,,,,,6,,66,100
39240,note_on,0,0,0,,,,,,,,,8,,50,100
39240,note_on,0,0,0,,,,,,,,,10,,38,100
39240,note_on,0,0,0,,,,,,,,,13,,73,100
39240,note_on,0,0,0,,,,,,,,,14,,50,100
39240,note_on,0,0,0,,,,,,,,,15,,61,100
39240,note_on,0,0,0,,,,,,,,,15,,64,100
39240,note_on,0,0,0,,,,,,,,,15,,69,100
39240,note_on,0,0,0,,,,,,,,,15,,50,100
39270,note_on,30,0,0,,,,,,,,,15,,50,0
39270,note_on,0,0,0,,,,,,,,,10,,38,0
39270,note_on,0,0,0,,,,,,,,,6,,66,0
39270,note_on,0,0,0,,,,,,,,,0,,50,0
39270,note_on,0,0,0,,,,,,,,,14,,50,0
39270,note_on,0,0,0,,,,,,,,,8,,50,0
39300,note_on,30,0,0,,,,,,,,,0,,52,100
39300,note_on,0,0,0,,,,,,,,,6,,68,100
39300,note_on,0,0,0,,,,,,,,,7,,64,100
39300,note_on,0,0,0,,,,,,,,,8,,52,100
39300,note_on,0,0,0,,,,,,,,,10,,40,100
39300,note_on,0,0,0,,,,,,,,,14,,52,100
39300,note_on,0,0,0,,,,,,,,,15,,52,100
39330,note_on,30,0,0,,,,,,,,,15,,52,0
39330,note_on,0,0,0,,,,,,,,,8,,52,0
39330,note_on,0,0,0,,,,,,,,,0,,52,0
39330,note_on,0,0,0,,,,,,,,,7,,64,0
39330,note_on,0,0,0,,,,,,,,,6,,68,0
39330,note_on,0,0,0,,,,,,,,,14,,52,0
39330,note_on,0,0,0,,,,,,,,,10,,40,0
39345,note_on,15,0,0,,,,,,,,,5,,73,0
39345,note_on,0,0,0,,,,,,,,,0,,73,0
39345,note_on,0,0,0,,,,,,,,,13,,73,0
39360,note_on,15,0,0,,,,,,,,,15,,64,0
39360,note_on,0,0,0,,,,,,,,,15,,61,0
39360,note_on,0,0,0,,,,,,,,,15,,69,0
39360,note_on,0,0,0,,,,,,,,,0,,54,100
39360,note_on,0,0,0,,,,,,,,,6,,69,100
39360,note_on,0,0,0,,,,,,,,,7,,61,100
39360,note_on,0,0,0,,,,,,,,,8,,54,100
39360,note_on,0,0,0,,,,,,,,,10,,42,100
39360,note_on,0,0,0,,,,,,,,,14,,54,100
39360,note_on,0,0,0,,,,,,,,,15,,62,100
39360,note_on,0,0,0,,,,,,,,,15,,66,100
39360,note_on,0,0,0,,,,,,,,,15,,69,100
39360,note_on,0,0,0,,,,,,,,,15,,54,100
39390,note_on,30,0,0,,,,,,,,,15,,54,0
39390,note_on,0,0,0,,,,,,,,,7,,61,0
39390,note_on,0,0,0,,,,,,,,,14,,54,0
39390,note_on,0,0,0,,,,,,,,,8,,54,0
39390,note_on,0,0,0,,,,,,,,,10,,42,0
39390,note_on,0,0,0,,,,,,,,,0,,54,0
39390,note_on,0,0,0,,,,,,,,,0,,56,100
39390,note_on,0,0,0,,,,,,,,,8,,56,100
39390,note_on,0,0,0,,,,,,,,,10,,44,100
39390,note_on,0,0,0,,,,,,,,,14,,56,100
39390,note_on,0,0,0,,,,,,,,,15,,56,100
39420,note_on,30,0,0,,,,,,,,,15,,56,0
39420,note_on,0,0,0,,,,,,,,,14,,56,0
39420,note_on,0,0,0,,,,,,,,,10,,44,0
39420,note_on,0,0,0,,,,,,,,,0,,56,0
39420,note_on,0,0,0,,,,,,,,,8,,56,0
39420,note_on,0,0,0,,,,,,,,,0,,69,100
39420,note_on,0,0,0,,,,,,,,,0,,54,100
39420,note_on,0,0,0,,,,,,,,,5,,69,100
39420,note_on,0,0,0,,,,,,,,,7,,61,100
39420,note_on,0,0,0,,,,,,,,,8,,54,100
39420,note_on,0,0,0,,,,,,,,,10,,42,100
39420,note_on,0,0,0,,,,,,,,,13,,69,100
39420,note_on,0,0,0,,,,,,,,,14,,54,100
39420,note_on,0,0,0,,,,,,,,,15,,54,100
39450,note_on,30,0,0,,,,,,,,,15,,54,0
39450,note_on,0,0,0,,,,,,,,,0,,54,0
39450,note_on,0,0,0,,,,,,,,,10,,42,0
39450,note_on,0,0,0,,,,,,,,,7,,61,0
39450,note_on,0,0,0,,,,,,,,,5,,69,0
39450,note_on,0,0,0,,,,,,,,,8,,54,0
39450,note_on,0,0,0,,,,,,,,,14,,54,0
39450,note_on,0,0,0,,,,,,,,,0,,69,0
39450,note_on,0,0,0,,,,,,,,,13,,69,0
39465,note_on,15,0,0,,,,,,,,,6,,69,0
39480,note_on,15,0,0,,,,,,,,,15,,62,0
39480,note_on,0,0,0,,,,,,,,,15,,66,0
39480,note_on,0,0,0,,,,,,,,,15,,69,0
39480,note_on,0,0,0,,,,,,,,,0,,74,100
39480,note_on,0,0,0,,,,,,,,,0,,47,100
39480,note_on,0,0,0,,,,,,,,,5,,74,100
39480,note_on,0,0,0,,,,,,,,,6,,66,100
39480,note_on,0,0,0,,,,,,,,,7,,62,100
39480,note_on,0,0,0,,,,,,,,,8,,47,100
39480,note_on,0,0,0,,,,,,,,,10,,35,100
39480,note_on,0,0,0,,,,,,,,,13,,74,100
39480,note_on,0,0,0,,,,,,,,,14,,47,100
39480,note_on,0,0,0,,,,,,,,,15,,62,100
39480,note_on,0,0,0,,,,,,,,,15,,66,100
39480,note_on,0,0,0,,,,,,,,,15,,54,100
39480,note_on,0,0,0,,,,,,,,,15,,47,100
39510,note_on,30,0,0,,,,,,,,,13,,74,0
39510,note_on,0,0,0,,,,,,,,,7,,62,0
39510,note_on,0,0,0,,,,,,,,,5,,74,0
39510,note_on,0,0,0,,,,,,,,,0,,74,0
39540,note_on,30,0,0,,,,,,,,,0,,62,100
39540,note_on,0,0,0,,,,,,,,,5,,62,100
39540,note_on,0,0,0,,,,,,,,,7,,64,100
39540,note_on,0,0,0,,,,,,,,,13,,62,100
39570,note_on,30,0,0,,,,,,,,,13,,62,0
39570,note_on,0,0,0,,,,,,,,,0,,62,0
39570,note_on,0,0,0,,,,,,,,,7,,64,0
39570,note_on,0,0,0,,,,,,,,,5,,62,0
39585,note_on,15,0,0,,,,,,,,,0,,47,0
39585,note_on,0,0,0,,,,,,,,,15,,47,0
39585,note_on,0,0,0,,,,,,,,,8,,47,0
39585,note_on,0,0,0,,,,,,,,,10,,35,0
39585,note_on,0,0,0,,,,,,,,,14,,47,0
39600,note_on,15,0,0,,,,,,,,,15,,54,0
39600,note_on,0,0,0,,,,,,,,,15,,62,0
39600,note_on,0,0,0,,,,,,,,,15,,66,0
39600,note_on,0,0,0,,,,,,,,,0,,74,100
39600,note_on,0,0,0,,,,,,,,,5,,74,100
39600,note_on,0,0,0,,,,,,,,,7,,66,100
39600,note_on,0,0,0,,,,,,,,,13,,74,100
39600,note_on,0,0,0,,,,,,,,,15,,54,100
39600,note_on,0,0,0,,,,,,,,,15,,62,100
39600,note_on,0,0,0,,,,,,,,,15,,66,100
39630,note_on,30,0,0,,,,,,,,,6,,66,0
39660,note_on,30,0,0,,,,,,,,,0,,47,100
39660,note_on,0,0,0,,,,,,,,,6,,62,100
39660,note_on,0,0,0,,,,,,,,,8,,47,100
39660,note_on,0,0,0,,,,,,,,,10,,35,100
39660,note_on,0,0,0,,,,,,,,,14,,47,100
39660,note_on,0,0,0,,,,,,,,,15,,47,100
39690,note_on,30,0,0,,,,,,,,,15,,47,0
39690,note_on,0,0,0,,,,,,,,,8,,47,0
39690,note_on,0,0,0,,,,,,,,,6,,62,0
39690,note_on,0,0,0,,,,,,,,,0,,47,0
39690,note_on,0,0,0,,,,,,,,,14,,47,0
39690,note_on,0,0,0,,,,,,,,,10,,35,0
39705,note_on,15,0,0,,,,,,,,,5,,74,0
39705,note_on,0,0,0,,,,,,,,,13,,74,0
39705,note_on,0,0,0,,,,,,,,,7,,66,0
39705,note_on,0,0,0,,,,,,,,,0,,74,0
39720,note_on,15,0,0,,,,,,,,,15,,66,0
39720,note_on,0,0,0,,,,,,,,,15,,62,0
39720,note_on,0,0,0,,,,,,,,,15,,54,0
39720,note_on,0,0,0,,,,,,,,,0,,71,100
39720,note_on,0,0,0,,,,,,,,,0,,49,100
39720,note_on,0,0,0,,,,,,,,,5,,71,100
39720,note_on,0,0,0,,,,,,,,,6,,64,100
39720,note_on,0,0,0,,,,,,,,,7,,71,100
39720,note_on,0,0,0,,,,,,,,,8,,49,100
39720,note_on,0,0,0,,,,,,,,,10,,37,100
39720,note_on,0,0,0,,,,,,,,,13,,71,100
39720,note_on,0,0,0,,,,,,,,,14,,49,100
39720,note_on,0,0,0,,,,,,,,,15,,62,100
39720,note_on,0,0,0,,,,,,,,,15,,56,100
39720,note_on,0,0,0,,,,,,,,,15,,66,100
39720,note_on,0,0,0,,,,,,,,,15,,49,100
39750,note_on,30,0,0,,,,,,,,,15,,49,0
39750,note_on,0,0,0,,,,,,,,,10,,37,0
39750,note_on,0,0,0,,,,,,,,,0,,49,0
39750,note_on,0,0,0,,,,,,,,,14,,49,0
39750,note_on,0,0,0,,,,,,,,,8,,49,0
39750,note_on,0,0,0,,,,,,,,,6,,64,0
39780,note_on,30,0,0,,,,,,,,,0,,50,100
39780,note_on,0,0,0,,,,,,,,,6,,66,100
39780,note_on,0,0,0,,,,,,,,,8,,50,100
39780,note_on,0,0,0,,,,,,,,,10,,38,100
39780,note_on,0,0,0,,,,,,,,,14,,50,100
39780,note_on,0,0,0,,,,,,,,,15,,50,100
39810,note_on,30,0,0,,,,,,,,,15,,50,0
39810,note_on,0,0,0,,,,,,,,,8,,50,0
39810,note_on,0,0,0,,,,,,,,,6,,66,0
39810,note_on,0,0,0,,,,,,,,,0,,50,0
39810,note_on,0,0,0,,,,,,,,,14,,50,0
39810,note_on,0,0,0,,,,,,,,,10,,38,0
39825,note_on,15,0,0,,,,,,,,,13,,71,0
39825,note_on,0,0,0,,,,,,,,,5,,71,0
39825,note_on,0,0,0,,,,,,,,,7,,71,0
39825,note_on,0,0,0,,,,,,,,,0,,71,0
39840,note_on,15,0,0,,,,,,,,,15,,66,0
39840,note_on,0,0,0,,,,,,,,,15,,62,0
39840,note_on,0,0,0,,,,,,,,,15,,56,0
39840,note_on,0,0,0,,,,,,,,,0,,52,100
39840,note_on,0,0,0,,,,,,,,,6,,59,100
39840,note_on,0,0,0,,,,,,,,,7,,64,100
39840,note_on,0,0,0,,,,,,,,,8,,52,100
39840,note_on,0,0,0,,,,,,,,,10,,40,100
39840,control_change,0,0,0,,,,,,,11,119,13,,,
39840,note_on,0,0,0,,,,,,,,,14,,52,100
39840,note_on,0,0,0,,,,,,,,,15,,64,100
39840,note_on,0,0,0,,,,,,,,,15,,68,100
39840,note_on,0,0,0,,,,,,,,,15,,59,100
39840,note_on,0,0,0,,,,,,,,,15,,52,100
39843,control_change,3,0,0,,,,,,,11,120,13,,,
39870,note_on,27,0,0,,,,,,,,,15,,52,0
39870,note_on,0,0,0,,,,,,,,,0,,52,0
39870,note_on,0,0,0,,,,,,,,,14,,52,0
39870,note_on,0,0,0,,,,,,,,,8,,52,0
39870,note_on,0,0,0,,,,,,,,,10,,40,0
39870,note_on,0,0,0,,,,,,,,,0,,54,100
39870,note_on,0,0,0,,,,,,,,,8,,54,100
39870,note_on,0,0,0,,,,,,,,,10,,42,100
39870,note_on,0,0,0,,,,,,,,,14,,54,100
39870,note_on,0,0,0,,,,,,,,,15,,54,100
39900,note_on,30,0,0,,,,,,,,,15,,54,0
39900,note_on,0,0,0,,,,,,,,,14,,54,0
39900,note_on,0,0,0,,,,,,,,,8,,54,0
39900,note_on,0,0,0,,,,,,,,,10,,42,0
39900,note_on,0,0,0,,,,,,,,,0,,54,0
39900,note_on,0,0,0,,,,,,,,,0,,52,100
39900,note_on,0,0,0,,,,,,,,,0,,80,100
39900,note_on,0,0,0,,,,,,,,,5,,80,100
39900,note_on,0,0,0,,,,,,,,,8,,52,100
39900,note_on,0,0,0,,,,,,,,,10,,40,100
39900,note_on,0,0,0,,,,,,,,,13,,80,100
39900,note_on,0,0,0,,,,,,,,,14,,52,100
39900,note_on,0,0,0,,,,,,,,,15,,52,100
39930,note_on,30,0,0,,,,,,,,,15,,52,0
39930,note_on,0,0,0,,,,,,,,,0,,52,0
39930,note_on,0,0,0,,,,,,,,,10,,40,0
39930,note_on,0,0,0,,,,,,,,,5,,80,0
39930,note_on,0,0,0,,,,,,,,,0,,80,0
39930,note_on,0,0,0,,,,,,,,,8,,52,0
39930,note_on,0,0,0,,,,,,,,,14,,52,0
39930,note_on,0,0,0,,,,,,,,,13,,80,0
39945,note_on,15,0,0,,,,,,,,,6,,59,0
39945,note_on,0,0,0,,,,,,,,,7,,64,0
39960,note_on,15,0,0,,,,,,,,,15,,68,0
39960,note_on,0,0,0,,,,,,,,,15,,64,0
39960,note_on,0,0,0,,,,,,,,,15,,59,0
39960,note_on,0,0,0,,,,,,,,,0,,45,100
39960,note_on,0,0,0,,,,,,,,,0,,85,100
39960,note_on,0,0,0,,,,,,,,,5,,85,100
39960,note_on,0,0,0,,,,,,,,,6,,76,100
39960,note_on,0,0,0,,,,,,,,,7,,61,100
39960,note_on,0,0,0,,,,,,,,,8,,45,100
39960,note_on,0,0,0,,,,,,,,,10,,33,100
39960,note_on,0,0,0,,,,,,,,,13,,76,100
39960,note_on,0,0,0,,,,,,,,,13,,85,100
39960,note_on,0,0,0,,,,,,,,,14,,45,100
39960,note_on,0,0,0,,,,,,,,,15,,61,100
39960,note_on,0,0,0,,,,,,,,,15,,64,100
39960,note_on,0,0,0,,,,,,,,,15,,69,100
39960,note_on,0,0,0,,,,,,,,,15,,45,100
39990,note_on,30,0,0,,,,,,,,,13,,85,0
39990,note_on,0,0,0,,,,,,,,,5,,85,0
39990,note_on,0,0,0,,,,,,,,,0,,85,0
40020,note_on,30,0,0,,,,,,,,,0,,73,100
40020,note_on,0,0,0,,,,,,,,,5,,73,100
40020,note_on,0,0,0,,,,,,,,,13,,73,100
40050,note_on,30,0,0,,,,,,,,,13,,73,0
40050,note_on,0,0,0,,,,,,,,,5,,73,0
40050,note_on,0,0,0,,,,,,,,,0,,73,0
40065,note_on,15,0,0,,,,,,,,,13,,76,0
40065,note_on,0,0,0,,,,,,,,,0,,45,0
40065,note_on,0,0,0,,,,,,,,,6,,76,0
40065,note_on,0,0,0,,,,,,,,,7,,61,0
40065,note_on,0,0,0,,,,,,,,,14,,45,0
40065,note_on,0,0,0,,,,,,,,,15,,45,0
40065,note_on,0,0,0,,,,,,,,,10,,33,0
40065,note_on,0,0,0,,,,,,,,,8,,45,0
40080,note_on,15,0,0,,,,,,,,,15,,61,0
40080,note_on,0,0,0,,,,,,,,,15,,69,0
40080,note_on,0,0,0,,,,,,,,,15,,64,0
40080,note_on,0,0,0,,,,,,,,,0,,85,100
40080,note_on,0,0,0,,,,,,,,,5,,85,100
40080,note_on,0,0,0,,,,,,,,,7,,64,100
40080,note_on,0,0,0,,,,,,,,,13,,85,100
40080,note_on,0,0,0,,,,,,,,,15,,61,100
40080,note_on,0,0,0,,,,,,,,,15,,64,100
40080,note_on,0,0,0,,,,,,,,,15,,69,100
40140,note_on,60,0,0,,,,,,,,,0,,57,100
40140,note_on,0,0,0,,,,,,,,,6,,73,100
40140,note_on,0,0,0,,,,,,,,,8,,57,100
40140,note_on,0,0,0,,,,,,,,,10,,45,100
40140,note_on,0,0,0,,,,,,,,,13,,73,100
40140,note_on,0,0,0,,,,,,,,,14,,57,100
40140,note_on,0,0,0,,,,,,,,,15,,57,100
40170,note_on,30,0,0,,,,,,,,,15,,57,0
40170,note_on,0,0,0,,,,,,,,,8,,57,0
40170,note_on,0,0,0,,,,,,,,,6,,73,0
40170,note_on,0,0,0,,,,,,,,,0,,57,0
40170,note_on,0,0,0,,,,,,,,,14,,57,0
40170,note_on,0,0,0,,,,,,,,,10,,45,0
40170,note_on,0,0,0,,,,,,,,,13,,73,0
40185,note_on,15,0,0,,,,,,,,,13,,85,0
40185,note_on,0,0,0,,,,,,,,,0,,85,0
40185,note_on,0,0,0,,,,,,,,,5,,85,0
40200,note_on,15,0,0,,,,,,,,,15,,61,0
40200,note_on,0,0,0,,,,,,,,,0,,59,100
40200,note_on,0,0,0,,,,,,,,,0,,81,100
40200,note_on,0,0,0,,,,,,,,,5,,81,100
40200,note_on,0,0,0,,,,,,,,,6,,74,100
40200,note_on,0,0,0,,,,,,,,,8,,59,100
40200,note_on,0,0,0,,,,,,,,,10,,47,100
40200,note_on,0,0,0,,,,,,,,,13,,74,100
40200,note_on,0,0,0,,,,,,,,,13,,81,100
40200,note_on,0,0,0,,,,,,,,,14,,59,100
40200,note_on,0,0,0,,,,,,,,,15,,59,100
40230,note_on,30,0,0,,,,,,,,,15,,59,0
40230,note_on,0,0,0,,,,,,,,,0,,59,0
40230,note_on,0,0,0,,,,,,,,,10,,47,0
40230,note_on,0,0,0,,,,,,,,,6,,74,0
40230,note_on,0,0,0,,,,,,,,,8,,59,0
40230,note_on,0,0,0,,,,,,,,,14,,59,0
40230,note_on,0,0,0,,,,,,,,,13,,74,0
40260,note_on,30,0,0,,,,,,,,,0,,61,100
40260,note_on,0,0,0,,,,,,,,,6,,76,100
40260,note_on,0,0,0,,,,,,,,,8,,61,100
40260,note_on,0,0,0,,,,,,,,,10,,49,100
40260,note_on,0,0,0,,,,,,,,,13,,76,100
40260,note_on,0,0,0,,,,,,,,,14,,61,100
40260,note_on,0,0,0,,,,,,,,,15,,61,100
40290,note_on,30,0,0,,,,,,,,,15,,61,0
40290,note_on,0,0,0,,,,,,,,,10,,49,0
40290,note_on,0,0,0,,,,,,,,,0,,61,0
40290,note_on,0,0,0,,,,,,,,,8,,61,0
40290,note_on,0,0,0,,,,,,,,,6,,76,0
40290,note_on,0,0,0,,,,,,,,,14,,61,0
40290,note_on,0,0,0,,,,,,,,,13,,76,0
40305,note_on,15,0,0,,,,,,,,,0,,81,0
40305,note_on,0,0,0,,,,,,,,,13,,81,0
40305,note_on,0,0,0,,,,,,,,,5,,81,0
40320,note_on,15,0,0,,,,,,,,,15,,69,0
40320,note_on,0,0,0,,,,,,,,,15,,64,0
40320,note_on,0,0,0,,,,,,,,,0,,62,100
40320,note_on,0,0,0,,,,,,,,,6,,69,100
40320,note_on,0,0,0,,,,,,,,,8,,62,100
40320,note_on,0,0,0,,,,,,,,,10,,50,100
40320,note_on,0,0,0,,,,,,,,,13,,69,100
40320,note_on,0,0,0,,,,,,,,,14,,62,100
40320,note_on,0,0,0,,,,,,,,,15,,66,100
40320,note_on,0,0,0,,,,,,,,,15,,69,100
40320,note_on,0,0,0,,,,,,,,,15,,62,100
40350,note_on,30,0,0,,,,,,,,,15,,62,0
40350,note_on,0,0,0,,,,,,,,,0,,62,0
40350,note_on,0,0,0,,,,,,,,,14,,62,0
40350,note_on,0,0,0,,,,,,,,,8,,62,0
40350,note_on,0,0,0,,,,,,,,,10,,50,0
40350,note_on,0,0,0,,,,,,,,,0,,64,100
40350,note_on,0,0,0,,,,,,,,,8,,64,100
40350,note_on,0,0,0,,,,,,,,,10,,52,100
40350,note_on,0,0,0,,,,,,,,,14,,64,100
40350,note_on,0,0,0,,,,,,,,,15,,64,100
40380,note_on,30,0,0,,,,,,,,,15,,64,0
40380,note_on,0,0,0,,,,,,,,,14,,64,0
40380,note_on,0,0,0,,,,,,,,,8,,64,0
40380,note_on,0,0,0,,,,,,,,,10,,52,0
40380,note_on,0,0,0,,,,,,,,,0,,64,0
40380,note_on,0,0,0,,,,,,,,,0,,78,100
40380,note_on,0,0,0,,,,,,,,,0,,62,100
40380,note_on,0,0,0,,,,,,,,,5,,78,100
40380,note_on,0,0,0,,,,,,,,,8,,62,100
40380,note_on,0,0,0,,,,,,,,,10,,50,100
40380,note_on,0,0,0,,,,,,,,,13,,78,100
40380,note_on,0,0,0,,,,,,,,,14,,62,100
40380,note_on,0,0,0,,,,,,,,,15,,62,100
40410,note_on,30,0,0,,,,,,,,,15,,62,0
40410,note_on,0,0,0,,,,,,,,,0,,78,0
40410,note_on,0,0,0,,,,,,,,,10,,50,0
40410,note_on,0,0,0,,,,,,,,,5,,78,0
40410,note_on,0,0,0,,,,,,,,,0,,62,0
40410,note_on,0,0,0,,,,,,,,,8,,62,0
40410,note_on,0,0,0,,,,,,,,,14,,62,0
40410,note_on,0,0,0,,,,,,,,,13,,78,0
40425,note_on,15,0,0,,,,,,,,,7,,64,0
40425,note_on,0,0,0,,,,,,,,,6,,69,0
40425,note_on,0,0,0,,,,,,,,,13,,69,0
40440,note_on,15,0,0,,,,,,,,,0,,83,100
40440,note_on,0,0,0,,,,,,,,,0,,56,100
40440,note_on,0,0,0,,,,,,,,,5,,83,100
40440,note_on,0,0,0,,,,,,,,,6,,71,100
40440,note_on,0,0,0,,,,,,,,,7,,62,100
40440,note_on,0,0,0,,,,,,,,,8,,56,100
40440,note_on,0,0,0,,,,,,,,,10,,44,100
40440,note_on,0,0,0,,,,,,,,,13,,71,100
40440,note_on,0,0,0,,,,,,,,,13,,83,100
40440,note_on,0,0,0,,,,,,,,,14,,56,100
40440,note_on,0,0,0,,,,,,,,,15,,62,100
40440,note_on,0,0,0,,,,,,,,,15,,56,100
40470,note_on,30,0,0,,,,,,,,,13,,83,0
40470,note_on,0,0,0,,,,,,,,,7,,62,0
40470,note_on,0,0,0,,,,,,,,,0,,83,0
40470,note_on,0,0,0,,,,,,,,,5,,83,0
40500,note_on,30,0,0,,,,,,,,,0,,71,100
40500,note_on,0,0,0,,,,,,,,,5,,71,100
40500,note_on,0,0,0,,,,,,,,,7,,61,100
40500,note_on,0,0,0,,,,,,,,,13,,71,100
40530,note_on,30,0,0,,,,,,,,,7,,61,0
40530,note_on,0,0,0,,,,,,,,,13,,71,0
40530,note_on,0,0,0,,,,,,,,,5,,71,0
40530,note_on,0,0,0,,,,,,,,,0,,71,0
40545,note_on,15,0,0,,,,,,,,,0,,56,0
40545,note_on,0,0,0,,,,,,,,,15,,56,0
40545,note_on,0,0,0,,,,,,,,,10,,44,0
40545,note_on,0,0,0,,,,,,,,,8,,56,0
40545,note_on,0,0,0,,,,,,,,,13,,71,0
40545,note_on,0,0,0,,,,,,,,,6,,71,0
40545,note_on,0,0,0,,,,,,,,,14,,56,0
40560,note_on,15,0,0,,,,,,,,,15,,62,0
40560,note_on,0,0,0,,,,,,,,,15,,69,0
40560,note_on,0,0,0,,,,,,,,,15,,66,0
40560,note_on,0,0,0,,,,,,,,,0,,83,100
40560,note_on,0,0,0,,,,,,,,,5,,83,100
40560,note_on,0,0,0,,,,,,,,,7,,62,100
40560,note_on,0,0,0,,,,,,,,,13,,83,100
40560,note_on,0,0,0,,,,,,,,,15,,71,100
40560,note_on,0,0,0,,,,,,,,,15,,64,100
40560,note_on,0,0,0,,,,,,,,,15,,59,100
40620,note_on,60,0,0,,,,,,,,,0,,56,100
40620,note_on,0,0,0,,,,,,,,,6,,71,100
40620,note_on,0,0,0,,,,,,,,,8,,56,100
40620,note_on,0,0,0,,,,,,,,,10,,44,100
40620,note_on,0,0,0,,,,,,,,,13,,71,100
40620,note_on,0,0,0,,,,,,,,,14,,56,100
40620,note_on,0,0,0,,,,,,,,,15,,56,100
40650,note_on,30,0,0,,,,,,,,,15,,56,0
40650,note_on,0,0,0,,,,,,,,,8,,56,0
40650,note_on,0,0,0,,,,,,,,,6,,71,0
40650,note_on,0,0,0,,,,,,,,,0,,56,0
40650,note_on,0,0,0,,,,,,,,,14,,56,0
40650,note_on,0,0,0,,,,,,,,,10,,44,0
40650,note_on,0,0,0,,,,,,,,,13,,71,0
40665,note_on,15,0,0,,,,,,,,,13,,83,0
40665,note_on,0,0,0,,,,,,,,,0,,83,0
40665,note_on,0,0,0,,,,,,,,,5,,83,0
40680,note_on,15,0,0,,,,,,,,,15,,59,0
40680,note_on,0,0,0,,,,,,,,,15,,71,0
40680,note_on,0,0,0,,,,,,,,,15,,64,0
40680,note_on,0,0,0,,,,,,,,,0,,57,100
40680,note_on,0,0,0,,,,,,,,,0,,80,100
40680,note_on,0,0,0,,,,,,,,,5,,80,100
40680,note_on,0,0,0,,,,,,,,,6,,73,100
40680,note_on,0,0,0,,,,,,,,,8,,57,100
40680,note_on,0,0,0,,,,,,,,,10,,45,100
40680,note_on,0,0,0,,,,,,,,,13,,73,100
40680,note_on,0,0,0,,,,,,,,,13,,80,100
40680,note_on,0,0,0,,,,,,,,,14,,57,100
40680,note_on,0,0,0,,,,,,,,,15,,68,100
40680,note_on,0,0,0,,,,,,,,,15,,64,100
40680,note_on,0,0,0,,,,,,,,,15,,71,100
40680,note_on,0,0,0,,,,,,,,,15,,57,100
40710,note_on,30,0,0,,,,,,,,,15,,57,0
40710,note_on,0,0,0,,,,,,,,,6,,73,0
40710,note_on,0,0,0,,,,,,,,,13,,73,0
40710,note_on,0,0,0,,,,,,,,,0,,57,0
40710,note_on,0,0,0,,,,,,,,,10,,45,0
40710,note_on,0,0,0,,,,,,,,,14,,57,0
40710,note_on,0,0,0,,,,,,,,,8,,57,0
40740,note_on,30,0,0,,,,,,,,,0,,59,100
40740,note_on,0,0,0,,,,,,,,,6,,74,100
40740,note_on,0,0,0,,,,,,,,,8,,59,100
40740,note_on,0,0,0,,,,,,,,,10,,47,100
40740,note_on,0,0,0,,,,,,,,,13,,74,100
40740,note_on,0,0,0,,,,,,,,,14,,59,100
40740,note_on,0,0,0,,,,,,,,,15,,59,100
40770,note_on,30,0,0,,,,,,,,,15,,59,0
40770,note_on,0,0,0,,,,,,,,,8,,59,0
40770,note_on,0,0,0,,,,,,,,,6,,74,0
40770,note_on,0,0,0,,,,,,,,,0,,59,0
40770,note_on,0,0,0,,,,,,,,,14,,59,0
40770,note_on,0,0,0,,,,,,,,,10,,47,0
40770,note_on,0,0,0,,,,,,,,,13,,74,0
40785,note_on,15,0,0,,,,,,,,,13,,80,0
40785,note_on,0,0,0,,,,,,,,,5,,80,0
40785,note_on,0,0,0,,,,,,,,,0,,80,0
40800,note_on,15,0,0,,,,,,,,,15,,64,0
40800,note_on,0,0,0,,,,,,,,,15,,68,0
40800,note_on,0,0,0,,,,,,,,,15,,71,0
40800,note_on,0,0,0,,,,,,,,,0,,61,100
40800,note_on,0,0,0,,,,,,,,,6,,68,100
40800,note_on,0,0,0,,,,,,,,,8,,61,100
40800,note_on,0,0,0,,,,,,,,,10,,49,100
40800,note_on,0,0,0,,,,,,,,,13,,68,100
40800,note_on,0,0,0,,,,,,,,,14,,61,100
40800,note_on,0,0,0,,,,,,,,,15,,64,100
40800,note_on,0,0,0,,,,,,,,,15,,69,100
40800,note_on,0,0,0,,,,,,,,,15,,61,100
40830,note_on,30,0,0,,,,,,,,,15,,61,0
40830,note_on,0,0,0,,,,,,,,,0,,61,0
40830,note_on,0,0,0,,,,,,,,,14,,61,0
40830,note_on,0,0,0,,,,,,,,,8,,61,0
40830,note_on,0,0,0,,,,,,,,,10,,49,0
40830,note_on,0,0,0,,,,,,,,,0,,62,100
40830,note_on,0,0,0,,,,,,,,,8,,62,100
40830,note_on,0,0,0,,,,,,,,,10,,50,100
40830,note_on,0,0,0,,,,,,,,,14,,62,100
40830,note_on,0,0,0,,,,,,,,,15,,62,100
40860,note_on,30,0,0,,,,,,,,,15,,62,0
40860,note_on,0,0,0,,,,,,,,,14,,62,0
40860,note_on,0,0,0,,,,,,,,,8,,62,0
40860,note_on,0,0,0,,,,,,,,,10,,50,0
40860,note_on,0,0,0,,,,,,,,,0,,62,0
40860,note_on,0,0,0,,,,,,,,,0,,76,100
40860,note_on,0,0,0,,,,,,,,,0,,61,100
40860,note_on,0,0,0,,,,,,,,,5,,76,100
40860,note_on,0,0,0,,,,,,,,,8,,61,100
40860,note_on,0,0,0,,,,,,,,,10,,49,100
40860,note_on,0,0,0,,,,,,,,,13,,76,100
40860,note_on,0,0,0,,,,,,,,,14,,61,100
40860,note_on,0,0,0,,,,,,,,,15,,61,100
40890,note_on,30,0,0,,,,,,,,,15,,61,0
40890,note_on,0,0,0,,,,,,,,,0,,76,0
40890,note_on,0,0,0,,,,,,,,,7,,62,0
40890,note_on,0,0,0,,,,,,,,,5,,76,0
40890,note_on,0,0,0,,,,,,,,,10,,49,0
40890,note_on,0,0,0,,,,,,,,,0,,61,0
40890,note_on,0,0,0,,,,,,,,,8,,61,0
40890,note_on,0,0,0,,,,,,,,,13,,68,0
40890,note_on,0,0,0,,,,,,,,,13,,76,0
40890,note_on,0,0,0,,,,,,,,,14,,61,0
40905,note_on,15,0,0,,,,,,,,,6,,68,0
40920,note_on,15,0,0,,,,,,,,,15,,69,0
40920,note_on,0,0,0,,,,,,,,,15,,64,0
40920,note_on,0,0,0,,,,,,,,,0,,81,100
40920,note_on,0,0,0,,,,,,,,,0,,54,100
40920,note_on,0,0,0,,,,,,,,,5,,81,100
40920,note_on,0,0,0,,,,,,,,,6,,69,100
40920,note_on,0,0,0,,,,,,,,,7,,61,100
40920,note_on,0,0,0,,,,,,,,,8,,54,100
40920,note_on,0,0,0,,,,,,,,,10,,42,100
40920,note_on,0,0,0,,,,,,,,,13,,69,100
40920,note_on,0,0,0,,,,,,,,,13,,81,100
40920,note_on,0,0,0,,,,,,,,,14,,54,100
40920,note_on,0,0,0,,,,,,,,,15,,69,100
40920,note_on,0,0,0,,,,,,,,,15,,62,100
40920,note_on,0,0,0,,,,,,,,,15,,66,100
40920,note_on,0,0,0,,,,,,,,,15,,54,100
40950,note_on,30,0,0,,,,,,,,,13,,81,0
40950,note_on,0,0,0,,,,,,,,,7,,61,0
40950,note_on,0,0,0,,,,,,,,,5,,81,0
40950,note_on,0,0,0,,,,,,,,,0,,81,0
40980,note_on,30,0,0,,,,,,,,,0,,69,100
40980,note_on,0,0,0,,,,,,,,,5,,69,100
40980,note_on,0,0,0,,,,,,,,,7,,59,100
40980,note_on,0,0,0,,,,,,,,,13,,69,100
41010,note_on,30,0,0,,,,,,,,,13,,69,0
41010,note_on,0,0,0,,,,,,,,,13,,69,0
41010,note_on,0,0,0,,,,,,,,,7,,59,0
41010,note_on,0,0,0,,,,,,,,,0,,69,0
41010,note_on,0,0,0,,,,,,,,,5,,69,0
41025,note_on,15,0,0,,,,,,,,,6,,69,0
41025,note_on,0,0,0,,,,,,,,,10,,42,0
41025,note_on,0,0,0,,,,,,,,,0,,54,0
41025,note_on,0,0,0,,,,,,,,,15,,66,0
41025,note_on,0,0,0,,,,,,,,,8,,54,0
41025,note_on,0,0,0,,,,,,,,,14,,54,0
41025,note_on,0,0,0,,,,,,,,,15,,62,0
41025,note_on,0,0,0,,,,,,,,,15,,69,0
41025,note_on,0,0,0,,,,,,,,,15,,54,0
41040,note_on,15,0,0,,,,,,,,,0,,81,100
41040,note_on,0,0,0,,,,,,,,,5,,81,100
41040,note_on,0,0,0,,,,,,,,,7,,61,100
41040,note_on,0,0,0,,,,,,,,,13,,81,100
41040,note_on,0,0,0,,,,,,,,,15,,69,100
41040,note_on,0,0,0,,,,,,,,,15,,66,100
41040,note_on,0,0,0,,,,,,,,,15,,62,100
41100,note_on,60,0,0,,,,,,,,,0,,54,100
41100,note_on,0,0,0,,,,,,,,,6,,69,100
41100,note_on,0,0,0,,,,,,,,,8,,54,100
41100,note_on,0,0,0,,,,,,,,,10,,42,100
41100,note_on,0,0,0,,,,,,,,,13,,69,100
41100,note_on,0,0,0,,,,,,,,,14,,54,100
41100,note_on,0,0,0,,,,,,,,,15,,54,100
41130,note_on,30,0,0,,,,,,,,,15,,54,0
41130,note_on,0,0,0,,,,,,,,,8,,54,0
41130,note_on,0,0,0,,,,,,,,,6,,69,0
41130,note_on,0,0,0,,,,,,,,,0,,54,0
41130,note_on,0,0,0,,,,,,,,,14,,54,0
41130,note_on,0,0,0,,,,,,,,,10,,42,0
41130,note_on,0,0,0,,,,,,,,,13,,69,0
41145,note_on,15,0,0,,,,,,,,,15,,62,0
41145,note_on,0,0,0,,,,,,,,,5,,81,0
41145,note_on,0,0,0,,,,,,,,,15,,69,0
41145,note_on,0,0,0,,,,,,,,,15,,66,0
41145,note_on,0,0,0,,,,,,,,,0,,81,0
41145,note_on,0,0,0,,,,,,,,,13,,81,0
41160,note_on,15,0,0,,,,,,,,,0,,56,100
41160,note_on,0,0,0,,,,,,,,,0,,78,100
41160,note_on,0,0,0,,,,,,,,,5,,78,100
41160,note_on,0,0,0,,,,,,,,,6,,71,100
41160,note_on,0,0,0,,,,,,,,,8,,56,100
41160,note_on,0,0,0,,,,,,,,,10,,44,100
41160,note_on,0,0,0,,,,,,,,,13,,71,100
41160,note_on,0,0,0,,,,,,,,,13,,78,100
41160,note_on,0,0,0,,,,,,,,,14,,56,100
41160,note_on,0,0,0,,,,,,,,,15,,66,100
41160,note_on,0,0,0,,,,,,,,,15,,62,100
41160,note_on,0,0,0,,,,,,,,,15,,71,100
41160,note_on,0,0,0,,,,,,,,,15,,56,100
41190,note_on,30,0,0,,,,,,,,,15,,56,0
41190,note_on,0,0,0,,,,,,,,,6,,71,0
41190,note_on,0,0,0,,,,,,,,,13,,71,0
41190,note_on,0,0,0,,,,,,,,,0,,56,0
41190,note_on,0,0,0,,,,,,,,,10,,44,0
41190,note_on,0,0,0,,,,,,,,,14,,56,0
41190,note_on,0,0,0,,,,,,,,,8,,56,0
41220,note_on,30,0,0,,,,,,,,,0,,57,100
41220,note_on,0,0,0,,,,,,,,,6,,73,100
41220,note_on,0,0,0,,,,,,,,,8,,57,100
41220,note_on,0,0,0,,,,,,,,,10,,45,100
41220,note_on,0,0,0,,,,,,,,,13,,73,100
41220,note_on,0,0,0,,,,,,,,,14,,57,100
41220,note_on,0,0,0,,,,,,,,,15,,57,100
41250,note_on,30,0,0,,,,,,,,,15,,57,0
41250,note_on,0,0,0,,,,,,,,,8,,57,0
41250,note_on,0,0,0,,,,,,,,,6,,73,0
41250,note_on,0,0,0,,,,,,,,,0,,57,0
41250,note_on,0,0,0,,,,,,,,,14,,57,0
41250,note_on,0,0,0,,,,,,,,,10,,45,0
41250,note_on,0,0,0,,,,,,,,,13,,73,0
41265,note_on,15,0,0,,,,,,,,,15,,71,0
41265,note_on,0,0,0,,,,,,,,,0,,78,0
41265,note_on,0,0,0,,,,,,,,,5,,78,0
41265,note_on,0,0,0,,,,,,,,,13,,78,0
41265,note_on,0,0,0,,,,,,,,,15,,66,0
41265,note_on,0,0,0,,,,,,,,,15,,62,0
41280,note_on,15,0,0,,,,,,,,,0,,59,100
41280,note_on,0,0,0,,,,,,,,,6,,66,100
41280,note_on,0,0,0,,,,,,,,,8,,59,100
41280,note_on,0,0,0,,,,,,,,,10,,47,100
41280,note_on,0,0,0,,,,,,,,,13,,66,100
41280,note_on,0,0,0,,,,,,,,,14,,59,100
41280,note_on,0,0,0,,,,,,,,,15,,68,100
41280,note_on,0,0,0,,,,,,,,,15,,64,100
41280,note_on,0,0,0,,,,,,,,,15,,59,100
41310,note_on,30,0,0,,,,,,,,,15,,59,0
41310,note_on,0,0,0,,,,,,,,,0,,59,0
41310,note_on,0,0,0,,,,,,,,,14,,59,0
41310,note_on,0,0,0,,,,,,,,,8,,59,0
41310,note_on,0,0,0,,,,,,,,,10,,47,0
41310,note_on,0,0,0,,,,,,,,,0,,61,100
41310,note_on,0,0,0,,,,,,,,,8,,61,100
41310,note_on,0,0,0,,,,,,,,,10,,49,100
41310,note_on,0,0,0,,,,,,,,,14,,61,100
41310,note_on,0,0,0,,,,,,,,,15,,61,100
41340,note_on,30,0,0,,,,,,,,,15,,61,0
41340,note_on,0,0,0,,,,,,,,,14,,61,0
41340,note_on,0,0,0,,,,,,,,,8,,61,0
41340,note_on,0,0,0,,,,,,,,,10,,49,0
41340,note_on,0,0,0,,,,,,,,,0,,61,0
41340,note_on,0,0,0,,,,,,,,,0,,74,100
41340,note_on,0,0,0,,,,,,,,,0,,59,100
41340,note_on,0,0,0,,,,,,,,,5,,74,100
41340,note_on,0,0,0,,,,,,,,,8,,59,100
41340,note_on,0,0,0,,,,,,,,,10,,47,100
41340,note_on,0,0,0,,,,,,,,,13,,74,100
41340,note_on,0,0,0,,,,,,,,,14,,59,100
41340,note_on,0,0,0,,,,,,,,,15,,59,100
41370,note_on,30,0,0,,,,,,,,,15,,59,0
41370,note_on,0,0,0,,,,,,,,,0,,74,0
41370,note_on,0,0,0,,,,,,,,,10,,47,0
41370,note_on,0,0,0,,,,,,,,,5,,74,0
41370,note_on,0,0,0,,,,,,,,,0,,59,0
41370,note_on,0,0,0,,,,,,,,,8,,59,0
41370,note_on,0,0,0,,,,,,,,,14,,59,0
41370,note_on,0,0,0,,,,,,,,,13,,74,0
41385,note_on,15,0,0,,,,,,,,,15,,68,0
41385,note_on,0,0,0,,,,,,,,,7,,61,0
41385,note_on,0,0,0,,,,,,,,,6,,66,0
41385,note_on,0,0,0,,,,,,,,,13,,66,0
41385,note_on,0,0,0,,,,,,,,,15,,64,0
41400,note_on,15,0,0,,,,,,,,,0,,83,100
41400,note_on,0,0,0,,,,,,,,,0,,52,100
41400,note_on,0,0,0,,,,,,,,,5,,83,100
41400,note_on,0,0,0,,,,,,,,,6,,68,100
41400,note_on,0,0,0,,,,,,,,,7,,59,100
41400,note_on,0,0,0,,,,,,,,,8,,52,100
41400,note_on,0,0,0,,,,,,,,,10,,40,100
41400,note_on,0,0,0,,,,,,,,,13,,68,100
41400,note_on,0,0,0,,,,,,,,,13,,83,100
41400,note_on,0,0,0,,,,,,,,,14,,52,100
41400,note_on,0,0,0,,,,,,,,,15,,59,100
41400,note_on,0,0,0,,,,,,,,,15,,64,100
41400,note_on,0,0,0,,,,,,,,,15,,68,100
41400,note_on,0,0,0,,,,,,,,,15,,52,100
41430,note_on,30,0,0,,,,,,,,,13,,83,0
41430,note_on,0,0,0,,,,,,,,,7,,59,0
41430,note_on,0,0,0,,,,,,,,,5,,83,0
41430,note_on,0,0,0,,,,,,,,,0,,83,0
41430,note_on,0,0,0,,,,,,,,,7,,61,100
41460,note_on,30,0,0,,,,,,,,,7,,61,0
41460,note_on,0,0,0,,,,,,,,,0,,74,100
41460,note_on,0,0,0,,,,,,,,,5,,74,100
41460,note_on,0,0,0,,,,,,,,,7,,59,100
41460,note_on,0,0,0,,,,,,,,,13,,74,100
41490,note_on,30,0,0,,,,,,,,,13,,74,0
41490,note_on,0,0,0,,,,,,,,,7,,59,0
41490,note_on,0,0,0,,,,,,,,,0,,74,0
41490,note_on,0,0,0,,,,,,,,,5,,74,0
41505,note_on,15,0,0,,,,,,,,,15,,64,0
41505,note_on,0,0,0,,,,,,,,,6,,68,0
41505,note_on,0,0,0,,,,,,,,,13,,68,0
41505,note_on,0,0,0,,,,,,,,,0,,52,0
41505,note_on,0,0,0,,,,,,,,,8,,52,0
41505,note_on,0,0,0,,,,,,,,,15,,52,0
41505,note_on,0,0,0,,,,,,,,,14,,52,0
41505,note_on,0,0,0,,,,,,,,,10,,40,0
41505,note_on,0,0,0,,,,,,,,,15,,68,0
41505,note_on,0,0,0,,,,,,,,,15,,59,0
41520,note_on,15,0,0,,,,,,,,,0,,73,100
41520,note_on,0,0,0,,,,,,,,,5,,73,100
41520,note_on,0,0,0,,,,,,,,,6,,69,100
41520,note_on,0,0,0,,,,,,,,,7,,57,100
41520,note_on,0,0,0,,,,,,,,,13,,69,100
41520,note_on,0,0,0,,,,,,,,,13,,73,100
41550,note_on,30,0,0,,,,,,,,,13,,73,0
41550,note_on,0,0,0,,,,,,,,,5,,73,0
41550,note_on,0,0,0,,,,,,,,,0,,73,0
41550,note_on,0,0,0,,,,,,,,,6,,69,0
41550,note_on,0,0,0,,,,,,,,,13,,69,0
41550,note_on,0,0,0,,,,,,,,,0,,74,100
41550,note_on,0,0,0,,,,,,,,,5,,74,100
41550,note_on,0,0,0,,,,,,,,,6,,71,100
41550,note_on,0,0,0,,,,,,,,,13,,71,100
41550,note_on,0,0,0,,,,,,,,,13,,74,100
41580,note_on,30,0,0,,,,,,,,,13,,74,0
41580,note_on,0,0,0,,,,,,,,,0,,74,0
41580,note_on,0,0,0,,,,,,,,,5,,74,0
41580,note_on,0,0,0,,,,,,,,,6,,71,0
41580,note_on,0,0,0,,,,,,,,,13,,71,0
41580,note_on,0,0,0,,,,,,,,,0,,73,100
41580,note_on,0,0,0,,,,,,,,,5,,73,100
41580,note_on,0,0,0,,,,,,,,,6,,69,100
41580,note_on,0,0,0,,,,,,,,,13,,69,100
41580,note_on,0,0,0,,,,,,,,,13,,73,100
41610,note_on,30,0,0,,,,,,,,,13,,73,0
41610,note_on,0,0,0,,,,,,,,,0,,73,0
41610,note_on,0,0,0,,,,,,,,,5,,73,0
41610,note_on,0,0,0,,,,,,,,,6,,69,0
41610,note_on,0,0,0,,,,,,,,,13,,69,0
41625,note_on,15,0,0,,,,,,,,,7,,57,0
41640,note_on,15,0,0,,,,,,,,,0,,81,100
41640,note_on,0,0,0,,,,,,,,,5,,81,100
41640,note_on,0,0,0,,,,,,,,,6,,64,100
41640,note_on,0,0,0,,,,,,,,,7,,61,100
41640,note_on,0,0,0,,,,,,,,,13,,64,100
41640,note_on,0,0,0,,,,,,,,,13,,81,100
41670,note_on,30,0,0,,,,,,,,,13,,81,0
41670,note_on,0,0,0,,,,,,,,,5,,81,0
41670,note_on,0,0,0,,,,,,,,,6,,64,0
41670,note_on,0,0,0,,,,,,,,,0,,81,0
41670,note_on,0,0,0,,,,,,,,,13,,64,0
41670,note_on,0,0,0,,,,,,,,,7,,61,0
41670,note_on,0,0,0,,,,,,,,,7,,62,100
41700,note_on,30,0,0,,,,,,,,,7,,62,0
41700,note_on,0,0,0,,,,,,,,,0,,73,100
41700,note_on,0,0,0,,,,,,,,,5,,73,100
41700,note_on,0,0,0,,,,,,,,,6,,69,100
41700,note_on,0,0,0,,,,,,,,,7,,61,100
41700,note_on,0,0,0,,,,,,,,,13,,69,100
41700,note_on,0,0,0,,,,,,,,,13,,73,100
41730,note_on,30,0,0,,,,,,,,,13,,73,0
41730,note_on,0,0,0,,,,,,,,,5,,73,0
41730,note_on,0,0,0,,,,,,,,,6,,69,0
41730,note_on,0,0,0,,,,,,,,,0,,73,0
41730,note_on,0,0,0,,,,,,,,,13,,69,0
41730,note_on,0,0,0,,,,,,,,,7,,61,0
41760,note_on,30,0,0,,,,,,,,,0,,71,100
41760,note_on,0,0,0,,,,,,,,,5,,71,100
41760,note_on,0,0,0,,,,,,,,,6,,68,100
41760,note_on,0,0,0,,,,,,,,,7,,64,100
41760,note_on,0,0,0,,,,,,,,,13,,68,100
41760,note_on,0,0,0,,,,,,,,,13,,71,100
41790,note_on,30,0,0,,,,,,,,,13,,71,0
41790,note_on,0,0,0,,,,,,,,,5,,71,0
41790,note_on,0,0,0,,,,,,,,,0,,71,0
41790,note_on,0,0,0,,,,,,,,,6,,68,0
41790,note_on,0,0,0,,,,,,,,,13,,68,0
41820,note_on,30,0,0,,,,,,,,,0,,76,100
41820,note_on,0,0,0,,,,,,,,,5,,76,100
41820,note_on,0,0,0,,,,,,,,,6,,73,100
41820,note_on,0,0,0,,,,,,,,,13,,73,100
41820,note_on,0,0,0,,,,,,,,,13,,76,100
41850,note_on,30,0,0,,,,,,,,,13,,76,0
41850,note_on,0,0,0,,,,,,,,,0,,76,0
41850,note_on,0,0,0,,,,,,,,,5,,76,0
41850,note_on,0,0,0,,,,,,,,,6,,73,0
41850,note_on,0,0,0,,,,,,,,,13,,73,0
41865,note_on,15,0,0,,,,,,,,,7,,64,0
41880,note_on,15,0,0,,,,,,,,,0,,71,100
41880,note_on,0,0,0,,,,,,,,,5,,71,100
41880,note_on,0,0,0,,,,,,,,,6,,68,100
41880,note_on,0,0,0,,,,,,,,,13,,68,100
41880,note_on,0,0,0,,,,,,,,,13,,71,100
41910,note_on,30,0,0,,,,,,,,,13,,71,0
41910,note_on,0,0,0,,,,,,,,,6,,68,0
41910,note_on,0,0,0,,,,,,,,,0,,71,0
41910,note_on,0,0,0,,,,,,,,,5,,71,0
41910,note_on,0,0,0,,,,,,,,,13,,68,0
41940,note_on,30,0,0,,,,,,,,,0,,73,100
41940,note_on,0,0,0,,,,,,,,,5,,73,100
41940,note_on,0,0,0,,,,,,,,,6,,69,100
41940,note_on,0,0,0,,,,,,,,,7,,69,100
41940,note_on,0,0,0,,,,,,,,,13,,69,100
41940,note_on,0,0,0,,,,,,,,,13,,73,100
41970,note_on,30,0,0,,,,,,,,,13,,73,0
41970,note_on,0,0,0,,,,,,,,,5,,73,0
41970,note_on,0,0,0,,,,,,,,,6,,69,0
41970,note_on,0,0,0,,,,,,,,,0,,73,0
41970,note_on,0,0,0,,,,,,,,,13,,69,0
41970,note_on,0,0,0,,,,,,,,,7,,69,0
42000,note_on,30,0,0,,,,,,,,,0,,74,100
42000,note_on,0,0,0,,,,,,,,,5,,74,100
42000,note_on,0,0,0,,,,,,,,,6,,68,100
42000,note_on,0,0,0,,,,,,,,,7,,71,100
42000,note_on,0,0,0,,,,,,,,,13,,68,100
42000,note_on,0,0,0,,,,,,,,,13,,74,100
42030,note_on,30,0,0,,,,,,,,,13,,74,0
42030,note_on,0,0,0,,,,,,,,,5,,74,0
42030,note_on,0,0,0,,,,,,,,,0,,74,0
42030,note_on,0,0,0,,,,,,,,,7,,71,0
42030,note_on,0,0,0,,,,,,,,,0,,76,100
42030,note_on,0,0,0,,,,,,,,,5,,76,100
42030,note_on,0,0,0,,,,,,,,,7,,73,100
42030,note_on,0,0,0,,,,,,,,,13,,76,100
42060,note_on,30,0,0,,,,,,,,,13,,76,0
42060,note_on,0,0,0,,,,,,,,,5,,76,0
42060,note_on,0,0,0,,,,,,,,,0,,76,0
42060,note_on,0,0,0,,,,,,,,,7,,73,0
42060,note_on,0,0,0,,,,,,,,,0,,74,100
42060,note_on,0,0,0,,,,,,,,,5,,74,100
42060,note_on,0,0,0,,,,,,,,,7,,71,100
42060,note_on,0,0,0,,,,,,,,,13,,74,100
42090,note_on,30,0,0,,,,,,,,,13,,74,0
42090,note_on,0,0,0,,,,,,,,,5,,74,0
42090,note_on,0,0,0,,,,,,,,,0,,74,0
42090,note_on,0,0,0,,,,,,,,,7,,71,0
42105,note_on,15,0,0,,,,,,,,,6,,68,0
42105,note_on,0,0,0,,,,,,,,,13,,68,0
42120,note_on,15,0,0,,,,,,,,,0,,73,100
42120,note_on,0,0,0,,,,,,,,,5,,73,100
42120,note_on,0,0,0,,,,,,,,,7,,69,100
42120,note_on,0,0,0,,,,,,,,,13,,73,100
42150,note_on,30,0,0,,,,,,,,,13,,73,0
42150,note_on,0,0,0,,,,,,,,,0,,73,0
42150,note_on,0,0,0,,,,,,,,,5,,73,0
42150,note_on,0,0,0,,,,,,,,,7,,69,0
42180,note_on,30,0,0,,,,,,,,,0,,71,100
42180,note_on,0,0,0,,,,,,,,,5,,71,100
42180,note_on,0,0,0,,,,,,,,,6,,76,100
42180,note_on,0,0,0,,,,,,,,,7,,68,100
42180,note_on,0,0,0,,,,,,,,,13,,76,100
42180,note_on,0,0,0,,,,,,,,,13,,71,100
42210,note_on,30,0,0,,,,,,,,,13,,71,0
42210,note_on,0,0,0,,,,,,,,,5,,71,0
42210,note_on,0,0,0,,,,,,,,,6,,76,0
42210,note_on,0,0,0,,,,,,,,,0,,71,0
42210,note_on,0,0,0,,,,,,,,,13,,76,0
42210,note_on,0,0,0,,,,,,,,,7,,68,0
42240,note_on,30,0,0,,,,,,,,,0,,57,100
42240,note_on,0,0,0,,,,,,,,,0,,73,100
42240,note_on,0,0,0,,,,,,,,,5,,73,100
42240,note_on,0,0,0,,,,,,,,,6,,76,100
42240,note_on,0,0,0,,,,,,,,,7,,73,100
42240,note_on,0,0,0,,,,,,,,,8,,57,100
42240,note_on,0,0,0,,,,,,,,,10,,45,100
42240,note_on,0,0,0,,,,,,,,,13,,73,100
42240,note_on,0,0,0,,,,,,,,,13,,76,100
42240,note_on,0,0,0,,,,,,,,,14,,57,100
42240,note_on,0,0,0,,,,,,,,,15,,64,100
42240,note_on,0,0,0,,,,,,,,,15,,69,100
42240,note_on,0,0,0,,,,,,,,,15,,73,100
42240,note_on,0,0,0,,,,,,,,,15,,57,100
42270,note_on,30,0,0,,,,,,,,,13,,76,0
42270,note_on,0,0,0,,,,,,,,,7,,73,0
42285,note_on,15,0,0,,,,,,,,,6,,76,0
42300,note_on,15,0,0,,,,,,,,,6,,74,100
42300,note_on,0,0,0,,,,,,,,,7,,71,100
42300,note_on,0,0,0,,,,,,,,,13,,74,100
42315,note_on,15,0,0,,,,,,,,,13,,73,0
42330,note_on,15,0,0,,,,,,,,,0,,73,0
42330,note_on,0,0,0,,,,,,,,,13,,74,0
42330,note_on,0,0,0,,,,,,,,,6,,74,0
42330,note_on,0,0,0,,,,,,,,,7,,71,0
42330,note_on,0,0,0,,,,,,,,,6,,73,100
42330,note_on,0,0,0,,,,,,,,,7,,69,100
42330,note_on,0,0,0,,,,,,,,,13,,73,100
42345,note_on,15,0,0,,,,,,,,,5,,73,0
42350,note_on,5,0,0,,,,,,,,,15,,69,0
42350,note_on,0,0,0,,,,,,,,,15,,64,0
42350,note_on,0,0,0,,,,,,,,,15,,73,0
42360,note_on,10,0,0,,,,,,,,,7,,69,0
42360,note_on,0,0,0,,,,,,,,,6,,73,0
42360,note_on,0,0,0,,,,,,,,,13,,73,0
42360,note_on,0,0,0,,,,,,,,,0,,76,100
42360,note_on,0,0,0,,,,,,,,,5,,76,100
42360,note_on,0,0,0,,,,,,,,,6,,71,100
42360,note_on,0,0,0,,,,,,,,,7,,68,100
42360,note_on,0,0,0,,,,,,,,,13,,71,100
42360,note_on,0,0,0,,,,,,,,,13,,76,100
42360,note_on,0,0,0,,,,,,,,,15,,69,100
42360,note_on,0,0,0,,,,,,,,,15,,66,100
42360,note_on,0,0,0,,,,,,,,,15,,74,100
42390,note_on,30,0,0,,,,,,,,,13,,71,0
42390,note_on,0,0,0,,,,,,,,,7,,68,0
42390,note_on,0,0,0,,,,,,,,,8,,57,0
42390,note_on,0,0,0,,,,,,,,,15,,57,0
42390,note_on,0,0,0,,,,,,,,,0,,57,0
42390,note_on,0,0,0,,,,,,,,,6,,71,0
42390,note_on,0,0,0,,,,,,,,,10,,45,0
42390,note_on,0,0,0,,,,,,,,,14,,57,0
42420,note_on,30,0,0,,,,,,,,,0,,57,100
42420,note_on,0,0,0,,,,,,,,,6,,69,100
42420,note_on,0,0,0,,,,,,,,,7,,66,100
42420,note_on,0,0,0,,,,,,,,,8,,57,100
42420,note_on,0,0,0,,,,,,,,,10,,45,100
42420,note_on,0,0,0,,,,,,,,,13,,69,100
42420,note_on,0,0,0,,,,,,,,,14,,57,100
42420,note_on,0,0,0,,,,,,,,,15,,57,100
42450,note_on,30,0,0,,,,,,,,,15,,57,0
42450,note_on,0,0,0,,,,,,,,,8,,57,0
42450,note_on,0,0,0,,,,,,,,,0,,76,0
42450,note_on,0,0,0,,,,,,,,,0,,57,0
42450,note_on,0,0,0,,,,,,,,,7,,66,0
42450,note_on,0,0,0,,,,,,,,,6,,69,0
42450,note_on,0,0,0,,,,,,,,,14,,57,0
42450,note_on,0,0,0,,,,,,,,,10,,45,0
42450,note_on,0,0,0,,,,,,,,,13,,69,0
42465,note_on,15,0,0,,,,,,,,,5,,76,0
42465,note_on,0,0,0,,,,,,,,,13,,76,0
42470,note_on,5,0,0,,,,,,,,,15,,66,0
42470,note_on,0,0,0,,,,,,,,,15,,69,0
42470,note_on,0,0,0,,,,,,,,,15,,74,0
42480,note_on,10,0,0,,,,,,,,,0,,64,100
42480,note_on,0,0,0,,,,,,,,,6,,71,100
42480,note_on,0,0,0,,,,,,,,,7,,68,100
42480,note_on,0,0,0,,,,,,,,,8,,64,100
42480,note_on,0,0,0,,,,,,,,,10,,52,100
42480,note_on,0,0,0,,,,,,,,,13,,68,100
42480,note_on,0,0,0,,,,,,,,,13,,71,100
42480,note_on,0,0,0,,,,,,,,,14,,64,100
42480,note_on,0,0,0,,,,,,,,,15,,68,100
42480,note_on,0,0,0,,,,,,,,,15,,74,100
42480,note_on,0,0,0,,,,,,,,,15,,64,100
42540,note_on,60,0,0,,,,,,,,,0,,80,100
42540,note_on,0,0,0,,,,,,,,,5,,80,100
42570,note_on,30,0,0,,,,,,,,,5,,80,0
42570,note_on,0,0,0,,,,,,,,,0,,80,0
42585,note_on,15,0,0,,,,,,,,,6,,71,0
42585,note_on,0,0,0,,,,,,,,,7,,68,0
42585,note_on,0,0,0,,,,,,,,,14,,64,0
42585,note_on,0,0,0,,,,,,,,,8,,64,0
42585,note_on,0,0,0,,,,,,,,,0,,64,0
42585,note_on,0,0,0,,,,,,,,,10,,52,0
42585,note_on,0,0,0,,,,,,,,,15,,64,0
42585,note_on,0,0,0,,,,,,,,,13,,71,0
42585,note_on,0,0,0,,,,,,,,,13,,68,0
42590,note_on,5,0,0,,,,,,,,,15,,68,0
42590,note_on,0,0,0,,,,,,,,,15,,74,0
42598,control_change,8,0,0,,,,,,,11,126,13,,,
42600,note_on,2,0,0,,,,,,,,,0,,81,100
42600,note_on,0,0,0,,,,,,,,,0,,61,100
42600,note_on,0,0,0,,,,,,,,,5,,81,100
42600,note_on,0,0,0,,,,,,,,,6,,76,100
42600,note_on,0,0,0,,,,,,,,,7,,64,100
42600,note_on,0,0,0,,,,,,,,,8,,61,100
42600,note_on,0,0,0,,,,,,,,,10,,49,100
42600,note_on,0,0,0,,,,,,,,,13,,76,100
42600,note_on,0,0,0,,,,,,,,,14,,61,100
42600,note_on,0,0,0,,,,,,,,,15,,69,100
42600,note_on,0,0,0,,,,,,,,,15,,76,100
42600,note_on,0,0,0,,,,,,,,,15,,64,100
42600,note_on,0,0,0,,,,,,,,,15,,61,100
42630,note_on,30,0,0,,,,,,,,,5,,81,0
42630,note_on,0,0,0,,,,,,,,,0,,81,0
42660,note_on,30,0,0,,,,,,,,,0,,83,100
42660,note_on,0,0,0,,,,,,,,,5,,83,100
42690,note_on,30,0,0,,,,,,,,,5,,83,0
42690,note_on,0,0,0,,,,,,,,,0,,83,0
42705,note_on,15,0,0,,,,,,,,,15,,61,0
42705,note_on,0,0,0,,,,,,,,,13,,76,0
42705,note_on,0,0,0,,,,,,,,,0,,61,0
42705,note_on,0,0,0,,,,,,,,,7,,64,0
42705,note_on,0,0,0,,,,,,,,,6,,76,0
42705,note_on,0,0,0,,,,,,,,,10,,49,0
42705,note_on,0,0,0,,,,,,,,,14,,61,0
42705,note_on,0,0,0,,,,,,,,,8,,61,0
42710,note_on,5,0,0,,,,,,,,,15,,69,0
42710,note_on,0,0,0,,,,,,,,,15,,76,0
42710,note_on,0,0,0,,,,,,,,,15,,64,0
42720,note_on,10,0,0,,,,,,,,,0,,85,100
42720,note_on,0,0,0,,,,,,,,,5,,85,100
42720,note_on,0,0,0,,,,,,,,,7,,69,100
42720,note_on,0,0,0,,,,,,,,,15,,64,100
42720,note_on,0,0,0,,,,,,,,,15,,69,100
42720,note_on,0,0,0,,,,,,,,,15,,61,100
42750,note_on,30,0,0,,,,,,,,,5,,85,0
42750,note_on,0,0,0,,,,,,,,,0,,85,0
42750,note_on,0,0,0,,,,,,,,,0,,86,100
42750,note_on,0,0,0,,,,,,,,,5,,86,100
42780,note_on,30,0,0,,,,,,,,,5,,86,0
42780,note_on,0,0,0,,,,,,,,,0,,86,0
42780,note_on,0,0,0,,,,,,,,,0,,85,100
42780,note_on,0,0,0,,,,,,,,,0,,57,100
42780,note_on,0,0,0,,,,,,,,,5,,85,100
42780,note_on,0,0,0,,,,,,,,,6,,76,100
42780,note_on,0,0,0,,,,,,,,,8,,57,100
42780,note_on,0,0,0,,,,,,,,,10,,45,100
42780,note_on,0,0,0,,,,,,,,,13,,76,100
42780,note_on,0,0,0,,,,,,,,,14,,57,100
42780,note_on,0,0,0,,,,,,,,,15,,57,100
42810,note_on,30,0,0,,,,,,,,,15,,57,0
42810,note_on,0,0,0,,,,,,,,,0,,57,0
42810,note_on,0,0,0,,,,,,,,,10,,45,0
42810,note_on,0,0,0,,,,,,,,,6,,76,0
42810,note_on,0,0,0,,,,,,,,,5,,85,0
42810,note_on,0,0,0,,,,,,,,,8,,57,0
42810,note_on,0,0,0,,,,,,,,,14,,57,0
42810,note_on,0,0,0,,,,,,,,,0,,85,0
42810,note_on,0,0,0,,,,,,,,,13,,76,0
42825,note_on,15,0,0,,,,,,,,,7,,69,0
42830,note_on,5,0,0,,,,,,,,,15,,69,0
42830,note_on,0,0,0,,,,,,,,,15,,64,0
42830,note_on,0,0,0,,,,,,,,,15,,61,0
42840,note_on,10,0,0,,,,,,,,,0,,78,100
42840,note_on,0,0,0,,,,,,,,,0,,62,100
42840,note_on,0,0,0,,,,,,,,,5,,78,100
42840,note_on,0,0,0,,,,,,,,,6,,74,100
42840,note_on,0,0,0,,,,,,,,,7,,69,100
42840,note_on,0,0,0,,,,,,,,,8,,62,100
42840,note_on,0,0,0,,,,,,,,,10,,50,100
42840,note_on,0,0,0,,,,,,,,,13,,74,100
42840,note_on,0,0,0,,,,,,,,,14,,62,100
42840,note_on,0,0,0,,,,,,,,,15,,68,100
42840,note_on,0,0,0,,,,,,,,,15,,64,100
42840,note_on,0,0,0,,,,,,,,,15,,74,100
42840,note_on,0,0,0,,,,,,,,,15,,62,100
42870,note_on,30,0,0,,,,,,,,,15,,62,0
42870,note_on,0,0,0,,,,,,,,,13,,74,0
42870,note_on,0,0,0,,,,,,,,,10,,50,0
42870,note_on,0,0,0,,,,,,,,,0,,62,0
42870,note_on,0,0,0,,,,,,,,,14,,62,0
42870,note_on,0,0,0,,,,,,,,,8,,62,0
42870,note_on,0,0,0,,,,,,,,,6,,74,0
42900,note_on,30,0,0,,,,,,,,,0,,50,100
42900,note_on,0,0,0,,,,,,,,,6,,73,100
42900,note_on,0,0,0,,,,,,,,,8,,50,100
42900,note_on,0,0,0,,,,,,,,,10,,38,100
42900,note_on,0,0,0,,,,,,,,,13,,73,100
42900,note_on,0,0,0,,,,,,,,,14,,50,100
42900,note_on,0,0,0,,,,,,,,,15,,50,100
42930,note_on,30,0,0,,,,,,,,,15,,50,0
42930,note_on,0,0,0,,,,,,,,,10,,38,0
42930,note_on,0,0,0,,,,,,,,,0,,50,0
42930,note_on,0,0,0,,,,,,,,,8,,50,0
42930,note_on,0,0,0,,,,,,,,,6,,73,0
42930,note_on,0,0,0,,,,,,,,,14,,50,0
42930,note_on,0,0,0,,,,,,,,,13,,73,0
42945,note_on,15,0,0,,,,,,,,,0,,78,0
42945,note_on,0,0,0,,,,,,,,,5,,78,0
42945,note_on,0,0,0,,,,,,,,,7,,69,0
42950,note_on,5,0,0,,,,,,,,,15,,74,0
42950,note_on,0,0,0,,,,,,,,,15,,64,0
42950,note_on,0,0,0,,,,,,,,,15,,68,0
42960,note_on,10,0,0,,,,,,,,,0,,62,100
42960,note_on,0,0,0,,,,,,,,,6,,74,100
42960,note_on,0,0,0,,,,,,,,,7,,71,100
42960,note_on,0,0,0,,,,,,,,,8,,62,100
42960,note_on,0,0,0,,,,,,,,,10,,50,100
42960,note_on,0,0,0,,,,,,,,,13,,74,100
42960,note_on,0,0,0,,,,,,,,,14,,62,100
42960,note_on,0,0,0,,,,,,,,,15,,69,100
42960,note_on,0,0,0,,,,,,,,,15,,66,100
42960,note_on,0,0,0,,,,,,,,,15,,74,100
42960,note_on,0,0,0,,,,,,,,,15,,62,100
43020,note_on,60,0,0,,,,,,,,,0,,78,100
43020,note_on,0,0,0,,,,,,,,,5,,78,100
43035,note_on,15,0,0,,,,,,,,,13,,74,0
43035,note_on,0,0,0,,,,,,,,,6,,74,0
43050,note_on,15,0,0,,,,,,,,,0,,78,0
43050,note_on,0,0,0,,,,,,,,,5,,78,0
43065,note_on,15,0,0,,,,,,,,,8,,62,0
43065,note_on,0,0,0,,,,,,,,,0,,62,0
43065,note_on,0,0,0,,,,,,,,,15,,62,0
43065,note_on,0,0,0,,,,,,,,,14,,62,0
43065,note_on,0,0,0,,,,,,,,,10,,50,0
43065,note_on,0,0,0,,,,,,,,,15,,74,0
43065,note_on,0,0,0,,,,,,,,,15,,66,0
43070,note_on,5,0,0,,,,,,,,,15,,69,0
43080,note_on,10,0,0,,,,,,,,,0,,80,100
43080,note_on,0,0,0,,,,,,,,,0,,59,100
43080,note_on,0,0,0,,,,,,,,,5,,80,100
43080,note_on,0,0,0,,,,,,,,,6,,74,100
43080,note_on,0,0,0,,,,,,,,,8,,59,100
43080,note_on,0,0,0,,,,,,,,,10,,47,100
43080,note_on,0,0,0,,,,,,,,,13,,74,100
43080,note_on,0,0,0,,,,,,,,,14,,59,100
43080,note_on,0,0,0,,,,,,,,,15,,64,100
43080,note_on,0,0,0,,,,,,,,,15,,68,100
43080,note_on,0,0,0,,,,,,,,,15,,74,100
43080,note_on,0,0,0,,,,,,,,,15,,59,100
43110,note_on,30,0,0,,,,,,,,,5,,80,0
43110,note_on,0,0,0,,,,,,,,,0,,80,0
43140,note_on,30,0,0,,,,,,,,,0,,81,100
43140,note_on,0,0,0,,,,,,,,,5,,81,100
43170,note_on,30,0,0,,,,,,,,,5,,81,0
43170,note_on,0,0,0,,,,,,,,,0,,81,0
43185,note_on,15,0,0,,,,,,,,,15,,74,0
43185,note_on,0,0,0,,,,,,,,,15,,64,0
43185,note_on,0,0,0,,,,,,,,,10,,47,0
43185,note_on,0,0,0,,,,,,,,,14,,59,0
43185,note_on,0,0,0,,,,,,,,,15,,68,0
43185,note_on,0,0,0,,,,,,,,,8,,59,0
43185,note_on,0,0,0,,,,,,,,,0,,59,0
43185,note_on,0,0,0,,,,,,,,,15,,59,0
43200,note_on,15,0,0,,,,,,,,,0,,83,100
43200,note_on,0,0,0,,,,,,,,,5,,83,100
43200,note_on,0,0,0,,,,,,,,,15,,59,100
43200,note_on,0,0,0,,,,,,,,,15,,62,100
43200,note_on,0,0,0,,,,,,,,,15,,68,100
43230,note_on,30,0,0,,,,,,,,,5,,83,0
43230,note_on,0,0,0,,,,,,,,,0,,83,0
43230,note_on,0,0,0,,,,,,,,,6,,74,0
43230,note_on,0,0,0,,,,,,,,,13,,74,0
43230,note_on,0,0,0,,,,,,,,,0,,85,100
43230,note_on,0,0,0,,,,,,,,,5,,85,100
43260,note_on,30,0,0,,,,,,,,,5,,85,0
43260,note_on,0,0,0,,,,,,,,,0,,85,0
43260,note_on,0,0,0,,,,,,,,,0,,56,100
43260,note_on,0,0,0,,,,,,,,,0,,83,100
43260,note_on,0,0,0,,,,,,,,,5,,83,100
43260,note_on,0,0,0,,,,,,,,,6,,74,100
43260,note_on,0,0,0,,,,,,,,,8,,56,100
43260,note_on,0,0,0,,,,,,,,,10,,44,100
43260,note_on,0,0,0,,,,,,,,,13,,74,100
43260,note_on,0,0,0,,,,,,,,,14,,56,100
43260,note_on,0,0,0,,,,,,,,,15,,56,100
43290,note_on,30,0,0,,,,,,,,,15,,56,0
43290,note_on,0,0,0,,,,,,,,,0,,83,0
43290,note_on,0,0,0,,,,,,,,,10,,44,0
43290,note_on,0,0,0,,,,,,,,,6,,74,0
43290,note_on,0,0,0,,,,,,,,,5,,83,0
43290,note_on,0,0,0,,,,,,,,,7,,71,0
43290,note_on,0,0,0,,,,,,,,,8,,56,0
43290,note_on,0,0,0,,,,,,,,,0,,56,0
43290,note_on,0,0,0,,,,,,,,,13,,74,0
43290,note_on,0,0,0,,,,,,,,,14,,56,0
43305,note_on,15,0,0,,,,,,,,,15,,68,0
43305,note_on,0,0,0,,,,,,,,,15,,59,0
43305,note_on,0,0,0,,,,,,,,,15,,62,0
43320,note_on,15,0,0,,,,,,,,,0,,61,100
43320,note_on,0,0,0,,,,,,,,,0,,76,100
43320,note_on,0,0,0,,,,,,,,,5,,76,100
43320,note_on,0,0,0,,,,,,,,,6,,73,100
43320,note_on,0,0,0,,,,,,,,,7,,68,100
43320,note_on,0,0,0,,,,,,,,,8,,61,100
43320,note_on,0,0,0,,,,,,,,,10,,49,100
43320,note_on,0,0,0,,,,,,,,,13,,73,100
43320,note_on,0,0,0,,,,,,,,,14,,61,100
43320,note_on,0,0,0,,,,,,,,,15,,73,100
43320,note_on,0,0,0,,,,,,,,,15,,69,100
43320,note_on,0,0,0,,,,,,,,,15,,66,100
43320,note_on,0,0,0,,,,,,,,,15,,61,100
43350,note_on,30,0,0,,,,,,,,,15,,61,0
43350,note_on,0,0,0,,,,,,,,,13,,73,0
43350,note_on,0,0,0,,,,,,,,,10,,49,0
43350,note_on,0,0,0,,,,,,,,,0,,61,0
43350,note_on,0,0,0,,,,,,,,,14,,61,0
43350,note_on,0,0,0,,,,,,,,,8,,61,0
43350,note_on,0,0,0,,,,,,,,,6,,73,0
43380,note_on,30,0,0,,,,,,,,,0,,49,100
43380,note_on,0,0,0,,,,,,,,,6,,71,100
43380,note_on,0,0,0,,,,,,,,,8,,49,100
43380,note_on,0,0,0,,,,,,,,,10,,37,100
43380,note_on,0,0,0,,,,,,,,,13,,71,100
43380,note_on,0,0,0,,,,,,,,,14,,49,100
43380,note_on,0,0,0,,,,,,,,,15,,49,100
43410,note_on,30,0,0,,,,,,,,,15,,49,0
43410,note_on,0,0,0,,,,,,,,,10,,37,0
43410,note_on,0,0,0,,,,,,,,,0,,49,0
43410,note_on,0,0,0,,,,,,,,,8,,49,0
43410,note_on,0,0,0,,,,,,,,,6,,71,0
43410,note_on,0,0,0,,,,,,,,,14,,49,0
43410,note_on,0,0,0,,,,,,,,,13,,71,0
43425,note_on,15,0,0,,,,,,,,,0,,76,0
43425,note_on,0,0,0,,,,,,,,,15,,66,0
43425,note_on,0,0,0,,,,,,,,,15,,69,0
43425,note_on,0,0,0,,,,,,,,,5,,76,0
43425,note_on,0,0,0,,,,,,,,,15,,73,0
43440,note_on,15,0,0,,,,,,,,,0,,61,100
43440,note_on,0,0,0,,,,,,,,,6,,73,100
43440,note_on,0,0,0,,,,,,,,,8,,61,100
43440,note_on,0,0,0,,,,,,,,,10,,49,100
43440,note_on,0,0,0,,,,,,,,,13,,73,100
43440,note_on,0,0,0,,,,,,,,,14,,61,100
43440,note_on,0,0,0,,,,,,,,,15,,71,100
43440,note_on,0,0,0,,,,,,,,,15,,68,100
43440,note_on,0,0,0,,,,,,,,,15,,64,100
43440,note_on,0,0,0,,,,,,,,,15,,61,100
43500,note_on,60,0,0,,,,,,,,,0,,76,100
43500,note_on,0,0,0,,,,,,,,,5,,76,100
43515,note_on,15,0,0,,,,,,,,,13,,73,0
43515,note_on,0,0,0,,,,,,,,,6,,73,0
43530,note_on,15,0,0,,,,,,,,,7,,68,0
43530,note_on,0,0,0,,,,,,,,,0,,76,0
43530,note_on,0,0,0,,,,,,,,,5,,76,0
43545,note_on,15,0,0,,,,,,,,,10,,49,0
43545,note_on,0,0,0,,,,,,,,,0,,61,0
43545,note_on,0,0,0,,,,,,,,,14,,61,0
43545,note_on,0,0,0,,,,,,,,,15,,68,0
43545,note_on,0,0,0,,,,,,,,,15,,64,0
43545,note_on,0,0,0,,,,,,,,,15,,71,0
43545,note_on,0,0,0,,,,,,,,,8,,61,0
43545,note_on,0,0,0,,,,,,,,,15,,61,0
43560,note_on,15,0,0,,,,,,,,,0,,78,100
43560,note_on,0,0,0,,,,,,,,,0,,57,100
43560,note_on,0,0,0,,,,,,,,,5,,78,100
43560,note_on,0,0,0,,,,,,,,,6,,73,100
43560,note_on,0,0,0,,,,,,,,,7,,69,100
43560,note_on,0,0,0,,,,,,,,,8,,57,100
43560,note_on,0,0,0,,,,,,,,,10,,45,100
43560,note_on,0,0,0,,,,,,,,,13,,73,100
43560,note_on,0,0,0,,,,,,,,,14,,57,100
43560,note_on,0,0,0,,,,,,,,,15,,64,100
43560,note_on,0,0,0,,,,,,,,,15,,69,100
43560,note_on,0,0,0,,,,,,,,,15,,73,100
43560,note_on,0,0,0,,,,,,,,,15,,57,100
43590,note_on,30,0,0,,,,,,,,,5,,78,0
43590,note_on,0,0,0,,,,,,,,,0,,78,0
43620,note_on,30,0,0,,,,,,,,,0,,80,100
43620,note_on,0,0,0,,,,,,,,,5,,80,100
43650,note_on,30,0,0,,,,,,,,,5,,80,0
43650,note_on,0,0,0,,,,,,,,,0,,80,0
43665,note_on,15,0,0,,,,,,,,,15,,57,0
43665,note_on,0,0,0,,,,,,,,,14,,57,0
43665,note_on,0,0,0,,,,,,,,,15,,69,0
43665,note_on,0,0,0,,,,,,,,,0,,57,0
43665,note_on,0,0,0,,,,,,,,,15,,64,0
43665,note_on,0,0,0,,,,,,,,,10,,45,0
43665,note_on,0,0,0,,,,,,,,,8,,57,0
43665,note_on,0,0,0,,,,,,,,,15,,73,0
43680,note_on,15,0,0,,,,,,,,,0,,81,100
43680,note_on,0,0,0,,,,,,,,,5,,81,100
43680,note_on,0,0,0,,,,,,,,,15,,73,100
43680,note_on,0,0,0,,,,,,,,,15,,69,100
43680,note_on,0,0,0,,,,,,,,,15,,66,100
43710,note_on,30,0,0,,,,,,,,,5,,81,0
43710,note_on,0,0,0,,,,,,,,,0,,81,0
43710,note_on,0,0,0,,,,,,,,,6,,73,0
43710,note_on,0,0,0,,,,,,,,,13,,73,0
43710,note_on,0,0,0,,,,,,,,,0,,83,100
43710,note_on,0,0,0,,,,,,,,,5,,83,100
43740,note_on,30,0,0,,,,,,,,,5,,83,0
43740,note_on,0,0,0,,,,,,,,,0,,83,0
43740,note_on,0,0,0,,,,,,,,,0,,54,100
43740,note_on,0,0,0,,,,,,,,,0,,81,100
43740,note_on,0,0,0,,,,,,,,,5,,81,100
43740,note_on,0,0,0,,,,,,,,,6,,73,100
43740,note_on,0,0,0,,,,,,,,,8,,54,100
43740,note_on,0,0,0,,,,,,,,,10,,42,100
43740,note_on,0,0,0,,,,,,,,,13,,73,100
43740,note_on,0,0,0,,,,,,,,,14,,54,100
43740,note_on,0,0,0,,,,,,,,,15,,54,100
43770,note_on,30,0,0,,,,,,,,,15,,54,0
43770,note_on,0,0,0,,,,,,,,,0,,81,0
43770,note_on,0,0,0,,,,,,,,,10,,42,0
43770,note_on,0,0,0,,,,,,,,,6,,73,0
43770,note_on,0,0,0,,,,,,,,,5,,81,0
43770,note_on,0,0,0,,,,,,,,,7,,69,0
43770,note_on,0,0,0,,,,,,,,,8,,54,0
43770,note_on,0,0,0,,,,,,,,,0,,54,0
43770,note_on,0,0,0,,,,,,,,,13,,73,0
43770,note_on,0,0,0,,,,,,,,,14,,54,0
43790,note_on,20,0,0,,,,,,,,,15,,66,0
43790,note_on,0,0,0,,,,,,,,,15,,73,0
43790,note_on,0,0,0,,,,,,,,,15,,69,0
43800,note_on,10,0,0,,,,,,,,,0,,59,100
43800,note_on,0,0,0,,,,,,,,,0,,74,100
43800,note_on,0,0,0,,,,,,,,,5,,74,100
43800,note_on,0,0,0,,,,,,,,,6,,71,100
43800,note_on,0,0,0,,,,,,,,,7,,66,100
43800,note_on,0,0,0,,,,,,,,,8,,59,100
43800,note_on,0,0,0,,,,,,,,,10,,47,100
43800,note_on,0,0,0,,,,,,,,,13,,71,100
43800,note_on,0,0,0,,,,,,,,,14,,59,100
43800,note_on,0,0,0,,,,,,,,,15,,74,100
43800,note_on,0,0,0,,,,,,,,,15,,68,100
43800,note_on,0,0,0,,,,,,,,,15,,64,100
43800,note_on,0,0,0,,,,,,,,,15,,59,100
43830,note_on,30,0,0,,,,,,,,,15,,59,0
43830,note_on,0,0,0,,,,,,,,,13,,71,0
43830,note_on,0,0,0,,,,,,,,,10,,47,0
43830,note_on,0,0,0,,,,,,,,,0,,59,0
43830,note_on,0,0,0,,,,,,,,,14,,59,0
43830,note_on,0,0,0,,,,,,,,,8,,59,0
43830,note_on,0,0,0,,,,,,,,,6,,71,0
43860,note_on,30,0,0,,,,,,,,,0,,47,100
43860,note_on,0,0,0,,,,,,,,,6,,69,100
43860,note_on,0,0,0,,,,,,,,,8,,47,100
43860,note_on,0,0,0,,,,,,,,,10,,35,100
43860,note_on,0,0,0,,,,,,,,,13,,69,100
43860,note_on,0,0,0,,,,,,,,,14,,47,100
43860,note_on,0,0,0,,,,,,,,,15,,47,100
43890,note_on,30,0,0,,,,,,,,,15,,47,0
43890,note_on,0,0,0,,,,,,,,,10,,35,0
43890,note_on,0,0,0,,,,,,,,,0,,47,0
43890,note_on,0,0,0,,,,,,,,,8,,47,0
43890,note_on,0,0,0,,,,,,,,,6,,69,0
43890,note_on,0,0,0,,,,,,,,,14,,47,0
43890,note_on,0,0,0,,,,,,,,,13,,69,0
43905,note_on,15,0,0,,,,,,,,,0,,74,0
43905,note_on,0,0,0,,,,,,,,,5,,74,0
43910,note_on,5,0,0,,,,,,,,,15,,68,0
43910,note_on,0,0,0,,,,,,,,,15,,64,0
43910,note_on,0,0,0,,,,,,,,,15,,74,0
43920,note_on,10,0,0,,,,,,,,,0,,59,100
43920,note_on,0,0,0,,,,,,,,,6,,71,100
43920,note_on,0,0,0,,,,,,,,,8,,59,100
43920,note_on,0,0,0,,,,,,,,,10,,47,100
43920,note_on,0,0,0,,,,,,,,,13,,71,100
43920,note_on,0,0,0,,,,,,,,,14,,59,100
43920,note_on,0,0,0,,,,,,,,,15,,74,100
43920,note_on,0,0,0,,,,,,,,,15,,64,100
43920,note_on,0,0,0,,,,,,,,,15,,68,100
43920,note_on,0,0,0,,,,,,,,,15,,59,100
43950,note_on,30,0,0,,,,,,,,,13,,71,0
43950,note_on,0,0,0,,,,,,,,,6,,71,0
43971,control_change,21,0,0,,,,,,,11,117,13,,,
43980,note_on,9,0,0,,,,,,,,,0,,74,100
43980,note_on,0,0,0,,,,,,,,,5,,74,100
43980,note_on,0,0,0,,,,,,,,,6,,71,100
43980,note_on,0,0,0,,,,,,,,,13,,71,100
43980,note_on,0,0,0,,,,,,,,,13,,74,100
44010,note_on,30,0,0,,,,,,,,,13,,74,0
44010,note_on,0,0,0,,,,,,,,,0,,74,0
44010,note_on,0,0,0,,,,,,,,,7,,66,0
44010,note_on,0,0,0,,,,,,,,,13,,71,0
44010,note_on,0,0,0,,,,,,,,,5,,74,0
44010,note_on,0,0,0,,,,,,,,,6,,71,0
44025,note_on,15,0,0,,,,,,,,,8,,59,0
44025,note_on,0,0,0,,,,,,,,,0,,59,0
44025,note_on,0,0,0,,,,,,,,,15,,59,0
44025,note_on,0,0,0,,,,,,,,,14,,59,0
44025,note_on,0,0,0,,,,,,,,,10,,47,0
44030,note_on,5,0,0,,,,,,,,,15,,64,0
44030,note_on,0,0,0,,,,,,,,,15,,74,0
44030,note_on,0,0,0,,,,,,,,,15,,68,0
44040,note_on,10,0,0,,,,,,,,,0,,74,100
44040,note_on,0,0,0,,,,,,,,,0,,56,100
44040,note_on,0,0,0,,,,,,,,,5,,74,100
44040,note_on,0,0,0,,,,,,,,,6,,71,100
44040,note_on,0,0,0,,,,,,,,,7,,64,100
44040,note_on,0,0,0,,,,,,,,,8,,56,100
44040,note_on,0,0,0,,,,,,,,,10,,44,100
44040,note_on,0,0,0,,,,,,,,,13,,71,100
44040,note_on,0,0,0,,,,,,,,,13,,74,100
44040,note_on,0,0,0,,,,,,,,,14,,56,100
44040,note_on,0,0,0,,,,,,,,,15,,64,100
44040,note_on,0,0,0,,,,,,,,,15,,62,100
44040,note_on,0,0,0,,,,,,,,,15,,71,100
44040,note_on,0,0,0,,,,,,,,,15,,56,100
44070,note_on,30,0,0,,,,,,,,,13,,74,0
44070,note_on,0,0,0,,,,,,,,,13,,71,0
44070,note_on,0,0,0,,,,,,,,,6,,71,0
44070,note_on,0,0,0,,,,,,,,,5,,74,0
44070,note_on,0,0,0,,,,,,,,,0,,74,0
44070,note_on,0,0,0,,,,,,,,,0,,76,100
44070,note_on,0,0,0,,,,,,,,,5,,76,100
44070,note_on,0,0,0,,,,,,,,,6,,73,100
44070,note_on,0,0,0,,,,,,,,,13,,73,100
44070,note_on,0,0,0,,,,,,,,,13,,76,100
44100,note_on,30,0,0,,,,,,,,,13,,76,0
44100,note_on,0,0,0,,,,,,,,,0,,76,0
44100,note_on,0,0,0,,,,,,,,,13,,73,0
44100,note_on,0,0,0,,,,,,,,,5,,76,0
44100,note_on,0,0,0,,,,,,,,,6,,73,0
44100,note_on,0,0,0,,,,,,,,,0,,74,100
44100,note_on,0,0,0,,,,,,,,,5,,74,100
44100,note_on,0,0,0,,,,,,,,,6,,71,100
44100,note_on,0,0,0,,,,,,,,,13,,71,100
44100,note_on,0,0,0,,,,,,,,,13,,74,100
44130,note_on,30,0,0,,,,,,,,,13,,74,0
44130,note_on,0,0,0,,,,,,,,,0,,74,0
44130,note_on,0,0,0,,,,,,,,,13,,71,0
44130,note_on,0,0,0,,,,,,,,,5,,74,0
44130,note_on,0,0,0,,,,,,,,,6,,71,0
44145,note_on,15,0,0,,,,,,,,,7,,64,0
44145,note_on,0,0,0,,,,,,,,,10,,44,0
44145,note_on,0,0,0,,,,,,,,,14,,56,0
44145,note_on,0,0,0,,,,,,,,,8,,56,0
44145,note_on,0,0,0,,,,,,,,,0,,56,0
44145,note_on,0,0,0,,,,,,,,,15,,56,0
44150,note_on,5,0,0,,,,,,,,,15,,64,0
44150,note_on,0,0,0,,,,,,,,,15,,62,0
44150,note_on,0,0,0,,,,,,,,,15,,71,0
44160,note_on,10,0,0,,,,,,,,,0,,74,100
44160,note_on,0,0,0,,,,,,,,,0,,52,100
44160,note_on,0,0,0,,,,,,,,,5,,74,100
44160,note_on,0,0,0,,,,,,,,,6,,71,100
44160,note_on,0,0,0,,,,,,,,,7,,68,100
44160,note_on,0,0,0,,,,,,,,,8,,52,100
44160,note_on,0,0,0,,,,,,,,,10,,40,100
44160,note_on,0,0,0,,,,,,,,,13,,71,100
44160,note_on,0,0,0,,,,,,,,,13,,74,100
44160,note_on,0,0,0,,,,,,,,,14,,52,100
44160,note_on,0,0,0,,,,,,,,,15,,64,100
44160,note_on,0,0,0,,,,,,,,,15,,69,100
44160,note_on,0,0,0,,,,,,,,,15,,71,100
44160,note_on,0,0,0,,,,,,,,,15,,52,100
44190,note_on,30,0,0,,,,,,,,,13,,74,0
44190,note_on,0,0,0,,,,,,,,,13,,71,0
44190,note_on,0,0,0,,,,,,,,,6,,71,0
44190,note_on,0,0,0,,,,,,,,,5,,74,0
44190,note_on,0,0,0,,,,,,,,,0,,74,0
44190,note_on,0,0,0,,,,,,,,,0,,76,100
44190,note_on,0,0,0,,,,,,,,,5,,76,100
44190,note_on,0,0,0,,,,,,,,,6,,73,100
44190,note_on,0,0,0,,,,,,,,,13,,73,100
44190,note_on,0,0,0,,,,,,,,,13,,76,100
44220,note_on,30,0,0,,,,,,,,,13,,76,0
44220,note_on,0,0,0,,,,,,,,,0,,76,0
44220,note_on,0,0,0,,,,,,,,,13,,73,0
44220,note_on,0,0,0,,,,,,,,,5,,76,0
44220,note_on,0,0,0,,,,,,,,,6,,73,0
44220,note_on,0,0,0,,,,,,,,,0,,74,100
44220,note_on,0,0,0,,,,,,,,,5,,74,100
44220,note_on,0,0,0,,,,,,,,,6,,71,100
44220,note_on,0,0,0,,,,,,,,,13,,71,100
44220,note_on,0,0,0,,,,,,,,,13,,74,100
44250,note_on,30,0,0,,,,,,,,,13,,74,0
44250,note_on,0,0,0,,,,,,,,,0,,74,0
44250,note_on,0,0,0,,,,,,,,,13,,71,0
44250,note_on,0,0,0,,,,,,,,,5,,74,0
44250,note_on,0,0,0,,,,,,,,,6,,71,0
44265,note_on,15,0,0,,,,,,,,,7,,68,0
44265,note_on,0,0,0,,,,,,,,,10,,40,0
44265,note_on,0,0,0,,,,,,,,,14,,52,0
44265,note_on,0,0,0,,,,,,,,,8,,52,0
44265,note_on,0,0,0,,,,,,,,,0,,52,0
44265,note_on,0,0,0,,,,,,,,,15,,52,0
44270,note_on,5,0,0,,,,,,,,,15,,64,0
44270,note_on,0,0,0,,,,,,,,,15,,69,0
44270,note_on,0,0,0,,,,,,,,,15,,71,0
44280,note_on,10,0,0,,,,,,,,,0,,74,100
44280,note_on,0,0,0,,,,,,,,,0,,56,100
44280,note_on,0,0,0,,,,,,,,,5,,74,100
44280,note_on,0,0,0,,,,,,,,,6,,71,100
44280,note_on,0,0,0,,,,,,,,,7,,64,100
44280,note_on,0,0,0,,,,,,,,,8,,56,100
44280,note_on,0,0,0,,,,,,,,,10,,44,100
44280,note_on,0,0,0,,,,,,,,,13,,71,100
44280,note_on,0,0,0,,,,,,,,,13,,74,100
44280,note_on,0,0,0,,,,,,,,,14,,56,100
44280,note_on,0,0,0,,,,,,,,,15,,62,100
44280,note_on,0,0,0,,,,,,,,,15,,64,100
44280,note_on,0,0,0,,,,,,,,,15,,71,100
44280,note_on,0,0,0,,,,,,,,,15,,56,100
44310,note_on,30,0,0,,,,,,,,,13,,74,0
44310,note_on,0,0,0,,,,,,,,,13,,71,0
44310,note_on,0,0,0,,,,,,,,,6,,71,0
44310,note_on,0,0,0,,,,,,,,,5,,74,0
44310,note_on,0,0,0,,,,,,,,,0,,74,0
44310,note_on,0,0,0,,,,,,,,,0,,76,100
44310,note_on,0,0,0,,,,,,,,,5,,76,100
44310,note_on,0,0,0,,,,,,,,,6,,73,100
44310,note_on,0,0,0,,,,,,,,,13,,73,100
44310,note_on,0,0,0,,,,,,,,,13,,76,100
44340,note_on,30,0,0,,,,,,,,,13,,76,0
44340,note_on,0,0,0,,,,,,,,,0,,76,0
44340,note_on,0,0,0,,,,,,,,,13,,73,0
44340,note_on,0,0,0,,,,,,,,,5,,76,0
44340,note_on,0,0,0,,,,,,,,,6,,73,0
44340,note_on,0,0,0,,,,,,,,,0,,74,100
44340,note_on,0,0,0,,,,,,,,,5,,74,100
44340,note_on,0,0,0,,,,,,,,,6,,71,100
44340,note_on,0,0,0,,,,,,,,,13,,71,100
44340,note_on,0,0,0,,,,,,,,,13,,74,100
44370,note_on,30,0,0,,,,,,,,,13,,74,0
44370,note_on,0,0,0,,,,,,,,,0,,74,0
44370,note_on,0,0,0,,,,,,,,,13,,71,0
44370,note_on,0,0,0,,,,,,,,,5,,74,0
44370,note_on,0,0,0,,,,,,,,,6,,71,0
44385,note_on,15,0,0,,,,,,,,,7,,64,0
44385,note_on,0,0,0,,,,,,,,,10,,44,0
44385,note_on,0,0,0,,,,,,,,,14,,56,0
44385,note_on,0,0,0,,,,,,,,,8,,56,0
44385,note_on,0,0,0,,,,,,,,,0,,56,0
44385,note_on,0,0,0,,,,,,,,,15,,56,0
44390,note_on,5,0,0,,,,,,,,,15,,62,0
44390,note_on,0,0,0,,,,,,,,,15,,64,0
44390,note_on,0,0,0,,,,,,,,,15,,71,0
44400,note_on,10,0,0,,,,,,,,,0,,73,100
44400,note_on,0,0,0,,,,,,,,,0,,57,100
44400,note_on,0,0,0,,,,,,,,,5,,73,100
44400,note_on,0,0,0,,,,,,,,,6,,69,100
44400,note_on,0,0,0,,,,,,,,,7,,64,100
44400,note_on,0,0,0,,,,,,,,,8,,57,100
44400,note_on,0,0,0,,,,,,,,,10,,45,100
44400,note_on,0,0,0,,,,,,,,,13,,69,100
44400,note_on,0,0,0,,,,,,,,,13,,73,100
44400,note_on,0,0,0,,,,,,,,,14,,57,100
44400,note_on,0,0,0,,,,,,,,,15,,61,100
44400,note_on,0,0,0,,,,,,,,,15,,64,100
44400,note_on,0,0,0,,,,,,,,,15,,69,100
44400,note_on,0,0,0,,,,,,,,,15,,57,100
44430,note_on,30,0,0,,,,,,,,,13,,73,0
44430,note_on,0,0,0,,,,,,,,,13,,69,0
44430,note_on,0,0,0,,,,,,,,,7,,64,0
44430,note_on,0,0,0,,,,,,,,,6,,69,0
44430,note_on,0,0,0,,,,,,,,,5,,73,0
44430,note_on,0,0,0,,,,,,,,,0,,73,0
44430,note_on,0,0,0,,,,,,,,,0,,74,100
44430,note_on,0,0,0,,,,,,,,,5,,74,100
44430,note_on,0,0,0,,,,,,,,,6,,71,100
44430,note_on,0,0,0,,,,,,,,,13,,71,100
44430,note_on,0,0,0,,,,,,,,,13,,74,100
44460,note_on,30,0,0,,,,,,,,,13,,74,0
44460,note_on,0,0,0,,,,,,,,,5,,74,0
44460,note_on,0,0,0,,,,,,,,,0,,74,0
44460,note_on,0,0,0,,,,,,,,,13,,71,0
44460,note_on,0,0,0,,,,,,,,,6,,71,0
44460,note_on,0,0,0,,,,,,,,,0,,73,100
44460,note_on,0,0,0,,,,,,,,,5,,73,100
44460,note_on,0,0,0,,,,,,,,,6,,69,100
44460,note_on,0,0,0,,,,,,,,,7,,64,100
44460,note_on,0,0,0,,,,,,,,,13,,69,100
44460,note_on,0,0,0,,,,,,,,,13,,73,100
44490,note_on,30,0,0,,,,,,,,,13,,73,0
44490,note_on,0,0,0,,,,,,,,,5,,73,0
44490,note_on,0,0,0,,,,,,,,,0,,73,0
44490,note_on,0,0,0,,,,,,,,,13,,69,0
44490,note_on,0,0,0,,,,,,,,,6,,69,0
44490,note_on,0,0,0,,,,,,,,,7,,64,0
44505,note_on,15,0,0,,,,,,,,,14,,57,0
44505,note_on,0,0,0,,,,,,,,,8,,57,0
44505,note_on,0,0,0,,,,,,,,,10,,45,0
44505,note_on,0,0,0,,,,,,,,,15,,57,0
44505,note_on,0,0,0,,,,,,,,,0,,57,0
44510,note_on,5,0,0,,,,,,,,,15,,64,0
44510,note_on,0,0,0,,,,,,,,,15,,69,0
44510,note_on,0,0,0,,,,,,,,,15,,61,0
44520,note_on,10,0,0,,,,,,,,,0,,74,100
44520,note_on,0,0,0,,,,,,,,,0,,54,100
44520,note_on,0,0,0,,,,,,,,,5,,74,100
44520,note_on,0,0,0,,,,,,,,,6,,69,100
44520,note_on,0,0,0,,,,,,,,,7,,66,100
44520,note_on,0,0,0,,,,,,,,,8,,54,100
44520,note_on,0,0,0,,,,,,,,,10,,42,100
44520,note_on,0,0,0,,,,,,,,,13,,69,100
44520,note_on,0,0,0,,,,,,,,,13,,74,100
44520,note_on,0,0,0,,,,,,,,,14,,54,100
44520,note_on,0,0,0,,,,,,,,,15,,71,100
44520,note_on,0,0,0,,,,,,,,,15,,66,100
44520,note_on,0,0,0,,,,,,,,,15,,62,100
44520,note_on,0,0,0,,,,,,,,,15,,54,100
44550,note_on,30,0,0,,,,,,,,,13,,74,0
44550,note_on,0,0,0,,,,,,,,,13,,69,0
44550,note_on,0,0,0,,,,,,,,,7,,66,0
44550,note_on,0,0,0,,,,,,,,,6,,69,0
44550,note_on,0,0,0,,,,,,,,,5,,74,0
44550,note_on,0,0,0,,,,,,,,,0,,74,0
44550,note_on,0,0,0,,,,,,,,,6,,71,100
44550,note_on,0,0,0,,,,,,,,,7,,68,100
44550,note_on,0,0,0,,,,,,,,,13,,71,100
44580,note_on,30,0,0,,,,,,,,,13,,71,0
44580,note_on,0,0,0,,,,,,,,,7,,68,0
44580,note_on,0,0,0,,,,,,,,,6,,71,0
44580,note_on,0,0,0,,,,,,,,,0,,78,100
44580,note_on,0,0,0,,,,,,,,,5,,78,100
44580,note_on,0,0,0,,,,,,,,,6,,69,100
44580,note_on,0,0,0,,,,,,,,,7,,66,100
44580,note_on,0,0,0,,,,,,,,,13,,69,100
44580,note_on,0,0,0,,,,,,,,,13,,78,100
44610,note_on,30,0,0,,,,,,,,,13,,78,0
44610,note_on,0,0,0,,,,,,,,,5,,78,0
44610,note_on,0,0,0,,,,,,,,,0,,78,0
44610,note_on,0,0,0,,,,,,,,,13,,69,0
44610,note_on,0,0,0,,,,,,,,,6,,69,0
44610,note_on,0,0,0,,,,,,,,,7,,66,0
44625,note_on,15,0,0,,,,,,,,,8,,54,0
44625,note_on,0,0,0,,,,,,,,,10,,42,0
44625,note_on,0,0,0,,,,,,,,,14,,54,0
44625,note_on,0,0,0,,,,,,,,,15,,54,0
44625,note_on,0,0,0,,,,,,,,,0,,54,0
44630,note_on,5,0,0,,,,,,,,,15,,71,0
44630,note_on,0,0,0,,,,,,,,,15,,62,0
44630,note_on,0,0,0,,,,,,,,,15,,66,0
44640,note_on,10,0,0,,,,,,,,,0,,56,100
44640,note_on,0,0,0,,,,,,,,,0,,71,100
44640,note_on,0,0,0,,,,,,,,,5,,71,100
44640,note_on,0,0,0,,,,,,,,,6,,68,100
44640,note_on,0,0,0,,,,,,,,,7,,66,100
44640,note_on,0,0,0,,,,,,,,,8,,56,100
44640,note_on,0,0,0,,,,,,,,,10,,44,100
44640,note_on,0,0,0,,,,,,,,,13,,68,100
44640,note_on,0,0,0,,,,,,,,,13,,71,100
44640,note_on,0,0,0,,,,,,,,,14,,56,100
44640,note_on,0,0,0,,,,,,,,,15,,59,100
44640,note_on,0,0,0,,,,,,,,,15,,64,100
44640,note_on,0,0,0,,,,,,,,,15,,71,100
44640,note_on,0,0,0,,,,,,,,,15,,56,100
44670,note_on,30,0,0,,,,,,,,,13,,71,0
44670,note_on,0,0,0,,,,,,,,,13,,68,0
44670,note_on,0,0,0,,,,,,,,,7,,66,0
44670,note_on,0,0,0,,,,,,,,,6,,68,0
44670,note_on,0,0,0,,,,,,,,,5,,71,0
44670,note_on,0,0,0,,,,,,,,,0,,71,0
44670,note_on,0,0,0,,,,,,,,,0,,73,100
44670,note_on,0,0,0,,,,,,,,,5,,73,100
44670,note_on,0,0,0,,,,,,,,,6,,69,100
44670,note_on,0,0,0,,,,,,,,,13,,69,100
44670,note_on,0,0,0,,,,,,,,,13,,73,100
44700,note_on,30,0,0,,,,,,,,,13,,73,0
44700,note_on,0,0,0,,,,,,,,,5,,73,0
44700,note_on,0,0,0,,,,,,,,,0,,73,0
44700,note_on,0,0,0,,,,,,,,,13,,69,0
44700,note_on,0,0,0,,,,,,,,,6,,69,0
44700,note_on,0,0,0,,,,,,,,,0,,71,100
44700,note_on,0,0,0,,,,,,,,,5,,71,100
44700,note_on,0,0,0,,,,,,,,,6,,68,100
44700,note_on,0,0,0,,,,,,,,,7,,59,100
44700,note_on,0,0,0,,,,,,,,,13,,68,100
44700,note_on,0,0,0,,,,,,,,,13,,71,100
44730,note_on,30,0,0,,,,,,,,,13,,71,0
44730,note_on,0,0,0,,,,,,,,,5,,71,0
44730,note_on,0,0,0,,,,,,,,,0,,71,0
44730,note_on,0,0,0,,,,,,,,,13,,68,0
44730,note_on,0,0,0,,,,,,,,,6,,68,0
44730,note_on,0,0,0,,,,,,,,,7,,59,0
44745,note_on,15,0,0,,,,,,,,,14,,56,0
44745,note_on,0,0,0,,,,,,,,,8,,56,0
44745,note_on,0,0,0,,,,,,,,,10,,44,0
44745,note_on,0,0,0,,,,,,,,,15,,56,0
44745,note_on,0,0,0,,,,,,,,,0,,56,0
44750,note_on,5,0,0,,,,,,,,,15,,64,0
44750,note_on,0,0,0,,,,,,,,,15,,71,0
44750,note_on,0,0,0,,,,,,,,,15,,59,0
44760,note_on,10,0,0,,,,,,,,,0,,52,100
44760,note_on,0,0,0,,,,,,,,,0,,73,100
44760,note_on,0,0,0,,,,,,,,,5,,73,100
44760,note_on,0,0,0,,,,,,,,,6,,68,100
44760,note_on,0,0,0,,,,,,,,,7,,64,100
44760,note_on,0,0,0,,,,,,,,,8,,52,100
44760,note_on,0,0,0,,,,,,,,,10,,40,100
44760,note_on,0,0,0,,,,,,,,,13,,68,100
44760,note_on,0,0,0,,,,,,,,,13,,73,100
44760,note_on,0,0,0,,,,,,,,,14,,52,100
44760,note_on,0,0,0,,,,,,,,,15,,61,100
44760,note_on,0,0,0,,,,,,,,,15,,64,100
44760,note_on,0,0,0,,,,,,,,,15,,69,100
44760,note_on,0,0,0,,,,,,,,,15,,52,100
44790,note_on,30,0,0,,,,,,,,,15,,52,0
44790,note_on,0,0,0,,,,,,,,,6,,68,0
44790,note_on,0,0,0,,,,,,,,,13,,73,0
44790,note_on,0,0,0,,,,,,,,,10,,40,0
44790,note_on,0,0,0,,,,,,,,,0,,52,0
44790,note_on,0,0,0,,,,,,,,,5,,73,0
44790,note_on,0,0,0,,,,,,,,,13,,68,0
44790,note_on,0,0,0,,,,,,,,,14,,52,0
44790,note_on,0,0,0,,,,,,,,,8,,52,0
44790,note_on,0,0,0,,,,,,,,,0,,73,0
44790,note_on,0,0,0,,,,,,,,,6,,69,100
44790,note_on,0,0,0,,,,,,,,,13,,69,100
44820,note_on,30,0,0,,,,,,,,,13,,69,0
44820,note_on,0,0,0,,,,,,,,,6,,69,0
44820,note_on,0,0,0,,,,,,,,,0,,49,100
44820,note_on,0,0,0,,,,,,,,,0,,76,100
44820,note_on,0,0,0,,,,,,,,,5,,76,100
44820,note_on,0,0,0,,,,,,,,,6,,68,100
44820,note_on,0,0,0,,,,,,,,,8,,49,100
44820,note_on,0,0,0,,,,,,,,,10,,37,100
44820,note_on,0,0,0,,,,,,,,,13,,68,100
44820,note_on,0,0,0,,,,,,,,,13,,76,100
44820,note_on,0,0,0,,,,,,,,,14,,49,100
44820,note_on,0,0,0,,,,,,,,,15,,49,100
44850,note_on,30,0,0,,,,,,,,,15,,49,0
44850,note_on,0,0,0,,,,,,,,,0,,49,0
44850,note_on,0,0,0,,,,,,,,,0,,76,0
44850,note_on,0,0,0,,,,,,,,,10,,37,0
44850,note_on,0,0,0,,,,,,,,,6,,68,0
44850,note_on,0,0,0,,,,,,,,,5,,76,0
44850,note_on,0,0,0,,,,,,,,,8,,49,0
44850,note_on,0,0,0,,,,,,,,,14,,49,0
44850,note_on,0,0,0,,,,,,,,,13,,76,0
44850,note_on,0,0,0,,,,,,,,,13,,68,0
44865,note_on,15,0,0,,,,,,,,,7,,64,0
44870,note_on,5,0,0,,,,,,,,,15,,69,0
44870,note_on,0,0,0,,,,,,,,,15,,61,0
44870,note_on,0,0,0,,,,,,,,,15,,64,0
44880,note_on,10,0,0,,,,,,,,,0,,69,100
44880,note_on,0,0,0,,,,,,,,,0,,54,100
44880,note_on,0,0,0,,,,,,,,,5,,69,100
44880,note_on,0,0,0,,,,,,,,,6,,66,100
44880,note_on,0,0,0,,,,,,,,,7,,61,100
44880,note_on,0,0,0,,,,,,,,,8,,54,100
44880,note_on,0,0,0,,,,,,,,,10,,42,100
44880,note_on,0,0,0,,,,,,,,,13,,66,100
44880,note_on,0,0,0,,,,,,,,,13,,69,100
44880,note_on,0,0,0,,,,,,,,,14,,54,100
44880,note_on,0,0,0,,,,,,,,,15,,57,100
44880,note_on,0,0,0,,,,,,,,,15,,62,100
44880,note_on,0,0,0,,,,,,,,,15,,69,100
44880,note_on,0,0,0,,,,,,,,,15,,54,100
44910,note_on,30,0,0,,,,,,,,,13,,69,0
44910,note_on,0,0,0,,,,,,,,,13,,66,0
44910,note_on,0,0,0,,,,,,,,,7,,61,0
44910,note_on,0,0,0,,,,,,,,,6,,66,0
44910,note_on,0,0,0,,,,,,,,,5,,69,0
44910,note_on,0,0,0,,,,,,,,,0,,69,0
44910,note_on,0,0,0,,,,,,,,,0,,71,100
44910,note_on,0,0,0,,,,,,,,,5,,71,100
44910,note_on,0,0,0,,,,,,,,,6,,68,100
44910,note_on,0,0,0,,,,,,,,,13,,68,100
44910,note_on,0,0,0,,,,,,,,,13,,71,100
44940,note_on,30,0,0,,,,,,,,,13,,71,0
44940,note_on,0,0,0,,,,,,,,,5,,71,0
44940,note_on,0,0,0,,,,,,,,,0,,71,0
44940,note_on,0,0,0,,,,,,,,,13,,68,0
44940,note_on,0,0,0,,,,,,,,,6,,68,0
44940,note_on,0,0,0,,,,,,,,,0,,69,100
44940,note_on,0,0,0,,,,,,,,,5,,69,100
44940,note_on,0,0,0,,,,,,,,,6,,66,100
44940,note_on,0,0,0,,,,,,,,,7,,61,100
44940,note_on,0,0,0,,,,,,,,,13,,66,100
44940,note_on,0,0,0,,,,,,,,,13,,69,100
44970,note_on,30,0,0,,,,,,,,,13,,69,0
44970,note_on,0,0,0,,,,,,,,,5,,69,0
44970,note_on,0,0,0,,,,,,,,,0,,69,0
44970,note_on,0,0,0,,,,,,,,,13,,66,0
44970,note_on,0,0,0,,,,,,,,,6,,66,0
44970,note_on,0,0,0,,,,,,,,,7,,61,0
44985,note_on,15,0,0,,,,,,,,,14,,54,0
44985,note_on,0,0,0,,,,,,,,,8,,54,0
44985,note_on,0,0,0,,,,,,,,,10,,42,0
44985,note_on,0,0,0,,,,,,,,,15,,54,0
44985,note_on,0,0,0,,,,,,,,,0,,54,0
44990,note_on,5,0,0,,,,,,,,,15,,62,0
44990,note_on,0,0,0,,,,,,,,,15,,69,0
44990,note_on,0,0,0,,,,,,,,,15,,57,0
45000,note_on,10,0,0,,,,,,,,,0,,71,100
45000,note_on,0,0,0,,,,,,,,,0,,50,100
45000,note_on,0,0,0,,,,,,,,,5,,71,100
45000,note_on,0,0,0,,,,,,,,,6,,66,100
45000,note_on,0,0,0,,,,,,,,,7,,66,100
45000,note_on,0,0,0,,,,,,,,,8,,50,100
45000,note_on,0,0,0,,,,,,,,,10,,38,100
45000,note_on,0,0,0,,,,,,,,,13,,66,100
45000,note_on,0,0,0,,,,,,,,,13,,71,100
45000,note_on,0,0,0,,,,,,,,,14,,50,100
45000,note_on,0,0,0,,,,,,,,,15,,59,100
45000,note_on,0,0,0,,,,,,,,,15,,62,100
45000,note_on,0,0,0,,,,,,,,,15,,68,100
45000,note_on,0,0,0,,,,,,,,,15,,50,100
45030,note_on,30,0,0,,,,,,,,,15,,50,0
45030,note_on,0,0,0,,,,,,,,,7,,66,0
45030,note_on,0,0,0,,,,,,,,,13,,71,0
45030,note_on,0,0,0,,,,,,,,,10,,38,0
45030,note_on,0,0,0,,,,,,,,,0,,71,0
45030,note_on,0,0,0,,,,,,,,,5,,71,0
45030,note_on,0,0,0,,,,,,,,,6,,66,0
45030,note_on,0,0,0,,,,,,,,,13,,66,0
45030,note_on,0,0,0,,,,,,,,,8,,50,0
45030,note_on,0,0,0,,,,,,,,,0,,50,0
45030,note_on,0,0,0,,,,,,,,,14,,50,0
45030,note_on,0,0,0,,,,,,,,,7,,68,100
45060,note_on,30,0,0,,,,,,,,,7,,68,0
45060,note_on,0,0,0,,,,,,,,,0,,74,100
45060,note_on,0,0,0,,,,,,,,,0,,47,100
45060,note_on,0,0,0,,,,,,,,,5,,74,100
45060,note_on,0,0,0,,,,,,,,,6,,62,100
45060,note_on,0,0,0,,,,,,,,,7,,66,100
45060,note_on,0,0,0,,,,,,,,,8,,47,100
45060,note_on,0,0,0,,,,,,,,,10,,35,100
45060,note_on,0,0,0,,,,,,,,,13,,62,100
45060,note_on,0,0,0,,,,,,,,,13,,74,100
45060,note_on,0,0,0,,,,,,,,,14,,47,100
45060,note_on,0,0,0,,,,,,,,,15,,47,100
45090,note_on,30,0,0,,,,,,,,,15,,47,0
45090,note_on,0,0,0,,,,,,,,,0,,47,0
45090,note_on,0,0,0,,,,,,,,,5,,74,0
45090,note_on,0,0,0,,,,,,,,,10,,35,0
45090,note_on,0,0,0,,,,,,,,,7,,66,0
45090,note_on,0,0,0,,,,,,,,,6,,62,0
45090,note_on,0,0,0,,,,,,,,,0,,74,0
45090,note_on,0,0,0,,,,,,,,,8,,47,0
45090,note_on,0,0,0,,,,,,,,,13,,74,0
45090,note_on,0,0,0,,,,,,,,,13,,62,0
45090,note_on,0,0,0,,,,,,,,,14,,47,0
45110,note_on,20,0,0,,,,,,,,,15,,68,0
45110,note_on,0,0,0,,,,,,,,,15,,62,0
45110,note_on,0,0,0,,,,,,,,,15,,59,0
45120,note_on,10,0,0,,,,,,,,,0,,52,100
45120,note_on,0,0,0,,,,,,,,,0,,68,100
45120,note_on,0,0,0,,,,,,,,,5,,68,100
45120,note_on,0,0,0,,,,,,,,,6,,59,100
45120,note_on,0,0,0,,,,,,,,,7,,64,100
45120,note_on,0,0,0,,,,,,,,,8,,52,100
45120,note_on,0,0,0,,,,,,,,,10,,40,100
45120,note_on,0,0,0,,,,,,,,,13,,64,100
45120,note_on,0,0,0,,,,,,,,,13,,68,100
45120,note_on,0,0,0,,,,,,,,,14,,52,100
45120,note_on,0,0,0,,,,,,,,,15,,56,100
45120,note_on,0,0,0,,,,,,,,,15,,61,100
45120,note_on,0,0,0,,,,,,,,,15,,68,100
45120,note_on,0,0,0,,,,,,,,,15,,52,100
45150,note_on,30,0,0,,,,,,,,,13,,68,0
45150,note_on,0,0,0,,,,,,,,,13,,64,0
45150,note_on,0,0,0,,,,,,,,,7,,64,0
45150,note_on,0,0,0,,,,,,,,,6,,59,0
45150,note_on,0,0,0,,,,,,,,,5,,68,0
45150,note_on,0,0,0,,,,,,,,,0,,68,0
45150,note_on,0,0,0,,,,,,,,,0,,69,100
45150,note_on,0,0,0,,,,,,,,,5,,69,100
45150,note_on,0,0,0,,,,,,,,,7,,66,100
45150,note_on,0,0,0,,,,,,,,,13,,66,100
45150,note_on,0,0,0,,,,,,,,,13,,69,100
45180,note_on,30,0,0,,,,,,,,,13,,69,0
45180,note_on,0,0,0,,,,,,,,,5,,69,0
45180,note_on,0,0,0,,,,,,,,,0,,69,0
45180,note_on,0,0,0,,,,,,,,,13,,66,0
45180,note_on,0,0,0,,,,,,,,,7,,66,0
45180,note_on,0,0,0,,,,,,,,,0,,68,100
45180,note_on,0,0,0,,,,,,,,,5,,68,100
45180,note_on,0,0,0,,,,,,,,,6,,59,100
45180,note_on,0,0,0,,,,,,,,,7,,64,100
45180,note_on,0,0,0,,,,,,,,,13,,64,100
45180,note_on,0,0,0,,,,,,,,,13,,68,100
45195,note_on,15,0,0,,,,,,,,,10,,40,0
45195,note_on,0,0,0,,,,,,,,,8,,52,0
45195,note_on,0,0,0,,,,,,,,,14,,52,0
45195,note_on,0,0,0,,,,,,,,,0,,52,0
45195,note_on,0,0,0,,,,,,,,,15,,52,0
45210,note_on,15,0,0,,,,,,,,,13,,68,0
45210,note_on,0,0,0,,,,,,,,,0,,68,0
45210,note_on,0,0,0,,,,,,,,,6,,59,0
45210,note_on,0,0,0,,,,,,,,,7,,64,0
45210,note_on,0,0,0,,,,,,,,,13,,64,0
45210,note_on,0,0,0,,,,,,,,,5,,68,0
45230,note_on,20,0,0,,,,,,,,,15,,56,0
45230,note_on,0,0,0,,,,,,,,,15,,61,0
45230,note_on,0,0,0,,,,,,,,,15,,68,0
45240,note_on,10,0,0,,,,,,,,,0,,61,100
45240,note_on,0,0,0,,,,,,,,,0,,69,100
45240,note_on,0,0,0,,,,,,,,,5,,69,100
45240,note_on,0,0,0,,,,,,,,,6,,61,100
45240,note_on,0,0,0,,,,,,,,,7,,64,100
45240,note_on,0,0,0,,,,,,,,,8,,61,100
45240,note_on,0,0,0,,,,,,,,,10,,49,100
45240,note_on,0,0,0,,,,,,,,,13,,64,100
45240,note_on,0,0,0,,,,,,,,,13,,69,100
45240,note_on,0,0,0,,,,,,,,,14,,61,100
45240,note_on,0,0,0,,,,,,,,,15,,68,100
45240,note_on,0,0,0,,,,,,,,,15,,71,100
45240,note_on,0,0,0,,,,,,,,,15,,64,100
45240,note_on,0,0,0,,,,,,,,,15,,61,100
45270,note_on,30,0,0,,,,,,,,,13,,69,0
45270,note_on,0,0,0,,,,,,,,,7,,64,0
45270,note_on,0,0,0,,,,,,,,,6,,61,0
45270,note_on,0,0,0,,,,,,,,,5,,69,0
45270,note_on,0,0,0,,,,,,,,,0,,69,0
45270,note_on,0,0,0,,,,,,,,,0,,71,100
45270,note_on,0,0,0,,,,,,,,,5,,71,100
45270,note_on,0,0,0,,,,,,,,,6,,62,100
45270,note_on,0,0,0,,,,,,,,,13,,71,100
45300,note_on,30,0,0,,,,,,,,,13,,71,0
45300,note_on,0,0,0,,,,,,,,,0,,71,0
45300,note_on,0,0,0,,,,,,,,,6,,62,0
45300,note_on,0,0,0,,,,,,,,,5,,71,0
45300,note_on,0,0,0,,,,,,,,,0,,69,100
45300,note_on,0,0,0,,,,,,,,,5,,69,100
45300,note_on,0,0,0,,,,,,,,,6,,61,100
45300,note_on,0,0,0,,,,,,,,,7,,64,100
45300,note_on,0,0,0,,,,,,,,,13,,69,100
45330,note_on,30,0,0,,,,,,,,,13,,69,0
45330,note_on,0,0,0,,,,,,,,,0,,69,0
45330,note_on,0,0,0,,,,,,,,,13,,64,0
45330,note_on,0,0,0,,,,,,,,,7,,64,0
45330,note_on,0,0,0,,,,,,,,,5,,69,0
45330,note_on,0,0,0,,,,,,,,,6,,61,0
45345,note_on,15,0,0,,,,,,,,,10,,49,0
45345,note_on,0,0,0,,,,,,,,,0,,61,0
45345,note_on,0,0,0,,,,,,,,,15,,71,0
45345,note_on,0,0,0,,,,,,,,,15,,64,0
45345,note_on,0,0,0,,,,,,,,,15,,61,0
45345,note_on,0,0,0,,,,,,,,,8,,61,0
45345,note_on,0,0,0,,,,,,,,,15,,68,0
45345,note_on,0,0,0,,,,,,,,,14,,61,0
45360,note_on,15,0,0,,,,,,,,,0,,56,100
45360,note_on,0,0,0,,,,,,,,,0,,71,100
45360,note_on,0,0,0,,,,,,,,,5,,71,100
45360,note_on,0,0,0,,,,,,,,,6,,64,100
45360,note_on,0,0,0,,,,,,,,,7,,68,100
45360,note_on,0,0,0,,,,,,,,,8,,56,100
45360,note_on,0,0,0,,,,,,,,,10,,44,100
45360,note_on,0,0,0,,,,,,,,,13,,64,100
45360,note_on,0,0,0,,,,,,,,,13,,71,100
45360,note_on,0,0,0,,,,,,,,,14,,56,100
45360,note_on,0,0,0,,,,,,,,,15,,59,100
45360,note_on,0,0,0,,,,,,,,,15,,71,100
45360,note_on,0,0,0,,,,,,,,,15,,64,100
45360,note_on,0,0,0,,,,,,,,,15,,56,100
45390,note_on,30,0,0,,,,,,,,,13,,71,0
45390,note_on,0,0,0,,,,,,,,,13,,64,0
45390,note_on,0,0,0,,,,,,,,,7,,68,0
45390,note_on,0,0,0,,,,,,,,,6,,64,0
45390,note_on,0,0,0,,,,,,,,,5,,71,0
45390,note_on,0,0,0,,,,,,,,,0,,71,0
45390,note_on,0,0,0,,,,,,,,,0,,73,100
45390,note_on,0,0,0,,,,,,,,,5,,73,100
45390,note_on,0,0,0,,,,,,,,,7,,69,100
45390,note_on,0,0,0,,,,,,,,,13,,73,100
45420,note_on,30,0,0,,,,,,,,,13,,73,0
45420,note_on,0,0,0,,,,,,,,,5,,73,0
45420,note_on,0,0,0,,,,,,,,,0,,73,0
45420,note_on,0,0,0,,,,,,,,,7,,69,0
45420,note_on,0,0,0,,,,,,,,,0,,71,100
45420,note_on,0,0,0,,,,,,,,,5,,71,100
45420,note_on,0,0,0,,,,,,,,,6,,64,100
45420,note_on,0,0,0,,,,,,,,,7,,68,100
45420,note_on,0,0,0,,,,,,,,,13,,64,100
45420,note_on,0,0,0,,,,,,,,,13,,71,100
45450,note_on,30,0,0,,,,,,,,,13,,71,0
45450,note_on,0,0,0,,,,,,,,,5,,71,0
45450,note_on,0,0,0,,,,,,,,,0,,71,0
45450,note_on,0,0,0,,,,,,,,,13,,64,0
45450,note_on,0,0,0,,,,,,,,,6,,64,0
45450,note_on,0,0,0,,,,,,,,,7,,68,0
45465,note_on,15,0,0,,,,,,,,,15,,59,0
45465,note_on,0,0,0,,,,,,,,,0,,56,0
45465,note_on,0,0,0,,,,,,,,,15,,71,0
45465,note_on,0,0,0,,,,,,,,,14,,56,0
45465,note_on,0,0,0,,,,,,,,,15,,56,0
45465,note_on,0,0,0,,,,,,,,,10,,44,0
45465,note_on,0,0,0,,,,,,,,,15,,64,0
45465,note_on,0,0,0,,,,,,,,,8,,56,0
45480,note_on,15,0,0,,,,,,,,,0,,57,100
45480,note_on,0,0,0,,,,,,,,,0,,73,100
45480,note_on,0,0,0,,,,,,,,,5,,73,100
45480,note_on,0,0,0,,,,,,,,,6,,69,100
45480,note_on,0,0,0,,,,,,,,,7,,64,100
45480,note_on,0,0,0,,,,,,,,,8,,57,100
45480,note_on,0,0,0,,,,,,,,,10,,45,100
45480,note_on,0,0,0,,,,,,,,,13,,69,100
45480,note_on,0,0,0,,,,,,,,,13,,73,100
45480,note_on,0,0,0,,,,,,,,,14,,57,100
45480,note_on,0,0,0,,,,,,,,,15,,61,100
45480,note_on,0,0,0,,,,,,,,,15,,64,100
45480,note_on,0,0,0,,,,,,,,,15,,69,100
45480,note_on,0,0,0,,,,,,,,,15,,57,100
45510,note_on,30,0,0,,,,,,,,,13,,73,0
45510,note_on,0,0,0,,,,,,,,,13,,69,0
45510,note_on,0,0,0,,,,,,,,,7,,64,0
45510,note_on,0,0,0,,,,,,,,,6,,69,0
45510,note_on,0,0,0,,,,,,,,,5,,73,0
45510,note_on,0,0,0,,,,,,,,,0,,73,0
45510,note_on,0,0,0,,,,,,,,,0,,74,100
45510,note_on,0,0,0,,,,,,,,,5,,74,100
45510,note_on,0,0,0,,,,,,,,,6,,71,100
45510,note_on,0,0,0,,,,,,,,,13,,71,100
45510,note_on,0,0,0,,,,,,,,,13,,74,100
45540,note_on,30,0,0,,,,,,,,,13,,74,0
45540,note_on,0,0,0,,,,,,,,,5,,74,0
45540,note_on,0,0,0,,,,,,,,,0,,74,0
45540,note_on,0,0,0,,,,,,,,,13,,71,0
45540,note_on,0,0,0,,,,,,,,,6,,71,0
45540,note_on,0,0,0,,,,,,,,,0,,73,100
45540,note_on,0,0,0,,,,,,,,,5,,73,100
45540,note_on,0,0,0,,,,,,,,,6,,69,100
45540,note_on,0,0,0,,,,,,,,,7,,64,100
45540,note_on,0,0,0,,,,,,,,,13,,69,100
45540,note_on,0,0,0,,,,,,,,,13,,73,100
45570,note_on,30,0,0,,,,,,,,,13,,73,0
45570,note_on,0,0,0,,,,,,,,,5,,73,0
45570,note_on,0,0,0,,,,,,,,,0,,73,0
45570,note_on,0,0,0,,,,,,,,,13,,69,0
45570,note_on,0,0,0,,,,,,,,,6,,69,0
45570,note_on,0,0,0,,,,,,,,,7,,64,0
45585,note_on,15,0,0,,,,,,,,,15,,61,0
45585,note_on,0,0,0,,,,,,,,,0,,57,0
45585,note_on,0,0,0,,,,,,,,,15,,64,0
45585,note_on,0,0,0,,,,,,,,,10,,45,0
45585,note_on,0,0,0,,,,,,,,,15,,57,0
45585,note_on,0,0,0,,,,,,,,,15,,69,0
45585,note_on,0,0,0,,,,,,,,,14,,57,0
45585,note_on,0,0,0,,,,,,,,,8,,57,0
45600,note_on,15,0,0,,,,,,,,,0,,54,100
45600,note_on,0,0,0,,,,,,,,,0,,74,100
45600,note_on,0,0,0,,,,,,,,,5,,74,100
45600,note_on,0,0,0,,,,,,,,,6,,69,100
45600,note_on,0,0,0,,,,,,,,,7,,66,100
45600,note_on,0,0,0,,,,,,,,,8,,54,100
45600,note_on,0,0,0,,,,,,,,,10,,42,100
45600,note_on,0,0,0,,,,,,,,,13,,69,100
45600,note_on,0,0,0,,,,,,,,,13,,74,100
45600,note_on,0,0,0,,,,,,,,,14,,54,100
45600,note_on,0,0,0,,,,,,,,,15,,57,100
45600,note_on,0,0,0,,,,,,,,,15,,62,100
45600,note_on,0,0,0,,,,,,,,,15,,69,100
45600,note_on,0,0,0,,,,,,,,,15,,54,100
45630,note_on,30,0,0,,,,,,,,,13,,74,0
45630,note_on,0,0,0,,,,,,,,,13,,69,0
45630,note_on,0,0,0,,,,,,,,,7,,66,0
45630,note_on,0,0,0,,,,,,,,,6,,69,0
45630,note_on,0,0,0,,,,,,,,,5,,74,0
45630,note_on,0,0,0,,,,,,,,,0,,74,0
45630,note_on,0,0,0,,,,,,,,,0,,76,100
45630,note_on,0,0,0,,,,,,,,,5,,76,100
45630,note_on,0,0,0,,,,,,,,,7,,68,100
45630,note_on,0,0,0,,,,,,,,,13,,76,100
45660,note_on,30,0,0,,,,,,,,,13,,76,0
45660,note_on,0,0,0,,,,,,,,,5,,76,0
45660,note_on,0,0,0,,,,,,,,,0,,76,0
45660,note_on,0,0,0,,,,,,,,,7,,68,0
45660,note_on,0,0,0,,,,,,,,,0,,74,100
45660,note_on,0,0,0,,,,,,,,,5,,74,100
45660,note_on,0,0,0,,,,,,,,,6,,69,100
45660,note_on,0,0,0,,,,,,,,,7,,66,100
45660,note_on,0,0,0,,,,,,,,,13,,69,100
45660,note_on,0,0,0,,,,,,,,,13,,74,100
45690,note_on,30,0,0,,,,,,,,,13,,74,0
45690,note_on,0,0,0,,,,,,,,,5,,74,0
45690,note_on,0,0,0,,,,,,,,,0,,74,0
45690,note_on,0,0,0,,,,,,,,,13,,69,0
45690,note_on,0,0,0,,,,,,,,,6,,69,0
45690,note_on,0,0,0,,,,,,,,,7,,66,0
45705,note_on,15,0,0,,,,,,,,,15,,57,0
45705,note_on,0,0,0,,,,,,,,,0,,54,0
45705,note_on,0,0,0,,,,,,,,,15,,62,0
45705,note_on,0,0,0,,,,,,,,,14,,54,0
45705,note_on,0,0,0,,,,,,,,,15,,54,0
45705,note_on,0,0,0,,,,,,,,,10,,42,0
45705,note_on,0,0,0,,,,,,,,,15,,69,0
45705,note_on,0,0,0,,,,,,,,,8,,54,0
45720,note_on,15,0,0,,,,,,,,,0,,49,100
45720,note_on,0,0,0,,,,,,,,,0,,76,100
45720,note_on,0,0,0,,,,,,,,,5,,76,100
45720,note_on,0,0,0,,,,,,,,,6,,73,100
45720,note_on,0,0,0,,,,,,,,,7,,69,100
45720,note_on,0,0,0,,,,,,,,,8,,49,100
45720,note_on,0,0,0,,,,,,,,,10,,37,100
45720,note_on,0,0,0,,,,,,,,,13,,73,100
45720,note_on,0,0,0,,,,,,,,,13,,76,100
45720,note_on,0,0,0,,,,,,,,,14,,49,100
45720,note_on,0,0,0,,,,,,,,,15,,57,100
45720,note_on,0,0,0,,,,,,,,,15,,64,100
45720,note_on,0,0,0,,,,,,,,,15,,69,100
45720,note_on,0,0,0,,,,,,,,,15,,49,100
45750,note_on,30,0,0,,,,,,,,,13,,76,0
45750,note_on,0,0,0,,,,,,,,,13,,73,0
45750,note_on,0,0,0,,,,,,,,,7,,69,0
45750,note_on,0,0,0,,,,,,,,,6,,73,0
45750,note_on,0,0,0,,,,,,,,,5,,76,0
45750,note_on,0,0,0,,,,,,,,,0,,76,0
45750,note_on,0,0,0,,,,,,,,,0,,78,100
45750,note_on,0,0,0,,,,,,,,,5,,78,100
45750,note_on,0,0,0,,,,,,,,,6,,74,100
45750,note_on,0,0,0,,,,,,,,,13,,74,100
45750,note_on,0,0,0,,,,,,,,,13,,78,100
45780,note_on,30,0,0,,,,,,,,,13,,78,0
45780,note_on,0,0,0,,,,,,,,,5,,78,0
45780,note_on,0,0,0,,,,,,,,,0,,78,0
45780,note_on,0,0,0,,,,,,,,,13,,74,0
45780,note_on,0,0,0,,,,,,,,,6,,74,0
45780,note_on,0,0,0,,,,,,,,,0,,76,100
45780,note_on,0,0,0,,,,,,,,,5,,76,100
45780,note_on,0,0,0,,,,,,,,,6,,73,100
45780,note_on,0,0,0,,,,,,,,,7,,69,100
45780,note_on,0,0,0,,,,,,,,,13,,73,100
45780,note_on,0,0,0,,,,,,,,,13,,76,100
45810,note_on,30,0,0,,,,,,,,,13,,76,0
45810,note_on,0,0,0,,,,,,,,,5,,76,0
45810,note_on,0,0,0,,,,,,,,,0,,76,0
45810,note_on,0,0,0,,,,,,,,,13,,73,0
45810,note_on,0,0,0,,,,,,,,,6,,73,0
45810,note_on,0,0,0,,,,,,,,,7,,69,0
45825,note_on,15,0,0,,,,,,,,,15,,57,0
45825,note_on,0,0,0,,,,,,,,,0,,49,0
45825,note_on,0,0,0,,,,,,,,,15,,64,0
45825,note_on,0,0,0,,,,,,,,,10,,37,0
45825,note_on,0,0,0,,,,,,,,,15,,49,0
45825,note_on,0,0,0,,,,,,,,,15,,69,0
45825,note_on,0,0,0,,,,,,,,,14,,49,0
45825,note_on,0,0,0,,,,,,,,,8,,49,0
45840,note_on,15,0,0,,,,,,,,,0,,50,100
45840,note_on,0,0,0,,,,,,,,,0,,78,100
45840,note_on,0,0,0,,,,,,,,,5,,78,100
45840,note_on,0,0,0,,,,,,,,,6,,69,100
45840,note_on,0,0,0,,,,,,,,,7,,62,100
45840,note_on,0,0,0,,,,,,,,,8,,50,100
45840,note_on,0,0,0,,,,,,,,,10,,38,100
45840,note_on,0,0,0,,,,,,,,,13,,69,100
45840,note_on,0,0,0,,,,,,,,,13,,78,100
45840,note_on,0,0,0,,,,,,,,,14,,50,100
45840,note_on,0,0,0,,,,,,,,,15,,57,100
45840,note_on,0,0,0,,,,,,,,,15,,66,100
45840,note_on,0,0,0,,,,,,,,,15,,69,100
45840,note_on,0,0,0,,,,,,,,,15,,50,100
45870,note_on,30,0,0,,,,,,,,,13,,78,0
45870,note_on,0,0,0,,,,,,,,,13,,69,0
45870,note_on,0,0,0,,,,,,,,,7,,62,0
45870,note_on,0,0,0,,,,,,,,,6,,69,0
45870,note_on,0,0,0,,,,,,,,,5,,78,0
45870,note_on,0,0,0,,,,,,,,,0,,78,0
45870,note_on,0,0,0,,,,,,,,,0,,80,100
45870,note_on,0,0,0,,,,,,,,,5,,80,100
45870,note_on,0,0,0,,,,,,,,,6,,71,100
45870,note_on,0,0,0,,,,,,,,,13,,71,100
45870,note_on,0,0,0,,,,,,,,,13,,80,100
45900,note_on,30,0,0,,,,,,,,,13,,80,0
45900,note_on,0,0,0,,,,,,,,,5,,80,0
45900,note_on,0,0,0,,,,,,,,,0,,80,0
45900,note_on,0,0,0,,,,,,,,,13,,71,0
45900,note_on,0,0,0,,,,,,,,,6,,71,0
45900,note_on,0,0,0,,,,,,,,,0,,78,100
45900,note_on,0,0,0,,,,,,,,,5,,78,100
45900,note_on,0,0,0,,,,,,,,,6,,69,100
45900,note_on,0,0,0,,,,,,,,,7,,62,100
45900,note_on,0,0,0,,,,,,,,,13,,69,100
45900,note_on,0,0,0,,,,,,,,,13,,78,100
45930,note_on,30,0,0,,,,,,,,,13,,78,0
45930,note_on,0,0,0,,,,,,,,,5,,78,0
45930,note_on,0,0,0,,,,,,,,,0,,78,0
45930,note_on,0,0,0,,,,,,,,,13,,69,0
45930,note_on,0,0,0,,,,,,,,,6,,69,0
45930,note_on,0,0,0,,,,,,,,,7,,62,0
45945,note_on,15,0,0,,,,,,,,,15,,57,0
45945,note_on,0,0,0,,,,,,,,,0,,50,0
45945,note_on,0,0,0,,,,,,,,,15,,66,0
45945,note_on,0,0,0,,,,,,,,,10,,38,0
45945,note_on,0,0,0,,,,,,,,,15,,50,0
45945,note_on,0,0,0,,,,,,,,,15,,69,0
45945,note_on,0,0,0,,,,,,,,,14,,50,0
45945,note_on,0,0,0,,,,,,,,,8,,50,0
45960,note_on,15,0,0,,,,,,,,,0,,47,100
45960,note_on,0,0,0,,,,,,,,,0,,80,100
45960,note_on,0,0,0,,,,,,,,,5,,80,100
45960,note_on,0,0,0,,,,,,,,,6,,71,100
45960,note_on,0,0,0,,,,,,,,,7,,62,100
45960,note_on,0,0,0,,,,,,,,,8,,47,100
45960,note_on,0,0,0,,,,,,,,,10,,35,100
45960,note_on,0,0,0,,,,,,,,,13,,71,100
45960,note_on,0,0,0,,,,,,,,,13,,80,100
45960,note_on,0,0,0,,,,,,,,,14,,47,100
45960,note_on,0,0,0,,,,,,,,,15,,59,100
45960,note_on,0,0,0,,,,,,,,,15,,64,100
45960,note_on,0,0,0,,,,,,,,,15,,68,100
45960,note_on,0,0,0,,,,,,,,,15,,47,100
45990,note_on,30,0,0,,,,,,,,,13,,80,0
45990,note_on,0,0,0,,,,,,,,,13,,71,0
45990,note_on,0,0,0,,,,,,,,,7,,62,0
45990,note_on,0,0,0,,,,,,,,,6,,71,0
45990,note_on,0,0,0,,,,,,,,,5,,80,0
45990,note_on,0,0,0,,,,,,,,,0,,80,0
45990,note_on,0,0,0,,,,,,,,,0,,81,100
45990,note_on,0,0,0,,,,,,,,,5,,81,100
45990,note_on,0,0,0,,,,,,,,,6,,73,100
45990,note_on,0,0,0,,,,,,,,,13,,73,100
45990,note_on,0,0,0,,,,,,,,,13,,81,100
46020,note_on,30,0,0,,,,,,,,,13,,81,0
46020,note_on,0,0,0,,,,,,,,,5,,81,0
46020,note_on,0,0,0,,,,,,,,,0,,81,0
46020,note_on,0,0,0,,,,,,,,,13,,73,0
46020,note_on,0,0,0,,,,,,,,,6,,73,0
46020,note_on,0,0,0,,,,,,,,,0,,80,100
46020,note_on,0,0,0,,,,,,,,,5,,80,100
46020,note_on,0,0,0,,,,,,,,,6,,71,100
46020,note_on,0,0,0,,,,,,,,,7,,62,100
46020,note_on,0,0,0,,,,,,,,,13,,71,100
46020,note_on,0,0,0,,,,,,,,,13,,80,100
46050,note_on,30,0,0,,,,,,,,,13,,80,0
46050,note_on,0,0,0,,,,,,,,,5,,80,0
46050,note_on,0,0,0,,,,,,,,,0,,80,0
46050,note_on,0,0,0,,,,,,,,,13,,71,0
46050,note_on,0,0,0,,,,,,,,,6,,71,0
46050,note_on,0,0,0,,,,,,,,,7,,62,0
46065,note_on,15,0,0,,,,,,,,,15,,59,0
46065,note_on,0,0,0,,,,,,,,,0,,47,0
46065,note_on,0,0,0,,,,,,,,,15,,64,0
46065,note_on,0,0,0,,,,,,,,,10,,35,0
46065,note_on,0,0,0,,,,,,,,,15,,47,0
46065,note_on,0,0,0,,,,,,,,,15,,68,0
46065,note_on,0,0,0,,,,,,,,,14,,47,0
46065,note_on,0,0,0,,,,,,,,,8,,47,0
46080,note_on,15,0,0,,,,,,,,,0,,81,100
46080,note_on,0,0,0,,,,,,,,,0,,49,100
46080,note_on,0,0,0,,,,,,,,,5,,81,100
46080,note_on,0,0,0,,,,,,,,,6,,64,100
46080,note_on,0,0,0,,,,,,,,,7,,61,100
46080,note_on,0,0,0,,,,,,,,,8,,49,100
46080,note_on,0,0,0,,,,,,,,,10,,37,100
46080,note_on,0,0,0,,,,,,,,,13,,64,100
46080,note_on,0,0,0,,,,,,,,,13,,81,100
46080,note_on,0,0,0,,,,,,,,,14,,49,100
46080,note_on,0,0,0,,,,,,,,,15,,68,100
46080,note_on,0,0,0,,,,,,,,,15,,64,100
46080,note_on,0,0,0,,,,,,,,,15,,56,100
46080,note_on,0,0,0,,,,,,,,,15,,49,100
46110,note_on,30,0,0,,,,,,,,,13,,81,0
46110,note_on,0,0,0,,,,,,,,,13,,64,0
46110,note_on,0,0,0,,,,,,,,,7,,61,0
46110,note_on,0,0,0,,,,,,,,,6,,64,0
46110,note_on,0,0,0,,,,,,,,,5,,81,0
46110,note_on,0,0,0,,,,,,,,,0,,81,0
46110,note_on,0,0,0,,,,,,,,,0,,83,100
46110,note_on,0,0,0,,,,,,,,,5,,83,100
46110,note_on,0,0,0,,,,,,,,,7,,62,100
46132,control_change,22,0,0,,,,,,,11,127,13,,,
46140,note_on,8,0,0,,,,,,,,,7,,62,0
46140,note_on,0,0,0,,,,,,,,,5,,83,0
46140,note_on,0,0,0,,,,,,,,,0,,83,0
46140,note_on,0,0,0,,,,,,,,,0,,81,100
46140,note_on,0,0,0,,,,,,,,,5,,81,100
46140,note_on,0,0,0,,,,,,,,,6,,76,100
46140,note_on,0,0,0,,,,,,,,,7,,61,100
46140,note_on,0,0,0,,,,,,,,,13,,76,100
46170,note_on,30,0,0,,,,,,,,,13,,76,0
46170,note_on,0,0,0,,,,,,,,,5,,81,0
46170,note_on,0,0,0,,,,,,,,,0,,81,0
46170,note_on,0,0,0,,,,,,,,,7,,61,0
46170,note_on,0,0,0,,,,,,,,,6,,76,0
46185,note_on,15,0,0,,,,,,,,,15,,68,0
46185,note_on,0,0,0,,,,,,,,,0,,49,0
46185,note_on,0,0,0,,,,,,,,,15,,49,0
46185,note_on,0,0,0,,,,,,,,,15,,64,0
46185,note_on,0,0,0,,,,,,,,,14,,49,0
46185,note_on,0,0,0,,,,,,,,,8,,49,0
46185,note_on,0,0,0,,,,,,,,,10,,37,0
46185,note_on,0,0,0,,,,,,,,,15,,56,0
46200,note_on,15,0,0,,,,,,,,,0,,83,100
46200,note_on,0,0,0,,,,,,,,,0,,44,100
46200,note_on,0,0,0,,,,,,,,,5,,83,100
46200,note_on,0,0,0,,,,,,,,,6,,74,100
46200,note_on,0,0,0,,,,,,,,,7,,64,100
46200,note_on,0,0,0,,,,,,,,,8,,44,100
46200,note_on,0,0,0,,,,,,,,,10,,32,100
46200,note_on,0,0,0,,,,,,,,,13,,74,100
46200,note_on,0,0,0,,,,,,,,,14,,44,100
46200,note_on,0,0,0,,,,,,,,,15,,71,100
46200,note_on,0,0,0,,,,,,,,,15,,59,100
46200,note_on,0,0,0,,,,,,,,,15,,64,100
46200,note_on,0,0,0,,,,,,,,,15,,44,100
46230,note_on,30,0,0,,,,,,,,,13,,74,0
46230,note_on,0,0,0,,,,,,,,,7,,64,0
46230,note_on,0,0,0,,,,,,,,,6,,74,0
46230,note_on,0,0,0,,,,,,,,,5,,83,0
46230,note_on,0,0,0,,,,,,,,,0,,83,0
46230,note_on,0,0,0,,,,,,,,,0,,85,100
46230,note_on,0,0,0,,,,,,,,,5,,85,100
46230,note_on,0,0,0,,,,,,,,,6,,76,100
46230,note_on,0,0,0,,,,,,,,,13,,76,100
46260,note_on,30,0,0,,,,,,,,,13,,76,0
46260,note_on,0,0,0,,,,,,,,,5,,85,0
46260,note_on,0,0,0,,,,,,,,,0,,85,0
46260,note_on,0,0,0,,,,,,,,,6,,76,0
46260,note_on,0,0,0,,,,,,,,,0,,83,100
46260,note_on,0,0,0,,,,,,,,,5,,83,100
46260,note_on,0,0,0,,,,,,,,,6,,74,100
46260,note_on,0,0,0,,,,,,,,,7,,64,100
46260,note_on,0,0,0,,,,,,,,,13,,74,100
46290,note_on,30,0,0,,,,,,,,,13,,74,0
46290,note_on,0,0,0,,,,,,,,,5,,83,0
46290,note_on,0,0,0,,,,,,,,,0,,83,0
46290,note_on,0,0,0,,,,,,,,,7,,64,0
46290,note_on,0,0,0,,,,,,,,,6,,74,0
46305,note_on,15,0,0,,,,,,,,,15,,59,0
46305,note_on,0,0,0,,,,,,,,,0,,44,0
46305,note_on,0,0,0,,,,,,,,,10,,32,0
46305,note_on,0,0,0,,,,,,,,,15,,64,0
46305,note_on,0,0,0,,,,,,,,,8,,44,0
46305,note_on,0,0,0,,,,,,,,,14,,44,0
46305,note_on,0,0,0,,,,,,,,,15,,44,0
46305,note_on,0,0,0,,,,,,,,,15,,71,0
46320,note_on,15,0,0,,,,,,,,,0,,85,100
46320,note_on,0,0,0,,,,,,,,,0,,45,100
46320,note_on,0,0,0,,,,,,,,,5,,85,100
46320,note_on,0,0,0,,,,,,,,,6,,73,100
46320,note_on,0,0,0,,,,,,,,,7,,64,100
46320,note_on,0,0,0,,,,,,,,,8,,45,100
46320,note_on,0,0,0,,,,,,,,,10,,33,100
46320,note_on,0,0,0,,,,,,,,,13,,73,100
46320,note_on,0,0,0,,,,,,,,,14,,45,100
46320,note_on,0,0,0,,,,,,,,,15,,61,100
46320,note_on,0,0,0,,,,,,,,,15,,64,100
46320,note_on,0,0,0,,,,,,,,,15,,69,100
46320,note_on,0,0,0,,,,,,,,,15,,45,100
46350,note_on,30,0,0,,,,,,,,,13,,73,0
46350,note_on,0,0,0,,,,,,,,,7,,64,0
46350,note_on,0,0,0,,,,,,,,,6,,73,0
46350,note_on,0,0,0,,,,,,,,,5,,85,0
46350,note_on,0,0,0,,,,,,,,,0,,85,0
46350,note_on,0,0,0,,,,,,,,,0,,86,100
46350,note_on,0,0,0,,,,,,,,,5,,86,100
46350,note_on,0,0,0,,,,,,,,,6,,71,100
46350,note_on,0,0,0,,,,,,,,,13,,71,100
46380,note_on,30,0,0,,,,,,,,,13,,71,0
46380,note_on,0,0,0,,,,,,,,,5,,86,0
46380,note_on,0,0,0,,,,,,,,,0,,86,0
46380,note_on,0,0,0,,,,,,,,,6,,71,0
46380,note_on,0,0,0,,,,,,,,,0,,85,100
46380,note_on,0,0,0,,,,,,,,,5,,85,100
46380,note_on,0,0,0,,,,,,,,,6,,69,100
46380,note_on,0,0,0,,,,,,,,,7,,64,100
46380,note_on,0,0,0,,,,,,,,,13,,69,100
46410,note_on,30,0,0,,,,,,,,,13,,69,0
46410,note_on,0,0,0,,,,,,,,,5,,85,0
46410,note_on,0,0,0,,,,,,,,,0,,85,0
46410,note_on,0,0,0,,,,,,,,,7,,64,0
46410,note_on,0,0,0,,,,,,,,,6,,69,0
46425,note_on,15,0,0,,,,,,,,,15,,64,0
46425,note_on,0,0,0,,,,,,,,,0,,45,0
46425,note_on,0,0,0,,,,,,,,,10,,33,0
46425,note_on,0,0,0,,,,,,,,,15,,69,0
46425,note_on,0,0,0,,,,,,,,,8,,45,0
46425,note_on,0,0,0,,,,,,,,,14,,45,0
46425,note_on,0,0,0,,,,,,,,,15,,45,0
46425,note_on,0,0,0,,,,,,,,,15,,61,0
46440,note_on,15,0,0,,,,,,,,,0,,86,100
46440,note_on,0,0,0,,,,,,,,,0,,47,100
46440,note_on,0,0,0,,,,,,,,,5,,86,100
46440,note_on,0,0,0,,,,,,,,,6,,68,100
46440,note_on,0,0,0,,,,,,,,,7,,62,100
46440,note_on,0,0,0,,,,,,,,,8,,47,100
46440,note_on,0,0,0,,,,,,,,,10,,35,100
46440,note_on,0,0,0,,,,,,,,,13,,68,100
46440,note_on,0,0,0,,,,,,,,,14,,47,100
46440,note_on,0,0,0,,,,,,,,,15,,68,100
46440,note_on,0,0,0,,,,,,,,,15,,56,100
46440,note_on,0,0,0,,,,,,,,,15,,64,100
46440,note_on,0,0,0,,,,,,,,,15,,47,100
46470,note_on,30,0,0,,,,,,,,,13,,68,0
46470,note_on,0,0,0,,,,,,,,,7,,62,0
46470,note_on,0,0,0,,,,,,,,,6,,68,0
46470,note_on,0,0,0,,,,,,,,,5,,86,0
46470,note_on,0,0,0,,,,,,,,,0,,86,0
46500,note_on,30,0,0,,,,,,,,,0,,86,100
46500,note_on,0,0,0,,,,,,,,,5,,86,100
46500,note_on,0,0,0,,,,,,,,,6,,66,100
46500,note_on,0,0,0,,,,,,,,,7,,62,100
46500,note_on,0,0,0,,,,,,,,,13,,66,100
46530,note_on,30,0,0,,,,,,,,,13,,66,0
46530,note_on,0,0,0,,,,,,,,,5,,86,0
46530,note_on,0,0,0,,,,,,,,,0,,86,0
46530,note_on,0,0,0,,,,,,,,,7,,62,0
46530,note_on,0,0,0,,,,,,,,,6,,66,0
46545,note_on,15,0,0,,,,,,,,,15,,64,0
46545,note_on,0,0,0,,,,,,,,,0,,47,0
46545,note_on,0,0,0,,,,,,,,,10,,35,0
46545,note_on,0,0,0,,,,,,,,,14,,47,0
46545,note_on,0,0,0,,,,,,,,,15,,68,0
46545,note_on,0,0,0,,,,,,,,,15,,56,0
46545,note_on,0,0,0,,,,,,,,,8,,47,0
46545,note_on,0,0,0,,,,,,,,,15,,47,0
46560,note_on,15,0,0,,,,,,,,,0,,76,100
46560,note_on,0,0,0,,,,,,,,,0,,44,100
46560,note_on,0,0,0,,,,,,,,,5,,76,100
46560,note_on,0,0,0,,,,,,,,,6,,71,100
46560,note_on,0,0,0,,,,,,,,,7,,59,100
46560,note_on,0,0,0,,,,,,,,,8,,44,100
46560,note_on,0,0,0,,,,,,,,,10,,32,100
46560,note_on,0,0,0,,,,,,,,,13,,64,100
46560,note_on,0,0,0,,,,,,,,,14,,44,100
46560,note_on,0,0,0,,,,,,,,,15,,62,100
46560,note_on,0,0,0,,,,,,,,,15,,44,100
46570,note_on,10,0,0,,,,,,,,,15,,64,100
46590,note_on,20,0,0,,,,,,,,,15,,68,100
46610,note_on,20,0,0,,,,,,,,,15,,71,100
46630,note_on,20,0,0,,,,,,,,,15,,76,100
46700,note_on,70,0,0,,,,,,,,,15,,64,0
46700,note_on,0,0,0,,,,,,,,,15,,62,0
46710,note_on,10,0,0,,,,,,,,,7,,59,0
46710,note_on,0,0,0,,,,,,,,,6,,71,0
46710,note_on,0,0,0,,,,,,,,,5,,76,0
46710,note_on,0,0,0,,,,,,,,,15,,71,0
46710,note_on,0,0,0,,,,,,,,,15,,68,0
46710,note_on,0,0,0,,,,,,,,,15,,76,0
46720,note_on,10,0,0,,,,,,,,,15,,44,0
46725,note_on,5,0,0,,,,,,,,,8,,44,0
46725,note_on,0,0,0,,,,,,,,,10,,32,0
46725,note_on,0,0,0,,,,,,,,,0,,44,0
46725,note_on,0,0,0,,,,,,,,,14,,44,0
46725,note_on,0,0,0,,,,,,,,,13,,64,0
46725,note_on,0,0,0,,,,,,,,,0,,76,0
46770,note_on,45,0,0,,,,,,,,,0,,57,100
46770,note_on,0,0,0,,,,,,,,,0,,76,100
46770,note_on,0,0,0,,,,,,,,,5,,76,100
46770,note_on,0,0,0,,,,,,,,,6,,73,100
46770,note_on,0,0,0,,,,,,,,,7,,69,100
46770,note_on,0,0,0,,,,,,,,,8,,57,100
46770,note_on,0,0,0,,,,,,,,,10,,45,100
46770,note_on,0,0,0,,,,,,,,,13,,73,100
46770,note_on,0,0,0,,,,,,,,,13,,76,100
46770,note_on,0,0,0,,,,,,,,,14,,57,100
46770,note_on,0,0,0,,,,,,,,,15,,57,100
46792,note_on,22,0,0,,,,,,,,,13,,73,0
46793,note_on,1,0,0,,,,,,,,,13,,76,0
46793,note_on,0,0,0,,,,,,,,,5,,76,0
46793,note_on,0,0,0,,,,,,,,,0,,57,0
46793,note_on,0,0,0,,,,,,,,,0,,76,0
46800,note_on,7,0,0,,,,,,,,,10,,45,0
46800,note_on,0,0,0,,,,,,,,,8,,57,0
46800,note_on,0,0,0,,,,,,,,,15,,57,0
46800,note_on,0,0,0,,,,,,,,,7,,69,0
46800,note_on,0,0,0,,,,,,,,,6,,73,0
46800,note_on,0,0,0,,,,,,,,,14,,57,0
46800,note_on,0,0,0,,,,,,,,,0,,59,100
46800,note_on,0,0,0,,,,,,,,,0,,74,100
46800,note_on,0,0,0,,,,,,,,,5,,74,100
46800,note_on,0,0,0,,,,,,,,,6,,71,100
46800,note_on,0,0,0,,,,,,,,,7,,68,100
46800,note_on,0,0,0,,,,,,,,,8,,59,100
46800,note_on,0,0,0,,,,,,,,,10,,47,100
46800,note_on,0,0,0,,,,,,,,,13,,71,100
46800,note_on,0,0,0,,,,,,,,,13,,74,100
46800,note_on,0,0,0,,,,,,,,,14,,59,100
46800,note_on,0,0,0,,,,,,,,,15,,62,100
46800,note_on,0,0,0,,,,,,,,,15,,68,100
46800,note_on,0,0,0,,,,,,,,,15,,64,100
46800,note_on,0,0,0,,,,,,,,,15,,59,100
46830,note_on,30,0,0,,,,,,,,,13,,74,0
46830,note_on,0,0,0,,,,,,,,,13,,71,0
46830,note_on,0,0,0,,,,,,,,,6,,71,0
46830,note_on,0,0,0,,,,,,,,,5,,74,0
46830,note_on,0,0,0,,,,,,,,,0,,74,0
46830,note_on,0,0,0,,,,,,,,,0,,76,100
46830,note_on,0,0,0,,,,,,,,,5,,76,100
46830,note_on,0,0,0,,,,,,,,,6,,73,100
46830,note_on,0,0,0,,,,,,,,,13,,73,100
46830,note_on,0,0,0,,,,,,,,,13,,76,100
46845,note_on,15,0,0,,,,,,,,,5,,74,100
46860,note_on,15,0,0,,,,,,,,,13,,76,0
46860,note_on,0,0,0,,,,,,,,,0,,76,0
46860,note_on,0,0,0,,,,,,,,,13,,73,0
46860,note_on,0,0,0,,,,,,,,,5,,76,0
46860,note_on,0,0,0,,,,,,,,,6,,73,0
46860,note_on,0,0,0,,,,,,,,,0,,74,100
46860,note_on,0,0,0,,,,,,,,,6,,71,100
46860,note_on,0,0,0,,,,,,,,,13,,71,100
46860,note_on,0,0,0,,,,,,,,,13,,74,100
46875,note_on,15,0,0,,,,,,,,,5,,74,0
46890,note_on,15,0,0,,,,,,,,,0,,74,0
46890,note_on,0,0,0,,,,,,,,,13,,74,0
46890,note_on,0,0,0,,,,,,,,,6,,71,0
46890,note_on,0,0,0,,,,,,,,,13,,71,0
46905,note_on,15,0,0,,,,,,,,,15,,62,0
46905,note_on,0,0,0,,,,,,,,,10,,47,0
46905,note_on,0,0,0,,,,,,,,,0,,59,0
46905,note_on,0,0,0,,,,,,,,,15,,59,0
46905,note_on,0,0,0,,,,,,,,,15,,64,0
46905,note_on,0,0,0,,,,,,,,,8,,59,0
46905,note_on,0,0,0,,,,,,,,,15,,68,0
46905,note_on,0,0,0,,,,,,,,,7,,68,0
46905,note_on,0,0,0,,,,,,,,,14,,59,0
46920,note_on,15,0,0,,,,,,,,,0,,83,100
46920,note_on,0,0,0,,,,,,,,,0,,56,100
46920,note_on,0,0,0,,,,,,,,,5,,83,100
46920,note_on,0,0,0,,,,,,,,,6,,71,100
46920,note_on,0,0,0,,,,,,,,,7,,64,100
46920,note_on,0,0,0,,,,,,,,,8,,56,100
46920,note_on,0,0,0,,,,,,,,,10,,44,100
46920,note_on,0,0,0,,,,,,,,,13,,71,100
46920,note_on,0,0,0,,,,,,,,,13,,83,100
46920,note_on,0,0,0,,,,,,,,,14,,56,100
46920,note_on,0,0,0,,,,,,,,,15,,59,100
46920,note_on,0,0,0,,,,,,,,,15,,71,100
46920,note_on,0,0,0,,,,,,,,,15,,62,100
46920,note_on,0,0,0,,,,,,,,,15,,56,100
46950,note_on,30,0,0,,,,,,,,,13,,83,0
46950,note_on,0,0,0,,,,,,,,,13,,71,0
46950,note_on,0,0,0,,,,,,,,,6,,71,0
46950,note_on,0,0,0,,,,,,,,,5,,83,0
46950,note_on,0,0,0,,,,,,,,,0,,83,0
46950,note_on,0,0,0,,,,,,,,,6,,73,100
46950,note_on,0,0,0,,,,,,,,,13,,73,100
46980,note_on,30,0,0,,,,,,,,,13,,73,0
46980,note_on,0,0,0,,,,,,,,,6,,73,0
46980,note_on,0,0,0,,,,,,,,,0,,74,100
46980,note_on,0,0,0,,,,,,,,,5,,74,100
46980,note_on,0,0,0,,,,,,,,,6,,71,100
46980,note_on,0,0,0,,,,,,,,,13,,71,100
46980,note_on,0,0,0,,,,,,,,,13,,74,100
47010,note_on,30,0,0,,,,,,,,,13,,74,0
47010,note_on,0,0,0,,,,,,,,,0,,74,0
47010,note_on,0,0,0,,,,,,,,,13,,71,0
47010,note_on,0,0,0,,,,,,,,,5,,74,0
47010,note_on,0,0,0,,,,,,,,,6,,71,0
47025,note_on,15,0,0,,,,,,,,,7,,64,0
47025,note_on,0,0,0,,,,,,,,,10,,44,0
47025,note_on,0,0,0,,,,,,,,,0,,56,0
47025,note_on,0,0,0,,,,,,,,,15,,62,0
47025,note_on,0,0,0,,,,,,,,,14,,56,0
47025,note_on,0,0,0,,,,,,,,,15,,59,0
47025,note_on,0,0,0,,,,,,,,,15,,71,0
47025,note_on,0,0,0,,,,,,,,,8,,56,0
47025,note_on,0,0,0,,,,,,,,,15,,56,0
47040,note_on,15,0,0,,,,,,,,,0,,73,100
47040,note_on,0,0,0,,,,,,,,,0,,57,100
47040,note_on,0,0,0,,,,,,,,,5,,73,100
47040,note_on,0,0,0,,,,,,,,,6,,69,100
47040,note_on,0,0,0,,,,,,,,,7,,64,100
47040,note_on,0,0,0,,,,,,,,,8,,57,100
47040,note_on,0,0,0,,,,,,,,,10,,45,100
47040,note_on,0,0,0,,,,,,,,,13,,69,100
47040,note_on,0,0,0,,,,,,,,,13,,73,100
47040,note_on,0,0,0,,,,,,,,,14,,57,100
47040,note_on,0,0,0,,,,,,,,,15,,64,100
47040,note_on,0,0,0,,,,,,,,,15,,69,100
47040,note_on,0,0,0,,,,,,,,,15,,61,100
47040,note_on,0,0,0,,,,,,,,,15,,57,100
47070,note_on,30,0,0,,,,,,,,,15,,57,0
47070,note_on,0,0,0,,,,,,,,,5,,73,0
47070,note_on,0,0,0,,,,,,,,,13,,73,0
47070,note_on,0,0,0,,,,,,,,,0,,73,0
47070,note_on,0,0,0,,,,,,,,,10,,45,0
47070,note_on,0,0,0,,,,,,,,,14,,57,0
47070,note_on,0,0,0,,,,,,,,,0,,57,0
47070,note_on,0,0,0,,,,,,,,,8,,57,0
47100,note_on,30,0,0,,,,,,,,,0,,80,100
47100,note_on,0,0,0,,,,,,,,,0,,52,100
47100,note_on,0,0,0,,,,,,,,,5,,80,100
47100,note_on,0,0,0,,,,,,,,,8,,52,100
47100,note_on,0,0,0,,,,,,,,,10,,40,100
47100,note_on,0,0,0,,,,,,,,,13,,80,100
47100,note_on,0,0,0,,,,,,,,,14,,52,100
47100,note_on,0,0,0,,,,,,,,,15,,52,100
47130,note_on,30,0,0,,,,,,,,,15,,52,0
47130,note_on,0,0,0,,,,,,,,,8,,52,0
47130,note_on,0,0,0,,,,,,,,,0,,80,0
47130,note_on,0,0,0,,,,,,,,,5,,80,0
47130,note_on,0,0,0,,,,,,,,,0,,52,0
47130,note_on,0,0,0,,,,,,,,,14,,52,0
47130,note_on,0,0,0,,,,,,,,,10,,40,0
47130,note_on,0,0,0,,,,,,,,,13,,80,0
47145,note_on,15,0,0,,,,,,,,,7,,64,0
47160,note_on,15,0,0,,,,,,,,,15,,69,0
47160,note_on,0,0,0,,,,,,,,,15,,64,0
47160,note_on,0,0,0,,,,,,,,,15,,61,0
47160,note_on,0,0,0,,,,,,,,,0,,81,100
47160,note_on,0,0,0,,,,,,,,,0,,54,100
47160,note_on,0,0,0,,,,,,,,,5,,81,100
47160,note_on,0,0,0,,,,,,,,,7,,61,100
47160,note_on,0,0,0,,,,,,,,,8,,54,100
47160,note_on,0,0,0,,,,,,,,,10,,42,100
47160,note_on,0,0,0,,,,,,,,,13,,81,100
47160,note_on,0,0,0,,,,,,,,,14,,54,100
47160,note_on,0,0,0,,,,,,,,,15,,61,100
47160,note_on,0,0,0,,,,,,,,,15,,69,100
47160,note_on,0,0,0,,,,,,,,,15,,66,100
47160,note_on,0,0,0,,,,,,,,,15,,54,100
47190,note_on,30,0,0,,,,,,,,,15,,54,0
47190,note_on,0,0,0,,,,,,,,,5,,81,0
47190,note_on,0,0,0,,,,,,,,,13,,81,0
47190,note_on,0,0,0,,,,,,,,,8,,54,0
47190,note_on,0,0,0,,,,,,,,,6,,69,0
47190,note_on,0,0,0,,,,,,,,,0,,81,0
47190,note_on,0,0,0,,,,,,,,,0,,54,0
47190,note_on,0,0,0,,,,,,,,,10,,42,0
47190,note_on,0,0,0,,,,,,,,,7,,61,0
47190,note_on,0,0,0,,,,,,,,,13,,69,0
47190,note_on,0,0,0,,,,,,,,,14,,54,0
47220,note_on,30,0,0,,,,,,,,,0,,74,100
47220,note_on,0,0,0,,,,,,,,,0,,50,100
47220,note_on,0,0,0,,,,,,,,,5,,74,100
47220,note_on,0,0,0,,,,,,,,,7,,66,100
47220,note_on,0,0,0,,,,,,,,,8,,50,100
47220,note_on,0,0,0,,,,,,,,,10,,38,100
47220,note_on,0,0,0,,,,,,,,,13,,74,100
47220,note_on,0,0,0,,,,,,,,,14,,50,100
47220,note_on,0,0,0,,,,,,,,,15,,50,100
47250,note_on,30,0,0,,,,,,,,,15,,50,0
47250,note_on,0,0,0,,,,,,,,,13,,74,0
47250,note_on,0,0,0,,,,,,,,,8,,50,0
47250,note_on,0,0,0,,,,,,,,,7,,66,0
47250,note_on,0,0,0,,,,,,,,,0,,74,0
47250,note_on,0,0,0,,,,,,,,,10,,38,0
47250,note_on,0,0,0,,,,,,,,,0,,50,0
47250,note_on,0,0,0,,,,,,,,,5,,74,0
47250,note_on,0,0,0,,,,,,,,,14,,50,0
47250,note_on,0,0,0,,,,,,,,,6,,69,100
47250,note_on,0,0,0,,,,,,,,,13,,69,100
47265,note_on,15,0,0,,,,,,,,,6,,69,0
47272,note_on,7,0,0,,,,,,,,,13,,69,0
47280,note_on,8,0,0,,,,,,,,,15,,66,0
47280,note_on,0,0,0,,,,,,,,,15,,69,0
47280,note_on,0,0,0,,,,,,,,,15,,61,0
47280,note_on,0,0,0,,,,,,,,,0,,73,100
47280,note_on,0,0,0,,,,,,,,,0,,52,100
47280,note_on,0,0,0,,,,,,,,,5,,73,100
47280,note_on,0,0,0,,,,,,,,,6,,69,100
47280,note_on,0,0,0,,,,,,,,,7,,64,100
47280,note_on,0,0,0,,,,,,,,,8,,52,100
47280,note_on,0,0,0,,,,,,,,,10,,40,100
47280,note_on,0,0,0,,,,,,,,,13,,69,100
47280,note_on,0,0,0,,,,,,,,,13,,73,100
47280,note_on,0,0,0,,,,,,,,,14,,52,100
47280,note_on,0,0,0,,,,,,,,,15,,64,100
47280,note_on,0,0,0,,,,,,,,,15,,69,100
47280,note_on,0,0,0,,,,,,,,,15,,61,100
47280,note_on,0,0,0,,,,,,,,,15,,52,100
47370,note_on,90,0,0,,,,,,,,,13,,73,0
47370,note_on,0,0,0,,,,,,,,,5,,73,0
47370,note_on,0,0,0,,,,,,,,,0,,73,0
47385,note_on,15,0,0,,,,,,,,,10,,40,0
47385,note_on,0,0,0,,,,,,,,,7,,64,0
47385,note_on,0,0,0,,,,,,,,,6,,69,0
47385,note_on,0,0,0,,,,,,,,,0,,52,0
47385,note_on,0,0,0,,,,,,,,,14,,52,0
47385,note_on,0,0,0,,,,,,,,,15,,52,0
47385,note_on,0,0,0,,,,,,,,,8,,52,0
47400,note_on,15,0,0,,,,,,,,,15,,69,0
47400,note_on,0,0,0,,,,,,,,,15,,64,0
47400,note_on,0,0,0,,,,,,,,,15,,61,0
47400,note_on,0,0,0,,,,,,,,,13,,69,0
47400,note_on,0,0,0,,,,,,,,,0,,73,100
47400,note_on,0,0,0,,,,,,,,,0,,40,100
47400,note_on,0,0,0,,,,,,,,,5,,73,100
47400,note_on,0,0,0,,,,,,,,,6,,68,100
47400,note_on,0,0,0,,,,,,,,,7,,62,100
47400,note_on,0,0,0,,,,,,,,,8,,40,100
47400,note_on,0,0,0,,,,,,,,,10,,28,100
47400,note_on,0,0,0,,,,,,,,,13,,68,100
47400,note_on,0,0,0,,,,,,,,,13,,73,100
47400,note_on,0,0,0,,,,,,,,,14,,40,100
47400,note_on,0,0,0,,,,,,,,,15,,56,100
47400,note_on,0,0,0,,,,,,,,,15,,61,100
47400,note_on,0,0,0,,,,,,,,,15,,68,100
47400,note_on,0,0,0,,,,,,,,,15,,40,100
47415,note_on,15,0,0,,,,,,,,,13,,73,0
47415,note_on,0,0,0,,,,,,,,,5,,73,0
47415,note_on,0,0,0,,,,,,,,,0,,73,0
47415,note_on,0,0,0,,,,,,,,,0,,71,100
47415,note_on,0,0,0,,,,,,,,,5,,71,100
47415,note_on,0,0,0,,,,,,,,,13,,71,100
47430,note_on,15,0,0,,,,,,,,,13,,71,0
47430,note_on,0,0,0,,,,,,,,,5,,71,0
47430,note_on,0,0,0,,,,,,,,,0,,71,0
47430,note_on,0,0,0,,,,,,,,,0,,73,100
47430,note_on,0,0,0,,,,,,,,,5,,73,100
47430,note_on,0,0,0,,,,,,,,,13,,73,100
47445,note_on,15,0,0,,,,,,,,,13,,73,0
47445,note_on,0,0,0,,,,,,,,,5,,73,0
47445,note_on,0,0,0,,,,,,,,,0,,73,0
47445,note_on,0,0,0,,,,,,,,,0,,71,100
47445,note_on,0,0,0,,,,,,,,,5,,71,100
47445,note_on,0,0,0,,,,,,,,,13,,71,100
47460,note_on,15,0,0,,,,,,,,,0,,71,0
47460,note_on,0,0,0,,,,,,,,,0,,73,100
47475,note_on,15,0,0,,,,,,,,,0,,73,0
47475,note_on,0,0,0,,,,,,,,,5,,71,0
47475,note_on,0,0,0,,,,,,,,,13,,71,0
47475,note_on,0,0,0,,,,,,,,,13,,68,0
47475,note_on,0,0,0,,,,,,,,,0,,71,100
47490,note_on,15,0,0,,,,,,,,,0,,71,0
47490,note_on,0,0,0,,,,,,,,,0,,69,100
47490,note_on,0,0,0,,,,,,,,,5,,69,100
47490,note_on,0,0,0,,,,,,,,,13,,69,100
47505,note_on,15,0,0,,,,,,,,,0,,69,0
47505,note_on,0,0,0,,,,,,,,,14,,40,0
47505,note_on,0,0,0,,,,,,,,,7,,62,0
47505,note_on,0,0,0,,,,,,,,,0,,40,0
47505,note_on,0,0,0,,,,,,,,,10,,28,0
47505,note_on,0,0,0,,,,,,,,,6,,68,0
47505,note_on,0,0,0,,,,,,,,,15,,40,0
47505,note_on,0,0,0,,,,,,,,,8,,40,0
47515,note_on,10,0,0,,,,,,,,,5,,69,0
47515,note_on,0,0,0,,,,,,,,,13,,69,0
47520,note_on,5,0,0,,,,,,,,,15,,56,0
47520,note_on,0,0,0,,,,,,,,,15,,68,0
47520,note_on,0,0,0,,,,,,,,,15,,61,0
47520,note_on,0,0,0,,,,,,,,,0,,69,100
47520,note_on,0,0,0,,,,,,,,,0,,45,100
47520,note_on,0,0,0,,,,,,,,,5,,69,100
47520,note_on,0,0,0,,,,,,,,,6,,69,100
47520,note_on,0,0,0,,,,,,,,,7,,61,100
47520,note_on,0,0,0,,,,,,,,,8,,45,100
47520,note_on,0,0,0,,,,,,,,,10,,33,100
47520,note_on,0,0,0,,,,,,,,,13,,69,100
47520,note_on,0,0,0,,,,,,,,,14,,45,100
47520,note_on,0,0,0,,,,,,,,,15,,61,100
47520,note_on,0,0,0,,,,,,,,,15,,64,100
47520,note_on,0,0,0,,,,,,,,,15,,69,100
47520,note_on,0,0,0,,,,,,,,,15,,45,100
47565,note_on,45,0,0,,,,,,,,,0,,69,0
47580,note_on,15,0,0,,,,,,,,,1,,69,100
47610,note_on,30,0,0,,,,,,,,,1,,69,0
47610,note_on,0,0,0,,,,,,,,,13,,69,0
47625,note_on,15,0,0,,,,,,,,,5,,69,0
47625,note_on,0,0,0,,,,,,,,,14,,45,0
47625,note_on,0,0,0,,,,,,,,,0,,45,0
47625,note_on,0,0,0,,,,,,,,,7,,61,0
47625,note_on,0,0,0,,,,,,,,,6,,69,0
47625,note_on,0,0,0,,,,,,,,,8,,45,0
47625,note_on,0,0,0,,,,,,,,,15,,45,0
47625,note_on,0,0,0,,,,,,,,,10,,33,0
47640,note_on,15,0,0,,,,,,,,,15,,61,0
47640,note_on,0,0,0,,,,,,,,,15,,64,0
47640,note_on,0,0,0,,,,,,,,,15,,69,0
47640,note_on,0,0,0,,,,,,,,,1,,61,100
47670,note_on,30,0,0,,,,,,,,,1,,61,0
47700,note_on,30,0,0,,,,,,,,,1,,64,100
47730,note_on,30,0,0,,,,,,,,,1,,64,0
47760,note_on,30,0,0,,,,,,,,,1,,57,100
47820,note_on,60,0,0,,,,,,,,,0,,69,100
47850,note_on,30,0,0,,,,,,,,,0,,69,0
47850,note_on,0,0,0,,,,,,,,,1,,57,0
47880,note_on,30,0,0,,,,,,,,,0,,71,100
47910,note_on,30,0,0,,,,,,,,,0,,71,0
47940,note_on,30,0,0,,,,,,,,,0,,57,100
47940,note_on,0,0,0,,,,,,,,,0,,73,100
47970,note_on,30,0,0,,,,,,,,,0,,73,0
47970,note_on,0,0,0,,,,,,,,,0,,57,0
48000,note_on,30,0,0,,,,,,,,,0,,59,100
48000,note_on,0,0,0,,,,,,,,,0,,74,100
48030,note_on,30,0,0,,,,,,,,,0,,74,0
48030,note_on,0,0,0,,,,,,,,,0,,76,100
48060,note_on,30,0,0,,,,,,,,,0,,76,0
48060,note_on,0,0,0,,,,,,,,,0,,74,100
48090,note_on,30,0,0,,,,,,,,,0,,74,0
48105,note_on,15,0,0,,,,,,,,,0,,59,0
48120,note_on,15,0,0,,,,,,,,,0,,56,100
48120,note_on,0,0,0,,,,,,,,,0,,64,100
48150,note_on,30,0,0,,,,,,,,,0,,64,0
48180,note_on,30,0,0,,,,,,,,,0,,74,100
48210,note_on,30,0,0,,,,,,,,,0,,74,0
48225,note_on,15,0,0,,,,,,,,,0,,56,0
48240,note_on,15,0,0,,,,,,,,,0,,57,100
48240,note_on,0,0,0,,,,,,,,,0,,73,100
48270,note_on,30,0,0,,,,,,,,,0,,73,0
48270,note_on,0,0,0,,,,,,,,,0,,74,100
48300,note_on,30,0,0,,,,,,,,,0,,74,0
48300,note_on,0,0,0,,,,,,,,,0,,73,100
48330,note_on,30,0,0,,,,,,,,,0,,73,0
48345,note_on,15,0,0,,,,,,,,,0,,57,0
48360,note_on,15,0,0,,,,,,,,,0,,49,100
48360,note_on,0,0,0,,,,,,,,,0,,64,100
48390,note_on,30,0,0,,,,,,,,,0,,64,0
48420,note_on,30,0,0,,,,,,,,,0,,73,100
48450,note_on,30,0,0,,,,,,,,,0,,73,0
48465,note_on,15,0,0,,,,,,,,,0,,49,0
48480,note_on,15,0,0,,,,,,,,,0,,50,100
48480,note_on,0,0,0,,,,,,,,,0,,73,100
48495,note_on,15,0,0,,,,,,,,,0,,73,0
48495,note_on,0,0,0,,,,,,,,,0,,71,100
48510,note_on,15,0,0,,,,,,,,,0,,71,0
48510,note_on,0,0,0,,,,,,,,,0,,73,100
48525,note_on,15,0,0,,,,,,,,,0,,73,0
48525,note_on,0,0,0,,,,,,,,,0,,71,100
48540,note_on,15,0,0,,,,,,,,,0,,71,0
48540,note_on,0,0,0,,,,,,,,,0,,69,100
48570,note_on,30,0,0,,,,,,,,,0,,69,0
48585,note_on,15,0,0,,,,,,,,,0,,50,0
48600,note_on,15,0,0,,,,,,,,,0,,52,100
48600,note_on,0,0,0,,,,,,,,,0,,64,100
48630,note_on,30,0,0,,,,,,,,,0,,64,0
48660,note_on,30,0,0,,,,,,,,,0,,68,100
48690,note_on,30,0,0,,,,,,,,,0,,68,0
48705,note_on,15,0,0,,,,,,,,,0,,52,0
48720,note_on,15,0,0,,,,,,,,,0,,49,100
48720,note_on,0,0,0,,,,,,,,,0,,69,100
48750,note_on,30,0,0,,,,,,,,,0,,69,0
48780,note_on,30,0,0,,,,,,,,,1,,69,100
48795,note_on,15,0,0,,,,,,,,,0,,49,0
48810,note_on,15,0,0,,,,,,,,,1,,69,0
48840,note_on,30,0,0,,,,,,,,,1,,71,100
48870,note_on,30,0,0,,,,,,,,,1,,71,0
48900,note_on,30,0,0,,,,,,,,,1,,57,100
48900,note_on,0,0,0,,,,,,,,,1,,73,100
48930,note_on,30,0,0,,,,,,,,,1,,73,0
48930,note_on,0,0,0,,,,,,,,,1,,57,0
48960,note_on,30,0,0,,,,,,,,,1,,59,100
48960,note_on,0,0,0,,,,,,,,,1,,74,100
48990,note_on,30,0,0,,,,,,,,,1,,74,0
48990,note_on,0,0,0,,,,,,,,,1,,76,100
49020,note_on,30,0,0,,,,,,,,,1,,76,0
49020,note_on,0,0,0,,,,,,,,,1,,74,100
49050,note_on,30,0,0,,,,,,,,,1,,74,0
49065,note_on,15,0,0,,,,,,,,,1,,59,0
49080,note_on,15,0,0,,,,,,,,,1,,56,100
49080,note_on,0,0,0,,,,,,,,,1,,64,100
49110,note_on,30,0,0,,,,,,,,,1,,64,0
49140,note_on,30,0,0,,,,,,,,,1,,74,100
49170,note_on,30,0,0,,,,,,,,,1,,74,0
49185,note_on,15,0,0,,,,,,,,,1,,56,0
49200,note_on,15,0,0,,,,,,,,,1,,57,100
49200,note_on,0,0,0,,,,,,,,,1,,73,100
49230,note_on,30,0,0,,,,,,,,,1,,73,0
49230,note_on,0,0,0,,,,,,,,,1,,74,100
49260,note_on,30,0,0,,,,,,,,,1,,74,0
49260,note_on,0,0,0,,,,,,,,,1,,73,100
49290,note_on,30,0,0,,,,,,,,,1,,73,0
49305,note_on,15,0,0,,,,,,,,,1,,57,0
49320,note_on,15,0,0,,,,,,,,,1,,49,100
49320,note_on,0,0,0,,,,,,,,,1,,64,100
49350,note_on,30,0,0,,,,,,,,,1,,64,0
49380,note_on,30,0,0,,,,,,,,,1,,73,100
49410,note_on,30,0,0,,,,,,,,,1,,73,0
49425,note_on,15,0,0,,,,,,,,,1,,49,0
49440,note_on,15,0,0,,,,,,,,,1,,50,100
49440,note_on,0,0,0,,,,,,,,,1,,73,100
49455,note_on,15,0,0,,,,,,,,,1,,73,0
49455,note_on,0,0,0,,,,,,,,,1,,71,100
49470,note_on,15,0,0,,,,,,,,,1,,71,0
49470,note_on,0,0,0,,,,,,,,,1,,73,100
49485,note_on,15,0,0,,,,,,,,,1,,73,0
49485,note_on,0,0,0,,,,,,,,,1,,71,100
49500,note_on,15,0,0,,,,,,,,,1,,71,0
49500,note_on,0,0,0,,,,,,,,,1,,69,100
49530,note_on,30,0,0,,,,,,,,,1,,69,0
49545,note_on,15,0,0,,,,,,,,,1,,50,0
49560,note_on,15,0,0,,,,,,,,,1,,52,100
49560,note_on,0,0,0,,,,,,,,,1,,64,100
49590,note_on,30,0,0,,,,,,,,,1,,64,0
49620,note_on,30,0,0,,,,,,,,,1,,69,100
49635,note_on,15,0,0,,,,,,,,,1,,69,0
49635,note_on,0,0,0,,,,,,,,,1,,68,100
49650,note_on,15,0,0,,,,,,,,,1,,68,0
49650,note_on,0,0,0,,,,,,,,,1,,66,100
49665,note_on,15,0,0,,,,,,,,,1,,66,0
49665,note_on,0,0,0,,,,,,,,,1,,52,0
49665,note_on,0,0,0,,,,,,,,,1,,68,100
49680,note_on,15,0,0,,,,,,,,,1,,68,0
49680,note_on,0,0,0,,,,,,,,,1,,49,100
49680,note_on,0,0,0,,,,,,,,,1,,69,100
49710,note_on,30,0,0,,,,,,,,,1,,69,0
49710,note_on,0,0,0,,,,,,,,,1,,49,0
49740,note_on,30,0,0,,,,,,,,,0,,57,100
49740,note_on,0,0,0,,,,,,,,,0,,73,100
49770,note_on,30,0,0,,,,,,,,,0,,73,0
49770,note_on,0,0,0,,,,,,,,,0,,57,0
49800,note_on,30,0,0,,,,,,,,,0,,59,100
49800,note_on,0,0,0,,,,,,,,,0,,74,100
49830,note_on,30,0,0,,,,,,,,,0,,74,0
49830,note_on,0,0,0,,,,,,,,,0,,59,0
49860,note_on,30,0,0,,,,,,,,,0,,61,100
49860,note_on,0,0,0,,,,,,,,,0,,76,100
49890,note_on,30,0,0,,,,,,,,,0,,76,0
49890,note_on,0,0,0,,,,,,,,,0,,61,0
49920,note_on,30,0,0,,,,,,,,,0,,62,100
49920,note_on,0,0,0,,,,,,,,,0,,78,100
49950,note_on,30,0,0,,,,,,,,,0,,78,0
49950,note_on,0,0,0,,,,,,,,,0,,80,100
49980,note_on,30,0,0,,,,,,,,,0,,80,0
49980,note_on,0,0,0,,,,,,,,,0,,78,100
50010,note_on,30,0,0,,,,,,,,,0,,78,0
50010,note_on,0,0,0,,,,,,,,,0,,62,0
50040,note_on,30,0,0,,,,,,,,,0,,50,100
50040,note_on,0,0,0,,,,,,,,,0,,69,100
50070,note_on,30,0,0,,,,,,,,,0,,69,0
50100,note_on,30,0,0,,,,,,,,,0,,78,100
50130,note_on,30,0,0,,,,,,,,,0,,78,0
50130,note_on,0,0,0,,,,,,,,,0,,50,0
50160,note_on,30,0,0,,,,,,,,,0,,49,100
50160,note_on,0,0,0,,,,,,,,,0,,76,100
50190,note_on,30,0,0,,,,,,,,,0,,76,0
50190,note_on,0,0,0,,,,,,,,,0,,78,100
50220,note_on,30,0,0,,,,,,,,,0,,78,0
50220,note_on,0,0,0,,,,,,,,,0,,76,100
50250,note_on,30,0,0,,,,,,,,,0,,76,0
50250,note_on,0,0,0,,,,,,,,,0,,49,0
50280,note_on,30,0,0,,,,,,,,,0,,61,100
50280,note_on,0,0,0,,,,,,,,,0,,81,100
50310,note_on,30,0,0,,,,,,,,,0,,81,0
50340,note_on,30,0,0,,,,,,,,,0,,76,100
50370,note_on,30,0,0,,,,,,,,,0,,76,0
50370,note_on,0,0,0,,,,,,,,,0,,61,0
50400,note_on,30,0,0,,,,,,,,,0,,59,100
50400,note_on,0,0,0,,,,,,,,,0,,74,100
50430,note_on,30,0,0,,,,,,,,,0,,74,0
50430,note_on,0,0,0,,,,,,,,,0,,76,100
50460,note_on,30,0,0,,,,,,,,,0,,76,0
50460,note_on,0,0,0,,,,,,,,,0,,74,100
50490,note_on,30,0,0,,,,,,,,,0,,74,0
50490,note_on,0,0,0,,,,,,,,,0,,59,0
50520,note_on,30,0,0,,,,,,,,,0,,56,100
50520,note_on,0,0,0,,,,,,,,,0,,83,100
50550,note_on,30,0,0,,,,,,,,,0,,83,0
50580,note_on,30,0,0,,,,,,,,,0,,74,100
50610,note_on,30,0,0,,,,,,,,,0,,74,0
50610,note_on,0,0,0,,,,,,,,,0,,56,0
50640,note_on,30,0,0,,,,,,,,,0,,57,100
50640,note_on,0,0,0,,,,,,,,,0,,73,100
50670,note_on,30,0,0,,,,,,,,,0,,73,0
50700,note_on,30,0,0,,,,,,,,,0,,57,0
50700,note_on,0,0,0,,,,,,,,,1,,69,100
50730,note_on,30,0,0,,,,,,,,,1,,69,0
50760,note_on,30,0,0,,,,,,,,,1,,73,100
50790,note_on,30,0,0,,,,,,,,,1,,73,0
50820,note_on,30,0,0,,,,,,,,,1,,61,100
50820,note_on,0,0,0,,,,,,,,,1,,76,100
50850,note_on,30,0,0,,,,,,,,,1,,76,0
50850,note_on,0,0,0,,,,,,,,,1,,61,0
50880,note_on,30,0,0,,,,,,,,,1,,62,100
50880,note_on,0,0,0,,,,,,,,,1,,78,100
50910,note_on,30,0,0,,,,,,,,,1,,78,0
50910,note_on,0,0,0,,,,,,,,,1,,80,100
50940,note_on,30,0,0,,,,,,,,,1,,80,0
50940,note_on,0,0,0,,,,,,,,,1,,78,100
50970,note_on,30,0,0,,,,,,,,,1,,78,0
50970,note_on,0,0,0,,,,,,,,,1,,62,0
51000,note_on,30,0,0,,,,,,,,,1,,50,100
51000,note_on,0,0,0,,,,,,,,,1,,69,100
51030,note_on,30,0,0,,,,,,,,,1,,69,0
51060,note_on,30,0,0,,,,,,,,,1,,78,100
51090,note_on,30,0,0,,,,,,,,,1,,78,0
51090,note_on,0,0,0,,,,,,,,,1,,50,0
51120,note_on,30,0,0,,,,,,,,,1,,49,100
51120,note_on,0,0,0,,,,,,,,,1,,76,100
51150,note_on,30,0,0,,,,,,,,,1,,76,0
51150,note_on,0,0,0,,,,,,,,,1,,78,100
51180,note_on,30,0,0,,,,,,,,,1,,78,0
51180,note_on,0,0,0,,,,,,,,,1,,76,100
51210,note_on,30,0,0,,,,,,,,,1,,76,0
51210,note_on,0,0,0,,,,,,,,,1,,49,0
51240,note_on,30,0,0,,,,,,,,,1,,61,100
51240,note_on,0,0,0,,,,,,,,,1,,81,100
51270,note_on,30,0,0,,,,,,,,,1,,81,0
51300,note_on,30,0,0,,,,,,,,,1,,76,100
51330,note_on,30,0,0,,,,,,,,,1,,76,0
51330,note_on,0,0,0,,,,,,,,,1,,61,0
51360,note_on,30,0,0,,,,,,,,,1,,59,100
51360,note_on,0,0,0,,,,,,,,,1,,74,100
51375,note_on,15,0,0,,,,,,,,,1,,74,0
51375,note_on,0,0,0,,,,,,,,,1,,73,100
51390,note_on,15,0,0,,,,,,,,,1,,73,0
51390,note_on,0,0,0,,,,,,,,,1,,71,100
51405,note_on,15,0,0,,,,,,,,,1,,71,0
51405,note_on,0,0,0,,,,,,,,,1,,73,100
51420,note_on,15,0,0,,,,,,,,,1,,73,0
51420,note_on,0,0,0,,,,,,,,,1,,74,100
51435,note_on,15,0,0,,,,,,,,,1,,74,0
51435,note_on,0,0,0,,,,,,,,,1,,76,100
51450,note_on,15,0,0,,,,,,,,,1,,76,0
51450,note_on,0,0,0,,,,,,,,,1,,59,0
51450,note_on,0,0,0,,,,,,,,,1,,78,100
51465,note_on,15,0,0,,,,,,,,,1,,78,0
51465,note_on,0,0,0,,,,,,,,,1,,80,100
51480,note_on,15,0,0,,,,,,,,,1,,80,0
51480,note_on,0,0,0,,,,,,,,,1,,56,100
51480,note_on,0,0,0,,,,,,,,,1,,81,100
51490,note_on,10,0,0,,,,,,,,,1,,81,0
51495,note_on,5,0,0,,,,,,,,,1,,83,100
51510,note_on,15,0,0,,,,,,,,,1,,83,0
51540,note_on,30,0,0,,,,,,,,,1,,76,100
51555,note_on,15,0,0,,,,,,,,,1,,76,0
51555,note_on,0,0,0,,,,,,,,,1,,74,100
51570,note_on,15,0,0,,,,,,,,,1,,74,0
51570,note_on,0,0,0,,,,,,,,,1,,56,0
51570,note_on,0,0,0,,,,,,,,,1,,73,100
51585,note_on,15,0,0,,,,,,,,,1,,73,0
51585,note_on,0,0,0,,,,,,,,,1,,74,100
51600,note_on,15,0,0,,,,,,,,,1,,74,0
51600,note_on,0,0,0,,,,,,,,,1,,57,100
51600,note_on,0,0,0,,,,,,,,,1,,73,100
51630,note_on,30,0,0,,,,,,,,,1,,73,0
51660,note_on,30,0,0,,,,,,,,,1,,57,0
51660,note_on,0,0,0,,,,,,,,,0,,69,100
51690,note_on,30,0,0,,,,,,,,,0,,69,0
51720,note_on,30,0,0,,,,,,,,,0,,73,100
51750,note_on,30,0,0,,,,,,,,,0,,73,0
51780,note_on,30,0,0,,,,,,,,,0,,76,100
51810,note_on,30,0,0,,,,,,,,,0,,76,0
51840,note_on,30,0,0,,,,,,,,,0,,78,100
51870,note_on,30,0,0,,,,,,,,,0,,78,0
51900,note_on,30,0,0,,,,,,,,,0,,54,100
51900,note_on,0,0,0,,,,,,,,,0,,81,100
51930,note_on,30,0,0,,,,,,,,,0,,81,0
51930,note_on,0,0,0,,,,,,,,,0,,54,0
51930,note_on,0,0,0,,,,,,,,,0,,80,100
51960,note_on,30,0,0,,,,,,,,,0,,80,0
51960,note_on,0,0,0,,,,,,,,,0,,57,100
51960,note_on,0,0,0,,,,,,,,,0,,78,100
51990,note_on,30,0,0,,,,,,,,,0,,78,0
51990,note_on,0,0,0,,,,,,,,,0,,57,0
51990,note_on,0,0,0,,,,,,,,,0,,76,100
52020,note_on,30,0,0,,,,,,,,,0,,76,0
52020,note_on,0,0,0,,,,,,,,,0,,54,100
52020,note_on,0,0,0,,,,,,,,,0,,75,100
52050,note_on,30,0,0,,,,,,,,,0,,75,0
52050,note_on,0,0,0,,,,,,,,,0,,54,0
52050,note_on,0,0,0,,,,,,,,,0,,73,100
52080,note_on,30,0,0,,,,,,,,,0,,73,0
52080,note_on,0,0,0,,,,,,,,,0,,59,100
52080,note_on,0,0,0,,,,,,,,,0,,75,100
52110,note_on,30,0,0,,,,,,,,,0,,75,0
52140,note_on,30,0,0,,,,,,,,,0,,71,100
52170,note_on,30,0,0,,,,,,,,,0,,71,0
52185,note_on,15,0,0,,,,,,,,,0,,59,0
52200,note_on,15,0,0,,,,,,,,,0,,47,100
52200,note_on,0,0,0,,,,,,,,,0,,75,100
52230,note_on,30,0,0,,,,,,,,,0,,75,0
52260,note_on,30,0,0,,,,,,,,,0,,78,100
52290,note_on,30,0,0,,,,,,,,,0,,78,0
52305,note_on,15,0,0,,,,,,,,,0,,47,0
52320,note_on,15,0,0,,,,,,,,,0,,80,100
52350,note_on,30,0,0,,,,,,,,,0,,80,0
52380,note_on,30,0,0,,,,,,,,,0,,56,100
52380,note_on,0,0,0,,,,,,,,,0,,83,100
52410,note_on,30,0,0,,,,,,,,,0,,83,0
52410,note_on,0,0,0,,,,,,,,,0,,56,0
52410,note_on,0,0,0,,,,,,,,,0,,81,100
52440,note_on,30,0,0,,,,,,,,,0,,81,0
52440,note_on,0,0,0,,,,,,,,,0,,59,100
52440,note_on,0,0,0,,,,,,,,,0,,80,100
52470,note_on,30,0,0,,,,,,,,,0,,80,0
52470,note_on,0,0,0,,,,,,,,,0,,59,0
52470,note_on,0,0,0,,,,,,,,,0,,78,100
52500,note_on,30,0,0,,,,,,,,,0,,78,0
52500,note_on,0,0,0,,,,,,,,,0,,76,100
52500,note_on,0,0,0,,,,,,,,,0,,56,100
52530,note_on,30,0,0,,,,,,,,,0,,56,0
52530,note_on,0,0,0,,,,,,,,,0,,76,0
52530,note_on,0,0,0,,,,,,,,,0,,75,100
52560,note_on,30,0,0,,,,,,,,,0,,75,0
52560,note_on,0,0,0,,,,,,,,,0,,61,100
52560,note_on,0,0,0,,,,,,,,,0,,76,100
52590,note_on,30,0,0,,,,,,,,,0,,76,0
52620,note_on,30,0,0,,,,,,,,,0,,73,100
52650,note_on,30,0,0,,,,,,,,,0,,73,0
52665,note_on,15,0,0,,,,,,,,,0,,61,0
52680,note_on,15,0,0,,,,,,,,,0,,49,100
52680,note_on,0,0,0,,,,,,,,,0,,76,100
52710,note_on,30,0,0,,,,,,,,,0,,76,0
52740,note_on,30,0,0,,,,,,,,,0,,80,100
52770,note_on,30,0,0,,,,,,,,,0,,80,0
52785,note_on,15,0,0,,,,,,,,,0,,49,0
52800,note_on,15,0,0,,,,,,,,,0,,81,100
52830,note_on,30,0,0,,,,,,,,,0,,81,0
52860,note_on,30,0,0,,,,,,,,,0,,57,100
52860,note_on,0,0,0,,,,,,,,,0,,85,100
52890,note_on,30,0,0,,,,,,,,,0,,85,0
52890,note_on,0,0,0,,,,,,,,,0,,57,0
52890,note_on,0,0,0,,,,,,,,,0,,83,100
52920,note_on,30,0,0,,,,,,,,,0,,83,0
52920,note_on,0,0,0,,,,,,,,,0,,61,100
52920,note_on,0,0,0,,,,,,,,,0,,81,100
52950,note_on,30,0,0,,,,,,,,,0,,81,0
52950,note_on,0,0,0,,,,,,,,,0,,61,0
52950,note_on,0,0,0,,,,,,,,,0,,80,100
52980,note_on,30,0,0,,,,,,,,,0,,80,0
52980,note_on,0,0,0,,,,,,,,,0,,57,100
52980,note_on,0,0,0,,,,,,,,,0,,78,100
53010,note_on,30,0,0,,,,,,,,,0,,78,0
53010,note_on,0,0,0,,,,,,,,,0,,57,0
53010,note_on,0,0,0,,,,,,,,,0,,76,100
53040,note_on,30,0,0,,,,,,,,,0,,76,0
53040,note_on,0,0,0,,,,,,,,,0,,59,100
53040,note_on,0,0,0,,,,,,,,,0,,75,100
53070,note_on,30,0,0,,,,,,,,,0,,75,0
53070,note_on,0,0,0,,,,,,,,,0,,59,0
53100,note_on,30,0,0,,,,,,,,,0,,56,100
53100,note_on,0,0,0,,,,,,,,,0,,83,100
53130,note_on,30,0,0,,,,,,,,,0,,83,0
53130,note_on,0,0,0,,,,,,,,,0,,56,0
53130,note_on,0,0,0,,,,,,,,,0,,81,100
53160,note_on,30,0,0,,,,,,,,,0,,81,0
53160,note_on,0,0,0,,,,,,,,,0,,59,100
53160,note_on,0,0,0,,,,,,,,,0,,80,100
53190,note_on,30,0,0,,,,,,,,,0,,80,0
53190,note_on,0,0,0,,,,,,,,,0,,59,0
53190,note_on,0,0,0,,,,,,,,,0,,78,100
53220,note_on,30,0,0,,,,,,,,,0,,78,0
53220,note_on,0,0,0,,,,,,,,,0,,56,100
53220,note_on,0,0,0,,,,,,,,,0,,76,100
53250,note_on,30,0,0,,,,,,,,,0,,76,0
53250,note_on,0,0,0,,,,,,,,,0,,56,0
53250,note_on,0,0,0,,,,,,,,,0,,75,100
53280,note_on,30,0,0,,,,,,,,,0,,75,0
53280,note_on,0,0,0,,,,,,,,,0,,57,100
53280,note_on,0,0,0,,,,,,,,,0,,73,100
53310,note_on,30,0,0,,,,,,,,,0,,73,0
53310,note_on,0,0,0,,,,,,,,,0,,57,0
53340,note_on,30,0,0,,,,,,,,,0,,54,100
53340,note_on,0,0,0,,,,,,,,,0,,81,100
53370,note_on,30,0,0,,,,,,,,,0,,81,0
53370,note_on,0,0,0,,,,,,,,,0,,54,0
53370,note_on,0,0,0,,,,,,,,,0,,80,100
53400,note_on,30,0,0,,,,,,,,,0,,80,0
53400,note_on,0,0,0,,,,,,,,,0,,57,100
53400,note_on,0,0,0,,,,,,,,,0,,78,100
53430,note_on,30,0,0,,,,,,,,,0,,78,0
53430,note_on,0,0,0,,,,,,,,,0,,57,0
53430,note_on,0,0,0,,,,,,,,,0,,76,100
53460,note_on,30,0,0,,,,,,,,,0,,76,0
53460,note_on,0,0,0,,,,,,,,,0,,54,100
53460,note_on,0,0,0,,,,,,,,,0,,75,100
53490,note_on,30,0,0,,,,,,,,,0,,75,0
53490,note_on,0,0,0,,,,,,,,,0,,54,0
53490,note_on,0,0,0,,,,,,,,,0,,73,100
53520,note_on,30,0,0,,,,,,,,,0,,73,0
53520,note_on,0,0,0,,,,,,,,,0,,56,100
53520,note_on,0,0,0,,,,,,,,,0,,71,100
53550,note_on,30,0,0,,,,,,,,,0,,71,0
53580,note_on,30,0,0,,,,,,,,,0,,76,100
53610,note_on,30,0,0,,,,,,,,,0,,76,0
53610,note_on,0,0,0,,,,,,,,,0,,56,0
53640,note_on,30,0,0,,,,,,,,,0,,78,100
53655,note_on,15,0,0,,,,,,,,,0,,78,0
53655,note_on,0,0,0,,,,,,,,,0,,76,100
53670,note_on,15,0,0,,,,,,,,,0,,76,0
53670,note_on,0,0,0,,,,,,,,,0,,78,100
53685,note_on,15,0,0,,,,,,,,,0,,78,0
53685,note_on,0,0,0,,,,,,,,,0,,76,100
53700,note_on,15,0,0,,,,,,,,,0,,76,0
53700,note_on,0,0,0,,,,,,,,,0,,78,100
53700,note_on,0,0,0,,,,,,,,,0,,52,100
53715,note_on,15,0,0,,,,,,,,,0,,78,0
53715,note_on,0,0,0,,,,,,,,,0,,76,100
53730,note_on,15,0,0,,,,,,,,,0,,76,0
53730,note_on,0,0,0,,,,,,,,,0,,52,0
53730,note_on,0,0,0,,,,,,,,,0,,75,100
53745,note_on,15,0,0,,,,,,,,,0,,75,0
53745,note_on,0,0,0,,,,,,,,,0,,76,100
53760,note_on,15,0,0,,,,,,,,,0,,76,0
53760,note_on,0,0,0,,,,,,,,,0,,57,100
53760,note_on,0,0,0,,,,,,,,,0,,73,100
53790,note_on,30,0,0,,,,,,,,,0,,73,0
53820,note_on,30,0,0,,,,,,,,,0,,76,100
53850,note_on,30,0,0,,,,,,,,,0,,76,0
53850,note_on,0,0,0,,,,,,,,,0,,57,0
53880,note_on,30,0,0,,,,,,,,,0,,78,100
53895,note_on,15,0,0,,,,,,,,,0,,78,0
53895,note_on,0,0,0,,,,,,,,,0,,76,100
53910,note_on,15,0,0,,,,,,,,,0,,76,0
53910,note_on,0,0,0,,,,,,,,,0,,78,100
53925,note_on,15,0,0,,,,,,,,,0,,78,0
53925,note_on,0,0,0,,,,,,,,,0,,76,100
53940,note_on,15,0,0,,,,,,,,,0,,76,0
53940,note_on,0,0,0,,,,,,,,,0,,78,100
53940,note_on,0,0,0,,,,,,,,,0,,54,100
53955,note_on,15,0,0,,,,,,,,,0,,78,0
53955,note_on,0,0,0,,,,,,,,,0,,76,100
53970,note_on,15,0,0,,,,,,,,,0,,76,0
53970,note_on,0,0,0,,,,,,,,,0,,54,0
53970,note_on,0,0,0,,,,,,,,,0,,75,100
53985,note_on,15,0,0,,,,,,,,,0,,75,0
53985,note_on,0,0,0,,,,,,,,,0,,76,100
54000,note_on,15,0,0,,,,,,,,,0,,76,0
54000,note_on,0,0,0,,,,,,,,,0,,56,100
54000,note_on,0,0,0,,,,,,,,,0,,71,100
54030,note_on,30,0,0,,,,,,,,,0,,71,0
54060,note_on,30,0,0,,,,,,,,,0,,76,100
54090,note_on,30,0,0,,,,,,,,,0,,76,0
54090,note_on,0,0,0,,,,,,,,,0,,56,0
54120,note_on,30,0,0,,,,,,,,,0,,78,100
54135,note_on,15,0,0,,,,,,,,,0,,78,0
54135,note_on,0,0,0,,,,,,,,,0,,76,100
54150,note_on,15,0,0,,,,,,,,,0,,76,0
54150,note_on,0,0,0,,,,,,,,,0,,78,100
54165,note_on,15,0,0,,,,,,,,,0,,78,0
54165,note_on,0,0,0,,,,,,,,,0,,76,100
54180,note_on,15,0,0,,,,,,,,,0,,76,0
54180,note_on,0,0,0,,,,,,,,,0,,52,100
54180,note_on,0,0,0,,,,,,,,,0,,78,100
54195,note_on,15,0,0,,,,,,,,,0,,78,0
54195,note_on,0,0,0,,,,,,,,,0,,76,100
54210,note_on,15,0,0,,,,,,,,,0,,76,0
54210,note_on,0,0,0,,,,,,,,,0,,52,0
54210,note_on,0,0,0,,,,,,,,,0,,75,100
54225,note_on,15,0,0,,,,,,,,,0,,75,0
54225,note_on,0,0,0,,,,,,,,,0,,76,100
54240,note_on,15,0,0,,,,,,,,,0,,76,0
54240,note_on,0,0,0,,,,,,,,,0,,57,100
54240,note_on,0,0,0,,,,,,,,,0,,73,100
54270,note_on,30,0,0,,,,,,,,,0,,73,0
54300,note_on,30,0,0,,,,,,,,,0,,76,100
54330,note_on,30,0,0,,,,,,,,,0,,76,0
54330,note_on,0,0,0,,,,,,,,,0,,57,0
54360,note_on,30,0,0,,,,,,,,,0,,78,100
54375,note_on,15,0,0,,,,,,,,,0,,78,0
54375,note_on,0,0,0,,,,,,,,,0,,76,100
54390,note_on,15,0,0,,,,,,,,,0,,76,0
54390,note_on,0,0,0,,,,,,,,,0,,78,100
54405,note_on,15,0,0,,,,,,,,,0,,78,0
54405,note_on,0,0,0,,,,,,,,,0,,76,100
54420,note_on,15,0,0,,,,,,,,,0,,76,0
54420,note_on,0,0,0,,,,,,,,,0,,54,100
54420,note_on,0,0,0,,,,,,,,,0,,78,100
54435,note_on,15,0,0,,,,,,,,,0,,78,0
54435,note_on,0,0,0,,,,,,,,,0,,76,100
54450,note_on,15,0,0,,,,,,,,,0,,76,0
54450,note_on,0,0,0,,,,,,,,,0,,54,0
54450,note_on,0,0,0,,,,,,,,,0,,75,100
54465,note_on,15,0,0,,,,,,,,,0,,75,0
54465,note_on,0,0,0,,,,,,,,,0,,76,100
54480,note_on,15,0,0,,,,,,,,,0,,76,0
54480,note_on,0,0,0,,,,,,,,,0,,71,100
54480,note_on,0,0,0,,,,,,,,,0,,56,100
54510,note_on,30,0,0,,,,,,,,,0,,71,0
54540,note_on,30,0,0,,,,,,,,,0,,76,100
54570,note_on,30,0,0,,,,,,,,,0,,76,0
54570,note_on,0,0,0,,,,,,,,,0,,56,0
54600,note_on,30,0,0,,,,,,,,,0,,78,100
54615,note_on,15,0,0,,,,,,,,,0,,78,0
54615,note_on,0,0,0,,,,,,,,,0,,76,100
54630,note_on,15,0,0,,,,,,,,,0,,76,0
54630,note_on,0,0,0,,,,,,,,,0,,78,100
54645,note_on,15,0,0,,,,,,,,,0,,78,0
54645,note_on,0,0,0,,,,,,,,,0,,76,100
54660,note_on,15,0,0,,,,,,,,,0,,76,0
54660,note_on,0,0,0,,,,,,,,,0,,78,100
54660,note_on,0,0,0,,,,,,,,,0,,52,100
54675,note_on,15,0,0,,,,,,,,,0,,78,0
54675,note_on,0,0,0,,,,,,,,,0,,76,100
54690,note_on,15,0,0,,,,,,,,,0,,76,0
54690,note_on,0,0,0,,,,,,,,,0,,52,0
54690,note_on,0,0,0,,,,,,,,,0,,75,100
54705,note_on,15,0,0,,,,,,,,,0,,75,0
54705,note_on,0,0,0,,,,,,,,,0,,76,100
54720,note_on,15,0,0,,,,,,,,,0,,76,0
54720,note_on,0,0,0,,,,,,,,,0,,78,100
54720,note_on,0,0,0,,,,,,,,,0,,51,100
54750,note_on,30,0,0,,,,,,,,,0,,78,0
54780,note_on,30,0,0,,,,,,,,,0,,71,100
54810,note_on,30,0,0,,,,,,,,,0,,71,0
54810,note_on,0,0,0,,,,,,,,,0,,51,0
54840,note_on,30,0,0,,,,,,,,,0,,73,100
54855,note_on,15,0,0,,,,,,,,,0,,73,0
54855,note_on,0,0,0,,,,,,,,,0,,71,100
54870,note_on,15,0,0,,,,,,,,,0,,71,0
54870,note_on,0,0,0,,,,,,,,,0,,73,100
54885,note_on,15,0,0,,,,,,,,,0,,73,0
54885,note_on,0,0,0,,,,,,,,,0,,71,100
54900,note_on,15,0,0,,,,,,,,,0,,71,0
54900,note_on,0,0,0,,,,,,,,,0,,73,100
54915,note_on,15,0,0,,,,,,,,,0,,73,0
54915,note_on,0,0,0,,,,,,,,,0,,71,100
54930,note_on,15,0,0,,,,,,,,,0,,71,0
54930,note_on,0,0,0,,,,,,,,,0,,69,100
54945,note_on,15,0,0,,,,,,,,,0,,69,0
54945,note_on,0,0,0,,,,,,,,,0,,71,100
54960,note_on,15,0,0,,,,,,,,,0,,71,0
54960,note_on,0,0,0,,,,,,,,,0,,80,100
54960,note_on,0,0,0,,,,,,,,,0,,52,100
54990,note_on,30,0,0,,,,,,,,,0,,80,0
55020,note_on,30,0,0,,,,,,,,,0,,71,100
55050,note_on,30,0,0,,,,,,,,,0,,71,0
55050,note_on,0,0,0,,,,,,,,,0,,52,0
55080,note_on,30,0,0,,,,,,,,,0,,73,100
55095,note_on,15,0,0,,,,,,,,,0,,73,0
55095,note_on,0,0,0,,,,,,,,,0,,71,100
55110,note_on,15,0,0,,,,,,,,,0,,71,0
55110,note_on,0,0,0,,,,,,,,,0,,73,100
55125,note_on,15,0,0,,,,,,,,,0,,73,0
55125,note_on,0,0,0,,,,,,,,,0,,71,100
55140,note_on,15,0,0,,,,,,,,,0,,71,0
55140,note_on,0,0,0,,,,,,,,,0,,73,100
55155,note_on,15,0,0,,,,,,,,,0,,73,0
55155,note_on,0,0,0,,,,,,,,,0,,71,100
55170,note_on,15,0,0,,,,,,,,,0,,71,0
55170,note_on,0,0,0,,,,,,,,,0,,69,100
55185,note_on,15,0,0,,,,,,,,,0,,69,0
55185,note_on,0,0,0,,,,,,,,,0,,71,100
55200,note_on,15,0,0,,,,,,,,,0,,71,0
55200,note_on,0,0,0,,,,,,,,,0,,75,100
55200,note_on,0,0,0,,,,,,,,,0,,54,100
55230,note_on,30,0,0,,,,,,,,,0,,75,0
55260,note_on,30,0,0,,,,,,,,,0,,71,100
55290,note_on,30,0,0,,,,,,,,,0,,71,0
55290,note_on,0,0,0,,,,,,,,,0,,54,0
55320,note_on,30,0,0,,,,,,,,,0,,73,100
55335,note_on,15,0,0,,,,,,,,,0,,73,0
55335,note_on,0,0,0,,,,,,,,,0,,71,100
55350,note_on,15,0,0,,,,,,,,,0,,71,0
55350,note_on,0,0,0,,,,,,,,,0,,73,100
55365,note_on,15,0,0,,,,,,,,,0,,73,0
55365,note_on,0,0,0,,,,,,,,,0,,71,100
55380,note_on,15,0,0,,,,,,,,,0,,71,0
55380,note_on,0,0,0,,,,,,,,,0,,73,100
55395,note_on,15,0,0,,,,,,,,,0,,73,0
55395,note_on,0,0,0,,,,,,,,,0,,71,100
55410,note_on,15,0,0,,,,,,,,,0,,71,0
55410,note_on,0,0,0,,,,,,,,,0,,69,100
55425,note_on,15,0,0,,,,,,,,,0,,69,0
55425,note_on,0,0,0,,,,,,,,,0,,71,100
55440,note_on,15,0,0,,,,,,,,,0,,71,0
55440,note_on,0,0,0,,,,,,,,,0,,56,100
55440,note_on,0,0,0,,,,,,,,,0,,76,100
55470,note_on,30,0,0,,,,,,,,,0,,76,0
55500,note_on,30,0,0,,,,,,,,,0,,71,100
55530,note_on,30,0,0,,,,,,,,,0,,71,0
55530,note_on,0,0,0,,,,,,,,,0,,56,0
55560,note_on,30,0,0,,,,,,,,,0,,73,100
55575,note_on,15,0,0,,,,,,,,,0,,73,0
55575,note_on,0,0,0,,,,,,,,,0,,71,100
55590,note_on,15,0,0,,,,,,,,,0,,71,0
55590,note_on,0,0,0,,,,,,,,,0,,73,100
55605,note_on,15,0,0,,,,,,,,,0,,73,0
55605,note_on,0,0,0,,,,,,,,,0,,71,100
55620,note_on,15,0,0,,,,,,,,,0,,71,0
55620,note_on,0,0,0,,,,,,,,,0,,73,100
55635,note_on,15,0,0,,,,,,,,,0,,73,0
55635,note_on,0,0,0,,,,,,,,,0,,71,100
55650,note_on,15,0,0,,,,,,,,,0,,71,0
55650,note_on,0,0,0,,,,,,,,,0,,69,100
55665,note_on,15,0,0,,,,,,,,,0,,69,0
55665,note_on,0,0,0,,,,,,,,,0,,71,100
55680,note_on,15,0,0,,,,,,,,,0,,71,0
55680,note_on,0,0,0,,,,,,,,,0,,51,100
55680,note_on,0,0,0,,,,,,,,,0,,78,100
55710,note_on,30,0,0,,,,,,,,,0,,78,0
55740,note_on,30,0,0,,,,,,,,,0,,69,100
55770,note_on,30,0,0,,,,,,,,,0,,69,0
55770,note_on,0,0,0,,,,,,,,,0,,51,0
55800,note_on,30,0,0,,,,,,,,,0,,71,100
55815,note_on,15,0,0,,,,,,,,,0,,71,0
55815,note_on,0,0,0,,,,,,,,,0,,69,100
55830,note_on,15,0,0,,,,,,,,,0,,69,0
55830,note_on,0,0,0,,,,,,,,,0,,71,100
55845,note_on,15,0,0,,,,,,,,,0,,71,0
55845,note_on,0,0,0,,,,,,,,,0,,69,100
55860,note_on,15,0,0,,,,,,,,,0,,69,0
55860,note_on,0,0,0,,,,,,,,,0,,71,100
55875,note_on,15,0,0,,,,,,,,,0,,71,0
55875,note_on,0,0,0,,,,,,,,,0,,69,100
55890,note_on,15,0,0,,,,,,,,,0,,69,0
55890,note_on,0,0,0,,,,,,,,,0,,68,100
55905,note_on,15,0,0,,,,,,,,,0,,68,0
55905,note_on,0,0,0,,,,,,,,,0,,69,100
55920,note_on,15,0,0,,,,,,,,,0,,69,0
55920,note_on,0,0,0,,,,,,,,,0,,54,100
55920,note_on,0,0,0,,,,,,,,,0,,75,100
55950,note_on,30,0,0,,,,,,,,,0,,75,0
55980,note_on,30,0,0,,,,,,,,,0,,69,100
56010,note_on,30,0,0,,,,,,,,,0,,69,0
56010,note_on,0,0,0,,,,,,,,,0,,54,0
56040,note_on,30,0,0,,,,,,,,,0,,71,100
56055,note_on,15,0,0,,,,,,,,,0,,71,0
56055,note_on,0,0,0,,,,,,,,,0,,69,100
56070,note_on,15,0,0,,,,,,,,,0,,69,0
56070,note_on,0,0,0,,,,,,,,,0,,71,100
56085,note_on,15,0,0,,,,,,,,,0,,71,0
56085,note_on,0,0,0,,,,,,,,,0,,69,100
56100,note_on,15,0,0,,,,,,,,,0,,69,0
56100,note_on,0,0,0,,,,,,,,,0,,71,100
56115,note_on,15,0,0,,,,,,,,,0,,71,0
56115,note_on,0,0,0,,,,,,,,,0,,69,100
56130,note_on,15,0,0,,,,,,,,,0,,69,0
56130,note_on,0,0,0,,,,,,,,,0,,68,100
56145,note_on,15,0,0,,,,,,,,,0,,68,0
56145,note_on,0,0,0,,,,,,,,,0,,69,100
56160,note_on,15,0,0,,,,,,,,,0,,69,0
56160,note_on,0,0,0,,,,,,,,,0,,51,100
56160,note_on,0,0,0,,,,,,,,,0,,78,100
56190,note_on,30,0,0,,,,,,,,,0,,78,0
56220,note_on,30,0,0,,,,,,,,,0,,69,100
56250,note_on,30,0,0,,,,,,,,,0,,69,0
56250,note_on,0,0,0,,,,,,,,,0,,51,0
56280,note_on,30,0,0,,,,,,,,,0,,71,100
56295,note_on,15,0,0,,,,,,,,,0,,71,0
56295,note_on,0,0,0,,,,,,,,,0,,69,100
56310,note_on,15,0,0,,,,,,,,,0,,69,0
56310,note_on,0,0,0,,,,,,,,,0,,71,100
56325,note_on,15,0,0,,,,,,,,,0,,71,0
56325,note_on,0,0,0,,,,,,,,,0,,69,100
56340,note_on,15,0,0,,,,,,,,,0,,69,0
56340,note_on,0,0,0,,,,,,,,,0,,71,100
56355,note_on,15,0,0,,,,,,,,,0,,71,0
56355,note_on,0,0,0,,,,,,,,,0,,69,100
56370,note_on,15,0,0,,,,,,,,,0,,69,0
56370,note_on,0,0,0,,,,,,,,,0,,68,100
56385,note_on,15,0,0,,,,,,,,,0,,68,0
56385,note_on,0,0,0,,,,,,,,,0,,69,100
56400,note_on,15,0,0,,,,,,,,,0,,69,0
56400,note_on,0,0,0,,,,,,,,,0,,47,100
56400,note_on,0,0,0,,,,,,,,,0,,75,100
56430,note_on,30,0,0,,,,,,,,,0,,75,0
56460,note_on,30,0,0,,,,,,,,,0,,69,100
56490,note_on,30,0,0,,,,,,,,,0,,69,0
56490,note_on,0,0,0,,,,,,,,,0,,47,0
56520,note_on,30,0,0,,,,,,,,,0,,71,100
56535,note_on,15,0,0,,,,,,,,,0,,71,0
56535,note_on,0,0,0,,,,,,,,,0,,69,100
56550,note_on,15,0,0,,,,,,,,,0,,69,0
56550,note_on,0,0,0,,,,,,,,,0,,71,100
56565,note_on,15,0,0,,,,,,,,,0,,71,0
56565,note_on,0,0,0,,,,,,,,,0,,69,100
56580,note_on,15,0,0,,,,,,,,,0,,69,0
56580,note_on,0,0,0,,,,,,,,,0,,71,100
56595,note_on,15,0,0,,,,,,,,,0,,71,0
56595,note_on,0,0,0,,,,,,,,,0,,69,100
56610,note_on,15,0,0,,,,,,,,,0,,69,0
56610,note_on,0,0,0,,,,,,,,,0,,68,100
56620,note_on,10,0,0,,,,,,,,,0,,69,100
56625,note_on,5,0,0,,,,,,,,,0,,68,0
56630,note_on,5,0,0,,,,,,,,,0,,71,100
56635,note_on,5,0,0,,,,,,,,,0,,69,0
56640,note_on,5,0,0,,,,,,,,,0,,52,100
56640,note_on,0,0,0,,,,,,,,,0,,68,100
56645,note_on,5,0,0,,,,,,,,,0,,71,0
56670,note_on,25,0,0,,,,,,,,,0,,68,0
56670,note_on,0,0,0,,,,,,,,,0,,63,100
56700,note_on,30,0,0,,,,,,,,,0,,63,0
56700,note_on,0,0,0,,,,,,,,,0,,64,100
56720,note_on,20,0,0,,,,,,,,,0,,52,0
56730,note_on,10,0,0,,,,,,,,,0,,64,0
56730,note_on,0,0,0,,,,,,,,,0,,66,100
56750,note_on,20,0,0,,,,,,,,,0,,66,0
56760,note_on,10,0,0,,,,,,,,,0,,68,100
56790,note_on,30,0,0,,,,,,,,,0,,68,0
56790,note_on,0,0,0,,,,,,,,,0,,64,100
56810,note_on,20,0,0,,,,,,,,,0,,64,0
56820,note_on,10,0,0,,,,,,,,,0,,69,100
56850,note_on,30,0,0,,,,,,,,,0,,69,0
56850,note_on,0,0,0,,,,,,,,,0,,64,100
56870,note_on,20,0,0,,,,,,,,,0,,64,0
56880,note_on,10,0,0,,,,,,,,,0,,71,100
56900,note_on,20,0,0,,,,,,,,,0,,71,0
56910,note_on,10,0,0,,,,,,,,,0,,64,100
56940,note_on,30,0,0,,,,,,,,,0,,64,0
56940,note_on,0,0,0,,,,,,,,,0,,66,100
56970,note_on,30,0,0,,,,,,,,,0,,66,0
56970,note_on,0,0,0,,,,,,,,,0,,68,100
57000,note_on,30,0,0,,,,,,,,,0,,68,0
57000,note_on,0,0,0,,,,,,,,,0,,69,100
57030,note_on,30,0,0,,,,,,,,,0,,69,0
57030,note_on,0,0,0,,,,,,,,,0,,71,100
57060,note_on,30,0,0,,,,,,,,,0,,71,0
57060,note_on,0,0,0,,,,,,,,,0,,73,100
57090,note_on,30,0,0,,,,,,,,,0,,73,0
57090,note_on,0,0,0,,,,,,,,,0,,75,100
57110,note_on,20,0,0,,,,,,,,,0,,75,0
57120,note_on,10,0,0,,,,,,,,,0,,76,100
57140,note_on,20,0,0,,,,,,,,,0,,76,0
57150,note_on,10,0,0,,,,,,,,,0,,71,100
57180,note_on,30,0,0,,,,,,,,,0,,71,0
57180,note_on,0,0,0,,,,,,,,,0,,73,100
57210,note_on,30,0,0,,,,,,,,,0,,73,0
57210,note_on,0,0,0,,,,,,,,,0,,75,100
57230,note_on,20,0,0,,,,,,,,,0,,75,0
57240,note_on,10,0,0,,,,,,,,,0,,76,100
57270,note_on,30,0,0,,,,,,,,,0,,76,0
57270,note_on,0,0,0,,,,,,,,,0,,71,100
57290,note_on,20,0,0,,,,,,,,,0,,71,0
57300,note_on,10,0,0,,,,,,,,,0,,78,100
57330,note_on,30,0,0,,,,,,,,,0,,78,0
57330,note_on,0,0,0,,,,,,,,,0,,71,100
57350,note_on,20,0,0,,,,,,,,,0,,71,0
57360,note_on,10,0,0,,,,,,,,,0,,80,100
57390,note_on,30,0,0,,,,,,,,,0,,80,0
57390,note_on,0,0,0,,,,,,,,,0,,71,100
57420,note_on,30,0,0,,,,,,,,,0,,71,0
57420,note_on,0,0,0,,,,,,,,,0,,73,100
57450,note_on,30,0,0,,,,,,,,,0,,73,0
57450,note_on,0,0,0,,,,,,,,,0,,75,100
57480,note_on,30,0,0,,,,,,,,,0,,75,0
57480,note_on,0,0,0,,,,,,,,,0,,76,100
57510,note_on,30,0,0,,,,,,,,,0,,76,0
57510,note_on,0,0,0,,,,,,,,,0,,78,100
57540,note_on,30,0,0,,,,,,,,,0,,78,0
57540,note_on,0,0,0,,,,,,,,,0,,80,100
57570,note_on,30,0,0,,,,,,,,,0,,80,0
57570,note_on,0,0,0,,,,,,,,,0,,81,100
57590,note_on,20,0,0,,,,,,,,,0,,81,0
57600,note_on,10,0,0,,,,,,,,,0,,83,100
57600,note_on,0,0,0,,,,,,,,,0,,52,100
57600,note_on,0,0,0,,,,,,,,,5,,83,100
57600,note_on,0,0,0,,,,,,,,,6,,80,100
57600,note_on,0,0,0,,,,,,,,,7,,76,100
57600,note_on,0,0,0,,,,,,,,,8,,52,100
57600,note_on,0,0,0,,,,,,,,,10,,40,100
57600,note_on,0,0,0,,,,,,,,,13,,83,100
57600,note_on,0,0,0,,,,,,,,,13,,80,100
57600,note_on,0,0,0,,,,,,,,,14,,52,100
57600,note_on,0,0,0,,,,,,,,,15,,59,100
57600,note_on,0,0,0,,,,,,,,,15,,68,100
57600,note_on,0,0,0,,,,,,,,,15,,71,100
57600,note_on,0,0,0,,,,,,,,,15,,52,100
57705,note_on,105,0,0,,,,,,,,,13,,80,0
57705,note_on,0,0,0,,,,,,,,,13,,83,0
57705,note_on,0,0,0,,,,,,,,,7,,76,0
57705,note_on,0,0,0,,,,,,,,,6,,80,0
57705,note_on,0,0,0,,,,,,,,,5,,83,0
57705,note_on,0,0,0,,,,,,,,,0,,83,0
57720,note_on,15,0,0,,,,,,,,,15,,68,0
57720,note_on,0,0,0,,,,,,,,,15,,59,0
57720,note_on,0,0,0,,,,,,,,,15,,71,0
57720,note_on,0,0,0,,,,,,,,,0,,80,100
57720,note_on,0,0,0,,,,,,,,,5,,80,100
57720,note_on,0,0,0,,,,,,,,,6,,76,100
57720,note_on,0,0,0,,,,,,,,,7,,71,100
57720,note_on,0,0,0,,,,,,,,,13,,80,100
57720,note_on,0,0,0,,,,,,,,,13,,76,100
57720,note_on,0,0,0,,,,,,,,,15,,59,100
57720,note_on,0,0,0,,,,,,,,,15,,64,100
57720,note_on,0,0,0,,,,,,,,,15,,68,100
57750,note_on,30,0,0,,,,,,,,,14,,52,0
57750,note_on,0,0,0,,,,,,,,,0,,52,0
57750,note_on,0,0,0,,,,,,,,,8,,52,0
57750,note_on,0,0,0,,,,,,,,,10,,40,0
57750,note_on,0,0,0,,,,,,,,,15,,52,0
57780,note_on,30,0,0,,,,,,,,,0,,52,100
57780,note_on,0,0,0,,,,,,,,,8,,52,100
57780,note_on,0,0,0,,,,,,,,,10,,40,100
57780,note_on,0,0,0,,,,,,,,,14,,52,100
57780,note_on,0,0,0,,,,,,,,,15,,52,100
57810,note_on,30,0,0,,,,,,,,,15,,52,0
57810,note_on,0,0,0,,,,,,,,,0,,52,0
57810,note_on,0,0,0,,,,,,,,,14,,52,0
57810,note_on,0,0,0,,,,,,,,,8,,52,0
57810,note_on,0,0,0,,,,,,,,,10,,40,0
57825,note_on,15,0,0,,,,,,,,,13,,80,0
57825,note_on,0,0,0,,,,,,,,,5,,80,0
57825,note_on,0,0,0,,,,,,,,,6,,76,0
57825,note_on,0,0,0,,,,,,,,,0,,80,0
57825,note_on,0,0,0,,,,,,,,,13,,76,0
57825,note_on,0,0,0,,,,,,,,,7,,71,0
57840,note_on,15,0,0,,,,,,,,,15,,64,0
57840,note_on,0,0,0,,,,,,,,,15,,59,0
57840,note_on,0,0,0,,,,,,,,,15,,68,0
57840,note_on,0,0,0,,,,,,,,,0,,57,100
57840,note_on,0,0,0,,,,,,,,,7,,61,100
57840,note_on,0,0,0,,,,,,,,,8,,57,100
57840,note_on,0,0,0,,,,,,,,,10,,45,100
57840,note_on,0,0,0,,,,,,,,,14,,57,100
57840,note_on,0,0,0,,,,,,,,,15,,69,100
57840,note_on,0,0,0,,,,,,,,,15,,64,100
57840,note_on,0,0,0,,,,,,,,,15,,61,100
57840,note_on,0,0,0,,,,,,,,,15,,57,100
57900,note_on,60,0,0,,,,,,,,,0,,76,100
57900,note_on,0,0,0,,,,,,,,,5,,76,100
57900,note_on,0,0,0,,,,,,,,,6,,73,100
57900,note_on,0,0,0,,,,,,,,,13,,76,100
57900,note_on,0,0,0,,,,,,,,,13,,73,100
57930,note_on,30,0,0,,,,,,,,,13,,73,0
57930,note_on,0,0,0,,,,,,,,,0,,76,0
57930,note_on,0,0,0,,,,,,,,,13,,76,0
57930,note_on,0,0,0,,,,,,,,,5,,76,0
57930,note_on,0,0,0,,,,,,,,,6,,73,0
57945,note_on,15,0,0,,,,,,,,,8,,57,0
57945,note_on,0,0,0,,,,,,,,,10,,45,0
57945,note_on,0,0,0,,,,,,,,,0,,57,0
57945,note_on,0,0,0,,,,,,,,,15,,57,0
57945,note_on,0,0,0,,,,,,,,,7,,61,0
57945,note_on,0,0,0,,,,,,,,,14,,57,0
57960,note_on,15,0,0,,,,,,,,,15,,64,0
57960,note_on,0,0,0,,,,,,,,,15,,61,0
57960,note_on,0,0,0,,,,,,,,,15,,69,0
57960,note_on,0,0,0,,,,,,,,,0,,78,100
57960,note_on,0,0,0,,,,,,,,,0,,54,100
57960,note_on,0,0,0,,,,,,,,,5,,78,100
57960,note_on,0,0,0,,,,,,,,,6,,75,100
57960,note_on,0,0,0,,,,,,,,,7,,69,100
57960,note_on,0,0,0,,,,,,,,,8,,54,100
57960,note_on,0,0,0,,,,,,,,,10,,42,100
57960,note_on,0,0,0,,,,,,,,,13,,78,100
57960,note_on,0,0,0,,,,,,,,,13,,75,100
57960,note_on,0,0,0,,,,,,,,,14,,54,100
57960,note_on,0,0,0,,,,,,,,,15,,57,100
57960,note_on,0,0,0,,,,,,,,,15,,63,100
57960,note_on,0,0,0,,,,,,,,,15,,69,100
57960,note_on,0,0,0,,,,,,,,,15,,54,100
57990,note_on,30,0,0,,,,,,,,,13,,75,0
57990,note_on,0,0,0,,,,,,,,,13,,78,0
57990,note_on,0,0,0,,,,,,,,,6,,75,0
57990,note_on,0,0,0,,,,,,,,,5,,78,0
57990,note_on,0,0,0,,,,,,,,,0,,78,0
58020,note_on,30,0,0,,,,,,,,,0,,80,100
58020,note_on,0,0,0,,,,,,,,,5,,80,100
58020,note_on,0,0,0,,,,,,,,,6,,76,100
58020,note_on,0,0,0,,,,,,,,,13,,80,100
58020,note_on,0,0,0,,,,,,,,,13,,76,100
58050,note_on,30,0,0,,,,,,,,,13,,76,0
58050,note_on,0,0,0,,,,,,,,,0,,80,0
58050,note_on,0,0,0,,,,,,,,,13,,80,0
58050,note_on,0,0,0,,,,,,,,,5,,80,0
58050,note_on,0,0,0,,,,,,,,,6,,76,0
58065,note_on,15,0,0,,,,,,,,,14,,54,0
58065,note_on,0,0,0,,,,,,,,,15,,54,0
58065,note_on,0,0,0,,,,,,,,,10,,42,0
58065,note_on,0,0,0,,,,,,,,,7,,69,0
58065,note_on,0,0,0,,,,,,,,,8,,54,0
58065,note_on,0,0,0,,,,,,,,,0,,54,0
58070,note_on,5,0,0,,,,,,,,,15,,63,0
58070,note_on,0,0,0,,,,,,,,,15,,69,0
58070,note_on,0,0,0,,,,,,,,,15,,57,0
58080,note_on,10,0,0,,,,,,,,,0,,81,100
58080,note_on,0,0,0,,,,,,,,,5,,81,100
58080,note_on,0,0,0,,,,,,,,,6,,78,100
58080,note_on,0,0,0,,,,,,,,,13,,81,100
58080,note_on,0,0,0,,,,,,,,,13,,78,100
58080,note_on,0,0,0,,,,,,,,,15,,59,100
58080,note_on,0,0,0,,,,,,,,,15,,63,100
58080,note_on,0,0,0,,,,,,,,,15,,69,100
58110,note_on,30,0,0,,,,,,,,,13,,78,0
58110,note_on,0,0,0,,,,,,,,,13,,81,0
58110,note_on,0,0,0,,,,,,,,,0,,81,0
58110,note_on,0,0,0,,,,,,,,,6,,78,0
58110,note_on,0,0,0,,,,,,,,,5,,81,0
58110,note_on,0,0,0,,,,,,,,,0,,83,100
58110,note_on,0,0,0,,,,,,,,,5,,83,100
58110,note_on,0,0,0,,,,,,,,,6,,80,100
58110,note_on,0,0,0,,,,,,,,,13,,83,100
58110,note_on,0,0,0,,,,,,,,,13,,80,100
58140,note_on,30,0,0,,,,,,,,,13,,80,0
58140,note_on,0,0,0,,,,,,,,,13,,83,0
58140,note_on,0,0,0,,,,,,,,,5,,83,0
58140,note_on,0,0,0,,,,,,,,,0,,83,0
58140,note_on,0,0,0,,,,,,,,,6,,80,0
58140,note_on,0,0,0,,,,,,,,,0,,81,100
58140,note_on,0,0,0,,,,,,,,,0,,54,100
58140,note_on,0,0,0,,,,,,,,,5,,81,100
58140,note_on,0,0,0,,,,,,,,,6,,78,100
58140,note_on,0,0,0,,,,,,,,,7,,69,100
58140,note_on,0,0,0,,,,,,,,,8,,54,100
58140,note_on,0,0,0,,,,,,,,,10,,42,100
58140,note_on,0,0,0,,,,,,,,,13,,81,100
58140,note_on,0,0,0,,,,,,,,,13,,78,100
58140,note_on,0,0,0,,,,,,,,,14,,54,100
58140,note_on,0,0,0,,,,,,,,,15,,54,100
58170,note_on,30,0,0,,,,,,,,,15,,54,0
58170,note_on,0,0,0,,,,,,,,,0,,54,0
58170,note_on,0,0,0,,,,,,,,,5,,81,0
58170,note_on,0,0,0,,,,,,,,,10,,42,0
58170,note_on,0,0,0,,,,,,,,,7,,69,0
58170,note_on,0,0,0,,,,,,,,,6,,78,0
58170,note_on,0,0,0,,,,,,,,,0,,81,0
58170,note_on,0,0,0,,,,,,,,,8,,54,0
58170,note_on,0,0,0,,,,,,,,,13,,78,0
58170,note_on,0,0,0,,,,,,,,,13,,81,0
58170,note_on,0,0,0,,,,,,,,,14,,54,0
58180,note_on,10,0,0,,,,,,,,,15,,59,0
58180,note_on,0,0,0,,,,,,,,,15,,69,0
58180,note_on,0,0,0,,,,,,,,,15,,63,0
58200,note_on,20,0,0,,,,,,,,,0,,75,100
58200,note_on,0,0,0,,,,,,,,,0,,59,100
58200,note_on,0,0,0,,,,,,,,,5,,75,100
58200,note_on,0,0,0,,,,,,,,,6,,66,100
58200,note_on,0,0,0,,,,,,,,,7,,71,100
58200,note_on,0,0,0,,,,,,,,,8,,59,100
58200,note_on,0,0,0,,,,,,,,,10,,47,100
58200,note_on,0,0,0,,,,,,,,,13,,75,100
58200,note_on,0,0,0,,,,,,,,,13,,66,100
58200,note_on,0,0,0,,,,,,,,,14,,59,100
58200,note_on,0,0,0,,,,,,,,,15,,69,100
58200,note_on,0,0,0,,,,,,,,,15,,66,100
58200,note_on,0,0,0,,,,,,,,,15,,63,100
58200,note_on,0,0,0,,,,,,,,,15,,59,100
58230,note_on,30,0,0,,,,,,,,,15,,59,0
58230,note_on,0,0,0,,,,,,,,,7,,71,0
58230,note_on,0,0,0,,,,,,,,,10,,47,0
58230,note_on,0,0,0,,,,,,,,,0,,59,0
58230,note_on,0,0,0,,,,,,,,,14,,59,0
58230,note_on,0,0,0,,,,,,,,,8,,59,0
58260,note_on,30,0,0,,,,,,,,,0,,47,100
58260,note_on,0,0,0,,,,,,,,,7,,71,100
58260,note_on,0,0,0,,,,,,,,,8,,47,100
58260,note_on,0,0,0,,,,,,,,,10,,35,100
58260,note_on,0,0,0,,,,,,,,,14,,47,100
58260,note_on,0,0,0,,,,,,,,,15,,47,100
58290,note_on,30,0,0,,,,,,,,,15,,47,0
58290,note_on,0,0,0,,,,,,,,,7,,71,0
58290,note_on,0,0,0,,,,,,,,,0,,47,0
58290,note_on,0,0,0,,,,,,,,,14,,47,0
58290,note_on,0,0,0,,,,,,,,,8,,47,0
58290,note_on,0,0,0,,,,,,,,,10,,35,0
58300,note_on,10,0,0,,,,,,,,,15,,63,0
58300,note_on,0,0,0,,,,,,,,,15,,69,0
58300,note_on,0,0,0,,,,,,,,,15,,66,0
58305,note_on,5,0,0,,,,,,,,,6,,66,0
58305,note_on,0,0,0,,,,,,,,,0,,75,0
58305,note_on,0,0,0,,,,,,,,,13,,66,0
58305,note_on,0,0,0,,,,,,,,,13,,75,0
58305,note_on,0,0,0,,,,,,,,,5,,75,0
58320,note_on,15,0,0,,,,,,,,,0,,59,100
58320,note_on,0,0,0,,,,,,,,,7,,63,100
58320,note_on,0,0,0,,,,,,,,,8,,59,100
58320,note_on,0,0,0,,,,,,,,,10,,47,100
58320,note_on,0,0,0,,,,,,,,,14,,59,100
58320,note_on,0,0,0,,,,,,,,,15,,63,100
58320,note_on,0,0,0,,,,,,,,,15,,66,100
58320,note_on,0,0,0,,,,,,,,,15,,71,100
58320,note_on,0,0,0,,,,,,,,,15,,59,100
58350,note_on,30,0,0,,,,,,,,,7,,63,0
58380,note_on,30,0,0,,,,,,,,,0,,78,100
58380,note_on,0,0,0,,,,,,,,,5,,78,100
58380,note_on,0,0,0,,,,,,,,,6,,75,100
58380,note_on,0,0,0,,,,,,,,,7,,71,100
58380,note_on,0,0,0,,,,,,,,,13,,78,100
58380,note_on,0,0,0,,,,,,,,,13,,75,100
58410,note_on,30,0,0,,,,,,,,,13,,75,0
58410,note_on,0,0,0,,,,,,,,,5,,78,0
58410,note_on,0,0,0,,,,,,,,,0,,78,0
58410,note_on,0,0,0,,,,,,,,,13,,78,0
58410,note_on,0,0,0,,,,,,,,,6,,75,0
58410,note_on,0,0,0,,,,,,,,,7,,71,0
58420,note_on,10,0,0,,,,,,,,,15,,66,0
58420,note_on,0,0,0,,,,,,,,,15,,63,0
58420,note_on,0,0,0,,,,,,,,,15,,71,0
58425,note_on,5,0,0,,,,,,,,,8,,59,0
58425,note_on,0,0,0,,,,,,,,,15,,59,0
58425,note_on,0,0,0,,,,,,,,,14,,59,0
58425,note_on,0,0,0,,,,,,,,,10,,47,0
58425,note_on,0,0,0,,,,,,,,,0,,59,0
58440,note_on,15,0,0,,,,,,,,,0,,80,100
58440,note_on,0,0,0,,,,,,,,,0,,56,100
58440,note_on,0,0,0,,,,,,,,,5,,80,100
58440,note_on,0,0,0,,,,,,,,,6,,76,100
58440,note_on,0,0,0,,,,,,,,,7,,59,100
58440,note_on,0,0,0,,,,,,,,,8,,56,100
58440,note_on,0,0,0,,,,,,,,,10,,44,100
58440,note_on,0,0,0,,,,,,,,,13,,80,100
58440,note_on,0,0,0,,,,,,,,,13,,76,100
58440,note_on,0,0,0,,,,,,,,,14,,56,100
58440,note_on,0,0,0,,,,,,,,,15,,59,100
58440,note_on,0,0,0,,,,,,,,,15,,71,100
58440,note_on,0,0,0,,,,,,,,,15,,64,100
58440,note_on,0,0,0,,,,,,,,,15,,56,100
58470,note_on,30,0,0,,,,,,,,,13,,76,0
58470,note_on,0,0,0,,,,,,,,,13,,80,0
58470,note_on,0,0,0,,,,,,,,,6,,76,0
58470,note_on,0,0,0,,,,,,,,,5,,80,0
58470,note_on,0,0,0,,,,,,,,,0,,80,0
58500,note_on,30,0,0,,,,,,,,,0,,81,100
58500,note_on,0,0,0,,,,,,,,,5,,81,100
58500,note_on,0,0,0,,,,,,,,,6,,78,100
58500,note_on,0,0,0,,,,,,,,,13,,81,100
58500,note_on,0,0,0,,,,,,,,,13,,78,100
58530,note_on,30,0,0,,,,,,,,,13,,78,0
58530,note_on,0,0,0,,,,,,,,,0,,81,0
58530,note_on,0,0,0,,,,,,,,,13,,81,0
58530,note_on,0,0,0,,,,,,,,,5,,81,0
58530,note_on,0,0,0,,,,,,,,,6,,78,0
58545,note_on,15,0,0,,,,,,,,,15,,59,0
58545,note_on,0,0,0,,,,,,,,,10,,44,0
58545,note_on,0,0,0,,,,,,,,,0,,56,0
58545,note_on,0,0,0,,,,,,,,,15,,64,0
58545,note_on,0,0,0,,,,,,,,,14,,56,0
58545,note_on,0,0,0,,,,,,,,,7,,59,0
58545,note_on,0,0,0,,,,,,,,,15,,71,0
58545,note_on,0,0,0,,,,,,,,,8,,56,0
58545,note_on,0,0,0,,,,,,,,,15,,56,0
58560,note_on,15,0,0,,,,,,,,,0,,83,100
58560,note_on,0,0,0,,,,,,,,,5,,83,100
58560,note_on,0,0,0,,,,,,,,,6,,80,100
58560,note_on,0,0,0,,,,,,,,,13,,83,100
58560,note_on,0,0,0,,,,,,,,,13,,80,100
58560,note_on,0,0,0,,,,,,,,,15,,68,100
58560,note_on,0,0,0,,,,,,,,,15,,64,100
58560,note_on,0,0,0,,,,,,,,,15,,71,100
58560,note_on,0,0,0,,,,,,,,,15,,59,100
58590,note_on,30,0,0,,,,,,,,,13,,80,0
58590,note_on,0,0,0,,,,,,,,,13,,83,0
58590,note_on,0,0,0,,,,,,,,,0,,83,0
58590,note_on,0,0,0,,,,,,,,,6,,80,0
58590,note_on,0,0,0,,,,,,,,,5,,83,0
58590,note_on,0,0,0,,,,,,,,,0,,85,100
58590,note_on,0,0,0,,,,,,,,,5,,85,100
58590,note_on,0,0,0,,,,,,,,,6,,81,100
58590,note_on,0,0,0,,,,,,,,,13,,85,100
58590,note_on,0,0,0,,,,,,,,,13,,81,100
58620,note_on,30,0,0,,,,,,,,,13,,81,0
58620,note_on,0,0,0,,,,,,,,,13,,85,0
58620,note_on,0,0,0,,,,,,,,,6,,81,0
58620,note_on,0,0,0,,,,,,,,,0,,85,0
58620,note_on,0,0,0,,,,,,,,,5,,85,0
58620,note_on,0,0,0,,,,,,,,,0,,83,100
58620,note_on,0,0,0,,,,,,,,,0,,56,100
58620,note_on,0,0,0,,,,,,,,,5,,83,100
58620,note_on,0,0,0,,,,,,,,,6,,80,100
58620,note_on,0,0,0,,,,,,,,,7,,63,100
58620,note_on,0,0,0,,,,,,,,,8,,56,100
58620,note_on,0,0,0,,,,,,,,,10,,44,100
58620,note_on,0,0,0,,,,,,,,,13,,83,100
58620,note_on,0,0,0,,,,,,,,,13,,80,100
58620,note_on,0,0,0,,,,,,,,,14,,56,100
58620,note_on,0,0,0,,,,,,,,,15,,56,100
58650,note_on,30,0,0,,,,,,,,,15,,56,0
58650,note_on,0,0,0,,,,,,,,,13,,83,0
58650,note_on,0,0,0,,,,,,,,,0,,83,0
58650,note_on,0,0,0,,,,,,,,,0,,56,0
58650,note_on,0,0,0,,,,,,,,,8,,56,0
58650,note_on,0,0,0,,,,,,,,,6,,80,0
58650,note_on,0,0,0,,,,,,,,,5,,83,0
58650,note_on,0,0,0,,,,,,,,,7,,63,0
58650,note_on,0,0,0,,,,,,,,,14,,56,0
58650,note_on,0,0,0,,,,,,,,,13,,80,0
58650,note_on,0,0,0,,,,,,,,,10,,44,0
58660,note_on,10,0,0,,,,,,,,,15,,59,0
58660,note_on,0,0,0,,,,,,,,,15,,68,0
58660,note_on,0,0,0,,,,,,,,,15,,71,0
58660,note_on,0,0,0,,,,,,,,,15,,64,0
58680,note_on,20,0,0,,,,,,,,,0,,76,100
58680,note_on,0,0,0,,,,,,,,,0,,61,100
58680,note_on,0,0,0,,,,,,,,,5,,76,100
58680,note_on,0,0,0,,,,,,,,,6,,68,100
58680,note_on,0,0,0,,,,,,,,,7,,64,100
58680,note_on,0,0,0,,,,,,,,,8,,61,100
58680,note_on,0,0,0,,,,,,,,,10,,49,100
58680,note_on,0,0,0,,,,,,,,,13,,76,100
58680,note_on,0,0,0,,,,,,,,,13,,68,100
58680,note_on,0,0,0,,,,,,,,,14,,61,100
58680,note_on,0,0,0,,,,,,,,,15,,56,100
58680,note_on,0,0,0,,,,,,,,,15,,64,100
58680,note_on,0,0,0,,,,,,,,,15,,68,100
58680,note_on,0,0,0,,,,,,,,,15,,61,100
58710,note_on,30,0,0,,,,,,,,,15,,61,0
58710,note_on,0,0,0,,,,,,,,,7,,64,0
58710,note_on,0,0,0,,,,,,,,,10,,49,0
58710,note_on,0,0,0,,,,,,,,,0,,61,0
58710,note_on,0,0,0,,,,,,,,,14,,61,0
58710,note_on,0,0,0,,,,,,,,,8,,61,0
58740,note_on,30,0,0,,,,,,,,,0,,49,100
58740,note_on,0,0,0,,,,,,,,,7,,68,100
58740,note_on,0,0,0,,,,,,,,,8,,49,100
58740,note_on,0,0,0,,,,,,,,,10,,37,100
58740,note_on,0,0,0,,,,,,,,,14,,49,100
58740,note_on,0,0,0,,,,,,,,,15,,49,100
58770,note_on,30,0,0,,,,,,,,,15,,49,0
58770,note_on,0,0,0,,,,,,,,,7,,68,0
58770,note_on,0,0,0,,,,,,,,,0,,49,0
58770,note_on,0,0,0,,,,,,,,,14,,49,0
58770,note_on,0,0,0,,,,,,,,,8,,49,0
58770,note_on,0,0,0,,,,,,,,,10,,37,0
58780,note_on,10,0,0,,,,,,,,,15,,68,0
58780,note_on,0,0,0,,,,,,,,,15,,56,0
58780,note_on,0,0,0,,,,,,,,,15,,64,0
58785,note_on,5,0,0,,,,,,,,,6,,68,0
58785,note_on,0,0,0,,,,,,,,,0,,76,0
58785,note_on,0,0,0,,,,,,,,,13,,68,0
58785,note_on,0,0,0,,,,,,,,,13,,76,0
58785,note_on,0,0,0,,,,,,,,,5,,76,0
58800,note_on,15,0,0,,,,,,,,,0,,61,100
58800,note_on,0,0,0,,,,,,,,,7,,73,100
58800,note_on,0,0,0,,,,,,,,,8,,61,100
58800,note_on,0,0,0,,,,,,,,,10,,49,100
58800,note_on,0,0,0,,,,,,,,,14,,61,100
58800,note_on,0,0,0,,,,,,,,,15,,73,100
58800,note_on,0,0,0,,,,,,,,,15,,69,100
58800,note_on,0,0,0,,,,,,,,,15,,64,100
58800,note_on,0,0,0,,,,,,,,,15,,61,100
58860,note_on,60,0,0,,,,,,,,,0,,80,100
58860,note_on,0,0,0,,,,,,,,,5,,80,100
58860,note_on,0,0,0,,,,,,,,,6,,76,100
58860,note_on,0,0,0,,,,,,,,,13,,80,100
58860,note_on,0,0,0,,,,,,,,,13,,76,100
58890,note_on,30,0,0,,,,,,,,,13,,76,0
58890,note_on,0,0,0,,,,,,,,,0,,80,0
58890,note_on,0,0,0,,,,,,,,,13,,80,0
58890,note_on,0,0,0,,,,,,,,,5,,80,0
58890,note_on,0,0,0,,,,,,,,,6,,76,0
58900,note_on,10,0,0,,,,,,,,,15,,64,0
58900,note_on,0,0,0,,,,,,,,,15,,69,0
58900,note_on,0,0,0,,,,,,,,,15,,73,0
58905,note_on,5,0,0,,,,,,,,,7,,73,0
58905,note_on,0,0,0,,,,,,,,,14,,61,0
58905,note_on,0,0,0,,,,,,,,,8,,61,0
58905,note_on,0,0,0,,,,,,,,,15,,61,0
58905,note_on,0,0,0,,,,,,,,,0,,61,0
58905,note_on,0,0,0,,,,,,,,,10,,49,0
58920,note_on,15,0,0,,,,,,,,,0,,81,100
58920,note_on,0,0,0,,,,,,,,,0,,57,100
58920,note_on,0,0,0,,,,,,,,,5,,81,100
58920,note_on,0,0,0,,,,,,,,,6,,78,100
58920,note_on,0,0,0,,,,,,,,,7,,61,100
58920,note_on,0,0,0,,,,,,,,,8,,57,100
58920,note_on,0,0,0,,,,,,,,,10,,45,100
58920,note_on,0,0,0,,,,,,,,,13,,81,100
58920,note_on,0,0,0,,,,,,,,,13,,78,100
58920,note_on,0,0,0,,,,,,,,,14,,57,100
58920,note_on,0,0,0,,,,,,,,,15,,73,100
58920,note_on,0,0,0,,,,,,,,,15,,61,100
58920,note_on,0,0,0,,,,,,,,,15,,66,100
58920,note_on,0,0,0,,,,,,,,,15,,57,100
58950,note_on,30,0,0,,,,,,,,,13,,78,0
58950,note_on,0,0,0,,,,,,,,,13,,81,0
58950,note_on,0,0,0,,,,,,,,,6,,78,0
58950,note_on,0,0,0,,,,,,,,,5,,81,0
58950,note_on,0,0,0,,,,,,,,,0,,81,0
58980,note_on,30,0,0,,,,,,,,,0,,83,100
58980,note_on,0,0,0,,,,,,,,,5,,83,100
58980,note_on,0,0,0,,,,,,,,,6,,80,100
58980,note_on,0,0,0,,,,,,,,,13,,83,100
58980,note_on,0,0,0,,,,,,,,,13,,80,100
59010,note_on,30,0,0,,,,,,,,,13,,80,0
59010,note_on,0,0,0,,,,,,,,,0,,83,0
59010,note_on,0,0,0,,,,,,,,,13,,83,0
59010,note_on,0,0,0,,,,,,,,,5,,83,0
59010,note_on,0,0,0,,,,,,,,,6,,80,0
59020,note_on,10,0,0,,,,,,,,,15,,61,0
59020,note_on,0,0,0,,,,,,,,,15,,73,0
59020,note_on,0,0,0,,,,,,,,,15,,66,0
59025,note_on,5,0,0,,,,,,,,,14,,57,0
59025,note_on,0,0,0,,,,,,,,,15,,57,0
59025,note_on,0,0,0,,,,,,,,,7,,61,0
59025,note_on,0,0,0,,,,,,,,,8,,57,0
59025,note_on,0,0,0,,,,,,,,,0,,57,0
59025,note_on,0,0,0,,,,,,,,,10,,45,0
59040,note_on,15,0,0,,,,,,,,,0,,85,100
59040,note_on,0,0,0,,,,,,,,,5,,85,100
59040,note_on,0,0,0,,,,,,,,,6,,81,100
59040,note_on,0,0,0,,,,,,,,,13,,85,100
59040,note_on,0,0,0,,,,,,,,,13,,81,100
59040,note_on,0,0,0,,,,,,,,,15,,69,100
59040,note_on,0,0,0,,,,,,,,,15,,64,100
59040,note_on,0,0,0,,,,,,,,,15,,61,100
59070,note_on,30,0,0,,,,,,,,,13,,81,0
59070,note_on,0,0,0,,,,,,,,,13,,85,0
59070,note_on,0,0,0,,,,,,,,,0,,85,0
59070,note_on,0,0,0,,,,,,,,,6,,81,0
59070,note_on,0,0,0,,,,,,,,,5,,85,0
59070,note_on,0,0,0,,,,,,,,,6,,83,100
59070,note_on,0,0,0,,,,,,,,,13,,83,100
59100,note_on,30,0,0,,,,,,,,,13,,83,0
59100,note_on,0,0,0,,,,,,,,,6,,83,0
59100,note_on,0,0,0,,,,,,,,,0,,76,100
59100,note_on,0,0,0,,,,,,,,,0,,57,100
59100,note_on,0,0,0,,,,,,,,,5,,76,100
59100,note_on,0,0,0,,,,,,,,,6,,81,100
59100,note_on,0,0,0,,,,,,,,,7,,61,100
59100,note_on,0,0,0,,,,,,,,,8,,57,100
59100,note_on,0,0,0,,,,,,,,,10,,45,100
59100,note_on,0,0,0,,,,,,,,,13,,76,100
59100,note_on,0,0,0,,,,,,,,,13,,81,100
59100,note_on,0,0,0,,,,,,,,,14,,57,100
59100,note_on,0,0,0,,,,,,,,,15,,57,100
59130,note_on,30,0,0,,,,,,,,,15,,57,0
59130,note_on,0,0,0,,,,,,,,,0,,57,0
59130,note_on,0,0,0,,,,,,,,,5,,76,0
59130,note_on,0,0,0,,,,,,,,,10,,45,0
59130,note_on,0,0,0,,,,,,,,,7,,61,0
59130,note_on,0,0,0,,,,,,,,,6,,81,0
59130,note_on,0,0,0,,,,,,,,,0,,76,0
59130,note_on,0,0,0,,,,,,,,,8,,57,0
59130,note_on,0,0,0,,,,,,,,,13,,81,0
59130,note_on,0,0,0,,,,,,,,,13,,76,0
59130,note_on,0,0,0,,,,,,,,,14,,57,0
59140,note_on,10,0,0,,,,,,,,,15,,69,0
59140,note_on,0,0,0,,,,,,,,,15,,64,0
59140,note_on,0,0,0,,,,,,,,,15,,61,0
59160,note_on,20,0,0,,,,,,,,,0,,81,100
59160,note_on,0,0,0,,,,,,,,,0,,61,100
59160,note_on,0,0,0,,,,,,,,,5,,81,100
59160,note_on,0,0,0,,,,,,,,,6,,76,100
59160,note_on,0,0,0,,,,,,,,,7,,69,100
59160,note_on,0,0,0,,,,,,,,,8,,61,100
59160,note_on,0,0,0,,,,,,,,,10,,49,100
59160,note_on,0,0,0,,,,,,,,,13,,81,100
59160,note_on,0,0,0,,,,,,,,,13,,76,100
59160,note_on,0,0,0,,,,,,,,,14,,61,100
59160,note_on,0,0,0,,,,,,,,,15,,64,100
59160,note_on,0,0,0,,,,,,,,,15,,69,100
59160,note_on,0,0,0,,,,,,,,,15,,61,100
59190,note_on,30,0,0,,,,,,,,,15,,61,0
59190,note_on,0,0,0,,,,,,,,,0,,61,0
59190,note_on,0,0,0,,,,,,,,,13,,81,0
59190,note_on,0,0,0,,,,,,,,,5,,81,0
59190,note_on,0,0,0,,,,,,,,,10,,49,0
59190,note_on,0,0,0,,,,,,,,,0,,81,0
59190,note_on,0,0,0,,,,,,,,,14,,61,0
59190,note_on,0,0,0,,,,,,,,,7,,69,0
59190,note_on,0,0,0,,,,,,,,,8,,61,0
59220,note_on,30,0,0,,,,,,,,,0,,85,100
59220,note_on,0,0,0,,,,,,,,,0,,57,100
59220,note_on,0,0,0,,,,,,,,,5,,85,100
59220,note_on,0,0,0,,,,,,,,,7,,69,100
59220,note_on,0,0,0,,,,,,,,,8,,57,100
59220,note_on,0,0,0,,,,,,,,,10,,45,100
59220,note_on,0,0,0,,,,,,,,,13,,85,100
59220,note_on,0,0,0,,,,,,,,,14,,57,100
59220,note_on,0,0,0,,,,,,,,,15,,57,100
59250,note_on,30,0,0,,,,,,,,,15,,57,0
59250,note_on,0,0,0,,,,,,,,,0,,57,0
59250,note_on,0,0,0,,,,,,,,,10,,45,0
59250,note_on,0,0,0,,,,,,,,,7,,69,0
59250,note_on,0,0,0,,,,,,,,,5,,85,0
59250,note_on,0,0,0,,,,,,,,,8,,57,0
59250,note_on,0,0,0,,,,,,,,,14,,57,0
59250,note_on,0,0,0,,,,,,,,,0,,85,0
59250,note_on,0,0,0,,,,,,,,,13,,85,0
59260,note_on,10,0,0,,,,,,,,,15,,69,0
59260,note_on,0,0,0,,,,,,,,,15,,64,0
59265,note_on,5,0,0,,,,,,,,,13,,76,0
59265,note_on,0,0,0,,,,,,,,,6,,76,0
59280,note_on,15,0,0,,,,,,,,,0,,83,100
59280,note_on,0,0,0,,,,,,,,,0,,64,100
59280,note_on,0,0,0,,,,,,,,,5,,83,100
59280,note_on,0,0,0,,,,,,,,,7,,68,100
59280,note_on,0,0,0,,,,,,,,,8,,64,100
59280,note_on,0,0,0,,,,,,,,,10,,52,100
59280,note_on,0,0,0,,,,,,,,,13,,83,100
59280,note_on,0,0,0,,,,,,,,,14,,64,100
59280,note_on,0,0,0,,,,,,,,,15,,71,100
59280,note_on,0,0,0,,,,,,,,,15,,68,100
59280,note_on,0,0,0,,,,,,,,,15,,64,100
59310,note_on,30,0,0,,,,,,,,,13,,83,0
59310,note_on,0,0,0,,,,,,,,,5,,83,0
59310,note_on,0,0,0,,,,,,,,,7,,68,0
59310,note_on,0,0,0,,,,,,,,,0,,83,0
59340,note_on,30,0,0,,,,,,,,,0,,71,100
59340,note_on,0,0,0,,,,,,,,,5,,71,100
59340,note_on,0,0,0,,,,,,,,,6,,80,100
59340,note_on,0,0,0,,,,,,,,,7,,64,100
59340,note_on,0,0,0,,,,,,,,,13,,71,100
59340,note_on,0,0,0,,,,,,,,,13,,80,100
59370,note_on,30,0,0,,,,,,,,,13,,80,0
59370,note_on,0,0,0,,,,,,,,,6,,80,0
59370,note_on,0,0,0,,,,,,,,,5,,71,0
59370,note_on,0,0,0,,,,,,,,,0,,71,0
59370,note_on,0,0,0,,,,,,,,,13,,71,0
59370,note_on,0,0,0,,,,,,,,,7,,64,0
59385,note_on,15,0,0,,,,,,,,,15,,71,0
59385,note_on,0,0,0,,,,,,,,,8,,64,0
59385,note_on,0,0,0,,,,,,,,,15,,64,0
59385,note_on,0,0,0,,,,,,,,,10,,52,0
59385,note_on,0,0,0,,,,,,,,,0,,64,0
59385,note_on,0,0,0,,,,,,,,,15,,68,0
59385,note_on,0,0,0,,,,,,,,,14,,64,0
59400,note_on,15,0,0,,,,,,,,,0,,76,100
59400,note_on,0,0,0,,,,,,,,,0,,52,100
59400,note_on,0,0,0,,,,,,,,,5,,76,100
59400,note_on,0,0,0,,,,,,,,,6,,80,100
59400,note_on,0,0,0,,,,,,,,,7,,71,100
59400,note_on,0,0,0,,,,,,,,,8,,52,100
59400,note_on,0,0,0,,,,,,,,,10,,40,100
59400,note_on,0,0,0,,,,,,,,,13,,76,100
59400,note_on,0,0,0,,,,,,,,,13,,80,100
59400,note_on,0,0,0,,,,,,,,,14,,52,100
59400,note_on,0,0,0,,,,,,,,,15,,59,100
59400,note_on,0,0,0,,,,,,,,,15,,68,100
59400,note_on,0,0,0,,,,,,,,,15,,71,100
59400,note_on,0,0,0,,,,,,,,,15,,52,100
59430,note_on,30,0,0,,,,,,,,,13,,80,0
59430,note_on,0,0,0,,,,,,,,,13,,76,0
59430,note_on,0,0,0,,,,,,,,,7,,71,0
59430,note_on,0,0,0,,,,,,,,,6,,80,0
59430,note_on,0,0,0,,,,,,,,,5,,76,0
59430,note_on,0,0,0,,,,,,,,,0,,76,0
59430,note_on,0,0,0,,,,,,,,,0,,78,100
59430,note_on,0,0,0,,,,,,,,,5,,78,100
59430,note_on,0,0,0,,,,,,,,,6,,81,100
59430,note_on,0,0,0,,,,,,,,,13,,78,100
59430,note_on,0,0,0,,,,,,,,,13,,81,100
59460,note_on,30,0,0,,,,,,,,,13,,81,0
59460,note_on,0,0,0,,,,,,,,,5,,78,0
59460,note_on,0,0,0,,,,,,,,,0,,78,0
59460,note_on,0,0,0,,,,,,,,,13,,78,0
59460,note_on,0,0,0,,,,,,,,,6,,81,0
59460,note_on,0,0,0,,,,,,,,,0,,76,100
59460,note_on,0,0,0,,,,,,,,,5,,76,100
59460,note_on,0,0,0,,,,,,,,,6,,80,100
59460,note_on,0,0,0,,,,,,,,,7,,71,100
59460,note_on,0,0,0,,,,,,,,,13,,76,100
59460,note_on,0,0,0,,,,,,,,,13,,80,100
59490,note_on,30,0,0,,,,,,,,,13,,80,0
59490,note_on,0,0,0,,,,,,,,,5,,76,0
59490,note_on,0,0,0,,,,,,,,,0,,76,0
59490,note_on,0,0,0,,,,,,,,,13,,76,0
59490,note_on,0,0,0,,,,,,,,,6,,80,0
59490,note_on,0,0,0,,,,,,,,,7,,71,0
59505,note_on,15,0,0,,,,,,,,,15,,59,0
59505,note_on,0,0,0,,,,,,,,,0,,52,0
59505,note_on,0,0,0,,,,,,,,,15,,68,0
59505,note_on,0,0,0,,,,,,,,,10,,40,0
59505,note_on,0,0,0,,,,,,,,,15,,52,0
59505,note_on,0,0,0,,,,,,,,,15,,71,0
59505,note_on,0,0,0,,,,,,,,,14,,52,0
59505,note_on,0,0,0,,,,,,,,,8,,52,0
59520,note_on,15,0,0,,,,,,,,,0,,80,100
59520,note_on,0,0,0,,,,,,,,,5,,80,100
59520,note_on,0,0,0,,,,,,,,,6,,83,100
59520,note_on,0,0,0,,,,,,,,,7,,76,100
59520,note_on,0,0,0,,,,,,,,,13,,80,100
59520,note_on,0,0,0,,,,,,,,,13,,83,100
59520,note_on,0,0,0,,,,,,,,,15,,59,100
59520,note_on,0,0,0,,,,,,,,,15,,64,100
59520,note_on,0,0,0,,,,,,,,,15,,68,100
59550,note_on,30,0,0,,,,,,,,,13,,83,0
59550,note_on,0,0,0,,,,,,,,,6,,83,0
59550,note_on,0,0,0,,,,,,,,,0,,80,0
59550,note_on,0,0,0,,,,,,,,,13,,80,0
59550,note_on,0,0,0,,,,,,,,,5,,80,0
59550,note_on,0,0,0,,,,,,,,,0,,81,100
59550,note_on,0,0,0,,,,,,,,,5,,81,100
59550,note_on,0,0,0,,,,,,,,,13,,81,100
59580,note_on,30,0,0,,,,,,,,,13,,81,0
59580,note_on,0,0,0,,,,,,,,,0,,81,0
59580,note_on,0,0,0,,,,,,,,,5,,81,0
59580,note_on,0,0,0,,,,,,,,,0,,80,100
59580,note_on,0,0,0,,,,,,,,,0,,52,100
59580,note_on,0,0,0,,,,,,,,,5,,80,100
59580,note_on,0,0,0,,,,,,,,,6,,71,100
59580,note_on,0,0,0,,,,,,,,,8,,52,100
59580,note_on,0,0,0,,,,,,,,,10,,40,100
59580,note_on,0,0,0,,,,,,,,,13,,80,100
59580,note_on,0,0,0,,,,,,,,,13,,71,100
59580,note_on,0,0,0,,,,,,,,,14,,52,100
59580,note_on,0,0,0,,,,,,,,,15,,52,100
59610,note_on,30,0,0,,,,,,,,,15,,52,0
59610,note_on,0,0,0,,,,,,,,,0,,80,0
59610,note_on,0,0,0,,,,,,,,,0,,52,0
59610,note_on,0,0,0,,,,,,,,,10,,40,0
59610,note_on,0,0,0,,,,,,,,,6,,71,0
59610,note_on,0,0,0,,,,,,,,,5,,80,0
59610,note_on,0,0,0,,,,,,,,,8,,52,0
59610,note_on,0,0,0,,,,,,,,,14,,52,0
59610,note_on,0,0,0,,,,,,,,,13,,71,0
59610,note_on,0,0,0,,,,,,,,,13,,80,0
59620,note_on,10,0,0,,,,,,,,,15,,64,0
59620,note_on,0,0,0,,,,,,,,,15,,59,0
59620,note_on,0,0,0,,,,,,,,,15,,68,0
59625,note_on,5,0,0,,,,,,,,,7,,76,0
59640,note_on,15,0,0,,,,,,,,,0,,83,100
59640,note_on,0,0,0,,,,,,,,,0,,56,100
59640,note_on,0,0,0,,,,,,,,,5,,83,100
59640,note_on,0,0,0,,,,,,,,,6,,76,100
59640,note_on,0,0,0,,,,,,,,,7,,64,100
59640,note_on,0,0,0,,,,,,,,,8,,56,100
59640,note_on,0,0,0,,,,,,,,,10,,44,100
59640,note_on,0,0,0,,,,,,,,,13,,83,100
59640,note_on,0,0,0,,,,,,,,,13,,76,100
59640,note_on,0,0,0,,,,,,,,,14,,56,100
59640,note_on,0,0,0,,,,,,,,,15,,64,100
59640,note_on,0,0,0,,,,,,,,,15,,71,100
59640,note_on,0,0,0,,,,,,,,,15,,59,100
59640,note_on,0,0,0,,,,,,,,,15,,56,100
59670,note_on,30,0,0,,,,,,,,,15,,56,0
59670,note_on,0,0,0,,,,,,,,,7,,64,0
59670,note_on,0,0,0,,,,,,,,,13,,83,0
59670,note_on,0,0,0,,,,,,,,,5,,83,0
59670,note_on,0,0,0,,,,,,,,,10,,44,0
59670,note_on,0,0,0,,,,,,,,,0,,83,0
59670,note_on,0,0,0,,,,,,,,,14,,56,0
59670,note_on,0,0,0,,,,,,,,,0,,56,0
59670,note_on,0,0,0,,,,,,,,,8,,56,0
59700,note_on,30,0,0,,,,,,,,,0,,71,100
59700,note_on,0,0,0,,,,,,,,,0,,52,100
59700,note_on,0,0,0,,,,,,,,,5,,71,100
59700,note_on,0,0,0,,,,,,,,,7,,68,100
59700,note_on,0,0,0,,,,,,,,,8,,52,100
59700,note_on,0,0,0,,,,,,,,,10,,40,100
59700,note_on,0,0,0,,,,,,,,,13,,71,100
59700,note_on,0,0,0,,,,,,,,,14,,52,100
59700,note_on,0,0,0,,,,,,,,,15,,52,100
59730,note_on,30,0,0,,,,,,,,,15,,52,0
59730,note_on,0,0,0,,,,,,,,,8,,52,0
59730,note_on,0,0,0,,,,,,,,,0,,71,0
59730,note_on,0,0,0,,,,,,,,,0,,52,0
59730,note_on,0,0,0,,,,,,,,,7,,68,0
59730,note_on,0,0,0,,,,,,,,,5,,71,0
59730,note_on,0,0,0,,,,,,,,,14,,52,0
59730,note_on,0,0,0,,,,,,,,,10,,40,0
59730,note_on,0,0,0,,,,,,,,,13,,71,0
59740,note_on,10,0,0,,,,,,,,,15,,71,0
59740,note_on,0,0,0,,,,,,,,,15,,64,0
59740,note_on,0,0,0,,,,,,,,,15,,59,0
59760,note_on,20,0,0,,,,,,,,,0,,73,100
59760,note_on,0,0,0,,,,,,,,,0,,57,100
59760,note_on,0,0,0,,,,,,,,,5,,73,100
59760,note_on,0,0,0,,,,,,,,,7,,64,100
59760,note_on,0,0,0,,,,,,,,,8,,57,100
59760,note_on,0,0,0,,,,,,,,,10,,45,100
59760,note_on,0,0,0,,,,,,,,,13,,73,100
59760,note_on,0,0,0,,,,,,,,,14,,57,100
59760,note_on,0,0,0,,,,,,,,,15,,69,100
59760,note_on,0,0,0,,,,,,,,,15,,61,100
59760,note_on,0,0,0,,,,,,,,,15,,66,100
59760,note_on,0,0,0,,,,,,,,,15,,57,100
59790,note_on,30,0,0,,,,,,,,,15,,57,0
59790,note_on,0,0,0,,,,,,,,,5,,73,0
59790,note_on,0,0,0,,,,,,,,,13,,73,0
59790,note_on,0,0,0,,,,,,,,,8,,57,0
59790,note_on,0,0,0,,,,,,,,,6,,76,0
59790,note_on,0,0,0,,,,,,,,,0,,73,0
59790,note_on,0,0,0,,,,,,,,,0,,57,0
59790,note_on,0,0,0,,,,,,,,,10,,45,0
59790,note_on,0,0,0,,,,,,,,,7,,64,0
59790,note_on,0,0,0,,,,,,,,,13,,76,0
59790,note_on,0,0,0,,,,,,,,,14,,57,0
59820,note_on,30,0,0,,,,,,,,,0,,81,100
59820,note_on,0,0,0,,,,,,,,,0,,54,100
59820,note_on,0,0,0,,,,,,,,,5,,81,100
59820,note_on,0,0,0,,,,,,,,,6,,75,100
59820,note_on,0,0,0,,,,,,,,,7,,66,100
59820,note_on,0,0,0,,,,,,,,,8,,54,100
59820,note_on,0,0,0,,,,,,,,,10,,42,100
59820,note_on,0,0,0,,,,,,,,,13,,81,100
59820,note_on,0,0,0,,,,,,,,,13,,75,100
59820,note_on,0,0,0,,,,,,,,,14,,54,100
59820,note_on,0,0,0,,,,,,,,,15,,54,100
59850,note_on,30,0,0,,,,,,,,,15,,54,0
59850,note_on,0,0,0,,,,,,,,,0,,54,0
59850,note_on,0,0,0,,,,,,,,,5,,81,0
59850,note_on,0,0,0,,,,,,,,,10,,42,0
59850,note_on,0,0,0,,,,,,,,,7,,66,0
59850,note_on,0,0,0,,,,,,,,,6,,75,0
59850,note_on,0,0,0,,,,,,,,,0,,81,0
59850,note_on,0,0,0,,,,,,,,,8,,54,0
59850,note_on,0,0,0,,,,,,,,,13,,75,0
59850,note_on,0,0,0,,,,,,,,,13,,81,0
59850,note_on,0,0,0,,,,,,,,,14,,54,0
59880,note_on,30,0,0,,,,,,,,,15,,69,0
59880,note_on,0,0,0,,,,,,,,,15,,61,0
59880,note_on,0,0,0,,,,,,,,,15,,66,0
59880,note_on,0,0,0,,,,,,,,,0,,80,100
59880,note_on,0,0,0,,,,,,,,,0,,56,100
59880,note_on,0,0,0,,,,,,,,,5,,80,100
59880,note_on,0,0,0,,,,,,,,,6,,76,100
59880,note_on,0,0,0,,,,,,,,,7,,71,100
59880,note_on,0,0,0,,,,,,,,,8,,56,100
59880,note_on,0,0,0,,,,,,,,,10,,44,100
59880,note_on,0,0,0,,,,,,,,,13,,80,100
59880,note_on,0,0,0,,,,,,,,,13,,76,100
59880,note_on,0,0,0,,,,,,,,,14,,56,100
59880,note_on,0,0,0,,,,,,,,,15,,68,100
59880,note_on,0,0,0,,,,,,,,,15,,71,100
59880,note_on,0,0,0,,,,,,,,,15,,56,100
59880,note_on,0,0,0,,,,,,,,,15,,64,100
59910,note_on,30,0,0,,,,,,,,,15,,56,0
59910,note_on,0,0,0,,,,,,,,,13,,80,0
59910,note_on,0,0,0,,,,,,,,,0,,56,0
59910,note_on,0,0,0,,,,,,,,,5,,80,0
59910,note_on,0,0,0,,,,,,,,,10,,44,0
59910,note_on,0,0,0,,,,,,,,,0,,80,0
59910,note_on,0,0,0,,,,,,,,,14,,56,0
59910,note_on,0,0,0,,,,,,,,,8,,56,0
59910,note_on,0,0,0,,,,,,,,,7,,71,0
59940,note_on,30,0,0,,,,,,,,,0,,78,100
59940,note_on,0,0,0,,,,,,,,,0,,57,100
59940,note_on,0,0,0,,,,,,,,,5,,78,100
59940,note_on,0,0,0,,,,,,,,,7,,73,100
59940,note_on,0,0,0,,,,,,,,,8,,57,100
59940,note_on,0,0,0,,,,,,,,,10,,45,100
59940,note_on,0,0,0,,,,,,,,,13,,78,100
59940,note_on,0,0,0,,,,,,,,,14,,57,100
59940,note_on,0,0,0,,,,,,,,,15,,57,100
59970,note_on,30,0,0,,,,,,,,,15,,57,0
59970,note_on,0,0,0,,,,,,,,,8,,57,0
59970,note_on,0,0,0,,,,,,,,,0,,78,0
59970,note_on,0,0,0,,,,,,,,,0,,57,0
59970,note_on,0,0,0,,,,,,,,,7,,73,0
59970,note_on,0,0,0,,,,,,,,,5,,78,0
59970,note_on,0,0,0,,,,,,,,,14,,57,0
59970,note_on,0,0,0,,,,,,,,,10,,45,0
59970,note_on,0,0,0,,,,,,,,,13,,78,0
60000,note_on,30,0,0,,,,,,,,,15,,71,0
60000,note_on,0,0,0,,,,,,,,,15,,68,0
60000,note_on,0,0,0,,,,,,,,,15,,64,0
60000,note_on,0,0,0,,,,,,,,,0,,80,100
60000,note_on,0,0,0,,,,,,,,,0,,59,100
60000,note_on,0,0,0,,,,,,,,,5,,80,100
60000,note_on,0,0,0,,,,,,,,,7,,71,100
60000,note_on,0,0,0,,,,,,,,,8,,59,100
60000,note_on,0,0,0,,,,,,,,,10,,47,100
60000,note_on,0,0,0,,,,,,,,,13,,80,100
60000,note_on,0,0,0,,,,,,,,,14,,59,100
60000,note_on,0,0,0,,,,,,,,,15,,71,100
60000,note_on,0,0,0,,,,,,,,,15,,68,100
60000,note_on,0,0,0,,,,,,,,,15,,64,100
60000,note_on,0,0,0,,,,,,,,,15,,59,100
60090,note_on,90,0,0,,,,,,,,,13,,80,0
60090,note_on,0,0,0,,,,,,,,,5,,80,0
60090,note_on,0,0,0,,,,,,,,,0,,80,0
60105,note_on,15,0,0,,,,,,,,,7,,71,0
60105,note_on,0,0,0,,,,,,,,,6,,76,0
60105,note_on,0,0,0,,,,,,,,,0,,59,0
60105,note_on,0,0,0,,,,,,,,,10,,47,0
60105,note_on,0,0,0,,,,,,,,,14,,59,0
60105,note_on,0,0,0,,,,,,,,,8,,59,0
60105,note_on,0,0,0,,,,,,,,,13,,76,0
60105,note_on,0,0,0,,,,,,,,,15,,59,0
60120,note_on,15,0,0,,,,,,,,,15,,71,0
60120,note_on,0,0,0,,,,,,,,,15,,68,0
60120,note_on,0,0,0,,,,,,,,,15,,64,0
60120,note_on,0,0,0,,,,,,,,,0,,80,100
60120,note_on,0,0,0,,,,,,,,,0,,47,100
60120,note_on,0,0,0,,,,,,,,,5,,80,100
60120,note_on,0,0,0,,,,,,,,,6,,75,100
60120,note_on,0,0,0,,,,,,,,,7,,69,100
60120,note_on,0,0,0,,,,,,,,,8,,47,100
60120,note_on,0,0,0,,,,,,,,,10,,35,100
60120,note_on,0,0,0,,,,,,,,,13,,80,100
60120,note_on,0,0,0,,,,,,,,,13,,75,100
60120,note_on,0,0,0,,,,,,,,,14,,47,100
60120,note_on,0,0,0,,,,,,,,,15,,69,100
60120,note_on,0,0,0,,,,,,,,,15,,66,100
60120,note_on,0,0,0,,,,,,,,,15,,63,100
60120,note_on,0,0,0,,,,,,,,,15,,47,100
60135,note_on,15,0,0,,,,,,,,,13,,80,0
60135,note_on,0,0,0,,,,,,,,,5,,80,0
60135,note_on,0,0,0,,,,,,,,,0,,80,0
60135,note_on,0,0,0,,,,,,,,,0,,78,100
60135,note_on,0,0,0,,,,,,,,,5,,78,100
60135,note_on,0,0,0,,,,,,,,,13,,78,100
60150,note_on,15,0,0,,,,,,,,,13,,78,0
60150,note_on,0,0,0,,,,,,,,,5,,78,0
60150,note_on,0,0,0,,,,,,,,,0,,78,0
60150,note_on,0,0,0,,,,,,,,,0,,80,100
60150,note_on,0,0,0,,,,,,,,,5,,80,100
60150,note_on,0,0,0,,,,,,,,,13,,80,100
60165,note_on,15,0,0,,,,,,,,,13,,80,0
60165,note_on,0,0,0,,,,,,,,,5,,80,0
60165,note_on,0,0,0,,,,,,,,,0,,80,0
60165,note_on,0,0,0,,,,,,,,,0,,78,100
60165,note_on,0,0,0,,,,,,,,,5,,78,100
60165,note_on,0,0,0,,,,,,,,,13,,78,100
60180,note_on,15,0,0,,,,,,,,,13,,78,0
60180,note_on,0,0,0,,,,,,,,,5,,78,0
60180,note_on,0,0,0,,,,,,,,,0,,78,0
60180,note_on,0,0,0,,,,,,,,,0,,80,100
60180,note_on,0,0,0,,,,,,,,,5,,80,100
60180,note_on,0,0,0,,,,,,,,,13,,80,100
60195,note_on,15,0,0,,,,,,,,,13,,80,0
60195,note_on,0,0,0,,,,,,,,,5,,80,0
60195,note_on,0,0,0,,,,,,,,,0,,80,0
60195,note_on,0,0,0,,,,,,,,,0,,78,100
60195,note_on,0,0,0,,,,,,,,,5,,78,100
60195,note_on,0,0,0,,,,,,,,,13,,78,100
60210,note_on,15,0,0,,,,,,,,,13,,78,0
60210,note_on,0,0,0,,,,,,,,,5,,78,0
60210,note_on,0,0,0,,,,,,,,,13,,75,0
60210,note_on,0,0,0,,,,,,,,,6,,75,0
60210,note_on,0,0,0,,,,,,,,,7,,69,0
60210,note_on,0,0,0,,,,,,,,,0,,78,0
60210,note_on,0,0,0,,,,,,,,,0,,76,100
60210,note_on,0,0,0,,,,,,,,,5,,76,100
60210,note_on,0,0,0,,,,,,,,,13,,76,100
60225,note_on,15,0,0,,,,,,,,,13,,76,0
60225,note_on,0,0,0,,,,,,,,,10,,35,0
60225,note_on,0,0,0,,,,,,,,,14,,47,0
60225,note_on,0,0,0,,,,,,,,,0,,47,0
60225,note_on,0,0,0,,,,,,,,,5,,76,0
60225,note_on,0,0,0,,,,,,,,,8,,47,0
60225,note_on,0,0,0,,,,,,,,,0,,76,0
60225,note_on,0,0,0,,,,,,,,,15,,47,0
60240,note_on,15,0,0,,,,,,,,,15,,66,0
60240,note_on,0,0,0,,,,,,,,,15,,69,0
60240,note_on,0,0,0,,,,,,,,,15,,63,0
60240,note_on,0,0,0,,,,,,,,,0,,76,100
60240,note_on,0,0,0,,,,,,,,,0,,52,100
60240,note_on,0,0,0,,,,,,,,,5,,76,100
60240,note_on,0,0,0,,,,,,,,,6,,76,100
60240,note_on,0,0,0,,,,,,,,,7,,68,100
60240,note_on,0,0,0,,,,,,,,,8,,52,100
60240,note_on,0,0,0,,,,,,,,,10,,40,100
60240,note_on,0,0,0,,,,,,,,,13,,76,100
60240,note_on,0,0,0,,,,,,,,,13,,76,100
60240,note_on,0,0,0,,,,,,,,,14,,52,100
60240,note_on,0,0,0,,,,,,,,,15,,64,100
60240,note_on,0,0,0,,,,,,,,,15,,68,100
60240,note_on,0,0,0,,,,,,,,,15,,71,100
60240,note_on,0,0,0,,,,,,,,,15,,52,100
60270,note_on,30,0,0,,,,,,,,,0,,76,0
60300,note_on,30,0,0,,,,,,,,,0,,64,100
60330,note_on,30,0,0,,,,,,,,,0,,64,0
60345,note_on,15,0,0,,,,,,,,,10,,40,0
60345,note_on,0,0,0,,,,,,,,,14,,52,0
60345,note_on,0,0,0,,,,,,,,,13,,76,0
60345,note_on,0,0,0,,,,,,,,,0,,52,0
60345,note_on,0,0,0,,,,,,,,,6,,76,0
60345,note_on,0,0,0,,,,,,,,,7,,68,0
60345,note_on,0,0,0,,,,,,,,,13,,76,0
60345,note_on,0,0,0,,,,,,,,,15,,52,0
60345,note_on,0,0,0,,,,,,,,,5,,76,0
60345,note_on,0,0,0,,,,,,,,,8,,52,0
60360,note_on,15,0,0,,,,,,,,,15,,64,0
60360,note_on,0,0,0,,,,,,,,,15,,68,0
60360,note_on,0,0,0,,,,,,,,,15,,71,0
60360,note_on,0,0,0,,,,,,,,,0,,66,100
60390,note_on,30,0,0,,,,,,,,,0,,66,0
60420,note_on,30,0,0,,,,,,,,,0,,64,100
60420,note_on,0,0,0,,,,,,,,,0,,68,100
60450,note_on,30,0,0,,,,,,,,,0,,68,0
60450,note_on,0,0,0,,,,,,,,,0,,64,0
60480,note_on,30,0,0,,,,,,,,,0,,54,100
60480,note_on,0,0,0,,,,,,,,,0,,69,100
60510,note_on,30,0,0,,,,,,,,,0,,69,0
60510,note_on,0,0,0,,,,,,,,,0,,71,100
60540,note_on,30,0,0,,,,,,,,,0,,71,0
60540,note_on,0,0,0,,,,,,,,,0,,69,100
60570,note_on,30,0,0,,,,,,,,,0,,69,0
60570,note_on,0,0,0,,,,,,,,,0,,54,0
60600,note_on,30,0,0,,,,,,,,,0,,51,100
60600,note_on,0,0,0,,,,,,,,,0,,59,100
60630,note_on,30,0,0,,,,,,,,,0,,59,0
60660,note_on,30,0,0,,,,,,,,,0,,69,100
60690,note_on,30,0,0,,,,,,,,,0,,69,0
60690,note_on,0,0,0,,,,,,,,,0,,51,0
60720,note_on,30,0,0,,,,,,,,,0,,52,100
60720,note_on,0,0,0,,,,,,,,,0,,68,100
60750,note_on,30,0,0,,,,,,,,,0,,68,0
60750,note_on,0,0,0,,,,,,,,,0,,69,100
60780,note_on,30,0,0,,,,,,,,,0,,69,0
60780,note_on,0,0,0,,,,,,,,,0,,68,100
60810,note_on,30,0,0,,,,,,,,,0,,68,0
60810,note_on,0,0,0,,,,,,,,,0,,52,0
60840,note_on,30,0,0,,,,,,,,,0,,44,100
60840,note_on,0,0,0,,,,,,,,,0,,59,100
60870,note_on,30,0,0,,,,,,,,,0,,59,0
60900,note_on,30,0,0,,,,,,,,,0,,68,100
60930,note_on,30,0,0,,,,,,,,,0,,68,0
60930,note_on,0,0,0,,,,,,,,,0,,44,0
60960,note_on,30,0,0,,,,,,,,,0,,68,100
60960,note_on,0,0,0,,,,,,,,,0,,45,100
60975,note_on,15,0,0,,,,,,,,,0,,68,0
60975,note_on,0,0,0,,,,,,,,,0,,66,100
60990,note_on,15,0,0,,,,,,,,,0,,66,0
60990,note_on,0,0,0,,,,,,,,,0,,68,100
61005,note_on,15,0,0,,,,,,,,,0,,68,0
61005,note_on,0,0,0,,,,,,,,,0,,66,100
61020,note_on,15,0,0,,,,,,,,,0,,66,0
61020,note_on,0,0,0,,,,,,,,,0,,64,100
61050,note_on,30,0,0,,,,,,,,,0,,64,0
61050,note_on,0,0,0,,,,,,,,,0,,45,0
61080,note_on,30,0,0,,,,,,,,,0,,59,100
61080,note_on,0,0,0,,,,,,,,,0,,47,100
61110,note_on,30,0,0,,,,,,,,,0,,59,0
61140,note_on,30,0,0,,,,,,,,,0,,63,100
61170,note_on,30,0,0,,,,,,,,,0,,63,0
61170,note_on,0,0,0,,,,,,,,,0,,47,0
61200,note_on,30,0,0,,,,,,,,,0,,64,100
61200,note_on,0,0,0,,,,,,,,,0,,44,100
61230,note_on,30,0,0,,,,,,,,,0,,64,0
61260,note_on,30,0,0,,,,,,,,,0,,44,0
61260,note_on,0,0,0,,,,,,,,,1,,64,100
61290,note_on,30,0,0,,,,,,,,,1,,64,0
61320,note_on,30,0,0,,,,,,,,,1,,66,100
61350,note_on,30,0,0,,,,,,,,,1,,66,0
61380,note_on,30,0,0,,,,,,,,,1,,68,100
61380,note_on,0,0,0,,,,,,,,,1,,52,100
61410,note_on,30,0,0,,,,,,,,,1,,52,0
61410,note_on,0,0,0,,,,,,,,,1,,68,0
61440,note_on,30,0,0,,,,,,,,,1,,42,100
61440,note_on,0,0,0,,,,,,,,,1,,69,100
61470,note_on,30,0,0,,,,,,,,,1,,69,0
61470,note_on,0,0,0,,,,,,,,,1,,71,100
61500,note_on,30,0,0,,,,,,,,,1,,71,0
61500,note_on,0,0,0,,,,,,,,,1,,69,100
61530,note_on,30,0,0,,,,,,,,,1,,69,0
61545,note_on,15,0,0,,,,,,,,,1,,42,0
61560,note_on,15,0,0,,,,,,,,,1,,51,100
61560,note_on,0,0,0,,,,,,,,,1,,59,100
61590,note_on,30,0,0,,,,,,,,,1,,59,0
61620,note_on,30,0,0,,,,,,,,,1,,69,100
61650,note_on,30,0,0,,,,,,,,,1,,69,0
61665,note_on,15,0,0,,,,,,,,,1,,51,0
61680,note_on,15,0,0,,,,,,,,,1,,52,100
61680,note_on,0,0,0,,,,,,,,,1,,68,100
61710,note_on,30,0,0,,,,,,,,,1,,68,0
61710,note_on,0,0,0,,,,,,,,,1,,69,100
61740,note_on,30,0,0,,,,,,,,,1,,69,0
61740,note_on,0,0,0,,,,,,,,,1,,68,100
61770,note_on,30,0,0,,,,,,,,,1,,68,0
61785,note_on,15,0,0,,,,,,,,,1,,52,0
61800,note_on,15,0,0,,,,,,,,,1,,44,100
61800,note_on,0,0,0,,,,,,,,,1,,59,100
61830,note_on,30,0,0,,,,,,,,,1,,59,0
61860,note_on,30,0,0,,,,,,,,,1,,68,100
61890,note_on,30,0,0,,,,,,,,,1,,68,0
61905,note_on,15,0,0,,,,,,,,,1,,44,0
61920,note_on,15,0,0,,,,,,,,,1,,45,100
61920,note_on,0,0,0,,,,,,,,,1,,68,100
61935,note_on,15,0,0,,,,,,,,,1,,68,0
61935,note_on,0,0,0,,,,,,,,,1,,66,100
61950,note_on,15,0,0,,,,,,,,,1,,66,0
61950,note_on,0,0,0,,,,,,,,,1,,68,100
61965,note_on,15,0,0,,,,,,,,,1,,68,0
61965,note_on,0,0,0,,,,,,,,,1,,66,100
61980,note_on,15,0,0,,,,,,,,,1,,66,0
61980,note_on,0,0,0,,,,,,,,,1,,64,100
62010,note_on,30,0,0,,,,,,,,,1,,64,0
62025,note_on,15,0,0,,,,,,,,,1,,45,0
62040,note_on,15,0,0,,,,,,,,,1,,47,100
62040,note_on,0,0,0,,,,,,,,,1,,59,100
62070,note_on,30,0,0,,,,,,,,,1,,59,0
62100,note_on,30,0,0,,,,,,,,,1,,64,100
62115,note_on,15,0,0,,,,,,,,,1,,64,0
62115,note_on,0,0,0,,,,,,,,,1,,63,100
62130,note_on,15,0,0,,,,,,,,,1,,63,0
62130,note_on,0,0,0,,,,,,,,,1,,61,100
62145,note_on,15,0,0,,,,,,,,,1,,61,0
62145,note_on,0,0,0,,,,,,,,,1,,47,0
62145,note_on,0,0,0,,,,,,,,,1,,63,100
62160,note_on,15,0,0,,,,,,,,,1,,63,0
62160,note_on,0,0,0,,,,,,,,,1,,40,100
62160,note_on,0,0,0,,,,,,,,,1,,64,100
62190,note_on,30,0,0,,,,,,,,,1,,64,0
62220,note_on,30,0,0,,,,,,,,,0,,76,100
62250,note_on,30,0,0,,,,,,,,,0,,76,0
62265,note_on,15,0,0,,,,,,,,,1,,40,0
62280,note_on,15,0,0,,,,,,,,,0,,61,100
62280,note_on,0,0,0,,,,,,,,,0,,78,100
62295,note_on,15,0,0,,,,,,,,,0,,78,0
62295,note_on,0,0,0,,,,,,,,,0,,76,100
62310,note_on,15,0,0,,,,,,,,,0,,76,0
62310,note_on,0,0,0,,,,,,,,,0,,78,100
62325,note_on,15,0,0,,,,,,,,,0,,78,0
62325,note_on,0,0,0,,,,,,,,,0,,76,100
62340,note_on,15,0,0,,,,,,,,,0,,76,0
62340,note_on,0,0,0,,,,,,,,,0,,78,100
62355,note_on,15,0,0,,,,,,,,,0,,78,0
62355,note_on,0,0,0,,,,,,,,,0,,76,100
62370,note_on,15,0,0,,,,,,,,,0,,76,0
62370,note_on,0,0,0,,,,,,,,,0,,61,0
62370,note_on,0,0,0,,,,,,,,,0,,75,100
62385,note_on,15,0,0,,,,,,,,,0,,75,0
62385,note_on,0,0,0,,,,,,,,,0,,76,100
62400,note_on,15,0,0,,,,,,,,,0,,76,0
62400,note_on,0,0,0,,,,,,,,,0,,62,100
62400,note_on,0,0,0,,,,,,,,,0,,78,100
62430,note_on,30,0,0,,,,,,,,,0,,78,0
62460,note_on,30,0,0,,,,,,,,,0,,73,100
62490,note_on,30,0,0,,,,,,,,,0,,73,0
62490,note_on,0,0,0,,,,,,,,,0,,62,0
62490,note_on,0,0,0,,,,,,,,,0,,74,100
62520,note_on,30,0,0,,,,,,,,,0,,74,0
62520,note_on,0,0,0,,,,,,,,,0,,59,100
62520,note_on,0,0,0,,,,,,,,,0,,76,100
62535,note_on,15,0,0,,,,,,,,,0,,76,0
62535,note_on,0,0,0,,,,,,,,,0,,74,100
62550,note_on,15,0,0,,,,,,,,,0,,74,0
62550,note_on,0,0,0,,,,,,,,,0,,76,100
62565,note_on,15,0,0,,,,,,,,,0,,76,0
62565,note_on,0,0,0,,,,,,,,,0,,74,100
62580,note_on,15,0,0,,,,,,,,,0,,74,0
62580,note_on,0,0,0,,,,,,,,,0,,76,100
62595,note_on,15,0,0,,,,,,,,,0,,76,0
62595,note_on,0,0,0,,,,,,,,,0,,74,100
62610,note_on,15,0,0,,,,,,,,,0,,74,0
62610,note_on,0,0,0,,,,,,,,,0,,59,0
62610,note_on,0,0,0,,,,,,,,,0,,73,100
62625,note_on,15,0,0,,,,,,,,,0,,73,0
62625,note_on,0,0,0,,,,,,,,,0,,74,100
62640,note_on,15,0,0,,,,,,,,,0,,74,0
62640,note_on,0,0,0,,,,,,,,,0,,61,100
62640,note_on,0,0,0,,,,,,,,,0,,76,100
62670,note_on,30,0,0,,,,,,,,,0,,76,0
62700,note_on,30,0,0,,,,,,,,,0,,71,100
62730,note_on,30,0,0,,,,,,,,,0,,71,0
62730,note_on,0,0,0,,,,,,,,,0,,61,0
62730,note_on,0,0,0,,,,,,,,,0,,73,100
62760,note_on,30,0,0,,,,,,,,,0,,73,0
62760,note_on,0,0,0,,,,,,,,,0,,57,100
62760,note_on,0,0,0,,,,,,,,,0,,74,100
62775,note_on,15,0,0,,,,,,,,,0,,74,0
62775,note_on,0,0,0,,,,,,,,,0,,73,100
62790,note_on,15,0,0,,,,,,,,,0,,73,0
62790,note_on,0,0,0,,,,,,,,,0,,74,100
62805,note_on,15,0,0,,,,,,,,,0,,74,0
62805,note_on,0,0,0,,,,,,,,,0,,73,100
62820,note_on,15,0,0,,,,,,,,,0,,73,0
62820,note_on,0,0,0,,,,,,,,,0,,74,100
62835,note_on,15,0,0,,,,,,,,,0,,74,0
62835,note_on,0,0,0,,,,,,,,,0,,73,100
62850,note_on,15,0,0,,,,,,,,,0,,73,0
62850,note_on,0,0,0,,,,,,,,,0,,57,0
62850,note_on,0,0,0,,,,,,,,,0,,71,100
62865,note_on,15,0,0,,,,,,,,,0,,71,0
62865,note_on,0,0,0,,,,,,,,,0,,73,100
62880,note_on,15,0,0,,,,,,,,,0,,73,0
62880,note_on,0,0,0,,,,,,,,,0,,59,100
62880,note_on,0,0,0,,,,,,,,,0,,74,100
62910,note_on,30,0,0,,,,,,,,,0,,74,0
62940,note_on,30,0,0,,,,,,,,,0,,69,100
62970,note_on,30,0,0,,,,,,,,,0,,69,0
62970,note_on,0,0,0,,,,,,,,,0,,59,0
62970,note_on,0,0,0,,,,,,,,,0,,71,100
63000,note_on,30,0,0,,,,,,,,,0,,71,0
63000,note_on,0,0,0,,,,,,,,,0,,56,100
63000,note_on,0,0,0,,,,,,,,,0,,73,100
63015,note_on,15,0,0,,,,,,,,,0,,73,0
63015,note_on,0,0,0,,,,,,,,,0,,71,100
63030,note_on,15,0,0,,,,,,,,,0,,71,0
63030,note_on,0,0,0,,,,,,,,,0,,73,100
63045,note_on,15,0,0,,,,,,,,,0,,73,0
63045,note_on,0,0,0,,,,,,,,,0,,71,100
63060,note_on,15,0,0,,,,,,,,,0,,71,0
63060,note_on,0,0,0,,,,,,,,,0,,73,100
63075,note_on,15,0,0,,,,,,,,,0,,73,0
63075,note_on,0,0,0,,,,,,,,,0,,71,100
63090,note_on,15,0,0,,,,,,,,,0,,71,0
63090,note_on,0,0,0,,,,,,,,,0,,56,0
63090,note_on,0,0,0,,,,,,,,,0,,69,100
63105,note_on,15,0,0,,,,,,,,,0,,69,0
63105,note_on,0,0,0,,,,,,,,,0,,71,100
63120,note_on,15,0,0,,,,,,,,,0,,71,0
63120,note_on,0,0,0,,,,,,,,,0,,57,100
63120,note_on,0,0,0,,,,,,,,,0,,73,100
63150,note_on,30,0,0,,,,,,,,,0,,73,0
63180,note_on,30,0,0,,,,,,,,,0,,57,0
63180,note_on,0,0,0,,,,,,,,,1,,76,100
63210,note_on,30,0,0,,,,,,,,,1,,76,0
63240,note_on,30,0,0,,,,,,,,,1,,61,100
63240,note_on,0,0,0,,,,,,,,,1,,78,100
63255,note_on,15,0,0,,,,,,,,,1,,78,0
63255,note_on,0,0,0,,,,,,,,,1,,76,100
63270,note_on,15,0,0,,,,,,,,,1,,76,0
63270,note_on,0,0,0,,,,,,,,,1,,78,100
63285,note_on,15,0,0,,,,,,,,,1,,78,0
63285,note_on,0,0,0,,,,,,,,,1,,76,100
63300,note_on,15,0,0,,,,,,,,,1,,76,0
63300,note_on,0,0,0,,,,,,,,,1,,78,100
63315,note_on,15,0,0,,,,,,,,,1,,78,0
63315,note_on,0,0,0,,,,,,,,,1,,76,100
63330,note_on,15,0,0,,,,,,,,,1,,76,0
63330,note_on,0,0,0,,,,,,,,,1,,61,0
63330,note_on,0,0,0,,,,,,,,,1,,75,100
63345,note_on,15,0,0,,,,,,,,,1,,75,0
63345,note_on,0,0,0,,,,,,,,,1,,76,100
63360,note_on,15,0,0,,,,,,,,,1,,76,0
63360,note_on,0,0,0,,,,,,,,,1,,62,100
63360,note_on,0,0,0,,,,,,,,,1,,78,100
63390,note_on,30,0,0,,,,,,,,,1,,78,0
63420,note_on,30,0,0,,,,,,,,,1,,73,100
63450,note_on,30,0,0,,,,,,,,,1,,73,0
63450,note_on,0,0,0,,,,,,,,,1,,62,0
63450,note_on,0,0,0,,,,,,,,,1,,74,100
63480,note_on,30,0,0,,,,,,,,,1,,74,0
63480,note_on,0,0,0,,,,,,,,,1,,59,100
63480,note_on,0,0,0,,,,,,,,,1,,76,100
63495,note_on,15,0,0,,,,,,,,,1,,76,0
63495,note_on,0,0,0,,,,,,,,,1,,74,100
63510,note_on,15,0,0,,,,,,,,,1,,74,0
63510,note_on,0,0,0,,,,,,,,,1,,76,100
63525,note_on,15,0,0,,,,,,,,,1,,76,0
63525,note_on,0,0,0,,,,,,,,,1,,74,100
63540,note_on,15,0,0,,,,,,,,,1,,74,0
63540,note_on,0,0,0,,,,,,,,,1,,76,100
63555,note_on,15,0,0,,,,,,,,,1,,76,0
63555,note_on,0,0,0,,,,,,,,,1,,74,100
63570,note_on,15,0,0,,,,,,,,,1,,74,0
63570,note_on,0,0,0,,,,,,,,,1,,59,0
63570,note_on,0,0,0,,,,,,,,,1,,73,100
63585,note_on,15,0,0,,,,,,,,,1,,73,0
63585,note_on,0,0,0,,,,,,,,,1,,74,100
63600,note_on,15,0,0,,,,,,,,,1,,74,0
63600,note_on,0,0,0,,,,,,,,,1,,61,100
63600,note_on,0,0,0,,,,,,,,,1,,76,100
63630,note_on,30,0,0,,,,,,,,,1,,76,0
63660,note_on,30,0,0,,,,,,,,,1,,71,100
63690,note_on,30,0,0,,,,,,,,,1,,71,0
63690,note_on,0,0,0,,,,,,,,,1,,61,0
63690,note_on,0,0,0,,,,,,,,,1,,73,100
63720,note_on,30,0,0,,,,,,,,,1,,73,0
63720,note_on,0,0,0,,,,,,,,,1,,57,100
63720,note_on,0,0,0,,,,,,,,,1,,74,100
63735,note_on,15,0,0,,,,,,,,,1,,74,0
63735,note_on,0,0,0,,,,,,,,,1,,73,100
63750,note_on,15,0,0,,,,,,,,,1,,73,0
63750,note_on,0,0,0,,,,,,,,,1,,74,100
63765,note_on,15,0,0,,,,,,,,,1,,74,0
63765,note_on,0,0,0,,,,,,,,,1,,73,100
63780,note_on,15,0,0,,,,,,,,,1,,73,0
63780,note_on,0,0,0,,,,,,,,,1,,74,100
63795,note_on,15,0,0,,,,,,,,,1,,74,0
63795,note_on,0,0,0,,,,,,,,,1,,73,100
63810,note_on,15,0,0,,,,,,,,,1,,73,0
63810,note_on,0,0,0,,,,,,,,,1,,57,0
63810,note_on,0,0,0,,,,,,,,,1,,71,100
63825,note_on,15,0,0,,,,,,,,,1,,71,0
63825,note_on,0,0,0,,,,,,,,,1,,73,100
63840,note_on,15,0,0,,,,,,,,,1,,73,0
63840,note_on,0,0,0,,,,,,,,,1,,59,100
63840,note_on,0,0,0,,,,,,,,,1,,74,100
63870,note_on,30,0,0,,,,,,,,,1,,74,0
63900,note_on,30,0,0,,,,,,,,,1,,69,100
63930,note_on,30,0,0,,,,,,,,,1,,69,0
63930,note_on,0,0,0,,,,,,,,,1,,59,0
63930,note_on,0,0,0,,,,,,,,,1,,71,100
63960,note_on,30,0,0,,,,,,,,,1,,71,0
63960,note_on,0,0,0,,,,,,,,,1,,56,100
63960,note_on,0,0,0,,,,,,,,,1,,73,100
63975,note_on,15,0,0,,,,,,,,,1,,73,0
63975,note_on,0,0,0,,,,,,,,,1,,71,100
63990,note_on,15,0,0,,,,,,,,,1,,71,0
63990,note_on,0,0,0,,,,,,,,,1,,73,100
64005,note_on,15,0,0,,,,,,,,,1,,73,0
64005,note_on,0,0,0,,,,,,,,,1,,71,100
64020,note_on,15,0,0,,,,,,,,,1,,71,0
64020,note_on,0,0,0,,,,,,,,,1,,73,100
64035,note_on,15,0,0,,,,,,,,,1,,73,0
64035,note_on,0,0,0,,,,,,,,,1,,71,100
64050,note_on,15,0,0,,,,,,,,,1,,71,0
64050,note_on,0,0,0,,,,,,,,,1,,56,0
64050,note_on,0,0,0,,,,,,,,,1,,69,100
64065,note_on,15,0,0,,,,,,,,,1,,69,0
64065,note_on,0,0,0,,,,,,,,,1,,71,100
64080,note_on,15,0,0,,,,,,,,,1,,71,0
64080,note_on,0,0,0,,,,,,,,,1,,57,100
64080,note_on,0,0,0,,,,,,,,,1,,73,100
64110,note_on,30,0,0,,,,,,,,,1,,73,0
64110,note_on,0,0,0,,,,,,,,,1,,76,100
64140,note_on,30,0,0,,,,,,,,,1,,76,0
64140,note_on,0,0,0,,,,,,,,,1,,74,100
64170,note_on,30,0,0,,,,,,,,,1,,74,0
64170,note_on,0,0,0,,,,,,,,,1,,57,0
64170,note_on,0,0,0,,,,,,,,,1,,73,100
64200,note_on,30,0,0,,,,,,,,,1,,73,0
64200,note_on,0,0,0,,,,,,,,,1,,71,100
64230,note_on,30,0,0,,,,,,,,,1,,71,0
64230,note_on,0,0,0,,,,,,,,,1,,69,100
64260,note_on,30,0,0,,,,,,,,,1,,69,0
64260,note_on,0,0,0,,,,,,,,,1,,68,100
64290,note_on,30,0,0,,,,,,,,,1,,68,0
64290,note_on,0,0,0,,,,,,,,,1,,66,100
64320,note_on,30,0,0,,,,,,,,,1,,66,0
64320,note_on,0,0,0,,,,,,,,,1,,64,100
64350,note_on,30,0,0,,,,,,,,,1,,64,0
64350,note_on,0,0,0,,,,,,,,,1,,76,100
64380,note_on,30,0,0,,,,,,,,,1,,76,0
64380,note_on,0,0,0,,,,,,,,,1,,74,100
64410,note_on,30,0,0,,,,,,,,,1,,74,0
64410,note_on,0,0,0,,,,,,,,,1,,76,100
64440,note_on,30,0,0,,,,,,,,,1,,76,0
64440,note_on,0,0,0,,,,,,,,,1,,71,100
64470,note_on,30,0,0,,,,,,,,,1,,71,0
64470,note_on,0,0,0,,,,,,,,,1,,74,100
64500,note_on,30,0,0,,,,,,,,,1,,74,0
64500,note_on,0,0,0,,,,,,,,,1,,73,100
64530,note_on,30,0,0,,,,,,,,,1,,73,0
64530,note_on,0,0,0,,,,,,,,,1,,71,100
64560,note_on,30,0,0,,,,,,,,,1,,71,0
64560,note_on,0,0,0,,,,,,,,,1,,64,100
64560,note_on,0,0,0,,,,,,,,,1,,69,100
64560,note_on,0,0,0,,,,,,,,,1,,73,100
64590,note_on,30,0,0,,,,,,,,,0,,45,100
64620,note_on,30,0,0,,,,,,,,,0,,45,0
64620,note_on,0,0,0,,,,,,,,,0,,47,100
64635,note_on,15,0,0,,,,,,,,,1,,64,0
64635,note_on,0,0,0,,,,,,,,,1,,73,0
64635,note_on,0,0,0,,,,,,,,,1,,69,0
64650,note_on,15,0,0,,,,,,,,,0,,47,0
64650,note_on,0,0,0,,,,,,,,,0,,49,100
64680,note_on,30,0,0,,,,,,,,,0,,49,0
64680,note_on,0,0,0,,,,,,,,,0,,50,100
64710,note_on,30,0,0,,,,,,,,,0,,50,0
64710,note_on,0,0,0,,,,,,,,,0,,52,100
64740,note_on,30,0,0,,,,,,,,,0,,52,0
64740,note_on,0,0,0,,,,,,,,,0,,54,100
64770,note_on,30,0,0,,,,,,,,,0,,54,0
64770,note_on,0,0,0,,,,,,,,,0,,56,100
64790,note_on,20,0,0,,,,,,,,,0,,56,0
64800,note_on,10,0,0,,,,,,,,,0,,57,100
64820,note_on,20,0,0,,,,,,,,,0,,57,0
64830,note_on,10,0,0,,,,,,,,,0,,52,100
64850,note_on,20,0,0,,,,,,,,,0,,52,0
64860,note_on,10,0,0,,,,,,,,,0,,49,100
64880,note_on,20,0,0,,,,,,,,,0,,49,0
64890,note_on,10,0,0,,,,,,,,,0,,52,100
64910,note_on,20,0,0,,,,,,,,,0,,52,0
64920,note_on,10,0,0,,,,,,,,,0,,45,100
64940,note_on,20,0,0,,,,,,,,,0,,45,0
64950,note_on,10,0,0,,,,,,,,,0,,49,100
64980,note_on,30,0,0,,,,,,,,,0,,49,0
64980,note_on,0,0,0,,,,,,,,,0,,47,100
65010,note_on,30,0,0,,,,,,,,,0,,47,0
65010,note_on,0,0,0,,,,,,,,,0,,45,100
65030,note_on,20,0,0,,,,,,,,,0,,45,0
65040,note_on,10,0,0,,,,,,,,,0,,52,100
65070,note_on,30,0,0,,,,,,,,,0,,64,100
65100,note_on,30,0,0,,,,,,,,,0,,64,0
65100,note_on,0,0,0,,,,,,,,,0,,66,100
65115,note_on,15,0,0,,,,,,,,,0,,52,0
65130,note_on,15,0,0,,,,,,,,,0,,66,0
65130,note_on,0,0,0,,,,,,,,,0,,68,100
65160,note_on,30,0,0,,,,,,,,,0,,68,0
65160,note_on,0,0,0,,,,,,,,,0,,69,100
65190,note_on,30,0,0,,,,,,,,,0,,69,0
65190,note_on,0,0,0,,,,,,,,,0,,71,100
65220,note_on,30,0,0,,,,,,,,,0,,71,0
65220,note_on,0,0,0,,,,,,,,,0,,73,100
65250,note_on,30,0,0,,,,,,,,,0,,73,0
65250,note_on,0,0,0,,,,,,,,,0,,74,100
65270,note_on,20,0,0,,,,,,,,,0,,74,0
65280,note_on,10,0,0,,,,,,,,,0,,76,100
65300,note_on,20,0,0,,,,,,,,,0,,76,0
65310,note_on,10,0,0,,,,,,,,,0,,71,100
65330,note_on,20,0,0,,,,,,,,,0,,71,0
65340,note_on,10,0,0,,,,,,,,,0,,68,100
65360,note_on,20,0,0,,,,,,,,,0,,68,0
65370,note_on,10,0,0,,,,,,,,,0,,71,100
65390,note_on,20,0,0,,,,,,,,,0,,71,0
65400,note_on,10,0,0,,,,,,,,,0,,64,100
65430,note_on,30,0,0,,,,,,,,,0,,64,0
65430,note_on,0,0,0,,,,,,,,,0,,74,100
65460,note_on,30,0,0,,,,,,,,,0,,74,0
65460,note_on,0,0,0,,,,,,,,,0,,56,100
65460,note_on,0,0,0,,,,,,,,,0,,73,100
65490,note_on,30,0,0,,,,,,,,,0,,73,0
65490,note_on,0,0,0,,,,,,,,,0,,56,0
65490,note_on,0,0,0,,,,,,,,,0,,71,100
65520,note_on,30,0,0,,,,,,,,,0,,71,0
65520,note_on,0,0,0,,,,,,,,,0,,57,100
65520,note_on,0,0,0,,,,,,,,,0,,73,100
65540,note_on,20,0,0,,,,,,,,,0,,73,0
65550,note_on,10,0,0,,,,,,,,,0,,69,100
65580,note_on,30,0,0,,,,,,,,,0,,69,0
65580,note_on,0,0,0,,,,,,,,,0,,71,100
65595,note_on,15,0,0,,,,,,,,,0,,57,0
65610,note_on,15,0,0,,,,,,,,,0,,71,0
65610,note_on,0,0,0,,,,,,,,,0,,73,100
65640,note_on,30,0,0,,,,,,,,,0,,73,0
65640,note_on,0,0,0,,,,,,,,,0,,74,100
65670,note_on,30,0,0,,,,,,,,,0,,74,0
65670,note_on,0,0,0,,,,,,,,,0,,76,100
65700,note_on,30,0,0,,,,,,,,,0,,76,0
65700,note_on,0,0,0,,,,,,,,,0,,78,100
65730,note_on,30,0,0,,,,,,,,,0,,78,0
65730,note_on,0,0,0,,,,,,,,,0,,80,100
65750,note_on,20,0,0,,,,,,,,,0,,80,0
65760,note_on,10,0,0,,,,,,,,,0,,81,100
65780,note_on,20,0,0,,,,,,,,,0,,81,0
65790,note_on,10,0,0,,,,,,,,,0,,76,100
65810,note_on,20,0,0,,,,,,,,,0,,76,0
65820,note_on,10,0,0,,,,,,,,,0,,73,100
65840,note_on,20,0,0,,,,,,,,,0,,73,0
65850,note_on,10,0,0,,,,,,,,,0,,76,100
65870,note_on,20,0,0,,,,,,,,,0,,76,0
65880,note_on,10,0,0,,,,,,,,,0,,69,100
65900,note_on,20,0,0,,,,,,,,,0,,69,0
65910,note_on,10,0,0,,,,,,,,,0,,79,100
65940,note_on,30,0,0,,,,,,,,,0,,79,0
65940,note_on,0,0,0,,,,,,,,,0,,78,100
65970,note_on,30,0,0,,,,,,,,,0,,78,0
65970,note_on,0,0,0,,,,,,,,,0,,76,100
65990,note_on,20,0,0,,,,,,,,,0,,76,0
66000,note_on,10,0,0,,,,,,,,,0,,69,100
66000,note_on,0,0,0,,,,,,,,,0,,74,100
66000,note_on,0,0,0,,,,,,,,,0,,78,100
66030,note_on,30,0,0,,,,,,,,,0,,38,100
66060,note_on,30,0,0,,,,,,,,,0,,38,0
66060,note_on,0,0,0,,,,,,,,,0,,40,100
66075,note_on,15,0,0,,,,,,,,,0,,69,0
66075,note_on,0,0,0,,,,,,,,,0,,78,0
66075,note_on,0,0,0,,,,,,,,,0,,74,0
66090,note_on,15,0,0,,,,,,,,,0,,40,0
66090,note_on,0,0,0,,,,,,,,,0,,42,100
66120,note_on,30,0,0,,,,,,,,,0,,42,0
66120,note_on,0,0,0,,,,,,,,,0,,43,100
66150,note_on,30,0,0,,,,,,,,,0,,43,0
66150,note_on,0,0,0,,,,,,,,,0,,45,100
66180,note_on,30,0,0,,,,,,,,,0,,45,0
66180,note_on,0,0,0,,,,,,,,,0,,47,100
66210,note_on,30,0,0,,,,,,,,,0,,47,0
66210,note_on,0,0,0,,,,,,,,,0,,49,100
66230,note_on,20,0,0,,,,,,,,,0,,49,0
66240,note_on,10,0,0,,,,,,,,,0,,50,100
66260,note_on,20,0,0,,,,,,,,,0,,50,0
66270,note_on,10,0,0,,,,,,,,,0,,45,100
66290,note_on,20,0,0,,,,,,,,,0,,45,0
66300,note_on,10,0,0,,,,,,,,,0,,42,100
66320,note_on,20,0,0,,,,,,,,,0,,42,0
66330,note_on,10,0,0,,,,,,,,,0,,45,100
66350,note_on,20,0,0,,,,,,,,,0,,45,0
66360,note_on,10,0,0,,,,,,,,,0,,38,100
66380,note_on,20,0,0,,,,,,,,,0,,38,0
66390,note_on,10,0,0,,,,,,,,,0,,42,100
66420,note_on,30,0,0,,,,,,,,,0,,42,0
66420,note_on,0,0,0,,,,,,,,,0,,40,100
66450,note_on,30,0,0,,,,,,,,,0,,40,0
66450,note_on,0,0,0,,,,,,,,,0,,38,100
66470,note_on,20,0,0,,,,,,,,,0,,38,0
66480,note_on,10,0,0,,,,,,,,,0,,45,100
66510,note_on,30,0,0,,,,,,,,,0,,81,100
66540,note_on,30,0,0,,,,,,,,,0,,81,0
66540,note_on,0,0,0,,,,,,,,,0,,79,100
66570,note_on,30,0,0,,,,,,,,,0,,79,0
66570,note_on,0,0,0,,,,,,,,,0,,45,0
66570,note_on,0,0,0,,,,,,,,,0,,78,100
66600,note_on,30,0,0,,,,,,,,,0,,78,0
66600,note_on,0,0,0,,,,,,,,,0,,76,100
66630,note_on,30,0,0,,,,,,,,,0,,76,0
66630,note_on,0,0,0,,,,,,,,,0,,74,100
66660,note_on,30,0,0,,,,,,,,,0,,74,0
66660,note_on,0,0,0,,,,,,,,,0,,73,100
66690,note_on,30,0,0,,,,,,,,,0,,73,0
66690,note_on,0,0,0,,,,,,,,,0,,71,100
66720,note_on,30,0,0,,,,,,,,,0,,71,0
66720,note_on,0,0,0,,,,,,,,,0,,69,100
66740,note_on,20,0,0,,,,,,,,,0,,69,0
66750,note_on,10,0,0,,,,,,,,,0,,81,100
66780,note_on,30,0,0,,,,,,,,,0,,81,0
66780,note_on,0,0,0,,,,,,,,,0,,79,100
66810,note_on,30,0,0,,,,,,,,,0,,79,0
66810,note_on,0,0,0,,,,,,,,,0,,81,100
66830,note_on,20,0,0,,,,,,,,,0,,81,0
66840,note_on,10,0,0,,,,,,,,,0,,76,100
66860,note_on,20,0,0,,,,,,,,,0,,76,0
66870,note_on,10,0,0,,,,,,,,,0,,79,100
66900,note_on,30,0,0,,,,,,,,,0,,79,0
66900,note_on,0,0,0,,,,,,,,,0,,78,100
66930,note_on,30,0,0,,,,,,,,,0,,78,0
66930,note_on,0,0,0,,,,,,,,,0,,76,100
66950,note_on,20,0,0,,,,,,,,,0,,76,0
66960,note_on,10,0,0,,,,,,,,,0,,69,100
66960,note_on,0,0,0,,,,,,,,,0,,74,100
66960,note_on,0,0,0,,,,,,,,,0,,78,100
66990,note_on,30,0,0,,,,,,,,,0,,38,100
67020,note_on,30,0,0,,,,,,,,,0,,38,0
67020,note_on,0,0,0,,,,,,,,,0,,40,100
67035,note_on,15,0,0,,,,,,,,,0,,69,0
67035,note_on,0,0,0,,,,,,,,,0,,78,0
67035,note_on,0,0,0,,,,,,,,,0,,74,0
67050,note_on,15,0,0,,,,,,,,,0,,40,0
67050,note_on,0,0,0,,,,,,,,,0,,42,100
67080,note_on,30,0,0,,,,,,,,,0,,42,0
67080,note_on,0,0,0,,,,,,,,,0,,43,100
67110,note_on,30,0,0,,,,,,,,,0,,43,0
67110,note_on,0,0,0,,,,,,,,,0,,45,100
67140,note_on,30,0,0,,,,,,,,,0,,45,0
67140,note_on,0,0,0,,,,,,,,,0,,47,100
67170,note_on,30,0,0,,,,,,,,,0,,47,0
67170,note_on,0,0,0,,,,,,,,,0,,49,100
67190,note_on,20,0,0,,,,,,,,,0,,49,0
67200,note_on,10,0,0,,,,,,,,,0,,50,100
67220,note_on,20,0,0,,,,,,,,,0,,50,0
67230,note_on,10,0,0,,,,,,,,,0,,45,100
67250,note_on,20,0,0,,,,,,,,,0,,45,0
67260,note_on,10,0,0,,,,,,,,,0,,42,100
67280,note_on,20,0,0,,,,,,,,,0,,42,0
67290,note_on,10,0,0,,,,,,,,,0,,45,100
67310,note_on,20,0,0,,,,,,,,,0,,45,0
67320,note_on,10,0,0,,,,,,,,,0,,38,100
67350,note_on,30,0,0,,,,,,,,,0,,38,0
67350,note_on,0,0,0,,,,,,,,,0,,50,100
67380,note_on,30,0,0,,,,,,,,,0,,50,0
67380,note_on,0,0,0,,,,,,,,,0,,69,100
67380,note_on,0,0,0,,,,,,,,,0,,74,100
67380,note_on,0,0,0,,,,,,,,,0,,48,100
67380,note_on,0,0,0,,,,,,,,,0,,78,100
67410,note_on,30,0,0,,,,,,,,,0,,78,0
67410,note_on,0,0,0,,,,,,,,,0,,69,0
67410,note_on,0,0,0,,,,,,,,,0,,74,0
67410,note_on,0,0,0,,,,,,,,,0,,48,0
67410,note_on,0,0,0,,,,,,,,,0,,50,100
67440,note_on,30,0,0,,,,,,,,,0,,50,0
67440,note_on,0,0,0,,,,,,,,,0,,71,100
67440,note_on,0,0,0,,,,,,,,,0,,74,100
67440,note_on,0,0,0,,,,,,,,,0,,79,100
67440,note_on,0,0,0,,,,,,,,,0,,47,100
67460,note_on,20,0,0,,,,,,,,,0,,47,0
67470,note_on,10,0,0,,,,,,,,,0,,43,100
67485,note_on,15,0,0,,,,,,,,,0,,71,0
67485,note_on,0,0,0,,,,,,,,,0,,79,0
67485,note_on,0,0,0,,,,,,,,,0,,74,0
67500,note_on,15,0,0,,,,,,,,,0,,43,0
67500,note_on,0,0,0,,,,,,,,,0,,45,100
67530,note_on,30,0,0,,,,,,,,,0,,45,0
67530,note_on,0,0,0,,,,,,,,,0,,47,100
67560,note_on,30,0,0,,,,,,,,,0,,47,0
67560,note_on,0,0,0,,,,,,,,,0,,48,100
67590,note_on,30,0,0,,,,,,,,,0,,48,0
67590,note_on,0,0,0,,,,,,,,,0,,50,100
67620,note_on,30,0,0,,,,,,,,,0,,50,0
67620,note_on,0,0,0,,,,,,,,,0,,52,100
67650,note_on,30,0,0,,,,,,,,,0,,52,0
67650,note_on,0,0,0,,,,,,,,,0,,54,100
67670,note_on,20,0,0,,,,,,,,,0,,54,0
67680,note_on,10,0,0,,,,,,,,,0,,55,100
67700,note_on,20,0,0,,,,,,,,,0,,55,0
67710,note_on,10,0,0,,,,,,,,,0,,50,100
67730,note_on,20,0,0,,,,,,,,,0,,50,0
67740,note_on,10,0,0,,,,,,,,,0,,47,100
67760,note_on,20,0,0,,,,,,,,,0,,47,0
67770,note_on,10,0,0,,,,,,,,,0,,50,100
67790,note_on,20,0,0,,,,,,,,,0,,50,0
67800,note_on,10,0,0,,,,,,,,,0,,43,100
67820,note_on,20,0,0,,,,,,,,,0,,43,0
67830,note_on,10,0,0,,,,,,,,,0,,52,100
67860,note_on,30,0,0,,,,,,,,,0,,52,0
67860,note_on,0,0,0,,,,,,,,,0,,71,100
67860,note_on,0,0,0,,,,,,,,,0,,76,100
67860,note_on,0,0,0,,,,,,,,,0,,79,100
67860,note_on,0,0,0,,,,,,,,,0,,50,100
67890,note_on,30,0,0,,,,,,,,,0,,50,0
67890,note_on,0,0,0,,,,,,,,,0,,71,0
67890,note_on,0,0,0,,,,,,,,,0,,76,0
67890,note_on,0,0,0,,,,,,,,,0,,79,0
67890,note_on,0,0,0,,,,,,,,,0,,52,100
67910,note_on,20,0,0,,,,,,,,,0,,52,0
67920,note_on,10,0,0,,,,,,,,,0,,69,100
67920,note_on,0,0,0,,,,,,,,,0,,76,100
67920,note_on,0,0,0,,,,,,,,,0,,81,100
67920,note_on,0,0,0,,,,,,,,,0,,49,100
67940,note_on,20,0,0,,,,,,,,,0,,49,0
67950,note_on,10,0,0,,,,,,,,,0,,45,100
67965,note_on,15,0,0,,,,,,,,,0,,69,0
67965,note_on,0,0,0,,,,,,,,,0,,81,0
67965,note_on,0,0,0,,,,,,,,,0,,76,0
67980,note_on,15,0,0,,,,,,,,,0,,45,0
67980,note_on,0,0,0,,,,,,,,,0,,47,100
68010,note_on,30,0,0,,,,,,,,,0,,47,0
68010,note_on,0,0,0,,,,,,,,,0,,49,100
68040,note_on,30,0,0,,,,,,,,,0,,49,0
68040,note_on,0,0,0,,,,,,,,,0,,50,100
68070,note_on,30,0,0,,,,,,,,,0,,50,0
68070,note_on,0,0,0,,,,,,,,,0,,52,100
68100,note_on,30,0,0,,,,,,,,,0,,52,0
68100,note_on,0,0,0,,,,,,,,,0,,54,100
68130,note_on,30,0,0,,,,,,,,,0,,54,0
68130,note_on,0,0,0,,,,,,,,,0,,55,100
68150,note_on,20,0,0,,,,,,,,,0,,55,0
68160,note_on,10,0,0,,,,,,,,,0,,57,100
68180,note_on,20,0,0,,,,,,,,,0,,57,0
68190,note_on,10,0,0,,,,,,,,,0,,52,100
68210,note_on,20,0,0,,,,,,,,,0,,52,0
68220,note_on,10,0,0,,,,,,,,,0,,49,100
68240,note_on,20,0,0,,,,,,,,,0,,49,0
68250,note_on,10,0,0,,,,,,,,,0,,52,100
68270,note_on,20,0,0,,,,,,,,,0,,52,0
68280,note_on,10,0,0,,,,,,,,,0,,45,100
68300,note_on,20,0,0,,,,,,,,,0,,45,0
68310,note_on,10,0,0,,,,,,,,,0,,57,100
68340,note_on,30,0,0,,,,,,,,,0,,57,0
68340,note_on,0,0,0,,,,,,,,,0,,64,100
68340,note_on,0,0,0,,,,,,,,,0,,69,100
68340,note_on,0,0,0,,,,,,,,,0,,73,100
68340,note_on,0,0,0,,,,,,,,,0,,55,100
68370,note_on,30,0,0,,,,,,,,,0,,55,0
68370,note_on,0,0,0,,,,,,,,,0,,64,0
68370,note_on,0,0,0,,,,,,,,,0,,69,0
68370,note_on,0,0,0,,,,,,,,,0,,73,0
68370,note_on,0,0,0,,,,,,,,,0,,57,100
68390,note_on,20,0,0,,,,,,,,,0,,57,0
68400,note_on,10,0,0,,,,,,,,,0,,74,100
68400,note_on,0,0,0,,,,,,,,,0,,69,100
68400,note_on,0,0,0,,,,,,,,,0,,66,100
68400,note_on,0,0,0,,,,,,,,,0,,54,100
68430,note_on,30,0,0,,,,,,,,,0,,54,0
68430,note_on,0,0,0,,,,,,,,,0,,57,100
68445,note_on,15,0,0,,,,,,,,,0,,74,0
68445,note_on,0,0,0,,,,,,,,,0,,66,0
68445,note_on,0,0,0,,,,,,,,,0,,69,0
68450,note_on,5,0,0,,,,,,,,,0,,57,0
68460,note_on,10,0,0,,,,,,,,,0,,55,100
68490,note_on,30,0,0,,,,,,,,,0,,55,0
68490,note_on,0,0,0,,,,,,,,,0,,57,100
68510,note_on,20,0,0,,,,,,,,,0,,57,0
68520,note_on,10,0,0,,,,,,,,,0,,52,100
68550,note_on,30,0,0,,,,,,,,,0,,52,0
68550,note_on,0,0,0,,,,,,,,,0,,57,100
68570,note_on,20,0,0,,,,,,,,,0,,57,0
68580,note_on,10,0,0,,,,,,,,,0,,55,100
68610,note_on,30,0,0,,,,,,,,,0,,55,0
68610,note_on,0,0,0,,,,,,,,,0,,57,100
68630,note_on,20,0,0,,,,,,,,,0,,57,0
68640,note_on,10,0,0,,,,,,,,,0,,54,100
68670,note_on,30,0,0,,,,,,,,,0,,54,0
68670,note_on,0,0,0,,,,,,,,,0,,57,100
68690,note_on,20,0,0,,,,,,,,,0,,57,0
68700,note_on,10,0,0,,,,,,,,,0,,55,100
68730,note_on,30,0,0,,,,,,,,,0,,55,0
68730,note_on,0,0,0,,,,,,,,,0,,57,100
68750,note_on,20,0,0,,,,,,,,,0,,57,0
68760,note_on,10,0,0,,,,,,,,,0,,69,100
68760,note_on,0,0,0,,,,,,,,,0,,76,100
68760,note_on,0,0,0,,,,,,,,,0,,49,100
68790,note_on,30,0,0,,,,,,,,,0,,49,0
68790,note_on,0,0,0,,,,,,,,,0,,57,100
68805,note_on,15,0,0,,,,,,,,,0,,76,0
68805,note_on,0,0,0,,,,,,,,,0,,69,0
68810,note_on,5,0,0,,,,,,,,,0,,57,0
68820,note_on,10,0,0,,,,,,,,,0,,55,100
68850,note_on,30,0,0,,,,,,,,,0,,55,0
68850,note_on,0,0,0,,,,,,,,,0,,57,100
68870,note_on,20,0,0,,,,,,,,,0,,57,0
68880,note_on,10,0,0,,,,,,,,,0,,69,100
68880,note_on,0,0,0,,,,,,,,,0,,78,100
68880,note_on,0,0,0,,,,,,,,,0,,50,100
68910,note_on,30,0,0,,,,,,,,,0,,50,0
68910,note_on,0,0,0,,,,,,,,,0,,57,100
68925,note_on,15,0,0,,,,,,,,,0,,78,0
68925,note_on,0,0,0,,,,,,,,,0,,69,0
68930,note_on,5,0,0,,,,,,,,,0,,57,0
68940,note_on,10,0,0,,,,,,,,,0,,55,100
68970,note_on,30,0,0,,,,,,,,,0,,55,0
68970,note_on,0,0,0,,,,,,,,,0,,57,100
68990,note_on,20,0,0,,,,,,,,,0,,57,0
69000,note_on,10,0,0,,,,,,,,,0,,67,100
69000,note_on,0,0,0,,,,,,,,,0,,73,100
69000,note_on,0,0,0,,,,,,,,,0,,52,100
69030,note_on,30,0,0,,,,,,,,,0,,52,0
69030,note_on,0,0,0,,,,,,,,,0,,57,100
69045,note_on,15,0,0,,,,,,,,,0,,73,0
69045,note_on,0,0,0,,,,,,,,,0,,67,0
69050,note_on,5,0,0,,,,,,,,,0,,57,0
69060,note_on,10,0,0,,,,,,,,,0,,55,100
69090,note_on,30,0,0,,,,,,,,,0,,55,0
69090,note_on,0,0,0,,,,,,,,,0,,57,100
69110,note_on,20,0,0,,,,,,,,,0,,57,0
69120,note_on,10,0,0,,,,,,,,,0,,74,100
69120,note_on,0,0,0,,,,,,,,,0,,69,100
69120,note_on,0,0,0,,,,,,,,,0,,54,100
69150,note_on,30,0,0,,,,,,,,,0,,54,0
69150,note_on,0,0,0,,,,,,,,,0,,57,100
69165,note_on,15,0,0,,,,,,,,,0,,69,0
69165,note_on,0,0,0,,,,,,,,,0,,74,0
69170,note_on,5,0,0,,,,,,,,,0,,57,0
69180,note_on,10,0,0,,,,,,,,,0,,55,100
69210,note_on,30,0,0,,,,,,,,,0,,55,0
69210,note_on,0,0,0,,,,,,,,,0,,57,100
69230,note_on,20,0,0,,,,,,,,,0,,57,0
69240,note_on,10,0,0,,,,,,,,,0,,69,100
69240,note_on,0,0,0,,,,,,,,,0,,76,100
69240,note_on,0,0,0,,,,,,,,,0,,49,100
69270,note_on,30,0,0,,,,,,,,,0,,49,0
69270,note_on,0,0,0,,,,,,,,,0,,57,100
69285,note_on,15,0,0,,,,,,,,,0,,76,0
69285,note_on,0,0,0,,,,,,,,,0,,69,0
69290,note_on,5,0,0,,,,,,,,,0,,57,0
69300,note_on,10,0,0,,,,,,,,,0,,55,100
69330,note_on,30,0,0,,,,,,,,,0,,55,0
69330,note_on,0,0,0,,,,,,,,,0,,57,100
69350,note_on,20,0,0,,,,,,,,,0,,57,0
69360,note_on,10,0,0,,,,,,,,,0,,69,100
69360,note_on,0,0,0,,,,,,,,,0,,78,100
69360,note_on,0,0,0,,,,,,,,,0,,50,100
69390,note_on,30,0,0,,,,,,,,,0,,50,0
69390,note_on,0,0,0,,,,,,,,,0,,57,100
69405,note_on,15,0,0,,,,,,,,,0,,78,0
69405,note_on,0,0,0,,,,,,,,,0,,69,0
69410,note_on,5,0,0,,,,,,,,,0,,57,0
69420,note_on,10,0,0,,,,,,,,,0,,55,100
69450,note_on,30,0,0,,,,,,,,,0,,55,0
69450,note_on,0,0,0,,,,,,,,,0,,57,100
69470,note_on,20,0,0,,,,,,,,,0,,57,0
69480,note_on,10,0,0,,,,,,,,,0,,67,100
69480,note_on,0,0,0,,,,,,,,,0,,73,100
69480,note_on,0,0,0,,,,,,,,,0,,52,100
69510,note_on,30,0,0,,,,,,,,,0,,52,0
69510,note_on,0,0,0,,,,,,,,,0,,57,100
69525,note_on,15,0,0,,,,,,,,,0,,73,0
69525,note_on,0,0,0,,,,,,,,,0,,67,0
69530,note_on,5,0,0,,,,,,,,,0,,57,0
69540,note_on,10,0,0,,,,,,,,,0,,55,100
69570,note_on,30,0,0,,,,,,,,,0,,55,0
69570,note_on,0,0,0,,,,,,,,,0,,57,100
69590,note_on,20,0,0,,,,,,,,,0,,57,0
69600,note_on,10,0,0,,,,,,,,,0,,74,100
69600,note_on,0,0,0,,,,,,,,,0,,69,100
69600,note_on,0,0,0,,,,,,,,,0,,54,100
69630,note_on,30,0,0,,,,,,,,,0,,54,0
69630,note_on,0,0,0,,,,,,,,,0,,57,100
69645,note_on,15,0,0,,,,,,,,,0,,69,0
69645,note_on,0,0,0,,,,,,,,,0,,74,0
69650,note_on,5,0,0,,,,,,,,,0,,57,0
69660,note_on,10,0,0,,,,,,,,,0,,55,100
69690,note_on,30,0,0,,,,,,,,,0,,55,0
69690,note_on,0,0,0,,,,,,,,,0,,57,100
69710,note_on,20,0,0,,,,,,,,,0,,57,0
69720,note_on,10,0,0,,,,,,,,,0,,76,100
69720,note_on,0,0,0,,,,,,,,,0,,69,100
69720,note_on,0,0,0,,,,,,,,,0,,49,100
69750,note_on,30,0,0,,,,,,,,,0,,49,0
69750,note_on,0,0,0,,,,,,,,,0,,57,100
69765,note_on,15,0,0,,,,,,,,,0,,69,0
69765,note_on,0,0,0,,,,,,,,,0,,76,0
69770,note_on,5,0,0,,,,,,,,,0,,57,0
69780,note_on,10,0,0,,,,,,,,,0,,55,100
69810,note_on,30,0,0,,,,,,,,,0,,55,0
69810,note_on,0,0,0,,,,,,,,,0,,57,100
69830,note_on,20,0,0,,,,,,,,,0,,57,0
69840,note_on,10,0,0,,,,,,,,,0,,78,100
69840,note_on,0,0,0,,,,,,,,,0,,74,100
69840,note_on,0,0,0,,,,,,,,,0,,69,100
69840,note_on,0,0,0,,,,,,,,,0,,50,100
69870,note_on,30,0,0,,,,,,,,,0,,50,0
69870,note_on,0,0,0,,,,,,,,,0,,57,100
69880,note_on,10,0,0,,,,,,,,,0,,78,0
69880,note_on,0,0,0,,,,,,,,,0,,69,0
69880,note_on,0,0,0,,,,,,,,,0,,74,0
69890,note_on,10,0,0,,,,,,,,,0,,57,0
69900,note_on,10,0,0,,,,,,,,,0,,55,100
69930,note_on,30,0,0,,,,,,,,,0,,55,0
69930,note_on,0,0,0,,,,,,,,,0,,57,100
69950,note_on,20,0,0,,,,,,,,,0,,57,0
69960,note_on,10,0,0,,,,,,,,,0,,83,100
69960,note_on,0,0,0,,,,,,,,,0,,54,100
69975,note_on,15,0,0,,,,,,,,,0,,83,0
69975,note_on,0,0,0,,,,,,,,,0,,81,100
69990,note_on,15,0,0,,,,,,,,,0,,81,0
69990,note_on,0,0,0,,,,,,,,,0,,54,0
69990,note_on,0,0,0,,,,,,,,,0,,83,100
70005,note_on,15,0,0,,,,,,,,,0,,83,0
70005,note_on,0,0,0,,,,,,,,,0,,81,100
70020,note_on,15,0,0,,,,,,,,,0,,81,0
70020,note_on,0,0,0,,,,,,,,,0,,83,100
70020,note_on,0,0,0,,,,,,,,,0,,50,100
70035,note_on,15,0,0,,,,,,,,,0,,83,0
70035,note_on,0,0,0,,,,,,,,,0,,81,100
70050,note_on,15,0,0,,,,,,,,,0,,81,0
70050,note_on,0,0,0,,,,,,,,,0,,50,0
70050,note_on,0,0,0,,,,,,,,,0,,79,100
70065,note_on,15,0,0,,,,,,,,,0,,79,0
70065,note_on,0,0,0,,,,,,,,,0,,81,100
70080,note_on,15,0,0,,,,,,,,,0,,81,0
70080,note_on,0,0,0,,,,,,,,,0,,83,100
70080,note_on,0,0,0,,,,,,,,,0,,55,100
70110,note_on,30,0,0,,,,,,,,,0,,83,0
70140,note_on,30,0,0,,,,,,,,,0,,78,100
70170,note_on,30,0,0,,,,,,,,,0,,78,0
70170,note_on,0,0,0,,,,,,,,,0,,55,0
70170,note_on,0,0,0,,,,,,,,,0,,79,100
70200,note_on,30,0,0,,,,,,,,,0,,79,0
70200,note_on,0,0,0,,,,,,,,,0,,52,100
70200,note_on,0,0,0,,,,,,,,,0,,81,100
70215,note_on,15,0,0,,,,,,,,,0,,81,0
70215,note_on,0,0,0,,,,,,,,,0,,79,100
70230,note_on,15,0,0,,,,,,,,,0,,79,0
70230,note_on,0,0,0,,,,,,,,,0,,81,100
70245,note_on,15,0,0,,,,,,,,,0,,81,0
70245,note_on,0,0,0,,,,,,,,,0,,79,100
70260,note_on,15,0,0,,,,,,,,,0,,79,0
70260,note_on,0,0,0,,,,,,,,,0,,81,100
70275,note_on,15,0,0,,,,,,,,,0,,81,0
70275,note_on,0,0,0,,,,,,,,,0,,79,100
70290,note_on,15,0,0,,,,,,,,,0,,79,0
70290,note_on,0,0,0,,,,,,,,,0,,52,0
70290,note_on,0,0,0,,,,,,,,,0,,78,100
70305,note_on,15,0,0,,,,,,,,,0,,78,0
70305,note_on,0,0,0,,,,,,,,,0,,79,100
70320,note_on,15,0,0,,,,,,,,,0,,79,0
70320,note_on,0,0,0,,,,,,,,,0,,54,100
70320,note_on,0,0,0,,,,,,,,,0,,81,100
70350,note_on,30,0,0,,,,,,,,,0,,81,0
70380,note_on,30,0,0,,,,,,,,,0,,76,100
70410,note_on,30,0,0,,,,,,,,,0,,76,0
70410,note_on,0,0,0,,,,,,,,,0,,54,0
70410,note_on,0,0,0,,,,,,,,,0,,78,100
70440,note_on,30,0,0,,,,,,,,,0,,78,0
70440,note_on,0,0,0,,,,,,,,,0,,50,100
70440,note_on,0,0,0,,,,,,,,,0,,79,100
70455,note_on,15,0,0,,,,,,,,,0,,79,0
70455,note_on,0,0,0,,,,,,,,,0,,78,100
70470,note_on,15,0,0,,,,,,,,,0,,78,0
70470,note_on,0,0,0,,,,,,,,,0,,79,100
70485,note_on,15,0,0,,,,,,,,,0,,79,0
70485,note_on,0,0,0,,,,,,,,,0,,78,100
70500,note_on,15,0,0,,,,,,,,,0,,78,0
70500,note_on,0,0,0,,,,,,,,,0,,79,100
70515,note_on,15,0,0,,,,,,,,,0,,79,0
70515,note_on,0,0,0,,,,,,,,,0,,78,100
70530,note_on,15,0,0,,,,,,,,,0,,78,0
70530,note_on,0,0,0,,,,,,,,,0,,50,0
70530,note_on,0,0,0,,,,,,,,,0,,76,100
70545,note_on,15,0,0,,,,,,,,,0,,76,0
70545,note_on,0,0,0,,,,,,,,,0,,78,100
70560,note_on,15,0,0,,,,,,,,,0,,78,0
70560,note_on,0,0,0,,,,,,,,,0,,52,100
70560,note_on,0,0,0,,,,,,,,,0,,79,100
70590,note_on,30,0,0,,,,,,,,,0,,79,0
70620,note_on,30,0,0,,,,,,,,,0,,74,100
70650,note_on,30,0,0,,,,,,,,,0,,74,0
70650,note_on,0,0,0,,,,,,,,,0,,52,0
70650,note_on,0,0,0,,,,,,,,,0,,76,100
70680,note_on,30,0,0,,,,,,,,,0,,76,0
70680,note_on,0,0,0,,,,,,,,,0,,61,100
70680,note_on,0,0,0,,,,,,,,,0,,78,100
70695,note_on,15,0,0,,,,,,,,,0,,78,0
70695,note_on,0,0,0,,,,,,,,,0,,76,100
70710,note_on,15,0,0,,,,,,,,,0,,76,0
70710,note_on,0,0,0,,,,,,,,,0,,78,100
70725,note_on,15,0,0,,,,,,,,,0,,78,0
70725,note_on,0,0,0,,,,,,,,,0,,76,100
70740,note_on,15,0,0,,,,,,,,,0,,76,0
70740,note_on,0,0,0,,,,,,,,,0,,78,100
70755,note_on,15,0,0,,,,,,,,,0,,78,0
70755,note_on,0,0,0,,,,,,,,,0,,76,100
70770,note_on,15,0,0,,,,,,,,,0,,76,0
70770,note_on,0,0,0,,,,,,,,,0,,61,0
70770,note_on,0,0,0,,,,,,,,,0,,74,100
70785,note_on,15,0,0,,,,,,,,,0,,74,0
70785,note_on,0,0,0,,,,,,,,,0,,76,100
70800,note_on,15,0,0,,,,,,,,,0,,76,0
70800,note_on,0,0,0,,,,,,,,,0,,62,100
70800,note_on,0,0,0,,,,,,,,,0,,78,100
70830,note_on,30,0,0,,,,,,,,,0,,78,0
70860,note_on,30,0,0,,,,,,,,,0,,69,100
70890,note_on,30,0,0,,,,,,,,,0,,69,0
70890,note_on,0,0,0,,,,,,,,,0,,62,0
70920,note_on,30,0,0,,,,,,,,,0,,62,100
70920,note_on,0,0,0,,,,,,,,,0,,54,100
70920,note_on,0,0,0,,,,,,,,,0,,71,100
70935,note_on,15,0,0,,,,,,,,,0,,71,0
70935,note_on,0,0,0,,,,,,,,,0,,69,100
70950,note_on,15,0,0,,,,,,,,,0,,69,0
70950,note_on,0,0,0,,,,,,,,,0,,71,100
70965,note_on,15,0,0,,,,,,,,,0,,71,0
70965,note_on,0,0,0,,,,,,,,,0,,69,100
70980,note_on,15,0,0,,,,,,,,,0,,69,0
70980,note_on,0,0,0,,,,,,,,,0,,71,100
70995,note_on,15,0,0,,,,,,,,,0,,71,0
70995,note_on,0,0,0,,,,,,,,,0,,69,100
71010,note_on,15,0,0,,,,,,,,,0,,69,0
71010,note_on,0,0,0,,,,,,,,,0,,54,0
71010,note_on,0,0,0,,,,,,,,,0,,67,100
71025,note_on,15,0,0,,,,,,,,,0,,67,0
71025,note_on,0,0,0,,,,,,,,,0,,69,100
71040,note_on,15,0,0,,,,,,,,,0,,69,0
71040,note_on,0,0,0,,,,,,,,,0,,55,100
71040,note_on,0,0,0,,,,,,,,,0,,71,100
71070,note_on,30,0,0,,,,,,,,,0,,71,0
71100,note_on,30,0,0,,,,,,,,,0,,66,100
71130,note_on,30,0,0,,,,,,,,,0,,66,0
71130,note_on,0,0,0,,,,,,,,,0,,55,0
71130,note_on,0,0,0,,,,,,,,,0,,62,0
71130,note_on,0,0,0,,,,,,,,,0,,67,100
71160,note_on,30,0,0,,,,,,,,,0,,67,0
71160,note_on,0,0,0,,,,,,,,,0,,61,100
71160,note_on,0,0,0,,,,,,,,,0,,52,100
71160,note_on,0,0,0,,,,,,,,,0,,69,100
71175,note_on,15,0,0,,,,,,,,,0,,69,0
71175,note_on,0,0,0,,,,,,,,,0,,67,100
71190,note_on,15,0,0,,,,,,,,,0,,67,0
71190,note_on,0,0,0,,,,,,,,,0,,69,100
71205,note_on,15,0,0,,,,,,,,,0,,69,0
71205,note_on,0,0,0,,,,,,,,,0,,67,100
71220,note_on,15,0,0,,,,,,,,,0,,67,0
71220,note_on,0,0,0,,,,,,,,,0,,69,100
71235,note_on,15,0,0,,,,,,,,,0,,69,0
71235,note_on,0,0,0,,,,,,,,,0,,67,100
71250,note_on,15,0,0,,,,,,,,,0,,67,0
71250,note_on,0,0,0,,,,,,,,,0,,52,0
71250,note_on,0,0,0,,,,,,,,,0,,66,100
71265,note_on,15,0,0,,,,,,,,,0,,66,0
71265,note_on,0,0,0,,,,,,,,,0,,67,100
71280,note_on,15,0,0,,,,,,,,,0,,67,0
71280,note_on,0,0,0,,,,,,,,,0,,54,100
71280,note_on,0,0,0,,,,,,,,,0,,69,100
71310,note_on,30,0,0,,,,,,,,,0,,69,0
71340,note_on,30,0,0,,,,,,,,,0,,64,100
71370,note_on,30,0,0,,,,,,,,,0,,64,0
71370,note_on,0,0,0,,,,,,,,,0,,54,0
71370,note_on,0,0,0,,,,,,,,,0,,61,0
71370,note_on,0,0,0,,,,,,,,,0,,66,100
71400,note_on,30,0,0,,,,,,,,,0,,66,0
71400,note_on,0,0,0,,,,,,,,,0,,62,100
71400,note_on,0,0,0,,,,,,,,,0,,50,100
71400,note_on,0,0,0,,,,,,,,,0,,67,100
71415,note_on,15,0,0,,,,,,,,,0,,67,0
71415,note_on,0,0,0,,,,,,,,,0,,66,100
71430,note_on,15,0,0,,,,,,,,,0,,66,0
71430,note_on,0,0,0,,,,,,,,,0,,67,100
71445,note_on,15,0,0,,,,,,,,,0,,67,0
71445,note_on,0,0,0,,,,,,,,,0,,66,100
71460,note_on,15,0,0,,,,,,,,,0,,66,0
71460,note_on,0,0,0,,,,,,,,,0,,67,100
71475,note_on,15,0,0,,,,,,,,,0,,67,0
71475,note_on,0,0,0,,,,,,,,,0,,66,100
71490,note_on,15,0,0,,,,,,,,,0,,66,0
71490,note_on,0,0,0,,,,,,,,,0,,50,0
71490,note_on,0,0,0,,,,,,,,,0,,62,0
71490,note_on,0,0,0,,,,,,,,,0,,64,100
71505,note_on,15,0,0,,,,,,,,,0,,64,0
71505,note_on,0,0,0,,,,,,,,,0,,66,100
71520,note_on,15,0,0,,,,,,,,,0,,66,0
71520,note_on,0,0,0,,,,,,,,,0,,61,100
71520,note_on,0,0,0,,,,,,,,,0,,52,100
71520,note_on,0,0,0,,,,,,,,,0,,67,100
71550,note_on,30,0,0,,,,,,,,,0,,67,0
71580,note_on,30,0,0,,,,,,,,,0,,62,100
71610,note_on,30,0,0,,,,,,,,,0,,62,0
71610,note_on,0,0,0,,,,,,,,,0,,52,0
71610,note_on,0,0,0,,,,,,,,,0,,61,0
71610,note_on,0,0,0,,,,,,,,,0,,64,100
71640,note_on,30,0,0,,,,,,,,,0,,64,0
71640,note_on,0,0,0,,,,,,,,,0,,57,100
71640,note_on,0,0,0,,,,,,,,,0,,49,100
71640,note_on,0,0,0,,,,,,,,,0,,66,100
71655,note_on,15,0,0,,,,,,,,,0,,66,0
71655,note_on,0,0,0,,,,,,,,,0,,64,100
71670,note_on,15,0,0,,,,,,,,,0,,64,0
71670,note_on,0,0,0,,,,,,,,,0,,66,100
71685,note_on,15,0,0,,,,,,,,,0,,66,0
71685,note_on,0,0,0,,,,,,,,,0,,64,100
71700,note_on,15,0,0,,,,,,,,,0,,64,0
71700,note_on,0,0,0,,,,,,,,,0,,66,100
71715,note_on,15,0,0,,,,,,,,,0,,66,0
71715,note_on,0,0,0,,,,,,,,,0,,64,100
71730,note_on,15,0,0,,,,,,,,,0,,64,0
71730,note_on,0,0,0,,,,,,,,,0,,49,0
71730,note_on,0,0,0,,,,,,,,,0,,57,0
71730,note_on,0,0,0,,,,,,,,,0,,62,100
71745,note_on,15,0,0,,,,,,,,,0,,62,0
71745,note_on,0,0,0,,,,,,,,,0,,64,100
71760,note_on,15,0,0,,,,,,,,,0,,64,0
71760,note_on,0,0,0,,,,,,,,,0,,57,100
71760,note_on,0,0,0,,,,,,,,,0,,50,100
71760,note_on,0,0,0,,,,,,,,,0,,66,100
71780,note_on,20,0,0,,,,,,,,,0,,66,0
71790,note_on,10,0,0,,,,,,,,,0,,61,100
71820,note_on,30,0,0,,,,,,,,,0,,61,0
71820,note_on,0,0,0,,,,,,,,,0,,62,100
71850,note_on,30,0,0,,,,,,,,,0,,62,0
71850,note_on,0,0,0,,,,,,,,,0,,50,0
71850,note_on,0,0,0,,,,,,,,,0,,57,0
71850,note_on,0,0,0,,,,,,,,,0,,64,100
71870,note_on,20,0,0,,,,,,,,,0,,64,0
71880,note_on,10,0,0,,,,,,,,,0,,66,100
71910,note_on,30,0,0,,,,,,,,,0,,66,0
71910,note_on,0,0,0,,,,,,,,,0,,62,100
71930,note_on,20,0,0,,,,,,,,,0,,62,0
71940,note_on,10,0,0,,,,,,,,,0,,67,100
71970,note_on,30,0,0,,,,,,,,,0,,67,0
71970,note_on,0,0,0,,,,,,,,,0,,62,100
71990,note_on,20,0,0,,,,,,,,,0,,62,0
72000,note_on,10,0,0,,,,,,,,,0,,69,100
72020,note_on,20,0,0,,,,,,,,,0,,69,0
72030,note_on,10,0,0,,,,,,,,,0,,62,100
72060,note_on,30,0,0,,,,,,,,,0,,62,0
72060,note_on,0,0,0,,,,,,,,,0,,64,100
72090,note_on,30,0,0,,,,,,,,,0,,64,0
72090,note_on,0,0,0,,,,,,,,,0,,66,100
72120,note_on,30,0,0,,,,,,,,,0,,66,0
72120,note_on,0,0,0,,,,,,,,,0,,67,100
72150,note_on,30,0,0,,,,,,,,,0,,67,0
72150,note_on,0,0,0,,,,,,,,,0,,69,100
72180,note_on,30,0,0,,,,,,,,,0,,69,0
72180,note_on,0,0,0,,,,,,,,,0,,71,100
72210,note_on,30,0,0,,,,,,,,,0,,71,0
72210,note_on,0,0,0,,,,,,,,,0,,73,100
72230,note_on,20,0,0,,,,,,,,,0,,73,0
72240,note_on,10,0,0,,,,,,,,,0,,74,100
72260,note_on,20,0,0,,,,,,,,,0,,74,0
72270,note_on,10,0,0,,,,,,,,,0,,69,100
72300,note_on,30,0,0,,,,,,,,,0,,69,0
72300,note_on,0,0,0,,,,,,,,,0,,71,100
72330,note_on,30,0,0,,,,,,,,,0,,71,0
72330,note_on,0,0,0,,,,,,,,,0,,73,100
72350,note_on,20,0,0,,,,,,,,,0,,73,0
72360,note_on,10,0,0,,,,,,,,,0,,74,100
72390,note_on,30,0,0,,,,,,,,,0,,74,0
72390,note_on,0,0,0,,,,,,,,,0,,69,100
72410,note_on,20,0,0,,,,,,,,,0,,69,0
72420,note_on,10,0,0,,,,,,,,,0,,76,100
72450,note_on,30,0,0,,,,,,,,,0,,76,0
72450,note_on,0,0,0,,,,,,,,,0,,69,100
72470,note_on,20,0,0,,,,,,,,,0,,69,0
72480,note_on,10,0,0,,,,,,,,,0,,78,100
72500,note_on,20,0,0,,,,,,,,,0,,78,0
72510,note_on,10,0,0,,,,,,,,,0,,69,100
72540,note_on,30,0,0,,,,,,,,,0,,69,0
72540,note_on,0,0,0,,,,,,,,,0,,71,100
72570,note_on,30,0,0,,,,,,,,,0,,71,0
72570,note_on,0,0,0,,,,,,,,,0,,73,100
72600,note_on,30,0,0,,,,,,,,,0,,73,0
72600,note_on,0,0,0,,,,,,,,,0,,74,100
72630,note_on,30,0,0,,,,,,,,,0,,74,0
72630,note_on,0,0,0,,,,,,,,,0,,76,100
72660,note_on,30,0,0,,,,,,,,,0,,76,0
72660,note_on,0,0,0,,,,,,,,,0,,78,100
72690,note_on,30,0,0,,,,,,,,,0,,78,0
72690,note_on,0,0,0,,,,,,,,,0,,79,100
72710,note_on,20,0,0,,,,,,,,,0,,79,0
72720,note_on,10,0,0,,,,,,,,,0,,81,100
72740,note_on,20,0,0,,,,,,,,,0,,81,0
72750,note_on,10,0,0,,,,,,,,,0,,74,100
72780,note_on,30,0,0,,,,,,,,,0,,74,0
72780,note_on,0,0,0,,,,,,,,,0,,76,100
72810,note_on,30,0,0,,,,,,,,,0,,76,0
72810,note_on,0,0,0,,,,,,,,,0,,78,100
72840,note_on,30,0,0,,,,,,,,,0,,78,0
72840,note_on,0,0,0,,,,,,,,,0,,79,100
72870,note_on,30,0,0,,,,,,,,,0,,79,0
72870,note_on,0,0,0,,,,,,,,,0,,81,100
72900,note_on,30,0,0,,,,,,,,,0,,81,0
72900,note_on,0,0,0,,,,,,,,,0,,83,100
72930,note_on,30,0,0,,,,,,,,,0,,83,0
72930,note_on,0,0,0,,,,,,,,,0,,85,100
72950,note_on,20,0,0,,,,,,,,,0,,85,0
72960,note_on,10,0,0,,,,,,,,,0,,74,100
72960,note_on,0,0,0,,,,,,,,,0,,78,100
72960,note_on,0,0,0,,,,,,,,,0,,81,100
72960,note_on,0,0,0,,,,,,,,,0,,50,100
72960,note_on,0,0,0,,,,,,,,,0,,86,100
72960,note_on,0,0,0,,,,,,,,,5,,86,100
72960,note_on,0,0,0,,,,,,,,,6,,78,100
72960,note_on,0,0,0,,,,,,,,,7,,69,100
72960,note_on,0,0,0,,,,,,,,,8,,50,100
72960,note_on,0,0,0,,,,,,,,,10,,38,100
72960,note_on,0,0,0,,,,,,,,,13,,86,100
72960,note_on,0,0,0,,,,,,,,,13,,78,100
72960,note_on,0,0,0,,,,,,,,,14,,50,100
72960,note_on,0,0,0,,,,,,,,,15,,62,100
72960,note_on,0,0,0,,,,,,,,,15,,69,100
72960,note_on,0,0,0,,,,,,,,,15,,66,100
72960,note_on,0,0,0,,,,,,,,,15,,50,100
73065,note_on,105,0,0,,,,,,,,,13,,78,0
73065,note_on,0,0,0,,,,,,,,,7,,69,0
73065,note_on,0,0,0,,,,,,,,,0,,81,0
73065,note_on,0,0,0,,,,,,,,,6,,78,0
73065,note_on,0,0,0,,,,,,,,,0,,74,0
73065,note_on,0,0,0,,,,,,,,,13,,86,0
73065,note_on,0,0,0,,,,,,,,,5,,86,0
73065,note_on,0,0,0,,,,,,,,,0,,78,0
73065,note_on,0,0,0,,,,,,,,,0,,86,0
73070,note_on,5,0,0,,,,,,,,,15,,62,0
73070,note_on,0,0,0,,,,,,,,,15,,66,0
73070,note_on,0,0,0,,,,,,,,,15,,69,0
73080,note_on,10,0,0,,,,,,,,,0,,66,100
73080,note_on,0,0,0,,,,,,,,,0,,69,100
73080,note_on,0,0,0,,,,,,,,,0,,74,100
73080,note_on,0,0,0,,,,,,,,,0,,78,100
73080,note_on,0,0,0,,,,,,,,,5,,78,100
73080,note_on,0,0,0,,,,,,,,,6,,69,100
73080,note_on,0,0,0,,,,,,,,,7,,62,100
73080,note_on,0,0,0,,,,,,,,,13,,78,100
73080,note_on,0,0,0,,,,,,,,,13,,69,100
73080,note_on,0,0,0,,,,,,,,,15,,57,100
73080,note_on,0,0,0,,,,,,,,,15,,66,100
73080,note_on,0,0,0,,,,,,,,,15,,69,100
73110,note_on,30,0,0,,,,,,,,,14,,50,0
73110,note_on,0,0,0,,,,,,,,,0,,50,0
73110,note_on,0,0,0,,,,,,,,,8,,50,0
73110,note_on,0,0,0,,,,,,,,,15,,50,0
73110,note_on,0,0,0,,,,,,,,,10,,38,0
73140,note_on,30,0,0,,,,,,,,,0,,50,100
73140,note_on,0,0,0,,,,,,,,,8,,50,100
73140,note_on,0,0,0,,,,,,,,,10,,38,100
73140,note_on,0,0,0,,,,,,,,,14,,50,100
73140,note_on,0,0,0,,,,,,,,,15,,50,100
73170,note_on,30,0,0,,,,,,,,,15,,50,0
73170,note_on,0,0,0,,,,,,,,,14,,50,0
73170,note_on,0,0,0,,,,,,,,,10,,38,0
73170,note_on,0,0,0,,,,,,,,,8,,50,0
73170,note_on,0,0,0,,,,,,,,,0,,50,0
73185,note_on,15,0,0,,,,,,,,,13,,78,0
73185,note_on,0,0,0,,,,,,,,,0,,66,0
73185,note_on,0,0,0,,,,,,,,,6,,69,0
73185,note_on,0,0,0,,,,,,,,,0,,78,0
73185,note_on,0,0,0,,,,,,,,,0,,74,0
73185,note_on,0,0,0,,,,,,,,,5,,78,0
73185,note_on,0,0,0,,,,,,,,,7,,62,0
73185,note_on,0,0,0,,,,,,,,,0,,69,0
73185,note_on,0,0,0,,,,,,,,,13,,69,0
73190,note_on,5,0,0,,,,,,,,,15,,66,0
73190,note_on,0,0,0,,,,,,,,,15,,57,0
73190,note_on,0,0,0,,,,,,,,,15,,69,0
73200,note_on,10,0,0,,,,,,,,,0,,55,100
73200,note_on,0,0,0,,,,,,,,,7,,59,100
73200,note_on,0,0,0,,,,,,,,,8,,55,100
73200,note_on,0,0,0,,,,,,,,,10,,43,100
73200,note_on,0,0,0,,,,,,,,,14,,55,100
73200,note_on,0,0,0,,,,,,,,,15,,62,100
73200,note_on,0,0,0,,,,,,,,,15,,67,100
73200,note_on,0,0,0,,,,,,,,,15,,71,100
73200,note_on,0,0,0,,,,,,,,,15,,55,100
73260,note_on,60,0,0,,,,,,,,,0,,74,100
73260,note_on,0,0,0,,,,,,,,,5,,74,100
73260,note_on,0,0,0,,,,,,,,,6,,71,100
73260,note_on,0,0,0,,,,,,,,,13,,74,100
73260,note_on,0,0,0,,,,,,,,,13,,71,100
73290,note_on,30,0,0,,,,,,,,,13,,71,0
73290,note_on,0,0,0,,,,,,,,,0,,74,0
73290,note_on,0,0,0,,,,,,,,,13,,74,0
73290,note_on,0,0,0,,,,,,,,,5,,74,0
73290,note_on,0,0,0,,,,,,,,,6,,71,0
73305,note_on,15,0,0,,,,,,,,,8,,55,0
73305,note_on,0,0,0,,,,,,,,,10,,43,0
73305,note_on,0,0,0,,,,,,,,,0,,55,0
73305,note_on,0,0,0,,,,,,,,,15,,55,0
73305,note_on,0,0,0,,,,,,,,,7,,59,0
73305,note_on,0,0,0,,,,,,,,,14,,55,0
73310,note_on,5,0,0,,,,,,,,,15,,67,0
73310,note_on,0,0,0,,,,,,,,,15,,71,0
73310,note_on,0,0,0,,,,,,,,,15,,62,0
73320,note_on,10,0,0,,,,,,,,,0,,52,100
73320,note_on,0,0,0,,,,,,,,,0,,76,100
73320,note_on,0,0,0,,,,,,,,,5,,76,100
73320,note_on,0,0,0,,,,,,,,,6,,73,100
73320,note_on,0,0,0,,,,,,,,,7,,55,100
73320,note_on,0,0,0,,,,,,,,,8,,52,100
73320,note_on,0,0,0,,,,,,,,,10,,40,100
73320,note_on,0,0,0,,,,,,,,,13,,76,100
73320,note_on,0,0,0,,,,,,,,,13,,73,100
73320,note_on,0,0,0,,,,,,,,,14,,52,100
73320,note_on,0,0,0,,,,,,,,,15,,55,100
73320,note_on,0,0,0,,,,,,,,,15,,61,100
73320,note_on,0,0,0,,,,,,,,,15,,67,100
73320,note_on,0,0,0,,,,,,,,,15,,52,100
73350,note_on,30,0,0,,,,,,,,,13,,73,0
73350,note_on,0,0,0,,,,,,,,,13,,76,0
73350,note_on,0,0,0,,,,,,,,,6,,73,0
73350,note_on,0,0,0,,,,,,,,,5,,76,0
73350,note_on,0,0,0,,,,,,,,,0,,76,0
73380,note_on,30,0,0,,,,,,,,,0,,78,100
73380,note_on,0,0,0,,,,,,,,,5,,78,100
73380,note_on,0,0,0,,,,,,,,,6,,74,100
73380,note_on,0,0,0,,,,,,,,,13,,78,100
73380,note_on,0,0,0,,,,,,,,,13,,74,100
73410,note_on,30,0,0,,,,,,,,,13,,74,0
73410,note_on,0,0,0,,,,,,,,,0,,78,0
73410,note_on,0,0,0,,,,,,,,,13,,78,0
73410,note_on,0,0,0,,,,,,,,,5,,78,0
73410,note_on,0,0,0,,,,,,,,,6,,74,0
73425,note_on,15,0,0,,,,,,,,,14,,52,0
73425,note_on,0,0,0,,,,,,,,,15,,52,0
73425,note_on,0,0,0,,,,,,,,,10,,40,0
73425,note_on,0,0,0,,,,,,,,,7,,55,0
73425,note_on,0,0,0,,,,,,,,,8,,52,0
73425,note_on,0,0,0,,,,,,,,,0,,52,0
73430,note_on,5,0,0,,,,,,,,,15,,61,0
73430,note_on,0,0,0,,,,,,,,,15,,67,0
73430,note_on,0,0,0,,,,,,,,,15,,55,0
73440,note_on,10,0,0,,,,,,,,,0,,79,100
73440,note_on,0,0,0,,,,,,,,,5,,79,100
73440,note_on,0,0,0,,,,,,,,,6,,76,100
73440,note_on,0,0,0,,,,,,,,,13,,79,100
73440,note_on,0,0,0,,,,,,,,,13,,76,100
73440,note_on,0,0,0,,,,,,,,,15,,61,100
73440,note_on,0,0,0,,,,,,,,,15,,64,100
73440,note_on,0,0,0,,,,,,,,,15,,67,100
73470,note_on,30,0,0,,,,,,,,,13,,76,0
73470,note_on,0,0,0,,,,,,,,,13,,79,0
73470,note_on,0,0,0,,,,,,,,,0,,79,0
73470,note_on,0,0,0,,,,,,,,,6,,76,0
73470,note_on,0,0,0,,,,,,,,,5,,79,0
73470,note_on,0,0,0,,,,,,,,,0,,81,100
73470,note_on,0,0,0,,,,,,,,,5,,81,100
73470,note_on,0,0,0,,,,,,,,,6,,78,100
73470,note_on,0,0,0,,,,,,,,,13,,81,100
73470,note_on,0,0,0,,,,,,,,,13,,78,100
73500,note_on,30,0,0,,,,,,,,,13,,78,0
73500,note_on,0,0,0,,,,,,,,,13,,81,0
73500,note_on,0,0,0,,,,,,,,,5,,81,0
73500,note_on,0,0,0,,,,,,,,,0,,81,0
73500,note_on,0,0,0,,,,,,,,,6,,78,0
73500,note_on,0,0,0,,,,,,,,,0,,52,100
73500,note_on,0,0,0,,,,,,,,,0,,79,100
73500,note_on,0,0,0,,,,,,,,,5,,79,100
73500,note_on,0,0,0,,,,,,,,,6,,76,100
73500,note_on,0,0,0,,,,,,,,,8,,52,100
73500,note_on,0,0,0,,,,,,,,,10,,40,100
73500,note_on,0,0,0,,,,,,,,,13,,79,100
73500,note_on,0,0,0,,,,,,,,,13,,76,100
73500,note_on,0,0,0,,,,,,,,,14,,52,100
73500,note_on,0,0,0,,,,,,,,,15,,52,100
73530,note_on,30,0,0,,,,,,,,,15,,52,0
73530,note_on,0,0,0,,,,,,,,,5,,79,0
73530,note_on,0,0,0,,,,,,,,,13,,79,0
73530,note_on,0,0,0,,,,,,,,,8,,52,0
73530,note_on,0,0,0,,,,,,,,,6,,76,0
73530,note_on,0,0,0,,,,,,,,,0,,52,0
73530,note_on,0,0,0,,,,,,,,,10,,40,0
73530,note_on,0,0,0,,,,,,,,,0,,79,0
73530,note_on,0,0,0,,,,,,,,,13,,76,0
73530,note_on,0,0,0,,,,,,,,,14,,52,0
73550,note_on,20,0,0,,,,,,,,,15,,61,0
73550,note_on,0,0,0,,,,,,,,,15,,67,0
73550,note_on,0,0,0,,,,,,,,,15,,64,0
73560,note_on,10,0,0,,,,,,,,,0,,57,100
73560,note_on,0,0,0,,,,,,,,,0,,73,100
73560,note_on,0,0,0,,,,,,,,,5,,73,100
73560,note_on,0,0,0,,,,,,,,,6,,64,100
73560,note_on,0,0,0,,,,,,,,,7,,69,100
73560,note_on,0,0,0,,,,,,,,,8,,57,100
73560,note_on,0,0,0,,,,,,,,,10,,45,100
73560,note_on,0,0,0,,,,,,,,,13,,73,100
73560,note_on,0,0,0,,,,,,,,,13,,64,100
73560,note_on,0,0,0,,,,,,,,,14,,57,100
73560,note_on,0,0,0,,,,,,,,,15,,61,100
73560,note_on,0,0,0,,,,,,,,,15,,64,100
73560,note_on,0,0,0,,,,,,,,,15,,69,100
73560,note_on,0,0,0,,,,,,,,,15,,57,100
73590,note_on,30,0,0,,,,,,,,,15,,57,0
73590,note_on,0,0,0,,,,,,,,,0,,57,0
73590,note_on,0,0,0,,,,,,,,,10,,45,0
73590,note_on,0,0,0,,,,,,,,,14,,57,0
73590,note_on,0,0,0,,,,,,,,,8,,57,0
73620,note_on,30,0,0,,,,,,,,,0,,45,100
73620,note_on,0,0,0,,,,,,,,,8,,45,100
73620,note_on,0,0,0,,,,,,,,,10,,33,100
73620,note_on,0,0,0,,,,,,,,,14,,45,100
73620,note_on,0,0,0,,,,,,,,,15,,45,100
73650,note_on,30,0,0,,,,,,,,,15,,45,0
73650,note_on,0,0,0,,,,,,,,,0,,45,0
73650,note_on,0,0,0,,,,,,,,,14,,45,0
73650,note_on,0,0,0,,,,,,,,,8,,45,0
73650,note_on,0,0,0,,,,,,,,,10,,33,0
73665,note_on,15,0,0,,,,,,,,,13,,64,0
73665,note_on,0,0,0,,,,,,,,,0,,73,0
73665,note_on,0,0,0,,,,,,,,,7,,69,0
73665,note_on,0,0,0,,,,,,,,,6,,64,0
73665,note_on,0,0,0,,,,,,,,,5,,73,0
73665,note_on,0,0,0,,,,,,,,,13,,73,0
73670,note_on,5,0,0,,,,,,,,,15,,64,0
73670,note_on,0,0,0,,,,,,,,,15,,69,0
73670,note_on,0,0,0,,,,,,,,,15,,61,0
73680,note_on,10,0,0,,,,,,,,,0,,57,100
73680,note_on,0,0,0,,,,,,,,,7,,61,100
73680,note_on,0,0,0,,,,,,,,,8,,57,100
73680,note_on,0,0,0,,,,,,,,,10,,45,100
73680,note_on,0,0,0,,,,,,,,,14,,57,100
73680,note_on,0,0,0,,,,,,,,,15,,61,100
73680,note_on,0,0,0,,,,,,,,,15,,64,100
73680,note_on,0,0,0,,,,,,,,,15,,67,100
73680,note_on,0,0,0,,,,,,,,,15,,57,100
73740,note_on,60,0,0,,,,,,,,,0,,76,100
73740,note_on,0,0,0,,,,,,,,,5,,76,100
73740,note_on,0,0,0,,,,,,,,,6,,73,100
73740,note_on,0,0,0,,,,,,,,,13,,76,100
73740,note_on,0,0,0,,,,,,,,,13,,73,100
73770,note_on,30,0,0,,,,,,,,,13,,73,0
73770,note_on,0,0,0,,,,,,,,,0,,76,0
73770,note_on,0,0,0,,,,,,,,,13,,76,0
73770,note_on,0,0,0,,,,,,,,,5,,76,0
73770,note_on,0,0,0,,,,,,,,,6,,73,0
73785,note_on,15,0,0,,,,,,,,,8,,57,0
73785,note_on,0,0,0,,,,,,,,,10,,45,0
73785,note_on,0,0,0,,,,,,,,,0,,57,0
73785,note_on,0,0,0,,,,,,,,,15,,57,0
73785,note_on,0,0,0,,,,,,,,,7,,61,0
73785,note_on,0,0,0,,,,,,,,,14,,57,0
73790,note_on,5,0,0,,,,,,,,,15,,64,0
73790,note_on,0,0,0,,,,,,,,,15,,67,0
73790,note_on,0,0,0,,,,,,,,,15,,61,0
73800,note_on,10,0,0,,,,,,,,,0,,54,100
73800,note_on,0,0,0,,,,,,,,,0,,78,100
73800,note_on,0,0,0,,,,,,,,,5,,78,100
73800,note_on,0,0,0,,,,,,,,,6,,74,100
73800,note_on,0,0,0,,,,,,,,,7,,57,100
73800,note_on,0,0,0,,,,,,,,,8,,54,100
73800,note_on,0,0,0,,,,,,,,,10,,42,100
73800,note_on,0,0,0,,,,,,,,,13,,78,100
73800,note_on,0,0,0,,,,,,,,,13,,74,100
73800,note_on,0,0,0,,,,,,,,,14,,54,100
73800,note_on,0,0,0,,,,,,,,,15,,57,100
73800,note_on,0,0,0,,,,,,,,,15,,62,100
73800,note_on,0,0,0,,,,,,,,,15,,69,100
73800,note_on,0,0,0,,,,,,,,,15,,54,100
73830,note_on,30,0,0,,,,,,,,,13,,74,0
73830,note_on,0,0,0,,,,,,,,,13,,78,0
73830,note_on,0,0,0,,,,,,,,,6,,74,0
73830,note_on,0,0,0,,,,,,,,,5,,78,0
73830,note_on,0,0,0,,,,,,,,,0,,78,0
73860,note_on,30,0,0,,,,,,,,,0,,79,100
73860,note_on,0,0,0,,,,,,,,,5,,79,100
73860,note_on,0,0,0,,,,,,,,,6,,76,100
73860,note_on,0,0,0,,,,,,,,,13,,79,100
73860,note_on,0,0,0,,,,,,,,,13,,76,100
73890,note_on,30,0,0,,,,,,,,,13,,76,0
73890,note_on,0,0,0,,,,,,,,,0,,79,0
73890,note_on,0,0,0,,,,,,,,,13,,79,0
73890,note_on,0,0,0,,,,,,,,,5,,79,0
73890,note_on,0,0,0,,,,,,,,,6,,76,0
73905,note_on,15,0,0,,,,,,,,,14,,54,0
73905,note_on,0,0,0,,,,,,,,,15,,54,0
73905,note_on,0,0,0,,,,,,,,,10,,42,0
73905,note_on,0,0,0,,,,,,,,,7,,57,0
73905,note_on,0,0,0,,,,,,,,,8,,54,0
73905,note_on,0,0,0,,,,,,,,,0,,54,0
73910,note_on,5,0,0,,,,,,,,,15,,62,0
73910,note_on,0,0,0,,,,,,,,,15,,69,0
73910,note_on,0,0,0,,,,,,,,,15,,57,0
73920,note_on,10,0,0,,,,,,,,,0,,81,100
73920,note_on,0,0,0,,,,,,,,,5,,81,100
73920,note_on,0,0,0,,,,,,,,,6,,78,100
73920,note_on,0,0,0,,,,,,,,,13,,81,100
73920,note_on,0,0,0,,,,,,,,,13,,78,100
73920,note_on,0,0,0,,,,,,,,,15,,69,100
73920,note_on,0,0,0,,,,,,,,,15,,57,100
73920,note_on,0,0,0,,,,,,,,,15,,61,100
73950,note_on,30,0,0,,,,,,,,,13,,78,0
73950,note_on,0,0,0,,,,,,,,,13,,81,0
73950,note_on,0,0,0,,,,,,,,,0,,81,0
73950,note_on,0,0,0,,,,,,,,,6,,78,0
73950,note_on,0,0,0,,,,,,,,,5,,81,0
73950,note_on,0,0,0,,,,,,,,,0,,83,100
73950,note_on,0,0,0,,,,,,,,,5,,83,100
73950,note_on,0,0,0,,,,,,,,,6,,79,100
73950,note_on,0,0,0,,,,,,,,,13,,83,100
73950,note_on,0,0,0,,,,,,,,,13,,79,100
73980,note_on,30,0,0,,,,,,,,,13,,79,0
73980,note_on,0,0,0,,,,,,,,,13,,83,0
73980,note_on,0,0,0,,,,,,,,,5,,83,0
73980,note_on,0,0,0,,,,,,,,,0,,83,0
73980,note_on,0,0,0,,,,,,,,,6,,79,0
73980,note_on,0,0,0,,,,,,,,,0,,54,100
73980,note_on,0,0,0,,,,,,,,,0,,81,100
73980,note_on,0,0,0,,,,,,,,,5,,81,100
73980,note_on,0,0,0,,,,,,,,,6,,78,100
73980,note_on,0,0,0,,,,,,,,,8,,54,100
73980,note_on,0,0,0,,,,,,,,,10,,42,100
73980,note_on,0,0,0,,,,,,,,,13,,81,100
73980,note_on,0,0,0,,,,,,,,,13,,78,100
73980,note_on,0,0,0,,,,,,,,,14,,54,100
73980,note_on,0,0,0,,,,,,,,,15,,54,100
74010,note_on,30,0,0,,,,,,,,,15,,54,0
74010,note_on,0,0,0,,,,,,,,,5,,81,0
74010,note_on,0,0,0,,,,,,,,,13,,81,0
74010,note_on,0,0,0,,,,,,,,,8,,54,0
74010,note_on,0,0,0,,,,,,,,,6,,78,0
74010,note_on,0,0,0,,,,,,,,,0,,54,0
74010,note_on,0,0,0,,,,,,,,,10,,42,0
74010,note_on,0,0,0,,,,,,,,,0,,81,0
74010,note_on,0,0,0,,,,,,,,,13,,78,0
74010,note_on,0,0,0,,,,,,,,,14,,54,0
74020,note_on,10,0,0,,,,,,,,,15,,69,0
74020,note_on,0,0,0,,,,,,,,,15,,61,0
74020,note_on,0,0,0,,,,,,,,,15,,57,0
74040,note_on,20,0,0,,,,,,,,,0,,74,100
74040,note_on,0,0,0,,,,,,,,,0,,59,100
74040,note_on,0,0,0,,,,,,,,,5,,74,100
74040,note_on,0,0,0,,,,,,,,,6,,66,100
74040,note_on,0,0,0,,,,,,,,,7,,71,100
74040,note_on,0,0,0,,,,,,,,,8,,59,100
74040,note_on,0,0,0,,,,,,,,,10,,47,100
74040,note_on,0,0,0,,,,,,,,,13,,74,100
74040,note_on,0,0,0,,,,,,,,,13,,66,100
74040,note_on,0,0,0,,,,,,,,,14,,59,100
74040,note_on,0,0,0,,,,,,,,,15,,54,100
74040,note_on,0,0,0,,,,,,,,,15,,62,100
74040,note_on,0,0,0,,,,,,,,,15,,66,100
74040,note_on,0,0,0,,,,,,,,,15,,59,100
74070,note_on,30,0,0,,,,,,,,,15,,59,0
74070,note_on,0,0,0,,,,,,,,,0,,59,0
74070,note_on,0,0,0,,,,,,,,,10,,47,0
74070,note_on,0,0,0,,,,,,,,,14,,59,0
74070,note_on,0,0,0,,,,,,,,,8,,59,0
74100,note_on,30,0,0,,,,,,,,,0,,47,100
74100,note_on,0,0,0,,,,,,,,,8,,47,100
74100,note_on,0,0,0,,,,,,,,,10,,35,100
74100,note_on,0,0,0,,,,,,,,,14,,47,100
74100,note_on,0,0,0,,,,,,,,,15,,47,100
74130,note_on,30,0,0,,,,,,,,,15,,47,0
74130,note_on,0,0,0,,,,,,,,,0,,47,0
74130,note_on,0,0,0,,,,,,,,,14,,47,0
74130,note_on,0,0,0,,,,,,,,,8,,47,0
74130,note_on,0,0,0,,,,,,,,,10,,35,0
74140,note_on,10,0,0,,,,,,,,,15,,62,0
74140,note_on,0,0,0,,,,,,,,,15,,54,0
74140,note_on,0,0,0,,,,,,,,,15,,66,0
74145,note_on,5,0,0,,,,,,,,,13,,66,0
74145,note_on,0,0,0,,,,,,,,,5,,74,0
74145,note_on,0,0,0,,,,,,,,,6,,66,0
74145,note_on,0,0,0,,,,,,,,,13,,74,0
74145,note_on,0,0,0,,,,,,,,,0,,74,0
74145,note_on,0,0,0,,,,,,,,,7,,71,0
74160,note_on,15,0,0,,,,,,,,,0,,59,100
74160,note_on,0,0,0,,,,,,,,,7,,62,100
74160,note_on,0,0,0,,,,,,,,,8,,59,100
74160,note_on,0,0,0,,,,,,,,,10,,47,100
74160,note_on,0,0,0,,,,,,,,,14,,59,100
74160,note_on,0,0,0,,,,,,,,,15,,62,100
74160,note_on,0,0,0,,,,,,,,,15,,71,100
74160,note_on,0,0,0,,,,,,,,,15,,67,100
74160,note_on,0,0,0,,,,,,,,,15,,59,100
74220,note_on,60,0,0,,,,,,,,,0,,78,100
74220,note_on,0,0,0,,,,,,,,,5,,78,100
74220,note_on,0,0,0,,,,,,,,,6,,74,100
74220,note_on,0,0,0,,,,,,,,,13,,78,100
74220,note_on,0,0,0,,,,,,,,,13,,74,100
74250,note_on,30,0,0,,,,,,,,,13,,74,0
74250,note_on,0,0,0,,,,,,,,,0,,78,0
74250,note_on,0,0,0,,,,,,,,,13,,78,0
74250,note_on,0,0,0,,,,,,,,,5,,78,0
74250,note_on,0,0,0,,,,,,,,,6,,74,0
74265,note_on,15,0,0,,,,,,,,,8,,59,0
74265,note_on,0,0,0,,,,,,,,,10,,47,0
74265,note_on,0,0,0,,,,,,,,,0,,59,0
74265,note_on,0,0,0,,,,,,,,,7,,62,0
74265,note_on,0,0,0,,,,,,,,,15,,62,0
74265,note_on,0,0,0,,,,,,,,,15,,59,0
74265,note_on,0,0,0,,,,,,,,,15,,71,0
74265,note_on,0,0,0,,,,,,,,,15,,67,0
74265,note_on,0,0,0,,,,,,,,,14,,59,0
74280,note_on,15,0,0,,,,,,,,,0,,55,100
74280,note_on,0,0,0,,,,,,,,,0,,79,100
74280,note_on,0,0,0,,,,,,,,,5,,79,100
74280,note_on,0,0,0,,,,,,,,,6,,76,100
74280,note_on,0,0,0,,,,,,,,,7,,59,100
74280,note_on,0,0,0,,,,,,,,,8,,55,100
74280,note_on,0,0,0,,,,,,,,,10,,43,100
74280,note_on,0,0,0,,,,,,,,,13,,79,100
74280,note_on,0,0,0,,,,,,,,,13,,76,100
74280,note_on,0,0,0,,,,,,,,,14,,55,100
74280,note_on,0,0,0,,,,,,,,,15,,59,100
74280,note_on,0,0,0,,,,,,,,,15,,62,100
74280,note_on,0,0,0,,,,,,,,,15,,71,100
74280,note_on,0,0,0,,,,,,,,,15,,55,100
74310,note_on,30,0,0,,,,,,,,,13,,76,0
74310,note_on,0,0,0,,,,,,,,,13,,79,0
74310,note_on,0,0,0,,,,,,,,,6,,76,0
74310,note_on,0,0,0,,,,,,,,,5,,79,0
74310,note_on,0,0,0,,,,,,,,,0,,79,0
74340,note_on,30,0,0,,,,,,,,,0,,81,100
74340,note_on,0,0,0,,,,,,,,,5,,81,100
74340,note_on,0,0,0,,,,,,,,,6,,78,100
74340,note_on,0,0,0,,,,,,,,,13,,81,100
74340,note_on,0,0,0,,,,,,,,,13,,78,100
74370,note_on,30,0,0,,,,,,,,,13,,78,0
74370,note_on,0,0,0,,,,,,,,,0,,81,0
74370,note_on,0,0,0,,,,,,,,,13,,81,0
74370,note_on,0,0,0,,,,,,,,,5,,81,0
74370,note_on,0,0,0,,,,,,,,,6,,78,0
74385,note_on,15,0,0,,,,,,,,,15,,59,0
74385,note_on,0,0,0,,,,,,,,,10,,43,0
74385,note_on,0,0,0,,,,,,,,,0,,55,0
74385,note_on,0,0,0,,,,,,,,,15,,71,0
74385,note_on,0,0,0,,,,,,,,,14,,55,0
74385,note_on,0,0,0,,,,,,,,,7,,59,0
74385,note_on,0,0,0,,,,,,,,,15,,62,0
74385,note_on,0,0,0,,,,,,,,,8,,55,0
74385,note_on,0,0,0,,,,,,,,,15,,55,0
74400,note_on,15,0,0,,,,,,,,,0,,83,100
74400,note_on,0,0,0,,,,,,,,,5,,83,100
74400,note_on,0,0,0,,,,,,,,,6,,79,100
74400,note_on,0,0,0,,,,,,,,,13,,83,100
74400,note_on,0,0,0,,,,,,,,,13,,79,100
74400,note_on,0,0,0,,,,,,,,,15,,62,100
74400,note_on,0,0,0,,,,,,,,,15,,67,100
74400,note_on,0,0,0,,,,,,,,,15,,71,100
74430,note_on,30,0,0,,,,,,,,,13,,79,0
74430,note_on,0,0,0,,,,,,,,,13,,83,0
74430,note_on,0,0,0,,,,,,,,,0,,83,0
74430,note_on,0,0,0,,,,,,,,,6,,79,0
74430,note_on,0,0,0,,,,,,,,,5,,83,0
74430,note_on,0,0,0,,,,,,,,,0,,85,100
74430,note_on,0,0,0,,,,,,,,,5,,85,100
74430,note_on,0,0,0,,,,,,,,,6,,81,100
74430,note_on,0,0,0,,,,,,,,,13,,85,100
74430,note_on,0,0,0,,,,,,,,,13,,81,100
74460,note_on,30,0,0,,,,,,,,,13,,81,0
74460,note_on,0,0,0,,,,,,,,,13,,85,0
74460,note_on,0,0,0,,,,,,,,,5,,85,0
74460,note_on,0,0,0,,,,,,,,,0,,85,0
74460,note_on,0,0,0,,,,,,,,,6,,81,0
74460,note_on,0,0,0,,,,,,,,,0,,55,100
74460,note_on,0,0,0,,,,,,,,,0,,83,100
74460,note_on,0,0,0,,,,,,,,,5,,83,100
74460,note_on,0,0,0,,,,,,,,,6,,79,100
74460,note_on,0,0,0,,,,,,,,,8,,55,100
74460,note_on,0,0,0,,,,,,,,,10,,43,100
74460,note_on,0,0,0,,,,,,,,,13,,83,100
74460,note_on,0,0,0,,,,,,,,,13,,79,100
74460,note_on,0,0,0,,,,,,,,,14,,55,100
74460,note_on,0,0,0,,,,,,,,,15,,55,100
74490,note_on,30,0,0,,,,,,,,,15,,55,0
74490,note_on,0,0,0,,,,,,,,,5,,83,0
74490,note_on,0,0,0,,,,,,,,,13,,83,0
74490,note_on,0,0,0,,,,,,,,,8,,55,0
74490,note_on,0,0,0,,,,,,,,,6,,79,0
74490,note_on,0,0,0,,,,,,,,,0,,55,0
74490,note_on,0,0,0,,,,,,,,,10,,43,0
74490,note_on,0,0,0,,,,,,,,,0,,83,0
74490,note_on,0,0,0,,,,,,,,,13,,79,0
74490,note_on,0,0,0,,,,,,,,,14,,55,0
74505,note_on,15,0,0,,,,,,,,,15,,62,0
74505,note_on,0,0,0,,,,,,,,,15,,71,0
74505,note_on,0,0,0,,,,,,,,,15,,67,0
74520,note_on,15,0,0,,,,,,,,,0,,59,100
74520,note_on,0,0,0,,,,,,,,,0,,71,100
74520,note_on,0,0,0,,,,,,,,,5,,71,100
74520,note_on,0,0,0,,,,,,,,,6,,67,100
74520,note_on,0,0,0,,,,,,,,,7,,74,100
74520,note_on,0,0,0,,,,,,,,,8,,59,100
74520,note_on,0,0,0,,,,,,,,,10,,47,100
74520,note_on,0,0,0,,,,,,,,,13,,71,100
74520,note_on,0,0,0,,,,,,,,,13,,67,100
74520,note_on,0,0,0,,,,,,,,,14,,59,100
74520,note_on,0,0,0,,,,,,,,,15,,62,100
74520,note_on,0,0,0,,,,,,,,,15,,67,100
74520,note_on,0,0,0,,,,,,,,,15,,71,100
74520,note_on,0,0,0,,,,,,,,,15,,59,100
74550,note_on,30,0,0,,,,,,,,,15,,59,0
74550,note_on,0,0,0,,,,,,,,,6,,67,0
74550,note_on,0,0,0,,,,,,,,,13,,67,0
74550,note_on,0,0,0,,,,,,,,,10,,47,0
74550,note_on,0,0,0,,,,,,,,,0,,59,0
74550,note_on,0,0,0,,,,,,,,,5,,71,0
74550,note_on,0,0,0,,,,,,,,,13,,71,0
74550,note_on,0,0,0,,,,,,,,,14,,59,0
74550,note_on,0,0,0,,,,,,,,,8,,59,0
74550,note_on,0,0,0,,,,,,,,,0,,71,0
74565,note_on,15,0,0,,,,,,,,,8,,55,100
74565,note_on,0,0,0,,,,,,,,,10,,43,100
74565,note_on,0,0,0,,,,,,,,,14,,55,100
74580,note_on,15,0,0,,,,,,,,,0,,55,100
74580,note_on,0,0,0,,,,,,,,,0,,83,100
74580,note_on,0,0,0,,,,,,,,,5,,83,100
74580,note_on,0,0,0,,,,,,,,,6,,79,100
74580,note_on,0,0,0,,,,,,,,,13,,83,100
74580,note_on,0,0,0,,,,,,,,,13,,79,100
74580,note_on,0,0,0,,,,,,,,,15,,55,100
74595,note_on,15,0,0,,,,,,,,,14,,55,0
74595,note_on,0,0,0,,,,,,,,,10,,43,0
74595,note_on,0,0,0,,,,,,,,,8,,55,0
74610,note_on,15,0,0,,,,,,,,,6,,79,0
74610,note_on,0,0,0,,,,,,,,,0,,83,0
74610,note_on,0,0,0,,,,,,,,,0,,55,0
74610,note_on,0,0,0,,,,,,,,,5,,83,0
74610,note_on,0,0,0,,,,,,,,,13,,83,0
74610,note_on,0,0,0,,,,,,,,,15,,55,0
74610,note_on,0,0,0,,,,,,,,,13,,79,0
74625,note_on,15,0,0,,,,,,,,,15,,67,0
74625,note_on,0,0,0,,,,,,,,,15,,71,0
74625,note_on,0,0,0,,,,,,,,,15,,62,0
74625,note_on,0,0,0,,,,,,,,,7,,74,0
74640,note_on,15,0,0,,,,,,,,,0,,62,100
74640,note_on,0,0,0,,,,,,,,,0,,81,100
74640,note_on,0,0,0,,,,,,,,,5,,81,100
74640,note_on,0,0,0,,,,,,,,,6,,78,100
74640,note_on,0,0,0,,,,,,,,,7,,74,100
74640,note_on,0,0,0,,,,,,,,,8,,62,100
74640,note_on,0,0,0,,,,,,,,,10,,50,100
74640,note_on,0,0,0,,,,,,,,,13,,81,100
74640,note_on,0,0,0,,,,,,,,,13,,78,100
74640,note_on,0,0,0,,,,,,,,,14,,62,100
74640,note_on,0,0,0,,,,,,,,,15,,57,100
74640,note_on,0,0,0,,,,,,,,,15,,66,100
74640,note_on,0,0,0,,,,,,,,,15,,69,100
74640,note_on,0,0,0,,,,,,,,,15,,62,100
74670,note_on,30,0,0,,,,,,,,,15,,62,0
74670,note_on,0,0,0,,,,,,,,,6,,78,0
74670,note_on,0,0,0,,,,,,,,,13,,78,0
74670,note_on,0,0,0,,,,,,,,,10,,50,0
74670,note_on,0,0,0,,,,,,,,,0,,62,0
74670,note_on,0,0,0,,,,,,,,,5,,81,0
74670,note_on,0,0,0,,,,,,,,,13,,81,0
74670,note_on,0,0,0,,,,,,,,,14,,62,0
74670,note_on,0,0,0,,,,,,,,,8,,62,0
74670,note_on,0,0,0,,,,,,,,,0,,81,0
74670,note_on,0,0,0,,,,,,,,,0,,83,100
74670,note_on,0,0,0,,,,,,,,,5,,83,100
74670,note_on,0,0,0,,,,,,,,,6,,79,100
74670,note_on,0,0,0,,,,,,,,,13,,83,100
74670,note_on,0,0,0,,,,,,,,,13,,79,100
74700,note_on,30,0,0,,,,,,,,,13,,79,0
74700,note_on,0,0,0,,,,,,,,,13,,83,0
74700,note_on,0,0,0,,,,,,,,,6,,79,0
74700,note_on,0,0,0,,,,,,,,,0,,83,0
74700,note_on,0,0,0,,,,,,,,,5,,83,0
74700,note_on,0,0,0,,,,,,,,,0,,50,100
74700,note_on,0,0,0,,,,,,,,,0,,81,100
74700,note_on,0,0,0,,,,,,,,,5,,81,100
74700,note_on,0,0,0,,,,,,,,,6,,78,100
74700,note_on,0,0,0,,,,,,,,,8,,50,100
74700,note_on,0,0,0,,,,,,,,,10,,38,100
74700,note_on,0,0,0,,,,,,,,,13,,81,100
74700,note_on,0,0,0,,,,,,,,,13,,78,100
74700,note_on,0,0,0,,,,,,,,,14,,50,100
74700,note_on,0,0,0,,,,,,,,,15,,50,100
74730,note_on,30,0,0,,,,,,,,,15,,50,0
74730,note_on,0,0,0,,,,,,,,,0,,50,0
74730,note_on,0,0,0,,,,,,,,,0,,81,0
74730,note_on,0,0,0,,,,,,,,,10,,38,0
74730,note_on,0,0,0,,,,,,,,,6,,78,0
74730,note_on,0,0,0,,,,,,,,,5,,81,0
74730,note_on,0,0,0,,,,,,,,,8,,50,0
74730,note_on,0,0,0,,,,,,,,,14,,50,0
74730,note_on,0,0,0,,,,,,,,,13,,78,0
74730,note_on,0,0,0,,,,,,,,,13,,81,0
74745,note_on,15,0,0,,,,,,,,,15,,57,0
74745,note_on,0,0,0,,,,,,,,,15,,69,0
74745,note_on,0,0,0,,,,,,,,,7,,74,0
74745,note_on,0,0,0,,,,,,,,,15,,66,0
74760,note_on,15,0,0,,,,,,,,,0,,62,100
74760,note_on,0,0,0,,,,,,,,,0,,69,100
74760,note_on,0,0,0,,,,,,,,,5,,69,100
74760,note_on,0,0,0,,,,,,,,,6,,66,100
74760,note_on,0,0,0,,,,,,,,,7,,62,100
74760,note_on,0,0,0,,,,,,,,,8,,62,100
74760,note_on,0,0,0,,,,,,,,,10,,50,100
74760,note_on,0,0,0,,,,,,,,,13,,69,100
74760,note_on,0,0,0,,,,,,,,,13,,66,100
74760,note_on,0,0,0,,,,,,,,,14,,62,100
74760,note_on,0,0,0,,,,,,,,,15,,74,100
74760,note_on,0,0,0,,,,,,,,,15,,66,100
74760,note_on,0,0,0,,,,,,,,,15,,69,100
74760,note_on,0,0,0,,,,,,,,,15,,62,100
74790,note_on,30,0,0,,,,,,,,,13,,66,0
74790,note_on,0,0,0,,,,,,,,,13,,69,0
74790,note_on,0,0,0,,,,,,,,,6,,66,0
74790,note_on,0,0,0,,,,,,,,,5,,69,0
74790,note_on,0,0,0,,,,,,,,,0,,69,0
74820,note_on,30,0,0,,,,,,,,,0,,81,100
74820,note_on,0,0,0,,,,,,,,,5,,81,100
74820,note_on,0,0,0,,,,,,,,,6,,78,100
74820,note_on,0,0,0,,,,,,,,,13,,81,100
74820,note_on,0,0,0,,,,,,,,,13,,78,100
74850,note_on,30,0,0,,,,,,,,,13,,78,0
74850,note_on,0,0,0,,,,,,,,,0,,81,0
74850,note_on,0,0,0,,,,,,,,,13,,81,0
74850,note_on,0,0,0,,,,,,,,,5,,81,0
74850,note_on,0,0,0,,,,,,,,,6,,78,0
74865,note_on,15,0,0,,,,,,,,,15,,66,0
74865,note_on,0,0,0,,,,,,,,,7,,62,0
74865,note_on,0,0,0,,,,,,,,,15,,69,0
74880,note_on,15,0,0,,,,,,,,,0,,79,100
74880,note_on,0,0,0,,,,,,,,,5,,79,100
74880,note_on,0,0,0,,,,,,,,,6,,76,100
74880,note_on,0,0,0,,,,,,,,,7,,71,100
74880,note_on,0,0,0,,,,,,,,,13,,79,100
74880,note_on,0,0,0,,,,,,,,,13,,76,100
74880,note_on,0,0,0,,,,,,,,,15,,71,100
74880,note_on,0,0,0,,,,,,,,,15,,67,100
74910,note_on,30,0,0,,,,,,,,,13,,76,0
74910,note_on,0,0,0,,,,,,,,,6,,76,0
74910,note_on,0,0,0,,,,,,,,,0,,79,0
74910,note_on,0,0,0,,,,,,,,,5,,79,0
74910,note_on,0,0,0,,,,,,,,,13,,79,0
74910,note_on,0,0,0,,,,,,,,,0,,81,100
74910,note_on,0,0,0,,,,,,,,,5,,81,100
74910,note_on,0,0,0,,,,,,,,,6,,78,100
74910,note_on,0,0,0,,,,,,,,,13,,81,100
74910,note_on,0,0,0,,,,,,,,,13,,78,100
74940,note_on,30,0,0,,,,,,,,,13,,78,0
74940,note_on,0,0,0,,,,,,,,,0,,81,0
74940,note_on,0,0,0,,,,,,,,,13,,81,0
74940,note_on,0,0,0,,,,,,,,,5,,81,0
74940,note_on,0,0,0,,,,,,,,,6,,78,0
74940,note_on,0,0,0,,,,,,,,,0,,79,100
74940,note_on,0,0,0,,,,,,,,,5,,79,100
74940,note_on,0,0,0,,,,,,,,,6,,76,100
74940,note_on,0,0,0,,,,,,,,,13,,79,100
74940,note_on,0,0,0,,,,,,,,,13,,76,100
74970,note_on,30,0,0,,,,,,,,,13,,76,0
74970,note_on,0,0,0,,,,,,,,,0,,79,0
74970,note_on,0,0,0,,,,,,,,,8,,62,0
74970,note_on,0,0,0,,,,,,,,,10,,50,0
74970,note_on,0,0,0,,,,,,,,,0,,62,0
74970,note_on,0,0,0,,,,,,,,,14,,62,0
74970,note_on,0,0,0,,,,,,,,,15,,62,0
74970,note_on,0,0,0,,,,,,,,,13,,79,0
74970,note_on,0,0,0,,,,,,,,,6,,76,0
74970,note_on,0,0,0,,,,,,,,,5,,79,0
74980,note_on,10,0,0,,,,,,,,,15,,71,0
74980,note_on,0,0,0,,,,,,,,,15,,74,0
74980,note_on,0,0,0,,,,,,,,,15,,67,0
74985,note_on,5,0,0,,,,,,,,,7,,71,0
75000,note_on,15,0,0,,,,,,,,,0,,61,100
75000,note_on,0,0,0,,,,,,,,,0,,67,100
75000,note_on,0,0,0,,,,,,,,,5,,67,100
75000,note_on,0,0,0,,,,,,,,,6,,64,100
75000,note_on,0,0,0,,,,,,,,,7,,69,100
75000,note_on,0,0,0,,,,,,,,,8,,61,100
75000,note_on,0,0,0,,,,,,,,,10,,49,100
75000,note_on,0,0,0,,,,,,,,,13,,67,100
75000,note_on,0,0,0,,,,,,,,,13,,64,100
75000,note_on,0,0,0,,,,,,,,,14,,61,100
75000,note_on,0,0,0,,,,,,,,,15,,69,100
75000,note_on,0,0,0,,,,,,,,,15,,64,100
75000,note_on,0,0,0,,,,,,,,,15,,67,100
75000,note_on,0,0,0,,,,,,,,,15,,61,100
75030,note_on,30,0,0,,,,,,,,,13,,64,0
75030,note_on,0,0,0,,,,,,,,,13,,67,0
75030,note_on,0,0,0,,,,,,,,,6,,64,0
75030,note_on,0,0,0,,,,,,,,,5,,67,0
75030,note_on,0,0,0,,,,,,,,,0,,67,0
75060,note_on,30,0,0,,,,,,,,,0,,79,100
75060,note_on,0,0,0,,,,,,,,,5,,79,100
75060,note_on,0,0,0,,,,,,,,,6,,76,100
75060,note_on,0,0,0,,,,,,,,,13,,79,100
75060,note_on,0,0,0,,,,,,,,,13,,76,100
75090,note_on,30,0,0,,,,,,,,,13,,76,0
75090,note_on,0,0,0,,,,,,,,,0,,79,0
75090,note_on,0,0,0,,,,,,,,,13,,79,0
75090,note_on,0,0,0,,,,,,,,,5,,79,0
75090,note_on,0,0,0,,,,,,,,,6,,76,0
75105,note_on,15,0,0,,,,,,,,,15,,69,0
75105,note_on,0,0,0,,,,,,,,,10,,49,0
75105,note_on,0,0,0,,,,,,,,,0,,61,0
75105,note_on,0,0,0,,,,,,,,,15,,67,0
75105,note_on,0,0,0,,,,,,,,,14,,61,0
75105,note_on,0,0,0,,,,,,,,,7,,69,0
75105,note_on,0,0,0,,,,,,,,,15,,64,0
75105,note_on,0,0,0,,,,,,,,,8,,61,0
75105,note_on,0,0,0,,,,,,,,,15,,61,0
75120,note_on,15,0,0,,,,,,,,,0,,62,100
75120,note_on,0,0,0,,,,,,,,,0,,78,100
75120,note_on,0,0,0,,,,,,,,,5,,78,100
75120,note_on,0,0,0,,,,,,,,,6,,69,100
75120,note_on,0,0,0,,,,,,,,,7,,62,100
75120,note_on,0,0,0,,,,,,,,,8,,62,100
75120,note_on,0,0,0,,,,,,,,,10,,50,100
75120,note_on,0,0,0,,,,,,,,,13,,78,100
75120,note_on,0,0,0,,,,,,,,,13,,69,100
75120,note_on,0,0,0,,,,,,,,,14,,62,100
75120,note_on,0,0,0,,,,,,,,,15,,66,100
75120,note_on,0,0,0,,,,,,,,,15,,69,100
75120,note_on,0,0,0,,,,,,,,,15,,62,100
75150,note_on,30,0,0,,,,,,,,,15,,62,0
75150,note_on,0,0,0,,,,,,,,,0,,78,0
75150,note_on,0,0,0,,,,,,,,,13,,69,0
75150,note_on,0,0,0,,,,,,,,,10,,50,0
75150,note_on,0,0,0,,,,,,,,,0,,62,0
75150,note_on,0,0,0,,,,,,,,,5,,78,0
75150,note_on,0,0,0,,,,,,,,,13,,78,0
75150,note_on,0,0,0,,,,,,,,,6,,69,0
75150,note_on,0,0,0,,,,,,,,,8,,62,0
75150,note_on,0,0,0,,,,,,,,,14,,62,0
75180,note_on,30,0,0,,,,,,,,,0,,57,100
75180,note_on,0,0,0,,,,,,,,,0,,73,100
75180,note_on,0,0,0,,,,,,,,,5,,73,100
75180,note_on,0,0,0,,,,,,,,,6,,67,100
75180,note_on,0,0,0,,,,,,,,,8,,57,100
75180,note_on,0,0,0,,,,,,,,,10,,45,100
75180,note_on,0,0,0,,,,,,,,,13,,73,100
75180,note_on,0,0,0,,,,,,,,,13,,67,100
75180,note_on,0,0,0,,,,,,,,,14,,57,100
75180,note_on,0,0,0,,,,,,,,,15,,57,100
75210,note_on,30,0,0,,,,,,,,,15,,57,0
75210,note_on,0,0,0,,,,,,,,,5,,73,0
75210,note_on,0,0,0,,,,,,,,,13,,73,0
75210,note_on,0,0,0,,,,,,,,,8,,57,0
75210,note_on,0,0,0,,,,,,,,,6,,67,0
75210,note_on,0,0,0,,,,,,,,,0,,57,0
75210,note_on,0,0,0,,,,,,,,,10,,45,0
75210,note_on,0,0,0,,,,,,,,,0,,73,0
75210,note_on,0,0,0,,,,,,,,,13,,67,0
75210,note_on,0,0,0,,,,,,,,,14,,57,0
75225,note_on,15,0,0,,,,,,,,,7,,62,0
75225,note_on,0,0,0,,,,,,,,,15,,66,0
75225,note_on,0,0,0,,,,,,,,,15,,69,0
75240,note_on,15,0,0,,,,,,,,,0,,59,100
75240,note_on,0,0,0,,,,,,,,,0,,74,100
75240,note_on,0,0,0,,,,,,,,,5,,74,100
75240,note_on,0,0,0,,,,,,,,,6,,66,100
75240,note_on,0,0,0,,,,,,,,,8,,59,100
75240,note_on,0,0,0,,,,,,,,,10,,47,100
75240,note_on,0,0,0,,,,,,,,,13,,74,100
75240,note_on,0,0,0,,,,,,,,,13,,66,100
75240,note_on,0,0,0,,,,,,,,,14,,59,100
75240,note_on,0,0,0,,,,,,,,,15,,62,100
75240,note_on,0,0,0,,,,,,,,,15,,71,100
75240,note_on,0,0,0,,,,,,,,,15,,66,100
75240,note_on,0,0,0,,,,,,,,,15,,59,100
75270,note_on,30,0,0,,,,,,,,,15,,59,0
75270,note_on,0,0,0,,,,,,,,,0,,74,0
75270,note_on,0,0,0,,,,,,,,,13,,66,0
75270,note_on,0,0,0,,,,,,,,,13,,74,0
75270,note_on,0,0,0,,,,,,,,,0,,59,0
75270,note_on,0,0,0,,,,,,,,,6,,66,0
75270,note_on,0,0,0,,,,,,,,,5,,74,0
75270,note_on,0,0,0,,,,,,,,,8,,59,0
75270,note_on,0,0,0,,,,,,,,,10,,47,0
75270,note_on,0,0,0,,,,,,,,,14,,59,0
75300,note_on,30,0,0,,,,,,,,,0,,55,100
75300,note_on,0,0,0,,,,,,,,,0,,76,100
75300,note_on,0,0,0,,,,,,,,,5,,76,100
75300,note_on,0,0,0,,,,,,,,,6,,67,100
75300,note_on,0,0,0,,,,,,,,,7,,71,100
75300,note_on,0,0,0,,,,,,,,,8,,55,100
75300,note_on,0,0,0,,,,,,,,,10,,43,100
75300,note_on,0,0,0,,,,,,,,,13,,76,100
75300,note_on,0,0,0,,,,,,,,,13,,67,100
75300,note_on,0,0,0,,,,,,,,,14,,55,100
75300,note_on,0,0,0,,,,,,,,,15,,55,100
75330,note_on,30,0,0,,,,,,,,,15,,55,0
75330,note_on,0,0,0,,,,,,,,,0,,76,0
75330,note_on,0,0,0,,,,,,,,,5,,76,0
75330,note_on,0,0,0,,,,,,,,,10,,43,0
75330,note_on,0,0,0,,,,,,,,,7,,71,0
75330,note_on,0,0,0,,,,,,,,,6,,67,0
75330,note_on,0,0,0,,,,,,,,,0,,55,0
75330,note_on,0,0,0,,,,,,,,,8,,55,0
75330,note_on,0,0,0,,,,,,,,,13,,67,0
75330,note_on,0,0,0,,,,,,,,,13,,76,0
75330,note_on,0,0,0,,,,,,,,,14,,55,0
75340,note_on,10,0,0,,,,,,,,,15,,62,0
75340,note_on,0,0,0,,,,,,,,,15,,71,0
75340,note_on,0,0,0,,,,,,,,,15,,66,0
75360,note_on,20,0,0,,,,,,,,,0,,57,100
75360,note_on,0,0,0,,,,,,,,,0,,69,100
75360,note_on,0,0,0,,,,,,,,,5,,69,100
75360,note_on,0,0,0,,,,,,,,,6,,61,100
75360,note_on,0,0,0,,,,,,,,,7,,64,100
75360,note_on,0,0,0,,,,,,,,,8,,57,100
75360,note_on,0,0,0,,,,,,,,,10,,45,100
75360,note_on,0,0,0,,,,,,,,,13,,69,100
75360,note_on,0,0,0,,,,,,,,,13,,69,100
75360,note_on,0,0,0,,,,,,,,,14,,57,100
75360,note_on,0,0,0,,,,,,,,,15,,69,100
75360,note_on,0,0,0,,,,,,,,,15,,64,100
75360,note_on,0,0,0,,,,,,,,,15,,74,100
75360,note_on,0,0,0,,,,,,,,,15,,57,100
75450,note_on,90,0,0,,,,,,,,,13,,69,0
75450,note_on,0,0,0,,,,,,,,,13,,69,0
75450,note_on,0,0,0,,,,,,,,,7,,64,0
75450,note_on,0,0,0,,,,,,,,,0,,57,0
75450,note_on,0,0,0,,,,,,,,,6,,61,0
75450,note_on,0,0,0,,,,,,,,,5,,69,0
75450,note_on,0,0,0,,,,,,,,,0,,69,0
75465,note_on,15,0,0,,,,,,,,,10,,45,0
75465,note_on,0,0,0,,,,,,,,,15,,57,0
75465,note_on,0,0,0,,,,,,,,,15,,74,0
75465,note_on,0,0,0,,,,,,,,,15,,69,0
75465,note_on,0,0,0,,,,,,,,,8,,57,0
75465,note_on,0,0,0,,,,,,,,,15,,64,0
75465,note_on,0,0,0,,,,,,,,,14,,57,0
75480,note_on,15,0,0,,,,,,,,,0,,45,100
75480,note_on,0,0,0,,,,,,,,,0,,74,100
75480,note_on,0,0,0,,,,,,,,,5,,85,100
75480,note_on,0,0,0,,,,,,,,,6,,76,100
75480,note_on,0,0,0,,,,,,,,,7,,69,100
75480,note_on,0,0,0,,,,,,,,,8,,45,100
75480,note_on,0,0,0,,,,,,,,,10,,33,100
75480,note_on,0,0,0,,,,,,,,,13,,73,100
75480,note_on,0,0,0,,,,,,,,,13,,76,100
75480,note_on,0,0,0,,,,,,,,,14,,45,100
75480,note_on,0,0,0,,,,,,,,,15,,64,100
75480,note_on,0,0,0,,,,,,,,,15,,67,100
75480,note_on,0,0,0,,,,,,,,,15,,73,100
75480,note_on,0,0,0,,,,,,,,,15,,45,100
75495,note_on,15,0,0,,,,,,,,,0,,74,0
75495,note_on,0,0,0,,,,,,,,,0,,73,100
75510,note_on,15,0,0,,,,,,,,,0,,73,0
75510,note_on,0,0,0,,,,,,,,,0,,74,100
75525,note_on,15,0,0,,,,,,,,,0,,74,0
75525,note_on,0,0,0,,,,,,,,,0,,73,100
75540,note_on,15,0,0,,,,,,,,,0,,73,0
75540,note_on,0,0,0,,,,,,,,,0,,74,100
75555,note_on,15,0,0,,,,,,,,,0,,74,0
75555,note_on,0,0,0,,,,,,,,,0,,73,100
75570,note_on,15,0,0,,,,,,,,,0,,73,0
75570,note_on,0,0,0,,,,,,,,,0,,71,100
75585,note_on,15,0,0,,,,,,,,,0,,71,0
75585,note_on,0,0,0,,,,,,,,,8,,45,0
75585,note_on,0,0,0,,,,,,,,,10,,33,0
75585,note_on,0,0,0,,,,,,,,,5,,85,0
75585,note_on,0,0,0,,,,,,,,,13,,76,0
75585,note_on,0,0,0,,,,,,,,,6,,76,0
75585,note_on,0,0,0,,,,,,,,,7,,69,0
75585,note_on,0,0,0,,,,,,,,,0,,45,0
75585,note_on,0,0,0,,,,,,,,,15,,73,0
75585,note_on,0,0,0,,,,,,,,,15,,67,0
75585,note_on,0,0,0,,,,,,,,,14,,45,0
75585,note_on,0,0,0,,,,,,,,,13,,73,0
75585,note_on,0,0,0,,,,,,,,,15,,45,0
75585,note_on,0,0,0,,,,,,,,,15,,64,0
75585,note_on,0,0,0,,,,,,,,,0,,73,100
75600,note_on,15,0,0,,,,,,,,,0,,73,0
75600,note_on,0,0,0,,,,,,,,,0,,50,100
75600,note_on,0,0,0,,,,,,,,,0,,74,100
75600,note_on,0,0,0,,,,,,,,,5,,86,100
75600,note_on,0,0,0,,,,,,,,,6,,78,100
75600,note_on,0,0,0,,,,,,,,,7,,69,100
75600,note_on,0,0,0,,,,,,,,,8,,50,100
75600,note_on,0,0,0,,,,,,,,,10,,38,100
75600,note_on,0,0,0,,,,,,,,,13,,74,100
75600,note_on,0,0,0,,,,,,,,,14,,50,100
75600,note_on,0,0,0,,,,,,,,,15,,62,100
75600,note_on,0,0,0,,,,,,,,,15,,66,100
75600,note_on,0,0,0,,,,,,,,,15,,74,100
75600,note_on,0,0,0,,,,,,,,,15,,50,100
75630,note_on,30,0,0,,,,,,,,,5,,86,0
75660,note_on,30,0,0,,,,,,,,,5,,69,100
75670,note_on,10,0,0,,,,,,,,,15,,66,0
75670,note_on,0,0,0,,,,,,,,,15,,62,0
75670,note_on,0,0,0,,,,,,,,,15,,74,0
75675,note_on,5,0,0,,,,,,,,,14,,50,0
75675,note_on,0,0,0,,,,,,,,,6,,78,0
75675,note_on,0,0,0,,,,,,,,,7,,69,0
75675,note_on,0,0,0,,,,,,,,,13,,74,0
75675,note_on,0,0,0,,,,,,,,,8,,50,0
75675,note_on,0,0,0,,,,,,,,,15,,50,0
75675,note_on,0,0,0,,,,,,,,,10,,38,0
75675,note_on,0,0,0,,,,,,,,,0,,50,0
75675,note_on,0,0,0,,,,,,,,,0,,74,0
75690,note_on,15,0,0,,,,,,,,,5,,69,0
75720,note_on,30,0,0,,,,,,,,,5,,62,100
75780,note_on,60,0,0,,,,,,,,,0,,62,100
75780,note_on,0,0,0,,,,,,,,,0,,78,100
75780,note_on,0,0,0,,,,,,,,,3,,62,100
75780,note_on,0,0,0,,,,,,,,,3,,78,100
75810,note_on,30,0,0,,,,,,,,,3,,78,0
75810,note_on,0,0,0,,,,,,,,,0,,78,0
75810,note_on,0,0,0,,,,,,,,,3,,62,0
75810,note_on,0,0,0,,,,,,,,,0,,62,0
75825,note_on,15,0,0,,,,,,,,,5,,62,0
75840,note_on,15,0,0,,,,,,,,,0,,56,100
75840,note_on,0,0,0,,,,,,,,,0,,78,100
75840,note_on,0,0,0,,,,,,,,,3,,56,100
75840,note_on,0,0,0,,,,,,,,,3,,78,100
75900,note_on,60,0,0,,,,,,,,,3,,78,0
75900,note_on,0,0,0,,,,,,,,,0,,78,0
75900,note_on,0,0,0,,,,,,,,,0,,76,100
75900,note_on,0,0,0,,,,,,,,,3,,76,100
75930,note_on,30,0,0,,,,,,,,,3,,76,0
75930,note_on,0,0,0,,,,,,,,,0,,76,0
75945,note_on,15,0,0,,,,,,,,,3,,56,0
75945,note_on,0,0,0,,,,,,,,,0,,56,0
75960,note_on,15,0,0,,,,,,,,,0,,76,100
75960,note_on,0,0,0,,,,,,,,,0,,52,100
75960,note_on,0,0,0,,,,,,,,,3,,76,100
75960,note_on,0,0,0,,,,,,,,,3,,52,100
76020,note_on,60,0,0,,,,,,,,,3,,76,0
76020,note_on,0,0,0,,,,,,,,,0,,76,0
76020,note_on,0,0,0,,,,,,,,,0,,74,100
76020,note_on,0,0,0,,,,,,,,,3,,74,100
76050,note_on,30,0,0,,,,,,,,,3,,74,0
76050,note_on,0,0,0,,,,,,,,,0,,74,0
76065,note_on,15,0,0,,,,,,,,,0,,52,0
76065,note_on,0,0,0,,,,,,,,,3,,52,0
76080,note_on,15,0,0,,,,,,,,,0,,57,100
76080,note_on,0,0,0,,,,,,,,,0,,73,100
76080,note_on,0,0,0,,,,,,,,,3,,57,100
76080,note_on,0,0,0,,,,,,,,,3,,73,100
76110,note_on,30,0,0,,,,,,,,,3,,73,0
76110,note_on,0,0,0,,,,,,,,,0,,73,0
76110,note_on,0,0,0,,,,,,,,,0,,71,100
76110,note_on,0,0,0,,,,,,,,,3,,71,100
76140,note_on,30,0,0,,,,,,,,,3,,71,0
76140,note_on,0,0,0,,,,,,,,,0,,71,0
76140,note_on,0,0,0,,,,,,,,,0,,69,100
76140,note_on,0,0,0,,,,,,,,,3,,69,100
76170,note_on,30,0,0,,,,,,,,,3,,69,0
76170,note_on,0,0,0,,,,,,,,,0,,69,0
76185,note_on,15,0,0,,,,,,,,,3,,57,0
76185,note_on,0,0,0,,,,,,,,,0,,57,0
76200,note_on,15,0,0,,,,,,,,,0,,45,100
76200,note_on,0,0,0,,,,,,,,,3,,45,100
76230,note_on,30,0,0,,,,,,,,,0,,73,100
76230,note_on,0,0,0,,,,,,,,,3,,73,100
76260,note_on,30,0,0,,,,,,,,,3,,73,0
76260,note_on,0,0,0,,,,,,,,,0,,73,0
76260,note_on,0,0,0,,,,,,,,,0,,74,100
76260,note_on,0,0,0,,,,,,,,,3,,74,100
76290,note_on,30,0,0,,,,,,,,,3,,74,0
76290,note_on,0,0,0,,,,,,,,,0,,74,0
76290,note_on,0,0,0,,,,,,,,,0,,76,100
76290,note_on,0,0,0,,,,,,,,,3,,76,100
76305,note_on,15,0,0,,,,,,,,,3,,45,0
76305,note_on,0,0,0,,,,,,,,,0,,45,0
76320,note_on,15,0,0,,,,,,,,,0,,76,0
76320,note_on,0,0,0,,,,,,,,,3,,76,0
76320,note_on,0,0,0,,,,,,,,,0,,78,100
76320,note_on,0,0,0,,,,,,,,,0,,50,100
76320,note_on,0,0,0,,,,,,,,,3,,78,100
76320,note_on,0,0,0,,,,,,,,,3,,50,100
76380,note_on,60,0,0,,,,,,,,,3,,78,0
76380,note_on,0,0,0,,,,,,,,,0,,78,0
76380,note_on,0,0,0,,,,,,,,,0,,73,100
76380,note_on,0,0,0,,,,,,,,,3,,73,100
76425,note_on,45,0,0,,,,,,,,,0,,73,0
76440,note_on,15,0,0,,,,,,,,,3,,50,0
76440,note_on,0,0,0,,,,,,,,,0,,50,0
76440,note_on,0,0,0,,,,,,,,,3,,73,0
76440,note_on,0,0,0,,,,,,,,,0,,73,100
76440,note_on,0,0,0,,,,,,,,,0,,51,100
76440,note_on,0,0,0,,,,,,,,,3,,71,100
76440,note_on,0,0,0,,,,,,,,,3,,51,100
76446,set_tempo,6,1,0,,,,,,526362,,,,,,
76451,set_tempo,5,1,0,,,,,,531020,,,,,,
76454,set_tempo,3,1,0,,,,,,535762,,,,,,
76455,note_on,1,0,0,,,,,,,,,0,,73,0
76455,note_on,0,0,0,,,,,,,,,0,,71,100
76457,set_tempo,2,1,0,,,,,,540589,,,,,,
76460,set_tempo,3,1,0,,,,,,545504,,,,,,
76465,set_tempo,5,1,0,,,,,,550509,,,,,,
76468,set_tempo,3,1,0,,,,,,555607,,,,,,
76470,note_on,2,0,0,,,,,,,,,0,,71,0
76470,note_on,0,0,0,,,,,,,,,0,,73,100
76471,set_tempo,1,1,0,,,,,,560800,,,,,,
76474,set_tempo,3,1,0,,,,,,566091,,,,,,
76479,set_tempo,5,1,0,,,,,,571483,,,,,,
76482,set_tempo,3,1,0,,,,,,576979,,,,,,
76485,set_tempo,3,1,0,,,,,,582581,,,,,,
76485,note_on,0,0,0,,,,,,,,,0,,73,0
76485,note_on,0,0,0,,,,,,,,,0,,71,100
76488,set_tempo,3,1,0,,,,,,588293,,,,,,
76493,set_tempo,5,1,0,,,,,,594118,,,,,,
76496,set_tempo,3,1,0,,,,,,600060,,,,,,
76499,set_tempo,3,1,0,,,,,,606122,,,,,,
76500,note_on,1,0,0,,,,,,,,,0,,71,0
76500,note_on,0,0,0,,,,,,,,,3,,71,0
76500,note_on,0,0,0,,,,,,,,,0,,69,100
76500,note_on,0,0,0,,,,,,,,,3,,69,100
76502,set_tempo,2,1,0,,,,,,612307,,,,,,
76505,set_tempo,3,1,0,,,,,,618620,,,,,,
76509,set_tempo,4,1,0,,,,,,625065,,,,,,
76513,set_tempo,4,1,0,,,,,,631645,,,,,,
76516,set_tempo,3,1,0,,,,,,638366,,,,,,
76519,set_tempo,3,1,0,,,,,,645231,,,,,,
76523,set_tempo,4,1,0,,,,,,652245,,,,,,
76526,set_tempo,3,1,0,,,,,,659413,,,,,,
76529,set_tempo,3,1,0,,,,,,666741,,,,,,
76533,set_tempo,4,1,0,,,,,,674233,,,,,,
76537,set_tempo,4,1,0,,,,,,681896,,,,,,
76540,set_tempo,3,1,0,,,,,,689734,,,,,,
76543,set_tempo,3,1,0,,,,,,697756,,,,,,
76545,note_on,2,0,0,,,,,,,,,0,,69,0
76546,set_tempo,1,1,0,,,,,,705965,,,,,,
76549,set_tempo,3,1,0,,,,,,714371,,,,,,
76554,set_tempo,5,1,0,,,,,,722979,,,,,,
76557,set_tempo,3,1,0,,,,,,731797,,,,,,
76560,set_tempo,3,1,0,,,,,,740832,,,,,,
76560,note_on,0,0,0,,,,,,,,,3,,51,0
76560,note_on,0,0,0,,,,,,,,,0,,51,0
76560,note_on,0,0,0,,,,,,,,,3,,69,0
76560,note_on,0,0,0,,,,,,,,,0,,69,100
76560,note_on,0,0,0,,,,,,,,,0,,52,100
76560,note_on,0,0,0,,,,,,,,,3,,69,100
76560,note_on,0,0,0,,,,,,,,,3,,52,100
76563,set_tempo,3,1,0,,,,,,750094,,,,,,
76568,set_tempo,5,1,0,,,,,,759590,,,,,,
76570,note_on,2,0,0,,,,,,,,,3,,69,0
76570,note_on,0,0,0,,,,,,,,,0,,69,0
76570,note_on,0,0,0,,,,,,,,,0,,68,100
76570,note_on,0,0,0,,,,,,,,,3,,68,100
76571,set_tempo,1,1,0,,,,,,769329,,,,,,
76574,set_tempo,3,1,0,,,,,,779322,,,,,,
76577,set_tempo,3,1,0,,,,,,789578,,,,,,
76580,note_on,3,0,0,,,,,,,,,3,,68,0
76580,note_on,0,0,0,,,,,,,,,0,,68,0
76580,note_on,0,0,0,,,,,,,,,0,,69,100
76580,note_on,0,0,0,,,,,,,,,3,,69,100
76582,set_tempo,2,1,0,,,,,,800107,,,,,,
76585,set_tempo,3,1,0,,,,,,810920,,,,,,
76588,set_tempo,3,1,0,,,,,,822030,,,,,,
76590,note_on,2,0,0,,,,,,,,,3,,69,0
76590,note_on,0,0,0,,,,,,,,,0,,69,0
76590,note_on,0,0,0,,,,,,,,,0,,68,100
76590,note_on,0,0,0,,,,,,,,,3,,68,100
76591,set_tempo,1,1,0,,,,,,833449,,,,,,
76594,set_tempo,3,1,0,,,,,,845189,,,,,,
76597,set_tempo,3,1,0,,,,,,857265,,,,,,
76599,set_tempo,2,1,0,,,,,,983768,,,,,,
76600,set_tempo,1,1,0,,,,,,1154068,,,,,,
76600,note_on,0,0,0,,,,,,,,,3,,68,0
76600,note_on,0,0,0,,,,,,,,,0,,68,0
76600,note_on,0,0,0,,,,,,,,,0,,66,100
76600,note_on,0,0,0,,,,,,,,,3,,66,100
76602,set_tempo,2,1,0,,,,,,1363946,,,,,,
76620,note_on,18,0,0,,,,,,,,,3,,66,0
76620,note_on,0,0,0,,,,,,,,,0,,66,0
76620,note_on,0,0,0,,,,,,,,,0,,64,100
76620,note_on,0,0,0,,,,,,,,,3,,64,100
76640,set_tempo,20,1,0,,,,,,1428912,,,,,,
76642,set_tempo,2,1,0,,,,,,1395673,,,,,,
76646,set_tempo,4,1,0,,,,,,1363946,,,,,,
76650,note_on,4,0,0,,,,,,,,,3,,64,0
76650,note_on,0,0,0,,,,,,,,,3,,52,0
76650,note_on,0,0,0,,,,,,,,,0,,52,0
76650,note_on,0,0,0,,,,,,,,,0,,64,0
76651,set_tempo,1,1,0,,,,,,1333630,,,,,,
76656,set_tempo,5,1,0,,,,,,1428912,,,,,,
76657,set_tempo,1,1,0,,,,,,759590,,,,,,
76659,set_tempo,2,1,0,,,,,,697756,,,,,,
76660,set_tempo,1,1,0,,,,,,645231,,,,,,
76662,set_tempo,2,1,0,,,,,,600060,,,,,,
76663,set_tempo,1,1,0,,,,,,560800,,,,,,
76665,set_tempo,2,1,0,,,,,,526362,,,,,,
76710,note_on,45,0,0,,,,,,,,,0,,76,100
76710,note_on,0,0,0,,,,,,,,,3,,76,100
76740,note_on,30,0,0,,,,,,,,,3,,76,0
76740,note_on,0,0,0,,,,,,,,,0,,76,0
76740,note_on,0,0,0,,,,,,,,,0,,38,100
76740,note_on,0,0,0,,,,,,,,,0,,78,100
76740,note_on,0,0,0,,,,,,,,,0,,59,100
76740,note_on,0,0,0,,,,,,,,,0,,26,100
76740,note_on,0,0,0,,,,,,,,,3,,38,100
76740,note_on,0,0,0,,,,,,,,,3,,78,100
76740,note_on,0,0,0,,,,,,,,,3,,59,100
76740,note_on,0,0,0,,,,,,,,,3,,26,100
76760,note_on,20,0,0,,,,,,,,,3,,59,0
76760,note_on,0,0,0,,,,,,,,,0,,59,0
76770,note_on,10,0,0,,,,,,,,,3,,78,0
76770,note_on,0,0,0,,,,,,,,,0,,78,0
76770,note_on,0,0,0,,,,,,,,,0,,26,0
76770,note_on,0,0,0,,,,,,,,,3,,38,0
76770,note_on,0,0,0,,,,,,,,,0,,38,0
76770,note_on,0,0,0,,,,,,,,,3,,26,0
76770,note_on,0,0,0,,,,,,,,,0,,76,100
76770,note_on,0,0,0,,,,,,,,,0,,61,100
76770,note_on,0,0,0,,,,,,,,,3,,76,100
76770,note_on,0,0,0,,,,,,,,,3,,61,100
76790,note_on,20,0,0,,,,,,,,,3,,61,0
76790,note_on,0,0,0,,,,,,,,,0,,76,0
76790,note_on,0,0,0,,,,,,,,,0,,61,0
76790,note_on,0,0,0,,,,,,,,,3,,76,0
76800,note_on,10,0,0,,,,,,,,,0,,66,100
76800,note_on,0,0,0,,,,,,,,,0,,62,100
76800,note_on,0,0,0,,,,,,,,,3,,66,100
76800,note_on,0,0,0,,,,,,,,,3,,62,100
76820,note_on,20,0,0,,,,,,,,,3,,62,0
76820,note_on,0,0,0,,,,,,,,,0,,66,0
76820,note_on,0,0,0,,,,,,,,,0,,62,0
76820,note_on,0,0,0,,,,,,,,,3,,66,0
76830,note_on,10,0,0,,,,,,,,,0,,76,100
76830,note_on,0,0,0,,,,,,,,,3,,76,100
76860,note_on,30,0,0,,,,,,,,,3,,76,0
76860,note_on,0,0,0,,,,,,,,,0,,76,0
76860,note_on,0,0,0,,,,,,,,,0,,27,100
76860,note_on,0,0,0,,,,,,,,,0,,39,100
76860,note_on,0,0,0,,,,,,,,,0,,63,100
76860,note_on,0,0,0,,,,,,,,,0,,78,100
76860,note_on,0,0,0,,,,,,,,,3,,27,100
76860,note_on,0,0,0,,,,,,,,,3,,39,100
76860,note_on,0,0,0,,,,,,,,,3,,63,100
76860,note_on,0,0,0,,,,,,,,,3,,78,100
76890,note_on,30,0,0,,,,,,,,,3,,78,0
76890,note_on,0,0,0,,,,,,,,,0,,27,0
76890,note_on,0,0,0,,,,,,,,,3,,27,0
76890,note_on,0,0,0,,,,,,,,,0,,39,0
76890,note_on,0,0,0,,,,,,,,,0,,63,0
76890,note_on,0,0,0,,,,,,,,,0,,78,0
76890,note_on,0,0,0,,,,,,,,,3,,39,0
76890,note_on,0,0,0,,,,,,,,,3,,63,0
76890,note_on,0,0,0,,,,,,,,,0,,76,100
76890,note_on,0,0,0,,,,,,,,,3,,76,100
76910,note_on,20,0,0,,,,,,,,,3,,76,0
76910,note_on,0,0,0,,,,,,,,,0,,76,0
76920,note_on,10,0,0,,,,,,,,,0,,64,100
76920,note_on,0,0,0,,,,,,,,,0,,68,100
76920,note_on,0,0,0,,,,,,,,,3,,64,100
76920,note_on,0,0,0,,,,,,,,,3,,68,100
76940,note_on,20,0,0,,,,,,,,,3,,68,0
76940,note_on,0,0,0,,,,,,,,,0,,64,0
76940,note_on,0,0,0,,,,,,,,,0,,68,0
76940,note_on,0,0,0,,,,,,,,,3,,64,0
76950,note_on,10,0,0,,,,,,,,,0,,76,100
76950,note_on,0,0,0,,,,,,,,,3,,76,100
76980,note_on,30,0,0,,,,,,,,,3,,76,0
76980,note_on,0,0,0,,,,,,,,,0,,76,0
76980,note_on,0,0,0,,,,,,,,,0,,28,100
76980,note_on,0,0,0,,,,,,,,,0,,40,100
76980,note_on,0,0,0,,,,,,,,,0,,66,100
76980,note_on,0,0,0,,,,,,,,,0,,78,100
76980,note_on,0,0,0,,,,,,,,,3,,28,100
76980,note_on,0,0,0,,,,,,,,,3,,40,100
76980,note_on,0,0,0,,,,,,,,,3,,66,100
76980,note_on,0,0,0,,,,,,,,,3,,78,100
77010,note_on,30,0,0,,,,,,,,,3,,78,0
77010,note_on,0,0,0,,,,,,,,,0,,28,0
77010,note_on,0,0,0,,,,,,,,,3,,28,0
77010,note_on,0,0,0,,,,,,,,,0,,40,0
77010,note_on,0,0,0,,,,,,,,,0,,66,0
77010,note_on,0,0,0,,,,,,,,,0,,78,0
77010,note_on,0,0,0,,,,,,,,,3,,40,0
77010,note_on,0,0,0,,,,,,,,,3,,66,0
77010,note_on,0,0,0,,,,,,,,,0,,76,100
77010,note_on,0,0,0,,,,,,,,,3,,76,100
77030,note_on,20,0,0,,,,,,,,,3,,76,0
77030,note_on,0,0,0,,,,,,,,,0,,76,0
77040,note_on,10,0,0,,,,,,,,,0,,67,100
77040,note_on,0,0,0,,,,,,,,,3,,67,100
77060,note_on,20,0,0,,,,,,,,,3,,67,0
77060,note_on,0,0,0,,,,,,,,,0,,67,0
77070,note_on,10,0,0,,,,,,,,,0,,76,100
77070,note_on,0,0,0,,,,,,,,,3,,76,100
77090,note_on,20,0,0,,,,,,,,,0,,28,100
77090,note_on,0,0,0,,,,,,,,,3,,28,100
77100,note_on,10,0,0,,,,,,,,,3,,76,0
77100,note_on,0,0,0,,,,,,,,,0,,76,0
77100,note_on,0,0,0,,,,,,,,,0,,78,100
77100,note_on,0,0,0,,,,,,,,,0,,68,100
77100,note_on,0,0,0,,,,,,,,,0,,40,100
77100,note_on,0,0,0,,,,,,,,,3,,78,100
77100,note_on,0,0,0,,,,,,,,,3,,68,100
77100,note_on,0,0,0,,,,,,,,,3,,40,100
77120,note_on,20,0,0,,,,,,,,,0,,28,0
77120,note_on,0,0,0,,,,,,,,,3,,28,0
77130,note_on,10,0,0,,,,,,,,,3,,78,0
77130,note_on,0,0,0,,,,,,,,,0,,78,0
77130,note_on,0,0,0,,,,,,,,,0,,40,0
77130,note_on,0,0,0,,,,,,,,,3,,40,0
77130,note_on,0,0,0,,,,,,,,,3,,68,0
77130,note_on,0,0,0,,,,,,,,,0,,68,0
77130,note_on,0,0,0,,,,,,,,,0,,76,100
77130,note_on,0,0,0,,,,,,,,,3,,76,100
77150,note_on,20,0,0,,,,,,,,,3,,76,0
77150,note_on,0,0,0,,,,,,,,,0,,76,0
77160,note_on,10,0,0,,,,,,,,,0,,30,100
77160,note_on,0,0,0,,,,,,,,,0,,42,100
77160,note_on,0,0,0,,,,,,,,,0,,74,100
77160,note_on,0,0,0,,,,,,,,,3,,30,100
77160,note_on,0,0,0,,,,,,,,,3,,42,100
77160,note_on,0,0,0,,,,,,,,,3,,74,100
77180,note_on,20,0,0,,,,,,,,,3,,74,0
77180,note_on,0,0,0,,,,,,,,,0,,74,0
77190,note_on,10,0,0,,,,,,,,,3,,30,0
77190,note_on,0,0,0,,,,,,,,,0,,30,0
77190,note_on,0,0,0,,,,,,,,,0,,42,0
77190,note_on,0,0,0,,,,,,,,,3,,42,0
77190,note_on,0,0,0,,,,,,,,,0,,64,100
77190,note_on,0,0,0,,,,,,,,,3,,64,100
77220,note_on,30,0,0,,,,,,,,,3,,64,0
77220,note_on,0,0,0,,,,,,,,,0,,64,0
77220,note_on,0,0,0,,,,,,,,,0,,32,100
77220,note_on,0,0,0,,,,,,,,,0,,44,100
77220,note_on,0,0,0,,,,,,,,,0,,66,100
77220,note_on,0,0,0,,,,,,,,,3,,32,100
77220,note_on,0,0,0,,,,,,,,,3,,44,100
77220,note_on,0,0,0,,,,,,,,,3,,66,100
77250,note_on,30,0,0,,,,,,,,,3,,66,0
77250,note_on,0,0,0,,,,,,,,,0,,44,0
77250,note_on,0,0,0,,,,,,,,,0,,66,0
77250,note_on,0,0,0,,,,,,,,,0,,32,0
77250,note_on,0,0,0,,,,,,,,,3,,44,0
77250,note_on,0,0,0,,,,,,,,,3,,32,0
77250,note_on,0,0,0,,,,,,,,,0,,64,100
77250,note_on,0,0,0,,,,,,,,,3,,64,100
77270,note_on,20,0,0,,,,,,,,,3,,64,0
77270,note_on,0,0,0,,,,,,,,,0,,64,0
77280,note_on,10,0,0,,,,,,,,,0,,33,100
77280,note_on,0,0,0,,,,,,,,,0,,45,100
77280,note_on,0,0,0,,,,,,,,,0,,73,100
77280,note_on,0,0,0,,,,,,,,,3,,33,100
77280,note_on,0,0,0,,,,,,,,,3,,45,100
77280,note_on,0,0,0,,,,,,,,,3,,73,100
77300,note_on,20,0,0,,,,,,,,,3,,73,0
77300,note_on,0,0,0,,,,,,,,,0,,45,0
77300,note_on,0,0,0,,,,,,,,,0,,73,0
77300,note_on,0,0,0,,,,,,,,,3,,45,0
77310,note_on,10,0,0,,,,,,,,,0,,33,0
77310,note_on,0,0,0,,,,,,,,,3,,33,0
77310,note_on,0,0,0,,,,,,,,,0,,40,100
77310,note_on,0,0,0,,,,,,,,,0,,64,100
77310,note_on,0,0,0,,,,,,,,,3,,40,100
77310,note_on,0,0,0,,,,,,,,,3,,64,100
77330,note_on,20,0,0,,,,,,,,,3,,40,0
77330,note_on,0,0,0,,,,,,,,,0,,40,0
77340,note_on,10,0,0,,,,,,,,,0,,64,0
77340,note_on,0,0,0,,,,,,,,,3,,64,0
77340,note_on,0,0,0,,,,,,,,,0,,37,100
77340,note_on,0,0,0,,,,,,,,,0,,66,100
77340,note_on,0,0,0,,,,,,,,,3,,37,100
77340,note_on,0,0,0,,,,,,,,,3,,66,100
77360,note_on,20,0,0,,,,,,,,,3,,37,0
77360,note_on,0,0,0,,,,,,,,,0,,37,0
77370,note_on,10,0,0,,,,,,,,,0,,66,0
77370,note_on,0,0,0,,,,,,,,,3,,66,0
77370,note_on,0,0,0,,,,,,,,,0,,40,100
77370,note_on,0,0,0,,,,,,,,,0,,64,100
77370,note_on,0,0,0,,,,,,,,,3,,40,100
77370,note_on,0,0,0,,,,,,,,,3,,64,100
77390,note_on,20,0,0,,,,,,,,,3,,64,0
77390,note_on,0,0,0,,,,,,,,,0,,40,0
77390,note_on,0,0,0,,,,,,,,,0,,64,0
77390,note_on,0,0,0,,,,,,,,,3,,40,0
77400,note_on,10,0,0,,,,,,,,,0,,43,100
77400,note_on,0,0,0,,,,,,,,,0,,71,100
77400,note_on,0,0,0,,,,,,,,,3,,43,100
77400,note_on,0,0,0,,,,,,,,,3,,71,100
77420,note_on,20,0,0,,,,,,,,,3,,71,0
77420,note_on,0,0,0,,,,,,,,,0,,43,0
77420,note_on,0,0,0,,,,,,,,,0,,71,0
77420,note_on,0,0,0,,,,,,,,,3,,43,0
77430,note_on,10,0,0,,,,,,,,,0,,40,100
77430,note_on,0,0,0,,,,,,,,,0,,64,100
77430,note_on,0,0,0,,,,,,,,,3,,40,100
77430,note_on,0,0,0,,,,,,,,,3,,64,100
77450,note_on,20,0,0,,,,,,,,,3,,40,0
77450,note_on,0,0,0,,,,,,,,,0,,40,0
77460,note_on,10,0,0,,,,,,,,,0,,64,0
77460,note_on,0,0,0,,,,,,,,,3,,64,0
77460,note_on,0,0,0,,,,,,,,,0,,37,100
77460,note_on,0,0,0,,,,,,,,,0,,66,100
77460,note_on,0,0,0,,,,,,,,,3,,37,100
77460,note_on,0,0,0,,,,,,,,,3,,66,100
77480,note_on,20,0,0,,,,,,,,,3,,37,0
77480,note_on,0,0,0,,,,,,,,,0,,37,0
77490,note_on,10,0,0,,,,,,,,,0,,66,0
77490,note_on,0,0,0,,,,,,,,,3,,66,0
77490,note_on,0,0,0,,,,,,,,,0,,40,100
77490,note_on,0,0,0,,,,,,,,,0,,64,100
77490,note_on,0,0,0,,,,,,,,,3,,40,100
77490,note_on,0,0,0,,,,,,,,,3,,64,100
77510,note_on,20,0,0,,,,,,,,,3,,64,0
77510,note_on,0,0,0,,,,,,,,,0,,40,0
77510,note_on,0,0,0,,,,,,,,,0,,64,0
77510,note_on,0,0,0,,,,,,,,,3,,40,0
77520,note_on,10,0,0,,,,,,,,,0,,42,100
77520,note_on,0,0,0,,,,,,,,,0,,62,100
77520,note_on,0,0,0,,,,,,,,,3,,42,100
77520,note_on,0,0,0,,,,,,,,,3,,62,100
77540,note_on,20,0,0,,,,,,,,,3,,62,0
77540,note_on,0,0,0,,,,,,,,,0,,42,0
77540,note_on,0,0,0,,,,,,,,,0,,62,0
77540,note_on,0,0,0,,,,,,,,,3,,42,0
77550,note_on,10,0,0,,,,,,,,,0,,37,100
77550,note_on,0,0,0,,,,,,,,,0,,61,100
77550,note_on,0,0,0,,,,,,,,,3,,37,100
77550,note_on,0,0,0,,,,,,,,,3,,61,100
77570,note_on,20,0,0,,,,,,,,,3,,37,0
77570,note_on,0,0,0,,,,,,,,,0,,37,0
77580,note_on,10,0,0,,,,,,,,,0,,61,0
77580,note_on,0,0,0,,,,,,,,,3,,61,0
77580,note_on,0,0,0,,,,,,,,,0,,33,100
77580,note_on,0,0,0,,,,,,,,,0,,62,100
77580,note_on,0,0,0,,,,,,,,,3,,33,100
77580,note_on,0,0,0,,,,,,,,,3,,62,100
77600,note_on,20,0,0,,,,,,,,,3,,33,0
77600,note_on,0,0,0,,,,,,,,,0,,33,0
77610,note_on,10,0,0,,,,,,,,,0,,62,0
77610,note_on,0,0,0,,,,,,,,,3,,62,0
77610,note_on,0,0,0,,,,,,,,,0,,37,100
77610,note_on,0,0,0,,,,,,,,,0,,64,100
77610,note_on,0,0,0,,,,,,,,,3,,37,100
77610,note_on,0,0,0,,,,,,,,,3,,64,100
77630,note_on,20,0,0,,,,,,,,,3,,64,0
77630,note_on,0,0,0,,,,,,,,,0,,37,0
77630,note_on,0,0,0,,,,,,,,,0,,64,0
77630,note_on,0,0,0,,,,,,,,,3,,37,0
77640,note_on,10,0,0,,,,,,,,,0,,38,100
77640,note_on,0,0,0,,,,,,,,,0,,66,100
77640,note_on,0,0,0,,,,,,,,,3,,38,100
77640,note_on,0,0,0,,,,,,,,,3,,66,100
77670,note_on,30,0,0,,,,,,,,,3,,66,0
77670,note_on,0,0,0,,,,,,,,,0,,38,0
77670,note_on,0,0,0,,,,,,,,,0,,66,0
77670,note_on,0,0,0,,,,,,,,,3,,38,0
77670,note_on,0,0,0,,,,,,,,,0,,37,100
77670,note_on,0,0,0,,,,,,,,,0,,68,100
77670,note_on,0,0,0,,,,,,,,,3,,37,100
77670,note_on,0,0,0,,,,,,,,,3,,68,100
77700,note_on,30,0,0,,,,,,,,,3,,68,0
77700,note_on,0,0,0,,,,,,,,,0,,37,0
77700,note_on,0,0,0,,,,,,,,,0,,68,0
77700,note_on,0,0,0,,,,,,,,,3,,37,0
77700,note_on,0,0,0,,,,,,,,,0,,38,100
77700,note_on,0,0,0,,,,,,,,,0,,66,100
77700,note_on,0,0,0,,,,,,,,,3,,38,100
77700,note_on,0,0,0,,,,,,,,,3,,66,100
77720,note_on,20,0,0,,,,,,,,,3,,66,0
77720,note_on,0,0,0,,,,,,,,,0,,38,0
77720,note_on,0,0,0,,,,,,,,,0,,66,0
77720,note_on,0,0,0,,,,,,,,,3,,38,0
77730,note_on,10,0,0,,,,,,,,,0,,47,100
77730,note_on,0,0,0,,,,,,,,,0,,56,100
77730,note_on,0,0,0,,,,,,,,,3,,47,100
77730,note_on,0,0,0,,,,,,,,,3,,56,100
77750,note_on,20,0,0,,,,,,,,,3,,56,0
77750,note_on,0,0,0,,,,,,,,,0,,47,0
77750,note_on,0,0,0,,,,,,,,,0,,56,0
77750,note_on,0,0,0,,,,,,,,,3,,47,0
77760,note_on,10,0,0,,,,,,,,,0,,37,100
77760,note_on,0,0,0,,,,,,,,,0,,66,100
77760,note_on,0,0,0,,,,,,,,,3,,37,100
77760,note_on,0,0,0,,,,,,,,,3,,66,100
77780,note_on,20,0,0,,,,,,,,,3,,66,0
77780,note_on,0,0,0,,,,,,,,,0,,66,0
77790,note_on,10,0,0,,,,,,,,,0,,52,100
77790,note_on,0,0,0,,,,,,,,,3,,52,100
77800,note_on,10,0,0,,,,,,,,,3,,37,0
77800,note_on,0,0,0,,,,,,,,,0,,37,0
77810,note_on,10,0,0,,,,,,,,,0,,52,0
77810,note_on,0,0,0,,,,,,,,,3,,52,0
77820,note_on,10,0,0,,,,,,,,,0,,40,100
77820,note_on,0,0,0,,,,,,,,,3,,40,100
77850,note_on,30,0,0,,,,,,,,,3,,40,0
77850,note_on,0,0,0,,,,,,,,,0,,40,0
77850,note_on,0,0,0,,,,,,,,,0,,57,100
77850,note_on,0,0,0,,,,,,,,,0,,50,100
77850,note_on,0,0,0,,,,,,,,,3,,50,100
77870,note_on,20,0,0,,,,,,,,,3,,50,0
77870,note_on,0,0,0,,,,,,,,,0,,50,0
77870,note_on,0,0,0,,,,,,,,,0,,57,0
77880,note_on,10,0,0,,,,,,,,,0,,64,100
77880,note_on,0,0,0,,,,,,,,,3,,64,100
77910,note_on,30,0,0,,,,,,,,,3,,64,0
77910,note_on,0,0,0,,,,,,,,,0,,64,0
77910,note_on,0,0,0,,,,,,,,,0,,66,100
77910,note_on,0,0,0,,,,,,,,,3,,66,100
77940,note_on,30,0,0,,,,,,,,,3,,66,0
77940,note_on,0,0,0,,,,,,,,,0,,66,0
77940,note_on,0,0,0,,,,,,,,,0,,64,100
77940,note_on,0,0,0,,,,,,,,,3,,64,100
77960,note_on,20,0,0,,,,,,,,,3,,64,0
77960,note_on,0,0,0,,,,,,,,,0,,64,0
77970,note_on,10,0,0,,,,,,,,,0,,57,100
77970,note_on,0,0,0,,,,,,,,,0,,49,100
77970,note_on,0,0,0,,,,,,,,,3,,49,100
77990,note_on,20,0,0,,,,,,,,,3,,49,0
77990,note_on,0,0,0,,,,,,,,,0,,49,0
77990,note_on,0,0,0,,,,,,,,,0,,57,0
78000,note_on,10,0,0,,,,,,,,,0,,33,100
78000,note_on,0,0,0,,,,,,,,,3,,33,100
78030,note_on,30,0,0,,,,,,,,,0,,52,100
78030,note_on,0,0,0,,,,,,,,,3,,52,100
78040,note_on,10,0,0,,,,,,,,,3,,33,0
78040,note_on,0,0,0,,,,,,,,,0,,33,0
78060,note_on,20,0,0,,,,,,,,,0,,52,0
78060,note_on,0,0,0,,,,,,,,,3,,52,0
78060,note_on,0,0,0,,,,,,,,,0,,73,100
78060,note_on,0,0,0,,,,,,,,,3,,73,100
78080,note_on,20,0,0,,,,,,,,,3,,73,0
78080,note_on,0,0,0,,,,,,,,,0,,73,0
78090,note_on,10,0,0,,,,,,,,,0,,57,100
78090,note_on,0,0,0,,,,,,,,,3,,57,100
78110,note_on,20,0,0,,,,,,,,,3,,57,0
78110,note_on,0,0,0,,,,,,,,,0,,57,0
78120,note_on,10,0,0,,,,,,,,,0,,62,100
78120,note_on,0,0,0,,,,,,,,,3,,62,100
78150,note_on,30,0,0,,,,,,,,,3,,62,0
78150,note_on,0,0,0,,,,,,,,,0,,62,0
78150,note_on,0,0,0,,,,,,,,,0,,64,100
78150,note_on,0,0,0,,,,,,,,,3,,64,100
78180,note_on,30,0,0,,,,,,,,,3,,64,0
78180,note_on,0,0,0,,,,,,,,,0,,64,0
78180,note_on,0,0,0,,,,,,,,,0,,62,100
78180,note_on,0,0,0,,,,,,,,,3,,62,100
78200,note_on,20,0,0,,,,,,,,,3,,62,0
78200,note_on,0,0,0,,,,,,,,,0,,62,0
78210,note_on,10,0,0,,,,,,,,,0,,52,100
78210,note_on,0,0,0,,,,,,,,,3,,52,100
78230,note_on,20,0,0,,,,,,,,,3,,52,0
78230,note_on,0,0,0,,,,,,,,,0,,52,0
78240,note_on,10,0,0,,,,,,,,,0,,44,100
78240,note_on,0,0,0,,,,,,,,,3,,44,100
78270,note_on,30,0,0,,,,,,,,,0,,71,100
78270,note_on,0,0,0,,,,,,,,,3,,71,100
78280,note_on,10,0,0,,,,,,,,,3,,44,0
78280,note_on,0,0,0,,,,,,,,,0,,44,0
78290,note_on,10,0,0,,,,,,,,,0,,71,0
78290,note_on,0,0,0,,,,,,,,,3,,71,0
78300,note_on,10,0,0,,,,,,,,,0,,50,100
78300,note_on,0,0,0,,,,,,,,,3,,50,100
78320,note_on,20,0,0,,,,,,,,,3,,50,0
78320,note_on,0,0,0,,,,,,,,,0,,50,0
78330,note_on,10,0,0,,,,,,,,,0,,68,100
78330,note_on,0,0,0,,,,,,,,,3,,68,100
78350,note_on,20,0,0,,,,,,,,,3,,68,0
78350,note_on,0,0,0,,,,,,,,,0,,68,0
78360,note_on,10,0,0,,,,,,,,,0,,64,100
78360,note_on,0,0,0,,,,,,,,,3,,64,100
78390,note_on,30,0,0,,,,,,,,,0,,85,100
78390,note_on,0,0,0,,,,,,,,,0,,88,100
78390,note_on,0,0,0,,,,,,,,,3,,85,100
78390,note_on,0,0,0,,,,,,,,,3,,88,100
78410,note_on,20,0,0,,,,,,,,,3,,88,0
78410,note_on,0,0,0,,,,,,,,,3,,64,0
78410,note_on,0,0,0,,,,,,,,,0,,85,0
78410,note_on,0,0,0,,,,,,,,,0,,64,0
78410,note_on,0,0,0,,,,,,,,,3,,85,0
78410,note_on,0,0,0,,,,,,,,,0,,88,0
78420,note_on,10,0,0,,,,,,,,,0,,78,100
78420,note_on,0,0,0,,,,,,,,,0,,83,100
78420,note_on,0,0,0,,,,,,,,,0,,86,100
78420,note_on,0,0,0,,,,,,,,,3,,78,100
78420,note_on,0,0,0,,,,,,,,,3,,83,100
78420,note_on,0,0,0,,,,,,,,,3,,86,100
78440,note_on,20,0,0,,,,,,,,,3,,86,0
78440,note_on,0,0,0,,,,,,,,,0,,83,0
78440,note_on,0,0,0,,,,,,,,,0,,86,0
78440,note_on,0,0,0,,,,,,,,,0,,78,0
78440,note_on,0,0,0,,,,,,,,,3,,83,0
78440,note_on,0,0,0,,,,,,,,,3,,78,0
78450,note_on,10,0,0,,,,,,,,,0,,81,100
78450,note_on,0,0,0,,,,,,,,,0,,85,100
78450,note_on,0,0,0,,,,,,,,,3,,81,100
78450,note_on,0,0,0,,,,,,,,,3,,85,100
78470,note_on,20,0,0,,,,,,,,,3,,85,0
78470,note_on,0,0,0,,,,,,,,,0,,81,0
78470,note_on,0,0,0,,,,,,,,,0,,85,0
78470,note_on,0,0,0,,,,,,,,,3,,81,0
78480,note_on,10,0,0,,,,,,,,,0,,74,100
78480,note_on,0,0,0,,,,,,,,,0,,80,100
78480,note_on,0,0,0,,,,,,,,,0,,83,100
78480,note_on,0,0,0,,,,,,,,,3,,74,100
78480,note_on,0,0,0,,,,,,,,,3,,80,100
78480,note_on,0,0,0,,,,,,,,,3,,83,100
78500,note_on,20,0,0,,,,,,,,,3,,83,0
78500,note_on,0,0,0,,,,,,,,,0,,80,0
78500,note_on,0,0,0,,,,,,,,,0,,83,0
78500,note_on,0,0,0,,,,,,,,,0,,74,0
78500,note_on,0,0,0,,,,,,,,,3,,80,0
78500,note_on,0,0,0,,,,,,,,,3,,74,0
78510,note_on,10,0,0,,,,,,,,,0,,54,100
78510,note_on,0,0,0,,,,,,,,,0,,83,100
78510,note_on,0,0,0,,,,,,,,,0,,86,100
78510,note_on,0,0,0,,,,,,,,,0,,45,100
78510,note_on,0,0,0,,,,,,,,,3,,54,100
78510,note_on,0,0,0,,,,,,,,,3,,83,100
78510,note_on,0,0,0,,,,,,,,,3,,86,100
78510,note_on,0,0,0,,,,,,,,,3,,45,100
78530,note_on,20,0,0,,,,,,,,,0,,45,0
78530,note_on,0,0,0,,,,,,,,,0,,86,0
78530,note_on,0,0,0,,,,,,,,,0,,54,0
78530,note_on,0,0,0,,,,,,,,,0,,83,0
78540,note_on,10,0,0,,,,,,,,,3,,54,0
78540,note_on,0,0,0,,,,,,,,,3,,45,0
78540,note_on,0,0,0,,,,,,,,,3,,83,0
78540,note_on,0,0,0,,,,,,,,,3,,86,0
78540,note_on,0,0,0,,,,,,,,,0,,56,100
78540,note_on,0,0,0,,,,,,,,,0,,76,100
78540,note_on,0,0,0,,,,,,,,,0,,81,100
78540,note_on,0,0,0,,,,,,,,,0,,35,100
78540,note_on,0,0,0,,,,,,,,,0,,85,100
78540,note_on,0,0,0,,,,,,,,,3,,56,100
78540,note_on,0,0,0,,,,,,,,,3,,76,100
78540,note_on,0,0,0,,,,,,,,,3,,81,100
78540,note_on,0,0,0,,,,,,,,,3,,35,100
78540,note_on,0,0,0,,,,,,,,,3,,85,100
78560,note_on,20,0,0,,,,,,,,,0,,85,0
78560,note_on,0,0,0,,,,,,,,,0,,81,0
78560,note_on,0,0,0,,,,,,,,,0,,56,0
78560,note_on,0,0,0,,,,,,,,,0,,76,0
78570,note_on,10,0,0,,,,,,,,,3,,76,0
78570,note_on,0,0,0,,,,,,,,,3,,56,0
78570,note_on,0,0,0,,,,,,,,,3,,85,0
78570,note_on,0,0,0,,,,,,,,,3,,35,0
78570,note_on,0,0,0,,,,,,,,,0,,35,0
78570,note_on,0,0,0,,,,,,,,,3,,81,0
78570,note_on,0,0,0,,,,,,,,,0,,57,100
78570,note_on,0,0,0,,,,,,,,,0,,80,100
78570,note_on,0,0,0,,,,,,,,,0,,37,100
78570,note_on,0,0,0,,,,,,,,,0,,83,100
78570,note_on,0,0,0,,,,,,,,,3,,57,100
78570,note_on,0,0,0,,,,,,,,,3,,80,100
78570,note_on,0,0,0,,,,,,,,,3,,37,100
78570,note_on,0,0,0,,,,,,,,,3,,83,100
78590,note_on,20,0,0,,,,,,,,,0,,83,0
78590,note_on,0,0,0,,,,,,,,,0,,80,0
78590,note_on,0,0,0,,,,,,,,,0,,57,0
78600,note_on,10,0,0,,,,,,,,,0,,37,0
78600,note_on,0,0,0,,,,,,,,,3,,57,0
78600,note_on,0,0,0,,,,,,,,,3,,83,0
78600,note_on,0,0,0,,,,,,,,,3,,37,0
78600,note_on,0,0,0,,,,,,,,,3,,80,0
78600,note_on,0,0,0,,,,,,,,,0,,59,100
78600,note_on,0,0,0,,,,,,,,,0,,73,100
78600,note_on,0,0,0,,,,,,,,,0,,78,100
78600,note_on,0,0,0,,,,,,,,,0,,50,100
78600,note_on,0,0,0,,,,,,,,,0,,81,100
78600,note_on,0,0,0,,,,,,,,,3,,59,100
78600,note_on,0,0,0,,,,,,,,,3,,73,100
78600,note_on,0,0,0,,,,,,,,,3,,78,100
78600,note_on,0,0,0,,,,,,,,,3,,50,100
78600,note_on,0,0,0,,,,,,,,,3,,81,100
78620,note_on,20,0,0,,,,,,,,,3,,81,0
78620,note_on,0,0,0,,,,,,,,,0,,78,0
78620,note_on,0,0,0,,,,,,,,,0,,50,0
78620,note_on,0,0,0,,,,,,,,,0,,59,0
78620,note_on,0,0,0,,,,,,,,,0,,81,0
78620,note_on,0,0,0,,,,,,,,,0,,73,0
78620,note_on,0,0,0,,,,,,,,,3,,78,0
78620,note_on,0,0,0,,,,,,,,,3,,73,0
78620,note_on,0,0,0,,,,,,,,,3,,59,0
78620,note_on,0,0,0,,,,,,,,,3,,50,0
78630,note_on,10,0,0,,,,,,,,,0,,57,100
78630,note_on,0,0,0,,,,,,,,,0,,81,100
78630,note_on,0,0,0,,,,,,,,,0,,49,100
78630,note_on,0,0,0,,,,,,,,,0,,85,100
78630,note_on,0,0,0,,,,,,,,,3,,57,100
78630,note_on,0,0,0,,,,,,,,,3,,81,100
78630,note_on,0,0,0,,,,,,,,,3,,49,100
78630,note_on,0,0,0,,,,,,,,,3,,85,100
78650,note_on,20,0,0,,,,,,,,,0,,85,0
78650,note_on,0,0,0,,,,,,,,,0,,49,0
78650,note_on,0,0,0,,,,,,,,,0,,57,0
78650,note_on,0,0,0,,,,,,,,,0,,81,0
78660,note_on,10,0,0,,,,,,,,,3,,57,0
78660,note_on,0,0,0,,,,,,,,,3,,85,0
78660,note_on,0,0,0,,,,,,,,,3,,81,0
78660,note_on,0,0,0,,,,,,,,,3,,49,0
78660,note_on,0,0,0,,,,,,,,,0,,59,100
78660,note_on,0,0,0,,,,,,,,,0,,74,100
78660,note_on,0,0,0,,,,,,,,,0,,80,100
78660,note_on,0,0,0,,,,,,,,,0,,38,100
78660,note_on,0,0,0,,,,,,,,,0,,83,100
78660,note_on,0,0,0,,,,,,,,,3,,59,100
78660,note_on,0,0,0,,,,,,,,,3,,74,100
78660,note_on,0,0,0,,,,,,,,,3,,80,100
78660,note_on,0,0,0,,,,,,,,,3,,38,100
78660,note_on,0,0,0,,,,,,,,,3,,83,100
78680,note_on,20,0,0,,,,,,,,,0,,83,0
78680,note_on,0,0,0,,,,,,,,,0,,80,0
78680,note_on,0,0,0,,,,,,,,,0,,59,0
78680,note_on,0,0,0,,,,,,,,,0,,74,0
78690,note_on,10,0,0,,,,,,,,,3,,74,0
78690,note_on,0,0,0,,,,,,,,,3,,59,0
78690,note_on,0,0,0,,,,,,,,,3,,83,0
78690,note_on,0,0,0,,,,,,,,,3,,38,0
78690,note_on,0,0,0,,,,,,,,,0,,38,0
78690,note_on,0,0,0,,,,,,,,,3,,80,0
78690,note_on,0,0,0,,,,,,,,,0,,61,100
78690,note_on,0,0,0,,,,,,,,,0,,78,100
78690,note_on,0,0,0,,,,,,,,,0,,40,100
78690,note_on,0,0,0,,,,,,,,,0,,81,100
78690,note_on,0,0,0,,,,,,,,,3,,61,100
78690,note_on,0,0,0,,,,,,,,,3,,78,100
78690,note_on,0,0,0,,,,,,,,,3,,40,100
78690,note_on,0,0,0,,,,,,,,,3,,81,100
78710,note_on,20,0,0,,,,,,,,,0,,81,0
78710,note_on,0,0,0,,,,,,,,,0,,78,0
78710,note_on,0,0,0,,,,,,,,,0,,61,0
78720,note_on,10,0,0,,,,,,,,,0,,40,0
78720,note_on,0,0,0,,,,,,,,,3,,61,0
78720,note_on,0,0,0,,,,,,,,,3,,81,0
78720,note_on,0,0,0,,,,,,,,,3,,40,0
78720,note_on,0,0,0,,,,,,,,,3,,78,0
78720,note_on,0,0,0,,,,,,,,,0,,38,100
78720,note_on,0,0,0,,,,,,,,,0,,71,100
78720,note_on,0,0,0,,,,,,,,,0,,50,100
78720,note_on,0,0,0,,,,,,,,,0,,76,100
78720,note_on,0,0,0,,,,,,,,,0,,80,100
78720,note_on,0,0,0,,,,,,,,,0,,47,100
78720,note_on,0,0,0,,,,,,,,,3,,71,100
78720,note_on,0,0,0,,,,,,,,,3,,62,100
78720,note_on,0,0,0,,,,,,,,,3,,76,100
78720,note_on,0,0,0,,,,,,,,,3,,50,100
78720,note_on,0,0,0,,,,,,,,,3,,80,100
78720,note_on,0,0,0,,,,,,,,,3,,59,100
78740,note_on,20,0,0,,,,,,,,,3,,80,0
78740,note_on,0,0,0,,,,,,,,,3,,76,0
78740,note_on,0,0,0,,,,,,,,,0,,71,0
78740,note_on,0,0,0,,,,,,,,,0,,76,0
78740,note_on,0,0,0,,,,,,,,,3,,71,0
78740,note_on,0,0,0,,,,,,,,,0,,80,0
78750,note_on,10,0,0,,,,,,,,,0,,74,100
78750,note_on,0,0,0,,,,,,,,,0,,78,100
78750,note_on,0,0,0,,,,,,,,,3,,74,100
78750,note_on,0,0,0,,,,,,,,,3,,78,100
78760,note_on,10,0,0,,,,,,,,,0,,47,0
78760,note_on,0,0,0,,,,,,,,,0,,38,0
78760,note_on,0,0,0,,,,,,,,,0,,50,0
78770,note_on,10,0,0,,,,,,,,,3,,74,0
78770,note_on,0,0,0,,,,,,,,,0,,74,0
78770,note_on,0,0,0,,,,,,,,,3,,62,0
78770,note_on,0,0,0,,,,,,,,,3,,78,0
78770,note_on,0,0,0,,,,,,,,,3,,59,0
78770,note_on,0,0,0,,,,,,,,,0,,78,0
78780,note_on,10,0,0,,,,,,,,,0,,68,100
78780,note_on,0,0,0,,,,,,,,,0,,73,100
78780,note_on,0,0,0,,,,,,,,,0,,76,100
78780,note_on,0,0,0,,,,,,,,,3,,68,100
78780,note_on,0,0,0,,,,,,,,,3,,73,100
78780,note_on,0,0,0,,,,,,,,,3,,76,100
78790,note_on,10,0,0,,,,,,,,,3,,50,0
78800,note_on,10,0,0,,,,,,,,,3,,73,0
78800,note_on,0,0,0,,,,,,,,,0,,73,0
78800,note_on,0,0,0,,,,,,,,,0,,76,0
78800,note_on,0,0,0,,,,,,,,,0,,68,0
78800,note_on,0,0,0,,,,,,,,,3,,76,0
78800,note_on,0,0,0,,,,,,,,,3,,68,0
78810,note_on,10,0,0,,,,,,,,,0,,71,100
78810,note_on,0,0,0,,,,,,,,,0,,74,100
78810,note_on,0,0,0,,,,,,,,,3,,71,100
78810,note_on,0,0,0,,,,,,,,,3,,74,100
78830,note_on,20,0,0,,,,,,,,,3,,74,0
78830,note_on,0,0,0,,,,,,,,,0,,71,0
78830,note_on,0,0,0,,,,,,,,,0,,74,0
78830,note_on,0,0,0,,,,,,,,,3,,71,0
78840,note_on,10,0,0,,,,,,,,,0,,42,100
78840,note_on,0,0,0,,,,,,,,,0,,68,100
78840,note_on,0,0,0,,,,,,,,,0,,50,100
78840,note_on,0,0,0,,,,,,,,,0,,57,100
78840,note_on,0,0,0,,,,,,,,,0,,73,100
78840,note_on,0,0,0,,,,,,,,,0,,76,100
78840,note_on,0,0,0,,,,,,,,,3,,68,100
78840,note_on,0,0,0,,,,,,,,,3,,62,100
78840,note_on,0,0,0,,,,,,,,,3,,57,100
78840,note_on,0,0,0,,,,,,,,,3,,54,100
78840,note_on,0,0,0,,,,,,,,,3,,73,100
78840,note_on,0,0,0,,,,,,,,,3,,76,100
78860,note_on,20,0,0,,,,,,,,,3,,76,0
78860,note_on,0,0,0,,,,,,,,,3,,68,0
78860,note_on,0,0,0,,,,,,,,,0,,68,0
78860,note_on,0,0,0,,,,,,,,,3,,73,0
78860,note_on,0,0,0,,,,,,,,,0,,76,0
78860,note_on,0,0,0,,,,,,,,,0,,73,0
78870,note_on,10,0,0,,,,,,,,,0,,71,100
78870,note_on,0,0,0,,,,,,,,,0,,74,100
78870,note_on,0,0,0,,,,,,,,,3,,71,100
78870,note_on,0,0,0,,,,,,,,,3,,74,100
78880,note_on,10,0,0,,,,,,,,,0,,57,0
78880,note_on,0,0,0,,,,,,,,,0,,42,0
78880,note_on,0,0,0,,,,,,,,,0,,50,0
78890,note_on,10,0,0,,,,,,,,,3,,57,0
78890,note_on,0,0,0,,,,,,,,,3,,62,0
78890,note_on,0,0,0,,,,,,,,,0,,74,0
78890,note_on,0,0,0,,,,,,,,,3,,74,0
78890,note_on,0,0,0,,,,,,,,,3,,71,0
78890,note_on,0,0,0,,,,,,,,,0,,71,0
78900,note_on,10,0,0,,,,,,,,,0,,64,100
78900,note_on,0,0,0,,,,,,,,,0,,69,100
78900,note_on,0,0,0,,,,,,,,,0,,73,100
78900,note_on,0,0,0,,,,,,,,,3,,64,100
78900,note_on,0,0,0,,,,,,,,,3,,69,100
78900,note_on,0,0,0,,,,,,,,,3,,73,100
78920,note_on,20,0,0,,,,,,,,,3,,73,0
78920,note_on,0,0,0,,,,,,,,,3,,64,0
78920,note_on,0,0,0,,,,,,,,,0,,64,0
78920,note_on,0,0,0,,,,,,,,,0,,69,0
78920,note_on,0,0,0,,,,,,,,,3,,54,0
78920,note_on,0,0,0,,,,,,,,,3,,69,0
78920,note_on,0,0,0,,,,,,,,,0,,73,0
78930,note_on,10,0,0,,,,,,,,,0,,64,100
78930,note_on,0,0,0,,,,,,,,,0,,78,100
78930,note_on,0,0,0,,,,,,,,,3,,64,100
78930,note_on,0,0,0,,,,,,,,,3,,78,100
78950,note_on,20,0,0,,,,,,,,,3,,78,0
78950,note_on,0,0,0,,,,,,,,,0,,64,0
78950,note_on,0,0,0,,,,,,,,,0,,78,0
78950,note_on,0,0,0,,,,,,,,,3,,64,0
78960,note_on,10,0,0,,,,,,,,,0,,49,100
78960,note_on,0,0,0,,,,,,,,,0,,38,100
78960,note_on,0,0,0,,,,,,,,,0,,57,100
78960,note_on,0,0,0,,,,,,,,,0,,69,100
78960,note_on,0,0,0,,,,,,,,,0,,52,100
78960,note_on,0,0,0,,,,,,,,,0,,76,100
78960,note_on,0,0,0,,,,,,,,,3,,64,100
78960,note_on,0,0,0,,,,,,,,,3,,57,100
78960,note_on,0,0,0,,,,,,,,,3,,61,100
78960,note_on,0,0,0,,,,,,,,,3,,69,100
78960,note_on,0,0,0,,,,,,,,,3,,52,100
78960,note_on,0,0,0,,,,,,,,,3,,76,100
78990,note_on,30,0,0,,,,,,,,,3,,76,0
78990,note_on,0,0,0,,,,,,,,,0,,49,0
78990,note_on,0,0,0,,,,,,,,,3,,57,0
78990,note_on,0,0,0,,,,,,,,,0,,57,0
78990,note_on,0,0,0,,,,,,,,,0,,69,0
78990,note_on,0,0,0,,,,,,,,,3,,69,0
78990,note_on,0,0,0,,,,,,,,,0,,52,0
78990,note_on,0,0,0,,,,,,,,,0,,76,0
78990,note_on,0,0,0,,,,,,,,,3,,61,0
78990,note_on,0,0,0,,,,,,,,,3,,64,0
78990,note_on,0,0,0,,,,,,,,,3,,52,0
78990,note_on,0,0,0,,,,,,,,,0,,71,100
78990,note_on,0,0,0,,,,,,,,,0,,74,100
78990,note_on,0,0,0,,,,,,,,,3,,71,100
78990,note_on,0,0,0,,,,,,,,,3,,74,100
79000,note_on,10,0,0,,,,,,,,,0,,38,0
79020,note_on,20,0,0,,,,,,,,,3,,71,0
79020,note_on,0,0,0,,,,,,,,,0,,71,0
79020,note_on,0,0,0,,,,,,,,,0,,74,0
79020,note_on,0,0,0,,,,,,,,,3,,74,0
79020,note_on,0,0,0,,,,,,,,,0,,64,100
79020,note_on,0,0,0,,,,,,,,,0,,73,100
79020,note_on,0,0,0,,,,,,,,,3,,64,100
79020,note_on,0,0,0,,,,,,,,,3,,73,100
79040,note_on,20,0,0,,,,,,,,,3,,73,0
79040,note_on,0,0,0,,,,,,,,,0,,64,0
79040,note_on,0,0,0,,,,,,,,,0,,73,0
79040,note_on,0,0,0,,,,,,,,,3,,64,0
79050,note_on,10,0,0,,,,,,,,,0,,68,100
79050,note_on,0,0,0,,,,,,,,,0,,76,100
79050,note_on,0,0,0,,,,,,,,,3,,68,100
79050,note_on,0,0,0,,,,,,,,,3,,76,100
79070,note_on,20,0,0,,,,,,,,,3,,76,0
79070,note_on,0,0,0,,,,,,,,,0,,68,0
79070,note_on,0,0,0,,,,,,,,,0,,76,0
79070,note_on,0,0,0,,,,,,,,,3,,68,0
79080,note_on,10,0,0,,,,,,,,,0,,52,100
79080,note_on,0,0,0,,,,,,,,,0,,66,100
79080,note_on,0,0,0,,,,,,,,,0,,59,100
79080,note_on,0,0,0,,,,,,,,,0,,56,100
79080,note_on,0,0,0,,,,,,,,,0,,40,100
79080,note_on,0,0,0,,,,,,,,,0,,74,100
79080,note_on,0,0,0,,,,,,,,,3,,66,100
79080,note_on,0,0,0,,,,,,,,,3,,59,100
79080,note_on,0,0,0,,,,,,,,,3,,56,100
79080,note_on,0,0,0,,,,,,,,,3,,40,100
79080,note_on,0,0,0,,,,,,,,,3,,62,100
79080,note_on,0,0,0,,,,,,,,,3,,74,100
79110,note_on,30,0,0,,,,,,,,,3,,74,0
79110,note_on,0,0,0,,,,,,,,,3,,66,0
79110,note_on,0,0,0,,,,,,,,,0,,74,0
79110,note_on,0,0,0,,,,,,,,,0,,66,0
79110,note_on,0,0,0,,,,,,,,,0,,68,100
79110,note_on,0,0,0,,,,,,,,,0,,73,100
79110,note_on,0,0,0,,,,,,,,,3,,68,100
79110,note_on,0,0,0,,,,,,,,,3,,73,100
79120,note_on,10,0,0,,,,,,,,,0,,52,0
79125,note_on,5,0,0,,,,,,,,,3,,59,0
79125,note_on,0,0,0,,,,,,,,,3,,56,0
79125,note_on,0,0,0,,,,,,,,,0,,56,0
79125,note_on,0,0,0,,,,,,,,,3,,62,0
79125,note_on,0,0,0,,,,,,,,,0,,40,0
79125,note_on,0,0,0,,,,,,,,,3,,40,0
79125,note_on,0,0,0,,,,,,,,,0,,59,0
79140,note_on,15,0,0,,,,,,,,,0,,73,0
79140,note_on,0,0,0,,,,,,,,,3,,68,0
79140,note_on,0,0,0,,,,,,,,,3,,73,0
79140,note_on,0,0,0,,,,,,,,,0,,68,0
79140,note_on,0,0,0,,,,,,,,,0,,62,100
79140,note_on,0,0,0,,,,,,,,,0,,71,100
79140,note_on,0,0,0,,,,,,,,,3,,62,100
79140,note_on,0,0,0,,,,,,,,,3,,71,100
79160,note_on,20,0,0,,,,,,,,,3,,71,0
79160,note_on,0,0,0,,,,,,,,,0,,62,0
79160,note_on,0,0,0,,,,,,,,,0,,71,0
79160,note_on,0,0,0,,,,,,,,,3,,62,0
79170,note_on,10,0,0,,,,,,,,,0,,52,100
79170,note_on,0,0,0,,,,,,,,,0,,64,100
79170,note_on,0,0,0,,,,,,,,,3,,64,100
79190,note_on,20,0,0,,,,,,,,,3,,64,0
79190,note_on,0,0,0,,,,,,,,,0,,64,0
79190,note_on,0,0,0,,,,,,,,,0,,52,0
79194,control_change,4,0,0,,,,,,,11,122,8,,,
79196,control_change,2,0,0,,,,,,,11,125,7,,,
79198,control_change,2,0,0,,,,,,,11,123,8,,,
79198,control_change,0,0,0,,,,,,,11,127,15,,,
79199,control_change,1,0,0,,,,,,,11,126,0,,,
79199,control_change,0,0,0,,,,,,,11,126,6,,,
79199,control_change,0,0,0,,,,,,,11,127,7,,,
79199,control_change,0,0,0,,,,,,,11,125,8,,,
79199,control_change,0,0,0,,,,,,,11,125,13,,,
79200,note_on,1,0,0,,,,,,,,,0,,73,100
79200,note_on,0,0,0,,,,,,,,,0,,57,100
79200,note_on,0,0,0,,,,,,,,,0,,76,100
79200,note_on,0,0,0,,,,,,,,,0,,45,100
79200,note_on,0,0,0,,,,,,,,,0,,69,100
79200,note_on,0,0,0,,,,,,,,,3,,73,100
79200,note_on,0,0,0,,,,,,,,,3,,57,100
79200,note_on,0,0,0,,,,,,,,,3,,76,100
79200,note_on,0,0,0,,,,,,,,,3,,45,100
79200,note_on,0,0,0,,,,,,,,,3,,69,100
79200,note_on,0,0,0,,,,,,,,,5,,76,100
79200,note_on,0,0,0,,,,,,,,,6,,73,100
79200,note_on,0,0,0,,,,,,,,,7,,69,100
79200,note_on,0,0,0,,,,,,,,,8,,45,100
79200,note_on,0,0,0,,,,,,,,,10,,33,100
79200,note_on,0,0,0,,,,,,,,,13,,76,100
79200,note_on,0,0,0,,,,,,,,,13,,73,100
79200,note_on,0,0,0,,,,,,,,,14,,45,100
79200,note_on,0,0,0,,,,,,,,,15,,61,100
79200,note_on,0,0,0,,,,,,,,,15,,64,100
79200,note_on,0,0,0,,,,,,,,,15,,69,100
79200,note_on,0,0,0,,,,,,,,,15,,45,100
79201,control_change,1,0,0,,,,,,,11,122,0,,,
79201,control_change,0,0,0,,,,,,,11,127,6,,,
79202,control_change,1,0,0,,,,,,,11,125,0,,,
79202,control_change,0,0,0,,,,,,,11,126,8,,,
79202,control_change,0,0,0,,,,,,,11,127,13,,,
79204,control_change,2,0,0,,,,,,,11,126,0,,,
79204,control_change,0,0,0,,,,,,,11,127,8,,,
79206,control_change,2,0,0,,,,,,,11,127,0,,,
79300,note_on,94,0,0,,,,,,,,,13,,76,0
79300,note_on,0,0,0,,,,,,,,,5,,76,0
79305,note_on,5,0,0,,,,,,,,,13,,73,0
79305,note_on,0,0,0,,,,,,,,,3,,69,0
79305,note_on,0,0,0,,,,,,,,,0,,76,0
79305,note_on,0,0,0,,,,,,,,,3,,76,0
79305,note_on,0,0,0,,,,,,,,,0,,73,0
79305,note_on,0,0,0,,,,,,,,,3,,57,0
79305,note_on,0,0,0,,,,,,,,,7,,69,0
79305,note_on,0,0,0,,,,,,,,,6,,73,0
79305,note_on,0,0,0,,,,,,,,,0,,57,0
79305,note_on,0,0,0,,,,,,,,,3,,73,0
79305,note_on,0,0,0,,,,,,,,,0,,69,0
79310,note_on,5,0,0,,,,,,,,,15,,64,0
79310,note_on,0,0,0,,,,,,,,,15,,69,0
79310,note_on,0,0,0,,,,,,,,,15,,61,0
79320,note_on,10,0,0,,,,,,,,,0,,73,100
79320,note_on,0,0,0,,,,,,,,,3,,73,100
79320,note_on,0,0,0,,,,,,,,,5,,73,100
79320,note_on,0,0,0,,,,,,,,,6,,69,100
79320,note_on,0,0,0,,,,,,,,,7,,64,100
79320,note_on,0,0,0,,,,,,,,,13,,73,100
79320,note_on,0,0,0,,,,,,,,,13,,69,100
79320,note_on,0,0,0,,,,,,,,,15,,61,100
79320,note_on,0,0,0,,,,,,,,,15,,64,100
79320,note_on,0,0,0,,,,,,,,,15,,73,100
79350,note_on,30,0,0,,,,,,,,,10,,33,0
79350,note_on,0,0,0,,,,,,,,,0,,45,0
79350,note_on,0,0,0,,,,,,,,,14,,45,0
79350,note_on,0,0,0,,,,,,,,,15,,45,0
79350,note_on,0,0,0,,,,,,,,,3,,45,0
79350,note_on,0,0,0,,,,,,,,,8,,45,0
79380,note_on,30,0,0,,,,,,,,,0,,45,100
79380,note_on,0,0,0,,,,,,,,,3,,45,100
79380,note_on,0,0,0,,,,,,,,,8,,45,100
79380,note_on,0,0,0,,,,,,,,,10,,33,100
79380,note_on,0,0,0,,,,,,,,,14,,45,100
79380,note_on,0,0,0,,,,,,,,,15,,45,100
79410,note_on,30,0,0,,,,,,,,,15,,45,0
79410,note_on,0,0,0,,,,,,,,,14,,45,0
79410,note_on,0,0,0,,,,,,,,,3,,45,0
79410,note_on,0,0,0,,,,,,,,,10,,33,0
79410,note_on,0,0,0,,,,,,,,,0,,45,0
79410,note_on,0,0,0,,,,,,,,,8,,45,0
79420,note_on,10,0,0,,,,,,,,,5,,73,0
79420,note_on,0,0,0,,,,,,,,,13,,73,0
79425,note_on,5,0,0,,,,,,,,,7,,64,0
79425,note_on,0,0,0,,,,,,,,,3,,73,0
79425,note_on,0,0,0,,,,,,,,,0,,73,0
79430,note_on,5,0,0,,,,,,,,,15,,64,0
79430,note_on,0,0,0,,,,,,,,,15,,73,0
79430,note_on,0,0,0,,,,,,,,,15,,61,0
79440,note_on,10,0,0,,,,,,,,,0,,71,100
79440,note_on,0,0,0,,,,,,,,,0,,52,100
79440,note_on,0,0,0,,,,,,,,,3,,71,100
79440,note_on,0,0,0,,,,,,,,,3,,52,100
79440,note_on,0,0,0,,,,,,,,,5,,71,100
79440,note_on,0,0,0,,,,,,,,,7,,64,100
79440,note_on,0,0,0,,,,,,,,,8,,52,100
79440,note_on,0,0,0,,,,,,,,,10,,40,100
79440,note_on,0,0,0,,,,,,,,,13,,71,100
79440,note_on,0,0,0,,,,,,,,,14,,52,100
79440,note_on,0,0,0,,,,,,,,,15,,71,100
79440,note_on,0,0,0,,,,,,,,,15,,59,100
79440,note_on,0,0,0,,,,,,,,,15,,64,100
79440,note_on,0,0,0,,,,,,,,,15,,52,100
79470,note_on,30,0,0,,,,,,,,,6,,69,0
79470,note_on,0,0,0,,,,,,,,,13,,69,0
79500,note_on,30,0,0,,,,,,,,,6,,68,100
79500,note_on,0,0,0,,,,,,,,,13,,68,100
79530,note_on,30,0,0,,,,,,,,,13,,68,0
79530,note_on,0,0,0,,,,,,,,,6,,68,0
79540,note_on,10,0,0,,,,,,,,,13,,71,0
79540,note_on,0,0,0,,,,,,,,,5,,71,0
79545,note_on,5,0,0,,,,,,,,,15,,52,0
79545,note_on,0,0,0,,,,,,,,,8,,52,0
79545,note_on,0,0,0,,,,,,,,,10,,40,0
79545,note_on,0,0,0,,,,,,,,,0,,52,0
79545,note_on,0,0,0,,,,,,,,,3,,71,0
79545,note_on,0,0,0,,,,,,,,,14,,52,0
79545,note_on,0,0,0,,,,,,,,,3,,52,0
79545,note_on,0,0,0,,,,,,,,,0,,71,0
79550,note_on,5,0,0,,,,,,,,,15,,71,0
79550,note_on,0,0,0,,,,,,,,,15,,59,0
79550,note_on,0,0,0,,,,,,,,,15,,64,0
79560,note_on,10,0,0,,,,,,,,,0,,76,100
79560,note_on,0,0,0,,,,,,,,,0,,49,100
79560,note_on,0,0,0,,,,,,,,,3,,76,100
79560,note_on,0,0,0,,,,,,,,,3,,49,100
79560,note_on,0,0,0,,,,,,,,,5,,76,100
79560,note_on,0,0,0,,,,,,,,,6,,68,100
79560,note_on,0,0,0,,,,,,,,,8,,49,100
79560,note_on,0,0,0,,,,,,,,,10,,37,100
79560,note_on,0,0,0,,,,,,,,,13,,76,100
79560,note_on,0,0,0,,,,,,,,,13,,68,100
79560,note_on,0,0,0,,,,,,,,,14,,49,100
79560,note_on,0,0,0,,,,,,,,,15,,71,100
79560,note_on,0,0,0,,,,,,,,,15,,59,100
79560,note_on,0,0,0,,,,,,,,,15,,64,100
79560,note_on,0,0,0,,,,,,,,,15,,49,100
79590,note_on,30,0,0,,,,,,,,,13,,68,0
79590,note_on,0,0,0,,,,,,,,,6,,68,0
79590,note_on,0,0,0,,,,,,,,,7,,64,0
79620,note_on,30,0,0,,,,,,,,,6,,64,100
79620,note_on,0,0,0,,,,,,,,,7,,68,100
79620,note_on,0,0,0,,,,,,,,,13,,64,100
79650,note_on,30,0,0,,,,,,,,,13,,64,0
79650,note_on,0,0,0,,,,,,,,,7,,68,0
79650,note_on,0,0,0,,,,,,,,,6,,64,0
79665,note_on,15,0,0,,,,,,,,,15,,64,0
79665,note_on,0,0,0,,,,,,,,,14,,49,0
79665,note_on,0,0,0,,,,,,,,,15,,49,0
79665,note_on,0,0,0,,,,,,,,,8,,49,0
79665,note_on,0,0,0,,,,,,,,,3,,49,0
79665,note_on,0,0,0,,,,,,,,,10,,37,0
79665,note_on,0,0,0,,,,,,,,,15,,59,0
79665,note_on,0,0,0,,,,,,,,,0,,49,0
79665,note_on,0,0,0,,,,,,,,,15,,71,0
79680,note_on,15,0,0,,,,,,,,,6,,69,100
79680,note_on,0,0,0,,,,,,,,,7,,73,100
79680,note_on,0,0,0,,,,,,,,,13,,69,100
79680,note_on,0,0,0,,,,,,,,,15,,69,100
79680,note_on,0,0,0,,,,,,,,,15,,61,100
79680,note_on,0,0,0,,,,,,,,,15,,64,100
79710,note_on,30,0,0,,,,,,,,,3,,76,0
79710,note_on,0,0,0,,,,,,,,,5,,76,0
79710,note_on,0,0,0,,,,,,,,,13,,76,0
79710,note_on,0,0,0,,,,,,,,,0,,76,0
79740,note_on,30,0,0,,,,,,,,,0,,45,100
79740,note_on,0,0,0,,,,,,,,,0,,73,100
79740,note_on,0,0,0,,,,,,,,,3,,45,100
79740,note_on,0,0,0,,,,,,,,,3,,73,100
79740,note_on,0,0,0,,,,,,,,,5,,73,100
79740,note_on,0,0,0,,,,,,,,,8,,45,100
79740,note_on,0,0,0,,,,,,,,,10,,33,100
79740,note_on,0,0,0,,,,,,,,,13,,73,100
79740,note_on,0,0,0,,,,,,,,,14,,45,100
79740,note_on,0,0,0,,,,,,,,,15,,45,100
79770,note_on,30,0,0,,,,,,,,,15,,45,0
79770,note_on,0,0,0,,,,,,,,,14,,45,0
79770,note_on,0,0,0,,,,,,,,,8,,45,0
79770,note_on,0,0,0,,,,,,,,,3,,73,0
79770,note_on,0,0,0,,,,,,,,,0,,45,0
79770,note_on,0,0,0,,,,,,,,,3,,45,0
79770,note_on,0,0,0,,,,,,,,,0,,73,0
79770,note_on,0,0,0,,,,,,,,,13,,73,0
79770,note_on,0,0,0,,,,,,,,,5,,73,0
79770,note_on,0,0,0,,,,,,,,,10,,33,0
79785,note_on,15,0,0,,,,,,,,,7,,73,0
79790,note_on,5,0,0,,,,,,,,,15,,69,0
79790,note_on,0,0,0,,,,,,,,,15,,64,0
79790,note_on,0,0,0,,,,,,,,,15,,61,0
79800,note_on,10,0,0,,,,,,,,,0,,50,100
79800,note_on,0,0,0,,,,,,,,,0,,78,100
79800,note_on,0,0,0,,,,,,,,,3,,50,100
79800,note_on,0,0,0,,,,,,,,,3,,78,100
79800,note_on,0,0,0,,,,,,,,,5,,78,100
79800,note_on,0,0,0,,,,,,,,,7,,69,100
79800,note_on,0,0,0,,,,,,,,,8,,50,100
79800,note_on,0,0,0,,,,,,,,,10,,38,100
79800,note_on,0,0,0,,,,,,,,,13,,78,100
79800,note_on,0,0,0,,,,,,,,,14,,50,100
79800,note_on,0,0,0,,,,,,,,,15,,69,100
79800,note_on,0,0,0,,,,,,,,,15,,66,100
79800,note_on,0,0,0,,,,,,,,,15,,62,100
79800,note_on,0,0,0,,,,,,,,,15,,50,100
79830,note_on,30,0,0,,,,,,,,,15,,50,0
79830,note_on,0,0,0,,,,,,,,,14,,50,0
79830,note_on,0,0,0,,,,,,,,,8,,50,0
79830,note_on,0,0,0,,,,,,,,,0,,50,0
79830,note_on,0,0,0,,,,,,,,,3,,50,0
79830,note_on,0,0,0,,,,,,,,,10,,38,0
79860,note_on,30,0,0,,,,,,,,,6,,69,0
79860,note_on,0,0,0,,,,,,,,,13,,69,0
79860,note_on,0,0,0,,,,,,,,,0,,38,100
79860,note_on,0,0,0,,,,,,,,,3,,38,100
79860,note_on,0,0,0,,,,,,,,,8,,38,100
79860,note_on,0,0,0,,,,,,,,,10,,26,100
79860,note_on,0,0,0,,,,,,,,,14,,38,100
79860,note_on,0,0,0,,,,,,,,,15,,38,100
79890,note_on,30,0,0,,,,,,,,,15,,38,0
79890,note_on,0,0,0,,,,,,,,,3,,38,0
79890,note_on,0,0,0,,,,,,,,,0,,38,0
79890,note_on,0,0,0,,,,,,,,,14,,38,0
79890,note_on,0,0,0,,,,,,,,,8,,38,0
79890,note_on,0,0,0,,,,,,,,,10,,26,0
79910,note_on,20,0,0,,,,,,,,,15,,62,0
79910,note_on,0,0,0,,,,,,,,,15,,69,0
79910,note_on,0,0,0,,,,,,,,,15,,66,0
79920,note_on,10,0,0,,,,,,,,,0,,50,100
79920,note_on,0,0,0,,,,,,,,,3,,50,100
79920,note_on,0,0,0,,,,,,,,,6,,66,100
79920,note_on,0,0,0,,,,,,,,,8,,50,100
79920,note_on,0,0,0,,,,,,,,,10,,38,100
79920,note_on,0,0,0,,,,,,,,,13,,66,100
79920,note_on,0,0,0,,,,,,,,,14,,50,100
79920,note_on,0,0,0,,,,,,,,,15,,57,100
79920,note_on,0,0,0,,,,,,,,,15,,66,100
79920,note_on,0,0,0,,,,,,,,,15,,69,100
79920,note_on,0,0,0,,,,,,,,,15,,50,100
79950,note_on,30,0,0,,,,,,,,,3,,78,0
79950,note_on,0,0,0,,,,,,,,,5,,78,0
79950,note_on,0,0,0,,,,,,,,,13,,78,0
79950,note_on,0,0,0,,,,,,,,,0,,78,0
79980,note_on,30,0,0,,,,,,,,,0,,69,100
79980,note_on,0,0,0,,,,,,,,,3,,69,100
79980,note_on,0,0,0,,,,,,,,,5,,69,100
79980,note_on,0,0,0,,,,,,,,,13,,69,100
79995,note_on,15,0,0,,,,,,,,,7,,69,0
80010,note_on,15,0,0,,,,,,,,,13,,69,0
80010,note_on,0,0,0,,,,,,,,,0,,69,0
80010,note_on,0,0,0,,,,,,,,,5,,69,0
80010,note_on,0,0,0,,,,,,,,,3,,69,0
80025,note_on,15,0,0,,,,,,,,,15,,50,0
80025,note_on,0,0,0,,,,,,,,,8,,50,0
80025,note_on,0,0,0,,,,,,,,,10,,38,0
80025,note_on,0,0,0,,,,,,,,,0,,50,0
80025,note_on,0,0,0,,,,,,,,,14,,50,0
80025,note_on,0,0,0,,,,,,,,,3,,50,0
80030,note_on,5,0,0,,,,,,,,,15,,66,0
80030,note_on,0,0,0,,,,,,,,,15,,69,0
80030,note_on,0,0,0,,,,,,,,,15,,57,0
80040,note_on,10,0,0,,,,,,,,,0,,47,100
80040,note_on,0,0,0,,,,,,,,,0,,74,100
80040,note_on,0,0,0,,,,,,,,,3,,47,100
80040,note_on,0,0,0,,,,,,,,,3,,74,100
80040,note_on,0,0,0,,,,,,,,,5,,74,100
80040,note_on,0,0,0,,,,,,,,,7,,71,100
80040,note_on,0,0,0,,,,,,,,,8,,47,100
80040,note_on,0,0,0,,,,,,,,,10,,35,100
80040,note_on,0,0,0,,,,,,,,,13,,74,100
80040,note_on,0,0,0,,,,,,,,,14,,47,100
80040,note_on,0,0,0,,,,,,,,,15,,66,100
80040,note_on,0,0,0,,,,,,,,,15,,62,100
80040,note_on,0,0,0,,,,,,,,,15,,71,100
80040,note_on,0,0,0,,,,,,,,,15,,47,100
80070,note_on,30,0,0,,,,,,,,,6,,66,0
80070,note_on,0,0,0,,,,,,,,,13,,66,0
80100,note_on,30,0,0,,,,,,,,,6,,66,100
80100,note_on,0,0,0,,,,,,,,,13,,66,100
80130,note_on,30,0,0,,,,,,,,,13,,66,0
80130,note_on,0,0,0,,,,,,,,,6,,66,0
80145,note_on,15,0,0,,,,,,,,,15,,62,0
80145,note_on,0,0,0,,,,,,,,,3,,74,0
80145,note_on,0,0,0,,,,,,,,,5,,74,0
80145,note_on,0,0,0,,,,,,,,,0,,47,0
80145,note_on,0,0,0,,,,,,,,,10,,35,0
80145,note_on,0,0,0,,,,,,,,,3,,47,0
80145,note_on,0,0,0,,,,,,,,,7,,71,0
80145,note_on,0,0,0,,,,,,,,,15,,47,0
80145,note_on,0,0,0,,,,,,,,,15,,71,0
80145,note_on,0,0,0,,,,,,,,,14,,47,0
80145,note_on,0,0,0,,,,,,,,,13,,74,0
80145,note_on,0,0,0,,,,,,,,,0,,74,0
80145,note_on,0,0,0,,,,,,,,,15,,66,0
80145,note_on,0,0,0,,,,,,,,,8,,47,0
80160,note_on,15,0,0,,,,,,,,,6,,68,100
80160,note_on,0,0,0,,,,,,,,,7,,68,100
80160,note_on,0,0,0,,,,,,,,,13,,68,100
80160,note_on,0,0,0,,,,,,,,,15,,64,100
80160,note_on,0,0,0,,,,,,,,,15,,59,100
80160,note_on,0,0,0,,,,,,,,,15,,71,100
80220,note_on,60,0,0,,,,,,,,,0,,71,100
80220,note_on,0,0,0,,,,,,,,,0,,56,100
80220,note_on,0,0,0,,,,,,,,,3,,71,100
80220,note_on,0,0,0,,,,,,,,,3,,56,100
80220,note_on,0,0,0,,,,,,,,,5,,71,100
80220,note_on,0,0,0,,,,,,,,,8,,56,100
80220,note_on,0,0,0,,,,,,,,,10,,44,100
80220,note_on,0,0,0,,,,,,,,,13,,71,100
80220,note_on,0,0,0,,,,,,,,,14,,56,100
80220,note_on,0,0,0,,,,,,,,,15,,56,100
80250,note_on,30,0,0,,,,,,,,,15,,56,0
80250,note_on,0,0,0,,,,,,,,,14,,56,0
80250,note_on,0,0,0,,,,,,,,,8,,56,0
80250,note_on,0,0,0,,,,,,,,,3,,56,0
80250,note_on,0,0,0,,,,,,,,,0,,71,0
80250,note_on,0,0,0,,,,,,,,,3,,71,0
80250,note_on,0,0,0,,,,,,,,,0,,56,0
80250,note_on,0,0,0,,,,,,,,,13,,71,0
80250,note_on,0,0,0,,,,,,,,,5,,71,0
80250,note_on,0,0,0,,,,,,,,,10,,44,0
80265,note_on,15,0,0,,,,,,,,,15,,71,0
80265,note_on,0,0,0,,,,,,,,,15,,59,0
80265,note_on,0,0,0,,,,,,,,,7,,68,0
80265,note_on,0,0,0,,,,,,,,,15,,64,0
80280,note_on,15,0,0,,,,,,,,,0,,76,100
80280,note_on,0,0,0,,,,,,,,,0,,61,100
80280,note_on,0,0,0,,,,,,,,,3,,76,100
80280,note_on,0,0,0,,,,,,,,,3,,61,100
80280,note_on,0,0,0,,,,,,,,,5,,76,100
80280,note_on,0,0,0,,,,,,,,,7,,64,100
80280,note_on,0,0,0,,,,,,,,,8,,61,100
80280,note_on,0,0,0,,,,,,,,,10,,49,100
80280,note_on,0,0,0,,,,,,,,,13,,76,100
80280,note_on,0,0,0,,,,,,,,,14,,61,100
80280,note_on,0,0,0,,,,,,,,,15,,57,100
80280,note_on,0,0,0,,,,,,,,,15,,64,100
80280,note_on,0,0,0,,,,,,,,,15,,69,100
80280,note_on,0,0,0,,,,,,,,,15,,61,100
80310,note_on,30,0,0,,,,,,,,,15,,61,0
80310,note_on,0,0,0,,,,,,,,,14,,61,0
80310,note_on,0,0,0,,,,,,,,,8,,61,0
80310,note_on,0,0,0,,,,,,,,,3,,61,0
80310,note_on,0,0,0,,,,,,,,,10,,49,0
80310,note_on,0,0,0,,,,,,,,,0,,61,0
80340,note_on,30,0,0,,,,,,,,,6,,68,0
80340,note_on,0,0,0,,,,,,,,,13,,68,0
80340,note_on,0,0,0,,,,,,,,,0,,49,100
80340,note_on,0,0,0,,,,,,,,,3,,49,100
80340,note_on,0,0,0,,,,,,,,,8,,49,100
80340,note_on,0,0,0,,,,,,,,,10,,37,100
80340,note_on,0,0,0,,,,,,,,,14,,49,100
80340,note_on,0,0,0,,,,,,,,,15,,49,100
80370,note_on,30,0,0,,,,,,,,,15,,49,0
80370,note_on,0,0,0,,,,,,,,,3,,49,0
80370,note_on,0,0,0,,,,,,,,,0,,49,0
80370,note_on,0,0,0,,,,,,,,,14,,49,0
80370,note_on,0,0,0,,,,,,,,,8,,49,0
80370,note_on,0,0,0,,,,,,,,,10,,37,0
80390,note_on,20,0,0,,,,,,,,,15,,57,0
80390,note_on,0,0,0,,,,,,,,,15,,69,0
80390,note_on,0,0,0,,,,,,,,,15,,64,0
80400,note_on,10,0,0,,,,,,,,,0,,61,100
80400,note_on,0,0,0,,,,,,,,,3,,61,100
80400,note_on,0,0,0,,,,,,,,,6,,64,100
80400,note_on,0,0,0,,,,,,,,,8,,61,100
80400,note_on,0,0,0,,,,,,,,,10,,49,100
80400,note_on,0,0,0,,,,,,,,,13,,64,100
80400,note_on,0,0,0,,,,,,,,,14,,61,100
80400,note_on,0,0,0,,,,,,,,,15,,64,100
80400,note_on,0,0,0,,,,,,,,,15,,69,100
80400,note_on,0,0,0,,,,,,,,,15,,61,100
80430,note_on,30,0,0,,,,,,,,,0,,76,0
80430,note_on,0,0,0,,,,,,,,,5,,76,0
80430,note_on,0,0,0,,,,,,,,,13,,76,0
80430,note_on,0,0,0,,,,,,,,,3,,76,0
80460,note_on,30,0,0,,,,,,,,,0,,68,100
80460,note_on,0,0,0,,,,,,,,,3,,68,100
80460,note_on,0,0,0,,,,,,,,,5,,68,100
80460,note_on,0,0,0,,,,,,,,,13,,68,100
80475,note_on,15,0,0,,,,,,,,,7,,64,0
80490,note_on,15,0,0,,,,,,,,,3,,68,0
80490,note_on,0,0,0,,,,,,,,,13,,68,0
80490,note_on,0,0,0,,,,,,,,,0,,68,0
80490,note_on,0,0,0,,,,,,,,,5,,68,0
80505,note_on,15,0,0,,,,,,,,,0,,61,0
80505,note_on,0,0,0,,,,,,,,,10,,49,0
80505,note_on,0,0,0,,,,,,,,,3,,61,0
80505,note_on,0,0,0,,,,,,,,,8,,61,0
80505,note_on,0,0,0,,,,,,,,,14,,61,0
80505,note_on,0,0,0,,,,,,,,,15,,61,0
80505,note_on,0,0,0,,,,,,,,,15,,69,0
80505,note_on,0,0,0,,,,,,,,,15,,64,0
80520,note_on,15,0,0,,,,,,,,,0,,73,100
80520,note_on,0,0,0,,,,,,,,,0,,57,100
80520,note_on,0,0,0,,,,,,,,,3,,73,100
80520,note_on,0,0,0,,,,,,,,,3,,57,100
80520,note_on,0,0,0,,,,,,,,,5,,73,100
80520,note_on,0,0,0,,,,,,,,,7,,69,100
80520,note_on,0,0,0,,,,,,,,,8,,57,100
80520,note_on,0,0,0,,,,,,,,,10,,45,100
80520,note_on,0,0,0,,,,,,,,,13,,73,100
80520,note_on,0,0,0,,,,,,,,,14,,57,100
80520,note_on,0,0,0,,,,,,,,,15,,61,100
80520,note_on,0,0,0,,,,,,,,,15,,64,100
80520,note_on,0,0,0,,,,,,,,,15,,69,100
80520,note_on,0,0,0,,,,,,,,,15,,57,100
80550,note_on,30,0,0,,,,,,,,,13,,64,0
80550,note_on,0,0,0,,,,,,,,,6,,64,0
80580,note_on,30,0,0,,,,,,,,,6,,64,100
80580,note_on,0,0,0,,,,,,,,,13,,64,100
80610,note_on,30,0,0,,,,,,,,,13,,64,0
80610,note_on,0,0,0,,,,,,,,,6,,64,0
80625,note_on,15,0,0,,,,,,,,,15,,64,0
80625,note_on,0,0,0,,,,,,,,,3,,57,0
80625,note_on,0,0,0,,,,,,,,,5,,73,0
80625,note_on,0,0,0,,,,,,,,,0,,73,0
80625,note_on,0,0,0,,,,,,,,,10,,45,0
80625,note_on,0,0,0,,,,,,,,,3,,73,0
80625,note_on,0,0,0,,,,,,,,,0,,57,0
80625,note_on,0,0,0,,,,,,,,,15,,57,0
80625,note_on,0,0,0,,,,,,,,,15,,69,0
80625,note_on,0,0,0,,,,,,,,,14,,57,0
80625,note_on,0,0,0,,,,,,,,,13,,73,0
80625,note_on,0,0,0,,,,,,,,,8,,57,0
80625,note_on,0,0,0,,,,,,,,,15,,61,0
80640,note_on,15,0,0,,,,,,,,,6,,66,100
80640,note_on,0,0,0,,,,,,,,,13,,66,100
80640,note_on,0,0,0,,,,,,,,,15,,62,100
80640,note_on,0,0,0,,,,,,,,,15,,57,100
80640,note_on,0,0,0,,,,,,,,,15,,69,100
80700,note_on,60,0,0,,,,,,,,,0,,69,100
80700,note_on,0,0,0,,,,,,,,,0,,54,100
80700,note_on,0,0,0,,,,,,,,,3,,69,100
80700,note_on,0,0,0,,,,,,,,,3,,54,100
80700,note_on,0,0,0,,,,,,,,,5,,69,100
80700,note_on,0,0,0,,,,,,,,,8,,54,100
80700,note_on,0,0,0,,,,,,,,,10,,42,100
80700,note_on,0,0,0,,,,,,,,,13,,69,100
80700,note_on,0,0,0,,,,,,,,,14,,54,100
80700,note_on,0,0,0,,,,,,,,,15,,54,100
80715,note_on,15,0,0,,,,,,,,,7,,69,0
80730,note_on,15,0,0,,,,,,,,,15,,54,0
80730,note_on,0,0,0,,,,,,,,,10,,42,0
80730,note_on,0,0,0,,,,,,,,,5,,69,0
80730,note_on,0,0,0,,,,,,,,,0,,69,0
80730,note_on,0,0,0,,,,,,,,,0,,54,0
80730,note_on,0,0,0,,,,,,,,,3,,54,0
80730,note_on,0,0,0,,,,,,,,,3,,69,0
80730,note_on,0,0,0,,,,,,,,,14,,54,0
80730,note_on,0,0,0,,,,,,,,,8,,54,0
80730,note_on,0,0,0,,,,,,,,,13,,69,0
80740,note_on,10,0,0,,,,,,,,,15,,69,0
80740,note_on,0,0,0,,,,,,,,,15,,62,0
80740,note_on,0,0,0,,,,,,,,,15,,57,0
80760,note_on,20,0,0,,,,,,,,,0,,74,100
80760,note_on,0,0,0,,,,,,,,,0,,59,100
80760,note_on,0,0,0,,,,,,,,,3,,74,100
80760,note_on,0,0,0,,,,,,,,,3,,59,100
80760,note_on,0,0,0,,,,,,,,,5,,74,100
80760,note_on,0,0,0,,,,,,,,,7,,66,100
80760,note_on,0,0,0,,,,,,,,,8,,59,100
80760,note_on,0,0,0,,,,,,,,,10,,47,100
80760,note_on,0,0,0,,,,,,,,,13,,74,100
80760,note_on,0,0,0,,,,,,,,,14,,59,100
80760,note_on,0,0,0,,,,,,,,,15,,56,100
80760,note_on,0,0,0,,,,,,,,,15,,62,100
80760,note_on,0,0,0,,,,,,,,,15,,68,100
80760,note_on,0,0,0,,,,,,,,,15,,59,100
80790,note_on,30,0,0,,,,,,,,,15,,59,0
80790,note_on,0,0,0,,,,,,,,,14,,59,0
80790,note_on,0,0,0,,,,,,,,,8,,59,0
80790,note_on,0,0,0,,,,,,,,,3,,59,0
80790,note_on,0,0,0,,,,,,,,,10,,47,0
80790,note_on,0,0,0,,,,,,,,,0,,59,0
80820,note_on,30,0,0,,,,,,,,,6,,66,0
80820,note_on,0,0,0,,,,,,,,,13,,66,0
80820,note_on,0,0,0,,,,,,,,,0,,47,100
80820,note_on,0,0,0,,,,,,,,,3,,47,100
80820,note_on,0,0,0,,,,,,,,,8,,47,100
80820,note_on,0,0,0,,,,,,,,,10,,35,100
80820,note_on,0,0,0,,,,,,,,,14,,47,100
80820,note_on,0,0,0,,,,,,,,,15,,47,100
80850,note_on,30,0,0,,,,,,,,,15,,47,0
80850,note_on,0,0,0,,,,,,,,,3,,47,0
80850,note_on,0,0,0,,,,,,,,,0,,47,0
80850,note_on,0,0,0,,,,,,,,,14,,47,0
80850,note_on,0,0,0,,,,,,,,,8,,47,0
80850,note_on,0,0,0,,,,,,,,,10,,35,0
80860,note_on,10,0,0,,,,,,,,,15,,56,0
80860,note_on,0,0,0,,,,,,,,,15,,68,0
80860,note_on,0,0,0,,,,,,,,,15,,62,0
80880,note_on,20,0,0,,,,,,,,,0,,59,100
80880,note_on,0,0,0,,,,,,,,,3,,59,100
80880,note_on,0,0,0,,,,,,,,,6,,62,100
80880,note_on,0,0,0,,,,,,,,,8,,59,100
80880,note_on,0,0,0,,,,,,,,,10,,47,100
80880,note_on,0,0,0,,,,,,,,,13,,62,100
80880,note_on,0,0,0,,,,,,,,,14,,59,100
80880,note_on,0,0,0,,,,,,,,,15,,62,100
80880,note_on,0,0,0,,,,,,,,,15,,68,100
80880,note_on,0,0,0,,,,,,,,,15,,59,100
80910,note_on,30,0,0,,,,,,,,,0,,74,0
80910,note_on,0,0,0,,,,,,,,,5,,74,0
80910,note_on,0,0,0,,,,,,,,,13,,74,0
80910,note_on,0,0,0,,,,,,,,,3,,74,0
80940,note_on,30,0,0,,,,,,,,,0,,66,100
80940,note_on,0,0,0,,,,,,,,,3,,66,100
80940,note_on,0,0,0,,,,,,,,,5,,66,100
80940,note_on,0,0,0,,,,,,,,,13,,66,100
80955,note_on,15,0,0,,,,,,,,,7,,66,0
80970,note_on,15,0,0,,,,,,,,,3,,66,0
80970,note_on,0,0,0,,,,,,,,,13,,66,0
80970,note_on,0,0,0,,,,,,,,,0,,66,0
80970,note_on,0,0,0,,,,,,,,,5,,66,0
80980,note_on,10,0,0,,,,,,,,,15,,68,0
80980,note_on,0,0,0,,,,,,,,,15,,62,0
80985,note_on,5,0,0,,,,,,,,,8,,59,0
80985,note_on,0,0,0,,,,,,,,,0,,59,0
80985,note_on,0,0,0,,,,,,,,,3,,59,0
80985,note_on,0,0,0,,,,,,,,,14,,59,0
80985,note_on,0,0,0,,,,,,,,,15,,59,0
80985,note_on,0,0,0,,,,,,,,,10,,47,0
81000,note_on,15,0,0,,,,,,,,,0,,71,100
81000,note_on,0,0,0,,,,,,,,,0,,56,100
81000,note_on,0,0,0,,,,,,,,,3,,71,100
81000,note_on,0,0,0,,,,,,,,,3,,56,100
81000,note_on,0,0,0,,,,,,,,,5,,71,100
81000,note_on,0,0,0,,,,,,,,,7,,64,100
81000,note_on,0,0,0,,,,,,,,,8,,56,100
81000,note_on,0,0,0,,,,,,,,,10,,44,100
81000,note_on,0,0,0,,,,,,,,,13,,71,100
81000,note_on,0,0,0,,,,,,,,,14,,56,100
81000,note_on,0,0,0,,,,,,,,,15,,71,100
81000,note_on,0,0,0,,,,,,,,,15,,62,100
81000,note_on,0,0,0,,,,,,,,,15,,59,100
81000,note_on,0,0,0,,,,,,,,,15,,56,100
81030,note_on,30,0,0,,,,,,,,,6,,62,0
81030,note_on,0,0,0,,,,,,,,,13,,62,0
81060,note_on,30,0,0,,,,,,,,,0,,56,0
81060,note_on,0,0,0,,,,,,,,,3,,56,0
81060,note_on,0,0,0,,,,,,,,,6,,62,100
81060,note_on,0,0,0,,,,,,,,,13,,62,100
81090,note_on,30,0,0,,,,,,,,,13,,62,0
81090,note_on,0,0,0,,,,,,,,,15,,56,0
81090,note_on,0,0,0,,,,,,,,,8,,56,0
81090,note_on,0,0,0,,,,,,,,,10,,44,0
81090,note_on,0,0,0,,,,,,,,,6,,62,0
81090,note_on,0,0,0,,,,,,,,,14,,56,0
81090,note_on,0,0,0,,,,,,,,,7,,64,0
81100,note_on,10,0,0,,,,,,,,,15,,59,0
81100,note_on,0,0,0,,,,,,,,,15,,62,0
81100,note_on,0,0,0,,,,,,,,,15,,71,0
81120,note_on,20,0,0,,,,,,,,,0,,57,100
81120,note_on,0,0,0,,,,,,,,,3,,57,100
81120,note_on,0,0,0,,,,,,,,,6,,61,100
81120,note_on,0,0,0,,,,,,,,,7,,64,100
81120,note_on,0,0,0,,,,,,,,,8,,57,100
81120,note_on,0,0,0,,,,,,,,,10,,45,100
81120,note_on,0,0,0,,,,,,,,,13,,64,100
81120,note_on,0,0,0,,,,,,,,,14,,57,100
81120,note_on,0,0,0,,,,,,,,,15,,64,100
81120,note_on,0,0,0,,,,,,,,,15,,61,100
81120,note_on,0,0,0,,,,,,,,,15,,71,100
81120,note_on,0,0,0,,,,,,,,,15,,57,100
81150,note_on,30,0,0,,,,,,,,,3,,71,0
81150,note_on,0,0,0,,,,,,,,,13,,71,0
81150,note_on,0,0,0,,,,,,,,,0,,71,0
81150,note_on,0,0,0,,,,,,,,,5,,71,0
81180,note_on,30,0,0,,,,,,,,,0,,64,100
81180,note_on,0,0,0,,,,,,,,,3,,64,100
81180,note_on,0,0,0,,,,,,,,,5,,64,100
81180,note_on,0,0,0,,,,,,,,,13,,64,100
81210,note_on,30,0,0,,,,,,,,,5,,64,0
81210,note_on,0,0,0,,,,,,,,,3,,64,0
81210,note_on,0,0,0,,,,,,,,,0,,64,0
81210,note_on,0,0,0,,,,,,,,,13,,64,0
81220,note_on,10,0,0,,,,,,,,,15,,71,0
81240,note_on,20,0,0,,,,,,,,,0,,69,100
81240,note_on,0,0,0,,,,,,,,,3,,69,100
81240,note_on,0,0,0,,,,,,,,,5,,69,100
81240,note_on,0,0,0,,,,,,,,,13,,69,100
81240,note_on,0,0,0,,,,,,,,,15,,69,100
81270,note_on,30,0,0,,,,,,,,,13,,69,0
81270,note_on,0,0,0,,,,,,,,,7,,64,0
81270,note_on,0,0,0,,,,,,,,,0,,69,0
81270,note_on,0,0,0,,,,,,,,,15,,57,0
81270,note_on,0,0,0,,,,,,,,,14,,57,0
81270,note_on,0,0,0,,,,,,,,,3,,57,0
81270,note_on,0,0,0,,,,,,,,,10,,45,0
81270,note_on,0,0,0,,,,,,,,,0,,57,0
81270,note_on,0,0,0,,,,,,,,,8,,57,0
81270,note_on,0,0,0,,,,,,,,,6,,61,0
81270,note_on,0,0,0,,,,,,,,,3,,69,0
81270,note_on,0,0,0,,,,,,,,,13,,64,0
81270,note_on,0,0,0,,,,,,,,,5,,69,0
81270,note_on,0,0,0,,,,,,,,,0,,71,100
81270,note_on,0,0,0,,,,,,,,,3,,71,100
81270,note_on,0,0,0,,,,,,,,,5,,71,100
81270,note_on,0,0,0,,,,,,,,,13,,71,100
81300,note_on,30,0,0,,,,,,,,,13,,71,0
81300,note_on,0,0,0,,,,,,,,,3,,71,0
81300,note_on,0,0,0,,,,,,,,,0,,71,0
81300,note_on,0,0,0,,,,,,,,,5,,71,0
81300,note_on,0,0,0,,,,,,,,,0,,69,100
81300,note_on,0,0,0,,,,,,,,,0,,57,100
81300,note_on,0,0,0,,,,,,,,,3,,69,100
81300,note_on,0,0,0,,,,,,,,,3,,57,100
81300,note_on,0,0,0,,,,,,,,,5,,69,100
81300,note_on,0,0,0,,,,,,,,,6,,73,100
81300,note_on,0,0,0,,,,,,,,,7,,64,100
81300,note_on,0,0,0,,,,,,,,,8,,57,100
81300,note_on,0,0,0,,,,,,,,,10,,45,100
81300,note_on,0,0,0,,,,,,,,,13,,69,100
81300,note_on,0,0,0,,,,,,,,,13,,73,100
81300,note_on,0,0,0,,,,,,,,,14,,57,100
81300,note_on,0,0,0,,,,,,,,,15,,57,100
81330,note_on,30,0,0,,,,,,,,,15,,57,0
81330,note_on,0,0,0,,,,,,,,,14,,57,0
81330,note_on,0,0,0,,,,,,,,,10,,45,0
81330,note_on,0,0,0,,,,,,,,,0,,57,0
81330,note_on,0,0,0,,,,,,,,,3,,69,0
81330,note_on,0,0,0,,,,,,,,,7,,64,0
81330,note_on,0,0,0,,,,,,,,,5,,69,0
81330,note_on,0,0,0,,,,,,,,,3,,57,0
81330,note_on,0,0,0,,,,,,,,,0,,69,0
81330,note_on,0,0,0,,,,,,,,,6,,73,0
81330,note_on,0,0,0,,,,,,,,,13,,69,0
81330,note_on,0,0,0,,,,,,,,,8,,57,0
81330,note_on,0,0,0,,,,,,,,,13,,73,0
81340,note_on,10,0,0,,,,,,,,,15,,64,0
81350,note_on,10,0,0,,,,,,,,,15,,61,0
81350,note_on,0,0,0,,,,,,,,,15,,69,0
81360,note_on,10,0,0,,,,,,,,,0,,68,100
81360,note_on,0,0,0,,,,,,,,,0,,64,100
81360,note_on,0,0,0,,,,,,,,,3,,68,100
81360,note_on,0,0,0,,,,,,,,,3,,64,100
81360,note_on,0,0,0,,,,,,,,,5,,68,100
81360,note_on,0,0,0,,,,,,,,,6,,71,100
81360,note_on,0,0,0,,,,,,,,,7,,64,100
81360,note_on,0,0,0,,,,,,,,,8,,64,100
81360,note_on,0,0,0,,,,,,,,,10,,52,100
81360,note_on,0,0,0,,,,,,,,,13,,68,100
81360,note_on,0,0,0,,,,,,,,,13,,71,100
81360,note_on,0,0,0,,,,,,,,,14,,64,100
81360,note_on,0,0,0,,,,,,,,,15,,74,100
81360,note_on,0,0,0,,,,,,,,,15,,71,100
81360,note_on,0,0,0,,,,,,,,,15,,68,100
81360,note_on,0,0,0,,,,,,,,,15,,64,100
81390,note_on,30,0,0,,,,,,,,,13,,68,0
81390,note_on,0,0,0,,,,,,,,,5,,68,0
81390,note_on,0,0,0,,,,,,,,,3,,68,0
81390,note_on,0,0,0,,,,,,,,,0,,68,0
81420,note_on,30,0,0,,,,,,,,,0,,80,100
81420,note_on,0,0,0,,,,,,,,,3,,80,100
81420,note_on,0,0,0,,,,,,,,,5,,80,100
81420,note_on,0,0,0,,,,,,,,,13,,80,100
81450,note_on,30,0,0,,,,,,,,,13,,80,0
81450,note_on,0,0,0,,,,,,,,,5,,80,0
81450,note_on,0,0,0,,,,,,,,,3,,80,0
81450,note_on,0,0,0,,,,,,,,,0,,80,0
81465,note_on,15,0,0,,,,,,,,,6,,71,0
81465,note_on,0,0,0,,,,,,,,,15,,64,0
81465,note_on,0,0,0,,,,,,,,,13,,71,0
81465,note_on,0,0,0,,,,,,,,,3,,64,0
81465,note_on,0,0,0,,,,,,,,,10,,52,0
81465,note_on,0,0,0,,,,,,,,,8,,64,0
81465,note_on,0,0,0,,,,,,,,,14,,64,0
81465,note_on,0,0,0,,,,,,,,,15,,74,0
81465,note_on,0,0,0,,,,,,,,,0,,64,0
81465,note_on,0,0,0,,,,,,,,,7,,64,0
81470,note_on,5,0,0,,,,,,,,,15,,71,0
81470,note_on,0,0,0,,,,,,,,,15,,68,0
81480,note_on,10,0,0,,,,,,,,,0,,81,100
81480,note_on,0,0,0,,,,,,,,,0,,61,100
81480,note_on,0,0,0,,,,,,,,,3,,81,100
81480,note_on,0,0,0,,,,,,,,,3,,61,100
81480,note_on,0,0,0,,,,,,,,,5,,81,100
81480,note_on,0,0,0,,,,,,,,,6,,76,100
81480,note_on,0,0,0,,,,,,,,,7,,69,100
81480,note_on,0,0,0,,,,,,,,,8,,61,100
81480,note_on,0,0,0,,,,,,,,,10,,49,100
81480,note_on,0,0,0,,,,,,,,,13,,81,100
81480,note_on,0,0,0,,,,,,,,,13,,76,100
81480,note_on,0,0,0,,,,,,,,,14,,61,100
81480,note_on,0,0,0,,,,,,,,,15,,73,100
81480,note_on,0,0,0,,,,,,,,,15,,64,100
81480,note_on,0,0,0,,,,,,,,,15,,69,100
81480,note_on,0,0,0,,,,,,,,,15,,61,100
81510,note_on,30,0,0,,,,,,,,,13,,81,0
81510,note_on,0,0,0,,,,,,,,,5,,81,0
81510,note_on,0,0,0,,,,,,,,,3,,81,0
81510,note_on,0,0,0,,,,,,,,,0,,81,0
81540,note_on,30,0,0,,,,,,,,,0,,83,100
81540,note_on,0,0,0,,,,,,,,,3,,83,100
81540,note_on,0,0,0,,,,,,,,,5,,83,100
81540,note_on,0,0,0,,,,,,,,,13,,83,100
81570,note_on,30,0,0,,,,,,,,,13,,83,0
81570,note_on,0,0,0,,,,,,,,,5,,83,0
81570,note_on,0,0,0,,,,,,,,,3,,83,0
81570,note_on,0,0,0,,,,,,,,,0,,83,0
81585,note_on,15,0,0,,,,,,,,,15,,73,0
81585,note_on,0,0,0,,,,,,,,,6,,76,0
81585,note_on,0,0,0,,,,,,,,,13,,76,0
81585,note_on,0,0,0,,,,,,,,,3,,61,0
81585,note_on,0,0,0,,,,,,,,,8,,61,0
81585,note_on,0,0,0,,,,,,,,,15,,61,0
81585,note_on,0,0,0,,,,,,,,,14,,61,0
81585,note_on,0,0,0,,,,,,,,,7,,69,0
81585,note_on,0,0,0,,,,,,,,,0,,61,0
81585,note_on,0,0,0,,,,,,,,,10,,49,0
81585,note_on,0,0,0,,,,,,,,,15,,64,0
81590,note_on,5,0,0,,,,,,,,,15,,69,0
81600,note_on,10,0,0,,,,,,,,,0,,85,100
81600,note_on,0,0,0,,,,,,,,,3,,85,100
81600,note_on,0,0,0,,,,,,,,,5,,85,100
81600,note_on,0,0,0,,,,,,,,,13,,85,100
81600,note_on,0,0,0,,,,,,,,,15,,64,100
81600,note_on,0,0,0,,,,,,,,,15,,61,100
81600,note_on,0,0,0,,,,,,,,,15,,73,100
81630,note_on,30,0,0,,,,,,,,,13,,85,0
81630,note_on,0,0,0,,,,,,,,,5,,85,0
81630,note_on,0,0,0,,,,,,,,,0,,85,0
81630,note_on,0,0,0,,,,,,,,,3,,85,0
81630,note_on,0,0,0,,,,,,,,,0,,86,100
81630,note_on,0,0,0,,,,,,,,,3,,86,100
81630,note_on,0,0,0,,,,,,,,,5,,86,100
81630,note_on,0,0,0,,,,,,,,,13,,86,100
81660,note_on,30,0,0,,,,,,,,,13,,86,0
81660,note_on,0,0,0,,,,,,,,,3,,86,0
81660,note_on,0,0,0,,,,,,,,,0,,86,0
81660,note_on,0,0,0,,,,,,,,,5,,86,0
81660,note_on,0,0,0,,,,,,,,,0,,85,100
81660,note_on,0,0,0,,,,,,,,,0,,57,100
81660,note_on,0,0,0,,,,,,,,,3,,85,100
81660,note_on,0,0,0,,,,,,,,,3,,57,100
81660,note_on,0,0,0,,,,,,,,,5,,85,100
81660,note_on,0,0,0,,,,,,,,,6,,69,100
81660,note_on,0,0,0,,,,,,,,,7,,64,100
81660,note_on,0,0,0,,,,,,,,,8,,57,100
81660,note_on,0,0,0,,,,,,,,,10,,45,100
81660,note_on,0,0,0,,,,,,,,,13,,85,100
81660,note_on,0,0,0,,,,,,,,,13,,69,100
81660,note_on,0,0,0,,,,,,,,,14,,57,100
81660,note_on,0,0,0,,,,,,,,,15,,57,100
81690,note_on,30,0,0,,,,,,,,,15,,57,0
81690,note_on,0,0,0,,,,,,,,,14,,57,0
81690,note_on,0,0,0,,,,,,,,,10,,45,0
81690,note_on,0,0,0,,,,,,,,,0,,57,0
81690,note_on,0,0,0,,,,,,,,,3,,85,0
81690,note_on,0,0,0,,,,,,,,,7,,64,0
81690,note_on,0,0,0,,,,,,,,,5,,85,0
81690,note_on,0,0,0,,,,,,,,,3,,57,0
81690,note_on,0,0,0,,,,,,,,,0,,85,0
81690,note_on,0,0,0,,,,,,,,,6,,69,0
81690,note_on,0,0,0,,,,,,,,,13,,85,0
81690,note_on,0,0,0,,,,,,,,,8,,57,0
81690,note_on,0,0,0,,,,,,,,,13,,69,0
81705,note_on,15,0,0,,,,,,,,,15,,61,0
81705,note_on,0,0,0,,,,,,,,,15,,73,0
81705,note_on,0,0,0,,,,,,,,,15,,64,0
81720,note_on,15,0,0,,,,,,,,,0,,78,100
81720,note_on,0,0,0,,,,,,,,,0,,62,100
81720,note_on,0,0,0,,,,,,,,,3,,78,100
81720,note_on,0,0,0,,,,,,,,,3,,62,100
81720,note_on,0,0,0,,,,,,,,,5,,78,100
81720,note_on,0,0,0,,,,,,,,,6,,69,100
81720,note_on,0,0,0,,,,,,,,,7,,66,100
81720,note_on,0,0,0,,,,,,,,,8,,62,100
81720,note_on,0,0,0,,,,,,,,,10,,50,100
81720,note_on,0,0,0,,,,,,,,,13,,78,100
81720,note_on,0,0,0,,,,,,,,,13,,69,100
81720,note_on,0,0,0,,,,,,,,,14,,62,100
81720,note_on,0,0,0,,,,,,,,,15,,74,100
81720,note_on,0,0,0,,,,,,,,,15,,66,100
81720,note_on,0,0,0,,,,,,,,,15,,69,100
81720,note_on,0,0,0,,,,,,,,,15,,62,100
81750,note_on,30,0,0,,,,,,,,,15,,62,0
81750,note_on,0,0,0,,,,,,,,,14,,62,0
81750,note_on,0,0,0,,,,,,,,,10,,50,0
81750,note_on,0,0,0,,,,,,,,,7,,66,0
81750,note_on,0,0,0,,,,,,,,,0,,62,0
81750,note_on,0,0,0,,,,,,,,,8,,62,0
81750,note_on,0,0,0,,,,,,,,,13,,69,0
81750,note_on,0,0,0,,,,,,,,,6,,69,0
81750,note_on,0,0,0,,,,,,,,,3,,62,0
81750,note_on,0,0,0,,,,,,,,,6,,71,100
81750,note_on,0,0,0,,,,,,,,,13,,71,100
81780,note_on,30,0,0,,,,,,,,,13,,71,0
81780,note_on,0,0,0,,,,,,,,,6,,71,0
81780,note_on,0,0,0,,,,,,,,,0,,50,100
81780,note_on,0,0,0,,,,,,,,,3,,50,100
81780,note_on,0,0,0,,,,,,,,,6,,69,100
81780,note_on,0,0,0,,,,,,,,,7,,66,100
81780,note_on,0,0,0,,,,,,,,,8,,50,100
81780,note_on,0,0,0,,,,,,,,,10,,38,100
81780,note_on,0,0,0,,,,,,,,,13,,69,100
81780,note_on,0,0,0,,,,,,,,,14,,50,100
81780,note_on,0,0,0,,,,,,,,,15,,50,100
81810,note_on,30,0,0,,,,,,,,,15,,50,0
81810,note_on,0,0,0,,,,,,,,,14,,50,0
81810,note_on,0,0,0,,,,,,,,,8,,50,0
81810,note_on,0,0,0,,,,,,,,,6,,69,0
81810,note_on,0,0,0,,,,,,,,,13,,78,0
81810,note_on,0,0,0,,,,,,,,,5,,78,0
81810,note_on,0,0,0,,,,,,,,,3,,50,0
81810,note_on,0,0,0,,,,,,,,,0,,50,0
81810,note_on,0,0,0,,,,,,,,,13,,69,0
81810,note_on,0,0,0,,,,,,,,,7,,66,0
81810,note_on,0,0,0,,,,,,,,,10,,38,0
81820,note_on,10,0,0,,,,,,,,,15,,66,0
81825,note_on,5,0,0,,,,,,,,,3,,78,0
81825,note_on,0,0,0,,,,,,,,,0,,78,0
81825,note_on,0,0,0,,,,,,,,,15,,69,0
81825,note_on,0,0,0,,,,,,,,,15,,74,0
81840,note_on,15,0,0,,,,,,,,,0,,62,100
81840,note_on,0,0,0,,,,,,,,,3,,62,100
81840,note_on,0,0,0,,,,,,,,,6,,78,100
81840,note_on,0,0,0,,,,,,,,,7,,71,100
81840,note_on,0,0,0,,,,,,,,,8,,62,100
81840,note_on,0,0,0,,,,,,,,,10,,50,100
81840,note_on,0,0,0,,,,,,,,,13,,78,100
81840,note_on,0,0,0,,,,,,,,,14,,62,100
81840,note_on,0,0,0,,,,,,,,,15,,66,100
81840,note_on,0,0,0,,,,,,,,,15,,71,100
81840,note_on,0,0,0,,,,,,,,,15,,74,100
81840,note_on,0,0,0,,,,,,,,,15,,62,100
81900,note_on,60,0,0,,,,,,,,,0,,78,100
81900,note_on,0,0,0,,,,,,,,,3,,78,100
81900,note_on,0,0,0,,,,,,,,,5,,78,100
81900,note_on,0,0,0,,,,,,,,,13,,78,100
81930,note_on,30,0,0,,,,,,,,,5,,78,0
81930,note_on,0,0,0,,,,,,,,,3,,78,0
81930,note_on,0,0,0,,,,,,,,,0,,78,0
81930,note_on,0,0,0,,,,,,,,,13,,78,0
81940,note_on,10,0,0,,,,,,,,,15,,74,0
81940,note_on,0,0,0,,,,,,,,,15,,71,0
81940,note_on,0,0,0,,,,,,,,,15,,66,0
81945,note_on,5,0,0,,,,,,,,,6,,78,0
81945,note_on,0,0,0,,,,,,,,,7,,71,0
81945,note_on,0,0,0,,,,,,,,,14,,62,0
81945,note_on,0,0,0,,,,,,,,,0,,62,0
81945,note_on,0,0,0,,,,,,,,,15,,62,0
81945,note_on,0,0,0,,,,,,,,,3,,62,0
81945,note_on,0,0,0,,,,,,,,,13,,78,0
81945,note_on,0,0,0,,,,,,,,,8,,62,0
81945,note_on,0,0,0,,,,,,,,,10,,50,0
81960,note_on,15,0,0,,,,,,,,,0,,80,100
81960,note_on,0,0,0,,,,,,,,,0,,59,100
81960,note_on,0,0,0,,,,,,,,,3,,80,100
81960,note_on,0,0,0,,,,,,,,,3,,59,100
81960,note_on,0,0,0,,,,,,,,,5,,80,100
81960,note_on,0,0,0,,,,,,,,,6,,74,100
81960,note_on,0,0,0,,,,,,,,,7,,71,100
81960,note_on,0,0,0,,,,,,,,,8,,59,100
81960,note_on,0,0,0,,,,,,,,,10,,47,100
81960,note_on,0,0,0,,,,,,,,,13,,80,100
81960,note_on,0,0,0,,,,,,,,,13,,74,100
81960,note_on,0,0,0,,,,,,,,,14,,59,100
81960,note_on,0,0,0,,,,,,,,,15,,62,100
81960,note_on,0,0,0,,,,,,,,,15,,66,100
81960,note_on,0,0,0,,,,,,,,,15,,74,100
81960,note_on,0,0,0,,,,,,,,,15,,59,100
81990,note_on,30,0,0,,,,,,,,,13,,80,0
81990,note_on,0,0,0,,,,,,,,,5,,80,0
81990,note_on,0,0,0,,,,,,,,,3,,80,0
81990,note_on,0,0,0,,,,,,,,,0,,80,0
82020,note_on,30,0,0,,,,,,,,,0,,81,100
82020,note_on,0,0,0,,,,,,,,,3,,81,100
82020,note_on,0,0,0,,,,,,,,,5,,81,100
82020,note_on,0,0,0,,,,,,,,,13,,81,100
82050,note_on,30,0,0,,,,,,,,,13,,81,0
82050,note_on,0,0,0,,,,,,,,,5,,81,0
82050,note_on,0,0,0,,,,,,,,,3,,81,0
82050,note_on,0,0,0,,,,,,,,,0,,81,0
82065,note_on,15,0,0,,,,,,,,,15,,62,0
82065,note_on,0,0,0,,,,,,,,,6,,74,0
82065,note_on,0,0,0,,,,,,,,,13,,74,0
82065,note_on,0,0,0,,,,,,,,,3,,59,0
82065,note_on,0,0,0,,,,,,,,,8,,59,0
82065,note_on,0,0,0,,,,,,,,,15,,59,0
82065,note_on,0,0,0,,,,,,,,,14,,59,0
82065,note_on,0,0,0,,,,,,,,,7,,71,0
82065,note_on,0,0,0,,,,,,,,,0,,59,0
82065,note_on,0,0,0,,,,,,,,,15,,66,0
82065,note_on,0,0,0,,,,,,,,,15,,74,0
82065,note_on,0,0,0,,,,,,,,,10,,47,0
82080,note_on,15,0,0,,,,,,,,,0,,83,100
82080,note_on,0,0,0,,,,,,,,,3,,83,100
82080,note_on,0,0,0,,,,,,,,,5,,83,100
82080,note_on,0,0,0,,,,,,,,,13,,83,100
82080,note_on,0,0,0,,,,,,,,,15,,64,100
82080,note_on,0,0,0,,,,,,,,,15,,69,100
82080,note_on,0,0,0,,,,,,,,,15,,74,100
82110,note_on,30,0,0,,,,,,,,,13,,83,0
82110,note_on,0,0,0,,,,,,,,,5,,83,0
82110,note_on,0,0,0,,,,,,,,,0,,83,0
82110,note_on,0,0,0,,,,,,,,,3,,83,0
82110,note_on,0,0,0,,,,,,,,,0,,85,100
82110,note_on,0,0,0,,,,,,,,,3,,85,100
82110,note_on,0,0,0,,,,,,,,,5,,85,100
82110,note_on,0,0,0,,,,,,,,,13,,85,100
82140,note_on,30,0,0,,,,,,,,,13,,85,0
82140,note_on,0,0,0,,,,,,,,,3,,85,0
82140,note_on,0,0,0,,,,,,,,,0,,85,0
82140,note_on,0,0,0,,,,,,,,,5,,85,0
82140,note_on,0,0,0,,,,,,,,,0,,83,100
82140,note_on,0,0,0,,,,,,,,,0,,56,100
82140,note_on,0,0,0,,,,,,,,,3,,83,100
82140,note_on,0,0,0,,,,,,,,,3,,56,100
82140,note_on,0,0,0,,,,,,,,,5,,83,100
82140,note_on,0,0,0,,,,,,,,,6,,74,100
82140,note_on,0,0,0,,,,,,,,,7,,71,100
82140,note_on,0,0,0,,,,,,,,,8,,56,100
82140,note_on,0,0,0,,,,,,,,,10,,44,100
82140,note_on,0,0,0,,,,,,,,,13,,83,100
82140,note_on,0,0,0,,,,,,,,,13,,74,100
82140,note_on,0,0,0,,,,,,,,,14,,56,100
82140,note_on,0,0,0,,,,,,,,,15,,56,100
82170,note_on,30,0,0,,,,,,,,,15,,56,0
82170,note_on,0,0,0,,,,,,,,,14,,56,0
82170,note_on,0,0,0,,,,,,,,,10,,44,0
82170,note_on,0,0,0,,,,,,,,,0,,56,0
82170,note_on,0,0,0,,,,,,,,,3,,83,0
82170,note_on,0,0,0,,,,,,,,,7,,71,0
82170,note_on,0,0,0,,,,,,,,,5,,83,0
82170,note_on,0,0,0,,,,,,,,,3,,56,0
82170,note_on,0,0,0,,,,,,,,,0,,83,0
82170,note_on,0,0,0,,,,,,,,,6,,74,0
82170,note_on,0,0,0,,,,,,,,,13,,83,0
82170,note_on,0,0,0,,,,,,,,,8,,56,0
82170,note_on,0,0,0,,,,,,,,,13,,74,0
82185,note_on,15,0,0,,,,,,,,,15,,69,0
82185,note_on,0,0,0,,,,,,,,,15,,74,0
82185,note_on,0,0,0,,,,,,,,,15,,64,0
82200,note_on,15,0,0,,,,,,,,,0,,76,100
82200,note_on,0,0,0,,,,,,,,,0,,61,100
82200,note_on,0,0,0,,,,,,,,,3,,76,100
82200,note_on,0,0,0,,,,,,,,,3,,61,100
82200,note_on,0,0,0,,,,,,,,,5,,76,100
82200,note_on,0,0,0,,,,,,,,,6,,73,100
82200,note_on,0,0,0,,,,,,,,,7,,69,100
82200,note_on,0,0,0,,,,,,,,,8,,61,100
82200,note_on,0,0,0,,,,,,,,,10,,49,100
82200,note_on,0,0,0,,,,,,,,,13,,76,100
82200,note_on,0,0,0,,,,,,,,,13,,73,100
82200,note_on,0,0,0,,,,,,,,,14,,61,100
82200,note_on,0,0,0,,,,,,,,,15,,64,100
82200,note_on,0,0,0,,,,,,,,,15,,69,100
82200,note_on,0,0,0,,,,,,,,,15,,73,100
82200,note_on,0,0,0,,,,,,,,,15,,61,100
82230,note_on,30,0,0,,,,,,,,,15,,61,0
82230,note_on,0,0,0,,,,,,,,,14,,61,0
82230,note_on,0,0,0,,,,,,,,,10,,49,0
82230,note_on,0,0,0,,,,,,,,,7,,69,0
82230,note_on,0,0,0,,,,,,,,,0,,61,0
82230,note_on,0,0,0,,,,,,,,,8,,61,0
82230,note_on,0,0,0,,,,,,,,,13,,73,0
82230,note_on,0,0,0,,,,,,,,,6,,73,0
82230,note_on,0,0,0,,,,,,,,,3,,61,0
82260,note_on,30,0,0,,,,,,,,,0,,49,100
82260,note_on,0,0,0,,,,,,,,,3,,49,100
82260,note_on,0,0,0,,,,,,,,,6,,71,100
82260,note_on,0,0,0,,,,,,,,,7,,68,100
82260,note_on,0,0,0,,,,,,,,,8,,49,100
82260,note_on,0,0,0,,,,,,,,,10,,37,100
82260,note_on,0,0,0,,,,,,,,,13,,71,100
82260,note_on,0,0,0,,,,,,,,,14,,49,100
82260,note_on,0,0,0,,,,,,,,,15,,49,100
82290,note_on,30,0,0,,,,,,,,,15,,49,0
82290,note_on,0,0,0,,,,,,,,,14,,49,0
82290,note_on,0,0,0,,,,,,,,,8,,49,0
82290,note_on,0,0,0,,,,,,,,,6,,71,0
82290,note_on,0,0,0,,,,,,,,,3,,49,0
82290,note_on,0,0,0,,,,,,,,,0,,49,0
82290,note_on,0,0,0,,,,,,,,,13,,71,0
82290,note_on,0,0,0,,,,,,,,,7,,68,0
82290,note_on,0,0,0,,,,,,,,,10,,37,0
82305,note_on,15,0,0,,,,,,,,,0,,76,0
82305,note_on,0,0,0,,,,,,,,,15,,64,0
82305,note_on,0,0,0,,,,,,,,,5,,76,0
82305,note_on,0,0,0,,,,,,,,,15,,73,0
82305,note_on,0,0,0,,,,,,,,,15,,69,0
82305,note_on,0,0,0,,,,,,,,,3,,76,0
82305,note_on,0,0,0,,,,,,,,,13,,76,0
82320,note_on,15,0,0,,,,,,,,,0,,61,100
82320,note_on,0,0,0,,,,,,,,,3,,61,100
82320,note_on,0,0,0,,,,,,,,,6,,76,100
82320,note_on,0,0,0,,,,,,,,,7,,69,100
82320,note_on,0,0,0,,,,,,,,,8,,61,100
82320,note_on,0,0,0,,,,,,,,,10,,49,100
82320,note_on,0,0,0,,,,,,,,,13,,76,100
82320,note_on,0,0,0,,,,,,,,,14,,61,100
82320,note_on,0,0,0,,,,,,,,,15,,66,100
82320,note_on,0,0,0,,,,,,,,,15,,69,100
82320,note_on,0,0,0,,,,,,,,,15,,61,100
82380,note_on,60,0,0,,,,,,,,,0,,69,100
82380,note_on,0,0,0,,,,,,,,,3,,69,100
82380,note_on,0,0,0,,,,,,,,,5,,69,100
82380,note_on,0,0,0,,,,,,,,,13,,69,100
82410,note_on,30,0,0,,,,,,,,,13,,69,0
82410,note_on,0,0,0,,,,,,,,,0,,69,0
82410,note_on,0,0,0,,,,,,,,,5,,69,0
82410,note_on,0,0,0,,,,,,,,,3,,69,0
82425,note_on,15,0,0,,,,,,,,,3,,61,0
82425,note_on,0,0,0,,,,,,,,,14,,61,0
82425,note_on,0,0,0,,,,,,,,,6,,76,0
82425,note_on,0,0,0,,,,,,,,,7,,69,0
82425,note_on,0,0,0,,,,,,,,,0,,61,0
82425,note_on,0,0,0,,,,,,,,,8,,61,0
82425,note_on,0,0,0,,,,,,,,,15,,61,0
82425,note_on,0,0,0,,,,,,,,,15,,66,0
82425,note_on,0,0,0,,,,,,,,,13,,76,0
82425,note_on,0,0,0,,,,,,,,,10,,49,0
82425,note_on,0,0,0,,,,,,,,,15,,69,0
82440,note_on,15,0,0,,,,,,,,,0,,71,100
82440,note_on,0,0,0,,,,,,,,,0,,57,100
82440,note_on,0,0,0,,,,,,,,,3,,71,100
82440,note_on,0,0,0,,,,,,,,,3,,57,100
82440,note_on,0,0,0,,,,,,,,,5,,71,100
82440,note_on,0,0,0,,,,,,,,,6,,64,100
82440,note_on,0,0,0,,,,,,,,,7,,69,100
82440,note_on,0,0,0,,,,,,,,,8,,57,100
82440,note_on,0,0,0,,,,,,,,,10,,45,100
82440,note_on,0,0,0,,,,,,,,,13,,71,100
82440,note_on,0,0,0,,,,,,,,,13,,64,100
82440,note_on,0,0,0,,,,,,,,,14,,57,100
82440,note_on,0,0,0,,,,,,,,,15,,61,100
82440,note_on,0,0,0,,,,,,,,,15,,73,100
82440,note_on,0,0,0,,,,,,,,,15,,66,100
82440,note_on,0,0,0,,,,,,,,,15,,57,100
82470,note_on,30,0,0,,,,,,,,,13,,71,0
82470,note_on,0,0,0,,,,,,,,,5,,71,0
82470,note_on,0,0,0,,,,,,,,,3,,71,0
82470,note_on,0,0,0,,,,,,,,,0,,71,0
82500,note_on,30,0,0,,,,,,,,,0,,73,100
82500,note_on,0,0,0,,,,,,,,,3,,73,100
82500,note_on,0,0,0,,,,,,,,,5,,73,100
82500,note_on,0,0,0,,,,,,,,,13,,73,100
82530,note_on,30,0,0,,,,,,,,,13,,73,0
82530,note_on,0,0,0,,,,,,,,,5,,73,0
82530,note_on,0,0,0,,,,,,,,,3,,73,0
82530,note_on,0,0,0,,,,,,,,,0,,73,0
82545,note_on,15,0,0,,,,,,,,,15,,61,0
82545,note_on,0,0,0,,,,,,,,,6,,64,0
82545,note_on,0,0,0,,,,,,,,,13,,64,0
82545,note_on,0,0,0,,,,,,,,,3,,57,0
82545,note_on,0,0,0,,,,,,,,,8,,57,0
82545,note_on,0,0,0,,,,,,,,,15,,57,0
82545,note_on,0,0,0,,,,,,,,,14,,57,0
82545,note_on,0,0,0,,,,,,,,,7,,69,0
82545,note_on,0,0,0,,,,,,,,,0,,57,0
82545,note_on,0,0,0,,,,,,,,,15,,73,0
82545,note_on,0,0,0,,,,,,,,,15,,66,0
82545,note_on,0,0,0,,,,,,,,,10,,45,0
82560,note_on,15,0,0,,,,,,,,,0,,50,100
82560,note_on,0,0,0,,,,,,,,,0,,66,100
82560,note_on,0,0,0,,,,,,,,,3,,50,100
82560,note_on,0,0,0,,,,,,,,,3,,66,100
82560,note_on,0,0,0,,,,,,,,,5,,66,100
82560,note_on,0,0,0,,,,,,,,,6,,66,100
82560,note_on,0,0,0,,,,,,,,,7,,57,100
82560,note_on,0,0,0,,,,,,,,,8,,50,100
82560,note_on,0,0,0,,,,,,,,,10,,38,100
82560,note_on,0,0,0,,,,,,,,,13,,66,100
82560,note_on,0,0,0,,,,,,,,,13,,66,100
82560,note_on,0,0,0,,,,,,,,,14,,50,100
82560,note_on,0,0,0,,,,,,,,,15,,66,100
82560,note_on,0,0,0,,,,,,,,,15,,69,100
82560,note_on,0,0,0,,,,,,,,,15,,62,100
82560,note_on,0,0,0,,,,,,,,,15,,50,100
82590,note_on,30,0,0,,,,,,,,,13,,66,0
82590,note_on,0,0,0,,,,,,,,,5,,66,0
82590,note_on,0,0,0,,,,,,,,,3,,66,0
82590,note_on,0,0,0,,,,,,,,,0,,66,0
82620,note_on,30,0,0,,,,,,,,,0,,71,100
82620,note_on,0,0,0,,,,,,,,,3,,71,100
82620,note_on,0,0,0,,,,,,,,,5,,71,100
82620,note_on,0,0,0,,,,,,,,,13,,71,100
82650,note_on,30,0,0,,,,,,,,,13,,71,0
82650,note_on,0,0,0,,,,,,,,,5,,71,0
82650,note_on,0,0,0,,,,,,,,,3,,71,0
82650,note_on,0,0,0,,,,,,,,,0,,71,0
82665,note_on,15,0,0,,,,,,,,,14,,50,0
82665,note_on,0,0,0,,,,,,,,,10,,38,0
82665,note_on,0,0,0,,,,,,,,,3,,50,0
82665,note_on,0,0,0,,,,,,,,,0,,50,0
82665,note_on,0,0,0,,,,,,,,,15,,50,0
82665,note_on,0,0,0,,,,,,,,,8,,50,0
82665,note_on,0,0,0,,,,,,,,,7,,57,0
82665,note_on,0,0,0,,,,,,,,,15,,62,0
82665,note_on,0,0,0,,,,,,,,,15,,66,0
82665,note_on,0,0,0,,,,,,,,,15,,69,0
82680,note_on,15,0,0,,,,,,,,,0,,47,100
82680,note_on,0,0,0,,,,,,,,,0,,73,100
82680,note_on,0,0,0,,,,,,,,,3,,47,100
82680,note_on,0,0,0,,,,,,,,,3,,73,100
82680,note_on,0,0,0,,,,,,,,,5,,73,100
82680,note_on,0,0,0,,,,,,,,,7,,59,100
82680,note_on,0,0,0,,,,,,,,,8,,47,100
82680,note_on,0,0,0,,,,,,,,,10,,35,100
82680,note_on,0,0,0,,,,,,,,,13,,73,100
82680,note_on,0,0,0,,,,,,,,,14,,47,100
82680,note_on,0,0,0,,,,,,,,,15,,62,100
82680,note_on,0,0,0,,,,,,,,,15,,66,100
82680,note_on,0,0,0,,,,,,,,,15,,71,100
82680,note_on,0,0,0,,,,,,,,,15,,47,100
82710,note_on,30,0,0,,,,,,,,,13,,73,0
82710,note_on,0,0,0,,,,,,,,,5,,73,0
82710,note_on,0,0,0,,,,,,,,,6,,66,0
82710,note_on,0,0,0,,,,,,,,,13,,66,0
82710,note_on,0,0,0,,,,,,,,,3,,73,0
82710,note_on,0,0,0,,,,,,,,,0,,73,0
82740,note_on,30,0,0,,,,,,,,,0,,74,100
82740,note_on,0,0,0,,,,,,,,,3,,74,100
82740,note_on,0,0,0,,,,,,,,,5,,74,100
82740,note_on,0,0,0,,,,,,,,,6,,66,100
82740,note_on,0,0,0,,,,,,,,,13,,74,100
82740,note_on,0,0,0,,,,,,,,,13,,66,100
82770,note_on,30,0,0,,,,,,,,,13,,66,0
82770,note_on,0,0,0,,,,,,,,,13,,74,0
82770,note_on,0,0,0,,,,,,,,,3,,74,0
82770,note_on,0,0,0,,,,,,,,,6,,66,0
82770,note_on,0,0,0,,,,,,,,,0,,74,0
82770,note_on,0,0,0,,,,,,,,,5,,74,0
82785,note_on,15,0,0,,,,,,,,,15,,71,0
82785,note_on,0,0,0,,,,,,,,,3,,47,0
82785,note_on,0,0,0,,,,,,,,,8,,47,0
82785,note_on,0,0,0,,,,,,,,,7,,59,0
82785,note_on,0,0,0,,,,,,,,,0,,47,0
82785,note_on,0,0,0,,,,,,,,,14,,47,0
82785,note_on,0,0,0,,,,,,,,,15,,66,0
82785,note_on,0,0,0,,,,,,,,,10,,35,0
82785,note_on,0,0,0,,,,,,,,,15,,62,0
82785,note_on,0,0,0,,,,,,,,,15,,47,0
82800,note_on,15,0,0,,,,,,,,,0,,52,100
82800,note_on,0,0,0,,,,,,,,,0,,68,100
82800,note_on,0,0,0,,,,,,,,,3,,52,100
82800,note_on,0,0,0,,,,,,,,,3,,68,100
82800,note_on,0,0,0,,,,,,,,,5,,68,100
82800,note_on,0,0,0,,,,,,,,,6,,64,100
82800,note_on,0,0,0,,,,,,,,,7,,59,100
82800,note_on,0,0,0,,,,,,,,,8,,52,100
82800,note_on,0,0,0,,,,,,,,,10,,40,100
82800,note_on,0,0,0,,,,,,,,,13,,68,100
82800,note_on,0,0,0,,,,,,,,,13,,64,100
82800,note_on,0,0,0,,,,,,,,,14,,52,100
82800,note_on,0,0,0,,,,,,,,,15,,71,100
82800,note_on,0,0,0,,,,,,,,,15,,68,100
82800,note_on,0,0,0,,,,,,,,,15,,64,100
82800,note_on,0,0,0,,,,,,,,,15,,52,100
82830,note_on,30,0,0,,,,,,,,,13,,68,0
82830,note_on,0,0,0,,,,,,,,,5,,68,0
82830,note_on,0,0,0,,,,,,,,,3,,68,0
82830,note_on,0,0,0,,,,,,,,,0,,68,0
82860,note_on,30,0,0,,,,,,,,,0,,73,100
82860,note_on,0,0,0,,,,,,,,,3,,73,100
82860,note_on,0,0,0,,,,,,,,,5,,73,100
82860,note_on,0,0,0,,,,,,,,,13,,73,100
82890,note_on,30,0,0,,,,,,,,,13,,73,0
82890,note_on,0,0,0,,,,,,,,,5,,73,0
82890,note_on,0,0,0,,,,,,,,,3,,73,0
82890,note_on,0,0,0,,,,,,,,,0,,73,0
82905,note_on,15,0,0,,,,,,,,,14,,52,0
82905,note_on,0,0,0,,,,,,,,,3,,52,0
82905,note_on,0,0,0,,,,,,,,,13,,64,0
82905,note_on,0,0,0,,,,,,,,,0,,52,0
82905,note_on,0,0,0,,,,,,,,,8,,52,0
82905,note_on,0,0,0,,,,,,,,,15,,52,0
82905,note_on,0,0,0,,,,,,,,,7,,59,0
82905,note_on,0,0,0,,,,,,,,,15,,64,0
82905,note_on,0,0,0,,,,,,,,,15,,71,0
82905,note_on,0,0,0,,,,,,,,,6,,64,0
82905,note_on,0,0,0,,,,,,,,,15,,68,0
82905,note_on,0,0,0,,,,,,,,,10,,40,0
82920,note_on,15,0,0,,,,,,,,,0,,49,100
82920,note_on,0,0,0,,,,,,,,,0,,74,100
82920,note_on,0,0,0,,,,,,,,,3,,49,100
82920,note_on,0,0,0,,,,,,,,,3,,74,100
82920,note_on,0,0,0,,,,,,,,,5,,74,100
82920,note_on,0,0,0,,,,,,,,,6,,68,100
82920,note_on,0,0,0,,,,,,,,,7,,64,100
82920,note_on,0,0,0,,,,,,,,,8,,49,100
82920,note_on,0,0,0,,,,,,,,,10,,37,100
82920,note_on,0,0,0,,,,,,,,,13,,74,100
82920,note_on,0,0,0,,,,,,,,,13,,68,100
82920,note_on,0,0,0,,,,,,,,,14,,49,100
82920,note_on,0,0,0,,,,,,,,,15,,64,100
82920,note_on,0,0,0,,,,,,,,,15,,68,100
82920,note_on,0,0,0,,,,,,,,,15,,73,100
82920,note_on,0,0,0,,,,,,,,,15,,49,100
82950,note_on,30,0,0,,,,,,,,,13,,74,0
82950,note_on,0,0,0,,,,,,,,,5,,74,0
82950,note_on,0,0,0,,,,,,,,,3,,74,0
82950,note_on,0,0,0,,,,,,,,,0,,74,0
82980,note_on,30,0,0,,,,,,,,,0,,76,100
82980,note_on,0,0,0,,,,,,,,,3,,76,100
82980,note_on,0,0,0,,,,,,,,,5,,76,100
82980,note_on,0,0,0,,,,,,,,,13,,76,100
83010,note_on,30,0,0,,,,,,,,,13,,76,0
83010,note_on,0,0,0,,,,,,,,,5,,76,0
83010,note_on,0,0,0,,,,,,,,,3,,76,0
83010,note_on,0,0,0,,,,,,,,,0,,76,0
83025,note_on,15,0,0,,,,,,,,,14,,49,0
83025,note_on,0,0,0,,,,,,,,,3,,49,0
83025,note_on,0,0,0,,,,,,,,,13,,68,0
83025,note_on,0,0,0,,,,,,,,,0,,49,0
83025,note_on,0,0,0,,,,,,,,,8,,49,0
83025,note_on,0,0,0,,,,,,,,,15,,49,0
83025,note_on,0,0,0,,,,,,,,,7,,64,0
83025,note_on,0,0,0,,,,,,,,,15,,73,0
83025,note_on,0,0,0,,,,,,,,,15,,64,0
83025,note_on,0,0,0,,,,,,,,,6,,68,0
83025,note_on,0,0,0,,,,,,,,,15,,68,0
83025,note_on,0,0,0,,,,,,,,,10,,37,0
83040,note_on,15,0,0,,,,,,,,,0,,54,100
83040,note_on,0,0,0,,,,,,,,,0,,69,100
83040,note_on,0,0,0,,,,,,,,,3,,54,100
83040,note_on,0,0,0,,,,,,,,,3,,69,100
83040,note_on,0,0,0,,,,,,,,,5,,69,100
83040,note_on,0,0,0,,,,,,,,,6,,66,100
83040,note_on,0,0,0,,,,,,,,,7,,61,100
83040,note_on,0,0,0,,,,,,,,,8,,54,100
83040,note_on,0,0,0,,,,,,,,,10,,42,100
83040,note_on,0,0,0,,,,,,,,,13,,69,100
83040,note_on,0,0,0,,,,,,,,,13,,66,100
83040,note_on,0,0,0,,,,,,,,,14,,54,100
83040,note_on,0,0,0,,,,,,,,,15,,62,100
83040,note_on,0,0,0,,,,,,,,,15,,57,100
83040,note_on,0,0,0,,,,,,,,,15,,69,100
83040,note_on,0,0,0,,,,,,,,,15,,54,100
83070,note_on,30,0,0,,,,,,,,,13,,66,0
83070,note_on,0,0,0,,,,,,,,,13,,69,0
83070,note_on,0,0,0,,,,,,,,,6,,66,0
83070,note_on,0,0,0,,,,,,,,,0,,69,0
83070,note_on,0,0,0,,,,,,,,,3,,69,0
83070,note_on,0,0,0,,,,,,,,,5,,69,0
83100,note_on,30,0,0,,,,,,,,,0,,78,100
83100,note_on,0,0,0,,,,,,,,,3,,78,100
83100,note_on,0,0,0,,,,,,,,,5,,78,100
83100,note_on,0,0,0,,,,,,,,,6,,69,100
83100,note_on,0,0,0,,,,,,,,,13,,78,100
83100,note_on,0,0,0,,,,,,,,,13,,69,100
83130,note_on,30,0,0,,,,,,,,,13,,69,0
83130,note_on,0,0,0,,,,,,,,,13,,78,0
83130,note_on,0,0,0,,,,,,,,,3,,78,0
83130,note_on,0,0,0,,,,,,,,,6,,69,0
83130,note_on,0,0,0,,,,,,,,,0,,78,0
83130,note_on,0,0,0,,,,,,,,,5,,78,0
83145,note_on,15,0,0,,,,,,,,,7,,61,0
83145,note_on,0,0,0,,,,,,,,,0,,54,0
83145,note_on,0,0,0,,,,,,,,,8,,54,0
83145,note_on,0,0,0,,,,,,,,,15,,54,0
83145,note_on,0,0,0,,,,,,,,,3,,54,0
83145,note_on,0,0,0,,,,,,,,,15,,69,0
83145,note_on,0,0,0,,,,,,,,,14,,54,0
83145,note_on,0,0,0,,,,,,,,,15,,57,0
83145,note_on,0,0,0,,,,,,,,,15,,62,0
83145,note_on,0,0,0,,,,,,,,,10,,42,0
83160,note_on,15,0,0,,,,,,,,,0,,42,100
83160,note_on,0,0,0,,,,,,,,,0,,80,100
83160,note_on,0,0,0,,,,,,,,,3,,42,100
83160,note_on,0,0,0,,,,,,,,,3,,80,100
83160,note_on,0,0,0,,,,,,,,,5,,80,100
83160,note_on,0,0,0,,,,,,,,,6,,71,100
83160,note_on,0,0,0,,,,,,,,,7,,66,100
83160,note_on,0,0,0,,,,,,,,,8,,42,100
83160,note_on,0,0,0,,,,,,,,,10,,30,100
83160,note_on,0,0,0,,,,,,,,,13,,80,100
83160,note_on,0,0,0,,,,,,,,,13,,71,100
83160,note_on,0,0,0,,,,,,,,,14,,42,100
83160,note_on,0,0,0,,,,,,,,,15,,62,100
83160,note_on,0,0,0,,,,,,,,,15,,69,100
83160,note_on,0,0,0,,,,,,,,,15,,74,100
83160,note_on,0,0,0,,,,,,,,,15,,42,100
83190,note_on,30,0,0,,,,,,,,,13,,71,0
83190,note_on,0,0,0,,,,,,,,,13,,80,0
83190,note_on,0,0,0,,,,,,,,,6,,71,0
83190,note_on,0,0,0,,,,,,,,,0,,80,0
83190,note_on,0,0,0,,,,,,,,,3,,80,0
83190,note_on,0,0,0,,,,,,,,,5,,80,0
83220,note_on,30,0,0,,,,,,,,,0,,81,100
83220,note_on,0,0,0,,,,,,,,,3,,81,100
83220,note_on,0,0,0,,,,,,,,,5,,81,100
83220,note_on,0,0,0,,,,,,,,,6,,73,100
83220,note_on,0,0,0,,,,,,,,,13,,81,100
83220,note_on,0,0,0,,,,,,,,,13,,73,100
83250,note_on,30,0,0,,,,,,,,,13,,73,0
83250,note_on,0,0,0,,,,,,,,,13,,81,0
83250,note_on,0,0,0,,,,,,,,,3,,81,0
83250,note_on,0,0,0,,,,,,,,,6,,73,0
83250,note_on,0,0,0,,,,,,,,,0,,81,0
83250,note_on,0,0,0,,,,,,,,,5,,81,0
83265,note_on,15,0,0,,,,,,,,,7,,66,0
83265,note_on,0,0,0,,,,,,,,,0,,42,0
83265,note_on,0,0,0,,,,,,,,,8,,42,0
83265,note_on,0,0,0,,,,,,,,,15,,42,0
83265,note_on,0,0,0,,,,,,,,,3,,42,0
83265,note_on,0,0,0,,,,,,,,,15,,74,0
83265,note_on,0,0,0,,,,,,,,,14,,42,0
83265,note_on,0,0,0,,,,,,,,,15,,69,0
83265,note_on,0,0,0,,,,,,,,,15,,62,0
83265,note_on,0,0,0,,,,,,,,,10,,30,0
83280,note_on,15,0,0,,,,,,,,,0,,44,100
83280,note_on,0,0,0,,,,,,,,,0,,71,100
83280,note_on,0,0,0,,,,,,,,,3,,44,100
83280,note_on,0,0,0,,,,,,,,,3,,71,100
83280,note_on,0,0,0,,,,,,,,,5,,71,100
83280,note_on,0,0,0,,,,,,,,,6,,71,100
83280,note_on,0,0,0,,,,,,,,,7,,64,100
83280,note_on,0,0,0,,,,,,,,,8,,44,100
83280,note_on,0,0,0,,,,,,,,,10,,32,100
83280,note_on,0,0,0,,,,,,,,,13,,71,100
83280,note_on,0,0,0,,,,,,,,,13,,71,100
83280,note_on,0,0,0,,,,,,,,,14,,44,100
83280,note_on,0,0,0,,,,,,,,,15,,71,100
83280,note_on,0,0,0,,,,,,,,,15,,64,100
83280,note_on,0,0,0,,,,,,,,,15,,44,100
83280,note_on,0,0,0,,,,,,,,,15,,68,100
83310,note_on,30,0,0,,,,,,,,,13,,71,0
83310,note_on,0,0,0,,,,,,,,,5,,71,0
83310,note_on,0,0,0,,,,,,,,,3,,71,0
83310,note_on,0,0,0,,,,,,,,,0,,71,0
83340,note_on,30,0,0,,,,,,,,,0,,78,100
83340,note_on,0,0,0,,,,,,,,,3,,78,100
83340,note_on,0,0,0,,,,,,,,,5,,78,100
83340,note_on,0,0,0,,,,,,,,,13,,78,100
83370,note_on,30,0,0,,,,,,,,,13,,78,0
83370,note_on,0,0,0,,,,,,,,,5,,78,0
83370,note_on,0,0,0,,,,,,,,,3,,78,0
83370,note_on,0,0,0,,,,,,,,,0,,78,0
83385,note_on,15,0,0,,,,,,,,,14,,44,0
83385,note_on,0,0,0,,,,,,,,,15,,68,0
83385,note_on,0,0,0,,,,,,,,,10,,32,0
83385,note_on,0,0,0,,,,,,,,,0,,44,0
83385,note_on,0,0,0,,,,,,,,,8,,44,0
83385,note_on,0,0,0,,,,,,,,,15,,71,0
83385,note_on,0,0,0,,,,,,,,,3,,44,0
83385,note_on,0,0,0,,,,,,,,,15,,44,0
83385,note_on,0,0,0,,,,,,,,,15,,64,0
83400,note_on,15,0,0,,,,,,,,,0,,56,100
83400,note_on,0,0,0,,,,,,,,,0,,76,100
83400,note_on,0,0,0,,,,,,,,,3,,56,100
83400,note_on,0,0,0,,,,,,,,,3,,76,100
83400,note_on,0,0,0,,,,,,,,,5,,76,100
83400,note_on,0,0,0,,,,,,,,,8,,56,100
83400,note_on,0,0,0,,,,,,,,,10,,44,100
83400,note_on,0,0,0,,,,,,,,,13,,76,100
83400,note_on,0,0,0,,,,,,,,,14,,56,100
83400,note_on,0,0,0,,,,,,,,,15,,59,100
83400,note_on,0,0,0,,,,,,,,,15,,64,100
83400,note_on,0,0,0,,,,,,,,,15,,71,100
83400,note_on,0,0,0,,,,,,,,,15,,56,100
83430,note_on,30,0,0,,,,,,,,,13,,76,0
83430,note_on,0,0,0,,,,,,,,,5,,76,0
83430,note_on,0,0,0,,,,,,,,,13,,71,0
83430,note_on,0,0,0,,,,,,,,,3,,76,0
83430,note_on,0,0,0,,,,,,,,,7,,64,0
83430,note_on,0,0,0,,,,,,,,,0,,76,0
83430,note_on,0,0,0,,,,,,,,,6,,71,0
83460,note_on,30,0,0,,,,,,,,,0,,74,100
83460,note_on,0,0,0,,,,,,,,,3,,74,100
83460,note_on,0,0,0,,,,,,,,,5,,74,100
83460,note_on,0,0,0,,,,,,,,,6,,71,100
83460,note_on,0,0,0,,,,,,,,,7,,64,100
83460,note_on,0,0,0,,,,,,,,,13,,74,100
83460,note_on,0,0,0,,,,,,,,,13,,71,100
83490,note_on,30,0,0,,,,,,,,,13,,71,0
83490,note_on,0,0,0,,,,,,,,,13,,74,0
83490,note_on,0,0,0,,,,,,,,,5,,74,0
83490,note_on,0,0,0,,,,,,,,,0,,74,0
83490,note_on,0,0,0,,,,,,,,,7,,64,0
83490,note_on,0,0,0,,,,,,,,,3,,74,0
83490,note_on,0,0,0,,,,,,,,,6,,71,0
83505,note_on,15,0,0,,,,,,,,,15,,64,0
83505,note_on,0,0,0,,,,,,,,,8,,56,0
83505,note_on,0,0,0,,,,,,,,,0,,56,0
83505,note_on,0,0,0,,,,,,,,,15,,59,0
83505,note_on,0,0,0,,,,,,,,,15,,71,0
83505,note_on,0,0,0,,,,,,,,,10,,44,0
83505,note_on,0,0,0,,,,,,,,,15,,56,0
83505,note_on,0,0,0,,,,,,,,,14,,56,0
83505,note_on,0,0,0,,,,,,,,,3,,56,0
83520,note_on,15,0,0,,,,,,,,,0,,57,100
83520,note_on,0,0,0,,,,,,,,,0,,74,100
83520,note_on,0,0,0,,,,,,,,,3,,57,100
83520,note_on,0,0,0,,,,,,,,,3,,74,100
83520,note_on,0,0,0,,,,,,,,,5,,74,100
83520,note_on,0,0,0,,,,,,,,,6,,69,100
83520,note_on,0,0,0,,,,,,,,,7,,64,100
83520,note_on,0,0,0,,,,,,,,,8,,57,100
83520,note_on,0,0,0,,,,,,,,,10,,45,100
83520,note_on,0,0,0,,,,,,,,,13,,74,100
83520,note_on,0,0,0,,,,,,,,,13,,69,100
83520,note_on,0,0,0,,,,,,,,,14,,57,100
83520,note_on,0,0,0,,,,,,,,,15,,61,100
83520,note_on,0,0,0,,,,,,,,,15,,64,100
83520,note_on,0,0,0,,,,,,,,,15,,69,100
83520,note_on,0,0,0,,,,,,,,,15,,57,100
83535,note_on,15,0,0,,,,,,,,,13,,74,0
83535,note_on,0,0,0,,,,,,,,,5,,74,0
83535,note_on,0,0,0,,,,,,,,,3,,74,0
83535,note_on,0,0,0,,,,,,,,,0,,74,0
83535,note_on,0,0,0,,,,,,,,,0,,73,100
83535,note_on,0,0,0,,,,,,,,,3,,73,100
83535,note_on,0,0,0,,,,,,,,,5,,73,100
83535,note_on,0,0,0,,,,,,,,,13,,73,100
83550,note_on,15,0,0,,,,,,,,,13,,73,0
83550,note_on,0,0,0,,,,,,,,,5,,73,0
83550,note_on,0,0,0,,,,,,,,,3,,73,0
83550,note_on,0,0,0,,,,,,,,,0,,73,0
83550,note_on,0,0,0,,,,,,,,,0,,74,100
83550,note_on,0,0,0,,,,,,,,,3,,74,100
83550,note_on,0,0,0,,,,,,,,,5,,74,100
83550,note_on,0,0,0,,,,,,,,,13,,74,100
83565,note_on,15,0,0,,,,,,,,,13,,74,0
83565,note_on,0,0,0,,,,,,,,,5,,74,0
83565,note_on,0,0,0,,,,,,,,,3,,74,0
83565,note_on,0,0,0,,,,,,,,,0,,74,0
83565,note_on,0,0,0,,,,,,,,,0,,73,100
83565,note_on,0,0,0,,,,,,,,,3,,73,100
83565,note_on,0,0,0,,,,,,,,,5,,73,100
83565,note_on,0,0,0,,,,,,,,,13,,73,100
83580,note_on,15,0,0,,,,,,,,,13,,73,0
83580,note_on,0,0,0,,,,,,,,,5,,73,0
83580,note_on,0,0,0,,,,,,,,,3,,73,0
83580,note_on,0,0,0,,,,,,,,,0,,73,0
83580,note_on,0,0,0,,,,,,,,,0,,74,100
83580,note_on,0,0,0,,,,,,,,,3,,74,100
83580,note_on,0,0,0,,,,,,,,,5,,74,100
83580,note_on,0,0,0,,,,,,,,,13,,74,100
83595,note_on,15,0,0,,,,,,,,,13,,74,0
83595,note_on,0,0,0,,,,,,,,,5,,74,0
83595,note_on,0,0,0,,,,,,,,,3,,74,0
83595,note_on,0,0,0,,,,,,,,,0,,74,0
83595,note_on,0,0,0,,,,,,,,,0,,73,100
83595,note_on,0,0,0,,,,,,,,,3,,73,100
83595,note_on,0,0,0,,,,,,,,,5,,73,100
83595,note_on,0,0,0,,,,,,,,,13,,73,100
83610,note_on,15,0,0,,,,,,,,,13,,73,0
83610,note_on,0,0,0,,,,,,,,,5,,73,0
83610,note_on,0,0,0,,,,,,,,,3,,73,0
83610,note_on,0,0,0,,,,,,,,,0,,73,0
83610,note_on,0,0,0,,,,,,,,,0,,71,100
83610,note_on,0,0,0,,,,,,,,,3,,71,100
83610,note_on,0,0,0,,,,,,,,,5,,71,100
83610,note_on,0,0,0,,,,,,,,,13,,71,100
83625,note_on,15,0,0,,,,,,,,,13,,71,0
83625,note_on,0,0,0,,,,,,,,,3,,57,0
83625,note_on,0,0,0,,,,,,,,,14,,57,0
83625,note_on,0,0,0,,,,,,,,,7,,64,0
83625,note_on,0,0,0,,,,,,,,,15,,69,0
83625,note_on,0,0,0,,,,,,,,,5,,71,0
83625,note_on,0,0,0,,,,,,,,,15,,57,0
83625,note_on,0,0,0,,,,,,,,,0,,57,0
83625,note_on,0,0,0,,,,,,,,,10,,45,0
83625,note_on,0,0,0,,,,,,,,,8,,57,0
83625,note_on,0,0,0,,,,,,,,,0,,71,0
83625,note_on,0,0,0,,,,,,,,,15,,64,0
83625,note_on,0,0,0,,,,,,,,,15,,61,0
83625,note_on,0,0,0,,,,,,,,,3,,71,0
83625,note_on,0,0,0,,,,,,,,,0,,73,100
83625,note_on,0,0,0,,,,,,,,,3,,73,100
83625,note_on,0,0,0,,,,,,,,,5,,73,100
83625,note_on,0,0,0,,,,,,,,,13,,73,100
83640,note_on,15,0,0,,,,,,,,,13,,73,0
83640,note_on,0,0,0,,,,,,,,,3,,73,0
83640,note_on,0,0,0,,,,,,,,,0,,73,0
83640,note_on,0,0,0,,,,,,,,,5,,73,0
83640,note_on,0,0,0,,,,,,,,,0,,50,100
83640,note_on,0,0,0,,,,,,,,,0,,74,100
83640,note_on,0,0,0,,,,,,,,,3,,50,100
83640,note_on,0,0,0,,,,,,,,,3,,74,100
83640,note_on,0,0,0,,,,,,,,,5,,74,100
83640,note_on,0,0,0,,,,,,,,,7,,66,100
83640,note_on,0,0,0,,,,,,,,,8,,50,100
83640,note_on,0,0,0,,,,,,,,,10,,38,100
83640,note_on,0,0,0,,,,,,,,,13,,74,100
83640,note_on,0,0,0,,,,,,,,,14,,50,100
83640,note_on,0,0,0,,,,,,,,,15,,62,100
83640,note_on,0,0,0,,,,,,,,,15,,69,100
83640,note_on,0,0,0,,,,,,,,,15,,66,100
83640,note_on,0,0,0,,,,,,,,,15,,50,100
83670,note_on,30,0,0,,,,,,,,,13,,74,0
83670,note_on,0,0,0,,,,,,,,,5,,74,0
83670,note_on,0,0,0,,,,,,,,,13,,69,0
83670,note_on,0,0,0,,,,,,,,,6,,69,0
83670,note_on,0,0,0,,,,,,,,,3,,74,0
83670,note_on,0,0,0,,,,,,,,,0,,74,0
83700,note_on,30,0,0,,,,,,,,,0,,71,100
83700,note_on,0,0,0,,,,,,,,,3,,71,100
83700,note_on,0,0,0,,,,,,,,,5,,71,100
83700,note_on,0,0,0,,,,,,,,,6,,68,100
83700,note_on,0,0,0,,,,,,,,,13,,71,100
83700,note_on,0,0,0,,,,,,,,,13,,68,100
83730,note_on,30,0,0,,,,,,,,,13,,68,0
83730,note_on,0,0,0,,,,,,,,,13,,71,0
83730,note_on,0,0,0,,,,,,,,,3,,71,0
83730,note_on,0,0,0,,,,,,,,,6,,68,0
83730,note_on,0,0,0,,,,,,,,,0,,71,0
83730,note_on,0,0,0,,,,,,,,,5,,71,0
83745,note_on,15,0,0,,,,,,,,,15,,66,0
83745,note_on,0,0,0,,,,,,,,,3,,50,0
83745,note_on,0,0,0,,,,,,,,,8,,50,0
83745,note_on,0,0,0,,,,,,,,,7,,66,0
83745,note_on,0,0,0,,,,,,,,,0,,50,0
83745,note_on,0,0,0,,,,,,,,,14,,50,0
83745,note_on,0,0,0,,,,,,,,,15,,69,0
83745,note_on,0,0,0,,,,,,,,,10,,38,0
83745,note_on,0,0,0,,,,,,,,,15,,62,0
83745,note_on,0,0,0,,,,,,,,,15,,50,0
83760,note_on,15,0,0,,,,,,,,,0,,52,100
83760,note_on,0,0,0,,,,,,,,,0,,69,100
83760,note_on,0,0,0,,,,,,,,,3,,52,100
83760,note_on,0,0,0,,,,,,,,,3,,69,100
83760,note_on,0,0,0,,,,,,,,,5,,69,100
83760,note_on,0,0,0,,,,,,,,,6,,59,100
83760,note_on,0,0,0,,,,,,,,,7,,64,100
83760,note_on,0,0,0,,,,,,,,,8,,52,100
83760,note_on,0,0,0,,,,,,,,,10,,40,100
83760,note_on,0,0,0,,,,,,,,,13,,69,100
83760,note_on,0,0,0,,,,,,,,,13,,64,100
83760,note_on,0,0,0,,,,,,,,,14,,52,100
83760,note_on,0,0,0,,,,,,,,,15,,69,100
83760,note_on,0,0,0,,,,,,,,,15,,62,100
83760,note_on,0,0,0,,,,,,,,,15,,66,100
83760,note_on,0,0,0,,,,,,,,,15,,52,100
83775,note_on,15,0,0,,,,,,,,,13,,69,0
83775,note_on,0,0,0,,,,,,,,,5,,69,0
83775,note_on,0,0,0,,,,,,,,,3,,69,0
83775,note_on,0,0,0,,,,,,,,,0,,69,0
83775,note_on,0,0,0,,,,,,,,,0,,68,100
83775,note_on,0,0,0,,,,,,,,,3,,68,100
83775,note_on,0,0,0,,,,,,,,,5,,68,100
83775,note_on,0,0,0,,,,,,,,,13,,68,100
83790,note_on,15,0,0,,,,,,,,,13,,68,0
83790,note_on,0,0,0,,,,,,,,,5,,68,0
83790,note_on,0,0,0,,,,,,,,,3,,68,0
83790,note_on,0,0,0,,,,,,,,,0,,68,0
83790,note_on,0,0,0,,,,,,,,,0,,69,100
83790,note_on,0,0,0,,,,,,,,,3,,69,100
83790,note_on,0,0,0,,,,,,,,,5,,69,100
83790,note_on,0,0,0,,,,,,,,,13,,69,100
83805,note_on,15,0,0,,,,,,,,,13,,69,0
83805,note_on,0,0,0,,,,,,,,,5,,69,0
83805,note_on,0,0,0,,,,,,,,,3,,69,0
83805,note_on,0,0,0,,,,,,,,,0,,69,0
83805,note_on,0,0,0,,,,,,,,,0,,68,100
83805,note_on,0,0,0,,,,,,,,,3,,68,100
83805,note_on,0,0,0,,,,,,,,,5,,68,100
83805,note_on,0,0,0,,,,,,,,,13,,68,100
83820,note_on,15,0,0,,,,,,,,,13,,68,0
83820,note_on,0,0,0,,,,,,,,,5,,68,0
83820,note_on,0,0,0,,,,,,,,,15,,66,0
83820,note_on,0,0,0,,,,,,,,,3,,68,0
83820,note_on,0,0,0,,,,,,,,,15,,69,0
83820,note_on,0,0,0,,,,,,,,,0,,68,0
83820,note_on,0,0,0,,,,,,,,,0,,69,100
83820,note_on,0,0,0,,,,,,,,,3,,69,100
83820,note_on,0,0,0,,,,,,,,,5,,69,100
83820,note_on,0,0,0,,,,,,,,,13,,69,100
83820,note_on,0,0,0,,,,,,,,,15,,68,100
83820,note_on,0,0,0,,,,,,,,,15,,64,100
83835,note_on,15,0,0,,,,,,,,,13,,69,0
83835,note_on,0,0,0,,,,,,,,,5,,69,0
83835,note_on,0,0,0,,,,,,,,,0,,69,0
83835,note_on,0,0,0,,,,,,,,,3,,69,0
83835,note_on,0,0,0,,,,,,,,,0,,68,100
83835,note_on,0,0,0,,,,,,,,,3,,68,100
83835,note_on,0,0,0,,,,,,,,,5,,68,100
83835,note_on,0,0,0,,,,,,,,,13,,68,100
83850,note_on,15,0,0,,,,,,,,,13,,68,0
83850,note_on,0,0,0,,,,,,,,,5,,68,0
83850,note_on,0,0,0,,,,,,,,,3,,68,0
83850,note_on,0,0,0,,,,,,,,,0,,68,0
83850,note_on,0,0,0,,,,,,,,,0,,69,100
83850,note_on,0,0,0,,,,,,,,,3,,69,100
83850,note_on,0,0,0,,,,,,,,,5,,69,100
83850,note_on,0,0,0,,,,,,,,,13,,69,100
83865,note_on,15,0,0,,,,,,,,,13,,69,0
83865,note_on,0,0,0,,,,,,,,,5,,69,0
83865,note_on,0,0,0,,,,,,,,,3,,52,0
83865,note_on,0,0,0,,,,,,,,,13,,64,0
83865,note_on,0,0,0,,,,,,,,,7,,64,0
83865,note_on,0,0,0,,,,,,,,,15,,52,0
83865,note_on,0,0,0,,,,,,,,,15,,62,0
83865,note_on,0,0,0,,,,,,,,,0,,52,0
83865,note_on,0,0,0,,,,,,,,,10,,40,0
83865,note_on,0,0,0,,,,,,,,,8,,52,0
83865,note_on,0,0,0,,,,,,,,,0,,69,0
83865,note_on,0,0,0,,,,,,,,,14,,52,0
83865,note_on,0,0,0,,,,,,,,,6,,59,0
83865,note_on,0,0,0,,,,,,,,,3,,69,0
83865,note_on,0,0,0,,,,,,,,,0,,68,100
83865,note_on,0,0,0,,,,,,,,,3,,68,100
83865,note_on,0,0,0,,,,,,,,,5,,68,100
83865,note_on,0,0,0,,,,,,,,,13,,68,100
83880,note_on,15,0,0,,,,,,,,,13,,68,0
83880,note_on,0,0,0,,,,,,,,,15,,64,0
83880,note_on,0,0,0,,,,,,,,,0,,68,0
83880,note_on,0,0,0,,,,,,,,,15,,68,0
83880,note_on,0,0,0,,,,,,,,,5,,68,0
83880,note_on,0,0,0,,,,,,,,,3,,68,0
83880,note_on,0,0,0,,,,,,,,,0,,40,100
83880,note_on,0,0,0,,,,,,,,,0,,69,100
83880,note_on,0,0,0,,,,,,,,,3,,40,100
83880,note_on,0,0,0,,,,,,,,,3,,69,100
83880,note_on,0,0,0,,,,,,,,,5,,69,100
83880,note_on,0,0,0,,,,,,,,,6,,62,100
83880,note_on,0,0,0,,,,,,,,,7,,64,100
83880,note_on,0,0,0,,,,,,,,,8,,40,100
83880,note_on,0,0,0,,,,,,,,,10,,28,100
83880,note_on,0,0,0,,,,,,,,,13,,69,100
83880,note_on,0,0,0,,,,,,,,,13,,62,100
83880,note_on,0,0,0,,,,,,,,,14,,40,100
83880,note_on,0,0,0,,,,,,,,,15,,59,100
83880,note_on,0,0,0,,,,,,,,,15,,62,100
83880,note_on,0,0,0,,,,,,,,,15,,68,100
83880,note_on,0,0,0,,,,,,,,,15,,40,100
83895,note_on,15,0,0,,,,,,,,,13,,69,0
83895,note_on,0,0,0,,,,,,,,,5,,69,0
83895,note_on,0,0,0,,,,,,,,,3,,69,0
83895,note_on,0,0,0,,,,,,,,,0,,69,0
83895,note_on,0,0,0,,,,,,,,,0,,68,100
83895,note_on,0,0,0,,,,,,,,,3,,68,100
83895,note_on,0,0,0,,,,,,,,,5,,68,100
83895,note_on,0,0,0,,,,,,,,,13,,68,100
83940,note_on,45,0,0,,,,,,,,,13,,68,0
83940,note_on,0,0,0,,,,,,,,,5,,68,0
83940,note_on,0,0,0,,,,,,,,,3,,68,0
83940,note_on,0,0,0,,,,,,,,,0,,68,0
83940,note_on,0,0,0,,,,,,,,,0,,69,100
83940,note_on,0,0,0,,,,,,,,,3,,69,100
83940,note_on,0,0,0,,,,,,,,,5,,69,100
83940,note_on,0,0,0,,,,,,,,,13,,69,100
83970,note_on,30,0,0,,,,,,,,,13,,69,0
83970,note_on,0,0,0,,,,,,,,,5,,69,0
83970,note_on,0,0,0,,,,,,,,,3,,69,0
83970,note_on,0,0,0,,,,,,,,,0,,69,0
83985,note_on,15,0,0,,,,,,,,,15,,68,0
83985,note_on,0,0,0,,,,,,,,,3,,40,0
83985,note_on,0,0,0,,,,,,,,,13,,62,0
83985,note_on,0,0,0,,,,,,,,,0,,40,0
83985,note_on,0,0,0,,,,,,,,,8,,40,0
83985,note_on,0,0,0,,,,,,,,,6,,62,0
83985,note_on,0,0,0,,,,,,,,,14,,40,0
83985,note_on,0,0,0,,,,,,,,,15,,62,0
83985,note_on,0,0,0,,,,,,,,,15,,59,0
83985,note_on,0,0,0,,,,,,,,,10,,28,0
83985,note_on,0,0,0,,,,,,,,,7,,64,0
83985,note_on,0,0,0,,,,,,,,,15,,40,0
84000,note_on,15,0,0,,,,,,,,,0,,69,100
84000,note_on,0,0,0,,,,,,,,,0,,45,100
84000,note_on,0,0,0,,,,,,,,,3,,69,100
84000,note_on,0,0,0,,,,,,,,,3,,45,100
84000,note_on,0,0,0,,,,,,,,,5,,69,100
84000,note_on,0,0,0,,,,,,,,,6,,61,100
84000,note_on,0,0,0,,,,,,,,,7,,64,100
84000,note_on,0,0,0,,,,,,,,,8,,45,100
84000,note_on,0,0,0,,,,,,,,,10,,33,100
84000,note_on,0,0,0,,,,,,,,,13,,69,100
84000,note_on,0,0,0,,,,,,,,,13,,64,100
84000,note_on,0,0,0,,,,,,,,,14,,45,100
84000,note_on,0,0,0,,,,,,,,,15,,69,100
84000,note_on,0,0,0,,,,,,,,,15,,45,100
84020,note_on,20,0,0,,,,,,,,,15,,64,100
84030,note_on,10,0,0,,,,,,,,,13,,69,0
84030,note_on,0,0,0,,,,,,,,,5,,69,0
84030,note_on,0,0,0,,,,,,,,,3,,69,0
84030,note_on,0,0,0,,,,,,,,,0,,69,0
84040,note_on,10,0,0,,,,,,,,,15,,61,100
84060,note_on,20,0,0,,,,,,,,,0,,76,100
84060,note_on,0,0,0,,,,,,,,,3,,76,100
84060,note_on,0,0,0,,,,,,,,,5,,76,100
84060,note_on,0,0,0,,,,,,,,,13,,76,100
84070,note_on,10,0,0,,,,,,,,,15,,57,100
84090,note_on,20,0,0,,,,,,,,,13,,76,0
84090,note_on,0,0,0,,,,,,,,,5,,76,0
84090,note_on,0,0,0,,,,,,,,,3,,76,0
84090,note_on,0,0,0,,,,,,,,,0,,76,0
84105,note_on,15,0,0,,,,,,,,,13,,64,0
84105,note_on,0,0,0,,,,,,,,,6,,61,0
84105,note_on,0,0,0,,,,,,,,,7,,64,0
84120,note_on,15,0,0,,,,,,,,,0,,78,100
84120,note_on,0,0,0,,,,,,,,,3,,78,100
84120,note_on,0,0,0,,,,,,,,,5,,78,100
84120,note_on,0,0,0,,,,,,,,,13,,78,100
84150,note_on,30,0,0,,,,,,,,,13,,78,0
84150,note_on,0,0,0,,,,,,,,,5,,78,0
84150,note_on,0,0,0,,,,,,,,,0,,78,0
84150,note_on,0,0,0,,,,,,,,,3,,78,0
84180,note_on,30,0,0,,,,,,,,,0,,79,100
84180,note_on,0,0,0,,,,,,,,,3,,79,100
84180,note_on,0,0,0,,,,,,,,,5,,79,100
84180,note_on,0,0,0,,,,,,,,,6,,71,100
84180,note_on,0,0,0,,,,,,,,,7,,64,100
84180,note_on,0,0,0,,,,,,,,,13,,79,100
84180,note_on,0,0,0,,,,,,,,,13,,71,100
84210,note_on,30,0,0,,,,,,,,,13,,71,0
84210,note_on,0,0,0,,,,,,,,,13,,79,0
84210,note_on,0,0,0,,,,,,,,,7,,64,0
84210,note_on,0,0,0,,,,,,,,,3,,79,0
84210,note_on,0,0,0,,,,,,,,,6,,71,0
84210,note_on,0,0,0,,,,,,,,,0,,79,0
84210,note_on,0,0,0,,,,,,,,,5,,79,0
84240,note_on,30,0,0,,,,,,,,,0,,81,100
84240,note_on,0,0,0,,,,,,,,,3,,81,100
84240,note_on,0,0,0,,,,,,,,,5,,81,100
84240,note_on,0,0,0,,,,,,,,,6,,73,100
84240,note_on,0,0,0,,,,,,,,,7,,64,100
84240,note_on,0,0,0,,,,,,,,,13,,81,100
84240,note_on,0,0,0,,,,,,,,,13,,73,100
84270,note_on,30,0,0,,,,,,,,,13,,73,0
84270,note_on,0,0,0,,,,,,,,,13,,81,0
84270,note_on,0,0,0,,,,,,,,,6,,73,0
84270,note_on,0,0,0,,,,,,,,,5,,81,0
84270,note_on,0,0,0,,,,,,,,,0,,81,0
84270,note_on,0,0,0,,,,,,,,,3,,81,0
84270,note_on,0,0,0,,,,,,,,,0,,83,100
84270,note_on,0,0,0,,,,,,,,,3,,83,100
84270,note_on,0,0,0,,,,,,,,,5,,83,100
84270,note_on,0,0,0,,,,,,,,,13,,83,100
84300,note_on,30,0,0,,,,,,,,,13,,83,0
84300,note_on,0,0,0,,,,,,,,,0,,83,0
84300,note_on,0,0,0,,,,,,,,,5,,83,0
84300,note_on,0,0,0,,,,,,,,,3,,83,0
84300,note_on,0,0,0,,,,,,,,,0,,81,100
84300,note_on,0,0,0,,,,,,,,,3,,81,100
84300,note_on,0,0,0,,,,,,,,,5,,81,100
84300,note_on,0,0,0,,,,,,,,,6,,74,100
84300,note_on,0,0,0,,,,,,,,,13,,81,100
84300,note_on,0,0,0,,,,,,,,,13,,74,100
84330,note_on,30,0,0,,,,,,,,,13,,74,0
84330,note_on,0,0,0,,,,,,,,,13,,81,0
84330,note_on,0,0,0,,,,,,,,,6,,74,0
84330,note_on,0,0,0,,,,,,,,,0,,81,0
84330,note_on,0,0,0,,,,,,,,,5,,81,0
84330,note_on,0,0,0,,,,,,,,,3,,81,0
84345,note_on,15,0,0,,,,,,,,,7,,64,0
84360,note_on,15,0,0,,,,,,,,,0,,79,100
84360,note_on,0,0,0,,,,,,,,,3,,79,100
84360,note_on,0,0,0,,,,,,,,,5,,79,100
84360,note_on,0,0,0,,,,,,,,,6,,76,100
84360,note_on,0,0,0,,,,,,,,,7,,61,100
84360,note_on,0,0,0,,,,,,,,,13,,79,100
84360,note_on,0,0,0,,,,,,,,,13,,76,100
84390,note_on,30,0,0,,,,,,,,,13,,76,0
84390,note_on,0,0,0,,,,,,,,,13,,79,0
84390,note_on,0,0,0,,,,,,,,,6,,76,0
84390,note_on,0,0,0,,,,,,,,,5,,79,0
84390,note_on,0,0,0,,,,,,,,,0,,79,0
84390,note_on,0,0,0,,,,,,,,,3,,79,0
84390,note_on,0,0,0,,,,,,,,,0,,81,100
84390,note_on,0,0,0,,,,,,,,,3,,81,100
84390,note_on,0,0,0,,,,,,,,,5,,81,100
84390,note_on,0,0,0,,,,,,,,,6,,78,100
84390,note_on,0,0,0,,,,,,,,,13,,81,100
84390,note_on,0,0,0,,,,,,,,,13,,78,100
84420,note_on,30,0,0,,,,,,,,,13,,78,0
84420,note_on,0,0,0,,,,,,,,,13,,81,0
84420,note_on,0,0,0,,,,,,,,,6,,78,0
84420,note_on,0,0,0,,,,,,,,,0,,81,0
84420,note_on,0,0,0,,,,,,,,,5,,81,0
84420,note_on,0,0,0,,,,,,,,,3,,81,0
84420,note_on,0,0,0,,,,,,,,,0,,79,100
84420,note_on,0,0,0,,,,,,,,,3,,79,100
84420,note_on,0,0,0,,,,,,,,,5,,79,100
84420,note_on,0,0,0,,,,,,,,,6,,76,100
84420,note_on,0,0,0,,,,,,,,,13,,79,100
84420,note_on,0,0,0,,,,,,,,,13,,76,100
84450,note_on,30,0,0,,,,,,,,,13,,76,0
84450,note_on,0,0,0,,,,,,,,,13,,79,0
84450,note_on,0,0,0,,,,,,,,,6,,76,0
84450,note_on,0,0,0,,,,,,,,,0,,79,0
84450,note_on,0,0,0,,,,,,,,,5,,79,0
84450,note_on,0,0,0,,,,,,,,,3,,79,0
84465,note_on,15,0,0,,,,,,,,,7,,61,0
84480,note_on,15,0,0,,,,,,,,,0,,78,100
84480,note_on,0,0,0,,,,,,,,,3,,78,100
84480,note_on,0,0,0,,,,,,,,,5,,78,100
84480,note_on,0,0,0,,,,,,,,,6,,74,100
84480,note_on,0,0,0,,,,,,,,,7,,69,100
84480,note_on,0,0,0,,,,,,,,,13,,78,100
84480,note_on,0,0,0,,,,,,,,,13,,74,100
84510,note_on,30,0,0,,,,,,,,,13,,74,0
84510,note_on,0,0,0,,,,,,,,,13,,78,0
84510,note_on,0,0,0,,,,,,,,,6,,74,0
84510,note_on,0,0,0,,,,,,,,,5,,78,0
84510,note_on,0,0,0,,,,,,,,,0,,78,0
84510,note_on,0,0,0,,,,,,,,,3,,78,0
84510,note_on,0,0,0,,,,,,,,,0,,79,100
84510,note_on,0,0,0,,,,,,,,,3,,79,100
84510,note_on,0,0,0,,,,,,,,,5,,79,100
84510,note_on,0,0,0,,,,,,,,,6,,76,100
84510,note_on,0,0,0,,,,,,,,,13,,79,100
84510,note_on,0,0,0,,,,,,,,,13,,76,100
84530,note_on,20,0,0,,,,,,,,,0,,45,0
84530,note_on,0,0,0,,,,,,,,,3,,45,0
84540,note_on,10,0,0,,,,,,,,,13,,76,0
84540,note_on,0,0,0,,,,,,,,,3,,79,0
84540,note_on,0,0,0,,,,,,,,,13,,79,0
84540,note_on,0,0,0,,,,,,,,,6,,76,0
84540,note_on,0,0,0,,,,,,,,,0,,79,0
84540,note_on,0,0,0,,,,,,,,,5,,79,0
84540,note_on,0,0,0,,,,,,,,,0,,78,100
84540,note_on,0,0,0,,,,,,,,,3,,78,100
84540,note_on,0,0,0,,,,,,,,,5,,78,100
84540,note_on,0,0,0,,,,,,,,,6,,74,100
84540,note_on,0,0,0,,,,,,,,,13,,78,100
84540,note_on,0,0,0,,,,,,,,,13,,74,100
84550,note_on,10,0,0,,,,,,,,,15,,61,0
84550,note_on,0,0,0,,,,,,,,,15,,57,0
84550,note_on,0,0,0,,,,,,,,,15,,64,0
84550,note_on,0,0,0,,,,,,,,,15,,69,0
84555,note_on,5,0,0,,,,,,,,,15,,45,0
84555,note_on,0,0,0,,,,,,,,,14,,45,0
84555,note_on,0,0,0,,,,,,,,,10,,33,0
84555,note_on,0,0,0,,,,,,,,,8,,45,0
84570,note_on,15,0,0,,,,,,,,,13,,78,0
84570,note_on,0,0,0,,,,,,,,,5,,78,0
84570,note_on,0,0,0,,,,,,,,,0,,78,0
84570,note_on,0,0,0,,,,,,,,,13,,74,0
84570,note_on,0,0,0,,,,,,,,,3,,78,0
84570,note_on,0,0,0,,,,,,,,,6,,74,0
84585,note_on,15,0,0,,,,,,,,,7,,69,0
84600,note_on,15,0,0,,,,,,,,,0,,55,100
84600,note_on,0,0,0,,,,,,,,,0,,76,100
84600,note_on,0,0,0,,,,,,,,,3,,55,100
84600,note_on,0,0,0,,,,,,,,,3,,76,100
84600,note_on,0,0,0,,,,,,,,,5,,76,100
84600,note_on,0,0,0,,,,,,,,,6,,73,100
84600,note_on,0,0,0,,,,,,,,,7,,69,100
84600,note_on,0,0,0,,,,,,,,,8,,55,100
84600,note_on,0,0,0,,,,,,,,,10,,43,100
84600,note_on,0,0,0,,,,,,,,,13,,76,100
84600,note_on,0,0,0,,,,,,,,,13,,73,100
84600,note_on,0,0,0,,,,,,,,,14,,55,100
84600,note_on,0,0,0,,,,,,,,,15,,59,100
84600,note_on,0,0,0,,,,,,,,,15,,71,100
84600,note_on,0,0,0,,,,,,,,,15,,64,100
84600,note_on,0,0,0,,,,,,,,,15,,55,100
84630,note_on,30,0,0,,,,,,,,,13,,73,0
84630,note_on,0,0,0,,,,,,,,,13,,76,0
84630,note_on,0,0,0,,,,,,,,,6,,73,0
84630,note_on,0,0,0,,,,,,,,,0,,76,0
84630,note_on,0,0,0,,,,,,,,,3,,76,0
84630,note_on,0,0,0,,,,,,,,,5,,76,0
84630,note_on,0,0,0,,,,,,,,,0,,78,100
84630,note_on,0,0,0,,,,,,,,,3,,78,100
84630,note_on,0,0,0,,,,,,,,,5,,78,100
84630,note_on,0,0,0,,,,,,,,,6,,74,100
84630,note_on,0,0,0,,,,,,,,,13,,78,100
84630,note_on,0,0,0,,,,,,,,,13,,74,100
84660,note_on,30,0,0,,,,,,,,,13,,74,0
84660,note_on,0,0,0,,,,,,,,,13,,78,0
84660,note_on,0,0,0,,,,,,,,,3,,78,0
84660,note_on,0,0,0,,,,,,,,,6,,74,0
84660,note_on,0,0,0,,,,,,,,,0,,78,0
84660,note_on,0,0,0,,,,,,,,,5,,78,0
84660,note_on,0,0,0,,,,,,,,,0,,76,100
84660,note_on,0,0,0,,,,,,,,,3,,76,100
84660,note_on,0,0,0,,,,,,,,,5,,76,100
84660,note_on,0,0,0,,,,,,,,,6,,73,100
84660,note_on,0,0,0,,,,,,,,,13,,76,100
84660,note_on,0,0,0,,,,,,,,,13,,73,100
84690,note_on,30,0,0,,,,,,,,,13,,73,0
84690,note_on,0,0,0,,,,,,,,,13,,76,0
84690,note_on,0,0,0,,,,,,,,,3,,76,0
84690,note_on,0,0,0,,,,,,,,,6,,73,0
84690,note_on,0,0,0,,,,,,,,,0,,76,0
84690,note_on,0,0,0,,,,,,,,,5,,76,0
84700,note_on,10,0,0,,,,,,,,,0,,55,0
84700,note_on,0,0,0,,,,,,,,,15,,71,0
84700,note_on,0,0,0,,,,,,,,,3,,55,0
84700,note_on,0,0,0,,,,,,,,,15,,59,0
84700,note_on,0,0,0,,,,,,,,,15,,64,0
84705,note_on,5,0,0,,,,,,,,,14,,55,0
84705,note_on,0,0,0,,,,,,,,,8,,55,0
84705,note_on,0,0,0,,,,,,,,,7,,69,0
84705,note_on,0,0,0,,,,,,,,,15,,55,0
84705,note_on,0,0,0,,,,,,,,,10,,43,0
84720,note_on,15,0,0,,,,,,,,,0,,54,100
84720,note_on,0,0,0,,,,,,,,,0,,74,100
84720,note_on,0,0,0,,,,,,,,,3,,54,100
84720,note_on,0,0,0,,,,,,,,,3,,74,100
84720,note_on,0,0,0,,,,,,,,,5,,74,100
84720,note_on,0,0,0,,,,,,,,,6,,74,100
84720,note_on,0,0,0,,,,,,,,,7,,69,100
84720,note_on,0,0,0,,,,,,,,,8,,54,100
84720,note_on,0,0,0,,,,,,,,,10,,42,100
84720,note_on,0,0,0,,,,,,,,,13,,74,100
84720,note_on,0,0,0,,,,,,,,,13,,74,100
84720,note_on,0,0,0,,,,,,,,,14,,54,100
84720,note_on,0,0,0,,,,,,,,,15,,62,100
84720,note_on,0,0,0,,,,,,,,,15,,66,100
84720,note_on,0,0,0,,,,,,,,,15,,69,100
84720,note_on,0,0,0,,,,,,,,,15,,54,100
84750,note_on,30,0,0,,,,,,,,,13,,74,0
84750,note_on,0,0,0,,,,,,,,,13,,74,0
84750,note_on,0,0,0,,,,,,,,,6,,74,0
84750,note_on,0,0,0,,,,,,,,,0,,74,0
84750,note_on,0,0,0,,,,,,,,,3,,74,0
84750,note_on,0,0,0,,,,,,,,,5,,74,0
84750,note_on,0,0,0,,,,,,,,,0,,76,100
84750,note_on,0,0,0,,,,,,,,,3,,76,100
84750,note_on,0,0,0,,,,,,,,,5,,76,100
84750,note_on,0,0,0,,,,,,,,,13,,76,100
84780,note_on,30,0,0,,,,,,,,,13,,76,0
84780,note_on,0,0,0,,,,,,,,,5,,76,0
84780,note_on,0,0,0,,,,,,,,,0,,76,0
84780,note_on,0,0,0,,,,,,,,,3,,76,0
84780,note_on,0,0,0,,,,,,,,,0,,74,100
84780,note_on,0,0,0,,,,,,,,,3,,74,100
84780,note_on,0,0,0,,,,,,,,,5,,74,100
84780,note_on,0,0,0,,,,,,,,,6,,69,100
84780,note_on,0,0,0,,,,,,,,,13,,74,100
84780,note_on,0,0,0,,,,,,,,,13,,69,100
84810,note_on,30,0,0,,,,,,,,,13,,69,0
84810,note_on,0,0,0,,,,,,,,,13,,74,0
84810,note_on,0,0,0,,,,,,,,,3,,74,0
84810,note_on,0,0,0,,,,,,,,,6,,69,0
84810,note_on,0,0,0,,,,,,,,,0,,74,0
84810,note_on,0,0,0,,,,,,,,,5,,74,0
84820,note_on,10,0,0,,,,,,,,,0,,54,0
84820,note_on,0,0,0,,,,,,,,,15,,66,0
84820,note_on,0,0,0,,,,,,,,,3,,54,0
84820,note_on,0,0,0,,,,,,,,,15,,62,0
84820,note_on,0,0,0,,,,,,,,,15,,69,0
84825,note_on,5,0,0,,,,,,,,,14,,54,0
84825,note_on,0,0,0,,,,,,,,,8,,54,0
84825,note_on,0,0,0,,,,,,,,,15,,54,0
84825,note_on,0,0,0,,,,,,,,,7,,69,0
84825,note_on,0,0,0,,,,,,,,,10,,42,0
84840,note_on,15,0,0,,,,,,,,,0,,52,100
84840,note_on,0,0,0,,,,,,,,,0,,73,100
84840,note_on,0,0,0,,,,,,,,,3,,52,100
84840,note_on,0,0,0,,,,,,,,,3,,73,100
84840,note_on,0,0,0,,,,,,,,,5,,73,100
84840,note_on,0,0,0,,,,,,,,,6,,67,100
84840,note_on,0,0,0,,,,,,,,,7,,64,100
84840,note_on,0,0,0,,,,,,,,,8,,52,100
84840,note_on,0,0,0,,,,,,,,,10,,40,100
84840,note_on,0,0,0,,,,,,,,,13,,73,100
84840,note_on,0,0,0,,,,,,,,,13,,67,100
84840,note_on,0,0,0,,,,,,,,,14,,52,100
84840,note_on,0,0,0,,,,,,,,,15,,59,100
84840,note_on,0,0,0,,,,,,,,,15,,64,100
84840,note_on,0,0,0,,,,,,,,,15,,67,100
84840,note_on,0,0,0,,,,,,,,,15,,52,100
84870,note_on,30,0,0,,,,,,,,,13,,67,0
84870,note_on,0,0,0,,,,,,,,,13,,73,0
84870,note_on,0,0,0,,,,,,,,,6,,67,0
84870,note_on,0,0,0,,,,,,,,,0,,73,0
84870,note_on,0,0,0,,,,,,,,,3,,73,0
84870,note_on,0,0,0,,,,,,,,,5,,73,0
84870,note_on,0,0,0,,,,,,,,,0,,74,100
84870,note_on,0,0,0,,,,,,,,,3,,74,100
84870,note_on,0,0,0,,,,,,,,,5,,74,100
84870,note_on,0,0,0,,,,,,,,,13,,74,100
84900,note_on,30,0,0,,,,,,,,,13,,74,0
84900,note_on,0,0,0,,,,,,,,,5,,74,0
84900,note_on,0,0,0,,,,,,,,,0,,74,0
84900,note_on,0,0,0,,,,,,,,,3,,74,0
84900,note_on,0,0,0,,,,,,,,,0,,73,100
84900,note_on,0,0,0,,,,,,,,,3,,73,100
84900,note_on,0,0,0,,,,,,,,,5,,73,100
84900,note_on,0,0,0,,,,,,,,,6,,67,100
84900,note_on,0,0,0,,,,,,,,,13,,73,100
84900,note_on,0,0,0,,,,,,,,,13,,67,100
84930,note_on,30,0,0,,,,,,,,,13,,67,0
84930,note_on,0,0,0,,,,,,,,,13,,73,0
84930,note_on,0,0,0,,,,,,,,,3,,73,0
84930,note_on,0,0,0,,,,,,,,,6,,67,0
84930,note_on,0,0,0,,,,,,,,,0,,73,0
84930,note_on,0,0,0,,,,,,,,,5,,73,0
84940,note_on,10,0,0,,,,,,,,,0,,52,0
84940,note_on,0,0,0,,,,,,,,,15,,64,0
84940,note_on,0,0,0,,,,,,,,,3,,52,0
84940,note_on,0,0,0,,,,,,,,,15,,59,0
84940,note_on,0,0,0,,,,,,,,,15,,67,0
84945,note_on,5,0,0,,,,,,,,,14,,52,0
84945,note_on,0,0,0,,,,,,,,,8,,52,0
84945,note_on,0,0,0,,,,,,,,,15,,52,0
84945,note_on,0,0,0,,,,,,,,,7,,64,0
84945,note_on,0,0,0,,,,,,,,,10,,40,0
84960,note_on,15,0,0,,,,,,,,,0,,50,100
84960,note_on,0,0,0,,,,,,,,,0,,74,100
84960,note_on,0,0,0,,,,,,,,,3,,50,100
84960,note_on,0,0,0,,,,,,,,,3,,74,100
84960,note_on,0,0,0,,,,,,,,,5,,74,100
84960,note_on,0,0,0,,,,,,,,,6,,66,100
84960,note_on,0,0,0,,,,,,,,,7,,57,100
84960,note_on,0,0,0,,,,,,,,,8,,50,100
84960,note_on,0,0,0,,,,,,,,,10,,38,100
84960,note_on,0,0,0,,,,,,,,,13,,74,100
84960,note_on,0,0,0,,,,,,,,,13,,66,100
84960,note_on,0,0,0,,,,,,,,,14,,50,100
84960,note_on,0,0,0,,,,,,,,,15,,62,100
84960,note_on,0,0,0,,,,,,,,,15,,66,100
84960,note_on,0,0,0,,,,,,,,,15,,69,100
84960,note_on,0,0,0,,,,,,,,,15,,50,100
84990,note_on,30,0,0,,,,,,,,,13,,66,0
84990,note_on,0,0,0,,,,,,,,,13,,74,0
84990,note_on,0,0,0,,,,,,,,,6,,66,0
84990,note_on,0,0,0,,,,,,,,,0,,74,0
84990,note_on,0,0,0,,,,,,,,,3,,74,0
84990,note_on,0,0,0,,,,,,,,,5,,74,0
84990,note_on,0,0,0,,,,,,,,,0,,76,100
84990,note_on,0,0,0,,,,,,,,,3,,76,100
84990,note_on,0,0,0,,,,,,,,,5,,76,100
84990,note_on,0,0,0,,,,,,,,,13,,76,100
85020,note_on,30,0,0,,,,,,,,,13,,76,0
85020,note_on,0,0,0,,,,,,,,,5,,76,0
85020,note_on,0,0,0,,,,,,,,,0,,76,0
85020,note_on,0,0,0,,,,,,,,,3,,76,0
85020,note_on,0,0,0,,,,,,,,,0,,74,100
85020,note_on,0,0,0,,,,,,,,,3,,74,100
85020,note_on,0,0,0,,,,,,,,,5,,74,100
85020,note_on,0,0,0,,,,,,,,,6,,74,100
85020,note_on,0,0,0,,,,,,,,,13,,74,100
85020,note_on,0,0,0,,,,,,,,,13,,74,100
85035,note_on,15,0,0,,,,,,,,,15,,50,0
85035,note_on,0,0,0,,,,,,,,,8,,50,0
85035,note_on,0,0,0,,,,,,,,,10,,38,0
85035,note_on,0,0,0,,,,,,,,,14,,50,0
85050,note_on,15,0,0,,,,,,,,,6,,74,0
85050,note_on,0,0,0,,,,,,,,,13,,74,0
85050,note_on,0,0,0,,,,,,,,,0,,74,0
85050,note_on,0,0,0,,,,,,,,,5,,74,0
85050,note_on,0,0,0,,,,,,,,,3,,74,0
85050,note_on,0,0,0,,,,,,,,,13,,74,0
85060,note_on,10,0,0,,,,,,,,,15,,66,0
85060,note_on,0,0,0,,,,,,,,,15,,62,0
85060,note_on,0,0,0,,,,,,,,,3,,50,0
85060,note_on,0,0,0,,,,,,,,,15,,69,0
85060,note_on,0,0,0,,,,,,,,,0,,50,0
85065,note_on,5,0,0,,,,,,,,,7,,57,0
85080,note_on,15,0,0,,,,,,,,,0,,57,100
85080,note_on,0,0,0,,,,,,,,,0,,76,100
85080,note_on,0,0,0,,,,,,,,,3,,57,100
85080,note_on,0,0,0,,,,,,,,,3,,76,100
85080,note_on,0,0,0,,,,,,,,,5,,76,100
85080,note_on,0,0,0,,,,,,,,,6,,73,100
85080,note_on,0,0,0,,,,,,,,,7,,69,100
85080,note_on,0,0,0,,,,,,,,,8,,57,100
85080,note_on,0,0,0,,,,,,,,,10,,45,100
85080,note_on,0,0,0,,,,,,,,,13,,76,100
85080,note_on,0,0,0,,,,,,,,,13,,73,100
85080,note_on,0,0,0,,,,,,,,,14,,57,100
85080,note_on,0,0,0,,,,,,,,,15,,69,100
85080,note_on,0,0,0,,,,,,,,,15,,64,100
85080,note_on,0,0,0,,,,,,,,,15,,61,100
85080,note_on,0,0,0,,,,,,,,,15,,57,100
85110,note_on,30,0,0,,,,,,,,,13,,73,0
85110,note_on,0,0,0,,,,,,,,,13,,76,0
85110,note_on,0,0,0,,,,,,,,,6,,73,0
85110,note_on,0,0,0,,,,,,,,,0,,76,0
85110,note_on,0,0,0,,,,,,,,,3,,76,0
85110,note_on,0,0,0,,,,,,,,,5,,76,0
85110,note_on,0,0,0,,,,,,,,,0,,78,100
85110,note_on,0,0,0,,,,,,,,,3,,78,100
85110,note_on,0,0,0,,,,,,,,,5,,78,100
85110,note_on,0,0,0,,,,,,,,,6,,74,100
85110,note_on,0,0,0,,,,,,,,,13,,78,100
85110,note_on,0,0,0,,,,,,,,,13,,74,100
85140,note_on,30,0,0,,,,,,,,,13,,74,0
85140,note_on,0,0,0,,,,,,,,,13,,78,0
85140,note_on,0,0,0,,,,,,,,,3,,78,0
85140,note_on,0,0,0,,,,,,,,,6,,74,0
85140,note_on,0,0,0,,,,,,,,,0,,78,0
85140,note_on,0,0,0,,,,,,,,,5,,78,0
85140,note_on,0,0,0,,,,,,,,,0,,76,100
85140,note_on,0,0,0,,,,,,,,,3,,76,100
85140,note_on,0,0,0,,,,,,,,,5,,76,100
85140,note_on,0,0,0,,,,,,,,,6,,73,100
85140,note_on,0,0,0,,,,,,,,,13,,76,100
85140,note_on,0,0,0,,,,,,,,,13,,73,100
85170,note_on,30,0,0,,,,,,,,,13,,73,0
85170,note_on,0,0,0,,,,,,,,,13,,76,0
85170,note_on,0,0,0,,,,,,,,,3,,76,0
85170,note_on,0,0,0,,,,,,,,,6,,73,0
85170,note_on,0,0,0,,,,,,,,,0,,76,0
85170,note_on,0,0,0,,,,,,,,,5,,76,0
85180,note_on,10,0,0,,,,,,,,,0,,57,0
85180,note_on,0,0,0,,,,,,,,,15,,64,0
85180,note_on,0,0,0,,,,,,,,,3,,57,0
85180,note_on,0,0,0,,,,,,,,,15,,69,0
85180,note_on,0,0,0,,,,,,,,,15,,61,0
85185,note_on,5,0,0,,,,,,,,,14,,57,0
85185,note_on,0,0,0,,,,,,,,,8,,57,0
85185,note_on,0,0,0,,,,,,,,,7,,69,0
85185,note_on,0,0,0,,,,,,,,,15,,57,0
85185,note_on,0,0,0,,,,,,,,,10,,45,0
85200,note_on,15,0,0,,,,,,,,,0,,62,100
85200,note_on,0,0,0,,,,,,,,,0,,78,100
85200,note_on,0,0,0,,,,,,,,,3,,62,100
85200,note_on,0,0,0,,,,,,,,,3,,78,100
85200,note_on,0,0,0,,,,,,,,,5,,78,100
85200,note_on,0,0,0,,,,,,,,,6,,69,100
85200,note_on,0,0,0,,,,,,,,,7,,66,100
85200,note_on,0,0,0,,,,,,,,,8,,62,100
85200,note_on,0,0,0,,,,,,,,,10,,50,100
85200,note_on,0,0,0,,,,,,,,,13,,78,100
85200,note_on,0,0,0,,,,,,,,,13,,69,100
85200,note_on,0,0,0,,,,,,,,,14,,62,100
85200,note_on,0,0,0,,,,,,,,,15,,74,100
85200,note_on,0,0,0,,,,,,,,,15,,66,100
85200,note_on,0,0,0,,,,,,,,,15,,69,100
85200,note_on,0,0,0,,,,,,,,,15,,62,100
85230,note_on,30,0,0,,,,,,,,,13,,69,0
85230,note_on,0,0,0,,,,,,,,,13,,78,0
85230,note_on,0,0,0,,,,,,,,,6,,69,0
85230,note_on,0,0,0,,,,,,,,,0,,78,0
85230,note_on,0,0,0,,,,,,,,,3,,78,0
85230,note_on,0,0,0,,,,,,,,,5,,78,0
85230,note_on,0,0,0,,,,,,,,,0,,80,100
85230,note_on,0,0,0,,,,,,,,,3,,80,100
85230,note_on,0,0,0,,,,,,,,,5,,80,100
85230,note_on,0,0,0,,,,,,,,,6,,71,100
85230,note_on,0,0,0,,,,,,,,,13,,80,100
85230,note_on,0,0,0,,,,,,,,,13,,71,100
85260,note_on,30,0,0,,,,,,,,,13,,71,0
85260,note_on,0,0,0,,,,,,,,,13,,80,0
85260,note_on,0,0,0,,,,,,,,,3,,80,0
85260,note_on,0,0,0,,,,,,,,,6,,71,0
85260,note_on,0,0,0,,,,,,,,,0,,80,0
85260,note_on,0,0,0,,,,,,,,,5,,80,0
85260,note_on,0,0,0,,,,,,,,,0,,78,100
85260,note_on,0,0,0,,,,,,,,,3,,78,100
85260,note_on,0,0,0,,,,,,,,,5,,78,100
85260,note_on,0,0,0,,,,,,,,,6,,69,100
85260,note_on,0,0,0,,,,,,,,,13,,78,100
85260,note_on,0,0,0,,,,,,,,,13,,69,100
85290,note_on,30,0,0,,,,,,,,,13,,69,0
85290,note_on,0,0,0,,,,,,,,,13,,78,0
85290,note_on,0,0,0,,,,,,,,,3,,78,0
85290,note_on,0,0,0,,,,,,,,,6,,69,0
85290,note_on,0,0,0,,,,,,,,,0,,78,0
85290,note_on,0,0,0,,,,,,,,,5,,78,0
85300,note_on,10,0,0,,,,,,,,,0,,62,0
85300,note_on,0,0,0,,,,,,,,,15,,66,0
85300,note_on,0,0,0,,,,,,,,,3,,62,0
85300,note_on,0,0,0,,,,,,,,,15,,74,0
85300,note_on,0,0,0,,,,,,,,,15,,69,0
85305,note_on,5,0,0,,,,,,,,,14,,62,0
85305,note_on,0,0,0,,,,,,,,,8,,62,0
85305,note_on,0,0,0,,,,,,,,,7,,66,0
85305,note_on,0,0,0,,,,,,,,,15,,62,0
85305,note_on,0,0,0,,,,,,,,,10,,50,0
85320,note_on,15,0,0,,,,,,,,,0,,59,100
85320,note_on,0,0,0,,,,,,,,,0,,80,100
85320,note_on,0,0,0,,,,,,,,,3,,59,100
85320,note_on,0,0,0,,,,,,,,,3,,80,100
85320,note_on,0,0,0,,,,,,,,,5,,80,100
85320,note_on,0,0,0,,,,,,,,,6,,71,100
85320,note_on,0,0,0,,,,,,,,,7,,62,100
85320,note_on,0,0,0,,,,,,,,,8,,59,100
85320,note_on,0,0,0,,,,,,,,,10,,47,100
85320,note_on,0,0,0,,,,,,,,,13,,80,100
85320,note_on,0,0,0,,,,,,,,,13,,71,100
85320,note_on,0,0,0,,,,,,,,,14,,59,100
85320,note_on,0,0,0,,,,,,,,,15,,71,100
85320,note_on,0,0,0,,,,,,,,,15,,68,100
85320,note_on,0,0,0,,,,,,,,,15,,64,100
85320,note_on,0,0,0,,,,,,,,,15,,59,100
85350,note_on,30,0,0,,,,,,,,,13,,71,0
85350,note_on,0,0,0,,,,,,,,,13,,80,0
85350,note_on,0,0,0,,,,,,,,,7,,62,0
85350,note_on,0,0,0,,,,,,,,,0,,80,0
85350,note_on,0,0,0,,,,,,,,,3,,80,0
85350,note_on,0,0,0,,,,,,,,,6,,71,0
85350,note_on,0,0,0,,,,,,,,,5,,80,0
85350,note_on,0,0,0,,,,,,,,,0,,81,100
85350,note_on,0,0,0,,,,,,,,,3,,81,100
85350,note_on,0,0,0,,,,,,,,,5,,81,100
85350,note_on,0,0,0,,,,,,,,,6,,73,100
85350,note_on,0,0,0,,,,,,,,,13,,81,100
85350,note_on,0,0,0,,,,,,,,,13,,73,100
85380,note_on,30,0,0,,,,,,,,,13,,73,0
85380,note_on,0,0,0,,,,,,,,,5,,81,0
85380,note_on,0,0,0,,,,,,,,,0,,81,0
85380,note_on,0,0,0,,,,,,,,,13,,81,0
85380,note_on,0,0,0,,,,,,,,,3,,81,0
85380,note_on,0,0,0,,,,,,,,,6,,73,0
85380,note_on,0,0,0,,,,,,,,,0,,80,100
85380,note_on,0,0,0,,,,,,,,,3,,80,100
85380,note_on,0,0,0,,,,,,,,,5,,80,100
85380,note_on,0,0,0,,,,,,,,,6,,71,100
85380,note_on,0,0,0,,,,,,,,,7,,62,100
85380,note_on,0,0,0,,,,,,,,,13,,80,100
85380,note_on,0,0,0,,,,,,,,,13,,71,100
85410,note_on,30,0,0,,,,,,,,,13,,71,0
85410,note_on,0,0,0,,,,,,,,,13,,80,0
85410,note_on,0,0,0,,,,,,,,,5,,80,0
85410,note_on,0,0,0,,,,,,,,,0,,80,0
85410,note_on,0,0,0,,,,,,,,,7,,62,0
85410,note_on,0,0,0,,,,,,,,,3,,80,0
85410,note_on,0,0,0,,,,,,,,,6,,71,0
85420,note_on,10,0,0,,,,,,,,,15,,71,0
85420,note_on,0,0,0,,,,,,,,,3,,59,0
85420,note_on,0,0,0,,,,,,,,,15,,68,0
85420,note_on,0,0,0,,,,,,,,,15,,64,0
85420,note_on,0,0,0,,,,,,,,,0,,59,0
85425,note_on,5,0,0,,,,,,,,,14,,59,0
85425,note_on,0,0,0,,,,,,,,,15,,59,0
85425,note_on,0,0,0,,,,,,,,,8,,59,0
85425,note_on,0,0,0,,,,,,,,,10,,47,0
85440,note_on,15,0,0,,,,,,,,,0,,61,100
85440,note_on,0,0,0,,,,,,,,,0,,81,100
85440,note_on,0,0,0,,,,,,,,,3,,61,100
85440,note_on,0,0,0,,,,,,,,,3,,81,100
85440,note_on,0,0,0,,,,,,,,,5,,81,100
85440,note_on,0,0,0,,,,,,,,,6,,64,100
85440,note_on,0,0,0,,,,,,,,,7,,69,100
85440,note_on,0,0,0,,,,,,,,,8,,61,100
85440,note_on,0,0,0,,,,,,,,,10,,49,100
85440,note_on,0,0,0,,,,,,,,,13,,81,100
85440,note_on,0,0,0,,,,,,,,,13,,64,100
85440,note_on,0,0,0,,,,,,,,,14,,61,100
85440,note_on,0,0,0,,,,,,,,,15,,69,100
85440,note_on,0,0,0,,,,,,,,,15,,64,100
85440,note_on,0,0,0,,,,,,,,,15,,61,100
85470,note_on,30,0,0,,,,,,,,,13,,64,0
85470,note_on,0,0,0,,,,,,,,,6,,64,0
85470,note_on,0,0,0,,,,,,,,,3,,81,0
85470,note_on,0,0,0,,,,,,,,,0,,81,0
85470,note_on,0,0,0,,,,,,,,,5,,81,0
85470,note_on,0,0,0,,,,,,,,,0,,83,100
85470,note_on,0,0,0,,,,,,,,,3,,83,100
85470,note_on,0,0,0,,,,,,,,,5,,83,100
85500,note_on,30,0,0,,,,,,,,,5,,83,0
85500,note_on,0,0,0,,,,,,,,,3,,83,0
85500,note_on,0,0,0,,,,,,,,,0,,83,0
85500,note_on,0,0,0,,,,,,,,,0,,81,100
85500,note_on,0,0,0,,,,,,,,,3,,81,100
85500,note_on,0,0,0,,,,,,,,,5,,81,100
85500,note_on,0,0,0,,,,,,,,,6,,64,100
85500,note_on,0,0,0,,,,,,,,,13,,64,100
85530,note_on,30,0,0,,,,,,,,,13,,64,0
85530,note_on,0,0,0,,,,,,,,,3,,81,0
85530,note_on,0,0,0,,,,,,,,,6,,64,0
85530,note_on,0,0,0,,,,,,,,,0,,81,0
85530,note_on,0,0,0,,,,,,,,,5,,81,0
85540,note_on,10,0,0,,,,,,,,,0,,61,0
85540,note_on,0,0,0,,,,,,,,,13,,81,0
85540,note_on,0,0,0,,,,,,,,,3,,61,0
85545,note_on,5,0,0,,,,,,,,,8,,61,0
85545,note_on,0,0,0,,,,,,,,,15,,61,0
85545,note_on,0,0,0,,,,,,,,,14,,61,0
85545,note_on,0,0,0,,,,,,,,,15,,64,0
85545,note_on,0,0,0,,,,,,,,,15,,69,0
85545,note_on,0,0,0,,,,,,,,,10,,49,0
85545,note_on,0,0,0,,,,,,,,,7,,69,0
85560,note_on,15,0,0,,,,,,,,,0,,56,100
85560,note_on,0,0,0,,,,,,,,,0,,83,100
85560,note_on,0,0,0,,,,,,,,,3,,56,100
85560,note_on,0,0,0,,,,,,,,,3,,83,100
85560,note_on,0,0,0,,,,,,,,,5,,83,100
85560,note_on,0,0,0,,,,,,,,,6,,76,100
85560,note_on,0,0,0,,,,,,,,,7,,68,100
85560,note_on,0,0,0,,,,,,,,,8,,56,100
85560,note_on,0,0,0,,,,,,,,,10,,44,100
85560,note_on,0,0,0,,,,,,,,,13,,76,100
85560,note_on,0,0,0,,,,,,,,,14,,56,100
85560,note_on,0,0,0,,,,,,,,,15,,59,100
85560,note_on,0,0,0,,,,,,,,,15,,71,100
85560,note_on,0,0,0,,,,,,,,,15,,56,100
85560,note_on,0,0,0,,,,,,,,,15,,64,100
85590,note_on,30,0,0,,,,,,,,,13,,76,0
85590,note_on,0,0,0,,,,,,,,,7,,68,0
85590,note_on,0,0,0,,,,,,,,,3,,83,0
85590,note_on,0,0,0,,,,,,,,,0,,83,0
85590,note_on,0,0,0,,,,,,,,,6,,76,0
85590,note_on,0,0,0,,,,,,,,,5,,83,0
85590,note_on,0,0,0,,,,,,,,,0,,85,100
85590,note_on,0,0,0,,,,,,,,,3,,85,100
85590,note_on,0,0,0,,,,,,,,,5,,85,100
85620,note_on,30,0,0,,,,,,,,,5,,85,0
85620,note_on,0,0,0,,,,,,,,,0,,85,0
85620,note_on,0,0,0,,,,,,,,,3,,85,0
85620,note_on,0,0,0,,,,,,,,,0,,83,100
85620,note_on,0,0,0,,,,,,,,,3,,83,100
85620,note_on,0,0,0,,,,,,,,,5,,83,100
85620,note_on,0,0,0,,,,,,,,,6,,76,100
85620,note_on,0,0,0,,,,,,,,,7,,68,100
85620,note_on,0,0,0,,,,,,,,,13,,76,100
85650,note_on,30,0,0,,,,,,,,,13,,76,0
85650,note_on,0,0,0,,,,,,,,,5,,83,0
85650,note_on,0,0,0,,,,,,,,,0,,83,0
85650,note_on,0,0,0,,,,,,,,,7,,68,0
85650,note_on,0,0,0,,,,,,,,,3,,83,0
85650,note_on,0,0,0,,,,,,,,,6,,76,0
85660,note_on,10,0,0,,,,,,,,,0,,56,0
85660,note_on,0,0,0,,,,,,,,,3,,56,0
85665,note_on,5,0,0,,,,,,,,,8,,56,0
85665,note_on,0,0,0,,,,,,,,,15,,64,0
85665,note_on,0,0,0,,,,,,,,,15,,56,0
85665,note_on,0,0,0,,,,,,,,,15,,59,0
85665,note_on,0,0,0,,,,,,,,,15,,71,0
85665,note_on,0,0,0,,,,,,,,,10,,44,0
85665,note_on,0,0,0,,,,,,,,,14,,56,0
85680,note_on,15,0,0,,,,,,,,,0,,57,100
85680,note_on,0,0,0,,,,,,,,,0,,85,100
85680,note_on,0,0,0,,,,,,,,,3,,57,100
85680,note_on,0,0,0,,,,,,,,,3,,85,100
85680,note_on,0,0,0,,,,,,,,,5,,85,100
85680,note_on,0,0,0,,,,,,,,,6,,76,100
85680,note_on,0,0,0,,,,,,,,,7,,61,100
85680,note_on,0,0,0,,,,,,,,,8,,57,100
85680,note_on,0,0,0,,,,,,,,,10,,45,100
85680,note_on,0,0,0,,,,,,,,,13,,76,100
85680,note_on,0,0,0,,,,,,,,,14,,57,100
85680,note_on,0,0,0,,,,,,,,,15,,61,100
85680,note_on,0,0,0,,,,,,,,,15,,64,100
85680,note_on,0,0,0,,,,,,,,,15,,69,100
85680,note_on,0,0,0,,,,,,,,,15,,57,100
85710,note_on,30,0,0,,,,,,,,,13,,76,0
85710,note_on,0,0,0,,,,,,,,,6,,76,0
85710,note_on,0,0,0,,,,,,,,,3,,85,0
85710,note_on,0,0,0,,,,,,,,,0,,85,0
85710,note_on,0,0,0,,,,,,,,,5,,85,0
85710,note_on,0,0,0,,,,,,,,,0,,86,100
85710,note_on,0,0,0,,,,,,,,,3,,86,100
85710,note_on,0,0,0,,,,,,,,,5,,86,100
85710,note_on,0,0,0,,,,,,,,,6,,78,100
85710,note_on,0,0,0,,,,,,,,,13,,78,100
85740,note_on,30,0,0,,,,,,,,,13,,78,0
85740,note_on,0,0,0,,,,,,,,,3,,86,0
85740,note_on,0,0,0,,,,,,,,,6,,78,0
85740,note_on,0,0,0,,,,,,,,,0,,86,0
85740,note_on,0,0,0,,,,,,,,,5,,86,0
85740,note_on,0,0,0,,,,,,,,,0,,85,100
85740,note_on,0,0,0,,,,,,,,,3,,85,100
85740,note_on,0,0,0,,,,,,,,,5,,85,100
85740,note_on,0,0,0,,,,,,,,,6,,76,100
85740,note_on,0,0,0,,,,,,,,,13,,76,100
85770,note_on,30,0,0,,,,,,,,,13,,76,0
85770,note_on,0,0,0,,,,,,,,,3,,85,0
85770,note_on,0,0,0,,,,,,,,,6,,76,0
85770,note_on,0,0,0,,,,,,,,,0,,85,0
85770,note_on,0,0,0,,,,,,,,,5,,85,0
85780,note_on,10,0,0,,,,,,,,,0,,57,0
85780,note_on,0,0,0,,,,,,,,,3,,57,0
85785,note_on,5,0,0,,,,,,,,,10,,45,0
85785,note_on,0,0,0,,,,,,,,,8,,57,0
85785,note_on,0,0,0,,,,,,,,,15,,57,0
85785,note_on,0,0,0,,,,,,,,,15,,61,0
85785,note_on,0,0,0,,,,,,,,,7,,61,0
85785,note_on,0,0,0,,,,,,,,,15,,64,0
85785,note_on,0,0,0,,,,,,,,,15,,69,0
85785,note_on,0,0,0,,,,,,,,,14,,57,0
85800,note_on,15,0,0,,,,,,,,,0,,54,100
85800,note_on,0,0,0,,,,,,,,,0,,86,100
85800,note_on,0,0,0,,,,,,,,,3,,54,100
85800,note_on,0,0,0,,,,,,,,,3,,86,100
85800,note_on,0,0,0,,,,,,,,,5,,86,100
85800,note_on,0,0,0,,,,,,,,,6,,69,100
85800,note_on,0,0,0,,,,,,,,,7,,66,100
85800,note_on,0,0,0,,,,,,,,,8,,54,100
85800,note_on,0,0,0,,,,,,,,,10,,42,100
85800,note_on,0,0,0,,,,,,,,,13,,69,100
85800,note_on,0,0,0,,,,,,,,,14,,54,100
85800,note_on,0,0,0,,,,,,,,,15,,69,100
85800,note_on,0,0,0,,,,,,,,,15,,62,100
85800,note_on,0,0,0,,,,,,,,,15,,57,100
85800,note_on,0,0,0,,,,,,,,,15,,54,100
85830,note_on,30,0,0,,,,,,,,,13,,69,0
85830,note_on,0,0,0,,,,,,,,,7,,66,0
85830,note_on,0,0,0,,,,,,,,,3,,86,0
85830,note_on,0,0,0,,,,,,,,,0,,86,0
85830,note_on,0,0,0,,,,,,,,,6,,69,0
85830,note_on,0,0,0,,,,,,,,,5,,86,0
85860,note_on,30,0,0,,,,,,,,,0,,86,100
85860,note_on,0,0,0,,,,,,,,,3,,86,100
85860,note_on,0,0,0,,,,,,,,,5,,86,100
85860,note_on,0,0,0,,,,,,,,,6,,69,100
85860,note_on,0,0,0,,,,,,,,,7,,66,100
85860,note_on,0,0,0,,,,,,,,,13,,69,100
85890,note_on,30,0,0,,,,,,,,,13,,69,0
85890,note_on,0,0,0,,,,,,,,,5,,86,0
85890,note_on,0,0,0,,,,,,,,,0,,86,0
85890,note_on,0,0,0,,,,,,,,,7,,66,0
85890,note_on,0,0,0,,,,,,,,,3,,86,0
85890,note_on,0,0,0,,,,,,,,,6,,69,0
85900,note_on,10,0,0,,,,,,,,,0,,54,0
85900,note_on,0,0,0,,,,,,,,,3,,54,0
85905,note_on,5,0,0,,,,,,,,,8,,54,0
85905,note_on,0,0,0,,,,,,,,,14,,54,0
85905,note_on,0,0,0,,,,,,,,,15,,54,0
85905,note_on,0,0,0,,,,,,,,,15,,69,0
85905,note_on,0,0,0,,,,,,,,,15,,62,0
85905,note_on,0,0,0,,,,,,,,,10,,42,0
85905,note_on,0,0,0,,,,,,,,,15,,57,0
85920,note_on,15,0,0,,,,,,,,,0,,56,100
85920,note_on,0,0,0,,,,,,,,,0,,76,100
85920,note_on,0,0,0,,,,,,,,,3,,56,100
85920,note_on,0,0,0,,,,,,,,,3,,76,100
85920,note_on,0,0,0,,,,,,,,,5,,76,100
85920,note_on,0,0,0,,,,,,,,,6,,71,100
85920,note_on,0,0,0,,,,,,,,,7,,64,100
85920,note_on,0,0,0,,,,,,,,,8,,56,100
85920,note_on,0,0,0,,,,,,,,,10,,44,100
85920,note_on,0,0,0,,,,,,,,,13,,76,100
85920,note_on,0,0,0,,,,,,,,,13,,71,100
85920,note_on,0,0,0,,,,,,,,,14,,56,100
85920,note_on,0,0,0,,,,,,,,,15,,56,100
85930,note_on,10,0,0,,,,,,,,,15,,59,100
85940,note_on,10,0,0,,,,,,,,,15,,62,100
85950,note_on,10,0,0,,,,,,,,,15,,64,100
85960,note_on,10,0,0,,,,,,,,,15,,68,100
86055,note_on,95,0,0,,,,,,,,,15,,56,0
86055,note_on,0,0,0,,,,,,,,,13,,76,0
86055,note_on,0,0,0,,,,,,,,,7,,64,0
86055,note_on,0,0,0,,,,,,,,,3,,76,0
86055,note_on,0,0,0,,,,,,,,,10,,44,0
86055,note_on,0,0,0,,,,,,,,,6,,71,0
86055,note_on,0,0,0,,,,,,,,,0,,76,0
86055,note_on,0,0,0,,,,,,,,,8,,56,0
86055,note_on,0,0,0,,,,,,,,,14,,56,0
86055,note_on,0,0,0,,,,,,,,,13,,71,0
86055,note_on,0,0,0,,,,,,,,,5,,76,0
86060,note_on,5,0,0,,,,,,,,,0,,56,0
86060,note_on,0,0,0,,,,,,,,,15,,64,0
86060,note_on,0,0,0,,,,,,,,,3,,56,0
86060,note_on,0,0,0,,,,,,,,,15,,62,0
86065,note_on,5,0,0,,,,,,,,,15,,68,0
86065,note_on,0,0,0,,,,,,,,,15,,59,0
86130,note_on,65,0,0,,,,,,,,,0,,57,100
86130,note_on,0,0,0,,,,,,,,,0,,76,100
86130,note_on,0,0,0,,,,,,,,,3,,57,100
86130,note_on,0,0,0,,,,,,,,,3,,76,100
86130,note_on,0,0,0,,,,,,,,,5,,76,100
86130,note_on,0,0,0,,,,,,,,,6,,73,100
86130,note_on,0,0,0,,,,,,,,,7,,69,100
86130,note_on,0,0,0,,,,,,,,,8,,57,100
86130,note_on,0,0,0,,,,,,,,,10,,45,100
86130,note_on,0,0,0,,,,,,,,,13,,76,100
86130,note_on,0,0,0,,,,,,,,,13,,73,100
86130,note_on,0,0,0,,,,,,,,,14,,57,100
86130,note_on,0,0,0,,,,,,,,,15,,57,100
86145,note_on,15,0,0,,,,,,,,,3,,76,0
86145,note_on,0,0,0,,,,,,,,,3,,57,0
86145,note_on,0,0,0,,,,,,,,,0,,57,0
86145,note_on,0,0,0,,,,,,,,,0,,76,0
86150,note_on,5,0,0,,,,,,,,,5,,76,0
86150,note_on,0,0,0,,,,,,,,,10,,45,0
86150,note_on,0,0,0,,,,,,,,,8,,57,0
86150,note_on,0,0,0,,,,,,,,,7,,69,0
86150,note_on,0,0,0,,,,,,,,,15,,57,0
86150,note_on,0,0,0,,,,,,,,,13,,73,0
86150,note_on,0,0,0,,,,,,,,,14,,57,0
86150,note_on,0,0,0,,,,,,,,,13,,76,0
86150,note_on,0,0,0,,,,,,,,,6,,73,0
86160,set_tempo,10,1,0,,,,,,526362,,,,,,
86160,note_on,0,0,0,,,,,,,,,0,,59,100
86160,note_on,0,0,0,,,,,,,,,0,,74,100
86160,note_on,0,0,0,,,,,,,,,3,,59,100
86160,note_on,0,0,0,,,,,,,,,3,,74,100
86160,note_on,0,0,0,,,,,,,,,5,,74,100
86160,note_on,0,0,0,,,,,,,,,6,,66,100
86160,note_on,0,0,0,,,,,,,,,7,,62,100
86160,note_on,0,0,0,,,,,,,,,8,,59,100
86160,note_on,0,0,0,,,,,,,,,10,,47,100
86160,note_on,0,0,0,,,,,,,,,13,,74,100
86160,note_on,0,0,0,,,,,,,,,13,,66,100
86160,note_on,0,0,0,,,,,,,,,14,,59,100
86160,note_on,0,0,0,,,,,,,,,15,,74,100
86160,note_on,0,0,0,,,,,,,,,15,,62,100
86160,note_on,0,0,0,,,,,,,,,15,,66,100
86160,note_on,0,0,0,,,,,,,,,15,,59,100
86190,note_on,30,0,0,,,,,,,,,13,,74,0
86190,note_on,0,0,0,,,,,,,,,5,,74,0
86190,note_on,0,0,0,,,,,,,,,3,,74,0
86190,note_on,0,0,0,,,,,,,,,0,,74,0
86190,note_on,0,0,0,,,,,,,,,0,,76,100
86190,note_on,0,0,0,,,,,,,,,3,,76,100
86190,note_on,0,0,0,,,,,,,,,5,,76,100
86190,note_on,0,0,0,,,,,,,,,13,,76,100
86220,note_on,30,0,0,,,,,,,,,13,,76,0
86220,note_on,0,0,0,,,,,,,,,5,,76,0
86220,note_on,0,0,0,,,,,,,,,3,,76,0
86220,note_on,0,0,0,,,,,,,,,0,,76,0
86220,note_on,0,0,0,,,,,,,,,0,,74,100
86220,note_on,0,0,0,,,,,,,,,3,,74,100
86220,note_on,0,0,0,,,,,,,,,5,,74,100
86220,note_on,0,0,0,,,,,,,,,13,,74,100
86250,note_on,30,0,0,,,,,,,,,13,,74,0
86250,note_on,0,0,0,,,,,,,,,5,,74,0
86250,note_on,0,0,0,,,,,,,,,3,,74,0
86250,note_on,0,0,0,,,,,,,,,0,,74,0
86260,note_on,10,0,0,,,,,,,,,15,,66,0
86260,note_on,0,0,0,,,,,,,,,15,,59,0
86260,note_on,0,0,0,,,,,,,,,10,,47,0
86260,note_on,0,0,0,,,,,,,,,0,,59,0
86260,note_on,0,0,0,,,,,,,,,3,,59,0
86260,note_on,0,0,0,,,,,,,,,8,,59,0
86260,note_on,0,0,0,,,,,,,,,14,,59,0
86260,note_on,0,0,0,,,,,,,,,15,,62,0
86260,note_on,0,0,0,,,,,,,,,15,,74,0
86260,note_on,0,0,0,,,,,,,,,7,,62,0
86265,note_on,5,0,0,,,,,,,,,13,,66,0
86265,note_on,0,0,0,,,,,,,,,6,,66,0
86280,note_on,15,0,0,,,,,,,,,0,,52,100
86280,note_on,0,0,0,,,,,,,,,0,,73,100
86280,note_on,0,0,0,,,,,,,,,3,,52,100
86280,note_on,0,0,0,,,,,,,,,3,,73,100
86280,note_on,0,0,0,,,,,,,,,5,,74,100
86280,note_on,0,0,0,,,,,,,,,6,,68,100
86280,note_on,0,0,0,,,,,,,,,7,,64,100
86280,note_on,0,0,0,,,,,,,,,8,,52,100
86280,note_on,0,0,0,,,,,,,,,10,,40,100
86280,note_on,0,0,0,,,,,,,,,13,,74,100
86280,note_on,0,0,0,,,,,,,,,13,,68,100
86280,note_on,0,0,0,,,,,,,,,14,,52,100
86280,note_on,0,0,0,,,,,,,,,15,,62,100
86280,note_on,0,0,0,,,,,,,,,15,,71,100
86280,note_on,0,0,0,,,,,,,,,15,,66,100
86280,note_on,0,0,0,,,,,,,,,15,,52,100
86295,note_on,15,0,0,,,,,,,,,13,,74,0
86295,note_on,0,0,0,,,,,,,,,5,,74,0
86295,note_on,0,0,0,,,,,,,,,5,,73,100
86295,note_on,0,0,0,,,,,,,,,13,,73,100
86310,note_on,15,0,0,,,,,,,,,13,,73,0
86310,note_on,0,0,0,,,,,,,,,5,,73,0
86310,note_on,0,0,0,,,,,,,,,5,,74,100
86310,note_on,0,0,0,,,,,,,,,13,,74,100
86325,note_on,15,0,0,,,,,,,,,13,,74,0
86325,note_on,0,0,0,,,,,,,,,5,,74,0
86325,note_on,0,0,0,,,,,,,,,5,,73,100
86325,note_on,0,0,0,,,,,,,,,13,,73,100
86340,note_on,15,0,0,,,,,,,,,13,,73,0
86340,note_on,0,0,0,,,,,,,,,5,,73,0
86340,note_on,0,0,0,,,,,,,,,15,,66,0
86340,note_on,0,0,0,,,,,,,,,5,,74,100
86340,note_on,0,0,0,,,,,,,,,13,,74,100
86340,note_on,0,0,0,,,,,,,,,15,,68,100
86355,note_on,15,0,0,,,,,,,,,13,,74,0
86355,note_on,0,0,0,,,,,,,,,0,,73,0
86355,note_on,0,0,0,,,,,,,,,5,,74,0
86355,note_on,0,0,0,,,,,,,,,3,,73,0
86355,note_on,0,0,0,,,,,,,,,5,,73,100
86355,note_on,0,0,0,,,,,,,,,13,,73,100
86370,note_on,15,0,0,,,,,,,,,13,,73,0
86370,note_on,0,0,0,,,,,,,,,5,,73,0
86370,note_on,0,0,0,,,,,,,,,0,,71,100
86370,note_on,0,0,0,,,,,,,,,3,,71,100
86370,note_on,0,0,0,,,,,,,,,5,,71,100
86370,note_on,0,0,0,,,,,,,,,13,,71,100
86380,note_on,10,0,0,,,,,,,,,14,,52,0
86380,note_on,0,0,0,,,,,,,,,10,,40,0
86380,note_on,0,0,0,,,,,,,,,15,,52,0
86380,note_on,0,0,0,,,,,,,,,8,,52,0
86380,note_on,0,0,0,,,,,,,,,0,,52,0
86380,note_on,0,0,0,,,,,,,,,15,,62,0
86380,note_on,0,0,0,,,,,,,,,3,,52,0
86380,note_on,0,0,0,,,,,,,,,7,,64,0
86385,note_on,5,0,0,,,,,,,,,5,,71,0
86385,note_on,0,0,0,,,,,,,,,13,,71,0
86385,note_on,0,0,0,,,,,,,,,13,,68,0
86385,note_on,0,0,0,,,,,,,,,6,,68,0
86390,note_on,5,0,0,,,,,,,,,15,,71,0
86400,note_on,10,0,0,,,,,,,,,15,,68,0
86400,note_on,0,0,0,,,,,,,,,0,,71,0
86400,note_on,0,0,0,,,,,,,,,3,,71,0
86400,note_on,0,0,0,,,,,,,,,0,,57,100
86400,note_on,0,0,0,,,,,,,,,0,,73,100
86400,note_on,0,0,0,,,,,,,,,3,,57,100
86400,note_on,0,0,0,,,,,,,,,3,,73,100
86400,note_on,0,0,0,,,,,,,,,5,,73,100
86400,note_on,0,0,0,,,,,,,,,6,,64,100
86400,note_on,0,0,0,,,,,,,,,7,,64,100
86400,note_on,0,0,0,,,,,,,,,8,,57,100
86400,note_on,0,0,0,,,,,,,,,10,,45,100
86400,note_on,0,0,0,,,,,,,,,13,,73,100
86400,note_on,0,0,0,,,,,,,,,13,,64,100
86400,note_on,0,0,0,,,,,,,,,14,,57,100
86400,note_on,0,0,0,,,,,,,,,15,,61,100
86400,note_on,0,0,0,,,,,,,,,15,,64,100
86400,note_on,0,0,0,,,,,,,,,15,,69,100
86400,note_on,0,0,0,,,,,,,,,15,,57,100
86430,note_on,30,0,0,,,,,,,,,15,,57,0
86430,note_on,0,0,0,,,,,,,,,14,,57,0
86430,note_on,0,0,0,,,,,,,,,13,,73,0
86430,note_on,0,0,0,,,,,,,,,6,,64,0
86430,note_on,0,0,0,,,,,,,,,3,,73,0
86430,note_on,0,0,0,,,,,,,,,10,,45,0
86430,note_on,0,0,0,,,,,,,,,0,,73,0
86430,note_on,0,0,0,,,,,,,,,8,,57,0
86430,note_on,0,0,0,,,,,,,,,13,,64,0
86430,note_on,0,0,0,,,,,,,,,5,,73,0
86440,note_on,10,0,0,,,,,,,,,0,,57,0
86440,note_on,0,0,0,,,,,,,,,3,,57,0
86440,note_on,0,0,0,,,,,,,,,0,,81,100
86440,note_on,0,0,0,,,,,,,,,3,,81,100
86440,note_on,0,0,0,,,,,,,,,5,,81,100
86440,note_on,0,0,0,,,,,,,,,6,,73,100
86440,note_on,0,0,0,,,,,,,,,13,,81,100
86440,note_on,0,0,0,,,,,,,,,13,,73,100
86460,note_on,20,0,0,,,,,,,,,0,,49,100
86460,note_on,0,0,0,,,,,,,,,3,,49,100
86460,note_on,0,0,0,,,,,,,,,8,,49,100
86460,note_on,0,0,0,,,,,,,,,10,,37,100
86460,note_on,0,0,0,,,,,,,,,14,,49,100
86460,note_on,0,0,0,,,,,,,,,15,,49,100
86470,note_on,10,0,0,,,,,,,,,13,,73,0
86470,note_on,0,0,0,,,,,,,,,13,,81,0
86470,note_on,0,0,0,,,,,,,,,5,,81,0
86470,note_on,0,0,0,,,,,,,,,6,,73,0
86470,note_on,0,0,0,,,,,,,,,3,,81,0
86470,note_on,0,0,0,,,,,,,,,0,,81,0
86480,note_on,10,0,0,,,,,,,,,0,,80,100
86480,note_on,0,0,0,,,,,,,,,3,,80,100
86480,note_on,0,0,0,,,,,,,,,5,,80,100
86480,note_on,0,0,0,,,,,,,,,6,,71,100
86480,note_on,0,0,0,,,,,,,,,13,,80,100
86480,note_on,0,0,0,,,,,,,,,13,,71,100
86490,note_on,10,0,0,,,,,,,,,10,,37,0
86490,note_on,0,0,0,,,,,,,,,15,,49,0
86490,note_on,0,0,0,,,,,,,,,14,,49,0
86490,note_on,0,0,0,,,,,,,,,8,,49,0
86500,note_on,10,0,0,,,,,,,,,0,,49,0
86500,note_on,0,0,0,,,,,,,,,15,,61,0
86500,note_on,0,0,0,,,,,,,,,15,,69,0
86500,note_on,0,0,0,,,,,,,,,15,,64,0
86500,note_on,0,0,0,,,,,,,,,7,,64,0
86500,note_on,0,0,0,,,,,,,,,3,,49,0
86510,note_on,10,0,0,,,,,,,,,5,,80,0
86510,note_on,0,0,0,,,,,,,,,6,,71,0
86510,note_on,0,0,0,,,,,,,,,0,,80,0
86510,note_on,0,0,0,,,,,,,,,3,,80,0
86510,note_on,0,0,0,,,,,,,,,13,,80,0
86510,note_on,0,0,0,,,,,,,,,13,,71,0
86520,note_on,10,0,0,,,,,,,,,0,,50,100
86520,note_on,0,0,0,,,,,,,,,0,,78,100
86520,note_on,0,0,0,,,,,,,,,3,,50,100
86520,note_on,0,0,0,,,,,,,,,3,,78,100
86520,note_on,0,0,0,,,,,,,,,5,,78,100
86520,note_on,0,0,0,,,,,,,,,6,,69,100
86520,note_on,0,0,0,,,,,,,,,7,,66,100
86520,note_on,0,0,0,,,,,,,,,8,,50,100
86520,note_on,0,0,0,,,,,,,,,10,,38,100
86520,note_on,0,0,0,,,,,,,,,13,,78,100
86520,note_on,0,0,0,,,,,,,,,13,,69,100
86520,note_on,0,0,0,,,,,,,,,14,,50,100
86520,note_on,0,0,0,,,,,,,,,15,,69,100
86520,note_on,0,0,0,,,,,,,,,15,,66,100
86520,note_on,0,0,0,,,,,,,,,15,,62,100
86520,note_on,0,0,0,,,,,,,,,15,,50,100
86550,note_on,30,0,0,,,,,,,,,15,,50,0
86550,note_on,0,0,0,,,,,,,,,14,,50,0
86550,note_on,0,0,0,,,,,,,,,13,,78,0
86550,note_on,0,0,0,,,,,,,,,7,,66,0
86550,note_on,0,0,0,,,,,,,,,3,,78,0
86550,note_on,0,0,0,,,,,,,,,10,,38,0
86550,note_on,0,0,0,,,,,,,,,0,,78,0
86550,note_on,0,0,0,,,,,,,,,8,,50,0
86550,note_on,0,0,0,,,,,,,,,13,,69,0
86550,note_on,0,0,0,,,,,,,,,6,,69,0
86550,note_on,0,0,0,,,,,,,,,5,,78,0
86560,note_on,10,0,0,,,,,,,,,0,,50,0
86560,note_on,0,0,0,,,,,,,,,3,,50,0
86560,note_on,0,0,0,,,,,,,,,0,,76,100
86560,note_on,0,0,0,,,,,,,,,3,,76,100
86560,note_on,0,0,0,,,,,,,,,5,,76,100
86560,note_on,0,0,0,,,,,,,,,13,,76,100
86580,note_on,20,0,0,,,,,,,,,0,,54,100
86580,note_on,0,0,0,,,,,,,,,3,,54,100
86580,note_on,0,0,0,,,,,,,,,6,,69,100
86580,note_on,0,0,0,,,,,,,,,7,,69,100
86580,note_on,0,0,0,,,,,,,,,8,,54,100
86580,note_on,0,0,0,,,,,,,,,10,,42,100
86580,note_on,0,0,0,,,,,,,,,13,,69,100
86580,note_on,0,0,0,,,,,,,,,14,,54,100
86580,note_on,0,0,0,,,,,,,,,15,,54,100
86590,note_on,10,0,0,,,,,,,,,13,,76,0
86590,note_on,0,0,0,,,,,,,,,0,,76,0
86590,note_on,0,0,0,,,,,,,,,5,,76,0
86590,note_on,0,0,0,,,,,,,,,3,,76,0
86600,note_on,10,0,0,,,,,,,,,0,,74,100
86600,note_on,0,0,0,,,,,,,,,3,,74,100
86600,note_on,0,0,0,,,,,,,,,5,,74,100
86600,note_on,0,0,0,,,,,,,,,13,,74,100
86610,note_on,10,0,0,,,,,,,,,8,,54,0
86610,note_on,0,0,0,,,,,,,,,15,,54,0
86610,note_on,0,0,0,,,,,,,,,7,,69,0
86610,note_on,0,0,0,,,,,,,,,6,,69,0
86610,note_on,0,0,0,,,,,,,,,13,,69,0
86610,note_on,0,0,0,,,,,,,,,10,,42,0
86610,note_on,0,0,0,,,,,,,,,14,,54,0
86620,note_on,10,0,0,,,,,,,,,15,,62,0
86620,note_on,0,0,0,,,,,,,,,3,,54,0
86620,note_on,0,0,0,,,,,,,,,0,,54,0
86620,note_on,0,0,0,,,,,,,,,15,,69,0
86620,note_on,0,0,0,,,,,,,,,15,,66,0
86630,note_on,10,0,0,,,,,,,,,3,,74,0
86630,note_on,0,0,0,,,,,,,,,5,,74,0
86630,note_on,0,0,0,,,,,,,,,13,,74,0
86630,note_on,0,0,0,,,,,,,,,0,,74,0
86640,note_on,10,0,0,,,,,,,,,0,,52,100
86640,note_on,0,0,0,,,,,,,,,0,,73,100
86640,note_on,0,0,0,,,,,,,,,3,,52,100
86640,note_on,0,0,0,,,,,,,,,3,,73,100
86640,note_on,0,0,0,,,,,,,,,5,,73,100
86640,note_on,0,0,0,,,,,,,,,6,,69,100
86640,note_on,0,0,0,,,,,,,,,7,,64,100
86640,note_on,0,0,0,,,,,,,,,8,,52,100
86640,note_on,0,0,0,,,,,,,,,10,,40,100
86640,note_on,0,0,0,,,,,,,,,13,,73,100
86640,note_on,0,0,0,,,,,,,,,13,,69,100
86640,note_on,0,0,0,,,,,,,,,14,,52,100
86640,note_on,0,0,0,,,,,,,,,15,,61,100
86640,note_on,0,0,0,,,,,,,,,15,,64,100
86640,note_on,0,0,0,,,,,,,,,15,,69,100
86640,note_on,0,0,0,,,,,,,,,15,,52,100
86681,set_tempo,41,1,0,,,,,,526362,,,,,,
86693,set_tempo,12,1,0,,,,,,531020,,,,,,
86704,set_tempo,11,1,0,,,,,,535762,,,,,,
86715,set_tempo,11,1,0,,,,,,540589,,,,,,
86726,set_tempo,11,1,0,,,,,,545504,,,,,,
86736,set_tempo,10,1,0,,,,,,550509,,,,,,
86740,note_on,4,0,0,,,,,,,,,15,,52,0
86740,note_on,0,0,0,,,,,,,,,15,,69,0
86740,note_on,0,0,0,,,,,,,,,14,,52,0
86740,note_on,0,0,0,,,,,,,,,5,,73,0
86740,note_on,0,0,0,,,,,,,,,6,,69,0
86740,note_on,0,0,0,,,,,,,,,13,,73,0
86740,note_on,0,0,0,,,,,,,,,8,,52,0
86740,note_on,0,0,0,,,,,,,,,7,,64,0
86740,note_on,0,0,0,,,,,,,,,10,,40,0
86740,note_on,0,0,0,,,,,,,,,15,,64,0
86740,note_on,0,0,0,,,,,,,,,15,,61,0
86740,note_on,0,0,0,,,,,,,,,13,,69,0
86747,set_tempo,7,1,0,,,,,,555607,,,,,,
86750,note_on,3,0,0,,,,,,,,,3,,52,0
86750,note_on,0,0,0,,,,,,,,,0,,73,0
86750,note_on,0,0,0,,,,,,,,,0,,52,0
86750,note_on,0,0,0,,,,,,,,,3,,73,0
86760,set_tempo,10,1,0,,,,,,560800,,,,,,
86760,note_on,0,0,0,,,,,,,,,0,,40,100
86760,note_on,0,0,0,,,,,,,,,0,,73,100
86760,note_on,0,0,0,,,,,,,,,3,,40,100
86760,note_on,0,0,0,,,,,,,,,3,,73,100
86760,note_on,0,0,0,,,,,,,,,5,,73,100
86760,note_on,0,0,0,,,,,,,,,6,,68,100
86760,note_on,0,0,0,,,,,,,,,7,,62,100
86760,note_on,0,0,0,,,,,,,,,8,,40,100
86760,note_on,0,0,0,,,,,,,,,10,,28,100
86760,note_on,0,0,0,,,,,,,,,13,,73,100
86760,note_on,0,0,0,,,,,,,,,13,,68,100
86760,note_on,0,0,0,,,,,,,,,14,,40,100
86760,note_on,0,0,0,,,,,,,,,15,,59,100
86760,note_on,0,0,0,,,,,,,,,15,,62,100
86760,note_on,0,0,0,,,,,,,,,15,,64,100
86760,note_on,0,0,0,,,,,,,,,15,,68,100
86760,note_on,0,0,0,,,,,,,,,15,,40,100
86770,set_tempo,10,1,0,,,,,,566091,,,,,,
86770,note_on,0,0,0,,,,,,,,,13,,73,0
86770,note_on,0,0,0,,,,,,,,,5,,73,0
86770,note_on,0,0,0,,,,,,,,,3,,73,0
86770,note_on,0,0,0,,,,,,,,,0,,73,0
86770,note_on,0,0,0,,,,,,,,,0,,71,100
86770,note_on,0,0,0,,,,,,,,,3,,71,100
86770,note_on,0,0,0,,,,,,,,,5,,71,100
86770,note_on,0,0,0,,,,,,,,,13,,71,100
86780,note_on,10,0,0,,,,,,,,,13,,71,0
86780,note_on,0,0,0,,,,,,,,,5,,71,0
86780,note_on,0,0,0,,,,,,,,,3,,71,0
86780,note_on,0,0,0,,,,,,,,,0,,71,0
86780,note_on,0,0,0,,,,,,,,,0,,73,100
86780,note_on,0,0,0,,,,,,,,,3,,73,100
86780,note_on,0,0,0,,,,,,,,,5,,73,100
86780,note_on,0,0,0,,,,,,,,,13,,73,100
86781,set_tempo,1,1,0,,,,,,571483,,,,,,
86790,note_on,9,0,0,,,,,,,,,13,,73,0
86790,note_on,0,0,0,,,,,,,,,5,,73,0
86790,note_on,0,0,0,,,,,,,,,3,,73,0
86790,note_on,0,0,0,,,,,,,,,0,,73,0
86790,note_on,0,0,0,,,,,,,,,0,,71,100
86790,note_on,0,0,0,,,,,,,,,3,,71,100
86790,note_on,0,0,0,,,,,,,,,5,,71,100
86790,note_on,0,0,0,,,,,,,,,13,,71,100
86792,set_tempo,2,1,0,,,,,,576979,,,,,,
86800,note_on,8,0,0,,,,,,,,,13,,71,0
86800,note_on,0,0,0,,,,,,,,,5,,71,0
86800,note_on,0,0,0,,,,,,,,,3,,71,0
86800,note_on,0,0,0,,,,,,,,,0,,71,0
86800,note_on,0,0,0,,,,,,,,,0,,73,100
86800,note_on,0,0,0,,,,,,,,,3,,73,100
86800,note_on,0,0,0,,,,,,,,,5,,73,100
86800,note_on,0,0,0,,,,,,,,,13,,73,100
86803,set_tempo,3,1,0,,,,,,582581,,,,,,
86810,note_on,7,0,0,,,,,,,,,13,,73,0
86810,note_on,0,0,0,,,,,,,,,5,,73,0
86810,note_on,0,0,0,,,,,,,,,3,,73,0
86810,note_on,0,0,0,,,,,,,,,0,,73,0
86810,note_on,0,0,0,,,,,,,,,0,,71,100
86810,note_on,0,0,0,,,,,,,,,3,,71,100
86810,note_on,0,0,0,,,,,,,,,5,,71,100
86810,note_on,0,0,0,,,,,,,,,13,,71,100
86813,set_tempo,3,1,0,,,,,,588293,,,,,,
86820,note_on,7,0,0,,,,,,,,,13,,71,0
86820,note_on,0,0,0,,,,,,,,,5,,71,0
86820,note_on,0,0,0,,,,,,,,,3,,71,0
86820,note_on,0,0,0,,,,,,,,,0,,71,0
86820,note_on,0,0,0,,,,,,,,,0,,73,100
86820,note_on,0,0,0,,,,,,,,,3,,73,100
86820,note_on,0,0,0,,,,,,,,,5,,73,100
86820,note_on,0,0,0,,,,,,,,,13,,73,100
86826,set_tempo,6,1,0,,,,,,594118,,,,,,
86830,note_on,4,0,0,,,,,,,,,13,,73,0
86830,note_on,0,0,0,,,,,,,,,5,,73,0
86830,note_on,0,0,0,,,,,,,,,3,,73,0
86830,note_on,0,0,0,,,,,,,,,0,,73,0
86830,note_on,0,0,0,,,,,,,,,0,,71,100
86830,note_on,0,0,0,,,,,,,,,3,,71,100
86830,note_on,0,0,0,,,,,,,,,5,,71,100
86830,note_on,0,0,0,,,,,,,,,13,,71,100
86836,set_tempo,6,1,0,,,,,,600060,,,,,,
86847,set_tempo,11,1,0,,,,,,606122,,,,,,
86850,note_on,3,0,0,,,,,,,,,3,,71,0
86850,note_on,0,0,0,,,,,,,,,0,,71,0
86850,note_on,0,0,0,,,,,,,,,0,,69,100
86850,note_on,0,0,0,,,,,,,,,3,,69,100
86858,set_tempo,8,1,0,,,,,,612307,,,,,,
86860,note_on,2,0,0,,,,,,,,,15,,68,0
86860,note_on,0,0,0,,,,,,,,,13,,71,0
86860,note_on,0,0,0,,,,,,,,,5,,71,0
86860,note_on,0,0,0,,,,,,,,,15,,64,0
86860,note_on,0,0,0,,,,,,,,,15,,62,0
86860,note_on,0,0,0,,,,,,,,,7,,62,0
86860,note_on,0,0,0,,,,,,,,,15,,59,0
86860,note_on,0,0,0,,,,,,,,,13,,68,0
86860,note_on,0,0,0,,,,,,,,,8,,40,0
86860,note_on,0,0,0,,,,,,,,,10,,28,0
86860,note_on,0,0,0,,,,,,,,,15,,40,0
86860,note_on,0,0,0,,,,,,,,,6,,68,0
86860,note_on,0,0,0,,,,,,,,,14,,40,0
86860,note_on,0,0,0,,,,,,,,,5,,69,100
86860,note_on,0,0,0,,,,,,,,,13,,69,100
86869,set_tempo,9,1,0,,,,,,618620,,,,,,
86870,note_on,1,0,0,,,,,,,,,13,,69,0
86870,note_on,0,0,0,,,,,,,,,3,,69,0
86870,note_on,0,0,0,,,,,,,,,0,,69,0
86870,note_on,0,0,0,,,,,,,,,3,,40,0
86870,note_on,0,0,0,,,,,,,,,5,,69,0
86870,note_on,0,0,0,,,,,,,,,0,,40,0
86880,set_tempo,10,1,0,,,,,,625065,,,,,,
86880,note_on,0,0,0,,,,,,,,,0,,45,100
86880,note_on,0,0,0,,,,,,,,,0,,69,100
86880,note_on,0,0,0,,,,,,,,,3,,45,100
86880,note_on,0,0,0,,,,,,,,,3,,69,100
86880,note_on,0,0,0,,,,,,,,,5,,69,100
86880,note_on,0,0,0,,,,,,,,,6,,69,100
86880,note_on,0,0,0,,,,,,,,,7,,61,100
86880,note_on,0,0,0,,,,,,,,,8,,45,100
86880,note_on,0,0,0,,,,,,,,,10,,33,100
86880,note_on,0,0,0,,,,,,,,,13,,69,100
86880,note_on,0,0,0,,,,,,,,,13,,69,100
86880,note_on,0,0,0,,,,,,,,,14,,45,100
86880,note_on,0,0,0,,,,,,,,,15,,45,100
86880,note_on,0,0,0,,,,,,,,,15,,69,100
86900,note_on,20,0,0,,,,,,,,,15,,64,100
86920,note_on,20,0,0,,,,,,,,,15,,61,100
86950,note_on,30,0,0,,,,,,,,,15,,57,100
87360,note_on,410,0,0,,,,,,,,,15,,57,0
87360,note_on,0,0,0,,,,,,,,,7,,61,0
87360,note_on,0,0,0,,,,,,,,,0,,45,0
87360,note_on,0,0,0,,,,,,,,,14,,45,0
87360,note_on,0,0,0,,,,,,,,,5,,69,0
87360,note_on,0,0,0,,,,,,,,,6,,69,0
87360,note_on,0,0,0,,,,,,,,,0,,69,0
87360,note_on,0,0,0,,,,,,,,,8,,45,0
87360,note_on,0,0,0,,,,,,,,,3,,45,0
87360,note_on,0,0,0,,,,,,,,,3,,69,0
87360,note_on,0,0,0,,,,,,,,,13,,69,0
87360,note_on,0,0,0,,,,,,,,,15,,45,0
87360,note_on,0,0,0,,,,,,,,,13,,69,0
87360,note_on,0,0,0,,,,,,,,,10,,33,0
87360,note_on,0,0,0,,,,,,,,,15,,64,0
87360,note_on,0,0,0,,,,,,,,,15,,69,0
87360,note_on,0,0,0,,,,,,,,,15,,61,0
87749,control_change,389,0,0,,,,,,,0,42,0,,,
87750,program_change,1,0,0,,,,,,,,,0,58,,
87813,set_tempo,63,1,0,,,,,,618620,,,,,,
87824,set_tempo,11,1,0,,,,,,625065,,,,,,
87825,set_tempo,1,1,0,,,,,,638298,,,,,,
87826,set_tempo,1,1,0,,,,,,652174,,,,,,
87828,set_tempo,2,1,0,,,,,,674157,,,,,,
87829,set_tempo,1,1,0,,,,,,697674,,,,,,
87831,set_tempo,2,1,0,,,,,,714286,,,,,,
87833,set_tempo,2,1,0,,,,,,740741,,,,,,
87834,set_tempo,1,1,0,,,,,,769231,,,,,,
87836,set_tempo,2,1,0,,,,,,810920,,,,,,
87837,set_tempo,1,1,0,,,,,,857265,,,,,,
87839,set_tempo,2,1,0,,,,,,923219,,,,,,
87840,time_signature,1,1,0,6,8,12,8,,,,,,,,
87840,set_tempo,0,1,0,,,,,,1000167,,,,,,
87840,marker,0,1,0,,,,,,,,,,,,
87840,note_on,0,0,0,,,,,,,,,0,,42,100
87840,note_on,0,0,0,,,,,,,,,0,,54,100
87840,note_on,0,0,0,,,,,,,,,0,,73,100
87842,set_tempo,2,1,0,,,,,,1071620,,,,,,
87843,set_tempo,1,1,0,,,,,,1176701,,,,,,
87845,set_tempo,2,1,0,,,,,,1304631,,,,,,
87870,note_on,25,0,0,,,,,,,,,0,,54,0
87870,note_on,0,0,0,,,,,,,,,0,,57,100
87900,note_on,30,0,0,,,,,,,,,0,,57,0
87900,note_on,0,0,0,,,,,,,,,0,,61,100
87930,note_on,30,0,0,,,,,,,,,0,,61,0
87930,note_on,0,0,0,,,,,,,,,0,,73,0
87930,note_on,0,0,0,,,,,,,,,0,,74,100
87930,note_on,0,0,0,,,,,,,,,0,,57,100
87960,note_on,30,0,0,,,,,,,,,0,,57,0
87960,note_on,0,0,0,,,,,,,,,0,,74,0
87960,note_on,0,0,0,,,,,,,,,0,,66,100
87960,note_on,0,0,0,,,,,,,,,0,,73,100
87990,note_on,30,0,0,,,,,,,,,0,,66,0
87990,note_on,0,0,0,,,,,,,,,0,,61,100
88020,note_on,30,0,0,,,,,,,,,0,,61,0
88020,note_on,0,0,0,,,,,,,,,0,,73,0
88020,note_on,0,0,0,,,,,,,,,0,,54,100
88020,note_on,0,0,0,,,,,,,,,0,,78,100
88050,note_on,30,0,0,,,,,,,,,0,,54,0
88050,note_on,0,0,0,,,,,,,,,0,,57,100
88080,note_on,30,0,0,,,,,,,,,0,,57,0
88080,note_on,0,0,0,,,,,,,,,0,,61,100
88110,note_on,30,0,0,,,,,,,,,0,,61,0
88110,note_on,0,0,0,,,,,,,,,0,,78,0
88110,note_on,0,0,0,,,,,,,,,0,,57,100
88110,note_on,0,0,0,,,,,,,,,0,,80,100
88140,note_on,30,0,0,,,,,,,,,0,,80,0
88140,note_on,0,0,0,,,,,,,,,0,,57,0
88140,note_on,0,0,0,,,,,,,,,0,,66,100
88140,note_on,0,0,0,,,,,,,,,0,,81,100
88170,note_on,30,0,0,,,,,,,,,0,,66,0
88170,note_on,0,0,0,,,,,,,,,0,,61,100
88180,note_on,10,0,0,,,,,,,,,0,,42,0
88200,note_on,20,0,0,,,,,,,,,0,,61,0
88200,note_on,0,0,0,,,,,,,,,0,,81,0
88200,note_on,0,0,0,,,,,,,,,0,,49,100
88200,note_on,0,0,0,,,,,,,,,0,,53,100
88200,note_on,0,0,0,,,,,,,,,0,,73,100
88230,note_on,30,0,0,,,,,,,,,0,,53,0
88230,note_on,0,0,0,,,,,,,,,0,,56,100
88260,note_on,30,0,0,,,,,,,,,0,,56,0
88260,note_on,0,0,0,,,,,,,,,0,,61,100
88290,note_on,30,0,0,,,,,,,,,0,,61,0
88290,note_on,0,0,0,,,,,,,,,0,,56,100
88320,note_on,30,0,0,,,,,,,,,0,,56,0
88320,note_on,0,0,0,,,,,,,,,0,,65,100
88350,note_on,30,0,0,,,,,,,,,0,,65,0
88350,note_on,0,0,0,,,,,,,,,0,,61,100
88380,note_on,30,0,0,,,,,,,,,0,,61,0
88380,note_on,0,0,0,,,,,,,,,0,,73,0
88380,note_on,0,0,0,,,,,,,,,0,,53,100
88380,note_on,0,0,0,,,,,,,,,0,,71,100
88410,note_on,30,0,0,,,,,,,,,0,,53,0
88410,note_on,0,0,0,,,,,,,,,0,,56,100
88440,note_on,30,0,0,,,,,,,,,0,,56,0
88440,note_on,0,0,0,,,,,,,,,0,,61,100
88470,note_on,30,0,0,,,,,,,,,0,,61,0
88470,note_on,0,0,0,,,,,,,,,0,,71,0
88470,note_on,0,0,0,,,,,,,,,0,,56,100
88500,note_on,30,0,0,,,,,,,,,0,,56,0
88500,note_on,0,0,0,,,,,,,,,0,,65,100
88500,note_on,0,0,0,,,,,,,,,0,,71,100
88530,note_on,30,0,0,,,,,,,,,0,,65,0
88530,note_on,0,0,0,,,,,,,,,0,,61,100
88540,note_on,10,0,0,,,,,,,,,0,,49,0
88560,note_on,20,0,0,,,,,,,,,0,,61,0
88560,note_on,0,0,0,,,,,,,,,0,,71,0
88560,note_on,0,0,0,,,,,,,,,0,,37,100
88560,note_on,0,0,0,,,,,,,,,0,,49,100
88560,note_on,0,0,0,,,,,,,,,0,,80,100
88590,note_on,30,0,0,,,,,,,,,0,,49,0
88590,note_on,0,0,0,,,,,,,,,0,,56,100
88620,note_on,30,0,0,,,,,,,,,0,,56,0
88620,note_on,0,0,0,,,,,,,,,0,,61,100
88650,note_on,30,0,0,,,,,,,,,0,,61,0
88650,note_on,0,0,0,,,,,,,,,0,,56,100
88680,note_on,30,0,0,,,,,,,,,0,,56,0
88680,note_on,0,0,0,,,,,,,,,0,,80,0
88680,note_on,0,0,0,,,,,,,,,0,,53,100
88680,note_on,0,0,0,,,,,,,,,0,,78,100
88710,note_on,30,0,0,,,,,,,,,0,,53,0
88710,note_on,0,0,0,,,,,,,,,0,,59,100
88740,note_on,30,0,0,,,,,,,,,0,,59,0
88740,note_on,0,0,0,,,,,,,,,0,,78,0
88740,note_on,0,0,0,,,,,,,,,0,,49,100
88740,note_on,0,0,0,,,,,,,,,0,,77,100
88770,note_on,30,0,0,,,,,,,,,0,,49,0
88770,note_on,0,0,0,,,,,,,,,0,,56,100
88800,note_on,30,0,0,,,,,,,,,0,,56,0
88800,note_on,0,0,0,,,,,,,,,0,,61,100
88830,note_on,30,0,0,,,,,,,,,0,,61,0
88830,note_on,0,0,0,,,,,,,,,0,,77,0
88830,note_on,0,0,0,,,,,,,,,0,,56,100
88830,note_on,0,0,0,,,,,,,,,0,,78,100
88860,note_on,30,0,0,,,,,,,,,0,,78,0
88860,note_on,0,0,0,,,,,,,,,0,,56,0
88860,note_on,0,0,0,,,,,,,,,0,,65,100
88860,note_on,0,0,0,,,,,,,,,0,,80,100
88890,note_on,30,0,0,,,,,,,,,0,,65,0
88890,note_on,0,0,0,,,,,,,,,0,,59,100
88900,note_on,10,0,0,,,,,,,,,0,,37,0
88920,note_on,20,0,0,,,,,,,,,0,,59,0
88920,note_on,0,0,0,,,,,,,,,0,,80,0
88920,note_on,0,0,0,,,,,,,,,0,,42,100
88920,note_on,0,0,0,,,,,,,,,0,,49,100
88920,note_on,0,0,0,,,,,,,,,0,,69,100
88950,note_on,30,0,0,,,,,,,,,0,,49,0
88950,note_on,0,0,0,,,,,,,,,0,,57,100
88980,note_on,30,0,0,,,,,,,,,0,,57,0
88980,note_on,0,0,0,,,,,,,,,0,,54,100
89010,note_on,30,0,0,,,,,,,,,0,,54,0
89010,note_on,0,0,0,,,,,,,,,0,,61,100
89040,note_on,30,0,0,,,,,,,,,0,,61,0
89040,note_on,0,0,0,,,,,,,,,0,,69,0
89040,note_on,0,0,0,,,,,,,,,0,,66,100
89040,note_on,0,0,0,,,,,,,,,0,,68,100
89070,note_on,30,0,0,,,,,,,,,0,,66,0
89070,note_on,0,0,0,,,,,,,,,0,,61,100
89100,note_on,30,0,0,,,,,,,,,0,,61,0
89100,note_on,0,0,0,,,,,,,,,0,,68,0
89100,note_on,0,0,0,,,,,,,,,0,,57,100
89100,note_on,0,0,0,,,,,,,,,0,,66,100
89130,note_on,30,0,0,,,,,,,,,0,,57,0
89130,note_on,0,0,0,,,,,,,,,0,,61,100
89160,note_on,30,0,0,,,,,,,,,0,,61,0
89160,note_on,0,0,0,,,,,,,,,0,,54,100
89190,note_on,30,0,0,,,,,,,,,0,,54,0
89190,note_on,0,0,0,,,,,,,,,0,,66,0
89190,note_on,0,0,0,,,,,,,,,0,,61,100
89220,note_on,30,0,0,,,,,,,,,0,,61,0
89220,note_on,0,0,0,,,,,,,,,0,,66,100
89220,note_on,0,0,0,,,,,,,,,0,,73,100
89250,note_on,30,0,0,,,,,,,,,0,,66,0
89250,note_on,0,0,0,,,,,,,,,0,,57,100
89260,note_on,10,0,0,,,,,,,,,0,,42,0
89280,note_on,20,0,0,,,,,,,,,0,,57,0
89280,note_on,0,0,0,,,,,,,,,0,,73,0
89280,note_on,0,0,0,,,,,,,,,0,,44,100
89280,note_on,0,0,0,,,,,,,,,0,,59,100
89280,note_on,0,0,0,,,,,,,,,0,,74,100
89310,note_on,30,0,0,,,,,,,,,0,,59,0
89310,note_on,0,0,0,,,,,,,,,0,,62,100
89340,note_on,30,0,0,,,,,,,,,0,,62,0
89340,note_on,0,0,0,,,,,,,,,0,,74,0
89340,note_on,0,0,0,,,,,,,,,0,,53,100
89340,note_on,0,0,0,,,,,,,,,0,,71,100
89370,note_on,30,0,0,,,,,,,,,0,,53,0
89370,note_on,0,0,0,,,,,,,,,0,,56,100
89400,note_on,30,0,0,,,,,,,,,0,,56,0
89400,note_on,0,0,0,,,,,,,,,0,,71,0
89400,note_on,0,0,0,,,,,,,,,0,,59,100
89400,note_on,0,0,0,,,,,,,,,0,,68,100
89430,note_on,30,0,0,,,,,,,,,0,,59,0
89430,note_on,0,0,0,,,,,,,,,0,,50,100
89460,note_on,30,0,0,,,,,,,,,0,,50,0
89460,note_on,0,0,0,,,,,,,,,0,,68,0
89460,note_on,0,0,0,,,,,,,,,0,,53,100
89460,note_on,0,0,0,,,,,,,,,0,,65,100
89490,note_on,30,0,0,,,,,,,,,0,,53,0
89490,note_on,0,0,0,,,,,,,,,0,,56,100
89520,note_on,30,0,0,,,,,,,,,0,,56,0
89520,note_on,0,0,0,,,,,,,,,0,,47,100
89550,note_on,30,0,0,,,,,,,,,0,,47,0
89550,note_on,0,0,0,,,,,,,,,0,,65,0
89550,note_on,0,0,0,,,,,,,,,0,,50,100
89580,note_on,30,0,0,,,,,,,,,0,,50,0
89580,note_on,0,0,0,,,,,,,,,0,,49,100
89580,note_on,0,0,0,,,,,,,,,0,,74,100
89610,note_on,30,0,0,,,,,,,,,0,,49,0
89610,note_on,0,0,0,,,,,,,,,0,,47,100
89620,note_on,10,0,0,,,,,,,,,0,,44,0
89640,note_on,20,0,0,,,,,,,,,0,,47,0
89640,note_on,0,0,0,,,,,,,,,0,,74,0
89640,note_on,0,0,0,,,,,,,,,0,,42,100
89640,note_on,0,0,0,,,,,,,,,0,,45,100
89640,note_on,0,0,0,,,,,,,,,0,,73,100
89670,note_on,30,0,0,,,,,,,,,0,,45,0
89670,note_on,0,0,0,,,,,,,,,0,,54,100
89700,note_on,30,0,0,,,,,,,,,0,,54,0
89700,note_on,0,0,0,,,,,,,,,0,,73,0
89700,note_on,0,0,0,,,,,,,,,0,,57,100
89700,note_on,0,0,0,,,,,,,,,0,,69,100
89730,note_on,30,0,0,,,,,,,,,0,,57,0
89730,note_on,0,0,0,,,,,,,,,0,,61,100
89760,note_on,30,0,0,,,,,,,,,0,,61,0
89760,note_on,0,0,0,,,,,,,,,0,,69,0
89760,note_on,0,0,0,,,,,,,,,0,,42,0
89760,note_on,0,0,0,,,,,,,,,0,,37,100
89760,note_on,0,0,0,,,,,,,,,0,,53,100
89760,note_on,0,0,0,,,,,,,,,0,,77,100
89790,note_on,30,0,0,,,,,,,,,0,,53,0
89790,note_on,0,0,0,,,,,,,,,0,,56,100
89800,note_on,10,0,0,,,,,,,,,0,,37,0
89820,note_on,20,0,0,,,,,,,,,0,,56,0
89820,note_on,0,0,0,,,,,,,,,0,,77,0
89820,note_on,0,0,0,,,,,,,,,0,,37,100
89820,note_on,0,0,0,,,,,,,,,0,,59,100
89820,note_on,0,0,0,,,,,,,,,0,,78,100
89850,note_on,30,0,0,,,,,,,,,0,,59,0
89850,note_on,0,0,0,,,,,,,,,0,,47,100
89880,note_on,30,0,0,,,,,,,,,0,,47,0
89880,note_on,0,0,0,,,,,,,,,0,,78,0
89880,note_on,0,0,0,,,,,,,,,0,,73,100
89880,note_on,0,0,0,,,,,,,,,0,,53,100
89910,note_on,30,0,0,,,,,,,,,0,,53,0
89910,note_on,0,0,0,,,,,,,,,0,,56,100
89940,note_on,30,0,0,,,,,,,,,0,,56,0
89940,note_on,0,0,0,,,,,,,,,0,,73,0
89940,note_on,0,0,0,,,,,,,,,0,,80,100
89940,note_on,0,0,0,,,,,,,,,0,,61,100
89970,note_on,30,0,0,,,,,,,,,0,,61,0
89970,note_on,0,0,0,,,,,,,,,0,,59,100
89990,note_on,20,0,0,,,,,,,,,0,,37,0
90000,note_on,10,0,0,,,,,,,,,0,,59,0
90000,note_on,0,0,0,,,,,,,,,0,,80,0
90000,note_on,0,0,0,,,,,,,,,0,,42,100
90000,note_on,0,0,0,,,,,,,,,0,,81,100
90000,note_on,0,0,0,,,,,,,,,0,,45,100
90030,note_on,30,0,0,,,,,,,,,0,,45,0
90030,note_on,0,0,0,,,,,,,,,0,,54,100
90060,note_on,30,0,0,,,,,,,,,0,,54,0
90060,note_on,0,0,0,,,,,,,,,0,,57,100
90090,note_on,30,0,0,,,,,,,,,0,,57,0
90090,note_on,0,0,0,,,,,,,,,0,,81,0
90090,note_on,0,0,0,,,,,,,,,0,,61,100
90090,note_on,0,0,0,,,,,,,,,0,,80,100
90120,note_on,30,0,0,,,,,,,,,0,,80,0
90120,note_on,0,0,0,,,,,,,,,0,,61,0
90120,note_on,0,0,0,,,,,,,,,0,,42,0
90120,note_on,0,0,0,,,,,,,,,0,,56,100
90120,note_on,0,0,0,,,,,,,,,0,,78,100
90120,note_on,0,0,0,,,,,,,,,0,,37,100
90150,note_on,30,0,0,,,,,,,,,0,,56,0
90150,note_on,0,0,0,,,,,,,,,0,,49,100
90160,note_on,10,0,0,,,,,,,,,0,,37,0
90180,note_on,20,0,0,,,,,,,,,0,,49,0
90180,note_on,0,0,0,,,,,,,,,0,,78,0
90180,note_on,0,0,0,,,,,,,,,0,,37,100
90180,note_on,0,0,0,,,,,,,,,0,,54,100
90180,note_on,0,0,0,,,,,,,,,0,,73,100
90210,note_on,30,0,0,,,,,,,,,0,,54,0
90210,note_on,0,0,0,,,,,,,,,0,,57,100
90240,note_on,30,0,0,,,,,,,,,0,,57,0
90240,note_on,0,0,0,,,,,,,,,0,,73,0
90240,note_on,0,0,0,,,,,,,,,0,,62,100
90240,note_on,0,0,0,,,,,,,,,0,,78,100
90270,note_on,30,0,0,,,,,,,,,0,,62,0
90270,note_on,0,0,0,,,,,,,,,0,,59,100
90300,note_on,30,0,0,,,,,,,,,0,,59,0
90300,note_on,0,0,0,,,,,,,,,0,,78,0
90300,note_on,0,0,0,,,,,,,,,0,,61,100
90300,note_on,0,0,0,,,,,,,,,0,,77,100
90330,note_on,30,0,0,,,,,,,,,0,,61,0
90330,note_on,0,0,0,,,,,,,,,0,,49,100
90350,note_on,20,0,0,,,,,,,,,0,,37,0
90360,note_on,10,0,0,,,,,,,,,0,,49,0
90360,note_on,0,0,0,,,,,,,,,0,,77,0
90360,note_on,0,0,0,,,,,,,,,0,,42,100
90360,note_on,0,0,0,,,,,,,,,0,,54,100
90360,note_on,0,0,0,,,,,,,,,0,,78,100
90390,note_on,30,0,0,,,,,,,,,0,,54,0
90390,note_on,0,0,0,,,,,,,,,0,,57,100
90420,note_on,30,0,0,,,,,,,,,0,,57,0
90420,note_on,0,0,0,,,,,,,,,0,,61,100
90450,note_on,30,0,0,,,,,,,,,0,,61,0
90450,note_on,0,0,0,,,,,,,,,0,,57,100
90480,note_on,30,0,0,,,,,,,,,0,,57,0
90480,note_on,0,0,0,,,,,,,,,0,,66,100
90510,note_on,30,0,0,,,,,,,,,0,,66,0
90510,note_on,0,0,0,,,,,,,,,0,,78,0
90510,note_on,0,0,0,,,,,,,,,0,,61,100
90540,note_on,30,0,0,,,,,,,,,0,,61,0
90540,note_on,0,0,0,,,,,,,,,0,,54,100
90540,note_on,0,0,0,,,,,,,,,0,,78,100
90570,note_on,30,0,0,,,,,,,,,0,,54,0
90570,note_on,0,0,0,,,,,,,,,0,,57,100
90600,note_on,30,0,0,,,,,,,,,0,,57,0
90600,note_on,0,0,0,,,,,,,,,0,,61,100
90630,note_on,30,0,0,,,,,,,,,0,,61,0
90630,note_on,0,0,0,,,,,,,,,0,,78,0
90630,note_on,0,0,0,,,,,,,,,0,,57,100
90660,note_on,30,0,0,,,,,,,,,0,,57,0
90660,note_on,0,0,0,,,,,,,,,0,,54,100
90660,note_on,0,0,0,,,,,,,,,0,,66,100
90690,note_on,30,0,0,,,,,,,,,0,,54,0
90690,note_on,0,0,0,,,,,,,,,0,,49,100
90710,note_on,20,0,0,,,,,,,,,0,,42,0
90720,note_on,10,0,0,,,,,,,,,0,,49,0
90720,note_on,0,0,0,,,,,,,,,0,,66,0
90720,note_on,0,0,0,,,,,,,,,0,,42,100
90720,note_on,0,0,0,,,,,,,,,0,,54,100
90720,note_on,0,0,0,,,,,,,,,0,,73,100
90750,note_on,30,0,0,,,,,,,,,0,,54,0
90750,note_on,0,0,0,,,,,,,,,0,,57,100
90780,note_on,30,0,0,,,,,,,,,0,,57,0
90780,note_on,0,0,0,,,,,,,,,0,,61,100
90810,note_on,30,0,0,,,,,,,,,0,,61,0
90810,note_on,0,0,0,,,,,,,,,0,,73,0
90810,note_on,0,0,0,,,,,,,,,0,,74,100
90810,note_on,0,0,0,,,,,,,,,0,,57,100
90840,note_on,30,0,0,,,,,,,,,0,,57,0
90840,note_on,0,0,0,,,,,,,,,0,,74,0
90840,note_on,0,0,0,,,,,,,,,0,,66,100
90840,note_on,0,0,0,,,,,,,,,0,,73,100
90870,note_on,30,0,0,,,,,,,,,0,,66,0
90870,note_on,0,0,0,,,,,,,,,0,,61,100
90900,note_on,30,0,0,,,,,,,,,0,,61,0
90900,note_on,0,0,0,,,,,,,,,0,,73,0
90900,note_on,0,0,0,,,,,,,,,0,,54,100
90900,note_on,0,0,0,,,,,,,,,0,,78,100
90930,note_on,30,0,0,,,,,,,,,0,,54,0
90930,note_on,0,0,0,,,,,,,,,0,,57,100
90960,note_on,30,0,0,,,,,,,,,0,,57,0
90960,note_on,0,0,0,,,,,,,,,0,,61,100
90990,note_on,30,0,0,,,,,,,,,0,,61,0
90990,note_on,0,0,0,,,,,,,,,0,,78,0
90990,note_on,0,0,0,,,,,,,,,0,,57,100
90990,note_on,0,0,0,,,,,,,,,0,,80,100
91020,note_on,30,0,0,,,,,,,,,0,,80,0
91020,note_on,0,0,0,,,,,,,,,0,,57,0
91020,note_on,0,0,0,,,,,,,,,0,,66,100
91020,note_on,0,0,0,,,,,,,,,0,,81,100
91050,note_on,30,0,0,,,,,,,,,0,,66,0
91050,note_on,0,0,0,,,,,,,,,0,,61,100
91060,note_on,10,0,0,,,,,,,,,0,,42,0
91080,note_on,20,0,0,,,,,,,,,0,,61,0
91080,note_on,0,0,0,,,,,,,,,0,,81,0
91080,note_on,0,0,0,,,,,,,,,0,,49,100
91080,note_on,0,0,0,,,,,,,,,0,,53,100
91080,note_on,0,0,0,,,,,,,,,0,,73,100
91110,note_on,30,0,0,,,,,,,,,0,,53,0
91110,note_on,0,0,0,,,,,,,,,0,,56,100
91140,note_on,30,0,0,,,,,,,,,0,,56,0
91140,note_on,0,0,0,,,,,,,,,0,,61,100
91170,note_on,30,0,0,,,,,,,,,0,,61,0
91170,note_on,0,0,0,,,,,,,,,0,,56,100
91200,note_on,30,0,0,,,,,,,,,0,,56,0
91200,note_on,0,0,0,,,,,,,,,0,,65,100
91230,note_on,30,0,0,,,,,,,,,0,,65,0
91230,note_on,0,0,0,,,,,,,,,0,,61,100
91260,note_on,30,0,0,,,,,,,,,0,,61,0
91260,note_on,0,0,0,,,,,,,,,0,,73,0
91260,note_on,0,0,0,,,,,,,,,0,,53,100
91260,note_on,0,0,0,,,,,,,,,0,,71,100
91290,note_on,30,0,0,,,,,,,,,0,,53,0
91290,note_on,0,0,0,,,,,,,,,0,,56,100
91320,note_on,30,0,0,,,,,,,,,0,,56,0
91320,note_on,0,0,0,,,,,,,,,0,,61,100
91350,note_on,30,0,0,,,,,,,,,0,,61,0
91350,note_on,0,0,0,,,,,,,,,0,,71,0
91350,note_on,0,0,0,,,,,,,,,0,,56,100
91380,note_on,30,0,0,,,,,,,,,0,,56,0
91380,note_on,0,0,0,,,,,,,,,0,,65,100
91380,note_on,0,0,0,,,,,,,,,0,,71,100
91410,note_on,30,0,0,,,,,,,,,0,,65,0
91410,note_on,0,0,0,,,,,,,,,0,,61,100
91420,note_on,10,0,0,,,,,,,,,0,,49,0
91440,note_on,20,0,0,,,,,,,,,0,,61,0
91440,note_on,0,0,0,,,,,,,,,0,,71,0
91440,note_on,0,0,0,,,,,,,,,0,,37,100
91440,note_on,0,0,0,,,,,,,,,0,,49,100
91440,note_on,0,0,0,,,,,,,,,0,,80,100
91470,note_on,30,0,0,,,,,,,,,0,,49,0
91470,note_on,0,0,0,,,,,,,,,0,,56,100
91500,note_on,30,0,0,,,,,,,,,0,,56,0
91500,note_on,0,0,0,,,,,,,,,0,,61,100
91530,note_on,30,0,0,,,,,,,,,0,,61,0
91530,note_on,0,0,0,,,,,,,,,0,,56,100
91560,note_on,30,0,0,,,,,,,,,0,,56,0
91560,note_on,0,0,0,,,,,,,,,0,,80,0
91560,note_on,0,0,0,,,,,,,,,0,,53,100
91560,note_on,0,0,0,,,,,,,,,0,,78,100
91590,note_on,30,0,0,,,,,,,,,0,,53,0
91590,note_on,0,0,0,,,,,,,,,0,,59,100
91620,note_on,30,0,0,,,,,,,,,0,,59,0
91620,note_on,0,0,0,,,,,,,,,0,,78,0
91620,note_on,0,0,0,,,,,,,,,0,,49,100
91620,note_on,0,0,0,,,,,,,,,0,,77,100
91650,note_on,30,0,0,,,,,,,,,0,,49,0
91650,note_on,0,0,0,,,,,,,,,0,,56,100
91680,note_on,30,0,0,,,,,,,,,0,,56,0
91680,note_on,0,0,0,,,,,,,,,0,,61,100
91710,note_on,30,0,0,,,,,,,,,0,,61,0
91710,note_on,0,0,0,,,,,,,,,0,,77,0
91710,note_on,0,0,0,,,,,,,,,0,,56,100
91710,note_on,0,0,0,,,,,,,,,0,,78,100
91740,note_on,30,0,0,,,,,,,,,0,,78,0
91740,note_on,0,0,0,,,,,,,,,0,,56,0
91740,note_on,0,0,0,,,,,,,,,0,,65,100
91740,note_on,0,0,0,,,,,,,,,0,,80,100
91770,note_on,30,0,0,,,,,,,,,0,,65,0
91770,note_on,0,0,0,,,,,,,,,0,,59,100
91780,note_on,10,0,0,,,,,,,,,0,,37,0
91800,note_on,20,0,0,,,,,,,,,0,,59,0
91800,note_on,0,0,0,,,,,,,,,0,,80,0
91800,note_on,0,0,0,,,,,,,,,0,,42,100
91800,note_on,0,0,0,,,,,,,,,0,,49,100
91800,note_on,0,0,0,,,,,,,,,0,,69,100
91830,note_on,30,0,0,,,,,,,,,0,,49,0
91830,note_on,0,0,0,,,,,,,,,0,,57,100
91860,note_on,30,0,0,,,,,,,,,0,,57,0
91860,note_on,0,0,0,,,,,,,,,0,,54,100
91890,note_on,30,0,0,,,,,,,,,0,,54,0
91890,note_on,0,0,0,,,,,,,,,0,,61,100
91920,note_on,30,0,0,,,,,,,,,0,,61,0
91920,note_on,0,0,0,,,,,,,,,0,,69,0
91920,note_on,0,0,0,,,,,,,,,0,,66,100
91920,note_on,0,0,0,,,,,,,,,0,,68,100
91950,note_on,30,0,0,,,,,,,,,0,,66,0
91950,note_on,0,0,0,,,,,,,,,0,,61,100
91980,note_on,30,0,0,,,,,,,,,0,,61,0
91980,note_on,0,0,0,,,,,,,,,0,,68,0
91980,note_on,0,0,0,,,,,,,,,0,,57,100
91980,note_on,0,0,0,,,,,,,,,0,,66,100
92010,note_on,30,0,0,,,,,,,,,0,,57,0
92010,note_on,0,0,0,,,,,,,,,0,,61,100
92040,note_on,30,0,0,,,,,,,,,0,,61,0
92040,note_on,0,0,0,,,,,,,,,0,,54,100
92070,note_on,30,0,0,,,,,,,,,0,,54,0
92070,note_on,0,0,0,,,,,,,,,0,,66,0
92070,note_on,0,0,0,,,,,,,,,0,,61,100
92100,note_on,30,0,0,,,,,,,,,0,,61,0
92100,note_on,0,0,0,,,,,,,,,0,,66,100
92100,note_on,0,0,0,,,,,,,,,0,,73,100
92130,note_on,30,0,0,,,,,,,,,0,,66,0
92130,note_on,0,0,0,,,,,,,,,0,,57,100
92140,note_on,10,0,0,,,,,,,,,0,,42,0
92160,note_on,20,0,0,,,,,,,,,0,,57,0
92160,note_on,0,0,0,,,,,,,,,0,,73,0
92160,note_on,0,0,0,,,,,,,,,0,,44,100
92160,note_on,0,0,0,,,,,,,,,0,,59,100
92160,note_on,0,0,0,,,,,,,,,0,,74,100
92190,note_on,30,0,0,,,,,,,,,0,,59,0
92190,note_on,0,0,0,,,,,,,,,0,,62,100
92220,note_on,30,0,0,,,,,,,,,0,,62,0
92220,note_on,0,0,0,,,,,,,,,0,,74,0
92220,note_on,0,0,0,,,,,,,,,0,,53,100
92220,note_on,0,0,0,,,,,,,,,0,,71,100
92250,note_on,30,0,0,,,,,,,,,0,,53,0
92250,note_on,0,0,0,,,,,,,,,0,,56,100
92280,note_on,30,0,0,,,,,,,,,0,,56,0
92280,note_on,0,0,0,,,,,,,,,0,,71,0
92280,note_on,0,0,0,,,,,,,,,0,,59,100
92280,note_on,0,0,0,,,,,,,,,0,,68,100
92310,note_on,30,0,0,,,,,,,,,0,,59,0
92310,note_on,0,0,0,,,,,,,,,0,,50,100
92340,note_on,30,0,0,,,,,,,,,0,,50,0
92340,note_on,0,0,0,,,,,,,,,0,,68,0
92340,note_on,0,0,0,,,,,,,,,0,,53,100
92340,note_on,0,0,0,,,,,,,,,0,,65,100
92370,note_on,30,0,0,,,,,,,,,0,,53,0
92370,note_on,0,0,0,,,,,,,,,0,,56,100
92400,note_on,30,0,0,,,,,,,,,0,,56,0
92400,note_on,0,0,0,,,,,,,,,0,,47,100
92430,note_on,30,0,0,,,,,,,,,0,,47,0
92430,note_on,0,0,0,,,,,,,,,0,,65,0
92430,note_on,0,0,0,,,,,,,,,0,,50,100
92460,note_on,30,0,0,,,,,,,,,0,,50,0
92460,note_on,0,0,0,,,,,,,,,0,,49,100
92460,note_on,0,0,0,,,,,,,,,0,,74,100
92490,note_on,30,0,0,,,,,,,,,0,,49,0
92490,note_on,0,0,0,,,,,,,,,0,,47,100
92500,note_on,10,0,0,,,,,,,,,0,,44,0
92520,note_on,20,0,0,,,,,,,,,0,,47,0
92520,note_on,0,0,0,,,,,,,,,0,,74,0
92520,note_on,0,0,0,,,,,,,,,0,,42,100
92520,note_on,0,0,0,,,,,,,,,0,,45,100
92520,note_on,0,0,0,,,,,,,,,0,,73,100
92550,note_on,30,0,0,,,,,,,,,0,,45,0
92550,note_on,0,0,0,,,,,,,,,0,,54,100
92580,note_on,30,0,0,,,,,,,,,0,,54,0
92580,note_on,0,0,0,,,,,,,,,0,,73,0
92580,note_on,0,0,0,,,,,,,,,0,,57,100
92580,note_on,0,0,0,,,,,,,,,0,,69,100
92610,note_on,30,0,0,,,,,,,,,0,,57,0
92610,note_on,0,0,0,,,,,,,,,0,,61,100
92640,note_on,30,0,0,,,,,,,,,0,,61,0
92640,note_on,0,0,0,,,,,,,,,0,,69,0
92640,note_on,0,0,0,,,,,,,,,0,,42,0
92640,note_on,0,0,0,,,,,,,,,0,,37,100
92640,note_on,0,0,0,,,,,,,,,0,,53,100
92640,note_on,0,0,0,,,,,,,,,0,,77,100
92670,note_on,30,0,0,,,,,,,,,0,,53,0
92670,note_on,0,0,0,,,,,,,,,0,,56,100
92680,note_on,10,0,0,,,,,,,,,0,,37,0
92700,note_on,20,0,0,,,,,,,,,0,,56,0
92700,note_on,0,0,0,,,,,,,,,0,,77,0
92700,note_on,0,0,0,,,,,,,,,0,,37,100
92700,note_on,0,0,0,,,,,,,,,0,,61,100
92700,note_on,0,0,0,,,,,,,,,0,,78,100
92730,note_on,30,0,0,,,,,,,,,0,,61,0
92730,note_on,0,0,0,,,,,,,,,0,,47,100
92760,note_on,30,0,0,,,,,,,,,0,,47,0
92760,note_on,0,0,0,,,,,,,,,0,,78,0
92760,note_on,0,0,0,,,,,,,,,0,,73,100
92760,note_on,0,0,0,,,,,,,,,0,,53,100
92790,note_on,30,0,0,,,,,,,,,0,,53,0
92790,note_on,0,0,0,,,,,,,,,0,,56,100
92820,note_on,30,0,0,,,,,,,,,0,,56,0
92820,note_on,0,0,0,,,,,,,,,0,,73,0
92820,note_on,0,0,0,,,,,,,,,0,,80,100
92820,note_on,0,0,0,,,,,,,,,0,,61,100
92850,note_on,30,0,0,,,,,,,,,0,,61,0
92850,note_on,0,0,0,,,,,,,,,0,,59,100
92860,note_on,10,0,0,,,,,,,,,0,,37,0
92880,note_on,20,0,0,,,,,,,,,0,,59,0
92880,note_on,0,0,0,,,,,,,,,0,,80,0
92880,note_on,0,0,0,,,,,,,,,0,,42,100
92880,note_on,0,0,0,,,,,,,,,0,,81,100
92880,note_on,0,0,0,,,,,,,,,0,,45,100
92910,note_on,30,0,0,,,,,,,,,0,,45,0
92910,note_on,0,0,0,,,,,,,,,0,,54,100
92940,note_on,30,0,0,,,,,,,,,0,,54,0
92940,note_on,0,0,0,,,,,,,,,0,,57,100
92970,note_on,30,0,0,,,,,,,,,0,,57,0
92970,note_on,0,0,0,,,,,,,,,0,,81,0
92970,note_on,0,0,0,,,,,,,,,0,,61,100
92970,note_on,0,0,0,,,,,,,,,0,,80,100
93000,note_on,30,0,0,,,,,,,,,0,,80,0
93000,note_on,0,0,0,,,,,,,,,0,,61,0
93000,note_on,0,0,0,,,,,,,,,0,,42,0
93000,note_on,0,0,0,,,,,,,,,0,,37,100
93000,note_on,0,0,0,,,,,,,,,0,,56,100
93000,note_on,0,0,0,,,,,,,,,0,,78,100
93030,note_on,30,0,0,,,,,,,,,0,,56,0
93030,note_on,0,0,0,,,,,,,,,0,,49,100
93040,note_on,10,0,0,,,,,,,,,0,,37,0
93060,note_on,20,0,0,,,,,,,,,0,,49,0
93060,note_on,0,0,0,,,,,,,,,0,,78,0
93060,note_on,0,0,0,,,,,,,,,0,,37,100
93060,note_on,0,0,0,,,,,,,,,0,,54,100
93060,note_on,0,0,0,,,,,,,,,0,,73,100
93090,note_on,30,0,0,,,,,,,,,0,,54,0
93090,note_on,0,0,0,,,,,,,,,0,,57,100
93120,note_on,30,0,0,,,,,,,,,0,,57,0
93120,note_on,0,0,0,,,,,,,,,0,,73,0
93120,note_on,0,0,0,,,,,,,,,0,,62,100
93120,note_on,0,0,0,,,,,,,,,0,,78,100
93150,note_on,30,0,0,,,,,,,,,0,,62,0
93150,note_on,0,0,0,,,,,,,,,0,,59,100
93180,note_on,30,0,0,,,,,,,,,0,,59,0
93180,note_on,0,0,0,,,,,,,,,0,,78,0
93180,note_on,0,0,0,,,,,,,,,0,,61,100
93180,note_on,0,0,0,,,,,,,,,0,,77,100
93210,note_on,30,0,0,,,,,,,,,0,,61,0
93210,note_on,0,0,0,,,,,,,,,0,,49,100
93220,note_on,10,0,0,,,,,,,,,0,,37,0
93240,note_on,20,0,0,,,,,,,,,0,,49,0
93240,note_on,0,0,0,,,,,,,,,0,,77,0
93240,note_on,0,0,0,,,,,,,,,0,,42,100
93240,note_on,0,0,0,,,,,,,,,0,,54,100
93240,note_on,0,0,0,,,,,,,,,0,,78,100
93270,note_on,30,0,0,,,,,,,,,0,,54,0
93270,note_on,0,0,0,,,,,,,,,0,,57,100
93300,note_on,30,0,0,,,,,,,,,0,,57,0
93300,note_on,0,0,0,,,,,,,,,0,,61,100
93330,note_on,30,0,0,,,,,,,,,0,,61,0
93330,note_on,0,0,0,,,,,,,,,0,,57,100
93360,note_on,30,0,0,,,,,,,,,0,,57,0
93360,note_on,0,0,0,,,,,,,,,0,,66,100
93390,note_on,30,0,0,,,,,,,,,0,,66,0
93390,note_on,0,0,0,,,,,,,,,0,,78,0
93390,note_on,0,0,0,,,,,,,,,0,,61,100
93420,note_on,30,0,0,,,,,,,,,0,,61,0
93420,note_on,0,0,0,,,,,,,,,0,,54,100
93420,note_on,0,0,0,,,,,,,,,0,,78,100
93450,note_on,30,0,0,,,,,,,,,0,,54,0
93450,note_on,0,0,0,,,,,,,,,0,,57,100
93480,note_on,30,0,0,,,,,,,,,0,,57,0
93480,note_on,0,0,0,,,,,,,,,0,,61,100
93510,note_on,30,0,0,,,,,,,,,0,,61,0
93510,note_on,0,0,0,,,,,,,,,0,,78,0
93510,note_on,0,0,0,,,,,,,,,0,,57,100
93520,note_on,10,0,0,,,,,,,,,0,,42,0
93540,note_on,20,0,0,,,,,,,,,0,,57,0
93540,note_on,0,0,0,,,,,,,,,0,,40,100
93540,note_on,0,0,0,,,,,,,,,0,,49,100
93540,note_on,0,0,0,,,,,,,,,0,,76,100
93570,note_on,30,0,0,,,,,,,,,0,,49,0
93570,note_on,0,0,0,,,,,,,,,0,,50,100
93600,note_on,30,0,0,,,,,,,,,0,,50,0
93600,note_on,0,0,0,,,,,,,,,0,,76,0
93600,note_on,0,0,0,,,,,,,,,0,,40,0
93600,note_on,0,0,0,,,,,,,,,0,,45,100
93600,note_on,0,0,0,,,,,,,,,0,,52,100
93600,note_on,0,0,0,,,,,,,,,0,,73,100
93630,note_on,30,0,0,,,,,,,,,0,,52,0
93630,note_on,0,0,0,,,,,,,,,0,,57,100
93660,note_on,30,0,0,,,,,,,,,0,,57,0
93660,note_on,0,0,0,,,,,,,,,0,,61,100
93690,note_on,30,0,0,,,,,,,,,0,,61,0
93690,note_on,0,0,0,,,,,,,,,0,,73,0
93690,note_on,0,0,0,,,,,,,,,0,,57,100
93690,note_on,0,0,0,,,,,,,,,0,,74,100
93720,note_on,30,0,0,,,,,,,,,0,,74,0
93720,note_on,0,0,0,,,,,,,,,0,,57,0
93720,note_on,0,0,0,,,,,,,,,0,,64,100
93720,note_on,0,0,0,,,,,,,,,0,,76,100
93750,note_on,30,0,0,,,,,,,,,0,,64,0
93750,note_on,0,0,0,,,,,,,,,0,,61,100
93780,note_on,30,0,0,,,,,,,,,0,,61,0
93780,note_on,0,0,0,,,,,,,,,0,,76,0
93780,note_on,0,0,0,,,,,,,,,0,,52,100
93780,note_on,0,0,0,,,,,,,,,0,,69,100
93810,note_on,30,0,0,,,,,,,,,0,,52,0
93810,note_on,0,0,0,,,,,,,,,0,,57,100
93840,note_on,30,0,0,,,,,,,,,0,,57,0
93840,note_on,0,0,0,,,,,,,,,0,,69,0
93840,note_on,0,0,0,,,,,,,,,0,,61,100
93840,note_on,0,0,0,,,,,,,,,0,,64,100
93870,note_on,30,0,0,,,,,,,,,0,,61,0
93870,note_on,0,0,0,,,,,,,,,0,,57,100
93900,note_on,30,0,0,,,,,,,,,0,,57,0
93900,note_on,0,0,0,,,,,,,,,0,,64,0
93900,note_on,0,0,0,,,,,,,,,0,,59,100
93900,note_on,0,0,0,,,,,,,,,0,,74,100
93930,note_on,30,0,0,,,,,,,,,0,,59,0
93930,note_on,0,0,0,,,,,,,,,0,,62,100
93940,note_on,10,0,0,,,,,,,,,0,,45,0
93960,note_on,20,0,0,,,,,,,,,0,,62,0
93960,note_on,0,0,0,,,,,,,,,0,,74,0
93960,note_on,0,0,0,,,,,,,,,0,,45,100
93960,note_on,0,0,0,,,,,,,,,0,,57,100
93960,note_on,0,0,0,,,,,,,,,0,,73,100
93990,note_on,30,0,0,,,,,,,,,0,,73,0
93990,note_on,0,0,0,,,,,,,,,0,,57,0
93990,note_on,0,0,0,,,,,,,,,0,,52,100
93990,note_on,0,0,0,,,,,,,,,0,,71,100
94020,note_on,30,0,0,,,,,,,,,0,,71,0
94020,note_on,0,0,0,,,,,,,,,0,,52,0
94020,note_on,0,0,0,,,,,,,,,0,,49,100
94020,note_on,0,0,0,,,,,,,,,0,,69,100
94050,note_on,30,0,0,,,,,,,,,0,,69,0
94050,note_on,0,0,0,,,,,,,,,0,,49,0
94050,note_on,0,0,0,,,,,,,,,0,,71,100
94050,note_on,0,0,0,,,,,,,,,0,,52,100
94080,note_on,30,0,0,,,,,,,,,0,,52,0
94080,note_on,0,0,0,,,,,,,,,0,,71,0
94080,note_on,0,0,0,,,,,,,,,0,,57,100
94080,note_on,0,0,0,,,,,,,,,0,,73,100
94110,note_on,30,0,0,,,,,,,,,0,,73,0
94110,note_on,0,0,0,,,,,,,,,0,,57,0
94110,note_on,0,0,0,,,,,,,,,0,,54,100
94110,note_on,0,0,0,,,,,,,,,0,,75,100
94130,note_on,20,0,0,,,,,,,,,0,,45,0
94140,note_on,10,0,0,,,,,,,,,0,,75,0
94140,note_on,0,0,0,,,,,,,,,0,,54,0
94140,note_on,0,0,0,,,,,,,,,0,,40,100
94140,note_on,0,0,0,,,,,,,,,0,,76,100
94140,note_on,0,0,0,,,,,,,,,0,,47,100
94170,note_on,30,0,0,,,,,,,,,0,,47,0
94170,note_on,0,0,0,,,,,,,,,0,,56,100
94200,note_on,30,0,0,,,,,,,,,0,,56,0
94200,note_on,0,0,0,,,,,,,,,0,,76,0
94200,note_on,0,0,0,,,,,,,,,0,,52,100
94200,note_on,0,0,0,,,,,,,,,0,,64,100
94230,note_on,30,0,0,,,,,,,,,0,,52,0
94230,note_on,0,0,0,,,,,,,,,0,,59,100
94260,note_on,30,0,0,,,,,,,,,0,,59,0
94260,note_on,0,0,0,,,,,,,,,0,,64,0
94260,note_on,0,0,0,,,,,,,,,0,,61,100
94260,note_on,0,0,0,,,,,,,,,0,,76,100
94290,note_on,30,0,0,,,,,,,,,0,,61,0
94290,note_on,0,0,0,,,,,,,,,0,,59,100
94310,note_on,20,0,0,,,,,,,,,0,,40,0
94320,note_on,10,0,0,,,,,,,,,0,,59,0
94320,note_on,0,0,0,,,,,,,,,0,,76,0
94320,note_on,0,0,0,,,,,,,,,0,,38,100
94320,note_on,0,0,0,,,,,,,,,0,,50,100
94320,note_on,0,0,0,,,,,,,,,0,,78,100
94350,note_on,30,0,0,,,,,,,,,0,,50,0
94350,note_on,0,0,0,,,,,,,,,0,,59,100
94380,note_on,30,0,0,,,,,,,,,0,,59,0
94380,note_on,0,0,0,,,,,,,,,0,,56,100
94410,note_on,30,0,0,,,,,,,,,0,,56,0
94410,note_on,0,0,0,,,,,,,,,0,,78,0
94410,note_on,0,0,0,,,,,,,,,0,,76,100
94410,note_on,0,0,0,,,,,,,,,0,,64,100
94440,note_on,30,0,0,,,,,,,,,0,,64,0
94440,note_on,0,0,0,,,,,,,,,0,,76,0
94440,note_on,0,0,0,,,,,,,,,0,,74,100
94440,note_on,0,0,0,,,,,,,,,0,,59,100
94470,note_on,30,0,0,,,,,,,,,0,,59,0
94470,note_on,0,0,0,,,,,,,,,0,,56,100
94490,note_on,20,0,0,,,,,,,,,0,,38,0
94500,note_on,10,0,0,,,,,,,,,0,,56,0
94500,note_on,0,0,0,,,,,,,,,0,,74,0
94500,note_on,0,0,0,,,,,,,,,0,,40,100
94500,note_on,0,0,0,,,,,,,,,0,,52,100
94500,note_on,0,0,0,,,,,,,,,0,,73,100
94530,note_on,30,0,0,,,,,,,,,0,,52,0
94530,note_on,0,0,0,,,,,,,,,0,,57,100
94560,note_on,30,0,0,,,,,,,,,0,,57,0
94560,note_on,0,0,0,,,,,,,,,0,,73,0
94560,note_on,0,0,0,,,,,,,,,0,,66,100
94560,note_on,0,0,0,,,,,,,,,0,,74,100
94590,note_on,30,0,0,,,,,,,,,0,,66,0
94590,note_on,0,0,0,,,,,,,,,0,,62,100
94620,note_on,30,0,0,,,,,,,,,0,,62,0
94620,note_on,0,0,0,,,,,,,,,0,,74,0
94620,note_on,0,0,0,,,,,,,,,0,,56,100
94620,note_on,0,0,0,,,,,,,,,0,,76,100
94650,note_on,30,0,0,,,,,,,,,0,,56,0
94650,note_on,0,0,0,,,,,,,,,0,,62,100
94670,note_on,20,0,0,,,,,,,,,0,,40,0
94680,note_on,10,0,0,,,,,,,,,0,,62,0
94680,note_on,0,0,0,,,,,,,,,0,,76,0
94680,note_on,0,0,0,,,,,,,,,0,,38,100
94680,note_on,0,0,0,,,,,,,,,0,,52,100
94680,note_on,0,0,0,,,,,,,,,0,,78,100
94710,note_on,30,0,0,,,,,,,,,0,,52,0
94710,note_on,0,0,0,,,,,,,,,0,,59,100
94740,note_on,30,0,0,,,,,,,,,0,,59,0
94740,note_on,0,0,0,,,,,,,,,0,,78,0
94740,note_on,0,0,0,,,,,,,,,0,,62,100
94740,note_on,0,0,0,,,,,,,,,0,,76,100
94770,note_on,30,0,0,,,,,,,,,0,,76,0
94770,note_on,0,0,0,,,,,,,,,0,,62,0
94770,note_on,0,0,0,,,,,,,,,0,,59,100
94770,note_on,0,0,0,,,,,,,,,0,,74,100
94800,note_on,30,0,0,,,,,,,,,0,,74,0
94800,note_on,0,0,0,,,,,,,,,0,,59,0
94800,note_on,0,0,0,,,,,,,,,0,,68,100
94800,note_on,0,0,0,,,,,,,,,0,,73,100
94830,note_on,30,0,0,,,,,,,,,0,,73,0
94830,note_on,0,0,0,,,,,,,,,0,,68,0
94830,note_on,0,0,0,,,,,,,,,0,,62,100
94830,note_on,0,0,0,,,,,,,,,0,,71,100
94850,note_on,20,0,0,,,,,,,,,0,,38,0
94860,note_on,10,0,0,,,,,,,,,0,,71,0
94860,note_on,0,0,0,,,,,,,,,0,,62,0
94860,note_on,0,0,0,,,,,,,,,0,,33,100
94860,note_on,0,0,0,,,,,,,,,0,,45,100
94860,note_on,0,0,0,,,,,,,,,0,,73,100
94890,note_on,30,0,0,,,,,,,,,0,,45,0
94890,note_on,0,0,0,,,,,,,,,0,,52,100
94920,note_on,30,0,0,,,,,,,,,0,,52,0
94920,note_on,0,0,0,,,,,,,,,0,,61,100
94950,note_on,30,0,0,,,,,,,,,0,,61,0
94950,note_on,0,0,0,,,,,,,,,0,,73,0
94950,note_on,0,0,0,,,,,,,,,0,,57,100
94950,note_on,0,0,0,,,,,,,,,0,,74,100
94980,note_on,30,0,0,,,,,,,,,0,,74,0
94980,note_on,0,0,0,,,,,,,,,0,,57,0
94980,note_on,0,0,0,,,,,,,,,0,,69,100
94980,note_on,0,0,0,,,,,,,,,0,,76,100
95010,note_on,30,0,0,,,,,,,,,0,,69,0
95010,note_on,0,0,0,,,,,,,,,0,,64,100
95030,note_on,20,0,0,,,,,,,,,0,,33,0
95040,note_on,10,0,0,,,,,,,,,0,,64,0
95040,note_on,0,0,0,,,,,,,,,0,,76,0
95040,note_on,0,0,0,,,,,,,,,0,,40,100
95040,note_on,0,0,0,,,,,,,,,0,,52,100
95040,note_on,0,0,0,,,,,,,,,0,,71,100
95070,note_on,30,0,0,,,,,,,,,0,,52,0
95070,note_on,0,0,0,,,,,,,,,0,,56,100
95100,note_on,30,0,0,,,,,,,,,0,,56,0
95100,note_on,0,0,0,,,,,,,,,0,,71,0
95100,note_on,0,0,0,,,,,,,,,0,,59,100
95100,note_on,0,0,0,,,,,,,,,0,,64,100
95130,note_on,30,0,0,,,,,,,,,0,,59,0
95130,note_on,0,0,0,,,,,,,,,0,,50,100
95160,note_on,30,0,0,,,,,,,,,0,,50,0
95160,note_on,0,0,0,,,,,,,,,0,,64,0
95160,note_on,0,0,0,,,,,,,,,0,,45,100
95160,note_on,0,0,0,,,,,,,,,0,,69,100
95190,note_on,30,0,0,,,,,,,,,0,,45,0
95190,note_on,0,0,0,,,,,,,,,0,,54,100
95210,note_on,20,0,0,,,,,,,,,0,,40,0
95220,note_on,10,0,0,,,,,,,,,0,,54,0
95220,note_on,0,0,0,,,,,,,,,0,,57,100
95220,note_on,0,0,0,,,,,,,,,0,,40,100
95250,note_on,30,0,0,,,,,,,,,0,,57,0
95250,note_on,0,0,0,,,,,,,,,0,,69,0
95250,note_on,0,0,0,,,,,,,,,0,,68,100
95250,note_on,0,0,0,,,,,,,,,0,,54,100
95280,note_on,30,0,0,,,,,,,,,0,,54,0
95280,note_on,0,0,0,,,,,,,,,0,,68,0
95280,note_on,0,0,0,,,,,,,,,0,,52,100
95280,note_on,0,0,0,,,,,,,,,0,,71,100
95310,note_on,30,0,0,,,,,,,,,0,,52,0
95310,note_on,0,0,0,,,,,,,,,0,,62,100
95340,note_on,30,0,0,,,,,,,,,0,,62,0
95340,note_on,0,0,0,,,,,,,,,0,,54,100
95370,note_on,30,0,0,,,,,,,,,0,,54,0
95370,note_on,0,0,0,,,,,,,,,0,,71,0
95370,note_on,0,0,0,,,,,,,,,0,,61,100
95370,note_on,0,0,0,,,,,,,,,0,,69,100
95390,note_on,20,0,0,,,,,,,,,0,,40,0
95400,note_on,10,0,0,,,,,,,,,0,,69,0
95400,note_on,0,0,0,,,,,,,,,0,,61,0
95400,note_on,0,0,0,,,,,,,,,0,,33,100
95400,note_on,0,0,0,,,,,,,,,0,,66,100
95400,note_on,0,0,0,,,,,,,,,0,,54,100
95400,note_on,0,0,0,,,,,,,,,0,,73,100
95430,note_on,30,0,0,,,,,,,,,0,,66,0
95430,note_on,0,0,0,,,,,,,,,0,,68,100
95460,note_on,30,0,0,,,,,,,,,0,,68,0
95460,note_on,0,0,0,,,,,,,,,0,,69,100
95490,note_on,30,0,0,,,,,,,,,0,,69,0
95490,note_on,0,0,0,,,,,,,,,0,,73,0
95490,note_on,0,0,0,,,,,,,,,0,,57,100
95490,note_on,0,0,0,,,,,,,,,0,,71,100
95520,note_on,30,0,0,,,,,,,,,0,,71,0
95520,note_on,0,0,0,,,,,,,,,0,,57,0
95520,note_on,0,0,0,,,,,,,,,0,,54,0
95520,note_on,0,0,0,,,,,,,,,0,,62,100
95520,note_on,0,0,0,,,,,,,,,0,,52,100
95520,note_on,0,0,0,,,,,,,,,0,,78,100
95550,note_on,30,0,0,,,,,,,,,0,,62,0
95550,note_on,0,0,0,,,,,,,,,0,,64,100
95570,note_on,20,0,0,,,,,,,,,0,,33,0
95580,note_on,10,0,0,,,,,,,,,0,,64,0
95580,note_on,0,0,0,,,,,,,,,0,,52,0
95580,note_on,0,0,0,,,,,,,,,0,,38,100
95580,note_on,0,0,0,,,,,,,,,0,,50,100
95580,note_on,0,0,0,,,,,,,,,0,,66,100
95610,note_on,30,0,0,,,,,,,,,0,,66,0
95610,note_on,0,0,0,,,,,,,,,0,,78,0
95610,note_on,0,0,0,,,,,,,,,0,,54,100
95610,note_on,0,0,0,,,,,,,,,0,,76,100
95640,note_on,30,0,0,,,,,,,,,0,,76,0
95640,note_on,0,0,0,,,,,,,,,0,,54,0
95640,note_on,0,0,0,,,,,,,,,0,,59,100
95640,note_on,0,0,0,,,,,,,,,0,,74,100
95670,note_on,30,0,0,,,,,,,,,0,,74,0
95670,note_on,0,0,0,,,,,,,,,0,,59,0
95670,note_on,0,0,0,,,,,,,,,0,,61,100
95670,note_on,0,0,0,,,,,,,,,0,,73,100
95700,note_on,30,0,0,,,,,,,,,0,,73,0
95700,note_on,0,0,0,,,,,,,,,0,,38,0
95700,note_on,0,0,0,,,,,,,,,0,,50,0
95700,note_on,0,0,0,,,,,,,,,0,,61,0
95700,note_on,0,0,0,,,,,,,,,0,,35,100
95700,note_on,0,0,0,,,,,,,,,0,,71,100
95700,note_on,0,0,0,,,,,,,,,0,,47,100
95700,note_on,0,0,0,,,,,,,,,0,,62,100
95730,note_on,30,0,0,,,,,,,,,0,,62,0
95730,note_on,0,0,0,,,,,,,,,0,,66,100
95760,note_on,30,0,0,,,,,,,,,0,,66,0
95760,note_on,0,0,0,,,,,,,,,0,,47,0
95760,note_on,0,0,0,,,,,,,,,0,,71,0
95760,note_on,0,0,0,,,,,,,,,0,,35,0
95760,note_on,0,0,0,,,,,,,,,0,,37,100
95760,note_on,0,0,0,,,,,,,,,0,,49,100
95760,note_on,0,0,0,,,,,,,,,0,,73,100
95790,note_on,30,0,0,,,,,,,,,0,,49,0
95790,note_on,0,0,0,,,,,,,,,0,,56,100
95820,note_on,30,0,0,,,,,,,,,0,,56,0
95820,note_on,0,0,0,,,,,,,,,0,,53,100
95850,note_on,30,0,0,,,,,,,,,0,,53,0
95850,note_on,0,0,0,,,,,,,,,0,,73,0
95850,note_on,0,0,0,,,,,,,,,0,,61,100
95850,note_on,0,0,0,,,,,,,,,0,,71,100
95880,note_on,30,0,0,,,,,,,,,0,,71,0
95880,note_on,0,0,0,,,,,,,,,0,,61,0
95880,note_on,0,0,0,,,,,,,,,0,,62,100
95880,note_on,0,0,0,,,,,,,,,0,,69,100
95910,note_on,30,0,0,,,,,,,,,0,,62,0
95910,note_on,0,0,0,,,,,,,,,0,,53,100
95940,note_on,30,0,0,,,,,,,,,0,,53,0
95940,note_on,0,0,0,,,,,,,,,0,,69,0
95940,note_on,0,0,0,,,,,,,,,0,,68,100
95940,note_on,0,0,0,,,,,,,,,0,,49,100
95970,note_on,30,0,0,,,,,,,,,0,,49,0
95970,note_on,0,0,0,,,,,,,,,0,,61,100
96000,note_on,30,0,0,,,,,,,,,0,,61,0
96000,note_on,0,0,0,,,,,,,,,0,,53,100
96030,note_on,30,0,0,,,,,,,,,0,,53,0
96030,note_on,0,0,0,,,,,,,,,0,,68,0
96030,note_on,0,0,0,,,,,,,,,0,,61,100
96030,note_on,0,0,0,,,,,,,,,0,,66,100
96060,note_on,30,0,0,,,,,,,,,0,,66,0
96060,note_on,0,0,0,,,,,,,,,0,,61,0
96060,note_on,0,0,0,,,,,,,,,0,,56,100
96060,note_on,0,0,0,,,,,,,,,0,,65,100
96090,note_on,30,0,0,,,,,,,,,0,,56,0
96090,note_on,0,0,0,,,,,,,,,0,,49,100
96110,note_on,20,0,0,,,,,,,,,0,,37,0
96120,note_on,10,0,0,,,,,,,,,0,,49,0
96120,note_on,0,0,0,,,,,,,,,0,,65,0
96120,note_on,0,0,0,,,,,,,,,0,,30,100
96120,note_on,0,0,0,,,,,,,,,0,,42,100
96120,note_on,0,0,0,,,,,,,,,0,,66,100
96150,note_on,30,0,0,,,,,,,,,0,,42,0
96150,note_on,0,0,0,,,,,,,,,0,,49,100
96180,note_on,30,0,0,,,,,,,,,0,,49,0
96180,note_on,0,0,0,,,,,,,,,0,,45,100
96210,note_on,30,0,0,,,,,,,,,0,,45,0
96210,note_on,0,0,0,,,,,,,,,0,,54,100
96240,note_on,30,0,0,,,,,,,,,0,,54,0
96240,note_on,0,0,0,,,,,,,,,0,,57,100
96270,note_on,30,0,0,,,,,,,,,0,,57,0
96270,note_on,0,0,0,,,,,,,,,0,,66,0
96270,note_on,0,0,0,,,,,,,,,0,,54,100
96300,note_on,30,0,0,,,,,,,,,0,,54,0
96300,note_on,0,0,0,,,,,,,,,0,,42,100
96300,note_on,0,0,0,,,,,,,,,0,,66,100
96330,note_on,30,0,0,,,,,,,,,0,,42,0
96330,note_on,0,0,0,,,,,,,,,0,,49,100
96360,note_on,30,0,0,,,,,,,,,0,,49,0
96360,note_on,0,0,0,,,,,,,,,0,,45,100
96390,note_on,30,0,0,,,,,,,,,0,,45,0
96390,note_on,0,0,0,,,,,,,,,0,,66,0
96390,note_on,0,0,0,,,,,,,,,0,,54,100
96420,note_on,30,0,0,,,,,,,,,0,,54,0
96420,note_on,0,0,0,,,,,,,,,0,,57,100
96420,note_on,0,0,0,,,,,,,,,0,,73,100
96450,note_on,30,0,0,,,,,,,,,0,,57,0
96450,note_on,0,0,0,,,,,,,,,0,,54,100
96470,note_on,20,0,0,,,,,,,,,0,,30,0
96480,note_on,10,0,0,,,,,,,,,0,,54,0
96480,note_on,0,0,0,,,,,,,,,0,,73,0
96480,note_on,0,0,0,,,,,,,,,0,,37,100
96480,note_on,0,0,0,,,,,,,,,0,,49,100
96480,note_on,0,0,0,,,,,,,,,0,,78,100
96510,note_on,30,0,0,,,,,,,,,0,,49,0
96510,note_on,0,0,0,,,,,,,,,0,,57,100
96540,note_on,30,0,0,,,,,,,,,0,,57,0
96540,note_on,0,0,0,,,,,,,,,0,,54,100
96570,note_on,30,0,0,,,,,,,,,0,,54,0
96570,note_on,0,0,0,,,,,,,,,0,,78,0
96570,note_on,0,0,0,,,,,,,,,0,,61,100
96570,note_on,0,0,0,,,,,,,,,0,,80,100
96600,note_on,30,0,0,,,,,,,,,0,,80,0
96600,note_on,0,0,0,,,,,,,,,0,,61,0
96600,note_on,0,0,0,,,,,,,,,0,,66,100
96600,note_on,0,0,0,,,,,,,,,0,,81,100
96630,note_on,30,0,0,,,,,,,,,0,,66,0
96630,note_on,0,0,0,,,,,,,,,0,,61,100
96650,note_on,20,0,0,,,,,,,,,0,,37,0
96660,note_on,10,0,0,,,,,,,,,0,,61,0
96660,note_on,0,0,0,,,,,,,,,0,,81,0
96660,note_on,0,0,0,,,,,,,,,0,,35,100
96660,note_on,0,0,0,,,,,,,,,0,,47,100
96660,note_on,0,0,0,,,,,,,,,0,,73,100
96690,note_on,30,0,0,,,,,,,,,0,,47,0
96690,note_on,0,0,0,,,,,,,,,0,,53,100
96720,note_on,30,0,0,,,,,,,,,0,,53,0
96720,note_on,0,0,0,,,,,,,,,0,,56,100
96750,note_on,30,0,0,,,,,,,,,0,,56,0
96750,note_on,0,0,0,,,,,,,,,0,,59,100
96780,note_on,30,0,0,,,,,,,,,0,,59,0
96780,note_on,0,0,0,,,,,,,,,0,,73,0
96780,note_on,0,0,0,,,,,,,,,0,,53,100
96780,note_on,0,0,0,,,,,,,,,0,,71,100
96810,note_on,30,0,0,,,,,,,,,0,,53,0
96810,note_on,0,0,0,,,,,,,,,0,,61,100
96830,note_on,20,0,0,,,,,,,,,0,,35,0
96840,note_on,10,0,0,,,,,,,,,0,,61,0
96840,note_on,0,0,0,,,,,,,,,0,,71,0
96840,note_on,0,0,0,,,,,,,,,0,,38,100
96840,note_on,0,0,0,,,,,,,,,0,,50,100
96840,note_on,0,0,0,,,,,,,,,0,,77,100
96870,note_on,30,0,0,,,,,,,,,0,,50,0
96870,note_on,0,0,0,,,,,,,,,0,,56,100
96900,note_on,30,0,0,,,,,,,,,0,,56,0
96900,note_on,0,0,0,,,,,,,,,0,,59,100
96930,note_on,30,0,0,,,,,,,,,0,,59,0
96930,note_on,0,0,0,,,,,,,,,0,,77,0
96930,note_on,0,0,0,,,,,,,,,0,,53,100
96930,note_on,0,0,0,,,,,,,,,0,,78,100
96960,note_on,30,0,0,,,,,,,,,0,,78,0
96960,note_on,0,0,0,,,,,,,,,0,,53,0
96960,note_on,0,0,0,,,,,,,,,0,,56,100
96960,note_on,0,0,0,,,,,,,,,0,,80,100
96990,note_on,30,0,0,,,,,,,,,0,,56,0
96990,note_on,0,0,0,,,,,,,,,0,,61,100
97010,note_on,20,0,0,,,,,,,,,0,,38,0
97020,note_on,10,0,0,,,,,,,,,0,,61,0
97020,note_on,0,0,0,,,,,,,,,0,,80,0
97020,note_on,0,0,0,,,,,,,,,0,,37,100
97020,note_on,0,0,0,,,,,,,,,0,,54,100
97020,note_on,0,0,0,,,,,,,,,0,,49,100
97020,note_on,0,0,0,,,,,,,,,0,,69,100
97050,note_on,30,0,0,,,,,,,,,0,,49,0
97050,note_on,0,0,0,,,,,,,,,0,,54,0
97050,note_on,0,0,0,,,,,,,,,0,,57,100
97080,note_on,30,0,0,,,,,,,,,0,,57,0
97080,note_on,0,0,0,,,,,,,,,0,,69,0
97080,note_on,0,0,0,,,,,,,,,0,,61,100
97080,note_on,0,0,0,,,,,,,,,0,,66,100
97110,note_on,30,0,0,,,,,,,,,0,,61,0
97110,note_on,0,0,0,,,,,,,,,0,,57,100
97130,note_on,20,0,0,,,,,,,,,0,,37,0
97140,note_on,10,0,0,,,,,,,,,0,,57,0
97140,note_on,0,0,0,,,,,,,,,0,,66,0
97140,note_on,0,0,0,,,,,,,,,0,,42,100
97140,note_on,0,0,0,,,,,,,,,0,,66,100
97140,note_on,0,0,0,,,,,,,,,0,,74,100
97140,note_on,0,0,0,,,,,,,,,0,,54,100
97170,note_on,30,0,0,,,,,,,,,0,,66,0
97170,note_on,0,0,0,,,,,,,,,0,,61,100
97200,note_on,30,0,0,,,,,,,,,0,,61,0
97200,note_on,0,0,0,,,,,,,,,0,,54,0
97200,note_on,0,0,0,,,,,,,,,0,,42,0
97200,note_on,0,0,0,,,,,,,,,0,,40,100
97200,note_on,0,0,0,,,,,,,,,0,,62,100
97200,note_on,0,0,0,,,,,,,,,0,,52,100
97230,note_on,30,0,0,,,,,,,,,0,,62,0
97230,note_on,0,0,0,,,,,,,,,0,,66,100
97260,note_on,30,0,0,,,,,,,,,0,,66,0
97260,note_on,0,0,0,,,,,,,,,0,,74,0
97260,note_on,0,0,0,,,,,,,,,0,,64,100
97260,note_on,0,0,0,,,,,,,,,0,,73,100
97290,note_on,30,0,0,,,,,,,,,0,,64,0
97290,note_on,0,0,0,,,,,,,,,0,,59,100
97320,note_on,30,0,0,,,,,,,,,0,,59,0
97320,note_on,0,0,0,,,,,,,,,0,,73,0
97320,note_on,0,0,0,,,,,,,,,0,,57,100
97320,note_on,0,0,0,,,,,,,,,0,,78,100
97350,note_on,30,0,0,,,,,,,,,0,,57,0
97350,note_on,0,0,0,,,,,,,,,0,,59,100
97376,set_tempo,26,1,0,,,,,,1304631,,,,,,
97380,note_on,4,0,0,,,,,,,,,0,,59,0
97380,note_on,0,0,0,,,,,,,,,0,,52,0
97380,note_on,0,0,0,,,,,,,,,0,,40,0
97380,note_on,0,0,0,,,,,,,,,0,,38,100
97380,note_on,0,0,0,,,,,,,,,0,,61,100
97380,note_on,0,0,0,,,,,,,,,0,,50,100
97389,set_tempo,9,1,0,,,,,,1333630,,,,,,
97400,set_tempo,11,1,0,,,,,,1363946,,,,,,
97410,note_on,10,0,0,,,,,,,,,0,,61,0
97410,note_on,0,0,0,,,,,,,,,0,,57,100
97412,set_tempo,2,1,0,,,,,,1395673,,,,,,
97423,set_tempo,11,1,0,,,,,,1428912,,,,,,
97435,set_tempo,12,1,0,,,,,,1463772,,,,,,
97440,note_on,5,0,0,,,,,,,,,0,,57,0
97440,note_on,0,0,0,,,,,,,,,0,,78,0
97440,note_on,0,0,0,,,,,,,,,0,,62,100
97440,note_on,0,0,0,,,,,,,,,0,,69,100
97446,set_tempo,6,1,0,,,,,,1500375,,,,,,
97458,set_tempo,12,1,0,,,,,,1538856,,,,,,
97469,set_tempo,11,1,0,,,,,,1579363,,,,,,
97470,note_on,1,0,0,,,,,,,,,0,,62,0
97470,note_on,0,0,0,,,,,,,,,0,,61,100
97480,set_tempo,10,1,0,,,,,,1622060,,,,,,
97490,note_on,10,0,0,,,,,,,,,0,,69,0
97490,note_on,0,0,0,,,,,,,,,0,,71,100
97492,set_tempo,2,1,0,,,,,,1667130,,,,,,
97500,note_on,8,0,0,,,,,,,,,0,,71,0
97500,note_on,0,0,0,,,,,,,,,0,,61,0
97500,note_on,0,0,0,,,,,,,,,0,,59,100
97500,note_on,0,0,0,,,,,,,,,0,,66,100
97500,note_on,0,0,0,,,,,,,,,0,,73,100
97503,set_tempo,3,1,0,,,,,,1714776,,,,,,
97510,note_on,7,0,0,,,,,,,,,0,,73,0
97510,note_on,0,0,0,,,,,,,,,0,,71,100
97515,set_tempo,5,1,0,,,,,,1765225,,,,,,
97520,note_on,5,0,0,,,,,,,,,0,,71,0
97520,note_on,0,0,0,,,,,,,,,0,,73,100
97526,set_tempo,6,1,0,,,,,,1818733,,,,,,
97530,note_on,4,0,0,,,,,,,,,0,,73,0
97530,note_on,0,0,0,,,,,,,,,0,,59,0
97530,note_on,0,0,0,,,,,,,,,0,,71,100
97530,note_on,0,0,0,,,,,,,,,0,,57,100
97538,set_tempo,8,1,0,,,,,,1875586,,,,,,
97540,note_on,2,0,0,,,,,,,,,0,,71,0
97540,note_on,0,0,0,,,,,,,,,0,,69,100
97549,set_tempo,9,1,0,,,,,,1936108,,,,,,
97550,note_on,1,0,0,,,,,,,,,0,,69,0
97550,note_on,0,0,0,,,,,,,,,0,,71,100
97560,set_tempo,10,1,0,,,,,,2000667,,,,,,
97560,note_on,0,0,0,,,,,,,,,0,,71,0
97560,note_on,0,0,0,,,,,,,,,0,,50,0
97560,note_on,0,0,0,,,,,,,,,0,,66,0
97560,note_on,0,0,0,,,,,,,,,0,,38,0
97560,note_on,0,0,0,,,,,,,,,0,,57,0
97560,note_on,0,0,0,,,,,,,,,0,,37,100
97560,note_on,0,0,0,,,,,,,,,0,,65,100
97560,note_on,0,0,0,,,,,,,,,0,,56,100
97560,note_on,0,0,0,,,,,,,,,0,,49,100
97560,note_on,0,0,0,,,,,,,,,0,,73,100
97920,note_on,360,0,0,,,,,,,,,0,,73,0
97920,note_on,0,0,0,,,,,,,,,0,,56,0
97920,note_on,0,0,0,,,,,,,,,0,,37,0
97920,note_on,0,0,0,,,,,,,,,0,,65,0
97920,note_on,0,0,0,,,,,,,,,0,,49,0
98196,control_change,276,0,0,,,,,,,11,75,3,,,
98219,control_change,23,0,0,,,,,,,0,43,0,,,
98219,control_change,0,0,0,,,,,,,0,42,3,,,
98220,program_change,1,0,0,,,,,,,,,0,59,,
98220,program_change,0,0,0,,,,,,,,,3,25,,
98268,set_tempo,48,1,0,,,,,,983768,,,,,,
98269,set_tempo,1,1,0,,,,,,882483,,,,,,
98271,set_tempo,2,1,0,,,,,,800107,,,,,,
98273,set_tempo,2,1,0,,,,,,731797,,,,,,
98274,set_tempo,1,1,0,,,,,,666741,,,,,,
98276,set_tempo,2,1,0,,,,,,618620,,,,,,
98277,set_tempo,1,1,0,,,,,,576979,,,,,,
98279,set_tempo,2,1,0,,,,,,535762,,,,,,
98279,control_change,0,0,0,,,,,,,0,43,1,,,
98279,control_change,0,0,0,,,,,,,0,43,1,,,
98279,control_change,0,0,0,,,,,,,0,43,1,,,
98279,control_change,0,0,0,,,,,,,0,43,1,,,
98280,time_signature,1,1,0,4,4,24,8,,,,,,,,
98280,marker,0,1,0,,,,,,,,,,,,
98280,marker,0,1,0,,,,,,,,,,,,
98280,note_on,0,0,0,,,,,,,,,0,,33,100
98280,note_on,0,0,0,,,,,,,,,0,,69,100
98280,note_on,0,0,0,,,,,,,,,0,,64,100
98280,note_on,0,0,0,,,,,,,,,0,,61,100
98280,control_change,0,0,0,,,,,,,0,43,1,,,
98280,note_on,0,0,0,,,,,,,,,0,,45,100
98280,program_change,0,0,0,,,,,,,,,1,66,,
98280,note_on,0,0,0,,,,,,,,,3,,69,100
98280,note_on,0,0,0,,,,,,,,,3,,64,100
98280,note_on,0,0,0,,,,,,,,,3,,61,100
98280,note_on,0,0,0,,,,,,,,,3,,45,100
98280,note_on,0,0,0,,,,,,,,,3,,33,100
98490,note_on,210,0,0,,,,,,,,,3,,33,0
98490,note_on,0,0,0,,,,,,,,,0,,64,0
98490,note_on,0,0,0,,,,,,,,,0,,61,0
98490,note_on,0,0,0,,,,,,,,,0,,33,0
98490,note_on,0,0,0,,,,,,,,,0,,45,0
98490,note_on,0,0,0,,,,,,,,,0,,69,0
98490,note_on,0,0,0,,,,,,,,,3,,61,0
98490,note_on,0,0,0,,,,,,,,,3,,64,0
98490,note_on,0,0,0,,,,,,,,,3,,69,0
98490,note_on,0,0,0,,,,,,,,,3,,45,0
98700,note_on,210,0,0,,,,,,,,,0,,76,100
98700,note_on,0,0,0,,,,,,,,,3,,76,100
98700,note_on,0,0,0,,,,,,,,,5,,76,100
98700,note_on,0,0,0,,,,,,,,,13,,76,100
98730,note_on,30,0,0,,,,,,,,,13,,76,0
98730,note_on,0,0,0,,,,,,,,,0,,76,0
98730,note_on,0,0,0,,,,,,,,,3,,76,0
98730,note_on,0,0,0,,,,,,,,,5,,76,0
98760,note_on,30,0,0,,,,,,,,,0,,57,100
98760,note_on,0,0,0,,,,,,,,,0,,83,100
98760,note_on,0,0,0,,,,,,,,,3,,57,100
98760,note_on,0,0,0,,,,,,,,,3,,83,100
98760,note_on,0,0,0,,,,,,,,,5,,83,100
98760,note_on,0,0,0,,,,,,,,,6,,61,100
98760,note_on,0,0,0,,,,,,,,,7,,61,100
98760,note_on,0,0,0,,,,,,,,,8,,57,100
98760,note_on,0,0,0,,,,,,,,,10,,45,100
98760,note_on,0,0,0,,,,,,,,,13,,83,100
98760,note_on,0,0,0,,,,,,,,,14,,57,100
98760,note_on,0,0,0,,,,,,,,,15,,57,100
98775,note_on,15,0,0,,,,,,,,,13,,83,0
98775,note_on,0,0,0,,,,,,,,,5,,83,0
98775,note_on,0,0,0,,,,,,,,,3,,83,0
98775,note_on,0,0,0,,,,,,,,,0,,83,0
98775,note_on,0,0,0,,,,,,,,,0,,81,100
98775,note_on,0,0,0,,,,,,,,,3,,81,100
98775,note_on,0,0,0,,,,,,,,,5,,81,100
98775,note_on,0,0,0,,,,,,,,,13,,81,100
98790,note_on,15,0,0,,,,,,,,,13,,81,0
98790,note_on,0,0,0,,,,,,,,,3,,81,0
98790,note_on,0,0,0,,,,,,,,,0,,81,0
98790,note_on,0,0,0,,,,,,,,,5,,81,0
98790,note_on,0,0,0,,,,,,,,,0,,83,100
98790,note_on,0,0,0,,,,,,,,,3,,83,100
98790,note_on,0,0,0,,,,,,,,,5,,83,100
98790,note_on,0,0,0,,,,,,,,,13,,83,100
98805,note_on,15,0,0,,,,,,,,,13,,83,0
98805,note_on,0,0,0,,,,,,,,,3,,83,0
98805,note_on,0,0,0,,,,,,,,,0,,83,0
98805,note_on,0,0,0,,,,,,,,,5,,83,0
98805,note_on,0,0,0,,,,,,,,,0,,81,100
98805,note_on,0,0,0,,,,,,,,,3,,81,100
98805,note_on,0,0,0,,,,,,,,,5,,81,100
98805,note_on,0,0,0,,,,,,,,,13,,81,100
98820,note_on,15,0,0,,,,,,,,,13,,81,0
98820,note_on,0,0,0,,,,,,,,,14,,57,0
98820,note_on,0,0,0,,,,,,,,,3,,57,0
98820,note_on,0,0,0,,,,,,,,,15,,57,0
98820,note_on,0,0,0,,,,,,,,,8,,57,0
98820,note_on,0,0,0,,,,,,,,,0,,57,0
98820,note_on,0,0,0,,,,,,,,,6,,61,0
98820,note_on,0,0,0,,,,,,,,,7,,61,0
98820,note_on,0,0,0,,,,,,,,,0,,81,0
98820,note_on,0,0,0,,,,,,,,,10,,45,0
98820,note_on,0,0,0,,,,,,,,,5,,81,0
98820,note_on,0,0,0,,,,,,,,,3,,81,0
98820,note_on,0,0,0,,,,,,,,,0,,83,100
98820,note_on,0,0,0,,,,,,,,,3,,83,100
98820,note_on,0,0,0,,,,,,,,,5,,83,100
98820,note_on,0,0,0,,,,,,,,,13,,83,100
98835,note_on,15,0,0,,,,,,,,,13,,83,0
98835,note_on,0,0,0,,,,,,,,,0,,83,0
98835,note_on,0,0,0,,,,,,,,,3,,83,0
98835,note_on,0,0,0,,,,,,,,,5,,83,0
98835,note_on,0,0,0,,,,,,,,,0,,81,100
98835,note_on,0,0,0,,,,,,,,,3,,81,100
98835,note_on,0,0,0,,,,,,,,,5,,81,100
98835,note_on,0,0,0,,,,,,,,,13,,81,100
98850,note_on,15,0,0,,,,,,,,,13,,81,0
98850,note_on,0,0,0,,,,,,,,,0,,81,0
98850,note_on,0,0,0,,,,,,,,,3,,81,0
98850,note_on,0,0,0,,,,,,,,,5,,81,0
98850,note_on,0,0,0,,,,,,,,,0,,83,100
98850,note_on,0,0,0,,,,,,,,,3,,83,100
98850,note_on,0,0,0,,,,,,,,,5,,83,100
98850,note_on,0,0,0,,,,,,,,,13,,83,100
98865,note_on,15,0,0,,,,,,,,,13,,83,0
98865,note_on,0,0,0,,,,,,,,,0,,83,0
98865,note_on,0,0,0,,,,,,,,,3,,83,0
98865,note_on,0,0,0,,,,,,,,,5,,83,0
98865,note_on,0,0,0,,,,,,,,,0,,81,100
98865,note_on,0,0,0,,,,,,,,,3,,81,100
98865,note_on,0,0,0,,,,,,,,,5,,81,100
98865,note_on,0,0,0,,,,,,,,,13,,81,100
98880,note_on,15,0,0,,,,,,,,,13,,81,0
98880,note_on,0,0,0,,,,,,,,,0,,81,0
98880,note_on,0,0,0,,,,,,,,,3,,81,0
98880,note_on,0,0,0,,,,,,,,,5,,81,0
98880,note_on,0,0,0,,,,,,,,,0,,59,100
98880,note_on,0,0,0,,,,,,,,,0,,83,100
98880,note_on,0,0,0,,,,,,,,,3,,59,100
98880,note_on,0,0,0,,,,,,,,,3,,83,100
98880,note_on,0,0,0,,,,,,,,,5,,83,100
98880,note_on,0,0,0,,,,,,,,,6,,62,100
98880,note_on,0,0,0,,,,,,,,,7,,62,100
98880,note_on,0,0,0,,,,,,,,,8,,59,100
98880,note_on,0,0,0,,,,,,,,,10,,47,100
98880,note_on,0,0,0,,,,,,,,,13,,83,100
98880,note_on,0,0,0,,,,,,,,,14,,59,100
98880,note_on,0,0,0,,,,,,,,,15,,59,100
98895,note_on,15,0,0,,,,,,,,,13,,83,0
98895,note_on,0,0,0,,,,,,,,,5,,83,0
98895,note_on,0,0,0,,,,,,,,,3,,83,0
98895,note_on,0,0,0,,,,,,,,,0,,83,0
98895,note_on,0,0,0,,,,,,,,,0,,81,100
98895,note_on,0,0,0,,,,,,,,,3,,81,100
98895,note_on,0,0,0,,,,,,,,,5,,81,100
98895,note_on,0,0,0,,,,,,,,,13,,81,100
98910,note_on,15,0,0,,,,,,,,,13,,81,0
98910,note_on,0,0,0,,,,,,,,,3,,81,0
98910,note_on,0,0,0,,,,,,,,,0,,81,0
98910,note_on,0,0,0,,,,,,,,,5,,81,0
98940,note_on,30,0,0,,,,,,,,,10,,47,0
98940,note_on,0,0,0,,,,,,,,,0,,59,0
98940,note_on,0,0,0,,,,,,,,,6,,62,0
98940,note_on,0,0,0,,,,,,,,,15,,59,0
98940,note_on,0,0,0,,,,,,,,,7,,62,0
98940,note_on,0,0,0,,,,,,,,,3,,59,0
98940,note_on,0,0,0,,,,,,,,,14,,59,0
98940,note_on,0,0,0,,,,,,,,,8,,59,0
98940,note_on,0,0,0,,,,,,,,,0,,80,100
98940,note_on,0,0,0,,,,,,,,,3,,80,100
98940,note_on,0,0,0,,,,,,,,,5,,80,100
98940,note_on,0,0,0,,,,,,,,,13,,80,100
98970,note_on,30,0,0,,,,,,,,,13,,80,0
98970,note_on,0,0,0,,,,,,,,,0,,80,0
98970,note_on,0,0,0,,,,,,,,,3,,80,0
98970,note_on,0,0,0,,,,,,,,,5,,80,0
98970,note_on,0,0,0,,,,,,,,,0,,78,100
98970,note_on,0,0,0,,,,,,,,,3,,78,100
98970,note_on,0,0,0,,,,,,,,,5,,78,100
98970,note_on,0,0,0,,,,,,,,,13,,78,100
98985,note_on,15,0,0,,,,,,,,,13,,78,0
98985,note_on,0,0,0,,,,,,,,,0,,78,0
98985,note_on,0,0,0,,,,,,,,,3,,78,0
98985,note_on,0,0,0,,,,,,,,,5,,78,0
99000,note_on,15,0,0,,,,,,,,,0,,61,100
99000,note_on,0,0,0,,,,,,,,,0,,76,100
99000,note_on,0,0,0,,,,,,,,,3,,61,100
99000,note_on,0,0,0,,,,,,,,,3,,76,100
99000,note_on,0,0,0,,,,,,,,,5,,76,100
99000,note_on,0,0,0,,,,,,,,,6,,64,100
99000,note_on,0,0,0,,,,,,,,,7,,64,100
99000,note_on,0,0,0,,,,,,,,,8,,61,100
99000,note_on,0,0,0,,,,,,,,,10,,49,100
99000,note_on,0,0,0,,,,,,,,,13,,76,100
99000,note_on,0,0,0,,,,,,,,,14,,61,100
99000,note_on,0,0,0,,,,,,,,,15,,61,100
99030,note_on,30,0,0,,,,,,,,,13,,76,0
99030,note_on,0,0,0,,,,,,,,,5,,76,0
99030,note_on,0,0,0,,,,,,,,,3,,76,0
99030,note_on,0,0,0,,,,,,,,,0,,76,0
99060,note_on,30,0,0,,,,,,,,,8,,61,0
99060,note_on,0,0,0,,,,,,,,,0,,61,0
99060,note_on,0,0,0,,,,,,,,,6,,64,0
99060,note_on,0,0,0,,,,,,,,,7,,64,0
99060,note_on,0,0,0,,,,,,,,,14,,61,0
99060,note_on,0,0,0,,,,,,,,,10,,49,0
99060,note_on,0,0,0,,,,,,,,,15,,61,0
99060,note_on,0,0,0,,,,,,,,,3,,61,0
99060,note_on,0,0,0,,,,,,,,,0,,81,100
99060,note_on,0,0,0,,,,,,,,,3,,81,100
99060,note_on,0,0,0,,,,,,,,,5,,81,100
99060,note_on,0,0,0,,,,,,,,,13,,81,100
99090,note_on,30,0,0,,,,,,,,,13,,81,0
99090,note_on,0,0,0,,,,,,,,,0,,81,0
99090,note_on,0,0,0,,,,,,,,,3,,81,0
99090,note_on,0,0,0,,,,,,,,,5,,81,0
99120,note_on,30,0,0,,,,,,,,,0,,57,100
99120,note_on,0,0,0,,,,,,,,,3,,57,100
99120,note_on,0,0,0,,,,,,,,,6,,61,100
99120,note_on,0,0,0,,,,,,,,,7,,61,100
99120,note_on,0,0,0,,,,,,,,,8,,57,100
99120,note_on,0,0,0,,,,,,,,,10,,45,100
99120,note_on,0,0,0,,,,,,,,,14,,57,100
99120,note_on,0,0,0,,,,,,,,,15,,57,100
99180,note_on,60,0,0,,,,,,,,,15,,57,0
99180,note_on,0,0,0,,,,,,,,,0,,57,0
99180,note_on,0,0,0,,,,,,,,,8,,57,0
99180,note_on,0,0,0,,,,,,,,,3,,57,0
99180,note_on,0,0,0,,,,,,,,,6,,61,0
99180,note_on,0,0,0,,,,,,,,,7,,61,0
99180,note_on,0,0,0,,,,,,,,,10,,45,0
99180,note_on,0,0,0,,,,,,,,,14,,57,0
99180,note_on,0,0,0,,,,,,,,,0,,69,100
99180,note_on,0,0,0,,,,,,,,,3,,69,100
99180,note_on,0,0,0,,,,,,,,,5,,69,100
99180,note_on,0,0,0,,,,,,,,,13,,69,100
99210,note_on,30,0,0,,,,,,,,,13,,69,0
99210,note_on,0,0,0,,,,,,,,,0,,69,0
99210,note_on,0,0,0,,,,,,,,,3,,69,0
99210,note_on,0,0,0,,,,,,,,,5,,69,0
99240,note_on,30,0,0,,,,,,,,,0,,54,100
99240,note_on,0,0,0,,,,,,,,,0,,76,100
99240,note_on,0,0,0,,,,,,,,,3,,54,100
99240,note_on,0,0,0,,,,,,,,,3,,76,100
99240,note_on,0,0,0,,,,,,,,,5,,76,100
99240,note_on,0,0,0,,,,,,,,,6,,69,100
99240,note_on,0,0,0,,,,,,,,,7,,69,100
99240,note_on,0,0,0,,,,,,,,,8,,54,100
99240,note_on,0,0,0,,,,,,,,,10,,42,100
99240,note_on,0,0,0,,,,,,,,,13,,76,100
99240,note_on,0,0,0,,,,,,,,,14,,54,100
99240,note_on,0,0,0,,,,,,,,,15,,54,100
99255,note_on,15,0,0,,,,,,,,,13,,76,0
99255,note_on,0,0,0,,,,,,,,,5,,76,0
99255,note_on,0,0,0,,,,,,,,,3,,76,0
99255,note_on,0,0,0,,,,,,,,,0,,76,0
99255,note_on,0,0,0,,,,,,,,,0,,74,100
99255,note_on,0,0,0,,,,,,,,,3,,74,100
99255,note_on,0,0,0,,,,,,,,,5,,74,100
99255,note_on,0,0,0,,,,,,,,,13,,74,100
99270,note_on,15,0,0,,,,,,,,,13,,74,0
99270,note_on,0,0,0,,,,,,,,,3,,74,0
99270,note_on,0,0,0,,,,,,,,,0,,74,0
99270,note_on,0,0,0,,,,,,,,,5,,74,0
99270,note_on,0,0,0,,,,,,,,,0,,76,100
99270,note_on,0,0,0,,,,,,,,,3,,76,100
99270,note_on,0,0,0,,,,,,,,,5,,76,100
99270,note_on,0,0,0,,,,,,,,,13,,76,100
99285,note_on,15,0,0,,,,,,,,,13,,76,0
99285,note_on,0,0,0,,,,,,,,,3,,76,0
99285,note_on,0,0,0,,,,,,,,,0,,76,0
99285,note_on,0,0,0,,,,,,,,,5,,76,0
99285,note_on,0,0,0,,,,,,,,,0,,74,100
99285,note_on,0,0,0,,,,,,,,,3,,74,100
99285,note_on,0,0,0,,,,,,,,,5,,74,100
99285,note_on,0,0,0,,,,,,,,,13,,74,100
99300,note_on,15,0,0,,,,,,,,,13,,74,0
99300,note_on,0,0,0,,,,,,,,,14,,54,0
99300,note_on,0,0,0,,,,,,,,,3,,54,0
99300,note_on,0,0,0,,,,,,,,,15,,54,0
99300,note_on,0,0,0,,,,,,,,,8,,54,0
99300,note_on,0,0,0,,,,,,,,,0,,54,0
99300,note_on,0,0,0,,,,,,,,,6,,69,0
99300,note_on,0,0,0,,,,,,,,,7,,69,0
99300,note_on,0,0,0,,,,,,,,,0,,74,0
99300,note_on,0,0,0,,,,,,,,,10,,42,0
99300,note_on,0,0,0,,,,,,,,,5,,74,0
99300,note_on,0,0,0,,,,,,,,,3,,74,0
99300,note_on,0,0,0,,,,,,,,,0,,76,100
99300,note_on,0,0,0,,,,,,,,,3,,76,100
99300,note_on,0,0,0,,,,,,,,,5,,76,100
99300,note_on,0,0,0,,,,,,,,,13,,76,100
99315,note_on,15,0,0,,,,,,,,,13,,76,0
99315,note_on,0,0,0,,,,,,,,,0,,76,0
99315,note_on,0,0,0,,,,,,,,,3,,76,0
99315,note_on,0,0,0,,,,,,,,,5,,76,0
99315,note_on,0,0,0,,,,,,,,,0,,74,100
99315,note_on,0,0,0,,,,,,,,,3,,74,100
99315,note_on,0,0,0,,,,,,,,,5,,74,100
99315,note_on,0,0,0,,,,,,,,,13,,74,100
99330,note_on,15,0,0,,,,,,,,,13,,74,0
99330,note_on,0,0,0,,,,,,,,,0,,74,0
99330,note_on,0,0,0,,,,,,,,,3,,74,0
99330,note_on,0,0,0,,,,,,,,,5,,74,0
99330,note_on,0,0,0,,,,,,,,,0,,76,100
99330,note_on,0,0,0,,,,,,,,,3,,76,100
99330,note_on,0,0,0,,,,,,,,,5,,76,100
99330,note_on,0,0,0,,,,,,,,,13,,76,100
99345,note_on,15,0,0,,,,,,,,,13,,76,0
99345,note_on,0,0,0,,,,,,,,,0,,76,0
99345,note_on,0,0,0,,,,,,,,,3,,76,0
99345,note_on,0,0,0,,,,,,,,,5,,76,0
99345,note_on,0,0,0,,,,,,,,,0,,74,100
99345,note_on,0,0,0,,,,,,,,,3,,74,100
99345,note_on,0,0,0,,,,,,,,,5,,74,100
99345,note_on,0,0,0,,,,,,,,,13,,74,100
99360,note_on,15,0,0,,,,,,,,,13,,74,0
99360,note_on,0,0,0,,,,,,,,,0,,74,0
99360,note_on,0,0,0,,,,,,,,,3,,74,0
99360,note_on,0,0,0,,,,,,,,,5,,74,0
99360,note_on,0,0,0,,,,,,,,,0,,56,100
99360,note_on,0,0,0,,,,,,,,,0,,76,100
99360,note_on,0,0,0,,,,,,,,,3,,56,100
99360,note_on,0,0,0,,,,,,,,,3,,76,100
99360,note_on,0,0,0,,,,,,,,,5,,76,100
99360,note_on,0,0,0,,,,,,,,,6,,64,100
99360,note_on,0,0,0,,,,,,,,,7,,64,100
99360,note_on,0,0,0,,,,,,,,,8,,56,100
99360,note_on,0,0,0,,,,,,,,,10,,44,100
99360,note_on,0,0,0,,,,,,,,,13,,76,100
99360,note_on,0,0,0,,,,,,,,,14,,56,100
99360,note_on,0,0,0,,,,,,,,,15,,56,100
99375,note_on,15,0,0,,,,,,,,,13,,76,0
99375,note_on,0,0,0,,,,,,,,,5,,76,0
99375,note_on,0,0,0,,,,,,,,,3,,76,0
99375,note_on,0,0,0,,,,,,,,,0,,76,0
99375,note_on,0,0,0,,,,,,,,,0,,74,100
99375,note_on,0,0,0,,,,,,,,,3,,74,100
99375,note_on,0,0,0,,,,,,,,,5,,74,100
99375,note_on,0,0,0,,,,,,,,,13,,74,100
99390,note_on,15,0,0,,,,,,,,,13,,74,0
99390,note_on,0,0,0,,,,,,,,,3,,74,0
99390,note_on,0,0,0,,,,,,,,,0,,74,0
99390,note_on,0,0,0,,,,,,,,,5,,74,0
99420,note_on,30,0,0,,,,,,,,,10,,44,0
99420,note_on,0,0,0,,,,,,,,,0,,56,0
99420,note_on,0,0,0,,,,,,,,,6,,64,0
99420,note_on,0,0,0,,,,,,,,,15,,56,0
99420,note_on,0,0,0,,,,,,,,,7,,64,0
99420,note_on,0,0,0,,,,,,,,,3,,56,0
99420,note_on,0,0,0,,,,,,,,,14,,56,0
99420,note_on,0,0,0,,,,,,,,,8,,56,0
99420,note_on,0,0,0,,,,,,,,,0,,73,100
99420,note_on,0,0,0,,,,,,,,,3,,73,100
99420,note_on,0,0,0,,,,,,,,,5,,73,100
99420,note_on,0,0,0,,,,,,,,,13,,73,100
99450,note_on,30,0,0,,,,,,,,,13,,73,0
99450,note_on,0,0,0,,,,,,,,,0,,73,0
99450,note_on,0,0,0,,,,,,,,,3,,73,0
99450,note_on,0,0,0,,,,,,,,,5,,73,0
99450,note_on,0,0,0,,,,,,,,,0,,71,100
99450,note_on,0,0,0,,,,,,,,,3,,71,100
99450,note_on,0,0,0,,,,,,,,,5,,71,100
99450,note_on,0,0,0,,,,,,,,,13,,71,100
99465,note_on,15,0,0,,,,,,,,,13,,71,0
99465,note_on,0,0,0,,,,,,,,,0,,71,0
99465,note_on,0,0,0,,,,,,,,,3,,71,0
99465,note_on,0,0,0,,,,,,,,,5,,71,0
99480,note_on,15,0,0,,,,,,,,,0,,57,100
99480,note_on,0,0,0,,,,,,,,,0,,73,100
99480,note_on,0,0,0,,,,,,,,,3,,57,100
99480,note_on,0,0,0,,,,,,,,,3,,73,100
99480,note_on,0,0,0,,,,,,,,,5,,73,100
99480,note_on,0,0,0,,,,,,,,,6,,64,100
99480,note_on,0,0,0,,,,,,,,,7,,64,100
99480,note_on,0,0,0,,,,,,,,,8,,57,100
99480,note_on,0,0,0,,,,,,,,,10,,45,100
99480,note_on,0,0,0,,,,,,,,,13,,73,100
99480,note_on,0,0,0,,,,,,,,,14,,57,100
99480,note_on,0,0,0,,,,,,,,,15,,57,100
99510,note_on,30,0,0,,,,,,,,,13,,73,0
99510,note_on,0,0,0,,,,,,,,,7,,64,0
99510,note_on,0,0,0,,,,,,,,,3,,73,0
99510,note_on,0,0,0,,,,,,,,,0,,73,0
99510,note_on,0,0,0,,,,,,,,,6,,64,0
99510,note_on,0,0,0,,,,,,,,,5,,73,0
99540,note_on,30,0,0,,,,,,,,,8,,57,0
99540,note_on,0,0,0,,,,,,,,,15,,57,0
99540,note_on,0,0,0,,,,,,,,,14,,57,0
99540,note_on,0,0,0,,,,,,,,,10,,45,0
99540,note_on,0,0,0,,,,,,,,,0,,57,0
99540,note_on,0,0,0,,,,,,,,,3,,57,0
99540,note_on,0,0,0,,,,,,,,,0,,81,100
99540,note_on,0,0,0,,,,,,,,,3,,81,100
99540,note_on,0,0,0,,,,,,,,,5,,81,100
99540,note_on,0,0,0,,,,,,,,,6,,73,100
99540,note_on,0,0,0,,,,,,,,,7,,73,100
99540,note_on,0,0,0,,,,,,,,,13,,81,100
99570,note_on,30,0,0,,,,,,,,,13,,81,0
99570,note_on,0,0,0,,,,,,,,,3,,81,0
99570,note_on,0,0,0,,,,,,,,,5,,81,0
99570,note_on,0,0,0,,,,,,,,,0,,81,0
99570,note_on,0,0,0,,,,,,,,,7,,73,0
99570,note_on,0,0,0,,,,,,,,,6,,73,0
99600,note_on,30,0,0,,,,,,,,,0,,49,100
99600,note_on,0,0,0,,,,,,,,,3,,49,100
99600,note_on,0,0,0,,,,,,,,,8,,49,100
99600,note_on,0,0,0,,,,,,,,,10,,37,100
99600,note_on,0,0,0,,,,,,,,,14,,49,100
99600,note_on,0,0,0,,,,,,,,,15,,49,100
99660,note_on,60,0,0,,,,,,,,,0,,69,100
99660,note_on,0,0,0,,,,,,,,,3,,69,100
99660,note_on,0,0,0,,,,,,,,,5,,69,100
99660,note_on,0,0,0,,,,,,,,,6,,64,100
99660,note_on,0,0,0,,,,,,,,,7,,64,100
99660,note_on,0,0,0,,,,,,,,,13,,69,100
99690,note_on,30,0,0,,,,,,,,,13,,69,0
99690,note_on,0,0,0,,,,,,,,,3,,49,0
99690,note_on,0,0,0,,,,,,,,,3,,69,0
99690,note_on,0,0,0,,,,,,,,,8,,49,0
99690,note_on,0,0,0,,,,,,,,,10,,37,0
99690,note_on,0,0,0,,,,,,,,,0,,49,0
99690,note_on,0,0,0,,,,,,,,,14,,49,0
99690,note_on,0,0,0,,,,,,,,,15,,49,0
99690,note_on,0,0,0,,,,,,,,,5,,69,0
99690,note_on,0,0,0,,,,,,,,,0,,69,0
99690,note_on,0,0,0,,,,,,,,,7,,64,0
99690,note_on,0,0,0,,,,,,,,,6,,64,0
99720,note_on,30,0,0,,,,,,,,,0,,50,100
99720,note_on,0,0,0,,,,,,,,,0,,73,100
99720,note_on,0,0,0,,,,,,,,,3,,50,100
99720,note_on,0,0,0,,,,,,,,,3,,73,100
99720,note_on,0,0,0,,,,,,,,,5,,73,100
99720,note_on,0,0,0,,,,,,,,,6,,64,100
99720,note_on,0,0,0,,,,,,,,,7,,64,100
99720,note_on,0,0,0,,,,,,,,,8,,50,100
99720,note_on,0,0,0,,,,,,,,,10,,38,100
99720,note_on,0,0,0,,,,,,,,,13,,73,100
99720,note_on,0,0,0,,,,,,,,,14,,50,100
99720,note_on,0,0,0,,,,,,,,,15,,50,100
99735,note_on,15,0,0,,,,,,,,,13,,73,0
99735,note_on,0,0,0,,,,,,,,,7,,64,0
99735,note_on,0,0,0,,,,,,,,,3,,73,0
99735,note_on,0,0,0,,,,,,,,,0,,73,0
99735,note_on,0,0,0,,,,,,,,,6,,64,0
99735,note_on,0,0,0,,,,,,,,,5,,73,0
99735,note_on,0,0,0,,,,,,,,,0,,71,100
99735,note_on,0,0,0,,,,,,,,,3,,71,100
99735,note_on,0,0,0,,,,,,,,,5,,71,100
99735,note_on,0,0,0,,,,,,,,,6,,62,100
99735,note_on,0,0,0,,,,,,,,,7,,62,100
99735,note_on,0,0,0,,,,,,,,,13,,71,100
99750,note_on,15,0,0,,,,,,,,,13,,71,0
99750,note_on,0,0,0,,,,,,,,,6,,62,0
99750,note_on,0,0,0,,,,,,,,,3,,71,0
99750,note_on,0,0,0,,,,,,,,,0,,71,0
99750,note_on,0,0,0,,,,,,,,,5,,71,0
99750,note_on,0,0,0,,,,,,,,,7,,62,0
99750,note_on,0,0,0,,,,,,,,,0,,73,100
99750,note_on,0,0,0,,,,,,,,,3,,73,100
99750,note_on,0,0,0,,,,,,,,,5,,73,100
99750,note_on,0,0,0,,,,,,,,,6,,64,100
99750,note_on,0,0,0,,,,,,,,,7,,64,100
99750,note_on,0,0,0,,,,,,,,,13,,73,100
99765,note_on,15,0,0,,,,,,,,,13,,73,0
99765,note_on,0,0,0,,,,,,,,,6,,64,0
99765,note_on,0,0,0,,,,,,,,,3,,73,0
99765,note_on,0,0,0,,,,,,,,,0,,73,0
99765,note_on,0,0,0,,,,,,,,,5,,73,0
99765,note_on,0,0,0,,,,,,,,,7,,64,0
99765,note_on,0,0,0,,,,,,,,,0,,71,100
99765,note_on,0,0,0,,,,,,,,,3,,71,100
99765,note_on,0,0,0,,,,,,,,,5,,71,100
99765,note_on,0,0,0,,,,,,,,,6,,62,100
99765,note_on,0,0,0,,,,,,,,,7,,62,100
99765,note_on,0,0,0,,,,,,,,,13,,71,100
99780,note_on,15,0,0,,,,,,,,,13,,71,0
99780,note_on,0,0,0,,,,,,,,,6,,62,0
99780,note_on,0,0,0,,,,,,,,,3,,71,0
99780,note_on,0,0,0,,,,,,,,,14,,50,0
99780,note_on,0,0,0,,,,,,,,,0,,71,0
99780,note_on,0,0,0,,,,,,,,,8,,50,0
99780,note_on,0,0,0,,,,,,,,,15,,50,0
99780,note_on,0,0,0,,,,,,,,,10,,38,0
99780,note_on,0,0,0,,,,,,,,,5,,71,0
99780,note_on,0,0,0,,,,,,,,,7,,62,0
99780,note_on,0,0,0,,,,,,,,,0,,73,100
99780,note_on,0,0,0,,,,,,,,,3,,73,100
99780,note_on,0,0,0,,,,,,,,,5,,73,100
99780,note_on,0,0,0,,,,,,,,,6,,64,100
99780,note_on,0,0,0,,,,,,,,,7,,64,100
99780,note_on,0,0,0,,,,,,,,,13,,73,100
99795,note_on,15,0,0,,,,,,,,,13,,73,0
99795,note_on,0,0,0,,,,,,,,,7,,64,0
99795,note_on,0,0,0,,,,,,,,,5,,73,0
99795,note_on,0,0,0,,,,,,,,,3,,73,0
99795,note_on,0,0,0,,,,,,,,,0,,73,0
99795,note_on,0,0,0,,,,,,,,,6,,64,0
99795,note_on,0,0,0,,,,,,,,,0,,71,100
99795,note_on,0,0,0,,,,,,,,,3,,71,100
99795,note_on,0,0,0,,,,,,,,,5,,71,100
99795,note_on,0,0,0,,,,,,,,,6,,62,100
99795,note_on,0,0,0,,,,,,,,,7,,62,100
99795,note_on,0,0,0,,,,,,,,,13,,71,100
99810,note_on,15,0,0,,,,,,,,,13,,71,0
99810,note_on,0,0,0,,,,,,,,,0,,50,0
99810,note_on,0,0,0,,,,,,,,,5,,71,0
99810,note_on,0,0,0,,,,,,,,,3,,50,0
99810,note_on,0,0,0,,,,,,,,,0,,71,0
99810,note_on,0,0,0,,,,,,,,,3,,71,0
99810,note_on,0,0,0,,,,,,,,,6,,62,0
99810,note_on,0,0,0,,,,,,,,,7,,62,0
99810,note_on,0,0,0,,,,,,,,,0,,73,100
99810,note_on,0,0,0,,,,,,,,,3,,73,100
99810,note_on,0,0,0,,,,,,,,,5,,73,100
99810,note_on,0,0,0,,,,,,,,,6,,64,100
99810,note_on,0,0,0,,,,,,,,,7,,64,100
99810,note_on,0,0,0,,,,,,,,,13,,73,100
99825,note_on,15,0,0,,,,,,,,,13,,73,0
99825,note_on,0,0,0,,,,,,,,,3,,73,0
99825,note_on,0,0,0,,,,,,,,,5,,73,0
99825,note_on,0,0,0,,,,,,,,,0,,73,0
99825,note_on,0,0,0,,,,,,,,,7,,64,0
99825,note_on,0,0,0,,,,,,,,,6,,64,0
99825,note_on,0,0,0,,,,,,,,,0,,71,100
99825,note_on,0,0,0,,,,,,,,,3,,71,100
99825,note_on,0,0,0,,,,,,,,,5,,71,100
99825,note_on,0,0,0,,,,,,,,,6,,62,100
99825,note_on,0,0,0,,,,,,,,,7,,62,100
99825,note_on,0,0,0,,,,,,,,,13,,71,100
99840,note_on,15,0,0,,,,,,,,,13,,71,0
99840,note_on,0,0,0,,,,,,,,,3,,71,0
99840,note_on,0,0,0,,,,,,,,,5,,71,0
99840,note_on,0,0,0,,,,,,,,,0,,71,0
99840,note_on,0,0,0,,,,,,,,,7,,62,0
99840,note_on,0,0,0,,,,,,,,,6,,62,0
99840,note_on,0,0,0,,,,,,,,,0,,52,100
99840,note_on,0,0,0,,,,,,,,,0,,73,100
99840,note_on,0,0,0,,,,,,,,,3,,52,100
99840,note_on,0,0,0,,,,,,,,,3,,73,100
99840,note_on,0,0,0,,,,,,,,,5,,73,100
99840,note_on,0,0,0,,,,,,,,,6,,64,100
99840,note_on,0,0,0,,,,,,,,,7,,64,100
99840,note_on,0,0,0,,,,,,,,,8,,52,100
99840,note_on,0,0,0,,,,,,,,,10,,40,100
99840,note_on,0,0,0,,,,,,,,,13,,73,100
99840,note_on,0,0,0,,,,,,,,,14,,52,100
99840,note_on,0,0,0,,,,,,,,,15,,52,100
99855,note_on,15,0,0,,,,,,,,,13,,73,0
99855,note_on,0,0,0,,,,,,,,,7,,64,0
99855,note_on,0,0,0,,,,,,,,,3,,73,0
99855,note_on,0,0,0,,,,,,,,,0,,73,0
99855,note_on,0,0,0,,,,,,,,,6,,64,0
99855,note_on,0,0,0,,,,,,,,,5,,73,0
99855,note_on,0,0,0,,,,,,,,,0,,71,100
99855,note_on,0,0,0,,,,,,,,,3,,71,100
99855,note_on,0,0,0,,,,,,,,,5,,71,100
99855,note_on,0,0,0,,,,,,,,,6,,62,100
99855,note_on,0,0,0,,,,,,,,,7,,62,100
99855,note_on,0,0,0,,,,,,,,,13,,71,100
99870,note_on,15,0,0,,,,,,,,,13,,71,0
99870,note_on,0,0,0,,,,,,,,,6,,62,0
99870,note_on,0,0,0,,,,,,,,,3,,71,0
99870,note_on,0,0,0,,,,,,,,,0,,71,0
99870,note_on,0,0,0,,,,,,,,,5,,71,0
99870,note_on,0,0,0,,,,,,,,,7,,62,0
99900,note_on,30,0,0,,,,,,,,,0,,52,0
99900,note_on,0,0,0,,,,,,,,,8,,52,0
99900,note_on,0,0,0,,,,,,,,,14,,52,0
99900,note_on,0,0,0,,,,,,,,,15,,52,0
99900,note_on,0,0,0,,,,,,,,,10,,40,0
99900,note_on,0,0,0,,,,,,,,,3,,52,0
99900,note_on,0,0,0,,,,,,,,,0,,69,100
99900,note_on,0,0,0,,,,,,,,,3,,69,100
99900,note_on,0,0,0,,,,,,,,,5,,69,100
99900,note_on,0,0,0,,,,,,,,,6,,61,100
99900,note_on,0,0,0,,,,,,,,,7,,61,100
99900,note_on,0,0,0,,,,,,,,,13,,69,100
99930,note_on,30,0,0,,,,,,,,,13,,69,0
99930,note_on,0,0,0,,,,,,,,,3,,69,0
99930,note_on,0,0,0,,,,,,,,,5,,69,0
99930,note_on,0,0,0,,,,,,,,,0,,69,0
99930,note_on,0,0,0,,,,,,,,,7,,61,0
99930,note_on,0,0,0,,,,,,,,,6,,61,0
99930,note_on,0,0,0,,,,,,,,,0,,68,100
99930,note_on,0,0,0,,,,,,,,,3,,68,100
99930,note_on,0,0,0,,,,,,,,,5,,68,100
99930,note_on,0,0,0,,,,,,,,,6,,59,100
99930,note_on,0,0,0,,,,,,,,,7,,59,100
99930,note_on,0,0,0,,,,,,,,,13,,68,100
99945,note_on,15,0,0,,,,,,,,,13,,68,0
99945,note_on,0,0,0,,,,,,,,,3,,68,0
99945,note_on,0,0,0,,,,,,,,,5,,68,0
99945,note_on,0,0,0,,,,,,,,,0,,68,0
99945,note_on,0,0,0,,,,,,,,,7,,59,0
99945,note_on,0,0,0,,,,,,,,,6,,59,0
99960,note_on,15,0,0,,,,,,,,,0,,54,100
99960,note_on,0,0,0,,,,,,,,,0,,69,100
99960,note_on,0,0,0,,,,,,,,,3,,54,100
99960,note_on,0,0,0,,,,,,,,,3,,69,100
99960,note_on,0,0,0,,,,,,,,,5,,69,100
99960,note_on,0,0,0,,,,,,,,,6,,57,100
99960,note_on,0,0,0,,,,,,,,,7,,57,100
99960,note_on,0,0,0,,,,,,,,,8,,54,100
99960,note_on,0,0,0,,,,,,,,,10,,42,100
99960,note_on,0,0,0,,,,,,,,,13,,69,100
99960,note_on,0,0,0,,,,,,,,,14,,54,100
99960,note_on,0,0,0,,,,,,,,,15,,54,100
99990,note_on,30,0,0,,,,,,,,,13,,69,0
99990,note_on,0,0,0,,,,,,,,,5,,69,0
99990,note_on,0,0,0,,,,,,,,,3,,69,0
99990,note_on,0,0,0,,,,,,,,,0,,69,0
100020,note_on,30,0,0,,,,,,,,,8,,54,0
100020,note_on,0,0,0,,,,,,,,,10,,42,0
100020,note_on,0,0,0,,,,,,,,,0,,54,0
100020,note_on,0,0,0,,,,,,,,,3,,54,0
100020,note_on,0,0,0,,,,,,,,,14,,54,0
100020,note_on,0,0,0,,,,,,,,,15,,54,0
100020,note_on,0,0,0,,,,,,,,,0,,74,100
100020,note_on,0,0,0,,,,,,,,,3,,74,100
100020,note_on,0,0,0,,,,,,,,,5,,74,100
100020,note_on,0,0,0,,,,,,,,,13,,74,100
100035,note_on,15,0,0,,,,,,,,,6,,57,0
100035,note_on,0,0,0,,,,,,,,,7,,57,0
100080,note_on,45,0,0,,,,,,,,,0,,56,100
100080,note_on,0,0,0,,,,,,,,,3,,56,100
100080,note_on,0,0,0,,,,,,,,,6,,64,100
100080,note_on,0,0,0,,,,,,,,,7,,64,100
100080,note_on,0,0,0,,,,,,,,,8,,56,100
100080,note_on,0,0,0,,,,,,,,,10,,44,100
100080,note_on,0,0,0,,,,,,,,,14,,56,100
100080,note_on,0,0,0,,,,,,,,,15,,56,100
100110,note_on,30,0,0,,,,,,,,,5,,74,0
100110,note_on,0,0,0,,,,,,,,,0,,74,0
100110,note_on,0,0,0,,,,,,,,,3,,74,0
100110,note_on,0,0,0,,,,,,,,,13,,74,0
100140,note_on,30,0,0,,,,,,,,,10,,44,0
100140,note_on,0,0,0,,,,,,,,,8,,56,0
100140,note_on,0,0,0,,,,,,,,,14,,56,0
100140,note_on,0,0,0,,,,,,,,,15,,56,0
100140,note_on,0,0,0,,,,,,,,,0,,73,100
100140,note_on,0,0,0,,,,,,,,,3,,73,100
100140,note_on,0,0,0,,,,,,,,,5,,73,100
100140,note_on,0,0,0,,,,,,,,,13,,73,100
100155,note_on,15,0,0,,,,,,,,,6,,64,0
100155,note_on,0,0,0,,,,,,,,,7,,64,0
100170,note_on,15,0,0,,,,,,,,,3,,73,0
100170,note_on,0,0,0,,,,,,,,,0,,56,0
100170,note_on,0,0,0,,,,,,,,,0,,73,0
100170,note_on,0,0,0,,,,,,,,,13,,73,0
100170,note_on,0,0,0,,,,,,,,,5,,73,0
100170,note_on,0,0,0,,,,,,,,,3,,56,0
100170,note_on,0,0,0,,,,,,,,,0,,71,100
100170,note_on,0,0,0,,,,,,,,,3,,71,100
100170,note_on,0,0,0,,,,,,,,,5,,71,100
100170,note_on,0,0,0,,,,,,,,,13,,71,100
100185,note_on,15,0,0,,,,,,,,,13,,71,0
100185,note_on,0,0,0,,,,,,,,,0,,71,0
100185,note_on,0,0,0,,,,,,,,,3,,71,0
100185,note_on,0,0,0,,,,,,,,,5,,71,0
100200,note_on,15,0,0,,,,,,,,,0,,57,100
100200,note_on,0,0,0,,,,,,,,,0,,73,100
100200,note_on,0,0,0,,,,,,,,,3,,57,100
100200,note_on,0,0,0,,,,,,,,,3,,73,100
100200,note_on,0,0,0,,,,,,,,,5,,73,100
100200,note_on,0,0,0,,,,,,,,,6,,64,100
100200,note_on,0,0,0,,,,,,,,,7,,64,100
100200,note_on,0,0,0,,,,,,,,,8,,57,100
100200,note_on,0,0,0,,,,,,,,,10,,45,100
100200,note_on,0,0,0,,,,,,,,,13,,73,100
100200,note_on,0,0,0,,,,,,,,,14,,57,100
100200,note_on,0,0,0,,,,,,,,,15,,57,100
100230,note_on,30,0,0,,,,,,,,,13,,73,0
100230,note_on,0,0,0,,,,,,,,,7,,64,0
100230,note_on,0,0,0,,,,,,,,,3,,73,0
100230,note_on,0,0,0,,,,,,,,,0,,73,0
100230,note_on,0,0,0,,,,,,,,,6,,64,0
100230,note_on,0,0,0,,,,,,,,,5,,73,0
100260,note_on,30,0,0,,,,,,,,,8,,57,0
100260,note_on,0,0,0,,,,,,,,,15,,57,0
100260,note_on,0,0,0,,,,,,,,,14,,57,0
100260,note_on,0,0,0,,,,,,,,,10,,45,0
100260,note_on,0,0,0,,,,,,,,,0,,57,0
100260,note_on,0,0,0,,,,,,,,,3,,57,0
100260,note_on,0,0,0,,,,,,,,,0,,74,100
100260,note_on,0,0,0,,,,,,,,,3,,74,100
100260,note_on,0,0,0,,,,,,,,,5,,74,100
100260,note_on,0,0,0,,,,,,,,,6,,66,100
100260,note_on,0,0,0,,,,,,,,,7,,66,100
100260,note_on,0,0,0,,,,,,,,,13,,74,100
100290,note_on,30,0,0,,,,,,,,,13,,74,0
100290,note_on,0,0,0,,,,,,,,,3,,74,0
100290,note_on,0,0,0,,,,,,,,,5,,74,0
100290,note_on,0,0,0,,,,,,,,,0,,74,0
100290,note_on,0,0,0,,,,,,,,,7,,66,0
100290,note_on,0,0,0,,,,,,,,,6,,66,0
100290,note_on,0,0,0,,,,,,,,,0,,76,100
100290,note_on,0,0,0,,,,,,,,,3,,76,100
100290,note_on,0,0,0,,,,,,,,,5,,76,100
100290,note_on,0,0,0,,,,,,,,,6,,68,100
100290,note_on,0,0,0,,,,,,,,,7,,68,100
100290,note_on,0,0,0,,,,,,,,,13,,76,100
100305,note_on,15,0,0,,,,,,,,,13,,76,0
100305,note_on,0,0,0,,,,,,,,,3,,76,0
100305,note_on,0,0,0,,,,,,,,,5,,76,0
100305,note_on,0,0,0,,,,,,,,,0,,76,0
100305,note_on,0,0,0,,,,,,,,,7,,68,0
100305,note_on,0,0,0,,,,,,,,,6,,68,0
100320,note_on,15,0,0,,,,,,,,,0,,50,100
100320,note_on,0,0,0,,,,,,,,,0,,78,100
100320,note_on,0,0,0,,,,,,,,,3,,50,100
100320,note_on,0,0,0,,,,,,,,,3,,78,100
100320,note_on,0,0,0,,,,,,,,,5,,78,100
100320,note_on,0,0,0,,,,,,,,,6,,69,100
100320,note_on,0,0,0,,,,,,,,,7,,69,100
100320,note_on,0,0,0,,,,,,,,,8,,50,100
100320,note_on,0,0,0,,,,,,,,,10,,38,100
100320,note_on,0,0,0,,,,,,,,,13,,78,100
100320,note_on,0,0,0,,,,,,,,,14,,50,100
100320,note_on,0,0,0,,,,,,,,,15,,50,100
100350,note_on,30,0,0,,,,,,,,,13,,78,0
100350,note_on,0,0,0,,,,,,,,,7,,69,0
100350,note_on,0,0,0,,,,,,,,,3,,78,0
100350,note_on,0,0,0,,,,,,,,,0,,78,0
100350,note_on,0,0,0,,,,,,,,,6,,69,0
100350,note_on,0,0,0,,,,,,,,,5,,78,0
100380,note_on,30,0,0,,,,,,,,,0,,50,0
100380,note_on,0,0,0,,,,,,,,,3,,50,0
100380,note_on,0,0,0,,,,,,,,,0,,74,100
100380,note_on,0,0,0,,,,,,,,,3,,74,100
100380,note_on,0,0,0,,,,,,,,,5,,74,100
100380,note_on,0,0,0,,,,,,,,,6,,71,100
100380,note_on,0,0,0,,,,,,,,,7,,71,100
100380,note_on,0,0,0,,,,,,,,,13,,74,100
100410,note_on,30,0,0,,,,,,,,,13,,74,0
100410,note_on,0,0,0,,,,,,,,,10,,38,0
100410,note_on,0,0,0,,,,,,,,,14,,50,0
100410,note_on,0,0,0,,,,,,,,,15,,50,0
100410,note_on,0,0,0,,,,,,,,,0,,74,0
100410,note_on,0,0,0,,,,,,,,,8,,50,0
100410,note_on,0,0,0,,,,,,,,,6,,71,0
100410,note_on,0,0,0,,,,,,,,,5,,74,0
100410,note_on,0,0,0,,,,,,,,,3,,74,0
100410,note_on,0,0,0,,,,,,,,,7,,71,0
100440,note_on,30,0,0,,,,,,,,,0,,52,100
100440,note_on,0,0,0,,,,,,,,,0,,73,100
100440,note_on,0,0,0,,,,,,,,,3,,52,100
100440,note_on,0,0,0,,,,,,,,,3,,73,100
100440,note_on,0,0,0,,,,,,,,,5,,71,100
100440,note_on,0,0,0,,,,,,,,,6,,68,100
100440,note_on,0,0,0,,,,,,,,,7,,68,100
100440,note_on,0,0,0,,,,,,,,,8,,52,100
100440,note_on,0,0,0,,,,,,,,,10,,40,100
100440,note_on,0,0,0,,,,,,,,,13,,71,100
100440,note_on,0,0,0,,,,,,,,,14,,52,100
100440,note_on,0,0,0,,,,,,,,,15,,52,100
100470,note_on,30,0,0,,,,,,,,,15,,52,0
100470,note_on,0,0,0,,,,,,,,,10,,40,0
100470,note_on,0,0,0,,,,,,,,,3,,52,0
100470,note_on,0,0,0,,,,,,,,,8,,52,0
100470,note_on,0,0,0,,,,,,,,,14,,52,0
100470,note_on,0,0,0,,,,,,,,,0,,52,0
100500,note_on,30,0,0,,,,,,,,,7,,68,0
100500,note_on,0,0,0,,,,,,,,,6,,68,0
100500,note_on,0,0,0,,,,,,,,,0,,73,0
100500,note_on,0,0,0,,,,,,,,,3,,73,0
100500,note_on,0,0,0,,,,,,,,,0,,62,100
100500,note_on,0,0,0,,,,,,,,,0,,71,100
100500,note_on,0,0,0,,,,,,,,,3,,62,100
100500,note_on,0,0,0,,,,,,,,,3,,71,100
100500,note_on,0,0,0,,,,,,,,,8,,62,100
100500,note_on,0,0,0,,,,,,,,,10,,50,100
100500,note_on,0,0,0,,,,,,,,,14,,62,100
100500,note_on,0,0,0,,,,,,,,,15,,62,100
100530,note_on,30,0,0,,,,,,,,,15,,62,0
100530,note_on,0,0,0,,,,,,,,,14,,62,0
100530,note_on,0,0,0,,,,,,,,,8,,62,0
100530,note_on,0,0,0,,,,,,,,,13,,71,0
100530,note_on,0,0,0,,,,,,,,,10,,50,0
100530,note_on,0,0,0,,,,,,,,,5,,71,0
100545,note_on,15,0,0,,,,,,,,,0,,71,0
100545,note_on,0,0,0,,,,,,,,,3,,62,0
100545,note_on,0,0,0,,,,,,,,,0,,62,0
100545,note_on,0,0,0,,,,,,,,,3,,71,0
100560,note_on,15,0,0,,,,,,,,,0,,61,100
100560,note_on,0,0,0,,,,,,,,,3,,61,100
100560,note_on,0,0,0,,,,,,,,,8,,61,100
100560,note_on,0,0,0,,,,,,,,,10,,49,100
100560,note_on,0,0,0,,,,,,,,,14,,61,100
100560,note_on,0,0,0,,,,,,,,,15,,61,100
100590,note_on,30,0,0,,,,,,,,,15,,61,0
100590,note_on,0,0,0,,,,,,,,,10,,49,0
100590,note_on,0,0,0,,,,,,,,,8,,61,0
100590,note_on,0,0,0,,,,,,,,,14,,61,0
100605,note_on,15,0,0,,,,,,,,,0,,61,0
100605,note_on,0,0,0,,,,,,,,,3,,61,0
100620,note_on,15,0,0,,,,,,,,,0,,59,100
100620,note_on,0,0,0,,,,,,,,,0,,76,100
100620,note_on,0,0,0,,,,,,,,,3,,59,100
100620,note_on,0,0,0,,,,,,,,,3,,76,100
100620,note_on,0,0,0,,,,,,,,,5,,76,100
100620,note_on,0,0,0,,,,,,,,,6,,68,100
100620,note_on,0,0,0,,,,,,,,,7,,68,100
100620,note_on,0,0,0,,,,,,,,,8,,59,100
100620,note_on,0,0,0,,,,,,,,,10,,47,100
100620,note_on,0,0,0,,,,,,,,,13,,76,100
100620,note_on,0,0,0,,,,,,,,,14,,59,100
100620,note_on,0,0,0,,,,,,,,,15,,59,100
100650,note_on,30,0,0,,,,,,,,,15,,59,0
100650,note_on,0,0,0,,,,,,,,,0,,76,0
100650,note_on,0,0,0,,,,,,,,,8,,59,0
100650,note_on,0,0,0,,,,,,,,,3,,59,0
100650,note_on,0,0,0,,,,,,,,,3,,76,0
100650,note_on,0,0,0,,,,,,,,,0,,59,0
100650,note_on,0,0,0,,,,,,,,,5,,76,0
100650,note_on,0,0,0,,,,,,,,,6,,68,0
100650,note_on,0,0,0,,,,,,,,,10,,47,0
100650,note_on,0,0,0,,,,,,,,,7,,68,0
100650,note_on,0,0,0,,,,,,,,,14,,59,0
100650,note_on,0,0,0,,,,,,,,,13,,76,0
100680,note_on,30,0,0,,,,,,,,,0,,57,100
100680,note_on,0,0,0,,,,,,,,,0,,83,100
100680,note_on,0,0,0,,,,,,,,,3,,57,100
100680,note_on,0,0,0,,,,,,,,,3,,83,100
100680,note_on,0,0,0,,,,,,,,,5,,83,100
100680,note_on,0,0,0,,,,,,,,,6,,73,100
100680,note_on,0,0,0,,,,,,,,,7,,73,100
100680,note_on,0,0,0,,,,,,,,,8,,57,100
100680,note_on,0,0,0,,,,,,,,,10,,45,100
100680,note_on,0,0,0,,,,,,,,,13,,83,100
100680,note_on,0,0,0,,,,,,,,,14,,57,100
100680,note_on,0,0,0,,,,,,,,,15,,57,100
100695,note_on,15,0,0,,,,,,,,,13,,83,0
100695,note_on,0,0,0,,,,,,,,,5,,83,0
100695,note_on,0,0,0,,,,,,,,,3,,83,0
100695,note_on,0,0,0,,,,,,,,,0,,83,0
100695,note_on,0,0,0,,,,,,,,,0,,81,100
100695,note_on,0,0,0,,,,,,,,,3,,81,100
100695,note_on,0,0,0,,,,,,,,,5,,81,100
100695,note_on,0,0,0,,,,,,,,,13,,81,100
100710,note_on,15,0,0,,,,,,,,,13,,81,0
100710,note_on,0,0,0,,,,,,,,,3,,81,0
100710,note_on,0,0,0,,,,,,,,,0,,81,0
100710,note_on,0,0,0,,,,,,,,,5,,81,0
100710,note_on,0,0,0,,,,,,,,,0,,83,100
100710,note_on,0,0,0,,,,,,,,,3,,83,100
100710,note_on,0,0,0,,,,,,,,,5,,83,100
100710,note_on,0,0,0,,,,,,,,,13,,83,100
100725,note_on,15,0,0,,,,,,,,,13,,83,0
100725,note_on,0,0,0,,,,,,,,,3,,83,0
100725,note_on,0,0,0,,,,,,,,,0,,83,0
100725,note_on,0,0,0,,,,,,,,,5,,83,0
100725,note_on,0,0,0,,,,,,,,,0,,81,100
100725,note_on,0,0,0,,,,,,,,,3,,81,100
100725,note_on,0,0,0,,,,,,,,,5,,81,100
100725,note_on,0,0,0,,,,,,,,,13,,81,100
100740,note_on,15,0,0,,,,,,,,,13,,81,0
100740,note_on,0,0,0,,,,,,,,,14,,57,0
100740,note_on,0,0,0,,,,,,,,,3,,57,0
100740,note_on,0,0,0,,,,,,,,,15,,57,0
100740,note_on,0,0,0,,,,,,,,,8,,57,0
100740,note_on,0,0,0,,,,,,,,,0,,57,0
100740,note_on,0,0,0,,,,,,,,,6,,73,0
100740,note_on,0,0,0,,,,,,,,,7,,73,0
100740,note_on,0,0,0,,,,,,,,,0,,81,0
100740,note_on,0,0,0,,,,,,,,,10,,45,0
100740,note_on,0,0,0,,,,,,,,,5,,81,0
100740,note_on,0,0,0,,,,,,,,,3,,81,0
100740,note_on,0,0,0,,,,,,,,,0,,83,100
100740,note_on,0,0,0,,,,,,,,,3,,83,100
100740,note_on,0,0,0,,,,,,,,,5,,83,100
100740,note_on,0,0,0,,,,,,,,,13,,83,100
100755,note_on,15,0,0,,,,,,,,,13,,83,0
100755,note_on,0,0,0,,,,,,,,,0,,83,0
100755,note_on,0,0,0,,,,,,,,,3,,83,0
100755,note_on,0,0,0,,,,,,,,,5,,83,0
100755,note_on,0,0,0,,,,,,,,,0,,81,100
100755,note_on,0,0,0,,,,,,,,,3,,81,100
100755,note_on,0,0,0,,,,,,,,,5,,81,100
100755,note_on,0,0,0,,,,,,,,,13,,81,100
100770,note_on,15,0,0,,,,,,,,,13,,81,0
100770,note_on,0,0,0,,,,,,,,,0,,81,0
100770,note_on,0,0,0,,,,,,,,,3,,81,0
100770,note_on,0,0,0,,,,,,,,,5,,81,0
100770,note_on,0,0,0,,,,,,,,,0,,83,100
100770,note_on,0,0,0,,,,,,,,,3,,83,100
100770,note_on,0,0,0,,,,,,,,,5,,83,100
100770,note_on,0,0,0,,,,,,,,,13,,83,100
100785,note_on,15,0,0,,,,,,,,,13,,83,0
100785,note_on,0,0,0,,,,,,,,,0,,83,0
100785,note_on,0,0,0,,,,,,,,,3,,83,0
100785,note_on,0,0,0,,,,,,,,,5,,83,0
100785,note_on,0,0,0,,,,,,,,,0,,81,100
100785,note_on,0,0,0,,,,,,,,,3,,81,100
100785,note_on,0,0,0,,,,,,,,,5,,81,100
100785,note_on,0,0,0,,,,,,,,,13,,81,100
100800,note_on,15,0,0,,,,,,,,,13,,81,0
100800,note_on,0,0,0,,,,,,,,,0,,81,0
100800,note_on,0,0,0,,,,,,,,,3,,81,0
100800,note_on,0,0,0,,,,,,,,,5,,81,0
100800,note_on,0,0,0,,,,,,,,,0,,59,100
100800,note_on,0,0,0,,,,,,,,,0,,83,100
100800,note_on,0,0,0,,,,,,,,,3,,59,100
100800,note_on,0,0,0,,,,,,,,,3,,83,100
100800,note_on,0,0,0,,,,,,,,,5,,83,100
100800,note_on,0,0,0,,,,,,,,,6,,62,100
100800,note_on,0,0,0,,,,,,,,,7,,62,100
100800,note_on,0,0,0,,,,,,,,,8,,59,100
100800,note_on,0,0,0,,,,,,,,,10,,47,100
100800,note_on,0,0,0,,,,,,,,,13,,83,100
100800,note_on,0,0,0,,,,,,,,,14,,59,100
100800,note_on,0,0,0,,,,,,,,,15,,59,100
100815,note_on,15,0,0,,,,,,,,,13,,83,0
100815,note_on,0,0,0,,,,,,,,,5,,83,0
100815,note_on,0,0,0,,,,,,,,,3,,83,0
100815,note_on,0,0,0,,,,,,,,,0,,83,0
100815,note_on,0,0,0,,,,,,,,,0,,81,100
100815,note_on,0,0,0,,,,,,,,,3,,81,100
100815,note_on,0,0,0,,,,,,,,,5,,81,100
100815,note_on,0,0,0,,,,,,,,,13,,81,100
100830,note_on,15,0,0,,,,,,,,,13,,81,0
100830,note_on,0,0,0,,,,,,,,,3,,81,0
100830,note_on,0,0,0,,,,,,,,,0,,81,0
100830,note_on,0,0,0,,,,,,,,,5,,81,0
100860,note_on,30,0,0,,,,,,,,,10,,47,0
100860,note_on,0,0,0,,,,,,,,,0,,59,0
100860,note_on,0,0,0,,,,,,,,,6,,62,0
100860,note_on,0,0,0,,,,,,,,,15,,59,0
100860,note_on,0,0,0,,,,,,,,,7,,62,0
100860,note_on,0,0,0,,,,,,,,,3,,59,0
100860,note_on,0,0,0,,,,,,,,,14,,59,0
100860,note_on,0,0,0,,,,,,,,,8,,59,0
100860,note_on,0,0,0,,,,,,,,,0,,80,100
100860,note_on,0,0,0,,,,,,,,,3,,80,100
100860,note_on,0,0,0,,,,,,,,,5,,80,100
100860,note_on,0,0,0,,,,,,,,,13,,80,100
100890,note_on,30,0,0,,,,,,,,,13,,80,0
100890,note_on,0,0,0,,,,,,,,,0,,80,0
100890,note_on,0,0,0,,,,,,,,,3,,80,0
100890,note_on,0,0,0,,,,,,,,,5,,80,0
100890,note_on,0,0,0,,,,,,,,,0,,78,100
100890,note_on,0,0,0,,,,,,,,,3,,78,100
100890,note_on,0,0,0,,,,,,,,,5,,78,100
100890,note_on,0,0,0,,,,,,,,,13,,78,100
100905,note_on,15,0,0,,,,,,,,,13,,78,0
100905,note_on,0,0,0,,,,,,,,,0,,78,0
100905,note_on,0,0,0,,,,,,,,,3,,78,0
100905,note_on,0,0,0,,,,,,,,,5,,78,0
100920,note_on,15,0,0,,,,,,,,,0,,61,100
100920,note_on,0,0,0,,,,,,,,,0,,76,100
100920,note_on,0,0,0,,,,,,,,,3,,61,100
100920,note_on,0,0,0,,,,,,,,,3,,76,100
100920,note_on,0,0,0,,,,,,,,,5,,76,100
100920,note_on,0,0,0,,,,,,,,,6,,69,100
100920,note_on,0,0,0,,,,,,,,,7,,69,100
100920,note_on,0,0,0,,,,,,,,,8,,61,100
100920,note_on,0,0,0,,,,,,,,,10,,49,100
100920,note_on,0,0,0,,,,,,,,,13,,76,100
100920,note_on,0,0,0,,,,,,,,,14,,61,100
100920,note_on,0,0,0,,,,,,,,,15,,61,100
100950,note_on,30,0,0,,,,,,,,,13,,76,0
100950,note_on,0,0,0,,,,,,,,,7,,69,0
100950,note_on,0,0,0,,,,,,,,,3,,76,0
100950,note_on,0,0,0,,,,,,,,,0,,76,0
100950,note_on,0,0,0,,,,,,,,,6,,69,0
100950,note_on,0,0,0,,,,,,,,,5,,76,0
100980,note_on,30,0,0,,,,,,,,,8,,61,0
100980,note_on,0,0,0,,,,,,,,,15,,61,0
100980,note_on,0,0,0,,,,,,,,,14,,61,0
100980,note_on,0,0,0,,,,,,,,,10,,49,0
100980,note_on,0,0,0,,,,,,,,,0,,61,0
100980,note_on,0,0,0,,,,,,,,,3,,61,0
100980,note_on,0,0,0,,,,,,,,,0,,81,100
100980,note_on,0,0,0,,,,,,,,,3,,81,100
100980,note_on,0,0,0,,,,,,,,,5,,81,100
100980,note_on,0,0,0,,,,,,,,,6,,64,100
100980,note_on,0,0,0,,,,,,,,,7,,64,100
100980,note_on,0,0,0,,,,,,,,,13,,81,100
101010,note_on,30,0,0,,,,,,,,,13,,81,0
101010,note_on,0,0,0,,,,,,,,,3,,81,0
101010,note_on,0,0,0,,,,,,,,,5,,81,0
101010,note_on,0,0,0,,,,,,,,,0,,81,0
101010,note_on,0,0,0,,,,,,,,,7,,64,0
101010,note_on,0,0,0,,,,,,,,,6,,64,0
101040,note_on,30,0,0,,,,,,,,,0,,57,100
101040,note_on,0,0,0,,,,,,,,,3,,57,100
101040,note_on,0,0,0,,,,,,,,,6,,61,100
101040,note_on,0,0,0,,,,,,,,,7,,61,100
101040,note_on,0,0,0,,,,,,,,,8,,57,100
101040,note_on,0,0,0,,,,,,,,,10,,45,100
101040,note_on,0,0,0,,,,,,,,,14,,57,100
101040,note_on,0,0,0,,,,,,,,,15,,57,100
101100,note_on,60,0,0,,,,,,,,,15,,57,0
101100,note_on,0,0,0,,,,,,,,,14,,57,0
101100,note_on,0,0,0,,,,,,,,,8,,57,0
101100,note_on,0,0,0,,,,,,,,,3,,57,0
101100,note_on,0,0,0,,,,,,,,,0,,57,0
101100,note_on,0,0,0,,,,,,,,,10,,45,0
101100,note_on,0,0,0,,,,,,,,,0,,69,100
101100,note_on,0,0,0,,,,,,,,,3,,69,100
101100,note_on,0,0,0,,,,,,,,,5,,69,100
101100,note_on,0,0,0,,,,,,,,,13,,69,100
101115,note_on,15,0,0,,,,,,,,,7,,61,0
101115,note_on,0,0,0,,,,,,,,,6,,61,0
101130,note_on,15,0,0,,,,,,,,,5,,69,0
101130,note_on,0,0,0,,,,,,,,,3,,69,0
101130,note_on,0,0,0,,,,,,,,,13,,69,0
101130,note_on,0,0,0,,,,,,,,,0,,69,0
101160,note_on,30,0,0,,,,,,,,,0,,54,100
101160,note_on,0,0,0,,,,,,,,,0,,76,100
101160,note_on,0,0,0,,,,,,,,,3,,54,100
101160,note_on,0,0,0,,,,,,,,,3,,76,100
101160,note_on,0,0,0,,,,,,,,,5,,76,100
101160,note_on,0,0,0,,,,,,,,,6,,69,100
101160,note_on,0,0,0,,,,,,,,,7,,69,100
101160,note_on,0,0,0,,,,,,,,,8,,54,100
101160,note_on,0,0,0,,,,,,,,,10,,42,100
101160,note_on,0,0,0,,,,,,,,,13,,76,100
101160,note_on,0,0,0,,,,,,,,,14,,54,100
101160,note_on,0,0,0,,,,,,,,,15,,54,100
101175,note_on,15,0,0,,,,,,,,,13,,76,0
101175,note_on,0,0,0,,,,,,,,,5,,76,0
101175,note_on,0,0,0,,,,,,,,,3,,76,0
101175,note_on,0,0,0,,,,,,,,,0,,76,0
101175,note_on,0,0,0,,,,,,,,,0,,74,100
101175,note_on,0,0,0,,,,,,,,,3,,74,100
101175,note_on,0,0,0,,,,,,,,,5,,74,100
101175,note_on,0,0,0,,,,,,,,,13,,74,100
101190,note_on,15,0,0,,,,,,,,,13,,74,0
101190,note_on,0,0,0,,,,,,,,,3,,74,0
101190,note_on,0,0,0,,,,,,,,,0,,74,0
101190,note_on,0,0,0,,,,,,,,,5,,74,0
101190,note_on,0,0,0,,,,,,,,,0,,76,100
101190,note_on,0,0,0,,,,,,,,,3,,76,100
101190,note_on,0,0,0,,,,,,,,,5,,76,100
101190,note_on,0,0,0,,,,,,,,,13,,76,100
101205,note_on,15,0,0,,,,,,,,,13,,76,0
101205,note_on,0,0,0,,,,,,,,,3,,76,0
101205,note_on,0,0,0,,,,,,,,,0,,76,0
101205,note_on,0,0,0,,,,,,,,,5,,76,0
101205,note_on,0,0,0,,,,,,,,,0,,74,100
101205,note_on,0,0,0,,,,,,,,,3,,74,100
101205,note_on,0,0,0,,,,,,,,,5,,74,100
101205,note_on,0,0,0,,,,,,,,,13,,74,100
101220,note_on,15,0,0,,,,,,,,,13,,74,0
101220,note_on,0,0,0,,,,,,,,,14,,54,0
101220,note_on,0,0,0,,,,,,,,,10,,42,0
101220,note_on,0,0,0,,,,,,,,,15,,54,0
101220,note_on,0,0,0,,,,,,,,,8,,54,0
101220,note_on,0,0,0,,,,,,,,,3,,74,0
101220,note_on,0,0,0,,,,,,,,,0,,54,0
101220,note_on,0,0,0,,,,,,,,,3,,54,0
101220,note_on,0,0,0,,,,,,,,,0,,74,0
101220,note_on,0,0,0,,,,,,,,,5,,74,0
101220,note_on,0,0,0,,,,,,,,,0,,76,100
101220,note_on,0,0,0,,,,,,,,,3,,76,100
101220,note_on,0,0,0,,,,,,,,,5,,76,100
101220,note_on,0,0,0,,,,,,,,,13,,76,100
101235,note_on,15,0,0,,,,,,,,,13,,76,0
101235,note_on,0,0,0,,,,,,,,,6,,69,0
101235,note_on,0,0,0,,,,,,,,,0,,76,0
101235,note_on,0,0,0,,,,,,,,,7,,69,0
101235,note_on,0,0,0,,,,,,,,,5,,76,0
101235,note_on,0,0,0,,,,,,,,,3,,76,0
101235,note_on,0,0,0,,,,,,,,,0,,74,100
101235,note_on,0,0,0,,,,,,,,,3,,74,100
101235,note_on,0,0,0,,,,,,,,,5,,74,100
101235,note_on,0,0,0,,,,,,,,,13,,74,100
101250,note_on,15,0,0,,,,,,,,,13,,74,0
101250,note_on,0,0,0,,,,,,,,,0,,74,0
101250,note_on,0,0,0,,,,,,,,,3,,74,0
101250,note_on,0,0,0,,,,,,,,,5,,74,0
101250,note_on,0,0,0,,,,,,,,,0,,76,100
101250,note_on,0,0,0,,,,,,,,,3,,76,100
101250,note_on,0,0,0,,,,,,,,,5,,76,100
101250,note_on,0,0,0,,,,,,,,,13,,76,100
101265,note_on,15,0,0,,,,,,,,,13,,76,0
101265,note_on,0,0,0,,,,,,,,,0,,76,0
101265,note_on,0,0,0,,,,,,,,,3,,76,0
101265,note_on,0,0,0,,,,,,,,,5,,76,0
101265,note_on,0,0,0,,,,,,,,,0,,74,100
101265,note_on,0,0,0,,,,,,,,,3,,74,100
101265,note_on,0,0,0,,,,,,,,,5,,74,100
101265,note_on,0,0,0,,,,,,,,,13,,74,100
101280,note_on,15,0,0,,,,,,,,,13,,74,0
101280,note_on,0,0,0,,,,,,,,,0,,74,0
101280,note_on,0,0,0,,,,,,,,,3,,74,0
101280,note_on,0,0,0,,,,,,,,,5,,74,0
101280,note_on,0,0,0,,,,,,,,,0,,56,100
101280,note_on,0,0,0,,,,,,,,,0,,76,100
101280,note_on,0,0,0,,,,,,,,,3,,56,100
101280,note_on,0,0,0,,,,,,,,,3,,76,100
101280,note_on,0,0,0,,,,,,,,,5,,76,100
101280,note_on,0,0,0,,,,,,,,,6,,64,100
101280,note_on,0,0,0,,,,,,,,,7,,64,100
101280,note_on,0,0,0,,,,,,,,,8,,56,100
101280,note_on,0,0,0,,,,,,,,,10,,44,100
101280,note_on,0,0,0,,,,,,,,,13,,76,100
101280,note_on,0,0,0,,,,,,,,,14,,56,100
101280,note_on,0,0,0,,,,,,,,,15,,56,100
101295,note_on,15,0,0,,,,,,,,,13,,76,0
101295,note_on,0,0,0,,,,,,,,,5,,76,0
101295,note_on,0,0,0,,,,,,,,,3,,76,0
101295,note_on,0,0,0,,,,,,,,,0,,76,0
101295,note_on,0,0,0,,,,,,,,,0,,74,100
101295,note_on,0,0,0,,,,,,,,,3,,74,100
101295,note_on,0,0,0,,,,,,,,,5,,74,100
101295,note_on,0,0,0,,,,,,,,,13,,74,100
101310,note_on,15,0,0,,,,,,,,,13,,74,0
101310,note_on,0,0,0,,,,,,,,,3,,74,0
101310,note_on,0,0,0,,,,,,,,,0,,74,0
101310,note_on,0,0,0,,,,,,,,,5,,74,0
101340,note_on,30,0,0,,,,,,,,,0,,56,0
101340,note_on,0,0,0,,,,,,,,,8,,56,0
101340,note_on,0,0,0,,,,,,,,,10,,44,0
101340,note_on,0,0,0,,,,,,,,,15,,56,0
101340,note_on,0,0,0,,,,,,,,,3,,56,0
101340,note_on,0,0,0,,,,,,,,,14,,56,0
101340,note_on,0,0,0,,,,,,,,,0,,73,100
101340,note_on,0,0,0,,,,,,,,,3,,73,100
101340,note_on,0,0,0,,,,,,,,,5,,73,100
101340,note_on,0,0,0,,,,,,,,,13,,73,100
101355,note_on,15,0,0,,,,,,,,,6,,64,0
101355,note_on,0,0,0,,,,,,,,,7,,64,0
101370,note_on,15,0,0,,,,,,,,,5,,73,0
101370,note_on,0,0,0,,,,,,,,,3,,73,0
101370,note_on,0,0,0,,,,,,,,,13,,73,0
101370,note_on,0,0,0,,,,,,,,,0,,73,0
101370,note_on,0,0,0,,,,,,,,,0,,71,100
101370,note_on,0,0,0,,,,,,,,,3,,71,100
101370,note_on,0,0,0,,,,,,,,,5,,71,100
101370,note_on,0,0,0,,,,,,,,,13,,71,100
101385,note_on,15,0,0,,,,,,,,,13,,71,0
101385,note_on,0,0,0,,,,,,,,,0,,71,0
101385,note_on,0,0,0,,,,,,,,,3,,71,0
101385,note_on,0,0,0,,,,,,,,,5,,71,0
101400,note_on,15,0,0,,,,,,,,,0,,57,100
101400,note_on,0,0,0,,,,,,,,,0,,73,100
101400,note_on,0,0,0,,,,,,,,,3,,57,100
101400,note_on,0,0,0,,,,,,,,,3,,73,100
101400,note_on,0,0,0,,,,,,,,,5,,73,100
101400,note_on,0,0,0,,,,,,,,,6,,64,100
101400,note_on,0,0,0,,,,,,,,,7,,64,100
101400,note_on,0,0,0,,,,,,,,,8,,57,100
101400,note_on,0,0,0,,,,,,,,,10,,45,100
101400,note_on,0,0,0,,,,,,,,,13,,73,100
101400,note_on,0,0,0,,,,,,,,,14,,57,100
101400,note_on,0,0,0,,,,,,,,,15,,57,100
101430,note_on,30,0,0,,,,,,,,,13,,73,0
101430,note_on,0,0,0,,,,,,,,,7,,64,0
101430,note_on,0,0,0,,,,,,,,,3,,73,0
101430,note_on,0,0,0,,,,,,,,,0,,73,0
101430,note_on,0,0,0,,,,,,,,,6,,64,0
101430,note_on,0,0,0,,,,,,,,,5,,73,0
101460,note_on,30,0,0,,,,,,,,,8,,57,0
101460,note_on,0,0,0,,,,,,,,,15,,57,0
101460,note_on,0,0,0,,,,,,,,,14,,57,0
101460,note_on,0,0,0,,,,,,,,,10,,45,0
101460,note_on,0,0,0,,,,,,,,,0,,57,0
101460,note_on,0,0,0,,,,,,,,,3,,57,0
101460,note_on,0,0,0,,,,,,,,,0,,81,100
101460,note_on,0,0,0,,,,,,,,,3,,81,100
101460,note_on,0,0,0,,,,,,,,,5,,81,100
101460,note_on,0,0,0,,,,,,,,,6,,61,100
101460,note_on,0,0,0,,,,,,,,,7,,61,100
101460,note_on,0,0,0,,,,,,,,,13,,81,100
101490,note_on,30,0,0,,,,,,,,,13,,81,0
101490,note_on,0,0,0,,,,,,,,,3,,81,0
101490,note_on,0,0,0,,,,,,,,,5,,81,0
101490,note_on,0,0,0,,,,,,,,,0,,81,0
101490,note_on,0,0,0,,,,,,,,,7,,61,0
101490,note_on,0,0,0,,,,,,,,,6,,61,0
101520,note_on,30,0,0,,,,,,,,,0,,49,100
101520,note_on,0,0,0,,,,,,,,,3,,49,100
101520,note_on,0,0,0,,,,,,,,,6,,57,100
101520,note_on,0,0,0,,,,,,,,,7,,57,100
101520,note_on,0,0,0,,,,,,,,,8,,49,100
101520,note_on,0,0,0,,,,,,,,,10,,37,100
101520,note_on,0,0,0,,,,,,,,,14,,49,100
101520,note_on,0,0,0,,,,,,,,,15,,49,100
101580,note_on,60,0,0,,,,,,,,,3,,49,0
101580,note_on,0,0,0,,,,,,,,,0,,49,0
101580,note_on,0,0,0,,,,,,,,,0,,64,100
101580,note_on,0,0,0,,,,,,,,,3,,64,100
101580,note_on,0,0,0,,,,,,,,,5,,64,100
101580,note_on,0,0,0,,,,,,,,,13,,64,100
101595,note_on,15,0,0,,,,,,,,,7,,57,0
101595,note_on,0,0,0,,,,,,,,,6,,57,0
101610,note_on,15,0,0,,,,,,,,,14,,49,0
101610,note_on,0,0,0,,,,,,,,,15,,49,0
101610,note_on,0,0,0,,,,,,,,,0,,64,0
101610,note_on,0,0,0,,,,,,,,,10,,37,0
101610,note_on,0,0,0,,,,,,,,,5,,64,0
101610,note_on,0,0,0,,,,,,,,,3,,64,0
101610,note_on,0,0,0,,,,,,,,,8,,49,0
101610,note_on,0,0,0,,,,,,,,,13,,64,0
101640,note_on,30,0,0,,,,,,,,,0,,50,100
101640,note_on,0,0,0,,,,,,,,,0,,66,100
101640,note_on,0,0,0,,,,,,,,,3,,50,100
101640,note_on,0,0,0,,,,,,,,,3,,66,100
101640,note_on,0,0,0,,,,,,,,,5,,66,100
101640,note_on,0,0,0,,,,,,,,,6,,66,100
101640,note_on,0,0,0,,,,,,,,,7,,66,100
101640,note_on,0,0,0,,,,,,,,,8,,50,100
101640,note_on,0,0,0,,,,,,,,,10,,38,100
101640,note_on,0,0,0,,,,,,,,,13,,66,100
101640,note_on,0,0,0,,,,,,,,,14,,50,100
101640,note_on,0,0,0,,,,,,,,,15,,50,100
101670,note_on,30,0,0,,,,,,,,,13,,66,0
101670,note_on,0,0,0,,,,,,,,,5,,66,0
101670,note_on,0,0,0,,,,,,,,,3,,66,0
101670,note_on,0,0,0,,,,,,,,,0,,66,0
101700,note_on,30,0,0,,,,,,,,,8,,50,0
101700,note_on,0,0,0,,,,,,,,,10,,38,0
101700,note_on,0,0,0,,,,,,,,,0,,50,0
101700,note_on,0,0,0,,,,,,,,,3,,50,0
101700,note_on,0,0,0,,,,,,,,,14,,50,0
101700,note_on,0,0,0,,,,,,,,,15,,50,0
101700,note_on,0,0,0,,,,,,,,,0,,74,100
101700,note_on,0,0,0,,,,,,,,,3,,74,100
101700,note_on,0,0,0,,,,,,,,,5,,74,100
101700,note_on,0,0,0,,,,,,,,,13,,74,100
101715,note_on,15,0,0,,,,,,,,,6,,66,0
101715,note_on,0,0,0,,,,,,,,,7,,66,0
101760,note_on,45,0,0,,,,,,,,,0,,47,100
101760,note_on,0,0,0,,,,,,,,,3,,47,100
101760,note_on,0,0,0,,,,,,,,,6,,62,100
101760,note_on,0,0,0,,,,,,,,,7,,62,100
101760,note_on,0,0,0,,,,,,,,,8,,47,100
101760,note_on,0,0,0,,,,,,,,,10,,35,100
101760,note_on,0,0,0,,,,,,,,,14,,47,100
101760,note_on,0,0,0,,,,,,,,,15,,47,100
101790,note_on,30,0,0,,,,,,,,,5,,74,0
101790,note_on,0,0,0,,,,,,,,,0,,74,0
101790,note_on,0,0,0,,,,,,,,,3,,74,0
101790,note_on,0,0,0,,,,,,,,,13,,74,0
101820,note_on,30,0,0,,,,,,,,,8,,47,0
101820,note_on,0,0,0,,,,,,,,,10,,35,0
101820,note_on,0,0,0,,,,,,,,,3,,47,0
101820,note_on,0,0,0,,,,,,,,,15,,47,0
101820,note_on,0,0,0,,,,,,,,,14,,47,0
101820,note_on,0,0,0,,,,,,,,,0,,47,0
101820,note_on,0,0,0,,,,,,,,,0,,66,100
101820,note_on,0,0,0,,,,,,,,,3,,66,100
101820,note_on,0,0,0,,,,,,,,,5,,66,100
101820,note_on,0,0,0,,,,,,,,,13,,66,100
101835,note_on,15,0,0,,,,,,,,,7,,62,0
101835,note_on,0,0,0,,,,,,,,,6,,62,0
101850,note_on,15,0,0,,,,,,,,,5,,66,0
101850,note_on,0,0,0,,,,,,,,,3,,66,0
101850,note_on,0,0,0,,,,,,,,,13,,66,0
101850,note_on,0,0,0,,,,,,,,,0,,66,0
101880,note_on,30,0,0,,,,,,,,,0,,52,100
101880,note_on,0,0,0,,,,,,,,,0,,68,100
101880,note_on,0,0,0,,,,,,,,,3,,52,100
101880,note_on,0,0,0,,,,,,,,,3,,68,100
101880,note_on,0,0,0,,,,,,,,,5,,68,100
101880,note_on,0,0,0,,,,,,,,,6,,59,100
101880,note_on,0,0,0,,,,,,,,,7,,59,100
101880,note_on,0,0,0,,,,,,,,,8,,52,100
101880,note_on,0,0,0,,,,,,,,,10,,40,100
101880,note_on,0,0,0,,,,,,,,,13,,68,100
101880,note_on,0,0,0,,,,,,,,,14,,52,100
101880,note_on,0,0,0,,,,,,,,,15,,52,100
101910,note_on,30,0,0,,,,,,,,,13,,68,0
101910,note_on,0,0,0,,,,,,,,,5,,68,0
101910,note_on,0,0,0,,,,,,,,,3,,68,0
101910,note_on,0,0,0,,,,,,,,,0,,68,0
101940,note_on,30,0,0,,,,,,,,,8,,52,0
101940,note_on,0,0,0,,,,,,,,,10,,40,0
101940,note_on,0,0,0,,,,,,,,,0,,52,0
101940,note_on,0,0,0,,,,,,,,,3,,52,0
101940,note_on,0,0,0,,,,,,,,,14,,52,0
101940,note_on,0,0,0,,,,,,,,,15,,52,0
101940,note_on,0,0,0,,,,,,,,,0,,71,100
101940,note_on,0,0,0,,,,,,,,,3,,71,100
101940,note_on,0,0,0,,,,,,,,,5,,71,100
101940,note_on,0,0,0,,,,,,,,,13,,71,100
101955,note_on,15,0,0,,,,,,,,,6,,59,0
101955,note_on,0,0,0,,,,,,,,,7,,59,0
101970,note_on,15,0,0,,,,,,,,,5,,71,0
101970,note_on,0,0,0,,,,,,,,,3,,71,0
101970,note_on,0,0,0,,,,,,,,,13,,71,0
101970,note_on,0,0,0,,,,,,,,,0,,71,0
102000,note_on,30,0,0,,,,,,,,,0,,59,100
102000,note_on,0,0,0,,,,,,,,,0,,62,100
102000,note_on,0,0,0,,,,,,,,,3,,59,100
102000,note_on,0,0,0,,,,,,,,,3,,62,100
102000,note_on,0,0,0,,,,,,,,,5,,62,100
102000,note_on,0,0,0,,,,,,,,,8,,59,100
102000,note_on,0,0,0,,,,,,,,,10,,47,100
102000,note_on,0,0,0,,,,,,,,,13,,62,100
102000,note_on,0,0,0,,,,,,,,,14,,59,100
102000,note_on,0,0,0,,,,,,,,,15,,59,100
102030,note_on,30,0,0,,,,,,,,,15,,59,0
102030,note_on,0,0,0,,,,,,,,,3,,59,0
102030,note_on,0,0,0,,,,,,,,,3,,62,0
102030,note_on,0,0,0,,,,,,,,,0,,59,0
102030,note_on,0,0,0,,,,,,,,,5,,62,0
102030,note_on,0,0,0,,,,,,,,,0,,62,0
102030,note_on,0,0,0,,,,,,,,,13,,62,0
102030,note_on,0,0,0,,,,,,,,,10,,47,0
102030,note_on,0,0,0,,,,,,,,,8,,59,0
102030,note_on,0,0,0,,,,,,,,,14,,59,0
102060,note_on,30,0,0,,,,,,,,,0,,56,100
102060,note_on,0,0,0,,,,,,,,,0,,74,100
102060,note_on,0,0,0,,,,,,,,,3,,56,100
102060,note_on,0,0,0,,,,,,,,,3,,74,100
102060,note_on,0,0,0,,,,,,,,,5,,74,100
102060,note_on,0,0,0,,,,,,,,,6,,71,100
102060,note_on,0,0,0,,,,,,,,,7,,71,100
102060,note_on,0,0,0,,,,,,,,,8,,56,100
102060,note_on,0,0,0,,,,,,,,,10,,44,100
102060,note_on,0,0,0,,,,,,,,,13,,74,100
102060,note_on,0,0,0,,,,,,,,,14,,56,100
102060,note_on,0,0,0,,,,,,,,,15,,56,100
102090,note_on,30,0,0,,,,,,,,,15,,56,0
102090,note_on,0,0,0,,,,,,,,,0,,74,0
102090,note_on,0,0,0,,,,,,,,,8,,56,0
102090,note_on,0,0,0,,,,,,,,,3,,56,0
102090,note_on,0,0,0,,,,,,,,,3,,74,0
102090,note_on,0,0,0,,,,,,,,,0,,56,0
102090,note_on,0,0,0,,,,,,,,,5,,74,0
102090,note_on,0,0,0,,,,,,,,,6,,71,0
102090,note_on,0,0,0,,,,,,,,,10,,44,0
102090,note_on,0,0,0,,,,,,,,,7,,71,0
102090,note_on,0,0,0,,,,,,,,,14,,56,0
102090,note_on,0,0,0,,,,,,,,,13,,74,0
102120,note_on,30,0,0,,,,,,,,,0,,57,100
102120,note_on,0,0,0,,,,,,,,,0,,73,100
102120,note_on,0,0,0,,,,,,,,,3,,57,100
102120,note_on,0,0,0,,,,,,,,,3,,73,100
102120,note_on,0,0,0,,,,,,,,,5,,73,100
102120,note_on,0,0,0,,,,,,,,,6,,64,100
102120,note_on,0,0,0,,,,,,,,,7,,64,100
102120,note_on,0,0,0,,,,,,,,,8,,57,100
102120,note_on,0,0,0,,,,,,,,,10,,45,100
102120,note_on,0,0,0,,,,,,,,,13,,73,100
102120,note_on,0,0,0,,,,,,,,,14,,57,100
102120,note_on,0,0,0,,,,,,,,,15,,57,100
102135,note_on,15,0,0,,,,,,,,,13,,73,0
102135,note_on,0,0,0,,,,,,,,,5,,73,0
102135,note_on,0,0,0,,,,,,,,,0,,57,0
102135,note_on,0,0,0,,,,,,,,,3,,73,0
102135,note_on,0,0,0,,,,,,,,,3,,57,0
102135,note_on,0,0,0,,,,,,,,,0,,73,0
102150,note_on,15,0,0,,,,,,,,,10,,45,0
102150,note_on,0,0,0,,,,,,,,,8,,57,0
102150,note_on,0,0,0,,,,,,,,,14,,57,0
102150,note_on,0,0,0,,,,,,,,,15,,57,0
102180,note_on,30,0,0,,,,,,,,,0,,49,100
102180,note_on,0,0,0,,,,,,,,,0,,81,100
102180,note_on,0,0,0,,,,,,,,,3,,49,100
102180,note_on,0,0,0,,,,,,,,,3,,81,100
102180,note_on,0,0,0,,,,,,,,,5,,81,100
102180,note_on,0,0,0,,,,,,,,,8,,49,100
102180,note_on,0,0,0,,,,,,,,,10,,37,100
102180,note_on,0,0,0,,,,,,,,,13,,81,100
102180,note_on,0,0,0,,,,,,,,,14,,49,100
102180,note_on,0,0,0,,,,,,,,,15,,49,100
102195,note_on,15,0,0,,,,,,,,,13,,81,0
102195,note_on,0,0,0,,,,,,,,,5,,81,0
102195,note_on,0,0,0,,,,,,,,,6,,64,0
102195,note_on,0,0,0,,,,,,,,,0,,81,0
102195,note_on,0,0,0,,,,,,,,,0,,49,0
102195,note_on,0,0,0,,,,,,,,,3,,81,0
102195,note_on,0,0,0,,,,,,,,,3,,49,0
102195,note_on,0,0,0,,,,,,,,,7,,64,0
102210,note_on,15,0,0,,,,,,,,,14,,49,0
102210,note_on,0,0,0,,,,,,,,,15,,49,0
102210,note_on,0,0,0,,,,,,,,,8,,49,0
102210,note_on,0,0,0,,,,,,,,,10,,37,0
102240,note_on,30,0,0,,,,,,,,,0,,50,100
102240,note_on,0,0,0,,,,,,,,,0,,71,100
102240,note_on,0,0,0,,,,,,,,,3,,50,100
102240,note_on,0,0,0,,,,,,,,,3,,71,100
102240,note_on,0,0,0,,,,,,,,,5,,71,100
102240,note_on,0,0,0,,,,,,,,,6,,66,100
102240,note_on,0,0,0,,,,,,,,,7,,66,100
102240,note_on,0,0,0,,,,,,,,,8,,50,100
102240,note_on,0,0,0,,,,,,,,,10,,38,100
102240,note_on,0,0,0,,,,,,,,,13,,71,100
102240,note_on,0,0,0,,,,,,,,,14,,50,100
102240,note_on,0,0,0,,,,,,,,,15,,50,100
102255,note_on,15,0,0,,,,,,,,,13,,71,0
102255,note_on,0,0,0,,,,,,,,,7,,66,0
102255,note_on,0,0,0,,,,,,,,,0,,50,0
102255,note_on,0,0,0,,,,,,,,,3,,71,0
102255,note_on,0,0,0,,,,,,,,,3,,50,0
102255,note_on,0,0,0,,,,,,,,,6,,66,0
102255,note_on,0,0,0,,,,,,,,,5,,71,0
102255,note_on,0,0,0,,,,,,,,,0,,71,0
102270,note_on,15,0,0,,,,,,,,,14,,50,0
102270,note_on,0,0,0,,,,,,,,,15,,50,0
102270,note_on,0,0,0,,,,,,,,,8,,50,0
102270,note_on,0,0,0,,,,,,,,,10,,38,0
102300,note_on,30,0,0,,,,,,,,,0,,52,100
102300,note_on,0,0,0,,,,,,,,,0,,80,100
102300,note_on,0,0,0,,,,,,,,,3,,52,100
102300,note_on,0,0,0,,,,,,,,,3,,80,100
102300,note_on,0,0,0,,,,,,,,,5,,80,100
102300,note_on,0,0,0,,,,,,,,,6,,64,100
102300,note_on,0,0,0,,,,,,,,,7,,64,100
102300,note_on,0,0,0,,,,,,,,,8,,52,100
102300,note_on,0,0,0,,,,,,,,,10,,40,100
102300,note_on,0,0,0,,,,,,,,,13,,80,100
102300,note_on,0,0,0,,,,,,,,,14,,52,100
102300,note_on,0,0,0,,,,,,,,,15,,52,100
102315,note_on,15,0,0,,,,,,,,,13,,80,0
102315,note_on,0,0,0,,,,,,,,,7,,64,0
102315,note_on,0,0,0,,,,,,,,,0,,52,0
102315,note_on,0,0,0,,,,,,,,,3,,80,0
102315,note_on,0,0,0,,,,,,,,,3,,52,0
102315,note_on,0,0,0,,,,,,,,,6,,64,0
102315,note_on,0,0,0,,,,,,,,,5,,80,0
102315,note_on,0,0,0,,,,,,,,,0,,80,0
102330,note_on,15,0,0,,,,,,,,,14,,52,0
102330,note_on,0,0,0,,,,,,,,,15,,52,0
102330,note_on,0,0,0,,,,,,,,,8,,52,0
102330,note_on,0,0,0,,,,,,,,,10,,40,0
102360,note_on,30,0,0,,,,,,,,,0,,45,100
102360,note_on,0,0,0,,,,,,,,,0,,81,100
102360,note_on,0,0,0,,,,,,,,,3,,45,100
102360,note_on,0,0,0,,,,,,,,,3,,81,100
102360,note_on,0,0,0,,,,,,,,,5,,81,100
102360,note_on,0,0,0,,,,,,,,,6,,61,100
102360,note_on,0,0,0,,,,,,,,,7,,61,100
102360,note_on,0,0,0,,,,,,,,,8,,45,100
102360,note_on,0,0,0,,,,,,,,,10,,33,100
102360,note_on,0,0,0,,,,,,,,,13,,81,100
102360,note_on,0,0,0,,,,,,,,,14,,45,100
102360,note_on,0,0,0,,,,,,,,,15,,45,100
102450,note_on,90,0,0,,,,,,,,,15,,45,0
102450,note_on,0,0,0,,,,,,,,,13,,81,0
102450,note_on,0,0,0,,,,,,,,,8,,45,0
102450,note_on,0,0,0,,,,,,,,,7,,61,0
102450,note_on,0,0,0,,,,,,,,,10,,33,0
102450,note_on,0,0,0,,,,,,,,,14,,45,0
102450,note_on,0,0,0,,,,,,,,,5,,81,0
102450,note_on,0,0,0,,,,,,,,,6,,61,0
102465,note_on,15,0,0,,,,,,,,,3,,45,0
102465,note_on,0,0,0,,,,,,,,,0,,81,0
102465,note_on,0,0,0,,,,,,,,,0,,45,0
102465,note_on,0,0,0,,,,,,,,,3,,81,0
102540,note_on,75,0,0,,,,,,,,,1,,76,100
102540,note_on,0,0,0,,,,,,,,,4,,76,100
102570,note_on,30,0,0,,,,,,,,,4,,76,0
102570,note_on,0,0,0,,,,,,,,,1,,76,0
102596,control_change,26,0,0,,,,,,,11,76,6,,,
102596,control_change,0,0,0,,,,,,,11,75,7,,,
102600,note_on,4,0,0,,,,,,,,,1,,73,100
102600,note_on,0,0,0,,,,,,,,,4,,73,100
102600,note_on,0,0,0,,,,,,,,,6,,57,100
102600,note_on,0,0,0,,,,,,,,,7,,57,100
102660,note_on,60,0,0,,,,,,,,,4,,73,0
102660,note_on,0,0,0,,,,,,,,,1,,73,0
102660,note_on,0,0,0,,,,,,,,,1,,69,100
102660,note_on,0,0,0,,,,,,,,,4,,69,100
102690,note_on,30,0,0,,,,,,,,,4,,69,0
102690,note_on,0,0,0,,,,,,,,,1,,69,0
102720,note_on,30,0,0,,,,,,,,,1,,71,100
102720,note_on,0,0,0,,,,,,,,,4,,71,100
102780,note_on,60,0,0,,,,,,,,,4,,71,0
102780,note_on,0,0,0,,,,,,,,,1,,71,0
102780,note_on,0,0,0,,,,,,,,,1,,64,100
102780,note_on,0,0,0,,,,,,,,,1,,68,100
102780,note_on,0,0,0,,,,,,,,,4,,64,100
102780,note_on,0,0,0,,,,,,,,,4,,68,100
102810,note_on,30,0,0,,,,,,,,,4,,68,0
102810,note_on,0,0,0,,,,,,,,,1,,68,0
102810,note_on,0,0,0,,,,,,,,,1,,64,0
102810,note_on,0,0,0,,,,,,,,,4,,64,0
102840,note_on,30,0,0,,,,,,,,,1,,61,100
102840,note_on,0,0,0,,,,,,,,,1,,69,100
102840,note_on,0,0,0,,,,,,,,,4,,61,100
102840,note_on,0,0,0,,,,,,,,,4,,69,100
102900,note_on,60,0,0,,,,,,,,,4,,69,0
102900,note_on,0,0,0,,,,,,,,,1,,69,0
102900,note_on,0,0,0,,,,,,,,,1,,61,0
102900,note_on,0,0,0,,,,,,,,,4,,61,0
102900,note_on,0,0,0,,,,,,,,,1,,57,100
102900,note_on,0,0,0,,,,,,,,,1,,73,100
102900,note_on,0,0,0,,,,,,,,,4,,57,100
102900,note_on,0,0,0,,,,,,,,,4,,73,100
102930,note_on,30,0,0,,,,,,,,,4,,73,0
102930,note_on,0,0,0,,,,,,,,,1,,73,0
102930,note_on,0,0,0,,,,,,,,,1,,57,0
102930,note_on,0,0,0,,,,,,,,,4,,57,0
102960,note_on,30,0,0,,,,,,,,,1,,59,100
102960,note_on,0,0,0,,,,,,,,,1,,74,100
102960,note_on,0,0,0,,,,,,,,,4,,59,100
102960,note_on,0,0,0,,,,,,,,,4,,74,100
103020,note_on,60,0,0,,,,,,,,,4,,74,0
103020,note_on,0,0,0,,,,,,,,,1,,74,0
103020,note_on,0,0,0,,,,,,,,,1,,59,0
103020,note_on,0,0,0,,,,,,,,,4,,59,0
103020,note_on,0,0,0,,,,,,,,,1,,56,100
103020,note_on,0,0,0,,,,,,,,,1,,71,100
103020,note_on,0,0,0,,,,,,,,,4,,56,100
103020,note_on,0,0,0,,,,,,,,,4,,71,100
103050,note_on,30,0,0,,,,,,,,,4,,71,0
103050,note_on,0,0,0,,,,,,,,,1,,71,0
103050,note_on,0,0,0,,,,,,,,,1,,56,0
103050,note_on,0,0,0,,,,,,,,,4,,56,0
103080,note_on,30,0,0,,,,,,,,,1,,57,100
103080,note_on,0,0,0,,,,,,,,,1,,73,100
103080,note_on,0,0,0,,,,,,,,,4,,57,100
103080,note_on,0,0,0,,,,,,,,,4,,73,100
103140,note_on,60,0,0,,,,,,,,,4,,73,0
103140,note_on,0,0,0,,,,,,,,,1,,73,0
103140,note_on,0,0,0,,,,,,,,,1,,57,0
103140,note_on,0,0,0,,,,,,,,,4,,57,0
103140,note_on,0,0,0,,,,,,,,,1,,61,100
103140,note_on,0,0,0,,,,,,,,,1,,69,100
103140,note_on,0,0,0,,,,,,,,,4,,61,100
103140,note_on,0,0,0,,,,,,,,,4,,69,100
103170,note_on,30,0,0,,,,,,,,,4,,69,0
103170,note_on,0,0,0,,,,,,,,,1,,69,0
103170,note_on,0,0,0,,,,,,,,,1,,61,0
103170,note_on,0,0,0,,,,,,,,,4,,61,0
103200,note_on,30,0,0,,,,,,,,,1,,62,100
103200,note_on,0,0,0,,,,,,,,,1,,71,100
103200,note_on,0,0,0,,,,,,,,,4,,62,100
103200,note_on,0,0,0,,,,,,,,,4,,71,100
103260,note_on,60,0,0,,,,,,,,,4,,71,0
103260,note_on,0,0,0,,,,,,,,,1,,71,0
103260,note_on,0,0,0,,,,,,,,,1,,62,0
103260,note_on,0,0,0,,,,,,,,,4,,62,0
103260,note_on,0,0,0,,,,,,,,,1,,59,100
103260,note_on,0,0,0,,,,,,,,,1,,68,100
103260,note_on,0,0,0,,,,,,,,,4,,59,100
103260,note_on,0,0,0,,,,,,,,,4,,68,100
103290,note_on,30,0,0,,,,,,,,,4,,68,0
103290,note_on,0,0,0,,,,,,,,,1,,68,0
103290,note_on,0,0,0,,,,,,,,,1,,59,0
103290,note_on,0,0,0,,,,,,,,,4,,59,0
103320,note_on,30,0,0,,,,,,,,,1,,69,100
103320,note_on,0,0,0,,,,,,,,,1,,61,100
103320,note_on,0,0,0,,,,,,,,,4,,69,100
103320,note_on,0,0,0,,,,,,,,,4,,61,100
103350,note_on,30,0,0,,,,,,,,,4,,69,0
103350,note_on,0,0,0,,,,,,,,,1,,69,0
103350,note_on,0,0,0,,,,,,,,,1,,71,100
103350,note_on,0,0,0,,,,,,,,,4,,71,100
103380,note_on,30,0,0,,,,,,,,,4,,71,0
103380,note_on,0,0,0,,,,,,,,,4,,61,0
103380,note_on,0,0,0,,,,,,,,,1,,61,0
103380,note_on,0,0,0,,,,,,,,,1,,71,0
103380,note_on,0,0,0,,,,,,,,,1,,73,100
103380,note_on,0,0,0,,,,,,,,,1,,64,100
103380,note_on,0,0,0,,,,,,,,,4,,73,100
103380,note_on,0,0,0,,,,,,,,,4,,64,100
103410,note_on,30,0,0,,,,,,,,,4,,64,0
103410,note_on,0,0,0,,,,,,,,,1,,64,0
103410,note_on,0,0,0,,,,,,,,,1,,73,0
103410,note_on,0,0,0,,,,,,,,,4,,73,0
103440,note_on,30,0,0,,,,,,,,,1,,71,100
103440,note_on,0,0,0,,,,,,,,,1,,56,100
103440,note_on,0,0,0,,,,,,,,,4,,71,100
103440,note_on,0,0,0,,,,,,,,,4,,56,100
103470,note_on,30,0,0,,,,,,,,,4,,71,0
103470,note_on,0,0,0,,,,,,,,,1,,71,0
103470,note_on,0,0,0,,,,,,,,,1,,73,100
103470,note_on,0,0,0,,,,,,,,,4,,73,100
103500,note_on,30,0,0,,,,,,,,,4,,73,0
103500,note_on,0,0,0,,,,,,,,,4,,56,0
103500,note_on,0,0,0,,,,,,,,,1,,56,0
103500,note_on,0,0,0,,,,,,,,,1,,73,0
103500,note_on,0,0,0,,,,,,,,,1,,74,100
103500,note_on,0,0,0,,,,,,,,,1,,59,100
103500,note_on,0,0,0,,,,,,,,,4,,74,100
103500,note_on,0,0,0,,,,,,,,,4,,59,100
103530,note_on,30,0,0,,,,,,,,,4,,59,0
103530,note_on,0,0,0,,,,,,,,,1,,59,0
103530,note_on,0,0,0,,,,,,,,,1,,74,0
103530,note_on,0,0,0,,,,,,,,,4,,74,0
103560,note_on,30,0,0,,,,,,,,,1,,57,100
103560,note_on,0,0,0,,,,,,,,,1,,73,100
103560,note_on,0,0,0,,,,,,,,,4,,57,100
103560,note_on,0,0,0,,,,,,,,,4,,73,100
103590,note_on,30,0,0,,,,,,,,,4,,73,0
103590,note_on,0,0,0,,,,,,,,,1,,73,0
103590,note_on,0,0,0,,,,,,,,,1,,57,0
103590,note_on,0,0,0,,,,,,,,,4,,57,0
103590,note_on,0,0,0,,,,,,,,,1,,59,100
103590,note_on,0,0,0,,,,,,,,,1,,74,100
103590,note_on,0,0,0,,,,,,,,,4,,59,100
103590,note_on,0,0,0,,,,,,,,,4,,74,100
103620,note_on,30,0,0,,,,,,,,,4,,74,0
103620,note_on,0,0,0,,,,,,,,,1,,74,0
103620,note_on,0,0,0,,,,,,,,,1,,59,0
103620,note_on,0,0,0,,,,,,,,,4,,59,0
103620,note_on,0,0,0,,,,,,,,,1,,61,100
103620,note_on,0,0,0,,,,,,,,,1,,76,100
103620,note_on,0,0,0,,,,,,,,,4,,61,100
103620,note_on,0,0,0,,,,,,,,,4,,76,100
103650,note_on,30,0,0,,,,,,,,,4,,76,0
103650,note_on,0,0,0,,,,,,,,,1,,76,0
103650,note_on,0,0,0,,,,,,,,,1,,61,0
103650,note_on,0,0,0,,,,,,,,,4,,61,0
103680,note_on,30,0,0,,,,,,,,,1,,59,100
103680,note_on,0,0,0,,,,,,,,,1,,68,100
103680,note_on,0,0,0,,,,,,,,,4,,59,100
103680,note_on,0,0,0,,,,,,,,,4,,68,100
103710,note_on,30,0,0,,,,,,,,,4,,68,0
103710,note_on,0,0,0,,,,,,,,,1,,68,0
103710,note_on,0,0,0,,,,,,,,,1,,59,0
103710,note_on,0,0,0,,,,,,,,,4,,59,0
103710,note_on,0,0,0,,,,,,,,,1,,61,100
103710,note_on,0,0,0,,,,,,,,,1,,69,100
103710,note_on,0,0,0,,,,,,,,,4,,61,100
103710,note_on,0,0,0,,,,,,,,,4,,69,100
103740,note_on,30,0,0,,,,,,,,,4,,69,0
103740,note_on,0,0,0,,,,,,,,,1,,69,0
103740,note_on,0,0,0,,,,,,,,,1,,61,0
103740,note_on,0,0,0,,,,,,,,,4,,61,0
103740,note_on,0,0,0,,,,,,,,,1,,62,100
103740,note_on,0,0,0,,,,,,,,,1,,71,100
103740,note_on,0,0,0,,,,,,,,,4,,62,100
103740,note_on,0,0,0,,,,,,,,,4,,71,100
103770,note_on,30,0,0,,,,,,,,,4,,71,0
103770,note_on,0,0,0,,,,,,,,,1,,71,0
103770,note_on,0,0,0,,,,,,,,,1,,62,0
103770,note_on,0,0,0,,,,,,,,,4,,62,0
103800,note_on,30,0,0,,,,,,,,,1,,61,100
103800,note_on,0,0,0,,,,,,,,,1,,69,100
103800,note_on,0,0,0,,,,,,,,,4,,61,100
103800,note_on,0,0,0,,,,,,,,,4,,69,100
103830,note_on,30,0,0,,,,,,,,,4,,69,0
103830,note_on,0,0,0,,,,,,,,,1,,69,0
103830,note_on,0,0,0,,,,,,,,,1,,61,0
103830,note_on,0,0,0,,,,,,,,,4,,61,0
103830,note_on,0,0,0,,,,,,,,,1,,62,100
103830,note_on,0,0,0,,,,,,,,,1,,71,100
103830,note_on,0,0,0,,,,,,,,,4,,62,100
103830,note_on,0,0,0,,,,,,,,,4,,71,100
103860,note_on,30,0,0,,,,,,,,,4,,71,0
103860,note_on,0,0,0,,,,,,,,,1,,71,0
103860,note_on,0,0,0,,,,,,,,,1,,62,0
103860,note_on,0,0,0,,,,,,,,,4,,62,0
103860,note_on,0,0,0,,,,,,,,,1,,64,100
103860,note_on,0,0,0,,,,,,,,,1,,73,100
103860,note_on,0,0,0,,,,,,,,,4,,64,100
103860,note_on,0,0,0,,,,,,,,,4,,73,100
103890,note_on,30,0,0,,,,,,,,,4,,73,0
103890,note_on,0,0,0,,,,,,,,,1,,73,0
103890,note_on,0,0,0,,,,,,,,,1,,64,0
103890,note_on,0,0,0,,,,,,,,,4,,64,0
103920,note_on,30,0,0,,,,,,,,,1,,56,100
103920,note_on,0,0,0,,,,,,,,,1,,71,100
103920,note_on,0,0,0,,,,,,,,,4,,56,100
103920,note_on,0,0,0,,,,,,,,,4,,71,100
103950,note_on,30,0,0,,,,,,,,,4,,71,0
103950,note_on,0,0,0,,,,,,,,,1,,71,0
103950,note_on,0,0,0,,,,,,,,,1,,56,0
103950,note_on,0,0,0,,,,,,,,,4,,56,0
103950,note_on,0,0,0,,,,,,,,,1,,57,100
103950,note_on,0,0,0,,,,,,,,,1,,73,100
103950,note_on,0,0,0,,,,,,,,,4,,57,100
103950,note_on,0,0,0,,,,,,,,,4,,73,100
103980,note_on,30,0,0,,,,,,,,,4,,73,0
103980,note_on,0,0,0,,,,,,,,,1,,73,0
103980,note_on,0,0,0,,,,,,,,,1,,57,0
103980,note_on,0,0,0,,,,,,,,,4,,57,0
103980,note_on,0,0,0,,,,,,,,,1,,59,100
103980,note_on,0,0,0,,,,,,,,,1,,74,100
103980,note_on,0,0,0,,,,,,,,,4,,59,100
103980,note_on,0,0,0,,,,,,,,,4,,74,100
104010,note_on,30,0,0,,,,,,,,,4,,74,0
104010,note_on,0,0,0,,,,,,,,,1,,74,0
104010,note_on,0,0,0,,,,,,,,,1,,59,0
104010,note_on,0,0,0,,,,,,,,,4,,59,0
104040,note_on,30,0,0,,,,,,,,,1,,57,100
104040,note_on,0,0,0,,,,,,,,,1,,73,100
104040,note_on,0,0,0,,,,,,,,,4,,57,100
104040,note_on,0,0,0,,,,,,,,,4,,73,100
104070,note_on,30,0,0,,,,,,,,,4,,73,0
104070,note_on,0,0,0,,,,,,,,,1,,73,0
104070,note_on,0,0,0,,,,,,,,,1,,57,0
104070,note_on,0,0,0,,,,,,,,,4,,57,0
104070,note_on,0,0,0,,,,,,,,,1,,59,100
104070,note_on,0,0,0,,,,,,,,,1,,74,100
104070,note_on,0,0,0,,,,,,,,,4,,59,100
104070,note_on,0,0,0,,,,,,,,,4,,74,100
104100,note_on,30,0,0,,,,,,,,,4,,74,0
104100,note_on,0,0,0,,,,,,,,,1,,74,0
104100,note_on,0,0,0,,,,,,,,,1,,59,0
104100,note_on,0,0,0,,,,,,,,,4,,59,0
104100,note_on,0,0,0,,,,,,,,,1,,61,100
104100,note_on,0,0,0,,,,,,,,,1,,76,100
104100,note_on,0,0,0,,,,,,,,,4,,61,100
104100,note_on,0,0,0,,,,,,,,,4,,76,100
104130,note_on,30,0,0,,,,,,,,,4,,76,0
104130,note_on,0,0,0,,,,,,,,,1,,76,0
104130,note_on,0,0,0,,,,,,,,,1,,61,0
104130,note_on,0,0,0,,,,,,,,,4,,61,0
104160,note_on,30,0,0,,,,,,,,,1,,59,100
104160,note_on,0,0,0,,,,,,,,,1,,74,100
104160,note_on,0,0,0,,,,,,,,,4,,59,100
104160,note_on,0,0,0,,,,,,,,,4,,74,100
104190,note_on,30,0,0,,,,,,,,,4,,74,0
104190,note_on,0,0,0,,,,,,,,,1,,74,0
104190,note_on,0,0,0,,,,,,,,,1,,59,0
104190,note_on,0,0,0,,,,,,,,,4,,59,0
104190,note_on,0,0,0,,,,,,,,,1,,61,100
104190,note_on,0,0,0,,,,,,,,,1,,76,100
104190,note_on,0,0,0,,,,,,,,,4,,61,100
104190,note_on,0,0,0,,,,,,,,,4,,76,100
104220,note_on,30,0,0,,,,,,,,,4,,76,0
104220,note_on,0,0,0,,,,,,,,,1,,76,0
104220,note_on,0,0,0,,,,,,,,,1,,61,0
104220,note_on,0,0,0,,,,,,,,,4,,61,0
104220,note_on,0,0,0,,,,,,,,,1,,62,100
104220,note_on,0,0,0,,,,,,,,,1,,78,100
104220,note_on,0,0,0,,,,,,,,,4,,62,100
104220,note_on,0,0,0,,,,,,,,,4,,78,100
104250,note_on,30,0,0,,,,,,,,,4,,78,0
104250,note_on,0,0,0,,,,,,,,,1,,78,0
104250,note_on,0,0,0,,,,,,,,,1,,62,0
104250,note_on,0,0,0,,,,,,,,,4,,62,0
104280,note_on,30,0,0,,,,,,,,,1,,61,100
104280,note_on,0,0,0,,,,,,,,,1,,76,100
104280,note_on,0,0,0,,,,,,,,,4,,61,100
104280,note_on,0,0,0,,,,,,,,,4,,76,100
104370,note_on,90,0,0,,,,,,,,,4,,76,0
104370,note_on,0,0,0,,,,,,,,,1,,76,0
104370,note_on,0,0,0,,,,,,,,,1,,61,0
104370,note_on,0,0,0,,,,,,,,,4,,61,0
104460,note_on,90,0,0,,,,,,,,,1,,81,100
104460,note_on,0,0,0,,,,,,,,,4,,81,100
104490,note_on,30,0,0,,,,,,,,,4,,81,0
104490,note_on,0,0,0,,,,,,,,,1,,81,0
104508,control_change,18,0,0,,,,,,,11,74,10,,,
104513,control_change,5,0,0,,,,,,,11,76,8,,,
104520,note_on,7,0,0,,,,,,,,,1,,78,100
104520,note_on,0,0,0,,,,,,,,,4,,78,100
104520,note_on,0,0,0,,,,,,,,,8,,50,100
104520,note_on,0,0,0,,,,,,,,,10,,38,100
104580,note_on,60,0,0,,,,,,,,,4,,78,0
104580,note_on,0,0,0,,,,,,,,,1,,78,0
104580,note_on,0,0,0,,,,,,,,,1,,74,100
104580,note_on,0,0,0,,,,,,,,,4,,74,100
104610,note_on,30,0,0,,,,,,,,,4,,74,0
104610,note_on,0,0,0,,,,,,,,,1,,74,0
104640,note_on,30,0,0,,,,,,,,,1,,76,100
104640,note_on,0,0,0,,,,,,,,,4,,76,100
104700,note_on,60,0,0,,,,,,,,,4,,76,0
104700,note_on,0,0,0,,,,,,,,,1,,76,0
104700,note_on,0,0,0,,,,,,,,,1,,69,100
104700,note_on,0,0,0,,,,,,,,,1,,73,100
104700,note_on,0,0,0,,,,,,,,,4,,69,100
104700,note_on,0,0,0,,,,,,,,,4,,73,100
104730,note_on,30,0,0,,,,,,,,,4,,73,0
104730,note_on,0,0,0,,,,,,,,,4,,69,0
104730,note_on,0,0,0,,,,,,,,,1,,69,0
104730,note_on,0,0,0,,,,,,,,,1,,73,0
104760,note_on,30,0,0,,,,,,,,,1,,66,100
104760,note_on,0,0,0,,,,,,,,,1,,74,100
104760,note_on,0,0,0,,,,,,,,,4,,66,100
104760,note_on,0,0,0,,,,,,,,,4,,74,100
104820,note_on,60,0,0,,,,,,,,,4,,74,0
104820,note_on,0,0,0,,,,,,,,,4,,66,0
104820,note_on,0,0,0,,,,,,,,,1,,66,0
104820,note_on,0,0,0,,,,,,,,,1,,74,0
104820,note_on,0,0,0,,,,,,,,,1,,62,100
104820,note_on,0,0,0,,,,,,,,,1,,78,100
104820,note_on,0,0,0,,,,,,,,,4,,62,100
104820,note_on,0,0,0,,,,,,,,,4,,78,100
104850,note_on,30,0,0,,,,,,,,,4,,78,0
104850,note_on,0,0,0,,,,,,,,,4,,62,0
104850,note_on,0,0,0,,,,,,,,,1,,62,0
104850,note_on,0,0,0,,,,,,,,,1,,78,0
104880,note_on,30,0,0,,,,,,,,,1,,64,100
104880,note_on,0,0,0,,,,,,,,,1,,79,100
104880,note_on,0,0,0,,,,,,,,,4,,64,100
104880,note_on,0,0,0,,,,,,,,,4,,79,100
104940,note_on,60,0,0,,,,,,,,,4,,79,0
104940,note_on,0,0,0,,,,,,,,,4,,64,0
104940,note_on,0,0,0,,,,,,,,,1,,64,0
104940,note_on,0,0,0,,,,,,,,,1,,79,0
104940,note_on,0,0,0,,,,,,,,,1,,61,100
104940,note_on,0,0,0,,,,,,,,,1,,76,100
104940,note_on,0,0,0,,,,,,,,,4,,61,100
104940,note_on,0,0,0,,,,,,,,,4,,76,100
104970,note_on,30,0,0,,,,,,,,,4,,76,0
104970,note_on,0,0,0,,,,,,,,,4,,61,0
104970,note_on,0,0,0,,,,,,,,,1,,61,0
104970,note_on,0,0,0,,,,,,,,,1,,76,0
105000,note_on,30,0,0,,,,,,,,,1,,62,100
105000,note_on,0,0,0,,,,,,,,,1,,78,100
105000,note_on,0,0,0,,,,,,,,,4,,62,100
105000,note_on,0,0,0,,,,,,,,,4,,78,100
105060,note_on,60,0,0,,,,,,,,,4,,78,0
105060,note_on,0,0,0,,,,,,,,,4,,62,0
105060,note_on,0,0,0,,,,,,,,,1,,62,0
105060,note_on,0,0,0,,,,,,,,,1,,78,0
105060,note_on,0,0,0,,,,,,,,,1,,66,100
105060,note_on,0,0,0,,,,,,,,,1,,74,100
105060,note_on,0,0,0,,,,,,,,,4,,66,100
105060,note_on,0,0,0,,,,,,,,,4,,74,100
105090,note_on,30,0,0,,,,,,,,,4,,74,0
105090,note_on,0,0,0,,,,,,,,,4,,66,0
105090,note_on,0,0,0,,,,,,,,,1,,66,0
105090,note_on,0,0,0,,,,,,,,,1,,74,0
105120,note_on,30,0,0,,,,,,,,,1,,67,100
105120,note_on,0,0,0,,,,,,,,,1,,76,100
105120,note_on,0,0,0,,,,,,,,,4,,67,100
105120,note_on,0,0,0,,,,,,,,,4,,76,100
105180,note_on,60,0,0,,,,,,,,,4,,76,0
105180,note_on,0,0,0,,,,,,,,,4,,67,0
105180,note_on,0,0,0,,,,,,,,,1,,67,0
105180,note_on,0,0,0,,,,,,,,,1,,76,0
105180,note_on,0,0,0,,,,,,,,,1,,64,100
105180,note_on,0,0,0,,,,,,,,,1,,73,100
105180,note_on,0,0,0,,,,,,,,,4,,64,100
105180,note_on,0,0,0,,,,,,,,,4,,73,100
105210,note_on,30,0,0,,,,,,,,,4,,73,0
105210,note_on,0,0,0,,,,,,,,,4,,64,0
105210,note_on,0,0,0,,,,,,,,,1,,64,0
105210,note_on,0,0,0,,,,,,,,,1,,73,0
105240,note_on,30,0,0,,,,,,,,,1,,66,100
105240,note_on,0,0,0,,,,,,,,,1,,74,100
105240,note_on,0,0,0,,,,,,,,,4,,66,100
105240,note_on,0,0,0,,,,,,,,,4,,74,100
105270,note_on,30,0,0,,,,,,,,,4,,74,0
105270,note_on,0,0,0,,,,,,,,,1,,74,0
105270,note_on,0,0,0,,,,,,,,,1,,76,100
105270,note_on,0,0,0,,,,,,,,,4,,76,100
105300,note_on,30,0,0,,,,,,,,,4,,76,0
105300,note_on,0,0,0,,,,,,,,,1,,76,0
105300,note_on,0,0,0,,,,,,,,,4,,66,0
105300,note_on,0,0,0,,,,,,,,,1,,66,0
105300,note_on,0,0,0,,,,,,,,,1,,69,100
105300,note_on,0,0,0,,,,,,,,,1,,78,100
105300,note_on,0,0,0,,,,,,,,,4,,69,100
105300,note_on,0,0,0,,,,,,,,,4,,78,100
105330,note_on,30,0,0,,,,,,,,,4,,78,0
105330,note_on,0,0,0,,,,,,,,,4,,69,0
105330,note_on,0,0,0,,,,,,,,,1,,69,0
105330,note_on,0,0,0,,,,,,,,,1,,78,0
105360,note_on,30,0,0,,,,,,,,,1,,61,100
105360,note_on,0,0,0,,,,,,,,,1,,76,100
105360,note_on,0,0,0,,,,,,,,,4,,61,100
105360,note_on,0,0,0,,,,,,,,,4,,76,100
105390,note_on,30,0,0,,,,,,,,,4,,76,0
105390,note_on,0,0,0,,,,,,,,,1,,76,0
105390,note_on,0,0,0,,,,,,,,,1,,78,100
105390,note_on,0,0,0,,,,,,,,,4,,78,100
105420,note_on,30,0,0,,,,,,,,,4,,78,0
105420,note_on,0,0,0,,,,,,,,,1,,78,0
105420,note_on,0,0,0,,,,,,,,,4,,61,0
105420,note_on,0,0,0,,,,,,,,,1,,61,0
105420,note_on,0,0,0,,,,,,,,,1,,64,100
105420,note_on,0,0,0,,,,,,,,,1,,79,100
105420,note_on,0,0,0,,,,,,,,,4,,64,100
105420,note_on,0,0,0,,,,,,,,,4,,79,100
105450,note_on,30,0,0,,,,,,,,,4,,79,0
105450,note_on,0,0,0,,,,,,,,,4,,64,0
105450,note_on,0,0,0,,,,,,,,,1,,64,0
105450,note_on,0,0,0,,,,,,,,,1,,79,0
105480,note_on,30,0,0,,,,,,,,,1,,62,100
105480,note_on,0,0,0,,,,,,,,,1,,78,100
105480,note_on,0,0,0,,,,,,,,,4,,62,100
105480,note_on,0,0,0,,,,,,,,,4,,78,100
105510,note_on,30,0,0,,,,,,,,,4,,78,0
105510,note_on,0,0,0,,,,,,,,,4,,62,0
105510,note_on,0,0,0,,,,,,,,,1,,62,0
105510,note_on,0,0,0,,,,,,,,,1,,78,0
105510,note_on,0,0,0,,,,,,,,,1,,64,100
105510,note_on,0,0,0,,,,,,,,,1,,79,100
105510,note_on,0,0,0,,,,,,,,,4,,64,100
105510,note_on,0,0,0,,,,,,,,,4,,79,100
105540,note_on,30,0,0,,,,,,,,,4,,79,0
105540,note_on,0,0,0,,,,,,,,,4,,64,0
105540,note_on,0,0,0,,,,,,,,,1,,64,0
105540,note_on,0,0,0,,,,,,,,,1,,79,0
105540,note_on,0,0,0,,,,,,,,,1,,66,100
105540,note_on,0,0,0,,,,,,,,,1,,81,100
105540,note_on,0,0,0,,,,,,,,,4,,66,100
105540,note_on,0,0,0,,,,,,,,,4,,81,100
105570,note_on,30,0,0,,,,,,,,,4,,81,0
105570,note_on,0,0,0,,,,,,,,,4,,66,0
105570,note_on,0,0,0,,,,,,,,,1,,66,0
105570,note_on,0,0,0,,,,,,,,,1,,81,0
105600,note_on,30,0,0,,,,,,,,,1,,64,100
105600,note_on,0,0,0,,,,,,,,,1,,73,100
105600,note_on,0,0,0,,,,,,,,,4,,64,100
105600,note_on,0,0,0,,,,,,,,,4,,73,100
105630,note_on,30,0,0,,,,,,,,,4,,73,0
105630,note_on,0,0,0,,,,,,,,,4,,64,0
105630,note_on,0,0,0,,,,,,,,,1,,64,0
105630,note_on,0,0,0,,,,,,,,,1,,73,0
105630,note_on,0,0,0,,,,,,,,,1,,66,100
105630,note_on,0,0,0,,,,,,,,,1,,74,100
105630,note_on,0,0,0,,,,,,,,,4,,66,100
105630,note_on,0,0,0,,,,,,,,,4,,74,100
105660,note_on,30,0,0,,,,,,,,,4,,74,0
105660,note_on,0,0,0,,,,,,,,,4,,66,0
105660,note_on,0,0,0,,,,,,,,,1,,66,0
105660,note_on,0,0,0,,,,,,,,,1,,74,0
105660,note_on,0,0,0,,,,,,,,,1,,67,100
105660,note_on,0,0,0,,,,,,,,,1,,76,100
105660,note_on,0,0,0,,,,,,,,,4,,67,100
105660,note_on,0,0,0,,,,,,,,,4,,76,100
105690,note_on,30,0,0,,,,,,,,,4,,76,0
105690,note_on,0,0,0,,,,,,,,,4,,67,0
105690,note_on,0,0,0,,,,,,,,,1,,67,0
105690,note_on,0,0,0,,,,,,,,,1,,76,0
105720,note_on,30,0,0,,,,,,,,,1,,66,100
105720,note_on,0,0,0,,,,,,,,,1,,74,100
105720,note_on,0,0,0,,,,,,,,,4,,66,100
105720,note_on,0,0,0,,,,,,,,,4,,74,100
105750,note_on,30,0,0,,,,,,,,,4,,74,0
105750,note_on,0,0,0,,,,,,,,,4,,66,0
105750,note_on,0,0,0,,,,,,,,,1,,66,0
105750,note_on,0,0,0,,,,,,,,,1,,74,0
105750,note_on,0,0,0,,,,,,,,,1,,67,100
105750,note_on,0,0,0,,,,,,,,,1,,76,100
105750,note_on,0,0,0,,,,,,,,,4,,67,100
105750,note_on,0,0,0,,,,,,,,,4,,76,100
105780,note_on,30,0,0,,,,,,,,,4,,76,0
105780,note_on,0,0,0,,,,,,,,,4,,67,0
105780,note_on,0,0,0,,,,,,,,,1,,67,0
105780,note_on,0,0,0,,,,,,,,,1,,76,0
105780,note_on,0,0,0,,,,,,,,,1,,69,100
105780,note_on,0,0,0,,,,,,,,,1,,78,100
105780,note_on,0,0,0,,,,,,,,,4,,69,100
105780,note_on,0,0,0,,,,,,,,,4,,78,100
105810,note_on,30,0,0,,,,,,,,,4,,78,0
105810,note_on,0,0,0,,,,,,,,,4,,69,0
105810,note_on,0,0,0,,,,,,,,,1,,69,0
105810,note_on,0,0,0,,,,,,,,,1,,78,0
105840,note_on,30,0,0,,,,,,,,,1,,61,100
105840,note_on,0,0,0,,,,,,,,,1,,76,100
105840,note_on,0,0,0,,,,,,,,,4,,61,100
105840,note_on,0,0,0,,,,,,,,,4,,76,100
105870,note_on,30,0,0,,,,,,,,,4,,76,0
105870,note_on,0,0,0,,,,,,,,,4,,61,0
105870,note_on,0,0,0,,,,,,,,,1,,61,0
105870,note_on,0,0,0,,,,,,,,,1,,76,0
105870,note_on,0,0,0,,,,,,,,,1,,62,100
105870,note_on,0,0,0,,,,,,,,,1,,78,100
105870,note_on,0,0,0,,,,,,,,,4,,62,100
105870,note_on,0,0,0,,,,,,,,,4,,78,100
105900,note_on,30,0,0,,,,,,,,,4,,78,0
105900,note_on,0,0,0,,,,,,,,,4,,62,0
105900,note_on,0,0,0,,,,,,,,,1,,62,0
105900,note_on,0,0,0,,,,,,,,,1,,78,0
105900,note_on,0,0,0,,,,,,,,,1,,64,100
105900,note_on,0,0,0,,,,,,,,,1,,79,100
105900,note_on,0,0,0,,,,,,,,,4,,64,100
105900,note_on,0,0,0,,,,,,,,,4,,79,100
105930,note_on,30,0,0,,,,,,,,,4,,79,0
105930,note_on,0,0,0,,,,,,,,,4,,64,0
105930,note_on,0,0,0,,,,,,,,,1,,64,0
105930,note_on,0,0,0,,,,,,,,,1,,79,0
105960,note_on,30,0,0,,,,,,,,,1,,62,100
105960,note_on,0,0,0,,,,,,,,,1,,78,100
105960,note_on,0,0,0,,,,,,,,,4,,62,100
105960,note_on,0,0,0,,,,,,,,,4,,78,100
105990,note_on,30,0,0,,,,,,,,,4,,78,0
105990,note_on,0,0,0,,,,,,,,,4,,62,0
105990,note_on,0,0,0,,,,,,,,,1,,62,0
105990,note_on,0,0,0,,,,,,,,,1,,78,0
105990,note_on,0,0,0,,,,,,,,,1,,64,100
105990,note_on,0,0,0,,,,,,,,,1,,79,100
105990,note_on,0,0,0,,,,,,,,,4,,64,100
105990,note_on,0,0,0,,,,,,,,,4,,79,100
106020,note_on,30,0,0,,,,,,,,,4,,79,0
106020,note_on,0,0,0,,,,,,,,,4,,64,0
106020,note_on,0,0,0,,,,,,,,,1,,64,0
106020,note_on,0,0,0,,,,,,,,,1,,79,0
106020,note_on,0,0,0,,,,,,,,,1,,66,100
106020,note_on,0,0,0,,,,,,,,,1,,81,100
106020,note_on,0,0,0,,,,,,,,,4,,66,100
106020,note_on,0,0,0,,,,,,,,,4,,81,100
106050,note_on,30,0,0,,,,,,,,,4,,81,0
106050,note_on,0,0,0,,,,,,,,,4,,66,0
106050,note_on,0,0,0,,,,,,,,,1,,66,0
106050,note_on,0,0,0,,,,,,,,,1,,81,0
106080,note_on,30,0,0,,,,,,,,,1,,64,100
106080,note_on,0,0,0,,,,,,,,,1,,79,100
106080,note_on,0,0,0,,,,,,,,,4,,64,100
106080,note_on,0,0,0,,,,,,,,,4,,79,100
106110,note_on,30,0,0,,,,,,,,,4,,79,0
106110,note_on,0,0,0,,,,,,,,,4,,64,0
106110,note_on,0,0,0,,,,,,,,,1,,64,0
106110,note_on,0,0,0,,,,,,,,,1,,79,0
106110,note_on,0,0,0,,,,,,,,,1,,66,100
106110,note_on,0,0,0,,,,,,,,,1,,81,100
106110,note_on,0,0,0,,,,,,,,,4,,66,100
106110,note_on,0,0,0,,,,,,,,,4,,81,100
106140,note_on,30,0,0,,,,,,,,,4,,81,0
106140,note_on,0,0,0,,,,,,,,,4,,66,0
106140,note_on,0,0,0,,,,,,,,,1,,66,0
106140,note_on,0,0,0,,,,,,,,,1,,81,0
106140,note_on,0,0,0,,,,,,,,,1,,67,100
106140,note_on,0,0,0,,,,,,,,,1,,83,100
106140,note_on,0,0,0,,,,,,,,,4,,67,100
106140,note_on,0,0,0,,,,,,,,,4,,83,100
106170,note_on,30,0,0,,,,,,,,,4,,83,0
106170,note_on,0,0,0,,,,,,,,,4,,67,0
106170,note_on,0,0,0,,,,,,,,,1,,67,0
106170,note_on,0,0,0,,,,,,,,,1,,83,0
106200,note_on,30,0,0,,,,,,,,,1,,67,100
106200,note_on,0,0,0,,,,,,,,,1,,83,100
106200,note_on,0,0,0,,,,,,,,,4,,67,100
106200,note_on,0,0,0,,,,,,,,,4,,83,100
106215,note_on,15,0,0,,,,,,,,,4,,83,0
106215,note_on,0,0,0,,,,,,,,,4,,67,0
106215,note_on,0,0,0,,,,,,,,,1,,67,0
106215,note_on,0,0,0,,,,,,,,,1,,83,0
106215,note_on,0,0,0,,,,,,,,,1,,66,100
106215,note_on,0,0,0,,,,,,,,,1,,81,100
106215,note_on,0,0,0,,,,,,,,,4,,66,100
106215,note_on,0,0,0,,,,,,,,,4,,81,100
106230,note_on,15,0,0,,,,,,,,,4,,81,0
106230,note_on,0,0,0,,,,,,,,,4,,66,0
106230,note_on,0,0,0,,,,,,,,,1,,66,0
106230,note_on,0,0,0,,,,,,,,,6,,57,0
106230,note_on,0,0,0,,,,,,,,,1,,81,0
106230,note_on,0,0,0,,,,,,,,,1,,67,100
106230,note_on,0,0,0,,,,,,,,,1,,83,100
106230,note_on,0,0,0,,,,,,,,,4,,67,100
106230,note_on,0,0,0,,,,,,,,,4,,83,100
106245,note_on,15,0,0,,,,,,,,,4,,83,0
106245,note_on,0,0,0,,,,,,,,,1,,83,0
106245,note_on,0,0,0,,,,,,,,,1,,67,0
106245,note_on,0,0,0,,,,,,,,,4,,67,0
106245,note_on,0,0,0,,,,,,,,,1,,66,100
106245,note_on,0,0,0,,,,,,,,,1,,81,100
106245,note_on,0,0,0,,,,,,,,,4,,66,100
106245,note_on,0,0,0,,,,,,,,,4,,81,100
106258,control_change,13,0,0,,,,,,,11,125,5,,,
106260,note_on,2,0,0,,,,,,,,,4,,81,0
106260,note_on,0,0,0,,,,,,,,,1,,81,0
106260,note_on,0,0,0,,,,,,,,,1,,66,0
106260,note_on,0,0,0,,,,,,,,,4,,66,0
106260,note_on,0,0,0,,,,,,,,,1,,67,100
106260,note_on,0,0,0,,,,,,,,,1,,83,100
106260,note_on,0,0,0,,,,,,,,,4,,67,100
106260,note_on,0,0,0,,,,,,,,,4,,83,100
106260,note_on,0,0,0,,,,,,,,,5,,69,100
106260,note_on,0,0,0,,,,,,,,,13,,69,100
106275,note_on,15,0,0,,,,,,,,,4,,83,0
106275,note_on,0,0,0,,,,,,,,,1,,67,0
106275,note_on,0,0,0,,,,,,,,,4,,67,0
106275,note_on,0,0,0,,,,,,,,,1,,83,0
106275,note_on,0,0,0,,,,,,,,,1,,66,100
106275,note_on,0,0,0,,,,,,,,,1,,81,100
106275,note_on,0,0,0,,,,,,,,,4,,66,100
106275,note_on,0,0,0,,,,,,,,,4,,81,100
106290,note_on,15,0,0,,,,,,,,,4,,81,0
106290,note_on,0,0,0,,,,,,,,,13,,69,0
106290,note_on,0,0,0,,,,,,,,,4,,66,0
106290,note_on,0,0,0,,,,,,,,,5,,69,0
106290,note_on,0,0,0,,,,,,,,,1,,81,0
106290,note_on,0,0,0,,,,,,,,,1,,66,0
106290,note_on,0,0,0,,,,,,,,,1,,67,100
106290,note_on,0,0,0,,,,,,,,,1,,83,100
106290,note_on,0,0,0,,,,,,,,,4,,67,100
106290,note_on,0,0,0,,,,,,,,,4,,83,100
106305,note_on,15,0,0,,,,,,,,,4,,83,0
106305,note_on,0,0,0,,,,,,,,,1,,83,0
106305,note_on,0,0,0,,,,,,,,,1,,67,0
106305,note_on,0,0,0,,,,,,,,,4,,67,0
106305,note_on,0,0,0,,,,,,,,,1,,66,100
106305,note_on,0,0,0,,,,,,,,,1,,81,100
106305,note_on,0,0,0,,,,,,,,,4,,66,100
106305,note_on,0,0,0,,,,,,,,,4,,81,100
106320,note_on,15,0,0,,,,,,,,,5,,74,100
106320,note_on,0,0,0,,,,,,,,,13,,74,100
106350,note_on,30,0,0,,,,,,,,,13,,74,0
106350,note_on,0,0,0,,,,,,,,,1,,66,0
106350,note_on,0,0,0,,,,,,,,,5,,74,0
106350,note_on,0,0,0,,,,,,,,,1,,81,0
106350,note_on,0,0,0,,,,,,,,,4,,81,0
106350,note_on,0,0,0,,,,,,,,,7,,57,0
106350,note_on,0,0,0,,,,,,,,,4,,66,0
106365,note_on,15,0,0,,,,,,,,,8,,50,0
106365,note_on,0,0,0,,,,,,,,,10,,38,0
106376,control_change,11,0,0,,,,,,,11,125,7,,,
106378,control_change,2,0,0,,,,,,,11,126,7,,,
106378,control_change,0,0,0,,,,,,,11,125,8,,,
106380,note_on,2,0,0,,,,,,,,,0,,62,100
106380,note_on,0,0,0,,,,,,,,,0,,78,100
106380,note_on,0,0,0,,,,,,,,,3,,62,100
106380,note_on,0,0,0,,,,,,,,,3,,78,100
106380,note_on,0,0,0,,,,,,,,,5,,78,100
106380,note_on,0,0,0,,,,,,,,,6,,69,100
106380,note_on,0,0,0,,,,,,,,,7,,69,100
106380,note_on,0,0,0,,,,,,,,,8,,62,100
106380,note_on,0,0,0,,,,,,,,,10,,50,100
106380,note_on,0,0,0,,,,,,,,,13,,78,100
106380,note_on,0,0,0,,,,,,,,,14,,62,100
106380,note_on,0,0,0,,,,,,,,,15,,62,100
106382,control_change,2,0,0,,,,,,,11,127,7,,,
106410,note_on,28,0,0,,,,,,,,,15,,62,0
106410,note_on,0,0,0,,,,,,,,,0,,78,0
106410,note_on,0,0,0,,,,,,,,,8,,62,0
106410,note_on,0,0,0,,,,,,,,,3,,62,0
106410,note_on,0,0,0,,,,,,,,,3,,78,0
106410,note_on,0,0,0,,,,,,,,,0,,62,0
106410,note_on,0,0,0,,,,,,,,,5,,78,0
106410,note_on,0,0,0,,,,,,,,,6,,69,0
106410,note_on,0,0,0,,,,,,,,,10,,50,0
106410,note_on,0,0,0,,,,,,,,,7,,69,0
106410,note_on,0,0,0,,,,,,,,,14,,62,0
106410,note_on,0,0,0,,,,,,,,,13,,78,0
106440,note_on,30,0,0,,,,,,,,,0,,61,100
106440,note_on,0,0,0,,,,,,,,,0,,76,100
106440,note_on,0,0,0,,,,,,,,,3,,61,100
106440,note_on,0,0,0,,,,,,,,,3,,76,100
106440,note_on,0,0,0,,,,,,,,,5,,76,100
106440,note_on,0,0,0,,,,,,,,,6,,69,100
106440,note_on,0,0,0,,,,,,,,,7,,69,100
106440,note_on,0,0,0,,,,,,,,,8,,61,100
106440,note_on,0,0,0,,,,,,,,,10,,49,100
106440,note_on,0,0,0,,,,,,,,,13,,76,100
106440,note_on,0,0,0,,,,,,,,,14,,61,100
106440,note_on,0,0,0,,,,,,,,,15,,61,100
106470,note_on,30,0,0,,,,,,,,,13,,76,0
106470,note_on,0,0,0,,,,,,,,,7,,69,0
106470,note_on,0,0,0,,,,,,,,,3,,76,0
106470,note_on,0,0,0,,,,,,,,,0,,76,0
106470,note_on,0,0,0,,,,,,,,,6,,69,0
106470,note_on,0,0,0,,,,,,,,,5,,76,0
106500,note_on,30,0,0,,,,,,,,,0,,61,0
106500,note_on,0,0,0,,,,,,,,,3,,61,0
106500,note_on,0,0,0,,,,,,,,,0,,81,100
106500,note_on,0,0,0,,,,,,,,,3,,81,100
106500,note_on,0,0,0,,,,,,,,,5,,81,100
106500,note_on,0,0,0,,,,,,,,,6,,64,100
106500,note_on,0,0,0,,,,,,,,,7,,64,100
106500,note_on,0,0,0,,,,,,,,,13,,81,100
106530,note_on,30,0,0,,,,,,,,,13,,81,0
106530,note_on,0,0,0,,,,,,,,,10,,49,0
106530,note_on,0,0,0,,,,,,,,,14,,61,0
106530,note_on,0,0,0,,,,,,,,,15,,61,0
106530,note_on,0,0,0,,,,,,,,,0,,81,0
106530,note_on,0,0,0,,,,,,,,,8,,61,0
106530,note_on,0,0,0,,,,,,,,,6,,64,0
106530,note_on,0,0,0,,,,,,,,,5,,81,0
106530,note_on,0,0,0,,,,,,,,,3,,81,0
106530,note_on,0,0,0,,,,,,,,,7,,64,0
106560,note_on,30,0,0,,,,,,,,,0,,59,100
106560,note_on,0,0,0,,,,,,,,,0,,74,100
106560,note_on,0,0,0,,,,,,,,,3,,59,100
106560,note_on,0,0,0,,,,,,,,,3,,74,100
106560,note_on,0,0,0,,,,,,,,,5,,74,100
106560,note_on,0,0,0,,,,,,,,,6,,66,100
106560,note_on,0,0,0,,,,,,,,,7,,66,100
106560,note_on,0,0,0,,,,,,,,,8,,59,100
106560,note_on,0,0,0,,,,,,,,,10,,47,100
106560,note_on,0,0,0,,,,,,,,,13,,74,100
106560,note_on,0,0,0,,,,,,,,,14,,59,100
106560,note_on,0,0,0,,,,,,,,,15,,59,100
106590,note_on,30,0,0,,,,,,,,,13,,74,0
106590,note_on,0,0,0,,,,,,,,,7,,66,0
106590,note_on,0,0,0,,,,,,,,,3,,74,0
106590,note_on,0,0,0,,,,,,,,,0,,74,0
106590,note_on,0,0,0,,,,,,,,,6,,66,0
106590,note_on,0,0,0,,,,,,,,,5,,74,0
106620,note_on,30,0,0,,,,,,,,,0,,59,0
106620,note_on,0,0,0,,,,,,,,,3,,59,0
106620,note_on,0,0,0,,,,,,,,,0,,83,100
106620,note_on,0,0,0,,,,,,,,,3,,83,100
106620,note_on,0,0,0,,,,,,,,,5,,83,100
106620,note_on,0,0,0,,,,,,,,,6,,68,100
106620,note_on,0,0,0,,,,,,,,,7,,68,100
106620,note_on,0,0,0,,,,,,,,,13,,83,100
106650,note_on,30,0,0,,,,,,,,,13,,83,0
106650,note_on,0,0,0,,,,,,,,,10,,47,0
106650,note_on,0,0,0,,,,,,,,,14,,59,0
106650,note_on,0,0,0,,,,,,,,,15,,59,0
106650,note_on,0,0,0,,,,,,,,,0,,83,0
106650,note_on,0,0,0,,,,,,,,,8,,59,0
106650,note_on,0,0,0,,,,,,,,,6,,68,0
106650,note_on,0,0,0,,,,,,,,,5,,83,0
106650,note_on,0,0,0,,,,,,,,,3,,83,0
106650,note_on,0,0,0,,,,,,,,,7,,68,0
106680,note_on,30,0,0,,,,,,,,,0,,57,100
106680,note_on,0,0,0,,,,,,,,,0,,73,100
106680,note_on,0,0,0,,,,,,,,,3,,57,100
106680,note_on,0,0,0,,,,,,,,,3,,73,100
106680,note_on,0,0,0,,,,,,,,,5,,73,100
106680,note_on,0,0,0,,,,,,,,,6,,69,100
106680,note_on,0,0,0,,,,,,,,,7,,69,100
106680,note_on,0,0,0,,,,,,,,,8,,57,100
106680,note_on,0,0,0,,,,,,,,,10,,45,100
106680,note_on,0,0,0,,,,,,,,,13,,73,100
106680,note_on,0,0,0,,,,,,,,,14,,57,100
106680,note_on,0,0,0,,,,,,,,,15,,57,100
106710,note_on,30,0,0,,,,,,,,,13,,73,0
106710,note_on,0,0,0,,,,,,,,,5,,73,0
106710,note_on,0,0,0,,,,,,,,,3,,73,0
106710,note_on,0,0,0,,,,,,,,,0,,73,0
106710,note_on,0,0,0,,,,,,,,,0,,71,100
106710,note_on,0,0,0,,,,,,,,,3,,71,100
106710,note_on,0,0,0,,,,,,,,,5,,71,100
106710,note_on,0,0,0,,,,,,,,,13,,71,100
106740,note_on,30,0,0,,,,,,,,,13,,71,0
106740,note_on,0,0,0,,,,,,,,,3,,71,0
106740,note_on,0,0,0,,,,,,,,,0,,71,0
106740,note_on,0,0,0,,,,,,,,,0,,57,0
106740,note_on,0,0,0,,,,,,,,,5,,71,0
106740,note_on,0,0,0,,,,,,,,,3,,57,0
106740,note_on,0,0,0,,,,,,,,,0,,69,100
106740,note_on,0,0,0,,,,,,,,,3,,69,100
106740,note_on,0,0,0,,,,,,,,,5,,69,100
106740,note_on,0,0,0,,,,,,,,,13,,69,100
106755,note_on,15,0,0,,,,,,,,,6,,69,0
106755,note_on,0,0,0,,,,,,,,,7,,69,0
106770,note_on,15,0,0,,,,,,,,,8,,57,0
106770,note_on,0,0,0,,,,,,,,,10,,45,0
106770,note_on,0,0,0,,,,,,,,,0,,69,0
106770,note_on,0,0,0,,,,,,,,,15,,57,0
106770,note_on,0,0,0,,,,,,,,,5,,69,0
106770,note_on,0,0,0,,,,,,,,,3,,69,0
106770,note_on,0,0,0,,,,,,,,,14,,57,0
106770,note_on,0,0,0,,,,,,,,,13,,69,0
106800,note_on,30,0,0,,,,,,,,,0,,45,100
106800,note_on,0,0,0,,,,,,,,,3,,45,100
106800,note_on,0,0,0,,,,,,,,,6,,64,100
106800,note_on,0,0,0,,,,,,,,,7,,64,100
106800,note_on,0,0,0,,,,,,,,,8,,45,100
106800,note_on,0,0,0,,,,,,,,,10,,33,100
106800,note_on,0,0,0,,,,,,,,,14,,45,100
106800,note_on,0,0,0,,,,,,,,,15,,45,100
106860,note_on,60,0,0,,,,,,,,,3,,45,0
106860,note_on,0,0,0,,,,,,,,,0,,45,0
106860,note_on,0,0,0,,,,,,,,,0,,73,100
106860,note_on,0,0,0,,,,,,,,,3,,73,100
106860,note_on,0,0,0,,,,,,,,,5,,73,100
106860,note_on,0,0,0,,,,,,,,,13,,73,100
106875,note_on,15,0,0,,,,,,,,,7,,64,0
106875,note_on,0,0,0,,,,,,,,,6,,64,0
106890,note_on,15,0,0,,,,,,,,,14,,45,0
106890,note_on,0,0,0,,,,,,,,,15,,45,0
106890,note_on,0,0,0,,,,,,,,,0,,73,0
106890,note_on,0,0,0,,,,,,,,,10,,33,0
106890,note_on,0,0,0,,,,,,,,,5,,73,0
106890,note_on,0,0,0,,,,,,,,,3,,73,0
106890,note_on,0,0,0,,,,,,,,,8,,45,0
106890,note_on,0,0,0,,,,,,,,,13,,73,0
106920,note_on,30,0,0,,,,,,,,,0,,44,100
106920,note_on,0,0,0,,,,,,,,,0,,71,100
106920,note_on,0,0,0,,,,,,,,,3,,44,100
106920,note_on,0,0,0,,,,,,,,,3,,71,100
106920,note_on,0,0,0,,,,,,,,,5,,71,100
106920,note_on,0,0,0,,,,,,,,,6,,64,100
106920,note_on,0,0,0,,,,,,,,,7,,64,100
106920,note_on,0,0,0,,,,,,,,,8,,44,100
106920,note_on,0,0,0,,,,,,,,,10,,32,100
106920,note_on,0,0,0,,,,,,,,,13,,71,100
106920,note_on,0,0,0,,,,,,,,,14,,44,100
106920,note_on,0,0,0,,,,,,,,,15,,44,100
106950,note_on,30,0,0,,,,,,,,,13,,71,0
106950,note_on,0,0,0,,,,,,,,,7,,64,0
106950,note_on,0,0,0,,,,,,,,,3,,71,0
106950,note_on,0,0,0,,,,,,,,,0,,71,0
106950,note_on,0,0,0,,,,,,,,,6,,64,0
106950,note_on,0,0,0,,,,,,,,,5,,71,0
106980,note_on,30,0,0,,,,,,,,,0,,44,0
106980,note_on,0,0,0,,,,,,,,,3,,44,0
106980,note_on,0,0,0,,,,,,,,,0,,76,100
106980,note_on,0,0,0,,,,,,,,,3,,76,100
106980,note_on,0,0,0,,,,,,,,,5,,76,100
106980,note_on,0,0,0,,,,,,,,,6,,59,100
106980,note_on,0,0,0,,,,,,,,,7,,59,100
106980,note_on,0,0,0,,,,,,,,,13,,76,100
107010,note_on,30,0,0,,,,,,,,,13,,76,0
107010,note_on,0,0,0,,,,,,,,,10,,32,0
107010,note_on,0,0,0,,,,,,,,,14,,44,0
107010,note_on,0,0,0,,,,,,,,,15,,44,0
107010,note_on,0,0,0,,,,,,,,,0,,76,0
107010,note_on,0,0,0,,,,,,,,,8,,44,0
107010,note_on,0,0,0,,,,,,,,,6,,59,0
107010,note_on,0,0,0,,,,,,,,,5,,76,0
107010,note_on,0,0,0,,,,,,,,,3,,76,0
107010,note_on,0,0,0,,,,,,,,,7,,59,0
107040,note_on,30,0,0,,,,,,,,,0,,42,100
107040,note_on,0,0,0,,,,,,,,,0,,69,100
107040,note_on,0,0,0,,,,,,,,,3,,42,100
107040,note_on,0,0,0,,,,,,,,,3,,69,100
107040,note_on,0,0,0,,,,,,,,,5,,69,100
107040,note_on,0,0,0,,,,,,,,,6,,61,100
107040,note_on,0,0,0,,,,,,,,,7,,61,100
107040,note_on,0,0,0,,,,,,,,,8,,42,100
107040,note_on,0,0,0,,,,,,,,,10,,30,100
107040,note_on,0,0,0,,,,,,,,,13,,69,100
107040,note_on,0,0,0,,,,,,,,,14,,42,100
107040,note_on,0,0,0,,,,,,,,,15,,42,100
107070,note_on,30,0,0,,,,,,,,,13,,69,0
107070,note_on,0,0,0,,,,,,,,,7,,61,0
107070,note_on,0,0,0,,,,,,,,,3,,69,0
107070,note_on,0,0,0,,,,,,,,,0,,69,0
107070,note_on,0,0,0,,,,,,,,,6,,61,0
107070,note_on,0,0,0,,,,,,,,,5,,69,0
107100,note_on,30,0,0,,,,,,,,,0,,42,0
107100,note_on,0,0,0,,,,,,,,,3,,42,0
107100,note_on,0,0,0,,,,,,,,,0,,78,100
107100,note_on,0,0,0,,,,,,,,,3,,78,100
107100,note_on,0,0,0,,,,,,,,,5,,78,100
107100,note_on,0,0,0,,,,,,,,,6,,63,100
107100,note_on,0,0,0,,,,,,,,,7,,63,100
107100,note_on,0,0,0,,,,,,,,,13,,78,100
107130,note_on,30,0,0,,,,,,,,,13,,78,0
107130,note_on,0,0,0,,,,,,,,,10,,30,0
107130,note_on,0,0,0,,,,,,,,,14,,42,0
107130,note_on,0,0,0,,,,,,,,,15,,42,0
107130,note_on,0,0,0,,,,,,,,,0,,78,0
107130,note_on,0,0,0,,,,,,,,,8,,42,0
107130,note_on,0,0,0,,,,,,,,,6,,63,0
107130,note_on,0,0,0,,,,,,,,,5,,78,0
107130,note_on,0,0,0,,,,,,,,,3,,78,0
107130,note_on,0,0,0,,,,,,,,,7,,63,0
107160,note_on,30,0,0,,,,,,,,,0,,52,100
107160,note_on,0,0,0,,,,,,,,,0,,40,100
107160,note_on,0,0,0,,,,,,,,,0,,68,100
107160,note_on,0,0,0,,,,,,,,,3,,52,100
107160,note_on,0,0,0,,,,,,,,,3,,40,100
107160,note_on,0,0,0,,,,,,,,,3,,68,100
107160,note_on,0,0,0,,,,,,,,,5,,68,100
107160,note_on,0,0,0,,,,,,,,,6,,64,100
107160,note_on,0,0,0,,,,,,,,,7,,64,100
107160,note_on,0,0,0,,,,,,,,,8,,40,100
107160,note_on,0,0,0,,,,,,,,,10,,28,100
107160,note_on,0,0,0,,,,,,,,,13,,68,100
107160,note_on,0,0,0,,,,,,,,,14,,40,100
107160,note_on,0,0,0,,,,,,,,,15,,40,100
107190,note_on,30,0,0,,,,,,,,,13,,68,0
107190,note_on,0,0,0,,,,,,,,,5,,68,0
107190,note_on,0,0,0,,,,,,,,,3,,68,0
107190,note_on,0,0,0,,,,,,,,,0,,68,0
107190,note_on,0,0,0,,,,,,,,,0,,66,100
107190,note_on,0,0,0,,,,,,,,,3,,66,100
107190,note_on,0,0,0,,,,,,,,,5,,66,100
107190,note_on,0,0,0,,,,,,,,,13,,66,100
107220,note_on,30,0,0,,,,,,,,,13,,66,0
107220,note_on,0,0,0,,,,,,,,,3,,40,0
107220,note_on,0,0,0,,,,,,,,,0,,40,0
107220,note_on,0,0,0,,,,,,,,,0,,52,0
107220,note_on,0,0,0,,,,,,,,,3,,52,0
107220,note_on,0,0,0,,,,,,,,,5,,66,0
107220,note_on,0,0,0,,,,,,,,,0,,66,0
107220,note_on,0,0,0,,,,,,,,,3,,66,0
107220,note_on,0,0,0,,,,,,,,,0,,64,100
107220,note_on,0,0,0,,,,,,,,,3,,64,100
107220,note_on,0,0,0,,,,,,,,,5,,64,100
107220,note_on,0,0,0,,,,,,,,,13,,64,100
107250,note_on,30,0,0,,,,,,,,,13,,64,0
107250,note_on,0,0,0,,,,,,,,,15,,40,0
107250,note_on,0,0,0,,,,,,,,,14,,40,0
107250,note_on,0,0,0,,,,,,,,,10,,28,0
107250,note_on,0,0,0,,,,,,,,,6,,64,0
107250,note_on,0,0,0,,,,,,,,,8,,40,0
107250,note_on,0,0,0,,,,,,,,,3,,64,0
107250,note_on,0,0,0,,,,,,,,,0,,64,0
107250,note_on,0,0,0,,,,,,,,,7,,64,0
107250,note_on,0,0,0,,,,,,,,,5,,64,0
107360,note_on,110,0,0,,,,,,,,,1,,56,100
107360,note_on,0,0,0,,,,,,,,,1,,64,100
107360,note_on,0,0,0,,,,,,,,,1,,71,100
107360,note_on,0,0,0,,,,,,,,,4,,56,100
107360,note_on,0,0,0,,,,,,,,,4,,64,100
107360,note_on,0,0,0,,,,,,,,,4,,71,100
107390,note_on,30,0,0,,,,,,,,,4,,71,0
107390,note_on,0,0,0,,,,,,,,,1,,64,0
107390,note_on,0,0,0,,,,,,,,,1,,71,0
107390,note_on,0,0,0,,,,,,,,,1,,56,0
107390,note_on,0,0,0,,,,,,,,,4,,64,0
107390,note_on,0,0,0,,,,,,,,,4,,56,0
107400,note_on,10,0,0,,,,,,,,,1,,61,100
107400,note_on,0,0,0,,,,,,,,,1,,57,100
107400,note_on,0,0,0,,,,,,,,,1,,73,100
107400,note_on,0,0,0,,,,,,,,,4,,61,100
107400,note_on,0,0,0,,,,,,,,,4,,57,100
107400,note_on,0,0,0,,,,,,,,,4,,73,100
107430,note_on,30,0,0,,,,,,,,,4,,73,0
107430,note_on,0,0,0,,,,,,,,,1,,73,0
107440,note_on,10,0,0,,,,,,,,,1,,75,100
107440,note_on,0,0,0,,,,,,,,,4,,75,100
107470,note_on,30,0,0,,,,,,,,,4,,75,0
107470,note_on,0,0,0,,,,,,,,,1,,75,0
107480,note_on,10,0,0,,,,,,,,,1,,76,100
107480,note_on,0,0,0,,,,,,,,,4,,76,100
107500,note_on,20,0,0,,,,,,,,,4,,57,0
107500,note_on,0,0,0,,,,,,,,,4,,61,0
107500,note_on,0,0,0,,,,,,,,,1,,61,0
107500,note_on,0,0,0,,,,,,,,,1,,57,0
107510,note_on,10,0,0,,,,,,,,,4,,76,0
107510,note_on,0,0,0,,,,,,,,,1,,76,0
107520,note_on,10,0,0,,,,,,,,,1,,54,100
107520,note_on,0,0,0,,,,,,,,,1,,63,100
107520,note_on,0,0,0,,,,,,,,,1,,78,100
107520,note_on,0,0,0,,,,,,,,,4,,54,100
107520,note_on,0,0,0,,,,,,,,,4,,63,100
107520,note_on,0,0,0,,,,,,,,,4,,78,100
107550,note_on,30,0,0,,,,,,,,,4,,78,0
107550,note_on,0,0,0,,,,,,,,,1,,78,0
107560,note_on,10,0,0,,,,,,,,,1,,80,100
107560,note_on,0,0,0,,,,,,,,,4,,80,100
107590,note_on,30,0,0,,,,,,,,,4,,80,0
107590,note_on,0,0,0,,,,,,,,,1,,80,0
107600,note_on,10,0,0,,,,,,,,,1,,81,100
107600,note_on,0,0,0,,,,,,,,,4,,81,100
107620,note_on,20,0,0,,,,,,,,,4,,63,0
107620,note_on,0,0,0,,,,,,,,,4,,54,0
107620,note_on,0,0,0,,,,,,,,,1,,54,0
107620,note_on,0,0,0,,,,,,,,,1,,63,0
107630,note_on,10,0,0,,,,,,,,,4,,81,0
107630,note_on,0,0,0,,,,,,,,,1,,81,0
107640,note_on,10,0,0,,,,,,,,,1,,64,100
107640,note_on,0,0,0,,,,,,,,,1,,56,100
107640,note_on,0,0,0,,,,,,,,,1,,71,100
107640,note_on,0,0,0,,,,,,,,,4,,64,100
107640,note_on,0,0,0,,,,,,,,,4,,56,100
107640,note_on,0,0,0,,,,,,,,,4,,71,100
107670,note_on,30,0,0,,,,,,,,,4,,71,0
107670,note_on,0,0,0,,,,,,,,,1,,71,0
107680,note_on,10,0,0,,,,,,,,,1,,73,100
107680,note_on,0,0,0,,,,,,,,,4,,73,100
107710,note_on,30,0,0,,,,,,,,,4,,73,0
107710,note_on,0,0,0,,,,,,,,,1,,73,0
107720,note_on,10,0,0,,,,,,,,,1,,75,100
107720,note_on,0,0,0,,,,,,,,,4,,75,100
107740,note_on,20,0,0,,,,,,,,,4,,56,0
107740,note_on,0,0,0,,,,,,,,,4,,64,0
107740,note_on,0,0,0,,,,,,,,,1,,64,0
107740,note_on,0,0,0,,,,,,,,,1,,56,0
107750,note_on,10,0,0,,,,,,,,,4,,75,0
107750,note_on,0,0,0,,,,,,,,,1,,75,0
107760,note_on,10,0,0,,,,,,,,,1,,52,100
107760,note_on,0,0,0,,,,,,,,,1,,76,100
107760,note_on,0,0,0,,,,,,,,,1,,56,100
107760,note_on,0,0,0,,,,,,,,,4,,52,100
107760,note_on,0,0,0,,,,,,,,,4,,76,100
107760,note_on,0,0,0,,,,,,,,,4,,56,100
107790,note_on,30,0,0,,,,,,,,,4,,76,0
107790,note_on,0,0,0,,,,,,,,,1,,76,0
107800,note_on,10,0,0,,,,,,,,,1,,78,100
107800,note_on,0,0,0,,,,,,,,,4,,78,100
107830,note_on,30,0,0,,,,,,,,,4,,78,0
107830,note_on,0,0,0,,,,,,,,,1,,78,0
107840,note_on,10,0,0,,,,,,,,,1,,80,100
107840,note_on,0,0,0,,,,,,,,,4,,80,100
107860,note_on,20,0,0,,,,,,,,,1,,56,0
107860,note_on,0,0,0,,,,,,,,,4,,52,0
107860,note_on,0,0,0,,,,,,,,,1,,52,0
107860,note_on,0,0,0,,,,,,,,,4,,56,0
107870,note_on,10,0,0,,,,,,,,,4,,80,0
107870,note_on,0,0,0,,,,,,,,,1,,80,0
107880,note_on,10,0,0,,,,,,,,,1,,52,100
107880,note_on,0,0,0,,,,,,,,,1,,57,100
107880,note_on,0,0,0,,,,,,,,,1,,49,100
107880,note_on,0,0,0,,,,,,,,,1,,69,100
107880,note_on,0,0,0,,,,,,,,,4,,52,100
107880,note_on,0,0,0,,,,,,,,,4,,57,100
107880,note_on,0,0,0,,,,,,,,,4,,49,100
107880,note_on,0,0,0,,,,,,,,,4,,69,100
107910,note_on,30,0,0,,,,,,,,,4,,69,0
107910,note_on,0,0,0,,,,,,,,,1,,69,0
107920,note_on,10,0,0,,,,,,,,,1,,71,100
107920,note_on,0,0,0,,,,,,,,,4,,71,100
107950,note_on,30,0,0,,,,,,,,,4,,71,0
107950,note_on,0,0,0,,,,,,,,,1,,71,0
107960,note_on,10,0,0,,,,,,,,,1,,73,100
107960,note_on,0,0,0,,,,,,,,,4,,73,100
107980,note_on,20,0,0,,,,,,,,,4,,49,0
107980,note_on,0,0,0,,,,,,,,,4,,52,0
107980,note_on,0,0,0,,,,,,,,,1,,52,0
107980,note_on,0,0,0,,,,,,,,,1,,57,0
107980,note_on,0,0,0,,,,,,,,,1,,49,0
107980,note_on,0,0,0,,,,,,,,,4,,57,0
107990,note_on,10,0,0,,,,,,,,,4,,73,0
107990,note_on,0,0,0,,,,,,,,,1,,73,0
108000,note_on,10,0,0,,,,,,,,,1,,54,100
108000,note_on,0,0,0,,,,,,,,,1,,59,100
108000,note_on,0,0,0,,,,,,,,,1,,51,100
108000,note_on,0,0,0,,,,,,,,,1,,71,100
108000,note_on,0,0,0,,,,,,,,,4,,54,100
108000,note_on,0,0,0,,,,,,,,,4,,59,100
108000,note_on,0,0,0,,,,,,,,,4,,51,100
108000,note_on,0,0,0,,,,,,,,,4,,71,100
108030,note_on,30,0,0,,,,,,,,,4,,71,0
108030,note_on,0,0,0,,,,,,,,,1,,71,0
108040,note_on,10,0,0,,,,,,,,,1,,73,100
108040,note_on,0,0,0,,,,,,,,,4,,73,100
108070,note_on,30,0,0,,,,,,,,,4,,73,0
108070,note_on,0,0,0,,,,,,,,,1,,73,0
108080,note_on,10,0,0,,,,,,,,,1,,69,100
108080,note_on,0,0,0,,,,,,,,,4,,69,100
108100,note_on,20,0,0,,,,,,,,,4,,51,0
108100,note_on,0,0,0,,,,,,,,,4,,54,0
108100,note_on,0,0,0,,,,,,,,,1,,54,0
108100,note_on,0,0,0,,,,,,,,,1,,59,0
108100,note_on,0,0,0,,,,,,,,,1,,51,0
108100,note_on,0,0,0,,,,,,,,,4,,59,0
108110,note_on,10,0,0,,,,,,,,,4,,69,0
108110,note_on,0,0,0,,,,,,,,,1,,69,0
108120,note_on,10,0,0,,,,,,,,,1,,52,100
108120,note_on,0,0,0,,,,,,,,,1,,68,100
108120,note_on,0,0,0,,,,,,,,,4,,52,100
108120,note_on,0,0,0,,,,,,,,,4,,68,100
108150,note_on,30,0,0,,,,,,,,,4,,68,0
108150,note_on,0,0,0,,,,,,,,,1,,52,0
108150,note_on,0,0,0,,,,,,,,,1,,68,0
108150,note_on,0,0,0,,,,,,,,,4,,52,0
108160,note_on,10,0,0,,,,,,,,,1,,56,100
108160,note_on,0,0,0,,,,,,,,,4,,56,100
108190,note_on,30,0,0,,,,,,,,,4,,56,0
108190,note_on,0,0,0,,,,,,,,,1,,56,0
108200,note_on,10,0,0,,,,,,,,,1,,59,100
108200,note_on,0,0,0,,,,,,,,,4,,59,100
108230,note_on,30,0,0,,,,,,,,,4,,59,0
108230,note_on,0,0,0,,,,,,,,,1,,59,0
108240,note_on,10,0,0,,,,,,,,,1,,64,100
108240,note_on,0,0,0,,,,,,,,,4,,64,100
108270,note_on,30,0,0,,,,,,,,,4,,64,0
108270,note_on,0,0,0,,,,,,,,,1,,64,0
108280,note_on,10,0,0,,,,,,,,,1,,59,100
108280,note_on,0,0,0,,,,,,,,,4,,59,100
108310,note_on,30,0,0,,,,,,,,,4,,59,0
108310,note_on,0,0,0,,,,,,,,,1,,59,0
108320,note_on,10,0,0,,,,,,,,,1,,71,100
108320,note_on,0,0,0,,,,,,,,,1,,56,100
108320,note_on,0,0,0,,,,,,,,,4,,71,100
108320,note_on,0,0,0,,,,,,,,,4,,56,100
108350,note_on,30,0,0,,,,,,,,,4,,56,0
108350,note_on,0,0,0,,,,,,,,,1,,71,0
108350,note_on,0,0,0,,,,,,,,,1,,56,0
108350,note_on,0,0,0,,,,,,,,,4,,71,0
108360,note_on,10,0,0,,,,,,,,,1,,61,100
108360,note_on,0,0,0,,,,,,,,,1,,57,100
108360,note_on,0,0,0,,,,,,,,,1,,73,100
108360,note_on,0,0,0,,,,,,,,,4,,61,100
108360,note_on,0,0,0,,,,,,,,,4,,57,100
108360,note_on,0,0,0,,,,,,,,,4,,73,100
108390,note_on,30,0,0,,,,,,,,,4,,73,0
108390,note_on,0,0,0,,,,,,,,,1,,73,0
108400,note_on,10,0,0,,,,,,,,,1,,75,100
108400,note_on,0,0,0,,,,,,,,,4,,75,100
108430,note_on,30,0,0,,,,,,,,,4,,75,0
108430,note_on,0,0,0,,,,,,,,,1,,75,0
108440,note_on,10,0,0,,,,,,,,,1,,76,100
108440,note_on,0,0,0,,,,,,,,,4,,76,100
108450,note_on,10,0,0,,,,,,,,,4,,57,0
108450,note_on,0,0,0,,,,,,,,,4,,61,0
108450,note_on,0,0,0,,,,,,,,,1,,61,0
108450,note_on,0,0,0,,,,,,,,,1,,57,0
108470,note_on,20,0,0,,,,,,,,,4,,76,0
108470,note_on,0,0,0,,,,,,,,,1,,76,0
108480,note_on,10,0,0,,,,,,,,,1,,54,100
108480,note_on,0,0,0,,,,,,,,,1,,63,100
108480,note_on,0,0,0,,,,,,,,,1,,78,100
108480,note_on,0,0,0,,,,,,,,,4,,54,100
108480,note_on,0,0,0,,,,,,,,,4,,63,100
108480,note_on,0,0,0,,,,,,,,,4,,78,100
108510,note_on,30,0,0,,,,,,,,,4,,78,0
108510,note_on,0,0,0,,,,,,,,,1,,78,0
108520,note_on,10,0,0,,,,,,,,,1,,80,100
108520,note_on,0,0,0,,,,,,,,,4,,80,100
108550,note_on,30,0,0,,,,,,,,,4,,80,0
108550,note_on,0,0,0,,,,,,,,,1,,80,0
108560,note_on,10,0,0,,,,,,,,,1,,81,100
108560,note_on,0,0,0,,,,,,,,,4,,81,100
108570,note_on,10,0,0,,,,,,,,,4,,63,0
108570,note_on,0,0,0,,,,,,,,,4,,54,0
108570,note_on,0,0,0,,,,,,,,,1,,54,0
108570,note_on,0,0,0,,,,,,,,,1,,63,0
108590,note_on,20,0,0,,,,,,,,,4,,81,0
108590,note_on,0,0,0,,,,,,,,,1,,81,0
108600,note_on,10,0,0,,,,,,,,,1,,56,100
108600,note_on,0,0,0,,,,,,,,,1,,64,100
108600,note_on,0,0,0,,,,,,,,,1,,71,100
108600,note_on,0,0,0,,,,,,,,,4,,56,100
108600,note_on,0,0,0,,,,,,,,,4,,64,100
108600,note_on,0,0,0,,,,,,,,,4,,71,100
108630,note_on,30,0,0,,,,,,,,,4,,71,0
108630,note_on,0,0,0,,,,,,,,,1,,71,0
108640,note_on,10,0,0,,,,,,,,,1,,73,100
108640,note_on,0,0,0,,,,,,,,,4,,73,100
108670,note_on,30,0,0,,,,,,,,,4,,73,0
108670,note_on,0,0,0,,,,,,,,,1,,73,0
108680,note_on,10,0,0,,,,,,,,,1,,75,100
108680,note_on,0,0,0,,,,,,,,,4,,75,100
108690,note_on,10,0,0,,,,,,,,,4,,64,0
108690,note_on,0,0,0,,,,,,,,,4,,56,0
108690,note_on,0,0,0,,,,,,,,,1,,56,0
108690,note_on,0,0,0,,,,,,,,,1,,64,0
108710,note_on,20,0,0,,,,,,,,,4,,75,0
108710,note_on,0,0,0,,,,,,,,,1,,75,0
108720,note_on,10,0,0,,,,,,,,,1,,52,100
108720,note_on,0,0,0,,,,,,,,,1,,56,100
108720,note_on,0,0,0,,,,,,,,,1,,76,100
108720,note_on,0,0,0,,,,,,,,,4,,52,100
108720,note_on,0,0,0,,,,,,,,,4,,56,100
108720,note_on,0,0,0,,,,,,,,,4,,76,100
108750,note_on,30,0,0,,,,,,,,,4,,76,0
108750,note_on,0,0,0,,,,,,,,,1,,76,0
108760,note_on,10,0,0,,,,,,,,,1,,78,100
108760,note_on,0,0,0,,,,,,,,,4,,78,100
108790,note_on,30,0,0,,,,,,,,,4,,78,0
108790,note_on,0,0,0,,,,,,,,,1,,78,0
108800,note_on,10,0,0,,,,,,,,,1,,80,100
108800,note_on,0,0,0,,,,,,,,,4,,80,100
108810,note_on,10,0,0,,,,,,,,,4,,56,0
108810,note_on,0,0,0,,,,,,,,,4,,52,0
108810,note_on,0,0,0,,,,,,,,,1,,52,0
108810,note_on,0,0,0,,,,,,,,,1,,56,0
108830,note_on,20,0,0,,,,,,,,,4,,80,0
108830,note_on,0,0,0,,,,,,,,,1,,80,0
108840,note_on,10,0,0,,,,,,,,,1,,57,100
108840,note_on,0,0,0,,,,,,,,,1,,52,100
108840,note_on,0,0,0,,,,,,,,,1,,49,100
108840,note_on,0,0,0,,,,,,,,,1,,69,100
108840,note_on,0,0,0,,,,,,,,,4,,57,100
108840,note_on,0,0,0,,,,,,,,,4,,52,100
108840,note_on,0,0,0,,,,,,,,,4,,49,100
108840,note_on,0,0,0,,,,,,,,,4,,69,100
108870,note_on,30,0,0,,,,,,,,,4,,69,0
108870,note_on,0,0,0,,,,,,,,,1,,69,0
108880,note_on,10,0,0,,,,,,,,,1,,71,100
108880,note_on,0,0,0,,,,,,,,,4,,71,100
108910,note_on,30,0,0,,,,,,,,,4,,71,0
108910,note_on,0,0,0,,,,,,,,,1,,71,0
108920,note_on,10,0,0,,,,,,,,,1,,73,100
108920,note_on,0,0,0,,,,,,,,,4,,73,100
108930,note_on,10,0,0,,,,,,,,,4,,49,0
108930,note_on,0,0,0,,,,,,,,,4,,57,0
108930,note_on,0,0,0,,,,,,,,,1,,57,0
108930,note_on,0,0,0,,,,,,,,,1,,52,0
108930,note_on,0,0,0,,,,,,,,,1,,49,0
108930,note_on,0,0,0,,,,,,,,,4,,52,0
108950,note_on,20,0,0,,,,,,,,,4,,73,0
108950,note_on,0,0,0,,,,,,,,,1,,73,0
108960,note_on,10,0,0,,,,,,,,,1,,59,100
108960,note_on,0,0,0,,,,,,,,,1,,54,100
108960,note_on,0,0,0,,,,,,,,,1,,51,100
108960,note_on,0,0,0,,,,,,,,,1,,71,100
108960,note_on,0,0,0,,,,,,,,,4,,59,100
108960,note_on,0,0,0,,,,,,,,,4,,54,100
108960,note_on,0,0,0,,,,,,,,,4,,51,100
108960,note_on,0,0,0,,,,,,,,,4,,71,100
108990,note_on,30,0,0,,,,,,,,,4,,71,0
108990,note_on,0,0,0,,,,,,,,,1,,71,0
109000,note_on,10,0,0,,,,,,,,,1,,73,100
109000,note_on,0,0,0,,,,,,,,,4,,73,100
109030,note_on,30,0,0,,,,,,,,,4,,73,0
109030,note_on,0,0,0,,,,,,,,,1,,73,0
109040,note_on,10,0,0,,,,,,,,,1,,69,100
109040,note_on,0,0,0,,,,,,,,,4,,69,100
109050,note_on,10,0,0,,,,,,,,,4,,51,0
109050,note_on,0,0,0,,,,,,,,,4,,59,0
109050,note_on,0,0,0,,,,,,,,,1,,59,0
109050,note_on,0,0,0,,,,,,,,,1,,54,0
109050,note_on,0,0,0,,,,,,,,,1,,51,0
109050,note_on,0,0,0,,,,,,,,,4,,54,0
109070,note_on,20,0,0,,,,,,,,,4,,69,0
109070,note_on,0,0,0,,,,,,,,,1,,69,0
109080,note_on,10,0,0,,,,,,,,,1,,59,100
109080,note_on,0,0,0,,,,,,,,,1,,56,100
109080,note_on,0,0,0,,,,,,,,,1,,52,100
109080,note_on,0,0,0,,,,,,,,,1,,69,100
109080,note_on,0,0,0,,,,,,,,,4,,59,100
109080,note_on,0,0,0,,,,,,,,,4,,56,100
109080,note_on,0,0,0,,,,,,,,,4,,52,100
109080,note_on,0,0,0,,,,,,,,,4,,69,100
109090,note_on,10,0,0,,,,,,,,,4,,69,0
109090,note_on,0,0,0,,,,,,,,,1,,69,0
109090,note_on,0,0,0,,,,,,,,,1,,68,100
109090,note_on,0,0,0,,,,,,,,,4,,68,100
109100,note_on,10,0,0,,,,,,,,,4,,68,0
109100,note_on,0,0,0,,,,,,,,,1,,68,0
109100,note_on,0,0,0,,,,,,,,,1,,69,100
109100,note_on,0,0,0,,,,,,,,,4,,69,100
109110,note_on,10,0,0,,,,,,,,,4,,69,0
109110,note_on,0,0,0,,,,,,,,,1,,69,0
109110,note_on,0,0,0,,,,,,,,,1,,68,100
109110,note_on,0,0,0,,,,,,,,,4,,68,100
109120,note_on,10,0,0,,,,,,,,,4,,68,0
109120,note_on,0,0,0,,,,,,,,,1,,68,0
109120,note_on,0,0,0,,,,,,,,,1,,66,100
109120,note_on,0,0,0,,,,,,,,,4,,66,100
109150,note_on,30,0,0,,,,,,,,,4,,66,0
109150,note_on,0,0,0,,,,,,,,,1,,66,0
109160,note_on,10,0,0,,,,,,,,,1,,64,100
109160,note_on,0,0,0,,,,,,,,,4,,64,100
109170,note_on,10,0,0,,,,,,,,,4,,56,0
109170,note_on,0,0,0,,,,,,,,,1,,59,0
109170,note_on,0,0,0,,,,,,,,,4,,59,0
109170,note_on,0,0,0,,,,,,,,,1,,56,0
109170,note_on,0,0,0,,,,,,,,,1,,52,0
109170,note_on,0,0,0,,,,,,,,,4,,52,0
109190,note_on,20,0,0,,,,,,,,,4,,64,0
109190,note_on,0,0,0,,,,,,,,,1,,64,0
109200,note_on,10,0,0,,,,,,,,,1,,57,100
109200,note_on,0,0,0,,,,,,,,,1,,63,100
109200,note_on,0,0,0,,,,,,,,,1,,54,100
109200,note_on,0,0,0,,,,,,,,,1,,69,100
109200,note_on,0,0,0,,,,,,,,,4,,57,100
109200,note_on,0,0,0,,,,,,,,,4,,63,100
109200,note_on,0,0,0,,,,,,,,,4,,54,100
109200,note_on,0,0,0,,,,,,,,,4,,69,100
109230,note_on,30,0,0,,,,,,,,,4,,69,0
109230,note_on,0,0,0,,,,,,,,,1,,69,0
109240,note_on,10,0,0,,,,,,,,,1,,68,100
109240,note_on,0,0,0,,,,,,,,,4,,68,100
109270,note_on,30,0,0,,,,,,,,,4,,68,0
109270,note_on,0,0,0,,,,,,,,,1,,68,0
109280,note_on,10,0,0,,,,,,,,,1,,66,100
109280,note_on,0,0,0,,,,,,,,,4,,66,100
109290,note_on,10,0,0,,,,,,,,,4,,54,0
109290,note_on,0,0,0,,,,,,,,,4,,57,0
109290,note_on,0,0,0,,,,,,,,,1,,57,0
109290,note_on,0,0,0,,,,,,,,,1,,63,0
109290,note_on,0,0,0,,,,,,,,,1,,54,0
109290,note_on,0,0,0,,,,,,,,,4,,63,0
109310,note_on,20,0,0,,,,,,,,,4,,66,0
109310,note_on,0,0,0,,,,,,,,,1,,66,0
109320,note_on,10,0,0,,,,,,,,,1,,64,100
109320,note_on,0,0,0,,,,,,,,,1,,59,100
109320,note_on,0,0,0,,,,,,,,,1,,56,100
109320,note_on,0,0,0,,,,,,,,,1,,71,100
109320,note_on,0,0,0,,,,,,,,,4,,64,100
109320,note_on,0,0,0,,,,,,,,,4,,59,100
109320,note_on,0,0,0,,,,,,,,,4,,56,100
109320,note_on,0,0,0,,,,,,,,,4,,71,100
109350,note_on,30,0,0,,,,,,,,,4,,71,0
109350,note_on,0,0,0,,,,,,,,,1,,71,0
109360,note_on,10,0,0,,,,,,,,,1,,69,100
109360,note_on,0,0,0,,,,,,,,,4,,69,100
109390,note_on,30,0,0,,,,,,,,,4,,69,0
109390,note_on,0,0,0,,,,,,,,,1,,69,0
109400,note_on,10,0,0,,,,,,,,,1,,68,100
109400,note_on,0,0,0,,,,,,,,,4,,68,100
109410,note_on,10,0,0,,,,,,,,,4,,56,0
109410,note_on,0,0,0,,,,,,,,,4,,64,0
109410,note_on,0,0,0,,,,,,,,,1,,64,0
109410,note_on,0,0,0,,,,,,,,,1,,59,0
109410,note_on,0,0,0,,,,,,,,,1,,56,0
109410,note_on,0,0,0,,,,,,,,,4,,59,0
109430,note_on,20,0,0,,,,,,,,,4,,68,0
109430,note_on,0,0,0,,,,,,,,,1,,68,0
109440,note_on,10,0,0,,,,,,,,,1,,61,100
109440,note_on,0,0,0,,,,,,,,,1,,66,100
109440,note_on,0,0,0,,,,,,,,,1,,57,100
109440,note_on,0,0,0,,,,,,,,,1,,73,100
109440,note_on,0,0,0,,,,,,,,,4,,61,100
109440,note_on,0,0,0,,,,,,,,,4,,66,100
109440,note_on,0,0,0,,,,,,,,,4,,57,100
109440,note_on,0,0,0,,,,,,,,,4,,73,100
109470,note_on,30,0,0,,,,,,,,,4,,73,0
109470,note_on,0,0,0,,,,,,,,,1,,73,0
109480,note_on,10,0,0,,,,,,,,,1,,71,100
109480,note_on,0,0,0,,,,,,,,,4,,71,100
109510,note_on,30,0,0,,,,,,,,,4,,71,0
109510,note_on,0,0,0,,,,,,,,,1,,71,0
109520,note_on,10,0,0,,,,,,,,,1,,69,100
109520,note_on,0,0,0,,,,,,,,,4,,69,100
109530,note_on,10,0,0,,,,,,,,,4,,57,0
109530,note_on,0,0,0,,,,,,,,,4,,61,0
109530,note_on,0,0,0,,,,,,,,,1,,61,0
109530,note_on,0,0,0,,,,,,,,,1,,66,0
109530,note_on,0,0,0,,,,,,,,,1,,57,0
109530,note_on,0,0,0,,,,,,,,,4,,66,0
109550,note_on,20,0,0,,,,,,,,,4,,69,0
109550,note_on,0,0,0,,,,,,,,,1,,69,0
109560,note_on,10,0,0,,,,,,,,,1,,66,100
109560,note_on,0,0,0,,,,,,,,,1,,63,100
109560,note_on,0,0,0,,,,,,,,,1,,59,100
109560,note_on,0,0,0,,,,,,,,,1,,75,100
109560,note_on,0,0,0,,,,,,,,,4,,66,100
109560,note_on,0,0,0,,,,,,,,,4,,63,100
109560,note_on,0,0,0,,,,,,,,,4,,59,100
109560,note_on,0,0,0,,,,,,,,,4,,75,100
109590,note_on,30,0,0,,,,,,,,,4,,75,0
109590,note_on,0,0,0,,,,,,,,,1,,75,0
109600,note_on,10,0,0,,,,,,,,,1,,73,100
109600,note_on,0,0,0,,,,,,,,,4,,73,100
109630,note_on,30,0,0,,,,,,,,,4,,73,0
109630,note_on,0,0,0,,,,,,,,,1,,73,0
109640,note_on,10,0,0,,,,,,,,,1,,71,100
109640,note_on,0,0,0,,,,,,,,,4,,71,100
109650,note_on,10,0,0,,,,,,,,,4,,59,0
109650,note_on,0,0,0,,,,,,,,,4,,66,0
109650,note_on,0,0,0,,,,,,,,,1,,66,0
109650,note_on,0,0,0,,,,,,,,,1,,63,0
109650,note_on,0,0,0,,,,,,,,,1,,59,0
109650,note_on,0,0,0,,,,,,,,,4,,63,0
109670,note_on,20,0,0,,,,,,,,,4,,71,0
109670,note_on,0,0,0,,,,,,,,,1,,71,0
109680,note_on,10,0,0,,,,,,,,,1,,61,100
109680,note_on,0,0,0,,,,,,,,,1,,76,100
109680,note_on,0,0,0,,,,,,,,,4,,61,100
109680,note_on,0,0,0,,,,,,,,,4,,76,100
109710,note_on,30,0,0,,,,,,,,,4,,76,0
109710,note_on,0,0,0,,,,,,,,,1,,61,0
109710,note_on,0,0,0,,,,,,,,,1,,76,0
109710,note_on,0,0,0,,,,,,,,,4,,61,0
109720,note_on,10,0,0,,,,,,,,,1,,63,100
109720,note_on,0,0,0,,,,,,,,,1,,75,100
109720,note_on,0,0,0,,,,,,,,,4,,63,100
109720,note_on,0,0,0,,,,,,,,,4,,75,100
109750,note_on,30,0,0,,,,,,,,,4,,75,0
109750,note_on,0,0,0,,,,,,,,,1,,63,0
109750,note_on,0,0,0,,,,,,,,,1,,75,0
109750,note_on,0,0,0,,,,,,,,,4,,63,0
109760,note_on,10,0,0,,,,,,,,,1,,64,100
109760,note_on,0,0,0,,,,,,,,,1,,73,100
109760,note_on,0,0,0,,,,,,,,,4,,64,100
109760,note_on,0,0,0,,,,,,,,,4,,73,100
109790,note_on,30,0,0,,,,,,,,,4,,73,0
109790,note_on,0,0,0,,,,,,,,,1,,64,0
109790,note_on,0,0,0,,,,,,,,,1,,73,0
109790,note_on,0,0,0,,,,,,,,,4,,64,0
109800,note_on,10,0,0,,,,,,,,,1,,63,100
109800,note_on,0,0,0,,,,,,,,,1,,78,100
109800,note_on,0,0,0,,,,,,,,,4,,63,100
109800,note_on,0,0,0,,,,,,,,,4,,78,100
109830,note_on,30,0,0,,,,,,,,,4,,78,0
109830,note_on,0,0,0,,,,,,,,,1,,63,0
109830,note_on,0,0,0,,,,,,,,,1,,78,0
109830,note_on,0,0,0,,,,,,,,,4,,63,0
109840,note_on,10,0,0,,,,,,,,,1,,66,100
109840,note_on,0,0,0,,,,,,,,,1,,76,100
109840,note_on,0,0,0,,,,,,,,,4,,66,100
109840,note_on,0,0,0,,,,,,,,,4,,76,100
109870,note_on,30,0,0,,,,,,,,,4,,76,0
109870,note_on,0,0,0,,,,,,,,,1,,66,0
109870,note_on,0,0,0,,,,,,,,,1,,76,0
109870,note_on,0,0,0,,,,,,,,,4,,66,0
109880,note_on,10,0,0,,,,,,,,,1,,71,100
109880,note_on,0,0,0,,,,,,,,,1,,75,100
109880,note_on,0,0,0,,,,,,,,,4,,71,100
109880,note_on,0,0,0,,,,,,,,,4,,75,100
109910,note_on,30,0,0,,,,,,,,,4,,75,0
109910,note_on,0,0,0,,,,,,,,,1,,71,0
109910,note_on,0,0,0,,,,,,,,,1,,75,0
109910,note_on,0,0,0,,,,,,,,,4,,71,0
109920,note_on,10,0,0,,,,,,,,,1,,64,100
109920,note_on,0,0,0,,,,,,,,,1,,80,100
109920,note_on,0,0,0,,,,,,,,,4,,64,100
109920,note_on,0,0,0,,,,,,,,,4,,80,100
109950,note_on,30,0,0,,,,,,,,,4,,80,0
109950,note_on,0,0,0,,,,,,,,,1,,64,0
109950,note_on,0,0,0,,,,,,,,,1,,80,0
109950,note_on,0,0,0,,,,,,,,,4,,64,0
109960,note_on,10,0,0,,,,,,,,,1,,78,100
109960,note_on,0,0,0,,,,,,,,,1,,68,100
109960,note_on,0,0,0,,,,,,,,,4,,78,100
109960,note_on,0,0,0,,,,,,,,,4,,68,100
109990,note_on,30,0,0,,,,,,,,,4,,68,0
109990,note_on,0,0,0,,,,,,,,,1,,78,0
109990,note_on,0,0,0,,,,,,,,,1,,68,0
109990,note_on,0,0,0,,,,,,,,,4,,78,0
110000,note_on,10,0,0,,,,,,,,,1,,73,100
110000,note_on,0,0,0,,,,,,,,,1,,76,100
110000,note_on,0,0,0,,,,,,,,,4,,73,100
110000,note_on,0,0,0,,,,,,,,,4,,76,100
110030,note_on,30,0,0,,,,,,,,,4,,76,0
110030,note_on,0,0,0,,,,,,,,,1,,73,0
110030,note_on,0,0,0,,,,,,,,,1,,76,0
110030,note_on,0,0,0,,,,,,,,,4,,73,0
110040,note_on,10,0,0,,,,,,,,,1,,66,100
110040,note_on,0,0,0,,,,,,,,,1,,81,100
110040,note_on,0,0,0,,,,,,,,,4,,66,100
110040,note_on,0,0,0,,,,,,,,,4,,81,100
110070,note_on,30,0,0,,,,,,,,,4,,81,0
110070,note_on,0,0,0,,,,,,,,,1,,66,0
110070,note_on,0,0,0,,,,,,,,,1,,81,0
110070,note_on,0,0,0,,,,,,,,,4,,66,0
110080,note_on,10,0,0,,,,,,,,,1,,69,100
110080,note_on,0,0,0,,,,,,,,,1,,80,100
110080,note_on,0,0,0,,,,,,,,,4,,69,100
110080,note_on,0,0,0,,,,,,,,,4,,80,100
110110,note_on,30,0,0,,,,,,,,,4,,80,0
110110,note_on,0,0,0,,,,,,,,,1,,69,0
110110,note_on,0,0,0,,,,,,,,,1,,80,0
110110,note_on,0,0,0,,,,,,,,,4,,69,0
110120,note_on,10,0,0,,,,,,,,,1,,75,100
110120,note_on,0,0,0,,,,,,,,,1,,78,100
110120,note_on,0,0,0,,,,,,,,,4,,75,100
110120,note_on,0,0,0,,,,,,,,,4,,78,100
110150,note_on,30,0,0,,,,,,,,,4,,78,0
110150,note_on,0,0,0,,,,,,,,,1,,75,0
110150,note_on,0,0,0,,,,,,,,,1,,78,0
110150,note_on,0,0,0,,,,,,,,,4,,75,0
110160,note_on,10,0,0,,,,,,,,,1,,68,100
110160,note_on,0,0,0,,,,,,,,,1,,83,100
110160,note_on,0,0,0,,,,,,,,,4,,68,100
110160,note_on,0,0,0,,,,,,,,,4,,83,100
110190,note_on,30,0,0,,,,,,,,,4,,83,0
110190,note_on,0,0,0,,,,,,,,,1,,68,0
110190,note_on,0,0,0,,,,,,,,,1,,83,0
110190,note_on,0,0,0,,,,,,,,,4,,68,0
110200,note_on,10,0,0,,,,,,,,,1,,71,100
110200,note_on,0,0,0,,,,,,,,,1,,81,100
110200,note_on,0,0,0,,,,,,,,,4,,71,100
110200,note_on,0,0,0,,,,,,,,,4,,81,100
110230,note_on,30,0,0,,,,,,,,,4,,81,0
110230,note_on,0,0,0,,,,,,,,,1,,71,0
110230,note_on,0,0,0,,,,,,,,,1,,81,0
110230,note_on,0,0,0,,,,,,,,,4,,71,0
110240,note_on,10,0,0,,,,,,,,,1,,80,100
110240,note_on,0,0,0,,,,,,,,,1,,76,100
110240,note_on,0,0,0,,,,,,,,,4,,80,100
110240,note_on,0,0,0,,,,,,,,,4,,76,100
110270,note_on,30,0,0,,,,,,,,,4,,76,0
110270,note_on,0,0,0,,,,,,,,,1,,80,0
110270,note_on,0,0,0,,,,,,,,,1,,76,0
110270,note_on,0,0,0,,,,,,,,,4,,80,0
110280,note_on,10,0,0,,,,,,,,,1,,69,100
110280,note_on,0,0,0,,,,,,,,,1,,85,100
110280,note_on,0,0,0,,,,,,,,,4,,69,100
110280,note_on,0,0,0,,,,,,,,,4,,85,100
110310,note_on,30,0,0,,,,,,,,,4,,85,0
110310,note_on,0,0,0,,,,,,,,,1,,69,0
110310,note_on,0,0,0,,,,,,,,,1,,85,0
110310,note_on,0,0,0,,,,,,,,,4,,69,0
110320,note_on,10,0,0,,,,,,,,,1,,73,100
110320,note_on,0,0,0,,,,,,,,,1,,83,100
110320,note_on,0,0,0,,,,,,,,,4,,73,100
110320,note_on,0,0,0,,,,,,,,,4,,83,100
110350,note_on,30,0,0,,,,,,,,,4,,83,0
110350,note_on,0,0,0,,,,,,,,,1,,73,0
110350,note_on,0,0,0,,,,,,,,,1,,83,0
110350,note_on,0,0,0,,,,,,,,,4,,73,0
110360,note_on,10,0,0,,,,,,,,,1,,78,100
110360,note_on,0,0,0,,,,,,,,,1,,81,100
110360,note_on,0,0,0,,,,,,,,,4,,78,100
110360,note_on,0,0,0,,,,,,,,,4,,81,100
110390,note_on,30,0,0,,,,,,,,,4,,81,0
110390,note_on,0,0,0,,,,,,,,,1,,78,0
110390,note_on,0,0,0,,,,,,,,,1,,81,0
110390,note_on,0,0,0,,,,,,,,,4,,78,0
110400,note_on,10,0,0,,,,,,,,,1,,69,100
110400,note_on,0,0,0,,,,,,,,,1,,85,100
110400,note_on,0,0,0,,,,,,,,,4,,69,100
110400,note_on,0,0,0,,,,,,,,,4,,85,100
110430,note_on,30,0,0,,,,,,,,,4,,85,0
110430,note_on,0,0,0,,,,,,,,,1,,69,0
110430,note_on,0,0,0,,,,,,,,,1,,85,0
110430,note_on,0,0,0,,,,,,,,,4,,69,0
110440,note_on,10,0,0,,,,,,,,,1,,73,100
110440,note_on,0,0,0,,,,,,,,,1,,83,100
110440,note_on,0,0,0,,,,,,,,,4,,73,100
110440,note_on,0,0,0,,,,,,,,,4,,83,100
110470,note_on,30,0,0,,,,,,,,,4,,83,0
110470,note_on,0,0,0,,,,,,,,,1,,73,0
110470,note_on,0,0,0,,,,,,,,,1,,83,0
110470,note_on,0,0,0,,,,,,,,,4,,73,0
110480,note_on,10,0,0,,,,,,,,,1,,78,100
110480,note_on,0,0,0,,,,,,,,,1,,81,100
110480,note_on,0,0,0,,,,,,,,,4,,78,100
110480,note_on,0,0,0,,,,,,,,,4,,81,100
110510,note_on,30,0,0,,,,,,,,,4,,81,0
110510,note_on,0,0,0,,,,,,,,,1,,78,0
110510,note_on,0,0,0,,,,,,,,,1,,81,0
110510,note_on,0,0,0,,,,,,,,,4,,78,0
110520,note_on,10,0,0,,,,,,,,,1,,68,100
110520,note_on,0,0,0,,,,,,,,,1,,83,100
110520,note_on,0,0,0,,,,,,,,,4,,68,100
110520,note_on,0,0,0,,,,,,,,,4,,83,100
110550,note_on,30,0,0,,,,,,,,,4,,83,0
110550,note_on,0,0,0,,,,,,,,,1,,68,0
110550,note_on,0,0,0,,,,,,,,,1,,83,0
110550,note_on,0,0,0,,,,,,,,,4,,68,0
110560,note_on,10,0,0,,,,,,,,,1,,71,100
110560,note_on,0,0,0,,,,,,,,,1,,81,100
110560,note_on,0,0,0,,,,,,,,,4,,71,100
110560,note_on,0,0,0,,,,,,,,,4,,81,100
110590,note_on,30,0,0,,,,,,,,,4,,81,0
110590,note_on,0,0,0,,,,,,,,,1,,71,0
110590,note_on,0,0,0,,,,,,,,,1,,81,0
110590,note_on,0,0,0,,,,,,,,,4,,71,0
110600,note_on,10,0,0,,,,,,,,,1,,76,100
110600,note_on,0,0,0,,,,,,,,,1,,80,100
110600,note_on,0,0,0,,,,,,,,,4,,76,100
110600,note_on,0,0,0,,,,,,,,,4,,80,100
110630,note_on,30,0,0,,,,,,,,,4,,80,0
110630,note_on,0,0,0,,,,,,,,,1,,76,0
110630,note_on,0,0,0,,,,,,,,,1,,80,0
110630,note_on,0,0,0,,,,,,,,,4,,76,0
110640,note_on,10,0,0,,,,,,,,,1,,68,100
110640,note_on,0,0,0,,,,,,,,,1,,83,100
110640,note_on,0,0,0,,,,,,,,,4,,68,100
110640,note_on,0,0,0,,,,,,,,,4,,83,100
110670,note_on,30,0,0,,,,,,,,,4,,83,0
110670,note_on,0,0,0,,,,,,,,,1,,68,0
110670,note_on,0,0,0,,,,,,,,,1,,83,0
110670,note_on,0,0,0,,,,,,,,,4,,68,0
110680,note_on,10,0,0,,,,,,,,,1,,71,100
110680,note_on,0,0,0,,,,,,,,,1,,81,100
110680,note_on,0,0,0,,,,,,,,,4,,71,100
110680,note_on,0,0,0,,,,,,,,,4,,81,100
110710,note_on,30,0,0,,,,,,,,,4,,81,0
110710,note_on,0,0,0,,,,,,,,,1,,71,0
110710,note_on,0,0,0,,,,,,,,,1,,81,0
110710,note_on,0,0,0,,,,,,,,,4,,71,0
110720,note_on,10,0,0,,,,,,,,,1,,76,100
110720,note_on,0,0,0,,,,,,,,,1,,80,100
110720,note_on,0,0,0,,,,,,,,,4,,76,100
110720,note_on,0,0,0,,,,,,,,,4,,80,100
110750,note_on,30,0,0,,,,,,,,,4,,80,0
110750,note_on,0,0,0,,,,,,,,,1,,76,0
110750,note_on,0,0,0,,,,,,,,,1,,80,0
110750,note_on,0,0,0,,,,,,,,,4,,76,0
110760,note_on,10,0,0,,,,,,,,,1,,66,100
110760,note_on,0,0,0,,,,,,,,,1,,81,100
110760,note_on,0,0,0,,,,,,,,,4,,66,100
110760,note_on,0,0,0,,,,,,,,,4,,81,100
110790,note_on,30,0,0,,,,,,,,,4,,81,0
110790,note_on,0,0,0,,,,,,,,,1,,66,0
110790,note_on,0,0,0,,,,,,,,,1,,81,0
110790,note_on,0,0,0,,,,,,,,,4,,66,0
110800,note_on,10,0,0,,,,,,,,,1,,69,100
110800,note_on,0,0,0,,,,,,,,,1,,80,100
110800,note_on,0,0,0,,,,,,,,,4,,69,100
110800,note_on,0,0,0,,,,,,,,,4,,80,100
110830,note_on,30,0,0,,,,,,,,,4,,80,0
110830,note_on,0,0,0,,,,,,,,,1,,69,0
110830,note_on,0,0,0,,,,,,,,,1,,80,0
110830,note_on,0,0,0,,,,,,,,,4,,69,0
110840,note_on,10,0,0,,,,,,,,,1,,75,100
110840,note_on,0,0,0,,,,,,,,,1,,78,100
110840,note_on,0,0,0,,,,,,,,,4,,75,100
110840,note_on,0,0,0,,,,,,,,,4,,78,100
110870,note_on,30,0,0,,,,,,,,,4,,78,0
110870,note_on,0,0,0,,,,,,,,,1,,75,0
110870,note_on,0,0,0,,,,,,,,,1,,78,0
110870,note_on,0,0,0,,,,,,,,,4,,75,0
110880,note_on,10,0,0,,,,,,,,,1,,66,100
110880,note_on,0,0,0,,,,,,,,,1,,81,100
110880,note_on,0,0,0,,,,,,,,,4,,66,100
110880,note_on,0,0,0,,,,,,,,,4,,81,100
110910,note_on,30,0,0,,,,,,,,,4,,81,0
110910,note_on,0,0,0,,,,,,,,,1,,66,0
110910,note_on,0,0,0,,,,,,,,,1,,81,0
110910,note_on,0,0,0,,,,,,,,,4,,66,0
110920,note_on,10,0,0,,,,,,,,,1,,69,100
110920,note_on,0,0,0,,,,,,,,,1,,80,100
110920,note_on,0,0,0,,,,,,,,,4,,69,100
110920,note_on,0,0,0,,,,,,,,,4,,80,100
110950,note_on,30,0,0,,,,,,,,,4,,80,0
110950,note_on,0,0,0,,,,,,,,,1,,69,0
110950,note_on,0,0,0,,,,,,,,,1,,80,0
110950,note_on,0,0,0,,,,,,,,,4,,69,0
110960,note_on,10,0,0,,,,,,,,,1,,75,100
110960,note_on,0,0,0,,,,,,,,,1,,78,100
110960,note_on,0,0,0,,,,,,,,,4,,75,100
110960,note_on,0,0,0,,,,,,,,,4,,78,100
110990,note_on,30,0,0,,,,,,,,,4,,78,0
110990,note_on,0,0,0,,,,,,,,,1,,75,0
110990,note_on,0,0,0,,,,,,,,,1,,78,0
110990,note_on,0,0,0,,,,,,,,,4,,75,0
111000,note_on,10,0,0,,,,,,,,,1,,64,100
111000,note_on,0,0,0,,,,,,,,,1,,80,100
111000,note_on,0,0,0,,,,,,,,,4,,64,100
111000,note_on,0,0,0,,,,,,,,,4,,80,100
111030,note_on,30,0,0,,,,,,,,,4,,80,0
111030,note_on,0,0,0,,,,,,,,,1,,64,0
111030,note_on,0,0,0,,,,,,,,,1,,80,0
111030,note_on,0,0,0,,,,,,,,,4,,64,0
111040,note_on,10,0,0,,,,,,,,,1,,66,100
111040,note_on,0,0,0,,,,,,,,,1,,81,100
111040,note_on,0,0,0,,,,,,,,,4,,66,100
111040,note_on,0,0,0,,,,,,,,,4,,81,100
111070,note_on,30,0,0,,,,,,,,,4,,81,0
111070,note_on,0,0,0,,,,,,,,,1,,66,0
111070,note_on,0,0,0,,,,,,,,,1,,81,0
111070,note_on,0,0,0,,,,,,,,,4,,66,0
111080,note_on,10,0,0,,,,,,,,,1,,68,100
111080,note_on,0,0,0,,,,,,,,,1,,83,100
111080,note_on,0,0,0,,,,,,,,,4,,68,100
111080,note_on,0,0,0,,,,,,,,,4,,83,100
111110,note_on,30,0,0,,,,,,,,,4,,83,0
111110,note_on,0,0,0,,,,,,,,,1,,68,0
111110,note_on,0,0,0,,,,,,,,,1,,83,0
111110,note_on,0,0,0,,,,,,,,,4,,68,0
111120,note_on,10,0,0,,,,,,,,,1,,76,100
111120,note_on,0,0,0,,,,,,,,,1,,61,100
111120,note_on,0,0,0,,,,,,,,,1,,85,100
111120,note_on,0,0,0,,,,,,,,,4,,76,100
111120,note_on,0,0,0,,,,,,,,,4,,61,100
111120,note_on,0,0,0,,,,,,,,,4,,85,100
111150,note_on,30,0,0,,,,,,,,,4,,61,0
111150,note_on,0,0,0,,,,,,,,,4,,76,0
111150,note_on,0,0,0,,,,,,,,,1,,61,0
111150,note_on,0,0,0,,,,,,,,,1,,76,0
111160,note_on,10,0,0,,,,,,,,,1,,78,100
111160,note_on,0,0,0,,,,,,,,,1,,63,100
111160,note_on,0,0,0,,,,,,,,,4,,78,100
111160,note_on,0,0,0,,,,,,,,,4,,63,100
111190,note_on,30,0,0,,,,,,,,,4,,63,0
111190,note_on,0,0,0,,,,,,,,,1,,63,0
111190,note_on,0,0,0,,,,,,,,,1,,78,0
111190,note_on,0,0,0,,,,,,,,,4,,78,0
111200,note_on,10,0,0,,,,,,,,,1,,80,100
111200,note_on,0,0,0,,,,,,,,,1,,64,100
111200,note_on,0,0,0,,,,,,,,,4,,80,100
111200,note_on,0,0,0,,,,,,,,,4,,64,100
111210,note_on,10,0,0,,,,,,,,,1,,85,0
111210,note_on,0,0,0,,,,,,,,,4,,85,0
111230,note_on,20,0,0,,,,,,,,,4,,80,0
111230,note_on,0,0,0,,,,,,,,,1,,64,0
111230,note_on,0,0,0,,,,,,,,,4,,64,0
111230,note_on,0,0,0,,,,,,,,,1,,80,0
111240,note_on,10,0,0,,,,,,,,,1,,78,100
111240,note_on,0,0,0,,,,,,,,,1,,63,100
111240,note_on,0,0,0,,,,,,,,,4,,78,100
111240,note_on,0,0,0,,,,,,,,,4,,63,100
111270,note_on,30,0,0,,,,,,,,,4,,63,0
111270,note_on,0,0,0,,,,,,,,,1,,78,0
111270,note_on,0,0,0,,,,,,,,,1,,63,0
111270,note_on,0,0,0,,,,,,,,,4,,78,0
111280,note_on,10,0,0,,,,,,,,,1,,80,100
111280,note_on,0,0,0,,,,,,,,,1,,64,100
111280,note_on,0,0,0,,,,,,,,,4,,80,100
111280,note_on,0,0,0,,,,,,,,,4,,64,100
111310,note_on,30,0,0,,,,,,,,,4,,64,0
111310,note_on,0,0,0,,,,,,,,,1,,80,0
111310,note_on,0,0,0,,,,,,,,,1,,64,0
111310,note_on,0,0,0,,,,,,,,,4,,80,0
111320,note_on,10,0,0,,,,,,,,,1,,81,100
111320,note_on,0,0,0,,,,,,,,,4,,81,100
111330,note_on,10,0,0,,,,,,,,,1,,66,100
111330,note_on,0,0,0,,,,,,,,,4,,66,100
111350,note_on,20,0,0,,,,,,,,,4,,81,0
111350,note_on,0,0,0,,,,,,,,,1,,81,0
111360,note_on,10,0,0,,,,,,,,,1,,66,0
111360,note_on,0,0,0,,,,,,,,,4,,66,0
111360,note_on,0,0,0,,,,,,,,,1,,59,100
111360,note_on,0,0,0,,,,,,,,,1,,83,100
111360,note_on,0,0,0,,,,,,,,,1,,75,100
111360,note_on,0,0,0,,,,,,,,,4,,59,100
111360,note_on,0,0,0,,,,,,,,,4,,83,100
111360,note_on,0,0,0,,,,,,,,,4,,75,100
111390,note_on,30,0,0,,,,,,,,,4,,75,0
111390,note_on,0,0,0,,,,,,,,,1,,59,0
111390,note_on,0,0,0,,,,,,,,,1,,75,0
111390,note_on,0,0,0,,,,,,,,,4,,59,0
111400,note_on,10,0,0,,,,,,,,,1,,61,100
111400,note_on,0,0,0,,,,,,,,,1,,76,100
111400,note_on,0,0,0,,,,,,,,,4,,61,100
111400,note_on,0,0,0,,,,,,,,,4,,76,100
111430,note_on,30,0,0,,,,,,,,,4,,76,0
111430,note_on,0,0,0,,,,,,,,,1,,76,0
111430,note_on,0,0,0,,,,,,,,,1,,61,0
111430,note_on,0,0,0,,,,,,,,,4,,61,0
111440,note_on,10,0,0,,,,,,,,,1,,78,100
111440,note_on,0,0,0,,,,,,,,,1,,63,100
111440,note_on,0,0,0,,,,,,,,,4,,78,100
111440,note_on,0,0,0,,,,,,,,,4,,63,100
111450,note_on,10,0,0,,,,,,,,,4,,83,0
111450,note_on,0,0,0,,,,,,,,,1,,83,0
111470,note_on,20,0,0,,,,,,,,,4,,78,0
111470,note_on,0,0,0,,,,,,,,,1,,63,0
111470,note_on,0,0,0,,,,,,,,,4,,63,0
111470,note_on,0,0,0,,,,,,,,,1,,78,0
111480,note_on,10,0,0,,,,,,,,,1,,61,100
111480,note_on,0,0,0,,,,,,,,,1,,76,100
111480,note_on,0,0,0,,,,,,,,,4,,61,100
111480,note_on,0,0,0,,,,,,,,,4,,76,100
111510,note_on,30,0,0,,,,,,,,,4,,76,0
111510,note_on,0,0,0,,,,,,,,,1,,61,0
111510,note_on,0,0,0,,,,,,,,,1,,76,0
111510,note_on,0,0,0,,,,,,,,,4,,61,0
111520,note_on,10,0,0,,,,,,,,,1,,63,100
111520,note_on,0,0,0,,,,,,,,,1,,78,100
111520,note_on,0,0,0,,,,,,,,,4,,63,100
111520,note_on,0,0,0,,,,,,,,,4,,78,100
111550,note_on,30,0,0,,,,,,,,,4,,78,0
111550,note_on,0,0,0,,,,,,,,,1,,63,0
111550,note_on,0,0,0,,,,,,,,,1,,78,0
111550,note_on,0,0,0,,,,,,,,,4,,63,0
111560,note_on,10,0,0,,,,,,,,,1,,64,100
111560,note_on,0,0,0,,,,,,,,,1,,80,100
111560,note_on,0,0,0,,,,,,,,,4,,64,100
111560,note_on,0,0,0,,,,,,,,,4,,80,100
111590,note_on,30,0,0,,,,,,,,,4,,80,0
111590,note_on,0,0,0,,,,,,,,,1,,64,0
111590,note_on,0,0,0,,,,,,,,,1,,80,0
111590,note_on,0,0,0,,,,,,,,,4,,64,0
111600,note_on,10,0,0,,,,,,,,,1,,57,100
111600,note_on,0,0,0,,,,,,,,,1,,78,100
111600,note_on,0,0,0,,,,,,,,,4,,57,100
111600,note_on,0,0,0,,,,,,,,,4,,78,100
111630,note_on,30,0,0,,,,,,,,,4,,78,0
111630,note_on,0,0,0,,,,,,,,,1,,57,0
111630,note_on,0,0,0,,,,,,,,,1,,78,0
111630,note_on,0,0,0,,,,,,,,,4,,57,0
111640,note_on,10,0,0,,,,,,,,,1,,59,100
111640,note_on,0,0,0,,,,,,,,,1,,80,100
111640,note_on,0,0,0,,,,,,,,,4,,59,100
111640,note_on,0,0,0,,,,,,,,,4,,80,100
111670,note_on,30,0,0,,,,,,,,,4,,80,0
111670,note_on,0,0,0,,,,,,,,,1,,59,0
111670,note_on,0,0,0,,,,,,,,,1,,80,0
111670,note_on,0,0,0,,,,,,,,,4,,59,0
111680,note_on,10,0,0,,,,,,,,,1,,61,100
111680,note_on,0,0,0,,,,,,,,,1,,76,100
111680,note_on,0,0,0,,,,,,,,,4,,61,100
111680,note_on,0,0,0,,,,,,,,,4,,76,100
111710,note_on,30,0,0,,,,,,,,,4,,76,0
111710,note_on,0,0,0,,,,,,,,,1,,61,0
111710,note_on,0,0,0,,,,,,,,,1,,76,0
111710,note_on,0,0,0,,,,,,,,,4,,61,0
111720,note_on,10,0,0,,,,,,,,,1,,75,100
111720,note_on,0,0,0,,,,,,,,,1,,59,100
111720,note_on,0,0,0,,,,,,,,,4,,75,100
111720,note_on,0,0,0,,,,,,,,,4,,59,100
111750,note_on,30,0,0,,,,,,,,,4,,75,0
111750,note_on,0,0,0,,,,,,,,,1,,75,0
111760,note_on,10,0,0,,,,,,,,,1,,76,100
111760,note_on,0,0,0,,,,,,,,,4,,76,100
111790,note_on,30,0,0,,,,,,,,,4,,76,0
111790,note_on,0,0,0,,,,,,,,,4,,59,0
111790,note_on,0,0,0,,,,,,,,,1,,59,0
111790,note_on,0,0,0,,,,,,,,,1,,76,0
111800,note_on,10,0,0,,,,,,,,,1,,78,100
111800,note_on,0,0,0,,,,,,,,,1,,57,100
111800,note_on,0,0,0,,,,,,,,,4,,78,100
111800,note_on,0,0,0,,,,,,,,,4,,57,100
111830,note_on,30,0,0,,,,,,,,,4,,57,0
111830,note_on,0,0,0,,,,,,,,,1,,78,0
111830,note_on,0,0,0,,,,,,,,,1,,57,0
111830,note_on,0,0,0,,,,,,,,,4,,78,0
111840,note_on,10,0,0,,,,,,,,,1,,71,100
111840,note_on,0,0,0,,,,,,,,,1,,56,100
111840,note_on,0,0,0,,,,,,,,,4,,71,100
111840,note_on,0,0,0,,,,,,,,,4,,56,100
111870,note_on,30,0,0,,,,,,,,,4,,71,0
111870,note_on,0,0,0,,,,,,,,,1,,71,0
111880,note_on,10,0,0,,,,,,,,,1,,76,100
111880,note_on,0,0,0,,,,,,,,,4,,76,100
111910,note_on,30,0,0,,,,,,,,,4,,76,0
111910,note_on,0,0,0,,,,,,,,,4,,56,0
111910,note_on,0,0,0,,,,,,,,,1,,56,0
111910,note_on,0,0,0,,,,,,,,,1,,76,0
111920,note_on,10,0,0,,,,,,,,,1,,75,100
111920,note_on,0,0,0,,,,,,,,,1,,52,100
111920,note_on,0,0,0,,,,,,,,,4,,75,100
111920,note_on,0,0,0,,,,,,,,,4,,52,100
111950,note_on,30,0,0,,,,,,,,,4,,52,0
111950,note_on,0,0,0,,,,,,,,,1,,75,0
111950,note_on,0,0,0,,,,,,,,,1,,52,0
111950,note_on,0,0,0,,,,,,,,,4,,75,0
111960,note_on,10,0,0,,,,,,,,,1,,73,100
111960,note_on,0,0,0,,,,,,,,,1,,57,100
111960,note_on,0,0,0,,,,,,,,,4,,73,100
111960,note_on,0,0,0,,,,,,,,,4,,57,100
111990,note_on,30,0,0,,,,,,,,,4,,73,0
111990,note_on,0,0,0,,,,,,,,,1,,73,0
112000,note_on,10,0,0,,,,,,,,,1,,78,100
112000,note_on,0,0,0,,,,,,,,,4,,78,100
112030,note_on,30,0,0,,,,,,,,,4,,78,0
112030,note_on,0,0,0,,,,,,,,,4,,57,0
112030,note_on,0,0,0,,,,,,,,,1,,57,0
112030,note_on,0,0,0,,,,,,,,,1,,78,0
112040,note_on,10,0,0,,,,,,,,,1,,76,100
112040,note_on,0,0,0,,,,,,,,,1,,54,100
112040,note_on,0,0,0,,,,,,,,,4,,76,100
112040,note_on,0,0,0,,,,,,,,,4,,54,100
112070,note_on,30,0,0,,,,,,,,,4,,54,0
112070,note_on,0,0,0,,,,,,,,,1,,76,0
112070,note_on,0,0,0,,,,,,,,,1,,54,0
112070,note_on,0,0,0,,,,,,,,,4,,76,0
112080,note_on,10,0,0,,,,,,,,,1,,75,100
112080,note_on,0,0,0,,,,,,,,,1,,59,100
112080,note_on,0,0,0,,,,,,,,,4,,75,100
112080,note_on,0,0,0,,,,,,,,,4,,59,100
112110,note_on,30,0,0,,,,,,,,,4,,75,0
112110,note_on,0,0,0,,,,,,,,,1,,75,0
112120,note_on,10,0,0,,,,,,,,,1,,83,100
112120,note_on,0,0,0,,,,,,,,,4,,83,100
112150,note_on,30,0,0,,,,,,,,,4,,83,0
112150,note_on,0,0,0,,,,,,,,,4,,59,0
112150,note_on,0,0,0,,,,,,,,,1,,59,0
112150,note_on,0,0,0,,,,,,,,,1,,83,0
112160,note_on,10,0,0,,,,,,,,,1,,81,100
112160,note_on,0,0,0,,,,,,,,,1,,63,100
112160,note_on,0,0,0,,,,,,,,,4,,81,100
112160,note_on,0,0,0,,,,,,,,,4,,63,100
112190,note_on,30,0,0,,,,,,,,,4,,63,0
112190,note_on,0,0,0,,,,,,,,,1,,81,0
112190,note_on,0,0,0,,,,,,,,,1,,63,0
112190,note_on,0,0,0,,,,,,,,,4,,81,0
112200,note_on,10,0,0,,,,,,,,,1,,80,100
112200,note_on,0,0,0,,,,,,,,,1,,64,100
112200,note_on,0,0,0,,,,,,,,,4,,80,100
112200,note_on,0,0,0,,,,,,,,,4,,64,100
112230,note_on,30,0,0,,,,,,,,,4,,80,0
112230,note_on,0,0,0,,,,,,,,,1,,80,0
112240,note_on,10,0,0,,,,,,,,,1,,78,100
112240,note_on,0,0,0,,,,,,,,,4,,78,100
112270,note_on,30,0,0,,,,,,,,,4,,78,0
112270,note_on,0,0,0,,,,,,,,,4,,64,0
112270,note_on,0,0,0,,,,,,,,,1,,64,0
112270,note_on,0,0,0,,,,,,,,,1,,78,0
112280,note_on,10,0,0,,,,,,,,,1,,76,100
112280,note_on,0,0,0,,,,,,,,,4,,76,100
112310,note_on,30,0,0,,,,,,,,,4,,76,0
112310,note_on,0,0,0,,,,,,,,,1,,76,0
112320,note_on,10,0,0,,,,,,,,,1,,74,100
112320,note_on,0,0,0,,,,,,,,,4,,74,100
112350,note_on,30,0,0,,,,,,,,,4,,74,0
112350,note_on,0,0,0,,,,,,,,,1,,74,0
112360,note_on,10,0,0,,,,,,,,,1,,73,100
112360,note_on,0,0,0,,,,,,,,,4,,73,100
112390,note_on,30,0,0,,,,,,,,,4,,73,0
112390,note_on,0,0,0,,,,,,,,,1,,73,0
112400,note_on,10,0,0,,,,,,,,,1,,71,100
112400,note_on,0,0,0,,,,,,,,,4,,71,100
112430,note_on,30,0,0,,,,,,,,,4,,71,0
112430,note_on,0,0,0,,,,,,,,,1,,71,0
112440,note_on,10,0,0,,,,,,,,,1,,52,100
112440,note_on,0,0,0,,,,,,,,,1,,73,100
112440,note_on,0,0,0,,,,,,,,,4,,52,100
112440,note_on,0,0,0,,,,,,,,,4,,73,100
112470,note_on,30,0,0,,,,,,,,,4,,73,0
112470,note_on,0,0,0,,,,,,,,,1,,73,0
112480,note_on,10,0,0,,,,,,,,,1,,76,100
112480,note_on,0,0,0,,,,,,,,,4,,76,100
112510,note_on,30,0,0,,,,,,,,,4,,76,0
112510,note_on,0,0,0,,,,,,,,,1,,52,0
112510,note_on,0,0,0,,,,,,,,,4,,52,0
112510,note_on,0,0,0,,,,,,,,,1,,76,0
112520,note_on,10,0,0,,,,,,,,,1,,81,100
112520,note_on,0,0,0,,,,,,,,,4,,81,100
112550,note_on,30,0,0,,,,,,,,,4,,81,0
112550,note_on,0,0,0,,,,,,,,,1,,81,0
112560,note_on,10,0,0,,,,,,,,,1,,73,100
112560,note_on,0,0,0,,,,,,,,,4,,73,100
112590,note_on,30,0,0,,,,,,,,,4,,73,0
112590,note_on,0,0,0,,,,,,,,,1,,73,0
112600,note_on,10,0,0,,,,,,,,,1,,71,100
112600,note_on,0,0,0,,,,,,,,,4,,71,100
112630,note_on,30,0,0,,,,,,,,,4,,71,0
112630,note_on,0,0,0,,,,,,,,,1,,71,0
112640,note_on,10,0,0,,,,,,,,,1,,69,100
112640,note_on,0,0,0,,,,,,,,,4,,69,100
112670,note_on,30,0,0,,,,,,,,,4,,69,0
112670,note_on,0,0,0,,,,,,,,,1,,69,0
112680,note_on,10,0,0,,,,,,,,,1,,40,100
112680,note_on,0,0,0,,,,,,,,,1,,68,100
112680,note_on,0,0,0,,,,,,,,,4,,40,100
112680,note_on,0,0,0,,,,,,,,,4,,68,100
112710,note_on,30,0,0,,,,,,,,,4,,68,0
112710,note_on,0,0,0,,,,,,,,,1,,68,0
112720,note_on,10,0,0,,,,,,,,,1,,71,100
112720,note_on,0,0,0,,,,,,,,,4,,71,100
112750,note_on,30,0,0,,,,,,,,,4,,71,0
112750,note_on,0,0,0,,,,,,,,,1,,40,0
112750,note_on,0,0,0,,,,,,,,,4,,40,0
112750,note_on,0,0,0,,,,,,,,,1,,71,0
112760,note_on,10,0,0,,,,,,,,,1,,76,100
112760,note_on,0,0,0,,,,,,,,,4,,76,100
112790,note_on,30,0,0,,,,,,,,,4,,76,0
112790,note_on,0,0,0,,,,,,,,,1,,76,0
112800,note_on,10,0,0,,,,,,,,,1,,80,100
112800,note_on,0,0,0,,,,,,,,,4,,80,100
112830,note_on,30,0,0,,,,,,,,,4,,80,0
112830,note_on,0,0,0,,,,,,,,,1,,80,0
112840,note_on,10,0,0,,,,,,,,,1,,78,100
112840,note_on,0,0,0,,,,,,,,,4,,78,100
112870,note_on,30,0,0,,,,,,,,,4,,78,0
112870,note_on,0,0,0,,,,,,,,,1,,78,0
112880,note_on,10,0,0,,,,,,,,,1,,76,100
112880,note_on,0,0,0,,,,,,,,,4,,76,100
112910,note_on,30,0,0,,,,,,,,,4,,76,0
112910,note_on,0,0,0,,,,,,,,,1,,76,0
112920,note_on,10,0,0,,,,,,,,,1,,57,100
112920,note_on,0,0,0,,,,,,,,,1,,85,100
112920,note_on,0,0,0,,,,,,,,,4,,57,100
112920,note_on,0,0,0,,,,,,,,,4,,85,100
112950,note_on,30,0,0,,,,,,,,,4,,85,0
112950,note_on,0,0,0,,,,,,,,,1,,85,0
112960,note_on,10,0,0,,,,,,,,,1,,83,100
112960,note_on,0,0,0,,,,,,,,,4,,83,100
112990,note_on,30,0,0,,,,,,,,,4,,83,0
112990,note_on,0,0,0,,,,,,,,,1,,57,0
112990,note_on,0,0,0,,,,,,,,,4,,57,0
112990,note_on,0,0,0,,,,,,,,,1,,83,0
113000,note_on,10,0,0,,,,,,,,,1,,81,100
113000,note_on,0,0,0,,,,,,,,,4,,81,100
113030,note_on,30,0,0,,,,,,,,,4,,81,0
113030,note_on,0,0,0,,,,,,,,,1,,81,0
113040,note_on,10,0,0,,,,,,,,,1,,80,100
113040,note_on,0,0,0,,,,,,,,,4,,80,100
113070,note_on,30,0,0,,,,,,,,,4,,80,0
113070,note_on,0,0,0,,,,,,,,,1,,80,0
113080,note_on,10,0,0,,,,,,,,,1,,78,100
113080,note_on,0,0,0,,,,,,,,,4,,78,100
113110,note_on,30,0,0,,,,,,,,,4,,78,0
113110,note_on,0,0,0,,,,,,,,,1,,78,0
113120,note_on,10,0,0,,,,,,,,,1,,76,100
113120,note_on,0,0,0,,,,,,,,,4,,76,100
113150,note_on,30,0,0,,,,,,,,,4,,76,0
113150,note_on,0,0,0,,,,,,,,,1,,76,0
113160,note_on,10,0,0,,,,,,,,,1,,59,100
113160,note_on,0,0,0,,,,,,,,,1,,75,100
113160,note_on,0,0,0,,,,,,,,,4,,59,100
113160,note_on,0,0,0,,,,,,,,,4,,75,100
113190,note_on,30,0,0,,,,,,,,,4,,75,0
113190,note_on,0,0,0,,,,,,,,,1,,75,0
113200,note_on,10,0,0,,,,,,,,,1,,73,100
113200,note_on,0,0,0,,,,,,,,,4,,73,100
113230,note_on,30,0,0,,,,,,,,,4,,73,0
113230,note_on,0,0,0,,,,,,,,,1,,59,0
113230,note_on,0,0,0,,,,,,,,,4,,59,0
113230,note_on,0,0,0,,,,,,,,,1,,73,0
113240,note_on,10,0,0,,,,,,,,,1,,71,100
113240,note_on,0,0,0,,,,,,,,,4,,71,100
113270,note_on,30,0,0,,,,,,,,,4,,71,0
113270,note_on,0,0,0,,,,,,,,,1,,71,0
113280,note_on,10,0,0,,,,,,,,,1,,69,100
113280,note_on,0,0,0,,,,,,,,,4,,69,100
113310,note_on,30,0,0,,,,,,,,,4,,69,0
113310,note_on,0,0,0,,,,,,,,,1,,69,0
113320,note_on,10,0,0,,,,,,,,,1,,68,100
113320,note_on,0,0,0,,,,,,,,,4,,68,100
113350,note_on,30,0,0,,,,,,,,,4,,68,0
113350,note_on,0,0,0,,,,,,,,,1,,68,0
113360,note_on,10,0,0,,,,,,,,,1,,66,100
113360,note_on,0,0,0,,,,,,,,,4,,66,100
113390,note_on,30,0,0,,,,,,,,,4,,66,0
113390,note_on,0,0,0,,,,,,,,,1,,66,0
113400,note_on,10,0,0,,,,,,,,,1,,47,100
113400,note_on,0,0,0,,,,,,,,,1,,68,100
113400,note_on,0,0,0,,,,,,,,,4,,47,100
113400,note_on,0,0,0,,,,,,,,,4,,68,100
113430,note_on,30,0,0,,,,,,,,,4,,68,0
113430,note_on,0,0,0,,,,,,,,,1,,68,0
113440,note_on,10,0,0,,,,,,,,,1,,71,100
113440,note_on,0,0,0,,,,,,,,,4,,71,100
113470,note_on,30,0,0,,,,,,,,,4,,71,0
113470,note_on,0,0,0,,,,,,,,,1,,47,0
113470,note_on,0,0,0,,,,,,,,,4,,47,0
113470,note_on,0,0,0,,,,,,,,,1,,71,0
113480,note_on,10,0,0,,,,,,,,,1,,76,100
113480,note_on,0,0,0,,,,,,,,,4,,76,100
113510,note_on,30,0,0,,,,,,,,,4,,76,0
113510,note_on,0,0,0,,,,,,,,,1,,76,0
113520,note_on,10,0,0,,,,,,,,,1,,69,100
113520,note_on,0,0,0,,,,,,,,,4,,69,100
113530,note_on,10,0,0,,,,,,,,,4,,69,0
113530,note_on,0,0,0,,,,,,,,,1,,69,0
113530,note_on,0,0,0,,,,,,,,,1,,68,100
113530,note_on,0,0,0,,,,,,,,,4,,68,100
113540,note_on,10,0,0,,,,,,,,,4,,68,0
113540,note_on,0,0,0,,,,,,,,,1,,68,0
113540,note_on,0,0,0,,,,,,,,,1,,69,100
113540,note_on,0,0,0,,,,,,,,,4,,69,100
113550,note_on,10,0,0,,,,,,,,,4,,69,0
113550,note_on,0,0,0,,,,,,,,,1,,69,0
113550,note_on,0,0,0,,,,,,,,,1,,68,100
113550,note_on,0,0,0,,,,,,,,,4,,68,100
113560,note_on,10,0,0,,,,,,,,,4,,68,0
113560,note_on,0,0,0,,,,,,,,,1,,68,0
113560,note_on,0,0,0,,,,,,,,,1,,66,100
113560,note_on,0,0,0,,,,,,,,,4,,66,100
113590,note_on,30,0,0,,,,,,,,,4,,66,0
113590,note_on,0,0,0,,,,,,,,,1,,66,0
113600,note_on,10,0,0,,,,,,,,,1,,64,100
113600,note_on,0,0,0,,,,,,,,,4,,64,100
113630,note_on,30,0,0,,,,,,,,,4,,64,0
113630,note_on,0,0,0,,,,,,,,,1,,64,0
113640,note_on,10,0,0,,,,,,,,,1,,59,100
113640,note_on,0,0,0,,,,,,,,,1,,63,100
113640,note_on,0,0,0,,,,,,,,,4,,59,100
113640,note_on,0,0,0,,,,,,,,,4,,63,100
113670,note_on,30,0,0,,,,,,,,,4,,63,0
113670,note_on,0,0,0,,,,,,,,,1,,63,0
113680,note_on,10,0,0,,,,,,,,,1,,66,100
113680,note_on,0,0,0,,,,,,,,,4,,66,100
113710,note_on,30,0,0,,,,,,,,,4,,66,0
113710,note_on,0,0,0,,,,,,,,,1,,59,0
113710,note_on,0,0,0,,,,,,,,,4,,59,0
113710,note_on,0,0,0,,,,,,,,,1,,66,0
113720,note_on,10,0,0,,,,,,,,,1,,71,100
113720,note_on,0,0,0,,,,,,,,,4,,71,100
113750,note_on,30,0,0,,,,,,,,,4,,71,0
113750,note_on,0,0,0,,,,,,,,,1,,71,0
113760,note_on,10,0,0,,,,,,,,,1,,69,100
113760,note_on,0,0,0,,,,,,,,,4,,69,100
113790,note_on,30,0,0,,,,,,,,,4,,69,0
113790,note_on,0,0,0,,,,,,,,,1,,69,0
113800,note_on,10,0,0,,,,,,,,,1,,68,100
113800,note_on,0,0,0,,,,,,,,,4,,68,100
113830,note_on,30,0,0,,,,,,,,,4,,68,0
113830,note_on,0,0,0,,,,,,,,,1,,68,0
113840,note_on,10,0,0,,,,,,,,,1,,66,100
113840,note_on,0,0,0,,,,,,,,,4,,66,100
113870,note_on,30,0,0,,,,,,,,,4,,66,0
113870,note_on,0,0,0,,,,,,,,,1,,66,0
113880,note_on,10,0,0,,,,,,,,,1,,68,100
113880,note_on,0,0,0,,,,,,,,,4,,68,100
113910,note_on,30,0,0,,,,,,,,,4,,68,0
113910,note_on,0,0,0,,,,,,,,,1,,68,0
113920,note_on,10,0,0,,,,,,,,,1,,71,100
113920,note_on,0,0,0,,,,,,,,,4,,71,100
113950,note_on,30,0,0,,,,,,,,,4,,71,0
113950,note_on,0,0,0,,,,,,,,,1,,71,0
113960,note_on,10,0,0,,,,,,,,,1,,76,100
113960,note_on,0,0,0,,,,,,,,,4,,76,100
113990,note_on,30,0,0,,,,,,,,,4,,76,0
113990,note_on,0,0,0,,,,,,,,,1,,76,0
114000,note_on,10,0,0,,,,,,,,,1,,69,100
114000,note_on,0,0,0,,,,,,,,,4,,69,100
114030,note_on,30,0,0,,,,,,,,,4,,69,0
114030,note_on,0,0,0,,,,,,,,,1,,69,0
114040,note_on,10,0,0,,,,,,,,,1,,75,100
114040,note_on,0,0,0,,,,,,,,,4,,75,100
114070,note_on,30,0,0,,,,,,,,,4,,75,0
114070,note_on,0,0,0,,,,,,,,,1,,75,0
114080,note_on,10,0,0,,,,,,,,,1,,78,100
114080,note_on,0,0,0,,,,,,,,,4,,78,100
114110,note_on,30,0,0,,,,,,,,,4,,78,0
114110,note_on,0,0,0,,,,,,,,,1,,78,0
114120,note_on,10,0,0,,,,,,,,,1,,71,100
114120,note_on,0,0,0,,,,,,,,,4,,71,100
114150,note_on,30,0,0,,,,,,,,,4,,71,0
114150,note_on,0,0,0,,,,,,,,,1,,71,0
114160,note_on,10,0,0,,,,,,,,,1,,76,100
114160,note_on,0,0,0,,,,,,,,,4,,76,100
114190,note_on,30,0,0,,,,,,,,,4,,76,0
114190,note_on,0,0,0,,,,,,,,,1,,76,0
114200,note_on,10,0,0,,,,,,,,,1,,80,100
114200,note_on,0,0,0,,,,,,,,,4,,80,100
114230,note_on,30,0,0,,,,,,,,,4,,80,0
114230,note_on,0,0,0,,,,,,,,,1,,80,0
114240,note_on,10,0,0,,,,,,,,,1,,73,100
114240,note_on,0,0,0,,,,,,,,,4,,73,100
114270,note_on,30,0,0,,,,,,,,,4,,73,0
114270,note_on,0,0,0,,,,,,,,,1,,73,0
114280,note_on,10,0,0,,,,,,,,,1,,76,100
114280,note_on,0,0,0,,,,,,,,,4,,76,100
114310,note_on,30,0,0,,,,,,,,,4,,76,0
114310,note_on,0,0,0,,,,,,,,,1,,76,0
114320,note_on,10,0,0,,,,,,,,,1,,81,100
114320,note_on,0,0,0,,,,,,,,,4,,81,100
114350,note_on,30,0,0,,,,,,,,,4,,81,0
114350,note_on,0,0,0,,,,,,,,,1,,81,0
114360,note_on,10,0,0,,,,,,,,,1,,75,100
114360,note_on,0,0,0,,,,,,,,,4,,75,100
114390,note_on,30,0,0,,,,,,,,,4,,75,0
114390,note_on,0,0,0,,,,,,,,,1,,75,0
114400,note_on,10,0,0,,,,,,,,,1,,78,100
114400,note_on,0,0,0,,,,,,,,,4,,78,100
114430,note_on,30,0,0,,,,,,,,,4,,78,0
114430,note_on,0,0,0,,,,,,,,,1,,78,0
114440,note_on,10,0,0,,,,,,,,,1,,81,100
114440,note_on,0,0,0,,,,,,,,,4,,81,100
114470,note_on,30,0,0,,,,,,,,,4,,81,0
114470,note_on,0,0,0,,,,,,,,,1,,81,0
114480,note_on,10,0,0,,,,,,,,,1,,76,100
114480,note_on,0,0,0,,,,,,,,,4,,76,100
114510,note_on,30,0,0,,,,,,,,,4,,76,0
114510,note_on,0,0,0,,,,,,,,,1,,76,0
114520,note_on,10,0,0,,,,,,,,,1,,80,100
114520,note_on,0,0,0,,,,,,,,,4,,80,100
114550,note_on,30,0,0,,,,,,,,,4,,80,0
114550,note_on,0,0,0,,,,,,,,,1,,80,0
114560,note_on,10,0,0,,,,,,,,,1,,83,100
114560,note_on,0,0,0,,,,,,,,,4,,83,100
114590,note_on,30,0,0,,,,,,,,,4,,83,0
114590,note_on,0,0,0,,,,,,,,,1,,83,0
114600,note_on,10,0,0,,,,,,,,,1,,47,100
114600,note_on,0,0,0,,,,,,,,,1,,51,100
114600,note_on,0,0,0,,,,,,,,,1,,54,100
114600,note_on,0,0,0,,,,,,,,,1,,59,100
114600,note_on,0,0,0,,,,,,,,,1,,75,100
114600,note_on,0,0,0,,,,,,,,,4,,47,100
114600,note_on,0,0,0,,,,,,,,,4,,51,100
114600,note_on,0,0,0,,,,,,,,,4,,54,100
114600,note_on,0,0,0,,,,,,,,,4,,59,100
114600,note_on,0,0,0,,,,,,,,,4,,75,100
114630,note_on,30,0,0,,,,,,,,,4,,75,0
114630,note_on,0,0,0,,,,,,,,,1,,75,0
114640,note_on,10,0,0,,,,,,,,,1,,83,100
114640,note_on,0,0,0,,,,,,,,,4,,83,100
114670,note_on,30,0,0,,,,,,,,,4,,83,0
114670,note_on,0,0,0,,,,,,,,,4,,59,0
114670,note_on,0,0,0,,,,,,,,,4,,54,0
114670,note_on,0,0,0,,,,,,,,,1,,47,0
114670,note_on,0,0,0,,,,,,,,,4,,47,0
114670,note_on,0,0,0,,,,,,,,,1,,51,0
114670,note_on,0,0,0,,,,,,,,,1,,59,0
114670,note_on,0,0,0,,,,,,,,,1,,54,0
114670,note_on,0,0,0,,,,,,,,,4,,51,0
114670,note_on,0,0,0,,,,,,,,,1,,83,0
114680,note_on,10,0,0,,,,,,,,,1,,81,100
114680,note_on,0,0,0,,,,,,,,,4,,81,100
114710,note_on,30,0,0,,,,,,,,,4,,81,0
114710,note_on,0,0,0,,,,,,,,,1,,81,0
114720,note_on,10,0,0,,,,,,,,,1,,80,100
114720,note_on,0,0,0,,,,,,,,,4,,80,100
114750,note_on,30,0,0,,,,,,,,,4,,80,0
114750,note_on,0,0,0,,,,,,,,,1,,80,0
114760,note_on,10,0,0,,,,,,,,,1,,78,100
114760,note_on,0,0,0,,,,,,,,,4,,78,100
114790,note_on,30,0,0,,,,,,,,,4,,78,0
114790,note_on,0,0,0,,,,,,,,,1,,78,0
114800,note_on,10,0,0,,,,,,,,,1,,76,100
114800,note_on,0,0,0,,,,,,,,,4,,76,100
114830,note_on,30,0,0,,,,,,,,,4,,76,0
114830,note_on,0,0,0,,,,,,,,,1,,76,0
114840,note_on,10,0,0,,,,,,,,,1,,75,100
114840,note_on,0,0,0,,,,,,,,,4,,75,100
114870,note_on,30,0,0,,,,,,,,,4,,75,0
114870,note_on,0,0,0,,,,,,,,,1,,75,0
114880,note_on,10,0,0,,,,,,,,,1,,73,100
114880,note_on,0,0,0,,,,,,,,,4,,73,100
114910,note_on,30,0,0,,,,,,,,,4,,73,0
114910,note_on,0,0,0,,,,,,,,,1,,73,0
114920,note_on,10,0,0,,,,,,,,,1,,71,100
114920,note_on,0,0,0,,,,,,,,,4,,71,100
114950,note_on,30,0,0,,,,,,,,,4,,71,0
114950,note_on,0,0,0,,,,,,,,,1,,71,0
114960,note_on,10,0,0,,,,,,,,,1,,69,100
114960,note_on,0,0,0,,,,,,,,,4,,69,100
114990,note_on,30,0,0,,,,,,,,,4,,69,0
114990,note_on,0,0,0,,,,,,,,,1,,69,0
115000,note_on,10,0,0,,,,,,,,,1,,68,100
115000,note_on,0,0,0,,,,,,,,,4,,68,100
115020,note_on,20,0,0,,,,,,,,,5,,71,100
115020,note_on,0,0,0,,,,,,,,,6,,63,100
115020,note_on,0,0,0,,,,,,,,,7,,63,100
115020,note_on,0,0,0,,,,,,,,,13,,71,100
115030,note_on,10,0,0,,,,,,,,,4,,68,0
115030,note_on,0,0,0,,,,,,,,,1,,68,0
115040,note_on,10,0,0,,,,,,,,,1,,66,100
115040,note_on,0,0,0,,,,,,,,,4,,66,100
115050,note_on,10,0,0,,,,,,,,,7,,63,0
115050,note_on,0,0,0,,,,,,,,,5,,71,0
115050,note_on,0,0,0,,,,,,,,,6,,63,0
115050,note_on,0,0,0,,,,,,,,,13,,71,0
115070,note_on,20,0,0,,,,,,,,,4,,66,0
115070,note_on,0,0,0,,,,,,,,,1,,66,0
115080,note_on,10,0,0,,,,,,,,,0,,56,100
115080,note_on,0,0,0,,,,,,,,,0,,64,100
115080,note_on,0,0,0,,,,,,,,,0,,59,100
115080,note_on,0,0,0,,,,,,,,,0,,52,100
115080,note_on,0,0,0,,,,,,,,,0,,78,100
115080,note_on,0,0,0,,,,,,,,,3,,78,100
115080,note_on,0,0,0,,,,,,,,,5,,78,100
115080,note_on,0,0,0,,,,,,,,,6,,68,100
115080,note_on,0,0,0,,,,,,,,,7,,68,100
115080,note_on,0,0,0,,,,,,,,,8,,52,100
115080,note_on,0,0,0,,,,,,,,,10,,40,100
115080,note_on,0,0,0,,,,,,,,,13,,78,100
115080,note_on,0,0,0,,,,,,,,,14,,52,100
115080,note_on,0,0,0,,,,,,,,,15,,52,100
115095,note_on,15,0,0,,,,,,,,,13,,78,0
115095,note_on,0,0,0,,,,,,,,,5,,78,0
115095,note_on,0,0,0,,,,,,,,,3,,78,0
115095,note_on,0,0,0,,,,,,,,,0,,78,0
115095,note_on,0,0,0,,,,,,,,,0,,76,100
115095,note_on,0,0,0,,,,,,,,,3,,76,100
115095,note_on,0,0,0,,,,,,,,,5,,76,100
115095,note_on,0,0,0,,,,,,,,,13,,76,100
115110,note_on,15,0,0,,,,,,,,,13,,76,0
115110,note_on,0,0,0,,,,,,,,,5,,76,0
115110,note_on,0,0,0,,,,,,,,,0,,76,0
115110,note_on,0,0,0,,,,,,,,,3,,76,0
115110,note_on,0,0,0,,,,,,,,,0,,78,100
115110,note_on,0,0,0,,,,,,,,,3,,78,100
115110,note_on,0,0,0,,,,,,,,,5,,78,100
115110,note_on,0,0,0,,,,,,,,,13,,78,100
115125,note_on,15,0,0,,,,,,,,,13,,78,0
115125,note_on,0,0,0,,,,,,,,,5,,78,0
115125,note_on,0,0,0,,,,,,,,,0,,78,0
115125,note_on,0,0,0,,,,,,,,,3,,78,0
115125,note_on,0,0,0,,,,,,,,,0,,76,100
115125,note_on,0,0,0,,,,,,,,,3,,76,100
115125,note_on,0,0,0,,,,,,,,,5,,76,100
115125,note_on,0,0,0,,,,,,,,,13,,76,100
115140,note_on,15,0,0,,,,,,,,,13,,76,0
115140,note_on,0,0,0,,,,,,,,,14,,52,0
115140,note_on,0,0,0,,,,,,,,,15,,52,0
115140,note_on,0,0,0,,,,,,,,,10,,40,0
115140,note_on,0,0,0,,,,,,,,,8,,52,0
115140,note_on,0,0,0,,,,,,,,,5,,76,0
115140,note_on,0,0,0,,,,,,,,,0,,76,0
115140,note_on,0,0,0,,,,,,,,,3,,76,0
115140,note_on,0,0,0,,,,,,,,,0,,78,100
115140,note_on,0,0,0,,,,,,,,,3,,78,100
115140,note_on,0,0,0,,,,,,,,,5,,78,100
115140,note_on,0,0,0,,,,,,,,,13,,78,100
115155,note_on,15,0,0,,,,,,,,,13,,78,0
115155,note_on,0,0,0,,,,,,,,,5,,78,0
115155,note_on,0,0,0,,,,,,,,,0,,78,0
115155,note_on,0,0,0,,,,,,,,,3,,78,0
115155,note_on,0,0,0,,,,,,,,,0,,76,100
115155,note_on,0,0,0,,,,,,,,,3,,76,100
115155,note_on,0,0,0,,,,,,,,,5,,76,100
115155,note_on,0,0,0,,,,,,,,,13,,76,100
115170,note_on,15,0,0,,,,,,,,,13,,76,0
115170,note_on,0,0,0,,,,,,,,,5,,76,0
115170,note_on,0,0,0,,,,,,,,,0,,76,0
115170,note_on,0,0,0,,,,,,,,,3,,76,0
115170,note_on,0,0,0,,,,,,,,,6,,68,0
115170,note_on,0,0,0,,,,,,,,,7,,68,0
115170,note_on,0,0,0,,,,,,,,,0,,78,100
115170,note_on,0,0,0,,,,,,,,,3,,78,100
115170,note_on,0,0,0,,,,,,,,,5,,78,100
115170,note_on,0,0,0,,,,,,,,,13,,78,100
115185,note_on,15,0,0,,,,,,,,,13,,78,0
115185,note_on,0,0,0,,,,,,,,,5,,78,0
115185,note_on,0,0,0,,,,,,,,,0,,78,0
115185,note_on,0,0,0,,,,,,,,,3,,78,0
115185,note_on,0,0,0,,,,,,,,,0,,76,100
115185,note_on,0,0,0,,,,,,,,,3,,76,100
115185,note_on,0,0,0,,,,,,,,,5,,76,100
115185,note_on,0,0,0,,,,,,,,,13,,76,100
115200,note_on,15,0,0,,,,,,,,,13,,76,0
115200,note_on,0,0,0,,,,,,,,,0,,56,0
115200,note_on,0,0,0,,,,,,,,,0,,76,0
115200,note_on,0,0,0,,,,,,,,,0,,59,0
115200,note_on,0,0,0,,,,,,,,,0,,52,0
115200,note_on,0,0,0,,,,,,,,,0,,64,0
115200,note_on,0,0,0,,,,,,,,,3,,76,0
115200,note_on,0,0,0,,,,,,,,,5,,76,0
115200,note_on,0,0,0,,,,,,,,,0,,54,100
115200,note_on,0,0,0,,,,,,,,,0,,78,100
115200,note_on,0,0,0,,,,,,,,,3,,78,100
115200,note_on,0,0,0,,,,,,,,,5,,78,100
115200,note_on,0,0,0,,,,,,,,,6,,69,100
115200,note_on,0,0,0,,,,,,,,,7,,69,100
115200,note_on,0,0,0,,,,,,,,,8,,54,100
115200,note_on,0,0,0,,,,,,,,,10,,42,100
115200,note_on,0,0,0,,,,,,,,,13,,78,100
115200,note_on,0,0,0,,,,,,,,,14,,54,100
115200,note_on,0,0,0,,,,,,,,,15,,54,100
115215,note_on,15,0,0,,,,,,,,,13,,78,0
115215,note_on,0,0,0,,,,,,,,,5,,78,0
115215,note_on,0,0,0,,,,,,,,,3,,78,0
115215,note_on,0,0,0,,,,,,,,,0,,78,0
115215,note_on,0,0,0,,,,,,,,,0,,76,100
115215,note_on,0,0,0,,,,,,,,,3,,76,100
115215,note_on,0,0,0,,,,,,,,,5,,76,100
115215,note_on,0,0,0,,,,,,,,,13,,76,100
115230,note_on,15,0,0,,,,,,,,,13,,76,0
115230,note_on,0,0,0,,,,,,,,,0,,76,0
115230,note_on,0,0,0,,,,,,,,,5,,76,0
115230,note_on,0,0,0,,,,,,,,,3,,76,0
115260,note_on,30,0,0,,,,,,,,,10,,42,0
115260,note_on,0,0,0,,,,,,,,,14,,54,0
115260,note_on,0,0,0,,,,,,,,,15,,54,0
115260,note_on,0,0,0,,,,,,,,,8,,54,0
115260,note_on,0,0,0,,,,,,,,,0,,75,100
115260,note_on,0,0,0,,,,,,,,,3,,75,100
115260,note_on,0,0,0,,,,,,,,,5,,75,100
115260,note_on,0,0,0,,,,,,,,,13,,75,100
115275,note_on,15,0,0,,,,,,,,,0,,54,0
115290,note_on,15,0,0,,,,,,,,,5,,75,0
115290,note_on,0,0,0,,,,,,,,,6,,69,0
115290,note_on,0,0,0,,,,,,,,,0,,75,0
115290,note_on,0,0,0,,,,,,,,,7,,69,0
115290,note_on,0,0,0,,,,,,,,,13,,75,0
115290,note_on,0,0,0,,,,,,,,,3,,75,0
115290,note_on,0,0,0,,,,,,,,,0,,73,100
115290,note_on,0,0,0,,,,,,,,,3,,73,100
115290,note_on,0,0,0,,,,,,,,,5,,73,100
115290,note_on,0,0,0,,,,,,,,,13,,73,100
115305,note_on,15,0,0,,,,,,,,,13,,73,0
115305,note_on,0,0,0,,,,,,,,,0,,73,0
115305,note_on,0,0,0,,,,,,,,,3,,73,0
115305,note_on,0,0,0,,,,,,,,,5,,73,0
115320,note_on,15,0,0,,,,,,,,,0,,56,100
115320,note_on,0,0,0,,,,,,,,,0,,71,100
115320,note_on,0,0,0,,,,,,,,,3,,71,100
115320,note_on,0,0,0,,,,,,,,,5,,71,100
115320,note_on,0,0,0,,,,,,,,,6,,71,100
115320,note_on,0,0,0,,,,,,,,,7,,71,100
115320,note_on,0,0,0,,,,,,,,,8,,56,100
115320,note_on,0,0,0,,,,,,,,,10,,44,100
115320,note_on,0,0,0,,,,,,,,,13,,71,100
115320,note_on,0,0,0,,,,,,,,,14,,56,100
115320,note_on,0,0,0,,,,,,,,,15,,56,100
115350,note_on,30,0,0,,,,,,,,,13,,71,0
115350,note_on,0,0,0,,,,,,,,,5,,71,0
115350,note_on,0,0,0,,,,,,,,,3,,71,0
115350,note_on,0,0,0,,,,,,,,,0,,71,0
115380,note_on,30,0,0,,,,,,,,,14,,56,0
115380,note_on,0,0,0,,,,,,,,,10,,44,0
115380,note_on,0,0,0,,,,,,,,,15,,56,0
115380,note_on,0,0,0,,,,,,,,,8,,56,0
115380,note_on,0,0,0,,,,,,,,,0,,76,100
115380,note_on,0,0,0,,,,,,,,,3,,76,100
115380,note_on,0,0,0,,,,,,,,,5,,76,100
115380,note_on,0,0,0,,,,,,,,,13,,76,100
115395,note_on,15,0,0,,,,,,,,,0,,56,0
115410,note_on,15,0,0,,,,,,,,,5,,76,0
115410,note_on,0,0,0,,,,,,,,,6,,71,0
115410,note_on,0,0,0,,,,,,,,,0,,76,0
115410,note_on,0,0,0,,,,,,,,,7,,71,0
115410,note_on,0,0,0,,,,,,,,,13,,76,0
115410,note_on,0,0,0,,,,,,,,,3,,76,0
115440,note_on,30,0,0,,,,,,,,,0,,52,100
115440,note_on,0,0,0,,,,,,,,,6,,68,100
115440,note_on,0,0,0,,,,,,,,,7,,68,100
115440,note_on,0,0,0,,,,,,,,,8,,52,100
115440,note_on,0,0,0,,,,,,,,,10,,40,100
115440,note_on,0,0,0,,,,,,,,,14,,52,100
115440,note_on,0,0,0,,,,,,,,,15,,52,100
115500,note_on,60,0,0,,,,,,,,,15,,52,0
115500,note_on,0,0,0,,,,,,,,,10,,40,0
115500,note_on,0,0,0,,,,,,,,,8,,52,0
115500,note_on,0,0,0,,,,,,,,,14,,52,0
115500,note_on,0,0,0,,,,,,,,,0,,64,100
115500,note_on,0,0,0,,,,,,,,,3,,64,100
115500,note_on,0,0,0,,,,,,,,,5,,64,100
115500,note_on,0,0,0,,,,,,,,,13,,64,100
115515,note_on,15,0,0,,,,,,,,,0,,52,0
115530,note_on,15,0,0,,,,,,,,,5,,64,0
115530,note_on,0,0,0,,,,,,,,,7,,68,0
115530,note_on,0,0,0,,,,,,,,,0,,64,0
115530,note_on,0,0,0,,,,,,,,,6,,68,0
115530,note_on,0,0,0,,,,,,,,,13,,64,0
115530,note_on,0,0,0,,,,,,,,,3,,64,0
115560,note_on,30,0,0,,,,,,,,,0,,49,100
115560,note_on,0,0,0,,,,,,,,,0,,71,100
115560,note_on,0,0,0,,,,,,,,,3,,71,100
115560,note_on,0,0,0,,,,,,,,,5,,71,100
115560,note_on,0,0,0,,,,,,,,,6,,64,100
115560,note_on,0,0,0,,,,,,,,,7,,64,100
115560,note_on,0,0,0,,,,,,,,,8,,49,100
115560,note_on,0,0,0,,,,,,,,,10,,37,100
115560,note_on,0,0,0,,,,,,,,,13,,71,100
115560,note_on,0,0,0,,,,,,,,,14,,49,100
115560,note_on,0,0,0,,,,,,,,,15,,49,100
115575,note_on,15,0,0,,,,,,,,,13,,71,0
115575,note_on,0,0,0,,,,,,,,,5,,71,0
115575,note_on,0,0,0,,,,,,,,,3,,71,0
115575,note_on,0,0,0,,,,,,,,,0,,71,0
115575,note_on,0,0,0,,,,,,,,,0,,69,100
115575,note_on,0,0,0,,,,,,,,,3,,69,100
115575,note_on,0,0,0,,,,,,,,,5,,69,100
115575,note_on,0,0,0,,,,,,,,,13,,69,100
115590,note_on,15,0,0,,,,,,,,,13,,69,0
115590,note_on,0,0,0,,,,,,,,,0,,69,0
115590,note_on,0,0,0,,,,,,,,,5,,69,0
115590,note_on,0,0,0,,,,,,,,,3,,69,0
115590,note_on,0,0,0,,,,,,,,,0,,71,100
115590,note_on,0,0,0,,,,,,,,,3,,71,100
115590,note_on,0,0,0,,,,,,,,,5,,71,100
115590,note_on,0,0,0,,,,,,,,,13,,71,100
115605,note_on,15,0,0,,,,,,,,,13,,71,0
115605,note_on,0,0,0,,,,,,,,,0,,71,0
115605,note_on,0,0,0,,,,,,,,,5,,71,0
115605,note_on,0,0,0,,,,,,,,,3,,71,0
115605,note_on,0,0,0,,,,,,,,,0,,69,100
115605,note_on,0,0,0,,,,,,,,,3,,69,100
115605,note_on,0,0,0,,,,,,,,,5,,69,100
115605,note_on,0,0,0,,,,,,,,,13,,69,100
115620,note_on,15,0,0,,,,,,,,,13,,69,0
115620,note_on,0,0,0,,,,,,,,,0,,69,0
115620,note_on,0,0,0,,,,,,,,,15,,49,0
115620,note_on,0,0,0,,,,,,,,,10,,37,0
115620,note_on,0,0,0,,,,,,,,,5,,69,0
115620,note_on,0,0,0,,,,,,,,,14,,49,0
115620,note_on,0,0,0,,,,,,,,,3,,69,0
115620,note_on,0,0,0,,,,,,,,,8,,49,0
115620,note_on,0,0,0,,,,,,,,,0,,71,100
115620,note_on,0,0,0,,,,,,,,,3,,71,100
115620,note_on,0,0,0,,,,,,,,,5,,71,100
115620,note_on,0,0,0,,,,,,,,,13,,71,100
115635,note_on,15,0,0,,,,,,,,,13,,71,0
115635,note_on,0,0,0,,,,,,,,,3,,71,0
115635,note_on,0,0,0,,,,,,,,,0,,71,0
115635,note_on,0,0,0,,,,,,,,,0,,49,0
115635,note_on,0,0,0,,,,,,,,,5,,71,0
115635,note_on,0,0,0,,,,,,,,,0,,69,100
115635,note_on,0,0,0,,,,,,,,,3,,69,100
115635,note_on,0,0,0,,,,,,,,,5,,69,100
115635,note_on,0,0,0,,,,,,,,,13,,69,100
115650,note_on,15,0,0,,,,,,,,,13,,69,0
115650,note_on,0,0,0,,,,,,,,,7,,64,0
115650,note_on,0,0,0,,,,,,,,,0,,69,0
115650,note_on,0,0,0,,,,,,,,,6,,64,0
115650,note_on,0,0,0,,,,,,,,,5,,69,0
115650,note_on,0,0,0,,,,,,,,,3,,69,0
115650,note_on,0,0,0,,,,,,,,,0,,71,100
115650,note_on,0,0,0,,,,,,,,,3,,71,100
115650,note_on,0,0,0,,,,,,,,,5,,71,100
115650,note_on,0,0,0,,,,,,,,,13,,71,100
115665,note_on,15,0,0,,,,,,,,,13,,71,0
115665,note_on,0,0,0,,,,,,,,,0,,71,0
115665,note_on,0,0,0,,,,,,,,,3,,71,0
115665,note_on,0,0,0,,,,,,,,,5,,71,0
115665,note_on,0,0,0,,,,,,,,,0,,69,100
115665,note_on,0,0,0,,,,,,,,,3,,69,100
115665,note_on,0,0,0,,,,,,,,,5,,69,100
115665,note_on,0,0,0,,,,,,,,,13,,69,100
115680,note_on,15,0,0,,,,,,,,,13,,69,0
115680,note_on,0,0,0,,,,,,,,,0,,69,0
115680,note_on,0,0,0,,,,,,,,,3,,69,0
115680,note_on,0,0,0,,,,,,,,,5,,69,0
115680,note_on,0,0,0,,,,,,,,,0,,51,100
115680,note_on,0,0,0,,,,,,,,,0,,71,100
115680,note_on,0,0,0,,,,,,,,,3,,71,100
115680,note_on,0,0,0,,,,,,,,,5,,71,100
115680,note_on,0,0,0,,,,,,,,,6,,66,100
115680,note_on,0,0,0,,,,,,,,,7,,66,100
115680,note_on,0,0,0,,,,,,,,,8,,51,100
115680,note_on,0,0,0,,,,,,,,,10,,39,100
115680,note_on,0,0,0,,,,,,,,,13,,71,100
115680,note_on,0,0,0,,,,,,,,,14,,51,100
115680,note_on,0,0,0,,,,,,,,,15,,51,100
115695,note_on,15,0,0,,,,,,,,,13,,71,0
115695,note_on,0,0,0,,,,,,,,,5,,71,0
115695,note_on,0,0,0,,,,,,,,,3,,71,0
115695,note_on,0,0,0,,,,,,,,,0,,71,0
115695,note_on,0,0,0,,,,,,,,,0,,69,100
115695,note_on,0,0,0,,,,,,,,,3,,69,100
115695,note_on,0,0,0,,,,,,,,,5,,69,100
115695,note_on,0,0,0,,,,,,,,,13,,69,100
115710,note_on,15,0,0,,,,,,,,,13,,69,0
115710,note_on,0,0,0,,,,,,,,,0,,69,0
115710,note_on,0,0,0,,,,,,,,,5,,69,0
115710,note_on,0,0,0,,,,,,,,,3,,69,0
115740,note_on,30,0,0,,,,,,,,,10,,39,0
115740,note_on,0,0,0,,,,,,,,,14,,51,0
115740,note_on,0,0,0,,,,,,,,,15,,51,0
115740,note_on,0,0,0,,,,,,,,,8,,51,0
115740,note_on,0,0,0,,,,,,,,,0,,68,100
115740,note_on,0,0,0,,,,,,,,,3,,68,100
115740,note_on,0,0,0,,,,,,,,,5,,68,100
115740,note_on,0,0,0,,,,,,,,,13,,68,100
115755,note_on,15,0,0,,,,,,,,,0,,51,0
115770,note_on,15,0,0,,,,,,,,,5,,68,0
115770,note_on,0,0,0,,,,,,,,,6,,66,0
115770,note_on,0,0,0,,,,,,,,,0,,68,0
115770,note_on,0,0,0,,,,,,,,,7,,66,0
115770,note_on,0,0,0,,,,,,,,,13,,68,0
115770,note_on,0,0,0,,,,,,,,,3,,68,0
115770,note_on,0,0,0,,,,,,,,,0,,66,100
115770,note_on,0,0,0,,,,,,,,,3,,66,100
115770,note_on,0,0,0,,,,,,,,,5,,66,100
115770,note_on,0,0,0,,,,,,,,,13,,66,100
115785,note_on,15,0,0,,,,,,,,,13,,66,0
115785,note_on,0,0,0,,,,,,,,,0,,66,0
115785,note_on,0,0,0,,,,,,,,,3,,66,0
115785,note_on,0,0,0,,,,,,,,,5,,66,0
115800,note_on,15,0,0,,,,,,,,,0,,52,100
115800,note_on,0,0,0,,,,,,,,,0,,68,100
115800,note_on,0,0,0,,,,,,,,,3,,68,100
115800,note_on,0,0,0,,,,,,,,,5,,68,100
115800,note_on,0,0,0,,,,,,,,,6,,59,100
115800,note_on,0,0,0,,,,,,,,,7,,59,100
115800,note_on,0,0,0,,,,,,,,,8,,52,100
115800,note_on,0,0,0,,,,,,,,,10,,40,100
115800,note_on,0,0,0,,,,,,,,,13,,68,100
115800,note_on,0,0,0,,,,,,,,,14,,52,100
115800,note_on,0,0,0,,,,,,,,,15,,52,100
115830,note_on,30,0,0,,,,,,,,,13,,68,0
115830,note_on,0,0,0,,,,,,,,,5,,68,0
115830,note_on,0,0,0,,,,,,,,,3,,68,0
115830,note_on,0,0,0,,,,,,,,,0,,68,0
115860,note_on,30,0,0,,,,,,,,,14,,52,0
115860,note_on,0,0,0,,,,,,,,,10,,40,0
115860,note_on,0,0,0,,,,,,,,,15,,52,0
115860,note_on,0,0,0,,,,,,,,,8,,52,0
115860,note_on,0,0,0,,,,,,,,,0,,83,100
115860,note_on,0,0,0,,,,,,,,,3,,83,100
115860,note_on,0,0,0,,,,,,,,,5,,83,100
115860,note_on,0,0,0,,,,,,,,,13,,83,100
115875,note_on,15,0,0,,,,,,,,,0,,52,0
115890,note_on,15,0,0,,,,,,,,,5,,83,0
115890,note_on,0,0,0,,,,,,,,,6,,59,0
115890,note_on,0,0,0,,,,,,,,,0,,83,0
115890,note_on,0,0,0,,,,,,,,,7,,59,0
115890,note_on,0,0,0,,,,,,,,,13,,83,0
115890,note_on,0,0,0,,,,,,,,,3,,83,0
115920,note_on,30,0,0,,,,,,,,,0,,56,100
115920,note_on,0,0,0,,,,,,,,,6,,64,100
115920,note_on,0,0,0,,,,,,,,,7,,64,100
115920,note_on,0,0,0,,,,,,,,,8,,56,100
115920,note_on,0,0,0,,,,,,,,,10,,44,100
115920,note_on,0,0,0,,,,,,,,,14,,56,100
115920,note_on,0,0,0,,,,,,,,,15,,56,100
115980,note_on,60,0,0,,,,,,,,,15,,56,0
115980,note_on,0,0,0,,,,,,,,,10,,44,0
115980,note_on,0,0,0,,,,,,,,,8,,56,0
115980,note_on,0,0,0,,,,,,,,,14,,56,0
115980,note_on,0,0,0,,,,,,,,,0,,71,100
115980,note_on,0,0,0,,,,,,,,,3,,71,100
115980,note_on,0,0,0,,,,,,,,,5,,71,100
115980,note_on,0,0,0,,,,,,,,,13,,71,100
115995,note_on,15,0,0,,,,,,,,,0,,56,0
116010,note_on,15,0,0,,,,,,,,,5,,71,0
116010,note_on,0,0,0,,,,,,,,,7,,64,0
116010,note_on,0,0,0,,,,,,,,,0,,71,0
116010,note_on,0,0,0,,,,,,,,,6,,64,0
116010,note_on,0,0,0,,,,,,,,,13,,71,0
116010,note_on,0,0,0,,,,,,,,,3,,71,0
116040,note_on,30,0,0,,,,,,,,,0,,57,100
116040,note_on,0,0,0,,,,,,,,,0,,73,100
116040,note_on,0,0,0,,,,,,,,,3,,73,100
116040,note_on,0,0,0,,,,,,,,,5,,73,100
116040,note_on,0,0,0,,,,,,,,,6,,64,100
116040,note_on,0,0,0,,,,,,,,,7,,64,100
116040,note_on,0,0,0,,,,,,,,,8,,57,100
116040,note_on,0,0,0,,,,,,,,,10,,45,100
116040,note_on,0,0,0,,,,,,,,,13,,73,100
116040,note_on,0,0,0,,,,,,,,,14,,57,100
116040,note_on,0,0,0,,,,,,,,,15,,57,100
116070,note_on,30,0,0,,,,,,,,,13,,73,0
116070,note_on,0,0,0,,,,,,,,,5,,73,0
116070,note_on,0,0,0,,,,,,,,,3,,73,0
116070,note_on,0,0,0,,,,,,,,,0,,73,0
116100,note_on,30,0,0,,,,,,,,,14,,57,0
116100,note_on,0,0,0,,,,,,,,,10,,45,0
116100,note_on,0,0,0,,,,,,,,,15,,57,0
116100,note_on,0,0,0,,,,,,,,,8,,57,0
116100,note_on,0,0,0,,,,,,,,,0,,81,100
116100,note_on,0,0,0,,,,,,,,,3,,81,100
116100,note_on,0,0,0,,,,,,,,,5,,81,100
116100,note_on,0,0,0,,,,,,,,,13,,81,100
116115,note_on,15,0,0,,,,,,,,,0,,57,0
116130,note_on,15,0,0,,,,,,,,,5,,81,0
116130,note_on,0,0,0,,,,,,,,,6,,64,0
116130,note_on,0,0,0,,,,,,,,,0,,81,0
116130,note_on,0,0,0,,,,,,,,,7,,64,0
116130,note_on,0,0,0,,,,,,,,,13,,81,0
116130,note_on,0,0,0,,,,,,,,,3,,81,0
116160,note_on,30,0,0,,,,,,,,,0,,54,100
116160,note_on,0,0,0,,,,,,,,,6,,66,100
116160,note_on,0,0,0,,,,,,,,,7,,66,100
116160,note_on,0,0,0,,,,,,,,,8,,54,100
116160,note_on,0,0,0,,,,,,,,,10,,42,100
116160,note_on,0,0,0,,,,,,,,,14,,54,100
116160,note_on,0,0,0,,,,,,,,,15,,54,100
116220,note_on,60,0,0,,,,,,,,,15,,54,0
116220,note_on,0,0,0,,,,,,,,,10,,42,0
116220,note_on,0,0,0,,,,,,,,,8,,54,0
116220,note_on,0,0,0,,,,,,,,,14,,54,0
116220,note_on,0,0,0,,,,,,,,,0,,69,100
116220,note_on,0,0,0,,,,,,,,,3,,69,100
116220,note_on,0,0,0,,,,,,,,,5,,69,100
116220,note_on,0,0,0,,,,,,,,,13,,69,100
116235,note_on,15,0,0,,,,,,,,,0,,54,0
116250,note_on,15,0,0,,,,,,,,,5,,69,0
116250,note_on,0,0,0,,,,,,,,,7,,66,0
116250,note_on,0,0,0,,,,,,,,,0,,69,0
116250,note_on,0,0,0,,,,,,,,,6,,66,0
116250,note_on,0,0,0,,,,,,,,,13,,69,0
116250,note_on,0,0,0,,,,,,,,,3,,69,0
116280,note_on,30,0,0,,,,,,,,,0,,51,100
116280,note_on,0,0,0,,,,,,,,,0,,71,100
116280,note_on,0,0,0,,,,,,,,,3,,71,100
116280,note_on,0,0,0,,,,,,,,,5,,71,100
116280,note_on,0,0,0,,,,,,,,,6,,66,100
116280,note_on,0,0,0,,,,,,,,,7,,66,100
116280,note_on,0,0,0,,,,,,,,,8,,51,100
116280,note_on,0,0,0,,,,,,,,,10,,39,100
116280,note_on,0,0,0,,,,,,,,,13,,71,100
116280,note_on,0,0,0,,,,,,,,,14,,51,100
116280,note_on,0,0,0,,,,,,,,,15,,51,100
116310,note_on,30,0,0,,,,,,,,,13,,71,0
116310,note_on,0,0,0,,,,,,,,,5,,71,0
116310,note_on,0,0,0,,,,,,,,,3,,71,0
116310,note_on,0,0,0,,,,,,,,,0,,71,0
116340,note_on,30,0,0,,,,,,,,,14,,51,0
116340,note_on,0,0,0,,,,,,,,,10,,39,0
116340,note_on,0,0,0,,,,,,,,,15,,51,0
116340,note_on,0,0,0,,,,,,,,,8,,51,0
116340,note_on,0,0,0,,,,,,,,,0,,80,100
116340,note_on,0,0,0,,,,,,,,,3,,80,100
116340,note_on,0,0,0,,,,,,,,,5,,80,100
116340,note_on,0,0,0,,,,,,,,,13,,80,100
116355,note_on,15,0,0,,,,,,,,,0,,51,0
116370,note_on,15,0,0,,,,,,,,,5,,80,0
116370,note_on,0,0,0,,,,,,,,,6,,66,0
116370,note_on,0,0,0,,,,,,,,,0,,80,0
116370,note_on,0,0,0,,,,,,,,,7,,66,0
116370,note_on,0,0,0,,,,,,,,,13,,80,0
116370,note_on,0,0,0,,,,,,,,,3,,80,0
116400,note_on,30,0,0,,,,,,,,,0,,47,100
116400,note_on,0,0,0,,,,,,,,,6,,63,100
116400,note_on,0,0,0,,,,,,,,,7,,63,100
116400,note_on,0,0,0,,,,,,,,,8,,47,100
116400,note_on,0,0,0,,,,,,,,,10,,35,100
116400,note_on,0,0,0,,,,,,,,,14,,47,100
116400,note_on,0,0,0,,,,,,,,,15,,47,100
116460,note_on,60,0,0,,,,,,,,,15,,47,0
116460,note_on,0,0,0,,,,,,,,,10,,35,0
116460,note_on,0,0,0,,,,,,,,,8,,47,0
116460,note_on,0,0,0,,,,,,,,,14,,47,0
116460,note_on,0,0,0,,,,,,,,,0,,81,100
116460,note_on,0,0,0,,,,,,,,,3,,81,100
116460,note_on,0,0,0,,,,,,,,,5,,81,100
116460,note_on,0,0,0,,,,,,,,,13,,81,100
116475,note_on,15,0,0,,,,,,,,,13,,81,0
116475,note_on,0,0,0,,,,,,,,,3,,81,0
116475,note_on,0,0,0,,,,,,,,,0,,81,0
116475,note_on,0,0,0,,,,,,,,,0,,47,0
116475,note_on,0,0,0,,,,,,,,,5,,81,0
116490,note_on,15,0,0,,,,,,,,,6,,63,0
116490,note_on,0,0,0,,,,,,,,,7,,63,0
116520,note_on,30,0,0,,,,,,,,,0,,52,100
116520,note_on,0,0,0,,,,,,,,,0,,80,100
116520,note_on,0,0,0,,,,,,,,,3,,80,100
116520,note_on,0,0,0,,,,,,,,,5,,80,100
116520,note_on,0,0,0,,,,,,,,,6,,71,100
116520,note_on,0,0,0,,,,,,,,,7,,71,100
116520,note_on,0,0,0,,,,,,,,,8,,52,100
116520,note_on,0,0,0,,,,,,,,,10,,40,100
116520,note_on,0,0,0,,,,,,,,,13,,80,100
116520,note_on,0,0,0,,,,,,,,,14,,52,100
116520,note_on,0,0,0,,,,,,,,,15,,52,100
116535,note_on,15,0,0,,,,,,,,,15,,52,0
116535,note_on,0,0,0,,,,,,,,,10,,40,0
116535,note_on,0,0,0,,,,,,,,,3,,80,0
116535,note_on,0,0,0,,,,,,,,,5,,80,0
116535,note_on,0,0,0,,,,,,,,,0,,52,0
116535,note_on,0,0,0,,,,,,,,,6,,71,0
116535,note_on,0,0,0,,,,,,,,,0,,80,0
116535,note_on,0,0,0,,,,,,,,,13,,80,0
116535,note_on,0,0,0,,,,,,,,,8,,52,0
116535,note_on,0,0,0,,,,,,,,,7,,71,0
116535,note_on,0,0,0,,,,,,,,,14,,52,0
116580,note_on,45,0,0,,,,,,,,,0,,57,100
116580,note_on,0,0,0,,,,,,,,,0,,76,100
116580,note_on,0,0,0,,,,,,,,,3,,76,100
116580,note_on,0,0,0,,,,,,,,,5,,76,100
116580,note_on,0,0,0,,,,,,,,,6,,73,100
116580,note_on,0,0,0,,,,,,,,,7,,73,100
116580,note_on,0,0,0,,,,,,,,,8,,57,100
116580,note_on,0,0,0,,,,,,,,,10,,45,100
116580,note_on,0,0,0,,,,,,,,,13,,76,100
116580,note_on,0,0,0,,,,,,,,,14,,57,100
116580,note_on,0,0,0,,,,,,,,,15,,57,100
116595,note_on,15,0,0,,,,,,,,,15,,57,0
116595,note_on,0,0,0,,,,,,,,,10,,45,0
116595,note_on,0,0,0,,,,,,,,,3,,76,0
116595,note_on,0,0,0,,,,,,,,,5,,76,0
116595,note_on,0,0,0,,,,,,,,,0,,57,0
116595,note_on,0,0,0,,,,,,,,,6,,73,0
116595,note_on,0,0,0,,,,,,,,,0,,76,0
116595,note_on,0,0,0,,,,,,,,,13,,76,0
116595,note_on,0,0,0,,,,,,,,,8,,57,0
116595,note_on,0,0,0,,,,,,,,,7,,73,0
116595,note_on,0,0,0,,,,,,,,,14,,57,0
116640,note_on,45,0,0,,,,,,,,,0,,59,100
116640,note_on,0,0,0,,,,,,,,,0,,71,100
116640,note_on,0,0,0,,,,,,,,,3,,71,100
116640,note_on,0,0,0,,,,,,,,,5,,71,100
116640,note_on,0,0,0,,,,,,,,,6,,71,100
116640,note_on,0,0,0,,,,,,,,,7,,71,100
116640,note_on,0,0,0,,,,,,,,,8,,59,100
116640,note_on,0,0,0,,,,,,,,,10,,47,100
116640,note_on,0,0,0,,,,,,,,,13,,71,100
116640,note_on,0,0,0,,,,,,,,,14,,59,100
116640,note_on,0,0,0,,,,,,,,,15,,59,100
116655,note_on,15,0,0,,,,,,,,,15,,59,0
116655,note_on,0,0,0,,,,,,,,,10,,47,0
116655,note_on,0,0,0,,,,,,,,,3,,71,0
116655,note_on,0,0,0,,,,,,,,,5,,71,0
116655,note_on,0,0,0,,,,,,,,,0,,59,0
116655,note_on,0,0,0,,,,,,,,,6,,71,0
116655,note_on,0,0,0,,,,,,,,,0,,71,0
116655,note_on,0,0,0,,,,,,,,,13,,71,0
116655,note_on,0,0,0,,,,,,,,,8,,59,0
116655,note_on,0,0,0,,,,,,,,,7,,71,0
116655,note_on,0,0,0,,,,,,,,,14,,59,0
116700,note_on,45,0,0,,,,,,,,,0,,47,100
116700,note_on,0,0,0,,,,,,,,,0,,75,100
116700,note_on,0,0,0,,,,,,,,,3,,75,100
116700,note_on,0,0,0,,,,,,,,,5,,75,100
116700,note_on,0,0,0,,,,,,,,,6,,69,100
116700,note_on,0,0,0,,,,,,,,,7,,69,100
116700,note_on,0,0,0,,,,,,,,,8,,47,100
116700,note_on,0,0,0,,,,,,,,,10,,35,100
116700,note_on,0,0,0,,,,,,,,,13,,75,100
116700,note_on,0,0,0,,,,,,,,,14,,47,100
116700,note_on,0,0,0,,,,,,,,,15,,47,100
116715,note_on,15,0,0,,,,,,,,,15,,47,0
116715,note_on,0,0,0,,,,,,,,,10,,35,0
116715,note_on,0,0,0,,,,,,,,,3,,75,0
116715,note_on,0,0,0,,,,,,,,,5,,75,0
116715,note_on,0,0,0,,,,,,,,,0,,47,0
116715,note_on,0,0,0,,,,,,,,,6,,69,0
116715,note_on,0,0,0,,,,,,,,,0,,75,0
116715,note_on,0,0,0,,,,,,,,,13,,75,0
116715,note_on,0,0,0,,,,,,,,,8,,47,0
116715,note_on,0,0,0,,,,,,,,,7,,69,0
116715,note_on,0,0,0,,,,,,,,,14,,47,0
116760,note_on,45,0,0,,,,,,,,,0,,68,100
116760,note_on,0,0,0,,,,,,,,,0,,64,100
116760,note_on,0,0,0,,,,,,,,,0,,52,100
116760,note_on,0,0,0,,,,,,,,,0,,76,100
116760,note_on,0,0,0,,,,,,,,,3,,76,100
116760,note_on,0,0,0,,,,,,,,,5,,76,100
116760,note_on,0,0,0,,,,,,,,,6,,68,100
116760,note_on,0,0,0,,,,,,,,,7,,68,100
116760,note_on,0,0,0,,,,,,,,,8,,52,100
116760,note_on,0,0,0,,,,,,,,,10,,40,100
116760,note_on,0,0,0,,,,,,,,,13,,76,100
116760,note_on,0,0,0,,,,,,,,,14,,52,100
116760,note_on,0,0,0,,,,,,,,,15,,52,100
116850,note_on,90,0,0,,,,,,,,,15,,52,0
116850,note_on,0,0,0,,,,,,,,,5,,76,0
116850,note_on,0,0,0,,,,,,,,,0,,64,0
116850,note_on,0,0,0,,,,,,,,,7,,68,0
116850,note_on,0,0,0,,,,,,,,,0,,52,0
116850,note_on,0,0,0,,,,,,,,,0,,76,0
116850,note_on,0,0,0,,,,,,,,,0,,68,0
116850,note_on,0,0,0,,,,,,,,,3,,76,0
116850,note_on,0,0,0,,,,,,,,,13,,76,0
116850,note_on,0,0,0,,,,,,,,,8,,52,0
116850,note_on,0,0,0,,,,,,,,,6,,68,0
116850,note_on,0,0,0,,,,,,,,,14,,52,0
116850,note_on,0,0,0,,,,,,,,,10,,40,0
116940,note_on,90,0,0,,,,,,,,,0,,76,100
116940,note_on,0,0,0,,,,,,,,,3,,76,100
116940,note_on,0,0,0,,,,,,,,,5,,76,100
116940,note_on,0,0,0,,,,,,,,,13,,76,100
116970,note_on,30,0,0,,,,,,,,,13,,76,0
116970,note_on,0,0,0,,,,,,,,,0,,76,0
116970,note_on,0,0,0,,,,,,,,,3,,76,0
116970,note_on,0,0,0,,,,,,,,,5,,76,0
117000,note_on,30,0,0,,,,,,,,,0,,57,100
117000,note_on,0,0,0,,,,,,,,,0,,83,100
117000,note_on,0,0,0,,,,,,,,,3,,57,100
117000,note_on,0,0,0,,,,,,,,,3,,83,100
117000,note_on,0,0,0,,,,,,,,,5,,83,100
117000,note_on,0,0,0,,,,,,,,,6,,61,100
117000,note_on,0,0,0,,,,,,,,,7,,61,100
117000,note_on,0,0,0,,,,,,,,,8,,57,100
117000,note_on,0,0,0,,,,,,,,,10,,45,100
117000,note_on,0,0,0,,,,,,,,,13,,83,100
117000,note_on,0,0,0,,,,,,,,,14,,57,100
117000,note_on,0,0,0,,,,,,,,,15,,57,100
117015,note_on,15,0,0,,,,,,,,,13,,83,0
117015,note_on,0,0,0,,,,,,,,,5,,83,0
117015,note_on,0,0,0,,,,,,,,,3,,83,0
117015,note_on,0,0,0,,,,,,,,,0,,83,0
117015,note_on,0,0,0,,,,,,,,,0,,81,100
117015,note_on,0,0,0,,,,,,,,,3,,81,100
117015,note_on,0,0,0,,,,,,,,,5,,81,100
117015,note_on,0,0,0,,,,,,,,,13,,81,100
117030,note_on,15,0,0,,,,,,,,,13,,81,0
117030,note_on,0,0,0,,,,,,,,,3,,81,0
117030,note_on,0,0,0,,,,,,,,,0,,81,0
117030,note_on,0,0,0,,,,,,,,,5,,81,0
117030,note_on,0,0,0,,,,,,,,,0,,83,100
117030,note_on,0,0,0,,,,,,,,,3,,83,100
117030,note_on,0,0,0,,,,,,,,,5,,83,100
117030,note_on,0,0,0,,,,,,,,,13,,83,100
117045,note_on,15,0,0,,,,,,,,,13,,83,0
117045,note_on,0,0,0,,,,,,,,,3,,83,0
117045,note_on,0,0,0,,,,,,,,,0,,83,0
117045,note_on,0,0,0,,,,,,,,,5,,83,0
117045,note_on,0,0,0,,,,,,,,,0,,81,100
117045,note_on,0,0,0,,,,,,,,,3,,81,100
117045,note_on,0,0,0,,,,,,,,,5,,81,100
117045,note_on,0,0,0,,,,,,,,,13,,81,100
117060,note_on,15,0,0,,,,,,,,,13,,81,0
117060,note_on,0,0,0,,,,,,,,,14,,57,0
117060,note_on,0,0,0,,,,,,,,,3,,57,0
117060,note_on,0,0,0,,,,,,,,,15,,57,0
117060,note_on,0,0,0,,,,,,,,,8,,57,0
117060,note_on,0,0,0,,,,,,,,,0,,57,0
117060,note_on,0,0,0,,,,,,,,,6,,61,0
117060,note_on,0,0,0,,,,,,,,,7,,61,0
117060,note_on,0,0,0,,,,,,,,,0,,81,0
117060,note_on,0,0,0,,,,,,,,,10,,45,0
117060,note_on,0,0,0,,,,,,,,,5,,81,0
117060,note_on,0,0,0,,,,,,,,,3,,81,0
117060,note_on,0,0,0,,,,,,,,,0,,83,100
117060,note_on,0,0,0,,,,,,,,,3,,83,100
117060,note_on,0,0,0,,,,,,,,,5,,83,100
117060,note_on,0,0,0,,,,,,,,,13,,83,100
117075,note_on,15,0,0,,,,,,,,,13,,83,0
117075,note_on,0,0,0,,,,,,,,,0,,83,0
117075,note_on,0,0,0,,,,,,,,,3,,83,0
117075,note_on,0,0,0,,,,,,,,,5,,83,0
117075,note_on,0,0,0,,,,,,,,,0,,81,100
117075,note_on,0,0,0,,,,,,,,,3,,81,100
117075,note_on,0,0,0,,,,,,,,,5,,81,100
117075,note_on,0,0,0,,,,,,,,,13,,81,100
117090,note_on,15,0,0,,,,,,,,,13,,81,0
117090,note_on,0,0,0,,,,,,,,,0,,81,0
117090,note_on,0,0,0,,,,,,,,,3,,81,0
117090,note_on,0,0,0,,,,,,,,,5,,81,0
117090,note_on,0,0,0,,,,,,,,,0,,83,100
117090,note_on,0,0,0,,,,,,,,,3,,83,100
117090,note_on,0,0,0,,,,,,,,,5,,83,100
117090,note_on,0,0,0,,,,,,,,,13,,83,100
117105,note_on,15,0,0,,,,,,,,,13,,83,0
117105,note_on,0,0,0,,,,,,,,,0,,83,0
117105,note_on,0,0,0,,,,,,,,,3,,83,0
117105,note_on,0,0,0,,,,,,,,,5,,83,0
117105,note_on,0,0,0,,,,,,,,,0,,81,100
117105,note_on,0,0,0,,,,,,,,,3,,81,100
117105,note_on,0,0,0,,,,,,,,,5,,81,100
117105,note_on,0,0,0,,,,,,,,,13,,81,100
117120,note_on,15,0,0,,,,,,,,,13,,81,0
117120,note_on,0,0,0,,,,,,,,,0,,81,0
117120,note_on,0,0,0,,,,,,,,,3,,81,0
117120,note_on,0,0,0,,,,,,,,,5,,81,0
117120,note_on,0,0,0,,,,,,,,,0,,59,100
117120,note_on,0,0,0,,,,,,,,,0,,83,100
117120,note_on,0,0,0,,,,,,,,,3,,59,100
117120,note_on,0,0,0,,,,,,,,,3,,83,100
117120,note_on,0,0,0,,,,,,,,,5,,83,100
117120,note_on,0,0,0,,,,,,,,,6,,62,100
117120,note_on,0,0,0,,,,,,,,,7,,62,100
117120,note_on,0,0,0,,,,,,,,,8,,59,100
117120,note_on,0,0,0,,,,,,,,,10,,47,100
117120,note_on,0,0,0,,,,,,,,,13,,83,100
117120,note_on,0,0,0,,,,,,,,,14,,59,100
117120,note_on,0,0,0,,,,,,,,,15,,59,100
117135,note_on,15,0,0,,,,,,,,,13,,83,0
117135,note_on,0,0,0,,,,,,,,,5,,83,0
117135,note_on,0,0,0,,,,,,,,,3,,83,0
117135,note_on,0,0,0,,,,,,,,,0,,83,0
117135,note_on,0,0,0,,,,,,,,,0,,81,100
117135,note_on,0,0,0,,,,,,,,,3,,81,100
117135,note_on,0,0,0,,,,,,,,,5,,81,100
117135,note_on,0,0,0,,,,,,,,,13,,81,100
117150,note_on,15,0,0,,,,,,,,,13,,81,0
117150,note_on,0,0,0,,,,,,,,,3,,81,0
117150,note_on,0,0,0,,,,,,,,,0,,81,0
117150,note_on,0,0,0,,,,,,,,,5,,81,0
117180,note_on,30,0,0,,,,,,,,,10,,47,0
117180,note_on,0,0,0,,,,,,,,,0,,59,0
117180,note_on,0,0,0,,,,,,,,,6,,62,0
117180,note_on,0,0,0,,,,,,,,,15,,59,0
117180,note_on,0,0,0,,,,,,,,,7,,62,0
117180,note_on,0,0,0,,,,,,,,,3,,59,0
117180,note_on,0,0,0,,,,,,,,,14,,59,0
117180,note_on,0,0,0,,,,,,,,,8,,59,0
117180,note_on,0,0,0,,,,,,,,,0,,80,100
117180,note_on,0,0,0,,,,,,,,,3,,80,100
117180,note_on,0,0,0,,,,,,,,,5,,80,100
117180,note_on,0,0,0,,,,,,,,,13,,80,100
117210,note_on,30,0,0,,,,,,,,,13,,80,0
117210,note_on,0,0,0,,,,,,,,,0,,80,0
117210,note_on,0,0,0,,,,,,,,,3,,80,0
117210,note_on,0,0,0,,,,,,,,,5,,80,0
117210,note_on,0,0,0,,,,,,,,,0,,78,100
117210,note_on,0,0,0,,,,,,,,,3,,78,100
117210,note_on,0,0,0,,,,,,,,,5,,78,100
117210,note_on,0,0,0,,,,,,,,,13,,78,100
117225,note_on,15,0,0,,,,,,,,,13,,78,0
117225,note_on,0,0,0,,,,,,,,,0,,78,0
117225,note_on,0,0,0,,,,,,,,,3,,78,0
117225,note_on,0,0,0,,,,,,,,,5,,78,0
117240,note_on,15,0,0,,,,,,,,,0,,61,100
117240,note_on,0,0,0,,,,,,,,,0,,76,100
117240,note_on,0,0,0,,,,,,,,,3,,61,100
117240,note_on,0,0,0,,,,,,,,,3,,76,100
117240,note_on,0,0,0,,,,,,,,,5,,76,100
117240,note_on,0,0,0,,,,,,,,,6,,64,100
117240,note_on,0,0,0,,,,,,,,,7,,64,100
117240,note_on,0,0,0,,,,,,,,,8,,61,100
117240,note_on,0,0,0,,,,,,,,,10,,49,100
117240,note_on,0,0,0,,,,,,,,,13,,76,100
117240,note_on,0,0,0,,,,,,,,,14,,61,100
117240,note_on,0,0,0,,,,,,,,,15,,61,100
117270,note_on,30,0,0,,,,,,,,,13,,76,0
117270,note_on,0,0,0,,,,,,,,,5,,76,0
117270,note_on,0,0,0,,,,,,,,,3,,76,0
117270,note_on,0,0,0,,,,,,,,,0,,76,0
117300,note_on,30,0,0,,,,,,,,,8,,61,0
117300,note_on,0,0,0,,,,,,,,,0,,61,0
117300,note_on,0,0,0,,,,,,,,,6,,64,0
117300,note_on,0,0,0,,,,,,,,,7,,64,0
117300,note_on,0,0,0,,,,,,,,,14,,61,0
117300,note_on,0,0,0,,,,,,,,,10,,49,0
117300,note_on,0,0,0,,,,,,,,,15,,61,0
117300,note_on,0,0,0,,,,,,,,,3,,61,0
117300,note_on,0,0,0,,,,,,,,,0,,81,100
117300,note_on,0,0,0,,,,,,,,,3,,81,100
117300,note_on,0,0,0,,,,,,,,,5,,81,100
117300,note_on,0,0,0,,,,,,,,,13,,81,100
117330,note_on,30,0,0,,,,,,,,,13,,81,0
117330,note_on,0,0,0,,,,,,,,,0,,81,0
117330,note_on,0,0,0,,,,,,,,,3,,81,0
117330,note_on,0,0,0,,,,,,,,,5,,81,0
117360,note_on,30,0,0,,,,,,,,,0,,57,100
117360,note_on,0,0,0,,,,,,,,,3,,57,100
117360,note_on,0,0,0,,,,,,,,,6,,61,100
117360,note_on,0,0,0,,,,,,,,,7,,61,100
117360,note_on,0,0,0,,,,,,,,,8,,57,100
117360,note_on,0,0,0,,,,,,,,,10,,45,100
117360,note_on,0,0,0,,,,,,,,,14,,57,100
117360,note_on,0,0,0,,,,,,,,,15,,57,100
117420,note_on,60,0,0,,,,,,,,,15,,57,0
117420,note_on,0,0,0,,,,,,,,,0,,57,0
117420,note_on,0,0,0,,,,,,,,,8,,57,0
117420,note_on,0,0,0,,,,,,,,,3,,57,0
117420,note_on,0,0,0,,,,,,,,,6,,61,0
117420,note_on,0,0,0,,,,,,,,,7,,61,0
117420,note_on,0,0,0,,,,,,,,,10,,45,0
117420,note_on,0,0,0,,,,,,,,,14,,57,0
117420,note_on,0,0,0,,,,,,,,,0,,69,100
117420,note_on,0,0,0,,,,,,,,,3,,69,100
117420,note_on,0,0,0,,,,,,,,,5,,69,100
117420,note_on,0,0,0,,,,,,,,,13,,69,100
117450,note_on,30,0,0,,,,,,,,,13,,69,0
117450,note_on,0,0,0,,,,,,,,,0,,69,0
117450,note_on,0,0,0,,,,,,,,,3,,69,0
117450,note_on,0,0,0,,,,,,,,,5,,69,0
117480,note_on,30,0,0,,,,,,,,,0,,54,100
117480,note_on,0,0,0,,,,,,,,,0,,76,100
117480,note_on,0,0,0,,,,,,,,,3,,54,100
117480,note_on,0,0,0,,,,,,,,,3,,76,100
117480,note_on,0,0,0,,,,,,,,,5,,76,100
117480,note_on,0,0,0,,,,,,,,,6,,69,100
117480,note_on,0,0,0,,,,,,,,,7,,69,100
117480,note_on,0,0,0,,,,,,,,,8,,54,100
117480,note_on,0,0,0,,,,,,,,,10,,42,100
117480,note_on,0,0,0,,,,,,,,,13,,76,100
117480,note_on,0,0,0,,,,,,,,,14,,54,100
117480,note_on,0,0,0,,,,,,,,,15,,54,100
117495,note_on,15,0,0,,,,,,,,,13,,76,0
117495,note_on,0,0,0,,,,,,,,,5,,76,0
117495,note_on,0,0,0,,,,,,,,,3,,76,0
117495,note_on,0,0,0,,,,,,,,,0,,76,0
117495,note_on,0,0,0,,,,,,,,,0,,74,100
117495,note_on,0,0,0,,,,,,,,,3,,74,100
117495,note_on,0,0,0,,,,,,,,,5,,74,100
117495,note_on,0,0,0,,,,,,,,,13,,74,100
117510,note_on,15,0,0,,,,,,,,,13,,74,0
117510,note_on,0,0,0,,,,,,,,,3,,74,0
117510,note_on,0,0,0,,,,,,,,,0,,74,0
117510,note_on,0,0,0,,,,,,,,,5,,74,0
117510,note_on,0,0,0,,,,,,,,,0,,76,100
117510,note_on,0,0,0,,,,,,,,,3,,76,100
117510,note_on,0,0,0,,,,,,,,,5,,76,100
117510,note_on,0,0,0,,,,,,,,,13,,76,100
117525,note_on,15,0,0,,,,,,,,,13,,76,0
117525,note_on,0,0,0,,,,,,,,,3,,76,0
117525,note_on,0,0,0,,,,,,,,,0,,76,0
117525,note_on,0,0,0,,,,,,,,,5,,76,0
117525,note_on,0,0,0,,,,,,,,,0,,74,100
117525,note_on,0,0,0,,,,,,,,,3,,74,100
117525,note_on,0,0,0,,,,,,,,,5,,74,100
117525,note_on,0,0,0,,,,,,,,,13,,74,100
117540,note_on,15,0,0,,,,,,,,,13,,74,0
117540,note_on,0,0,0,,,,,,,,,14,,54,0
117540,note_on,0,0,0,,,,,,,,,3,,54,0
117540,note_on,0,0,0,,,,,,,,,15,,54,0
117540,note_on,0,0,0,,,,,,,,,8,,54,0
117540,note_on,0,0,0,,,,,,,,,0,,54,0
117540,note_on,0,0,0,,,,,,,,,6,,69,0
117540,note_on,0,0,0,,,,,,,,,7,,69,0
117540,note_on,0,0,0,,,,,,,,,0,,74,0
117540,note_on,0,0,0,,,,,,,,,10,,42,0
117540,note_on,0,0,0,,,,,,,,,5,,74,0
117540,note_on,0,0,0,,,,,,,,,3,,74,0
117540,note_on,0,0,0,,,,,,,,,0,,76,100
117540,note_on,0,0,0,,,,,,,,,3,,76,100
117540,note_on,0,0,0,,,,,,,,,5,,76,100
117540,note_on,0,0,0,,,,,,,,,13,,76,100
117555,note_on,15,0,0,,,,,,,,,13,,76,0
117555,note_on,0,0,0,,,,,,,,,0,,76,0
117555,note_on,0,0,0,,,,,,,,,3,,76,0
117555,note_on,0,0,0,,,,,,,,,5,,76,0
117555,note_on,0,0,0,,,,,,,,,0,,74,100
117555,note_on,0,0,0,,,,,,,,,3,,74,100
117555,note_on,0,0,0,,,,,,,,,5,,74,100
117555,note_on,0,0,0,,,,,,,,,13,,74,100
117570,note_on,15,0,0,,,,,,,,,13,,74,0
117570,note_on,0,0,0,,,,,,,,,0,,74,0
117570,note_on,0,0,0,,,,,,,,,3,,74,0
117570,note_on,0,0,0,,,,,,,,,5,,74,0
117570,note_on,0,0,0,,,,,,,,,0,,76,100
117570,note_on,0,0,0,,,,,,,,,3,,76,100
117570,note_on,0,0,0,,,,,,,,,5,,76,100
117570,note_on,0,0,0,,,,,,,,,13,,76,100
117585,note_on,15,0,0,,,,,,,,,13,,76,0
117585,note_on,0,0,0,,,,,,,,,0,,76,0
117585,note_on,0,0,0,,,,,,,,,3,,76,0
117585,note_on,0,0,0,,,,,,,,,5,,76,0
117585,note_on,0,0,0,,,,,,,,,0,,74,100
117585,note_on,0,0,0,,,,,,,,,3,,74,100
117585,note_on,0,0,0,,,,,,,,,5,,74,100
117585,note_on,0,0,0,,,,,,,,,13,,74,100
117600,note_on,15,0,0,,,,,,,,,13,,74,0
117600,note_on,0,0,0,,,,,,,,,0,,74,0
117600,note_on,0,0,0,,,,,,,,,3,,74,0
117600,note_on,0,0,0,,,,,,,,,5,,74,0
117600,note_on,0,0,0,,,,,,,,,0,,56,100
117600,note_on,0,0,0,,,,,,,,,0,,76,100
117600,note_on,0,0,0,,,,,,,,,3,,56,100
117600,note_on,0,0,0,,,,,,,,,3,,76,100
117600,note_on,0,0,0,,,,,,,,,5,,76,100
117600,note_on,0,0,0,,,,,,,,,6,,64,100
117600,note_on,0,0,0,,,,,,,,,7,,64,100
117600,note_on,0,0,0,,,,,,,,,8,,56,100
117600,note_on,0,0,0,,,,,,,,,10,,44,100
117600,note_on,0,0,0,,,,,,,,,13,,76,100
117600,note_on,0,0,0,,,,,,,,,14,,56,100
117600,note_on,0,0,0,,,,,,,,,15,,56,100
117615,note_on,15,0,0,,,,,,,,,13,,76,0
117615,note_on,0,0,0,,,,,,,,,5,,76,0
117615,note_on,0,0,0,,,,,,,,,3,,76,0
117615,note_on,0,0,0,,,,,,,,,0,,76,0
117615,note_on,0,0,0,,,,,,,,,0,,74,100
117615,note_on,0,0,0,,,,,,,,,3,,74,100
117615,note_on,0,0,0,,,,,,,,,5,,74,100
117615,note_on,0,0,0,,,,,,,,,13,,74,100
117630,note_on,15,0,0,,,,,,,,,13,,74,0
117630,note_on,0,0,0,,,,,,,,,3,,74,0
117630,note_on,0,0,0,,,,,,,,,0,,74,0
117630,note_on,0,0,0,,,,,,,,,5,,74,0
117660,note_on,30,0,0,,,,,,,,,10,,44,0
117660,note_on,0,0,0,,,,,,,,,0,,56,0
117660,note_on,0,0,0,,,,,,,,,6,,64,0
117660,note_on,0,0,0,,,,,,,,,15,,56,0
117660,note_on,0,0,0,,,,,,,,,7,,64,0
117660,note_on,0,0,0,,,,,,,,,3,,56,0
117660,note_on,0,0,0,,,,,,,,,14,,56,0
117660,note_on,0,0,0,,,,,,,,,8,,56,0
117660,note_on,0,0,0,,,,,,,,,0,,73,100
117660,note_on,0,0,0,,,,,,,,,3,,73,100
117660,note_on,0,0,0,,,,,,,,,5,,73,100
117660,note_on,0,0,0,,,,,,,,,13,,73,100
117690,note_on,30,0,0,,,,,,,,,13,,73,0
117690,note_on,0,0,0,,,,,,,,,0,,73,0
117690,note_on,0,0,0,,,,,,,,,3,,73,0
117690,note_on,0,0,0,,,,,,,,,5,,73,0
117690,note_on,0,0,0,,,,,,,,,0,,71,100
117690,note_on,0,0,0,,,,,,,,,3,,71,100
117690,note_on,0,0,0,,,,,,,,,5,,71,100
117690,note_on,0,0,0,,,,,,,,,13,,71,100
117705,note_on,15,0,0,,,,,,,,,13,,71,0
117705,note_on,0,0,0,,,,,,,,,0,,71,0
117705,note_on,0,0,0,,,,,,,,,3,,71,0
117705,note_on,0,0,0,,,,,,,,,5,,71,0
117720,note_on,15,0,0,,,,,,,,,0,,57,100
117720,note_on,0,0,0,,,,,,,,,0,,73,100
117720,note_on,0,0,0,,,,,,,,,3,,57,100
117720,note_on,0,0,0,,,,,,,,,3,,73,100
117720,note_on,0,0,0,,,,,,,,,5,,73,100
117720,note_on,0,0,0,,,,,,,,,6,,64,100
117720,note_on,0,0,0,,,,,,,,,7,,64,100
117720,note_on,0,0,0,,,,,,,,,8,,57,100
117720,note_on,0,0,0,,,,,,,,,10,,45,100
117720,note_on,0,0,0,,,,,,,,,13,,73,100
117720,note_on,0,0,0,,,,,,,,,14,,57,100
117720,note_on,0,0,0,,,,,,,,,15,,57,100
117750,note_on,30,0,0,,,,,,,,,13,,73,0
117750,note_on,0,0,0,,,,,,,,,7,,64,0
117750,note_on,0,0,0,,,,,,,,,3,,73,0
117750,note_on,0,0,0,,,,,,,,,0,,73,0
117750,note_on,0,0,0,,,,,,,,,6,,64,0
117750,note_on,0,0,0,,,,,,,,,5,,73,0
117780,note_on,30,0,0,,,,,,,,,8,,57,0
117780,note_on,0,0,0,,,,,,,,,15,,57,0
117780,note_on,0,0,0,,,,,,,,,14,,57,0
117780,note_on,0,0,0,,,,,,,,,10,,45,0
117780,note_on,0,0,0,,,,,,,,,0,,57,0
117780,note_on,0,0,0,,,,,,,,,3,,57,0
117780,note_on,0,0,0,,,,,,,,,0,,81,100
117780,note_on,0,0,0,,,,,,,,,3,,81,100
117780,note_on,0,0,0,,,,,,,,,5,,81,100
117780,note_on,0,0,0,,,,,,,,,6,,73,100
117780,note_on,0,0,0,,,,,,,,,7,,73,100
117780,note_on,0,0,0,,,,,,,,,13,,81,100
117810,note_on,30,0,0,,,,,,,,,13,,81,0
117810,note_on,0,0,0,,,,,,,,,3,,81,0
117810,note_on,0,0,0,,,,,,,,,5,,81,0
117810,note_on,0,0,0,,,,,,,,,0,,81,0
117810,note_on,0,0,0,,,,,,,,,7,,73,0
117810,note_on,0,0,0,,,,,,,,,6,,73,0
117840,note_on,30,0,0,,,,,,,,,0,,49,100
117840,note_on,0,0,0,,,,,,,,,3,,49,100
117840,note_on,0,0,0,,,,,,,,,8,,49,100
117840,note_on,0,0,0,,,,,,,,,10,,37,100
117840,note_on,0,0,0,,,,,,,,,14,,49,100
117840,note_on,0,0,0,,,,,,,,,15,,49,100
117900,note_on,60,0,0,,,,,,,,,0,,69,100
117900,note_on,0,0,0,,,,,,,,,3,,69,100
117900,note_on,0,0,0,,,,,,,,,5,,69,100
117900,note_on,0,0,0,,,,,,,,,6,,64,100
117900,note_on,0,0,0,,,,,,,,,7,,64,100
117900,note_on,0,0,0,,,,,,,,,13,,69,100
117930,note_on,30,0,0,,,,,,,,,13,,69,0
117930,note_on,0,0,0,,,,,,,,,3,,49,0
117930,note_on,0,0,0,,,,,,,,,3,,69,0
117930,note_on,0,0,0,,,,,,,,,8,,49,0
117930,note_on,0,0,0,,,,,,,,,10,,37,0
117930,note_on,0,0,0,,,,,,,,,0,,49,0
117930,note_on,0,0,0,,,,,,,,,14,,49,0
117930,note_on,0,0,0,,,,,,,,,15,,49,0
117930,note_on,0,0,0,,,,,,,,,5,,69,0
117930,note_on,0,0,0,,,,,,,,,0,,69,0
117930,note_on,0,0,0,,,,,,,,,7,,64,0
117930,note_on,0,0,0,,,,,,,,,6,,64,0
117960,note_on,30,0,0,,,,,,,,,0,,50,100
117960,note_on,0,0,0,,,,,,,,,0,,73,100
117960,note_on,0,0,0,,,,,,,,,3,,50,100
117960,note_on,0,0,0,,,,,,,,,3,,73,100
117960,note_on,0,0,0,,,,,,,,,5,,73,100
117960,note_on,0,0,0,,,,,,,,,6,,64,100
117960,note_on,0,0,0,,,,,,,,,7,,64,100
117960,note_on,0,0,0,,,,,,,,,8,,50,100
117960,note_on,0,0,0,,,,,,,,,10,,38,100
117960,note_on,0,0,0,,,,,,,,,13,,73,100
117960,note_on,0,0,0,,,,,,,,,14,,50,100
117960,note_on,0,0,0,,,,,,,,,15,,50,100
117975,note_on,15,0,0,,,,,,,,,13,,73,0
117975,note_on,0,0,0,,,,,,,,,7,,64,0
117975,note_on,0,0,0,,,,,,,,,3,,73,0
117975,note_on,0,0,0,,,,,,,,,0,,73,0
117975,note_on,0,0,0,,,,,,,,,6,,64,0
117975,note_on,0,0,0,,,,,,,,,5,,73,0
117975,note_on,0,0,0,,,,,,,,,0,,71,100
117975,note_on,0,0,0,,,,,,,,,3,,71,100
117975,note_on,0,0,0,,,,,,,,,5,,71,100
117975,note_on,0,0,0,,,,,,,,,6,,62,100
117975,note_on,0,0,0,,,,,,,,,7,,62,100
117975,note_on,0,0,0,,,,,,,,,13,,71,100
117990,note_on,15,0,0,,,,,,,,,13,,71,0
117990,note_on,0,0,0,,,,,,,,,6,,62,0
117990,note_on,0,0,0,,,,,,,,,3,,71,0
117990,note_on,0,0,0,,,,,,,,,0,,71,0
117990,note_on,0,0,0,,,,,,,,,5,,71,0
117990,note_on,0,0,0,,,,,,,,,7,,62,0
117990,note_on,0,0,0,,,,,,,,,0,,73,100
117990,note_on,0,0,0,,,,,,,,,3,,73,100
117990,note_on,0,0,0,,,,,,,,,5,,73,100
117990,note_on,0,0,0,,,,,,,,,6,,64,100
117990,note_on,0,0,0,,,,,,,,,7,,64,100
117990,note_on,0,0,0,,,,,,,,,13,,73,100
118005,note_on,15,0,0,,,,,,,,,13,,73,0
118005,note_on,0,0,0,,,,,,,,,6,,64,0
118005,note_on,0,0,0,,,,,,,,,3,,73,0
118005,note_on,0,0,0,,,,,,,,,0,,73,0
118005,note_on,0,0,0,,,,,,,,,5,,73,0
118005,note_on,0,0,0,,,,,,,,,7,,64,0
118005,note_on,0,0,0,,,,,,,,,0,,71,100
118005,note_on,0,0,0,,,,,,,,,3,,71,100
118005,note_on,0,0,0,,,,,,,,,5,,71,100
118005,note_on,0,0,0,,,,,,,,,6,,62,100
118005,note_on,0,0,0,,,,,,,,,7,,62,100
118005,note_on,0,0,0,,,,,,,,,13,,71,100
118020,note_on,15,0,0,,,,,,,,,13,,71,0
118020,note_on,0,0,0,,,,,,,,,6,,62,0
118020,note_on,0,0,0,,,,,,,,,3,,71,0
118020,note_on,0,0,0,,,,,,,,,14,,50,0
118020,note_on,0,0,0,,,,,,,,,0,,71,0
118020,note_on,0,0,0,,,,,,,,,8,,50,0
118020,note_on,0,0,0,,,,,,,,,15,,50,0
118020,note_on,0,0,0,,,,,,,,,10,,38,0
118020,note_on,0,0,0,,,,,,,,,5,,71,0
118020,note_on,0,0,0,,,,,,,,,7,,62,0
118020,note_on,0,0,0,,,,,,,,,0,,73,100
118020,note_on,0,0,0,,,,,,,,,3,,73,100
118020,note_on,0,0,0,,,,,,,,,5,,73,100
118020,note_on,0,0,0,,,,,,,,,6,,64,100
118020,note_on,0,0,0,,,,,,,,,7,,64,100
118020,note_on,0,0,0,,,,,,,,,13,,73,100
118035,note_on,15,0,0,,,,,,,,,13,,73,0
118035,note_on,0,0,0,,,,,,,,,7,,64,0
118035,note_on,0,0,0,,,,,,,,,5,,73,0
118035,note_on,0,0,0,,,,,,,,,3,,73,0
118035,note_on,0,0,0,,,,,,,,,0,,73,0
118035,note_on,0,0,0,,,,,,,,,6,,64,0
118035,note_on,0,0,0,,,,,,,,,0,,71,100
118035,note_on,0,0,0,,,,,,,,,3,,71,100
118035,note_on,0,0,0,,,,,,,,,5,,71,100
118035,note_on,0,0,0,,,,,,,,,6,,62,100
118035,note_on,0,0,0,,,,,,,,,7,,62,100
118035,note_on,0,0,0,,,,,,,,,13,,71,100
118050,note_on,15,0,0,,,,,,,,,13,,71,0
118050,note_on,0,0,0,,,,,,,,,0,,50,0
118050,note_on,0,0,0,,,,,,,,,5,,71,0
118050,note_on,0,0,0,,,,,,,,,3,,50,0
118050,note_on,0,0,0,,,,,,,,,0,,71,0
118050,note_on,0,0,0,,,,,,,,,3,,71,0
118050,note_on,0,0,0,,,,,,,,,6,,62,0
118050,note_on,0,0,0,,,,,,,,,7,,62,0
118050,note_on,0,0,0,,,,,,,,,0,,73,100
118050,note_on,0,0,0,,,,,,,,,3,,73,100
118050,note_on,0,0,0,,,,,,,,,5,,73,100
118050,note_on,0,0,0,,,,,,,,,6,,64,100
118050,note_on,0,0,0,,,,,,,,,7,,64,100
118050,note_on,0,0,0,,,,,,,,,13,,73,100
118065,note_on,15,0,0,,,,,,,,,13,,73,0
118065,note_on,0,0,0,,,,,,,,,3,,73,0
118065,note_on,0,0,0,,,,,,,,,5,,73,0
118065,note_on,0,0,0,,,,,,,,,0,,73,0
118065,note_on,0,0,0,,,,,,,,,7,,64,0
118065,note_on,0,0,0,,,,,,,,,6,,64,0
118065,note_on,0,0,0,,,,,,,,,0,,71,100
118065,note_on,0,0,0,,,,,,,,,3,,71,100
118065,note_on,0,0,0,,,,,,,,,5,,71,100
118065,note_on,0,0,0,,,,,,,,,6,,62,100
118065,note_on,0,0,0,,,,,,,,,7,,62,100
118065,note_on,0,0,0,,,,,,,,,13,,71,100
118080,note_on,15,0,0,,,,,,,,,13,,71,0
118080,note_on,0,0,0,,,,,,,,,3,,71,0
118080,note_on,0,0,0,,,,,,,,,5,,71,0
118080,note_on,0,0,0,,,,,,,,,0,,71,0
118080,note_on,0,0,0,,,,,,,,,7,,62,0
118080,note_on,0,0,0,,,,,,,,,6,,62,0
118080,note_on,0,0,0,,,,,,,,,0,,52,100
118080,note_on,0,0,0,,,,,,,,,0,,73,100
118080,note_on,0,0,0,,,,,,,,,3,,52,100
118080,note_on,0,0,0,,,,,,,,,3,,73,100
118080,note_on,0,0,0,,,,,,,,,5,,73,100
118080,note_on,0,0,0,,,,,,,,,6,,64,100
118080,note_on,0,0,0,,,,,,,,,7,,64,100
118080,note_on,0,0,0,,,,,,,,,8,,52,100
118080,note_on,0,0,0,,,,,,,,,10,,40,100
118080,note_on,0,0,0,,,,,,,,,13,,73,100
118080,note_on,0,0,0,,,,,,,,,14,,52,100
118080,note_on,0,0,0,,,,,,,,,15,,52,100
118095,note_on,15,0,0,,,,,,,,,13,,73,0
118095,note_on,0,0,0,,,,,,,,,7,,64,0
118095,note_on,0,0,0,,,,,,,,,3,,73,0
118095,note_on,0,0,0,,,,,,,,,0,,73,0
118095,note_on,0,0,0,,,,,,,,,6,,64,0
118095,note_on,0,0,0,,,,,,,,,5,,73,0
118095,note_on,0,0,0,,,,,,,,,0,,71,100
118095,note_on,0,0,0,,,,,,,,,3,,71,100
118095,note_on,0,0,0,,,,,,,,,5,,71,100
118095,note_on,0,0,0,,,,,,,,,6,,62,100
118095,note_on,0,0,0,,,,,,,,,7,,62,100
118095,note_on,0,0,0,,,,,,,,,13,,71,100
118110,note_on,15,0,0,,,,,,,,,13,,71,0
118110,note_on,0,0,0,,,,,,,,,6,,62,0
118110,note_on,0,0,0,,,,,,,,,3,,71,0
118110,note_on,0,0,0,,,,,,,,,0,,71,0
118110,note_on,0,0,0,,,,,,,,,5,,71,0
118110,note_on,0,0,0,,,,,,,,,7,,62,0
118140,note_on,30,0,0,,,,,,,,,0,,52,0
118140,note_on,0,0,0,,,,,,,,,8,,52,0
118140,note_on,0,0,0,,,,,,,,,14,,52,0
118140,note_on,0,0,0,,,,,,,,,15,,52,0
118140,note_on,0,0,0,,,,,,,,,10,,40,0
118140,note_on,0,0,0,,,,,,,,,3,,52,0
118140,note_on,0,0,0,,,,,,,,,0,,69,100
118140,note_on,0,0,0,,,,,,,,,3,,69,100
118140,note_on,0,0,0,,,,,,,,,5,,69,100
118140,note_on,0,0,0,,,,,,,,,6,,61,100
118140,note_on,0,0,0,,,,,,,,,7,,61,100
118140,note_on,0,0,0,,,,,,,,,13,,69,100
118170,note_on,30,0,0,,,,,,,,,13,,69,0
118170,note_on,0,0,0,,,,,,,,,3,,69,0
118170,note_on,0,0,0,,,,,,,,,5,,69,0
118170,note_on,0,0,0,,,,,,,,,0,,69,0
118170,note_on,0,0,0,,,,,,,,,7,,61,0
118170,note_on,0,0,0,,,,,,,,,6,,61,0
118170,note_on,0,0,0,,,,,,,,,0,,68,100
118170,note_on,0,0,0,,,,,,,,,3,,68,100
118170,note_on,0,0,0,,,,,,,,,5,,68,100
118170,note_on,0,0,0,,,,,,,,,6,,59,100
118170,note_on,0,0,0,,,,,,,,,7,,59,100
118170,note_on,0,0,0,,,,,,,,,13,,68,100
118185,note_on,15,0,0,,,,,,,,,13,,68,0
118185,note_on,0,0,0,,,,,,,,,3,,68,0
118185,note_on,0,0,0,,,,,,,,,5,,68,0
118185,note_on,0,0,0,,,,,,,,,0,,68,0
118185,note_on,0,0,0,,,,,,,,,7,,59,0
118185,note_on,0,0,0,,,,,,,,,6,,59,0
118200,note_on,15,0,0,,,,,,,,,0,,54,100
118200,note_on,0,0,0,,,,,,,,,0,,69,100
118200,note_on,0,0,0,,,,,,,,,3,,54,100
118200,note_on,0,0,0,,,,,,,,,3,,69,100
118200,note_on,0,0,0,,,,,,,,,5,,69,100
118200,note_on,0,0,0,,,,,,,,,6,,57,100
118200,note_on,0,0,0,,,,,,,,,7,,57,100
118200,note_on,0,0,0,,,,,,,,,8,,54,100
118200,note_on,0,0,0,,,,,,,,,10,,42,100
118200,note_on,0,0,0,,,,,,,,,13,,69,100
118200,note_on,0,0,0,,,,,,,,,14,,54,100
118200,note_on,0,0,0,,,,,,,,,15,,54,100
118230,note_on,30,0,0,,,,,,,,,13,,69,0
118230,note_on,0,0,0,,,,,,,,,5,,69,0
118230,note_on,0,0,0,,,,,,,,,3,,69,0
118230,note_on,0,0,0,,,,,,,,,0,,69,0
118260,note_on,30,0,0,,,,,,,,,8,,54,0
118260,note_on,0,0,0,,,,,,,,,10,,42,0
118260,note_on,0,0,0,,,,,,,,,0,,54,0
118260,note_on,0,0,0,,,,,,,,,3,,54,0
118260,note_on,0,0,0,,,,,,,,,14,,54,0
118260,note_on,0,0,0,,,,,,,,,15,,54,0
118260,note_on,0,0,0,,,,,,,,,0,,74,100
118260,note_on,0,0,0,,,,,,,,,3,,74,100
118260,note_on,0,0,0,,,,,,,,,5,,74,100
118260,note_on,0,0,0,,,,,,,,,13,,74,100
118275,note_on,15,0,0,,,,,,,,,6,,57,0
118275,note_on,0,0,0,,,,,,,,,7,,57,0
118320,note_on,45,0,0,,,,,,,,,0,,56,100
118320,note_on,0,0,0,,,,,,,,,3,,56,100
118320,note_on,0,0,0,,,,,,,,,6,,64,100
118320,note_on,0,0,0,,,,,,,,,7,,64,100
118320,note_on,0,0,0,,,,,,,,,8,,56,100
118320,note_on,0,0,0,,,,,,,,,10,,44,100
118320,note_on,0,0,0,,,,,,,,,14,,56,100
118320,note_on,0,0,0,,,,,,,,,15,,56,100
118350,note_on,30,0,0,,,,,,,,,5,,74,0
118350,note_on,0,0,0,,,,,,,,,0,,74,0
118350,note_on,0,0,0,,,,,,,,,3,,74,0
118350,note_on,0,0,0,,,,,,,,,13,,74,0
118380,note_on,30,0,0,,,,,,,,,10,,44,0
118380,note_on,0,0,0,,,,,,,,,8,,56,0
118380,note_on,0,0,0,,,,,,,,,14,,56,0
118380,note_on,0,0,0,,,,,,,,,15,,56,0
118380,note_on,0,0,0,,,,,,,,,0,,73,100
118380,note_on,0,0,0,,,,,,,,,3,,73,100
118380,note_on,0,0,0,,,,,,,,,5,,73,100
118380,note_on,0,0,0,,,,,,,,,13,,73,100
118395,note_on,15,0,0,,,,,,,,,6,,64,0
118395,note_on,0,0,0,,,,,,,,,7,,64,0
118410,note_on,15,0,0,,,,,,,,,3,,73,0
118410,note_on,0,0,0,,,,,,,,,0,,56,0
118410,note_on,0,0,0,,,,,,,,,0,,73,0
118410,note_on,0,0,0,,,,,,,,,13,,73,0
118410,note_on,0,0,0,,,,,,,,,5,,73,0
118410,note_on,0,0,0,,,,,,,,,3,,56,0
118410,note_on,0,0,0,,,,,,,,,0,,71,100
118410,note_on,0,0,0,,,,,,,,,3,,71,100
118410,note_on,0,0,0,,,,,,,,,5,,71,100
118410,note_on,0,0,0,,,,,,,,,13,,71,100
118425,note_on,15,0,0,,,,,,,,,13,,71,0
118425,note_on,0,0,0,,,,,,,,,0,,71,0
118425,note_on,0,0,0,,,,,,,,,3,,71,0
118425,note_on,0,0,0,,,,,,,,,5,,71,0
118440,note_on,15,0,0,,,,,,,,,0,,57,100
118440,note_on,0,0,0,,,,,,,,,0,,73,100
118440,note_on,0,0,0,,,,,,,,,3,,57,100
118440,note_on,0,0,0,,,,,,,,,3,,73,100
118440,note_on,0,0,0,,,,,,,,,5,,73,100
118440,note_on,0,0,0,,,,,,,,,6,,64,100
118440,note_on,0,0,0,,,,,,,,,7,,64,100
118440,note_on,0,0,0,,,,,,,,,8,,57,100
118440,note_on,0,0,0,,,,,,,,,10,,45,100
118440,note_on,0,0,0,,,,,,,,,13,,73,100
118440,note_on,0,0,0,,,,,,,,,14,,57,100
118440,note_on,0,0,0,,,,,,,,,15,,57,100
118470,note_on,30,0,0,,,,,,,,,13,,73,0
118470,note_on,0,0,0,,,,,,,,,7,,64,0
118470,note_on,0,0,0,,,,,,,,,3,,73,0
118470,note_on,0,0,0,,,,,,,,,0,,73,0
118470,note_on,0,0,0,,,,,,,,,6,,64,0
118470,note_on,0,0,0,,,,,,,,,5,,73,0
118500,note_on,30,0,0,,,,,,,,,8,,57,0
118500,note_on,0,0,0,,,,,,,,,15,,57,0
118500,note_on,0,0,0,,,,,,,,,14,,57,0
118500,note_on,0,0,0,,,,,,,,,10,,45,0
118500,note_on,0,0,0,,,,,,,,,0,,57,0
118500,note_on,0,0,0,,,,,,,,,3,,57,0
118500,note_on,0,0,0,,,,,,,,,0,,74,100
118500,note_on,0,0,0,,,,,,,,,3,,74,100
118500,note_on,0,0,0,,,,,,,,,5,,74,100
118500,note_on,0,0,0,,,,,,,,,6,,66,100
118500,note_on,0,0,0,,,,,,,,,7,,66,100
118500,note_on,0,0,0,,,,,,,,,13,,74,100
118530,note_on,30,0,0,,,,,,,,,13,,74,0
118530,note_on,0,0,0,,,,,,,,,3,,74,0
118530,note_on,0,0,0,,,,,,,,,5,,74,0
118530,note_on,0,0,0,,,,,,,,,0,,74,0
118530,note_on,0,0,0,,,,,,,,,7,,66,0
118530,note_on,0,0,0,,,,,,,,,6,,66,0
118530,note_on,0,0,0,,,,,,,,,0,,76,100
118530,note_on,0,0,0,,,,,,,,,3,,76,100
118530,note_on,0,0,0,,,,,,,,,5,,76,100
118530,note_on,0,0,0,,,,,,,,,6,,68,100
118530,note_on,0,0,0,,,,,,,,,7,,68,100
118530,note_on,0,0,0,,,,,,,,,13,,76,100
118545,note_on,15,0,0,,,,,,,,,13,,76,0
118545,note_on,0,0,0,,,,,,,,,3,,76,0
118545,note_on,0,0,0,,,,,,,,,5,,76,0
118545,note_on,0,0,0,,,,,,,,,0,,76,0
118545,note_on,0,0,0,,,,,,,,,7,,68,0
118545,note_on,0,0,0,,,,,,,,,6,,68,0
118560,note_on,15,0,0,,,,,,,,,0,,50,100
118560,note_on,0,0,0,,,,,,,,,0,,78,100
118560,note_on,0,0,0,,,,,,,,,3,,50,100
118560,note_on,0,0,0,,,,,,,,,3,,78,100
118560,note_on,0,0,0,,,,,,,,,5,,78,100
118560,note_on,0,0,0,,,,,,,,,6,,69,100
118560,note_on,0,0,0,,,,,,,,,7,,69,100
118560,note_on,0,0,0,,,,,,,,,8,,50,100
118560,note_on,0,0,0,,,,,,,,,10,,38,100
118560,note_on,0,0,0,,,,,,,,,13,,78,100
118560,note_on,0,0,0,,,,,,,,,14,,50,100
118560,note_on,0,0,0,,,,,,,,,15,,50,100
118590,note_on,30,0,0,,,,,,,,,13,,78,0
118590,note_on,0,0,0,,,,,,,,,7,,69,0
118590,note_on,0,0,0,,,,,,,,,3,,78,0
118590,note_on,0,0,0,,,,,,,,,0,,78,0
118590,note_on,0,0,0,,,,,,,,,6,,69,0
118590,note_on,0,0,0,,,,,,,,,5,,78,0
118620,note_on,30,0,0,,,,,,,,,0,,50,0
118620,note_on,0,0,0,,,,,,,,,3,,50,0
118620,note_on,0,0,0,,,,,,,,,0,,74,100
118620,note_on,0,0,0,,,,,,,,,3,,74,100
118620,note_on,0,0,0,,,,,,,,,5,,74,100
118620,note_on,0,0,0,,,,,,,,,6,,71,100
118620,note_on,0,0,0,,,,,,,,,7,,71,100
118620,note_on,0,0,0,,,,,,,,,13,,74,100
118650,note_on,30,0,0,,,,,,,,,13,,74,0
118650,note_on,0,0,0,,,,,,,,,10,,38,0
118650,note_on,0,0,0,,,,,,,,,14,,50,0
118650,note_on,0,0,0,,,,,,,,,15,,50,0
118650,note_on,0,0,0,,,,,,,,,0,,74,0
118650,note_on,0,0,0,,,,,,,,,8,,50,0
118650,note_on,0,0,0,,,,,,,,,6,,71,0
118650,note_on,0,0,0,,,,,,,,,5,,74,0
118650,note_on,0,0,0,,,,,,,,,3,,74,0
118650,note_on,0,0,0,,,,,,,,,7,,71,0
118680,note_on,30,0,0,,,,,,,,,0,,52,100
118680,note_on,0,0,0,,,,,,,,,0,,73,100
118680,note_on,0,0,0,,,,,,,,,3,,52,100
118680,note_on,0,0,0,,,,,,,,,3,,73,100
118680,note_on,0,0,0,,,,,,,,,5,,71,100
118680,note_on,0,0,0,,,,,,,,,6,,68,100
118680,note_on,0,0,0,,,,,,,,,7,,68,100
118680,note_on,0,0,0,,,,,,,,,8,,52,100
118680,note_on,0,0,0,,,,,,,,,10,,40,100
118680,note_on,0,0,0,,,,,,,,,13,,71,100
118680,note_on,0,0,0,,,,,,,,,14,,52,100
118680,note_on,0,0,0,,,,,,,,,15,,52,100
118710,note_on,30,0,0,,,,,,,,,15,,52,0
118710,note_on,0,0,0,,,,,,,,,10,,40,0
118710,note_on,0,0,0,,,,,,,,,3,,52,0
118710,note_on,0,0,0,,,,,,,,,8,,52,0
118710,note_on,0,0,0,,,,,,,,,14,,52,0
118710,note_on,0,0,0,,,,,,,,,0,,52,0
118740,note_on,30,0,0,,,,,,,,,7,,68,0
118740,note_on,0,0,0,,,,,,,,,6,,68,0
118740,note_on,0,0,0,,,,,,,,,0,,73,0
118740,note_on,0,0,0,,,,,,,,,3,,73,0
118740,note_on,0,0,0,,,,,,,,,0,,62,100
118740,note_on,0,0,0,,,,,,,,,0,,71,100
118740,note_on,0,0,0,,,,,,,,,3,,62,100
118740,note_on,0,0,0,,,,,,,,,3,,71,100
118740,note_on,0,0,0,,,,,,,,,8,,62,100
118740,note_on,0,0,0,,,,,,,,,10,,50,100
118740,note_on,0,0,0,,,,,,,,,14,,62,100
118740,note_on,0,0,0,,,,,,,,,15,,62,100
118770,note_on,30,0,0,,,,,,,,,15,,62,0
118770,note_on,0,0,0,,,,,,,,,14,,62,0
118770,note_on,0,0,0,,,,,,,,,8,,62,0
118770,note_on,0,0,0,,,,,,,,,13,,71,0
118770,note_on,0,0,0,,,,,,,,,10,,50,0
118770,note_on,0,0,0,,,,,,,,,5,,71,0
118785,note_on,15,0,0,,,,,,,,,0,,71,0
118785,note_on,0,0,0,,,,,,,,,3,,62,0
118785,note_on,0,0,0,,,,,,,,,0,,62,0
118785,note_on,0,0,0,,,,,,,,,3,,71,0
118800,note_on,15,0,0,,,,,,,,,0,,61,100
118800,note_on,0,0,0,,,,,,,,,3,,61,100
118800,note_on,0,0,0,,,,,,,,,8,,61,100
118800,note_on,0,0,0,,,,,,,,,10,,49,100
118800,note_on,0,0,0,,,,,,,,,14,,61,100
118800,note_on,0,0,0,,,,,,,,,15,,61,100
118830,note_on,30,0,0,,,,,,,,,15,,61,0
118830,note_on,0,0,0,,,,,,,,,10,,49,0
118830,note_on,0,0,0,,,,,,,,,8,,61,0
118830,note_on,0,0,0,,,,,,,,,14,,61,0
118845,note_on,15,0,0,,,,,,,,,0,,61,0
118845,note_on,0,0,0,,,,,,,,,3,,61,0
118860,note_on,15,0,0,,,,,,,,,0,,59,100
118860,note_on,0,0,0,,,,,,,,,0,,76,100
118860,note_on,0,0,0,,,,,,,,,3,,59,100
118860,note_on,0,0,0,,,,,,,,,3,,76,100
118860,note_on,0,0,0,,,,,,,,,5,,76,100
118860,note_on,0,0,0,,,,,,,,,6,,68,100
118860,note_on,0,0,0,,,,,,,,,7,,68,100
118860,note_on,0,0,0,,,,,,,,,8,,59,100
118860,note_on,0,0,0,,,,,,,,,10,,47,100
118860,note_on,0,0,0,,,,,,,,,13,,76,100
118860,note_on,0,0,0,,,,,,,,,14,,59,100
118860,note_on,0,0,0,,,,,,,,,15,,59,100
118890,note_on,30,0,0,,,,,,,,,15,,59,0
118890,note_on,0,0,0,,,,,,,,,0,,76,0
118890,note_on,0,0,0,,,,,,,,,8,,59,0
118890,note_on,0,0,0,,,,,,,,,3,,59,0
118890,note_on,0,0,0,,,,,,,,,3,,76,0
118890,note_on,0,0,0,,,,,,,,,0,,59,0
118890,note_on,0,0,0,,,,,,,,,5,,76,0
118890,note_on,0,0,0,,,,,,,,,6,,68,0
118890,note_on,0,0,0,,,,,,,,,10,,47,0
118890,note_on,0,0,0,,,,,,,,,7,,68,0
118890,note_on,0,0,0,,,,,,,,,14,,59,0
118890,note_on,0,0,0,,,,,,,,,13,,76,0
118920,note_on,30,0,0,,,,,,,,,0,,57,100
118920,note_on,0,0,0,,,,,,,,,0,,83,100
118920,note_on,0,0,0,,,,,,,,,3,,57,100
118920,note_on,0,0,0,,,,,,,,,3,,83,100
118920,note_on,0,0,0,,,,,,,,,5,,83,100
118920,note_on,0,0,0,,,,,,,,,6,,73,100
118920,note_on,0,0,0,,,,,,,,,7,,73,100
118920,note_on,0,0,0,,,,,,,,,8,,57,100
118920,note_on,0,0,0,,,,,,,,,10,,45,100
118920,note_on,0,0,0,,,,,,,,,13,,83,100
118920,note_on,0,0,0,,,,,,,,,14,,57,100
118920,note_on,0,0,0,,,,,,,,,15,,57,100
118935,note_on,15,0,0,,,,,,,,,13,,83,0
118935,note_on,0,0,0,,,,,,,,,5,,83,0
118935,note_on,0,0,0,,,,,,,,,3,,83,0
118935,note_on,0,0,0,,,,,,,,,0,,83,0
118935,note_on,0,0,0,,,,,,,,,0,,81,100
118935,note_on,0,0,0,,,,,,,,,3,,81,100
118935,note_on,0,0,0,,,,,,,,,5,,81,100
118935,note_on,0,0,0,,,,,,,,,13,,81,100
118950,note_on,15,0,0,,,,,,,,,13,,81,0
118950,note_on,0,0,0,,,,,,,,,3,,81,0
118950,note_on,0,0,0,,,,,,,,,0,,81,0
118950,note_on,0,0,0,,,,,,,,,5,,81,0
118950,note_on,0,0,0,,,,,,,,,0,,83,100
118950,note_on,0,0,0,,,,,,,,,3,,83,100
118950,note_on,0,0,0,,,,,,,,,5,,83,100
118950,note_on,0,0,0,,,,,,,,,13,,83,100
118965,note_on,15,0,0,,,,,,,,,13,,83,0
118965,note_on,0,0,0,,,,,,,,,3,,83,0
118965,note_on,0,0,0,,,,,,,,,0,,83,0
118965,note_on,0,0,0,,,,,,,,,5,,83,0
118965,note_on,0,0,0,,,,,,,,,0,,81,100
118965,note_on,0,0,0,,,,,,,,,3,,81,100
118965,note_on,0,0,0,,,,,,,,,5,,81,100
118965,note_on,0,0,0,,,,,,,,,13,,81,100
118980,note_on,15,0,0,,,,,,,,,13,,81,0
118980,note_on,0,0,0,,,,,,,,,14,,57,0
118980,note_on,0,0,0,,,,,,,,,3,,57,0
118980,note_on,0,0,0,,,,,,,,,15,,57,0
118980,note_on,0,0,0,,,,,,,,,8,,57,0
118980,note_on,0,0,0,,,,,,,,,0,,57,0
118980,note_on,0,0,0,,,,,,,,,6,,73,0
118980,note_on,0,0,0,,,,,,,,,7,,73,0
118980,note_on,0,0,0,,,,,,,,,0,,81,0
118980,note_on,0,0,0,,,,,,,,,10,,45,0
118980,note_on,0,0,0,,,,,,,,,5,,81,0
118980,note_on,0,0,0,,,,,,,,,3,,81,0
118980,note_on,0,0,0,,,,,,,,,0,,83,100
118980,note_on,0,0,0,,,,,,,,,3,,83,100
118980,note_on,0,0,0,,,,,,,,,5,,83,100
118980,note_on,0,0,0,,,,,,,,,13,,83,100
118995,note_on,15,0,0,,,,,,,,,13,,83,0
118995,note_on,0,0,0,,,,,,,,,0,,83,0
118995,note_on,0,0,0,,,,,,,,,3,,83,0
118995,note_on,0,0,0,,,,,,,,,5,,83,0
118995,note_on,0,0,0,,,,,,,,,0,,81,100
118995,note_on,0,0,0,,,,,,,,,3,,81,100
118995,note_on,0,0,0,,,,,,,,,5,,81,100
118995,note_on,0,0,0,,,,,,,,,13,,81,100
119010,note_on,15,0,0,,,,,,,,,13,,81,0
119010,note_on,0,0,0,,,,,,,,,0,,81,0
119010,note_on,0,0,0,,,,,,,,,3,,81,0
119010,note_on,0,0,0,,,,,,,,,5,,81,0
119010,note_on,0,0,0,,,,,,,,,0,,83,100
119010,note_on,0,0,0,,,,,,,,,3,,83,100
119010,note_on,0,0,0,,,,,,,,,5,,83,100
119010,note_on,0,0,0,,,,,,,,,13,,83,100
119025,note_on,15,0,0,,,,,,,,,13,,83,0
119025,note_on,0,0,0,,,,,,,,,0,,83,0
119025,note_on,0,0,0,,,,,,,,,3,,83,0
119025,note_on,0,0,0,,,,,,,,,5,,83,0
119025,note_on,0,0,0,,,,,,,,,0,,81,100
119025,note_on,0,0,0,,,,,,,,,3,,81,100
119025,note_on,0,0,0,,,,,,,,,5,,81,100
119025,note_on,0,0,0,,,,,,,,,13,,81,100
119040,note_on,15,0,0,,,,,,,,,13,,81,0
119040,note_on,0,0,0,,,,,,,,,0,,81,0
119040,note_on,0,0,0,,,,,,,,,3,,81,0
119040,note_on,0,0,0,,,,,,,,,5,,81,0
119040,note_on,0,0,0,,,,,,,,,0,,59,100
119040,note_on,0,0,0,,,,,,,,,0,,83,100
119040,note_on,0,0,0,,,,,,,,,3,,59,100
119040,note_on,0,0,0,,,,,,,,,3,,83,100
119040,note_on,0,0,0,,,,,,,,,5,,83,100
119040,note_on,0,0,0,,,,,,,,,6,,62,100
119040,note_on,0,0,0,,,,,,,,,7,,62,100
119040,note_on,0,0,0,,,,,,,,,8,,59,100
119040,note_on,0,0,0,,,,,,,,,10,,47,100
119040,note_on,0,0,0,,,,,,,,,13,,83,100
119040,note_on,0,0,0,,,,,,,,,14,,59,100
119040,note_on,0,0,0,,,,,,,,,15,,59,100
119055,note_on,15,0,0,,,,,,,,,13,,83,0
119055,note_on,0,0,0,,,,,,,,,5,,83,0
119055,note_on,0,0,0,,,,,,,,,3,,83,0
119055,note_on,0,0,0,,,,,,,,,0,,83,0
119055,note_on,0,0,0,,,,,,,,,0,,81,100
119055,note_on,0,0,0,,,,,,,,,3,,81,100
119055,note_on,0,0,0,,,,,,,,,5,,81,100
119055,note_on,0,0,0,,,,,,,,,13,,81,100
119070,note_on,15,0,0,,,,,,,,,13,,81,0
119070,note_on,0,0,0,,,,,,,,,3,,81,0
119070,note_on,0,0,0,,,,,,,,,0,,81,0
119070,note_on,0,0,0,,,,,,,,,5,,81,0
119100,note_on,30,0,0,,,,,,,,,10,,47,0
119100,note_on,0,0,0,,,,,,,,,0,,59,0
119100,note_on,0,0,0,,,,,,,,,6,,62,0
119100,note_on,0,0,0,,,,,,,,,15,,59,0
119100,note_on,0,0,0,,,,,,,,,7,,62,0
119100,note_on,0,0,0,,,,,,,,,3,,59,0
119100,note_on,0,0,0,,,,,,,,,14,,59,0
119100,note_on,0,0,0,,,,,,,,,8,,59,0
119100,note_on,0,0,0,,,,,,,,,0,,80,100
119100,note_on,0,0,0,,,,,,,,,3,,80,100
119100,note_on,0,0,0,,,,,,,,,5,,80,100
119100,note_on,0,0,0,,,,,,,,,13,,80,100
119130,note_on,30,0,0,,,,,,,,,13,,80,0
119130,note_on,0,0,0,,,,,,,,,0,,80,0
119130,note_on,0,0,0,,,,,,,,,3,,80,0
119130,note_on,0,0,0,,,,,,,,,5,,80,0
119130,note_on,0,0,0,,,,,,,,,0,,78,100
119130,note_on,0,0,0,,,,,,,,,3,,78,100
119130,note_on,0,0,0,,,,,,,,,5,,78,100
119130,note_on,0,0,0,,,,,,,,,13,,78,100
119145,note_on,15,0,0,,,,,,,,,13,,78,0
119145,note_on,0,0,0,,,,,,,,,0,,78,0
119145,note_on,0,0,0,,,,,,,,,3,,78,0
119145,note_on,0,0,0,,,,,,,,,5,,78,0
119160,note_on,15,0,0,,,,,,,,,0,,61,100
119160,note_on,0,0,0,,,,,,,,,0,,76,100
119160,note_on,0,0,0,,,,,,,,,3,,61,100
119160,note_on,0,0,0,,,,,,,,,3,,76,100
119160,note_on,0,0,0,,,,,,,,,5,,76,100
119160,note_on,0,0,0,,,,,,,,,6,,69,100
119160,note_on,0,0,0,,,,,,,,,7,,69,100
119160,note_on,0,0,0,,,,,,,,,8,,61,100
119160,note_on,0,0,0,,,,,,,,,10,,49,100
119160,note_on,0,0,0,,,,,,,,,13,,76,100
119160,note_on,0,0,0,,,,,,,,,14,,61,100
119160,note_on,0,0,0,,,,,,,,,15,,61,100
119190,note_on,30,0,0,,,,,,,,,13,,76,0
119190,note_on,0,0,0,,,,,,,,,7,,69,0
119190,note_on,0,0,0,,,,,,,,,3,,76,0
119190,note_on,0,0,0,,,,,,,,,0,,76,0
119190,note_on,0,0,0,,,,,,,,,6,,69,0
119190,note_on,0,0,0,,,,,,,,,5,,76,0
119220,note_on,30,0,0,,,,,,,,,8,,61,0
119220,note_on,0,0,0,,,,,,,,,15,,61,0
119220,note_on,0,0,0,,,,,,,,,14,,61,0
119220,note_on,0,0,0,,,,,,,,,10,,49,0
119220,note_on,0,0,0,,,,,,,,,0,,61,0
119220,note_on,0,0,0,,,,,,,,,3,,61,0
119220,note_on,0,0,0,,,,,,,,,0,,81,100
119220,note_on,0,0,0,,,,,,,,,3,,81,100
119220,note_on,0,0,0,,,,,,,,,5,,81,100
119220,note_on,0,0,0,,,,,,,,,6,,64,100
119220,note_on,0,0,0,,,,,,,,,7,,64,100
119220,note_on,0,0,0,,,,,,,,,13,,81,100
119250,note_on,30,0,0,,,,,,,,,13,,81,0
119250,note_on,0,0,0,,,,,,,,,3,,81,0
119250,note_on,0,0,0,,,,,,,,,5,,81,0
119250,note_on,0,0,0,,,,,,,,,0,,81,0
119250,note_on,0,0,0,,,,,,,,,7,,64,0
119250,note_on,0,0,0,,,,,,,,,6,,64,0
119280,note_on,30,0,0,,,,,,,,,0,,57,100
119280,note_on,0,0,0,,,,,,,,,3,,57,100
119280,note_on,0,0,0,,,,,,,,,6,,61,100
119280,note_on,0,0,0,,,,,,,,,7,,61,100
119280,note_on,0,0,0,,,,,,,,,8,,57,100
119280,note_on,0,0,0,,,,,,,,,10,,45,100
119280,note_on,0,0,0,,,,,,,,,14,,57,100
119280,note_on,0,0,0,,,,,,,,,15,,57,100
119340,note_on,60,0,0,,,,,,,,,15,,57,0
119340,note_on,0,0,0,,,,,,,,,14,,57,0
119340,note_on,0,0,0,,,,,,,,,8,,57,0
119340,note_on,0,0,0,,,,,,,,,3,,57,0
119340,note_on,0,0,0,,,,,,,,,0,,57,0
119340,note_on,0,0,0,,,,,,,,,10,,45,0
119340,note_on,0,0,0,,,,,,,,,0,,69,100
119340,note_on,0,0,0,,,,,,,,,3,,69,100
119340,note_on,0,0,0,,,,,,,,,5,,69,100
119340,note_on,0,0,0,,,,,,,,,13,,69,100
119355,note_on,15,0,0,,,,,,,,,7,,61,0
119355,note_on,0,0,0,,,,,,,,,6,,61,0
119370,note_on,15,0,0,,,,,,,,,5,,69,0
119370,note_on,0,0,0,,,,,,,,,3,,69,0
119370,note_on,0,0,0,,,,,,,,,13,,69,0
119370,note_on,0,0,0,,,,,,,,,0,,69,0
119400,note_on,30,0,0,,,,,,,,,0,,54,100
119400,note_on,0,0,0,,,,,,,,,0,,76,100
119400,note_on,0,0,0,,,,,,,,,3,,54,100
119400,note_on,0,0,0,,,,,,,,,3,,76,100
119400,note_on,0,0,0,,,,,,,,,5,,76,100
119400,note_on,0,0,0,,,,,,,,,6,,69,100
119400,note_on,0,0,0,,,,,,,,,7,,69,100
119400,note_on,0,0,0,,,,,,,,,8,,54,100
119400,note_on,0,0,0,,,,,,,,,10,,42,100
119400,note_on,0,0,0,,,,,,,,,13,,76,100
119400,note_on,0,0,0,,,,,,,,,14,,54,100
119400,note_on,0,0,0,,,,,,,,,15,,54,100
119415,note_on,15,0,0,,,,,,,,,13,,76,0
119415,note_on,0,0,0,,,,,,,,,5,,76,0
119415,note_on,0,0,0,,,,,,,,,3,,76,0
119415,note_on,0,0,0,,,,,,,,,0,,76,0
119415,note_on,0,0,0,,,,,,,,,0,,74,100
119415,note_on,0,0,0,,,,,,,,,3,,74,100
119415,note_on,0,0,0,,,,,,,,,5,,74,100
119415,note_on,0,0,0,,,,,,,,,13,,74,100
119430,note_on,15,0,0,,,,,,,,,13,,74,0
119430,note_on,0,0,0,,,,,,,,,3,,74,0
119430,note_on,0,0,0,,,,,,,,,0,,74,0
119430,note_on,0,0,0,,,,,,,,,5,,74,0
119430,note_on,0,0,0,,,,,,,,,0,,76,100
119430,note_on,0,0,0,,,,,,,,,3,,76,100
119430,note_on,0,0,0,,,,,,,,,5,,76,100
119430,note_on,0,0,0,,,,,,,,,13,,76,100
119445,note_on,15,0,0,,,,,,,,,13,,76,0
119445,note_on,0,0,0,,,,,,,,,3,,76,0
119445,note_on,0,0,0,,,,,,,,,0,,76,0
119445,note_on,0,0,0,,,,,,,,,5,,76,0
119445,note_on,0,0,0,,,,,,,,,0,,74,100
119445,note_on,0,0,0,,,,,,,,,3,,74,100
119445,note_on,0,0,0,,,,,,,,,5,,74,100
119445,note_on,0,0,0,,,,,,,,,13,,74,100
119460,note_on,15,0,0,,,,,,,,,13,,74,0
119460,note_on,0,0,0,,,,,,,,,14,,54,0
119460,note_on,0,0,0,,,,,,,,,10,,42,0
119460,note_on,0,0,0,,,,,,,,,15,,54,0
119460,note_on,0,0,0,,,,,,,,,8,,54,0
119460,note_on,0,0,0,,,,,,,,,3,,74,0
119460,note_on,0,0,0,,,,,,,,,0,,54,0
119460,note_on,0,0,0,,,,,,,,,3,,54,0
119460,note_on,0,0,0,,,,,,,,,0,,74,0
119460,note_on,0,0,0,,,,,,,,,5,,74,0
119460,note_on,0,0,0,,,,,,,,,0,,76,100
119460,note_on,0,0,0,,,,,,,,,3,,76,100
119460,note_on,0,0,0,,,,,,,,,5,,76,100
119460,note_on,0,0,0,,,,,,,,,13,,76,100
119475,note_on,15,0,0,,,,,,,,,13,,76,0
119475,note_on,0,0,0,,,,,,,,,6,,69,0
119475,note_on,0,0,0,,,,,,,,,0,,76,0
119475,note_on,0,0,0,,,,,,,,,7,,69,0
119475,note_on,0,0,0,,,,,,,,,5,,76,0
119475,note_on,0,0,0,,,,,,,,,3,,76,0
119475,note_on,0,0,0,,,,,,,,,0,,74,100
119475,note_on,0,0,0,,,,,,,,,3,,74,100
119475,note_on,0,0,0,,,,,,,,,5,,74,100
119475,note_on,0,0,0,,,,,,,,,13,,74,100
119490,note_on,15,0,0,,,,,,,,,13,,74,0
119490,note_on,0,0,0,,,,,,,,,0,,74,0
119490,note_on,0,0,0,,,,,,,,,3,,74,0
119490,note_on,0,0,0,,,,,,,,,5,,74,0
119490,note_on,0,0,0,,,,,,,,,0,,76,100
119490,note_on,0,0,0,,,,,,,,,3,,76,100
119490,note_on,0,0,0,,,,,,,,,5,,76,100
119490,note_on,0,0,0,,,,,,,,,13,,76,100
119505,note_on,15,0,0,,,,,,,,,13,,76,0
119505,note_on,0,0,0,,,,,,,,,0,,76,0
119505,note_on,0,0,0,,,,,,,,,3,,76,0
119505,note_on,0,0,0,,,,,,,,,5,,76,0
119505,note_on,0,0,0,,,,,,,,,0,,74,100
119505,note_on,0,0,0,,,,,,,,,3,,74,100
119505,note_on,0,0,0,,,,,,,,,5,,74,100
119505,note_on,0,0,0,,,,,,,,,13,,74,100
119520,note_on,15,0,0,,,,,,,,,13,,74,0
119520,note_on,0,0,0,,,,,,,,,0,,74,0
119520,note_on,0,0,0,,,,,,,,,3,,74,0
119520,note_on,0,0,0,,,,,,,,,5,,74,0
119520,note_on,0,0,0,,,,,,,,,0,,56,100
119520,note_on,0,0,0,,,,,,,,,0,,76,100
119520,note_on,0,0,0,,,,,,,,,3,,56,100
119520,note_on,0,0,0,,,,,,,,,3,,76,100
119520,note_on,0,0,0,,,,,,,,,5,,76,100
119520,note_on,0,0,0,,,,,,,,,6,,64,100
119520,note_on,0,0,0,,,,,,,,,7,,64,100
119520,note_on,0,0,0,,,,,,,,,8,,56,100
119520,note_on,0,0,0,,,,,,,,,10,,44,100
119520,note_on,0,0,0,,,,,,,,,13,,76,100
119520,note_on,0,0,0,,,,,,,,,14,,56,100
119520,note_on,0,0,0,,,,,,,,,15,,56,100
119535,note_on,15,0,0,,,,,,,,,13,,76,0
119535,note_on,0,0,0,,,,,,,,,5,,76,0
119535,note_on,0,0,0,,,,,,,,,3,,76,0
119535,note_on,0,0,0,,,,,,,,,0,,76,0
119535,note_on,0,0,0,,,,,,,,,0,,74,100
119535,note_on,0,0,0,,,,,,,,,3,,74,100
119535,note_on,0,0,0,,,,,,,,,5,,74,100
119535,note_on,0,0,0,,,,,,,,,13,,74,100
119550,note_on,15,0,0,,,,,,,,,13,,74,0
119550,note_on,0,0,0,,,,,,,,,3,,74,0
119550,note_on,0,0,0,,,,,,,,,0,,74,0
119550,note_on,0,0,0,,,,,,,,,5,,74,0
119580,note_on,30,0,0,,,,,,,,,0,,56,0
119580,note_on,0,0,0,,,,,,,,,8,,56,0
119580,note_on,0,0,0,,,,,,,,,10,,44,0
119580,note_on,0,0,0,,,,,,,,,15,,56,0
119580,note_on,0,0,0,,,,,,,,,3,,56,0
119580,note_on,0,0,0,,,,,,,,,14,,56,0
119580,note_on,0,0,0,,,,,,,,,0,,73,100
119580,note_on,0,0,0,,,,,,,,,3,,73,100
119580,note_on,0,0,0,,,,,,,,,5,,73,100
119580,note_on,0,0,0,,,,,,,,,13,,73,100
119595,note_on,15,0,0,,,,,,,,,6,,64,0
119595,note_on,0,0,0,,,,,,,,,7,,64,0
119610,note_on,15,0,0,,,,,,,,,5,,73,0
119610,note_on,0,0,0,,,,,,,,,3,,73,0
119610,note_on,0,0,0,,,,,,,,,13,,73,0
119610,note_on,0,0,0,,,,,,,,,0,,73,0
119610,note_on,0,0,0,,,,,,,,,0,,71,100
119610,note_on,0,0,0,,,,,,,,,3,,71,100
119610,note_on,0,0,0,,,,,,,,,5,,71,100
119610,note_on,0,0,0,,,,,,,,,13,,71,100
119625,note_on,15,0,0,,,,,,,,,13,,71,0
119625,note_on,0,0,0,,,,,,,,,0,,71,0
119625,note_on,0,0,0,,,,,,,,,3,,71,0
119625,note_on,0,0,0,,,,,,,,,5,,71,0
119640,note_on,15,0,0,,,,,,,,,0,,57,100
119640,note_on,0,0,0,,,,,,,,,0,,73,100
119640,note_on,0,0,0,,,,,,,,,3,,57,100
119640,note_on,0,0,0,,,,,,,,,3,,73,100
119640,note_on,0,0,0,,,,,,,,,5,,73,100
119640,note_on,0,0,0,,,,,,,,,6,,64,100
119640,note_on,0,0,0,,,,,,,,,7,,64,100
119640,note_on,0,0,0,,,,,,,,,8,,57,100
119640,note_on,0,0,0,,,,,,,,,10,,45,100
119640,note_on,0,0,0,,,,,,,,,13,,73,100
119640,note_on,0,0,0,,,,,,,,,14,,57,100
119640,note_on,0,0,0,,,,,,,,,15,,57,100
119670,note_on,30,0,0,,,,,,,,,13,,73,0
119670,note_on,0,0,0,,,,,,,,,7,,64,0
119670,note_on,0,0,0,,,,,,,,,3,,73,0
119670,note_on,0,0,0,,,,,,,,,0,,73,0
119670,note_on,0,0,0,,,,,,,,,6,,64,0
119670,note_on,0,0,0,,,,,,,,,5,,73,0
119700,note_on,30,0,0,,,,,,,,,8,,57,0
119700,note_on,0,0,0,,,,,,,,,15,,57,0
119700,note_on,0,0,0,,,,,,,,,14,,57,0
119700,note_on,0,0,0,,,,,,,,,10,,45,0
119700,note_on,0,0,0,,,,,,,,,0,,57,0
119700,note_on,0,0,0,,,,,,,,,3,,57,0
119700,note_on,0,0,0,,,,,,,,,0,,81,100
119700,note_on,0,0,0,,,,,,,,,3,,81,100
119700,note_on,0,0,0,,,,,,,,,5,,81,100
119700,note_on,0,0,0,,,,,,,,,6,,61,100
119700,note_on,0,0,0,,,,,,,,,7,,61,100
119700,note_on,0,0,0,,,,,,,,,13,,81,100
119730,note_on,30,0,0,,,,,,,,,13,,81,0
119730,note_on,0,0,0,,,,,,,,,3,,81,0
119730,note_on,0,0,0,,,,,,,,,5,,81,0
119730,note_on,0,0,0,,,,,,,,,0,,81,0
119730,note_on,0,0,0,,,,,,,,,7,,61,0
119730,note_on,0,0,0,,,,,,,,,6,,61,0
119760,note_on,30,0,0,,,,,,,,,0,,49,100
119760,note_on,0,0,0,,,,,,,,,3,,49,100
119760,note_on,0,0,0,,,,,,,,,6,,57,100
119760,note_on,0,0,0,,,,,,,,,7,,57,100
119760,note_on,0,0,0,,,,,,,,,8,,49,100
119760,note_on,0,0,0,,,,,,,,,10,,37,100
119760,note_on,0,0,0,,,,,,,,,14,,49,100
119760,note_on,0,0,0,,,,,,,,,15,,49,100
119820,note_on,60,0,0,,,,,,,,,3,,49,0
119820,note_on,0,0,0,,,,,,,,,0,,49,0
119820,note_on,0,0,0,,,,,,,,,0,,64,100
119820,note_on,0,0,0,,,,,,,,,3,,64,100
119820,note_on,0,0,0,,,,,,,,,5,,64,100
119820,note_on,0,0,0,,,,,,,,,13,,64,100
119835,note_on,15,0,0,,,,,,,,,7,,57,0
119835,note_on,0,0,0,,,,,,,,,6,,57,0
119850,note_on,15,0,0,,,,,,,,,14,,49,0
119850,note_on,0,0,0,,,,,,,,,15,,49,0
119850,note_on,0,0,0,,,,,,,,,0,,64,0
119850,note_on,0,0,0,,,,,,,,,10,,37,0
119850,note_on,0,0,0,,,,,,,,,5,,64,0
119850,note_on,0,0,0,,,,,,,,,3,,64,0
119850,note_on,0,0,0,,,,,,,,,8,,49,0
119850,note_on,0,0,0,,,,,,,,,13,,64,0
119880,note_on,30,0,0,,,,,,,,,0,,50,100
119880,note_on,0,0,0,,,,,,,,,0,,66,100
119880,note_on,0,0,0,,,,,,,,,3,,50,100
119880,note_on,0,0,0,,,,,,,,,3,,66,100
119880,note_on,0,0,0,,,,,,,,,5,,66,100
119880,note_on,0,0,0,,,,,,,,,6,,66,100
119880,note_on,0,0,0,,,,,,,,,7,,66,100
119880,note_on,0,0,0,,,,,,,,,8,,50,100
119880,note_on,0,0,0,,,,,,,,,10,,38,100
119880,note_on,0,0,0,,,,,,,,,13,,66,100
119880,note_on,0,0,0,,,,,,,,,14,,50,100
119880,note_on,0,0,0,,,,,,,,,15,,50,100
119910,note_on,30,0,0,,,,,,,,,13,,66,0
119910,note_on,0,0,0,,,,,,,,,5,,66,0
119910,note_on,0,0,0,,,,,,,,,3,,66,0
119910,note_on,0,0,0,,,,,,,,,0,,66,0
119940,note_on,30,0,0,,,,,,,,,8,,50,0
119940,note_on,0,0,0,,,,,,,,,10,,38,0
119940,note_on,0,0,0,,,,,,,,,0,,50,0
119940,note_on,0,0,0,,,,,,,,,3,,50,0
119940,note_on,0,0,0,,,,,,,,,14,,50,0
119940,note_on,0,0,0,,,,,,,,,15,,50,0
119940,note_on,0,0,0,,,,,,,,,0,,74,100
119940,note_on,0,0,0,,,,,,,,,3,,74,100
119940,note_on,0,0,0,,,,,,,,,5,,74,100
119940,note_on,0,0,0,,,,,,,,,13,,74,100
119955,note_on,15,0,0,,,,,,,,,6,,66,0
119955,note_on,0,0,0,,,,,,,,,7,,66,0
120000,note_on,45,0,0,,,,,,,,,0,,47,100
120000,note_on,0,0,0,,,,,,,,,3,,47,100
120000,note_on,0,0,0,,,,,,,,,6,,62,100
120000,note_on,0,0,0,,,,,,,,,7,,62,100
120000,note_on,0,0,0,,,,,,,,,8,,47,100
120000,note_on,0,0,0,,,,,,,,,10,,35,100
120000,note_on,0,0,0,,,,,,,,,14,,47,100
120000,note_on,0,0,0,,,,,,,,,15,,47,100
120030,note_on,30,0,0,,,,,,,,,5,,74,0
120030,note_on,0,0,0,,,,,,,,,0,,74,0
120030,note_on,0,0,0,,,,,,,,,3,,74,0
120030,note_on,0,0,0,,,,,,,,,13,,74,0
120060,note_on,30,0,0,,,,,,,,,8,,47,0
120060,note_on,0,0,0,,,,,,,,,10,,35,0
120060,note_on,0,0,0,,,,,,,,,3,,47,0
120060,note_on,0,0,0,,,,,,,,,15,,47,0
120060,note_on,0,0,0,,,,,,,,,14,,47,0
120060,note_on,0,0,0,,,,,,,,,0,,47,0
120060,note_on,0,0,0,,,,,,,,,0,,66,100
120060,note_on,0,0,0,,,,,,,,,3,,66,100
120060,note_on,0,0,0,,,,,,,,,5,,66,100
120060,note_on,0,0,0,,,,,,,,,13,,66,100
120075,note_on,15,0,0,,,,,,,,,7,,62,0
120075,note_on,0,0,0,,,,,,,,,6,,62,0
120090,note_on,15,0,0,,,,,,,,,5,,66,0
120090,note_on,0,0,0,,,,,,,,,3,,66,0
120090,note_on,0,0,0,,,,,,,,,13,,66,0
120090,note_on,0,0,0,,,,,,,,,0,,66,0
120120,note_on,30,0,0,,,,,,,,,0,,52,100
120120,note_on,0,0,0,,,,,,,,,0,,68,100
120120,note_on,0,0,0,,,,,,,,,3,,52,100
120120,note_on,0,0,0,,,,,,,,,3,,68,100
120120,note_on,0,0,0,,,,,,,,,5,,68,100
120120,note_on,0,0,0,,,,,,,,,6,,59,100
120120,note_on,0,0,0,,,,,,,,,7,,59,100
120120,note_on,0,0,0,,,,,,,,,8,,52,100
120120,note_on,0,0,0,,,,,,,,,10,,40,100
120120,note_on,0,0,0,,,,,,,,,13,,68,100
120120,note_on,0,0,0,,,,,,,,,14,,52,100
120120,note_on,0,0,0,,,,,,,,,15,,52,100
120150,note_on,30,0,0,,,,,,,,,13,,68,0
120150,note_on,0,0,0,,,,,,,,,5,,68,0
120150,note_on,0,0,0,,,,,,,,,3,,68,0
120150,note_on,0,0,0,,,,,,,,,0,,68,0
120180,note_on,30,0,0,,,,,,,,,8,,52,0
120180,note_on,0,0,0,,,,,,,,,10,,40,0
120180,note_on,0,0,0,,,,,,,,,0,,52,0
120180,note_on,0,0,0,,,,,,,,,3,,52,0
120180,note_on,0,0,0,,,,,,,,,14,,52,0
120180,note_on,0,0,0,,,,,,,,,15,,52,0
120180,note_on,0,0,0,,,,,,,,,0,,71,100
120180,note_on,0,0,0,,,,,,,,,3,,71,100
120180,note_on,0,0,0,,,,,,,,,5,,71,100
120180,note_on,0,0,0,,,,,,,,,13,,71,100
120195,note_on,15,0,0,,,,,,,,,6,,59,0
120195,note_on,0,0,0,,,,,,,,,7,,59,0
120210,note_on,15,0,0,,,,,,,,,5,,71,0
120210,note_on,0,0,0,,,,,,,,,3,,71,0
120210,note_on,0,0,0,,,,,,,,,13,,71,0
120210,note_on,0,0,0,,,,,,,,,0,,71,0
120240,note_on,30,0,0,,,,,,,,,0,,59,100
120240,note_on,0,0,0,,,,,,,,,0,,62,100
120240,note_on,0,0,0,,,,,,,,,3,,59,100
120240,note_on,0,0,0,,,,,,,,,3,,62,100
120240,note_on,0,0,0,,,,,,,,,5,,62,100
120240,note_on,0,0,0,,,,,,,,,8,,59,100
120240,note_on,0,0,0,,,,,,,,,10,,47,100
120240,note_on,0,0,0,,,,,,,,,13,,62,100
120240,note_on,0,0,0,,,,,,,,,14,,59,100
120240,note_on,0,0,0,,,,,,,,,15,,59,100
120270,note_on,30,0,0,,,,,,,,,15,,59,0
120270,note_on,0,0,0,,,,,,,,,3,,59,0
120270,note_on,0,0,0,,,,,,,,,3,,62,0
120270,note_on,0,0,0,,,,,,,,,0,,59,0
120270,note_on,0,0,0,,,,,,,,,5,,62,0
120270,note_on,0,0,0,,,,,,,,,0,,62,0
120270,note_on,0,0,0,,,,,,,,,13,,62,0
120270,note_on,0,0,0,,,,,,,,,10,,47,0
120270,note_on,0,0,0,,,,,,,,,8,,59,0
120270,note_on,0,0,0,,,,,,,,,14,,59,0
120300,note_on,30,0,0,,,,,,,,,0,,56,100
120300,note_on,0,0,0,,,,,,,,,0,,74,100
120300,note_on,0,0,0,,,,,,,,,3,,56,100
120300,note_on,0,0,0,,,,,,,,,3,,74,100
120300,note_on,0,0,0,,,,,,,,,5,,74,100
120300,note_on,0,0,0,,,,,,,,,6,,71,100
120300,note_on,0,0,0,,,,,,,,,7,,71,100
120300,note_on,0,0,0,,,,,,,,,8,,56,100
120300,note_on,0,0,0,,,,,,,,,10,,44,100
120300,note_on,0,0,0,,,,,,,,,13,,74,100
120300,note_on,0,0,0,,,,,,,,,14,,56,100
120300,note_on,0,0,0,,,,,,,,,15,,56,100
120330,note_on,30,0,0,,,,,,,,,15,,56,0
120330,note_on,0,0,0,,,,,,,,,0,,74,0
120330,note_on,0,0,0,,,,,,,,,8,,56,0
120330,note_on,0,0,0,,,,,,,,,3,,56,0
120330,note_on,0,0,0,,,,,,,,,3,,74,0
120330,note_on,0,0,0,,,,,,,,,0,,56,0
120330,note_on,0,0,0,,,,,,,,,5,,74,0
120330,note_on,0,0,0,,,,,,,,,6,,71,0
120330,note_on,0,0,0,,,,,,,,,10,,44,0
120330,note_on,0,0,0,,,,,,,,,7,,71,0
120330,note_on,0,0,0,,,,,,,,,14,,56,0
120330,note_on,0,0,0,,,,,,,,,13,,74,0
120360,note_on,30,0,0,,,,,,,,,0,,57,100
120360,note_on,0,0,0,,,,,,,,,0,,73,100
120360,note_on,0,0,0,,,,,,,,,3,,57,100
120360,note_on,0,0,0,,,,,,,,,3,,73,100
120360,note_on,0,0,0,,,,,,,,,5,,73,100
120360,note_on,0,0,0,,,,,,,,,6,,64,100
120360,note_on,0,0,0,,,,,,,,,7,,64,100
120360,note_on,0,0,0,,,,,,,,,8,,57,100
120360,note_on,0,0,0,,,,,,,,,10,,45,100
120360,note_on,0,0,0,,,,,,,,,13,,73,100
120360,note_on,0,0,0,,,,,,,,,14,,57,100
120360,note_on,0,0,0,,,,,,,,,15,,57,100
120375,note_on,15,0,0,,,,,,,,,13,,73,0
120375,note_on,0,0,0,,,,,,,,,5,,73,0
120375,note_on,0,0,0,,,,,,,,,0,,57,0
120375,note_on,0,0,0,,,,,,,,,3,,73,0
120375,note_on,0,0,0,,,,,,,,,3,,57,0
120375,note_on,0,0,0,,,,,,,,,0,,73,0
120390,note_on,15,0,0,,,,,,,,,10,,45,0
120390,note_on,0,0,0,,,,,,,,,8,,57,0
120390,note_on,0,0,0,,,,,,,,,14,,57,0
120390,note_on,0,0,0,,,,,,,,,15,,57,0
120420,note_on,30,0,0,,,,,,,,,0,,49,100
120420,note_on,0,0,0,,,,,,,,,0,,81,100
120420,note_on,0,0,0,,,,,,,,,3,,49,100
120420,note_on,0,0,0,,,,,,,,,3,,81,100
120420,note_on,0,0,0,,,,,,,,,5,,81,100
120420,note_on,0,0,0,,,,,,,,,8,,49,100
120420,note_on,0,0,0,,,,,,,,,10,,37,100
120420,note_on,0,0,0,,,,,,,,,13,,81,100
120420,note_on,0,0,0,,,,,,,,,14,,49,100
120420,note_on,0,0,0,,,,,,,,,15,,49,100
120435,note_on,15,0,0,,,,,,,,,13,,81,0
120435,note_on,0,0,0,,,,,,,,,5,,81,0
120435,note_on,0,0,0,,,,,,,,,6,,64,0
120435,note_on,0,0,0,,,,,,,,,0,,81,0
120435,note_on,0,0,0,,,,,,,,,0,,49,0
120435,note_on,0,0,0,,,,,,,,,3,,81,0
120435,note_on,0,0,0,,,,,,,,,3,,49,0
120435,note_on,0,0,0,,,,,,,,,7,,64,0
120450,note_on,15,0,0,,,,,,,,,14,,49,0
120450,note_on,0,0,0,,,,,,,,,15,,49,0
120450,note_on,0,0,0,,,,,,,,,8,,49,0
120450,note_on,0,0,0,,,,,,,,,10,,37,0
120480,note_on,30,0,0,,,,,,,,,0,,50,100
120480,note_on,0,0,0,,,,,,,,,0,,71,100
120480,note_on,0,0,0,,,,,,,,,3,,50,100
120480,note_on,0,0,0,,,,,,,,,3,,71,100
120480,note_on,0,0,0,,,,,,,,,5,,71,100
120480,note_on,0,0,0,,,,,,,,,6,,66,100
120480,note_on,0,0,0,,,,,,,,,7,,66,100
120480,note_on,0,0,0,,,,,,,,,8,,50,100
120480,note_on,0,0,0,,,,,,,,,10,,38,100
120480,note_on,0,0,0,,,,,,,,,13,,71,100
120480,note_on,0,0,0,,,,,,,,,14,,50,100
120480,note_on,0,0,0,,,,,,,,,15,,50,100
120495,note_on,15,0,0,,,,,,,,,13,,71,0
120495,note_on,0,0,0,,,,,,,,,7,,66,0
120495,note_on,0,0,0,,,,,,,,,0,,50,0
120495,note_on,0,0,0,,,,,,,,,3,,71,0
120495,note_on,0,0,0,,,,,,,,,3,,50,0
120495,note_on,0,0,0,,,,,,,,,6,,66,0
120495,note_on,0,0,0,,,,,,,,,5,,71,0
120495,note_on,0,0,0,,,,,,,,,0,,71,0
120510,note_on,15,0,0,,,,,,,,,14,,50,0
120510,note_on,0,0,0,,,,,,,,,15,,50,0
120510,note_on,0,0,0,,,,,,,,,8,,50,0
120510,note_on,0,0,0,,,,,,,,,10,,38,0
120540,note_on,30,0,0,,,,,,,,,0,,52,100
120540,note_on,0,0,0,,,,,,,,,0,,80,100
120540,note_on,0,0,0,,,,,,,,,3,,52,100
120540,note_on,0,0,0,,,,,,,,,3,,80,100
120540,note_on,0,0,0,,,,,,,,,5,,80,100
120540,note_on,0,0,0,,,,,,,,,6,,64,100
120540,note_on,0,0,0,,,,,,,,,7,,64,100
120540,note_on,0,0,0,,,,,,,,,8,,52,100
120540,note_on,0,0,0,,,,,,,,,10,,40,100
120540,note_on,0,0,0,,,,,,,,,13,,80,100
120540,note_on,0,0,0,,,,,,,,,14,,52,100
120540,note_on,0,0,0,,,,,,,,,15,,52,100
120555,note_on,15,0,0,,,,,,,,,13,,80,0
120555,note_on,0,0,0,,,,,,,,,7,,64,0
120555,note_on,0,0,0,,,,,,,,,0,,52,0
120555,note_on,0,0,0,,,,,,,,,3,,80,0
120555,note_on,0,0,0,,,,,,,,,3,,52,0
120555,note_on,0,0,0,,,,,,,,,6,,64,0
120555,note_on,0,0,0,,,,,,,,,5,,80,0
120555,note_on,0,0,0,,,,,,,,,0,,80,0
120570,note_on,15,0,0,,,,,,,,,14,,52,0
120570,note_on,0,0,0,,,,,,,,,15,,52,0
120570,note_on,0,0,0,,,,,,,,,8,,52,0
120570,note_on,0,0,0,,,,,,,,,10,,40,0
120600,note_on,30,0,0,,,,,,,,,0,,45,100
120600,note_on,0,0,0,,,,,,,,,0,,81,100
120600,note_on,0,0,0,,,,,,,,,3,,45,100
120600,note_on,0,0,0,,,,,,,,,3,,81,100
120600,note_on,0,0,0,,,,,,,,,5,,81,100
120600,note_on,0,0,0,,,,,,,,,6,,61,100
120600,note_on,0,0,0,,,,,,,,,7,,61,100
120600,note_on,0,0,0,,,,,,,,,8,,45,100
120600,note_on,0,0,0,,,,,,,,,10,,33,100
120600,note_on,0,0,0,,,,,,,,,13,,81,100
120600,note_on,0,0,0,,,,,,,,,14,,45,100
120600,note_on,0,0,0,,,,,,,,,15,,45,100
120690,note_on,90,0,0,,,,,,,,,15,,45,0
120690,note_on,0,0,0,,,,,,,,,13,,81,0
120690,note_on,0,0,0,,,,,,,,,8,,45,0
120690,note_on,0,0,0,,,,,,,,,7,,61,0
120690,note_on,0,0,0,,,,,,,,,10,,33,0
120690,note_on,0,0,0,,,,,,,,,14,,45,0
120690,note_on,0,0,0,,,,,,,,,5,,81,0
120690,note_on,0,0,0,,,,,,,,,6,,61,0
120705,note_on,15,0,0,,,,,,,,,3,,45,0
120705,note_on,0,0,0,,,,,,,,,0,,81,0
120705,note_on,0,0,0,,,,,,,,,0,,45,0
120705,note_on,0,0,0,,,,,,,,,3,,81,0
120780,note_on,75,0,0,,,,,,,,,1,,76,100
120780,note_on,0,0,0,,,,,,,,,4,,76,100
120810,note_on,30,0,0,,,,,,,,,4,,76,0
120810,note_on,0,0,0,,,,,,,,,1,,76,0
120836,control_change,26,0,0,,,,,,,11,76,6,,,
120836,control_change,0,0,0,,,,,,,11,75,7,,,
120840,note_on,4,0,0,,,,,,,,,1,,73,100
120840,note_on,0,0,0,,,,,,,,,4,,73,100
120840,note_on,0,0,0,,,,,,,,,6,,57,100
120840,note_on,0,0,0,,,,,,,,,7,,57,100
120900,note_on,60,0,0,,,,,,,,,4,,73,0
120900,note_on,0,0,0,,,,,,,,,1,,73,0
120900,note_on,0,0,0,,,,,,,,,1,,69,100
120900,note_on,0,0,0,,,,,,,,,4,,69,100
120930,note_on,30,0,0,,,,,,,,,4,,69,0
120930,note_on,0,0,0,,,,,,,,,1,,69,0
120960,note_on,30,0,0,,,,,,,,,1,,71,100
120960,note_on,0,0,0,,,,,,,,,4,,71,100
121020,note_on,60,0,0,,,,,,,,,4,,71,0
121020,note_on,0,0,0,,,,,,,,,1,,71,0
121020,note_on,0,0,0,,,,,,,,,1,,64,100
121020,note_on,0,0,0,,,,,,,,,1,,68,100
121020,note_on,0,0,0,,,,,,,,,4,,64,100
121020,note_on,0,0,0,,,,,,,,,4,,68,100
121050,note_on,30,0,0,,,,,,,,,4,,68,0
121050,note_on,0,0,0,,,,,,,,,1,,68,0
121050,note_on,0,0,0,,,,,,,,,1,,64,0
121050,note_on,0,0,0,,,,,,,,,4,,64,0
121080,note_on,30,0,0,,,,,,,,,1,,61,100
121080,note_on,0,0,0,,,,,,,,,1,,69,100
121080,note_on,0,0,0,,,,,,,,,4,,61,100
121080,note_on,0,0,0,,,,,,,,,4,,69,100
121140,note_on,60,0,0,,,,,,,,,4,,69,0
121140,note_on,0,0,0,,,,,,,,,1,,69,0
121140,note_on,0,0,0,,,,,,,,,1,,61,0
121140,note_on,0,0,0,,,,,,,,,4,,61,0
121140,note_on,0,0,0,,,,,,,,,1,,57,100
121140,note_on,0,0,0,,,,,,,,,1,,73,100
121140,note_on,0,0,0,,,,,,,,,4,,57,100
121140,note_on,0,0,0,,,,,,,,,4,,73,100
121170,note_on,30,0,0,,,,,,,,,4,,73,0
121170,note_on,0,0,0,,,,,,,,,1,,73,0
121170,note_on,0,0,0,,,,,,,,,1,,57,0
121170,note_on,0,0,0,,,,,,,,,4,,57,0
121200,note_on,30,0,0,,,,,,,,,1,,59,100
121200,note_on,0,0,0,,,,,,,,,1,,74,100
121200,note_on,0,0,0,,,,,,,,,4,,59,100
121200,note_on,0,0,0,,,,,,,,,4,,74,100
121260,note_on,60,0,0,,,,,,,,,4,,74,0
121260,note_on,0,0,0,,,,,,,,,1,,74,0
121260,note_on,0,0,0,,,,,,,,,1,,59,0
121260,note_on,0,0,0,,,,,,,,,4,,59,0
121260,note_on,0,0,0,,,,,,,,,1,,56,100
121260,note_on,0,0,0,,,,,,,,,1,,71,100
121260,note_on,0,0,0,,,,,,,,,4,,56,100
121260,note_on,0,0,0,,,,,,,,,4,,71,100
121290,note_on,30,0,0,,,,,,,,,4,,71,0
121290,note_on,0,0,0,,,,,,,,,1,,71,0
121290,note_on,0,0,0,,,,,,,,,1,,56,0
121290,note_on,0,0,0,,,,,,,,,4,,56,0
121320,note_on,30,0,0,,,,,,,,,1,,57,100
121320,note_on,0,0,0,,,,,,,,,1,,73,100
121320,note_on,0,0,0,,,,,,,,,4,,57,100
121320,note_on,0,0,0,,,,,,,,,4,,73,100
121380,note_on,60,0,0,,,,,,,,,4,,73,0
121380,note_on,0,0,0,,,,,,,,,1,,73,0
121380,note_on,0,0,0,,,,,,,,,1,,57,0
121380,note_on,0,0,0,,,,,,,,,4,,57,0
121380,note_on,0,0,0,,,,,,,,,1,,61,100
121380,note_on,0,0,0,,,,,,,,,1,,69,100
121380,note_on,0,0,0,,,,,,,,,4,,61,100
121380,note_on,0,0,0,,,,,,,,,4,,69,100
121410,note_on,30,0,0,,,,,,,,,4,,69,0
121410,note_on,0,0,0,,,,,,,,,1,,69,0
121410,note_on,0,0,0,,,,,,,,,1,,61,0
121410,note_on,0,0,0,,,,,,,,,4,,61,0
121440,note_on,30,0,0,,,,,,,,,1,,62,100
121440,note_on,0,0,0,,,,,,,,,1,,71,100
121440,note_on,0,0,0,,,,,,,,,4,,62,100
121440,note_on,0,0,0,,,,,,,,,4,,71,100
121500,note_on,60,0,0,,,,,,,,,4,,71,0
121500,note_on,0,0,0,,,,,,,,,1,,71,0
121500,note_on,0,0,0,,,,,,,,,1,,62,0
121500,note_on,0,0,0,,,,,,,,,4,,62,0
121500,note_on,0,0,0,,,,,,,,,1,,59,100
121500,note_on,0,0,0,,,,,,,,,1,,68,100
121500,note_on,0,0,0,,,,,,,,,4,,59,100
121500,note_on,0,0,0,,,,,,,,,4,,68,100
121530,note_on,30,0,0,,,,,,,,,4,,68,0
121530,note_on,0,0,0,,,,,,,,,1,,68,0
121530,note_on,0,0,0,,,,,,,,,1,,59,0
121530,note_on,0,0,0,,,,,,,,,4,,59,0
121560,note_on,30,0,0,,,,,,,,,1,,69,100
121560,note_on,0,0,0,,,,,,,,,1,,61,100
121560,note_on,0,0,0,,,,,,,,,4,,69,100
121560,note_on,0,0,0,,,,,,,,,4,,61,100
121590,note_on,30,0,0,,,,,,,,,4,,69,0
121590,note_on,0,0,0,,,,,,,,,1,,69,0
121590,note_on,0,0,0,,,,,,,,,1,,71,100
121590,note_on,0,0,0,,,,,,,,,4,,71,100
121620,note_on,30,0,0,,,,,,,,,4,,71,0
121620,note_on,0,0,0,,,,,,,,,4,,61,0
121620,note_on,0,0,0,,,,,,,,,1,,61,0
121620,note_on,0,0,0,,,,,,,,,1,,71,0
121620,note_on,0,0,0,,,,,,,,,1,,73,100
121620,note_on,0,0,0,,,,,,,,,1,,64,100
121620,note_on,0,0,0,,,,,,,,,4,,73,100
121620,note_on,0,0,0,,,,,,,,,4,,64,100
121650,note_on,30,0,0,,,,,,,,,4,,64,0
121650,note_on,0,0,0,,,,,,,,,1,,64,0
121650,note_on,0,0,0,,,,,,,,,1,,73,0
121650,note_on,0,0,0,,,,,,,,,4,,73,0
121680,note_on,30,0,0,,,,,,,,,1,,71,100
121680,note_on,0,0,0,,,,,,,,,1,,56,100
121680,note_on,0,0,0,,,,,,,,,4,,71,100
121680,note_on,0,0,0,,,,,,,,,4,,56,100
121710,note_on,30,0,0,,,,,,,,,4,,71,0
121710,note_on,0,0,0,,,,,,,,,1,,71,0
121710,note_on,0,0,0,,,,,,,,,1,,73,100
121710,note_on,0,0,0,,,,,,,,,4,,73,100
121740,note_on,30,0,0,,,,,,,,,4,,73,0
121740,note_on,0,0,0,,,,,,,,,4,,56,0
121740,note_on,0,0,0,,,,,,,,,1,,56,0
121740,note_on,0,0,0,,,,,,,,,1,,73,0
121740,note_on,0,0,0,,,,,,,,,1,,74,100
121740,note_on,0,0,0,,,,,,,,,1,,59,100
121740,note_on,0,0,0,,,,,,,,,4,,74,100
121740,note_on,0,0,0,,,,,,,,,4,,59,100
121770,note_on,30,0,0,,,,,,,,,4,,59,0
121770,note_on,0,0,0,,,,,,,,,1,,59,0
121770,note_on,0,0,0,,,,,,,,,1,,74,0
121770,note_on,0,0,0,,,,,,,,,4,,74,0
121800,note_on,30,0,0,,,,,,,,,1,,57,100
121800,note_on,0,0,0,,,,,,,,,1,,73,100
121800,note_on,0,0,0,,,,,,,,,4,,57,100
121800,note_on,0,0,0,,,,,,,,,4,,73,100
121830,note_on,30,0,0,,,,,,,,,4,,73,0
121830,note_on,0,0,0,,,,,,,,,1,,73,0
121830,note_on,0,0,0,,,,,,,,,1,,57,0
121830,note_on,0,0,0,,,,,,,,,4,,57,0
121830,note_on,0,0,0,,,,,,,,,1,,59,100
121830,note_on,0,0,0,,,,,,,,,1,,74,100
121830,note_on,0,0,0,,,,,,,,,4,,59,100
121830,note_on,0,0,0,,,,,,,,,4,,74,100
121860,note_on,30,0,0,,,,,,,,,4,,74,0
121860,note_on,0,0,0,,,,,,,,,1,,74,0
121860,note_on,0,0,0,,,,,,,,,1,,59,0
121860,note_on,0,0,0,,,,,,,,,4,,59,0
121860,note_on,0,0,0,,,,,,,,,1,,61,100
121860,note_on,0,0,0,,,,,,,,,1,,76,100
121860,note_on,0,0,0,,,,,,,,,4,,61,100
121860,note_on,0,0,0,,,,,,,,,4,,76,100
121890,note_on,30,0,0,,,,,,,,,4,,76,0
121890,note_on,0,0,0,,,,,,,,,1,,76,0
121890,note_on,0,0,0,,,,,,,,,1,,61,0
121890,note_on,0,0,0,,,,,,,,,4,,61,0
121920,note_on,30,0,0,,,,,,,,,1,,59,100
121920,note_on,0,0,0,,,,,,,,,1,,68,100
121920,note_on,0,0,0,,,,,,,,,4,,59,100
121920,note_on,0,0,0,,,,,,,,,4,,68,100
121950,note_on,30,0,0,,,,,,,,,4,,68,0
121950,note_on,0,0,0,,,,,,,,,1,,68,0
121950,note_on,0,0,0,,,,,,,,,1,,59,0
121950,note_on,0,0,0,,,,,,,,,4,,59,0
121950,note_on,0,0,0,,,,,,,,,1,,61,100
121950,note_on,0,0,0,,,,,,,,,1,,69,100
121950,note_on,0,0,0,,,,,,,,,4,,61,100
121950,note_on,0,0,0,,,,,,,,,4,,69,100
121980,note_on,30,0,0,,,,,,,,,4,,69,0
121980,note_on,0,0,0,,,,,,,,,1,,69,0
121980,note_on,0,0,0,,,,,,,,,1,,61,0
121980,note_on,0,0,0,,,,,,,,,4,,61,0
121980,note_on,0,0,0,,,,,,,,,1,,62,100
121980,note_on,0,0,0,,,,,,,,,1,,71,100
121980,note_on,0,0,0,,,,,,,,,4,,62,100
121980,note_on,0,0,0,,,,,,,,,4,,71,100
122010,note_on,30,0,0,,,,,,,,,4,,71,0
122010,note_on,0,0,0,,,,,,,,,1,,71,0
122010,note_on,0,0,0,,,,,,,,,1,,62,0
122010,note_on,0,0,0,,,,,,,,,4,,62,0
122040,note_on,30,0,0,,,,,,,,,1,,61,100
122040,note_on,0,0,0,,,,,,,,,1,,69,100
122040,note_on,0,0,0,,,,,,,,,4,,61,100
122040,note_on,0,0,0,,,,,,,,,4,,69,100
122070,note_on,30,0,0,,,,,,,,,4,,69,0
122070,note_on,0,0,0,,,,,,,,,1,,69,0
122070,note_on,0,0,0,,,,,,,,,1,,61,0
122070,note_on,0,0,0,,,,,,,,,4,,61,0
122070,note_on,0,0,0,,,,,,,,,1,,62,100
122070,note_on,0,0,0,,,,,,,,,1,,71,100
122070,note_on,0,0,0,,,,,,,,,4,,62,100
122070,note_on,0,0,0,,,,,,,,,4,,71,100
122100,note_on,30,0,0,,,,,,,,,4,,71,0
122100,note_on,0,0,0,,,,,,,,,1,,71,0
122100,note_on,0,0,0,,,,,,,,,1,,62,0
122100,note_on,0,0,0,,,,,,,,,4,,62,0
122100,note_on,0,0,0,,,,,,,,,1,,64,100
122100,note_on,0,0,0,,,,,,,,,1,,73,100
122100,note_on,0,0,0,,,,,,,,,4,,64,100
122100,note_on,0,0,0,,,,,,,,,4,,73,100
122130,note_on,30,0,0,,,,,,,,,4,,73,0
122130,note_on,0,0,0,,,,,,,,,1,,73,0
122130,note_on,0,0,0,,,,,,,,,1,,64,0
122130,note_on,0,0,0,,,,,,,,,4,,64,0
122160,note_on,30,0,0,,,,,,,,,1,,56,100
122160,note_on,0,0,0,,,,,,,,,1,,71,100
122160,note_on,0,0,0,,,,,,,,,4,,56,100
122160,note_on,0,0,0,,,,,,,,,4,,71,100
122190,note_on,30,0,0,,,,,,,,,4,,71,0
122190,note_on,0,0,0,,,,,,,,,1,,71,0
122190,note_on,0,0,0,,,,,,,,,1,,56,0
122190,note_on,0,0,0,,,,,,,,,4,,56,0
122190,note_on,0,0,0,,,,,,,,,1,,57,100
122190,note_on,0,0,0,,,,,,,,,1,,73,100
122190,note_on,0,0,0,,,,,,,,,4,,57,100
122190,note_on,0,0,0,,,,,,,,,4,,73,100
122220,note_on,30,0,0,,,,,,,,,4,,73,0
122220,note_on,0,0,0,,,,,,,,,1,,73,0
122220,note_on,0,0,0,,,,,,,,,1,,57,0
122220,note_on,0,0,0,,,,,,,,,4,,57,0
122220,note_on,0,0,0,,,,,,,,,1,,59,100
122220,note_on,0,0,0,,,,,,,,,1,,74,100
122220,note_on,0,0,0,,,,,,,,,4,,59,100
122220,note_on,0,0,0,,,,,,,,,4,,74,100
122250,note_on,30,0,0,,,,,,,,,4,,74,0
122250,note_on,0,0,0,,,,,,,,,1,,74,0
122250,note_on,0,0,0,,,,,,,,,1,,59,0
122250,note_on,0,0,0,,,,,,,,,4,,59,0
122280,note_on,30,0,0,,,,,,,,,1,,57,100
122280,note_on,0,0,0,,,,,,,,,1,,73,100
122280,note_on,0,0,0,,,,,,,,,4,,57,100
122280,note_on,0,0,0,,,,,,,,,4,,73,100
122310,note_on,30,0,0,,,,,,,,,4,,73,0
122310,note_on,0,0,0,,,,,,,,,1,,73,0
122310,note_on,0,0,0,,,,,,,,,1,,57,0
122310,note_on,0,0,0,,,,,,,,,4,,57,0
122310,note_on,0,0,0,,,,,,,,,1,,59,100
122310,note_on,0,0,0,,,,,,,,,1,,74,100
122310,note_on,0,0,0,,,,,,,,,4,,59,100
122310,note_on,0,0,0,,,,,,,,,4,,74,100
122340,note_on,30,0,0,,,,,,,,,4,,74,0
122340,note_on,0,0,0,,,,,,,,,1,,74,0
122340,note_on,0,0,0,,,,,,,,,1,,59,0
122340,note_on,0,0,0,,,,,,,,,4,,59,0
122340,note_on,0,0,0,,,,,,,,,1,,61,100
122340,note_on,0,0,0,,,,,,,,,1,,76,100
122340,note_on,0,0,0,,,,,,,,,4,,61,100
122340,note_on,0,0,0,,,,,,,,,4,,76,100
122370,note_on,30,0,0,,,,,,,,,4,,76,0
122370,note_on,0,0,0,,,,,,,,,1,,76,0
122370,note_on,0,0,0,,,,,,,,,1,,61,0
122370,note_on,0,0,0,,,,,,,,,4,,61,0
122400,note_on,30,0,0,,,,,,,,,1,,59,100
122400,note_on,0,0,0,,,,,,,,,1,,74,100
122400,note_on,0,0,0,,,,,,,,,4,,59,100
122400,note_on,0,0,0,,,,,,,,,4,,74,100
122430,note_on,30,0,0,,,,,,,,,4,,74,0
122430,note_on,0,0,0,,,,,,,,,1,,74,0
122430,note_on,0,0,0,,,,,,,,,1,,59,0
122430,note_on,0,0,0,,,,,,,,,4,,59,0
122430,note_on,0,0,0,,,,,,,,,1,,61,100
122430,note_on,0,0,0,,,,,,,,,1,,76,100
122430,note_on,0,0,0,,,,,,,,,4,,61,100
122430,note_on,0,0,0,,,,,,,,,4,,76,100
122460,note_on,30,0,0,,,,,,,,,4,,76,0
122460,note_on,0,0,0,,,,,,,,,1,,76,0
122460,note_on,0,0,0,,,,,,,,,1,,61,0
122460,note_on,0,0,0,,,,,,,,,4,,61,0
122460,note_on,0,0,0,,,,,,,,,1,,62,100
122460,note_on,0,0,0,,,,,,,,,1,,78,100
122460,note_on,0,0,0,,,,,,,,,4,,62,100
122460,note_on,0,0,0,,,,,,,,,4,,78,100
122490,note_on,30,0,0,,,,,,,,,4,,78,0
122490,note_on,0,0,0,,,,,,,,,1,,78,0
122490,note_on,0,0,0,,,,,,,,,1,,62,0
122490,note_on,0,0,0,,,,,,,,,4,,62,0
122520,note_on,30,0,0,,,,,,,,,1,,62,100
122520,note_on,0,0,0,,,,,,,,,1,,78,100
122520,note_on,0,0,0,,,,,,,,,4,,62,100
122520,note_on,0,0,0,,,,,,,,,4,,78,100
122530,note_on,10,0,0,,,,,,,,,4,,78,0
122530,note_on,0,0,0,,,,,,,,,1,,78,0
122530,note_on,0,0,0,,,,,,,,,1,,62,0
122530,note_on,0,0,0,,,,,,,,,4,,62,0
122530,note_on,0,0,0,,,,,,,,,1,,61,100
122530,note_on,0,0,0,,,,,,,,,1,,76,100
122530,note_on,0,0,0,,,,,,,,,4,,61,100
122530,note_on,0,0,0,,,,,,,,,4,,76,100
122540,note_on,10,0,0,,,,,,,,,4,,76,0
122540,note_on,0,0,0,,,,,,,,,1,,76,0
122540,note_on,0,0,0,,,,,,,,,1,,61,0
122540,note_on,0,0,0,,,,,,,,,4,,61,0
122540,note_on,0,0,0,,,,,,,,,1,,62,100
122540,note_on,0,0,0,,,,,,,,,1,,78,100
122540,note_on,0,0,0,,,,,,,,,4,,62,100
122540,note_on,0,0,0,,,,,,,,,4,,78,100
122550,note_on,10,0,0,,,,,,,,,4,,78,0
122550,note_on,0,0,0,,,,,,,,,1,,78,0
122550,note_on,0,0,0,,,,,,,,,1,,62,0
122550,note_on,0,0,0,,,,,,,,,4,,62,0
122550,note_on,0,0,0,,,,,,,,,1,,61,100
122550,note_on,0,0,0,,,,,,,,,1,,76,100
122550,note_on,0,0,0,,,,,,,,,4,,61,100
122550,note_on,0,0,0,,,,,,,,,4,,76,100
122560,note_on,10,0,0,,,,,,,,,4,,76,0
122560,note_on,0,0,0,,,,,,,,,1,,76,0
122560,note_on,0,0,0,,,,,,,,,1,,61,0
122560,note_on,0,0,0,,,,,,,,,4,,61,0
122560,note_on,0,0,0,,,,,,,,,1,,62,100
122560,note_on,0,0,0,,,,,,,,,1,,78,100
122560,note_on,0,0,0,,,,,,,,,4,,62,100
122560,note_on,0,0,0,,,,,,,,,4,,78,100
122570,note_on,10,0,0,,,,,,,,,4,,78,0
122570,note_on,0,0,0,,,,,,,,,1,,78,0
122570,note_on,0,0,0,,,,,,,,,1,,62,0
122570,note_on,0,0,0,,,,,,,,,4,,62,0
122570,note_on,0,0,0,,,,,,,,,1,,61,100
122570,note_on,0,0,0,,,,,,,,,1,,76,100
122570,note_on,0,0,0,,,,,,,,,4,,61,100
122570,note_on,0,0,0,,,,,,,,,4,,76,100
122610,note_on,40,0,0,,,,,,,,,4,,76,0
122610,note_on,0,0,0,,,,,,,,,1,,76,0
122610,note_on,0,0,0,,,,,,,,,1,,61,0
122610,note_on,0,0,0,,,,,,,,,4,,61,0
122700,note_on,90,0,0,,,,,,,,,1,,81,100
122700,note_on,0,0,0,,,,,,,,,4,,81,100
122730,note_on,30,0,0,,,,,,,,,4,,81,0
122730,note_on,0,0,0,,,,,,,,,1,,81,0
122748,control_change,18,0,0,,,,,,,11,74,10,,,
122753,control_change,5,0,0,,,,,,,11,76,8,,,
122760,note_on,7,0,0,,,,,,,,,1,,78,100
122760,note_on,0,0,0,,,,,,,,,4,,78,100
122760,note_on,0,0,0,,,,,,,,,8,,50,100
122760,note_on,0,0,0,,,,,,,,,10,,38,100
122820,note_on,60,0,0,,,,,,,,,4,,78,0
122820,note_on,0,0,0,,,,,,,,,1,,78,0
122820,note_on,0,0,0,,,,,,,,,1,,74,100
122820,note_on,0,0,0,,,,,,,,,4,,74,100
122850,note_on,30,0,0,,,,,,,,,4,,74,0
122850,note_on,0,0,0,,,,,,,,,1,,74,0
122880,note_on,30,0,0,,,,,,,,,1,,76,100
122880,note_on,0,0,0,,,,,,,,,4,,76,100
122940,note_on,60,0,0,,,,,,,,,4,,76,0
122940,note_on,0,0,0,,,,,,,,,1,,76,0
122940,note_on,0,0,0,,,,,,,,,1,,69,100
122940,note_on,0,0,0,,,,,,,,,1,,73,100
122940,note_on,0,0,0,,,,,,,,,4,,69,100
122940,note_on,0,0,0,,,,,,,,,4,,73,100
122970,note_on,30,0,0,,,,,,,,,4,,73,0
122970,note_on,0,0,0,,,,,,,,,4,,69,0
122970,note_on,0,0,0,,,,,,,,,1,,69,0
122970,note_on,0,0,0,,,,,,,,,1,,73,0
123000,note_on,30,0,0,,,,,,,,,1,,66,100
123000,note_on,0,0,0,,,,,,,,,1,,74,100
123000,note_on,0,0,0,,,,,,,,,4,,66,100
123000,note_on,0,0,0,,,,,,,,,4,,74,100
123060,note_on,60,0,0,,,,,,,,,4,,74,0
123060,note_on,0,0,0,,,,,,,,,4,,66,0
123060,note_on,0,0,0,,,,,,,,,1,,66,0
123060,note_on,0,0,0,,,,,,,,,1,,74,0
123060,note_on,0,0,0,,,,,,,,,1,,62,100
123060,note_on,0,0,0,,,,,,,,,1,,78,100
123060,note_on,0,0,0,,,,,,,,,4,,62,100
123060,note_on,0,0,0,,,,,,,,,4,,78,100
123090,note_on,30,0,0,,,,,,,,,4,,78,0
123090,note_on,0,0,0,,,,,,,,,4,,62,0
123090,note_on,0,0,0,,,,,,,,,1,,62,0
123090,note_on,0,0,0,,,,,,,,,1,,78,0
123120,note_on,30,0,0,,,,,,,,,1,,64,100
123120,note_on,0,0,0,,,,,,,,,1,,79,100
123120,note_on,0,0,0,,,,,,,,,4,,64,100
123120,note_on,0,0,0,,,,,,,,,4,,79,100
123180,note_on,60,0,0,,,,,,,,,4,,79,0
123180,note_on,0,0,0,,,,,,,,,4,,64,0
123180,note_on,0,0,0,,,,,,,,,1,,64,0
123180,note_on,0,0,0,,,,,,,,,1,,79,0
123180,note_on,0,0,0,,,,,,,,,1,,61,100
123180,note_on,0,0,0,,,,,,,,,1,,76,100
123180,note_on,0,0,0,,,,,,,,,4,,61,100
123180,note_on,0,0,0,,,,,,,,,4,,76,100
123210,note_on,30,0,0,,,,,,,,,4,,76,0
123210,note_on,0,0,0,,,,,,,,,4,,61,0
123210,note_on,0,0,0,,,,,,,,,1,,61,0
123210,note_on,0,0,0,,,,,,,,,1,,76,0
123240,note_on,30,0,0,,,,,,,,,1,,62,100
123240,note_on,0,0,0,,,,,,,,,1,,78,100
123240,note_on,0,0,0,,,,,,,,,4,,62,100
123240,note_on,0,0,0,,,,,,,,,4,,78,100
123300,note_on,60,0,0,,,,,,,,,4,,78,0
123300,note_on,0,0,0,,,,,,,,,4,,62,0
123300,note_on,0,0,0,,,,,,,,,1,,62,0
123300,note_on,0,0,0,,,,,,,,,1,,78,0
123300,note_on,0,0,0,,,,,,,,,1,,66,100
123300,note_on,0,0,0,,,,,,,,,1,,74,100
123300,note_on,0,0,0,,,,,,,,,4,,66,100
123300,note_on,0,0,0,,,,,,,,,4,,74,100
123330,note_on,30,0,0,,,,,,,,,4,,74,0
123330,note_on,0,0,0,,,,,,,,,4,,66,0
123330,note_on,0,0,0,,,,,,,,,1,,66,0
123330,note_on,0,0,0,,,,,,,,,1,,74,0
123360,note_on,30,0,0,,,,,,,,,1,,67,100
123360,note_on,0,0,0,,,,,,,,,1,,76,100
123360,note_on,0,0,0,,,,,,,,,4,,67,100
123360,note_on,0,0,0,,,,,,,,,4,,76,100
123420,note_on,60,0,0,,,,,,,,,4,,76,0
123420,note_on,0,0,0,,,,,,,,,4,,67,0
123420,note_on,0,0,0,,,,,,,,,1,,67,0
123420,note_on,0,0,0,,,,,,,,,1,,76,0
123420,note_on,0,0,0,,,,,,,,,1,,64,100
123420,note_on,0,0,0,,,,,,,,,1,,73,100
123420,note_on,0,0,0,,,,,,,,,4,,64,100
123420,note_on,0,0,0,,,,,,,,,4,,73,100
123450,note_on,30,0,0,,,,,,,,,4,,73,0
123450,note_on,0,0,0,,,,,,,,,4,,64,0
123450,note_on,0,0,0,,,,,,,,,1,,64,0
123450,note_on,0,0,0,,,,,,,,,1,,73,0
123480,note_on,30,0,0,,,,,,,,,1,,66,100
123480,note_on,0,0,0,,,,,,,,,1,,74,100
123480,note_on,0,0,0,,,,,,,,,4,,66,100
123480,note_on,0,0,0,,,,,,,,,4,,74,100
123510,note_on,30,0,0,,,,,,,,,4,,74,0
123510,note_on,0,0,0,,,,,,,,,1,,74,0
123510,note_on,0,0,0,,,,,,,,,1,,76,100
123510,note_on,0,0,0,,,,,,,,,4,,76,100
123540,note_on,30,0,0,,,,,,,,,4,,76,0
123540,note_on,0,0,0,,,,,,,,,1,,76,0
123540,note_on,0,0,0,,,,,,,,,4,,66,0
123540,note_on,0,0,0,,,,,,,,,1,,66,0
123540,note_on,0,0,0,,,,,,,,,1,,69,100
123540,note_on,0,0,0,,,,,,,,,1,,78,100
123540,note_on,0,0,0,,,,,,,,,4,,69,100
123540,note_on,0,0,0,,,,,,,,,4,,78,100
123570,note_on,30,0,0,,,,,,,,,4,,78,0
123570,note_on,0,0,0,,,,,,,,,4,,69,0
123570,note_on,0,0,0,,,,,,,,,1,,69,0
123570,note_on,0,0,0,,,,,,,,,1,,78,0
123600,note_on,30,0,0,,,,,,,,,1,,61,100
123600,note_on,0,0,0,,,,,,,,,1,,76,100
123600,note_on,0,0,0,,,,,,,,,4,,61,100
123600,note_on,0,0,0,,,,,,,,,4,,76,100
123630,note_on,30,0,0,,,,,,,,,4,,76,0
123630,note_on,0,0,0,,,,,,,,,1,,76,0
123630,note_on,0,0,0,,,,,,,,,1,,78,100
123630,note_on,0,0,0,,,,,,,,,4,,78,100
123660,note_on,30,0,0,,,,,,,,,4,,78,0
123660,note_on,0,0,0,,,,,,,,,1,,78,0
123660,note_on,0,0,0,,,,,,,,,4,,61,0
123660,note_on,0,0,0,,,,,,,,,1,,61,0
123660,note_on,0,0,0,,,,,,,,,1,,64,100
123660,note_on,0,0,0,,,,,,,,,1,,79,100
123660,note_on,0,0,0,,,,,,,,,4,,64,100
123660,note_on,0,0,0,,,,,,,,,4,,79,100
123690,note_on,30,0,0,,,,,,,,,4,,79,0
123690,note_on,0,0,0,,,,,,,,,4,,64,0
123690,note_on,0,0,0,,,,,,,,,1,,64,0
123690,note_on,0,0,0,,,,,,,,,1,,79,0
123720,note_on,30,0,0,,,,,,,,,1,,62,100
123720,note_on,0,0,0,,,,,,,,,1,,78,100
123720,note_on,0,0,0,,,,,,,,,4,,62,100
123720,note_on,0,0,0,,,,,,,,,4,,78,100
123750,note_on,30,0,0,,,,,,,,,4,,78,0
123750,note_on,0,0,0,,,,,,,,,4,,62,0
123750,note_on,0,0,0,,,,,,,,,1,,62,0
123750,note_on,0,0,0,,,,,,,,,1,,78,0
123750,note_on,0,0,0,,,,,,,,,1,,64,100
123750,note_on,0,0,0,,,,,,,,,1,,79,100
123750,note_on,0,0,0,,,,,,,,,4,,64,100
123750,note_on,0,0,0,,,,,,,,,4,,79,100
123780,note_on,30,0,0,,,,,,,,,4,,79,0
123780,note_on,0,0,0,,,,,,,,,4,,64,0
123780,note_on,0,0,0,,,,,,,,,1,,64,0
123780,note_on,0,0,0,,,,,,,,,1,,79,0
123780,note_on,0,0,0,,,,,,,,,1,,66,100
123780,note_on,0,0,0,,,,,,,,,1,,81,100
123780,note_on,0,0,0,,,,,,,,,4,,66,100
123780,note_on,0,0,0,,,,,,,,,4,,81,100
123810,note_on,30,0,0,,,,,,,,,4,,81,0
123810,note_on,0,0,0,,,,,,,,,4,,66,0
123810,note_on,0,0,0,,,,,,,,,1,,66,0
123810,note_on,0,0,0,,,,,,,,,1,,81,0
123840,note_on,30,0,0,,,,,,,,,1,,64,100
123840,note_on,0,0,0,,,,,,,,,1,,73,100
123840,note_on,0,0,0,,,,,,,,,4,,64,100
123840,note_on,0,0,0,,,,,,,,,4,,73,100
123870,note_on,30,0,0,,,,,,,,,4,,73,0
123870,note_on,0,0,0,,,,,,,,,4,,64,0
123870,note_on,0,0,0,,,,,,,,,1,,64,0
123870,note_on,0,0,0,,,,,,,,,1,,73,0
123870,note_on,0,0,0,,,,,,,,,1,,66,100
123870,note_on,0,0,0,,,,,,,,,1,,74,100
123870,note_on,0,0,0,,,,,,,,,4,,66,100
123870,note_on,0,0,0,,,,,,,,,4,,74,100
123900,note_on,30,0,0,,,,,,,,,4,,74,0
123900,note_on,0,0,0,,,,,,,,,4,,66,0
123900,note_on,0,0,0,,,,,,,,,1,,66,0
123900,note_on,0,0,0,,,,,,,,,1,,74,0
123900,note_on,0,0,0,,,,,,,,,1,,67,100
123900,note_on,0,0,0,,,,,,,,,1,,76,100
123900,note_on,0,0,0,,,,,,,,,4,,67,100
123900,note_on,0,0,0,,,,,,,,,4,,76,100
123930,note_on,30,0,0,,,,,,,,,4,,76,0
123930,note_on,0,0,0,,,,,,,,,4,,67,0
123930,note_on,0,0,0,,,,,,,,,1,,67,0
123930,note_on,0,0,0,,,,,,,,,1,,76,0
123960,note_on,30,0,0,,,,,,,,,1,,66,100
123960,note_on,0,0,0,,,,,,,,,1,,74,100
123960,note_on,0,0,0,,,,,,,,,4,,66,100
123960,note_on,0,0,0,,,,,,,,,4,,74,100
123990,note_on,30,0,0,,,,,,,,,4,,74,0
123990,note_on,0,0,0,,,,,,,,,4,,66,0
123990,note_on,0,0,0,,,,,,,,,1,,66,0
123990,note_on,0,0,0,,,,,,,,,1,,74,0
123990,note_on,0,0,0,,,,,,,,,1,,67,100
123990,note_on,0,0,0,,,,,,,,,1,,76,100
123990,note_on,0,0,0,,,,,,,,,4,,67,100
123990,note_on,0,0,0,,,,,,,,,4,,76,100
124020,note_on,30,0,0,,,,,,,,,4,,76,0
124020,note_on,0,0,0,,,,,,,,,4,,67,0
124020,note_on,0,0,0,,,,,,,,,1,,67,0
124020,note_on,0,0,0,,,,,,,,,1,,76,0
124020,note_on,0,0,0,,,,,,,,,1,,69,100
124020,note_on,0,0,0,,,,,,,,,1,,78,100
124020,note_on,0,0,0,,,,,,,,,4,,69,100
124020,note_on,0,0,0,,,,,,,,,4,,78,100
124050,note_on,30,0,0,,,,,,,,,4,,78,0
124050,note_on,0,0,0,,,,,,,,,4,,69,0
124050,note_on,0,0,0,,,,,,,,,1,,69,0
124050,note_on,0,0,0,,,,,,,,,1,,78,0
124080,note_on,30,0,0,,,,,,,,,1,,61,100
124080,note_on,0,0,0,,,,,,,,,1,,76,100
124080,note_on,0,0,0,,,,,,,,,4,,61,100
124080,note_on,0,0,0,,,,,,,,,4,,76,100
124110,note_on,30,0,0,,,,,,,,,4,,76,0
124110,note_on,0,0,0,,,,,,,,,4,,61,0
124110,note_on,0,0,0,,,,,,,,,1,,61,0
124110,note_on,0,0,0,,,,,,,,,1,,76,0
124110,note_on,0,0,0,,,,,,,,,1,,62,100
124110,note_on,0,0,0,,,,,,,,,1,,78,100
124110,note_on,0,0,0,,,,,,,,,4,,62,100
124110,note_on,0,0,0,,,,,,,,,4,,78,100
124140,note_on,30,0,0,,,,,,,,,4,,78,0
124140,note_on,0,0,0,,,,,,,,,4,,62,0
124140,note_on,0,0,0,,,,,,,,,1,,62,0
124140,note_on,0,0,0,,,,,,,,,1,,78,0
124140,note_on,0,0,0,,,,,,,,,1,,64,100
124140,note_on,0,0,0,,,,,,,,,1,,79,100
124140,note_on,0,0,0,,,,,,,,,4,,64,100
124140,note_on,0,0,0,,,,,,,,,4,,79,100
124170,note_on,30,0,0,,,,,,,,,4,,79,0
124170,note_on,0,0,0,,,,,,,,,4,,64,0
124170,note_on,0,0,0,,,,,,,,,1,,64,0
124170,note_on,0,0,0,,,,,,,,,1,,79,0
124200,note_on,30,0,0,,,,,,,,,1,,62,100
124200,note_on,0,0,0,,,,,,,,,1,,78,100
124200,note_on,0,0,0,,,,,,,,,4,,62,100
124200,note_on,0,0,0,,,,,,,,,4,,78,100
124230,note_on,30,0,0,,,,,,,,,4,,78,0
124230,note_on,0,0,0,,,,,,,,,4,,62,0
124230,note_on,0,0,0,,,,,,,,,1,,62,0
124230,note_on,0,0,0,,,,,,,,,1,,78,0
124230,note_on,0,0,0,,,,,,,,,1,,64,100
124230,note_on,0,0,0,,,,,,,,,1,,79,100
124230,note_on,0,0,0,,,,,,,,,4,,64,100
124230,note_on,0,0,0,,,,,,,,,4,,79,100
124260,note_on,30,0,0,,,,,,,,,4,,79,0
124260,note_on,0,0,0,,,,,,,,,4,,64,0
124260,note_on,0,0,0,,,,,,,,,1,,64,0
124260,note_on,0,0,0,,,,,,,,,1,,79,0
124260,note_on,0,0,0,,,,,,,,,1,,66,100
124260,note_on,0,0,0,,,,,,,,,1,,81,100
124260,note_on,0,0,0,,,,,,,,,4,,66,100
124260,note_on,0,0,0,,,,,,,,,4,,81,100
124290,note_on,30,0,0,,,,,,,,,4,,81,0
124290,note_on,0,0,0,,,,,,,,,4,,66,0
124290,note_on,0,0,0,,,,,,,,,1,,66,0
124290,note_on,0,0,0,,,,,,,,,1,,81,0
124320,note_on,30,0,0,,,,,,,,,1,,64,100
124320,note_on,0,0,0,,,,,,,,,1,,79,100
124320,note_on,0,0,0,,,,,,,,,4,,64,100
124320,note_on,0,0,0,,,,,,,,,4,,79,100
124350,note_on,30,0,0,,,,,,,,,4,,79,0
124350,note_on,0,0,0,,,,,,,,,4,,64,0
124350,note_on,0,0,0,,,,,,,,,1,,64,0
124350,note_on,0,0,0,,,,,,,,,1,,79,0
124350,note_on,0,0,0,,,,,,,,,1,,66,100
124350,note_on,0,0,0,,,,,,,,,1,,81,100
124350,note_on,0,0,0,,,,,,,,,4,,66,100
124350,note_on,0,0,0,,,,,,,,,4,,81,100
124380,note_on,30,0,0,,,,,,,,,4,,81,0
124380,note_on,0,0,0,,,,,,,,,4,,66,0
124380,note_on,0,0,0,,,,,,,,,1,,66,0
124380,note_on,0,0,0,,,,,,,,,1,,81,0
124380,note_on,0,0,0,,,,,,,,,1,,67,100
124380,note_on,0,0,0,,,,,,,,,1,,83,100
124380,note_on,0,0,0,,,,,,,,,4,,67,100
124380,note_on,0,0,0,,,,,,,,,4,,83,100
124410,note_on,30,0,0,,,,,,,,,4,,83,0
124410,note_on,0,0,0,,,,,,,,,4,,67,0
124410,note_on,0,0,0,,,,,,,,,1,,67,0
124410,note_on,0,0,0,,,,,,,,,1,,83,0
124440,note_on,30,0,0,,,,,,,,,1,,67,100
124440,note_on,0,0,0,,,,,,,,,1,,83,100
124440,note_on,0,0,0,,,,,,,,,4,,67,100
124440,note_on,0,0,0,,,,,,,,,4,,83,100
124455,note_on,15,0,0,,,,,,,,,4,,83,0
124455,note_on,0,0,0,,,,,,,,,4,,67,0
124455,note_on,0,0,0,,,,,,,,,1,,67,0
124455,note_on,0,0,0,,,,,,,,,1,,83,0
124455,note_on,0,0,0,,,,,,,,,1,,66,100
124455,note_on,0,0,0,,,,,,,,,1,,81,100
124455,note_on,0,0,0,,,,,,,,,4,,66,100
124455,note_on,0,0,0,,,,,,,,,4,,81,100
124470,note_on,15,0,0,,,,,,,,,4,,81,0
124470,note_on,0,0,0,,,,,,,,,4,,66,0
124470,note_on,0,0,0,,,,,,,,,1,,66,0
124470,note_on,0,0,0,,,,,,,,,6,,57,0
124470,note_on,0,0,0,,,,,,,,,1,,81,0
124470,note_on,0,0,0,,,,,,,,,1,,67,100
124470,note_on,0,0,0,,,,,,,,,1,,83,100
124470,note_on,0,0,0,,,,,,,,,4,,67,100
124470,note_on,0,0,0,,,,,,,,,4,,83,100
124485,note_on,15,0,0,,,,,,,,,4,,83,0
124485,note_on,0,0,0,,,,,,,,,1,,83,0
124485,note_on,0,0,0,,,,,,,,,1,,67,0
124485,note_on,0,0,0,,,,,,,,,4,,67,0
124485,note_on,0,0,0,,,,,,,,,1,,66,100
124485,note_on,0,0,0,,,,,,,,,1,,81,100
124485,note_on,0,0,0,,,,,,,,,4,,66,100
124485,note_on,0,0,0,,,,,,,,,4,,81,100
124498,control_change,13,0,0,,,,,,,11,125,5,,,
124500,note_on,2,0,0,,,,,,,,,4,,81,0
124500,note_on,0,0,0,,,,,,,,,1,,81,0
124500,note_on,0,0,0,,,,,,,,,1,,66,0
124500,note_on,0,0,0,,,,,,,,,4,,66,0
124500,note_on,0,0,0,,,,,,,,,1,,67,100
124500,note_on,0,0,0,,,,,,,,,1,,83,100
124500,note_on,0,0,0,,,,,,,,,4,,67,100
124500,note_on,0,0,0,,,,,,,,,4,,83,100
124500,note_on,0,0,0,,,,,,,,,5,,69,100
124500,note_on,0,0,0,,,,,,,,,13,,69,100
124515,note_on,15,0,0,,,,,,,,,4,,83,0
124515,note_on,0,0,0,,,,,,,,,1,,67,0
124515,note_on,0,0,0,,,,,,,,,4,,67,0
124515,note_on,0,0,0,,,,,,,,,1,,83,0
124515,note_on,0,0,0,,,,,,,,,1,,66,100
124515,note_on,0,0,0,,,,,,,,,1,,81,100
124515,note_on,0,0,0,,,,,,,,,4,,66,100
124515,note_on,0,0,0,,,,,,,,,4,,81,100
124530,note_on,15,0,0,,,,,,,,,4,,81,0
124530,note_on,0,0,0,,,,,,,,,13,,69,0
124530,note_on,0,0,0,,,,,,,,,4,,66,0
124530,note_on,0,0,0,,,,,,,,,5,,69,0
124530,note_on,0,0,0,,,,,,,,,1,,81,0
124530,note_on,0,0,0,,,,,,,,,1,,66,0
124530,note_on,0,0,0,,,,,,,,,1,,67,100
124530,note_on,0,0,0,,,,,,,,,1,,83,100
124530,note_on,0,0,0,,,,,,,,,4,,67,100
124530,note_on,0,0,0,,,,,,,,,4,,83,100
124545,note_on,15,0,0,,,,,,,,,4,,83,0
124545,note_on,0,0,0,,,,,,,,,1,,83,0
124545,note_on,0,0,0,,,,,,,,,1,,67,0
124545,note_on,0,0,0,,,,,,,,,4,,67,0
124545,note_on,0,0,0,,,,,,,,,1,,66,100
124545,note_on,0,0,0,,,,,,,,,1,,81,100
124545,note_on,0,0,0,,,,,,,,,4,,66,100
124545,note_on,0,0,0,,,,,,,,,4,,81,100
124560,note_on,15,0,0,,,,,,,,,5,,74,100
124560,note_on,0,0,0,,,,,,,,,13,,74,100
124590,note_on,30,0,0,,,,,,,,,13,,74,0
124590,note_on,0,0,0,,,,,,,,,1,,66,0
124590,note_on,0,0,0,,,,,,,,,5,,74,0
124590,note_on,0,0,0,,,,,,,,,1,,81,0
124590,note_on,0,0,0,,,,,,,,,4,,81,0
124590,note_on,0,0,0,,,,,,,,,7,,57,0
124590,note_on,0,0,0,,,,,,,,,4,,66,0
124605,note_on,15,0,0,,,,,,,,,8,,50,0
124605,note_on,0,0,0,,,,,,,,,10,,38,0
124616,control_change,11,0,0,,,,,,,11,125,7,,,
124618,control_change,2,0,0,,,,,,,11,126,7,,,
124618,control_change,0,0,0,,,,,,,11,125,8,,,
124620,note_on,2,0,0,,,,,,,,,0,,62,100
124620,note_on,0,0,0,,,,,,,,,0,,78,100
124620,note_on,0,0,0,,,,,,,,,3,,62,100
124620,note_on,0,0,0,,,,,,,,,3,,78,100
124620,note_on,0,0,0,,,,,,,,,5,,78,100
124620,note_on,0,0,0,,,,,,,,,6,,69,100
124620,note_on,0,0,0,,,,,,,,,7,,69,100
124620,note_on,0,0,0,,,,,,,,,8,,62,100
124620,note_on,0,0,0,,,,,,,,,10,,50,100
124620,note_on,0,0,0,,,,,,,,,13,,78,100
124620,note_on,0,0,0,,,,,,,,,14,,62,100
124620,note_on,0,0,0,,,,,,,,,15,,62,100
124622,control_change,2,0,0,,,,,,,11,127,7,,,
124650,note_on,28,0,0,,,,,,,,,15,,62,0
124650,note_on,0,0,0,,,,,,,,,0,,78,0
124650,note_on,0,0,0,,,,,,,,,8,,62,0
124650,note_on,0,0,0,,,,,,,,,3,,62,0
124650,note_on,0,0,0,,,,,,,,,3,,78,0
124650,note_on,0,0,0,,,,,,,,,0,,62,0
124650,note_on,0,0,0,,,,,,,,,5,,78,0
124650,note_on,0,0,0,,,,,,,,,6,,69,0
124650,note_on,0,0,0,,,,,,,,,10,,50,0
124650,note_on,0,0,0,,,,,,,,,7,,69,0
124650,note_on,0,0,0,,,,,,,,,14,,62,0
124650,note_on,0,0,0,,,,,,,,,13,,78,0
124680,note_on,30,0,0,,,,,,,,,0,,61,100
124680,note_on,0,0,0,,,,,,,,,0,,76,100
124680,note_on,0,0,0,,,,,,,,,3,,61,100
124680,note_on,0,0,0,,,,,,,,,3,,76,100
124680,note_on,0,0,0,,,,,,,,,5,,76,100
124680,note_on,0,0,0,,,,,,,,,6,,69,100
124680,note_on,0,0,0,,,,,,,,,7,,69,100
124680,note_on,0,0,0,,,,,,,,,8,,61,100
124680,note_on,0,0,0,,,,,,,,,10,,49,100
124680,note_on,0,0,0,,,,,,,,,13,,76,100
124680,note_on,0,0,0,,,,,,,,,14,,61,100
124680,note_on,0,0,0,,,,,,,,,15,,61,100
124710,note_on,30,0,0,,,,,,,,,13,,76,0
124710,note_on,0,0,0,,,,,,,,,7,,69,0
124710,note_on,0,0,0,,,,,,,,,3,,76,0
124710,note_on,0,0,0,,,,,,,,,0,,76,0
124710,note_on,0,0,0,,,,,,,,,6,,69,0
124710,note_on,0,0,0,,,,,,,,,5,,76,0
124740,note_on,30,0,0,,,,,,,,,0,,61,0
124740,note_on,0,0,0,,,,,,,,,3,,61,0
124740,note_on,0,0,0,,,,,,,,,0,,81,100
124740,note_on,0,0,0,,,,,,,,,3,,81,100
124740,note_on,0,0,0,,,,,,,,,5,,81,100
124740,note_on,0,0,0,,,,,,,,,6,,64,100
124740,note_on,0,0,0,,,,,,,,,7,,64,100
124740,note_on,0,0,0,,,,,,,,,13,,81,100
124770,note_on,30,0,0,,,,,,,,,13,,81,0
124770,note_on,0,0,0,,,,,,,,,10,,49,0
124770,note_on,0,0,0,,,,,,,,,14,,61,0
124770,note_on,0,0,0,,,,,,,,,15,,61,0
124770,note_on,0,0,0,,,,,,,,,0,,81,0
124770,note_on,0,0,0,,,,,,,,,8,,61,0
124770,note_on,0,0,0,,,,,,,,,6,,64,0
124770,note_on,0,0,0,,,,,,,,,5,,81,0
124770,note_on,0,0,0,,,,,,,,,3,,81,0
124770,note_on,0,0,0,,,,,,,,,7,,64,0
124800,note_on,30,0,0,,,,,,,,,0,,59,100
124800,note_on,0,0,0,,,,,,,,,0,,74,100
124800,note_on,0,0,0,,,,,,,,,3,,59,100
124800,note_on,0,0,0,,,,,,,,,3,,74,100
124800,note_on,0,0,0,,,,,,,,,5,,74,100
124800,note_on,0,0,0,,,,,,,,,6,,66,100
124800,note_on,0,0,0,,,,,,,,,7,,66,100
124800,note_on,0,0,0,,,,,,,,,8,,59,100
124800,note_on,0,0,0,,,,,,,,,10,,47,100
124800,note_on,0,0,0,,,,,,,,,13,,74,100
124800,note_on,0,0,0,,,,,,,,,14,,59,100
124800,note_on,0,0,0,,,,,,,,,15,,59,100
124830,note_on,30,0,0,,,,,,,,,13,,74,0
124830,note_on,0,0,0,,,,,,,,,7,,66,0
124830,note_on,0,0,0,,,,,,,,,3,,74,0
124830,note_on,0,0,0,,,,,,,,,0,,74,0
124830,note_on,0,0,0,,,,,,,,,6,,66,0
124830,note_on,0,0,0,,,,,,,,,5,,74,0
124860,note_on,30,0,0,,,,,,,,,0,,59,0
124860,note_on,0,0,0,,,,,,,,,3,,59,0
124860,note_on,0,0,0,,,,,,,,,0,,83,100
124860,note_on,0,0,0,,,,,,,,,3,,83,100
124860,note_on,0,0,0,,,,,,,,,5,,83,100
124860,note_on,0,0,0,,,,,,,,,6,,68,100
124860,note_on,0,0,0,,,,,,,,,7,,68,100
124860,note_on,0,0,0,,,,,,,,,13,,83,100
124890,note_on,30,0,0,,,,,,,,,13,,83,0
124890,note_on,0,0,0,,,,,,,,,10,,47,0
124890,note_on,0,0,0,,,,,,,,,14,,59,0
124890,note_on,0,0,0,,,,,,,,,15,,59,0
124890,note_on,0,0,0,,,,,,,,,0,,83,0
124890,note_on,0,0,0,,,,,,,,,8,,59,0
124890,note_on,0,0,0,,,,,,,,,6,,68,0
124890,note_on,0,0,0,,,,,,,,,5,,83,0
124890,note_on,0,0,0,,,,,,,,,3,,83,0
124890,note_on,0,0,0,,,,,,,,,7,,68,0
124920,note_on,30,0,0,,,,,,,,,0,,57,100
124920,note_on,0,0,0,,,,,,,,,0,,73,100
124920,note_on,0,0,0,,,,,,,,,3,,57,100
124920,note_on,0,0,0,,,,,,,,,3,,73,100
124920,note_on,0,0,0,,,,,,,,,5,,73,100
124920,note_on,0,0,0,,,,,,,,,6,,69,100
124920,note_on,0,0,0,,,,,,,,,7,,69,100
124920,note_on,0,0,0,,,,,,,,,8,,57,100
124920,note_on,0,0,0,,,,,,,,,10,,45,100
124920,note_on,0,0,0,,,,,,,,,13,,73,100
124920,note_on,0,0,0,,,,,,,,,14,,57,100
124920,note_on,0,0,0,,,,,,,,,15,,57,100
124950,note_on,30,0,0,,,,,,,,,13,,73,0
124950,note_on,0,0,0,,,,,,,,,5,,73,0
124950,note_on,0,0,0,,,,,,,,,3,,73,0
124950,note_on,0,0,0,,,,,,,,,0,,73,0
124950,note_on,0,0,0,,,,,,,,,0,,71,100
124950,note_on,0,0,0,,,,,,,,,3,,71,100
124950,note_on,0,0,0,,,,,,,,,5,,71,100
124950,note_on,0,0,0,,,,,,,,,13,,71,100
124980,note_on,30,0,0,,,,,,,,,13,,71,0
124980,note_on,0,0,0,,,,,,,,,3,,71,0
124980,note_on,0,0,0,,,,,,,,,0,,71,0
124980,note_on,0,0,0,,,,,,,,,0,,57,0
124980,note_on,0,0,0,,,,,,,,,5,,71,0
124980,note_on,0,0,0,,,,,,,,,3,,57,0
124980,note_on,0,0,0,,,,,,,,,0,,69,100
124980,note_on,0,0,0,,,,,,,,,3,,69,100
124980,note_on,0,0,0,,,,,,,,,5,,69,100
124980,note_on,0,0,0,,,,,,,,,13,,69,100
124995,note_on,15,0,0,,,,,,,,,6,,69,0
124995,note_on,0,0,0,,,,,,,,,7,,69,0
125010,note_on,15,0,0,,,,,,,,,8,,57,0
125010,note_on,0,0,0,,,,,,,,,10,,45,0
125010,note_on,0,0,0,,,,,,,,,0,,69,0
125010,note_on,0,0,0,,,,,,,,,15,,57,0
125010,note_on,0,0,0,,,,,,,,,5,,69,0
125010,note_on,0,0,0,,,,,,,,,3,,69,0
125010,note_on,0,0,0,,,,,,,,,14,,57,0
125010,note_on,0,0,0,,,,,,,,,13,,69,0
125040,note_on,30,0,0,,,,,,,,,0,,45,100
125040,note_on,0,0,0,,,,,,,,,3,,45,100
125040,note_on,0,0,0,,,,,,,,,6,,64,100
125040,note_on,0,0,0,,,,,,,,,7,,64,100
125040,note_on,0,0,0,,,,,,,,,8,,45,100
125040,note_on,0,0,0,,,,,,,,,10,,33,100
125040,note_on,0,0,0,,,,,,,,,14,,45,100
125040,note_on,0,0,0,,,,,,,,,15,,45,100
125100,note_on,60,0,0,,,,,,,,,3,,45,0
125100,note_on,0,0,0,,,,,,,,,0,,45,0
125100,note_on,0,0,0,,,,,,,,,0,,73,100
125100,note_on,0,0,0,,,,,,,,,3,,73,100
125100,note_on,0,0,0,,,,,,,,,5,,73,100
125100,note_on,0,0,0,,,,,,,,,13,,73,100
125115,note_on,15,0,0,,,,,,,,,7,,64,0
125115,note_on,0,0,0,,,,,,,,,6,,64,0
125130,note_on,15,0,0,,,,,,,,,14,,45,0
125130,note_on,0,0,0,,,,,,,,,15,,45,0
125130,note_on,0,0,0,,,,,,,,,0,,73,0
125130,note_on,0,0,0,,,,,,,,,10,,33,0
125130,note_on,0,0,0,,,,,,,,,5,,73,0
125130,note_on,0,0,0,,,,,,,,,3,,73,0
125130,note_on,0,0,0,,,,,,,,,8,,45,0
125130,note_on,0,0,0,,,,,,,,,13,,73,0
125160,note_on,30,0,0,,,,,,,,,0,,44,100
125160,note_on,0,0,0,,,,,,,,,0,,71,100
125160,note_on,0,0,0,,,,,,,,,3,,44,100
125160,note_on,0,0,0,,,,,,,,,3,,71,100
125160,note_on,0,0,0,,,,,,,,,5,,71,100
125160,note_on,0,0,0,,,,,,,,,6,,64,100
125160,note_on,0,0,0,,,,,,,,,7,,64,100
125160,note_on,0,0,0,,,,,,,,,8,,44,100
125160,note_on,0,0,0,,,,,,,,,10,,32,100
125160,note_on,0,0,0,,,,,,,,,13,,71,100
125160,note_on,0,0,0,,,,,,,,,14,,44,100
125160,note_on,0,0,0,,,,,,,,,15,,44,100
125190,note_on,30,0,0,,,,,,,,,13,,71,0
125190,note_on,0,0,0,,,,,,,,,7,,64,0
125190,note_on,0,0,0,,,,,,,,,3,,71,0
125190,note_on,0,0,0,,,,,,,,,0,,71,0
125190,note_on,0,0,0,,,,,,,,,6,,64,0
125190,note_on,0,0,0,,,,,,,,,5,,71,0
125220,note_on,30,0,0,,,,,,,,,0,,44,0
125220,note_on,0,0,0,,,,,,,,,3,,44,0
125220,note_on,0,0,0,,,,,,,,,0,,76,100
125220,note_on,0,0,0,,,,,,,,,3,,76,100
125220,note_on,0,0,0,,,,,,,,,5,,76,100
125220,note_on,0,0,0,,,,,,,,,6,,59,100
125220,note_on,0,0,0,,,,,,,,,7,,59,100
125220,note_on,0,0,0,,,,,,,,,13,,76,100
125250,note_on,30,0,0,,,,,,,,,13,,76,0
125250,note_on,0,0,0,,,,,,,,,10,,32,0
125250,note_on,0,0,0,,,,,,,,,14,,44,0
125250,note_on,0,0,0,,,,,,,,,15,,44,0
125250,note_on,0,0,0,,,,,,,,,0,,76,0
125250,note_on,0,0,0,,,,,,,,,8,,44,0
125250,note_on,0,0,0,,,,,,,,,6,,59,0
125250,note_on,0,0,0,,,,,,,,,5,,76,0
125250,note_on,0,0,0,,,,,,,,,3,,76,0
125250,note_on,0,0,0,,,,,,,,,7,,59,0
125280,note_on,30,0,0,,,,,,,,,0,,42,100
125280,note_on,0,0,0,,,,,,,,,0,,69,100
125280,note_on,0,0,0,,,,,,,,,3,,42,100
125280,note_on,0,0,0,,,,,,,,,3,,69,100
125280,note_on,0,0,0,,,,,,,,,5,,69,100
125280,note_on,0,0,0,,,,,,,,,6,,61,100
125280,note_on,0,0,0,,,,,,,,,7,,61,100
125280,note_on,0,0,0,,,,,,,,,8,,42,100
125280,note_on,0,0,0,,,,,,,,,10,,30,100
125280,note_on,0,0,0,,,,,,,,,13,,69,100
125280,note_on,0,0,0,,,,,,,,,14,,42,100
125280,note_on,0,0,0,,,,,,,,,15,,42,100
125310,note_on,30,0,0,,,,,,,,,13,,69,0
125310,note_on,0,0,0,,,,,,,,,7,,61,0
125310,note_on,0,0,0,,,,,,,,,3,,69,0
125310,note_on,0,0,0,,,,,,,,,0,,69,0
125310,note_on,0,0,0,,,,,,,,,6,,61,0
125310,note_on,0,0,0,,,,,,,,,5,,69,0
125340,note_on,30,0,0,,,,,,,,,0,,42,0
125340,note_on,0,0,0,,,,,,,,,3,,42,0
125340,note_on,0,0,0,,,,,,,,,0,,78,100
125340,note_on,0,0,0,,,,,,,,,3,,78,100
125340,note_on,0,0,0,,,,,,,,,5,,78,100
125340,note_on,0,0,0,,,,,,,,,6,,63,100
125340,note_on,0,0,0,,,,,,,,,7,,63,100
125340,note_on,0,0,0,,,,,,,,,13,,78,100
125370,note_on,30,0,0,,,,,,,,,13,,78,0
125370,note_on,0,0,0,,,,,,,,,10,,30,0
125370,note_on,0,0,0,,,,,,,,,14,,42,0
125370,note_on,0,0,0,,,,,,,,,15,,42,0
125370,note_on,0,0,0,,,,,,,,,0,,78,0
125370,note_on,0,0,0,,,,,,,,,8,,42,0
125370,note_on,0,0,0,,,,,,,,,6,,63,0
125370,note_on,0,0,0,,,,,,,,,5,,78,0
125370,note_on,0,0,0,,,,,,,,,3,,78,0
125370,note_on,0,0,0,,,,,,,,,7,,63,0
125400,note_on,30,0,0,,,,,,,,,0,,52,100
125400,note_on,0,0,0,,,,,,,,,0,,40,100
125400,note_on,0,0,0,,,,,,,,,0,,68,100
125400,note_on,0,0,0,,,,,,,,,3,,52,100
125400,note_on,0,0,0,,,,,,,,,3,,40,100
125400,note_on,0,0,0,,,,,,,,,3,,68,100
125400,note_on,0,0,0,,,,,,,,,5,,68,100
125400,note_on,0,0,0,,,,,,,,,6,,64,100
125400,note_on,0,0,0,,,,,,,,,7,,64,100
125400,note_on,0,0,0,,,,,,,,,8,,40,100
125400,note_on,0,0,0,,,,,,,,,10,,28,100
125400,note_on,0,0,0,,,,,,,,,13,,68,100
125400,note_on,0,0,0,,,,,,,,,14,,40,100
125400,note_on,0,0,0,,,,,,,,,15,,40,100
125430,note_on,30,0,0,,,,,,,,,13,,68,0
125430,note_on,0,0,0,,,,,,,,,5,,68,0
125430,note_on,0,0,0,,,,,,,,,3,,68,0
125430,note_on,0,0,0,,,,,,,,,0,,68,0
125430,note_on,0,0,0,,,,,,,,,0,,66,100
125430,note_on,0,0,0,,,,,,,,,3,,66,100
125430,note_on,0,0,0,,,,,,,,,5,,66,100
125430,note_on,0,0,0,,,,,,,,,13,,66,100
125460,note_on,30,0,0,,,,,,,,,13,,66,0
125460,note_on,0,0,0,,,,,,,,,3,,40,0
125460,note_on,0,0,0,,,,,,,,,0,,40,0
125460,note_on,0,0,0,,,,,,,,,0,,52,0
125460,note_on,0,0,0,,,,,,,,,3,,52,0
125460,note_on,0,0,0,,,,,,,,,5,,66,0
125460,note_on,0,0,0,,,,,,,,,0,,66,0
125460,note_on,0,0,0,,,,,,,,,3,,66,0
125460,note_on,0,0,0,,,,,,,,,0,,64,100
125460,note_on,0,0,0,,,,,,,,,3,,64,100
125460,note_on,0,0,0,,,,,,,,,5,,64,100
125460,note_on,0,0,0,,,,,,,,,13,,64,100
125490,note_on,30,0,0,,,,,,,,,13,,64,0
125490,note_on,0,0,0,,,,,,,,,15,,40,0
125490,note_on,0,0,0,,,,,,,,,14,,40,0
125490,note_on,0,0,0,,,,,,,,,10,,28,0
125490,note_on,0,0,0,,,,,,,,,6,,64,0
125490,note_on,0,0,0,,,,,,,,,8,,40,0
125490,note_on,0,0,0,,,,,,,,,3,,64,0
125490,note_on,0,0,0,,,,,,,,,0,,64,0
125490,note_on,0,0,0,,,,,,,,,7,,64,0
125490,note_on,0,0,0,,,,,,,,,5,,64,0
125600,note_on,110,0,0,,,,,,,,,1,,56,100
125600,note_on,0,0,0,,,,,,,,,1,,64,100
125600,note_on,0,0,0,,,,,,,,,1,,71,100
125600,note_on,0,0,0,,,,,,,,,4,,56,100
125600,note_on,0,0,0,,,,,,,,,4,,64,100
125600,note_on,0,0,0,,,,,,,,,4,,71,100
125630,note_on,30,0,0,,,,,,,,,4,,71,0
125630,note_on,0,0,0,,,,,,,,,1,,64,0
125630,note_on,0,0,0,,,,,,,,,1,,71,0
125630,note_on,0,0,0,,,,,,,,,1,,56,0
125630,note_on,0,0,0,,,,,,,,,4,,64,0
125630,note_on,0,0,0,,,,,,,,,4,,56,0
125640,note_on,10,0,0,,,,,,,,,1,,61,100
125640,note_on,0,0,0,,,,,,,,,1,,57,100
125640,note_on,0,0,0,,,,,,,,,1,,73,100
125640,note_on,0,0,0,,,,,,,,,4,,61,100
125640,note_on,0,0,0,,,,,,,,,4,,57,100
125640,note_on,0,0,0,,,,,,,,,4,,73,100
125670,note_on,30,0,0,,,,,,,,,4,,73,0
125670,note_on,0,0,0,,,,,,,,,1,,73,0
125680,note_on,10,0,0,,,,,,,,,1,,75,100
125680,note_on,0,0,0,,,,,,,,,4,,75,100
125710,note_on,30,0,0,,,,,,,,,4,,75,0
125710,note_on,0,0,0,,,,,,,,,1,,75,0
125720,note_on,10,0,0,,,,,,,,,1,,76,100
125720,note_on,0,0,0,,,,,,,,,4,,76,100
125740,note_on,20,0,0,,,,,,,,,4,,57,0
125740,note_on,0,0,0,,,,,,,,,4,,61,0
125740,note_on,0,0,0,,,,,,,,,1,,61,0
125740,note_on,0,0,0,,,,,,,,,1,,57,0
125750,note_on,10,0,0,,,,,,,,,4,,76,0
125750,note_on,0,0,0,,,,,,,,,1,,76,0
125760,note_on,10,0,0,,,,,,,,,1,,54,100
125760,note_on,0,0,0,,,,,,,,,1,,63,100
125760,note_on,0,0,0,,,,,,,,,1,,78,100
125760,note_on,0,0,0,,,,,,,,,4,,54,100
125760,note_on,0,0,0,,,,,,,,,4,,63,100
125760,note_on,0,0,0,,,,,,,,,4,,78,100
125790,note_on,30,0,0,,,,,,,,,4,,78,0
125790,note_on,0,0,0,,,,,,,,,1,,78,0
125800,note_on,10,0,0,,,,,,,,,1,,80,100
125800,note_on,0,0,0,,,,,,,,,4,,80,100
125830,note_on,30,0,0,,,,,,,,,4,,80,0
125830,note_on,0,0,0,,,,,,,,,1,,80,0
125840,note_on,10,0,0,,,,,,,,,1,,81,100
125840,note_on,0,0,0,,,,,,,,,4,,81,100
125860,note_on,20,0,0,,,,,,,,,4,,63,0
125860,note_on,0,0,0,,,,,,,,,4,,54,0
125860,note_on,0,0,0,,,,,,,,,1,,54,0
125860,note_on,0,0,0,,,,,,,,,1,,63,0
125870,note_on,10,0,0,,,,,,,,,4,,81,0
125870,note_on,0,0,0,,,,,,,,,1,,81,0
125880,note_on,10,0,0,,,,,,,,,1,,64,100
125880,note_on,0,0,0,,,,,,,,,1,,56,100
125880,note_on,0,0,0,,,,,,,,,1,,71,100
125880,note_on,0,0,0,,,,,,,,,4,,64,100
125880,note_on,0,0,0,,,,,,,,,4,,56,100
125880,note_on,0,0,0,,,,,,,,,4,,71,100
125910,note_on,30,0,0,,,,,,,,,4,,71,0
125910,note_on,0,0,0,,,,,,,,,1,,71,0
125920,note_on,10,0,0,,,,,,,,,1,,73,100
125920,note_on,0,0,0,,,,,,,,,4,,73,100
125950,note_on,30,0,0,,,,,,,,,4,,73,0
125950,note_on,0,0,0,,,,,,,,,1,,73,0
125960,note_on,10,0,0,,,,,,,,,1,,75,100
125960,note_on,0,0,0,,,,,,,,,4,,75,100
125980,note_on,20,0,0,,,,,,,,,4,,56,0
125980,note_on,0,0,0,,,,,,,,,4,,64,0
125980,note_on,0,0,0,,,,,,,,,1,,64,0
125980,note_on,0,0,0,,,,,,,,,1,,56,0
125990,note_on,10,0,0,,,,,,,,,4,,75,0
125990,note_on,0,0,0,,,,,,,,,1,,75,0
126000,note_on,10,0,0,,,,,,,,,1,,52,100
126000,note_on,0,0,0,,,,,,,,,1,,76,100
126000,note_on,0,0,0,,,,,,,,,1,,56,100
126000,note_on,0,0,0,,,,,,,,,4,,52,100
126000,note_on,0,0,0,,,,,,,,,4,,76,100
126000,note_on,0,0,0,,,,,,,,,4,,56,100
126030,note_on,30,0,0,,,,,,,,,4,,76,0
126030,note_on,0,0,0,,,,,,,,,1,,76,0
126040,note_on,10,0,0,,,,,,,,,1,,78,100
126040,note_on,0,0,0,,,,,,,,,4,,78,100
126070,note_on,30,0,0,,,,,,,,,4,,78,0
126070,note_on,0,0,0,,,,,,,,,1,,78,0
126080,note_on,10,0,0,,,,,,,,,1,,80,100
126080,note_on,0,0,0,,,,,,,,,4,,80,100
126100,note_on,20,0,0,,,,,,,,,1,,56,0
126100,note_on,0,0,0,,,,,,,,,4,,52,0
126100,note_on,0,0,0,,,,,,,,,1,,52,0
126100,note_on,0,0,0,,,,,,,,,4,,56,0
126110,note_on,10,0,0,,,,,,,,,4,,80,0
126110,note_on,0,0,0,,,,,,,,,1,,80,0
126120,note_on,10,0,0,,,,,,,,,1,,52,100
126120,note_on,0,0,0,,,,,,,,,1,,57,100
126120,note_on,0,0,0,,,,,,,,,1,,49,100
126120,note_on,0,0,0,,,,,,,,,1,,69,100
126120,note_on,0,0,0,,,,,,,,,4,,52,100
126120,note_on,0,0,0,,,,,,,,,4,,57,100
126120,note_on,0,0,0,,,,,,,,,4,,49,100
126120,note_on,0,0,0,,,,,,,,,4,,69,100
126150,note_on,30,0,0,,,,,,,,,4,,69,0
126150,note_on,0,0,0,,,,,,,,,1,,69,0
126160,note_on,10,0,0,,,,,,,,,1,,71,100
126160,note_on,0,0,0,,,,,,,,,4,,71,100
126190,note_on,30,0,0,,,,,,,,,4,,71,0
126190,note_on,0,0,0,,,,,,,,,1,,71,0
126200,note_on,10,0,0,,,,,,,,,1,,73,100
126200,note_on,0,0,0,,,,,,,,,4,,73,100
126220,note_on,20,0,0,,,,,,,,,4,,49,0
126220,note_on,0,0,0,,,,,,,,,4,,52,0
126220,note_on,0,0,0,,,,,,,,,1,,52,0
126220,note_on,0,0,0,,,,,,,,,1,,57,0
126220,note_on,0,0,0,,,,,,,,,1,,49,0
126220,note_on,0,0,0,,,,,,,,,4,,57,0
126230,note_on,10,0,0,,,,,,,,,4,,73,0
126230,note_on,0,0,0,,,,,,,,,1,,73,0
126240,note_on,10,0,0,,,,,,,,,1,,54,100
126240,note_on,0,0,0,,,,,,,,,1,,59,100
126240,note_on,0,0,0,,,,,,,,,1,,51,100
126240,note_on,0,0,0,,,,,,,,,1,,71,100
126240,note_on,0,0,0,,,,,,,,,4,,54,100
126240,note_on,0,0,0,,,,,,,,,4,,59,100
126240,note_on,0,0,0,,,,,,,,,4,,51,100
126240,note_on,0,0,0,,,,,,,,,4,,71,100
126270,note_on,30,0,0,,,,,,,,,4,,71,0
126270,note_on,0,0,0,,,,,,,,,1,,71,0
126280,note_on,10,0,0,,,,,,,,,1,,73,100
126280,note_on,0,0,0,,,,,,,,,4,,73,100
126310,note_on,30,0,0,,,,,,,,,4,,73,0
126310,note_on,0,0,0,,,,,,,,,1,,73,0
126320,note_on,10,0,0,,,,,,,,,1,,69,100
126320,note_on,0,0,0,,,,,,,,,4,,69,100
126340,note_on,20,0,0,,,,,,,,,4,,51,0
126340,note_on,0,0,0,,,,,,,,,4,,54,0
126340,note_on,0,0,0,,,,,,,,,1,,54,0
126340,note_on,0,0,0,,,,,,,,,1,,59,0
126340,note_on,0,0,0,,,,,,,,,1,,51,0
126340,note_on,0,0,0,,,,,,,,,4,,59,0
126350,note_on,10,0,0,,,,,,,,,4,,69,0
126350,note_on,0,0,0,,,,,,,,,1,,69,0
126360,note_on,10,0,0,,,,,,,,,1,,52,100
126360,note_on,0,0,0,,,,,,,,,1,,68,100
126360,note_on,0,0,0,,,,,,,,,4,,52,100
126360,note_on,0,0,0,,,,,,,,,4,,68,100
126390,note_on,30,0,0,,,,,,,,,4,,68,0
126390,note_on,0,0,0,,,,,,,,,1,,52,0
126390,note_on,0,0,0,,,,,,,,,1,,68,0
126390,note_on,0,0,0,,,,,,,,,4,,52,0
126400,note_on,10,0,0,,,,,,,,,1,,56,100
126400,note_on,0,0,0,,,,,,,,,4,,56,100
126430,note_on,30,0,0,,,,,,,,,4,,56,0
126430,note_on,0,0,0,,,,,,,,,1,,56,0
126440,note_on,10,0,0,,,,,,,,,1,,59,100
126440,note_on,0,0,0,,,,,,,,,4,,59,100
126470,note_on,30,0,0,,,,,,,,,4,,59,0
126470,note_on,0,0,0,,,,,,,,,1,,59,0
126480,note_on,10,0,0,,,,,,,,,1,,64,100
126480,note_on,0,0,0,,,,,,,,,4,,64,100
126510,note_on,30,0,0,,,,,,,,,4,,64,0
126510,note_on,0,0,0,,,,,,,,,1,,64,0
126520,note_on,10,0,0,,,,,,,,,1,,59,100
126520,note_on,0,0,0,,,,,,,,,4,,59,100
126550,note_on,30,0,0,,,,,,,,,4,,59,0
126550,note_on,0,0,0,,,,,,,,,1,,59,0
126560,note_on,10,0,0,,,,,,,,,1,,71,100
126560,note_on,0,0,0,,,,,,,,,1,,56,100
126560,note_on,0,0,0,,,,,,,,,4,,71,100
126560,note_on,0,0,0,,,,,,,,,4,,56,100
126590,note_on,30,0,0,,,,,,,,,4,,56,0
126590,note_on,0,0,0,,,,,,,,,1,,71,0
126590,note_on,0,0,0,,,,,,,,,1,,56,0
126590,note_on,0,0,0,,,,,,,,,4,,71,0
126600,note_on,10,0,0,,,,,,,,,1,,61,100
126600,note_on,0,0,0,,,,,,,,,1,,57,100
126600,note_on,0,0,0,,,,,,,,,1,,73,100
126600,note_on,0,0,0,,,,,,,,,4,,61,100
126600,note_on,0,0,0,,,,,,,,,4,,57,100
126600,note_on,0,0,0,,,,,,,,,4,,73,100
126630,note_on,30,0,0,,,,,,,,,4,,73,0
126630,note_on,0,0,0,,,,,,,,,1,,73,0
126640,note_on,10,0,0,,,,,,,,,1,,75,100
126640,note_on,0,0,0,,,,,,,,,4,,75,100
126670,note_on,30,0,0,,,,,,,,,4,,75,0
126670,note_on,0,0,0,,,,,,,,,1,,75,0
126680,note_on,10,0,0,,,,,,,,,1,,76,100
126680,note_on,0,0,0,,,,,,,,,4,,76,100
126690,note_on,10,0,0,,,,,,,,,4,,57,0
126690,note_on,0,0,0,,,,,,,,,4,,61,0
126690,note_on,0,0,0,,,,,,,,,1,,61,0
126690,note_on,0,0,0,,,,,,,,,1,,57,0
126710,note_on,20,0,0,,,,,,,,,4,,76,0
126710,note_on,0,0,0,,,,,,,,,1,,76,0
126720,note_on,10,0,0,,,,,,,,,1,,54,100
126720,note_on,0,0,0,,,,,,,,,1,,63,100
126720,note_on,0,0,0,,,,,,,,,1,,78,100
126720,note_on,0,0,0,,,,,,,,,4,,54,100
126720,note_on,0,0,0,,,,,,,,,4,,63,100
126720,note_on,0,0,0,,,,,,,,,4,,78,100
126750,note_on,30,0,0,,,,,,,,,4,,78,0
126750,note_on,0,0,0,,,,,,,,,1,,78,0
126760,note_on,10,0,0,,,,,,,,,1,,80,100
126760,note_on,0,0,0,,,,,,,,,4,,80,100
126790,note_on,30,0,0,,,,,,,,,4,,80,0
126790,note_on,0,0,0,,,,,,,,,1,,80,0
126800,note_on,10,0,0,,,,,,,,,1,,81,100
126800,note_on,0,0,0,,,,,,,,,4,,81,100
126810,note_on,10,0,0,,,,,,,,,4,,63,0
126810,note_on,0,0,0,,,,,,,,,4,,54,0
126810,note_on,0,0,0,,,,,,,,,1,,54,0
126810,note_on,0,0,0,,,,,,,,,1,,63,0
126830,note_on,20,0,0,,,,,,,,,4,,81,0
126830,note_on,0,0,0,,,,,,,,,1,,81,0
126840,note_on,10,0,0,,,,,,,,,1,,56,100
126840,note_on,0,0,0,,,,,,,,,1,,64,100
126840,note_on,0,0,0,,,,,,,,,1,,71,100
126840,note_on,0,0,0,,,,,,,,,4,,56,100
126840,note_on,0,0,0,,,,,,,,,4,,64,100
126840,note_on,0,0,0,,,,,,,,,4,,71,100
126870,note_on,30,0,0,,,,,,,,,4,,71,0
126870,note_on,0,0,0,,,,,,,,,1,,71,0
126880,note_on,10,0,0,,,,,,,,,1,,73,100
126880,note_on,0,0,0,,,,,,,,,4,,73,100
126910,note_on,30,0,0,,,,,,,,,4,,73,0
126910,note_on,0,0,0,,,,,,,,,1,,73,0
126920,note_on,10,0,0,,,,,,,,,1,,75,100
126920,note_on,0,0,0,,,,,,,,,4,,75,100
126930,note_on,10,0,0,,,,,,,,,4,,64,0
126930,note_on,0,0,0,,,,,,,,,4,,56,0
126930,note_on,0,0,0,,,,,,,,,1,,56,0
126930,note_on,0,0,0,,,,,,,,,1,,64,0
126950,note_on,20,0,0,,,,,,,,,4,,75,0
126950,note_on,0,0,0,,,,,,,,,1,,75,0
126960,note_on,10,0,0,,,,,,,,,1,,52,100
126960,note_on,0,0,0,,,,,,,,,1,,56,100
126960,note_on,0,0,0,,,,,,,,,1,,76,100
126960,note_on,0,0,0,,,,,,,,,4,,52,100
126960,note_on,0,0,0,,,,,,,,,4,,56,100
126960,note_on,0,0,0,,,,,,,,,4,,76,100
126990,note_on,30,0,0,,,,,,,,,4,,76,0
126990,note_on,0,0,0,,,,,,,,,1,,76,0
127000,note_on,10,0,0,,,,,,,,,1,,78,100
127000,note_on,0,0,0,,,,,,,,,4,,78,100
127030,note_on,30,0,0,,,,,,,,,4,,78,0
127030,note_on,0,0,0,,,,,,,,,1,,78,0
127040,note_on,10,0,0,,,,,,,,,1,,80,100
127040,note_on,0,0,0,,,,,,,,,4,,80,100
127050,note_on,10,0,0,,,,,,,,,4,,56,0
127050,note_on,0,0,0,,,,,,,,,4,,52,0
127050,note_on,0,0,0,,,,,,,,,1,,52,0
127050,note_on,0,0,0,,,,,,,,,1,,56,0
127070,note_on,20,0,0,,,,,,,,,4,,80,0
127070,note_on,0,0,0,,,,,,,,,1,,80,0
127080,note_on,10,0,0,,,,,,,,,1,,57,100
127080,note_on,0,0,0,,,,,,,,,1,,52,100
127080,note_on,0,0,0,,,,,,,,,1,,49,100
127080,note_on,0,0,0,,,,,,,,,1,,69,100
127080,note_on,0,0,0,,,,,,,,,4,,57,100
127080,note_on,0,0,0,,,,,,,,,4,,52,100
127080,note_on,0,0,0,,,,,,,,,4,,49,100
127080,note_on,0,0,0,,,,,,,,,4,,69,100
127110,note_on,30,0,0,,,,,,,,,4,,69,0
127110,note_on,0,0,0,,,,,,,,,1,,69,0
127120,note_on,10,0,0,,,,,,,,,1,,71,100
127120,note_on,0,0,0,,,,,,,,,4,,71,100
127150,note_on,30,0,0,,,,,,,,,4,,71,0
127150,note_on,0,0,0,,,,,,,,,1,,71,0
127160,note_on,10,0,0,,,,,,,,,1,,73,100
127160,note_on,0,0,0,,,,,,,,,4,,73,100
127170,note_on,10,0,0,,,,,,,,,4,,49,0
127170,note_on,0,0,0,,,,,,,,,4,,57,0
127170,note_on,0,0,0,,,,,,,,,1,,57,0
127170,note_on,0,0,0,,,,,,,,,1,,52,0
127170,note_on,0,0,0,,,,,,,,,1,,49,0
127170,note_on,0,0,0,,,,,,,,,4,,52,0
127190,note_on,20,0,0,,,,,,,,,4,,73,0
127190,note_on,0,0,0,,,,,,,,,1,,73,0
127200,note_on,10,0,0,,,,,,,,,1,,59,100
127200,note_on,0,0,0,,,,,,,,,1,,54,100
127200,note_on,0,0,0,,,,,,,,,1,,51,100
127200,note_on,0,0,0,,,,,,,,,1,,71,100
127200,note_on,0,0,0,,,,,,,,,4,,59,100
127200,note_on,0,0,0,,,,,,,,,4,,54,100
127200,note_on,0,0,0,,,,,,,,,4,,51,100
127200,note_on,0,0,0,,,,,,,,,4,,71,100
127230,note_on,30,0,0,,,,,,,,,4,,71,0
127230,note_on,0,0,0,,,,,,,,,1,,71,0
127240,note_on,10,0,0,,,,,,,,,1,,73,100
127240,note_on,0,0,0,,,,,,,,,4,,73,100
127270,note_on,30,0,0,,,,,,,,,4,,73,0
127270,note_on,0,0,0,,,,,,,,,1,,73,0
127280,note_on,10,0,0,,,,,,,,,1,,69,100
127280,note_on,0,0,0,,,,,,,,,4,,69,100
127290,note_on,10,0,0,,,,,,,,,4,,51,0
127290,note_on,0,0,0,,,,,,,,,4,,59,0
127290,note_on,0,0,0,,,,,,,,,1,,59,0
127290,note_on,0,0,0,,,,,,,,,1,,54,0
127290,note_on,0,0,0,,,,,,,,,1,,51,0
127290,note_on,0,0,0,,,,,,,,,4,,54,0
127310,note_on,20,0,0,,,,,,,,,4,,69,0
127310,note_on,0,0,0,,,,,,,,,1,,69,0
127320,note_on,10,0,0,,,,,,,,,1,,69,100
127320,note_on,0,0,0,,,,,,,,,1,,59,100
127320,note_on,0,0,0,,,,,,,,,1,,56,100
127320,note_on,0,0,0,,,,,,,,,1,,52,100
127320,note_on,0,0,0,,,,,,,,,1,,68,100
127320,note_on,0,0,0,,,,,,,,,4,,69,100
127320,note_on,0,0,0,,,,,,,,,4,,59,100
127320,note_on,0,0,0,,,,,,,,,4,,56,100
127320,note_on,0,0,0,,,,,,,,,4,,52,100
127320,note_on,0,0,0,,,,,,,,,4,,68,100
127330,note_on,10,0,0,,,,,,,,,4,,69,0
127330,note_on,0,0,0,,,,,,,,,1,,69,0
127350,note_on,20,0,0,,,,,,,,,4,,68,0
127350,note_on,0,0,0,,,,,,,,,1,,68,0
127360,note_on,10,0,0,,,,,,,,,1,,66,100
127360,note_on,0,0,0,,,,,,,,,4,,66,100
127390,note_on,30,0,0,,,,,,,,,4,,66,0
127390,note_on,0,0,0,,,,,,,,,1,,66,0
127400,note_on,10,0,0,,,,,,,,,1,,64,100
127400,note_on,0,0,0,,,,,,,,,4,,64,100
127410,note_on,10,0,0,,,,,,,,,1,,52,0
127410,note_on,0,0,0,,,,,,,,,4,,52,0
127410,note_on,0,0,0,,,,,,,,,1,,59,0
127410,note_on,0,0,0,,,,,,,,,1,,56,0
127410,note_on,0,0,0,,,,,,,,,4,,56,0
127410,note_on,0,0,0,,,,,,,,,4,,59,0
127430,note_on,20,0,0,,,,,,,,,4,,64,0
127430,note_on,0,0,0,,,,,,,,,1,,64,0
127440,note_on,10,0,0,,,,,,,,,1,,71,100
127440,note_on,0,0,0,,,,,,,,,1,,57,100
127440,note_on,0,0,0,,,,,,,,,1,,63,100
127440,note_on,0,0,0,,,,,,,,,1,,54,100
127440,note_on,0,0,0,,,,,,,,,1,,69,100
127440,note_on,0,0,0,,,,,,,,,4,,71,100
127440,note_on,0,0,0,,,,,,,,,4,,57,100
127440,note_on,0,0,0,,,,,,,,,4,,63,100
127440,note_on,0,0,0,,,,,,,,,4,,54,100
127440,note_on,0,0,0,,,,,,,,,4,,69,100
127450,note_on,10,0,0,,,,,,,,,4,,71,0
127450,note_on,0,0,0,,,,,,,,,1,,71,0
127470,note_on,20,0,0,,,,,,,,,4,,69,0
127470,note_on,0,0,0,,,,,,,,,1,,69,0
127480,note_on,10,0,0,,,,,,,,,1,,68,100
127480,note_on,0,0,0,,,,,,,,,4,,68,100
127510,note_on,30,0,0,,,,,,,,,4,,68,0
127510,note_on,0,0,0,,,,,,,,,1,,68,0
127520,note_on,10,0,0,,,,,,,,,1,,66,100
127520,note_on,0,0,0,,,,,,,,,4,,66,100
127530,note_on,10,0,0,,,,,,,,,1,,54,0
127530,note_on,0,0,0,,,,,,,,,4,,54,0
127530,note_on,0,0,0,,,,,,,,,1,,57,0
127530,note_on,0,0,0,,,,,,,,,1,,63,0
127530,note_on,0,0,0,,,,,,,,,4,,63,0
127530,note_on,0,0,0,,,,,,,,,4,,57,0
127550,note_on,20,0,0,,,,,,,,,4,,66,0
127550,note_on,0,0,0,,,,,,,,,1,,66,0
127560,note_on,10,0,0,,,,,,,,,1,,73,100
127560,note_on,0,0,0,,,,,,,,,1,,64,100
127560,note_on,0,0,0,,,,,,,,,1,,59,100
127560,note_on,0,0,0,,,,,,,,,1,,56,100
127560,note_on,0,0,0,,,,,,,,,1,,71,100
127560,note_on,0,0,0,,,,,,,,,4,,73,100
127560,note_on,0,0,0,,,,,,,,,4,,64,100
127560,note_on,0,0,0,,,,,,,,,4,,59,100
127560,note_on,0,0,0,,,,,,,,,4,,56,100
127560,note_on,0,0,0,,,,,,,,,4,,71,100
127570,note_on,10,0,0,,,,,,,,,4,,73,0
127570,note_on,0,0,0,,,,,,,,,1,,73,0
127590,note_on,20,0,0,,,,,,,,,4,,71,0
127590,note_on,0,0,0,,,,,,,,,1,,71,0
127600,note_on,10,0,0,,,,,,,,,1,,69,100
127600,note_on,0,0,0,,,,,,,,,4,,69,100
127630,note_on,30,0,0,,,,,,,,,4,,69,0
127630,note_on,0,0,0,,,,,,,,,1,,69,0
127640,note_on,10,0,0,,,,,,,,,1,,68,100
127640,note_on,0,0,0,,,,,,,,,4,,68,100
127650,note_on,10,0,0,,,,,,,,,1,,56,0
127650,note_on,0,0,0,,,,,,,,,4,,56,0
127650,note_on,0,0,0,,,,,,,,,1,,64,0
127650,note_on,0,0,0,,,,,,,,,1,,59,0
127650,note_on,0,0,0,,,,,,,,,4,,59,0
127650,note_on,0,0,0,,,,,,,,,4,,64,0
127670,note_on,20,0,0,,,,,,,,,4,,68,0
127670,note_on,0,0,0,,,,,,,,,1,,68,0
127680,note_on,10,0,0,,,,,,,,,1,,75,100
127680,note_on,0,0,0,,,,,,,,,1,,61,100
127680,note_on,0,0,0,,,,,,,,,1,,66,100
127680,note_on,0,0,0,,,,,,,,,1,,57,100
127680,note_on,0,0,0,,,,,,,,,1,,73,100
127680,note_on,0,0,0,,,,,,,,,4,,75,100
127680,note_on,0,0,0,,,,,,,,,4,,61,100
127680,note_on,0,0,0,,,,,,,,,4,,66,100
127680,note_on,0,0,0,,,,,,,,,4,,57,100
127680,note_on,0,0,0,,,,,,,,,4,,73,100
127690,note_on,10,0,0,,,,,,,,,4,,75,0
127690,note_on,0,0,0,,,,,,,,,1,,75,0
127710,note_on,20,0,0,,,,,,,,,4,,73,0
127710,note_on,0,0,0,,,,,,,,,1,,73,0
127720,note_on,10,0,0,,,,,,,,,1,,71,100
127720,note_on,0,0,0,,,,,,,,,4,,71,100
127750,note_on,30,0,0,,,,,,,,,4,,71,0
127750,note_on,0,0,0,,,,,,,,,1,,71,0
127760,note_on,10,0,0,,,,,,,,,1,,69,100
127760,note_on,0,0,0,,,,,,,,,4,,69,100
127770,note_on,10,0,0,,,,,,,,,1,,57,0
127770,note_on,0,0,0,,,,,,,,,4,,57,0
127770,note_on,0,0,0,,,,,,,,,1,,61,0
127770,note_on,0,0,0,,,,,,,,,1,,66,0
127770,note_on,0,0,0,,,,,,,,,4,,66,0
127770,note_on,0,0,0,,,,,,,,,4,,61,0
127790,note_on,20,0,0,,,,,,,,,4,,69,0
127790,note_on,0,0,0,,,,,,,,,1,,69,0
127800,note_on,10,0,0,,,,,,,,,1,,76,100
127800,note_on,0,0,0,,,,,,,,,1,,66,100
127800,note_on,0,0,0,,,,,,,,,1,,63,100
127800,note_on,0,0,0,,,,,,,,,1,,59,100
127800,note_on,0,0,0,,,,,,,,,1,,75,100
127800,note_on,0,0,0,,,,,,,,,4,,76,100
127800,note_on,0,0,0,,,,,,,,,4,,66,100
127800,note_on,0,0,0,,,,,,,,,4,,63,100
127800,note_on,0,0,0,,,,,,,,,4,,59,100
127800,note_on,0,0,0,,,,,,,,,4,,75,100
127810,note_on,10,0,0,,,,,,,,,4,,76,0
127810,note_on,0,0,0,,,,,,,,,1,,76,0
127830,note_on,20,0,0,,,,,,,,,4,,75,0
127830,note_on,0,0,0,,,,,,,,,1,,75,0
127840,note_on,10,0,0,,,,,,,,,1,,73,100
127840,note_on,0,0,0,,,,,,,,,4,,73,100
127870,note_on,30,0,0,,,,,,,,,4,,73,0
127870,note_on,0,0,0,,,,,,,,,1,,73,0
127880,note_on,10,0,0,,,,,,,,,1,,71,100
127880,note_on,0,0,0,,,,,,,,,4,,71,100
127890,note_on,10,0,0,,,,,,,,,1,,59,0
127890,note_on,0,0,0,,,,,,,,,4,,59,0
127890,note_on,0,0,0,,,,,,,,,1,,66,0
127890,note_on,0,0,0,,,,,,,,,1,,63,0
127890,note_on,0,0,0,,,,,,,,,4,,63,0
127890,note_on,0,0,0,,,,,,,,,4,,66,0
127910,note_on,20,0,0,,,,,,,,,4,,71,0
127910,note_on,0,0,0,,,,,,,,,1,,71,0
127920,note_on,10,0,0,,,,,,,,,1,,78,100
127920,note_on,0,0,0,,,,,,,,,1,,61,100
127920,note_on,0,0,0,,,,,,,,,1,,76,100
127920,note_on,0,0,0,,,,,,,,,4,,78,100
127920,note_on,0,0,0,,,,,,,,,4,,61,100
127920,note_on,0,0,0,,,,,,,,,4,,76,100
127930,note_on,10,0,0,,,,,,,,,4,,78,0
127930,note_on,0,0,0,,,,,,,,,1,,78,0
127950,note_on,20,0,0,,,,,,,,,4,,61,0
127950,note_on,0,0,0,,,,,,,,,1,,61,0
127950,note_on,0,0,0,,,,,,,,,4,,76,0
127950,note_on,0,0,0,,,,,,,,,1,,76,0
127960,note_on,10,0,0,,,,,,,,,1,,63,100
127960,note_on,0,0,0,,,,,,,,,1,,75,100
127960,note_on,0,0,0,,,,,,,,,4,,63,100
127960,note_on,0,0,0,,,,,,,,,4,,75,100
127990,note_on,30,0,0,,,,,,,,,4,,75,0
127990,note_on,0,0,0,,,,,,,,,1,,63,0
127990,note_on,0,0,0,,,,,,,,,1,,75,0
127990,note_on,0,0,0,,,,,,,,,4,,63,0
128000,note_on,10,0,0,,,,,,,,,1,,64,100
128000,note_on,0,0,0,,,,,,,,,1,,73,100
128000,note_on,0,0,0,,,,,,,,,4,,64,100
128000,note_on,0,0,0,,,,,,,,,4,,73,100
128030,note_on,30,0,0,,,,,,,,,4,,73,0
128030,note_on,0,0,0,,,,,,,,,1,,64,0
128030,note_on,0,0,0,,,,,,,,,1,,73,0
128030,note_on,0,0,0,,,,,,,,,4,,64,0
128040,note_on,10,0,0,,,,,,,,,1,,80,100
128040,note_on,0,0,0,,,,,,,,,1,,63,100
128040,note_on,0,0,0,,,,,,,,,1,,78,100
128040,note_on,0,0,0,,,,,,,,,4,,80,100
128040,note_on,0,0,0,,,,,,,,,4,,63,100
128040,note_on,0,0,0,,,,,,,,,4,,78,100
128050,note_on,10,0,0,,,,,,,,,4,,80,0
128050,note_on,0,0,0,,,,,,,,,1,,80,0
128070,note_on,20,0,0,,,,,,,,,4,,63,0
128070,note_on,0,0,0,,,,,,,,,1,,63,0
128070,note_on,0,0,0,,,,,,,,,4,,78,0
128070,note_on,0,0,0,,,,,,,,,1,,78,0
128080,note_on,10,0,0,,,,,,,,,1,,66,100
128080,note_on,0,0,0,,,,,,,,,1,,76,100
128080,note_on,0,0,0,,,,,,,,,4,,66,100
128080,note_on,0,0,0,,,,,,,,,4,,76,100
128110,note_on,30,0,0,,,,,,,,,4,,76,0
128110,note_on,0,0,0,,,,,,,,,1,,66,0
128110,note_on,0,0,0,,,,,,,,,1,,76,0
128110,note_on,0,0,0,,,,,,,,,4,,66,0
128120,note_on,10,0,0,,,,,,,,,1,,71,100
128120,note_on,0,0,0,,,,,,,,,1,,75,100
128120,note_on,0,0,0,,,,,,,,,4,,71,100
128120,note_on,0,0,0,,,,,,,,,4,,75,100
128150,note_on,30,0,0,,,,,,,,,4,,75,0
128150,note_on,0,0,0,,,,,,,,,1,,71,0
128150,note_on,0,0,0,,,,,,,,,1,,75,0
128150,note_on,0,0,0,,,,,,,,,4,,71,0
128160,note_on,10,0,0,,,,,,,,,1,,81,100
128160,note_on,0,0,0,,,,,,,,,1,,64,100
128160,note_on,0,0,0,,,,,,,,,1,,80,100
128160,note_on,0,0,0,,,,,,,,,4,,81,100
128160,note_on,0,0,0,,,,,,,,,4,,64,100
128160,note_on,0,0,0,,,,,,,,,4,,80,100
128170,note_on,10,0,0,,,,,,,,,4,,81,0
128170,note_on,0,0,0,,,,,,,,,1,,81,0
128190,note_on,20,0,0,,,,,,,,,4,,64,0
128190,note_on,0,0,0,,,,,,,,,1,,64,0
128190,note_on,0,0,0,,,,,,,,,4,,80,0
128190,note_on,0,0,0,,,,,,,,,1,,80,0
128200,note_on,10,0,0,,,,,,,,,1,,78,100
128200,note_on,0,0,0,,,,,,,,,1,,68,100
128200,note_on,0,0,0,,,,,,,,,4,,78,100
128200,note_on,0,0,0,,,,,,,,,4,,68,100
128230,note_on,30,0,0,,,,,,,,,4,,68,0
128230,note_on,0,0,0,,,,,,,,,1,,78,0
128230,note_on,0,0,0,,,,,,,,,1,,68,0
128230,note_on,0,0,0,,,,,,,,,4,,78,0
128240,note_on,10,0,0,,,,,,,,,1,,73,100
128240,note_on,0,0,0,,,,,,,,,1,,76,100
128240,note_on,0,0,0,,,,,,,,,4,,73,100
128240,note_on,0,0,0,,,,,,,,,4,,76,100
128270,note_on,30,0,0,,,,,,,,,4,,76,0
128270,note_on,0,0,0,,,,,,,,,1,,73,0
128270,note_on,0,0,0,,,,,,,,,1,,76,0
128270,note_on,0,0,0,,,,,,,,,4,,73,0
128280,note_on,10,0,0,,,,,,,,,1,,83,100
128280,note_on,0,0,0,,,,,,,,,1,,66,100
128280,note_on,0,0,0,,,,,,,,,1,,81,100
128280,note_on,0,0,0,,,,,,,,,4,,83,100
128280,note_on,0,0,0,,,,,,,,,4,,66,100
128280,note_on,0,0,0,,,,,,,,,4,,81,100
128290,note_on,10,0,0,,,,,,,,,4,,83,0
128290,note_on,0,0,0,,,,,,,,,1,,83,0
128310,note_on,20,0,0,,,,,,,,,4,,66,0
128310,note_on,0,0,0,,,,,,,,,1,,66,0
128310,note_on,0,0,0,,,,,,,,,4,,81,0
128310,note_on,0,0,0,,,,,,,,,1,,81,0
128320,note_on,10,0,0,,,,,,,,,1,,69,100
128320,note_on,0,0,0,,,,,,,,,1,,80,100
128320,note_on,0,0,0,,,,,,,,,4,,69,100
128320,note_on,0,0,0,,,,,,,,,4,,80,100
128350,note_on,30,0,0,,,,,,,,,4,,80,0
128350,note_on,0,0,0,,,,,,,,,1,,69,0
128350,note_on,0,0,0,,,,,,,,,1,,80,0
128350,note_on,0,0,0,,,,,,,,,4,,69,0
128360,note_on,10,0,0,,,,,,,,,1,,75,100
128360,note_on,0,0,0,,,,,,,,,1,,78,100
128360,note_on,0,0,0,,,,,,,,,4,,75,100
128360,note_on,0,0,0,,,,,,,,,4,,78,100
128390,note_on,30,0,0,,,,,,,,,4,,78,0
128390,note_on,0,0,0,,,,,,,,,1,,75,0
128390,note_on,0,0,0,,,,,,,,,1,,78,0
128390,note_on,0,0,0,,,,,,,,,4,,75,0
128400,note_on,10,0,0,,,,,,,,,1,,85,100
128400,note_on,0,0,0,,,,,,,,,1,,68,100
128400,note_on,0,0,0,,,,,,,,,1,,83,100
128400,note_on,0,0,0,,,,,,,,,4,,85,100
128400,note_on,0,0,0,,,,,,,,,4,,68,100
128400,note_on,0,0,0,,,,,,,,,4,,83,100
128410,note_on,10,0,0,,,,,,,,,4,,85,0
128410,note_on,0,0,0,,,,,,,,,1,,85,0
128430,note_on,20,0,0,,,,,,,,,4,,68,0
128430,note_on,0,0,0,,,,,,,,,1,,68,0
128430,note_on,0,0,0,,,,,,,,,4,,83,0
128430,note_on,0,0,0,,,,,,,,,1,,83,0
128440,note_on,10,0,0,,,,,,,,,1,,71,100
128440,note_on,0,0,0,,,,,,,,,1,,81,100
128440,note_on,0,0,0,,,,,,,,,4,,71,100
128440,note_on,0,0,0,,,,,,,,,4,,81,100
128470,note_on,30,0,0,,,,,,,,,4,,81,0
128470,note_on,0,0,0,,,,,,,,,1,,71,0
128470,note_on,0,0,0,,,,,,,,,1,,81,0
128470,note_on,0,0,0,,,,,,,,,4,,71,0
128480,note_on,10,0,0,,,,,,,,,1,,80,100
128480,note_on,0,0,0,,,,,,,,,1,,76,100
128480,note_on,0,0,0,,,,,,,,,4,,80,100
128480,note_on,0,0,0,,,,,,,,,4,,76,100
128510,note_on,30,0,0,,,,,,,,,4,,76,0
128510,note_on,0,0,0,,,,,,,,,1,,80,0
128510,note_on,0,0,0,,,,,,,,,1,,76,0
128510,note_on,0,0,0,,,,,,,,,4,,80,0
128520,note_on,10,0,0,,,,,,,,,1,,86,100
128520,note_on,0,0,0,,,,,,,,,1,,69,100
128520,note_on,0,0,0,,,,,,,,,1,,85,100
128520,note_on,0,0,0,,,,,,,,,4,,86,100
128520,note_on,0,0,0,,,,,,,,,4,,69,100
128520,note_on,0,0,0,,,,,,,,,4,,85,100
128530,note_on,10,0,0,,,,,,,,,4,,86,0
128530,note_on,0,0,0,,,,,,,,,1,,86,0
128550,note_on,20,0,0,,,,,,,,,4,,69,0
128550,note_on,0,0,0,,,,,,,,,1,,69,0
128550,note_on,0,0,0,,,,,,,,,4,,85,0
128550,note_on,0,0,0,,,,,,,,,1,,85,0
128560,note_on,10,0,0,,,,,,,,,1,,73,100
128560,note_on,0,0,0,,,,,,,,,1,,83,100
128560,note_on,0,0,0,,,,,,,,,4,,73,100
128560,note_on,0,0,0,,,,,,,,,4,,83,100
128590,note_on,30,0,0,,,,,,,,,4,,83,0
128590,note_on,0,0,0,,,,,,,,,1,,73,0
128590,note_on,0,0,0,,,,,,,,,1,,83,0
128590,note_on,0,0,0,,,,,,,,,4,,73,0
128600,note_on,10,0,0,,,,,,,,,1,,78,100
128600,note_on,0,0,0,,,,,,,,,1,,81,100
128600,note_on,0,0,0,,,,,,,,,4,,78,100
128600,note_on,0,0,0,,,,,,,,,4,,81,100
128630,note_on,30,0,0,,,,,,,,,4,,81,0
128630,note_on,0,0,0,,,,,,,,,1,,78,0
128630,note_on,0,0,0,,,,,,,,,1,,81,0
128630,note_on,0,0,0,,,,,,,,,4,,78,0
128640,note_on,10,0,0,,,,,,,,,1,,86,100
128640,note_on,0,0,0,,,,,,,,,1,,69,100
128640,note_on,0,0,0,,,,,,,,,1,,85,100
128640,note_on,0,0,0,,,,,,,,,4,,86,100
128640,note_on,0,0,0,,,,,,,,,4,,69,100
128640,note_on,0,0,0,,,,,,,,,4,,85,100
128650,note_on,10,0,0,,,,,,,,,4,,86,0
128650,note_on,0,0,0,,,,,,,,,1,,86,0
128670,note_on,20,0,0,,,,,,,,,4,,69,0
128670,note_on,0,0,0,,,,,,,,,1,,69,0
128670,note_on,0,0,0,,,,,,,,,4,,85,0
128670,note_on,0,0,0,,,,,,,,,1,,85,0
128680,note_on,10,0,0,,,,,,,,,1,,73,100
128680,note_on,0,0,0,,,,,,,,,1,,83,100
128680,note_on,0,0,0,,,,,,,,,4,,73,100
128680,note_on,0,0,0,,,,,,,,,4,,83,100
128710,note_on,30,0,0,,,,,,,,,4,,83,0
128710,note_on,0,0,0,,,,,,,,,1,,73,0
128710,note_on,0,0,0,,,,,,,,,1,,83,0
128710,note_on,0,0,0,,,,,,,,,4,,73,0
128720,note_on,10,0,0,,,,,,,,,1,,78,100
128720,note_on,0,0,0,,,,,,,,,1,,81,100
128720,note_on,0,0,0,,,,,,,,,4,,78,100
128720,note_on,0,0,0,,,,,,,,,4,,81,100
128750,note_on,30,0,0,,,,,,,,,4,,81,0
128750,note_on,0,0,0,,,,,,,,,1,,78,0
128750,note_on,0,0,0,,,,,,,,,1,,81,0
128750,note_on,0,0,0,,,,,,,,,4,,78,0
128760,note_on,10,0,0,,,,,,,,,1,,85,100
128760,note_on,0,0,0,,,,,,,,,1,,68,100
128760,note_on,0,0,0,,,,,,,,,1,,83,100
128760,note_on,0,0,0,,,,,,,,,4,,85,100
128760,note_on,0,0,0,,,,,,,,,4,,68,100
128760,note_on,0,0,0,,,,,,,,,4,,83,100
128770,note_on,10,0,0,,,,,,,,,4,,85,0
128770,note_on,0,0,0,,,,,,,,,1,,85,0
128790,note_on,20,0,0,,,,,,,,,4,,68,0
128790,note_on,0,0,0,,,,,,,,,1,,68,0
128790,note_on,0,0,0,,,,,,,,,4,,83,0
128790,note_on,0,0,0,,,,,,,,,1,,83,0
128800,note_on,10,0,0,,,,,,,,,1,,71,100
128800,note_on,0,0,0,,,,,,,,,1,,81,100
128800,note_on,0,0,0,,,,,,,,,4,,71,100
128800,note_on,0,0,0,,,,,,,,,4,,81,100
128830,note_on,30,0,0,,,,,,,,,4,,81,0
128830,note_on,0,0,0,,,,,,,,,1,,71,0
128830,note_on,0,0,0,,,,,,,,,1,,81,0
128830,note_on,0,0,0,,,,,,,,,4,,71,0
128840,note_on,10,0,0,,,,,,,,,1,,76,100
128840,note_on,0,0,0,,,,,,,,,1,,80,100
128840,note_on,0,0,0,,,,,,,,,4,,76,100
128840,note_on,0,0,0,,,,,,,,,4,,80,100
128870,note_on,30,0,0,,,,,,,,,4,,80,0
128870,note_on,0,0,0,,,,,,,,,1,,76,0
128870,note_on,0,0,0,,,,,,,,,1,,80,0
128870,note_on,0,0,0,,,,,,,,,4,,76,0
128880,note_on,10,0,0,,,,,,,,,1,,85,100
128880,note_on,0,0,0,,,,,,,,,1,,68,100
128880,note_on,0,0,0,,,,,,,,,1,,83,100
128880,note_on,0,0,0,,,,,,,,,4,,85,100
128880,note_on,0,0,0,,,,,,,,,4,,68,100
128880,note_on,0,0,0,,,,,,,,,4,,83,100
128890,note_on,10,0,0,,,,,,,,,4,,85,0
128890,note_on,0,0,0,,,,,,,,,1,,85,0
128910,note_on,20,0,0,,,,,,,,,4,,68,0
128910,note_on,0,0,0,,,,,,,,,1,,68,0
128910,note_on,0,0,0,,,,,,,,,4,,83,0
128910,note_on,0,0,0,,,,,,,,,1,,83,0
128920,note_on,10,0,0,,,,,,,,,1,,71,100
128920,note_on,0,0,0,,,,,,,,,1,,81,100
128920,note_on,0,0,0,,,,,,,,,4,,71,100
128920,note_on,0,0,0,,,,,,,,,4,,81,100
128950,note_on,30,0,0,,,,,,,,,4,,81,0
128950,note_on,0,0,0,,,,,,,,,1,,71,0
128950,note_on,0,0,0,,,,,,,,,1,,81,0
128950,note_on,0,0,0,,,,,,,,,4,,71,0
128960,note_on,10,0,0,,,,,,,,,1,,76,100
128960,note_on,0,0,0,,,,,,,,,1,,80,100
128960,note_on,0,0,0,,,,,,,,,4,,76,100
128960,note_on,0,0,0,,,,,,,,,4,,80,100
128990,note_on,30,0,0,,,,,,,,,4,,80,0
128990,note_on,0,0,0,,,,,,,,,1,,76,0
128990,note_on,0,0,0,,,,,,,,,1,,80,0
128990,note_on,0,0,0,,,,,,,,,4,,76,0
129000,note_on,10,0,0,,,,,,,,,1,,83,100
129000,note_on,0,0,0,,,,,,,,,1,,66,100
129000,note_on,0,0,0,,,,,,,,,1,,81,100
129000,note_on,0,0,0,,,,,,,,,4,,83,100
129000,note_on,0,0,0,,,,,,,,,4,,66,100
129000,note_on,0,0,0,,,,,,,,,4,,81,100
129010,note_on,10,0,0,,,,,,,,,4,,83,0
129010,note_on,0,0,0,,,,,,,,,1,,83,0
129030,note_on,20,0,0,,,,,,,,,4,,66,0
129030,note_on,0,0,0,,,,,,,,,1,,66,0
129030,note_on,0,0,0,,,,,,,,,4,,81,0
129030,note_on,0,0,0,,,,,,,,,1,,81,0
129040,note_on,10,0,0,,,,,,,,,1,,69,100
129040,note_on,0,0,0,,,,,,,,,1,,80,100
129040,note_on,0,0,0,,,,,,,,,4,,69,100
129040,note_on,0,0,0,,,,,,,,,4,,80,100
129070,note_on,30,0,0,,,,,,,,,4,,80,0
129070,note_on,0,0,0,,,,,,,,,1,,69,0
129070,note_on,0,0,0,,,,,,,,,1,,80,0
129070,note_on,0,0,0,,,,,,,,,4,,69,0
129080,note_on,10,0,0,,,,,,,,,1,,75,100
129080,note_on,0,0,0,,,,,,,,,1,,78,100
129080,note_on,0,0,0,,,,,,,,,4,,75,100
129080,note_on,0,0,0,,,,,,,,,4,,78,100
129110,note_on,30,0,0,,,,,,,,,4,,78,0
129110,note_on,0,0,0,,,,,,,,,1,,75,0
129110,note_on,0,0,0,,,,,,,,,1,,78,0
129110,note_on,0,0,0,,,,,,,,,4,,75,0
129120,note_on,10,0,0,,,,,,,,,1,,83,100
129120,note_on,0,0,0,,,,,,,,,1,,66,100
129120,note_on,0,0,0,,,,,,,,,1,,81,100
129120,note_on,0,0,0,,,,,,,,,4,,83,100
129120,note_on,0,0,0,,,,,,,,,4,,66,100
129120,note_on,0,0,0,,,,,,,,,4,,81,100
129130,note_on,10,0,0,,,,,,,,,4,,83,0
129130,note_on,0,0,0,,,,,,,,,1,,83,0
129150,note_on,20,0,0,,,,,,,,,4,,66,0
129150,note_on,0,0,0,,,,,,,,,1,,66,0
129150,note_on,0,0,0,,,,,,,,,4,,81,0
129150,note_on,0,0,0,,,,,,,,,1,,81,0
129160,note_on,10,0,0,,,,,,,,,1,,69,100
129160,note_on,0,0,0,,,,,,,,,1,,80,100
129160,note_on,0,0,0,,,,,,,,,4,,69,100
129160,note_on,0,0,0,,,,,,,,,4,,80,100
129190,note_on,30,0,0,,,,,,,,,4,,80,0
129190,note_on,0,0,0,,,,,,,,,1,,69,0
129190,note_on,0,0,0,,,,,,,,,1,,80,0
129190,note_on,0,0,0,,,,,,,,,4,,69,0
129200,note_on,10,0,0,,,,,,,,,1,,75,100
129200,note_on,0,0,0,,,,,,,,,1,,78,100
129200,note_on,0,0,0,,,,,,,,,4,,75,100
129200,note_on,0,0,0,,,,,,,,,4,,78,100
129230,note_on,30,0,0,,,,,,,,,4,,78,0
129230,note_on,0,0,0,,,,,,,,,1,,75,0
129230,note_on,0,0,0,,,,,,,,,1,,78,0
129230,note_on,0,0,0,,,,,,,,,4,,75,0
129240,note_on,10,0,0,,,,,,,,,1,,64,100
129240,note_on,0,0,0,,,,,,,,,1,,80,100
129240,note_on,0,0,0,,,,,,,,,4,,64,100
129240,note_on,0,0,0,,,,,,,,,4,,80,100
129270,note_on,30,0,0,,,,,,,,,4,,80,0
129270,note_on,0,0,0,,,,,,,,,1,,64,0
129270,note_on,0,0,0,,,,,,,,,1,,80,0
129270,note_on,0,0,0,,,,,,,,,4,,64,0
129280,note_on,10,0,0,,,,,,,,,1,,66,100
129280,note_on,0,0,0,,,,,,,,,1,,81,100
129280,note_on,0,0,0,,,,,,,,,4,,66,100
129280,note_on,0,0,0,,,,,,,,,4,,81,100
129310,note_on,30,0,0,,,,,,,,,4,,81,0
129310,note_on,0,0,0,,,,,,,,,1,,66,0
129310,note_on,0,0,0,,,,,,,,,1,,81,0
129310,note_on,0,0,0,,,,,,,,,4,,66,0
129320,note_on,10,0,0,,,,,,,,,1,,68,100
129320,note_on,0,0,0,,,,,,,,,1,,83,100
129320,note_on,0,0,0,,,,,,,,,4,,68,100
129320,note_on,0,0,0,,,,,,,,,4,,83,100
129350,note_on,30,0,0,,,,,,,,,4,,83,0
129350,note_on,0,0,0,,,,,,,,,1,,68,0
129350,note_on,0,0,0,,,,,,,,,1,,83,0
129350,note_on,0,0,0,,,,,,,,,4,,68,0
129360,note_on,10,0,0,,,,,,,,,1,,76,100
129360,note_on,0,0,0,,,,,,,,,1,,61,100
129360,note_on,0,0,0,,,,,,,,,1,,85,100
129360,note_on,0,0,0,,,,,,,,,4,,76,100
129360,note_on,0,0,0,,,,,,,,,4,,61,100
129360,note_on,0,0,0,,,,,,,,,4,,85,100
129390,note_on,30,0,0,,,,,,,,,4,,61,0
129390,note_on,0,0,0,,,,,,,,,4,,76,0
129390,note_on,0,0,0,,,,,,,,,1,,61,0
129390,note_on,0,0,0,,,,,,,,,1,,76,0
129400,note_on,10,0,0,,,,,,,,,1,,78,100
129400,note_on,0,0,0,,,,,,,,,1,,63,100
129400,note_on,0,0,0,,,,,,,,,4,,78,100
129400,note_on,0,0,0,,,,,,,,,4,,63,100
129430,note_on,30,0,0,,,,,,,,,4,,63,0
129430,note_on,0,0,0,,,,,,,,,1,,63,0
129430,note_on,0,0,0,,,,,,,,,1,,78,0
129430,note_on,0,0,0,,,,,,,,,4,,78,0
129440,note_on,10,0,0,,,,,,,,,1,,80,100
129440,note_on,0,0,0,,,,,,,,,1,,64,100
129440,note_on,0,0,0,,,,,,,,,4,,80,100
129440,note_on,0,0,0,,,,,,,,,4,,64,100
129450,note_on,10,0,0,,,,,,,,,1,,85,0
129450,note_on,0,0,0,,,,,,,,,4,,85,0
129470,note_on,20,0,0,,,,,,,,,4,,80,0
129470,note_on,0,0,0,,,,,,,,,1,,64,0
129470,note_on,0,0,0,,,,,,,,,4,,64,0
129470,note_on,0,0,0,,,,,,,,,1,,80,0
129480,note_on,10,0,0,,,,,,,,,1,,78,100
129480,note_on,0,0,0,,,,,,,,,1,,63,100
129480,note_on,0,0,0,,,,,,,,,4,,78,100
129480,note_on,0,0,0,,,,,,,,,4,,63,100
129510,note_on,30,0,0,,,,,,,,,4,,63,0
129510,note_on,0,0,0,,,,,,,,,1,,78,0
129510,note_on,0,0,0,,,,,,,,,1,,63,0
129510,note_on,0,0,0,,,,,,,,,4,,78,0
129520,note_on,10,0,0,,,,,,,,,1,,80,100
129520,note_on,0,0,0,,,,,,,,,1,,64,100
129520,note_on,0,0,0,,,,,,,,,4,,80,100
129520,note_on,0,0,0,,,,,,,,,4,,64,100
129550,note_on,30,0,0,,,,,,,,,4,,64,0
129550,note_on,0,0,0,,,,,,,,,1,,80,0
129550,note_on,0,0,0,,,,,,,,,1,,64,0
129550,note_on,0,0,0,,,,,,,,,4,,80,0
129560,note_on,10,0,0,,,,,,,,,1,,81,100
129560,note_on,0,0,0,,,,,,,,,4,,81,100
129570,note_on,10,0,0,,,,,,,,,1,,66,100
129570,note_on,0,0,0,,,,,,,,,4,,66,100
129590,note_on,20,0,0,,,,,,,,,4,,81,0
129590,note_on,0,0,0,,,,,,,,,1,,81,0
129600,note_on,10,0,0,,,,,,,,,1,,66,0
129600,note_on,0,0,0,,,,,,,,,4,,66,0
129600,note_on,0,0,0,,,,,,,,,1,,59,100
129600,note_on,0,0,0,,,,,,,,,1,,83,100
129600,note_on,0,0,0,,,,,,,,,1,,75,100
129600,note_on,0,0,0,,,,,,,,,4,,59,100
129600,note_on,0,0,0,,,,,,,,,4,,83,100
129600,note_on,0,0,0,,,,,,,,,4,,75,100
129630,note_on,30,0,0,,,,,,,,,4,,75,0
129630,note_on,0,0,0,,,,,,,,,1,,59,0
129630,note_on,0,0,0,,,,,,,,,1,,75,0
129630,note_on,0,0,0,,,,,,,,,4,,59,0
129640,note_on,10,0,0,,,,,,,,,1,,61,100
129640,note_on,0,0,0,,,,,,,,,1,,76,100
129640,note_on,0,0,0,,,,,,,,,4,,61,100
129640,note_on,0,0,0,,,,,,,,,4,,76,100
129670,note_on,30,0,0,,,,,,,,,4,,76,0
129670,note_on,0,0,0,,,,,,,,,1,,76,0
129670,note_on,0,0,0,,,,,,,,,1,,61,0
129670,note_on,0,0,0,,,,,,,,,4,,61,0
129680,note_on,10,0,0,,,,,,,,,1,,78,100
129680,note_on,0,0,0,,,,,,,,,1,,63,100
129680,note_on,0,0,0,,,,,,,,,4,,78,100
129680,note_on,0,0,0,,,,,,,,,4,,63,100
129690,note_on,10,0,0,,,,,,,,,4,,83,0
129690,note_on,0,0,0,,,,,,,,,1,,83,0
129710,note_on,20,0,0,,,,,,,,,4,,78,0
129710,note_on,0,0,0,,,,,,,,,1,,63,0
129710,note_on,0,0,0,,,,,,,,,4,,63,0
129710,note_on,0,0,0,,,,,,,,,1,,78,0
129720,note_on,10,0,0,,,,,,,,,1,,61,100
129720,note_on,0,0,0,,,,,,,,,1,,76,100
129720,note_on,0,0,0,,,,,,,,,4,,61,100
129720,note_on,0,0,0,,,,,,,,,4,,76,100
129750,note_on,30,0,0,,,,,,,,,4,,76,0
129750,note_on,0,0,0,,,,,,,,,1,,61,0
129750,note_on,0,0,0,,,,,,,,,1,,76,0
129750,note_on,0,0,0,,,,,,,,,4,,61,0
129760,note_on,10,0,0,,,,,,,,,1,,63,100
129760,note_on,0,0,0,,,,,,,,,1,,78,100
129760,note_on,0,0,0,,,,,,,,,4,,63,100
129760,note_on,0,0,0,,,,,,,,,4,,78,100
129790,note_on,30,0,0,,,,,,,,,4,,78,0
129790,note_on,0,0,0,,,,,,,,,1,,63,0
129790,note_on,0,0,0,,,,,,,,,1,,78,0
129790,note_on,0,0,0,,,,,,,,,4,,63,0
129800,note_on,10,0,0,,,,,,,,,1,,64,100
129800,note_on,0,0,0,,,,,,,,,1,,80,100
129800,note_on,0,0,0,,,,,,,,,4,,64,100
129800,note_on,0,0,0,,,,,,,,,4,,80,100
129830,note_on,30,0,0,,,,,,,,,4,,80,0
129830,note_on,0,0,0,,,,,,,,,1,,64,0
129830,note_on,0,0,0,,,,,,,,,1,,80,0
129830,note_on,0,0,0,,,,,,,,,4,,64,0
129840,note_on,10,0,0,,,,,,,,,1,,57,100
129840,note_on,0,0,0,,,,,,,,,1,,78,100
129840,note_on,0,0,0,,,,,,,,,4,,57,100
129840,note_on,0,0,0,,,,,,,,,4,,78,100
129870,note_on,30,0,0,,,,,,,,,4,,78,0
129870,note_on,0,0,0,,,,,,,,,1,,57,0
129870,note_on,0,0,0,,,,,,,,,1,,78,0
129870,note_on,0,0,0,,,,,,,,,4,,57,0
129880,note_on,10,0,0,,,,,,,,,1,,59,100
129880,note_on,0,0,0,,,,,,,,,1,,80,100
129880,note_on,0,0,0,,,,,,,,,4,,59,100
129880,note_on,0,0,0,,,,,,,,,4,,80,100
129910,note_on,30,0,0,,,,,,,,,4,,80,0
129910,note_on,0,0,0,,,,,,,,,1,,59,0
129910,note_on,0,0,0,,,,,,,,,1,,80,0
129910,note_on,0,0,0,,,,,,,,,4,,59,0
129920,note_on,10,0,0,,,,,,,,,1,,61,100
129920,note_on,0,0,0,,,,,,,,,1,,76,100
129920,note_on,0,0,0,,,,,,,,,4,,61,100
129920,note_on,0,0,0,,,,,,,,,4,,76,100
129950,note_on,30,0,0,,,,,,,,,4,,76,0
129950,note_on,0,0,0,,,,,,,,,1,,61,0
129950,note_on,0,0,0,,,,,,,,,1,,76,0
129950,note_on,0,0,0,,,,,,,,,4,,61,0
129960,note_on,10,0,0,,,,,,,,,1,,75,100
129960,note_on,0,0,0,,,,,,,,,1,,59,100
129960,note_on,0,0,0,,,,,,,,,4,,75,100
129960,note_on,0,0,0,,,,,,,,,4,,59,100
129990,note_on,30,0,0,,,,,,,,,4,,75,0
129990,note_on,0,0,0,,,,,,,,,1,,75,0
130000,note_on,10,0,0,,,,,,,,,1,,76,100
130000,note_on,0,0,0,,,,,,,,,4,,76,100
130030,note_on,30,0,0,,,,,,,,,4,,76,0
130030,note_on,0,0,0,,,,,,,,,4,,59,0
130030,note_on,0,0,0,,,,,,,,,1,,59,0
130030,note_on,0,0,0,,,,,,,,,1,,76,0
130040,note_on,10,0,0,,,,,,,,,1,,78,100
130040,note_on,0,0,0,,,,,,,,,1,,57,100
130040,note_on,0,0,0,,,,,,,,,4,,78,100
130040,note_on,0,0,0,,,,,,,,,4,,57,100
130070,note_on,30,0,0,,,,,,,,,4,,57,0
130070,note_on,0,0,0,,,,,,,,,1,,78,0
130070,note_on,0,0,0,,,,,,,,,1,,57,0
130070,note_on,0,0,0,,,,,,,,,4,,78,0
130080,note_on,10,0,0,,,,,,,,,1,,71,100
130080,note_on,0,0,0,,,,,,,,,1,,56,100
130080,note_on,0,0,0,,,,,,,,,4,,71,100
130080,note_on,0,0,0,,,,,,,,,4,,56,100
130110,note_on,30,0,0,,,,,,,,,4,,71,0
130110,note_on,0,0,0,,,,,,,,,1,,71,0
130120,note_on,10,0,0,,,,,,,,,1,,76,100
130120,note_on,0,0,0,,,,,,,,,4,,76,100
130150,note_on,30,0,0,,,,,,,,,4,,76,0
130150,note_on,0,0,0,,,,,,,,,4,,56,0
130150,note_on,0,0,0,,,,,,,,,1,,56,0
130150,note_on,0,0,0,,,,,,,,,1,,76,0
130160,note_on,10,0,0,,,,,,,,,1,,75,100
130160,note_on,0,0,0,,,,,,,,,1,,52,100
130160,note_on,0,0,0,,,,,,,,,4,,75,100
130160,note_on,0,0,0,,,,,,,,,4,,52,100
130190,note_on,30,0,0,,,,,,,,,4,,52,0
130190,note_on,0,0,0,,,,,,,,,1,,75,0
130190,note_on,0,0,0,,,,,,,,,1,,52,0
130190,note_on,0,0,0,,,,,,,,,4,,75,0
130200,note_on,10,0,0,,,,,,,,,1,,73,100
130200,note_on,0,0,0,,,,,,,,,1,,57,100
130200,note_on,0,0,0,,,,,,,,,4,,73,100
130200,note_on,0,0,0,,,,,,,,,4,,57,100
130230,note_on,30,0,0,,,,,,,,,4,,73,0
130230,note_on,0,0,0,,,,,,,,,1,,73,0
130240,note_on,10,0,0,,,,,,,,,1,,78,100
130240,note_on,0,0,0,,,,,,,,,4,,78,100
130270,note_on,30,0,0,,,,,,,,,4,,78,0
130270,note_on,0,0,0,,,,,,,,,4,,57,0
130270,note_on,0,0,0,,,,,,,,,1,,57,0
130270,note_on,0,0,0,,,,,,,,,1,,78,0
130280,note_on,10,0,0,,,,,,,,,1,,76,100
130280,note_on,0,0,0,,,,,,,,,1,,54,100
130280,note_on,0,0,0,,,,,,,,,4,,76,100
130280,note_on,0,0,0,,,,,,,,,4,,54,100
130310,note_on,30,0,0,,,,,,,,,4,,54,0
130310,note_on,0,0,0,,,,,,,,,1,,76,0
130310,note_on,0,0,0,,,,,,,,,1,,54,0
130310,note_on,0,0,0,,,,,,,,,4,,76,0
130320,note_on,10,0,0,,,,,,,,,1,,75,100
130320,note_on,0,0,0,,,,,,,,,1,,59,100
130320,note_on,0,0,0,,,,,,,,,4,,75,100
130320,note_on,0,0,0,,,,,,,,,4,,59,100
130350,note_on,30,0,0,,,,,,,,,4,,75,0
130350,note_on,0,0,0,,,,,,,,,1,,75,0
130360,note_on,10,0,0,,,,,,,,,1,,83,100
130360,note_on,0,0,0,,,,,,,,,4,,83,100
130390,note_on,30,0,0,,,,,,,,,4,,83,0
130390,note_on,0,0,0,,,,,,,,,4,,59,0
130390,note_on,0,0,0,,,,,,,,,1,,59,0
130390,note_on,0,0,0,,,,,,,,,1,,83,0
130400,note_on,10,0,0,,,,,,,,,1,,81,100
130400,note_on,0,0,0,,,,,,,,,1,,63,100
130400,note_on,0,0,0,,,,,,,,,4,,81,100
130400,note_on,0,0,0,,,,,,,,,4,,63,100
130430,note_on,30,0,0,,,,,,,,,4,,63,0
130430,note_on,0,0,0,,,,,,,,,1,,81,0
130430,note_on,0,0,0,,,,,,,,,1,,63,0
130430,note_on,0,0,0,,,,,,,,,4,,81,0
130440,note_on,10,0,0,,,,,,,,,1,,80,100
130440,note_on,0,0,0,,,,,,,,,1,,64,100
130440,note_on,0,0,0,,,,,,,,,4,,80,100
130440,note_on,0,0,0,,,,,,,,,4,,64,100
130470,note_on,30,0,0,,,,,,,,,4,,80,0
130470,note_on,0,0,0,,,,,,,,,1,,80,0
130480,note_on,10,0,0,,,,,,,,,1,,78,100
130480,note_on,0,0,0,,,,,,,,,4,,78,100
130510,note_on,30,0,0,,,,,,,,,4,,78,0
130510,note_on,0,0,0,,,,,,,,,4,,64,0
130510,note_on,0,0,0,,,,,,,,,1,,64,0
130510,note_on,0,0,0,,,,,,,,,1,,78,0
130520,note_on,10,0,0,,,,,,,,,1,,76,100
130520,note_on,0,0,0,,,,,,,,,4,,76,100
130550,note_on,30,0,0,,,,,,,,,4,,76,0
130550,note_on,0,0,0,,,,,,,,,1,,76,0
130560,note_on,10,0,0,,,,,,,,,1,,74,100
130560,note_on,0,0,0,,,,,,,,,4,,74,100
130590,note_on,30,0,0,,,,,,,,,4,,74,0
130590,note_on,0,0,0,,,,,,,,,1,,74,0
130600,note_on,10,0,0,,,,,,,,,1,,73,100
130600,note_on,0,0,0,,,,,,,,,4,,73,100
130630,note_on,30,0,0,,,,,,,,,4,,73,0
130630,note_on,0,0,0,,,,,,,,,1,,73,0
130640,note_on,10,0,0,,,,,,,,,1,,71,100
130640,note_on,0,0,0,,,,,,,,,4,,71,100
130670,note_on,30,0,0,,,,,,,,,4,,71,0
130670,note_on,0,0,0,,,,,,,,,1,,71,0
130680,note_on,10,0,0,,,,,,,,,1,,52,100
130680,note_on,0,0,0,,,,,,,,,1,,73,100
130680,note_on,0,0,0,,,,,,,,,4,,52,100
130680,note_on,0,0,0,,,,,,,,,4,,73,100
130710,note_on,30,0,0,,,,,,,,,4,,73,0
130710,note_on,0,0,0,,,,,,,,,1,,73,0
130720,note_on,10,0,0,,,,,,,,,1,,76,100
130720,note_on,0,0,0,,,,,,,,,4,,76,100
130750,note_on,30,0,0,,,,,,,,,4,,76,0
130750,note_on,0,0,0,,,,,,,,,1,,52,0
130750,note_on,0,0,0,,,,,,,,,4,,52,0
130750,note_on,0,0,0,,,,,,,,,1,,76,0
130760,note_on,10,0,0,,,,,,,,,1,,81,100
130760,note_on,0,0,0,,,,,,,,,4,,81,100
130790,note_on,30,0,0,,,,,,,,,4,,81,0
130790,note_on,0,0,0,,,,,,,,,1,,81,0
130800,note_on,10,0,0,,,,,,,,,1,,73,100
130800,note_on,0,0,0,,,,,,,,,4,,73,100
130820,note_on,20,0,0,,,,,,,,,4,,73,0
130820,note_on,0,0,0,,,,,,,,,1,,73,0
130820,note_on,0,0,0,,,,,,,,,1,,71,100
130820,note_on,0,0,0,,,,,,,,,4,,71,100
130840,note_on,20,0,0,,,,,,,,,4,,71,0
130840,note_on,0,0,0,,,,,,,,,1,,71,0
130840,note_on,0,0,0,,,,,,,,,1,,73,100
130840,note_on,0,0,0,,,,,,,,,4,,73,100
130860,note_on,20,0,0,,,,,,,,,4,,73,0
130860,note_on,0,0,0,,,,,,,,,1,,73,0
130860,note_on,0,0,0,,,,,,,,,1,,71,100
130860,note_on,0,0,0,,,,,,,,,4,,71,100
130880,note_on,20,0,0,,,,,,,,,4,,71,0
130880,note_on,0,0,0,,,,,,,,,1,,71,0
130880,note_on,0,0,0,,,,,,,,,1,,69,100
130880,note_on,0,0,0,,,,,,,,,4,,69,100
130910,note_on,30,0,0,,,,,,,,,4,,69,0
130910,note_on,0,0,0,,,,,,,,,1,,69,0
130920,note_on,10,0,0,,,,,,,,,1,,40,100
130920,note_on,0,0,0,,,,,,,,,1,,68,100
130920,note_on,0,0,0,,,,,,,,,4,,40,100
130920,note_on,0,0,0,,,,,,,,,4,,68,100
130950,note_on,30,0,0,,,,,,,,,4,,68,0
130950,note_on,0,0,0,,,,,,,,,1,,68,0
130960,note_on,10,0,0,,,,,,,,,1,,71,100
130960,note_on,0,0,0,,,,,,,,,4,,71,100
130990,note_on,30,0,0,,,,,,,,,4,,71,0
130990,note_on,0,0,0,,,,,,,,,1,,40,0
130990,note_on,0,0,0,,,,,,,,,4,,40,0
130990,note_on,0,0,0,,,,,,,,,1,,71,0
131000,note_on,10,0,0,,,,,,,,,1,,76,100
131000,note_on,0,0,0,,,,,,,,,4,,76,100
131030,note_on,30,0,0,,,,,,,,,4,,76,0
131030,note_on,0,0,0,,,,,,,,,1,,76,0
131040,note_on,10,0,0,,,,,,,,,1,,80,100
131040,note_on,0,0,0,,,,,,,,,4,,80,100
131070,note_on,30,0,0,,,,,,,,,4,,80,0
131070,note_on,0,0,0,,,,,,,,,1,,80,0
131080,note_on,10,0,0,,,,,,,,,1,,78,100
131080,note_on,0,0,0,,,,,,,,,4,,78,100
131110,note_on,30,0,0,,,,,,,,,4,,78,0
131110,note_on,0,0,0,,,,,,,,,1,,78,0
131120,note_on,10,0,0,,,,,,,,,1,,76,100
131120,note_on,0,0,0,,,,,,,,,4,,76,100
131150,note_on,30,0,0,,,,,,,,,4,,76,0
131150,note_on,0,0,0,,,,,,,,,1,,76,0
131160,note_on,10,0,0,,,,,,,,,1,,57,100
131160,note_on,0,0,0,,,,,,,,,1,,85,100
131160,note_on,0,0,0,,,,,,,,,4,,57,100
131160,note_on,0,0,0,,,,,,,,,4,,85,100
131190,note_on,30,0,0,,,,,,,,,4,,85,0
131190,note_on,0,0,0,,,,,,,,,1,,85,0
131200,note_on,10,0,0,,,,,,,,,1,,83,100
131200,note_on,0,0,0,,,,,,,,,4,,83,100
131230,note_on,30,0,0,,,,,,,,,4,,83,0
131230,note_on,0,0,0,,,,,,,,,1,,57,0
131230,note_on,0,0,0,,,,,,,,,4,,57,0
131230,note_on,0,0,0,,,,,,,,,1,,83,0
131240,note_on,10,0,0,,,,,,,,,1,,81,100
131240,note_on,0,0,0,,,,,,,,,4,,81,100
131270,note_on,30,0,0,,,,,,,,,4,,81,0
131270,note_on,0,0,0,,,,,,,,,1,,81,0
131280,note_on,10,0,0,,,,,,,,,1,,80,100
131280,note_on,0,0,0,,,,,,,,,4,,80,100
131310,note_on,30,0,0,,,,,,,,,4,,80,0
131310,note_on,0,0,0,,,,,,,,,1,,80,0
131320,note_on,10,0,0,,,,,,,,,1,,78,100
131320,note_on,0,0,0,,,,,,,,,4,,78,100
131350,note_on,30,0,0,,,,,,,,,4,,78,0
131350,note_on,0,0,0,,,,,,,,,1,,78,0
131360,note_on,10,0,0,,,,,,,,,1,,76,100
131360,note_on,0,0,0,,,,,,,,,4,,76,100
131390,note_on,30,0,0,,,,,,,,,4,,76,0
131390,note_on,0,0,0,,,,,,,,,1,,76,0
131400,note_on,10,0,0,,,,,,,,,1,,59,100
131400,note_on,0,0,0,,,,,,,,,1,,75,100
131400,note_on,0,0,0,,,,,,,,,4,,59,100
131400,note_on,0,0,0,,,,,,,,,4,,75,100
131430,note_on,30,0,0,,,,,,,,,4,,75,0
131430,note_on,0,0,0,,,,,,,,,1,,75,0
131440,note_on,10,0,0,,,,,,,,,1,,73,100
131440,note_on,0,0,0,,,,,,,,,4,,73,100
131470,note_on,30,0,0,,,,,,,,,4,,73,0
131470,note_on,0,0,0,,,,,,,,,1,,59,0
131470,note_on,0,0,0,,,,,,,,,4,,59,0
131470,note_on,0,0,0,,,,,,,,,1,,73,0
131480,note_on,10,0,0,,,,,,,,,1,,71,100
131480,note_on,0,0,0,,,,,,,,,4,,71,100
131510,note_on,30,0,0,,,,,,,,,4,,71,0
131510,note_on,0,0,0,,,,,,,,,1,,71,0
131520,note_on,10,0,0,,,,,,,,,1,,69,100
131520,note_on,0,0,0,,,,,,,,,4,,69,100
131550,note_on,30,0,0,,,,,,,,,4,,69,0
131550,note_on,0,0,0,,,,,,,,,1,,69,0
131560,note_on,10,0,0,,,,,,,,,1,,68,100
131560,note_on,0,0,0,,,,,,,,,4,,68,100
131590,note_on,30,0,0,,,,,,,,,4,,68,0
131590,note_on,0,0,0,,,,,,,,,1,,68,0
131600,note_on,10,0,0,,,,,,,,,1,,66,100
131600,note_on,0,0,0,,,,,,,,,4,,66,100
131630,note_on,30,0,0,,,,,,,,,4,,66,0
131630,note_on,0,0,0,,,,,,,,,1,,66,0
131640,note_on,10,0,0,,,,,,,,,1,,47,100
131640,note_on,0,0,0,,,,,,,,,1,,68,100
131640,note_on,0,0,0,,,,,,,,,4,,47,100
131640,note_on,0,0,0,,,,,,,,,4,,68,100
131670,note_on,30,0,0,,,,,,,,,4,,68,0
131670,note_on,0,0,0,,,,,,,,,1,,68,0
131680,note_on,10,0,0,,,,,,,,,1,,71,100
131680,note_on,0,0,0,,,,,,,,,4,,71,100
131710,note_on,30,0,0,,,,,,,,,4,,71,0
131710,note_on,0,0,0,,,,,,,,,1,,47,0
131710,note_on,0,0,0,,,,,,,,,4,,47,0
131710,note_on,0,0,0,,,,,,,,,1,,71,0
131720,note_on,10,0,0,,,,,,,,,1,,76,100
131720,note_on,0,0,0,,,,,,,,,4,,76,100
131750,note_on,30,0,0,,,,,,,,,4,,76,0
131750,note_on,0,0,0,,,,,,,,,1,,76,0
131760,note_on,10,0,0,,,,,,,,,1,,68,100
131760,note_on,0,0,0,,,,,,,,,4,,68,100
131780,note_on,20,0,0,,,,,,,,,4,,68,0
131780,note_on,0,0,0,,,,,,,,,1,,68,0
131780,note_on,0,0,0,,,,,,,,,1,,66,100
131780,note_on,0,0,0,,,,,,,,,4,,66,100
131800,note_on,20,0,0,,,,,,,,,4,,66,0
131800,note_on,0,0,0,,,,,,,,,1,,66,0
131800,note_on,0,0,0,,,,,,,,,1,,68,100
131800,note_on,0,0,0,,,,,,,,,4,,68,100
131820,note_on,20,0,0,,,,,,,,,4,,68,0
131820,note_on,0,0,0,,,,,,,,,1,,68,0
131820,note_on,0,0,0,,,,,,,,,1,,66,100
131820,note_on,0,0,0,,,,,,,,,4,,66,100
131840,note_on,20,0,0,,,,,,,,,4,,66,0
131840,note_on,0,0,0,,,,,,,,,1,,66,0
131840,note_on,0,0,0,,,,,,,,,1,,64,100
131840,note_on,0,0,0,,,,,,,,,4,,64,100
131870,note_on,30,0,0,,,,,,,,,4,,64,0
131870,note_on,0,0,0,,,,,,,,,1,,64,0
131880,note_on,10,0,0,,,,,,,,,1,,59,100
131880,note_on,0,0,0,,,,,,,,,1,,63,100
131880,note_on,0,0,0,,,,,,,,,4,,59,100
131880,note_on,0,0,0,,,,,,,,,4,,63,100
131910,note_on,30,0,0,,,,,,,,,4,,63,0
131910,note_on,0,0,0,,,,,,,,,1,,63,0
131920,note_on,10,0,0,,,,,,,,,1,,66,100
131920,note_on,0,0,0,,,,,,,,,4,,66,100
131950,note_on,30,0,0,,,,,,,,,4,,66,0
131950,note_on,0,0,0,,,,,,,,,1,,59,0
131950,note_on,0,0,0,,,,,,,,,4,,59,0
131950,note_on,0,0,0,,,,,,,,,1,,66,0
131960,note_on,10,0,0,,,,,,,,,1,,71,100
131960,note_on,0,0,0,,,,,,,,,4,,71,100
131990,note_on,30,0,0,,,,,,,,,4,,71,0
131990,note_on,0,0,0,,,,,,,,,1,,71,0
132000,note_on,10,0,0,,,,,,,,,1,,69,100
132000,note_on,0,0,0,,,,,,,,,4,,69,100
132030,note_on,30,0,0,,,,,,,,,4,,69,0
132030,note_on,0,0,0,,,,,,,,,1,,69,0
132040,note_on,10,0,0,,,,,,,,,1,,68,100
132040,note_on,0,0,0,,,,,,,,,4,,68,100
132070,note_on,30,0,0,,,,,,,,,4,,68,0
132070,note_on,0,0,0,,,,,,,,,1,,68,0
132080,note_on,10,0,0,,,,,,,,,1,,66,100
132080,note_on,0,0,0,,,,,,,,,4,,66,100
132110,note_on,30,0,0,,,,,,,,,4,,66,0
132110,note_on,0,0,0,,,,,,,,,1,,66,0
132120,note_on,10,0,0,,,,,,,,,1,,68,100
132120,note_on,0,0,0,,,,,,,,,4,,68,100
132150,note_on,30,0,0,,,,,,,,,4,,68,0
132150,note_on,0,0,0,,,,,,,,,1,,68,0
132160,note_on,10,0,0,,,,,,,,,1,,71,100
132160,note_on,0,0,0,,,,,,,,,4,,71,100
132190,note_on,30,0,0,,,,,,,,,4,,71,0
132190,note_on,0,0,0,,,,,,,,,1,,71,0
132200,note_on,10,0,0,,,,,,,,,1,,76,100
132200,note_on,0,0,0,,,,,,,,,4,,76,100
132230,note_on,30,0,0,,,,,,,,,4,,76,0
132230,note_on,0,0,0,,,,,,,,,1,,76,0
132240,note_on,10,0,0,,,,,,,,,1,,69,100
132240,note_on,0,0,0,,,,,,,,,4,,69,100
132270,note_on,30,0,0,,,,,,,,,4,,69,0
132270,note_on,0,0,0,,,,,,,,,1,,69,0
132280,note_on,10,0,0,,,,,,,,,1,,75,100
132280,note_on,0,0,0,,,,,,,,,4,,75,100
132310,note_on,30,0,0,,,,,,,,,4,,75,0
132310,note_on,0,0,0,,,,,,,,,1,,75,0
132320,note_on,10,0,0,,,,,,,,,1,,78,100
132320,note_on,0,0,0,,,,,,,,,4,,78,100
132350,note_on,30,0,0,,,,,,,,,4,,78,0
132350,note_on,0,0,0,,,,,,,,,1,,78,0
132360,note_on,10,0,0,,,,,,,,,1,,71,100
132360,note_on,0,0,0,,,,,,,,,4,,71,100
132390,note_on,30,0,0,,,,,,,,,4,,71,0
132390,note_on,0,0,0,,,,,,,,,1,,71,0
132400,note_on,10,0,0,,,,,,,,,1,,76,100
132400,note_on,0,0,0,,,,,,,,,4,,76,100
132430,note_on,30,0,0,,,,,,,,,4,,76,0
132430,note_on,0,0,0,,,,,,,,,1,,76,0
132440,note_on,10,0,0,,,,,,,,,1,,80,100
132440,note_on,0,0,0,,,,,,,,,4,,80,100
132470,note_on,30,0,0,,,,,,,,,4,,80,0
132470,note_on,0,0,0,,,,,,,,,1,,80,0
132480,note_on,10,0,0,,,,,,,,,1,,73,100
132480,note_on,0,0,0,,,,,,,,,4,,73,100
132510,note_on,30,0,0,,,,,,,,,4,,73,0
132510,note_on,0,0,0,,,,,,,,,1,,73,0
132520,note_on,10,0,0,,,,,,,,,1,,76,100
132520,note_on,0,0,0,,,,,,,,,4,,76,100
132550,note_on,30,0,0,,,,,,,,,4,,76,0
132550,note_on,0,0,0,,,,,,,,,1,,76,0
132560,note_on,10,0,0,,,,,,,,,1,,81,100
132560,note_on,0,0,0,,,,,,,,,4,,81,100
132590,note_on,30,0,0,,,,,,,,,4,,81,0
132590,note_on,0,0,0,,,,,,,,,1,,81,0
132600,note_on,10,0,0,,,,,,,,,1,,75,100
132600,note_on,0,0,0,,,,,,,,,4,,75,100
132630,note_on,30,0,0,,,,,,,,,4,,75,0
132630,note_on,0,0,0,,,,,,,,,1,,75,0
132640,note_on,10,0,0,,,,,,,,,1,,78,100
132640,note_on,0,0,0,,,,,,,,,4,,78,100
132670,note_on,30,0,0,,,,,,,,,4,,78,0
132670,note_on,0,0,0,,,,,,,,,1,,78,0
132680,note_on,10,0,0,,,,,,,,,1,,81,100
132680,note_on,0,0,0,,,,,,,,,4,,81,100
132710,note_on,30,0,0,,,,,,,,,4,,81,0
132710,note_on,0,0,0,,,,,,,,,1,,81,0
132720,note_on,10,0,0,,,,,,,,,1,,76,100
132720,note_on,0,0,0,,,,,,,,,4,,76,100
132750,note_on,30,0,0,,,,,,,,,4,,76,0
132750,note_on,0,0,0,,,,,,,,,1,,76,0
132760,note_on,10,0,0,,,,,,,,,1,,80,100
132760,note_on,0,0,0,,,,,,,,,4,,80,100
132790,note_on,30,0,0,,,,,,,,,4,,80,0
132790,note_on,0,0,0,,,,,,,,,1,,80,0
132800,note_on,10,0,0,,,,,,,,,1,,83,100
132800,note_on,0,0,0,,,,,,,,,4,,83,100
132830,note_on,30,0,0,,,,,,,,,4,,83,0
132830,note_on,0,0,0,,,,,,,,,1,,83,0
132840,note_on,10,0,0,,,,,,,,,1,,47,100
132840,note_on,0,0,0,,,,,,,,,1,,51,100
132840,note_on,0,0,0,,,,,,,,,1,,54,100
132840,note_on,0,0,0,,,,,,,,,1,,59,100
132840,note_on,0,0,0,,,,,,,,,1,,75,100
132840,note_on,0,0,0,,,,,,,,,4,,47,100
132840,note_on,0,0,0,,,,,,,,,4,,51,100
132840,note_on,0,0,0,,,,,,,,,4,,54,100
132840,note_on,0,0,0,,,,,,,,,4,,59,100
132840,note_on,0,0,0,,,,,,,,,4,,75,100
132870,note_on,30,0,0,,,,,,,,,4,,75,0
132870,note_on,0,0,0,,,,,,,,,1,,75,0
132880,note_on,10,0,0,,,,,,,,,1,,83,100
132880,note_on,0,0,0,,,,,,,,,4,,83,100
132910,note_on,30,0,0,,,,,,,,,4,,83,0
132910,note_on,0,0,0,,,,,,,,,4,,59,0
132910,note_on,0,0,0,,,,,,,,,4,,54,0
132910,note_on,0,0,0,,,,,,,,,1,,47,0
132910,note_on,0,0,0,,,,,,,,,4,,47,0
132910,note_on,0,0,0,,,,,,,,,1,,51,0
132910,note_on,0,0,0,,,,,,,,,1,,59,0
132910,note_on,0,0,0,,,,,,,,,1,,54,0
132910,note_on,0,0,0,,,,,,,,,4,,51,0
132910,note_on,0,0,0,,,,,,,,,1,,83,0
132920,note_on,10,0,0,,,,,,,,,1,,81,100
132920,note_on,0,0,0,,,,,,,,,4,,81,100
132950,note_on,30,0,0,,,,,,,,,4,,81,0
132950,note_on,0,0,0,,,,,,,,,1,,81,0
132960,note_on,10,0,0,,,,,,,,,1,,80,100
132960,note_on,0,0,0,,,,,,,,,4,,80,100
132990,note_on,30,0,0,,,,,,,,,4,,80,0
132990,note_on,0,0,0,,,,,,,,,1,,80,0
133000,note_on,10,0,0,,,,,,,,,1,,78,100
133000,note_on,0,0,0,,,,,,,,,4,,78,100
133030,note_on,30,0,0,,,,,,,,,4,,78,0
133030,note_on,0,0,0,,,,,,,,,1,,78,0
133040,note_on,10,0,0,,,,,,,,,1,,76,100
133040,note_on,0,0,0,,,,,,,,,4,,76,100
133070,note_on,30,0,0,,,,,,,,,4,,76,0
133070,note_on,0,0,0,,,,,,,,,1,,76,0
133080,note_on,10,0,0,,,,,,,,,1,,75,100
133080,note_on,0,0,0,,,,,,,,,4,,75,100
133110,note_on,30,0,0,,,,,,,,,4,,75,0
133110,note_on,0,0,0,,,,,,,,,1,,75,0
133120,note_on,10,0,0,,,,,,,,,1,,73,100
133120,note_on,0,0,0,,,,,,,,,4,,73,100
133150,note_on,30,0,0,,,,,,,,,4,,73,0
133150,note_on,0,0,0,,,,,,,,,1,,73,0
133160,note_on,10,0,0,,,,,,,,,1,,71,100
133160,note_on,0,0,0,,,,,,,,,4,,71,100
133190,note_on,30,0,0,,,,,,,,,4,,71,0
133190,note_on,0,0,0,,,,,,,,,1,,71,0
133200,note_on,10,0,0,,,,,,,,,1,,69,100
133200,note_on,0,0,0,,,,,,,,,4,,69,100
133230,note_on,30,0,0,,,,,,,,,4,,69,0
133230,note_on,0,0,0,,,,,,,,,1,,69,0
133240,note_on,10,0,0,,,,,,,,,1,,68,100
133240,note_on,0,0,0,,,,,,,,,4,,68,100
133260,note_on,20,0,0,,,,,,,,,5,,71,100
133260,note_on,0,0,0,,,,,,,,,6,,63,100
133260,note_on,0,0,0,,,,,,,,,7,,63,100
133260,note_on,0,0,0,,,,,,,,,13,,71,100
133270,note_on,10,0,0,,,,,,,,,4,,68,0
133270,note_on,0,0,0,,,,,,,,,1,,68,0
133280,note_on,10,0,0,,,,,,,,,1,,66,100
133280,note_on,0,0,0,,,,,,,,,4,,66,100
133290,note_on,10,0,0,,,,,,,,,7,,63,0
133290,note_on,0,0,0,,,,,,,,,5,,71,0
133290,note_on,0,0,0,,,,,,,,,6,,63,0
133290,note_on,0,0,0,,,,,,,,,13,,71,0
133310,note_on,20,0,0,,,,,,,,,4,,66,0
133310,note_on,0,0,0,,,,,,,,,1,,66,0
133320,note_on,10,0,0,,,,,,,,,0,,56,100
133320,note_on,0,0,0,,,,,,,,,0,,64,100
133320,note_on,0,0,0,,,,,,,,,0,,59,100
133320,note_on,0,0,0,,,,,,,,,0,,52,100
133320,note_on,0,0,0,,,,,,,,,0,,78,100
133320,note_on,0,0,0,,,,,,,,,3,,78,100
133320,note_on,0,0,0,,,,,,,,,5,,78,100
133320,note_on,0,0,0,,,,,,,,,6,,68,100
133320,note_on,0,0,0,,,,,,,,,7,,68,100
133320,note_on,0,0,0,,,,,,,,,8,,52,100
133320,note_on,0,0,0,,,,,,,,,10,,40,100
133320,note_on,0,0,0,,,,,,,,,13,,78,100
133320,note_on,0,0,0,,,,,,,,,14,,52,100
133320,note_on,0,0,0,,,,,,,,,15,,52,100
133335,note_on,15,0,0,,,,,,,,,13,,78,0
133335,note_on,0,0,0,,,,,,,,,5,,78,0
133335,note_on,0,0,0,,,,,,,,,3,,78,0
133335,note_on,0,0,0,,,,,,,,,0,,78,0
133335,note_on,0,0,0,,,,,,,,,0,,76,100
133335,note_on,0,0,0,,,,,,,,,3,,76,100
133335,note_on,0,0,0,,,,,,,,,5,,76,100
133335,note_on,0,0,0,,,,,,,,,13,,76,100
133350,note_on,15,0,0,,,,,,,,,13,,76,0
133350,note_on,0,0,0,,,,,,,,,5,,76,0
133350,note_on,0,0,0,,,,,,,,,0,,76,0
133350,note_on,0,0,0,,,,,,,,,3,,76,0
133350,note_on,0,0,0,,,,,,,,,0,,78,100
133350,note_on,0,0,0,,,,,,,,,3,,78,100
133350,note_on,0,0,0,,,,,,,,,5,,78,100
133350,note_on,0,0,0,,,,,,,,,13,,78,100
133365,note_on,15,0,0,,,,,,,,,13,,78,0
133365,note_on,0,0,0,,,,,,,,,5,,78,0
133365,note_on,0,0,0,,,,,,,,,0,,78,0
133365,note_on,0,0,0,,,,,,,,,3,,78,0
133365,note_on,0,0,0,,,,,,,,,0,,76,100
133365,note_on,0,0,0,,,,,,,,,3,,76,100
133365,note_on,0,0,0,,,,,,,,,5,,76,100
133365,note_on,0,0,0,,,,,,,,,13,,76,100
133380,note_on,15,0,0,,,,,,,,,13,,76,0
133380,note_on,0,0,0,,,,,,,,,14,,52,0
133380,note_on,0,0,0,,,,,,,,,15,,52,0
133380,note_on,0,0,0,,,,,,,,,10,,40,0
133380,note_on,0,0,0,,,,,,,,,8,,52,0
133380,note_on,0,0,0,,,,,,,,,5,,76,0
133380,note_on,0,0,0,,,,,,,,,0,,76,0
133380,note_on,0,0,0,,,,,,,,,3,,76,0
133380,note_on,0,0,0,,,,,,,,,0,,78,100
133380,note_on,0,0,0,,,,,,,,,3,,78,100
133380,note_on,0,0,0,,,,,,,,,5,,78,100
133380,note_on,0,0,0,,,,,,,,,13,,78,100
133395,note_on,15,0,0,,,,,,,,,13,,78,0
133395,note_on,0,0,0,,,,,,,,,5,,78,0
133395,note_on,0,0,0,,,,,,,,,0,,78,0
133395,note_on,0,0,0,,,,,,,,,3,,78,0
133395,note_on,0,0,0,,,,,,,,,0,,76,100
133395,note_on,0,0,0,,,,,,,,,3,,76,100
133395,note_on,0,0,0,,,,,,,,,5,,76,100
133395,note_on,0,0,0,,,,,,,,,13,,76,100
133410,note_on,15,0,0,,,,,,,,,13,,76,0
133410,note_on,0,0,0,,,,,,,,,5,,76,0
133410,note_on,0,0,0,,,,,,,,,0,,76,0
133410,note_on,0,0,0,,,,,,,,,3,,76,0
133410,note_on,0,0,0,,,,,,,,,6,,68,0
133410,note_on,0,0,0,,,,,,,,,7,,68,0
133410,note_on,0,0,0,,,,,,,,,0,,78,100
133410,note_on,0,0,0,,,,,,,,,3,,78,100
133410,note_on,0,0,0,,,,,,,,,5,,78,100
133410,note_on,0,0,0,,,,,,,,,13,,78,100
133425,note_on,15,0,0,,,,,,,,,13,,78,0
133425,note_on,0,0,0,,,,,,,,,5,,78,0
133425,note_on,0,0,0,,,,,,,,,0,,78,0
133425,note_on,0,0,0,,,,,,,,,3,,78,0
133425,note_on,0,0,0,,,,,,,,,0,,76,100
133425,note_on,0,0,0,,,,,,,,,3,,76,100
133425,note_on,0,0,0,,,,,,,,,5,,76,100
133425,note_on,0,0,0,,,,,,,,,13,,76,100
133440,note_on,15,0,0,,,,,,,,,13,,76,0
133440,note_on,0,0,0,,,,,,,,,0,,56,0
133440,note_on,0,0,0,,,,,,,,,0,,76,0
133440,note_on,0,0,0,,,,,,,,,0,,59,0
133440,note_on,0,0,0,,,,,,,,,0,,52,0
133440,note_on,0,0,0,,,,,,,,,0,,64,0
133440,note_on,0,0,0,,,,,,,,,3,,76,0
133440,note_on,0,0,0,,,,,,,,,5,,76,0
133440,note_on,0,0,0,,,,,,,,,0,,54,100
133440,note_on,0,0,0,,,,,,,,,0,,78,100
133440,note_on,0,0,0,,,,,,,,,3,,78,100
133440,note_on,0,0,0,,,,,,,,,5,,78,100
133440,note_on,0,0,0,,,,,,,,,6,,69,100
133440,note_on,0,0,0,,,,,,,,,7,,69,100
133440,note_on,0,0,0,,,,,,,,,8,,54,100
133440,note_on,0,0,0,,,,,,,,,10,,42,100
133440,note_on,0,0,0,,,,,,,,,13,,78,100
133440,note_on,0,0,0,,,,,,,,,14,,54,100
133440,note_on,0,0,0,,,,,,,,,15,,54,100
133455,note_on,15,0,0,,,,,,,,,13,,78,0
133455,note_on,0,0,0,,,,,,,,,5,,78,0
133455,note_on,0,0,0,,,,,,,,,3,,78,0
133455,note_on,0,0,0,,,,,,,,,0,,78,0
133455,note_on,0,0,0,,,,,,,,,0,,76,100
133455,note_on,0,0,0,,,,,,,,,3,,76,100
133455,note_on,0,0,0,,,,,,,,,5,,76,100
133455,note_on,0,0,0,,,,,,,,,13,,76,100
133470,note_on,15,0,0,,,,,,,,,13,,76,0
133470,note_on,0,0,0,,,,,,,,,0,,76,0
133470,note_on,0,0,0,,,,,,,,,5,,76,0
133470,note_on,0,0,0,,,,,,,,,3,,76,0
133500,note_on,30,0,0,,,,,,,,,10,,42,0
133500,note_on,0,0,0,,,,,,,,,14,,54,0
133500,note_on,0,0,0,,,,,,,,,15,,54,0
133500,note_on,0,0,0,,,,,,,,,8,,54,0
133500,note_on,0,0,0,,,,,,,,,0,,75,100
133500,note_on,0,0,0,,,,,,,,,3,,75,100
133500,note_on,0,0,0,,,,,,,,,5,,75,100
133500,note_on,0,0,0,,,,,,,,,13,,75,100
133515,note_on,15,0,0,,,,,,,,,0,,54,0
133530,note_on,15,0,0,,,,,,,,,5,,75,0
133530,note_on,0,0,0,,,,,,,,,6,,69,0
133530,note_on,0,0,0,,,,,,,,,0,,75,0
133530,note_on,0,0,0,,,,,,,,,7,,69,0
133530,note_on,0,0,0,,,,,,,,,13,,75,0
133530,note_on,0,0,0,,,,,,,,,3,,75,0
133530,note_on,0,0,0,,,,,,,,,0,,73,100
133530,note_on,0,0,0,,,,,,,,,3,,73,100
133530,note_on,0,0,0,,,,,,,,,5,,73,100
133530,note_on,0,0,0,,,,,,,,,13,,73,100
133545,note_on,15,0,0,,,,,,,,,13,,73,0
133545,note_on,0,0,0,,,,,,,,,0,,73,0
133545,note_on,0,0,0,,,,,,,,,3,,73,0
133545,note_on,0,0,0,,,,,,,,,5,,73,0
133560,note_on,15,0,0,,,,,,,,,0,,56,100
133560,note_on,0,0,0,,,,,,,,,0,,71,100
133560,note_on,0,0,0,,,,,,,,,3,,71,100
133560,note_on,0,0,0,,,,,,,,,5,,71,100
133560,note_on,0,0,0,,,,,,,,,6,,71,100
133560,note_on,0,0,0,,,,,,,,,7,,71,100
133560,note_on,0,0,0,,,,,,,,,8,,56,100
133560,note_on,0,0,0,,,,,,,,,10,,44,100
133560,note_on,0,0,0,,,,,,,,,13,,71,100
133560,note_on,0,0,0,,,,,,,,,14,,56,100
133560,note_on,0,0,0,,,,,,,,,15,,56,100
133590,note_on,30,0,0,,,,,,,,,13,,71,0
133590,note_on,0,0,0,,,,,,,,,5,,71,0
133590,note_on,0,0,0,,,,,,,,,3,,71,0
133590,note_on,0,0,0,,,,,,,,,0,,71,0
133620,note_on,30,0,0,,,,,,,,,14,,56,0
133620,note_on,0,0,0,,,,,,,,,10,,44,0
133620,note_on,0,0,0,,,,,,,,,15,,56,0
133620,note_on,0,0,0,,,,,,,,,8,,56,0
133620,note_on,0,0,0,,,,,,,,,0,,76,100
133620,note_on,0,0,0,,,,,,,,,3,,76,100
133620,note_on,0,0,0,,,,,,,,,5,,76,100
133620,note_on,0,0,0,,,,,,,,,13,,76,100
133635,note_on,15,0,0,,,,,,,,,0,,56,0
133650,note_on,15,0,0,,,,,,,,,5,,76,0
133650,note_on,0,0,0,,,,,,,,,6,,71,0
133650,note_on,0,0,0,,,,,,,,,0,,76,0
133650,note_on,0,0,0,,,,,,,,,7,,71,0
133650,note_on,0,0,0,,,,,,,,,13,,76,0
133650,note_on,0,0,0,,,,,,,,,3,,76,0
133680,note_on,30,0,0,,,,,,,,,0,,52,100
133680,note_on,0,0,0,,,,,,,,,6,,68,100
133680,note_on,0,0,0,,,,,,,,,7,,68,100
133680,note_on,0,0,0,,,,,,,,,8,,52,100
133680,note_on,0,0,0,,,,,,,,,10,,40,100
133680,note_on,0,0,0,,,,,,,,,14,,52,100
133680,note_on,0,0,0,,,,,,,,,15,,52,100
133740,note_on,60,0,0,,,,,,,,,15,,52,0
133740,note_on,0,0,0,,,,,,,,,10,,40,0
133740,note_on,0,0,0,,,,,,,,,8,,52,0
133740,note_on,0,0,0,,,,,,,,,14,,52,0
133740,note_on,0,0,0,,,,,,,,,0,,64,100
133740,note_on,0,0,0,,,,,,,,,3,,64,100
133740,note_on,0,0,0,,,,,,,,,5,,64,100
133740,note_on,0,0,0,,,,,,,,,13,,64,100
133755,note_on,15,0,0,,,,,,,,,0,,52,0
133770,note_on,15,0,0,,,,,,,,,5,,64,0
133770,note_on,0,0,0,,,,,,,,,7,,68,0
133770,note_on,0,0,0,,,,,,,,,0,,64,0
133770,note_on,0,0,0,,,,,,,,,6,,68,0
133770,note_on,0,0,0,,,,,,,,,13,,64,0
133770,note_on,0,0,0,,,,,,,,,3,,64,0
133800,note_on,30,0,0,,,,,,,,,0,,49,100
133800,note_on,0,0,0,,,,,,,,,0,,71,100
133800,note_on,0,0,0,,,,,,,,,3,,71,100
133800,note_on,0,0,0,,,,,,,,,5,,71,100
133800,note_on,0,0,0,,,,,,,,,6,,64,100
133800,note_on,0,0,0,,,,,,,,,7,,64,100
133800,note_on,0,0,0,,,,,,,,,8,,49,100
133800,note_on,0,0,0,,,,,,,,,10,,37,100
133800,note_on,0,0,0,,,,,,,,,13,,71,100
133800,note_on,0,0,0,,,,,,,,,14,,49,100
133800,note_on,0,0,0,,,,,,,,,15,,49,100
133815,note_on,15,0,0,,,,,,,,,13,,71,0
133815,note_on,0,0,0,,,,,,,,,5,,71,0
133815,note_on,0,0,0,,,,,,,,,3,,71,0
133815,note_on,0,0,0,,,,,,,,,0,,71,0
133815,note_on,0,0,0,,,,,,,,,0,,69,100
133815,note_on,0,0,0,,,,,,,,,3,,69,100
133815,note_on,0,0,0,,,,,,,,,5,,69,100
133815,note_on,0,0,0,,,,,,,,,13,,69,100
133830,note_on,15,0,0,,,,,,,,,13,,69,0
133830,note_on,0,0,0,,,,,,,,,0,,69,0
133830,note_on,0,0,0,,,,,,,,,5,,69,0
133830,note_on,0,0,0,,,,,,,,,3,,69,0
133830,note_on,0,0,0,,,,,,,,,0,,71,100
133830,note_on,0,0,0,,,,,,,,,3,,71,100
133830,note_on,0,0,0,,,,,,,,,5,,71,100
133830,note_on,0,0,0,,,,,,,,,13,,71,100
133845,note_on,15,0,0,,,,,,,,,13,,71,0
133845,note_on,0,0,0,,,,,,,,,0,,71,0
133845,note_on,0,0,0,,,,,,,,,5,,71,0
133845,note_on,0,0,0,,,,,,,,,3,,71,0
133845,note_on,0,0,0,,,,,,,,,0,,69,100
133845,note_on,0,0,0,,,,,,,,,3,,69,100
133845,note_on,0,0,0,,,,,,,,,5,,69,100
133845,note_on,0,0,0,,,,,,,,,13,,69,100
133860,note_on,15,0,0,,,,,,,,,13,,69,0
133860,note_on,0,0,0,,,,,,,,,0,,69,0
133860,note_on,0,0,0,,,,,,,,,15,,49,0
133860,note_on,0,0,0,,,,,,,,,10,,37,0
133860,note_on,0,0,0,,,,,,,,,5,,69,0
133860,note_on,0,0,0,,,,,,,,,14,,49,0
133860,note_on,0,0,0,,,,,,,,,3,,69,0
133860,note_on,0,0,0,,,,,,,,,8,,49,0
133860,note_on,0,0,0,,,,,,,,,0,,71,100
133860,note_on,0,0,0,,,,,,,,,3,,71,100
133860,note_on,0,0,0,,,,,,,,,5,,71,100
133860,note_on,0,0,0,,,,,,,,,13,,71,100
133875,note_on,15,0,0,,,,,,,,,13,,71,0
133875,note_on,0,0,0,,,,,,,,,3,,71,0
133875,note_on,0,0,0,,,,,,,,,0,,71,0
133875,note_on,0,0,0,,,,,,,,,0,,49,0
133875,note_on,0,0,0,,,,,,,,,5,,71,0
133875,note_on,0,0,0,,,,,,,,,0,,69,100
133875,note_on,0,0,0,,,,,,,,,3,,69,100
133875,note_on,0,0,0,,,,,,,,,5,,69,100
133875,note_on,0,0,0,,,,,,,,,13,,69,100
133890,note_on,15,0,0,,,,,,,,,13,,69,0
133890,note_on,0,0,0,,,,,,,,,7,,64,0
133890,note_on,0,0,0,,,,,,,,,0,,69,0
133890,note_on,0,0,0,,,,,,,,,6,,64,0
133890,note_on,0,0,0,,,,,,,,,5,,69,0
133890,note_on,0,0,0,,,,,,,,,3,,69,0
133890,note_on,0,0,0,,,,,,,,,0,,71,100
133890,note_on,0,0,0,,,,,,,,,3,,71,100
133890,note_on,0,0,0,,,,,,,,,5,,71,100
133890,note_on,0,0,0,,,,,,,,,13,,71,100
133905,note_on,15,0,0,,,,,,,,,13,,71,0
133905,note_on,0,0,0,,,,,,,,,0,,71,0
133905,note_on,0,0,0,,,,,,,,,3,,71,0
133905,note_on,0,0,0,,,,,,,,,5,,71,0
133905,note_on,0,0,0,,,,,,,,,0,,69,100
133905,note_on,0,0,0,,,,,,,,,3,,69,100
133905,note_on,0,0,0,,,,,,,,,5,,69,100
133905,note_on,0,0,0,,,,,,,,,13,,69,100
133920,note_on,15,0,0,,,,,,,,,13,,69,0
133920,note_on,0,0,0,,,,,,,,,0,,69,0
133920,note_on,0,0,0,,,,,,,,,3,,69,0
133920,note_on,0,0,0,,,,,,,,,5,,69,0
133920,note_on,0,0,0,,,,,,,,,0,,51,100
133920,note_on,0,0,0,,,,,,,,,0,,71,100
133920,note_on,0,0,0,,,,,,,,,3,,71,100
133920,note_on,0,0,0,,,,,,,,,5,,71,100
133920,note_on,0,0,0,,,,,,,,,6,,66,100
133920,note_on,0,0,0,,,,,,,,,7,,66,100
133920,note_on,0,0,0,,,,,,,,,8,,51,100
133920,note_on,0,0,0,,,,,,,,,10,,39,100
133920,note_on,0,0,0,,,,,,,,,13,,71,100
133920,note_on,0,0,0,,,,,,,,,14,,51,100
133920,note_on,0,0,0,,,,,,,,,15,,51,100
133935,note_on,15,0,0,,,,,,,,,13,,71,0
133935,note_on,0,0,0,,,,,,,,,5,,71,0
133935,note_on,0,0,0,,,,,,,,,3,,71,0
133935,note_on,0,0,0,,,,,,,,,0,,71,0
133935,note_on,0,0,0,,,,,,,,,0,,69,100
133935,note_on,0,0,0,,,,,,,,,3,,69,100
133935,note_on,0,0,0,,,,,,,,,5,,69,100
133935,note_on,0,0,0,,,,,,,,,13,,69,100
133950,note_on,15,0,0,,,,,,,,,13,,69,0
133950,note_on,0,0,0,,,,,,,,,0,,69,0
133950,note_on,0,0,0,,,,,,,,,5,,69,0
133950,note_on,0,0,0,,,,,,,,,3,,69,0
133980,note_on,30,0,0,,,,,,,,,10,,39,0
133980,note_on,0,0,0,,,,,,,,,14,,51,0
133980,note_on,0,0,0,,,,,,,,,15,,51,0
133980,note_on,0,0,0,,,,,,,,,8,,51,0
133980,note_on,0,0,0,,,,,,,,,0,,68,100
133980,note_on,0,0,0,,,,,,,,,3,,68,100
133980,note_on,0,0,0,,,,,,,,,5,,68,100
133980,note_on,0,0,0,,,,,,,,,13,,68,100
133995,note_on,15,0,0,,,,,,,,,0,,51,0
134010,note_on,15,0,0,,,,,,,,,5,,68,0
134010,note_on,0,0,0,,,,,,,,,6,,66,0
134010,note_on,0,0,0,,,,,,,,,0,,68,0
134010,note_on,0,0,0,,,,,,,,,7,,66,0
134010,note_on,0,0,0,,,,,,,,,13,,68,0
134010,note_on,0,0,0,,,,,,,,,3,,68,0
134010,note_on,0,0,0,,,,,,,,,0,,66,100
134010,note_on,0,0,0,,,,,,,,,3,,66,100
134010,note_on,0,0,0,,,,,,,,,5,,66,100
134010,note_on,0,0,0,,,,,,,,,13,,66,100
134025,note_on,15,0,0,,,,,,,,,13,,66,0
134025,note_on,0,0,0,,,,,,,,,0,,66,0
134025,note_on,0,0,0,,,,,,,,,3,,66,0
134025,note_on,0,0,0,,,,,,,,,5,,66,0
134040,note_on,15,0,0,,,,,,,,,0,,52,100
134040,note_on,0,0,0,,,,,,,,,0,,68,100
134040,note_on,0,0,0,,,,,,,,,3,,68,100
134040,note_on,0,0,0,,,,,,,,,5,,68,100
134040,note_on,0,0,0,,,,,,,,,6,,59,100
134040,note_on,0,0,0,,,,,,,,,7,,59,100
134040,note_on,0,0,0,,,,,,,,,8,,52,100
134040,note_on,0,0,0,,,,,,,,,10,,40,100
134040,note_on,0,0,0,,,,,,,,,13,,68,100
134040,note_on,0,0,0,,,,,,,,,14,,52,100
134040,note_on,0,0,0,,,,,,,,,15,,52,100
134070,note_on,30,0,0,,,,,,,,,13,,68,0
134070,note_on,0,0,0,,,,,,,,,5,,68,0
134070,note_on,0,0,0,,,,,,,,,3,,68,0
134070,note_on,0,0,0,,,,,,,,,0,,68,0
134100,note_on,30,0,0,,,,,,,,,14,,52,0
134100,note_on,0,0,0,,,,,,,,,10,,40,0
134100,note_on,0,0,0,,,,,,,,,15,,52,0
134100,note_on,0,0,0,,,,,,,,,8,,52,0
134100,note_on,0,0,0,,,,,,,,,0,,83,100
134100,note_on,0,0,0,,,,,,,,,3,,83,100
134100,note_on,0,0,0,,,,,,,,,5,,83,100
134100,note_on,0,0,0,,,,,,,,,13,,83,100
134115,note_on,15,0,0,,,,,,,,,0,,52,0
134130,note_on,15,0,0,,,,,,,,,5,,83,0
134130,note_on,0,0,0,,,,,,,,,6,,59,0
134130,note_on,0,0,0,,,,,,,,,0,,83,0
134130,note_on,0,0,0,,,,,,,,,7,,59,0
134130,note_on,0,0,0,,,,,,,,,13,,83,0
134130,note_on,0,0,0,,,,,,,,,3,,83,0
134160,note_on,30,0,0,,,,,,,,,0,,56,100
134160,note_on,0,0,0,,,,,,,,,6,,64,100
134160,note_on,0,0,0,,,,,,,,,7,,64,100
134160,note_on,0,0,0,,,,,,,,,8,,56,100
134160,note_on,0,0,0,,,,,,,,,10,,44,100
134160,note_on,0,0,0,,,,,,,,,14,,56,100
134160,note_on,0,0,0,,,,,,,,,15,,56,100
134220,note_on,60,0,0,,,,,,,,,15,,56,0
134220,note_on,0,0,0,,,,,,,,,10,,44,0
134220,note_on,0,0,0,,,,,,,,,8,,56,0
134220,note_on,0,0,0,,,,,,,,,14,,56,0
134220,note_on,0,0,0,,,,,,,,,0,,71,100
134220,note_on,0,0,0,,,,,,,,,3,,71,100
134220,note_on,0,0,0,,,,,,,,,5,,71,100
134220,note_on,0,0,0,,,,,,,,,13,,71,100
134235,note_on,15,0,0,,,,,,,,,0,,56,0
134250,note_on,15,0,0,,,,,,,,,5,,71,0
134250,note_on,0,0,0,,,,,,,,,7,,64,0
134250,note_on,0,0,0,,,,,,,,,0,,71,0
134250,note_on,0,0,0,,,,,,,,,6,,64,0
134250,note_on,0,0,0,,,,,,,,,13,,71,0
134250,note_on,0,0,0,,,,,,,,,3,,71,0
134280,note_on,30,0,0,,,,,,,,,0,,57,100
134280,note_on,0,0,0,,,,,,,,,0,,73,100
134280,note_on,0,0,0,,,,,,,,,3,,73,100
134280,note_on,0,0,0,,,,,,,,,5,,73,100
134280,note_on,0,0,0,,,,,,,,,6,,64,100
134280,note_on,0,0,0,,,,,,,,,7,,64,100
134280,note_on,0,0,0,,,,,,,,,8,,57,100
134280,note_on,0,0,0,,,,,,,,,10,,45,100
134280,note_on,0,0,0,,,,,,,,,13,,73,100
134280,note_on,0,0,0,,,,,,,,,14,,57,100
134280,note_on,0,0,0,,,,,,,,,15,,57,100
134310,note_on,30,0,0,,,,,,,,,13,,73,0
134310,note_on,0,0,0,,,,,,,,,5,,73,0
134310,note_on,0,0,0,,,,,,,,,3,,73,0
134310,note_on,0,0,0,,,,,,,,,0,,73,0
134340,note_on,30,0,0,,,,,,,,,14,,57,0
134340,note_on,0,0,0,,,,,,,,,10,,45,0
134340,note_on,0,0,0,,,,,,,,,15,,57,0
134340,note_on,0,0,0,,,,,,,,,8,,57,0
134340,note_on,0,0,0,,,,,,,,,0,,81,100
134340,note_on,0,0,0,,,,,,,,,3,,81,100
134340,note_on,0,0,0,,,,,,,,,5,,81,100
134340,note_on,0,0,0,,,,,,,,,13,,81,100
134355,note_on,15,0,0,,,,,,,,,0,,57,0
134370,note_on,15,0,0,,,,,,,,,5,,81,0
134370,note_on,0,0,0,,,,,,,,,6,,64,0
134370,note_on,0,0,0,,,,,,,,,0,,81,0
134370,note_on,0,0,0,,,,,,,,,7,,64,0
134370,note_on,0,0,0,,,,,,,,,13,,81,0
134370,note_on,0,0,0,,,,,,,,,3,,81,0
134400,note_on,30,0,0,,,,,,,,,0,,54,100
134400,note_on,0,0,0,,,,,,,,,6,,66,100
134400,note_on,0,0,0,,,,,,,,,7,,66,100
134400,note_on,0,0,0,,,,,,,,,8,,54,100
134400,note_on,0,0,0,,,,,,,,,10,,42,100
134400,note_on,0,0,0,,,,,,,,,14,,54,100
134400,note_on,0,0,0,,,,,,,,,15,,54,100
134460,note_on,60,0,0,,,,,,,,,15,,54,0
134460,note_on,0,0,0,,,,,,,,,10,,42,0
134460,note_on,0,0,0,,,,,,,,,8,,54,0
134460,note_on,0,0,0,,,,,,,,,14,,54,0
134460,note_on,0,0,0,,,,,,,,,0,,69,100
134460,note_on,0,0,0,,,,,,,,,3,,69,100
134460,note_on,0,0,0,,,,,,,,,5,,69,100
134460,note_on,0,0,0,,,,,,,,,13,,69,100
134475,note_on,15,0,0,,,,,,,,,0,,54,0
134490,note_on,15,0,0,,,,,,,,,5,,69,0
134490,note_on,0,0,0,,,,,,,,,7,,66,0
134490,note_on,0,0,0,,,,,,,,,0,,69,0
134490,note_on,0,0,0,,,,,,,,,6,,66,0
134490,note_on,0,0,0,,,,,,,,,13,,69,0
134490,note_on,0,0,0,,,,,,,,,3,,69,0
134520,note_on,30,0,0,,,,,,,,,0,,51,100
134520,note_on,0,0,0,,,,,,,,,0,,71,100
134520,note_on,0,0,0,,,,,,,,,3,,71,100
134520,note_on,0,0,0,,,,,,,,,5,,71,100
134520,note_on,0,0,0,,,,,,,,,6,,66,100
134520,note_on,0,0,0,,,,,,,,,7,,66,100
134520,note_on,0,0,0,,,,,,,,,8,,51,100
134520,note_on,0,0,0,,,,,,,,,10,,39,100
134520,note_on,0,0,0,,,,,,,,,13,,71,100
134520,note_on,0,0,0,,,,,,,,,14,,51,100
134520,note_on,0,0,0,,,,,,,,,15,,51,100
134550,note_on,30,0,0,,,,,,,,,13,,71,0
134550,note_on,0,0,0,,,,,,,,,5,,71,0
134550,note_on,0,0,0,,,,,,,,,3,,71,0
134550,note_on,0,0,0,,,,,,,,,0,,71,0
134580,note_on,30,0,0,,,,,,,,,14,,51,0
134580,note_on,0,0,0,,,,,,,,,10,,39,0
134580,note_on,0,0,0,,,,,,,,,15,,51,0
134580,note_on,0,0,0,,,,,,,,,8,,51,0
134580,note_on,0,0,0,,,,,,,,,0,,80,100
134580,note_on,0,0,0,,,,,,,,,3,,80,100
134580,note_on,0,0,0,,,,,,,,,5,,80,100
134580,note_on,0,0,0,,,,,,,,,13,,80,100
134595,note_on,15,0,0,,,,,,,,,0,,51,0
134610,note_on,15,0,0,,,,,,,,,5,,80,0
134610,note_on,0,0,0,,,,,,,,,6,,66,0
134610,note_on,0,0,0,,,,,,,,,0,,80,0
134610,note_on,0,0,0,,,,,,,,,7,,66,0
134610,note_on,0,0,0,,,,,,,,,13,,80,0
134610,note_on,0,0,0,,,,,,,,,3,,80,0
134640,note_on,30,0,0,,,,,,,,,0,,47,100
134640,note_on,0,0,0,,,,,,,,,6,,63,100
134640,note_on,0,0,0,,,,,,,,,7,,63,100
134640,note_on,0,0,0,,,,,,,,,8,,47,100
134640,note_on,0,0,0,,,,,,,,,10,,35,100
134640,note_on,0,0,0,,,,,,,,,14,,47,100
134640,note_on,0,0,0,,,,,,,,,15,,47,100
134700,note_on,60,0,0,,,,,,,,,15,,47,0
134700,note_on,0,0,0,,,,,,,,,10,,35,0
134700,note_on,0,0,0,,,,,,,,,8,,47,0
134700,note_on,0,0,0,,,,,,,,,14,,47,0
134700,note_on,0,0,0,,,,,,,,,0,,81,100
134700,note_on,0,0,0,,,,,,,,,3,,81,100
134700,note_on,0,0,0,,,,,,,,,5,,81,100
134700,note_on,0,0,0,,,,,,,,,13,,81,100
134715,note_on,15,0,0,,,,,,,,,13,,81,0
134715,note_on,0,0,0,,,,,,,,,3,,81,0
134715,note_on,0,0,0,,,,,,,,,0,,81,0
134715,note_on,0,0,0,,,,,,,,,0,,47,0
134715,note_on,0,0,0,,,,,,,,,5,,81,0
134730,note_on,15,0,0,,,,,,,,,6,,63,0
134730,note_on,0,0,0,,,,,,,,,7,,63,0
134760,note_on,30,0,0,,,,,,,,,0,,52,100
134760,note_on,0,0,0,,,,,,,,,0,,80,100
134760,note_on,0,0,0,,,,,,,,,3,,80,100
134760,note_on,0,0,0,,,,,,,,,5,,80,100
134760,note_on,0,0,0,,,,,,,,,6,,71,100
134760,note_on,0,0,0,,,,,,,,,7,,71,100
134760,note_on,0,0,0,,,,,,,,,8,,52,100
134760,note_on,0,0,0,,,,,,,,,10,,40,100
134760,note_on,0,0,0,,,,,,,,,13,,80,100
134760,note_on,0,0,0,,,,,,,,,14,,52,100
134760,note_on,0,0,0,,,,,,,,,15,,52,100
134775,note_on,15,0,0,,,,,,,,,15,,52,0
134775,note_on,0,0,0,,,,,,,,,10,,40,0
134775,note_on,0,0,0,,,,,,,,,3,,80,0
134775,note_on,0,0,0,,,,,,,,,5,,80,0
134775,note_on,0,0,0,,,,,,,,,0,,52,0
134775,note_on,0,0,0,,,,,,,,,6,,71,0
134775,note_on,0,0,0,,,,,,,,,0,,80,0
134775,note_on,0,0,0,,,,,,,,,13,,80,0
134775,note_on,0,0,0,,,,,,,,,8,,52,0
134775,note_on,0,0,0,,,,,,,,,7,,71,0
134775,note_on,0,0,0,,,,,,,,,14,,52,0
134820,note_on,45,0,0,,,,,,,,,0,,57,100
134820,note_on,0,0,0,,,,,,,,,0,,76,100
134820,note_on,0,0,0,,,,,,,,,3,,76,100
134820,note_on,0,0,0,,,,,,,,,5,,76,100
134820,note_on,0,0,0,,,,,,,,,6,,73,100
134820,note_on,0,0,0,,,,,,,,,7,,73,100
134820,note_on,0,0,0,,,,,,,,,8,,57,100
134820,note_on,0,0,0,,,,,,,,,10,,45,100
134820,note_on,0,0,0,,,,,,,,,13,,76,100
134820,note_on,0,0,0,,,,,,,,,14,,57,100
134820,note_on,0,0,0,,,,,,,,,15,,57,100
134835,note_on,15,0,0,,,,,,,,,15,,57,0
134835,note_on,0,0,0,,,,,,,,,10,,45,0
134835,note_on,0,0,0,,,,,,,,,3,,76,0
134835,note_on,0,0,0,,,,,,,,,5,,76,0
134835,note_on,0,0,0,,,,,,,,,0,,57,0
134835,note_on,0,0,0,,,,,,,,,6,,73,0
134835,note_on,0,0,0,,,,,,,,,0,,76,0
134835,note_on,0,0,0,,,,,,,,,13,,76,0
134835,note_on,0,0,0,,,,,,,,,8,,57,0
134835,note_on,0,0,0,,,,,,,,,7,,73,0
134835,note_on,0,0,0,,,,,,,,,14,,57,0
134880,note_on,45,0,0,,,,,,,,,0,,59,100
134880,note_on,0,0,0,,,,,,,,,0,,71,100
134880,note_on,0,0,0,,,,,,,,,3,,71,100
134880,note_on,0,0,0,,,,,,,,,5,,71,100
134880,note_on,0,0,0,,,,,,,,,6,,71,100
134880,note_on,0,0,0,,,,,,,,,7,,71,100
134880,note_on,0,0,0,,,,,,,,,8,,59,100
134880,note_on,0,0,0,,,,,,,,,10,,47,100
134880,note_on,0,0,0,,,,,,,,,13,,71,100
134880,note_on,0,0,0,,,,,,,,,14,,59,100
134880,note_on,0,0,0,,,,,,,,,15,,59,100
134895,note_on,15,0,0,,,,,,,,,15,,59,0
134895,note_on,0,0,0,,,,,,,,,10,,47,0
134895,note_on,0,0,0,,,,,,,,,3,,71,0
134895,note_on,0,0,0,,,,,,,,,5,,71,0
134895,note_on,0,0,0,,,,,,,,,0,,59,0
134895,note_on,0,0,0,,,,,,,,,6,,71,0
134895,note_on,0,0,0,,,,,,,,,0,,71,0
134895,note_on,0,0,0,,,,,,,,,13,,71,0
134895,note_on,0,0,0,,,,,,,,,8,,59,0
134895,note_on,0,0,0,,,,,,,,,7,,71,0
134895,note_on,0,0,0,,,,,,,,,14,,59,0
134940,note_on,45,0,0,,,,,,,,,0,,47,100
134940,note_on,0,0,0,,,,,,,,,0,,75,100
134940,note_on,0,0,0,,,,,,,,,3,,75,100
134940,note_on,0,0,0,,,,,,,,,5,,75,100
134940,note_on,0,0,0,,,,,,,,,6,,69,100
134940,note_on,0,0,0,,,,,,,,,7,,69,100
134940,note_on,0,0,0,,,,,,,,,8,,47,100
134940,note_on,0,0,0,,,,,,,,,10,,35,100
134940,note_on,0,0,0,,,,,,,,,13,,75,100
134940,note_on,0,0,0,,,,,,,,,14,,47,100
134940,note_on,0,0,0,,,,,,,,,15,,47,100
134955,note_on,15,0,0,,,,,,,,,15,,47,0
134955,note_on,0,0,0,,,,,,,,,10,,35,0
134955,note_on,0,0,0,,,,,,,,,3,,75,0
134955,note_on,0,0,0,,,,,,,,,5,,75,0
134955,note_on,0,0,0,,,,,,,,,0,,47,0
134955,note_on,0,0,0,,,,,,,,,6,,69,0
134955,note_on,0,0,0,,,,,,,,,0,,75,0
134955,note_on,0,0,0,,,,,,,,,13,,75,0
134955,note_on,0,0,0,,,,,,,,,8,,47,0
134955,note_on,0,0,0,,,,,,,,,7,,69,0
134955,note_on,0,0,0,,,,,,,,,14,,47,0
135000,note_on,45,0,0,,,,,,,,,0,,68,100
135000,note_on,0,0,0,,,,,,,,,0,,64,100
135000,note_on,0,0,0,,,,,,,,,0,,52,100
135000,note_on,0,0,0,,,,,,,,,0,,76,100
135000,note_on,0,0,0,,,,,,,,,3,,76,100
135000,note_on,0,0,0,,,,,,,,,5,,76,100
135000,note_on,0,0,0,,,,,,,,,6,,68,100
135000,note_on,0,0,0,,,,,,,,,7,,68,100
135000,note_on,0,0,0,,,,,,,,,8,,52,100
135000,note_on,0,0,0,,,,,,,,,10,,40,100
135000,note_on,0,0,0,,,,,,,,,13,,76,100
135000,note_on,0,0,0,,,,,,,,,14,,52,100
135000,note_on,0,0,0,,,,,,,,,15,,52,100
135090,note_on,90,0,0,,,,,,,,,15,,52,0
135090,note_on,0,0,0,,,,,,,,,5,,76,0
135090,note_on,0,0,0,,,,,,,,,0,,64,0
135090,note_on,0,0,0,,,,,,,,,7,,68,0
135090,note_on,0,0,0,,,,,,,,,0,,52,0
135090,note_on,0,0,0,,,,,,,,,0,,76,0
135090,note_on,0,0,0,,,,,,,,,0,,68,0
135090,note_on,0,0,0,,,,,,,,,3,,76,0
135090,note_on,0,0,0,,,,,,,,,13,,76,0
135090,note_on,0,0,0,,,,,,,,,8,,52,0
135090,note_on,0,0,0,,,,,,,,,6,,68,0
135090,note_on,0,0,0,,,,,,,,,14,,52,0
135090,note_on,0,0,0,,,,,,,,,10,,40,0
135164,control_change,74,0,0,,,,,,,0,42,0,,,
135164,control_change,0,0,0,,,,,,,0,42,0,,,
135164,control_change,0,0,0,,,,,,,0,42,0,,,
135164,control_change,0,0,0,,,,,,,0,42,0,,,
135165,control_change,1,0,0,,,,,,,0,42,0,,,
135165,control_change,0,0,0,,,,,,,0,42,0,,,
135165,control_change,0,0,0,,,,,,,0,42,0,,,
135165,control_change,0,0,0,,,,,,,0,42,0,,,
135165,control_change,0,0,0,,,,,,,0,42,0,,,
135165,control_change,0,0,0,,,,,,,0,42,0,,,
135165,control_change,0,0,0,,,,,,,0,42,0,,,
135165,control_change,0,0,0,,,,,,,0,42,0,,,
135165,control_change,0,0,0,,,,,,,0,42,0,,,
135165,program_change,0,0,0,,,,,,,,,0,107,,
135179,control_change,14,0,0,,,,,,,0,42,1,,,
135179,control_change,0,0,0,,,,,,,0,42,1,,,
135179,control_change,0,0,0,,,,,,,0,42,1,,,
135179,control_change,0,0,0,,,,,,,0,42,1,,,
135180,note_on,1,0,0,,,,,,,,,0,,83,100
135180,control_change,0,0,0,,,,,,,0,42,1,,,
135180,program_change,0,0,0,,,,,,,,,1,73,,
135210,note_on,30,0,0,,,,,,,,,0,,83,0
135233,control_change,23,0,0,,,,,,,11,63,11,,,
135234,control_change,1,0,0,,,,,,,11,63,7,,,
135240,note_on,6,0,0,,,,,,,,,0,,80,100
135240,note_on,0,0,0,,,,,,,,,7,,52,100
135240,note_on,0,0,0,,,,,,,,,7,,64,100
135240,note_on,0,0,0,,,,,,,,,11,,64,100
135300,note_on,60,0,0,,,,,,,,,0,,80,0
135300,note_on,0,0,0,,,,,,,,,0,,76,100
135330,note_on,30,0,0,,,,,,,,,0,,76,0
135360,note_on,30,0,0,,,,,,,,,0,,78,100
135420,note_on,60,0,0,,,,,,,,,0,,78,0
135420,note_on,0,0,0,,,,,,,,,0,,75,100
135420,note_on,0,0,0,,,,,,,,,1,,71,100
135450,note_on,30,0,0,,,,,,,,,1,,71,0
135450,note_on,0,0,0,,,,,,,,,0,,75,0
135480,note_on,30,0,0,,,,,,,,,0,,76,100
135480,note_on,0,0,0,,,,,,,,,1,,68,100
135540,note_on,60,0,0,,,,,,,,,1,,68,0
135540,note_on,0,0,0,,,,,,,,,0,,76,0
135540,note_on,0,0,0,,,,,,,,,0,,80,100
135540,note_on,0,0,0,,,,,,,,,1,,64,100
135570,note_on,30,0,0,,,,,,,,,1,,64,0
135570,note_on,0,0,0,,,,,,,,,0,,80,0
135600,note_on,30,0,0,,,,,,,,,0,,81,100
135600,note_on,0,0,0,,,,,,,,,1,,66,100
135660,note_on,60,0,0,,,,,,,,,1,,66,0
135660,note_on,0,0,0,,,,,,,,,0,,81,0
135660,note_on,0,0,0,,,,,,,,,0,,78,100
135660,note_on,0,0,0,,,,,,,,,1,,59,100
135690,note_on,30,0,0,,,,,,,,,1,,59,0
135690,note_on,0,0,0,,,,,,,,,0,,78,0
135720,note_on,30,0,0,,,,,,,,,0,,80,100
135720,note_on,0,0,0,,,,,,,,,1,,64,100
135780,note_on,60,0,0,,,,,,,,,1,,64,0
135780,note_on,0,0,0,,,,,,,,,0,,80,0
135780,note_on,0,0,0,,,,,,,,,0,,76,100
135780,note_on,0,0,0,,,,,,,,,1,,68,100
135810,note_on,30,0,0,,,,,,,,,1,,68,0
135810,note_on,0,0,0,,,,,,,,,0,,76,0
135840,note_on,30,0,0,,,,,,,,,0,,78,100
135840,note_on,0,0,0,,,,,,,,,1,,69,100
135900,note_on,60,0,0,,,,,,,,,1,,69,0
135900,note_on,0,0,0,,,,,,,,,0,,78,0
135900,note_on,0,0,0,,,,,,,,,0,,75,100
135900,note_on,0,0,0,,,,,,,,,1,,66,100
135930,note_on,30,0,0,,,,,,,,,1,,66,0
135930,note_on,0,0,0,,,,,,,,,0,,75,0
135960,note_on,30,0,0,,,,,,,,,0,,76,100
135960,note_on,0,0,0,,,,,,,,,1,,68,100
135990,note_on,30,0,0,,,,,,,,,0,,76,0
135990,note_on,0,0,0,,,,,,,,,0,,78,100
136020,note_on,30,0,0,,,,,,,,,0,,78,0
136020,note_on,0,0,0,,,,,,,,,1,,68,0
136020,note_on,0,0,0,,,,,,,,,0,,80,100
136020,note_on,0,0,0,,,,,,,,,1,,64,100
136050,note_on,30,0,0,,,,,,,,,1,,64,0
136050,note_on,0,0,0,,,,,,,,,0,,80,0
136080,note_on,30,0,0,,,,,,,,,0,,78,100
136080,note_on,0,0,0,,,,,,,,,1,,66,100
136110,note_on,30,0,0,,,,,,,,,0,,78,0
136110,note_on,0,0,0,,,,,,,,,0,,80,100
136140,note_on,30,0,0,,,,,,,,,0,,80,0
136140,note_on,0,0,0,,,,,,,,,1,,66,0
136140,note_on,0,0,0,,,,,,,,,0,,81,100
136140,note_on,0,0,0,,,,,,,,,1,,63,100
136170,note_on,30,0,0,,,,,,,,,1,,63,0
136170,note_on,0,0,0,,,,,,,,,0,,81,0
136200,note_on,30,0,0,,,,,,,,,0,,80,100
136200,note_on,0,0,0,,,,,,,,,1,,64,100
136230,note_on,30,0,0,,,,,,,,,1,,64,0
136230,note_on,0,0,0,,,,,,,,,0,,80,0
136230,note_on,0,0,0,,,,,,,,,0,,78,100
136230,note_on,0,0,0,,,,,,,,,1,,66,100
136260,note_on,30,0,0,,,,,,,,,1,,66,0
136260,note_on,0,0,0,,,,,,,,,0,,78,0
136260,note_on,0,0,0,,,,,,,,,0,,76,100
136260,note_on,0,0,0,,,,,,,,,1,,68,100
136290,note_on,30,0,0,,,,,,,,,1,,68,0
136290,note_on,0,0,0,,,,,,,,,0,,76,0
136320,note_on,30,0,0,,,,,,,,,0,,75,100
136320,note_on,0,0,0,,,,,,,,,1,,66,100
136350,note_on,30,0,0,,,,,,,,,1,,66,0
136350,note_on,0,0,0,,,,,,,,,0,,75,0
136350,note_on,0,0,0,,,,,,,,,0,,76,100
136350,note_on,0,0,0,,,,,,,,,1,,68,100
136380,note_on,30,0,0,,,,,,,,,1,,68,0
136380,note_on,0,0,0,,,,,,,,,0,,76,0
136380,note_on,0,0,0,,,,,,,,,0,,78,100
136380,note_on,0,0,0,,,,,,,,,1,,69,100
136410,note_on,30,0,0,,,,,,,,,1,,69,0
136410,note_on,0,0,0,,,,,,,,,0,,78,0
136440,note_on,30,0,0,,,,,,,,,0,,76,100
136440,note_on,0,0,0,,,,,,,,,1,,68,100
136470,note_on,30,0,0,,,,,,,,,1,,68,0
136470,note_on,0,0,0,,,,,,,,,0,,76,0
136470,note_on,0,0,0,,,,,,,,,0,,78,100
136470,note_on,0,0,0,,,,,,,,,1,,69,100
136500,note_on,30,0,0,,,,,,,,,1,,69,0
136500,note_on,0,0,0,,,,,,,,,0,,78,0
136500,note_on,0,0,0,,,,,,,,,0,,80,100
136500,note_on,0,0,0,,,,,,,,,1,,71,100
136530,note_on,30,0,0,,,,,,,,,1,,71,0
136530,note_on,0,0,0,,,,,,,,,0,,80,0
136560,note_on,30,0,0,,,,,,,,,0,,78,100
136560,note_on,0,0,0,,,,,,,,,1,,63,100
136590,note_on,30,0,0,,,,,,,,,1,,63,0
136590,note_on,0,0,0,,,,,,,,,0,,78,0
136590,note_on,0,0,0,,,,,,,,,0,,80,100
136590,note_on,0,0,0,,,,,,,,,1,,64,100
136620,note_on,30,0,0,,,,,,,,,1,,64,0
136620,note_on,0,0,0,,,,,,,,,0,,80,0
136620,note_on,0,0,0,,,,,,,,,0,,81,100
136620,note_on,0,0,0,,,,,,,,,1,,66,100
136650,note_on,30,0,0,,,,,,,,,1,,66,0
136650,note_on,0,0,0,,,,,,,,,0,,81,0
136680,note_on,30,0,0,,,,,,,,,0,,80,100
136680,note_on,0,0,0,,,,,,,,,1,,64,100
136710,note_on,30,0,0,,,,,,,,,1,,64,0
136710,note_on,0,0,0,,,,,,,,,0,,80,0
136710,note_on,0,0,0,,,,,,,,,0,,81,100
136710,note_on,0,0,0,,,,,,,,,1,,66,100
136740,note_on,30,0,0,,,,,,,,,1,,66,0
136740,note_on,0,0,0,,,,,,,,,0,,81,0
136740,note_on,0,0,0,,,,,,,,,0,,83,100
136740,note_on,0,0,0,,,,,,,,,1,,68,100
136770,note_on,30,0,0,,,,,,,,,1,,68,0
136770,note_on,0,0,0,,,,,,,,,0,,83,0
136800,note_on,30,0,0,,,,,,,,,0,,81,100
136800,note_on,0,0,0,,,,,,,,,1,,66,100
136830,note_on,30,0,0,,,,,,,,,1,,66,0
136830,note_on,0,0,0,,,,,,,,,0,,81,0
136830,note_on,0,0,0,,,,,,,,,0,,83,100
136830,note_on,0,0,0,,,,,,,,,1,,68,100
136860,note_on,30,0,0,,,,,,,,,1,,68,0
136860,note_on,0,0,0,,,,,,,,,0,,83,0
136860,note_on,0,0,0,,,,,,,,,0,,85,100
136860,note_on,0,0,0,,,,,,,,,1,,69,100
136890,note_on,30,0,0,,,,,,,,,1,,69,0
136890,note_on,0,0,0,,,,,,,,,0,,85,0
136920,note_on,30,0,0,,,,,,,,,0,,85,100
136920,note_on,0,0,0,,,,,,,,,1,,69,100
136935,note_on,15,0,0,,,,,,,,,1,,69,0
136935,note_on,0,0,0,,,,,,,,,0,,85,0
136935,note_on,0,0,0,,,,,,,,,0,,83,100
136935,note_on,0,0,0,,,,,,,,,1,,68,100
136950,note_on,15,0,0,,,,,,,,,1,,68,0
136950,note_on,0,0,0,,,,,,,,,0,,83,0
136950,note_on,0,0,0,,,,,,,,,0,,85,100
136950,note_on,0,0,0,,,,,,,,,1,,69,100
136965,note_on,15,0,0,,,,,,,,,1,,69,0
136965,note_on,0,0,0,,,,,,,,,0,,85,0
136965,note_on,0,0,0,,,,,,,,,0,,83,100
136965,note_on,0,0,0,,,,,,,,,1,,68,100
136980,note_on,15,0,0,,,,,,,,,1,,68,0
136980,note_on,0,0,0,,,,,,,,,0,,83,0
136980,note_on,0,0,0,,,,,,,,,0,,85,100
136980,note_on,0,0,0,,,,,,,,,1,,69,100
136995,note_on,15,0,0,,,,,,,,,1,,69,0
136995,note_on,0,0,0,,,,,,,,,0,,85,0
136995,note_on,0,0,0,,,,,,,,,0,,83,100
136995,note_on,0,0,0,,,,,,,,,1,,68,100
137010,note_on,15,0,0,,,,,,,,,1,,68,0
137010,note_on,0,0,0,,,,,,,,,0,,83,0
137010,note_on,0,0,0,,,,,,,,,0,,85,100
137010,note_on,0,0,0,,,,,,,,,1,,69,100
137025,note_on,15,0,0,,,,,,,,,1,,69,0
137025,note_on,0,0,0,,,,,,,,,0,,85,0
137025,note_on,0,0,0,,,,,,,,,0,,83,100
137025,note_on,0,0,0,,,,,,,,,1,,68,100
137070,note_on,45,0,0,,,,,,,,,1,,68,0
137070,note_on,0,0,0,,,,,,,,,0,,83,0
137100,note_on,30,0,0,,,,,,,,,1,,76,100
137130,note_on,30,0,0,,,,,,,,,1,,76,0
137150,control_change,20,0,0,,,,,,,11,63,14,,,
137151,control_change,1,0,0,,,,,,,11,64,8,,,
137153,control_change,2,0,0,,,,,,,11,62,10,,,
137160,note_on,7,0,0,,,,,,,,,1,,73,100
137160,note_on,0,0,0,,,,,,,,,8,,45,100
137160,note_on,0,0,0,,,,,,,,,10,,45,100
137160,note_on,0,0,0,,,,,,,,,14,,57,100
137220,note_on,60,0,0,,,,,,,,,1,,73,0
137220,note_on,0,0,0,,,,,,,,,1,,69,100
137250,note_on,30,0,0,,,,,,,,,1,,69,0
137280,note_on,30,0,0,,,,,,,,,1,,71,100
137340,note_on,60,0,0,,,,,,,,,1,,71,0
137340,note_on,0,0,0,,,,,,,,,0,,64,100
137340,note_on,0,0,0,,,,,,,,,1,,68,100
137370,note_on,30,0,0,,,,,,,,,1,,68,0
137370,note_on,0,0,0,,,,,,,,,0,,64,0
137400,note_on,30,0,0,,,,,,,,,0,,61,100
137400,note_on,0,0,0,,,,,,,,,1,,69,100
137460,note_on,60,0,0,,,,,,,,,1,,69,0
137460,note_on,0,0,0,,,,,,,,,0,,61,0
137460,note_on,0,0,0,,,,,,,,,0,,57,100
137460,note_on,0,0,0,,,,,,,,,1,,73,100
137490,note_on,30,0,0,,,,,,,,,1,,73,0
137490,note_on,0,0,0,,,,,,,,,0,,57,0
137520,note_on,30,0,0,,,,,,,,,0,,59,100
137520,note_on,0,0,0,,,,,,,,,1,,74,100
137580,note_on,60,0,0,,,,,,,,,1,,74,0
137580,note_on,0,0,0,,,,,,,,,0,,59,0
137580,note_on,0,0,0,,,,,,,,,0,,52,100
137580,note_on,0,0,0,,,,,,,,,1,,71,100
137610,note_on,30,0,0,,,,,,,,,1,,71,0
137610,note_on,0,0,0,,,,,,,,,0,,52,0
137640,note_on,30,0,0,,,,,,,,,0,,57,100
137640,note_on,0,0,0,,,,,,,,,1,,73,100
137700,note_on,60,0,0,,,,,,,,,1,,73,0
137700,note_on,0,0,0,,,,,,,,,0,,57,0
137700,note_on,0,0,0,,,,,,,,,0,,61,100
137700,note_on,0,0,0,,,,,,,,,1,,69,100
137730,note_on,30,0,0,,,,,,,,,1,,69,0
137730,note_on,0,0,0,,,,,,,,,0,,61,0
137760,note_on,30,0,0,,,,,,,,,0,,62,100
137760,note_on,0,0,0,,,,,,,,,1,,71,100
137820,note_on,60,0,0,,,,,,,,,1,,71,0
137820,note_on,0,0,0,,,,,,,,,0,,62,0
137820,note_on,0,0,0,,,,,,,,,0,,59,100
137820,note_on,0,0,0,,,,,,,,,1,,68,100
137850,note_on,30,0,0,,,,,,,,,1,,68,0
137850,note_on,0,0,0,,,,,,,,,0,,59,0
137880,note_on,30,0,0,,,,,,,,,0,,61,100
137880,note_on,0,0,0,,,,,,,,,1,,69,100
137910,note_on,30,0,0,,,,,,,,,1,,69,0
137910,note_on,0,0,0,,,,,,,,,1,,71,100
137940,note_on,30,0,0,,,,,,,,,1,,71,0
137940,note_on,0,0,0,,,,,,,,,0,,61,0
137940,note_on,0,0,0,,,,,,,,,0,,57,100
137940,note_on,0,0,0,,,,,,,,,1,,73,100
137970,note_on,30,0,0,,,,,,,,,1,,73,0
137970,note_on,0,0,0,,,,,,,,,0,,57,0
138000,note_on,30,0,0,,,,,,,,,0,,59,100
138000,note_on,0,0,0,,,,,,,,,1,,71,100
138030,note_on,30,0,0,,,,,,,,,1,,71,0
138030,note_on,0,0,0,,,,,,,,,1,,73,100
138060,note_on,30,0,0,,,,,,,,,1,,73,0
138060,note_on,0,0,0,,,,,,,,,0,,59,0
138060,note_on,0,0,0,,,,,,,,,0,,56,100
138060,note_on,0,0,0,,,,,,,,,1,,74,100
138090,note_on,30,0,0,,,,,,,,,1,,74,0
138090,note_on,0,0,0,,,,,,,,,0,,56,0
138120,note_on,30,0,0,,,,,,,,,0,,57,100
138120,note_on,0,0,0,,,,,,,,,1,,73,100
138150,note_on,30,0,0,,,,,,,,,1,,73,0
138150,note_on,0,0,0,,,,,,,,,0,,57,0
138150,note_on,0,0,0,,,,,,,,,0,,59,100
138150,note_on,0,0,0,,,,,,,,,1,,74,100
138180,note_on,30,0,0,,,,,,,,,1,,74,0
138180,note_on,0,0,0,,,,,,,,,0,,59,0
138180,note_on,0,0,0,,,,,,,,,0,,61,100
138180,note_on,0,0,0,,,,,,,,,1,,76,100
138210,note_on,30,0,0,,,,,,,,,1,,76,0
138210,note_on,0,0,0,,,,,,,,,0,,61,0
138240,note_on,30,0,0,,,,,,,,,0,,59,100
138240,note_on,0,0,0,,,,,,,,,1,,68,100
138270,note_on,30,0,0,,,,,,,,,1,,68,0
138270,note_on,0,0,0,,,,,,,,,0,,59,0
138270,note_on,0,0,0,,,,,,,,,0,,61,100
138270,note_on,0,0,0,,,,,,,,,1,,69,100
138300,note_on,30,0,0,,,,,,,,,1,,69,0
138300,note_on,0,0,0,,,,,,,,,0,,61,0
138300,note_on,0,0,0,,,,,,,,,0,,62,100
138300,note_on,0,0,0,,,,,,,,,1,,71,100
138330,note_on,30,0,0,,,,,,,,,1,,71,0
138330,note_on,0,0,0,,,,,,,,,0,,62,0
138360,note_on,30,0,0,,,,,,,,,0,,61,100
138360,note_on,0,0,0,,,,,,,,,1,,69,100
138390,note_on,30,0,0,,,,,,,,,1,,69,0
138390,note_on,0,0,0,,,,,,,,,0,,61,0
138390,note_on,0,0,0,,,,,,,,,0,,62,100
138390,note_on,0,0,0,,,,,,,,,1,,71,100
138420,note_on,30,0,0,,,,,,,,,1,,71,0
138420,note_on,0,0,0,,,,,,,,,0,,62,0
138420,note_on,0,0,0,,,,,,,,,0,,64,100
138420,note_on,0,0,0,,,,,,,,,1,,73,100
138450,note_on,30,0,0,,,,,,,,,1,,73,0
138450,note_on,0,0,0,,,,,,,,,0,,64,0
138480,note_on,30,0,0,,,,,,,,,0,,56,100
138480,note_on,0,0,0,,,,,,,,,1,,71,100
138510,note_on,30,0,0,,,,,,,,,1,,71,0
138510,note_on,0,0,0,,,,,,,,,0,,56,0
138510,note_on,0,0,0,,,,,,,,,0,,57,100
138510,note_on,0,0,0,,,,,,,,,1,,73,100
138540,note_on,30,0,0,,,,,,,,,1,,73,0
138540,note_on,0,0,0,,,,,,,,,0,,57,0
138540,note_on,0,0,0,,,,,,,,,0,,59,100
138540,note_on,0,0,0,,,,,,,,,1,,74,100
138570,note_on,30,0,0,,,,,,,,,1,,74,0
138570,note_on,0,0,0,,,,,,,,,0,,59,0
138600,note_on,30,0,0,,,,,,,,,0,,57,100
138600,note_on,0,0,0,,,,,,,,,1,,73,100
138630,note_on,30,0,0,,,,,,,,,1,,73,0
138630,note_on,0,0,0,,,,,,,,,0,,57,0
138630,note_on,0,0,0,,,,,,,,,0,,59,100
138630,note_on,0,0,0,,,,,,,,,1,,74,100
138660,note_on,30,0,0,,,,,,,,,1,,74,0
138660,note_on,0,0,0,,,,,,,,,0,,59,0
138660,note_on,0,0,0,,,,,,,,,0,,61,100
138660,note_on,0,0,0,,,,,,,,,1,,76,100
138690,note_on,30,0,0,,,,,,,,,1,,76,0
138690,note_on,0,0,0,,,,,,,,,0,,61,0
138720,note_on,30,0,0,,,,,,,,,0,,59,100
138720,note_on,0,0,0,,,,,,,,,1,,74,100
138750,note_on,30,0,0,,,,,,,,,1,,74,0
138750,note_on,0,0,0,,,,,,,,,0,,59,0
138750,note_on,0,0,0,,,,,,,,,0,,61,100
138750,note_on,0,0,0,,,,,,,,,1,,76,100
138780,note_on,30,0,0,,,,,,,,,1,,76,0
138780,note_on,0,0,0,,,,,,,,,0,,61,0
138780,note_on,0,0,0,,,,,,,,,0,,62,100
138780,note_on,0,0,0,,,,,,,,,1,,78,100
138810,note_on,30,0,0,,,,,,,,,1,,78,0
138810,note_on,0,0,0,,,,,,,,,0,,62,0
138840,note_on,30,0,0,,,,,,,,,0,,62,100
138840,note_on,0,0,0,,,,,,,,,1,,78,100
138855,note_on,15,0,0,,,,,,,,,1,,78,0
138855,note_on,0,0,0,,,,,,,,,0,,62,0
138855,note_on,0,0,0,,,,,,,,,0,,61,100
138855,note_on,0,0,0,,,,,,,,,1,,76,100
138870,note_on,15,0,0,,,,,,,,,1,,76,0
138870,note_on,0,0,0,,,,,,,,,0,,61,0
138870,note_on,0,0,0,,,,,,,,,0,,62,100
138870,note_on,0,0,0,,,,,,,,,1,,78,100
138885,note_on,15,0,0,,,,,,,,,1,,78,0
138885,note_on,0,0,0,,,,,,,,,0,,62,0
138885,note_on,0,0,0,,,,,,,,,0,,61,100
138885,note_on,0,0,0,,,,,,,,,1,,76,100
138900,note_on,15,0,0,,,,,,,,,1,,76,0
138900,note_on,0,0,0,,,,,,,,,0,,61,0
138900,note_on,0,0,0,,,,,,,,,0,,62,100
138900,note_on,0,0,0,,,,,,,,,1,,78,100
138915,note_on,15,0,0,,,,,,,,,1,,78,0
138915,note_on,0,0,0,,,,,,,,,0,,62,0
138915,note_on,0,0,0,,,,,,,,,0,,61,100
138915,note_on,0,0,0,,,,,,,,,1,,76,100
138930,note_on,15,0,0,,,,,,,,,1,,76,0
138930,note_on,0,0,0,,,,,,,,,0,,61,0
138930,note_on,0,0,0,,,,,,,,,0,,62,100
138930,note_on,0,0,0,,,,,,,,,1,,78,100
138945,note_on,15,0,0,,,,,,,,,1,,78,0
138945,note_on,0,0,0,,,,,,,,,0,,62,0
138945,note_on,0,0,0,,,,,,,,,0,,61,100
138945,note_on,0,0,0,,,,,,,,,1,,76,100
138990,note_on,45,0,0,,,,,,,,,1,,76,0
138990,note_on,0,0,0,,,,,,,,,0,,61,0
138990,note_on,0,0,0,,,,,,,,,7,,64,0
138990,note_on,0,0,0,,,,,,,,,11,,64,0
138990,note_on,0,0,0,,,,,,,,,7,,52,0
138999,control_change,9,0,0,,,,,,,11,124,6,,,
139004,control_change,5,0,0,,,,,,,0,43,0,,,
139004,control_change,0,0,0,,,,,,,0,43,0,,,
139004,control_change,0,0,0,,,,,,,0,43,0,,,
139004,control_change,0,0,0,,,,,,,0,43,0,,,
139005,control_change,1,0,0,,,,,,,0,43,0,,,
139005,control_change,0,0,0,,,,,,,0,43,0,,,
139005,control_change,0,0,0,,,,,,,0,43,0,,,
139005,control_change,0,0,0,,,,,,,0,43,0,,,
139005,control_change,0,0,0,,,,,,,0,43,0,,,
139005,control_change,0,0,0,,,,,,,0,43,0,,,
139005,control_change,0,0,0,,,,,,,0,43,0,,,
139005,control_change,0,0,0,,,,,,,0,43,0,,,
139005,control_change,0,0,0,,,,,,,0,43,0,,,
139005,program_change,0,0,0,,,,,,,,,0,59,,
139005,control_change,0,0,0,,,,,,,11,125,5,,,
139011,control_change,6,0,0,,,,,,,11,126,7,,,
139011,control_change,0,0,0,,,,,,,11,126,13,,,
139020,note_on,9,0,0,,,,,,,,,0,,64,100
139020,note_on,0,0,0,,,,,,,,,3,,64,100
139020,note_on,0,0,0,,,,,,,,,5,,64,100
139020,note_on,0,0,0,,,,,,,,,6,,64,100
139020,note_on,0,0,0,,,,,,,,,7,,64,100
139020,note_on,0,0,0,,,,,,,,,13,,64,100
139050,note_on,30,0,0,,,,,,,,,13,,64,0
139050,note_on,0,0,0,,,,,,,,,0,,64,0
139050,note_on,0,0,0,,,,,,,,,10,,45,0
139050,note_on,0,0,0,,,,,,,,,3,,64,0
139050,note_on,0,0,0,,,,,,,,,8,,45,0
139050,note_on,0,0,0,,,,,,,,,14,,57,0
139050,note_on,0,0,0,,,,,,,,,6,,64,0
139050,note_on,0,0,0,,,,,,,,,5,,64,0
139050,note_on,0,0,0,,,,,,,,,7,,64,0
139065,control_change,15,0,0,,,,,,,11,124,10,,,
139065,control_change,0,0,0,,,,,,,11,125,14,,,
139070,control_change,5,0,0,,,,,,,11,123,8,,,
139080,note_on,10,0,0,,,,,,,,,0,,45,100
139080,note_on,0,0,0,,,,,,,,,0,,73,100
139080,note_on,0,0,0,,,,,,,,,3,,45,100
139080,note_on,0,0,0,,,,,,,,,3,,73,100
139080,note_on,0,0,0,,,,,,,,,5,,73,100
139080,note_on,0,0,0,,,,,,,,,6,,69,100
139080,note_on,0,0,0,,,,,,,,,7,,69,100
139080,note_on,0,0,0,,,,,,,,,8,,45,100
139080,note_on,0,0,0,,,,,,,,,10,,33,100
139080,note_on,0,0,0,,,,,,,,,13,,73,100
139080,note_on,0,0,0,,,,,,,,,14,,45,100
139080,note_on,0,0,0,,,,,,,,,15,,45,100
139110,note_on,30,0,0,,,,,,,,,13,,73,0
139110,note_on,0,0,0,,,,,,,,,7,,69,0
139110,note_on,0,0,0,,,,,,,,,3,,73,0
139110,note_on,0,0,0,,,,,,,,,0,,73,0
139110,note_on,0,0,0,,,,,,,,,6,,69,0
139110,note_on,0,0,0,,,,,,,,,5,,73,0
139140,note_on,30,0,0,,,,,,,,,8,,45,0
139140,note_on,0,0,0,,,,,,,,,15,,45,0
139140,note_on,0,0,0,,,,,,,,,14,,45,0
139140,note_on,0,0,0,,,,,,,,,10,,33,0
139140,note_on,0,0,0,,,,,,,,,0,,45,0
139140,note_on,0,0,0,,,,,,,,,3,,45,0
139140,note_on,0,0,0,,,,,,,,,0,,71,100
139140,note_on,0,0,0,,,,,,,,,3,,71,100
139140,note_on,0,0,0,,,,,,,,,5,,71,100
139140,note_on,0,0,0,,,,,,,,,6,,68,100
139140,note_on,0,0,0,,,,,,,,,7,,68,100
139140,note_on,0,0,0,,,,,,,,,13,,71,100
139200,note_on,60,0,0,,,,,,,,,0,,50,100
139200,note_on,0,0,0,,,,,,,,,3,,50,100
139200,note_on,0,0,0,,,,,,,,,8,,50,100
139200,note_on,0,0,0,,,,,,,,,10,,38,100
139200,note_on,0,0,0,,,,,,,,,14,,50,100
139200,note_on,0,0,0,,,,,,,,,15,,50,100
139230,note_on,30,0,0,,,,,,,,,13,,71,0
139230,note_on,0,0,0,,,,,,,,,6,,68,0
139230,note_on,0,0,0,,,,,,,,,0,,71,0
139230,note_on,0,0,0,,,,,,,,,5,,71,0
139230,note_on,0,0,0,,,,,,,,,7,,68,0
139230,note_on,0,0,0,,,,,,,,,3,,71,0
139260,note_on,30,0,0,,,,,,,,,0,,50,0
139260,note_on,0,0,0,,,,,,,,,8,,50,0
139260,note_on,0,0,0,,,,,,,,,14,,50,0
139260,note_on,0,0,0,,,,,,,,,15,,50,0
139260,note_on,0,0,0,,,,,,,,,3,,50,0
139260,note_on,0,0,0,,,,,,,,,10,,38,0
139260,note_on,0,0,0,,,,,,,,,0,,69,100
139260,note_on,0,0,0,,,,,,,,,3,,69,100
139260,note_on,0,0,0,,,,,,,,,5,,69,100
139260,note_on,0,0,0,,,,,,,,,6,,66,100
139260,note_on,0,0,0,,,,,,,,,7,,66,100
139260,note_on,0,0,0,,,,,,,,,13,,69,100
139290,note_on,30,0,0,,,,,,,,,13,,69,0
139290,note_on,0,0,0,,,,,,,,,3,,69,0
139290,note_on,0,0,0,,,,,,,,,5,,69,0
139290,note_on,0,0,0,,,,,,,,,0,,69,0
139290,note_on,0,0,0,,,,,,,,,7,,66,0
139290,note_on,0,0,0,,,,,,,,,6,,66,0
139320,note_on,30,0,0,,,,,,,,,0,,47,100
139320,note_on,0,0,0,,,,,,,,,0,,74,100
139320,note_on,0,0,0,,,,,,,,,3,,47,100
139320,note_on,0,0,0,,,,,,,,,3,,74,100
139320,note_on,0,0,0,,,,,,,,,5,,74,100
139320,note_on,0,0,0,,,,,,,,,6,,71,100
139320,note_on,0,0,0,,,,,,,,,7,,71,100
139320,note_on,0,0,0,,,,,,,,,8,,47,100
139320,note_on,0,0,0,,,,,,,,,10,,35,100
139320,note_on,0,0,0,,,,,,,,,13,,74,100
139320,note_on,0,0,0,,,,,,,,,14,,47,100
139320,note_on,0,0,0,,,,,,,,,15,,47,100
139350,note_on,30,0,0,,,,,,,,,13,,74,0
139350,note_on,0,0,0,,,,,,,,,7,,71,0
139350,note_on,0,0,0,,,,,,,,,3,,74,0
139350,note_on,0,0,0,,,,,,,,,0,,74,0
139350,note_on,0,0,0,,,,,,,,,6,,71,0
139350,note_on,0,0,0,,,,,,,,,5,,74,0
139380,note_on,30,0,0,,,,,,,,,8,,47,0
139380,note_on,0,0,0,,,,,,,,,15,,47,0
139380,note_on,0,0,0,,,,,,,,,14,,47,0
139380,note_on,0,0,0,,,,,,,,,10,,35,0
139380,note_on,0,0,0,,,,,,,,,0,,47,0
139380,note_on,0,0,0,,,,,,,,,3,,47,0
139380,note_on,0,0,0,,,,,,,,,0,,73,100
139380,note_on,0,0,0,,,,,,,,,3,,73,100
139380,note_on,0,0,0,,,,,,,,,5,,73,100
139380,note_on,0,0,0,,,,,,,,,6,,69,100
139380,note_on,0,0,0,,,,,,,,,7,,69,100
139380,note_on,0,0,0,,,,,,,,,13,,73,100
139440,note_on,60,0,0,,,,,,,,,0,,52,100
139440,note_on,0,0,0,,,,,,,,,3,,52,100
139440,note_on,0,0,0,,,,,,,,,8,,52,100
139440,note_on,0,0,0,,,,,,,,,10,,40,100
139440,note_on,0,0,0,,,,,,,,,14,,52,100
139440,note_on,0,0,0,,,,,,,,,15,,52,100
139470,note_on,30,0,0,,,,,,,,,13,,73,0
139470,note_on,0,0,0,,,,,,,,,6,,69,0
139470,note_on,0,0,0,,,,,,,,,0,,73,0
139470,note_on,0,0,0,,,,,,,,,5,,73,0
139470,note_on,0,0,0,,,,,,,,,7,,69,0
139470,note_on,0,0,0,,,,,,,,,3,,73,0
139500,note_on,30,0,0,,,,,,,,,0,,52,0
139500,note_on,0,0,0,,,,,,,,,8,,52,0
139500,note_on,0,0,0,,,,,,,,,14,,52,0
139500,note_on,0,0,0,,,,,,,,,15,,52,0
139500,note_on,0,0,0,,,,,,,,,3,,52,0
139500,note_on,0,0,0,,,,,,,,,10,,40,0
139500,note_on,0,0,0,,,,,,,,,0,,71,100
139500,note_on,0,0,0,,,,,,,,,3,,71,100
139500,note_on,0,0,0,,,,,,,,,5,,71,100
139500,note_on,0,0,0,,,,,,,,,6,,68,100
139500,note_on,0,0,0,,,,,,,,,7,,68,100
139500,note_on,0,0,0,,,,,,,,,13,,71,100
139530,note_on,30,0,0,,,,,,,,,13,,71,0
139530,note_on,0,0,0,,,,,,,,,3,,71,0
139530,note_on,0,0,0,,,,,,,,,5,,71,0
139530,note_on,0,0,0,,,,,,,,,0,,71,0
139530,note_on,0,0,0,,,,,,,,,7,,68,0
139530,note_on,0,0,0,,,,,,,,,6,,68,0
139560,note_on,30,0,0,,,,,,,,,0,,49,100
139560,note_on,0,0,0,,,,,,,,,0,,76,100
139560,note_on,0,0,0,,,,,,,,,3,,49,100
139560,note_on,0,0,0,,,,,,,,,3,,76,100
139560,note_on,0,0,0,,,,,,,,,5,,76,100
139560,note_on,0,0,0,,,,,,,,,6,,73,100
139560,note_on,0,0,0,,,,,,,,,7,,73,100
139560,note_on,0,0,0,,,,,,,,,8,,49,100
139560,note_on,0,0,0,,,,,,,,,10,,37,100
139560,note_on,0,0,0,,,,,,,,,13,,76,100
139560,note_on,0,0,0,,,,,,,,,14,,49,100
139560,note_on,0,0,0,,,,,,,,,15,,49,100
139590,note_on,30,0,0,,,,,,,,,13,,76,0
139590,note_on,0,0,0,,,,,,,,,7,,73,0
139590,note_on,0,0,0,,,,,,,,,3,,76,0
139590,note_on,0,0,0,,,,,,,,,0,,76,0
139590,note_on,0,0,0,,,,,,,,,6,,73,0
139590,note_on,0,0,0,,,,,,,,,5,,76,0
139620,note_on,30,0,0,,,,,,,,,8,,49,0
139620,note_on,0,0,0,,,,,,,,,15,,49,0
139620,note_on,0,0,0,,,,,,,,,14,,49,0
139620,note_on,0,0,0,,,,,,,,,10,,37,0
139620,note_on,0,0,0,,,,,,,,,0,,49,0
139620,note_on,0,0,0,,,,,,,,,3,,49,0
139620,note_on,0,0,0,,,,,,,,,0,,74,100
139620,note_on,0,0,0,,,,,,,,,3,,74,100
139620,note_on,0,0,0,,,,,,,,,5,,74,100
139620,note_on,0,0,0,,,,,,,,,6,,71,100
139620,note_on,0,0,0,,,,,,,,,7,,71,100
139620,note_on,0,0,0,,,,,,,,,13,,74,100
139680,note_on,60,0,0,,,,,,,,,0,,54,100
139680,note_on,0,0,0,,,,,,,,,3,,54,100
139680,note_on,0,0,0,,,,,,,,,8,,54,100
139680,note_on,0,0,0,,,,,,,,,10,,42,100
139680,note_on,0,0,0,,,,,,,,,14,,54,100
139680,note_on,0,0,0,,,,,,,,,15,,54,100
139710,note_on,30,0,0,,,,,,,,,13,,74,0
139710,note_on,0,0,0,,,,,,,,,6,,71,0
139710,note_on,0,0,0,,,,,,,,,0,,74,0
139710,note_on,0,0,0,,,,,,,,,5,,74,0
139710,note_on,0,0,0,,,,,,,,,7,,71,0
139710,note_on,0,0,0,,,,,,,,,3,,74,0
139740,note_on,30,0,0,,,,,,,,,0,,54,0
139740,note_on,0,0,0,,,,,,,,,8,,54,0
139740,note_on,0,0,0,,,,,,,,,14,,54,0
139740,note_on,0,0,0,,,,,,,,,15,,54,0
139740,note_on,0,0,0,,,,,,,,,3,,54,0
139740,note_on,0,0,0,,,,,,,,,10,,42,0
139740,note_on,0,0,0,,,,,,,,,0,,73,100
139740,note_on,0,0,0,,,,,,,,,3,,73,100
139740,note_on,0,0,0,,,,,,,,,5,,73,100
139740,note_on,0,0,0,,,,,,,,,6,,70,100
139740,note_on,0,0,0,,,,,,,,,7,,70,100
139740,note_on,0,0,0,,,,,,,,,13,,73,100
139770,note_on,30,0,0,,,,,,,,,13,,73,0
139770,note_on,0,0,0,,,,,,,,,3,,73,0
139770,note_on,0,0,0,,,,,,,,,5,,73,0
139770,note_on,0,0,0,,,,,,,,,0,,73,0
139770,note_on,0,0,0,,,,,,,,,7,,70,0
139770,note_on,0,0,0,,,,,,,,,6,,70,0
139800,note_on,30,0,0,,,,,,,,,0,,50,100
139800,note_on,0,0,0,,,,,,,,,0,,78,100
139800,note_on,0,0,0,,,,,,,,,3,,50,100
139800,note_on,0,0,0,,,,,,,,,3,,78,100
139800,note_on,0,0,0,,,,,,,,,5,,78,100
139800,note_on,0,0,0,,,,,,,,,6,,74,100
139800,note_on,0,0,0,,,,,,,,,7,,74,100
139800,note_on,0,0,0,,,,,,,,,8,,50,100
139800,note_on,0,0,0,,,,,,,,,10,,38,100
139800,note_on,0,0,0,,,,,,,,,13,,78,100
139800,note_on,0,0,0,,,,,,,,,14,,50,100
139800,note_on,0,0,0,,,,,,,,,15,,50,100
139830,note_on,30,0,0,,,,,,,,,13,,78,0
139830,note_on,0,0,0,,,,,,,,,7,,74,0
139830,note_on,0,0,0,,,,,,,,,3,,78,0
139830,note_on,0,0,0,,,,,,,,,0,,78,0
139830,note_on,0,0,0,,,,,,,,,6,,74,0
139830,note_on,0,0,0,,,,,,,,,5,,78,0
139860,note_on,30,0,0,,,,,,,,,8,,50,0
139860,note_on,0,0,0,,,,,,,,,15,,50,0
139860,note_on,0,0,0,,,,,,,,,14,,50,0
139860,note_on,0,0,0,,,,,,,,,10,,38,0
139860,note_on,0,0,0,,,,,,,,,0,,50,0
139860,note_on,0,0,0,,,,,,,,,3,,50,0
139860,note_on,0,0,0,,,,,,,,,0,,76,100
139860,note_on,0,0,0,,,,,,,,,3,,76,100
139860,note_on,0,0,0,,,,,,,,,5,,76,100
139860,note_on,0,0,0,,,,,,,,,6,,73,100
139860,note_on,0,0,0,,,,,,,,,7,,73,100
139860,note_on,0,0,0,,,,,,,,,13,,76,100
139920,note_on,60,0,0,,,,,,,,,0,,55,100
139920,note_on,0,0,0,,,,,,,,,3,,55,100
139920,note_on,0,0,0,,,,,,,,,8,,55,100
139920,note_on,0,0,0,,,,,,,,,10,,43,100
139920,note_on,0,0,0,,,,,,,,,14,,55,100
139920,note_on,0,0,0,,,,,,,,,15,,55,100
139950,note_on,30,0,0,,,,,,,,,13,,76,0
139950,note_on,0,0,0,,,,,,,,,6,,73,0
139950,note_on,0,0,0,,,,,,,,,0,,76,0
139950,note_on,0,0,0,,,,,,,,,5,,76,0
139950,note_on,0,0,0,,,,,,,,,7,,73,0
139950,note_on,0,0,0,,,,,,,,,3,,76,0
139980,note_on,30,0,0,,,,,,,,,0,,55,0
139980,note_on,0,0,0,,,,,,,,,8,,55,0
139980,note_on,0,0,0,,,,,,,,,14,,55,0
139980,note_on,0,0,0,,,,,,,,,15,,55,0
139980,note_on,0,0,0,,,,,,,,,3,,55,0
139980,note_on,0,0,0,,,,,,,,,10,,43,0
139980,note_on,0,0,0,,,,,,,,,0,,74,100
139980,note_on,0,0,0,,,,,,,,,3,,74,100
139980,note_on,0,0,0,,,,,,,,,5,,74,100
139980,note_on,0,0,0,,,,,,,,,6,,71,100
139980,note_on,0,0,0,,,,,,,,,7,,71,100
139980,note_on,0,0,0,,,,,,,,,13,,74,100
140010,note_on,30,0,0,,,,,,,,,13,,74,0
140010,note_on,0,0,0,,,,,,,,,3,,74,0
140010,note_on,0,0,0,,,,,,,,,5,,74,0
140010,note_on,0,0,0,,,,,,,,,0,,74,0
140010,note_on,0,0,0,,,,,,,,,7,,71,0
140010,note_on,0,0,0,,,,,,,,,6,,71,0
140040,note_on,30,0,0,,,,,,,,,0,,52,100
140040,note_on,0,0,0,,,,,,,,,0,,79,100
140040,note_on,0,0,0,,,,,,,,,3,,52,100
140040,note_on,0,0,0,,,,,,,,,3,,79,100
140040,note_on,0,0,0,,,,,,,,,5,,79,100
140040,note_on,0,0,0,,,,,,,,,6,,64,100
140040,note_on,0,0,0,,,,,,,,,7,,64,100
140040,note_on,0,0,0,,,,,,,,,8,,52,100
140040,note_on,0,0,0,,,,,,,,,10,,40,100
140040,note_on,0,0,0,,,,,,,,,13,,79,100
140040,note_on,0,0,0,,,,,,,,,14,,52,100
140040,note_on,0,0,0,,,,,,,,,15,,52,100
140070,note_on,30,0,0,,,,,,,,,13,,79,0
140070,note_on,0,0,0,,,,,,,,,7,,64,0
140070,note_on,0,0,0,,,,,,,,,3,,79,0
140070,note_on,0,0,0,,,,,,,,,0,,79,0
140070,note_on,0,0,0,,,,,,,,,6,,64,0
140070,note_on,0,0,0,,,,,,,,,5,,79,0
140100,note_on,30,0,0,,,,,,,,,8,,52,0
140100,note_on,0,0,0,,,,,,,,,15,,52,0
140100,note_on,0,0,0,,,,,,,,,14,,52,0
140100,note_on,0,0,0,,,,,,,,,10,,40,0
140100,note_on,0,0,0,,,,,,,,,0,,52,0
140100,note_on,0,0,0,,,,,,,,,3,,52,0
140100,note_on,0,0,0,,,,,,,,,0,,78,100
140100,note_on,0,0,0,,,,,,,,,3,,78,100
140100,note_on,0,0,0,,,,,,,,,5,,78,100
140100,note_on,0,0,0,,,,,,,,,6,,62,100
140100,note_on,0,0,0,,,,,,,,,7,,62,100
140100,note_on,0,0,0,,,,,,,,,13,,78,100
140160,note_on,60,0,0,,,,,,,,,0,,55,100
140160,note_on,0,0,0,,,,,,,,,3,,55,100
140160,note_on,0,0,0,,,,,,,,,8,,55,100
140160,note_on,0,0,0,,,,,,,,,10,,43,100
140160,note_on,0,0,0,,,,,,,,,14,,55,100
140160,note_on,0,0,0,,,,,,,,,15,,55,100
140190,note_on,30,0,0,,,,,,,,,13,,78,0
140190,note_on,0,0,0,,,,,,,,,6,,62,0
140190,note_on,0,0,0,,,,,,,,,0,,78,0
140190,note_on,0,0,0,,,,,,,,,5,,78,0
140190,note_on,0,0,0,,,,,,,,,7,,62,0
140190,note_on,0,0,0,,,,,,,,,3,,78,0
140220,note_on,30,0,0,,,,,,,,,0,,55,0
140220,note_on,0,0,0,,,,,,,,,8,,55,0
140220,note_on,0,0,0,,,,,,,,,14,,55,0
140220,note_on,0,0,0,,,,,,,,,15,,55,0
140220,note_on,0,0,0,,,,,,,,,3,,55,0
140220,note_on,0,0,0,,,,,,,,,10,,43,0
140220,note_on,0,0,0,,,,,,,,,0,,76,100
140220,note_on,0,0,0,,,,,,,,,3,,76,100
140220,note_on,0,0,0,,,,,,,,,5,,76,100
140220,note_on,0,0,0,,,,,,,,,6,,61,100
140220,note_on,0,0,0,,,,,,,,,7,,61,100
140220,note_on,0,0,0,,,,,,,,,13,,76,100
140250,note_on,30,0,0,,,,,,,,,7,,61,0
140250,note_on,0,0,0,,,,,,,,,6,,61,0
140250,note_on,0,0,0,,,,,,,,,6,,59,100
140250,note_on,0,0,0,,,,,,,,,7,,59,100
140280,note_on,30,0,0,,,,,,,,,7,,59,0
140280,note_on,0,0,0,,,,,,,,,6,,59,0
140280,note_on,0,0,0,,,,,,,,,0,,54,100
140280,note_on,0,0,0,,,,,,,,,3,,54,100
140280,note_on,0,0,0,,,,,,,,,6,,70,100
140280,note_on,0,0,0,,,,,,,,,7,,70,100
140280,note_on,0,0,0,,,,,,,,,8,,54,100
140280,note_on,0,0,0,,,,,,,,,10,,42,100
140280,note_on,0,0,0,,,,,,,,,14,,54,100
140280,note_on,0,0,0,,,,,,,,,15,,54,100
140310,note_on,30,0,0,,,,,,,,,15,,54,0
140310,note_on,0,0,0,,,,,,,,,13,,76,0
140310,note_on,0,0,0,,,,,,,,,7,,70,0
140310,note_on,0,0,0,,,,,,,,,5,,76,0
140310,note_on,0,0,0,,,,,,,,,3,,76,0
140310,note_on,0,0,0,,,,,,,,,0,,76,0
140310,note_on,0,0,0,,,,,,,,,0,,54,0
140310,note_on,0,0,0,,,,,,,,,3,,54,0
140310,note_on,0,0,0,,,,,,,,,8,,54,0
140310,note_on,0,0,0,,,,,,,,,6,,70,0
140310,note_on,0,0,0,,,,,,,,,14,,54,0
140310,note_on,0,0,0,,,,,,,,,10,,42,0
140340,note_on,30,0,0,,,,,,,,,0,,58,100
140340,note_on,0,0,0,,,,,,,,,0,,78,100
140340,note_on,0,0,0,,,,,,,,,3,,58,100
140340,note_on,0,0,0,,,,,,,,,3,,78,100
140340,note_on,0,0,0,,,,,,,,,5,,78,100
140340,note_on,0,0,0,,,,,,,,,6,,73,100
140340,note_on,0,0,0,,,,,,,,,7,,73,100
140340,note_on,0,0,0,,,,,,,,,8,,58,100
140340,note_on,0,0,0,,,,,,,,,10,,46,100
140340,note_on,0,0,0,,,,,,,,,13,,78,100
140340,note_on,0,0,0,,,,,,,,,14,,58,100
140340,note_on,0,0,0,,,,,,,,,15,,58,100
140370,note_on,30,0,0,,,,,,,,,15,,58,0
140370,note_on,0,0,0,,,,,,,,,0,,78,0
140370,note_on,0,0,0,,,,,,,,,8,,58,0
140370,note_on,0,0,0,,,,,,,,,3,,58,0
140370,note_on,0,0,0,,,,,,,,,3,,78,0
140370,note_on,0,0,0,,,,,,,,,0,,58,0
140370,note_on,0,0,0,,,,,,,,,5,,78,0
140370,note_on,0,0,0,,,,,,,,,6,,73,0
140370,note_on,0,0,0,,,,,,,,,10,,46,0
140370,note_on,0,0,0,,,,,,,,,7,,73,0
140370,note_on,0,0,0,,,,,,,,,14,,58,0
140370,note_on,0,0,0,,,,,,,,,13,,78,0
140400,note_on,30,0,0,,,,,,,,,0,,59,100
140400,note_on,0,0,0,,,,,,,,,0,,74,100
140400,note_on,0,0,0,,,,,,,,,3,,59,100
140400,note_on,0,0,0,,,,,,,,,3,,74,100
140400,note_on,0,0,0,,,,,,,,,5,,74,100
140400,note_on,0,0,0,,,,,,,,,6,,71,100
140400,note_on,0,0,0,,,,,,,,,7,,71,100
140400,note_on,0,0,0,,,,,,,,,8,,59,100
140400,note_on,0,0,0,,,,,,,,,10,,47,100
140400,note_on,0,0,0,,,,,,,,,13,,74,100
140400,note_on,0,0,0,,,,,,,,,14,,59,100
140400,note_on,0,0,0,,,,,,,,,15,,59,100
140430,note_on,30,0,0,,,,,,,,,15,,59,0
140430,note_on,0,0,0,,,,,,,,,13,,74,0
140430,note_on,0,0,0,,,,,,,,,8,,59,0
140430,note_on,0,0,0,,,,,,,,,3,,59,0
140430,note_on,0,0,0,,,,,,,,,3,,74,0
140430,note_on,0,0,0,,,,,,,,,5,,74,0
140430,note_on,0,0,0,,,,,,,,,0,,59,0
140430,note_on,0,0,0,,,,,,,,,0,,74,0
140430,note_on,0,0,0,,,,,,,,,10,,47,0
140430,note_on,0,0,0,,,,,,,,,14,,59,0
140460,note_on,30,0,0,,,,,,,,,0,,52,100
140460,note_on,0,0,0,,,,,,,,,0,,73,100
140460,note_on,0,0,0,,,,,,,,,3,,52,100
140460,note_on,0,0,0,,,,,,,,,3,,73,100
140460,note_on,0,0,0,,,,,,,,,5,,73,100
140460,note_on,0,0,0,,,,,,,,,8,,52,100
140460,note_on,0,0,0,,,,,,,,,10,,40,100
140460,note_on,0,0,0,,,,,,,,,13,,73,100
140460,note_on,0,0,0,,,,,,,,,14,,52,100
140460,note_on,0,0,0,,,,,,,,,15,,52,100
140490,note_on,30,0,0,,,,,,,,,15,,52,0
140490,note_on,0,0,0,,,,,,,,,13,,73,0
140490,note_on,0,0,0,,,,,,,,,8,,52,0
140490,note_on,0,0,0,,,,,,,,,0,,52,0
140490,note_on,0,0,0,,,,,,,,,5,,73,0
140490,note_on,0,0,0,,,,,,,,,0,,73,0
140490,note_on,0,0,0,,,,,,,,,3,,52,0
140490,note_on,0,0,0,,,,,,,,,3,,73,0
140490,note_on,0,0,0,,,,,,,,,10,,40,0
140490,note_on,0,0,0,,,,,,,,,14,,52,0
140520,note_on,30,0,0,,,,,,,,,0,,54,100
140520,note_on,0,0,0,,,,,,,,,0,,74,100
140520,note_on,0,0,0,,,,,,,,,3,,54,100
140520,note_on,0,0,0,,,,,,,,,3,,74,100
140520,note_on,0,0,0,,,,,,,,,5,,74,100
140520,note_on,0,0,0,,,,,,,,,8,,54,100
140520,note_on,0,0,0,,,,,,,,,10,,42,100
140520,note_on,0,0,0,,,,,,,,,13,,74,100
140520,note_on,0,0,0,,,,,,,,,14,,54,100
140520,note_on,0,0,0,,,,,,,,,15,,54,100
140535,note_on,15,0,0,,,,,,,,,13,,74,0
140535,note_on,0,0,0,,,,,,,,,5,,74,0
140535,note_on,0,0,0,,,,,,,,,3,,74,0
140535,note_on,0,0,0,,,,,,,,,0,,74,0
140535,note_on,0,0,0,,,,,,,,,0,,73,100
140535,note_on,0,0,0,,,,,,,,,3,,73,100
140535,note_on,0,0,0,,,,,,,,,5,,73,100
140535,note_on,0,0,0,,,,,,,,,13,,73,100
140550,note_on,15,0,0,,,,,,,,,13,,73,0
140550,note_on,0,0,0,,,,,,,,,3,,73,0
140550,note_on,0,0,0,,,,,,,,,0,,73,0
140550,note_on,0,0,0,,,,,,,,,5,,73,0
140550,note_on,0,0,0,,,,,,,,,0,,74,100
140550,note_on,0,0,0,,,,,,,,,3,,74,100
140550,note_on,0,0,0,,,,,,,,,5,,74,100
140550,note_on,0,0,0,,,,,,,,,13,,74,100
140565,note_on,15,0,0,,,,,,,,,13,,74,0
140565,note_on,0,0,0,,,,,,,,,3,,74,0
140565,note_on,0,0,0,,,,,,,,,0,,74,0
140565,note_on,0,0,0,,,,,,,,,5,,74,0
140565,note_on,0,0,0,,,,,,,,,0,,73,100
140565,note_on,0,0,0,,,,,,,,,3,,73,100
140565,note_on,0,0,0,,,,,,,,,5,,73,100
140565,note_on,0,0,0,,,,,,,,,13,,73,100
140580,note_on,15,0,0,,,,,,,,,13,,73,0
140580,note_on,0,0,0,,,,,,,,,3,,73,0
140580,note_on,0,0,0,,,,,,,,,0,,73,0
140580,note_on,0,0,0,,,,,,,,,5,,73,0
140580,note_on,0,0,0,,,,,,,,,0,,74,100
140580,note_on,0,0,0,,,,,,,,,3,,74,100
140580,note_on,0,0,0,,,,,,,,,5,,74,100
140580,note_on,0,0,0,,,,,,,,,13,,74,100
140595,note_on,15,0,0,,,,,,,,,13,,74,0
140595,note_on,0,0,0,,,,,,,,,3,,74,0
140595,note_on,0,0,0,,,,,,,,,6,,71,0
140595,note_on,0,0,0,,,,,,,,,7,,71,0
140595,note_on,0,0,0,,,,,,,,,0,,74,0
140595,note_on,0,0,0,,,,,,,,,5,,74,0
140595,note_on,0,0,0,,,,,,,,,0,,73,100
140595,note_on,0,0,0,,,,,,,,,3,,73,100
140595,note_on,0,0,0,,,,,,,,,5,,73,100
140595,note_on,0,0,0,,,,,,,,,13,,73,100
140610,note_on,15,0,0,,,,,,,,,13,,73,0
140610,note_on,0,0,0,,,,,,,,,5,,73,0
140610,note_on,0,0,0,,,,,,,,,0,,73,0
140610,note_on,0,0,0,,,,,,,,,3,,73,0
140610,note_on,0,0,0,,,,,,,,,3,,54,0
140610,note_on,0,0,0,,,,,,,,,0,,54,0
140610,note_on,0,0,0,,,,,,,,,0,,74,100
140610,note_on,0,0,0,,,,,,,,,3,,74,100
140610,note_on,0,0,0,,,,,,,,,5,,74,100
140610,note_on,0,0,0,,,,,,,,,13,,74,100
140625,note_on,15,0,0,,,,,,,,,13,,74,0
140625,note_on,0,0,0,,,,,,,,,15,,54,0
140625,note_on,0,0,0,,,,,,,,,0,,74,0
140625,note_on,0,0,0,,,,,,,,,8,,54,0
140625,note_on,0,0,0,,,,,,,,,10,,42,0
140625,note_on,0,0,0,,,,,,,,,14,,54,0
140625,note_on,0,0,0,,,,,,,,,3,,74,0
140625,note_on,0,0,0,,,,,,,,,5,,74,0
140625,note_on,0,0,0,,,,,,,,,0,,73,100
140625,note_on,0,0,0,,,,,,,,,3,,73,100
140625,note_on,0,0,0,,,,,,,,,5,,73,100
140625,note_on,0,0,0,,,,,,,,,13,,73,100
140640,note_on,15,0,0,,,,,,,,,13,,73,0
140640,note_on,0,0,0,,,,,,,,,0,,73,0
140640,note_on,0,0,0,,,,,,,,,3,,73,0
140640,note_on,0,0,0,,,,,,,,,5,,73,0
140640,note_on,0,0,0,,,,,,,,,0,,42,100
140640,note_on,0,0,0,,,,,,,,,0,,74,100
140640,note_on,0,0,0,,,,,,,,,3,,42,100
140640,note_on,0,0,0,,,,,,,,,3,,74,100
140640,note_on,0,0,0,,,,,,,,,5,,74,100
140640,note_on,0,0,0,,,,,,,,,6,,70,100
140640,note_on,0,0,0,,,,,,,,,7,,70,100
140640,note_on,0,0,0,,,,,,,,,8,,42,100
140640,note_on,0,0,0,,,,,,,,,10,,30,100
140640,note_on,0,0,0,,,,,,,,,13,,74,100
140640,note_on,0,0,0,,,,,,,,,14,,42,100
140640,note_on,0,0,0,,,,,,,,,15,,42,100
140655,note_on,15,0,0,,,,,,,,,13,,74,0
140655,note_on,0,0,0,,,,,,,,,5,,74,0
140655,note_on,0,0,0,,,,,,,,,3,,74,0
140655,note_on,0,0,0,,,,,,,,,0,,74,0
140655,note_on,0,0,0,,,,,,,,,0,,73,100
140655,note_on,0,0,0,,,,,,,,,3,,73,100
140655,note_on,0,0,0,,,,,,,,,5,,73,100
140655,note_on,0,0,0,,,,,,,,,13,,73,100
140700,note_on,45,0,0,,,,,,,,,13,,73,0
140700,note_on,0,0,0,,,,,,,,,3,,73,0
140700,note_on,0,0,0,,,,,,,,,0,,73,0
140700,note_on,0,0,0,,,,,,,,,5,,73,0
140700,note_on,0,0,0,,,,,,,,,0,,71,100
140700,note_on,0,0,0,,,,,,,,,3,,71,100
140700,note_on,0,0,0,,,,,,,,,5,,71,100
140700,note_on,0,0,0,,,,,,,,,13,,71,100
140730,note_on,30,0,0,,,,,,,,,13,,71,0
140730,note_on,0,0,0,,,,,,,,,3,,71,0
140730,note_on,0,0,0,,,,,,,,,0,,42,0
140730,note_on,0,0,0,,,,,,,,,3,,42,0
140730,note_on,0,0,0,,,,,,,,,0,,71,0
140730,note_on,0,0,0,,,,,,,,,5,,71,0
140730,note_on,0,0,0,,,,,,,,,6,,70,0
140730,note_on,0,0,0,,,,,,,,,7,,70,0
140745,note_on,15,0,0,,,,,,,,,15,,42,0
140745,note_on,0,0,0,,,,,,,,,14,,42,0
140745,note_on,0,0,0,,,,,,,,,8,,42,0
140745,note_on,0,0,0,,,,,,,,,10,,30,0
140760,note_on,15,0,0,,,,,,,,,0,,47,100
140760,note_on,0,0,0,,,,,,,,,0,,71,100
140760,note_on,0,0,0,,,,,,,,,3,,47,100
140760,note_on,0,0,0,,,,,,,,,3,,71,100
140760,note_on,0,0,0,,,,,,,,,5,,71,100
140760,note_on,0,0,0,,,,,,,,,6,,71,100
140760,note_on,0,0,0,,,,,,,,,7,,71,100
140760,note_on,0,0,0,,,,,,,,,8,,47,100
140760,note_on,0,0,0,,,,,,,,,10,,35,100
140760,note_on,0,0,0,,,,,,,,,13,,71,100
140760,note_on,0,0,0,,,,,,,,,14,,47,100
140760,note_on,0,0,0,,,,,,,,,15,,47,100
140763,control_change,3,0,0,,,,,,,11,127,10,,,
140763,control_change,0,0,0,,,,,,,11,126,14,,,
140767,control_change,4,0,0,,,,,,,11,126,10,,,
140767,control_change,0,0,0,,,,,,,11,125,14,,,
140771,control_change,4,0,0,,,,,,,11,125,10,,,
140771,control_change,0,0,0,,,,,,,11,124,14,,,
140775,control_change,4,0,0,,,,,,,11,124,10,,,
140775,control_change,0,0,0,,,,,,,11,123,14,,,
140779,control_change,4,0,0,,,,,,,11,123,10,,,
140779,control_change,0,0,0,,,,,,,11,122,14,,,
140783,control_change,4,0,0,,,,,,,11,122,10,,,
140783,control_change,0,0,0,,,,,,,11,121,14,,,
140787,control_change,4,0,0,,,,,,,11,121,10,,,
140787,control_change,0,0,0,,,,,,,11,120,14,,,
140791,control_change,4,0,0,,,,,,,11,120,10,,,
140791,control_change,0,0,0,,,,,,,11,119,14,,,
140793,control_change,2,0,0,,,,,,,11,119,10,,,
140795,control_change,2,0,0,,,,,,,11,118,14,,,
140797,control_change,2,0,0,,,,,,,11,118,10,,,
140799,control_change,2,0,0,,,,,,,11,117,14,,,
140801,control_change,2,0,0,,,,,,,11,117,10,,,
140803,control_change,2,0,0,,,,,,,11,116,14,,,
140805,control_change,2,0,0,,,,,,,11,116,10,,,
140807,control_change,2,0,0,,,,,,,11,115,14,,,
140809,control_change,2,0,0,,,,,,,11,115,10,,,
140810,control_change,1,0,0,,,,,,,11,127,8,,,
140811,control_change,1,0,0,,,,,,,11,114,14,,,
140813,control_change,2,0,0,,,,,,,11,114,10,,,
140813,control_change,0,0,0,,,,,,,11,113,14,,,
140814,control_change,1,0,0,,,,,,,11,126,8,,,
140817,control_change,3,0,0,,,,,,,11,113,10,,,
140817,control_change,0,0,0,,,,,,,11,112,14,,,
140818,control_change,1,0,0,,,,,,,11,125,8,,,
140820,control_change,2,0,0,,,,,,,11,124,8,,,
140821,control_change,1,0,0,,,,,,,11,112,10,,,
140821,control_change,0,0,0,,,,,,,11,111,14,,,
140823,control_change,2,0,0,,,,,,,11,111,10,,,
140824,control_change,1,0,0,,,,,,,11,123,8,,,
140825,control_change,1,0,0,,,,,,,11,110,14,,,
140826,control_change,1,0,0,,,,,,,11,122,8,,,
140827,control_change,1,0,0,,,,,,,11,110,10,,,
140829,control_change,2,0,0,,,,,,,11,109,14,,,
140830,control_change,1,0,0,,,,,,,11,121,8,,,
140831,control_change,1,0,0,,,,,,,11,109,10,,,
140832,control_change,1,0,0,,,,,,,11,120,8,,,
140833,control_change,1,0,0,,,,,,,11,108,14,,,
140835,control_change,2,0,0,,,,,,,11,108,10,,,
140836,control_change,1,0,0,,,,,,,11,119,8,,,
140837,control_change,1,0,0,,,,,,,11,107,14,,,
140838,control_change,1,0,0,,,,,,,11,118,8,,,
140839,control_change,1,0,0,,,,,,,11,107,10,,,
140841,control_change,2,0,0,,,,,,,11,106,14,,,
140842,control_change,1,0,0,,,,,,,11,117,8,,,
140843,control_change,1,0,0,,,,,,,11,106,10,,,
140844,control_change,1,0,0,,,,,,,11,116,8,,,
140845,control_change,1,0,0,,,,,,,11,105,14,,,
140847,control_change,2,0,0,,,,,,,11,105,10,,,
140848,control_change,1,0,0,,,,,,,11,115,8,,,
140849,control_change,1,0,0,,,,,,,11,104,14,,,
140850,note_on,1,0,0,,,,,,,,,13,,71,0
140850,note_on,0,0,0,,,,,,,,,5,,71,0
140850,note_on,0,0,0,,,,,,,,,0,,47,0
140850,note_on,0,0,0,,,,,,,,,3,,71,0
140850,note_on,0,0,0,,,,,,,,,3,,47,0
140850,note_on,0,0,0,,,,,,,,,0,,71,0
140850,control_change,0,0,0,,,,,,,11,114,8,,,
140851,control_change,1,0,0,,,,,,,11,104,10,,,
140853,control_change,2,0,0,,,,,,,11,103,10,,,
140853,control_change,0,0,0,,,,,,,11,103,14,,,
140854,control_change,1,0,0,,,,,,,11,113,8,,,
140856,control_change,2,0,0,,,,,,,11,112,8,,,
140857,control_change,1,0,0,,,,,,,11,102,10,,,
140857,control_change,0,0,0,,,,,,,11,102,14,,,
140859,control_change,2,0,0,,,,,,,11,101,14,,,
140860,control_change,1,0,0,,,,,,,11,111,8,,,
140861,control_change,1,0,0,,,,,,,11,101,10,,,
140862,control_change,1,0,0,,,,,,,11,110,8,,,
140863,control_change,1,0,0,,,,,,,11,100,14,,,
140865,control_change,2,0,0,,,,,,,11,100,10,,,
140866,control_change,1,0,0,,,,,,,11,109,8,,,
140867,control_change,1,0,0,,,,,,,11,99,14,,,
140868,control_change,1,0,0,,,,,,,11,108,8,,,
140869,control_change,1,0,0,,,,,,,11,99,10,,,
140871,control_change,2,0,0,,,,,,,11,98,14,,,
140872,control_change,1,0,0,,,,,,,11,107,8,,,
140873,control_change,1,0,0,,,,,,,11,98,10,,,
140874,control_change,1,0,0,,,,,,,11,106,8,,,
140875,control_change,1,0,0,,,,,,,11,97,14,,,
140877,control_change,2,0,0,,,,,,,11,63,5,,,
140877,control_change,0,0,0,,,,,,,11,97,10,,,
140878,control_change,1,0,0,,,,,,,11,105,8,,,
140879,control_change,1,0,0,,,,,,,11,96,14,,,
140880,control_change,1,0,0,,,,,,,11,104,8,,,
140881,control_change,1,0,0,,,,,,,11,96,10,,,
140883,control_change,2,0,0,,,,,,,11,95,10,,,
140883,control_change,0,0,0,,,,,,,11,95,14,,,
140884,control_change,1,0,0,,,,,,,11,103,8,,,
140886,control_change,2,0,0,,,,,,,11,102,8,,,
140887,control_change,1,0,0,,,,,,,11,94,10,,,
140887,control_change,0,0,0,,,,,,,11,94,14,,,
140890,control_change,3,0,0,,,,,,,11,101,8,,,
140891,control_change,1,0,0,,,,,,,11,93,10,,,
140891,control_change,0,0,0,,,,,,,11,93,14,,,
140892,control_change,1,0,0,,,,,,,11,100,8,,,
140895,control_change,3,0,0,,,,,,,11,92,10,,,
140895,control_change,0,0,0,,,,,,,11,92,14,,,
140896,control_change,1,0,0,,,,,,,11,99,8,,,
140898,control_change,2,0,0,,,,,,,11,98,8,,,
140899,control_change,1,0,0,,,,,,,11,91,10,,,
140899,control_change,0,0,0,,,,,,,11,91,14,,,
140902,control_change,3,0,0,,,,,,,11,97,8,,,
140903,control_change,1,0,0,,,,,,,11,90,10,,,
140903,control_change,0,0,0,,,,,,,11,90,14,,,
140904,control_change,1,0,0,,,,,,,11,96,8,,,
140907,control_change,3,0,0,,,,,,,11,89,10,,,
140907,control_change,0,0,0,,,,,,,11,89,14,,,
140908,control_change,1,0,0,,,,,,,11,95,8,,,
140909,control_change,1,0,0,,,,,,,11,88,14,,,
140910,control_change,1,0,0,,,,,,,11,94,8,,,
140911,control_change,1,0,0,,,,,,,11,88,10,,,
140913,control_change,2,0,0,,,,,,,11,87,10,,,
140913,control_change,0,0,0,,,,,,,11,87,14,,,
140914,control_change,1,0,0,,,,,,,11,93,8,,,
140916,control_change,2,0,0,,,,,,,11,92,8,,,
140917,control_change,1,0,0,,,,,,,11,86,10,,,
140917,control_change,0,0,0,,,,,,,11,86,14,,,
140920,control_change,3,0,0,,,,,,,11,91,8,,,
140921,control_change,1,0,0,,,,,,,11,85,10,,,
140921,control_change,0,0,0,,,,,,,11,85,14,,,
140922,control_change,1,0,0,,,,,,,11,90,8,,,
140924,control_change,2,0,0,,,,,,,0,43,1,,,
140924,control_change,0,0,0,,,,,,,0,43,1,,,
140924,control_change,0,0,0,,,,,,,0,43,1,,,
140924,control_change,0,0,0,,,,,,,0,43,1,,,
140925,control_change,1,0,0,,,,,,,0,43,1,,,
140925,program_change,0,0,0,,,,,,,,,1,66,,
140925,control_change,0,0,0,,,,,,,11,84,10,,,
140925,control_change,0,0,0,,,,,,,11,84,14,,,
140926,control_change,1,0,0,,,,,,,11,89,8,,,
140928,control_change,2,0,0,,,,,,,11,88,8,,,
140929,control_change,1,0,0,,,,,,,11,83,10,,,
140929,control_change,0,0,0,,,,,,,11,83,14,,,
140932,control_change,3,0,0,,,,,,,11,87,8,,,
140933,control_change,1,0,0,,,,,,,11,82,10,,,
140933,control_change,0,0,0,,,,,,,11,82,14,,,
140934,control_change,1,0,0,,,,,,,11,86,8,,,
140937,control_change,3,0,0,,,,,,,11,81,10,,,
140937,control_change,0,0,0,,,,,,,11,81,14,,,
140938,control_change,1,0,0,,,,,,,11,85,8,,,
140940,note_on,2,0,0,,,,,,,,,1,,78,100
140940,note_on,0,0,0,,,,,,,,,4,,78,100
140940,control_change,0,0,0,,,,,,,11,84,8,,,
140941,control_change,1,0,0,,,,,,,11,80,10,,,
140941,control_change,0,0,0,,,,,,,11,80,14,,,
140943,control_change,2,0,0,,,,,,,11,79,10,,,
140944,control_change,1,0,0,,,,,,,11,83,8,,,
140945,control_change,1,0,0,,,,,,,11,79,14,,,
140946,control_change,1,0,0,,,,,,,11,82,8,,,
140947,control_change,1,0,0,,,,,,,11,78,10,,,
140949,control_change,2,0,0,,,,,,,11,78,14,,,
140950,control_change,1,0,0,,,,,,,11,81,8,,,
140951,control_change,1,0,0,,,,,,,11,77,10,,,
140952,control_change,1,0,0,,,,,,,11,80,8,,,
140953,control_change,1,0,0,,,,,,,11,77,14,,,
140955,control_change,2,0,0,,,,,,,11,76,10,,,
140955,control_change,0,0,0,,,,,,,11,76,14,,,
140956,control_change,1,0,0,,,,,,,11,79,8,,,
140958,control_change,2,0,0,,,,,,,11,78,8,,,
140959,control_change,1,0,0,,,,,,,11,75,10,,,
140959,control_change,0,0,0,,,,,,,11,75,14,,,
140962,control_change,3,0,0,,,,,,,11,77,8,,,
140963,control_change,1,0,0,,,,,,,11,74,10,,,
140963,control_change,0,0,0,,,,,,,11,74,14,,,
140964,control_change,1,0,0,,,,,,,11,76,8,,,
140967,control_change,3,0,0,,,,,,,11,73,10,,,
140967,control_change,0,0,0,,,,,,,11,73,14,,,
140968,control_change,1,0,0,,,,,,,11,75,8,,,
140970,note_on,2,0,0,,,,,,,,,4,,78,0
140970,note_on,0,0,0,,,,,,,,,1,,78,0
140970,note_on,0,0,0,,,,,,,,,15,,47,0
140970,note_on,0,0,0,,,,,,,,,6,,71,0
140970,note_on,0,0,0,,,,,,,,,7,,71,0
140970,control_change,0,0,0,,,,,,,11,74,8,,,
140971,control_change,1,0,0,,,,,,,11,72,10,,,
140971,control_change,0,0,0,,,,,,,11,72,14,,,
140973,control_change,2,0,0,,,,,,,11,71,10,,,
140974,control_change,1,0,0,,,,,,,11,73,8,,,
140975,control_change,1,0,0,,,,,,,11,71,14,,,
140976,control_change,1,0,0,,,,,,,11,72,8,,,
140977,control_change,1,0,0,,,,,,,11,70,10,,,
140979,control_change,2,0,0,,,,,,,11,70,14,,,
140980,control_change,1,0,0,,,,,,,11,71,8,,,
140981,control_change,1,0,0,,,,,,,11,69,10,,,
140982,control_change,1,0,0,,,,,,,11,70,8,,,
140983,control_change,1,0,0,,,,,,,11,69,14,,,
140985,control_change,2,0,0,,,,,,,11,68,10,,,
140986,control_change,1,0,0,,,,,,,11,69,8,,,
140987,control_change,1,0,0,,,,,,,11,63,7,,,
140987,control_change,0,0,0,,,,,,,11,68,14,,,
140988,control_change,1,0,0,,,,,,,11,68,8,,,
140989,control_change,1,0,0,,,,,,,11,67,10,,,
140991,control_change,2,0,0,,,,,,,11,65,6,,,
140991,control_change,0,0,0,,,,,,,11,67,14,,,
140992,control_change,1,0,0,,,,,,,11,67,8,,,
140993,control_change,1,0,0,,,,,,,11,66,10,,,
140994,control_change,1,0,0,,,,,,,11,66,8,,,
140995,control_change,1,0,0,,,,,,,11,66,14,,,
140997,control_change,2,0,0,,,,,,,11,65,10,,,
140998,control_change,1,0,0,,,,,,,11,65,8,,,
140999,control_change,1,0,0,,,,,,,11,65,14,,,
141000,note_on,1,0,0,,,,,,,,,1,,74,100
141000,note_on,0,0,0,,,,,,,,,4,,74,100
141000,note_on,0,0,0,,,,,,,,,5,,66,100
141000,note_on,0,0,0,,,,,,,,,6,,59,100
141000,note_on,0,0,0,,,,,,,,,7,,59,100
141000,control_change,0,0,0,,,,,,,11,64,8,,,
141001,control_change,1,0,0,,,,,,,11,64,10,,,
141001,control_change,0,0,0,,,,,,,11,64,14,,,
141003,control_change,2,0,0,,,,,,,11,63,10,,,
141060,note_on,57,0,0,,,,,,,,,4,,74,0
141060,note_on,0,0,0,,,,,,,,,1,,74,0
141060,note_on,0,0,0,,,,,,,,,1,,71,100
141060,note_on,0,0,0,,,,,,,,,4,,71,100
141090,note_on,30,0,0,,,,,,,,,4,,71,0
141090,note_on,0,0,0,,,,,,,,,1,,71,0
141120,note_on,30,0,0,,,,,,,,,1,,73,100
141120,note_on,0,0,0,,,,,,,,,4,,73,100
141180,note_on,60,0,0,,,,,,,,,4,,73,0
141180,note_on,0,0,0,,,,,,,,,1,,73,0
141180,note_on,0,0,0,,,,,,,,,1,,66,100
141180,note_on,0,0,0,,,,,,,,,1,,70,100
141180,note_on,0,0,0,,,,,,,,,4,,66,100
141180,note_on,0,0,0,,,,,,,,,4,,70,100
141210,note_on,30,0,0,,,,,,,,,4,,70,0
141210,note_on,0,0,0,,,,,,,,,4,,66,0
141210,note_on,0,0,0,,,,,,,,,1,,66,0
141210,note_on,0,0,0,,,,,,,,,1,,70,0
141240,note_on,30,0,0,,,,,,,,,1,,62,100
141240,note_on,0,0,0,,,,,,,,,1,,71,100
141240,note_on,0,0,0,,,,,,,,,4,,62,100
141240,note_on,0,0,0,,,,,,,,,4,,71,100
141300,note_on,60,0,0,,,,,,,,,4,,71,0
141300,note_on,0,0,0,,,,,,,,,4,,62,0
141300,note_on,0,0,0,,,,,,,,,1,,62,0
141300,note_on,0,0,0,,,,,,,,,1,,71,0
141300,note_on,0,0,0,,,,,,,,,1,,59,100
141300,note_on,0,0,0,,,,,,,,,1,,74,100
141300,note_on,0,0,0,,,,,,,,,4,,59,100
141300,note_on,0,0,0,,,,,,,,,4,,74,100
141330,note_on,30,0,0,,,,,,,,,4,,74,0
141330,note_on,0,0,0,,,,,,,,,1,,74,0
141360,note_on,30,0,0,,,,,,,,,1,,59,0
141360,note_on,0,0,0,,,,,,,,,4,,59,0
141360,note_on,0,0,0,,,,,,,,,1,,61,100
141360,note_on,0,0,0,,,,,,,,,1,,76,100
141360,note_on,0,0,0,,,,,,,,,4,,61,100
141360,note_on,0,0,0,,,,,,,,,4,,76,100
141420,note_on,60,0,0,,,,,,,,,4,,76,0
141420,note_on,0,0,0,,,,,,,,,4,,61,0
141420,note_on,0,0,0,,,,,,,,,1,,61,0
141420,note_on,0,0,0,,,,,,,,,1,,76,0
141420,note_on,0,0,0,,,,,,,,,1,,58,100
141420,note_on,0,0,0,,,,,,,,,1,,73,100
141420,note_on,0,0,0,,,,,,,,,4,,58,100
141420,note_on,0,0,0,,,,,,,,,4,,73,100
141450,note_on,30,0,0,,,,,,,,,4,,73,0
141450,note_on,0,0,0,,,,,,,,,1,,73,0
141480,note_on,30,0,0,,,,,,,,,1,,58,0
141480,note_on,0,0,0,,,,,,,,,4,,58,0
141480,note_on,0,0,0,,,,,,,,,1,,59,100
141480,note_on,0,0,0,,,,,,,,,1,,74,100
141480,note_on,0,0,0,,,,,,,,,4,,59,100
141480,note_on,0,0,0,,,,,,,,,4,,74,100
141540,note_on,60,0,0,,,,,,,,,4,,74,0
141540,note_on,0,0,0,,,,,,,,,4,,59,0
141540,note_on,0,0,0,,,,,,,,,1,,59,0
141540,note_on,0,0,0,,,,,,,,,1,,74,0
141540,note_on,0,0,0,,,,,,,,,1,,62,100
141540,note_on,0,0,0,,,,,,,,,1,,71,100
141540,note_on,0,0,0,,,,,,,,,4,,62,100
141540,note_on,0,0,0,,,,,,,,,4,,71,100
141570,note_on,30,0,0,,,,,,,,,4,,71,0
141570,note_on,0,0,0,,,,,,,,,1,,71,0
141600,note_on,30,0,0,,,,,,,,,1,,62,0
141600,note_on,0,0,0,,,,,,,,,4,,62,0
141600,note_on,0,0,0,,,,,,,,,1,,64,100
141600,note_on,0,0,0,,,,,,,,,1,,73,100
141600,note_on,0,0,0,,,,,,,,,4,,64,100
141600,note_on,0,0,0,,,,,,,,,4,,73,100
141660,note_on,60,0,0,,,,,,,,,4,,73,0
141660,note_on,0,0,0,,,,,,,,,4,,64,0
141660,note_on,0,0,0,,,,,,,,,1,,64,0
141660,note_on,0,0,0,,,,,,,,,1,,73,0
141660,note_on,0,0,0,,,,,,,,,1,,61,100
141660,note_on,0,0,0,,,,,,,,,1,,70,100
141660,note_on,0,0,0,,,,,,,,,4,,61,100
141660,note_on,0,0,0,,,,,,,,,4,,70,100
141690,note_on,30,0,0,,,,,,,,,4,,70,0
141690,note_on,0,0,0,,,,,,,,,1,,70,0
141720,note_on,30,0,0,,,,,,,,,1,,61,0
141720,note_on,0,0,0,,,,,,,,,4,,61,0
141720,note_on,0,0,0,,,,,,,,,1,,62,100
141720,note_on,0,0,0,,,,,,,,,1,,71,100
141720,note_on,0,0,0,,,,,,,,,4,,62,100
141720,note_on,0,0,0,,,,,,,,,4,,71,100
141750,note_on,30,0,0,,,,,,,,,4,,71,0
141750,note_on,0,0,0,,,,,,,,,4,,62,0
141750,note_on,0,0,0,,,,,,,,,1,,62,0
141750,note_on,0,0,0,,,,,,,,,1,,71,0
141750,note_on,0,0,0,,,,,,,,,1,,64,100
141750,note_on,0,0,0,,,,,,,,,1,,73,100
141750,note_on,0,0,0,,,,,,,,,4,,64,100
141750,note_on,0,0,0,,,,,,,,,4,,73,100
141780,note_on,30,0,0,,,,,,,,,4,,73,0
141780,note_on,0,0,0,,,,,,,,,4,,64,0
141780,note_on,0,0,0,,,,,,,,,1,,64,0
141780,note_on,0,0,0,,,,,,,,,1,,73,0
141780,note_on,0,0,0,,,,,,,,,1,,66,100
141780,note_on,0,0,0,,,,,,,,,1,,74,100
141780,note_on,0,0,0,,,,,,,,,4,,66,100
141780,note_on,0,0,0,,,,,,,,,4,,74,100
141810,note_on,30,0,0,,,,,,,,,4,,74,0
141810,note_on,0,0,0,,,,,,,,,4,,66,0
141810,note_on,0,0,0,,,,,,,,,1,,66,0
141810,note_on,0,0,0,,,,,,,,,1,,74,0
141840,note_on,30,0,0,,,,,,,,,1,,58,100
141840,note_on,0,0,0,,,,,,,,,1,,73,100
141840,note_on,0,0,0,,,,,,,,,4,,58,100
141840,note_on,0,0,0,,,,,,,,,4,,73,100
141870,note_on,30,0,0,,,,,,,,,4,,73,0
141870,note_on,0,0,0,,,,,,,,,4,,58,0
141870,note_on,0,0,0,,,,,,,,,1,,58,0
141870,note_on,0,0,0,,,,,,,,,1,,73,0
141870,note_on,0,0,0,,,,,,,,,1,,59,100
141870,note_on,0,0,0,,,,,,,,,1,,74,100
141870,note_on,0,0,0,,,,,,,,,4,,59,100
141870,note_on,0,0,0,,,,,,,,,4,,74,100
141900,note_on,30,0,0,,,,,,,,,4,,74,0
141900,note_on,0,0,0,,,,,,,,,4,,59,0
141900,note_on,0,0,0,,,,,,,,,1,,59,0
141900,note_on,0,0,0,,,,,,,,,1,,74,0
141900,note_on,0,0,0,,,,,,,,,1,,61,100
141900,note_on,0,0,0,,,,,,,,,1,,76,100
141900,note_on,0,0,0,,,,,,,,,4,,61,100
141900,note_on,0,0,0,,,,,,,,,4,,76,100
141930,note_on,30,0,0,,,,,,,,,4,,76,0
141930,note_on,0,0,0,,,,,,,,,4,,61,0
141930,note_on,0,0,0,,,,,,,,,1,,61,0
141930,note_on,0,0,0,,,,,,,,,1,,76,0
141960,note_on,30,0,0,,,,,,,,,1,,59,100
141960,note_on,0,0,0,,,,,,,,,1,,74,100
141960,note_on,0,0,0,,,,,,,,,4,,59,100
141960,note_on,0,0,0,,,,,,,,,4,,74,100
141990,note_on,30,0,0,,,,,,,,,4,,74,0
141990,note_on,0,0,0,,,,,,,,,4,,59,0
141990,note_on,0,0,0,,,,,,,,,1,,59,0
141990,note_on,0,0,0,,,,,,,,,1,,74,0
141990,note_on,0,0,0,,,,,,,,,1,,61,100
141990,note_on,0,0,0,,,,,,,,,1,,76,100
141990,note_on,0,0,0,,,,,,,,,4,,61,100
141990,note_on,0,0,0,,,,,,,,,4,,76,100
142020,note_on,30,0,0,,,,,,,,,4,,76,0
142020,note_on,0,0,0,,,,,,,,,4,,61,0
142020,note_on,0,0,0,,,,,,,,,1,,61,0
142020,note_on,0,0,0,,,,,,,,,1,,76,0
142020,note_on,0,0,0,,,,,,,,,1,,62,100
142020,note_on,0,0,0,,,,,,,,,1,,78,100
142020,note_on,0,0,0,,,,,,,,,4,,62,100
142020,note_on,0,0,0,,,,,,,,,4,,78,100
142050,note_on,30,0,0,,,,,,,,,4,,78,0
142050,note_on,0,0,0,,,,,,,,,4,,62,0
142050,note_on,0,0,0,,,,,,,,,1,,62,0
142050,note_on,0,0,0,,,,,,,,,1,,78,0
142080,note_on,30,0,0,,,,,,,,,1,,61,100
142080,note_on,0,0,0,,,,,,,,,1,,70,100
142080,note_on,0,0,0,,,,,,,,,4,,61,100
142080,note_on,0,0,0,,,,,,,,,4,,70,100
142110,note_on,30,0,0,,,,,,,,,4,,70,0
142110,note_on,0,0,0,,,,,,,,,4,,61,0
142110,note_on,0,0,0,,,,,,,,,1,,61,0
142110,note_on,0,0,0,,,,,,,,,1,,70,0
142110,note_on,0,0,0,,,,,,,,,1,,62,100
142110,note_on,0,0,0,,,,,,,,,1,,71,100
142110,note_on,0,0,0,,,,,,,,,4,,62,100
142110,note_on,0,0,0,,,,,,,,,4,,71,100
142140,note_on,30,0,0,,,,,,,,,4,,71,0
142140,note_on,0,0,0,,,,,,,,,4,,62,0
142140,note_on,0,0,0,,,,,,,,,1,,62,0
142140,note_on,0,0,0,,,,,,,,,1,,71,0
142140,note_on,0,0,0,,,,,,,,,1,,64,100
142140,note_on,0,0,0,,,,,,,,,1,,73,100
142140,note_on,0,0,0,,,,,,,,,4,,64,100
142140,note_on,0,0,0,,,,,,,,,4,,73,100
142170,note_on,30,0,0,,,,,,,,,4,,73,0
142170,note_on,0,0,0,,,,,,,,,4,,64,0
142170,note_on,0,0,0,,,,,,,,,1,,64,0
142170,note_on,0,0,0,,,,,,,,,1,,73,0
142170,note_on,0,0,0,,,,,,,,,5,,66,0
142200,note_on,30,0,0,,,,,,,,,1,,62,100
142200,note_on,0,0,0,,,,,,,,,1,,71,100
142200,note_on,0,0,0,,,,,,,,,4,,62,100
142200,note_on,0,0,0,,,,,,,,,4,,71,100
142200,note_on,0,0,0,,,,,,,,,5,,71,100
142230,note_on,30,0,0,,,,,,,,,4,,71,0
142230,note_on,0,0,0,,,,,,,,,4,,62,0
142230,note_on,0,0,0,,,,,,,,,1,,71,0
142230,note_on,0,0,0,,,,,,,,,1,,62,0
142230,note_on,0,0,0,,,,,,,,,1,,64,100
142230,note_on,0,0,0,,,,,,,,,1,,73,100
142230,note_on,0,0,0,,,,,,,,,4,,64,100
142230,note_on,0,0,0,,,,,,,,,4,,73,100
142260,note_on,30,0,0,,,,,,,,,4,,73,0
142260,note_on,0,0,0,,,,,,,,,4,,64,0
142260,note_on,0,0,0,,,,,,,,,1,,64,0
142260,note_on,0,0,0,,,,,,,,,1,,73,0
142260,note_on,0,0,0,,,,,,,,,1,,66,100
142260,note_on,0,0,0,,,,,,,,,1,,74,100
142260,note_on,0,0,0,,,,,,,,,4,,66,100
142260,note_on,0,0,0,,,,,,,,,4,,74,100
142290,note_on,30,0,0,,,,,,,,,4,,74,0
142290,note_on,0,0,0,,,,,,,,,4,,66,0
142290,note_on,0,0,0,,,,,,,,,1,,66,0
142290,note_on,0,0,0,,,,,,,,,1,,74,0
142320,note_on,30,0,0,,,,,,,,,1,,54,100
142320,note_on,0,0,0,,,,,,,,,1,,74,100
142320,note_on,0,0,0,,,,,,,,,4,,54,100
142320,note_on,0,0,0,,,,,,,,,4,,74,100
142350,note_on,30,0,0,,,,,,,,,4,,74,0
142350,note_on,0,0,0,,,,,,,,,4,,54,0
142350,note_on,0,0,0,,,,,,,,,1,,54,0
142350,note_on,0,0,0,,,,,,,,,1,,74,0
142350,note_on,0,0,0,,,,,,,,,1,,56,100
142350,note_on,0,0,0,,,,,,,,,1,,76,100
142350,note_on,0,0,0,,,,,,,,,4,,56,100
142350,note_on,0,0,0,,,,,,,,,4,,76,100
142380,note_on,30,0,0,,,,,,,,,4,,76,0
142380,note_on,0,0,0,,,,,,,,,4,,56,0
142380,note_on,0,0,0,,,,,,,,,1,,56,0
142380,note_on,0,0,0,,,,,,,,,1,,76,0
142380,note_on,0,0,0,,,,,,,,,1,,57,100
142380,note_on,0,0,0,,,,,,,,,1,,78,100
142380,note_on,0,0,0,,,,,,,,,4,,57,100
142380,note_on,0,0,0,,,,,,,,,4,,78,100
142410,note_on,30,0,0,,,,,,,,,4,,78,0
142410,note_on,0,0,0,,,,,,,,,8,,47,0
142410,note_on,0,0,0,,,,,,,,,7,,59,0
142410,note_on,0,0,0,,,,,,,,,10,,35,0
142410,note_on,0,0,0,,,,,,,,,6,,59,0
142410,note_on,0,0,0,,,,,,,,,4,,57,0
142410,note_on,0,0,0,,,,,,,,,1,,78,0
142410,note_on,0,0,0,,,,,,,,,1,,57,0
142410,note_on,0,0,0,,,,,,,,,14,,47,0
142440,note_on,30,0,0,,,,,,,,,1,,56,100
142440,note_on,0,0,0,,,,,,,,,1,,76,100
142440,note_on,0,0,0,,,,,,,,,4,,56,100
142440,note_on,0,0,0,,,,,,,,,4,,76,100
142440,note_on,0,0,0,,,,,,,,,6,,68,100
142440,note_on,0,0,0,,,,,,,,,7,,68,100
142440,note_on,0,0,0,,,,,,,,,8,,52,100
142440,note_on,0,0,0,,,,,,,,,10,,40,100
142440,note_on,0,0,0,,,,,,,,,14,,52,100
142470,note_on,30,0,0,,,,,,,,,4,,76,0
142470,note_on,0,0,0,,,,,,,,,4,,56,0
142470,note_on,0,0,0,,,,,,,,,1,,76,0
142470,note_on,0,0,0,,,,,,,,,1,,56,0
142470,note_on,0,0,0,,,,,,,,,1,,78,100
142470,note_on,0,0,0,,,,,,,,,4,,78,100
142500,note_on,30,0,0,,,,,,,,,4,,78,0
142500,note_on,0,0,0,,,,,,,,,1,,78,0
142500,note_on,0,0,0,,,,,,,,,1,,59,100
142500,note_on,0,0,0,,,,,,,,,1,,76,100
142500,note_on,0,0,0,,,,,,,,,4,,59,100
142500,note_on,0,0,0,,,,,,,,,4,,76,100
142530,note_on,30,0,0,,,,,,,,,4,,76,0
142530,note_on,0,0,0,,,,,,,,,4,,59,0
142530,note_on,0,0,0,,,,,,,,,1,,59,0
142530,note_on,0,0,0,,,,,,,,,1,,76,0
142560,note_on,30,0,0,,,,,,,,,1,,76,100
142560,note_on,0,0,0,,,,,,,,,1,,56,100
142560,note_on,0,0,0,,,,,,,,,4,,76,100
142560,note_on,0,0,0,,,,,,,,,4,,56,100
142575,note_on,15,0,0,,,,,,,,,4,,76,0
142575,note_on,0,0,0,,,,,,,,,1,,76,0
142575,note_on,0,0,0,,,,,,,,,1,,74,100
142575,note_on,0,0,0,,,,,,,,,4,,74,100
142590,note_on,15,0,0,,,,,,,,,4,,74,0
142590,note_on,0,0,0,,,,,,,,,1,,74,0
142590,note_on,0,0,0,,,,,,,,,4,,56,0
142590,note_on,0,0,0,,,,,,,,,1,,56,0
142590,note_on,0,0,0,,,,,,,,,1,,76,100
142590,note_on,0,0,0,,,,,,,,,4,,76,100
142605,note_on,15,0,0,,,,,,,,,4,,76,0
142605,note_on,0,0,0,,,,,,,,,1,,76,0
142605,note_on,0,0,0,,,,,,,,,1,,74,100
142605,note_on,0,0,0,,,,,,,,,4,,74,100
142620,note_on,15,0,0,,,,,,,,,4,,74,0
142620,note_on,0,0,0,,,,,,,,,1,,74,0
142620,note_on,0,0,0,,,,,,,,,1,,76,100
142620,note_on,0,0,0,,,,,,,,,1,,52,100
142620,note_on,0,0,0,,,,,,,,,4,,76,100
142620,note_on,0,0,0,,,,,,,,,4,,52,100
142635,note_on,15,0,0,,,,,,,,,4,,76,0
142635,note_on,0,0,0,,,,,,,,,1,,76,0
142635,note_on,0,0,0,,,,,,,,,1,,74,100
142635,note_on,0,0,0,,,,,,,,,4,,74,100
142650,note_on,15,0,0,,,,,,,,,4,,74,0
142650,note_on,0,0,0,,,,,,,,,4,,52,0
142650,note_on,0,0,0,,,,,,,,,1,,74,0
142650,note_on,0,0,0,,,,,,,,,14,,52,0
142650,note_on,0,0,0,,,,,,,,,8,,52,0
142650,note_on,0,0,0,,,,,,,,,1,,52,0
142650,note_on,0,0,0,,,,,,,,,10,,40,0
142650,note_on,0,0,0,,,,,,,,,1,,73,100
142650,note_on,0,0,0,,,,,,,,,4,,73,100
142665,note_on,15,0,0,,,,,,,,,4,,73,0
142665,note_on,0,0,0,,,,,,,,,6,,68,0
142665,note_on,0,0,0,,,,,,,,,1,,73,0
142665,note_on,0,0,0,,,,,,,,,7,,68,0
142665,note_on,0,0,0,,,,,,,,,1,,74,100
142665,note_on,0,0,0,,,,,,,,,4,,74,100
142680,note_on,15,0,0,,,,,,,,,4,,74,0
142680,note_on,0,0,0,,,,,,,,,1,,74,0
142680,note_on,0,0,0,,,,,,,,,5,,71,0
142680,note_on,0,0,0,,,,,,,,,1,,73,100
142680,note_on,0,0,0,,,,,,,,,1,,57,100
142680,note_on,0,0,0,,,,,,,,,4,,73,100
142680,note_on,0,0,0,,,,,,,,,4,,57,100
142680,note_on,0,0,0,,,,,,,,,5,,73,100
142680,note_on,0,0,0,,,,,,,,,6,,64,100
142680,note_on,0,0,0,,,,,,,,,7,,66,100
142680,note_on,0,0,0,,,,,,,,,8,,45,100
142680,note_on,0,0,0,,,,,,,,,10,,33,100
142680,note_on,0,0,0,,,,,,,,,14,,45,100
142710,note_on,30,0,0,,,,,,,,,4,,57,0
142710,note_on,0,0,0,,,,,,,,,1,,57,0
142740,note_on,30,0,0,,,,,,,,,1,,59,100
142740,note_on,0,0,0,,,,,,,,,4,,59,100
142755,note_on,15,0,0,,,,,,,,,1,,73,0
142755,note_on,0,0,0,,,,,,,,,4,,73,0
142770,note_on,15,0,0,,,,,,,,,4,,59,0
142770,note_on,0,0,0,,,,,,,,,1,,59,0
142800,note_on,30,0,0,,,,,,,,,1,,61,100
142800,note_on,0,0,0,,,,,,,,,4,,61,100
142830,note_on,30,0,0,,,,,,,,,4,,61,0
142830,note_on,0,0,0,,,,,,,,,1,,61,0
142860,note_on,30,0,0,,,,,,,,,1,,57,100
142860,note_on,0,0,0,,,,,,,,,4,,57,100
142875,note_on,15,0,0,,,,,,,,,6,,64,0
142880,note_on,5,0,0,,,,,,,,,1,,76,100
142880,note_on,0,0,0,,,,,,,,,4,,76,100
142890,note_on,10,0,0,,,,,,,,,8,,45,0
142890,note_on,0,0,0,,,,,,,,,4,,57,0
142890,note_on,0,0,0,,,,,,,,,10,,33,0
142890,note_on,0,0,0,,,,,,,,,7,,66,0
142890,note_on,0,0,0,,,,,,,,,14,,45,0
142890,note_on,0,0,0,,,,,,,,,5,,73,0
142890,note_on,0,0,0,,,,,,,,,1,,57,0
142910,note_on,20,0,0,,,,,,,,,4,,76,0
142910,note_on,0,0,0,,,,,,,,,1,,76,0
142920,note_on,10,0,0,,,,,,,,,1,,66,100
142920,note_on,0,0,0,,,,,,,,,1,,61,100
142920,note_on,0,0,0,,,,,,,,,1,,78,100
142920,note_on,0,0,0,,,,,,,,,4,,66,100
142920,note_on,0,0,0,,,,,,,,,4,,61,100
142920,note_on,0,0,0,,,,,,,,,4,,78,100
142950,note_on,30,0,0,,,,,,,,,4,,78,0
142950,note_on,0,0,0,,,,,,,,,1,,78,0
142960,note_on,10,0,0,,,,,,,,,1,,80,100
142960,note_on,0,0,0,,,,,,,,,4,,80,100
142990,note_on,30,0,0,,,,,,,,,4,,80,0
142990,note_on,0,0,0,,,,,,,,,1,,80,0
143000,note_on,10,0,0,,,,,,,,,1,,81,100
143000,note_on,0,0,0,,,,,,,,,4,,81,100
143010,note_on,10,0,0,,,,,,,,,4,,61,0
143010,note_on,0,0,0,,,,,,,,,4,,66,0
143010,note_on,0,0,0,,,,,,,,,1,,66,0
143010,note_on,0,0,0,,,,,,,,,1,,61,0
143030,note_on,20,0,0,,,,,,,,,4,,81,0
143030,note_on,0,0,0,,,,,,,,,1,,81,0
143040,note_on,10,0,0,,,,,,,,,1,,59,100
143040,note_on,0,0,0,,,,,,,,,1,,68,100
143040,note_on,0,0,0,,,,,,,,,1,,83,100
143040,note_on,0,0,0,,,,,,,,,4,,59,100
143040,note_on,0,0,0,,,,,,,,,4,,68,100
143040,note_on,0,0,0,,,,,,,,,4,,83,100
143070,note_on,30,0,0,,,,,,,,,4,,83,0
143070,note_on,0,0,0,,,,,,,,,1,,83,0
143080,note_on,10,0,0,,,,,,,,,1,,85,100
143080,note_on,0,0,0,,,,,,,,,4,,85,100
143110,note_on,30,0,0,,,,,,,,,4,,85,0
143110,note_on,0,0,0,,,,,,,,,1,,85,0
143120,note_on,10,0,0,,,,,,,,,1,,86,100
143120,note_on,0,0,0,,,,,,,,,4,,86,100
143130,note_on,10,0,0,,,,,,,,,4,,68,0
143130,note_on,0,0,0,,,,,,,,,4,,59,0
143130,note_on,0,0,0,,,,,,,,,1,,59,0
143130,note_on,0,0,0,,,,,,,,,1,,68,0
143150,note_on,20,0,0,,,,,,,,,4,,86,0
143150,note_on,0,0,0,,,,,,,,,1,,86,0
143160,note_on,10,0,0,,,,,,,,,1,,69,100
143160,note_on,0,0,0,,,,,,,,,1,,61,100
143160,note_on,0,0,0,,,,,,,,,1,,76,100
143160,note_on,0,0,0,,,,,,,,,4,,69,100
143160,note_on,0,0,0,,,,,,,,,4,,61,100
143160,note_on,0,0,0,,,,,,,,,4,,76,100
143190,note_on,30,0,0,,,,,,,,,4,,76,0
143190,note_on,0,0,0,,,,,,,,,1,,76,0
143200,note_on,10,0,0,,,,,,,,,1,,78,100
143200,note_on,0,0,0,,,,,,,,,4,,78,100
143230,note_on,30,0,0,,,,,,,,,4,,78,0
143230,note_on,0,0,0,,,,,,,,,1,,78,0
143240,note_on,10,0,0,,,,,,,,,1,,80,100
143240,note_on,0,0,0,,,,,,,,,4,,80,100
143250,note_on,10,0,0,,,,,,,,,4,,61,0
143250,note_on,0,0,0,,,,,,,,,4,,69,0
143250,note_on,0,0,0,,,,,,,,,1,,69,0
143250,note_on,0,0,0,,,,,,,,,1,,61,0
143270,note_on,20,0,0,,,,,,,,,4,,80,0
143270,note_on,0,0,0,,,,,,,,,1,,80,0
143280,note_on,10,0,0,,,,,,,,,1,,61,100
143280,note_on,0,0,0,,,,,,,,,1,,57,100
143280,note_on,0,0,0,,,,,,,,,1,,81,100
143280,note_on,0,0,0,,,,,,,,,4,,61,100
143280,note_on,0,0,0,,,,,,,,,4,,57,100
143280,note_on,0,0,0,,,,,,,,,4,,81,100
143310,note_on,30,0,0,,,,,,,,,4,,81,0
143310,note_on,0,0,0,,,,,,,,,1,,81,0
143320,note_on,10,0,0,,,,,,,,,1,,83,100
143320,note_on,0,0,0,,,,,,,,,4,,83,100
143350,note_on,30,0,0,,,,,,,,,4,,83,0
143350,note_on,0,0,0,,,,,,,,,1,,83,0
143360,note_on,10,0,0,,,,,,,,,1,,85,100
143360,note_on,0,0,0,,,,,,,,,4,,85,100
143370,note_on,10,0,0,,,,,,,,,4,,57,0
143370,note_on,0,0,0,,,,,,,,,4,,61,0
143370,note_on,0,0,0,,,,,,,,,1,,61,0
143370,note_on,0,0,0,,,,,,,,,1,,57,0
143390,note_on,20,0,0,,,,,,,,,4,,85,0
143390,note_on,0,0,0,,,,,,,,,1,,85,0
143400,note_on,10,0,0,,,,,,,,,1,,62,100
143400,note_on,0,0,0,,,,,,,,,1,,54,100
143400,note_on,0,0,0,,,,,,,,,1,,74,100
143400,note_on,0,0,0,,,,,,,,,4,,62,100
143400,note_on,0,0,0,,,,,,,,,4,,54,100
143400,note_on,0,0,0,,,,,,,,,4,,74,100
143430,note_on,30,0,0,,,,,,,,,4,,74,0
143430,note_on,0,0,0,,,,,,,,,1,,74,0
143440,note_on,10,0,0,,,,,,,,,1,,76,100
143440,note_on,0,0,0,,,,,,,,,4,,76,100
143470,note_on,30,0,0,,,,,,,,,4,,76,0
143470,note_on,0,0,0,,,,,,,,,1,,76,0
143480,note_on,10,0,0,,,,,,,,,1,,78,100
143480,note_on,0,0,0,,,,,,,,,4,,78,100
143490,note_on,10,0,0,,,,,,,,,4,,54,0
143490,note_on,0,0,0,,,,,,,,,4,,62,0
143490,note_on,0,0,0,,,,,,,,,1,,62,0
143490,note_on,0,0,0,,,,,,,,,1,,54,0
143510,note_on,20,0,0,,,,,,,,,4,,78,0
143510,note_on,0,0,0,,,,,,,,,1,,78,0
143520,note_on,10,0,0,,,,,,,,,1,,56,100
143520,note_on,0,0,0,,,,,,,,,1,,64,100
143520,note_on,0,0,0,,,,,,,,,1,,76,100
143520,note_on,0,0,0,,,,,,,,,4,,56,100
143520,note_on,0,0,0,,,,,,,,,4,,64,100
143520,note_on,0,0,0,,,,,,,,,4,,76,100
143550,note_on,30,0,0,,,,,,,,,4,,76,0
143550,note_on,0,0,0,,,,,,,,,1,,76,0
143560,note_on,10,0,0,,,,,,,,,1,,78,100
143560,note_on,0,0,0,,,,,,,,,4,,78,100
143590,note_on,30,0,0,,,,,,,,,4,,78,0
143590,note_on,0,0,0,,,,,,,,,1,,78,0
143600,note_on,10,0,0,,,,,,,,,1,,74,100
143600,note_on,0,0,0,,,,,,,,,4,,74,100
143610,note_on,10,0,0,,,,,,,,,4,,64,0
143610,note_on,0,0,0,,,,,,,,,4,,56,0
143610,note_on,0,0,0,,,,,,,,,1,,56,0
143610,note_on,0,0,0,,,,,,,,,1,,64,0
143630,note_on,20,0,0,,,,,,,,,4,,74,0
143630,note_on,0,0,0,,,,,,,,,1,,74,0
143640,note_on,10,0,0,,,,,,,,,1,,57,100
143640,note_on,0,0,0,,,,,,,,,1,,73,100
143640,note_on,0,0,0,,,,,,,,,4,,57,100
143640,note_on,0,0,0,,,,,,,,,4,,73,100
143670,note_on,30,0,0,,,,,,,,,4,,57,0
143670,note_on,0,0,0,,,,,,,,,1,,57,0
143680,note_on,10,0,0,,,,,,,,,1,,52,100
143680,note_on,0,0,0,,,,,,,,,4,,52,100
143710,note_on,30,0,0,,,,,,,,,4,,52,0
143710,note_on,0,0,0,,,,,,,,,4,,73,0
143710,note_on,0,0,0,,,,,,,,,1,,73,0
143710,note_on,0,0,0,,,,,,,,,1,,52,0
143720,note_on,10,0,0,,,,,,,,,1,,49,100
143720,note_on,0,0,0,,,,,,,,,4,,49,100
143750,note_on,30,0,0,,,,,,,,,4,,49,0
143750,note_on,0,0,0,,,,,,,,,1,,49,0
143760,note_on,10,0,0,,,,,,,,,1,,45,100
143760,note_on,0,0,0,,,,,,,,,4,,45,100
143790,note_on,30,0,0,,,,,,,,,4,,45,0
143790,note_on,0,0,0,,,,,,,,,1,,45,0
143800,note_on,10,0,0,,,,,,,,,1,,52,100
143800,note_on,0,0,0,,,,,,,,,4,,52,100
143830,note_on,30,0,0,,,,,,,,,4,,52,0
143830,note_on,0,0,0,,,,,,,,,1,,52,0
143840,note_on,10,0,0,,,,,,,,,1,,64,100
143840,note_on,0,0,0,,,,,,,,,1,,57,100
143840,note_on,0,0,0,,,,,,,,,4,,64,100
143840,note_on,0,0,0,,,,,,,,,4,,57,100
143870,note_on,30,0,0,,,,,,,,,4,,57,0
143870,note_on,0,0,0,,,,,,,,,1,,64,0
143870,note_on,0,0,0,,,,,,,,,1,,57,0
143870,note_on,0,0,0,,,,,,,,,4,,64,0
143880,note_on,10,0,0,,,,,,,,,1,,54,100
143880,note_on,0,0,0,,,,,,,,,1,,57,100
143880,note_on,0,0,0,,,,,,,,,1,,50,100
143880,note_on,0,0,0,,,,,,,,,1,,66,100
143880,note_on,0,0,0,,,,,,,,,4,,54,100
143880,note_on,0,0,0,,,,,,,,,4,,57,100
143880,note_on,0,0,0,,,,,,,,,4,,50,100
143880,note_on,0,0,0,,,,,,,,,4,,66,100
143910,note_on,30,0,0,,,,,,,,,4,,66,0
143910,note_on,0,0,0,,,,,,,,,1,,66,0
143920,note_on,10,0,0,,,,,,,,,1,,68,100
143920,note_on,0,0,0,,,,,,,,,4,,68,100
143950,note_on,30,0,0,,,,,,,,,4,,68,0
143950,note_on,0,0,0,,,,,,,,,1,,68,0
143960,note_on,10,0,0,,,,,,,,,4,,50,0
143960,note_on,0,0,0,,,,,,,,,1,,57,0
143960,note_on,0,0,0,,,,,,,,,1,,50,0
143960,note_on,0,0,0,,,,,,,,,1,,54,0
143960,note_on,0,0,0,,,,,,,,,4,,57,0
143960,note_on,0,0,0,,,,,,,,,4,,54,0
143960,note_on,0,0,0,,,,,,,,,1,,69,100
143960,note_on,0,0,0,,,,,,,,,4,,69,100
143990,note_on,30,0,0,,,,,,,,,4,,69,0
143990,note_on,0,0,0,,,,,,,,,1,,69,0
144000,note_on,10,0,0,,,,,,,,,1,,50,100
144000,note_on,0,0,0,,,,,,,,,1,,56,100
144000,note_on,0,0,0,,,,,,,,,1,,47,100
144000,note_on,0,0,0,,,,,,,,,1,,71,100
144000,note_on,0,0,0,,,,,,,,,4,,50,100
144000,note_on,0,0,0,,,,,,,,,4,,56,100
144000,note_on,0,0,0,,,,,,,,,4,,47,100
144000,note_on,0,0,0,,,,,,,,,4,,71,100
144030,note_on,30,0,0,,,,,,,,,4,,71,0
144030,note_on,0,0,0,,,,,,,,,1,,71,0
144040,note_on,10,0,0,,,,,,,,,1,,73,100
144040,note_on,0,0,0,,,,,,,,,4,,73,100
144070,note_on,30,0,0,,,,,,,,,4,,73,0
144070,note_on,0,0,0,,,,,,,,,1,,73,0
144080,note_on,10,0,0,,,,,,,,,4,,47,0
144080,note_on,0,0,0,,,,,,,,,1,,56,0
144080,note_on,0,0,0,,,,,,,,,1,,47,0
144080,note_on,0,0,0,,,,,,,,,1,,50,0
144080,note_on,0,0,0,,,,,,,,,4,,56,0
144080,note_on,0,0,0,,,,,,,,,4,,50,0
144090,note_on,10,0,0,,,,,,,,,1,,74,100
144090,note_on,0,0,0,,,,,,,,,4,,74,100
144120,note_on,30,0,0,,,,,,,,,4,,74,0
144120,note_on,0,0,0,,,,,,,,,1,,74,0
144120,note_on,0,0,0,,,,,,,,,1,,56,100
144120,note_on,0,0,0,,,,,,,,,1,,52,100
144120,note_on,0,0,0,,,,,,,,,1,,49,100
144120,note_on,0,0,0,,,,,,,,,1,,64,100
144120,note_on,0,0,0,,,,,,,,,4,,56,100
144120,note_on,0,0,0,,,,,,,,,4,,52,100
144120,note_on,0,0,0,,,,,,,,,4,,49,100
144120,note_on,0,0,0,,,,,,,,,4,,64,100
144150,note_on,30,0,0,,,,,,,,,4,,64,0
144150,note_on,0,0,0,,,,,,,,,1,,64,0
144160,note_on,10,0,0,,,,,,,,,1,,66,100
144160,note_on,0,0,0,,,,,,,,,4,,66,100
144190,note_on,30,0,0,,,,,,,,,4,,66,0
144190,note_on,0,0,0,,,,,,,,,1,,66,0
144200,note_on,10,0,0,,,,,,,,,4,,49,0
144200,note_on,0,0,0,,,,,,,,,1,,52,0
144200,note_on,0,0,0,,,,,,,,,1,,49,0
144200,note_on,0,0,0,,,,,,,,,1,,56,0
144200,note_on,0,0,0,,,,,,,,,4,,52,0
144200,note_on,0,0,0,,,,,,,,,4,,56,0
144200,note_on,0,0,0,,,,,,,,,1,,68,100
144200,note_on,0,0,0,,,,,,,,,4,,68,100
144230,note_on,30,0,0,,,,,,,,,4,,68,0
144230,note_on,0,0,0,,,,,,,,,1,,68,0
144240,note_on,10,0,0,,,,,,,,,1,,52,100
144240,note_on,0,0,0,,,,,,,,,1,,49,100
144240,note_on,0,0,0,,,,,,,,,1,,45,100
144240,note_on,0,0,0,,,,,,,,,1,,69,100
144240,note_on,0,0,0,,,,,,,,,4,,52,100
144240,note_on,0,0,0,,,,,,,,,4,,49,100
144240,note_on,0,0,0,,,,,,,,,4,,45,100
144240,note_on,0,0,0,,,,,,,,,4,,69,100
144270,note_on,30,0,0,,,,,,,,,4,,69,0
144270,note_on,0,0,0,,,,,,,,,1,,69,0
144280,note_on,10,0,0,,,,,,,,,1,,71,100
144280,note_on,0,0,0,,,,,,,,,4,,71,100
144310,note_on,30,0,0,,,,,,,,,4,,71,0
144310,note_on,0,0,0,,,,,,,,,1,,71,0
144320,note_on,10,0,0,,,,,,,,,4,,45,0
144320,note_on,0,0,0,,,,,,,,,1,,49,0
144320,note_on,0,0,0,,,,,,,,,1,,45,0
144320,note_on,0,0,0,,,,,,,,,1,,52,0
144320,note_on,0,0,0,,,,,,,,,4,,49,0
144320,note_on,0,0,0,,,,,,,,,4,,52,0
144320,note_on,0,0,0,,,,,,,,,1,,73,100
144320,note_on,0,0,0,,,,,,,,,4,,73,100
144350,note_on,30,0,0,,,,,,,,,4,,73,0
144350,note_on,0,0,0,,,,,,,,,1,,73,0
144360,note_on,10,0,0,,,,,,,,,1,,56,100
144360,note_on,0,0,0,,,,,,,,,1,,50,100
144360,note_on,0,0,0,,,,,,,,,1,,47,100
144360,note_on,0,0,0,,,,,,,,,1,,62,100
144360,note_on,0,0,0,,,,,,,,,4,,56,100
144360,note_on,0,0,0,,,,,,,,,4,,50,100
144360,note_on,0,0,0,,,,,,,,,4,,47,100
144360,note_on,0,0,0,,,,,,,,,4,,62,100
144390,note_on,30,0,0,,,,,,,,,4,,62,0
144390,note_on,0,0,0,,,,,,,,,1,,62,0
144400,note_on,10,0,0,,,,,,,,,1,,64,100
144400,note_on,0,0,0,,,,,,,,,4,,64,100
144430,note_on,30,0,0,,,,,,,,,4,,64,0
144430,note_on,0,0,0,,,,,,,,,1,,64,0
144440,note_on,10,0,0,,,,,,,,,4,,47,0
144440,note_on,0,0,0,,,,,,,,,1,,50,0
144440,note_on,0,0,0,,,,,,,,,1,,47,0
144440,note_on,0,0,0,,,,,,,,,1,,56,0
144440,note_on,0,0,0,,,,,,,,,4,,50,0
144440,note_on,0,0,0,,,,,,,,,4,,56,0
144440,note_on,0,0,0,,,,,,,,,1,,66,100
144440,note_on,0,0,0,,,,,,,,,4,,66,100
144470,note_on,30,0,0,,,,,,,,,4,,66,0
144470,note_on,0,0,0,,,,,,,,,1,,66,0
144480,note_on,10,0,0,,,,,,,,,1,,52,100
144480,note_on,0,0,0,,,,,,,,,1,,47,100
144480,note_on,0,0,0,,,,,,,,,1,,44,100
144480,note_on,0,0,0,,,,,,,,,1,,64,100
144480,note_on,0,0,0,,,,,,,,,4,,52,100
144480,note_on,0,0,0,,,,,,,,,4,,47,100
144480,note_on,0,0,0,,,,,,,,,4,,44,100
144480,note_on,0,0,0,,,,,,,,,4,,64,100
144510,note_on,30,0,0,,,,,,,,,4,,64,0
144510,note_on,0,0,0,,,,,,,,,1,,64,0
144520,note_on,10,0,0,,,,,,,,,1,,66,100
144520,note_on,0,0,0,,,,,,,,,4,,66,100
144550,note_on,30,0,0,,,,,,,,,4,,66,0
144550,note_on,0,0,0,,,,,,,,,1,,66,0
144560,note_on,10,0,0,,,,,,,,,4,,44,0
144560,note_on,0,0,0,,,,,,,,,1,,47,0
144560,note_on,0,0,0,,,,,,,,,1,,44,0
144560,note_on,0,0,0,,,,,,,,,1,,52,0
144560,note_on,0,0,0,,,,,,,,,4,,47,0
144560,note_on,0,0,0,,,,,,,,,4,,52,0
144560,note_on,0,0,0,,,,,,,,,1,,62,100
144560,note_on,0,0,0,,,,,,,,,4,,62,100
144590,note_on,30,0,0,,,,,,,,,4,,62,0
144590,note_on,0,0,0,,,,,,,,,1,,62,0
144600,note_on,10,0,0,,,,,,,,,1,,52,100
144600,note_on,0,0,0,,,,,,,,,1,,49,100
144600,note_on,0,0,0,,,,,,,,,1,,45,100
144600,note_on,0,0,0,,,,,,,,,1,,61,100
144600,note_on,0,0,0,,,,,,,,,4,,52,100
144600,note_on,0,0,0,,,,,,,,,4,,49,100
144600,note_on,0,0,0,,,,,,,,,4,,45,100
144600,note_on,0,0,0,,,,,,,,,4,,61,100
144630,note_on,30,0,0,,,,,,,,,4,,61,0
144630,note_on,0,0,0,,,,,,,,,1,,61,0
144640,note_on,10,0,0,,,,,,,,,1,,62,100
144640,note_on,0,0,0,,,,,,,,,4,,62,100
144670,note_on,30,0,0,,,,,,,,,4,,62,0
144670,note_on,0,0,0,,,,,,,,,1,,62,0
144680,note_on,10,0,0,,,,,,,,,4,,45,0
144680,note_on,0,0,0,,,,,,,,,1,,49,0
144680,note_on,0,0,0,,,,,,,,,1,,45,0
144680,note_on,0,0,0,,,,,,,,,1,,52,0
144680,note_on,0,0,0,,,,,,,,,4,,49,0
144680,note_on,0,0,0,,,,,,,,,4,,52,0
144680,note_on,0,0,0,,,,,,,,,1,,61,100
144680,note_on,0,0,0,,,,,,,,,4,,61,100
144710,note_on,30,0,0,,,,,,,,,4,,61,0
144710,note_on,0,0,0,,,,,,,,,1,,61,0
144720,note_on,10,0,0,,,,,,,,,1,,56,100
144720,note_on,0,0,0,,,,,,,,,1,,50,100
144720,note_on,0,0,0,,,,,,,,,1,,47,100
144720,note_on,0,0,0,,,,,,,,,1,,64,100
144720,note_on,0,0,0,,,,,,,,,4,,56,100
144720,note_on,0,0,0,,,,,,,,,4,,50,100
144720,note_on,0,0,0,,,,,,,,,4,,47,100
144720,note_on,0,0,0,,,,,,,,,4,,64,100
144735,note_on,15,0,0,,,,,,,,,4,,64,0
144735,note_on,0,0,0,,,,,,,,,1,,64,0
144735,note_on,0,0,0,,,,,,,,,1,,62,100
144735,note_on,0,0,0,,,,,,,,,4,,62,100
144750,note_on,15,0,0,,,,,,,,,4,,62,0
144750,note_on,0,0,0,,,,,,,,,1,,62,0
144750,note_on,0,0,0,,,,,,,,,1,,64,100
144750,note_on,0,0,0,,,,,,,,,4,,64,100
144765,note_on,15,0,0,,,,,,,,,4,,64,0
144765,note_on,0,0,0,,,,,,,,,1,,64,0
144765,note_on,0,0,0,,,,,,,,,1,,62,100
144765,note_on,0,0,0,,,,,,,,,4,,62,100
144780,note_on,15,0,0,,,,,,,,,4,,62,0
144780,note_on,0,0,0,,,,,,,,,1,,62,0
144780,note_on,0,0,0,,,,,,,,,1,,61,100
144780,note_on,0,0,0,,,,,,,,,4,,61,100
144800,note_on,20,0,0,,,,,,,,,4,,61,0
144800,note_on,0,0,0,,,,,,,,,1,,56,0
144800,note_on,0,0,0,,,,,,,,,4,,50,0
144800,note_on,0,0,0,,,,,,,,,1,,50,0
144800,note_on,0,0,0,,,,,,,,,1,,47,0
144800,note_on,0,0,0,,,,,,,,,4,,56,0
144800,note_on,0,0,0,,,,,,,,,4,,47,0
144800,note_on,0,0,0,,,,,,,,,1,,61,0
144800,note_on,0,0,0,,,,,,,,,1,,62,100
144800,note_on,0,0,0,,,,,,,,,4,,62,100
144830,note_on,30,0,0,,,,,,,,,4,,62,0
144830,note_on,0,0,0,,,,,,,,,1,,62,0
144840,note_on,10,0,0,,,,,,,,,1,,57,100
144840,note_on,0,0,0,,,,,,,,,1,,52,100
144840,note_on,0,0,0,,,,,,,,,1,,49,100
144840,note_on,0,0,0,,,,,,,,,1,,64,100
144840,note_on,0,0,0,,,,,,,,,4,,57,100
144840,note_on,0,0,0,,,,,,,,,4,,52,100
144840,note_on,0,0,0,,,,,,,,,4,,49,100
144840,note_on,0,0,0,,,,,,,,,4,,64,100
144870,note_on,30,0,0,,,,,,,,,4,,64,0
144870,note_on,0,0,0,,,,,,,,,1,,64,0
144880,note_on,10,0,0,,,,,,,,,1,,62,100
144880,note_on,0,0,0,,,,,,,,,4,,62,100
144910,note_on,30,0,0,,,,,,,,,4,,62,0
144910,note_on,0,0,0,,,,,,,,,1,,62,0
144920,note_on,10,0,0,,,,,,,,,4,,49,0
144920,note_on,0,0,0,,,,,,,,,1,,52,0
144920,note_on,0,0,0,,,,,,,,,1,,49,0
144920,note_on,0,0,0,,,,,,,,,1,,57,0
144920,note_on,0,0,0,,,,,,,,,4,,52,0
144920,note_on,0,0,0,,,,,,,,,4,,57,0
144920,note_on,0,0,0,,,,,,,,,1,,61,100
144920,note_on,0,0,0,,,,,,,,,4,,61,100
144950,note_on,30,0,0,,,,,,,,,4,,61,0
144950,note_on,0,0,0,,,,,,,,,1,,61,0
144960,note_on,10,0,0,,,,,,,,,1,,57,100
144960,note_on,0,0,0,,,,,,,,,1,,54,100
144960,note_on,0,0,0,,,,,,,,,1,,50,100
144960,note_on,0,0,0,,,,,,,,,1,,66,100
144960,note_on,0,0,0,,,,,,,,,4,,57,100
144960,note_on,0,0,0,,,,,,,,,4,,54,100
144960,note_on,0,0,0,,,,,,,,,4,,50,100
144960,note_on,0,0,0,,,,,,,,,4,,66,100
144990,note_on,30,0,0,,,,,,,,,4,,66,0
144990,note_on,0,0,0,,,,,,,,,1,,66,0
145000,note_on,10,0,0,,,,,,,,,1,,64,100
145000,note_on,0,0,0,,,,,,,,,4,,64,100
145030,note_on,30,0,0,,,,,,,,,4,,64,0
145030,note_on,0,0,0,,,,,,,,,1,,64,0
145040,note_on,10,0,0,,,,,,,,,4,,50,0
145040,note_on,0,0,0,,,,,,,,,1,,54,0
145040,note_on,0,0,0,,,,,,,,,1,,50,0
145040,note_on,0,0,0,,,,,,,,,1,,57,0
145040,note_on,0,0,0,,,,,,,,,4,,54,0
145040,note_on,0,0,0,,,,,,,,,4,,57,0
145040,note_on,0,0,0,,,,,,,,,1,,62,100
145040,note_on,0,0,0,,,,,,,,,4,,62,100
145070,note_on,30,0,0,,,,,,,,,4,,62,0
145070,note_on,0,0,0,,,,,,,,,1,,62,0
145080,note_on,10,0,0,,,,,,,,,1,,61,100
145080,note_on,0,0,0,,,,,,,,,1,,56,100
145080,note_on,0,0,0,,,,,,,,,1,,52,100
145080,note_on,0,0,0,,,,,,,,,1,,68,100
145080,note_on,0,0,0,,,,,,,,,4,,61,100
145080,note_on,0,0,0,,,,,,,,,4,,56,100
145080,note_on,0,0,0,,,,,,,,,4,,52,100
145080,note_on,0,0,0,,,,,,,,,4,,68,100
145110,note_on,30,0,0,,,,,,,,,4,,68,0
145110,note_on,0,0,0,,,,,,,,,1,,68,0
145120,note_on,10,0,0,,,,,,,,,1,,66,100
145120,note_on,0,0,0,,,,,,,,,4,,66,100
145150,note_on,30,0,0,,,,,,,,,4,,66,0
145150,note_on,0,0,0,,,,,,,,,1,,66,0
145160,note_on,10,0,0,,,,,,,,,4,,52,0
145160,note_on,0,0,0,,,,,,,,,1,,56,0
145160,note_on,0,0,0,,,,,,,,,1,,52,0
145160,note_on,0,0,0,,,,,,,,,1,,61,0
145160,note_on,0,0,0,,,,,,,,,4,,56,0
145160,note_on,0,0,0,,,,,,,,,4,,61,0
145160,note_on,0,0,0,,,,,,,,,1,,64,100
145160,note_on,0,0,0,,,,,,,,,4,,64,100
145190,note_on,30,0,0,,,,,,,,,4,,64,0
145190,note_on,0,0,0,,,,,,,,,1,,64,0
145200,note_on,10,0,0,,,,,,,,,1,,63,100
145200,note_on,0,0,0,,,,,,,,,1,,57,100
145200,note_on,0,0,0,,,,,,,,,1,,54,100
145200,note_on,0,0,0,,,,,,,,,1,,69,100
145200,note_on,0,0,0,,,,,,,,,4,,63,100
145200,note_on,0,0,0,,,,,,,,,4,,57,100
145200,note_on,0,0,0,,,,,,,,,4,,54,100
145200,note_on,0,0,0,,,,,,,,,4,,69,100
145230,note_on,30,0,0,,,,,,,,,4,,69,0
145230,note_on,0,0,0,,,,,,,,,1,,69,0
145240,note_on,10,0,0,,,,,,,,,1,,68,100
145240,note_on,0,0,0,,,,,,,,,4,,68,100
145270,note_on,30,0,0,,,,,,,,,4,,68,0
145270,note_on,0,0,0,,,,,,,,,1,,68,0
145280,note_on,10,0,0,,,,,,,,,4,,54,0
145280,note_on,0,0,0,,,,,,,,,1,,57,0
145280,note_on,0,0,0,,,,,,,,,1,,54,0
145280,note_on,0,0,0,,,,,,,,,1,,63,0
145280,note_on,0,0,0,,,,,,,,,4,,57,0
145280,note_on,0,0,0,,,,,,,,,4,,63,0
145280,note_on,0,0,0,,,,,,,,,1,,66,100
145280,note_on,0,0,0,,,,,,,,,4,,66,100
145310,note_on,30,0,0,,,,,,,,,4,,66,0
145310,note_on,0,0,0,,,,,,,,,1,,66,0
145320,note_on,10,0,0,,,,,,,,,1,,64,100
145320,note_on,0,0,0,,,,,,,,,1,,59,100
145320,note_on,0,0,0,,,,,,,,,1,,56,100
145320,note_on,0,0,0,,,,,,,,,1,,71,100
145320,note_on,0,0,0,,,,,,,,,4,,64,100
145320,note_on,0,0,0,,,,,,,,,4,,59,100
145320,note_on,0,0,0,,,,,,,,,4,,56,100
145320,note_on,0,0,0,,,,,,,,,4,,71,100
145350,note_on,30,0,0,,,,,,,,,4,,71,0
145350,note_on,0,0,0,,,,,,,,,1,,71,0
145360,note_on,10,0,0,,,,,,,,,1,,69,100
145360,note_on,0,0,0,,,,,,,,,4,,69,100
145390,note_on,30,0,0,,,,,,,,,4,,69,0
145390,note_on,0,0,0,,,,,,,,,1,,69,0
145400,note_on,10,0,0,,,,,,,,,4,,56,0
145400,note_on,0,0,0,,,,,,,,,1,,59,0
145400,note_on,0,0,0,,,,,,,,,1,,56,0
145400,note_on,0,0,0,,,,,,,,,1,,64,0
145400,note_on,0,0,0,,,,,,,,,4,,59,0
145400,note_on,0,0,0,,,,,,,,,4,,64,0
145400,note_on,0,0,0,,,,,,,,,1,,68,100
145400,note_on,0,0,0,,,,,,,,,4,,68,100
145430,note_on,30,0,0,,,,,,,,,4,,68,0
145430,note_on,0,0,0,,,,,,,,,1,,68,0
145440,note_on,10,0,0,,,,,,,,,1,,64,100
145440,note_on,0,0,0,,,,,,,,,1,,61,100
145440,note_on,0,0,0,,,,,,,,,1,,57,100
145440,note_on,0,0,0,,,,,,,,,1,,73,100
145440,note_on,0,0,0,,,,,,,,,4,,64,100
145440,note_on,0,0,0,,,,,,,,,4,,61,100
145440,note_on,0,0,0,,,,,,,,,4,,57,100
145440,note_on,0,0,0,,,,,,,,,4,,73,100
145470,note_on,30,0,0,,,,,,,,,4,,73,0
145470,note_on,0,0,0,,,,,,,,,1,,73,0
145480,note_on,10,0,0,,,,,,,,,1,,71,100
145480,note_on,0,0,0,,,,,,,,,4,,71,100
145510,note_on,30,0,0,,,,,,,,,4,,71,0
145510,note_on,0,0,0,,,,,,,,,1,,71,0
145520,note_on,10,0,0,,,,,,,,,4,,57,0
145520,note_on,0,0,0,,,,,,,,,1,,61,0
145520,note_on,0,0,0,,,,,,,,,1,,57,0
145520,note_on,0,0,0,,,,,,,,,1,,64,0
145520,note_on,0,0,0,,,,,,,,,4,,61,0
145520,note_on,0,0,0,,,,,,,,,4,,64,0
145520,note_on,0,0,0,,,,,,,,,1,,69,100
145520,note_on,0,0,0,,,,,,,,,4,,69,100
145550,note_on,30,0,0,,,,,,,,,4,,69,0
145550,note_on,0,0,0,,,,,,,,,1,,69,0
145560,note_on,10,0,0,,,,,,,,,1,,68,100
145560,note_on,0,0,0,,,,,,,,,1,,62,100
145560,note_on,0,0,0,,,,,,,,,1,,59,100
145560,note_on,0,0,0,,,,,,,,,1,,74,100
145560,note_on,0,0,0,,,,,,,,,4,,68,100
145560,note_on,0,0,0,,,,,,,,,4,,62,100
145560,note_on,0,0,0,,,,,,,,,4,,59,100
145560,note_on,0,0,0,,,,,,,,,4,,74,100
145590,note_on,30,0,0,,,,,,,,,4,,74,0
145590,note_on,0,0,0,,,,,,,,,1,,74,0
145600,note_on,10,0,0,,,,,,,,,1,,73,100
145600,note_on,0,0,0,,,,,,,,,4,,73,100
145630,note_on,30,0,0,,,,,,,,,4,,73,0
145630,note_on,0,0,0,,,,,,,,,1,,73,0
145640,note_on,10,0,0,,,,,,,,,4,,59,0
145640,note_on,0,0,0,,,,,,,,,1,,62,0
145640,note_on,0,0,0,,,,,,,,,1,,59,0
145640,note_on,0,0,0,,,,,,,,,1,,68,0
145640,note_on,0,0,0,,,,,,,,,4,,62,0
145640,note_on,0,0,0,,,,,,,,,4,,68,0
145640,note_on,0,0,0,,,,,,,,,1,,71,100
145640,note_on,0,0,0,,,,,,,,,4,,71,100
145670,note_on,30,0,0,,,,,,,,,4,,71,0
145670,note_on,0,0,0,,,,,,,,,1,,71,0
145680,note_on,10,0,0,,,,,,,,,1,,61,100
145680,note_on,0,0,0,,,,,,,,,1,,76,100
145680,note_on,0,0,0,,,,,,,,,4,,61,100
145680,note_on,0,0,0,,,,,,,,,4,,76,100
145710,note_on,30,0,0,,,,,,,,,4,,76,0
145710,note_on,0,0,0,,,,,,,,,1,,61,0
145710,note_on,0,0,0,,,,,,,,,1,,76,0
145710,note_on,0,0,0,,,,,,,,,4,,61,0
145720,note_on,10,0,0,,,,,,,,,1,,74,100
145720,note_on,0,0,0,,,,,,,,,1,,64,100
145720,note_on,0,0,0,,,,,,,,,4,,74,100
145720,note_on,0,0,0,,,,,,,,,4,,64,100
145750,note_on,30,0,0,,,,,,,,,4,,64,0
145750,note_on,0,0,0,,,,,,,,,1,,74,0
145750,note_on,0,0,0,,,,,,,,,1,,64,0
145750,note_on,0,0,0,,,,,,,,,4,,74,0
145760,note_on,10,0,0,,,,,,,,,1,,69,100
145760,note_on,0,0,0,,,,,,,,,1,,73,100
145760,note_on,0,0,0,,,,,,,,,4,,69,100
145760,note_on,0,0,0,,,,,,,,,4,,73,100
145790,note_on,30,0,0,,,,,,,,,4,,73,0
145790,note_on,0,0,0,,,,,,,,,1,,69,0
145790,note_on,0,0,0,,,,,,,,,1,,73,0
145790,note_on,0,0,0,,,,,,,,,4,,69,0
145800,note_on,10,0,0,,,,,,,,,1,,62,100
145800,note_on,0,0,0,,,,,,,,,1,,78,100
145800,note_on,0,0,0,,,,,,,,,4,,62,100
145800,note_on,0,0,0,,,,,,,,,4,,78,100
145830,note_on,30,0,0,,,,,,,,,4,,78,0
145830,note_on,0,0,0,,,,,,,,,1,,62,0
145830,note_on,0,0,0,,,,,,,,,1,,78,0
145830,note_on,0,0,0,,,,,,,,,4,,62,0
145840,note_on,10,0,0,,,,,,,,,1,,66,100
145840,note_on,0,0,0,,,,,,,,,1,,76,100
145840,note_on,0,0,0,,,,,,,,,4,,66,100
145840,note_on,0,0,0,,,,,,,,,4,,76,100
145870,note_on,30,0,0,,,,,,,,,4,,76,0
145870,note_on,0,0,0,,,,,,,,,1,,66,0
145870,note_on,0,0,0,,,,,,,,,1,,76,0
145870,note_on,0,0,0,,,,,,,,,4,,66,0
145880,note_on,10,0,0,,,,,,,,,1,,71,100
145880,note_on,0,0,0,,,,,,,,,1,,74,100
145880,note_on,0,0,0,,,,,,,,,4,,71,100
145880,note_on,0,0,0,,,,,,,,,4,,74,100
145910,note_on,30,0,0,,,,,,,,,4,,74,0
145910,note_on,0,0,0,,,,,,,,,1,,71,0
145910,note_on,0,0,0,,,,,,,,,1,,74,0
145910,note_on,0,0,0,,,,,,,,,4,,71,0
145920,note_on,10,0,0,,,,,,,,,1,,62,100
145920,note_on,0,0,0,,,,,,,,,1,,78,100
145920,note_on,0,0,0,,,,,,,,,4,,62,100
145920,note_on,0,0,0,,,,,,,,,4,,78,100
145950,note_on,30,0,0,,,,,,,,,4,,78,0
145950,note_on,0,0,0,,,,,,,,,1,,62,0
145950,note_on,0,0,0,,,,,,,,,1,,78,0
145950,note_on,0,0,0,,,,,,,,,4,,62,0
145960,note_on,10,0,0,,,,,,,,,1,,66,100
145960,note_on,0,0,0,,,,,,,,,1,,76,100
145960,note_on,0,0,0,,,,,,,,,4,,66,100
145960,note_on,0,0,0,,,,,,,,,4,,76,100
145990,note_on,30,0,0,,,,,,,,,4,,76,0
145990,note_on,0,0,0,,,,,,,,,1,,66,0
145990,note_on,0,0,0,,,,,,,,,1,,76,0
145990,note_on,0,0,0,,,,,,,,,4,,66,0
146000,note_on,10,0,0,,,,,,,,,1,,71,100
146000,note_on,0,0,0,,,,,,,,,1,,74,100
146000,note_on,0,0,0,,,,,,,,,4,,71,100
146000,note_on,0,0,0,,,,,,,,,4,,74,100
146030,note_on,30,0,0,,,,,,,,,4,,74,0
146030,note_on,0,0,0,,,,,,,,,1,,71,0
146030,note_on,0,0,0,,,,,,,,,1,,74,0
146030,note_on,0,0,0,,,,,,,,,4,,71,0
146040,note_on,10,0,0,,,,,,,,,1,,61,100
146040,note_on,0,0,0,,,,,,,,,1,,76,100
146040,note_on,0,0,0,,,,,,,,,4,,61,100
146040,note_on,0,0,0,,,,,,,,,4,,76,100
146070,note_on,30,0,0,,,,,,,,,4,,76,0
146070,note_on,0,0,0,,,,,,,,,1,,61,0
146070,note_on,0,0,0,,,,,,,,,1,,76,0
146070,note_on,0,0,0,,,,,,,,,4,,61,0
146080,note_on,10,0,0,,,,,,,,,1,,64,100
146080,note_on,0,0,0,,,,,,,,,1,,74,100
146080,note_on,0,0,0,,,,,,,,,4,,64,100
146080,note_on,0,0,0,,,,,,,,,4,,74,100
146110,note_on,30,0,0,,,,,,,,,4,,74,0
146110,note_on,0,0,0,,,,,,,,,1,,64,0
146110,note_on,0,0,0,,,,,,,,,1,,74,0
146110,note_on,0,0,0,,,,,,,,,4,,64,0
146120,note_on,10,0,0,,,,,,,,,1,,69,100
146120,note_on,0,0,0,,,,,,,,,1,,73,100
146120,note_on,0,0,0,,,,,,,,,4,,69,100
146120,note_on,0,0,0,,,,,,,,,4,,73,100
146150,note_on,30,0,0,,,,,,,,,4,,73,0
146150,note_on,0,0,0,,,,,,,,,1,,69,0
146150,note_on,0,0,0,,,,,,,,,1,,73,0
146150,note_on,0,0,0,,,,,,,,,4,,69,0
146160,note_on,10,0,0,,,,,,,,,1,,61,100
146160,note_on,0,0,0,,,,,,,,,1,,76,100
146160,note_on,0,0,0,,,,,,,,,4,,61,100
146160,note_on,0,0,0,,,,,,,,,4,,76,100
146190,note_on,30,0,0,,,,,,,,,4,,76,0
146190,note_on,0,0,0,,,,,,,,,1,,61,0
146190,note_on,0,0,0,,,,,,,,,1,,76,0
146190,note_on,0,0,0,,,,,,,,,4,,61,0
146200,note_on,10,0,0,,,,,,,,,1,,64,100
146200,note_on,0,0,0,,,,,,,,,1,,74,100
146200,note_on,0,0,0,,,,,,,,,4,,64,100
146200,note_on,0,0,0,,,,,,,,,4,,74,100
146230,note_on,30,0,0,,,,,,,,,4,,74,0
146230,note_on,0,0,0,,,,,,,,,1,,64,0
146230,note_on,0,0,0,,,,,,,,,1,,74,0
146230,note_on,0,0,0,,,,,,,,,4,,64,0
146240,note_on,10,0,0,,,,,,,,,1,,69,100
146240,note_on,0,0,0,,,,,,,,,1,,73,100
146240,note_on,0,0,0,,,,,,,,,4,,69,100
146240,note_on,0,0,0,,,,,,,,,4,,73,100
146270,note_on,30,0,0,,,,,,,,,4,,73,0
146270,note_on,0,0,0,,,,,,,,,1,,69,0
146270,note_on,0,0,0,,,,,,,,,1,,73,0
146270,note_on,0,0,0,,,,,,,,,4,,69,0
146280,note_on,10,0,0,,,,,,,,,1,,59,100
146280,note_on,0,0,0,,,,,,,,,1,,74,100
146280,note_on,0,0,0,,,,,,,,,4,,59,100
146280,note_on,0,0,0,,,,,,,,,4,,74,100
146310,note_on,30,0,0,,,,,,,,,4,,74,0
146310,note_on,0,0,0,,,,,,,,,1,,59,0
146310,note_on,0,0,0,,,,,,,,,1,,74,0
146310,note_on,0,0,0,,,,,,,,,4,,59,0
146320,note_on,10,0,0,,,,,,,,,1,,62,100
146320,note_on,0,0,0,,,,,,,,,1,,73,100
146320,note_on,0,0,0,,,,,,,,,4,,62,100
146320,note_on,0,0,0,,,,,,,,,4,,73,100
146350,note_on,30,0,0,,,,,,,,,4,,73,0
146350,note_on,0,0,0,,,,,,,,,1,,62,0
146350,note_on,0,0,0,,,,,,,,,1,,73,0
146350,note_on,0,0,0,,,,,,,,,4,,62,0
146360,note_on,10,0,0,,,,,,,,,1,,68,100
146360,note_on,0,0,0,,,,,,,,,1,,71,100
146360,note_on,0,0,0,,,,,,,,,4,,68,100
146360,note_on,0,0,0,,,,,,,,,4,,71,100
146390,note_on,30,0,0,,,,,,,,,4,,71,0
146390,note_on,0,0,0,,,,,,,,,1,,68,0
146390,note_on,0,0,0,,,,,,,,,1,,71,0
146390,note_on,0,0,0,,,,,,,,,4,,68,0
146400,note_on,10,0,0,,,,,,,,,1,,59,100
146400,note_on,0,0,0,,,,,,,,,1,,74,100
146400,note_on,0,0,0,,,,,,,,,4,,59,100
146400,note_on,0,0,0,,,,,,,,,4,,74,100
146430,note_on,30,0,0,,,,,,,,,4,,74,0
146430,note_on,0,0,0,,,,,,,,,1,,59,0
146430,note_on,0,0,0,,,,,,,,,1,,74,0
146430,note_on,0,0,0,,,,,,,,,4,,59,0
146440,note_on,10,0,0,,,,,,,,,1,,62,100
146440,note_on,0,0,0,,,,,,,,,1,,73,100
146440,note_on,0,0,0,,,,,,,,,4,,62,100
146440,note_on,0,0,0,,,,,,,,,4,,73,100
146470,note_on,30,0,0,,,,,,,,,4,,73,0
146470,note_on,0,0,0,,,,,,,,,1,,62,0
146470,note_on,0,0,0,,,,,,,,,1,,73,0
146470,note_on,0,0,0,,,,,,,,,4,,62,0
146480,note_on,10,0,0,,,,,,,,,1,,68,100
146480,note_on,0,0,0,,,,,,,,,1,,71,100
146480,note_on,0,0,0,,,,,,,,,4,,68,100
146480,note_on,0,0,0,,,,,,,,,4,,71,100
146510,note_on,30,0,0,,,,,,,,,4,,71,0
146510,note_on,0,0,0,,,,,,,,,1,,68,0
146510,note_on,0,0,0,,,,,,,,,1,,71,0
146510,note_on,0,0,0,,,,,,,,,4,,68,0
146520,note_on,10,0,0,,,,,,,,,1,,57,100
146520,note_on,0,0,0,,,,,,,,,1,,73,100
146520,note_on,0,0,0,,,,,,,,,4,,57,100
146520,note_on,0,0,0,,,,,,,,,4,,73,100
146550,note_on,30,0,0,,,,,,,,,4,,73,0
146550,note_on,0,0,0,,,,,,,,,1,,57,0
146550,note_on,0,0,0,,,,,,,,,1,,73,0
146550,note_on,0,0,0,,,,,,,,,4,,57,0
146560,note_on,10,0,0,,,,,,,,,1,,74,100
146560,note_on,0,0,0,,,,,,,,,1,,59,100
146560,note_on,0,0,0,,,,,,,,,4,,74,100
146560,note_on,0,0,0,,,,,,,,,4,,59,100
146590,note_on,30,0,0,,,,,,,,,4,,59,0
146590,note_on,0,0,0,,,,,,,,,1,,74,0
146590,note_on,0,0,0,,,,,,,,,1,,59,0
146590,note_on,0,0,0,,,,,,,,,4,,74,0
146600,note_on,10,0,0,,,,,,,,,1,,76,100
146600,note_on,0,0,0,,,,,,,,,1,,61,100
146600,note_on,0,0,0,,,,,,,,,4,,76,100
146600,note_on,0,0,0,,,,,,,,,4,,61,100
146630,note_on,30,0,0,,,,,,,,,4,,61,0
146630,note_on,0,0,0,,,,,,,,,1,,76,0
146630,note_on,0,0,0,,,,,,,,,1,,61,0
146630,note_on,0,0,0,,,,,,,,,4,,76,0
146640,note_on,10,0,0,,,,,,,,,1,,69,100
146640,note_on,0,0,0,,,,,,,,,1,,54,100
146640,note_on,0,0,0,,,,,,,,,1,,78,100
146640,note_on,0,0,0,,,,,,,,,4,,69,100
146640,note_on,0,0,0,,,,,,,,,4,,54,100
146640,note_on,0,0,0,,,,,,,,,4,,78,100
146670,note_on,30,0,0,,,,,,,,,4,,54,0
146670,note_on,0,0,0,,,,,,,,,4,,69,0
146670,note_on,0,0,0,,,,,,,,,1,,54,0
146670,note_on,0,0,0,,,,,,,,,1,,69,0
146680,note_on,10,0,0,,,,,,,,,1,,71,100
146680,note_on,0,0,0,,,,,,,,,1,,56,100
146680,note_on,0,0,0,,,,,,,,,4,,71,100
146680,note_on,0,0,0,,,,,,,,,4,,56,100
146710,note_on,30,0,0,,,,,,,,,4,,56,0
146710,note_on,0,0,0,,,,,,,,,1,,56,0
146710,note_on,0,0,0,,,,,,,,,1,,71,0
146710,note_on,0,0,0,,,,,,,,,4,,71,0
146720,note_on,10,0,0,,,,,,,,,1,,78,0
146720,note_on,0,0,0,,,,,,,,,4,,78,0
146720,note_on,0,0,0,,,,,,,,,1,,73,100
146720,note_on,0,0,0,,,,,,,,,1,,57,100
146720,note_on,0,0,0,,,,,,,,,4,,73,100
146720,note_on,0,0,0,,,,,,,,,4,,57,100
146750,note_on,30,0,0,,,,,,,,,4,,57,0
146750,note_on,0,0,0,,,,,,,,,1,,73,0
146750,note_on,0,0,0,,,,,,,,,1,,57,0
146750,note_on,0,0,0,,,,,,,,,4,,73,0
146760,note_on,10,0,0,,,,,,,,,1,,56,100
146760,note_on,0,0,0,,,,,,,,,1,,71,100
146760,note_on,0,0,0,,,,,,,,,4,,56,100
146760,note_on,0,0,0,,,,,,,,,4,,71,100
146790,note_on,30,0,0,,,,,,,,,4,,71,0
146790,note_on,0,0,0,,,,,,,,,1,,56,0
146790,note_on,0,0,0,,,,,,,,,1,,71,0
146790,note_on,0,0,0,,,,,,,,,4,,56,0
146800,note_on,10,0,0,,,,,,,,,1,,57,100
146800,note_on,0,0,0,,,,,,,,,1,,73,100
146800,note_on,0,0,0,,,,,,,,,4,,57,100
146800,note_on,0,0,0,,,,,,,,,4,,73,100
146830,note_on,30,0,0,,,,,,,,,4,,73,0
146830,note_on,0,0,0,,,,,,,,,1,,57,0
146830,note_on,0,0,0,,,,,,,,,1,,73,0
146830,note_on,0,0,0,,,,,,,,,4,,57,0
146840,note_on,10,0,0,,,,,,,,,1,,59,100
146840,note_on,0,0,0,,,,,,,,,1,,74,100
146840,note_on,0,0,0,,,,,,,,,4,,59,100
146840,note_on,0,0,0,,,,,,,,,4,,74,100
146870,note_on,30,0,0,,,,,,,,,4,,74,0
146870,note_on,0,0,0,,,,,,,,,1,,59,0
146870,note_on,0,0,0,,,,,,,,,1,,74,0
146870,note_on,0,0,0,,,,,,,,,4,,59,0
146880,note_on,10,0,0,,,,,,,,,1,,52,100
146880,note_on,0,0,0,,,,,,,,,1,,68,100
146880,note_on,0,0,0,,,,,,,,,1,,76,100
146880,note_on,0,0,0,,,,,,,,,4,,52,100
146880,note_on,0,0,0,,,,,,,,,4,,68,100
146880,note_on,0,0,0,,,,,,,,,4,,76,100
146910,note_on,30,0,0,,,,,,,,,4,,68,0
146910,note_on,0,0,0,,,,,,,,,4,,52,0
146910,note_on,0,0,0,,,,,,,,,1,,68,0
146910,note_on,0,0,0,,,,,,,,,1,,52,0
146920,note_on,10,0,0,,,,,,,,,1,,54,100
146920,note_on,0,0,0,,,,,,,,,1,,69,100
146920,note_on,0,0,0,,,,,,,,,4,,54,100
146920,note_on,0,0,0,,,,,,,,,4,,69,100
146950,note_on,30,0,0,,,,,,,,,4,,69,0
146950,note_on,0,0,0,,,,,,,,,1,,69,0
146950,note_on,0,0,0,,,,,,,,,1,,54,0
146950,note_on,0,0,0,,,,,,,,,4,,54,0
146960,note_on,10,0,0,,,,,,,,,1,,76,0
146960,note_on,0,0,0,,,,,,,,,4,,76,0
146960,note_on,0,0,0,,,,,,,,,1,,56,100
146960,note_on,0,0,0,,,,,,,,,1,,71,100
146960,note_on,0,0,0,,,,,,,,,4,,56,100
146960,note_on,0,0,0,,,,,,,,,4,,71,100
146990,note_on,30,0,0,,,,,,,,,4,,71,0
146990,note_on,0,0,0,,,,,,,,,1,,56,0
146990,note_on,0,0,0,,,,,,,,,1,,71,0
146990,note_on,0,0,0,,,,,,,,,4,,56,0
147000,note_on,10,0,0,,,,,,,,,1,,69,100
147000,note_on,0,0,0,,,,,,,,,1,,54,100
147000,note_on,0,0,0,,,,,,,,,4,,69,100
147000,note_on,0,0,0,,,,,,,,,4,,54,100
147030,note_on,30,0,0,,,,,,,,,4,,54,0
147030,note_on,0,0,0,,,,,,,,,1,,69,0
147030,note_on,0,0,0,,,,,,,,,1,,54,0
147030,note_on,0,0,0,,,,,,,,,4,,69,0
147040,note_on,10,0,0,,,,,,,,,1,,71,100
147040,note_on,0,0,0,,,,,,,,,1,,56,100
147040,note_on,0,0,0,,,,,,,,,4,,71,100
147040,note_on,0,0,0,,,,,,,,,4,,56,100
147070,note_on,30,0,0,,,,,,,,,4,,56,0
147070,note_on,0,0,0,,,,,,,,,1,,71,0
147070,note_on,0,0,0,,,,,,,,,1,,56,0
147070,note_on,0,0,0,,,,,,,,,4,,71,0
147080,note_on,10,0,0,,,,,,,,,1,,73,100
147080,note_on,0,0,0,,,,,,,,,1,,57,100
147080,note_on,0,0,0,,,,,,,,,4,,73,100
147080,note_on,0,0,0,,,,,,,,,4,,57,100
147110,note_on,30,0,0,,,,,,,,,4,,57,0
147110,note_on,0,0,0,,,,,,,,,1,,73,0
147110,note_on,0,0,0,,,,,,,,,1,,57,0
147110,note_on,0,0,0,,,,,,,,,4,,73,0
147120,note_on,10,0,0,,,,,,,,,1,,71,100
147120,note_on,0,0,0,,,,,,,,,1,,50,100
147120,note_on,0,0,0,,,,,,,,,4,,71,100
147120,note_on,0,0,0,,,,,,,,,4,,50,100
147150,note_on,30,0,0,,,,,,,,,4,,50,0
147150,note_on,0,0,0,,,,,,,,,1,,71,0
147150,note_on,0,0,0,,,,,,,,,1,,50,0
147150,note_on,0,0,0,,,,,,,,,4,,71,0
147160,note_on,10,0,0,,,,,,,,,1,,73,100
147160,note_on,0,0,0,,,,,,,,,1,,52,100
147160,note_on,0,0,0,,,,,,,,,4,,73,100
147160,note_on,0,0,0,,,,,,,,,4,,52,100
147190,note_on,30,0,0,,,,,,,,,4,,52,0
147190,note_on,0,0,0,,,,,,,,,1,,73,0
147190,note_on,0,0,0,,,,,,,,,1,,52,0
147190,note_on,0,0,0,,,,,,,,,4,,73,0
147200,note_on,10,0,0,,,,,,,,,1,,69,100
147200,note_on,0,0,0,,,,,,,,,1,,54,100
147200,note_on,0,0,0,,,,,,,,,4,,69,100
147200,note_on,0,0,0,,,,,,,,,4,,54,100
147230,note_on,30,0,0,,,,,,,,,4,,54,0
147230,note_on,0,0,0,,,,,,,,,1,,69,0
147230,note_on,0,0,0,,,,,,,,,1,,54,0
147230,note_on,0,0,0,,,,,,,,,4,,69,0
147240,note_on,10,0,0,,,,,,,,,1,,52,100
147240,note_on,0,0,0,,,,,,,,,1,,68,100
147240,note_on,0,0,0,,,,,,,,,4,,52,100
147240,note_on,0,0,0,,,,,,,,,4,,68,100
147270,note_on,30,0,0,,,,,,,,,4,,68,0
147270,note_on,0,0,0,,,,,,,,,1,,68,0
147280,note_on,10,0,0,,,,,,,,,1,,69,100
147280,note_on,0,0,0,,,,,,,,,4,,69,100
147310,note_on,30,0,0,,,,,,,,,4,,69,0
147310,note_on,0,0,0,,,,,,,,,1,,52,0
147310,note_on,0,0,0,,,,,,,,,4,,52,0
147310,note_on,0,0,0,,,,,,,,,1,,69,0
147320,note_on,10,0,0,,,,,,,,,1,,50,100
147320,note_on,0,0,0,,,,,,,,,1,,71,100
147320,note_on,0,0,0,,,,,,,,,4,,50,100
147320,note_on,0,0,0,,,,,,,,,4,,71,100
147350,note_on,30,0,0,,,,,,,,,4,,71,0
147350,note_on,0,0,0,,,,,,,,,1,,50,0
147350,note_on,0,0,0,,,,,,,,,1,,71,0
147350,note_on,0,0,0,,,,,,,,,4,,50,0
147360,note_on,10,0,0,,,,,,,,,1,,49,100
147360,note_on,0,0,0,,,,,,,,,1,,64,100
147360,note_on,0,0,0,,,,,,,,,4,,49,100
147360,note_on,0,0,0,,,,,,,,,4,,64,100
147390,note_on,30,0,0,,,,,,,,,4,,64,0
147390,note_on,0,0,0,,,,,,,,,1,,64,0
147400,note_on,10,0,0,,,,,,,,,1,,69,100
147400,note_on,0,0,0,,,,,,,,,4,,69,100
147430,note_on,30,0,0,,,,,,,,,4,,69,0
147430,note_on,0,0,0,,,,,,,,,1,,49,0
147430,note_on,0,0,0,,,,,,,,,4,,49,0
147430,note_on,0,0,0,,,,,,,,,1,,69,0
147440,note_on,10,0,0,,,,,,,,,1,,45,100
147440,note_on,0,0,0,,,,,,,,,1,,68,100
147440,note_on,0,0,0,,,,,,,,,4,,45,100
147440,note_on,0,0,0,,,,,,,,,4,,68,100
147470,note_on,30,0,0,,,,,,,,,4,,68,0
147470,note_on,0,0,0,,,,,,,,,1,,45,0
147470,note_on,0,0,0,,,,,,,,,1,,68,0
147470,note_on,0,0,0,,,,,,,,,4,,45,0
147480,note_on,10,0,0,,,,,,,,,1,,50,100
147480,note_on,0,0,0,,,,,,,,,1,,66,100
147480,note_on,0,0,0,,,,,,,,,4,,50,100
147480,note_on,0,0,0,,,,,,,,,4,,66,100
147510,note_on,30,0,0,,,,,,,,,4,,66,0
147510,note_on,0,0,0,,,,,,,,,1,,66,0
147520,note_on,10,0,0,,,,,,,,,1,,71,100
147520,note_on,0,0,0,,,,,,,,,4,,71,100
147550,note_on,30,0,0,,,,,,,,,4,,71,0
147550,note_on,0,0,0,,,,,,,,,1,,50,0
147550,note_on,0,0,0,,,,,,,,,4,,50,0
147550,note_on,0,0,0,,,,,,,,,1,,71,0
147560,note_on,10,0,0,,,,,,,,,1,,47,100
147560,note_on,0,0,0,,,,,,,,,1,,69,100
147560,note_on,0,0,0,,,,,,,,,4,,47,100
147560,note_on,0,0,0,,,,,,,,,4,,69,100
147590,note_on,30,0,0,,,,,,,,,4,,69,0
147590,note_on,0,0,0,,,,,,,,,1,,47,0
147590,note_on,0,0,0,,,,,,,,,1,,69,0
147590,note_on,0,0,0,,,,,,,,,4,,47,0
147600,note_on,10,0,0,,,,,,,,,1,,52,100
147600,note_on,0,0,0,,,,,,,,,1,,68,100
147600,note_on,0,0,0,,,,,,,,,4,,52,100
147600,note_on,0,0,0,,,,,,,,,4,,68,100
147630,note_on,30,0,0,,,,,,,,,4,,68,0
147630,note_on,0,0,0,,,,,,,,,1,,68,0
147640,note_on,10,0,0,,,,,,,,,1,,76,100
147640,note_on,0,0,0,,,,,,,,,4,,76,100
147670,note_on,30,0,0,,,,,,,,,4,,76,0
147670,note_on,0,0,0,,,,,,,,,1,,52,0
147670,note_on,0,0,0,,,,,,,,,4,,52,0
147670,note_on,0,0,0,,,,,,,,,1,,76,0
147680,note_on,10,0,0,,,,,,,,,1,,56,100
147680,note_on,0,0,0,,,,,,,,,1,,74,100
147680,note_on,0,0,0,,,,,,,,,4,,56,100
147680,note_on,0,0,0,,,,,,,,,4,,74,100
147710,note_on,30,0,0,,,,,,,,,4,,74,0
147710,note_on,0,0,0,,,,,,,,,1,,56,0
147710,note_on,0,0,0,,,,,,,,,1,,74,0
147710,note_on,0,0,0,,,,,,,,,4,,56,0
147720,note_on,10,0,0,,,,,,,,,1,,57,100
147720,note_on,0,0,0,,,,,,,,,1,,73,100
147720,note_on,0,0,0,,,,,,,,,4,,57,100
147720,note_on,0,0,0,,,,,,,,,4,,73,100
147750,note_on,30,0,0,,,,,,,,,4,,73,0
147750,note_on,0,0,0,,,,,,,,,1,,73,0
147760,note_on,10,0,0,,,,,,,,,1,,76,100
147760,note_on,0,0,0,,,,,,,,,4,,76,100
147790,note_on,30,0,0,,,,,,,,,4,,76,0
147790,note_on,0,0,0,,,,,,,,,1,,57,0
147790,note_on,0,0,0,,,,,,,,,4,,57,0
147790,note_on,0,0,0,,,,,,,,,1,,76,0
147800,note_on,10,0,0,,,,,,,,,1,,81,100
147800,note_on,0,0,0,,,,,,,,,4,,81,100
147830,note_on,30,0,0,,,,,,,,,4,,81,0
147830,note_on,0,0,0,,,,,,,,,1,,81,0
147840,note_on,10,0,0,,,,,,,,,1,,79,100
147840,note_on,0,0,0,,,,,,,,,4,,79,100
147870,note_on,30,0,0,,,,,,,,,4,,79,0
147870,note_on,0,0,0,,,,,,,,,1,,79,0
147880,note_on,10,0,0,,,,,,,,,1,,78,100
147880,note_on,0,0,0,,,,,,,,,4,,78,100
147910,note_on,30,0,0,,,,,,,,,4,,78,0
147910,note_on,0,0,0,,,,,,,,,1,,78,0
147920,note_on,10,0,0,,,,,,,,,1,,76,100
147920,note_on,0,0,0,,,,,,,,,4,,76,100
147950,note_on,30,0,0,,,,,,,,,4,,76,0
147950,note_on,0,0,0,,,,,,,,,1,,76,0
147960,note_on,10,0,0,,,,,,,,,1,,45,100
147960,note_on,0,0,0,,,,,,,,,1,,78,100
147960,note_on,0,0,0,,,,,,,,,4,,45,100
147960,note_on,0,0,0,,,,,,,,,4,,78,100
147990,note_on,30,0,0,,,,,,,,,4,,78,0
147990,note_on,0,0,0,,,,,,,,,1,,78,0
148000,note_on,10,0,0,,,,,,,,,1,,81,100
148000,note_on,0,0,0,,,,,,,,,4,,81,100
148030,note_on,30,0,0,,,,,,,,,4,,81,0
148030,note_on,0,0,0,,,,,,,,,1,,45,0
148030,note_on,0,0,0,,,,,,,,,4,,45,0
148030,note_on,0,0,0,,,,,,,,,1,,81,0
148040,note_on,10,0,0,,,,,,,,,1,,86,100
148040,note_on,0,0,0,,,,,,,,,4,,86,100
148070,note_on,30,0,0,,,,,,,,,4,,86,0
148070,note_on,0,0,0,,,,,,,,,1,,86,0
148080,note_on,10,0,0,,,,,,,,,1,,79,100
148080,note_on,0,0,0,,,,,,,,,4,,79,100
148090,note_on,10,0,0,,,,,,,,,4,,79,0
148090,note_on,0,0,0,,,,,,,,,1,,79,0
148090,note_on,0,0,0,,,,,,,,,1,,78,100
148090,note_on,0,0,0,,,,,,,,,4,,78,100
148100,note_on,10,0,0,,,,,,,,,4,,78,0
148100,note_on,0,0,0,,,,,,,,,1,,78,0
148100,note_on,0,0,0,,,,,,,,,1,,79,100
148100,note_on,0,0,0,,,,,,,,,4,,79,100
148110,note_on,10,0,0,,,,,,,,,4,,79,0
148110,note_on,0,0,0,,,,,,,,,1,,79,0
148110,note_on,0,0,0,,,,,,,,,1,,78,100
148110,note_on,0,0,0,,,,,,,,,4,,78,100
148120,note_on,10,0,0,,,,,,,,,4,,78,0
148120,note_on,0,0,0,,,,,,,,,1,,78,0
148120,note_on,0,0,0,,,,,,,,,1,,76,100
148120,note_on,0,0,0,,,,,,,,,4,,76,100
148150,note_on,30,0,0,,,,,,,,,4,,76,0
148150,note_on,0,0,0,,,,,,,,,1,,76,0
148160,note_on,10,0,0,,,,,,,,,1,,74,100
148160,note_on,0,0,0,,,,,,,,,4,,74,100
148190,note_on,30,0,0,,,,,,,,,4,,74,0
148190,note_on,0,0,0,,,,,,,,,1,,74,0
148200,note_on,10,0,0,,,,,,,,,1,,57,100
148200,note_on,0,0,0,,,,,,,,,1,,73,100
148200,note_on,0,0,0,,,,,,,,,4,,57,100
148200,note_on,0,0,0,,,,,,,,,4,,73,100
148230,note_on,30,0,0,,,,,,,,,4,,73,0
148230,note_on,0,0,0,,,,,,,,,1,,73,0
148240,note_on,10,0,0,,,,,,,,,1,,76,100
148240,note_on,0,0,0,,,,,,,,,4,,76,100
148270,note_on,30,0,0,,,,,,,,,4,,76,0
148270,note_on,0,0,0,,,,,,,,,1,,57,0
148270,note_on,0,0,0,,,,,,,,,4,,57,0
148270,note_on,0,0,0,,,,,,,,,1,,76,0
148280,note_on,10,0,0,,,,,,,,,1,,69,100
148280,note_on,0,0,0,,,,,,,,,4,,69,100
148310,note_on,30,0,0,,,,,,,,,4,,69,0
148310,note_on,0,0,0,,,,,,,,,1,,69,0
148320,note_on,10,0,0,,,,,,,,,1,,69,100
148320,note_on,0,0,0,,,,,,,,,4,,69,100
148330,note_on,10,0,0,,,,,,,,,4,,69,0
148330,note_on,0,0,0,,,,,,,,,1,,69,0
148330,note_on,0,0,0,,,,,,,,,1,,67,100
148330,note_on,0,0,0,,,,,,,,,4,,67,100
148340,note_on,10,0,0,,,,,,,,,4,,67,0
148340,note_on,0,0,0,,,,,,,,,1,,67,0
148340,note_on,0,0,0,,,,,,,,,1,,69,100
148340,note_on,0,0,0,,,,,,,,,4,,69,100
148350,note_on,10,0,0,,,,,,,,,4,,69,0
148350,note_on,0,0,0,,,,,,,,,1,,69,0
148350,note_on,0,0,0,,,,,,,,,1,,67,100
148350,note_on,0,0,0,,,,,,,,,4,,67,100
148360,note_on,10,0,0,,,,,,,,,4,,67,0
148360,note_on,0,0,0,,,,,,,,,1,,67,0
148360,note_on,0,0,0,,,,,,,,,1,,66,100
148360,note_on,0,0,0,,,,,,,,,4,,66,100
148390,note_on,30,0,0,,,,,,,,,4,,66,0
148390,note_on,0,0,0,,,,,,,,,1,,66,0
148400,note_on,10,0,0,,,,,,,,,1,,64,100
148400,note_on,0,0,0,,,,,,,,,4,,64,100
148430,note_on,30,0,0,,,,,,,,,4,,64,0
148430,note_on,0,0,0,,,,,,,,,1,,64,0
148440,note_on,10,0,0,,,,,,,,,1,,45,100
148440,note_on,0,0,0,,,,,,,,,1,,66,100
148440,note_on,0,0,0,,,,,,,,,4,,45,100
148440,note_on,0,0,0,,,,,,,,,4,,66,100
148470,note_on,30,0,0,,,,,,,,,4,,66,0
148470,note_on,0,0,0,,,,,,,,,1,,66,0
148480,note_on,10,0,0,,,,,,,,,1,,69,100
148480,note_on,0,0,0,,,,,,,,,4,,69,100
148510,note_on,30,0,0,,,,,,,,,4,,69,0
148510,note_on,0,0,0,,,,,,,,,1,,45,0
148510,note_on,0,0,0,,,,,,,,,4,,45,0
148510,note_on,0,0,0,,,,,,,,,1,,69,0
148520,note_on,10,0,0,,,,,,,,,1,,74,100
148520,note_on,0,0,0,,,,,,,,,4,,74,100
148550,note_on,30,0,0,,,,,,,,,4,,74,0
148550,note_on,0,0,0,,,,,,,,,1,,74,0
148560,note_on,10,0,0,,,,,,,,,1,,67,100
148560,note_on,0,0,0,,,,,,,,,4,,67,100
148570,note_on,10,0,0,,,,,,,,,4,,67,0
148570,note_on,0,0,0,,,,,,,,,1,,67,0
148570,note_on,0,0,0,,,,,,,,,1,,66,100
148570,note_on,0,0,0,,,,,,,,,4,,66,100
148580,note_on,10,0,0,,,,,,,,,4,,66,0
148580,note_on,0,0,0,,,,,,,,,1,,66,0
148580,note_on,0,0,0,,,,,,,,,1,,67,100
148580,note_on,0,0,0,,,,,,,,,4,,67,100
148590,note_on,10,0,0,,,,,,,,,4,,67,0
148590,note_on,0,0,0,,,,,,,,,1,,67,0
148590,note_on,0,0,0,,,,,,,,,1,,66,100
148590,note_on,0,0,0,,,,,,,,,4,,66,100
148600,note_on,10,0,0,,,,,,,,,4,,66,0
148600,note_on,0,0,0,,,,,,,,,1,,66,0
148600,note_on,0,0,0,,,,,,,,,1,,64,100
148600,note_on,0,0,0,,,,,,,,,4,,64,100
148630,note_on,30,0,0,,,,,,,,,4,,64,0
148630,note_on,0,0,0,,,,,,,,,1,,64,0
148640,note_on,10,0,0,,,,,,,,,1,,62,100
148640,note_on,0,0,0,,,,,,,,,4,,62,100
148670,note_on,30,0,0,,,,,,,,,4,,62,0
148670,note_on,0,0,0,,,,,,,,,1,,62,0
148680,note_on,10,0,0,,,,,,,,,1,,57,100
148680,note_on,0,0,0,,,,,,,,,1,,61,100
148680,note_on,0,0,0,,,,,,,,,4,,57,100
148680,note_on,0,0,0,,,,,,,,,4,,61,100
148710,note_on,30,0,0,,,,,,,,,4,,61,0
148710,note_on,0,0,0,,,,,,,,,1,,61,0
148720,note_on,10,0,0,,,,,,,,,1,,64,100
148720,note_on,0,0,0,,,,,,,,,4,,64,100
148750,note_on,30,0,0,,,,,,,,,4,,64,0
148750,note_on,0,0,0,,,,,,,,,1,,57,0
148750,note_on,0,0,0,,,,,,,,,4,,57,0
148750,note_on,0,0,0,,,,,,,,,1,,64,0
148760,note_on,10,0,0,,,,,,,,,1,,69,100
148760,note_on,0,0,0,,,,,,,,,4,,69,100
148790,note_on,30,0,0,,,,,,,,,4,,69,0
148790,note_on,0,0,0,,,,,,,,,1,,69,0
148800,note_on,10,0,0,,,,,,,,,1,,62,100
148800,note_on,0,0,0,,,,,,,,,4,,62,100
148830,note_on,30,0,0,,,,,,,,,4,,62,0
148830,note_on,0,0,0,,,,,,,,,1,,62,0
148840,note_on,10,0,0,,,,,,,,,1,,68,100
148840,note_on,0,0,0,,,,,,,,,4,,68,100
148870,note_on,30,0,0,,,,,,,,,4,,68,0
148870,note_on,0,0,0,,,,,,,,,1,,68,0
148880,note_on,10,0,0,,,,,,,,,1,,71,100
148880,note_on,0,0,0,,,,,,,,,4,,71,100
148910,note_on,30,0,0,,,,,,,,,4,,71,0
148910,note_on,0,0,0,,,,,,,,,1,,71,0
148920,note_on,10,0,0,,,,,,,,,1,,45,100
148920,note_on,0,0,0,,,,,,,,,1,,64,100
148920,note_on,0,0,0,,,,,,,,,4,,45,100
148920,note_on,0,0,0,,,,,,,,,4,,64,100
148950,note_on,30,0,0,,,,,,,,,4,,64,0
148950,note_on,0,0,0,,,,,,,,,1,,64,0
148960,note_on,10,0,0,,,,,,,,,1,,69,100
148960,note_on,0,0,0,,,,,,,,,4,,69,100
148990,note_on,30,0,0,,,,,,,,,4,,69,0
148990,note_on,0,0,0,,,,,,,,,1,,45,0
148990,note_on,0,0,0,,,,,,,,,4,,45,0
148990,note_on,0,0,0,,,,,,,,,1,,69,0
149000,note_on,10,0,0,,,,,,,,,1,,73,100
149000,note_on,0,0,0,,,,,,,,,4,,73,100
149030,note_on,30,0,0,,,,,,,,,4,,73,0
149030,note_on,0,0,0,,,,,,,,,1,,73,0
149040,note_on,10,0,0,,,,,,,,,1,,68,100
149040,note_on,0,0,0,,,,,,,,,4,,68,100
149070,note_on,30,0,0,,,,,,,,,4,,68,0
149070,note_on,0,0,0,,,,,,,,,1,,68,0
149080,note_on,10,0,0,,,,,,,,,1,,71,100
149080,note_on,0,0,0,,,,,,,,,4,,71,100
149110,note_on,30,0,0,,,,,,,,,4,,71,0
149110,note_on,0,0,0,,,,,,,,,1,,71,0
149120,note_on,10,0,0,,,,,,,,,1,,74,100
149120,note_on,0,0,0,,,,,,,,,4,,74,100
149150,note_on,30,0,0,,,,,,,,,4,,74,0
149150,note_on,0,0,0,,,,,,,,,1,,74,0
149160,note_on,10,0,0,,,,,,,,,1,,57,100
149160,note_on,0,0,0,,,,,,,,,1,,69,100
149160,note_on,0,0,0,,,,,,,,,4,,57,100
149160,note_on,0,0,0,,,,,,,,,4,,69,100
149190,note_on,30,0,0,,,,,,,,,4,,69,0
149190,note_on,0,0,0,,,,,,,,,1,,69,0
149200,note_on,10,0,0,,,,,,,,,1,,73,100
149200,note_on,0,0,0,,,,,,,,,4,,73,100
149230,note_on,30,0,0,,,,,,,,,4,,73,0
149230,note_on,0,0,0,,,,,,,,,1,,57,0
149230,note_on,0,0,0,,,,,,,,,4,,57,0
149230,note_on,0,0,0,,,,,,,,,1,,73,0
149240,note_on,10,0,0,,,,,,,,,1,,76,100
149240,note_on,0,0,0,,,,,,,,,4,,76,100
149270,note_on,30,0,0,,,,,,,,,4,,76,0
149270,note_on,0,0,0,,,,,,,,,1,,76,0
149280,note_on,10,0,0,,,,,,,,,1,,71,100
149280,note_on,0,0,0,,,,,,,,,4,,71,100
149310,note_on,30,0,0,,,,,,,,,4,,71,0
149310,note_on,0,0,0,,,,,,,,,1,,71,0
149320,note_on,10,0,0,,,,,,,,,1,,74,100
149320,note_on,0,0,0,,,,,,,,,4,,74,100
149350,note_on,30,0,0,,,,,,,,,4,,74,0
149350,note_on,0,0,0,,,,,,,,,1,,74,0
149360,note_on,10,0,0,,,,,,,,,1,,80,100
149360,note_on,0,0,0,,,,,,,,,4,,80,100
149390,note_on,30,0,0,,,,,,,,,4,,80,0
149390,note_on,0,0,0,,,,,,,,,1,,80,0
149400,note_on,10,0,0,,,,,,,,,1,,45,100
149400,note_on,0,0,0,,,,,,,,,1,,73,100
149400,note_on,0,0,0,,,,,,,,,4,,45,100
149400,note_on,0,0,0,,,,,,,,,4,,73,100
149430,note_on,30,0,0,,,,,,,,,4,,73,0
149430,note_on,0,0,0,,,,,,,,,1,,73,0
149440,note_on,10,0,0,,,,,,,,,1,,76,100
149440,note_on,0,0,0,,,,,,,,,4,,76,100
149470,note_on,30,0,0,,,,,,,,,4,,76,0
149470,note_on,0,0,0,,,,,,,,,1,,45,0
149470,note_on,0,0,0,,,,,,,,,4,,45,0
149470,note_on,0,0,0,,,,,,,,,1,,76,0
149480,note_on,10,0,0,,,,,,,,,1,,81,100
149480,note_on,0,0,0,,,,,,,,,4,,81,100
149510,note_on,30,0,0,,,,,,,,,4,,81,0
149510,note_on,0,0,0,,,,,,,,,1,,81,0
149520,note_on,10,0,0,,,,,,,,,1,,74,100
149520,note_on,0,0,0,,,,,,,,,4,,74,100
149550,note_on,30,0,0,,,,,,,,,4,,74,0
149550,note_on,0,0,0,,,,,,,,,1,,74,0
149560,note_on,10,0,0,,,,,,,,,1,,80,100
149560,note_on,0,0,0,,,,,,,,,4,,80,100
149590,note_on,30,0,0,,,,,,,,,4,,80,0
149590,note_on,0,0,0,,,,,,,,,1,,80,0
149600,note_on,10,0,0,,,,,,,,,1,,83,100
149600,note_on,0,0,0,,,,,,,,,4,,83,100
149630,note_on,30,0,0,,,,,,,,,4,,83,0
149630,note_on,0,0,0,,,,,,,,,1,,83,0
149640,note_on,10,0,0,,,,,,,,,1,,57,100
149640,note_on,0,0,0,,,,,,,,,1,,76,100
149640,note_on,0,0,0,,,,,,,,,4,,57,100
149640,note_on,0,0,0,,,,,,,,,4,,76,100
149670,note_on,30,0,0,,,,,,,,,4,,76,0
149670,note_on,0,0,0,,,,,,,,,1,,76,0
149680,note_on,10,0,0,,,,,,,,,1,,81,100
149680,note_on,0,0,0,,,,,,,,,4,,81,100
149710,note_on,30,0,0,,,,,,,,,4,,81,0
149710,note_on,0,0,0,,,,,,,,,1,,81,0
149720,note_on,10,0,0,,,,,,,,,4,,57,0
149720,note_on,0,0,0,,,,,,,,,1,,57,0
149720,note_on,0,0,0,,,,,,,,,1,,85,100
149720,note_on,0,0,0,,,,,,,,,4,,85,100
149750,note_on,30,0,0,,,,,,,,,4,,85,0
149750,note_on,0,0,0,,,,,,,,,1,,85,0
149760,note_on,10,0,0,,,,,,,,,1,,50,100
149760,note_on,0,0,0,,,,,,,,,1,,78,100
149760,note_on,0,0,0,,,,,,,,,4,,50,100
149760,note_on,0,0,0,,,,,,,,,4,,78,100
149790,note_on,30,0,0,,,,,,,,,4,,78,0
149790,note_on,0,0,0,,,,,,,,,1,,78,0
149800,note_on,10,0,0,,,,,,,,,1,,83,100
149800,note_on,0,0,0,,,,,,,,,4,,83,100
149830,note_on,30,0,0,,,,,,,,,4,,83,0
149830,note_on,0,0,0,,,,,,,,,1,,83,0
149840,note_on,10,0,0,,,,,,,,,4,,50,0
149840,note_on,0,0,0,,,,,,,,,1,,50,0
149840,note_on,0,0,0,,,,,,,,,1,,86,100
149840,note_on,0,0,0,,,,,,,,,4,,86,100
149870,note_on,30,0,0,,,,,,,,,4,,86,0
149870,note_on,0,0,0,,,,,,,,,1,,86,0
149880,note_on,10,0,0,,,,,,,,,1,,52,100
149880,note_on,0,0,0,,,,,,,,,1,,80,100
149880,note_on,0,0,0,,,,,,,,,4,,52,100
149880,note_on,0,0,0,,,,,,,,,4,,80,100
149910,note_on,30,0,0,,,,,,,,,4,,80,0
149910,note_on,0,0,0,,,,,,,,,1,,80,0
149920,note_on,10,0,0,,,,,,,,,1,,83,100
149920,note_on,0,0,0,,,,,,,,,4,,83,100
149950,note_on,30,0,0,,,,,,,,,4,,83,0
149950,note_on,0,0,0,,,,,,,,,1,,83,0
149960,note_on,10,0,0,,,,,,,,,4,,52,0
149960,note_on,0,0,0,,,,,,,,,1,,52,0
149960,note_on,0,0,0,,,,,,,,,1,,76,100
149960,note_on,0,0,0,,,,,,,,,4,,76,100
149990,note_on,30,0,0,,,,,,,,,4,,76,0
149990,note_on,0,0,0,,,,,,,,,1,,76,0
150000,note_on,10,0,0,,,,,,,,,1,,76,100
150000,note_on,0,0,0,,,,,,,,,4,,76,100
150010,note_on,10,0,0,,,,,,,,,4,,76,0
150010,note_on,0,0,0,,,,,,,,,1,,76,0
150010,note_on,0,0,0,,,,,,,,,1,,74,100
150010,note_on,0,0,0,,,,,,,,,4,,74,100
150020,note_on,10,0,0,,,,,,,,,4,,74,0
150020,note_on,0,0,0,,,,,,,,,1,,74,0
150020,note_on,0,0,0,,,,,,,,,1,,76,100
150020,note_on,0,0,0,,,,,,,,,4,,76,100
150030,note_on,10,0,0,,,,,,,,,4,,76,0
150030,note_on,0,0,0,,,,,,,,,1,,76,0
150030,note_on,0,0,0,,,,,,,,,1,,74,100
150030,note_on,0,0,0,,,,,,,,,4,,74,100
150040,note_on,10,0,0,,,,,,,,,4,,74,0
150040,note_on,0,0,0,,,,,,,,,1,,74,0
150040,note_on,0,0,0,,,,,,,,,1,,73,100
150040,note_on,0,0,0,,,,,,,,,4,,73,100
150070,note_on,30,0,0,,,,,,,,,4,,73,0
150070,note_on,0,0,0,,,,,,,,,1,,73,0
150080,note_on,10,0,0,,,,,,,,,1,,71,100
150080,note_on,0,0,0,,,,,,,,,4,,71,100
150110,note_on,30,0,0,,,,,,,,,4,,71,0
150110,note_on,0,0,0,,,,,,,,,1,,71,0
150120,note_on,10,0,0,,,,,,,,,1,,40,100
150120,note_on,0,0,0,,,,,,,,,1,,73,100
150120,note_on,0,0,0,,,,,,,,,4,,40,100
150120,note_on,0,0,0,,,,,,,,,4,,73,100
150150,note_on,30,0,0,,,,,,,,,4,,73,0
150150,note_on,0,0,0,,,,,,,,,1,,73,0
150160,note_on,10,0,0,,,,,,,,,1,,76,100
150160,note_on,0,0,0,,,,,,,,,4,,76,100
150190,note_on,30,0,0,,,,,,,,,4,,76,0
150190,note_on,0,0,0,,,,,,,,,1,,76,0
150200,note_on,10,0,0,,,,,,,,,4,,40,0
150200,note_on,0,0,0,,,,,,,,,1,,40,0
150200,note_on,0,0,0,,,,,,,,,1,,81,100
150200,note_on,0,0,0,,,,,,,,,4,,81,100
150230,note_on,30,0,0,,,,,,,,,4,,81,0
150230,note_on,0,0,0,,,,,,,,,1,,81,0
150240,note_on,10,0,0,,,,,,,,,1,,74,100
150240,note_on,0,0,0,,,,,,,,,4,,74,100
150250,note_on,10,0,0,,,,,,,,,4,,74,0
150250,note_on,0,0,0,,,,,,,,,1,,74,0
150250,note_on,0,0,0,,,,,,,,,1,,73,100
150250,note_on,0,0,0,,,,,,,,,4,,73,100
150260,note_on,10,0,0,,,,,,,,,4,,73,0
150260,note_on,0,0,0,,,,,,,,,1,,73,0
150260,note_on,0,0,0,,,,,,,,,1,,74,100
150260,note_on,0,0,0,,,,,,,,,4,,74,100
150270,note_on,10,0,0,,,,,,,,,4,,74,0
150270,note_on,0,0,0,,,,,,,,,1,,74,0
150270,note_on,0,0,0,,,,,,,,,1,,73,100
150270,note_on,0,0,0,,,,,,,,,4,,73,100
150280,note_on,10,0,0,,,,,,,,,4,,73,0
150280,note_on,0,0,0,,,,,,,,,1,,73,0
150280,note_on,0,0,0,,,,,,,,,1,,71,100
150280,note_on,0,0,0,,,,,,,,,4,,71,100
150310,note_on,30,0,0,,,,,,,,,4,,71,0
150310,note_on,0,0,0,,,,,,,,,1,,71,0
150320,note_on,10,0,0,,,,,,,,,1,,69,100
150320,note_on,0,0,0,,,,,,,,,4,,69,100
150350,note_on,30,0,0,,,,,,,,,4,,69,0
150350,note_on,0,0,0,,,,,,,,,1,,69,0
150360,note_on,10,0,0,,,,,,,,,1,,52,100
150360,note_on,0,0,0,,,,,,,,,1,,68,100
150360,note_on,0,0,0,,,,,,,,,4,,52,100
150360,note_on,0,0,0,,,,,,,,,4,,68,100
150390,note_on,30,0,0,,,,,,,,,4,,68,0
150390,note_on,0,0,0,,,,,,,,,1,,68,0
150400,note_on,10,0,0,,,,,,,,,1,,71,100
150400,note_on,0,0,0,,,,,,,,,4,,71,100
150430,note_on,30,0,0,,,,,,,,,4,,71,0
150430,note_on,0,0,0,,,,,,,,,1,,71,0
150440,note_on,10,0,0,,,,,,,,,4,,52,0
150440,note_on,0,0,0,,,,,,,,,1,,52,0
150440,note_on,0,0,0,,,,,,,,,1,,76,100
150440,note_on,0,0,0,,,,,,,,,4,,76,100
150470,note_on,30,0,0,,,,,,,,,4,,76,0
150470,note_on,0,0,0,,,,,,,,,1,,76,0
150480,note_on,10,0,0,,,,,,,,,1,,76,100
150480,note_on,0,0,0,,,,,,,,,4,,76,100
150490,note_on,10,0,0,,,,,,,,,4,,76,0
150490,note_on,0,0,0,,,,,,,,,1,,76,0
150490,note_on,0,0,0,,,,,,,,,1,,74,100
150490,note_on,0,0,0,,,,,,,,,4,,74,100
150500,note_on,10,0,0,,,,,,,,,4,,74,0
150500,note_on,0,0,0,,,,,,,,,1,,74,0
150500,note_on,0,0,0,,,,,,,,,1,,76,100
150500,note_on,0,0,0,,,,,,,,,4,,76,100
150510,note_on,10,0,0,,,,,,,,,4,,76,0
150510,note_on,0,0,0,,,,,,,,,1,,76,0
150510,note_on,0,0,0,,,,,,,,,1,,74,100
150510,note_on,0,0,0,,,,,,,,,4,,74,100
150519,control_change,9,0,0,,,,,,,11,125,5,,,
150520,note_on,1,0,0,,,,,,,,,4,,74,0
150520,note_on,0,0,0,,,,,,,,,1,,74,0
150520,note_on,0,0,0,,,,,,,,,1,,73,100
150520,note_on,0,0,0,,,,,,,,,4,,73,100
150531,control_change,11,0,0,,,,,,,11,124,7,,,
150533,control_change,2,0,0,,,,,,,11,126,6,,,
150533,control_change,0,0,0,,,,,,,11,127,13,,,
150540,note_on,7,0,0,,,,,,,,,5,,76,100
150540,note_on,0,0,0,,,,,,,,,6,,68,100
150540,note_on,0,0,0,,,,,,,,,7,,68,100
150540,note_on,0,0,0,,,,,,,,,13,,76,100
150550,note_on,10,0,0,,,,,,,,,4,,73,0
150550,note_on,0,0,0,,,,,,,,,1,,73,0
150560,note_on,10,0,0,,,,,,,,,1,,71,100
150560,note_on,0,0,0,,,,,,,,,4,,71,100
150570,note_on,10,0,0,,,,,,,,,7,,68,0
150570,note_on,0,0,0,,,,,,,,,5,,76,0
150570,note_on,0,0,0,,,,,,,,,6,,68,0
150570,note_on,0,0,0,,,,,,,,,13,,76,0
150587,control_change,17,0,0,,,,,,,11,123,14,,,
150589,control_change,2,0,0,,,,,,,11,124,10,,,
150590,note_on,1,0,0,,,,,,,,,4,,71,0
150590,note_on,0,0,0,,,,,,,,,1,,71,0
150591,control_change,1,0,0,,,,,,,11,125,8,,,
150600,note_on,9,0,0,,,,,,,,,0,,69,100
150600,note_on,0,0,0,,,,,,,,,0,,64,100
150600,note_on,0,0,0,,,,,,,,,0,,61,100
150600,note_on,0,0,0,,,,,,,,,0,,57,100
150600,note_on,0,0,0,,,,,,,,,0,,83,100
150600,note_on,0,0,0,,,,,,,,,3,,69,100
150600,note_on,0,0,0,,,,,,,,,3,,64,100
150600,note_on,0,0,0,,,,,,,,,3,,61,100
150600,note_on,0,0,0,,,,,,,,,3,,57,100
150600,note_on,0,0,0,,,,,,,,,3,,83,100
150600,note_on,0,0,0,,,,,,,,,5,,83,100
150600,note_on,0,0,0,,,,,,,,,6,,61,100
150600,note_on,0,0,0,,,,,,,,,7,,61,100
150600,note_on,0,0,0,,,,,,,,,8,,57,100
150600,note_on,0,0,0,,,,,,,,,10,,45,100
150600,note_on,0,0,0,,,,,,,,,13,,83,100
150600,note_on,0,0,0,,,,,,,,,14,,57,100
150600,note_on,0,0,0,,,,,,,,,15,,57,100
150615,note_on,15,0,0,,,,,,,,,13,,83,0
150615,note_on,0,0,0,,,,,,,,,5,,83,0
150615,note_on,0,0,0,,,,,,,,,3,,83,0
150615,note_on,0,0,0,,,,,,,,,0,,83,0
150615,note_on,0,0,0,,,,,,,,,0,,81,100
150615,note_on,0,0,0,,,,,,,,,3,,81,100
150615,note_on,0,0,0,,,,,,,,,5,,81,100
150615,note_on,0,0,0,,,,,,,,,13,,81,100
150630,note_on,15,0,0,,,,,,,,,13,,81,0
150630,note_on,0,0,0,,,,,,,,,5,,81,0
150630,note_on,0,0,0,,,,,,,,,3,,81,0
150630,note_on,0,0,0,,,,,,,,,0,,81,0
150630,note_on,0,0,0,,,,,,,,,0,,83,100
150630,note_on,0,0,0,,,,,,,,,3,,83,100
150630,note_on,0,0,0,,,,,,,,,5,,83,100
150630,note_on,0,0,0,,,,,,,,,13,,83,100
150645,note_on,15,0,0,,,,,,,,,13,,83,0
150645,note_on,0,0,0,,,,,,,,,5,,83,0
150645,note_on,0,0,0,,,,,,,,,3,,83,0
150645,note_on,0,0,0,,,,,,,,,0,,83,0
150645,note_on,0,0,0,,,,,,,,,0,,81,100
150645,note_on,0,0,0,,,,,,,,,3,,81,100
150645,note_on,0,0,0,,,,,,,,,5,,81,100
150645,note_on,0,0,0,,,,,,,,,13,,81,100
150660,note_on,15,0,0,,,,,,,,,13,,81,0
150660,note_on,0,0,0,,,,,,,,,5,,81,0
150660,note_on,0,0,0,,,,,,,,,3,,81,0
150660,note_on,0,0,0,,,,,,,,,0,,81,0
150660,note_on,0,0,0,,,,,,,,,0,,83,100
150660,note_on,0,0,0,,,,,,,,,3,,83,100
150660,note_on,0,0,0,,,,,,,,,5,,83,100
150660,note_on,0,0,0,,,,,,,,,13,,83,100
150675,note_on,15,0,0,,,,,,,,,13,,83,0
150675,note_on,0,0,0,,,,,,,,,5,,83,0
150675,note_on,0,0,0,,,,,,,,,3,,83,0
150675,note_on,0,0,0,,,,,,,,,15,,57,0
150675,note_on,0,0,0,,,,,,,,,8,,57,0
150675,note_on,0,0,0,,,,,,,,,0,,83,0
150675,note_on,0,0,0,,,,,,,,,14,,57,0
150675,note_on,0,0,0,,,,,,,,,10,,45,0
150675,note_on,0,0,0,,,,,,,,,0,,81,100
150675,note_on,0,0,0,,,,,,,,,3,,81,100
150675,note_on,0,0,0,,,,,,,,,5,,81,100
150675,note_on,0,0,0,,,,,,,,,13,,81,100
150690,note_on,15,0,0,,,,,,,,,13,,81,0
150690,note_on,0,0,0,,,,,,,,,7,,61,0
150690,note_on,0,0,0,,,,,,,,,6,,61,0
150690,note_on,0,0,0,,,,,,,,,5,,81,0
150690,note_on,0,0,0,,,,,,,,,0,,81,0
150690,note_on,0,0,0,,,,,,,,,3,,81,0
150690,note_on,0,0,0,,,,,,,,,0,,83,100
150690,note_on,0,0,0,,,,,,,,,3,,83,100
150690,note_on,0,0,0,,,,,,,,,5,,83,100
150690,note_on,0,0,0,,,,,,,,,13,,83,100
150705,note_on,15,0,0,,,,,,,,,13,,83,0
150705,note_on,0,0,0,,,,,,,,,3,,83,0
150705,note_on,0,0,0,,,,,,,,,0,,83,0
150705,note_on,0,0,0,,,,,,,,,5,,83,0
150705,note_on,0,0,0,,,,,,,,,0,,81,100
150705,note_on,0,0,0,,,,,,,,,3,,81,100
150705,note_on,0,0,0,,,,,,,,,5,,81,100
150705,note_on,0,0,0,,,,,,,,,13,,81,100
150720,note_on,15,0,0,,,,,,,,,13,,81,0
150720,note_on,0,0,0,,,,,,,,,0,,61,0
150720,note_on,0,0,0,,,,,,,,,3,,69,0
150720,note_on,0,0,0,,,,,,,,,0,,64,0
150720,note_on,0,0,0,,,,,,,,,3,,64,0
150720,note_on,0,0,0,,,,,,,,,0,,57,0
150720,note_on,0,0,0,,,,,,,,,3,,61,0
150720,note_on,0,0,0,,,,,,,,,3,,57,0
150720,note_on,0,0,0,,,,,,,,,0,,81,0
150720,note_on,0,0,0,,,,,,,,,0,,69,0
150720,note_on,0,0,0,,,,,,,,,5,,81,0
150720,note_on,0,0,0,,,,,,,,,3,,81,0
150720,note_on,0,0,0,,,,,,,,,0,,59,100
150720,note_on,0,0,0,,,,,,,,,0,,83,100
150720,note_on,0,0,0,,,,,,,,,3,,59,100
150720,note_on,0,0,0,,,,,,,,,3,,83,100
150720,note_on,0,0,0,,,,,,,,,5,,83,100
150720,note_on,0,0,0,,,,,,,,,6,,62,100
150720,note_on,0,0,0,,,,,,,,,7,,62,100
150720,note_on,0,0,0,,,,,,,,,8,,59,100
150720,note_on,0,0,0,,,,,,,,,10,,47,100
150720,note_on,0,0,0,,,,,,,,,13,,83,100
150720,note_on,0,0,0,,,,,,,,,14,,59,100
150720,note_on,0,0,0,,,,,,,,,15,,59,100
150735,note_on,15,0,0,,,,,,,,,13,,83,0
150735,note_on,0,0,0,,,,,,,,,5,,83,0
150735,note_on,0,0,0,,,,,,,,,3,,83,0
150735,note_on,0,0,0,,,,,,,,,0,,83,0
150735,note_on,0,0,0,,,,,,,,,0,,81,100
150735,note_on,0,0,0,,,,,,,,,3,,81,100
150735,note_on,0,0,0,,,,,,,,,5,,81,100
150735,note_on,0,0,0,,,,,,,,,13,,81,100
150750,note_on,15,0,0,,,,,,,,,13,,81,0
150750,note_on,0,0,0,,,,,,,,,3,,81,0
150750,note_on,0,0,0,,,,,,,,,0,,81,0
150750,note_on,0,0,0,,,,,,,,,5,,81,0
150780,note_on,30,0,0,,,,,,,,,0,,80,100
150780,note_on,0,0,0,,,,,,,,,3,,80,100
150780,note_on,0,0,0,,,,,,,,,5,,80,100
150780,note_on,0,0,0,,,,,,,,,13,,80,100
150795,note_on,15,0,0,,,,,,,,,0,,59,0
150795,note_on,0,0,0,,,,,,,,,8,,59,0
150795,note_on,0,0,0,,,,,,,,,10,,47,0
150795,note_on,0,0,0,,,,,,,,,3,,59,0
150795,note_on,0,0,0,,,,,,,,,14,,59,0
150795,note_on,0,0,0,,,,,,,,,15,,59,0
150810,note_on,15,0,0,,,,,,,,,7,,62,0
150810,note_on,0,0,0,,,,,,,,,0,,80,0
150810,note_on,0,0,0,,,,,,,,,5,,80,0
150810,note_on,0,0,0,,,,,,,,,13,,80,0
150810,note_on,0,0,0,,,,,,,,,6,,62,0
150810,note_on,0,0,0,,,,,,,,,3,,80,0
150810,note_on,0,0,0,,,,,,,,,0,,78,100
150810,note_on,0,0,0,,,,,,,,,3,,78,100
150810,note_on,0,0,0,,,,,,,,,5,,78,100
150810,note_on,0,0,0,,,,,,,,,13,,78,100
150840,note_on,30,0,0,,,,,,,,,13,,78,0
150840,note_on,0,0,0,,,,,,,,,0,,78,0
150840,note_on,0,0,0,,,,,,,,,3,,78,0
150840,note_on,0,0,0,,,,,,,,,5,,78,0
150840,note_on,0,0,0,,,,,,,,,0,,61,100
150840,note_on,0,0,0,,,,,,,,,0,,76,100
150840,note_on,0,0,0,,,,,,,,,3,,61,100
150840,note_on,0,0,0,,,,,,,,,3,,76,100
150840,note_on,0,0,0,,,,,,,,,5,,76,100
150840,note_on,0,0,0,,,,,,,,,6,,69,100
150840,note_on,0,0,0,,,,,,,,,7,,69,100
150840,note_on,0,0,0,,,,,,,,,8,,61,100
150840,note_on,0,0,0,,,,,,,,,10,,49,100
150840,note_on,0,0,0,,,,,,,,,13,,76,100
150840,note_on,0,0,0,,,,,,,,,14,,61,100
150840,note_on,0,0,0,,,,,,,,,15,,61,100
150870,note_on,30,0,0,,,,,,,,,13,,76,0
150870,note_on,0,0,0,,,,,,,,,5,,76,0
150870,note_on,0,0,0,,,,,,,,,3,,76,0
150870,note_on,0,0,0,,,,,,,,,0,,76,0
150900,note_on,30,0,0,,,,,,,,,0,,81,100
150900,note_on,0,0,0,,,,,,,,,3,,81,100
150900,note_on,0,0,0,,,,,,,,,5,,81,100
150900,note_on,0,0,0,,,,,,,,,13,,81,100
150915,note_on,15,0,0,,,,,,,,,8,,61,0
150915,note_on,0,0,0,,,,,,,,,10,,49,0
150915,note_on,0,0,0,,,,,,,,,0,,61,0
150915,note_on,0,0,0,,,,,,,,,14,,61,0
150915,note_on,0,0,0,,,,,,,,,15,,61,0
150915,note_on,0,0,0,,,,,,,,,3,,61,0
150930,note_on,15,0,0,,,,,,,,,7,,69,0
150930,note_on,0,0,0,,,,,,,,,0,,81,0
150930,note_on,0,0,0,,,,,,,,,5,,81,0
150930,note_on,0,0,0,,,,,,,,,13,,81,0
150930,note_on,0,0,0,,,,,,,,,6,,69,0
150930,note_on,0,0,0,,,,,,,,,3,,81,0
150960,note_on,30,0,0,,,,,,,,,0,,57,100
150960,note_on,0,0,0,,,,,,,,,3,,57,100
150960,note_on,0,0,0,,,,,,,,,6,,61,100
150960,note_on,0,0,0,,,,,,,,,7,,61,100
150960,note_on,0,0,0,,,,,,,,,8,,57,100
150960,note_on,0,0,0,,,,,,,,,10,,45,100
150960,note_on,0,0,0,,,,,,,,,14,,57,100
150960,note_on,0,0,0,,,,,,,,,15,,57,100
151020,note_on,60,0,0,,,,,,,,,0,,69,100
151020,note_on,0,0,0,,,,,,,,,3,,69,100
151020,note_on,0,0,0,,,,,,,,,5,,69,100
151020,note_on,0,0,0,,,,,,,,,13,,69,100
151035,note_on,15,0,0,,,,,,,,,15,,57,0
151035,note_on,0,0,0,,,,,,,,,14,,57,0
151035,note_on,0,0,0,,,,,,,,,3,,57,0
151035,note_on,0,0,0,,,,,,,,,0,,57,0
151035,note_on,0,0,0,,,,,,,,,10,,45,0
151035,note_on,0,0,0,,,,,,,,,8,,57,0
151050,note_on,15,0,0,,,,,,,,,0,,69,0
151050,note_on,0,0,0,,,,,,,,,13,,69,0
151050,note_on,0,0,0,,,,,,,,,5,,69,0
151050,note_on,0,0,0,,,,,,,,,6,,61,0
151050,note_on,0,0,0,,,,,,,,,7,,61,0
151050,note_on,0,0,0,,,,,,,,,3,,69,0
151080,note_on,30,0,0,,,,,,,,,0,,54,100
151080,note_on,0,0,0,,,,,,,,,0,,76,100
151080,note_on,0,0,0,,,,,,,,,3,,54,100
151080,note_on,0,0,0,,,,,,,,,3,,76,100
151080,note_on,0,0,0,,,,,,,,,5,,76,100
151080,note_on,0,0,0,,,,,,,,,6,,57,100
151080,note_on,0,0,0,,,,,,,,,7,,57,100
151080,note_on,0,0,0,,,,,,,,,8,,54,100
151080,note_on,0,0,0,,,,,,,,,10,,42,100
151080,note_on,0,0,0,,,,,,,,,13,,76,100
151080,note_on,0,0,0,,,,,,,,,14,,54,100
151080,note_on,0,0,0,,,,,,,,,15,,54,100
151095,note_on,15,0,0,,,,,,,,,13,,76,0
151095,note_on,0,0,0,,,,,,,,,5,,76,0
151095,note_on,0,0,0,,,,,,,,,3,,76,0
151095,note_on,0,0,0,,,,,,,,,0,,76,0
151095,note_on,0,0,0,,,,,,,,,0,,74,100
151095,note_on,0,0,0,,,,,,,,,3,,74,100
151095,note_on,0,0,0,,,,,,,,,5,,74,100
151095,note_on,0,0,0,,,,,,,,,13,,74,100
151110,note_on,15,0,0,,,,,,,,,13,,74,0
151110,note_on,0,0,0,,,,,,,,,3,,74,0
151110,note_on,0,0,0,,,,,,,,,0,,74,0
151110,note_on,0,0,0,,,,,,,,,5,,74,0
151110,note_on,0,0,0,,,,,,,,,0,,76,100
151110,note_on,0,0,0,,,,,,,,,3,,76,100
151110,note_on,0,0,0,,,,,,,,,5,,76,100
151110,note_on,0,0,0,,,,,,,,,13,,76,100
151125,note_on,15,0,0,,,,,,,,,13,,76,0
151125,note_on,0,0,0,,,,,,,,,3,,76,0
151125,note_on,0,0,0,,,,,,,,,0,,76,0
151125,note_on,0,0,0,,,,,,,,,5,,76,0
151125,note_on,0,0,0,,,,,,,,,0,,74,100
151125,note_on,0,0,0,,,,,,,,,3,,74,100
151125,note_on,0,0,0,,,,,,,,,5,,74,100
151125,note_on,0,0,0,,,,,,,,,13,,74,100
151140,note_on,15,0,0,,,,,,,,,13,,74,0
151140,note_on,0,0,0,,,,,,,,,3,,74,0
151140,note_on,0,0,0,,,,,,,,,0,,74,0
151140,note_on,0,0,0,,,,,,,,,5,,74,0
151140,note_on,0,0,0,,,,,,,,,0,,76,100
151140,note_on,0,0,0,,,,,,,,,3,,76,100
151140,note_on,0,0,0,,,,,,,,,5,,76,100
151140,note_on,0,0,0,,,,,,,,,13,,76,100
151155,note_on,15,0,0,,,,,,,,,13,,76,0
151155,note_on,0,0,0,,,,,,,,,3,,54,0
151155,note_on,0,0,0,,,,,,,,,8,,54,0
151155,note_on,0,0,0,,,,,,,,,14,,54,0
151155,note_on,0,0,0,,,,,,,,,0,,54,0
151155,note_on,0,0,0,,,,,,,,,3,,76,0
151155,note_on,0,0,0,,,,,,,,,10,,42,0
151155,note_on,0,0,0,,,,,,,,,15,,54,0
151155,note_on,0,0,0,,,,,,,,,0,,76,0
151155,note_on,0,0,0,,,,,,,,,5,,76,0
151155,note_on,0,0,0,,,,,,,,,0,,74,100
151155,note_on,0,0,0,,,,,,,,,3,,74,100
151155,note_on,0,0,0,,,,,,,,,5,,74,100
151155,note_on,0,0,0,,,,,,,,,13,,74,100
151170,note_on,15,0,0,,,,,,,,,13,,74,0
151170,note_on,0,0,0,,,,,,,,,6,,57,0
151170,note_on,0,0,0,,,,,,,,,0,,74,0
151170,note_on,0,0,0,,,,,,,,,7,,57,0
151170,note_on,0,0,0,,,,,,,,,5,,74,0
151170,note_on,0,0,0,,,,,,,,,3,,74,0
151170,note_on,0,0,0,,,,,,,,,0,,76,100
151170,note_on,0,0,0,,,,,,,,,3,,76,100
151170,note_on,0,0,0,,,,,,,,,5,,76,100
151170,note_on,0,0,0,,,,,,,,,13,,76,100
151185,note_on,15,0,0,,,,,,,,,13,,76,0
151185,note_on,0,0,0,,,,,,,,,0,,76,0
151185,note_on,0,0,0,,,,,,,,,3,,76,0
151185,note_on,0,0,0,,,,,,,,,5,,76,0
151185,note_on,0,0,0,,,,,,,,,0,,74,100
151185,note_on,0,0,0,,,,,,,,,3,,74,100
151185,note_on,0,0,0,,,,,,,,,5,,74,100
151185,note_on,0,0,0,,,,,,,,,13,,74,100
151200,note_on,15,0,0,,,,,,,,,13,,74,0
151200,note_on,0,0,0,,,,,,,,,0,,74,0
151200,note_on,0,0,0,,,,,,,,,3,,74,0
151200,note_on,0,0,0,,,,,,,,,5,,74,0
151200,note_on,0,0,0,,,,,,,,,0,,56,100
151200,note_on,0,0,0,,,,,,,,,0,,76,100
151200,note_on,0,0,0,,,,,,,,,3,,56,100
151200,note_on,0,0,0,,,,,,,,,3,,76,100
151200,note_on,0,0,0,,,,,,,,,5,,76,100
151200,note_on,0,0,0,,,,,,,,,6,,64,100
151200,note_on,0,0,0,,,,,,,,,7,,64,100
151200,note_on,0,0,0,,,,,,,,,8,,56,100
151200,note_on,0,0,0,,,,,,,,,10,,44,100
151200,note_on,0,0,0,,,,,,,,,13,,76,100
151200,note_on,0,0,0,,,,,,,,,14,,56,100
151200,note_on,0,0,0,,,,,,,,,15,,56,100
151215,note_on,15,0,0,,,,,,,,,13,,76,0
151215,note_on,0,0,0,,,,,,,,,5,,76,0
151215,note_on,0,0,0,,,,,,,,,3,,76,0
151215,note_on,0,0,0,,,,,,,,,0,,76,0
151215,note_on,0,0,0,,,,,,,,,0,,74,100
151215,note_on,0,0,0,,,,,,,,,3,,74,100
151215,note_on,0,0,0,,,,,,,,,5,,74,100
151215,note_on,0,0,0,,,,,,,,,13,,74,100
151230,note_on,15,0,0,,,,,,,,,13,,74,0
151230,note_on,0,0,0,,,,,,,,,3,,74,0
151230,note_on,0,0,0,,,,,,,,,0,,74,0
151230,note_on,0,0,0,,,,,,,,,5,,74,0
151260,note_on,30,0,0,,,,,,,,,0,,73,100
151260,note_on,0,0,0,,,,,,,,,3,,73,100
151260,note_on,0,0,0,,,,,,,,,5,,73,100
151260,note_on,0,0,0,,,,,,,,,13,,73,100
151275,note_on,15,0,0,,,,,,,,,0,,56,0
151275,note_on,0,0,0,,,,,,,,,8,,56,0
151275,note_on,0,0,0,,,,,,,,,10,,44,0
151275,note_on,0,0,0,,,,,,,,,3,,56,0
151275,note_on,0,0,0,,,,,,,,,14,,56,0
151275,note_on,0,0,0,,,,,,,,,15,,56,0
151290,note_on,15,0,0,,,,,,,,,7,,64,0
151290,note_on,0,0,0,,,,,,,,,0,,73,0
151290,note_on,0,0,0,,,,,,,,,5,,73,0
151290,note_on,0,0,0,,,,,,,,,13,,73,0
151290,note_on,0,0,0,,,,,,,,,6,,64,0
151290,note_on,0,0,0,,,,,,,,,3,,73,0
151290,note_on,0,0,0,,,,,,,,,0,,71,100
151290,note_on,0,0,0,,,,,,,,,3,,71,100
151290,note_on,0,0,0,,,,,,,,,5,,71,100
151290,note_on,0,0,0,,,,,,,,,13,,71,100
151320,note_on,30,0,0,,,,,,,,,13,,71,0
151320,note_on,0,0,0,,,,,,,,,0,,71,0
151320,note_on,0,0,0,,,,,,,,,3,,71,0
151320,note_on,0,0,0,,,,,,,,,5,,71,0
151320,note_on,0,0,0,,,,,,,,,0,,57,100
151320,note_on,0,0,0,,,,,,,,,0,,73,100
151320,note_on,0,0,0,,,,,,,,,3,,57,100
151320,note_on,0,0,0,,,,,,,,,3,,73,100
151320,note_on,0,0,0,,,,,,,,,5,,73,100
151320,note_on,0,0,0,,,,,,,,,6,,69,100
151320,note_on,0,0,0,,,,,,,,,7,,69,100
151320,note_on,0,0,0,,,,,,,,,8,,57,100
151320,note_on,0,0,0,,,,,,,,,10,,45,100
151320,note_on,0,0,0,,,,,,,,,13,,73,100
151320,note_on,0,0,0,,,,,,,,,14,,57,100
151320,note_on,0,0,0,,,,,,,,,15,,57,100
151350,note_on,30,0,0,,,,,,,,,13,,73,0
151350,note_on,0,0,0,,,,,,,,,5,,73,0
151350,note_on,0,0,0,,,,,,,,,3,,73,0
151350,note_on,0,0,0,,,,,,,,,0,,73,0
151380,note_on,30,0,0,,,,,,,,,0,,81,100
151380,note_on,0,0,0,,,,,,,,,3,,81,100
151380,note_on,0,0,0,,,,,,,,,5,,81,100
151380,note_on,0,0,0,,,,,,,,,13,,81,100
151395,note_on,15,0,0,,,,,,,,,8,,57,0
151395,note_on,0,0,0,,,,,,,,,10,,45,0
151395,note_on,0,0,0,,,,,,,,,0,,57,0
151395,note_on,0,0,0,,,,,,,,,14,,57,0
151395,note_on,0,0,0,,,,,,,,,15,,57,0
151395,note_on,0,0,0,,,,,,,,,3,,57,0
151410,note_on,15,0,0,,,,,,,,,7,,69,0
151410,note_on,0,0,0,,,,,,,,,0,,81,0
151410,note_on,0,0,0,,,,,,,,,5,,81,0
151410,note_on,0,0,0,,,,,,,,,13,,81,0
151410,note_on,0,0,0,,,,,,,,,6,,69,0
151410,note_on,0,0,0,,,,,,,,,3,,81,0
151440,note_on,30,0,0,,,,,,,,,0,,49,100
151440,note_on,0,0,0,,,,,,,,,3,,49,100
151440,note_on,0,0,0,,,,,,,,,6,,57,100
151440,note_on,0,0,0,,,,,,,,,7,,57,100
151440,note_on,0,0,0,,,,,,,,,8,,49,100
151440,note_on,0,0,0,,,,,,,,,10,,37,100
151440,note_on,0,0,0,,,,,,,,,14,,49,100
151440,note_on,0,0,0,,,,,,,,,15,,49,100
151500,note_on,60,0,0,,,,,,,,,0,,64,100
151500,note_on,0,0,0,,,,,,,,,3,,64,100
151500,note_on,0,0,0,,,,,,,,,5,,64,100
151500,note_on,0,0,0,,,,,,,,,13,,64,100
151515,note_on,15,0,0,,,,,,,,,15,,49,0
151515,note_on,0,0,0,,,,,,,,,14,,49,0
151515,note_on,0,0,0,,,,,,,,,3,,49,0
151515,note_on,0,0,0,,,,,,,,,0,,49,0
151515,note_on,0,0,0,,,,,,,,,10,,37,0
151515,note_on,0,0,0,,,,,,,,,8,,49,0
151530,note_on,15,0,0,,,,,,,,,0,,64,0
151530,note_on,0,0,0,,,,,,,,,13,,64,0
151530,note_on,0,0,0,,,,,,,,,5,,64,0
151530,note_on,0,0,0,,,,,,,,,6,,57,0
151530,note_on,0,0,0,,,,,,,,,7,,57,0
151530,note_on,0,0,0,,,,,,,,,3,,64,0
151560,note_on,30,0,0,,,,,,,,,0,,50,100
151560,note_on,0,0,0,,,,,,,,,0,,66,100
151560,note_on,0,0,0,,,,,,,,,3,,50,100
151560,note_on,0,0,0,,,,,,,,,3,,66,100
151560,note_on,0,0,0,,,,,,,,,5,,66,100
151560,note_on,0,0,0,,,,,,,,,6,,66,100
151560,note_on,0,0,0,,,,,,,,,7,,66,100
151560,note_on,0,0,0,,,,,,,,,8,,50,100
151560,note_on,0,0,0,,,,,,,,,10,,38,100
151560,note_on,0,0,0,,,,,,,,,13,,66,100
151560,note_on,0,0,0,,,,,,,,,14,,50,100
151560,note_on,0,0,0,,,,,,,,,15,,50,100
151590,note_on,30,0,0,,,,,,,,,13,,66,0
151590,note_on,0,0,0,,,,,,,,,5,,66,0
151590,note_on,0,0,0,,,,,,,,,3,,66,0
151590,note_on,0,0,0,,,,,,,,,0,,66,0
151620,note_on,30,0,0,,,,,,,,,0,,74,100
151620,note_on,0,0,0,,,,,,,,,3,,74,100
151620,note_on,0,0,0,,,,,,,,,5,,74,100
151620,note_on,0,0,0,,,,,,,,,13,,74,100
151635,note_on,15,0,0,,,,,,,,,8,,50,0
151635,note_on,0,0,0,,,,,,,,,10,,38,0
151635,note_on,0,0,0,,,,,,,,,0,,50,0
151635,note_on,0,0,0,,,,,,,,,14,,50,0
151635,note_on,0,0,0,,,,,,,,,15,,50,0
151635,note_on,0,0,0,,,,,,,,,3,,50,0
151650,note_on,15,0,0,,,,,,,,,7,,66,0
151650,note_on,0,0,0,,,,,,,,,0,,74,0
151650,note_on,0,0,0,,,,,,,,,5,,74,0
151650,note_on,0,0,0,,,,,,,,,13,,74,0
151650,note_on,0,0,0,,,,,,,,,6,,66,0
151650,note_on,0,0,0,,,,,,,,,3,,74,0
151680,note_on,30,0,0,,,,,,,,,0,,47,100
151680,note_on,0,0,0,,,,,,,,,3,,47,100
151680,note_on,0,0,0,,,,,,,,,6,,62,100
151680,note_on,0,0,0,,,,,,,,,7,,62,100
151680,note_on,0,0,0,,,,,,,,,8,,47,100
151680,note_on,0,0,0,,,,,,,,,10,,35,100
151680,note_on,0,0,0,,,,,,,,,14,,47,100
151680,note_on,0,0,0,,,,,,,,,15,,47,100
151740,note_on,60,0,0,,,,,,,,,0,,66,100
151740,note_on,0,0,0,,,,,,,,,3,,66,100
151740,note_on,0,0,0,,,,,,,,,5,,66,100
151740,note_on,0,0,0,,,,,,,,,13,,66,100
151755,note_on,15,0,0,,,,,,,,,15,,47,0
151755,note_on,0,0,0,,,,,,,,,14,,47,0
151755,note_on,0,0,0,,,,,,,,,3,,47,0
151755,note_on,0,0,0,,,,,,,,,0,,47,0
151755,note_on,0,0,0,,,,,,,,,10,,35,0
151755,note_on,0,0,0,,,,,,,,,8,,47,0
151770,note_on,15,0,0,,,,,,,,,0,,66,0
151770,note_on,0,0,0,,,,,,,,,13,,66,0
151770,note_on,0,0,0,,,,,,,,,5,,66,0
151770,note_on,0,0,0,,,,,,,,,6,,62,0
151770,note_on,0,0,0,,,,,,,,,7,,62,0
151770,note_on,0,0,0,,,,,,,,,3,,66,0
151800,note_on,30,0,0,,,,,,,,,0,,52,100
151800,note_on,0,0,0,,,,,,,,,0,,68,100
151800,note_on,0,0,0,,,,,,,,,3,,52,100
151800,note_on,0,0,0,,,,,,,,,3,,68,100
151800,note_on,0,0,0,,,,,,,,,5,,68,100
151800,note_on,0,0,0,,,,,,,,,6,,59,100
151800,note_on,0,0,0,,,,,,,,,7,,59,100
151800,note_on,0,0,0,,,,,,,,,8,,52,100
151800,note_on,0,0,0,,,,,,,,,10,,40,100
151800,note_on,0,0,0,,,,,,,,,13,,68,100
151800,note_on,0,0,0,,,,,,,,,14,,52,100
151800,note_on,0,0,0,,,,,,,,,15,,52,100
151830,note_on,30,0,0,,,,,,,,,13,,68,0
151830,note_on,0,0,0,,,,,,,,,5,,68,0
151830,note_on,0,0,0,,,,,,,,,3,,68,0
151830,note_on,0,0,0,,,,,,,,,0,,68,0
151860,note_on,30,0,0,,,,,,,,,0,,71,100
151860,note_on,0,0,0,,,,,,,,,3,,71,100
151860,note_on,0,0,0,,,,,,,,,5,,71,100
151860,note_on,0,0,0,,,,,,,,,13,,71,100
151875,note_on,15,0,0,,,,,,,,,8,,52,0
151875,note_on,0,0,0,,,,,,,,,10,,40,0
151875,note_on,0,0,0,,,,,,,,,0,,52,0
151875,note_on,0,0,0,,,,,,,,,14,,52,0
151875,note_on,0,0,0,,,,,,,,,15,,52,0
151875,note_on,0,0,0,,,,,,,,,3,,52,0
151890,note_on,15,0,0,,,,,,,,,7,,59,0
151890,note_on,0,0,0,,,,,,,,,0,,71,0
151890,note_on,0,0,0,,,,,,,,,5,,71,0
151890,note_on,0,0,0,,,,,,,,,13,,71,0
151890,note_on,0,0,0,,,,,,,,,6,,59,0
151890,note_on,0,0,0,,,,,,,,,3,,71,0
151920,note_on,30,0,0,,,,,,,,,0,,56,100
151920,note_on,0,0,0,,,,,,,,,0,,64,100
151920,note_on,0,0,0,,,,,,,,,3,,56,100
151920,note_on,0,0,0,,,,,,,,,3,,64,100
151920,note_on,0,0,0,,,,,,,,,5,,64,100
151920,note_on,0,0,0,,,,,,,,,8,,56,100
151920,note_on,0,0,0,,,,,,,,,10,,44,100
151920,note_on,0,0,0,,,,,,,,,13,,64,100
151920,note_on,0,0,0,,,,,,,,,14,,56,100
151920,note_on,0,0,0,,,,,,,,,15,,56,100
151950,note_on,30,0,0,,,,,,,,,13,,64,0
151950,note_on,0,0,0,,,,,,,,,5,,64,0
151950,note_on,0,0,0,,,,,,,,,3,,64,0
151950,note_on,0,0,0,,,,,,,,,0,,64,0
151980,note_on,30,0,0,,,,,,,,,0,,74,100
151980,note_on,0,0,0,,,,,,,,,3,,74,100
151980,note_on,0,0,0,,,,,,,,,5,,74,100
151980,note_on,0,0,0,,,,,,,,,6,,71,100
151980,note_on,0,0,0,,,,,,,,,7,,71,100
151980,note_on,0,0,0,,,,,,,,,13,,74,100
151995,note_on,15,0,0,,,,,,,,,3,,74,0
151995,note_on,0,0,0,,,,,,,,,0,,74,0
151995,note_on,0,0,0,,,,,,,,,0,,56,0
151995,note_on,0,0,0,,,,,,,,,15,,56,0
151995,note_on,0,0,0,,,,,,,,,14,,56,0
151995,note_on,0,0,0,,,,,,,,,8,,56,0
151995,note_on,0,0,0,,,,,,,,,10,,44,0
151995,note_on,0,0,0,,,,,,,,,3,,56,0
152010,note_on,15,0,0,,,,,,,,,6,,71,0
152010,note_on,0,0,0,,,,,,,,,7,,71,0
152010,note_on,0,0,0,,,,,,,,,13,,74,0
152010,note_on,0,0,0,,,,,,,,,5,,74,0
152040,note_on,30,0,0,,,,,,,,,0,,57,100
152040,note_on,0,0,0,,,,,,,,,0,,73,100
152040,note_on,0,0,0,,,,,,,,,3,,57,100
152040,note_on,0,0,0,,,,,,,,,3,,73,100
152040,note_on,0,0,0,,,,,,,,,5,,73,100
152040,note_on,0,0,0,,,,,,,,,6,,64,100
152040,note_on,0,0,0,,,,,,,,,7,,64,100
152040,note_on,0,0,0,,,,,,,,,8,,57,100
152040,note_on,0,0,0,,,,,,,,,10,,45,100
152040,note_on,0,0,0,,,,,,,,,13,,73,100
152040,note_on,0,0,0,,,,,,,,,14,,57,100
152040,note_on,0,0,0,,,,,,,,,15,,57,100
152055,note_on,15,0,0,,,,,,,,,15,,57,0
152055,note_on,0,0,0,,,,,,,,,13,,73,0
152055,note_on,0,0,0,,,,,,,,,8,,57,0
152055,note_on,0,0,0,,,,,,,,,3,,57,0
152055,note_on,0,0,0,,,,,,,,,3,,73,0
152055,note_on,0,0,0,,,,,,,,,5,,73,0
152055,note_on,0,0,0,,,,,,,,,0,,57,0
152055,note_on,0,0,0,,,,,,,,,0,,73,0
152055,note_on,0,0,0,,,,,,,,,10,,45,0
152055,note_on,0,0,0,,,,,,,,,14,,57,0
152070,note_on,15,0,0,,,,,,,,,6,,64,0
152070,note_on,0,0,0,,,,,,,,,7,,64,0
152100,note_on,30,0,0,,,,,,,,,0,,50,100
152100,note_on,0,0,0,,,,,,,,,0,,71,100
152100,note_on,0,0,0,,,,,,,,,3,,50,100
152100,note_on,0,0,0,,,,,,,,,3,,71,100
152100,note_on,0,0,0,,,,,,,,,5,,69,100
152100,note_on,0,0,0,,,,,,,,,6,,62,100
152100,note_on,0,0,0,,,,,,,,,7,,62,100
152100,note_on,0,0,0,,,,,,,,,8,,50,100
152100,note_on,0,0,0,,,,,,,,,10,,38,100
152100,note_on,0,0,0,,,,,,,,,13,,69,100
152100,note_on,0,0,0,,,,,,,,,14,,50,100
152100,note_on,0,0,0,,,,,,,,,15,,50,100
152115,note_on,15,0,0,,,,,,,,,15,,50,0
152115,note_on,0,0,0,,,,,,,,,13,,69,0
152115,note_on,0,0,0,,,,,,,,,8,,50,0
152115,note_on,0,0,0,,,,,,,,,3,,50,0
152115,note_on,0,0,0,,,,,,,,,3,,71,0
152115,note_on,0,0,0,,,,,,,,,5,,69,0
152115,note_on,0,0,0,,,,,,,,,0,,50,0
152115,note_on,0,0,0,,,,,,,,,0,,71,0
152115,note_on,0,0,0,,,,,,,,,10,,38,0
152115,note_on,0,0,0,,,,,,,,,14,,50,0
152130,note_on,15,0,0,,,,,,,,,6,,62,0
152130,note_on,0,0,0,,,,,,,,,7,,62,0
152160,note_on,30,0,0,,,,,,,,,0,,52,100
152160,note_on,0,0,0,,,,,,,,,0,,69,100
152160,note_on,0,0,0,,,,,,,,,3,,52,100
152160,note_on,0,0,0,,,,,,,,,3,,69,100
152160,note_on,0,0,0,,,,,,,,,5,,64,100
152160,note_on,0,0,0,,,,,,,,,6,,61,100
152160,note_on,0,0,0,,,,,,,,,7,,61,100
152160,note_on,0,0,0,,,,,,,,,8,,52,100
152160,note_on,0,0,0,,,,,,,,,10,,40,100
152160,note_on,0,0,0,,,,,,,,,13,,64,100
152160,note_on,0,0,0,,,,,,,,,14,,52,100
152160,note_on,0,0,0,,,,,,,,,15,,52,100
152175,note_on,15,0,0,,,,,,,,,15,,52,0
152175,note_on,0,0,0,,,,,,,,,13,,64,0
152175,note_on,0,0,0,,,,,,,,,8,,52,0
152175,note_on,0,0,0,,,,,,,,,3,,52,0
152175,note_on,0,0,0,,,,,,,,,3,,69,0
152175,note_on,0,0,0,,,,,,,,,5,,64,0
152175,note_on,0,0,0,,,,,,,,,0,,52,0
152175,note_on,0,0,0,,,,,,,,,0,,69,0
152175,note_on,0,0,0,,,,,,,,,10,,40,0
152175,note_on,0,0,0,,,,,,,,,14,,52,0
152190,note_on,15,0,0,,,,,,,,,6,,61,0
152190,note_on,0,0,0,,,,,,,,,7,,61,0
152220,note_on,30,0,0,,,,,,,,,0,,40,100
152220,note_on,0,0,0,,,,,,,,,0,,68,100
152220,note_on,0,0,0,,,,,,,,,3,,40,100
152220,note_on,0,0,0,,,,,,,,,3,,68,100
152220,note_on,0,0,0,,,,,,,,,5,,68,100
152220,note_on,0,0,0,,,,,,,,,6,,59,100
152220,note_on,0,0,0,,,,,,,,,7,,59,100
152220,note_on,0,0,0,,,,,,,,,8,,40,100
152220,note_on,0,0,0,,,,,,,,,10,,28,100
152220,note_on,0,0,0,,,,,,,,,13,,68,100
152220,note_on,0,0,0,,,,,,,,,14,,40,100
152220,note_on,0,0,0,,,,,,,,,15,,40,100
152235,note_on,15,0,0,,,,,,,,,13,,68,0
152235,note_on,0,0,0,,,,,,,,,5,,68,0
152235,note_on,0,0,0,,,,,,,,,3,,68,0
152235,note_on,0,0,0,,,,,,,,,0,,68,0
152250,note_on,15,0,0,,,,,,,,,8,,40,0
152250,note_on,0,0,0,,,,,,,,,0,,40,0
152250,note_on,0,0,0,,,,,,,,,6,,59,0
152250,note_on,0,0,0,,,,,,,,,7,,59,0
152250,note_on,0,0,0,,,,,,,,,14,,40,0
152250,note_on,0,0,0,,,,,,,,,10,,28,0
152250,note_on,0,0,0,,,,,,,,,15,,40,0
152250,note_on,0,0,0,,,,,,,,,3,,40,0
152279,control_change,29,0,0,,,,,,,11,127,14,,,
152280,note_on,1,0,0,,,,,,,,,0,,45,100
152280,note_on,0,0,0,,,,,,,,,0,,69,100
152280,note_on,0,0,0,,,,,,,,,3,,45,100
152280,note_on,0,0,0,,,,,,,,,3,,69,100
152280,note_on,0,0,0,,,,,,,,,5,,69,100
152280,note_on,0,0,0,,,,,,,,,6,,61,100
152280,control_change,0,0,0,,,,,,,11,126,7,,,
152280,note_on,0,0,0,,,,,,,,,7,,61,100
152280,note_on,0,0,0,,,,,,,,,8,,45,100
152280,note_on,0,0,0,,,,,,,,,10,,33,100
152280,note_on,0,0,0,,,,,,,,,13,,69,100
152280,note_on,0,0,0,,,,,,,,,14,,45,100
152280,note_on,0,0,0,,,,,,,,,15,,45,100
152281,control_change,1,0,0,,,,,,,11,126,6,,,
152281,control_change,0,0,0,,,,,,,11,127,8,,,
152282,control_change,1,0,0,,,,,,,11,127,10,,,
152283,control_change,1,0,0,,,,,,,11,126,14,,,
152284,control_change,1,0,0,,,,,,,11,125,7,,,
152285,control_change,1,0,0,,,,,,,11,125,6,,,
152285,control_change,0,0,0,,,,,,,11,126,8,,,
152286,control_change,1,0,0,,,,,,,11,126,10,,,
152287,control_change,1,0,0,,,,,,,11,125,14,,,
152288,control_change,1,0,0,,,,,,,11,124,7,,,
152289,control_change,1,0,0,,,,,,,11,124,6,,,
152289,control_change,0,0,0,,,,,,,11,125,8,,,
152290,control_change,1,0,0,,,,,,,11,125,10,,,
152291,control_change,1,0,0,,,,,,,11,124,14,,,
152292,control_change,1,0,0,,,,,,,11,123,7,,,
152293,control_change,1,0,0,,,,,,,11,123,6,,,
152293,control_change,0,0,0,,,,,,,11,124,8,,,
152294,control_change,1,0,0,,,,,,,11,124,10,,,
152295,control_change,1,0,0,,,,,,,11,123,14,,,
152296,control_change,1,0,0,,,,,,,11,122,7,,,
152297,control_change,1,0,0,,,,,,,11,122,6,,,
152297,control_change,0,0,0,,,,,,,11,123,8,,,
152298,control_change,1,0,0,,,,,,,11,123,10,,,
152299,control_change,1,0,0,,,,,,,11,122,14,,,
152300,control_change,1,0,0,,,,,,,11,121,7,,,
152301,control_change,1,0,0,,,,,,,11,121,6,,,
152301,control_change,0,0,0,,,,,,,11,122,8,,,
152302,control_change,1,0,0,,,,,,,11,122,10,,,
152303,control_change,1,0,0,,,,,,,11,121,14,,,
152304,control_change,1,0,0,,,,,,,11,120,7,,,
152305,control_change,1,0,0,,,,,,,11,120,6,,,
152305,control_change,0,0,0,,,,,,,11,121,8,,,
152306,control_change,1,0,0,,,,,,,11,121,10,,,
152307,control_change,1,0,0,,,,,,,11,120,14,,,
152308,control_change,1,0,0,,,,,,,11,119,7,,,
152309,control_change,1,0,0,,,,,,,11,119,6,,,
152309,control_change,0,0,0,,,,,,,11,120,8,,,
152310,note_on,1,0,0,,,,,,,,,7,,61,0
152310,note_on,0,0,0,,,,,,,,,6,,61,0
152310,control_change,0,0,0,,,,,,,11,120,10,,,
152311,control_change,1,0,0,,,,,,,11,119,8,,,
152311,control_change,0,0,0,,,,,,,11,119,14,,,
152312,control_change,1,0,0,,,,,,,11,118,7,,,
152313,control_change,1,0,0,,,,,,,11,118,6,,,
152314,control_change,1,0,0,,,,,,,11,119,10,,,
152315,control_change,1,0,0,,,,,,,11,118,8,,,
152315,control_change,0,0,0,,,,,,,11,118,14,,,
152316,control_change,1,0,0,,,,,,,11,117,7,,,
152316,control_change,0,0,0,,,,,,,11,118,10,,,
152317,control_change,1,0,0,,,,,,,11,117,6,,,
152319,control_change,2,0,0,,,,,,,11,117,8,,,
152319,control_change,0,0,0,,,,,,,11,117,14,,,
152320,control_change,1,0,0,,,,,,,11,116,7,,,
152320,control_change,0,0,0,,,,,,,11,117,10,,,
152321,control_change,1,0,0,,,,,,,11,116,6,,,
152321,control_change,0,0,0,,,,,,,11,116,14,,,
152322,control_change,1,0,0,,,,,,,11,115,7,,,
152323,control_change,1,0,0,,,,,,,11,116,8,,,
152324,control_change,1,0,0,,,,,,,11,116,10,,,
152325,control_change,1,0,0,,,,,,,11,115,6,,,
152325,control_change,0,0,0,,,,,,,11,115,14,,,
152326,control_change,1,0,0,,,,,,,11,114,7,,,
152327,control_change,1,0,0,,,,,,,11,115,8,,,
152328,control_change,1,0,0,,,,,,,11,115,10,,,
152329,control_change,1,0,0,,,,,,,11,114,6,,,
152329,control_change,0,0,0,,,,,,,11,114,14,,,
152330,control_change,1,0,0,,,,,,,11,113,7,,,
152331,control_change,1,0,0,,,,,,,11,114,8,,,
152332,control_change,1,0,0,,,,,,,11,114,10,,,
152333,control_change,1,0,0,,,,,,,11,113,6,,,
152333,control_change,0,0,0,,,,,,,11,113,14,,,
152334,control_change,1,0,0,,,,,,,11,112,7,,,
152335,control_change,1,0,0,,,,,,,11,113,8,,,
152336,control_change,1,0,0,,,,,,,11,113,10,,,
152337,control_change,1,0,0,,,,,,,11,112,6,,,
152337,control_change,0,0,0,,,,,,,11,112,14,,,
152338,control_change,1,0,0,,,,,,,11,111,7,,,
152339,control_change,1,0,0,,,,,,,11,112,8,,,
152340,note_on,1,0,0,,,,,,,,,6,,59,100
152340,note_on,0,0,0,,,,,,,,,7,,59,100
152340,control_change,0,0,0,,,,,,,11,112,10,,,
152341,control_change,1,0,0,,,,,,,11,111,6,,,
152341,control_change,0,0,0,,,,,,,11,111,8,,,
152341,control_change,0,0,0,,,,,,,11,111,14,,,
152342,control_change,1,0,0,,,,,,,11,110,7,,,
152344,control_change,2,0,0,,,,,,,11,111,10,,,
152345,control_change,1,0,0,,,,,,,11,110,6,,,
152345,control_change,0,0,0,,,,,,,11,110,8,,,
152345,control_change,0,0,0,,,,,,,11,110,14,,,
152346,control_change,1,0,0,,,,,,,11,109,7,,,
152348,control_change,2,0,0,,,,,,,11,110,10,,,
152349,control_change,1,0,0,,,,,,,11,109,6,,,
152349,control_change,0,0,0,,,,,,,11,109,8,,,
152349,control_change,0,0,0,,,,,,,11,109,14,,,
152350,control_change,1,0,0,,,,,,,11,108,7,,,
152350,control_change,0,0,0,,,,,,,11,109,10,,,
152353,control_change,3,0,0,,,,,,,11,108,6,,,
152353,control_change,0,0,0,,,,,,,11,108,8,,,
152353,control_change,0,0,0,,,,,,,11,108,14,,,
152354,control_change,1,0,0,,,,,,,11,107,7,,,
152354,control_change,0,0,0,,,,,,,11,108,10,,,
152357,control_change,3,0,0,,,,,,,11,107,6,,,
152357,control_change,0,0,0,,,,,,,11,107,8,,,
152357,control_change,0,0,0,,,,,,,11,107,14,,,
152358,control_change,1,0,0,,,,,,,11,106,7,,,
152358,control_change,0,0,0,,,,,,,11,107,10,,,
152359,control_change,1,0,0,,,,,,,11,106,14,,,
152360,control_change,1,0,0,,,,,,,11,105,7,,,
152361,control_change,1,0,0,,,,,,,11,106,6,,,
152361,control_change,0,0,0,,,,,,,11,106,8,,,
152362,control_change,1,0,0,,,,,,,11,106,10,,,
152363,control_change,1,0,0,,,,,,,11,105,6,,,
152363,control_change,0,0,0,,,,,,,11,105,14,,,
152364,control_change,1,0,0,,,,,,,11,104,7,,,
152365,control_change,1,0,0,,,,,,,11,105,8,,,
152366,control_change,1,0,0,,,,,,,11,105,10,,,
152367,control_change,1,0,0,,,,,,,11,104,6,,,
152367,control_change,0,0,0,,,,,,,11,104,14,,,
152368,control_change,1,0,0,,,,,,,11,103,7,,,
152369,control_change,1,0,0,,,,,,,11,104,8,,,
152370,note_on,1,0,0,,,,,,,,,7,,59,0
152370,note_on,0,0,0,,,,,,,,,13,,69,0
152370,note_on,0,0,0,,,,,,,,,3,,69,0
152370,note_on,0,0,0,,,,,,,,,0,,45,0
152370,note_on,0,0,0,,,,,,,,,3,,45,0
152370,note_on,0,0,0,,,,,,,,,6,,59,0
152370,note_on,0,0,0,,,,,,,,,5,,69,0
152370,note_on,0,0,0,,,,,,,,,0,,69,0
152370,control_change,0,0,0,,,,,,,11,104,10,,,
152371,control_change,1,0,0,,,,,,,11,103,6,,,
152371,control_change,0,0,0,,,,,,,11,103,8,,,
152371,control_change,0,0,0,,,,,,,11,103,14,,,
152372,control_change,1,0,0,,,,,,,11,102,7,,,
152374,control_change,2,0,0,,,,,,,11,103,10,,,
152375,control_change,1,0,0,,,,,,,11,102,6,,,
152375,control_change,0,0,0,,,,,,,11,102,8,,,
152375,control_change,0,0,0,,,,,,,11,102,14,,,
152376,control_change,1,0,0,,,,,,,11,101,7,,,
152378,control_change,2,0,0,,,,,,,11,102,10,,,
152379,control_change,1,0,0,,,,,,,11,101,6,,,
152379,control_change,0,0,0,,,,,,,11,101,8,,,
152379,control_change,0,0,0,,,,,,,11,101,14,,,
152380,control_change,1,0,0,,,,,,,11,100,7,,,
152382,control_change,2,0,0,,,,,,,11,101,10,,,
152383,control_change,1,0,0,,,,,,,11,100,6,,,
152383,control_change,0,0,0,,,,,,,11,100,8,,,
152383,control_change,0,0,0,,,,,,,11,100,14,,,
152384,control_change,1,0,0,,,,,,,11,99,7,,,
152384,control_change,0,0,0,,,,,,,11,100,10,,,
152387,control_change,3,0,0,,,,,,,11,99,6,,,
152387,control_change,0,0,0,,,,,,,11,99,8,,,
152387,control_change,0,0,0,,,,,,,11,99,14,,,
152388,control_change,1,0,0,,,,,,,11,98,7,,,
152388,control_change,0,0,0,,,,,,,11,99,10,,,
152391,control_change,3,0,0,,,,,,,11,98,6,,,
152391,control_change,0,0,0,,,,,,,11,98,8,,,
152391,control_change,0,0,0,,,,,,,11,98,14,,,
152392,control_change,1,0,0,,,,,,,11,65,5,,,
152392,control_change,0,0,0,,,,,,,11,97,7,,,
152392,control_change,0,0,0,,,,,,,11,98,10,,,
152395,control_change,3,0,0,,,,,,,11,97,6,,,
152395,control_change,0,0,0,,,,,,,11,97,8,,,
152395,control_change,0,0,0,,,,,,,11,97,14,,,
152396,control_change,1,0,0,,,,,,,11,96,7,,,
152396,control_change,0,0,0,,,,,,,11,97,10,,,
152399,control_change,3,0,0,,,,,,,11,96,6,,,
152399,control_change,0,0,0,,,,,,,11,96,8,,,
152399,control_change,0,0,0,,,,,,,11,96,14,,,
152400,note_on,1,0,0,,,,,,,,,5,,64,100
152400,note_on,0,0,0,,,,,,,,,6,,57,100
152400,control_change,0,0,0,,,,,,,11,95,7,,,
152400,note_on,0,0,0,,,,,,,,,7,,57,100
152400,control_change,0,0,0,,,,,,,11,96,10,,,
152401,control_change,1,0,0,,,,,,,11,95,8,,,
152401,control_change,0,0,0,,,,,,,11,95,14,,,
152402,control_change,1,0,0,,,,,,,11,94,7,,,
152403,control_change,1,0,0,,,,,,,11,95,6,,,
152404,control_change,1,0,0,,,,,,,11,95,10,,,
152405,control_change,1,0,0,,,,,,,11,94,8,,,
152405,control_change,0,0,0,,,,,,,11,94,14,,,
152406,control_change,1,0,0,,,,,,,11,93,7,,,
152407,control_change,1,0,0,,,,,,,11,94,6,,,
152408,control_change,1,0,0,,,,,,,11,94,10,,,
152409,control_change,1,0,0,,,,,,,11,93,8,,,
152409,control_change,0,0,0,,,,,,,11,93,14,,,
152410,control_change,1,0,0,,,,,,,11,92,7,,,
152411,control_change,1,0,0,,,,,,,11,93,6,,,
152412,control_change,1,0,0,,,,,,,11,93,10,,,
152413,control_change,1,0,0,,,,,,,11,92,8,,,
152413,control_change,0,0,0,,,,,,,11,92,14,,,
152414,control_change,1,0,0,,,,,,,11,91,7,,,
152415,control_change,1,0,0,,,,,,,11,92,6,,,
152416,control_change,1,0,0,,,,,,,11,92,10,,,
152417,control_change,1,0,0,,,,,,,11,91,8,,,
152417,control_change,0,0,0,,,,,,,11,91,14,,,
152418,control_change,1,0,0,,,,,,,11,90,7,,,
152418,control_change,0,0,0,,,,,,,11,91,10,,,
152419,control_change,1,0,0,,,,,,,11,91,6,,,
152421,control_change,2,0,0,,,,,,,11,90,8,,,
152421,control_change,0,0,0,,,,,,,11,90,14,,,
152422,control_change,1,0,0,,,,,,,11,89,7,,,
152422,control_change,0,0,0,,,,,,,11,90,10,,,
152423,control_change,1,0,0,,,,,,,11,90,6,,,
152425,control_change,2,0,0,,,,,,,11,89,8,,,
152425,control_change,0,0,0,,,,,,,11,89,14,,,
152426,control_change,1,0,0,,,,,,,11,88,7,,,
152426,control_change,0,0,0,,,,,,,11,89,10,,,
152427,control_change,1,0,0,,,,,,,11,89,6,,,
152429,control_change,2,0,0,,,,,,,11,88,8,,,
152429,control_change,0,0,0,,,,,,,11,88,14,,,
152430,note_on,1,0,0,,,,,,,,,7,,57,0
152430,note_on,0,0,0,,,,,,,,,6,,57,0
152430,control_change,0,0,0,,,,,,,11,87,7,,,
152430,control_change,0,0,0,,,,,,,11,88,10,,,
152431,control_change,1,0,0,,,,,,,11,88,6,,,
152431,control_change,0,0,0,,,,,,,11,87,8,,,
152433,control_change,2,0,0,,,,,,,11,87,14,,,
152434,control_change,1,0,0,,,,,,,11,86,7,,,
152434,control_change,0,0,0,,,,,,,11,87,10,,,
152435,control_change,1,0,0,,,,,,,11,87,6,,,
152435,control_change,0,0,0,,,,,,,11,86,8,,,
152437,control_change,2,0,0,,,,,,,11,86,14,,,
152438,control_change,1,0,0,,,,,,,11,85,7,,,
152438,control_change,0,0,0,,,,,,,11,86,10,,,
152439,control_change,1,0,0,,,,,,,11,86,6,,,
152439,control_change,0,0,0,,,,,,,11,85,8,,,
152439,control_change,0,0,0,,,,,,,11,85,14,,,
152440,control_change,1,0,0,,,,,,,11,84,7,,,
152441,control_change,1,0,0,,,,,,,11,85,6,,,
152442,control_change,1,0,0,,,,,,,11,85,10,,,
152443,control_change,1,0,0,,,,,,,11,84,8,,,
152443,control_change,0,0,0,,,,,,,11,84,14,,,
152444,control_change,1,0,0,,,,,,,11,83,7,,,
152445,control_change,1,0,0,,,,,,,11,84,6,,,
152446,control_change,1,0,0,,,,,,,11,84,10,,,
152447,control_change,1,0,0,,,,,,,11,83,8,,,
152447,control_change,0,0,0,,,,,,,11,83,14,,,
152448,control_change,1,0,0,,,,,,,11,82,7,,,
152449,control_change,1,0,0,,,,,,,11,83,6,,,
152450,control_change,1,0,0,,,,,,,11,83,10,,,
152451,control_change,1,0,0,,,,,,,11,82,8,,,
152451,control_change,0,0,0,,,,,,,11,82,14,,,
152452,control_change,1,0,0,,,,,,,11,81,7,,,
152452,control_change,0,0,0,,,,,,,11,82,10,,,
152453,control_change,1,0,0,,,,,,,11,82,6,,,
152455,control_change,2,0,0,,,,,,,11,81,8,,,
152455,control_change,0,0,0,,,,,,,11,81,14,,,
152456,control_change,1,0,0,,,,,,,11,80,7,,,
152456,control_change,0,0,0,,,,,,,11,81,10,,,
152457,control_change,1,0,0,,,,,,,11,81,6,,,
152459,control_change,2,0,0,,,,,,,11,80,8,,,
152459,control_change,0,0,0,,,,,,,11,80,14,,,
152460,note_on,1,0,0,,,,,,,,,1,,74,100
152460,note_on,0,0,0,,,,,,,,,4,,74,100
152460,note_on,0,0,0,,,,,,,,,6,,56,100
152460,control_change,0,0,0,,,,,,,11,79,7,,,
152460,note_on,0,0,0,,,,,,,,,7,,56,100
152460,control_change,0,0,0,,,,,,,11,80,10,,,
152461,control_change,1,0,0,,,,,,,11,80,6,,,
152461,control_change,0,0,0,,,,,,,11,79,8,,,
152463,control_change,2,0,0,,,,,,,11,79,14,,,
152464,control_change,1,0,0,,,,,,,11,78,7,,,
152464,control_change,0,0,0,,,,,,,11,79,10,,,
152465,control_change,1,0,0,,,,,,,11,79,6,,,
152465,control_change,0,0,0,,,,,,,11,78,8,,,
152467,control_change,2,0,0,,,,,,,11,78,14,,,
152468,control_change,1,0,0,,,,,,,11,77,7,,,
152468,control_change,0,0,0,,,,,,,11,78,10,,,
152469,control_change,1,0,0,,,,,,,11,78,6,,,
152469,control_change,0,0,0,,,,,,,11,77,8,,,
152471,control_change,2,0,0,,,,,,,11,77,14,,,
152472,control_change,1,0,0,,,,,,,11,76,7,,,
152472,control_change,0,0,0,,,,,,,11,77,10,,,
152473,control_change,1,0,0,,,,,,,11,77,6,,,
152473,control_change,0,0,0,,,,,,,11,76,8,,,
152475,control_change,2,0,0,,,,,,,11,76,14,,,
152476,control_change,1,0,0,,,,,,,11,75,7,,,
152476,control_change,0,0,0,,,,,,,11,76,10,,,
152477,control_change,1,0,0,,,,,,,11,76,6,,,
152477,control_change,0,0,0,,,,,,,11,75,8,,,
152479,control_change,2,0,0,,,,,,,11,75,14,,,
152480,control_change,1,0,0,,,,,,,11,74,7,,,
152480,control_change,0,0,0,,,,,,,11,75,10,,,
152481,control_change,1,0,0,,,,,,,11,75,6,,,
152481,control_change,0,0,0,,,,,,,11,74,8,,,
152481,control_change,0,0,0,,,,,,,11,74,14,,,
152482,control_change,1,0,0,,,,,,,11,73,7,,,
152484,control_change,2,0,0,,,,,,,11,74,10,,,
152485,control_change,1,0,0,,,,,,,11,74,6,,,
152485,control_change,0,0,0,,,,,,,11,73,8,,,
152485,control_change,0,0,0,,,,,,,11,73,14,,,
152486,control_change,1,0,0,,,,,,,11,72,7,,,
152486,control_change,0,0,0,,,,,,,11,73,10,,,
152489,control_change,3,0,0,,,,,,,11,73,6,,,
152489,control_change,0,0,0,,,,,,,11,72,8,,,
152489,control_change,0,0,0,,,,,,,11,72,14,,,
152490,note_on,1,0,0,,,,,,,,,7,,56,0
152490,note_on,0,0,0,,,,,,,,,6,,56,0
152490,note_on,0,0,0,,,,,,,,,4,,74,0
152490,note_on,0,0,0,,,,,,,,,15,,45,0
152490,note_on,0,0,0,,,,,,,,,1,,74,0
152490,control_change,0,0,0,,,,,,,11,71,7,,,
152490,control_change,0,0,0,,,,,,,11,72,10,,,
152491,control_change,1,0,0,,,,,,,11,71,8,,,
152493,control_change,2,0,0,,,,,,,11,72,6,,,
152493,control_change,0,0,0,,,,,,,11,71,14,,,
152494,control_change,1,0,0,,,,,,,11,70,7,,,
152494,control_change,0,0,0,,,,,,,11,71,10,,,
152495,control_change,1,0,0,,,,,,,11,70,8,,,
152497,control_change,2,0,0,,,,,,,11,71,6,,,
152497,control_change,0,0,0,,,,,,,11,70,14,,,
152498,control_change,1,0,0,,,,,,,11,69,7,,,
152498,control_change,0,0,0,,,,,,,11,70,10,,,
152499,control_change,1,0,0,,,,,,,11,69,8,,,
152501,control_change,2,0,0,,,,,,,11,70,6,,,
152501,control_change,0,0,0,,,,,,,11,69,14,,,
152502,control_change,1,0,0,,,,,,,11,68,7,,,
152502,control_change,0,0,0,,,,,,,11,69,10,,,
152503,control_change,1,0,0,,,,,,,11,68,8,,,
152505,control_change,2,0,0,,,,,,,11,69,6,,,
152505,control_change,0,0,0,,,,,,,11,68,14,,,
152506,control_change,1,0,0,,,,,,,11,67,7,,,
152506,control_change,0,0,0,,,,,,,11,68,10,,,
152507,control_change,1,0,0,,,,,,,11,67,8,,,
152509,control_change,2,0,0,,,,,,,11,68,6,,,
152509,control_change,0,0,0,,,,,,,11,67,14,,,
152510,control_change,1,0,0,,,,,,,11,66,7,,,
152510,control_change,0,0,0,,,,,,,11,67,10,,,
152511,control_change,1,0,0,,,,,,,11,66,8,,,
152513,control_change,2,0,0,,,,,,,11,67,6,,,
152513,control_change,0,0,0,,,,,,,11,66,14,,,
152514,control_change,1,0,0,,,,,,,11,65,7,,,
152514,control_change,0,0,0,,,,,,,11,66,10,,,
152515,control_change,1,0,0,,,,,,,11,65,8,,,
152517,control_change,2,0,0,,,,,,,11,66,6,,,
152517,control_change,0,0,0,,,,,,,11,64,8,,,
152517,control_change,0,0,0,,,,,,,11,65,14,,,
152518,control_change,1,0,0,,,,,,,11,64,7,,,
152518,control_change,0,0,0,,,,,,,11,65,10,,,
152519,control_change,1,0,0,,,,,,,11,65,6,,,
152519,control_change,0,0,0,,,,,,,11,64,14,,,
152520,note_on,1,0,0,,,,,,,,,1,,57,100
152520,note_on,0,0,0,,,,,,,,,1,,73,100
152520,note_on,0,0,0,,,,,,,,,4,,57,100
152520,note_on,0,0,0,,,,,,,,,4,,73,100
152520,note_on,0,0,0,,,,,,,,,6,,57,100
152520,control_change,0,0,0,,,,,,,11,63,7,,,
152520,note_on,0,0,0,,,,,,,,,7,,57,100
152520,control_change,0,0,0,,,,,,,11,64,10,,,
152580,note_on,60,0,0,,,,,,,,,4,,73,0
152580,note_on,0,0,0,,,,,,,,,1,,73,0
152580,note_on,0,0,0,,,,,,,,,1,,69,100
152580,note_on,0,0,0,,,,,,,,,4,,69,100
152610,note_on,30,0,0,,,,,,,,,4,,69,0
152610,note_on,0,0,0,,,,,,,,,1,,69,0
152610,note_on,0,0,0,,,,,,,,,4,,57,0
152610,note_on,0,0,0,,,,,,,,,1,,57,0
152640,note_on,30,0,0,,,,,,,,,1,,71,100
152640,note_on,0,0,0,,,,,,,,,4,,71,100
152700,note_on,60,0,0,,,,,,,,,4,,71,0
152700,note_on,0,0,0,,,,,,,,,1,,71,0
152700,note_on,0,0,0,,,,,,,,,1,,62,100
152700,note_on,0,0,0,,,,,,,,,1,,68,100
152700,note_on,0,0,0,,,,,,,,,4,,62,100
152700,note_on,0,0,0,,,,,,,,,4,,68,100
152730,note_on,30,0,0,,,,,,,,,4,,68,0
152730,note_on,0,0,0,,,,,,,,,4,,62,0
152730,note_on,0,0,0,,,,,,,,,1,,62,0
152730,note_on,0,0,0,,,,,,,,,1,,68,0
152760,note_on,30,0,0,,,,,,,,,1,,61,100
152760,note_on,0,0,0,,,,,,,,,1,,69,100
152760,note_on,0,0,0,,,,,,,,,4,,61,100
152760,note_on,0,0,0,,,,,,,,,4,,69,100
152820,note_on,60,0,0,,,,,,,,,4,,61,0
152820,note_on,0,0,0,,,,,,,,,1,,61,0
152820,note_on,0,0,0,,,,,,,,,1,,57,100
152820,note_on,0,0,0,,,,,,,,,4,,57,100
152850,note_on,30,0,0,,,,,,,,,4,,57,0
152850,note_on,0,0,0,,,,,,,,,1,,57,0
152850,note_on,0,0,0,,,,,,,,,4,,69,0
152850,note_on,0,0,0,,,,,,,,,1,,69,0
152880,note_on,30,0,0,,,,,,,,,1,,59,100
152880,note_on,0,0,0,,,,,,,,,4,,59,100
152940,note_on,60,0,0,,,,,,,,,4,,59,0
152940,note_on,0,0,0,,,,,,,,,1,,59,0
152940,note_on,0,0,0,,,,,,,,,1,,71,100
152940,note_on,0,0,0,,,,,,,,,1,,56,100
152940,note_on,0,0,0,,,,,,,,,4,,71,100
152940,note_on,0,0,0,,,,,,,,,4,,56,100
152970,note_on,30,0,0,,,,,,,,,4,,56,0
152970,note_on,0,0,0,,,,,,,,,4,,71,0
152970,note_on,0,0,0,,,,,,,,,1,,71,0
152970,note_on,0,0,0,,,,,,,,,1,,56,0
153000,note_on,30,0,0,,,,,,,,,1,,57,100
153000,note_on,0,0,0,,,,,,,,,1,,73,100
153000,note_on,0,0,0,,,,,,,,,4,,57,100
153000,note_on,0,0,0,,,,,,,,,4,,73,100
153060,note_on,60,0,0,,,,,,,,,4,,73,0
153060,note_on,0,0,0,,,,,,,,,1,,73,0
153060,note_on,0,0,0,,,,,,,,,1,,69,100
153060,note_on,0,0,0,,,,,,,,,4,,69,100
153090,note_on,30,0,0,,,,,,,,,4,,69,0
153090,note_on,0,0,0,,,,,,,,,1,,69,0
153090,note_on,0,0,0,,,,,,,,,4,,57,0
153090,note_on,0,0,0,,,,,,,,,1,,57,0
153120,note_on,30,0,0,,,,,,,,,1,,71,100
153120,note_on,0,0,0,,,,,,,,,4,,71,100
153180,note_on,60,0,0,,,,,,,,,4,,71,0
153180,note_on,0,0,0,,,,,,,,,1,,71,0
153180,note_on,0,0,0,,,,,,,,,1,,62,100
153180,note_on,0,0,0,,,,,,,,,1,,68,100
153180,note_on,0,0,0,,,,,,,,,4,,62,100
153180,note_on,0,0,0,,,,,,,,,4,,68,100
153210,note_on,30,0,0,,,,,,,,,4,,68,0
153210,note_on,0,0,0,,,,,,,,,4,,62,0
153210,note_on,0,0,0,,,,,,,,,1,,62,0
153210,note_on,0,0,0,,,,,,,,,1,,68,0
153240,note_on,30,0,0,,,,,,,,,1,,61,100
153240,note_on,0,0,0,,,,,,,,,1,,69,100
153240,note_on,0,0,0,,,,,,,,,4,,61,100
153240,note_on,0,0,0,,,,,,,,,4,,69,100
153300,note_on,60,0,0,,,,,,,,,4,,61,0
153300,note_on,0,0,0,,,,,,,,,1,,61,0
153300,note_on,0,0,0,,,,,,,,,1,,57,100
153300,note_on,0,0,0,,,,,,,,,4,,57,100
153330,note_on,30,0,0,,,,,,,,,4,,57,0
153330,note_on,0,0,0,,,,,,,,,1,,57,0
153330,note_on,0,0,0,,,,,,,,,4,,69,0
153330,note_on,0,0,0,,,,,,,,,1,,69,0
153360,note_on,30,0,0,,,,,,,,,1,,59,100
153360,note_on,0,0,0,,,,,,,,,4,,59,100
153420,note_on,60,0,0,,,,,,,,,4,,59,0
153420,note_on,0,0,0,,,,,,,,,1,,59,0
153420,note_on,0,0,0,,,,,,,,,1,,71,100
153420,note_on,0,0,0,,,,,,,,,1,,56,100
153420,note_on,0,0,0,,,,,,,,,4,,71,100
153420,note_on,0,0,0,,,,,,,,,4,,56,100
153450,note_on,30,0,0,,,,,,,,,4,,56,0
153450,note_on,0,0,0,,,,,,,,,4,,71,0
153450,note_on,0,0,0,,,,,,,,,1,,71,0
153450,note_on,0,0,0,,,,,,,,,1,,56,0
153480,note_on,30,0,0,,,,,,,,,1,,73,100
153480,note_on,0,0,0,,,,,,,,,1,,57,100
153480,note_on,0,0,0,,,,,,,,,4,,73,100
153480,note_on,0,0,0,,,,,,,,,4,,57,100
153510,note_on,30,0,0,,,,,,,,,4,,73,0
153510,note_on,0,0,0,,,,,,,,,1,,73,0
153510,note_on,0,0,0,,,,,,,,,1,,71,100
153510,note_on,0,0,0,,,,,,,,,4,,71,100
153540,note_on,30,0,0,,,,,,,,,4,,71,0
153540,note_on,0,0,0,,,,,,,,,1,,71,0
153540,note_on,0,0,0,,,,,,,,,4,,57,0
153540,note_on,0,0,0,,,,,,,,,1,,57,0
153540,note_on,0,0,0,,,,,,,,,1,,69,100
153540,note_on,0,0,0,,,,,,,,,1,,61,100
153540,note_on,0,0,0,,,,,,,,,4,,69,100
153540,note_on,0,0,0,,,,,,,,,4,,61,100
153570,note_on,30,0,0,,,,,,,,,4,,61,0
153570,note_on,0,0,0,,,,,,,,,4,,69,0
153570,note_on,0,0,0,,,,,,,,,1,,69,0
153570,note_on,0,0,0,,,,,,,,,1,,61,0
153600,note_on,30,0,0,,,,,,,,,1,,74,100
153600,note_on,0,0,0,,,,,,,,,1,,59,100
153600,note_on,0,0,0,,,,,,,,,4,,74,100
153600,note_on,0,0,0,,,,,,,,,4,,59,100
153630,note_on,30,0,0,,,,,,,,,4,,74,0
153630,note_on,0,0,0,,,,,,,,,1,,74,0
153630,note_on,0,0,0,,,,,,,,,1,,73,100
153630,note_on,0,0,0,,,,,,,,,4,,73,100
153660,note_on,30,0,0,,,,,,,,,4,,73,0
153660,note_on,0,0,0,,,,,,,,,1,,73,0
153660,note_on,0,0,0,,,,,,,,,4,,59,0
153660,note_on,0,0,0,,,,,,,,,1,,59,0
153660,note_on,0,0,0,,,,,,,,,1,,71,100
153660,note_on,0,0,0,,,,,,,,,1,,62,100
153660,note_on,0,0,0,,,,,,,,,4,,71,100
153660,note_on,0,0,0,,,,,,,,,4,,62,100
153690,note_on,30,0,0,,,,,,,,,4,,62,0
153690,note_on,0,0,0,,,,,,,,,4,,71,0
153690,note_on,0,0,0,,,,,,,,,1,,71,0
153690,note_on,0,0,0,,,,,,,,,1,,62,0
153720,note_on,30,0,0,,,,,,,,,1,,76,100
153720,note_on,0,0,0,,,,,,,,,1,,61,100
153720,note_on,0,0,0,,,,,,,,,4,,61,100
153720,note_on,0,0,0,,,,,,,,,4,,76,100
153770,note_on,50,0,0,,,,,,,,,4,,76,0
153770,note_on,0,0,0,,,,,,,,,1,,76,0
153770,note_on,0,0,0,,,,,,,,,1,,78,100
153770,note_on,0,0,0,,,,,,,,,4,,78,100
153780,note_on,10,0,0,,,,,,,,,4,,78,0
153780,note_on,0,0,0,,,,,,,,,1,,78,0
153780,note_on,0,0,0,,,,,,,,,4,,61,0
153780,note_on,0,0,0,,,,,,,,,1,,61,0
153780,note_on,0,0,0,,,,,,,,,1,,76,100
153780,note_on,0,0,0,,,,,,,,,1,,57,100
153780,note_on,0,0,0,,,,,,,,,4,,57,100
153780,note_on,0,0,0,,,,,,,,,4,,76,100
153810,note_on,30,0,0,,,,,,,,,4,,76,0
153810,note_on,0,0,0,,,,,,,,,4,,57,0
153810,note_on,0,0,0,,,,,,,,,1,,76,0
153810,note_on,0,0,0,,,,,,,,,1,,57,0
153810,note_on,0,0,0,,,,,,,,,1,,78,100
153810,note_on,0,0,0,,,,,,,,,4,,78,100
153820,note_on,10,0,0,,,,,,,,,4,,78,0
153820,note_on,0,0,0,,,,,,,,,1,,78,0
153820,note_on,0,0,0,,,,,,,,,1,,76,100
153820,note_on,0,0,0,,,,,,,,,4,,76,100
153830,note_on,10,0,0,,,,,,,,,4,,76,0
153830,note_on,0,0,0,,,,,,,,,1,,76,0
153830,note_on,0,0,0,,,,,,,,,1,,78,100
153830,note_on,0,0,0,,,,,,,,,4,,78,100
153840,note_on,10,0,0,,,,,,,,,4,,78,0
153840,note_on,0,0,0,,,,,,,,,1,,78,0
153840,note_on,0,0,0,,,,,,,,,1,,76,100
153840,note_on,0,0,0,,,,,,,,,1,,61,100
153840,note_on,0,0,0,,,,,,,,,4,,61,100
153840,note_on,0,0,0,,,,,,,,,4,,76,100
153850,note_on,10,0,0,,,,,,,,,4,,76,0
153850,note_on,0,0,0,,,,,,,,,1,,76,0
153850,note_on,0,0,0,,,,,,,,,1,,78,100
153850,note_on,0,0,0,,,,,,,,,4,,78,100
153860,note_on,10,0,0,,,,,,,,,4,,78,0
153860,note_on,0,0,0,,,,,,,,,1,,78,0
153860,note_on,0,0,0,,,,,,,,,1,,76,100
153860,note_on,0,0,0,,,,,,,,,4,,76,100
153880,note_on,20,0,0,,,,,,,,,4,,76,0
153880,note_on,0,0,0,,,,,,,,,1,,76,0
153900,note_on,20,0,0,,,,,,,,,1,,61,0
153900,note_on,0,0,0,,,,,,,,,4,,61,0
153900,note_on,0,0,0,,,,,,,,,1,,73,100
153900,note_on,0,0,0,,,,,,,,,1,,64,100
153900,note_on,0,0,0,,,,,,,,,4,,64,100
153900,note_on,0,0,0,,,,,,,,,4,,73,100
153930,note_on,30,0,0,,,,,,,,,4,,73,0
153930,note_on,0,0,0,,,,,,,,,4,,64,0
153930,note_on,0,0,0,,,,,,,,,1,,73,0
153930,note_on,0,0,0,,,,,,,,,1,,64,0
153960,note_on,30,0,0,,,,,,,,,1,,62,100
153960,note_on,0,0,0,,,,,,,,,1,,78,100
153960,note_on,0,0,0,,,,,,,,,4,,62,100
153960,note_on,0,0,0,,,,,,,,,4,,78,100
153990,note_on,30,0,0,,,,,,,,,4,,78,0
153990,note_on,0,0,0,,,,,,,,,1,,78,0
153990,note_on,0,0,0,,,,,,,,,1,,76,100
153990,note_on,0,0,0,,,,,,,,,4,,76,100
154020,note_on,30,0,0,,,,,,,,,4,,76,0
154020,note_on,0,0,0,,,,,,,,,1,,76,0
154020,note_on,0,0,0,,,,,,,,,1,,74,100
154020,note_on,0,0,0,,,,,,,,,4,,74,100
154035,note_on,15,0,0,,,,,,,,,4,,62,0
154035,note_on,0,0,0,,,,,,,,,1,,62,0
154050,note_on,15,0,0,,,,,,,,,1,,74,0
154050,note_on,0,0,0,,,,,,,,,4,,74,0
154080,note_on,30,0,0,,,,,,,,,1,,59,100
154080,note_on,0,0,0,,,,,,,,,1,,80,100
154080,note_on,0,0,0,,,,,,,,,4,,59,100
154080,note_on,0,0,0,,,,,,,,,4,,80,100
154110,note_on,30,0,0,,,,,,,,,4,,80,0
154110,note_on,0,0,0,,,,,,,,,1,,80,0
154110,note_on,0,0,0,,,,,,,,,1,,78,100
154110,note_on,0,0,0,,,,,,,,,4,,78,100
154140,note_on,30,0,0,,,,,,,,,4,,78,0
154140,note_on,0,0,0,,,,,,,,,1,,78,0
154140,note_on,0,0,0,,,,,,,,,1,,76,100
154140,note_on,0,0,0,,,,,,,,,4,,76,100
154170,note_on,30,0,0,,,,,,,,,4,,76,0
154170,note_on,0,0,0,,,,,,,,,1,,76,0
154185,note_on,15,0,0,,,,,,,,,1,,59,0
154185,note_on,0,0,0,,,,,,,,,4,,59,0
154200,note_on,15,0,0,,,,,,,,,1,,57,100
154200,note_on,0,0,0,,,,,,,,,1,,81,100
154200,note_on,0,0,0,,,,,,,,,4,,57,100
154200,note_on,0,0,0,,,,,,,,,4,,81,100
154260,note_on,60,0,0,,,,,,,,,4,,81,0
154260,note_on,0,0,0,,,,,,,,,1,,81,0
154260,note_on,0,0,0,,,,,,,,,1,,83,100
154260,note_on,0,0,0,,,,,,,,,4,,83,100
154270,note_on,10,0,0,,,,,,,,,4,,83,0
154270,note_on,0,0,0,,,,,,,,,1,,83,0
154270,note_on,0,0,0,,,,,,,,,1,,81,100
154270,note_on,0,0,0,,,,,,,,,4,,81,100
154300,note_on,30,0,0,,,,,,,,,4,,81,0
154300,note_on,0,0,0,,,,,,,,,1,,81,0
154300,note_on,0,0,0,,,,,,,,,1,,83,100
154300,note_on,0,0,0,,,,,,,,,4,,83,100
154310,note_on,10,0,0,,,,,,,,,4,,83,0
154310,note_on,0,0,0,,,,,,,,,1,,83,0
154310,note_on,0,0,0,,,,,,,,,1,,81,100
154310,note_on,0,0,0,,,,,,,,,4,,81,100
154320,note_on,10,0,0,,,,,,,,,4,,81,0
154320,note_on,0,0,0,,,,,,,,,1,,81,0
154320,note_on,0,0,0,,,,,,,,,1,,83,100
154320,note_on,0,0,0,,,,,,,,,4,,83,100
154330,note_on,10,0,0,,,,,,,,,4,,83,0
154330,note_on,0,0,0,,,,,,,,,1,,83,0
154330,note_on,0,0,0,,,,,,,,,1,,81,100
154330,note_on,0,0,0,,,,,,,,,4,,81,100
154350,note_on,20,0,0,,,,,,,,,4,,81,0
154350,note_on,0,0,0,,,,,,,,,1,,81,0
154380,note_on,30,0,0,,,,,,,,,1,,83,100
154380,note_on,0,0,0,,,,,,,,,4,,83,100
154425,note_on,45,0,0,,,,,,,,,4,,83,0
154425,note_on,0,0,0,,,,,,,,,1,,83,0
154440,note_on,15,0,0,,,,,,,,,1,,69,100
154440,note_on,0,0,0,,,,,,,,,1,,61,100
154440,note_on,0,0,0,,,,,,,,,1,,64,100
154440,note_on,0,0,0,,,,,,,,,1,,85,100
154440,note_on,0,0,0,,,,,,,,,4,,69,100
154440,note_on,0,0,0,,,,,,,,,4,,61,100
154440,note_on,0,0,0,,,,,,,,,4,,64,100
154440,note_on,0,0,0,,,,,,,,,4,,85,100
154470,note_on,30,0,0,,,,,,,,,4,,85,0
154470,note_on,0,0,0,,,,,,,,,1,,85,0
154470,note_on,0,0,0,,,,,,,,,1,,83,100
154470,note_on,0,0,0,,,,,,,,,4,,83,100
154500,note_on,30,0,0,,,,,,,,,4,,83,0
154500,note_on,0,0,0,,,,,,,,,1,,83,0
154500,note_on,0,0,0,,,,,,,,,1,,81,100
154500,note_on,0,0,0,,,,,,,,,4,,81,100
154530,note_on,30,0,0,,,,,,,,,4,,81,0
154530,note_on,0,0,0,,,,,,,,,1,,81,0
154545,note_on,15,0,0,,,,,,,,,4,,64,0
154545,note_on,0,0,0,,,,,,,,,1,,61,0
154545,note_on,0,0,0,,,,,,,,,1,,69,0
154545,note_on,0,0,0,,,,,,,,,4,,61,0
154545,note_on,0,0,0,,,,,,,,,1,,64,0
154545,note_on,0,0,0,,,,,,,,,4,,69,0
154560,note_on,15,0,0,,,,,,,,,1,,68,100
154560,note_on,0,0,0,,,,,,,,,1,,62,100
154560,note_on,0,0,0,,,,,,,,,1,,59,100
154560,note_on,0,0,0,,,,,,,,,1,,83,100
154560,note_on,0,0,0,,,,,,,,,4,,68,100
154560,note_on,0,0,0,,,,,,,,,4,,62,100
154560,note_on,0,0,0,,,,,,,,,4,,59,100
154560,note_on,0,0,0,,,,,,,,,4,,83,100
154590,note_on,30,0,0,,,,,,,,,4,,83,0
154590,note_on,0,0,0,,,,,,,,,1,,83,0
154590,note_on,0,0,0,,,,,,,,,1,,85,100
154590,note_on,0,0,0,,,,,,,,,4,,85,100
154620,note_on,30,0,0,,,,,,,,,4,,85,0
154620,note_on,0,0,0,,,,,,,,,1,,85,0
154620,note_on,0,0,0,,,,,,,,,1,,86,100
154620,note_on,0,0,0,,,,,,,,,4,,86,100
154650,note_on,30,0,0,,,,,,,,,4,,86,0
154650,note_on,0,0,0,,,,,,,,,1,,86,0
154665,note_on,15,0,0,,,,,,,,,4,,59,0
154665,note_on,0,0,0,,,,,,,,,1,,62,0
154665,note_on,0,0,0,,,,,,,,,1,,68,0
154665,note_on,0,0,0,,,,,,,,,4,,62,0
154665,note_on,0,0,0,,,,,,,,,1,,59,0
154665,note_on,0,0,0,,,,,,,,,4,,68,0
154680,note_on,15,0,0,,,,,,,,,1,,69,100
154680,note_on,0,0,0,,,,,,,,,1,,61,100
154680,note_on,0,0,0,,,,,,,,,1,,64,100
154680,note_on,0,0,0,,,,,,,,,1,,85,100
154680,note_on,0,0,0,,,,,,,,,4,,69,100
154680,note_on,0,0,0,,,,,,,,,4,,61,100
154680,note_on,0,0,0,,,,,,,,,4,,64,100
154680,note_on,0,0,0,,,,,,,,,4,,85,100
154710,note_on,30,0,0,,,,,,,,,4,,85,0
154710,note_on,0,0,0,,,,,,,,,1,,85,0
154710,note_on,0,0,0,,,,,,,,,1,,83,100
154710,note_on,0,0,0,,,,,,,,,4,,83,100
154740,note_on,30,0,0,,,,,,,,,4,,83,0
154740,note_on,0,0,0,,,,,,,,,1,,83,0
154740,note_on,0,0,0,,,,,,,,,1,,81,100
154740,note_on,0,0,0,,,,,,,,,4,,81,100
154770,note_on,30,0,0,,,,,,,,,4,,81,0
154770,note_on,0,0,0,,,,,,,,,1,,81,0
154785,note_on,15,0,0,,,,,,,,,4,,64,0
154785,note_on,0,0,0,,,,,,,,,1,,61,0
154785,note_on,0,0,0,,,,,,,,,1,,69,0
154785,note_on,0,0,0,,,,,,,,,4,,61,0
154785,note_on,0,0,0,,,,,,,,,1,,64,0
154785,note_on,0,0,0,,,,,,,,,4,,69,0
154800,note_on,15,0,0,,,,,,,,,1,,59,100
154800,note_on,0,0,0,,,,,,,,,1,,62,100
154800,note_on,0,0,0,,,,,,,,,1,,68,100
154800,note_on,0,0,0,,,,,,,,,1,,80,100
154800,note_on,0,0,0,,,,,,,,,4,,59,100
154800,note_on,0,0,0,,,,,,,,,4,,62,100
154800,note_on,0,0,0,,,,,,,,,4,,68,100
154800,note_on,0,0,0,,,,,,,,,4,,80,100
154830,note_on,30,0,0,,,,,,,,,4,,80,0
154830,note_on,0,0,0,,,,,,,,,1,,80,0
154830,note_on,0,0,0,,,,,,,,,1,,81,100
154830,note_on,0,0,0,,,,,,,,,4,,81,100
154860,note_on,30,0,0,,,,,,,,,4,,81,0
154860,note_on,0,0,0,,,,,,,,,1,,81,0
154860,note_on,0,0,0,,,,,,,,,1,,83,100
154860,note_on,0,0,0,,,,,,,,,4,,83,100
154890,note_on,30,0,0,,,,,,,,,4,,83,0
154890,note_on,0,0,0,,,,,,,,,1,,83,0
154905,note_on,15,0,0,,,,,,,,,4,,68,0
154905,note_on,0,0,0,,,,,,,,,1,,62,0
154905,note_on,0,0,0,,,,,,,,,1,,59,0
154905,note_on,0,0,0,,,,,,,,,4,,62,0
154905,note_on,0,0,0,,,,,,,,,1,,68,0
154905,note_on,0,0,0,,,,,,,,,4,,59,0
154920,note_on,15,0,0,,,,,,,,,1,,69,100
154920,note_on,0,0,0,,,,,,,,,1,,61,100
154920,note_on,0,0,0,,,,,,,,,1,,64,100
154920,note_on,0,0,0,,,,,,,,,1,,81,100
154920,note_on,0,0,0,,,,,,,,,4,,69,100
154920,note_on,0,0,0,,,,,,,,,4,,61,100
154920,note_on,0,0,0,,,,,,,,,4,,64,100
154920,note_on,0,0,0,,,,,,,,,4,,81,100
154950,note_on,30,0,0,,,,,,,,,4,,81,0
154950,note_on,0,0,0,,,,,,,,,1,,81,0
154950,note_on,0,0,0,,,,,,,,,1,,80,100
154950,note_on,0,0,0,,,,,,,,,4,,80,100
154980,note_on,30,0,0,,,,,,,,,4,,80,0
154980,note_on,0,0,0,,,,,,,,,1,,80,0
154980,note_on,0,0,0,,,,,,,,,1,,78,100
154980,note_on,0,0,0,,,,,,,,,4,,78,100
155010,note_on,30,0,0,,,,,,,,,4,,78,0
155010,note_on,0,0,0,,,,,,,,,1,,78,0
155025,note_on,15,0,0,,,,,,,,,4,,64,0
155025,note_on,0,0,0,,,,,,,,,1,,61,0
155025,note_on,0,0,0,,,,,,,,,1,,69,0
155025,note_on,0,0,0,,,,,,,,,4,,61,0
155025,note_on,0,0,0,,,,,,,,,1,,64,0
155025,note_on,0,0,0,,,,,,,,,4,,69,0
155040,note_on,15,0,0,,,,,,,,,1,,68,100
155040,note_on,0,0,0,,,,,,,,,1,,62,100
155040,note_on,0,0,0,,,,,,,,,1,,59,100
155040,note_on,0,0,0,,,,,,,,,1,,76,100
155040,note_on,0,0,0,,,,,,,,,4,,68,100
155040,note_on,0,0,0,,,,,,,,,4,,62,100
155040,note_on,0,0,0,,,,,,,,,4,,59,100
155040,note_on,0,0,0,,,,,,,,,4,,76,100
155070,note_on,30,0,0,,,,,,,,,4,,76,0
155070,note_on,0,0,0,,,,,,,,,1,,76,0
155070,note_on,0,0,0,,,,,,,,,1,,78,100
155070,note_on,0,0,0,,,,,,,,,4,,78,100
155100,note_on,30,0,0,,,,,,,,,4,,78,0
155100,note_on,0,0,0,,,,,,,,,1,,78,0
155100,note_on,0,0,0,,,,,,,,,1,,74,100
155100,note_on,0,0,0,,,,,,,,,4,,74,100
155130,note_on,30,0,0,,,,,,,,,4,,74,0
155130,note_on,0,0,0,,,,,,,,,1,,74,0
155145,note_on,15,0,0,,,,,,,,,4,,59,0
155145,note_on,0,0,0,,,,,,,,,1,,62,0
155145,note_on,0,0,0,,,,,,,,,1,,68,0
155145,note_on,0,0,0,,,,,,,,,4,,62,0
155145,note_on,0,0,0,,,,,,,,,1,,59,0
155145,note_on,0,0,0,,,,,,,,,4,,68,0
155160,note_on,15,0,0,,,,,,,,,1,,61,100
155160,note_on,0,0,0,,,,,,,,,1,,64,100
155160,note_on,0,0,0,,,,,,,,,1,,69,100
155160,note_on,0,0,0,,,,,,,,,1,,74,100
155160,note_on,0,0,0,,,,,,,,,4,,61,100
155160,note_on,0,0,0,,,,,,,,,4,,64,100
155160,note_on,0,0,0,,,,,,,,,4,,69,100
155160,note_on,0,0,0,,,,,,,,,4,,74,100
155175,note_on,15,0,0,,,,,,,,,4,,74,0
155175,note_on,0,0,0,,,,,,,,,1,,74,0
155175,note_on,0,0,0,,,,,,,,,1,,73,100
155175,note_on,0,0,0,,,,,,,,,4,,73,100
155190,note_on,15,0,0,,,,,,,,,4,,73,0
155190,note_on,0,0,0,,,,,,,,,1,,73,0
155190,note_on,0,0,0,,,,,,,,,1,,74,100
155190,note_on,0,0,0,,,,,,,,,4,,74,100
155205,note_on,15,0,0,,,,,,,,,4,,74,0
155205,note_on,0,0,0,,,,,,,,,1,,74,0
155205,note_on,0,0,0,,,,,,,,,1,,73,100
155205,note_on,0,0,0,,,,,,,,,4,,73,100
155220,note_on,15,0,0,,,,,,,,,4,,73,0
155220,note_on,0,0,0,,,,,,,,,1,,73,0
155220,note_on,0,0,0,,,,,,,,,1,,74,100
155220,note_on,0,0,0,,,,,,,,,4,,74,100
155235,note_on,15,0,0,,,,,,,,,4,,74,0
155235,note_on,0,0,0,,,,,,,,,1,,74,0
155235,note_on,0,0,0,,,,,,,,,1,,73,100
155235,note_on,0,0,0,,,,,,,,,4,,73,100
155250,note_on,15,0,0,,,,,,,,,4,,73,0
155250,note_on,0,0,0,,,,,,,,,1,,73,0
155250,note_on,0,0,0,,,,,,,,,1,,74,100
155250,note_on,0,0,0,,,,,,,,,4,,74,100
155265,note_on,15,0,0,,,,,,,,,4,,74,0
155265,note_on,0,0,0,,,,,,,,,1,,74,0
155265,note_on,0,0,0,,,,,,,,,4,,61,0
155265,note_on,0,0,0,,,,,,,,,1,,64,0
155265,note_on,0,0,0,,,,,,,,,1,,61,0
155265,note_on,0,0,0,,,,,,,,,4,,69,0
155265,note_on,0,0,0,,,,,,,,,1,,69,0
155265,note_on,0,0,0,,,,,,,,,4,,64,0
155265,note_on,0,0,0,,,,,,,,,1,,73,100
155265,note_on,0,0,0,,,,,,,,,4,,73,100
155280,note_on,15,0,0,,,,,,,,,1,,69,100
155280,note_on,0,0,0,,,,,,,,,1,,61,100
155280,note_on,0,0,0,,,,,,,,,1,,64,100
155280,note_on,0,0,0,,,,,,,,,4,,69,100
155280,note_on,0,0,0,,,,,,,,,4,,61,100
155280,note_on,0,0,0,,,,,,,,,4,,64,100
155310,note_on,30,0,0,,,,,,,,,4,,73,0
155310,note_on,0,0,0,,,,,,,,,1,,73,0
155340,note_on,30,0,0,,,,,,,,,1,,74,100
155340,note_on,0,0,0,,,,,,,,,4,,74,100
155370,note_on,30,0,0,,,,,,,,,4,,74,0
155370,note_on,0,0,0,,,,,,,,,1,,74,0
155370,note_on,0,0,0,,,,,,,,,1,,73,100
155370,note_on,0,0,0,,,,,,,,,4,,73,100
155385,note_on,15,0,0,,,,,,,,,4,,69,0
155385,note_on,0,0,0,,,,,,,,,4,,64,0
155385,note_on,0,0,0,,,,,,,,,1,,69,0
155385,note_on,0,0,0,,,,,,,,,1,,64,0
155385,note_on,0,0,0,,,,,,,,,1,,61,0
155385,note_on,0,0,0,,,,,,,,,4,,61,0
155390,note_on,5,0,0,,,,,,,,,1,,73,0
155390,note_on,0,0,0,,,,,,,,,4,,73,0
155400,note_on,10,0,0,,,,,,,,,1,,69,100
155400,note_on,0,0,0,,,,,,,,,1,,66,100
155400,note_on,0,0,0,,,,,,,,,1,,62,100
155400,note_on,0,0,0,,,,,,,,,1,,74,100
155400,note_on,0,0,0,,,,,,,,,4,,69,100
155400,note_on,0,0,0,,,,,,,,,4,,66,100
155400,note_on,0,0,0,,,,,,,,,4,,62,100
155400,note_on,0,0,0,,,,,,,,,4,,74,100
155430,note_on,30,0,0,,,,,,,,,4,,74,0
155430,note_on,0,0,0,,,,,,,,,1,,74,0
155430,note_on,0,0,0,,,,,,,,,1,,76,100
155430,note_on,0,0,0,,,,,,,,,4,,76,100
155460,note_on,30,0,0,,,,,,,,,4,,76,0
155460,note_on,0,0,0,,,,,,,,,1,,76,0
155460,note_on,0,0,0,,,,,,,,,1,,78,100
155460,note_on,0,0,0,,,,,,,,,4,,78,100
155490,note_on,30,0,0,,,,,,,,,4,,78,0
155490,note_on,0,0,0,,,,,,,,,1,,78,0
155505,note_on,15,0,0,,,,,,,,,4,,62,0
155505,note_on,0,0,0,,,,,,,,,1,,66,0
155505,note_on,0,0,0,,,,,,,,,1,,69,0
155505,note_on,0,0,0,,,,,,,,,4,,66,0
155505,note_on,0,0,0,,,,,,,,,1,,62,0
155505,note_on,0,0,0,,,,,,,,,4,,69,0
155520,note_on,15,0,0,,,,,,,,,1,,69,100
155520,note_on,0,0,0,,,,,,,,,1,,61,100
155520,note_on,0,0,0,,,,,,,,,1,,64,100
155520,note_on,0,0,0,,,,,,,,,1,,76,100
155520,note_on,0,0,0,,,,,,,,,4,,69,100
155520,note_on,0,0,0,,,,,,,,,4,,61,100
155520,note_on,0,0,0,,,,,,,,,4,,64,100
155520,note_on,0,0,0,,,,,,,,,4,,76,100
155550,note_on,30,0,0,,,,,,,,,4,,76,0
155550,note_on,0,0,0,,,,,,,,,1,,76,0
155550,note_on,0,0,0,,,,,,,,,1,,74,100
155550,note_on,0,0,0,,,,,,,,,4,,74,100
155580,note_on,30,0,0,,,,,,,,,4,,74,0
155580,note_on,0,0,0,,,,,,,,,1,,74,0
155580,note_on,0,0,0,,,,,,,,,1,,73,100
155580,note_on,0,0,0,,,,,,,,,4,,73,100
155610,note_on,30,0,0,,,,,,,,,4,,73,0
155610,note_on,0,0,0,,,,,,,,,1,,73,0
155625,note_on,15,0,0,,,,,,,,,4,,64,0
155625,note_on,0,0,0,,,,,,,,,1,,61,0
155625,note_on,0,0,0,,,,,,,,,1,,69,0
155625,note_on,0,0,0,,,,,,,,,4,,61,0
155625,note_on,0,0,0,,,,,,,,,1,,64,0
155625,note_on,0,0,0,,,,,,,,,4,,69,0
155640,note_on,15,0,0,,,,,,,,,1,,59,100
155640,note_on,0,0,0,,,,,,,,,1,,62,100
155640,note_on,0,0,0,,,,,,,,,1,,68,100
155640,note_on,0,0,0,,,,,,,,,1,,71,100
155640,note_on,0,0,0,,,,,,,,,4,,59,100
155640,note_on,0,0,0,,,,,,,,,4,,62,100
155640,note_on,0,0,0,,,,,,,,,4,,68,100
155640,note_on,0,0,0,,,,,,,,,4,,71,100
155670,note_on,30,0,0,,,,,,,,,4,,71,0
155670,note_on,0,0,0,,,,,,,,,1,,71,0
155670,note_on,0,0,0,,,,,,,,,1,,73,100
155670,note_on,0,0,0,,,,,,,,,4,,73,100
155700,note_on,30,0,0,,,,,,,,,4,,73,0
155700,note_on,0,0,0,,,,,,,,,1,,73,0
155700,note_on,0,0,0,,,,,,,,,1,,74,100
155700,note_on,0,0,0,,,,,,,,,4,,74,100
155730,note_on,30,0,0,,,,,,,,,4,,74,0
155730,note_on,0,0,0,,,,,,,,,1,,74,0
155745,note_on,15,0,0,,,,,,,,,4,,68,0
155745,note_on,0,0,0,,,,,,,,,1,,62,0
155745,note_on,0,0,0,,,,,,,,,1,,59,0
155745,note_on,0,0,0,,,,,,,,,4,,62,0
155745,note_on,0,0,0,,,,,,,,,1,,68,0
155745,note_on,0,0,0,,,,,,,,,4,,59,0
155760,note_on,15,0,0,,,,,,,,,1,,61,100
155760,note_on,0,0,0,,,,,,,,,1,,64,100
155760,note_on,0,0,0,,,,,,,,,1,,73,100
155760,note_on,0,0,0,,,,,,,,,4,,61,100
155760,note_on,0,0,0,,,,,,,,,4,,64,100
155760,note_on,0,0,0,,,,,,,,,4,,73,100
155790,note_on,30,0,0,,,,,,,,,4,,73,0
155790,note_on,0,0,0,,,,,,,,,1,,73,0
155790,note_on,0,0,0,,,,,,,,,1,,71,100
155790,note_on,0,0,0,,,,,,,,,4,,71,100
155820,note_on,30,0,0,,,,,,,,,4,,71,0
155820,note_on,0,0,0,,,,,,,,,1,,71,0
155820,note_on,0,0,0,,,,,,,,,1,,69,100
155820,note_on,0,0,0,,,,,,,,,4,,69,100
155850,note_on,30,0,0,,,,,,,,,4,,69,0
155850,note_on,0,0,0,,,,,,,,,1,,69,0
155865,note_on,15,0,0,,,,,,,,,4,,61,0
155865,note_on,0,0,0,,,,,,,,,1,,64,0
155865,note_on,0,0,0,,,,,,,,,4,,64,0
155865,note_on,0,0,0,,,,,,,,,1,,61,0
155880,note_on,15,0,0,,,,,,,,,1,,59,100
155880,note_on,0,0,0,,,,,,,,,1,,62,100
155880,note_on,0,0,0,,,,,,,,,1,,68,100
155880,note_on,0,0,0,,,,,,,,,4,,59,100
155880,note_on,0,0,0,,,,,,,,,4,,62,100
155880,note_on,0,0,0,,,,,,,,,4,,68,100
155910,note_on,30,0,0,,,,,,,,,1,,69,100
155910,note_on,0,0,0,,,,,,,,,4,,69,100
155940,note_on,30,0,0,,,,,,,,,4,,69,0
155940,note_on,0,0,0,,,,,,,,,1,,69,0
155940,note_on,0,0,0,,,,,,,,,1,,71,100
155940,note_on,0,0,0,,,,,,,,,4,,71,100
155970,note_on,30,0,0,,,,,,,,,4,,71,0
155970,note_on,0,0,0,,,,,,,,,1,,71,0
155985,note_on,15,0,0,,,,,,,,,4,,68,0
155985,note_on,0,0,0,,,,,,,,,1,,68,0
156000,note_on,15,0,0,,,,,,,,,1,,69,100
156000,note_on,0,0,0,,,,,,,,,4,,69,100
156030,note_on,30,0,0,,,,,,,,,4,,69,0
156030,note_on,0,0,0,,,,,,,,,1,,69,0
156030,note_on,0,0,0,,,,,,,,,1,,68,100
156030,note_on,0,0,0,,,,,,,,,4,,68,100
156060,note_on,30,0,0,,,,,,,,,4,,68,0
156060,note_on,0,0,0,,,,,,,,,1,,68,0
156060,note_on,0,0,0,,,,,,,,,1,,66,100
156060,note_on,0,0,0,,,,,,,,,4,,66,100
156090,note_on,30,0,0,,,,,,,,,4,,66,0
156090,note_on,0,0,0,,,,,,,,,1,,59,0
156090,note_on,0,0,0,,,,,,,,,4,,62,0
156090,note_on,0,0,0,,,,,,,,,1,,66,0
156090,note_on,0,0,0,,,,,,,,,1,,62,0
156090,note_on,0,0,0,,,,,,,,,4,,59,0
156120,note_on,30,0,0,,,,,,,,,1,,61,100
156120,note_on,0,0,0,,,,,,,,,1,,64,100
156120,note_on,0,0,0,,,,,,,,,4,,61,100
156120,note_on,0,0,0,,,,,,,,,4,,64,100
156270,note_on,150,0,0,,,,,,,,,5,,64,0
156270,note_on,0,0,0,,,,,,,,,7,,57,0
156270,note_on,0,0,0,,,,,,,,,6,,57,0
156300,note_on,30,0,0,,,,,,,,,0,,76,100
156300,note_on,0,0,0,,,,,,,,,3,,76,100
156300,note_on,0,0,0,,,,,,,,,5,,76,100
156300,note_on,0,0,0,,,,,,,,,6,,61,100
156300,note_on,0,0,0,,,,,,,,,7,,61,100
156300,note_on,0,0,0,,,,,,,,,13,,76,100
156330,note_on,30,0,0,,,,,,,,,13,,76,0
156330,note_on,0,0,0,,,,,,,,,5,,76,0
156330,note_on,0,0,0,,,,,,,,,0,,76,0
156330,note_on,0,0,0,,,,,,,,,8,,45,0
156330,note_on,0,0,0,,,,,,,,,10,,33,0
156330,note_on,0,0,0,,,,,,,,,14,,45,0
156330,note_on,0,0,0,,,,,,,,,7,,61,0
156330,note_on,0,0,0,,,,,,,,,3,,76,0
156330,note_on,0,0,0,,,,,,,,,6,,61,0
156340,note_on,10,0,0,,,,,,,,,1,,64,0
156345,note_on,5,0,0,,,,,,,,,4,,64,0
156345,note_on,0,0,0,,,,,,,,,4,,61,0
156345,note_on,0,0,0,,,,,,,,,1,,57,0
156345,note_on,0,0,0,,,,,,,,,4,,57,0
156345,note_on,0,0,0,,,,,,,,,1,,61,0
156360,note_on,15,0,0,,,,,,,,,0,,57,100
156360,note_on,0,0,0,,,,,,,,,0,,83,100
156360,note_on,0,0,0,,,,,,,,,3,,57,100
156360,note_on,0,0,0,,,,,,,,,3,,83,100
156360,note_on,0,0,0,,,,,,,,,5,,83,100
156360,note_on,0,0,0,,,,,,,,,6,,61,100
156360,note_on,0,0,0,,,,,,,,,7,,61,100
156360,note_on,0,0,0,,,,,,,,,8,,57,100
156360,note_on,0,0,0,,,,,,,,,10,,45,100
156360,note_on,0,0,0,,,,,,,,,13,,83,100
156360,note_on,0,0,0,,,,,,,,,14,,57,100
156360,note_on,0,0,0,,,,,,,,,15,,57,100
156375,note_on,15,0,0,,,,,,,,,13,,83,0
156375,note_on,0,0,0,,,,,,,,,5,,83,0
156375,note_on,0,0,0,,,,,,,,,3,,83,0
156375,note_on,0,0,0,,,,,,,,,0,,83,0
156375,note_on,0,0,0,,,,,,,,,0,,81,100
156375,note_on,0,0,0,,,,,,,,,3,,81,100
156375,note_on,0,0,0,,,,,,,,,5,,81,100
156375,note_on,0,0,0,,,,,,,,,13,,81,100
156390,note_on,15,0,0,,,,,,,,,13,,81,0
156390,note_on,0,0,0,,,,,,,,,3,,81,0
156390,note_on,0,0,0,,,,,,,,,0,,81,0
156390,note_on,0,0,0,,,,,,,,,5,,81,0
156390,note_on,0,0,0,,,,,,,,,0,,83,100
156390,note_on,0,0,0,,,,,,,,,3,,83,100
156390,note_on,0,0,0,,,,,,,,,5,,83,100
156390,note_on,0,0,0,,,,,,,,,13,,83,100
156405,note_on,15,0,0,,,,,,,,,13,,83,0
156405,note_on,0,0,0,,,,,,,,,3,,83,0
156405,note_on,0,0,0,,,,,,,,,0,,83,0
156405,note_on,0,0,0,,,,,,,,,5,,83,0
156405,note_on,0,0,0,,,,,,,,,0,,81,100
156405,note_on,0,0,0,,,,,,,,,3,,81,100
156405,note_on,0,0,0,,,,,,,,,5,,81,100
156405,note_on,0,0,0,,,,,,,,,13,,81,100
156420,note_on,15,0,0,,,,,,,,,13,,81,0
156420,note_on,0,0,0,,,,,,,,,3,,81,0
156420,note_on,0,0,0,,,,,,,,,0,,81,0
156420,note_on,0,0,0,,,,,,,,,5,,81,0
156420,note_on,0,0,0,,,,,,,,,0,,83,100
156420,note_on,0,0,0,,,,,,,,,3,,83,100
156420,note_on,0,0,0,,,,,,,,,5,,83,100
156420,note_on,0,0,0,,,,,,,,,13,,83,100
156435,note_on,15,0,0,,,,,,,,,13,,83,0
156435,note_on,0,0,0,,,,,,,,,3,,83,0
156435,note_on,0,0,0,,,,,,,,,0,,83,0
156435,note_on,0,0,0,,,,,,,,,5,,83,0
156435,note_on,0,0,0,,,,,,,,,0,,81,100
156435,note_on,0,0,0,,,,,,,,,3,,81,100
156435,note_on,0,0,0,,,,,,,,,5,,81,100
156435,note_on,0,0,0,,,,,,,,,13,,81,100
156450,note_on,15,0,0,,,,,,,,,13,,81,0
156450,note_on,0,0,0,,,,,,,,,15,,57,0
156450,note_on,0,0,0,,,,,,,,,10,,45,0
156450,note_on,0,0,0,,,,,,,,,7,,61,0
156450,note_on,0,0,0,,,,,,,,,3,,57,0
156450,note_on,0,0,0,,,,,,,,,0,,57,0
156450,note_on,0,0,0,,,,,,,,,6,,61,0
156450,note_on,0,0,0,,,,,,,,,14,,57,0
156450,note_on,0,0,0,,,,,,,,,0,,81,0
156450,note_on,0,0,0,,,,,,,,,8,,57,0
156450,note_on,0,0,0,,,,,,,,,5,,81,0
156450,note_on,0,0,0,,,,,,,,,3,,81,0
156450,note_on,0,0,0,,,,,,,,,0,,83,100
156450,note_on,0,0,0,,,,,,,,,3,,83,100
156450,note_on,0,0,0,,,,,,,,,5,,83,100
156450,note_on,0,0,0,,,,,,,,,13,,83,100
156465,note_on,15,0,0,,,,,,,,,13,,83,0
156465,note_on,0,0,0,,,,,,,,,0,,83,0
156465,note_on,0,0,0,,,,,,,,,3,,83,0
156465,note_on,0,0,0,,,,,,,,,5,,83,0
156465,note_on,0,0,0,,,,,,,,,0,,81,100
156465,note_on,0,0,0,,,,,,,,,3,,81,100
156465,note_on,0,0,0,,,,,,,,,5,,81,100
156465,note_on,0,0,0,,,,,,,,,13,,81,100
156480,note_on,15,0,0,,,,,,,,,13,,81,0
156480,note_on,0,0,0,,,,,,,,,0,,81,0
156480,note_on,0,0,0,,,,,,,,,3,,81,0
156480,note_on,0,0,0,,,,,,,,,5,,81,0
156480,note_on,0,0,0,,,,,,,,,0,,59,100
156480,note_on,0,0,0,,,,,,,,,0,,83,100
156480,note_on,0,0,0,,,,,,,,,3,,59,100
156480,note_on,0,0,0,,,,,,,,,3,,83,100
156480,note_on,0,0,0,,,,,,,,,5,,83,100
156480,note_on,0,0,0,,,,,,,,,6,,62,100
156480,note_on,0,0,0,,,,,,,,,7,,62,100
156480,note_on,0,0,0,,,,,,,,,8,,59,100
156480,note_on,0,0,0,,,,,,,,,10,,47,100
156480,note_on,0,0,0,,,,,,,,,13,,83,100
156480,note_on,0,0,0,,,,,,,,,14,,59,100
156480,note_on,0,0,0,,,,,,,,,15,,59,100
156495,note_on,15,0,0,,,,,,,,,13,,83,0
156495,note_on,0,0,0,,,,,,,,,5,,83,0
156495,note_on,0,0,0,,,,,,,,,3,,83,0
156495,note_on,0,0,0,,,,,,,,,0,,83,0
156495,note_on,0,0,0,,,,,,,,,0,,81,100
156495,note_on,0,0,0,,,,,,,,,3,,81,100
156495,note_on,0,0,0,,,,,,,,,5,,81,100
156495,note_on,0,0,0,,,,,,,,,13,,81,100
156510,note_on,15,0,0,,,,,,,,,13,,81,0
156510,note_on,0,0,0,,,,,,,,,3,,81,0
156510,note_on,0,0,0,,,,,,,,,0,,81,0
156510,note_on,0,0,0,,,,,,,,,5,,81,0
156540,note_on,30,0,0,,,,,,,,,0,,80,100
156540,note_on,0,0,0,,,,,,,,,3,,80,100
156540,note_on,0,0,0,,,,,,,,,5,,80,100
156540,note_on,0,0,0,,,,,,,,,13,,80,100
156570,note_on,30,0,0,,,,,,,,,13,,80,0
156570,note_on,0,0,0,,,,,,,,,15,,59,0
156570,note_on,0,0,0,,,,,,,,,10,,47,0
156570,note_on,0,0,0,,,,,,,,,7,,62,0
156570,note_on,0,0,0,,,,,,,,,3,,59,0
156570,note_on,0,0,0,,,,,,,,,0,,59,0
156570,note_on,0,0,0,,,,,,,,,6,,62,0
156570,note_on,0,0,0,,,,,,,,,14,,59,0
156570,note_on,0,0,0,,,,,,,,,0,,80,0
156570,note_on,0,0,0,,,,,,,,,8,,59,0
156570,note_on,0,0,0,,,,,,,,,5,,80,0
156570,note_on,0,0,0,,,,,,,,,3,,80,0
156570,note_on,0,0,0,,,,,,,,,0,,78,100
156570,note_on,0,0,0,,,,,,,,,3,,78,100
156570,note_on,0,0,0,,,,,,,,,5,,78,100
156570,note_on,0,0,0,,,,,,,,,13,,78,100
156600,note_on,30,0,0,,,,,,,,,13,,78,0
156600,note_on,0,0,0,,,,,,,,,0,,78,0
156600,note_on,0,0,0,,,,,,,,,3,,78,0
156600,note_on,0,0,0,,,,,,,,,5,,78,0
156600,note_on,0,0,0,,,,,,,,,0,,76,100
156600,note_on,0,0,0,,,,,,,,,0,,61,100
156600,note_on,0,0,0,,,,,,,,,3,,76,100
156600,note_on,0,0,0,,,,,,,,,3,,61,100
156600,note_on,0,0,0,,,,,,,,,5,,76,100
156600,note_on,0,0,0,,,,,,,,,6,,69,100
156600,note_on,0,0,0,,,,,,,,,7,,69,100
156600,note_on,0,0,0,,,,,,,,,8,,61,100
156600,note_on,0,0,0,,,,,,,,,10,,49,100
156600,note_on,0,0,0,,,,,,,,,13,,76,100
156600,note_on,0,0,0,,,,,,,,,14,,61,100
156600,note_on,0,0,0,,,,,,,,,15,,61,100
156630,note_on,30,0,0,,,,,,,,,13,,76,0
156630,note_on,0,0,0,,,,,,,,,5,,76,0
156630,note_on,0,0,0,,,,,,,,,3,,76,0
156630,note_on,0,0,0,,,,,,,,,0,,76,0
156660,note_on,30,0,0,,,,,,,,,0,,81,100
156660,note_on,0,0,0,,,,,,,,,3,,81,100
156660,note_on,0,0,0,,,,,,,,,5,,81,100
156660,note_on,0,0,0,,,,,,,,,13,,81,100
156690,note_on,30,0,0,,,,,,,,,13,,81,0
156690,note_on,0,0,0,,,,,,,,,15,,61,0
156690,note_on,0,0,0,,,,,,,,,8,,61,0
156690,note_on,0,0,0,,,,,,,,,6,,69,0
156690,note_on,0,0,0,,,,,,,,,10,,49,0
156690,note_on,0,0,0,,,,,,,,,0,,61,0
156690,note_on,0,0,0,,,,,,,,,7,,69,0
156690,note_on,0,0,0,,,,,,,,,3,,61,0
156690,note_on,0,0,0,,,,,,,,,0,,81,0
156690,note_on,0,0,0,,,,,,,,,14,,61,0
156690,note_on,0,0,0,,,,,,,,,5,,81,0
156690,note_on,0,0,0,,,,,,,,,3,,81,0
156720,note_on,30,0,0,,,,,,,,,0,,57,100
156720,note_on,0,0,0,,,,,,,,,3,,57,100
156720,note_on,0,0,0,,,,,,,,,6,,61,100
156720,note_on,0,0,0,,,,,,,,,7,,61,100
156720,note_on,0,0,0,,,,,,,,,8,,57,100
156720,note_on,0,0,0,,,,,,,,,10,,45,100
156720,note_on,0,0,0,,,,,,,,,14,,57,100
156720,note_on,0,0,0,,,,,,,,,15,,57,100
156780,note_on,60,0,0,,,,,,,,,0,,69,100
156780,note_on,0,0,0,,,,,,,,,3,,69,100
156780,note_on,0,0,0,,,,,,,,,5,,69,100
156780,note_on,0,0,0,,,,,,,,,13,,69,100
156810,note_on,30,0,0,,,,,,,,,13,,69,0
156810,note_on,0,0,0,,,,,,,,,3,,57,0
156810,note_on,0,0,0,,,,,,,,,15,,57,0
156810,note_on,0,0,0,,,,,,,,,6,,61,0
156810,note_on,0,0,0,,,,,,,,,7,,61,0
156810,note_on,0,0,0,,,,,,,,,0,,57,0
156810,note_on,0,0,0,,,,,,,,,8,,57,0
156810,note_on,0,0,0,,,,,,,,,10,,45,0
156810,note_on,0,0,0,,,,,,,,,0,,69,0
156810,note_on,0,0,0,,,,,,,,,14,,57,0
156810,note_on,0,0,0,,,,,,,,,5,,69,0
156810,note_on,0,0,0,,,,,,,,,3,,69,0
156840,note_on,30,0,0,,,,,,,,,0,,54,100
156840,note_on,0,0,0,,,,,,,,,0,,76,100
156840,note_on,0,0,0,,,,,,,,,3,,54,100
156840,note_on,0,0,0,,,,,,,,,3,,76,100
156840,note_on,0,0,0,,,,,,,,,5,,76,100
156840,note_on,0,0,0,,,,,,,,,6,,57,100
156840,note_on,0,0,0,,,,,,,,,7,,57,100
156840,note_on,0,0,0,,,,,,,,,8,,54,100
156840,note_on,0,0,0,,,,,,,,,10,,42,100
156840,note_on,0,0,0,,,,,,,,,13,,76,100
156840,note_on,0,0,0,,,,,,,,,14,,54,100
156840,note_on,0,0,0,,,,,,,,,15,,54,100
156855,note_on,15,0,0,,,,,,,,,13,,76,0
156855,note_on,0,0,0,,,,,,,,,5,,76,0
156855,note_on,0,0,0,,,,,,,,,3,,76,0
156855,note_on,0,0,0,,,,,,,,,0,,76,0
156855,note_on,0,0,0,,,,,,,,,0,,74,100
156855,note_on,0,0,0,,,,,,,,,3,,74,100
156855,note_on,0,0,0,,,,,,,,,5,,74,100
156855,note_on,0,0,0,,,,,,,,,13,,74,100
156870,note_on,15,0,0,,,,,,,,,13,,74,0
156870,note_on,0,0,0,,,,,,,,,3,,74,0
156870,note_on,0,0,0,,,,,,,,,0,,74,0
156870,note_on,0,0,0,,,,,,,,,5,,74,0
156870,note_on,0,0,0,,,,,,,,,0,,76,100
156870,note_on,0,0,0,,,,,,,,,3,,76,100
156870,note_on,0,0,0,,,,,,,,,5,,76,100
156870,note_on,0,0,0,,,,,,,,,13,,76,100
156885,note_on,15,0,0,,,,,,,,,13,,76,0
156885,note_on,0,0,0,,,,,,,,,3,,76,0
156885,note_on,0,0,0,,,,,,,,,0,,76,0
156885,note_on,0,0,0,,,,,,,,,5,,76,0
156885,note_on,0,0,0,,,,,,,,,0,,74,100
156885,note_on,0,0,0,,,,,,,,,3,,74,100
156885,note_on,0,0,0,,,,,,,,,5,,74,100
156885,note_on,0,0,0,,,,,,,,,13,,74,100
156900,note_on,15,0,0,,,,,,,,,13,,74,0
156900,note_on,0,0,0,,,,,,,,,3,,74,0
156900,note_on,0,0,0,,,,,,,,,0,,74,0
156900,note_on,0,0,0,,,,,,,,,5,,74,0
156900,note_on,0,0,0,,,,,,,,,0,,76,100
156900,note_on,0,0,0,,,,,,,,,3,,76,100
156900,note_on,0,0,0,,,,,,,,,5,,76,100
156900,note_on,0,0,0,,,,,,,,,13,,76,100
156915,note_on,15,0,0,,,,,,,,,13,,76,0
156915,note_on,0,0,0,,,,,,,,,3,,76,0
156915,note_on,0,0,0,,,,,,,,,0,,76,0
156915,note_on,0,0,0,,,,,,,,,5,,76,0
156915,note_on,0,0,0,,,,,,,,,0,,74,100
156915,note_on,0,0,0,,,,,,,,,3,,74,100
156915,note_on,0,0,0,,,,,,,,,5,,74,100
156915,note_on,0,0,0,,,,,,,,,13,,74,100
156930,note_on,15,0,0,,,,,,,,,13,,74,0
156930,note_on,0,0,0,,,,,,,,,15,,54,0
156930,note_on,0,0,0,,,,,,,,,10,,42,0
156930,note_on,0,0,0,,,,,,,,,7,,57,0
156930,note_on,0,0,0,,,,,,,,,3,,54,0
156930,note_on,0,0,0,,,,,,,,,0,,54,0
156930,note_on,0,0,0,,,,,,,,,6,,57,0
156930,note_on,0,0,0,,,,,,,,,14,,54,0
156930,note_on,0,0,0,,,,,,,,,0,,74,0
156930,note_on,0,0,0,,,,,,,,,8,,54,0
156930,note_on,0,0,0,,,,,,,,,5,,74,0
156930,note_on,0,0,0,,,,,,,,,3,,74,0
156930,note_on,0,0,0,,,,,,,,,0,,76,100
156930,note_on,0,0,0,,,,,,,,,3,,76,100
156930,note_on,0,0,0,,,,,,,,,5,,76,100
156930,note_on,0,0,0,,,,,,,,,13,,76,100
156945,note_on,15,0,0,,,,,,,,,13,,76,0
156945,note_on,0,0,0,,,,,,,,,0,,76,0
156945,note_on,0,0,0,,,,,,,,,3,,76,0
156945,note_on,0,0,0,,,,,,,,,5,,76,0
156945,note_on,0,0,0,,,,,,,,,0,,74,100
156945,note_on,0,0,0,,,,,,,,,3,,74,100
156945,note_on,0,0,0,,,,,,,,,5,,74,100
156945,note_on,0,0,0,,,,,,,,,13,,74,100
156960,note_on,15,0,0,,,,,,,,,13,,74,0
156960,note_on,0,0,0,,,,,,,,,0,,74,0
156960,note_on,0,0,0,,,,,,,,,3,,74,0
156960,note_on,0,0,0,,,,,,,,,5,,74,0
156960,note_on,0,0,0,,,,,,,,,0,,56,100
156960,note_on,0,0,0,,,,,,,,,0,,76,100
156960,note_on,0,0,0,,,,,,,,,3,,56,100
156960,note_on,0,0,0,,,,,,,,,3,,76,100
156960,note_on,0,0,0,,,,,,,,,5,,76,100
156960,note_on,0,0,0,,,,,,,,,6,,64,100
156960,note_on,0,0,0,,,,,,,,,7,,64,100
156960,note_on,0,0,0,,,,,,,,,8,,56,100
156960,note_on,0,0,0,,,,,,,,,10,,44,100
156960,note_on,0,0,0,,,,,,,,,13,,76,100
156960,note_on,0,0,0,,,,,,,,,14,,56,100
156960,note_on,0,0,0,,,,,,,,,15,,56,100
156975,note_on,15,0,0,,,,,,,,,13,,76,0
156975,note_on,0,0,0,,,,,,,,,5,,76,0
156975,note_on,0,0,0,,,,,,,,,3,,76,0
156975,note_on,0,0,0,,,,,,,,,0,,76,0
156975,note_on,0,0,0,,,,,,,,,0,,74,100
156975,note_on,0,0,0,,,,,,,,,3,,74,100
156975,note_on,0,0,0,,,,,,,,,5,,74,100
156975,note_on,0,0,0,,,,,,,,,13,,74,100
156990,note_on,15,0,0,,,,,,,,,13,,74,0
156990,note_on,0,0,0,,,,,,,,,3,,74,0
156990,note_on,0,0,0,,,,,,,,,0,,74,0
156990,note_on,0,0,0,,,,,,,,,5,,74,0
157020,note_on,30,0,0,,,,,,,,,0,,73,100
157020,note_on,0,0,0,,,,,,,,,3,,73,100
157020,note_on,0,0,0,,,,,,,,,5,,73,100
157020,note_on,0,0,0,,,,,,,,,13,,73,100
157050,note_on,30,0,0,,,,,,,,,13,,73,0
157050,note_on,0,0,0,,,,,,,,,15,,56,0
157050,note_on,0,0,0,,,,,,,,,10,,44,0
157050,note_on,0,0,0,,,,,,,,,7,,64,0
157050,note_on,0,0,0,,,,,,,,,3,,56,0
157050,note_on,0,0,0,,,,,,,,,0,,56,0
157050,note_on,0,0,0,,,,,,,,,6,,64,0
157050,note_on,0,0,0,,,,,,,,,14,,56,0
157050,note_on,0,0,0,,,,,,,,,0,,73,0
157050,note_on,0,0,0,,,,,,,,,8,,56,0
157050,note_on,0,0,0,,,,,,,,,5,,73,0
157050,note_on,0,0,0,,,,,,,,,3,,73,0
157050,note_on,0,0,0,,,,,,,,,0,,71,100
157050,note_on,0,0,0,,,,,,,,,3,,71,100
157050,note_on,0,0,0,,,,,,,,,5,,71,100
157050,note_on,0,0,0,,,,,,,,,13,,71,100
157080,note_on,30,0,0,,,,,,,,,13,,71,0
157080,note_on,0,0,0,,,,,,,,,0,,71,0
157080,note_on,0,0,0,,,,,,,,,3,,71,0
157080,note_on,0,0,0,,,,,,,,,5,,71,0
157080,note_on,0,0,0,,,,,,,,,0,,57,100
157080,note_on,0,0,0,,,,,,,,,0,,73,100
157080,note_on,0,0,0,,,,,,,,,3,,57,100
157080,note_on,0,0,0,,,,,,,,,3,,73,100
157080,note_on,0,0,0,,,,,,,,,5,,73,100
157080,note_on,0,0,0,,,,,,,,,6,,64,100
157080,note_on,0,0,0,,,,,,,,,7,,64,100
157080,note_on,0,0,0,,,,,,,,,8,,57,100
157080,note_on,0,0,0,,,,,,,,,10,,45,100
157080,note_on,0,0,0,,,,,,,,,13,,73,100
157080,note_on,0,0,0,,,,,,,,,14,,57,100
157080,note_on,0,0,0,,,,,,,,,15,,57,100
157110,note_on,30,0,0,,,,,,,,,13,,73,0
157110,note_on,0,0,0,,,,,,,,,5,,73,0
157110,note_on,0,0,0,,,,,,,,,3,,73,0
157110,note_on,0,0,0,,,,,,,,,0,,73,0
157140,note_on,30,0,0,,,,,,,,,0,,81,100
157140,note_on,0,0,0,,,,,,,,,3,,81,100
157140,note_on,0,0,0,,,,,,,,,5,,81,100
157140,note_on,0,0,0,,,,,,,,,13,,81,100
157170,note_on,30,0,0,,,,,,,,,13,,81,0
157170,note_on,0,0,0,,,,,,,,,7,,64,0
157170,note_on,0,0,0,,,,,,,,,8,,57,0
157170,note_on,0,0,0,,,,,,,,,14,,57,0
157170,note_on,0,0,0,,,,,,,,,10,,45,0
157170,note_on,0,0,0,,,,,,,,,0,,57,0
157170,note_on,0,0,0,,,,,,,,,6,,64,0
157170,note_on,0,0,0,,,,,,,,,15,,57,0
157170,note_on,0,0,0,,,,,,,,,0,,81,0
157170,note_on,0,0,0,,,,,,,,,3,,57,0
157170,note_on,0,0,0,,,,,,,,,5,,81,0
157170,note_on,0,0,0,,,,,,,,,3,,81,0
157200,note_on,30,0,0,,,,,,,,,0,,49,100
157200,note_on,0,0,0,,,,,,,,,3,,49,100
157200,note_on,0,0,0,,,,,,,,,6,,57,100
157200,note_on,0,0,0,,,,,,,,,7,,57,100
157200,note_on,0,0,0,,,,,,,,,8,,49,100
157200,note_on,0,0,0,,,,,,,,,10,,37,100
157200,note_on,0,0,0,,,,,,,,,14,,49,100
157200,note_on,0,0,0,,,,,,,,,15,,49,100
157260,note_on,60,0,0,,,,,,,,,0,,64,100
157260,note_on,0,0,0,,,,,,,,,3,,64,100
157260,note_on,0,0,0,,,,,,,,,5,,64,100
157260,note_on,0,0,0,,,,,,,,,13,,64,100
157290,note_on,30,0,0,,,,,,,,,13,,64,0
157290,note_on,0,0,0,,,,,,,,,3,,49,0
157290,note_on,0,0,0,,,,,,,,,15,,49,0
157290,note_on,0,0,0,,,,,,,,,6,,57,0
157290,note_on,0,0,0,,,,,,,,,7,,57,0
157290,note_on,0,0,0,,,,,,,,,0,,49,0
157290,note_on,0,0,0,,,,,,,,,8,,49,0
157290,note_on,0,0,0,,,,,,,,,10,,37,0
157290,note_on,0,0,0,,,,,,,,,0,,64,0
157290,note_on,0,0,0,,,,,,,,,14,,49,0
157290,note_on,0,0,0,,,,,,,,,5,,64,0
157290,note_on,0,0,0,,,,,,,,,3,,64,0
157320,note_on,30,0,0,,,,,,,,,0,,50,100
157320,note_on,0,0,0,,,,,,,,,0,,66,100
157320,note_on,0,0,0,,,,,,,,,3,,50,100
157320,note_on,0,0,0,,,,,,,,,3,,66,100
157320,note_on,0,0,0,,,,,,,,,5,,66,100
157320,note_on,0,0,0,,,,,,,,,6,,66,100
157320,note_on,0,0,0,,,,,,,,,7,,66,100
157320,note_on,0,0,0,,,,,,,,,8,,50,100
157320,note_on,0,0,0,,,,,,,,,10,,38,100
157320,note_on,0,0,0,,,,,,,,,13,,66,100
157320,note_on,0,0,0,,,,,,,,,14,,50,100
157320,note_on,0,0,0,,,,,,,,,15,,50,100
157350,note_on,30,0,0,,,,,,,,,13,,66,0
157350,note_on,0,0,0,,,,,,,,,5,,66,0
157350,note_on,0,0,0,,,,,,,,,3,,66,0
157350,note_on,0,0,0,,,,,,,,,0,,66,0
157380,note_on,30,0,0,,,,,,,,,0,,74,100
157380,note_on,0,0,0,,,,,,,,,3,,74,100
157380,note_on,0,0,0,,,,,,,,,5,,74,100
157380,note_on,0,0,0,,,,,,,,,13,,74,100
157410,note_on,30,0,0,,,,,,,,,13,,74,0
157410,note_on,0,0,0,,,,,,,,,7,,66,0
157410,note_on,0,0,0,,,,,,,,,8,,50,0
157410,note_on,0,0,0,,,,,,,,,14,,50,0
157410,note_on,0,0,0,,,,,,,,,10,,38,0
157410,note_on,0,0,0,,,,,,,,,0,,50,0
157410,note_on,0,0,0,,,,,,,,,6,,66,0
157410,note_on,0,0,0,,,,,,,,,15,,50,0
157410,note_on,0,0,0,,,,,,,,,0,,74,0
157410,note_on,0,0,0,,,,,,,,,3,,50,0
157410,note_on,0,0,0,,,,,,,,,5,,74,0
157410,note_on,0,0,0,,,,,,,,,3,,74,0
157440,note_on,30,0,0,,,,,,,,,0,,47,100
157440,note_on,0,0,0,,,,,,,,,3,,47,100
157440,note_on,0,0,0,,,,,,,,,6,,59,100
157440,note_on,0,0,0,,,,,,,,,7,,59,100
157440,note_on,0,0,0,,,,,,,,,8,,47,100
157440,note_on,0,0,0,,,,,,,,,10,,35,100
157440,note_on,0,0,0,,,,,,,,,14,,47,100
157440,note_on,0,0,0,,,,,,,,,15,,47,100
157500,note_on,60,0,0,,,,,,,,,0,,62,100
157500,note_on,0,0,0,,,,,,,,,3,,62,100
157500,note_on,0,0,0,,,,,,,,,5,,62,100
157500,note_on,0,0,0,,,,,,,,,13,,62,100
157530,note_on,30,0,0,,,,,,,,,13,,62,0
157530,note_on,0,0,0,,,,,,,,,3,,47,0
157530,note_on,0,0,0,,,,,,,,,15,,47,0
157530,note_on,0,0,0,,,,,,,,,6,,59,0
157530,note_on,0,0,0,,,,,,,,,7,,59,0
157530,note_on,0,0,0,,,,,,,,,0,,47,0
157530,note_on,0,0,0,,,,,,,,,8,,47,0
157530,note_on,0,0,0,,,,,,,,,10,,35,0
157530,note_on,0,0,0,,,,,,,,,0,,62,0
157530,note_on,0,0,0,,,,,,,,,14,,47,0
157530,note_on,0,0,0,,,,,,,,,5,,62,0
157530,note_on,0,0,0,,,,,,,,,3,,62,0
157560,note_on,30,0,0,,,,,,,,,0,,56,100
157560,note_on,0,0,0,,,,,,,,,0,,64,100
157560,note_on,0,0,0,,,,,,,,,3,,56,100
157560,note_on,0,0,0,,,,,,,,,3,,64,100
157560,note_on,0,0,0,,,,,,,,,5,,64,100
157560,note_on,0,0,0,,,,,,,,,6,,59,100
157560,note_on,0,0,0,,,,,,,,,7,,59,100
157560,note_on,0,0,0,,,,,,,,,8,,52,100
157560,note_on,0,0,0,,,,,,,,,10,,40,100
157560,note_on,0,0,0,,,,,,,,,13,,64,100
157560,note_on,0,0,0,,,,,,,,,14,,52,100
157560,note_on,0,0,0,,,,,,,,,15,,52,100
157590,note_on,30,0,0,,,,,,,,,13,,64,0
157590,note_on,0,0,0,,,,,,,,,5,,64,0
157590,note_on,0,0,0,,,,,,,,,3,,64,0
157590,note_on,0,0,0,,,,,,,,,0,,64,0
157620,note_on,30,0,0,,,,,,,,,0,,83,100
157620,note_on,0,0,0,,,,,,,,,3,,83,100
157620,note_on,0,0,0,,,,,,,,,5,,83,100
157620,note_on,0,0,0,,,,,,,,,13,,83,100
157650,note_on,30,0,0,,,,,,,,,13,,83,0
157650,note_on,0,0,0,,,,,,,,,7,,59,0
157650,note_on,0,0,0,,,,,,,,,8,,52,0
157650,note_on,0,0,0,,,,,,,,,14,,52,0
157650,note_on,0,0,0,,,,,,,,,10,,40,0
157650,note_on,0,0,0,,,,,,,,,0,,56,0
157650,note_on,0,0,0,,,,,,,,,6,,59,0
157650,note_on,0,0,0,,,,,,,,,15,,52,0
157650,note_on,0,0,0,,,,,,,,,0,,83,0
157650,note_on,0,0,0,,,,,,,,,3,,56,0
157650,note_on,0,0,0,,,,,,,,,5,,83,0
157650,note_on,0,0,0,,,,,,,,,3,,83,0
157680,note_on,30,0,0,,,,,,,,,0,,52,100
157680,note_on,0,0,0,,,,,,,,,3,,52,100
157680,note_on,0,0,0,,,,,,,,,6,,68,100
157680,note_on,0,0,0,,,,,,,,,7,,68,100
157680,note_on,0,0,0,,,,,,,,,8,,56,100
157680,note_on,0,0,0,,,,,,,,,10,,44,100
157680,note_on,0,0,0,,,,,,,,,14,,56,100
157680,note_on,0,0,0,,,,,,,,,15,,56,100
157740,note_on,60,0,0,,,,,,,,,0,,74,100
157740,note_on,0,0,0,,,,,,,,,3,,74,100
157740,note_on,0,0,0,,,,,,,,,5,,74,100
157740,note_on,0,0,0,,,,,,,,,13,,74,100
157770,note_on,30,0,0,,,,,,,,,13,,74,0
157770,note_on,0,0,0,,,,,,,,,3,,52,0
157770,note_on,0,0,0,,,,,,,,,15,,56,0
157770,note_on,0,0,0,,,,,,,,,6,,68,0
157770,note_on,0,0,0,,,,,,,,,7,,68,0
157770,note_on,0,0,0,,,,,,,,,0,,52,0
157770,note_on,0,0,0,,,,,,,,,8,,56,0
157770,note_on,0,0,0,,,,,,,,,10,,44,0
157770,note_on,0,0,0,,,,,,,,,0,,74,0
157770,note_on,0,0,0,,,,,,,,,14,,56,0
157770,note_on,0,0,0,,,,,,,,,5,,74,0
157770,note_on,0,0,0,,,,,,,,,3,,74,0
157800,note_on,30,0,0,,,,,,,,,0,,57,100
157800,note_on,0,0,0,,,,,,,,,0,,73,100
157800,note_on,0,0,0,,,,,,,,,3,,57,100
157800,note_on,0,0,0,,,,,,,,,3,,73,100
157800,note_on,0,0,0,,,,,,,,,5,,73,100
157800,note_on,0,0,0,,,,,,,,,6,,69,100
157800,note_on,0,0,0,,,,,,,,,7,,69,100
157800,note_on,0,0,0,,,,,,,,,8,,57,100
157800,note_on,0,0,0,,,,,,,,,10,,45,100
157800,note_on,0,0,0,,,,,,,,,13,,73,100
157800,note_on,0,0,0,,,,,,,,,14,,57,100
157800,note_on,0,0,0,,,,,,,,,15,,57,100
157830,note_on,30,0,0,,,,,,,,,3,,57,0
157830,note_on,0,0,0,,,,,,,,,0,,57,0
157840,note_on,10,0,0,,,,,,,,,6,,69,0
157840,note_on,0,0,0,,,,,,,,,7,,69,0
157850,note_on,10,0,0,,,,,,,,,14,,57,0
157850,note_on,0,0,0,,,,,,,,,8,,57,0
157850,note_on,0,0,0,,,,,,,,,10,,45,0
157850,note_on,0,0,0,,,,,,,,,15,,57,0
157860,note_on,10,0,0,,,,,,,,,0,,50,100
157860,note_on,0,0,0,,,,,,,,,3,,50,100
157860,note_on,0,0,0,,,,,,,,,6,,66,100
157860,note_on,0,0,0,,,,,,,,,7,,66,100
157860,note_on,0,0,0,,,,,,,,,8,,50,100
157860,note_on,0,0,0,,,,,,,,,10,,38,100
157860,note_on,0,0,0,,,,,,,,,14,,50,100
157860,note_on,0,0,0,,,,,,,,,15,,50,100
157890,note_on,30,0,0,,,,,,,,,3,,50,0
157890,note_on,0,0,0,,,,,,,,,0,,73,0
157890,note_on,0,0,0,,,,,,,,,5,,73,0
157890,note_on,0,0,0,,,,,,,,,13,,73,0
157890,note_on,0,0,0,,,,,,,,,0,,50,0
157890,note_on,0,0,0,,,,,,,,,3,,73,0
157890,note_on,0,0,0,,,,,,,,,0,,71,100
157890,note_on,0,0,0,,,,,,,,,3,,71,100
157890,note_on,0,0,0,,,,,,,,,5,,71,100
157890,note_on,0,0,0,,,,,,,,,13,,71,100
157900,note_on,10,0,0,,,,,,,,,7,,66,0
157900,note_on,0,0,0,,,,,,,,,6,,66,0
157905,note_on,5,0,0,,,,,,,,,13,,71,0
157905,note_on,0,0,0,,,,,,,,,3,,71,0
157905,note_on,0,0,0,,,,,,,,,5,,71,0
157905,note_on,0,0,0,,,,,,,,,0,,71,0
157910,note_on,5,0,0,,,,,,,,,10,,38,0
157910,note_on,0,0,0,,,,,,,,,15,,50,0
157910,note_on,0,0,0,,,,,,,,,8,,50,0
157910,note_on,0,0,0,,,,,,,,,14,,50,0
157920,note_on,10,0,0,,,,,,,,,0,,52,100
157920,note_on,0,0,0,,,,,,,,,0,,73,100
157920,note_on,0,0,0,,,,,,,,,3,,52,100
157920,note_on,0,0,0,,,,,,,,,3,,73,100
157920,note_on,0,0,0,,,,,,,,,5,,73,100
157920,note_on,0,0,0,,,,,,,,,6,,64,100
157920,note_on,0,0,0,,,,,,,,,7,,64,100
157920,note_on,0,0,0,,,,,,,,,8,,52,100
157920,note_on,0,0,0,,,,,,,,,10,,40,100
157920,note_on,0,0,0,,,,,,,,,13,,73,100
157920,note_on,0,0,0,,,,,,,,,14,,52,100
157920,note_on,0,0,0,,,,,,,,,15,,52,100
157930,note_on,10,0,0,,,,,,,,,0,,71,100
157930,note_on,0,0,0,,,,,,,,,3,,71,100
157930,note_on,0,0,0,,,,,,,,,5,,71,100
157930,note_on,0,0,0,,,,,,,,,13,,71,100
157935,note_on,5,0,0,,,,,,,,,13,,73,0
157935,note_on,0,0,0,,,,,,,,,5,,73,0
157935,note_on,0,0,0,,,,,,,,,3,,73,0
157935,note_on,0,0,0,,,,,,,,,0,,73,0
157940,note_on,5,0,0,,,,,,,,,0,,73,100
157940,note_on,0,0,0,,,,,,,,,3,,73,100
157940,note_on,0,0,0,,,,,,,,,5,,73,100
157940,note_on,0,0,0,,,,,,,,,13,,73,100
157945,note_on,5,0,0,,,,,,,,,13,,71,0
157945,note_on,0,0,0,,,,,,,,,0,,71,0
157945,note_on,0,0,0,,,,,,,,,5,,71,0
157945,note_on,0,0,0,,,,,,,,,3,,71,0
157950,note_on,5,0,0,,,,,,,,,0,,71,100
157950,note_on,0,0,0,,,,,,,,,3,,71,100
157950,note_on,0,0,0,,,,,,,,,5,,71,100
157950,note_on,0,0,0,,,,,,,,,13,,71,100
157955,note_on,5,0,0,,,,,,,,,13,,73,0
157955,note_on,0,0,0,,,,,,,,,3,,73,0
157955,note_on,0,0,0,,,,,,,,,0,,73,0
157955,note_on,0,0,0,,,,,,,,,5,,73,0
157960,note_on,5,0,0,,,,,,,,,7,,64,0
157960,note_on,0,0,0,,,,,,,,,6,,64,0
157960,note_on,0,0,0,,,,,,,,,0,,73,100
157960,note_on,0,0,0,,,,,,,,,3,,73,100
157960,note_on,0,0,0,,,,,,,,,5,,73,100
157960,note_on,0,0,0,,,,,,,,,13,,73,100
157965,note_on,5,0,0,,,,,,,,,13,,71,0
157965,note_on,0,0,0,,,,,,,,,3,,71,0
157965,note_on,0,0,0,,,,,,,,,0,,71,0
157965,note_on,0,0,0,,,,,,,,,5,,71,0
157970,note_on,5,0,0,,,,,,,,,14,,52,0
157970,note_on,0,0,0,,,,,,,,,0,,52,0
157970,note_on,0,0,0,,,,,,,,,8,,52,0
157970,note_on,0,0,0,,,,,,,,,3,,52,0
157970,note_on,0,0,0,,,,,,,,,10,,40,0
157970,note_on,0,0,0,,,,,,,,,15,,52,0
157970,note_on,0,0,0,,,,,,,,,0,,71,100
157970,note_on,0,0,0,,,,,,,,,3,,71,100
157970,note_on,0,0,0,,,,,,,,,5,,71,100
157970,note_on,0,0,0,,,,,,,,,13,,71,100
157975,note_on,5,0,0,,,,,,,,,5,,73,0
157975,note_on,0,0,0,,,,,,,,,13,,73,0
157975,note_on,0,0,0,,,,,,,,,0,,73,0
157975,note_on,0,0,0,,,,,,,,,3,,73,0
157980,note_on,5,0,0,,,,,,,,,0,,40,100
157980,note_on,0,0,0,,,,,,,,,0,,73,100
157980,note_on,0,0,0,,,,,,,,,3,,40,100
157980,note_on,0,0,0,,,,,,,,,3,,73,100
157980,note_on,0,0,0,,,,,,,,,5,,73,100
157980,note_on,0,0,0,,,,,,,,,6,,62,100
157980,note_on,0,0,0,,,,,,,,,7,,62,100
157980,note_on,0,0,0,,,,,,,,,8,,40,100
157980,note_on,0,0,0,,,,,,,,,10,,28,100
157980,note_on,0,0,0,,,,,,,,,13,,73,100
157980,note_on,0,0,0,,,,,,,,,14,,40,100
157980,note_on,0,0,0,,,,,,,,,15,,40,100
157985,note_on,5,0,0,,,,,,,,,0,,71,0
157985,note_on,0,0,0,,,,,,,,,5,,71,0
157985,note_on,0,0,0,,,,,,,,,13,,71,0
157985,note_on,0,0,0,,,,,,,,,3,,71,0
157990,note_on,5,0,0,,,,,,,,,0,,71,100
157990,note_on,0,0,0,,,,,,,,,3,,71,100
157990,note_on,0,0,0,,,,,,,,,5,,71,100
157990,note_on,0,0,0,,,,,,,,,13,,71,100
157995,note_on,5,0,0,,,,,,,,,3,,73,0
157995,note_on,0,0,0,,,,,,,,,5,,73,0
157995,note_on,0,0,0,,,,,,,,,0,,73,0
157995,note_on,0,0,0,,,,,,,,,13,,73,0
158010,note_on,15,0,0,,,,,,,,,13,,71,0
158010,note_on,0,0,0,,,,,,,,,3,,71,0
158010,note_on,0,0,0,,,,,,,,,0,,71,0
158010,note_on,0,0,0,,,,,,,,,5,,71,0
158010,note_on,0,0,0,,,,,,,,,0,,69,100
158010,note_on,0,0,0,,,,,,,,,3,,69,100
158010,note_on,0,0,0,,,,,,,,,5,,69,100
158010,note_on,0,0,0,,,,,,,,,13,,69,100
158020,note_on,10,0,0,,,,,,,,,7,,62,0
158020,note_on,0,0,0,,,,,,,,,6,,62,0
158030,note_on,10,0,0,,,,,,,,,3,,69,0
158030,note_on,0,0,0,,,,,,,,,14,,40,0
158030,note_on,0,0,0,,,,,,,,,15,,40,0
158030,note_on,0,0,0,,,,,,,,,10,,28,0
158030,note_on,0,0,0,,,,,,,,,3,,40,0
158030,note_on,0,0,0,,,,,,,,,0,,40,0
158030,note_on,0,0,0,,,,,,,,,5,,69,0
158030,note_on,0,0,0,,,,,,,,,0,,69,0
158030,note_on,0,0,0,,,,,,,,,13,,69,0
158030,note_on,0,0,0,,,,,,,,,8,,40,0
158040,note_on,10,0,0,,,,,,,,,0,,45,100
158040,note_on,0,0,0,,,,,,,,,0,,69,100
158040,note_on,0,0,0,,,,,,,,,3,,45,100
158040,note_on,0,0,0,,,,,,,,,3,,69,100
158040,note_on,0,0,0,,,,,,,,,5,,69,100
158040,note_on,0,0,0,,,,,,,,,6,,61,100
158040,note_on,0,0,0,,,,,,,,,7,,61,100
158040,note_on,0,0,0,,,,,,,,,8,,45,100
158040,note_on,0,0,0,,,,,,,,,10,,33,100
158040,note_on,0,0,0,,,,,,,,,13,,69,100
158040,note_on,0,0,0,,,,,,,,,14,,45,100
158040,note_on,0,0,0,,,,,,,,,15,,45,100
158140,note_on,100,0,0,,,,,,,,,7,,61,0
158140,note_on,0,0,0,,,,,,,,,6,,61,0
158160,note_on,20,0,0,,,,,,,,,10,,33,0
158160,note_on,0,0,0,,,,,,,,,3,,45,0
158160,note_on,0,0,0,,,,,,,,,3,,69,0
158160,note_on,0,0,0,,,,,,,,,0,,45,0
158160,note_on,0,0,0,,,,,,,,,5,,69,0
158160,note_on,0,0,0,,,,,,,,,15,,45,0
158160,note_on,0,0,0,,,,,,,,,13,,69,0
158160,note_on,0,0,0,,,,,,,,,8,,45,0
158160,note_on,0,0,0,,,,,,,,,0,,69,0
158160,note_on,0,0,0,,,,,,,,,14,,45,0
158199,control_change,39,0,0,,,,,,,0,42,0,,,
158199,control_change,0,0,0,,,,,,,0,42,0,,,
158199,control_change,0,0,0,,,,,,,0,42,0,,,
158199,control_change,0,0,0,,,,,,,0,42,0,,,
158200,control_change,1,0,0,,,,,,,0,42,0,,,
158200,control_change,0,0,0,,,,,,,0,42,0,,,
158200,control_change,0,0,0,,,,,,,0,42,0,,,
158200,control_change,0,0,0,,,,,,,0,42,0,,,
158200,control_change,0,0,0,,,,,,,0,42,0,,,
158200,control_change,0,0,0,,,,,,,0,42,0,,,
158200,control_change,0,0,0,,,,,,,0,42,0,,,
158200,control_change,0,0,0,,,,,,,0,42,0,,,
158200,control_change,0,0,0,,,,,,,0,42,0,,,
158200,program_change,0,0,0,,,,,,,,,0,107,,
158220,note_on,20,0,0,,,,,,,,,0,,83,100
158250,note_on,30,0,0,,,,,,,,,0,,83,0
158280,note_on,30,0,0,,,,,,,,,0,,80,100
158280,note_on,0,0,0,,,,,,,,,7,,52,100
158280,note_on,0,0,0,,,,,,,,,7,,64,100
158280,note_on,0,0,0,,,,,,,,,11,,64,100
158340,note_on,60,0,0,,,,,,,,,0,,80,0
158340,note_on,0,0,0,,,,,,,,,0,,76,100
158370,note_on,30,0,0,,,,,,,,,0,,76,0
158400,note_on,30,0,0,,,,,,,,,0,,78,100
158459,control_change,59,0,0,,,,,,,0,42,1,,,
158459,control_change,0,0,0,,,,,,,0,42,1,,,
158459,control_change,0,0,0,,,,,,,0,42,1,,,
158459,control_change,0,0,0,,,,,,,0,42,1,,,
158460,note_on,1,0,0,,,,,,,,,0,,78,0
158460,control_change,0,0,0,,,,,,,0,42,1,,,
158460,note_on,0,0,0,,,,,,,,,1,,71,100
158460,note_on,0,0,0,,,,,,,,,0,,75,100
158460,program_change,0,0,0,,,,,,,,,1,73,,
158490,note_on,30,0,0,,,,,,,,,0,,75,0
158490,note_on,0,0,0,,,,,,,,,1,,71,0
158520,note_on,30,0,0,,,,,,,,,0,,76,100
158520,note_on,0,0,0,,,,,,,,,1,,68,100
158580,note_on,60,0,0,,,,,,,,,1,,68,0
158580,note_on,0,0,0,,,,,,,,,0,,76,0
158580,note_on,0,0,0,,,,,,,,,0,,80,100
158580,note_on,0,0,0,,,,,,,,,1,,64,100
158610,note_on,30,0,0,,,,,,,,,1,,64,0
158610,note_on,0,0,0,,,,,,,,,0,,80,0
158640,note_on,30,0,0,,,,,,,,,0,,81,100
158640,note_on,0,0,0,,,,,,,,,1,,66,100
158700,note_on,60,0,0,,,,,,,,,1,,66,0
158700,note_on,0,0,0,,,,,,,,,0,,81,0
158700,note_on,0,0,0,,,,,,,,,0,,78,100
158700,note_on,0,0,0,,,,,,,,,1,,59,100
158730,note_on,30,0,0,,,,,,,,,1,,59,0
158730,note_on,0,0,0,,,,,,,,,0,,78,0
158760,note_on,30,0,0,,,,,,,,,0,,80,100
158760,note_on,0,0,0,,,,,,,,,1,,64,100
158820,note_on,60,0,0,,,,,,,,,1,,64,0
158820,note_on,0,0,0,,,,,,,,,0,,80,0
158820,note_on,0,0,0,,,,,,,,,0,,76,100
158820,note_on,0,0,0,,,,,,,,,1,,68,100
158850,note_on,30,0,0,,,,,,,,,1,,68,0
158850,note_on,0,0,0,,,,,,,,,0,,76,0
158880,note_on,30,0,0,,,,,,,,,0,,78,100
158880,note_on,0,0,0,,,,,,,,,1,,69,100
158940,note_on,60,0,0,,,,,,,,,1,,69,0
158940,note_on,0,0,0,,,,,,,,,0,,78,0
158940,note_on,0,0,0,,,,,,,,,0,,75,100
158940,note_on,0,0,0,,,,,,,,,1,,66,100
158970,note_on,30,0,0,,,,,,,,,1,,66,0
158970,note_on,0,0,0,,,,,,,,,0,,75,0
159000,note_on,30,0,0,,,,,,,,,0,,76,100
159000,note_on,0,0,0,,,,,,,,,1,,68,100
159030,note_on,30,0,0,,,,,,,,,0,,76,0
159030,note_on,0,0,0,,,,,,,,,0,,78,100
159060,note_on,30,0,0,,,,,,,,,0,,78,0
159060,note_on,0,0,0,,,,,,,,,1,,68,0
159060,note_on,0,0,0,,,,,,,,,0,,80,100
159060,note_on,0,0,0,,,,,,,,,1,,64,100
159090,note_on,30,0,0,,,,,,,,,1,,64,0
159090,note_on,0,0,0,,,,,,,,,0,,80,0
159120,note_on,30,0,0,,,,,,,,,0,,78,100
159120,note_on,0,0,0,,,,,,,,,1,,66,100
159150,note_on,30,0,0,,,,,,,,,0,,78,0
159150,note_on,0,0,0,,,,,,,,,0,,80,100
159180,note_on,30,0,0,,,,,,,,,0,,80,0
159180,note_on,0,0,0,,,,,,,,,1,,66,0
159180,note_on,0,0,0,,,,,,,,,0,,81,100
159180,note_on,0,0,0,,,,,,,,,1,,63,100
159210,note_on,30,0,0,,,,,,,,,1,,63,0
159210,note_on,0,0,0,,,,,,,,,0,,81,0
159240,note_on,30,0,0,,,,,,,,,0,,80,100
159240,note_on,0,0,0,,,,,,,,,1,,64,100
159270,note_on,30,0,0,,,,,,,,,1,,64,0
159270,note_on,0,0,0,,,,,,,,,0,,80,0
159270,note_on,0,0,0,,,,,,,,,0,,78,100
159270,note_on,0,0,0,,,,,,,,,1,,66,100
159300,note_on,30,0,0,,,,,,,,,1,,66,0
159300,note_on,0,0,0,,,,,,,,,0,,78,0
159300,note_on,0,0,0,,,,,,,,,0,,76,100
159300,note_on,0,0,0,,,,,,,,,1,,68,100
159330,note_on,30,0,0,,,,,,,,,1,,68,0
159330,note_on,0,0,0,,,,,,,,,0,,76,0
159360,note_on,30,0,0,,,,,,,,,0,,75,100
159360,note_on,0,0,0,,,,,,,,,1,,66,100
159390,note_on,30,0,0,,,,,,,,,1,,66,0
159390,note_on,0,0,0,,,,,,,,,0,,75,0
159390,note_on,0,0,0,,,,,,,,,0,,76,100
159390,note_on,0,0,0,,,,,,,,,1,,68,100
159420,note_on,30,0,0,,,,,,,,,1,,68,0
159420,note_on,0,0,0,,,,,,,,,0,,76,0
159420,note_on,0,0,0,,,,,,,,,0,,78,100
159420,note_on,0,0,0,,,,,,,,,1,,69,100
159450,note_on,30,0,0,,,,,,,,,1,,69,0
159450,note_on,0,0,0,,,,,,,,,0,,78,0
159480,note_on,30,0,0,,,,,,,,,0,,76,100
159480,note_on,0,0,0,,,,,,,,,1,,68,100
159510,note_on,30,0,0,,,,,,,,,1,,68,0
159510,note_on,0,0,0,,,,,,,,,0,,76,0
159510,note_on,0,0,0,,,,,,,,,0,,78,100
159510,note_on,0,0,0,,,,,,,,,1,,69,100
159540,note_on,30,0,0,,,,,,,,,1,,69,0
159540,note_on,0,0,0,,,,,,,,,0,,78,0
159540,note_on,0,0,0,,,,,,,,,0,,80,100
159540,note_on,0,0,0,,,,,,,,,1,,71,100
159570,note_on,30,0,0,,,,,,,,,1,,71,0
159570,note_on,0,0,0,,,,,,,,,0,,80,0
159600,note_on,30,0,0,,,,,,,,,0,,78,100
159600,note_on,0,0,0,,,,,,,,,1,,63,100
159630,note_on,30,0,0,,,,,,,,,1,,63,0
159630,note_on,0,0,0,,,,,,,,,0,,78,0
159630,note_on,0,0,0,,,,,,,,,0,,80,100
159630,note_on,0,0,0,,,,,,,,,1,,64,100
159660,note_on,30,0,0,,,,,,,,,1,,64,0
159660,note_on,0,0,0,,,,,,,,,0,,80,0
159660,note_on,0,0,0,,,,,,,,,0,,81,100
159660,note_on,0,0,0,,,,,,,,,1,,66,100
159690,note_on,30,0,0,,,,,,,,,1,,66,0
159690,note_on,0,0,0,,,,,,,,,0,,81,0
159720,note_on,30,0,0,,,,,,,,,0,,80,100
159720,note_on,0,0,0,,,,,,,,,1,,64,100
159750,note_on,30,0,0,,,,,,,,,1,,64,0
159750,note_on,0,0,0,,,,,,,,,0,,80,0
159750,note_on,0,0,0,,,,,,,,,0,,81,100
159750,note_on,0,0,0,,,,,,,,,1,,66,100
159780,note_on,30,0,0,,,,,,,,,1,,66,0
159780,note_on,0,0,0,,,,,,,,,0,,81,0
159780,note_on,0,0,0,,,,,,,,,0,,83,100
159780,note_on,0,0,0,,,,,,,,,1,,68,100
159810,note_on,30,0,0,,,,,,,,,1,,68,0
159810,note_on,0,0,0,,,,,,,,,0,,83,0
159840,note_on,30,0,0,,,,,,,,,0,,81,100
159840,note_on,0,0,0,,,,,,,,,1,,66,100
159870,note_on,30,0,0,,,,,,,,,1,,66,0
159870,note_on,0,0,0,,,,,,,,,0,,81,0
159870,note_on,0,0,0,,,,,,,,,0,,83,100
159870,note_on,0,0,0,,,,,,,,,1,,68,100
159900,note_on,30,0,0,,,,,,,,,1,,68,0
159900,note_on,0,0,0,,,,,,,,,0,,83,0
159900,note_on,0,0,0,,,,,,,,,0,,85,100
159900,note_on,0,0,0,,,,,,,,,1,,69,100
159930,note_on,30,0,0,,,,,,,,,1,,69,0
159930,note_on,0,0,0,,,,,,,,,0,,85,0
159960,note_on,30,0,0,,,,,,,,,0,,83,100
159960,note_on,0,0,0,,,,,,,,,1,,68,100
160110,note_on,150,0,0,,,,,,,,,1,,68,0
160110,note_on,0,0,0,,,,,,,,,0,,83,0
160140,note_on,30,0,0,,,,,,,,,1,,76,100
160170,note_on,30,0,0,,,,,,,,,1,,76,0
160200,note_on,30,0,0,,,,,,,,,1,,73,100
160200,note_on,0,0,0,,,,,,,,,8,,45,100
160200,note_on,0,0,0,,,,,,,,,10,,45,100
160200,note_on,0,0,0,,,,,,,,,14,,57,100
160260,note_on,60,0,0,,,,,,,,,1,,73,0
160260,note_on,0,0,0,,,,,,,,,1,,69,100
160290,note_on,30,0,0,,,,,,,,,1,,69,0
160320,note_on,30,0,0,,,,,,,,,1,,71,100
160380,note_on,60,0,0,,,,,,,,,1,,71,0
160380,note_on,0,0,0,,,,,,,,,0,,64,100
160380,note_on,0,0,0,,,,,,,,,1,,68,100
160410,note_on,30,0,0,,,,,,,,,1,,68,0
160410,note_on,0,0,0,,,,,,,,,0,,64,0
160440,note_on,30,0,0,,,,,,,,,0,,61,100
160440,note_on,0,0,0,,,,,,,,,1,,69,100
160500,note_on,60,0,0,,,,,,,,,1,,69,0
160500,note_on,0,0,0,,,,,,,,,0,,61,0
160500,note_on,0,0,0,,,,,,,,,0,,57,100
160500,note_on,0,0,0,,,,,,,,,1,,73,100
160530,note_on,30,0,0,,,,,,,,,1,,73,0
160530,note_on,0,0,0,,,,,,,,,0,,57,0
160560,note_on,30,0,0,,,,,,,,,0,,59,100
160560,note_on,0,0,0,,,,,,,,,1,,74,100
160620,note_on,60,0,0,,,,,,,,,1,,74,0
160620,note_on,0,0,0,,,,,,,,,0,,59,0
160620,note_on,0,0,0,,,,,,,,,0,,52,100
160620,note_on,0,0,0,,,,,,,,,1,,71,100
160650,note_on,30,0,0,,,,,,,,,1,,71,0
160650,note_on,0,0,0,,,,,,,,,0,,52,0
160680,note_on,30,0,0,,,,,,,,,0,,57,100
160680,note_on,0,0,0,,,,,,,,,1,,73,100
160740,note_on,60,0,0,,,,,,,,,1,,73,0
160740,note_on,0,0,0,,,,,,,,,0,,57,0
160740,note_on,0,0,0,,,,,,,,,0,,61,100
160740,note_on,0,0,0,,,,,,,,,1,,69,100
160770,note_on,30,0,0,,,,,,,,,1,,69,0
160770,note_on,0,0,0,,,,,,,,,0,,61,0
160800,note_on,30,0,0,,,,,,,,,0,,62,100
160800,note_on,0,0,0,,,,,,,,,1,,71,100
160860,note_on,60,0,0,,,,,,,,,1,,71,0
160860,note_on,0,0,0,,,,,,,,,0,,62,0
160860,note_on,0,0,0,,,,,,,,,0,,59,100
160860,note_on,0,0,0,,,,,,,,,1,,68,100
160890,note_on,30,0,0,,,,,,,,,1,,68,0
160890,note_on,0,0,0,,,,,,,,,0,,59,0
160920,note_on,30,0,0,,,,,,,,,0,,61,100
160920,note_on,0,0,0,,,,,,,,,1,,69,100
160950,note_on,30,0,0,,,,,,,,,1,,69,0
160950,note_on,0,0,0,,,,,,,,,1,,71,100
160980,note_on,30,0,0,,,,,,,,,1,,71,0
160980,note_on,0,0,0,,,,,,,,,0,,61,0
160980,note_on,0,0,0,,,,,,,,,0,,57,100
160980,note_on,0,0,0,,,,,,,,,1,,73,100
161010,note_on,30,0,0,,,,,,,,,1,,73,0
161010,note_on,0,0,0,,,,,,,,,0,,57,0
161040,note_on,30,0,0,,,,,,,,,0,,59,100
161040,note_on,0,0,0,,,,,,,,,1,,71,100
161070,note_on,30,0,0,,,,,,,,,1,,71,0
161070,note_on,0,0,0,,,,,,,,,1,,73,100
161100,note_on,30,0,0,,,,,,,,,1,,73,0
161100,note_on,0,0,0,,,,,,,,,0,,59,0
161100,note_on,0,0,0,,,,,,,,,0,,56,100
161100,note_on,0,0,0,,,,,,,,,1,,74,100
161130,note_on,30,0,0,,,,,,,,,1,,74,0
161130,note_on,0,0,0,,,,,,,,,0,,56,0
161160,note_on,30,0,0,,,,,,,,,0,,57,100
161160,note_on,0,0,0,,,,,,,,,1,,73,100
161190,note_on,30,0,0,,,,,,,,,1,,73,0
161190,note_on,0,0,0,,,,,,,,,0,,57,0
161190,note_on,0,0,0,,,,,,,,,0,,59,100
161190,note_on,0,0,0,,,,,,,,,1,,74,100
161220,note_on,30,0,0,,,,,,,,,1,,74,0
161220,note_on,0,0,0,,,,,,,,,0,,59,0
161220,note_on,0,0,0,,,,,,,,,0,,61,100
161220,note_on,0,0,0,,,,,,,,,1,,76,100
161250,note_on,30,0,0,,,,,,,,,1,,76,0
161250,note_on,0,0,0,,,,,,,,,0,,61,0
161280,note_on,30,0,0,,,,,,,,,0,,59,100
161280,note_on,0,0,0,,,,,,,,,1,,68,100
161310,note_on,30,0,0,,,,,,,,,1,,68,0
161310,note_on,0,0,0,,,,,,,,,0,,59,0
161310,note_on,0,0,0,,,,,,,,,0,,61,100
161310,note_on,0,0,0,,,,,,,,,1,,69,100
161340,note_on,30,0,0,,,,,,,,,1,,69,0
161340,note_on,0,0,0,,,,,,,,,0,,61,0
161340,note_on,0,0,0,,,,,,,,,0,,62,100
161340,note_on,0,0,0,,,,,,,,,1,,71,100
161370,note_on,30,0,0,,,,,,,,,1,,71,0
161370,note_on,0,0,0,,,,,,,,,0,,62,0
161400,note_on,30,0,0,,,,,,,,,0,,61,100
161400,note_on,0,0,0,,,,,,,,,1,,69,100
161430,note_on,30,0,0,,,,,,,,,1,,69,0
161430,note_on,0,0,0,,,,,,,,,0,,61,0
161430,note_on,0,0,0,,,,,,,,,0,,62,100
161430,note_on,0,0,0,,,,,,,,,1,,71,100
161460,note_on,30,0,0,,,,,,,,,1,,71,0
161460,note_on,0,0,0,,,,,,,,,0,,62,0
161460,note_on,0,0,0,,,,,,,,,0,,64,100
161460,note_on,0,0,0,,,,,,,,,1,,73,100
161490,note_on,30,0,0,,,,,,,,,1,,73,0
161490,note_on,0,0,0,,,,,,,,,0,,64,0
161520,note_on,30,0,0,,,,,,,,,0,,56,100
161520,note_on,0,0,0,,,,,,,,,1,,71,100
161550,note_on,30,0,0,,,,,,,,,1,,71,0
161550,note_on,0,0,0,,,,,,,,,0,,56,0
161550,note_on,0,0,0,,,,,,,,,0,,57,100
161550,note_on,0,0,0,,,,,,,,,1,,73,100
161580,note_on,30,0,0,,,,,,,,,1,,73,0
161580,note_on,0,0,0,,,,,,,,,0,,57,0
161580,note_on,0,0,0,,,,,,,,,0,,59,100
161580,note_on,0,0,0,,,,,,,,,1,,74,100
161610,note_on,30,0,0,,,,,,,,,1,,74,0
161610,note_on,0,0,0,,,,,,,,,0,,59,0
161640,note_on,30,0,0,,,,,,,,,0,,57,100
161640,note_on,0,0,0,,,,,,,,,1,,73,100
161670,note_on,30,0,0,,,,,,,,,1,,73,0
161670,note_on,0,0,0,,,,,,,,,0,,57,0
161670,note_on,0,0,0,,,,,,,,,0,,59,100
161670,note_on,0,0,0,,,,,,,,,1,,74,100
161700,note_on,30,0,0,,,,,,,,,1,,74,0
161700,note_on,0,0,0,,,,,,,,,0,,59,0
161700,note_on,0,0,0,,,,,,,,,0,,61,100
161700,note_on,0,0,0,,,,,,,,,1,,76,100
161730,note_on,30,0,0,,,,,,,,,1,,76,0
161730,note_on,0,0,0,,,,,,,,,0,,61,0
161760,note_on,30,0,0,,,,,,,,,0,,59,100
161760,note_on,0,0,0,,,,,,,,,1,,74,100
161790,note_on,30,0,0,,,,,,,,,1,,74,0
161790,note_on,0,0,0,,,,,,,,,0,,59,0
161790,note_on,0,0,0,,,,,,,,,0,,61,100
161790,note_on,0,0,0,,,,,,,,,1,,76,100
161820,note_on,30,0,0,,,,,,,,,1,,76,0
161820,note_on,0,0,0,,,,,,,,,0,,61,0
161820,note_on,0,0,0,,,,,,,,,0,,62,100
161820,note_on,0,0,0,,,,,,,,,1,,78,100
161850,note_on,30,0,0,,,,,,,,,1,,78,0
161850,note_on,0,0,0,,,,,,,,,0,,62,0
161880,note_on,30,0,0,,,,,,,,,0,,61,100
161880,note_on,0,0,0,,,,,,,,,1,,76,100
162030,note_on,150,0,0,,,,,,,,,1,,76,0
162030,note_on,0,0,0,,,,,,,,,0,,61,0
162030,note_on,0,0,0,,,,,,,,,11,,64,0
162030,note_on,0,0,0,,,,,,,,,7,,52,0
162030,note_on,0,0,0,,,,,,,,,7,,64,0
162045,control_change,15,0,0,,,,,,,11,125,5,,,
162047,control_change,2,0,0,,,,,,,11,126,6,,,
162051,control_change,4,0,0,,,,,,,11,125,7,,,
162051,control_change,0,0,0,,,,,,,11,125,13,,,
162059,control_change,8,0,0,,,,,,,0,43,0,,,
162059,control_change,0,0,0,,,,,,,0,43,0,,,
162059,control_change,0,0,0,,,,,,,0,43,0,,,
162059,control_change,0,0,0,,,,,,,0,43,0,,,
162060,control_change,1,0,0,,,,,,,0,43,0,,,
162060,control_change,0,0,0,,,,,,,0,43,0,,,
162060,control_change,0,0,0,,,,,,,0,43,0,,,
162060,control_change,0,0,0,,,,,,,0,43,0,,,
162060,control_change,0,0,0,,,,,,,0,43,0,,,
162060,control_change,0,0,0,,,,,,,0,43,0,,,
162060,control_change,0,0,0,,,,,,,0,43,0,,,
162060,control_change,0,0,0,,,,,,,0,43,0,,,
162060,control_change,0,0,0,,,,,,,0,43,0,,,
162060,program_change,0,0,0,,,,,,,,,0,59,,
162060,note_on,0,0,0,,,,,,,,,0,,64,100
162060,note_on,0,0,0,,,,,,,,,3,,64,100
162060,note_on,0,0,0,,,,,,,,,5,,64,100
162060,note_on,0,0,0,,,,,,,,,6,,64,100
162060,note_on,0,0,0,,,,,,,,,7,,64,100
162060,note_on,0,0,0,,,,,,,,,13,,64,100
162090,note_on,30,0,0,,,,,,,,,13,,64,0
162090,note_on,0,0,0,,,,,,,,,0,,64,0
162090,note_on,0,0,0,,,,,,,,,10,,45,0
162090,note_on,0,0,0,,,,,,,,,3,,64,0
162090,note_on,0,0,0,,,,,,,,,8,,45,0
162090,note_on,0,0,0,,,,,,,,,14,,57,0
162090,note_on,0,0,0,,,,,,,,,6,,64,0
162090,note_on,0,0,0,,,,,,,,,5,,64,0
162090,note_on,0,0,0,,,,,,,,,7,,64,0
162107,control_change,17,0,0,,,,,,,11,125,10,,,
162109,control_change,2,0,0,,,,,,,11,123,14,,,
162113,control_change,4,0,0,,,,,,,11,123,8,,,
162120,note_on,7,0,0,,,,,,,,,0,,45,100
162120,note_on,0,0,0,,,,,,,,,0,,73,100
162120,note_on,0,0,0,,,,,,,,,3,,45,100
162120,note_on,0,0,0,,,,,,,,,3,,73,100
162120,note_on,0,0,0,,,,,,,,,5,,73,100
162120,note_on,0,0,0,,,,,,,,,6,,69,100
162120,note_on,0,0,0,,,,,,,,,7,,69,100
162120,note_on,0,0,0,,,,,,,,,8,,45,100
162120,note_on,0,0,0,,,,,,,,,10,,33,100
162120,note_on,0,0,0,,,,,,,,,13,,73,100
162120,note_on,0,0,0,,,,,,,,,14,,45,100
162120,note_on,0,0,0,,,,,,,,,15,,45,100
162150,note_on,30,0,0,,,,,,,,,13,,73,0
162150,note_on,0,0,0,,,,,,,,,7,,69,0
162150,note_on,0,0,0,,,,,,,,,3,,73,0
162150,note_on,0,0,0,,,,,,,,,0,,73,0
162150,note_on,0,0,0,,,,,,,,,6,,69,0
162150,note_on,0,0,0,,,,,,,,,5,,73,0
162180,note_on,30,0,0,,,,,,,,,8,,45,0
162180,note_on,0,0,0,,,,,,,,,15,,45,0
162180,note_on,0,0,0,,,,,,,,,14,,45,0
162180,note_on,0,0,0,,,,,,,,,10,,33,0
162180,note_on,0,0,0,,,,,,,,,0,,45,0
162180,note_on,0,0,0,,,,,,,,,3,,45,0
162180,note_on,0,0,0,,,,,,,,,0,,71,100
162180,note_on,0,0,0,,,,,,,,,3,,71,100
162180,note_on,0,0,0,,,,,,,,,5,,71,100
162180,note_on,0,0,0,,,,,,,,,6,,68,100
162180,note_on,0,0,0,,,,,,,,,7,,68,100
162180,note_on,0,0,0,,,,,,,,,13,,71,100
162240,note_on,60,0,0,,,,,,,,,0,,50,100
162240,note_on,0,0,0,,,,,,,,,3,,50,100
162240,note_on,0,0,0,,,,,,,,,8,,50,100
162240,note_on,0,0,0,,,,,,,,,10,,38,100
162240,note_on,0,0,0,,,,,,,,,14,,50,100
162240,note_on,0,0,0,,,,,,,,,15,,50,100
162270,note_on,30,0,0,,,,,,,,,13,,71,0
162270,note_on,0,0,0,,,,,,,,,6,,68,0
162270,note_on,0,0,0,,,,,,,,,0,,71,0
162270,note_on,0,0,0,,,,,,,,,5,,71,0
162270,note_on,0,0,0,,,,,,,,,7,,68,0
162270,note_on,0,0,0,,,,,,,,,3,,71,0
162300,note_on,30,0,0,,,,,,,,,0,,50,0
162300,note_on,0,0,0,,,,,,,,,8,,50,0
162300,note_on,0,0,0,,,,,,,,,14,,50,0
162300,note_on,0,0,0,,,,,,,,,15,,50,0
162300,note_on,0,0,0,,,,,,,,,3,,50,0
162300,note_on,0,0,0,,,,,,,,,10,,38,0
162300,note_on,0,0,0,,,,,,,,,0,,69,100
162300,note_on,0,0,0,,,,,,,,,3,,69,100
162300,note_on,0,0,0,,,,,,,,,5,,69,100
162300,note_on,0,0,0,,,,,,,,,6,,66,100
162300,note_on,0,0,0,,,,,,,,,7,,66,100
162300,note_on,0,0,0,,,,,,,,,13,,69,100
162330,note_on,30,0,0,,,,,,,,,13,,69,0
162330,note_on,0,0,0,,,,,,,,,3,,69,0
162330,note_on,0,0,0,,,,,,,,,5,,69,0
162330,note_on,0,0,0,,,,,,,,,0,,69,0
162330,note_on,0,0,0,,,,,,,,,7,,66,0
162330,note_on,0,0,0,,,,,,,,,6,,66,0
162360,note_on,30,0,0,,,,,,,,,0,,47,100
162360,note_on,0,0,0,,,,,,,,,0,,74,100
162360,note_on,0,0,0,,,,,,,,,3,,47,100
162360,note_on,0,0,0,,,,,,,,,3,,74,100
162360,note_on,0,0,0,,,,,,,,,5,,74,100
162360,note_on,0,0,0,,,,,,,,,6,,71,100
162360,note_on,0,0,0,,,,,,,,,7,,71,100
162360,note_on,0,0,0,,,,,,,,,8,,47,100
162360,note_on,0,0,0,,,,,,,,,10,,35,100
162360,note_on,0,0,0,,,,,,,,,13,,74,100
162360,note_on,0,0,0,,,,,,,,,14,,47,100
162360,note_on,0,0,0,,,,,,,,,15,,47,100
162390,note_on,30,0,0,,,,,,,,,13,,74,0
162390,note_on,0,0,0,,,,,,,,,7,,71,0
162390,note_on,0,0,0,,,,,,,,,3,,74,0
162390,note_on,0,0,0,,,,,,,,,0,,74,0
162390,note_on,0,0,0,,,,,,,,,6,,71,0
162390,note_on,0,0,0,,,,,,,,,5,,74,0
162420,note_on,30,0,0,,,,,,,,,8,,47,0
162420,note_on,0,0,0,,,,,,,,,15,,47,0
162420,note_on,0,0,0,,,,,,,,,14,,47,0
162420,note_on,0,0,0,,,,,,,,,10,,35,0
162420,note_on,0,0,0,,,,,,,,,0,,47,0
162420,note_on,0,0,0,,,,,,,,,3,,47,0
162420,note_on,0,0,0,,,,,,,,,0,,73,100
162420,note_on,0,0,0,,,,,,,,,3,,73,100
162420,note_on,0,0,0,,,,,,,,,5,,73,100
162420,note_on,0,0,0,,,,,,,,,6,,69,100
162420,note_on,0,0,0,,,,,,,,,7,,69,100
162420,note_on,0,0,0,,,,,,,,,13,,73,100
162480,note_on,60,0,0,,,,,,,,,0,,52,100
162480,note_on,0,0,0,,,,,,,,,3,,52,100
162480,note_on,0,0,0,,,,,,,,,8,,52,100
162480,note_on,0,0,0,,,,,,,,,10,,40,100
162480,note_on,0,0,0,,,,,,,,,14,,52,100
162480,note_on,0,0,0,,,,,,,,,15,,52,100
162510,note_on,30,0,0,,,,,,,,,13,,73,0
162510,note_on,0,0,0,,,,,,,,,6,,69,0
162510,note_on,0,0,0,,,,,,,,,0,,73,0
162510,note_on,0,0,0,,,,,,,,,5,,73,0
162510,note_on,0,0,0,,,,,,,,,7,,69,0
162510,note_on,0,0,0,,,,,,,,,3,,73,0
162540,note_on,30,0,0,,,,,,,,,0,,52,0
162540,note_on,0,0,0,,,,,,,,,8,,52,0
162540,note_on,0,0,0,,,,,,,,,14,,52,0
162540,note_on,0,0,0,,,,,,,,,15,,52,0
162540,note_on,0,0,0,,,,,,,,,3,,52,0
162540,note_on,0,0,0,,,,,,,,,10,,40,0
162540,note_on,0,0,0,,,,,,,,,0,,71,100
162540,note_on,0,0,0,,,,,,,,,3,,71,100
162540,note_on,0,0,0,,,,,,,,,5,,71,100
162540,note_on,0,0,0,,,,,,,,,6,,68,100
162540,note_on,0,0,0,,,,,,,,,7,,68,100
162540,note_on,0,0,0,,,,,,,,,13,,71,100
162570,note_on,30,0,0,,,,,,,,,13,,71,0
162570,note_on,0,0,0,,,,,,,,,3,,71,0
162570,note_on,0,0,0,,,,,,,,,5,,71,0
162570,note_on,0,0,0,,,,,,,,,0,,71,0
162570,note_on,0,0,0,,,,,,,,,7,,68,0
162570,note_on,0,0,0,,,,,,,,,6,,68,0
162600,note_on,30,0,0,,,,,,,,,0,,49,100
162600,note_on,0,0,0,,,,,,,,,0,,76,100
162600,note_on,0,0,0,,,,,,,,,3,,49,100
162600,note_on,0,0,0,,,,,,,,,3,,76,100
162600,note_on,0,0,0,,,,,,,,,5,,76,100
162600,note_on,0,0,0,,,,,,,,,6,,73,100
162600,note_on,0,0,0,,,,,,,,,7,,73,100
162600,note_on,0,0,0,,,,,,,,,8,,49,100
162600,note_on,0,0,0,,,,,,,,,10,,37,100
162600,note_on,0,0,0,,,,,,,,,13,,76,100
162600,note_on,0,0,0,,,,,,,,,14,,49,100
162600,note_on,0,0,0,,,,,,,,,15,,49,100
162630,note_on,30,0,0,,,,,,,,,13,,76,0
162630,note_on,0,0,0,,,,,,,,,7,,73,0
162630,note_on,0,0,0,,,,,,,,,3,,76,0
162630,note_on,0,0,0,,,,,,,,,0,,76,0
162630,note_on,0,0,0,,,,,,,,,6,,73,0
162630,note_on,0,0,0,,,,,,,,,5,,76,0
162660,note_on,30,0,0,,,,,,,,,8,,49,0
162660,note_on,0,0,0,,,,,,,,,15,,49,0
162660,note_on,0,0,0,,,,,,,,,14,,49,0
162660,note_on,0,0,0,,,,,,,,,10,,37,0
162660,note_on,0,0,0,,,,,,,,,0,,49,0
162660,note_on,0,0,0,,,,,,,,,3,,49,0
162660,note_on,0,0,0,,,,,,,,,0,,74,100
162660,note_on,0,0,0,,,,,,,,,3,,74,100
162660,note_on,0,0,0,,,,,,,,,5,,74,100
162660,note_on,0,0,0,,,,,,,,,6,,71,100
162660,note_on,0,0,0,,,,,,,,,7,,71,100
162660,note_on,0,0,0,,,,,,,,,13,,74,100
162720,note_on,60,0,0,,,,,,,,,0,,54,100
162720,note_on,0,0,0,,,,,,,,,3,,54,100
162720,note_on,0,0,0,,,,,,,,,8,,54,100
162720,note_on,0,0,0,,,,,,,,,10,,42,100
162720,note_on,0,0,0,,,,,,,,,14,,54,100
162720,note_on,0,0,0,,,,,,,,,15,,54,100
162750,note_on,30,0,0,,,,,,,,,13,,74,0
162750,note_on,0,0,0,,,,,,,,,6,,71,0
162750,note_on,0,0,0,,,,,,,,,0,,74,0
162750,note_on,0,0,0,,,,,,,,,5,,74,0
162750,note_on,0,0,0,,,,,,,,,7,,71,0
162750,note_on,0,0,0,,,,,,,,,3,,74,0
162780,note_on,30,0,0,,,,,,,,,0,,54,0
162780,note_on,0,0,0,,,,,,,,,8,,54,0
162780,note_on,0,0,0,,,,,,,,,14,,54,0
162780,note_on,0,0,0,,,,,,,,,15,,54,0
162780,note_on,0,0,0,,,,,,,,,3,,54,0
162780,note_on,0,0,0,,,,,,,,,10,,42,0
162780,note_on,0,0,0,,,,,,,,,0,,73,100
162780,note_on,0,0,0,,,,,,,,,3,,73,100
162780,note_on,0,0,0,,,,,,,,,5,,73,100
162780,note_on,0,0,0,,,,,,,,,6,,70,100
162780,note_on,0,0,0,,,,,,,,,7,,70,100
162780,note_on,0,0,0,,,,,,,,,13,,73,100
162810,note_on,30,0,0,,,,,,,,,13,,73,0
162810,note_on,0,0,0,,,,,,,,,3,,73,0
162810,note_on,0,0,0,,,,,,,,,5,,73,0
162810,note_on,0,0,0,,,,,,,,,0,,73,0
162810,note_on,0,0,0,,,,,,,,,7,,70,0
162810,note_on,0,0,0,,,,,,,,,6,,70,0
162840,note_on,30,0,0,,,,,,,,,0,,50,100
162840,note_on,0,0,0,,,,,,,,,0,,78,100
162840,note_on,0,0,0,,,,,,,,,3,,50,100
162840,note_on,0,0,0,,,,,,,,,3,,78,100
162840,note_on,0,0,0,,,,,,,,,5,,78,100
162840,note_on,0,0,0,,,,,,,,,6,,74,100
162840,note_on,0,0,0,,,,,,,,,7,,74,100
162840,note_on,0,0,0,,,,,,,,,8,,50,100
162840,note_on,0,0,0,,,,,,,,,10,,38,100
162840,note_on,0,0,0,,,,,,,,,13,,78,100
162840,note_on,0,0,0,,,,,,,,,14,,50,100
162840,note_on,0,0,0,,,,,,,,,15,,50,100
162870,note_on,30,0,0,,,,,,,,,13,,78,0
162870,note_on,0,0,0,,,,,,,,,7,,74,0
162870,note_on,0,0,0,,,,,,,,,3,,78,0
162870,note_on,0,0,0,,,,,,,,,0,,78,0
162870,note_on,0,0,0,,,,,,,,,6,,74,0
162870,note_on,0,0,0,,,,,,,,,5,,78,0
162900,note_on,30,0,0,,,,,,,,,8,,50,0
162900,note_on,0,0,0,,,,,,,,,15,,50,0
162900,note_on,0,0,0,,,,,,,,,14,,50,0
162900,note_on,0,0,0,,,,,,,,,10,,38,0
162900,note_on,0,0,0,,,,,,,,,0,,50,0
162900,note_on,0,0,0,,,,,,,,,3,,50,0
162900,note_on,0,0,0,,,,,,,,,0,,76,100
162900,note_on,0,0,0,,,,,,,,,3,,76,100
162900,note_on,0,0,0,,,,,,,,,5,,76,100
162900,note_on,0,0,0,,,,,,,,,6,,73,100
162900,note_on,0,0,0,,,,,,,,,7,,73,100
162900,note_on,0,0,0,,,,,,,,,13,,76,100
162960,note_on,60,0,0,,,,,,,,,0,,55,100
162960,note_on,0,0,0,,,,,,,,,3,,55,100
162960,note_on,0,0,0,,,,,,,,,8,,55,100
162960,note_on,0,0,0,,,,,,,,,10,,43,100
162960,note_on,0,0,0,,,,,,,,,14,,55,100
162960,note_on,0,0,0,,,,,,,,,15,,55,100
162990,note_on,30,0,0,,,,,,,,,13,,76,0
162990,note_on,0,0,0,,,,,,,,,6,,73,0
162990,note_on,0,0,0,,,,,,,,,0,,76,0
162990,note_on,0,0,0,,,,,,,,,5,,76,0
162990,note_on,0,0,0,,,,,,,,,7,,73,0
162990,note_on,0,0,0,,,,,,,,,3,,76,0
163020,note_on,30,0,0,,,,,,,,,0,,55,0
163020,note_on,0,0,0,,,,,,,,,8,,55,0
163020,note_on,0,0,0,,,,,,,,,14,,55,0
163020,note_on,0,0,0,,,,,,,,,15,,55,0
163020,note_on,0,0,0,,,,,,,,,3,,55,0
163020,note_on,0,0,0,,,,,,,,,10,,43,0
163020,note_on,0,0,0,,,,,,,,,0,,74,100
163020,note_on,0,0,0,,,,,,,,,3,,74,100
163020,note_on,0,0,0,,,,,,,,,5,,74,100
163020,note_on,0,0,0,,,,,,,,,6,,71,100
163020,note_on,0,0,0,,,,,,,,,7,,71,100
163020,note_on,0,0,0,,,,,,,,,13,,74,100
163050,note_on,30,0,0,,,,,,,,,13,,74,0
163050,note_on,0,0,0,,,,,,,,,3,,74,0
163050,note_on,0,0,0,,,,,,,,,5,,74,0
163050,note_on,0,0,0,,,,,,,,,0,,74,0
163050,note_on,0,0,0,,,,,,,,,7,,71,0
163050,note_on,0,0,0,,,,,,,,,6,,71,0
163080,note_on,30,0,0,,,,,,,,,0,,52,100
163080,note_on,0,0,0,,,,,,,,,0,,79,100
163080,note_on,0,0,0,,,,,,,,,3,,52,100
163080,note_on,0,0,0,,,,,,,,,3,,79,100
163080,note_on,0,0,0,,,,,,,,,5,,79,100
163080,note_on,0,0,0,,,,,,,,,6,,64,100
163080,note_on,0,0,0,,,,,,,,,7,,64,100
163080,note_on,0,0,0,,,,,,,,,8,,52,100
163080,note_on,0,0,0,,,,,,,,,10,,40,100
163080,note_on,0,0,0,,,,,,,,,13,,79,100
163080,note_on,0,0,0,,,,,,,,,14,,52,100
163080,note_on,0,0,0,,,,,,,,,15,,52,100
163110,note_on,30,0,0,,,,,,,,,13,,79,0
163110,note_on,0,0,0,,,,,,,,,7,,64,0
163110,note_on,0,0,0,,,,,,,,,3,,79,0
163110,note_on,0,0,0,,,,,,,,,0,,79,0
163110,note_on,0,0,0,,,,,,,,,6,,64,0
163110,note_on,0,0,0,,,,,,,,,5,,79,0
163140,note_on,30,0,0,,,,,,,,,8,,52,0
163140,note_on,0,0,0,,,,,,,,,15,,52,0
163140,note_on,0,0,0,,,,,,,,,14,,52,0
163140,note_on,0,0,0,,,,,,,,,10,,40,0
163140,note_on,0,0,0,,,,,,,,,0,,52,0
163140,note_on,0,0,0,,,,,,,,,3,,52,0
163140,note_on,0,0,0,,,,,,,,,0,,78,100
163140,note_on,0,0,0,,,,,,,,,3,,78,100
163140,note_on,0,0,0,,,,,,,,,5,,78,100
163140,note_on,0,0,0,,,,,,,,,6,,62,100
163140,note_on,0,0,0,,,,,,,,,7,,62,100
163140,note_on,0,0,0,,,,,,,,,13,,78,100
163200,note_on,60,0,0,,,,,,,,,0,,55,100
163200,note_on,0,0,0,,,,,,,,,3,,55,100
163200,note_on,0,0,0,,,,,,,,,8,,55,100
163200,note_on,0,0,0,,,,,,,,,10,,43,100
163200,note_on,0,0,0,,,,,,,,,14,,55,100
163200,note_on,0,0,0,,,,,,,,,15,,55,100
163230,note_on,30,0,0,,,,,,,,,13,,78,0
163230,note_on,0,0,0,,,,,,,,,6,,62,0
163230,note_on,0,0,0,,,,,,,,,0,,78,0
163230,note_on,0,0,0,,,,,,,,,5,,78,0
163230,note_on,0,0,0,,,,,,,,,7,,62,0
163230,note_on,0,0,0,,,,,,,,,3,,78,0
163260,note_on,30,0,0,,,,,,,,,0,,55,0
163260,note_on,0,0,0,,,,,,,,,8,,55,0
163260,note_on,0,0,0,,,,,,,,,14,,55,0
163260,note_on,0,0,0,,,,,,,,,15,,55,0
163260,note_on,0,0,0,,,,,,,,,3,,55,0
163260,note_on,0,0,0,,,,,,,,,10,,43,0
163260,note_on,0,0,0,,,,,,,,,0,,76,100
163260,note_on,0,0,0,,,,,,,,,3,,76,100
163260,note_on,0,0,0,,,,,,,,,5,,76,100
163260,note_on,0,0,0,,,,,,,,,6,,61,100
163260,note_on,0,0,0,,,,,,,,,7,,61,100
163260,note_on,0,0,0,,,,,,,,,13,,76,100
163290,note_on,30,0,0,,,,,,,,,7,,61,0
163290,note_on,0,0,0,,,,,,,,,6,,61,0
163290,note_on,0,0,0,,,,,,,,,6,,59,100
163290,note_on,0,0,0,,,,,,,,,7,,59,100
163320,note_on,30,0,0,,,,,,,,,7,,59,0
163320,note_on,0,0,0,,,,,,,,,6,,59,0
163320,note_on,0,0,0,,,,,,,,,0,,54,100
163320,note_on,0,0,0,,,,,,,,,3,,54,100
163320,note_on,0,0,0,,,,,,,,,6,,70,100
163320,note_on,0,0,0,,,,,,,,,7,,70,100
163320,note_on,0,0,0,,,,,,,,,8,,54,100
163320,note_on,0,0,0,,,,,,,,,10,,42,100
163320,note_on,0,0,0,,,,,,,,,14,,54,100
163320,note_on,0,0,0,,,,,,,,,15,,54,100
163350,note_on,30,0,0,,,,,,,,,15,,54,0
163350,note_on,0,0,0,,,,,,,,,13,,76,0
163350,note_on,0,0,0,,,,,,,,,7,,70,0
163350,note_on,0,0,0,,,,,,,,,5,,76,0
163350,note_on,0,0,0,,,,,,,,,3,,76,0
163350,note_on,0,0,0,,,,,,,,,0,,76,0
163350,note_on,0,0,0,,,,,,,,,0,,54,0
163350,note_on,0,0,0,,,,,,,,,3,,54,0
163350,note_on,0,0,0,,,,,,,,,8,,54,0
163350,note_on,0,0,0,,,,,,,,,6,,70,0
163350,note_on,0,0,0,,,,,,,,,14,,54,0
163350,note_on,0,0,0,,,,,,,,,10,,42,0
163380,note_on,30,0,0,,,,,,,,,0,,58,100
163380,note_on,0,0,0,,,,,,,,,0,,78,100
163380,note_on,0,0,0,,,,,,,,,3,,58,100
163380,note_on,0,0,0,,,,,,,,,3,,78,100
163380,note_on,0,0,0,,,,,,,,,5,,78,100
163380,note_on,0,0,0,,,,,,,,,6,,73,100
163380,note_on,0,0,0,,,,,,,,,7,,73,100
163380,note_on,0,0,0,,,,,,,,,8,,58,100
163380,note_on,0,0,0,,,,,,,,,10,,46,100
163380,note_on,0,0,0,,,,,,,,,13,,78,100
163380,note_on,0,0,0,,,,,,,,,14,,58,100
163380,note_on,0,0,0,,,,,,,,,15,,58,100
163410,note_on,30,0,0,,,,,,,,,15,,58,0
163410,note_on,0,0,0,,,,,,,,,0,,78,0
163410,note_on,0,0,0,,,,,,,,,8,,58,0
163410,note_on,0,0,0,,,,,,,,,3,,58,0
163410,note_on,0,0,0,,,,,,,,,3,,78,0
163410,note_on,0,0,0,,,,,,,,,0,,58,0
163410,note_on,0,0,0,,,,,,,,,5,,78,0
163410,note_on,0,0,0,,,,,,,,,6,,73,0
163410,note_on,0,0,0,,,,,,,,,10,,46,0
163410,note_on,0,0,0,,,,,,,,,7,,73,0
163410,note_on,0,0,0,,,,,,,,,14,,58,0
163410,note_on,0,0,0,,,,,,,,,13,,78,0
163440,note_on,30,0,0,,,,,,,,,0,,59,100
163440,note_on,0,0,0,,,,,,,,,0,,74,100
163440,note_on,0,0,0,,,,,,,,,3,,59,100
163440,note_on,0,0,0,,,,,,,,,3,,74,100
163440,note_on,0,0,0,,,,,,,,,5,,74,100
163440,note_on,0,0,0,,,,,,,,,6,,71,100
163440,note_on,0,0,0,,,,,,,,,7,,71,100
163440,note_on,0,0,0,,,,,,,,,8,,59,100
163440,note_on,0,0,0,,,,,,,,,10,,47,100
163440,note_on,0,0,0,,,,,,,,,13,,74,100
163440,note_on,0,0,0,,,,,,,,,14,,59,100
163440,note_on,0,0,0,,,,,,,,,15,,59,100
163470,note_on,30,0,0,,,,,,,,,15,,59,0
163470,note_on,0,0,0,,,,,,,,,13,,74,0
163470,note_on,0,0,0,,,,,,,,,8,,59,0
163470,note_on,0,0,0,,,,,,,,,3,,59,0
163470,note_on,0,0,0,,,,,,,,,3,,74,0
163470,note_on,0,0,0,,,,,,,,,5,,74,0
163470,note_on,0,0,0,,,,,,,,,0,,59,0
163470,note_on,0,0,0,,,,,,,,,0,,74,0
163470,note_on,0,0,0,,,,,,,,,10,,47,0
163470,note_on,0,0,0,,,,,,,,,14,,59,0
163500,note_on,30,0,0,,,,,,,,,0,,52,100
163500,note_on,0,0,0,,,,,,,,,0,,73,100
163500,note_on,0,0,0,,,,,,,,,3,,52,100
163500,note_on,0,0,0,,,,,,,,,3,,73,100
163500,note_on,0,0,0,,,,,,,,,5,,73,100
163500,note_on,0,0,0,,,,,,,,,8,,52,100
163500,note_on,0,0,0,,,,,,,,,10,,40,100
163500,note_on,0,0,0,,,,,,,,,13,,73,100
163500,note_on,0,0,0,,,,,,,,,14,,52,100
163500,note_on,0,0,0,,,,,,,,,15,,52,100
163530,note_on,30,0,0,,,,,,,,,15,,52,0
163530,note_on,0,0,0,,,,,,,,,13,,73,0
163530,note_on,0,0,0,,,,,,,,,8,,52,0
163530,note_on,0,0,0,,,,,,,,,0,,52,0
163530,note_on,0,0,0,,,,,,,,,5,,73,0
163530,note_on,0,0,0,,,,,,,,,0,,73,0
163530,note_on,0,0,0,,,,,,,,,3,,52,0
163530,note_on,0,0,0,,,,,,,,,3,,73,0
163530,note_on,0,0,0,,,,,,,,,10,,40,0
163530,note_on,0,0,0,,,,,,,,,14,,52,0
163560,note_on,30,0,0,,,,,,,,,0,,54,100
163560,note_on,0,0,0,,,,,,,,,0,,74,100
163560,note_on,0,0,0,,,,,,,,,3,,54,100
163560,note_on,0,0,0,,,,,,,,,3,,74,100
163560,note_on,0,0,0,,,,,,,,,5,,74,100
163560,note_on,0,0,0,,,,,,,,,8,,54,100
163560,note_on,0,0,0,,,,,,,,,10,,42,100
163560,note_on,0,0,0,,,,,,,,,13,,74,100
163560,note_on,0,0,0,,,,,,,,,14,,54,100
163560,note_on,0,0,0,,,,,,,,,15,,54,100
163575,note_on,15,0,0,,,,,,,,,13,,74,0
163575,note_on,0,0,0,,,,,,,,,5,,74,0
163575,note_on,0,0,0,,,,,,,,,3,,74,0
163575,note_on,0,0,0,,,,,,,,,0,,74,0
163575,note_on,0,0,0,,,,,,,,,0,,73,100
163575,note_on,0,0,0,,,,,,,,,3,,73,100
163575,note_on,0,0,0,,,,,,,,,5,,73,100
163575,note_on,0,0,0,,,,,,,,,13,,73,100
163590,note_on,15,0,0,,,,,,,,,13,,73,0
163590,note_on,0,0,0,,,,,,,,,3,,73,0
163590,note_on,0,0,0,,,,,,,,,0,,73,0
163590,note_on,0,0,0,,,,,,,,,5,,73,0
163590,note_on,0,0,0,,,,,,,,,0,,74,100
163590,note_on,0,0,0,,,,,,,,,3,,74,100
163590,note_on,0,0,0,,,,,,,,,5,,74,100
163590,note_on,0,0,0,,,,,,,,,13,,74,100
163605,note_on,15,0,0,,,,,,,,,13,,74,0
163605,note_on,0,0,0,,,,,,,,,3,,74,0
163605,note_on,0,0,0,,,,,,,,,0,,74,0
163605,note_on,0,0,0,,,,,,,,,5,,74,0
163605,note_on,0,0,0,,,,,,,,,0,,73,100
163605,note_on,0,0,0,,,,,,,,,3,,73,100
163605,note_on,0,0,0,,,,,,,,,5,,73,100
163605,note_on,0,0,0,,,,,,,,,13,,73,100
163620,note_on,15,0,0,,,,,,,,,13,,73,0
163620,note_on,0,0,0,,,,,,,,,3,,73,0
163620,note_on,0,0,0,,,,,,,,,0,,73,0
163620,note_on,0,0,0,,,,,,,,,5,,73,0
163620,note_on,0,0,0,,,,,,,,,0,,74,100
163620,note_on,0,0,0,,,,,,,,,3,,74,100
163620,note_on,0,0,0,,,,,,,,,5,,74,100
163620,note_on,0,0,0,,,,,,,,,13,,74,100
163635,note_on,15,0,0,,,,,,,,,13,,74,0
163635,note_on,0,0,0,,,,,,,,,3,,74,0
163635,note_on,0,0,0,,,,,,,,,6,,71,0
163635,note_on,0,0,0,,,,,,,,,7,,71,0
163635,note_on,0,0,0,,,,,,,,,0,,74,0
163635,note_on,0,0,0,,,,,,,,,5,,74,0
163635,note_on,0,0,0,,,,,,,,,0,,73,100
163635,note_on,0,0,0,,,,,,,,,3,,73,100
163635,note_on,0,0,0,,,,,,,,,5,,73,100
163635,note_on,0,0,0,,,,,,,,,13,,73,100
163650,note_on,15,0,0,,,,,,,,,13,,73,0
163650,note_on,0,0,0,,,,,,,,,5,,73,0
163650,note_on,0,0,0,,,,,,,,,0,,73,0
163650,note_on,0,0,0,,,,,,,,,3,,73,0
163650,note_on,0,0,0,,,,,,,,,3,,54,0
163650,note_on,0,0,0,,,,,,,,,0,,54,0
163650,note_on,0,0,0,,,,,,,,,0,,74,100
163650,note_on,0,0,0,,,,,,,,,3,,74,100
163650,note_on,0,0,0,,,,,,,,,5,,74,100
163650,note_on,0,0,0,,,,,,,,,13,,74,100
163665,note_on,15,0,0,,,,,,,,,13,,74,0
163665,note_on,0,0,0,,,,,,,,,15,,54,0
163665,note_on,0,0,0,,,,,,,,,0,,74,0
163665,note_on,0,0,0,,,,,,,,,8,,54,0
163665,note_on,0,0,0,,,,,,,,,10,,42,0
163665,note_on,0,0,0,,,,,,,,,14,,54,0
163665,note_on,0,0,0,,,,,,,,,3,,74,0
163665,note_on,0,0,0,,,,,,,,,5,,74,0
163665,note_on,0,0,0,,,,,,,,,0,,73,100
163665,note_on,0,0,0,,,,,,,,,3,,73,100
163665,note_on,0,0,0,,,,,,,,,5,,73,100
163665,note_on,0,0,0,,,,,,,,,13,,73,100
163680,note_on,15,0,0,,,,,,,,,13,,73,0
163680,note_on,0,0,0,,,,,,,,,0,,73,0
163680,note_on,0,0,0,,,,,,,,,3,,73,0
163680,note_on,0,0,0,,,,,,,,,5,,73,0
163680,note_on,0,0,0,,,,,,,,,0,,42,100
163680,note_on,0,0,0,,,,,,,,,0,,74,100
163680,note_on,0,0,0,,,,,,,,,3,,42,100
163680,note_on,0,0,0,,,,,,,,,3,,74,100
163680,note_on,0,0,0,,,,,,,,,5,,74,100
163680,note_on,0,0,0,,,,,,,,,6,,70,100
163680,note_on,0,0,0,,,,,,,,,7,,70,100
163680,note_on,0,0,0,,,,,,,,,8,,42,100
163680,note_on,0,0,0,,,,,,,,,10,,30,100
163680,note_on,0,0,0,,,,,,,,,13,,74,100
163680,note_on,0,0,0,,,,,,,,,14,,42,100
163680,note_on,0,0,0,,,,,,,,,15,,42,100
163695,note_on,15,0,0,,,,,,,,,13,,74,0
163695,note_on,0,0,0,,,,,,,,,5,,74,0
163695,note_on,0,0,0,,,,,,,,,3,,74,0
163695,note_on,0,0,0,,,,,,,,,0,,74,0
163695,note_on,0,0,0,,,,,,,,,0,,73,100
163695,note_on,0,0,0,,,,,,,,,3,,73,100
163695,note_on,0,0,0,,,,,,,,,5,,73,100
163695,note_on,0,0,0,,,,,,,,,13,,73,100
163740,note_on,45,0,0,,,,,,,,,13,,73,0
163740,note_on,0,0,0,,,,,,,,,3,,73,0
163740,note_on,0,0,0,,,,,,,,,0,,73,0
163740,note_on,0,0,0,,,,,,,,,5,,73,0
163740,note_on,0,0,0,,,,,,,,,0,,71,100
163740,note_on,0,0,0,,,,,,,,,3,,71,100
163740,note_on,0,0,0,,,,,,,,,5,,71,100
163740,note_on,0,0,0,,,,,,,,,13,,71,100
163770,note_on,30,0,0,,,,,,,,,13,,71,0
163770,note_on,0,0,0,,,,,,,,,3,,71,0
163770,note_on,0,0,0,,,,,,,,,0,,42,0
163770,note_on,0,0,0,,,,,,,,,3,,42,0
163770,note_on,0,0,0,,,,,,,,,0,,71,0
163770,note_on,0,0,0,,,,,,,,,5,,71,0
163770,note_on,0,0,0,,,,,,,,,6,,70,0
163770,note_on,0,0,0,,,,,,,,,7,,70,0
163785,note_on,15,0,0,,,,,,,,,15,,42,0
163785,note_on,0,0,0,,,,,,,,,14,,42,0
163785,note_on,0,0,0,,,,,,,,,8,,42,0
163785,note_on,0,0,0,,,,,,,,,10,,30,0
163797,control_change,12,0,0,,,,,,,11,127,10,,,
163800,note_on,3,0,0,,,,,,,,,0,,47,100
163800,note_on,0,0,0,,,,,,,,,0,,71,100
163800,note_on,0,0,0,,,,,,,,,3,,47,100
163800,note_on,0,0,0,,,,,,,,,3,,71,100
163800,note_on,0,0,0,,,,,,,,,5,,71,100
163800,note_on,0,0,0,,,,,,,,,6,,71,100
163800,note_on,0,0,0,,,,,,,,,7,,71,100
163800,note_on,0,0,0,,,,,,,,,8,,47,100
163800,note_on,0,0,0,,,,,,,,,10,,35,100
163800,note_on,0,0,0,,,,,,,,,13,,71,100
163800,note_on,0,0,0,,,,,,,,,14,,47,100
163800,note_on,0,0,0,,,,,,,,,15,,47,100
163801,control_change,1,0,0,,,,,,,11,126,10,,,
163801,control_change,0,0,0,,,,,,,11,125,14,,,
163805,control_change,4,0,0,,,,,,,11,125,8,,,
163805,control_change,0,0,0,,,,,,,11,125,10,,,
163805,control_change,0,0,0,,,,,,,11,124,14,,,
163809,control_change,4,0,0,,,,,,,11,124,8,,,
163809,control_change,0,0,0,,,,,,,11,124,10,,,
163809,control_change,0,0,0,,,,,,,11,123,14,,,
163813,control_change,4,0,0,,,,,,,11,123,8,,,
163813,control_change,0,0,0,,,,,,,11,123,10,,,
163813,control_change,0,0,0,,,,,,,11,122,14,,,
163817,control_change,4,0,0,,,,,,,11,122,8,,,
163817,control_change,0,0,0,,,,,,,11,122,10,,,
163817,control_change,0,0,0,,,,,,,11,121,14,,,
163821,control_change,4,0,0,,,,,,,11,121,8,,,
163821,control_change,0,0,0,,,,,,,11,121,10,,,
163821,control_change,0,0,0,,,,,,,11,120,14,,,
163825,control_change,4,0,0,,,,,,,11,120,8,,,
163825,control_change,0,0,0,,,,,,,11,120,10,,,
163825,control_change,0,0,0,,,,,,,11,119,14,,,
163829,control_change,4,0,0,,,,,,,11,119,8,,,
163829,control_change,0,0,0,,,,,,,11,119,10,,,
163829,control_change,0,0,0,,,,,,,11,118,14,,,
163833,control_change,4,0,0,,,,,,,11,118,8,,,
163833,control_change,0,0,0,,,,,,,11,118,10,,,
163833,control_change,0,0,0,,,,,,,11,117,14,,,
163837,control_change,4,0,0,,,,,,,11,117,8,,,
163837,control_change,0,0,0,,,,,,,11,117,10,,,
163837,control_change,0,0,0,,,,,,,11,116,14,,,
163841,control_change,4,0,0,,,,,,,11,116,8,,,
163841,control_change,0,0,0,,,,,,,11,116,10,,,
163841,control_change,0,0,0,,,,,,,11,115,14,,,
163845,control_change,4,0,0,,,,,,,11,115,8,,,
163845,control_change,0,0,0,,,,,,,11,115,10,,,
163845,control_change,0,0,0,,,,,,,11,114,14,,,
163847,control_change,2,0,0,,,,,,,11,114,8,,,
163847,control_change,0,0,0,,,,,,,11,114,10,,,
163849,control_change,2,0,0,,,,,,,11,113,14,,,
163851,control_change,2,0,0,,,,,,,11,113,8,,,
163851,control_change,0,0,0,,,,,,,11,113,10,,,
163853,control_change,2,0,0,,,,,,,11,112,14,,,
163855,control_change,2,0,0,,,,,,,11,112,8,,,
163855,control_change,0,0,0,,,,,,,11,112,10,,,
163857,control_change,2,0,0,,,,,,,11,111,14,,,
163859,control_change,2,0,0,,,,,,,11,111,8,,,
163859,control_change,0,0,0,,,,,,,11,111,10,,,
163861,control_change,2,0,0,,,,,,,11,110,14,,,
163863,control_change,2,0,0,,,,,,,11,110,8,,,
163863,control_change,0,0,0,,,,,,,11,110,10,,,
163865,control_change,2,0,0,,,,,,,11,109,14,,,
163867,control_change,2,0,0,,,,,,,11,109,8,,,
163867,control_change,0,0,0,,,,,,,11,109,10,,,
163869,control_change,2,0,0,,,,,,,11,108,14,,,
163871,control_change,2,0,0,,,,,,,11,108,8,,,
163871,control_change,0,0,0,,,,,,,11,108,10,,,
163873,control_change,2,0,0,,,,,,,11,107,14,,,
163875,control_change,2,0,0,,,,,,,11,107,8,,,
163875,control_change,0,0,0,,,,,,,11,107,10,,,
163877,control_change,2,0,0,,,,,,,11,106,14,,,
163879,control_change,2,0,0,,,,,,,11,106,8,,,
163879,control_change,0,0,0,,,,,,,11,106,10,,,
163881,control_change,2,0,0,,,,,,,11,105,14,,,
163883,control_change,2,0,0,,,,,,,11,105,8,,,
163883,control_change,0,0,0,,,,,,,11,105,10,,,
163883,control_change,0,0,0,,,,,,,11,104,14,,,
163885,control_change,2,0,0,,,,,,,11,104,8,,,
163887,control_change,2,0,0,,,,,,,11,104,10,,,
163887,control_change,0,0,0,,,,,,,11,103,14,,,
163889,control_change,2,0,0,,,,,,,11,103,8,,,
163890,note_on,1,0,0,,,,,,,,,13,,71,0
163890,note_on,0,0,0,,,,,,,,,5,,71,0
163890,note_on,0,0,0,,,,,,,,,0,,47,0
163890,note_on,0,0,0,,,,,,,,,3,,71,0
163890,note_on,0,0,0,,,,,,,,,3,,47,0
163890,note_on,0,0,0,,,,,,,,,0,,71,0
163891,control_change,1,0,0,,,,,,,11,103,10,,,
163891,control_change,0,0,0,,,,,,,11,102,14,,,
163893,control_change,2,0,0,,,,,,,11,102,8,,,
163895,control_change,2,0,0,,,,,,,11,102,10,,,
163895,control_change,0,0,0,,,,,,,11,101,14,,,
163897,control_change,2,0,0,,,,,,,11,101,8,,,
163897,control_change,0,0,0,,,,,,,11,101,10,,,
163899,control_change,2,0,0,,,,,,,11,100,14,,,
163901,control_change,2,0,0,,,,,,,11,100,8,,,
163901,control_change,0,0,0,,,,,,,11,100,10,,,
163903,control_change,2,0,0,,,,,,,11,99,14,,,
163905,control_change,2,0,0,,,,,,,11,99,8,,,
163905,control_change,0,0,0,,,,,,,11,99,10,,,
163907,control_change,2,0,0,,,,,,,11,98,14,,,
163909,control_change,2,0,0,,,,,,,11,98,8,,,
163909,control_change,0,0,0,,,,,,,11,98,10,,,
163911,control_change,2,0,0,,,,,,,11,97,14,,,
163913,control_change,2,0,0,,,,,,,11,97,8,,,
163913,control_change,0,0,0,,,,,,,11,97,10,,,
163915,control_change,2,0,0,,,,,,,11,96,14,,,
163917,control_change,2,0,0,,,,,,,11,96,8,,,
163917,control_change,0,0,0,,,,,,,11,96,10,,,
163919,control_change,2,0,0,,,,,,,11,95,14,,,
163921,control_change,2,0,0,,,,,,,11,95,8,,,
163921,control_change,0,0,0,,,,,,,11,95,10,,,
163923,control_change,2,0,0,,,,,,,11,94,8,,,
163923,control_change,0,0,0,,,,,,,11,94,14,,,
163925,control_change,2,0,0,,,,,,,11,94,10,,,
163927,control_change,2,0,0,,,,,,,11,93,8,,,
163927,control_change,0,0,0,,,,,,,11,93,14,,,
163929,control_change,2,0,0,,,,,,,11,93,10,,,
163931,control_change,2,0,0,,,,,,,11,92,8,,,
163931,control_change,0,0,0,,,,,,,11,92,14,,,
163933,control_change,2,0,0,,,,,,,11,92,10,,,
163935,control_change,2,0,0,,,,,,,11,91,8,,,
163935,control_change,0,0,0,,,,,,,11,91,14,,,
163937,control_change,2,0,0,,,,,,,11,91,10,,,
163939,control_change,2,0,0,,,,,,,11,90,8,,,
163939,control_change,0,0,0,,,,,,,11,90,14,,,
163941,control_change,2,0,0,,,,,,,11,90,10,,,
163943,control_change,2,0,0,,,,,,,11,89,8,,,
163943,control_change,0,0,0,,,,,,,11,89,10,,,
163943,control_change,0,0,0,,,,,,,11,89,14,,,
163947,control_change,4,0,0,,,,,,,11,88,8,,,
163947,control_change,0,0,0,,,,,,,11,88,10,,,
163947,control_change,0,0,0,,,,,,,11,88,14,,,
163951,control_change,4,0,0,,,,,,,11,87,8,,,
163951,control_change,0,0,0,,,,,,,11,87,10,,,
163951,control_change,0,0,0,,,,,,,11,87,14,,,
163955,control_change,4,0,0,,,,,,,11,86,8,,,
163955,control_change,0,0,0,,,,,,,11,86,10,,,
163955,control_change,0,0,0,,,,,,,11,86,14,,,
163959,control_change,4,0,0,,,,,,,11,85,8,,,
163959,control_change,0,0,0,,,,,,,11,85,10,,,
163959,control_change,0,0,0,,,,,,,11,85,14,,,
163961,control_change,2,0,0,,,,,,,11,84,14,,,
163963,control_change,2,0,0,,,,,,,11,84,8,,,
163963,control_change,0,0,0,,,,,,,11,84,10,,,
163965,control_change,2,0,0,,,,,,,11,83,8,,,
163965,control_change,0,0,0,,,,,,,11,83,14,,,
163967,control_change,2,0,0,,,,,,,11,83,10,,,
163969,control_change,2,0,0,,,,,,,0,43,1,,,
163969,control_change,0,0,0,,,,,,,0,43,1,,,
163969,control_change,0,0,0,,,,,,,0,43,1,,,
163969,control_change,0,0,0,,,,,,,11,82,8,,,
163969,control_change,0,0,0,,,,,,,11,82,14,,,
163969,control_change,0,0,0,,,,,,,0,43,1,,,
163970,control_change,1,0,0,,,,,,,0,43,1,,,
163970,program_change,0,0,0,,,,,,,,,1,66,,
163971,control_change,1,0,0,,,,,,,11,82,10,,,
163973,control_change,2,0,0,,,,,,,11,81,8,,,
163973,control_change,0,0,0,,,,,,,11,81,14,,,
163975,control_change,2,0,0,,,,,,,11,81,10,,,
163977,control_change,2,0,0,,,,,,,11,80,8,,,
163977,control_change,0,0,0,,,,,,,11,80,14,,,
163979,control_change,2,0,0,,,,,,,11,80,10,,,
163980,note_on,1,0,0,,,,,,,,,1,,78,100
163980,note_on,0,0,0,,,,,,,,,4,,78,100
163981,control_change,1,0,0,,,,,,,11,79,8,,,
163981,control_change,0,0,0,,,,,,,11,79,14,,,
163983,control_change,2,0,0,,,,,,,11,79,10,,,
163985,control_change,2,0,0,,,,,,,11,78,8,,,
163985,control_change,0,0,0,,,,,,,11,78,14,,,
163987,control_change,2,0,0,,,,,,,11,78,10,,,
163989,control_change,2,0,0,,,,,,,11,77,8,,,
163989,control_change,0,0,0,,,,,,,11,77,14,,,
163991,control_change,2,0,0,,,,,,,11,77,10,,,
163993,control_change,2,0,0,,,,,,,11,76,8,,,
163993,control_change,0,0,0,,,,,,,11,76,10,,,
163993,control_change,0,0,0,,,,,,,11,76,14,,,
163997,control_change,4,0,0,,,,,,,11,75,8,,,
163997,control_change,0,0,0,,,,,,,11,75,10,,,
163997,control_change,0,0,0,,,,,,,11,75,14,,,
164001,control_change,4,0,0,,,,,,,11,74,8,,,
164001,control_change,0,0,0,,,,,,,11,74,10,,,
164001,control_change,0,0,0,,,,,,,11,74,14,,,
164003,control_change,2,0,0,,,,,,,11,73,8,,,
164005,control_change,2,0,0,,,,,,,11,73,10,,,
164005,control_change,0,0,0,,,,,,,11,73,14,,,
164007,control_change,2,0,0,,,,,,,11,72,8,,,
164009,control_change,2,0,0,,,,,,,11,72,10,,,
164009,control_change,0,0,0,,,,,,,11,72,14,,,
164010,note_on,1,0,0,,,,,,,,,4,,78,0
164010,note_on,0,0,0,,,,,,,,,1,,78,0
164010,note_on,0,0,0,,,,,,,,,15,,47,0
164010,note_on,0,0,0,,,,,,,,,6,,71,0
164010,note_on,0,0,0,,,,,,,,,7,,71,0
164011,control_change,1,0,0,,,,,,,11,71,8,,,
164013,control_change,2,0,0,,,,,,,11,71,10,,,
164013,control_change,0,0,0,,,,,,,11,71,14,,,
164015,control_change,2,0,0,,,,,,,11,70,8,,,
164017,control_change,2,0,0,,,,,,,11,70,10,,,
164017,control_change,0,0,0,,,,,,,11,70,14,,,
164019,control_change,2,0,0,,,,,,,11,69,8,,,
164021,control_change,2,0,0,,,,,,,11,69,10,,,
164021,control_change,0,0,0,,,,,,,11,69,14,,,
164023,control_change,2,0,0,,,,,,,11,68,8,,,
164025,control_change,2,0,0,,,,,,,11,63,7,,,
164025,control_change,0,0,0,,,,,,,11,68,10,,,
164025,control_change,0,0,0,,,,,,,11,68,14,,,
164027,control_change,2,0,0,,,,,,,11,67,8,,,
164029,control_change,2,0,0,,,,,,,11,62,5,,,
164029,control_change,0,0,0,,,,,,,11,59,7,,,
164029,control_change,0,0,0,,,,,,,11,67,10,,,
164029,control_change,0,0,0,,,,,,,11,67,14,,,
164031,control_change,2,0,0,,,,,,,11,64,7,,,
164031,control_change,0,0,0,,,,,,,11,66,8,,,
164033,control_change,2,0,0,,,,,,,11,60,6,,,
164033,control_change,0,0,0,,,,,,,11,66,10,,,
164033,control_change,0,0,0,,,,,,,11,66,14,,,
164035,control_change,2,0,0,,,,,,,11,65,8,,,
164037,control_change,2,0,0,,,,,,,11,65,10,,,
164037,control_change,0,0,0,,,,,,,11,65,14,,,
164039,control_change,2,0,0,,,,,,,11,64,8,,,
164039,control_change,0,0,0,,,,,,,11,64,10,,,
164039,control_change,0,0,0,,,,,,,11,64,14,,,
164040,note_on,1,0,0,,,,,,,,,1,,74,100
164040,note_on,0,0,0,,,,,,,,,4,,74,100
164040,note_on,0,0,0,,,,,,,,,5,,66,100
164040,note_on,0,0,0,,,,,,,,,6,,59,100
164040,note_on,0,0,0,,,,,,,,,7,,59,100
164041,control_change,1,0,0,,,,,,,11,63,8,,,
164100,note_on,59,0,0,,,,,,,,,4,,74,0
164100,note_on,0,0,0,,,,,,,,,1,,74,0
164100,note_on,0,0,0,,,,,,,,,1,,71,100
164100,note_on,0,0,0,,,,,,,,,4,,71,100
164130,note_on,30,0,0,,,,,,,,,4,,71,0
164130,note_on,0,0,0,,,,,,,,,1,,71,0
164160,note_on,30,0,0,,,,,,,,,1,,73,100
164160,note_on,0,0,0,,,,,,,,,4,,73,100
164220,note_on,60,0,0,,,,,,,,,4,,73,0
164220,note_on,0,0,0,,,,,,,,,1,,73,0
164220,note_on,0,0,0,,,,,,,,,1,,66,100
164220,note_on,0,0,0,,,,,,,,,1,,70,100
164220,note_on,0,0,0,,,,,,,,,4,,66,100
164220,note_on,0,0,0,,,,,,,,,4,,70,100
164250,note_on,30,0,0,,,,,,,,,4,,70,0
164250,note_on,0,0,0,,,,,,,,,4,,66,0
164250,note_on,0,0,0,,,,,,,,,1,,66,0
164250,note_on,0,0,0,,,,,,,,,1,,70,0
164280,note_on,30,0,0,,,,,,,,,1,,62,100
164280,note_on,0,0,0,,,,,,,,,1,,71,100
164280,note_on,0,0,0,,,,,,,,,4,,62,100
164280,note_on,0,0,0,,,,,,,,,4,,71,100
164340,note_on,60,0,0,,,,,,,,,4,,71,0
164340,note_on,0,0,0,,,,,,,,,4,,62,0
164340,note_on,0,0,0,,,,,,,,,1,,62,0
164340,note_on,0,0,0,,,,,,,,,1,,71,0
164340,note_on,0,0,0,,,,,,,,,1,,59,100
164340,note_on,0,0,0,,,,,,,,,1,,74,100
164340,note_on,0,0,0,,,,,,,,,4,,59,100
164340,note_on,0,0,0,,,,,,,,,4,,74,100
164370,note_on,30,0,0,,,,,,,,,4,,74,0
164370,note_on,0,0,0,,,,,,,,,1,,74,0
164400,note_on,30,0,0,,,,,,,,,1,,59,0
164400,note_on,0,0,0,,,,,,,,,4,,59,0
164400,note_on,0,0,0,,,,,,,,,1,,61,100
164400,note_on,0,0,0,,,,,,,,,1,,76,100
164400,note_on,0,0,0,,,,,,,,,4,,61,100
164400,note_on,0,0,0,,,,,,,,,4,,76,100
164460,note_on,60,0,0,,,,,,,,,4,,76,0
164460,note_on,0,0,0,,,,,,,,,4,,61,0
164460,note_on,0,0,0,,,,,,,,,1,,61,0
164460,note_on,0,0,0,,,,,,,,,1,,76,0
164460,note_on,0,0,0,,,,,,,,,1,,58,100
164460,note_on,0,0,0,,,,,,,,,1,,73,100
164460,note_on,0,0,0,,,,,,,,,4,,58,100
164460,note_on,0,0,0,,,,,,,,,4,,73,100
164490,note_on,30,0,0,,,,,,,,,4,,73,0
164490,note_on,0,0,0,,,,,,,,,1,,73,0
164520,note_on,30,0,0,,,,,,,,,1,,58,0
164520,note_on,0,0,0,,,,,,,,,4,,58,0
164520,note_on,0,0,0,,,,,,,,,1,,59,100
164520,note_on,0,0,0,,,,,,,,,1,,74,100
164520,note_on,0,0,0,,,,,,,,,4,,59,100
164520,note_on,0,0,0,,,,,,,,,4,,74,100
164580,note_on,60,0,0,,,,,,,,,4,,74,0
164580,note_on,0,0,0,,,,,,,,,4,,59,0
164580,note_on,0,0,0,,,,,,,,,1,,59,0
164580,note_on,0,0,0,,,,,,,,,1,,74,0
164580,note_on,0,0,0,,,,,,,,,1,,62,100
164580,note_on,0,0,0,,,,,,,,,1,,71,100
164580,note_on,0,0,0,,,,,,,,,4,,62,100
164580,note_on,0,0,0,,,,,,,,,4,,71,100
164610,note_on,30,0,0,,,,,,,,,4,,71,0
164610,note_on,0,0,0,,,,,,,,,1,,71,0
164640,note_on,30,0,0,,,,,,,,,1,,62,0
164640,note_on,0,0,0,,,,,,,,,4,,62,0
164640,note_on,0,0,0,,,,,,,,,1,,64,100
164640,note_on,0,0,0,,,,,,,,,1,,73,100
164640,note_on,0,0,0,,,,,,,,,4,,64,100
164640,note_on,0,0,0,,,,,,,,,4,,73,100
164700,note_on,60,0,0,,,,,,,,,4,,73,0
164700,note_on,0,0,0,,,,,,,,,4,,64,0
164700,note_on,0,0,0,,,,,,,,,1,,64,0
164700,note_on,0,0,0,,,,,,,,,1,,73,0
164700,note_on,0,0,0,,,,,,,,,1,,61,100
164700,note_on,0,0,0,,,,,,,,,1,,70,100
164700,note_on,0,0,0,,,,,,,,,4,,61,100
164700,note_on,0,0,0,,,,,,,,,4,,70,100
164730,note_on,30,0,0,,,,,,,,,4,,70,0
164730,note_on,0,0,0,,,,,,,,,1,,70,0
164760,note_on,30,0,0,,,,,,,,,1,,61,0
164760,note_on,0,0,0,,,,,,,,,4,,61,0
164760,note_on,0,0,0,,,,,,,,,1,,62,100
164760,note_on,0,0,0,,,,,,,,,1,,71,100
164760,note_on,0,0,0,,,,,,,,,4,,62,100
164760,note_on,0,0,0,,,,,,,,,4,,71,100
164790,note_on,30,0,0,,,,,,,,,4,,71,0
164790,note_on,0,0,0,,,,,,,,,4,,62,0
164790,note_on,0,0,0,,,,,,,,,1,,62,0
164790,note_on,0,0,0,,,,,,,,,1,,71,0
164790,note_on,0,0,0,,,,,,,,,1,,64,100
164790,note_on,0,0,0,,,,,,,,,1,,73,100
164790,note_on,0,0,0,,,,,,,,,4,,64,100
164790,note_on,0,0,0,,,,,,,,,4,,73,100
164820,note_on,30,0,0,,,,,,,,,4,,73,0
164820,note_on,0,0,0,,,,,,,,,4,,64,0
164820,note_on,0,0,0,,,,,,,,,1,,64,0
164820,note_on,0,0,0,,,,,,,,,1,,73,0
164820,note_on,0,0,0,,,,,,,,,1,,66,100
164820,note_on,0,0,0,,,,,,,,,1,,74,100
164820,note_on,0,0,0,,,,,,,,,4,,66,100
164820,note_on,0,0,0,,,,,,,,,4,,74,100
164850,note_on,30,0,0,,,,,,,,,4,,74,0
164850,note_on,0,0,0,,,,,,,,,4,,66,0
164850,note_on,0,0,0,,,,,,,,,1,,66,0
164850,note_on,0,0,0,,,,,,,,,1,,74,0
164880,note_on,30,0,0,,,,,,,,,1,,58,100
164880,note_on,0,0,0,,,,,,,,,1,,73,100
164880,note_on,0,0,0,,,,,,,,,4,,58,100
164880,note_on,0,0,0,,,,,,,,,4,,73,100
164910,note_on,30,0,0,,,,,,,,,4,,73,0
164910,note_on,0,0,0,,,,,,,,,4,,58,0
164910,note_on,0,0,0,,,,,,,,,1,,58,0
164910,note_on,0,0,0,,,,,,,,,1,,73,0
164910,note_on,0,0,0,,,,,,,,,1,,59,100
164910,note_on,0,0,0,,,,,,,,,1,,74,100
164910,note_on,0,0,0,,,,,,,,,4,,59,100
164910,note_on,0,0,0,,,,,,,,,4,,74,100
164940,note_on,30,0,0,,,,,,,,,4,,74,0
164940,note_on,0,0,0,,,,,,,,,4,,59,0
164940,note_on,0,0,0,,,,,,,,,1,,59,0
164940,note_on,0,0,0,,,,,,,,,1,,74,0
164940,note_on,0,0,0,,,,,,,,,1,,61,100
164940,note_on,0,0,0,,,,,,,,,1,,76,100
164940,note_on,0,0,0,,,,,,,,,4,,61,100
164940,note_on,0,0,0,,,,,,,,,4,,76,100
164970,note_on,30,0,0,,,,,,,,,4,,76,0
164970,note_on,0,0,0,,,,,,,,,4,,61,0
164970,note_on,0,0,0,,,,,,,,,1,,61,0
164970,note_on,0,0,0,,,,,,,,,1,,76,0
165000,note_on,30,0,0,,,,,,,,,1,,59,100
165000,note_on,0,0,0,,,,,,,,,1,,74,100
165000,note_on,0,0,0,,,,,,,,,4,,59,100
165000,note_on,0,0,0,,,,,,,,,4,,74,100
165030,note_on,30,0,0,,,,,,,,,4,,74,0
165030,note_on,0,0,0,,,,,,,,,4,,59,0
165030,note_on,0,0,0,,,,,,,,,1,,59,0
165030,note_on,0,0,0,,,,,,,,,1,,74,0
165030,note_on,0,0,0,,,,,,,,,1,,61,100
165030,note_on,0,0,0,,,,,,,,,1,,76,100
165030,note_on,0,0,0,,,,,,,,,4,,61,100
165030,note_on,0,0,0,,,,,,,,,4,,76,100
165060,note_on,30,0,0,,,,,,,,,4,,76,0
165060,note_on,0,0,0,,,,,,,,,4,,61,0
165060,note_on,0,0,0,,,,,,,,,1,,61,0
165060,note_on,0,0,0,,,,,,,,,1,,76,0
165060,note_on,0,0,0,,,,,,,,,1,,62,100
165060,note_on,0,0,0,,,,,,,,,1,,78,100
165060,note_on,0,0,0,,,,,,,,,4,,62,100
165060,note_on,0,0,0,,,,,,,,,4,,78,100
165090,note_on,30,0,0,,,,,,,,,4,,78,0
165090,note_on,0,0,0,,,,,,,,,4,,62,0
165090,note_on,0,0,0,,,,,,,,,1,,62,0
165090,note_on,0,0,0,,,,,,,,,1,,78,0
165120,note_on,30,0,0,,,,,,,,,1,,61,100
165120,note_on,0,0,0,,,,,,,,,1,,70,100
165120,note_on,0,0,0,,,,,,,,,4,,61,100
165120,note_on,0,0,0,,,,,,,,,4,,70,100
165150,note_on,30,0,0,,,,,,,,,4,,70,0
165150,note_on,0,0,0,,,,,,,,,4,,61,0
165150,note_on,0,0,0,,,,,,,,,1,,61,0
165150,note_on,0,0,0,,,,,,,,,1,,70,0
165150,note_on,0,0,0,,,,,,,,,1,,62,100
165150,note_on,0,0,0,,,,,,,,,1,,71,100
165150,note_on,0,0,0,,,,,,,,,4,,62,100
165150,note_on,0,0,0,,,,,,,,,4,,71,100
165180,note_on,30,0,0,,,,,,,,,4,,71,0
165180,note_on,0,0,0,,,,,,,,,4,,62,0
165180,note_on,0,0,0,,,,,,,,,1,,62,0
165180,note_on,0,0,0,,,,,,,,,1,,71,0
165180,note_on,0,0,0,,,,,,,,,1,,64,100
165180,note_on,0,0,0,,,,,,,,,1,,73,100
165180,note_on,0,0,0,,,,,,,,,4,,64,100
165180,note_on,0,0,0,,,,,,,,,4,,73,100
165210,note_on,30,0,0,,,,,,,,,4,,73,0
165210,note_on,0,0,0,,,,,,,,,4,,64,0
165210,note_on,0,0,0,,,,,,,,,1,,64,0
165210,note_on,0,0,0,,,,,,,,,1,,73,0
165210,note_on,0,0,0,,,,,,,,,5,,66,0
165240,note_on,30,0,0,,,,,,,,,1,,62,100
165240,note_on,0,0,0,,,,,,,,,1,,71,100
165240,note_on,0,0,0,,,,,,,,,4,,62,100
165240,note_on,0,0,0,,,,,,,,,4,,71,100
165240,note_on,0,0,0,,,,,,,,,5,,71,100
165270,note_on,30,0,0,,,,,,,,,4,,71,0
165270,note_on,0,0,0,,,,,,,,,4,,62,0
165270,note_on,0,0,0,,,,,,,,,1,,71,0
165270,note_on,0,0,0,,,,,,,,,1,,62,0
165270,note_on,0,0,0,,,,,,,,,1,,64,100
165270,note_on,0,0,0,,,,,,,,,1,,73,100
165270,note_on,0,0,0,,,,,,,,,4,,64,100
165270,note_on,0,0,0,,,,,,,,,4,,73,100
165300,note_on,30,0,0,,,,,,,,,4,,73,0
165300,note_on,0,0,0,,,,,,,,,4,,64,0
165300,note_on,0,0,0,,,,,,,,,1,,64,0
165300,note_on,0,0,0,,,,,,,,,1,,73,0
165300,note_on,0,0,0,,,,,,,,,1,,66,100
165300,note_on,0,0,0,,,,,,,,,1,,74,100
165300,note_on,0,0,0,,,,,,,,,4,,66,100
165300,note_on,0,0,0,,,,,,,,,4,,74,100
165330,note_on,30,0,0,,,,,,,,,4,,74,0
165330,note_on,0,0,0,,,,,,,,,4,,66,0
165330,note_on,0,0,0,,,,,,,,,1,,66,0
165330,note_on,0,0,0,,,,,,,,,1,,74,0
165360,note_on,30,0,0,,,,,,,,,1,,54,100
165360,note_on,0,0,0,,,,,,,,,1,,74,100
165360,note_on,0,0,0,,,,,,,,,4,,54,100
165360,note_on,0,0,0,,,,,,,,,4,,74,100
165390,note_on,30,0,0,,,,,,,,,4,,74,0
165390,note_on,0,0,0,,,,,,,,,4,,54,0
165390,note_on,0,0,0,,,,,,,,,1,,54,0
165390,note_on,0,0,0,,,,,,,,,1,,74,0
165390,note_on,0,0,0,,,,,,,,,1,,56,100
165390,note_on,0,0,0,,,,,,,,,1,,76,100
165390,note_on,0,0,0,,,,,,,,,4,,56,100
165390,note_on,0,0,0,,,,,,,,,4,,76,100
165420,note_on,30,0,0,,,,,,,,,4,,76,0
165420,note_on,0,0,0,,,,,,,,,4,,56,0
165420,note_on,0,0,0,,,,,,,,,1,,56,0
165420,note_on,0,0,0,,,,,,,,,1,,76,0
165420,note_on,0,0,0,,,,,,,,,1,,57,100
165420,note_on,0,0,0,,,,,,,,,1,,78,100
165420,note_on,0,0,0,,,,,,,,,4,,57,100
165420,note_on,0,0,0,,,,,,,,,4,,78,100
165450,note_on,30,0,0,,,,,,,,,4,,78,0
165450,note_on,0,0,0,,,,,,,,,8,,47,0
165450,note_on,0,0,0,,,,,,,,,7,,59,0
165450,note_on,0,0,0,,,,,,,,,10,,35,0
165450,note_on,0,0,0,,,,,,,,,6,,59,0
165450,note_on,0,0,0,,,,,,,,,4,,57,0
165450,note_on,0,0,0,,,,,,,,,1,,78,0
165450,note_on,0,0,0,,,,,,,,,1,,57,0
165450,note_on,0,0,0,,,,,,,,,14,,47,0
165480,note_on,30,0,0,,,,,,,,,1,,56,100
165480,note_on,0,0,0,,,,,,,,,1,,76,100
165480,note_on,0,0,0,,,,,,,,,4,,56,100
165480,note_on,0,0,0,,,,,,,,,4,,76,100
165480,note_on,0,0,0,,,,,,,,,6,,68,100
165480,note_on,0,0,0,,,,,,,,,7,,68,100
165480,note_on,0,0,0,,,,,,,,,8,,52,100
165480,note_on,0,0,0,,,,,,,,,10,,40,100
165480,note_on,0,0,0,,,,,,,,,14,,52,100
165510,note_on,30,0,0,,,,,,,,,4,,76,0
165510,note_on,0,0,0,,,,,,,,,4,,56,0
165510,note_on,0,0,0,,,,,,,,,1,,76,0
165510,note_on,0,0,0,,,,,,,,,1,,56,0
165510,note_on,0,0,0,,,,,,,,,1,,78,100
165510,note_on,0,0,0,,,,,,,,,4,,78,100
165540,note_on,30,0,0,,,,,,,,,4,,78,0
165540,note_on,0,0,0,,,,,,,,,1,,78,0
165540,note_on,0,0,0,,,,,,,,,1,,59,100
165540,note_on,0,0,0,,,,,,,,,1,,76,100
165540,note_on,0,0,0,,,,,,,,,4,,59,100
165540,note_on,0,0,0,,,,,,,,,4,,76,100
165570,note_on,30,0,0,,,,,,,,,4,,76,0
165570,note_on,0,0,0,,,,,,,,,4,,59,0
165570,note_on,0,0,0,,,,,,,,,1,,59,0
165570,note_on,0,0,0,,,,,,,,,1,,76,0
165600,note_on,30,0,0,,,,,,,,,1,,76,100
165600,note_on,0,0,0,,,,,,,,,1,,56,100
165600,note_on,0,0,0,,,,,,,,,4,,76,100
165600,note_on,0,0,0,,,,,,,,,4,,56,100
165615,note_on,15,0,0,,,,,,,,,4,,76,0
165615,note_on,0,0,0,,,,,,,,,1,,76,0
165615,note_on,0,0,0,,,,,,,,,1,,74,100
165615,note_on,0,0,0,,,,,,,,,4,,74,100
165630,note_on,15,0,0,,,,,,,,,4,,74,0
165630,note_on,0,0,0,,,,,,,,,1,,74,0
165630,note_on,0,0,0,,,,,,,,,4,,56,0
165630,note_on,0,0,0,,,,,,,,,1,,56,0
165630,note_on,0,0,0,,,,,,,,,1,,76,100
165630,note_on,0,0,0,,,,,,,,,4,,76,100
165645,note_on,15,0,0,,,,,,,,,4,,76,0
165645,note_on,0,0,0,,,,,,,,,1,,76,0
165645,note_on,0,0,0,,,,,,,,,1,,74,100
165645,note_on,0,0,0,,,,,,,,,4,,74,100
165660,note_on,15,0,0,,,,,,,,,4,,74,0
165660,note_on,0,0,0,,,,,,,,,1,,74,0
165660,note_on,0,0,0,,,,,,,,,1,,76,100
165660,note_on,0,0,0,,,,,,,,,1,,52,100
165660,note_on,0,0,0,,,,,,,,,4,,76,100
165660,note_on,0,0,0,,,,,,,,,4,,52,100
165675,note_on,15,0,0,,,,,,,,,4,,76,0
165675,note_on,0,0,0,,,,,,,,,1,,76,0
165675,note_on,0,0,0,,,,,,,,,1,,74,100
165675,note_on,0,0,0,,,,,,,,,4,,74,100
165690,note_on,15,0,0,,,,,,,,,4,,74,0
165690,note_on,0,0,0,,,,,,,,,4,,52,0
165690,note_on,0,0,0,,,,,,,,,1,,74,0
165690,note_on,0,0,0,,,,,,,,,14,,52,0
165690,note_on,0,0,0,,,,,,,,,8,,52,0
165690,note_on,0,0,0,,,,,,,,,1,,52,0
165690,note_on,0,0,0,,,,,,,,,10,,40,0
165690,note_on,0,0,0,,,,,,,,,1,,73,100
165690,note_on,0,0,0,,,,,,,,,4,,73,100
165705,note_on,15,0,0,,,,,,,,,4,,73,0
165705,note_on,0,0,0,,,,,,,,,6,,68,0
165705,note_on,0,0,0,,,,,,,,,1,,73,0
165705,note_on,0,0,0,,,,,,,,,7,,68,0
165705,note_on,0,0,0,,,,,,,,,1,,74,100
165705,note_on,0,0,0,,,,,,,,,4,,74,100
165720,note_on,15,0,0,,,,,,,,,4,,74,0
165720,note_on,0,0,0,,,,,,,,,1,,74,0
165720,note_on,0,0,0,,,,,,,,,5,,71,0
165720,note_on,0,0,0,,,,,,,,,1,,73,100
165720,note_on,0,0,0,,,,,,,,,1,,57,100
165720,note_on,0,0,0,,,,,,,,,4,,73,100
165720,note_on,0,0,0,,,,,,,,,4,,57,100
165720,note_on,0,0,0,,,,,,,,,5,,73,100
165720,note_on,0,0,0,,,,,,,,,6,,64,100
165720,note_on,0,0,0,,,,,,,,,7,,66,100
165720,note_on,0,0,0,,,,,,,,,8,,45,100
165720,note_on,0,0,0,,,,,,,,,10,,33,100
165720,note_on,0,0,0,,,,,,,,,14,,45,100
165750,note_on,30,0,0,,,,,,,,,4,,57,0
165750,note_on,0,0,0,,,,,,,,,1,,57,0
165780,note_on,30,0,0,,,,,,,,,1,,59,100
165780,note_on,0,0,0,,,,,,,,,4,,59,100
165795,note_on,15,0,0,,,,,,,,,1,,73,0
165795,note_on,0,0,0,,,,,,,,,4,,73,0
165810,note_on,15,0,0,,,,,,,,,4,,59,0
165810,note_on,0,0,0,,,,,,,,,1,,59,0
165840,note_on,30,0,0,,,,,,,,,1,,61,100
165840,note_on,0,0,0,,,,,,,,,4,,61,100
165870,note_on,30,0,0,,,,,,,,,4,,61,0
165870,note_on,0,0,0,,,,,,,,,1,,61,0
165900,note_on,30,0,0,,,,,,,,,1,,57,100
165900,note_on,0,0,0,,,,,,,,,4,,57,100
165915,note_on,15,0,0,,,,,,,,,6,,64,0
165920,note_on,5,0,0,,,,,,,,,1,,76,100
165920,note_on,0,0,0,,,,,,,,,4,,76,100
165930,note_on,10,0,0,,,,,,,,,8,,45,0
165930,note_on,0,0,0,,,,,,,,,4,,57,0
165930,note_on,0,0,0,,,,,,,,,10,,33,0
165930,note_on,0,0,0,,,,,,,,,7,,66,0
165930,note_on,0,0,0,,,,,,,,,14,,45,0
165930,note_on,0,0,0,,,,,,,,,5,,73,0
165930,note_on,0,0,0,,,,,,,,,1,,57,0
165950,note_on,20,0,0,,,,,,,,,4,,76,0
165950,note_on,0,0,0,,,,,,,,,1,,76,0
165960,note_on,10,0,0,,,,,,,,,1,,66,100
165960,note_on,0,0,0,,,,,,,,,1,,61,100
165960,note_on,0,0,0,,,,,,,,,1,,78,100
165960,note_on,0,0,0,,,,,,,,,4,,66,100
165960,note_on,0,0,0,,,,,,,,,4,,61,100
165960,note_on,0,0,0,,,,,,,,,4,,78,100
165990,note_on,30,0,0,,,,,,,,,4,,78,0
165990,note_on,0,0,0,,,,,,,,,1,,78,0
166000,note_on,10,0,0,,,,,,,,,1,,80,100
166000,note_on,0,0,0,,,,,,,,,4,,80,100
166030,note_on,30,0,0,,,,,,,,,4,,80,0
166030,note_on,0,0,0,,,,,,,,,1,,80,0
166040,note_on,10,0,0,,,,,,,,,1,,81,100
166040,note_on,0,0,0,,,,,,,,,4,,81,100
166050,note_on,10,0,0,,,,,,,,,4,,61,0
166050,note_on,0,0,0,,,,,,,,,4,,66,0
166050,note_on,0,0,0,,,,,,,,,1,,66,0
166050,note_on,0,0,0,,,,,,,,,1,,61,0
166070,note_on,20,0,0,,,,,,,,,4,,81,0
166070,note_on,0,0,0,,,,,,,,,1,,81,0
166080,note_on,10,0,0,,,,,,,,,1,,59,100
166080,note_on,0,0,0,,,,,,,,,1,,68,100
166080,note_on,0,0,0,,,,,,,,,1,,83,100
166080,note_on,0,0,0,,,,,,,,,4,,59,100
166080,note_on,0,0,0,,,,,,,,,4,,68,100
166080,note_on,0,0,0,,,,,,,,,4,,83,100
166110,note_on,30,0,0,,,,,,,,,4,,83,0
166110,note_on,0,0,0,,,,,,,,,1,,83,0
166120,note_on,10,0,0,,,,,,,,,1,,85,100
166120,note_on,0,0,0,,,,,,,,,4,,85,100
166150,note_on,30,0,0,,,,,,,,,4,,85,0
166150,note_on,0,0,0,,,,,,,,,1,,85,0
166160,note_on,10,0,0,,,,,,,,,1,,86,100
166160,note_on,0,0,0,,,,,,,,,4,,86,100
166170,note_on,10,0,0,,,,,,,,,4,,68,0
166170,note_on,0,0,0,,,,,,,,,4,,59,0
166170,note_on,0,0,0,,,,,,,,,1,,59,0
166170,note_on,0,0,0,,,,,,,,,1,,68,0
166190,note_on,20,0,0,,,,,,,,,4,,86,0
166190,note_on,0,0,0,,,,,,,,,1,,86,0
166200,note_on,10,0,0,,,,,,,,,1,,69,100
166200,note_on,0,0,0,,,,,,,,,1,,61,100
166200,note_on,0,0,0,,,,,,,,,1,,76,100
166200,note_on,0,0,0,,,,,,,,,4,,69,100
166200,note_on,0,0,0,,,,,,,,,4,,61,100
166200,note_on,0,0,0,,,,,,,,,4,,76,100
166230,note_on,30,0,0,,,,,,,,,4,,76,0
166230,note_on,0,0,0,,,,,,,,,1,,76,0
166240,note_on,10,0,0,,,,,,,,,1,,78,100
166240,note_on,0,0,0,,,,,,,,,4,,78,100
166270,note_on,30,0,0,,,,,,,,,4,,78,0
166270,note_on,0,0,0,,,,,,,,,1,,78,0
166280,note_on,10,0,0,,,,,,,,,1,,80,100
166280,note_on,0,0,0,,,,,,,,,4,,80,100
166290,note_on,10,0,0,,,,,,,,,4,,61,0
166290,note_on,0,0,0,,,,,,,,,4,,69,0
166290,note_on,0,0,0,,,,,,,,,1,,69,0
166290,note_on,0,0,0,,,,,,,,,1,,61,0
166310,note_on,20,0,0,,,,,,,,,4,,80,0
166310,note_on,0,0,0,,,,,,,,,1,,80,0
166320,note_on,10,0,0,,,,,,,,,1,,61,100
166320,note_on,0,0,0,,,,,,,,,1,,57,100
166320,note_on,0,0,0,,,,,,,,,1,,81,100
166320,note_on,0,0,0,,,,,,,,,4,,61,100
166320,note_on,0,0,0,,,,,,,,,4,,57,100
166320,note_on,0,0,0,,,,,,,,,4,,81,100
166350,note_on,30,0,0,,,,,,,,,4,,81,0
166350,note_on,0,0,0,,,,,,,,,1,,81,0
166360,note_on,10,0,0,,,,,,,,,1,,83,100
166360,note_on,0,0,0,,,,,,,,,4,,83,100
166390,note_on,30,0,0,,,,,,,,,4,,83,0
166390,note_on,0,0,0,,,,,,,,,1,,83,0
166400,note_on,10,0,0,,,,,,,,,1,,85,100
166400,note_on,0,0,0,,,,,,,,,4,,85,100
166410,note_on,10,0,0,,,,,,,,,4,,57,0
166410,note_on,0,0,0,,,,,,,,,4,,61,0
166410,note_on,0,0,0,,,,,,,,,1,,61,0
166410,note_on,0,0,0,,,,,,,,,1,,57,0
166430,note_on,20,0,0,,,,,,,,,4,,85,0
166430,note_on,0,0,0,,,,,,,,,1,,85,0
166440,note_on,10,0,0,,,,,,,,,1,,62,100
166440,note_on,0,0,0,,,,,,,,,1,,54,100
166440,note_on,0,0,0,,,,,,,,,1,,74,100
166440,note_on,0,0,0,,,,,,,,,4,,62,100
166440,note_on,0,0,0,,,,,,,,,4,,54,100
166440,note_on,0,0,0,,,,,,,,,4,,74,100
166470,note_on,30,0,0,,,,,,,,,4,,74,0
166470,note_on,0,0,0,,,,,,,,,1,,74,0
166480,note_on,10,0,0,,,,,,,,,1,,76,100
166480,note_on,0,0,0,,,,,,,,,4,,76,100
166510,note_on,30,0,0,,,,,,,,,4,,76,0
166510,note_on,0,0,0,,,,,,,,,1,,76,0
166520,note_on,10,0,0,,,,,,,,,1,,78,100
166520,note_on,0,0,0,,,,,,,,,4,,78,100
166530,note_on,10,0,0,,,,,,,,,4,,54,0
166530,note_on,0,0,0,,,,,,,,,4,,62,0
166530,note_on,0,0,0,,,,,,,,,1,,62,0
166530,note_on,0,0,0,,,,,,,,,1,,54,0
166550,note_on,20,0,0,,,,,,,,,4,,78,0
166550,note_on,0,0,0,,,,,,,,,1,,78,0
166560,note_on,10,0,0,,,,,,,,,1,,56,100
166560,note_on,0,0,0,,,,,,,,,1,,64,100
166560,note_on,0,0,0,,,,,,,,,1,,76,100
166560,note_on,0,0,0,,,,,,,,,4,,56,100
166560,note_on,0,0,0,,,,,,,,,4,,64,100
166560,note_on,0,0,0,,,,,,,,,4,,76,100
166590,note_on,30,0,0,,,,,,,,,4,,76,0
166590,note_on,0,0,0,,,,,,,,,1,,76,0
166600,note_on,10,0,0,,,,,,,,,1,,78,100
166600,note_on,0,0,0,,,,,,,,,4,,78,100
166630,note_on,30,0,0,,,,,,,,,4,,78,0
166630,note_on,0,0,0,,,,,,,,,1,,78,0
166640,note_on,10,0,0,,,,,,,,,1,,74,100
166640,note_on,0,0,0,,,,,,,,,4,,74,100
166650,note_on,10,0,0,,,,,,,,,4,,64,0
166650,note_on,0,0,0,,,,,,,,,4,,56,0
166650,note_on,0,0,0,,,,,,,,,1,,56,0
166650,note_on,0,0,0,,,,,,,,,1,,64,0
166670,note_on,20,0,0,,,,,,,,,4,,74,0
166670,note_on,0,0,0,,,,,,,,,1,,74,0
166680,note_on,10,0,0,,,,,,,,,1,,57,100
166680,note_on,0,0,0,,,,,,,,,1,,73,100
166680,note_on,0,0,0,,,,,,,,,4,,57,100
166680,note_on,0,0,0,,,,,,,,,4,,73,100
166710,note_on,30,0,0,,,,,,,,,4,,57,0
166710,note_on,0,0,0,,,,,,,,,1,,57,0
166720,note_on,10,0,0,,,,,,,,,1,,52,100
166720,note_on,0,0,0,,,,,,,,,4,,52,100
166750,note_on,30,0,0,,,,,,,,,4,,52,0
166750,note_on,0,0,0,,,,,,,,,4,,73,0
166750,note_on,0,0,0,,,,,,,,,1,,73,0
166750,note_on,0,0,0,,,,,,,,,1,,52,0
166760,note_on,10,0,0,,,,,,,,,1,,49,100
166760,note_on,0,0,0,,,,,,,,,4,,49,100
166790,note_on,30,0,0,,,,,,,,,4,,49,0
166790,note_on,0,0,0,,,,,,,,,1,,49,0
166800,note_on,10,0,0,,,,,,,,,1,,45,100
166800,note_on,0,0,0,,,,,,,,,4,,45,100
166830,note_on,30,0,0,,,,,,,,,4,,45,0
166830,note_on,0,0,0,,,,,,,,,1,,45,0
166840,note_on,10,0,0,,,,,,,,,1,,52,100
166840,note_on,0,0,0,,,,,,,,,4,,52,100
166870,note_on,30,0,0,,,,,,,,,4,,52,0
166870,note_on,0,0,0,,,,,,,,,1,,52,0
166880,note_on,10,0,0,,,,,,,,,1,,64,100
166880,note_on,0,0,0,,,,,,,,,1,,57,100
166880,note_on,0,0,0,,,,,,,,,4,,64,100
166880,note_on,0,0,0,,,,,,,,,4,,57,100
166910,note_on,30,0,0,,,,,,,,,4,,57,0
166910,note_on,0,0,0,,,,,,,,,1,,64,0
166910,note_on,0,0,0,,,,,,,,,1,,57,0
166910,note_on,0,0,0,,,,,,,,,4,,64,0
166920,note_on,10,0,0,,,,,,,,,1,,54,100
166920,note_on,0,0,0,,,,,,,,,1,,57,100
166920,note_on,0,0,0,,,,,,,,,1,,50,100
166920,note_on,0,0,0,,,,,,,,,1,,66,100
166920,note_on,0,0,0,,,,,,,,,4,,54,100
166920,note_on,0,0,0,,,,,,,,,4,,57,100
166920,note_on,0,0,0,,,,,,,,,4,,50,100
166920,note_on,0,0,0,,,,,,,,,4,,66,100
166950,note_on,30,0,0,,,,,,,,,4,,66,0
166950,note_on,0,0,0,,,,,,,,,1,,66,0
166960,note_on,10,0,0,,,,,,,,,1,,68,100
166960,note_on,0,0,0,,,,,,,,,4,,68,100
166990,note_on,30,0,0,,,,,,,,,4,,68,0
166990,note_on,0,0,0,,,,,,,,,1,,68,0
167000,note_on,10,0,0,,,,,,,,,4,,50,0
167000,note_on,0,0,0,,,,,,,,,1,,57,0
167000,note_on,0,0,0,,,,,,,,,1,,50,0
167000,note_on,0,0,0,,,,,,,,,1,,54,0
167000,note_on,0,0,0,,,,,,,,,4,,57,0
167000,note_on,0,0,0,,,,,,,,,4,,54,0
167000,note_on,0,0,0,,,,,,,,,1,,69,100
167000,note_on,0,0,0,,,,,,,,,4,,69,100
167030,note_on,30,0,0,,,,,,,,,4,,69,0
167030,note_on,0,0,0,,,,,,,,,1,,69,0
167040,note_on,10,0,0,,,,,,,,,1,,50,100
167040,note_on,0,0,0,,,,,,,,,1,,56,100
167040,note_on,0,0,0,,,,,,,,,1,,47,100
167040,note_on,0,0,0,,,,,,,,,1,,71,100
167040,note_on,0,0,0,,,,,,,,,4,,50,100
167040,note_on,0,0,0,,,,,,,,,4,,56,100
167040,note_on,0,0,0,,,,,,,,,4,,47,100
167040,note_on,0,0,0,,,,,,,,,4,,71,100
167070,note_on,30,0,0,,,,,,,,,4,,71,0
167070,note_on,0,0,0,,,,,,,,,1,,71,0
167080,note_on,10,0,0,,,,,,,,,1,,73,100
167080,note_on,0,0,0,,,,,,,,,4,,73,100
167110,note_on,30,0,0,,,,,,,,,4,,73,0
167110,note_on,0,0,0,,,,,,,,,1,,73,0
167120,note_on,10,0,0,,,,,,,,,4,,47,0
167120,note_on,0,0,0,,,,,,,,,1,,56,0
167120,note_on,0,0,0,,,,,,,,,1,,47,0
167120,note_on,0,0,0,,,,,,,,,1,,50,0
167120,note_on,0,0,0,,,,,,,,,4,,56,0
167120,note_on,0,0,0,,,,,,,,,4,,50,0
167130,note_on,10,0,0,,,,,,,,,1,,74,100
167130,note_on,0,0,0,,,,,,,,,4,,74,100
167160,note_on,30,0,0,,,,,,,,,4,,74,0
167160,note_on,0,0,0,,,,,,,,,1,,74,0
167160,note_on,0,0,0,,,,,,,,,1,,56,100
167160,note_on,0,0,0,,,,,,,,,1,,52,100
167160,note_on,0,0,0,,,,,,,,,1,,49,100
167160,note_on,0,0,0,,,,,,,,,1,,64,100
167160,note_on,0,0,0,,,,,,,,,4,,56,100
167160,note_on,0,0,0,,,,,,,,,4,,52,100
167160,note_on,0,0,0,,,,,,,,,4,,49,100
167160,note_on,0,0,0,,,,,,,,,4,,64,100
167190,note_on,30,0,0,,,,,,,,,4,,64,0
167190,note_on,0,0,0,,,,,,,,,1,,64,0
167200,note_on,10,0,0,,,,,,,,,1,,66,100
167200,note_on,0,0,0,,,,,,,,,4,,66,100
167230,note_on,30,0,0,,,,,,,,,4,,66,0
167230,note_on,0,0,0,,,,,,,,,1,,66,0
167240,note_on,10,0,0,,,,,,,,,4,,49,0
167240,note_on,0,0,0,,,,,,,,,1,,52,0
167240,note_on,0,0,0,,,,,,,,,1,,49,0
167240,note_on,0,0,0,,,,,,,,,1,,56,0
167240,note_on,0,0,0,,,,,,,,,4,,52,0
167240,note_on,0,0,0,,,,,,,,,4,,56,0
167240,note_on,0,0,0,,,,,,,,,1,,68,100
167240,note_on,0,0,0,,,,,,,,,4,,68,100
167270,note_on,30,0,0,,,,,,,,,4,,68,0
167270,note_on,0,0,0,,,,,,,,,1,,68,0
167280,note_on,10,0,0,,,,,,,,,1,,52,100
167280,note_on,0,0,0,,,,,,,,,1,,49,100
167280,note_on,0,0,0,,,,,,,,,1,,45,100
167280,note_on,0,0,0,,,,,,,,,1,,69,100
167280,note_on,0,0,0,,,,,,,,,4,,52,100
167280,note_on,0,0,0,,,,,,,,,4,,49,100
167280,note_on,0,0,0,,,,,,,,,4,,45,100
167280,note_on,0,0,0,,,,,,,,,4,,69,100
167310,note_on,30,0,0,,,,,,,,,4,,69,0
167310,note_on,0,0,0,,,,,,,,,1,,69,0
167320,note_on,10,0,0,,,,,,,,,1,,71,100
167320,note_on,0,0,0,,,,,,,,,4,,71,100
167350,note_on,30,0,0,,,,,,,,,4,,71,0
167350,note_on,0,0,0,,,,,,,,,1,,71,0
167360,note_on,10,0,0,,,,,,,,,4,,45,0
167360,note_on,0,0,0,,,,,,,,,1,,49,0
167360,note_on,0,0,0,,,,,,,,,1,,45,0
167360,note_on,0,0,0,,,,,,,,,1,,52,0
167360,note_on,0,0,0,,,,,,,,,4,,49,0
167360,note_on,0,0,0,,,,,,,,,4,,52,0
167360,note_on,0,0,0,,,,,,,,,1,,73,100
167360,note_on,0,0,0,,,,,,,,,4,,73,100
167390,note_on,30,0,0,,,,,,,,,4,,73,0
167390,note_on,0,0,0,,,,,,,,,1,,73,0
167400,note_on,10,0,0,,,,,,,,,1,,56,100
167400,note_on,0,0,0,,,,,,,,,1,,50,100
167400,note_on,0,0,0,,,,,,,,,1,,47,100
167400,note_on,0,0,0,,,,,,,,,1,,62,100
167400,note_on,0,0,0,,,,,,,,,4,,56,100
167400,note_on,0,0,0,,,,,,,,,4,,50,100
167400,note_on,0,0,0,,,,,,,,,4,,47,100
167400,note_on,0,0,0,,,,,,,,,4,,62,100
167430,note_on,30,0,0,,,,,,,,,4,,62,0
167430,note_on,0,0,0,,,,,,,,,1,,62,0
167440,note_on,10,0,0,,,,,,,,,1,,64,100
167440,note_on,0,0,0,,,,,,,,,4,,64,100
167470,note_on,30,0,0,,,,,,,,,4,,64,0
167470,note_on,0,0,0,,,,,,,,,1,,64,0
167480,note_on,10,0,0,,,,,,,,,4,,47,0
167480,note_on,0,0,0,,,,,,,,,1,,50,0
167480,note_on,0,0,0,,,,,,,,,1,,47,0
167480,note_on,0,0,0,,,,,,,,,1,,56,0
167480,note_on,0,0,0,,,,,,,,,4,,50,0
167480,note_on,0,0,0,,,,,,,,,4,,56,0
167480,note_on,0,0,0,,,,,,,,,1,,66,100
167480,note_on,0,0,0,,,,,,,,,4,,66,100
167510,note_on,30,0,0,,,,,,,,,4,,66,0
167510,note_on,0,0,0,,,,,,,,,1,,66,0
167520,note_on,10,0,0,,,,,,,,,1,,52,100
167520,note_on,0,0,0,,,,,,,,,1,,47,100
167520,note_on,0,0,0,,,,,,,,,1,,44,100
167520,note_on,0,0,0,,,,,,,,,1,,64,100
167520,note_on,0,0,0,,,,,,,,,4,,52,100
167520,note_on,0,0,0,,,,,,,,,4,,47,100
167520,note_on,0,0,0,,,,,,,,,4,,44,100
167520,note_on,0,0,0,,,,,,,,,4,,64,100
167550,note_on,30,0,0,,,,,,,,,4,,64,0
167550,note_on,0,0,0,,,,,,,,,1,,64,0
167560,note_on,10,0,0,,,,,,,,,1,,66,100
167560,note_on,0,0,0,,,,,,,,,4,,66,100
167590,note_on,30,0,0,,,,,,,,,4,,66,0
167590,note_on,0,0,0,,,,,,,,,1,,66,0
167600,note_on,10,0,0,,,,,,,,,4,,44,0
167600,note_on,0,0,0,,,,,,,,,1,,47,0
167600,note_on,0,0,0,,,,,,,,,1,,44,0
167600,note_on,0,0,0,,,,,,,,,1,,52,0
167600,note_on,0,0,0,,,,,,,,,4,,47,0
167600,note_on,0,0,0,,,,,,,,,4,,52,0
167600,note_on,0,0,0,,,,,,,,,1,,62,100
167600,note_on,0,0,0,,,,,,,,,4,,62,100
167630,note_on,30,0,0,,,,,,,,,4,,62,0
167630,note_on,0,0,0,,,,,,,,,1,,62,0
167640,note_on,10,0,0,,,,,,,,,1,,52,100
167640,note_on,0,0,0,,,,,,,,,1,,49,100
167640,note_on,0,0,0,,,,,,,,,1,,45,100
167640,note_on,0,0,0,,,,,,,,,1,,61,100
167640,note_on,0,0,0,,,,,,,,,4,,52,100
167640,note_on,0,0,0,,,,,,,,,4,,49,100
167640,note_on,0,0,0,,,,,,,,,4,,45,100
167640,note_on,0,0,0,,,,,,,,,4,,61,100
167670,note_on,30,0,0,,,,,,,,,4,,61,0
167670,note_on,0,0,0,,,,,,,,,1,,61,0
167680,note_on,10,0,0,,,,,,,,,1,,62,100
167680,note_on,0,0,0,,,,,,,,,4,,62,100
167710,note_on,30,0,0,,,,,,,,,4,,62,0
167710,note_on,0,0,0,,,,,,,,,1,,62,0
167720,note_on,10,0,0,,,,,,,,,4,,45,0
167720,note_on,0,0,0,,,,,,,,,1,,49,0
167720,note_on,0,0,0,,,,,,,,,1,,45,0
167720,note_on,0,0,0,,,,,,,,,1,,52,0
167720,note_on,0,0,0,,,,,,,,,4,,49,0
167720,note_on,0,0,0,,,,,,,,,4,,52,0
167720,note_on,0,0,0,,,,,,,,,1,,61,100
167720,note_on,0,0,0,,,,,,,,,4,,61,100
167750,note_on,30,0,0,,,,,,,,,4,,61,0
167750,note_on,0,0,0,,,,,,,,,1,,61,0
167760,note_on,10,0,0,,,,,,,,,1,,56,100
167760,note_on,0,0,0,,,,,,,,,1,,50,100
167760,note_on,0,0,0,,,,,,,,,1,,47,100
167760,note_on,0,0,0,,,,,,,,,1,,62,100
167760,note_on,0,0,0,,,,,,,,,4,,56,100
167760,note_on,0,0,0,,,,,,,,,4,,50,100
167760,note_on,0,0,0,,,,,,,,,4,,47,100
167760,note_on,0,0,0,,,,,,,,,4,,62,100
167800,note_on,40,0,0,,,,,,,,,4,,62,0
167800,note_on,0,0,0,,,,,,,,,1,,62,0
167820,note_on,20,0,0,,,,,,,,,1,,61,100
167820,note_on,0,0,0,,,,,,,,,4,,61,100
167840,note_on,20,0,0,,,,,,,,,4,,61,0
167840,note_on,0,0,0,,,,,,,,,4,,56,0
167840,note_on,0,0,0,,,,,,,,,4,,47,0
167840,note_on,0,0,0,,,,,,,,,1,,50,0
167840,note_on,0,0,0,,,,,,,,,1,,47,0
167840,note_on,0,0,0,,,,,,,,,1,,56,0
167840,note_on,0,0,0,,,,,,,,,4,,50,0
167840,note_on,0,0,0,,,,,,,,,1,,61,0
167840,note_on,0,0,0,,,,,,,,,1,,62,100
167840,note_on,0,0,0,,,,,,,,,4,,62,100
167870,note_on,30,0,0,,,,,,,,,4,,62,0
167870,note_on,0,0,0,,,,,,,,,1,,62,0
167880,note_on,10,0,0,,,,,,,,,1,,57,100
167880,note_on,0,0,0,,,,,,,,,1,,52,100
167880,note_on,0,0,0,,,,,,,,,1,,49,100
167880,note_on,0,0,0,,,,,,,,,1,,64,100
167880,note_on,0,0,0,,,,,,,,,4,,57,100
167880,note_on,0,0,0,,,,,,,,,4,,52,100
167880,note_on,0,0,0,,,,,,,,,4,,49,100
167880,note_on,0,0,0,,,,,,,,,4,,64,100
167910,note_on,30,0,0,,,,,,,,,4,,64,0
167910,note_on,0,0,0,,,,,,,,,1,,64,0
167920,note_on,10,0,0,,,,,,,,,1,,62,100
167920,note_on,0,0,0,,,,,,,,,4,,62,100
167950,note_on,30,0,0,,,,,,,,,4,,62,0
167950,note_on,0,0,0,,,,,,,,,1,,62,0
167960,note_on,10,0,0,,,,,,,,,4,,49,0
167960,note_on,0,0,0,,,,,,,,,1,,52,0
167960,note_on,0,0,0,,,,,,,,,1,,49,0
167960,note_on,0,0,0,,,,,,,,,1,,57,0
167960,note_on,0,0,0,,,,,,,,,4,,52,0
167960,note_on,0,0,0,,,,,,,,,4,,57,0
167960,note_on,0,0,0,,,,,,,,,1,,61,100
167960,note_on,0,0,0,,,,,,,,,4,,61,100
167990,note_on,30,0,0,,,,,,,,,4,,61,0
167990,note_on,0,0,0,,,,,,,,,1,,61,0
168000,note_on,10,0,0,,,,,,,,,1,,57,100
168000,note_on,0,0,0,,,,,,,,,1,,54,100
168000,note_on,0,0,0,,,,,,,,,1,,50,100
168000,note_on,0,0,0,,,,,,,,,1,,66,100
168000,note_on,0,0,0,,,,,,,,,4,,57,100
168000,note_on,0,0,0,,,,,,,,,4,,54,100
168000,note_on,0,0,0,,,,,,,,,4,,50,100
168000,note_on,0,0,0,,,,,,,,,4,,66,100
168030,note_on,30,0,0,,,,,,,,,4,,66,0
168030,note_on,0,0,0,,,,,,,,,1,,66,0
168040,note_on,10,0,0,,,,,,,,,1,,64,100
168040,note_on,0,0,0,,,,,,,,,4,,64,100
168070,note_on,30,0,0,,,,,,,,,4,,64,0
168070,note_on,0,0,0,,,,,,,,,1,,64,0
168080,note_on,10,0,0,,,,,,,,,4,,50,0
168080,note_on,0,0,0,,,,,,,,,1,,54,0
168080,note_on,0,0,0,,,,,,,,,1,,50,0
168080,note_on,0,0,0,,,,,,,,,1,,57,0
168080,note_on,0,0,0,,,,,,,,,4,,54,0
168080,note_on,0,0,0,,,,,,,,,4,,57,0
168080,note_on,0,0,0,,,,,,,,,1,,62,100
168080,note_on,0,0,0,,,,,,,,,4,,62,100
168110,note_on,30,0,0,,,,,,,,,4,,62,0
168110,note_on,0,0,0,,,,,,,,,1,,62,0
168120,note_on,10,0,0,,,,,,,,,1,,61,100
168120,note_on,0,0,0,,,,,,,,,1,,56,100
168120,note_on,0,0,0,,,,,,,,,1,,52,100
168120,note_on,0,0,0,,,,,,,,,1,,68,100
168120,note_on,0,0,0,,,,,,,,,4,,61,100
168120,note_on,0,0,0,,,,,,,,,4,,56,100
168120,note_on,0,0,0,,,,,,,,,4,,52,100
168120,note_on,0,0,0,,,,,,,,,4,,68,100
168150,note_on,30,0,0,,,,,,,,,4,,68,0
168150,note_on,0,0,0,,,,,,,,,1,,68,0
168160,note_on,10,0,0,,,,,,,,,1,,66,100
168160,note_on,0,0,0,,,,,,,,,4,,66,100
168190,note_on,30,0,0,,,,,,,,,4,,66,0
168190,note_on,0,0,0,,,,,,,,,1,,66,0
168200,note_on,10,0,0,,,,,,,,,4,,52,0
168200,note_on,0,0,0,,,,,,,,,1,,56,0
168200,note_on,0,0,0,,,,,,,,,1,,52,0
168200,note_on,0,0,0,,,,,,,,,1,,61,0
168200,note_on,0,0,0,,,,,,,,,4,,56,0
168200,note_on,0,0,0,,,,,,,,,4,,61,0
168200,note_on,0,0,0,,,,,,,,,1,,64,100
168200,note_on,0,0,0,,,,,,,,,4,,64,100
168230,note_on,30,0,0,,,,,,,,,4,,64,0
168230,note_on,0,0,0,,,,,,,,,1,,64,0
168240,note_on,10,0,0,,,,,,,,,1,,63,100
168240,note_on,0,0,0,,,,,,,,,1,,57,100
168240,note_on,0,0,0,,,,,,,,,1,,54,100
168240,note_on,0,0,0,,,,,,,,,1,,69,100
168240,note_on,0,0,0,,,,,,,,,4,,63,100
168240,note_on,0,0,0,,,,,,,,,4,,57,100
168240,note_on,0,0,0,,,,,,,,,4,,54,100
168240,note_on,0,0,0,,,,,,,,,4,,69,100
168270,note_on,30,0,0,,,,,,,,,4,,69,0
168270,note_on,0,0,0,,,,,,,,,1,,69,0
168280,note_on,10,0,0,,,,,,,,,1,,68,100
168280,note_on,0,0,0,,,,,,,,,4,,68,100
168310,note_on,30,0,0,,,,,,,,,4,,68,0
168310,note_on,0,0,0,,,,,,,,,1,,68,0
168320,note_on,10,0,0,,,,,,,,,4,,54,0
168320,note_on,0,0,0,,,,,,,,,1,,57,0
168320,note_on,0,0,0,,,,,,,,,1,,54,0
168320,note_on,0,0,0,,,,,,,,,1,,63,0
168320,note_on,0,0,0,,,,,,,,,4,,57,0
168320,note_on,0,0,0,,,,,,,,,4,,63,0
168320,note_on,0,0,0,,,,,,,,,1,,66,100
168320,note_on,0,0,0,,,,,,,,,4,,66,100
168350,note_on,30,0,0,,,,,,,,,4,,66,0
168350,note_on,0,0,0,,,,,,,,,1,,66,0
168360,note_on,10,0,0,,,,,,,,,1,,64,100
168360,note_on,0,0,0,,,,,,,,,1,,59,100
168360,note_on,0,0,0,,,,,,,,,1,,56,100
168360,note_on,0,0,0,,,,,,,,,1,,71,100
168360,note_on,0,0,0,,,,,,,,,4,,64,100
168360,note_on,0,0,0,,,,,,,,,4,,59,100
168360,note_on,0,0,0,,,,,,,,,4,,56,100
168360,note_on,0,0,0,,,,,,,,,4,,71,100
168390,note_on,30,0,0,,,,,,,,,4,,71,0
168390,note_on,0,0,0,,,,,,,,,1,,71,0
168400,note_on,10,0,0,,,,,,,,,1,,69,100
168400,note_on,0,0,0,,,,,,,,,4,,69,100
168430,note_on,30,0,0,,,,,,,,,4,,69,0
168430,note_on,0,0,0,,,,,,,,,1,,69,0
168440,note_on,10,0,0,,,,,,,,,4,,56,0
168440,note_on,0,0,0,,,,,,,,,1,,59,0
168440,note_on,0,0,0,,,,,,,,,1,,56,0
168440,note_on,0,0,0,,,,,,,,,1,,64,0
168440,note_on,0,0,0,,,,,,,,,4,,59,0
168440,note_on,0,0,0,,,,,,,,,4,,64,0
168440,note_on,0,0,0,,,,,,,,,1,,68,100
168440,note_on,0,0,0,,,,,,,,,4,,68,100
168470,note_on,30,0,0,,,,,,,,,4,,68,0
168470,note_on,0,0,0,,,,,,,,,1,,68,0
168480,note_on,10,0,0,,,,,,,,,1,,64,100
168480,note_on,0,0,0,,,,,,,,,1,,61,100
168480,note_on,0,0,0,,,,,,,,,1,,57,100
168480,note_on,0,0,0,,,,,,,,,1,,73,100
168480,note_on,0,0,0,,,,,,,,,4,,64,100
168480,note_on,0,0,0,,,,,,,,,4,,61,100
168480,note_on,0,0,0,,,,,,,,,4,,57,100
168480,note_on,0,0,0,,,,,,,,,4,,73,100
168510,note_on,30,0,0,,,,,,,,,4,,73,0
168510,note_on,0,0,0,,,,,,,,,1,,73,0
168520,note_on,10,0,0,,,,,,,,,1,,71,100
168520,note_on,0,0,0,,,,,,,,,4,,71,100
168550,note_on,30,0,0,,,,,,,,,4,,71,0
168550,note_on,0,0,0,,,,,,,,,1,,71,0
168560,note_on,10,0,0,,,,,,,,,4,,57,0
168560,note_on,0,0,0,,,,,,,,,1,,61,0
168560,note_on,0,0,0,,,,,,,,,1,,57,0
168560,note_on,0,0,0,,,,,,,,,1,,64,0
168560,note_on,0,0,0,,,,,,,,,4,,61,0
168560,note_on,0,0,0,,,,,,,,,4,,64,0
168560,note_on,0,0,0,,,,,,,,,1,,69,100
168560,note_on,0,0,0,,,,,,,,,4,,69,100
168590,note_on,30,0,0,,,,,,,,,4,,69,0
168590,note_on,0,0,0,,,,,,,,,1,,69,0
168600,note_on,10,0,0,,,,,,,,,1,,68,100
168600,note_on,0,0,0,,,,,,,,,1,,62,100
168600,note_on,0,0,0,,,,,,,,,1,,59,100
168600,note_on,0,0,0,,,,,,,,,1,,74,100
168600,note_on,0,0,0,,,,,,,,,4,,68,100
168600,note_on,0,0,0,,,,,,,,,4,,62,100
168600,note_on,0,0,0,,,,,,,,,4,,59,100
168600,note_on,0,0,0,,,,,,,,,4,,74,100
168630,note_on,30,0,0,,,,,,,,,4,,74,0
168630,note_on,0,0,0,,,,,,,,,1,,74,0
168640,note_on,10,0,0,,,,,,,,,1,,73,100
168640,note_on,0,0,0,,,,,,,,,4,,73,100
168670,note_on,30,0,0,,,,,,,,,4,,73,0
168670,note_on,0,0,0,,,,,,,,,1,,73,0
168680,note_on,10,0,0,,,,,,,,,4,,59,0
168680,note_on,0,0,0,,,,,,,,,1,,62,0
168680,note_on,0,0,0,,,,,,,,,1,,59,0
168680,note_on,0,0,0,,,,,,,,,1,,68,0
168680,note_on,0,0,0,,,,,,,,,4,,62,0
168680,note_on,0,0,0,,,,,,,,,4,,68,0
168680,note_on,0,0,0,,,,,,,,,1,,71,100
168680,note_on,0,0,0,,,,,,,,,4,,71,100
168710,note_on,30,0,0,,,,,,,,,4,,71,0
168710,note_on,0,0,0,,,,,,,,,1,,71,0
168720,note_on,10,0,0,,,,,,,,,1,,61,100
168720,note_on,0,0,0,,,,,,,,,1,,76,100
168720,note_on,0,0,0,,,,,,,,,4,,61,100
168720,note_on,0,0,0,,,,,,,,,4,,76,100
168750,note_on,30,0,0,,,,,,,,,4,,76,0
168750,note_on,0,0,0,,,,,,,,,1,,61,0
168750,note_on,0,0,0,,,,,,,,,1,,76,0
168750,note_on,0,0,0,,,,,,,,,4,,61,0
168760,note_on,10,0,0,,,,,,,,,1,,74,100
168760,note_on,0,0,0,,,,,,,,,1,,64,100
168760,note_on,0,0,0,,,,,,,,,4,,74,100
168760,note_on,0,0,0,,,,,,,,,4,,64,100
168790,note_on,30,0,0,,,,,,,,,4,,64,0
168790,note_on,0,0,0,,,,,,,,,1,,74,0
168790,note_on,0,0,0,,,,,,,,,1,,64,0
168790,note_on,0,0,0,,,,,,,,,4,,74,0
168800,note_on,10,0,0,,,,,,,,,1,,69,100
168800,note_on,0,0,0,,,,,,,,,1,,73,100
168800,note_on,0,0,0,,,,,,,,,4,,69,100
168800,note_on,0,0,0,,,,,,,,,4,,73,100
168830,note_on,30,0,0,,,,,,,,,4,,73,0
168830,note_on,0,0,0,,,,,,,,,1,,69,0
168830,note_on,0,0,0,,,,,,,,,1,,73,0
168830,note_on,0,0,0,,,,,,,,,4,,69,0
168840,note_on,10,0,0,,,,,,,,,1,,62,100
168840,note_on,0,0,0,,,,,,,,,1,,78,100
168840,note_on,0,0,0,,,,,,,,,4,,62,100
168840,note_on,0,0,0,,,,,,,,,4,,78,100
168870,note_on,30,0,0,,,,,,,,,4,,78,0
168870,note_on,0,0,0,,,,,,,,,1,,62,0
168870,note_on,0,0,0,,,,,,,,,1,,78,0
168870,note_on,0,0,0,,,,,,,,,4,,62,0
168880,note_on,10,0,0,,,,,,,,,1,,66,100
168880,note_on,0,0,0,,,,,,,,,1,,76,100
168880,note_on,0,0,0,,,,,,,,,4,,66,100
168880,note_on,0,0,0,,,,,,,,,4,,76,100
168910,note_on,30,0,0,,,,,,,,,4,,76,0
168910,note_on,0,0,0,,,,,,,,,1,,66,0
168910,note_on,0,0,0,,,,,,,,,1,,76,0
168910,note_on,0,0,0,,,,,,,,,4,,66,0
168920,note_on,10,0,0,,,,,,,,,1,,71,100
168920,note_on,0,0,0,,,,,,,,,1,,74,100
168920,note_on,0,0,0,,,,,,,,,4,,71,100
168920,note_on,0,0,0,,,,,,,,,4,,74,100
168950,note_on,30,0,0,,,,,,,,,4,,74,0
168950,note_on,0,0,0,,,,,,,,,1,,71,0
168950,note_on,0,0,0,,,,,,,,,1,,74,0
168950,note_on,0,0,0,,,,,,,,,4,,71,0
168960,note_on,10,0,0,,,,,,,,,1,,62,100
168960,note_on,0,0,0,,,,,,,,,1,,78,100
168960,note_on,0,0,0,,,,,,,,,4,,62,100
168960,note_on,0,0,0,,,,,,,,,4,,78,100
168990,note_on,30,0,0,,,,,,,,,4,,78,0
168990,note_on,0,0,0,,,,,,,,,1,,62,0
168990,note_on,0,0,0,,,,,,,,,1,,78,0
168990,note_on,0,0,0,,,,,,,,,4,,62,0
169000,note_on,10,0,0,,,,,,,,,1,,66,100
169000,note_on,0,0,0,,,,,,,,,1,,76,100
169000,note_on,0,0,0,,,,,,,,,4,,66,100
169000,note_on,0,0,0,,,,,,,,,4,,76,100
169030,note_on,30,0,0,,,,,,,,,4,,76,0
169030,note_on,0,0,0,,,,,,,,,1,,66,0
169030,note_on,0,0,0,,,,,,,,,1,,76,0
169030,note_on,0,0,0,,,,,,,,,4,,66,0
169040,note_on,10,0,0,,,,,,,,,1,,71,100
169040,note_on,0,0,0,,,,,,,,,1,,74,100
169040,note_on,0,0,0,,,,,,,,,4,,71,100
169040,note_on,0,0,0,,,,,,,,,4,,74,100
169070,note_on,30,0,0,,,,,,,,,4,,74,0
169070,note_on,0,0,0,,,,,,,,,1,,71,0
169070,note_on,0,0,0,,,,,,,,,1,,74,0
169070,note_on,0,0,0,,,,,,,,,4,,71,0
169080,note_on,10,0,0,,,,,,,,,1,,61,100
169080,note_on,0,0,0,,,,,,,,,1,,76,100
169080,note_on,0,0,0,,,,,,,,,4,,61,100
169080,note_on,0,0,0,,,,,,,,,4,,76,100
169110,note_on,30,0,0,,,,,,,,,4,,76,0
169110,note_on,0,0,0,,,,,,,,,1,,61,0
169110,note_on,0,0,0,,,,,,,,,1,,76,0
169110,note_on,0,0,0,,,,,,,,,4,,61,0
169120,note_on,10,0,0,,,,,,,,,1,,64,100
169120,note_on,0,0,0,,,,,,,,,1,,74,100
169120,note_on,0,0,0,,,,,,,,,4,,64,100
169120,note_on,0,0,0,,,,,,,,,4,,74,100
169150,note_on,30,0,0,,,,,,,,,4,,74,0
169150,note_on,0,0,0,,,,,,,,,1,,64,0
169150,note_on,0,0,0,,,,,,,,,1,,74,0
169150,note_on,0,0,0,,,,,,,,,4,,64,0
169160,note_on,10,0,0,,,,,,,,,1,,69,100
169160,note_on,0,0,0,,,,,,,,,1,,73,100
169160,note_on,0,0,0,,,,,,,,,4,,69,100
169160,note_on,0,0,0,,,,,,,,,4,,73,100
169190,note_on,30,0,0,,,,,,,,,4,,73,0
169190,note_on,0,0,0,,,,,,,,,1,,69,0
169190,note_on,0,0,0,,,,,,,,,1,,73,0
169190,note_on,0,0,0,,,,,,,,,4,,69,0
169200,note_on,10,0,0,,,,,,,,,1,,61,100
169200,note_on,0,0,0,,,,,,,,,1,,76,100
169200,note_on,0,0,0,,,,,,,,,4,,61,100
169200,note_on,0,0,0,,,,,,,,,4,,76,100
169230,note_on,30,0,0,,,,,,,,,4,,76,0
169230,note_on,0,0,0,,,,,,,,,1,,61,0
169230,note_on,0,0,0,,,,,,,,,1,,76,0
169230,note_on,0,0,0,,,,,,,,,4,,61,0
169240,note_on,10,0,0,,,,,,,,,1,,64,100
169240,note_on,0,0,0,,,,,,,,,1,,74,100
169240,note_on,0,0,0,,,,,,,,,4,,64,100
169240,note_on,0,0,0,,,,,,,,,4,,74,100
169270,note_on,30,0,0,,,,,,,,,4,,74,0
169270,note_on,0,0,0,,,,,,,,,1,,64,0
169270,note_on,0,0,0,,,,,,,,,1,,74,0
169270,note_on,0,0,0,,,,,,,,,4,,64,0
169280,note_on,10,0,0,,,,,,,,,1,,69,100
169280,note_on,0,0,0,,,,,,,,,1,,73,100
169280,note_on,0,0,0,,,,,,,,,4,,69,100
169280,note_on,0,0,0,,,,,,,,,4,,73,100
169310,note_on,30,0,0,,,,,,,,,4,,73,0
169310,note_on,0,0,0,,,,,,,,,1,,69,0
169310,note_on,0,0,0,,,,,,,,,1,,73,0
169310,note_on,0,0,0,,,,,,,,,4,,69,0
169320,note_on,10,0,0,,,,,,,,,1,,59,100
169320,note_on,0,0,0,,,,,,,,,1,,74,100
169320,note_on,0,0,0,,,,,,,,,4,,59,100
169320,note_on,0,0,0,,,,,,,,,4,,74,100
169350,note_on,30,0,0,,,,,,,,,4,,74,0
169350,note_on,0,0,0,,,,,,,,,1,,59,0
169350,note_on,0,0,0,,,,,,,,,1,,74,0
169350,note_on,0,0,0,,,,,,,,,4,,59,0
169360,note_on,10,0,0,,,,,,,,,1,,62,100
169360,note_on,0,0,0,,,,,,,,,1,,73,100
169360,note_on,0,0,0,,,,,,,,,4,,62,100
169360,note_on,0,0,0,,,,,,,,,4,,73,100
169390,note_on,30,0,0,,,,,,,,,4,,73,0
169390,note_on,0,0,0,,,,,,,,,1,,62,0
169390,note_on,0,0,0,,,,,,,,,1,,73,0
169390,note_on,0,0,0,,,,,,,,,4,,62,0
169400,note_on,10,0,0,,,,,,,,,1,,68,100
169400,note_on,0,0,0,,,,,,,,,1,,71,100
169400,note_on,0,0,0,,,,,,,,,4,,68,100
169400,note_on,0,0,0,,,,,,,,,4,,71,100
169430,note_on,30,0,0,,,,,,,,,4,,71,0
169430,note_on,0,0,0,,,,,,,,,1,,68,0
169430,note_on,0,0,0,,,,,,,,,1,,71,0
169430,note_on,0,0,0,,,,,,,,,4,,68,0
169440,note_on,10,0,0,,,,,,,,,1,,59,100
169440,note_on,0,0,0,,,,,,,,,1,,74,100
169440,note_on,0,0,0,,,,,,,,,4,,59,100
169440,note_on,0,0,0,,,,,,,,,4,,74,100
169470,note_on,30,0,0,,,,,,,,,4,,74,0
169470,note_on,0,0,0,,,,,,,,,1,,59,0
169470,note_on,0,0,0,,,,,,,,,1,,74,0
169470,note_on,0,0,0,,,,,,,,,4,,59,0
169480,note_on,10,0,0,,,,,,,,,1,,62,100
169480,note_on,0,0,0,,,,,,,,,1,,73,100
169480,note_on,0,0,0,,,,,,,,,4,,62,100
169480,note_on,0,0,0,,,,,,,,,4,,73,100
169510,note_on,30,0,0,,,,,,,,,4,,73,0
169510,note_on,0,0,0,,,,,,,,,1,,62,0
169510,note_on,0,0,0,,,,,,,,,1,,73,0
169510,note_on,0,0,0,,,,,,,,,4,,62,0
169520,note_on,10,0,0,,,,,,,,,1,,68,100
169520,note_on,0,0,0,,,,,,,,,1,,71,100
169520,note_on,0,0,0,,,,,,,,,4,,68,100
169520,note_on,0,0,0,,,,,,,,,4,,71,100
169550,note_on,30,0,0,,,,,,,,,4,,71,0
169550,note_on,0,0,0,,,,,,,,,1,,68,0
169550,note_on,0,0,0,,,,,,,,,1,,71,0
169550,note_on,0,0,0,,,,,,,,,4,,68,0
169560,note_on,10,0,0,,,,,,,,,1,,57,100
169560,note_on,0,0,0,,,,,,,,,1,,73,100
169560,note_on,0,0,0,,,,,,,,,4,,57,100
169560,note_on,0,0,0,,,,,,,,,4,,73,100
169590,note_on,30,0,0,,,,,,,,,4,,73,0
169590,note_on,0,0,0,,,,,,,,,1,,57,0
169590,note_on,0,0,0,,,,,,,,,1,,73,0
169590,note_on,0,0,0,,,,,,,,,4,,57,0
169600,note_on,10,0,0,,,,,,,,,1,,74,100
169600,note_on,0,0,0,,,,,,,,,1,,59,100
169600,note_on,0,0,0,,,,,,,,,4,,74,100
169600,note_on,0,0,0,,,,,,,,,4,,59,100
169630,note_on,30,0,0,,,,,,,,,4,,59,0
169630,note_on,0,0,0,,,,,,,,,1,,74,0
169630,note_on,0,0,0,,,,,,,,,1,,59,0
169630,note_on,0,0,0,,,,,,,,,4,,74,0
169640,note_on,10,0,0,,,,,,,,,1,,76,100
169640,note_on,0,0,0,,,,,,,,,1,,61,100
169640,note_on,0,0,0,,,,,,,,,4,,76,100
169640,note_on,0,0,0,,,,,,,,,4,,61,100
169670,note_on,30,0,0,,,,,,,,,4,,61,0
169670,note_on,0,0,0,,,,,,,,,1,,76,0
169670,note_on,0,0,0,,,,,,,,,1,,61,0
169670,note_on,0,0,0,,,,,,,,,4,,76,0
169680,note_on,10,0,0,,,,,,,,,1,,69,100
169680,note_on,0,0,0,,,,,,,,,1,,54,100
169680,note_on,0,0,0,,,,,,,,,1,,78,100
169680,note_on,0,0,0,,,,,,,,,4,,69,100
169680,note_on,0,0,0,,,,,,,,,4,,54,100
169680,note_on,0,0,0,,,,,,,,,4,,78,100
169710,note_on,30,0,0,,,,,,,,,4,,54,0
169710,note_on,0,0,0,,,,,,,,,4,,69,0
169710,note_on,0,0,0,,,,,,,,,1,,54,0
169710,note_on,0,0,0,,,,,,,,,1,,69,0
169720,note_on,10,0,0,,,,,,,,,1,,71,100
169720,note_on,0,0,0,,,,,,,,,1,,56,100
169720,note_on,0,0,0,,,,,,,,,4,,71,100
169720,note_on,0,0,0,,,,,,,,,4,,56,100
169750,note_on,30,0,0,,,,,,,,,4,,56,0
169750,note_on,0,0,0,,,,,,,,,1,,56,0
169750,note_on,0,0,0,,,,,,,,,1,,71,0
169750,note_on,0,0,0,,,,,,,,,4,,71,0
169760,note_on,10,0,0,,,,,,,,,1,,78,0
169760,note_on,0,0,0,,,,,,,,,4,,78,0
169760,note_on,0,0,0,,,,,,,,,1,,73,100
169760,note_on,0,0,0,,,,,,,,,1,,57,100
169760,note_on,0,0,0,,,,,,,,,4,,73,100
169760,note_on,0,0,0,,,,,,,,,4,,57,100
169790,note_on,30,0,0,,,,,,,,,4,,57,0
169790,note_on,0,0,0,,,,,,,,,1,,73,0
169790,note_on,0,0,0,,,,,,,,,1,,57,0
169790,note_on,0,0,0,,,,,,,,,4,,73,0
169800,note_on,10,0,0,,,,,,,,,1,,56,100
169800,note_on,0,0,0,,,,,,,,,1,,71,100
169800,note_on,0,0,0,,,,,,,,,4,,56,100
169800,note_on,0,0,0,,,,,,,,,4,,71,100
169830,note_on,30,0,0,,,,,,,,,4,,71,0
169830,note_on,0,0,0,,,,,,,,,1,,56,0
169830,note_on,0,0,0,,,,,,,,,1,,71,0
169830,note_on,0,0,0,,,,,,,,,4,,56,0
169840,note_on,10,0,0,,,,,,,,,1,,57,100
169840,note_on,0,0,0,,,,,,,,,1,,73,100
169840,note_on,0,0,0,,,,,,,,,4,,57,100
169840,note_on,0,0,0,,,,,,,,,4,,73,100
169870,note_on,30,0,0,,,,,,,,,4,,73,0
169870,note_on,0,0,0,,,,,,,,,1,,57,0
169870,note_on,0,0,0,,,,,,,,,1,,73,0
169870,note_on,0,0,0,,,,,,,,,4,,57,0
169880,note_on,10,0,0,,,,,,,,,1,,59,100
169880,note_on,0,0,0,,,,,,,,,1,,74,100
169880,note_on,0,0,0,,,,,,,,,4,,59,100
169880,note_on,0,0,0,,,,,,,,,4,,74,100
169910,note_on,30,0,0,,,,,,,,,4,,74,0
169910,note_on,0,0,0,,,,,,,,,1,,59,0
169910,note_on,0,0,0,,,,,,,,,1,,74,0
169910,note_on,0,0,0,,,,,,,,,4,,59,0
169920,note_on,10,0,0,,,,,,,,,1,,52,100
169920,note_on,0,0,0,,,,,,,,,1,,68,100
169920,note_on,0,0,0,,,,,,,,,1,,76,100
169920,note_on,0,0,0,,,,,,,,,4,,52,100
169920,note_on,0,0,0,,,,,,,,,4,,68,100
169920,note_on,0,0,0,,,,,,,,,4,,76,100
169950,note_on,30,0,0,,,,,,,,,4,,68,0
169950,note_on,0,0,0,,,,,,,,,4,,52,0
169950,note_on,0,0,0,,,,,,,,,1,,68,0
169950,note_on,0,0,0,,,,,,,,,1,,52,0
169960,note_on,10,0,0,,,,,,,,,1,,54,100
169960,note_on,0,0,0,,,,,,,,,1,,69,100
169960,note_on,0,0,0,,,,,,,,,4,,54,100
169960,note_on,0,0,0,,,,,,,,,4,,69,100
169990,note_on,30,0,0,,,,,,,,,4,,69,0
169990,note_on,0,0,0,,,,,,,,,1,,69,0
169990,note_on,0,0,0,,,,,,,,,1,,54,0
169990,note_on,0,0,0,,,,,,,,,4,,54,0
170000,note_on,10,0,0,,,,,,,,,1,,76,0
170000,note_on,0,0,0,,,,,,,,,4,,76,0
170000,note_on,0,0,0,,,,,,,,,1,,56,100
170000,note_on,0,0,0,,,,,,,,,1,,71,100
170000,note_on,0,0,0,,,,,,,,,4,,56,100
170000,note_on,0,0,0,,,,,,,,,4,,71,100
170030,note_on,30,0,0,,,,,,,,,4,,71,0
170030,note_on,0,0,0,,,,,,,,,1,,56,0
170030,note_on,0,0,0,,,,,,,,,1,,71,0
170030,note_on,0,0,0,,,,,,,,,4,,56,0
170040,note_on,10,0,0,,,,,,,,,1,,69,100
170040,note_on,0,0,0,,,,,,,,,1,,54,100
170040,note_on,0,0,0,,,,,,,,,4,,69,100
170040,note_on,0,0,0,,,,,,,,,4,,54,100
170070,note_on,30,0,0,,,,,,,,,4,,54,0
170070,note_on,0,0,0,,,,,,,,,1,,69,0
170070,note_on,0,0,0,,,,,,,,,1,,54,0
170070,note_on,0,0,0,,,,,,,,,4,,69,0
170080,note_on,10,0,0,,,,,,,,,1,,71,100
170080,note_on,0,0,0,,,,,,,,,1,,56,100
170080,note_on,0,0,0,,,,,,,,,4,,71,100
170080,note_on,0,0,0,,,,,,,,,4,,56,100
170110,note_on,30,0,0,,,,,,,,,4,,56,0
170110,note_on,0,0,0,,,,,,,,,1,,71,0
170110,note_on,0,0,0,,,,,,,,,1,,56,0
170110,note_on,0,0,0,,,,,,,,,4,,71,0
170120,note_on,10,0,0,,,,,,,,,1,,73,100
170120,note_on,0,0,0,,,,,,,,,1,,57,100
170120,note_on,0,0,0,,,,,,,,,4,,73,100
170120,note_on,0,0,0,,,,,,,,,4,,57,100
170150,note_on,30,0,0,,,,,,,,,4,,57,0
170150,note_on,0,0,0,,,,,,,,,1,,73,0
170150,note_on,0,0,0,,,,,,,,,1,,57,0
170150,note_on,0,0,0,,,,,,,,,4,,73,0
170160,note_on,10,0,0,,,,,,,,,1,,71,100
170160,note_on,0,0,0,,,,,,,,,1,,50,100
170160,note_on,0,0,0,,,,,,,,,4,,71,100
170160,note_on,0,0,0,,,,,,,,,4,,50,100
170190,note_on,30,0,0,,,,,,,,,4,,50,0
170190,note_on,0,0,0,,,,,,,,,1,,71,0
170190,note_on,0,0,0,,,,,,,,,1,,50,0
170190,note_on,0,0,0,,,,,,,,,4,,71,0
170200,note_on,10,0,0,,,,,,,,,1,,73,100
170200,note_on,0,0,0,,,,,,,,,1,,52,100
170200,note_on,0,0,0,,,,,,,,,4,,73,100
170200,note_on,0,0,0,,,,,,,,,4,,52,100
170230,note_on,30,0,0,,,,,,,,,4,,52,0
170230,note_on,0,0,0,,,,,,,,,1,,73,0
170230,note_on,0,0,0,,,,,,,,,1,,52,0
170230,note_on,0,0,0,,,,,,,,,4,,73,0
170240,note_on,10,0,0,,,,,,,,,1,,69,100
170240,note_on,0,0,0,,,,,,,,,1,,54,100
170240,note_on,0,0,0,,,,,,,,,4,,69,100
170240,note_on,0,0,0,,,,,,,,,4,,54,100
170270,note_on,30,0,0,,,,,,,,,4,,54,0
170270,note_on,0,0,0,,,,,,,,,1,,69,0
170270,note_on,0,0,0,,,,,,,,,1,,54,0
170270,note_on,0,0,0,,,,,,,,,4,,69,0
170280,note_on,10,0,0,,,,,,,,,1,,52,100
170280,note_on,0,0,0,,,,,,,,,1,,68,100
170280,note_on,0,0,0,,,,,,,,,4,,52,100
170280,note_on,0,0,0,,,,,,,,,4,,68,100
170310,note_on,30,0,0,,,,,,,,,4,,68,0
170310,note_on,0,0,0,,,,,,,,,1,,68,0
170320,note_on,10,0,0,,,,,,,,,1,,69,100
170320,note_on,0,0,0,,,,,,,,,4,,69,100
170350,note_on,30,0,0,,,,,,,,,4,,69,0
170350,note_on,0,0,0,,,,,,,,,1,,52,0
170350,note_on,0,0,0,,,,,,,,,4,,52,0
170350,note_on,0,0,0,,,,,,,,,1,,69,0
170360,note_on,10,0,0,,,,,,,,,1,,50,100
170360,note_on,0,0,0,,,,,,,,,1,,71,100
170360,note_on,0,0,0,,,,,,,,,4,,50,100
170360,note_on,0,0,0,,,,,,,,,4,,71,100
170390,note_on,30,0,0,,,,,,,,,4,,71,0
170390,note_on,0,0,0,,,,,,,,,1,,50,0
170390,note_on,0,0,0,,,,,,,,,1,,71,0
170390,note_on,0,0,0,,,,,,,,,4,,50,0
170400,note_on,10,0,0,,,,,,,,,1,,49,100
170400,note_on,0,0,0,,,,,,,,,1,,64,100
170400,note_on,0,0,0,,,,,,,,,4,,49,100
170400,note_on,0,0,0,,,,,,,,,4,,64,100
170430,note_on,30,0,0,,,,,,,,,4,,64,0
170430,note_on,0,0,0,,,,,,,,,1,,64,0
170440,note_on,10,0,0,,,,,,,,,1,,69,100
170440,note_on,0,0,0,,,,,,,,,4,,69,100
170470,note_on,30,0,0,,,,,,,,,4,,69,0
170470,note_on,0,0,0,,,,,,,,,1,,49,0
170470,note_on,0,0,0,,,,,,,,,4,,49,0
170470,note_on,0,0,0,,,,,,,,,1,,69,0
170480,note_on,10,0,0,,,,,,,,,1,,45,100
170480,note_on,0,0,0,,,,,,,,,1,,68,100
170480,note_on,0,0,0,,,,,,,,,4,,45,100
170480,note_on,0,0,0,,,,,,,,,4,,68,100
170510,note_on,30,0,0,,,,,,,,,4,,68,0
170510,note_on,0,0,0,,,,,,,,,1,,45,0
170510,note_on,0,0,0,,,,,,,,,1,,68,0
170510,note_on,0,0,0,,,,,,,,,4,,45,0
170520,note_on,10,0,0,,,,,,,,,1,,50,100
170520,note_on,0,0,0,,,,,,,,,1,,66,100
170520,note_on,0,0,0,,,,,,,,,4,,50,100
170520,note_on,0,0,0,,,,,,,,,4,,66,100
170550,note_on,30,0,0,,,,,,,,,4,,66,0
170550,note_on,0,0,0,,,,,,,,,1,,66,0
170560,note_on,10,0,0,,,,,,,,,1,,71,100
170560,note_on,0,0,0,,,,,,,,,4,,71,100
170590,note_on,30,0,0,,,,,,,,,4,,71,0
170590,note_on,0,0,0,,,,,,,,,1,,50,0
170590,note_on,0,0,0,,,,,,,,,4,,50,0
170590,note_on,0,0,0,,,,,,,,,1,,71,0
170600,note_on,10,0,0,,,,,,,,,1,,47,100
170600,note_on,0,0,0,,,,,,,,,1,,69,100
170600,note_on,0,0,0,,,,,,,,,4,,47,100
170600,note_on,0,0,0,,,,,,,,,4,,69,100
170630,note_on,30,0,0,,,,,,,,,4,,69,0
170630,note_on,0,0,0,,,,,,,,,1,,47,0
170630,note_on,0,0,0,,,,,,,,,1,,69,0
170630,note_on,0,0,0,,,,,,,,,4,,47,0
170640,note_on,10,0,0,,,,,,,,,1,,52,100
170640,note_on,0,0,0,,,,,,,,,1,,68,100
170640,note_on,0,0,0,,,,,,,,,4,,52,100
170640,note_on,0,0,0,,,,,,,,,4,,68,100
170670,note_on,30,0,0,,,,,,,,,4,,68,0
170670,note_on,0,0,0,,,,,,,,,1,,68,0
170680,note_on,10,0,0,,,,,,,,,1,,76,100
170680,note_on,0,0,0,,,,,,,,,4,,76,100
170710,note_on,30,0,0,,,,,,,,,4,,76,0
170710,note_on,0,0,0,,,,,,,,,1,,52,0
170710,note_on,0,0,0,,,,,,,,,4,,52,0
170710,note_on,0,0,0,,,,,,,,,1,,76,0
170720,note_on,10,0,0,,,,,,,,,1,,56,100
170720,note_on,0,0,0,,,,,,,,,1,,74,100
170720,note_on,0,0,0,,,,,,,,,4,,56,100
170720,note_on,0,0,0,,,,,,,,,4,,74,100
170750,note_on,30,0,0,,,,,,,,,4,,74,0
170750,note_on,0,0,0,,,,,,,,,1,,56,0
170750,note_on,0,0,0,,,,,,,,,1,,74,0
170750,note_on,0,0,0,,,,,,,,,4,,56,0
170760,note_on,10,0,0,,,,,,,,,1,,57,100
170760,note_on,0,0,0,,,,,,,,,1,,73,100
170760,note_on,0,0,0,,,,,,,,,4,,57,100
170760,note_on,0,0,0,,,,,,,,,4,,73,100
170790,note_on,30,0,0,,,,,,,,,4,,73,0
170790,note_on,0,0,0,,,,,,,,,1,,73,0
170800,note_on,10,0,0,,,,,,,,,1,,76,100
170800,note_on,0,0,0,,,,,,,,,4,,76,100
170830,note_on,30,0,0,,,,,,,,,4,,76,0
170830,note_on,0,0,0,,,,,,,,,1,,57,0
170830,note_on,0,0,0,,,,,,,,,4,,57,0
170830,note_on,0,0,0,,,,,,,,,1,,76,0
170840,note_on,10,0,0,,,,,,,,,1,,81,100
170840,note_on,0,0,0,,,,,,,,,4,,81,100
170870,note_on,30,0,0,,,,,,,,,4,,81,0
170870,note_on,0,0,0,,,,,,,,,1,,81,0
170880,note_on,10,0,0,,,,,,,,,1,,79,100
170880,note_on,0,0,0,,,,,,,,,4,,79,100
170910,note_on,30,0,0,,,,,,,,,4,,79,0
170910,note_on,0,0,0,,,,,,,,,1,,79,0
170920,note_on,10,0,0,,,,,,,,,1,,78,100
170920,note_on,0,0,0,,,,,,,,,4,,78,100
170950,note_on,30,0,0,,,,,,,,,4,,78,0
170950,note_on,0,0,0,,,,,,,,,1,,78,0
170960,note_on,10,0,0,,,,,,,,,1,,76,100
170960,note_on,0,0,0,,,,,,,,,4,,76,100
170990,note_on,30,0,0,,,,,,,,,4,,76,0
170990,note_on,0,0,0,,,,,,,,,1,,76,0
171000,note_on,10,0,0,,,,,,,,,1,,45,100
171000,note_on,0,0,0,,,,,,,,,1,,78,100
171000,note_on,0,0,0,,,,,,,,,4,,45,100
171000,note_on,0,0,0,,,,,,,,,4,,78,100
171030,note_on,30,0,0,,,,,,,,,4,,78,0
171030,note_on,0,0,0,,,,,,,,,1,,78,0
171040,note_on,10,0,0,,,,,,,,,1,,81,100
171040,note_on,0,0,0,,,,,,,,,4,,81,100
171070,note_on,30,0,0,,,,,,,,,4,,81,0
171070,note_on,0,0,0,,,,,,,,,1,,45,0
171070,note_on,0,0,0,,,,,,,,,4,,45,0
171070,note_on,0,0,0,,,,,,,,,1,,81,0
171080,note_on,10,0,0,,,,,,,,,1,,86,100
171080,note_on,0,0,0,,,,,,,,,4,,86,100
171110,note_on,30,0,0,,,,,,,,,4,,86,0
171110,note_on,0,0,0,,,,,,,,,1,,86,0
171120,note_on,10,0,0,,,,,,,,,1,,78,100
171120,note_on,0,0,0,,,,,,,,,4,,78,100
171150,note_on,30,0,0,,,,,,,,,4,,78,0
171150,note_on,0,0,0,,,,,,,,,1,,78,0
171160,note_on,10,0,0,,,,,,,,,1,,76,100
171160,note_on,0,0,0,,,,,,,,,4,,76,100
171190,note_on,30,0,0,,,,,,,,,4,,76,0
171190,note_on,0,0,0,,,,,,,,,1,,76,0
171200,note_on,10,0,0,,,,,,,,,1,,74,100
171200,note_on,0,0,0,,,,,,,,,4,,74,100
171230,note_on,30,0,0,,,,,,,,,4,,74,0
171230,note_on,0,0,0,,,,,,,,,1,,74,0
171240,note_on,10,0,0,,,,,,,,,1,,57,100
171240,note_on,0,0,0,,,,,,,,,1,,73,100
171240,note_on,0,0,0,,,,,,,,,4,,57,100
171240,note_on,0,0,0,,,,,,,,,4,,73,100
171270,note_on,30,0,0,,,,,,,,,4,,73,0
171270,note_on,0,0,0,,,,,,,,,1,,73,0
171280,note_on,10,0,0,,,,,,,,,1,,76,100
171280,note_on,0,0,0,,,,,,,,,4,,76,100
171310,note_on,30,0,0,,,,,,,,,4,,76,0
171310,note_on,0,0,0,,,,,,,,,1,,57,0
171310,note_on,0,0,0,,,,,,,,,4,,57,0
171310,note_on,0,0,0,,,,,,,,,1,,76,0
171320,note_on,10,0,0,,,,,,,,,1,,69,100
171320,note_on,0,0,0,,,,,,,,,4,,69,100
171350,note_on,30,0,0,,,,,,,,,4,,69,0
171350,note_on,0,0,0,,,,,,,,,1,,69,0
171360,note_on,10,0,0,,,,,,,,,1,,67,100
171360,note_on,0,0,0,,,,,,,,,4,,67,100
171390,note_on,30,0,0,,,,,,,,,4,,67,0
171390,note_on,0,0,0,,,,,,,,,1,,67,0
171400,note_on,10,0,0,,,,,,,,,1,,66,100
171400,note_on,0,0,0,,,,,,,,,4,,66,100
171430,note_on,30,0,0,,,,,,,,,4,,66,0
171430,note_on,0,0,0,,,,,,,,,1,,66,0
171440,note_on,10,0,0,,,,,,,,,1,,64,100
171440,note_on,0,0,0,,,,,,,,,4,,64,100
171470,note_on,30,0,0,,,,,,,,,4,,64,0
171470,note_on,0,0,0,,,,,,,,,1,,64,0
171480,note_on,10,0,0,,,,,,,,,1,,45,100
171480,note_on,0,0,0,,,,,,,,,1,,66,100
171480,note_on,0,0,0,,,,,,,,,4,,45,100
171480,note_on,0,0,0,,,,,,,,,4,,66,100
171510,note_on,30,0,0,,,,,,,,,4,,66,0
171510,note_on,0,0,0,,,,,,,,,1,,66,0
171520,note_on,10,0,0,,,,,,,,,1,,69,100
171520,note_on,0,0,0,,,,,,,,,4,,69,100
171550,note_on,30,0,0,,,,,,,,,4,,69,0
171550,note_on,0,0,0,,,,,,,,,1,,45,0
171550,note_on,0,0,0,,,,,,,,,4,,45,0
171550,note_on,0,0,0,,,,,,,,,1,,69,0
171560,note_on,10,0,0,,,,,,,,,1,,74,100
171560,note_on,0,0,0,,,,,,,,,4,,74,100
171590,note_on,30,0,0,,,,,,,,,4,,74,0
171590,note_on,0,0,0,,,,,,,,,1,,74,0
171600,note_on,10,0,0,,,,,,,,,1,,66,100
171600,note_on,0,0,0,,,,,,,,,4,,66,100
171630,note_on,30,0,0,,,,,,,,,4,,66,0
171630,note_on,0,0,0,,,,,,,,,1,,66,0
171640,note_on,10,0,0,,,,,,,,,1,,64,100
171640,note_on,0,0,0,,,,,,,,,4,,64,100
171670,note_on,30,0,0,,,,,,,,,4,,64,0
171670,note_on,0,0,0,,,,,,,,,1,,64,0
171680,note_on,10,0,0,,,,,,,,,1,,62,100
171680,note_on,0,0,0,,,,,,,,,4,,62,100
171710,note_on,30,0,0,,,,,,,,,4,,62,0
171710,note_on,0,0,0,,,,,,,,,1,,62,0
171720,note_on,10,0,0,,,,,,,,,1,,57,100
171720,note_on,0,0,0,,,,,,,,,1,,61,100
171720,note_on,0,0,0,,,,,,,,,4,,57,100
171720,note_on,0,0,0,,,,,,,,,4,,61,100
171750,note_on,30,0,0,,,,,,,,,4,,61,0
171750,note_on,0,0,0,,,,,,,,,1,,61,0
171760,note_on,10,0,0,,,,,,,,,1,,64,100
171760,note_on,0,0,0,,,,,,,,,4,,64,100
171790,note_on,30,0,0,,,,,,,,,4,,64,0
171790,note_on,0,0,0,,,,,,,,,1,,57,0
171790,note_on,0,0,0,,,,,,,,,4,,57,0
171790,note_on,0,0,0,,,,,,,,,1,,64,0
171800,note_on,10,0,0,,,,,,,,,1,,69,100
171800,note_on,0,0,0,,,,,,,,,4,,69,100
171830,note_on,30,0,0,,,,,,,,,4,,69,0
171830,note_on,0,0,0,,,,,,,,,1,,69,0
171840,note_on,10,0,0,,,,,,,,,1,,62,100
171840,note_on,0,0,0,,,,,,,,,4,,62,100
171870,note_on,30,0,0,,,,,,,,,4,,62,0
171870,note_on,0,0,0,,,,,,,,,1,,62,0
171880,note_on,10,0,0,,,,,,,,,1,,68,100
171880,note_on,0,0,0,,,,,,,,,4,,68,100
171910,note_on,30,0,0,,,,,,,,,4,,68,0
171910,note_on,0,0,0,,,,,,,,,1,,68,0
171920,note_on,10,0,0,,,,,,,,,1,,71,100
171920,note_on,0,0,0,,,,,,,,,4,,71,100
171950,note_on,30,0,0,,,,,,,,,4,,71,0
171950,note_on,0,0,0,,,,,,,,,1,,71,0
171960,note_on,10,0,0,,,,,,,,,1,,45,100
171960,note_on,0,0,0,,,,,,,,,1,,64,100
171960,note_on,0,0,0,,,,,,,,,4,,45,100
171960,note_on,0,0,0,,,,,,,,,4,,64,100
171990,note_on,30,0,0,,,,,,,,,4,,64,0
171990,note_on,0,0,0,,,,,,,,,1,,64,0
172000,note_on,10,0,0,,,,,,,,,1,,69,100
172000,note_on,0,0,0,,,,,,,,,4,,69,100
172030,note_on,30,0,0,,,,,,,,,4,,69,0
172030,note_on,0,0,0,,,,,,,,,1,,45,0
172030,note_on,0,0,0,,,,,,,,,4,,45,0
172030,note_on,0,0,0,,,,,,,,,1,,69,0
172040,note_on,10,0,0,,,,,,,,,1,,73,100
172040,note_on,0,0,0,,,,,,,,,4,,73,100
172070,note_on,30,0,0,,,,,,,,,4,,73,0
172070,note_on,0,0,0,,,,,,,,,1,,73,0
172080,note_on,10,0,0,,,,,,,,,1,,68,100
172080,note_on,0,0,0,,,,,,,,,4,,68,100
172110,note_on,30,0,0,,,,,,,,,4,,68,0
172110,note_on,0,0,0,,,,,,,,,1,,68,0
172120,note_on,10,0,0,,,,,,,,,1,,71,100
172120,note_on,0,0,0,,,,,,,,,4,,71,100
172150,note_on,30,0,0,,,,,,,,,4,,71,0
172150,note_on,0,0,0,,,,,,,,,1,,71,0
172160,note_on,10,0,0,,,,,,,,,1,,74,100
172160,note_on,0,0,0,,,,,,,,,4,,74,100
172190,note_on,30,0,0,,,,,,,,,4,,74,0
172190,note_on,0,0,0,,,,,,,,,1,,74,0
172200,note_on,10,0,0,,,,,,,,,1,,57,100
172200,note_on,0,0,0,,,,,,,,,1,,69,100
172200,note_on,0,0,0,,,,,,,,,4,,57,100
172200,note_on,0,0,0,,,,,,,,,4,,69,100
172230,note_on,30,0,0,,,,,,,,,4,,69,0
172230,note_on,0,0,0,,,,,,,,,1,,69,0
172240,note_on,10,0,0,,,,,,,,,1,,73,100
172240,note_on,0,0,0,,,,,,,,,4,,73,100
172270,note_on,30,0,0,,,,,,,,,4,,73,0
172270,note_on,0,0,0,,,,,,,,,1,,57,0
172270,note_on,0,0,0,,,,,,,,,4,,57,0
172270,note_on,0,0,0,,,,,,,,,1,,73,0
172280,note_on,10,0,0,,,,,,,,,1,,76,100
172280,note_on,0,0,0,,,,,,,,,4,,76,100
172310,note_on,30,0,0,,,,,,,,,4,,76,0
172310,note_on,0,0,0,,,,,,,,,1,,76,0
172320,note_on,10,0,0,,,,,,,,,1,,71,100
172320,note_on,0,0,0,,,,,,,,,4,,71,100
172350,note_on,30,0,0,,,,,,,,,4,,71,0
172350,note_on,0,0,0,,,,,,,,,1,,71,0
172360,note_on,10,0,0,,,,,,,,,1,,74,100
172360,note_on,0,0,0,,,,,,,,,4,,74,100
172390,note_on,30,0,0,,,,,,,,,4,,74,0
172390,note_on,0,0,0,,,,,,,,,1,,74,0
172400,note_on,10,0,0,,,,,,,,,1,,80,100
172400,note_on,0,0,0,,,,,,,,,4,,80,100
172430,note_on,30,0,0,,,,,,,,,4,,80,0
172430,note_on,0,0,0,,,,,,,,,1,,80,0
172440,note_on,10,0,0,,,,,,,,,1,,45,100
172440,note_on,0,0,0,,,,,,,,,1,,73,100
172440,note_on,0,0,0,,,,,,,,,4,,45,100
172440,note_on,0,0,0,,,,,,,,,4,,73,100
172470,note_on,30,0,0,,,,,,,,,4,,73,0
172470,note_on,0,0,0,,,,,,,,,1,,73,0
172480,note_on,10,0,0,,,,,,,,,1,,76,100
172480,note_on,0,0,0,,,,,,,,,4,,76,100
172510,note_on,30,0,0,,,,,,,,,4,,76,0
172510,note_on,0,0,0,,,,,,,,,1,,45,0
172510,note_on,0,0,0,,,,,,,,,4,,45,0
172510,note_on,0,0,0,,,,,,,,,1,,76,0
172520,note_on,10,0,0,,,,,,,,,1,,81,100
172520,note_on,0,0,0,,,,,,,,,4,,81,100
172550,note_on,30,0,0,,,,,,,,,4,,81,0
172550,note_on,0,0,0,,,,,,,,,1,,81,0
172560,note_on,10,0,0,,,,,,,,,1,,74,100
172560,note_on,0,0,0,,,,,,,,,4,,74,100
172590,note_on,30,0,0,,,,,,,,,4,,74,0
172590,note_on,0,0,0,,,,,,,,,1,,74,0
172600,note_on,10,0,0,,,,,,,,,1,,80,100
172600,note_on,0,0,0,,,,,,,,,4,,80,100
172630,note_on,30,0,0,,,,,,,,,4,,80,0
172630,note_on,0,0,0,,,,,,,,,1,,80,0
172640,note_on,10,0,0,,,,,,,,,1,,83,100
172640,note_on,0,0,0,,,,,,,,,4,,83,100
172670,note_on,30,0,0,,,,,,,,,4,,83,0
172670,note_on,0,0,0,,,,,,,,,1,,83,0
172680,note_on,10,0,0,,,,,,,,,1,,57,100
172680,note_on,0,0,0,,,,,,,,,1,,76,100
172680,note_on,0,0,0,,,,,,,,,4,,57,100
172680,note_on,0,0,0,,,,,,,,,4,,76,100
172710,note_on,30,0,0,,,,,,,,,4,,76,0
172710,note_on,0,0,0,,,,,,,,,1,,76,0
172720,note_on,10,0,0,,,,,,,,,1,,81,100
172720,note_on,0,0,0,,,,,,,,,4,,81,100
172750,note_on,30,0,0,,,,,,,,,4,,81,0
172750,note_on,0,0,0,,,,,,,,,1,,81,0
172760,note_on,10,0,0,,,,,,,,,4,,57,0
172760,note_on,0,0,0,,,,,,,,,1,,57,0
172760,note_on,0,0,0,,,,,,,,,1,,85,100
172760,note_on,0,0,0,,,,,,,,,4,,85,100
172790,note_on,30,0,0,,,,,,,,,4,,85,0
172790,note_on,0,0,0,,,,,,,,,1,,85,0
172800,note_on,10,0,0,,,,,,,,,1,,50,100
172800,note_on,0,0,0,,,,,,,,,1,,78,100
172800,note_on,0,0,0,,,,,,,,,4,,50,100
172800,note_on,0,0,0,,,,,,,,,4,,78,100
172830,note_on,30,0,0,,,,,,,,,4,,78,0
172830,note_on,0,0,0,,,,,,,,,1,,78,0
172840,note_on,10,0,0,,,,,,,,,1,,83,100
172840,note_on,0,0,0,,,,,,,,,4,,83,100
172870,note_on,30,0,0,,,,,,,,,4,,83,0
172870,note_on,0,0,0,,,,,,,,,1,,83,0
172880,note_on,10,0,0,,,,,,,,,4,,50,0
172880,note_on,0,0,0,,,,,,,,,1,,50,0
172880,note_on,0,0,0,,,,,,,,,1,,86,100
172880,note_on,0,0,0,,,,,,,,,4,,86,100
172910,note_on,30,0,0,,,,,,,,,4,,86,0
172910,note_on,0,0,0,,,,,,,,,1,,86,0
172920,note_on,10,0,0,,,,,,,,,1,,52,100
172920,note_on,0,0,0,,,,,,,,,1,,80,100
172920,note_on,0,0,0,,,,,,,,,4,,52,100
172920,note_on,0,0,0,,,,,,,,,4,,80,100
172950,note_on,30,0,0,,,,,,,,,4,,80,0
172950,note_on,0,0,0,,,,,,,,,1,,80,0
172960,note_on,10,0,0,,,,,,,,,1,,83,100
172960,note_on,0,0,0,,,,,,,,,4,,83,100
172990,note_on,30,0,0,,,,,,,,,4,,83,0
172990,note_on,0,0,0,,,,,,,,,1,,83,0
173000,note_on,10,0,0,,,,,,,,,4,,52,0
173000,note_on,0,0,0,,,,,,,,,1,,52,0
173000,note_on,0,0,0,,,,,,,,,1,,76,100
173000,note_on,0,0,0,,,,,,,,,4,,76,100
173030,note_on,30,0,0,,,,,,,,,4,,76,0
173030,note_on,0,0,0,,,,,,,,,1,,76,0
173040,note_on,10,0,0,,,,,,,,,1,,74,100
173040,note_on,0,0,0,,,,,,,,,4,,74,100
173070,note_on,30,0,0,,,,,,,,,4,,74,0
173070,note_on,0,0,0,,,,,,,,,1,,74,0
173080,note_on,10,0,0,,,,,,,,,1,,73,100
173080,note_on,0,0,0,,,,,,,,,4,,73,100
173110,note_on,30,0,0,,,,,,,,,4,,73,0
173110,note_on,0,0,0,,,,,,,,,1,,73,0
173120,note_on,10,0,0,,,,,,,,,1,,71,100
173120,note_on,0,0,0,,,,,,,,,4,,71,100
173150,note_on,30,0,0,,,,,,,,,4,,71,0
173150,note_on,0,0,0,,,,,,,,,1,,71,0
173160,note_on,10,0,0,,,,,,,,,1,,40,100
173160,note_on,0,0,0,,,,,,,,,1,,73,100
173160,note_on,0,0,0,,,,,,,,,4,,40,100
173160,note_on,0,0,0,,,,,,,,,4,,73,100
173190,note_on,30,0,0,,,,,,,,,4,,73,0
173190,note_on,0,0,0,,,,,,,,,1,,73,0
173200,note_on,10,0,0,,,,,,,,,1,,76,100
173200,note_on,0,0,0,,,,,,,,,4,,76,100
173230,note_on,30,0,0,,,,,,,,,4,,76,0
173230,note_on,0,0,0,,,,,,,,,1,,76,0
173240,note_on,10,0,0,,,,,,,,,4,,40,0
173240,note_on,0,0,0,,,,,,,,,1,,40,0
173240,note_on,0,0,0,,,,,,,,,1,,81,100
173240,note_on,0,0,0,,,,,,,,,4,,81,100
173270,note_on,30,0,0,,,,,,,,,4,,81,0
173270,note_on,0,0,0,,,,,,,,,1,,81,0
173280,note_on,10,0,0,,,,,,,,,1,,73,100
173280,note_on,0,0,0,,,,,,,,,4,,73,100
173310,note_on,30,0,0,,,,,,,,,4,,73,0
173310,note_on,0,0,0,,,,,,,,,1,,73,0
173320,note_on,10,0,0,,,,,,,,,1,,71,100
173320,note_on,0,0,0,,,,,,,,,4,,71,100
173350,note_on,30,0,0,,,,,,,,,4,,71,0
173350,note_on,0,0,0,,,,,,,,,1,,71,0
173360,note_on,10,0,0,,,,,,,,,1,,69,100
173360,note_on,0,0,0,,,,,,,,,4,,69,100
173390,note_on,30,0,0,,,,,,,,,4,,69,0
173390,note_on,0,0,0,,,,,,,,,1,,69,0
173400,note_on,10,0,0,,,,,,,,,1,,52,100
173400,note_on,0,0,0,,,,,,,,,1,,68,100
173400,note_on,0,0,0,,,,,,,,,4,,52,100
173400,note_on,0,0,0,,,,,,,,,4,,68,100
173430,note_on,30,0,0,,,,,,,,,4,,68,0
173430,note_on,0,0,0,,,,,,,,,1,,68,0
173440,note_on,10,0,0,,,,,,,,,1,,71,100
173440,note_on,0,0,0,,,,,,,,,4,,71,100
173470,note_on,30,0,0,,,,,,,,,4,,71,0
173470,note_on,0,0,0,,,,,,,,,1,,71,0
173480,note_on,10,0,0,,,,,,,,,4,,52,0
173480,note_on,0,0,0,,,,,,,,,1,,52,0
173480,note_on,0,0,0,,,,,,,,,1,,76,100
173480,note_on,0,0,0,,,,,,,,,4,,76,100
173510,note_on,30,0,0,,,,,,,,,4,,76,0
173510,note_on,0,0,0,,,,,,,,,1,,76,0
173520,note_on,10,0,0,,,,,,,,,1,,74,100
173520,note_on,0,0,0,,,,,,,,,4,,74,100
173550,note_on,30,0,0,,,,,,,,,4,,74,0
173550,note_on,0,0,0,,,,,,,,,1,,74,0
173560,note_on,10,0,0,,,,,,,,,1,,73,100
173560,note_on,0,0,0,,,,,,,,,4,,73,100
173580,note_on,20,0,0,,,,,,,,,5,,76,100
173580,note_on,0,0,0,,,,,,,,,6,,68,100
173580,note_on,0,0,0,,,,,,,,,7,,68,100
173580,note_on,0,0,0,,,,,,,,,13,,76,100
173590,note_on,10,0,0,,,,,,,,,4,,73,0
173590,note_on,0,0,0,,,,,,,,,1,,73,0
173600,note_on,10,0,0,,,,,,,,,1,,71,100
173600,note_on,0,0,0,,,,,,,,,4,,71,100
173610,note_on,10,0,0,,,,,,,,,7,,68,0
173610,note_on,0,0,0,,,,,,,,,5,,76,0
173610,note_on,0,0,0,,,,,,,,,6,,68,0
173610,note_on,0,0,0,,,,,,,,,13,,76,0
173630,note_on,20,0,0,,,,,,,,,4,,71,0
173630,note_on,0,0,0,,,,,,,,,1,,71,0
173640,note_on,10,0,0,,,,,,,,,0,,69,100
173640,note_on,0,0,0,,,,,,,,,0,,64,100
173640,note_on,0,0,0,,,,,,,,,0,,61,100
173640,note_on,0,0,0,,,,,,,,,0,,57,100
173640,note_on,0,0,0,,,,,,,,,0,,83,100
173640,note_on,0,0,0,,,,,,,,,3,,69,100
173640,note_on,0,0,0,,,,,,,,,3,,64,100
173640,note_on,0,0,0,,,,,,,,,3,,61,100
173640,note_on,0,0,0,,,,,,,,,3,,57,100
173640,note_on,0,0,0,,,,,,,,,3,,83,100
173640,note_on,0,0,0,,,,,,,,,5,,83,100
173640,note_on,0,0,0,,,,,,,,,6,,61,100
173640,note_on,0,0,0,,,,,,,,,7,,61,100
173640,note_on,0,0,0,,,,,,,,,8,,57,100
173640,note_on,0,0,0,,,,,,,,,10,,45,100
173640,note_on,0,0,0,,,,,,,,,13,,83,100
173640,note_on,0,0,0,,,,,,,,,14,,57,100
173640,note_on,0,0,0,,,,,,,,,15,,57,100
173655,note_on,15,0,0,,,,,,,,,13,,83,0
173655,note_on,0,0,0,,,,,,,,,5,,83,0
173655,note_on,0,0,0,,,,,,,,,3,,83,0
173655,note_on,0,0,0,,,,,,,,,0,,83,0
173655,note_on,0,0,0,,,,,,,,,0,,81,100
173655,note_on,0,0,0,,,,,,,,,3,,81,100
173655,note_on,0,0,0,,,,,,,,,5,,81,100
173655,note_on,0,0,0,,,,,,,,,13,,81,100
173670,note_on,15,0,0,,,,,,,,,13,,81,0
173670,note_on,0,0,0,,,,,,,,,5,,81,0
173670,note_on,0,0,0,,,,,,,,,3,,81,0
173670,note_on,0,0,0,,,,,,,,,0,,81,0
173670,note_on,0,0,0,,,,,,,,,0,,83,100
173670,note_on,0,0,0,,,,,,,,,3,,83,100
173670,note_on,0,0,0,,,,,,,,,5,,83,100
173670,note_on,0,0,0,,,,,,,,,13,,83,100
173685,note_on,15,0,0,,,,,,,,,13,,83,0
173685,note_on,0,0,0,,,,,,,,,5,,83,0
173685,note_on,0,0,0,,,,,,,,,3,,83,0
173685,note_on,0,0,0,,,,,,,,,0,,83,0
173685,note_on,0,0,0,,,,,,,,,0,,81,100
173685,note_on,0,0,0,,,,,,,,,3,,81,100
173685,note_on,0,0,0,,,,,,,,,5,,81,100
173685,note_on,0,0,0,,,,,,,,,13,,81,100
173700,note_on,15,0,0,,,,,,,,,13,,81,0
173700,note_on,0,0,0,,,,,,,,,5,,81,0
173700,note_on,0,0,0,,,,,,,,,3,,81,0
173700,note_on,0,0,0,,,,,,,,,0,,81,0
173700,note_on,0,0,0,,,,,,,,,0,,83,100
173700,note_on,0,0,0,,,,,,,,,3,,83,100
173700,note_on,0,0,0,,,,,,,,,5,,83,100
173700,note_on,0,0,0,,,,,,,,,13,,83,100
173715,note_on,15,0,0,,,,,,,,,13,,83,0
173715,note_on,0,0,0,,,,,,,,,5,,83,0
173715,note_on,0,0,0,,,,,,,,,3,,83,0
173715,note_on,0,0,0,,,,,,,,,15,,57,0
173715,note_on,0,0,0,,,,,,,,,8,,57,0
173715,note_on,0,0,0,,,,,,,,,0,,83,0
173715,note_on,0,0,0,,,,,,,,,14,,57,0
173715,note_on,0,0,0,,,,,,,,,10,,45,0
173715,note_on,0,0,0,,,,,,,,,0,,81,100
173715,note_on,0,0,0,,,,,,,,,3,,81,100
173715,note_on,0,0,0,,,,,,,,,5,,81,100
173715,note_on,0,0,0,,,,,,,,,13,,81,100
173730,note_on,15,0,0,,,,,,,,,13,,81,0
173730,note_on,0,0,0,,,,,,,,,7,,61,0
173730,note_on,0,0,0,,,,,,,,,6,,61,0
173730,note_on,0,0,0,,,,,,,,,5,,81,0
173730,note_on,0,0,0,,,,,,,,,0,,81,0
173730,note_on,0,0,0,,,,,,,,,3,,81,0
173730,note_on,0,0,0,,,,,,,,,0,,83,100
173730,note_on,0,0,0,,,,,,,,,3,,83,100
173730,note_on,0,0,0,,,,,,,,,5,,83,100
173730,note_on,0,0,0,,,,,,,,,13,,83,100
173745,note_on,15,0,0,,,,,,,,,13,,83,0
173745,note_on,0,0,0,,,,,,,,,3,,83,0
173745,note_on,0,0,0,,,,,,,,,0,,83,0
173745,note_on,0,0,0,,,,,,,,,5,,83,0
173745,note_on,0,0,0,,,,,,,,,0,,81,100
173745,note_on,0,0,0,,,,,,,,,3,,81,100
173745,note_on,0,0,0,,,,,,,,,5,,81,100
173745,note_on,0,0,0,,,,,,,,,13,,81,100
173760,note_on,15,0,0,,,,,,,,,13,,81,0
173760,note_on,0,0,0,,,,,,,,,0,,61,0
173760,note_on,0,0,0,,,,,,,,,3,,69,0
173760,note_on,0,0,0,,,,,,,,,0,,64,0
173760,note_on,0,0,0,,,,,,,,,3,,64,0
173760,note_on,0,0,0,,,,,,,,,0,,57,0
173760,note_on,0,0,0,,,,,,,,,3,,61,0
173760,note_on,0,0,0,,,,,,,,,3,,57,0
173760,note_on,0,0,0,,,,,,,,,0,,81,0
173760,note_on,0,0,0,,,,,,,,,0,,69,0
173760,note_on,0,0,0,,,,,,,,,5,,81,0
173760,note_on,0,0,0,,,,,,,,,3,,81,0
173760,note_on,0,0,0,,,,,,,,,0,,59,100
173760,note_on,0,0,0,,,,,,,,,0,,83,100
173760,note_on,0,0,0,,,,,,,,,3,,59,100
173760,note_on,0,0,0,,,,,,,,,3,,83,100
173760,note_on,0,0,0,,,,,,,,,5,,83,100
173760,note_on,0,0,0,,,,,,,,,6,,62,100
173760,note_on,0,0,0,,,,,,,,,7,,62,100
173760,note_on,0,0,0,,,,,,,,,8,,59,100
173760,note_on,0,0,0,,,,,,,,,10,,47,100
173760,note_on,0,0,0,,,,,,,,,13,,83,100
173760,note_on,0,0,0,,,,,,,,,14,,59,100
173760,note_on,0,0,0,,,,,,,,,15,,59,100
173775,note_on,15,0,0,,,,,,,,,13,,83,0
173775,note_on,0,0,0,,,,,,,,,5,,83,0
173775,note_on,0,0,0,,,,,,,,,3,,83,0
173775,note_on,0,0,0,,,,,,,,,0,,83,0
173775,note_on,0,0,0,,,,,,,,,0,,81,100
173775,note_on,0,0,0,,,,,,,,,3,,81,100
173775,note_on,0,0,0,,,,,,,,,5,,81,100
173775,note_on,0,0,0,,,,,,,,,13,,81,100
173790,note_on,15,0,0,,,,,,,,,13,,81,0
173790,note_on,0,0,0,,,,,,,,,3,,81,0
173790,note_on,0,0,0,,,,,,,,,0,,81,0
173790,note_on,0,0,0,,,,,,,,,5,,81,0
173820,note_on,30,0,0,,,,,,,,,0,,80,100
173820,note_on,0,0,0,,,,,,,,,3,,80,100
173820,note_on,0,0,0,,,,,,,,,5,,80,100
173820,note_on,0,0,0,,,,,,,,,13,,80,100
173835,note_on,15,0,0,,,,,,,,,0,,59,0
173835,note_on,0,0,0,,,,,,,,,8,,59,0
173835,note_on,0,0,0,,,,,,,,,10,,47,0
173835,note_on,0,0,0,,,,,,,,,3,,59,0
173835,note_on,0,0,0,,,,,,,,,14,,59,0
173835,note_on,0,0,0,,,,,,,,,15,,59,0
173850,note_on,15,0,0,,,,,,,,,7,,62,0
173850,note_on,0,0,0,,,,,,,,,0,,80,0
173850,note_on,0,0,0,,,,,,,,,5,,80,0
173850,note_on,0,0,0,,,,,,,,,13,,80,0
173850,note_on,0,0,0,,,,,,,,,6,,62,0
173850,note_on,0,0,0,,,,,,,,,3,,80,0
173850,note_on,0,0,0,,,,,,,,,0,,78,100
173850,note_on,0,0,0,,,,,,,,,3,,78,100
173850,note_on,0,0,0,,,,,,,,,5,,78,100
173850,note_on,0,0,0,,,,,,,,,13,,78,100
173880,note_on,30,0,0,,,,,,,,,13,,78,0
173880,note_on,0,0,0,,,,,,,,,0,,78,0
173880,note_on,0,0,0,,,,,,,,,3,,78,0
173880,note_on,0,0,0,,,,,,,,,5,,78,0
173880,note_on,0,0,0,,,,,,,,,0,,61,100
173880,note_on,0,0,0,,,,,,,,,0,,76,100
173880,note_on,0,0,0,,,,,,,,,3,,61,100
173880,note_on,0,0,0,,,,,,,,,3,,76,100
173880,note_on,0,0,0,,,,,,,,,5,,76,100
173880,note_on,0,0,0,,,,,,,,,6,,69,100
173880,note_on,0,0,0,,,,,,,,,7,,69,100
173880,note_on,0,0,0,,,,,,,,,8,,61,100
173880,note_on,0,0,0,,,,,,,,,10,,49,100
173880,note_on,0,0,0,,,,,,,,,13,,76,100
173880,note_on,0,0,0,,,,,,,,,14,,61,100
173880,note_on,0,0,0,,,,,,,,,15,,61,100
173910,note_on,30,0,0,,,,,,,,,13,,76,0
173910,note_on,0,0,0,,,,,,,,,5,,76,0
173910,note_on,0,0,0,,,,,,,,,3,,76,0
173910,note_on,0,0,0,,,,,,,,,0,,76,0
173940,note_on,30,0,0,,,,,,,,,0,,81,100
173940,note_on,0,0,0,,,,,,,,,3,,81,100
173940,note_on,0,0,0,,,,,,,,,5,,81,100
173940,note_on,0,0,0,,,,,,,,,13,,81,100
173955,note_on,15,0,0,,,,,,,,,8,,61,0
173955,note_on,0,0,0,,,,,,,,,10,,49,0
173955,note_on,0,0,0,,,,,,,,,0,,61,0
173955,note_on,0,0,0,,,,,,,,,14,,61,0
173955,note_on,0,0,0,,,,,,,,,15,,61,0
173955,note_on,0,0,0,,,,,,,,,3,,61,0
173970,note_on,15,0,0,,,,,,,,,7,,69,0
173970,note_on,0,0,0,,,,,,,,,0,,81,0
173970,note_on,0,0,0,,,,,,,,,5,,81,0
173970,note_on,0,0,0,,,,,,,,,13,,81,0
173970,note_on,0,0,0,,,,,,,,,6,,69,0
173970,note_on,0,0,0,,,,,,,,,3,,81,0
174000,note_on,30,0,0,,,,,,,,,0,,57,100
174000,note_on,0,0,0,,,,,,,,,3,,57,100
174000,note_on,0,0,0,,,,,,,,,6,,61,100
174000,note_on,0,0,0,,,,,,,,,7,,61,100
174000,note_on,0,0,0,,,,,,,,,8,,57,100
174000,note_on,0,0,0,,,,,,,,,10,,45,100
174000,note_on,0,0,0,,,,,,,,,14,,57,100
174000,note_on,0,0,0,,,,,,,,,15,,57,100
174060,note_on,60,0,0,,,,,,,,,0,,69,100
174060,note_on,0,0,0,,,,,,,,,3,,69,100
174060,note_on,0,0,0,,,,,,,,,5,,69,100
174060,note_on,0,0,0,,,,,,,,,13,,69,100
174075,note_on,15,0,0,,,,,,,,,15,,57,0
174075,note_on,0,0,0,,,,,,,,,14,,57,0
174075,note_on,0,0,0,,,,,,,,,3,,57,0
174075,note_on,0,0,0,,,,,,,,,0,,57,0
174075,note_on,0,0,0,,,,,,,,,10,,45,0
174075,note_on,0,0,0,,,,,,,,,8,,57,0
174090,note_on,15,0,0,,,,,,,,,0,,69,0
174090,note_on,0,0,0,,,,,,,,,13,,69,0
174090,note_on,0,0,0,,,,,,,,,5,,69,0
174090,note_on,0,0,0,,,,,,,,,6,,61,0
174090,note_on,0,0,0,,,,,,,,,7,,61,0
174090,note_on,0,0,0,,,,,,,,,3,,69,0
174120,note_on,30,0,0,,,,,,,,,0,,54,100
174120,note_on,0,0,0,,,,,,,,,0,,76,100
174120,note_on,0,0,0,,,,,,,,,3,,54,100
174120,note_on,0,0,0,,,,,,,,,3,,76,100
174120,note_on,0,0,0,,,,,,,,,5,,76,100
174120,note_on,0,0,0,,,,,,,,,6,,57,100
174120,note_on,0,0,0,,,,,,,,,7,,57,100
174120,note_on,0,0,0,,,,,,,,,8,,54,100
174120,note_on,0,0,0,,,,,,,,,10,,42,100
174120,note_on,0,0,0,,,,,,,,,13,,76,100
174120,note_on,0,0,0,,,,,,,,,14,,54,100
174120,note_on,0,0,0,,,,,,,,,15,,54,100
174135,note_on,15,0,0,,,,,,,,,13,,76,0
174135,note_on,0,0,0,,,,,,,,,5,,76,0
174135,note_on,0,0,0,,,,,,,,,3,,76,0
174135,note_on,0,0,0,,,,,,,,,0,,76,0
174135,note_on,0,0,0,,,,,,,,,0,,74,100
174135,note_on,0,0,0,,,,,,,,,3,,74,100
174135,note_on,0,0,0,,,,,,,,,5,,74,100
174135,note_on,0,0,0,,,,,,,,,13,,74,100
174150,note_on,15,0,0,,,,,,,,,13,,74,0
174150,note_on,0,0,0,,,,,,,,,3,,74,0
174150,note_on,0,0,0,,,,,,,,,0,,74,0
174150,note_on,0,0,0,,,,,,,,,5,,74,0
174150,note_on,0,0,0,,,,,,,,,0,,76,100
174150,note_on,0,0,0,,,,,,,,,3,,76,100
174150,note_on,0,0,0,,,,,,,,,5,,76,100
174150,note_on,0,0,0,,,,,,,,,13,,76,100
174165,note_on,15,0,0,,,,,,,,,13,,76,0
174165,note_on,0,0,0,,,,,,,,,3,,76,0
174165,note_on,0,0,0,,,,,,,,,0,,76,0
174165,note_on,0,0,0,,,,,,,,,5,,76,0
174165,note_on,0,0,0,,,,,,,,,0,,74,100
174165,note_on,0,0,0,,,,,,,,,3,,74,100
174165,note_on,0,0,0,,,,,,,,,5,,74,100
174165,note_on,0,0,0,,,,,,,,,13,,74,100
174180,note_on,15,0,0,,,,,,,,,13,,74,0
174180,note_on,0,0,0,,,,,,,,,3,,74,0
174180,note_on,0,0,0,,,,,,,,,0,,74,0
174180,note_on,0,0,0,,,,,,,,,5,,74,0
174180,note_on,0,0,0,,,,,,,,,0,,76,100
174180,note_on,0,0,0,,,,,,,,,3,,76,100
174180,note_on,0,0,0,,,,,,,,,5,,76,100
174180,note_on,0,0,0,,,,,,,,,13,,76,100
174195,note_on,15,0,0,,,,,,,,,13,,76,0
174195,note_on,0,0,0,,,,,,,,,3,,54,0
174195,note_on,0,0,0,,,,,,,,,8,,54,0
174195,note_on,0,0,0,,,,,,,,,14,,54,0
174195,note_on,0,0,0,,,,,,,,,0,,54,0
174195,note_on,0,0,0,,,,,,,,,3,,76,0
174195,note_on,0,0,0,,,,,,,,,10,,42,0
174195,note_on,0,0,0,,,,,,,,,15,,54,0
174195,note_on,0,0,0,,,,,,,,,0,,76,0
174195,note_on,0,0,0,,,,,,,,,5,,76,0
174195,note_on,0,0,0,,,,,,,,,0,,74,100
174195,note_on,0,0,0,,,,,,,,,3,,74,100
174195,note_on,0,0,0,,,,,,,,,5,,74,100
174195,note_on,0,0,0,,,,,,,,,13,,74,100
174210,note_on,15,0,0,,,,,,,,,13,,74,0
174210,note_on,0,0,0,,,,,,,,,6,,57,0
174210,note_on,0,0,0,,,,,,,,,0,,74,0
174210,note_on,0,0,0,,,,,,,,,7,,57,0
174210,note_on,0,0,0,,,,,,,,,5,,74,0
174210,note_on,0,0,0,,,,,,,,,3,,74,0
174210,note_on,0,0,0,,,,,,,,,0,,76,100
174210,note_on,0,0,0,,,,,,,,,3,,76,100
174210,note_on,0,0,0,,,,,,,,,5,,76,100
174210,note_on,0,0,0,,,,,,,,,13,,76,100
174225,note_on,15,0,0,,,,,,,,,13,,76,0
174225,note_on,0,0,0,,,,,,,,,0,,76,0
174225,note_on,0,0,0,,,,,,,,,3,,76,0
174225,note_on,0,0,0,,,,,,,,,5,,76,0
174225,note_on,0,0,0,,,,,,,,,0,,74,100
174225,note_on,0,0,0,,,,,,,,,3,,74,100
174225,note_on,0,0,0,,,,,,,,,5,,74,100
174225,note_on,0,0,0,,,,,,,,,13,,74,100
174240,note_on,15,0,0,,,,,,,,,13,,74,0
174240,note_on,0,0,0,,,,,,,,,0,,74,0
174240,note_on,0,0,0,,,,,,,,,3,,74,0
174240,note_on,0,0,0,,,,,,,,,5,,74,0
174240,note_on,0,0,0,,,,,,,,,0,,56,100
174240,note_on,0,0,0,,,,,,,,,0,,76,100
174240,note_on,0,0,0,,,,,,,,,3,,56,100
174240,note_on,0,0,0,,,,,,,,,3,,76,100
174240,note_on,0,0,0,,,,,,,,,5,,76,100
174240,note_on,0,0,0,,,,,,,,,6,,64,100
174240,note_on,0,0,0,,,,,,,,,7,,64,100
174240,note_on,0,0,0,,,,,,,,,8,,56,100
174240,note_on,0,0,0,,,,,,,,,10,,44,100
174240,note_on,0,0,0,,,,,,,,,13,,76,100
174240,note_on,0,0,0,,,,,,,,,14,,56,100
174240,note_on,0,0,0,,,,,,,,,15,,56,100
174255,note_on,15,0,0,,,,,,,,,13,,76,0
174255,note_on,0,0,0,,,,,,,,,5,,76,0
174255,note_on,0,0,0,,,,,,,,,3,,76,0
174255,note_on,0,0,0,,,,,,,,,0,,76,0
174255,note_on,0,0,0,,,,,,,,,0,,74,100
174255,note_on,0,0,0,,,,,,,,,3,,74,100
174255,note_on,0,0,0,,,,,,,,,5,,74,100
174255,note_on,0,0,0,,,,,,,,,13,,74,100
174270,note_on,15,0,0,,,,,,,,,13,,74,0
174270,note_on,0,0,0,,,,,,,,,3,,74,0
174270,note_on,0,0,0,,,,,,,,,0,,74,0
174270,note_on,0,0,0,,,,,,,,,5,,74,0
174300,note_on,30,0,0,,,,,,,,,0,,73,100
174300,note_on,0,0,0,,,,,,,,,3,,73,100
174300,note_on,0,0,0,,,,,,,,,5,,73,100
174300,note_on,0,0,0,,,,,,,,,13,,73,100
174315,note_on,15,0,0,,,,,,,,,0,,56,0
174315,note_on,0,0,0,,,,,,,,,8,,56,0
174315,note_on,0,0,0,,,,,,,,,10,,44,0
174315,note_on,0,0,0,,,,,,,,,3,,56,0
174315,note_on,0,0,0,,,,,,,,,14,,56,0
174315,note_on,0,0,0,,,,,,,,,15,,56,0
174330,note_on,15,0,0,,,,,,,,,7,,64,0
174330,note_on,0,0,0,,,,,,,,,0,,73,0
174330,note_on,0,0,0,,,,,,,,,5,,73,0
174330,note_on,0,0,0,,,,,,,,,13,,73,0
174330,note_on,0,0,0,,,,,,,,,6,,64,0
174330,note_on,0,0,0,,,,,,,,,3,,73,0
174330,note_on,0,0,0,,,,,,,,,0,,71,100
174330,note_on,0,0,0,,,,,,,,,3,,71,100
174330,note_on,0,0,0,,,,,,,,,5,,71,100
174330,note_on,0,0,0,,,,,,,,,13,,71,100
174360,note_on,30,0,0,,,,,,,,,13,,71,0
174360,note_on,0,0,0,,,,,,,,,0,,71,0
174360,note_on,0,0,0,,,,,,,,,3,,71,0
174360,note_on,0,0,0,,,,,,,,,5,,71,0
174360,note_on,0,0,0,,,,,,,,,0,,57,100
174360,note_on,0,0,0,,,,,,,,,0,,73,100
174360,note_on,0,0,0,,,,,,,,,3,,57,100
174360,note_on,0,0,0,,,,,,,,,3,,73,100
174360,note_on,0,0,0,,,,,,,,,5,,73,100
174360,note_on,0,0,0,,,,,,,,,6,,69,100
174360,note_on,0,0,0,,,,,,,,,7,,69,100
174360,note_on,0,0,0,,,,,,,,,8,,57,100
174360,note_on,0,0,0,,,,,,,,,10,,45,100
174360,note_on,0,0,0,,,,,,,,,13,,73,100
174360,note_on,0,0,0,,,,,,,,,14,,57,100
174360,note_on,0,0,0,,,,,,,,,15,,57,100
174390,note_on,30,0,0,,,,,,,,,13,,73,0
174390,note_on,0,0,0,,,,,,,,,5,,73,0
174390,note_on,0,0,0,,,,,,,,,3,,73,0
174390,note_on,0,0,0,,,,,,,,,0,,73,0
174420,note_on,30,0,0,,,,,,,,,0,,81,100
174420,note_on,0,0,0,,,,,,,,,3,,81,100
174420,note_on,0,0,0,,,,,,,,,5,,81,100
174420,note_on,0,0,0,,,,,,,,,13,,81,100
174435,note_on,15,0,0,,,,,,,,,8,,57,0
174435,note_on,0,0,0,,,,,,,,,10,,45,0
174435,note_on,0,0,0,,,,,,,,,0,,57,0
174435,note_on,0,0,0,,,,,,,,,14,,57,0
174435,note_on,0,0,0,,,,,,,,,15,,57,0
174435,note_on,0,0,0,,,,,,,,,3,,57,0
174450,note_on,15,0,0,,,,,,,,,7,,69,0
174450,note_on,0,0,0,,,,,,,,,0,,81,0
174450,note_on,0,0,0,,,,,,,,,5,,81,0
174450,note_on,0,0,0,,,,,,,,,13,,81,0
174450,note_on,0,0,0,,,,,,,,,6,,69,0
174450,note_on,0,0,0,,,,,,,,,3,,81,0
174480,note_on,30,0,0,,,,,,,,,0,,49,100
174480,note_on,0,0,0,,,,,,,,,3,,49,100
174480,note_on,0,0,0,,,,,,,,,6,,57,100
174480,note_on,0,0,0,,,,,,,,,7,,57,100
174480,note_on,0,0,0,,,,,,,,,8,,49,100
174480,note_on,0,0,0,,,,,,,,,10,,37,100
174480,note_on,0,0,0,,,,,,,,,14,,49,100
174480,note_on,0,0,0,,,,,,,,,15,,49,100
174540,note_on,60,0,0,,,,,,,,,0,,64,100
174540,note_on,0,0,0,,,,,,,,,3,,64,100
174540,note_on,0,0,0,,,,,,,,,5,,64,100
174540,note_on,0,0,0,,,,,,,,,13,,64,100
174555,note_on,15,0,0,,,,,,,,,15,,49,0
174555,note_on,0,0,0,,,,,,,,,14,,49,0
174555,note_on,0,0,0,,,,,,,,,3,,49,0
174555,note_on,0,0,0,,,,,,,,,0,,49,0
174555,note_on,0,0,0,,,,,,,,,10,,37,0
174555,note_on,0,0,0,,,,,,,,,8,,49,0
174570,note_on,15,0,0,,,,,,,,,0,,64,0
174570,note_on,0,0,0,,,,,,,,,13,,64,0
174570,note_on,0,0,0,,,,,,,,,5,,64,0
174570,note_on,0,0,0,,,,,,,,,6,,57,0
174570,note_on,0,0,0,,,,,,,,,7,,57,0
174570,note_on,0,0,0,,,,,,,,,3,,64,0
174600,note_on,30,0,0,,,,,,,,,0,,50,100
174600,note_on,0,0,0,,,,,,,,,0,,66,100
174600,note_on,0,0,0,,,,,,,,,3,,50,100
174600,note_on,0,0,0,,,,,,,,,3,,66,100
174600,note_on,0,0,0,,,,,,,,,5,,66,100
174600,note_on,0,0,0,,,,,,,,,6,,66,100
174600,note_on,0,0,0,,,,,,,,,7,,66,100
174600,note_on,0,0,0,,,,,,,,,8,,50,100
174600,note_on,0,0,0,,,,,,,,,10,,38,100
174600,note_on,0,0,0,,,,,,,,,13,,66,100
174600,note_on,0,0,0,,,,,,,,,14,,50,100
174600,note_on,0,0,0,,,,,,,,,15,,50,100
174630,note_on,30,0,0,,,,,,,,,13,,66,0
174630,note_on,0,0,0,,,,,,,,,5,,66,0
174630,note_on,0,0,0,,,,,,,,,3,,66,0
174630,note_on,0,0,0,,,,,,,,,0,,66,0
174660,note_on,30,0,0,,,,,,,,,0,,74,100
174660,note_on,0,0,0,,,,,,,,,3,,74,100
174660,note_on,0,0,0,,,,,,,,,5,,74,100
174660,note_on,0,0,0,,,,,,,,,13,,74,100
174675,note_on,15,0,0,,,,,,,,,8,,50,0
174675,note_on,0,0,0,,,,,,,,,10,,38,0
174675,note_on,0,0,0,,,,,,,,,0,,50,0
174675,note_on,0,0,0,,,,,,,,,14,,50,0
174675,note_on,0,0,0,,,,,,,,,15,,50,0
174675,note_on,0,0,0,,,,,,,,,3,,50,0
174690,note_on,15,0,0,,,,,,,,,7,,66,0
174690,note_on,0,0,0,,,,,,,,,0,,74,0
174690,note_on,0,0,0,,,,,,,,,5,,74,0
174690,note_on,0,0,0,,,,,,,,,13,,74,0
174690,note_on,0,0,0,,,,,,,,,6,,66,0
174690,note_on,0,0,0,,,,,,,,,3,,74,0
174720,note_on,30,0,0,,,,,,,,,0,,47,100
174720,note_on,0,0,0,,,,,,,,,3,,47,100
174720,note_on,0,0,0,,,,,,,,,6,,62,100
174720,note_on,0,0,0,,,,,,,,,7,,62,100
174720,note_on,0,0,0,,,,,,,,,8,,47,100
174720,note_on,0,0,0,,,,,,,,,10,,35,100
174720,note_on,0,0,0,,,,,,,,,14,,47,100
174720,note_on,0,0,0,,,,,,,,,15,,47,100
174780,note_on,60,0,0,,,,,,,,,0,,66,100
174780,note_on,0,0,0,,,,,,,,,3,,66,100
174780,note_on,0,0,0,,,,,,,,,5,,66,100
174780,note_on,0,0,0,,,,,,,,,13,,66,100
174795,note_on,15,0,0,,,,,,,,,15,,47,0
174795,note_on,0,0,0,,,,,,,,,14,,47,0
174795,note_on,0,0,0,,,,,,,,,3,,47,0
174795,note_on,0,0,0,,,,,,,,,0,,47,0
174795,note_on,0,0,0,,,,,,,,,10,,35,0
174795,note_on,0,0,0,,,,,,,,,8,,47,0
174810,note_on,15,0,0,,,,,,,,,0,,66,0
174810,note_on,0,0,0,,,,,,,,,13,,66,0
174810,note_on,0,0,0,,,,,,,,,5,,66,0
174810,note_on,0,0,0,,,,,,,,,6,,62,0
174810,note_on,0,0,0,,,,,,,,,7,,62,0
174810,note_on,0,0,0,,,,,,,,,3,,66,0
174840,note_on,30,0,0,,,,,,,,,0,,52,100
174840,note_on,0,0,0,,,,,,,,,0,,68,100
174840,note_on,0,0,0,,,,,,,,,3,,52,100
174840,note_on,0,0,0,,,,,,,,,3,,68,100
174840,note_on,0,0,0,,,,,,,,,5,,68,100
174840,note_on,0,0,0,,,,,,,,,6,,59,100
174840,note_on,0,0,0,,,,,,,,,7,,59,100
174840,note_on,0,0,0,,,,,,,,,8,,52,100
174840,note_on,0,0,0,,,,,,,,,10,,40,100
174840,note_on,0,0,0,,,,,,,,,13,,68,100
174840,note_on,0,0,0,,,,,,,,,14,,52,100
174840,note_on,0,0,0,,,,,,,,,15,,52,100
174870,note_on,30,0,0,,,,,,,,,13,,68,0
174870,note_on,0,0,0,,,,,,,,,5,,68,0
174870,note_on,0,0,0,,,,,,,,,3,,68,0
174870,note_on,0,0,0,,,,,,,,,0,,68,0
174900,note_on,30,0,0,,,,,,,,,0,,71,100
174900,note_on,0,0,0,,,,,,,,,3,,71,100
174900,note_on,0,0,0,,,,,,,,,5,,71,100
174900,note_on,0,0,0,,,,,,,,,13,,71,100
174915,note_on,15,0,0,,,,,,,,,8,,52,0
174915,note_on,0,0,0,,,,,,,,,10,,40,0
174915,note_on,0,0,0,,,,,,,,,0,,52,0
174915,note_on,0,0,0,,,,,,,,,14,,52,0
174915,note_on,0,0,0,,,,,,,,,15,,52,0
174915,note_on,0,0,0,,,,,,,,,3,,52,0
174930,note_on,15,0,0,,,,,,,,,7,,59,0
174930,note_on,0,0,0,,,,,,,,,0,,71,0
174930,note_on,0,0,0,,,,,,,,,5,,71,0
174930,note_on,0,0,0,,,,,,,,,13,,71,0
174930,note_on,0,0,0,,,,,,,,,6,,59,0
174930,note_on,0,0,0,,,,,,,,,3,,71,0
174960,note_on,30,0,0,,,,,,,,,0,,56,100
174960,note_on,0,0,0,,,,,,,,,0,,64,100
174960,note_on,0,0,0,,,,,,,,,3,,56,100
174960,note_on,0,0,0,,,,,,,,,3,,64,100
174960,note_on,0,0,0,,,,,,,,,5,,64,100
174960,note_on,0,0,0,,,,,,,,,8,,56,100
174960,note_on,0,0,0,,,,,,,,,10,,44,100
174960,note_on,0,0,0,,,,,,,,,13,,64,100
174960,note_on,0,0,0,,,,,,,,,14,,56,100
174960,note_on,0,0,0,,,,,,,,,15,,56,100
174990,note_on,30,0,0,,,,,,,,,13,,64,0
174990,note_on,0,0,0,,,,,,,,,5,,64,0
174990,note_on,0,0,0,,,,,,,,,3,,64,0
174990,note_on,0,0,0,,,,,,,,,0,,64,0
175020,note_on,30,0,0,,,,,,,,,0,,74,100
175020,note_on,0,0,0,,,,,,,,,3,,74,100
175020,note_on,0,0,0,,,,,,,,,5,,74,100
175020,note_on,0,0,0,,,,,,,,,6,,71,100
175020,note_on,0,0,0,,,,,,,,,7,,71,100
175020,note_on,0,0,0,,,,,,,,,13,,74,100
175035,note_on,15,0,0,,,,,,,,,3,,74,0
175035,note_on,0,0,0,,,,,,,,,0,,74,0
175035,note_on,0,0,0,,,,,,,,,0,,56,0
175035,note_on,0,0,0,,,,,,,,,15,,56,0
175035,note_on,0,0,0,,,,,,,,,14,,56,0
175035,note_on,0,0,0,,,,,,,,,8,,56,0
175035,note_on,0,0,0,,,,,,,,,10,,44,0
175035,note_on,0,0,0,,,,,,,,,3,,56,0
175050,note_on,15,0,0,,,,,,,,,6,,71,0
175050,note_on,0,0,0,,,,,,,,,7,,71,0
175050,note_on,0,0,0,,,,,,,,,13,,74,0
175050,note_on,0,0,0,,,,,,,,,5,,74,0
175080,note_on,30,0,0,,,,,,,,,0,,57,100
175080,note_on,0,0,0,,,,,,,,,0,,73,100
175080,note_on,0,0,0,,,,,,,,,3,,57,100
175080,note_on,0,0,0,,,,,,,,,3,,73,100
175080,note_on,0,0,0,,,,,,,,,5,,73,100
175080,note_on,0,0,0,,,,,,,,,6,,64,100
175080,note_on,0,0,0,,,,,,,,,7,,64,100
175080,note_on,0,0,0,,,,,,,,,8,,57,100
175080,note_on,0,0,0,,,,,,,,,10,,45,100
175080,note_on,0,0,0,,,,,,,,,13,,73,100
175080,note_on,0,0,0,,,,,,,,,14,,57,100
175080,note_on,0,0,0,,,,,,,,,15,,57,100
175095,note_on,15,0,0,,,,,,,,,15,,57,0
175095,note_on,0,0,0,,,,,,,,,13,,73,0
175095,note_on,0,0,0,,,,,,,,,8,,57,0
175095,note_on,0,0,0,,,,,,,,,3,,57,0
175095,note_on,0,0,0,,,,,,,,,3,,73,0
175095,note_on,0,0,0,,,,,,,,,5,,73,0
175095,note_on,0,0,0,,,,,,,,,0,,57,0
175095,note_on,0,0,0,,,,,,,,,0,,73,0
175095,note_on,0,0,0,,,,,,,,,10,,45,0
175095,note_on,0,0,0,,,,,,,,,14,,57,0
175110,note_on,15,0,0,,,,,,,,,6,,64,0
175110,note_on,0,0,0,,,,,,,,,7,,64,0
175140,note_on,30,0,0,,,,,,,,,0,,50,100
175140,note_on,0,0,0,,,,,,,,,0,,71,100
175140,note_on,0,0,0,,,,,,,,,3,,50,100
175140,note_on,0,0,0,,,,,,,,,3,,71,100
175140,note_on,0,0,0,,,,,,,,,5,,69,100
175140,note_on,0,0,0,,,,,,,,,6,,62,100
175140,note_on,0,0,0,,,,,,,,,7,,62,100
175140,note_on,0,0,0,,,,,,,,,8,,50,100
175140,note_on,0,0,0,,,,,,,,,10,,38,100
175140,note_on,0,0,0,,,,,,,,,13,,69,100
175140,note_on,0,0,0,,,,,,,,,14,,50,100
175140,note_on,0,0,0,,,,,,,,,15,,50,100
175155,note_on,15,0,0,,,,,,,,,15,,50,0
175155,note_on,0,0,0,,,,,,,,,13,,69,0
175155,note_on,0,0,0,,,,,,,,,8,,50,0
175155,note_on,0,0,0,,,,,,,,,3,,50,0
175155,note_on,0,0,0,,,,,,,,,3,,71,0
175155,note_on,0,0,0,,,,,,,,,5,,69,0
175155,note_on,0,0,0,,,,,,,,,0,,50,0
175155,note_on,0,0,0,,,,,,,,,0,,71,0
175155,note_on,0,0,0,,,,,,,,,10,,38,0
175155,note_on,0,0,0,,,,,,,,,14,,50,0
175170,note_on,15,0,0,,,,,,,,,6,,62,0
175170,note_on,0,0,0,,,,,,,,,7,,62,0
175200,note_on,30,0,0,,,,,,,,,0,,52,100
175200,note_on,0,0,0,,,,,,,,,0,,69,100
175200,note_on,0,0,0,,,,,,,,,3,,52,100
175200,note_on,0,0,0,,,,,,,,,3,,69,100
175200,note_on,0,0,0,,,,,,,,,5,,64,100
175200,note_on,0,0,0,,,,,,,,,6,,61,100
175200,note_on,0,0,0,,,,,,,,,7,,61,100
175200,note_on,0,0,0,,,,,,,,,8,,52,100
175200,note_on,0,0,0,,,,,,,,,10,,40,100
175200,note_on,0,0,0,,,,,,,,,13,,64,100
175200,note_on,0,0,0,,,,,,,,,14,,52,100
175200,note_on,0,0,0,,,,,,,,,15,,52,100
175215,note_on,15,0,0,,,,,,,,,15,,52,0
175215,note_on,0,0,0,,,,,,,,,13,,64,0
175215,note_on,0,0,0,,,,,,,,,8,,52,0
175215,note_on,0,0,0,,,,,,,,,3,,52,0
175215,note_on,0,0,0,,,,,,,,,3,,69,0
175215,note_on,0,0,0,,,,,,,,,5,,64,0
175215,note_on,0,0,0,,,,,,,,,0,,52,0
175215,note_on,0,0,0,,,,,,,,,0,,69,0
175215,note_on,0,0,0,,,,,,,,,10,,40,0
175215,note_on,0,0,0,,,,,,,,,14,,52,0
175230,note_on,15,0,0,,,,,,,,,6,,61,0
175230,note_on,0,0,0,,,,,,,,,7,,61,0
175260,note_on,30,0,0,,,,,,,,,0,,40,100
175260,note_on,0,0,0,,,,,,,,,0,,68,100
175260,note_on,0,0,0,,,,,,,,,3,,40,100
175260,note_on,0,0,0,,,,,,,,,3,,68,100
175260,note_on,0,0,0,,,,,,,,,5,,68,100
175260,note_on,0,0,0,,,,,,,,,6,,59,100
175260,note_on,0,0,0,,,,,,,,,7,,59,100
175260,note_on,0,0,0,,,,,,,,,8,,40,100
175260,note_on,0,0,0,,,,,,,,,10,,28,100
175260,note_on,0,0,0,,,,,,,,,13,,68,100
175260,note_on,0,0,0,,,,,,,,,14,,40,100
175260,note_on,0,0,0,,,,,,,,,15,,40,100
175275,note_on,15,0,0,,,,,,,,,13,,68,0
175275,note_on,0,0,0,,,,,,,,,5,,68,0
175275,note_on,0,0,0,,,,,,,,,3,,68,0
175275,note_on,0,0,0,,,,,,,,,0,,68,0
175290,note_on,15,0,0,,,,,,,,,8,,40,0
175290,note_on,0,0,0,,,,,,,,,0,,40,0
175290,note_on,0,0,0,,,,,,,,,6,,59,0
175290,note_on,0,0,0,,,,,,,,,7,,59,0
175290,note_on,0,0,0,,,,,,,,,14,,40,0
175290,note_on,0,0,0,,,,,,,,,10,,28,0
175290,note_on,0,0,0,,,,,,,,,15,,40,0
175290,note_on,0,0,0,,,,,,,,,3,,40,0
175319,control_change,29,0,0,,,,,,,11,125,7,,,
175319,control_change,0,0,0,,,,,,,11,126,10,,,
175319,control_change,0,0,0,,,,,,,11,127,14,,,
175320,note_on,1,0,0,,,,,,,,,0,,45,100
175320,note_on,0,0,0,,,,,,,,,0,,69,100
175320,note_on,0,0,0,,,,,,,,,3,,45,100
175320,note_on,0,0,0,,,,,,,,,3,,69,100
175320,note_on,0,0,0,,,,,,,,,5,,69,100
175320,note_on,0,0,0,,,,,,,,,6,,61,100
175320,note_on,0,0,0,,,,,,,,,7,,61,100
175320,note_on,0,0,0,,,,,,,,,8,,45,100
175320,note_on,0,0,0,,,,,,,,,10,,33,100
175320,note_on,0,0,0,,,,,,,,,13,,69,100
175320,note_on,0,0,0,,,,,,,,,14,,45,100
175320,note_on,0,0,0,,,,,,,,,15,,45,100
175321,control_change,1,0,0,,,,,,,11,126,8,,,
175323,control_change,2,0,0,,,,,,,11,124,6,,,
175323,control_change,0,0,0,,,,,,,11,124,7,,,
175323,control_change,0,0,0,,,,,,,11,125,10,,,
175323,control_change,0,0,0,,,,,,,11,126,14,,,
175325,control_change,2,0,0,,,,,,,11,125,8,,,
175327,control_change,2,0,0,,,,,,,11,123,6,,,
175327,control_change,0,0,0,,,,,,,11,123,7,,,
175327,control_change,0,0,0,,,,,,,11,124,10,,,
175327,control_change,0,0,0,,,,,,,11,125,14,,,
175329,control_change,2,0,0,,,,,,,11,124,8,,,
175331,control_change,2,0,0,,,,,,,11,122,6,,,
175331,control_change,0,0,0,,,,,,,11,122,7,,,
175331,control_change,0,0,0,,,,,,,11,123,10,,,
175331,control_change,0,0,0,,,,,,,11,124,14,,,
175333,control_change,2,0,0,,,,,,,11,123,8,,,
175335,control_change,2,0,0,,,,,,,11,121,6,,,
175335,control_change,0,0,0,,,,,,,11,121,7,,,
175335,control_change,0,0,0,,,,,,,11,122,10,,,
175335,control_change,0,0,0,,,,,,,11,123,14,,,
175337,control_change,2,0,0,,,,,,,11,122,8,,,
175339,control_change,2,0,0,,,,,,,11,120,6,,,
175339,control_change,0,0,0,,,,,,,11,120,7,,,
175339,control_change,0,0,0,,,,,,,11,121,10,,,
175339,control_change,0,0,0,,,,,,,11,122,14,,,
175341,control_change,2,0,0,,,,,,,11,121,8,,,
175343,control_change,2,0,0,,,,,,,11,119,6,,,
175343,control_change,0,0,0,,,,,,,11,119,7,,,
175343,control_change,0,0,0,,,,,,,11,120,10,,,
175343,control_change,0,0,0,,,,,,,11,121,14,,,
175345,control_change,2,0,0,,,,,,,11,120,8,,,
175347,control_change,2,0,0,,,,,,,11,118,6,,,
175347,control_change,0,0,0,,,,,,,11,118,7,,,
175347,control_change,0,0,0,,,,,,,11,119,10,,,
175347,control_change,0,0,0,,,,,,,11,120,14,,,
175349,control_change,2,0,0,,,,,,,11,119,8,,,
175349,control_change,0,0,0,,,,,,,11,119,14,,,
175350,note_on,1,0,0,,,,,,,,,7,,61,0
175350,note_on,0,0,0,,,,,,,,,6,,61,0
175351,control_change,1,0,0,,,,,,,11,117,6,,,
175351,control_change,0,0,0,,,,,,,11,117,7,,,
175351,control_change,0,0,0,,,,,,,11,118,10,,,
175353,control_change,2,0,0,,,,,,,11,118,8,,,
175353,control_change,0,0,0,,,,,,,11,118,14,,,
175355,control_change,2,0,0,,,,,,,11,116,6,,,
175355,control_change,0,0,0,,,,,,,11,116,7,,,
175355,control_change,0,0,0,,,,,,,11,117,10,,,
175357,control_change,2,0,0,,,,,,,11,117,8,,,
175357,control_change,0,0,0,,,,,,,11,117,14,,,
175359,control_change,2,0,0,,,,,,,11,115,6,,,
175359,control_change,0,0,0,,,,,,,11,115,7,,,
175359,control_change,0,0,0,,,,,,,11,116,10,,,
175361,control_change,2,0,0,,,,,,,11,116,8,,,
175361,control_change,0,0,0,,,,,,,11,115,10,,,
175361,control_change,0,0,0,,,,,,,11,116,14,,,
175363,control_change,2,0,0,,,,,,,11,114,6,,,
175363,control_change,0,0,0,,,,,,,11,114,7,,,
175365,control_change,2,0,0,,,,,,,11,113,6,,,
175365,control_change,0,0,0,,,,,,,11,115,8,,,
175365,control_change,0,0,0,,,,,,,11,114,10,,,
175365,control_change,0,0,0,,,,,,,11,115,14,,,
175367,control_change,2,0,0,,,,,,,11,113,7,,,
175369,control_change,2,0,0,,,,,,,11,112,6,,,
175369,control_change,0,0,0,,,,,,,11,114,8,,,
175369,control_change,0,0,0,,,,,,,11,113,10,,,
175369,control_change,0,0,0,,,,,,,11,114,14,,,
175371,control_change,2,0,0,,,,,,,11,112,7,,,
175371,control_change,0,0,0,,,,,,,11,113,8,,,
175373,control_change,2,0,0,,,,,,,11,111,6,,,
175373,control_change,0,0,0,,,,,,,11,112,10,,,
175373,control_change,0,0,0,,,,,,,11,113,14,,,
175375,control_change,2,0,0,,,,,,,11,111,7,,,
175375,control_change,0,0,0,,,,,,,11,112,8,,,
175377,control_change,2,0,0,,,,,,,11,110,6,,,
175377,control_change,0,0,0,,,,,,,11,111,10,,,
175377,control_change,0,0,0,,,,,,,11,112,14,,,
175379,control_change,2,0,0,,,,,,,11,110,7,,,
175379,control_change,0,0,0,,,,,,,11,111,8,,,
175379,control_change,0,0,0,,,,,,,11,111,14,,,
175380,note_on,1,0,0,,,,,,,,,6,,59,100
175380,note_on,0,0,0,,,,,,,,,7,,59,100
175381,control_change,1,0,0,,,,,,,11,109,6,,,
175381,control_change,0,0,0,,,,,,,11,110,10,,,
175383,control_change,2,0,0,,,,,,,11,109,7,,,
175383,control_change,0,0,0,,,,,,,11,110,8,,,
175383,control_change,0,0,0,,,,,,,11,110,14,,,
175385,control_change,2,0,0,,,,,,,11,108,6,,,
175385,control_change,0,0,0,,,,,,,11,109,10,,,
175387,control_change,2,0,0,,,,,,,11,108,7,,,
175387,control_change,0,0,0,,,,,,,11,109,8,,,
175387,control_change,0,0,0,,,,,,,11,109,14,,,
175389,control_change,2,0,0,,,,,,,11,107,6,,,
175389,control_change,0,0,0,,,,,,,11,108,10,,,
175391,control_change,2,0,0,,,,,,,11,107,7,,,
175391,control_change,0,0,0,,,,,,,11,108,8,,,
175391,control_change,0,0,0,,,,,,,11,108,14,,,
175393,control_change,2,0,0,,,,,,,11,106,6,,,
175393,control_change,0,0,0,,,,,,,11,107,10,,,
175395,control_change,2,0,0,,,,,,,11,106,7,,,
175395,control_change,0,0,0,,,,,,,11,107,8,,,
175395,control_change,0,0,0,,,,,,,11,107,14,,,
175397,control_change,2,0,0,,,,,,,11,105,6,,,
175397,control_change,0,0,0,,,,,,,11,106,10,,,
175399,control_change,2,0,0,,,,,,,11,105,7,,,
175399,control_change,0,0,0,,,,,,,11,106,8,,,
175399,control_change,0,0,0,,,,,,,11,105,10,,,
175399,control_change,0,0,0,,,,,,,11,106,14,,,
175401,control_change,2,0,0,,,,,,,11,104,6,,,
175403,control_change,2,0,0,,,,,,,11,103,6,,,
175403,control_change,0,0,0,,,,,,,11,104,7,,,
175403,control_change,0,0,0,,,,,,,11,105,8,,,
175403,control_change,0,0,0,,,,,,,11,104,10,,,
175403,control_change,0,0,0,,,,,,,11,105,14,,,
175407,control_change,4,0,0,,,,,,,11,102,6,,,
175407,control_change,0,0,0,,,,,,,11,103,7,,,
175407,control_change,0,0,0,,,,,,,11,104,8,,,
175407,control_change,0,0,0,,,,,,,11,103,10,,,
175407,control_change,0,0,0,,,,,,,11,104,14,,,
175409,control_change,2,0,0,,,,,,,11,103,14,,,
175410,note_on,1,0,0,,,,,,,,,7,,59,0
175410,note_on,0,0,0,,,,,,,,,13,,69,0
175410,note_on,0,0,0,,,,,,,,,3,,69,0
175410,note_on,0,0,0,,,,,,,,,0,,45,0
175410,note_on,0,0,0,,,,,,,,,3,,45,0
175410,note_on,0,0,0,,,,,,,,,6,,59,0
175410,note_on,0,0,0,,,,,,,,,5,,69,0
175410,note_on,0,0,0,,,,,,,,,0,,69,0
175411,control_change,1,0,0,,,,,,,11,101,6,,,
175411,control_change,0,0,0,,,,,,,11,102,7,,,
175411,control_change,0,0,0,,,,,,,11,103,8,,,
175411,control_change,0,0,0,,,,,,,11,102,10,,,
175413,control_change,2,0,0,,,,,,,11,102,14,,,
175415,control_change,2,0,0,,,,,,,11,100,6,,,
175415,control_change,0,0,0,,,,,,,11,101,7,,,
175415,control_change,0,0,0,,,,,,,11,102,8,,,
175415,control_change,0,0,0,,,,,,,11,101,10,,,
175417,control_change,2,0,0,,,,,,,11,101,8,,,
175417,control_change,0,0,0,,,,,,,11,101,14,,,
175419,control_change,2,0,0,,,,,,,11,99,6,,,
175419,control_change,0,0,0,,,,,,,11,100,7,,,
175419,control_change,0,0,0,,,,,,,11,100,10,,,
175421,control_change,2,0,0,,,,,,,11,100,8,,,
175421,control_change,0,0,0,,,,,,,11,100,14,,,
175423,control_change,2,0,0,,,,,,,11,98,6,,,
175423,control_change,0,0,0,,,,,,,11,99,7,,,
175423,control_change,0,0,0,,,,,,,11,99,10,,,
175425,control_change,2,0,0,,,,,,,11,99,8,,,
175425,control_change,0,0,0,,,,,,,11,99,14,,,
175427,control_change,2,0,0,,,,,,,11,97,6,,,
175427,control_change,0,0,0,,,,,,,11,98,7,,,
175427,control_change,0,0,0,,,,,,,11,98,10,,,
175429,control_change,2,0,0,,,,,,,11,98,8,,,
175429,control_change,0,0,0,,,,,,,11,98,14,,,
175431,control_change,2,0,0,,,,,,,11,96,6,,,
175431,control_change,0,0,0,,,,,,,11,97,7,,,
175431,control_change,0,0,0,,,,,,,11,97,10,,,
175433,control_change,2,0,0,,,,,,,11,97,8,,,
175433,control_change,0,0,0,,,,,,,11,97,14,,,
175435,control_change,2,0,0,,,,,,,11,95,6,,,
175435,control_change,0,0,0,,,,,,,11,96,7,,,
175435,control_change,0,0,0,,,,,,,11,96,10,,,
175437,control_change,2,0,0,,,,,,,11,96,8,,,
175437,control_change,0,0,0,,,,,,,11,96,14,,,
175439,control_change,2,0,0,,,,,,,11,63,5,,,
175439,control_change,0,0,0,,,,,,,11,94,6,,,
175439,control_change,0,0,0,,,,,,,11,95,7,,,
175439,control_change,0,0,0,,,,,,,11,95,10,,,
175439,control_change,0,0,0,,,,,,,11,95,14,,,
175440,note_on,1,0,0,,,,,,,,,5,,64,100
175440,note_on,0,0,0,,,,,,,,,6,,57,100
175440,note_on,0,0,0,,,,,,,,,7,,57,100
175441,control_change,1,0,0,,,,,,,11,93,6,,,
175441,control_change,0,0,0,,,,,,,11,95,8,,,
175441,control_change,0,0,0,,,,,,,11,94,10,,,
175443,control_change,2,0,0,,,,,,,11,94,7,,,
175443,control_change,0,0,0,,,,,,,11,94,14,,,
175445,control_change,2,0,0,,,,,,,11,92,6,,,
175445,control_change,0,0,0,,,,,,,11,94,8,,,
175445,control_change,0,0,0,,,,,,,11,93,10,,,
175447,control_change,2,0,0,,,,,,,11,93,7,,,
175447,control_change,0,0,0,,,,,,,11,93,14,,,
175449,control_change,2,0,0,,,,,,,11,91,6,,,
175449,control_change,0,0,0,,,,,,,11,93,8,,,
175449,control_change,0,0,0,,,,,,,11,92,10,,,
175451,control_change,2,0,0,,,,,,,11,92,7,,,
175451,control_change,0,0,0,,,,,,,11,92,14,,,
175453,control_change,2,0,0,,,,,,,11,90,6,,,
175453,control_change,0,0,0,,,,,,,11,92,8,,,
175453,control_change,0,0,0,,,,,,,11,91,10,,,
175455,control_change,2,0,0,,,,,,,11,91,7,,,
175455,control_change,0,0,0,,,,,,,11,91,14,,,
175457,control_change,2,0,0,,,,,,,11,89,6,,,
175457,control_change,0,0,0,,,,,,,11,91,8,,,
175457,control_change,0,0,0,,,,,,,11,90,10,,,
175459,control_change,2,0,0,,,,,,,11,90,7,,,
175459,control_change,0,0,0,,,,,,,11,90,14,,,
175461,control_change,2,0,0,,,,,,,11,88,6,,,
175461,control_change,0,0,0,,,,,,,11,90,8,,,
175461,control_change,0,0,0,,,,,,,11,89,10,,,
175463,control_change,2,0,0,,,,,,,11,89,7,,,
175463,control_change,0,0,0,,,,,,,11,89,14,,,
175465,control_change,2,0,0,,,,,,,11,87,6,,,
175465,control_change,0,0,0,,,,,,,11,89,8,,,
175465,control_change,0,0,0,,,,,,,11,88,10,,,
175467,control_change,2,0,0,,,,,,,11,88,7,,,
175467,control_change,0,0,0,,,,,,,11,88,8,,,
175467,control_change,0,0,0,,,,,,,11,88,14,,,
175469,control_change,2,0,0,,,,,,,11,86,6,,,
175469,control_change,0,0,0,,,,,,,11,87,10,,,
175469,control_change,0,0,0,,,,,,,11,87,14,,,
175470,note_on,1,0,0,,,,,,,,,7,,57,0
175470,note_on,0,0,0,,,,,,,,,6,,57,0
175471,control_change,1,0,0,,,,,,,11,87,7,,,
175471,control_change,0,0,0,,,,,,,11,87,8,,,
175473,control_change,2,0,0,,,,,,,11,85,6,,,
175473,control_change,0,0,0,,,,,,,11,86,10,,,
175473,control_change,0,0,0,,,,,,,11,86,14,,,
175475,control_change,2,0,0,,,,,,,11,86,7,,,
175475,control_change,0,0,0,,,,,,,11,86,8,,,
175477,control_change,2,0,0,,,,,,,11,84,6,,,
175477,control_change,0,0,0,,,,,,,11,85,10,,,
175477,control_change,0,0,0,,,,,,,11,85,14,,,
175479,control_change,2,0,0,,,,,,,11,85,7,,,
175479,control_change,0,0,0,,,,,,,11,85,8,,,
175479,control_change,0,0,0,,,,,,,11,84,10,,,
175481,control_change,2,0,0,,,,,,,11,83,6,,,
175481,control_change,0,0,0,,,,,,,11,84,14,,,
175483,control_change,2,0,0,,,,,,,11,82,6,,,
175483,control_change,0,0,0,,,,,,,11,84,7,,,
175483,control_change,0,0,0,,,,,,,11,84,8,,,
175483,control_change,0,0,0,,,,,,,11,83,10,,,
175485,control_change,2,0,0,,,,,,,11,83,14,,,
175487,control_change,2,0,0,,,,,,,11,81,6,,,
175487,control_change,0,0,0,,,,,,,11,83,7,,,
175487,control_change,0,0,0,,,,,,,11,83,8,,,
175487,control_change,0,0,0,,,,,,,11,82,10,,,
175489,control_change,2,0,0,,,,,,,11,82,14,,,
175491,control_change,2,0,0,,,,,,,11,80,6,,,
175491,control_change,0,0,0,,,,,,,11,82,7,,,
175491,control_change,0,0,0,,,,,,,11,82,8,,,
175491,control_change,0,0,0,,,,,,,11,81,10,,,
175493,control_change,2,0,0,,,,,,,11,81,14,,,
175495,control_change,2,0,0,,,,,,,11,79,6,,,
175495,control_change,0,0,0,,,,,,,11,81,7,,,
175495,control_change,0,0,0,,,,,,,11,81,8,,,
175495,control_change,0,0,0,,,,,,,11,80,10,,,
175497,control_change,2,0,0,,,,,,,11,80,14,,,
175499,control_change,2,0,0,,,,,,,11,78,6,,,
175499,control_change,0,0,0,,,,,,,11,80,7,,,
175499,control_change,0,0,0,,,,,,,11,80,8,,,
175499,control_change,0,0,0,,,,,,,11,79,10,,,
175499,control_change,0,0,0,,,,,,,11,79,14,,,
175500,note_on,1,0,0,,,,,,,,,1,,74,100
175500,note_on,0,0,0,,,,,,,,,4,,74,100
175500,note_on,0,0,0,,,,,,,,,6,,56,100
175500,note_on,0,0,0,,,,,,,,,7,,56,100
175503,control_change,3,0,0,,,,,,,11,77,6,,,
175503,control_change,0,0,0,,,,,,,11,79,7,,,
175503,control_change,0,0,0,,,,,,,11,79,8,,,
175503,control_change,0,0,0,,,,,,,11,78,10,,,
175503,control_change,0,0,0,,,,,,,11,78,14,,,
175507,control_change,4,0,0,,,,,,,11,76,6,,,
175507,control_change,0,0,0,,,,,,,11,78,7,,,
175507,control_change,0,0,0,,,,,,,11,78,8,,,
175507,control_change,0,0,0,,,,,,,11,77,10,,,
175507,control_change,0,0,0,,,,,,,11,77,14,,,
175511,control_change,4,0,0,,,,,,,11,75,6,,,
175511,control_change,0,0,0,,,,,,,11,77,7,,,
175511,control_change,0,0,0,,,,,,,11,77,8,,,
175511,control_change,0,0,0,,,,,,,11,76,10,,,
175511,control_change,0,0,0,,,,,,,11,76,14,,,
175513,control_change,2,0,0,,,,,,,11,76,8,,,
175515,control_change,2,0,0,,,,,,,11,74,6,,,
175515,control_change,0,0,0,,,,,,,11,76,7,,,
175515,control_change,0,0,0,,,,,,,11,75,10,,,
175515,control_change,0,0,0,,,,,,,11,75,14,,,
175517,control_change,2,0,0,,,,,,,11,75,8,,,
175519,control_change,2,0,0,,,,,,,11,73,6,,,
175519,control_change,0,0,0,,,,,,,11,75,7,,,
175519,control_change,0,0,0,,,,,,,11,74,10,,,
175519,control_change,0,0,0,,,,,,,11,74,14,,,
175521,control_change,2,0,0,,,,,,,11,72,6,,,
175521,control_change,0,0,0,,,,,,,11,74,8,,,
175521,control_change,0,0,0,,,,,,,11,73,10,,,
175523,control_change,2,0,0,,,,,,,11,74,7,,,
175523,control_change,0,0,0,,,,,,,11,73,14,,,
175525,control_change,2,0,0,,,,,,,11,71,6,,,
175525,control_change,0,0,0,,,,,,,11,73,8,,,
175525,control_change,0,0,0,,,,,,,11,72,10,,,
175527,control_change,2,0,0,,,,,,,11,73,7,,,
175527,control_change,0,0,0,,,,,,,11,72,14,,,
175529,control_change,2,0,0,,,,,,,11,70,6,,,
175529,control_change,0,0,0,,,,,,,11,72,8,,,
175529,control_change,0,0,0,,,,,,,11,71,10,,,
175529,control_change,0,0,0,,,,,,,11,71,14,,,
175530,note_on,1,0,0,,,,,,,,,7,,56,0
175530,note_on,0,0,0,,,,,,,,,6,,56,0
175530,note_on,0,0,0,,,,,,,,,4,,74,0
175530,note_on,0,0,0,,,,,,,,,15,,45,0
175530,note_on,0,0,0,,,,,,,,,1,,74,0
175531,control_change,1,0,0,,,,,,,11,72,7,,,
175533,control_change,2,0,0,,,,,,,11,69,6,,,
175533,control_change,0,0,0,,,,,,,11,71,8,,,
175533,control_change,0,0,0,,,,,,,11,70,10,,,
175533,control_change,0,0,0,,,,,,,11,70,14,,,
175535,control_change,2,0,0,,,,,,,11,71,7,,,
175537,control_change,2,0,0,,,,,,,11,68,6,,,
175537,control_change,0,0,0,,,,,,,11,70,8,,,
175537,control_change,0,0,0,,,,,,,11,69,10,,,
175537,control_change,0,0,0,,,,,,,11,69,14,,,
175539,control_change,2,0,0,,,,,,,11,70,7,,,
175541,control_change,2,0,0,,,,,,,11,67,6,,,
175541,control_change,0,0,0,,,,,,,11,69,8,,,
175541,control_change,0,0,0,,,,,,,11,68,10,,,
175541,control_change,0,0,0,,,,,,,11,68,14,,,
175543,control_change,2,0,0,,,,,,,11,69,7,,,
175545,control_change,2,0,0,,,,,,,11,66,6,,,
175545,control_change,0,0,0,,,,,,,11,68,8,,,
175545,control_change,0,0,0,,,,,,,11,67,10,,,
175545,control_change,0,0,0,,,,,,,11,67,14,,,
175547,control_change,2,0,0,,,,,,,11,68,7,,,
175549,control_change,2,0,0,,,,,,,11,65,6,,,
175549,control_change,0,0,0,,,,,,,11,67,8,,,
175549,control_change,0,0,0,,,,,,,11,66,10,,,
175549,control_change,0,0,0,,,,,,,11,66,14,,,
175551,control_change,2,0,0,,,,,,,11,67,7,,,
175553,control_change,2,0,0,,,,,,,11,64,6,,,
175553,control_change,0,0,0,,,,,,,11,66,8,,,
175553,control_change,0,0,0,,,,,,,11,65,10,,,
175553,control_change,0,0,0,,,,,,,11,65,14,,,
175555,control_change,2,0,0,,,,,,,11,66,7,,,
175557,control_change,2,0,0,,,,,,,11,63,6,,,
175557,control_change,0,0,0,,,,,,,11,65,8,,,
175557,control_change,0,0,0,,,,,,,11,64,10,,,
175557,control_change,0,0,0,,,,,,,11,64,14,,,
175559,control_change,2,0,0,,,,,,,11,62,6,,,
175559,control_change,0,0,0,,,,,,,11,65,7,,,
175559,control_change,0,0,0,,,,,,,11,64,8,,,
175559,control_change,0,0,0,,,,,,,11,63,10,,,
175559,control_change,0,0,0,,,,,,,11,63,14,,,
175560,note_on,1,0,0,,,,,,,,,1,,57,100
175560,note_on,0,0,0,,,,,,,,,1,,73,100
175560,note_on,0,0,0,,,,,,,,,4,,57,100
175560,note_on,0,0,0,,,,,,,,,4,,73,100
175560,note_on,0,0,0,,,,,,,,,6,,57,100
175560,note_on,0,0,0,,,,,,,,,7,,57,100
175620,note_on,60,0,0,,,,,,,,,4,,73,0
175620,note_on,0,0,0,,,,,,,,,1,,73,0
175620,note_on,0,0,0,,,,,,,,,1,,69,100
175620,note_on,0,0,0,,,,,,,,,4,,69,100
175650,note_on,30,0,0,,,,,,,,,4,,69,0
175650,note_on,0,0,0,,,,,,,,,1,,69,0
175650,note_on,0,0,0,,,,,,,,,4,,57,0
175650,note_on,0,0,0,,,,,,,,,1,,57,0
175680,note_on,30,0,0,,,,,,,,,1,,71,100
175680,note_on,0,0,0,,,,,,,,,4,,71,100
175740,note_on,60,0,0,,,,,,,,,4,,71,0
175740,note_on,0,0,0,,,,,,,,,1,,71,0
175740,note_on,0,0,0,,,,,,,,,1,,62,100
175740,note_on,0,0,0,,,,,,,,,1,,68,100
175740,note_on,0,0,0,,,,,,,,,4,,62,100
175740,note_on,0,0,0,,,,,,,,,4,,68,100
175770,note_on,30,0,0,,,,,,,,,4,,68,0
175770,note_on,0,0,0,,,,,,,,,4,,62,0
175770,note_on,0,0,0,,,,,,,,,1,,62,0
175770,note_on,0,0,0,,,,,,,,,1,,68,0
175800,note_on,30,0,0,,,,,,,,,1,,61,100
175800,note_on,0,0,0,,,,,,,,,1,,69,100
175800,note_on,0,0,0,,,,,,,,,4,,61,100
175800,note_on,0,0,0,,,,,,,,,4,,69,100
175860,note_on,60,0,0,,,,,,,,,4,,61,0
175860,note_on,0,0,0,,,,,,,,,1,,61,0
175860,note_on,0,0,0,,,,,,,,,1,,57,100
175860,note_on,0,0,0,,,,,,,,,4,,57,100
175890,note_on,30,0,0,,,,,,,,,4,,57,0
175890,note_on,0,0,0,,,,,,,,,1,,57,0
175890,note_on,0,0,0,,,,,,,,,4,,69,0
175890,note_on,0,0,0,,,,,,,,,1,,69,0
175920,note_on,30,0,0,,,,,,,,,1,,59,100
175920,note_on,0,0,0,,,,,,,,,4,,59,100
175980,note_on,60,0,0,,,,,,,,,4,,59,0
175980,note_on,0,0,0,,,,,,,,,1,,59,0
175980,note_on,0,0,0,,,,,,,,,1,,71,100
175980,note_on,0,0,0,,,,,,,,,1,,56,100
175980,note_on,0,0,0,,,,,,,,,4,,71,100
175980,note_on,0,0,0,,,,,,,,,4,,56,100
176010,note_on,30,0,0,,,,,,,,,4,,56,0
176010,note_on,0,0,0,,,,,,,,,4,,71,0
176010,note_on,0,0,0,,,,,,,,,1,,71,0
176010,note_on,0,0,0,,,,,,,,,1,,56,0
176040,note_on,30,0,0,,,,,,,,,1,,57,100
176040,note_on,0,0,0,,,,,,,,,1,,73,100
176040,note_on,0,0,0,,,,,,,,,4,,57,100
176040,note_on,0,0,0,,,,,,,,,4,,73,100
176100,note_on,60,0,0,,,,,,,,,4,,73,0
176100,note_on,0,0,0,,,,,,,,,1,,73,0
176100,note_on,0,0,0,,,,,,,,,1,,69,100
176100,note_on,0,0,0,,,,,,,,,4,,69,100
176130,note_on,30,0,0,,,,,,,,,4,,69,0
176130,note_on,0,0,0,,,,,,,,,1,,69,0
176130,note_on,0,0,0,,,,,,,,,4,,57,0
176130,note_on,0,0,0,,,,,,,,,1,,57,0
176160,note_on,30,0,0,,,,,,,,,1,,71,100
176160,note_on,0,0,0,,,,,,,,,4,,71,100
176220,note_on,60,0,0,,,,,,,,,4,,71,0
176220,note_on,0,0,0,,,,,,,,,1,,71,0
176220,note_on,0,0,0,,,,,,,,,1,,62,100
176220,note_on,0,0,0,,,,,,,,,1,,68,100
176220,note_on,0,0,0,,,,,,,,,4,,62,100
176220,note_on,0,0,0,,,,,,,,,4,,68,100
176250,note_on,30,0,0,,,,,,,,,4,,68,0
176250,note_on,0,0,0,,,,,,,,,4,,62,0
176250,note_on,0,0,0,,,,,,,,,1,,62,0
176250,note_on,0,0,0,,,,,,,,,1,,68,0
176280,note_on,30,0,0,,,,,,,,,1,,61,100
176280,note_on,0,0,0,,,,,,,,,1,,69,100
176280,note_on,0,0,0,,,,,,,,,4,,61,100
176280,note_on,0,0,0,,,,,,,,,4,,69,100
176340,note_on,60,0,0,,,,,,,,,4,,61,0
176340,note_on,0,0,0,,,,,,,,,1,,61,0
176340,note_on,0,0,0,,,,,,,,,1,,57,100
176340,note_on,0,0,0,,,,,,,,,4,,57,100
176370,note_on,30,0,0,,,,,,,,,4,,57,0
176370,note_on,0,0,0,,,,,,,,,1,,57,0
176370,note_on,0,0,0,,,,,,,,,4,,69,0
176370,note_on,0,0,0,,,,,,,,,1,,69,0
176400,note_on,30,0,0,,,,,,,,,1,,59,100
176400,note_on,0,0,0,,,,,,,,,4,,59,100
176460,note_on,60,0,0,,,,,,,,,4,,59,0
176460,note_on,0,0,0,,,,,,,,,1,,59,0
176460,note_on,0,0,0,,,,,,,,,1,,71,100
176460,note_on,0,0,0,,,,,,,,,1,,56,100
176460,note_on,0,0,0,,,,,,,,,4,,71,100
176460,note_on,0,0,0,,,,,,,,,4,,56,100
176490,note_on,30,0,0,,,,,,,,,4,,56,0
176490,note_on,0,0,0,,,,,,,,,4,,71,0
176490,note_on,0,0,0,,,,,,,,,1,,71,0
176490,note_on,0,0,0,,,,,,,,,1,,56,0
176520,note_on,30,0,0,,,,,,,,,1,,73,100
176520,note_on,0,0,0,,,,,,,,,1,,57,100
176520,note_on,0,0,0,,,,,,,,,4,,73,100
176520,note_on,0,0,0,,,,,,,,,4,,57,100
176550,note_on,30,0,0,,,,,,,,,4,,73,0
176550,note_on,0,0,0,,,,,,,,,1,,73,0
176550,note_on,0,0,0,,,,,,,,,1,,71,100
176550,note_on,0,0,0,,,,,,,,,4,,71,100
176580,note_on,30,0,0,,,,,,,,,4,,71,0
176580,note_on,0,0,0,,,,,,,,,1,,71,0
176580,note_on,0,0,0,,,,,,,,,4,,57,0
176580,note_on,0,0,0,,,,,,,,,1,,57,0
176580,note_on,0,0,0,,,,,,,,,1,,69,100
176580,note_on,0,0,0,,,,,,,,,1,,61,100
176580,note_on,0,0,0,,,,,,,,,4,,69,100
176580,note_on,0,0,0,,,,,,,,,4,,61,100
176610,note_on,30,0,0,,,,,,,,,4,,61,0
176610,note_on,0,0,0,,,,,,,,,4,,69,0
176610,note_on,0,0,0,,,,,,,,,1,,69,0
176610,note_on,0,0,0,,,,,,,,,1,,61,0
176640,note_on,30,0,0,,,,,,,,,1,,74,100
176640,note_on,0,0,0,,,,,,,,,1,,59,100
176640,note_on,0,0,0,,,,,,,,,4,,74,100
176640,note_on,0,0,0,,,,,,,,,4,,59,100
176670,note_on,30,0,0,,,,,,,,,4,,74,0
176670,note_on,0,0,0,,,,,,,,,1,,74,0
176670,note_on,0,0,0,,,,,,,,,1,,73,100
176670,note_on,0,0,0,,,,,,,,,4,,73,100
176700,note_on,30,0,0,,,,,,,,,4,,73,0
176700,note_on,0,0,0,,,,,,,,,1,,73,0
176700,note_on,0,0,0,,,,,,,,,4,,59,0
176700,note_on,0,0,0,,,,,,,,,1,,59,0
176700,note_on,0,0,0,,,,,,,,,1,,71,100
176700,note_on,0,0,0,,,,,,,,,1,,62,100
176700,note_on,0,0,0,,,,,,,,,4,,71,100
176700,note_on,0,0,0,,,,,,,,,4,,62,100
176730,note_on,30,0,0,,,,,,,,,4,,62,0
176730,note_on,0,0,0,,,,,,,,,4,,71,0
176730,note_on,0,0,0,,,,,,,,,1,,71,0
176730,note_on,0,0,0,,,,,,,,,1,,62,0
176760,note_on,30,0,0,,,,,,,,,1,,76,100
176760,note_on,0,0,0,,,,,,,,,1,,61,100
176760,note_on,0,0,0,,,,,,,,,4,,76,100
176760,note_on,0,0,0,,,,,,,,,4,,61,100
176820,note_on,60,0,0,,,,,,,,,4,,61,0
176820,note_on,0,0,0,,,,,,,,,1,,61,0
176820,note_on,0,0,0,,,,,,,,,1,,57,100
176820,note_on,0,0,0,,,,,,,,,4,,57,100
176850,note_on,30,0,0,,,,,,,,,4,,57,0
176850,note_on,0,0,0,,,,,,,,,1,,57,0
176880,note_on,30,0,0,,,,,,,,,1,,61,100
176880,note_on,0,0,0,,,,,,,,,4,,61,100
176925,note_on,45,0,0,,,,,,,,,4,,76,0
176925,note_on,0,0,0,,,,,,,,,1,,76,0
176940,note_on,15,0,0,,,,,,,,,1,,61,0
176940,note_on,0,0,0,,,,,,,,,4,,61,0
176940,note_on,0,0,0,,,,,,,,,1,,73,100
176940,note_on,0,0,0,,,,,,,,,1,,64,100
176940,note_on,0,0,0,,,,,,,,,4,,73,100
176940,note_on,0,0,0,,,,,,,,,4,,64,100
176970,note_on,30,0,0,,,,,,,,,4,,64,0
176970,note_on,0,0,0,,,,,,,,,4,,73,0
176970,note_on,0,0,0,,,,,,,,,1,,73,0
176970,note_on,0,0,0,,,,,,,,,1,,64,0
177000,note_on,30,0,0,,,,,,,,,1,,62,100
177000,note_on,0,0,0,,,,,,,,,1,,78,100
177000,note_on,0,0,0,,,,,,,,,4,,62,100
177000,note_on,0,0,0,,,,,,,,,4,,78,100
177030,note_on,30,0,0,,,,,,,,,4,,78,0
177030,note_on,0,0,0,,,,,,,,,1,,78,0
177030,note_on,0,0,0,,,,,,,,,1,,76,100
177030,note_on,0,0,0,,,,,,,,,4,,76,100
177060,note_on,30,0,0,,,,,,,,,4,,76,0
177060,note_on,0,0,0,,,,,,,,,1,,76,0
177060,note_on,0,0,0,,,,,,,,,1,,74,100
177060,note_on,0,0,0,,,,,,,,,4,,74,100
177075,note_on,15,0,0,,,,,,,,,4,,62,0
177075,note_on,0,0,0,,,,,,,,,1,,62,0
177090,note_on,15,0,0,,,,,,,,,1,,74,0
177090,note_on,0,0,0,,,,,,,,,4,,74,0
177120,note_on,30,0,0,,,,,,,,,1,,59,100
177120,note_on,0,0,0,,,,,,,,,1,,80,100
177120,note_on,0,0,0,,,,,,,,,4,,59,100
177120,note_on,0,0,0,,,,,,,,,4,,80,100
177150,note_on,30,0,0,,,,,,,,,4,,80,0
177150,note_on,0,0,0,,,,,,,,,1,,80,0
177150,note_on,0,0,0,,,,,,,,,1,,78,100
177150,note_on,0,0,0,,,,,,,,,4,,78,100
177180,note_on,30,0,0,,,,,,,,,4,,78,0
177180,note_on,0,0,0,,,,,,,,,1,,78,0
177180,note_on,0,0,0,,,,,,,,,1,,76,100
177180,note_on,0,0,0,,,,,,,,,4,,76,100
177210,note_on,30,0,0,,,,,,,,,4,,76,0
177210,note_on,0,0,0,,,,,,,,,1,,76,0
177225,note_on,15,0,0,,,,,,,,,1,,59,0
177225,note_on,0,0,0,,,,,,,,,4,,59,0
177240,note_on,15,0,0,,,,,,,,,1,,57,100
177240,note_on,0,0,0,,,,,,,,,1,,81,100
177240,note_on,0,0,0,,,,,,,,,4,,57,100
177240,note_on,0,0,0,,,,,,,,,4,,81,100
177405,note_on,165,0,0,,,,,,,,,4,,81,0
177405,note_on,0,0,0,,,,,,,,,1,,81,0
177420,note_on,15,0,0,,,,,,,,,1,,83,100
177420,note_on,0,0,0,,,,,,,,,4,,83,100
177465,note_on,45,0,0,,,,,,,,,4,,83,0
177465,note_on,0,0,0,,,,,,,,,1,,83,0
177480,note_on,15,0,0,,,,,,,,,1,,69,100
177480,note_on,0,0,0,,,,,,,,,1,,61,100
177480,note_on,0,0,0,,,,,,,,,1,,64,100
177480,note_on,0,0,0,,,,,,,,,1,,85,100
177480,note_on,0,0,0,,,,,,,,,4,,69,100
177480,note_on,0,0,0,,,,,,,,,4,,61,100
177480,note_on,0,0,0,,,,,,,,,4,,64,100
177480,note_on,0,0,0,,,,,,,,,4,,85,100
177510,note_on,30,0,0,,,,,,,,,4,,85,0
177510,note_on,0,0,0,,,,,,,,,1,,85,0
177510,note_on,0,0,0,,,,,,,,,1,,83,100
177510,note_on,0,0,0,,,,,,,,,4,,83,100
177540,note_on,30,0,0,,,,,,,,,4,,83,0
177540,note_on,0,0,0,,,,,,,,,1,,83,0
177540,note_on,0,0,0,,,,,,,,,1,,81,100
177540,note_on,0,0,0,,,,,,,,,4,,81,100
177570,note_on,30,0,0,,,,,,,,,4,,81,0
177570,note_on,0,0,0,,,,,,,,,1,,81,0
177585,note_on,15,0,0,,,,,,,,,4,,64,0
177585,note_on,0,0,0,,,,,,,,,1,,61,0
177585,note_on,0,0,0,,,,,,,,,1,,69,0
177585,note_on,0,0,0,,,,,,,,,4,,61,0
177585,note_on,0,0,0,,,,,,,,,1,,64,0
177585,note_on,0,0,0,,,,,,,,,4,,69,0
177600,note_on,15,0,0,,,,,,,,,1,,68,100
177600,note_on,0,0,0,,,,,,,,,1,,62,100
177600,note_on,0,0,0,,,,,,,,,1,,59,100
177600,note_on,0,0,0,,,,,,,,,1,,83,100
177600,note_on,0,0,0,,,,,,,,,4,,68,100
177600,note_on,0,0,0,,,,,,,,,4,,62,100
177600,note_on,0,0,0,,,,,,,,,4,,59,100
177600,note_on,0,0,0,,,,,,,,,4,,83,100
177630,note_on,30,0,0,,,,,,,,,4,,83,0
177630,note_on,0,0,0,,,,,,,,,1,,83,0
177630,note_on,0,0,0,,,,,,,,,1,,85,100
177630,note_on,0,0,0,,,,,,,,,4,,85,100
177660,note_on,30,0,0,,,,,,,,,4,,85,0
177660,note_on,0,0,0,,,,,,,,,1,,85,0
177660,note_on,0,0,0,,,,,,,,,1,,86,100
177660,note_on,0,0,0,,,,,,,,,4,,86,100
177690,note_on,30,0,0,,,,,,,,,4,,86,0
177690,note_on,0,0,0,,,,,,,,,1,,86,0
177705,note_on,15,0,0,,,,,,,,,4,,59,0
177705,note_on,0,0,0,,,,,,,,,1,,62,0
177705,note_on,0,0,0,,,,,,,,,1,,68,0
177705,note_on,0,0,0,,,,,,,,,4,,62,0
177705,note_on,0,0,0,,,,,,,,,1,,59,0
177705,note_on,0,0,0,,,,,,,,,4,,68,0
177720,note_on,15,0,0,,,,,,,,,1,,69,100
177720,note_on,0,0,0,,,,,,,,,1,,61,100
177720,note_on,0,0,0,,,,,,,,,1,,64,100
177720,note_on,0,0,0,,,,,,,,,1,,85,100
177720,note_on,0,0,0,,,,,,,,,4,,69,100
177720,note_on,0,0,0,,,,,,,,,4,,61,100
177720,note_on,0,0,0,,,,,,,,,4,,64,100
177720,note_on,0,0,0,,,,,,,,,4,,85,100
177750,note_on,30,0,0,,,,,,,,,4,,85,0
177750,note_on,0,0,0,,,,,,,,,1,,85,0
177750,note_on,0,0,0,,,,,,,,,1,,83,100
177750,note_on,0,0,0,,,,,,,,,4,,83,100
177780,note_on,30,0,0,,,,,,,,,4,,83,0
177780,note_on,0,0,0,,,,,,,,,1,,83,0
177780,note_on,0,0,0,,,,,,,,,1,,81,100
177780,note_on,0,0,0,,,,,,,,,4,,81,100
177810,note_on,30,0,0,,,,,,,,,4,,81,0
177810,note_on,0,0,0,,,,,,,,,1,,81,0
177825,note_on,15,0,0,,,,,,,,,4,,64,0
177825,note_on,0,0,0,,,,,,,,,1,,61,0
177825,note_on,0,0,0,,,,,,,,,1,,69,0
177825,note_on,0,0,0,,,,,,,,,4,,61,0
177825,note_on,0,0,0,,,,,,,,,1,,64,0
177825,note_on,0,0,0,,,,,,,,,4,,69,0
177840,note_on,15,0,0,,,,,,,,,1,,59,100
177840,note_on,0,0,0,,,,,,,,,1,,62,100
177840,note_on,0,0,0,,,,,,,,,1,,68,100
177840,note_on,0,0,0,,,,,,,,,1,,80,100
177840,note_on,0,0,0,,,,,,,,,4,,59,100
177840,note_on,0,0,0,,,,,,,,,4,,62,100
177840,note_on,0,0,0,,,,,,,,,4,,68,100
177840,note_on,0,0,0,,,,,,,,,4,,80,100
177870,note_on,30,0,0,,,,,,,,,4,,80,0
177870,note_on,0,0,0,,,,,,,,,1,,80,0
177870,note_on,0,0,0,,,,,,,,,1,,81,100
177870,note_on,0,0,0,,,,,,,,,4,,81,100
177900,note_on,30,0,0,,,,,,,,,4,,81,0
177900,note_on,0,0,0,,,,,,,,,1,,81,0
177900,note_on,0,0,0,,,,,,,,,1,,83,100
177900,note_on,0,0,0,,,,,,,,,4,,83,100
177930,note_on,30,0,0,,,,,,,,,4,,83,0
177930,note_on,0,0,0,,,,,,,,,1,,83,0
177945,note_on,15,0,0,,,,,,,,,4,,68,0
177945,note_on,0,0,0,,,,,,,,,1,,62,0
177945,note_on,0,0,0,,,,,,,,,1,,59,0
177945,note_on,0,0,0,,,,,,,,,4,,62,0
177945,note_on,0,0,0,,,,,,,,,1,,68,0
177945,note_on,0,0,0,,,,,,,,,4,,59,0
177960,note_on,15,0,0,,,,,,,,,1,,69,100
177960,note_on,0,0,0,,,,,,,,,1,,61,100
177960,note_on,0,0,0,,,,,,,,,1,,64,100
177960,note_on,0,0,0,,,,,,,,,1,,81,100
177960,note_on,0,0,0,,,,,,,,,4,,69,100
177960,note_on,0,0,0,,,,,,,,,4,,61,100
177960,note_on,0,0,0,,,,,,,,,4,,64,100
177960,note_on,0,0,0,,,,,,,,,4,,81,100
177990,note_on,30,0,0,,,,,,,,,4,,81,0
177990,note_on,0,0,0,,,,,,,,,1,,81,0
177990,note_on,0,0,0,,,,,,,,,1,,80,100
177990,note_on,0,0,0,,,,,,,,,4,,80,100
178020,note_on,30,0,0,,,,,,,,,4,,80,0
178020,note_on,0,0,0,,,,,,,,,1,,80,0
178020,note_on,0,0,0,,,,,,,,,1,,78,100
178020,note_on,0,0,0,,,,,,,,,4,,78,100
178050,note_on,30,0,0,,,,,,,,,4,,78,0
178050,note_on,0,0,0,,,,,,,,,1,,78,0
178065,note_on,15,0,0,,,,,,,,,4,,64,0
178065,note_on,0,0,0,,,,,,,,,1,,61,0
178065,note_on,0,0,0,,,,,,,,,1,,69,0
178065,note_on,0,0,0,,,,,,,,,4,,61,0
178065,note_on,0,0,0,,,,,,,,,1,,64,0
178065,note_on,0,0,0,,,,,,,,,4,,69,0
178080,note_on,15,0,0,,,,,,,,,1,,68,100
178080,note_on,0,0,0,,,,,,,,,1,,62,100
178080,note_on,0,0,0,,,,,,,,,1,,59,100
178080,note_on,0,0,0,,,,,,,,,1,,76,100
178080,note_on,0,0,0,,,,,,,,,4,,68,100
178080,note_on,0,0,0,,,,,,,,,4,,62,100
178080,note_on,0,0,0,,,,,,,,,4,,59,100
178080,note_on,0,0,0,,,,,,,,,4,,76,100
178110,note_on,30,0,0,,,,,,,,,4,,76,0
178110,note_on,0,0,0,,,,,,,,,1,,76,0
178110,note_on,0,0,0,,,,,,,,,1,,78,100
178110,note_on,0,0,0,,,,,,,,,4,,78,100
178140,note_on,30,0,0,,,,,,,,,4,,78,0
178140,note_on,0,0,0,,,,,,,,,1,,78,0
178140,note_on,0,0,0,,,,,,,,,1,,74,100
178140,note_on,0,0,0,,,,,,,,,4,,74,100
178170,note_on,30,0,0,,,,,,,,,4,,74,0
178170,note_on,0,0,0,,,,,,,,,1,,74,0
178185,note_on,15,0,0,,,,,,,,,4,,59,0
178185,note_on,0,0,0,,,,,,,,,1,,62,0
178185,note_on,0,0,0,,,,,,,,,1,,68,0
178185,note_on,0,0,0,,,,,,,,,4,,62,0
178185,note_on,0,0,0,,,,,,,,,1,,59,0
178185,note_on,0,0,0,,,,,,,,,4,,68,0
178200,note_on,15,0,0,,,,,,,,,1,,61,100
178200,note_on,0,0,0,,,,,,,,,1,,64,100
178200,note_on,0,0,0,,,,,,,,,1,,69,100
178200,note_on,0,0,0,,,,,,,,,1,,74,100
178200,note_on,0,0,0,,,,,,,,,4,,61,100
178200,note_on,0,0,0,,,,,,,,,4,,64,100
178200,note_on,0,0,0,,,,,,,,,4,,69,100
178200,note_on,0,0,0,,,,,,,,,4,,74,100
178215,note_on,15,0,0,,,,,,,,,4,,74,0
178215,note_on,0,0,0,,,,,,,,,1,,74,0
178215,note_on,0,0,0,,,,,,,,,1,,73,100
178215,note_on,0,0,0,,,,,,,,,4,,73,100
178230,note_on,15,0,0,,,,,,,,,4,,73,0
178230,note_on,0,0,0,,,,,,,,,1,,73,0
178230,note_on,0,0,0,,,,,,,,,1,,74,100
178230,note_on,0,0,0,,,,,,,,,4,,74,100
178245,note_on,15,0,0,,,,,,,,,4,,74,0
178245,note_on,0,0,0,,,,,,,,,1,,74,0
178245,note_on,0,0,0,,,,,,,,,1,,73,100
178245,note_on,0,0,0,,,,,,,,,4,,73,100
178260,note_on,15,0,0,,,,,,,,,4,,73,0
178260,note_on,0,0,0,,,,,,,,,1,,73,0
178260,note_on,0,0,0,,,,,,,,,1,,74,100
178260,note_on,0,0,0,,,,,,,,,4,,74,100
178275,note_on,15,0,0,,,,,,,,,4,,74,0
178275,note_on,0,0,0,,,,,,,,,1,,74,0
178275,note_on,0,0,0,,,,,,,,,1,,73,100
178275,note_on,0,0,0,,,,,,,,,4,,73,100
178290,note_on,15,0,0,,,,,,,,,4,,73,0
178290,note_on,0,0,0,,,,,,,,,1,,73,0
178290,note_on,0,0,0,,,,,,,,,1,,74,100
178290,note_on,0,0,0,,,,,,,,,4,,74,100
178305,note_on,15,0,0,,,,,,,,,4,,74,0
178305,note_on,0,0,0,,,,,,,,,1,,74,0
178305,note_on,0,0,0,,,,,,,,,4,,61,0
178305,note_on,0,0,0,,,,,,,,,1,,64,0
178305,note_on,0,0,0,,,,,,,,,1,,61,0
178305,note_on,0,0,0,,,,,,,,,4,,69,0
178305,note_on,0,0,0,,,,,,,,,1,,69,0
178305,note_on,0,0,0,,,,,,,,,4,,64,0
178305,note_on,0,0,0,,,,,,,,,1,,73,100
178305,note_on,0,0,0,,,,,,,,,4,,73,100
178320,note_on,15,0,0,,,,,,,,,1,,69,100
178320,note_on,0,0,0,,,,,,,,,1,,61,100
178320,note_on,0,0,0,,,,,,,,,1,,64,100
178320,note_on,0,0,0,,,,,,,,,4,,69,100
178320,note_on,0,0,0,,,,,,,,,4,,61,100
178320,note_on,0,0,0,,,,,,,,,4,,64,100
178350,note_on,30,0,0,,,,,,,,,4,,73,0
178350,note_on,0,0,0,,,,,,,,,1,,73,0
178380,note_on,30,0,0,,,,,,,,,1,,74,100
178380,note_on,0,0,0,,,,,,,,,4,,74,100
178410,note_on,30,0,0,,,,,,,,,4,,74,0
178410,note_on,0,0,0,,,,,,,,,1,,74,0
178410,note_on,0,0,0,,,,,,,,,1,,73,100
178410,note_on,0,0,0,,,,,,,,,4,,73,100
178425,note_on,15,0,0,,,,,,,,,4,,69,0
178425,note_on,0,0,0,,,,,,,,,4,,64,0
178425,note_on,0,0,0,,,,,,,,,1,,69,0
178425,note_on,0,0,0,,,,,,,,,1,,64,0
178425,note_on,0,0,0,,,,,,,,,1,,61,0
178425,note_on,0,0,0,,,,,,,,,4,,61,0
178440,note_on,15,0,0,,,,,,,,,1,,73,0
178440,note_on,0,0,0,,,,,,,,,4,,73,0
178440,note_on,0,0,0,,,,,,,,,1,,69,100
178440,note_on,0,0,0,,,,,,,,,1,,66,100
178440,note_on,0,0,0,,,,,,,,,1,,62,100
178440,note_on,0,0,0,,,,,,,,,1,,74,100
178440,note_on,0,0,0,,,,,,,,,4,,69,100
178440,note_on,0,0,0,,,,,,,,,4,,66,100
178440,note_on,0,0,0,,,,,,,,,4,,62,100
178440,note_on,0,0,0,,,,,,,,,4,,74,100
178470,note_on,30,0,0,,,,,,,,,4,,74,0
178470,note_on,0,0,0,,,,,,,,,1,,74,0
178470,note_on,0,0,0,,,,,,,,,1,,76,100
178470,note_on,0,0,0,,,,,,,,,4,,76,100
178500,note_on,30,0,0,,,,,,,,,4,,76,0
178500,note_on,0,0,0,,,,,,,,,1,,76,0
178500,note_on,0,0,0,,,,,,,,,1,,78,100
178500,note_on,0,0,0,,,,,,,,,4,,78,100
178530,note_on,30,0,0,,,,,,,,,4,,78,0
178530,note_on,0,0,0,,,,,,,,,1,,78,0
178545,note_on,15,0,0,,,,,,,,,4,,62,0
178545,note_on,0,0,0,,,,,,,,,1,,66,0
178545,note_on,0,0,0,,,,,,,,,1,,69,0
178545,note_on,0,0,0,,,,,,,,,4,,66,0
178545,note_on,0,0,0,,,,,,,,,1,,62,0
178545,note_on,0,0,0,,,,,,,,,4,,69,0
178560,note_on,15,0,0,,,,,,,,,1,,69,100
178560,note_on,0,0,0,,,,,,,,,1,,61,100
178560,note_on,0,0,0,,,,,,,,,1,,64,100
178560,note_on,0,0,0,,,,,,,,,1,,76,100
178560,note_on,0,0,0,,,,,,,,,4,,69,100
178560,note_on,0,0,0,,,,,,,,,4,,61,100
178560,note_on,0,0,0,,,,,,,,,4,,64,100
178560,note_on,0,0,0,,,,,,,,,4,,76,100
178590,note_on,30,0,0,,,,,,,,,4,,76,0
178590,note_on,0,0,0,,,,,,,,,1,,76,0
178590,note_on,0,0,0,,,,,,,,,1,,74,100
178590,note_on,0,0,0,,,,,,,,,4,,74,100
178620,note_on,30,0,0,,,,,,,,,4,,74,0
178620,note_on,0,0,0,,,,,,,,,1,,74,0
178620,note_on,0,0,0,,,,,,,,,1,,73,100
178620,note_on,0,0,0,,,,,,,,,4,,73,100
178650,note_on,30,0,0,,,,,,,,,4,,73,0
178650,note_on,0,0,0,,,,,,,,,1,,73,0
178665,note_on,15,0,0,,,,,,,,,4,,64,0
178665,note_on,0,0,0,,,,,,,,,1,,61,0
178665,note_on,0,0,0,,,,,,,,,1,,69,0
178665,note_on,0,0,0,,,,,,,,,4,,61,0
178665,note_on,0,0,0,,,,,,,,,1,,64,0
178665,note_on,0,0,0,,,,,,,,,4,,69,0
178680,note_on,15,0,0,,,,,,,,,1,,59,100
178680,note_on,0,0,0,,,,,,,,,1,,62,100
178680,note_on,0,0,0,,,,,,,,,1,,68,100
178680,note_on,0,0,0,,,,,,,,,1,,71,100
178680,note_on,0,0,0,,,,,,,,,4,,59,100
178680,note_on,0,0,0,,,,,,,,,4,,62,100
178680,note_on,0,0,0,,,,,,,,,4,,68,100
178680,note_on,0,0,0,,,,,,,,,4,,71,100
178710,note_on,30,0,0,,,,,,,,,4,,71,0
178710,note_on,0,0,0,,,,,,,,,1,,71,0
178710,note_on,0,0,0,,,,,,,,,1,,73,100
178710,note_on,0,0,0,,,,,,,,,4,,73,100
178740,note_on,30,0,0,,,,,,,,,4,,73,0
178740,note_on,0,0,0,,,,,,,,,1,,73,0
178740,note_on,0,0,0,,,,,,,,,1,,74,100
178740,note_on,0,0,0,,,,,,,,,4,,74,100
178770,note_on,30,0,0,,,,,,,,,4,,74,0
178770,note_on,0,0,0,,,,,,,,,1,,74,0
178785,note_on,15,0,0,,,,,,,,,4,,68,0
178785,note_on,0,0,0,,,,,,,,,1,,62,0
178785,note_on,0,0,0,,,,,,,,,1,,59,0
178785,note_on,0,0,0,,,,,,,,,4,,62,0
178785,note_on,0,0,0,,,,,,,,,1,,68,0
178785,note_on,0,0,0,,,,,,,,,4,,59,0
178800,note_on,15,0,0,,,,,,,,,1,,61,100
178800,note_on,0,0,0,,,,,,,,,1,,64,100
178800,note_on,0,0,0,,,,,,,,,1,,73,100
178800,note_on,0,0,0,,,,,,,,,4,,61,100
178800,note_on,0,0,0,,,,,,,,,4,,64,100
178800,note_on,0,0,0,,,,,,,,,4,,73,100
178830,note_on,30,0,0,,,,,,,,,4,,73,0
178830,note_on,0,0,0,,,,,,,,,1,,73,0
178830,note_on,0,0,0,,,,,,,,,1,,71,100
178830,note_on,0,0,0,,,,,,,,,4,,71,100
178860,note_on,30,0,0,,,,,,,,,4,,71,0
178860,note_on,0,0,0,,,,,,,,,1,,71,0
178860,note_on,0,0,0,,,,,,,,,1,,69,100
178860,note_on,0,0,0,,,,,,,,,4,,69,100
178890,note_on,30,0,0,,,,,,,,,4,,69,0
178890,note_on,0,0,0,,,,,,,,,1,,69,0
178905,note_on,15,0,0,,,,,,,,,4,,61,0
178905,note_on,0,0,0,,,,,,,,,1,,64,0
178905,note_on,0,0,0,,,,,,,,,4,,64,0
178905,note_on,0,0,0,,,,,,,,,1,,61,0
178920,note_on,15,0,0,,,,,,,,,1,,59,100
178920,note_on,0,0,0,,,,,,,,,1,,62,100
178920,note_on,0,0,0,,,,,,,,,1,,68,100
178920,note_on,0,0,0,,,,,,,,,4,,59,100
178920,note_on,0,0,0,,,,,,,,,4,,62,100
178920,note_on,0,0,0,,,,,,,,,4,,68,100
178950,note_on,30,0,0,,,,,,,,,1,,69,100
178950,note_on,0,0,0,,,,,,,,,4,,69,100
178980,note_on,30,0,0,,,,,,,,,4,,69,0
178980,note_on,0,0,0,,,,,,,,,1,,69,0
178980,note_on,0,0,0,,,,,,,,,1,,71,100
178980,note_on,0,0,0,,,,,,,,,4,,71,100
179010,note_on,30,0,0,,,,,,,,,4,,71,0
179010,note_on,0,0,0,,,,,,,,,1,,71,0
179025,note_on,15,0,0,,,,,,,,,4,,68,0
179025,note_on,0,0,0,,,,,,,,,1,,68,0
179040,note_on,15,0,0,,,,,,,,,1,,69,100
179040,note_on,0,0,0,,,,,,,,,4,,69,100
179070,note_on,30,0,0,,,,,,,,,4,,69,0
179070,note_on,0,0,0,,,,,,,,,1,,69,0
179070,note_on,0,0,0,,,,,,,,,1,,68,100
179070,note_on,0,0,0,,,,,,,,,4,,68,100
179100,note_on,30,0,0,,,,,,,,,4,,68,0
179100,note_on,0,0,0,,,,,,,,,1,,68,0
179100,note_on,0,0,0,,,,,,,,,1,,66,100
179100,note_on,0,0,0,,,,,,,,,4,,66,100
179130,note_on,30,0,0,,,,,,,,,4,,66,0
179130,note_on,0,0,0,,,,,,,,,1,,59,0
179130,note_on,0,0,0,,,,,,,,,4,,62,0
179130,note_on,0,0,0,,,,,,,,,1,,66,0
179130,note_on,0,0,0,,,,,,,,,1,,62,0
179130,note_on,0,0,0,,,,,,,,,4,,59,0
179160,note_on,30,0,0,,,,,,,,,1,,61,100
179160,note_on,0,0,0,,,,,,,,,1,,64,100
179160,note_on,0,0,0,,,,,,,,,4,,61,100
179160,note_on,0,0,0,,,,,,,,,4,,64,100
179310,note_on,150,0,0,,,,,,,,,6,,57,0
179310,note_on,0,0,0,,,,,,,,,7,,57,0
179310,note_on,0,0,0,,,,,,,,,5,,64,0
179340,note_on,30,0,0,,,,,,,,,0,,76,100
179340,note_on,0,0,0,,,,,,,,,3,,76,100
179340,note_on,0,0,0,,,,,,,,,5,,76,100
179340,note_on,0,0,0,,,,,,,,,6,,61,100
179340,note_on,0,0,0,,,,,,,,,7,,61,100
179340,note_on,0,0,0,,,,,,,,,13,,76,100
179370,note_on,30,0,0,,,,,,,,,13,,76,0
179370,note_on,0,0,0,,,,,,,,,5,,76,0
179370,note_on,0,0,0,,,,,,,,,0,,76,0
179370,note_on,0,0,0,,,,,,,,,8,,45,0
179370,note_on,0,0,0,,,,,,,,,10,,33,0
179370,note_on,0,0,0,,,,,,,,,14,,45,0
179370,note_on,0,0,0,,,,,,,,,7,,61,0
179370,note_on,0,0,0,,,,,,,,,3,,76,0
179370,note_on,0,0,0,,,,,,,,,6,,61,0
179380,note_on,10,0,0,,,,,,,,,1,,64,0
179385,note_on,5,0,0,,,,,,,,,4,,64,0
179385,note_on,0,0,0,,,,,,,,,4,,61,0
179385,note_on,0,0,0,,,,,,,,,1,,57,0
179385,note_on,0,0,0,,,,,,,,,4,,57,0
179385,note_on,0,0,0,,,,,,,,,1,,61,0
179400,note_on,15,0,0,,,,,,,,,0,,57,100
179400,note_on,0,0,0,,,,,,,,,0,,83,100
179400,note_on,0,0,0,,,,,,,,,3,,57,100
179400,note_on,0,0,0,,,,,,,,,3,,83,100
179400,note_on,0,0,0,,,,,,,,,5,,83,100
179400,note_on,0,0,0,,,,,,,,,6,,61,100
179400,note_on,0,0,0,,,,,,,,,7,,61,100
179400,note_on,0,0,0,,,,,,,,,8,,57,100
179400,note_on,0,0,0,,,,,,,,,10,,45,100
179400,note_on,0,0,0,,,,,,,,,13,,83,100
179400,note_on,0,0,0,,,,,,,,,14,,57,100
179400,note_on,0,0,0,,,,,,,,,15,,57,100
179415,note_on,15,0,0,,,,,,,,,13,,83,0
179415,note_on,0,0,0,,,,,,,,,5,,83,0
179415,note_on,0,0,0,,,,,,,,,3,,83,0
179415,note_on,0,0,0,,,,,,,,,0,,83,0
179415,note_on,0,0,0,,,,,,,,,0,,81,100
179415,note_on,0,0,0,,,,,,,,,3,,81,100
179415,note_on,0,0,0,,,,,,,,,5,,81,100
179415,note_on,0,0,0,,,,,,,,,13,,81,100
179430,note_on,15,0,0,,,,,,,,,13,,81,0
179430,note_on,0,0,0,,,,,,,,,3,,81,0
179430,note_on,0,0,0,,,,,,,,,0,,81,0
179430,note_on,0,0,0,,,,,,,,,5,,81,0
179430,note_on,0,0,0,,,,,,,,,0,,83,100
179430,note_on,0,0,0,,,,,,,,,3,,83,100
179430,note_on,0,0,0,,,,,,,,,5,,83,100
179430,note_on,0,0,0,,,,,,,,,13,,83,100
179445,note_on,15,0,0,,,,,,,,,13,,83,0
179445,note_on,0,0,0,,,,,,,,,3,,83,0
179445,note_on,0,0,0,,,,,,,,,0,,83,0
179445,note_on,0,0,0,,,,,,,,,5,,83,0
179445,note_on,0,0,0,,,,,,,,,0,,81,100
179445,note_on,0,0,0,,,,,,,,,3,,81,100
179445,note_on,0,0,0,,,,,,,,,5,,81,100
179445,note_on,0,0,0,,,,,,,,,13,,81,100
179460,note_on,15,0,0,,,,,,,,,13,,81,0
179460,note_on,0,0,0,,,,,,,,,3,,81,0
179460,note_on,0,0,0,,,,,,,,,0,,81,0
179460,note_on,0,0,0,,,,,,,,,5,,81,0
179460,note_on,0,0,0,,,,,,,,,0,,83,100
179460,note_on,0,0,0,,,,,,,,,3,,83,100
179460,note_on,0,0,0,,,,,,,,,5,,83,100
179460,note_on,0,0,0,,,,,,,,,13,,83,100
179475,note_on,15,0,0,,,,,,,,,13,,83,0
179475,note_on,0,0,0,,,,,,,,,3,,83,0
179475,note_on,0,0,0,,,,,,,,,0,,83,0
179475,note_on,0,0,0,,,,,,,,,5,,83,0
179475,note_on,0,0,0,,,,,,,,,0,,81,100
179475,note_on,0,0,0,,,,,,,,,3,,81,100
179475,note_on,0,0,0,,,,,,,,,5,,81,100
179475,note_on,0,0,0,,,,,,,,,13,,81,100
179490,note_on,15,0,0,,,,,,,,,13,,81,0
179490,note_on,0,0,0,,,,,,,,,15,,57,0
179490,note_on,0,0,0,,,,,,,,,10,,45,0
179490,note_on,0,0,0,,,,,,,,,7,,61,0
179490,note_on,0,0,0,,,,,,,,,3,,57,0
179490,note_on,0,0,0,,,,,,,,,0,,57,0
179490,note_on,0,0,0,,,,,,,,,6,,61,0
179490,note_on,0,0,0,,,,,,,,,14,,57,0
179490,note_on,0,0,0,,,,,,,,,0,,81,0
179490,note_on,0,0,0,,,,,,,,,8,,57,0
179490,note_on,0,0,0,,,,,,,,,5,,81,0
179490,note_on,0,0,0,,,,,,,,,3,,81,0
179490,note_on,0,0,0,,,,,,,,,0,,83,100
179490,note_on,0,0,0,,,,,,,,,3,,83,100
179490,note_on,0,0,0,,,,,,,,,5,,83,100
179490,note_on,0,0,0,,,,,,,,,13,,83,100
179505,note_on,15,0,0,,,,,,,,,13,,83,0
179505,note_on,0,0,0,,,,,,,,,0,,83,0
179505,note_on,0,0,0,,,,,,,,,3,,83,0
179505,note_on,0,0,0,,,,,,,,,5,,83,0
179505,note_on,0,0,0,,,,,,,,,0,,81,100
179505,note_on,0,0,0,,,,,,,,,3,,81,100
179505,note_on,0,0,0,,,,,,,,,5,,81,100
179505,note_on,0,0,0,,,,,,,,,13,,81,100
179520,note_on,15,0,0,,,,,,,,,13,,81,0
179520,note_on,0,0,0,,,,,,,,,0,,81,0
179520,note_on,0,0,0,,,,,,,,,3,,81,0
179520,note_on,0,0,0,,,,,,,,,5,,81,0
179520,note_on,0,0,0,,,,,,,,,0,,59,100
179520,note_on,0,0,0,,,,,,,,,0,,83,100
179520,note_on,0,0,0,,,,,,,,,3,,59,100
179520,note_on,0,0,0,,,,,,,,,3,,83,100
179520,note_on,0,0,0,,,,,,,,,5,,83,100
179520,note_on,0,0,0,,,,,,,,,6,,62,100
179520,note_on,0,0,0,,,,,,,,,7,,62,100
179520,note_on,0,0,0,,,,,,,,,8,,59,100
179520,note_on,0,0,0,,,,,,,,,10,,47,100
179520,note_on,0,0,0,,,,,,,,,13,,83,100
179520,note_on,0,0,0,,,,,,,,,14,,59,100
179520,note_on,0,0,0,,,,,,,,,15,,59,100
179535,note_on,15,0,0,,,,,,,,,13,,83,0
179535,note_on,0,0,0,,,,,,,,,5,,83,0
179535,note_on,0,0,0,,,,,,,,,3,,83,0
179535,note_on,0,0,0,,,,,,,,,0,,83,0
179535,note_on,0,0,0,,,,,,,,,0,,81,100
179535,note_on,0,0,0,,,,,,,,,3,,81,100
179535,note_on,0,0,0,,,,,,,,,5,,81,100
179535,note_on,0,0,0,,,,,,,,,13,,81,100
179550,note_on,15,0,0,,,,,,,,,13,,81,0
179550,note_on,0,0,0,,,,,,,,,3,,81,0
179550,note_on,0,0,0,,,,,,,,,0,,81,0
179550,note_on,0,0,0,,,,,,,,,5,,81,0
179580,note_on,30,0,0,,,,,,,,,0,,80,100
179580,note_on,0,0,0,,,,,,,,,3,,80,100
179580,note_on,0,0,0,,,,,,,,,5,,80,100
179580,note_on,0,0,0,,,,,,,,,13,,80,100
179610,note_on,30,0,0,,,,,,,,,13,,80,0
179610,note_on,0,0,0,,,,,,,,,15,,59,0
179610,note_on,0,0,0,,,,,,,,,10,,47,0
179610,note_on,0,0,0,,,,,,,,,7,,62,0
179610,note_on,0,0,0,,,,,,,,,3,,59,0
179610,note_on,0,0,0,,,,,,,,,0,,59,0
179610,note_on,0,0,0,,,,,,,,,6,,62,0
179610,note_on,0,0,0,,,,,,,,,14,,59,0
179610,note_on,0,0,0,,,,,,,,,0,,80,0
179610,note_on,0,0,0,,,,,,,,,8,,59,0
179610,note_on,0,0,0,,,,,,,,,5,,80,0
179610,note_on,0,0,0,,,,,,,,,3,,80,0
179610,note_on,0,0,0,,,,,,,,,0,,78,100
179610,note_on,0,0,0,,,,,,,,,3,,78,100
179610,note_on,0,0,0,,,,,,,,,5,,78,100
179610,note_on,0,0,0,,,,,,,,,13,,78,100
179640,note_on,30,0,0,,,,,,,,,13,,78,0
179640,note_on,0,0,0,,,,,,,,,0,,78,0
179640,note_on,0,0,0,,,,,,,,,3,,78,0
179640,note_on,0,0,0,,,,,,,,,5,,78,0
179640,note_on,0,0,0,,,,,,,,,0,,76,100
179640,note_on,0,0,0,,,,,,,,,0,,61,100
179640,note_on,0,0,0,,,,,,,,,3,,76,100
179640,note_on,0,0,0,,,,,,,,,3,,61,100
179640,note_on,0,0,0,,,,,,,,,5,,76,100
179640,note_on,0,0,0,,,,,,,,,6,,69,100
179640,note_on,0,0,0,,,,,,,,,7,,69,100
179640,note_on,0,0,0,,,,,,,,,8,,61,100
179640,note_on,0,0,0,,,,,,,,,10,,49,100
179640,note_on,0,0,0,,,,,,,,,13,,76,100
179640,note_on,0,0,0,,,,,,,,,14,,61,100
179640,note_on,0,0,0,,,,,,,,,15,,61,100
179670,note_on,30,0,0,,,,,,,,,13,,76,0
179670,note_on,0,0,0,,,,,,,,,5,,76,0
179670,note_on,0,0,0,,,,,,,,,3,,76,0
179670,note_on,0,0,0,,,,,,,,,0,,76,0
179700,note_on,30,0,0,,,,,,,,,0,,81,100
179700,note_on,0,0,0,,,,,,,,,3,,81,100
179700,note_on,0,0,0,,,,,,,,,5,,81,100
179700,note_on,0,0,0,,,,,,,,,13,,81,100
179730,note_on,30,0,0,,,,,,,,,13,,81,0
179730,note_on,0,0,0,,,,,,,,,15,,61,0
179730,note_on,0,0,0,,,,,,,,,8,,61,0
179730,note_on,0,0,0,,,,,,,,,6,,69,0
179730,note_on,0,0,0,,,,,,,,,10,,49,0
179730,note_on,0,0,0,,,,,,,,,0,,61,0
179730,note_on,0,0,0,,,,,,,,,7,,69,0
179730,note_on,0,0,0,,,,,,,,,3,,61,0
179730,note_on,0,0,0,,,,,,,,,0,,81,0
179730,note_on,0,0,0,,,,,,,,,14,,61,0
179730,note_on,0,0,0,,,,,,,,,5,,81,0
179730,note_on,0,0,0,,,,,,,,,3,,81,0
179760,note_on,30,0,0,,,,,,,,,0,,57,100
179760,note_on,0,0,0,,,,,,,,,3,,57,100
179760,note_on,0,0,0,,,,,,,,,6,,61,100
179760,note_on,0,0,0,,,,,,,,,7,,61,100
179760,note_on,0,0,0,,,,,,,,,8,,57,100
179760,note_on,0,0,0,,,,,,,,,10,,45,100
179760,note_on,0,0,0,,,,,,,,,14,,57,100
179760,note_on,0,0,0,,,,,,,,,15,,57,100
179820,note_on,60,0,0,,,,,,,,,0,,69,100
179820,note_on,0,0,0,,,,,,,,,3,,69,100
179820,note_on,0,0,0,,,,,,,,,5,,69,100
179820,note_on,0,0,0,,,,,,,,,13,,69,100
179850,note_on,30,0,0,,,,,,,,,13,,69,0
179850,note_on,0,0,0,,,,,,,,,3,,57,0
179850,note_on,0,0,0,,,,,,,,,15,,57,0
179850,note_on,0,0,0,,,,,,,,,6,,61,0
179850,note_on,0,0,0,,,,,,,,,7,,61,0
179850,note_on,0,0,0,,,,,,,,,0,,57,0
179850,note_on,0,0,0,,,,,,,,,8,,57,0
179850,note_on,0,0,0,,,,,,,,,10,,45,0
179850,note_on,0,0,0,,,,,,,,,0,,69,0
179850,note_on,0,0,0,,,,,,,,,14,,57,0
179850,note_on,0,0,0,,,,,,,,,5,,69,0
179850,note_on,0,0,0,,,,,,,,,3,,69,0
179880,note_on,30,0,0,,,,,,,,,0,,54,100
179880,note_on,0,0,0,,,,,,,,,0,,76,100
179880,note_on,0,0,0,,,,,,,,,3,,54,100
179880,note_on,0,0,0,,,,,,,,,3,,76,100
179880,note_on,0,0,0,,,,,,,,,5,,76,100
179880,note_on,0,0,0,,,,,,,,,6,,57,100
179880,note_on,0,0,0,,,,,,,,,7,,57,100
179880,note_on,0,0,0,,,,,,,,,8,,54,100
179880,note_on,0,0,0,,,,,,,,,10,,42,100
179880,note_on,0,0,0,,,,,,,,,13,,76,100
179880,note_on,0,0,0,,,,,,,,,14,,54,100
179880,note_on,0,0,0,,,,,,,,,15,,54,100
179895,note_on,15,0,0,,,,,,,,,13,,76,0
179895,note_on,0,0,0,,,,,,,,,5,,76,0
179895,note_on,0,0,0,,,,,,,,,3,,76,0
179895,note_on,0,0,0,,,,,,,,,0,,76,0
179895,note_on,0,0,0,,,,,,,,,0,,74,100
179895,note_on,0,0,0,,,,,,,,,3,,74,100
179895,note_on,0,0,0,,,,,,,,,5,,74,100
179895,note_on,0,0,0,,,,,,,,,13,,74,100
179910,note_on,15,0,0,,,,,,,,,13,,74,0
179910,note_on,0,0,0,,,,,,,,,3,,74,0
179910,note_on,0,0,0,,,,,,,,,0,,74,0
179910,note_on,0,0,0,,,,,,,,,5,,74,0
179910,note_on,0,0,0,,,,,,,,,0,,76,100
179910,note_on,0,0,0,,,,,,,,,3,,76,100
179910,note_on,0,0,0,,,,,,,,,5,,76,100
179910,note_on,0,0,0,,,,,,,,,13,,76,100
179925,note_on,15,0,0,,,,,,,,,13,,76,0
179925,note_on,0,0,0,,,,,,,,,3,,76,0
179925,note_on,0,0,0,,,,,,,,,0,,76,0
179925,note_on,0,0,0,,,,,,,,,5,,76,0
179925,note_on,0,0,0,,,,,,,,,0,,74,100
179925,note_on,0,0,0,,,,,,,,,3,,74,100
179925,note_on,0,0,0,,,,,,,,,5,,74,100
179925,note_on,0,0,0,,,,,,,,,13,,74,100
179940,note_on,15,0,0,,,,,,,,,13,,74,0
179940,note_on,0,0,0,,,,,,,,,3,,74,0
179940,note_on,0,0,0,,,,,,,,,0,,74,0
179940,note_on,0,0,0,,,,,,,,,5,,74,0
179940,note_on,0,0,0,,,,,,,,,0,,76,100
179940,note_on,0,0,0,,,,,,,,,3,,76,100
179940,note_on,0,0,0,,,,,,,,,5,,76,100
179940,note_on,0,0,0,,,,,,,,,13,,76,100
179955,note_on,15,0,0,,,,,,,,,13,,76,0
179955,note_on,0,0,0,,,,,,,,,3,,76,0
179955,note_on,0,0,0,,,,,,,,,0,,76,0
179955,note_on,0,0,0,,,,,,,,,5,,76,0
179955,note_on,0,0,0,,,,,,,,,0,,74,100
179955,note_on,0,0,0,,,,,,,,,3,,74,100
179955,note_on,0,0,0,,,,,,,,,5,,74,100
179955,note_on,0,0,0,,,,,,,,,13,,74,100
179970,note_on,15,0,0,,,,,,,,,13,,74,0
179970,note_on,0,0,0,,,,,,,,,15,,54,0
179970,note_on,0,0,0,,,,,,,,,10,,42,0
179970,note_on,0,0,0,,,,,,,,,7,,57,0
179970,note_on,0,0,0,,,,,,,,,3,,54,0
179970,note_on,0,0,0,,,,,,,,,0,,54,0
179970,note_on,0,0,0,,,,,,,,,6,,57,0
179970,note_on,0,0,0,,,,,,,,,14,,54,0
179970,note_on,0,0,0,,,,,,,,,0,,74,0
179970,note_on,0,0,0,,,,,,,,,8,,54,0
179970,note_on,0,0,0,,,,,,,,,5,,74,0
179970,note_on,0,0,0,,,,,,,,,3,,74,0
179970,note_on,0,0,0,,,,,,,,,0,,76,100
179970,note_on,0,0,0,,,,,,,,,3,,76,100
179970,note_on,0,0,0,,,,,,,,,5,,76,100
179970,note_on,0,0,0,,,,,,,,,13,,76,100
179985,note_on,15,0,0,,,,,,,,,13,,76,0
179985,note_on,0,0,0,,,,,,,,,0,,76,0
179985,note_on,0,0,0,,,,,,,,,3,,76,0
179985,note_on,0,0,0,,,,,,,,,5,,76,0
179985,note_on,0,0,0,,,,,,,,,0,,74,100
179985,note_on,0,0,0,,,,,,,,,3,,74,100
179985,note_on,0,0,0,,,,,,,,,5,,74,100
179985,note_on,0,0,0,,,,,,,,,13,,74,100
180000,note_on,15,0,0,,,,,,,,,13,,74,0
180000,note_on,0,0,0,,,,,,,,,0,,74,0
180000,note_on,0,0,0,,,,,,,,,3,,74,0
180000,note_on,0,0,0,,,,,,,,,5,,74,0
180000,note_on,0,0,0,,,,,,,,,0,,56,100
180000,note_on,0,0,0,,,,,,,,,0,,76,100
180000,note_on,0,0,0,,,,,,,,,3,,56,100
180000,note_on,0,0,0,,,,,,,,,3,,76,100
180000,note_on,0,0,0,,,,,,,,,5,,76,100
180000,note_on,0,0,0,,,,,,,,,6,,64,100
180000,note_on,0,0,0,,,,,,,,,7,,64,100
180000,note_on,0,0,0,,,,,,,,,8,,56,100
180000,note_on,0,0,0,,,,,,,,,10,,44,100
180000,note_on,0,0,0,,,,,,,,,13,,76,100
180000,note_on,0,0,0,,,,,,,,,14,,56,100
180000,note_on,0,0,0,,,,,,,,,15,,56,100
180015,note_on,15,0,0,,,,,,,,,13,,76,0
180015,note_on,0,0,0,,,,,,,,,5,,76,0
180015,note_on,0,0,0,,,,,,,,,3,,76,0
180015,note_on,0,0,0,,,,,,,,,0,,76,0
180015,note_on,0,0,0,,,,,,,,,0,,74,100
180015,note_on,0,0,0,,,,,,,,,3,,74,100
180015,note_on,0,0,0,,,,,,,,,5,,74,100
180015,note_on,0,0,0,,,,,,,,,13,,74,100
180030,note_on,15,0,0,,,,,,,,,13,,74,0
180030,note_on,0,0,0,,,,,,,,,3,,74,0
180030,note_on,0,0,0,,,,,,,,,0,,74,0
180030,note_on,0,0,0,,,,,,,,,5,,74,0
180060,note_on,30,0,0,,,,,,,,,0,,73,100
180060,note_on,0,0,0,,,,,,,,,3,,73,100
180060,note_on,0,0,0,,,,,,,,,5,,73,100
180060,note_on,0,0,0,,,,,,,,,13,,73,100
180090,note_on,30,0,0,,,,,,,,,13,,73,0
180090,note_on,0,0,0,,,,,,,,,15,,56,0
180090,note_on,0,0,0,,,,,,,,,10,,44,0
180090,note_on,0,0,0,,,,,,,,,7,,64,0
180090,note_on,0,0,0,,,,,,,,,3,,56,0
180090,note_on,0,0,0,,,,,,,,,0,,56,0
180090,note_on,0,0,0,,,,,,,,,6,,64,0
180090,note_on,0,0,0,,,,,,,,,14,,56,0
180090,note_on,0,0,0,,,,,,,,,0,,73,0
180090,note_on,0,0,0,,,,,,,,,8,,56,0
180090,note_on,0,0,0,,,,,,,,,5,,73,0
180090,note_on,0,0,0,,,,,,,,,3,,73,0
180090,note_on,0,0,0,,,,,,,,,0,,71,100
180090,note_on,0,0,0,,,,,,,,,3,,71,100
180090,note_on,0,0,0,,,,,,,,,5,,71,100
180090,note_on,0,0,0,,,,,,,,,13,,71,100
180120,note_on,30,0,0,,,,,,,,,13,,71,0
180120,note_on,0,0,0,,,,,,,,,0,,71,0
180120,note_on,0,0,0,,,,,,,,,3,,71,0
180120,note_on,0,0,0,,,,,,,,,5,,71,0
180120,note_on,0,0,0,,,,,,,,,0,,57,100
180120,note_on,0,0,0,,,,,,,,,0,,73,100
180120,note_on,0,0,0,,,,,,,,,3,,57,100
180120,note_on,0,0,0,,,,,,,,,3,,73,100
180120,note_on,0,0,0,,,,,,,,,5,,73,100
180120,note_on,0,0,0,,,,,,,,,6,,64,100
180120,note_on,0,0,0,,,,,,,,,7,,64,100
180120,note_on,0,0,0,,,,,,,,,8,,57,100
180120,note_on,0,0,0,,,,,,,,,10,,45,100
180120,note_on,0,0,0,,,,,,,,,13,,73,100
180120,note_on,0,0,0,,,,,,,,,14,,57,100
180120,note_on,0,0,0,,,,,,,,,15,,57,100
180150,note_on,30,0,0,,,,,,,,,13,,73,0
180150,note_on,0,0,0,,,,,,,,,5,,73,0
180150,note_on,0,0,0,,,,,,,,,3,,73,0
180150,note_on,0,0,0,,,,,,,,,0,,73,0
180180,note_on,30,0,0,,,,,,,,,0,,81,100
180180,note_on,0,0,0,,,,,,,,,3,,81,100
180180,note_on,0,0,0,,,,,,,,,5,,81,100
180180,note_on,0,0,0,,,,,,,,,13,,81,100
180210,note_on,30,0,0,,,,,,,,,13,,81,0
180210,note_on,0,0,0,,,,,,,,,7,,64,0
180210,note_on,0,0,0,,,,,,,,,8,,57,0
180210,note_on,0,0,0,,,,,,,,,14,,57,0
180210,note_on,0,0,0,,,,,,,,,10,,45,0
180210,note_on,0,0,0,,,,,,,,,0,,57,0
180210,note_on,0,0,0,,,,,,,,,6,,64,0
180210,note_on,0,0,0,,,,,,,,,15,,57,0
180210,note_on,0,0,0,,,,,,,,,0,,81,0
180210,note_on,0,0,0,,,,,,,,,3,,57,0
180210,note_on,0,0,0,,,,,,,,,5,,81,0
180210,note_on,0,0,0,,,,,,,,,3,,81,0
180240,note_on,30,0,0,,,,,,,,,0,,49,100
180240,note_on,0,0,0,,,,,,,,,3,,49,100
180240,note_on,0,0,0,,,,,,,,,6,,57,100
180240,note_on,0,0,0,,,,,,,,,7,,57,100
180240,note_on,0,0,0,,,,,,,,,8,,49,100
180240,note_on,0,0,0,,,,,,,,,10,,37,100
180240,note_on,0,0,0,,,,,,,,,14,,49,100
180240,note_on,0,0,0,,,,,,,,,15,,49,100
180300,note_on,60,0,0,,,,,,,,,0,,64,100
180300,note_on,0,0,0,,,,,,,,,3,,64,100
180300,note_on,0,0,0,,,,,,,,,5,,64,100
180300,note_on,0,0,0,,,,,,,,,13,,64,100
180330,note_on,30,0,0,,,,,,,,,13,,64,0
180330,note_on,0,0,0,,,,,,,,,3,,49,0
180330,note_on,0,0,0,,,,,,,,,15,,49,0
180330,note_on,0,0,0,,,,,,,,,6,,57,0
180330,note_on,0,0,0,,,,,,,,,7,,57,0
180330,note_on,0,0,0,,,,,,,,,0,,49,0
180330,note_on,0,0,0,,,,,,,,,8,,49,0
180330,note_on,0,0,0,,,,,,,,,10,,37,0
180330,note_on,0,0,0,,,,,,,,,0,,64,0
180330,note_on,0,0,0,,,,,,,,,14,,49,0
180330,note_on,0,0,0,,,,,,,,,5,,64,0
180330,note_on,0,0,0,,,,,,,,,3,,64,0
180360,note_on,30,0,0,,,,,,,,,0,,50,100
180360,note_on,0,0,0,,,,,,,,,0,,66,100
180360,note_on,0,0,0,,,,,,,,,3,,50,100
180360,note_on,0,0,0,,,,,,,,,3,,66,100
180360,note_on,0,0,0,,,,,,,,,5,,66,100
180360,note_on,0,0,0,,,,,,,,,6,,66,100
180360,note_on,0,0,0,,,,,,,,,7,,66,100
180360,note_on,0,0,0,,,,,,,,,8,,50,100
180360,note_on,0,0,0,,,,,,,,,10,,38,100
180360,note_on,0,0,0,,,,,,,,,13,,66,100
180360,note_on,0,0,0,,,,,,,,,14,,50,100
180360,note_on,0,0,0,,,,,,,,,15,,50,100
180390,note_on,30,0,0,,,,,,,,,13,,66,0
180390,note_on,0,0,0,,,,,,,,,5,,66,0
180390,note_on,0,0,0,,,,,,,,,3,,66,0
180390,note_on,0,0,0,,,,,,,,,0,,66,0
180420,note_on,30,0,0,,,,,,,,,0,,74,100
180420,note_on,0,0,0,,,,,,,,,3,,74,100
180420,note_on,0,0,0,,,,,,,,,5,,74,100
180420,note_on,0,0,0,,,,,,,,,13,,74,100
180450,note_on,30,0,0,,,,,,,,,13,,74,0
180450,note_on,0,0,0,,,,,,,,,7,,66,0
180450,note_on,0,0,0,,,,,,,,,8,,50,0
180450,note_on,0,0,0,,,,,,,,,14,,50,0
180450,note_on,0,0,0,,,,,,,,,10,,38,0
180450,note_on,0,0,0,,,,,,,,,0,,50,0
180450,note_on,0,0,0,,,,,,,,,6,,66,0
180450,note_on,0,0,0,,,,,,,,,15,,50,0
180450,note_on,0,0,0,,,,,,,,,0,,74,0
180450,note_on,0,0,0,,,,,,,,,3,,50,0
180450,note_on,0,0,0,,,,,,,,,5,,74,0
180450,note_on,0,0,0,,,,,,,,,3,,74,0
180480,note_on,30,0,0,,,,,,,,,0,,47,100
180480,note_on,0,0,0,,,,,,,,,3,,47,100
180480,note_on,0,0,0,,,,,,,,,6,,59,100
180480,note_on,0,0,0,,,,,,,,,7,,59,100
180480,note_on,0,0,0,,,,,,,,,8,,47,100
180480,note_on,0,0,0,,,,,,,,,10,,35,100
180480,note_on,0,0,0,,,,,,,,,14,,47,100
180480,note_on,0,0,0,,,,,,,,,15,,47,100
180540,note_on,60,0,0,,,,,,,,,0,,62,100
180540,note_on,0,0,0,,,,,,,,,3,,62,100
180540,note_on,0,0,0,,,,,,,,,5,,62,100
180540,note_on,0,0,0,,,,,,,,,13,,62,100
180570,note_on,30,0,0,,,,,,,,,13,,62,0
180570,note_on,0,0,0,,,,,,,,,3,,47,0
180570,note_on,0,0,0,,,,,,,,,15,,47,0
180570,note_on,0,0,0,,,,,,,,,6,,59,0
180570,note_on,0,0,0,,,,,,,,,7,,59,0
180570,note_on,0,0,0,,,,,,,,,0,,47,0
180570,note_on,0,0,0,,,,,,,,,8,,47,0
180570,note_on,0,0,0,,,,,,,,,10,,35,0
180570,note_on,0,0,0,,,,,,,,,0,,62,0
180570,note_on,0,0,0,,,,,,,,,14,,47,0
180570,note_on,0,0,0,,,,,,,,,5,,62,0
180570,note_on,0,0,0,,,,,,,,,3,,62,0
180600,set_tempo,30,1,0,,,,,,535762,,,,,,
180600,note_on,0,0,0,,,,,,,,,0,,56,100
180600,note_on,0,0,0,,,,,,,,,0,,64,100
180600,note_on,0,0,0,,,,,,,,,3,,56,100
180600,note_on,0,0,0,,,,,,,,,3,,64,100
180600,note_on,0,0,0,,,,,,,,,5,,64,100
180600,note_on,0,0,0,,,,,,,,,6,,59,100
180600,note_on,0,0,0,,,,,,,,,7,,59,100
180600,note_on,0,0,0,,,,,,,,,8,,52,100
180600,note_on,0,0,0,,,,,,,,,10,,40,100
180600,note_on,0,0,0,,,,,,,,,13,,64,100
180600,note_on,0,0,0,,,,,,,,,14,,52,100
180600,note_on,0,0,0,,,,,,,,,15,,52,100
180602,set_tempo,2,1,0,,,,,,540589,,,,,,
180603,set_tempo,1,1,0,,,,,,545504,,,,,,
180630,note_on,27,0,0,,,,,,,,,13,,64,0
180630,note_on,0,0,0,,,,,,,,,5,,64,0
180630,note_on,0,0,0,,,,,,,,,3,,64,0
180630,note_on,0,0,0,,,,,,,,,0,,64,0
180660,note_on,30,0,0,,,,,,,,,0,,83,100
180660,note_on,0,0,0,,,,,,,,,3,,83,100
180660,note_on,0,0,0,,,,,,,,,5,,83,100
180660,note_on,0,0,0,,,,,,,,,13,,83,100
180690,note_on,30,0,0,,,,,,,,,13,,83,0
180690,note_on,0,0,0,,,,,,,,,7,,59,0
180690,note_on,0,0,0,,,,,,,,,8,,52,0
180690,note_on,0,0,0,,,,,,,,,14,,52,0
180690,note_on,0,0,0,,,,,,,,,10,,40,0
180690,note_on,0,0,0,,,,,,,,,0,,56,0
180690,note_on,0,0,0,,,,,,,,,6,,59,0
180690,note_on,0,0,0,,,,,,,,,15,,52,0
180690,note_on,0,0,0,,,,,,,,,0,,83,0
180690,note_on,0,0,0,,,,,,,,,3,,56,0
180690,note_on,0,0,0,,,,,,,,,5,,83,0
180690,note_on,0,0,0,,,,,,,,,3,,83,0
180720,note_on,30,0,0,,,,,,,,,0,,52,100
180720,note_on,0,0,0,,,,,,,,,3,,52,100
180720,note_on,0,0,0,,,,,,,,,6,,68,100
180720,note_on,0,0,0,,,,,,,,,7,,68,100
180720,note_on,0,0,0,,,,,,,,,8,,56,100
180720,note_on,0,0,0,,,,,,,,,10,,44,100
180720,note_on,0,0,0,,,,,,,,,14,,56,100
180720,note_on,0,0,0,,,,,,,,,15,,56,100
180780,note_on,60,0,0,,,,,,,,,0,,74,100
180780,note_on,0,0,0,,,,,,,,,3,,74,100
180780,note_on,0,0,0,,,,,,,,,5,,74,100
180780,note_on,0,0,0,,,,,,,,,13,,74,100
180810,note_on,30,0,0,,,,,,,,,13,,74,0
180810,note_on,0,0,0,,,,,,,,,3,,52,0
180810,note_on,0,0,0,,,,,,,,,15,,56,0
180810,note_on,0,0,0,,,,,,,,,6,,68,0
180810,note_on,0,0,0,,,,,,,,,7,,68,0
180810,note_on,0,0,0,,,,,,,,,0,,52,0
180810,note_on,0,0,0,,,,,,,,,8,,56,0
180810,note_on,0,0,0,,,,,,,,,10,,44,0
180810,note_on,0,0,0,,,,,,,,,0,,74,0
180810,note_on,0,0,0,,,,,,,,,14,,56,0
180810,note_on,0,0,0,,,,,,,,,5,,74,0
180810,note_on,0,0,0,,,,,,,,,3,,74,0
180831,set_tempo,21,1,0,,,,,,535762,,,,,,
180833,set_tempo,2,1,0,,,,,,540589,,,,,,
180834,set_tempo,1,1,0,,,,,,550509,,,,,,
180836,set_tempo,2,1,0,,,,,,555607,,,,,,
180837,set_tempo,1,1,0,,,,,,571483,,,,,,
180840,note_on,3,0,0,,,,,,,,,0,,57,100
180840,note_on,0,0,0,,,,,,,,,0,,73,100
180840,note_on,0,0,0,,,,,,,,,3,,57,100
180840,note_on,0,0,0,,,,,,,,,3,,73,100
180840,note_on,0,0,0,,,,,,,,,5,,73,100
180840,note_on,0,0,0,,,,,,,,,6,,69,100
180840,note_on,0,0,0,,,,,,,,,7,,69,100
180840,note_on,0,0,0,,,,,,,,,8,,57,100
180840,note_on,0,0,0,,,,,,,,,10,,45,100
180840,note_on,0,0,0,,,,,,,,,13,,73,100
180840,note_on,0,0,0,,,,,,,,,14,,57,100
180840,note_on,0,0,0,,,,,,,,,15,,57,100
180846,set_tempo,6,1,0,,,,,,576979,,,,,,
180856,set_tempo,10,1,0,,,,,,582581,,,,,,
180863,set_tempo,7,1,0,,,,,,588293,,,,,,
180870,note_on,7,0,0,,,,,,,,,3,,57,0
180870,note_on,0,0,0,,,,,,,,,0,,57,0
180873,set_tempo,3,1,0,,,,,,594118,,,,,,
180880,note_on,7,0,0,,,,,,,,,6,,69,0
180880,note_on,0,0,0,,,,,,,,,7,,69,0
180882,set_tempo,2,1,0,,,,,,600060,,,,,,
180889,set_tempo,7,1,0,,,,,,606122,,,,,,
180890,note_on,1,0,0,,,,,,,,,14,,57,0
180890,note_on,0,0,0,,,,,,,,,8,,57,0
180890,note_on,0,0,0,,,,,,,,,10,,45,0
180890,note_on,0,0,0,,,,,,,,,15,,57,0
180899,set_tempo,9,1,0,,,,,,612307,,,,,,
180900,note_on,1,0,0,,,,,,,,,0,,50,100
180900,note_on,0,0,0,,,,,,,,,3,,50,100
180900,note_on,0,0,0,,,,,,,,,6,,66,100
180900,note_on,0,0,0,,,,,,,,,7,,66,100
180900,note_on,0,0,0,,,,,,,,,8,,50,100
180900,note_on,0,0,0,,,,,,,,,10,,38,100
180900,note_on,0,0,0,,,,,,,,,14,,50,100
180900,note_on,0,0,0,,,,,,,,,15,,50,100
180906,set_tempo,6,1,0,,,,,,618620,,,,,,
180916,set_tempo,10,1,0,,,,,,625065,,,,,,
180925,set_tempo,9,1,0,,,,,,631645,,,,,,
180930,note_on,5,0,0,,,,,,,,,3,,50,0
180930,note_on,0,0,0,,,,,,,,,0,,73,0
180930,note_on,0,0,0,,,,,,,,,5,,73,0
180930,note_on,0,0,0,,,,,,,,,13,,73,0
180930,note_on,0,0,0,,,,,,,,,0,,50,0
180930,note_on,0,0,0,,,,,,,,,3,,73,0
180930,note_on,0,0,0,,,,,,,,,0,,71,100
180930,note_on,0,0,0,,,,,,,,,3,,71,100
180930,note_on,0,0,0,,,,,,,,,5,,71,100
180930,note_on,0,0,0,,,,,,,,,13,,71,100
180933,set_tempo,3,1,0,,,,,,638366,,,,,,
180940,note_on,7,0,0,,,,,,,,,7,,66,0
180940,note_on,0,0,0,,,,,,,,,6,,66,0
180942,set_tempo,2,1,0,,,,,,645231,,,,,,
180945,note_on,3,0,0,,,,,,,,,13,,71,0
180945,note_on,0,0,0,,,,,,,,,3,,71,0
180945,note_on,0,0,0,,,,,,,,,5,,71,0
180945,note_on,0,0,0,,,,,,,,,0,,71,0
180949,set_tempo,4,1,0,,,,,,652245,,,,,,
180950,note_on,1,0,0,,,,,,,,,10,,38,0
180950,note_on,0,0,0,,,,,,,,,15,,50,0
180950,note_on,0,0,0,,,,,,,,,8,,50,0
180950,note_on,0,0,0,,,,,,,,,14,,50,0
180959,set_tempo,9,1,0,,,,,,659413,,,,,,
180960,note_on,1,0,0,,,,,,,,,0,,52,100
180960,note_on,0,0,0,,,,,,,,,0,,73,100
180960,note_on,0,0,0,,,,,,,,,3,,52,100
180960,note_on,0,0,0,,,,,,,,,3,,73,100
180960,note_on,0,0,0,,,,,,,,,5,,73,100
180960,note_on,0,0,0,,,,,,,,,6,,64,100
180960,note_on,0,0,0,,,,,,,,,7,,64,100
180960,note_on,0,0,0,,,,,,,,,8,,52,100
180960,note_on,0,0,0,,,,,,,,,10,,40,100
180960,note_on,0,0,0,,,,,,,,,13,,73,100
180960,note_on,0,0,0,,,,,,,,,14,,52,100
180960,note_on,0,0,0,,,,,,,,,15,,59,100
180960,note_on,0,0,0,,,,,,,,,15,,64,100
180960,note_on,0,0,0,,,,,,,,,15,,69,100
180960,note_on,0,0,0,,,,,,,,,15,,52,100
180968,set_tempo,8,1,0,,,,,,666741,,,,,,
180970,note_on,2,0,0,,,,,,,,,0,,71,100
180970,note_on,0,0,0,,,,,,,,,3,,71,100
180970,note_on,0,0,0,,,,,,,,,5,,71,100
180970,note_on,0,0,0,,,,,,,,,13,,71,100
180975,note_on,5,0,0,,,,,,,,,13,,73,0
180975,note_on,0,0,0,,,,,,,,,5,,73,0
180975,note_on,0,0,0,,,,,,,,,3,,73,0
180975,note_on,0,0,0,,,,,,,,,0,,73,0
180976,set_tempo,1,1,0,,,,,,674233,,,,,,
180980,note_on,4,0,0,,,,,,,,,0,,73,100
180980,note_on,0,0,0,,,,,,,,,3,,73,100
180980,note_on,0,0,0,,,,,,,,,5,,73,100
180980,note_on,0,0,0,,,,,,,,,13,,73,100
180985,set_tempo,5,1,0,,,,,,681896,,,,,,
180985,note_on,0,0,0,,,,,,,,,13,,71,0
180985,note_on,0,0,0,,,,,,,,,0,,71,0
180985,note_on,0,0,0,,,,,,,,,5,,71,0
180985,note_on,0,0,0,,,,,,,,,3,,71,0
180990,note_on,5,0,0,,,,,,,,,0,,71,100
180990,note_on,0,0,0,,,,,,,,,3,,71,100
180990,note_on,0,0,0,,,,,,,,,5,,71,100
180990,note_on,0,0,0,,,,,,,,,13,,71,100
180993,set_tempo,3,1,0,,,,,,689734,,,,,,
180995,note_on,2,0,0,,,,,,,,,0,,73,0
180995,note_on,0,0,0,,,,,,,,,5,,73,0
180995,note_on,0,0,0,,,,,,,,,3,,73,0
180995,note_on,0,0,0,,,,,,,,,13,,73,0
181000,note_on,5,0,0,,,,,,,,,7,,64,0
181000,note_on,0,0,0,,,,,,,,,6,,64,0
181000,note_on,0,0,0,,,,,,,,,0,,73,100
181000,note_on,0,0,0,,,,,,,,,3,,73,100
181000,note_on,0,0,0,,,,,,,,,5,,73,100
181000,note_on,0,0,0,,,,,,,,,13,,73,100
181002,set_tempo,2,1,0,,,,,,697756,,,,,,
181005,note_on,3,0,0,,,,,,,,,0,,71,0
181005,note_on,0,0,0,,,,,,,,,5,,71,0
181005,note_on,0,0,0,,,,,,,,,3,,71,0
181005,note_on,0,0,0,,,,,,,,,13,,71,0
181010,note_on,5,0,0,,,,,,,,,0,,52,0
181010,note_on,0,0,0,,,,,,,,,8,,52,0
181010,note_on,0,0,0,,,,,,,,,14,,52,0
181010,note_on,0,0,0,,,,,,,,,15,,52,0
181010,note_on,0,0,0,,,,,,,,,3,,52,0
181010,note_on,0,0,0,,,,,,,,,10,,40,0
181010,note_on,0,0,0,,,,,,,,,0,,71,100
181010,note_on,0,0,0,,,,,,,,,3,,71,100
181010,note_on,0,0,0,,,,,,,,,5,,71,100
181010,note_on,0,0,0,,,,,,,,,13,,71,100
181011,set_tempo,1,1,0,,,,,,705965,,,,,,
181015,note_on,4,0,0,,,,,,,,,13,,73,0
181015,note_on,0,0,0,,,,,,,,,5,,73,0
181015,note_on,0,0,0,,,,,,,,,3,,73,0
181015,note_on,0,0,0,,,,,,,,,0,,73,0
181019,set_tempo,4,1,0,,,,,,714371,,,,,,
181020,note_on,1,0,0,,,,,,,,,15,,69,0
181020,note_on,0,0,0,,,,,,,,,15,,64,0
181020,note_on,0,0,0,,,,,,,,,0,,40,100
181020,note_on,0,0,0,,,,,,,,,0,,73,100
181020,note_on,0,0,0,,,,,,,,,3,,40,100
181020,note_on,0,0,0,,,,,,,,,3,,73,100
181020,note_on,0,0,0,,,,,,,,,5,,73,100
181020,note_on,0,0,0,,,,,,,,,6,,62,100
181020,note_on,0,0,0,,,,,,,,,7,,62,100
181020,note_on,0,0,0,,,,,,,,,8,,40,100
181020,note_on,0,0,0,,,,,,,,,10,,28,100
181020,note_on,0,0,0,,,,,,,,,13,,73,100
181020,note_on,0,0,0,,,,,,,,,14,,40,100
181020,note_on,0,0,0,,,,,,,,,15,,62,100
181020,note_on,0,0,0,,,,,,,,,15,,68,100
181020,note_on,0,0,0,,,,,,,,,15,,40,100
181025,note_on,5,0,0,,,,,,,,,0,,71,0
181025,note_on,0,0,0,,,,,,,,,5,,71,0
181025,note_on,0,0,0,,,,,,,,,13,,71,0
181025,note_on,0,0,0,,,,,,,,,3,,71,0
181028,set_tempo,3,1,0,,,,,,722979,,,,,,
181030,note_on,2,0,0,,,,,,,,,0,,71,100
181030,note_on,0,0,0,,,,,,,,,3,,71,100
181030,note_on,0,0,0,,,,,,,,,5,,71,100
181030,note_on,0,0,0,,,,,,,,,13,,71,100
181035,note_on,5,0,0,,,,,,,,,3,,73,0
181035,note_on,0,0,0,,,,,,,,,5,,73,0
181035,note_on,0,0,0,,,,,,,,,13,,73,0
181035,note_on,0,0,0,,,,,,,,,0,,73,0
181036,set_tempo,1,1,0,,,,,,731797,,,,,,
181045,set_tempo,9,1,0,,,,,,740832,,,,,,
181050,note_on,5,0,0,,,,,,,,,3,,71,0
181050,note_on,0,0,0,,,,,,,,,13,,71,0
181050,note_on,0,0,0,,,,,,,,,0,,71,0
181050,note_on,0,0,0,,,,,,,,,5,,71,0
181050,note_on,0,0,0,,,,,,,,,0,,69,100
181050,note_on,0,0,0,,,,,,,,,3,,69,100
181050,note_on,0,0,0,,,,,,,,,5,,69,100
181050,note_on,0,0,0,,,,,,,,,13,,69,100
181054,set_tempo,4,1,0,,,,,,750094,,,,,,
181060,note_on,6,0,0,,,,,,,,,15,,62,0
181060,note_on,0,0,0,,,,,,,,,6,,62,0
181060,note_on,0,0,0,,,,,,,,,15,,59,0
181060,note_on,0,0,0,,,,,,,,,7,,62,0
181060,note_on,0,0,0,,,,,,,,,15,,68,0
181062,set_tempo,2,1,0,,,,,,759590,,,,,,
181070,note_on,8,0,0,,,,,,,,,3,,40,0
181070,note_on,0,0,0,,,,,,,,,15,,40,0
181070,note_on,0,0,0,,,,,,,,,14,,40,0
181070,note_on,0,0,0,,,,,,,,,10,,28,0
181070,note_on,0,0,0,,,,,,,,,3,,69,0
181070,note_on,0,0,0,,,,,,,,,5,,69,0
181070,note_on,0,0,0,,,,,,,,,0,,40,0
181070,note_on,0,0,0,,,,,,,,,8,,40,0
181070,note_on,0,0,0,,,,,,,,,0,,69,0
181070,note_on,0,0,0,,,,,,,,,13,,69,0
181071,set_tempo,1,1,0,,,,,,769329,,,,,,
181079,set_tempo,8,1,0,,,,,,779322,,,,,,
181080,note_on,1,0,0,,,,,,,,,0,,57,100
181080,note_on,0,0,0,,,,,,,,,0,,64,100
181080,note_on,0,0,0,,,,,,,,,0,,61,100
181080,note_on,0,0,0,,,,,,,,,0,,45,100
181080,note_on,0,0,0,,,,,,,,,0,,69,100
181080,note_on,0,0,0,,,,,,,,,3,,57,100
181080,note_on,0,0,0,,,,,,,,,3,,61,100
181080,note_on,0,0,0,,,,,,,,,3,,64,100
181080,note_on,0,0,0,,,,,,,,,3,,45,100
181080,note_on,0,0,0,,,,,,,,,3,,69,100
181080,note_on,0,0,0,,,,,,,,,5,,69,100
181080,note_on,0,0,0,,,,,,,,,6,,61,100
181080,note_on,0,0,0,,,,,,,,,7,,61,100
181080,note_on,0,0,0,,,,,,,,,8,,45,100
181080,note_on,0,0,0,,,,,,,,,10,,33,100
181080,note_on,0,0,0,,,,,,,,,13,,69,100
181080,note_on,0,0,0,,,,,,,,,14,,45,100
181080,note_on,0,0,0,,,,,,,,,15,,57,100
181080,note_on,0,0,0,,,,,,,,,15,,45,100
181100,note_on,20,0,0,,,,,,,,,15,,61,100
181120,note_on,20,0,0,,,,,,,,,15,,64,100
181150,note_on,30,0,0,,,,,,,,,15,,69,100
181320,note_on,170,0,0,,,,,,,,,15,,69,0
181320,note_on,0,0,0,,,,,,,,,3,,64,0
181320,note_on,0,0,0,,,,,,,,,3,,45,0
181320,note_on,0,0,0,,,,,,,,,0,,61,0
181320,note_on,0,0,0,,,,,,,,,10,,33,0
181320,note_on,0,0,0,,,,,,,,,0,,45,0
181320,note_on,0,0,0,,,,,,,,,3,,61,0
181320,note_on,0,0,0,,,,,,,,,0,,57,0
181320,note_on,0,0,0,,,,,,,,,6,,61,0
181320,note_on,0,0,0,,,,,,,,,0,,69,0
181320,note_on,0,0,0,,,,,,,,,3,,57,0
181320,note_on,0,0,0,,,,,,,,,0,,64,0
181320,note_on,0,0,0,,,,,,,,,15,,45,0
181320,note_on,0,0,0,,,,,,,,,15,,57,0
181320,note_on,0,0,0,,,,,,,,,13,,69,0
181320,note_on,0,0,0,,,,,,,,,3,,69,0
181320,note_on,0,0,0,,,,,,,,,7,,61,0
181320,note_on,0,0,0,,,,,,,,,5,,69,0
181320,note_on,0,0,0,,,,,,,,,15,,61,0
181320,note_on,0,0,0,,,,,,,,,14,,45,0
181320,note_on,0,0,0,,,,,,,,,8,,45,0
181320,note_on,0,0,0,,,,,,,,,15,,64,0
181320,end_of_track,0,1,0,,,,,,,,,,,,
