tick,type,time,meta,track,tempo,numerator,denominator,clocks_per_click,notated_32nd_notes_per_beat,key,port,channel,control,value,program,note,velocity
0,text,0,1,0,,,,,,,,,,,,,
0,control_change,0,0,7,,,,,,,,4,10,70,,,
0,control_change,0,0,7,,,,,,,,4,91,49,,,
0,program_change,0,0,7,,,,,,,,4,,,70,,
0,note_on,0,0,7,,,,,,,,4,,,,50,60
0,midi_port,0,1,5,,,,,,,0,,,,,,
0,channel_prefix,0,1,5,,,,,,,,3,,,,,
0,control_change,0,0,5,,,,,,,,3,7,111,,,
0,control_change,0,0,5,,,,,,,,3,10,48,,,
0,control_change,0,0,5,,,,,,,,3,91,47,,,
0,program_change,0,0,5,,,,,,,,3,,,71,,
0,note_on,0,0,5,,,,,,,,3,,,,74,60
0,midi_port,0,1,6,,,,,,,0,,,,,,
0,control_change,0,0,7,,,,,,,,4,7,109,,,
0,track_name,0,1,6,,,,,,,,,,,,,
0,note_on,0,0,1,,,,,,,,0,,,,74,60
0,program_change,0,0,1,,,,,,,,0,,,73,,
0,control_change,0,0,1,,,,,,,,0,91,53,,,
0,control_change,0,0,1,,,,,,,,0,10,50,,,
0,control_change,0,0,1,,,,,,,,0,7,107,,,
0,channel_prefix,0,1,1,,,,,,,,0,,,,,
0,midi_port,0,1,1,,,,,,,0,,,,,,
0,note_on,0,0,8,,,,,,,,5,,,,62,60
0,program_change,0,0,8,,,,,,,,5,,,60,,
0,control_change,0,0,8,,,,,,,,5,91,42,,,
0,channel_prefix,0,1,12,,,,,,,,13,,,,,
0,control_change,0,0,12,,,,,,,,13,7,120,,,
0,midi_port,0,1,12,,,,,,,0,,,,,,
0,control_change,0,0,12,,,,,,,,13,10,75,,,
0,channel_prefix,0,1,7,,,,,,,,4,,,,,
0,track_name,0,1,3,,,,,,,,,,,,,
0,note_on,0,0,6,,,,,,,,3,,,,66,60
0,program_change,0,0,6,,,,,,,,3,,,71,,
0,control_change,0,0,6,,,,,,,,3,91,47,,,
0,control_change,0,0,6,,,,,,,,3,10,48,,,
0,control_change,0,0,6,,,,,,,,3,7,111,,,
0,channel_prefix,0,1,6,,,,,,,,3,,,,,
0,program_change,0,0,9,,,,,,,,5,,,60,,
0,control_change,0,0,9,,,,,,,,5,91,42,,,
0,control_change,0,0,9,,,,,,,,5,10,35,,,
0,control_change,0,0,9,,,,,,,,5,7,107,,,
0,channel_prefix,0,1,9,,,,,,,,5,,,,,
0,midi_port,0,1,9,,,,,,,0,,,,,,
0,midi_port,0,1,7,,,,,,,0,,,,,,
0,midi_port,0,1,11,,,,,,,0,,,,,,
0,control_change,0,0,11,,,,,,,,12,7,120,,,
0,control_change,0,0,11,,,,,,,,12,10,15,,,
0,control_change,0,0,11,,,,,,,,12,91,127,,,
0,program_change,0,0,11,,,,,,,,12,,,48,,
0,note_on,0,0,11,,,,,,,,12,,,,66,60
0,note_on,0,0,3,,,,,,,,2,,,,74,60
0,program_change,0,0,3,,,,,,,,2,,,68,,
0,control_change,0,0,3,,,,,,,,2,91,44,,,
0,control_change,0,0,3,,,,,,,,2,10,80,,,
0,control_change,0,0,3,,,,,,,,2,7,109,,,
0,channel_prefix,0,1,3,,,,,,,,2,,,,,
0,midi_port,0,1,3,,,,,,,0,,,,,,
0,channel_prefix,0,1,11,,,,,,,,12,,,,,
0,control_change,0,0,12,,,,,,,,13,91,124,,,
0,track_name,0,1,1,,,,,,,,,,,,,
0,note_on,0,0,12,,,,,,,,13,,,,62,60
0,midi_port,0,1,10,,,,,,,0,,,,,,
0,program_change,0,0,12,,,,,,,,13,,,48,,
0,control_change,0,0,10,,,,,,,,11,7,127,,,
0,control_change,0,0,10,,,,,,,,11,10,45,,,
0,control_change,0,0,10,,,,,,,,11,91,127,,,
0,note_on,0,0,2,,,,,,,,1,,,,66,60
0,program_change,0,0,2,,,,,,,,1,,,73,,
0,control_change,0,0,2,,,,,,,,1,91,40,,,
0,control_change,0,0,2,,,,,,,,1,10,44,,,
0,control_change,0,0,2,,,,,,,,1,7,109,,,
0,channel_prefix,0,1,2,,,,,,,,1,,,,,
0,midi_port,0,1,2,,,,,,,0,,,,,,
0,midi_port,0,1,8,,,,,,,0,,,,,,
0,midi_port,0,1,14,,,,,,,0,,,,,,
0,control_change,0,0,14,,,,,,,,15,7,120,,,
0,control_change,0,0,14,,,,,,,,15,10,120,,,
0,control_change,0,0,14,,,,,,,,15,91,124,,,
0,program_change,0,0,14,,,,,,,,15,,,48,,
0,note_on,0,0,14,,,,,,,,15,,,,38,60
0,program_change,0,0,10,,,,,,,,11,,,48,,
0,note_on,0,0,10,,,,,,,,11,,,,74,60
0,key_signature,0,1,0,,,,,,D,,,,,,,
0,time_signature,0,1,0,,12,8,24,8,,,,,,,,
0,set_tempo,0,1,0,1111111,,,,,,,,,,,,
0,copyright,0,1,0,,,,,,,,,,,,,
0,track_name,0,1,0,,,,,,,,,,,,,
0,channel_prefix,0,1,14,,,,,,,,15,,,,,
0,channel_prefix,0,1,8,,,,,,,,5,,,,,
0,channel_prefix,0,1,10,,,,,,,,11,,,,,
0,control_change,0,0,8,,,,,,,,5,10,35,,,
0,midi_port,0,1,13,,,,,,,0,,,,,,
0,channel_prefix,0,1,13,,,,,,,,14,,,,,
0,control_change,0,0,8,,,,,,,,5,7,107,,,
0,channel_prefix,0,1,4,,,,,,,,2,,,,,
0,control_change,0,0,13,,,,,,,,14,7,120,,,
0,control_change,0,0,4,,,,,,,,2,7,109,,,
0,control_change,0,0,4,,,,,,,,2,10,80,,,
0,control_change,0,0,13,,,,,,,,14,10,100,,,
0,control_change,0,0,13,,,,,,,,14,91,122,,,
0,track_name,0,1,4,,,,,,,,,,,,,
0,midi_port,0,1,4,,,,,,,0,,,,,,
0,control_change,0,0,4,,,,,,,,2,91,44,,,
0,program_change,0,0,13,,,,,,,,14,,,48,,
0,note_on,0,0,13,,,,,,,,14,,,,50,60
0,program_change,0,0,4,,,,,,,,2,,,68,,
0,note_on,0,0,4,,,,,,,,2,,,,66,60
240,note_off,240,0,8,,,,,,,,5,,,,62,64
240,note_on,0,0,8,,,,,,,,5,,,,57,60
360,note_on,0,0,3,,,,,,,,2,,,,76,60
360,note_off,360,0,10,,,,,,,,11,,,,74,64
360,note_off,360,0,6,,,,,,,,3,,,,66,64
360,note_off,360,0,4,,,,,,,,2,,,,66,64
360,note_on,0,0,4,,,,,,,,2,,,,67,60
360,note_off,360,0,3,,,,,,,,2,,,,74,64
360,note_on,0,0,10,,,,,,,,11,,,,76,60
360,note_off,360,0,1,,,,,,,,0,,,,74,64
360,note_off,360,0,11,,,,,,,,12,,,,66,64
360,note_off,360,0,12,,,,,,,,13,,,,62,64
360,note_on,0,0,12,,,,,,,,13,,,,64,60
360,note_off,360,0,5,,,,,,,,3,,,,74,64
360,note_on,0,0,1,,,,,,,,0,,,,76,60
360,note_on,0,0,2,,,,,,,,1,,,,67,60
360,note_on,0,0,6,,,,,,,,3,,,,67,60
360,note_on,0,0,5,,,,,,,,3,,,,76,60
360,note_on,0,0,11,,,,,,,,12,,,,67,60
360,note_off,360,0,2,,,,,,,,1,,,,66,64
480,note_off,120,0,3,,,,,,,,2,,,,76,64
480,note_off,120,0,10,,,,,,,,11,,,,76,64
480,note_off,120,0,5,,,,,,,,3,,,,76,64
480,note_on,0,0,12,,,,,,,,13,,,,62,60
480,note_off,120,0,12,,,,,,,,13,,,,64,64
480,note_on,0,0,5,,,,,,,,3,,,,74,60
480,note_on,0,0,3,,,,,,,,2,,,,74,60
480,note_on,0,0,10,,,,,,,,11,,,,74,60
480,note_on,0,0,6,,,,,,,,3,,,,66,60
480,note_on,0,0,8,,,,,,,,5,,,,66,60
480,note_off,240,0,8,,,,,,,,5,,,,57,64
480,note_off,120,0,6,,,,,,,,3,,,,67,64
480,note_on,0,0,1,,,,,,,,0,,,,74,60
480,note_off,120,0,1,,,,,,,,0,,,,76,64
480,note_off,120,0,11,,,,,,,,12,,,,67,64
480,note_on,0,0,11,,,,,,,,12,,,,66,60
480,note_off,120,0,4,,,,,,,,2,,,,67,64
480,note_on,0,0,2,,,,,,,,1,,,,66,60
480,note_off,120,0,2,,,,,,,,1,,,,67,64
480,note_on,0,0,4,,,,,,,,2,,,,66,60
640,note_off,640,0,14,,,,,,,,15,,,,38,64
715,note_off,235,0,12,,,,,,,,13,,,,62,64
715,note_off,235,0,2,,,,,,,,1,,,,66,64
715,note_off,235,0,1,,,,,,,,0,,,,74,64
715,note_off,235,0,10,,,,,,,,11,,,,74,64
715,note_off,235,0,4,,,,,,,,2,,,,66,64
715,note_off,235,0,5,,,,,,,,3,,,,74,64
715,note_off,235,0,6,,,,,,,,3,,,,66,64
715,note_off,235,0,11,,,,,,,,12,,,,66,64
715,note_off,235,0,3,,,,,,,,2,,,,74,64
720,note_on,720,0,9,,,,,,,,5,,,,62,60
720,note_on,5,0,10,,,,,,,,11,,,,74,60
720,set_tempo,720,1,0,1200000,,,,,,,,,,,,
720,note_on,80,0,14,,,,,,,,15,,,,38,60
720,note_on,5,0,6,,,,,,,,3,,,,66,60
720,note_on,5,0,2,,,,,,,,1,,,,66,60
720,note_on,5,0,12,,,,,,,,13,,,,62,60
720,note_on,5,0,4,,,,,,,,2,,,,66,60
720,note_on,5,0,3,,,,,,,,2,,,,74,60
720,note_on,5,0,5,,,,,,,,3,,,,74,60
720,note_on,5,0,1,,,,,,,,0,,,,74,60
720,note_on,5,0,11,,,,,,,,12,,,,66,60
720,note_off,240,0,8,,,,,,,,5,,,,66,64
720,note_on,0,0,8,,,,,,,,5,,,,62,60
960,note_on,0,0,1,,,,,,,,0,,,,78,60
960,note_off,240,0,11,,,,,,,,12,,,,66,64
960,note_off,240,0,10,,,,,,,,11,,,,74,64
960,note_on,0,0,10,,,,,,,,11,,,,78,60
960,note_on,0,0,11,,,,,,,,12,,,,74,60
960,note_off,240,0,6,,,,,,,,3,,,,66,64
960,note_on,0,0,6,,,,,,,,3,,,,74,60
960,note_off,240,0,2,,,,,,,,1,,,,66,64
960,note_on,0,0,12,,,,,,,,13,,,,66,60
960,note_off,240,0,12,,,,,,,,13,,,,62,64
960,note_off,240,0,1,,,,,,,,0,,,,74,64
960,note_on,0,0,2,,,,,,,,1,,,,74,60
960,note_on,0,0,3,,,,,,,,2,,,,78,60
960,note_off,240,0,9,,,,,,,,5,,,,62,64
960,note_on,0,0,9,,,,,,,,5,,,,57,60
960,note_off,240,0,5,,,,,,,,3,,,,74,64
960,note_on,0,0,5,,,,,,,,3,,,,78,60
960,note_off,240,0,4,,,,,,,,2,,,,66,64
960,note_on,0,0,4,,,,,,,,2,,,,74,60
960,note_off,240,0,3,,,,,,,,2,,,,74,64
1120,note_off,1120,0,13,,,,,,,,14,,,,50,64
1120,note_off,1120,0,7,,,,,,,,4,,,,50,64
1200,note_off,240,0,9,,,,,,,,5,,,,57,64
1200,note_on,0,0,14,,,,,,,,15,,,,42,60
1200,note_off,480,0,14,,,,,,,,15,,,,38,64
1200,note_off,240,0,11,,,,,,,,12,,,,74,64
1200,note_on,0,0,2,,,,,,,,1,,,,78,60
1200,note_on,80,0,7,,,,,,,,4,,,,50,60
1200,note_on,0,0,12,,,,,,,,13,,,,69,60
1200,note_off,480,0,8,,,,,,,,5,,,,62,64
1200,note_on,0,0,8,,,,,,,,5,,,,57,60
1200,note_on,0,0,9,,,,,,,,5,,,,66,60
1200,note_on,0,0,6,,,,,,,,3,,,,78,60
1200,note_off,240,0,2,,,,,,,,1,,,,74,64
1200,note_on,0,0,11,,,,,,,,12,,,,78,60
1200,note_off,240,0,6,,,,,,,,3,,,,74,64
1200,note_off,240,0,12,,,,,,,,13,,,,66,64
1200,note_on,0,0,10,,,,,,,,11,,,,81,60
1200,note_off,240,0,3,,,,,,,,2,,,,78,64
1200,note_off,240,0,10,,,,,,,,11,,,,78,64
1200,note_off,240,0,5,,,,,,,,3,,,,78,64
1200,note_on,0,0,5,,,,,,,,3,,,,81,60
1200,note_on,80,0,13,,,,,,,,14,,,,50,60
1200,note_off,240,0,4,,,,,,,,2,,,,74,64
1200,note_on,0,0,4,,,,,,,,2,,,,78,60
1200,note_off,240,0,1,,,,,,,,0,,,,78,64
1200,note_on,0,0,3,,,,,,,,2,,,,81,60
1200,note_on,0,0,1,,,,,,,,0,,,,81,60
1435,note_off,235,0,7,,,,,,,,4,,,,50,64
1435,note_off,235,0,9,,,,,,,,5,,,,66,64
1435,note_off,235,0,14,,,,,,,,15,,,,42,64
1435,note_off,235,0,2,,,,,,,,1,,,,78,64
1435,note_off,235,0,4,,,,,,,,2,,,,78,64
1435,note_off,235,0,3,,,,,,,,2,,,,81,64
1435,note_off,235,0,5,,,,,,,,3,,,,81,64
1435,note_off,235,0,11,,,,,,,,12,,,,78,64
1435,note_off,235,0,6,,,,,,,,3,,,,78,64
1435,note_off,235,0,12,,,,,,,,13,,,,69,64
1435,note_off,235,0,13,,,,,,,,14,,,,50,64
1435,note_off,235,0,8,,,,,,,,5,,,,57,64
1435,note_off,235,0,10,,,,,,,,11,,,,81,64
1435,note_off,235,0,1,,,,,,,,0,,,,81,64
1440,note_on,5,0,5,,,,,,,,3,,,,78,60
1440,note_on,5,0,12,,,,,,,,13,,,,66,60
1440,note_on,5,0,8,,,,,,,,5,,,,66,60
1440,note_on,5,0,13,,,,,,,,14,,,,57,60
1440,note_on,5,0,2,,,,,,,,1,,,,74,60
1440,note_on,5,0,9,,,,,,,,5,,,,62,60
1440,note_on,5,0,7,,,,,,,,4,,,,57,60
1440,set_tempo,720,1,0,1276595,,,,,,,,,,,,
1440,note_on,5,0,14,,,,,,,,15,,,,45,60
1440,note_on,5,0,1,,,,,,,,0,,,,78,60
1440,note_on,5,0,4,,,,,,,,2,,,,74,60
1440,note_on,5,0,11,,,,,,,,12,,,,74,60
1440,note_on,5,0,10,,,,,,,,11,,,,78,60
1440,note_on,5,0,3,,,,,,,,2,,,,78,60
1440,note_on,5,0,6,,,,,,,,3,,,,74,60
2080,note_off,640,0,14,,,,,,,,15,,,,45,64
2160,note_on,0,0,9,,,,,,,,5,,,,57,60
2160,note_on,0,0,8,,,,,,,,5,,,,64,60
2160,note_on,0,0,1,,,,,,,,0,,,,76,60
2160,note_on,0,0,5,,,,,,,,3,,,,76,60
2160,note_on,0,0,6,,,,,,,,3,,,,73,60
2160,note_off,720,0,6,,,,,,,,3,,,,74,64
2160,note_off,720,0,5,,,,,,,,3,,,,78,64
2160,note_off,720,0,3,,,,,,,,2,,,,78,64
2160,note_off,720,0,1,,,,,,,,0,,,,78,64
2160,note_on,0,0,3,,,,,,,,2,,,,76,60
2160,note_on,0,0,2,,,,,,,,1,,,,73,60
2160,note_off,720,0,8,,,,,,,,5,,,,66,64
2160,note_on,0,0,4,,,,,,,,2,,,,73,60
2160,note_on,80,0,14,,,,,,,,15,,,,45,60
2160,note_on,0,0,11,,,,,,,,12,,,,73,60
2160,note_off,720,0,9,,,,,,,,5,,,,62,64
2160,set_tempo,720,1,0,1333333,,,,,,,,,,,,
2160,note_off,720,0,4,,,,,,,,2,,,,74,64
2160,note_off,720,0,11,,,,,,,,12,,,,74,64
2160,note_off,720,0,10,,,,,,,,11,,,,78,64
2160,note_on,0,0,10,,,,,,,,11,,,,76,60
2160,note_off,720,0,2,,,,,,,,1,,,,74,64
2160,note_off,720,0,12,,,,,,,,13,,,,66,64
2160,note_on,0,0,12,,,,,,,,13,,,,64,60
2395,note_off,955,0,13,,,,,,,,14,,,,57,64
2395,note_off,955,0,7,,,,,,,,4,,,,57,64
2400,note_on,5,0,7,,,,,,,,4,,,,52,60
2400,note_on,5,0,13,,,,,,,,14,,,,52,60
2640,note_on,0,0,14,,,,,,,,15,,,,37,60
2640,note_off,480,0,14,,,,,,,,15,,,,45,64
2640,note_on,0,0,7,,,,,,,,4,,,,49,60
2640,note_on,0,0,13,,,,,,,,14,,,,49,60
2640,note_off,240,0,13,,,,,,,,14,,,,52,64
2640,note_off,240,0,7,,,,,,,,4,,,,52,64
2800,note_off,640,0,6,,,,,,,,3,,,,73,64
2800,note_off,640,0,8,,,,,,,,5,,,,64,64
2800,note_off,640,0,10,,,,,,,,11,,,,76,64
2800,note_off,640,0,5,,,,,,,,3,,,,76,64
2800,note_off,640,0,1,,,,,,,,0,,,,76,64
2800,note_off,640,0,11,,,,,,,,12,,,,73,64
2800,note_off,640,0,9,,,,,,,,5,,,,57,64
2800,note_off,640,0,3,,,,,,,,2,,,,76,64
2800,note_off,640,0,4,,,,,,,,2,,,,73,64
2800,note_off,640,0,12,,,,,,,,13,,,,64,64
2800,note_off,640,0,2,,,,,,,,1,,,,73,64
2875,note_off,235,0,13,,,,,,,,14,,,,49,64
2875,note_off,235,0,7,,,,,,,,4,,,,49,64
2875,note_off,235,0,14,,,,,,,,15,,,,37,64
2880,note_on,80,0,9,,,,,,,,5,,,,64,60
2880,note_on,80,0,8,,,,,,,,5,,,,67,60
2880,note_on,80,0,4,,,,,,,,2,,,,73,60
2880,note_on,80,0,11,,,,,,,,12,,,,73,60
2880,note_on,5,0,7,,,,,,,,4,,,,45,60
2880,note_on,80,0,3,,,,,,,,2,,,,76,60
2880,note_on,5,0,13,,,,,,,,14,,,,45,60
2880,note_on,80,0,6,,,,,,,,3,,,,73,60
2880,note_on,80,0,12,,,,,,,,13,,,,64,60
2880,note_on,80,0,10,,,,,,,,11,,,,76,60
2880,note_on,80,0,2,,,,,,,,1,,,,73,60
2880,note_on,80,0,5,,,,,,,,3,,,,76,60
2880,set_tempo,720,1,0,1111111,,,,,,,,,,,,
2880,note_on,5,0,14,,,,,,,,15,,,,33,60
2880,note_on,80,0,1,,,,,,,,0,,,,76,60
3120,note_on,0,0,13,,,,,,,,14,,,,49,60
3120,note_off,240,0,7,,,,,,,,4,,,,45,64
3120,note_on,0,0,7,,,,,,,,4,,,,49,60
3120,note_off,240,0,13,,,,,,,,14,,,,45,64
3240,note_on,0,0,5,,,,,,,,3,,,,78,60
3240,note_off,360,0,4,,,,,,,,2,,,,73,64
3240,note_on,0,0,4,,,,,,,,2,,,,74,60
3240,note_off,360,0,5,,,,,,,,3,,,,76,64
3240,note_on,0,0,10,,,,,,,,11,,,,78,60
3240,note_off,360,0,10,,,,,,,,11,,,,76,64
3240,note_off,360,0,11,,,,,,,,12,,,,73,64
3240,note_on,0,0,11,,,,,,,,12,,,,74,60
3240,note_on,0,0,1,,,,,,,,0,,,,78,60
3240,note_off,360,0,1,,,,,,,,0,,,,76,64
3240,note_off,360,0,6,,,,,,,,3,,,,73,64
3240,note_off,360,0,12,,,,,,,,13,,,,64,64
3240,note_on,0,0,9,,,,,,,,5,,,,66,60
3240,note_off,360,0,9,,,,,,,,5,,,,64,64
3240,note_on,0,0,3,,,,,,,,2,,,,78,60
3240,note_off,360,0,3,,,,,,,,2,,,,76,64
3240,note_on,0,0,2,,,,,,,,1,,,,74,60
3240,note_off,360,0,2,,,,,,,,1,,,,73,64
3240,note_on,0,0,12,,,,,,,,13,,,,66,60
3240,note_off,360,0,8,,,,,,,,5,,,,67,64
3240,note_on,0,0,6,,,,,,,,3,,,,74,60
3240,note_on,0,0,8,,,,,,,,5,,,,69,60
3360,note_on,0,0,14,,,,,,,,15,,,,40,60
3360,note_off,480,0,14,,,,,,,,15,,,,33,64
3360,note_on,0,0,1,,,,,,,,0,,,,76,60
3360,note_on,0,0,6,,,,,,,,3,,,,73,60
3360,note_off,120,0,8,,,,,,,,5,,,,69,64
3360,note_on,0,0,8,,,,,,,,5,,,,67,60
3360,note_off,120,0,2,,,,,,,,1,,,,74,64
3360,note_on,0,0,2,,,,,,,,1,,,,73,60
3360,note_on,0,0,13,,,,,,,,14,,,,52,60
3360,note_on,0,0,7,,,,,,,,4,,,,52,60
3360,note_off,240,0,7,,,,,,,,4,,,,49,64
3360,note_off,240,0,13,,,,,,,,14,,,,49,64
3360,note_off,120,0,1,,,,,,,,0,,,,78,64
3360,note_off,120,0,6,,,,,,,,3,,,,74,64
3360,note_off,120,0,5,,,,,,,,3,,,,78,64
3360,note_on,0,0,12,,,,,,,,13,,,,64,60
3360,note_off,120,0,12,,,,,,,,13,,,,66,64
3360,note_off,120,0,3,,,,,,,,2,,,,78,64
3360,note_on,0,0,3,,,,,,,,2,,,,76,60
3360,note_off,120,0,10,,,,,,,,11,,,,78,64
3360,note_on,0,0,10,,,,,,,,11,,,,76,60
3360,note_off,120,0,4,,,,,,,,2,,,,74,64
3360,note_on,0,0,4,,,,,,,,2,,,,73,60
3360,note_off,120,0,11,,,,,,,,12,,,,74,64
3360,note_on,0,0,11,,,,,,,,12,,,,73,60
3360,note_on,0,0,5,,,,,,,,3,,,,76,60
3360,note_off,120,0,9,,,,,,,,5,,,,66,64
3360,note_on,0,0,9,,,,,,,,5,,,,64,60
3595,note_off,235,0,1,,,,,,,,0,,,,76,64
3595,note_off,235,0,10,,,,,,,,11,,,,76,64
3595,note_off,235,0,7,,,,,,,,4,,,,52,64
3595,note_off,235,0,4,,,,,,,,2,,,,73,64
3595,note_off,235,0,11,,,,,,,,12,,,,73,64
3595,note_off,235,0,12,,,,,,,,13,,,,64,64
3595,note_off,235,0,14,,,,,,,,15,,,,40,64
3595,note_off,235,0,5,,,,,,,,3,,,,76,64
3595,note_off,235,0,3,,,,,,,,2,,,,76,64
3595,note_off,235,0,13,,,,,,,,14,,,,52,64
3595,note_off,235,0,8,,,,,,,,5,,,,67,64
3595,note_off,235,0,6,,,,,,,,3,,,,73,64
3595,note_off,235,0,9,,,,,,,,5,,,,64,64
3595,note_off,235,0,2,,,,,,,,1,,,,73,64
3600,note_on,5,0,2,,,,,,,,1,,,,73,60
3600,note_on,5,0,8,,,,,,,,5,,,,67,60
3600,note_on,5,0,5,,,,,,,,3,,,,76,60
3600,note_on,5,0,3,,,,,,,,2,,,,76,60
3600,note_on,5,0,7,,,,,,,,4,,,,57,60
3600,note_on,5,0,14,,,,,,,,15,,,,45,60
3600,note_on,5,0,11,,,,,,,,12,,,,73,60
3600,note_on,5,0,9,,,,,,,,5,,,,64,60
3600,note_on,5,0,10,,,,,,,,11,,,,76,60
3600,note_on,5,0,13,,,,,,,,14,,,,57,60
3600,note_on,5,0,6,,,,,,,,3,,,,73,60
3600,note_on,5,0,12,,,,,,,,13,,,,64,60
3600,note_on,5,0,4,,,,,,,,2,,,,73,60
3600,note_on,5,0,1,,,,,,,,0,,,,76,60
3840,note_on,0,0,13,,,,,,,,14,,,,52,60
3840,note_off,240,0,13,,,,,,,,14,,,,57,64
3840,note_on,0,0,3,,,,,,,,2,,,,79,60
3840,note_off,240,0,3,,,,,,,,2,,,,76,64
3840,note_on,0,0,12,,,,,,,,13,,,,67,60
3840,note_off,240,0,12,,,,,,,,13,,,,64,64
3840,note_off,240,0,1,,,,,,,,0,,,,76,64
3840,note_on,0,0,1,,,,,,,,0,,,,79,60
3840,note_off,240,0,5,,,,,,,,3,,,,76,64
3840,note_on,0,0,5,,,,,,,,3,,,,79,60
3840,note_on,0,0,7,,,,,,,,4,,,,52,60
3840,note_off,240,0,7,,,,,,,,4,,,,57,64
3840,note_off,240,0,10,,,,,,,,11,,,,76,64
3840,note_on,0,0,10,,,,,,,,11,,,,79,60
4080,note_off,240,0,10,,,,,,,,11,,,,79,64
4080,note_off,240,0,5,,,,,,,,3,,,,79,64
4080,note_off,240,0,12,,,,,,,,13,,,,67,64
4080,note_on,0,0,12,,,,,,,,13,,,,71,60
4080,note_on,0,0,5,,,,,,,,3,,,,83,60
4080,note_on,0,0,2,,,,,,,,1,,,,74,60
4080,note_off,480,0,2,,,,,,,,1,,,,73,64
4080,note_off,240,0,13,,,,,,,,14,,,,52,64
4080,note_on,0,0,13,,,,,,,,14,,,,50,60
4080,note_on,0,0,10,,,,,,,,11,,,,83,60
4080,note_off,480,0,9,,,,,,,,5,,,,64,64
4080,note_on,0,0,11,,,,,,,,12,,,,74,60
4080,note_on,0,0,6,,,,,,,,3,,,,74,60
4080,note_off,480,0,4,,,,,,,,2,,,,73,64
4080,note_off,240,0,7,,,,,,,,4,,,,52,64
4080,note_off,480,0,6,,,,,,,,3,,,,73,64
4080,note_on,0,0,1,,,,,,,,0,,,,83,60
4080,note_off,480,0,14,,,,,,,,15,,,,45,64
4080,note_on,0,0,14,,,,,,,,15,,,,38,60
4080,note_on,0,0,7,,,,,,,,4,,,,50,60
4080,note_off,240,0,1,,,,,,,,0,,,,79,64
4080,note_on,0,0,8,,,,,,,,5,,,,71,60
4080,note_off,480,0,8,,,,,,,,5,,,,67,64
4080,note_off,480,0,11,,,,,,,,12,,,,73,64
4080,note_on,0,0,9,,,,,,,,5,,,,67,60
4080,note_on,0,0,3,,,,,,,,2,,,,83,60
4080,note_off,240,0,3,,,,,,,,2,,,,79,64
4080,note_on,0,0,4,,,,,,,,2,,,,74,60
4315,note_off,235,0,14,,,,,,,,15,,,,38,64
4315,note_off,235,0,4,,,,,,,,2,,,,74,64
4315,note_off,235,0,2,,,,,,,,1,,,,74,64
4315,note_off,235,0,1,,,,,,,,0,,,,83,64
4315,note_off,235,0,9,,,,,,,,5,,,,67,64
4315,note_off,235,0,12,,,,,,,,13,,,,71,64
4315,note_off,235,0,5,,,,,,,,3,,,,83,64
4315,note_off,235,0,7,,,,,,,,4,,,,50,64
4315,note_off,235,0,10,,,,,,,,11,,,,83,64
4315,note_off,235,0,11,,,,,,,,12,,,,74,64
4315,note_off,235,0,8,,,,,,,,5,,,,71,64
4315,note_off,235,0,3,,,,,,,,2,,,,83,64
4315,note_off,235,0,13,,,,,,,,14,,,,50,64
4315,note_off,235,0,6,,,,,,,,3,,,,74,64
4320,note_on,5,0,6,,,,,,,,3,,,,76,60
4320,note_on,5,0,12,,,,,,,,13,,,,67,60
4320,note_on,5,0,11,,,,,,,,12,,,,76,60
4320,note_on,5,0,13,,,,,,,,14,,,,49,60
4320,note_on,5,0,1,,,,,,,,0,,,,79,60
4320,note_on,5,0,4,,,,,,,,2,,,,76,60
4320,set_tempo,1440,1,0,1200000,,,,,,,,,,,,
4320,note_on,5,0,14,,,,,,,,15,,,,37,60
4320,note_on,5,0,2,,,,,,,,1,,,,76,60
4320,note_on,5,0,9,,,,,,,,5,,,,64,60
4320,note_on,5,0,3,,,,,,,,2,,,,79,60
4320,note_on,5,0,5,,,,,,,,3,,,,79,60
4320,note_on,5,0,7,,,,,,,,4,,,,49,60
4320,note_on,5,0,8,,,,,,,,5,,,,67,60
4320,note_on,5,0,10,,,,,,,,11,,,,79,60
4560,note_on,0,0,13,,,,,,,,14,,,,45,60
4560,note_off,240,0,13,,,,,,,,14,,,,49,64
4560,note_on,0,0,7,,,,,,,,4,,,,45,60
4560,note_on,0,0,14,,,,,,,,15,,,,33,60
4560,note_off,240,0,7,,,,,,,,4,,,,49,64
4560,note_off,240,0,14,,,,,,,,15,,,,37,64
4800,note_on,0,0,7,,,,,,,,4,,,,49,60
4800,note_on,0,0,14,,,,,,,,15,,,,37,60
4800,note_off,240,0,14,,,,,,,,15,,,,33,64
4800,note_off,240,0,13,,,,,,,,14,,,,45,64
4800,note_on,0,0,13,,,,,,,,14,,,,49,60
4800,note_off,240,0,7,,,,,,,,4,,,,45,64
5035,note_off,235,0,14,,,,,,,,15,,,,37,64
5035,note_off,235,0,7,,,,,,,,4,,,,49,64
5035,note_off,235,0,13,,,,,,,,14,,,,49,64
5040,note_off,720,0,5,,,,,,,,3,,,,79,64
5040,note_on,0,0,12,,,,,,,,13,,,,66,60
5040,note_on,0,0,5,,,,,,,,3,,,,78,60
5040,note_off,720,0,10,,,,,,,,11,,,,79,64
5040,note_on,5,0,13,,,,,,,,14,,,,50,60
5040,note_off,720,0,6,,,,,,,,3,,,,76,64
5040,note_on,0,0,6,,,,,,,,3,,,,74,60
5040,note_off,720,0,1,,,,,,,,0,,,,79,64
5040,note_on,0,0,1,,,,,,,,0,,,,78,60
5040,note_off,720,0,4,,,,,,,,2,,,,76,64
5040,note_on,0,0,4,,,,,,,,2,,,,74,60
5040,note_on,0,0,3,,,,,,,,2,,,,78,60
5040,note_off,720,0,3,,,,,,,,2,,,,79,64
5040,note_on,0,0,8,,,,,,,,5,,,,66,60
5040,note_off,720,0,8,,,,,,,,5,,,,67,64
5040,set_tempo,720,1,0,1250000,,,,,,,,,,,,
5040,note_off,720,0,9,,,,,,,,5,,,,64,64
5040,note_on,0,0,10,,,,,,,,11,,,,78,60
5040,note_off,720,0,11,,,,,,,,12,,,,76,64
5040,note_on,0,0,11,,,,,,,,12,,,,74,60
5040,note_on,5,0,7,,,,,,,,4,,,,50,60
5040,note_on,0,0,2,,,,,,,,1,,,,74,60
5040,note_off,720,0,2,,,,,,,,1,,,,76,64
5040,note_off,720,0,12,,,,,,,,13,,,,67,64
5040,note_on,0,0,9,,,,,,,,5,,,,62,60
5040,note_on,5,0,14,,,,,,,,15,,,,38,60
5280,note_off,240,0,7,,,,,,,,4,,,,50,64
5280,note_on,0,0,7,,,,,,,,4,,,,54,60
5280,note_off,240,0,13,,,,,,,,14,,,,50,64
5280,note_on,0,0,13,,,,,,,,14,,,,54,60
5520,note_on,0,0,7,,,,,,,,4,,,,57,60
5520,note_off,240,0,7,,,,,,,,4,,,,54,64
5520,note_on,0,0,14,,,,,,,,15,,,,45,60
5520,note_on,0,0,13,,,,,,,,14,,,,57,60
5520,note_off,240,0,13,,,,,,,,14,,,,54,64
5520,note_off,480,0,14,,,,,,,,15,,,,38,64
5680,note_off,640,0,9,,,,,,,,5,,,,62,64
5680,note_off,640,0,2,,,,,,,,1,,,,74,64
5680,note_off,640,0,10,,,,,,,,11,,,,78,64
5680,note_off,640,0,5,,,,,,,,3,,,,78,64
5680,note_off,640,0,11,,,,,,,,12,,,,74,64
5680,note_off,640,0,1,,,,,,,,0,,,,78,64
5680,note_off,640,0,3,,,,,,,,2,,,,78,64
5680,note_off,640,0,12,,,,,,,,13,,,,66,64
5680,note_off,640,0,4,,,,,,,,2,,,,74,64
5680,note_off,640,0,6,,,,,,,,3,,,,74,64
5680,note_off,640,0,8,,,,,,,,5,,,,66,64
5755,note_off,235,0,14,,,,,,,,15,,,,45,64
5755,note_off,235,0,7,,,,,,,,4,,,,57,64
5755,note_off,235,0,13,,,,,,,,14,,,,57,64
5760,note_on,80,0,6,,,,,,,,3,,,,78,60
5760,note_on,80,0,8,,,,,,,,5,,,,69,60
5760,note_on,80,0,5,,,,,,,,3,,,,81,60
5760,note_on,80,0,10,,,,,,,,11,,,,81,60
5760,note_on,80,0,2,,,,,,,,1,,,,78,60
5760,note_on,80,0,1,,,,,,,,0,,,,81,60
5760,note_on,80,0,4,,,,,,,,2,,,,78,60
5760,note_on,5,0,13,,,,,,,,14,,,,62,60
5760,note_on,5,0,7,,,,,,,,4,,,,62,60
5760,note_on,5,0,14,,,,,,,,15,,,,50,60
5760,note_on,80,0,11,,,,,,,,12,,,,78,60
5760,note_on,80,0,12,,,,,,,,13,,,,69,60
5760,note_on,80,0,3,,,,,,,,2,,,,81,60
5760,set_tempo,720,1,0,1111111,,,,,,,,,,,,
5760,note_on,80,0,9,,,,,,,,5,,,,66,60
6000,note_off,240,0,13,,,,,,,,14,,,,62,64
6000,note_off,240,0,7,,,,,,,,4,,,,62,64
6000,note_on,0,0,7,,,,,,,,4,,,,57,60
6000,note_on,0,0,13,,,,,,,,14,,,,57,60
6120,note_off,360,0,4,,,,,,,,2,,,,78,64
6120,note_on,0,0,4,,,,,,,,2,,,,79,60
6120,note_on,0,0,1,,,,,,,,0,,,,83,60
6120,note_off,360,0,9,,,,,,,,5,,,,66,64
6120,note_on,0,0,8,,,,,,,,5,,,,71,60
6120,note_off,360,0,11,,,,,,,,12,,,,78,64
6120,note_on,0,0,11,,,,,,,,12,,,,79,60
6120,note_off,360,0,3,,,,,,,,2,,,,81,64
6120,note_on,0,0,3,,,,,,,,2,,,,83,60
6120,note_off,360,0,1,,,,,,,,0,,,,81,64
6120,note_off,360,0,8,,,,,,,,5,,,,69,64
6120,note_off,360,0,12,,,,,,,,13,,,,69,64
6120,note_on,0,0,5,,,,,,,,3,,,,83,60
6120,note_on,0,0,9,,,,,,,,5,,,,67,60
6120,note_on,0,0,12,,,,,,,,13,,,,71,60
6120,note_off,360,0,6,,,,,,,,3,,,,78,64
6120,note_off,360,0,10,,,,,,,,11,,,,81,64
6120,note_on,0,0,6,,,,,,,,3,,,,79,60
6120,note_off,360,0,2,,,,,,,,1,,,,78,64
6120,note_on,0,0,2,,,,,,,,1,,,,79,60
6120,note_on,0,0,10,,,,,,,,11,,,,83,60
6120,note_off,360,0,5,,,,,,,,3,,,,81,64
6240,note_on,0,0,11,,,,,,,,12,,,,78,60
6240,note_off,480,0,14,,,,,,,,15,,,,50,64
6240,note_off,120,0,3,,,,,,,,2,,,,83,64
6240,note_off,120,0,2,,,,,,,,1,,,,79,64
6240,note_on,0,0,2,,,,,,,,1,,,,78,60
6240,note_on,0,0,10,,,,,,,,11,,,,81,60
6240,note_off,120,0,10,,,,,,,,11,,,,83,64
6240,note_off,120,0,1,,,,,,,,0,,,,83,64
6240,note_on,0,0,1,,,,,,,,0,,,,81,60
6240,note_off,120,0,4,,,,,,,,2,,,,79,64
6240,note_on,0,0,12,,,,,,,,13,,,,69,60
6240,note_off,120,0,12,,,,,,,,13,,,,71,64
6240,note_off,120,0,11,,,,,,,,12,,,,79,64
6240,note_on,0,0,4,,,,,,,,2,,,,78,60
6240,note_on,0,0,14,,,,,,,,15,,,,42,60
6240,note_on,0,0,3,,,,,,,,2,,,,81,60
6240,note_off,120,0,8,,,,,,,,5,,,,71,64
6240,note_on,0,0,13,,,,,,,,14,,,,54,60
6240,note_off,240,0,7,,,,,,,,4,,,,57,64
6240,note_on,0,0,8,,,,,,,,5,,,,69,60
6240,note_on,0,0,5,,,,,,,,3,,,,81,60
6240,note_off,120,0,9,,,,,,,,5,,,,67,64
6240,note_off,120,0,5,,,,,,,,3,,,,83,64
6240,note_on,0,0,9,,,,,,,,5,,,,66,60
6240,note_off,240,0,13,,,,,,,,14,,,,57,64
6240,note_off,120,0,6,,,,,,,,3,,,,79,64
6240,note_on,0,0,7,,,,,,,,4,,,,54,60
6240,note_on,0,0,6,,,,,,,,3,,,,78,60
6475,note_off,235,0,1,,,,,,,,0,,,,81,64
6475,note_off,235,0,7,,,,,,,,4,,,,54,64
6475,note_off,235,0,5,,,,,,,,3,,,,81,64
6475,note_off,235,0,12,,,,,,,,13,,,,69,64
6475,note_off,235,0,2,,,,,,,,1,,,,78,64
6475,note_off,235,0,8,,,,,,,,5,,,,69,64
6475,note_off,235,0,9,,,,,,,,5,,,,66,64
6475,note_off,235,0,13,,,,,,,,14,,,,54,64
6475,note_off,235,0,6,,,,,,,,3,,,,78,64
6475,note_off,235,0,14,,,,,,,,15,,,,42,64
6475,note_off,235,0,11,,,,,,,,12,,,,78,64
6475,note_off,235,0,3,,,,,,,,2,,,,81,64
6475,note_off,235,0,4,,,,,,,,2,,,,78,64
6475,note_off,235,0,10,,,,,,,,11,,,,81,64
6480,note_on,5,0,4,,,,,,,,2,,,,78,60
6480,note_on,5,0,2,,,,,,,,1,,,,78,60
6480,note_on,5,0,14,,,,,,,,15,,,,38,60
6480,note_on,5,0,5,,,,,,,,3,,,,81,60
6480,note_on,5,0,12,,,,,,,,13,,,,69,60
6480,note_on,5,0,13,,,,,,,,14,,,,50,60
6480,note_on,5,0,9,,,,,,,,5,,,,66,60
6480,note_on,5,0,11,,,,,,,,12,,,,78,60
6480,note_on,5,0,10,,,,,,,,11,,,,81,60
6480,note_on,5,0,7,,,,,,,,4,,,,50,60
6480,set_tempo,720,1,0,1200000,,,,,,,,,,,,
6480,note_on,5,0,6,,,,,,,,3,,,,78,60
6480,note_on,5,0,8,,,,,,,,5,,,,69,60
6480,note_on,5,0,1,,,,,,,,0,,,,81,60
6480,note_on,5,0,3,,,,,,,,2,,,,81,60
6720,note_off,240,0,2,,,,,,,,1,,,,78,64
6720,note_off,240,0,6,,,,,,,,3,,,,78,64
6720,note_on,0,0,8,,,,,,,,5,,,,62,60
6720,note_on,0,0,6,,,,,,,,3,,,,81,60
6720,note_on,0,0,5,,,,,,,,3,,,,86,60
6720,note_off,240,0,5,,,,,,,,3,,,,81,64
6720,note_on,0,0,12,,,,,,,,13,,,,74,60
6720,note_off,240,0,8,,,,,,,,5,,,,69,64
6720,note_on,0,0,3,,,,,,,,2,,,,86,60
6720,note_off,240,0,3,,,,,,,,2,,,,81,64
6720,note_off,240,0,4,,,,,,,,2,,,,78,64
6720,note_on,0,0,4,,,,,,,,2,,,,81,60
6720,note_off,240,0,7,,,,,,,,4,,,,50,64
6720,note_off,240,0,9,,,,,,,,5,,,,66,64
6720,note_on,0,0,9,,,,,,,,5,,,,69,60
6720,note_off,240,0,11,,,,,,,,12,,,,78,64
6720,note_on,0,0,2,,,,,,,,1,,,,81,60
6720,note_on,0,0,11,,,,,,,,12,,,,81,60
6720,note_off,240,0,12,,,,,,,,13,,,,69,64
6720,note_off,240,0,1,,,,,,,,0,,,,81,64
6720,note_on,0,0,1,,,,,,,,0,,,,86,60
6720,note_off,240,0,10,,,,,,,,11,,,,81,64
6720,note_on,0,0,10,,,,,,,,11,,,,86,60
6720,note_off,240,0,13,,,,,,,,14,,,,50,64
6720,note_on,0,0,7,,,,,,,,4,,,,54,60
6720,note_on,0,0,13,,,,,,,,14,,,,54,60
6960,note_off,240,0,9,,,,,,,,5,,,,69,64
6960,note_off,240,0,10,,,,,,,,11,,,,86,64
6960,note_on,0,0,10,,,,,,,,11,,,,81,60
6960,note_off,240,0,7,,,,,,,,4,,,,54,64
6960,note_on,0,0,2,,,,,,,,1,,,,78,60
6960,note_on,0,0,7,,,,,,,,4,,,,57,60
6960,note_off,240,0,5,,,,,,,,3,,,,86,64
6960,note_on,0,0,5,,,,,,,,3,,,,81,60
6960,note_on,0,0,13,,,,,,,,14,,,,57,60
6960,note_off,240,0,13,,,,,,,,14,,,,54,64
6960,note_off,240,0,2,,,,,,,,1,,,,81,64
6960,note_off,240,0,6,,,,,,,,3,,,,81,64
6960,note_on,0,0,9,,,,,,,,5,,,,66,60
6960,note_on,0,0,4,,,,,,,,2,,,,78,60
6960,note_off,240,0,1,,,,,,,,0,,,,86,64
6960,note_on,0,0,1,,,,,,,,0,,,,81,60
6960,note_off,240,0,4,,,,,,,,2,,,,81,64
6960,note_on,0,0,12,,,,,,,,13,,,,69,60
6960,note_off,240,0,12,,,,,,,,13,,,,74,64
6960,note_on,0,0,8,,,,,,,,5,,,,69,60
6960,note_off,480,0,14,,,,,,,,15,,,,38,64
6960,note_on,0,0,6,,,,,,,,3,,,,78,60
6960,note_on,0,0,11,,,,,,,,12,,,,78,60
6960,note_off,240,0,11,,,,,,,,12,,,,81,64
6960,note_on,0,0,3,,,,,,,,2,,,,81,60
6960,note_off,240,0,3,,,,,,,,2,,,,86,64
6960,note_off,240,0,8,,,,,,,,5,,,,62,64
6960,note_on,0,0,14,,,,,,,,15,,,,45,60
7195,note_off,235,0,14,,,,,,,,15,,,,45,64
7195,note_off,235,0,4,,,,,,,,2,,,,78,64
7195,note_off,235,0,7,,,,,,,,4,,,,57,64
7195,note_off,235,0,10,,,,,,,,11,,,,81,64
7195,note_off,235,0,5,,,,,,,,3,,,,81,64
7195,note_off,235,0,1,,,,,,,,0,,,,81,64
7195,note_off,235,0,6,,,,,,,,3,,,,78,64
7195,note_off,235,0,8,,,,,,,,5,,,,69,64
7195,note_off,235,0,3,,,,,,,,2,,,,81,64
7195,note_off,235,0,11,,,,,,,,12,,,,78,64
7195,note_off,235,0,12,,,,,,,,13,,,,69,64
7195,note_off,235,0,9,,,,,,,,5,,,,66,64
7195,note_off,235,0,13,,,,,,,,14,,,,57,64
7195,note_off,235,0,2,,,,,,,,1,,,,78,64
7200,note_on,5,0,9,,,,,,,,5,,,,62,60
7200,note_on,5,0,8,,,,,,,,5,,,,66,60
7200,note_on,5,0,11,,,,,,,,12,,,,74,60
7200,note_on,5,0,10,,,,,,,,11,,,,78,60
7200,note_on,5,0,4,,,,,,,,2,,,,74,60
7200,note_on,5,0,6,,,,,,,,3,,,,74,60
7200,note_on,5,0,14,,,,,,,,15,,,,50,60
7200,note_on,5,0,7,,,,,,,,4,,,,62,60
7200,note_on,5,0,3,,,,,,,,2,,,,78,60
7200,note_on,5,0,13,,,,,,,,14,,,,62,60
7200,note_on,5,0,5,,,,,,,,3,,,,78,60
7200,set_tempo,720,1,0,1111111,,,,,,,,,,,,
7200,note_on,5,0,12,,,,,,,,13,,,,66,60
7200,note_on,5,0,1,,,,,,,,0,,,,78,60
7200,note_on,5,0,2,,,,,,,,1,,,,74,60
7440,note_off,240,0,7,,,,,,,,4,,,,62,64
7440,note_on,0,0,7,,,,,,,,4,,,,57,60
7440,note_on,0,0,13,,,,,,,,14,,,,57,60
7440,note_off,240,0,13,,,,,,,,14,,,,62,64
7560,note_off,360,0,8,,,,,,,,5,,,,66,64
7560,note_on,0,0,3,,,,,,,,2,,,,79,60
7560,note_off,360,0,3,,,,,,,,2,,,,78,64
7560,note_on,0,0,4,,,,,,,,2,,,,76,60
7560,note_off,360,0,4,,,,,,,,2,,,,74,64
7560,note_on,0,0,8,,,,,,,,5,,,,67,60
7560,note_off,360,0,5,,,,,,,,3,,,,78,64
7560,note_on,0,0,6,,,,,,,,3,,,,76,60
7560,note_off,360,0,6,,,,,,,,3,,,,74,64
7560,note_off,360,0,12,,,,,,,,13,,,,66,64
7560,note_on,0,0,12,,,,,,,,13,,,,67,60
7560,note_on,0,0,9,,,,,,,,5,,,,64,60
7560,note_off,360,0,9,,,,,,,,5,,,,62,64
7560,note_on,0,0,5,,,,,,,,3,,,,79,60
7560,note_on,0,0,11,,,,,,,,12,,,,76,60
7560,note_off,360,0,11,,,,,,,,12,,,,74,64
7560,note_off,360,0,2,,,,,,,,1,,,,74,64
7560,note_on,0,0,1,,,,,,,,0,,,,79,60
7560,note_off,360,0,1,,,,,,,,0,,,,78,64
7560,note_on,0,0,10,,,,,,,,11,,,,79,60
7560,note_off,360,0,10,,,,,,,,11,,,,78,64
7560,note_on,0,0,2,,,,,,,,1,,,,76,60
7680,note_on,0,0,11,,,,,,,,12,,,,74,60
7680,note_on,0,0,12,,,,,,,,13,,,,66,60
7680,note_off,480,0,14,,,,,,,,15,,,,50,64
7680,note_on,0,0,14,,,,,,,,15,,,,42,60
7680,note_on,0,0,3,,,,,,,,2,,,,78,60
7680,note_on,0,0,2,,,,,,,,1,,,,74,60
7680,note_on,0,0,10,,,,,,,,11,,,,78,60
7680,note_on,0,0,1,,,,,,,,0,,,,78,60
7680,note_off,240,0,7,,,,,,,,4,,,,57,64
7680,note_on,0,0,7,,,,,,,,4,,,,54,60
7680,note_off,120,0,3,,,,,,,,2,,,,79,64
7680,note_off,120,0,12,,,,,,,,13,,,,67,64
7680,note_off,120,0,2,,,,,,,,1,,,,76,64
7680,note_on,0,0,5,,,,,,,,3,,,,78,60
7680,note_off,120,0,5,,,,,,,,3,,,,79,64
7680,note_on,0,0,13,,,,,,,,14,,,,54,60
7680,note_off,240,0,13,,,,,,,,14,,,,57,64
7680,note_off,120,0,8,,,,,,,,5,,,,67,64
7680,note_on,0,0,4,,,,,,,,2,,,,74,60
7680,note_off,120,0,4,,,,,,,,2,,,,76,64
7680,note_off,120,0,6,,,,,,,,3,,,,76,64
7680,note_on,0,0,6,,,,,,,,3,,,,74,60
7680,note_on,0,0,8,,,,,,,,5,,,,66,60
7680,note_off,120,0,1,,,,,,,,0,,,,79,64
7680,note_off,120,0,9,,,,,,,,5,,,,64,64
7680,note_on,0,0,9,,,,,,,,5,,,,62,60
7680,note_off,120,0,10,,,,,,,,11,,,,79,64
7680,note_off,120,0,11,,,,,,,,12,,,,76,64
7915,note_off,235,0,1,,,,,,,,0,,,,78,64
7915,note_off,235,0,3,,,,,,,,2,,,,78,64
7915,note_off,235,0,14,,,,,,,,15,,,,42,64
7915,note_off,235,0,11,,,,,,,,12,,,,74,64
7915,note_off,235,0,10,,,,,,,,11,,,,78,64
7915,note_off,235,0,7,,,,,,,,4,,,,54,64
7915,note_off,235,0,2,,,,,,,,1,,,,74,64
7915,note_off,235,0,8,,,,,,,,5,,,,66,64
7915,note_off,235,0,12,,,,,,,,13,,,,66,64
7915,note_off,235,0,5,,,,,,,,3,,,,78,64
7915,note_off,235,0,13,,,,,,,,14,,,,54,64
7915,note_off,235,0,4,,,,,,,,2,,,,74,64
7915,note_off,235,0,6,,,,,,,,3,,,,74,64
7915,note_off,235,0,9,,,,,,,,5,,,,62,64
7920,note_on,5,0,13,,,,,,,,14,,,,50,60
7920,note_on,5,0,1,,,,,,,,0,,,,78,60
7920,note_on,5,0,7,,,,,,,,4,,,,50,60
7920,note_on,5,0,10,,,,,,,,11,,,,78,60
7920,note_on,5,0,9,,,,,,,,5,,,,62,60
7920,note_on,5,0,3,,,,,,,,2,,,,78,60
7920,set_tempo,720,1,0,1250000,,,,,,,,,,,,
7920,note_on,5,0,11,,,,,,,,12,,,,74,60
7920,note_on,5,0,2,,,,,,,,1,,,,74,60
7920,note_on,5,0,14,,,,,,,,15,,,,38,60
7920,note_on,5,0,12,,,,,,,,13,,,,66,60
7920,note_on,5,0,8,,,,,,,,5,,,,66,60
7920,note_on,5,0,5,,,,,,,,3,,,,78,60
7920,note_on,5,0,6,,,,,,,,3,,,,74,60
7920,note_on,5,0,4,,,,,,,,2,,,,74,60
8160,note_on,0,0,6,,,,,,,,3,,,,78,60
8160,note_off,240,0,6,,,,,,,,3,,,,74,64
8160,note_on,0,0,1,,,,,,,,0,,,,81,60
8160,note_off,240,0,5,,,,,,,,3,,,,78,64
8160,note_off,240,0,2,,,,,,,,1,,,,74,64
8160,note_off,240,0,1,,,,,,,,0,,,,78,64
8160,note_on,0,0,5,,,,,,,,3,,,,81,60
8160,note_on,0,0,2,,,,,,,,1,,,,78,60
8160,note_on,0,0,3,,,,,,,,2,,,,81,60
8160,note_on,0,0,9,,,,,,,,5,,,,66,60
8160,note_off,240,0,12,,,,,,,,13,,,,66,64
8160,note_on,0,0,11,,,,,,,,12,,,,78,60
8160,note_off,240,0,11,,,,,,,,12,,,,74,64
8160,note_off,240,0,8,,,,,,,,5,,,,66,64
8160,note_on,0,0,4,,,,,,,,2,,,,78,60
8160,note_off,240,0,4,,,,,,,,2,,,,74,64
8160,note_off,240,0,9,,,,,,,,5,,,,62,64
8160,note_on,0,0,8,,,,,,,,5,,,,69,60
8160,note_on,0,0,10,,,,,,,,11,,,,81,60
8160,note_off,240,0,10,,,,,,,,11,,,,78,64
8160,note_off,240,0,3,,,,,,,,2,,,,78,64
8160,note_on,0,0,12,,,,,,,,13,,,,69,60
8400,note_on,0,0,12,,,,,,,,13,,,,66,60
8400,note_off,240,0,12,,,,,,,,13,,,,69,64
8400,note_off,240,0,10,,,,,,,,11,,,,81,64
8400,note_off,240,0,6,,,,,,,,3,,,,78,64
8400,note_on,0,0,6,,,,,,,,3,,,,74,60
8400,note_off,240,0,5,,,,,,,,3,,,,81,64
8400,note_off,240,0,4,,,,,,,,2,,,,78,64
8400,note_on,0,0,4,,,,,,,,2,,,,74,60
8400,note_on,0,0,10,,,,,,,,11,,,,78,60
8400,note_on,0,0,5,,,,,,,,3,,,,78,60
8400,note_off,240,0,2,,,,,,,,1,,,,78,64
8400,note_off,240,0,3,,,,,,,,2,,,,81,64
8400,note_off,240,0,9,,,,,,,,5,,,,66,64
8400,note_on,0,0,9,,,,,,,,5,,,,62,60
8400,note_on,0,0,3,,,,,,,,2,,,,78,60
8400,note_on,0,0,2,,,,,,,,1,,,,74,60
8400,note_on,0,0,8,,,,,,,,5,,,,66,60
8400,note_on,0,0,1,,,,,,,,0,,,,78,60
8400,note_off,240,0,1,,,,,,,,0,,,,81,64
8400,note_off,240,0,11,,,,,,,,12,,,,78,64
8400,note_on,0,0,11,,,,,,,,12,,,,74,60
8400,note_off,240,0,8,,,,,,,,5,,,,69,64
8560,note_off,640,0,7,,,,,,,,4,,,,50,64
8560,note_off,640,0,13,,,,,,,,14,,,,50,64
8560,note_off,640,0,14,,,,,,,,15,,,,38,64
8635,note_off,235,0,2,,,,,,,,1,,,,74,64
8635,note_off,235,0,12,,,,,,,,13,,,,66,64
8635,note_off,235,0,3,,,,,,,,2,,,,78,64
8635,note_off,235,0,9,,,,,,,,5,,,,62,64
8635,note_off,235,0,6,,,,,,,,3,,,,74,64
8635,note_off,235,0,11,,,,,,,,12,,,,74,64
8635,note_off,235,0,1,,,,,,,,0,,,,78,64
8635,note_off,235,0,5,,,,,,,,3,,,,78,64
8635,note_off,235,0,10,,,,,,,,11,,,,78,64
8635,note_off,235,0,8,,,,,,,,5,,,,66,64
8635,note_off,235,0,4,,,,,,,,2,,,,74,64
8640,note_on,5,0,2,,,,,,,,1,,,,71,60
8640,note_on,5,0,3,,,,,,,,2,,,,74,60
8640,note_on,5,0,11,,,,,,,,12,,,,71,60
8640,note_on,5,0,8,,,,,,,,5,,,,62,60
8640,note_on,5,0,6,,,,,,,,3,,,,71,60
8640,note_on,5,0,5,,,,,,,,3,,,,74,60
8640,note_on,80,0,13,,,,,,,,14,,,,55,60
8640,note_on,5,0,1,,,,,,,,0,,,,74,60
8640,note_on,5,0,10,,,,,,,,11,,,,74,60
8640,note_on,80,0,7,,,,,,,,4,,,,55,60
8640,note_on,5,0,9,,,,,,,,5,,,,59,60
8640,note_on,80,0,14,,,,,,,,15,,,,43,60
8640,note_on,5,0,4,,,,,,,,2,,,,71,60
8640,note_on,5,0,12,,,,,,,,13,,,,62,60
8640,set_tempo,720,1,0,1200000,,,,,,,,,,,,
8880,note_on,0,0,9,,,,,,,,5,,,,57,60
8880,note_off,240,0,9,,,,,,,,5,,,,59,64
8880,note_off,240,0,4,,,,,,,,2,,,,71,64
8880,note_on,0,0,4,,,,,,,,2,,,,73,60
8880,note_on,0,0,2,,,,,,,,1,,,,73,60
8880,note_on,0,0,5,,,,,,,,3,,,,76,60
8880,note_on,0,0,11,,,,,,,,12,,,,73,60
8880,note_on,0,0,1,,,,,,,,0,,,,76,60
8880,note_off,240,0,1,,,,,,,,0,,,,74,64
8880,note_off,240,0,2,,,,,,,,1,,,,71,64
8880,note_off,240,0,6,,,,,,,,3,,,,71,64
8880,note_off,240,0,3,,,,,,,,2,,,,74,64
8880,note_on,0,0,12,,,,,,,,13,,,,64,60
8880,note_off,240,0,12,,,,,,,,13,,,,62,64
8880,note_off,240,0,5,,,,,,,,3,,,,74,64
8880,note_off,240,0,11,,,,,,,,12,,,,71,64
8880,note_off,240,0,10,,,,,,,,11,,,,74,64
8880,note_on,0,0,10,,,,,,,,11,,,,76,60
8880,note_on,0,0,3,,,,,,,,2,,,,76,60
8880,note_on,0,0,6,,,,,,,,3,,,,73,60
8880,note_off,240,0,8,,,,,,,,5,,,,62,64
8880,note_on,0,0,8,,,,,,,,5,,,,64,60
9120,note_on,0,0,12,,,,,,,,13,,,,66,60
9120,note_off,240,0,12,,,,,,,,13,,,,64,64
9120,note_on,0,0,11,,,,,,,,12,,,,74,60
9120,note_off,240,0,11,,,,,,,,12,,,,73,64
9120,note_on,0,0,4,,,,,,,,2,,,,74,60
9120,note_off,240,0,8,,,,,,,,5,,,,64,64
9120,note_off,240,0,1,,,,,,,,0,,,,76,64
9120,note_on,0,0,1,,,,,,,,0,,,,78,60
9120,note_off,480,0,14,,,,,,,,15,,,,43,64
9120,note_on,0,0,13,,,,,,,,14,,,,54,61
9120,note_off,480,0,13,,,,,,,,14,,,,55,64
9120,note_off,240,0,9,,,,,,,,5,,,,57,64
9120,note_on,0,0,9,,,,,,,,5,,,,62,60
9120,note_on,0,0,8,,,,,,,,5,,,,66,60
9120,note_on,0,0,14,,,,,,,,15,,,,42,61
9120,note_off,240,0,5,,,,,,,,3,,,,76,64
9120,note_off,240,0,4,,,,,,,,2,,,,73,64
9120,note_off,480,0,7,,,,,,,,4,,,,55,64
9120,note_on,0,0,6,,,,,,,,3,,,,74,60
9120,note_off,240,0,6,,,,,,,,3,,,,73,64
9120,note_off,240,0,3,,,,,,,,2,,,,76,64
9120,note_on,0,0,7,,,,,,,,4,,,,54,61
9120,note_on,0,0,3,,,,,,,,2,,,,78,60
9120,note_on,0,0,5,,,,,,,,3,,,,78,60
9120,note_on,0,0,10,,,,,,,,11,,,,78,60
9120,note_off,240,0,10,,,,,,,,11,,,,76,64
9120,note_on,0,0,2,,,,,,,,1,,,,74,60
9120,note_off,240,0,2,,,,,,,,1,,,,73,64
9355,note_off,235,0,8,,,,,,,,5,,,,66,64
9355,note_off,235,0,2,,,,,,,,1,,,,74,64
9355,note_off,235,0,6,,,,,,,,3,,,,74,64
9355,note_off,235,0,9,,,,,,,,5,,,,62,64
9355,note_off,235,0,13,,,,,,,,14,,,,54,64
9355,note_off,235,0,3,,,,,,,,2,,,,78,64
9355,note_off,235,0,1,,,,,,,,0,,,,78,64
9355,note_off,235,0,14,,,,,,,,15,,,,42,64
9355,note_off,235,0,11,,,,,,,,12,,,,74,64
9355,note_off,235,0,7,,,,,,,,4,,,,54,64
9355,note_off,235,0,10,,,,,,,,11,,,,78,64
9355,note_off,235,0,12,,,,,,,,13,,,,66,64
9355,note_off,235,0,5,,,,,,,,3,,,,78,64
9355,note_off,235,0,4,,,,,,,,2,,,,74,64
9360,note_on,5,0,2,,,,,,,,1,,,,73,60
9360,note_on,5,0,3,,,,,,,,2,,,,79,60
9360,note_on,5,0,8,,,,,,,,5,,,,67,60
9360,note_on,5,0,12,,,,,,,,13,,,,67,60
9360,note_on,5,0,11,,,,,,,,12,,,,73,60
9360,note_on,5,0,10,,,,,,,,11,,,,79,60
9360,note_on,5,0,1,,,,,,,,0,,,,79,60
9360,note_on,5,0,9,,,,,,,,5,,,,64,60
9360,note_on,5,0,5,,,,,,,,3,,,,79,60
9360,note_on,5,0,13,,,,,,,,14,,,,52,61
9360,note_on,5,0,14,,,,,,,,15,,,,40,61
9360,note_on,5,0,4,,,,,,,,2,,,,73,60
9360,note_on,5,0,7,,,,,,,,4,,,,52,61
9360,note_on,5,0,6,,,,,,,,3,,,,73,60
9720,note_off,360,0,5,,,,,,,,3,,,,79,64
9720,note_on,0,0,5,,,,,,,,3,,,,81,61
9720,note_on,0,0,1,,,,,,,,0,,,,81,61
9720,note_off,360,0,1,,,,,,,,0,,,,79,64
9720,note_off,360,0,12,,,,,,,,13,,,,67,64
9720,note_on,0,0,12,,,,,,,,13,,,,69,61
9720,note_on,0,0,3,,,,,,,,2,,,,81,61
9720,note_off,360,0,3,,,,,,,,2,,,,79,64
9720,note_on,0,0,8,,,,,,,,5,,,,69,61
9720,note_on,0,0,10,,,,,,,,11,,,,81,61
9720,note_off,360,0,9,,,,,,,,5,,,,64,64
9720,note_off,360,0,10,,,,,,,,11,,,,79,64
9720,note_on,0,0,9,,,,,,,,5,,,,66,61
9720,note_off,360,0,8,,,,,,,,5,,,,67,64
9840,note_on,0,0,11,,,,,,,,12,,,,74,61
9840,note_off,120,0,3,,,,,,,,2,,,,81,64
9840,note_on,0,0,6,,,,,,,,3,,,,74,61
9840,note_off,120,0,1,,,,,,,,0,,,,81,64
9840,note_off,120,0,8,,,,,,,,5,,,,69,64
9840,note_on,0,0,8,,,,,,,,5,,,,66,61
9840,note_on,0,0,12,,,,,,,,13,,,,66,61
9840,note_on,0,0,5,,,,,,,,3,,,,78,61
9840,note_off,120,0,5,,,,,,,,3,,,,81,64
9840,note_off,120,0,12,,,,,,,,13,,,,69,64
9840,note_off,120,0,10,,,,,,,,11,,,,81,64
9840,note_off,480,0,4,,,,,,,,2,,,,73,64
9840,note_on,0,0,4,,,,,,,,2,,,,74,61
9840,note_off,480,0,11,,,,,,,,12,,,,73,64
9840,note_on,0,0,7,,,,,,,,4,,,,50,62
9840,note_off,480,0,14,,,,,,,,15,,,,40,64
9840,note_on,0,0,3,,,,,,,,2,,,,78,61
9840,note_on,0,0,2,,,,,,,,1,,,,74,61
9840,note_off,480,0,2,,,,,,,,1,,,,73,64
9840,note_on,0,0,9,,,,,,,,5,,,,62,61
9840,note_off,120,0,9,,,,,,,,5,,,,66,64
9840,note_on,0,0,14,,,,,,,,15,,,,38,62
9840,note_on,0,0,10,,,,,,,,11,,,,78,61
9840,note_off,480,0,13,,,,,,,,14,,,,52,64
9840,note_on,0,0,13,,,,,,,,14,,,,50,62
9840,note_off,480,0,7,,,,,,,,4,,,,52,64
9840,note_off,480,0,6,,,,,,,,3,,,,73,64
9840,note_on,0,0,1,,,,,,,,0,,,,78,61
10075,note_off,235,0,3,,,,,,,,2,,,,78,64
10075,note_off,235,0,10,,,,,,,,11,,,,78,64
10075,note_off,235,0,7,,,,,,,,4,,,,50,64
10075,note_off,235,0,4,,,,,,,,2,,,,74,64
10075,note_off,235,0,11,,,,,,,,12,,,,74,64
10075,note_off,235,0,9,,,,,,,,5,,,,62,64
10075,note_off,235,0,13,,,,,,,,14,,,,50,64
10075,note_off,235,0,12,,,,,,,,13,,,,66,64
10075,note_off,235,0,1,,,,,,,,0,,,,78,64
10075,note_off,235,0,6,,,,,,,,3,,,,74,64
10075,note_off,235,0,5,,,,,,,,3,,,,78,64
10075,note_off,235,0,8,,,,,,,,5,,,,66,64
10075,note_off,235,0,2,,,,,,,,1,,,,74,64
10075,note_off,235,0,14,,,,,,,,15,,,,38,64
10080,note_on,5,0,1,,,,,,,,0,,,,76,61
10080,note_on,5,0,13,,,,,,,,14,,,,45,62
10080,note_on,5,0,5,,,,,,,,3,,,,76,61
10080,note_on,5,0,3,,,,,,,,2,,,,76,61
10080,note_on,5,0,6,,,,,,,,3,,,,73,61
10080,note_on,5,0,10,,,,,,,,11,,,,76,61
10080,note_on,5,0,7,,,,,,,,4,,,,45,62
10080,note_on,5,0,12,,,,,,,,13,,,,64,61
10080,note_on,5,0,14,,,,,,,,15,,,,33,62
10080,note_on,5,0,9,,,,,,,,5,,,,57,61
10080,note_on,5,0,4,,,,,,,,2,,,,73,61
10080,note_on,5,0,8,,,,,,,,5,,,,64,61
10080,note_on,5,0,2,,,,,,,,1,,,,73,61
10080,note_on,5,0,11,,,,,,,,12,,,,73,61
10320,note_on,0,0,12,,,,,,,,13,,,,66,61
10320,note_off,240,0,1,,,,,,,,0,,,,76,64
10320,note_off,240,0,12,,,,,,,,13,,,,64,64
10320,note_off,240,0,6,,,,,,,,3,,,,73,64
10320,note_off,240,0,5,,,,,,,,3,,,,76,64
10320,note_on,0,0,6,,,,,,,,3,,,,74,61
10320,note_off,240,0,4,,,,,,,,2,,,,73,64
10320,note_on,0,0,4,,,,,,,,2,,,,74,61
10320,note_on,0,0,10,,,,,,,,11,,,,78,61
10320,set_tempo,1680,1,0,1363636,,,,,,,,,,,,
10320,note_on,0,0,5,,,,,,,,3,,,,78,61
10320,note_off,240,0,8,,,,,,,,5,,,,64,64
10320,note_on,0,0,8,,,,,,,,5,,,,66,61
10320,note_on,0,0,1,,,,,,,,0,,,,78,61
10320,note_off,240,0,10,,,,,,,,11,,,,76,64
10320,note_on,0,0,3,,,,,,,,2,,,,78,61
10320,note_on,0,0,11,,,,,,,,12,,,,74,61
10320,note_off,240,0,11,,,,,,,,12,,,,73,64
10320,note_off,240,0,3,,,,,,,,2,,,,76,64
10320,note_on,0,0,2,,,,,,,,1,,,,74,61
10320,note_off,240,0,2,,,,,,,,1,,,,73,64
10560,set_tempo,240,1,0,1428571,,,,,,,,,,,,
10560,note_off,240,0,11,,,,,,,,12,,,,74,64
10560,note_off,240,0,2,,,,,,,,1,,,,74,64
10560,note_off,240,0,1,,,,,,,,0,,,,78,64
10560,note_on,0,0,1,,,,,,,,0,,,,74,62
10560,note_off,240,0,4,,,,,,,,2,,,,74,64
10560,note_on,0,0,4,,,,,,,,2,,,,71,62
10560,note_on,0,0,10,,,,,,,,11,,,,74,62
10560,note_on,0,0,2,,,,,,,,1,,,,71,62
10560,note_on,0,0,3,,,,,,,,2,,,,74,62
10560,note_off,240,0,3,,,,,,,,2,,,,78,64
10560,note_on,0,0,11,,,,,,,,12,,,,71,62
10560,note_off,240,0,10,,,,,,,,11,,,,78,64
10560,note_on,0,0,8,,,,,,,,5,,,,62,61
10560,note_on,0,0,6,,,,,,,,3,,,,71,62
10560,note_off,240,0,8,,,,,,,,5,,,,66,64
10560,note_off,240,0,6,,,,,,,,3,,,,74,64
10560,note_on,0,0,5,,,,,,,,3,,,,74,62
10560,note_off,240,0,5,,,,,,,,3,,,,78,64
10560,note_off,240,0,12,,,,,,,,13,,,,66,64
10560,note_on,0,0,12,,,,,,,,13,,,,62,62
10795,note_off,235,0,8,,,,,,,,5,,,,62,64
10795,note_off,235,0,6,,,,,,,,3,,,,71,64
10795,note_off,235,0,4,,,,,,,,2,,,,71,64
10795,note_off,235,0,2,,,,,,,,1,,,,71,64
10795,note_off,235,0,5,,,,,,,,3,,,,74,64
10795,note_off,235,0,12,,,,,,,,13,,,,62,64
10795,note_off,235,0,11,,,,,,,,12,,,,71,64
10795,note_off,235,0,10,,,,,,,,11,,,,74,64
10795,note_off,235,0,1,,,,,,,,0,,,,74,64
10795,note_off,235,0,3,,,,,,,,2,,,,74,64
10800,note_on,5,0,8,,,,,,,,5,,,,69,61
10800,note_on,5,0,12,,,,,,,,13,,,,69,63
10800,note_on,5,0,2,,,,,,,,1,,,,73,63
10800,note_on,5,0,1,,,,,,,,0,,,,81,63
10800,note_on,5,0,5,,,,,,,,3,,,,81,63
10800,note_on,5,0,4,,,,,,,,2,,,,73,63
10800,note_on,5,0,3,,,,,,,,2,,,,81,63
10800,note_on,5,0,6,,,,,,,,3,,,,73,63
10800,set_tempo,240,1,0,1200000,,,,,,,,,,,,
10800,note_on,5,0,11,,,,,,,,12,,,,73,63
10800,note_on,5,0,10,,,,,,,,11,,,,81,63
11035,note_off,955,0,9,,,,,,,,5,,,,57,64
11035,note_off,235,0,11,,,,,,,,12,,,,73,64
11035,note_off,235,0,2,,,,,,,,1,,,,73,64
11035,note_off,235,0,4,,,,,,,,2,,,,73,64
11035,note_off,235,0,6,,,,,,,,3,,,,73,64
11040,note_on,5,0,11,,,,,,,,12,,,,76,64
11040,note_on,5,0,9,,,,,,,,5,,,,64,64
11040,note_on,5,0,6,,,,,,,,3,,,,76,64
11040,note_on,5,0,2,,,,,,,,1,,,,76,64
11040,note_on,5,0,4,,,,,,,,2,,,,76,64
11200,note_off,1120,0,7,,,,,,,,4,,,,45,64
11200,note_off,1120,0,13,,,,,,,,14,,,,45,64
11200,note_off,1120,0,14,,,,,,,,15,,,,33,64
11275,note_off,235,0,4,,,,,,,,2,,,,76,64
11275,note_off,235,0,2,,,,,,,,1,,,,76,64
11275,note_off,235,0,6,,,,,,,,3,,,,76,64
11275,note_off,235,0,11,,,,,,,,12,,,,76,64
11280,note_on,80,0,14,,,,,,,,15,,,,49,65
11280,note_on,5,0,11,,,,,,,,12,,,,79,65
11280,note_on,80,0,13,,,,,,,,14,,,,61,65
11280,note_on,5,0,6,,,,,,,,3,,,,79,65
11280,note_off,240,0,9,,,,,,,,5,,,,64,64
11280,note_on,80,0,7,,,,,,,,4,,,,61,65
11280,note_on,5,0,4,,,,,,,,2,,,,79,65
11280,note_on,5,0,2,,,,,,,,1,,,,79,65
11280,note_on,0,0,9,,,,,,,,5,,,,67,65
11515,note_off,235,0,6,,,,,,,,3,,,,79,64
11515,note_off,235,0,4,,,,,,,,2,,,,79,64
11515,note_off,235,0,2,,,,,,,,1,,,,79,64
11515,note_off,235,0,11,,,,,,,,12,,,,79,64
11520,note_on,0,0,14,,,,,,,,15,,,,50,66
11520,note_off,240,0,14,,,,,,,,15,,,,49,64
11520,note_on,5,0,6,,,,,,,,3,,,,78,66
11520,note_off,240,0,7,,,,,,,,4,,,,61,64
11520,set_tempo,720,1,0,1111111,,,,,,,,,,,,
11520,note_on,5,0,2,,,,,,,,1,,,,78,66
11520,note_off,240,0,13,,,,,,,,14,,,,61,64
11520,note_on,0,0,13,,,,,,,,14,,,,62,66
11520,note_on,0,0,7,,,,,,,,4,,,,62,66
11520,note_on,0,0,9,,,,,,,,5,,,,66,66
11520,note_off,240,0,9,,,,,,,,5,,,,67,64
11520,note_on,5,0,4,,,,,,,,2,,,,78,66
11520,note_on,5,0,11,,,,,,,,12,,,,78,66
11755,note_off,235,0,11,,,,,,,,12,,,,78,64
11755,note_off,235,0,2,,,,,,,,1,,,,78,64
11755,note_off,235,0,13,,,,,,,,14,,,,62,64
11755,note_off,235,0,9,,,,,,,,5,,,,66,64
11755,note_off,235,0,4,,,,,,,,2,,,,78,64
11755,note_off,235,0,6,,,,,,,,3,,,,78,64
11755,note_off,235,0,7,,,,,,,,4,,,,62,64
11760,note_on,5,0,7,,,,,,,,4,,,,64,67
11760,note_on,5,0,13,,,,,,,,14,,,,64,67
11760,note_on,5,0,6,,,,,,,,3,,,,79,67
11760,note_on,5,0,11,,,,,,,,12,,,,79,67
11760,note_on,5,0,9,,,,,,,,5,,,,67,67
11760,note_on,5,0,4,,,,,,,,2,,,,79,67
11760,note_on,5,0,2,,,,,,,,1,,,,79,67
11880,note_on,0,0,13,,,,,,,,14,,,,62,67
11880,note_off,120,0,13,,,,,,,,14,,,,64,64
11880,note_off,120,0,2,,,,,,,,1,,,,79,64
11880,note_off,120,0,7,,,,,,,,4,,,,64,64
11880,note_on,0,0,11,,,,,,,,12,,,,78,67
11880,note_off,120,0,11,,,,,,,,12,,,,79,64
11880,note_on,0,0,2,,,,,,,,1,,,,78,67
11880,note_off,120,0,4,,,,,,,,2,,,,79,64
11880,note_on,0,0,4,,,,,,,,2,,,,78,67
11880,note_on,0,0,6,,,,,,,,3,,,,78,67
11880,note_off,120,0,6,,,,,,,,3,,,,79,64
11880,note_off,120,0,9,,,,,,,,5,,,,67,64
11880,note_on,0,0,9,,,,,,,,5,,,,66,67
11880,note_on,0,0,7,,,,,,,,4,,,,62,67
11920,note_off,400,0,14,,,,,,,,15,,,,50,64
12000,note_off,120,0,4,,,,,,,,2,,,,78,64
12000,note_on,0,0,4,,,,,,,,2,,,,79,67
12000,note_off,120,0,13,,,,,,,,14,,,,62,64
12000,note_on,0,0,13,,,,,,,,14,,,,64,67
12000,note_off,120,0,2,,,,,,,,1,,,,78,64
12000,note_off,120,0,9,,,,,,,,5,,,,66,64
12000,note_on,0,0,7,,,,,,,,4,,,,64,67
12000,note_on,80,0,14,,,,,,,,15,,,,38,68
12000,note_on,0,0,2,,,,,,,,1,,,,79,67
12000,note_off,120,0,11,,,,,,,,12,,,,78,64
12000,note_on,0,0,11,,,,,,,,12,,,,79,67
12000,note_off,120,0,6,,,,,,,,3,,,,78,64
12000,note_on,0,0,6,,,,,,,,3,,,,79,67
12000,note_on,0,0,9,,,,,,,,5,,,,67,67
12000,note_off,120,0,7,,,,,,,,4,,,,62,64
12120,note_on,0,0,2,,,,,,,,1,,,,78,67
12120,note_off,120,0,6,,,,,,,,3,,,,79,64
12120,note_on,0,0,6,,,,,,,,3,,,,78,67
12120,note_on,0,0,7,,,,,,,,4,,,,62,67
12120,note_on,0,0,9,,,,,,,,5,,,,66,67
12120,note_on,0,0,11,,,,,,,,12,,,,78,67
12120,note_on,0,0,4,,,,,,,,2,,,,78,67
12120,note_off,120,0,4,,,,,,,,2,,,,79,64
12120,note_off,120,0,13,,,,,,,,14,,,,64,64
12120,note_on,0,0,13,,,,,,,,14,,,,62,67
12120,note_off,120,0,11,,,,,,,,12,,,,79,64
12120,note_off,120,0,2,,,,,,,,1,,,,79,64
12120,note_off,120,0,7,,,,,,,,4,,,,64,64
12120,note_off,120,0,9,,,,,,,,5,,,,67,64
12235,note_off,235,0,14,,,,,,,,15,,,,38,64
12240,note_on,5,0,14,,,,,,,,15,,,,49,69
12240,note_on,0,0,4,,,,,,,,2,,,,76,67
12240,note_on,0,0,11,,,,,,,,12,,,,76,67
12240,note_off,120,0,11,,,,,,,,12,,,,78,64
12240,note_off,120,0,2,,,,,,,,1,,,,78,64
12240,note_on,0,0,2,,,,,,,,1,,,,76,67
12240,note_off,120,0,4,,,,,,,,2,,,,78,64
12240,note_off,120,0,7,,,,,,,,4,,,,62,64
12240,note_on,0,0,7,,,,,,,,4,,,,61,67
12240,note_on,0,0,6,,,,,,,,3,,,,76,67
12240,set_tempo,720,1,0,1153846,,,,,,,,,,,,
12240,note_on,0,0,9,,,,,,,,5,,,,64,67
12240,note_off,120,0,6,,,,,,,,3,,,,78,64
12240,note_off,120,0,9,,,,,,,,5,,,,66,64
12240,note_on,0,0,13,,,,,,,,14,,,,61,67
12240,note_off,120,0,13,,,,,,,,14,,,,62,64
12475,note_off,235,0,13,,,,,,,,14,,,,61,64
12475,note_off,235,0,11,,,,,,,,12,,,,76,64
12475,note_off,235,0,7,,,,,,,,4,,,,61,64
12475,note_off,235,0,2,,,,,,,,1,,,,76,64
12475,note_off,235,0,9,,,,,,,,5,,,,64,64
12475,note_off,235,0,4,,,,,,,,2,,,,76,64
12475,note_off,235,0,6,,,,,,,,3,,,,76,64
12480,note_on,5,0,11,,,,,,,,12,,,,78,68
12480,note_on,5,0,4,,,,,,,,2,,,,78,68
12480,note_on,5,0,6,,,,,,,,3,,,,78,68
12480,note_on,5,0,9,,,,,,,,5,,,,66,68
12480,note_on,5,0,2,,,,,,,,1,,,,78,68
12480,note_on,5,0,7,,,,,,,,4,,,,62,68
12480,note_on,5,0,13,,,,,,,,14,,,,62,68
12600,note_off,120,0,13,,,,,,,,14,,,,62,64
12600,note_on,0,0,13,,,,,,,,14,,,,61,68
12600,note_on,0,0,6,,,,,,,,3,,,,76,68
12600,note_off,120,0,6,,,,,,,,3,,,,78,64
12600,note_on,0,0,11,,,,,,,,12,,,,76,68
12600,note_on,0,0,2,,,,,,,,1,,,,76,68
12600,note_on,0,0,9,,,,,,,,5,,,,64,68
12600,note_on,0,0,7,,,,,,,,4,,,,61,68
12600,note_off,120,0,7,,,,,,,,4,,,,62,64
12600,note_off,120,0,4,,,,,,,,2,,,,78,64
12600,note_on,0,0,4,,,,,,,,2,,,,76,68
12600,note_off,120,0,9,,,,,,,,5,,,,66,64
12600,note_off,120,0,2,,,,,,,,1,,,,78,64
12600,note_off,120,0,11,,,,,,,,12,,,,78,64
12640,note_off,400,0,14,,,,,,,,15,,,,49,64
12720,note_off,120,0,6,,,,,,,,3,,,,76,64
12720,note_on,0,0,2,,,,,,,,1,,,,78,68
12720,note_on,0,0,9,,,,,,,,5,,,,66,68
12720,note_on,0,0,6,,,,,,,,3,,,,78,68
12720,note_off,120,0,9,,,,,,,,5,,,,64,64
12720,note_on,0,0,13,,,,,,,,14,,,,62,68
12720,note_off,120,0,4,,,,,,,,2,,,,76,64
12720,note_on,80,0,14,,,,,,,,15,,,,37,71
12720,note_off,120,0,2,,,,,,,,1,,,,76,64
12720,note_off,120,0,11,,,,,,,,12,,,,76,64
12720,note_off,120,0,7,,,,,,,,4,,,,61,64
12720,note_on,0,0,7,,,,,,,,4,,,,62,68
12720,note_on,0,0,4,,,,,,,,2,,,,78,68
12720,note_off,120,0,13,,,,,,,,14,,,,61,64
12720,note_on,0,0,11,,,,,,,,12,,,,78,68
12840,note_off,120,0,7,,,,,,,,4,,,,62,64
12840,note_on,0,0,13,,,,,,,,14,,,,61,68
12840,note_off,120,0,6,,,,,,,,3,,,,78,64
12840,note_off,120,0,4,,,,,,,,2,,,,78,64
12840,note_on,0,0,4,,,,,,,,2,,,,76,68
12840,note_off,2040,0,10,,,,,,,,11,,,,81,64
12840,note_on,0,0,6,,,,,,,,3,,,,76,68
12840,note_off,120,0,9,,,,,,,,5,,,,66,64
12840,note_on,0,0,9,,,,,,,,5,,,,64,68
12840,note_off,2040,0,12,,,,,,,,13,,,,69,64
12840,note_off,2040,0,3,,,,,,,,2,,,,81,64
12840,note_on,0,0,11,,,,,,,,12,,,,76,68
12840,note_on,0,0,7,,,,,,,,4,,,,61,68
12840,note_off,120,0,13,,,,,,,,14,,,,62,64
12840,note_off,120,0,11,,,,,,,,12,,,,78,64
12840,note_off,2040,0,1,,,,,,,,0,,,,81,64
12840,note_off,2040,0,5,,,,,,,,3,,,,81,64
12840,note_off,120,0,2,,,,,,,,1,,,,78,64
12840,note_on,0,0,2,,,,,,,,1,,,,76,68
12955,note_off,235,0,14,,,,,,,,15,,,,37,64
12960,note_off,120,0,9,,,,,,,,5,,,,64,64
12960,note_off,120,0,7,,,,,,,,4,,,,61,64
12960,note_on,0,0,7,,,,,,,,4,,,,59,69
12960,note_on,0,0,13,,,,,,,,14,,,,59,69
12960,note_on,120,0,1,,,,,,,,0,,,,74,72
12960,note_on,0,0,9,,,,,,,,5,,,,62,69
12960,note_on,120,0,5,,,,,,,,3,,,,74,72
12960,note_off,120,0,6,,,,,,,,3,,,,76,64
12960,note_on,0,0,6,,,,,,,,3,,,,74,69
12960,note_on,120,0,3,,,,,,,,2,,,,74,72
12960,note_off,120,0,13,,,,,,,,14,,,,61,64
12960,note_off,120,0,2,,,,,,,,1,,,,76,64
12960,note_on,0,0,2,,,,,,,,1,,,,74,69
12960,note_on,5,0,14,,,,,,,,15,,,,47,72
12960,note_off,120,0,11,,,,,,,,12,,,,76,64
12960,note_off,120,0,4,,,,,,,,2,,,,76,64
12960,note_on,0,0,4,,,,,,,,2,,,,74,69
12960,set_tempo,720,1,0,1200000,,,,,,,,,,,,
12960,note_on,120,0,12,,,,,,,,13,,,,62,72
12960,note_on,120,0,10,,,,,,,,11,,,,74,72
12960,note_on,0,0,11,,,,,,,,12,,,,74,69
13195,note_off,235,0,4,,,,,,,,2,,,,74,64
13195,note_off,235,0,7,,,,,,,,4,,,,59,64
13195,note_off,235,0,13,,,,,,,,14,,,,59,64
13195,note_off,235,0,2,,,,,,,,1,,,,74,64
13195,note_off,235,0,9,,,,,,,,5,,,,62,64
13195,note_off,235,0,11,,,,,,,,12,,,,74,64
13195,note_off,235,0,6,,,,,,,,3,,,,74,64
13200,note_on,5,0,2,,,,,,,,1,,,,76,71
13200,note_on,5,0,11,,,,,,,,12,,,,76,71
13200,note_on,0,0,10,,,,,,,,11,,,,69,73
13200,note_on,5,0,6,,,,,,,,3,,,,76,71
13200,note_off,240,0,10,,,,,,,,11,,,,74,64
13200,note_on,5,0,7,,,,,,,,4,,,,61,71
13200,note_on,0,0,5,,,,,,,,3,,,,69,73
13200,note_on,5,0,9,,,,,,,,5,,,,64,71
13200,note_on,0,0,12,,,,,,,,13,,,,57,73
13200,note_off,240,0,12,,,,,,,,13,,,,62,64
13200,note_on,5,0,4,,,,,,,,2,,,,76,71
13200,note_off,240,0,3,,,,,,,,2,,,,74,64
13200,note_on,0,0,1,,,,,,,,0,,,,69,73
13200,note_off,240,0,1,,,,,,,,0,,,,74,64
13200,note_on,0,0,3,,,,,,,,2,,,,69,73
13200,note_on,5,0,13,,,,,,,,14,,,,61,71
13200,note_off,240,0,5,,,,,,,,3,,,,74,64
13320,note_on,0,0,1,,,,,,,,0,,,,71,73
13320,note_on,0,0,12,,,,,,,,13,,,,59,73
13320,note_on,0,0,6,,,,,,,,3,,,,74,72
13320,note_on,0,0,9,,,,,,,,5,,,,62,72
13320,note_off,120,0,9,,,,,,,,5,,,,64,64
13320,note_on,0,0,11,,,,,,,,12,,,,74,72
13320,note_on,0,0,7,,,,,,,,4,,,,59,72
13320,note_off,120,0,11,,,,,,,,12,,,,76,64
13320,note_off,120,0,1,,,,,,,,0,,,,69,64
13320,note_on,0,0,3,,,,,,,,2,,,,71,73
13320,note_off,120,0,12,,,,,,,,13,,,,57,64
13320,note_off,120,0,13,,,,,,,,14,,,,61,64
13320,note_on,0,0,13,,,,,,,,14,,,,59,72
13320,note_on,0,0,2,,,,,,,,1,,,,74,72
13320,note_off,120,0,2,,,,,,,,1,,,,76,64
13320,note_off,120,0,6,,,,,,,,3,,,,76,64
13320,note_off,120,0,7,,,,,,,,4,,,,61,64
13320,note_off,120,0,4,,,,,,,,2,,,,76,64
13320,note_on,0,0,5,,,,,,,,3,,,,71,73
13320,note_on,0,0,10,,,,,,,,11,,,,71,73
13320,note_off,120,0,10,,,,,,,,11,,,,69,64
13320,note_on,0,0,4,,,,,,,,2,,,,74,72
13320,note_off,120,0,5,,,,,,,,3,,,,69,64
13320,note_off,120,0,3,,,,,,,,2,,,,69,64
13360,note_off,400,0,14,,,,,,,,15,,,,47,64
13440,note_off,120,0,9,,,,,,,,5,,,,62,64
13440,note_on,0,0,9,,,,,,,,5,,,,64,73
13440,note_off,120,0,7,,,,,,,,4,,,,59,64
13440,note_on,0,0,1,,,,,,,,0,,,,69,73
13440,note_off,120,0,12,,,,,,,,13,,,,59,64
13440,note_on,0,0,7,,,,,,,,4,,,,61,73
13440,note_off,120,0,2,,,,,,,,1,,,,74,64
13440,note_on,0,0,12,,,,,,,,13,,,,57,73
13440,note_on,80,0,14,,,,,,,,15,,,,35,74
13440,note_on,0,0,4,,,,,,,,2,,,,76,73
13440,note_off,120,0,4,,,,,,,,2,,,,74,64
13440,note_off,120,0,10,,,,,,,,11,,,,71,64
13440,note_on,0,0,10,,,,,,,,11,,,,69,73
13440,note_on,0,0,13,,,,,,,,14,,,,61,73
13440,note_off,120,0,13,,,,,,,,14,,,,59,64
13440,note_off,120,0,1,,,,,,,,0,,,,71,64
13440,note_on,0,0,2,,,,,,,,1,,,,76,73
13440,note_on,0,0,3,,,,,,,,2,,,,69,73
13440,note_on,0,0,11,,,,,,,,12,,,,76,73
13440,note_off,120,0,3,,,,,,,,2,,,,71,64
13440,note_off,120,0,6,,,,,,,,3,,,,74,64
13440,note_off,120,0,5,,,,,,,,3,,,,71,64
13440,note_on,0,0,5,,,,,,,,3,,,,69,73
13440,note_on,0,0,6,,,,,,,,3,,,,76,73
13440,note_off,120,0,11,,,,,,,,12,,,,74,64
13560,note_off,120,0,4,,,,,,,,2,,,,76,64
13560,note_on,0,0,4,,,,,,,,2,,,,74,74
13560,note_off,120,0,2,,,,,,,,1,,,,76,64
13560,note_on,0,0,12,,,,,,,,13,,,,59,74
13560,note_on,0,0,2,,,,,,,,1,,,,74,74
13560,note_on,0,0,5,,,,,,,,3,,,,71,74
13560,note_on,0,0,1,,,,,,,,0,,,,71,74
13560,note_off,120,0,12,,,,,,,,13,,,,57,64
13560,note_off,120,0,6,,,,,,,,3,,,,76,64
13560,note_on,0,0,6,,,,,,,,3,,,,74,74
13560,note_off,120,0,1,,,,,,,,0,,,,69,64
13560,note_off,120,0,10,,,,,,,,11,,,,69,64
13560,note_on,0,0,10,,,,,,,,11,,,,71,74
13560,note_off,120,0,9,,,,,,,,5,,,,64,64
13560,note_off,120,0,3,,,,,,,,2,,,,69,64
13560,note_on,0,0,3,,,,,,,,2,,,,71,74
13560,note_off,120,0,5,,,,,,,,3,,,,69,64
13560,note_off,120,0,11,,,,,,,,12,,,,76,64
13560,note_on,0,0,11,,,,,,,,12,,,,74,74
13560,note_off,120,0,7,,,,,,,,4,,,,61,64
13560,note_on,0,0,7,,,,,,,,4,,,,59,74
13560,note_off,120,0,13,,,,,,,,14,,,,61,64
13560,note_on,0,0,13,,,,,,,,14,,,,59,74
13560,note_on,0,0,9,,,,,,,,5,,,,62,74
13675,note_off,235,0,14,,,,,,,,15,,,,35,64
13675,note_off,115,0,4,,,,,,,,2,,,,74,64
13675,note_off,115,0,3,,,,,,,,2,,,,71,64
13675,note_off,115,0,13,,,,,,,,14,,,,59,64
13675,note_off,115,0,10,,,,,,,,11,,,,71,64
13675,note_off,115,0,6,,,,,,,,3,,,,74,64
13675,note_off,115,0,5,,,,,,,,3,,,,71,64
13675,note_off,115,0,12,,,,,,,,13,,,,59,64
13675,note_off,115,0,2,,,,,,,,1,,,,74,64
13675,note_off,115,0,1,,,,,,,,0,,,,71,64
13675,note_off,115,0,9,,,,,,,,5,,,,62,64
13675,note_off,115,0,11,,,,,,,,12,,,,74,64
13675,note_off,115,0,7,,,,,,,,4,,,,59,64
13680,note_on,5,0,6,,,,,,,,3,,,,76,75
13680,note_on,5,0,2,,,,,,,,1,,,,76,75
13680,note_on,5,0,3,,,,,,,,2,,,,73,75
13680,note_on,5,0,9,,,,,,,,5,,,,64,75
13680,note_on,5,0,13,,,,,,,,14,,,,57,75
13680,set_tempo,720,1,0,1250000,,,,,,,,,,,,
13680,note_on,5,0,10,,,,,,,,11,,,,73,75
13680,note_on,5,0,1,,,,,,,,0,,,,73,75
13680,note_on,5,0,11,,,,,,,,12,,,,76,75
13680,note_on,5,0,4,,,,,,,,2,,,,76,75
13680,note_on,5,0,5,,,,,,,,3,,,,73,75
13680,note_on,5,0,12,,,,,,,,13,,,,61,75
13680,note_on,5,0,7,,,,,,,,4,,,,57,75
13680,note_on,5,0,14,,,,,,,,15,,,,33,75
13800,note_on,0,0,12,,,,,,,,13,,,,62,75
13800,note_off,120,0,12,,,,,,,,13,,,,61,64
13800,note_off,120,0,9,,,,,,,,5,,,,64,64
13800,note_on,0,0,10,,,,,,,,11,,,,74,75
13800,note_off,120,0,10,,,,,,,,11,,,,73,64
13800,note_on,0,0,9,,,,,,,,5,,,,66,75
13800,note_on,0,0,6,,,,,,,,3,,,,78,75
13800,note_on,0,0,2,,,,,,,,1,,,,78,75
13800,note_on,0,0,3,,,,,,,,2,,,,74,75
13800,note_off,120,0,2,,,,,,,,1,,,,76,64
13800,note_off,120,0,5,,,,,,,,3,,,,73,64
13800,note_off,120,0,6,,,,,,,,3,,,,76,64
13800,note_on,0,0,1,,,,,,,,0,,,,74,75
13800,note_off,120,0,1,,,,,,,,0,,,,73,64
13800,note_on,0,0,11,,,,,,,,12,,,,78,75
13800,note_off,120,0,11,,,,,,,,12,,,,76,64
13800,note_off,120,0,4,,,,,,,,2,,,,76,64
13800,note_on,0,0,4,,,,,,,,2,,,,78,75
13800,note_on,0,0,5,,,,,,,,3,,,,74,75
13800,note_off,120,0,3,,,,,,,,2,,,,73,64
13920,note_off,120,0,6,,,,,,,,3,,,,78,64
13920,note_on,0,0,6,,,,,,,,3,,,,79,75
13920,note_off,120,0,4,,,,,,,,2,,,,78,64
13920,note_off,120,0,10,,,,,,,,11,,,,74,64
13920,note_on,0,0,4,,,,,,,,2,,,,79,75
13920,note_on,0,0,11,,,,,,,,12,,,,79,75
13920,note_on,0,0,9,,,,,,,,5,,,,67,75
13920,note_on,0,0,5,,,,,,,,3,,,,76,75
13920,note_off,120,0,5,,,,,,,,3,,,,74,64
13920,note_off,120,0,11,,,,,,,,12,,,,78,64
13920,note_on,0,0,12,,,,,,,,13,,,,64,75
13920,note_on,0,0,10,,,,,,,,11,,,,76,75
13920,note_off,120,0,9,,,,,,,,5,,,,66,64
13920,note_off,120,0,12,,,,,,,,13,,,,62,64
13920,note_off,120,0,2,,,,,,,,1,,,,78,64
13920,note_off,120,0,3,,,,,,,,2,,,,74,64
13920,note_off,120,0,1,,,,,,,,0,,,,74,64
13920,note_on,0,0,1,,,,,,,,0,,,,76,75
13920,note_on,0,0,2,,,,,,,,1,,,,79,75
13920,note_on,0,0,3,,,,,,,,2,,,,76,75
14040,note_off,120,0,1,,,,,,,,0,,,,76,64
14040,note_on,0,0,1,,,,,,,,0,,,,74,75
14040,note_off,120,0,4,,,,,,,,2,,,,79,64
14040,note_on,0,0,4,,,,,,,,2,,,,78,75
14040,note_on,0,0,5,,,,,,,,3,,,,74,75
14040,note_off,120,0,5,,,,,,,,3,,,,76,64
14040,note_off,120,0,3,,,,,,,,2,,,,76,64
14040,note_off,120,0,10,,,,,,,,11,,,,76,64
14040,note_on,0,0,3,,,,,,,,2,,,,74,75
14040,note_off,120,0,11,,,,,,,,12,,,,79,64
14040,note_on,0,0,11,,,,,,,,12,,,,78,75
14040,note_on,0,0,2,,,,,,,,1,,,,78,75
14040,note_off,120,0,2,,,,,,,,1,,,,79,64
14040,note_on,0,0,9,,,,,,,,5,,,,66,75
14040,note_off,120,0,9,,,,,,,,5,,,,67,64
14040,note_off,120,0,12,,,,,,,,13,,,,64,64
14040,note_on,0,0,12,,,,,,,,13,,,,62,75
14040,note_on,0,0,6,,,,,,,,3,,,,78,75
14040,note_off,120,0,6,,,,,,,,3,,,,79,64
14040,note_on,0,0,10,,,,,,,,11,,,,74,75
14160,note_on,0,0,4,,,,,,,,2,,,,79,75
14160,note_on,0,0,2,,,,,,,,1,,,,79,75
14160,note_off,120,0,2,,,,,,,,1,,,,78,64
14160,note_on,0,0,10,,,,,,,,11,,,,76,75
14160,note_off,120,0,4,,,,,,,,2,,,,78,64
14160,note_on,0,0,1,,,,,,,,0,,,,76,75
14160,note_off,120,0,1,,,,,,,,0,,,,74,64
14160,note_off,120,0,12,,,,,,,,13,,,,62,64
14160,note_off,120,0,5,,,,,,,,3,,,,74,64
14160,note_off,120,0,3,,,,,,,,2,,,,74,64
14160,note_on,0,0,3,,,,,,,,2,,,,76,75
14160,note_off,120,0,11,,,,,,,,12,,,,78,64
14160,note_on,0,0,11,,,,,,,,12,,,,79,75
14160,note_on,0,0,9,,,,,,,,5,,,,67,75
14160,note_off,120,0,9,,,,,,,,5,,,,66,64
14160,note_off,120,0,10,,,,,,,,11,,,,74,64
14160,note_on,0,0,5,,,,,,,,3,,,,76,75
14160,note_on,0,0,12,,,,,,,,13,,,,64,75
14160,note_off,120,0,6,,,,,,,,3,,,,78,64
14160,note_on,0,0,6,,,,,,,,3,,,,79,75
14280,note_on,0,0,4,,,,,,,,2,,,,76,75
14280,note_on,0,0,11,,,,,,,,12,,,,76,75
14280,note_on,0,0,12,,,,,,,,13,,,,61,75
14280,note_on,0,0,1,,,,,,,,0,,,,73,75
14280,note_off,120,0,1,,,,,,,,0,,,,76,64
14280,note_off,120,0,11,,,,,,,,12,,,,79,64
14280,note_on,0,0,9,,,,,,,,5,,,,64,75
14280,note_off,120,0,9,,,,,,,,5,,,,67,64
14280,note_on,0,0,5,,,,,,,,3,,,,73,75
14280,note_on,0,0,6,,,,,,,,3,,,,76,75
14280,note_off,120,0,6,,,,,,,,3,,,,79,64
14280,note_off,120,0,10,,,,,,,,11,,,,76,64
14280,note_off,120,0,12,,,,,,,,13,,,,64,64
14280,note_off,120,0,5,,,,,,,,3,,,,76,64
14280,note_off,120,0,3,,,,,,,,2,,,,76,64
14280,note_off,120,0,4,,,,,,,,2,,,,79,64
14280,note_on,0,0,2,,,,,,,,1,,,,76,75
14280,note_off,120,0,2,,,,,,,,1,,,,79,64
14280,note_on,0,0,3,,,,,,,,2,,,,73,75
14280,note_on,0,0,10,,,,,,,,11,,,,73,75
14395,note_off,115,0,12,,,,,,,,13,,,,61,64
14395,note_off,115,0,3,,,,,,,,2,,,,73,64
14395,note_off,115,0,4,,,,,,,,2,,,,76,64
14395,note_off,115,0,11,,,,,,,,12,,,,76,64
14395,note_off,115,0,10,,,,,,,,11,,,,73,64
14395,note_off,115,0,6,,,,,,,,3,,,,76,64
14395,note_off,115,0,2,,,,,,,,1,,,,76,64
14395,note_off,115,0,1,,,,,,,,0,,,,73,64
14395,note_off,115,0,5,,,,,,,,3,,,,73,64
14400,note_on,5,0,3,,,,,,,,2,,,,81,75
14400,note_on,5,0,4,,,,,,,,2,,,,78,75
14400,note_on,5,0,5,,,,,,,,3,,,,81,75
14400,set_tempo,720,1,0,1200000,,,,,,,,,,,,
14400,note_on,5,0,1,,,,,,,,0,,,,81,75
14400,note_on,5,0,12,,,,,,,,13,,,,69,75
14400,note_on,0,0,9,,,,,,,,5,,,,66,75
14400,note_off,120,0,9,,,,,,,,5,,,,64,64
14400,note_on,5,0,6,,,,,,,,3,,,,78,75
14400,note_on,5,0,2,,,,,,,,1,,,,78,75
14400,note_on,5,0,10,,,,,,,,11,,,,81,75
14400,note_on,5,0,11,,,,,,,,12,,,,78,75
14635,note_off,235,0,2,,,,,,,,1,,,,78,64
14635,note_off,235,0,9,,,,,,,,5,,,,66,64
14635,note_off,235,0,6,,,,,,,,3,,,,78,64
14635,note_off,235,0,4,,,,,,,,2,,,,78,64
14635,note_off,235,0,11,,,,,,,,12,,,,78,64
14635,note_off,3835,0,8,,,,,,,,5,,,,69,64
14640,note_off,240,0,10,,,,,,,,11,,,,81,64
14640,note_on,0,0,1,,,,,,,,0,,,,83,75
14640,note_off,240,0,5,,,,,,,,3,,,,81,64
14640,note_off,240,0,1,,,,,,,,0,,,,81,64
14640,note_on,0,0,5,,,,,,,,3,,,,83,75
14640,note_on,5,0,6,,,,,,,,3,,,,79,75
14640,note_off,240,0,3,,,,,,,,2,,,,81,64
14640,note_on,0,0,3,,,,,,,,2,,,,83,75
14640,note_on,5,0,8,,,,,,,,5,,,,71,75
14640,note_on,5,0,11,,,,,,,,12,,,,79,75
14640,note_on,5,0,2,,,,,,,,1,,,,79,75
14640,note_on,0,0,10,,,,,,,,11,,,,83,75
14640,note_on,5,0,9,,,,,,,,5,,,,67,75
14640,note_off,240,0,12,,,,,,,,13,,,,69,64
14640,note_on,5,0,4,,,,,,,,2,,,,79,75
14640,note_on,0,0,12,,,,,,,,13,,,,71,75
14760,note_off,120,0,11,,,,,,,,12,,,,79,64
14760,note_on,0,0,11,,,,,,,,12,,,,78,75
14760,note_off,120,0,9,,,,,,,,5,,,,67,64
14760,note_on,0,0,9,,,,,,,,5,,,,66,75
14760,note_on,0,0,12,,,,,,,,13,,,,69,75
14760,note_off,120,0,1,,,,,,,,0,,,,83,64
14760,note_on,0,0,1,,,,,,,,0,,,,81,75
14760,note_on,0,0,5,,,,,,,,3,,,,81,75
14760,note_off,120,0,5,,,,,,,,3,,,,83,64
14760,note_on,0,0,8,,,,,,,,5,,,,69,75
14760,note_off,120,0,6,,,,,,,,3,,,,79,64
14760,note_on,0,0,6,,,,,,,,3,,,,78,75
14760,note_on,0,0,3,,,,,,,,2,,,,81,75
14760,note_off,120,0,3,,,,,,,,2,,,,83,64
14760,note_off,120,0,12,,,,,,,,13,,,,71,64
14760,note_off,120,0,10,,,,,,,,11,,,,83,64
14760,note_off,120,0,8,,,,,,,,5,,,,71,64
14760,note_on,0,0,2,,,,,,,,1,,,,78,75
14760,note_off,120,0,4,,,,,,,,2,,,,79,64
14760,note_on,0,0,4,,,,,,,,2,,,,78,75
14760,note_on,0,0,10,,,,,,,,11,,,,81,75
14760,note_off,120,0,2,,,,,,,,1,,,,79,64
14880,note_on,0,0,2,,,,,,,,1,,,,79,75
14880,note_off,120,0,9,,,,,,,,5,,,,66,64
14880,note_on,0,0,9,,,,,,,,5,,,,67,75
14880,note_off,120,0,12,,,,,,,,13,,,,69,64
14880,note_on,0,0,1,,,,,,,,0,,,,83,75
14880,note_off,120,0,10,,,,,,,,11,,,,81,64
14880,note_off,120,0,5,,,,,,,,3,,,,81,64
14880,note_on,0,0,3,,,,,,,,2,,,,83,75
14880,note_off,120,0,3,,,,,,,,2,,,,81,64
14880,note_on,0,0,6,,,,,,,,3,,,,79,75
14880,note_off,120,0,6,,,,,,,,3,,,,78,64
14880,note_on,0,0,4,,,,,,,,2,,,,79,75
14880,note_off,120,0,2,,,,,,,,1,,,,78,64
14880,note_on,0,0,12,,,,,,,,13,,,,71,75
14880,note_off,120,0,1,,,,,,,,0,,,,81,64
14880,note_off,120,0,4,,,,,,,,2,,,,78,64
14880,note_on,0,0,8,,,,,,,,5,,,,71,75
14880,note_off,120,0,11,,,,,,,,12,,,,78,64
14880,note_on,0,0,11,,,,,,,,12,,,,79,75
14880,note_off,120,0,8,,,,,,,,5,,,,69,64
14880,note_on,0,0,10,,,,,,,,11,,,,83,75
14880,note_on,0,0,5,,,,,,,,3,,,,83,75
15000,note_on,0,0,10,,,,,,,,11,,,,81,75
15000,note_off,120,0,6,,,,,,,,3,,,,79,64
15000,note_on,0,0,6,,,,,,,,3,,,,78,75
15000,note_on,0,0,4,,,,,,,,2,,,,78,75
15000,note_off,120,0,8,,,,,,,,5,,,,71,64
15000,note_off,120,0,10,,,,,,,,11,,,,83,64
15000,note_off,120,0,3,,,,,,,,2,,,,83,64
15000,note_on,0,0,3,,,,,,,,2,,,,81,75
15000,note_off,120,0,2,,,,,,,,1,,,,79,64
15000,note_on,0,0,2,,,,,,,,1,,,,78,75
15000,note_off,120,0,4,,,,,,,,2,,,,79,64
15000,note_on,0,0,5,,,,,,,,3,,,,81,75
15000,note_on,0,0,11,,,,,,,,12,,,,78,75
15000,note_off,120,0,1,,,,,,,,0,,,,83,64
15000,note_off,120,0,5,,,,,,,,3,,,,83,64
15000,note_off,120,0,11,,,,,,,,12,,,,79,64
15000,note_off,120,0,9,,,,,,,,5,,,,67,64
15000,note_on,0,0,9,,,,,,,,5,,,,66,75
15000,note_on,0,0,1,,,,,,,,0,,,,81,75
15000,note_on,0,0,8,,,,,,,,5,,,,69,75
15000,note_off,120,0,12,,,,,,,,13,,,,71,64
15000,note_on,0,0,12,,,,,,,,13,,,,69,75
15115,note_off,115,0,1,,,,,,,,0,,,,81,64
15115,note_off,115,0,3,,,,,,,,2,,,,81,64
15115,note_off,115,0,12,,,,,,,,13,,,,69,64
15115,note_off,115,0,5,,,,,,,,3,,,,81,64
15115,note_off,115,0,10,,,,,,,,11,,,,81,64
15120,note_on,0,0,11,,,,,,,,12,,,,76,75
15120,note_on,5,0,5,,,,,,,,3,,,,79,75
15120,note_on,0,0,9,,,,,,,,5,,,,64,75
15120,note_off,120,0,8,,,,,,,,5,,,,69,64
15120,note_on,0,0,4,,,,,,,,2,,,,76,75
15120,note_off,120,0,4,,,,,,,,2,,,,78,64
15120,note_on,0,0,8,,,,,,,,5,,,,67,75
15120,note_on,5,0,3,,,,,,,,2,,,,79,75
15120,note_off,120,0,9,,,,,,,,5,,,,66,64
15120,note_on,5,0,12,,,,,,,,13,,,,67,75
15120,note_off,120,0,11,,,,,,,,12,,,,78,64
15120,note_off,120,0,2,,,,,,,,1,,,,78,64
15120,note_off,120,0,6,,,,,,,,3,,,,78,64
15120,note_on,0,0,6,,,,,,,,3,,,,76,75
15120,note_on,5,0,1,,,,,,,,0,,,,79,75
15120,note_on,5,0,10,,,,,,,,11,,,,79,75
15120,note_on,0,0,2,,,,,,,,1,,,,76,75
15355,note_off,235,0,6,,,,,,,,3,,,,76,64
15355,note_off,235,0,8,,,,,,,,5,,,,67,64
15355,note_off,235,0,4,,,,,,,,2,,,,76,64
15355,note_off,235,0,9,,,,,,,,5,,,,64,64
15355,note_off,235,0,11,,,,,,,,12,,,,76,64
15355,note_off,235,0,2,,,,,,,,1,,,,76,64
15360,note_off,240,0,1,,,,,,,,0,,,,79,64
15360,note_on,0,0,1,,,,,,,,0,,,,81,75
15360,note_off,240,0,5,,,,,,,,3,,,,79,64
15360,note_on,0,0,5,,,,,,,,3,,,,81,75
15360,note_off,240,0,12,,,,,,,,13,,,,67,64
15360,note_on,0,0,12,,,,,,,,13,,,,69,75
15360,note_on,5,0,11,,,,,,,,12,,,,78,75
15360,note_on,5,0,2,,,,,,,,1,,,,78,75
15360,note_on,5,0,9,,,,,,,,5,,,,66,75
15360,note_on,5,0,8,,,,,,,,5,,,,69,75
15360,note_on,5,0,6,,,,,,,,3,,,,78,75
15360,note_off,240,0,10,,,,,,,,11,,,,79,64
15360,note_on,0,0,10,,,,,,,,11,,,,81,75
15360,note_on,5,0,4,,,,,,,,2,,,,78,75
15360,note_off,240,0,3,,,,,,,,2,,,,79,64
15360,note_on,0,0,3,,,,,,,,2,,,,81,75
15480,note_off,120,0,9,,,,,,,,5,,,,66,64
15480,note_off,120,0,12,,,,,,,,13,,,,69,64
15480,note_on,0,0,1,,,,,,,,0,,,,79,75
15480,note_on,0,0,2,,,,,,,,1,,,,76,75
15480,note_on,0,0,4,,,,,,,,2,,,,76,75
15480,note_off,120,0,4,,,,,,,,2,,,,78,64
15480,note_on,0,0,6,,,,,,,,3,,,,76,75
15480,note_off,120,0,10,,,,,,,,11,,,,81,64
15480,note_on,0,0,10,,,,,,,,11,,,,79,75
15480,note_off,120,0,2,,,,,,,,1,,,,78,64
15480,note_on,0,0,9,,,,,,,,5,,,,64,75
15480,note_off,120,0,11,,,,,,,,12,,,,78,64
15480,note_on,0,0,11,,,,,,,,12,,,,76,75
15480,note_off,120,0,1,,,,,,,,0,,,,81,64
15480,note_off,120,0,3,,,,,,,,2,,,,81,64
15480,note_off,120,0,6,,,,,,,,3,,,,78,64
15480,note_on,0,0,12,,,,,,,,13,,,,67,75
15480,note_on,0,0,8,,,,,,,,5,,,,67,75
15480,note_on,0,0,3,,,,,,,,2,,,,79,75
15480,note_off,120,0,5,,,,,,,,3,,,,81,64
15480,note_off,120,0,8,,,,,,,,5,,,,69,64
15480,note_on,0,0,5,,,,,,,,3,,,,79,75
15600,note_on,0,0,6,,,,,,,,3,,,,78,75
15600,note_off,120,0,6,,,,,,,,3,,,,76,64
15600,note_off,120,0,1,,,,,,,,0,,,,79,64
15600,note_off,120,0,3,,,,,,,,2,,,,79,64
15600,note_on,0,0,9,,,,,,,,5,,,,66,75
15600,note_off,120,0,9,,,,,,,,5,,,,64,64
15600,note_on,0,0,2,,,,,,,,1,,,,78,75
15600,note_on,0,0,1,,,,,,,,0,,,,81,75
15600,note_on,0,0,5,,,,,,,,3,,,,81,75
15600,note_on,0,0,10,,,,,,,,11,,,,81,75
15600,note_off,120,0,2,,,,,,,,1,,,,76,64
15600,note_on,0,0,4,,,,,,,,2,,,,78,75
15600,note_off,120,0,10,,,,,,,,11,,,,79,64
15600,note_on,0,0,3,,,,,,,,2,,,,81,75
15600,note_on,0,0,8,,,,,,,,5,,,,69,75
15600,note_off,120,0,8,,,,,,,,5,,,,67,64
15600,note_on,0,0,12,,,,,,,,13,,,,69,75
15600,note_off,120,0,12,,,,,,,,13,,,,67,64
15600,note_off,120,0,11,,,,,,,,12,,,,76,64
15600,note_on,0,0,11,,,,,,,,12,,,,78,75
15600,note_off,120,0,5,,,,,,,,3,,,,79,64
15600,note_off,120,0,4,,,,,,,,2,,,,76,64
15720,note_on,0,0,6,,,,,,,,3,,,,76,75
15720,note_on,0,0,4,,,,,,,,2,,,,76,75
15720,note_off,120,0,6,,,,,,,,3,,,,78,64
15720,note_on,0,0,8,,,,,,,,5,,,,67,75
15720,note_off,120,0,8,,,,,,,,5,,,,69,64
15720,note_off,120,0,4,,,,,,,,2,,,,78,64
15720,note_off,120,0,1,,,,,,,,0,,,,81,64
15720,note_on,0,0,11,,,,,,,,12,,,,76,75
15720,note_off,120,0,5,,,,,,,,3,,,,81,64
15720,note_off,120,0,11,,,,,,,,12,,,,78,64
15720,note_off,120,0,12,,,,,,,,13,,,,69,64
15720,note_on,0,0,12,,,,,,,,13,,,,67,75
15720,note_on,0,0,2,,,,,,,,1,,,,76,75
15720,note_off,120,0,2,,,,,,,,1,,,,78,64
15720,note_on,0,0,1,,,,,,,,0,,,,79,75
15720,note_on,0,0,5,,,,,,,,3,,,,79,75
15720,note_on,0,0,10,,,,,,,,11,,,,79,75
15720,note_on,0,0,3,,,,,,,,2,,,,79,75
15720,note_off,120,0,10,,,,,,,,11,,,,81,64
15720,note_off,120,0,3,,,,,,,,2,,,,81,64
15720,note_on,0,0,9,,,,,,,,5,,,,64,75
15720,note_off,120,0,9,,,,,,,,5,,,,66,64
15835,note_off,115,0,10,,,,,,,,11,,,,79,64
15835,note_off,115,0,3,,,,,,,,2,,,,79,64
15835,note_off,115,0,12,,,,,,,,13,,,,67,64
15835,note_off,115,0,1,,,,,,,,0,,,,79,64
15835,note_off,115,0,5,,,,,,,,3,,,,79,64
15840,note_on,0,0,4,,,,,,,,2,,,,74,75
15840,note_on,0,0,2,,,,,,,,1,,,,74,75
15840,note_on,5,0,12,,,,,,,,13,,,,66,75
15840,note_off,120,0,8,,,,,,,,5,,,,67,64
15840,note_on,0,0,8,,,,,,,,5,,,,66,75
15840,note_off,120,0,4,,,,,,,,2,,,,76,64
15840,note_on,5,0,3,,,,,,,,2,,,,78,75
15840,note_off,120,0,2,,,,,,,,1,,,,76,64
15840,note_off,120,0,6,,,,,,,,3,,,,76,64
15840,note_off,120,0,9,,,,,,,,5,,,,64,64
15840,note_on,0,0,9,,,,,,,,5,,,,62,75
15840,note_on,0,0,11,,,,,,,,12,,,,74,75
15840,note_on,0,0,6,,,,,,,,3,,,,74,75
15840,note_off,120,0,11,,,,,,,,12,,,,76,64
15840,note_on,5,0,10,,,,,,,,11,,,,78,75
15840,note_on,5,0,5,,,,,,,,3,,,,78,75
15840,note_on,5,0,1,,,,,,,,0,,,,78,75
16075,note_off,235,0,11,,,,,,,,12,,,,74,64
16075,note_off,235,0,6,,,,,,,,3,,,,74,64
16075,note_off,235,0,8,,,,,,,,5,,,,66,64
16075,note_off,235,0,4,,,,,,,,2,,,,74,64
16075,note_off,235,0,2,,,,,,,,1,,,,74,64
16075,note_off,235,0,9,,,,,,,,5,,,,62,64
16080,note_off,240,0,12,,,,,,,,13,,,,66,64
16080,note_off,240,0,3,,,,,,,,2,,,,78,64
16080,note_on,0,0,3,,,,,,,,2,,,,79,75
16080,note_on,5,0,6,,,,,,,,3,,,,76,75
16080,note_on,5,0,4,,,,,,,,2,,,,76,75
16080,note_on,5,0,2,,,,,,,,1,,,,76,75
16080,note_on,0,0,12,,,,,,,,13,,,,67,75
16080,note_on,0,0,1,,,,,,,,0,,,,79,75
16080,note_off,240,0,1,,,,,,,,0,,,,78,64
16080,note_on,5,0,11,,,,,,,,12,,,,76,75
16080,note_on,5,0,8,,,,,,,,5,,,,67,75
16080,note_on,5,0,9,,,,,,,,5,,,,64,75
16080,note_off,240,0,5,,,,,,,,3,,,,78,64
16080,note_on,0,0,5,,,,,,,,3,,,,79,75
16080,note_on,0,0,10,,,,,,,,11,,,,79,75
16080,note_off,240,0,10,,,,,,,,11,,,,78,64
16200,note_off,120,0,8,,,,,,,,5,,,,67,64
16200,note_off,120,0,10,,,,,,,,11,,,,79,64
16200,note_off,120,0,3,,,,,,,,2,,,,79,64
16200,note_on,0,0,3,,,,,,,,2,,,,78,75
16200,note_on,0,0,9,,,,,,,,5,,,,62,75
16200,note_off,120,0,4,,,,,,,,2,,,,76,64
16200,note_on,0,0,4,,,,,,,,2,,,,74,75
16200,note_off,120,0,9,,,,,,,,5,,,,64,64
16200,note_off,120,0,2,,,,,,,,1,,,,76,64
16200,note_off,120,0,1,,,,,,,,0,,,,79,64
16200,note_on,0,0,10,,,,,,,,11,,,,78,75
16200,note_on,0,0,1,,,,,,,,0,,,,78,75
16200,note_on,0,0,2,,,,,,,,1,,,,74,75
16200,note_on,0,0,6,,,,,,,,3,,,,74,75
16200,note_off,120,0,6,,,,,,,,3,,,,76,64
16200,note_off,120,0,5,,,,,,,,3,,,,79,64
16200,note_on,0,0,5,,,,,,,,3,,,,78,75
16200,note_on,0,0,8,,,,,,,,5,,,,66,75
16200,note_off,120,0,12,,,,,,,,13,,,,67,64
16200,note_on,0,0,12,,,,,,,,13,,,,66,75
16200,note_off,120,0,11,,,,,,,,12,,,,76,64
16200,note_on,0,0,11,,,,,,,,12,,,,74,75
16320,note_on,0,0,11,,,,,,,,12,,,,76,75
16320,note_on,0,0,1,,,,,,,,0,,,,79,75
16320,note_off,120,0,1,,,,,,,,0,,,,78,64
16320,note_on,0,0,10,,,,,,,,11,,,,79,75
16320,note_off,120,0,10,,,,,,,,11,,,,78,64
16320,note_on,0,0,5,,,,,,,,3,,,,79,75
16320,note_off,120,0,5,,,,,,,,3,,,,78,64
16320,note_on,0,0,3,,,,,,,,2,,,,79,75
16320,note_off,120,0,3,,,,,,,,2,,,,78,64
16320,note_off,120,0,11,,,,,,,,12,,,,74,64
16320,note_off,120,0,2,,,,,,,,1,,,,74,64
16320,note_on,0,0,2,,,,,,,,1,,,,76,75
16320,note_on,0,0,12,,,,,,,,13,,,,67,75
16320,note_off,120,0,4,,,,,,,,2,,,,74,64
16320,note_on,0,0,6,,,,,,,,3,,,,76,75
16320,note_off,120,0,6,,,,,,,,3,,,,74,64
16320,note_off,120,0,8,,,,,,,,5,,,,66,64
16320,note_on,0,0,9,,,,,,,,5,,,,64,75
16320,note_off,120,0,12,,,,,,,,13,,,,66,64
16320,note_on,0,0,8,,,,,,,,5,,,,67,75
16320,note_off,120,0,9,,,,,,,,5,,,,62,64
16320,note_on,0,0,4,,,,,,,,2,,,,76,75
16440,note_off,120,0,4,,,,,,,,2,,,,76,64
16440,note_on,0,0,8,,,,,,,,5,,,,66,75
16440,note_off,120,0,3,,,,,,,,2,,,,79,64
16440,note_on,0,0,3,,,,,,,,2,,,,78,75
16440,note_on,0,0,6,,,,,,,,3,,,,74,75
16440,note_off,120,0,6,,,,,,,,3,,,,76,64
16440,note_off,120,0,10,,,,,,,,11,,,,79,64
16440,note_off,120,0,5,,,,,,,,3,,,,79,64
16440,note_on,0,0,5,,,,,,,,3,,,,78,75
16440,note_on,0,0,2,,,,,,,,1,,,,74,75
16440,note_on,0,0,10,,,,,,,,11,,,,78,75
16440,note_off,120,0,1,,,,,,,,0,,,,79,64
16440,note_off,120,0,12,,,,,,,,13,,,,67,64
16440,note_off,120,0,8,,,,,,,,5,,,,67,64
16440,note_on,0,0,9,,,,,,,,5,,,,62,75
16440,note_off,120,0,9,,,,,,,,5,,,,64,64
16440,note_off,120,0,2,,,,,,,,1,,,,76,64
16440,note_on,0,0,12,,,,,,,,13,,,,66,75
16440,note_on,0,0,1,,,,,,,,0,,,,78,75
16440,note_on,0,0,11,,,,,,,,12,,,,74,75
16440,note_off,120,0,11,,,,,,,,12,,,,76,64
16440,note_on,0,0,4,,,,,,,,2,,,,74,75
16555,note_off,115,0,2,,,,,,,,1,,,,74,64
16555,note_off,115,0,11,,,,,,,,12,,,,74,64
16555,note_off,115,0,6,,,,,,,,3,,,,74,64
16555,note_off,115,0,4,,,,,,,,2,,,,74,64
16560,note_off,120,0,12,,,,,,,,13,,,,66,64
16560,note_on,0,0,12,,,,,,,,13,,,,64,75
16560,note_on,5,0,6,,,,,,,,3,,,,73,75
16560,note_on,0,0,10,,,,,,,,11,,,,76,75
16560,note_on,5,0,2,,,,,,,,1,,,,73,75
16560,set_tempo,2160,1,0,1200000,,,,,,,,,,,,
16560,note_on,5,0,4,,,,,,,,2,,,,73,75
16560,note_off,120,0,1,,,,,,,,0,,,,78,64
16560,note_off,120,0,9,,,,,,,,5,,,,62,64
16560,note_on,0,0,9,,,,,,,,5,,,,57,75
16560,note_off,120,0,8,,,,,,,,5,,,,66,64
16560,note_on,0,0,1,,,,,,,,0,,,,76,75
16560,note_on,0,0,5,,,,,,,,3,,,,76,75
16560,note_off,120,0,5,,,,,,,,3,,,,78,64
16560,note_on,5,0,11,,,,,,,,12,,,,73,75
16560,note_off,120,0,10,,,,,,,,11,,,,78,64
16560,note_on,0,0,3,,,,,,,,2,,,,76,75
16560,note_off,120,0,3,,,,,,,,2,,,,78,64
16560,note_on,0,0,8,,,,,,,,5,,,,64,75
16680,note_on,0,0,11,,,,,,,,12,,,,74,75
16680,note_on,0,0,2,,,,,,,,1,,,,74,75
16680,note_off,120,0,6,,,,,,,,3,,,,73,64
16680,note_on,0,0,6,,,,,,,,3,,,,74,75
16680,note_off,120,0,2,,,,,,,,1,,,,73,64
16680,note_off,120,0,4,,,,,,,,2,,,,73,64
16680,note_on,0,0,4,,,,,,,,2,,,,74,75
16680,note_off,120,0,11,,,,,,,,12,,,,73,64
16795,note_off,235,0,12,,,,,,,,13,,,,64,64
16795,note_off,3115,0,13,,,,,,,,14,,,,57,64
16795,note_off,235,0,5,,,,,,,,3,,,,76,64
16795,note_off,235,0,1,,,,,,,,0,,,,76,64
16795,note_off,235,0,3,,,,,,,,2,,,,76,64
16795,note_off,235,0,10,,,,,,,,11,,,,76,64
16795,note_off,3115,0,7,,,,,,,,4,,,,57,64
16800,note_on,5,0,7,,,,,,,,4,,,,61,75
16800,note_on,5,0,5,,,,,,,,3,,,,69,75
16800,note_on,0,0,4,,,,,,,,2,,,,76,75
16800,note_off,120,0,4,,,,,,,,2,,,,74,64
16800,note_on,5,0,10,,,,,,,,11,,,,69,75
16800,note_on,0,0,6,,,,,,,,3,,,,76,75
16800,note_off,120,0,6,,,,,,,,3,,,,74,64
16800,set_tempo,240,1,0,1153846,,,,,,,,,,,,
16800,note_on,5,0,13,,,,,,,,14,,,,61,75
16800,note_on,0,0,11,,,,,,,,12,,,,76,75
16800,note_off,120,0,11,,,,,,,,12,,,,74,64
16800,note_on,5,0,12,,,,,,,,13,,,,57,75
16800,note_on,5,0,1,,,,,,,,0,,,,69,75
16800,note_off,120,0,2,,,,,,,,1,,,,74,64
16800,note_on,5,0,3,,,,,,,,2,,,,69,75
16800,note_on,0,0,2,,,,,,,,1,,,,76,75
16920,note_on,0,0,3,,,,,,,,2,,,,71,75
16920,note_on,0,0,1,,,,,,,,0,,,,71,75
16920,note_on,0,0,12,,,,,,,,13,,,,59,75
16920,note_off,120,0,12,,,,,,,,13,,,,57,64
16920,note_off,120,0,3,,,,,,,,2,,,,69,64
16920,note_on,0,0,5,,,,,,,,3,,,,71,75
16920,note_off,120,0,10,,,,,,,,11,,,,69,64
16920,note_on,0,0,10,,,,,,,,11,,,,71,75
16920,note_off,120,0,5,,,,,,,,3,,,,69,64
16920,note_off,120,0,1,,,,,,,,0,,,,69,64
16960,note_off,3280,0,14,,,,,,,,15,,,,33,64
17040,note_off,120,0,3,,,,,,,,2,,,,71,64
17040,note_on,0,0,3,,,,,,,,2,,,,73,75
17040,note_on,0,0,5,,,,,,,,3,,,,73,75
17040,note_on,0,0,12,,,,,,,,13,,,,61,75
17040,note_on,80,0,14,,,,,,,,15,,,,40,75
17040,note_off,240,0,7,,,,,,,,4,,,,61,64
17040,note_on,0,0,7,,,,,,,,4,,,,64,75
17040,note_on,0,0,1,,,,,,,,0,,,,73,75
17040,note_off,120,0,12,,,,,,,,13,,,,59,64
17040,note_off,120,0,5,,,,,,,,3,,,,71,64
17040,note_off,120,0,1,,,,,,,,0,,,,71,64
17040,note_on,0,0,13,,,,,,,,14,,,,64,75
17040,note_on,0,0,10,,,,,,,,11,,,,73,75
17040,note_off,120,0,10,,,,,,,,11,,,,71,64
17040,note_off,240,0,13,,,,,,,,14,,,,61,64
17160,note_on,0,0,12,,,,,,,,13,,,,62,75
17160,note_off,120,0,10,,,,,,,,11,,,,73,64
17160,note_on,0,0,10,,,,,,,,11,,,,74,75
17160,note_off,120,0,12,,,,,,,,13,,,,61,64
17160,note_off,120,0,5,,,,,,,,3,,,,73,64
17160,note_off,120,0,3,,,,,,,,2,,,,73,64
17160,note_on,0,0,1,,,,,,,,0,,,,74,75
17160,note_off,120,0,1,,,,,,,,0,,,,73,64
17160,note_on,0,0,5,,,,,,,,3,,,,74,75
17160,note_on,0,0,3,,,,,,,,2,,,,74,75
17200,note_off,640,0,8,,,,,,,,5,,,,64,64
17200,note_off,400,0,4,,,,,,,,2,,,,76,64
17200,note_off,640,0,9,,,,,,,,5,,,,57,64
17200,note_off,400,0,11,,,,,,,,12,,,,76,64
17200,note_off,400,0,6,,,,,,,,3,,,,76,64
17200,note_off,400,0,2,,,,,,,,1,,,,76,64
17275,note_off,235,0,7,,,,,,,,4,,,,64,64
17275,note_off,115,0,12,,,,,,,,13,,,,62,64
17275,note_off,115,0,10,,,,,,,,11,,,,74,64
17275,note_off,115,0,1,,,,,,,,0,,,,74,64
17275,note_off,235,0,13,,,,,,,,14,,,,64,64
17275,note_off,115,0,5,,,,,,,,3,,,,74,64
17275,note_off,115,0,3,,,,,,,,2,,,,74,64
17275,note_off,235,0,14,,,,,,,,15,,,,40,64
17280,note_on,5,0,7,,,,,,,,4,,,,61,75
17280,note_on,5,0,14,,,,,,,,15,,,,37,75
17280,note_on,80,0,8,,,,,,,,5,,,,64,75
17280,note_on,5,0,12,,,,,,,,13,,,,64,75
17280,set_tempo,480,1,0,1111111,,,,,,,,,,,,
17280,note_on,5,0,5,,,,,,,,3,,,,76,75
17280,note_on,80,0,11,,,,,,,,12,,,,69,75
17280,note_on,5,0,13,,,,,,,,14,,,,61,75
17280,note_on,80,0,9,,,,,,,,5,,,,57,75
17280,note_on,5,0,10,,,,,,,,11,,,,76,75
17280,note_on,80,0,4,,,,,,,,2,,,,69,75
17280,note_on,5,0,1,,,,,,,,0,,,,76,75
17280,note_on,5,0,3,,,,,,,,2,,,,76,75
17280,note_on,80,0,6,,,,,,,,3,,,,69,75
17280,note_on,80,0,2,,,,,,,,1,,,,69,75
17400,note_on,0,0,11,,,,,,,,12,,,,71,73
17400,note_off,120,0,11,,,,,,,,12,,,,69,64
17400,note_off,120,0,6,,,,,,,,3,,,,69,64
17400,note_off,120,0,2,,,,,,,,1,,,,69,64
17400,note_on,0,0,2,,,,,,,,1,,,,71,73
17400,note_on,0,0,6,,,,,,,,3,,,,71,73
17400,note_off,120,0,4,,,,,,,,2,,,,69,64
17400,note_on,0,0,4,,,,,,,,2,,,,71,73
17520,note_off,120,0,6,,,,,,,,3,,,,71,64
17520,note_on,0,0,13,,,,,,,,14,,,,57,70
17520,note_off,240,0,7,,,,,,,,4,,,,61,64
17520,note_on,0,0,7,,,,,,,,4,,,,57,70
17520,note_on,0,0,11,,,,,,,,12,,,,73,71
17520,note_on,0,0,6,,,,,,,,3,,,,73,71
17520,note_off,120,0,11,,,,,,,,12,,,,71,64
17520,note_on,0,0,4,,,,,,,,2,,,,73,71
17520,note_off,120,0,4,,,,,,,,2,,,,71,64
17520,note_on,0,0,2,,,,,,,,1,,,,73,71
17520,note_off,120,0,2,,,,,,,,1,,,,71,64
17520,note_off,240,0,13,,,,,,,,14,,,,61,64
17760,note_off,480,0,8,,,,,,,,5,,,,64,64
17760,note_off,480,0,12,,,,,,,,13,,,,64,64
17760,note_on,0,0,12,,,,,,,,13,,,,66,65
17760,note_on,0,0,1,,,,,,,,0,,,,78,65
17760,note_on,0,0,9,,,,,,,,5,,,,57,63
17760,note_off,480,0,9,,,,,,,,5,,,,57,64
17760,note_off,480,0,1,,,,,,,,0,,,,76,64
17760,note_off,240,0,13,,,,,,,,14,,,,57,64
17760,note_on,0,0,4,,,,,,,,2,,,,74,66
17760,note_off,480,0,3,,,,,,,,2,,,,76,64
17760,note_on,0,0,3,,,,,,,,2,,,,78,65
17760,note_off,240,0,2,,,,,,,,1,,,,73,64
17760,note_on,0,0,2,,,,,,,,1,,,,74,66
17760,note_off,240,0,4,,,,,,,,2,,,,73,64
17760,note_off,240,0,11,,,,,,,,12,,,,73,64
17760,note_on,0,0,11,,,,,,,,12,,,,74,66
17760,note_on,0,0,13,,,,,,,,14,,,,50,65
17760,note_on,0,0,10,,,,,,,,11,,,,78,65
17760,note_off,480,0,5,,,,,,,,3,,,,76,64
17760,note_on,0,0,8,,,,,,,,5,,,,66,63
17760,note_on,0,0,6,,,,,,,,3,,,,74,66
17760,note_off,240,0,6,,,,,,,,3,,,,73,64
17760,note_off,480,0,14,,,,,,,,15,,,,37,64
17760,note_on,0,0,14,,,,,,,,15,,,,38,65
17760,note_off,240,0,7,,,,,,,,4,,,,57,64
17760,note_on,0,0,7,,,,,,,,4,,,,50,65
17760,note_on,0,0,5,,,,,,,,3,,,,78,65
17760,note_off,480,0,10,,,,,,,,11,,,,76,64
17995,note_off,235,0,11,,,,,,,,12,,,,74,64
17995,note_off,235,0,12,,,,,,,,13,,,,66,64
17995,note_off,235,0,2,,,,,,,,1,,,,74,64
17995,note_off,235,0,5,,,,,,,,3,,,,78,64
17995,note_off,235,0,6,,,,,,,,3,,,,74,64
17995,note_off,235,0,7,,,,,,,,4,,,,50,64
17995,note_off,235,0,8,,,,,,,,5,,,,66,64
17995,note_off,235,0,14,,,,,,,,15,,,,38,64
17995,note_off,235,0,10,,,,,,,,11,,,,78,64
17995,note_off,235,0,3,,,,,,,,2,,,,78,64
17995,note_off,235,0,13,,,,,,,,14,,,,50,64
17995,note_off,235,0,9,,,,,,,,5,,,,57,64
17995,note_off,235,0,1,,,,,,,,0,,,,78,64
17995,note_off,235,0,4,,,,,,,,2,,,,74,64
18000,note_on,5,0,8,,,,,,,,5,,,,68,57
18000,note_on,5,0,7,,,,,,,,4,,,,52,60
18000,note_on,5,0,12,,,,,,,,13,,,,68,60
18000,note_on,5,0,9,,,,,,,,5,,,,64,57
18000,note_on,5,0,6,,,,,,,,3,,,,71,61
18000,note_on,5,0,10,,,,,,,,11,,,,80,60
18000,note_on,5,0,2,,,,,,,,1,,,,71,61
18000,note_on,5,0,14,,,,,,,,15,,,,40,60
18000,note_on,5,0,1,,,,,,,,0,,,,80,60
18000,note_on,5,0,11,,,,,,,,12,,,,71,61
18000,note_on,5,0,3,,,,,,,,2,,,,80,60
18000,note_on,5,0,13,,,,,,,,14,,,,52,60
18000,note_on,5,0,5,,,,,,,,3,,,,80,60
18000,note_on,5,0,4,,,,,,,,2,,,,71,61
18025,note_off,25,0,10,,,,,,,,11,,,,80,64
18025,note_off,25,0,5,,,,,,,,3,,,,80,64
18025,note_off,25,0,3,,,,,,,,2,,,,80,64
18030,note_on,5,0,3,,,,,,,,2,,,,81,60
18030,note_off,30,0,1,,,,,,,,0,,,,80,64
18030,note_off,30,0,12,,,,,,,,13,,,,68,64
18030,note_on,0,0,12,,,,,,,,13,,,,69,60
18030,note_off,30,0,4,,,,,,,,2,,,,71,64
18030,note_off,30,0,6,,,,,,,,3,,,,71,64
18030,note_on,0,0,6,,,,,,,,3,,,,73,61
18030,note_on,0,0,1,,,,,,,,0,,,,81,60
18030,note_off,30,0,11,,,,,,,,12,,,,71,64
18030,note_on,5,0,10,,,,,,,,11,,,,81,60
18030,note_on,0,0,11,,,,,,,,12,,,,73,61
18030,note_on,5,0,5,,,,,,,,3,,,,81,60
18030,note_on,0,0,4,,,,,,,,2,,,,73,61
18030,note_on,0,0,2,,,,,,,,1,,,,73,61
18030,note_off,30,0,2,,,,,,,,1,,,,71,64
18055,note_off,25,0,10,,,,,,,,11,,,,81,64
18055,note_off,25,0,3,,,,,,,,2,,,,81,64
18055,note_off,25,0,5,,,,,,,,3,,,,81,64
18060,note_on,5,0,5,,,,,,,,3,,,,80,60
18060,note_on,5,0,10,,,,,,,,11,,,,80,60
18060,note_on,5,0,3,,,,,,,,2,,,,80,60
18060,note_on,0,0,12,,,,,,,,13,,,,68,60
18060,note_off,30,0,2,,,,,,,,1,,,,73,64
18060,note_off,30,0,12,,,,,,,,13,,,,69,64
18060,note_off,30,0,1,,,,,,,,0,,,,81,64
18060,note_off,30,0,6,,,,,,,,3,,,,73,64
18060,note_on,0,0,6,,,,,,,,3,,,,71,61
18060,note_on,0,0,4,,,,,,,,2,,,,71,61
18060,note_off,30,0,4,,,,,,,,2,,,,73,64
18060,note_on,0,0,11,,,,,,,,12,,,,71,61
18060,note_off,30,0,11,,,,,,,,12,,,,73,64
18060,note_on,0,0,2,,,,,,,,1,,,,71,61
18060,note_on,0,0,1,,,,,,,,0,,,,80,60
18085,note_off,25,0,3,,,,,,,,2,,,,80,64
18085,note_off,25,0,10,,,,,,,,11,,,,80,64
18085,note_off,25,0,5,,,,,,,,3,,,,80,64
18090,note_on,0,0,12,,,,,,,,13,,,,69,60
18090,note_on,5,0,10,,,,,,,,11,,,,81,60
18090,note_on,0,0,4,,,,,,,,2,,,,73,61
18090,note_off,30,0,11,,,,,,,,12,,,,71,64
18090,note_off,30,0,6,,,,,,,,3,,,,71,64
18090,note_off,30,0,12,,,,,,,,13,,,,68,64
18090,note_off,30,0,2,,,,,,,,1,,,,71,64
18090,note_on,0,0,11,,,,,,,,12,,,,73,61
18090,note_on,0,0,2,,,,,,,,1,,,,73,61
18090,note_on,5,0,5,,,,,,,,3,,,,81,60
18090,note_on,5,0,3,,,,,,,,2,,,,81,60
18090,note_off,30,0,1,,,,,,,,0,,,,80,64
18090,note_on,0,0,1,,,,,,,,0,,,,81,60
18090,note_on,0,0,6,,,,,,,,3,,,,73,61
18090,note_off,30,0,4,,,,,,,,2,,,,71,64
18115,note_off,25,0,3,,,,,,,,2,,,,81,64
18115,note_off,25,0,5,,,,,,,,3,,,,81,64
18115,note_off,25,0,10,,,,,,,,11,,,,81,64
18120,note_off,30,0,2,,,,,,,,1,,,,73,64
18120,note_off,30,0,1,,,,,,,,0,,,,81,64
18120,note_on,0,0,1,,,,,,,,0,,,,80,60
18120,note_on,0,0,11,,,,,,,,12,,,,71,61
18120,note_off,30,0,11,,,,,,,,12,,,,73,64
18120,note_off,30,0,6,,,,,,,,3,,,,73,64
18120,note_on,5,0,3,,,,,,,,2,,,,80,60
18120,note_on,0,0,4,,,,,,,,2,,,,71,61
18120,note_on,0,0,6,,,,,,,,3,,,,71,61
18120,note_off,30,0,4,,,,,,,,2,,,,73,64
18120,note_on,0,0,2,,,,,,,,1,,,,71,61
18120,note_on,0,0,12,,,,,,,,13,,,,68,60
18120,note_off,30,0,12,,,,,,,,13,,,,69,64
18120,note_on,5,0,10,,,,,,,,11,,,,80,60
18120,note_on,5,0,5,,,,,,,,3,,,,80,60
18145,note_off,25,0,10,,,,,,,,11,,,,80,64
18145,note_off,25,0,3,,,,,,,,2,,,,80,64
18145,note_off,25,0,5,,,,,,,,3,,,,80,64
18150,note_off,30,0,1,,,,,,,,0,,,,80,64
18150,note_on,0,0,1,,,,,,,,0,,,,81,60
18150,note_on,5,0,3,,,,,,,,2,,,,81,60
18150,note_on,0,0,12,,,,,,,,13,,,,69,60
18150,note_on,5,0,10,,,,,,,,11,,,,81,60
18150,note_off,30,0,11,,,,,,,,12,,,,71,64
18150,note_on,0,0,11,,,,,,,,12,,,,73,61
18150,note_on,5,0,5,,,,,,,,3,,,,81,60
18150,note_off,30,0,4,,,,,,,,2,,,,71,64
18150,note_off,30,0,12,,,,,,,,13,,,,68,64
18150,note_on,0,0,6,,,,,,,,3,,,,73,61
18150,note_on,0,0,2,,,,,,,,1,,,,73,61
18150,note_off,30,0,2,,,,,,,,1,,,,71,64
18150,note_off,30,0,6,,,,,,,,3,,,,71,64
18150,note_on,0,0,4,,,,,,,,2,,,,73,61
18175,note_off,25,0,5,,,,,,,,3,,,,81,64
18175,note_off,25,0,10,,,,,,,,11,,,,81,64
18175,note_off,25,0,3,,,,,,,,2,,,,81,64
18180,note_off,30,0,4,,,,,,,,2,,,,73,64
18180,note_on,0,0,4,,,,,,,,2,,,,71,61
18180,note_on,0,0,1,,,,,,,,0,,,,80,60
18180,note_on,0,0,12,,,,,,,,13,,,,68,60
18180,note_off,30,0,12,,,,,,,,13,,,,69,64
18180,note_on,0,0,2,,,,,,,,1,,,,71,61
18180,note_on,5,0,10,,,,,,,,11,,,,80,60
18180,note_on,0,0,6,,,,,,,,3,,,,71,61
18180,note_off,30,0,2,,,,,,,,1,,,,73,64
18180,note_off,30,0,6,,,,,,,,3,,,,73,64
18180,note_off,30,0,11,,,,,,,,12,,,,73,64
18180,note_on,0,0,11,,,,,,,,12,,,,71,61
18180,note_on,5,0,5,,,,,,,,3,,,,80,60
18180,note_on,5,0,3,,,,,,,,2,,,,80,60
18180,note_off,30,0,1,,,,,,,,0,,,,81,64
18205,note_off,25,0,3,,,,,,,,2,,,,80,64
18205,note_off,25,0,10,,,,,,,,11,,,,80,64
18205,note_off,25,0,5,,,,,,,,3,,,,80,64
18210,note_off,30,0,11,,,,,,,,12,,,,71,64
18210,note_on,0,0,12,,,,,,,,13,,,,69,60
18210,note_off,30,0,12,,,,,,,,13,,,,68,64
18210,note_on,5,0,10,,,,,,,,11,,,,81,60
18210,note_on,5,0,5,,,,,,,,3,,,,81,60
18210,note_off,30,0,2,,,,,,,,1,,,,71,64
18210,note_on,0,0,4,,,,,,,,2,,,,73,61
18210,note_on,0,0,6,,,,,,,,3,,,,73,61
18210,note_on,0,0,2,,,,,,,,1,,,,73,61
18210,note_off,30,0,6,,,,,,,,3,,,,71,64
18210,note_off,30,0,1,,,,,,,,0,,,,80,64
18210,note_on,0,0,1,,,,,,,,0,,,,81,60
18210,note_on,5,0,3,,,,,,,,2,,,,81,60
18210,note_on,0,0,11,,,,,,,,12,,,,73,61
18210,note_off,30,0,4,,,,,,,,2,,,,71,64
18235,note_off,25,0,3,,,,,,,,2,,,,81,64
18235,note_off,25,0,10,,,,,,,,11,,,,81,64
18235,note_off,25,0,5,,,,,,,,3,,,,81,64
18240,note_off,30,0,1,,,,,,,,0,,,,81,64
18240,note_on,5,0,3,,,,,,,,2,,,,80,60
18240,note_off,30,0,12,,,,,,,,13,,,,69,64
18240,note_on,0,0,12,,,,,,,,13,,,,68,60
18240,note_on,0,0,1,,,,,,,,0,,,,80,60
18240,note_on,5,0,5,,,,,,,,3,,,,80,60
18240,note_off,30,0,6,,,,,,,,3,,,,73,64
18240,note_on,0,0,6,,,,,,,,3,,,,71,61
18240,note_on,0,0,11,,,,,,,,12,,,,71,61
18240,note_off,30,0,11,,,,,,,,12,,,,73,64
18240,note_off,30,0,2,,,,,,,,1,,,,73,64
18240,note_on,5,0,10,,,,,,,,11,,,,80,60
18240,note_on,0,0,2,,,,,,,,1,,,,71,61
18240,note_on,0,0,4,,,,,,,,2,,,,71,61
18240,note_off,30,0,4,,,,,,,,2,,,,73,64
18265,note_off,25,0,3,,,,,,,,2,,,,80,64
18265,note_off,25,0,5,,,,,,,,3,,,,80,64
18265,note_off,25,0,10,,,,,,,,11,,,,80,64
18270,note_on,5,0,10,,,,,,,,11,,,,81,60
18270,note_off,30,0,1,,,,,,,,0,,,,80,64
18270,note_on,0,0,1,,,,,,,,0,,,,81,60
18270,note_on,0,0,11,,,,,,,,12,,,,73,60
18270,note_on,5,0,5,,,,,,,,3,,,,81,60
18270,note_on,0,0,2,,,,,,,,1,,,,73,60
18270,note_off,30,0,11,,,,,,,,12,,,,71,64
18270,note_on,0,0,6,,,,,,,,3,,,,73,60
18270,note_off,30,0,4,,,,,,,,2,,,,71,64
18270,note_on,0,0,4,,,,,,,,2,,,,73,60
18270,note_on,0,0,12,,,,,,,,13,,,,69,60
18270,note_off,30,0,6,,,,,,,,3,,,,71,64
18270,note_off,30,0,2,,,,,,,,1,,,,71,64
18270,note_off,30,0,12,,,,,,,,13,,,,68,64
18270,note_on,5,0,3,,,,,,,,2,,,,81,60
18295,note_off,25,0,5,,,,,,,,3,,,,81,64
18295,note_off,25,0,3,,,,,,,,2,,,,81,64
18295,note_off,25,0,10,,,,,,,,11,,,,81,64
18300,note_on,0,0,11,,,,,,,,12,,,,71,59
18300,note_on,0,0,2,,,,,,,,1,,,,71,59
18300,note_on,5,0,5,,,,,,,,3,,,,80,59
18300,note_on,5,0,3,,,,,,,,2,,,,80,59
18300,note_on,5,0,10,,,,,,,,11,,,,80,59
18300,note_off,30,0,4,,,,,,,,2,,,,73,64
18300,note_on,0,0,4,,,,,,,,2,,,,71,59
18300,note_on,0,0,6,,,,,,,,3,,,,71,59
18300,note_off,30,0,6,,,,,,,,3,,,,73,64
18300,note_off,30,0,1,,,,,,,,0,,,,81,64
18300,note_on,0,0,1,,,,,,,,0,,,,80,59
18300,note_on,0,0,12,,,,,,,,13,,,,68,59
18300,note_off,30,0,12,,,,,,,,13,,,,69,64
18300,note_off,30,0,11,,,,,,,,12,,,,73,64
18300,note_off,30,0,2,,,,,,,,1,,,,73,64
18325,note_off,25,0,5,,,,,,,,3,,,,80,64
18325,note_off,25,0,10,,,,,,,,11,,,,80,64
18325,note_off,25,0,3,,,,,,,,2,,,,80,64
18330,note_on,0,0,12,,,,,,,,13,,,,69,58
18330,note_on,0,0,6,,,,,,,,3,,,,73,58
18330,note_off,30,0,6,,,,,,,,3,,,,71,64
18330,note_off,30,0,4,,,,,,,,2,,,,71,64
18330,note_on,0,0,2,,,,,,,,1,,,,73,58
18330,note_off,30,0,2,,,,,,,,1,,,,71,64
18330,note_on,5,0,5,,,,,,,,3,,,,81,58
18330,note_on,5,0,10,,,,,,,,11,,,,81,58
18330,note_on,0,0,4,,,,,,,,2,,,,73,58
18330,note_off,30,0,11,,,,,,,,12,,,,71,64
18330,note_on,0,0,11,,,,,,,,12,,,,73,58
18330,note_off,30,0,1,,,,,,,,0,,,,80,64
18330,note_on,0,0,1,,,,,,,,0,,,,81,58
18330,note_off,30,0,12,,,,,,,,13,,,,68,64
18330,note_on,5,0,3,,,,,,,,2,,,,81,58
18355,note_off,25,0,3,,,,,,,,2,,,,81,64
18355,note_off,25,0,5,,,,,,,,3,,,,81,64
18355,note_off,25,0,10,,,,,,,,11,,,,81,64
18355,note_off,25,0,1,,,,,,,,0,,,,81,64
18360,note_off,30,0,4,,,,,,,,2,,,,73,64
18360,note_on,0,0,4,,,,,,,,2,,,,69,57
18360,note_off,30,0,11,,,,,,,,12,,,,73,64
18360,note_on,5,0,5,,,,,,,,3,,,,78,57
18360,note_on,5,0,1,,,,,,,,0,,,,78,57
18360,note_on,0,0,11,,,,,,,,12,,,,69,57
18360,note_on,0,0,12,,,,,,,,13,,,,66,57
18360,note_off,30,0,12,,,,,,,,13,,,,69,64
18360,note_off,30,0,6,,,,,,,,3,,,,73,64
18360,note_off,30,0,2,,,,,,,,1,,,,73,64
18360,note_on,0,0,2,,,,,,,,1,,,,69,57
18360,note_on,5,0,10,,,,,,,,11,,,,78,57
18360,note_on,5,0,3,,,,,,,,2,,,,78,57
18360,note_on,0,0,6,,,,,,,,3,,,,69,57
18420,note_off,60,0,12,,,,,,,,13,,,,66,64
18420,note_on,0,0,5,,,,,,,,3,,,,80,55
18420,note_off,60,0,5,,,,,,,,3,,,,78,64
18420,note_on,0,0,1,,,,,,,,0,,,,80,55
18420,note_off,60,0,1,,,,,,,,0,,,,78,64
18420,note_on,0,0,10,,,,,,,,11,,,,80,55
18420,note_off,60,0,10,,,,,,,,11,,,,78,64
18420,note_on,0,0,11,,,,,,,,12,,,,71,55
18420,note_off,60,0,11,,,,,,,,12,,,,69,64
18420,note_off,60,0,6,,,,,,,,3,,,,69,64
18420,note_on,0,0,12,,,,,,,,13,,,,68,55
18420,note_on,0,0,6,,,,,,,,3,,,,71,55
18420,note_on,0,0,4,,,,,,,,2,,,,71,55
18420,note_off,60,0,2,,,,,,,,1,,,,69,64
18420,note_on,0,0,2,,,,,,,,1,,,,71,55
18420,note_off,60,0,3,,,,,,,,2,,,,78,64
18420,note_on,0,0,3,,,,,,,,2,,,,80,55
18420,note_off,60,0,4,,,,,,,,2,,,,69,64
18480,note_off,60,0,12,,,,,,,,13,,,,68,64
18480,note_on,0,0,13,,,,,,,,14,,,,45,50
18480,note_off,480,0,13,,,,,,,,14,,,,52,64
18480,note_on,0,0,3,,,,,,,,2,,,,81,53
18480,note_on,0,0,9,,,,,,,,5,,,,64,45
18480,note_off,480,0,9,,,,,,,,5,,,,64,64
18480,note_on,0,0,2,,,,,,,,1,,,,73,53
18480,note_off,60,0,2,,,,,,,,1,,,,71,64
18480,note_off,60,0,6,,,,,,,,3,,,,71,64
18480,note_off,60,0,3,,,,,,,,2,,,,80,64
18480,note_off,480,0,14,,,,,,,,15,,,,40,64
18480,note_on,0,0,14,,,,,,,,15,,,,33,50
18480,note_off,60,0,4,,,,,,,,2,,,,71,64
18480,note_on,0,0,4,,,,,,,,2,,,,73,53
18480,note_off,480,0,7,,,,,,,,4,,,,52,64
18480,note_on,0,0,7,,,,,,,,4,,,,45,50
18480,note_off,60,0,11,,,,,,,,12,,,,71,64
18480,note_on,0,0,12,,,,,,,,13,,,,69,53
18480,note_off,60,0,10,,,,,,,,11,,,,80,64
18480,note_on,0,0,10,,,,,,,,11,,,,81,53
18480,note_off,480,0,8,,,,,,,,5,,,,68,64
18480,note_on,0,0,8,,,,,,,,5,,,,69,45
18480,note_off,60,0,5,,,,,,,,3,,,,80,64
18480,note_on,0,0,5,,,,,,,,3,,,,81,53
18480,note_on,0,0,6,,,,,,,,3,,,,73,53
18480,note_off,60,0,1,,,,,,,,0,,,,80,64
18480,note_on,0,0,1,,,,,,,,0,,,,81,53
18480,note_on,0,0,11,,,,,,,,12,,,,73,53
18715,note_off,235,0,4,,,,,,,,2,,,,73,64
18715,note_off,235,0,1,,,,,,,,0,,,,81,64
18715,note_off,235,0,5,,,,,,,,3,,,,81,64
18715,note_off,235,0,3,,,,,,,,2,,,,81,64
18715,note_off,235,0,9,,,,,,,,5,,,,64,64
18715,note_off,235,0,13,,,,,,,,14,,,,45,64
18715,note_off,235,0,11,,,,,,,,12,,,,73,64
18715,note_off,235,0,8,,,,,,,,5,,,,69,64
18715,note_off,235,0,7,,,,,,,,4,,,,45,64
18715,note_off,235,0,14,,,,,,,,15,,,,33,64
18715,note_off,235,0,10,,,,,,,,11,,,,81,64
18715,note_off,235,0,6,,,,,,,,3,,,,73,64
18715,note_off,235,0,12,,,,,,,,13,,,,69,64
18715,note_off,235,0,2,,,,,,,,1,,,,73,64
18720,note_on,5,0,6,,,,,,,,3,,,,68,45
18720,note_on,5,0,1,,,,,,,,0,,,,71,45
18720,note_on,5,0,10,,,,,,,,11,,,,71,45
18720,note_on,5,0,12,,,,,,,,13,,,,59,45
18720,note_on,5,0,2,,,,,,,,1,,,,68,45
18720,note_on,5,0,4,,,,,,,,2,,,,68,45
18720,note_on,5,0,13,,,,,,,,14,,,,52,45
18720,set_tempo,1440,1,0,1250000,,,,,,,,,,,,
18720,note_on,5,0,11,,,,,,,,12,,,,68,45
18720,note_on,5,0,3,,,,,,,,2,,,,71,45
18720,note_on,5,0,5,,,,,,,,3,,,,71,45
18720,note_on,5,0,14,,,,,,,,15,,,,40,45
18720,note_on,5,0,7,,,,,,,,4,,,,52,45
18750,note_on,0,0,4,,,,,,,,2,,,,69,45
18750,note_off,30,0,12,,,,,,,,13,,,,59,64
18750,note_off,30,0,3,,,,,,,,2,,,,71,64
18750,note_on,0,0,3,,,,,,,,2,,,,73,45
18750,note_off,30,0,5,,,,,,,,3,,,,71,64
18750,note_on,0,0,1,,,,,,,,0,,,,73,45
18750,note_on,0,0,5,,,,,,,,3,,,,73,45
18750,note_off,30,0,10,,,,,,,,11,,,,71,64
18750,note_on,0,0,10,,,,,,,,11,,,,73,45
18750,note_off,30,0,4,,,,,,,,2,,,,68,64
18750,note_off,30,0,6,,,,,,,,3,,,,68,64
18750,note_on,0,0,12,,,,,,,,13,,,,61,45
18750,note_off,30,0,11,,,,,,,,12,,,,68,64
18750,note_on,0,0,6,,,,,,,,3,,,,69,45
18750,note_on,0,0,2,,,,,,,,1,,,,69,45
18750,note_on,0,0,11,,,,,,,,12,,,,69,45
18750,note_off,30,0,2,,,,,,,,1,,,,68,64
18750,note_off,30,0,1,,,,,,,,0,,,,71,64
18780,note_off,30,0,11,,,,,,,,12,,,,69,64
18780,note_on,0,0,12,,,,,,,,13,,,,59,45
18780,note_on,0,0,11,,,,,,,,12,,,,68,45
18780,note_on,0,0,5,,,,,,,,3,,,,71,45
18780,note_off,30,0,3,,,,,,,,2,,,,73,64
18780,note_off,30,0,5,,,,,,,,3,,,,73,64
18780,note_off,30,0,4,,,,,,,,2,,,,69,64
18780,note_on,0,0,4,,,,,,,,2,,,,68,45
18780,note_on,0,0,2,,,,,,,,1,,,,68,45
18780,note_off,30,0,1,,,,,,,,0,,,,73,64
18780,note_on,0,0,6,,,,,,,,3,,,,68,45
18780,note_off,30,0,2,,,,,,,,1,,,,69,64
18780,note_off,30,0,6,,,,,,,,3,,,,69,64
18780,note_on,0,0,10,,,,,,,,11,,,,71,45
18780,note_on,0,0,1,,,,,,,,0,,,,71,45
18780,note_on,0,0,3,,,,,,,,2,,,,71,45
18780,note_off,30,0,12,,,,,,,,13,,,,61,64
18780,note_off,30,0,10,,,,,,,,11,,,,73,64
18810,note_on,0,0,1,,,,,,,,0,,,,73,45
18810,note_off,30,0,1,,,,,,,,0,,,,71,64
18810,note_off,30,0,11,,,,,,,,12,,,,68,64
18810,note_on,0,0,11,,,,,,,,12,,,,69,45
18810,note_on,0,0,5,,,,,,,,3,,,,73,45
18810,note_off,30,0,5,,,,,,,,3,,,,71,64
18810,note_on,0,0,2,,,,,,,,1,,,,69,45
18810,note_on,0,0,10,,,,,,,,11,,,,73,45
18810,note_off,30,0,12,,,,,,,,13,,,,59,64
18810,note_off,30,0,2,,,,,,,,1,,,,68,64
18810,note_on,0,0,12,,,,,,,,13,,,,61,45
18810,note_off,30,0,3,,,,,,,,2,,,,71,64
18810,note_off,30,0,6,,,,,,,,3,,,,68,64
18810,note_on,0,0,6,,,,,,,,3,,,,69,45
18810,note_on,0,0,3,,,,,,,,2,,,,73,45
18810,note_off,30,0,4,,,,,,,,2,,,,68,64
18810,note_on,0,0,4,,,,,,,,2,,,,69,45
18810,note_off,30,0,10,,,,,,,,11,,,,71,64
18840,note_off,30,0,10,,,,,,,,11,,,,73,64
18840,note_off,30,0,12,,,,,,,,13,,,,61,64
18840,note_on,0,0,4,,,,,,,,2,,,,68,45
18840,note_on,0,0,1,,,,,,,,0,,,,71,45
18840,note_off,30,0,1,,,,,,,,0,,,,73,64
18840,note_off,30,0,4,,,,,,,,2,,,,69,64
18840,note_off,30,0,11,,,,,,,,12,,,,69,64
18840,note_on,0,0,11,,,,,,,,12,,,,68,45
18840,note_on,0,0,12,,,,,,,,13,,,,59,45
18840,note_off,30,0,6,,,,,,,,3,,,,69,64
18840,note_on,0,0,5,,,,,,,,3,,,,71,45
18840,note_off,30,0,5,,,,,,,,3,,,,73,64
18840,note_off,30,0,2,,,,,,,,1,,,,69,64
18840,note_on,0,0,3,,,,,,,,2,,,,71,45
18840,note_off,30,0,3,,,,,,,,2,,,,73,64
18840,note_on,0,0,10,,,,,,,,11,,,,71,45
18840,note_on,0,0,6,,,,,,,,3,,,,68,45
18840,note_on,0,0,2,,,,,,,,1,,,,68,45
18870,note_off,30,0,12,,,,,,,,13,,,,59,64
18870,note_on,0,0,2,,,,,,,,1,,,,69,45
18870,note_on,0,0,5,,,,,,,,3,,,,73,45
18870,note_on,0,0,4,,,,,,,,2,,,,69,45
18870,note_off,30,0,4,,,,,,,,2,,,,68,64
18870,note_off,30,0,11,,,,,,,,12,,,,68,64
18870,note_on,0,0,11,,,,,,,,12,,,,69,45
18870,note_off,30,0,2,,,,,,,,1,,,,68,64
18870,note_off,30,0,3,,,,,,,,2,,,,71,64
18870,note_off,30,0,5,,,,,,,,3,,,,71,64
18870,note_on,0,0,3,,,,,,,,2,,,,73,45
18870,note_off,30,0,1,,,,,,,,0,,,,71,64
18870,note_on,0,0,10,,,,,,,,11,,,,73,45
18870,note_off,30,0,10,,,,,,,,11,,,,71,64
18870,note_on,0,0,12,,,,,,,,13,,,,61,45
18870,note_on,0,0,6,,,,,,,,3,,,,69,45
18870,note_off,30,0,6,,,,,,,,3,,,,68,64
18870,note_on,0,0,1,,,,,,,,0,,,,73,45
18900,note_on,0,0,2,,,,,,,,1,,,,68,45
18900,note_off,30,0,2,,,,,,,,1,,,,69,64
18900,note_on,0,0,6,,,,,,,,3,,,,68,45
18900,note_on,0,0,11,,,,,,,,12,,,,68,45
18900,note_off,30,0,11,,,,,,,,12,,,,69,64
18900,note_off,30,0,6,,,,,,,,3,,,,69,64
18900,note_on,0,0,10,,,,,,,,11,,,,71,45
18900,note_off,30,0,1,,,,,,,,0,,,,73,64
18900,note_off,30,0,12,,,,,,,,13,,,,61,64
18900,note_on,0,0,4,,,,,,,,2,,,,68,45
18900,note_on,0,0,12,,,,,,,,13,,,,59,45
18900,note_off,30,0,3,,,,,,,,2,,,,73,64
18900,note_on,0,0,5,,,,,,,,3,,,,71,45
18900,note_on,0,0,3,,,,,,,,2,,,,71,45
18900,note_off,30,0,4,,,,,,,,2,,,,69,64
18900,note_off,30,0,5,,,,,,,,3,,,,73,64
18900,note_off,30,0,10,,,,,,,,11,,,,73,64
18900,note_on,0,0,1,,,,,,,,0,,,,71,45
18930,note_off,30,0,6,,,,,,,,3,,,,68,64
18930,note_on,0,0,1,,,,,,,,0,,,,73,45
18930,note_off,30,0,3,,,,,,,,2,,,,71,64
18930,note_off,30,0,1,,,,,,,,0,,,,71,64
18930,note_off,30,0,2,,,,,,,,1,,,,68,64
18930,note_on,0,0,2,,,,,,,,1,,,,69,45
18930,note_on,0,0,4,,,,,,,,2,,,,69,45
18930,note_off,30,0,4,,,,,,,,2,,,,68,64
18930,note_on,0,0,3,,,,,,,,2,,,,73,45
18930,note_on,0,0,6,,,,,,,,3,,,,69,45
18930,note_on,0,0,12,,,,,,,,13,,,,61,45
18930,note_on,0,0,10,,,,,,,,11,,,,73,45
18930,note_off,30,0,10,,,,,,,,11,,,,71,64
18930,note_off,30,0,11,,,,,,,,12,,,,68,64
18930,note_on,0,0,5,,,,,,,,3,,,,73,45
18930,note_off,30,0,5,,,,,,,,3,,,,71,64
18930,note_on,0,0,11,,,,,,,,12,,,,69,45
18930,note_off,30,0,12,,,,,,,,13,,,,59,64
18960,note_on,0,0,12,,,,,,,,13,,,,59,45
18960,note_on,0,0,4,,,,,,,,2,,,,68,45
18960,note_on,0,0,1,,,,,,,,0,,,,71,45
18960,note_off,30,0,11,,,,,,,,12,,,,69,64
18960,note_off,30,0,6,,,,,,,,3,,,,69,64
18960,note_on,0,0,11,,,,,,,,12,,,,68,45
18960,note_off,30,0,5,,,,,,,,3,,,,73,64
18960,note_off,30,0,4,,,,,,,,2,,,,69,64
18960,note_on,0,0,10,,,,,,,,11,,,,71,45
18960,note_on,0,0,2,,,,,,,,1,,,,68,45
18960,note_on,0,0,6,,,,,,,,3,,,,68,45
18960,note_off,30,0,3,,,,,,,,2,,,,73,64
18960,note_on,0,0,5,,,,,,,,3,,,,71,45
18960,note_off,30,0,12,,,,,,,,13,,,,61,64
18960,note_off,30,0,1,,,,,,,,0,,,,73,64
18960,note_off,30,0,10,,,,,,,,11,,,,73,64
18960,note_off,30,0,2,,,,,,,,1,,,,69,64
18960,note_on,0,0,3,,,,,,,,2,,,,71,45
18990,note_off,30,0,3,,,,,,,,2,,,,71,64
18990,note_on,0,0,4,,,,,,,,2,,,,69,45
18990,note_off,30,0,5,,,,,,,,3,,,,71,64
18990,note_on,0,0,5,,,,,,,,3,,,,73,45
18990,note_off,30,0,4,,,,,,,,2,,,,68,64
18990,note_on,0,0,10,,,,,,,,11,,,,73,45
18990,note_on,0,0,12,,,,,,,,13,,,,61,45
18990,note_on,0,0,1,,,,,,,,0,,,,73,45
18990,note_off,30,0,10,,,,,,,,11,,,,71,64
18990,note_on,0,0,3,,,,,,,,2,,,,73,45
18990,note_off,30,0,11,,,,,,,,12,,,,68,64
18990,note_on,0,0,11,,,,,,,,12,,,,69,45
18990,note_off,30,0,6,,,,,,,,3,,,,68,64
18990,note_on,0,0,6,,,,,,,,3,,,,69,45
18990,note_off,30,0,2,,,,,,,,1,,,,68,64
18990,note_on,0,0,2,,,,,,,,1,,,,69,45
18990,note_off,30,0,12,,,,,,,,13,,,,59,64
18990,note_off,30,0,1,,,,,,,,0,,,,71,64
19020,note_off,30,0,10,,,,,,,,11,,,,73,64
19020,note_on,0,0,5,,,,,,,,3,,,,71,45
19020,note_on,0,0,10,,,,,,,,11,,,,71,45
19020,note_on,0,0,2,,,,,,,,1,,,,68,45
19020,note_off,30,0,6,,,,,,,,3,,,,69,64
19020,note_on,0,0,6,,,,,,,,3,,,,68,45
19020,note_off,30,0,5,,,,,,,,3,,,,73,64
19020,note_off,30,0,2,,,,,,,,1,,,,69,64
19020,note_off,30,0,4,,,,,,,,2,,,,69,64
19020,note_off,30,0,1,,,,,,,,0,,,,73,64
19020,note_on,0,0,4,,,,,,,,2,,,,68,45
19020,note_off,30,0,3,,,,,,,,2,,,,73,64
19020,note_on,0,0,11,,,,,,,,12,,,,68,45
19020,note_on,0,0,1,,,,,,,,0,,,,71,45
19020,note_off,30,0,11,,,,,,,,12,,,,69,64
19020,note_on,0,0,3,,,,,,,,2,,,,71,45
19020,note_off,30,0,12,,,,,,,,13,,,,61,64
19020,note_on,0,0,12,,,,,,,,13,,,,59,45
19050,note_off,30,0,10,,,,,,,,11,,,,71,64
19050,note_off,30,0,12,,,,,,,,13,,,,59,64
19050,note_off,30,0,3,,,,,,,,2,,,,71,64
19050,note_off,30,0,5,,,,,,,,3,,,,71,64
19050,note_off,30,0,11,,,,,,,,12,,,,68,64
19050,note_on,0,0,11,,,,,,,,12,,,,69,45
19050,note_on,0,0,6,,,,,,,,3,,,,69,45
19050,note_on,0,0,12,,,,,,,,13,,,,61,45
19050,note_on,0,0,2,,,,,,,,1,,,,69,45
19050,note_off,30,0,2,,,,,,,,1,,,,68,64
19050,note_on,0,0,3,,,,,,,,2,,,,73,45
19050,note_on,0,0,10,,,,,,,,11,,,,73,45
19050,note_on,0,0,5,,,,,,,,3,,,,73,45
19050,note_off,30,0,6,,,,,,,,3,,,,68,64
19050,note_off,30,0,1,,,,,,,,0,,,,71,64
19050,note_on,0,0,4,,,,,,,,2,,,,69,45
19050,note_on,0,0,1,,,,,,,,0,,,,73,45
19050,note_off,30,0,4,,,,,,,,2,,,,68,64
19080,note_on,0,0,10,,,,,,,,11,,,,69,45
19080,note_on,0,0,4,,,,,,,,2,,,,66,45
19080,note_off,30,0,4,,,,,,,,2,,,,69,64
19080,note_off,30,0,11,,,,,,,,12,,,,69,64
19080,note_on,0,0,11,,,,,,,,12,,,,66,45
19080,note_on,0,0,1,,,,,,,,0,,,,69,45
19080,note_off,30,0,1,,,,,,,,0,,,,73,64
19080,note_off,30,0,5,,,,,,,,3,,,,73,64
19080,note_on,0,0,5,,,,,,,,3,,,,69,45
19080,note_off,30,0,12,,,,,,,,13,,,,61,64
19080,note_on,0,0,12,,,,,,,,13,,,,57,45
19080,note_on,0,0,2,,,,,,,,1,,,,66,45
19080,note_off,30,0,2,,,,,,,,1,,,,69,64
19080,note_on,0,0,6,,,,,,,,3,,,,66,45
19080,note_off,30,0,6,,,,,,,,3,,,,69,64
19080,note_on,0,0,3,,,,,,,,2,,,,69,45
19080,note_off,30,0,3,,,,,,,,2,,,,73,64
19080,note_off,30,0,10,,,,,,,,11,,,,73,64
19140,note_off,60,0,5,,,,,,,,3,,,,69,64
19140,note_off,60,0,2,,,,,,,,1,,,,66,64
19140,note_on,0,0,2,,,,,,,,1,,,,68,45
19140,note_on,0,0,4,,,,,,,,2,,,,68,45
19140,note_on,0,0,10,,,,,,,,11,,,,71,45
19140,note_off,60,0,10,,,,,,,,11,,,,69,64
19140,note_on,0,0,5,,,,,,,,3,,,,71,45
19140,note_on,0,0,3,,,,,,,,2,,,,71,45
19140,note_off,60,0,6,,,,,,,,3,,,,66,64
19140,note_on,0,0,6,,,,,,,,3,,,,68,45
19140,note_off,60,0,3,,,,,,,,2,,,,69,64
19140,note_off,60,0,12,,,,,,,,13,,,,57,64
19140,note_off,60,0,11,,,,,,,,12,,,,66,64
19140,note_on,0,0,11,,,,,,,,12,,,,68,45
19140,note_on,0,0,1,,,,,,,,0,,,,71,45
19140,note_on,0,0,12,,,,,,,,13,,,,59,45
19140,note_off,60,0,4,,,,,,,,2,,,,66,64
19140,note_off,60,0,1,,,,,,,,0,,,,69,64
19200,note_on,0,0,10,,,,,,,,11,,,,73,45
19200,note_on,0,0,3,,,,,,,,2,,,,73,45
19200,note_on,0,0,6,,,,,,,,3,,,,69,45
19200,note_off,60,0,10,,,,,,,,11,,,,71,64
19200,note_on,0,0,1,,,,,,,,0,,,,73,45
19200,note_off,60,0,6,,,,,,,,3,,,,68,64
19200,note_off,60,0,3,,,,,,,,2,,,,71,64
19200,note_off,60,0,1,,,,,,,,0,,,,71,64
19200,note_on,0,0,2,,,,,,,,1,,,,69,45
19200,note_on,0,0,14,,,,,,,,15,,,,45,45
19200,note_off,60,0,11,,,,,,,,12,,,,68,64
19200,note_on,0,0,7,,,,,,,,4,,,,57,45
19200,note_off,480,0,7,,,,,,,,4,,,,52,64
19200,note_on,0,0,12,,,,,,,,13,,,,61,45
19200,note_off,60,0,12,,,,,,,,13,,,,59,64
19200,note_off,480,0,14,,,,,,,,15,,,,40,64
19200,note_off,60,0,4,,,,,,,,2,,,,68,64
19200,note_on,0,0,11,,,,,,,,12,,,,69,45
19200,note_off,480,0,13,,,,,,,,14,,,,52,64
19200,note_off,60,0,2,,,,,,,,1,,,,68,64
19200,note_off,60,0,5,,,,,,,,3,,,,71,64
19200,note_on,0,0,4,,,,,,,,2,,,,69,45
19200,note_on,0,0,5,,,,,,,,3,,,,73,45
19200,note_on,0,0,13,,,,,,,,14,,,,57,45
19435,note_off,235,0,7,,,,,,,,4,,,,57,64
19435,note_off,235,0,4,,,,,,,,2,,,,69,64
19435,note_off,235,0,12,,,,,,,,13,,,,61,64
19435,note_off,235,0,1,,,,,,,,0,,,,73,64
19435,note_off,235,0,2,,,,,,,,1,,,,69,64
19435,note_off,235,0,5,,,,,,,,3,,,,73,64
19435,note_off,235,0,11,,,,,,,,12,,,,69,64
19435,note_off,235,0,14,,,,,,,,15,,,,45,64
19435,note_off,235,0,6,,,,,,,,3,,,,69,64
19435,note_off,235,0,3,,,,,,,,2,,,,73,64
19435,note_off,235,0,10,,,,,,,,11,,,,73,64
19435,note_off,235,0,13,,,,,,,,14,,,,57,64
19440,note_on,5,0,3,,,,,,,,2,,,,71,45
19440,note_on,5,0,1,,,,,,,,0,,,,71,45
19440,note_on,5,0,2,,,,,,,,1,,,,68,45
19440,set_tempo,720,1,0,1363636,,,,,,,,,,,,
19440,note_on,5,0,6,,,,,,,,3,,,,68,45
19440,note_on,5,0,10,,,,,,,,11,,,,71,45
19440,note_on,5,0,7,,,,,,,,4,,,,52,45
19440,note_on,5,0,4,,,,,,,,2,,,,68,45
19440,note_on,5,0,13,,,,,,,,14,,,,52,45
19440,note_on,5,0,11,,,,,,,,12,,,,68,45
19440,note_on,5,0,5,,,,,,,,3,,,,71,45
19440,note_on,5,0,14,,,,,,,,15,,,,40,45
19440,note_on,5,0,12,,,,,,,,13,,,,59,45
19470,note_on,0,0,6,,,,,,,,3,,,,69,46
19470,note_on,0,0,2,,,,,,,,1,,,,69,46
19470,note_off,30,0,12,,,,,,,,13,,,,59,64
19470,note_on,0,0,12,,,,,,,,13,,,,61,46
19470,note_off,30,0,6,,,,,,,,3,,,,68,64
19470,note_off,30,0,2,,,,,,,,1,,,,68,64
19470,note_off,30,0,4,,,,,,,,2,,,,68,64
19470,note_off,30,0,10,,,,,,,,11,,,,71,64
19470,note_on,0,0,1,,,,,,,,0,,,,73,46
19470,note_off,30,0,3,,,,,,,,2,,,,71,64
19470,note_on,0,0,4,,,,,,,,2,,,,69,46
19470,note_off,30,0,1,,,,,,,,0,,,,71,64
19470,note_on,0,0,5,,,,,,,,3,,,,73,46
19470,note_off,30,0,5,,,,,,,,3,,,,71,64
19470,note_off,30,0,11,,,,,,,,12,,,,68,64
19470,note_on,0,0,3,,,,,,,,2,,,,73,46
19470,note_on,0,0,11,,,,,,,,12,,,,69,46
19470,note_on,0,0,10,,,,,,,,11,,,,73,46
19500,note_on,0,0,12,,,,,,,,13,,,,59,47
19500,note_off,30,0,12,,,,,,,,13,,,,61,64
19500,note_on,0,0,10,,,,,,,,11,,,,71,47
19500,note_off,30,0,10,,,,,,,,11,,,,73,64
19500,note_on,0,0,5,,,,,,,,3,,,,71,47
19500,note_on,0,0,4,,,,,,,,2,,,,68,47
19500,note_off,30,0,4,,,,,,,,2,,,,69,64
19500,note_off,30,0,11,,,,,,,,12,,,,69,64
19500,note_on,0,0,3,,,,,,,,2,,,,71,47
19500,note_off,30,0,5,,,,,,,,3,,,,73,64
19500,note_on,0,0,11,,,,,,,,12,,,,68,47
19500,note_off,30,0,1,,,,,,,,0,,,,73,64
19500,note_on,0,0,1,,,,,,,,0,,,,71,47
19500,note_off,30,0,6,,,,,,,,3,,,,69,64
19500,note_on,0,0,6,,,,,,,,3,,,,68,47
19500,note_off,30,0,2,,,,,,,,1,,,,69,64
19500,note_on,0,0,2,,,,,,,,1,,,,68,47
19500,note_off,30,0,3,,,,,,,,2,,,,73,64
19530,note_off,30,0,4,,,,,,,,2,,,,68,64
19530,note_on,0,0,4,,,,,,,,2,,,,69,48
19530,note_off,30,0,2,,,,,,,,1,,,,68,64
19530,note_off,30,0,10,,,,,,,,11,,,,71,64
19530,note_on,0,0,10,,,,,,,,11,,,,73,48
19530,note_on,0,0,2,,,,,,,,1,,,,69,48
19530,note_off,30,0,12,,,,,,,,13,,,,59,64
19530,note_on,0,0,6,,,,,,,,3,,,,69,48
19530,note_on,0,0,1,,,,,,,,0,,,,73,48
19530,note_off,30,0,1,,,,,,,,0,,,,71,64
19530,note_off,30,0,6,,,,,,,,3,,,,68,64
19530,note_on,0,0,3,,,,,,,,2,,,,73,48
19530,note_on,0,0,11,,,,,,,,12,,,,69,48
19530,note_off,30,0,11,,,,,,,,12,,,,68,64
19530,note_off,30,0,5,,,,,,,,3,,,,71,64
19530,note_on,0,0,5,,,,,,,,3,,,,73,48
19530,note_on,0,0,12,,,,,,,,13,,,,61,48
19530,note_off,30,0,3,,,,,,,,2,,,,71,64
19560,note_off,30,0,2,,,,,,,,1,,,,69,64
19560,note_on,0,0,2,,,,,,,,1,,,,68,49
19560,note_on,0,0,10,,,,,,,,11,,,,71,49
19560,note_off,30,0,10,,,,,,,,11,,,,73,64
19560,note_on,0,0,4,,,,,,,,2,,,,68,49
19560,note_on,0,0,6,,,,,,,,3,,,,68,49
19560,note_on,0,0,11,,,,,,,,12,,,,68,49
19560,note_on,0,0,1,,,,,,,,0,,,,71,49
19560,note_off,30,0,1,,,,,,,,0,,,,73,64
19560,note_off,30,0,11,,,,,,,,12,,,,69,64
19560,note_on,0,0,12,,,,,,,,13,,,,59,49
19560,note_off,30,0,12,,,,,,,,13,,,,61,64
19560,note_on,0,0,3,,,,,,,,2,,,,71,49
19560,note_off,30,0,3,,,,,,,,2,,,,73,64
19560,note_off,30,0,4,,,,,,,,2,,,,69,64
19560,note_on,0,0,5,,,,,,,,3,,,,71,49
19560,note_off,30,0,5,,,,,,,,3,,,,73,64
19560,note_off,30,0,6,,,,,,,,3,,,,69,64
19590,note_off,30,0,12,,,,,,,,13,,,,59,64
19590,note_on,0,0,3,,,,,,,,2,,,,73,50
19590,note_on,0,0,5,,,,,,,,3,,,,73,50
19590,note_off,30,0,5,,,,,,,,3,,,,71,64
19590,note_off,30,0,11,,,,,,,,12,,,,68,64
19590,note_on,0,0,11,,,,,,,,12,,,,69,50
19590,note_on,0,0,10,,,,,,,,11,,,,73,50
19590,note_off,30,0,3,,,,,,,,2,,,,71,64
19590,note_on,0,0,12,,,,,,,,13,,,,61,50
19590,note_off,30,0,10,,,,,,,,11,,,,71,64
19590,note_on,0,0,2,,,,,,,,1,,,,69,50
19590,note_on,0,0,4,,,,,,,,2,,,,69,50
19590,note_off,30,0,1,,,,,,,,0,,,,71,64
19590,note_on,0,0,1,,,,,,,,0,,,,73,50
19590,note_off,30,0,4,,,,,,,,2,,,,68,64
19590,note_off,30,0,2,,,,,,,,1,,,,68,64
19590,note_off,30,0,6,,,,,,,,3,,,,68,64
19590,note_on,0,0,6,,,,,,,,3,,,,69,50
19620,note_off,30,0,6,,,,,,,,3,,,,69,64
19620,note_on,0,0,6,,,,,,,,3,,,,68,51
19620,note_on,0,0,2,,,,,,,,1,,,,68,51
19620,note_on,0,0,10,,,,,,,,11,,,,71,51
19620,note_off,30,0,5,,,,,,,,3,,,,73,64
19620,note_on,0,0,5,,,,,,,,3,,,,71,51
19620,note_on,0,0,3,,,,,,,,2,,,,71,51
19620,note_off,30,0,3,,,,,,,,2,,,,73,64
19620,note_off,30,0,10,,,,,,,,11,,,,73,64
19620,note_off,30,0,2,,,,,,,,1,,,,69,64
19620,note_on,0,0,11,,,,,,,,12,,,,68,51
19620,note_off,30,0,4,,,,,,,,2,,,,69,64
19620,note_on,0,0,12,,,,,,,,13,,,,59,51
19620,note_off,30,0,12,,,,,,,,13,,,,61,64
19620,note_off,30,0,11,,,,,,,,12,,,,69,64
19620,note_off,30,0,1,,,,,,,,0,,,,73,64
19620,note_on,0,0,1,,,,,,,,0,,,,71,51
19620,note_on,0,0,4,,,,,,,,2,,,,68,51
19650,note_off,30,0,4,,,,,,,,2,,,,68,64
19650,note_on,0,0,3,,,,,,,,2,,,,73,52
19650,note_on,0,0,2,,,,,,,,1,,,,69,52
19650,note_off,30,0,1,,,,,,,,0,,,,71,64
19650,note_on,0,0,1,,,,,,,,0,,,,73,52
19650,note_off,30,0,3,,,,,,,,2,,,,71,64
19650,note_on,0,0,10,,,,,,,,11,,,,73,52
19650,note_off,30,0,10,,,,,,,,11,,,,71,64
19650,note_off,30,0,12,,,,,,,,13,,,,59,64
19650,note_on,0,0,4,,,,,,,,2,,,,69,52
19650,note_on,0,0,12,,,,,,,,13,,,,61,52
19650,note_off,30,0,2,,,,,,,,1,,,,68,64
19650,note_off,30,0,6,,,,,,,,3,,,,68,64
19650,note_on,0,0,6,,,,,,,,3,,,,69,52
19650,note_on,0,0,11,,,,,,,,12,,,,69,52
19650,note_off,30,0,11,,,,,,,,12,,,,68,64
19650,note_on,0,0,5,,,,,,,,3,,,,73,52
19650,note_off,30,0,5,,,,,,,,3,,,,71,64
19680,note_on,0,0,3,,,,,,,,2,,,,71,53
19680,note_on,0,0,11,,,,,,,,12,,,,68,53
19680,note_off,30,0,11,,,,,,,,12,,,,69,64
19680,note_off,30,0,3,,,,,,,,2,,,,73,64
19680,note_on,0,0,2,,,,,,,,1,,,,68,53
19680,note_off,30,0,2,,,,,,,,1,,,,69,64
19680,note_on,0,0,5,,,,,,,,3,,,,71,53
19680,note_off,30,0,5,,,,,,,,3,,,,73,64
19680,note_on,0,0,12,,,,,,,,13,,,,59,53
19680,note_off,30,0,12,,,,,,,,13,,,,61,64
19680,note_off,30,0,1,,,,,,,,0,,,,73,64
19680,note_on,0,0,4,,,,,,,,2,,,,68,53
19680,note_off,30,0,4,,,,,,,,2,,,,69,64
19680,note_on,0,0,10,,,,,,,,11,,,,71,53
19680,note_off,30,0,10,,,,,,,,11,,,,73,64
19680,note_on,0,0,6,,,,,,,,3,,,,68,53
19680,note_off,30,0,6,,,,,,,,3,,,,69,64
19680,note_on,0,0,1,,,,,,,,0,,,,71,53
19710,note_on,0,0,4,,,,,,,,2,,,,69,54
19710,note_off,30,0,4,,,,,,,,2,,,,68,64
19710,note_on,0,0,1,,,,,,,,0,,,,73,54
19710,note_on,0,0,6,,,,,,,,3,,,,69,54
19710,note_off,30,0,6,,,,,,,,3,,,,68,64
19710,note_on,0,0,12,,,,,,,,13,,,,61,54
19710,note_off,30,0,12,,,,,,,,13,,,,59,64
19710,note_off,30,0,1,,,,,,,,0,,,,71,64
19710,note_on,0,0,10,,,,,,,,11,,,,73,54
19710,note_off,30,0,11,,,,,,,,12,,,,68,64
19710,note_on,0,0,2,,,,,,,,1,,,,69,54
19710,note_off,30,0,5,,,,,,,,3,,,,71,64
19710,note_on,0,0,11,,,,,,,,12,,,,69,54
19710,note_off,30,0,2,,,,,,,,1,,,,68,64
19710,note_on,0,0,5,,,,,,,,3,,,,73,54
19710,note_on,0,0,3,,,,,,,,2,,,,73,54
19710,note_off,30,0,3,,,,,,,,2,,,,71,64
19710,note_off,30,0,10,,,,,,,,11,,,,71,64
19740,note_off,30,0,6,,,,,,,,3,,,,69,64
19740,note_on,0,0,6,,,,,,,,3,,,,68,55
19740,note_on,0,0,3,,,,,,,,2,,,,71,55
19740,note_off,30,0,10,,,,,,,,11,,,,73,64
19740,note_on,0,0,10,,,,,,,,11,,,,71,55
19740,note_off,30,0,4,,,,,,,,2,,,,69,64
19740,note_on,0,0,4,,,,,,,,2,,,,68,55
19740,note_off,30,0,3,,,,,,,,2,,,,73,64
19740,note_off,30,0,2,,,,,,,,1,,,,69,64
19740,note_on,0,0,2,,,,,,,,1,,,,68,55
19740,note_off,30,0,1,,,,,,,,0,,,,73,64
19740,note_off,30,0,12,,,,,,,,13,,,,61,64
19740,note_on,0,0,12,,,,,,,,13,,,,59,55
19740,note_on,0,0,5,,,,,,,,3,,,,71,55
19740,note_on,0,0,1,,,,,,,,0,,,,71,55
19740,note_off,30,0,5,,,,,,,,3,,,,73,64
19740,note_on,0,0,11,,,,,,,,12,,,,68,55
19740,note_off,30,0,11,,,,,,,,12,,,,69,64
19770,note_off,30,0,11,,,,,,,,12,,,,68,64
19770,note_on,0,0,5,,,,,,,,3,,,,73,56
19770,note_off,30,0,5,,,,,,,,3,,,,71,64
19770,note_off,30,0,3,,,,,,,,2,,,,71,64
19770,note_on,0,0,12,,,,,,,,13,,,,61,56
19770,note_off,30,0,6,,,,,,,,3,,,,68,64
19770,note_off,30,0,10,,,,,,,,11,,,,71,64
19770,note_on,0,0,10,,,,,,,,11,,,,73,56
19770,note_off,30,0,1,,,,,,,,0,,,,71,64
19770,note_off,30,0,4,,,,,,,,2,,,,68,64
19770,note_on,0,0,4,,,,,,,,2,,,,69,56
19770,note_on,0,0,6,,,,,,,,3,,,,69,56
19770,note_on,0,0,2,,,,,,,,1,,,,69,56
19770,note_off,30,0,2,,,,,,,,1,,,,68,64
19770,note_on,0,0,3,,,,,,,,2,,,,73,56
19770,note_on,0,0,11,,,,,,,,12,,,,69,56
19770,note_on,0,0,1,,,,,,,,0,,,,73,56
19770,note_off,30,0,12,,,,,,,,13,,,,59,64
19800,note_off,30,0,10,,,,,,,,11,,,,73,64
19800,note_on,0,0,1,,,,,,,,0,,,,69,57
19800,note_off,30,0,2,,,,,,,,1,,,,69,64
19800,note_on,0,0,10,,,,,,,,11,,,,69,57
19800,note_off,30,0,3,,,,,,,,2,,,,73,64
19800,note_off,30,0,11,,,,,,,,12,,,,69,64
19800,note_on,0,0,11,,,,,,,,12,,,,66,57
19800,note_on,0,0,6,,,,,,,,3,,,,66,57
19800,note_off,30,0,6,,,,,,,,3,,,,69,64
19800,note_off,30,0,1,,,,,,,,0,,,,73,64
19800,note_on,0,0,2,,,,,,,,1,,,,66,57
19800,note_on,0,0,3,,,,,,,,2,,,,69,57
19800,note_off,30,0,4,,,,,,,,2,,,,69,64
19800,note_on,0,0,4,,,,,,,,2,,,,66,57
19800,note_on,0,0,5,,,,,,,,3,,,,69,57
19800,note_off,30,0,5,,,,,,,,3,,,,73,64
19800,note_on,0,0,12,,,,,,,,13,,,,57,57
19800,note_off,30,0,12,,,,,,,,13,,,,61,64
19860,note_on,0,0,2,,,,,,,,1,,,,68,60
19860,note_off,60,0,1,,,,,,,,0,,,,69,64
19860,note_off,60,0,4,,,,,,,,2,,,,66,64
19860,note_off,60,0,2,,,,,,,,1,,,,66,64
19860,note_on,0,0,12,,,,,,,,13,,,,59,60
19860,note_on,0,0,4,,,,,,,,2,,,,68,60
19860,note_off,60,0,12,,,,,,,,13,,,,57,64
19860,note_off,60,0,11,,,,,,,,12,,,,66,64
19860,note_on,0,0,3,,,,,,,,2,,,,71,60
19860,note_on,0,0,11,,,,,,,,12,,,,68,60
19860,note_off,60,0,10,,,,,,,,11,,,,69,64
19860,note_on,0,0,1,,,,,,,,0,,,,71,60
19860,note_on,0,0,10,,,,,,,,11,,,,71,60
19860,note_off,60,0,5,,,,,,,,3,,,,69,64
19860,note_off,60,0,6,,,,,,,,3,,,,66,64
19860,note_on,0,0,5,,,,,,,,3,,,,71,60
19860,note_off,60,0,3,,,,,,,,2,,,,69,64
19860,note_on,0,0,6,,,,,,,,3,,,,68,60
19920,note_on,0,0,11,,,,,,,,12,,,,69,63
19920,note_on,0,0,1,,,,,,,,0,,,,73,63
19920,note_on,0,0,2,,,,,,,,1,,,,69,63
19920,note_on,0,0,12,,,,,,,,13,,,,61,63
19920,set_tempo,480,1,0,1250000,,,,,,,,,,,,
19920,note_off,60,0,12,,,,,,,,13,,,,59,64
19920,note_off,60,0,1,,,,,,,,0,,,,71,64
19920,note_off,480,0,13,,,,,,,,14,,,,52,64
19920,note_off,60,0,2,,,,,,,,1,,,,68,64
19920,note_on,0,0,13,,,,,,,,14,,,,57,65
19920,note_on,0,0,5,,,,,,,,3,,,,73,63
19920,note_on,0,0,10,,,,,,,,11,,,,73,63
19920,note_off,60,0,5,,,,,,,,3,,,,71,64
19920,note_on,0,0,6,,,,,,,,3,,,,69,63
19920,note_off,60,0,6,,,,,,,,3,,,,68,64
19920,note_off,480,0,7,,,,,,,,4,,,,52,64
19920,note_on,0,0,7,,,,,,,,4,,,,57,65
19920,note_on,0,0,4,,,,,,,,2,,,,69,63
19920,note_off,60,0,11,,,,,,,,12,,,,68,64
19920,note_off,480,0,14,,,,,,,,15,,,,40,64
19920,note_off,60,0,4,,,,,,,,2,,,,68,64
19920,note_off,60,0,3,,,,,,,,2,,,,71,64
19920,note_on,0,0,3,,,,,,,,2,,,,73,63
19920,note_off,60,0,10,,,,,,,,11,,,,71,64
19920,note_on,0,0,14,,,,,,,,15,,,,45,65
20155,note_off,235,0,4,,,,,,,,2,,,,69,64
20155,note_off,235,0,3,,,,,,,,2,,,,73,64
20155,note_off,235,0,1,,,,,,,,0,,,,73,64
20155,note_off,235,0,11,,,,,,,,12,,,,69,64
20155,note_off,235,0,10,,,,,,,,11,,,,73,64
20155,note_off,235,0,5,,,,,,,,3,,,,73,64
20155,note_off,235,0,6,,,,,,,,3,,,,69,64
20155,note_off,235,0,7,,,,,,,,4,,,,57,64
20155,note_off,235,0,14,,,,,,,,15,,,,45,64
20155,note_off,235,0,12,,,,,,,,13,,,,61,64
20155,note_off,235,0,2,,,,,,,,1,,,,69,64
20155,note_off,235,0,13,,,,,,,,14,,,,57,64
20160,note_on,5,0,13,,,,,,,,14,,,,49,75
20160,note_on,5,0,5,,,,,,,,3,,,,76,75
20160,note_on,5,0,3,,,,,,,,2,,,,76,75
20160,note_on,5,0,11,,,,,,,,12,,,,69,75
20160,note_on,1445,0,9,,,,,,,,5,,,,57,75
20160,note_on,5,0,12,,,,,,,,13,,,,64,75
20160,set_tempo,240,1,0,1153846,,,,,,,,,,,,
20160,note_on,1445,0,8,,,,,,,,5,,,,64,75
20160,note_on,5,0,2,,,,,,,,1,,,,69,75
20160,note_on,5,0,1,,,,,,,,0,,,,76,75
20160,note_on,5,0,14,,,,,,,,15,,,,37,75
20160,note_on,5,0,4,,,,,,,,2,,,,69,75
20160,note_on,5,0,7,,,,,,,,4,,,,49,75
20160,note_on,5,0,6,,,,,,,,3,,,,69,75
20160,note_on,5,0,10,,,,,,,,11,,,,76,75
20190,note_on,0,0,10,,,,,,,,11,,,,78,75
20190,note_off,30,0,3,,,,,,,,2,,,,76,64
20190,note_on,0,0,3,,,,,,,,2,,,,78,75
20190,note_off,30,0,5,,,,,,,,3,,,,76,64
20190,note_on,0,0,5,,,,,,,,3,,,,78,75
20190,note_off,30,0,1,,,,,,,,0,,,,76,64
20190,note_on,0,0,12,,,,,,,,13,,,,66,75
20190,note_off,30,0,12,,,,,,,,13,,,,64,64
20190,note_on,0,0,1,,,,,,,,0,,,,78,75
20190,note_off,30,0,10,,,,,,,,11,,,,76,64
20220,note_off,30,0,3,,,,,,,,2,,,,78,64
20220,note_off,30,0,12,,,,,,,,13,,,,66,64
20220,note_on,0,0,12,,,,,,,,13,,,,64,75
20220,note_on,0,0,3,,,,,,,,2,,,,76,75
20220,note_off,30,0,5,,,,,,,,3,,,,78,64
20220,note_off,30,0,10,,,,,,,,11,,,,78,64
20220,note_on,0,0,10,,,,,,,,11,,,,76,75
20220,note_off,30,0,1,,,,,,,,0,,,,78,64
20220,note_on,0,0,5,,,,,,,,3,,,,76,75
20220,note_on,0,0,1,,,,,,,,0,,,,76,75
20250,note_off,30,0,1,,,,,,,,0,,,,76,64
20250,note_on,0,0,1,,,,,,,,0,,,,78,75
20250,note_off,30,0,10,,,,,,,,11,,,,76,64
20250,note_on,0,0,10,,,,,,,,11,,,,78,75
20250,note_off,30,0,3,,,,,,,,2,,,,76,64
20250,note_on,0,0,3,,,,,,,,2,,,,78,75
20250,note_on,0,0,12,,,,,,,,13,,,,66,75
20250,note_on,0,0,5,,,,,,,,3,,,,78,75
20250,note_off,30,0,12,,,,,,,,13,,,,64,64
20250,note_off,30,0,5,,,,,,,,3,,,,76,64
20280,note_off,30,0,12,,,,,,,,13,,,,66,64
20280,note_off,30,0,1,,,,,,,,0,,,,78,64
20280,note_on,0,0,12,,,,,,,,13,,,,64,75
20280,note_on,0,0,3,,,,,,,,2,,,,76,75
20280,note_off,30,0,3,,,,,,,,2,,,,78,64
20280,note_off,30,0,5,,,,,,,,3,,,,78,64
20280,note_on,0,0,5,,,,,,,,3,,,,76,75
20280,note_on,0,0,1,,,,,,,,0,,,,76,75
20280,note_off,30,0,10,,,,,,,,11,,,,78,64
20280,note_on,0,0,10,,,,,,,,11,,,,76,75
20310,note_on,0,0,10,,,,,,,,11,,,,78,75
20310,note_off,30,0,10,,,,,,,,11,,,,76,64
20310,note_on,0,0,5,,,,,,,,3,,,,78,75
20310,note_off,30,0,12,,,,,,,,13,,,,64,64
20310,note_off,30,0,3,,,,,,,,2,,,,76,64
20310,note_on,0,0,3,,,,,,,,2,,,,78,75
20310,note_on,0,0,1,,,,,,,,0,,,,78,75
20310,note_off,30,0,5,,,,,,,,3,,,,76,64
20310,note_on,0,0,12,,,,,,,,13,,,,66,75
20310,note_off,30,0,1,,,,,,,,0,,,,76,64
20340,note_off,30,0,10,,,,,,,,11,,,,78,64
20340,note_on,0,0,10,,,,,,,,11,,,,76,75
20340,note_off,30,0,5,,,,,,,,3,,,,78,64
20340,note_on,0,0,3,,,,,,,,2,,,,76,75
20340,note_off,30,0,3,,,,,,,,2,,,,78,64
20340,note_off,30,0,12,,,,,,,,13,,,,66,64
20340,note_on,0,0,1,,,,,,,,0,,,,76,75
20340,note_off,30,0,1,,,,,,,,0,,,,78,64
20340,note_on,0,0,5,,,,,,,,3,,,,76,75
20340,note_on,0,0,12,,,,,,,,13,,,,64,75
20370,note_off,30,0,3,,,,,,,,2,,,,76,64
20370,note_on,0,0,5,,,,,,,,3,,,,78,75
20370,note_off,30,0,5,,,,,,,,3,,,,76,64
20370,note_off,30,0,10,,,,,,,,11,,,,76,64
20370,note_on,0,0,10,,,,,,,,11,,,,78,75
20370,note_off,30,0,1,,,,,,,,0,,,,76,64
20370,note_on,0,0,1,,,,,,,,0,,,,78,75
20370,note_on,0,0,3,,,,,,,,2,,,,78,75
20370,note_off,30,0,12,,,,,,,,13,,,,64,64
20370,note_on,0,0,12,,,,,,,,13,,,,66,75
20400,note_on,0,0,1,,,,,,,,0,,,,76,75
20400,note_off,30,0,10,,,,,,,,11,,,,78,64
20400,note_on,0,0,12,,,,,,,,13,,,,64,75
20400,note_on,0,0,5,,,,,,,,3,,,,76,75
20400,note_off,30,0,1,,,,,,,,0,,,,78,64
20400,note_off,30,0,3,,,,,,,,2,,,,78,64
20400,note_on,0,0,3,,,,,,,,2,,,,76,75
20400,note_on,0,0,10,,,,,,,,11,,,,76,75
20400,note_off,30,0,12,,,,,,,,13,,,,66,64
20400,note_off,30,0,5,,,,,,,,3,,,,78,64
20430,note_off,30,0,10,,,,,,,,11,,,,76,64
20430,note_on,0,0,1,,,,,,,,0,,,,78,75
20430,note_off,30,0,1,,,,,,,,0,,,,76,64
20430,note_on,0,0,3,,,,,,,,2,,,,78,75
20430,note_off,30,0,3,,,,,,,,2,,,,76,64
20430,note_off,30,0,5,,,,,,,,3,,,,76,64
20430,note_on,0,0,10,,,,,,,,11,,,,78,75
20430,note_on,0,0,5,,,,,,,,3,,,,78,75
20430,note_on,0,0,12,,,,,,,,13,,,,66,75
20430,note_off,30,0,12,,,,,,,,13,,,,64,64
20460,note_on,0,0,10,,,,,,,,11,,,,76,75
20460,note_off,30,0,3,,,,,,,,2,,,,78,64
20460,note_on,0,0,1,,,,,,,,0,,,,76,75
20460,note_off,30,0,1,,,,,,,,0,,,,78,64
20460,note_on,0,0,3,,,,,,,,2,,,,76,75
20460,note_off,30,0,12,,,,,,,,13,,,,66,64
20460,note_on,0,0,5,,,,,,,,3,,,,76,75
20460,note_off,30,0,5,,,,,,,,3,,,,78,64
20460,note_on,0,0,12,,,,,,,,13,,,,64,75
20460,note_off,30,0,10,,,,,,,,11,,,,78,64
20490,note_off,30,0,1,,,,,,,,0,,,,76,64
20490,note_off,30,0,10,,,,,,,,11,,,,76,64
20490,note_on,0,0,3,,,,,,,,2,,,,78,75
20490,note_on,0,0,1,,,,,,,,0,,,,78,75
20490,note_on,0,0,10,,,,,,,,11,,,,78,75
20490,note_on,0,0,12,,,,,,,,13,,,,66,75
20490,note_off,30,0,12,,,,,,,,13,,,,64,64
20490,note_off,30,0,3,,,,,,,,2,,,,76,64
20490,note_off,30,0,5,,,,,,,,3,,,,76,64
20490,note_on,0,0,5,,,,,,,,3,,,,78,75
20520,note_off,30,0,5,,,,,,,,3,,,,78,64
20520,note_off,30,0,1,,,,,,,,0,,,,78,64
20520,note_off,30,0,3,,,,,,,,2,,,,78,64
20520,note_on,0,0,1,,,,,,,,0,,,,74,75
20520,note_on,0,0,3,,,,,,,,2,,,,74,75
20520,note_on,0,0,12,,,,,,,,13,,,,62,75
20520,note_off,30,0,12,,,,,,,,13,,,,66,64
20520,note_on,0,0,5,,,,,,,,3,,,,74,75
20520,note_off,30,0,10,,,,,,,,11,,,,78,64
20520,note_on,0,0,10,,,,,,,,11,,,,74,75
20580,note_on,0,0,10,,,,,,,,11,,,,76,75
20580,note_on,0,0,12,,,,,,,,13,,,,64,75
20580,note_off,60,0,12,,,,,,,,13,,,,62,64
20580,note_on,0,0,5,,,,,,,,3,,,,76,75
20580,note_off,60,0,5,,,,,,,,3,,,,74,64
20580,note_on,0,0,3,,,,,,,,2,,,,76,75
20580,note_off,60,0,3,,,,,,,,2,,,,74,64
20580,note_on,0,0,1,,,,,,,,0,,,,76,75
20580,note_off,60,0,1,,,,,,,,0,,,,74,64
20580,note_off,60,0,10,,,,,,,,11,,,,74,64
20640,note_on,0,0,13,,,,,,,,14,,,,50,75
20640,note_on,0,0,11,,,,,,,,12,,,,69,75
20640,note_off,480,0,13,,,,,,,,14,,,,49,64
20640,note_on,0,0,3,,,,,,,,2,,,,78,75
20640,note_off,480,0,11,,,,,,,,12,,,,69,64
20640,note_off,480,0,9,,,,,,,,5,,,,57,64
20640,note_off,60,0,3,,,,,,,,2,,,,76,64
20640,note_on,0,0,9,,,,,,,,5,,,,62,75
20640,note_on,0,0,1,,,,,,,,0,,,,78,75
20640,note_on,0,0,6,,,,,,,,3,,,,69,75
20640,note_off,60,0,10,,,,,,,,11,,,,76,64
20640,note_on,0,0,10,,,,,,,,11,,,,78,75
20640,note_off,480,0,6,,,,,,,,3,,,,69,64
20640,note_on,0,0,12,,,,,,,,13,,,,66,75
20640,note_off,60,0,12,,,,,,,,13,,,,64,64
20640,note_off,480,0,2,,,,,,,,1,,,,69,64
20640,note_on,0,0,2,,,,,,,,1,,,,69,75
20640,note_off,480,0,8,,,,,,,,5,,,,64,64
20640,note_on,0,0,4,,,,,,,,2,,,,69,75
20640,note_off,480,0,4,,,,,,,,2,,,,69,64
20640,note_on,0,0,8,,,,,,,,5,,,,66,75
20640,note_on,0,0,14,,,,,,,,15,,,,38,75
20640,note_off,60,0,5,,,,,,,,3,,,,76,64
20640,note_on,0,0,5,,,,,,,,3,,,,78,75
20640,note_off,480,0,7,,,,,,,,4,,,,49,64
20640,note_on,0,0,7,,,,,,,,4,,,,50,75
20640,note_off,60,0,1,,,,,,,,0,,,,76,64
20640,note_off,480,0,14,,,,,,,,15,,,,37,64
20875,note_off,235,0,5,,,,,,,,3,,,,78,64
20875,note_off,235,0,13,,,,,,,,14,,,,50,64
20875,note_off,235,0,9,,,,,,,,5,,,,62,64
20875,note_off,235,0,12,,,,,,,,13,,,,66,64
20875,note_off,235,0,1,,,,,,,,0,,,,78,64
20875,note_off,235,0,11,,,,,,,,12,,,,69,64
20875,note_off,235,0,8,,,,,,,,5,,,,66,64
20875,note_off,235,0,7,,,,,,,,4,,,,50,64
20875,note_off,235,0,6,,,,,,,,3,,,,69,64
20875,note_off,235,0,3,,,,,,,,2,,,,78,64
20875,note_off,235,0,10,,,,,,,,11,,,,78,64
20875,note_off,235,0,14,,,,,,,,15,,,,38,64
20875,note_off,235,0,4,,,,,,,,2,,,,69,64
20875,note_off,235,0,2,,,,,,,,1,,,,69,64
20880,note_on,5,0,13,,,,,,,,14,,,,52,75
20880,note_on,5,0,5,,,,,,,,3,,,,74,75
20880,note_on,5,0,4,,,,,,,,2,,,,68,75
20880,note_on,5,0,3,,,,,,,,2,,,,74,75
20880,set_tempo,720,1,0,1200000,,,,,,,,,,,,
20880,note_on,5,0,9,,,,,,,,5,,,,64,75
20880,note_on,5,0,11,,,,,,,,12,,,,68,75
20880,note_on,5,0,2,,,,,,,,1,,,,68,75
20880,note_on,5,0,14,,,,,,,,15,,,,40,75
20880,note_on,5,0,1,,,,,,,,0,,,,74,75
20880,note_on,5,0,8,,,,,,,,5,,,,68,75
20880,note_on,5,0,6,,,,,,,,3,,,,68,75
20880,note_on,5,0,10,,,,,,,,11,,,,74,75
20880,note_on,5,0,12,,,,,,,,13,,,,62,75
20880,note_on,5,0,7,,,,,,,,4,,,,52,75
20910,note_on,0,0,3,,,,,,,,2,,,,76,75
20910,note_on,0,0,5,,,,,,,,3,,,,76,75
20910,note_off,30,0,5,,,,,,,,3,,,,74,64
20910,note_on,0,0,12,,,,,,,,13,,,,64,75
20910,note_off,30,0,3,,,,,,,,2,,,,74,64
20910,note_off,30,0,10,,,,,,,,11,,,,74,64
20910,note_on,0,0,10,,,,,,,,11,,,,76,75
20910,note_on,0,0,1,,,,,,,,0,,,,76,75
20910,note_off,30,0,12,,,,,,,,13,,,,62,64
20910,note_off,30,0,1,,,,,,,,0,,,,74,64
20940,note_off,30,0,3,,,,,,,,2,,,,76,64
20940,note_on,0,0,3,,,,,,,,2,,,,74,75
20940,note_on,0,0,12,,,,,,,,13,,,,62,75
20940,note_off,30,0,12,,,,,,,,13,,,,64,64
20940,note_on,0,0,1,,,,,,,,0,,,,74,75
20940,note_off,30,0,1,,,,,,,,0,,,,76,64
20940,note_off,30,0,10,,,,,,,,11,,,,76,64
20940,note_on,0,0,10,,,,,,,,11,,,,74,75
20940,note_off,30,0,5,,,,,,,,3,,,,76,64
20940,note_on,0,0,5,,,,,,,,3,,,,74,75
20970,note_off,30,0,12,,,,,,,,13,,,,62,64
20970,note_on,0,0,1,,,,,,,,0,,,,76,75
20970,note_on,0,0,10,,,,,,,,11,,,,76,75
20970,note_on,0,0,12,,,,,,,,13,,,,64,75
20970,note_off,30,0,5,,,,,,,,3,,,,74,64
20970,note_off,30,0,3,,,,,,,,2,,,,74,64
20970,note_on,0,0,3,,,,,,,,2,,,,76,75
20970,note_off,30,0,1,,,,,,,,0,,,,74,64
20970,note_on,0,0,5,,,,,,,,3,,,,76,75
20970,note_off,30,0,10,,,,,,,,11,,,,74,64
21000,note_off,30,0,12,,,,,,,,13,,,,64,64
21000,note_on,0,0,12,,,,,,,,13,,,,62,75
21000,note_off,30,0,1,,,,,,,,0,,,,76,64
21000,note_on,0,0,5,,,,,,,,3,,,,74,75
21000,note_off,30,0,10,,,,,,,,11,,,,76,64
21000,note_on,0,0,10,,,,,,,,11,,,,74,75
21000,note_off,30,0,3,,,,,,,,2,,,,76,64
21000,note_on,0,0,3,,,,,,,,2,,,,74,75
21000,note_off,30,0,5,,,,,,,,3,,,,76,64
21000,note_on,0,0,1,,,,,,,,0,,,,74,75
21030,note_off,30,0,1,,,,,,,,0,,,,74,64
21030,note_on,0,0,1,,,,,,,,0,,,,76,75
21030,note_on,0,0,5,,,,,,,,3,,,,76,75
21030,note_off,30,0,5,,,,,,,,3,,,,74,64
21030,note_on,0,0,10,,,,,,,,11,,,,76,75
21030,note_on,0,0,3,,,,,,,,2,,,,76,75
21030,note_off,30,0,12,,,,,,,,13,,,,62,64
21030,note_on,0,0,12,,,,,,,,13,,,,64,75
21030,note_off,30,0,10,,,,,,,,11,,,,74,64
21030,note_off,30,0,3,,,,,,,,2,,,,74,64
21060,note_off,30,0,12,,,,,,,,13,,,,64,64
21060,note_on,0,0,12,,,,,,,,13,,,,62,75
21060,note_on,0,0,10,,,,,,,,11,,,,74,75
21060,note_on,0,0,5,,,,,,,,3,,,,74,75
21060,note_off,30,0,3,,,,,,,,2,,,,76,64
21060,note_on,0,0,1,,,,,,,,0,,,,74,75
21060,note_off,30,0,1,,,,,,,,0,,,,76,64
21060,note_off,30,0,10,,,,,,,,11,,,,76,64
21060,note_on,0,0,3,,,,,,,,2,,,,74,75
21060,note_off,30,0,5,,,,,,,,3,,,,76,64
21090,note_off,30,0,3,,,,,,,,2,,,,74,64
21090,note_off,30,0,1,,,,,,,,0,,,,74,64
21090,note_off,30,0,5,,,,,,,,3,,,,74,64
21090,note_on,0,0,10,,,,,,,,11,,,,76,75
21090,note_on,0,0,3,,,,,,,,2,,,,76,75
21090,note_off,30,0,10,,,,,,,,11,,,,74,64
21090,note_on,0,0,12,,,,,,,,13,,,,64,75
21090,note_on,0,0,1,,,,,,,,0,,,,76,75
21090,note_off,30,0,12,,,,,,,,13,,,,62,64
21090,note_on,0,0,5,,,,,,,,3,,,,76,75
21120,note_on,0,0,3,,,,,,,,2,,,,74,76
21120,note_off,30,0,12,,,,,,,,13,,,,64,64
21120,note_on,0,0,12,,,,,,,,13,,,,62,76
21120,note_off,30,0,3,,,,,,,,2,,,,76,64
21120,note_off,30,0,10,,,,,,,,11,,,,76,64
21120,note_on,0,0,10,,,,,,,,11,,,,74,76
21120,note_off,30,0,5,,,,,,,,3,,,,76,64
21120,note_on,0,0,5,,,,,,,,3,,,,74,76
21120,note_off,30,0,1,,,,,,,,0,,,,76,64
21120,note_on,0,0,1,,,,,,,,0,,,,74,76
21150,note_off,30,0,10,,,,,,,,11,,,,74,64
21150,note_on,0,0,10,,,,,,,,11,,,,76,77
21150,note_off,30,0,1,,,,,,,,0,,,,74,64
21150,note_on,0,0,1,,,,,,,,0,,,,76,77
21150,note_off,30,0,12,,,,,,,,13,,,,62,64
21150,note_off,30,0,5,,,,,,,,3,,,,74,64
21150,note_on,0,0,5,,,,,,,,3,,,,76,77
21150,note_off,30,0,3,,,,,,,,2,,,,74,64
21150,note_on,0,0,3,,,,,,,,2,,,,76,77
21150,note_on,0,0,12,,,,,,,,13,,,,64,77
21180,note_off,30,0,1,,,,,,,,0,,,,76,64
21180,note_on,0,0,1,,,,,,,,0,,,,74,78
21180,note_on,0,0,12,,,,,,,,13,,,,62,78
21180,note_on,0,0,3,,,,,,,,2,,,,74,78
21180,note_off,30,0,10,,,,,,,,11,,,,76,64
21180,note_on,0,0,10,,,,,,,,11,,,,74,78
21180,note_off,30,0,5,,,,,,,,3,,,,76,64
21180,note_on,0,0,5,,,,,,,,3,,,,74,78
21180,note_off,30,0,12,,,,,,,,13,,,,64,64
21180,note_off,30,0,3,,,,,,,,2,,,,76,64
21210,note_off,30,0,12,,,,,,,,13,,,,62,64
21210,note_on,0,0,12,,,,,,,,13,,,,64,79
21210,note_off,30,0,1,,,,,,,,0,,,,74,64
21210,note_on,0,0,10,,,,,,,,11,,,,76,79
21210,note_off,30,0,3,,,,,,,,2,,,,74,64
21210,note_on,0,0,3,,,,,,,,2,,,,76,79
21210,note_on,0,0,5,,,,,,,,3,,,,76,79
21210,note_off,30,0,5,,,,,,,,3,,,,74,64
21210,note_on,0,0,1,,,,,,,,0,,,,76,79
21210,note_off,30,0,10,,,,,,,,11,,,,74,64
21240,note_on,0,0,4,,,,,,,,2,,,,66,83
21240,note_off,360,0,2,,,,,,,,1,,,,68,64
21240,note_off,30,0,3,,,,,,,,2,,,,76,64
21240,note_off,360,0,6,,,,,,,,3,,,,68,64
21240,note_off,30,0,5,,,,,,,,3,,,,76,64
21240,note_on,0,0,5,,,,,,,,3,,,,74,80
21240,note_on,0,0,1,,,,,,,,0,,,,74,80
21240,note_off,360,0,11,,,,,,,,12,,,,68,64
21240,note_on,0,0,11,,,,,,,,12,,,,66,83
21240,note_on,0,0,3,,,,,,,,2,,,,74,80
21240,note_off,360,0,4,,,,,,,,2,,,,68,64
21240,note_on,0,0,2,,,,,,,,1,,,,66,83
21240,note_off,30,0,12,,,,,,,,13,,,,64,64
21240,note_on,0,0,6,,,,,,,,3,,,,66,83
21240,note_on,0,0,12,,,,,,,,13,,,,62,80
21240,note_off,30,0,1,,,,,,,,0,,,,76,64
21240,note_on,0,0,10,,,,,,,,11,,,,74,80
21240,note_off,30,0,10,,,,,,,,11,,,,76,64
21270,note_on,0,0,1,,,,,,,,0,,,,76,81
21270,note_off,30,0,1,,,,,,,,0,,,,74,64
21270,note_on,0,0,5,,,,,,,,3,,,,76,81
21270,note_off,30,0,5,,,,,,,,3,,,,74,64
21270,note_on,0,0,10,,,,,,,,11,,,,76,81
21270,note_off,30,0,10,,,,,,,,11,,,,74,64
21270,note_off,30,0,3,,,,,,,,2,,,,74,64
21270,note_on,0,0,12,,,,,,,,13,,,,64,81
21270,note_off,30,0,12,,,,,,,,13,,,,62,64
21270,note_on,0,0,3,,,,,,,,2,,,,76,81
21300,note_off,60,0,4,,,,,,,,2,,,,66,64
21300,note_on,0,0,11,,,,,,,,12,,,,68,84
21300,note_off,60,0,11,,,,,,,,12,,,,66,64
21300,note_on,0,0,4,,,,,,,,2,,,,68,84
21300,note_on,0,0,10,,,,,,,,11,,,,74,82
21300,note_off,30,0,10,,,,,,,,11,,,,76,64
21300,note_on,0,0,3,,,,,,,,2,,,,74,82
21300,note_off,30,0,3,,,,,,,,2,,,,76,64
21300,note_off,30,0,1,,,,,,,,0,,,,76,64
21300,note_off,30,0,12,,,,,,,,13,,,,64,64
21300,note_on,0,0,12,,,,,,,,13,,,,62,82
21300,note_on,0,0,2,,,,,,,,1,,,,68,84
21300,note_on,0,0,1,,,,,,,,0,,,,74,82
21300,note_off,60,0,2,,,,,,,,1,,,,66,64
21300,note_off,30,0,5,,,,,,,,3,,,,76,64
21300,note_on,0,0,6,,,,,,,,3,,,,68,84
21300,note_off,60,0,6,,,,,,,,3,,,,66,64
21300,note_on,0,0,5,,,,,,,,3,,,,74,82
21330,note_off,30,0,3,,,,,,,,2,,,,74,64
21330,note_on,0,0,3,,,,,,,,2,,,,76,83
21330,note_off,30,0,5,,,,,,,,3,,,,74,64
21330,note_on,0,0,5,,,,,,,,3,,,,76,83
21330,note_on,0,0,1,,,,,,,,0,,,,76,83
21330,note_off,30,0,10,,,,,,,,11,,,,74,64
21330,note_on,0,0,10,,,,,,,,11,,,,76,83
21330,note_off,30,0,1,,,,,,,,0,,,,74,64
21330,note_off,30,0,12,,,,,,,,13,,,,62,64
21330,note_on,0,0,12,,,,,,,,13,,,,64,83
21360,note_on,0,0,11,,,,,,,,12,,,,69,85
21360,note_on,0,0,2,,,,,,,,1,,,,69,85
21360,note_on,0,0,6,,,,,,,,3,,,,69,85
21360,note_on,0,0,10,,,,,,,,11,,,,73,84
21360,note_off,30,0,10,,,,,,,,11,,,,76,64
21360,note_off,480,0,9,,,,,,,,5,,,,64,64
21360,note_off,60,0,2,,,,,,,,1,,,,68,64
21360,note_on,0,0,13,,,,,,,,14,,,,54,86
21360,note_off,30,0,1,,,,,,,,0,,,,76,64
21360,note_off,30,0,12,,,,,,,,13,,,,64,64
21360,note_on,0,0,12,,,,,,,,13,,,,61,84
21360,note_on,0,0,9,,,,,,,,5,,,,66,86
21360,note_on,0,0,4,,,,,,,,2,,,,69,85
21360,note_off,60,0,4,,,,,,,,2,,,,68,64
21360,note_off,480,0,13,,,,,,,,14,,,,52,64
21360,note_on,0,0,1,,,,,,,,0,,,,73,84
21360,note_on,0,0,14,,,,,,,,15,,,,42,86
21360,note_off,480,0,14,,,,,,,,15,,,,40,64
21360,note_off,30,0,5,,,,,,,,3,,,,76,64
21360,note_off,30,0,3,,,,,,,,2,,,,76,64
21360,note_on,0,0,3,,,,,,,,2,,,,73,84
21360,note_on,0,0,8,,,,,,,,5,,,,69,86
21360,note_off,480,0,8,,,,,,,,5,,,,68,64
21360,note_off,480,0,7,,,,,,,,4,,,,52,64
21360,note_on,0,0,7,,,,,,,,4,,,,54,86
21360,note_off,60,0,6,,,,,,,,3,,,,68,64
21360,note_on,0,0,5,,,,,,,,3,,,,73,84
21360,note_off,60,0,11,,,,,,,,12,,,,68,64
21595,note_off,235,0,9,,,,,,,,5,,,,66,64
21595,note_off,235,0,3,,,,,,,,2,,,,73,64
21595,note_off,235,0,8,,,,,,,,5,,,,69,64
21595,note_off,235,0,10,,,,,,,,11,,,,73,64
21595,note_off,235,0,7,,,,,,,,4,,,,54,64
21595,note_off,235,0,4,,,,,,,,2,,,,69,64
21595,note_off,235,0,1,,,,,,,,0,,,,73,64
21595,note_off,235,0,14,,,,,,,,15,,,,42,64
21595,note_off,235,0,13,,,,,,,,14,,,,54,64
21595,note_off,235,0,6,,,,,,,,3,,,,69,64
21595,note_off,235,0,2,,,,,,,,1,,,,69,64
21595,note_off,235,0,5,,,,,,,,3,,,,73,64
21595,note_off,235,0,12,,,,,,,,13,,,,61,64
21595,note_off,235,0,11,,,,,,,,12,,,,69,64
21600,note_on,5,0,4,,,,,,,,2,,,,71,92
21600,note_on,5,0,12,,,,,,,,13,,,,62,92
21600,note_on,5,0,5,,,,,,,,3,,,,74,92
21600,note_on,5,0,13,,,,,,,,14,,,,50,92
21600,note_on,5,0,3,,,,,,,,2,,,,74,92
21600,note_on,5,0,2,,,,,,,,1,,,,71,92
21600,note_on,5,0,11,,,,,,,,12,,,,71,92
21600,note_on,5,0,9,,,,,,,,5,,,,69,92
21600,note_on,5,0,10,,,,,,,,11,,,,74,92
21600,note_on,5,0,8,,,,,,,,5,,,,66,92
21600,set_tempo,720,1,0,1250000,,,,,,,,,,,,
21600,note_on,5,0,7,,,,,,,,4,,,,50,92
21600,note_on,5,0,1,,,,,,,,0,,,,74,92
21600,note_on,5,0,6,,,,,,,,3,,,,71,92
21600,note_on,5,0,14,,,,,,,,15,,,,38,92
21835,note_off,235,0,8,,,,,,,,5,,,,66,64
21840,note_off,240,0,7,,,,,,,,4,,,,50,64
21840,note_on,0,0,6,,,,,,,,3,,,,68,92
21840,note_off,240,0,10,,,,,,,,11,,,,74,64
21840,note_on,0,0,11,,,,,,,,12,,,,68,92
21840,note_off,240,0,11,,,,,,,,12,,,,71,64
21840,note_off,240,0,14,,,,,,,,15,,,,38,64
21840,note_on,0,0,9,,,,,,,,5,,,,64,92
21840,note_on,0,0,3,,,,,,,,2,,,,71,92
21840,note_on,0,0,14,,,,,,,,15,,,,40,92
21840,note_on,5,0,8,,,,,,,,5,,,,68,92
21840,note_off,240,0,12,,,,,,,,13,,,,62,64
21840,note_on,0,0,12,,,,,,,,13,,,,59,92
21840,note_on,0,0,10,,,,,,,,11,,,,71,92
21840,note_off,240,0,2,,,,,,,,1,,,,71,64
21840,note_off,240,0,6,,,,,,,,3,,,,71,64
21840,note_off,240,0,4,,,,,,,,2,,,,71,64
21840,set_tempo,240,1,0,1363636,,,,,,,,,,,,
21840,note_on,0,0,5,,,,,,,,3,,,,71,92
21840,note_on,0,0,2,,,,,,,,1,,,,68,92
21840,note_off,240,0,1,,,,,,,,0,,,,74,64
21840,note_on,0,0,7,,,,,,,,4,,,,52,92
21840,note_off,240,0,3,,,,,,,,2,,,,74,64
21840,note_off,240,0,9,,,,,,,,5,,,,69,64
21840,note_on,0,0,1,,,,,,,,0,,,,71,92
21840,note_off,240,0,5,,,,,,,,3,,,,74,64
21840,note_off,240,0,13,,,,,,,,14,,,,50,64
21840,note_on,0,0,13,,,,,,,,14,,,,52,92
21840,note_on,0,0,4,,,,,,,,2,,,,68,92
22080,note_off,240,0,13,,,,,,,,14,,,,52,64
22080,note_on,0,0,14,,,,,,,,15,,,,28,92
22080,note_on,0,0,7,,,,,,,,4,,,,40,92
22080,note_off,240,0,7,,,,,,,,4,,,,52,64
22080,note_on,0,0,13,,,,,,,,14,,,,40,92
22080,note_off,240,0,14,,,,,,,,15,,,,40,64
22200,note_off,360,0,2,,,,,,,,1,,,,68,64
22200,note_on,0,0,2,,,,,,,,1,,,,64,92
22200,note_on,0,0,5,,,,,,,,3,,,,69,92
22200,note_on,0,0,6,,,,,,,,3,,,,64,92
22200,note_off,360,0,6,,,,,,,,3,,,,68,64
22200,note_on,0,0,12,,,,,,,,13,,,,57,92
22200,note_off,360,0,11,,,,,,,,12,,,,68,64
22200,note_off,360,0,4,,,,,,,,2,,,,68,64
22200,note_on,0,0,10,,,,,,,,11,,,,69,92
22200,set_tempo,360,1,0,1500000,,,,,,,,,,,,
22200,note_on,0,0,11,,,,,,,,12,,,,64,92
22200,note_off,360,0,12,,,,,,,,13,,,,59,64
22200,note_off,360,0,5,,,,,,,,3,,,,71,64
22200,note_on,0,0,4,,,,,,,,2,,,,64,92
22200,note_off,360,0,1,,,,,,,,0,,,,71,64
22200,note_on,0,0,1,,,,,,,,0,,,,69,92
22200,note_on,0,0,3,,,,,,,,2,,,,69,92
22200,note_off,360,0,3,,,,,,,,2,,,,71,64
22200,note_off,360,0,10,,,,,,,,11,,,,71,64
22240,note_off,400,0,9,,,,,,,,5,,,,64,64
22315,note_off,115,0,10,,,,,,,,11,,,,69,64
22315,note_off,235,0,14,,,,,,,,15,,,,28,64
22315,note_off,235,0,7,,,,,,,,4,,,,40,64
22315,note_off,115,0,12,,,,,,,,13,,,,57,64
22315,note_off,115,0,4,,,,,,,,2,,,,64,64
22315,note_off,115,0,5,,,,,,,,3,,,,69,64
22315,note_off,115,0,2,,,,,,,,1,,,,64,64
22315,note_off,235,0,13,,,,,,,,14,,,,40,64
22315,note_off,115,0,11,,,,,,,,12,,,,64,64
22315,note_off,115,0,6,,,,,,,,3,,,,64,64
22315,note_off,115,0,3,,,,,,,,2,,,,69,64
22315,note_off,115,0,1,,,,,,,,0,,,,69,64
22320,note_on,5,0,1,,,,,,,,0,,,,69,92
22320,note_on,80,0,9,,,,,,,,5,,,,64,92
22320,note_on,5,0,10,,,,,,,,11,,,,69,92
22320,note_off,480,0,8,,,,,,,,5,,,,68,64
22320,note_on,0,0,8,,,,,,,,5,,,,69,92
22320,note_on,5,0,6,,,,,,,,3,,,,64,92
22320,note_on,5,0,3,,,,,,,,2,,,,69,92
22320,note_on,5,0,7,,,,,,,,4,,,,45,92
22320,note_on,5,0,5,,,,,,,,3,,,,69,92
22320,note_on,5,0,14,,,,,,,,15,,,,33,92
22320,note_on,5,0,12,,,,,,,,13,,,,57,92
22320,note_on,5,0,2,,,,,,,,1,,,,64,92
22320,note_on,5,0,13,,,,,,,,14,,,,45,92
22320,set_tempo,120,1,0,1666666,,,,,,,,,,,,
22320,note_on,5,0,4,,,,,,,,2,,,,64,92
22320,note_on,5,0,11,,,,,,,,12,,,,64,92
22960,note_off,640,0,11,,,,,,,,12,,,,64,64
22960,note_off,640,0,6,,,,,,,,3,,,,64,64
22960,note_off,640,0,9,,,,,,,,5,,,,64,64
22960,note_off,640,0,3,,,,,,,,2,,,,69,64
22960,note_off,640,0,14,,,,,,,,15,,,,33,64
22960,note_off,640,0,2,,,,,,,,1,,,,64,64
22960,note_off,640,0,13,,,,,,,,14,,,,45,64
22960,note_off,640,0,12,,,,,,,,13,,,,57,64
22960,note_off,640,0,10,,,,,,,,11,,,,69,64
22960,note_off,640,0,5,,,,,,,,3,,,,69,64
22960,note_off,640,0,7,,,,,,,,4,,,,45,64
22960,note_off,640,0,1,,,,,,,,0,,,,69,64
22960,note_off,640,0,4,,,,,,,,2,,,,64,64
22960,note_off,640,0,8,,,,,,,,5,,,,69,64
23040,note_on,80,0,12,,,,,,,,13,,,,64,92
23040,note_on,80,0,13,,,,,,,,14,,,,57,92
23040,note_on,80,0,9,,,,,,,,5,,,,57,92
23040,note_on,80,0,5,,,,,,,,3,,,,76,92
23040,note_on,80,0,3,,,,,,,,2,,,,76,92
23040,note_on,80,0,6,,,,,,,,3,,,,73,92
23040,note_on,80,0,1,,,,,,,,0,,,,76,92
23040,note_on,80,0,14,,,,,,,,15,,,,45,92
23040,note_on,80,0,8,,,,,,,,5,,,,64,92
23040,note_on,80,0,10,,,,,,,,11,,,,76,92
23040,note_on,80,0,4,,,,,,,,2,,,,73,92
23040,set_tempo,720,1,0,1111111,,,,,,,,,,,,
23040,note_on,80,0,2,,,,,,,,1,,,,73,92
23040,note_on,80,0,7,,,,,,,,4,,,,57,92
23040,note_on,80,0,11,,,,,,,,12,,,,73,92
23280,note_on,0,0,7,,,,,,,,4,,,,52,92
23280,note_on,0,0,13,,,,,,,,14,,,,52,92
23280,note_off,240,0,13,,,,,,,,14,,,,57,64
23280,note_off,240,0,7,,,,,,,,4,,,,57,64
23400,note_on,0,0,8,,,,,,,,5,,,,66,92
23400,note_off,360,0,8,,,,,,,,5,,,,64,64
23400,note_on,0,0,10,,,,,,,,11,,,,78,92
23400,note_off,360,0,10,,,,,,,,11,,,,76,64
23400,note_on,0,0,2,,,,,,,,1,,,,74,92
23400,note_on,0,0,12,,,,,,,,13,,,,66,92
23400,note_off,360,0,2,,,,,,,,1,,,,73,64
23400,note_off,360,0,4,,,,,,,,2,,,,73,64
23400,note_on,0,0,4,,,,,,,,2,,,,74,92
23400,note_off,360,0,12,,,,,,,,13,,,,64,64
23400,note_on,0,0,11,,,,,,,,12,,,,74,92
23400,note_off,360,0,1,,,,,,,,0,,,,76,64
23400,note_on,0,0,1,,,,,,,,0,,,,78,92
23400,note_on,0,0,3,,,,,,,,2,,,,78,92
23400,note_off,360,0,3,,,,,,,,2,,,,76,64
23400,note_on,0,0,6,,,,,,,,3,,,,74,92
23400,note_off,360,0,6,,,,,,,,3,,,,73,64
23400,note_off,360,0,5,,,,,,,,3,,,,76,64
23400,note_off,360,0,11,,,,,,,,12,,,,73,64
23400,note_on,0,0,5,,,,,,,,3,,,,78,92
23520,note_on,0,0,11,,,,,,,,12,,,,73,92
23520,note_off,120,0,11,,,,,,,,12,,,,74,64
23520,note_off,120,0,10,,,,,,,,11,,,,78,64
23520,note_on,0,0,9,,,,,,,,5,,,,57,92
23520,note_on,0,0,5,,,,,,,,3,,,,76,92
23520,note_on,0,0,4,,,,,,,,2,,,,73,92
23520,note_off,120,0,12,,,,,,,,13,,,,66,64
23520,note_off,120,0,1,,,,,,,,0,,,,78,64
23520,note_on,0,0,1,,,,,,,,0,,,,76,92
23520,note_off,120,0,5,,,,,,,,3,,,,78,64
23520,note_off,120,0,4,,,,,,,,2,,,,74,64
23520,note_off,240,0,13,,,,,,,,14,,,,52,64
23520,note_on,0,0,6,,,,,,,,3,,,,73,92
23520,note_on,0,0,8,,,,,,,,5,,,,64,92
23520,note_off,120,0,8,,,,,,,,5,,,,66,64
23520,note_on,0,0,2,,,,,,,,1,,,,73,92
23520,note_off,120,0,2,,,,,,,,1,,,,74,64
23520,note_on,0,0,10,,,,,,,,11,,,,76,92
23520,note_off,120,0,6,,,,,,,,3,,,,74,64
23520,note_off,240,0,7,,,,,,,,4,,,,52,64
23520,note_on,0,0,7,,,,,,,,4,,,,49,92
23520,note_off,120,0,3,,,,,,,,2,,,,78,64
23520,note_off,480,0,9,,,,,,,,5,,,,57,64
23520,note_on,0,0,14,,,,,,,,15,,,,37,92
23520,note_off,480,0,14,,,,,,,,15,,,,45,64
23520,note_on,0,0,13,,,,,,,,14,,,,49,92
23520,note_on,0,0,12,,,,,,,,13,,,,64,92
23520,note_on,0,0,3,,,,,,,,2,,,,76,92
23755,note_off,235,0,10,,,,,,,,11,,,,76,64
23755,note_off,235,0,5,,,,,,,,3,,,,76,64
23755,note_off,235,0,3,,,,,,,,2,,,,76,64
23755,note_off,235,0,14,,,,,,,,15,,,,37,64
23755,note_off,235,0,8,,,,,,,,5,,,,64,64
23755,note_off,235,0,12,,,,,,,,13,,,,64,64
23755,note_off,235,0,1,,,,,,,,0,,,,76,64
23755,note_off,235,0,4,,,,,,,,2,,,,73,64
23755,note_off,235,0,7,,,,,,,,4,,,,49,64
23755,note_off,235,0,11,,,,,,,,12,,,,73,64
23755,note_off,235,0,2,,,,,,,,1,,,,73,64
23755,note_off,235,0,6,,,,,,,,3,,,,73,64
23755,note_off,235,0,9,,,,,,,,5,,,,57,64
23755,note_off,235,0,13,,,,,,,,14,,,,49,64
23760,note_on,5,0,1,,,,,,,,0,,,,76,92
23760,note_on,5,0,9,,,,,,,,5,,,,57,92
23760,note_on,5,0,7,,,,,,,,4,,,,45,92
23760,note_on,5,0,12,,,,,,,,13,,,,64,92
23760,note_on,5,0,14,,,,,,,,15,,,,33,92
23760,note_on,5,0,8,,,,,,,,5,,,,64,92
23760,note_on,5,0,2,,,,,,,,1,,,,73,92
23760,note_on,5,0,13,,,,,,,,14,,,,45,92
23760,note_on,5,0,3,,,,,,,,2,,,,76,92
23760,note_on,5,0,6,,,,,,,,3,,,,73,92
23760,note_on,5,0,4,,,,,,,,2,,,,73,92
23760,set_tempo,720,1,0,1153846,,,,,,,,,,,,
23760,note_on,5,0,10,,,,,,,,11,,,,76,92
23760,note_on,5,0,11,,,,,,,,12,,,,73,92
23760,note_on,5,0,5,,,,,,,,3,,,,76,92
24000,note_off,240,0,4,,,,,,,,2,,,,73,64
24000,note_on,0,0,4,,,,,,,,2,,,,74,92
24000,note_on,0,0,2,,,,,,,,1,,,,74,92
24000,note_off,240,0,2,,,,,,,,1,,,,73,64
24000,note_on,0,0,5,,,,,,,,3,,,,78,92
24000,note_on,0,0,12,,,,,,,,13,,,,66,92
24000,note_off,240,0,12,,,,,,,,13,,,,64,64
24000,note_off,240,0,5,,,,,,,,3,,,,76,64
24000,note_on,0,0,3,,,,,,,,2,,,,78,92
24000,note_off,240,0,3,,,,,,,,2,,,,76,64
24000,note_off,240,0,8,,,,,,,,5,,,,64,64
24000,note_on,0,0,11,,,,,,,,12,,,,74,92
24000,note_off,240,0,11,,,,,,,,12,,,,73,64
24000,note_on,0,0,1,,,,,,,,0,,,,78,92
24000,note_on,0,0,6,,,,,,,,3,,,,74,92
24000,note_off,240,0,1,,,,,,,,0,,,,76,64
24000,note_off,240,0,6,,,,,,,,3,,,,73,64
24000,note_off,240,0,10,,,,,,,,11,,,,76,64
24000,note_on,0,0,10,,,,,,,,11,,,,78,92
24000,note_on,0,0,8,,,,,,,,5,,,,66,92
24240,note_on,0,0,14,,,,,,,,15,,,,49,92
24240,note_off,240,0,12,,,,,,,,13,,,,66,64
24240,note_on,0,0,12,,,,,,,,13,,,,67,92
24240,note_off,480,0,14,,,,,,,,15,,,,33,64
24240,note_off,240,0,6,,,,,,,,3,,,,74,64
24240,note_on,0,0,9,,,,,,,,5,,,,64,92
24240,note_on,0,0,1,,,,,,,,0,,,,79,92
24240,note_off,240,0,1,,,,,,,,0,,,,78,64
24240,note_on,0,0,6,,,,,,,,3,,,,76,92
24240,note_off,480,0,9,,,,,,,,5,,,,57,64
24240,note_on,0,0,5,,,,,,,,3,,,,79,92
24240,note_off,240,0,2,,,,,,,,1,,,,74,64
24240,note_on,0,0,2,,,,,,,,1,,,,76,92
24240,note_off,240,0,11,,,,,,,,12,,,,74,64
24240,note_on,0,0,11,,,,,,,,12,,,,76,92
24240,note_on,0,0,4,,,,,,,,2,,,,76,92
24240,note_off,240,0,4,,,,,,,,2,,,,74,64
24240,note_off,240,0,10,,,,,,,,11,,,,78,64
24240,note_on,0,0,10,,,,,,,,11,,,,79,92
24240,note_off,240,0,8,,,,,,,,5,,,,66,64
24240,note_on,0,0,8,,,,,,,,5,,,,67,92
24240,note_off,240,0,3,,,,,,,,2,,,,78,64
24240,note_on,0,0,3,,,,,,,,2,,,,79,92
24240,note_off,240,0,5,,,,,,,,3,,,,78,64
24240,note_on,0,0,7,,,,,,,,4,,,,61,92
24240,note_off,480,0,13,,,,,,,,14,,,,45,64
24240,note_on,0,0,13,,,,,,,,14,,,,61,92
24240,note_off,480,0,7,,,,,,,,4,,,,45,64
24475,note_off,235,0,5,,,,,,,,3,,,,79,64
24475,note_off,235,0,10,,,,,,,,11,,,,79,64
24475,note_off,235,0,1,,,,,,,,0,,,,79,64
24475,note_off,235,0,13,,,,,,,,14,,,,61,64
24475,note_off,235,0,7,,,,,,,,4,,,,61,64
24475,note_off,235,0,6,,,,,,,,3,,,,76,64
24475,note_off,235,0,8,,,,,,,,5,,,,67,64
24475,note_off,235,0,14,,,,,,,,15,,,,49,64
24475,note_off,235,0,4,,,,,,,,2,,,,76,64
24475,note_off,235,0,3,,,,,,,,2,,,,79,64
24475,note_off,235,0,12,,,,,,,,13,,,,67,64
24475,note_off,235,0,11,,,,,,,,12,,,,76,64
24475,note_off,235,0,9,,,,,,,,5,,,,64,64
24475,note_off,235,0,2,,,,,,,,1,,,,76,64
24480,note_on,5,0,2,,,,,,,,1,,,,74,92
24480,note_on,5,0,13,,,,,,,,14,,,,62,92
24480,note_on,5,0,5,,,,,,,,3,,,,78,92
24480,set_tempo,720,1,0,1200000,,,,,,,,,,,,
24480,note_on,5,0,7,,,,,,,,4,,,,62,92
24480,note_on,5,0,11,,,,,,,,12,,,,74,92
24480,note_on,5,0,6,,,,,,,,3,,,,74,92
24480,note_on,5,0,10,,,,,,,,11,,,,78,92
24480,note_on,5,0,1,,,,,,,,0,,,,78,92
24480,note_on,5,0,9,,,,,,,,5,,,,62,92
24480,note_on,5,0,14,,,,,,,,15,,,,50,92
24480,note_on,5,0,8,,,,,,,,5,,,,66,92
24480,note_on,5,0,3,,,,,,,,2,,,,78,92
24480,note_on,5,0,12,,,,,,,,13,,,,66,92
24480,note_on,5,0,4,,,,,,,,2,,,,74,92
24720,note_off,240,0,9,,,,,,,,5,,,,62,64
24720,note_off,240,0,13,,,,,,,,14,,,,62,64
24720,note_on,0,0,9,,,,,,,,5,,,,57,92
24720,note_on,0,0,13,,,,,,,,14,,,,57,92
24720,note_off,240,0,7,,,,,,,,4,,,,62,64
24720,note_on,0,0,7,,,,,,,,4,,,,57,92
24840,note_on,0,0,1,,,,,,,,0,,,,76,92
24840,note_on,0,0,3,,,,,,,,2,,,,76,92
24840,note_off,360,0,3,,,,,,,,2,,,,78,64
24840,note_on,0,0,8,,,,,,,,5,,,,64,92
24840,note_off,360,0,8,,,,,,,,5,,,,66,64
24840,note_off,360,0,1,,,,,,,,0,,,,78,64
24840,note_on,0,0,12,,,,,,,,13,,,,64,92
24840,note_off,360,0,10,,,,,,,,11,,,,78,64
24840,note_off,360,0,12,,,,,,,,13,,,,66,64
24840,note_off,360,0,5,,,,,,,,3,,,,78,64
24840,note_on,0,0,5,,,,,,,,3,,,,76,92
24840,note_on,0,0,10,,,,,,,,11,,,,76,92
24960,note_off,480,0,4,,,,,,,,2,,,,74,64
24960,note_off,120,0,1,,,,,,,,0,,,,76,64
24960,note_on,0,0,1,,,,,,,,0,,,,74,92
24960,note_off,240,0,7,,,,,,,,4,,,,57,64
24960,note_on,0,0,7,,,,,,,,4,,,,54,92
24960,note_off,120,0,8,,,,,,,,5,,,,64,64
24960,note_on,0,0,8,,,,,,,,5,,,,62,92
24960,note_on,0,0,4,,,,,,,,2,,,,69,92
24960,note_on,0,0,10,,,,,,,,11,,,,74,92
24960,note_on,0,0,12,,,,,,,,13,,,,62,92
24960,note_off,120,0,12,,,,,,,,13,,,,64,64
24960,note_on,0,0,3,,,,,,,,2,,,,74,92
24960,note_off,120,0,3,,,,,,,,2,,,,76,64
24960,note_on,0,0,13,,,,,,,,14,,,,54,92
24960,note_off,240,0,13,,,,,,,,14,,,,57,64
24960,note_off,120,0,10,,,,,,,,11,,,,76,64
24960,note_on,0,0,9,,,,,,,,5,,,,54,92
24960,note_on,0,0,6,,,,,,,,3,,,,69,92
24960,note_off,480,0,6,,,,,,,,3,,,,74,64
24960,note_off,120,0,5,,,,,,,,3,,,,76,64
24960,note_on,0,0,5,,,,,,,,3,,,,74,92
24960,note_off,480,0,2,,,,,,,,1,,,,74,64
24960,note_on,0,0,2,,,,,,,,1,,,,69,92
24960,note_off,480,0,11,,,,,,,,12,,,,74,64
24960,note_off,240,0,9,,,,,,,,5,,,,57,64
24960,note_on,0,0,14,,,,,,,,15,,,,42,92
24960,note_off,480,0,14,,,,,,,,15,,,,50,64
24960,note_on,0,0,11,,,,,,,,12,,,,69,92
25195,note_off,235,0,4,,,,,,,,2,,,,69,64
25195,note_off,235,0,1,,,,,,,,0,,,,74,64
25195,note_off,235,0,14,,,,,,,,15,,,,42,64
25195,note_off,235,0,6,,,,,,,,3,,,,69,64
25195,note_off,235,0,12,,,,,,,,13,,,,62,64
25195,note_off,235,0,8,,,,,,,,5,,,,62,64
25195,note_off,235,0,10,,,,,,,,11,,,,74,64
25195,note_off,235,0,5,,,,,,,,3,,,,74,64
25195,note_off,235,0,3,,,,,,,,2,,,,74,64
25195,note_off,235,0,2,,,,,,,,1,,,,69,64
25195,note_off,235,0,7,,,,,,,,4,,,,54,64
25195,note_off,235,0,11,,,,,,,,12,,,,69,64
25195,note_off,235,0,9,,,,,,,,5,,,,54,64
25195,note_off,235,0,13,,,,,,,,14,,,,54,64
25200,note_on,5,0,3,,,,,,,,2,,,,74,92
25200,note_on,5,0,10,,,,,,,,11,,,,74,92
25200,set_tempo,720,1,0,1304347,,,,,,,,,,,,
25200,note_on,5,0,1,,,,,,,,0,,,,74,92
25200,note_on,5,0,7,,,,,,,,4,,,,50,92
25200,note_on,5,0,8,,,,,,,,5,,,,62,92
25200,note_on,5,0,14,,,,,,,,15,,,,38,92
25200,note_on,5,0,4,,,,,,,,2,,,,66,92
25200,note_on,5,0,9,,,,,,,,5,,,,54,92
25200,note_on,5,0,2,,,,,,,,1,,,,66,92
25200,note_on,5,0,6,,,,,,,,3,,,,66,92
25200,note_on,5,0,12,,,,,,,,13,,,,62,92
25200,note_on,5,0,5,,,,,,,,3,,,,74,92
25200,note_on,5,0,13,,,,,,,,14,,,,50,92
25200,note_on,5,0,11,,,,,,,,12,,,,66,92
25440,note_off,240,0,13,,,,,,,,14,,,,50,64
25440,note_off,240,0,7,,,,,,,,4,,,,50,64
25440,note_on,0,0,9,,,,,,,,5,,,,57,92
25440,note_on,0,0,7,,,,,,,,4,,,,54,92
25440,note_on,0,0,13,,,,,,,,14,,,,54,92
25440,note_off,240,0,9,,,,,,,,5,,,,54,64
25680,note_on,0,0,9,,,,,,,,5,,,,62,92
25680,note_off,240,0,9,,,,,,,,5,,,,57,64
25680,note_on,0,0,7,,,,,,,,4,,,,57,92
25680,note_off,240,0,13,,,,,,,,14,,,,54,64
25680,note_on,0,0,14,,,,,,,,15,,,,45,92
25680,note_on,0,0,13,,,,,,,,14,,,,57,92
25680,note_off,480,0,14,,,,,,,,15,,,,38,64
25680,note_off,240,0,7,,,,,,,,4,,,,54,64
25840,note_off,640,0,8,,,,,,,,5,,,,62,64
25840,note_off,640,0,1,,,,,,,,0,,,,74,64
25840,note_off,640,0,10,,,,,,,,11,,,,74,64
25840,note_off,640,0,5,,,,,,,,3,,,,74,64
25840,note_off,640,0,11,,,,,,,,12,,,,66,64
25840,note_off,640,0,2,,,,,,,,1,,,,66,64
25840,note_off,640,0,4,,,,,,,,2,,,,66,64
25840,note_off,640,0,6,,,,,,,,3,,,,66,64
25840,note_off,640,0,3,,,,,,,,2,,,,74,64
25840,note_off,640,0,12,,,,,,,,13,,,,62,64
25915,note_off,235,0,13,,,,,,,,14,,,,57,64
25915,note_off,235,0,9,,,,,,,,5,,,,62,64
25915,note_off,235,0,14,,,,,,,,15,,,,45,64
25915,note_off,235,0,7,,,,,,,,4,,,,57,64
25920,note_on,5,0,13,,,,,,,,14,,,,62,92
25920,note_on,80,0,6,,,,,,,,3,,,,78,92
25920,note_on,80,0,5,,,,,,,,3,,,,81,92
25920,note_on,80,0,1,,,,,,,,0,,,,81,92
25920,note_on,80,0,10,,,,,,,,11,,,,81,92
25920,note_on,80,0,3,,,,,,,,2,,,,81,92
25920,note_on,80,0,11,,,,,,,,12,,,,78,92
25920,note_on,80,0,12,,,,,,,,13,,,,69,92
25920,note_on,80,0,8,,,,,,,,5,,,,69,92
25920,note_on,5,0,14,,,,,,,,15,,,,50,92
25920,note_on,5,0,9,,,,,,,,5,,,,66,92
25920,note_on,5,0,7,,,,,,,,4,,,,62,92
25920,note_on,80,0,2,,,,,,,,1,,,,78,92
25920,note_on,80,0,4,,,,,,,,2,,,,78,92
25920,set_tempo,720,1,0,1153846,,,,,,,,,,,,
26280,note_off,360,0,6,,,,,,,,3,,,,78,64
26280,note_on,0,0,12,,,,,,,,13,,,,71,92
26280,note_off,360,0,11,,,,,,,,12,,,,78,64
26280,note_on,0,0,11,,,,,,,,12,,,,79,92
26280,note_off,360,0,4,,,,,,,,2,,,,78,64
26280,note_off,360,0,12,,,,,,,,13,,,,69,64
26280,note_on,0,0,4,,,,,,,,2,,,,79,92
26280,note_on,0,0,6,,,,,,,,3,,,,79,92
26280,note_off,360,0,2,,,,,,,,1,,,,78,64
26280,note_off,360,0,1,,,,,,,,0,,,,81,64
26280,note_on,0,0,1,,,,,,,,0,,,,83,92
26280,note_on,0,0,3,,,,,,,,2,,,,83,92
26280,note_off,360,0,3,,,,,,,,2,,,,81,64
26280,note_on,0,0,5,,,,,,,,3,,,,83,92
26280,note_off,360,0,5,,,,,,,,3,,,,81,64
26280,note_on,0,0,10,,,,,,,,11,,,,83,92
26280,note_on,0,0,2,,,,,,,,1,,,,79,92
26280,note_off,360,0,10,,,,,,,,11,,,,81,64
26280,note_on,0,0,9,,,,,,,,5,,,,67,92
26280,note_off,360,0,9,,,,,,,,5,,,,66,64
26280,note_off,360,0,8,,,,,,,,5,,,,69,64
26280,note_on,0,0,8,,,,,,,,5,,,,71,92
26400,note_on,0,0,11,,,,,,,,12,,,,78,92
26400,note_on,0,0,5,,,,,,,,3,,,,81,92
26400,note_off,120,0,9,,,,,,,,5,,,,67,64
26400,note_on,0,0,9,,,,,,,,5,,,,66,92
26400,note_on,0,0,10,,,,,,,,11,,,,81,92
26400,note_off,120,0,10,,,,,,,,11,,,,83,64
26400,note_on,0,0,12,,,,,,,,13,,,,69,92
26400,note_off,120,0,12,,,,,,,,13,,,,71,64
26400,note_off,120,0,5,,,,,,,,3,,,,83,64
26400,note_on,0,0,8,,,,,,,,5,,,,69,92
26400,note_off,120,0,4,,,,,,,,2,,,,79,64
26400,note_off,120,0,11,,,,,,,,12,,,,79,64
26400,note_on,0,0,6,,,,,,,,3,,,,78,92
26400,note_on,0,0,4,,,,,,,,2,,,,78,92
26400,note_off,120,0,8,,,,,,,,5,,,,71,64
26400,note_off,120,0,3,,,,,,,,2,,,,83,64
26400,note_off,120,0,6,,,,,,,,3,,,,79,64
26400,note_on,0,0,3,,,,,,,,2,,,,81,92
26400,note_on,0,0,1,,,,,,,,0,,,,81,92
26400,note_off,120,0,1,,,,,,,,0,,,,83,64
26400,note_off,120,0,2,,,,,,,,1,,,,79,64
26400,note_on,0,0,2,,,,,,,,1,,,,78,92
26560,note_off,640,0,7,,,,,,,,4,,,,62,64
26560,note_off,640,0,14,,,,,,,,15,,,,50,64
26560,note_off,640,0,13,,,,,,,,14,,,,62,64
26635,note_off,235,0,4,,,,,,,,2,,,,78,64
26635,note_off,235,0,3,,,,,,,,2,,,,81,64
26635,note_off,235,0,10,,,,,,,,11,,,,81,64
26635,note_off,235,0,2,,,,,,,,1,,,,78,64
26635,note_off,235,0,5,,,,,,,,3,,,,81,64
26635,note_off,235,0,12,,,,,,,,13,,,,69,64
26635,note_off,235,0,9,,,,,,,,5,,,,66,64
26635,note_off,235,0,11,,,,,,,,12,,,,78,64
26635,note_off,235,0,1,,,,,,,,0,,,,81,64
26635,note_off,235,0,8,,,,,,,,5,,,,69,64
26635,note_off,235,0,6,,,,,,,,3,,,,78,64
26640,note_on,5,0,6,,,,,,,,3,,,,78,92
26640,note_on,80,0,13,,,,,,,,14,,,,60,92
26640,note_on,5,0,4,,,,,,,,2,,,,78,92
26640,note_on,5,0,11,,,,,,,,12,,,,78,92
26640,note_on,5,0,2,,,,,,,,1,,,,78,92
26640,set_tempo,720,1,0,1111111,,,,,,,,,,,,
26640,note_on,5,0,5,,,,,,,,3,,,,81,92
26640,note_on,5,0,1,,,,,,,,0,,,,81,92
26640,note_on,80,0,7,,,,,,,,4,,,,60,92
26640,note_on,5,0,9,,,,,,,,5,,,,66,92
26640,note_on,5,0,12,,,,,,,,13,,,,69,92
26640,note_on,5,0,3,,,,,,,,2,,,,81,92
26640,note_on,5,0,10,,,,,,,,11,,,,81,92
26640,note_on,5,0,8,,,,,,,,5,,,,69,92
26640,note_on,80,0,14,,,,,,,,15,,,,48,92
26880,note_on,0,0,8,,,,,,,,5,,,,66,92
26880,note_on,0,0,1,,,,,,,,0,,,,78,92
26880,note_off,240,0,5,,,,,,,,3,,,,81,64
26880,note_on,0,0,12,,,,,,,,13,,,,66,92
26880,note_on,0,0,5,,,,,,,,3,,,,78,92
26880,note_on,0,0,6,,,,,,,,3,,,,74,92
26880,note_off,240,0,6,,,,,,,,3,,,,78,64
26880,note_off,240,0,8,,,,,,,,5,,,,69,64
26880,note_off,240,0,3,,,,,,,,2,,,,81,64
26880,note_off,240,0,12,,,,,,,,13,,,,69,64
26880,note_off,240,0,1,,,,,,,,0,,,,81,64
26880,note_off,240,0,2,,,,,,,,1,,,,78,64
26880,note_on,0,0,3,,,,,,,,2,,,,78,92
26880,note_off,240,0,10,,,,,,,,11,,,,81,64
26880,note_on,0,0,10,,,,,,,,11,,,,78,92
26880,note_on,0,0,11,,,,,,,,12,,,,74,92
26880,note_on,0,0,4,,,,,,,,2,,,,74,92
26880,note_off,240,0,9,,,,,,,,5,,,,66,64
26880,note_off,240,0,11,,,,,,,,12,,,,78,64
26880,note_on,0,0,2,,,,,,,,1,,,,74,92
26880,note_off,240,0,4,,,,,,,,2,,,,78,64
26880,note_on,0,0,9,,,,,,,,5,,,,62,92
27120,note_off,240,0,10,,,,,,,,11,,,,78,64
27120,note_on,0,0,10,,,,,,,,11,,,,74,92
27120,note_on,0,0,9,,,,,,,,5,,,,57,92
27120,note_off,240,0,8,,,,,,,,5,,,,66,64
27120,note_on,0,0,1,,,,,,,,0,,,,74,92
27120,note_off,240,0,1,,,,,,,,0,,,,78,64
27120,note_off,240,0,11,,,,,,,,12,,,,74,64
27120,note_on,0,0,11,,,,,,,,12,,,,69,92
27120,note_on,0,0,8,,,,,,,,5,,,,62,92
27120,note_off,240,0,9,,,,,,,,5,,,,62,64
27120,note_off,240,0,6,,,,,,,,3,,,,74,64
27120,note_off,240,0,3,,,,,,,,2,,,,78,64
27120,note_off,240,0,12,,,,,,,,13,,,,66,64
27120,note_off,240,0,2,,,,,,,,1,,,,74,64
27120,note_on,0,0,2,,,,,,,,1,,,,69,92
27120,note_on,0,0,3,,,,,,,,2,,,,74,92
27120,note_off,240,0,5,,,,,,,,3,,,,78,64
27120,note_on,0,0,5,,,,,,,,3,,,,74,92
27120,note_on,0,0,4,,,,,,,,2,,,,69,92
27120,note_off,240,0,4,,,,,,,,2,,,,74,64
27120,note_on,0,0,6,,,,,,,,3,,,,69,92
27120,note_on,0,0,12,,,,,,,,13,,,,62,92
27280,note_off,640,0,14,,,,,,,,15,,,,48,64
27280,note_off,640,0,7,,,,,,,,4,,,,60,64
27280,note_off,640,0,13,,,,,,,,14,,,,60,64
27355,note_off,235,0,12,,,,,,,,13,,,,62,64
27355,note_off,235,0,2,,,,,,,,1,,,,69,64
27355,note_off,235,0,8,,,,,,,,5,,,,62,64
27355,note_off,235,0,3,,,,,,,,2,,,,74,64
27355,note_off,235,0,9,,,,,,,,5,,,,57,64
27355,note_off,235,0,11,,,,,,,,12,,,,69,64
27355,note_off,235,0,6,,,,,,,,3,,,,69,64
27355,note_off,235,0,4,,,,,,,,2,,,,69,64
27355,note_off,235,0,5,,,,,,,,3,,,,74,64
27355,note_off,235,0,10,,,,,,,,11,,,,74,64
27355,note_off,235,0,1,,,,,,,,0,,,,74,64
27360,note_on,5,0,11,,,,,,,,12,,,,76,92
27360,note_on,5,0,5,,,,,,,,3,,,,79,92
27360,note_on,5,0,8,,,,,,,,5,,,,67,92
27360,note_on,5,0,12,,,,,,,,13,,,,67,92
27360,note_on,5,0,4,,,,,,,,2,,,,76,92
27360,note_on,5,0,2,,,,,,,,1,,,,76,92
27360,note_on,5,0,9,,,,,,,,5,,,,62,92
27360,note_on,5,0,1,,,,,,,,0,,,,79,92
27360,note_on,80,0,14,,,,,,,,15,,,,47,92
27360,note_on,5,0,6,,,,,,,,3,,,,76,92
27360,note_on,80,0,13,,,,,,,,14,,,,59,92
27360,note_on,80,0,7,,,,,,,,4,,,,59,92
27360,note_on,5,0,10,,,,,,,,11,,,,79,92
27360,note_on,5,0,3,,,,,,,,2,,,,79,92
27720,note_on,0,0,13,,,,,,,,14,,,,60,92
27720,note_off,360,0,13,,,,,,,,14,,,,59,64
27720,note_off,360,0,3,,,,,,,,2,,,,79,64
27720,note_off,360,0,10,,,,,,,,11,,,,79,64
27720,note_on,0,0,10,,,,,,,,11,,,,81,92
27720,note_off,360,0,8,,,,,,,,5,,,,67,64
27720,note_on,0,0,8,,,,,,,,5,,,,69,92
27720,note_on,0,0,2,,,,,,,,1,,,,78,92
27720,note_on,0,0,5,,,,,,,,3,,,,81,92
27720,note_off,360,0,5,,,,,,,,3,,,,79,64
27720,note_on,0,0,3,,,,,,,,2,,,,81,92
27720,note_off,360,0,2,,,,,,,,1,,,,76,64
27720,note_off,360,0,4,,,,,,,,2,,,,76,64
27720,note_on,0,0,6,,,,,,,,3,,,,78,92
27720,note_on,0,0,4,,,,,,,,2,,,,78,92
27720,note_off,360,0,11,,,,,,,,12,,,,76,64
27720,note_on,0,0,11,,,,,,,,12,,,,78,92
27720,note_off,360,0,6,,,,,,,,3,,,,76,64
27720,note_on,0,0,12,,,,,,,,13,,,,69,92
27720,note_off,360,0,12,,,,,,,,13,,,,67,64
27720,note_on,0,0,1,,,,,,,,0,,,,81,92
27720,note_on,0,0,9,,,,,,,,5,,,,64,92
27720,note_off,360,0,9,,,,,,,,5,,,,62,64
27720,note_off,360,0,7,,,,,,,,4,,,,59,64
27720,note_on,0,0,7,,,,,,,,4,,,,60,92
27720,note_off,360,0,14,,,,,,,,15,,,,47,64
27720,note_off,360,0,1,,,,,,,,0,,,,79,64
27720,note_on,0,0,14,,,,,,,,15,,,,48,92
27840,note_off,120,0,3,,,,,,,,2,,,,81,64
27840,note_off,120,0,9,,,,,,,,5,,,,64,64
27840,note_on,0,0,3,,,,,,,,2,,,,79,92
27840,note_on,0,0,2,,,,,,,,1,,,,76,92
27840,note_off,120,0,14,,,,,,,,15,,,,48,64
27840,note_off,120,0,11,,,,,,,,12,,,,78,64
27840,note_off,120,0,10,,,,,,,,11,,,,81,64
27840,note_on,0,0,10,,,,,,,,11,,,,79,92
27840,note_off,120,0,2,,,,,,,,1,,,,78,64
27840,note_off,120,0,7,,,,,,,,4,,,,60,64
27840,note_on,0,0,7,,,,,,,,4,,,,59,92
27840,note_on,0,0,11,,,,,,,,12,,,,76,92
27840,note_on,0,0,14,,,,,,,,15,,,,47,92
27840,note_off,120,0,4,,,,,,,,2,,,,78,64
27840,note_on,0,0,4,,,,,,,,2,,,,76,92
27840,note_on,0,0,12,,,,,,,,13,,,,67,92
27840,note_off,120,0,12,,,,,,,,13,,,,69,64
27840,note_off,120,0,1,,,,,,,,0,,,,81,64
27840,note_on,0,0,1,,,,,,,,0,,,,79,92
27840,note_on,0,0,8,,,,,,,,5,,,,67,92
27840,note_off,120,0,8,,,,,,,,5,,,,69,64
27840,note_off,120,0,6,,,,,,,,3,,,,78,64
27840,note_off,120,0,5,,,,,,,,3,,,,81,64
27840,note_on,0,0,5,,,,,,,,3,,,,79,92
27840,note_off,120,0,13,,,,,,,,14,,,,60,64
27840,note_on,0,0,13,,,,,,,,14,,,,59,92
27840,note_on,0,0,6,,,,,,,,3,,,,76,92
27840,note_on,0,0,9,,,,,,,,5,,,,62,92
28075,note_off,235,0,12,,,,,,,,13,,,,67,64
28075,note_off,235,0,1,,,,,,,,0,,,,79,64
28075,note_off,235,0,13,,,,,,,,14,,,,59,64
28075,note_off,235,0,10,,,,,,,,11,,,,79,64
28075,note_off,235,0,8,,,,,,,,5,,,,67,64
28075,note_off,235,0,11,,,,,,,,12,,,,76,64
28075,note_off,235,0,3,,,,,,,,2,,,,79,64
28075,note_off,235,0,9,,,,,,,,5,,,,62,64
28075,note_off,235,0,6,,,,,,,,3,,,,76,64
28075,note_off,235,0,2,,,,,,,,1,,,,76,64
28075,note_off,235,0,7,,,,,,,,4,,,,59,64
28075,note_off,235,0,5,,,,,,,,3,,,,79,64
28075,note_off,235,0,14,,,,,,,,15,,,,47,64
28075,note_off,235,0,4,,,,,,,,2,,,,76,64
28080,note_on,5,0,8,,,,,,,,5,,,,71,92
28080,note_on,5,0,11,,,,,,,,12,,,,79,92
28080,note_on,5,0,12,,,,,,,,13,,,,71,92
28080,note_on,5,0,2,,,,,,,,1,,,,79,92
28080,note_on,5,0,9,,,,,,,,5,,,,67,92
28080,note_on,5,0,13,,,,,,,,14,,,,59,92
28080,note_on,5,0,3,,,,,,,,2,,,,83,92
28080,note_on,5,0,1,,,,,,,,0,,,,83,92
28080,note_on,5,0,7,,,,,,,,4,,,,59,92
28080,note_on,5,0,14,,,,,,,,15,,,,47,92
28080,note_on,5,0,6,,,,,,,,3,,,,79,92
28080,set_tempo,1440,1,0,1250000,,,,,,,,,,,,
28080,note_on,5,0,5,,,,,,,,3,,,,83,92
28080,note_on,5,0,4,,,,,,,,2,,,,79,92
28080,note_on,5,0,10,,,,,,,,11,,,,83,92
28320,note_off,240,0,13,,,,,,,,14,,,,59,64
28320,note_on,0,0,13,,,,,,,,14,,,,55,92
28320,note_on,0,0,7,,,,,,,,4,,,,55,92
28320,note_off,240,0,7,,,,,,,,4,,,,59,64
28560,note_on,0,0,14,,,,,,,,15,,,,38,92
28560,note_off,240,0,7,,,,,,,,4,,,,55,64
28560,note_off,240,0,13,,,,,,,,14,,,,55,64
28560,note_on,0,0,13,,,,,,,,14,,,,50,92
28560,note_off,480,0,14,,,,,,,,15,,,,47,64
28560,note_on,0,0,7,,,,,,,,4,,,,50,92
28720,note_off,640,0,1,,,,,,,,0,,,,83,64
28720,note_off,640,0,8,,,,,,,,5,,,,71,64
28720,note_off,640,0,11,,,,,,,,12,,,,79,64
28720,note_off,640,0,12,,,,,,,,13,,,,71,64
28720,note_off,640,0,6,,,,,,,,3,,,,79,64
28720,note_off,640,0,2,,,,,,,,1,,,,79,64
28720,note_off,640,0,10,,,,,,,,11,,,,83,64
28720,note_off,640,0,5,,,,,,,,3,,,,83,64
28720,note_off,640,0,3,,,,,,,,2,,,,83,64
28720,note_off,640,0,4,,,,,,,,2,,,,79,64
28720,note_off,640,0,9,,,,,,,,5,,,,67,64
28795,note_off,235,0,14,,,,,,,,15,,,,38,64
28795,note_off,235,0,7,,,,,,,,4,,,,50,64
28795,note_off,235,0,13,,,,,,,,14,,,,50,64
28800,note_on,80,0,8,,,,,,,,5,,,,62,92
28800,note_on,80,0,1,,,,,,,,0,,,,74,92
28800,note_on,80,0,12,,,,,,,,13,,,,62,92
28800,note_on,80,0,5,,,,,,,,3,,,,74,92
28800,note_on,80,0,2,,,,,,,,1,,,,71,92
28800,note_on,80,0,11,,,,,,,,12,,,,71,92
28800,note_on,80,0,6,,,,,,,,3,,,,71,92
28800,note_on,80,0,3,,,,,,,,2,,,,74,92
28800,note_on,5,0,13,,,,,,,,14,,,,55,92
28800,set_tempo,720,1,0,1153846,,,,,,,,,,,,
28800,note_on,5,0,14,,,,,,,,15,,,,43,92
28800,note_on,80,0,10,,,,,,,,11,,,,74,92
28800,note_on,5,0,7,,,,,,,,4,,,,55,92
28800,note_on,80,0,4,,,,,,,,2,,,,71,92
29160,note_off,360,0,3,,,,,,,,2,,,,74,64
29160,note_on,0,0,3,,,,,,,,2,,,,76,92
29160,note_off,360,0,12,,,,,,,,13,,,,62,64
29160,note_on,0,0,12,,,,,,,,13,,,,64,92
29160,note_off,360,0,10,,,,,,,,11,,,,74,64
29160,note_on,0,0,10,,,,,,,,11,,,,76,92
29160,note_off,360,0,2,,,,,,,,1,,,,71,64
29160,note_on,0,0,1,,,,,,,,0,,,,76,92
29160,note_off,360,0,1,,,,,,,,0,,,,74,64
29160,note_on,0,0,4,,,,,,,,2,,,,73,92
29160,note_off,360,0,4,,,,,,,,2,,,,71,64
29160,note_off,360,0,8,,,,,,,,5,,,,62,64
29160,note_on,0,0,8,,,,,,,,5,,,,64,92
29160,note_on,0,0,6,,,,,,,,3,,,,73,92
29160,note_off,360,0,6,,,,,,,,3,,,,71,64
29160,note_off,360,0,5,,,,,,,,3,,,,74,64
29160,note_on,0,0,5,,,,,,,,3,,,,76,92
29160,note_on,0,0,2,,,,,,,,1,,,,73,92
29160,note_off,360,0,11,,,,,,,,12,,,,71,64
29160,note_on,0,0,11,,,,,,,,12,,,,73,92
29280,note_off,120,0,10,,,,,,,,11,,,,76,64
29280,note_on,0,0,11,,,,,,,,12,,,,71,92
29280,note_off,120,0,4,,,,,,,,2,,,,73,64
29280,note_on,0,0,4,,,,,,,,2,,,,71,92
29280,note_off,120,0,1,,,,,,,,0,,,,76,64
29280,note_on,0,0,3,,,,,,,,2,,,,74,92
29280,note_off,120,0,3,,,,,,,,2,,,,76,64
29280,note_on,0,0,1,,,,,,,,0,,,,74,92
29280,note_on,0,0,2,,,,,,,,1,,,,71,92
29280,note_on,0,0,10,,,,,,,,11,,,,74,92
29280,note_on,0,0,6,,,,,,,,3,,,,71,92
29280,note_on,0,0,8,,,,,,,,5,,,,62,92
29280,note_off,120,0,6,,,,,,,,3,,,,73,64
29280,note_off,120,0,2,,,,,,,,1,,,,73,64
29280,note_off,120,0,5,,,,,,,,3,,,,76,64
29280,note_on,0,0,5,,,,,,,,3,,,,74,92
29280,note_on,0,0,12,,,,,,,,13,,,,62,92
29280,note_off,120,0,12,,,,,,,,13,,,,64,64
29280,note_off,120,0,11,,,,,,,,12,,,,73,64
29280,note_off,120,0,8,,,,,,,,5,,,,64,64
29440,note_off,640,0,13,,,,,,,,14,,,,55,64
29440,note_off,640,0,7,,,,,,,,4,,,,55,64
29440,note_off,640,0,14,,,,,,,,15,,,,43,64
29515,note_off,235,0,1,,,,,,,,0,,,,74,64
29515,note_off,235,0,10,,,,,,,,11,,,,74,64
29515,note_off,235,0,12,,,,,,,,13,,,,62,64
29515,note_off,235,0,4,,,,,,,,2,,,,71,64
29515,note_off,235,0,11,,,,,,,,12,,,,71,64
29515,note_off,235,0,2,,,,,,,,1,,,,71,64
29515,note_off,235,0,6,,,,,,,,3,,,,71,64
29515,note_off,235,0,5,,,,,,,,3,,,,74,64
29515,note_off,235,0,3,,,,,,,,2,,,,74,64
29515,note_off,235,0,8,,,,,,,,5,,,,62,64
29520,note_on,80,0,14,,,,,,,,15,,,,38,92
29520,note_on,800,0,9,,,,,,,,5,,,,62,92
29520,note_on,80,0,13,,,,,,,,14,,,,50,92
29520,note_on,5,0,5,,,,,,,,3,,,,78,92
29520,note_on,5,0,12,,,,,,,,13,,,,66,92
29520,note_on,5,0,4,,,,,,,,2,,,,74,92
29520,note_on,80,0,7,,,,,,,,4,,,,50,92
29520,note_on,5,0,11,,,,,,,,12,,,,74,92
29520,note_on,5,0,6,,,,,,,,3,,,,74,92
29520,note_on,5,0,10,,,,,,,,11,,,,78,92
29520,note_on,5,0,1,,,,,,,,0,,,,78,92
29520,note_on,5,0,2,,,,,,,,1,,,,74,92
29520,note_on,5,0,3,,,,,,,,2,,,,78,92
29520,note_on,5,0,8,,,,,,,,5,,,,66,92
29760,note_on,0,0,7,,,,,,,,4,,,,54,92
29760,note_off,240,0,13,,,,,,,,14,,,,50,64
29760,note_on,0,0,9,,,,,,,,5,,,,57,92
29760,note_off,240,0,9,,,,,,,,5,,,,62,64
29760,note_on,0,0,13,,,,,,,,14,,,,54,92
29760,note_off,240,0,7,,,,,,,,4,,,,50,64
30000,note_off,240,0,13,,,,,,,,14,,,,54,64
30000,note_off,480,0,14,,,,,,,,15,,,,38,64
30000,note_off,240,0,7,,,,,,,,4,,,,54,64
30000,note_on,0,0,14,,,,,,,,15,,,,42,92
30000,note_on,0,0,7,,,,,,,,4,,,,50,92
30000,note_on,0,0,13,,,,,,,,14,,,,50,92
30000,note_off,240,0,9,,,,,,,,5,,,,57,64
30000,note_on,0,0,9,,,,,,,,5,,,,54,92
30160,note_off,640,0,2,,,,,,,,1,,,,74,64
30160,note_off,640,0,6,,,,,,,,3,,,,74,64
30160,note_off,640,0,1,,,,,,,,0,,,,78,64
30160,note_off,640,0,10,,,,,,,,11,,,,78,64
30160,note_off,640,0,8,,,,,,,,5,,,,66,64
30160,note_off,640,0,4,,,,,,,,2,,,,74,64
30160,note_off,640,0,3,,,,,,,,2,,,,78,64
30160,note_off,640,0,5,,,,,,,,3,,,,78,64
30160,note_off,640,0,11,,,,,,,,12,,,,74,64
30160,note_off,640,0,12,,,,,,,,13,,,,66,64
30235,note_off,235,0,13,,,,,,,,14,,,,50,64
30235,note_off,235,0,14,,,,,,,,15,,,,42,64
30235,note_off,235,0,9,,,,,,,,5,,,,54,64
30235,note_off,235,0,7,,,,,,,,4,,,,50,64
30240,note_on,5,0,7,,,,,,,,4,,,,57,92
30240,note_on,80,0,11,,,,,,,,12,,,,73,92
30240,note_on,80,0,3,,,,,,,,2,,,,76,92
30240,note_on,5,0,13,,,,,,,,14,,,,57,92
30240,note_on,80,0,6,,,,,,,,3,,,,73,92
30240,note_on,80,0,4,,,,,,,,2,,,,73,92
30240,note_on,80,0,2,,,,,,,,1,,,,73,92
30240,note_on,80,0,5,,,,,,,,3,,,,76,92
30240,note_on,5,0,9,,,,,,,,5,,,,57,92
30240,note_on,80,0,12,,,,,,,,13,,,,64,92
30240,note_on,5,0,14,,,,,,,,15,,,,45,92
30240,note_on,80,0,8,,,,,,,,5,,,,64,92
30240,note_on,80,0,10,,,,,,,,11,,,,76,92
30240,note_on,80,0,1,,,,,,,,0,,,,76,92
30600,note_off,360,0,5,,,,,,,,3,,,,76,64
30600,note_on,0,0,12,,,,,,,,13,,,,66,92
30600,note_on,0,0,8,,,,,,,,5,,,,66,92
30600,note_off,360,0,8,,,,,,,,5,,,,64,64
30600,note_off,360,0,11,,,,,,,,12,,,,73,64
30600,note_on,0,0,11,,,,,,,,12,,,,74,92
30600,note_off,360,0,12,,,,,,,,13,,,,64,64
30600,note_on,0,0,5,,,,,,,,3,,,,78,92
30600,note_off,360,0,4,,,,,,,,2,,,,73,64
30600,note_off,360,0,6,,,,,,,,3,,,,73,64
30600,note_off,360,0,1,,,,,,,,0,,,,76,64
30600,note_on,0,0,4,,,,,,,,2,,,,74,92
30600,note_on,0,0,1,,,,,,,,0,,,,78,92
30600,note_on,0,0,10,,,,,,,,11,,,,78,92
30600,note_off,360,0,10,,,,,,,,11,,,,76,64
30600,note_on,0,0,2,,,,,,,,1,,,,74,92
30600,note_off,360,0,2,,,,,,,,1,,,,73,64
30600,note_on,0,0,3,,,,,,,,2,,,,78,92
30600,note_off,360,0,3,,,,,,,,2,,,,76,64
30600,note_on,0,0,6,,,,,,,,3,,,,74,92
30720,note_on,0,0,2,,,,,,,,1,,,,73,92
30720,note_off,120,0,10,,,,,,,,11,,,,78,64
30720,note_off,120,0,5,,,,,,,,3,,,,78,64
30720,note_off,120,0,2,,,,,,,,1,,,,74,64
30720,note_on,0,0,6,,,,,,,,3,,,,73,92
30720,note_on,0,0,10,,,,,,,,11,,,,76,92
30720,note_off,120,0,8,,,,,,,,5,,,,66,64
30720,note_on,0,0,8,,,,,,,,5,,,,64,92
30720,note_on,0,0,5,,,,,,,,3,,,,76,92
30720,note_off,120,0,3,,,,,,,,2,,,,78,64
30720,note_off,120,0,11,,,,,,,,12,,,,74,64
30720,note_on,0,0,3,,,,,,,,2,,,,76,92
30720,note_on,0,0,11,,,,,,,,12,,,,73,92
30720,note_off,120,0,12,,,,,,,,13,,,,66,64
30720,note_on,0,0,4,,,,,,,,2,,,,73,92
30720,note_off,120,0,4,,,,,,,,2,,,,74,64
30720,note_off,120,0,6,,,,,,,,3,,,,74,64
30720,note_on,0,0,12,,,,,,,,13,,,,64,92
30720,note_on,0,0,1,,,,,,,,0,,,,76,92
30720,note_off,120,0,1,,,,,,,,0,,,,78,64
30880,note_off,640,0,14,,,,,,,,15,,,,45,64
30880,note_off,640,0,7,,,,,,,,4,,,,57,64
30880,note_off,640,0,9,,,,,,,,5,,,,57,64
30880,note_off,640,0,13,,,,,,,,14,,,,57,64
30955,note_off,235,0,2,,,,,,,,1,,,,73,64
30955,note_off,235,0,6,,,,,,,,3,,,,73,64
30955,note_off,235,0,4,,,,,,,,2,,,,73,64
30955,note_off,235,0,5,,,,,,,,3,,,,76,64
30955,note_off,235,0,1,,,,,,,,0,,,,76,64
30955,note_off,235,0,10,,,,,,,,11,,,,76,64
30955,note_off,235,0,12,,,,,,,,13,,,,64,64
30955,note_off,235,0,11,,,,,,,,12,,,,73,64
30955,note_off,235,0,3,,,,,,,,2,,,,76,64
30955,note_off,235,0,8,,,,,,,,5,,,,64,64
30960,note_on,5,0,10,,,,,,,,11,,,,79,92
30960,note_on,80,0,13,,,,,,,,14,,,,52,92
30960,note_on,5,0,12,,,,,,,,13,,,,67,92
30960,note_on,5,0,11,,,,,,,,12,,,,76,92
30960,note_on,5,0,8,,,,,,,,5,,,,67,92
30960,note_on,5,0,4,,,,,,,,2,,,,76,92
30960,note_on,5,0,6,,,,,,,,3,,,,76,92
30960,note_on,5,0,5,,,,,,,,3,,,,79,92
30960,note_on,5,0,2,,,,,,,,1,,,,76,92
30960,note_on,80,0,14,,,,,,,,15,,,,40,92
30960,note_on,5,0,3,,,,,,,,2,,,,79,92
30960,note_on,80,0,7,,,,,,,,4,,,,52,92
30960,note_on,5,0,1,,,,,,,,0,,,,79,92
31200,note_on,0,0,7,,,,,,,,4,,,,55,92
31200,note_off,240,0,7,,,,,,,,4,,,,52,64
31200,note_on,0,0,13,,,,,,,,14,,,,55,92
31200,note_off,240,0,13,,,,,,,,14,,,,52,64
31440,note_on,0,0,14,,,,,,,,15,,,,43,92
31440,note_off,480,0,14,,,,,,,,15,,,,40,64
31440,note_off,240,0,13,,,,,,,,14,,,,55,64
31440,note_on,0,0,13,,,,,,,,14,,,,52,92
31440,note_on,0,0,7,,,,,,,,4,,,,52,92
31440,note_off,240,0,7,,,,,,,,4,,,,55,64
31600,note_off,640,0,10,,,,,,,,11,,,,79,64
31600,note_off,640,0,12,,,,,,,,13,,,,67,64
31600,note_off,640,0,11,,,,,,,,12,,,,76,64
31600,note_off,640,0,4,,,,,,,,2,,,,76,64
31600,note_off,640,0,8,,,,,,,,5,,,,67,64
31600,note_off,640,0,1,,,,,,,,0,,,,79,64
31600,note_off,640,0,3,,,,,,,,2,,,,79,64
31600,note_off,640,0,5,,,,,,,,3,,,,79,64
31600,note_off,640,0,2,,,,,,,,1,,,,76,64
31600,note_off,640,0,6,,,,,,,,3,,,,76,64
31675,note_off,235,0,13,,,,,,,,14,,,,52,64
31675,note_off,235,0,14,,,,,,,,15,,,,43,64
31675,note_off,235,0,7,,,,,,,,4,,,,52,64
31680,note_on,80,0,3,,,,,,,,2,,,,78,92
31680,note_on,80,0,4,,,,,,,,2,,,,74,92
31680,note_on,80,0,6,,,,,,,,3,,,,74,92
31680,note_on,80,0,12,,,,,,,,13,,,,66,92
31680,note_on,80,0,1,,,,,,,,0,,,,78,92
31680,note_on,80,0,5,,,,,,,,3,,,,78,92
31680,note_on,5,0,13,,,,,,,,14,,,,59,92
31680,note_on,5,0,14,,,,,,,,15,,,,47,92
31680,note_on,80,0,8,,,,,,,,5,,,,66,92
31680,note_on,80,0,11,,,,,,,,12,,,,74,92
31680,note_on,800,0,9,,,,,,,,5,,,,62,92
31680,set_tempo,2880,1,0,1200000,,,,,,,,,,,,
31680,note_on,80,0,2,,,,,,,,1,,,,74,92
31680,note_on,5,0,7,,,,,,,,4,,,,59,92
31680,note_on,80,0,10,,,,,,,,11,,,,78,92
32040,note_off,360,0,6,,,,,,,,3,,,,74,64
32040,note_on,0,0,3,,,,,,,,2,,,,79,92
32040,note_off,360,0,8,,,,,,,,5,,,,66,64
32040,note_off,360,0,11,,,,,,,,12,,,,74,64
32040,note_on,0,0,11,,,,,,,,12,,,,76,92
32040,note_on,0,0,8,,,,,,,,5,,,,67,92
32040,note_off,360,0,12,,,,,,,,13,,,,66,64
32040,note_on,0,0,12,,,,,,,,13,,,,67,92
32040,note_on,0,0,9,,,,,,,,5,,,,64,92
32040,note_off,360,0,5,,,,,,,,3,,,,78,64
32040,note_on,0,0,5,,,,,,,,3,,,,79,92
32040,note_off,360,0,10,,,,,,,,11,,,,78,64
32040,note_on,0,0,1,,,,,,,,0,,,,79,92
32040,note_off,360,0,1,,,,,,,,0,,,,78,64
32040,note_off,360,0,9,,,,,,,,5,,,,62,64
32040,note_on,0,0,10,,,,,,,,11,,,,79,92
32040,note_off,360,0,3,,,,,,,,2,,,,78,64
32040,note_on,0,0,6,,,,,,,,3,,,,76,92
32040,note_on,0,0,4,,,,,,,,2,,,,76,92
32040,note_off,360,0,4,,,,,,,,2,,,,74,64
32040,note_off,360,0,2,,,,,,,,1,,,,74,64
32040,note_on,0,0,2,,,,,,,,1,,,,76,92
32160,note_off,120,0,6,,,,,,,,3,,,,76,64
32160,note_off,120,0,3,,,,,,,,2,,,,79,64
32160,note_off,120,0,11,,,,,,,,12,,,,76,64
32160,note_off,120,0,10,,,,,,,,11,,,,79,64
32160,note_on,0,0,10,,,,,,,,11,,,,78,92
32160,note_on,0,0,6,,,,,,,,3,,,,74,92
32160,note_on,0,0,11,,,,,,,,12,,,,74,92
32160,note_on,0,0,2,,,,,,,,1,,,,74,92
32160,note_on,0,0,8,,,,,,,,5,,,,66,92
32160,note_off,120,0,4,,,,,,,,2,,,,76,64
32160,note_on,0,0,4,,,,,,,,2,,,,74,92
32160,note_on,0,0,3,,,,,,,,2,,,,78,92
32160,note_off,120,0,5,,,,,,,,3,,,,79,64
32160,note_off,120,0,9,,,,,,,,5,,,,64,64
32160,note_on,0,0,9,,,,,,,,5,,,,62,92
32160,note_off,120,0,8,,,,,,,,5,,,,67,64
32160,note_on,0,0,5,,,,,,,,3,,,,78,92
32160,note_off,120,0,1,,,,,,,,0,,,,79,64
32160,note_on,0,0,1,,,,,,,,0,,,,78,92
32160,note_off,120,0,12,,,,,,,,13,,,,67,64
32160,note_on,0,0,12,,,,,,,,13,,,,66,92
32160,note_off,120,0,2,,,,,,,,1,,,,76,64
32320,note_off,640,0,13,,,,,,,,14,,,,59,64
32320,note_off,640,0,14,,,,,,,,15,,,,47,64
32320,note_off,640,0,7,,,,,,,,4,,,,59,64
32400,note_off,240,0,3,,,,,,,,2,,,,78,64
32400,set_tempo,720,1,0,1250000,,,,,,,,,,,,
32400,note_on,0,0,3,,,,,,,,2,,,,81,92
32400,note_on,0,0,10,,,,,,,,11,,,,81,92
32400,note_off,240,0,9,,,,,,,,5,,,,62,64
32400,note_on,0,0,11,,,,,,,,12,,,,78,92
32400,note_off,240,0,11,,,,,,,,12,,,,74,64
32400,note_on,80,0,14,,,,,,,,15,,,,42,92
32400,note_off,240,0,8,,,,,,,,5,,,,66,64
32400,note_on,0,0,8,,,,,,,,5,,,,69,92
32400,note_off,240,0,2,,,,,,,,1,,,,74,64
32400,note_on,0,0,2,,,,,,,,1,,,,78,92
32400,note_on,0,0,9,,,,,,,,5,,,,66,92
32400,note_on,80,0,7,,,,,,,,4,,,,54,92
32400,note_on,80,0,13,,,,,,,,14,,,,54,92
32400,note_on,0,0,1,,,,,,,,0,,,,81,92
32400,note_off,240,0,5,,,,,,,,3,,,,78,64
32400,note_off,240,0,1,,,,,,,,0,,,,78,64
32400,note_off,240,0,4,,,,,,,,2,,,,74,64
32400,note_on,0,0,4,,,,,,,,2,,,,78,92
32400,note_off,240,0,10,,,,,,,,11,,,,78,64
32400,note_off,240,0,6,,,,,,,,3,,,,74,64
32400,note_on,0,0,6,,,,,,,,3,,,,78,92
32400,note_off,240,0,12,,,,,,,,13,,,,66,64
32400,note_on,0,0,12,,,,,,,,13,,,,69,92
32400,note_on,0,0,5,,,,,,,,3,,,,81,92
32635,note_off,235,0,9,,,,,,,,5,,,,66,64
32635,note_off,235,0,12,,,,,,,,13,,,,69,64
32635,note_off,235,0,8,,,,,,,,5,,,,69,64
32635,note_off,235,0,5,,,,,,,,3,,,,81,64
32635,note_off,235,0,4,,,,,,,,2,,,,78,64
32635,note_off,235,0,11,,,,,,,,12,,,,78,64
32635,note_off,235,0,3,,,,,,,,2,,,,81,64
32635,note_off,235,0,1,,,,,,,,0,,,,81,64
32635,note_off,235,0,2,,,,,,,,1,,,,78,64
32635,note_off,235,0,6,,,,,,,,3,,,,78,64
32635,note_off,235,0,10,,,,,,,,11,,,,81,64
32640,note_on,5,0,5,,,,,,,,3,,,,83,92
32640,note_on,5,0,9,,,,,,,,5,,,,67,92
32640,note_on,5,0,4,,,,,,,,2,,,,79,92
32640,note_on,5,0,8,,,,,,,,5,,,,71,92
32640,note_on,5,0,2,,,,,,,,1,,,,79,92
32640,note_on,5,0,6,,,,,,,,3,,,,79,92
32640,note_on,0,0,7,,,,,,,,4,,,,50,92
32640,note_on,5,0,12,,,,,,,,13,,,,71,92
32640,note_on,5,0,10,,,,,,,,11,,,,83,92
32640,note_on,0,0,13,,,,,,,,14,,,,50,92
32640,note_off,240,0,13,,,,,,,,14,,,,54,64
32640,note_on,5,0,1,,,,,,,,0,,,,83,92
32640,note_on,5,0,3,,,,,,,,2,,,,83,92
32640,note_on,5,0,11,,,,,,,,12,,,,79,92
32640,note_off,240,0,7,,,,,,,,4,,,,54,64
32760,note_on,0,0,10,,,,,,,,11,,,,81,92
32760,note_off,120,0,2,,,,,,,,1,,,,79,64
32760,note_on,0,0,2,,,,,,,,1,,,,78,92
32760,note_off,120,0,1,,,,,,,,0,,,,83,64
32760,note_on,0,0,9,,,,,,,,5,,,,66,92
32760,note_off,120,0,9,,,,,,,,5,,,,67,64
32760,note_off,120,0,11,,,,,,,,12,,,,79,64
32760,note_on,0,0,11,,,,,,,,12,,,,78,92
32760,note_off,120,0,10,,,,,,,,11,,,,83,64
32760,note_on,0,0,1,,,,,,,,0,,,,81,92
32760,note_off,120,0,12,,,,,,,,13,,,,71,64
32760,note_on,0,0,12,,,,,,,,13,,,,69,92
32760,note_off,120,0,3,,,,,,,,2,,,,83,64
32760,note_off,120,0,6,,,,,,,,3,,,,79,64
32760,note_on,0,0,3,,,,,,,,2,,,,81,92
32760,note_on,0,0,8,,,,,,,,5,,,,69,92
32760,note_on,0,0,4,,,,,,,,2,,,,78,92
32760,note_off,120,0,8,,,,,,,,5,,,,71,64
32760,note_off,120,0,5,,,,,,,,3,,,,83,64
32760,note_on,0,0,5,,,,,,,,3,,,,81,92
32760,note_off,120,0,4,,,,,,,,2,,,,79,64
32760,note_on,0,0,6,,,,,,,,3,,,,78,92
32880,note_on,0,0,6,,,,,,,,3,,,,79,92
32880,note_on,0,0,3,,,,,,,,2,,,,83,92
32880,note_off,120,0,3,,,,,,,,2,,,,81,64
32880,note_off,120,0,11,,,,,,,,12,,,,78,64
32880,note_on,0,0,11,,,,,,,,12,,,,79,92
32880,note_on,0,0,5,,,,,,,,3,,,,83,92
32880,note_off,120,0,12,,,,,,,,13,,,,69,64
32880,note_off,120,0,5,,,,,,,,3,,,,81,64
32880,note_on,0,0,8,,,,,,,,5,,,,71,92
32880,note_off,120,0,8,,,,,,,,5,,,,69,64
32880,note_on,0,0,12,,,,,,,,13,,,,71,92
32880,note_off,120,0,2,,,,,,,,1,,,,78,64
32880,note_on,0,0,2,,,,,,,,1,,,,79,92
32880,note_off,120,0,6,,,,,,,,3,,,,78,64
32880,note_off,120,0,1,,,,,,,,0,,,,81,64
32880,note_on,0,0,14,,,,,,,,15,,,,42,92
32880,note_on,0,0,4,,,,,,,,2,,,,79,92
32880,note_off,240,0,13,,,,,,,,14,,,,50,64
32880,note_on,0,0,9,,,,,,,,5,,,,67,92
32880,note_off,120,0,4,,,,,,,,2,,,,78,64
32880,note_on,0,0,7,,,,,,,,4,,,,54,92
32880,note_off,240,0,7,,,,,,,,4,,,,50,64
32880,note_off,120,0,10,,,,,,,,11,,,,81,64
32880,note_off,480,0,14,,,,,,,,15,,,,42,64
32880,note_off,120,0,9,,,,,,,,5,,,,66,64
32880,note_on,0,0,1,,,,,,,,0,,,,83,92
32880,note_on,0,0,10,,,,,,,,11,,,,83,92
32880,note_on,0,0,13,,,,,,,,14,,,,54,92
33000,note_on,0,0,10,,,,,,,,11,,,,81,92
33000,note_off,120,0,4,,,,,,,,2,,,,79,64
33000,note_off,120,0,1,,,,,,,,0,,,,83,64
33000,note_on,0,0,3,,,,,,,,2,,,,81,92
33000,note_off,120,0,8,,,,,,,,5,,,,71,64
33000,note_off,120,0,5,,,,,,,,3,,,,83,64
33000,note_off,120,0,3,,,,,,,,2,,,,83,64
33000,note_on,0,0,2,,,,,,,,1,,,,78,92
33000,note_off,120,0,9,,,,,,,,5,,,,67,64
33000,note_on,0,0,4,,,,,,,,2,,,,78,92
33000,note_on,0,0,5,,,,,,,,3,,,,81,92
33000,note_on,0,0,9,,,,,,,,5,,,,66,92
33000,note_off,120,0,10,,,,,,,,11,,,,83,64
33000,note_on,0,0,8,,,,,,,,5,,,,69,92
33000,note_off,120,0,11,,,,,,,,12,,,,79,64
33000,note_on,0,0,12,,,,,,,,13,,,,69,92
33000,note_off,120,0,12,,,,,,,,13,,,,71,64
33000,note_on,0,0,11,,,,,,,,12,,,,78,92
33000,note_on,0,0,6,,,,,,,,3,,,,78,92
33000,note_off,120,0,6,,,,,,,,3,,,,79,64
33000,note_off,120,0,2,,,,,,,,1,,,,79,64
33000,note_on,0,0,1,,,,,,,,0,,,,81,92
33115,note_off,235,0,13,,,,,,,,14,,,,54,64
33115,note_off,235,0,14,,,,,,,,15,,,,42,64
33115,note_off,235,0,7,,,,,,,,4,,,,54,64
33120,note_on,0,0,1,,,,,,,,0,,,,79,92
33120,note_off,120,0,3,,,,,,,,2,,,,81,64
33120,note_on,0,0,2,,,,,,,,1,,,,76,92
33120,note_off,120,0,10,,,,,,,,11,,,,81,64
33120,note_off,120,0,2,,,,,,,,1,,,,78,64
33120,note_off,120,0,4,,,,,,,,2,,,,78,64
33120,note_on,0,0,4,,,,,,,,2,,,,76,92
33120,note_on,5,0,14,,,,,,,,15,,,,43,92
33120,note_on,0,0,12,,,,,,,,13,,,,67,92
33120,note_off,120,0,12,,,,,,,,13,,,,69,64
33120,set_tempo,720,1,0,1304347,,,,,,,,,,,,
33120,note_on,5,0,7,,,,,,,,4,,,,55,92
33120,note_off,120,0,1,,,,,,,,0,,,,81,64
33120,note_on,0,0,3,,,,,,,,2,,,,79,92
33120,note_on,0,0,10,,,,,,,,11,,,,79,92
33120,note_on,0,0,9,,,,,,,,5,,,,64,92
33120,note_off,120,0,6,,,,,,,,3,,,,78,64
33120,note_on,0,0,6,,,,,,,,3,,,,76,92
33120,note_off,120,0,11,,,,,,,,12,,,,78,64
33120,note_on,0,0,11,,,,,,,,12,,,,76,92
33120,note_on,0,0,5,,,,,,,,3,,,,79,92
33120,note_off,120,0,5,,,,,,,,3,,,,81,64
33120,note_on,0,0,8,,,,,,,,5,,,,67,92
33120,note_off,120,0,9,,,,,,,,5,,,,66,64
33120,note_on,5,0,13,,,,,,,,14,,,,55,92
33120,note_off,120,0,8,,,,,,,,5,,,,69,64
33360,note_on,0,0,10,,,,,,,,11,,,,78,85
33360,note_on,0,0,2,,,,,,,,1,,,,74,85
33360,note_on,0,0,3,,,,,,,,2,,,,78,85
33360,note_off,240,0,3,,,,,,,,2,,,,79,64
33360,note_off,240,0,2,,,,,,,,1,,,,76,64
33360,note_off,240,0,13,,,,,,,,14,,,,55,64
33360,note_off,240,0,4,,,,,,,,2,,,,76,64
33360,note_off,240,0,9,,,,,,,,5,,,,64,64
33360,note_on,0,0,9,,,,,,,,5,,,,62,85
33360,set_tempo,240,1,0,1428571,,,,,,,,,,,,
33360,note_on,0,0,4,,,,,,,,2,,,,74,85
33360,note_on,0,0,6,,,,,,,,3,,,,74,85
33360,note_off,240,0,6,,,,,,,,3,,,,76,64
33360,note_off,240,0,10,,,,,,,,11,,,,79,64
33360,note_on,0,0,5,,,,,,,,3,,,,78,85
33360,note_off,240,0,7,,,,,,,,4,,,,55,64
33360,note_on,0,0,11,,,,,,,,12,,,,74,85
33360,note_on,0,0,12,,,,,,,,13,,,,66,85
33360,note_off,240,0,12,,,,,,,,13,,,,67,64
33360,note_on,0,0,7,,,,,,,,4,,,,50,85
33360,note_off,240,0,8,,,,,,,,5,,,,67,64
33360,note_on,0,0,8,,,,,,,,5,,,,66,85
33360,note_off,240,0,5,,,,,,,,3,,,,79,64
33360,note_off,240,0,11,,,,,,,,12,,,,76,64
33360,note_on,0,0,13,,,,,,,,14,,,,50,85
33360,note_off,240,0,1,,,,,,,,0,,,,79,64
33360,note_on,0,0,1,,,,,,,,0,,,,78,85
33600,note_off,240,0,13,,,,,,,,14,,,,50,64
33600,note_on,0,0,14,,,,,,,,15,,,,30,77
33600,note_on,0,0,7,,,,,,,,4,,,,42,77
33600,note_off,240,0,7,,,,,,,,4,,,,50,64
33600,note_off,480,0,14,,,,,,,,15,,,,43,64
33600,note_on,0,0,13,,,,,,,,14,,,,42,77
33760,note_off,400,0,4,,,,,,,,2,,,,74,64
33760,note_off,400,0,6,,,,,,,,3,,,,74,64
33760,note_off,400,0,9,,,,,,,,5,,,,62,64
33760,note_off,400,0,12,,,,,,,,13,,,,66,64
33760,note_off,400,0,11,,,,,,,,12,,,,74,64
33760,note_off,400,0,1,,,,,,,,0,,,,78,64
33760,note_off,400,0,8,,,,,,,,5,,,,66,64
33760,note_off,400,0,10,,,,,,,,11,,,,78,64
33760,note_off,400,0,5,,,,,,,,3,,,,78,64
33760,note_off,400,0,2,,,,,,,,1,,,,74,64
33760,note_off,400,0,3,,,,,,,,2,,,,78,64
33835,note_off,235,0,7,,,,,,,,4,,,,42,64
33835,note_off,235,0,14,,,,,,,,15,,,,30,64
33835,note_off,235,0,13,,,,,,,,14,,,,42,64
33840,note_on,5,0,7,,,,,,,,4,,,,45,69
33840,note_on,80,0,10,,,,,,,,11,,,,76,69
33840,note_on,80,0,2,,,,,,,,1,,,,69,69
33840,note_on,80,0,4,,,,,,,,2,,,,73,69
33840,note_on,80,0,3,,,,,,,,2,,,,76,69
33840,note_on,80,0,5,,,,,,,,3,,,,76,69
33840,note_on,80,0,11,,,,,,,,12,,,,69,69
33840,note_on,80,0,9,,,,,,,,5,,,,61,69
33840,note_on,80,0,8,,,,,,,,5,,,,64,69
33840,note_on,80,0,6,,,,,,,,3,,,,69,69
33840,note_on,5,0,14,,,,,,,,15,,,,33,69
33840,note_on,80,0,12,,,,,,,,13,,,,64,69
33840,note_on,80,0,1,,,,,,,,0,,,,76,69
33840,note_on,5,0,13,,,,,,,,14,,,,45,69
33840,set_tempo,480,1,0,1578947,,,,,,,,,,,,
34080,set_tempo,240,1,0,1304347,,,,,,,,,,,,
34080,note_on,0,0,13,,,,,,,,14,,,,57,61
34080,note_off,240,0,7,,,,,,,,4,,,,45,64
34080,note_on,0,0,7,,,,,,,,4,,,,57,61
34080,note_off,240,0,13,,,,,,,,14,,,,45,64
34320,note_on,0,0,7,,,,,,,,4,,,,55,53
34320,note_off,240,0,7,,,,,,,,4,,,,57,64
34320,note_off,480,0,14,,,,,,,,15,,,,33,64
34320,set_tempo,240,1,0,1200000,,,,,,,,,,,,
34320,note_off,240,0,13,,,,,,,,14,,,,57,64
34320,note_on,0,0,13,,,,,,,,14,,,,55,53
34320,note_on,0,0,14,,,,,,,,15,,,,43,53
34480,note_off,640,0,6,,,,,,,,3,,,,69,64
34480,note_off,640,0,2,,,,,,,,1,,,,69,64
34480,note_off,640,0,8,,,,,,,,5,,,,64,64
34480,note_off,640,0,12,,,,,,,,13,,,,64,64
34480,note_off,640,0,1,,,,,,,,0,,,,76,64
34480,note_off,640,0,11,,,,,,,,12,,,,69,64
34480,note_off,640,0,4,,,,,,,,2,,,,73,64
34480,note_off,640,0,10,,,,,,,,11,,,,76,64
34480,note_off,640,0,5,,,,,,,,3,,,,76,64
34480,note_off,640,0,3,,,,,,,,2,,,,76,64
34480,note_off,640,0,9,,,,,,,,5,,,,61,64
34555,note_off,235,0,7,,,,,,,,4,,,,55,64
34555,note_off,235,0,13,,,,,,,,14,,,,55,64
34555,note_off,235,0,14,,,,,,,,15,,,,43,64
34560,note_on,80,0,9,,,,,,,,5,,,,62,45
34560,note_on,5,0,13,,,,,,,,14,,,,54,45
34560,note_on,80,0,5,,,,,,,,3,,,,69,45
34560,note_on,80,0,6,,,,,,,,3,,,,74,45
34560,note_on,80,0,8,,,,,,,,5,,,,69,45
34560,note_on,80,0,10,,,,,,,,11,,,,81,45
34560,note_on,80,0,12,,,,,,,,13,,,,69,45
34560,note_on,5,0,7,,,,,,,,4,,,,54,45
34560,note_on,80,0,11,,,,,,,,12,,,,74,45
34560,note_on,80,0,1,,,,,,,,0,,,,81,45
34560,set_tempo,240,1,0,1153846,,,,,,,,,,,,
34560,note_on,80,0,4,,,,,,,,2,,,,74,45
34560,note_on,5,0,14,,,,,,,,15,,,,42,45
34560,note_on,80,0,2,,,,,,,,1,,,,74,45
34560,note_on,80,0,3,,,,,,,,2,,,,69,45
34800,note_on,0,0,14,,,,,,,,15,,,,38,45
34800,note_on,0,0,9,,,,,,,,5,,,,66,45
34800,note_off,240,0,9,,,,,,,,5,,,,62,64
34800,note_off,240,0,14,,,,,,,,15,,,,42,64
34800,note_on,0,0,2,,,,,,,,1,,,,78,45
34800,note_off,240,0,2,,,,,,,,1,,,,74,64
34800,note_on,0,0,6,,,,,,,,3,,,,78,45
34800,note_off,240,0,13,,,,,,,,14,,,,54,64
34800,note_on,0,0,13,,,,,,,,14,,,,50,45
34800,note_on,0,0,11,,,,,,,,12,,,,78,45
34800,note_off,240,0,11,,,,,,,,12,,,,74,64
34800,note_off,240,0,4,,,,,,,,2,,,,74,64
34800,note_on,0,0,4,,,,,,,,2,,,,78,45
34800,note_off,240,0,7,,,,,,,,4,,,,54,64
34800,note_off,240,0,6,,,,,,,,3,,,,74,64
34800,note_on,0,0,7,,,,,,,,4,,,,50,45
35040,note_on,0,0,4,,,,,,,,2,,,,79,45
35040,note_off,480,0,10,,,,,,,,11,,,,81,64
35040,note_off,480,0,5,,,,,,,,3,,,,69,64
35040,note_off,240,0,4,,,,,,,,2,,,,78,64
35040,note_on,0,0,5,,,,,,,,3,,,,71,45
35040,note_on,0,0,10,,,,,,,,11,,,,83,45
35040,note_off,240,0,7,,,,,,,,4,,,,50,64
35040,note_on,0,0,11,,,,,,,,12,,,,79,45
35040,note_off,240,0,14,,,,,,,,15,,,,38,64
35040,note_on,0,0,14,,,,,,,,15,,,,42,45
35040,note_on,0,0,1,,,,,,,,0,,,,83,45
35040,note_on,0,0,7,,,,,,,,4,,,,54,45
35040,note_off,480,0,1,,,,,,,,0,,,,81,64
35040,note_on,0,0,8,,,,,,,,5,,,,71,45
35040,note_off,480,0,8,,,,,,,,5,,,,69,64
35040,note_on,0,0,12,,,,,,,,13,,,,71,45
35040,note_off,480,0,12,,,,,,,,13,,,,69,64
35040,note_off,240,0,11,,,,,,,,12,,,,78,64
35040,note_off,480,0,3,,,,,,,,2,,,,69,64
35040,note_on,0,0,6,,,,,,,,3,,,,79,45
35040,note_off,240,0,6,,,,,,,,3,,,,78,64
35040,note_on,0,0,3,,,,,,,,2,,,,71,45
35040,note_on,0,0,2,,,,,,,,1,,,,79,45
35040,note_on,0,0,9,,,,,,,,5,,,,67,45
35040,note_off,240,0,9,,,,,,,,5,,,,66,64
35040,note_on,0,0,13,,,,,,,,14,,,,54,45
35040,note_off,240,0,13,,,,,,,,14,,,,50,64
35040,note_off,240,0,2,,,,,,,,1,,,,78,64
35275,note_off,235,0,1,,,,,,,,0,,,,83,64
35275,note_off,235,0,3,,,,,,,,2,,,,71,64
35275,note_off,235,0,5,,,,,,,,3,,,,71,64
35275,note_off,235,0,14,,,,,,,,15,,,,42,64
35275,note_off,235,0,9,,,,,,,,5,,,,67,64
35275,note_off,235,0,7,,,,,,,,4,,,,54,64
35275,note_off,235,0,10,,,,,,,,11,,,,83,64
35275,note_off,235,0,12,,,,,,,,13,,,,71,64
35275,note_off,235,0,13,,,,,,,,14,,,,54,64
35275,note_off,235,0,4,,,,,,,,2,,,,79,64
35275,note_off,235,0,2,,,,,,,,1,,,,79,64
35275,note_off,235,0,11,,,,,,,,12,,,,79,64
35275,note_off,235,0,6,,,,,,,,3,,,,79,64
35275,note_off,235,0,8,,,,,,,,5,,,,71,64
35280,note_on,5,0,3,,,,,,,,2,,,,73,45
35280,note_on,5,0,13,,,,,,,,14,,,,57,45
35280,note_on,5,0,9,,,,,,,,5,,,,64,45
35280,note_on,5,0,11,,,,,,,,12,,,,76,45
35280,note_on,5,0,12,,,,,,,,13,,,,73,45
35280,note_on,5,0,7,,,,,,,,4,,,,57,45
35280,note_on,5,0,14,,,,,,,,15,,,,45,45
35280,note_on,5,0,2,,,,,,,,1,,,,76,45
35280,note_on,5,0,4,,,,,,,,2,,,,76,45
35280,note_on,5,0,1,,,,,,,,0,,,,85,45
35280,note_on,5,0,6,,,,,,,,3,,,,76,45
35280,note_on,5,0,8,,,,,,,,5,,,,73,45
35280,note_on,5,0,10,,,,,,,,11,,,,85,45
35280,note_on,5,0,5,,,,,,,,3,,,,73,45
35310,note_off,30,0,4,,,,,,,,2,,,,76,64
35310,note_on,0,0,2,,,,,,,,1,,,,78,47
35310,note_off,30,0,2,,,,,,,,1,,,,76,64
35310,note_on,0,0,6,,,,,,,,3,,,,78,47
35310,note_off,30,0,6,,,,,,,,3,,,,76,64
35310,note_on,0,0,4,,,,,,,,2,,,,78,47
35340,note_on,0,0,4,,,,,,,,2,,,,76,50
35340,note_on,0,0,2,,,,,,,,1,,,,76,50
35340,note_off,30,0,2,,,,,,,,1,,,,78,64
35340,note_off,30,0,6,,,,,,,,3,,,,78,64
35340,note_on,0,0,6,,,,,,,,3,,,,76,50
35340,note_off,30,0,4,,,,,,,,2,,,,78,64
35370,note_off,30,0,2,,,,,,,,1,,,,76,64
35370,note_on,0,0,2,,,,,,,,1,,,,78,53
35370,note_off,30,0,4,,,,,,,,2,,,,76,64
35370,note_on,0,0,4,,,,,,,,2,,,,78,53
35370,note_off,30,0,6,,,,,,,,3,,,,76,64
35370,note_on,0,0,6,,,,,,,,3,,,,78,53
35400,note_on,0,0,6,,,,,,,,3,,,,76,56
35400,note_on,0,0,4,,,,,,,,2,,,,76,56
35400,note_off,30,0,4,,,,,,,,2,,,,78,64
35400,note_on,0,0,2,,,,,,,,1,,,,76,56
35400,note_off,30,0,2,,,,,,,,1,,,,78,64
35400,note_off,30,0,6,,,,,,,,3,,,,78,64
35430,note_off,30,0,4,,,,,,,,2,,,,76,64
35430,note_on,0,0,4,,,,,,,,2,,,,78,59
35430,note_on,0,0,2,,,,,,,,1,,,,78,59
35430,note_off,30,0,6,,,,,,,,3,,,,76,64
35430,note_on,0,0,6,,,,,,,,3,,,,78,59
35430,note_off,30,0,2,,,,,,,,1,,,,76,64
35460,note_on,0,0,4,,,,,,,,2,,,,76,62
35460,note_off,30,0,4,,,,,,,,2,,,,78,64
35460,note_off,30,0,2,,,,,,,,1,,,,78,64
35460,note_off,30,0,6,,,,,,,,3,,,,78,64
35460,note_on,0,0,6,,,,,,,,3,,,,76,62
35460,note_on,0,0,2,,,,,,,,1,,,,76,62
35490,note_off,30,0,2,,,,,,,,1,,,,76,64
35490,note_on,0,0,4,,,,,,,,2,,,,78,65
35490,note_off,30,0,4,,,,,,,,2,,,,76,64
35490,note_on,0,0,2,,,,,,,,1,,,,78,65
35490,note_off,30,0,6,,,,,,,,3,,,,76,64
35490,note_on,0,0,6,,,,,,,,3,,,,78,65
35520,note_off,30,0,4,,,,,,,,2,,,,78,64
35520,note_off,30,0,6,,,,,,,,3,,,,78,64
35520,note_on,0,0,6,,,,,,,,3,,,,76,68
35520,note_on,0,0,4,,,,,,,,2,,,,76,68
35520,note_off,30,0,2,,,,,,,,1,,,,78,64
35520,note_on,0,0,2,,,,,,,,1,,,,76,68
35550,note_on,0,0,6,,,,,,,,3,,,,78,71
35550,note_on,0,0,2,,,,,,,,1,,,,78,71
35550,note_off,30,0,2,,,,,,,,1,,,,76,64
35550,note_off,30,0,4,,,,,,,,2,,,,76,64
35550,note_on,0,0,4,,,,,,,,2,,,,78,71
35550,note_off,30,0,6,,,,,,,,3,,,,76,64
35580,note_off,30,0,6,,,,,,,,3,,,,78,64
35580,note_on,0,0,2,,,,,,,,1,,,,76,74
35580,note_off,30,0,2,,,,,,,,1,,,,78,64
35580,note_off,30,0,4,,,,,,,,2,,,,78,64
35580,note_on,0,0,4,,,,,,,,2,,,,76,74
35580,note_on,0,0,6,,,,,,,,3,,,,76,74
35610,note_off,30,0,2,,,,,,,,1,,,,76,64
35610,note_off,30,0,6,,,,,,,,3,,,,76,64
35610,note_off,30,0,4,,,,,,,,2,,,,76,64
35610,note_on,0,0,4,,,,,,,,2,,,,78,77
35610,note_on,0,0,6,,,,,,,,3,,,,78,77
35610,note_on,0,0,2,,,,,,,,1,,,,78,77
35640,note_off,30,0,6,,,,,,,,3,,,,78,64
35640,note_off,360,0,12,,,,,,,,13,,,,73,64
35640,note_on,0,0,12,,,,,,,,13,,,,71,80
35640,note_on,0,0,10,,,,,,,,11,,,,83,80
35640,note_on,0,0,3,,,,,,,,2,,,,71,80
35640,note_off,360,0,3,,,,,,,,2,,,,73,64
35640,note_on,0,0,6,,,,,,,,3,,,,74,80
35640,note_on,0,0,5,,,,,,,,3,,,,71,80
35640,note_off,360,0,10,,,,,,,,11,,,,85,64
35640,note_off,360,0,11,,,,,,,,12,,,,76,64
35640,note_off,30,0,2,,,,,,,,1,,,,78,64
35640,note_off,360,0,5,,,,,,,,3,,,,73,64
35640,note_on,0,0,1,,,,,,,,0,,,,83,80
35640,note_off,30,0,4,,,,,,,,2,,,,78,64
35640,note_off,360,0,1,,,,,,,,0,,,,85,64
35640,note_on,0,0,2,,,,,,,,1,,,,74,80
35640,note_on,0,0,11,,,,,,,,12,,,,74,80
35640,note_on,0,0,4,,,,,,,,2,,,,74,80
35700,note_on,0,0,6,,,,,,,,3,,,,76,86
35700,note_off,60,0,6,,,,,,,,3,,,,74,64
35700,note_on,0,0,11,,,,,,,,12,,,,76,86
35700,note_off,60,0,12,,,,,,,,13,,,,71,64
35700,note_on,0,0,12,,,,,,,,13,,,,73,86
35700,note_on,0,0,2,,,,,,,,1,,,,76,86
35700,note_on,0,0,3,,,,,,,,2,,,,73,86
35700,note_off,60,0,3,,,,,,,,2,,,,71,64
35700,note_off,60,0,2,,,,,,,,1,,,,74,64
35700,note_on,0,0,10,,,,,,,,11,,,,85,86
35700,note_off,60,0,11,,,,,,,,12,,,,74,64
35700,note_off,60,0,5,,,,,,,,3,,,,71,64
35700,note_on,0,0,4,,,,,,,,2,,,,76,86
35700,note_off,60,0,4,,,,,,,,2,,,,74,64
35700,note_on,0,0,5,,,,,,,,3,,,,73,86
35700,note_off,60,0,10,,,,,,,,11,,,,83,64
35700,note_off,60,0,1,,,,,,,,0,,,,83,64
35700,note_on,0,0,1,,,,,,,,0,,,,85,86
35760,note_on,0,0,11,,,,,,,,12,,,,78,92
35760,note_off,60,0,5,,,,,,,,3,,,,73,64
35760,note_on,0,0,5,,,,,,,,3,,,,74,92
35760,note_on,0,0,2,,,,,,,,1,,,,78,92
35760,note_on,0,0,13,,,,,,,,14,,,,50,92
35760,note_off,480,0,13,,,,,,,,14,,,,57,64
35760,note_on,0,0,9,,,,,,,,5,,,,66,92
35760,note_off,480,0,8,,,,,,,,5,,,,73,64
35760,note_on,0,0,8,,,,,,,,5,,,,74,92
35760,note_on,0,0,6,,,,,,,,3,,,,78,92
35760,note_off,60,0,6,,,,,,,,3,,,,76,64
35760,note_off,60,0,11,,,,,,,,12,,,,76,64
35760,note_off,60,0,2,,,,,,,,1,,,,76,64
35760,note_off,60,0,10,,,,,,,,11,,,,85,64
35760,note_on,0,0,7,,,,,,,,4,,,,50,92
35760,note_off,60,0,1,,,,,,,,0,,,,85,64
35760,note_on,0,0,1,,,,,,,,0,,,,86,92
35760,note_off,60,0,3,,,,,,,,2,,,,73,64
35760,note_on,0,0,3,,,,,,,,2,,,,74,92
35760,note_off,480,0,7,,,,,,,,4,,,,57,64
35760,note_off,60,0,12,,,,,,,,13,,,,73,64
35760,note_on,0,0,12,,,,,,,,13,,,,74,92
35760,note_on,0,0,14,,,,,,,,15,,,,38,92
35760,note_on,0,0,4,,,,,,,,2,,,,78,92
35760,note_on,0,0,10,,,,,,,,11,,,,86,92
35760,note_off,60,0,4,,,,,,,,2,,,,76,64
35760,note_off,480,0,14,,,,,,,,15,,,,45,64
35760,note_off,480,0,9,,,,,,,,5,,,,64,64
35995,note_off,235,0,14,,,,,,,,15,,,,38,64
35995,note_off,235,0,13,,,,,,,,14,,,,50,64
35995,note_off,235,0,12,,,,,,,,13,,,,74,64
35995,note_off,235,0,10,,,,,,,,11,,,,86,64
35995,note_off,235,0,11,,,,,,,,12,,,,78,64
35995,note_off,235,0,6,,,,,,,,3,,,,78,64
35995,note_off,235,0,7,,,,,,,,4,,,,50,64
35995,note_off,235,0,1,,,,,,,,0,,,,86,64
35995,note_off,235,0,2,,,,,,,,1,,,,78,64
35995,note_off,235,0,8,,,,,,,,5,,,,74,64
35995,note_off,235,0,9,,,,,,,,5,,,,66,64
35995,note_off,235,0,4,,,,,,,,2,,,,78,64
35995,note_off,235,0,5,,,,,,,,3,,,,74,64
35995,note_off,235,0,3,,,,,,,,2,,,,74,64
36000,note_on,5,0,2,,,,,,,,1,,,,73,60
36000,note_on,5,0,13,,,,,,,,14,,,,57,60
36000,note_on,5,0,3,,,,,,,,2,,,,76,60
36000,note_on,5,0,12,,,,,,,,13,,,,64,60
36000,note_on,5,0,6,,,,,,,,3,,,,73,60
36000,note_on,5,0,14,,,,,,,,15,,,,45,60
36000,note_on,5,0,11,,,,,,,,12,,,,73,60
36000,note_on,5,0,5,,,,,,,,3,,,,76,60
36000,note_on,5,0,4,,,,,,,,2,,,,73,60
36000,note_on,5,0,10,,,,,,,,11,,,,76,60
36000,note_on,5,0,1,,,,,,,,0,,,,76,60
36000,note_on,5,0,7,,,,,,,,4,,,,57,60
36030,note_off,30,0,4,,,,,,,,2,,,,73,64
36030,note_on,0,0,10,,,,,,,,11,,,,78,60
36030,note_off,30,0,11,,,,,,,,12,,,,73,64
36030,note_on,0,0,11,,,,,,,,12,,,,74,60
36030,note_on,0,0,5,,,,,,,,3,,,,78,60
36030,note_off,30,0,5,,,,,,,,3,,,,76,64
36030,note_on,0,0,12,,,,,,,,13,,,,66,60
36030,note_on,0,0,6,,,,,,,,3,,,,74,60
36030,note_on,0,0,4,,,,,,,,2,,,,74,60
36030,note_off,30,0,12,,,,,,,,13,,,,64,64
36030,note_off,30,0,1,,,,,,,,0,,,,76,64
36030,note_on,0,0,1,,,,,,,,0,,,,78,60
36030,note_off,30,0,3,,,,,,,,2,,,,76,64
36030,note_on,0,0,3,,,,,,,,2,,,,78,60
36030,note_off,30,0,6,,,,,,,,3,,,,73,64
36030,note_off,30,0,10,,,,,,,,11,,,,76,64
36030,note_off,30,0,2,,,,,,,,1,,,,73,64
36030,note_on,0,0,2,,,,,,,,1,,,,74,60
36060,note_off,30,0,4,,,,,,,,2,,,,74,64
36060,note_on,0,0,5,,,,,,,,3,,,,76,60
36060,note_on,0,0,4,,,,,,,,2,,,,73,60
36060,note_on,0,0,12,,,,,,,,13,,,,64,60
36060,note_off,30,0,12,,,,,,,,13,,,,66,64
36060,note_off,30,0,5,,,,,,,,3,,,,78,64
36060,note_off,30,0,11,,,,,,,,12,,,,74,64
36060,note_on,0,0,11,,,,,,,,12,,,,73,60
36060,note_off,30,0,10,,,,,,,,11,,,,78,64
36060,note_off,30,0,3,,,,,,,,2,,,,78,64
36060,note_on,0,0,10,,,,,,,,11,,,,76,60
36060,note_on,0,0,3,,,,,,,,2,,,,76,60
36060,note_off,30,0,1,,,,,,,,0,,,,78,64
36060,note_on,0,0,6,,,,,,,,3,,,,73,60
36060,note_off,30,0,6,,,,,,,,3,,,,74,64
36060,note_on,0,0,2,,,,,,,,1,,,,73,60
36060,note_off,30,0,2,,,,,,,,1,,,,74,64
36060,note_on,0,0,1,,,,,,,,0,,,,76,60
36090,note_on,0,0,12,,,,,,,,13,,,,66,60
36090,note_off,30,0,5,,,,,,,,3,,,,76,64
36090,note_off,30,0,12,,,,,,,,13,,,,64,64
36090,note_on,0,0,5,,,,,,,,3,,,,78,60
36090,note_on,0,0,10,,,,,,,,11,,,,78,60
36090,note_on,0,0,6,,,,,,,,3,,,,74,60
36090,note_on,0,0,2,,,,,,,,1,,,,74,60
36090,note_off,30,0,2,,,,,,,,1,,,,73,64
36090,note_off,30,0,6,,,,,,,,3,,,,73,64
36090,note_on,0,0,1,,,,,,,,0,,,,78,60
36090,note_off,30,0,1,,,,,,,,0,,,,76,64
36090,note_off,30,0,10,,,,,,,,11,,,,76,64
36090,note_on,0,0,3,,,,,,,,2,,,,78,60
36090,note_off,30,0,3,,,,,,,,2,,,,76,64
36090,note_off,30,0,11,,,,,,,,12,,,,73,64
36090,note_on,0,0,11,,,,,,,,12,,,,74,60
36090,note_on,0,0,4,,,,,,,,2,,,,74,60
36090,note_off,30,0,4,,,,,,,,2,,,,73,64
36120,note_on,0,0,1,,,,,,,,0,,,,76,60
36120,note_off,30,0,2,,,,,,,,1,,,,74,64
36120,note_on,0,0,2,,,,,,,,1,,,,73,60
36120,note_on,0,0,12,,,,,,,,13,,,,64,60
36120,note_on,0,0,11,,,,,,,,12,,,,73,60
36120,note_off,30,0,6,,,,,,,,3,,,,74,64
36120,note_on,0,0,6,,,,,,,,3,,,,73,60
36120,note_off,30,0,12,,,,,,,,13,,,,66,64
36120,note_off,30,0,3,,,,,,,,2,,,,78,64
36120,note_on,0,0,3,,,,,,,,2,,,,76,60
36120,note_on,0,0,10,,,,,,,,11,,,,76,60
36120,note_off,30,0,10,,,,,,,,11,,,,78,64
36120,note_off,30,0,11,,,,,,,,12,,,,74,64
36120,note_off,30,0,4,,,,,,,,2,,,,74,64
36120,note_on,0,0,4,,,,,,,,2,,,,73,60
36120,note_off,30,0,5,,,,,,,,3,,,,78,64
36120,note_on,0,0,5,,,,,,,,3,,,,76,60
36120,note_off,30,0,1,,,,,,,,0,,,,78,64
36150,note_off,30,0,1,,,,,,,,0,,,,76,64
36150,note_on,0,0,1,,,,,,,,0,,,,78,60
36150,note_off,30,0,12,,,,,,,,13,,,,64,64
36150,note_off,30,0,4,,,,,,,,2,,,,73,64
36150,note_on,0,0,4,,,,,,,,2,,,,74,60
36150,note_on,0,0,12,,,,,,,,13,,,,66,60
36150,note_on,0,0,3,,,,,,,,2,,,,78,60
36150,note_off,30,0,3,,,,,,,,2,,,,76,64
36150,note_off,30,0,5,,,,,,,,3,,,,76,64
36150,note_on,0,0,6,,,,,,,,3,,,,74,60
36150,note_off,30,0,6,,,,,,,,3,,,,73,64
36150,note_on,0,0,11,,,,,,,,12,,,,74,60
36150,note_off,30,0,11,,,,,,,,12,,,,73,64
36150,note_off,30,0,2,,,,,,,,1,,,,73,64
36150,note_on,0,0,2,,,,,,,,1,,,,74,60
36150,note_off,30,0,10,,,,,,,,11,,,,76,64
36150,note_on,0,0,10,,,,,,,,11,,,,78,60
36150,note_on,0,0,5,,,,,,,,3,,,,78,60
36180,note_off,30,0,10,,,,,,,,11,,,,78,64
36180,note_off,30,0,5,,,,,,,,3,,,,78,64
36180,note_on,0,0,5,,,,,,,,3,,,,76,60
36180,note_off,30,0,6,,,,,,,,3,,,,74,64
36180,note_on,0,0,4,,,,,,,,2,,,,73,60
36180,note_off,30,0,4,,,,,,,,2,,,,74,64
36180,note_off,30,0,2,,,,,,,,1,,,,74,64
36180,note_on,0,0,6,,,,,,,,3,,,,73,60
36180,note_on,0,0,2,,,,,,,,1,,,,73,60
36180,note_off,30,0,1,,,,,,,,0,,,,78,64
36180,note_on,0,0,1,,,,,,,,0,,,,76,60
36180,note_off,30,0,11,,,,,,,,12,,,,74,64
36180,note_on,0,0,11,,,,,,,,12,,,,73,60
36180,note_off,30,0,12,,,,,,,,13,,,,66,64
36180,note_on,0,0,12,,,,,,,,13,,,,64,60
36180,note_on,0,0,3,,,,,,,,2,,,,76,60
36180,note_off,30,0,3,,,,,,,,2,,,,78,64
36180,note_on,0,0,10,,,,,,,,11,,,,76,60
36210,note_off,30,0,4,,,,,,,,2,,,,73,64
36210,note_on,0,0,4,,,,,,,,2,,,,74,60
36210,note_off,30,0,2,,,,,,,,1,,,,73,64
36210,note_on,0,0,12,,,,,,,,13,,,,66,60
36210,note_on,0,0,2,,,,,,,,1,,,,74,60
36210,note_off,30,0,12,,,,,,,,13,,,,64,64
36210,note_on,0,0,1,,,,,,,,0,,,,78,60
36210,note_on,0,0,5,,,,,,,,3,,,,78,60
36210,note_on,0,0,6,,,,,,,,3,,,,74,60
36210,note_off,30,0,10,,,,,,,,11,,,,76,64
36210,note_on,0,0,10,,,,,,,,11,,,,78,60
36210,note_off,30,0,11,,,,,,,,12,,,,73,64
36210,note_on,0,0,11,,,,,,,,12,,,,74,60
36210,note_off,30,0,5,,,,,,,,3,,,,76,64
36210,note_on,0,0,3,,,,,,,,2,,,,78,60
36210,note_off,30,0,3,,,,,,,,2,,,,76,64
36210,note_off,30,0,6,,,,,,,,3,,,,73,64
36210,note_off,30,0,1,,,,,,,,0,,,,76,64
36240,note_on,0,0,1,,,,,,,,0,,,,76,60
36240,note_off,30,0,1,,,,,,,,0,,,,78,64
36240,note_on,0,0,4,,,,,,,,2,,,,73,60
36240,note_off,30,0,4,,,,,,,,2,,,,74,64
36240,note_off,30,0,12,,,,,,,,13,,,,66,64
36240,note_on,0,0,6,,,,,,,,3,,,,73,60
36240,note_off,30,0,6,,,,,,,,3,,,,74,64
36240,note_on,0,0,3,,,,,,,,2,,,,76,60
36240,note_off,30,0,3,,,,,,,,2,,,,78,64
36240,note_on,0,0,12,,,,,,,,13,,,,64,60
36240,note_on,0,0,11,,,,,,,,12,,,,73,60
36240,note_off,30,0,10,,,,,,,,11,,,,78,64
36240,note_off,30,0,5,,,,,,,,3,,,,78,64
36240,note_on,0,0,5,,,,,,,,3,,,,76,60
36240,note_on,0,0,10,,,,,,,,11,,,,76,60
36240,note_on,0,0,2,,,,,,,,1,,,,73,60
36240,note_off,30,0,2,,,,,,,,1,,,,74,64
36240,note_off,30,0,11,,,,,,,,12,,,,74,64
36270,note_off,30,0,6,,,,,,,,3,,,,73,64
36270,note_on,0,0,1,,,,,,,,0,,,,78,60
36270,note_off,30,0,1,,,,,,,,0,,,,76,64
36270,note_on,0,0,3,,,,,,,,2,,,,78,60
36270,note_on,0,0,4,,,,,,,,2,,,,74,60
36270,note_on,0,0,10,,,,,,,,11,,,,78,60
36270,note_on,0,0,5,,,,,,,,3,,,,78,60
36270,note_off,30,0,5,,,,,,,,3,,,,76,64
36270,note_off,30,0,10,,,,,,,,11,,,,76,64
36270,note_on,0,0,2,,,,,,,,1,,,,74,60
36270,note_off,30,0,2,,,,,,,,1,,,,73,64
36270,note_off,30,0,3,,,,,,,,2,,,,76,64
36270,note_off,30,0,4,,,,,,,,2,,,,73,64
36270,note_on,0,0,6,,,,,,,,3,,,,74,60
36270,note_off,30,0,11,,,,,,,,12,,,,73,64
36270,note_off,30,0,12,,,,,,,,13,,,,64,64
36270,note_on,0,0,12,,,,,,,,13,,,,66,60
36270,note_on,0,0,11,,,,,,,,12,,,,74,60
36300,note_off,30,0,4,,,,,,,,2,,,,74,64
36300,note_on,0,0,4,,,,,,,,2,,,,73,60
36300,note_on,0,0,6,,,,,,,,3,,,,73,60
36300,note_off,30,0,3,,,,,,,,2,,,,78,64
36300,note_off,30,0,11,,,,,,,,12,,,,74,64
36300,note_on,0,0,5,,,,,,,,3,,,,76,60
36300,note_off,30,0,5,,,,,,,,3,,,,78,64
36300,note_off,30,0,6,,,,,,,,3,,,,74,64
36300,note_on,0,0,11,,,,,,,,12,,,,73,60
36300,note_on,0,0,12,,,,,,,,13,,,,64,60
36300,note_on,0,0,3,,,,,,,,2,,,,76,60
36300,note_off,30,0,12,,,,,,,,13,,,,66,64
36300,note_on,0,0,1,,,,,,,,0,,,,76,60
36300,note_on,0,0,10,,,,,,,,11,,,,76,60
36300,note_off,30,0,10,,,,,,,,11,,,,78,64
36300,note_on,0,0,2,,,,,,,,1,,,,73,60
36300,note_off,30,0,2,,,,,,,,1,,,,74,64
36300,note_off,30,0,1,,,,,,,,0,,,,78,64
36330,note_off,30,0,1,,,,,,,,0,,,,76,64
36330,note_on,0,0,1,,,,,,,,0,,,,78,60
36330,note_off,30,0,3,,,,,,,,2,,,,76,64
36330,note_off,30,0,5,,,,,,,,3,,,,76,64
36330,note_on,0,0,3,,,,,,,,2,,,,78,60
36330,note_off,30,0,6,,,,,,,,3,,,,73,64
36330,note_on,0,0,6,,,,,,,,3,,,,74,60
36330,note_on,0,0,10,,,,,,,,11,,,,78,60
36330,note_on,0,0,5,,,,,,,,3,,,,78,60
36330,note_on,0,0,12,,,,,,,,13,,,,66,60
36330,note_off,30,0,12,,,,,,,,13,,,,64,64
36330,note_off,30,0,4,,,,,,,,2,,,,73,64
36330,note_off,30,0,11,,,,,,,,12,,,,73,64
36330,note_off,30,0,10,,,,,,,,11,,,,76,64
36330,note_on,0,0,2,,,,,,,,1,,,,74,60
36330,note_off,30,0,2,,,,,,,,1,,,,73,64
36330,note_on,0,0,11,,,,,,,,12,,,,74,60
36330,note_on,0,0,4,,,,,,,,2,,,,74,60
36360,note_off,30,0,10,,,,,,,,11,,,,78,64
36360,note_on,0,0,10,,,,,,,,11,,,,74,60
36360,note_off,30,0,3,,,,,,,,2,,,,78,64
36360,note_off,30,0,6,,,,,,,,3,,,,74,64
36360,note_on,0,0,3,,,,,,,,2,,,,74,60
36360,note_on,0,0,6,,,,,,,,3,,,,71,60
36360,note_off,30,0,4,,,,,,,,2,,,,74,64
36360,note_on,0,0,12,,,,,,,,13,,,,62,60
36360,note_on,0,0,4,,,,,,,,2,,,,71,60
36360,note_off,30,0,2,,,,,,,,1,,,,74,64
36360,note_on,0,0,2,,,,,,,,1,,,,71,60
36360,note_off,30,0,5,,,,,,,,3,,,,78,64
36360,note_on,0,0,5,,,,,,,,3,,,,74,60
36360,note_off,30,0,11,,,,,,,,12,,,,74,64
36360,note_on,0,0,11,,,,,,,,12,,,,71,60
36360,note_off,30,0,12,,,,,,,,13,,,,66,64
36360,note_on,0,0,1,,,,,,,,0,,,,74,60
36360,note_off,30,0,1,,,,,,,,0,,,,78,64
36420,note_on,0,0,11,,,,,,,,12,,,,73,60
36420,note_on,0,0,4,,,,,,,,2,,,,73,60
36420,note_off,60,0,11,,,,,,,,12,,,,71,64
36420,note_off,60,0,2,,,,,,,,1,,,,71,64
36420,note_on,0,0,1,,,,,,,,0,,,,76,60
36420,note_off,60,0,1,,,,,,,,0,,,,74,64
36420,note_off,60,0,5,,,,,,,,3,,,,74,64
36420,note_on,0,0,5,,,,,,,,3,,,,76,60
36420,note_on,0,0,6,,,,,,,,3,,,,73,60
36420,note_off,60,0,10,,,,,,,,11,,,,74,64
36420,note_on,0,0,10,,,,,,,,11,,,,76,60
36420,note_off,60,0,6,,,,,,,,3,,,,71,64
36420,note_off,60,0,4,,,,,,,,2,,,,71,64
36420,note_off,60,0,12,,,,,,,,13,,,,62,64
36420,note_on,0,0,12,,,,,,,,13,,,,64,60
36420,note_off,60,0,3,,,,,,,,2,,,,74,64
36420,note_on,0,0,3,,,,,,,,2,,,,76,60
36420,note_on,0,0,2,,,,,,,,1,,,,73,60
36480,note_off,60,0,11,,,,,,,,12,,,,73,64
36480,note_on,0,0,6,,,,,,,,3,,,,74,60
36480,note_off,60,0,6,,,,,,,,3,,,,73,64
36480,note_on,0,0,11,,,,,,,,12,,,,74,60
36480,note_on,0,0,14,,,,,,,,15,,,,50,60
36480,note_on,0,0,13,,,,,,,,14,,,,62,60
36480,note_on,0,0,4,,,,,,,,2,,,,74,60
36480,note_off,60,0,4,,,,,,,,2,,,,73,64
36480,note_on,0,0,12,,,,,,,,13,,,,66,60
36480,note_off,60,0,12,,,,,,,,13,,,,64,64
36480,note_off,60,0,5,,,,,,,,3,,,,76,64
36480,note_on,0,0,5,,,,,,,,3,,,,78,60
36480,note_off,60,0,1,,,,,,,,0,,,,76,64
36480,note_on,0,0,1,,,,,,,,0,,,,78,60
36480,note_off,480,0,7,,,,,,,,4,,,,57,64
36480,note_off,480,0,14,,,,,,,,15,,,,45,64
36480,note_on,0,0,7,,,,,,,,4,,,,62,60
36480,note_off,480,0,13,,,,,,,,14,,,,57,64
36480,note_off,60,0,10,,,,,,,,11,,,,76,64
36480,note_on,0,0,2,,,,,,,,1,,,,74,60
36480,note_off,60,0,2,,,,,,,,1,,,,73,64
36480,note_on,0,0,10,,,,,,,,11,,,,78,60
36480,note_on,0,0,3,,,,,,,,2,,,,78,60
36480,note_off,60,0,3,,,,,,,,2,,,,76,64
36715,note_off,235,0,5,,,,,,,,3,,,,78,64
36715,note_off,235,0,14,,,,,,,,15,,,,50,64
36715,note_off,235,0,12,,,,,,,,13,,,,66,64
36715,note_off,235,0,10,,,,,,,,11,,,,78,64
36715,note_off,235,0,4,,,,,,,,2,,,,74,64
36715,note_off,235,0,7,,,,,,,,4,,,,62,64
36715,note_off,235,0,2,,,,,,,,1,,,,74,64
36715,note_off,235,0,6,,,,,,,,3,,,,74,64
36715,note_off,235,0,1,,,,,,,,0,,,,78,64
36715,note_off,235,0,13,,,,,,,,14,,,,62,64
36715,note_off,235,0,3,,,,,,,,2,,,,78,64
36715,note_off,235,0,11,,,,,,,,12,,,,74,64
36720,note_on,5,0,11,,,,,,,,12,,,,73,60
36720,note_on,5,0,7,,,,,,,,4,,,,57,60
36720,note_on,5,0,3,,,,,,,,2,,,,76,60
36720,note_on,5,0,14,,,,,,,,15,,,,45,60
36720,note_on,5,0,2,,,,,,,,1,,,,73,60
36720,note_on,5,0,4,,,,,,,,2,,,,73,60
36720,note_on,5,0,10,,,,,,,,11,,,,76,60
36720,note_on,5,0,12,,,,,,,,13,,,,64,60
36720,note_on,5,0,5,,,,,,,,3,,,,76,60
36720,note_on,5,0,13,,,,,,,,14,,,,57,60
36720,note_on,5,0,6,,,,,,,,3,,,,73,60
36720,note_on,5,0,1,,,,,,,,0,,,,76,60
36750,note_off,30,0,2,,,,,,,,1,,,,73,64
36750,note_on,0,0,10,,,,,,,,11,,,,78,61
36750,note_off,30,0,10,,,,,,,,11,,,,76,64
36750,note_on,0,0,5,,,,,,,,3,,,,78,61
36750,note_on,0,0,3,,,,,,,,2,,,,78,61
36750,note_on,0,0,4,,,,,,,,2,,,,74,61
36750,note_off,30,0,4,,,,,,,,2,,,,73,64
36750,note_on,0,0,11,,,,,,,,12,,,,74,61
36750,note_off,30,0,3,,,,,,,,2,,,,76,64
36750,note_off,30,0,11,,,,,,,,12,,,,73,64
36750,note_off,30,0,1,,,,,,,,0,,,,76,64
36750,note_on,0,0,2,,,,,,,,1,,,,74,61
36750,note_on,0,0,12,,,,,,,,13,,,,66,61
36750,note_off,30,0,6,,,,,,,,3,,,,73,64
36750,note_off,30,0,12,,,,,,,,13,,,,64,64
36750,note_off,30,0,5,,,,,,,,3,,,,76,64
36750,note_on,0,0,1,,,,,,,,0,,,,78,61
36750,note_on,0,0,6,,,,,,,,3,,,,74,61
36780,note_off,30,0,12,,,,,,,,13,,,,66,64
36780,note_on,0,0,2,,,,,,,,1,,,,73,62
36780,note_off,30,0,3,,,,,,,,2,,,,78,64
36780,note_on,0,0,4,,,,,,,,2,,,,73,62
36780,note_off,30,0,4,,,,,,,,2,,,,74,64
36780,note_off,30,0,2,,,,,,,,1,,,,74,64
36780,note_off,30,0,1,,,,,,,,0,,,,78,64
36780,note_on,0,0,3,,,,,,,,2,,,,76,62
36780,note_on,0,0,1,,,,,,,,0,,,,76,62
36780,note_on,0,0,12,,,,,,,,13,,,,64,62
36780,note_off,30,0,11,,,,,,,,12,,,,74,64
36780,note_on,0,0,5,,,,,,,,3,,,,76,62
36780,note_off,30,0,5,,,,,,,,3,,,,78,64
36780,note_off,30,0,10,,,,,,,,11,,,,78,64
36780,note_on,0,0,10,,,,,,,,11,,,,76,62
36780,note_on,0,0,6,,,,,,,,3,,,,73,62
36780,note_off,30,0,6,,,,,,,,3,,,,74,64
36780,note_on,0,0,11,,,,,,,,12,,,,73,62
36810,note_off,30,0,5,,,,,,,,3,,,,76,64
36810,note_off,30,0,6,,,,,,,,3,,,,73,64
36810,note_on,0,0,4,,,,,,,,2,,,,74,63
36810,note_on,0,0,11,,,,,,,,12,,,,74,63
36810,note_on,0,0,5,,,,,,,,3,,,,78,63
36810,note_on,0,0,2,,,,,,,,1,,,,74,63
36810,note_off,30,0,12,,,,,,,,13,,,,64,64
36810,note_off,30,0,11,,,,,,,,12,,,,73,64
36810,note_off,30,0,4,,,,,,,,2,,,,73,64
36810,note_off,30,0,3,,,,,,,,2,,,,76,64
36810,note_off,30,0,1,,,,,,,,0,,,,76,64
36810,note_on,0,0,1,,,,,,,,0,,,,78,63
36810,note_on,0,0,12,,,,,,,,13,,,,66,63
36810,note_on,0,0,10,,,,,,,,11,,,,78,63
36810,note_off,30,0,10,,,,,,,,11,,,,76,64
36810,note_on,0,0,6,,,,,,,,3,,,,74,63
36810,note_on,0,0,3,,,,,,,,2,,,,78,63
36810,note_off,30,0,2,,,,,,,,1,,,,73,64
36840,note_on,0,0,10,,,,,,,,11,,,,76,64
36840,note_on,0,0,12,,,,,,,,13,,,,64,64
36840,note_off,30,0,10,,,,,,,,11,,,,78,64
36840,note_off,30,0,12,,,,,,,,13,,,,66,64
36840,note_on,0,0,2,,,,,,,,1,,,,73,64
36840,note_off,30,0,2,,,,,,,,1,,,,74,64
36840,note_off,30,0,6,,,,,,,,3,,,,74,64
36840,note_on,0,0,6,,,,,,,,3,,,,73,64
36840,note_off,30,0,11,,,,,,,,12,,,,74,64
36840,note_on,0,0,5,,,,,,,,3,,,,76,64
36840,note_on,0,0,11,,,,,,,,12,,,,73,64
36840,note_on,0,0,1,,,,,,,,0,,,,76,64
36840,note_off,30,0,1,,,,,,,,0,,,,78,64
36840,note_on,0,0,4,,,,,,,,2,,,,73,64
36840,note_off,30,0,3,,,,,,,,2,,,,78,64
36840,note_on,0,0,3,,,,,,,,2,,,,76,64
36840,note_off,30,0,5,,,,,,,,3,,,,78,64
36840,note_off,30,0,4,,,,,,,,2,,,,74,64
36870,note_on,0,0,4,,,,,,,,2,,,,74,65
36870,note_off,30,0,5,,,,,,,,3,,,,76,64
36870,note_on,0,0,5,,,,,,,,3,,,,78,65
36870,note_on,0,0,2,,,,,,,,1,,,,74,65
36870,note_off,30,0,2,,,,,,,,1,,,,73,64
36870,note_on,0,0,11,,,,,,,,12,,,,74,65
36870,note_off,30,0,11,,,,,,,,12,,,,73,64
36870,note_off,30,0,6,,,,,,,,3,,,,73,64
36870,note_on,0,0,6,,,,,,,,3,,,,74,65
36870,note_off,30,0,4,,,,,,,,2,,,,73,64
36870,note_on,0,0,12,,,,,,,,13,,,,66,65
36870,note_off,30,0,3,,,,,,,,2,,,,76,64
36870,note_off,30,0,10,,,,,,,,11,,,,76,64
36870,note_off,30,0,12,,,,,,,,13,,,,64,64
36870,note_off,30,0,1,,,,,,,,0,,,,76,64
36870,note_on,0,0,3,,,,,,,,2,,,,78,65
36870,note_on,0,0,10,,,,,,,,11,,,,78,65
36870,note_on,0,0,1,,,,,,,,0,,,,78,65
36900,note_off,30,0,10,,,,,,,,11,,,,78,64
36900,note_off,30,0,11,,,,,,,,12,,,,74,64
36900,note_on,0,0,10,,,,,,,,11,,,,76,66
36900,note_off,30,0,2,,,,,,,,1,,,,74,64
36900,note_off,30,0,1,,,,,,,,0,,,,78,64
36900,note_off,30,0,6,,,,,,,,3,,,,74,64
36900,note_on,0,0,6,,,,,,,,3,,,,73,66
36900,note_on,0,0,2,,,,,,,,1,,,,73,66
36900,note_on,0,0,11,,,,,,,,12,,,,73,66
36900,note_on,0,0,1,,,,,,,,0,,,,76,66
36900,note_off,30,0,3,,,,,,,,2,,,,78,64
36900,note_on,0,0,3,,,,,,,,2,,,,76,66
36900,note_on,0,0,5,,,,,,,,3,,,,76,66
36900,note_off,30,0,5,,,,,,,,3,,,,78,64
36900,note_off,30,0,4,,,,,,,,2,,,,74,64
36900,note_on,0,0,12,,,,,,,,13,,,,64,66
36900,note_off,30,0,12,,,,,,,,13,,,,66,64
36900,note_on,0,0,4,,,,,,,,2,,,,73,66
36930,note_off,30,0,1,,,,,,,,0,,,,76,64
36930,note_on,0,0,1,,,,,,,,0,,,,78,67
36930,note_off,30,0,10,,,,,,,,11,,,,76,64
36930,note_on,0,0,5,,,,,,,,3,,,,78,67
36930,note_on,0,0,3,,,,,,,,2,,,,78,67
36930,note_off,30,0,6,,,,,,,,3,,,,73,64
36930,note_on,0,0,6,,,,,,,,3,,,,74,67
36930,note_off,30,0,3,,,,,,,,2,,,,76,64
36930,note_off,30,0,2,,,,,,,,1,,,,73,64
36930,note_on,0,0,2,,,,,,,,1,,,,74,67
36930,note_on,0,0,10,,,,,,,,11,,,,78,67
36930,note_off,30,0,11,,,,,,,,12,,,,73,64
36930,note_off,30,0,4,,,,,,,,2,,,,73,64
36930,note_on,0,0,11,,,,,,,,12,,,,74,67
36930,note_on,0,0,12,,,,,,,,13,,,,66,67
36930,note_off,30,0,12,,,,,,,,13,,,,64,64
36930,note_off,30,0,5,,,,,,,,3,,,,76,64
36930,note_on,0,0,4,,,,,,,,2,,,,74,67
36960,note_off,30,0,2,,,,,,,,1,,,,74,64
36960,note_on,0,0,2,,,,,,,,1,,,,73,68
36960,note_on,0,0,1,,,,,,,,0,,,,76,68
36960,note_on,0,0,6,,,,,,,,3,,,,73,68
36960,note_off,30,0,6,,,,,,,,3,,,,74,64
36960,note_on,0,0,4,,,,,,,,2,,,,73,68
36960,note_off,30,0,3,,,,,,,,2,,,,78,64
36960,note_off,30,0,11,,,,,,,,12,,,,74,64
36960,note_on,0,0,11,,,,,,,,12,,,,73,68
36960,note_on,0,0,12,,,,,,,,13,,,,64,68
36960,note_on,0,0,3,,,,,,,,2,,,,76,68
36960,note_off,30,0,1,,,,,,,,0,,,,78,64
36960,note_on,0,0,10,,,,,,,,11,,,,76,68
36960,note_off,30,0,10,,,,,,,,11,,,,78,64
36960,note_off,30,0,12,,,,,,,,13,,,,66,64
36960,note_on,0,0,5,,,,,,,,3,,,,76,68
36960,note_off,30,0,5,,,,,,,,3,,,,78,64
36960,note_off,30,0,4,,,,,,,,2,,,,74,64
36990,note_on,0,0,4,,,,,,,,2,,,,74,69
36990,note_off,30,0,12,,,,,,,,13,,,,64,64
36990,note_off,30,0,3,,,,,,,,2,,,,76,64
36990,note_on,0,0,3,,,,,,,,2,,,,78,69
36990,note_off,30,0,4,,,,,,,,2,,,,73,64
36990,note_on,0,0,12,,,,,,,,13,,,,66,69
36990,note_on,0,0,1,,,,,,,,0,,,,78,69
36990,note_off,30,0,5,,,,,,,,3,,,,76,64
36990,note_on,0,0,10,,,,,,,,11,,,,78,69
36990,note_off,30,0,2,,,,,,,,1,,,,73,64
36990,note_off,30,0,6,,,,,,,,3,,,,73,64
36990,note_on,0,0,5,,,,,,,,3,,,,78,69
36990,note_off,30,0,1,,,,,,,,0,,,,76,64
36990,note_on,0,0,11,,,,,,,,12,,,,74,69
36990,note_off,30,0,11,,,,,,,,12,,,,73,64
36990,note_on,0,0,2,,,,,,,,1,,,,74,69
36990,note_on,0,0,6,,,,,,,,3,,,,74,69
36990,note_off,30,0,10,,,,,,,,11,,,,76,64
37020,note_off,30,0,3,,,,,,,,2,,,,78,64
37020,note_off,30,0,12,,,,,,,,13,,,,66,64
37020,note_on,0,0,1,,,,,,,,0,,,,76,70
37020,note_off,30,0,11,,,,,,,,12,,,,74,64
37020,note_on,0,0,12,,,,,,,,13,,,,64,70
37020,note_on,0,0,11,,,,,,,,12,,,,73,70
37020,note_on,0,0,3,,,,,,,,2,,,,76,70
37020,note_off,30,0,6,,,,,,,,3,,,,74,64
37020,note_on,0,0,6,,,,,,,,3,,,,73,70
37020,note_off,30,0,4,,,,,,,,2,,,,74,64
37020,note_on,0,0,4,,,,,,,,2,,,,73,70
37020,note_off,30,0,5,,,,,,,,3,,,,78,64
37020,note_on,0,0,5,,,,,,,,3,,,,76,70
37020,note_on,0,0,10,,,,,,,,11,,,,76,70
37020,note_off,30,0,10,,,,,,,,11,,,,78,64
37020,note_off,30,0,1,,,,,,,,0,,,,78,64
37020,note_off,30,0,2,,,,,,,,1,,,,74,64
37020,note_on,0,0,2,,,,,,,,1,,,,73,70
37050,note_on,0,0,6,,,,,,,,3,,,,74,71
37050,note_off,30,0,6,,,,,,,,3,,,,73,64
37050,note_off,30,0,3,,,,,,,,2,,,,76,64
37050,note_on,0,0,12,,,,,,,,13,,,,66,71
37050,note_on,0,0,1,,,,,,,,0,,,,78,71
37050,note_on,0,0,11,,,,,,,,12,,,,74,71
37050,note_off,30,0,2,,,,,,,,1,,,,73,64
37050,note_on,0,0,5,,,,,,,,3,,,,78,71
37050,note_off,30,0,5,,,,,,,,3,,,,76,64
37050,note_on,0,0,10,,,,,,,,11,,,,78,71
37050,note_off,30,0,1,,,,,,,,0,,,,76,64
37050,note_on,0,0,2,,,,,,,,1,,,,74,71
37050,note_off,30,0,11,,,,,,,,12,,,,73,64
37050,note_off,30,0,10,,,,,,,,11,,,,76,64
37050,note_on,0,0,4,,,,,,,,2,,,,74,71
37050,note_off,30,0,4,,,,,,,,2,,,,73,64
37050,note_off,30,0,12,,,,,,,,13,,,,64,64
37050,note_on,0,0,3,,,,,,,,2,,,,78,71
37080,note_off,30,0,2,,,,,,,,1,,,,74,64
37080,note_on,0,0,12,,,,,,,,13,,,,62,72
37080,note_on,0,0,4,,,,,,,,2,,,,71,72
37080,note_off,30,0,4,,,,,,,,2,,,,74,64
37080,note_on,0,0,2,,,,,,,,1,,,,71,72
37080,note_on,0,0,5,,,,,,,,3,,,,74,72
37080,note_off,30,0,5,,,,,,,,3,,,,78,64
37080,note_on,0,0,10,,,,,,,,11,,,,74,72
37080,note_on,0,0,3,,,,,,,,2,,,,74,72
37080,note_off,30,0,3,,,,,,,,2,,,,78,64
37080,note_off,30,0,6,,,,,,,,3,,,,74,64
37080,note_on,0,0,6,,,,,,,,3,,,,71,72
37080,note_off,30,0,1,,,,,,,,0,,,,78,64
37080,note_off,30,0,12,,,,,,,,13,,,,66,64
37080,note_on,0,0,11,,,,,,,,12,,,,71,72
37080,note_off,30,0,11,,,,,,,,12,,,,74,64
37080,note_on,0,0,1,,,,,,,,0,,,,74,72
37080,note_off,30,0,10,,,,,,,,11,,,,78,64
37140,note_off,60,0,1,,,,,,,,0,,,,74,64
37140,note_off,60,0,12,,,,,,,,13,,,,62,64
37140,note_on,0,0,12,,,,,,,,13,,,,64,75
37140,note_on,0,0,1,,,,,,,,0,,,,76,75
37140,note_on,0,0,6,,,,,,,,3,,,,73,75
37140,note_off,60,0,4,,,,,,,,2,,,,71,64
37140,note_on,0,0,4,,,,,,,,2,,,,73,75
37140,note_on,0,0,2,,,,,,,,1,,,,73,75
37140,note_off,60,0,2,,,,,,,,1,,,,71,64
37140,note_on,0,0,5,,,,,,,,3,,,,76,75
37140,note_off,60,0,5,,,,,,,,3,,,,74,64
37140,note_off,60,0,6,,,,,,,,3,,,,71,64
37140,note_on,0,0,10,,,,,,,,11,,,,76,75
37140,note_off,60,0,10,,,,,,,,11,,,,74,64
37140,note_on,0,0,3,,,,,,,,2,,,,76,75
37140,note_off,60,0,3,,,,,,,,2,,,,74,64
37140,note_on,0,0,11,,,,,,,,12,,,,73,75
37140,note_off,60,0,11,,,,,,,,12,,,,71,64
37200,note_on,0,0,10,,,,,,,,11,,,,78,78
37200,note_on,0,0,14,,,,,,,,15,,,,38,81
37200,note_on,0,0,12,,,,,,,,13,,,,66,78
37200,note_off,480,0,13,,,,,,,,14,,,,57,64
37200,note_on,0,0,13,,,,,,,,14,,,,50,81
37200,note_off,480,0,7,,,,,,,,4,,,,57,64
37200,note_off,60,0,12,,,,,,,,13,,,,64,64
37200,note_off,60,0,10,,,,,,,,11,,,,76,64
37200,note_on,0,0,7,,,,,,,,4,,,,50,81
37200,note_off,480,0,14,,,,,,,,15,,,,45,64
37200,note_on,0,0,1,,,,,,,,0,,,,78,78
37200,note_on,0,0,11,,,,,,,,12,,,,74,78
37200,note_off,60,0,11,,,,,,,,12,,,,73,64
37200,note_off,60,0,3,,,,,,,,2,,,,76,64
37200,note_on,0,0,6,,,,,,,,3,,,,74,78
37200,note_off,60,0,6,,,,,,,,3,,,,73,64
37200,note_on,0,0,3,,,,,,,,2,,,,78,78
37200,note_off,60,0,5,,,,,,,,3,,,,76,64
37200,note_off,60,0,1,,,,,,,,0,,,,76,64
37200,note_off,60,0,2,,,,,,,,1,,,,73,64
37200,note_on,0,0,2,,,,,,,,1,,,,74,78
37200,note_on,0,0,5,,,,,,,,3,,,,78,78
37200,note_on,0,0,4,,,,,,,,2,,,,74,78
37200,note_off,60,0,4,,,,,,,,2,,,,73,64
37435,note_off,235,0,13,,,,,,,,14,,,,50,64
37435,note_off,235,0,11,,,,,,,,12,,,,74,64
37435,note_off,235,0,5,,,,,,,,3,,,,78,64
37435,note_off,235,0,4,,,,,,,,2,,,,74,64
37435,note_off,235,0,14,,,,,,,,15,,,,38,64
37435,note_off,235,0,3,,,,,,,,2,,,,78,64
37435,note_off,235,0,2,,,,,,,,1,,,,74,64
37435,note_off,235,0,12,,,,,,,,13,,,,66,64
37435,note_off,235,0,6,,,,,,,,3,,,,74,64
37435,note_off,235,0,10,,,,,,,,11,,,,78,64
37435,note_off,235,0,1,,,,,,,,0,,,,78,64
37435,note_off,235,0,7,,,,,,,,4,,,,50,64
37440,note_on,5,0,4,,,,,,,,2,,,,76,92
37440,note_on,5,0,2,,,,,,,,1,,,,76,92
37440,note_on,5,0,10,,,,,,,,11,,,,81,92
37440,note_on,5,0,3,,,,,,,,2,,,,81,92
37440,note_on,5,0,5,,,,,,,,3,,,,81,92
37440,note_on,5,0,7,,,,,,,,4,,,,61,92
37440,note_on,1445,0,9,,,,,,,,5,,,,64,92
37440,note_on,5,0,14,,,,,,,,15,,,,49,92
37440,note_on,5,0,1,,,,,,,,0,,,,81,92
37440,note_on,5,0,12,,,,,,,,13,,,,69,92
37440,note_on,5,0,11,,,,,,,,12,,,,76,92
37440,note_on,1445,0,8,,,,,,,,5,,,,69,92
37440,note_on,5,0,6,,,,,,,,3,,,,76,92
37440,note_on,5,0,13,,,,,,,,14,,,,61,92
37800,note_on,0,0,8,,,,,,,,5,,,,67,92
37800,note_on,0,0,12,,,,,,,,13,,,,67,92
37800,note_off,360,0,12,,,,,,,,13,,,,69,64
37800,note_on,0,0,3,,,,,,,,2,,,,79,92
37800,note_off,360,0,3,,,,,,,,2,,,,81,64
37800,note_off,360,0,8,,,,,,,,5,,,,69,64
37800,note_off,360,0,5,,,,,,,,3,,,,81,64
37800,note_off,360,0,10,,,,,,,,11,,,,81,64
37800,note_on,0,0,1,,,,,,,,0,,,,79,92
37800,note_off,360,0,1,,,,,,,,0,,,,81,64
37800,note_on,0,0,10,,,,,,,,11,,,,79,92
37800,note_on,0,0,5,,,,,,,,3,,,,79,92
37920,note_off,480,0,13,,,,,,,,14,,,,61,64
37920,note_on,0,0,13,,,,,,,,14,,,,62,92
37920,note_off,120,0,1,,,,,,,,0,,,,79,64
37920,note_on,0,0,2,,,,,,,,1,,,,74,92
37920,note_on,0,0,1,,,,,,,,0,,,,78,92
37920,note_off,480,0,4,,,,,,,,2,,,,76,64
37920,note_off,480,0,2,,,,,,,,1,,,,76,64
37920,note_on,0,0,4,,,,,,,,2,,,,74,92
37920,note_on,0,0,7,,,,,,,,4,,,,62,92
37920,note_off,480,0,7,,,,,,,,4,,,,61,64
37920,note_on,0,0,5,,,,,,,,3,,,,78,92
37920,note_off,120,0,5,,,,,,,,3,,,,79,64
37920,note_on,0,0,12,,,,,,,,13,,,,66,92
37920,note_on,0,0,11,,,,,,,,12,,,,74,92
37920,note_on,0,0,9,,,,,,,,5,,,,62,92
37920,note_off,480,0,9,,,,,,,,5,,,,64,64
37920,note_off,480,0,11,,,,,,,,12,,,,76,64
37920,note_on,0,0,14,,,,,,,,15,,,,50,92
37920,note_off,480,0,14,,,,,,,,15,,,,49,64
37920,note_on,0,0,6,,,,,,,,3,,,,74,92
37920,note_off,120,0,12,,,,,,,,13,,,,67,64
37920,note_on,0,0,10,,,,,,,,11,,,,78,92
37920,note_off,480,0,6,,,,,,,,3,,,,76,64
37920,note_off,120,0,8,,,,,,,,5,,,,67,64
37920,note_on,0,0,8,,,,,,,,5,,,,66,92
37920,note_off,120,0,3,,,,,,,,2,,,,79,64
37920,note_on,0,0,3,,,,,,,,2,,,,78,92
37920,note_off,120,0,10,,,,,,,,11,,,,79,64
38155,note_off,235,0,14,,,,,,,,15,,,,50,64
38155,note_off,235,0,11,,,,,,,,12,,,,74,64
38155,note_off,235,0,12,,,,,,,,13,,,,66,64
38155,note_off,235,0,5,,,,,,,,3,,,,78,64
38155,note_off,235,0,9,,,,,,,,5,,,,62,64
38155,note_off,235,0,2,,,,,,,,1,,,,74,64
38155,note_off,235,0,3,,,,,,,,2,,,,78,64
38155,note_off,235,0,10,,,,,,,,11,,,,78,64
38155,note_off,235,0,8,,,,,,,,5,,,,66,64
38155,note_off,235,0,6,,,,,,,,3,,,,74,64
38155,note_off,235,0,4,,,,,,,,2,,,,74,64
38155,note_off,235,0,13,,,,,,,,14,,,,62,64
38155,note_off,235,0,1,,,,,,,,0,,,,78,64
38155,note_off,235,0,7,,,,,,,,4,,,,62,64
38160,note_on,5,0,13,,,,,,,,14,,,,57,92
38160,note_on,5,0,3,,,,,,,,2,,,,76,92
38160,note_on,5,0,4,,,,,,,,2,,,,73,92
38160,note_on,5,0,1,,,,,,,,0,,,,76,92
38160,note_on,5,0,12,,,,,,,,13,,,,64,92
38160,note_on,5,0,5,,,,,,,,3,,,,76,92
38160,note_on,5,0,8,,,,,,,,5,,,,64,92
38160,note_on,5,0,11,,,,,,,,12,,,,73,92
38160,note_on,5,0,2,,,,,,,,1,,,,73,92
38160,note_on,5,0,6,,,,,,,,3,,,,73,92
38160,set_tempo,3600,1,0,1200000,,,,,,,,,,,,
38160,note_on,5,0,10,,,,,,,,11,,,,76,92
38160,note_on,5,0,9,,,,,,,,5,,,,57,92
38160,note_on,5,0,7,,,,,,,,4,,,,57,92
38160,note_on,5,0,14,,,,,,,,15,,,,45,92
38400,note_on,0,0,1,,,,,,,,0,,,,78,92
38400,note_on,0,0,12,,,,,,,,13,,,,66,92
38400,note_on,0,0,5,,,,,,,,3,,,,78,92
38400,note_off,240,0,1,,,,,,,,0,,,,76,64
38400,note_on,0,0,3,,,,,,,,2,,,,78,92
38400,note_on,0,0,10,,,,,,,,11,,,,78,92
38400,note_off,240,0,3,,,,,,,,2,,,,76,64
38400,note_on,0,0,8,,,,,,,,5,,,,66,92
38400,note_off,240,0,8,,,,,,,,5,,,,64,64
38400,note_off,240,0,10,,,,,,,,11,,,,76,64
38400,note_off,240,0,12,,,,,,,,13,,,,64,64
38400,note_off,240,0,5,,,,,,,,3,,,,76,64
38640,note_on,0,0,6,,,,,,,,3,,,,66,92
38640,note_off,240,0,12,,,,,,,,13,,,,66,64
38640,note_on,0,0,1,,,,,,,,0,,,,74,92
38640,note_off,240,0,1,,,,,,,,0,,,,78,64
38640,note_on,0,0,3,,,,,,,,2,,,,74,92
38640,note_off,240,0,3,,,,,,,,2,,,,78,64
38640,note_off,480,0,11,,,,,,,,12,,,,73,64
38640,note_off,480,0,2,,,,,,,,1,,,,73,64
38640,note_on,0,0,2,,,,,,,,1,,,,66,92
38640,note_on,0,0,5,,,,,,,,3,,,,74,92
38640,note_off,240,0,5,,,,,,,,3,,,,78,64
38640,note_on,0,0,14,,,,,,,,15,,,,47,92
38640,note_on,0,0,11,,,,,,,,12,,,,66,92
38640,note_off,240,0,8,,,,,,,,5,,,,66,64
38640,note_on,0,0,8,,,,,,,,5,,,,62,92
38640,note_on,0,0,4,,,,,,,,2,,,,66,92
38640,note_off,480,0,4,,,,,,,,2,,,,73,64
38640,note_off,480,0,13,,,,,,,,14,,,,57,64
38640,note_on,0,0,13,,,,,,,,14,,,,59,92
38640,note_on,0,0,9,,,,,,,,5,,,,54,92
38640,note_on,0,0,7,,,,,,,,4,,,,59,92
38640,note_off,480,0,9,,,,,,,,5,,,,57,64
38640,note_off,480,0,14,,,,,,,,15,,,,45,64
38640,note_on,0,0,10,,,,,,,,11,,,,74,92
38640,note_on,0,0,12,,,,,,,,13,,,,62,92
38640,note_off,240,0,10,,,,,,,,11,,,,78,64
38640,note_off,480,0,7,,,,,,,,4,,,,57,64
38640,note_off,480,0,6,,,,,,,,3,,,,73,64
38875,note_off,235,0,5,,,,,,,,3,,,,74,64
38875,note_off,235,0,10,,,,,,,,11,,,,74,64
38875,note_off,235,0,9,,,,,,,,5,,,,54,64
38875,note_off,235,0,3,,,,,,,,2,,,,74,64
38875,note_off,235,0,4,,,,,,,,2,,,,66,64
38875,note_off,235,0,11,,,,,,,,12,,,,66,64
38875,note_off,235,0,13,,,,,,,,14,,,,59,64
38875,note_off,235,0,1,,,,,,,,0,,,,74,64
38875,note_off,235,0,7,,,,,,,,4,,,,59,64
38875,note_off,235,0,12,,,,,,,,13,,,,62,64
38875,note_off,235,0,14,,,,,,,,15,,,,47,64
38875,note_off,235,0,8,,,,,,,,5,,,,62,64
38875,note_off,235,0,6,,,,,,,,3,,,,66,64
38875,note_off,235,0,2,,,,,,,,1,,,,66,64
38880,note_on,5,0,2,,,,,,,,1,,,,71,92
38880,note_on,5,0,5,,,,,,,,3,,,,79,92
38880,note_on,5,0,4,,,,,,,,2,,,,71,92
38880,note_on,5,0,13,,,,,,,,14,,,,55,92
38880,note_on,5,0,12,,,,,,,,13,,,,67,92
38880,note_on,5,0,14,,,,,,,,15,,,,43,92
38880,note_on,5,0,7,,,,,,,,4,,,,55,92
38880,set_tempo,720,1,0,1250000,,,,,,,,,,,,
38880,note_on,5,0,10,,,,,,,,11,,,,79,92
38880,note_on,5,0,11,,,,,,,,12,,,,71,92
38880,note_on,5,0,1,,,,,,,,0,,,,79,92
38880,note_on,5,0,9,,,,,,,,5,,,,62,92
38880,note_on,5,0,6,,,,,,,,3,,,,71,92
38880,note_on,5,0,3,,,,,,,,2,,,,79,92
38880,note_on,5,0,8,,,,,,,,5,,,,67,92
39120,note_on,0,0,6,,,,,,,,3,,,,73,89
39120,note_off,240,0,14,,,,,,,,15,,,,43,64
39120,note_off,240,0,6,,,,,,,,3,,,,71,64
39120,note_off,240,0,8,,,,,,,,5,,,,67,64
39120,note_on,0,0,8,,,,,,,,5,,,,64,87
39120,note_on,0,0,12,,,,,,,,13,,,,64,89
39120,note_off,240,0,11,,,,,,,,12,,,,71,64
39120,note_off,240,0,13,,,,,,,,14,,,,55,64
39120,note_on,0,0,13,,,,,,,,14,,,,57,87
39120,note_on,0,0,4,,,,,,,,2,,,,73,89
39120,note_off,240,0,4,,,,,,,,2,,,,71,64
39120,note_on,0,0,9,,,,,,,,5,,,,57,87
39120,note_off,240,0,9,,,,,,,,5,,,,62,64
39120,note_on,0,0,10,,,,,,,,11,,,,76,89
39120,note_off,240,0,10,,,,,,,,11,,,,79,64
39120,note_off,240,0,12,,,,,,,,13,,,,67,64
39120,note_on,0,0,11,,,,,,,,12,,,,73,89
39120,note_on,0,0,14,,,,,,,,15,,,,45,87
39120,note_off,240,0,2,,,,,,,,1,,,,71,64
39120,note_off,240,0,3,,,,,,,,2,,,,79,64
39120,note_off,240,0,5,,,,,,,,3,,,,79,64
39120,note_on,0,0,5,,,,,,,,3,,,,76,89
39120,note_on,0,0,3,,,,,,,,2,,,,76,89
39120,note_off,240,0,1,,,,,,,,0,,,,79,64
39120,note_off,240,0,7,,,,,,,,4,,,,55,64
39120,note_on,0,0,1,,,,,,,,0,,,,76,89
39120,note_on,0,0,2,,,,,,,,1,,,,73,89
39120,note_on,0,0,7,,,,,,,,4,,,,57,87
39360,note_off,240,0,7,,,,,,,,4,,,,57,64
39360,note_off,240,0,14,,,,,,,,15,,,,45,64
39360,note_on,0,0,14,,,,,,,,15,,,,33,82
39360,note_off,240,0,13,,,,,,,,14,,,,57,64
39360,note_on,0,0,13,,,,,,,,14,,,,45,82
39360,note_on,0,0,7,,,,,,,,4,,,,45,82
39480,note_on,0,0,4,,,,,,,,2,,,,69,85
39480,note_off,360,0,4,,,,,,,,2,,,,73,64
39480,note_on,0,0,9,,,,,,,,5,,,,57,79
39480,note_on,0,0,12,,,,,,,,13,,,,62,85
39480,note_off,360,0,10,,,,,,,,11,,,,76,64
39480,note_off,360,0,9,,,,,,,,5,,,,57,64
39480,note_on,0,0,1,,,,,,,,0,,,,74,85
39480,note_on,0,0,8,,,,,,,,5,,,,62,79
39480,note_on,0,0,10,,,,,,,,11,,,,74,85
39480,note_off,360,0,2,,,,,,,,1,,,,73,64
39480,note_on,0,0,2,,,,,,,,1,,,,69,85
39480,note_on,0,0,6,,,,,,,,3,,,,69,85
39480,note_off,360,0,6,,,,,,,,3,,,,73,64
39480,note_off,360,0,1,,,,,,,,0,,,,76,64
39480,note_on,0,0,5,,,,,,,,3,,,,74,85
39480,note_off,360,0,3,,,,,,,,2,,,,76,64
39480,note_on,0,0,11,,,,,,,,12,,,,69,85
39480,note_off,360,0,12,,,,,,,,13,,,,64,64
39480,note_off,360,0,8,,,,,,,,5,,,,64,64
39480,note_off,360,0,11,,,,,,,,12,,,,73,64
39480,note_off,360,0,5,,,,,,,,3,,,,76,64
39480,note_on,0,0,3,,,,,,,,2,,,,74,85
39595,note_off,115,0,5,,,,,,,,3,,,,74,64
39595,note_off,115,0,2,,,,,,,,1,,,,69,64
39595,note_off,115,0,4,,,,,,,,2,,,,69,64
39595,note_off,115,0,3,,,,,,,,2,,,,74,64
39595,note_off,115,0,12,,,,,,,,13,,,,62,64
39595,note_off,115,0,11,,,,,,,,12,,,,69,64
39595,note_off,235,0,7,,,,,,,,4,,,,45,64
39595,note_off,115,0,9,,,,,,,,5,,,,57,64
39595,note_off,115,0,10,,,,,,,,11,,,,74,64
39595,note_off,115,0,8,,,,,,,,5,,,,62,64
39595,note_off,235,0,14,,,,,,,,15,,,,33,64
39595,note_off,115,0,1,,,,,,,,0,,,,74,64
39595,note_off,115,0,6,,,,,,,,3,,,,69,64
39595,note_off,235,0,13,,,,,,,,14,,,,45,64
39600,set_tempo,720,1,0,1304347,,,,,,,,,,,,
39600,note_on,5,0,9,,,,,,,,5,,,,54,77
39600,note_on,5,0,10,,,,,,,,11,,,,74,84
39600,note_on,5,0,3,,,,,,,,2,,,,74,84
39600,note_on,5,0,6,,,,,,,,3,,,,69,84
39600,note_on,5,0,11,,,,,,,,12,,,,69,84
39600,note_on,5,0,8,,,,,,,,5,,,,62,77
39600,note_on,5,0,13,,,,,,,,14,,,,50,77
39600,note_on,5,0,4,,,,,,,,2,,,,69,84
39600,note_on,5,0,1,,,,,,,,0,,,,74,84
39600,note_on,5,0,2,,,,,,,,1,,,,69,84
39600,note_on,5,0,14,,,,,,,,15,,,,38,77
39600,note_on,5,0,12,,,,,,,,13,,,,62,84
39600,note_on,5,0,7,,,,,,,,4,,,,50,77
39600,note_on,5,0,5,,,,,,,,3,,,,74,84
39840,note_on,0,0,9,,,,,,,,5,,,,66,72
39840,note_off,240,0,9,,,,,,,,5,,,,54,64
39840,note_on,0,0,8,,,,,,,,5,,,,69,72
39840,note_off,240,0,8,,,,,,,,5,,,,62,64
40080,note_on,0,0,8,,,,,,,,5,,,,66,66
40080,note_off,240,0,8,,,,,,,,5,,,,69,64
40080,note_on,0,0,7,,,,,,,,4,,,,62,66
40080,note_off,480,0,7,,,,,,,,4,,,,50,64
40080,note_off,480,0,13,,,,,,,,14,,,,50,64
40080,note_on,0,0,14,,,,,,,,15,,,,50,66
40080,note_off,480,0,14,,,,,,,,15,,,,38,64
40080,note_on,0,0,13,,,,,,,,14,,,,62,66
40080,note_off,240,0,9,,,,,,,,5,,,,66,64
40080,note_on,0,0,9,,,,,,,,5,,,,62,66
40240,note_off,640,0,2,,,,,,,,1,,,,69,64
40240,note_off,640,0,4,,,,,,,,2,,,,69,64
40240,note_off,640,0,1,,,,,,,,0,,,,74,64
40240,note_off,640,0,3,,,,,,,,2,,,,74,64
40240,note_off,640,0,6,,,,,,,,3,,,,69,64
40240,note_off,640,0,11,,,,,,,,12,,,,69,64
40240,note_off,640,0,10,,,,,,,,11,,,,74,64
40240,note_off,640,0,5,,,,,,,,3,,,,74,64
40240,note_off,640,0,12,,,,,,,,13,,,,62,64
40315,note_off,235,0,9,,,,,,,,5,,,,62,64
40315,note_off,235,0,7,,,,,,,,4,,,,62,64
40315,note_off,235,0,13,,,,,,,,14,,,,62,64
40315,note_off,235,0,8,,,,,,,,5,,,,66,64
40315,note_off,235,0,14,,,,,,,,15,,,,50,64
40320,note_on,5,0,13,,,,,,,,14,,,,61,60
40320,note_on,5,0,7,,,,,,,,4,,,,61,60
40320,set_tempo,720,1,0,1200000,,,,,,,,,,,,
40320,note_on,5,0,8,,,,,,,,5,,,,64,60
40320,note_on,5,0,14,,,,,,,,15,,,,49,60
40320,note_on,5,0,9,,,,,,,,5,,,,57,60
40680,note_on,0,0,13,,,,,,,,14,,,,59,60
40680,note_on,0,0,8,,,,,,,,5,,,,62,60
40680,note_off,360,0,7,,,,,,,,4,,,,61,64
40680,note_off,360,0,13,,,,,,,,14,,,,61,64
40680,note_on,0,0,7,,,,,,,,4,,,,59,60
40680,note_off,360,0,8,,,,,,,,5,,,,64,64
40740,note_off,60,0,8,,,,,,,,5,,,,62,64
40740,note_on,0,0,8,,,,,,,,5,,,,64,60
40740,note_on,0,0,13,,,,,,,,14,,,,61,60
40740,note_off,60,0,13,,,,,,,,14,,,,59,64
40740,note_off,60,0,7,,,,,,,,4,,,,59,64
40740,note_on,0,0,7,,,,,,,,4,,,,61,60
40800,note_on,0,0,7,,,,,,,,4,,,,62,60
40800,note_on,0,0,13,,,,,,,,14,,,,62,60
40800,note_off,60,0,7,,,,,,,,4,,,,61,64
40800,note_off,60,0,8,,,,,,,,5,,,,64,64
40800,note_on,0,0,8,,,,,,,,5,,,,66,60
40800,note_off,60,0,13,,,,,,,,14,,,,61,64
40800,note_off,480,0,9,,,,,,,,5,,,,57,64
40800,note_on,0,0,9,,,,,,,,5,,,,62,60
40800,note_off,480,0,14,,,,,,,,15,,,,49,64
40800,note_on,0,0,14,,,,,,,,15,,,,38,60
41035,note_off,235,0,13,,,,,,,,14,,,,62,64
41035,note_off,235,0,7,,,,,,,,4,,,,62,64
41035,note_off,235,0,8,,,,,,,,5,,,,66,64
41035,note_off,235,0,9,,,,,,,,5,,,,62,64
41035,note_off,235,0,14,,,,,,,,15,,,,38,64
41040,note_on,5,0,13,,,,,,,,14,,,,61,60
41040,note_on,5,0,14,,,,,,,,15,,,,49,60
41040,note_on,5,0,8,,,,,,,,5,,,,64,60
41040,note_on,5,0,7,,,,,,,,4,,,,61,60
41040,note_on,5,0,9,,,,,,,,5,,,,57,60
41280,note_on,1040,0,10,,,,,,,,11,,,,81,60
41280,note_on,1040,0,12,,,,,,,,13,,,,69,60
41280,note_on,1040,0,4,,,,,,,,2,,,,76,60
41280,note_on,1040,0,3,,,,,,,,2,,,,81,60
41280,note_on,1040,0,6,,,,,,,,3,,,,76,60
41280,note_on,1040,0,11,,,,,,,,12,,,,76,60
41280,note_on,1040,0,2,,,,,,,,1,,,,76,60
41280,note_on,1040,0,1,,,,,,,,0,,,,81,60
41280,note_on,1040,0,5,,,,,,,,3,,,,81,60
41400,note_off,360,0,13,,,,,,,,14,,,,61,64
41400,note_on,0,0,13,,,,,,,,14,,,,59,60
41400,note_on,0,0,8,,,,,,,,5,,,,62,60
41400,note_on,0,0,7,,,,,,,,4,,,,59,60
41400,note_off,360,0,7,,,,,,,,4,,,,61,64
41400,note_off,360,0,8,,,,,,,,5,,,,64,64
41460,note_on,0,0,13,,,,,,,,14,,,,61,60
41460,note_off,60,0,13,,,,,,,,14,,,,59,64
41460,note_on,0,0,7,,,,,,,,4,,,,61,60
41460,note_off,60,0,7,,,,,,,,4,,,,59,64
41460,note_on,0,0,8,,,,,,,,5,,,,64,60
41460,note_off,60,0,8,,,,,,,,5,,,,62,64
41520,note_on,0,0,12,,,,,,,,13,,,,66,60
41520,note_off,480,0,9,,,,,,,,5,,,,57,64
41520,note_on,0,0,9,,,,,,,,5,,,,62,60
41520,note_off,240,0,4,,,,,,,,2,,,,76,64
41520,note_off,60,0,8,,,,,,,,5,,,,64,64
41520,note_on,0,0,8,,,,,,,,5,,,,66,60
41520,note_off,240,0,1,,,,,,,,0,,,,81,64
41520,note_on,0,0,10,,,,,,,,11,,,,78,60
41520,note_off,240,0,12,,,,,,,,13,,,,69,64
41520,note_on,0,0,4,,,,,,,,2,,,,74,60
41520,note_off,60,0,13,,,,,,,,14,,,,61,64
41520,note_on,0,0,13,,,,,,,,14,,,,62,60
41520,note_on,0,0,14,,,,,,,,15,,,,38,60
41520,note_on,0,0,7,,,,,,,,4,,,,62,60
41520,note_off,60,0,7,,,,,,,,4,,,,61,64
41520,note_off,240,0,3,,,,,,,,2,,,,81,64
41520,note_on,0,0,3,,,,,,,,2,,,,78,60
41520,note_off,240,0,10,,,,,,,,11,,,,81,64
41520,note_on,0,0,1,,,,,,,,0,,,,78,60
41520,note_off,480,0,14,,,,,,,,15,,,,49,64
41520,note_on,0,0,6,,,,,,,,3,,,,74,60
41520,note_on,0,0,5,,,,,,,,3,,,,78,60
41520,note_off,240,0,11,,,,,,,,12,,,,76,64
41520,note_on,0,0,11,,,,,,,,12,,,,74,60
41520,note_off,240,0,6,,,,,,,,3,,,,76,64
41520,note_off,240,0,5,,,,,,,,3,,,,81,64
41520,note_off,240,0,2,,,,,,,,1,,,,76,64
41520,note_on,0,0,2,,,,,,,,1,,,,74,60
41755,note_off,235,0,4,,,,,,,,2,,,,74,64
41755,note_off,235,0,13,,,,,,,,14,,,,62,64
41755,note_off,235,0,3,,,,,,,,2,,,,78,64
41755,note_off,235,0,14,,,,,,,,15,,,,38,64
41755,note_off,235,0,7,,,,,,,,4,,,,62,64
41755,note_off,235,0,11,,,,,,,,12,,,,74,64
41755,note_off,235,0,1,,,,,,,,0,,,,78,64
41755,note_off,235,0,8,,,,,,,,5,,,,66,64
41755,note_off,235,0,2,,,,,,,,1,,,,74,64
41755,note_off,235,0,10,,,,,,,,11,,,,78,64
41755,note_off,235,0,5,,,,,,,,3,,,,78,64
41755,note_off,235,0,6,,,,,,,,3,,,,74,64
41755,note_off,235,0,12,,,,,,,,13,,,,66,64
41755,note_off,235,0,9,,,,,,,,5,,,,62,64
41760,note_on,5,0,2,,,,,,,,1,,,,73,60
41760,note_on,5,0,14,,,,,,,,15,,,,45,60
41760,note_on,5,0,12,,,,,,,,13,,,,62,60
41760,note_on,5,0,11,,,,,,,,12,,,,73,60
41760,note_on,5,0,3,,,,,,,,2,,,,76,60
41760,note_on,5,0,1,,,,,,,,0,,,,76,60
41760,note_on,5,0,6,,,,,,,,3,,,,73,60
41760,note_on,5,0,7,,,,,,,,4,,,,57,60
41760,note_on,5,0,5,,,,,,,,3,,,,76,60
41760,note_on,5,0,10,,,,,,,,11,,,,76,60
41760,note_on,5,0,13,,,,,,,,14,,,,57,60
41760,note_on,5,0,4,,,,,,,,2,,,,73,60
41790,note_on,0,0,12,,,,,,,,13,,,,64,60
41790,note_off,30,0,1,,,,,,,,0,,,,76,64
41790,note_off,30,0,11,,,,,,,,12,,,,73,64
41790,note_on,0,0,11,,,,,,,,12,,,,74,60
41790,note_on,0,0,1,,,,,,,,0,,,,78,60
41790,note_on,0,0,5,,,,,,,,3,,,,78,60
41790,note_on,0,0,2,,,,,,,,1,,,,74,60
41790,note_off,30,0,2,,,,,,,,1,,,,73,64
41790,note_off,30,0,12,,,,,,,,13,,,,62,64
41790,note_on,0,0,10,,,,,,,,11,,,,78,60
41790,note_on,0,0,6,,,,,,,,3,,,,74,60
41790,note_off,30,0,3,,,,,,,,2,,,,76,64
41790,note_off,30,0,10,,,,,,,,11,,,,76,64
41790,note_on,0,0,3,,,,,,,,2,,,,78,60
41790,note_off,30,0,5,,,,,,,,3,,,,76,64
41790,note_off,30,0,4,,,,,,,,2,,,,73,64
41790,note_on,0,0,4,,,,,,,,2,,,,74,60
41790,note_off,30,0,6,,,,,,,,3,,,,73,64
41820,note_on,0,0,10,,,,,,,,11,,,,76,60
41820,note_off,30,0,1,,,,,,,,0,,,,78,64
41820,note_on,0,0,6,,,,,,,,3,,,,73,60
41820,note_on,0,0,1,,,,,,,,0,,,,76,60
41820,note_on,0,0,12,,,,,,,,13,,,,62,60
41820,note_off,30,0,12,,,,,,,,13,,,,64,64
41820,note_off,30,0,4,,,,,,,,2,,,,74,64
41820,note_on,0,0,5,,,,,,,,3,,,,76,60
41820,note_off,30,0,11,,,,,,,,12,,,,74,64
41820,note_off,30,0,6,,,,,,,,3,,,,74,64
41820,note_on,0,0,3,,,,,,,,2,,,,76,60
41820,note_on,0,0,2,,,,,,,,1,,,,73,60
41820,note_off,30,0,2,,,,,,,,1,,,,74,64
41820,note_off,30,0,3,,,,,,,,2,,,,78,64
41820,note_on,0,0,11,,,,,,,,12,,,,73,60
41820,note_off,30,0,5,,,,,,,,3,,,,78,64
41820,note_off,30,0,10,,,,,,,,11,,,,78,64
41820,note_on,0,0,4,,,,,,,,2,,,,73,60
41850,note_on,0,0,4,,,,,,,,2,,,,74,60
41850,note_on,0,0,5,,,,,,,,3,,,,78,60
41850,note_off,30,0,5,,,,,,,,3,,,,76,64
41850,note_off,30,0,4,,,,,,,,2,,,,73,64
41850,note_off,30,0,11,,,,,,,,12,,,,73,64
41850,note_on,0,0,2,,,,,,,,1,,,,74,60
41850,note_on,0,0,12,,,,,,,,13,,,,64,60
41850,note_off,30,0,12,,,,,,,,13,,,,62,64
41850,note_off,30,0,6,,,,,,,,3,,,,73,64
41850,note_on,0,0,6,,,,,,,,3,,,,74,60
41850,note_off,30,0,10,,,,,,,,11,,,,76,64
41850,note_on,0,0,10,,,,,,,,11,,,,78,60
41850,note_off,30,0,1,,,,,,,,0,,,,76,64
41850,note_on,0,0,1,,,,,,,,0,,,,78,60
41850,note_on,0,0,3,,,,,,,,2,,,,78,60
41850,note_off,30,0,3,,,,,,,,2,,,,76,64
41850,note_on,0,0,11,,,,,,,,12,,,,74,60
41850,note_off,30,0,2,,,,,,,,1,,,,73,64
41880,note_off,30,0,1,,,,,,,,0,,,,78,64
41880,note_on,0,0,5,,,,,,,,3,,,,76,60
41880,note_on,0,0,3,,,,,,,,2,,,,76,60
41880,note_on,0,0,10,,,,,,,,11,,,,76,60
41880,note_off,30,0,10,,,,,,,,11,,,,78,64
41880,note_off,30,0,3,,,,,,,,2,,,,78,64
41880,note_on,0,0,12,,,,,,,,13,,,,62,60
41880,note_on,0,0,1,,,,,,,,0,,,,76,60
41880,note_off,30,0,5,,,,,,,,3,,,,78,64
41880,note_off,30,0,12,,,,,,,,13,,,,64,64
41880,note_off,30,0,4,,,,,,,,2,,,,74,64
41880,note_on,0,0,11,,,,,,,,12,,,,73,60
41880,note_off,30,0,11,,,,,,,,12,,,,74,64
41880,note_off,30,0,2,,,,,,,,1,,,,74,64
41880,note_on,0,0,6,,,,,,,,3,,,,73,60
41880,note_off,30,0,6,,,,,,,,3,,,,74,64
41880,note_on,0,0,2,,,,,,,,1,,,,73,60
41880,note_on,0,0,4,,,,,,,,2,,,,73,60
41910,note_off,30,0,4,,,,,,,,2,,,,73,64
41910,note_on,0,0,1,,,,,,,,0,,,,78,60
41910,note_off,30,0,1,,,,,,,,0,,,,76,64
41910,note_on,0,0,10,,,,,,,,11,,,,78,60
41910,note_off,30,0,10,,,,,,,,11,,,,76,64
41910,note_on,0,0,3,,,,,,,,2,,,,78,60
41910,note_off,30,0,3,,,,,,,,2,,,,76,64
41910,note_on,0,0,6,,,,,,,,3,,,,74,60
41910,note_on,0,0,11,,,,,,,,12,,,,74,60
41910,note_off,30,0,11,,,,,,,,12,,,,73,64
41910,note_on,0,0,12,,,,,,,,13,,,,64,60
41910,note_off,30,0,6,,,,,,,,3,,,,73,64
41910,note_on,0,0,5,,,,,,,,3,,,,78,60
41910,note_off,30,0,12,,,,,,,,13,,,,62,64
41910,note_off,30,0,2,,,,,,,,1,,,,73,64
41910,note_on,0,0,4,,,,,,,,2,,,,74,60
41910,note_on,0,0,2,,,,,,,,1,,,,74,60
41910,note_off,30,0,5,,,,,,,,3,,,,76,64
41940,note_off,30,0,1,,,,,,,,0,,,,78,64
41940,note_off,30,0,4,,,,,,,,2,,,,74,64
41940,note_on,0,0,4,,,,,,,,2,,,,73,60
41940,note_on,0,0,6,,,,,,,,3,,,,73,60
41940,note_on,0,0,3,,,,,,,,2,,,,76,60
41940,note_off,30,0,3,,,,,,,,2,,,,78,64
41940,note_off,30,0,2,,,,,,,,1,,,,74,64
41940,note_on,0,0,2,,,,,,,,1,,,,73,60
41940,note_off,30,0,6,,,,,,,,3,,,,74,64
41940,note_off,30,0,5,,,,,,,,3,,,,78,64
41940,note_on,0,0,11,,,,,,,,12,,,,73,60
41940,note_off,30,0,11,,,,,,,,12,,,,74,64
41940,note_on,0,0,10,,,,,,,,11,,,,76,60
41940,note_off,30,0,10,,,,,,,,11,,,,78,64
41940,note_on,0,0,12,,,,,,,,13,,,,62,60
41940,note_on,0,0,1,,,,,,,,0,,,,76,60
41940,note_off,30,0,12,,,,,,,,13,,,,64,64
41940,note_on,0,0,5,,,,,,,,3,,,,76,60
41970,note_on,0,0,10,,,,,,,,11,,,,78,60
41970,note_off,30,0,10,,,,,,,,11,,,,76,64
41970,note_off,30,0,12,,,,,,,,13,,,,62,64
41970,note_off,30,0,6,,,,,,,,3,,,,73,64
41970,note_on,0,0,6,,,,,,,,3,,,,74,60
41970,note_on,0,0,12,,,,,,,,13,,,,64,60
41970,note_on,0,0,5,,,,,,,,3,,,,78,60
41970,note_off,30,0,1,,,,,,,,0,,,,76,64
41970,note_on,0,0,4,,,,,,,,2,,,,74,60
41970,note_on,0,0,3,,,,,,,,2,,,,78,60
41970,note_off,30,0,11,,,,,,,,12,,,,73,64
41970,note_off,30,0,5,,,,,,,,3,,,,76,64
41970,note_on,0,0,1,,,,,,,,0,,,,78,60
41970,note_off,30,0,3,,,,,,,,2,,,,76,64
41970,note_off,30,0,2,,,,,,,,1,,,,73,64
41970,note_on,0,0,11,,,,,,,,12,,,,74,60
41970,note_off,30,0,4,,,,,,,,2,,,,73,64
41970,note_on,0,0,2,,,,,,,,1,,,,74,60
42000,note_on,0,0,12,,,,,,,,13,,,,62,60
42000,note_off,30,0,12,,,,,,,,13,,,,64,64
42000,note_off,30,0,4,,,,,,,,2,,,,74,64
42000,note_on,0,0,4,,,,,,,,2,,,,73,60
42000,note_on,0,0,5,,,,,,,,3,,,,76,60
42000,note_off,30,0,5,,,,,,,,3,,,,78,64
42000,note_off,30,0,2,,,,,,,,1,,,,74,64
42000,note_on,0,0,2,,,,,,,,1,,,,73,60
42000,note_off,30,0,10,,,,,,,,11,,,,78,64
42000,note_off,30,0,1,,,,,,,,0,,,,78,64
42000,note_on,0,0,10,,,,,,,,11,,,,76,60
42000,note_off,30,0,11,,,,,,,,12,,,,74,64
42000,note_off,30,0,3,,,,,,,,2,,,,78,64
42000,note_off,30,0,6,,,,,,,,3,,,,74,64
42000,note_on,0,0,6,,,,,,,,3,,,,73,60
42000,note_on,0,0,3,,,,,,,,2,,,,76,60
42000,note_on,0,0,1,,,,,,,,0,,,,76,60
42000,note_on,0,0,11,,,,,,,,12,,,,73,60
42030,note_on,0,0,2,,,,,,,,1,,,,74,60
42030,note_off,30,0,2,,,,,,,,1,,,,73,64
42030,note_off,30,0,1,,,,,,,,0,,,,76,64
42030,note_off,30,0,11,,,,,,,,12,,,,73,64
42030,note_on,0,0,1,,,,,,,,0,,,,78,60
42030,note_on,0,0,6,,,,,,,,3,,,,74,60
42030,note_off,30,0,12,,,,,,,,13,,,,62,64
42030,note_on,0,0,12,,,,,,,,13,,,,64,60
42030,note_on,0,0,10,,,,,,,,11,,,,78,60
42030,note_on,0,0,4,,,,,,,,2,,,,74,60
42030,note_on,0,0,11,,,,,,,,12,,,,74,60
42030,note_off,30,0,6,,,,,,,,3,,,,73,64
42030,note_off,30,0,10,,,,,,,,11,,,,76,64
42030,note_off,30,0,3,,,,,,,,2,,,,76,64
42030,note_on,0,0,3,,,,,,,,2,,,,78,60
42030,note_on,0,0,5,,,,,,,,3,,,,78,60
42030,note_off,30,0,5,,,,,,,,3,,,,76,64
42030,note_off,30,0,4,,,,,,,,2,,,,73,64
42060,note_off,30,0,3,,,,,,,,2,,,,78,64
42060,note_on,0,0,3,,,,,,,,2,,,,76,60
42060,note_off,30,0,10,,,,,,,,11,,,,78,64
42060,note_on,0,0,10,,,,,,,,11,,,,76,60
42060,note_off,30,0,12,,,,,,,,13,,,,64,64
42060,note_on,0,0,12,,,,,,,,13,,,,62,60
42060,note_off,30,0,1,,,,,,,,0,,,,78,64
42060,note_on,0,0,1,,,,,,,,0,,,,76,60
42060,note_on,0,0,11,,,,,,,,12,,,,73,60
42060,note_off,30,0,2,,,,,,,,1,,,,74,64
42060,note_on,0,0,2,,,,,,,,1,,,,73,60
42060,note_on,0,0,5,,,,,,,,3,,,,76,60
42060,note_off,30,0,11,,,,,,,,12,,,,74,64
42060,note_off,30,0,4,,,,,,,,2,,,,74,64
42060,note_off,30,0,5,,,,,,,,3,,,,78,64
42060,note_on,0,0,6,,,,,,,,3,,,,73,60
42060,note_off,30,0,6,,,,,,,,3,,,,74,64
42060,note_on,0,0,4,,,,,,,,2,,,,73,60
42090,note_off,30,0,4,,,,,,,,2,,,,73,64
42090,note_on,0,0,4,,,,,,,,2,,,,74,60
42090,note_off,30,0,3,,,,,,,,2,,,,76,64
42090,note_on,0,0,6,,,,,,,,3,,,,74,60
42090,note_on,0,0,2,,,,,,,,1,,,,74,60
42090,note_off,30,0,6,,,,,,,,3,,,,73,64
42090,note_on,0,0,11,,,,,,,,12,,,,74,60
42090,note_off,30,0,11,,,,,,,,12,,,,73,64
42090,note_on,0,0,1,,,,,,,,0,,,,78,60
42090,note_off,30,0,1,,,,,,,,0,,,,76,64
42090,note_on,0,0,10,,,,,,,,11,,,,78,60
42090,note_off,30,0,10,,,,,,,,11,,,,76,64
42090,note_on,0,0,3,,,,,,,,2,,,,78,60
42090,note_off,30,0,2,,,,,,,,1,,,,73,64
42090,note_off,30,0,5,,,,,,,,3,,,,76,64
42090,note_on,0,0,5,,,,,,,,3,,,,78,60
42090,note_off,30,0,12,,,,,,,,13,,,,62,64
42090,note_on,0,0,12,,,,,,,,13,,,,64,60
42120,note_on,0,0,4,,,,,,,,2,,,,71,60
42120,note_off,30,0,4,,,,,,,,2,,,,74,64
42120,note_off,30,0,3,,,,,,,,2,,,,78,64
42120,note_on,0,0,2,,,,,,,,1,,,,71,60
42120,note_on,0,0,12,,,,,,,,13,,,,61,60
42120,note_on,0,0,6,,,,,,,,3,,,,71,60
42120,note_off,30,0,5,,,,,,,,3,,,,78,64
42120,note_on,0,0,11,,,,,,,,12,,,,71,60
42120,note_off,30,0,11,,,,,,,,12,,,,74,64
42120,note_on,0,0,5,,,,,,,,3,,,,74,60
42120,note_on,0,0,10,,,,,,,,11,,,,74,60
42120,note_off,30,0,12,,,,,,,,13,,,,64,64
42120,note_off,30,0,2,,,,,,,,1,,,,74,64
42120,note_on,0,0,3,,,,,,,,2,,,,74,60
42120,note_off,30,0,6,,,,,,,,3,,,,74,64
42120,note_off,30,0,10,,,,,,,,11,,,,78,64
42120,note_off,30,0,1,,,,,,,,0,,,,78,64
42120,note_on,0,0,1,,,,,,,,0,,,,74,60
42180,note_on,0,0,4,,,,,,,,2,,,,73,60
42180,note_on,0,0,3,,,,,,,,2,,,,76,60
42180,note_on,0,0,2,,,,,,,,1,,,,73,60
42180,note_off,60,0,2,,,,,,,,1,,,,71,64
42180,note_on,0,0,5,,,,,,,,3,,,,76,60
42180,note_off,60,0,12,,,,,,,,13,,,,61,64
42180,note_off,60,0,4,,,,,,,,2,,,,71,64
42180,note_on,0,0,12,,,,,,,,13,,,,62,60
42180,note_on,0,0,6,,,,,,,,3,,,,73,60
42180,note_off,60,0,5,,,,,,,,3,,,,74,64
42180,note_on,0,0,1,,,,,,,,0,,,,76,60
42180,note_off,60,0,1,,,,,,,,0,,,,74,64
42180,note_off,60,0,11,,,,,,,,12,,,,71,64
42180,note_off,60,0,3,,,,,,,,2,,,,74,64
42180,note_off,60,0,10,,,,,,,,11,,,,74,64
42180,note_on,0,0,10,,,,,,,,11,,,,76,60
42180,note_off,60,0,6,,,,,,,,3,,,,71,64
42180,note_on,0,0,11,,,,,,,,12,,,,73,60
42240,note_off,60,0,5,,,,,,,,3,,,,76,64
42240,note_off,60,0,6,,,,,,,,3,,,,73,64
42240,note_off,480,0,14,,,,,,,,15,,,,45,64
42240,note_off,60,0,11,,,,,,,,12,,,,73,64
42240,note_on,0,0,4,,,,,,,,2,,,,74,60
42240,note_off,60,0,4,,,,,,,,2,,,,73,64
42240,note_on,0,0,6,,,,,,,,3,,,,74,60
42240,note_on,0,0,14,,,,,,,,15,,,,50,60
42240,note_on,0,0,1,,,,,,,,0,,,,78,60
42240,note_off,60,0,12,,,,,,,,13,,,,62,64
42240,note_off,60,0,1,,,,,,,,0,,,,76,64
42240,note_off,60,0,10,,,,,,,,11,,,,76,64
42240,note_on,0,0,13,,,,,,,,14,,,,62,60
42240,note_off,480,0,13,,,,,,,,14,,,,57,64
42240,note_on,0,0,10,,,,,,,,11,,,,78,60
42240,note_on,0,0,3,,,,,,,,2,,,,78,60
42240,note_on,0,0,5,,,,,,,,3,,,,78,60
42240,note_off,60,0,3,,,,,,,,2,,,,76,64
42240,note_on,0,0,2,,,,,,,,1,,,,74,60
42240,note_off,480,0,7,,,,,,,,4,,,,57,64
42240,note_on,0,0,7,,,,,,,,4,,,,62,60
42240,note_on,0,0,11,,,,,,,,12,,,,74,60
42240,note_on,0,0,12,,,,,,,,13,,,,64,60
42240,note_off,60,0,2,,,,,,,,1,,,,73,64
42475,note_off,235,0,11,,,,,,,,12,,,,74,64
42475,note_off,235,0,10,,,,,,,,11,,,,78,64
42475,note_off,235,0,12,,,,,,,,13,,,,64,64
42475,note_off,235,0,6,,,,,,,,3,,,,74,64
42475,note_off,235,0,1,,,,,,,,0,,,,78,64
42475,note_off,235,0,3,,,,,,,,2,,,,78,64
42475,note_off,235,0,2,,,,,,,,1,,,,74,64
42475,note_off,235,0,7,,,,,,,,4,,,,62,64
42475,note_off,235,0,13,,,,,,,,14,,,,62,64
42475,note_off,235,0,5,,,,,,,,3,,,,78,64
42475,note_off,235,0,14,,,,,,,,15,,,,50,64
42475,note_off,235,0,4,,,,,,,,2,,,,74,64
42480,note_on,5,0,11,,,,,,,,12,,,,73,60
42480,note_on,5,0,6,,,,,,,,3,,,,73,60
42480,note_on,5,0,1,,,,,,,,0,,,,76,60
42480,note_on,5,0,5,,,,,,,,3,,,,76,60
42480,note_on,5,0,12,,,,,,,,13,,,,62,60
42480,note_on,5,0,14,,,,,,,,15,,,,45,60
42480,note_on,5,0,2,,,,,,,,1,,,,73,60
42480,note_on,5,0,4,,,,,,,,2,,,,73,60
42480,note_on,5,0,10,,,,,,,,11,,,,76,60
42480,note_on,5,0,7,,,,,,,,4,,,,57,60
42480,note_on,5,0,13,,,,,,,,14,,,,57,60
42480,note_on,5,0,3,,,,,,,,2,,,,76,60
42510,note_off,30,0,11,,,,,,,,12,,,,73,64
42510,note_on,0,0,11,,,,,,,,12,,,,74,61
42510,note_off,30,0,2,,,,,,,,1,,,,73,64
42510,note_on,0,0,10,,,,,,,,11,,,,78,61
42510,note_on,0,0,2,,,,,,,,1,,,,74,61
42510,note_off,30,0,6,,,,,,,,3,,,,73,64
42510,note_on,0,0,6,,,,,,,,3,,,,74,61
42510,note_on,0,0,4,,,,,,,,2,,,,74,61
42510,note_off,30,0,4,,,,,,,,2,,,,73,64
42510,note_off,30,0,10,,,,,,,,11,,,,76,64
42510,note_off,30,0,5,,,,,,,,3,,,,76,64
42510,note_on,0,0,1,,,,,,,,0,,,,78,61
42510,note_off,30,0,1,,,,,,,,0,,,,76,64
42510,note_on,0,0,12,,,,,,,,13,,,,64,61
42510,note_on,0,0,5,,,,,,,,3,,,,78,61
42510,note_off,30,0,3,,,,,,,,2,,,,76,64
42510,note_off,30,0,12,,,,,,,,13,,,,62,64
42510,note_on,0,0,3,,,,,,,,2,,,,78,61
42540,note_on,0,0,6,,,,,,,,3,,,,73,62
42540,note_off,30,0,6,,,,,,,,3,,,,74,64
42540,note_on,0,0,5,,,,,,,,3,,,,76,62
42540,note_off,30,0,5,,,,,,,,3,,,,78,64
42540,note_off,30,0,3,,,,,,,,2,,,,78,64
42540,note_on,0,0,10,,,,,,,,11,,,,76,62
42540,note_off,30,0,4,,,,,,,,2,,,,74,64
42540,note_on,0,0,4,,,,,,,,2,,,,73,62
42540,note_on,0,0,1,,,,,,,,0,,,,76,62
42540,note_off,30,0,1,,,,,,,,0,,,,78,64
42540,note_on,0,0,3,,,,,,,,2,,,,76,62
42540,note_off,30,0,2,,,,,,,,1,,,,74,64
42540,note_off,30,0,10,,,,,,,,11,,,,78,64
42540,note_off,30,0,11,,,,,,,,12,,,,74,64
42540,note_on,0,0,11,,,,,,,,12,,,,73,62
42540,note_on,0,0,12,,,,,,,,13,,,,62,62
42540,note_off,30,0,12,,,,,,,,13,,,,64,64
42540,note_on,0,0,2,,,,,,,,1,,,,73,62
42570,note_off,30,0,2,,,,,,,,1,,,,73,64
42570,note_off,30,0,10,,,,,,,,11,,,,76,64
42570,note_off,30,0,6,,,,,,,,3,,,,73,64
42570,note_on,0,0,4,,,,,,,,2,,,,74,63
42570,note_on,0,0,2,,,,,,,,1,,,,74,63
42570,note_on,0,0,3,,,,,,,,2,,,,78,63
42570,note_on,0,0,10,,,,,,,,11,,,,78,63
42570,note_off,30,0,12,,,,,,,,13,,,,62,64
42570,note_on,0,0,12,,,,,,,,13,,,,64,63
42570,note_off,30,0,3,,,,,,,,2,,,,76,64
42570,note_off,30,0,1,,,,,,,,0,,,,76,64
42570,note_on,0,0,1,,,,,,,,0,,,,78,63
42570,note_off,30,0,4,,,,,,,,2,,,,73,64
42570,note_off,30,0,11,,,,,,,,12,,,,73,64
42570,note_on,0,0,11,,,,,,,,12,,,,74,63
42570,note_off,30,0,5,,,,,,,,3,,,,76,64
42570,note_on,0,0,5,,,,,,,,3,,,,78,63
42570,note_on,0,0,6,,,,,,,,3,,,,74,63
42600,note_on,0,0,1,,,,,,,,0,,,,76,64
42600,note_off,30,0,1,,,,,,,,0,,,,78,64
42600,note_off,30,0,12,,,,,,,,13,,,,64,64
42600,note_on,0,0,12,,,,,,,,13,,,,62,64
42600,note_on,0,0,2,,,,,,,,1,,,,73,64
42600,note_off,30,0,2,,,,,,,,1,,,,74,64
42600,note_on,0,0,4,,,,,,,,2,,,,73,64
42600,note_on,0,0,3,,,,,,,,2,,,,76,64
42600,note_off,30,0,10,,,,,,,,11,,,,78,64
42600,note_on,0,0,10,,,,,,,,11,,,,76,64
42600,note_on,0,0,6,,,,,,,,3,,,,73,64
42600,note_off,30,0,6,,,,,,,,3,,,,74,64
42600,note_on,0,0,5,,,,,,,,3,,,,76,64
42600,note_off,30,0,5,,,,,,,,3,,,,78,64
42600,note_off,30,0,11,,,,,,,,12,,,,74,64
42600,note_off,30,0,3,,,,,,,,2,,,,78,64
42600,note_off,30,0,4,,,,,,,,2,,,,74,64
42600,note_on,0,0,11,,,,,,,,12,,,,73,64
42630,note_off,30,0,1,,,,,,,,0,,,,76,64
42630,note_on,0,0,6,,,,,,,,3,,,,74,65
42630,note_off,30,0,6,,,,,,,,3,,,,73,64
42630,note_on,0,0,5,,,,,,,,3,,,,78,65
42630,note_off,30,0,5,,,,,,,,3,,,,76,64
42630,note_off,30,0,11,,,,,,,,12,,,,73,64
42630,note_on,0,0,11,,,,,,,,12,,,,74,65
42630,note_on,0,0,1,,,,,,,,0,,,,78,65
42630,note_on,0,0,12,,,,,,,,13,,,,64,65
42630,note_off,30,0,2,,,,,,,,1,,,,73,64
42630,note_on,0,0,2,,,,,,,,1,,,,74,65
42630,note_off,30,0,12,,,,,,,,13,,,,62,64
42630,note_off,30,0,4,,,,,,,,2,,,,73,64
42630,note_on,0,0,4,,,,,,,,2,,,,74,65
42630,note_on,0,0,10,,,,,,,,11,,,,78,65
42630,note_off,30,0,10,,,,,,,,11,,,,76,64
42630,note_off,30,0,3,,,,,,,,2,,,,76,64
42630,note_on,0,0,3,,,,,,,,2,,,,78,65
42660,note_on,0,0,2,,,,,,,,1,,,,73,66
42660,note_off,30,0,12,,,,,,,,13,,,,64,64
42660,note_on,0,0,12,,,,,,,,13,,,,62,66
42660,note_on,0,0,6,,,,,,,,3,,,,73,66
42660,note_off,30,0,6,,,,,,,,3,,,,74,64
42660,note_on,0,0,5,,,,,,,,3,,,,76,66
42660,note_off,30,0,2,,,,,,,,1,,,,74,64
42660,note_on,0,0,4,,,,,,,,2,,,,73,66
42660,note_off,30,0,4,,,,,,,,2,,,,74,64
42660,note_off,30,0,11,,,,,,,,12,,,,74,64
42660,note_on,0,0,11,,,,,,,,12,,,,73,66
42660,note_off,30,0,3,,,,,,,,2,,,,78,64
42660,note_off,30,0,5,,,,,,,,3,,,,78,64
42660,note_on,0,0,3,,,,,,,,2,,,,76,66
42660,note_off,30,0,10,,,,,,,,11,,,,78,64
42660,note_on,0,0,10,,,,,,,,11,,,,76,66
42660,note_on,0,0,1,,,,,,,,0,,,,76,66
42660,note_off,30,0,1,,,,,,,,0,,,,78,64
42690,note_on,0,0,4,,,,,,,,2,,,,74,67
42690,note_off,30,0,3,,,,,,,,2,,,,76,64
42690,note_on,0,0,3,,,,,,,,2,,,,78,67
42690,note_off,30,0,5,,,,,,,,3,,,,76,64
42690,note_on,0,0,5,,,,,,,,3,,,,78,67
42690,note_off,30,0,11,,,,,,,,12,,,,73,64
42690,note_on,0,0,11,,,,,,,,12,,,,74,67
42690,note_off,30,0,4,,,,,,,,2,,,,73,64
42690,note_on,0,0,1,,,,,,,,0,,,,78,67
42690,note_off,30,0,2,,,,,,,,1,,,,73,64
42690,note_off,30,0,1,,,,,,,,0,,,,76,64
42690,note_on,0,0,6,,,,,,,,3,,,,74,67
42690,note_off,30,0,10,,,,,,,,11,,,,76,64
42690,note_on,0,0,10,,,,,,,,11,,,,78,67
42690,note_off,30,0,12,,,,,,,,13,,,,62,64
42690,note_on,0,0,2,,,,,,,,1,,,,74,67
42690,note_on,0,0,12,,,,,,,,13,,,,64,67
42690,note_off,30,0,6,,,,,,,,3,,,,73,64
42720,note_off,30,0,3,,,,,,,,2,,,,78,64
42720,note_on,0,0,6,,,,,,,,3,,,,73,68
42720,note_off,30,0,4,,,,,,,,2,,,,74,64
42720,note_on,0,0,2,,,,,,,,1,,,,73,68
42720,note_off,30,0,2,,,,,,,,1,,,,74,64
42720,note_off,30,0,11,,,,,,,,12,,,,74,64
42720,note_on,0,0,11,,,,,,,,12,,,,73,68
42720,note_on,0,0,10,,,,,,,,11,,,,76,68
42720,note_on,0,0,4,,,,,,,,2,,,,73,68
42720,note_off,30,0,10,,,,,,,,11,,,,78,64
42720,note_on,0,0,3,,,,,,,,2,,,,76,68
42720,note_off,30,0,1,,,,,,,,0,,,,78,64
42720,note_off,30,0,5,,,,,,,,3,,,,78,64
42720,note_on,0,0,5,,,,,,,,3,,,,76,68
42720,note_off,30,0,6,,,,,,,,3,,,,74,64
42720,note_off,30,0,12,,,,,,,,13,,,,64,64
42720,note_on,0,0,12,,,,,,,,13,,,,62,68
42720,note_on,0,0,1,,,,,,,,0,,,,76,68
42750,note_on,0,0,12,,,,,,,,13,,,,64,69
42750,note_off,30,0,12,,,,,,,,13,,,,62,64
42750,note_off,30,0,2,,,,,,,,1,,,,73,64
42750,note_on,0,0,4,,,,,,,,2,,,,74,69
42750,note_on,0,0,3,,,,,,,,2,,,,78,69
42750,note_off,30,0,4,,,,,,,,2,,,,73,64
42750,note_on,0,0,6,,,,,,,,3,,,,74,69
42750,note_off,30,0,6,,,,,,,,3,,,,73,64
42750,note_on,0,0,2,,,,,,,,1,,,,74,69
42750,note_on,0,0,1,,,,,,,,0,,,,78,69
42750,note_off,30,0,3,,,,,,,,2,,,,76,64
42750,note_on,0,0,10,,,,,,,,11,,,,78,69
42750,note_off,30,0,5,,,,,,,,3,,,,76,64
42750,note_on,0,0,5,,,,,,,,3,,,,78,69
42750,note_on,0,0,11,,,,,,,,12,,,,74,69
42750,note_off,30,0,11,,,,,,,,12,,,,73,64
42750,note_off,30,0,1,,,,,,,,0,,,,76,64
42750,note_off,30,0,10,,,,,,,,11,,,,76,64
42780,note_off,30,0,1,,,,,,,,0,,,,78,64
42780,note_off,30,0,6,,,,,,,,3,,,,74,64
42780,note_on,0,0,6,,,,,,,,3,,,,73,70
42780,note_on,0,0,10,,,,,,,,11,,,,76,70
42780,note_off,30,0,10,,,,,,,,11,,,,78,64
42780,note_off,30,0,4,,,,,,,,2,,,,74,64
42780,note_on,0,0,5,,,,,,,,3,,,,76,70
42780,note_on,0,0,4,,,,,,,,2,,,,73,70
42780,note_on,0,0,2,,,,,,,,1,,,,73,70
42780,note_off,30,0,2,,,,,,,,1,,,,74,64
42780,note_off,30,0,11,,,,,,,,12,,,,74,64
42780,note_on,0,0,11,,,,,,,,12,,,,73,70
42780,note_off,30,0,5,,,,,,,,3,,,,78,64
42780,note_on,0,0,1,,,,,,,,0,,,,76,70
42780,note_off,30,0,3,,,,,,,,2,,,,78,64
42780,note_on,0,0,12,,,,,,,,13,,,,62,70
42780,note_on,0,0,3,,,,,,,,2,,,,76,70
42780,note_off,30,0,12,,,,,,,,13,,,,64,64
42810,note_off,30,0,12,,,,,,,,13,,,,62,64
42810,note_off,30,0,6,,,,,,,,3,,,,73,64
42810,note_on,0,0,6,,,,,,,,3,,,,74,71
42810,note_on,0,0,12,,,,,,,,13,,,,64,71
42810,note_on,0,0,5,,,,,,,,3,,,,78,71
42810,note_on,0,0,1,,,,,,,,0,,,,78,71
42810,note_off,30,0,1,,,,,,,,0,,,,76,64
42810,note_off,30,0,5,,,,,,,,3,,,,76,64
42810,note_off,30,0,11,,,,,,,,12,,,,73,64
42810,note_on,0,0,10,,,,,,,,11,,,,78,71
42810,note_off,30,0,10,,,,,,,,11,,,,76,64
42810,note_on,0,0,4,,,,,,,,2,,,,74,71
42810,note_off,30,0,2,,,,,,,,1,,,,73,64
42810,note_off,30,0,3,,,,,,,,2,,,,76,64
42810,note_on,0,0,3,,,,,,,,2,,,,78,71
42810,note_off,30,0,4,,,,,,,,2,,,,73,64
42810,note_on,0,0,11,,,,,,,,12,,,,74,71
42810,note_on,0,0,2,,,,,,,,1,,,,74,71
42840,note_on,0,0,11,,,,,,,,12,,,,71,72
42840,note_off,30,0,10,,,,,,,,11,,,,78,64
42840,note_off,30,0,3,,,,,,,,2,,,,78,64
42840,note_off,30,0,6,,,,,,,,3,,,,74,64
42840,note_on,0,0,6,,,,,,,,3,,,,71,72
42840,note_on,0,0,10,,,,,,,,11,,,,74,72
42840,note_off,30,0,12,,,,,,,,13,,,,64,64
42840,note_on,0,0,12,,,,,,,,13,,,,61,72
42840,note_on,0,0,5,,,,,,,,3,,,,74,72
42840,note_off,30,0,5,,,,,,,,3,,,,78,64
42840,note_off,30,0,4,,,,,,,,2,,,,74,64
42840,note_on,0,0,1,,,,,,,,0,,,,74,72
42840,note_off,30,0,1,,,,,,,,0,,,,78,64
42840,note_on,0,0,4,,,,,,,,2,,,,71,72
42840,note_on,0,0,2,,,,,,,,1,,,,71,72
42840,note_on,0,0,3,,,,,,,,2,,,,74,72
42840,note_off,30,0,2,,,,,,,,1,,,,74,64
42840,note_off,30,0,11,,,,,,,,12,,,,74,64
42900,note_off,60,0,11,,,,,,,,12,,,,71,64
42900,note_on,0,0,5,,,,,,,,3,,,,76,75
42900,note_on,0,0,12,,,,,,,,13,,,,62,75
42900,note_off,60,0,12,,,,,,,,13,,,,61,64
42900,note_off,60,0,2,,,,,,,,1,,,,71,64
42900,note_on,0,0,11,,,,,,,,12,,,,73,75
42900,note_off,60,0,5,,,,,,,,3,,,,74,64
42900,note_off,60,0,6,,,,,,,,3,,,,71,64
42900,note_on,0,0,2,,,,,,,,1,,,,73,75
42900,note_on,0,0,6,,,,,,,,3,,,,73,75
42900,note_off,60,0,4,,,,,,,,2,,,,71,64
42900,note_on,0,0,4,,,,,,,,2,,,,73,75
42900,note_off,60,0,3,,,,,,,,2,,,,74,64
42900,note_on,0,0,3,,,,,,,,2,,,,76,75
42900,note_off,60,0,10,,,,,,,,11,,,,74,64
42900,note_on,0,0,1,,,,,,,,0,,,,76,75
42900,note_off,60,0,1,,,,,,,,0,,,,74,64
42900,note_on,0,0,10,,,,,,,,11,,,,76,75
42960,note_off,60,0,3,,,,,,,,2,,,,76,64
42960,note_on,0,0,11,,,,,,,,12,,,,74,78
42960,note_off,60,0,11,,,,,,,,12,,,,73,64
42960,note_on,0,0,3,,,,,,,,2,,,,78,78
42960,note_off,60,0,10,,,,,,,,11,,,,76,64
42960,note_on,0,0,10,,,,,,,,11,,,,78,78
42960,note_on,0,0,12,,,,,,,,13,,,,64,78
42960,note_on,0,0,14,,,,,,,,15,,,,50,81
42960,note_off,480,0,7,,,,,,,,4,,,,57,64
42960,note_off,60,0,1,,,,,,,,0,,,,76,64
42960,note_on,0,0,1,,,,,,,,0,,,,78,78
42960,note_on,0,0,13,,,,,,,,14,,,,62,81
42960,note_off,60,0,5,,,,,,,,3,,,,76,64
42960,note_on,0,0,5,,,,,,,,3,,,,78,78
42960,note_off,60,0,12,,,,,,,,13,,,,62,64
42960,note_off,480,0,13,,,,,,,,14,,,,57,64
42960,note_on,0,0,6,,,,,,,,3,,,,74,78
42960,note_off,60,0,6,,,,,,,,3,,,,73,64
42960,note_on,0,0,7,,,,,,,,4,,,,62,81
42960,note_off,60,0,2,,,,,,,,1,,,,73,64
42960,note_off,480,0,14,,,,,,,,15,,,,45,64
42960,note_on,0,0,2,,,,,,,,1,,,,74,78
42960,note_on,0,0,4,,,,,,,,2,,,,74,78
42960,note_off,60,0,4,,,,,,,,2,,,,73,64
43195,note_off,235,0,2,,,,,,,,1,,,,74,64
43195,note_off,235,0,7,,,,,,,,4,,,,62,64
43195,note_off,235,0,1,,,,,,,,0,,,,78,64
43195,note_off,235,0,13,,,,,,,,14,,,,62,64
43195,note_off,235,0,3,,,,,,,,2,,,,78,64
43195,note_off,235,0,4,,,,,,,,2,,,,74,64
43195,note_off,235,0,6,,,,,,,,3,,,,74,64
43195,note_off,235,0,5,,,,,,,,3,,,,78,64
43195,note_off,235,0,12,,,,,,,,13,,,,64,64
43195,note_off,235,0,11,,,,,,,,12,,,,74,64
43195,note_off,235,0,14,,,,,,,,15,,,,50,64
43195,note_off,235,0,10,,,,,,,,11,,,,78,64
43200,note_on,5,0,5,,,,,,,,3,,,,81,92
43200,note_on,5,0,10,,,,,,,,11,,,,76,92
43200,note_on,5,0,6,,,,,,,,3,,,,73,92
43200,note_on,5,0,14,,,,,,,,15,,,,45,92
43200,note_on,5,0,12,,,,,,,,13,,,,64,92
43200,note_on,5,0,1,,,,,,,,0,,,,81,92
43200,note_on,5,0,11,,,,,,,,12,,,,73,92
43200,note_on,5,0,7,,,,,,,,4,,,,57,92
43200,note_on,5,0,13,,,,,,,,14,,,,57,92
43200,set_tempo,2880,1,0,1250000,,,,,,,,,,,,
43200,note_on,5,0,2,,,,,,,,1,,,,73,92
43200,note_on,5,0,4,,,,,,,,2,,,,73,92
43200,note_on,5,0,3,,,,,,,,2,,,,81,92
43230,note_on,0,0,11,,,,,,,,12,,,,74,92
43230,note_off,30,0,11,,,,,,,,12,,,,73,64
43230,note_off,30,0,2,,,,,,,,1,,,,73,64
43230,note_on,0,0,12,,,,,,,,13,,,,66,92
43230,note_off,30,0,12,,,,,,,,13,,,,64,64
43230,note_on,0,0,2,,,,,,,,1,,,,74,92
43230,note_off,30,0,4,,,,,,,,2,,,,73,64
43230,note_off,30,0,6,,,,,,,,3,,,,73,64
43230,note_on,0,0,6,,,,,,,,3,,,,74,92
43230,note_on,0,0,4,,,,,,,,2,,,,74,92
43230,note_off,30,0,10,,,,,,,,11,,,,76,64
43230,note_on,0,0,10,,,,,,,,11,,,,78,92
43260,note_off,30,0,12,,,,,,,,13,,,,66,64
43260,note_on,0,0,10,,,,,,,,11,,,,76,92
43260,note_off,30,0,10,,,,,,,,11,,,,78,64
43260,note_on,0,0,12,,,,,,,,13,,,,64,92
43260,note_off,30,0,11,,,,,,,,12,,,,74,64
43260,note_on,0,0,11,,,,,,,,12,,,,73,92
43260,note_off,30,0,2,,,,,,,,1,,,,74,64
43260,note_on,0,0,2,,,,,,,,1,,,,73,92
43260,note_on,0,0,4,,,,,,,,2,,,,73,92
43260,note_off,30,0,6,,,,,,,,3,,,,74,64
43260,note_on,0,0,6,,,,,,,,3,,,,73,92
43260,note_off,30,0,4,,,,,,,,2,,,,74,64
43290,note_on,0,0,11,,,,,,,,12,,,,74,92
43290,note_off,30,0,11,,,,,,,,12,,,,73,64
43290,note_off,30,0,2,,,,,,,,1,,,,73,64
43290,note_off,30,0,10,,,,,,,,11,,,,76,64
43290,note_off,30,0,4,,,,,,,,2,,,,73,64
43290,note_on,0,0,10,,,,,,,,11,,,,78,92
43290,note_off,30,0,12,,,,,,,,13,,,,64,64
43290,note_on,0,0,12,,,,,,,,13,,,,66,92
43290,note_off,30,0,6,,,,,,,,3,,,,73,64
43290,note_on,0,0,6,,,,,,,,3,,,,74,92
43290,note_on,0,0,4,,,,,,,,2,,,,74,92
43290,note_on,0,0,2,,,,,,,,1,,,,74,92
43320,note_off,30,0,6,,,,,,,,3,,,,74,64
43320,note_on,0,0,2,,,,,,,,1,,,,73,92
43320,note_on,0,0,12,,,,,,,,13,,,,64,92
43320,note_off,30,0,12,,,,,,,,13,,,,66,64
43320,note_off,30,0,11,,,,,,,,12,,,,74,64
43320,note_off,30,0,10,,,,,,,,11,,,,78,64
43320,note_on,0,0,10,,,,,,,,11,,,,76,92
43320,note_on,0,0,4,,,,,,,,2,,,,73,92
43320,note_off,30,0,4,,,,,,,,2,,,,74,64
43320,note_off,30,0,2,,,,,,,,1,,,,74,64
43320,note_on,0,0,11,,,,,,,,12,,,,73,92
43320,note_on,0,0,6,,,,,,,,3,,,,73,92
43350,note_off,30,0,6,,,,,,,,3,,,,73,64
43350,note_on,0,0,2,,,,,,,,1,,,,74,92
43350,note_off,30,0,2,,,,,,,,1,,,,73,64
43350,note_off,30,0,4,,,,,,,,2,,,,73,64
43350,note_on,0,0,4,,,,,,,,2,,,,74,92
43350,note_on,0,0,10,,,,,,,,11,,,,78,92
43350,note_off,30,0,12,,,,,,,,13,,,,64,64
43350,note_on,0,0,12,,,,,,,,13,,,,66,92
43350,note_off,30,0,10,,,,,,,,11,,,,76,64
43350,note_on,0,0,6,,,,,,,,3,,,,74,92
43350,note_off,30,0,11,,,,,,,,12,,,,73,64
43350,note_on,0,0,11,,,,,,,,12,,,,74,92
43380,note_off,30,0,12,,,,,,,,13,,,,66,64
43380,note_on,0,0,4,,,,,,,,2,,,,73,92
43380,note_on,0,0,6,,,,,,,,3,,,,73,92
43380,note_off,30,0,6,,,,,,,,3,,,,74,64
43380,note_off,30,0,4,,,,,,,,2,,,,74,64
43380,note_off,30,0,11,,,,,,,,12,,,,74,64
43380,note_off,30,0,2,,,,,,,,1,,,,74,64
43380,note_on,0,0,2,,,,,,,,1,,,,73,92
43380,note_on,0,0,10,,,,,,,,11,,,,76,92
43380,note_off,30,0,10,,,,,,,,11,,,,78,64
43380,note_on,0,0,12,,,,,,,,13,,,,64,92
43380,note_on,0,0,11,,,,,,,,12,,,,73,92
43410,note_on,0,0,2,,,,,,,,1,,,,74,92
43410,note_off,30,0,10,,,,,,,,11,,,,76,64
43410,note_on,0,0,10,,,,,,,,11,,,,78,92
43410,note_on,0,0,6,,,,,,,,3,,,,74,92
43410,note_off,30,0,6,,,,,,,,3,,,,73,64
43410,note_on,0,0,4,,,,,,,,2,,,,74,92
43410,note_off,30,0,4,,,,,,,,2,,,,73,64
43410,note_off,30,0,12,,,,,,,,13,,,,64,64
43410,note_on,0,0,12,,,,,,,,13,,,,66,92
43410,note_off,30,0,11,,,,,,,,12,,,,73,64
43410,note_on,0,0,11,,,,,,,,12,,,,74,92
43410,note_off,30,0,2,,,,,,,,1,,,,73,64
43440,note_on,0,0,12,,,,,,,,13,,,,64,92
43440,note_off,30,0,12,,,,,,,,13,,,,66,64
43440,note_off,30,0,10,,,,,,,,11,,,,78,64
43440,note_on,0,0,10,,,,,,,,11,,,,76,92
43440,note_on,1685,0,8,,,,,,,,5,,,,69,92
43440,note_on,0,0,6,,,,,,,,3,,,,73,92
43440,note_on,0,0,2,,,,,,,,1,,,,73,92
43440,note_off,30,0,2,,,,,,,,1,,,,74,64
43440,note_on,0,0,4,,,,,,,,2,,,,73,92
43440,note_on,1685,0,9,,,,,,,,5,,,,64,92
43440,note_off,30,0,6,,,,,,,,3,,,,74,64
43440,note_off,30,0,11,,,,,,,,12,,,,74,64
43440,note_on,0,0,11,,,,,,,,12,,,,73,92
43440,note_off,30,0,4,,,,,,,,2,,,,74,64
43470,note_on,0,0,10,,,,,,,,11,,,,78,92
43470,note_on,0,0,4,,,,,,,,2,,,,74,92
43470,note_on,0,0,6,,,,,,,,3,,,,74,92
43470,note_off,30,0,10,,,,,,,,11,,,,76,64
43470,note_off,30,0,6,,,,,,,,3,,,,73,64
43470,note_on,0,0,2,,,,,,,,1,,,,74,92
43470,note_off,30,0,2,,,,,,,,1,,,,73,64
43470,note_off,30,0,11,,,,,,,,12,,,,73,64
43470,note_on,0,0,11,,,,,,,,12,,,,74,92
43470,note_off,30,0,12,,,,,,,,13,,,,64,64
43470,note_off,30,0,4,,,,,,,,2,,,,73,64
43470,note_on,0,0,12,,,,,,,,13,,,,66,92
43500,note_off,30,0,12,,,,,,,,13,,,,66,64
43500,note_off,30,0,10,,,,,,,,11,,,,78,64
43500,note_on,0,0,10,,,,,,,,11,,,,76,92
43500,note_on,0,0,4,,,,,,,,2,,,,73,92
43500,note_off,30,0,6,,,,,,,,3,,,,74,64
43500,note_off,30,0,11,,,,,,,,12,,,,74,64
43500,note_on,0,0,6,,,,,,,,3,,,,73,92
43500,note_on,0,0,11,,,,,,,,12,,,,73,92
43500,note_off,30,0,4,,,,,,,,2,,,,74,64
43500,note_off,30,0,2,,,,,,,,1,,,,74,64
43500,note_on,0,0,2,,,,,,,,1,,,,73,92
43500,note_on,0,0,12,,,,,,,,13,,,,64,92
43530,note_on,0,0,10,,,,,,,,11,,,,78,92
43530,note_on,0,0,2,,,,,,,,1,,,,74,92
43530,note_off,30,0,2,,,,,,,,1,,,,73,64
43530,note_on,0,0,11,,,,,,,,12,,,,74,92
43530,note_on,0,0,4,,,,,,,,2,,,,74,92
43530,note_off,30,0,10,,,,,,,,11,,,,76,64
43530,note_off,30,0,4,,,,,,,,2,,,,73,64
43530,note_off,30,0,11,,,,,,,,12,,,,73,64
43530,note_on,0,0,6,,,,,,,,3,,,,74,92
43530,note_off,30,0,6,,,,,,,,3,,,,73,64
43530,note_off,30,0,12,,,,,,,,13,,,,64,64
43530,note_on,0,0,12,,,,,,,,13,,,,66,92
43560,note_on,0,0,1,,,,,,,,0,,,,79,92
43560,note_on,0,0,11,,,,,,,,12,,,,71,92
43560,note_on,0,0,10,,,,,,,,11,,,,74,92
43560,note_off,30,0,11,,,,,,,,12,,,,74,64
43560,note_on,0,0,6,,,,,,,,3,,,,71,92
43560,note_off,30,0,6,,,,,,,,3,,,,74,64
43560,note_off,360,0,1,,,,,,,,0,,,,81,64
43560,note_off,30,0,10,,,,,,,,11,,,,78,64
43560,note_on,0,0,12,,,,,,,,13,,,,62,92
43560,note_off,30,0,2,,,,,,,,1,,,,74,64
43560,note_off,360,0,5,,,,,,,,3,,,,81,64
43560,note_on,0,0,5,,,,,,,,3,,,,79,92
43560,note_off,360,0,3,,,,,,,,2,,,,81,64
43560,note_on,0,0,3,,,,,,,,2,,,,79,92
43560,note_off,30,0,4,,,,,,,,2,,,,74,64
43560,note_off,30,0,12,,,,,,,,13,,,,66,64
43560,note_on,0,0,4,,,,,,,,2,,,,71,92
43560,note_on,0,0,2,,,,,,,,1,,,,71,92
43620,note_off,60,0,12,,,,,,,,13,,,,62,64
43620,note_on,0,0,12,,,,,,,,13,,,,64,92
43620,note_off,60,0,6,,,,,,,,3,,,,71,64
43620,note_on,0,0,6,,,,,,,,3,,,,73,92
43620,note_off,60,0,4,,,,,,,,2,,,,71,64
43620,note_on,0,0,10,,,,,,,,11,,,,76,92
43620,note_off,60,0,10,,,,,,,,11,,,,74,64
43620,note_off,60,0,11,,,,,,,,12,,,,71,64
43620,note_on,0,0,11,,,,,,,,12,,,,73,92
43620,note_on,0,0,4,,,,,,,,2,,,,73,92
43620,note_off,60,0,2,,,,,,,,1,,,,71,64
43620,note_on,0,0,2,,,,,,,,1,,,,73,92
43680,note_on,0,0,6,,,,,,,,3,,,,74,92
43680,note_off,60,0,6,,,,,,,,3,,,,73,64
43680,note_on,0,0,2,,,,,,,,1,,,,74,92
43680,note_on,0,0,8,,,,,,,,5,,,,66,92
43680,note_off,60,0,4,,,,,,,,2,,,,73,64
43680,note_on,0,0,12,,,,,,,,13,,,,66,92
43680,note_off,120,0,3,,,,,,,,2,,,,79,64
43680,note_on,0,0,4,,,,,,,,2,,,,74,92
43680,note_off,240,0,8,,,,,,,,5,,,,69,64
43680,note_off,120,0,5,,,,,,,,3,,,,79,64
43680,note_on,0,0,5,,,,,,,,3,,,,78,92
43680,note_off,60,0,12,,,,,,,,13,,,,64,64
43680,note_off,60,0,2,,,,,,,,1,,,,73,64
43680,note_on,0,0,1,,,,,,,,0,,,,78,92
43680,note_off,240,0,9,,,,,,,,5,,,,64,64
43680,note_off,480,0,14,,,,,,,,15,,,,45,64
43680,note_on,0,0,14,,,,,,,,15,,,,50,92
43680,note_off,60,0,10,,,,,,,,11,,,,76,64
43680,note_on,0,0,10,,,,,,,,11,,,,78,92
43680,note_off,480,0,13,,,,,,,,14,,,,57,64
43680,note_on,0,0,13,,,,,,,,14,,,,62,92
43680,note_off,120,0,1,,,,,,,,0,,,,79,64
43680,note_on,0,0,3,,,,,,,,2,,,,78,92
43680,note_on,0,0,11,,,,,,,,12,,,,74,92
43680,note_on,0,0,7,,,,,,,,4,,,,62,92
43680,note_off,480,0,7,,,,,,,,4,,,,57,64
43680,note_on,0,0,9,,,,,,,,5,,,,62,92
43680,note_off,60,0,11,,,,,,,,12,,,,73,64
43915,note_off,235,0,11,,,,,,,,12,,,,74,64
43915,note_off,235,0,9,,,,,,,,5,,,,62,64
43915,note_off,235,0,8,,,,,,,,5,,,,66,64
43915,note_off,235,0,3,,,,,,,,2,,,,78,64
43915,note_off,235,0,5,,,,,,,,3,,,,78,64
43915,note_off,235,0,13,,,,,,,,14,,,,62,64
43915,note_off,235,0,10,,,,,,,,11,,,,78,64
43915,note_off,235,0,7,,,,,,,,4,,,,62,64
43915,note_off,235,0,14,,,,,,,,15,,,,50,64
43915,note_off,235,0,1,,,,,,,,0,,,,78,64
43915,note_off,235,0,12,,,,,,,,13,,,,66,64
43915,note_off,235,0,2,,,,,,,,1,,,,74,64
43915,note_off,235,0,4,,,,,,,,2,,,,74,64
43915,note_off,235,0,6,,,,,,,,3,,,,74,64
43920,note_on,5,0,8,,,,,,,,5,,,,64,92
43920,note_on,5,0,4,,,,,,,,2,,,,73,92
43920,note_on,5,0,9,,,,,,,,5,,,,57,92
43920,note_on,5,0,7,,,,,,,,4,,,,57,92
43920,note_on,5,0,10,,,,,,,,11,,,,76,92
43920,note_on,5,0,12,,,,,,,,13,,,,64,92
43920,set_tempo,720,1,0,1304347,,,,,,,,,,,,
43920,note_on,5,0,6,,,,,,,,3,,,,73,92
43920,note_on,5,0,3,,,,,,,,2,,,,76,92
43920,note_on,5,0,14,,,,,,,,15,,,,45,92
43920,note_on,5,0,5,,,,,,,,3,,,,76,92
43920,note_on,5,0,11,,,,,,,,12,,,,73,92
43920,note_on,5,0,13,,,,,,,,14,,,,57,92
43920,note_on,5,0,1,,,,,,,,0,,,,76,92
43920,note_on,5,0,2,,,,,,,,1,,,,73,92
44160,note_off,240,0,4,,,,,,,,2,,,,73,64
44160,note_on,0,0,2,,,,,,,,1,,,,69,92
44160,note_on,0,0,4,,,,,,,,2,,,,69,92
44160,note_off,240,0,6,,,,,,,,3,,,,73,64
44160,note_on,0,0,6,,,,,,,,3,,,,69,92
44160,note_off,240,0,11,,,,,,,,12,,,,73,64
44160,note_on,0,0,11,,,,,,,,12,,,,69,92
44160,note_off,240,0,2,,,,,,,,1,,,,73,64
44280,note_on,0,0,8,,,,,,,,5,,,,66,92
44280,note_off,360,0,10,,,,,,,,11,,,,76,64
44280,note_on,0,0,10,,,,,,,,11,,,,78,92
44280,set_tempo,360,1,0,1395348,,,,,,,,,,,,
44280,note_off,360,0,8,,,,,,,,5,,,,64,64
44280,note_on,0,0,3,,,,,,,,2,,,,78,92
44280,note_off,360,0,3,,,,,,,,2,,,,76,64
44280,note_on,0,0,1,,,,,,,,0,,,,78,92
44280,note_off,360,0,1,,,,,,,,0,,,,76,64
44280,note_on,0,0,5,,,,,,,,3,,,,78,92
44280,note_on,0,0,12,,,,,,,,13,,,,66,92
44280,note_off,360,0,12,,,,,,,,13,,,,64,64
44280,note_off,360,0,5,,,,,,,,3,,,,76,64
44400,set_tempo,120,1,0,1463414,,,,,,,,,,,,
44400,note_on,0,0,7,,,,,,,,4,,,,59,92
44400,note_off,240,0,11,,,,,,,,12,,,,69,64
44400,note_on,0,0,10,,,,,,,,11,,,,74,92
44400,note_off,120,0,10,,,,,,,,11,,,,78,64
44400,note_on,0,0,12,,,,,,,,13,,,,62,92
44400,note_off,120,0,12,,,,,,,,13,,,,66,64
44400,note_on,0,0,8,,,,,,,,5,,,,62,92
44400,note_on,0,0,14,,,,,,,,15,,,,47,92
44400,note_off,120,0,8,,,,,,,,5,,,,66,64
44400,note_off,120,0,5,,,,,,,,3,,,,78,64
44400,note_off,120,0,3,,,,,,,,2,,,,78,64
44400,note_on,0,0,5,,,,,,,,3,,,,74,92
44400,note_on,0,0,2,,,,,,,,1,,,,66,92
44400,note_off,240,0,2,,,,,,,,1,,,,69,64
44400,note_off,480,0,7,,,,,,,,4,,,,57,64
44400,note_off,480,0,14,,,,,,,,15,,,,45,64
44400,note_off,480,0,13,,,,,,,,14,,,,57,64
44400,note_on,0,0,13,,,,,,,,14,,,,59,92
44400,note_on,0,0,11,,,,,,,,12,,,,66,92
44400,note_off,240,0,6,,,,,,,,3,,,,69,64
44400,note_off,240,0,4,,,,,,,,2,,,,69,64
44400,note_on,0,0,6,,,,,,,,3,,,,66,92
44400,note_on,0,0,3,,,,,,,,2,,,,74,92
44400,note_on,0,0,9,,,,,,,,5,,,,54,92
44400,note_off,480,0,9,,,,,,,,5,,,,57,64
44400,note_on,0,0,4,,,,,,,,2,,,,66,92
44400,note_off,120,0,1,,,,,,,,0,,,,78,64
44400,note_on,0,0,1,,,,,,,,0,,,,74,92
44635,note_off,235,0,6,,,,,,,,3,,,,66,64
44635,note_off,235,0,11,,,,,,,,12,,,,66,64
44635,note_off,235,0,14,,,,,,,,15,,,,47,64
44635,note_off,235,0,13,,,,,,,,14,,,,59,64
44635,note_off,235,0,10,,,,,,,,11,,,,74,64
44635,note_off,235,0,2,,,,,,,,1,,,,66,64
44635,note_off,235,0,9,,,,,,,,5,,,,54,64
44635,note_off,235,0,1,,,,,,,,0,,,,74,64
44635,note_off,235,0,5,,,,,,,,3,,,,74,64
44635,note_off,235,0,4,,,,,,,,2,,,,66,64
44635,note_off,235,0,3,,,,,,,,2,,,,74,64
44635,note_off,235,0,12,,,,,,,,13,,,,62,64
44635,note_off,235,0,7,,,,,,,,4,,,,59,64
44635,note_off,235,0,8,,,,,,,,5,,,,62,64
44640,note_on,5,0,1,,,,,,,,0,,,,79,92
44640,note_on,5,0,9,,,,,,,,5,,,,64,92
44640,set_tempo,240,1,0,1578947,,,,,,,,,,,,
44640,note_on,5,0,5,,,,,,,,3,,,,79,92
44640,note_on,5,0,2,,,,,,,,1,,,,71,92
44640,note_on,5,0,4,,,,,,,,2,,,,71,92
44640,note_on,5,0,11,,,,,,,,12,,,,71,92
44640,note_on,5,0,3,,,,,,,,2,,,,79,92
44640,note_on,5,0,12,,,,,,,,13,,,,67,92
44640,note_on,5,0,6,,,,,,,,3,,,,71,92
44640,note_on,5,0,13,,,,,,,,14,,,,55,92
44640,note_on,5,0,8,,,,,,,,5,,,,67,92
44640,note_on,5,0,7,,,,,,,,4,,,,55,92
44640,note_on,5,0,14,,,,,,,,15,,,,43,92
44640,note_on,5,0,10,,,,,,,,11,,,,79,92
44880,note_off,240,0,1,,,,,,,,0,,,,79,64
44880,note_off,240,0,6,,,,,,,,3,,,,71,64
44880,note_on,0,0,12,,,,,,,,13,,,,64,92
44880,set_tempo,240,1,0,2000000,,,,,,,,,,,,
44880,note_off,240,0,7,,,,,,,,4,,,,55,64
44880,note_on,0,0,5,,,,,,,,3,,,,76,92
44880,note_off,240,0,5,,,,,,,,3,,,,79,64
44880,note_on,0,0,14,,,,,,,,15,,,,45,92
44880,note_off,240,0,14,,,,,,,,15,,,,43,64
44880,note_on,0,0,13,,,,,,,,14,,,,57,92
44880,note_on,0,0,7,,,,,,,,4,,,,57,92
44880,note_on,0,0,3,,,,,,,,2,,,,76,92
44880,note_on,0,0,1,,,,,,,,0,,,,76,92
44880,note_off,240,0,3,,,,,,,,2,,,,79,64
44880,note_off,240,0,13,,,,,,,,14,,,,55,64
44880,note_off,240,0,9,,,,,,,,5,,,,64,64
44880,note_off,240,0,4,,,,,,,,2,,,,71,64
44880,note_on,0,0,8,,,,,,,,5,,,,64,92
44880,note_off,240,0,12,,,,,,,,13,,,,67,64
44880,note_on,0,0,11,,,,,,,,12,,,,73,92
44880,note_on,0,0,10,,,,,,,,11,,,,76,92
44880,note_off,240,0,8,,,,,,,,5,,,,67,64
44880,note_on,0,0,4,,,,,,,,2,,,,73,92
44880,note_off,240,0,10,,,,,,,,11,,,,79,64
44880,note_on,0,0,9,,,,,,,,5,,,,57,92
44880,note_off,240,0,2,,,,,,,,1,,,,71,64
44880,note_on,0,0,2,,,,,,,,1,,,,73,92
44880,note_off,240,0,11,,,,,,,,12,,,,71,64
44880,note_on,0,0,6,,,,,,,,3,,,,73,92
45120,note_on,0,0,7,,,,,,,,4,,,,45,92
45120,note_off,240,0,14,,,,,,,,15,,,,45,64
45120,note_on,0,0,13,,,,,,,,14,,,,45,92
45120,note_on,0,0,14,,,,,,,,15,,,,33,92
45120,note_off,240,0,13,,,,,,,,14,,,,57,64
45120,note_off,240,0,7,,,,,,,,4,,,,57,64
45240,note_off,360,0,8,,,,,,,,5,,,,64,64
45240,set_tempo,360,1,0,2727272,,,,,,,,,,,,
45240,note_on,0,0,8,,,,,,,,5,,,,62,92
45240,note_off,360,0,9,,,,,,,,5,,,,57,64
45240,note_on,0,0,9,,,,,,,,5,,,,57,92
45240,note_on,0,0,12,,,,,,,,13,,,,62,92
45240,note_on,0,0,2,,,,,,,,1,,,,69,92
45240,note_off,360,0,10,,,,,,,,11,,,,76,64
45240,note_off,360,0,4,,,,,,,,2,,,,73,64
45240,note_on,0,0,4,,,,,,,,2,,,,69,92
45240,note_on,0,0,6,,,,,,,,3,,,,69,92
45240,note_on,0,0,11,,,,,,,,12,,,,69,92
45240,note_off,360,0,2,,,,,,,,1,,,,73,64
45240,note_off,360,0,12,,,,,,,,13,,,,64,64
45240,note_off,360,0,6,,,,,,,,3,,,,73,64
45240,note_on,0,0,3,,,,,,,,2,,,,74,92
45240,note_off,360,0,11,,,,,,,,12,,,,73,64
45240,note_on,0,0,1,,,,,,,,0,,,,74,92
45240,note_off,360,0,1,,,,,,,,0,,,,76,64
45240,note_on,0,0,5,,,,,,,,3,,,,74,92
45240,note_off,360,0,3,,,,,,,,2,,,,76,64
45240,note_off,360,0,5,,,,,,,,3,,,,76,64
45240,note_on,0,0,10,,,,,,,,11,,,,74,92
45355,note_off,235,0,13,,,,,,,,14,,,,45,64
45355,note_off,115,0,6,,,,,,,,3,,,,69,64
45355,note_off,235,0,7,,,,,,,,4,,,,45,64
45355,note_off,235,0,14,,,,,,,,15,,,,33,64
45355,note_off,115,0,9,,,,,,,,5,,,,57,64
45355,note_off,115,0,8,,,,,,,,5,,,,62,64
45355,note_off,115,0,10,,,,,,,,11,,,,74,64
45355,note_off,115,0,1,,,,,,,,0,,,,74,64
45355,note_off,115,0,12,,,,,,,,13,,,,62,64
45355,note_off,115,0,2,,,,,,,,1,,,,69,64
45355,note_off,115,0,5,,,,,,,,3,,,,74,64
45355,note_off,115,0,11,,,,,,,,12,,,,69,64
45355,note_off,115,0,3,,,,,,,,2,,,,74,64
45355,note_off,115,0,4,,,,,,,,2,,,,69,64
45360,note_on,5,0,10,,,,,,,,11,,,,74,92
45360,note_on,5,0,9,,,,,,,,5,,,,54,92
45360,end_of_track,0,1,0,,,,,,,,,,,,,
45360,set_tempo,120,1,0,3000000,,,,,,,,,,,,
45360,note_on,5,0,8,,,,,,,,5,,,,62,92
45360,note_on,5,0,5,,,,,,,,3,,,,74,92
45360,note_on,5,0,3,,,,,,,,2,,,,74,92
45360,note_on,5,0,13,,,,,,,,14,,,,50,92
45360,note_on,5,0,1,,,,,,,,0,,,,74,92
45360,note_on,5,0,2,,,,,,,,1,,,,69,92
45360,note_on,5,0,11,,,,,,,,12,,,,69,92
45360,note_on,5,0,6,,,,,,,,3,,,,69,92
45360,note_on,5,0,4,,,,,,,,2,,,,69,92
45360,note_on,5,0,7,,,,,,,,4,,,,50,92
45360,note_on,5,0,14,,,,,,,,15,,,,38,92
45360,note_on,5,0,12,,,,,,,,13,,,,62,92
46000,note_off,640,0,9,,,,,,,,5,,,,54,64
46000,note_off,640,0,13,,,,,,,,14,,,,50,64
46000,end_of_track,0,1,8,,,,,,,,,,,,,
46000,note_off,640,0,8,,,,,,,,5,,,,62,64
46000,note_off,640,0,10,,,,,,,,11,,,,74,64
46000,end_of_track,0,1,10,,,,,,,,,,,,,
46000,end_of_track,0,1,7,,,,,,,,,,,,,
46000,note_off,640,0,7,,,,,,,,4,,,,50,64
46000,end_of_track,0,1,6,,,,,,,,,,,,,
46000,note_off,640,0,6,,,,,,,,3,,,,69,64
46000,note_off,640,0,14,,,,,,,,15,,,,38,64
46000,end_of_track,0,1,5,,,,,,,,,,,,,
46000,note_off,640,0,5,,,,,,,,3,,,,74,64
46000,end_of_track,0,1,13,,,,,,,,,,,,,
46000,note_off,640,0,11,,,,,,,,12,,,,69,64
46000,end_of_track,0,1,4,,,,,,,,,,,,,
46000,note_off,640,0,4,,,,,,,,2,,,,69,64
46000,end_of_track,0,1,9,,,,,,,,,,,,,
46000,end_of_track,0,1,3,,,,,,,,,,,,,
46000,note_off,640,0,3,,,,,,,,2,,,,74,64
46000,note_off,640,0,12,,,,,,,,13,,,,62,64
46000,end_of_track,0,1,12,,,,,,,,,,,,,
46000,end_of_track,0,1,2,,,,,,,,,,,,,
46000,note_off,640,0,2,,,,,,,,1,,,,69,64
46000,end_of_track,0,1,1,,,,,,,,,,,,,
46000,note_off,640,0,1,,,,,,,,0,,,,74,64
46000,end_of_track,0,1,11,,,,,,,,,,,,,
46000,end_of_track,0,1,14,,,,,,,,,,,,,
