tick,type,time,meta,track,tempo,numerator,denominator,clocks_per_click,notated_32nd_notes_per_beat,key,port,channel,control,value,program,note,velocity
0,text,0,1,0,,,,,,,,,,,,,
0,control_change,0,0,9,,,,,,,,5,10,35,,,
0,control_change,0,0,9,,,,,,,,5,91,49,,,
0,program_change,0,0,9,,,,,,,,5,,,60,,
0,control_change,0,0,20,,,,,,,,13,91,127,,,
0,program_change,0,0,20,,,,,,,,13,,,48,,
0,program_change,0,0,15,,,,,,,,7,,,57,,
0,control_change,0,0,15,,,,,,,,7,91,55,,,
0,control_change,0,0,15,,,,,,,,7,10,85,,,
0,control_change,0,0,15,,,,,,,,7,7,121,,,
0,channel_prefix,0,1,15,,,,,,,,7,,,,,
0,midi_port,0,1,15,,,,,,,0,,,,,,
0,midi_port,0,1,10,,,,,,,0,,,,,,
0,channel_prefix,0,1,10,,,,,,,,5,,,,,
0,program_change,0,0,12,,,,,,,,6,,,56,,
0,control_change,0,0,12,,,,,,,,6,91,54,,,
0,control_change,0,0,12,,,,,,,,6,10,60,,,
0,control_change,0,0,12,,,,,,,,6,7,121,,,
0,control_change,0,0,9,,,,,,,,5,7,127,,,
0,channel_prefix,0,1,12,,,,,,,,6,,,,,
0,channel_prefix,0,1,9,,,,,,,,5,,,,,
0,control_change,0,0,20,,,,,,,,13,10,75,,,
0,program_change,0,0,2,,,,,,,,0,,,73,,
0,program_change,0,0,16,,,,,,,,8,,,58,,
0,control_change,0,0,16,,,,,,,,8,91,53,,,
0,control_change,0,0,16,,,,,,,,8,10,111,,,
0,control_change,0,0,16,,,,,,,,8,7,121,,,
0,channel_prefix,0,1,16,,,,,,,,8,,,,,
0,midi_port,0,1,16,,,,,,,0,,,,,,
0,control_change,0,0,3,,,,,,,,2,91,51,,,
0,program_change,0,0,5,,,,,,,,3,,,71,,
0,control_change,0,0,5,,,,,,,,3,91,55,,,
0,control_change,0,0,5,,,,,,,,3,10,48,,,
0,control_change,0,0,5,,,,,,,,3,7,119,,,
0,channel_prefix,0,1,5,,,,,,,,3,,,,,
0,midi_port,0,1,5,,,,,,,0,,,,,,
0,midi_port,0,1,20,,,,,,,0,,,,,,
0,channel_prefix,0,1,20,,,,,,,,13,,,,,
0,control_change,0,0,20,,,,,,,,13,7,120,,,
0,midi_port,0,1,9,,,,,,,0,,,,,,
0,control_change,0,0,2,,,,,,,,0,91,53,,,
0,midi_port,0,1,12,,,,,,,0,,,,,,
0,channel_prefix,0,1,13,,,,,,,,7,,,,,
0,note_on,0,0,21,,,,,,,,14,,,,50,92
0,program_change,0,0,14,,,,,,,,7,,,57,,
0,control_change,0,0,14,,,,,,,,7,91,55,,,
0,control_change,0,0,14,,,,,,,,7,10,85,,,
0,control_change,0,0,14,,,,,,,,7,7,121,,,
0,channel_prefix,0,1,14,,,,,,,,7,,,,,
0,midi_port,0,1,14,,,,,,,0,,,,,,
0,midi_port,0,1,11,,,,,,,0,,,,,,
0,channel_prefix,0,1,11,,,,,,,,6,,,,,
0,control_change,0,0,11,,,,,,,,6,7,121,,,
0,control_change,0,0,11,,,,,,,,6,10,60,,,
0,control_change,0,0,11,,,,,,,,6,91,54,,,
0,program_change,0,0,11,,,,,,,,6,,,56,,
0,midi_port,0,1,3,,,,,,,0,,,,,,
0,channel_prefix,0,1,3,,,,,,,,2,,,,,
0,control_change,0,0,3,,,,,,,,2,7,121,,,
0,control_change,0,0,3,,,,,,,,2,10,80,,,
0,program_change,0,0,21,,,,,,,,14,,,48,,
0,midi_port,0,1,13,,,,,,,0,,,,,,
0,control_change,0,0,21,,,,,,,,14,91,124,,,
0,control_change,0,0,21,,,,,,,,14,7,121,,,
0,control_change,0,0,13,,,,,,,,7,7,121,,,
0,control_change,0,0,13,,,,,,,,7,10,85,,,
0,control_change,0,0,13,,,,,,,,7,91,55,,,
0,program_change,0,0,13,,,,,,,,7,,,57,,
0,control_change,0,0,10,,,,,,,,5,7,127,,,
0,control_change,0,0,10,,,,,,,,5,10,35,,,
0,control_change,0,0,10,,,,,,,,5,91,49,,,
0,program_change,0,0,10,,,,,,,,5,,,60,,
0,program_change,0,0,4,,,,,,,,2,,,68,,
0,control_change,0,0,4,,,,,,,,2,91,51,,,
0,control_change,0,0,4,,,,,,,,2,10,80,,,
0,control_change,0,0,4,,,,,,,,2,7,121,,,
0,channel_prefix,0,1,4,,,,,,,,2,,,,,
0,midi_port,0,1,4,,,,,,,0,,,,,,
0,track_name,0,1,4,,,,,,,,,,,,,
0,midi_port,0,1,21,,,,,,,0,,,,,,
0,channel_prefix,0,1,21,,,,,,,,14,,,,,
0,control_change,0,0,21,,,,,,,,14,10,100,,,
0,control_change,0,0,2,,,,,,,,0,10,44,,,
0,program_change,0,0,3,,,,,,,,2,,,68,,
0,channel_prefix,0,1,2,,,,,,,,0,,,,,
0,control_change,0,0,6,,,,,,,,3,10,48,,,
0,track_name,0,1,1,,,,,,,,,,,,,
0,midi_port,0,1,1,,,,,,,0,,,,,,
0,channel_prefix,0,1,1,,,,,,,,0,,,,,
0,control_change,0,0,1,,,,,,,,0,7,119,,,
0,control_change,0,0,1,,,,,,,,0,10,44,,,
0,control_change,0,0,1,,,,,,,,0,91,53,,,
0,control_change,0,0,6,,,,,,,,3,91,55,,,
0,control_change,0,0,2,,,,,,,,0,7,119,,,
0,control_change,0,0,17,,,,,,,,10,91,51,,,
0,control_change,0,0,17,,,,,,,,10,10,5,,,
0,control_change,0,0,17,,,,,,,,10,7,119,,,
0,channel_prefix,0,1,17,,,,,,,,10,,,,,
0,midi_port,0,1,17,,,,,,,0,,,,,,
0,midi_port,0,1,8,,,,,,,0,,,,,,
0,channel_prefix,0,1,8,,,,,,,,4,,,,,
0,program_change,0,0,17,,,,,,,,10,,,47,,
0,control_change,0,0,8,,,,,,,,4,7,121,,,
0,program_change,0,0,6,,,,,,,,3,,,71,,
0,program_change,0,0,7,,,,,,,,4,,,70,,
0,track_name,0,1,0,,,,,,,,,,,,,
0,copyright,0,1,0,,,,,,,,,,,,,
0,set_tempo,0,1,0,1000000,,,,,,,,,,,,
0,time_signature,0,1,0,,4,4,24,8,,,,,,,,
0,key_signature,0,1,0,,,,,,D,,,,,,,
0,program_change,0,0,18,,,,,,,,11,,,48,,
0,control_change,0,0,18,,,,,,,,11,91,127,,,
0,note_on,0,0,7,,,,,,,,4,,,,62,92
0,control_change,0,0,18,,,,,,,,11,10,45,,,
0,channel_prefix,0,1,18,,,,,,,,11,,,,,
0,midi_port,0,1,18,,,,,,,0,,,,,,
0,midi_port,0,1,7,,,,,,,0,,,,,,
0,channel_prefix,0,1,7,,,,,,,,4,,,,,
0,control_change,0,0,7,,,,,,,,4,7,121,,,
0,control_change,0,0,7,,,,,,,,4,10,70,,,
0,control_change,0,0,7,,,,,,,,4,91,51,,,
0,control_change,0,0,18,,,,,,,,11,7,127,,,
0,control_change,0,0,8,,,,,,,,4,10,70,,,
0,program_change,0,0,1,,,,,,,,0,,,73,,
0,program_change,0,0,8,,,,,,,,4,,,70,,
0,control_change,0,0,22,,,,,,,,15,91,119,,,
0,program_change,0,0,22,,,,,,,,15,,,48,,
0,note_on,0,0,22,,,,,,,,15,,,,50,92
0,note_on,0,0,16,,,,,,,,8,,,,50,92
0,channel_prefix,0,1,22,,,,,,,,15,,,,,
0,control_change,0,0,8,,,,,,,,4,91,51,,,
0,program_change,0,0,19,,,,,,,,12,,,48,,
0,control_change,0,0,19,,,,,,,,12,91,124,,,
0,control_change,0,0,19,,,,,,,,12,10,15,,,
0,control_change,0,0,22,,,,,,,,15,10,120,,,
0,midi_port,0,1,22,,,,,,,0,,,,,,
0,control_change,0,0,19,,,,,,,,12,7,120,,,
0,channel_prefix,0,1,19,,,,,,,,12,,,,,
0,midi_port,0,1,19,,,,,,,0,,,,,,
0,control_change,0,0,22,,,,,,,,15,7,121,,,
0,midi_port,0,1,6,,,,,,,0,,,,,,
0,channel_prefix,0,1,6,,,,,,,,3,,,,,
0,note_on,0,0,8,,,,,,,,4,,,,50,92
0,midi_port,0,1,2,,,,,,,0,,,,,,
0,track_name,0,1,2,,,,,,,,,,,,,
0,control_change,0,0,6,,,,,,,,3,7,119,,,
0,track_name,0,1,6,,,,,,,,,,,,,
840,note_off,840,0,7,,,,,,,,4,,,,62,64
840,note_off,840,0,21,,,,,,,,14,,,,50,64
840,note_off,840,0,16,,,,,,,,8,,,,50,64
840,note_off,840,0,22,,,,,,,,15,,,,50,64
840,note_off,840,0,8,,,,,,,,4,,,,50,64
960,note_on,960,0,14,,,,,,,,7,,,,50,92
960,note_on,960,0,5,,,,,,,,3,,,,69,92
960,note_on,960,0,18,,,,,,,,11,,,,69,108
960,note_on,120,0,21,,,,,,,,14,,,,50,92
960,note_on,960,0,12,,,,,,,,6,,,,66,92
960,note_on,120,0,16,,,,,,,,8,,,,38,92
960,note_on,120,0,8,,,,,,,,4,,,,38,92
960,note_on,960,0,15,,,,,,,,7,,,,50,92
960,note_on,960,0,13,,,,,,,,7,,,,54,92
960,note_on,960,0,19,,,,,,,,12,,,,66,92
960,note_on,120,0,7,,,,,,,,4,,,,50,92
960,note_on,960,0,6,,,,,,,,3,,,,66,92
960,note_on,960,0,20,,,,,,,,13,,,,62,92
960,note_on,960,0,2,,,,,,,,0,,,,66,92
960,note_on,960,0,17,,,,,,,,10,,,,50,92
960,note_on,960,0,4,,,,,,,,2,,,,66,92
960,note_on,960,0,3,,,,,,,,2,,,,69,92
960,note_on,960,0,1,,,,,,,,0,,,,69,92
960,note_on,960,0,10,,,,,,,,5,,,,54,92
960,note_on,120,0,22,,,,,,,,15,,,,38,92
960,note_on,960,0,9,,,,,,,,5,,,,57,92
960,note_on,960,0,11,,,,,,,,6,,,,69,92
1600,note_off,640,0,11,,,,,,,,6,,,,69,64
1600,note_off,640,0,18,,,,,,,,11,,,,69,64
1600,note_off,640,0,3,,,,,,,,2,,,,69,64
1600,note_off,640,0,7,,,,,,,,4,,,,50,64
1600,note_off,640,0,21,,,,,,,,14,,,,50,64
1600,note_off,640,0,16,,,,,,,,8,,,,38,64
1600,note_off,640,0,19,,,,,,,,12,,,,66,64
1600,note_off,640,0,6,,,,,,,,3,,,,66,64
1600,note_off,640,0,17,,,,,,,,10,,,,50,64
1600,note_off,640,0,4,,,,,,,,2,,,,66,64
1600,note_off,640,0,10,,,,,,,,5,,,,54,64
1600,note_off,640,0,9,,,,,,,,5,,,,57,64
1600,note_off,640,0,8,,,,,,,,4,,,,38,64
1600,note_off,640,0,20,,,,,,,,13,,,,62,64
1600,note_off,640,0,14,,,,,,,,7,,,,50,64
1600,note_off,640,0,5,,,,,,,,3,,,,69,64
1600,note_off,640,0,15,,,,,,,,7,,,,50,64
1600,note_off,640,0,13,,,,,,,,7,,,,54,64
1600,note_off,640,0,22,,,,,,,,15,,,,38,64
1600,note_off,640,0,2,,,,,,,,0,,,,66,64
1600,note_off,640,0,1,,,,,,,,0,,,,69,64
1600,note_off,640,0,12,,,,,,,,6,,,,66,64
1680,note_on,80,0,17,,,,,,,,10,,,,50,92
1680,note_on,80,0,22,,,,,,,,15,,,,38,92
1680,note_on,80,0,15,,,,,,,,7,,,,50,92
1680,note_on,80,0,6,,,,,,,,3,,,,66,92
1680,note_on,80,0,1,,,,,,,,0,,,,69,92
1680,note_on,80,0,8,,,,,,,,4,,,,38,92
1680,note_on,80,0,4,,,,,,,,2,,,,66,92
1680,note_on,80,0,20,,,,,,,,13,,,,62,92
1680,note_on,80,0,12,,,,,,,,6,,,,66,92
1680,note_on,80,0,11,,,,,,,,6,,,,69,92
1680,note_on,80,0,9,,,,,,,,5,,,,57,92
1680,note_on,80,0,13,,,,,,,,7,,,,54,92
1680,note_on,80,0,3,,,,,,,,2,,,,69,92
1680,note_on,80,0,14,,,,,,,,7,,,,50,92
1680,note_on,80,0,16,,,,,,,,8,,,,38,92
1680,note_on,80,0,2,,,,,,,,0,,,,66,92
1680,note_on,80,0,10,,,,,,,,5,,,,54,92
1680,note_on,80,0,7,,,,,,,,4,,,,50,92
1680,note_on,80,0,19,,,,,,,,12,,,,66,92
1680,note_on,80,0,21,,,,,,,,14,,,,50,92
1680,note_on,80,0,5,,,,,,,,3,,,,69,92
1680,note_on,80,0,18,,,,,,,,11,,,,69,108
1915,note_off,235,0,19,,,,,,,,12,,,,66,64
1915,note_off,235,0,5,,,,,,,,3,,,,69,64
1915,note_off,235,0,1,,,,,,,,0,,,,69,64
1915,note_off,235,0,2,,,,,,,,0,,,,66,64
1915,note_off,235,0,9,,,,,,,,5,,,,57,64
1915,note_off,235,0,16,,,,,,,,8,,,,38,64
1915,note_off,235,0,21,,,,,,,,14,,,,50,64
1915,note_off,235,0,11,,,,,,,,6,,,,69,64
1915,note_off,235,0,14,,,,,,,,7,,,,50,64
1915,note_off,235,0,8,,,,,,,,4,,,,38,64
1915,note_off,235,0,20,,,,,,,,13,,,,62,64
1915,note_off,235,0,17,,,,,,,,10,,,,50,64
1915,note_off,235,0,3,,,,,,,,2,,,,69,64
1915,note_off,235,0,22,,,,,,,,15,,,,38,64
1915,note_off,235,0,18,,,,,,,,11,,,,69,64
1915,note_off,235,0,15,,,,,,,,7,,,,50,64
1915,note_off,235,0,6,,,,,,,,3,,,,66,64
1915,note_off,235,0,4,,,,,,,,2,,,,66,64
1915,note_off,235,0,10,,,,,,,,5,,,,54,64
1915,note_off,235,0,7,,,,,,,,4,,,,50,64
1915,note_off,235,0,12,,,,,,,,6,,,,66,64
1915,note_off,235,0,13,,,,,,,,7,,,,54,64
1920,note_on,5,0,17,,,,,,,,10,,,,50,92
1920,note_on,5,0,18,,,,,,,,11,,,,74,108
1920,note_on,5,0,5,,,,,,,,3,,,,74,92
1920,note_on,5,0,2,,,,,,,,0,,,,69,92
1920,note_on,5,0,19,,,,,,,,12,,,,69,92
1920,note_on,5,0,10,,,,,,,,5,,,,57,92
1920,note_on,5,0,3,,,,,,,,2,,,,74,92
1920,note_on,5,0,16,,,,,,,,8,,,,42,92
1920,note_on,5,0,13,,,,,,,,7,,,,57,92
1920,note_on,5,0,7,,,,,,,,4,,,,54,92
1920,note_on,5,0,11,,,,,,,,6,,,,74,92
1920,note_on,5,0,14,,,,,,,,7,,,,54,92
1920,note_on,5,0,9,,,,,,,,5,,,,62,92
1920,note_on,5,0,15,,,,,,,,7,,,,54,92
1920,note_on,5,0,4,,,,,,,,2,,,,69,92
1920,note_on,5,0,8,,,,,,,,4,,,,42,92
1920,note_on,5,0,12,,,,,,,,6,,,,69,92
1920,note_on,5,0,20,,,,,,,,13,,,,62,92
1920,note_on,5,0,22,,,,,,,,15,,,,42,92
1920,note_on,5,0,21,,,,,,,,14,,,,54,92
1920,note_on,5,0,6,,,,,,,,3,,,,69,92
1920,note_on,5,0,1,,,,,,,,0,,,,74,92
2560,note_off,640,0,16,,,,,,,,8,,,,42,64
2560,note_off,640,0,12,,,,,,,,6,,,,69,64
2560,note_off,640,0,10,,,,,,,,5,,,,57,64
2560,note_off,640,0,15,,,,,,,,7,,,,54,64
2560,note_off,640,0,4,,,,,,,,2,,,,69,64
2560,note_off,640,0,21,,,,,,,,14,,,,54,64
2560,note_off,640,0,20,,,,,,,,13,,,,62,64
2560,note_off,640,0,5,,,,,,,,3,,,,74,64
2560,note_off,640,0,9,,,,,,,,5,,,,62,64
2560,note_off,640,0,13,,,,,,,,7,,,,57,64
2560,note_off,640,0,2,,,,,,,,0,,,,69,64
2560,note_off,640,0,14,,,,,,,,7,,,,54,64
2560,note_off,640,0,19,,,,,,,,12,,,,69,64
2560,note_off,640,0,3,,,,,,,,2,,,,74,64
2560,note_off,640,0,1,,,,,,,,0,,,,74,64
2560,note_off,640,0,8,,,,,,,,4,,,,42,64
2560,note_off,640,0,18,,,,,,,,11,,,,74,64
2560,note_off,640,0,7,,,,,,,,4,,,,54,64
2560,note_off,640,0,17,,,,,,,,10,,,,50,64
2560,note_off,640,0,6,,,,,,,,3,,,,69,64
2560,note_off,640,0,11,,,,,,,,6,,,,74,64
2560,note_off,640,0,22,,,,,,,,15,,,,42,64
2640,note_on,80,0,21,,,,,,,,14,,,,54,92
2640,note_on,80,0,1,,,,,,,,0,,,,74,92
2640,note_on,80,0,17,,,,,,,,10,,,,50,92
2640,note_on,80,0,15,,,,,,,,7,,,,54,92
2640,note_on,80,0,14,,,,,,,,7,,,,54,92
2640,note_on,80,0,12,,,,,,,,6,,,,69,92
2640,note_on,80,0,6,,,,,,,,3,,,,69,92
2640,note_on,80,0,4,,,,,,,,2,,,,69,92
2640,note_on,80,0,7,,,,,,,,4,,,,54,92
2640,note_on,80,0,18,,,,,,,,11,,,,74,108
2640,note_on,80,0,13,,,,,,,,7,,,,57,92
2640,note_on,80,0,3,,,,,,,,2,,,,74,92
2640,note_on,80,0,10,,,,,,,,5,,,,57,92
2640,note_on,80,0,22,,,,,,,,15,,,,42,92
2640,note_on,80,0,9,,,,,,,,5,,,,62,92
2640,note_on,80,0,20,,,,,,,,13,,,,62,92
2640,note_on,80,0,11,,,,,,,,6,,,,74,92
2640,note_on,80,0,16,,,,,,,,8,,,,42,92
2640,note_on,80,0,19,,,,,,,,12,,,,69,92
2640,note_on,80,0,5,,,,,,,,3,,,,74,92
2640,note_on,80,0,8,,,,,,,,4,,,,42,92
2640,note_on,80,0,2,,,,,,,,0,,,,69,92
2875,note_off,235,0,19,,,,,,,,12,,,,69,64
2875,note_off,235,0,13,,,,,,,,7,,,,57,64
2875,note_off,235,0,4,,,,,,,,2,,,,69,64
2875,note_off,235,0,22,,,,,,,,15,,,,42,64
2875,note_off,235,0,11,,,,,,,,6,,,,74,64
2875,note_off,235,0,12,,,,,,,,6,,,,69,64
2875,note_off,235,0,7,,,,,,,,4,,,,54,64
2875,note_off,235,0,5,,,,,,,,3,,,,74,64
2875,note_off,235,0,17,,,,,,,,10,,,,50,64
2875,note_off,235,0,6,,,,,,,,3,,,,69,64
2875,note_off,235,0,15,,,,,,,,7,,,,54,64
2875,note_off,235,0,16,,,,,,,,8,,,,42,64
2875,note_off,235,0,18,,,,,,,,11,,,,74,64
2875,note_off,235,0,20,,,,,,,,13,,,,62,64
2875,note_off,235,0,1,,,,,,,,0,,,,74,64
2875,note_off,235,0,14,,,,,,,,7,,,,54,64
2875,note_off,235,0,21,,,,,,,,14,,,,54,64
2875,note_off,235,0,2,,,,,,,,0,,,,69,64
2875,note_off,235,0,9,,,,,,,,5,,,,62,64
2875,note_off,235,0,8,,,,,,,,4,,,,42,64
2875,note_off,235,0,10,,,,,,,,5,,,,57,64
2875,note_off,235,0,3,,,,,,,,2,,,,74,64
2880,note_on,5,0,22,,,,,,,,15,,,,45,92
2880,note_on,5,0,5,,,,,,,,3,,,,76,92
2880,note_on,5,0,3,,,,,,,,2,,,,76,92
2880,note_on,5,0,14,,,,,,,,7,,,,57,92
2880,note_on,5,0,16,,,,,,,,8,,,,45,92
2880,note_on,5,0,4,,,,,,,,2,,,,73,92
2880,note_on,5,0,19,,,,,,,,12,,,,73,92
2880,note_on,5,0,7,,,,,,,,4,,,,57,92
2880,note_on,5,0,1,,,,,,,,0,,,,76,92
2880,note_on,5,0,6,,,,,,,,3,,,,73,92
2880,note_on,5,0,21,,,,,,,,14,,,,57,92
2880,note_on,5,0,2,,,,,,,,0,,,,73,92
2880,note_on,5,0,11,,,,,,,,6,,,,76,92
2880,note_on,5,0,20,,,,,,,,13,,,,69,92
2880,note_on,5,0,15,,,,,,,,7,,,,57,92
2880,note_on,5,0,8,,,,,,,,4,,,,45,92
2880,note_on,5,0,17,,,,,,,,10,,,,45,92
2880,note_on,5,0,10,,,,,,,,5,,,,57,92
2880,note_on,5,0,12,,,,,,,,6,,,,69,92
2880,note_on,5,0,9,,,,,,,,5,,,,64,92
2880,note_on,5,0,13,,,,,,,,7,,,,61,92
2880,note_on,5,0,18,,,,,,,,11,,,,76,108
3235,note_off,355,0,6,,,,,,,,3,,,,73,64
3235,note_off,355,0,5,,,,,,,,3,,,,76,64
3235,note_off,355,0,19,,,,,,,,12,,,,73,64
3235,note_off,355,0,1,,,,,,,,0,,,,76,64
3235,note_off,355,0,4,,,,,,,,2,,,,73,64
3235,note_off,355,0,2,,,,,,,,0,,,,73,64
3235,note_off,355,0,9,,,,,,,,5,,,,64,64
3235,note_off,355,0,18,,,,,,,,11,,,,76,64
3235,note_off,355,0,3,,,,,,,,2,,,,76,64
3235,note_off,355,0,11,,,,,,,,6,,,,76,64
3240,note_on,5,0,6,,,,,,,,3,,,,73,92
3240,note_on,5,0,1,,,,,,,,0,,,,76,92
3240,note_on,5,0,4,,,,,,,,2,,,,73,92
3240,note_on,5,0,3,,,,,,,,2,,,,76,92
3240,note_on,5,0,9,,,,,,,,5,,,,64,92
3240,note_on,5,0,2,,,,,,,,0,,,,73,92
3240,note_on,5,0,11,,,,,,,,6,,,,76,92
3240,note_on,5,0,5,,,,,,,,3,,,,76,92
3240,note_on,5,0,19,,,,,,,,12,,,,73,92
3240,note_on,5,0,18,,,,,,,,11,,,,76,108
3280,note_off,400,0,12,,,,,,,,6,,,,69,64
3280,note_off,400,0,10,,,,,,,,5,,,,57,64
3280,note_off,400,0,13,,,,,,,,7,,,,61,64
3355,note_off,115,0,6,,,,,,,,3,,,,73,64
3355,note_off,115,0,5,,,,,,,,3,,,,76,64
3355,note_off,115,0,9,,,,,,,,5,,,,64,64
3355,note_off,115,0,3,,,,,,,,2,,,,76,64
3355,note_off,115,0,19,,,,,,,,12,,,,73,64
3355,note_off,115,0,18,,,,,,,,11,,,,76,64
3355,note_off,115,0,1,,,,,,,,0,,,,76,64
3355,note_off,115,0,2,,,,,,,,0,,,,73,64
3355,note_off,115,0,11,,,,,,,,6,,,,76,64
3355,note_off,115,0,4,,,,,,,,2,,,,73,64
3360,note_on,5,0,19,,,,,,,,12,,,,73,92
3360,note_on,5,0,2,,,,,,,,0,,,,73,92
3360,note_on,5,0,5,,,,,,,,3,,,,76,92
3360,note_on,5,0,9,,,,,,,,5,,,,64,92
3360,note_on,5,0,1,,,,,,,,0,,,,76,92
3360,note_on,5,0,11,,,,,,,,6,,,,76,92
3360,note_on,80,0,10,,,,,,,,5,,,,57,92
3360,note_on,5,0,6,,,,,,,,3,,,,73,92
3360,note_on,5,0,18,,,,,,,,11,,,,76,108
3360,note_on,5,0,4,,,,,,,,2,,,,73,92
3360,note_on,5,0,3,,,,,,,,2,,,,76,92
3360,note_on,80,0,12,,,,,,,,6,,,,69,92
3360,note_on,80,0,13,,,,,,,,7,,,,61,92
3520,note_off,640,0,15,,,,,,,,7,,,,57,64
3520,note_off,640,0,14,,,,,,,,7,,,,57,64
3520,note_off,640,0,7,,,,,,,,4,,,,57,64
3520,note_off,640,0,8,,,,,,,,4,,,,45,64
3520,note_off,640,0,17,,,,,,,,10,,,,45,64
3520,note_off,640,0,21,,,,,,,,14,,,,57,64
3520,note_off,640,0,22,,,,,,,,15,,,,45,64
3520,note_off,640,0,20,,,,,,,,13,,,,69,64
3520,note_off,640,0,16,,,,,,,,8,,,,45,64
3595,note_off,235,0,19,,,,,,,,12,,,,73,64
3595,note_off,235,0,18,,,,,,,,11,,,,76,64
3595,note_off,235,0,5,,,,,,,,3,,,,76,64
3595,note_off,235,0,1,,,,,,,,0,,,,76,64
3595,note_off,235,0,3,,,,,,,,2,,,,76,64
3595,note_off,235,0,4,,,,,,,,2,,,,73,64
3595,note_off,235,0,11,,,,,,,,6,,,,76,64
3595,note_off,235,0,6,,,,,,,,3,,,,73,64
3595,note_off,235,0,9,,,,,,,,5,,,,64,64
3595,note_off,235,0,2,,,,,,,,0,,,,73,64
3600,note_on,80,0,16,,,,,,,,8,,,,45,92
3600,note_on,5,0,5,,,,,,,,3,,,,78,92
3600,note_on,5,0,2,,,,,,,,0,,,,74,92
3600,note_on,80,0,15,,,,,,,,7,,,,57,92
3600,note_on,80,0,8,,,,,,,,4,,,,45,92
3600,note_on,80,0,20,,,,,,,,13,,,,69,92
3600,note_on,5,0,1,,,,,,,,0,,,,78,92
3600,note_on,5,0,11,,,,,,,,6,,,,78,92
3600,note_on,80,0,17,,,,,,,,10,,,,45,92
3600,note_on,80,0,22,,,,,,,,15,,,,45,92
3600,note_on,5,0,3,,,,,,,,2,,,,78,92
3600,note_on,5,0,4,,,,,,,,2,,,,74,92
3600,note_on,5,0,6,,,,,,,,3,,,,74,92
3600,note_on,80,0,21,,,,,,,,14,,,,57,92
3600,note_on,5,0,9,,,,,,,,5,,,,66,92
3600,note_on,5,0,18,,,,,,,,11,,,,78,108
3600,note_on,80,0,7,,,,,,,,4,,,,57,92
3600,note_on,5,0,19,,,,,,,,12,,,,74,92
3600,note_on,80,0,14,,,,,,,,7,,,,57,92
3715,note_off,355,0,10,,,,,,,,5,,,,57,64
3720,note_off,120,0,1,,,,,,,,0,,,,78,64
3720,note_on,0,0,2,,,,,,,,0,,,,76,92
3720,note_off,120,0,5,,,,,,,,3,,,,78,64
3720,note_on,0,0,19,,,,,,,,12,,,,76,92
3720,note_off,120,0,19,,,,,,,,12,,,,74,64
3720,note_on,0,0,1,,,,,,,,0,,,,79,92
3720,note_off,120,0,9,,,,,,,,5,,,,66,64
3720,note_off,120,0,11,,,,,,,,6,,,,78,64
3720,note_on,0,0,11,,,,,,,,6,,,,79,92
3720,note_off,120,0,3,,,,,,,,2,,,,78,64
3720,note_off,120,0,6,,,,,,,,3,,,,74,64
3720,note_on,0,0,6,,,,,,,,3,,,,76,92
3720,note_on,0,0,3,,,,,,,,2,,,,79,92
3720,note_on,0,0,18,,,,,,,,11,,,,79,108
3720,note_off,120,0,18,,,,,,,,11,,,,78,64
3720,note_off,120,0,2,,,,,,,,0,,,,74,64
3720,note_on,0,0,9,,,,,,,,5,,,,67,92
3720,note_on,0,0,5,,,,,,,,3,,,,79,92
3720,note_on,0,0,13,,,,,,,,7,,,,64,92
3720,note_on,5,0,10,,,,,,,,5,,,,64,92
3720,note_off,360,0,12,,,,,,,,6,,,,69,64
3720,note_on,0,0,12,,,,,,,,6,,,,76,92
3720,note_off,360,0,13,,,,,,,,7,,,,61,64
3720,note_off,120,0,4,,,,,,,,2,,,,74,64
3720,note_on,0,0,4,,,,,,,,2,,,,76,92
3835,note_off,115,0,3,,,,,,,,2,,,,79,64
3835,note_off,235,0,16,,,,,,,,8,,,,45,64
3835,note_off,115,0,6,,,,,,,,3,,,,76,64
3835,note_off,115,0,13,,,,,,,,7,,,,64,64
3835,note_off,115,0,5,,,,,,,,3,,,,79,64
3835,note_off,115,0,19,,,,,,,,12,,,,76,64
3835,note_off,235,0,14,,,,,,,,7,,,,57,64
3835,note_off,115,0,4,,,,,,,,2,,,,76,64
3835,note_off,115,0,2,,,,,,,,0,,,,76,64
3835,note_off,115,0,12,,,,,,,,6,,,,76,64
3835,note_off,115,0,1,,,,,,,,0,,,,79,64
3835,note_off,235,0,17,,,,,,,,10,,,,45,64
3835,note_off,235,0,8,,,,,,,,4,,,,45,64
3835,note_off,115,0,11,,,,,,,,6,,,,79,64
3835,note_off,235,0,22,,,,,,,,15,,,,45,64
3835,note_off,115,0,18,,,,,,,,11,,,,79,64
3835,note_off,235,0,15,,,,,,,,7,,,,57,64
3835,note_off,235,0,21,,,,,,,,14,,,,57,64
3835,note_off,235,0,7,,,,,,,,4,,,,57,64
3835,note_off,115,0,9,,,,,,,,5,,,,67,64
3835,note_off,115,0,10,,,,,,,,5,,,,64,64
3835,note_off,235,0,20,,,,,,,,13,,,,69,64
3840,note_on,5,0,4,,,,,,,,2,,,,74,92
3840,note_on,5,0,15,,,,,,,,7,,,,54,92
3840,note_on,5,0,13,,,,,,,,7,,,,62,92
3840,note_on,5,0,18,,,,,,,,11,,,,78,108
3840,note_on,5,0,2,,,,,,,,0,,,,74,92
3840,note_on,5,0,19,,,,,,,,12,,,,74,92
3840,note_on,5,0,16,,,,,,,,8,,,,50,92
3840,note_on,5,0,22,,,,,,,,15,,,,50,92
3840,note_on,5,0,3,,,,,,,,2,,,,78,92
3840,note_on,5,0,14,,,,,,,,7,,,,57,92
3840,note_on,5,0,20,,,,,,,,13,,,,69,92
3840,note_on,5,0,1,,,,,,,,0,,,,78,92
3840,note_on,5,0,9,,,,,,,,5,,,,66,92
3840,note_on,5,0,10,,,,,,,,5,,,,62,92
3840,note_on,5,0,6,,,,,,,,3,,,,74,92
3840,note_on,5,0,11,,,,,,,,6,,,,78,92
3840,note_on,5,0,21,,,,,,,,14,,,,62,92
3840,note_on,5,0,12,,,,,,,,6,,,,74,92
3840,note_on,5,0,8,,,,,,,,4,,,,50,92
3840,note_on,5,0,17,,,,,,,,10,,,,50,92
3840,note_on,5,0,5,,,,,,,,3,,,,78,92
3840,note_on,5,0,7,,,,,,,,4,,,,62,92
4240,note_off,400,0,2,,,,,,,,0,,,,74,64
4240,note_off,400,0,3,,,,,,,,2,,,,78,64
4240,note_off,400,0,21,,,,,,,,14,,,,62,64
4240,note_off,400,0,15,,,,,,,,7,,,,54,64
4240,note_off,400,0,14,,,,,,,,7,,,,57,64
4240,note_off,400,0,13,,,,,,,,7,,,,62,64
4240,note_off,400,0,1,,,,,,,,0,,,,78,64
4240,note_off,400,0,9,,,,,,,,5,,,,66,64
4240,note_off,400,0,22,,,,,,,,15,,,,50,64
4240,note_off,400,0,5,,,,,,,,3,,,,78,64
4240,note_off,400,0,11,,,,,,,,6,,,,78,64
4240,note_off,400,0,19,,,,,,,,12,,,,74,64
4240,note_off,400,0,17,,,,,,,,10,,,,50,64
4240,note_off,400,0,10,,,,,,,,5,,,,62,64
4240,note_off,400,0,4,,,,,,,,2,,,,74,64
4240,note_off,400,0,6,,,,,,,,3,,,,74,64
4240,note_off,400,0,12,,,,,,,,6,,,,74,64
4240,note_off,400,0,18,,,,,,,,11,,,,78,64
4240,note_off,400,0,7,,,,,,,,4,,,,62,64
4240,note_off,400,0,8,,,,,,,,4,,,,50,64
4240,note_off,400,0,20,,,,,,,,13,,,,69,64
4240,note_off,400,0,16,,,,,,,,8,,,,50,64
4320,note_on,80,0,21,,,,,,,,14,,,,50,92
4320,note_on,80,0,13,,,,,,,,7,,,,57,92
4320,note_on,80,0,22,,,,,,,,15,,,,38,92
4320,note_on,80,0,9,,,,,,,,5,,,,64,92
4320,note_on,80,0,19,,,,,,,,12,,,,69,92
4320,note_on,80,0,4,,,,,,,,2,,,,69,92
4320,note_on,80,0,2,,,,,,,,0,,,,69,92
4320,note_on,80,0,17,,,,,,,,10,,,,50,92
4320,note_on,80,0,1,,,,,,,,0,,,,76,92
4320,note_on,80,0,8,,,,,,,,4,,,,38,92
4320,note_on,80,0,11,,,,,,,,6,,,,76,92
4320,note_on,80,0,15,,,,,,,,7,,,,50,92
4320,note_on,80,0,5,,,,,,,,3,,,,76,92
4320,note_on,80,0,6,,,,,,,,3,,,,69,92
4320,note_on,80,0,3,,,,,,,,2,,,,76,92
4320,note_on,80,0,18,,,,,,,,11,,,,76,108
4320,note_on,80,0,14,,,,,,,,7,,,,54,92
4320,note_on,80,0,10,,,,,,,,5,,,,57,92
4320,note_on,80,0,7,,,,,,,,4,,,,50,92
4320,note_on,80,0,12,,,,,,,,6,,,,69,92
4320,note_on,80,0,16,,,,,,,,8,,,,38,92
4320,note_on,80,0,20,,,,,,,,13,,,,66,92
4560,note_on,0,0,11,,,,,,,,6,,,,74,92
4560,note_on,0,0,18,,,,,,,,11,,,,74,108
4560,note_off,240,0,18,,,,,,,,11,,,,76,64
4560,note_on,0,0,9,,,,,,,,5,,,,62,92
4560,note_on,0,0,1,,,,,,,,0,,,,74,92
4560,note_off,240,0,1,,,,,,,,0,,,,76,64
4560,note_on,0,0,5,,,,,,,,3,,,,74,92
4560,note_off,240,0,5,,,,,,,,3,,,,76,64
4560,note_off,240,0,9,,,,,,,,5,,,,64,64
4560,note_off,240,0,11,,,,,,,,6,,,,76,64
4560,note_off,240,0,3,,,,,,,,2,,,,76,64
4560,note_on,0,0,3,,,,,,,,2,,,,74,92
4720,note_off,400,0,8,,,,,,,,4,,,,38,64
4720,note_off,400,0,19,,,,,,,,12,,,,69,64
4720,note_off,400,0,14,,,,,,,,7,,,,54,64
4720,note_off,400,0,21,,,,,,,,14,,,,50,64
4720,note_off,400,0,13,,,,,,,,7,,,,57,64
4720,note_off,400,0,15,,,,,,,,7,,,,50,64
4720,note_off,400,0,22,,,,,,,,15,,,,38,64
4720,note_off,400,0,6,,,,,,,,3,,,,69,64
4720,note_off,400,0,17,,,,,,,,10,,,,50,64
4720,note_off,400,0,20,,,,,,,,13,,,,66,64
4720,note_off,400,0,16,,,,,,,,8,,,,38,64
4720,note_off,400,0,12,,,,,,,,6,,,,69,64
4720,note_off,400,0,4,,,,,,,,2,,,,69,64
4720,note_off,400,0,10,,,,,,,,5,,,,57,64
4720,note_off,400,0,7,,,,,,,,4,,,,50,64
4720,note_off,400,0,2,,,,,,,,0,,,,69,64
4795,note_off,235,0,9,,,,,,,,5,,,,62,64
4795,note_off,235,0,11,,,,,,,,6,,,,74,64
4795,note_off,235,0,18,,,,,,,,11,,,,74,64
4795,note_off,235,0,1,,,,,,,,0,,,,74,64
4795,note_off,235,0,5,,,,,,,,3,,,,74,64
4795,note_off,235,0,3,,,,,,,,2,,,,74,64
4800,note_on,80,0,6,,,,,,,,3,,,,78,92
4800,note_on,80,0,13,,,,,,,,7,,,,62,92
4800,note_on,80,0,8,,,,,,,,4,,,,42,92
4800,note_on,5,0,18,,,,,,,,11,,,,81,108
4800,note_on,80,0,12,,,,,,,,6,,,,78,92
4800,note_on,80,0,22,,,,,,,,15,,,,42,92
4800,note_on,80,0,20,,,,,,,,13,,,,74,92
4800,note_on,5,0,5,,,,,,,,3,,,,81,92
4800,note_on,5,0,3,,,,,,,,2,,,,81,92
4800,note_on,5,0,11,,,,,,,,6,,,,81,92
4800,note_on,5,0,1,,,,,,,,0,,,,81,92
4800,note_on,80,0,16,,,,,,,,8,,,,42,92
4800,note_on,80,0,10,,,,,,,,5,,,,66,92
4800,note_on,80,0,17,,,,,,,,10,,,,50,92
4800,note_on,80,0,7,,,,,,,,4,,,,54,92
4800,note_on,80,0,2,,,,,,,,0,,,,78,92
4800,note_on,80,0,14,,,,,,,,7,,,,57,92
4800,note_on,80,0,4,,,,,,,,2,,,,78,92
4800,note_on,80,0,19,,,,,,,,12,,,,78,92
4800,note_on,80,0,21,,,,,,,,14,,,,54,92
4800,note_on,80,0,15,,,,,,,,7,,,,54,92
4800,note_on,5,0,9,,,,,,,,5,,,,69,92
5200,note_off,400,0,8,,,,,,,,4,,,,42,64
5200,note_off,400,0,17,,,,,,,,10,,,,50,64
5200,note_off,400,0,15,,,,,,,,7,,,,54,64
5200,note_off,400,0,7,,,,,,,,4,,,,54,64
5200,note_off,400,0,22,,,,,,,,15,,,,42,64
5200,note_off,400,0,21,,,,,,,,14,,,,54,64
5200,note_off,400,0,16,,,,,,,,8,,,,42,64
5280,note_on,80,0,15,,,,,,,,7,,,,55,92
5280,note_on,80,0,16,,,,,,,,8,,,,43,92
5280,note_on,80,0,21,,,,,,,,14,,,,55,92
5280,note_on,80,0,8,,,,,,,,4,,,,43,92
5280,note_on,80,0,7,,,,,,,,4,,,,55,92
5280,note_on,80,0,17,,,,,,,,10,,,,45,92
5280,note_on,80,0,22,,,,,,,,15,,,,43,92
5440,note_off,640,0,13,,,,,,,,7,,,,62,64
5440,note_off,640,0,6,,,,,,,,3,,,,78,64
5440,note_off,640,0,19,,,,,,,,12,,,,78,64
5440,note_off,640,0,9,,,,,,,,5,,,,69,64
5440,note_off,640,0,10,,,,,,,,5,,,,66,64
5440,note_off,640,0,2,,,,,,,,0,,,,78,64
5440,note_off,640,0,1,,,,,,,,0,,,,81,64
5440,note_off,640,0,18,,,,,,,,11,,,,81,64
5440,note_off,640,0,3,,,,,,,,2,,,,81,64
5440,note_off,640,0,11,,,,,,,,6,,,,81,64
5440,note_off,640,0,5,,,,,,,,3,,,,81,64
5440,note_off,640,0,4,,,,,,,,2,,,,78,64
5440,note_off,640,0,20,,,,,,,,13,,,,74,64
5440,note_off,640,0,12,,,,,,,,6,,,,78,64
5440,note_off,640,0,14,,,,,,,,7,,,,57,64
5520,note_on,80,0,18,,,,,,,,11,,,,81,108
5520,note_on,80,0,11,,,,,,,,6,,,,81,92
5520,note_on,80,0,10,,,,,,,,5,,,,66,92
5520,note_on,80,0,13,,,,,,,,7,,,,62,92
5520,note_on,0,0,7,,,,,,,,4,,,,57,92
5520,note_off,240,0,7,,,,,,,,4,,,,55,64
5520,note_on,80,0,6,,,,,,,,3,,,,78,92
5520,note_on,80,0,3,,,,,,,,2,,,,81,92
5520,note_on,80,0,1,,,,,,,,0,,,,81,92
5520,note_on,80,0,14,,,,,,,,7,,,,57,92
5520,note_on,80,0,5,,,,,,,,3,,,,81,92
5520,note_on,80,0,19,,,,,,,,12,,,,78,92
5520,note_on,80,0,2,,,,,,,,0,,,,78,92
5520,note_on,80,0,4,,,,,,,,2,,,,78,92
5520,note_off,240,0,21,,,,,,,,14,,,,55,64
5520,note_on,0,0,22,,,,,,,,15,,,,45,92
5520,note_on,0,0,21,,,,,,,,14,,,,57,92
5520,note_on,80,0,12,,,,,,,,6,,,,78,92
5520,note_on,80,0,9,,,,,,,,5,,,,69,92
5520,note_off,240,0,8,,,,,,,,4,,,,43,64
5520,note_on,0,0,8,,,,,,,,4,,,,45,92
5520,note_on,80,0,20,,,,,,,,13,,,,74,92
5520,note_off,240,0,16,,,,,,,,8,,,,43,64
5520,note_off,240,0,22,,,,,,,,15,,,,43,64
5520,note_off,240,0,15,,,,,,,,7,,,,55,64
5520,note_on,0,0,15,,,,,,,,7,,,,57,92
5520,note_on,0,0,16,,,,,,,,8,,,,45,92
5680,note_off,400,0,17,,,,,,,,10,,,,45,64
5755,note_off,235,0,18,,,,,,,,11,,,,81,64
5755,note_off,235,0,3,,,,,,,,2,,,,81,64
5755,note_off,235,0,5,,,,,,,,3,,,,81,64
5755,note_off,235,0,16,,,,,,,,8,,,,45,64
5755,note_off,235,0,4,,,,,,,,2,,,,78,64
5755,note_off,235,0,20,,,,,,,,13,,,,74,64
5755,note_off,235,0,22,,,,,,,,15,,,,45,64
5755,note_off,235,0,10,,,,,,,,5,,,,66,64
5755,note_off,235,0,6,,,,,,,,3,,,,78,64
5755,note_off,235,0,21,,,,,,,,14,,,,57,64
5755,note_off,235,0,14,,,,,,,,7,,,,57,64
5755,note_off,235,0,7,,,,,,,,4,,,,57,64
5755,note_off,235,0,13,,,,,,,,7,,,,62,64
5755,note_off,235,0,12,,,,,,,,6,,,,78,64
5755,note_off,235,0,2,,,,,,,,0,,,,78,64
5755,note_off,235,0,9,,,,,,,,5,,,,69,64
5755,note_off,235,0,11,,,,,,,,6,,,,81,64
5755,note_off,235,0,15,,,,,,,,7,,,,57,64
5755,note_off,235,0,1,,,,,,,,0,,,,81,64
5755,note_off,235,0,19,,,,,,,,12,,,,78,64
5755,note_off,235,0,8,,,,,,,,4,,,,45,64
5760,note_on,5,0,1,,,,,,,,0,,,,81,92
5760,note_on,5,0,14,,,,,,,,7,,,,62,92
5760,note_on,5,0,2,,,,,,,,0,,,,78,92
5760,note_on,5,0,6,,,,,,,,3,,,,78,92
5760,note_on,5,0,7,,,,,,,,4,,,,59,92
5760,note_on,5,0,9,,,,,,,,5,,,,69,92
5760,note_on,5,0,22,,,,,,,,15,,,,47,92
5760,note_on,5,0,3,,,,,,,,2,,,,81,92
5760,note_on,5,0,16,,,,,,,,8,,,,47,92
5760,note_on,5,0,13,,,,,,,,7,,,,66,92
5760,note_on,5,0,12,,,,,,,,6,,,,78,92
5760,note_on,5,0,21,,,,,,,,14,,,,59,92
5760,note_on,5,0,11,,,,,,,,6,,,,81,92
5760,note_on,5,0,10,,,,,,,,5,,,,66,92
5760,note_on,5,0,15,,,,,,,,7,,,,59,92
5760,note_on,5,0,8,,,,,,,,4,,,,47,92
5760,note_on,5,0,19,,,,,,,,12,,,,78,92
5760,note_on,5,0,18,,,,,,,,11,,,,81,108
5760,note_on,5,0,4,,,,,,,,2,,,,78,92
5760,note_on,5,0,5,,,,,,,,3,,,,81,92
5760,note_on,80,0,17,,,,,,,,10,,,,50,92
5760,note_on,5,0,20,,,,,,,,13,,,,74,92
6160,note_off,400,0,21,,,,,,,,14,,,,59,64
6160,note_off,400,0,9,,,,,,,,5,,,,69,64
6160,note_off,400,0,14,,,,,,,,7,,,,62,64
6160,note_off,400,0,13,,,,,,,,7,,,,66,64
6160,note_off,400,0,12,,,,,,,,6,,,,78,64
6160,note_off,400,0,22,,,,,,,,15,,,,47,64
6160,note_off,400,0,7,,,,,,,,4,,,,59,64
6160,note_off,400,0,16,,,,,,,,8,,,,47,64
6160,note_off,400,0,1,,,,,,,,0,,,,81,64
6160,note_off,400,0,2,,,,,,,,0,,,,78,64
6160,note_off,400,0,15,,,,,,,,7,,,,59,64
6160,note_off,400,0,11,,,,,,,,6,,,,81,64
6160,note_off,400,0,8,,,,,,,,4,,,,47,64
6160,note_off,400,0,19,,,,,,,,12,,,,78,64
6160,note_off,400,0,5,,,,,,,,3,,,,81,64
6160,note_off,400,0,4,,,,,,,,2,,,,78,64
6160,note_off,400,0,10,,,,,,,,5,,,,66,64
6160,note_off,400,0,3,,,,,,,,2,,,,81,64
6160,note_off,400,0,20,,,,,,,,13,,,,74,64
6160,note_off,400,0,18,,,,,,,,11,,,,81,64
6160,note_off,400,0,6,,,,,,,,3,,,,78,64
6240,note_on,80,0,12,,,,,,,,6,,,,74,92
6240,note_on,80,0,2,,,,,,,,0,,,,74,92
6240,note_on,80,0,9,,,,,,,,5,,,,66,92
6240,note_on,80,0,10,,,,,,,,5,,,,62,92
6240,note_on,80,0,18,,,,,,,,11,,,,78,108
6240,note_on,80,0,15,,,,,,,,7,,,,50,92
6240,note_on,80,0,6,,,,,,,,3,,,,74,92
6240,note_on,80,0,13,,,,,,,,7,,,,62,92
6240,note_on,80,0,14,,,,,,,,7,,,,57,92
6240,note_on,80,0,4,,,,,,,,2,,,,74,92
6240,note_on,80,0,8,,,,,,,,4,,,,50,92
6240,note_on,80,0,20,,,,,,,,13,,,,69,92
6240,note_on,80,0,19,,,,,,,,12,,,,74,92
6240,note_on,80,0,5,,,,,,,,3,,,,78,92
6240,note_on,80,0,21,,,,,,,,14,,,,62,92
6240,note_on,80,0,3,,,,,,,,2,,,,78,92
6240,note_on,80,0,1,,,,,,,,0,,,,78,92
6240,note_on,80,0,7,,,,,,,,4,,,,62,92
6240,note_on,80,0,16,,,,,,,,8,,,,50,92
6240,note_on,80,0,11,,,,,,,,6,,,,78,92
6240,note_on,80,0,22,,,,,,,,15,,,,50,92
6480,note_off,240,0,5,,,,,,,,3,,,,78,64
6480,note_on,0,0,18,,,,,,,,11,,,,74,108
6480,note_off,240,0,10,,,,,,,,5,,,,62,64
6480,note_on,0,0,10,,,,,,,,5,,,,66,92
6480,note_off,240,0,4,,,,,,,,2,,,,74,64
6480,note_on,0,0,4,,,,,,,,2,,,,78,92
6480,note_off,240,0,13,,,,,,,,7,,,,62,64
6480,note_on,0,0,9,,,,,,,,5,,,,62,92
6480,note_off,240,0,9,,,,,,,,5,,,,66,64
6480,note_on,0,0,2,,,,,,,,0,,,,78,92
6480,note_off,240,0,12,,,,,,,,6,,,,74,64
6480,note_on,0,0,12,,,,,,,,6,,,,78,92
6480,note_off,240,0,18,,,,,,,,11,,,,78,64
6480,note_on,0,0,1,,,,,,,,0,,,,74,92
6480,note_off,240,0,2,,,,,,,,0,,,,74,64
6480,note_on,0,0,13,,,,,,,,7,,,,66,92
6480,note_on,0,0,5,,,,,,,,3,,,,74,92
6480,note_on,0,0,19,,,,,,,,12,,,,78,92
6480,note_off,240,0,19,,,,,,,,12,,,,74,64
6480,note_off,240,0,11,,,,,,,,6,,,,78,64
6480,note_on,0,0,11,,,,,,,,6,,,,74,92
6480,note_on,0,0,3,,,,,,,,2,,,,74,92
6480,note_off,240,0,3,,,,,,,,2,,,,78,64
6480,note_off,240,0,6,,,,,,,,3,,,,74,64
6480,note_on,0,0,6,,,,,,,,3,,,,78,92
6480,note_off,240,0,1,,,,,,,,0,,,,78,64
6600,note_off,840,0,17,,,,,,,,10,,,,50,64
6640,note_off,400,0,22,,,,,,,,15,,,,50,64
6640,note_off,400,0,20,,,,,,,,13,,,,69,64
6640,note_off,400,0,21,,,,,,,,14,,,,62,64
6640,note_off,400,0,7,,,,,,,,4,,,,62,64
6640,note_off,400,0,14,,,,,,,,7,,,,57,64
6640,note_off,400,0,16,,,,,,,,8,,,,50,64
6640,note_off,400,0,15,,,,,,,,7,,,,50,64
6640,note_off,400,0,8,,,,,,,,4,,,,50,64
6715,note_off,235,0,18,,,,,,,,11,,,,74,64
6715,note_off,235,0,10,,,,,,,,5,,,,66,64
6715,note_off,235,0,3,,,,,,,,2,,,,74,64
6715,note_off,235,0,11,,,,,,,,6,,,,74,64
6715,note_off,235,0,19,,,,,,,,12,,,,78,64
6715,note_off,235,0,2,,,,,,,,0,,,,78,64
6715,note_off,235,0,4,,,,,,,,2,,,,78,64
6715,note_off,235,0,13,,,,,,,,7,,,,66,64
6715,note_off,235,0,12,,,,,,,,6,,,,78,64
6715,note_off,235,0,1,,,,,,,,0,,,,74,64
6715,note_off,235,0,5,,,,,,,,3,,,,74,64
6715,note_off,235,0,6,,,,,,,,3,,,,78,64
6715,note_off,235,0,9,,,,,,,,5,,,,62,64
6720,note_on,5,0,10,,,,,,,,5,,,,64,92
6720,note_on,5,0,19,,,,,,,,12,,,,76,92
6720,note_on,5,0,5,,,,,,,,3,,,,79,92
6720,note_on,80,0,15,,,,,,,,7,,,,49,92
6720,note_on,80,0,20,,,,,,,,13,,,,67,92
6720,note_on,5,0,9,,,,,,,,5,,,,67,92
6720,note_on,5,0,4,,,,,,,,2,,,,76,92
6720,note_on,80,0,7,,,,,,,,4,,,,61,92
6720,note_on,80,0,16,,,,,,,,8,,,,49,92
6720,note_on,5,0,18,,,,,,,,11,,,,79,108
6720,note_on,80,0,21,,,,,,,,14,,,,61,92
6720,note_on,80,0,8,,,,,,,,4,,,,49,92
6720,note_on,5,0,3,,,,,,,,2,,,,79,92
6720,note_on,5,0,11,,,,,,,,6,,,,79,92
6720,note_on,120,0,17,,,,,,,,10,,,,45,92
6720,note_on,5,0,2,,,,,,,,0,,,,76,92
6720,note_on,5,0,13,,,,,,,,7,,,,64,92
6720,note_on,5,0,1,,,,,,,,0,,,,79,92
6720,note_on,5,0,12,,,,,,,,6,,,,76,92
6720,note_on,80,0,22,,,,,,,,15,,,,49,92
6720,note_on,5,0,6,,,,,,,,3,,,,76,92
6720,note_on,80,0,14,,,,,,,,7,,,,61,92
7120,note_off,400,0,19,,,,,,,,12,,,,76,64
7120,note_off,400,0,17,,,,,,,,10,,,,45,64
7120,note_off,400,0,8,,,,,,,,4,,,,49,64
7120,note_off,400,0,15,,,,,,,,7,,,,49,64
7120,note_off,400,0,21,,,,,,,,14,,,,61,64
7120,note_off,400,0,20,,,,,,,,13,,,,67,64
7120,note_off,400,0,7,,,,,,,,4,,,,61,64
7120,note_off,400,0,4,,,,,,,,2,,,,76,64
7120,note_off,400,0,6,,,,,,,,3,,,,76,64
7120,note_off,400,0,22,,,,,,,,15,,,,49,64
7120,note_off,400,0,16,,,,,,,,8,,,,49,64
7120,note_off,400,0,2,,,,,,,,0,,,,76,64
7200,note_on,80,0,22,,,,,,,,15,,,,52,92
7200,note_on,80,0,17,,,,,,,,10,,,,50,92
7200,note_on,80,0,16,,,,,,,,8,,,,52,92
7200,note_on,80,0,21,,,,,,,,14,,,,64,92
7200,note_on,80,0,8,,,,,,,,4,,,,52,92
7200,note_on,80,0,15,,,,,,,,7,,,,52,92
7200,note_on,80,0,19,,,,,,,,12,,,,73,92
7200,note_on,80,0,20,,,,,,,,13,,,,67,92
7200,note_on,80,0,2,,,,,,,,0,,,,73,92
7200,note_on,80,0,6,,,,,,,,3,,,,73,92
7200,note_on,80,0,4,,,,,,,,2,,,,73,92
7200,note_on,80,0,7,,,,,,,,4,,,,64,92
7360,note_off,640,0,9,,,,,,,,5,,,,67,64
7360,note_off,640,0,11,,,,,,,,6,,,,79,64
7360,note_off,640,0,3,,,,,,,,2,,,,79,64
7360,note_off,640,0,18,,,,,,,,11,,,,79,64
7360,note_off,640,0,10,,,,,,,,5,,,,64,64
7360,note_off,640,0,14,,,,,,,,7,,,,61,64
7360,note_off,640,0,5,,,,,,,,3,,,,79,64
7360,note_off,640,0,12,,,,,,,,6,,,,76,64
7360,note_off,640,0,1,,,,,,,,0,,,,79,64
7360,note_off,640,0,13,,,,,,,,7,,,,64,64
7440,note_on,80,0,10,,,,,,,,5,,,,64,92
7440,note_on,80,0,11,,,,,,,,6,,,,79,92
7440,note_on,80,0,3,,,,,,,,2,,,,79,92
7440,note_on,80,0,5,,,,,,,,3,,,,79,92
7440,note_on,80,0,1,,,,,,,,0,,,,79,92
7440,note_on,80,0,12,,,,,,,,6,,,,76,92
7440,note_on,80,0,18,,,,,,,,11,,,,79,108
7440,note_on,80,0,9,,,,,,,,5,,,,67,92
7440,note_on,80,0,13,,,,,,,,7,,,,64,92
7440,note_on,80,0,14,,,,,,,,7,,,,61,92
7560,note_off,360,0,19,,,,,,,,12,,,,73,64
7560,note_on,0,0,6,,,,,,,,3,,,,74,92
7560,note_off,360,0,6,,,,,,,,3,,,,73,64
7560,note_off,360,0,4,,,,,,,,2,,,,73,64
7560,note_on,0,0,19,,,,,,,,12,,,,74,92
7560,note_on,0,0,4,,,,,,,,2,,,,74,92
7560,note_off,360,0,2,,,,,,,,0,,,,73,64
7560,note_on,0,0,2,,,,,,,,0,,,,74,92
7600,note_off,400,0,17,,,,,,,,10,,,,50,64
7600,note_off,400,0,22,,,,,,,,15,,,,52,64
7600,note_off,400,0,7,,,,,,,,4,,,,64,64
7600,note_off,400,0,21,,,,,,,,14,,,,64,64
7600,note_off,400,0,20,,,,,,,,13,,,,67,64
7600,note_off,400,0,16,,,,,,,,8,,,,52,64
7600,note_off,400,0,15,,,,,,,,7,,,,52,64
7600,note_off,400,0,8,,,,,,,,4,,,,52,64
7675,note_off,235,0,10,,,,,,,,5,,,,64,64
7675,note_off,235,0,11,,,,,,,,6,,,,79,64
7675,note_off,235,0,12,,,,,,,,6,,,,76,64
7675,note_off,115,0,4,,,,,,,,2,,,,74,64
7675,note_off,235,0,14,,,,,,,,7,,,,61,64
7675,note_off,235,0,13,,,,,,,,7,,,,64,64
7675,note_off,235,0,5,,,,,,,,3,,,,79,64
7675,note_off,115,0,19,,,,,,,,12,,,,74,64
7675,note_off,115,0,2,,,,,,,,0,,,,74,64
7675,note_off,235,0,3,,,,,,,,2,,,,79,64
7675,note_off,115,0,6,,,,,,,,3,,,,74,64
7675,note_off,235,0,9,,,,,,,,5,,,,67,64
7675,note_off,235,0,1,,,,,,,,0,,,,79,64
7675,note_off,235,0,18,,,,,,,,11,,,,79,64
7680,note_on,5,0,1,,,,,,,,0,,,,79,92
7680,note_on,5,0,9,,,,,,,,5,,,,67,92
7680,note_on,5,0,2,,,,,,,,0,,,,76,92
7680,note_on,5,0,19,,,,,,,,12,,,,76,92
7680,note_on,5,0,11,,,,,,,,6,,,,79,92
7680,note_on,80,0,20,,,,,,,,13,,,,69,92
7680,note_on,5,0,12,,,,,,,,6,,,,76,92
7680,note_on,80,0,8,,,,,,,,4,,,,49,92
7680,note_on,5,0,4,,,,,,,,2,,,,76,92
7680,note_on,80,0,15,,,,,,,,7,,,,49,92
7680,note_on,5,0,14,,,,,,,,7,,,,61,92
7680,note_on,80,0,17,,,,,,,,10,,,,45,92
7680,note_on,5,0,6,,,,,,,,3,,,,76,92
7680,note_on,80,0,21,,,,,,,,14,,,,61,92
7680,note_on,5,0,10,,,,,,,,5,,,,64,92
7680,note_on,5,0,3,,,,,,,,2,,,,79,92
7680,note_on,5,0,18,,,,,,,,11,,,,79,108
7680,note_on,80,0,16,,,,,,,,8,,,,49,92
7680,note_on,80,0,7,,,,,,,,4,,,,61,92
7680,note_on,80,0,22,,,,,,,,15,,,,49,92
7680,note_on,5,0,5,,,,,,,,3,,,,79,92
7680,note_on,5,0,13,,,,,,,,7,,,,64,92
7920,note_off,240,0,6,,,,,,,,3,,,,76,64
7920,note_off,240,0,2,,,,,,,,0,,,,76,64
7920,note_on,0,0,6,,,,,,,,3,,,,73,92
7920,note_off,240,0,4,,,,,,,,2,,,,76,64
7920,note_on,0,0,4,,,,,,,,2,,,,73,92
7920,note_on,0,0,2,,,,,,,,0,,,,73,92
8040,note_on,0,0,21,,,,,,,,14,,,,57,92
8040,note_off,360,0,21,,,,,,,,14,,,,61,64
8040,note_on,0,0,8,,,,,,,,4,,,,45,92
8040,note_off,360,0,8,,,,,,,,4,,,,49,64
8040,note_on,0,0,22,,,,,,,,15,,,,45,92
8040,note_on,0,0,16,,,,,,,,8,,,,45,92
8040,note_off,360,0,16,,,,,,,,8,,,,49,64
8040,note_off,360,0,15,,,,,,,,7,,,,49,64
8040,note_on,0,0,15,,,,,,,,7,,,,45,92
8040,note_off,360,0,7,,,,,,,,4,,,,61,64
8040,note_on,0,0,7,,,,,,,,4,,,,57,92
8040,note_off,360,0,19,,,,,,,,12,,,,76,64
8040,note_off,360,0,22,,,,,,,,15,,,,49,64
8040,note_on,0,0,19,,,,,,,,12,,,,73,92
8080,note_off,400,0,20,,,,,,,,13,,,,69,64
8155,note_off,115,0,15,,,,,,,,7,,,,45,64
8155,note_off,235,0,6,,,,,,,,3,,,,73,64
8155,note_off,115,0,21,,,,,,,,14,,,,57,64
8155,note_off,115,0,16,,,,,,,,8,,,,45,64
8155,note_off,115,0,19,,,,,,,,12,,,,73,64
8155,note_off,115,0,22,,,,,,,,15,,,,45,64
8155,note_off,235,0,4,,,,,,,,2,,,,73,64
8155,note_off,235,0,2,,,,,,,,0,,,,73,64
8160,note_on,5,0,16,,,,,,,,8,,,,47,92
8160,note_on,5,0,19,,,,,,,,12,,,,74,92
8160,note_on,0,0,7,,,,,,,,4,,,,59,92
8160,note_off,120,0,8,,,,,,,,4,,,,45,64
8160,note_on,5,0,2,,,,,,,,0,,,,74,92
8160,note_on,5,0,21,,,,,,,,14,,,,59,92
8160,note_on,5,0,22,,,,,,,,15,,,,47,92
8160,note_off,120,0,7,,,,,,,,4,,,,57,64
8160,note_on,5,0,6,,,,,,,,3,,,,74,92
8160,note_on,0,0,8,,,,,,,,4,,,,47,92
8160,note_on,5,0,15,,,,,,,,7,,,,47,92
8160,note_on,5,0,4,,,,,,,,2,,,,74,92
8160,note_on,80,0,20,,,,,,,,13,,,,67,92
8320,note_off,640,0,18,,,,,,,,11,,,,79,64
8320,note_off,640,0,5,,,,,,,,3,,,,79,64
8320,note_off,640,0,3,,,,,,,,2,,,,79,64
8320,note_off,640,0,1,,,,,,,,0,,,,79,64
8400,note_off,240,0,6,,,,,,,,3,,,,74,64
8400,note_on,0,0,6,,,,,,,,3,,,,76,92
8400,note_on,80,0,3,,,,,,,,2,,,,81,92
8400,note_off,240,0,2,,,,,,,,0,,,,74,64
8400,note_on,80,0,18,,,,,,,,11,,,,81,108
8400,note_off,240,0,4,,,,,,,,2,,,,74,64
8400,note_on,0,0,4,,,,,,,,2,,,,76,92
8400,note_on,80,0,1,,,,,,,,0,,,,81,92
8400,note_on,0,0,2,,,,,,,,0,,,,76,92
8400,note_on,80,0,5,,,,,,,,3,,,,81,92
8520,note_on,0,0,15,,,,,,,,7,,,,49,92
8520,note_off,840,0,10,,,,,,,,5,,,,64,64
8520,note_off,360,0,16,,,,,,,,8,,,,47,64
8520,note_on,0,0,16,,,,,,,,8,,,,49,92
8520,note_off,360,0,21,,,,,,,,14,,,,59,64
8520,note_off,360,0,20,,,,,,,,13,,,,67,64
8520,note_on,0,0,20,,,,,,,,13,,,,64,92
8520,note_off,840,0,14,,,,,,,,7,,,,61,64
8520,note_off,840,0,11,,,,,,,,6,,,,79,64
8520,note_off,840,0,9,,,,,,,,5,,,,67,64
8520,note_off,360,0,15,,,,,,,,7,,,,47,64
8520,note_on,0,0,21,,,,,,,,14,,,,61,92
8520,note_off,360,0,22,,,,,,,,15,,,,47,64
8520,note_off,360,0,8,,,,,,,,4,,,,47,64
8520,note_on,0,0,19,,,,,,,,12,,,,76,92
8520,note_off,840,0,13,,,,,,,,7,,,,64,64
8520,note_on,0,0,8,,,,,,,,4,,,,49,92
8520,note_on,0,0,7,,,,,,,,4,,,,61,92
8520,note_off,360,0,7,,,,,,,,4,,,,59,64
8520,note_on,0,0,22,,,,,,,,15,,,,49,92
8520,note_off,360,0,19,,,,,,,,12,,,,74,64
8520,note_off,840,0,17,,,,,,,,10,,,,45,64
8520,note_off,840,0,12,,,,,,,,6,,,,76,64
8635,note_off,115,0,20,,,,,,,,13,,,,64,64
8635,note_off,115,0,16,,,,,,,,8,,,,49,64
8635,note_off,235,0,18,,,,,,,,11,,,,81,64
8635,note_off,115,0,22,,,,,,,,15,,,,49,64
8635,note_off,115,0,15,,,,,,,,7,,,,49,64
8635,note_off,115,0,19,,,,,,,,12,,,,76,64
8635,note_off,235,0,5,,,,,,,,3,,,,81,64
8635,note_off,235,0,4,,,,,,,,2,,,,76,64
8635,note_off,235,0,2,,,,,,,,0,,,,76,64
8635,note_off,235,0,1,,,,,,,,0,,,,81,64
8635,note_off,115,0,8,,,,,,,,4,,,,49,64
8635,note_off,115,0,21,,,,,,,,14,,,,61,64
8635,note_off,235,0,6,,,,,,,,3,,,,76,64
8635,note_off,115,0,7,,,,,,,,4,,,,61,64
8635,note_off,235,0,3,,,,,,,,2,,,,81,64
8640,note_on,5,0,1,,,,,,,,0,,,,78,92
8640,note_on,120,0,11,,,,,,,,6,,,,78,92
8640,note_on,5,0,18,,,,,,,,11,,,,78,108
8640,note_on,120,0,12,,,,,,,,6,,,,74,92
8640,note_on,5,0,4,,,,,,,,2,,,,69,92
8640,note_on,5,0,15,,,,,,,,7,,,,50,92
8640,note_on,5,0,19,,,,,,,,12,,,,69,92
8640,note_on,5,0,8,,,,,,,,4,,,,50,92
8640,note_on,5,0,2,,,,,,,,0,,,,69,92
8640,note_on,120,0,17,,,,,,,,10,,,,50,92
8640,note_on,5,0,16,,,,,,,,8,,,,50,92
8640,note_on,120,0,9,,,,,,,,5,,,,66,92
8640,note_on,5,0,6,,,,,,,,3,,,,69,92
8640,note_on,5,0,22,,,,,,,,15,,,,50,92
8640,note_on,5,0,3,,,,,,,,2,,,,78,92
8640,note_on,120,0,14,,,,,,,,7,,,,57,92
8640,note_on,5,0,5,,,,,,,,3,,,,78,92
8640,note_on,120,0,13,,,,,,,,7,,,,62,92
8640,note_on,5,0,7,,,,,,,,4,,,,62,92
8640,note_on,5,0,21,,,,,,,,14,,,,62,92
8640,note_on,120,0,10,,,,,,,,5,,,,62,92
8640,note_on,5,0,20,,,,,,,,13,,,,74,92
9280,note_off,640,0,17,,,,,,,,10,,,,50,64
9360,note_on,0,0,9,,,,,,,,5,,,,67,92
9360,note_on,0,0,11,,,,,,,,6,,,,79,92
9360,note_off,720,0,11,,,,,,,,6,,,,78,64
9360,note_on,0,0,14,,,,,,,,7,,,,59,92
9360,note_off,720,0,13,,,,,,,,7,,,,62,64
9360,note_off,720,0,4,,,,,,,,2,,,,69,64
9360,note_off,720,0,9,,,,,,,,5,,,,66,64
9360,note_off,720,0,6,,,,,,,,3,,,,69,64
9360,note_off,720,0,14,,,,,,,,7,,,,57,64
9360,note_on,0,0,6,,,,,,,,3,,,,71,92
9360,note_on,0,0,8,,,,,,,,4,,,,43,92
9360,note_off,720,0,8,,,,,,,,4,,,,50,64
9360,note_off,720,0,22,,,,,,,,15,,,,50,64
9360,note_off,720,0,3,,,,,,,,2,,,,78,64
9360,note_on,0,0,21,,,,,,,,14,,,,55,92
9360,note_on,0,0,3,,,,,,,,2,,,,79,92
9360,note_off,720,0,12,,,,,,,,6,,,,74,64
9360,note_on,0,0,12,,,,,,,,6,,,,76,92
9360,note_on,0,0,20,,,,,,,,13,,,,74,92
9360,note_off,720,0,20,,,,,,,,13,,,,74,64
9360,note_on,0,0,18,,,,,,,,11,,,,79,108
9360,note_off,720,0,18,,,,,,,,11,,,,78,64
9360,note_off,720,0,15,,,,,,,,7,,,,50,64
9360,note_on,0,0,10,,,,,,,,5,,,,64,92
9360,note_off,720,0,10,,,,,,,,5,,,,62,64
9360,note_on,80,0,17,,,,,,,,10,,,,45,92
9360,note_on,0,0,22,,,,,,,,15,,,,43,92
9360,note_off,720,0,21,,,,,,,,14,,,,62,64
9360,note_on,0,0,13,,,,,,,,7,,,,64,92
9360,note_on,0,0,4,,,,,,,,2,,,,71,92
9360,note_on,0,0,1,,,,,,,,0,,,,79,92
9360,note_on,0,0,2,,,,,,,,0,,,,71,92
9360,note_off,720,0,2,,,,,,,,0,,,,69,64
9360,note_off,720,0,19,,,,,,,,12,,,,69,64
9360,note_on,0,0,19,,,,,,,,12,,,,71,92
9360,note_off,720,0,16,,,,,,,,8,,,,50,64
9360,note_off,720,0,1,,,,,,,,0,,,,78,64
9360,note_on,0,0,16,,,,,,,,8,,,,43,92
9360,note_on,0,0,7,,,,,,,,4,,,,55,92
9360,note_on,0,0,15,,,,,,,,7,,,,55,92
9360,note_on,0,0,5,,,,,,,,3,,,,79,92
9360,note_off,720,0,5,,,,,,,,3,,,,78,64
9360,note_off,720,0,7,,,,,,,,4,,,,62,64
9595,note_off,235,0,15,,,,,,,,7,,,,55,64
9595,note_off,235,0,8,,,,,,,,4,,,,43,64
9595,note_off,235,0,6,,,,,,,,3,,,,71,64
9595,note_off,235,0,21,,,,,,,,14,,,,55,64
9595,note_off,235,0,3,,,,,,,,2,,,,79,64
9595,note_off,235,0,1,,,,,,,,0,,,,79,64
9595,note_off,235,0,18,,,,,,,,11,,,,79,64
9595,note_off,235,0,5,,,,,,,,3,,,,79,64
9595,note_off,235,0,10,,,,,,,,5,,,,64,64
9595,note_off,235,0,19,,,,,,,,12,,,,71,64
9595,note_off,235,0,17,,,,,,,,10,,,,45,64
9595,note_off,235,0,4,,,,,,,,2,,,,71,64
9595,note_off,235,0,20,,,,,,,,13,,,,74,64
9595,note_off,235,0,14,,,,,,,,7,,,,59,64
9595,note_off,235,0,16,,,,,,,,8,,,,43,64
9595,note_off,235,0,22,,,,,,,,15,,,,43,64
9595,note_off,235,0,12,,,,,,,,6,,,,76,64
9595,note_off,235,0,7,,,,,,,,4,,,,55,64
9595,note_off,235,0,13,,,,,,,,7,,,,64,64
9595,note_off,235,0,2,,,,,,,,0,,,,71,64
9595,note_off,235,0,9,,,,,,,,5,,,,67,64
9595,note_off,235,0,11,,,,,,,,6,,,,79,64
9600,note_on,5,0,14,,,,,,,,7,,,,57,92
9600,note_on,5,0,17,,,,,,,,10,,,,45,92
9600,note_on,5,0,12,,,,,,,,6,,,,73,92
9600,note_on,5,0,19,,,,,,,,12,,,,73,92
9600,note_on,5,0,7,,,,,,,,4,,,,57,92
9600,note_on,5,0,18,,,,,,,,11,,,,76,108
9600,note_on,5,0,6,,,,,,,,3,,,,73,92
9600,note_on,5,0,3,,,,,,,,2,,,,76,92
9600,note_on,5,0,1,,,,,,,,0,,,,76,92
9600,note_on,5,0,16,,,,,,,,8,,,,45,92
9600,note_on,5,0,9,,,,,,,,5,,,,64,92
9600,note_on,5,0,5,,,,,,,,3,,,,76,92
9600,note_on,5,0,13,,,,,,,,7,,,,61,92
9600,note_on,5,0,8,,,,,,,,4,,,,45,92
9600,note_on,5,0,20,,,,,,,,13,,,,69,92
9600,note_on,5,0,22,,,,,,,,15,,,,45,92
9600,note_on,5,0,15,,,,,,,,7,,,,57,92
9600,note_on,5,0,11,,,,,,,,6,,,,76,92
9600,note_on,5,0,21,,,,,,,,14,,,,57,92
9600,note_on,5,0,10,,,,,,,,5,,,,57,92
9600,note_on,5,0,2,,,,,,,,0,,,,73,92
9600,note_on,5,0,4,,,,,,,,2,,,,73,92
10000,note_off,400,0,2,,,,,,,,0,,,,73,64
10000,note_off,400,0,20,,,,,,,,13,,,,69,64
10000,note_off,400,0,17,,,,,,,,10,,,,45,64
10000,note_off,400,0,14,,,,,,,,7,,,,57,64
10000,note_off,400,0,7,,,,,,,,4,,,,57,64
10000,note_off,400,0,3,,,,,,,,2,,,,76,64
10000,note_off,400,0,16,,,,,,,,8,,,,45,64
10000,note_off,400,0,10,,,,,,,,5,,,,57,64
10000,note_off,400,0,6,,,,,,,,3,,,,73,64
10000,note_off,400,0,22,,,,,,,,15,,,,45,64
10000,note_off,400,0,9,,,,,,,,5,,,,64,64
10000,note_off,400,0,13,,,,,,,,7,,,,61,64
10000,note_off,400,0,1,,,,,,,,0,,,,76,64
10000,note_off,400,0,4,,,,,,,,2,,,,73,64
10000,note_off,400,0,15,,,,,,,,7,,,,57,64
10000,note_off,400,0,11,,,,,,,,6,,,,76,64
10000,note_off,400,0,21,,,,,,,,14,,,,57,64
10000,note_off,400,0,8,,,,,,,,4,,,,45,64
10000,note_off,400,0,18,,,,,,,,11,,,,76,64
10000,note_off,400,0,5,,,,,,,,3,,,,76,64
10000,note_off,400,0,12,,,,,,,,6,,,,73,64
10000,note_off,400,0,19,,,,,,,,12,,,,73,64
10080,note_on,80,0,6,,,,,,,,3,,,,69,92
10080,note_on,80,0,22,,,,,,,,15,,,,38,92
10080,note_on,80,0,20,,,,,,,,13,,,,66,92
10080,note_on,80,0,5,,,,,,,,3,,,,74,92
10080,note_on,80,0,10,,,,,,,,5,,,,54,92
10080,note_on,80,0,15,,,,,,,,7,,,,50,92
10080,note_on,80,0,8,,,,,,,,4,,,,38,92
10080,note_on,80,0,18,,,,,,,,11,,,,74,108
10080,note_on,80,0,21,,,,,,,,14,,,,50,92
10080,note_on,80,0,13,,,,,,,,7,,,,57,92
10080,note_on,80,0,11,,,,,,,,6,,,,74,92
10080,note_on,80,0,19,,,,,,,,12,,,,69,92
10080,note_on,80,0,16,,,,,,,,8,,,,38,92
10080,note_on,80,0,9,,,,,,,,5,,,,62,92
10080,note_on,80,0,4,,,,,,,,2,,,,69,92
10080,note_on,80,0,1,,,,,,,,0,,,,74,92
10080,note_on,80,0,3,,,,,,,,2,,,,74,92
10080,note_on,80,0,17,,,,,,,,10,,,,50,92
10080,note_on,80,0,7,,,,,,,,4,,,,50,92
10080,note_on,80,0,12,,,,,,,,6,,,,69,92
10080,note_on,80,0,2,,,,,,,,0,,,,69,92
10080,note_on,80,0,14,,,,,,,,7,,,,54,92
10440,note_off,360,0,9,,,,,,,,5,,,,62,64
10440,note_on,0,0,22,,,,,,,,15,,,,47,92
10440,note_off,360,0,21,,,,,,,,14,,,,50,64
10440,note_on,0,0,5,,,,,,,,3,,,,76,92
10440,note_on,0,0,14,,,,,,,,7,,,,52,92
10440,note_off,360,0,14,,,,,,,,7,,,,54,64
10440,note_off,360,0,3,,,,,,,,2,,,,74,64
10440,note_on,0,0,21,,,,,,,,14,,,,59,92
10440,note_on,0,0,3,,,,,,,,2,,,,76,92
10440,note_off,360,0,18,,,,,,,,11,,,,74,64
10440,note_on,0,0,9,,,,,,,,5,,,,64,92
10440,note_on,0,0,7,,,,,,,,4,,,,59,92
10440,note_on,0,0,4,,,,,,,,2,,,,74,92
10440,note_off,360,0,4,,,,,,,,2,,,,69,64
10440,note_off,360,0,15,,,,,,,,7,,,,50,64
10440,note_on,0,0,15,,,,,,,,7,,,,59,92
10440,note_off,360,0,11,,,,,,,,6,,,,74,64
10440,note_on,0,0,11,,,,,,,,6,,,,76,92
10440,note_off,360,0,7,,,,,,,,4,,,,50,64
10440,note_off,360,0,8,,,,,,,,4,,,,38,64
10440,note_on,0,0,8,,,,,,,,4,,,,47,92
10440,note_off,360,0,22,,,,,,,,15,,,,38,64
10440,note_off,360,0,19,,,,,,,,12,,,,69,64
10440,note_off,360,0,1,,,,,,,,0,,,,74,64
10440,note_off,360,0,6,,,,,,,,3,,,,69,64
10440,note_on,0,0,18,,,,,,,,11,,,,76,108
10440,note_on,0,0,2,,,,,,,,0,,,,74,92
10440,note_off,360,0,2,,,,,,,,0,,,,69,64
10440,note_off,360,0,16,,,,,,,,8,,,,38,64
10440,note_on,0,0,16,,,,,,,,8,,,,47,92
10440,note_on,0,0,1,,,,,,,,0,,,,76,92
10440,note_on,0,0,6,,,,,,,,3,,,,74,92
10440,note_on,0,0,19,,,,,,,,12,,,,74,92
10440,note_off,360,0,5,,,,,,,,3,,,,74,64
10480,note_off,400,0,13,,,,,,,,7,,,,57,64
10480,note_off,400,0,17,,,,,,,,10,,,,50,64
10480,note_off,400,0,10,,,,,,,,5,,,,54,64
10480,note_off,400,0,20,,,,,,,,13,,,,66,64
10480,note_off,400,0,12,,,,,,,,6,,,,69,64
10555,note_off,115,0,14,,,,,,,,7,,,,52,64
10555,note_off,115,0,6,,,,,,,,3,,,,74,64
10555,note_off,115,0,9,,,,,,,,5,,,,64,64
10555,note_off,115,0,2,,,,,,,,0,,,,74,64
10555,note_off,115,0,8,,,,,,,,4,,,,47,64
10555,note_off,115,0,11,,,,,,,,6,,,,76,64
10555,note_off,115,0,4,,,,,,,,2,,,,74,64
10555,note_off,115,0,7,,,,,,,,4,,,,59,64
10555,note_off,115,0,15,,,,,,,,7,,,,59,64
10555,note_off,115,0,19,,,,,,,,12,,,,74,64
10555,note_off,115,0,18,,,,,,,,11,,,,76,64
10555,note_off,115,0,16,,,,,,,,8,,,,47,64
10555,note_off,115,0,22,,,,,,,,15,,,,47,64
10555,note_off,115,0,1,,,,,,,,0,,,,76,64
10555,note_off,115,0,5,,,,,,,,3,,,,76,64
10555,note_off,115,0,3,,,,,,,,2,,,,76,64
10555,note_off,115,0,21,,,,,,,,14,,,,59,64
10560,note_on,5,0,22,,,,,,,,15,,,,45,92
10560,note_on,80,0,13,,,,,,,,7,,,,57,92
10560,note_on,5,0,1,,,,,,,,0,,,,76,92
10560,note_on,5,0,11,,,,,,,,6,,,,76,92
10560,note_on,5,0,2,,,,,,,,0,,,,74,92
10560,note_on,5,0,3,,,,,,,,2,,,,76,92
10560,note_on,5,0,21,,,,,,,,14,,,,57,92
10560,note_on,80,0,12,,,,,,,,6,,,,69,92
10560,note_on,5,0,6,,,,,,,,3,,,,74,92
10560,note_on,5,0,16,,,,,,,,8,,,,45,92
10560,note_on,5,0,5,,,,,,,,3,,,,76,92
10560,note_on,80,0,10,,,,,,,,5,,,,57,92
10560,note_on,5,0,7,,,,,,,,4,,,,57,92
10560,note_on,80,0,17,,,,,,,,10,,,,45,92
10560,note_on,5,0,4,,,,,,,,2,,,,74,92
10560,note_on,5,0,18,,,,,,,,11,,,,76,108
10560,note_on,5,0,19,,,,,,,,12,,,,74,92
10560,note_on,5,0,8,,,,,,,,4,,,,45,92
10560,note_on,5,0,9,,,,,,,,5,,,,64,92
10560,note_on,5,0,15,,,,,,,,7,,,,57,92
10560,note_on,5,0,14,,,,,,,,7,,,,52,92
10560,note_on,80,0,20,,,,,,,,13,,,,69,92
10920,note_off,360,0,10,,,,,,,,5,,,,57,64
10920,note_on,0,0,10,,,,,,,,5,,,,64,92
10920,note_on,0,0,13,,,,,,,,7,,,,64,92
10920,note_on,0,0,12,,,,,,,,6,,,,76,92
10920,note_off,360,0,13,,,,,,,,7,,,,57,64
10920,note_off,360,0,12,,,,,,,,6,,,,69,64
10960,note_off,400,0,4,,,,,,,,2,,,,74,64
10960,note_off,400,0,15,,,,,,,,7,,,,57,64
10960,note_off,400,0,22,,,,,,,,15,,,,45,64
10960,note_off,400,0,16,,,,,,,,8,,,,45,64
10960,note_off,400,0,21,,,,,,,,14,,,,57,64
10960,note_off,400,0,19,,,,,,,,12,,,,74,64
10960,note_off,400,0,8,,,,,,,,4,,,,45,64
10960,note_off,400,0,7,,,,,,,,4,,,,57,64
10960,note_off,400,0,2,,,,,,,,0,,,,74,64
10960,note_off,400,0,6,,,,,,,,3,,,,74,64
11035,note_off,115,0,12,,,,,,,,6,,,,76,64
11035,note_off,115,0,13,,,,,,,,7,,,,64,64
11035,note_off,115,0,10,,,,,,,,5,,,,64,64
11040,note_on,80,0,8,,,,,,,,4,,,,45,92
11040,note_on,80,0,19,,,,,,,,12,,,,73,92
11040,note_on,80,0,15,,,,,,,,7,,,,45,92
11040,note_on,80,0,16,,,,,,,,8,,,,33,92
11040,note_on,80,0,4,,,,,,,,2,,,,73,92
11040,note_on,5,0,10,,,,,,,,5,,,,64,92
11040,note_on,80,0,21,,,,,,,,14,,,,57,92
11040,note_on,5,0,13,,,,,,,,7,,,,64,92
11040,note_on,80,0,2,,,,,,,,0,,,,73,92
11040,note_on,5,0,12,,,,,,,,6,,,,76,92
11040,note_on,80,0,6,,,,,,,,3,,,,73,92
11040,note_on,80,0,22,,,,,,,,15,,,,33,92
11040,note_on,80,0,7,,,,,,,,4,,,,45,92
11200,note_off,640,0,18,,,,,,,,11,,,,76,64
11200,note_off,640,0,11,,,,,,,,6,,,,76,64
11200,note_off,640,0,20,,,,,,,,13,,,,69,64
11200,note_off,640,0,17,,,,,,,,10,,,,45,64
11280,note_off,720,0,9,,,,,,,,5,,,,64,64
11280,note_on,0,0,9,,,,,,,,5,,,,62,92
11280,note_off,720,0,14,,,,,,,,7,,,,52,64
11280,note_on,0,0,14,,,,,,,,7,,,,55,92
11280,note_off,720,0,1,,,,,,,,0,,,,76,64
11280,note_on,0,0,1,,,,,,,,0,,,,74,92
11280,note_on,0,0,5,,,,,,,,3,,,,74,92
11280,note_off,720,0,5,,,,,,,,3,,,,76,64
11280,note_on,0,0,3,,,,,,,,2,,,,74,92
11280,note_on,80,0,17,,,,,,,,10,,,,45,92
11280,note_on,80,0,11,,,,,,,,6,,,,74,92
11280,note_on,80,0,18,,,,,,,,11,,,,74,108
11280,note_on,80,0,20,,,,,,,,13,,,,69,92
11280,note_off,720,0,3,,,,,,,,2,,,,76,64
11400,note_on,0,0,12,,,,,,,,6,,,,69,92
11400,note_on,0,0,2,,,,,,,,0,,,,67,92
11400,note_on,0,0,19,,,,,,,,12,,,,67,92
11400,note_off,360,0,12,,,,,,,,6,,,,76,64
11400,note_on,0,0,13,,,,,,,,7,,,,57,92
11400,note_off,360,0,19,,,,,,,,12,,,,73,64
11400,note_off,360,0,2,,,,,,,,0,,,,73,64
11400,note_off,360,0,13,,,,,,,,7,,,,64,64
11400,note_off,360,0,6,,,,,,,,3,,,,73,64
11400,note_off,360,0,4,,,,,,,,2,,,,73,64
11400,note_on,0,0,4,,,,,,,,2,,,,67,92
11400,note_off,360,0,10,,,,,,,,5,,,,64,64
11400,note_on,0,0,10,,,,,,,,5,,,,57,92
11400,note_on,0,0,6,,,,,,,,3,,,,67,92
11440,note_off,400,0,21,,,,,,,,14,,,,57,64
11440,note_off,400,0,15,,,,,,,,7,,,,45,64
11440,note_off,400,0,22,,,,,,,,15,,,,33,64
11440,note_off,400,0,7,,,,,,,,4,,,,45,64
11440,note_off,400,0,16,,,,,,,,8,,,,33,64
11440,note_off,400,0,8,,,,,,,,4,,,,45,64
11515,note_off,115,0,19,,,,,,,,12,,,,67,64
11515,note_off,235,0,9,,,,,,,,5,,,,62,64
11515,note_off,235,0,5,,,,,,,,3,,,,74,64
11515,note_off,115,0,12,,,,,,,,6,,,,69,64
11515,note_off,235,0,17,,,,,,,,10,,,,45,64
11515,note_off,115,0,4,,,,,,,,2,,,,67,64
11515,note_off,235,0,18,,,,,,,,11,,,,74,64
11515,note_off,235,0,14,,,,,,,,7,,,,55,64
11515,note_off,235,0,20,,,,,,,,13,,,,69,64
11515,note_off,115,0,2,,,,,,,,0,,,,67,64
11515,note_off,235,0,11,,,,,,,,6,,,,74,64
11515,note_off,235,0,3,,,,,,,,2,,,,74,64
11515,note_off,115,0,10,,,,,,,,5,,,,57,64
11515,note_off,115,0,13,,,,,,,,7,,,,57,64
11515,note_off,235,0,1,,,,,,,,0,,,,74,64
11515,note_off,115,0,6,,,,,,,,3,,,,67,64
11520,note_on,5,0,20,,,,,,,,13,,,,69,92
11520,note_on,5,0,19,,,,,,,,12,,,,66,92
11520,note_on,5,0,14,,,,,,,,7,,,,54,92
11520,note_on,5,0,6,,,,,,,,3,,,,66,92
11520,note_on,80,0,22,,,,,,,,15,,,,38,92
11520,note_on,80,0,15,,,,,,,,7,,,,50,92
11520,note_on,5,0,3,,,,,,,,2,,,,74,92
11520,note_on,5,0,18,,,,,,,,11,,,,74,108
11520,note_on,5,0,11,,,,,,,,6,,,,74,92
11520,note_on,5,0,5,,,,,,,,3,,,,74,92
11520,note_on,5,0,9,,,,,,,,5,,,,62,92
11520,note_on,80,0,21,,,,,,,,14,,,,50,92
11520,note_on,5,0,4,,,,,,,,2,,,,66,92
11520,note_on,80,0,8,,,,,,,,4,,,,38,92
11520,note_on,5,0,2,,,,,,,,0,,,,66,92
11520,note_on,5,0,1,,,,,,,,0,,,,74,92
11520,note_on,5,0,12,,,,,,,,6,,,,69,92
11520,note_on,5,0,10,,,,,,,,5,,,,57,92
11520,note_on,80,0,7,,,,,,,,4,,,,50,92
11520,note_on,5,0,17,,,,,,,,10,,,,50,92
11520,note_on,5,0,13,,,,,,,,7,,,,57,92
11520,note_on,80,0,16,,,,,,,,8,,,,38,92
12360,note_off,840,0,19,,,,,,,,12,,,,66,64
12360,note_off,840,0,5,,,,,,,,3,,,,74,64
12360,note_off,840,0,16,,,,,,,,8,,,,38,64
12360,note_off,840,0,10,,,,,,,,5,,,,57,64
12360,note_off,840,0,18,,,,,,,,11,,,,74,64
12360,note_off,840,0,1,,,,,,,,0,,,,74,64
12360,note_off,840,0,21,,,,,,,,14,,,,50,64
12360,note_off,840,0,22,,,,,,,,15,,,,38,64
12360,note_off,840,0,6,,,,,,,,3,,,,66,64
12360,note_off,840,0,11,,,,,,,,6,,,,74,64
12360,note_off,840,0,7,,,,,,,,4,,,,50,64
12360,note_off,840,0,3,,,,,,,,2,,,,74,64
12360,note_off,840,0,12,,,,,,,,6,,,,69,64
12360,note_off,840,0,20,,,,,,,,13,,,,69,64
12360,note_off,840,0,17,,,,,,,,10,,,,50,64
12360,note_off,840,0,15,,,,,,,,7,,,,50,64
12360,note_off,840,0,2,,,,,,,,0,,,,66,64
12360,note_off,840,0,14,,,,,,,,7,,,,54,64
12360,note_off,840,0,4,,,,,,,,2,,,,66,64
12360,note_off,840,0,8,,,,,,,,4,,,,38,64
12360,note_off,840,0,9,,,,,,,,5,,,,62,64
12360,note_off,840,0,13,,,,,,,,7,,,,57,64
12480,note_on,120,0,18,,,,,,,,11,,,,69,108
12480,note_on,120,0,10,,,,,,,,5,,,,54,92
12480,note_on,120,0,5,,,,,,,,3,,,,69,92
12480,note_on,120,0,17,,,,,,,,10,,,,50,92
12480,note_on,120,0,16,,,,,,,,8,,,,50,92
12480,note_on,120,0,22,,,,,,,,15,,,,50,92
12480,note_on,120,0,11,,,,,,,,6,,,,69,92
12480,note_on,120,0,13,,,,,,,,7,,,,57,92
12480,note_on,120,0,7,,,,,,,,4,,,,62,92
12480,note_on,120,0,12,,,,,,,,6,,,,66,92
12480,note_on,120,0,8,,,,,,,,4,,,,50,92
12480,note_on,120,0,3,,,,,,,,2,,,,69,92
12480,note_on,120,0,20,,,,,,,,13,,,,66,92
12480,note_on,120,0,2,,,,,,,,0,,,,66,92
12480,note_on,120,0,21,,,,,,,,14,,,,62,92
12480,note_on,120,0,1,,,,,,,,0,,,,69,92
12480,note_on,120,0,6,,,,,,,,3,,,,66,92
12480,note_on,120,0,9,,,,,,,,5,,,,57,92
12480,note_on,120,0,4,,,,,,,,2,,,,66,92
12480,note_on,120,0,14,,,,,,,,7,,,,54,92
12480,note_on,120,0,19,,,,,,,,12,,,,66,92
12480,note_on,120,0,15,,,,,,,,7,,,,50,92
13120,note_off,640,0,7,,,,,,,,4,,,,62,64
13120,note_off,640,0,6,,,,,,,,3,,,,66,64
13120,note_off,640,0,17,,,,,,,,10,,,,50,64
13120,note_off,640,0,22,,,,,,,,15,,,,50,64
13120,note_off,640,0,12,,,,,,,,6,,,,66,64
13120,note_off,640,0,15,,,,,,,,7,,,,50,64
13120,note_off,640,0,13,,,,,,,,7,,,,57,64
13120,note_off,640,0,2,,,,,,,,0,,,,66,64
13120,note_off,640,0,4,,,,,,,,2,,,,66,64
13120,note_off,640,0,9,,,,,,,,5,,,,57,64
13120,note_off,640,0,16,,,,,,,,8,,,,50,64
13120,note_off,640,0,14,,,,,,,,7,,,,54,64
13120,note_off,640,0,20,,,,,,,,13,,,,66,64
13120,note_off,640,0,10,,,,,,,,5,,,,54,64
13120,note_off,640,0,21,,,,,,,,14,,,,62,64
13120,note_off,640,0,3,,,,,,,,2,,,,69,64
13120,note_off,640,0,18,,,,,,,,11,,,,69,64
13120,note_off,640,0,1,,,,,,,,0,,,,69,64
13120,note_off,640,0,5,,,,,,,,3,,,,69,64
13120,note_off,640,0,19,,,,,,,,12,,,,66,64
13120,note_off,640,0,8,,,,,,,,4,,,,50,64
13120,note_off,640,0,11,,,,,,,,6,,,,69,64
13200,note_on,80,0,8,,,,,,,,4,,,,49,92
13200,note_on,80,0,9,,,,,,,,5,,,,57,92
13200,note_on,80,0,13,,,,,,,,7,,,,57,92
13200,note_on,80,0,20,,,,,,,,13,,,,69,92
13200,note_on,80,0,7,,,,,,,,4,,,,61,92
13200,note_on,80,0,4,,,,,,,,2,,,,66,92
13200,note_on,80,0,22,,,,,,,,15,,,,49,92
13200,note_on,80,0,11,,,,,,,,6,,,,69,92
13200,note_on,80,0,17,,,,,,,,10,,,,50,92
13200,note_on,80,0,15,,,,,,,,7,,,,49,92
13200,note_on,80,0,2,,,,,,,,0,,,,66,92
13200,note_on,80,0,5,,,,,,,,3,,,,69,92
13200,note_on,80,0,21,,,,,,,,14,,,,61,92
13200,note_on,80,0,19,,,,,,,,12,,,,66,92
13200,note_on,80,0,1,,,,,,,,0,,,,69,92
13200,note_on,80,0,6,,,,,,,,3,,,,66,92
13200,note_on,80,0,12,,,,,,,,6,,,,66,92
13200,note_on,80,0,18,,,,,,,,11,,,,69,108
13200,note_on,80,0,16,,,,,,,,8,,,,49,92
13200,note_on,80,0,10,,,,,,,,5,,,,54,92
13200,note_on,80,0,3,,,,,,,,2,,,,69,92
13200,note_on,80,0,14,,,,,,,,7,,,,54,92
13435,note_off,235,0,3,,,,,,,,2,,,,69,64
13435,note_off,235,0,21,,,,,,,,14,,,,61,64
13435,note_off,235,0,20,,,,,,,,13,,,,69,64
13435,note_off,235,0,10,,,,,,,,5,,,,54,64
13435,note_off,235,0,11,,,,,,,,6,,,,69,64
13435,note_off,235,0,9,,,,,,,,5,,,,57,64
13435,note_off,235,0,7,,,,,,,,4,,,,61,64
13435,note_off,235,0,17,,,,,,,,10,,,,50,64
13435,note_off,235,0,4,,,,,,,,2,,,,66,64
13435,note_off,235,0,13,,,,,,,,7,,,,57,64
13435,note_off,235,0,2,,,,,,,,0,,,,66,64
13435,note_off,235,0,15,,,,,,,,7,,,,49,64
13435,note_off,235,0,5,,,,,,,,3,,,,69,64
13435,note_off,235,0,19,,,,,,,,12,,,,66,64
13435,note_off,235,0,6,,,,,,,,3,,,,66,64
13435,note_off,235,0,18,,,,,,,,11,,,,69,64
13435,note_off,235,0,16,,,,,,,,8,,,,49,64
13435,note_off,235,0,8,,,,,,,,4,,,,49,64
13435,note_off,235,0,14,,,,,,,,7,,,,54,64
13435,note_off,235,0,22,,,,,,,,15,,,,49,64
13435,note_off,235,0,12,,,,,,,,6,,,,66,64
13435,note_off,235,0,1,,,,,,,,0,,,,69,64
13440,note_on,5,0,17,,,,,,,,10,,,,50,92
13440,note_on,5,0,8,,,,,,,,4,,,,47,92
13440,note_on,5,0,16,,,,,,,,8,,,,47,92
13440,note_on,5,0,6,,,,,,,,3,,,,71,92
13440,note_on,5,0,7,,,,,,,,4,,,,59,92
13440,note_on,5,0,4,,,,,,,,2,,,,71,92
13440,note_on,5,0,21,,,,,,,,14,,,,59,92
13440,note_on,5,0,5,,,,,,,,3,,,,74,92
13440,note_on,5,0,15,,,,,,,,7,,,,47,92
13440,note_on,5,0,19,,,,,,,,12,,,,66,92
13440,note_on,5,0,11,,,,,,,,6,,,,74,92
13440,note_on,5,0,9,,,,,,,,5,,,,62,92
13440,note_on,5,0,2,,,,,,,,0,,,,71,92
13440,note_on,5,0,3,,,,,,,,2,,,,74,92
13440,note_on,5,0,18,,,,,,,,11,,,,74,108
13440,note_on,5,0,12,,,,,,,,6,,,,71,92
13440,note_on,5,0,1,,,,,,,,0,,,,74,92
13440,note_on,5,0,10,,,,,,,,5,,,,54,92
13440,note_on,5,0,14,,,,,,,,7,,,,54,92
13440,note_on,5,0,20,,,,,,,,13,,,,71,92
13440,note_on,5,0,22,,,,,,,,15,,,,47,92
13440,note_on,5,0,13,,,,,,,,7,,,,59,92
14080,note_off,640,0,22,,,,,,,,15,,,,47,64
14080,note_off,640,0,17,,,,,,,,10,,,,50,64
14080,note_off,640,0,21,,,,,,,,14,,,,59,64
14080,note_off,640,0,4,,,,,,,,2,,,,71,64
14080,note_off,640,0,13,,,,,,,,7,,,,59,64
14080,note_off,640,0,7,,,,,,,,4,,,,59,64
14080,note_off,640,0,10,,,,,,,,5,,,,54,64
14080,note_off,640,0,6,,,,,,,,3,,,,71,64
14080,note_off,640,0,16,,,,,,,,8,,,,47,64
14080,note_off,640,0,8,,,,,,,,4,,,,47,64
14080,note_off,640,0,11,,,,,,,,6,,,,74,64
14080,note_off,640,0,15,,,,,,,,7,,,,47,64
14080,note_off,640,0,5,,,,,,,,3,,,,74,64
14080,note_off,640,0,19,,,,,,,,12,,,,66,64
14080,note_off,640,0,12,,,,,,,,6,,,,71,64
14080,note_off,640,0,9,,,,,,,,5,,,,62,64
14080,note_off,640,0,14,,,,,,,,7,,,,54,64
14080,note_off,640,0,18,,,,,,,,11,,,,74,64
14080,note_off,640,0,2,,,,,,,,0,,,,71,64
14080,note_off,640,0,1,,,,,,,,0,,,,74,64
14080,note_off,640,0,20,,,,,,,,13,,,,71,64
14080,note_off,640,0,3,,,,,,,,2,,,,74,64
14160,note_on,80,0,1,,,,,,,,0,,,,74,92
14160,note_on,80,0,17,,,,,,,,10,,,,50,92
14160,note_on,80,0,22,,,,,,,,15,,,,47,92
14160,note_on,80,0,12,,,,,,,,6,,,,71,92
14160,note_on,80,0,18,,,,,,,,11,,,,74,108
14160,note_on,80,0,6,,,,,,,,3,,,,74,92
14160,note_on,80,0,3,,,,,,,,2,,,,74,92
14160,note_on,80,0,7,,,,,,,,4,,,,59,92
14160,note_on,80,0,14,,,,,,,,7,,,,54,92
14160,note_on,80,0,2,,,,,,,,0,,,,74,92
14160,note_on,80,0,4,,,,,,,,2,,,,74,92
14160,note_on,80,0,10,,,,,,,,5,,,,62,92
14160,note_on,80,0,21,,,,,,,,14,,,,59,92
14160,note_on,80,0,11,,,,,,,,6,,,,74,92
14160,note_on,80,0,16,,,,,,,,8,,,,47,92
14160,note_on,80,0,9,,,,,,,,5,,,,62,92
14160,note_on,80,0,13,,,,,,,,7,,,,59,92
14160,note_on,80,0,5,,,,,,,,3,,,,74,92
14160,note_on,80,0,8,,,,,,,,4,,,,47,92
14160,note_on,80,0,20,,,,,,,,13,,,,66,92
14160,note_on,80,0,15,,,,,,,,7,,,,59,92
14160,note_on,80,0,19,,,,,,,,12,,,,69,92
14395,note_off,235,0,22,,,,,,,,15,,,,47,64
14395,note_off,235,0,3,,,,,,,,2,,,,74,64
14395,note_off,235,0,14,,,,,,,,7,,,,54,64
14395,note_off,235,0,16,,,,,,,,8,,,,47,64
14395,note_off,235,0,15,,,,,,,,7,,,,59,64
14395,note_off,235,0,20,,,,,,,,13,,,,66,64
14395,note_off,235,0,4,,,,,,,,2,,,,74,64
14395,note_off,235,0,2,,,,,,,,0,,,,74,64
14395,note_off,235,0,6,,,,,,,,3,,,,74,64
14395,note_off,235,0,21,,,,,,,,14,,,,59,64
14395,note_off,235,0,18,,,,,,,,11,,,,74,64
14395,note_off,235,0,11,,,,,,,,6,,,,74,64
14395,note_off,235,0,1,,,,,,,,0,,,,74,64
14395,note_off,235,0,12,,,,,,,,6,,,,71,64
14395,note_off,235,0,17,,,,,,,,10,,,,50,64
14395,note_off,235,0,10,,,,,,,,5,,,,62,64
14395,note_off,235,0,5,,,,,,,,3,,,,74,64
14395,note_off,235,0,7,,,,,,,,4,,,,59,64
14395,note_off,235,0,8,,,,,,,,4,,,,47,64
14395,note_off,235,0,9,,,,,,,,5,,,,62,64
14395,note_off,235,0,19,,,,,,,,12,,,,69,64
14395,note_off,235,0,13,,,,,,,,7,,,,59,64
14400,note_on,5,0,2,,,,,,,,0,,,,73,92
14400,note_on,5,0,9,,,,,,,,5,,,,64,92
14400,note_on,5,0,3,,,,,,,,2,,,,76,92
14400,note_on,5,0,19,,,,,,,,12,,,,73,92
14400,note_on,5,0,5,,,,,,,,3,,,,76,92
14400,note_on,5,0,22,,,,,,,,15,,,,45,92
14400,note_on,5,0,11,,,,,,,,6,,,,76,92
14400,note_on,5,0,4,,,,,,,,2,,,,73,92
14400,note_on,5,0,21,,,,,,,,14,,,,57,92
14400,note_on,5,0,12,,,,,,,,6,,,,69,92
14400,note_on,5,0,15,,,,,,,,7,,,,57,92
14400,note_on,5,0,1,,,,,,,,0,,,,76,92
14400,note_on,5,0,8,,,,,,,,4,,,,45,92
14400,note_on,5,0,7,,,,,,,,4,,,,57,92
14400,note_on,5,0,6,,,,,,,,3,,,,73,92
14400,note_on,5,0,20,,,,,,,,13,,,,64,92
14400,note_on,5,0,18,,,,,,,,11,,,,76,108
14400,note_on,5,0,16,,,,,,,,8,,,,45,92
14400,note_on,5,0,14,,,,,,,,7,,,,57,92
14400,note_on,5,0,17,,,,,,,,10,,,,45,92
14400,note_on,5,0,13,,,,,,,,7,,,,61,92
14400,note_on,5,0,10,,,,,,,,5,,,,61,92
14755,note_off,355,0,9,,,,,,,,5,,,,64,64
14755,note_off,355,0,10,,,,,,,,5,,,,61,64
14755,note_off,355,0,11,,,,,,,,6,,,,76,64
14755,note_off,355,0,1,,,,,,,,0,,,,76,64
14755,note_off,355,0,18,,,,,,,,11,,,,76,64
14755,note_off,355,0,6,,,,,,,,3,,,,73,64
14755,note_off,355,0,2,,,,,,,,0,,,,73,64
14755,note_off,355,0,20,,,,,,,,13,,,,64,64
14755,note_off,355,0,4,,,,,,,,2,,,,73,64
14755,note_off,355,0,3,,,,,,,,2,,,,76,64
14755,note_off,355,0,5,,,,,,,,3,,,,76,64
14755,note_off,355,0,19,,,,,,,,12,,,,73,64
14760,note_on,5,0,2,,,,,,,,0,,,,73,92
14760,note_on,5,0,20,,,,,,,,13,,,,64,92
14760,note_on,5,0,3,,,,,,,,2,,,,76,92
14760,note_on,5,0,10,,,,,,,,5,,,,61,92
14760,note_on,5,0,1,,,,,,,,0,,,,76,92
14760,note_on,5,0,19,,,,,,,,12,,,,73,92
14760,note_on,5,0,9,,,,,,,,5,,,,64,92
14760,note_on,0,0,22,,,,,,,,15,,,,43,92
14760,note_off,360,0,22,,,,,,,,15,,,,45,64
14760,note_on,5,0,18,,,,,,,,11,,,,76,108
14760,note_off,360,0,21,,,,,,,,14,,,,57,64
14760,note_on,0,0,15,,,,,,,,7,,,,55,92
14760,note_off,360,0,16,,,,,,,,8,,,,45,64
14760,note_on,5,0,5,,,,,,,,3,,,,76,92
14760,note_on,5,0,4,,,,,,,,2,,,,73,92
14760,note_off,360,0,15,,,,,,,,7,,,,57,64
14760,note_on,0,0,16,,,,,,,,8,,,,43,92
14760,note_off,360,0,8,,,,,,,,4,,,,45,64
14760,note_on,0,0,8,,,,,,,,4,,,,55,92
14760,note_on,5,0,11,,,,,,,,6,,,,76,92
14760,note_on,0,0,21,,,,,,,,14,,,,55,92
14760,note_on,5,0,6,,,,,,,,3,,,,73,92
14760,note_on,0,0,7,,,,,,,,4,,,,55,92
14760,note_off,360,0,7,,,,,,,,4,,,,57,64
14875,note_off,115,0,4,,,,,,,,2,,,,73,64
14875,note_off,115,0,5,,,,,,,,3,,,,76,64
14875,note_off,115,0,6,,,,,,,,3,,,,73,64
14875,note_off,115,0,11,,,,,,,,6,,,,76,64
14875,note_off,115,0,22,,,,,,,,15,,,,43,64
14875,note_off,115,0,1,,,,,,,,0,,,,76,64
14875,note_off,115,0,15,,,,,,,,7,,,,55,64
14875,note_off,115,0,16,,,,,,,,8,,,,43,64
14875,note_off,115,0,18,,,,,,,,11,,,,76,64
14875,note_off,115,0,21,,,,,,,,14,,,,55,64
14875,note_off,115,0,2,,,,,,,,0,,,,73,64
14875,note_off,115,0,19,,,,,,,,12,,,,73,64
14875,note_off,115,0,20,,,,,,,,13,,,,64,64
14875,note_off,115,0,3,,,,,,,,2,,,,76,64
14875,note_off,115,0,10,,,,,,,,5,,,,61,64
14875,note_off,115,0,9,,,,,,,,5,,,,64,64
14880,note_off,120,0,7,,,,,,,,4,,,,55,64
14880,note_on,5,0,22,,,,,,,,15,,,,42,92
14880,note_on,5,0,9,,,,,,,,5,,,,64,92
14880,note_on,0,0,8,,,,,,,,4,,,,54,92
14880,note_on,5,0,1,,,,,,,,0,,,,76,92
14880,note_on,5,0,21,,,,,,,,14,,,,54,92
14880,note_on,5,0,6,,,,,,,,3,,,,73,92
14880,note_off,120,0,8,,,,,,,,4,,,,55,64
14880,note_on,5,0,16,,,,,,,,8,,,,42,92
14880,note_on,5,0,11,,,,,,,,6,,,,76,92
14880,note_on,5,0,10,,,,,,,,5,,,,61,92
14880,note_on,5,0,19,,,,,,,,12,,,,73,92
14880,note_on,5,0,18,,,,,,,,11,,,,76,108
14880,note_on,5,0,3,,,,,,,,2,,,,76,92
14880,note_on,5,0,4,,,,,,,,2,,,,73,92
14880,note_on,5,0,15,,,,,,,,7,,,,54,92
14880,note_on,0,0,7,,,,,,,,4,,,,54,92
14880,note_on,5,0,20,,,,,,,,13,,,,69,92
14880,note_on,5,0,2,,,,,,,,0,,,,73,92
14880,note_on,5,0,5,,,,,,,,3,,,,76,92
15040,note_off,640,0,12,,,,,,,,6,,,,69,64
15040,note_off,640,0,17,,,,,,,,10,,,,45,64
15040,note_off,640,0,14,,,,,,,,7,,,,57,64
15040,note_off,640,0,13,,,,,,,,7,,,,61,64
15115,note_off,235,0,1,,,,,,,,0,,,,76,64
15115,note_off,235,0,6,,,,,,,,3,,,,73,64
15115,note_off,235,0,9,,,,,,,,5,,,,64,64
15115,note_off,235,0,4,,,,,,,,2,,,,73,64
15115,note_off,235,0,19,,,,,,,,12,,,,73,64
15115,note_off,235,0,5,,,,,,,,3,,,,76,64
15115,note_off,235,0,3,,,,,,,,2,,,,76,64
15115,note_off,235,0,18,,,,,,,,11,,,,76,64
15115,note_off,235,0,10,,,,,,,,5,,,,61,64
15115,note_off,235,0,11,,,,,,,,6,,,,76,64
15115,note_off,235,0,2,,,,,,,,0,,,,73,64
15120,note_on,80,0,13,,,,,,,,7,,,,61,92
15120,note_on,5,0,6,,,,,,,,3,,,,74,92
15120,note_on,80,0,17,,,,,,,,10,,,,45,92
15120,note_on,5,0,10,,,,,,,,5,,,,62,92
15120,note_on,5,0,5,,,,,,,,3,,,,78,92
15120,note_on,5,0,11,,,,,,,,6,,,,78,92
15120,note_on,5,0,18,,,,,,,,11,,,,78,108
15120,note_on,5,0,3,,,,,,,,2,,,,78,92
15120,note_on,80,0,14,,,,,,,,7,,,,57,92
15120,note_on,5,0,1,,,,,,,,0,,,,78,92
15120,note_on,80,0,12,,,,,,,,6,,,,69,92
15120,note_on,5,0,4,,,,,,,,2,,,,74,92
15120,note_on,5,0,9,,,,,,,,5,,,,66,92
15120,note_on,5,0,19,,,,,,,,12,,,,74,92
15120,note_on,5,0,2,,,,,,,,0,,,,74,92
15235,note_off,115,0,11,,,,,,,,6,,,,78,64
15240,note_on,5,0,11,,,,,,,,6,,,,79,92
15240,note_on,0,0,20,,,,,,,,13,,,,67,92
15240,note_off,120,0,18,,,,,,,,11,,,,78,64
15240,note_on,0,0,4,,,,,,,,2,,,,76,92
15240,note_off,360,0,7,,,,,,,,4,,,,54,64
15240,note_on,0,0,7,,,,,,,,4,,,,52,92
15240,note_off,120,0,4,,,,,,,,2,,,,74,64
15240,note_on,0,0,1,,,,,,,,0,,,,79,92
15240,note_off,120,0,9,,,,,,,,5,,,,66,64
15240,note_off,120,0,3,,,,,,,,2,,,,78,64
15240,note_on,0,0,9,,,,,,,,5,,,,67,92
15240,note_off,360,0,20,,,,,,,,13,,,,69,64
15240,note_off,120,0,2,,,,,,,,0,,,,74,64
15240,note_on,0,0,21,,,,,,,,14,,,,52,92
15240,note_off,360,0,21,,,,,,,,14,,,,54,64
15240,note_off,360,0,8,,,,,,,,4,,,,54,64
15240,note_on,0,0,8,,,,,,,,4,,,,52,92
15240,note_on,0,0,16,,,,,,,,8,,,,40,92
15240,note_off,360,0,16,,,,,,,,8,,,,42,64
15240,note_on,0,0,3,,,,,,,,2,,,,79,92
15240,note_off,120,0,1,,,,,,,,0,,,,78,64
15240,note_on,0,0,2,,,,,,,,0,,,,76,92
15240,note_on,0,0,15,,,,,,,,7,,,,52,92
15240,note_off,120,0,19,,,,,,,,12,,,,74,64
15240,note_on,0,0,19,,,,,,,,12,,,,76,92
15240,note_off,120,0,10,,,,,,,,5,,,,62,64
15240,note_on,0,0,6,,,,,,,,3,,,,76,92
15240,note_off,120,0,6,,,,,,,,3,,,,74,64
15240,note_off,360,0,15,,,,,,,,7,,,,54,64
15240,note_off,120,0,5,,,,,,,,3,,,,78,64
15240,note_on,0,0,5,,,,,,,,3,,,,79,92
15240,note_on,0,0,22,,,,,,,,15,,,,40,92
15240,note_off,360,0,22,,,,,,,,15,,,,42,64
15240,note_on,0,0,18,,,,,,,,11,,,,79,108
15240,note_on,0,0,10,,,,,,,,5,,,,64,92
15355,note_off,115,0,21,,,,,,,,14,,,,52,64
15355,note_off,115,0,8,,,,,,,,4,,,,52,64
15355,note_off,115,0,22,,,,,,,,15,,,,40,64
15355,note_off,115,0,19,,,,,,,,12,,,,76,64
15355,note_off,115,0,18,,,,,,,,11,,,,79,64
15355,note_off,115,0,10,,,,,,,,5,,,,64,64
15355,note_off,115,0,20,,,,,,,,13,,,,67,64
15355,note_off,115,0,5,,,,,,,,3,,,,79,64
15355,note_off,115,0,2,,,,,,,,0,,,,76,64
15355,note_off,115,0,7,,,,,,,,4,,,,52,64
15355,note_off,115,0,6,,,,,,,,3,,,,76,64
15355,note_off,115,0,15,,,,,,,,7,,,,52,64
15355,note_off,115,0,16,,,,,,,,8,,,,40,64
15355,note_off,235,0,12,,,,,,,,6,,,,69,64
15355,note_off,115,0,3,,,,,,,,2,,,,79,64
15355,note_off,115,0,4,,,,,,,,2,,,,76,64
15355,note_off,115,0,9,,,,,,,,5,,,,67,64
15355,note_off,115,0,1,,,,,,,,0,,,,79,64
15355,note_off,235,0,14,,,,,,,,7,,,,57,64
15355,note_off,115,0,11,,,,,,,,6,,,,79,64
15355,note_off,235,0,17,,,,,,,,10,,,,45,64
15355,note_off,235,0,13,,,,,,,,7,,,,61,64
15360,note_on,5,0,16,,,,,,,,8,,,,38,92
15360,note_on,5,0,10,,,,,,,,5,,,,57,92
15360,note_on,5,0,13,,,,,,,,7,,,,62,92
15360,note_on,5,0,7,,,,,,,,4,,,,50,92
15360,note_on,5,0,1,,,,,,,,0,,,,78,92
15360,note_on,5,0,18,,,,,,,,11,,,,78,108
15360,note_on,5,0,8,,,,,,,,4,,,,50,92
15360,note_on,5,0,19,,,,,,,,12,,,,69,92
15360,note_on,5,0,11,,,,,,,,6,,,,78,92
15360,note_on,5,0,21,,,,,,,,14,,,,50,92
15360,note_on,5,0,20,,,,,,,,13,,,,74,92
15360,note_on,5,0,9,,,,,,,,5,,,,66,92
15360,note_on,5,0,17,,,,,,,,10,,,,50,92
15360,note_on,5,0,4,,,,,,,,2,,,,69,92
15360,note_on,5,0,22,,,,,,,,15,,,,38,92
15360,note_on,5,0,5,,,,,,,,3,,,,78,92
15360,note_on,5,0,3,,,,,,,,2,,,,78,92
15360,note_on,5,0,15,,,,,,,,7,,,,50,92
15360,note_on,5,0,2,,,,,,,,0,,,,69,92
15360,note_on,5,0,12,,,,,,,,6,,,,74,92
15360,note_on,5,0,6,,,,,,,,3,,,,69,92
15360,note_on,5,0,14,,,,,,,,7,,,,57,92
15760,note_off,400,0,17,,,,,,,,10,,,,50,64
15760,note_off,400,0,9,,,,,,,,5,,,,66,64
15760,note_off,400,0,18,,,,,,,,11,,,,78,64
15760,note_off,400,0,5,,,,,,,,3,,,,78,64
15760,note_off,400,0,8,,,,,,,,4,,,,50,64
15760,note_off,400,0,12,,,,,,,,6,,,,74,64
15760,note_off,400,0,11,,,,,,,,6,,,,78,64
15760,note_off,400,0,14,,,,,,,,7,,,,57,64
15760,note_off,400,0,3,,,,,,,,2,,,,78,64
15760,note_off,400,0,1,,,,,,,,0,,,,78,64
15760,note_off,400,0,13,,,,,,,,7,,,,62,64
15840,note_on,80,0,11,,,,,,,,6,,,,76,92
15840,note_on,80,0,9,,,,,,,,5,,,,64,92
15840,note_on,80,0,1,,,,,,,,0,,,,76,92
15840,note_on,80,0,18,,,,,,,,11,,,,76,108
15840,note_on,80,0,5,,,,,,,,3,,,,76,92
15840,note_on,80,0,12,,,,,,,,6,,,,69,92
15840,note_on,80,0,17,,,,,,,,10,,,,50,92
15840,note_on,80,0,3,,,,,,,,2,,,,76,92
15840,note_on,80,0,14,,,,,,,,7,,,,57,92
15840,note_on,80,0,8,,,,,,,,4,,,,38,92
15840,note_on,80,0,13,,,,,,,,7,,,,66,92
16000,note_off,640,0,20,,,,,,,,13,,,,74,64
16000,note_off,640,0,6,,,,,,,,3,,,,69,64
16000,note_off,640,0,10,,,,,,,,5,,,,57,64
16000,note_off,640,0,2,,,,,,,,0,,,,69,64
16000,note_off,640,0,4,,,,,,,,2,,,,69,64
16000,note_off,640,0,19,,,,,,,,12,,,,69,64
16080,note_off,240,0,18,,,,,,,,11,,,,76,64
16080,note_on,0,0,18,,,,,,,,11,,,,74,108
16080,note_on,80,0,20,,,,,,,,13,,,,69,92
16080,note_on,0,0,5,,,,,,,,3,,,,74,92
16080,note_on,80,0,6,,,,,,,,3,,,,66,92
16080,note_on,80,0,10,,,,,,,,5,,,,66,92
16080,note_on,80,0,4,,,,,,,,2,,,,66,92
16080,note_on,80,0,2,,,,,,,,0,,,,66,92
16080,note_on,80,0,19,,,,,,,,12,,,,66,92
16080,note_on,0,0,1,,,,,,,,0,,,,74,92
16080,note_off,240,0,1,,,,,,,,0,,,,76,64
16080,note_on,0,0,3,,,,,,,,2,,,,74,92
16080,note_off,240,0,3,,,,,,,,2,,,,76,64
16080,note_off,240,0,5,,,,,,,,3,,,,76,64
16200,note_on,0,0,11,,,,,,,,6,,,,74,92
16200,note_off,840,0,16,,,,,,,,8,,,,38,64
16200,note_off,840,0,22,,,,,,,,15,,,,38,64
16200,note_off,840,0,21,,,,,,,,14,,,,50,64
16200,note_off,360,0,11,,,,,,,,6,,,,76,64
16200,note_off,360,0,9,,,,,,,,5,,,,64,64
16200,note_on,0,0,9,,,,,,,,5,,,,62,92
16200,note_off,840,0,15,,,,,,,,7,,,,50,64
16200,note_off,840,0,7,,,,,,,,4,,,,50,64
16240,note_off,400,0,12,,,,,,,,6,,,,69,64
16240,note_off,400,0,13,,,,,,,,7,,,,66,64
16240,note_off,400,0,8,,,,,,,,4,,,,38,64
16240,note_off,400,0,14,,,,,,,,7,,,,57,64
16240,note_off,400,0,17,,,,,,,,10,,,,50,64
16315,note_off,235,0,6,,,,,,,,3,,,,66,64
16315,note_off,235,0,2,,,,,,,,0,,,,66,64
16315,note_off,235,0,5,,,,,,,,3,,,,74,64
16315,note_off,235,0,19,,,,,,,,12,,,,66,64
16315,note_off,235,0,10,,,,,,,,5,,,,66,64
16315,note_off,235,0,3,,,,,,,,2,,,,74,64
16315,note_off,235,0,20,,,,,,,,13,,,,69,64
16315,note_off,235,0,4,,,,,,,,2,,,,66,64
16315,note_off,235,0,18,,,,,,,,11,,,,74,64
16315,note_off,235,0,1,,,,,,,,0,,,,74,64
16315,note_off,115,0,9,,,,,,,,5,,,,62,64
16315,note_off,115,0,11,,,,,,,,6,,,,74,64
16320,note_on,120,0,16,,,,,,,,8,,,,42,92
16320,note_on,80,0,17,,,,,,,,10,,,,50,92
16320,note_on,80,0,8,,,,,,,,4,,,,54,92
16320,note_on,5,0,6,,,,,,,,3,,,,73,92
16320,note_on,80,0,13,,,,,,,,7,,,,66,92
16320,note_on,120,0,7,,,,,,,,4,,,,54,92
16320,note_on,5,0,5,,,,,,,,3,,,,81,92
16320,note_on,5,0,19,,,,,,,,12,,,,73,92
16320,note_on,5,0,9,,,,,,,,5,,,,69,92
16320,note_on,5,0,18,,,,,,,,11,,,,81,108
16320,note_on,120,0,21,,,,,,,,14,,,,54,92
16320,note_on,5,0,4,,,,,,,,2,,,,73,92
16320,note_on,80,0,12,,,,,,,,6,,,,78,92
16320,note_on,5,0,10,,,,,,,,5,,,,61,92
16320,note_on,120,0,22,,,,,,,,15,,,,42,92
16320,note_on,5,0,3,,,,,,,,2,,,,81,92
16320,note_on,80,0,14,,,,,,,,7,,,,57,92
16320,note_on,5,0,11,,,,,,,,6,,,,81,92
16320,note_on,120,0,15,,,,,,,,7,,,,54,92
16320,note_on,5,0,2,,,,,,,,0,,,,73,92
16320,note_on,5,0,20,,,,,,,,13,,,,78,92
16320,note_on,5,0,1,,,,,,,,0,,,,81,92
16720,note_off,400,0,16,,,,,,,,8,,,,42,64
16720,note_off,400,0,15,,,,,,,,7,,,,54,64
16720,note_off,400,0,17,,,,,,,,10,,,,50,64
16720,note_off,400,0,7,,,,,,,,4,,,,54,64
16720,note_off,400,0,8,,,,,,,,4,,,,54,64
16720,note_off,400,0,21,,,,,,,,14,,,,54,64
16720,note_off,400,0,22,,,,,,,,15,,,,42,64
16800,note_on,80,0,7,,,,,,,,4,,,,55,92
16800,note_on,80,0,15,,,,,,,,7,,,,55,92
16800,note_on,80,0,21,,,,,,,,14,,,,55,92
16800,note_on,80,0,22,,,,,,,,15,,,,43,92
16800,note_on,80,0,8,,,,,,,,4,,,,55,92
16800,note_on,80,0,16,,,,,,,,8,,,,43,92
16800,note_on,80,0,17,,,,,,,,10,,,,45,92
16960,note_off,640,0,11,,,,,,,,6,,,,81,64
16960,note_off,640,0,5,,,,,,,,3,,,,81,64
16960,note_off,640,0,12,,,,,,,,6,,,,78,64
16960,note_off,640,0,13,,,,,,,,7,,,,66,64
16960,note_off,640,0,1,,,,,,,,0,,,,81,64
16960,note_off,640,0,9,,,,,,,,5,,,,69,64
16960,note_off,640,0,3,,,,,,,,2,,,,81,64
16960,note_off,640,0,18,,,,,,,,11,,,,81,64
16960,note_off,640,0,4,,,,,,,,2,,,,73,64
16960,note_off,640,0,14,,,,,,,,7,,,,57,64
16960,note_off,640,0,19,,,,,,,,12,,,,73,64
16960,note_off,640,0,20,,,,,,,,13,,,,78,64
16960,note_off,640,0,2,,,,,,,,0,,,,73,64
16960,note_off,640,0,10,,,,,,,,5,,,,61,64
16960,note_off,640,0,6,,,,,,,,3,,,,73,64
17040,note_on,80,0,13,,,,,,,,7,,,,66,92
17040,note_on,80,0,19,,,,,,,,12,,,,73,92
17040,note_on,80,0,2,,,,,,,,0,,,,73,92
17040,note_on,80,0,14,,,,,,,,7,,,,57,92
17040,note_on,80,0,6,,,,,,,,3,,,,73,92
17040,note_on,80,0,18,,,,,,,,11,,,,81,108
17040,note_on,80,0,11,,,,,,,,6,,,,81,92
17040,note_on,80,0,9,,,,,,,,5,,,,69,92
17040,note_on,80,0,10,,,,,,,,5,,,,61,92
17040,note_on,80,0,12,,,,,,,,6,,,,78,92
17040,note_on,80,0,5,,,,,,,,3,,,,81,92
17040,note_on,80,0,1,,,,,,,,0,,,,81,92
17040,note_on,80,0,4,,,,,,,,2,,,,73,92
17040,note_on,80,0,20,,,,,,,,13,,,,78,92
17040,note_on,80,0,3,,,,,,,,2,,,,81,92
17155,note_off,355,0,15,,,,,,,,7,,,,55,64
17160,note_on,0,0,8,,,,,,,,4,,,,57,92
17160,note_on,0,0,16,,,,,,,,8,,,,45,92
17160,note_off,360,0,16,,,,,,,,8,,,,43,64
17160,note_on,0,0,22,,,,,,,,15,,,,45,92
17160,note_on,0,0,21,,,,,,,,14,,,,57,92
17160,note_off,360,0,22,,,,,,,,15,,,,43,64
17160,note_off,360,0,8,,,,,,,,4,,,,55,64
17160,note_off,360,0,7,,,,,,,,4,,,,55,64
17160,note_on,0,0,7,,,,,,,,4,,,,57,92
17160,note_off,360,0,21,,,,,,,,14,,,,55,64
17160,note_on,5,0,15,,,,,,,,7,,,,57,92
17200,note_off,400,0,17,,,,,,,,10,,,,45,64
17275,note_off,235,0,20,,,,,,,,13,,,,78,64
17275,note_off,235,0,1,,,,,,,,0,,,,81,64
17275,note_off,235,0,6,,,,,,,,3,,,,73,64
17275,note_off,115,0,7,,,,,,,,4,,,,57,64
17275,note_off,115,0,8,,,,,,,,4,,,,57,64
17275,note_off,235,0,9,,,,,,,,5,,,,69,64
17275,note_off,235,0,11,,,,,,,,6,,,,81,64
17275,note_off,235,0,19,,,,,,,,12,,,,73,64
17275,note_off,115,0,16,,,,,,,,8,,,,45,64
17275,note_off,235,0,12,,,,,,,,6,,,,78,64
17275,note_off,235,0,3,,,,,,,,2,,,,81,64
17275,note_off,115,0,22,,,,,,,,15,,,,45,64
17275,note_off,235,0,4,,,,,,,,2,,,,73,64
17275,note_off,235,0,10,,,,,,,,5,,,,61,64
17275,note_off,235,0,13,,,,,,,,7,,,,66,64
17275,note_off,115,0,15,,,,,,,,7,,,,57,64
17275,note_off,235,0,14,,,,,,,,7,,,,57,64
17275,note_off,235,0,5,,,,,,,,3,,,,81,64
17275,note_off,115,0,21,,,,,,,,14,,,,57,64
17275,note_off,235,0,2,,,,,,,,0,,,,73,64
17275,note_off,235,0,18,,,,,,,,11,,,,81,64
17280,note_on,5,0,14,,,,,,,,7,,,,50,92
17280,note_on,5,0,6,,,,,,,,3,,,,74,92
17280,note_on,5,0,4,,,,,,,,2,,,,74,92
17280,note_on,5,0,10,,,,,,,,5,,,,62,92
17280,note_on,5,0,1,,,,,,,,0,,,,81,92
17280,note_on,5,0,18,,,,,,,,11,,,,81,108
17280,note_on,5,0,22,,,,,,,,15,,,,47,92
17280,note_on,5,0,8,,,,,,,,4,,,,59,92
17280,note_on,5,0,12,,,,,,,,6,,,,78,92
17280,note_on,5,0,20,,,,,,,,13,,,,78,92
17280,note_on,5,0,21,,,,,,,,14,,,,59,92
17280,note_on,5,0,16,,,,,,,,8,,,,47,92
17280,note_on,80,0,17,,,,,,,,10,,,,50,92
17280,note_on,5,0,3,,,,,,,,2,,,,81,92
17280,note_on,5,0,7,,,,,,,,4,,,,59,92
17280,note_on,5,0,15,,,,,,,,7,,,,59,92
17280,note_on,5,0,5,,,,,,,,3,,,,81,92
17280,note_on,5,0,19,,,,,,,,12,,,,74,92
17280,note_on,5,0,2,,,,,,,,0,,,,74,92
17280,note_on,5,0,13,,,,,,,,7,,,,66,92
17280,note_on,5,0,11,,,,,,,,6,,,,81,92
17280,note_on,5,0,9,,,,,,,,5,,,,69,92
17680,note_off,400,0,18,,,,,,,,11,,,,81,64
17680,note_off,400,0,3,,,,,,,,2,,,,81,64
17680,note_off,400,0,9,,,,,,,,5,,,,69,64
17680,note_off,400,0,14,,,,,,,,7,,,,50,64
17680,note_off,400,0,12,,,,,,,,6,,,,78,64
17680,note_off,400,0,11,,,,,,,,6,,,,81,64
17680,note_off,400,0,13,,,,,,,,7,,,,66,64
17680,note_off,400,0,17,,,,,,,,10,,,,50,64
17680,note_off,400,0,1,,,,,,,,0,,,,81,64
17680,note_off,400,0,8,,,,,,,,4,,,,59,64
17680,note_off,400,0,21,,,,,,,,14,,,,59,64
17680,note_off,400,0,5,,,,,,,,3,,,,81,64
17760,note_on,80,0,9,,,,,,,,5,,,,66,92
17760,note_on,80,0,5,,,,,,,,3,,,,78,92
17760,note_on,80,0,1,,,,,,,,0,,,,78,92
17760,note_on,80,0,17,,,,,,,,10,,,,50,92
17760,note_on,80,0,14,,,,,,,,7,,,,62,92
17760,note_on,80,0,18,,,,,,,,11,,,,78,108
17760,note_on,80,0,8,,,,,,,,4,,,,47,92
17760,note_on,80,0,11,,,,,,,,6,,,,78,92
17760,note_on,80,0,3,,,,,,,,2,,,,78,92
17760,note_on,80,0,13,,,,,,,,7,,,,54,92
17760,note_on,80,0,12,,,,,,,,6,,,,66,92
17760,note_on,80,0,21,,,,,,,,14,,,,47,92
17920,note_off,640,0,15,,,,,,,,7,,,,59,64
17920,note_off,640,0,22,,,,,,,,15,,,,47,64
17920,note_off,640,0,16,,,,,,,,8,,,,47,64
17920,note_off,640,0,7,,,,,,,,4,,,,59,64
18000,note_on,80,0,16,,,,,,,,8,,,,47,92
18000,note_off,240,0,3,,,,,,,,2,,,,78,64
18000,note_on,80,0,15,,,,,,,,7,,,,59,92
18000,note_on,0,0,3,,,,,,,,2,,,,74,92
18000,note_on,0,0,5,,,,,,,,3,,,,74,92
18000,note_on,80,0,22,,,,,,,,15,,,,47,92
18000,note_off,240,0,11,,,,,,,,6,,,,78,64
18000,note_on,80,0,7,,,,,,,,4,,,,59,92
18000,note_off,240,0,18,,,,,,,,11,,,,78,64
18000,note_on,0,0,9,,,,,,,,5,,,,62,92
18000,note_off,240,0,9,,,,,,,,5,,,,66,64
18000,note_off,240,0,1,,,,,,,,0,,,,78,64
18000,note_on,0,0,1,,,,,,,,0,,,,74,92
18000,note_on,0,0,11,,,,,,,,6,,,,74,92
18000,note_on,0,0,18,,,,,,,,11,,,,74,108
18000,note_off,240,0,5,,,,,,,,3,,,,78,64
18120,note_off,840,0,19,,,,,,,,12,,,,74,64
18120,note_off,840,0,10,,,,,,,,5,,,,62,64
18120,note_off,840,0,4,,,,,,,,2,,,,74,64
18120,note_off,840,0,20,,,,,,,,13,,,,78,64
18120,note_off,840,0,2,,,,,,,,0,,,,74,64
18120,note_off,840,0,6,,,,,,,,3,,,,74,64
18160,note_off,400,0,17,,,,,,,,10,,,,50,64
18160,note_off,400,0,21,,,,,,,,14,,,,47,64
18160,note_off,400,0,8,,,,,,,,4,,,,47,64
18160,note_off,400,0,14,,,,,,,,7,,,,62,64
18160,note_off,400,0,12,,,,,,,,6,,,,66,64
18160,note_off,400,0,13,,,,,,,,7,,,,54,64
18235,note_off,235,0,15,,,,,,,,7,,,,59,64
18235,note_off,235,0,18,,,,,,,,11,,,,74,64
18235,note_off,235,0,16,,,,,,,,8,,,,47,64
18235,note_off,235,0,5,,,,,,,,3,,,,74,64
18235,note_off,235,0,7,,,,,,,,4,,,,59,64
18235,note_off,235,0,9,,,,,,,,5,,,,62,64
18235,note_off,235,0,1,,,,,,,,0,,,,74,64
18235,note_off,235,0,22,,,,,,,,15,,,,47,64
18235,note_off,235,0,3,,,,,,,,2,,,,74,64
18235,note_off,235,0,11,,,,,,,,6,,,,74,64
18240,note_on,80,0,21,,,,,,,,14,,,,47,92
18240,note_on,120,0,20,,,,,,,,13,,,,71,92
18240,note_on,120,0,2,,,,,,,,0,,,,74,92
18240,note_on,120,0,19,,,,,,,,12,,,,74,92
18240,note_on,5,0,15,,,,,,,,7,,,,59,92
18240,note_on,5,0,1,,,,,,,,0,,,,79,92
18240,note_on,120,0,6,,,,,,,,3,,,,74,92
18240,note_on,5,0,22,,,,,,,,15,,,,47,92
18240,note_on,120,0,4,,,,,,,,2,,,,74,92
18240,note_on,5,0,7,,,,,,,,4,,,,59,92
18240,note_on,80,0,14,,,,,,,,7,,,,55,92
18240,note_on,5,0,16,,,,,,,,8,,,,47,92
18240,note_on,80,0,8,,,,,,,,4,,,,47,92
18240,note_on,5,0,18,,,,,,,,11,,,,79,108
18240,note_on,5,0,11,,,,,,,,6,,,,79,92
18240,note_on,80,0,17,,,,,,,,10,,,,50,92
18240,note_on,80,0,13,,,,,,,,7,,,,62,92
18240,note_on,5,0,9,,,,,,,,5,,,,67,92
18240,note_on,80,0,12,,,,,,,,6,,,,74,92
18240,note_on,5,0,5,,,,,,,,3,,,,79,92
18240,note_on,120,0,10,,,,,,,,5,,,,62,92
18240,note_on,5,0,3,,,,,,,,2,,,,79,92
18640,note_off,400,0,8,,,,,,,,4,,,,47,64
18640,note_off,400,0,22,,,,,,,,15,,,,47,64
18640,note_off,400,0,16,,,,,,,,8,,,,47,64
18640,note_off,400,0,7,,,,,,,,4,,,,59,64
18640,note_off,400,0,13,,,,,,,,7,,,,62,64
18640,note_off,400,0,4,,,,,,,,2,,,,74,64
18640,note_off,400,0,6,,,,,,,,3,,,,74,64
18640,note_off,400,0,12,,,,,,,,6,,,,74,64
18640,note_off,400,0,21,,,,,,,,14,,,,47,64
18640,note_off,400,0,2,,,,,,,,0,,,,74,64
18640,note_off,400,0,19,,,,,,,,12,,,,74,64
18640,note_off,400,0,15,,,,,,,,7,,,,59,64
18640,note_off,400,0,10,,,,,,,,5,,,,62,64
18720,note_on,80,0,19,,,,,,,,12,,,,76,92
18720,note_on,80,0,15,,,,,,,,7,,,,55,92
18720,note_on,80,0,8,,,,,,,,4,,,,43,92
18720,note_on,80,0,6,,,,,,,,3,,,,76,92
18720,note_on,80,0,4,,,,,,,,2,,,,76,92
18720,note_on,80,0,7,,,,,,,,4,,,,55,92
18720,note_on,80,0,22,,,,,,,,15,,,,43,92
18720,note_on,80,0,13,,,,,,,,7,,,,64,92
18720,note_on,80,0,16,,,,,,,,8,,,,43,92
18720,note_on,80,0,10,,,,,,,,5,,,,64,92
18720,note_on,80,0,2,,,,,,,,0,,,,76,92
18720,note_on,80,0,12,,,,,,,,6,,,,76,92
18720,note_on,80,0,21,,,,,,,,14,,,,43,92
18880,note_off,640,0,17,,,,,,,,10,,,,50,64
18880,note_off,640,0,11,,,,,,,,6,,,,79,64
18880,note_off,640,0,18,,,,,,,,11,,,,79,64
18880,note_off,640,0,1,,,,,,,,0,,,,79,64
18880,note_off,640,0,14,,,,,,,,7,,,,55,64
18880,note_off,640,0,20,,,,,,,,13,,,,71,64
18880,note_off,640,0,9,,,,,,,,5,,,,67,64
18880,note_off,640,0,3,,,,,,,,2,,,,79,64
18880,note_off,640,0,5,,,,,,,,3,,,,79,64
18960,note_on,0,0,6,,,,,,,,3,,,,71,92
18960,note_off,240,0,6,,,,,,,,3,,,,76,64
18960,note_off,240,0,15,,,,,,,,7,,,,55,64
18960,note_off,240,0,4,,,,,,,,2,,,,76,64
18960,note_on,0,0,4,,,,,,,,2,,,,71,92
18960,note_on,80,0,11,,,,,,,,6,,,,79,92
18960,note_on,0,0,15,,,,,,,,7,,,,52,92
18960,note_on,80,0,18,,,,,,,,11,,,,79,108
18960,note_on,0,0,10,,,,,,,,5,,,,59,92
18960,note_on,80,0,17,,,,,,,,10,,,,50,92
18960,note_on,80,0,9,,,,,,,,5,,,,67,92
18960,note_on,0,0,7,,,,,,,,4,,,,52,92
18960,note_off,240,0,2,,,,,,,,0,,,,76,64
18960,note_on,0,0,8,,,,,,,,4,,,,40,92
18960,note_off,240,0,7,,,,,,,,4,,,,55,64
18960,note_off,240,0,19,,,,,,,,12,,,,76,64
18960,note_off,240,0,21,,,,,,,,14,,,,43,64
18960,note_on,0,0,21,,,,,,,,14,,,,40,92
18960,note_off,240,0,8,,,,,,,,4,,,,43,64
18960,note_on,80,0,20,,,,,,,,13,,,,64,92
18960,note_on,0,0,22,,,,,,,,15,,,,40,92
18960,note_on,80,0,5,,,,,,,,3,,,,79,92
18960,note_on,0,0,19,,,,,,,,12,,,,71,92
18960,note_off,240,0,22,,,,,,,,15,,,,43,64
18960,note_on,0,0,16,,,,,,,,8,,,,40,92
18960,note_on,80,0,3,,,,,,,,2,,,,79,92
18960,note_on,80,0,14,,,,,,,,7,,,,55,92
18960,note_off,240,0,10,,,,,,,,5,,,,64,64
18960,note_on,0,0,2,,,,,,,,0,,,,71,92
18960,note_off,240,0,16,,,,,,,,8,,,,43,64
18960,note_on,80,0,1,,,,,,,,0,,,,79,92
19120,note_off,400,0,12,,,,,,,,6,,,,76,64
19120,note_off,400,0,13,,,,,,,,7,,,,64,64
19195,note_off,235,0,6,,,,,,,,3,,,,71,64
19195,note_off,235,0,5,,,,,,,,3,,,,79,64
19195,note_off,235,0,17,,,,,,,,10,,,,50,64
19195,note_off,235,0,9,,,,,,,,5,,,,67,64
19195,note_off,235,0,8,,,,,,,,4,,,,40,64
19195,note_off,235,0,14,,,,,,,,7,,,,55,64
19195,note_off,235,0,11,,,,,,,,6,,,,79,64
19195,note_off,235,0,16,,,,,,,,8,,,,40,64
19195,note_off,235,0,1,,,,,,,,0,,,,79,64
19195,note_off,235,0,3,,,,,,,,2,,,,79,64
19195,note_off,235,0,15,,,,,,,,7,,,,52,64
19195,note_off,235,0,18,,,,,,,,11,,,,79,64
19195,note_off,235,0,21,,,,,,,,14,,,,40,64
19195,note_off,235,0,2,,,,,,,,0,,,,71,64
19195,note_off,235,0,22,,,,,,,,15,,,,40,64
19195,note_off,235,0,10,,,,,,,,5,,,,59,64
19195,note_off,235,0,19,,,,,,,,12,,,,71,64
19195,note_off,235,0,20,,,,,,,,13,,,,64,64
19195,note_off,235,0,7,,,,,,,,4,,,,52,64
19195,note_off,235,0,4,,,,,,,,2,,,,71,64
19200,note_on,80,0,12,,,,,,,,6,,,,76,92
19200,note_on,5,0,19,,,,,,,,12,,,,73,92
19200,note_on,5,0,1,,,,,,,,0,,,,79,92
19200,note_on,5,0,21,,,,,,,,14,,,,45,92
19200,note_on,5,0,17,,,,,,,,10,,,,45,92
19200,note_on,5,0,10,,,,,,,,5,,,,64,92
19200,note_on,5,0,14,,,,,,,,7,,,,57,92
19200,note_on,5,0,3,,,,,,,,2,,,,79,92
19200,note_on,5,0,9,,,,,,,,5,,,,67,92
19200,note_on,80,0,13,,,,,,,,7,,,,64,92
19200,note_on,5,0,8,,,,,,,,4,,,,45,92
19200,note_on,5,0,4,,,,,,,,2,,,,73,92
19200,note_on,5,0,16,,,,,,,,8,,,,45,92
19200,note_on,5,0,5,,,,,,,,3,,,,79,92
19200,note_on,5,0,7,,,,,,,,4,,,,57,92
19200,note_on,5,0,6,,,,,,,,3,,,,73,92
19200,note_on,5,0,11,,,,,,,,6,,,,79,92
19200,note_on,5,0,15,,,,,,,,7,,,,57,92
19200,note_on,5,0,2,,,,,,,,0,,,,73,92
19200,note_on,5,0,18,,,,,,,,11,,,,79,108
19200,note_on,5,0,20,,,,,,,,13,,,,76,92
19200,note_on,5,0,22,,,,,,,,15,,,,45,92
19600,note_off,400,0,9,,,,,,,,5,,,,67,64
19600,note_off,400,0,1,,,,,,,,0,,,,79,64
19600,note_off,400,0,18,,,,,,,,11,,,,79,64
19600,note_off,400,0,3,,,,,,,,2,,,,79,64
19600,note_off,400,0,11,,,,,,,,6,,,,79,64
19600,note_off,400,0,5,,,,,,,,3,,,,79,64
19680,note_on,80,0,11,,,,,,,,6,,,,81,92
19680,note_on,80,0,9,,,,,,,,5,,,,69,92
19680,note_on,80,0,1,,,,,,,,0,,,,81,92
19680,note_on,80,0,18,,,,,,,,11,,,,81,108
19680,note_on,80,0,5,,,,,,,,3,,,,81,92
19680,note_on,80,0,3,,,,,,,,2,,,,81,92
19840,note_off,640,0,10,,,,,,,,5,,,,64,64
19840,note_off,640,0,7,,,,,,,,4,,,,57,64
19840,note_off,640,0,6,,,,,,,,3,,,,73,64
19840,note_off,640,0,20,,,,,,,,13,,,,76,64
19840,note_off,640,0,22,,,,,,,,15,,,,45,64
19840,note_off,640,0,2,,,,,,,,0,,,,73,64
19840,note_off,640,0,15,,,,,,,,7,,,,57,64
19840,note_off,640,0,16,,,,,,,,8,,,,45,64
19840,note_off,640,0,19,,,,,,,,12,,,,73,64
19840,note_off,640,0,13,,,,,,,,7,,,,64,64
19840,note_off,640,0,8,,,,,,,,4,,,,45,64
19840,note_off,640,0,12,,,,,,,,6,,,,76,64
19840,note_off,640,0,4,,,,,,,,2,,,,73,64
19840,note_off,640,0,21,,,,,,,,14,,,,45,64
19920,note_on,80,0,15,,,,,,,,7,,,,57,92
19920,note_off,240,0,1,,,,,,,,0,,,,81,64
19920,note_on,0,0,1,,,,,,,,0,,,,76,92
19920,note_on,80,0,12,,,,,,,,6,,,,69,92
19920,note_on,80,0,10,,,,,,,,5,,,,57,92
19920,note_off,240,0,9,,,,,,,,5,,,,69,64
19920,note_on,0,0,9,,,,,,,,5,,,,64,92
19920,note_on,80,0,7,,,,,,,,4,,,,57,92
19920,note_off,240,0,3,,,,,,,,2,,,,81,64
19920,note_on,80,0,20,,,,,,,,13,,,,69,92
19920,note_on,0,0,11,,,,,,,,6,,,,76,92
19920,note_off,240,0,11,,,,,,,,6,,,,81,64
19920,note_on,80,0,13,,,,,,,,7,,,,57,92
19920,note_on,80,0,19,,,,,,,,12,,,,73,92
19920,note_on,80,0,21,,,,,,,,14,,,,45,92
19920,note_on,80,0,6,,,,,,,,3,,,,73,92
19920,note_on,80,0,4,,,,,,,,2,,,,73,92
19920,note_on,0,0,18,,,,,,,,11,,,,76,108
19920,note_on,80,0,16,,,,,,,,8,,,,45,92
19920,note_on,80,0,22,,,,,,,,15,,,,45,92
19920,note_off,240,0,5,,,,,,,,3,,,,81,64
19920,note_on,0,0,5,,,,,,,,3,,,,76,92
19920,note_on,80,0,8,,,,,,,,4,,,,45,92
19920,note_on,0,0,3,,,,,,,,2,,,,76,92
19920,note_on,80,0,2,,,,,,,,0,,,,73,92
19920,note_off,240,0,18,,,,,,,,11,,,,81,64
20040,note_off,840,0,17,,,,,,,,10,,,,45,64
20040,note_off,840,0,14,,,,,,,,7,,,,57,64
20155,note_off,235,0,2,,,,,,,,0,,,,73,64
20155,note_off,235,0,4,,,,,,,,2,,,,73,64
20155,note_off,235,0,21,,,,,,,,14,,,,45,64
20155,note_off,235,0,13,,,,,,,,7,,,,57,64
20155,note_off,235,0,8,,,,,,,,4,,,,45,64
20155,note_off,235,0,15,,,,,,,,7,,,,57,64
20155,note_off,235,0,18,,,,,,,,11,,,,76,64
20155,note_off,235,0,9,,,,,,,,5,,,,64,64
20155,note_off,235,0,20,,,,,,,,13,,,,69,64
20155,note_off,235,0,3,,,,,,,,2,,,,76,64
20155,note_off,235,0,12,,,,,,,,6,,,,69,64
20155,note_off,235,0,5,,,,,,,,3,,,,76,64
20155,note_off,235,0,7,,,,,,,,4,,,,57,64
20155,note_off,235,0,16,,,,,,,,8,,,,45,64
20155,note_off,235,0,1,,,,,,,,0,,,,76,64
20155,note_off,235,0,22,,,,,,,,15,,,,45,64
20155,note_off,235,0,19,,,,,,,,12,,,,73,64
20155,note_off,235,0,11,,,,,,,,6,,,,76,64
20155,note_off,235,0,6,,,,,,,,3,,,,73,64
20155,note_off,235,0,10,,,,,,,,5,,,,57,64
20160,note_on,5,0,1,,,,,,,,0,,,,78,92
20160,note_on,5,0,11,,,,,,,,6,,,,78,92
20160,note_on,5,0,13,,,,,,,,7,,,,57,92
20160,note_on,5,0,6,,,,,,,,3,,,,73,92
20160,note_on,5,0,16,,,,,,,,8,,,,45,92
20160,note_on,5,0,12,,,,,,,,6,,,,69,92
20160,note_on,5,0,20,,,,,,,,13,,,,69,92
20160,note_on,5,0,8,,,,,,,,4,,,,45,92
20160,note_on,5,0,7,,,,,,,,4,,,,57,92
20160,note_on,120,0,14,,,,,,,,7,,,,54,92
20160,note_on,5,0,5,,,,,,,,3,,,,78,92
20160,note_on,5,0,21,,,,,,,,14,,,,45,92
20160,note_on,5,0,3,,,,,,,,2,,,,78,92
20160,note_on,5,0,9,,,,,,,,5,,,,66,92
20160,note_on,5,0,4,,,,,,,,2,,,,73,92
20160,note_on,5,0,10,,,,,,,,5,,,,57,92
20160,note_on,5,0,22,,,,,,,,15,,,,45,92
20160,note_on,5,0,18,,,,,,,,11,,,,78,108
20160,note_on,120,0,17,,,,,,,,10,,,,45,92
20160,note_on,5,0,2,,,,,,,,0,,,,73,92
20160,note_on,5,0,15,,,,,,,,7,,,,57,92
20160,note_on,5,0,19,,,,,,,,12,,,,73,92
20560,note_off,400,0,7,,,,,,,,4,,,,57,64
20560,note_off,400,0,20,,,,,,,,13,,,,69,64
20560,note_off,400,0,10,,,,,,,,5,,,,57,64
20560,note_off,400,0,16,,,,,,,,8,,,,45,64
20560,note_off,400,0,12,,,,,,,,6,,,,69,64
20560,note_off,400,0,4,,,,,,,,2,,,,73,64
20560,note_off,400,0,22,,,,,,,,15,,,,45,64
20560,note_off,400,0,17,,,,,,,,10,,,,45,64
20560,note_off,400,0,19,,,,,,,,12,,,,73,64
20560,note_off,400,0,2,,,,,,,,0,,,,73,64
20560,note_off,400,0,13,,,,,,,,7,,,,57,64
20560,note_off,400,0,6,,,,,,,,3,,,,73,64
20560,note_off,400,0,14,,,,,,,,7,,,,54,64
20560,note_off,400,0,15,,,,,,,,7,,,,57,64
20560,note_off,400,0,21,,,,,,,,14,,,,45,64
20560,note_off,400,0,8,,,,,,,,4,,,,45,64
20640,note_on,80,0,21,,,,,,,,14,,,,42,92
20640,note_on,80,0,10,,,,,,,,5,,,,62,92
20640,note_on,80,0,4,,,,,,,,2,,,,74,92
20640,note_on,80,0,14,,,,,,,,7,,,,57,92
20640,note_on,80,0,12,,,,,,,,6,,,,74,92
20640,note_on,80,0,16,,,,,,,,8,,,,42,92
20640,note_on,80,0,8,,,,,,,,4,,,,42,92
20640,note_on,80,0,17,,,,,,,,10,,,,45,92
20640,note_on,80,0,13,,,,,,,,7,,,,62,92
20640,note_on,80,0,22,,,,,,,,15,,,,42,92
20640,note_on,80,0,20,,,,,,,,13,,,,69,92
20640,note_on,80,0,7,,,,,,,,4,,,,54,92
20640,note_on,80,0,15,,,,,,,,7,,,,54,92
20640,note_on,80,0,6,,,,,,,,3,,,,74,92
20640,note_on,80,0,19,,,,,,,,12,,,,74,92
20640,note_on,80,0,2,,,,,,,,0,,,,74,92
20800,note_off,640,0,3,,,,,,,,2,,,,78,64
20800,note_off,640,0,11,,,,,,,,6,,,,78,64
20800,note_off,640,0,1,,,,,,,,0,,,,78,64
20800,note_off,640,0,5,,,,,,,,3,,,,78,64
20800,note_off,640,0,18,,,,,,,,11,,,,78,64
20800,note_off,640,0,9,,,,,,,,5,,,,66,64
20880,note_on,80,0,18,,,,,,,,11,,,,78,108
20880,note_on,80,0,11,,,,,,,,6,,,,78,92
20880,note_on,0,0,22,,,,,,,,15,,,,38,92
20880,note_off,240,0,22,,,,,,,,15,,,,42,64
20880,note_on,80,0,5,,,,,,,,3,,,,78,92
20880,note_on,0,0,2,,,,,,,,0,,,,69,92
20880,note_on,0,0,19,,,,,,,,12,,,,69,92
20880,note_on,80,0,1,,,,,,,,0,,,,78,92
20880,note_off,240,0,2,,,,,,,,0,,,,74,64
20880,note_on,0,0,16,,,,,,,,8,,,,38,92
20880,note_off,240,0,6,,,,,,,,3,,,,74,64
20880,note_on,0,0,6,,,,,,,,3,,,,69,92
20880,note_on,0,0,7,,,,,,,,4,,,,50,92
20880,note_off,240,0,7,,,,,,,,4,,,,54,64
20880,note_off,240,0,4,,,,,,,,2,,,,74,64
20880,note_off,240,0,15,,,,,,,,7,,,,54,64
20880,note_on,0,0,15,,,,,,,,7,,,,50,92
20880,note_off,240,0,21,,,,,,,,14,,,,42,64
20880,note_off,240,0,16,,,,,,,,8,,,,42,64
20880,note_off,240,0,19,,,,,,,,12,,,,74,64
20880,note_on,0,0,21,,,,,,,,14,,,,38,92
20880,note_on,0,0,8,,,,,,,,4,,,,38,92
20880,note_on,80,0,9,,,,,,,,5,,,,66,92
20880,note_on,0,0,4,,,,,,,,2,,,,69,92
20880,note_on,80,0,3,,,,,,,,2,,,,78,92
20880,note_off,240,0,8,,,,,,,,4,,,,42,64
21040,note_off,400,0,20,,,,,,,,13,,,,69,64
21040,note_off,400,0,17,,,,,,,,10,,,,45,64
21040,note_off,400,0,10,,,,,,,,5,,,,62,64
21040,note_off,400,0,14,,,,,,,,7,,,,57,64
21040,note_off,400,0,12,,,,,,,,6,,,,74,64
21040,note_off,400,0,13,,,,,,,,7,,,,62,64
21115,note_off,235,0,1,,,,,,,,0,,,,78,64
21115,note_off,235,0,8,,,,,,,,4,,,,38,64
21115,note_off,235,0,6,,,,,,,,3,,,,69,64
21115,note_off,235,0,21,,,,,,,,14,,,,38,64
21115,note_off,235,0,9,,,,,,,,5,,,,66,64
21115,note_off,235,0,19,,,,,,,,12,,,,69,64
21115,note_off,235,0,5,,,,,,,,3,,,,78,64
21115,note_off,235,0,22,,,,,,,,15,,,,38,64
21115,note_off,235,0,15,,,,,,,,7,,,,50,64
21115,note_off,235,0,3,,,,,,,,2,,,,78,64
21115,note_off,235,0,2,,,,,,,,0,,,,69,64
21115,note_off,235,0,7,,,,,,,,4,,,,50,64
21115,note_off,235,0,18,,,,,,,,11,,,,78,64
21115,note_off,235,0,11,,,,,,,,6,,,,78,64
21115,note_off,235,0,16,,,,,,,,8,,,,38,64
21115,note_off,235,0,4,,,,,,,,2,,,,69,64
21120,note_on,5,0,9,,,,,,,,5,,,,66,92
21120,note_on,80,0,17,,,,,,,,10,,,,50,92
21120,note_on,80,0,12,,,,,,,,6,,,,74,92
21120,note_on,5,0,16,,,,,,,,8,,,,43,92
21120,note_on,5,0,19,,,,,,,,12,,,,71,92
21120,note_on,80,0,14,,,,,,,,7,,,,59,92
21120,note_on,5,0,22,,,,,,,,15,,,,43,92
21120,note_on,5,0,4,,,,,,,,2,,,,71,92
21120,note_on,5,0,21,,,,,,,,14,,,,43,92
21120,note_on,80,0,10,,,,,,,,5,,,,62,92
21120,note_on,5,0,8,,,,,,,,4,,,,43,92
21120,note_on,5,0,3,,,,,,,,2,,,,78,92
21120,note_on,5,0,15,,,,,,,,7,,,,55,92
21120,note_on,5,0,11,,,,,,,,6,,,,78,92
21120,note_on,5,0,1,,,,,,,,0,,,,78,92
21120,note_on,5,0,5,,,,,,,,3,,,,78,92
21120,note_on,5,0,2,,,,,,,,0,,,,71,92
21120,note_on,5,0,6,,,,,,,,3,,,,71,92
21120,note_on,80,0,20,,,,,,,,13,,,,67,92
21120,note_on,5,0,7,,,,,,,,4,,,,55,92
21120,note_on,5,0,18,,,,,,,,11,,,,78,108
21120,note_on,80,0,13,,,,,,,,7,,,,62,92
21520,note_off,400,0,20,,,,,,,,13,,,,67,64
21600,note_on,80,0,20,,,,,,,,13,,,,71,92
21760,note_off,640,0,8,,,,,,,,4,,,,43,64
21760,note_off,640,0,16,,,,,,,,8,,,,43,64
21760,note_off,640,0,17,,,,,,,,10,,,,50,64
21760,note_off,640,0,7,,,,,,,,4,,,,55,64
21760,note_off,640,0,19,,,,,,,,12,,,,71,64
21760,note_off,640,0,4,,,,,,,,2,,,,71,64
21760,note_off,640,0,14,,,,,,,,7,,,,59,64
21760,note_off,640,0,2,,,,,,,,0,,,,71,64
21760,note_off,640,0,6,,,,,,,,3,,,,71,64
21760,note_off,640,0,15,,,,,,,,7,,,,55,64
21760,note_off,640,0,22,,,,,,,,15,,,,43,64
21760,note_off,640,0,18,,,,,,,,11,,,,78,64
21760,note_off,640,0,21,,,,,,,,14,,,,43,64
21840,note_on,80,0,22,,,,,,,,15,,,,43,92
21840,note_on,0,0,9,,,,,,,,5,,,,64,92
21840,note_on,80,0,6,,,,,,,,3,,,,71,92
21840,note_off,720,0,9,,,,,,,,5,,,,66,64
21840,note_on,80,0,4,,,,,,,,2,,,,71,92
21840,note_on,0,0,13,,,,,,,,7,,,,64,92
21840,note_off,720,0,13,,,,,,,,7,,,,62,64
21840,note_on,0,0,10,,,,,,,,5,,,,64,92
21840,note_off,720,0,10,,,,,,,,5,,,,62,64
21840,note_on,80,0,21,,,,,,,,14,,,,43,92
21840,note_on,80,0,18,,,,,,,,11,,,,79,108
21840,note_on,0,0,5,,,,,,,,3,,,,79,92
21840,note_off,720,0,12,,,,,,,,6,,,,74,64
21840,note_off,720,0,11,,,,,,,,6,,,,78,64
21840,note_on,0,0,11,,,,,,,,6,,,,76,92
21840,note_on,0,0,3,,,,,,,,2,,,,79,92
21840,note_on,80,0,2,,,,,,,,0,,,,71,92
21840,note_off,720,0,3,,,,,,,,2,,,,78,64
21840,note_on,80,0,8,,,,,,,,4,,,,43,92
21840,note_on,80,0,16,,,,,,,,8,,,,43,92
21840,note_on,0,0,12,,,,,,,,6,,,,76,92
21840,note_on,80,0,7,,,,,,,,4,,,,55,92
21840,note_off,720,0,5,,,,,,,,3,,,,78,64
21840,note_on,80,0,19,,,,,,,,12,,,,71,92
21840,note_on,0,0,1,,,,,,,,0,,,,79,92
21840,note_off,720,0,1,,,,,,,,0,,,,78,64
21840,note_on,80,0,15,,,,,,,,7,,,,55,92
21840,note_on,80,0,17,,,,,,,,10,,,,50,92
21840,note_on,80,0,14,,,,,,,,7,,,,59,92
22000,note_off,400,0,20,,,,,,,,13,,,,71,64
22075,note_off,235,0,16,,,,,,,,8,,,,43,64
22075,note_off,235,0,18,,,,,,,,11,,,,79,64
22075,note_off,235,0,6,,,,,,,,3,,,,71,64
22075,note_off,235,0,7,,,,,,,,4,,,,55,64
22075,note_off,235,0,3,,,,,,,,2,,,,79,64
22075,note_off,235,0,21,,,,,,,,14,,,,43,64
22075,note_off,235,0,1,,,,,,,,0,,,,79,64
22075,note_off,235,0,15,,,,,,,,7,,,,55,64
22075,note_off,235,0,4,,,,,,,,2,,,,71,64
22075,note_off,235,0,13,,,,,,,,7,,,,64,64
22075,note_off,235,0,14,,,,,,,,7,,,,59,64
22075,note_off,235,0,12,,,,,,,,6,,,,76,64
22075,note_off,235,0,11,,,,,,,,6,,,,76,64
22075,note_off,235,0,5,,,,,,,,3,,,,79,64
22075,note_off,235,0,10,,,,,,,,5,,,,64,64
22075,note_off,235,0,22,,,,,,,,15,,,,43,64
22075,note_off,235,0,17,,,,,,,,10,,,,50,64
22075,note_off,235,0,8,,,,,,,,4,,,,43,64
22075,note_off,235,0,9,,,,,,,,5,,,,64,64
22075,note_off,235,0,2,,,,,,,,0,,,,71,64
22075,note_off,235,0,19,,,,,,,,12,,,,71,64
22080,note_on,5,0,22,,,,,,,,15,,,,44,92
22080,note_on,5,0,4,,,,,,,,2,,,,71,92
22080,note_on,80,0,20,,,,,,,,13,,,,64,92
22080,note_on,5,0,19,,,,,,,,12,,,,71,92
22080,note_on,5,0,14,,,,,,,,7,,,,59,92
22080,note_on,5,0,10,,,,,,,,5,,,,64,92
22080,note_on,5,0,17,,,,,,,,10,,,,50,92
22080,note_on,5,0,6,,,,,,,,3,,,,71,92
22080,note_on,5,0,21,,,,,,,,14,,,,44,92
22080,note_on,5,0,15,,,,,,,,7,,,,56,92
22080,note_on,5,0,5,,,,,,,,3,,,,76,92
22080,note_on,5,0,7,,,,,,,,4,,,,56,92
22080,note_on,5,0,8,,,,,,,,4,,,,44,92
22080,note_on,5,0,1,,,,,,,,0,,,,76,92
22080,note_on,5,0,12,,,,,,,,6,,,,76,92
22080,note_on,5,0,9,,,,,,,,5,,,,71,92
22080,note_on,5,0,3,,,,,,,,2,,,,76,92
22080,note_on,5,0,18,,,,,,,,11,,,,76,108
22080,note_on,5,0,2,,,,,,,,0,,,,71,92
22080,note_on,5,0,11,,,,,,,,6,,,,83,92
22080,note_on,5,0,13,,,,,,,,7,,,,64,92
22080,note_on,5,0,16,,,,,,,,8,,,,44,92
22720,note_off,640,0,19,,,,,,,,12,,,,71,64
22720,note_off,640,0,15,,,,,,,,7,,,,56,64
22720,note_off,640,0,12,,,,,,,,6,,,,76,64
22720,note_off,640,0,7,,,,,,,,4,,,,56,64
22720,note_off,640,0,4,,,,,,,,2,,,,71,64
22720,note_off,640,0,21,,,,,,,,14,,,,44,64
22720,note_off,640,0,6,,,,,,,,3,,,,71,64
22720,note_off,640,0,13,,,,,,,,7,,,,64,64
22720,note_off,640,0,10,,,,,,,,5,,,,64,64
22720,note_off,640,0,14,,,,,,,,7,,,,59,64
22720,note_off,640,0,2,,,,,,,,0,,,,71,64
22720,note_off,640,0,17,,,,,,,,10,,,,50,64
22720,note_off,640,0,8,,,,,,,,4,,,,44,64
22720,note_off,640,0,18,,,,,,,,11,,,,76,64
22720,note_off,640,0,20,,,,,,,,13,,,,64,64
22720,note_off,640,0,22,,,,,,,,15,,,,44,64
22720,note_off,640,0,16,,,,,,,,8,,,,44,64
22800,note_off,720,0,3,,,,,,,,2,,,,76,64
22800,note_on,80,0,8,,,,,,,,4,,,,44,92
22800,note_on,0,0,3,,,,,,,,2,,,,74,92
22800,note_on,0,0,1,,,,,,,,0,,,,74,92
22800,note_off,720,0,9,,,,,,,,5,,,,71,64
22800,note_on,0,0,9,,,,,,,,5,,,,64,92
22800,note_on,80,0,21,,,,,,,,14,,,,44,92
22800,note_on,80,0,20,,,,,,,,13,,,,64,92
22800,note_on,80,0,15,,,,,,,,7,,,,56,92
22800,note_off,720,0,5,,,,,,,,3,,,,76,64
22800,note_on,0,0,5,,,,,,,,3,,,,74,92
22800,note_on,80,0,17,,,,,,,,10,,,,50,92
22800,note_on,80,0,22,,,,,,,,15,,,,44,92
22800,note_on,80,0,19,,,,,,,,12,,,,71,92
22800,note_on,80,0,2,,,,,,,,0,,,,71,92
22800,note_on,80,0,12,,,,,,,,6,,,,71,92
22800,note_on,80,0,10,,,,,,,,5,,,,64,92
22800,note_on,80,0,13,,,,,,,,7,,,,64,92
22800,note_off,720,0,1,,,,,,,,0,,,,76,64
22800,note_off,720,0,11,,,,,,,,6,,,,83,64
22800,note_on,80,0,18,,,,,,,,11,,,,74,108
22800,note_on,80,0,16,,,,,,,,8,,,,44,92
22800,note_on,80,0,14,,,,,,,,7,,,,59,92
22800,note_on,80,0,6,,,,,,,,3,,,,71,92
22800,note_on,80,0,4,,,,,,,,2,,,,71,92
22800,note_on,0,0,11,,,,,,,,6,,,,76,92
22800,note_on,80,0,7,,,,,,,,4,,,,56,92
23035,note_off,235,0,18,,,,,,,,11,,,,74,64
23035,note_off,235,0,3,,,,,,,,2,,,,74,64
23035,note_off,235,0,21,,,,,,,,14,,,,44,64
23035,note_off,235,0,7,,,,,,,,4,,,,56,64
23035,note_off,235,0,19,,,,,,,,12,,,,71,64
23035,note_off,235,0,4,,,,,,,,2,,,,71,64
23035,note_off,235,0,1,,,,,,,,0,,,,74,64
23035,note_off,235,0,14,,,,,,,,7,,,,59,64
23035,note_off,235,0,5,,,,,,,,3,,,,74,64
23035,note_off,235,0,9,,,,,,,,5,,,,64,64
23035,note_off,235,0,11,,,,,,,,6,,,,76,64
23035,note_off,235,0,10,,,,,,,,5,,,,64,64
23035,note_off,235,0,2,,,,,,,,0,,,,71,64
23035,note_off,235,0,8,,,,,,,,4,,,,44,64
23035,note_off,235,0,17,,,,,,,,10,,,,50,64
23035,note_off,235,0,20,,,,,,,,13,,,,64,64
23035,note_off,235,0,22,,,,,,,,15,,,,44,64
23035,note_off,235,0,16,,,,,,,,8,,,,44,64
23035,note_off,235,0,13,,,,,,,,7,,,,64,64
23035,note_off,235,0,15,,,,,,,,7,,,,56,64
23035,note_off,235,0,6,,,,,,,,3,,,,71,64
23035,note_off,235,0,12,,,,,,,,6,,,,71,64
23040,note_on,5,0,7,,,,,,,,4,,,,57,92
23040,note_on,5,0,15,,,,,,,,7,,,,57,92
23040,note_on,5,0,8,,,,,,,,4,,,,45,92
23040,note_on,5,0,14,,,,,,,,7,,,,57,92
23040,note_on,5,0,12,,,,,,,,6,,,,69,92
23040,note_on,5,0,1,,,,,,,,0,,,,73,92
23040,note_on,5,0,9,,,,,,,,5,,,,64,92
23040,note_on,5,0,2,,,,,,,,0,,,,64,92
23040,note_on,5,0,16,,,,,,,,8,,,,45,92
23040,note_on,5,0,19,,,,,,,,12,,,,64,92
23040,note_on,5,0,17,,,,,,,,10,,,,45,92
23040,note_on,5,0,5,,,,,,,,3,,,,73,92
23040,note_on,5,0,22,,,,,,,,15,,,,45,92
23040,note_on,5,0,13,,,,,,,,7,,,,61,92
23040,note_on,5,0,18,,,,,,,,11,,,,73,108
23040,note_on,5,0,6,,,,,,,,3,,,,64,92
23040,note_on,5,0,4,,,,,,,,2,,,,64,92
23040,note_on,5,0,21,,,,,,,,14,,,,45,92
23040,note_on,5,0,20,,,,,,,,13,,,,69,92
23040,note_on,5,0,3,,,,,,,,2,,,,73,92
23040,note_on,5,0,11,,,,,,,,6,,,,76,92
23040,note_on,5,0,10,,,,,,,,5,,,,57,92
23440,note_off,400,0,18,,,,,,,,11,,,,73,64
23440,note_off,400,0,3,,,,,,,,2,,,,73,64
23440,note_off,400,0,5,,,,,,,,3,,,,73,64
23440,note_off,400,0,1,,,,,,,,0,,,,73,64
23520,note_on,80,0,3,,,,,,,,2,,,,71,92
23520,note_on,80,0,5,,,,,,,,3,,,,71,92
23520,note_on,80,0,1,,,,,,,,0,,,,71,92
23520,note_on,80,0,18,,,,,,,,11,,,,71,108
23760,note_off,240,0,1,,,,,,,,0,,,,71,64
23760,note_off,240,0,3,,,,,,,,2,,,,71,64
23760,note_off,240,0,18,,,,,,,,11,,,,71,64
23760,note_on,0,0,3,,,,,,,,2,,,,69,92
23760,note_on,0,0,1,,,,,,,,0,,,,69,92
23760,note_on,0,0,5,,,,,,,,3,,,,69,92
23760,note_off,240,0,5,,,,,,,,3,,,,71,64
23760,note_on,0,0,18,,,,,,,,11,,,,69,108
23880,note_off,840,0,19,,,,,,,,12,,,,64,64
23880,note_off,840,0,16,,,,,,,,8,,,,45,64
23880,note_off,840,0,21,,,,,,,,14,,,,45,64
23880,note_off,840,0,9,,,,,,,,5,,,,64,64
23880,note_off,840,0,15,,,,,,,,7,,,,57,64
23880,note_off,840,0,10,,,,,,,,5,,,,57,64
23880,note_off,840,0,22,,,,,,,,15,,,,45,64
23880,note_off,840,0,12,,,,,,,,6,,,,69,64
23880,note_off,840,0,11,,,,,,,,6,,,,76,64
23880,note_off,840,0,4,,,,,,,,2,,,,64,64
23880,note_off,840,0,17,,,,,,,,10,,,,45,64
23880,note_off,840,0,2,,,,,,,,0,,,,64,64
23880,note_off,840,0,6,,,,,,,,3,,,,64,64
23880,note_off,840,0,8,,,,,,,,4,,,,45,64
23880,note_off,840,0,20,,,,,,,,13,,,,69,64
23880,note_off,840,0,13,,,,,,,,7,,,,61,64
23880,note_off,840,0,7,,,,,,,,4,,,,57,64
23880,note_off,840,0,14,,,,,,,,7,,,,57,64
23995,note_off,235,0,18,,,,,,,,11,,,,69,64
23995,note_off,235,0,3,,,,,,,,2,,,,69,64
23995,note_off,235,0,1,,,,,,,,0,,,,69,64
23995,note_off,235,0,5,,,,,,,,3,,,,69,64
24000,note_on,120,0,14,,,,,,,,7,,,,61,92
24000,note_on,5,0,1,,,,,,,,0,,,,76,92
24000,note_on,120,0,19,,,,,,,,12,,,,73,92
24000,note_on,5,0,18,,,,,,,,11,,,,76,108
24000,note_on,120,0,20,,,,,,,,13,,,,69,92
24000,note_on,120,0,21,,,,,,,,14,,,,57,92
24000,note_on,120,0,22,,,,,,,,15,,,,45,92
24000,note_on,120,0,6,,,,,,,,3,,,,73,92
24000,note_on,120,0,2,,,,,,,,0,,,,73,92
24000,note_on,120,0,17,,,,,,,,10,,,,45,92
24000,note_on,120,0,11,,,,,,,,6,,,,76,92
24000,note_on,5,0,5,,,,,,,,3,,,,76,92
24000,note_on,120,0,15,,,,,,,,7,,,,57,92
24000,note_on,120,0,12,,,,,,,,6,,,,73,92
24000,note_on,5,0,3,,,,,,,,2,,,,76,92
24000,note_on,120,0,7,,,,,,,,4,,,,57,92
24000,note_on,120,0,9,,,,,,,,5,,,,73,92
24000,note_on,120,0,10,,,,,,,,5,,,,64,92
24000,note_on,120,0,4,,,,,,,,2,,,,73,92
24000,note_on,120,0,16,,,,,,,,8,,,,45,92
24000,note_on,120,0,13,,,,,,,,7,,,,64,92
24000,note_on,120,0,8,,,,,,,,4,,,,45,92
24640,note_off,640,0,5,,,,,,,,3,,,,76,64
24640,note_off,640,0,9,,,,,,,,5,,,,73,64
24640,note_off,640,0,22,,,,,,,,15,,,,45,64
24640,note_off,640,0,6,,,,,,,,3,,,,73,64
24640,note_off,640,0,17,,,,,,,,10,,,,45,64
24640,note_off,640,0,8,,,,,,,,4,,,,45,64
24640,note_off,640,0,11,,,,,,,,6,,,,76,64
24640,note_off,640,0,18,,,,,,,,11,,,,76,64
24640,note_off,640,0,3,,,,,,,,2,,,,76,64
24640,note_off,640,0,12,,,,,,,,6,,,,73,64
24640,note_off,640,0,1,,,,,,,,0,,,,76,64
24640,note_off,640,0,13,,,,,,,,7,,,,64,64
24640,note_off,640,0,4,,,,,,,,2,,,,73,64
24640,note_off,640,0,14,,,,,,,,7,,,,61,64
24640,note_off,640,0,2,,,,,,,,0,,,,73,64
24640,note_off,640,0,19,,,,,,,,12,,,,73,64
24640,note_off,640,0,20,,,,,,,,13,,,,69,64
24640,note_off,640,0,21,,,,,,,,14,,,,57,64
24640,note_off,640,0,15,,,,,,,,7,,,,57,64
24640,note_off,640,0,10,,,,,,,,5,,,,64,64
24640,note_off,640,0,16,,,,,,,,8,,,,45,64
24640,note_off,640,0,7,,,,,,,,4,,,,57,64
24720,note_on,80,0,7,,,,,,,,4,,,,57,92
24720,note_on,80,0,20,,,,,,,,13,,,,69,92
24720,note_on,80,0,4,,,,,,,,2,,,,73,92
24720,note_on,80,0,2,,,,,,,,0,,,,73,92
24720,note_on,80,0,19,,,,,,,,12,,,,73,92
24720,note_on,80,0,8,,,,,,,,4,,,,45,92
24720,note_on,80,0,5,,,,,,,,3,,,,76,92
24720,note_on,80,0,14,,,,,,,,7,,,,61,92
24720,note_on,80,0,6,,,,,,,,3,,,,73,92
24720,note_on,80,0,11,,,,,,,,6,,,,76,92
24720,note_on,80,0,13,,,,,,,,7,,,,64,92
24720,note_on,80,0,3,,,,,,,,2,,,,76,92
24720,note_on,80,0,18,,,,,,,,11,,,,76,108
24720,note_on,80,0,1,,,,,,,,0,,,,76,92
24720,note_on,80,0,15,,,,,,,,7,,,,57,92
24720,note_on,80,0,16,,,,,,,,8,,,,45,92
24720,note_on,80,0,10,,,,,,,,5,,,,64,92
24720,note_on,80,0,9,,,,,,,,5,,,,73,92
24720,note_on,80,0,22,,,,,,,,15,,,,45,92
24720,note_on,80,0,12,,,,,,,,6,,,,73,92
24720,note_on,80,0,17,,,,,,,,10,,,,45,92
24720,note_on,80,0,21,,,,,,,,14,,,,57,92
24955,note_off,235,0,20,,,,,,,,13,,,,69,64
24955,note_off,235,0,7,,,,,,,,4,,,,57,64
24955,note_off,235,0,3,,,,,,,,2,,,,76,64
24955,note_off,235,0,2,,,,,,,,0,,,,73,64
24955,note_off,235,0,16,,,,,,,,8,,,,45,64
24955,note_off,235,0,9,,,,,,,,5,,,,73,64
24955,note_off,235,0,14,,,,,,,,7,,,,61,64
24955,note_off,235,0,18,,,,,,,,11,,,,76,64
24955,note_off,235,0,21,,,,,,,,14,,,,57,64
24955,note_off,235,0,5,,,,,,,,3,,,,76,64
24955,note_off,235,0,13,,,,,,,,7,,,,64,64
24955,note_off,235,0,17,,,,,,,,10,,,,45,64
24955,note_off,235,0,22,,,,,,,,15,,,,45,64
24955,note_off,235,0,6,,,,,,,,3,,,,73,64
24955,note_off,235,0,19,,,,,,,,12,,,,73,64
24955,note_off,235,0,1,,,,,,,,0,,,,76,64
24955,note_off,235,0,12,,,,,,,,6,,,,73,64
24955,note_off,235,0,8,,,,,,,,4,,,,45,64
24955,note_off,235,0,4,,,,,,,,2,,,,73,64
24955,note_off,235,0,11,,,,,,,,6,,,,76,64
24955,note_off,235,0,15,,,,,,,,7,,,,57,64
24955,note_off,235,0,10,,,,,,,,5,,,,64,64
24960,note_on,5,0,6,,,,,,,,3,,,,73,92
24960,note_on,5,0,14,,,,,,,,7,,,,61,92
24960,note_on,5,0,4,,,,,,,,2,,,,73,92
24960,note_on,5,0,22,,,,,,,,15,,,,45,92
24960,note_on,5,0,15,,,,,,,,7,,,,57,92
24960,note_on,5,0,5,,,,,,,,3,,,,76,92
24960,note_on,5,0,21,,,,,,,,14,,,,57,92
24960,note_on,5,0,18,,,,,,,,11,,,,76,108
24960,note_on,5,0,11,,,,,,,,6,,,,81,92
24960,note_on,5,0,17,,,,,,,,10,,,,45,92
24960,note_on,5,0,1,,,,,,,,0,,,,76,92
24960,note_on,5,0,13,,,,,,,,7,,,,64,92
24960,note_on,5,0,19,,,,,,,,12,,,,73,92
24960,note_on,5,0,10,,,,,,,,5,,,,69,92
24960,note_on,5,0,9,,,,,,,,5,,,,73,92
24960,note_on,5,0,3,,,,,,,,2,,,,76,92
24960,note_on,5,0,8,,,,,,,,4,,,,45,92
24960,note_on,5,0,7,,,,,,,,4,,,,57,92
24960,note_on,5,0,20,,,,,,,,13,,,,69,92
24960,note_on,5,0,12,,,,,,,,6,,,,76,92
24960,note_on,5,0,2,,,,,,,,0,,,,73,92
24960,note_on,5,0,16,,,,,,,,8,,,,45,92
25320,note_on,0,0,2,,,,,,,,0,,,,71,92
25320,note_off,360,0,2,,,,,,,,0,,,,73,64
25320,note_on,0,0,18,,,,,,,,11,,,,74,108
25320,note_off,360,0,18,,,,,,,,11,,,,76,64
25320,note_off,360,0,19,,,,,,,,12,,,,73,64
25320,note_on,0,0,19,,,,,,,,12,,,,71,92
25320,note_on,0,0,4,,,,,,,,2,,,,71,92
25320,note_off,360,0,6,,,,,,,,3,,,,73,64
25320,note_on,0,0,6,,,,,,,,3,,,,71,92
25320,note_off,360,0,4,,,,,,,,2,,,,73,64
25320,note_off,360,0,1,,,,,,,,0,,,,76,64
25320,note_off,360,0,3,,,,,,,,2,,,,76,64
25320,note_on,0,0,3,,,,,,,,2,,,,74,92
25320,note_off,360,0,5,,,,,,,,3,,,,76,64
25320,note_on,0,0,5,,,,,,,,3,,,,74,92
25320,note_on,0,0,1,,,,,,,,0,,,,74,92
25360,note_off,400,0,21,,,,,,,,14,,,,57,64
25360,note_off,400,0,12,,,,,,,,6,,,,76,64
25360,note_off,400,0,22,,,,,,,,15,,,,45,64
25360,note_off,400,0,15,,,,,,,,7,,,,57,64
25360,note_off,400,0,11,,,,,,,,6,,,,81,64
25360,note_off,400,0,17,,,,,,,,10,,,,45,64
25360,note_off,400,0,13,,,,,,,,7,,,,64,64
25360,note_off,400,0,20,,,,,,,,13,,,,69,64
25360,note_off,400,0,7,,,,,,,,4,,,,57,64
25360,note_off,400,0,10,,,,,,,,5,,,,69,64
25360,note_off,400,0,14,,,,,,,,7,,,,61,64
25360,note_off,400,0,8,,,,,,,,4,,,,45,64
25360,note_off,400,0,16,,,,,,,,8,,,,45,64
25435,note_off,115,0,2,,,,,,,,0,,,,71,64
25435,note_off,115,0,19,,,,,,,,12,,,,71,64
25435,note_off,115,0,4,,,,,,,,2,,,,71,64
25435,note_off,115,0,18,,,,,,,,11,,,,74,64
25435,note_off,115,0,6,,,,,,,,3,,,,71,64
25440,note_on,80,0,11,,,,,,,,6,,,,76,92
25440,note_on,5,0,18,,,,,,,,11,,,,73,108
25440,note_on,0,0,5,,,,,,,,3,,,,73,92
25440,note_on,80,0,22,,,,,,,,15,,,,33,92
25440,note_off,120,0,5,,,,,,,,3,,,,74,64
25440,note_on,80,0,17,,,,,,,,10,,,,45,92
25440,note_on,5,0,2,,,,,,,,0,,,,69,92
25440,note_on,5,0,19,,,,,,,,12,,,,69,92
25440,note_on,5,0,6,,,,,,,,3,,,,69,92
25440,note_on,80,0,13,,,,,,,,7,,,,64,92
25440,note_on,80,0,21,,,,,,,,14,,,,45,92
25440,note_on,80,0,16,,,,,,,,8,,,,33,92
25440,note_on,80,0,8,,,,,,,,4,,,,45,92
25440,note_off,120,0,1,,,,,,,,0,,,,74,64
25440,note_on,5,0,4,,,,,,,,2,,,,69,92
25440,note_on,80,0,15,,,,,,,,7,,,,57,92
25440,note_on,0,0,3,,,,,,,,2,,,,73,92
25440,note_off,120,0,3,,,,,,,,2,,,,74,64
25440,note_on,0,0,1,,,,,,,,0,,,,73,92
25440,note_on,80,0,14,,,,,,,,7,,,,61,92
25440,note_on,80,0,10,,,,,,,,5,,,,64,92
25440,note_on,80,0,12,,,,,,,,6,,,,69,92
25440,note_on,80,0,7,,,,,,,,4,,,,45,92
25440,note_on,80,0,20,,,,,,,,13,,,,64,92
25800,note_off,840,0,9,,,,,,,,5,,,,73,64
25840,note_off,400,0,2,,,,,,,,0,,,,69,64
25840,note_off,400,0,19,,,,,,,,12,,,,69,64
25840,note_off,400,0,7,,,,,,,,4,,,,45,64
25840,note_off,400,0,10,,,,,,,,5,,,,64,64
25840,note_off,400,0,13,,,,,,,,7,,,,64,64
25840,note_off,400,0,6,,,,,,,,3,,,,69,64
25840,note_off,400,0,14,,,,,,,,7,,,,61,64
25840,note_off,400,0,3,,,,,,,,2,,,,73,64
25840,note_off,400,0,20,,,,,,,,13,,,,64,64
25840,note_off,400,0,8,,,,,,,,4,,,,45,64
25840,note_off,400,0,5,,,,,,,,3,,,,73,64
25840,note_off,400,0,21,,,,,,,,14,,,,45,64
25840,note_off,400,0,18,,,,,,,,11,,,,73,64
25840,note_off,400,0,12,,,,,,,,6,,,,69,64
25840,note_off,400,0,11,,,,,,,,6,,,,76,64
25840,note_off,400,0,16,,,,,,,,8,,,,33,64
25840,note_off,400,0,17,,,,,,,,10,,,,45,64
25840,note_off,400,0,15,,,,,,,,7,,,,57,64
25840,note_off,400,0,4,,,,,,,,2,,,,69,64
25840,note_off,400,0,22,,,,,,,,15,,,,33,64
25840,note_off,400,0,1,,,,,,,,0,,,,73,64
25920,note_on,80,0,3,,,,,,,,2,,,,76,92
25920,note_on,80,0,21,,,,,,,,14,,,,61,92
25920,note_on,80,0,19,,,,,,,,12,,,,69,92
25920,note_on,80,0,18,,,,,,,,11,,,,76,108
25920,note_on,80,0,20,,,,,,,,13,,,,69,92
25920,note_on,80,0,22,,,,,,,,15,,,,49,92
25920,note_on,80,0,1,,,,,,,,0,,,,76,92
25920,note_on,80,0,4,,,,,,,,2,,,,69,92
25920,note_on,80,0,2,,,,,,,,0,,,,69,92
25920,note_on,80,0,5,,,,,,,,3,,,,76,92
25920,note_on,80,0,6,,,,,,,,3,,,,69,92
26560,note_off,640,0,18,,,,,,,,11,,,,76,64
26560,note_off,640,0,3,,,,,,,,2,,,,76,64
26560,note_off,640,0,21,,,,,,,,14,,,,61,64
26560,note_off,640,0,1,,,,,,,,0,,,,76,64
26560,note_off,640,0,22,,,,,,,,15,,,,49,64
26560,note_off,640,0,2,,,,,,,,0,,,,69,64
26560,note_off,640,0,20,,,,,,,,13,,,,69,64
26560,note_off,640,0,5,,,,,,,,3,,,,76,64
26560,note_off,640,0,19,,,,,,,,12,,,,69,64
26560,note_off,640,0,6,,,,,,,,3,,,,69,64
26560,note_off,640,0,4,,,,,,,,2,,,,69,64
26640,note_on,80,0,22,,,,,,,,15,,,,49,92
26640,note_on,80,0,19,,,,,,,,12,,,,69,92
26640,note_on,80,0,1,,,,,,,,0,,,,76,92
26640,note_on,80,0,4,,,,,,,,2,,,,69,92
26640,note_on,80,0,5,,,,,,,,3,,,,76,92
26640,note_on,80,0,20,,,,,,,,13,,,,69,92
26640,note_on,80,0,21,,,,,,,,14,,,,61,92
26640,note_on,80,0,18,,,,,,,,11,,,,76,108
26640,note_on,80,0,3,,,,,,,,2,,,,76,92
26640,note_on,80,0,6,,,,,,,,3,,,,69,92
26640,note_on,80,0,2,,,,,,,,0,,,,69,92
26875,note_off,235,0,6,,,,,,,,3,,,,69,64
26875,note_off,235,0,1,,,,,,,,0,,,,76,64
26875,note_off,235,0,20,,,,,,,,13,,,,69,64
26875,note_off,235,0,19,,,,,,,,12,,,,69,64
26875,note_off,235,0,22,,,,,,,,15,,,,49,64
26875,note_off,235,0,2,,,,,,,,0,,,,69,64
26875,note_off,235,0,3,,,,,,,,2,,,,76,64
26875,note_off,235,0,21,,,,,,,,14,,,,61,64
26875,note_off,235,0,5,,,,,,,,3,,,,76,64
26875,note_off,235,0,4,,,,,,,,2,,,,69,64
26875,note_off,235,0,18,,,,,,,,11,,,,76,64
26880,note_on,5,0,22,,,,,,,,15,,,,49,92
26880,note_on,5,0,18,,,,,,,,11,,,,76,108
26880,note_on,5,0,21,,,,,,,,14,,,,61,92
26880,note_on,5,0,4,,,,,,,,2,,,,69,92
26880,note_on,5,0,2,,,,,,,,0,,,,69,92
26880,note_on,5,0,1,,,,,,,,0,,,,76,92
26880,note_on,5,0,19,,,,,,,,12,,,,69,92
26880,note_on,5,0,5,,,,,,,,3,,,,76,92
26880,note_on,5,0,3,,,,,,,,2,,,,76,92
26880,note_on,5,0,20,,,,,,,,13,,,,69,92
26880,note_on,5,0,6,,,,,,,,3,,,,69,92
27240,note_off,360,0,18,,,,,,,,11,,,,76,64
27240,note_on,0,0,18,,,,,,,,11,,,,74,108
27240,note_off,360,0,1,,,,,,,,0,,,,76,64
27240,note_on,0,0,21,,,,,,,,14,,,,59,92
27240,note_on,0,0,1,,,,,,,,0,,,,74,92
27240,note_off,360,0,5,,,,,,,,3,,,,76,64
27240,note_on,0,0,5,,,,,,,,3,,,,74,92
27240,note_off,360,0,21,,,,,,,,14,,,,61,64
27240,note_off,360,0,22,,,,,,,,15,,,,49,64
27240,note_off,360,0,3,,,,,,,,2,,,,76,64
27240,note_on,0,0,22,,,,,,,,15,,,,47,92
27240,note_on,0,0,3,,,,,,,,2,,,,74,92
27280,note_off,400,0,19,,,,,,,,12,,,,69,64
27280,note_off,400,0,4,,,,,,,,2,,,,69,64
27280,note_off,400,0,6,,,,,,,,3,,,,69,64
27280,note_off,400,0,2,,,,,,,,0,,,,69,64
27280,note_off,400,0,20,,,,,,,,13,,,,69,64
27355,note_off,115,0,21,,,,,,,,14,,,,59,64
27355,note_off,115,0,22,,,,,,,,15,,,,47,64
27360,note_on,0,0,3,,,,,,,,2,,,,73,92
27360,note_off,120,0,3,,,,,,,,2,,,,74,64
27360,note_on,5,0,22,,,,,,,,15,,,,45,92
27360,note_on,80,0,4,,,,,,,,2,,,,64,92
27360,note_off,120,0,1,,,,,,,,0,,,,74,64
27360,note_off,120,0,18,,,,,,,,11,,,,74,64
27360,note_on,0,0,1,,,,,,,,0,,,,73,92
27360,note_on,80,0,6,,,,,,,,3,,,,64,92
27360,note_on,80,0,19,,,,,,,,12,,,,64,92
27360,note_on,0,0,18,,,,,,,,11,,,,73,108
27360,note_off,120,0,5,,,,,,,,3,,,,74,64
27360,note_on,0,0,5,,,,,,,,3,,,,73,92
27360,note_on,80,0,20,,,,,,,,13,,,,64,92
27360,note_on,80,0,2,,,,,,,,0,,,,64,92
27360,note_on,5,0,21,,,,,,,,14,,,,57,92
27760,note_off,400,0,19,,,,,,,,12,,,,64,64
27760,note_off,400,0,21,,,,,,,,14,,,,57,64
27760,note_off,400,0,5,,,,,,,,3,,,,73,64
27760,note_off,400,0,18,,,,,,,,11,,,,73,64
27760,note_off,400,0,22,,,,,,,,15,,,,45,64
27760,note_off,400,0,20,,,,,,,,13,,,,64,64
27760,note_off,400,0,3,,,,,,,,2,,,,73,64
27760,note_off,400,0,6,,,,,,,,3,,,,64,64
27760,note_off,400,0,4,,,,,,,,2,,,,64,64
27760,note_off,400,0,1,,,,,,,,0,,,,73,64
27760,note_off,400,0,2,,,,,,,,0,,,,64,64
27840,note_on,2000,0,11,,,,,,,,6,,,,76,92
27840,note_on,2000,0,12,,,,,,,,6,,,,73,92
27840,note_on,2000,0,16,,,,,,,,8,,,,45,92
27840,note_on,2000,0,7,,,,,,,,4,,,,57,92
27840,note_on,2000,0,10,,,,,,,,5,,,,64,92
27840,note_on,2000,0,14,,,,,,,,7,,,,61,92
27840,note_on,2000,0,13,,,,,,,,7,,,,64,92
27840,note_on,2000,0,17,,,,,,,,10,,,,45,92
27840,note_on,2000,0,15,,,,,,,,7,,,,57,92
27840,note_on,2040,0,9,,,,,,,,5,,,,73,92
27840,note_on,2000,0,8,,,,,,,,4,,,,45,92
28480,note_off,640,0,12,,,,,,,,6,,,,73,64
28480,note_off,640,0,14,,,,,,,,7,,,,61,64
28480,note_off,640,0,10,,,,,,,,5,,,,64,64
28480,note_off,640,0,13,,,,,,,,7,,,,64,64
28480,note_off,640,0,16,,,,,,,,8,,,,45,64
28480,note_off,640,0,9,,,,,,,,5,,,,73,64
28480,note_off,640,0,11,,,,,,,,6,,,,76,64
28480,note_off,640,0,7,,,,,,,,4,,,,57,64
28480,note_off,640,0,15,,,,,,,,7,,,,57,64
28480,note_off,640,0,8,,,,,,,,4,,,,45,64
28480,note_off,640,0,17,,,,,,,,10,,,,45,64
28560,note_on,80,0,12,,,,,,,,6,,,,73,92
28560,note_on,80,0,11,,,,,,,,6,,,,76,92
28560,note_on,80,0,9,,,,,,,,5,,,,73,92
28560,note_on,80,0,10,,,,,,,,5,,,,64,92
28560,note_on,80,0,7,,,,,,,,4,,,,57,92
28560,note_on,80,0,15,,,,,,,,7,,,,57,92
28560,note_on,80,0,17,,,,,,,,10,,,,45,92
28560,note_on,80,0,16,,,,,,,,8,,,,45,92
28560,note_on,80,0,14,,,,,,,,7,,,,61,92
28560,note_on,80,0,8,,,,,,,,4,,,,45,92
28560,note_on,80,0,13,,,,,,,,7,,,,64,92
28795,note_off,235,0,16,,,,,,,,8,,,,45,64
28795,note_off,235,0,11,,,,,,,,6,,,,76,64
28795,note_off,235,0,10,,,,,,,,5,,,,64,64
28795,note_off,235,0,9,,,,,,,,5,,,,73,64
28795,note_off,235,0,7,,,,,,,,4,,,,57,64
28795,note_off,235,0,17,,,,,,,,10,,,,45,64
28795,note_off,235,0,15,,,,,,,,7,,,,57,64
28795,note_off,235,0,14,,,,,,,,7,,,,61,64
28795,note_off,235,0,8,,,,,,,,4,,,,45,64
28795,note_off,235,0,12,,,,,,,,6,,,,73,64
28795,note_off,235,0,13,,,,,,,,7,,,,64,64
28800,note_on,5,0,16,,,,,,,,8,,,,45,92
28800,note_on,5,0,17,,,,,,,,10,,,,45,92
28800,note_on,5,0,10,,,,,,,,5,,,,69,92
28800,note_on,5,0,11,,,,,,,,6,,,,81,92
28800,note_on,5,0,14,,,,,,,,7,,,,61,92
28800,note_on,5,0,7,,,,,,,,4,,,,57,92
28800,note_on,5,0,8,,,,,,,,4,,,,45,92
28800,note_on,5,0,15,,,,,,,,7,,,,57,92
28800,note_on,5,0,12,,,,,,,,6,,,,73,92
28800,note_on,5,0,9,,,,,,,,5,,,,73,92
28800,note_on,5,0,13,,,,,,,,7,,,,64,92
29200,note_off,400,0,13,,,,,,,,7,,,,64,64
29200,note_off,400,0,12,,,,,,,,6,,,,73,64
29200,note_off,400,0,8,,,,,,,,4,,,,45,64
29200,note_off,400,0,7,,,,,,,,4,,,,57,64
29200,note_off,400,0,14,,,,,,,,7,,,,61,64
29200,note_off,400,0,15,,,,,,,,7,,,,57,64
29200,note_off,400,0,16,,,,,,,,8,,,,45,64
29200,note_off,400,0,17,,,,,,,,10,,,,45,64
29200,note_off,400,0,11,,,,,,,,6,,,,81,64
29200,note_off,400,0,10,,,,,,,,5,,,,69,64
29280,note_on,80,0,13,,,,,,,,7,,,,64,92
29280,note_on,80,0,7,,,,,,,,4,,,,57,92
29280,note_on,80,0,14,,,,,,,,7,,,,61,92
29280,note_on,80,0,15,,,,,,,,7,,,,57,92
29280,note_on,80,0,16,,,,,,,,8,,,,33,92
29280,note_on,80,0,11,,,,,,,,6,,,,76,92
29280,note_on,80,0,12,,,,,,,,6,,,,69,92
29280,note_on,80,0,10,,,,,,,,5,,,,64,92
29280,note_on,80,0,8,,,,,,,,4,,,,45,92
29280,note_on,80,0,17,,,,,,,,10,,,,45,92
29640,note_off,840,0,9,,,,,,,,5,,,,73,64
29680,note_off,400,0,15,,,,,,,,7,,,,57,64
29680,note_off,400,0,14,,,,,,,,7,,,,61,64
29680,note_off,400,0,16,,,,,,,,8,,,,33,64
29680,note_off,400,0,11,,,,,,,,6,,,,76,64
29680,note_off,400,0,7,,,,,,,,4,,,,57,64
29680,note_off,400,0,17,,,,,,,,10,,,,45,64
29680,note_off,400,0,8,,,,,,,,4,,,,45,64
29680,note_off,400,0,13,,,,,,,,7,,,,64,64
29680,note_off,400,0,12,,,,,,,,6,,,,69,64
29680,note_off,400,0,10,,,,,,,,5,,,,64,64
29760,note_on,2000,0,20,,,,,,,,13,,,,73,92
29760,note_on,2000,0,5,,,,,,,,3,,,,76,92
29760,note_on,2000,0,6,,,,,,,,3,,,,73,92
29760,note_on,2000,0,18,,,,,,,,11,,,,76,108
29760,note_on,2000,0,22,,,,,,,,15,,,,45,92
29760,note_on,2000,0,2,,,,,,,,0,,,,73,92
29760,note_on,2000,0,4,,,,,,,,2,,,,73,92
29760,note_on,2000,0,1,,,,,,,,0,,,,76,92
29760,note_on,2000,0,19,,,,,,,,12,,,,73,92
29760,note_on,2000,0,3,,,,,,,,2,,,,76,92
29760,note_on,2000,0,21,,,,,,,,14,,,,57,92
30400,note_off,640,0,4,,,,,,,,2,,,,73,64
30400,note_off,640,0,18,,,,,,,,11,,,,76,64
30400,note_off,640,0,20,,,,,,,,13,,,,73,64
30400,note_off,640,0,3,,,,,,,,2,,,,76,64
30400,note_off,640,0,1,,,,,,,,0,,,,76,64
30400,note_off,640,0,6,,,,,,,,3,,,,73,64
30400,note_off,640,0,21,,,,,,,,14,,,,57,64
30400,note_off,640,0,19,,,,,,,,12,,,,73,64
30400,note_off,640,0,5,,,,,,,,3,,,,76,64
30400,note_off,640,0,22,,,,,,,,15,,,,45,64
30400,note_off,640,0,2,,,,,,,,0,,,,73,64
30480,note_on,80,0,1,,,,,,,,0,,,,76,92
30480,note_on,80,0,3,,,,,,,,2,,,,76,92
30480,note_on,80,0,4,,,,,,,,2,,,,73,92
30480,note_on,80,0,6,,,,,,,,3,,,,73,92
30480,note_on,80,0,2,,,,,,,,0,,,,73,92
30480,note_on,80,0,19,,,,,,,,12,,,,73,92
30480,note_on,80,0,5,,,,,,,,3,,,,76,92
30480,note_on,80,0,18,,,,,,,,11,,,,76,108
30480,note_on,80,0,22,,,,,,,,15,,,,45,92
30480,note_on,80,0,20,,,,,,,,13,,,,73,92
30480,note_on,80,0,21,,,,,,,,14,,,,57,92
30715,note_off,235,0,1,,,,,,,,0,,,,76,64
30715,note_off,235,0,6,,,,,,,,3,,,,73,64
30715,note_off,235,0,18,,,,,,,,11,,,,76,64
30715,note_off,235,0,22,,,,,,,,15,,,,45,64
30715,note_off,235,0,4,,,,,,,,2,,,,73,64
30715,note_off,235,0,21,,,,,,,,14,,,,57,64
30715,note_off,235,0,5,,,,,,,,3,,,,76,64
30715,note_off,235,0,19,,,,,,,,12,,,,73,64
30715,note_off,235,0,3,,,,,,,,2,,,,76,64
30715,note_off,235,0,20,,,,,,,,13,,,,73,64
30715,note_off,235,0,2,,,,,,,,0,,,,73,64
30720,note_on,5,0,21,,,,,,,,14,,,,61,92
30720,note_on,5,0,20,,,,,,,,13,,,,76,92
30720,note_on,5,0,3,,,,,,,,2,,,,81,92
30720,note_on,5,0,4,,,,,,,,2,,,,76,92
30720,note_on,5,0,6,,,,,,,,3,,,,76,92
30720,note_on,5,0,2,,,,,,,,0,,,,76,92
30720,note_on,5,0,18,,,,,,,,11,,,,81,108
30720,note_on,5,0,19,,,,,,,,12,,,,76,92
30720,note_on,5,0,22,,,,,,,,15,,,,49,92
30720,note_on,5,0,1,,,,,,,,0,,,,81,92
30720,note_on,5,0,5,,,,,,,,3,,,,81,92
31080,note_on,0,0,19,,,,,,,,12,,,,74,92
31080,note_off,360,0,19,,,,,,,,12,,,,76,64
31080,note_on,0,0,2,,,,,,,,0,,,,74,92
31080,note_on,0,0,20,,,,,,,,13,,,,74,92
31080,note_on,0,0,6,,,,,,,,3,,,,74,92
31080,note_off,360,0,20,,,,,,,,13,,,,76,64
31080,note_on,0,0,22,,,,,,,,15,,,,47,92
31080,note_on,0,0,21,,,,,,,,14,,,,59,92
31080,note_on,0,0,4,,,,,,,,2,,,,74,92
31080,note_off,360,0,22,,,,,,,,15,,,,49,64
31080,note_off,360,0,4,,,,,,,,2,,,,76,64
31080,note_off,360,0,2,,,,,,,,0,,,,76,64
31080,note_off,360,0,21,,,,,,,,14,,,,61,64
31080,note_off,360,0,6,,,,,,,,3,,,,76,64
31120,note_off,400,0,3,,,,,,,,2,,,,81,64
31120,note_off,400,0,5,,,,,,,,3,,,,81,64
31120,note_off,400,0,1,,,,,,,,0,,,,81,64
31120,note_off,400,0,18,,,,,,,,11,,,,81,64
31195,note_off,115,0,4,,,,,,,,2,,,,74,64
31195,note_off,115,0,2,,,,,,,,0,,,,74,64
31195,note_off,115,0,19,,,,,,,,12,,,,74,64
31195,note_off,115,0,6,,,,,,,,3,,,,74,64
31195,note_off,115,0,21,,,,,,,,14,,,,59,64
31195,note_off,115,0,22,,,,,,,,15,,,,47,64
31195,note_off,115,0,20,,,,,,,,13,,,,74,64
31200,note_on,80,0,3,,,,,,,,2,,,,76,92
31200,note_on,5,0,6,,,,,,,,3,,,,73,92
31200,note_on,5,0,21,,,,,,,,14,,,,57,92
31200,note_on,5,0,22,,,,,,,,15,,,,45,92
31200,note_on,5,0,19,,,,,,,,12,,,,73,92
31200,note_on,80,0,1,,,,,,,,0,,,,76,92
31200,note_on,5,0,4,,,,,,,,2,,,,73,92
31200,note_on,80,0,5,,,,,,,,3,,,,76,92
31200,note_on,5,0,2,,,,,,,,0,,,,73,92
31200,note_on,80,0,18,,,,,,,,11,,,,76,108
31200,note_on,5,0,20,,,,,,,,13,,,,73,92
31600,note_off,400,0,2,,,,,,,,0,,,,73,64
31600,note_off,400,0,5,,,,,,,,3,,,,76,64
31600,note_off,400,0,21,,,,,,,,14,,,,57,64
31600,note_off,400,0,6,,,,,,,,3,,,,73,64
31600,note_off,400,0,18,,,,,,,,11,,,,76,64
31600,note_off,400,0,3,,,,,,,,2,,,,76,64
31600,note_off,400,0,20,,,,,,,,13,,,,73,64
31600,note_off,400,0,19,,,,,,,,12,,,,73,64
31600,note_off,400,0,4,,,,,,,,2,,,,73,64
31600,note_off,400,0,1,,,,,,,,0,,,,76,64
31600,note_off,400,0,22,,,,,,,,15,,,,45,64
31680,note_on,80,0,20,,,,,,,,13,,,,64,92
31680,note_on,80,0,1,,,,,,,,0,,,,76,92
31680,note_on,2000,0,15,,,,,,,,7,,,,57,92
31680,note_on,80,0,5,,,,,,,,3,,,,76,92
31680,note_on,2000,0,12,,,,,,,,6,,,,73,92
31680,note_on,80,0,4,,,,,,,,2,,,,69,92
31680,note_on,2000,0,7,,,,,,,,4,,,,49,92
31680,note_on,2000,0,17,,,,,,,,10,,,,45,92
31680,note_on,80,0,21,,,,,,,,14,,,,49,92
31680,note_on,2000,0,8,,,,,,,,4,,,,49,92
31680,note_on,2000,0,14,,,,,,,,7,,,,61,92
31680,note_on,2000,0,11,,,,,,,,6,,,,76,92
31680,note_on,2040,0,9,,,,,,,,5,,,,73,92
31680,note_on,80,0,19,,,,,,,,12,,,,69,92
31680,note_on,2000,0,13,,,,,,,,7,,,,64,92
31680,note_on,2000,0,16,,,,,,,,8,,,,37,92
31680,note_on,80,0,22,,,,,,,,15,,,,37,92
31680,note_on,80,0,3,,,,,,,,2,,,,76,92
31680,note_on,80,0,6,,,,,,,,3,,,,69,92
31680,note_on,80,0,18,,,,,,,,11,,,,76,108
31680,note_on,80,0,2,,,,,,,,0,,,,69,92
31680,note_on,2000,0,10,,,,,,,,5,,,,64,92
32320,note_off,640,0,11,,,,,,,,6,,,,76,64
32320,note_off,640,0,22,,,,,,,,15,,,,37,64
32320,note_off,640,0,14,,,,,,,,7,,,,61,64
32320,note_off,640,0,12,,,,,,,,6,,,,73,64
32320,note_off,640,0,8,,,,,,,,4,,,,49,64
32320,note_off,640,0,7,,,,,,,,4,,,,49,64
32320,note_off,640,0,19,,,,,,,,12,,,,69,64
32320,note_off,640,0,21,,,,,,,,14,,,,49,64
32320,note_off,640,0,3,,,,,,,,2,,,,76,64
32320,note_off,640,0,13,,,,,,,,7,,,,64,64
32320,note_off,640,0,18,,,,,,,,11,,,,76,64
32320,note_off,640,0,10,,,,,,,,5,,,,64,64
32320,note_off,640,0,5,,,,,,,,3,,,,76,64
32320,note_off,640,0,15,,,,,,,,7,,,,57,64
32320,note_off,640,0,9,,,,,,,,5,,,,73,64
32320,note_off,640,0,20,,,,,,,,13,,,,64,64
32320,note_off,640,0,17,,,,,,,,10,,,,45,64
32320,note_off,640,0,4,,,,,,,,2,,,,69,64
32320,note_off,640,0,1,,,,,,,,0,,,,76,64
32320,note_off,640,0,6,,,,,,,,3,,,,69,64
32320,note_off,640,0,2,,,,,,,,0,,,,69,64
32320,note_off,640,0,16,,,,,,,,8,,,,37,64
32400,note_on,80,0,22,,,,,,,,15,,,,37,92
32400,note_on,80,0,11,,,,,,,,6,,,,76,92
32400,note_on,80,0,17,,,,,,,,10,,,,45,92
32400,note_on,80,0,1,,,,,,,,0,,,,76,92
32400,note_on,80,0,16,,,,,,,,8,,,,37,92
32400,note_on,80,0,21,,,,,,,,14,,,,49,92
32400,note_on,80,0,10,,,,,,,,5,,,,64,92
32400,note_on,80,0,9,,,,,,,,5,,,,73,92
32400,note_on,80,0,7,,,,,,,,4,,,,49,92
32400,note_on,80,0,3,,,,,,,,2,,,,76,92
32400,note_on,80,0,19,,,,,,,,12,,,,69,92
32400,note_on,80,0,4,,,,,,,,2,,,,69,92
32400,note_on,80,0,2,,,,,,,,0,,,,69,92
32400,note_on,80,0,5,,,,,,,,3,,,,76,92
32400,note_on,80,0,13,,,,,,,,7,,,,64,92
32400,note_on,80,0,12,,,,,,,,6,,,,73,92
32400,note_on,80,0,20,,,,,,,,13,,,,64,92
32400,note_on,80,0,14,,,,,,,,7,,,,61,92
32400,note_on,80,0,6,,,,,,,,3,,,,69,92
32400,note_on,80,0,8,,,,,,,,4,,,,49,92
32400,note_on,80,0,15,,,,,,,,7,,,,57,92
32400,note_on,80,0,18,,,,,,,,11,,,,76,108
32635,note_off,235,0,18,,,,,,,,11,,,,76,64
32635,note_off,235,0,17,,,,,,,,10,,,,45,64
32635,note_off,235,0,8,,,,,,,,4,,,,49,64
32635,note_off,235,0,4,,,,,,,,2,,,,69,64
32635,note_off,235,0,15,,,,,,,,7,,,,57,64
32635,note_off,235,0,10,,,,,,,,5,,,,64,64
32635,note_off,235,0,14,,,,,,,,7,,,,61,64
32635,note_off,235,0,22,,,,,,,,15,,,,37,64
32635,note_off,235,0,1,,,,,,,,0,,,,76,64
32635,note_off,235,0,3,,,,,,,,2,,,,76,64
32635,note_off,235,0,2,,,,,,,,0,,,,69,64
32635,note_off,235,0,19,,,,,,,,12,,,,69,64
32635,note_off,235,0,9,,,,,,,,5,,,,73,64
32635,note_off,235,0,21,,,,,,,,14,,,,49,64
32635,note_off,235,0,12,,,,,,,,6,,,,73,64
32635,note_off,235,0,13,,,,,,,,7,,,,64,64
32635,note_off,235,0,11,,,,,,,,6,,,,76,64
32635,note_off,235,0,7,,,,,,,,4,,,,49,64
32635,note_off,235,0,5,,,,,,,,3,,,,76,64
32635,note_off,235,0,6,,,,,,,,3,,,,69,64
32635,note_off,235,0,16,,,,,,,,8,,,,37,64
32635,note_off,235,0,20,,,,,,,,13,,,,64,64
32640,note_on,5,0,9,,,,,,,,5,,,,73,92
32640,note_on,5,0,5,,,,,,,,3,,,,81,92
32640,note_on,5,0,12,,,,,,,,6,,,,78,92
32640,note_on,5,0,22,,,,,,,,15,,,,42,92
32640,note_on,5,0,14,,,,,,,,7,,,,61,92
32640,note_on,5,0,13,,,,,,,,7,,,,66,92
32640,note_on,5,0,15,,,,,,,,7,,,,57,92
32640,note_on,5,0,20,,,,,,,,13,,,,66,92
32640,note_on,5,0,3,,,,,,,,2,,,,81,92
32640,note_on,5,0,19,,,,,,,,12,,,,73,92
32640,note_on,5,0,18,,,,,,,,11,,,,81,108
32640,note_on,5,0,10,,,,,,,,5,,,,69,92
32640,note_on,5,0,21,,,,,,,,14,,,,54,92
32640,note_on,5,0,8,,,,,,,,4,,,,54,92
32640,note_on,5,0,7,,,,,,,,4,,,,54,92
32640,note_on,5,0,16,,,,,,,,8,,,,42,92
32640,note_on,5,0,1,,,,,,,,0,,,,81,92
32640,note_on,5,0,11,,,,,,,,6,,,,81,92
32640,note_on,5,0,17,,,,,,,,10,,,,45,92
32640,note_on,5,0,6,,,,,,,,3,,,,73,92
32640,note_on,5,0,4,,,,,,,,2,,,,73,92
32640,note_on,5,0,2,,,,,,,,0,,,,73,92
33040,note_off,400,0,7,,,,,,,,4,,,,54,64
33040,note_off,400,0,20,,,,,,,,13,,,,66,64
33040,note_off,400,0,11,,,,,,,,6,,,,81,64
33040,note_off,400,0,22,,,,,,,,15,,,,42,64
33040,note_off,400,0,9,,,,,,,,5,,,,73,64
33040,note_off,400,0,12,,,,,,,,6,,,,78,64
33040,note_off,400,0,13,,,,,,,,7,,,,66,64
33040,note_off,400,0,19,,,,,,,,12,,,,73,64
33040,note_off,400,0,21,,,,,,,,14,,,,54,64
33040,note_off,400,0,2,,,,,,,,0,,,,73,64
33040,note_off,400,0,16,,,,,,,,8,,,,42,64
33040,note_off,400,0,17,,,,,,,,10,,,,45,64
33040,note_off,400,0,10,,,,,,,,5,,,,69,64
33040,note_off,400,0,4,,,,,,,,2,,,,73,64
33040,note_off,400,0,15,,,,,,,,7,,,,57,64
33040,note_off,400,0,14,,,,,,,,7,,,,61,64
33040,note_off,400,0,6,,,,,,,,3,,,,73,64
33040,note_off,400,0,8,,,,,,,,4,,,,54,64
33120,note_on,80,0,15,,,,,,,,7,,,,57,92
33120,note_on,80,0,19,,,,,,,,12,,,,69,92
33120,note_on,80,0,9,,,,,,,,5,,,,73,92
33120,note_on,80,0,20,,,,,,,,13,,,,76,92
33120,note_on,80,0,16,,,,,,,,8,,,,37,92
33120,note_on,80,0,21,,,,,,,,14,,,,49,92
33120,note_on,80,0,6,,,,,,,,3,,,,81,92
33120,note_on,80,0,8,,,,,,,,4,,,,49,92
33120,note_on,80,0,2,,,,,,,,0,,,,81,92
33120,note_on,80,0,4,,,,,,,,2,,,,81,92
33120,note_on,80,0,10,,,,,,,,5,,,,69,92
33120,note_on,80,0,12,,,,,,,,6,,,,76,92
33120,note_on,80,0,11,,,,,,,,6,,,,81,92
33120,note_on,80,0,14,,,,,,,,7,,,,61,92
33120,note_on,80,0,13,,,,,,,,7,,,,64,92
33120,note_on,80,0,17,,,,,,,,10,,,,45,92
33120,note_on,80,0,22,,,,,,,,15,,,,37,92
33120,note_on,80,0,7,,,,,,,,4,,,,49,92
33280,note_off,640,0,5,,,,,,,,3,,,,81,64
33280,note_off,640,0,18,,,,,,,,11,,,,81,64
33280,note_off,640,0,3,,,,,,,,2,,,,81,64
33280,note_off,640,0,1,,,,,,,,0,,,,81,64
33360,note_on,80,0,5,,,,,,,,3,,,,81,92
33360,note_on,80,0,3,,,,,,,,2,,,,81,92
33360,note_on,80,0,1,,,,,,,,0,,,,81,92
33360,note_on,80,0,18,,,,,,,,11,,,,81,108
33480,note_off,120,0,5,,,,,,,,3,,,,81,64
33480,note_on,0,0,5,,,,,,,,3,,,,83,92
33480,note_off,120,0,3,,,,,,,,2,,,,81,64
33480,note_on,0,0,1,,,,,,,,0,,,,83,92
33480,note_on,0,0,3,,,,,,,,2,,,,83,92
33480,note_off,120,0,18,,,,,,,,11,,,,81,64
33480,note_on,0,0,18,,,,,,,,11,,,,83,108
33480,note_off,120,0,1,,,,,,,,0,,,,81,64
33520,note_off,400,0,9,,,,,,,,5,,,,73,64
33520,note_off,400,0,17,,,,,,,,10,,,,45,64
33520,note_off,400,0,15,,,,,,,,7,,,,57,64
33520,note_off,400,0,8,,,,,,,,4,,,,49,64
33520,note_off,400,0,13,,,,,,,,7,,,,64,64
33520,note_off,400,0,16,,,,,,,,8,,,,37,64
33520,note_off,400,0,12,,,,,,,,6,,,,76,64
33520,note_off,400,0,19,,,,,,,,12,,,,69,64
33520,note_off,400,0,21,,,,,,,,14,,,,49,64
33520,note_off,400,0,22,,,,,,,,15,,,,37,64
33520,note_off,400,0,14,,,,,,,,7,,,,61,64
33520,note_off,400,0,20,,,,,,,,13,,,,76,64
33520,note_off,400,0,7,,,,,,,,4,,,,49,64
33595,note_off,115,0,18,,,,,,,,11,,,,83,64
33595,note_off,115,0,1,,,,,,,,0,,,,83,64
33595,note_off,115,0,3,,,,,,,,2,,,,83,64
33595,note_off,115,0,5,,,,,,,,3,,,,83,64
33600,note_on,80,0,17,,,,,,,,10,,,,50,92
33600,note_on,5,0,5,,,,,,,,3,,,,83,92
33600,note_on,80,0,8,,,,,,,,4,,,,50,92
33600,note_on,80,0,22,,,,,,,,15,,,,38,92
33600,note_on,5,0,18,,,,,,,,11,,,,83,108
33600,note_on,80,0,20,,,,,,,,13,,,,66,92
33600,note_on,80,0,21,,,,,,,,14,,,,50,92
33600,note_on,80,0,15,,,,,,,,7,,,,57,92
33600,note_on,80,0,7,,,,,,,,4,,,,50,92
33600,note_on,80,0,13,,,,,,,,7,,,,66,92
33600,note_on,80,0,19,,,,,,,,12,,,,81,92
33600,note_on,5,0,3,,,,,,,,2,,,,83,92
33600,note_on,80,0,9,,,,,,,,5,,,,71,92
33600,note_on,80,0,14,,,,,,,,7,,,,62,92
33600,note_on,80,0,16,,,,,,,,8,,,,38,92
33600,note_on,5,0,1,,,,,,,,0,,,,83,92
33600,note_on,80,0,12,,,,,,,,6,,,,78,92
33955,note_off,355,0,1,,,,,,,,0,,,,83,64
33955,note_off,355,0,3,,,,,,,,2,,,,83,64
33955,note_off,355,0,18,,,,,,,,11,,,,83,64
33955,note_off,355,0,5,,,,,,,,3,,,,83,64
33960,note_off,840,0,4,,,,,,,,2,,,,81,64
33960,note_off,840,0,10,,,,,,,,5,,,,69,64
33960,note_off,840,0,6,,,,,,,,3,,,,81,64
33960,note_on,5,0,1,,,,,,,,0,,,,83,92
33960,note_on,5,0,5,,,,,,,,3,,,,83,92
33960,note_on,5,0,3,,,,,,,,2,,,,83,92
33960,note_on,5,0,18,,,,,,,,11,,,,83,108
33960,note_off,840,0,2,,,,,,,,0,,,,81,64
33960,note_off,840,0,11,,,,,,,,6,,,,81,64
34000,note_off,400,0,7,,,,,,,,4,,,,50,64
34000,note_off,400,0,14,,,,,,,,7,,,,62,64
34000,note_off,400,0,20,,,,,,,,13,,,,66,64
34000,note_off,400,0,13,,,,,,,,7,,,,66,64
34000,note_off,400,0,22,,,,,,,,15,,,,38,64
34000,note_off,400,0,12,,,,,,,,6,,,,78,64
34000,note_off,400,0,21,,,,,,,,14,,,,50,64
34000,note_off,400,0,8,,,,,,,,4,,,,50,64
34000,note_off,400,0,15,,,,,,,,7,,,,57,64
34000,note_off,400,0,9,,,,,,,,5,,,,71,64
34000,note_off,400,0,19,,,,,,,,12,,,,81,64
34000,note_off,400,0,16,,,,,,,,8,,,,38,64
34000,note_off,400,0,17,,,,,,,,10,,,,50,64
34075,note_off,115,0,5,,,,,,,,3,,,,83,64
34075,note_off,115,0,3,,,,,,,,2,,,,83,64
34075,note_off,115,0,18,,,,,,,,11,,,,83,64
34075,note_off,115,0,1,,,,,,,,0,,,,83,64
34080,note_on,80,0,17,,,,,,,,10,,,,50,92
34080,note_on,80,0,16,,,,,,,,8,,,,40,92
34080,note_on,5,0,18,,,,,,,,11,,,,83,108
34080,note_on,80,0,14,,,,,,,,7,,,,62,92
34080,note_on,5,0,1,,,,,,,,0,,,,83,92
34080,note_on,120,0,11,,,,,,,,6,,,,80,92
34080,note_on,120,0,4,,,,,,,,2,,,,80,92
34080,note_on,80,0,21,,,,,,,,14,,,,52,92
34080,note_on,120,0,2,,,,,,,,0,,,,80,92
34080,note_on,80,0,20,,,,,,,,13,,,,64,92
34080,note_on,120,0,6,,,,,,,,3,,,,80,92
34080,note_on,80,0,12,,,,,,,,6,,,,76,92
34080,note_on,120,0,10,,,,,,,,5,,,,68,92
34080,note_on,80,0,13,,,,,,,,7,,,,64,92
34080,note_on,5,0,3,,,,,,,,2,,,,83,92
34080,note_on,80,0,15,,,,,,,,7,,,,56,92
34080,note_on,80,0,7,,,,,,,,4,,,,52,92
34080,note_on,5,0,5,,,,,,,,3,,,,83,92
34080,note_on,80,0,19,,,,,,,,12,,,,80,92
34080,note_on,80,0,22,,,,,,,,15,,,,40,92
34080,note_on,80,0,8,,,,,,,,4,,,,52,92
34080,note_on,80,0,9,,,,,,,,5,,,,71,92
34315,note_off,235,0,1,,,,,,,,0,,,,83,64
34315,note_off,235,0,5,,,,,,,,3,,,,83,64
34315,note_off,235,0,18,,,,,,,,11,,,,83,64
34315,note_off,235,0,3,,,,,,,,2,,,,83,64
34320,note_on,5,0,18,,,,,,,,11,,,,85,108
34320,note_on,5,0,1,,,,,,,,0,,,,85,92
34320,note_on,5,0,5,,,,,,,,3,,,,85,92
34320,note_on,5,0,3,,,,,,,,2,,,,85,92
34435,note_off,355,0,4,,,,,,,,2,,,,80,64
34435,note_off,355,0,11,,,,,,,,6,,,,80,64
34435,note_off,355,0,6,,,,,,,,3,,,,80,64
34435,note_off,355,0,2,,,,,,,,0,,,,80,64
34435,note_off,355,0,19,,,,,,,,12,,,,80,64
34440,note_on,5,0,11,,,,,,,,6,,,,80,92
34440,note_on,5,0,2,,,,,,,,0,,,,80,92
34440,note_off,120,0,3,,,,,,,,2,,,,85,64
34440,note_off,120,0,5,,,,,,,,3,,,,85,64
34440,note_on,5,0,4,,,,,,,,2,,,,80,92
34440,note_off,120,0,1,,,,,,,,0,,,,85,64
34440,note_on,0,0,1,,,,,,,,0,,,,86,92
34440,note_on,0,0,3,,,,,,,,2,,,,86,92
34440,note_on,5,0,19,,,,,,,,12,,,,80,92
34440,note_on,0,0,5,,,,,,,,3,,,,86,92
34440,note_off,120,0,18,,,,,,,,11,,,,85,64
34440,note_on,5,0,6,,,,,,,,3,,,,80,92
34440,note_on,0,0,18,,,,,,,,11,,,,86,108
34480,note_off,400,0,16,,,,,,,,8,,,,40,64
34480,note_off,400,0,7,,,,,,,,4,,,,52,64
34480,note_off,400,0,13,,,,,,,,7,,,,64,64
34480,note_off,400,0,17,,,,,,,,10,,,,50,64
34480,note_off,400,0,22,,,,,,,,15,,,,40,64
34480,note_off,400,0,14,,,,,,,,7,,,,62,64
34480,note_off,400,0,12,,,,,,,,6,,,,76,64
34480,note_off,400,0,20,,,,,,,,13,,,,64,64
34480,note_off,400,0,15,,,,,,,,7,,,,56,64
34480,note_off,400,0,9,,,,,,,,5,,,,71,64
34480,note_off,400,0,21,,,,,,,,14,,,,52,64
34480,note_off,400,0,8,,,,,,,,4,,,,52,64
34480,note_off,400,0,10,,,,,,,,5,,,,68,64
34555,note_off,115,0,1,,,,,,,,0,,,,86,64
34555,note_off,115,0,19,,,,,,,,12,,,,80,64
34555,note_off,115,0,11,,,,,,,,6,,,,80,64
34555,note_off,115,0,5,,,,,,,,3,,,,86,64
34555,note_off,115,0,3,,,,,,,,2,,,,86,64
34555,note_off,115,0,6,,,,,,,,3,,,,80,64
34555,note_off,115,0,2,,,,,,,,0,,,,80,64
34555,note_off,115,0,4,,,,,,,,2,,,,80,64
34555,note_off,115,0,18,,,,,,,,11,,,,86,64
34560,note_on,80,0,7,,,,,,,,4,,,,57,92
34560,note_on,5,0,4,,,,,,,,2,,,,81,92
34560,note_on,80,0,15,,,,,,,,7,,,,57,92
34560,note_on,5,0,5,,,,,,,,3,,,,85,92
34560,note_on,80,0,17,,,,,,,,10,,,,45,92
34560,note_on,80,0,20,,,,,,,,13,,,,76,92
34560,note_on,5,0,2,,,,,,,,0,,,,81,92
34560,note_on,5,0,1,,,,,,,,0,,,,85,92
34560,note_on,80,0,8,,,,,,,,4,,,,45,92
34560,note_on,80,0,22,,,,,,,,15,,,,45,92
34560,note_on,80,0,21,,,,,,,,14,,,,45,92
34560,note_on,80,0,14,,,,,,,,7,,,,61,92
34560,note_on,80,0,10,,,,,,,,5,,,,69,92
34560,note_on,80,0,13,,,,,,,,7,,,,64,92
34560,note_on,80,0,9,,,,,,,,5,,,,73,92
34560,note_on,5,0,19,,,,,,,,12,,,,81,92
34560,note_on,5,0,6,,,,,,,,3,,,,81,92
34560,note_on,80,0,16,,,,,,,,8,,,,45,92
34560,note_on,5,0,11,,,,,,,,6,,,,81,92
34560,note_on,5,0,18,,,,,,,,11,,,,85,108
34560,note_on,80,0,12,,,,,,,,6,,,,76,92
34560,note_on,5,0,3,,,,,,,,2,,,,85,92
34960,note_off,400,0,18,,,,,,,,11,,,,85,64
34960,note_off,400,0,6,,,,,,,,3,,,,81,64
34960,note_off,400,0,4,,,,,,,,2,,,,81,64
34960,note_off,400,0,3,,,,,,,,2,,,,85,64
34960,note_off,400,0,2,,,,,,,,0,,,,81,64
34960,note_off,400,0,5,,,,,,,,3,,,,85,64
34960,note_off,400,0,19,,,,,,,,12,,,,81,64
34960,note_off,400,0,1,,,,,,,,0,,,,85,64
34960,note_off,400,0,20,,,,,,,,13,,,,76,64
35040,note_on,80,0,1,,,,,,,,0,,,,83,92
35040,note_on,80,0,2,,,,,,,,0,,,,76,92
35040,note_on,80,0,20,,,,,,,,13,,,,73,92
35040,note_on,80,0,4,,,,,,,,2,,,,76,92
35040,note_on,80,0,18,,,,,,,,11,,,,83,108
35040,note_on,80,0,3,,,,,,,,2,,,,83,92
35040,note_on,80,0,5,,,,,,,,3,,,,83,92
35040,note_on,80,0,6,,,,,,,,3,,,,76,92
35040,note_on,80,0,19,,,,,,,,12,,,,76,92
35280,note_on,0,0,1,,,,,,,,0,,,,81,92
35280,note_off,240,0,3,,,,,,,,2,,,,83,64
35280,note_on,0,0,5,,,,,,,,3,,,,81,92
35280,note_off,240,0,5,,,,,,,,3,,,,83,64
35280,note_off,240,0,18,,,,,,,,11,,,,83,64
35280,note_on,0,0,18,,,,,,,,11,,,,81,108
35280,note_off,240,0,1,,,,,,,,0,,,,83,64
35280,note_on,0,0,3,,,,,,,,2,,,,81,92
35400,note_off,840,0,10,,,,,,,,5,,,,69,64
35400,note_off,840,0,9,,,,,,,,5,,,,73,64
35400,note_off,840,0,12,,,,,,,,6,,,,76,64
35400,note_off,840,0,21,,,,,,,,14,,,,45,64
35400,note_off,840,0,14,,,,,,,,7,,,,61,64
35400,note_off,840,0,13,,,,,,,,7,,,,64,64
35400,note_off,840,0,8,,,,,,,,4,,,,45,64
35400,note_off,840,0,15,,,,,,,,7,,,,57,64
35400,note_off,840,0,7,,,,,,,,4,,,,57,64
35400,note_off,840,0,11,,,,,,,,6,,,,81,64
35400,note_off,840,0,16,,,,,,,,8,,,,45,64
35400,note_off,840,0,17,,,,,,,,10,,,,45,64
35400,note_off,840,0,22,,,,,,,,15,,,,45,64
35440,note_off,400,0,6,,,,,,,,3,,,,76,64
35440,note_off,400,0,19,,,,,,,,12,,,,76,64
35440,note_off,400,0,2,,,,,,,,0,,,,76,64
35440,note_off,400,0,4,,,,,,,,2,,,,76,64
35440,note_off,400,0,20,,,,,,,,13,,,,73,64
35515,note_off,235,0,3,,,,,,,,2,,,,81,64
35515,note_off,235,0,1,,,,,,,,0,,,,81,64
35515,note_off,235,0,5,,,,,,,,3,,,,81,64
35515,note_off,235,0,18,,,,,,,,11,,,,81,64
35520,note_on,5,0,18,,,,,,,,11,,,,73,108
35520,note_on,80,0,19,,,,,,,,12,,,,69,92
35520,note_on,120,0,21,,,,,,,,14,,,,45,92
35520,note_on,120,0,22,,,,,,,,15,,,,45,92
35520,note_on,120,0,8,,,,,,,,4,,,,45,92
35520,note_on,80,0,2,,,,,,,,0,,,,69,92
35520,note_on,120,0,7,,,,,,,,4,,,,57,92
35520,note_on,80,0,4,,,,,,,,2,,,,69,92
35520,note_on,80,0,6,,,,,,,,3,,,,69,92
35520,note_on,5,0,5,,,,,,,,3,,,,73,92
35520,note_on,5,0,1,,,,,,,,0,,,,73,92
35520,note_on,80,0,20,,,,,,,,13,,,,64,92
35520,note_on,5,0,3,,,,,,,,2,,,,73,92
35920,note_off,400,0,20,,,,,,,,13,,,,64,64
35920,note_off,400,0,5,,,,,,,,3,,,,73,64
35920,note_off,400,0,21,,,,,,,,14,,,,45,64
35920,note_off,400,0,22,,,,,,,,15,,,,45,64
35920,note_off,400,0,1,,,,,,,,0,,,,73,64
35920,note_off,400,0,18,,,,,,,,11,,,,73,64
35920,note_off,400,0,7,,,,,,,,4,,,,57,64
35920,note_off,400,0,8,,,,,,,,4,,,,45,64
35920,note_off,400,0,3,,,,,,,,2,,,,73,64
36000,note_on,80,0,20,,,,,,,,13,,,,69,92
36000,note_on,80,0,8,,,,,,,,4,,,,47,92
36000,note_on,80,0,18,,,,,,,,11,,,,74,108
36000,note_on,80,0,5,,,,,,,,3,,,,74,92
36000,note_on,80,0,7,,,,,,,,4,,,,59,92
36000,note_on,80,0,22,,,,,,,,15,,,,47,92
36000,note_on,80,0,3,,,,,,,,2,,,,74,92
36000,note_on,80,0,1,,,,,,,,0,,,,74,92
36000,note_on,80,0,21,,,,,,,,14,,,,47,92
36160,note_off,640,0,19,,,,,,,,12,,,,69,64
36240,note_on,0,0,5,,,,,,,,3,,,,76,92
36240,note_on,0,0,8,,,,,,,,4,,,,49,92
36240,note_on,80,0,19,,,,,,,,12,,,,68,92
36240,note_on,0,0,21,,,,,,,,14,,,,49,92
36240,note_off,240,0,21,,,,,,,,14,,,,47,64
36240,note_off,240,0,18,,,,,,,,11,,,,74,64
36240,note_off,720,0,2,,,,,,,,0,,,,69,64
36240,note_on,0,0,2,,,,,,,,0,,,,68,92
36240,note_off,240,0,1,,,,,,,,0,,,,74,64
36240,note_on,0,0,1,,,,,,,,0,,,,76,92
36240,note_off,720,0,6,,,,,,,,3,,,,69,64
36240,note_on,0,0,6,,,,,,,,3,,,,68,92
36240,note_on,0,0,18,,,,,,,,11,,,,76,108
36240,note_off,240,0,8,,,,,,,,4,,,,47,64
36240,note_on,0,0,22,,,,,,,,15,,,,49,92
36240,note_on,0,0,3,,,,,,,,2,,,,76,92
36240,note_off,240,0,3,,,,,,,,2,,,,74,64
36240,note_off,240,0,7,,,,,,,,4,,,,59,64
36240,note_off,240,0,5,,,,,,,,3,,,,74,64
36240,note_on,0,0,7,,,,,,,,4,,,,61,92
36240,note_off,720,0,4,,,,,,,,2,,,,69,64
36240,note_on,0,0,4,,,,,,,,2,,,,68,92
36240,note_off,240,0,22,,,,,,,,15,,,,47,64
36400,note_off,400,0,20,,,,,,,,13,,,,69,64
36475,note_off,235,0,6,,,,,,,,3,,,,68,64
36475,note_off,235,0,18,,,,,,,,11,,,,76,64
36475,note_off,235,0,7,,,,,,,,4,,,,61,64
36475,note_off,235,0,1,,,,,,,,0,,,,76,64
36475,note_off,235,0,2,,,,,,,,0,,,,68,64
36475,note_off,235,0,19,,,,,,,,12,,,,68,64
36475,note_off,235,0,4,,,,,,,,2,,,,68,64
36475,note_off,235,0,21,,,,,,,,14,,,,49,64
36475,note_off,235,0,5,,,,,,,,3,,,,76,64
36475,note_off,235,0,8,,,,,,,,4,,,,49,64
36475,note_off,235,0,22,,,,,,,,15,,,,49,64
36475,note_off,235,0,3,,,,,,,,2,,,,76,64
36480,note_on,5,0,7,,,,,,,,4,,,,62,92
36480,note_on,5,0,4,,,,,,,,2,,,,66,92
36480,note_on,5,0,18,,,,,,,,11,,,,78,108
36480,note_on,5,0,21,,,,,,,,14,,,,50,92
36480,note_on,5,0,8,,,,,,,,4,,,,50,92
36480,note_on,5,0,22,,,,,,,,15,,,,50,92
36480,note_on,5,0,1,,,,,,,,0,,,,78,92
36480,note_on,5,0,19,,,,,,,,12,,,,66,92
36480,note_on,5,0,2,,,,,,,,0,,,,66,92
36480,note_on,5,0,3,,,,,,,,2,,,,78,92
36480,note_on,5,0,6,,,,,,,,3,,,,66,92
36480,note_on,80,0,20,,,,,,,,13,,,,69,92
36480,note_on,5,0,5,,,,,,,,3,,,,78,92
36880,note_off,400,0,5,,,,,,,,3,,,,78,64
36880,note_off,400,0,19,,,,,,,,12,,,,66,64
36880,note_off,400,0,7,,,,,,,,4,,,,62,64
36880,note_off,400,0,4,,,,,,,,2,,,,66,64
36880,note_off,400,0,18,,,,,,,,11,,,,78,64
36880,note_off,400,0,2,,,,,,,,0,,,,66,64
36880,note_off,400,0,6,,,,,,,,3,,,,66,64
36880,note_off,400,0,20,,,,,,,,13,,,,69,64
36880,note_off,400,0,1,,,,,,,,0,,,,78,64
36880,note_off,400,0,3,,,,,,,,2,,,,78,64
36880,note_off,400,0,22,,,,,,,,15,,,,50,64
36960,note_on,80,0,19,,,,,,,,12,,,,69,92
36960,note_on,80,0,4,,,,,,,,2,,,,69,92
36960,note_on,80,0,2,,,,,,,,0,,,,69,92
36960,note_on,80,0,1,,,,,,,,0,,,,74,92
36960,note_on,80,0,7,,,,,,,,4,,,,50,92
36960,note_on,80,0,5,,,,,,,,3,,,,74,92
36960,note_on,80,0,6,,,,,,,,3,,,,69,92
36960,note_on,80,0,18,,,,,,,,11,,,,74,108
36960,note_on,80,0,20,,,,,,,,13,,,,66,92
36960,note_on,80,0,22,,,,,,,,15,,,,38,92
36960,note_on,80,0,3,,,,,,,,2,,,,74,92
37120,note_off,640,0,8,,,,,,,,4,,,,50,64
37120,note_off,640,0,21,,,,,,,,14,,,,50,64
37200,note_on,80,0,8,,,,,,,,4,,,,50,92
37200,note_on,80,0,21,,,,,,,,14,,,,50,92
37360,note_off,400,0,5,,,,,,,,3,,,,74,64
37360,note_off,400,0,20,,,,,,,,13,,,,66,64
37360,note_off,400,0,4,,,,,,,,2,,,,69,64
37360,note_off,400,0,18,,,,,,,,11,,,,74,64
37360,note_off,400,0,6,,,,,,,,3,,,,69,64
37360,note_off,400,0,3,,,,,,,,2,,,,74,64
37360,note_off,400,0,19,,,,,,,,12,,,,69,64
37360,note_off,400,0,2,,,,,,,,0,,,,69,64
37360,note_off,400,0,7,,,,,,,,4,,,,50,64
37360,note_off,400,0,22,,,,,,,,15,,,,38,64
37360,note_off,400,0,1,,,,,,,,0,,,,74,64
37435,note_off,235,0,21,,,,,,,,14,,,,50,64
37435,note_off,235,0,8,,,,,,,,4,,,,50,64
37440,note_on,80,0,20,,,,,,,,13,,,,66,92
37440,note_on,80,0,3,,,,,,,,2,,,,71,92
37440,note_on,80,0,18,,,,,,,,11,,,,71,108
37440,note_on,80,0,19,,,,,,,,12,,,,69,92
37440,note_on,80,0,2,,,,,,,,0,,,,69,92
37440,note_on,80,0,1,,,,,,,,0,,,,71,92
37440,note_on,80,0,6,,,,,,,,3,,,,69,92
37440,note_on,80,0,5,,,,,,,,3,,,,71,92
37440,note_on,5,0,21,,,,,,,,14,,,,51,92
37440,note_on,5,0,8,,,,,,,,4,,,,51,92
37440,note_on,80,0,22,,,,,,,,15,,,,39,92
37440,note_on,80,0,4,,,,,,,,2,,,,69,92
37440,note_on,80,0,7,,,,,,,,4,,,,51,92
38080,note_off,640,0,2,,,,,,,,0,,,,69,64
38080,note_off,640,0,19,,,,,,,,12,,,,69,64
38080,note_off,640,0,22,,,,,,,,15,,,,39,64
38080,note_off,640,0,7,,,,,,,,4,,,,51,64
38080,note_off,640,0,4,,,,,,,,2,,,,69,64
38080,note_off,640,0,3,,,,,,,,2,,,,71,64
38080,note_off,640,0,20,,,,,,,,13,,,,66,64
38080,note_off,640,0,1,,,,,,,,0,,,,71,64
38080,note_off,640,0,8,,,,,,,,4,,,,51,64
38080,note_off,640,0,21,,,,,,,,14,,,,51,64
38080,note_off,640,0,5,,,,,,,,3,,,,71,64
38080,note_off,640,0,18,,,,,,,,11,,,,71,64
38080,note_off,640,0,6,,,,,,,,3,,,,69,64
38160,note_on,80,0,2,,,,,,,,0,,,,69,92
38160,note_on,80,0,4,,,,,,,,2,,,,69,92
38160,note_on,80,0,7,,,,,,,,4,,,,51,92
38160,note_on,80,0,20,,,,,,,,13,,,,66,92
38160,note_on,80,0,22,,,,,,,,15,,,,39,92
38160,note_on,80,0,8,,,,,,,,4,,,,51,92
38160,note_on,80,0,18,,,,,,,,11,,,,71,108
38160,note_on,80,0,6,,,,,,,,3,,,,69,92
38160,note_on,80,0,21,,,,,,,,14,,,,51,92
38160,note_on,80,0,3,,,,,,,,2,,,,71,92
38160,note_on,80,0,5,,,,,,,,3,,,,71,92
38160,note_on,80,0,1,,,,,,,,0,,,,71,92
38160,note_on,80,0,19,,,,,,,,12,,,,69,92
38395,note_off,235,0,5,,,,,,,,3,,,,71,64
38395,note_off,235,0,20,,,,,,,,13,,,,66,64
38395,note_off,235,0,1,,,,,,,,0,,,,71,64
38395,note_off,235,0,6,,,,,,,,3,,,,69,64
38395,note_off,235,0,2,,,,,,,,0,,,,69,64
38395,note_off,235,0,4,,,,,,,,2,,,,69,64
38395,note_off,235,0,22,,,,,,,,15,,,,39,64
38395,note_off,235,0,3,,,,,,,,2,,,,71,64
38395,note_off,235,0,19,,,,,,,,12,,,,69,64
38395,note_off,235,0,7,,,,,,,,4,,,,51,64
38395,note_off,235,0,18,,,,,,,,11,,,,71,64
38395,note_off,235,0,8,,,,,,,,4,,,,51,64
38395,note_off,235,0,21,,,,,,,,14,,,,51,64
38400,note_on,5,0,8,,,,,,,,4,,,,52,92
38400,note_on,5,0,22,,,,,,,,15,,,,40,92
38400,note_on,5,0,4,,,,,,,,2,,,,68,92
38400,note_on,5,0,1,,,,,,,,0,,,,71,92
38400,note_on,5,0,2,,,,,,,,0,,,,68,92
38400,note_on,5,0,19,,,,,,,,12,,,,68,92
38400,note_on,5,0,5,,,,,,,,3,,,,71,92
38400,note_on,5,0,6,,,,,,,,3,,,,68,92
38400,note_on,5,0,21,,,,,,,,14,,,,52,92
38400,note_on,5,0,18,,,,,,,,11,,,,71,108
38400,note_on,5,0,3,,,,,,,,2,,,,71,92
38400,note_on,5,0,20,,,,,,,,13,,,,64,92
38400,note_on,5,0,7,,,,,,,,4,,,,52,92
38800,note_off,400,0,21,,,,,,,,14,,,,52,64
38800,note_off,400,0,8,,,,,,,,4,,,,52,64
38800,note_off,400,0,7,,,,,,,,4,,,,52,64
38800,note_off,400,0,22,,,,,,,,15,,,,40,64
38880,note_on,80,0,21,,,,,,,,14,,,,54,92
38880,note_on,80,0,8,,,,,,,,4,,,,54,92
38880,note_on,80,0,7,,,,,,,,4,,,,54,92
38880,note_on,80,0,22,,,,,,,,15,,,,42,92
39240,note_off,840,0,1,,,,,,,,0,,,,71,64
39240,note_off,840,0,20,,,,,,,,13,,,,64,64
39240,note_off,840,0,2,,,,,,,,0,,,,68,64
39240,note_off,840,0,4,,,,,,,,2,,,,68,64
39240,note_off,840,0,6,,,,,,,,3,,,,68,64
39240,note_off,840,0,3,,,,,,,,2,,,,71,64
39240,note_off,840,0,19,,,,,,,,12,,,,68,64
39240,note_off,840,0,18,,,,,,,,11,,,,71,64
39240,note_off,840,0,5,,,,,,,,3,,,,71,64
39280,note_off,400,0,21,,,,,,,,14,,,,54,64
39280,note_off,400,0,8,,,,,,,,4,,,,54,64
39280,note_off,400,0,22,,,,,,,,15,,,,42,64
39280,note_off,400,0,7,,,,,,,,4,,,,54,64
39360,note_on,80,0,22,,,,,,,,15,,,,40,92
39360,note_on,120,0,1,,,,,,,,0,,,,71,92
39360,note_on,120,0,18,,,,,,,,11,,,,71,108
39360,note_on,80,0,21,,,,,,,,14,,,,52,92
39360,note_on,120,0,2,,,,,,,,0,,,,68,92
39360,note_on,120,0,20,,,,,,,,13,,,,64,92
39360,note_on,120,0,5,,,,,,,,3,,,,71,92
39360,note_on,120,0,19,,,,,,,,12,,,,68,92
39360,note_on,120,0,3,,,,,,,,2,,,,71,92
39360,note_on,80,0,7,,,,,,,,4,,,,52,92
39360,note_on,120,0,6,,,,,,,,3,,,,68,92
39360,note_on,120,0,4,,,,,,,,2,,,,68,92
39360,note_on,80,0,8,,,,,,,,4,,,,52,92
39760,note_off,400,0,19,,,,,,,,12,,,,68,64
39760,note_off,400,0,6,,,,,,,,3,,,,68,64
39760,note_off,400,0,21,,,,,,,,14,,,,52,64
39760,note_off,400,0,5,,,,,,,,3,,,,71,64
39760,note_off,400,0,3,,,,,,,,2,,,,71,64
39760,note_off,400,0,22,,,,,,,,15,,,,40,64
39760,note_off,400,0,4,,,,,,,,2,,,,68,64
39760,note_off,400,0,1,,,,,,,,0,,,,71,64
39760,note_off,400,0,18,,,,,,,,11,,,,71,64
39760,note_off,400,0,2,,,,,,,,0,,,,68,64
39760,note_off,400,0,7,,,,,,,,4,,,,52,64
39760,note_off,400,0,8,,,,,,,,4,,,,52,64
39840,note_on,80,0,18,,,,,,,,11,,,,73,108
39840,note_on,80,0,3,,,,,,,,2,,,,73,92
39840,note_on,80,0,7,,,,,,,,4,,,,50,92
39840,note_on,80,0,5,,,,,,,,3,,,,73,92
39840,note_on,80,0,4,,,,,,,,2,,,,69,92
39840,note_on,80,0,6,,,,,,,,3,,,,69,92
39840,note_on,80,0,1,,,,,,,,0,,,,73,92
39840,note_on,80,0,2,,,,,,,,0,,,,69,92
39840,note_on,80,0,22,,,,,,,,15,,,,38,92
39840,note_on,80,0,8,,,,,,,,4,,,,50,92
39840,note_on,80,0,19,,,,,,,,12,,,,69,92
39840,note_on,80,0,21,,,,,,,,14,,,,50,92
40000,note_off,640,0,20,,,,,,,,13,,,,64,64
40080,note_off,240,0,6,,,,,,,,3,,,,69,64
40080,note_off,240,0,3,,,,,,,,2,,,,73,64
40080,note_off,240,0,19,,,,,,,,12,,,,69,64
40080,note_off,240,0,18,,,,,,,,11,,,,73,64
40080,note_off,240,0,4,,,,,,,,2,,,,69,64
40080,note_on,0,0,6,,,,,,,,3,,,,71,92
40080,note_on,0,0,4,,,,,,,,2,,,,71,92
40080,note_off,240,0,1,,,,,,,,0,,,,73,64
40080,note_on,0,0,2,,,,,,,,0,,,,71,92
40080,note_on,0,0,3,,,,,,,,2,,,,74,92
40080,note_on,0,0,19,,,,,,,,12,,,,71,92
40080,note_on,0,0,5,,,,,,,,3,,,,74,92
40080,note_off,240,0,2,,,,,,,,0,,,,69,64
40080,note_on,80,0,20,,,,,,,,13,,,,71,92
40080,note_on,0,0,1,,,,,,,,0,,,,74,92
40080,note_on,0,0,18,,,,,,,,11,,,,74,108
40080,note_off,240,0,5,,,,,,,,3,,,,73,64
40240,note_off,400,0,8,,,,,,,,4,,,,50,64
40240,note_off,400,0,21,,,,,,,,14,,,,50,64
40240,note_off,400,0,7,,,,,,,,4,,,,50,64
40240,note_off,400,0,22,,,,,,,,15,,,,38,64
40315,note_off,235,0,4,,,,,,,,2,,,,71,64
40315,note_off,235,0,3,,,,,,,,2,,,,74,64
40315,note_off,235,0,1,,,,,,,,0,,,,74,64
40315,note_off,235,0,20,,,,,,,,13,,,,71,64
40315,note_off,235,0,5,,,,,,,,3,,,,74,64
40315,note_off,235,0,6,,,,,,,,3,,,,71,64
40315,note_off,235,0,18,,,,,,,,11,,,,74,64
40315,note_off,235,0,19,,,,,,,,12,,,,71,64
40315,note_off,235,0,2,,,,,,,,0,,,,71,64
40320,note_on,5,0,18,,,,,,,,11,,,,76,108
40320,note_on,5,0,6,,,,,,,,3,,,,73,92
40320,note_on,5,0,4,,,,,,,,2,,,,73,92
40320,note_on,5,0,3,,,,,,,,2,,,,76,92
40320,note_on,5,0,2,,,,,,,,0,,,,73,92
40320,note_on,80,0,21,,,,,,,,14,,,,49,92
40320,note_on,5,0,1,,,,,,,,0,,,,76,92
40320,note_on,80,0,22,,,,,,,,15,,,,37,92
40320,note_on,5,0,20,,,,,,,,13,,,,69,92
40320,note_on,5,0,19,,,,,,,,12,,,,73,92
40320,note_on,80,0,7,,,,,,,,4,,,,49,92
40320,note_on,5,0,5,,,,,,,,3,,,,76,92
40320,note_on,80,0,8,,,,,,,,4,,,,49,92
40720,note_off,400,0,4,,,,,,,,2,,,,73,64
40720,note_off,400,0,20,,,,,,,,13,,,,69,64
40720,note_off,400,0,22,,,,,,,,15,,,,37,64
40720,note_off,400,0,2,,,,,,,,0,,,,73,64
40720,note_off,400,0,1,,,,,,,,0,,,,76,64
40720,note_off,400,0,7,,,,,,,,4,,,,49,64
40720,note_off,400,0,18,,,,,,,,11,,,,76,64
40720,note_off,400,0,5,,,,,,,,3,,,,76,64
40720,note_off,400,0,6,,,,,,,,3,,,,73,64
40720,note_off,400,0,19,,,,,,,,12,,,,73,64
40720,note_off,400,0,3,,,,,,,,2,,,,76,64
40800,note_on,80,0,1,,,,,,,,0,,,,73,92
40800,note_on,80,0,7,,,,,,,,4,,,,61,92
40800,note_on,80,0,22,,,,,,,,15,,,,49,92
40800,note_on,80,0,6,,,,,,,,3,,,,69,92
40800,note_on,80,0,3,,,,,,,,2,,,,73,92
40800,note_on,80,0,4,,,,,,,,2,,,,69,92
40800,note_on,80,0,20,,,,,,,,13,,,,64,92
40800,note_on,80,0,5,,,,,,,,3,,,,73,92
40800,note_on,80,0,18,,,,,,,,11,,,,73,108
40800,note_on,80,0,2,,,,,,,,0,,,,69,92
40800,note_on,80,0,19,,,,,,,,12,,,,69,92
41160,note_off,840,0,21,,,,,,,,14,,,,49,64
41160,note_off,840,0,8,,,,,,,,4,,,,49,64
41200,note_off,400,0,2,,,,,,,,0,,,,69,64
41200,note_off,400,0,18,,,,,,,,11,,,,73,64
41200,note_off,400,0,19,,,,,,,,12,,,,69,64
41200,note_off,400,0,6,,,,,,,,3,,,,69,64
41200,note_off,400,0,22,,,,,,,,15,,,,49,64
41200,note_off,400,0,1,,,,,,,,0,,,,73,64
41200,note_off,400,0,7,,,,,,,,4,,,,61,64
41200,note_off,400,0,4,,,,,,,,2,,,,69,64
41200,note_off,400,0,20,,,,,,,,13,,,,64,64
41200,note_off,400,0,3,,,,,,,,2,,,,73,64
41200,note_off,400,0,5,,,,,,,,3,,,,73,64
41280,note_on,80,0,22,,,,,,,,15,,,,50,92
41280,note_on,80,0,1,,,,,,,,0,,,,69,92
41280,note_on,80,0,19,,,,,,,,12,,,,66,92
41280,note_on,80,0,7,,,,,,,,4,,,,62,92
41280,note_on,80,0,6,,,,,,,,3,,,,66,92
41280,note_on,80,0,3,,,,,,,,2,,,,69,92
41280,note_on,80,0,20,,,,,,,,13,,,,66,92
41280,note_on,80,0,2,,,,,,,,0,,,,66,92
41280,note_on,80,0,5,,,,,,,,3,,,,69,92
41280,note_on,120,0,8,,,,,,,,4,,,,50,92
41280,note_on,80,0,18,,,,,,,,11,,,,69,108
41280,note_on,120,0,21,,,,,,,,14,,,,50,92
41280,note_on,80,0,4,,,,,,,,2,,,,66,92
41680,note_off,400,0,4,,,,,,,,2,,,,66,64
41680,note_off,400,0,7,,,,,,,,4,,,,62,64
41680,note_off,400,0,2,,,,,,,,0,,,,66,64
41680,note_off,400,0,8,,,,,,,,4,,,,50,64
41680,note_off,400,0,22,,,,,,,,15,,,,50,64
41680,note_off,400,0,21,,,,,,,,14,,,,50,64
41680,note_off,400,0,6,,,,,,,,3,,,,66,64
41680,note_off,400,0,20,,,,,,,,13,,,,66,64
41680,note_off,400,0,19,,,,,,,,12,,,,66,64
41760,note_on,80,0,4,,,,,,,,2,,,,64,92
41760,note_on,80,0,8,,,,,,,,4,,,,49,92
41760,note_on,80,0,19,,,,,,,,12,,,,64,92
41760,note_on,80,0,7,,,,,,,,4,,,,61,92
41760,note_on,80,0,22,,,,,,,,15,,,,49,92
41760,note_on,80,0,6,,,,,,,,3,,,,64,92
41760,note_on,80,0,20,,,,,,,,13,,,,69,92
41760,note_on,80,0,21,,,,,,,,14,,,,49,92
41760,note_on,80,0,2,,,,,,,,0,,,,64,92
41920,note_off,640,0,1,,,,,,,,0,,,,69,64
41920,note_off,640,0,18,,,,,,,,11,,,,69,64
41920,note_off,640,0,5,,,,,,,,3,,,,69,64
41920,note_off,640,0,3,,,,,,,,2,,,,69,64
42000,note_on,80,0,5,,,,,,,,3,,,,69,92
42000,note_on,80,0,3,,,,,,,,2,,,,69,92
42000,note_on,80,0,1,,,,,,,,0,,,,69,92
42000,note_on,80,0,18,,,,,,,,11,,,,69,108
42160,note_off,400,0,4,,,,,,,,2,,,,64,64
42160,note_off,400,0,21,,,,,,,,14,,,,49,64
42160,note_off,400,0,6,,,,,,,,3,,,,64,64
42160,note_off,400,0,19,,,,,,,,12,,,,64,64
42160,note_off,400,0,20,,,,,,,,13,,,,69,64
42160,note_off,400,0,8,,,,,,,,4,,,,49,64
42160,note_off,400,0,2,,,,,,,,0,,,,64,64
42160,note_off,400,0,7,,,,,,,,4,,,,61,64
42160,note_off,400,0,22,,,,,,,,15,,,,49,64
42235,note_off,235,0,5,,,,,,,,3,,,,69,64
42235,note_off,235,0,18,,,,,,,,11,,,,69,64
42235,note_off,235,0,1,,,,,,,,0,,,,69,64
42235,note_off,235,0,3,,,,,,,,2,,,,69,64
42240,note_on,80,0,20,,,,,,,,13,,,,71,92
42240,note_on,80,0,6,,,,,,,,3,,,,66,92
42240,note_on,80,0,2,,,,,,,,0,,,,66,92
42240,note_on,80,0,19,,,,,,,,12,,,,66,92
42240,note_on,5,0,18,,,,,,,,11,,,,74,108
42240,note_on,80,0,4,,,,,,,,2,,,,66,92
42240,note_on,80,0,21,,,,,,,,14,,,,47,92
42240,note_on,80,0,22,,,,,,,,15,,,,47,92
42240,note_on,5,0,5,,,,,,,,3,,,,74,92
42240,note_on,80,0,8,,,,,,,,4,,,,47,92
42240,note_on,5,0,3,,,,,,,,2,,,,74,92
42240,note_on,5,0,1,,,,,,,,0,,,,74,92
42240,note_on,80,0,7,,,,,,,,4,,,,59,92
42640,note_off,400,0,4,,,,,,,,2,,,,66,64
42640,note_off,400,0,7,,,,,,,,4,,,,59,64
42640,note_off,400,0,21,,,,,,,,14,,,,47,64
42640,note_off,400,0,2,,,,,,,,0,,,,66,64
42640,note_off,400,0,22,,,,,,,,15,,,,47,64
42640,note_off,400,0,8,,,,,,,,4,,,,47,64
42640,note_off,400,0,6,,,,,,,,3,,,,66,64
42640,note_off,400,0,19,,,,,,,,12,,,,66,64
42640,note_off,400,0,20,,,,,,,,13,,,,71,64
42720,note_on,80,0,21,,,,,,,,14,,,,56,92
42720,note_on,80,0,4,,,,,,,,2,,,,71,92
42720,note_on,80,0,2,,,,,,,,0,,,,71,92
42720,note_on,80,0,6,,,,,,,,3,,,,71,92
42720,note_on,80,0,20,,,,,,,,13,,,,64,92
42720,note_on,80,0,22,,,,,,,,15,,,,44,92
42720,note_on,80,0,7,,,,,,,,4,,,,56,92
42720,note_on,80,0,19,,,,,,,,12,,,,71,92
42720,note_on,80,0,8,,,,,,,,4,,,,44,92
43080,note_off,840,0,18,,,,,,,,11,,,,74,64
43080,note_off,840,0,3,,,,,,,,2,,,,74,64
43080,note_off,840,0,5,,,,,,,,3,,,,74,64
43080,note_off,840,0,1,,,,,,,,0,,,,74,64
43120,note_off,400,0,20,,,,,,,,13,,,,64,64
43120,note_off,400,0,7,,,,,,,,4,,,,56,64
43120,note_off,400,0,21,,,,,,,,14,,,,56,64
43120,note_off,400,0,4,,,,,,,,2,,,,71,64
43120,note_off,400,0,19,,,,,,,,12,,,,71,64
43120,note_off,400,0,2,,,,,,,,0,,,,71,64
43120,note_off,400,0,22,,,,,,,,15,,,,44,64
43120,note_off,400,0,8,,,,,,,,4,,,,44,64
43120,note_off,400,0,6,,,,,,,,3,,,,71,64
43200,note_on,80,0,21,,,,,,,,14,,,,57,92
43200,note_on,80,0,4,,,,,,,,2,,,,64,92
43200,note_on,80,0,6,,,,,,,,3,,,,64,92
43200,note_on,80,0,22,,,,,,,,15,,,,45,92
43200,note_on,80,0,7,,,,,,,,4,,,,57,92
43200,note_on,120,0,1,,,,,,,,0,,,,73,92
43200,note_on,120,0,3,,,,,,,,2,,,,73,92
43200,note_on,80,0,19,,,,,,,,12,,,,64,92
43200,note_on,80,0,20,,,,,,,,13,,,,69,92
43200,note_on,80,0,8,,,,,,,,4,,,,45,92
43200,note_on,80,0,2,,,,,,,,0,,,,64,92
43200,note_on,120,0,5,,,,,,,,3,,,,73,92
43200,note_on,120,0,18,,,,,,,,11,,,,73,108
43600,note_off,400,0,20,,,,,,,,13,,,,69,64
43600,note_off,400,0,6,,,,,,,,3,,,,64,64
43600,note_off,400,0,19,,,,,,,,12,,,,64,64
43600,note_off,400,0,18,,,,,,,,11,,,,73,64
43600,note_off,400,0,5,,,,,,,,3,,,,73,64
43600,note_off,400,0,3,,,,,,,,2,,,,73,64
43600,note_off,400,0,2,,,,,,,,0,,,,64,64
43600,note_off,400,0,1,,,,,,,,0,,,,73,64
43600,note_off,400,0,4,,,,,,,,2,,,,64,64
43680,note_on,80,0,4,,,,,,,,2,,,,69,92
43680,note_on,80,0,2,,,,,,,,0,,,,69,92
43680,note_on,80,0,5,,,,,,,,3,,,,74,92
43680,note_on,80,0,6,,,,,,,,3,,,,69,92
43680,note_on,80,0,1,,,,,,,,0,,,,74,92
43680,note_on,80,0,18,,,,,,,,11,,,,74,108
43680,note_on,80,0,19,,,,,,,,12,,,,69,92
43680,note_on,80,0,20,,,,,,,,13,,,,64,92
43680,note_on,80,0,3,,,,,,,,2,,,,74,92
43840,note_off,640,0,22,,,,,,,,15,,,,45,64
43840,note_off,640,0,7,,,,,,,,4,,,,57,64
43840,note_off,640,0,8,,,,,,,,4,,,,45,64
43840,note_off,640,0,21,,,,,,,,14,,,,57,64
43920,note_on,80,0,7,,,,,,,,4,,,,57,92
43920,note_on,80,0,8,,,,,,,,4,,,,45,92
43920,note_on,80,0,22,,,,,,,,15,,,,45,92
43920,note_on,80,0,21,,,,,,,,14,,,,57,92
44040,note_off,360,0,18,,,,,,,,11,,,,74,64
44040,note_off,360,0,3,,,,,,,,2,,,,74,64
44040,note_on,0,0,1,,,,,,,,0,,,,73,92
44040,note_off,360,0,1,,,,,,,,0,,,,74,64
44040,note_off,360,0,5,,,,,,,,3,,,,74,64
44040,note_on,0,0,5,,,,,,,,3,,,,73,92
44040,note_on,0,0,3,,,,,,,,2,,,,73,92
44040,note_on,0,0,18,,,,,,,,11,,,,73,108
44080,note_off,400,0,6,,,,,,,,3,,,,69,64
44080,note_off,400,0,2,,,,,,,,0,,,,69,64
44080,note_off,400,0,19,,,,,,,,12,,,,69,64
44080,note_off,400,0,4,,,,,,,,2,,,,69,64
44080,note_off,400,0,20,,,,,,,,13,,,,64,64
44155,note_off,115,0,18,,,,,,,,11,,,,73,64
44155,note_off,115,0,5,,,,,,,,3,,,,73,64
44155,note_off,235,0,8,,,,,,,,4,,,,45,64
44155,note_off,115,0,1,,,,,,,,0,,,,73,64
44155,note_off,235,0,22,,,,,,,,15,,,,45,64
44155,note_off,235,0,21,,,,,,,,14,,,,57,64
44155,note_off,115,0,3,,,,,,,,2,,,,73,64
44155,note_off,235,0,7,,,,,,,,4,,,,57,64
44160,note_on,80,0,20,,,,,,,,13,,,,64,92
44160,note_on,5,0,1,,,,,,,,0,,,,71,92
44160,note_on,5,0,8,,,,,,,,4,,,,52,92
44160,note_on,80,0,2,,,,,,,,0,,,,68,92
44160,note_on,5,0,21,,,,,,,,14,,,,52,92
44160,note_on,5,0,3,,,,,,,,2,,,,71,92
44160,note_on,5,0,22,,,,,,,,15,,,,40,92
44160,note_on,5,0,18,,,,,,,,11,,,,71,108
44160,note_on,80,0,19,,,,,,,,12,,,,68,92
44160,note_on,80,0,6,,,,,,,,3,,,,68,92
44160,note_on,80,0,4,,,,,,,,2,,,,68,92
44160,note_on,5,0,7,,,,,,,,4,,,,52,92
44160,note_on,5,0,5,,,,,,,,3,,,,71,92
44560,note_off,400,0,2,,,,,,,,0,,,,68,64
44560,note_off,400,0,22,,,,,,,,15,,,,40,64
44560,note_off,400,0,1,,,,,,,,0,,,,71,64
44560,note_off,400,0,19,,,,,,,,12,,,,68,64
44560,note_off,400,0,18,,,,,,,,11,,,,71,64
44560,note_off,400,0,6,,,,,,,,3,,,,68,64
44560,note_off,400,0,20,,,,,,,,13,,,,64,64
44560,note_off,400,0,7,,,,,,,,4,,,,52,64
44560,note_off,400,0,8,,,,,,,,4,,,,52,64
44560,note_off,400,0,21,,,,,,,,14,,,,52,64
44560,note_off,400,0,4,,,,,,,,2,,,,68,64
44560,note_off,400,0,3,,,,,,,,2,,,,71,64
44560,note_off,400,0,5,,,,,,,,3,,,,71,64
44640,note_on,80,0,1,,,,,,,,0,,,,69,92
44640,note_on,80,0,3,,,,,,,,2,,,,69,92
44640,note_on,80,0,6,,,,,,,,3,,,,69,92
44640,note_on,80,0,2,,,,,,,,0,,,,69,92
44640,note_on,80,0,18,,,,,,,,11,,,,69,108
44640,note_on,80,0,7,,,,,,,,4,,,,45,92
44640,note_on,80,0,20,,,,,,,,13,,,,61,92
44640,note_on,80,0,22,,,,,,,,15,,,,33,92
44640,note_on,80,0,5,,,,,,,,3,,,,69,92
44640,note_on,80,0,8,,,,,,,,4,,,,45,92
44640,note_on,80,0,21,,,,,,,,14,,,,61,92
44640,note_on,80,0,19,,,,,,,,12,,,,64,92
44640,note_on,80,0,4,,,,,,,,2,,,,64,92
45000,note_off,360,0,1,,,,,,,,0,,,,69,64
45000,note_off,360,0,18,,,,,,,,11,,,,69,64
45000,note_on,0,0,18,,,,,,,,11,,,,71,108
45000,note_off,360,0,5,,,,,,,,3,,,,69,64
45000,note_on,0,0,5,,,,,,,,3,,,,71,92
45000,note_on,0,0,20,,,,,,,,13,,,,62,92
45000,note_off,360,0,20,,,,,,,,13,,,,61,64
45000,note_on,0,0,3,,,,,,,,2,,,,71,92
45000,note_on,0,0,1,,,,,,,,0,,,,71,92
45000,note_off,360,0,3,,,,,,,,2,,,,69,64
45040,note_off,400,0,22,,,,,,,,15,,,,33,64
45040,note_off,400,0,7,,,,,,,,4,,,,45,64
45040,note_off,400,0,19,,,,,,,,12,,,,64,64
45040,note_off,400,0,8,,,,,,,,4,,,,45,64
45040,note_off,400,0,21,,,,,,,,14,,,,61,64
45115,note_off,115,0,5,,,,,,,,3,,,,71,64
45115,note_off,115,0,20,,,,,,,,13,,,,62,64
45115,note_off,115,0,1,,,,,,,,0,,,,71,64
45115,note_off,115,0,3,,,,,,,,2,,,,71,64
45115,note_off,115,0,18,,,,,,,,11,,,,71,64
45120,note_on,80,0,8,,,,,,,,4,,,,40,92
45120,note_on,80,0,22,,,,,,,,15,,,,40,92
45120,note_on,5,0,18,,,,,,,,11,,,,71,108
45120,note_on,5,0,20,,,,,,,,13,,,,64,92
45120,note_on,5,0,5,,,,,,,,3,,,,71,92
45120,note_on,5,0,3,,,,,,,,2,,,,71,92
45120,note_on,5,0,1,,,,,,,,0,,,,71,92
45120,note_on,80,0,21,,,,,,,,14,,,,52,92
45120,note_on,80,0,19,,,,,,,,12,,,,69,92
45120,note_on,80,0,7,,,,,,,,4,,,,52,92
45150,note_off,30,0,5,,,,,,,,3,,,,71,64
45150,note_on,0,0,18,,,,,,,,11,,,,73,108
45150,note_off,30,0,18,,,,,,,,11,,,,71,64
45150,note_on,0,0,5,,,,,,,,3,,,,73,92
45150,note_off,30,0,1,,,,,,,,0,,,,71,64
45150,note_on,0,0,1,,,,,,,,0,,,,73,92
45150,note_on,0,0,3,,,,,,,,2,,,,73,92
45150,note_off,30,0,3,,,,,,,,2,,,,71,64
45180,note_off,30,0,5,,,,,,,,3,,,,73,64
45180,note_on,0,0,3,,,,,,,,2,,,,71,92
45180,note_on,0,0,5,,,,,,,,3,,,,71,92
45180,note_off,30,0,3,,,,,,,,2,,,,73,64
45180,note_off,30,0,1,,,,,,,,0,,,,73,64
45180,note_on,0,0,1,,,,,,,,0,,,,71,92
45180,note_off,30,0,18,,,,,,,,11,,,,73,64
45180,note_on,0,0,18,,,,,,,,11,,,,71,108
45210,note_on,0,0,1,,,,,,,,0,,,,73,92
45210,note_off,30,0,3,,,,,,,,2,,,,71,64
45210,note_on,0,0,3,,,,,,,,2,,,,73,92
45210,note_off,30,0,18,,,,,,,,11,,,,71,64
45210,note_on,0,0,18,,,,,,,,11,,,,73,108
45210,note_off,30,0,5,,,,,,,,3,,,,71,64
45210,note_off,30,0,1,,,,,,,,0,,,,71,64
45210,note_on,0,0,5,,,,,,,,3,,,,73,92
45240,note_on,0,0,18,,,,,,,,11,,,,71,108
45240,note_off,30,0,18,,,,,,,,11,,,,73,64
45240,note_off,30,0,3,,,,,,,,2,,,,73,64
45240,note_on,0,0,5,,,,,,,,3,,,,71,92
45240,note_on,0,0,3,,,,,,,,2,,,,71,92
45240,note_off,30,0,1,,,,,,,,0,,,,73,64
45240,note_off,30,0,5,,,,,,,,3,,,,73,64
45240,note_on,0,0,1,,,,,,,,0,,,,71,92
45270,note_off,30,0,5,,,,,,,,3,,,,71,64
45270,note_on,0,0,5,,,,,,,,3,,,,73,92
45270,note_on,0,0,1,,,,,,,,0,,,,73,92
45270,note_off,30,0,1,,,,,,,,0,,,,71,64
45270,note_on,0,0,18,,,,,,,,11,,,,73,108
45270,note_off,30,0,18,,,,,,,,11,,,,71,64
45270,note_on,0,0,3,,,,,,,,2,,,,73,92
45270,note_off,30,0,3,,,,,,,,2,,,,71,64
45300,note_off,30,0,1,,,,,,,,0,,,,73,64
45300,note_on,0,0,1,,,,,,,,0,,,,71,92
45300,note_on,0,0,3,,,,,,,,2,,,,71,92
45300,note_off,30,0,3,,,,,,,,2,,,,73,64
45300,note_on,0,0,18,,,,,,,,11,,,,71,108
45300,note_off,30,0,18,,,,,,,,11,,,,73,64
45300,note_on,0,0,5,,,,,,,,3,,,,71,92
45300,note_off,30,0,5,,,,,,,,3,,,,73,64
45330,note_off,30,0,5,,,,,,,,3,,,,71,64
45330,note_on,0,0,1,,,,,,,,0,,,,73,92
45330,note_off,30,0,3,,,,,,,,2,,,,71,64
45330,note_on,0,0,3,,,,,,,,2,,,,73,92
45330,note_off,30,0,1,,,,,,,,0,,,,71,64
45330,note_on,0,0,18,,,,,,,,11,,,,73,108
45330,note_on,0,0,5,,,,,,,,3,,,,73,92
45330,note_off,30,0,18,,,,,,,,11,,,,71,64
45360,note_on,0,0,18,,,,,,,,11,,,,71,108
45360,note_off,30,0,18,,,,,,,,11,,,,73,64
45360,note_off,30,0,5,,,,,,,,3,,,,73,64
45360,note_on,0,0,5,,,,,,,,3,,,,71,92
45360,note_on,0,0,1,,,,,,,,0,,,,71,92
45360,note_on,0,0,3,,,,,,,,2,,,,71,92
45360,note_off,30,0,3,,,,,,,,2,,,,73,64
45360,note_off,30,0,1,,,,,,,,0,,,,73,64
45390,note_on,0,0,1,,,,,,,,0,,,,73,92
45390,note_off,30,0,1,,,,,,,,0,,,,71,64
45390,note_off,30,0,18,,,,,,,,11,,,,71,64
45390,note_on,0,0,18,,,,,,,,11,,,,73,108
45390,note_off,30,0,3,,,,,,,,2,,,,71,64
45390,note_on,0,0,3,,,,,,,,2,,,,73,92
45390,note_off,30,0,5,,,,,,,,3,,,,71,64
45390,note_on,0,0,5,,,,,,,,3,,,,73,92
45420,note_on,0,0,3,,,,,,,,2,,,,71,92
45420,note_on,0,0,1,,,,,,,,0,,,,71,92
45420,note_off,30,0,1,,,,,,,,0,,,,73,64
45420,note_off,30,0,3,,,,,,,,2,,,,73,64
45420,note_off,30,0,5,,,,,,,,3,,,,73,64
45420,note_on,0,0,5,,,,,,,,3,,,,71,92
45420,note_off,30,0,18,,,,,,,,11,,,,73,64
45420,note_on,0,0,18,,,,,,,,11,,,,71,108
45450,note_off,30,0,18,,,,,,,,11,,,,71,64
45450,note_on,0,0,3,,,,,,,,2,,,,73,92
45450,note_on,0,0,18,,,,,,,,11,,,,73,108
45450,note_on,0,0,5,,,,,,,,3,,,,73,92
45450,note_off,30,0,1,,,,,,,,0,,,,71,64
45450,note_on,0,0,1,,,,,,,,0,,,,73,92
45450,note_off,30,0,5,,,,,,,,3,,,,71,64
45450,note_off,30,0,3,,,,,,,,2,,,,71,64
45480,note_off,840,0,4,,,,,,,,2,,,,64,64
45480,note_off,840,0,6,,,,,,,,3,,,,69,64
45480,note_off,30,0,1,,,,,,,,0,,,,73,64
45480,note_on,0,0,1,,,,,,,,0,,,,71,92
45480,note_off,840,0,2,,,,,,,,0,,,,69,64
45480,note_on,0,0,18,,,,,,,,11,,,,71,108
45480,note_off,30,0,18,,,,,,,,11,,,,73,64
45480,note_on,0,0,3,,,,,,,,2,,,,71,92
45480,note_off,30,0,5,,,,,,,,3,,,,73,64
45480,note_on,0,0,5,,,,,,,,3,,,,71,92
45480,note_off,30,0,3,,,,,,,,2,,,,73,64
45510,note_on,0,0,3,,,,,,,,2,,,,73,92
45510,note_off,30,0,1,,,,,,,,0,,,,71,64
45510,note_on,0,0,1,,,,,,,,0,,,,73,92
45510,note_off,30,0,3,,,,,,,,2,,,,71,64
45510,note_on,0,0,5,,,,,,,,3,,,,73,92
45510,note_off,30,0,5,,,,,,,,3,,,,71,64
45510,note_on,0,0,18,,,,,,,,11,,,,73,108
45510,note_off,30,0,18,,,,,,,,11,,,,71,64
45520,note_off,400,0,19,,,,,,,,12,,,,69,64
45540,note_off,30,0,18,,,,,,,,11,,,,73,64
45540,note_on,0,0,18,,,,,,,,11,,,,71,108
45540,note_off,30,0,5,,,,,,,,3,,,,73,64
45540,note_on,0,0,1,,,,,,,,0,,,,71,92
45540,note_off,30,0,1,,,,,,,,0,,,,73,64
45540,note_on,0,0,3,,,,,,,,2,,,,71,92
45540,note_on,0,0,5,,,,,,,,3,,,,71,92
45540,note_off,30,0,3,,,,,,,,2,,,,73,64
45570,note_on,0,0,18,,,,,,,,11,,,,73,108
45570,note_off,30,0,18,,,,,,,,11,,,,71,64
45570,note_off,30,0,5,,,,,,,,3,,,,71,64
45570,note_off,30,0,1,,,,,,,,0,,,,71,64
45570,note_on,0,0,1,,,,,,,,0,,,,73,92
45570,note_off,30,0,3,,,,,,,,2,,,,71,64
45570,note_on,0,0,3,,,,,,,,2,,,,73,92
45570,note_on,0,0,5,,,,,,,,3,,,,73,92
45600,note_on,120,0,6,,,,,,,,3,,,,68,92
45600,note_on,80,0,19,,,,,,,,12,,,,68,92
45600,note_off,30,0,5,,,,,,,,3,,,,73,64
45600,note_on,0,0,5,,,,,,,,3,,,,71,92
45600,note_off,30,0,18,,,,,,,,11,,,,73,64
45600,note_off,30,0,1,,,,,,,,0,,,,73,64
45600,note_on,0,0,1,,,,,,,,0,,,,71,92
45600,note_on,120,0,2,,,,,,,,0,,,,68,92
45600,note_off,30,0,3,,,,,,,,2,,,,73,64
45600,note_on,0,0,3,,,,,,,,2,,,,71,92
45600,note_on,120,0,4,,,,,,,,2,,,,68,92
45600,note_on,0,0,18,,,,,,,,11,,,,71,108
45630,note_on,0,0,3,,,,,,,,2,,,,73,92
45630,note_on,0,0,18,,,,,,,,11,,,,73,108
45630,note_off,30,0,5,,,,,,,,3,,,,71,64
45630,note_off,30,0,3,,,,,,,,2,,,,71,64
45630,note_off,30,0,1,,,,,,,,0,,,,71,64
45630,note_on,0,0,1,,,,,,,,0,,,,73,92
45630,note_off,30,0,18,,,,,,,,11,,,,71,64
45630,note_on,0,0,5,,,,,,,,3,,,,73,92
45660,note_on,0,0,3,,,,,,,,2,,,,71,92
45660,note_off,30,0,3,,,,,,,,2,,,,73,64
45660,note_on,0,0,18,,,,,,,,11,,,,71,108
45660,note_on,0,0,5,,,,,,,,3,,,,71,92
45660,note_off,30,0,18,,,,,,,,11,,,,73,64
45660,note_off,30,0,5,,,,,,,,3,,,,73,64
45660,note_off,30,0,1,,,,,,,,0,,,,73,64
45660,note_on,0,0,1,,,,,,,,0,,,,71,92
45690,note_off,30,0,18,,,,,,,,11,,,,71,64
45690,note_on,0,0,18,,,,,,,,11,,,,73,108
45690,note_off,30,0,5,,,,,,,,3,,,,71,64
45690,note_on,0,0,3,,,,,,,,2,,,,73,92
45690,note_off,30,0,3,,,,,,,,2,,,,71,64
45690,note_on,0,0,5,,,,,,,,3,,,,73,92
45690,note_on,0,0,1,,,,,,,,0,,,,73,92
45690,note_off,30,0,1,,,,,,,,0,,,,71,64
45720,note_on,0,0,1,,,,,,,,0,,,,71,92
45720,note_off,30,0,1,,,,,,,,0,,,,73,64
45720,note_on,0,0,3,,,,,,,,2,,,,71,92
45720,note_on,0,0,5,,,,,,,,3,,,,71,92
45720,note_off,30,0,3,,,,,,,,2,,,,73,64
45720,note_off,30,0,18,,,,,,,,11,,,,73,64
45720,note_on,0,0,18,,,,,,,,11,,,,71,108
45720,note_off,30,0,5,,,,,,,,3,,,,73,64
45750,note_on,0,0,1,,,,,,,,0,,,,73,92
45750,note_off,30,0,1,,,,,,,,0,,,,71,64
45750,note_on,0,0,18,,,,,,,,11,,,,73,108
45750,note_off,30,0,18,,,,,,,,11,,,,71,64
45750,note_on,0,0,5,,,,,,,,3,,,,73,92
45750,note_off,30,0,5,,,,,,,,3,,,,71,64
45750,note_on,0,0,3,,,,,,,,2,,,,73,92
45750,note_off,30,0,3,,,,,,,,2,,,,71,64
45780,note_off,30,0,5,,,,,,,,3,,,,73,64
45780,note_on,0,0,5,,,,,,,,3,,,,71,92
45780,note_off,30,0,3,,,,,,,,2,,,,73,64
45780,note_on,0,0,18,,,,,,,,11,,,,71,108
45780,note_off,30,0,18,,,,,,,,11,,,,73,64
45780,note_off,30,0,1,,,,,,,,0,,,,73,64
45780,note_on,0,0,1,,,,,,,,0,,,,71,92
45780,note_on,0,0,3,,,,,,,,2,,,,71,92
45810,note_off,30,0,3,,,,,,,,2,,,,71,64
45810,note_on,0,0,3,,,,,,,,2,,,,73,92
45810,note_on,0,0,1,,,,,,,,0,,,,73,92
45810,note_off,30,0,1,,,,,,,,0,,,,71,64
45810,note_off,30,0,5,,,,,,,,3,,,,71,64
45810,note_off,30,0,18,,,,,,,,11,,,,71,64
45810,note_on,0,0,18,,,,,,,,11,,,,73,108
45810,note_on,0,0,5,,,,,,,,3,,,,73,92
45840,note_off,30,0,1,,,,,,,,0,,,,73,64
45840,note_off,240,0,4,,,,,,,,2,,,,68,64
45840,note_on,0,0,4,,,,,,,,2,,,,62,92
45840,note_on,0,0,18,,,,,,,,11,,,,69,108
45840,note_off,30,0,18,,,,,,,,11,,,,73,64
45840,note_off,240,0,19,,,,,,,,12,,,,68,64
45840,note_on,0,0,19,,,,,,,,12,,,,62,92
45840,note_on,0,0,3,,,,,,,,2,,,,69,92
45840,note_off,240,0,6,,,,,,,,3,,,,68,64
45840,note_off,240,0,2,,,,,,,,0,,,,68,64
45840,note_on,0,0,2,,,,,,,,0,,,,62,92
45840,note_on,0,0,5,,,,,,,,3,,,,69,92
45840,note_off,30,0,5,,,,,,,,3,,,,73,64
45840,note_on,0,0,1,,,,,,,,0,,,,69,92
45840,note_off,30,0,3,,,,,,,,2,,,,73,64
45840,note_on,0,0,6,,,,,,,,3,,,,62,92
45960,note_off,840,0,7,,,,,,,,4,,,,52,64
45960,note_off,840,0,20,,,,,,,,13,,,,64,64
45960,note_off,840,0,21,,,,,,,,14,,,,52,64
45960,note_off,840,0,22,,,,,,,,15,,,,40,64
45960,note_off,840,0,8,,,,,,,,4,,,,40,64
46075,note_off,235,0,18,,,,,,,,11,,,,69,64
46075,note_off,235,0,6,,,,,,,,3,,,,62,64
46075,note_off,235,0,4,,,,,,,,2,,,,62,64
46075,note_off,235,0,19,,,,,,,,12,,,,62,64
46075,note_off,235,0,3,,,,,,,,2,,,,69,64
46075,note_off,235,0,2,,,,,,,,0,,,,62,64
46075,note_off,235,0,1,,,,,,,,0,,,,69,64
46075,note_off,235,0,5,,,,,,,,3,,,,69,64
46080,note_on,5,0,2,,,,,,,,0,,,,61,92
46080,note_on,5,0,4,,,,,,,,2,,,,61,92
46080,note_on,5,0,1,,,,,,,,0,,,,69,92
46080,note_on,5,0,6,,,,,,,,3,,,,61,92
46080,note_on,120,0,22,,,,,,,,15,,,,33,92
46080,note_on,120,0,21,,,,,,,,14,,,,61,92
46080,note_on,120,0,8,,,,,,,,4,,,,45,92
46080,note_on,5,0,19,,,,,,,,12,,,,61,92
46080,note_on,5,0,5,,,,,,,,3,,,,69,92
46080,note_on,120,0,20,,,,,,,,13,,,,64,92
46080,note_on,120,0,7,,,,,,,,4,,,,45,92
46080,note_on,5,0,18,,,,,,,,11,,,,69,108
46080,note_on,5,0,3,,,,,,,,2,,,,69,92
46920,note_off,840,0,8,,,,,,,,4,,,,45,64
46920,note_off,840,0,19,,,,,,,,12,,,,61,64
46920,note_off,840,0,7,,,,,,,,4,,,,45,64
46920,note_off,840,0,4,,,,,,,,2,,,,61,64
46920,note_off,840,0,2,,,,,,,,0,,,,61,64
46920,note_off,840,0,5,,,,,,,,3,,,,69,64
46920,note_off,840,0,22,,,,,,,,15,,,,33,64
46920,note_off,840,0,6,,,,,,,,3,,,,61,64
46920,note_off,840,0,3,,,,,,,,2,,,,69,64
46920,note_off,840,0,20,,,,,,,,13,,,,64,64
46920,note_off,840,0,1,,,,,,,,0,,,,69,64
46920,note_off,840,0,18,,,,,,,,11,,,,69,64
46920,note_off,840,0,21,,,,,,,,14,,,,61,64
47040,note_on,120,0,18,,,,,,,,11,,,,76,108
47040,note_on,120,0,8,,,,,,,,4,,,,49,92
47040,note_on,120,0,20,,,,,,,,13,,,,64,92
47040,note_on,120,0,19,,,,,,,,12,,,,69,92
47040,note_on,11640,0,12,,,,,,,,6,,,,69,92
47040,note_on,11640,0,9,,,,,,,,5,,,,73,92
47040,note_on,11640,0,11,,,,,,,,6,,,,76,92
47040,note_on,120,0,7,,,,,,,,4,,,,61,92
47040,note_on,120,0,21,,,,,,,,14,,,,49,92
47040,note_on,11640,0,16,,,,,,,,8,,,,49,92
47040,note_on,11640,0,13,,,,,,,,7,,,,57,92
47040,note_on,11640,0,14,,,,,,,,7,,,,52,92
47040,note_on,120,0,4,,,,,,,,2,,,,69,92
47040,note_on,11640,0,15,,,,,,,,7,,,,49,92
47040,note_on,120,0,2,,,,,,,,0,,,,69,92
47040,note_on,11640,0,17,,,,,,,,10,,,,45,92
47040,note_on,11640,0,10,,,,,,,,5,,,,69,92
47040,note_on,120,0,22,,,,,,,,15,,,,49,92
47040,note_on,120,0,1,,,,,,,,0,,,,76,92
47040,note_on,120,0,6,,,,,,,,3,,,,69,92
47040,note_on,120,0,3,,,,,,,,2,,,,76,92
47040,note_on,120,0,5,,,,,,,,3,,,,76,92
47440,note_off,400,0,16,,,,,,,,8,,,,49,64
47440,note_off,400,0,6,,,,,,,,3,,,,69,64
47440,note_off,400,0,21,,,,,,,,14,,,,49,64
47440,note_off,400,0,19,,,,,,,,12,,,,69,64
47440,note_off,400,0,4,,,,,,,,2,,,,69,64
47440,note_off,400,0,20,,,,,,,,13,,,,64,64
47440,note_off,400,0,15,,,,,,,,7,,,,49,64
47440,note_off,400,0,22,,,,,,,,15,,,,49,64
47440,note_off,400,0,2,,,,,,,,0,,,,69,64
47440,note_off,400,0,8,,,,,,,,4,,,,49,64
47440,note_off,400,0,7,,,,,,,,4,,,,61,64
47520,note_on,80,0,2,,,,,,,,0,,,,73,92
47520,note_on,80,0,21,,,,,,,,14,,,,45,92
47520,note_on,80,0,20,,,,,,,,13,,,,69,92
47520,note_on,80,0,15,,,,,,,,7,,,,49,92
47520,note_on,80,0,6,,,,,,,,3,,,,73,92
47520,note_on,80,0,22,,,,,,,,15,,,,45,92
47520,note_on,80,0,4,,,,,,,,2,,,,73,92
47520,note_on,80,0,16,,,,,,,,8,,,,45,92
47520,note_on,80,0,8,,,,,,,,4,,,,45,92
47520,note_on,80,0,7,,,,,,,,4,,,,57,92
47520,note_on,80,0,19,,,,,,,,12,,,,73,92
47680,note_off,640,0,10,,,,,,,,5,,,,69,64
47680,note_off,640,0,17,,,,,,,,10,,,,45,64
47680,note_off,640,0,9,,,,,,,,5,,,,73,64
47680,note_off,640,0,12,,,,,,,,6,,,,69,64
47680,note_off,640,0,13,,,,,,,,7,,,,57,64
47760,note_on,80,0,10,,,,,,,,5,,,,69,92
47760,note_on,80,0,9,,,,,,,,5,,,,73,92
47760,note_on,80,0,13,,,,,,,,7,,,,57,92
47760,note_off,720,0,3,,,,,,,,2,,,,76,64
47760,note_on,0,0,3,,,,,,,,2,,,,78,92
47760,note_on,0,0,11,,,,,,,,6,,,,78,92
47760,note_off,720,0,1,,,,,,,,0,,,,76,64
47760,note_off,720,0,18,,,,,,,,11,,,,76,64
47760,note_on,80,0,17,,,,,,,,10,,,,45,92
47760,note_on,80,0,12,,,,,,,,6,,,,69,92
47760,note_off,720,0,14,,,,,,,,7,,,,52,64
47760,note_off,720,0,5,,,,,,,,3,,,,76,64
47760,note_on,0,0,14,,,,,,,,7,,,,54,92
47760,note_on,0,0,5,,,,,,,,3,,,,78,92
47760,note_off,720,0,11,,,,,,,,6,,,,76,64
47760,note_on,0,0,1,,,,,,,,0,,,,78,92
47760,note_on,0,0,18,,,,,,,,11,,,,78,108
47920,note_off,400,0,16,,,,,,,,8,,,,45,64
47920,note_off,400,0,15,,,,,,,,7,,,,49,64
47920,note_off,400,0,4,,,,,,,,2,,,,73,64
47920,note_off,400,0,20,,,,,,,,13,,,,69,64
47920,note_off,400,0,19,,,,,,,,12,,,,73,64
47920,note_off,400,0,6,,,,,,,,3,,,,73,64
47920,note_off,400,0,8,,,,,,,,4,,,,45,64
47920,note_off,400,0,21,,,,,,,,14,,,,45,64
47920,note_off,400,0,22,,,,,,,,15,,,,45,64
47920,note_off,400,0,7,,,,,,,,4,,,,57,64
47920,note_off,400,0,2,,,,,,,,0,,,,73,64
47995,note_off,235,0,13,,,,,,,,7,,,,57,64
47995,note_off,235,0,3,,,,,,,,2,,,,78,64
47995,note_off,235,0,11,,,,,,,,6,,,,78,64
47995,note_off,235,0,5,,,,,,,,3,,,,78,64
47995,note_off,235,0,18,,,,,,,,11,,,,78,64
47995,note_off,235,0,1,,,,,,,,0,,,,78,64
47995,note_off,235,0,9,,,,,,,,5,,,,73,64
47995,note_off,235,0,14,,,,,,,,7,,,,54,64
47995,note_off,235,0,12,,,,,,,,6,,,,69,64
47995,note_off,235,0,17,,,,,,,,10,,,,45,64
47995,note_off,235,0,10,,,,,,,,5,,,,69,64
48000,note_on,80,0,20,,,,,,,,13,,,,67,92
48000,note_on,80,0,2,,,,,,,,0,,,,74,92
48000,note_on,5,0,17,,,,,,,,10,,,,50,92
48000,note_on,80,0,6,,,,,,,,3,,,,74,92
48000,note_on,80,0,22,,,,,,,,15,,,,47,92
48000,note_on,5,0,5,,,,,,,,3,,,,79,92
48000,note_on,80,0,15,,,,,,,,7,,,,50,92
48000,note_on,5,0,3,,,,,,,,2,,,,79,92
48000,note_on,5,0,13,,,,,,,,7,,,,67,92
48000,note_on,5,0,11,,,,,,,,6,,,,79,92
48000,note_on,80,0,21,,,,,,,,14,,,,47,92
48000,note_on,5,0,14,,,,,,,,7,,,,59,92
48000,note_on,5,0,18,,,,,,,,11,,,,79,108
48000,note_on,80,0,16,,,,,,,,8,,,,47,92
48000,note_on,80,0,19,,,,,,,,12,,,,74,92
48000,note_on,5,0,9,,,,,,,,5,,,,71,92
48000,note_on,80,0,7,,,,,,,,4,,,,59,92
48000,note_on,80,0,4,,,,,,,,2,,,,74,92
48000,note_on,80,0,8,,,,,,,,4,,,,47,92
48000,note_on,5,0,10,,,,,,,,5,,,,67,92
48000,note_on,5,0,12,,,,,,,,6,,,,74,92
48000,note_on,5,0,1,,,,,,,,0,,,,79,92
48400,note_off,400,0,11,,,,,,,,6,,,,79,64
48400,note_off,400,0,13,,,,,,,,7,,,,67,64
48400,note_off,400,0,17,,,,,,,,10,,,,50,64
48400,note_off,400,0,20,,,,,,,,13,,,,67,64
48400,note_off,400,0,18,,,,,,,,11,,,,79,64
48400,note_off,400,0,1,,,,,,,,0,,,,79,64
48400,note_off,400,0,5,,,,,,,,3,,,,79,64
48400,note_off,400,0,12,,,,,,,,6,,,,74,64
48400,note_off,400,0,3,,,,,,,,2,,,,79,64
48480,note_on,80,0,13,,,,,,,,7,,,,62,92
48480,note_on,80,0,5,,,,,,,,3,,,,81,92
48480,note_on,80,0,17,,,,,,,,10,,,,50,92
48480,note_on,80,0,20,,,,,,,,13,,,,62,92
48480,note_on,80,0,3,,,,,,,,2,,,,81,92
48480,note_on,80,0,1,,,,,,,,0,,,,81,92
48480,note_on,80,0,18,,,,,,,,11,,,,81,108
48480,note_on,80,0,11,,,,,,,,6,,,,81,92
48480,note_on,80,0,12,,,,,,,,6,,,,74,92
48640,note_off,640,0,9,,,,,,,,5,,,,71,64
48640,note_off,640,0,2,,,,,,,,0,,,,74,64
48640,note_off,640,0,19,,,,,,,,12,,,,74,64
48640,note_off,640,0,4,,,,,,,,2,,,,74,64
48640,note_off,640,0,6,,,,,,,,3,,,,74,64
48640,note_off,640,0,10,,,,,,,,5,,,,67,64
48720,note_on,80,0,9,,,,,,,,5,,,,71,92
48720,note_on,80,0,4,,,,,,,,2,,,,74,92
48720,note_on,80,0,2,,,,,,,,0,,,,74,92
48720,note_on,80,0,19,,,,,,,,12,,,,74,92
48720,note_on,80,0,6,,,,,,,,3,,,,74,92
48720,note_on,80,0,10,,,,,,,,5,,,,67,92
48840,note_off,360,0,11,,,,,,,,6,,,,81,64
48840,note_on,0,0,11,,,,,,,,6,,,,83,92
48840,note_off,840,0,15,,,,,,,,7,,,,50,64
48840,note_off,840,0,8,,,,,,,,4,,,,47,64
48840,note_off,840,0,7,,,,,,,,4,,,,59,64
48840,note_off,840,0,21,,,,,,,,14,,,,47,64
48840,note_off,840,0,22,,,,,,,,15,,,,47,64
48840,note_on,0,0,1,,,,,,,,0,,,,83,92
48840,note_off,360,0,3,,,,,,,,2,,,,81,64
48840,note_off,360,0,18,,,,,,,,11,,,,81,64
48840,note_off,360,0,1,,,,,,,,0,,,,81,64
48840,note_on,0,0,5,,,,,,,,3,,,,83,92
48840,note_off,360,0,5,,,,,,,,3,,,,81,64
48840,note_off,840,0,14,,,,,,,,7,,,,59,64
48840,note_on,0,0,3,,,,,,,,2,,,,83,92
48840,note_on,0,0,18,,,,,,,,11,,,,83,108
48840,note_off,840,0,16,,,,,,,,8,,,,47,64
48880,note_off,400,0,17,,,,,,,,10,,,,50,64
48880,note_off,400,0,13,,,,,,,,7,,,,62,64
48880,note_off,400,0,20,,,,,,,,13,,,,62,64
48880,note_off,400,0,12,,,,,,,,6,,,,74,64
48955,note_off,235,0,9,,,,,,,,5,,,,71,64
48955,note_off,235,0,10,,,,,,,,5,,,,67,64
48955,note_off,235,0,19,,,,,,,,12,,,,74,64
48955,note_off,115,0,1,,,,,,,,0,,,,83,64
48955,note_off,235,0,4,,,,,,,,2,,,,74,64
48955,note_off,235,0,2,,,,,,,,0,,,,74,64
48955,note_off,235,0,6,,,,,,,,3,,,,74,64
48955,note_off,115,0,3,,,,,,,,2,,,,83,64
48955,note_off,115,0,11,,,,,,,,6,,,,83,64
48955,note_off,115,0,5,,,,,,,,3,,,,83,64
48955,note_off,115,0,18,,,,,,,,11,,,,83,64
48960,note_on,120,0,14,,,,,,,,7,,,,61,92
48960,note_on,5,0,9,,,,,,,,5,,,,69,92
48960,note_on,5,0,5,,,,,,,,3,,,,81,92
48960,note_on,120,0,7,,,,,,,,4,,,,61,92
48960,note_on,120,0,8,,,,,,,,4,,,,49,92
48960,note_on,5,0,10,,,,,,,,5,,,,64,92
48960,note_on,5,0,19,,,,,,,,12,,,,76,92
48960,note_on,5,0,18,,,,,,,,11,,,,81,108
48960,note_on,120,0,15,,,,,,,,7,,,,57,92
48960,note_on,5,0,2,,,,,,,,0,,,,76,92
48960,note_on,120,0,22,,,,,,,,15,,,,49,92
48960,note_on,5,0,3,,,,,,,,2,,,,81,92
48960,note_on,80,0,13,,,,,,,,7,,,,64,92
48960,note_on,80,0,17,,,,,,,,10,,,,45,92
48960,note_on,5,0,6,,,,,,,,3,,,,76,92
48960,note_on,80,0,20,,,,,,,,13,,,,69,92
48960,note_on,120,0,21,,,,,,,,14,,,,49,92
48960,note_on,80,0,12,,,,,,,,6,,,,76,92
48960,note_on,5,0,1,,,,,,,,0,,,,81,92
48960,note_on,5,0,4,,,,,,,,2,,,,76,92
48960,note_on,120,0,16,,,,,,,,8,,,,49,92
48960,note_on,5,0,11,,,,,,,,6,,,,81,92
49360,note_off,400,0,5,,,,,,,,3,,,,81,64
49360,note_off,400,0,9,,,,,,,,5,,,,69,64
49360,note_off,400,0,11,,,,,,,,6,,,,81,64
49360,note_off,400,0,18,,,,,,,,11,,,,81,64
49360,note_off,400,0,3,,,,,,,,2,,,,81,64
49360,note_off,400,0,1,,,,,,,,0,,,,81,64
49440,note_on,80,0,9,,,,,,,,5,,,,67,92
49440,note_on,80,0,11,,,,,,,,6,,,,79,92
49440,note_on,80,0,18,,,,,,,,11,,,,79,108
49440,note_on,80,0,5,,,,,,,,3,,,,79,92
49440,note_on,80,0,3,,,,,,,,2,,,,79,92
49440,note_on,80,0,1,,,,,,,,0,,,,79,92
49600,note_off,640,0,19,,,,,,,,12,,,,76,64
49600,note_off,640,0,15,,,,,,,,7,,,,57,64
49600,note_off,640,0,6,,,,,,,,3,,,,76,64
49600,note_off,640,0,22,,,,,,,,15,,,,49,64
49600,note_off,640,0,21,,,,,,,,14,,,,49,64
49600,note_off,640,0,14,,,,,,,,7,,,,61,64
49600,note_off,640,0,13,,,,,,,,7,,,,64,64
49600,note_off,640,0,7,,,,,,,,4,,,,61,64
49600,note_off,640,0,8,,,,,,,,4,,,,49,64
49600,note_off,640,0,17,,,,,,,,10,,,,45,64
49600,note_off,640,0,2,,,,,,,,0,,,,76,64
49600,note_off,640,0,4,,,,,,,,2,,,,76,64
49600,note_off,640,0,16,,,,,,,,8,,,,49,64
49600,note_off,640,0,10,,,,,,,,5,,,,64,64
49600,note_off,640,0,20,,,,,,,,13,,,,69,64
49600,note_off,640,0,12,,,,,,,,6,,,,76,64
49680,note_on,80,0,2,,,,,,,,0,,,,76,92
49680,note_on,80,0,4,,,,,,,,2,,,,76,92
49680,note_on,80,0,22,,,,,,,,15,,,,49,92
49680,note_on,80,0,10,,,,,,,,5,,,,64,92
49680,note_on,80,0,21,,,,,,,,14,,,,49,92
49680,note_on,80,0,20,,,,,,,,13,,,,69,92
49680,note_on,80,0,7,,,,,,,,4,,,,61,92
49680,note_on,80,0,17,,,,,,,,10,,,,45,92
49680,note_on,80,0,8,,,,,,,,4,,,,49,92
49680,note_on,80,0,19,,,,,,,,12,,,,76,92
49680,note_on,80,0,12,,,,,,,,6,,,,76,92
49680,note_on,80,0,14,,,,,,,,7,,,,61,92
49680,note_on,80,0,13,,,,,,,,7,,,,64,92
49680,note_on,80,0,15,,,,,,,,7,,,,57,92
49680,note_on,80,0,6,,,,,,,,3,,,,76,92
49680,note_on,80,0,16,,,,,,,,8,,,,49,92
49800,note_on,0,0,5,,,,,,,,3,,,,78,92
49800,note_on,0,0,18,,,,,,,,11,,,,78,108
49800,note_off,360,0,18,,,,,,,,11,,,,79,64
49800,note_on,0,0,11,,,,,,,,6,,,,78,92
49800,note_on,0,0,9,,,,,,,,5,,,,66,92
49800,note_off,360,0,9,,,,,,,,5,,,,67,64
49800,note_off,360,0,5,,,,,,,,3,,,,79,64
49800,note_off,360,0,3,,,,,,,,2,,,,79,64
49800,note_off,360,0,11,,,,,,,,6,,,,79,64
49800,note_off,360,0,1,,,,,,,,0,,,,79,64
49800,note_on,0,0,1,,,,,,,,0,,,,78,92
49800,note_on,0,0,3,,,,,,,,2,,,,78,92
49915,note_off,235,0,17,,,,,,,,10,,,,45,64
49915,note_off,235,0,7,,,,,,,,4,,,,61,64
49915,note_off,115,0,18,,,,,,,,11,,,,78,64
49915,note_off,115,0,1,,,,,,,,0,,,,78,64
49915,note_off,235,0,2,,,,,,,,0,,,,76,64
49915,note_off,235,0,15,,,,,,,,7,,,,57,64
49915,note_off,235,0,4,,,,,,,,2,,,,76,64
49915,note_off,235,0,8,,,,,,,,4,,,,49,64
49915,note_off,115,0,5,,,,,,,,3,,,,78,64
49915,note_off,235,0,10,,,,,,,,5,,,,64,64
49915,note_off,235,0,6,,,,,,,,3,,,,76,64
49915,note_off,235,0,20,,,,,,,,13,,,,69,64
49915,note_off,235,0,12,,,,,,,,6,,,,76,64
49915,note_off,235,0,13,,,,,,,,7,,,,64,64
49915,note_off,235,0,16,,,,,,,,8,,,,49,64
49915,note_off,115,0,11,,,,,,,,6,,,,78,64
49915,note_off,235,0,19,,,,,,,,12,,,,76,64
49915,note_off,115,0,9,,,,,,,,5,,,,66,64
49915,note_off,235,0,21,,,,,,,,14,,,,49,64
49915,note_off,235,0,22,,,,,,,,15,,,,49,64
49915,note_off,115,0,3,,,,,,,,2,,,,78,64
49915,note_off,235,0,14,,,,,,,,7,,,,61,64
49920,note_on,5,0,20,,,,,,,,13,,,,69,92
49920,note_on,5,0,13,,,,,,,,7,,,,62,92
49920,note_on,5,0,10,,,,,,,,5,,,,62,92
49920,note_on,5,0,12,,,,,,,,6,,,,74,92
49920,note_on,5,0,5,,,,,,,,3,,,,78,92
49920,note_on,5,0,17,,,,,,,,10,,,,50,92
49920,note_on,5,0,8,,,,,,,,4,,,,50,92
49920,note_on,5,0,9,,,,,,,,5,,,,66,92
49920,note_on,5,0,11,,,,,,,,6,,,,78,92
49920,note_on,5,0,15,,,,,,,,7,,,,54,92
49920,note_on,5,0,19,,,,,,,,12,,,,74,92
49920,note_on,5,0,3,,,,,,,,2,,,,78,92
49920,note_on,5,0,7,,,,,,,,4,,,,62,92
49920,note_on,5,0,16,,,,,,,,8,,,,50,92
49920,note_on,5,0,14,,,,,,,,7,,,,57,92
49920,note_on,5,0,18,,,,,,,,11,,,,78,108
49920,note_on,5,0,6,,,,,,,,3,,,,74,92
49920,note_on,5,0,4,,,,,,,,2,,,,74,92
49920,note_on,5,0,2,,,,,,,,0,,,,74,92
49920,note_on,5,0,22,,,,,,,,15,,,,50,92
49920,note_on,5,0,1,,,,,,,,0,,,,78,92
49920,note_on,5,0,21,,,,,,,,14,,,,50,92
50760,note_off,840,0,19,,,,,,,,12,,,,74,64
50760,note_off,840,0,17,,,,,,,,10,,,,50,64
50760,note_off,840,0,5,,,,,,,,3,,,,78,64
50760,note_off,840,0,1,,,,,,,,0,,,,78,64
50760,note_off,840,0,4,,,,,,,,2,,,,74,64
50760,note_off,840,0,3,,,,,,,,2,,,,78,64
50760,note_off,840,0,15,,,,,,,,7,,,,54,64
50760,note_off,840,0,10,,,,,,,,5,,,,62,64
50760,note_off,840,0,20,,,,,,,,13,,,,69,64
50760,note_off,840,0,18,,,,,,,,11,,,,78,64
50760,note_off,840,0,22,,,,,,,,15,,,,50,64
50760,note_off,840,0,8,,,,,,,,4,,,,50,64
50760,note_off,840,0,6,,,,,,,,3,,,,74,64
50760,note_off,840,0,16,,,,,,,,8,,,,50,64
50760,note_off,840,0,21,,,,,,,,14,,,,50,64
50760,note_off,840,0,12,,,,,,,,6,,,,74,64
50760,note_off,840,0,2,,,,,,,,0,,,,74,64
50760,note_off,840,0,13,,,,,,,,7,,,,62,64
50760,note_off,840,0,7,,,,,,,,4,,,,62,64
50760,note_off,840,0,9,,,,,,,,5,,,,66,64
50760,note_off,840,0,11,,,,,,,,6,,,,78,64
50760,note_off,840,0,14,,,,,,,,7,,,,57,64
50880,note_on,120,0,15,,,,,,,,7,,,,57,92
50880,note_on,120,0,4,,,,,,,,2,,,,78,92
50880,note_on,120,0,17,,,,,,,,10,,,,50,92
50880,note_on,120,0,2,,,,,,,,0,,,,78,92
50880,note_on,120,0,5,,,,,,,,3,,,,81,92
50880,note_on,120,0,14,,,,,,,,7,,,,62,92
50880,note_on,120,0,16,,,,,,,,8,,,,50,92
50880,note_on,120,0,19,,,,,,,,12,,,,78,92
50880,note_on,120,0,1,,,,,,,,0,,,,81,92
50880,note_on,120,0,18,,,,,,,,11,,,,81,108
50880,note_on,120,0,20,,,,,,,,13,,,,74,92
50880,note_on,120,0,3,,,,,,,,2,,,,81,92
50880,note_on,120,0,12,,,,,,,,6,,,,78,92
50880,note_on,120,0,6,,,,,,,,3,,,,78,92
50880,note_on,120,0,13,,,,,,,,7,,,,66,92
50880,note_on,120,0,11,,,,,,,,6,,,,81,92
51520,note_off,640,0,15,,,,,,,,7,,,,57,64
51520,note_off,640,0,1,,,,,,,,0,,,,81,64
51520,note_off,640,0,17,,,,,,,,10,,,,50,64
51520,note_off,640,0,6,,,,,,,,3,,,,78,64
51520,note_off,640,0,16,,,,,,,,8,,,,50,64
51520,note_off,640,0,5,,,,,,,,3,,,,81,64
51520,note_off,640,0,14,,,,,,,,7,,,,62,64
51520,note_off,640,0,2,,,,,,,,0,,,,78,64
51520,note_off,640,0,12,,,,,,,,6,,,,78,64
51520,note_off,640,0,13,,,,,,,,7,,,,66,64
51520,note_off,640,0,20,,,,,,,,13,,,,74,64
51520,note_off,640,0,19,,,,,,,,12,,,,78,64
51520,note_off,640,0,11,,,,,,,,6,,,,81,64
51520,note_off,640,0,18,,,,,,,,11,,,,81,64
51520,note_off,640,0,4,,,,,,,,2,,,,78,64
51520,note_off,640,0,3,,,,,,,,2,,,,81,64
51600,note_on,80,0,17,,,,,,,,10,,,,50,92
51600,note_on,80,0,2,,,,,,,,0,,,,78,92
51600,note_on,80,0,3,,,,,,,,2,,,,81,92
51600,note_on,80,0,18,,,,,,,,11,,,,81,108
51600,note_on,80,0,12,,,,,,,,6,,,,78,92
51600,note_on,80,0,11,,,,,,,,6,,,,81,92
51600,note_on,80,0,5,,,,,,,,3,,,,81,92
51600,note_on,80,0,6,,,,,,,,3,,,,78,92
51600,note_on,80,0,15,,,,,,,,7,,,,57,92
51600,note_on,80,0,16,,,,,,,,8,,,,50,92
51600,note_on,80,0,14,,,,,,,,7,,,,62,92
51600,note_on,80,0,1,,,,,,,,0,,,,81,92
51600,note_on,80,0,19,,,,,,,,12,,,,78,92
51600,note_on,80,0,4,,,,,,,,2,,,,78,92
51600,note_on,80,0,13,,,,,,,,7,,,,66,92
51600,note_on,80,0,20,,,,,,,,13,,,,74,92
51835,note_off,235,0,16,,,,,,,,8,,,,50,64
51835,note_off,235,0,11,,,,,,,,6,,,,81,64
51835,note_off,235,0,2,,,,,,,,0,,,,78,64
51835,note_off,235,0,13,,,,,,,,7,,,,66,64
51835,note_off,235,0,18,,,,,,,,11,,,,81,64
51835,note_off,235,0,20,,,,,,,,13,,,,74,64
51835,note_off,235,0,12,,,,,,,,6,,,,78,64
51835,note_off,235,0,5,,,,,,,,3,,,,81,64
51835,note_off,235,0,17,,,,,,,,10,,,,50,64
51835,note_off,235,0,14,,,,,,,,7,,,,62,64
51835,note_off,235,0,3,,,,,,,,2,,,,81,64
51835,note_off,235,0,4,,,,,,,,2,,,,78,64
51835,note_off,235,0,1,,,,,,,,0,,,,81,64
51835,note_off,235,0,6,,,,,,,,3,,,,78,64
51835,note_off,235,0,15,,,,,,,,7,,,,57,64
51835,note_off,235,0,19,,,,,,,,12,,,,78,64
51840,note_on,5,0,3,,,,,,,,2,,,,81,92
51840,note_on,5,0,12,,,,,,,,6,,,,78,92
51840,note_on,5,0,4,,,,,,,,2,,,,78,92
51840,note_on,5,0,17,,,,,,,,10,,,,50,92
51840,note_on,5,0,20,,,,,,,,13,,,,74,92
51840,note_on,5,0,1,,,,,,,,0,,,,81,92
51840,note_on,5,0,13,,,,,,,,7,,,,66,92
51840,note_on,5,0,11,,,,,,,,6,,,,81,92
51840,note_on,5,0,2,,,,,,,,0,,,,78,92
51840,note_on,5,0,19,,,,,,,,12,,,,78,92
51840,note_on,5,0,18,,,,,,,,11,,,,81,108
51840,note_on,5,0,15,,,,,,,,7,,,,57,92
51840,note_on,5,0,6,,,,,,,,3,,,,78,92
51840,note_on,5,0,16,,,,,,,,8,,,,50,92
51840,note_on,5,0,5,,,,,,,,3,,,,81,92
51840,note_on,5,0,14,,,,,,,,7,,,,62,92
52200,note_on,0,0,19,,,,,,,,12,,,,76,92
52200,note_off,360,0,5,,,,,,,,3,,,,81,64
52200,note_off,360,0,13,,,,,,,,7,,,,66,64
52200,note_on,0,0,1,,,,,,,,0,,,,79,92
52200,note_off,360,0,1,,,,,,,,0,,,,81,64
52200,note_on,0,0,18,,,,,,,,11,,,,79,108
52200,note_on,0,0,4,,,,,,,,2,,,,76,92
52200,note_off,360,0,4,,,,,,,,2,,,,78,64
52200,note_off,360,0,12,,,,,,,,6,,,,78,64
52200,note_on,0,0,12,,,,,,,,6,,,,76,92
52200,note_on,0,0,13,,,,,,,,7,,,,64,92
52200,note_on,0,0,3,,,,,,,,2,,,,79,92
52200,note_on,0,0,5,,,,,,,,3,,,,79,92
52200,note_off,360,0,2,,,,,,,,0,,,,78,64
52200,note_off,360,0,3,,,,,,,,2,,,,81,64
52200,note_off,360,0,6,,,,,,,,3,,,,78,64
52200,note_on,0,0,6,,,,,,,,3,,,,76,92
52200,note_off,360,0,19,,,,,,,,12,,,,78,64
52200,note_on,0,0,2,,,,,,,,0,,,,76,92
52200,note_on,0,0,11,,,,,,,,6,,,,79,92
52200,note_off,360,0,11,,,,,,,,6,,,,81,64
52200,note_off,360,0,18,,,,,,,,11,,,,81,64
52240,note_off,400,0,16,,,,,,,,8,,,,50,64
52240,note_off,400,0,15,,,,,,,,7,,,,57,64
52240,note_off,400,0,14,,,,,,,,7,,,,62,64
52240,note_off,400,0,17,,,,,,,,10,,,,50,64
52320,note_on,0,0,12,,,,,,,,6,,,,74,92
52320,note_on,0,0,2,,,,,,,,0,,,,74,92
52320,note_off,120,0,2,,,,,,,,0,,,,76,64
52320,note_off,120,0,12,,,,,,,,6,,,,76,64
52320,note_off,120,0,3,,,,,,,,2,,,,79,64
52320,note_on,80,0,14,,,,,,,,7,,,,57,92
52320,note_on,0,0,18,,,,,,,,11,,,,78,108
52320,note_off,480,0,20,,,,,,,,13,,,,74,64
52320,note_on,80,0,17,,,,,,,,10,,,,50,92
52320,note_on,0,0,3,,,,,,,,2,,,,78,92
52320,note_on,0,0,19,,,,,,,,12,,,,74,92
52320,note_on,80,0,16,,,,,,,,8,,,,38,92
52320,note_off,120,0,19,,,,,,,,12,,,,76,64
52320,note_off,120,0,18,,,,,,,,11,,,,79,64
52320,note_on,0,0,11,,,,,,,,6,,,,78,92
52320,note_on,0,0,20,,,,,,,,13,,,,69,92
52320,note_off,120,0,5,,,,,,,,3,,,,79,64
52320,note_off,120,0,1,,,,,,,,0,,,,79,64
52320,note_on,0,0,13,,,,,,,,7,,,,62,92
52320,note_on,0,0,4,,,,,,,,2,,,,74,92
52320,note_off,120,0,4,,,,,,,,2,,,,76,64
52320,note_on,0,0,1,,,,,,,,0,,,,78,92
52320,note_off,120,0,13,,,,,,,,7,,,,64,64
52320,note_on,80,0,15,,,,,,,,7,,,,54,92
52320,note_off,120,0,6,,,,,,,,3,,,,76,64
52320,note_on,0,0,5,,,,,,,,3,,,,78,92
52320,note_off,120,0,11,,,,,,,,6,,,,79,64
52320,note_on,0,0,6,,,,,,,,3,,,,74,92
52720,note_off,400,0,20,,,,,,,,13,,,,69,64
52720,note_off,400,0,14,,,,,,,,7,,,,57,64
52720,note_off,400,0,13,,,,,,,,7,,,,62,64
52720,note_off,400,0,2,,,,,,,,0,,,,74,64
52720,note_off,400,0,19,,,,,,,,12,,,,74,64
52720,note_off,400,0,17,,,,,,,,10,,,,50,64
52720,note_off,400,0,6,,,,,,,,3,,,,74,64
52720,note_off,400,0,3,,,,,,,,2,,,,78,64
52720,note_off,400,0,11,,,,,,,,6,,,,78,64
52720,note_off,400,0,18,,,,,,,,11,,,,78,64
52720,note_off,400,0,4,,,,,,,,2,,,,74,64
52720,note_off,400,0,1,,,,,,,,0,,,,78,64
52720,note_off,400,0,16,,,,,,,,8,,,,38,64
52720,note_off,400,0,12,,,,,,,,6,,,,74,64
52720,note_off,400,0,15,,,,,,,,7,,,,54,64
52720,note_off,400,0,5,,,,,,,,3,,,,78,64
52800,note_on,2040,0,10,,,,,,,,5,,,,66,92
52800,note_on,2040,0,21,,,,,,,,14,,,,66,92
52800,note_on,80,0,19,,,,,,,,12,,,,66,92
52800,note_on,2040,0,22,,,,,,,,15,,,,50,92
52800,note_on,2040,0,8,,,,,,,,4,,,,62,92
52800,note_on,80,0,20,,,,,,,,13,,,,62,92
52800,note_on,80,0,18,,,,,,,,11,,,,69,108
52800,note_on,2040,0,9,,,,,,,,5,,,,69,92
52800,note_on,2040,0,7,,,,,,,,4,,,,66,92
53440,note_off,640,0,8,,,,,,,,4,,,,62,64
53440,note_off,640,0,9,,,,,,,,5,,,,69,64
53440,note_off,640,0,22,,,,,,,,15,,,,50,64
53440,note_off,640,0,20,,,,,,,,13,,,,62,64
53440,note_off,640,0,18,,,,,,,,11,,,,69,64
53440,note_off,640,0,10,,,,,,,,5,,,,66,64
53440,note_off,640,0,19,,,,,,,,12,,,,66,64
53440,note_off,640,0,21,,,,,,,,14,,,,66,64
53440,note_off,640,0,7,,,,,,,,4,,,,66,64
53520,note_on,80,0,9,,,,,,,,5,,,,69,92
53520,note_on,80,0,22,,,,,,,,15,,,,50,92
53520,note_on,80,0,19,,,,,,,,12,,,,66,92
53520,note_on,80,0,8,,,,,,,,4,,,,62,92
53520,note_on,80,0,21,,,,,,,,14,,,,66,92
53520,note_on,80,0,18,,,,,,,,11,,,,69,108
53520,note_on,80,0,20,,,,,,,,13,,,,62,92
53520,note_on,80,0,7,,,,,,,,4,,,,66,92
53520,note_on,80,0,10,,,,,,,,5,,,,66,92
53755,note_off,235,0,9,,,,,,,,5,,,,69,64
53755,note_off,235,0,22,,,,,,,,15,,,,50,64
53755,note_off,235,0,19,,,,,,,,12,,,,66,64
53755,note_off,235,0,20,,,,,,,,13,,,,62,64
53755,note_off,235,0,10,,,,,,,,5,,,,66,64
53755,note_off,235,0,18,,,,,,,,11,,,,69,64
53755,note_off,235,0,8,,,,,,,,4,,,,62,64
53755,note_off,235,0,21,,,,,,,,14,,,,66,64
53755,note_off,235,0,7,,,,,,,,4,,,,66,64
53760,note_on,5,0,19,,,,,,,,12,,,,66,92
53760,note_on,5,0,8,,,,,,,,4,,,,62,92
53760,note_on,5,0,18,,,,,,,,11,,,,69,108
53760,note_on,5,0,21,,,,,,,,14,,,,66,92
53760,note_on,5,0,9,,,,,,,,5,,,,69,92
53760,note_on,5,0,22,,,,,,,,15,,,,50,92
53760,note_on,5,0,7,,,,,,,,4,,,,66,92
53760,note_on,5,0,20,,,,,,,,13,,,,62,92
53760,note_on,5,0,10,,,,,,,,5,,,,66,92
54120,note_off,360,0,7,,,,,,,,4,,,,66,64
54120,note_on,0,0,19,,,,,,,,12,,,,64,92
54120,note_off,360,0,19,,,,,,,,12,,,,66,64
54120,note_off,360,0,20,,,,,,,,13,,,,62,64
54120,note_off,360,0,18,,,,,,,,11,,,,69,64
54120,note_on,0,0,9,,,,,,,,5,,,,67,92
54120,note_off,360,0,9,,,,,,,,5,,,,69,64
54120,note_off,360,0,10,,,,,,,,5,,,,66,64
54120,note_on,0,0,21,,,,,,,,14,,,,64,92
54120,note_off,360,0,21,,,,,,,,14,,,,66,64
54120,note_on,0,0,10,,,,,,,,5,,,,64,92
54120,note_on,0,0,7,,,,,,,,4,,,,64,92
54120,note_on,0,0,20,,,,,,,,13,,,,57,92
54120,note_on,0,0,18,,,,,,,,11,,,,67,108
54160,note_off,400,0,8,,,,,,,,4,,,,62,64
54160,note_off,400,0,22,,,,,,,,15,,,,50,64
54235,note_off,115,0,18,,,,,,,,11,,,,67,64
54235,note_off,115,0,20,,,,,,,,13,,,,57,64
54235,note_off,115,0,9,,,,,,,,5,,,,67,64
54235,note_off,115,0,21,,,,,,,,14,,,,64,64
54235,note_off,115,0,19,,,,,,,,12,,,,64,64
54240,note_on,5,0,20,,,,,,,,13,,,,57,92
54240,note_on,80,0,22,,,,,,,,15,,,,38,92
54240,note_on,0,0,7,,,,,,,,4,,,,62,92
54240,note_off,120,0,7,,,,,,,,4,,,,64,64
54240,note_off,120,0,10,,,,,,,,5,,,,64,64
54240,note_on,80,0,8,,,,,,,,4,,,,50,92
54240,note_on,5,0,21,,,,,,,,14,,,,62,92
54240,note_on,5,0,18,,,,,,,,11,,,,66,108
54240,note_on,5,0,9,,,,,,,,5,,,,66,92
54240,note_on,5,0,19,,,,,,,,12,,,,62,92
54240,note_on,0,0,10,,,,,,,,5,,,,62,92
54640,note_off,400,0,21,,,,,,,,14,,,,62,64
54640,note_off,400,0,9,,,,,,,,5,,,,66,64
54640,note_off,400,0,19,,,,,,,,12,,,,62,64
54640,note_off,400,0,18,,,,,,,,11,,,,66,64
54640,note_off,400,0,8,,,,,,,,4,,,,50,64
54640,note_off,400,0,10,,,,,,,,5,,,,62,64
54640,note_off,400,0,20,,,,,,,,13,,,,57,64
54640,note_off,400,0,22,,,,,,,,15,,,,38,64
54640,note_off,400,0,7,,,,,,,,4,,,,62,64
54720,note_on,2000,0,6,,,,,,,,3,,,,78,92
54720,note_on,2000,0,13,,,,,,,,7,,,,66,92
54720,note_on,80,0,18,,,,,,,,11,,,,81,108
54720,note_on,2000,0,5,,,,,,,,3,,,,81,92
54720,note_on,2000,0,3,,,,,,,,2,,,,81,92
54720,note_on,2000,0,2,,,,,,,,0,,,,78,92
54720,note_on,2000,0,14,,,,,,,,7,,,,62,92
54720,note_on,2000,0,17,,,,,,,,10,,,,50,92
54720,note_on,80,0,20,,,,,,,,13,,,,74,92
54720,note_on,2000,0,16,,,,,,,,8,,,,50,92
54720,note_on,2000,0,11,,,,,,,,6,,,,81,92
54720,note_on,2000,0,4,,,,,,,,2,,,,78,92
54720,note_on,2000,0,12,,,,,,,,6,,,,78,92
54720,note_on,2000,0,15,,,,,,,,7,,,,57,92
54720,note_on,80,0,19,,,,,,,,12,,,,78,92
54720,note_on,2000,0,1,,,,,,,,0,,,,81,92
55360,note_off,640,0,1,,,,,,,,0,,,,81,64
55360,note_off,640,0,17,,,,,,,,10,,,,50,64
55360,note_off,640,0,19,,,,,,,,12,,,,78,64
55360,note_off,640,0,20,,,,,,,,13,,,,74,64
55360,note_off,640,0,3,,,,,,,,2,,,,81,64
55360,note_off,640,0,14,,,,,,,,7,,,,62,64
55360,note_off,640,0,12,,,,,,,,6,,,,78,64
55360,note_off,640,0,11,,,,,,,,6,,,,81,64
55360,note_off,640,0,16,,,,,,,,8,,,,50,64
55360,note_off,640,0,5,,,,,,,,3,,,,81,64
55360,note_off,640,0,15,,,,,,,,7,,,,57,64
55360,note_off,640,0,4,,,,,,,,2,,,,78,64
55360,note_off,640,0,13,,,,,,,,7,,,,66,64
55360,note_off,640,0,6,,,,,,,,3,,,,78,64
55360,note_off,640,0,2,,,,,,,,0,,,,78,64
55360,note_off,640,0,18,,,,,,,,11,,,,81,64
55440,note_on,80,0,15,,,,,,,,7,,,,57,92
55440,note_on,80,0,1,,,,,,,,0,,,,81,92
55440,note_on,80,0,5,,,,,,,,3,,,,81,92
55440,note_on,80,0,17,,,,,,,,10,,,,50,92
55440,note_on,80,0,11,,,,,,,,6,,,,81,92
55440,note_on,80,0,3,,,,,,,,2,,,,81,92
55440,note_on,80,0,20,,,,,,,,13,,,,74,92
55440,note_on,80,0,4,,,,,,,,2,,,,78,92
55440,note_on,80,0,13,,,,,,,,7,,,,66,92
55440,note_on,80,0,6,,,,,,,,3,,,,78,92
55440,note_on,80,0,12,,,,,,,,6,,,,78,92
55440,note_on,80,0,18,,,,,,,,11,,,,81,108
55440,note_on,80,0,2,,,,,,,,0,,,,78,92
55440,note_on,80,0,14,,,,,,,,7,,,,62,92
55440,note_on,80,0,16,,,,,,,,8,,,,50,92
55440,note_on,80,0,19,,,,,,,,12,,,,78,92
55675,note_off,235,0,17,,,,,,,,10,,,,50,64
55675,note_off,235,0,3,,,,,,,,2,,,,81,64
55675,note_off,235,0,15,,,,,,,,7,,,,57,64
55675,note_off,235,0,13,,,,,,,,7,,,,66,64
55675,note_off,235,0,16,,,,,,,,8,,,,50,64
55675,note_off,235,0,12,,,,,,,,6,,,,78,64
55675,note_off,235,0,6,,,,,,,,3,,,,78,64
55675,note_off,235,0,2,,,,,,,,0,,,,78,64
55675,note_off,235,0,19,,,,,,,,12,,,,78,64
55675,note_off,235,0,20,,,,,,,,13,,,,74,64
55675,note_off,235,0,1,,,,,,,,0,,,,81,64
55675,note_off,235,0,14,,,,,,,,7,,,,62,64
55675,note_off,235,0,11,,,,,,,,6,,,,81,64
55675,note_off,235,0,5,,,,,,,,3,,,,81,64
55675,note_off,235,0,18,,,,,,,,11,,,,81,64
55675,note_off,235,0,4,,,,,,,,2,,,,78,64
55680,note_on,5,0,1,,,,,,,,0,,,,81,92
55680,note_on,5,0,6,,,,,,,,3,,,,78,92
55680,note_on,5,0,13,,,,,,,,7,,,,66,92
55680,note_on,5,0,14,,,,,,,,7,,,,62,92
55680,note_on,5,0,19,,,,,,,,12,,,,78,92
55680,note_on,5,0,17,,,,,,,,10,,,,50,92
55680,note_on,5,0,5,,,,,,,,3,,,,81,92
55680,note_on,5,0,4,,,,,,,,2,,,,78,92
55680,note_on,5,0,3,,,,,,,,2,,,,81,92
55680,note_on,5,0,12,,,,,,,,6,,,,78,92
55680,note_on,5,0,20,,,,,,,,13,,,,74,92
55680,note_on,5,0,18,,,,,,,,11,,,,81,108
55680,note_on,5,0,11,,,,,,,,6,,,,81,92
55680,note_on,5,0,15,,,,,,,,7,,,,57,92
55680,note_on,5,0,2,,,,,,,,0,,,,78,92
55680,note_on,5,0,16,,,,,,,,8,,,,50,92
56040,note_on,0,0,12,,,,,,,,6,,,,76,92
56040,note_off,360,0,4,,,,,,,,2,,,,78,64
56040,note_off,360,0,2,,,,,,,,0,,,,78,64
56040,note_off,360,0,12,,,,,,,,6,,,,78,64
56040,note_on,0,0,18,,,,,,,,11,,,,79,108
56040,note_off,360,0,18,,,,,,,,11,,,,81,64
56040,note_off,360,0,5,,,,,,,,3,,,,81,64
56040,note_on,0,0,5,,,,,,,,3,,,,79,92
56040,note_on,0,0,1,,,,,,,,0,,,,79,92
56040,note_off,360,0,1,,,,,,,,0,,,,81,64
56040,note_on,0,0,4,,,,,,,,2,,,,76,92
56040,note_off,360,0,6,,,,,,,,3,,,,78,64
56040,note_on,0,0,2,,,,,,,,0,,,,76,92
56040,note_on,0,0,19,,,,,,,,12,,,,76,92
56040,note_on,0,0,6,,,,,,,,3,,,,76,92
56040,note_off,360,0,19,,,,,,,,12,,,,78,64
56040,note_on,0,0,11,,,,,,,,6,,,,79,92
56040,note_off,360,0,11,,,,,,,,6,,,,81,64
56040,note_off,360,0,3,,,,,,,,2,,,,81,64
56040,note_on,0,0,3,,,,,,,,2,,,,79,92
56040,note_on,0,0,13,,,,,,,,7,,,,64,92
56040,note_off,360,0,13,,,,,,,,7,,,,66,64
56080,note_off,400,0,15,,,,,,,,7,,,,57,64
56080,note_off,400,0,17,,,,,,,,10,,,,50,64
56080,note_off,400,0,16,,,,,,,,8,,,,50,64
56080,note_off,400,0,14,,,,,,,,7,,,,62,64
56160,note_off,120,0,1,,,,,,,,0,,,,79,64
56160,note_off,120,0,3,,,,,,,,2,,,,79,64
56160,note_off,120,0,4,,,,,,,,2,,,,76,64
56160,note_off,120,0,12,,,,,,,,6,,,,76,64
56160,note_on,0,0,1,,,,,,,,0,,,,78,92
56160,note_on,0,0,4,,,,,,,,2,,,,74,92
56160,note_on,80,0,14,,,,,,,,7,,,,57,92
56160,note_on,0,0,13,,,,,,,,7,,,,62,92
56160,note_on,0,0,12,,,,,,,,6,,,,74,92
56160,note_on,0,0,3,,,,,,,,2,,,,78,92
56160,note_on,0,0,5,,,,,,,,3,,,,78,92
56160,note_on,80,0,16,,,,,,,,8,,,,38,92
56160,note_on,0,0,6,,,,,,,,3,,,,74,92
56160,note_off,120,0,6,,,,,,,,3,,,,76,64
56160,note_on,0,0,11,,,,,,,,6,,,,78,92
56160,note_off,120,0,11,,,,,,,,6,,,,79,64
56160,note_off,120,0,5,,,,,,,,3,,,,79,64
56160,note_off,120,0,13,,,,,,,,7,,,,64,64
56160,note_on,0,0,20,,,,,,,,13,,,,69,92
56160,note_off,120,0,18,,,,,,,,11,,,,79,64
56160,note_on,0,0,18,,,,,,,,11,,,,78,108
56160,note_on,80,0,17,,,,,,,,10,,,,50,92
56160,note_on,80,0,15,,,,,,,,7,,,,54,92
56160,note_off,120,0,2,,,,,,,,0,,,,76,64
56160,note_off,120,0,19,,,,,,,,12,,,,76,64
56160,note_on,0,0,19,,,,,,,,12,,,,74,92
56160,note_on,0,0,2,,,,,,,,0,,,,74,92
56160,note_off,480,0,20,,,,,,,,13,,,,74,64
56560,note_off,400,0,15,,,,,,,,7,,,,54,64
56560,note_off,400,0,13,,,,,,,,7,,,,62,64
56560,note_off,400,0,1,,,,,,,,0,,,,78,64
56560,note_off,400,0,18,,,,,,,,11,,,,78,64
56560,note_off,400,0,11,,,,,,,,6,,,,78,64
56560,note_off,400,0,19,,,,,,,,12,,,,74,64
56560,note_off,400,0,16,,,,,,,,8,,,,38,64
56560,note_off,400,0,12,,,,,,,,6,,,,74,64
56560,note_off,400,0,14,,,,,,,,7,,,,57,64
56560,note_off,400,0,5,,,,,,,,3,,,,78,64
56560,note_off,400,0,20,,,,,,,,13,,,,69,64
56560,note_off,400,0,4,,,,,,,,2,,,,74,64
56560,note_off,400,0,6,,,,,,,,3,,,,74,64
56560,note_off,400,0,3,,,,,,,,2,,,,78,64
56560,note_off,400,0,2,,,,,,,,0,,,,74,64
56640,note_on,2000,0,10,,,,,,,,5,,,,66,92
56640,note_on,2000,0,8,,,,,,,,4,,,,62,92
56640,note_on,80,0,20,,,,,,,,13,,,,62,92
56640,note_on,80,0,18,,,,,,,,11,,,,69,108
56640,note_on,2000,0,22,,,,,,,,15,,,,50,92
56640,note_on,2000,0,21,,,,,,,,14,,,,66,92
56640,note_on,80,0,19,,,,,,,,12,,,,66,92
56640,note_on,2000,0,7,,,,,,,,4,,,,66,92
56640,note_on,2000,0,9,,,,,,,,5,,,,69,92
57000,note_off,840,0,17,,,,,,,,10,,,,50,64
57280,note_off,640,0,19,,,,,,,,12,,,,66,64
57280,note_off,640,0,20,,,,,,,,13,,,,62,64
57280,note_off,640,0,21,,,,,,,,14,,,,66,64
57280,note_off,640,0,22,,,,,,,,15,,,,50,64
57280,note_off,640,0,7,,,,,,,,4,,,,66,64
57280,note_off,640,0,9,,,,,,,,5,,,,69,64
57280,note_off,640,0,18,,,,,,,,11,,,,69,64
57280,note_off,640,0,10,,,,,,,,5,,,,66,64
57280,note_off,640,0,8,,,,,,,,4,,,,62,64
57360,note_on,80,0,22,,,,,,,,15,,,,50,92
57360,note_on,80,0,9,,,,,,,,5,,,,69,92
57360,note_on,80,0,10,,,,,,,,5,,,,66,92
57360,note_on,80,0,7,,,,,,,,4,,,,66,92
57360,note_on,80,0,19,,,,,,,,12,,,,66,92
57360,note_on,80,0,20,,,,,,,,13,,,,62,92
57360,note_on,80,0,18,,,,,,,,11,,,,69,108
57360,note_on,80,0,21,,,,,,,,14,,,,66,92
57360,note_on,80,0,8,,,,,,,,4,,,,62,92
57595,note_off,235,0,8,,,,,,,,4,,,,62,64
57595,note_off,235,0,21,,,,,,,,14,,,,66,64
57595,note_off,235,0,22,,,,,,,,15,,,,50,64
57595,note_off,235,0,19,,,,,,,,12,,,,66,64
57595,note_off,235,0,7,,,,,,,,4,,,,66,64
57595,note_off,235,0,10,,,,,,,,5,,,,66,64
57595,note_off,235,0,20,,,,,,,,13,,,,62,64
57595,note_off,235,0,9,,,,,,,,5,,,,69,64
57595,note_off,235,0,18,,,,,,,,11,,,,69,64
57600,note_on,5,0,10,,,,,,,,5,,,,66,92
57600,note_on,5,0,21,,,,,,,,14,,,,66,92
57600,note_on,5,0,8,,,,,,,,4,,,,62,92
57600,note_on,5,0,9,,,,,,,,5,,,,69,92
57600,note_on,5,0,20,,,,,,,,13,,,,62,92
57600,note_on,5,0,18,,,,,,,,11,,,,69,108
57600,note_on,5,0,22,,,,,,,,15,,,,50,92
57600,note_on,5,0,7,,,,,,,,4,,,,66,92
57600,note_on,5,0,19,,,,,,,,12,,,,66,92
57960,note_on,0,0,19,,,,,,,,12,,,,64,92
57960,note_off,360,0,21,,,,,,,,14,,,,66,64
57960,note_off,360,0,10,,,,,,,,5,,,,66,64
57960,note_on,0,0,10,,,,,,,,5,,,,64,92
57960,note_off,360,0,7,,,,,,,,4,,,,66,64
57960,note_on,0,0,7,,,,,,,,4,,,,64,92
57960,note_off,360,0,9,,,,,,,,5,,,,69,64
57960,note_on,0,0,9,,,,,,,,5,,,,67,92
57960,note_on,0,0,20,,,,,,,,13,,,,57,92
57960,note_off,360,0,20,,,,,,,,13,,,,62,64
57960,note_on,0,0,18,,,,,,,,11,,,,67,108
57960,note_off,360,0,18,,,,,,,,11,,,,69,64
57960,note_off,360,0,19,,,,,,,,12,,,,66,64
57960,note_on,0,0,21,,,,,,,,14,,,,64,92
58000,note_off,400,0,22,,,,,,,,15,,,,50,64
58000,note_off,400,0,8,,,,,,,,4,,,,62,64
58075,note_off,115,0,21,,,,,,,,14,,,,64,64
58075,note_off,115,0,18,,,,,,,,11,,,,67,64
58075,note_off,115,0,9,,,,,,,,5,,,,67,64
58075,note_off,115,0,10,,,,,,,,5,,,,64,64
58075,note_off,115,0,19,,,,,,,,12,,,,64,64
58075,note_off,115,0,20,,,,,,,,13,,,,57,64
58080,note_on,80,0,22,,,,,,,,15,,,,38,92
58080,note_on,0,0,7,,,,,,,,4,,,,62,92
58080,note_off,120,0,7,,,,,,,,4,,,,64,64
58080,note_on,5,0,19,,,,,,,,12,,,,62,92
58080,note_on,5,0,21,,,,,,,,14,,,,62,92
58080,note_on,5,0,9,,,,,,,,5,,,,66,92
58080,note_on,80,0,8,,,,,,,,4,,,,50,92
58080,note_on,5,0,20,,,,,,,,13,,,,57,92
58080,note_on,5,0,10,,,,,,,,5,,,,62,92
58080,note_on,5,0,18,,,,,,,,11,,,,66,108
58480,note_off,400,0,9,,,,,,,,5,,,,66,64
58480,note_off,400,0,10,,,,,,,,5,,,,62,64
58480,note_off,400,0,20,,,,,,,,13,,,,57,64
58480,note_off,400,0,7,,,,,,,,4,,,,62,64
58480,note_off,400,0,21,,,,,,,,14,,,,62,64
58480,note_off,400,0,22,,,,,,,,15,,,,38,64
58480,note_off,400,0,8,,,,,,,,4,,,,50,64
58480,note_off,400,0,18,,,,,,,,11,,,,66,64
58480,note_off,400,0,19,,,,,,,,12,,,,62,64
58560,note_on,80,0,21,,,,,,,,14,,,,62,92
58560,note_on,80,0,20,,,,,,,,13,,,,69,92
58560,note_on,2000,0,16,,,,,,,,8,,,,50,92
58560,note_on,2000,0,5,,,,,,,,3,,,,78,92
58560,note_on,2000,0,4,,,,,,,,2,,,,74,92
58560,note_on,2000,0,1,,,,,,,,0,,,,78,92
58560,note_on,2000,0,14,,,,,,,,7,,,,57,92
58560,note_on,80,0,7,,,,,,,,4,,,,62,92
58560,note_on,2000,0,13,,,,,,,,7,,,,62,92
58560,note_on,2000,0,11,,,,,,,,6,,,,78,92
58560,note_on,2000,0,2,,,,,,,,0,,,,74,92
58560,note_on,80,0,19,,,,,,,,12,,,,74,92
58560,note_on,2000,0,6,,,,,,,,3,,,,74,92
58560,note_on,2000,0,15,,,,,,,,7,,,,54,92
58560,note_on,80,0,8,,,,,,,,4,,,,50,92
58560,note_on,80,0,9,,,,,,,,5,,,,66,92
58560,note_on,80,0,18,,,,,,,,11,,,,78,108
58560,note_on,2000,0,3,,,,,,,,2,,,,78,92
58560,note_on,80,0,10,,,,,,,,5,,,,62,92
58560,note_on,2000,0,12,,,,,,,,6,,,,74,92
58560,note_on,80,0,22,,,,,,,,15,,,,38,92
58560,note_on,1560,0,17,,,,,,,,10,,,,50,92
58795,note_off,235,0,16,,,,,,,,8,,,,50,64
58800,note_on,0,0,22,,,,,,,,15,,,,37,92
58800,note_off,240,0,22,,,,,,,,15,,,,38,64
58800,note_on,5,0,16,,,,,,,,8,,,,49,92
58800,note_on,0,0,21,,,,,,,,14,,,,61,92
58800,note_off,240,0,21,,,,,,,,14,,,,62,64
58920,note_off,360,0,8,,,,,,,,4,,,,50,64
58920,note_off,360,0,7,,,,,,,,4,,,,62,64
58920,note_on,0,0,7,,,,,,,,4,,,,61,92
58920,note_on,0,0,8,,,,,,,,4,,,,49,92
58960,note_off,400,0,10,,,,,,,,5,,,,62,64
58960,note_off,400,0,9,,,,,,,,5,,,,66,64
58960,note_off,400,0,15,,,,,,,,7,,,,54,64
58960,note_off,400,0,19,,,,,,,,12,,,,74,64
58960,note_off,400,0,20,,,,,,,,13,,,,69,64
58960,note_off,400,0,4,,,,,,,,2,,,,74,64
58960,note_off,400,0,1,,,,,,,,0,,,,78,64
58960,note_off,400,0,12,,,,,,,,6,,,,74,64
58960,note_off,400,0,6,,,,,,,,3,,,,74,64
58960,note_off,400,0,2,,,,,,,,0,,,,74,64
58960,note_off,400,0,5,,,,,,,,3,,,,78,64
58960,note_off,400,0,17,,,,,,,,10,,,,50,64
58960,note_off,400,0,14,,,,,,,,7,,,,57,64
58960,note_off,400,0,18,,,,,,,,11,,,,78,64
58960,note_off,400,0,3,,,,,,,,2,,,,78,64
58960,note_off,400,0,11,,,,,,,,6,,,,78,64
58960,note_off,400,0,13,,,,,,,,7,,,,62,64
59035,note_off,235,0,22,,,,,,,,15,,,,37,64
59035,note_off,235,0,21,,,,,,,,14,,,,61,64
59035,note_off,235,0,16,,,,,,,,8,,,,49,64
59040,note_on,80,0,3,,,,,,,,2,,,,79,92
59040,note_on,80,0,6,,,,,,,,3,,,,76,92
59040,note_on,80,0,9,,,,,,,,5,,,,67,92
59040,note_on,80,0,17,,,,,,,,10,,,,50,92
59040,note_on,80,0,4,,,,,,,,2,,,,76,92
59040,note_on,5,0,21,,,,,,,,14,,,,59,92
59040,note_on,80,0,5,,,,,,,,3,,,,79,92
59040,note_on,80,0,18,,,,,,,,11,,,,79,108
59040,note_on,80,0,20,,,,,,,,13,,,,74,92
59040,note_off,120,0,7,,,,,,,,4,,,,61,64
59040,note_on,80,0,12,,,,,,,,6,,,,74,92
59040,note_on,80,0,13,,,,,,,,7,,,,62,92
59040,note_on,80,0,15,,,,,,,,7,,,,59,92
59040,note_on,5,0,22,,,,,,,,15,,,,35,92
59040,note_on,5,0,16,,,,,,,,8,,,,47,92
59040,note_on,80,0,14,,,,,,,,7,,,,62,92
59040,note_on,80,0,11,,,,,,,,6,,,,79,92
59040,note_off,120,0,8,,,,,,,,4,,,,49,64
59040,note_on,0,0,8,,,,,,,,4,,,,47,92
59040,note_on,80,0,1,,,,,,,,0,,,,79,92
59040,note_on,80,0,2,,,,,,,,0,,,,76,92
59040,note_on,80,0,19,,,,,,,,12,,,,76,92
59040,note_on,0,0,7,,,,,,,,4,,,,59,92
59040,note_on,80,0,10,,,,,,,,5,,,,64,92
59400,note_off,360,0,10,,,,,,,,5,,,,64,64
59400,note_off,360,0,1,,,,,,,,0,,,,79,64
59400,note_on,0,0,1,,,,,,,,0,,,,81,92
59400,note_off,360,0,21,,,,,,,,14,,,,59,64
59400,note_on,0,0,16,,,,,,,,8,,,,45,92
59400,note_off,360,0,16,,,,,,,,8,,,,47,64
59400,note_off,360,0,7,,,,,,,,4,,,,59,64
59400,note_on,0,0,21,,,,,,,,14,,,,57,92
59400,note_off,360,0,2,,,,,,,,0,,,,76,64
59400,note_on,0,0,15,,,,,,,,7,,,,57,92
59400,note_off,360,0,8,,,,,,,,4,,,,47,64
59400,note_on,0,0,8,,,,,,,,4,,,,45,92
59400,note_on,0,0,19,,,,,,,,12,,,,78,92
59400,note_off,360,0,19,,,,,,,,12,,,,76,64
59400,note_on,0,0,11,,,,,,,,6,,,,81,92
59400,note_off,360,0,11,,,,,,,,6,,,,79,64
59400,note_on,0,0,22,,,,,,,,15,,,,33,92
59400,note_off,360,0,15,,,,,,,,7,,,,59,64
59400,note_off,360,0,22,,,,,,,,15,,,,35,64
59400,note_on,0,0,13,,,,,,,,7,,,,64,92
59400,note_on,0,0,12,,,,,,,,6,,,,76,92
59400,note_off,360,0,12,,,,,,,,6,,,,74,64
59400,note_on,0,0,5,,,,,,,,3,,,,81,92
59400,note_off,360,0,5,,,,,,,,3,,,,79,64
59400,note_on,0,0,18,,,,,,,,11,,,,81,108
59400,note_off,360,0,18,,,,,,,,11,,,,79,64
59400,note_off,360,0,13,,,,,,,,7,,,,62,64
59400,note_on,0,0,9,,,,,,,,5,,,,69,92
59400,note_on,0,0,7,,,,,,,,4,,,,57,92
59400,note_on,0,0,2,,,,,,,,0,,,,78,92
59400,note_on,0,0,10,,,,,,,,5,,,,66,92
59400,note_off,360,0,6,,,,,,,,3,,,,76,64
59400,note_off,360,0,9,,,,,,,,5,,,,67,64
59400,note_off,360,0,4,,,,,,,,2,,,,76,64
59400,note_on,0,0,4,,,,,,,,2,,,,78,92
59400,note_on,0,0,6,,,,,,,,3,,,,78,92
59400,note_on,0,0,3,,,,,,,,2,,,,81,92
59400,note_off,360,0,3,,,,,,,,2,,,,79,64
59440,note_off,400,0,17,,,,,,,,10,,,,50,64
59440,note_off,400,0,14,,,,,,,,7,,,,62,64
59440,note_off,400,0,20,,,,,,,,13,,,,74,64
59515,note_off,115,0,4,,,,,,,,2,,,,78,64
59515,note_off,115,0,15,,,,,,,,7,,,,57,64
59515,note_off,115,0,7,,,,,,,,4,,,,57,64
59515,note_off,115,0,5,,,,,,,,3,,,,81,64
59515,note_off,115,0,6,,,,,,,,3,,,,78,64
59515,note_off,115,0,10,,,,,,,,5,,,,66,64
59515,note_off,115,0,12,,,,,,,,6,,,,76,64
59515,note_off,115,0,3,,,,,,,,2,,,,81,64
59515,note_off,115,0,22,,,,,,,,15,,,,33,64
59515,note_off,115,0,11,,,,,,,,6,,,,81,64
59515,note_off,115,0,8,,,,,,,,4,,,,45,64
59515,note_off,115,0,19,,,,,,,,12,,,,78,64
59515,note_off,115,0,2,,,,,,,,0,,,,78,64
59515,note_off,115,0,13,,,,,,,,7,,,,64,64
59515,note_off,115,0,21,,,,,,,,14,,,,57,64
59515,note_off,115,0,18,,,,,,,,11,,,,81,64
59515,note_off,115,0,16,,,,,,,,8,,,,45,64
59515,note_off,115,0,1,,,,,,,,0,,,,81,64
59515,note_off,115,0,9,,,,,,,,5,,,,69,64
59520,note_on,80,0,20,,,,,,,,13,,,,74,92
59520,note_on,5,0,6,,,,,,,,3,,,,79,92
59520,note_on,5,0,22,,,,,,,,15,,,,31,92
59520,note_on,5,0,12,,,,,,,,6,,,,79,92
59520,note_on,5,0,11,,,,,,,,6,,,,83,92
59520,note_on,5,0,3,,,,,,,,2,,,,83,92
59520,note_on,5,0,15,,,,,,,,7,,,,59,92
59520,note_on,5,0,2,,,,,,,,0,,,,79,92
59520,note_on,5,0,5,,,,,,,,3,,,,83,92
59520,note_on,5,0,8,,,,,,,,4,,,,43,92
59520,note_on,5,0,9,,,,,,,,5,,,,71,92
59520,note_on,5,0,19,,,,,,,,12,,,,79,92
59520,note_on,5,0,1,,,,,,,,0,,,,83,92
59520,note_on,5,0,7,,,,,,,,4,,,,55,92
59520,note_on,5,0,13,,,,,,,,7,,,,67,92
59520,note_on,5,0,4,,,,,,,,2,,,,79,92
59520,note_on,80,0,14,,,,,,,,7,,,,62,92
59520,note_on,80,0,17,,,,,,,,10,,,,50,92
59520,note_on,5,0,18,,,,,,,,11,,,,83,108
59520,note_on,5,0,16,,,,,,,,8,,,,43,92
59520,note_on,5,0,21,,,,,,,,14,,,,55,92
59520,note_on,5,0,10,,,,,,,,5,,,,67,92
59920,note_off,400,0,2,,,,,,,,0,,,,79,64
59920,note_off,400,0,17,,,,,,,,10,,,,50,64
59920,note_off,400,0,5,,,,,,,,3,,,,83,64
59920,note_off,400,0,6,,,,,,,,3,,,,79,64
59920,note_off,400,0,18,,,,,,,,11,,,,83,64
59920,note_off,400,0,15,,,,,,,,7,,,,59,64
59920,note_off,400,0,20,,,,,,,,13,,,,74,64
59920,note_off,400,0,10,,,,,,,,5,,,,67,64
59920,note_off,400,0,12,,,,,,,,6,,,,79,64
59920,note_off,400,0,1,,,,,,,,0,,,,83,64
59920,note_off,400,0,13,,,,,,,,7,,,,67,64
59920,note_off,400,0,9,,,,,,,,5,,,,71,64
59920,note_off,400,0,4,,,,,,,,2,,,,79,64
59920,note_off,400,0,14,,,,,,,,7,,,,62,64
59920,note_off,400,0,19,,,,,,,,12,,,,79,64
59920,note_off,400,0,11,,,,,,,,6,,,,83,64
59920,note_off,400,0,3,,,,,,,,2,,,,83,64
60000,note_on,80,0,12,,,,,,,,6,,,,74,92
60000,note_on,80,0,10,,,,,,,,5,,,,62,92
60000,note_on,80,0,6,,,,,,,,3,,,,74,92
60000,note_on,80,0,17,,,,,,,,10,,,,50,92
60000,note_on,80,0,2,,,,,,,,0,,,,74,92
60000,note_on,80,0,18,,,,,,,,11,,,,79,108
60000,note_on,80,0,1,,,,,,,,0,,,,79,92
60000,note_on,80,0,11,,,,,,,,6,,,,79,92
60000,note_on,80,0,3,,,,,,,,2,,,,79,92
60000,note_on,80,0,15,,,,,,,,7,,,,55,92
60000,note_on,80,0,20,,,,,,,,13,,,,74,92
60000,note_on,80,0,13,,,,,,,,7,,,,62,92
60000,note_on,80,0,4,,,,,,,,2,,,,74,92
60000,note_on,80,0,14,,,,,,,,7,,,,62,92
60000,note_on,80,0,19,,,,,,,,12,,,,74,92
60000,note_on,80,0,9,,,,,,,,5,,,,67,92
60000,note_on,80,0,5,,,,,,,,3,,,,79,92
60160,note_off,640,0,22,,,,,,,,15,,,,31,64
60160,note_off,640,0,8,,,,,,,,4,,,,43,64
60160,note_off,640,0,21,,,,,,,,14,,,,55,64
60160,note_off,640,0,16,,,,,,,,8,,,,43,64
60160,note_off,640,0,7,,,,,,,,4,,,,55,64
60240,note_on,80,0,16,,,,,,,,8,,,,43,92
60240,note_on,80,0,8,,,,,,,,4,,,,43,92
60240,note_on,80,0,21,,,,,,,,14,,,,55,92
60240,note_on,80,0,22,,,,,,,,15,,,,43,92
60240,note_on,80,0,7,,,,,,,,4,,,,55,92
60400,note_off,400,0,19,,,,,,,,12,,,,74,64
60400,note_off,400,0,13,,,,,,,,7,,,,62,64
60400,note_off,400,0,3,,,,,,,,2,,,,79,64
60400,note_off,400,0,9,,,,,,,,5,,,,67,64
60400,note_off,400,0,11,,,,,,,,6,,,,79,64
60400,note_off,400,0,4,,,,,,,,2,,,,74,64
60400,note_off,400,0,6,,,,,,,,3,,,,74,64
60400,note_off,400,0,1,,,,,,,,0,,,,79,64
60400,note_off,400,0,15,,,,,,,,7,,,,55,64
60400,note_off,400,0,20,,,,,,,,13,,,,74,64
60400,note_off,400,0,18,,,,,,,,11,,,,79,64
60400,note_off,400,0,2,,,,,,,,0,,,,74,64
60400,note_off,400,0,5,,,,,,,,3,,,,79,64
60400,note_off,400,0,12,,,,,,,,6,,,,74,64
60400,note_off,400,0,10,,,,,,,,5,,,,62,64
60400,note_off,400,0,17,,,,,,,,10,,,,50,64
60475,note_off,235,0,8,,,,,,,,4,,,,43,64
60475,note_off,235,0,16,,,,,,,,8,,,,43,64
60475,note_off,235,0,22,,,,,,,,15,,,,43,64
60475,note_off,235,0,7,,,,,,,,4,,,,55,64
60475,note_off,235,0,21,,,,,,,,14,,,,55,64
60480,note_on,80,0,5,,,,,,,,3,,,,76,92
60480,note_on,80,0,20,,,,,,,,13,,,,74,92
60480,note_on,5,0,16,,,,,,,,8,,,,43,92
60480,note_on,80,0,19,,,,,,,,12,,,,71,92
60480,note_on,80,0,13,,,,,,,,7,,,,64,92
60480,note_on,80,0,18,,,,,,,,11,,,,76,108
60480,note_on,80,0,6,,,,,,,,3,,,,71,92
60480,note_on,5,0,21,,,,,,,,14,,,,55,92
60480,note_on,5,0,22,,,,,,,,15,,,,43,92
60480,note_on,5,0,8,,,,,,,,4,,,,43,92
60480,note_on,80,0,2,,,,,,,,0,,,,71,92
60480,note_on,80,0,12,,,,,,,,6,,,,74,92
60480,note_on,80,0,10,,,,,,,,5,,,,67,92
60480,note_on,80,0,4,,,,,,,,2,,,,71,92
60480,note_on,80,0,17,,,,,,,,10,,,,50,92
60480,note_on,5,0,7,,,,,,,,4,,,,55,92
60480,note_on,80,0,11,,,,,,,,6,,,,76,92
60480,note_on,80,0,15,,,,,,,,7,,,,55,92
60480,note_on,80,0,3,,,,,,,,2,,,,76,92
60480,note_on,80,0,1,,,,,,,,0,,,,76,92
60480,note_on,80,0,9,,,,,,,,5,,,,64,92
60715,note_off,235,0,15,,,,,,,,7,,,,55,64
60715,note_off,235,0,16,,,,,,,,8,,,,43,64
60720,note_off,240,0,6,,,,,,,,3,,,,71,64
60720,note_on,0,0,6,,,,,,,,3,,,,69,92
60720,note_on,0,0,7,,,,,,,,4,,,,54,92
60720,note_off,240,0,7,,,,,,,,4,,,,55,64
60720,note_off,240,0,22,,,,,,,,15,,,,43,64
60720,note_off,240,0,21,,,,,,,,14,,,,55,64
60720,note_off,240,0,8,,,,,,,,4,,,,43,64
60720,note_on,0,0,8,,,,,,,,4,,,,42,92
60720,note_on,0,0,4,,,,,,,,2,,,,69,92
60720,note_off,240,0,4,,,,,,,,2,,,,71,64
60720,note_on,0,0,22,,,,,,,,15,,,,42,92
60720,note_on,0,0,19,,,,,,,,12,,,,69,92
60720,note_off,240,0,19,,,,,,,,12,,,,71,64
60720,note_on,0,0,2,,,,,,,,0,,,,69,92
60720,note_on,5,0,16,,,,,,,,8,,,,42,92
60720,note_on,5,0,15,,,,,,,,7,,,,54,92
60720,note_off,240,0,2,,,,,,,,0,,,,71,64
60720,note_on,0,0,21,,,,,,,,14,,,,54,92
60840,note_off,840,0,14,,,,,,,,7,,,,62,64
60880,note_off,400,0,20,,,,,,,,13,,,,74,64
60880,note_off,400,0,17,,,,,,,,10,,,,50,64
60880,note_off,400,0,10,,,,,,,,5,,,,67,64
60880,note_off,400,0,9,,,,,,,,5,,,,64,64
60955,note_off,235,0,16,,,,,,,,8,,,,42,64
60955,note_off,235,0,15,,,,,,,,7,,,,54,64
60955,note_off,235,0,22,,,,,,,,15,,,,42,64
60955,note_off,235,0,19,,,,,,,,12,,,,69,64
60955,note_off,235,0,21,,,,,,,,14,,,,54,64
60960,note_on,5,0,16,,,,,,,,8,,,,43,92
60960,note_on,80,0,17,,,,,,,,10,,,,50,92
60960,note_off,240,0,6,,,,,,,,3,,,,69,64
60960,note_on,80,0,20,,,,,,,,13,,,,74,92
60960,note_on,0,0,2,,,,,,,,0,,,,71,92
60960,note_off,240,0,4,,,,,,,,2,,,,69,64
60960,note_on,0,0,4,,,,,,,,2,,,,71,92
60960,note_on,5,0,15,,,,,,,,7,,,,55,92
60960,note_on,5,0,21,,,,,,,,14,,,,55,92
60960,note_off,240,0,7,,,,,,,,4,,,,54,64
60960,note_off,240,0,8,,,,,,,,4,,,,42,64
60960,note_on,120,0,14,,,,,,,,7,,,,50,92
60960,note_on,0,0,8,,,,,,,,4,,,,43,92
60960,note_on,5,0,22,,,,,,,,15,,,,43,92
60960,note_on,0,0,6,,,,,,,,3,,,,71,92
60960,note_on,80,0,9,,,,,,,,5,,,,71,92
60960,note_on,80,0,10,,,,,,,,5,,,,67,92
60960,note_on,5,0,19,,,,,,,,12,,,,71,92
60960,note_off,240,0,2,,,,,,,,0,,,,69,64
60960,note_on,0,0,7,,,,,,,,4,,,,55,92
61120,note_off,640,0,13,,,,,,,,7,,,,64,64
61120,note_off,640,0,11,,,,,,,,6,,,,76,64
61120,note_off,640,0,12,,,,,,,,6,,,,74,64
61120,note_off,640,0,3,,,,,,,,2,,,,76,64
61120,note_off,640,0,1,,,,,,,,0,,,,76,64
61120,note_off,640,0,18,,,,,,,,11,,,,76,64
61120,note_off,640,0,5,,,,,,,,3,,,,76,64
61195,note_off,235,0,15,,,,,,,,7,,,,55,64
61195,note_off,235,0,16,,,,,,,,8,,,,43,64
61200,note_on,5,0,16,,,,,,,,8,,,,40,92
61200,note_on,80,0,5,,,,,,,,3,,,,76,92
61200,note_on,80,0,13,,,,,,,,7,,,,64,92
61200,note_on,0,0,21,,,,,,,,14,,,,52,92
61200,note_off,240,0,21,,,,,,,,14,,,,55,64
61200,note_on,80,0,3,,,,,,,,2,,,,76,92
61200,note_on,0,0,7,,,,,,,,4,,,,52,92
61200,note_off,240,0,2,,,,,,,,0,,,,71,64
61200,note_off,240,0,4,,,,,,,,2,,,,71,64
61200,note_on,80,0,18,,,,,,,,11,,,,76,108
61200,note_off,240,0,8,,,,,,,,4,,,,43,64
61200,note_off,240,0,22,,,,,,,,15,,,,43,64
61200,note_on,0,0,22,,,,,,,,15,,,,40,92
61200,note_on,80,0,11,,,,,,,,6,,,,76,92
61200,note_on,0,0,8,,,,,,,,4,,,,40,92
61200,note_off,240,0,19,,,,,,,,12,,,,71,64
61200,note_on,0,0,6,,,,,,,,3,,,,74,92
61200,note_off,240,0,7,,,,,,,,4,,,,55,64
61200,note_on,0,0,19,,,,,,,,12,,,,74,92
61200,note_on,80,0,12,,,,,,,,6,,,,74,92
61200,note_off,240,0,6,,,,,,,,3,,,,71,64
61200,note_on,0,0,4,,,,,,,,2,,,,74,92
61200,note_on,5,0,15,,,,,,,,7,,,,52,92
61200,note_on,0,0,2,,,,,,,,0,,,,74,92
61200,note_on,80,0,1,,,,,,,,0,,,,76,92
61360,note_off,400,0,20,,,,,,,,13,,,,74,64
61360,note_off,400,0,14,,,,,,,,7,,,,50,64
61360,note_off,400,0,17,,,,,,,,10,,,,50,64
61360,note_off,400,0,9,,,,,,,,5,,,,71,64
61360,note_off,400,0,10,,,,,,,,5,,,,67,64
61435,note_off,235,0,12,,,,,,,,6,,,,74,64
61435,note_off,235,0,7,,,,,,,,4,,,,52,64
61435,note_off,235,0,4,,,,,,,,2,,,,74,64
61435,note_off,235,0,13,,,,,,,,7,,,,64,64
61435,note_off,235,0,1,,,,,,,,0,,,,76,64
61435,note_off,235,0,22,,,,,,,,15,,,,40,64
61435,note_off,235,0,16,,,,,,,,8,,,,40,64
61435,note_off,235,0,8,,,,,,,,4,,,,40,64
61435,note_off,235,0,15,,,,,,,,7,,,,52,64
61435,note_off,235,0,21,,,,,,,,14,,,,52,64
61435,note_off,235,0,6,,,,,,,,3,,,,74,64
61435,note_off,235,0,2,,,,,,,,0,,,,74,64
61435,note_off,235,0,19,,,,,,,,12,,,,74,64
61435,note_off,235,0,18,,,,,,,,11,,,,76,64
61435,note_off,235,0,3,,,,,,,,2,,,,76,64
61435,note_off,235,0,11,,,,,,,,6,,,,76,64
61435,note_off,235,0,5,,,,,,,,3,,,,76,64
61440,note_on,80,0,9,,,,,,,,5,,,,73,92
61440,note_on,80,0,10,,,,,,,,5,,,,64,92
61440,note_on,80,0,17,,,,,,,,10,,,,45,92
61440,note_on,5,0,16,,,,,,,,8,,,,45,92
61440,note_on,5,0,13,,,,,,,,7,,,,64,92
61440,note_on,5,0,21,,,,,,,,14,,,,57,92
61440,note_on,80,0,20,,,,,,,,13,,,,69,92
61440,note_on,5,0,4,,,,,,,,2,,,,73,92
61440,note_on,5,0,1,,,,,,,,0,,,,76,92
61440,note_on,5,0,2,,,,,,,,0,,,,73,92
61440,note_on,5,0,15,,,,,,,,7,,,,57,92
61440,note_on,5,0,3,,,,,,,,2,,,,76,92
61440,note_on,5,0,12,,,,,,,,6,,,,73,92
61440,note_on,5,0,19,,,,,,,,12,,,,73,92
61440,note_on,5,0,8,,,,,,,,4,,,,45,92
61440,note_on,5,0,18,,,,,,,,11,,,,76,108
61440,note_on,5,0,5,,,,,,,,3,,,,76,92
61440,note_on,5,0,11,,,,,,,,6,,,,76,92
61440,note_on,5,0,6,,,,,,,,3,,,,73,92
61440,note_on,5,0,7,,,,,,,,4,,,,57,92
61440,note_on,5,0,22,,,,,,,,15,,,,45,92
61440,note_on,80,0,14,,,,,,,,7,,,,61,92
61675,note_off,235,0,16,,,,,,,,8,,,,45,64
61675,note_off,235,0,15,,,,,,,,7,,,,57,64
61680,note_on,0,0,21,,,,,,,,14,,,,55,92
61680,note_off,240,0,21,,,,,,,,14,,,,57,64
61680,note_on,0,0,22,,,,,,,,15,,,,43,92
61680,note_off,240,0,22,,,,,,,,15,,,,45,64
61680,note_off,240,0,8,,,,,,,,4,,,,45,64
61680,note_on,5,0,16,,,,,,,,8,,,,43,92
61680,note_on,5,0,15,,,,,,,,7,,,,55,92
61680,note_on,0,0,8,,,,,,,,4,,,,43,92
61680,note_on,0,0,7,,,,,,,,4,,,,55,92
61680,note_off,240,0,7,,,,,,,,4,,,,57,64
61915,note_off,235,0,16,,,,,,,,8,,,,43,64
61915,note_off,235,0,7,,,,,,,,4,,,,55,64
61915,note_off,235,0,15,,,,,,,,7,,,,55,64
61915,note_off,235,0,8,,,,,,,,4,,,,43,64
61920,note_off,240,0,22,,,,,,,,15,,,,43,64
61920,note_on,0,0,22,,,,,,,,15,,,,45,92
61920,note_on,0,0,21,,,,,,,,14,,,,57,92
61920,note_on,5,0,8,,,,,,,,4,,,,45,92
61920,note_on,5,0,15,,,,,,,,7,,,,57,92
61920,note_off,240,0,21,,,,,,,,14,,,,55,64
61920,note_on,5,0,7,,,,,,,,4,,,,57,92
61920,note_on,5,0,16,,,,,,,,8,,,,45,92
62155,note_off,235,0,16,,,,,,,,8,,,,45,64
62155,note_off,235,0,15,,,,,,,,7,,,,57,64
62160,note_off,240,0,7,,,,,,,,4,,,,57,64
62160,note_off,240,0,21,,,,,,,,14,,,,57,64
62160,note_off,240,0,8,,,,,,,,4,,,,45,64
62160,note_on,0,0,22,,,,,,,,15,,,,47,92
62160,note_on,0,0,8,,,,,,,,4,,,,47,92
62160,note_on,5,0,15,,,,,,,,7,,,,59,92
62160,note_on,0,0,7,,,,,,,,4,,,,59,92
62160,note_off,240,0,22,,,,,,,,15,,,,45,64
62160,note_on,5,0,16,,,,,,,,8,,,,47,92
62160,note_on,0,0,21,,,,,,,,14,,,,59,92
62280,note_off,840,0,2,,,,,,,,0,,,,73,64
62280,note_off,840,0,6,,,,,,,,3,,,,73,64
62280,note_off,840,0,10,,,,,,,,5,,,,64,64
62280,note_off,840,0,13,,,,,,,,7,,,,64,64
62280,note_off,840,0,9,,,,,,,,5,,,,73,64
62280,note_off,840,0,11,,,,,,,,6,,,,76,64
62280,note_off,840,0,5,,,,,,,,3,,,,76,64
62280,note_off,840,0,3,,,,,,,,2,,,,76,64
62280,note_off,840,0,1,,,,,,,,0,,,,76,64
62280,note_off,840,0,4,,,,,,,,2,,,,73,64
62280,note_off,840,0,19,,,,,,,,12,,,,73,64
62280,note_off,840,0,14,,,,,,,,7,,,,61,64
62280,note_off,840,0,18,,,,,,,,11,,,,76,64
62280,note_off,840,0,12,,,,,,,,6,,,,73,64
62280,note_off,840,0,20,,,,,,,,13,,,,69,64
62280,note_off,840,0,17,,,,,,,,10,,,,45,64
62395,note_off,235,0,16,,,,,,,,8,,,,47,64
62395,note_off,235,0,15,,,,,,,,7,,,,59,64
62395,note_off,235,0,21,,,,,,,,14,,,,59,64
62395,note_off,235,0,7,,,,,,,,4,,,,59,64
62395,note_off,235,0,22,,,,,,,,15,,,,47,64
62395,note_off,235,0,8,,,,,,,,4,,,,47,64
62400,note_on,120,0,18,,,,,,,,11,,,,76,108
62400,note_on,120,0,19,,,,,,,,12,,,,73,92
62400,note_on,120,0,17,,,,,,,,10,,,,45,92
62400,note_on,120,0,9,,,,,,,,5,,,,73,92
62400,note_on,120,0,20,,,,,,,,13,,,,69,92
62400,note_on,120,0,13,,,,,,,,7,,,,64,92
62400,note_on,5,0,7,,,,,,,,4,,,,57,92
62400,note_on,5,0,8,,,,,,,,4,,,,45,92
62400,note_on,120,0,4,,,,,,,,2,,,,73,92
62400,note_on,120,0,3,,,,,,,,2,,,,76,92
62400,note_on,120,0,6,,,,,,,,3,,,,73,92
62400,note_on,120,0,1,,,,,,,,0,,,,76,92
62400,note_on,5,0,15,,,,,,,,7,,,,57,92
62400,note_on,120,0,12,,,,,,,,6,,,,69,92
62400,note_on,120,0,2,,,,,,,,0,,,,73,92
62400,note_on,120,0,5,,,,,,,,3,,,,76,92
62400,note_on,120,0,11,,,,,,,,6,,,,76,92
62400,note_on,120,0,10,,,,,,,,5,,,,64,92
62400,note_on,5,0,21,,,,,,,,14,,,,57,92
62400,note_on,120,0,14,,,,,,,,7,,,,61,92
62400,note_on,5,0,22,,,,,,,,15,,,,45,92
62400,note_on,5,0,16,,,,,,,,8,,,,45,92
62635,note_off,235,0,15,,,,,,,,7,,,,57,64
62635,note_off,235,0,16,,,,,,,,8,,,,45,64
62640,note_on,0,0,21,,,,,,,,14,,,,59,92
62640,note_on,5,0,16,,,,,,,,8,,,,47,92
62640,note_on,5,0,15,,,,,,,,7,,,,59,92
62640,note_off,240,0,22,,,,,,,,15,,,,45,64
62640,note_off,240,0,8,,,,,,,,4,,,,45,64
62640,note_on,0,0,8,,,,,,,,4,,,,47,92
62640,note_off,240,0,7,,,,,,,,4,,,,57,64
62640,note_on,0,0,7,,,,,,,,4,,,,59,92
62640,note_off,240,0,21,,,,,,,,14,,,,57,64
62640,note_on,0,0,22,,,,,,,,15,,,,47,92
62800,note_off,400,0,1,,,,,,,,0,,,,76,64
62800,note_off,400,0,12,,,,,,,,6,,,,69,64
62800,note_off,400,0,6,,,,,,,,3,,,,73,64
62800,note_off,400,0,4,,,,,,,,2,,,,73,64
62800,note_off,400,0,19,,,,,,,,12,,,,73,64
62800,note_off,400,0,18,,,,,,,,11,,,,76,64
62800,note_off,400,0,5,,,,,,,,3,,,,76,64
62800,note_off,400,0,20,,,,,,,,13,,,,69,64
62800,note_off,400,0,3,,,,,,,,2,,,,76,64
62800,note_off,400,0,14,,,,,,,,7,,,,61,64
62800,note_off,400,0,13,,,,,,,,7,,,,64,64
62800,note_off,400,0,11,,,,,,,,6,,,,76,64
62800,note_off,400,0,10,,,,,,,,5,,,,64,64
62800,note_off,400,0,17,,,,,,,,10,,,,45,64
62800,note_off,400,0,2,,,,,,,,0,,,,73,64
62875,note_off,235,0,22,,,,,,,,15,,,,47,64
62875,note_off,235,0,15,,,,,,,,7,,,,59,64
62875,note_off,235,0,21,,,,,,,,14,,,,59,64
62875,note_off,235,0,8,,,,,,,,4,,,,47,64
62875,note_off,235,0,16,,,,,,,,8,,,,47,64
62875,note_off,235,0,7,,,,,,,,4,,,,59,64
62880,note_on,80,0,4,,,,,,,,2,,,,74,92
62880,note_on,80,0,13,,,,,,,,7,,,,62,92
62880,note_on,80,0,12,,,,,,,,6,,,,74,92
62880,note_on,80,0,19,,,,,,,,12,,,,74,92
62880,note_on,80,0,2,,,,,,,,0,,,,74,92
62880,note_on,80,0,20,,,,,,,,13,,,,69,92
62880,note_on,5,0,8,,,,,,,,4,,,,45,92
62880,note_on,5,0,16,,,,,,,,8,,,,45,92
62880,note_on,80,0,1,,,,,,,,0,,,,78,92
62880,note_on,80,0,5,,,,,,,,3,,,,78,92
62880,note_on,80,0,3,,,,,,,,2,,,,78,92
62880,note_on,5,0,21,,,,,,,,14,,,,57,92
62880,note_on,80,0,11,,,,,,,,6,,,,78,92
62880,note_on,80,0,17,,,,,,,,10,,,,45,92
62880,note_on,80,0,10,,,,,,,,5,,,,66,92
62880,note_on,80,0,18,,,,,,,,11,,,,78,108
62880,note_on,80,0,14,,,,,,,,7,,,,57,92
62880,note_on,5,0,22,,,,,,,,15,,,,45,92
62880,note_on,80,0,6,,,,,,,,3,,,,74,92
62880,note_on,5,0,15,,,,,,,,7,,,,57,92
62880,note_on,5,0,7,,,,,,,,4,,,,57,92
63120,note_off,720,0,9,,,,,,,,5,,,,73,64
63120,note_on,0,0,9,,,,,,,,5,,,,71,92
63240,note_off,360,0,16,,,,,,,,8,,,,45,64
63240,note_on,0,0,11,,,,,,,,6,,,,79,92
63240,note_off,360,0,6,,,,,,,,3,,,,74,64
63240,note_on,0,0,6,,,,,,,,3,,,,76,92
63240,note_off,360,0,2,,,,,,,,0,,,,74,64
63240,note_on,0,0,2,,,,,,,,0,,,,76,92
63240,note_on,0,0,13,,,,,,,,7,,,,64,92
63240,note_off,360,0,11,,,,,,,,6,,,,78,64
63240,note_off,360,0,1,,,,,,,,0,,,,78,64
63240,note_off,360,0,21,,,,,,,,14,,,,57,64
63240,note_on,0,0,21,,,,,,,,14,,,,55,92
63240,note_off,360,0,5,,,,,,,,3,,,,78,64
63240,note_on,0,0,16,,,,,,,,8,,,,43,92
63240,note_off,360,0,3,,,,,,,,2,,,,78,64
63240,note_on,0,0,3,,,,,,,,2,,,,79,92
63240,note_on,0,0,19,,,,,,,,12,,,,76,92
63240,note_off,360,0,19,,,,,,,,12,,,,74,64
63240,note_off,360,0,18,,,,,,,,11,,,,78,64
63240,note_on,0,0,4,,,,,,,,2,,,,76,92
63240,note_off,360,0,4,,,,,,,,2,,,,74,64
63240,note_on,0,0,18,,,,,,,,11,,,,79,108
63240,note_on,0,0,1,,,,,,,,0,,,,79,92
63240,note_off,360,0,13,,,,,,,,7,,,,62,64
63240,note_on,0,0,5,,,,,,,,3,,,,79,92
63240,note_off,360,0,15,,,,,,,,7,,,,57,64
63240,note_on,0,0,12,,,,,,,,6,,,,76,92
63240,note_on,0,0,8,,,,,,,,4,,,,43,92
63240,note_off,360,0,12,,,,,,,,6,,,,74,64
63240,note_off,360,0,10,,,,,,,,5,,,,66,64
63240,note_on,0,0,10,,,,,,,,5,,,,67,92
63240,note_off,360,0,7,,,,,,,,4,,,,57,64
63240,note_on,0,0,7,,,,,,,,4,,,,55,92
63240,note_off,360,0,8,,,,,,,,4,,,,45,64
63240,note_on,0,0,15,,,,,,,,7,,,,55,92
63240,note_on,0,0,22,,,,,,,,15,,,,43,92
63240,note_off,360,0,22,,,,,,,,15,,,,45,64
63280,note_off,400,0,20,,,,,,,,13,,,,69,64
63280,note_off,400,0,14,,,,,,,,7,,,,57,64
63280,note_off,400,0,17,,,,,,,,10,,,,45,64
63355,note_off,115,0,3,,,,,,,,2,,,,79,64
63355,note_off,115,0,5,,,,,,,,3,,,,79,64
63355,note_off,115,0,16,,,,,,,,8,,,,43,64
63355,note_off,115,0,15,,,,,,,,7,,,,55,64
63355,note_off,115,0,13,,,,,,,,7,,,,64,64
63355,note_off,115,0,21,,,,,,,,14,,,,55,64
63355,note_off,115,0,8,,,,,,,,4,,,,43,64
63355,note_off,115,0,2,,,,,,,,0,,,,76,64
63355,note_off,115,0,10,,,,,,,,5,,,,67,64
63355,note_off,115,0,4,,,,,,,,2,,,,76,64
63355,note_off,115,0,12,,,,,,,,6,,,,76,64
63355,note_off,115,0,6,,,,,,,,3,,,,76,64
63355,note_off,115,0,7,,,,,,,,4,,,,55,64
63355,note_off,115,0,18,,,,,,,,11,,,,79,64
63355,note_off,115,0,11,,,,,,,,6,,,,79,64
63355,note_off,115,0,19,,,,,,,,12,,,,76,64
63355,note_off,115,0,22,,,,,,,,15,,,,43,64
63355,note_off,115,0,1,,,,,,,,0,,,,79,64
63355,note_off,235,0,9,,,,,,,,5,,,,71,64
63360,note_on,5,0,8,,,,,,,,4,,,,42,92
63360,note_on,5,0,1,,,,,,,,0,,,,81,92
63360,note_on,5,0,3,,,,,,,,2,,,,81,92
63360,note_on,5,0,15,,,,,,,,7,,,,54,92
63360,note_on,5,0,7,,,,,,,,4,,,,54,92
63360,note_on,5,0,18,,,,,,,,11,,,,81,108
63360,note_on,5,0,2,,,,,,,,0,,,,78,92
63360,note_on,80,0,17,,,,,,,,10,,,,45,92
63360,note_on,5,0,16,,,,,,,,8,,,,42,92
63360,note_on,80,0,20,,,,,,,,13,,,,74,92
63360,note_on,80,0,14,,,,,,,,7,,,,62,92
63360,note_on,5,0,13,,,,,,,,7,,,,66,92
63360,note_on,5,0,11,,,,,,,,6,,,,81,92
63360,note_on,5,0,10,,,,,,,,5,,,,69,92
63360,note_on,5,0,19,,,,,,,,12,,,,78,92
63360,note_on,5,0,6,,,,,,,,3,,,,78,92
63360,note_on,5,0,22,,,,,,,,15,,,,42,92
63360,note_on,5,0,12,,,,,,,,6,,,,78,92
63360,note_on,5,0,21,,,,,,,,14,,,,54,92
63360,note_on,5,0,5,,,,,,,,3,,,,81,92
63360,note_on,5,0,9,,,,,,,,5,,,,69,92
63360,note_on,5,0,4,,,,,,,,2,,,,78,92
63760,note_off,400,0,6,,,,,,,,3,,,,78,64
63760,note_off,400,0,3,,,,,,,,2,,,,81,64
63760,note_off,400,0,5,,,,,,,,3,,,,81,64
63760,note_off,400,0,11,,,,,,,,6,,,,81,64
63760,note_off,400,0,10,,,,,,,,5,,,,69,64
63760,note_off,400,0,18,,,,,,,,11,,,,81,64
63760,note_off,400,0,1,,,,,,,,0,,,,81,64
63760,note_off,400,0,9,,,,,,,,5,,,,69,64
63760,note_off,400,0,14,,,,,,,,7,,,,62,64
63760,note_off,400,0,17,,,,,,,,10,,,,45,64
63760,note_off,400,0,19,,,,,,,,12,,,,78,64
63760,note_off,400,0,13,,,,,,,,7,,,,66,64
63760,note_off,400,0,12,,,,,,,,6,,,,78,64
63760,note_off,400,0,2,,,,,,,,0,,,,78,64
63760,note_off,400,0,4,,,,,,,,2,,,,78,64
63760,note_off,400,0,20,,,,,,,,13,,,,74,64
63840,note_on,80,0,9,,,,,,,,5,,,,66,92
63840,note_on,80,0,17,,,,,,,,10,,,,50,92
63840,note_on,80,0,3,,,,,,,,2,,,,78,92
63840,note_on,80,0,18,,,,,,,,11,,,,78,108
63840,note_on,80,0,2,,,,,,,,0,,,,74,92
63840,note_on,80,0,13,,,,,,,,7,,,,62,92
63840,note_on,80,0,1,,,,,,,,0,,,,78,92
63840,note_on,80,0,20,,,,,,,,13,,,,69,92
63840,note_on,80,0,19,,,,,,,,12,,,,74,92
63840,note_on,80,0,10,,,,,,,,5,,,,57,92
63840,note_on,80,0,5,,,,,,,,3,,,,78,92
63840,note_on,80,0,11,,,,,,,,6,,,,78,92
63840,note_on,80,0,12,,,,,,,,6,,,,74,92
63840,note_on,80,0,4,,,,,,,,2,,,,74,92
63840,note_on,80,0,6,,,,,,,,3,,,,74,92
63840,note_on,80,0,14,,,,,,,,7,,,,57,92
64000,note_off,640,0,16,,,,,,,,8,,,,42,64
64000,note_off,640,0,21,,,,,,,,14,,,,54,64
64000,note_off,640,0,7,,,,,,,,4,,,,54,64
64000,note_off,640,0,8,,,,,,,,4,,,,42,64
64000,note_off,640,0,22,,,,,,,,15,,,,42,64
64000,note_off,640,0,15,,,,,,,,7,,,,54,64
64080,note_on,80,0,22,,,,,,,,15,,,,42,92
64080,note_on,80,0,15,,,,,,,,7,,,,54,92
64080,note_on,80,0,21,,,,,,,,14,,,,54,92
64080,note_on,80,0,8,,,,,,,,4,,,,42,92
64080,note_on,80,0,7,,,,,,,,4,,,,54,92
64080,note_on,80,0,16,,,,,,,,8,,,,42,92
64240,note_off,400,0,13,,,,,,,,7,,,,62,64
64240,note_off,400,0,1,,,,,,,,0,,,,78,64
64240,note_off,400,0,20,,,,,,,,13,,,,69,64
64240,note_off,400,0,4,,,,,,,,2,,,,74,64
64240,note_off,400,0,19,,,,,,,,12,,,,74,64
64240,note_off,400,0,10,,,,,,,,5,,,,57,64
64240,note_off,400,0,5,,,,,,,,3,,,,78,64
64240,note_off,400,0,11,,,,,,,,6,,,,78,64
64240,note_off,400,0,18,,,,,,,,11,,,,78,64
64240,note_off,400,0,6,,,,,,,,3,,,,74,64
64240,note_off,400,0,12,,,,,,,,6,,,,74,64
64240,note_off,400,0,9,,,,,,,,5,,,,66,64
64240,note_off,400,0,3,,,,,,,,2,,,,78,64
64240,note_off,400,0,14,,,,,,,,7,,,,57,64
64240,note_off,400,0,2,,,,,,,,0,,,,74,64
64240,note_off,400,0,17,,,,,,,,10,,,,50,64
64315,note_off,235,0,22,,,,,,,,15,,,,42,64
64315,note_off,235,0,15,,,,,,,,7,,,,54,64
64315,note_off,235,0,7,,,,,,,,4,,,,54,64
64315,note_off,235,0,8,,,,,,,,4,,,,42,64
64315,note_off,235,0,16,,,,,,,,8,,,,42,64
64315,note_off,235,0,21,,,,,,,,14,,,,54,64
64320,note_on,80,0,11,,,,,,,,6,,,,74,92
64320,note_on,80,0,5,,,,,,,,3,,,,74,92
64320,note_on,80,0,6,,,,,,,,3,,,,69,92
64320,note_on,80,0,9,,,,,,,,5,,,,62,92
64320,note_on,80,0,19,,,,,,,,12,,,,69,92
64320,note_on,80,0,2,,,,,,,,0,,,,69,92
64320,note_on,5,0,15,,,,,,,,7,,,,54,92
64320,note_on,5,0,16,,,,,,,,8,,,,42,92
64320,note_on,80,0,14,,,,,,,,7,,,,54,92
64320,note_on,80,0,18,,,,,,,,11,,,,74,108
64320,note_on,80,0,3,,,,,,,,2,,,,74,92
64320,note_on,80,0,10,,,,,,,,5,,,,57,92
64320,note_on,80,0,17,,,,,,,,10,,,,50,92
64320,note_on,80,0,1,,,,,,,,0,,,,74,92
64320,note_on,80,0,20,,,,,,,,13,,,,62,92
64320,note_on,5,0,8,,,,,,,,4,,,,42,92
64320,note_on,5,0,22,,,,,,,,15,,,,42,92
64320,note_on,5,0,7,,,,,,,,4,,,,54,92
64320,note_on,5,0,21,,,,,,,,14,,,,54,92
64320,note_on,80,0,12,,,,,,,,6,,,,69,92
64320,note_on,80,0,4,,,,,,,,2,,,,69,92
64320,note_on,80,0,13,,,,,,,,7,,,,57,92
64555,note_off,235,0,15,,,,,,,,7,,,,54,64
64555,note_off,235,0,16,,,,,,,,8,,,,42,64
64560,note_on,0,0,4,,,,,,,,2,,,,67,92
64560,note_off,240,0,6,,,,,,,,3,,,,69,64
64560,note_on,0,0,6,,,,,,,,3,,,,67,92
64560,note_on,5,0,15,,,,,,,,7,,,,52,92
64560,note_on,0,0,8,,,,,,,,4,,,,40,92
64560,note_on,5,0,16,,,,,,,,8,,,,40,92
64560,note_on,0,0,21,,,,,,,,14,,,,52,92
64560,note_off,240,0,4,,,,,,,,2,,,,69,64
64560,note_on,0,0,2,,,,,,,,0,,,,67,92
64560,note_off,240,0,21,,,,,,,,14,,,,54,64
64560,note_on,0,0,7,,,,,,,,4,,,,52,92
64560,note_on,0,0,19,,,,,,,,12,,,,67,92
64560,note_off,240,0,19,,,,,,,,12,,,,69,64
64560,note_off,240,0,22,,,,,,,,15,,,,42,64
64560,note_on,0,0,22,,,,,,,,15,,,,40,92
64560,note_off,240,0,2,,,,,,,,0,,,,69,64
64560,note_off,240,0,7,,,,,,,,4,,,,54,64
64560,note_off,240,0,8,,,,,,,,4,,,,42,64
64720,note_off,400,0,12,,,,,,,,6,,,,69,64
64720,note_off,400,0,9,,,,,,,,5,,,,62,64
64720,note_off,400,0,13,,,,,,,,7,,,,57,64
64720,note_off,400,0,10,,,,,,,,5,,,,57,64
64720,note_off,400,0,17,,,,,,,,10,,,,50,64
64720,note_off,400,0,14,,,,,,,,7,,,,54,64
64795,note_off,235,0,7,,,,,,,,4,,,,52,64
64795,note_off,235,0,16,,,,,,,,8,,,,40,64
64795,note_off,235,0,15,,,,,,,,7,,,,52,64
64795,note_off,235,0,8,,,,,,,,4,,,,40,64
64800,note_on,80,0,13,,,,,,,,7,,,,54,92
64800,note_on,5,0,15,,,,,,,,7,,,,54,92
64800,note_on,80,0,14,,,,,,,,7,,,,57,92
64800,note_on,80,0,10,,,,,,,,5,,,,69,92
64800,note_on,0,0,21,,,,,,,,14,,,,54,92
64800,note_on,80,0,12,,,,,,,,6,,,,66,92
64800,note_off,240,0,19,,,,,,,,12,,,,67,64
64800,note_off,240,0,21,,,,,,,,14,,,,52,64
64800,note_on,80,0,17,,,,,,,,10,,,,50,92
64800,note_on,5,0,8,,,,,,,,4,,,,42,92
64800,note_off,240,0,2,,,,,,,,0,,,,67,64
64800,note_on,0,0,2,,,,,,,,0,,,,69,92
64800,note_on,0,0,4,,,,,,,,2,,,,69,92
64800,note_off,240,0,4,,,,,,,,2,,,,67,64
64800,note_on,5,0,7,,,,,,,,4,,,,54,92
64800,note_on,0,0,6,,,,,,,,3,,,,69,92
64800,note_off,240,0,6,,,,,,,,3,,,,67,64
64800,note_on,80,0,9,,,,,,,,5,,,,69,92
64800,note_on,0,0,19,,,,,,,,12,,,,69,92
64800,note_on,0,0,22,,,,,,,,15,,,,42,92
64800,note_off,240,0,22,,,,,,,,15,,,,40,64
64800,note_on,5,0,16,,,,,,,,8,,,,42,92
64960,note_off,640,0,3,,,,,,,,2,,,,74,64
64960,note_off,640,0,1,,,,,,,,0,,,,74,64
64960,note_off,640,0,20,,,,,,,,13,,,,62,64
64960,note_off,640,0,18,,,,,,,,11,,,,74,64
64960,note_off,640,0,5,,,,,,,,3,,,,74,64
64960,note_off,640,0,11,,,,,,,,6,,,,74,64
65035,note_off,235,0,16,,,,,,,,8,,,,42,64
65035,note_off,235,0,15,,,,,,,,7,,,,54,64
65035,note_off,235,0,21,,,,,,,,14,,,,54,64
65035,note_off,235,0,22,,,,,,,,15,,,,42,64
65035,note_off,235,0,19,,,,,,,,12,,,,69,64
65035,note_off,235,0,14,,,,,,,,7,,,,57,64
65040,note_on,80,0,20,,,,,,,,13,,,,69,92
65040,note_on,5,0,22,,,,,,,,15,,,,38,92
65040,note_off,240,0,6,,,,,,,,3,,,,69,64
65040,note_on,80,0,5,,,,,,,,3,,,,74,92
65040,note_on,0,0,2,,,,,,,,0,,,,66,92
65040,note_off,240,0,2,,,,,,,,0,,,,69,64
65040,note_on,80,0,18,,,,,,,,11,,,,74,108
65040,note_on,5,0,15,,,,,,,,7,,,,50,92
65040,note_on,0,0,6,,,,,,,,3,,,,66,92
65040,note_on,5,0,19,,,,,,,,12,,,,66,92
65040,note_on,80,0,3,,,,,,,,2,,,,74,92
65040,note_on,5,0,14,,,,,,,,7,,,,54,92
65040,note_on,0,0,4,,,,,,,,2,,,,66,92
65040,note_off,240,0,8,,,,,,,,4,,,,42,64
65040,note_on,0,0,8,,,,,,,,4,,,,38,92
65040,note_on,5,0,21,,,,,,,,14,,,,50,92
65040,note_off,240,0,7,,,,,,,,4,,,,54,64
65040,note_on,5,0,16,,,,,,,,8,,,,38,92
65040,note_on,80,0,1,,,,,,,,0,,,,74,92
65040,note_on,0,0,7,,,,,,,,4,,,,50,92
65040,note_on,80,0,11,,,,,,,,6,,,,74,92
65040,note_off,240,0,4,,,,,,,,2,,,,69,64
65200,note_off,400,0,13,,,,,,,,7,,,,54,64
65200,note_off,400,0,10,,,,,,,,5,,,,69,64
65200,note_off,400,0,9,,,,,,,,5,,,,69,64
65200,note_off,400,0,17,,,,,,,,10,,,,50,64
65200,note_off,400,0,12,,,,,,,,6,,,,66,64
65275,note_off,235,0,16,,,,,,,,8,,,,38,64
65275,note_off,235,0,1,,,,,,,,0,,,,74,64
65275,note_off,235,0,21,,,,,,,,14,,,,50,64
65275,note_off,235,0,20,,,,,,,,13,,,,69,64
65275,note_off,235,0,3,,,,,,,,2,,,,74,64
65275,note_off,235,0,6,,,,,,,,3,,,,66,64
65275,note_off,235,0,22,,,,,,,,15,,,,38,64
65275,note_off,235,0,4,,,,,,,,2,,,,66,64
65275,note_off,235,0,7,,,,,,,,4,,,,50,64
65275,note_off,235,0,8,,,,,,,,4,,,,38,64
65275,note_off,235,0,11,,,,,,,,6,,,,74,64
65275,note_off,235,0,14,,,,,,,,7,,,,54,64
65275,note_off,235,0,15,,,,,,,,7,,,,50,64
65275,note_off,235,0,19,,,,,,,,12,,,,66,64
65275,note_off,235,0,18,,,,,,,,11,,,,74,64
65275,note_off,235,0,2,,,,,,,,0,,,,66,64
65275,note_off,235,0,5,,,,,,,,3,,,,74,64
65280,note_on,5,0,3,,,,,,,,2,,,,74,92
65280,note_on,5,0,22,,,,,,,,15,,,,43,92
65280,note_on,80,0,9,,,,,,,,5,,,,71,92
65280,note_on,5,0,14,,,,,,,,7,,,,50,92
65280,note_on,5,0,20,,,,,,,,13,,,,67,92
65280,note_on,5,0,21,,,,,,,,14,,,,55,92
65280,note_on,5,0,1,,,,,,,,0,,,,74,92
65280,note_on,80,0,12,,,,,,,,6,,,,71,92
65280,note_on,5,0,4,,,,,,,,2,,,,71,92
65280,note_on,5,0,8,,,,,,,,4,,,,43,92
65280,note_on,5,0,15,,,,,,,,7,,,,55,92
65280,note_on,5,0,19,,,,,,,,12,,,,71,92
65280,note_on,5,0,18,,,,,,,,11,,,,74,108
65280,note_on,5,0,7,,,,,,,,4,,,,55,92
65280,note_on,5,0,2,,,,,,,,0,,,,71,92
65280,note_on,80,0,17,,,,,,,,10,,,,50,92
65280,note_on,80,0,10,,,,,,,,5,,,,67,92
65280,note_on,5,0,11,,,,,,,,6,,,,74,92
65280,note_on,80,0,13,,,,,,,,7,,,,62,92
65280,note_on,5,0,6,,,,,,,,3,,,,71,92
65280,note_on,5,0,16,,,,,,,,8,,,,43,92
65280,note_on,5,0,5,,,,,,,,3,,,,74,92
65515,note_off,235,0,15,,,,,,,,7,,,,55,64
65515,note_off,235,0,16,,,,,,,,8,,,,43,64
65520,note_on,5,0,16,,,,,,,,8,,,,42,92
65520,note_on,0,0,8,,,,,,,,4,,,,42,92
65520,note_off,240,0,7,,,,,,,,4,,,,55,64
65520,note_on,0,0,7,,,,,,,,4,,,,54,92
65520,note_on,0,0,4,,,,,,,,2,,,,69,92
65520,note_off,240,0,4,,,,,,,,2,,,,71,64
65520,note_on,0,0,6,,,,,,,,3,,,,69,92
65520,note_off,240,0,2,,,,,,,,0,,,,71,64
65520,note_on,0,0,22,,,,,,,,15,,,,42,92
65520,note_off,240,0,8,,,,,,,,4,,,,43,64
65520,note_on,0,0,2,,,,,,,,0,,,,69,92
65520,note_on,5,0,15,,,,,,,,7,,,,54,92
65520,note_off,240,0,22,,,,,,,,15,,,,43,64
65520,note_off,240,0,6,,,,,,,,3,,,,71,64
65520,note_on,0,0,19,,,,,,,,12,,,,69,92
65520,note_off,240,0,21,,,,,,,,14,,,,55,64
65520,note_on,0,0,21,,,,,,,,14,,,,54,92
65520,note_on,0,0,12,,,,,,,,6,,,,69,92
65520,note_off,240,0,12,,,,,,,,6,,,,71,64
65520,note_off,240,0,19,,,,,,,,12,,,,71,64
65755,note_off,235,0,8,,,,,,,,4,,,,42,64
65755,note_off,235,0,7,,,,,,,,4,,,,54,64
65755,note_off,235,0,15,,,,,,,,7,,,,54,64
65755,note_off,235,0,16,,,,,,,,8,,,,42,64
65760,note_off,240,0,4,,,,,,,,2,,,,69,64
65760,note_on,0,0,19,,,,,,,,12,,,,71,92
65760,note_off,240,0,21,,,,,,,,14,,,,54,64
65760,note_off,240,0,12,,,,,,,,6,,,,69,64
65760,note_off,240,0,2,,,,,,,,0,,,,69,64
65760,note_on,0,0,12,,,,,,,,6,,,,71,92
65760,note_on,0,0,4,,,,,,,,2,,,,71,92
65760,note_on,0,0,21,,,,,,,,14,,,,55,92
65760,note_on,0,0,2,,,,,,,,0,,,,71,92
65760,note_off,240,0,19,,,,,,,,12,,,,69,64
65760,note_off,240,0,22,,,,,,,,15,,,,42,64
65760,note_on,5,0,7,,,,,,,,4,,,,55,92
65760,note_on,5,0,15,,,,,,,,7,,,,55,92
65760,note_on,0,0,22,,,,,,,,15,,,,43,92
65760,note_off,240,0,6,,,,,,,,3,,,,69,64
65760,note_on,0,0,6,,,,,,,,3,,,,71,92
65760,note_on,5,0,8,,,,,,,,4,,,,43,92
65760,note_on,5,0,16,,,,,,,,8,,,,43,92
65995,note_off,235,0,15,,,,,,,,7,,,,55,64
65995,note_off,235,0,16,,,,,,,,8,,,,43,64
66000,note_on,0,0,12,,,,,,,,6,,,,73,92
66000,note_off,240,0,12,,,,,,,,6,,,,71,64
66000,note_off,240,0,19,,,,,,,,12,,,,71,64
66000,note_on,0,0,19,,,,,,,,12,,,,73,92
66000,note_on,0,0,7,,,,,,,,4,,,,57,92
66000,note_on,0,0,2,,,,,,,,0,,,,73,92
66000,note_off,240,0,2,,,,,,,,0,,,,71,64
66000,note_on,0,0,21,,,,,,,,14,,,,57,92
66000,note_off,240,0,21,,,,,,,,14,,,,55,64
66000,note_off,240,0,7,,,,,,,,4,,,,55,64
66000,note_on,5,0,15,,,,,,,,7,,,,57,92
66000,note_on,5,0,16,,,,,,,,8,,,,45,92
66000,note_on,0,0,8,,,,,,,,4,,,,45,92
66000,note_on,0,0,4,,,,,,,,2,,,,73,92
66000,note_off,240,0,6,,,,,,,,3,,,,71,64
66000,note_off,240,0,4,,,,,,,,2,,,,71,64
66000,note_on,0,0,22,,,,,,,,15,,,,45,92
66000,note_off,240,0,8,,,,,,,,4,,,,43,64
66000,note_off,240,0,22,,,,,,,,15,,,,43,64
66000,note_on,0,0,6,,,,,,,,3,,,,73,92
66120,note_off,840,0,18,,,,,,,,11,,,,74,64
66120,note_off,840,0,9,,,,,,,,5,,,,71,64
66120,note_off,840,0,14,,,,,,,,7,,,,50,64
66120,note_off,840,0,1,,,,,,,,0,,,,74,64
66120,note_off,840,0,13,,,,,,,,7,,,,62,64
66120,note_off,840,0,17,,,,,,,,10,,,,50,64
66120,note_off,840,0,11,,,,,,,,6,,,,74,64
66120,note_off,840,0,10,,,,,,,,5,,,,67,64
66120,note_off,840,0,3,,,,,,,,2,,,,74,64
66120,note_off,840,0,5,,,,,,,,3,,,,74,64
66120,note_off,840,0,20,,,,,,,,13,,,,67,64
66235,note_off,235,0,12,,,,,,,,6,,,,73,64
66235,note_off,235,0,2,,,,,,,,0,,,,73,64
66235,note_off,235,0,4,,,,,,,,2,,,,73,64
66235,note_off,235,0,19,,,,,,,,12,,,,73,64
66235,note_off,235,0,8,,,,,,,,4,,,,45,64
66235,note_off,235,0,15,,,,,,,,7,,,,57,64
66235,note_off,235,0,21,,,,,,,,14,,,,57,64
66235,note_off,235,0,6,,,,,,,,3,,,,73,64
66235,note_off,235,0,22,,,,,,,,15,,,,45,64
66235,note_off,235,0,7,,,,,,,,4,,,,57,64
66235,note_off,235,0,16,,,,,,,,8,,,,45,64
66240,note_on,5,0,19,,,,,,,,12,,,,71,92
66240,note_on,120,0,9,,,,,,,,5,,,,71,92
66240,note_on,120,0,17,,,,,,,,10,,,,50,92
66240,note_on,120,0,14,,,,,,,,7,,,,59,92
66240,note_on,120,0,10,,,,,,,,5,,,,67,92
66240,note_on,5,0,4,,,,,,,,2,,,,71,92
66240,note_on,5,0,22,,,,,,,,15,,,,43,92
66240,note_on,120,0,1,,,,,,,,0,,,,74,92
66240,note_on,120,0,5,,,,,,,,3,,,,74,92
66240,note_on,120,0,20,,,,,,,,13,,,,67,92
66240,note_on,120,0,13,,,,,,,,7,,,,62,92
66240,note_on,5,0,6,,,,,,,,3,,,,71,92
66240,note_on,120,0,3,,,,,,,,2,,,,74,92
66240,note_on,5,0,21,,,,,,,,14,,,,55,92
66240,note_on,5,0,15,,,,,,,,7,,,,55,92
66240,note_on,120,0,18,,,,,,,,11,,,,74,108
66240,note_on,5,0,12,,,,,,,,6,,,,71,92
66240,note_on,120,0,11,,,,,,,,6,,,,74,92
66240,note_on,5,0,8,,,,,,,,4,,,,43,92
66240,note_on,5,0,7,,,,,,,,4,,,,55,92
66240,note_on,5,0,2,,,,,,,,0,,,,71,92
66240,note_on,5,0,16,,,,,,,,8,,,,43,92
66475,note_off,235,0,15,,,,,,,,7,,,,55,64
66475,note_off,235,0,16,,,,,,,,8,,,,43,64
66480,note_off,240,0,8,,,,,,,,4,,,,43,64
66480,note_off,240,0,7,,,,,,,,4,,,,55,64
66480,note_on,0,0,7,,,,,,,,4,,,,57,92
66480,note_off,240,0,22,,,,,,,,15,,,,43,64
66480,note_on,0,0,8,,,,,,,,4,,,,45,92
66480,note_on,5,0,16,,,,,,,,8,,,,45,92
66480,note_on,0,0,22,,,,,,,,15,,,,45,92
66480,note_on,0,0,21,,,,,,,,14,,,,57,92
66480,note_on,5,0,15,,,,,,,,7,,,,57,92
66480,note_off,240,0,21,,,,,,,,14,,,,55,64
66640,note_off,400,0,1,,,,,,,,0,,,,74,64
66640,note_off,400,0,6,,,,,,,,3,,,,71,64
66640,note_off,400,0,5,,,,,,,,3,,,,74,64
66640,note_off,400,0,3,,,,,,,,2,,,,74,64
66640,note_off,400,0,19,,,,,,,,12,,,,71,64
66640,note_off,400,0,4,,,,,,,,2,,,,71,64
66640,note_off,400,0,9,,,,,,,,5,,,,71,64
66640,note_off,400,0,10,,,,,,,,5,,,,67,64
66640,note_off,400,0,2,,,,,,,,0,,,,71,64
66640,note_off,400,0,11,,,,,,,,6,,,,74,64
66640,note_off,400,0,18,,,,,,,,11,,,,74,64
66715,note_off,235,0,15,,,,,,,,7,,,,57,64
66715,note_off,235,0,21,,,,,,,,14,,,,57,64
66715,note_off,235,0,16,,,,,,,,8,,,,45,64
66715,note_off,235,0,8,,,,,,,,4,,,,45,64
66715,note_off,235,0,7,,,,,,,,4,,,,57,64
66715,note_off,235,0,22,,,,,,,,15,,,,45,64
66720,note_on,80,0,3,,,,,,,,2,,,,76,92
66720,note_on,80,0,18,,,,,,,,11,,,,76,108
66720,note_on,5,0,7,,,,,,,,4,,,,55,92
66720,note_on,5,0,21,,,,,,,,14,,,,55,92
66720,note_on,80,0,11,,,,,,,,6,,,,76,92
66720,note_on,5,0,22,,,,,,,,15,,,,43,92
66720,note_on,80,0,2,,,,,,,,0,,,,73,92
66720,note_on,5,0,16,,,,,,,,8,,,,43,92
66720,note_on,5,0,8,,,,,,,,4,,,,43,92
66720,note_on,80,0,9,,,,,,,,5,,,,71,92
66720,note_on,5,0,15,,,,,,,,7,,,,55,92
66720,note_on,80,0,19,,,,,,,,12,,,,73,92
66720,note_on,80,0,10,,,,,,,,5,,,,67,92
66720,note_on,80,0,6,,,,,,,,3,,,,73,92
66720,note_on,80,0,5,,,,,,,,3,,,,76,92
66720,note_on,80,0,4,,,,,,,,2,,,,73,92
66720,note_on,80,0,1,,,,,,,,0,,,,76,92
66880,note_off,640,0,12,,,,,,,,6,,,,71,64
66880,note_off,640,0,13,,,,,,,,7,,,,62,64
66880,note_off,640,0,17,,,,,,,,10,,,,50,64
66880,note_off,640,0,20,,,,,,,,13,,,,67,64
66880,note_off,640,0,14,,,,,,,,7,,,,59,64
66960,note_on,80,0,20,,,,,,,,13,,,,69,92
66960,note_on,80,0,13,,,,,,,,7,,,,62,92
66960,note_on,80,0,12,,,,,,,,6,,,,74,92
66960,note_on,80,0,14,,,,,,,,7,,,,59,92
66960,note_on,80,0,17,,,,,,,,10,,,,50,92
67080,note_on,0,0,22,,,,,,,,15,,,,42,92
67080,note_off,360,0,22,,,,,,,,15,,,,43,64
67080,note_off,360,0,19,,,,,,,,12,,,,73,64
67080,note_on,0,0,19,,,,,,,,12,,,,74,92
67080,note_on,0,0,1,,,,,,,,0,,,,78,92
67080,note_off,360,0,15,,,,,,,,7,,,,55,64
67080,note_off,360,0,3,,,,,,,,2,,,,76,64
67080,note_off,360,0,7,,,,,,,,4,,,,55,64
67080,note_on,0,0,7,,,,,,,,4,,,,54,92
67080,note_on,0,0,3,,,,,,,,2,,,,78,92
67080,note_on,0,0,15,,,,,,,,7,,,,54,92
67080,note_off,360,0,5,,,,,,,,3,,,,76,64
67080,note_on,0,0,5,,,,,,,,3,,,,78,92
67080,note_off,360,0,1,,,,,,,,0,,,,76,64
67080,note_off,360,0,2,,,,,,,,0,,,,73,64
67080,note_on,0,0,2,,,,,,,,0,,,,74,92
67080,note_off,360,0,16,,,,,,,,8,,,,43,64
67080,note_on,0,0,16,,,,,,,,8,,,,42,92
67080,note_on,0,0,4,,,,,,,,2,,,,74,92
67080,note_off,360,0,6,,,,,,,,3,,,,73,64
67080,note_off,360,0,4,,,,,,,,2,,,,73,64
67080,note_on,0,0,21,,,,,,,,14,,,,54,92
67080,note_off,360,0,21,,,,,,,,14,,,,55,64
67080,note_on,0,0,8,,,,,,,,4,,,,42,92
67080,note_off,360,0,8,,,,,,,,4,,,,43,64
67080,note_on,0,0,18,,,,,,,,11,,,,78,108
67080,note_on,0,0,6,,,,,,,,3,,,,74,92
67080,note_off,360,0,11,,,,,,,,6,,,,76,64
67080,note_on,0,0,11,,,,,,,,6,,,,78,92
67080,note_off,360,0,18,,,,,,,,11,,,,76,64
67120,note_off,400,0,9,,,,,,,,5,,,,71,64
67120,note_off,400,0,10,,,,,,,,5,,,,67,64
67195,note_off,115,0,15,,,,,,,,7,,,,54,64
67195,note_off,115,0,18,,,,,,,,11,,,,78,64
67195,note_off,115,0,6,,,,,,,,3,,,,74,64
67195,note_off,235,0,12,,,,,,,,6,,,,74,64
67195,note_off,115,0,1,,,,,,,,0,,,,78,64
67195,note_off,235,0,17,,,,,,,,10,,,,50,64
67195,note_off,115,0,22,,,,,,,,15,,,,42,64
67195,note_off,115,0,3,,,,,,,,2,,,,78,64
67195,note_off,115,0,2,,,,,,,,0,,,,74,64
67195,note_off,235,0,14,,,,,,,,7,,,,59,64
67195,note_off,115,0,7,,,,,,,,4,,,,54,64
67195,note_off,235,0,13,,,,,,,,7,,,,62,64
67195,note_off,115,0,5,,,,,,,,3,,,,78,64
67195,note_off,115,0,21,,,,,,,,14,,,,54,64
67195,note_off,115,0,11,,,,,,,,6,,,,78,64
67195,note_off,115,0,16,,,,,,,,8,,,,42,64
67195,note_off,235,0,20,,,,,,,,13,,,,69,64
67195,note_off,115,0,8,,,,,,,,4,,,,42,64
67195,note_off,115,0,4,,,,,,,,2,,,,74,64
67195,note_off,115,0,19,,,,,,,,12,,,,74,64
67200,note_on,5,0,13,,,,,,,,7,,,,64,92
67200,note_on,5,0,22,,,,,,,,15,,,,40,92
67200,note_on,5,0,14,,,,,,,,7,,,,61,92
67200,note_on,5,0,6,,,,,,,,3,,,,73,92
67200,note_on,5,0,20,,,,,,,,13,,,,67,92
67200,note_on,80,0,10,,,,,,,,5,,,,67,92
67200,note_on,5,0,5,,,,,,,,3,,,,79,92
67200,note_on,80,0,9,,,,,,,,5,,,,73,92
67200,note_on,5,0,3,,,,,,,,2,,,,79,92
67200,note_on,5,0,16,,,,,,,,8,,,,40,92
67200,note_on,5,0,7,,,,,,,,4,,,,52,92
67200,note_on,5,0,18,,,,,,,,11,,,,79,108
67200,note_on,5,0,15,,,,,,,,7,,,,52,92
67200,note_on,5,0,2,,,,,,,,0,,,,73,92
67200,note_on,5,0,1,,,,,,,,0,,,,79,92
67200,note_on,5,0,8,,,,,,,,4,,,,40,92
67200,note_on,5,0,4,,,,,,,,2,,,,73,92
67200,note_on,5,0,12,,,,,,,,6,,,,76,92
67200,note_on,5,0,21,,,,,,,,14,,,,52,92
67200,note_on,5,0,11,,,,,,,,6,,,,79,92
67200,note_on,5,0,19,,,,,,,,12,,,,73,92
67200,note_on,5,0,17,,,,,,,,10,,,,45,92
67440,note_off,240,0,2,,,,,,,,0,,,,73,64
67440,note_off,240,0,19,,,,,,,,12,,,,73,64
67440,note_off,240,0,4,,,,,,,,2,,,,73,64
67440,note_off,240,0,20,,,,,,,,13,,,,67,64
67440,note_on,0,0,20,,,,,,,,13,,,,71,92
67440,note_on,0,0,19,,,,,,,,12,,,,74,92
67440,note_on,0,0,2,,,,,,,,0,,,,74,92
67440,note_on,0,0,4,,,,,,,,2,,,,74,92
67440,note_off,240,0,6,,,,,,,,3,,,,73,64
67440,note_on,0,0,6,,,,,,,,3,,,,74,92
67600,note_off,400,0,13,,,,,,,,7,,,,64,64
67600,note_off,400,0,14,,,,,,,,7,,,,61,64
67600,note_off,400,0,16,,,,,,,,8,,,,40,64
67600,note_off,400,0,21,,,,,,,,14,,,,52,64
67600,note_off,400,0,12,,,,,,,,6,,,,76,64
67600,note_off,400,0,15,,,,,,,,7,,,,52,64
67600,note_off,400,0,10,,,,,,,,5,,,,67,64
67600,note_off,400,0,9,,,,,,,,5,,,,73,64
67600,note_off,400,0,22,,,,,,,,15,,,,40,64
67600,note_off,400,0,7,,,,,,,,4,,,,52,64
67600,note_off,400,0,17,,,,,,,,10,,,,45,64
67600,note_off,400,0,8,,,,,,,,4,,,,40,64
67675,note_off,235,0,20,,,,,,,,13,,,,71,64
67675,note_off,235,0,19,,,,,,,,12,,,,74,64
67680,note_on,80,0,22,,,,,,,,15,,,,49,92
67680,note_on,80,0,21,,,,,,,,14,,,,49,92
67680,note_on,80,0,14,,,,,,,,7,,,,61,92
67680,note_on,80,0,16,,,,,,,,8,,,,49,92
67680,note_off,240,0,6,,,,,,,,3,,,,74,64
67680,note_on,5,0,20,,,,,,,,13,,,,69,92
67680,note_on,80,0,12,,,,,,,,6,,,,76,92
67680,note_on,80,0,8,,,,,,,,4,,,,49,92
67680,note_on,80,0,15,,,,,,,,7,,,,57,92
67680,note_on,0,0,2,,,,,,,,0,,,,76,92
67680,note_on,80,0,9,,,,,,,,5,,,,73,92
67680,note_on,80,0,10,,,,,,,,5,,,,64,92
67680,note_on,80,0,13,,,,,,,,7,,,,64,92
67680,note_on,80,0,7,,,,,,,,4,,,,61,92
67680,note_on,80,0,17,,,,,,,,10,,,,45,92
67680,note_on,5,0,19,,,,,,,,12,,,,76,92
67680,note_off,240,0,4,,,,,,,,2,,,,74,64
67680,note_on,0,0,4,,,,,,,,2,,,,76,92
67680,note_on,0,0,6,,,,,,,,3,,,,76,92
67680,note_off,240,0,2,,,,,,,,0,,,,74,64
67840,note_off,640,0,18,,,,,,,,11,,,,79,64
67920,note_off,720,0,5,,,,,,,,3,,,,79,64
67920,note_on,0,0,5,,,,,,,,3,,,,81,92
67920,note_off,720,0,1,,,,,,,,0,,,,79,64
67920,note_off,720,0,11,,,,,,,,6,,,,79,64
67920,note_on,0,0,11,,,,,,,,6,,,,81,92
67920,note_off,720,0,3,,,,,,,,2,,,,79,64
67920,note_on,80,0,18,,,,,,,,11,,,,81,108
67920,note_on,0,0,1,,,,,,,,0,,,,81,92
67920,note_on,0,0,3,,,,,,,,2,,,,81,92
68080,note_off,400,0,6,,,,,,,,3,,,,76,64
68080,note_off,400,0,19,,,,,,,,12,,,,76,64
68080,note_off,400,0,15,,,,,,,,7,,,,57,64
68080,note_off,400,0,9,,,,,,,,5,,,,73,64
68080,note_off,400,0,20,,,,,,,,13,,,,69,64
68080,note_off,400,0,10,,,,,,,,5,,,,64,64
68080,note_off,400,0,12,,,,,,,,6,,,,76,64
68080,note_off,400,0,21,,,,,,,,14,,,,49,64
68080,note_off,400,0,4,,,,,,,,2,,,,76,64
68080,note_off,400,0,7,,,,,,,,4,,,,61,64
68080,note_off,400,0,16,,,,,,,,8,,,,49,64
68080,note_off,400,0,14,,,,,,,,7,,,,61,64
68080,note_off,400,0,17,,,,,,,,10,,,,45,64
68080,note_off,400,0,2,,,,,,,,0,,,,76,64
68080,note_off,400,0,13,,,,,,,,7,,,,64,64
68080,note_off,400,0,8,,,,,,,,4,,,,49,64
68080,note_off,400,0,22,,,,,,,,15,,,,49,64
68155,note_off,235,0,18,,,,,,,,11,,,,81,64
68155,note_off,235,0,5,,,,,,,,3,,,,81,64
68155,note_off,235,0,3,,,,,,,,2,,,,81,64
68155,note_off,235,0,1,,,,,,,,0,,,,81,64
68155,note_off,235,0,11,,,,,,,,6,,,,81,64
68160,note_on,80,0,22,,,,,,,,15,,,,50,92
68160,note_on,80,0,13,,,,,,,,7,,,,62,92
68160,note_on,5,0,1,,,,,,,,0,,,,78,92
68160,note_on,80,0,12,,,,,,,,6,,,,74,92
68160,note_on,80,0,2,,,,,,,,0,,,,74,92
68160,note_on,80,0,14,,,,,,,,7,,,,57,92
68160,note_on,5,0,11,,,,,,,,6,,,,78,92
68160,note_on,80,0,17,,,,,,,,10,,,,50,92
68160,note_on,80,0,16,,,,,,,,8,,,,50,92
68160,note_on,80,0,8,,,,,,,,4,,,,50,92
68160,note_on,80,0,20,,,,,,,,13,,,,69,92
68160,note_on,80,0,4,,,,,,,,2,,,,74,92
68160,note_on,80,0,15,,,,,,,,7,,,,50,92
68160,note_on,80,0,6,,,,,,,,3,,,,74,92
68160,note_on,5,0,3,,,,,,,,2,,,,78,92
68160,note_on,5,0,5,,,,,,,,3,,,,78,92
68160,note_on,80,0,21,,,,,,,,14,,,,50,92
68160,note_on,80,0,10,,,,,,,,5,,,,66,92
68160,note_on,80,0,7,,,,,,,,4,,,,57,92
68160,note_on,80,0,19,,,,,,,,12,,,,74,92
68160,note_on,5,0,18,,,,,,,,11,,,,78,108
68160,note_on,80,0,9,,,,,,,,5,,,,69,92
68190,note_off,30,0,5,,,,,,,,3,,,,78,64
68190,note_off,30,0,1,,,,,,,,0,,,,78,64
68190,note_off,30,0,3,,,,,,,,2,,,,78,64
68190,note_on,0,0,3,,,,,,,,2,,,,79,92
68190,note_off,30,0,18,,,,,,,,11,,,,78,64
68190,note_on,0,0,1,,,,,,,,0,,,,79,92
68190,note_on,0,0,5,,,,,,,,3,,,,79,92
68190,note_on,0,0,18,,,,,,,,11,,,,79,108
68220,note_on,0,0,3,,,,,,,,2,,,,78,92
68220,note_on,0,0,18,,,,,,,,11,,,,78,108
68220,note_off,30,0,3,,,,,,,,2,,,,79,64
68220,note_on,0,0,5,,,,,,,,3,,,,78,92
68220,note_off,30,0,18,,,,,,,,11,,,,79,64
68220,note_off,30,0,1,,,,,,,,0,,,,79,64
68220,note_off,30,0,5,,,,,,,,3,,,,79,64
68220,note_on,0,0,1,,,,,,,,0,,,,78,92
68250,note_off,30,0,1,,,,,,,,0,,,,78,64
68250,note_on,0,0,1,,,,,,,,0,,,,79,92
68250,note_off,30,0,5,,,,,,,,3,,,,78,64
68250,note_on,0,0,5,,,,,,,,3,,,,79,92
68250,note_off,30,0,3,,,,,,,,2,,,,78,64
68250,note_on,0,0,3,,,,,,,,2,,,,79,92
68250,note_off,30,0,18,,,,,,,,11,,,,78,64
68250,note_on,0,0,18,,,,,,,,11,,,,79,108
68280,note_off,30,0,3,,,,,,,,2,,,,79,64
68280,note_on,0,0,3,,,,,,,,2,,,,78,92
68280,note_on,0,0,5,,,,,,,,3,,,,78,92
68280,note_off,30,0,5,,,,,,,,3,,,,79,64
68280,note_off,30,0,1,,,,,,,,0,,,,79,64
68280,note_on,0,0,1,,,,,,,,0,,,,78,92
68280,note_off,30,0,18,,,,,,,,11,,,,79,64
68280,note_on,0,0,18,,,,,,,,11,,,,78,108
68310,note_off,30,0,3,,,,,,,,2,,,,78,64
68310,note_off,30,0,1,,,,,,,,0,,,,78,64
68310,note_on,0,0,1,,,,,,,,0,,,,79,92
68310,note_on,0,0,3,,,,,,,,2,,,,79,92
68310,note_on,0,0,18,,,,,,,,11,,,,79,108
68310,note_off,30,0,5,,,,,,,,3,,,,78,64
68310,note_on,0,0,5,,,,,,,,3,,,,79,92
68310,note_off,30,0,18,,,,,,,,11,,,,78,64
68340,note_off,30,0,18,,,,,,,,11,,,,79,64
68340,note_on,0,0,3,,,,,,,,2,,,,78,92
68340,note_off,30,0,3,,,,,,,,2,,,,79,64
68340,note_on,0,0,1,,,,,,,,0,,,,78,92
68340,note_on,0,0,18,,,,,,,,11,,,,78,108
68340,note_off,30,0,1,,,,,,,,0,,,,79,64
68340,note_off,30,0,5,,,,,,,,3,,,,79,64
68340,note_on,0,0,5,,,,,,,,3,,,,78,92
68370,note_on,0,0,5,,,,,,,,3,,,,79,92
68370,note_off,30,0,18,,,,,,,,11,,,,78,64
68370,note_on,0,0,3,,,,,,,,2,,,,79,92
68370,note_on,0,0,1,,,,,,,,0,,,,79,92
68370,note_on,0,0,18,,,,,,,,11,,,,79,108
68370,note_off,30,0,3,,,,,,,,2,,,,78,64
68370,note_off,30,0,5,,,,,,,,3,,,,78,64
68370,note_off,30,0,1,,,,,,,,0,,,,78,64
68400,note_off,30,0,5,,,,,,,,3,,,,79,64
68400,note_on,0,0,5,,,,,,,,3,,,,78,92
68400,note_on,0,0,3,,,,,,,,2,,,,78,92
68400,note_on,0,0,18,,,,,,,,11,,,,78,108
68400,note_off,30,0,3,,,,,,,,2,,,,79,64
68400,note_off,30,0,18,,,,,,,,11,,,,79,64
68400,note_off,30,0,1,,,,,,,,0,,,,79,64
68400,note_on,0,0,1,,,,,,,,0,,,,78,92
68430,note_off,30,0,18,,,,,,,,11,,,,78,64
68430,note_on,0,0,5,,,,,,,,3,,,,79,92
68430,note_off,30,0,3,,,,,,,,2,,,,78,64
68430,note_on,0,0,3,,,,,,,,2,,,,79,92
68430,note_off,30,0,1,,,,,,,,0,,,,78,64
68430,note_on,0,0,1,,,,,,,,0,,,,79,92
68430,note_off,30,0,5,,,,,,,,3,,,,78,64
68430,note_on,0,0,18,,,,,,,,11,,,,79,108
68460,note_on,0,0,5,,,,,,,,3,,,,78,92
68460,note_off,30,0,5,,,,,,,,3,,,,79,64
68460,note_on,0,0,18,,,,,,,,11,,,,78,108
68460,note_on,0,0,3,,,,,,,,2,,,,78,92
68460,note_off,30,0,18,,,,,,,,11,,,,79,64
68460,note_off,30,0,3,,,,,,,,2,,,,79,64
68460,note_on,0,0,1,,,,,,,,0,,,,78,92
68460,note_off,30,0,1,,,,,,,,0,,,,79,64
68490,note_on,0,0,5,,,,,,,,3,,,,79,92
68490,note_off,30,0,5,,,,,,,,3,,,,78,64
68490,note_on,0,0,1,,,,,,,,0,,,,79,92
68490,note_on,0,0,18,,,,,,,,11,,,,79,108
68490,note_off,30,0,1,,,,,,,,0,,,,78,64
68490,note_on,0,0,3,,,,,,,,2,,,,79,92
68490,note_off,30,0,3,,,,,,,,2,,,,78,64
68490,note_off,30,0,18,,,,,,,,11,,,,78,64
68520,note_off,30,0,3,,,,,,,,2,,,,79,64
68520,note_off,30,0,18,,,,,,,,11,,,,79,64
68520,note_off,30,0,1,,,,,,,,0,,,,79,64
68520,note_on,0,0,1,,,,,,,,0,,,,78,92
68520,note_off,30,0,5,,,,,,,,3,,,,79,64
68520,note_on,0,0,5,,,,,,,,3,,,,78,92
68520,note_on,0,0,3,,,,,,,,2,,,,78,92
68520,note_on,0,0,18,,,,,,,,11,,,,78,108
68550,note_off,30,0,18,,,,,,,,11,,,,78,64
68550,note_off,30,0,5,,,,,,,,3,,,,78,64
68550,note_on,0,0,5,,,,,,,,3,,,,79,92
68550,note_on,0,0,18,,,,,,,,11,,,,79,108
68550,note_off,30,0,1,,,,,,,,0,,,,78,64
68550,note_off,30,0,3,,,,,,,,2,,,,78,64
68550,note_on,0,0,3,,,,,,,,2,,,,79,92
68550,note_on,0,0,1,,,,,,,,0,,,,79,92
68560,note_off,400,0,22,,,,,,,,15,,,,50,64
68560,note_off,400,0,16,,,,,,,,8,,,,50,64
68560,note_off,400,0,17,,,,,,,,10,,,,50,64
68560,note_off,400,0,13,,,,,,,,7,,,,62,64
68560,note_off,400,0,7,,,,,,,,4,,,,57,64
68560,note_off,400,0,15,,,,,,,,7,,,,50,64
68560,note_off,400,0,20,,,,,,,,13,,,,69,64
68560,note_off,400,0,8,,,,,,,,4,,,,50,64
68560,note_off,400,0,9,,,,,,,,5,,,,69,64
68560,note_off,400,0,21,,,,,,,,14,,,,50,64
68580,note_on,0,0,1,,,,,,,,0,,,,78,92
68580,note_on,0,0,5,,,,,,,,3,,,,78,92
68580,note_off,30,0,18,,,,,,,,11,,,,79,64
68580,note_on,0,0,18,,,,,,,,11,,,,78,108
68580,note_off,30,0,5,,,,,,,,3,,,,79,64
68580,note_on,0,0,3,,,,,,,,2,,,,78,92
68580,note_off,30,0,3,,,,,,,,2,,,,79,64
68580,note_off,30,0,1,,,,,,,,0,,,,79,64
68610,note_on,0,0,18,,,,,,,,11,,,,79,108
68610,note_off,30,0,1,,,,,,,,0,,,,78,64
68610,note_off,30,0,18,,,,,,,,11,,,,78,64
68610,note_on,0,0,5,,,,,,,,3,,,,79,92
68610,note_off,30,0,5,,,,,,,,3,,,,78,64
68610,note_off,30,0,3,,,,,,,,2,,,,78,64
68610,note_on,0,0,1,,,,,,,,0,,,,79,92
68610,note_on,0,0,3,,,,,,,,2,,,,79,92
68640,note_on,80,0,21,,,,,,,,14,,,,38,92
68640,note_off,30,0,1,,,,,,,,0,,,,79,64
68640,note_on,0,0,1,,,,,,,,0,,,,78,92
68640,note_on,0,0,3,,,,,,,,2,,,,78,92
68640,note_on,80,0,9,,,,,,,,5,,,,74,92
68640,note_off,30,0,3,,,,,,,,2,,,,79,64
68640,note_on,80,0,15,,,,,,,,7,,,,50,92
68640,note_on,80,0,7,,,,,,,,4,,,,62,92
68640,note_off,30,0,5,,,,,,,,3,,,,79,64
68640,note_on,0,0,18,,,,,,,,11,,,,78,108
68640,note_off,30,0,18,,,,,,,,11,,,,79,64
68640,note_on,0,0,5,,,,,,,,3,,,,78,92
68640,note_on,80,0,20,,,,,,,,13,,,,69,92
68640,note_on,80,0,17,,,,,,,,10,,,,50,92
68640,note_on,80,0,13,,,,,,,,7,,,,57,92
68640,note_on,80,0,16,,,,,,,,8,,,,38,92
68640,note_on,80,0,8,,,,,,,,4,,,,38,92
68640,note_on,80,0,22,,,,,,,,15,,,,38,92
68670,note_off,30,0,3,,,,,,,,2,,,,78,64
68670,note_off,30,0,5,,,,,,,,3,,,,78,64
68670,note_off,30,0,1,,,,,,,,0,,,,78,64
68670,note_on,0,0,3,,,,,,,,2,,,,79,92
68670,note_off,30,0,18,,,,,,,,11,,,,78,64
68670,note_on,0,0,18,,,,,,,,11,,,,79,108
68670,note_on,0,0,1,,,,,,,,0,,,,79,92
68670,note_on,0,0,5,,,,,,,,3,,,,79,92
68700,note_off,30,0,5,,,,,,,,3,,,,79,64
68700,note_off,30,0,1,,,,,,,,0,,,,79,64
68700,note_on,0,0,18,,,,,,,,11,,,,78,108
68700,note_off,30,0,3,,,,,,,,2,,,,79,64
68700,note_on,0,0,5,,,,,,,,3,,,,78,92
68700,note_on,0,0,1,,,,,,,,0,,,,78,92
68700,note_off,30,0,18,,,,,,,,11,,,,79,64
68700,note_on,0,0,3,,,,,,,,2,,,,78,92
68730,note_off,30,0,1,,,,,,,,0,,,,78,64
68730,note_off,30,0,5,,,,,,,,3,,,,78,64
68730,note_on,0,0,5,,,,,,,,3,,,,79,92
68730,note_on,0,0,1,,,,,,,,0,,,,79,92
68730,note_on,0,0,3,,,,,,,,2,,,,79,92
68730,note_on,0,0,18,,,,,,,,11,,,,79,108
68730,note_off,30,0,18,,,,,,,,11,,,,78,64
68730,note_off,30,0,3,,,,,,,,2,,,,78,64
68760,note_on,0,0,5,,,,,,,,3,,,,78,92
68760,note_off,30,0,5,,,,,,,,3,,,,79,64
68760,note_on,0,0,3,,,,,,,,2,,,,78,92
68760,note_off,30,0,3,,,,,,,,2,,,,79,64
68760,note_on,0,0,18,,,,,,,,11,,,,78,108
68760,note_off,30,0,18,,,,,,,,11,,,,79,64
68760,note_off,30,0,1,,,,,,,,0,,,,79,64
68760,note_on,0,0,1,,,,,,,,0,,,,78,92
68790,note_off,30,0,3,,,,,,,,2,,,,78,64
68790,note_on,0,0,18,,,,,,,,11,,,,79,108
68790,note_off,30,0,18,,,,,,,,11,,,,78,64
68790,note_on,0,0,3,,,,,,,,2,,,,79,92
68790,note_on,0,0,5,,,,,,,,3,,,,79,92
68790,note_off,30,0,1,,,,,,,,0,,,,78,64
68790,note_on,0,0,1,,,,,,,,0,,,,79,92
68790,note_off,30,0,5,,,,,,,,3,,,,78,64
68820,note_off,30,0,18,,,,,,,,11,,,,79,64
68820,note_on,0,0,18,,,,,,,,11,,,,78,108
68820,note_on,0,0,1,,,,,,,,0,,,,78,92
68820,note_off,30,0,1,,,,,,,,0,,,,79,64
68820,note_off,30,0,5,,,,,,,,3,,,,79,64
68820,note_off,30,0,3,,,,,,,,2,,,,79,64
68820,note_on,0,0,5,,,,,,,,3,,,,78,92
68820,note_on,0,0,3,,,,,,,,2,,,,78,92
68850,note_on,0,0,18,,,,,,,,11,,,,79,108
68850,note_on,0,0,1,,,,,,,,0,,,,79,92
68850,note_on,0,0,3,,,,,,,,2,,,,79,92
68850,note_off,30,0,3,,,,,,,,2,,,,78,64
68850,note_on,0,0,5,,,,,,,,3,,,,79,92
68850,note_off,30,0,18,,,,,,,,11,,,,78,64
68850,note_off,30,0,1,,,,,,,,0,,,,78,64
68850,note_off,30,0,5,,,,,,,,3,,,,78,64
68880,note_off,720,0,11,,,,,,,,6,,,,78,64
68880,note_off,30,0,18,,,,,,,,11,,,,79,64
68880,note_on,0,0,5,,,,,,,,3,,,,76,92
68880,note_off,720,0,6,,,,,,,,3,,,,74,64
68880,note_on,0,0,6,,,,,,,,3,,,,73,92
68880,note_on,0,0,18,,,,,,,,11,,,,76,108
68880,note_on,0,0,12,,,,,,,,6,,,,73,92
68880,note_off,720,0,12,,,,,,,,6,,,,74,64
68880,note_off,720,0,19,,,,,,,,12,,,,74,64
68880,note_on,0,0,11,,,,,,,,6,,,,76,92
68880,note_on,0,0,4,,,,,,,,2,,,,73,92
68880,note_off,30,0,5,,,,,,,,3,,,,79,64
68880,note_off,720,0,4,,,,,,,,2,,,,74,64
68880,note_on,0,0,19,,,,,,,,12,,,,73,92
68880,note_off,720,0,10,,,,,,,,5,,,,66,64
68880,note_on,0,0,1,,,,,,,,0,,,,76,92
68880,note_on,0,0,10,,,,,,,,5,,,,64,92
68880,note_on,0,0,2,,,,,,,,0,,,,73,92
68880,note_off,720,0,2,,,,,,,,0,,,,74,64
68880,note_off,720,0,14,,,,,,,,7,,,,57,64
68880,note_on,0,0,3,,,,,,,,2,,,,76,92
68880,note_off,30,0,3,,,,,,,,2,,,,79,64
68880,note_on,0,0,14,,,,,,,,7,,,,52,92
68880,note_off,30,0,1,,,,,,,,0,,,,79,64
69000,note_off,360,0,7,,,,,,,,4,,,,62,64
69000,note_on,0,0,9,,,,,,,,5,,,,73,92
69000,note_on,0,0,7,,,,,,,,4,,,,61,92
69000,note_off,360,0,9,,,,,,,,5,,,,74,64
69040,note_off,400,0,22,,,,,,,,15,,,,38,64
69040,note_off,400,0,16,,,,,,,,8,,,,38,64
69040,note_off,400,0,21,,,,,,,,14,,,,38,64
69040,note_off,400,0,8,,,,,,,,4,,,,38,64
69040,note_off,400,0,13,,,,,,,,7,,,,57,64
69040,note_off,400,0,15,,,,,,,,7,,,,50,64
69040,note_off,400,0,20,,,,,,,,13,,,,69,64
69040,note_off,400,0,17,,,,,,,,10,,,,50,64
69115,note_off,235,0,1,,,,,,,,0,,,,76,64
69115,note_off,235,0,2,,,,,,,,0,,,,73,64
69115,note_off,115,0,9,,,,,,,,5,,,,73,64
69115,note_off,115,0,7,,,,,,,,4,,,,61,64
69115,note_off,235,0,11,,,,,,,,6,,,,76,64
69115,note_off,235,0,10,,,,,,,,5,,,,64,64
69115,note_off,235,0,18,,,,,,,,11,,,,76,64
69115,note_off,235,0,12,,,,,,,,6,,,,73,64
69115,note_off,235,0,14,,,,,,,,7,,,,52,64
69115,note_off,235,0,6,,,,,,,,3,,,,73,64
69115,note_off,235,0,3,,,,,,,,2,,,,76,64
69115,note_off,235,0,4,,,,,,,,2,,,,73,64
69115,note_off,235,0,19,,,,,,,,12,,,,73,64
69115,note_off,235,0,5,,,,,,,,3,,,,76,64
69120,note_on,80,0,15,,,,,,,,7,,,,52,92
69120,note_on,5,0,2,,,,,,,,0,,,,73,92
69120,note_on,5,0,18,,,,,,,,11,,,,76,108
69120,note_on,5,0,1,,,,,,,,0,,,,76,92
69120,note_on,80,0,21,,,,,,,,14,,,,45,92
69120,note_on,80,0,22,,,,,,,,15,,,,45,92
69120,note_on,80,0,20,,,,,,,,13,,,,69,92
69120,note_on,80,0,13,,,,,,,,7,,,,61,92
69120,note_on,5,0,4,,,,,,,,2,,,,73,92
69120,note_on,5,0,19,,,,,,,,12,,,,73,92
69120,note_on,5,0,3,,,,,,,,2,,,,76,92
69120,note_on,80,0,8,,,,,,,,4,,,,45,92
69120,note_on,5,0,6,,,,,,,,3,,,,73,92
69120,note_on,5,0,5,,,,,,,,3,,,,76,92
69120,note_on,5,0,10,,,,,,,,5,,,,64,92
69120,note_on,5,0,11,,,,,,,,6,,,,76,92
69120,note_on,80,0,17,,,,,,,,10,,,,45,92
69120,note_on,5,0,9,,,,,,,,5,,,,73,92
69120,note_on,5,0,14,,,,,,,,7,,,,57,92
69120,note_on,80,0,16,,,,,,,,8,,,,45,92
69120,note_on,5,0,12,,,,,,,,6,,,,73,92
69120,note_on,5,0,7,,,,,,,,4,,,,61,92
69960,note_off,840,0,20,,,,,,,,13,,,,69,64
69960,note_off,840,0,14,,,,,,,,7,,,,57,64
69960,note_off,840,0,13,,,,,,,,7,,,,61,64
69960,note_off,840,0,1,,,,,,,,0,,,,76,64
69960,note_off,840,0,7,,,,,,,,4,,,,61,64
69960,note_off,840,0,16,,,,,,,,8,,,,45,64
69960,note_off,840,0,22,,,,,,,,15,,,,45,64
69960,note_off,840,0,5,,,,,,,,3,,,,76,64
69960,note_off,840,0,8,,,,,,,,4,,,,45,64
69960,note_off,840,0,19,,,,,,,,12,,,,73,64
69960,note_off,840,0,4,,,,,,,,2,,,,73,64
69960,note_off,840,0,9,,,,,,,,5,,,,73,64
69960,note_off,840,0,12,,,,,,,,6,,,,73,64
69960,note_off,840,0,11,,,,,,,,6,,,,76,64
69960,note_off,840,0,17,,,,,,,,10,,,,45,64
69960,note_off,840,0,2,,,,,,,,0,,,,73,64
69960,note_off,840,0,15,,,,,,,,7,,,,52,64
69960,note_off,840,0,18,,,,,,,,11,,,,76,64
69960,note_off,840,0,21,,,,,,,,14,,,,45,64
69960,note_off,840,0,10,,,,,,,,5,,,,64,64
69960,note_off,840,0,3,,,,,,,,2,,,,76,64
69960,note_off,840,0,6,,,,,,,,3,,,,73,64
70080,note_on,120,0,3,,,,,,,,2,,,,69,92
70080,note_on,120,0,18,,,,,,,,11,,,,69,108
70080,note_on,120,0,8,,,,,,,,4,,,,54,92
70080,note_on,120,0,2,,,,,,,,0,,,,62,92
70080,note_on,120,0,17,,,,,,,,10,,,,50,92
70080,note_on,120,0,1,,,,,,,,0,,,,69,92
70080,note_on,120,0,5,,,,,,,,3,,,,69,92
70080,note_on,120,0,12,,,,,,,,6,,,,66,92
70080,note_on,120,0,15,,,,,,,,7,,,,54,92
70080,note_on,120,0,11,,,,,,,,6,,,,69,92
70080,note_on,120,0,21,,,,,,,,14,,,,54,92
70080,note_on,120,0,22,,,,,,,,15,,,,42,92
70080,note_on,120,0,9,,,,,,,,5,,,,69,92
70080,note_on,120,0,20,,,,,,,,13,,,,62,92
70080,note_on,120,0,16,,,,,,,,8,,,,42,92
70080,note_on,120,0,4,,,,,,,,2,,,,62,92
70080,note_on,120,0,13,,,,,,,,7,,,,62,92
70080,note_on,120,0,19,,,,,,,,12,,,,66,92
70080,note_on,120,0,6,,,,,,,,3,,,,62,92
70080,note_on,120,0,14,,,,,,,,7,,,,57,92
70080,note_on,120,0,10,,,,,,,,5,,,,57,92
70080,note_on,120,0,7,,,,,,,,4,,,,54,92
70720,note_off,640,0,19,,,,,,,,12,,,,66,64
70720,note_off,640,0,8,,,,,,,,4,,,,54,64
70720,note_off,640,0,6,,,,,,,,3,,,,62,64
70720,note_off,640,0,7,,,,,,,,4,,,,54,64
70720,note_off,640,0,14,,,,,,,,7,,,,57,64
70720,note_off,640,0,16,,,,,,,,8,,,,42,64
70720,note_off,640,0,5,,,,,,,,3,,,,69,64
70720,note_off,640,0,22,,,,,,,,15,,,,42,64
70720,note_off,640,0,17,,,,,,,,10,,,,50,64
70720,note_off,640,0,20,,,,,,,,13,,,,62,64
70720,note_off,640,0,2,,,,,,,,0,,,,62,64
70720,note_off,640,0,12,,,,,,,,6,,,,66,64
70720,note_off,640,0,13,,,,,,,,7,,,,62,64
70720,note_off,640,0,11,,,,,,,,6,,,,69,64
70720,note_off,640,0,3,,,,,,,,2,,,,69,64
70720,note_off,640,0,4,,,,,,,,2,,,,62,64
70720,note_off,640,0,18,,,,,,,,11,,,,69,64
70720,note_off,640,0,1,,,,,,,,0,,,,69,64
70720,note_off,640,0,10,,,,,,,,5,,,,57,64
70720,note_off,640,0,9,,,,,,,,5,,,,69,64
70720,note_off,640,0,21,,,,,,,,14,,,,54,64
70720,note_off,640,0,15,,,,,,,,7,,,,54,64
70800,note_on,80,0,10,,,,,,,,5,,,,57,92
70800,note_on,80,0,14,,,,,,,,7,,,,57,92
70800,note_on,80,0,19,,,,,,,,12,,,,66,92
70800,note_on,80,0,4,,,,,,,,2,,,,62,92
70800,note_on,80,0,11,,,,,,,,6,,,,69,92
70800,note_on,80,0,6,,,,,,,,3,,,,62,92
70800,note_on,80,0,8,,,,,,,,4,,,,54,92
70800,note_on,80,0,13,,,,,,,,7,,,,62,92
70800,note_on,80,0,12,,,,,,,,6,,,,66,92
70800,note_on,80,0,16,,,,,,,,8,,,,42,92
70800,note_on,80,0,9,,,,,,,,5,,,,69,92
70800,note_on,80,0,15,,,,,,,,7,,,,54,92
70800,note_on,80,0,22,,,,,,,,15,,,,42,92
70800,note_on,80,0,18,,,,,,,,11,,,,69,108
70800,note_on,80,0,5,,,,,,,,3,,,,69,92
70800,note_on,80,0,20,,,,,,,,13,,,,62,92
70800,note_on,80,0,1,,,,,,,,0,,,,69,92
70800,note_on,80,0,2,,,,,,,,0,,,,62,92
70800,note_on,80,0,3,,,,,,,,2,,,,69,92
70800,note_on,80,0,17,,,,,,,,10,,,,50,92
70800,note_on,80,0,7,,,,,,,,4,,,,54,92
70800,note_on,80,0,21,,,,,,,,14,,,,54,92
71035,note_off,235,0,15,,,,,,,,7,,,,54,64
71035,note_off,235,0,4,,,,,,,,2,,,,62,64
71035,note_off,235,0,20,,,,,,,,13,,,,62,64
71035,note_off,235,0,11,,,,,,,,6,,,,69,64
71035,note_off,235,0,13,,,,,,,,7,,,,62,64
71035,note_off,235,0,3,,,,,,,,2,,,,69,64
71035,note_off,235,0,10,,,,,,,,5,,,,57,64
71035,note_off,235,0,9,,,,,,,,5,,,,69,64
71035,note_off,235,0,1,,,,,,,,0,,,,69,64
71035,note_off,235,0,7,,,,,,,,4,,,,54,64
71035,note_off,235,0,5,,,,,,,,3,,,,69,64
71035,note_off,235,0,8,,,,,,,,4,,,,54,64
71035,note_off,235,0,18,,,,,,,,11,,,,69,64
71035,note_off,235,0,19,,,,,,,,12,,,,66,64
71035,note_off,235,0,14,,,,,,,,7,,,,57,64
71035,note_off,235,0,2,,,,,,,,0,,,,62,64
71035,note_off,235,0,16,,,,,,,,8,,,,42,64
71035,note_off,235,0,12,,,,,,,,6,,,,66,64
71035,note_off,235,0,17,,,,,,,,10,,,,50,64
71035,note_off,235,0,6,,,,,,,,3,,,,62,64
71035,note_off,235,0,21,,,,,,,,14,,,,54,64
71035,note_off,235,0,22,,,,,,,,15,,,,42,64
71040,note_on,5,0,7,,,,,,,,4,,,,59,92
71040,note_on,5,0,11,,,,,,,,6,,,,74,92
71040,note_on,5,0,12,,,,,,,,6,,,,66,92
71040,note_on,5,0,14,,,,,,,,7,,,,50,92
71040,note_on,5,0,18,,,,,,,,11,,,,74,108
71040,note_on,5,0,10,,,,,,,,5,,,,62,92
71040,note_on,5,0,16,,,,,,,,8,,,,47,92
71040,note_on,5,0,21,,,,,,,,14,,,,59,92
71040,note_on,5,0,1,,,,,,,,0,,,,74,92
71040,note_on,5,0,22,,,,,,,,15,,,,47,92
71040,note_on,5,0,20,,,,,,,,13,,,,71,92
71040,note_on,5,0,17,,,,,,,,10,,,,50,92
71040,note_on,5,0,6,,,,,,,,3,,,,66,92
71040,note_on,5,0,5,,,,,,,,3,,,,74,92
71040,note_on,5,0,19,,,,,,,,12,,,,69,92
71040,note_on,5,0,13,,,,,,,,7,,,,54,92
71040,note_on,5,0,9,,,,,,,,5,,,,71,92
71040,note_on,5,0,15,,,,,,,,7,,,,59,92
71040,note_on,5,0,8,,,,,,,,4,,,,59,92
71040,note_on,5,0,4,,,,,,,,2,,,,66,92
71040,note_on,5,0,2,,,,,,,,0,,,,66,92
71040,note_on,5,0,3,,,,,,,,2,,,,74,92
71440,note_off,400,0,9,,,,,,,,5,,,,71,64
71440,note_off,400,0,12,,,,,,,,6,,,,66,64
71440,note_off,400,0,6,,,,,,,,3,,,,66,64
71440,note_off,400,0,21,,,,,,,,14,,,,59,64
71440,note_off,400,0,17,,,,,,,,10,,,,50,64
71440,note_off,400,0,13,,,,,,,,7,,,,54,64
71440,note_off,400,0,15,,,,,,,,7,,,,59,64
71440,note_off,400,0,22,,,,,,,,15,,,,47,64
71440,note_off,400,0,14,,,,,,,,7,,,,50,64
71440,note_off,400,0,2,,,,,,,,0,,,,66,64
71440,note_off,400,0,4,,,,,,,,2,,,,66,64
71440,note_off,400,0,7,,,,,,,,4,,,,59,64
71440,note_off,400,0,20,,,,,,,,13,,,,71,64
71440,note_off,400,0,11,,,,,,,,6,,,,74,64
71440,note_off,400,0,19,,,,,,,,12,,,,69,64
71440,note_off,400,0,16,,,,,,,,8,,,,47,64
71440,note_off,400,0,8,,,,,,,,4,,,,59,64
71520,note_on,80,0,4,,,,,,,,2,,,,69,92
71520,note_on,80,0,6,,,,,,,,3,,,,69,92
71520,note_on,80,0,7,,,,,,,,4,,,,54,92
71520,note_on,80,0,21,,,,,,,,14,,,,54,92
71520,note_on,80,0,16,,,,,,,,8,,,,42,92
71520,note_on,80,0,14,,,,,,,,7,,,,57,92
71520,note_on,80,0,8,,,,,,,,4,,,,54,92
71520,note_on,80,0,17,,,,,,,,10,,,,50,92
71520,note_on,80,0,19,,,,,,,,12,,,,69,92
71520,note_on,80,0,11,,,,,,,,6,,,,74,92
71520,note_on,80,0,15,,,,,,,,7,,,,54,92
71520,note_on,80,0,22,,,,,,,,15,,,,42,92
71520,note_on,80,0,12,,,,,,,,6,,,,69,92
71520,note_on,80,0,2,,,,,,,,0,,,,69,92
71520,note_on,80,0,9,,,,,,,,5,,,,69,92
71520,note_on,80,0,20,,,,,,,,13,,,,69,92
71520,note_on,80,0,13,,,,,,,,7,,,,62,92
71680,note_off,640,0,18,,,,,,,,11,,,,74,64
71680,note_off,640,0,5,,,,,,,,3,,,,74,64
71680,note_off,640,0,10,,,,,,,,5,,,,62,64
71680,note_off,640,0,3,,,,,,,,2,,,,74,64
71680,note_off,640,0,1,,,,,,,,0,,,,74,64
71755,note_off,235,0,11,,,,,,,,6,,,,74,64
71760,note_on,80,0,5,,,,,,,,3,,,,74,92
71760,note_on,80,0,3,,,,,,,,2,,,,74,92
71760,note_on,5,0,11,,,,,,,,6,,,,74,92
71760,note_on,80,0,18,,,,,,,,11,,,,74,108
71760,note_on,80,0,1,,,,,,,,0,,,,74,92
71760,note_on,80,0,10,,,,,,,,5,,,,62,92
71875,note_off,115,0,10,,,,,,,,5,,,,62,64
71880,note_off,120,0,3,,,,,,,,2,,,,74,64
71880,note_on,0,0,3,,,,,,,,2,,,,76,92
71880,note_on,0,0,18,,,,,,,,11,,,,76,108
71880,note_off,120,0,18,,,,,,,,11,,,,74,64
71880,note_off,120,0,5,,,,,,,,3,,,,74,64
71880,note_off,120,0,1,,,,,,,,0,,,,74,64
71880,note_on,0,0,1,,,,,,,,0,,,,76,92
71880,note_on,5,0,10,,,,,,,,5,,,,64,92
71880,note_on,0,0,11,,,,,,,,6,,,,76,92
71880,note_off,120,0,11,,,,,,,,6,,,,74,64
71880,note_on,0,0,5,,,,,,,,3,,,,76,92
71920,note_off,400,0,8,,,,,,,,4,,,,54,64
71920,note_off,400,0,7,,,,,,,,4,,,,54,64
71920,note_off,400,0,19,,,,,,,,12,,,,69,64
71920,note_off,400,0,16,,,,,,,,8,,,,42,64
71920,note_off,400,0,20,,,,,,,,13,,,,69,64
71920,note_off,400,0,9,,,,,,,,5,,,,69,64
71920,note_off,400,0,2,,,,,,,,0,,,,69,64
71920,note_off,400,0,22,,,,,,,,15,,,,42,64
71920,note_off,400,0,21,,,,,,,,14,,,,54,64
71920,note_off,400,0,4,,,,,,,,2,,,,69,64
71920,note_off,400,0,17,,,,,,,,10,,,,50,64
71920,note_off,400,0,15,,,,,,,,7,,,,54,64
71920,note_off,400,0,6,,,,,,,,3,,,,69,64
71995,note_off,115,0,5,,,,,,,,3,,,,76,64
71995,note_off,115,0,11,,,,,,,,6,,,,76,64
71995,note_off,115,0,18,,,,,,,,11,,,,76,64
71995,note_off,115,0,10,,,,,,,,5,,,,64,64
71995,note_off,115,0,1,,,,,,,,0,,,,76,64
71995,note_off,115,0,3,,,,,,,,2,,,,76,64
72000,note_on,5,0,5,,,,,,,,3,,,,76,92
72000,note_on,5,0,18,,,,,,,,11,,,,76,108
72000,note_on,5,0,1,,,,,,,,0,,,,76,92
72000,note_on,5,0,10,,,,,,,,5,,,,64,92
72000,note_on,80,0,9,,,,,,,,5,,,,71,92
72000,note_on,80,0,21,,,,,,,,14,,,,55,92
72000,note_on,5,0,11,,,,,,,,6,,,,76,92
72000,note_on,80,0,22,,,,,,,,15,,,,43,92
72000,note_on,80,0,7,,,,,,,,4,,,,55,92
72000,note_on,80,0,17,,,,,,,,10,,,,45,92
72000,note_on,80,0,6,,,,,,,,3,,,,67,92
72000,note_on,80,0,8,,,,,,,,4,,,,55,92
72000,note_on,80,0,4,,,,,,,,2,,,,67,92
72000,note_on,80,0,19,,,,,,,,12,,,,67,92
72000,note_on,80,0,16,,,,,,,,8,,,,43,92
72000,note_on,80,0,20,,,,,,,,13,,,,71,92
72000,note_on,80,0,15,,,,,,,,7,,,,55,92
72000,note_on,80,0,2,,,,,,,,0,,,,67,92
72000,note_on,5,0,3,,,,,,,,2,,,,76,92
72355,note_off,355,0,10,,,,,,,,5,,,,64,64
72355,note_off,355,0,3,,,,,,,,2,,,,76,64
72355,note_off,355,0,1,,,,,,,,0,,,,76,64
72355,note_off,355,0,11,,,,,,,,6,,,,76,64
72355,note_off,355,0,5,,,,,,,,3,,,,76,64
72360,note_off,840,0,14,,,,,,,,7,,,,57,64
72360,note_off,840,0,12,,,,,,,,6,,,,69,64
72360,note_on,5,0,3,,,,,,,,2,,,,76,92
72360,note_on,5,0,11,,,,,,,,6,,,,76,92
72360,note_on,5,0,5,,,,,,,,3,,,,76,92
72360,note_off,840,0,13,,,,,,,,7,,,,62,64
72360,note_on,0,0,18,,,,,,,,11,,,,76,108
72360,note_on,5,0,1,,,,,,,,0,,,,76,92
72360,note_off,360,0,18,,,,,,,,11,,,,76,64
72360,note_on,5,0,10,,,,,,,,5,,,,64,92
72400,note_off,400,0,2,,,,,,,,0,,,,67,64
72400,note_off,400,0,19,,,,,,,,12,,,,67,64
72400,note_off,400,0,4,,,,,,,,2,,,,67,64
72400,note_off,400,0,8,,,,,,,,4,,,,55,64
72400,note_off,400,0,20,,,,,,,,13,,,,71,64
72400,note_off,400,0,9,,,,,,,,5,,,,71,64
72400,note_off,400,0,6,,,,,,,,3,,,,67,64
72400,note_off,400,0,7,,,,,,,,4,,,,55,64
72400,note_off,400,0,22,,,,,,,,15,,,,43,64
72400,note_off,400,0,17,,,,,,,,10,,,,45,64
72400,note_off,400,0,21,,,,,,,,14,,,,55,64
72400,note_off,400,0,15,,,,,,,,7,,,,55,64
72400,note_off,400,0,16,,,,,,,,8,,,,43,64
72475,note_off,115,0,5,,,,,,,,3,,,,76,64
72475,note_off,115,0,1,,,,,,,,0,,,,76,64
72475,note_off,115,0,3,,,,,,,,2,,,,76,64
72475,note_off,115,0,18,,,,,,,,11,,,,76,64
72475,note_off,115,0,10,,,,,,,,5,,,,64,64
72475,note_off,115,0,11,,,,,,,,6,,,,76,64
72480,note_on,80,0,17,,,,,,,,10,,,,45,92
72480,note_on,120,0,13,,,,,,,,7,,,,64,92
72480,note_on,80,0,2,,,,,,,,0,,,,73,92
72480,note_on,80,0,6,,,,,,,,3,,,,73,92
72480,note_on,5,0,5,,,,,,,,3,,,,76,92
72480,note_on,120,0,14,,,,,,,,7,,,,61,92
72480,note_on,80,0,20,,,,,,,,13,,,,69,92
72480,note_on,5,0,18,,,,,,,,11,,,,76,108
72480,note_on,5,0,1,,,,,,,,0,,,,76,92
72480,note_on,80,0,19,,,,,,,,12,,,,73,92
72480,note_on,80,0,9,,,,,,,,5,,,,73,92
72480,note_on,5,0,10,,,,,,,,5,,,,64,92
72480,note_on,80,0,22,,,,,,,,15,,,,45,92
72480,note_on,80,0,21,,,,,,,,14,,,,57,92
72480,note_on,80,0,7,,,,,,,,4,,,,57,92
72480,note_on,5,0,11,,,,,,,,6,,,,76,92
72480,note_on,80,0,4,,,,,,,,2,,,,73,92
72480,note_on,120,0,12,,,,,,,,6,,,,73,92
72480,note_on,80,0,8,,,,,,,,4,,,,57,92
72480,note_on,80,0,15,,,,,,,,7,,,,57,92
72480,note_on,80,0,16,,,,,,,,8,,,,45,92
72480,note_on,5,0,3,,,,,,,,2,,,,76,92
72715,note_off,235,0,3,,,,,,,,2,,,,76,64
72715,note_off,235,0,5,,,,,,,,3,,,,76,64
72715,note_off,235,0,10,,,,,,,,5,,,,64,64
72715,note_off,235,0,1,,,,,,,,0,,,,76,64
72715,note_off,235,0,11,,,,,,,,6,,,,76,64
72720,note_on,5,0,10,,,,,,,,5,,,,66,92
72720,note_on,0,0,18,,,,,,,,11,,,,78,108
72720,note_on,5,0,5,,,,,,,,3,,,,78,92
72720,note_off,240,0,18,,,,,,,,11,,,,76,64
72720,note_on,5,0,3,,,,,,,,2,,,,78,92
72720,note_on,5,0,1,,,,,,,,0,,,,78,92
72720,note_on,5,0,11,,,,,,,,6,,,,78,92
72840,note_on,0,0,11,,,,,,,,6,,,,79,92
72840,note_off,120,0,10,,,,,,,,5,,,,66,64
72840,note_off,120,0,3,,,,,,,,2,,,,78,64
72840,note_off,120,0,11,,,,,,,,6,,,,78,64
72840,note_on,0,0,3,,,,,,,,2,,,,79,92
72840,note_off,120,0,1,,,,,,,,0,,,,78,64
72840,note_on,0,0,18,,,,,,,,11,,,,79,108
72840,note_off,120,0,5,,,,,,,,3,,,,78,64
72840,note_on,0,0,5,,,,,,,,3,,,,79,92
72840,note_off,120,0,18,,,,,,,,11,,,,78,64
72840,note_on,0,0,10,,,,,,,,5,,,,67,92
72840,note_on,0,0,1,,,,,,,,0,,,,79,92
72880,note_off,400,0,19,,,,,,,,12,,,,73,64
72880,note_off,400,0,14,,,,,,,,7,,,,61,64
72880,note_off,400,0,9,,,,,,,,5,,,,73,64
72880,note_off,400,0,17,,,,,,,,10,,,,45,64
72880,note_off,400,0,2,,,,,,,,0,,,,73,64
72880,note_off,400,0,22,,,,,,,,15,,,,45,64
72880,note_off,400,0,4,,,,,,,,2,,,,73,64
72880,note_off,400,0,12,,,,,,,,6,,,,73,64
72880,note_off,400,0,7,,,,,,,,4,,,,57,64
72880,note_off,400,0,8,,,,,,,,4,,,,57,64
72880,note_off,400,0,15,,,,,,,,7,,,,57,64
72880,note_off,400,0,16,,,,,,,,8,,,,45,64
72880,note_off,400,0,20,,,,,,,,13,,,,69,64
72880,note_off,400,0,21,,,,,,,,14,,,,57,64
72880,note_off,400,0,13,,,,,,,,7,,,,64,64
72880,note_off,400,0,6,,,,,,,,3,,,,73,64
72955,note_off,115,0,11,,,,,,,,6,,,,79,64
72955,note_off,115,0,10,,,,,,,,5,,,,67,64
72955,note_off,115,0,3,,,,,,,,2,,,,79,64
72955,note_off,115,0,18,,,,,,,,11,,,,79,64
72955,note_off,115,0,1,,,,,,,,0,,,,79,64
72955,note_off,115,0,5,,,,,,,,3,,,,79,64
72960,note_on,80,0,4,,,,,,,,2,,,,74,92
72960,note_on,80,0,6,,,,,,,,3,,,,74,92
72960,note_on,80,0,14,,,,,,,,7,,,,50,92
72960,note_on,5,0,5,,,,,,,,3,,,,78,92
72960,note_on,80,0,21,,,,,,,,14,,,,50,92
72960,note_on,80,0,2,,,,,,,,0,,,,74,92
72960,note_on,80,0,13,,,,,,,,7,,,,57,92
72960,note_on,5,0,1,,,,,,,,0,,,,78,92
72960,note_on,80,0,15,,,,,,,,7,,,,50,92
72960,note_on,5,0,10,,,,,,,,5,,,,66,92
72960,note_on,80,0,22,,,,,,,,15,,,,38,92
72960,note_on,5,0,11,,,,,,,,6,,,,78,92
72960,note_on,80,0,20,,,,,,,,13,,,,69,92
72960,note_on,5,0,18,,,,,,,,11,,,,78,108
72960,note_on,80,0,16,,,,,,,,8,,,,38,92
72960,note_on,80,0,8,,,,,,,,4,,,,50,92
72960,note_on,80,0,19,,,,,,,,12,,,,74,92
72960,note_on,80,0,9,,,,,,,,5,,,,74,92
72960,note_on,80,0,7,,,,,,,,4,,,,50,92
72960,note_on,80,0,12,,,,,,,,6,,,,69,92
72960,note_on,5,0,3,,,,,,,,2,,,,78,92
72960,note_on,80,0,17,,,,,,,,10,,,,50,92
73360,note_off,400,0,20,,,,,,,,13,,,,69,64
73360,note_off,400,0,10,,,,,,,,5,,,,66,64
73360,note_off,400,0,1,,,,,,,,0,,,,78,64
73360,note_off,400,0,4,,,,,,,,2,,,,74,64
73360,note_off,400,0,6,,,,,,,,3,,,,74,64
73360,note_off,400,0,12,,,,,,,,6,,,,69,64
73360,note_off,400,0,18,,,,,,,,11,,,,78,64
73360,note_off,400,0,2,,,,,,,,0,,,,74,64
73360,note_off,400,0,9,,,,,,,,5,,,,74,64
73360,note_off,400,0,19,,,,,,,,12,,,,74,64
73360,note_off,400,0,11,,,,,,,,6,,,,78,64
73360,note_off,400,0,13,,,,,,,,7,,,,57,64
73360,note_off,400,0,3,,,,,,,,2,,,,78,64
73360,note_off,400,0,14,,,,,,,,7,,,,50,64
73360,note_off,400,0,5,,,,,,,,3,,,,78,64
73440,note_on,80,0,18,,,,,,,,11,,,,76,108
73440,note_on,80,0,9,,,,,,,,5,,,,69,92
73440,note_on,80,0,14,,,,,,,,7,,,,57,92
73440,note_on,80,0,12,,,,,,,,6,,,,66,92
73440,note_on,80,0,19,,,,,,,,12,,,,66,92
73440,note_on,80,0,10,,,,,,,,5,,,,64,92
73440,note_on,80,0,6,,,,,,,,3,,,,66,92
73440,note_on,80,0,3,,,,,,,,2,,,,76,92
73440,note_on,80,0,2,,,,,,,,0,,,,66,92
73440,note_on,80,0,20,,,,,,,,13,,,,69,92
73440,note_on,80,0,4,,,,,,,,2,,,,66,92
73440,note_on,80,0,1,,,,,,,,0,,,,76,92
73440,note_on,80,0,13,,,,,,,,7,,,,54,92
73440,note_on,80,0,5,,,,,,,,3,,,,76,92
73440,note_on,80,0,11,,,,,,,,6,,,,76,92
73800,note_off,840,0,17,,,,,,,,10,,,,50,64
73800,note_off,840,0,8,,,,,,,,4,,,,50,64
73800,note_off,840,0,21,,,,,,,,14,,,,50,64
73800,note_off,360,0,11,,,,,,,,6,,,,76,64
73800,note_off,840,0,15,,,,,,,,7,,,,50,64
73800,note_off,840,0,22,,,,,,,,15,,,,38,64
73800,note_off,360,0,3,,,,,,,,2,,,,76,64
73800,note_on,0,0,3,,,,,,,,2,,,,74,92
73800,note_off,840,0,7,,,,,,,,4,,,,50,64
73800,note_on,0,0,11,,,,,,,,6,,,,74,92
73800,note_off,840,0,16,,,,,,,,8,,,,38,64
73800,note_on,0,0,18,,,,,,,,11,,,,74,108
73800,note_off,360,0,5,,,,,,,,3,,,,76,64
73800,note_off,360,0,1,,,,,,,,0,,,,76,64
73800,note_off,360,0,10,,,,,,,,5,,,,64,64
73800,note_off,360,0,18,,,,,,,,11,,,,76,64
73800,note_on,0,0,1,,,,,,,,0,,,,74,92
73800,note_on,0,0,10,,,,,,,,5,,,,62,92
73800,note_on,0,0,5,,,,,,,,3,,,,74,92
73840,note_off,400,0,13,,,,,,,,7,,,,54,64
73840,note_off,400,0,9,,,,,,,,5,,,,69,64
73840,note_off,400,0,12,,,,,,,,6,,,,66,64
73840,note_off,400,0,6,,,,,,,,3,,,,66,64
73840,note_off,400,0,20,,,,,,,,13,,,,69,64
73840,note_off,400,0,2,,,,,,,,0,,,,66,64
73840,note_off,400,0,19,,,,,,,,12,,,,66,64
73840,note_off,400,0,4,,,,,,,,2,,,,66,64
73840,note_off,400,0,14,,,,,,,,7,,,,57,64
73915,note_off,115,0,5,,,,,,,,3,,,,74,64
73915,note_off,115,0,10,,,,,,,,5,,,,62,64
73915,note_off,115,0,3,,,,,,,,2,,,,74,64
73915,note_off,115,0,18,,,,,,,,11,,,,74,64
73915,note_off,115,0,11,,,,,,,,6,,,,74,64
73915,note_off,115,0,1,,,,,,,,0,,,,74,64
73920,note_on,80,0,20,,,,,,,,13,,,,78,92
73920,note_on,5,0,5,,,,,,,,3,,,,81,92
73920,note_on,120,0,15,,,,,,,,7,,,,54,92
73920,note_on,120,0,22,,,,,,,,15,,,,42,92
73920,note_on,120,0,16,,,,,,,,8,,,,42,92
73920,note_on,120,0,7,,,,,,,,4,,,,54,92
73920,note_on,120,0,8,,,,,,,,4,,,,54,92
73920,note_on,80,0,6,,,,,,,,3,,,,73,92
73920,note_on,80,0,13,,,,,,,,7,,,,66,92
73920,note_on,120,0,17,,,,,,,,10,,,,50,92
73920,note_on,5,0,10,,,,,,,,5,,,,69,92
73920,note_on,5,0,1,,,,,,,,0,,,,81,92
73920,note_on,80,0,9,,,,,,,,5,,,,73,92
73920,note_on,80,0,12,,,,,,,,6,,,,78,92
73920,note_on,120,0,21,,,,,,,,14,,,,54,92
73920,note_on,5,0,3,,,,,,,,2,,,,81,92
73920,note_on,80,0,4,,,,,,,,2,,,,73,92
73920,note_on,80,0,19,,,,,,,,12,,,,73,92
73920,note_on,80,0,2,,,,,,,,0,,,,73,92
73920,note_on,80,0,14,,,,,,,,7,,,,57,92
73920,note_on,5,0,18,,,,,,,,11,,,,81,108
73920,note_on,5,0,11,,,,,,,,6,,,,81,92
74320,note_off,400,0,16,,,,,,,,8,,,,42,64
74320,note_off,400,0,21,,,,,,,,14,,,,54,64
74320,note_off,400,0,17,,,,,,,,10,,,,50,64
74320,note_off,400,0,22,,,,,,,,15,,,,42,64
74320,note_off,400,0,7,,,,,,,,4,,,,54,64
74320,note_off,400,0,15,,,,,,,,7,,,,54,64
74320,note_off,400,0,8,,,,,,,,4,,,,54,64
74400,note_on,80,0,21,,,,,,,,14,,,,55,92
74400,note_on,80,0,8,,,,,,,,4,,,,55,92
74400,note_on,80,0,17,,,,,,,,10,,,,45,92
74400,note_on,80,0,16,,,,,,,,8,,,,43,92
74400,note_on,80,0,15,,,,,,,,7,,,,55,92
74400,note_on,80,0,22,,,,,,,,15,,,,43,92
74400,note_on,80,0,7,,,,,,,,4,,,,55,92
74560,note_off,640,0,9,,,,,,,,5,,,,73,64
74560,note_off,640,0,14,,,,,,,,7,,,,57,64
74560,note_off,640,0,6,,,,,,,,3,,,,73,64
74560,note_off,640,0,2,,,,,,,,0,,,,73,64
74560,note_off,640,0,11,,,,,,,,6,,,,81,64
74560,note_off,640,0,18,,,,,,,,11,,,,81,64
74560,note_off,640,0,4,,,,,,,,2,,,,73,64
74560,note_off,640,0,20,,,,,,,,13,,,,78,64
74560,note_off,640,0,3,,,,,,,,2,,,,81,64
74560,note_off,640,0,5,,,,,,,,3,,,,81,64
74560,note_off,640,0,12,,,,,,,,6,,,,78,64
74560,note_off,640,0,19,,,,,,,,12,,,,73,64
74560,note_off,640,0,1,,,,,,,,0,,,,81,64
74560,note_off,640,0,13,,,,,,,,7,,,,66,64
74560,note_off,640,0,10,,,,,,,,5,,,,69,64
74640,note_on,80,0,3,,,,,,,,2,,,,81,92
74640,note_off,240,0,22,,,,,,,,15,,,,43,64
74640,note_on,80,0,18,,,,,,,,11,,,,81,108
74640,note_on,0,0,22,,,,,,,,15,,,,45,92
74640,note_on,0,0,15,,,,,,,,7,,,,57,92
74640,note_off,240,0,15,,,,,,,,7,,,,55,64
74640,note_on,80,0,2,,,,,,,,0,,,,73,92
74640,note_on,80,0,5,,,,,,,,3,,,,81,92
74640,note_on,80,0,13,,,,,,,,7,,,,66,92
74640,note_on,80,0,14,,,,,,,,7,,,,57,92
74640,note_on,80,0,9,,,,,,,,5,,,,73,92
74640,note_on,80,0,19,,,,,,,,12,,,,73,92
74640,note_on,80,0,4,,,,,,,,2,,,,73,92
74640,note_on,80,0,20,,,,,,,,13,,,,78,92
74640,note_on,0,0,16,,,,,,,,8,,,,45,92
74640,note_on,80,0,11,,,,,,,,6,,,,81,92
74640,note_off,240,0,16,,,,,,,,8,,,,43,64
74640,note_on,80,0,1,,,,,,,,0,,,,81,92
74640,note_on,0,0,8,,,,,,,,4,,,,57,92
74640,note_off,240,0,8,,,,,,,,4,,,,55,64
74640,note_on,80,0,12,,,,,,,,6,,,,78,92
74640,note_on,80,0,6,,,,,,,,3,,,,73,92
74640,note_on,80,0,10,,,,,,,,5,,,,69,92
74640,note_on,0,0,7,,,,,,,,4,,,,57,92
74640,note_on,0,0,21,,,,,,,,14,,,,57,92
74640,note_off,240,0,7,,,,,,,,4,,,,55,64
74640,note_off,240,0,21,,,,,,,,14,,,,55,64
74800,note_off,400,0,17,,,,,,,,10,,,,45,64
74875,note_off,235,0,16,,,,,,,,8,,,,45,64
74875,note_off,235,0,10,,,,,,,,5,,,,69,64
74875,note_off,235,0,18,,,,,,,,11,,,,81,64
74875,note_off,235,0,7,,,,,,,,4,,,,57,64
74875,note_off,235,0,22,,,,,,,,15,,,,45,64
74875,note_off,235,0,12,,,,,,,,6,,,,78,64
74875,note_off,235,0,3,,,,,,,,2,,,,81,64
74875,note_off,235,0,8,,,,,,,,4,,,,57,64
74875,note_off,235,0,1,,,,,,,,0,,,,81,64
74875,note_off,235,0,11,,,,,,,,6,,,,81,64
74875,note_off,235,0,5,,,,,,,,3,,,,81,64
74875,note_off,235,0,19,,,,,,,,12,,,,73,64
74875,note_off,235,0,15,,,,,,,,7,,,,57,64
74875,note_off,235,0,14,,,,,,,,7,,,,57,64
74875,note_off,235,0,20,,,,,,,,13,,,,78,64
74875,note_off,235,0,6,,,,,,,,3,,,,73,64
74875,note_off,235,0,21,,,,,,,,14,,,,57,64
74875,note_off,235,0,13,,,,,,,,7,,,,66,64
74875,note_off,235,0,2,,,,,,,,0,,,,73,64
74875,note_off,235,0,4,,,,,,,,2,,,,73,64
74875,note_off,235,0,9,,,,,,,,5,,,,73,64
74880,note_on,5,0,12,,,,,,,,6,,,,78,92
74880,note_on,5,0,2,,,,,,,,0,,,,74,92
74880,note_on,5,0,3,,,,,,,,2,,,,81,92
74880,note_on,5,0,14,,,,,,,,7,,,,50,92
74880,note_on,5,0,6,,,,,,,,3,,,,74,92
74880,note_on,5,0,18,,,,,,,,11,,,,81,108
74880,note_on,5,0,19,,,,,,,,12,,,,74,92
74880,note_on,5,0,4,,,,,,,,2,,,,74,92
74880,note_on,5,0,1,,,,,,,,0,,,,81,92
74880,note_on,5,0,5,,,,,,,,3,,,,81,92
74880,note_on,5,0,9,,,,,,,,5,,,,74,92
74880,note_on,5,0,7,,,,,,,,4,,,,59,92
74880,note_on,5,0,13,,,,,,,,7,,,,66,92
74880,note_on,5,0,8,,,,,,,,4,,,,59,92
74880,note_on,5,0,21,,,,,,,,14,,,,59,92
74880,note_on,80,0,17,,,,,,,,10,,,,50,92
74880,note_on,5,0,15,,,,,,,,7,,,,59,92
74880,note_on,5,0,16,,,,,,,,8,,,,47,92
74880,note_on,5,0,11,,,,,,,,6,,,,81,92
74880,note_on,5,0,10,,,,,,,,5,,,,69,92
74880,note_on,5,0,22,,,,,,,,15,,,,47,92
74880,note_on,5,0,20,,,,,,,,13,,,,78,92
75280,note_off,400,0,18,,,,,,,,11,,,,81,64
75280,note_off,400,0,8,,,,,,,,4,,,,59,64
75280,note_off,400,0,10,,,,,,,,5,,,,69,64
75280,note_off,400,0,5,,,,,,,,3,,,,81,64
75280,note_off,400,0,11,,,,,,,,6,,,,81,64
75280,note_off,400,0,3,,,,,,,,2,,,,81,64
75280,note_off,400,0,12,,,,,,,,6,,,,78,64
75280,note_off,400,0,14,,,,,,,,7,,,,50,64
75280,note_off,400,0,13,,,,,,,,7,,,,66,64
75280,note_off,400,0,1,,,,,,,,0,,,,81,64
75280,note_off,400,0,17,,,,,,,,10,,,,50,64
75360,note_on,80,0,13,,,,,,,,7,,,,62,92
75360,note_on,80,0,8,,,,,,,,4,,,,47,92
75360,note_on,80,0,10,,,,,,,,5,,,,66,92
75360,note_on,80,0,1,,,,,,,,0,,,,78,92
75360,note_on,80,0,18,,,,,,,,11,,,,78,108
75360,note_on,80,0,3,,,,,,,,2,,,,78,92
75360,note_on,80,0,14,,,,,,,,7,,,,54,92
75360,note_on,80,0,17,,,,,,,,10,,,,50,92
75360,note_on,80,0,5,,,,,,,,3,,,,78,92
75360,note_on,80,0,12,,,,,,,,6,,,,66,92
75360,note_on,80,0,11,,,,,,,,6,,,,78,92
75520,note_off,640,0,7,,,,,,,,4,,,,59,64
75520,note_off,640,0,22,,,,,,,,15,,,,47,64
75520,note_off,640,0,15,,,,,,,,7,,,,59,64
75520,note_off,640,0,16,,,,,,,,8,,,,47,64
75520,note_off,640,0,21,,,,,,,,14,,,,59,64
75600,note_off,240,0,5,,,,,,,,3,,,,78,64
75600,note_on,0,0,5,,,,,,,,3,,,,74,92
75600,note_on,80,0,22,,,,,,,,15,,,,47,92
75600,note_on,80,0,15,,,,,,,,7,,,,59,92
75600,note_on,80,0,7,,,,,,,,4,,,,59,92
75600,note_on,0,0,3,,,,,,,,2,,,,74,92
75600,note_off,240,0,3,,,,,,,,2,,,,78,64
75600,note_on,0,0,18,,,,,,,,11,,,,74,108
75600,note_off,240,0,18,,,,,,,,11,,,,78,64
75600,note_off,240,0,1,,,,,,,,0,,,,78,64
75600,note_on,0,0,1,,,,,,,,0,,,,74,92
75600,note_on,80,0,16,,,,,,,,8,,,,47,92
75600,note_off,240,0,11,,,,,,,,6,,,,78,64
75600,note_on,0,0,11,,,,,,,,6,,,,74,92
75600,note_off,240,0,10,,,,,,,,5,,,,66,64
75600,note_on,0,0,10,,,,,,,,5,,,,62,92
75600,note_on,80,0,21,,,,,,,,14,,,,59,92
75720,note_off,840,0,9,,,,,,,,5,,,,74,64
75720,note_off,840,0,2,,,,,,,,0,,,,74,64
75720,note_off,840,0,20,,,,,,,,13,,,,78,64
75720,note_off,840,0,19,,,,,,,,12,,,,74,64
75720,note_off,840,0,6,,,,,,,,3,,,,74,64
75720,note_off,840,0,4,,,,,,,,2,,,,74,64
75760,note_off,400,0,12,,,,,,,,6,,,,66,64
75760,note_off,400,0,17,,,,,,,,10,,,,50,64
75760,note_off,400,0,14,,,,,,,,7,,,,54,64
75760,note_off,400,0,8,,,,,,,,4,,,,47,64
75760,note_off,400,0,13,,,,,,,,7,,,,62,64
75835,note_off,235,0,1,,,,,,,,0,,,,74,64
75835,note_off,235,0,3,,,,,,,,2,,,,74,64
75835,note_off,235,0,11,,,,,,,,6,,,,74,64
75835,note_off,235,0,21,,,,,,,,14,,,,59,64
75835,note_off,235,0,5,,,,,,,,3,,,,74,64
75835,note_off,235,0,22,,,,,,,,15,,,,47,64
75835,note_off,235,0,15,,,,,,,,7,,,,59,64
75835,note_off,235,0,7,,,,,,,,4,,,,59,64
75835,note_off,235,0,10,,,,,,,,5,,,,62,64
75835,note_off,235,0,18,,,,,,,,11,,,,74,64
75835,note_off,235,0,16,,,,,,,,8,,,,47,64
75840,note_on,120,0,6,,,,,,,,3,,,,74,92
75840,note_on,5,0,21,,,,,,,,14,,,,59,92
75840,note_on,5,0,15,,,,,,,,7,,,,59,92
75840,note_on,5,0,18,,,,,,,,11,,,,79,108
75840,note_on,5,0,11,,,,,,,,6,,,,79,92
75840,note_on,80,0,8,,,,,,,,4,,,,47,92
75840,note_on,5,0,16,,,,,,,,8,,,,47,92
75840,note_on,120,0,4,,,,,,,,2,,,,74,92
75840,note_on,120,0,2,,,,,,,,0,,,,74,92
75840,note_on,5,0,10,,,,,,,,5,,,,67,92
75840,note_on,80,0,17,,,,,,,,10,,,,50,92
75840,note_on,5,0,1,,,,,,,,0,,,,79,92
75840,note_on,5,0,3,,,,,,,,2,,,,79,92
75840,note_on,120,0,20,,,,,,,,13,,,,71,92
75840,note_on,120,0,19,,,,,,,,12,,,,74,92
75840,note_on,5,0,7,,,,,,,,4,,,,59,92
75840,note_on,120,0,9,,,,,,,,5,,,,71,92
75840,note_on,80,0,12,,,,,,,,6,,,,74,92
75840,note_on,80,0,13,,,,,,,,7,,,,62,92
75840,note_on,5,0,5,,,,,,,,3,,,,79,92
75840,note_on,5,0,22,,,,,,,,15,,,,47,92
75840,note_on,80,0,14,,,,,,,,7,,,,50,92
76240,note_off,400,0,16,,,,,,,,8,,,,47,64
76240,note_off,400,0,4,,,,,,,,2,,,,74,64
76240,note_off,400,0,12,,,,,,,,6,,,,74,64
76240,note_off,400,0,2,,,,,,,,0,,,,74,64
76240,note_off,400,0,8,,,,,,,,4,,,,47,64
76240,note_off,400,0,13,,,,,,,,7,,,,62,64
76240,note_off,400,0,19,,,,,,,,12,,,,74,64
76240,note_off,400,0,22,,,,,,,,15,,,,47,64
76240,note_off,400,0,21,,,,,,,,14,,,,59,64
76240,note_off,400,0,6,,,,,,,,3,,,,74,64
76240,note_off,400,0,7,,,,,,,,4,,,,59,64
76240,note_off,400,0,15,,,,,,,,7,,,,59,64
76320,note_on,80,0,21,,,,,,,,14,,,,55,92
76320,note_on,80,0,6,,,,,,,,3,,,,76,92
76320,note_on,80,0,13,,,,,,,,7,,,,64,92
76320,note_on,80,0,12,,,,,,,,6,,,,76,92
76320,note_on,80,0,8,,,,,,,,4,,,,43,92
76320,note_on,80,0,22,,,,,,,,15,,,,43,92
76320,note_on,80,0,19,,,,,,,,12,,,,76,92
76320,note_on,80,0,4,,,,,,,,2,,,,76,92
76320,note_on,80,0,7,,,,,,,,4,,,,55,92
76320,note_on,80,0,16,,,,,,,,8,,,,43,92
76320,note_on,80,0,2,,,,,,,,0,,,,76,92
76320,note_on,80,0,15,,,,,,,,7,,,,55,92
76480,note_off,640,0,11,,,,,,,,6,,,,79,64
76480,note_off,640,0,9,,,,,,,,5,,,,71,64
76480,note_off,640,0,14,,,,,,,,7,,,,50,64
76480,note_off,640,0,1,,,,,,,,0,,,,79,64
76480,note_off,640,0,5,,,,,,,,3,,,,79,64
76480,note_off,640,0,20,,,,,,,,13,,,,71,64
76480,note_off,640,0,17,,,,,,,,10,,,,50,64
76480,note_off,640,0,18,,,,,,,,11,,,,79,64
76480,note_off,640,0,10,,,,,,,,5,,,,67,64
76480,note_off,640,0,3,,,,,,,,2,,,,79,64
76560,note_off,240,0,2,,,,,,,,0,,,,76,64
76560,note_on,0,0,2,,,,,,,,0,,,,71,92
76560,note_off,240,0,16,,,,,,,,8,,,,43,64
76560,note_on,0,0,16,,,,,,,,8,,,,40,92
76560,note_on,80,0,17,,,,,,,,10,,,,50,92
76560,note_off,240,0,4,,,,,,,,2,,,,76,64
76560,note_on,80,0,20,,,,,,,,13,,,,64,92
76560,note_on,0,0,4,,,,,,,,2,,,,71,92
76560,note_on,80,0,11,,,,,,,,6,,,,79,92
76560,note_off,240,0,6,,,,,,,,3,,,,76,64
76560,note_on,80,0,9,,,,,,,,5,,,,71,92
76560,note_off,240,0,21,,,,,,,,14,,,,55,64
76560,note_on,0,0,21,,,,,,,,14,,,,52,92
76560,note_on,80,0,10,,,,,,,,5,,,,67,92
76560,note_on,80,0,1,,,,,,,,0,,,,79,92
76560,note_on,80,0,18,,,,,,,,11,,,,79,108
76560,note_on,0,0,22,,,,,,,,15,,,,40,92
76560,note_on,0,0,19,,,,,,,,12,,,,71,92
76560,note_off,240,0,19,,,,,,,,12,,,,76,64
76560,note_on,0,0,15,,,,,,,,7,,,,52,92
76560,note_on,80,0,5,,,,,,,,3,,,,79,92
76560,note_on,80,0,3,,,,,,,,2,,,,79,92
76560,note_off,240,0,22,,,,,,,,15,,,,43,64
76560,note_on,0,0,6,,,,,,,,3,,,,71,92
76560,note_off,240,0,15,,,,,,,,7,,,,55,64
76560,note_on,80,0,14,,,,,,,,7,,,,50,92
76680,note_off,360,0,8,,,,,,,,4,,,,43,64
76680,note_on,0,0,7,,,,,,,,4,,,,52,92
76680,note_on,0,0,8,,,,,,,,4,,,,40,92
76680,note_off,360,0,7,,,,,,,,4,,,,55,64
76720,note_off,400,0,12,,,,,,,,6,,,,76,64
76720,note_off,400,0,13,,,,,,,,7,,,,64,64
76795,note_off,235,0,14,,,,,,,,7,,,,50,64
76795,note_off,235,0,6,,,,,,,,3,,,,71,64
76795,note_off,235,0,2,,,,,,,,0,,,,71,64
76795,note_off,235,0,16,,,,,,,,8,,,,40,64
76795,note_off,115,0,8,,,,,,,,4,,,,40,64
76795,note_off,235,0,11,,,,,,,,6,,,,79,64
76795,note_off,235,0,19,,,,,,,,12,,,,71,64
76795,note_off,235,0,5,,,,,,,,3,,,,79,64
76795,note_off,235,0,15,,,,,,,,7,,,,52,64
76795,note_off,235,0,20,,,,,,,,13,,,,64,64
76795,note_off,235,0,9,,,,,,,,5,,,,71,64
76795,note_off,235,0,18,,,,,,,,11,,,,79,64
76795,note_off,235,0,1,,,,,,,,0,,,,79,64
76795,note_off,235,0,10,,,,,,,,5,,,,67,64
76795,note_off,235,0,17,,,,,,,,10,,,,50,64
76795,note_off,115,0,7,,,,,,,,4,,,,52,64
76795,note_off,235,0,21,,,,,,,,14,,,,52,64
76795,note_off,235,0,22,,,,,,,,15,,,,40,64
76795,note_off,235,0,4,,,,,,,,2,,,,71,64
76795,note_off,235,0,3,,,,,,,,2,,,,79,64
76800,note_on,5,0,19,,,,,,,,12,,,,73,92
76800,note_on,5,0,18,,,,,,,,11,,,,79,108
76800,note_on,5,0,11,,,,,,,,6,,,,79,92
76800,note_on,5,0,3,,,,,,,,2,,,,79,92
76800,note_on,80,0,13,,,,,,,,7,,,,64,92
76800,note_on,5,0,7,,,,,,,,4,,,,57,92
76800,note_on,5,0,8,,,,,,,,4,,,,45,92
76800,note_on,5,0,14,,,,,,,,7,,,,61,92
76800,note_on,5,0,21,,,,,,,,14,,,,45,92
76800,note_on,5,0,22,,,,,,,,15,,,,45,92
76800,note_on,5,0,5,,,,,,,,3,,,,79,92
76800,note_on,5,0,6,,,,,,,,3,,,,73,92
76800,note_on,5,0,10,,,,,,,,5,,,,67,92
76800,note_on,5,0,9,,,,,,,,5,,,,73,92
76800,note_on,5,0,1,,,,,,,,0,,,,79,92
76800,note_on,80,0,12,,,,,,,,6,,,,76,92
76800,note_on,5,0,15,,,,,,,,7,,,,55,92
76800,note_on,5,0,20,,,,,,,,13,,,,76,92
76800,note_on,5,0,16,,,,,,,,8,,,,45,92
76800,note_on,5,0,17,,,,,,,,10,,,,45,92
76800,note_on,5,0,2,,,,,,,,0,,,,73,92
76800,note_on,5,0,4,,,,,,,,2,,,,73,92
77440,note_off,640,0,4,,,,,,,,2,,,,73,64
77440,note_off,640,0,19,,,,,,,,12,,,,73,64
77440,note_off,640,0,20,,,,,,,,13,,,,76,64
77520,note_on,80,0,19,,,,,,,,12,,,,73,92
77520,note_off,720,0,2,,,,,,,,0,,,,73,64
77520,note_on,80,0,4,,,,,,,,2,,,,73,92
77520,note_on,0,0,6,,,,,,,,3,,,,73,92
77520,note_on,80,0,20,,,,,,,,13,,,,69,92
77520,note_on,0,0,2,,,,,,,,0,,,,73,92
77520,note_off,720,0,6,,,,,,,,3,,,,73,64
77640,note_off,840,0,21,,,,,,,,14,,,,45,64
77640,note_off,840,0,7,,,,,,,,4,,,,57,64
77640,note_off,840,0,17,,,,,,,,10,,,,45,64
77640,note_off,840,0,3,,,,,,,,2,,,,79,64
77640,note_off,840,0,1,,,,,,,,0,,,,79,64
77640,note_off,840,0,18,,,,,,,,11,,,,79,64
77640,note_off,840,0,5,,,,,,,,3,,,,79,64
77640,note_off,840,0,9,,,,,,,,5,,,,73,64
77640,note_off,840,0,10,,,,,,,,5,,,,67,64
77640,note_off,840,0,15,,,,,,,,7,,,,55,64
77640,note_off,840,0,11,,,,,,,,6,,,,79,64
77640,note_off,840,0,12,,,,,,,,6,,,,76,64
77640,note_off,840,0,22,,,,,,,,15,,,,45,64
77640,note_off,840,0,14,,,,,,,,7,,,,61,64
77640,note_off,840,0,13,,,,,,,,7,,,,64,64
77640,note_off,840,0,16,,,,,,,,8,,,,45,64
77640,note_off,840,0,8,,,,,,,,4,,,,45,64
77755,note_off,235,0,4,,,,,,,,2,,,,73,64
77755,note_off,235,0,6,,,,,,,,3,,,,73,64
77755,note_off,235,0,20,,,,,,,,13,,,,69,64
77755,note_off,235,0,19,,,,,,,,12,,,,73,64
77755,note_off,235,0,2,,,,,,,,0,,,,73,64
77760,note_on,120,0,8,,,,,,,,4,,,,50,92
77760,note_on,5,0,4,,,,,,,,2,,,,74,92
77760,note_on,120,0,11,,,,,,,,6,,,,78,92
77760,note_on,120,0,13,,,,,,,,7,,,,62,92
77760,note_on,120,0,17,,,,,,,,10,,,,50,92
77760,note_on,120,0,7,,,,,,,,4,,,,62,92
77760,note_on,120,0,9,,,,,,,,5,,,,69,92
77760,note_on,5,0,6,,,,,,,,3,,,,74,92
77760,note_on,120,0,21,,,,,,,,14,,,,50,92
77760,note_on,5,0,19,,,,,,,,12,,,,74,92
77760,note_on,120,0,18,,,,,,,,11,,,,78,108
77760,note_on,120,0,3,,,,,,,,2,,,,78,92
77760,note_on,120,0,14,,,,,,,,7,,,,57,92
77760,note_on,120,0,12,,,,,,,,6,,,,74,92
77760,note_on,5,0,20,,,,,,,,13,,,,69,92
77760,note_on,120,0,10,,,,,,,,5,,,,66,92
77760,note_on,120,0,16,,,,,,,,8,,,,38,92
77760,note_on,120,0,22,,,,,,,,15,,,,38,92
77760,note_on,5,0,2,,,,,,,,0,,,,74,92
77760,note_on,120,0,5,,,,,,,,3,,,,78,92
77760,note_on,120,0,1,,,,,,,,0,,,,78,92
78160,note_off,400,0,17,,,,,,,,10,,,,50,64
78160,note_off,400,0,14,,,,,,,,7,,,,57,64
78240,note_on,80,0,14,,,,,,,,7,,,,57,92
78240,note_on,80,0,17,,,,,,,,10,,,,50,92
78400,note_off,640,0,8,,,,,,,,4,,,,50,64
78400,note_off,640,0,7,,,,,,,,4,,,,62,64
78400,note_off,640,0,16,,,,,,,,8,,,,38,64
78480,note_on,0,0,21,,,,,,,,14,,,,43,92
78480,note_off,720,0,9,,,,,,,,5,,,,69,64
78480,note_on,0,0,9,,,,,,,,5,,,,67,92
78480,note_on,0,0,12,,,,,,,,6,,,,76,92
78480,note_off,720,0,11,,,,,,,,6,,,,78,64
78480,note_on,0,0,11,,,,,,,,6,,,,79,92
78480,note_off,720,0,12,,,,,,,,6,,,,74,64
78480,note_on,0,0,22,,,,,,,,15,,,,43,92
78480,note_on,0,0,10,,,,,,,,5,,,,64,92
78480,note_on,0,0,19,,,,,,,,12,,,,71,92
78480,note_on,80,0,8,,,,,,,,4,,,,43,92
78480,note_off,720,0,10,,,,,,,,5,,,,66,64
78480,note_on,840,0,15,,,,,,,,7,,,,55,92
78480,note_on,80,0,16,,,,,,,,8,,,,43,92
78480,note_on,0,0,6,,,,,,,,3,,,,71,92
78480,note_off,720,0,6,,,,,,,,3,,,,74,64
78480,note_off,720,0,19,,,,,,,,12,,,,74,64
78480,note_off,720,0,22,,,,,,,,15,,,,38,64
78480,note_off,720,0,18,,,,,,,,11,,,,78,64
78480,note_off,720,0,21,,,,,,,,14,,,,50,64
78480,note_off,720,0,20,,,,,,,,13,,,,69,64
78480,note_off,720,0,1,,,,,,,,0,,,,78,64
78480,note_on,0,0,1,,,,,,,,0,,,,79,92
78480,note_on,0,0,20,,,,,,,,13,,,,76,92
78480,note_on,0,0,18,,,,,,,,11,,,,79,108
78480,note_on,80,0,7,,,,,,,,4,,,,55,92
78480,note_on,0,0,13,,,,,,,,7,,,,64,92
78480,note_off,720,0,4,,,,,,,,2,,,,74,64
78480,note_off,720,0,3,,,,,,,,2,,,,78,64
78480,note_on,0,0,3,,,,,,,,2,,,,79,92
78480,note_on,0,0,2,,,,,,,,0,,,,71,92
78480,note_off,720,0,2,,,,,,,,0,,,,74,64
78480,note_off,720,0,13,,,,,,,,7,,,,62,64
78480,note_on,0,0,5,,,,,,,,3,,,,79,92
78480,note_on,0,0,4,,,,,,,,2,,,,71,92
78480,note_off,720,0,5,,,,,,,,3,,,,78,64
78640,note_off,400,0,14,,,,,,,,7,,,,57,64
78640,note_off,400,0,17,,,,,,,,10,,,,50,64
78715,note_off,235,0,4,,,,,,,,2,,,,71,64
78715,note_off,235,0,16,,,,,,,,8,,,,43,64
78715,note_off,235,0,13,,,,,,,,7,,,,64,64
78715,note_off,235,0,15,,,,,,,,7,,,,55,64
78715,note_off,235,0,12,,,,,,,,6,,,,76,64
78715,note_off,235,0,20,,,,,,,,13,,,,76,64
78715,note_off,235,0,19,,,,,,,,12,,,,71,64
78715,note_off,235,0,8,,,,,,,,4,,,,43,64
78715,note_off,235,0,5,,,,,,,,3,,,,79,64
78715,note_off,235,0,6,,,,,,,,3,,,,71,64
78715,note_off,235,0,10,,,,,,,,5,,,,64,64
78715,note_off,235,0,11,,,,,,,,6,,,,79,64
78715,note_off,235,0,22,,,,,,,,15,,,,43,64
78715,note_off,235,0,7,,,,,,,,4,,,,55,64
78715,note_off,235,0,9,,,,,,,,5,,,,67,64
78715,note_off,235,0,21,,,,,,,,14,,,,43,64
78715,note_off,235,0,18,,,,,,,,11,,,,79,64
78715,note_off,235,0,3,,,,,,,,2,,,,79,64
78715,note_off,235,0,2,,,,,,,,0,,,,71,64
78715,note_off,235,0,1,,,,,,,,0,,,,79,64
78720,note_on,5,0,10,,,,,,,,5,,,,64,92
78720,note_on,80,0,17,,,,,,,,10,,,,45,92
78720,note_on,5,0,20,,,,,,,,13,,,,69,92
78720,note_on,5,0,7,,,,,,,,4,,,,57,92
78720,note_on,5,0,19,,,,,,,,12,,,,73,92
78720,note_on,5,0,13,,,,,,,,7,,,,64,92
78720,note_on,5,0,2,,,,,,,,0,,,,73,92
78720,note_on,5,0,16,,,,,,,,8,,,,45,92
78720,note_on,5,0,22,,,,,,,,15,,,,45,92
78720,note_on,5,0,15,,,,,,,,7,,,,57,92
78720,note_on,5,0,8,,,,,,,,4,,,,45,92
78720,note_on,5,0,6,,,,,,,,3,,,,73,92
78720,note_on,5,0,1,,,,,,,,0,,,,76,92
78720,note_on,5,0,4,,,,,,,,2,,,,73,92
78720,note_on,5,0,3,,,,,,,,2,,,,76,92
78720,note_on,5,0,9,,,,,,,,5,,,,67,92
78720,note_on,5,0,11,,,,,,,,6,,,,76,92
78720,note_on,5,0,21,,,,,,,,14,,,,45,92
78720,note_on,5,0,18,,,,,,,,11,,,,76,108
78720,note_on,5,0,12,,,,,,,,6,,,,76,92
78720,note_on,80,0,14,,,,,,,,7,,,,61,92
78720,note_on,5,0,5,,,,,,,,3,,,,76,92
79120,note_off,400,0,8,,,,,,,,4,,,,45,64
79120,note_off,400,0,22,,,,,,,,15,,,,45,64
79120,note_off,400,0,20,,,,,,,,13,,,,69,64
79120,note_off,400,0,7,,,,,,,,4,,,,57,64
79120,note_off,400,0,14,,,,,,,,7,,,,61,64
79120,note_off,400,0,5,,,,,,,,3,,,,76,64
79120,note_off,400,0,3,,,,,,,,2,,,,76,64
79120,note_off,400,0,13,,,,,,,,7,,,,64,64
79120,note_off,400,0,12,,,,,,,,6,,,,76,64
79120,note_off,400,0,6,,,,,,,,3,,,,73,64
79120,note_off,400,0,10,,,,,,,,5,,,,64,64
79120,note_off,400,0,1,,,,,,,,0,,,,76,64
79120,note_off,400,0,16,,,,,,,,8,,,,45,64
79120,note_off,400,0,17,,,,,,,,10,,,,45,64
79120,note_off,400,0,2,,,,,,,,0,,,,73,64
79120,note_off,400,0,15,,,,,,,,7,,,,57,64
79120,note_off,400,0,9,,,,,,,,5,,,,67,64
79120,note_off,400,0,4,,,,,,,,2,,,,73,64
79120,note_off,400,0,11,,,,,,,,6,,,,76,64
79120,note_off,400,0,19,,,,,,,,12,,,,73,64
79120,note_off,400,0,18,,,,,,,,11,,,,76,64
79120,note_off,400,0,21,,,,,,,,14,,,,45,64
79200,note_on,80,0,9,,,,,,,,5,,,,66,92
79200,note_on,80,0,13,,,,,,,,7,,,,62,92
79200,note_on,80,0,6,,,,,,,,3,,,,66,92
79200,note_on,80,0,12,,,,,,,,6,,,,66,92
79200,note_on,80,0,11,,,,,,,,6,,,,74,92
79200,note_on,80,0,19,,,,,,,,12,,,,69,92
79200,note_on,80,0,10,,,,,,,,5,,,,62,92
79200,note_on,80,0,8,,,,,,,,4,,,,38,92
79200,note_on,80,0,1,,,,,,,,0,,,,74,92
79200,note_on,80,0,16,,,,,,,,8,,,,38,92
79200,note_on,80,0,21,,,,,,,,14,,,,38,92
79200,note_on,80,0,7,,,,,,,,4,,,,50,92
79200,note_on,80,0,15,,,,,,,,7,,,,54,92
79200,note_on,80,0,5,,,,,,,,3,,,,74,92
79200,note_on,80,0,3,,,,,,,,2,,,,74,92
79200,note_on,80,0,14,,,,,,,,7,,,,57,92
79200,note_on,80,0,18,,,,,,,,11,,,,74,108
79200,note_on,80,0,4,,,,,,,,2,,,,69,92
79200,note_on,80,0,22,,,,,,,,15,,,,38,92
79200,note_on,80,0,17,,,,,,,,10,,,,50,92
79200,note_on,80,0,20,,,,,,,,13,,,,66,92
79200,note_on,80,0,2,,,,,,,,0,,,,69,92
79440,note_on,0,0,10,,,,,,,,5,,,,54,92
79440,note_off,240,0,10,,,,,,,,5,,,,62,64
79560,note_off,360,0,9,,,,,,,,5,,,,66,64
79560,note_on,0,0,9,,,,,,,,5,,,,67,92
79560,note_off,360,0,18,,,,,,,,11,,,,74,64
79560,note_on,0,0,18,,,,,,,,11,,,,76,108
79560,note_off,360,0,1,,,,,,,,0,,,,74,64
79560,note_on,0,0,1,,,,,,,,0,,,,76,92
79560,note_on,0,0,11,,,,,,,,6,,,,76,92
79560,note_off,360,0,11,,,,,,,,6,,,,74,64
79560,note_on,0,0,19,,,,,,,,12,,,,74,92
79560,note_off,360,0,5,,,,,,,,3,,,,74,64
79560,note_on,0,0,5,,,,,,,,3,,,,76,92
79560,note_on,0,0,3,,,,,,,,2,,,,76,92
79560,note_off,360,0,3,,,,,,,,2,,,,74,64
79560,note_off,360,0,19,,,,,,,,12,,,,69,64
79600,note_off,400,0,12,,,,,,,,6,,,,66,64
79600,note_off,400,0,7,,,,,,,,4,,,,50,64
79600,note_off,400,0,4,,,,,,,,2,,,,69,64
79600,note_off,400,0,16,,,,,,,,8,,,,38,64
79600,note_off,400,0,14,,,,,,,,7,,,,57,64
79600,note_off,400,0,22,,,,,,,,15,,,,38,64
79600,note_off,400,0,13,,,,,,,,7,,,,62,64
79600,note_off,400,0,2,,,,,,,,0,,,,69,64
79600,note_off,400,0,17,,,,,,,,10,,,,50,64
79600,note_off,400,0,15,,,,,,,,7,,,,54,64
79600,note_off,400,0,8,,,,,,,,4,,,,38,64
79600,note_off,400,0,6,,,,,,,,3,,,,66,64
79600,note_off,400,0,20,,,,,,,,13,,,,66,64
79600,note_off,400,0,21,,,,,,,,14,,,,38,64
79675,note_off,115,0,3,,,,,,,,2,,,,76,64
79675,note_off,115,0,1,,,,,,,,0,,,,76,64
79675,note_off,115,0,18,,,,,,,,11,,,,76,64
79675,note_off,235,0,10,,,,,,,,5,,,,54,64
79675,note_off,115,0,11,,,,,,,,6,,,,76,64
79675,note_off,115,0,19,,,,,,,,12,,,,74,64
79675,note_off,115,0,5,,,,,,,,3,,,,76,64
79675,note_off,115,0,9,,,,,,,,5,,,,67,64
79680,note_on,80,0,21,,,,,,,,14,,,,45,92
79680,note_on,5,0,11,,,,,,,,6,,,,76,92
79680,note_on,80,0,17,,,,,,,,10,,,,45,92
79680,note_on,80,0,12,,,,,,,,6,,,,69,92
79680,note_on,80,0,6,,,,,,,,3,,,,69,92
79680,note_on,80,0,15,,,,,,,,7,,,,57,92
79680,note_on,5,0,3,,,,,,,,2,,,,78,92
79680,note_on,80,0,13,,,,,,,,7,,,,57,92
79680,note_on,5,0,5,,,,,,,,3,,,,78,92
79680,note_on,80,0,8,,,,,,,,4,,,,45,92
79680,note_on,80,0,2,,,,,,,,0,,,,73,92
79680,note_on,80,0,14,,,,,,,,7,,,,52,92
79680,note_on,80,0,20,,,,,,,,13,,,,69,92
79680,note_on,5,0,19,,,,,,,,12,,,,74,92
79680,note_on,80,0,22,,,,,,,,15,,,,45,92
79680,note_on,5,0,9,,,,,,,,5,,,,64,92
79680,note_on,5,0,1,,,,,,,,0,,,,78,92
79680,note_on,5,0,18,,,,,,,,11,,,,78,108
79680,note_on,80,0,7,,,,,,,,4,,,,57,92
79680,note_on,80,0,4,,,,,,,,2,,,,73,92
79680,note_on,5,0,10,,,,,,,,5,,,,57,92
79680,note_on,80,0,16,,,,,,,,8,,,,45,92
79710,note_off,30,0,1,,,,,,,,0,,,,78,64
79710,note_on,0,0,18,,,,,,,,11,,,,79,108
79710,note_off,30,0,18,,,,,,,,11,,,,78,64
79710,note_on,0,0,5,,,,,,,,3,,,,79,92
79710,note_off,30,0,5,,,,,,,,3,,,,78,64
79710,note_on,0,0,3,,,,,,,,2,,,,79,92
79710,note_on,0,0,1,,,,,,,,0,,,,79,92
79710,note_off,30,0,3,,,,,,,,2,,,,78,64
79740,note_on,0,0,18,,,,,,,,11,,,,78,108
79740,note_on,0,0,3,,,,,,,,2,,,,78,92
79740,note_off,30,0,3,,,,,,,,2,,,,79,64
79740,note_off,30,0,5,,,,,,,,3,,,,79,64
79740,note_off,30,0,18,,,,,,,,11,,,,79,64
79740,note_on,0,0,1,,,,,,,,0,,,,78,92
79740,note_off,30,0,1,,,,,,,,0,,,,79,64
79740,note_on,0,0,5,,,,,,,,3,,,,78,92
79770,note_off,30,0,5,,,,,,,,3,,,,78,64
79770,note_on,0,0,5,,,,,,,,3,,,,79,92
79770,note_off,30,0,3,,,,,,,,2,,,,78,64
79770,note_on,0,0,3,,,,,,,,2,,,,79,92
79770,note_off,30,0,18,,,,,,,,11,,,,78,64
79770,note_on,0,0,18,,,,,,,,11,,,,79,108
79770,note_off,30,0,1,,,,,,,,0,,,,78,64
79770,note_on,0,0,1,,,,,,,,0,,,,79,92
79800,note_on,0,0,5,,,,,,,,3,,,,78,92
79800,note_on,0,0,18,,,,,,,,11,,,,78,108
79800,note_on,0,0,1,,,,,,,,0,,,,78,92
79800,note_off,30,0,1,,,,,,,,0,,,,79,64
79800,note_on,0,0,3,,,,,,,,2,,,,78,92
79800,note_off,30,0,3,,,,,,,,2,,,,79,64
79800,note_off,30,0,18,,,,,,,,11,,,,79,64
79800,note_off,30,0,5,,,,,,,,3,,,,79,64
79830,note_off,30,0,3,,,,,,,,2,,,,78,64
79830,note_on,0,0,3,,,,,,,,2,,,,79,92
79830,note_on,0,0,5,,,,,,,,3,,,,79,92
79830,note_on,0,0,1,,,,,,,,0,,,,79,92
79830,note_off,30,0,5,,,,,,,,3,,,,78,64
79830,note_off,30,0,1,,,,,,,,0,,,,78,64
79830,note_off,30,0,18,,,,,,,,11,,,,78,64
79830,note_on,0,0,18,,,,,,,,11,,,,79,108
79860,note_off,30,0,18,,,,,,,,11,,,,79,64
79860,note_off,30,0,1,,,,,,,,0,,,,79,64
79860,note_on,0,0,1,,,,,,,,0,,,,78,92
79860,note_on,0,0,3,,,,,,,,2,,,,78,92
79860,note_on,0,0,5,,,,,,,,3,,,,78,92
79860,note_off,30,0,5,,,,,,,,3,,,,79,64
79860,note_off,30,0,3,,,,,,,,2,,,,79,64
79860,note_on,0,0,18,,,,,,,,11,,,,78,108
79890,note_off,30,0,1,,,,,,,,0,,,,78,64
79890,note_on,0,0,1,,,,,,,,0,,,,79,92
79890,note_off,30,0,18,,,,,,,,11,,,,78,64
79890,note_on,0,0,18,,,,,,,,11,,,,79,108
79890,note_on,0,0,5,,,,,,,,3,,,,79,92
79890,note_on,0,0,3,,,,,,,,2,,,,79,92
79890,note_off,30,0,5,,,,,,,,3,,,,78,64
79890,note_off,30,0,3,,,,,,,,2,,,,78,64
79920,note_on,0,0,18,,,,,,,,11,,,,78,108
79920,note_on,0,0,1,,,,,,,,0,,,,78,92
79920,note_off,30,0,1,,,,,,,,0,,,,79,64
79920,note_off,30,0,3,,,,,,,,2,,,,79,64
79920,note_on,0,0,3,,,,,,,,2,,,,78,92
79920,note_on,0,0,5,,,,,,,,3,,,,78,92
79920,note_off,30,0,5,,,,,,,,3,,,,79,64
79920,note_off,30,0,18,,,,,,,,11,,,,79,64
79950,note_off,30,0,18,,,,,,,,11,,,,78,64
79950,note_off,30,0,3,,,,,,,,2,,,,78,64
79950,note_on,0,0,3,,,,,,,,2,,,,79,92
79950,note_on,0,0,1,,,,,,,,0,,,,79,92
79950,note_on,0,0,18,,,,,,,,11,,,,79,108
79950,note_off,30,0,1,,,,,,,,0,,,,78,64
79950,note_off,30,0,5,,,,,,,,3,,,,78,64
79950,note_on,0,0,5,,,,,,,,3,,,,79,92
79980,note_off,30,0,1,,,,,,,,0,,,,79,64
79980,note_on,0,0,1,,,,,,,,0,,,,78,92
79980,note_off,30,0,18,,,,,,,,11,,,,79,64
79980,note_on,0,0,18,,,,,,,,11,,,,78,108
79980,note_on,0,0,5,,,,,,,,3,,,,78,92
79980,note_off,30,0,5,,,,,,,,3,,,,79,64
79980,note_off,30,0,3,,,,,,,,2,,,,79,64
79980,note_on,0,0,3,,,,,,,,2,,,,78,92
80010,note_on,0,0,5,,,,,,,,3,,,,79,92
80010,note_off,30,0,5,,,,,,,,3,,,,78,64
80010,note_off,30,0,3,,,,,,,,2,,,,78,64
80010,note_off,30,0,18,,,,,,,,11,,,,78,64
80010,note_on,0,0,18,,,,,,,,11,,,,79,108
80010,note_on,0,0,1,,,,,,,,0,,,,79,92
80010,note_off,30,0,1,,,,,,,,0,,,,78,64
80010,note_on,0,0,3,,,,,,,,2,,,,79,92
80040,note_off,30,0,5,,,,,,,,3,,,,79,64
80040,note_on,0,0,3,,,,,,,,2,,,,78,92
80040,note_off,30,0,18,,,,,,,,11,,,,79,64
80040,note_on,0,0,18,,,,,,,,11,,,,78,108
80040,note_on,0,0,1,,,,,,,,0,,,,78,92
80040,note_off,30,0,1,,,,,,,,0,,,,79,64
80040,note_on,0,0,5,,,,,,,,3,,,,78,92
80040,note_off,30,0,3,,,,,,,,2,,,,79,64
80070,note_on,0,0,5,,,,,,,,3,,,,79,92
80070,note_off,30,0,3,,,,,,,,2,,,,78,64
80070,note_on,0,0,3,,,,,,,,2,,,,79,92
80070,note_off,30,0,5,,,,,,,,3,,,,78,64
80070,note_on,0,0,1,,,,,,,,0,,,,79,92
80070,note_off,30,0,18,,,,,,,,11,,,,78,64
80070,note_off,30,0,1,,,,,,,,0,,,,78,64
80070,note_on,0,0,18,,,,,,,,11,,,,79,108
80080,note_off,400,0,2,,,,,,,,0,,,,73,64
80080,note_off,400,0,20,,,,,,,,13,,,,69,64
80080,note_off,400,0,4,,,,,,,,2,,,,73,64
80080,note_off,400,0,19,,,,,,,,12,,,,74,64
80080,note_off,400,0,6,,,,,,,,3,,,,69,64
80080,note_off,400,0,13,,,,,,,,7,,,,57,64
80100,note_on,0,0,1,,,,,,,,0,,,,78,92
80100,note_off,30,0,3,,,,,,,,2,,,,79,64
80100,note_on,0,0,5,,,,,,,,3,,,,78,92
80100,note_off,30,0,5,,,,,,,,3,,,,79,64
80100,note_on,0,0,18,,,,,,,,11,,,,78,108
80100,note_on,0,0,3,,,,,,,,2,,,,78,92
80100,note_off,30,0,1,,,,,,,,0,,,,79,64
80100,note_off,30,0,18,,,,,,,,11,,,,79,64
80130,note_on,0,0,18,,,,,,,,11,,,,79,108
80130,note_off,30,0,5,,,,,,,,3,,,,78,64
80130,note_off,30,0,3,,,,,,,,2,,,,78,64
80130,note_on,0,0,3,,,,,,,,2,,,,79,92
80130,note_off,30,0,18,,,,,,,,11,,,,78,64
80130,note_off,30,0,1,,,,,,,,0,,,,78,64
80130,note_on,0,0,1,,,,,,,,0,,,,79,92
80130,note_on,0,0,5,,,,,,,,3,,,,79,92
80160,note_off,30,0,18,,,,,,,,11,,,,79,64
80160,note_off,30,0,3,,,,,,,,2,,,,79,64
80160,note_on,80,0,19,,,,,,,,12,,,,73,92
80160,note_on,0,0,3,,,,,,,,2,,,,78,92
80160,note_on,80,0,4,,,,,,,,2,,,,73,92
80160,note_on,80,0,6,,,,,,,,3,,,,69,92
80160,note_on,0,0,5,,,,,,,,3,,,,78,92
80160,note_on,0,0,18,,,,,,,,11,,,,78,108
80160,note_off,30,0,5,,,,,,,,3,,,,79,64
80160,note_on,0,0,1,,,,,,,,0,,,,78,92
80160,note_on,80,0,20,,,,,,,,13,,,,69,92
80160,note_off,30,0,1,,,,,,,,0,,,,79,64
80160,note_on,80,0,2,,,,,,,,0,,,,73,92
80160,note_on,80,0,13,,,,,,,,7,,,,61,92
80190,note_off,30,0,18,,,,,,,,11,,,,78,64
80190,note_off,30,0,5,,,,,,,,3,,,,78,64
80190,note_on,0,0,5,,,,,,,,3,,,,79,92
80190,note_on,0,0,1,,,,,,,,0,,,,79,92
80190,note_on,0,0,3,,,,,,,,2,,,,79,92
80190,note_off,30,0,3,,,,,,,,2,,,,78,64
80190,note_off,30,0,1,,,,,,,,0,,,,78,64
80190,note_on,0,0,18,,,,,,,,11,,,,79,108
80220,note_off,30,0,1,,,,,,,,0,,,,79,64
80220,note_on,0,0,1,,,,,,,,0,,,,78,92
80220,note_off,30,0,18,,,,,,,,11,,,,79,64
80220,note_on,0,0,18,,,,,,,,11,,,,78,108
80220,note_on,0,0,5,,,,,,,,3,,,,78,92
80220,note_off,30,0,5,,,,,,,,3,,,,79,64
80220,note_off,30,0,3,,,,,,,,2,,,,79,64
80220,note_on,0,0,3,,,,,,,,2,,,,78,92
80250,note_on,0,0,1,,,,,,,,0,,,,79,92
80250,note_on,0,0,5,,,,,,,,3,,,,79,92
80250,note_off,30,0,18,,,,,,,,11,,,,78,64
80250,note_on,0,0,18,,,,,,,,11,,,,79,108
80250,note_off,30,0,3,,,,,,,,2,,,,78,64
80250,note_on,0,0,3,,,,,,,,2,,,,79,92
80250,note_off,30,0,1,,,,,,,,0,,,,78,64
80250,note_off,30,0,5,,,,,,,,3,,,,78,64
80280,note_on,0,0,5,,,,,,,,3,,,,78,92
80280,note_off,30,0,5,,,,,,,,3,,,,79,64
80280,note_off,30,0,1,,,,,,,,0,,,,79,64
80280,note_on,0,0,18,,,,,,,,11,,,,78,108
80280,note_on,0,0,1,,,,,,,,0,,,,78,92
80280,note_off,30,0,3,,,,,,,,2,,,,79,64
80280,note_on,0,0,3,,,,,,,,2,,,,78,92
80280,note_off,30,0,18,,,,,,,,11,,,,79,64
80310,note_on,0,0,1,,,,,,,,0,,,,79,92
80310,note_off,30,0,1,,,,,,,,0,,,,78,64
80310,note_off,30,0,18,,,,,,,,11,,,,78,64
80310,note_off,30,0,5,,,,,,,,3,,,,78,64
80310,note_on,0,0,18,,,,,,,,11,,,,79,108
80310,note_on,0,0,5,,,,,,,,3,,,,79,92
80310,note_on,0,0,3,,,,,,,,2,,,,79,92
80310,note_off,30,0,3,,,,,,,,2,,,,78,64
80320,note_off,640,0,17,,,,,,,,10,,,,45,64
80320,note_off,640,0,10,,,,,,,,5,,,,57,64
80320,note_off,640,0,12,,,,,,,,6,,,,69,64
80340,note_off,30,0,3,,,,,,,,2,,,,79,64
80340,note_on,0,0,3,,,,,,,,2,,,,78,92
80340,note_on,0,0,18,,,,,,,,11,,,,78,108
80340,note_off,30,0,1,,,,,,,,0,,,,79,64
80340,note_on,0,0,1,,,,,,,,0,,,,78,92
80340,note_off,30,0,18,,,,,,,,11,,,,79,64
80340,note_off,30,0,5,,,,,,,,3,,,,79,64
80340,note_on,0,0,5,,,,,,,,3,,,,78,92
80370,note_off,30,0,18,,,,,,,,11,,,,78,64
80370,note_off,30,0,1,,,,,,,,0,,,,78,64
80370,note_on,0,0,1,,,,,,,,0,,,,79,92
80370,note_off,30,0,5,,,,,,,,3,,,,78,64
80370,note_on,0,0,18,,,,,,,,11,,,,79,108
80370,note_on,0,0,5,,,,,,,,3,,,,79,92
80370,note_on,0,0,3,,,,,,,,2,,,,79,92
80370,note_off,30,0,3,,,,,,,,2,,,,78,64
80400,note_on,0,0,3,,,,,,,,2,,,,76,92
80400,note_on,0,0,1,,,,,,,,0,,,,76,92
80400,note_on,0,0,18,,,,,,,,11,,,,76,108
80400,note_off,30,0,18,,,,,,,,11,,,,79,64
80400,note_on,80,0,10,,,,,,,,5,,,,57,92
80400,note_off,30,0,3,,,,,,,,2,,,,79,64
80400,note_off,30,0,1,,,,,,,,0,,,,79,64
80400,note_off,30,0,5,,,,,,,,3,,,,79,64
80400,note_on,0,0,5,,,,,,,,3,,,,76,92
80400,note_off,720,0,14,,,,,,,,7,,,,52,64
80400,note_on,0,0,14,,,,,,,,7,,,,57,92
80400,note_on,80,0,17,,,,,,,,10,,,,45,92
80400,note_off,720,0,9,,,,,,,,5,,,,64,64
80400,note_on,0,0,9,,,,,,,,5,,,,62,92
80400,note_off,720,0,11,,,,,,,,6,,,,76,64
80400,note_on,80,0,12,,,,,,,,6,,,,69,92
80400,note_on,0,0,11,,,,,,,,6,,,,74,92
80520,note_off,360,0,4,,,,,,,,2,,,,73,64
80520,note_off,360,0,19,,,,,,,,12,,,,73,64
80520,note_off,840,0,7,,,,,,,,4,,,,57,64
80520,note_on,0,0,19,,,,,,,,12,,,,67,92
80520,note_off,360,0,2,,,,,,,,0,,,,73,64
80520,note_off,840,0,8,,,,,,,,4,,,,45,64
80520,note_on,0,0,4,,,,,,,,2,,,,67,92
80520,note_off,840,0,15,,,,,,,,7,,,,57,64
80520,note_off,360,0,6,,,,,,,,3,,,,69,64
80520,note_off,840,0,21,,,,,,,,14,,,,45,64
80520,note_on,0,0,6,,,,,,,,3,,,,67,92
80520,note_on,0,0,2,,,,,,,,0,,,,67,92
80520,note_off,840,0,16,,,,,,,,8,,,,45,64
80520,note_off,840,0,22,,,,,,,,15,,,,45,64
80560,note_off,400,0,13,,,,,,,,7,,,,61,64
80560,note_off,400,0,20,,,,,,,,13,,,,69,64
80635,note_off,235,0,17,,,,,,,,10,,,,45,64
80635,note_off,235,0,1,,,,,,,,0,,,,76,64
80635,note_off,235,0,14,,,,,,,,7,,,,57,64
80635,note_off,235,0,18,,,,,,,,11,,,,76,64
80635,note_off,235,0,12,,,,,,,,6,,,,69,64
80635,note_off,235,0,9,,,,,,,,5,,,,62,64
80635,note_off,115,0,19,,,,,,,,12,,,,67,64
80635,note_off,115,0,4,,,,,,,,2,,,,67,64
80635,note_off,235,0,10,,,,,,,,5,,,,57,64
80635,note_off,115,0,6,,,,,,,,3,,,,67,64
80635,note_off,235,0,11,,,,,,,,6,,,,74,64
80635,note_off,235,0,3,,,,,,,,2,,,,76,64
80635,note_off,235,0,5,,,,,,,,3,,,,76,64
80635,note_off,115,0,2,,,,,,,,0,,,,67,64
80640,note_on,5,0,10,,,,,,,,5,,,,54,92
80640,note_on,5,0,4,,,,,,,,2,,,,66,92
80640,note_on,5,0,18,,,,,,,,11,,,,74,108
80640,note_on,120,0,7,,,,,,,,4,,,,50,92
80640,note_on,5,0,14,,,,,,,,7,,,,57,92
80640,note_on,5,0,19,,,,,,,,12,,,,66,92
80640,note_on,5,0,9,,,,,,,,5,,,,62,92
80640,note_on,120,0,22,,,,,,,,15,,,,38,92
80640,note_on,80,0,20,,,,,,,,13,,,,69,92
80640,note_on,5,0,11,,,,,,,,6,,,,74,92
80640,note_on,5,0,12,,,,,,,,6,,,,66,92
80640,note_on,5,0,5,,,,,,,,3,,,,74,92
80640,note_on,5,0,3,,,,,,,,2,,,,74,92
80640,note_on,5,0,17,,,,,,,,10,,,,50,92
80640,note_on,120,0,15,,,,,,,,7,,,,54,92
80640,note_on,5,0,6,,,,,,,,3,,,,66,92
80640,note_on,120,0,16,,,,,,,,8,,,,38,92
80640,note_on,120,0,21,,,,,,,,14,,,,38,92
80640,note_on,5,0,2,,,,,,,,0,,,,66,92
80640,note_on,5,0,1,,,,,,,,0,,,,74,92
80640,note_on,80,0,13,,,,,,,,7,,,,62,92
80640,note_on,120,0,8,,,,,,,,4,,,,38,92
81480,note_off,840,0,21,,,,,,,,14,,,,38,64
81480,note_off,840,0,3,,,,,,,,2,,,,74,64
81480,note_off,840,0,1,,,,,,,,0,,,,74,64
81480,note_off,840,0,11,,,,,,,,6,,,,74,64
81480,note_off,840,0,12,,,,,,,,6,,,,66,64
81480,note_off,840,0,8,,,,,,,,4,,,,38,64
81480,note_off,840,0,7,,,,,,,,4,,,,50,64
81480,note_off,840,0,17,,,,,,,,10,,,,50,64
81480,note_off,840,0,16,,,,,,,,8,,,,38,64
81480,note_off,840,0,22,,,,,,,,15,,,,38,64
81480,note_off,840,0,2,,,,,,,,0,,,,66,64
81480,note_off,840,0,13,,,,,,,,7,,,,62,64
81480,note_off,840,0,18,,,,,,,,11,,,,74,64
81480,note_off,840,0,6,,,,,,,,3,,,,66,64
81480,note_off,840,0,14,,,,,,,,7,,,,57,64
81480,note_off,840,0,15,,,,,,,,7,,,,54,64
81480,note_off,840,0,4,,,,,,,,2,,,,66,64
81480,note_off,840,0,19,,,,,,,,12,,,,66,64
81480,note_off,840,0,5,,,,,,,,3,,,,74,64
81480,note_off,840,0,10,,,,,,,,5,,,,54,64
81480,note_off,840,0,20,,,,,,,,13,,,,69,64
81480,note_off,840,0,9,,,,,,,,5,,,,62,64
82560,note_on,1080,0,10,,,,,,,,5,,,,66,92
82560,note_on,1080,0,14,,,,,,,,7,,,,57,92
82560,note_on,1080,0,18,,,,,,,,11,,,,81,108
82560,note_on,1080,0,6,,,,,,,,3,,,,74,92
82560,note_on,1080,0,4,,,,,,,,2,,,,74,92
82560,note_on,1080,0,16,,,,,,,,8,,,,42,92
82560,note_on,1080,0,8,,,,,,,,4,,,,54,92
82560,note_on,1080,0,2,,,,,,,,0,,,,74,92
82560,note_on,1080,0,15,,,,,,,,7,,,,54,92
82560,note_on,1080,0,9,,,,,,,,5,,,,69,92
82560,note_on,1080,0,12,,,,,,,,6,,,,78,92
82560,note_on,1080,0,21,,,,,,,,14,,,,54,92
82560,note_on,1080,0,1,,,,,,,,0,,,,81,92
82560,note_on,1080,0,3,,,,,,,,2,,,,81,92
82560,note_on,1080,0,7,,,,,,,,4,,,,54,92
82560,note_on,1080,0,13,,,,,,,,7,,,,62,92
82560,note_on,1080,0,5,,,,,,,,3,,,,81,92
82560,note_on,1080,0,20,,,,,,,,13,,,,69,92
82560,note_on,1080,0,11,,,,,,,,6,,,,81,92
82560,note_on,1080,0,19,,,,,,,,12,,,,74,92
82560,note_on,1080,0,17,,,,,,,,10,,,,50,92
82560,note_on,1080,0,22,,,,,,,,15,,,,42,92
84360,note_off,1800,0,12,,,,,,,,6,,,,78,64
84360,note_off,1800,0,16,,,,,,,,8,,,,42,64
84360,note_off,1800,0,4,,,,,,,,2,,,,74,64
84360,note_off,1800,0,1,,,,,,,,0,,,,81,64
84360,note_off,1800,0,2,,,,,,,,0,,,,74,64
84360,note_off,1800,0,5,,,,,,,,3,,,,81,64
84360,note_off,1800,0,9,,,,,,,,5,,,,69,64
84360,note_off,1800,0,7,,,,,,,,4,,,,54,64
84360,note_off,1800,0,18,,,,,,,,11,,,,81,64
84360,note_off,1800,0,20,,,,,,,,13,,,,69,64
84360,note_off,1800,0,19,,,,,,,,12,,,,74,64
84360,note_off,1800,0,11,,,,,,,,6,,,,81,64
84360,note_off,1800,0,10,,,,,,,,5,,,,66,64
84360,note_off,1800,0,6,,,,,,,,3,,,,74,64
84360,note_off,1800,0,15,,,,,,,,7,,,,54,64
84360,note_off,1800,0,3,,,,,,,,2,,,,81,64
84360,note_off,1800,0,21,,,,,,,,14,,,,54,64
84360,note_off,1800,0,13,,,,,,,,7,,,,62,64
84360,note_off,1800,0,22,,,,,,,,15,,,,42,64
84360,note_off,1800,0,17,,,,,,,,10,,,,50,64
84360,note_off,1800,0,8,,,,,,,,4,,,,54,64
84360,note_off,1800,0,14,,,,,,,,7,,,,57,64
84480,note_on,120,0,21,,,,,,,,14,,,,47,92
84480,note_on,120,0,15,,,,,,,,7,,,,54,92
84480,note_on,120,0,6,,,,,,,,3,,,,74,92
84480,note_on,120,0,19,,,,,,,,12,,,,74,92
84480,note_on,120,0,12,,,,,,,,6,,,,74,92
84480,note_on,120,0,13,,,,,,,,7,,,,62,92
84480,note_on,120,0,1,,,,,,,,0,,,,80,92
84480,note_on,120,0,5,,,,,,,,3,,,,80,92
84480,note_on,120,0,3,,,,,,,,2,,,,80,92
84480,note_on,120,0,7,,,,,,,,4,,,,59,92
84480,note_on,120,0,20,,,,,,,,13,,,,71,92
84480,note_on,120,0,4,,,,,,,,2,,,,74,92
84480,note_on,120,0,17,,,,,,,,10,,,,50,92
84480,note_on,120,0,8,,,,,,,,4,,,,47,92
84480,note_on,120,0,2,,,,,,,,0,,,,74,92
84480,note_on,120,0,10,,,,,,,,5,,,,62,92
84480,note_on,120,0,11,,,,,,,,6,,,,81,92
84480,note_on,120,0,9,,,,,,,,5,,,,69,92
84480,note_on,120,0,14,,,,,,,,7,,,,59,92
84480,note_on,120,0,18,,,,,,,,11,,,,80,108
84480,note_on,120,0,16,,,,,,,,8,,,,35,92
84480,note_on,120,0,22,,,,,,,,15,,,,35,92
84540,note_off,60,0,5,,,,,,,,3,,,,80,64
84540,note_on,0,0,5,,,,,,,,3,,,,81,92
84540,note_off,60,0,18,,,,,,,,11,,,,80,64
84540,note_off,60,0,3,,,,,,,,2,,,,80,64
84540,note_off,60,0,1,,,,,,,,0,,,,80,64
84540,note_on,0,0,1,,,,,,,,0,,,,81,92
84540,note_on,0,0,18,,,,,,,,11,,,,81,108
84540,note_on,0,0,3,,,,,,,,2,,,,81,92
84600,note_off,60,0,3,,,,,,,,2,,,,81,64
84600,note_off,60,0,5,,,,,,,,3,,,,81,64
84600,note_on,0,0,5,,,,,,,,3,,,,80,92
84600,note_on,0,0,3,,,,,,,,2,,,,80,92
84600,note_on,0,0,1,,,,,,,,0,,,,80,92
84600,note_off,60,0,1,,,,,,,,0,,,,81,64
84600,note_off,60,0,18,,,,,,,,11,,,,81,64
84600,note_on,0,0,18,,,,,,,,11,,,,80,108
84660,note_on,0,0,1,,,,,,,,0,,,,81,92
84660,note_off,60,0,1,,,,,,,,0,,,,80,64
84660,note_on,0,0,3,,,,,,,,2,,,,81,92
84660,note_on,0,0,5,,,,,,,,3,,,,81,92
84660,note_off,60,0,18,,,,,,,,11,,,,80,64
84660,note_on,0,0,18,,,,,,,,11,,,,81,108
84660,note_off,60,0,5,,,,,,,,3,,,,80,64
84660,note_off,60,0,3,,,,,,,,2,,,,80,64
84720,note_off,60,0,18,,,,,,,,11,,,,81,64
84720,note_on,0,0,18,,,,,,,,11,,,,80,108
84720,note_off,60,0,5,,,,,,,,3,,,,81,64
84720,note_on,0,0,5,,,,,,,,3,,,,80,92
84720,note_on,0,0,1,,,,,,,,0,,,,80,92
84720,note_off,60,0,3,,,,,,,,2,,,,81,64
84720,note_on,0,0,3,,,,,,,,2,,,,80,92
84720,note_off,60,0,1,,,,,,,,0,,,,81,64
84780,note_on,0,0,1,,,,,,,,0,,,,81,92
84780,note_off,60,0,3,,,,,,,,2,,,,80,64
84780,note_on,0,0,3,,,,,,,,2,,,,81,92
84780,note_on,0,0,18,,,,,,,,11,,,,81,108
84780,note_off,60,0,1,,,,,,,,0,,,,80,64
84780,note_off,60,0,5,,,,,,,,3,,,,80,64
84780,note_on,0,0,5,,,,,,,,3,,,,81,92
84780,note_off,60,0,18,,,,,,,,11,,,,80,64
84840,note_off,60,0,18,,,,,,,,11,,,,81,64
84840,note_off,60,0,3,,,,,,,,2,,,,81,64
84840,note_off,60,0,5,,,,,,,,3,,,,81,64
84840,note_on,0,0,5,,,,,,,,3,,,,80,92
84840,note_on,0,0,3,,,,,,,,2,,,,80,92
84840,note_on,0,0,1,,,,,,,,0,,,,80,92
84840,note_off,60,0,1,,,,,,,,0,,,,81,64
84840,note_on,0,0,18,,,,,,,,11,,,,80,108
84900,note_off,60,0,1,,,,,,,,0,,,,80,64
84900,note_on,0,0,1,,,,,,,,0,,,,81,92
84900,note_off,60,0,18,,,,,,,,11,,,,80,64
84900,note_on,0,0,18,,,,,,,,11,,,,81,108
84900,note_off,60,0,3,,,,,,,,2,,,,80,64
84900,note_on,0,0,3,,,,,,,,2,,,,81,92
84900,note_off,60,0,5,,,,,,,,3,,,,80,64
84900,note_on,0,0,5,,,,,,,,3,,,,81,92
84960,note_off,60,0,18,,,,,,,,11,,,,81,64
84960,note_on,0,0,3,,,,,,,,2,,,,80,92
84960,note_off,60,0,3,,,,,,,,2,,,,81,64
84960,note_on,0,0,18,,,,,,,,11,,,,80,108
84960,note_on,0,0,5,,,,,,,,3,,,,80,92
84960,note_on,0,0,1,,,,,,,,0,,,,80,92
84960,note_off,60,0,1,,,,,,,,0,,,,81,64
84960,note_off,60,0,5,,,,,,,,3,,,,81,64
85020,note_on,0,0,18,,,,,,,,11,,,,81,108
85020,note_off,60,0,5,,,,,,,,3,,,,80,64
85020,note_on,0,0,5,,,,,,,,3,,,,81,92
85020,note_off,60,0,18,,,,,,,,11,,,,80,64
85020,note_off,60,0,3,,,,,,,,2,,,,80,64
85020,note_on,0,0,3,,,,,,,,2,,,,81,92
85020,note_on,0,0,1,,,,,,,,0,,,,81,92
85020,note_off,60,0,1,,,,,,,,0,,,,80,64
85080,note_on,0,0,1,,,,,,,,0,,,,80,92
85080,note_off,60,0,1,,,,,,,,0,,,,81,64
85080,note_off,60,0,3,,,,,,,,2,,,,81,64
85080,note_on,0,0,3,,,,,,,,2,,,,80,92
85080,note_on,0,0,18,,,,,,,,11,,,,80,108
85080,note_on,0,0,5,,,,,,,,3,,,,80,92
85080,note_off,60,0,5,,,,,,,,3,,,,81,64
85080,note_off,60,0,18,,,,,,,,11,,,,81,64
85140,note_on,0,0,3,,,,,,,,2,,,,81,92
85140,note_on,0,0,18,,,,,,,,11,,,,81,108
85140,note_on,0,0,5,,,,,,,,3,,,,81,92
85140,note_off,60,0,5,,,,,,,,3,,,,80,64
85140,note_off,60,0,18,,,,,,,,11,,,,80,64
85140,note_off,60,0,1,,,,,,,,0,,,,80,64
85140,note_on,0,0,1,,,,,,,,0,,,,81,92
85140,note_off,60,0,3,,,,,,,,2,,,,80,64
85200,note_on,0,0,18,,,,,,,,11,,,,80,108
85200,note_off,60,0,18,,,,,,,,11,,,,81,64
85200,note_on,0,0,1,,,,,,,,0,,,,80,92
85200,note_on,0,0,3,,,,,,,,2,,,,80,92
85200,note_off,60,0,1,,,,,,,,0,,,,81,64
85200,note_off,60,0,5,,,,,,,,3,,,,81,64
85200,note_on,0,0,5,,,,,,,,3,,,,80,92
85200,note_off,60,0,3,,,,,,,,2,,,,81,64
85260,note_off,60,0,1,,,,,,,,0,,,,80,64
85260,note_on,0,0,1,,,,,,,,0,,,,81,92
85260,note_on,0,0,5,,,,,,,,3,,,,81,92
85260,note_off,60,0,3,,,,,,,,2,,,,80,64
85260,note_off,60,0,18,,,,,,,,11,,,,80,64
85260,note_off,60,0,5,,,,,,,,3,,,,80,64
85260,note_on,0,0,3,,,,,,,,2,,,,81,92
85260,note_on,0,0,18,,,,,,,,11,,,,81,108
85320,note_on,0,0,18,,,,,,,,11,,,,80,108
85320,note_off,60,0,5,,,,,,,,3,,,,81,64
85320,note_on,0,0,5,,,,,,,,3,,,,80,92
85320,note_off,60,0,18,,,,,,,,11,,,,81,64
85320,note_off,840,0,11,,,,,,,,6,,,,81,64
85320,note_off,60,0,3,,,,,,,,2,,,,81,64
85320,note_on,0,0,3,,,,,,,,2,,,,80,92
85320,note_on,0,0,1,,,,,,,,0,,,,80,92
85320,note_off,60,0,1,,,,,,,,0,,,,81,64
85320,note_off,840,0,15,,,,,,,,7,,,,54,64
85320,note_off,840,0,9,,,,,,,,5,,,,69,64
85380,note_off,60,0,18,,,,,,,,11,,,,80,64
85380,note_off,60,0,5,,,,,,,,3,,,,80,64
85380,note_on,0,0,1,,,,,,,,0,,,,81,92
85380,note_off,60,0,1,,,,,,,,0,,,,80,64
85380,note_on,0,0,18,,,,,,,,11,,,,81,108
85380,note_on,0,0,3,,,,,,,,2,,,,81,92
85380,note_on,0,0,5,,,,,,,,3,,,,81,92
85380,note_off,60,0,3,,,,,,,,2,,,,80,64
85440,note_off,60,0,1,,,,,,,,0,,,,81,64
85440,note_off,60,0,18,,,,,,,,11,,,,81,64
85440,note_off,60,0,5,,,,,,,,3,,,,81,64
85440,note_on,0,0,5,,,,,,,,3,,,,80,92
85440,note_on,0,0,1,,,,,,,,0,,,,80,92
85440,note_on,120,0,15,,,,,,,,7,,,,50,92
85440,note_on,0,0,18,,,,,,,,11,,,,80,108
85440,note_on,120,0,9,,,,,,,,5,,,,68,92
85440,note_on,0,0,3,,,,,,,,2,,,,80,92
85440,note_off,60,0,3,,,,,,,,2,,,,81,64
85440,note_on,120,0,11,,,,,,,,6,,,,80,92
85500,note_on,0,0,5,,,,,,,,3,,,,81,92
85500,note_off,60,0,5,,,,,,,,3,,,,80,64
85500,note_on,0,0,1,,,,,,,,0,,,,81,92
85500,note_off,60,0,1,,,,,,,,0,,,,80,64
85500,note_on,0,0,3,,,,,,,,2,,,,81,92
85500,note_off,60,0,18,,,,,,,,11,,,,80,64
85500,note_off,60,0,3,,,,,,,,2,,,,80,64
85500,note_on,0,0,18,,,,,,,,11,,,,81,108
85560,note_off,60,0,18,,,,,,,,11,,,,81,64
85560,note_on,0,0,5,,,,,,,,3,,,,80,92
85560,note_off,60,0,5,,,,,,,,3,,,,81,64
85560,note_on,0,0,1,,,,,,,,0,,,,80,92
85560,note_off,60,0,1,,,,,,,,0,,,,81,64
85560,note_on,0,0,3,,,,,,,,2,,,,80,92
85560,note_on,0,0,18,,,,,,,,11,,,,80,108
85560,note_off,60,0,3,,,,,,,,2,,,,81,64
85620,note_on,0,0,5,,,,,,,,3,,,,81,92
85620,note_off,60,0,18,,,,,,,,11,,,,80,64
85620,note_on,0,0,18,,,,,,,,11,,,,81,108
85620,note_off,60,0,1,,,,,,,,0,,,,80,64
85620,note_off,60,0,5,,,,,,,,3,,,,80,64
85620,note_on,0,0,3,,,,,,,,2,,,,81,92
85620,note_off,60,0,3,,,,,,,,2,,,,80,64
85620,note_on,0,0,1,,,,,,,,0,,,,81,92
85680,note_on,0,0,3,,,,,,,,2,,,,80,92
85680,note_off,60,0,3,,,,,,,,2,,,,81,64
85680,note_off,60,0,1,,,,,,,,0,,,,81,64
85680,note_on,0,0,1,,,,,,,,0,,,,80,92
85680,note_on,0,0,18,,,,,,,,11,,,,80,108
85680,note_off,60,0,5,,,,,,,,3,,,,81,64
85680,note_on,0,0,5,,,,,,,,3,,,,80,92
85680,note_off,60,0,18,,,,,,,,11,,,,81,64
85740,note_on,0,0,3,,,,,,,,2,,,,81,92
85740,note_on,0,0,18,,,,,,,,11,,,,81,108
85740,note_off,60,0,18,,,,,,,,11,,,,80,64
85740,note_on,0,0,1,,,,,,,,0,,,,81,92
85740,note_off,60,0,5,,,,,,,,3,,,,80,64
85740,note_off,60,0,1,,,,,,,,0,,,,80,64
85740,note_off,60,0,3,,,,,,,,2,,,,80,64
85740,note_on,0,0,5,,,,,,,,3,,,,81,92
85800,note_off,1320,0,14,,,,,,,,7,,,,59,64
85800,note_off,1320,0,20,,,,,,,,13,,,,71,64
85800,note_off,60,0,18,,,,,,,,11,,,,81,64
85800,note_off,1320,0,22,,,,,,,,15,,,,35,64
85800,note_off,1320,0,21,,,,,,,,14,,,,47,64
85800,note_on,0,0,18,,,,,,,,11,,,,80,108
85800,note_on,0,0,5,,,,,,,,3,,,,80,92
85800,note_off,1320,0,10,,,,,,,,5,,,,62,64
85800,note_off,1320,0,8,,,,,,,,4,,,,47,64
85800,note_off,60,0,5,,,,,,,,3,,,,81,64
85800,note_off,60,0,3,,,,,,,,2,,,,81,64
85800,note_on,0,0,3,,,,,,,,2,,,,80,92
85800,note_off,1320,0,4,,,,,,,,2,,,,74,64
85800,note_off,1320,0,13,,,,,,,,7,,,,62,64
85800,note_off,1320,0,16,,,,,,,,8,,,,35,64
85800,note_off,1320,0,2,,,,,,,,0,,,,74,64
85800,note_off,1320,0,17,,,,,,,,10,,,,50,64
85800,note_off,60,0,1,,,,,,,,0,,,,81,64
85800,note_off,1320,0,19,,,,,,,,12,,,,74,64
85800,note_off,1320,0,6,,,,,,,,3,,,,74,64
85800,note_off,1320,0,12,,,,,,,,6,,,,74,64
85800,note_off,1320,0,7,,,,,,,,4,,,,59,64
85800,note_on,0,0,1,,,,,,,,0,,,,80,92
85860,note_on,0,0,5,,,,,,,,3,,,,81,92
85860,note_off,60,0,1,,,,,,,,0,,,,80,64
85860,note_on,0,0,3,,,,,,,,2,,,,81,92
85860,note_off,60,0,18,,,,,,,,11,,,,80,64
85860,note_on,0,0,18,,,,,,,,11,,,,81,108
85860,note_on,0,0,1,,,,,,,,0,,,,81,92
85860,note_off,60,0,5,,,,,,,,3,,,,80,64
85860,note_off,60,0,3,,,,,,,,2,,,,80,64
85920,note_on,120,0,22,,,,,,,,15,,,,35,92
85920,note_off,60,0,3,,,,,,,,2,,,,81,64
85920,note_on,120,0,20,,,,,,,,13,,,,71,92
85920,note_on,120,0,16,,,,,,,,8,,,,35,92
85920,note_off,60,0,5,,,,,,,,3,,,,81,64
85920,note_on,120,0,6,,,,,,,,3,,,,74,92
85920,note_on,0,0,3,,,,,,,,2,,,,80,92
85920,note_on,120,0,2,,,,,,,,0,,,,74,92
85920,note_on,120,0,12,,,,,,,,6,,,,74,92
85920,note_on,120,0,19,,,,,,,,12,,,,74,92
85920,note_on,120,0,7,,,,,,,,4,,,,59,92
85920,note_on,120,0,14,,,,,,,,7,,,,59,92
85920,note_on,120,0,4,,,,,,,,2,,,,74,92
85920,note_on,0,0,5,,,,,,,,3,,,,80,92
85920,note_on,120,0,8,,,,,,,,4,,,,47,92
85920,note_on,120,0,10,,,,,,,,5,,,,62,92
85920,note_on,120,0,13,,,,,,,,7,,,,62,92
85920,note_on,0,0,1,,,,,,,,0,,,,80,92
85920,note_off,60,0,1,,,,,,,,0,,,,81,64
85920,note_off,60,0,18,,,,,,,,11,,,,81,64
85920,note_on,120,0,21,,,,,,,,14,,,,47,92
85920,note_on,0,0,18,,,,,,,,11,,,,80,108
85920,note_on,120,0,17,,,,,,,,10,,,,50,92
85980,note_on,0,0,5,,,,,,,,3,,,,81,92
85980,note_off,60,0,5,,,,,,,,3,,,,80,64
85980,note_off,60,0,18,,,,,,,,11,,,,80,64
85980,note_on,0,0,18,,,,,,,,11,,,,81,108
85980,note_on,0,0,1,,,,,,,,0,,,,81,92
85980,note_on,0,0,3,,,,,,,,2,,,,81,92
85980,note_off,60,0,3,,,,,,,,2,,,,80,64
85980,note_off,60,0,1,,,,,,,,0,,,,80,64
86040,note_on,0,0,18,,,,,,,,11,,,,80,108
86040,note_off,60,0,18,,,,,,,,11,,,,81,64
86040,note_on,0,0,1,,,,,,,,0,,,,80,92
86040,note_on,0,0,3,,,,,,,,2,,,,80,92
86040,note_off,60,0,3,,,,,,,,2,,,,81,64
86040,note_off,60,0,5,,,,,,,,3,,,,81,64
86040,note_on,0,0,5,,,,,,,,3,,,,80,92
86040,note_off,60,0,1,,,,,,,,0,,,,81,64
86100,note_on,0,0,5,,,,,,,,3,,,,81,92
86100,note_off,60,0,1,,,,,,,,0,,,,80,64
86100,note_on,0,0,3,,,,,,,,2,,,,81,92
86100,note_on,0,0,18,,,,,,,,11,,,,81,108
86100,note_off,60,0,18,,,,,,,,11,,,,80,64
86100,note_off,60,0,3,,,,,,,,2,,,,80,64
86100,note_on,0,0,1,,,,,,,,0,,,,81,92
86100,note_off,60,0,5,,,,,,,,3,,,,80,64
86160,note_off,60,0,18,,,,,,,,11,,,,81,64
86160,note_off,60,0,3,,,,,,,,2,,,,81,64
86160,note_off,60,0,5,,,,,,,,3,,,,81,64
86160,note_off,60,0,1,,,,,,,,0,,,,81,64
86160,note_on,0,0,18,,,,,,,,11,,,,80,108
86160,note_on,0,0,5,,,,,,,,3,,,,80,92
86160,note_on,0,0,1,,,,,,,,0,,,,80,92
86160,note_on,0,0,3,,,,,,,,2,,,,80,92
86220,note_off,60,0,18,,,,,,,,11,,,,80,64
86220,note_on,0,0,3,,,,,,,,2,,,,81,92
86220,note_on,0,0,1,,,,,,,,0,,,,81,92
86220,note_off,60,0,1,,,,,,,,0,,,,80,64
86220,note_off,60,0,3,,,,,,,,2,,,,80,64
86220,note_on,0,0,18,,,,,,,,11,,,,81,108
86220,note_on,0,0,5,,,,,,,,3,,,,81,92
86220,note_off,60,0,5,,,,,,,,3,,,,80,64
86280,note_off,60,0,18,,,,,,,,11,,,,81,64
86280,note_on,0,0,1,,,,,,,,0,,,,80,92
86280,note_off,60,0,3,,,,,,,,2,,,,81,64
86280,note_on,0,0,3,,,,,,,,2,,,,80,92
86280,note_off,60,0,1,,,,,,,,0,,,,81,64
86280,note_on,0,0,18,,,,,,,,11,,,,80,108
86280,note_off,60,0,5,,,,,,,,3,,,,81,64
86280,note_off,840,0,15,,,,,,,,7,,,,50,64
86280,note_off,840,0,11,,,,,,,,6,,,,80,64
86280,note_off,840,0,9,,,,,,,,5,,,,68,64
86280,note_on,0,0,5,,,,,,,,3,,,,80,92
86320,note_off,400,0,13,,,,,,,,7,,,,62,64
86320,note_off,400,0,17,,,,,,,,10,,,,50,64
86320,note_off,400,0,22,,,,,,,,15,,,,35,64
86320,note_off,400,0,16,,,,,,,,8,,,,35,64
86320,note_off,400,0,12,,,,,,,,6,,,,74,64
86320,note_off,400,0,2,,,,,,,,0,,,,74,64
86320,note_off,400,0,10,,,,,,,,5,,,,62,64
86320,note_off,400,0,21,,,,,,,,14,,,,47,64
86320,note_off,400,0,20,,,,,,,,13,,,,71,64
86320,note_off,400,0,4,,,,,,,,2,,,,74,64
86320,note_off,400,0,14,,,,,,,,7,,,,59,64
86320,note_off,400,0,7,,,,,,,,4,,,,59,64
86320,note_off,400,0,19,,,,,,,,12,,,,74,64
86320,note_off,400,0,6,,,,,,,,3,,,,74,64
86320,note_off,400,0,8,,,,,,,,4,,,,47,64
86340,note_on,0,0,18,,,,,,,,11,,,,81,108
86340,note_on,0,0,3,,,,,,,,2,,,,81,92
86340,note_off,60,0,3,,,,,,,,2,,,,80,64
86340,note_on,0,0,1,,,,,,,,0,,,,81,92
86340,note_on,0,0,5,,,,,,,,3,,,,81,92
86340,note_off,60,0,18,,,,,,,,11,,,,80,64
86340,note_off,60,0,5,,,,,,,,3,,,,80,64
86340,note_off,60,0,1,,,,,,,,0,,,,80,64
86395,note_off,55,0,3,,,,,,,,2,,,,81,64
86395,note_off,55,0,5,,,,,,,,3,,,,81,64
86395,note_off,55,0,1,,,,,,,,0,,,,81,64
86395,note_off,55,0,18,,,,,,,,11,,,,81,64
86400,note_on,5,0,3,,,,,,,,2,,,,81,92
86400,note_on,80,0,10,,,,,,,,5,,,,64,92
86400,note_on,80,0,8,,,,,,,,4,,,,45,92
86400,note_on,5,0,1,,,,,,,,0,,,,81,92
86400,note_on,120,0,11,,,,,,,,6,,,,81,92
86400,note_on,80,0,22,,,,,,,,15,,,,33,92
86400,note_on,120,0,15,,,,,,,,7,,,,57,92
86400,note_on,80,0,4,,,,,,,,2,,,,73,92
86400,note_on,80,0,21,,,,,,,,14,,,,45,92
86400,note_on,80,0,14,,,,,,,,7,,,,61,92
86400,note_on,80,0,6,,,,,,,,3,,,,73,92
86400,note_on,80,0,7,,,,,,,,4,,,,57,92
86400,note_on,80,0,2,,,,,,,,0,,,,73,92
86400,note_on,5,0,18,,,,,,,,11,,,,81,108
86400,note_on,80,0,20,,,,,,,,13,,,,64,92
86400,note_on,5,0,5,,,,,,,,3,,,,81,92
86400,note_on,120,0,9,,,,,,,,5,,,,69,92
86400,note_on,80,0,13,,,,,,,,7,,,,64,92
86400,note_on,80,0,16,,,,,,,,8,,,,33,92
86400,note_on,80,0,17,,,,,,,,10,,,,45,92
86400,note_on,80,0,19,,,,,,,,12,,,,73,92
86400,note_on,80,0,12,,,,,,,,6,,,,76,92
87720,note_off,1320,0,17,,,,,,,,10,,,,45,64
88200,note_off,1800,0,19,,,,,,,,12,,,,73,64
88200,note_off,1800,0,15,,,,,,,,7,,,,57,64
88200,note_off,1800,0,20,,,,,,,,13,,,,64,64
88200,note_off,1800,0,13,,,,,,,,7,,,,64,64
88200,note_off,1800,0,11,,,,,,,,6,,,,81,64
88200,note_off,1800,0,5,,,,,,,,3,,,,81,64
88200,note_off,1800,0,1,,,,,,,,0,,,,81,64
88200,note_off,1800,0,16,,,,,,,,8,,,,33,64
88200,note_off,1800,0,2,,,,,,,,0,,,,73,64
88200,note_off,1800,0,7,,,,,,,,4,,,,57,64
88200,note_off,1800,0,4,,,,,,,,2,,,,73,64
88200,note_off,1800,0,10,,,,,,,,5,,,,64,64
88200,note_off,1800,0,8,,,,,,,,4,,,,45,64
88200,note_off,1800,0,21,,,,,,,,14,,,,45,64
88200,note_off,1800,0,6,,,,,,,,3,,,,73,64
88200,note_off,1800,0,14,,,,,,,,7,,,,61,64
88200,note_off,1800,0,3,,,,,,,,2,,,,81,64
88200,note_off,1800,0,9,,,,,,,,5,,,,69,64
88200,note_off,1800,0,12,,,,,,,,6,,,,76,64
88200,note_off,1800,0,22,,,,,,,,15,,,,33,64
88200,note_off,1800,0,18,,,,,,,,11,,,,81,64
88320,time_signature,88320,1,0,,3,4,24,8,,,,,,,,
88800,note_on,600,0,6,,,,,,,,3,,,,66,75
88800,set_tempo,480,1,0,500000,,,,,,,,,,,,
88800,note_on,600,0,20,,,,,,,,13,,,,50,75
88800,note_on,600,0,8,,,,,,,,4,,,,38,75
88800,note_on,600,0,22,,,,,,,,15,,,,38,75
88800,note_on,600,0,21,,,,,,,,14,,,,50,75
88800,note_on,600,0,4,,,,,,,,2,,,,66,75
88800,note_on,600,0,1,,,,,,,,0,,,,69,75
88800,note_on,600,0,2,,,,,,,,0,,,,66,75
88800,note_on,600,0,19,,,,,,,,12,,,,66,75
88800,note_on,600,0,18,,,,,,,,11,,,,69,75
88800,note_on,600,0,3,,,,,,,,2,,,,69,75
88800,note_on,1080,0,17,,,,,,,,10,,,,50,75
88800,note_on,600,0,5,,,,,,,,3,,,,69,75
88800,note_on,600,0,7,,,,,,,,4,,,,50,75
89040,note_on,840,0,15,,,,,,,,7,,,,50,75
89040,note_on,840,0,12,,,,,,,,6,,,,66,75
89040,note_on,840,0,11,,,,,,,,6,,,,69,75
89040,note_on,840,0,16,,,,,,,,8,,,,38,75
89040,note_on,840,0,14,,,,,,,,7,,,,54,75
89040,note_on,840,0,13,,,,,,,,7,,,,57,75
89120,note_off,80,0,11,,,,,,,,6,,,,69,64
89120,note_off,80,0,13,,,,,,,,7,,,,57,64
89120,note_off,80,0,12,,,,,,,,6,,,,66,64
89120,note_off,80,0,16,,,,,,,,8,,,,38,64
89120,note_off,80,0,14,,,,,,,,7,,,,54,64
89120,note_off,80,0,15,,,,,,,,7,,,,50,64
89160,note_on,40,0,16,,,,,,,,8,,,,38,75
89160,note_on,40,0,12,,,,,,,,6,,,,66,75
89160,note_on,40,0,13,,,,,,,,7,,,,57,75
89160,note_on,40,0,15,,,,,,,,7,,,,50,75
89160,note_on,40,0,11,,,,,,,,6,,,,69,75
89160,note_on,40,0,14,,,,,,,,7,,,,54,75
89200,note_off,400,0,7,,,,,,,,4,,,,50,64
89200,note_off,400,0,18,,,,,,,,11,,,,69,64
89200,note_off,400,0,5,,,,,,,,3,,,,69,64
89200,note_off,400,0,17,,,,,,,,10,,,,50,64
89200,note_off,400,0,3,,,,,,,,2,,,,69,64
89200,note_off,400,0,6,,,,,,,,3,,,,66,64
89200,note_off,400,0,22,,,,,,,,15,,,,38,64
89200,note_off,400,0,19,,,,,,,,12,,,,66,64
89200,note_off,400,0,2,,,,,,,,0,,,,66,64
89200,note_off,400,0,1,,,,,,,,0,,,,69,64
89200,note_off,400,0,4,,,,,,,,2,,,,66,64
89200,note_off,400,0,21,,,,,,,,14,,,,50,64
89200,note_off,400,0,8,,,,,,,,4,,,,38,64
89200,note_off,400,0,20,,,,,,,,13,,,,50,64
89240,note_off,80,0,11,,,,,,,,6,,,,69,64
89240,note_off,80,0,16,,,,,,,,8,,,,38,64
89240,note_off,80,0,13,,,,,,,,7,,,,57,64
89240,note_off,80,0,14,,,,,,,,7,,,,54,64
89240,note_off,80,0,15,,,,,,,,7,,,,50,64
89240,note_off,80,0,12,,,,,,,,6,,,,66,64
89280,note_on,40,0,16,,,,,,,,8,,,,38,75
89280,note_on,40,0,15,,,,,,,,7,,,,50,75
89280,note_on,40,0,14,,,,,,,,7,,,,54,75
89280,note_on,40,0,13,,,,,,,,7,,,,57,75
89280,note_on,40,0,11,,,,,,,,6,,,,69,75
89280,note_on,40,0,12,,,,,,,,6,,,,66,75
89360,note_off,80,0,15,,,,,,,,7,,,,50,64
89360,note_off,80,0,14,,,,,,,,7,,,,54,64
89360,note_off,80,0,11,,,,,,,,6,,,,69,64
89360,note_off,80,0,16,,,,,,,,8,,,,38,64
89360,note_off,80,0,13,,,,,,,,7,,,,57,64
89360,note_off,80,0,12,,,,,,,,6,,,,66,64
89520,note_on,160,0,14,,,,,,,,7,,,,54,75
89520,note_on,160,0,15,,,,,,,,7,,,,50,75
89520,note_on,160,0,13,,,,,,,,7,,,,57,75
89520,note_on,160,0,12,,,,,,,,6,,,,66,75
89520,note_on,160,0,16,,,,,,,,8,,,,38,75
89520,note_on,160,0,11,,,,,,,,6,,,,69,75
89600,note_off,80,0,13,,,,,,,,7,,,,57,64
89600,note_off,80,0,15,,,,,,,,7,,,,50,64
89600,note_off,80,0,12,,,,,,,,6,,,,66,64
89600,note_off,80,0,14,,,,,,,,7,,,,54,64
89600,note_off,80,0,16,,,,,,,,8,,,,38,64
89600,note_off,80,0,11,,,,,,,,6,,,,69,64
89760,note_on,160,0,13,,,,,,,,7,,,,57,75
89760,note_on,160,0,12,,,,,,,,6,,,,66,75
89760,note_on,160,0,14,,,,,,,,7,,,,54,75
89760,note_on,160,0,11,,,,,,,,6,,,,69,75
89760,note_on,160,0,15,,,,,,,,7,,,,50,75
89760,note_on,160,0,16,,,,,,,,8,,,,38,75
89840,note_off,80,0,11,,,,,,,,6,,,,69,64
89840,note_off,80,0,13,,,,,,,,7,,,,57,64
89840,note_off,80,0,16,,,,,,,,8,,,,38,64
89840,note_off,80,0,14,,,,,,,,7,,,,54,64
89840,note_off,80,0,15,,,,,,,,7,,,,50,64
89840,note_off,80,0,12,,,,,,,,6,,,,66,64
90000,note_on,160,0,14,,,,,,,,7,,,,54,75
90000,note_on,160,0,16,,,,,,,,8,,,,38,75
90000,note_on,160,0,12,,,,,,,,6,,,,66,75
90000,note_on,160,0,15,,,,,,,,7,,,,50,75
90000,note_on,160,0,13,,,,,,,,7,,,,57,75
90000,note_on,160,0,11,,,,,,,,6,,,,69,75
90080,note_off,80,0,15,,,,,,,,7,,,,50,64
90080,note_off,80,0,16,,,,,,,,8,,,,38,64
90080,note_off,80,0,13,,,,,,,,7,,,,57,64
90080,note_off,80,0,14,,,,,,,,7,,,,54,64
90080,note_off,80,0,12,,,,,,,,6,,,,66,64
90080,note_off,80,0,11,,,,,,,,6,,,,69,64
90240,note_on,160,0,16,,,,,,,,8,,,,38,75
90240,note_on,160,0,12,,,,,,,,6,,,,69,75
90240,note_on,160,0,11,,,,,,,,6,,,,74,75
90240,note_on,160,0,15,,,,,,,,7,,,,54,75
90240,note_on,160,0,14,,,,,,,,7,,,,57,75
90240,note_on,160,0,13,,,,,,,,7,,,,62,75
90320,note_off,80,0,16,,,,,,,,8,,,,38,64
90320,note_off,80,0,11,,,,,,,,6,,,,74,64
90320,note_off,80,0,15,,,,,,,,7,,,,54,64
90320,note_off,80,0,12,,,,,,,,6,,,,69,64
90320,note_off,80,0,13,,,,,,,,7,,,,62,64
90320,note_off,80,0,14,,,,,,,,7,,,,57,64
90480,note_on,160,0,12,,,,,,,,6,,,,66,75
90480,note_on,160,0,11,,,,,,,,6,,,,69,75
90480,note_on,160,0,14,,,,,,,,7,,,,54,75
90480,note_on,160,0,16,,,,,,,,8,,,,38,75
90480,note_on,160,0,15,,,,,,,,7,,,,50,75
90480,note_on,160,0,13,,,,,,,,7,,,,57,75
90560,note_off,80,0,11,,,,,,,,6,,,,69,64
90560,note_off,80,0,14,,,,,,,,7,,,,54,64
90560,note_off,80,0,12,,,,,,,,6,,,,66,64
90560,note_off,80,0,15,,,,,,,,7,,,,50,64
90560,note_off,80,0,13,,,,,,,,7,,,,57,64
90560,note_off,80,0,16,,,,,,,,8,,,,38,64
90720,note_on,1520,0,21,,,,,,,,14,,,,50,45
90720,note_on,160,0,16,,,,,,,,8,,,,38,75
90720,note_on,1520,0,8,,,,,,,,4,,,,50,45
90720,note_on,1520,0,6,,,,,,,,3,,,,74,45
90720,note_on,160,0,14,,,,,,,,7,,,,54,75
90720,note_on,1520,0,5,,,,,,,,3,,,,78,45
90720,note_on,160,0,13,,,,,,,,7,,,,57,75
90720,note_on,1520,0,2,,,,,,,,0,,,,74,45
90720,note_on,1520,0,18,,,,,,,,11,,,,78,60
90720,note_on,1520,0,20,,,,,,,,13,,,,57,45
90720,note_on,160,0,11,,,,,,,,6,,,,69,75
90720,note_on,1520,0,7,,,,,,,,4,,,,57,45
90720,note_on,160,0,15,,,,,,,,7,,,,50,75
90720,note_on,1520,0,1,,,,,,,,0,,,,78,45
90720,note_on,1520,0,19,,,,,,,,12,,,,74,45
90720,note_on,1520,0,22,,,,,,,,15,,,,50,45
90720,note_on,1520,0,4,,,,,,,,2,,,,74,45
90720,note_on,1520,0,3,,,,,,,,2,,,,78,45
90720,note_on,160,0,12,,,,,,,,6,,,,66,75
91080,note_on,0,0,18,,,,,,,,11,,,,79,60
91080,note_off,360,0,18,,,,,,,,11,,,,78,64
91080,note_off,360,0,19,,,,,,,,12,,,,74,64
91080,note_on,0,0,19,,,,,,,,12,,,,76,45
91080,note_off,360,0,1,,,,,,,,0,,,,78,64
91080,note_off,360,0,6,,,,,,,,3,,,,74,64
91080,note_on,0,0,1,,,,,,,,0,,,,79,45
91080,note_on,0,0,5,,,,,,,,3,,,,79,45
91080,note_on,0,0,6,,,,,,,,3,,,,76,45
91080,note_off,360,0,2,,,,,,,,0,,,,74,64
91080,note_off,360,0,4,,,,,,,,2,,,,74,64
91080,note_on,0,0,2,,,,,,,,0,,,,76,45
91080,note_on,0,0,4,,,,,,,,2,,,,76,45
91080,note_off,360,0,5,,,,,,,,3,,,,78,64
91080,note_off,360,0,3,,,,,,,,2,,,,78,64
91080,note_on,0,0,3,,,,,,,,2,,,,79,45
91120,note_off,400,0,11,,,,,,,,6,,,,69,64
91120,note_off,400,0,12,,,,,,,,6,,,,66,64
91120,note_off,400,0,16,,,,,,,,8,,,,38,64
91120,note_off,400,0,22,,,,,,,,15,,,,50,64
91120,note_off,400,0,21,,,,,,,,14,,,,50,64
91120,note_off,400,0,20,,,,,,,,13,,,,57,64
91120,note_off,400,0,14,,,,,,,,7,,,,54,64
91120,note_off,400,0,7,,,,,,,,4,,,,57,64
91120,note_off,400,0,8,,,,,,,,4,,,,50,64
91120,note_off,400,0,15,,,,,,,,7,,,,50,64
91120,note_off,400,0,13,,,,,,,,7,,,,57,64
91195,note_off,115,0,1,,,,,,,,0,,,,79,64
91195,note_off,115,0,18,,,,,,,,11,,,,79,64
91195,note_off,115,0,3,,,,,,,,2,,,,79,64
91195,note_off,115,0,4,,,,,,,,2,,,,76,64
91195,note_off,115,0,6,,,,,,,,3,,,,76,64
91195,note_off,115,0,2,,,,,,,,0,,,,76,64
91195,note_off,115,0,19,,,,,,,,12,,,,76,64
91195,note_off,115,0,5,,,,,,,,3,,,,79,64
91200,note_on,5,0,18,,,,,,,,11,,,,81,60
91200,note_on,5,0,4,,,,,,,,2,,,,78,45
91200,note_on,80,0,20,,,,,,,,13,,,,62,45
91200,note_on,5,0,1,,,,,,,,0,,,,81,45
91200,note_on,5,0,19,,,,,,,,12,,,,78,45
91200,note_on,5,0,3,,,,,,,,2,,,,81,45
91200,note_on,5,0,5,,,,,,,,3,,,,81,45
91200,note_on,80,0,8,,,,,,,,4,,,,50,45
91200,note_on,80,0,21,,,,,,,,14,,,,50,45
91200,note_on,5,0,6,,,,,,,,3,,,,78,45
91200,note_on,5,0,2,,,,,,,,0,,,,78,45
91200,note_on,80,0,7,,,,,,,,4,,,,62,45
91200,note_on,80,0,22,,,,,,,,15,,,,50,45
91560,note_on,0,0,3,,,,,,,,2,,,,83,45
91560,note_off,360,0,5,,,,,,,,3,,,,81,64
91560,note_on,0,0,2,,,,,,,,0,,,,79,45
91560,note_off,360,0,2,,,,,,,,0,,,,78,64
91560,note_off,360,0,3,,,,,,,,2,,,,81,64
91560,note_on,0,0,18,,,,,,,,11,,,,83,60
91560,note_off,360,0,1,,,,,,,,0,,,,81,64
91560,note_on,0,0,5,,,,,,,,3,,,,83,45
91560,note_on,0,0,1,,,,,,,,0,,,,83,45
91560,note_off,360,0,18,,,,,,,,11,,,,81,64
91560,note_on,0,0,19,,,,,,,,12,,,,79,45
91560,note_off,360,0,19,,,,,,,,12,,,,78,64
91560,note_on,0,0,4,,,,,,,,2,,,,79,45
91560,note_off,360,0,4,,,,,,,,2,,,,78,64
91560,note_on,0,0,6,,,,,,,,3,,,,79,45
91560,note_off,360,0,6,,,,,,,,3,,,,78,64
91600,note_off,400,0,8,,,,,,,,4,,,,50,64
91600,note_off,400,0,22,,,,,,,,15,,,,50,64
91600,note_off,400,0,20,,,,,,,,13,,,,62,64
91600,note_off,400,0,7,,,,,,,,4,,,,62,64
91600,note_off,400,0,21,,,,,,,,14,,,,50,64
91675,note_off,115,0,6,,,,,,,,3,,,,79,64
91675,note_off,115,0,18,,,,,,,,11,,,,83,64
91675,note_off,115,0,4,,,,,,,,2,,,,79,64
91675,note_off,115,0,3,,,,,,,,2,,,,83,64
91675,note_off,115,0,1,,,,,,,,0,,,,83,64
91675,note_off,115,0,19,,,,,,,,12,,,,79,64
91675,note_off,115,0,2,,,,,,,,0,,,,79,64
91675,note_off,115,0,5,,,,,,,,3,,,,83,64
91680,note_on,5,0,6,,,,,,,,3,,,,76,45
91680,note_on,5,0,5,,,,,,,,3,,,,79,45
91680,note_on,80,0,20,,,,,,,,13,,,,59,45
91680,note_on,80,0,8,,,,,,,,4,,,,43,45
91680,note_on,5,0,4,,,,,,,,2,,,,76,45
91680,note_on,80,0,22,,,,,,,,15,,,,43,45
91680,note_on,5,0,2,,,,,,,,0,,,,76,45
91680,note_on,5,0,19,,,,,,,,12,,,,76,45
91680,note_on,80,0,7,,,,,,,,4,,,,59,45
91680,note_on,5,0,1,,,,,,,,0,,,,79,45
91680,note_on,5,0,18,,,,,,,,11,,,,79,60
91680,note_on,5,0,3,,,,,,,,2,,,,79,45
91680,note_on,80,0,21,,,,,,,,14,,,,43,45
92040,note_on,0,0,6,,,,,,,,3,,,,78,45
92040,note_on,0,0,1,,,,,,,,0,,,,81,45
92040,note_off,360,0,1,,,,,,,,0,,,,79,64
92040,note_on,0,0,5,,,,,,,,3,,,,81,45
92040,note_off,360,0,5,,,,,,,,3,,,,79,64
92040,note_off,360,0,6,,,,,,,,3,,,,76,64
92040,note_on,0,0,4,,,,,,,,2,,,,78,45
92040,note_off,360,0,18,,,,,,,,11,,,,79,64
92040,note_on,0,0,2,,,,,,,,0,,,,78,45
92040,note_on,0,0,18,,,,,,,,11,,,,81,60
92040,note_off,360,0,19,,,,,,,,12,,,,76,64
92040,note_on,0,0,3,,,,,,,,2,,,,81,45
92040,note_on,0,0,19,,,,,,,,12,,,,78,45
92040,note_off,360,0,3,,,,,,,,2,,,,79,64
92040,note_off,360,0,2,,,,,,,,0,,,,76,64
92040,note_off,360,0,4,,,,,,,,2,,,,76,64
92080,note_off,400,0,22,,,,,,,,15,,,,43,64
92080,note_off,400,0,7,,,,,,,,4,,,,59,64
92080,note_off,400,0,21,,,,,,,,14,,,,43,64
92080,note_off,400,0,8,,,,,,,,4,,,,43,64
92080,note_off,400,0,20,,,,,,,,13,,,,59,64
92155,note_off,115,0,6,,,,,,,,3,,,,78,64
92155,note_off,115,0,19,,,,,,,,12,,,,78,64
92155,note_off,115,0,2,,,,,,,,0,,,,78,64
92155,note_off,115,0,5,,,,,,,,3,,,,81,64
92155,note_off,115,0,4,,,,,,,,2,,,,78,64
92155,note_off,115,0,3,,,,,,,,2,,,,81,64
92155,note_off,115,0,18,,,,,,,,11,,,,81,64
92155,note_off,115,0,1,,,,,,,,0,,,,81,64
92160,note_on,5,0,1,,,,,,,,0,,,,79,45
92160,note_on,80,0,8,,,,,,,,4,,,,43,45
92160,note_on,5,0,5,,,,,,,,3,,,,79,45
92160,note_on,80,0,22,,,,,,,,15,,,,43,45
92160,note_on,80,0,21,,,,,,,,14,,,,43,45
92160,note_on,5,0,4,,,,,,,,2,,,,76,45
92160,note_on,5,0,2,,,,,,,,0,,,,76,45
92160,note_on,5,0,3,,,,,,,,2,,,,79,45
92160,note_on,5,0,18,,,,,,,,11,,,,79,60
92160,note_on,80,0,7,,,,,,,,4,,,,59,45
92160,note_on,80,0,20,,,,,,,,13,,,,59,45
92160,note_on,5,0,6,,,,,,,,3,,,,76,45
92160,note_on,5,0,19,,,,,,,,12,,,,76,45
92520,note_off,360,0,1,,,,,,,,0,,,,79,64
92520,note_on,0,0,5,,,,,,,,3,,,,81,45
92520,note_off,360,0,5,,,,,,,,3,,,,79,64
92520,note_on,0,0,19,,,,,,,,12,,,,78,45
92520,note_on,0,0,2,,,,,,,,0,,,,78,45
92520,note_off,360,0,2,,,,,,,,0,,,,76,64
92520,note_on,0,0,18,,,,,,,,11,,,,81,60
92520,note_off,360,0,18,,,,,,,,11,,,,79,64
92520,note_off,360,0,6,,,,,,,,3,,,,76,64
92520,note_on,0,0,1,,,,,,,,0,,,,81,45
92520,note_on,0,0,3,,,,,,,,2,,,,81,45
92520,note_off,360,0,3,,,,,,,,2,,,,79,64
92520,note_on,0,0,6,,,,,,,,3,,,,78,45
92520,note_off,360,0,19,,,,,,,,12,,,,76,64
92520,note_on,0,0,4,,,,,,,,2,,,,78,45
92520,note_off,360,0,4,,,,,,,,2,,,,76,64
92560,note_off,400,0,20,,,,,,,,13,,,,59,64
92560,note_off,400,0,7,,,,,,,,4,,,,59,64
92560,note_off,400,0,8,,,,,,,,4,,,,43,64
92560,note_off,400,0,22,,,,,,,,15,,,,43,64
92560,note_off,400,0,21,,,,,,,,14,,,,43,64
92635,note_off,115,0,2,,,,,,,,0,,,,78,64
92635,note_off,115,0,6,,,,,,,,3,,,,78,64
92635,note_off,115,0,5,,,,,,,,3,,,,81,64
92635,note_off,115,0,18,,,,,,,,11,,,,81,64
92635,note_off,115,0,3,,,,,,,,2,,,,81,64
92635,note_off,115,0,4,,,,,,,,2,,,,78,64
92635,note_off,115,0,1,,,,,,,,0,,,,81,64
92635,note_off,115,0,19,,,,,,,,12,,,,78,64
92640,note_on,5,0,1,,,,,,,,0,,,,78,45
92640,note_on,5,0,18,,,,,,,,11,,,,78,60
92640,note_on,80,0,20,,,,,,,,13,,,,59,45
92640,note_on,5,0,19,,,,,,,,12,,,,74,45
92640,note_on,5,0,5,,,,,,,,3,,,,78,45
92640,note_on,80,0,8,,,,,,,,4,,,,43,45
92640,note_on,80,0,22,,,,,,,,15,,,,43,45
92640,note_on,5,0,2,,,,,,,,0,,,,74,45
92640,note_on,5,0,3,,,,,,,,2,,,,78,45
92640,note_on,5,0,4,,,,,,,,2,,,,74,45
92640,note_on,80,0,21,,,,,,,,14,,,,43,45
92640,note_on,5,0,6,,,,,,,,3,,,,74,45
92640,note_on,80,0,7,,,,,,,,4,,,,59,45
93000,note_off,360,0,19,,,,,,,,12,,,,74,64
93000,note_off,360,0,5,,,,,,,,3,,,,78,64
93000,note_on,0,0,4,,,,,,,,2,,,,76,45
93000,note_on,0,0,2,,,,,,,,0,,,,76,45
93000,note_off,360,0,3,,,,,,,,2,,,,78,64
93000,note_on,0,0,3,,,,,,,,2,,,,79,45
93000,note_on,0,0,1,,,,,,,,0,,,,79,45
93000,note_off,360,0,18,,,,,,,,11,,,,78,64
93000,note_on,0,0,18,,,,,,,,11,,,,79,60
93000,note_off,360,0,1,,,,,,,,0,,,,78,64
93000,note_on,0,0,6,,,,,,,,3,,,,76,45
93000,note_off,360,0,2,,,,,,,,0,,,,74,64
93000,note_off,360,0,6,,,,,,,,3,,,,74,64
93000,note_on,0,0,19,,,,,,,,12,,,,76,45
93000,note_on,0,0,5,,,,,,,,3,,,,79,45
93000,note_off,360,0,4,,,,,,,,2,,,,74,64
93040,note_off,400,0,21,,,,,,,,14,,,,43,64
93040,note_off,400,0,20,,,,,,,,13,,,,59,64
93040,note_off,400,0,22,,,,,,,,15,,,,43,64
93040,note_off,400,0,8,,,,,,,,4,,,,43,64
93040,note_off,400,0,7,,,,,,,,4,,,,59,64
93115,note_off,115,0,5,,,,,,,,3,,,,79,64
93115,note_off,115,0,4,,,,,,,,2,,,,76,64
93115,note_off,115,0,3,,,,,,,,2,,,,79,64
93115,note_off,115,0,1,,,,,,,,0,,,,79,64
93115,note_off,115,0,2,,,,,,,,0,,,,76,64
93115,note_off,115,0,19,,,,,,,,12,,,,76,64
93115,note_off,115,0,18,,,,,,,,11,,,,79,64
93115,note_off,115,0,6,,,,,,,,3,,,,76,64
93120,note_on,80,0,20,,,,,,,,13,,,,61,45
93120,note_on,5,0,1,,,,,,,,0,,,,76,45
93120,note_on,80,0,22,,,,,,,,15,,,,45,45
93120,note_on,80,0,21,,,,,,,,14,,,,45,45
93120,note_on,5,0,3,,,,,,,,2,,,,76,45
93120,note_on,5,0,4,,,,,,,,2,,,,73,45
93120,note_on,5,0,2,,,,,,,,0,,,,73,45
93120,note_on,5,0,6,,,,,,,,3,,,,73,45
93120,note_on,80,0,7,,,,,,,,4,,,,61,45
93120,note_on,5,0,5,,,,,,,,3,,,,76,45
93120,note_on,5,0,18,,,,,,,,11,,,,76,60
93120,note_on,5,0,19,,,,,,,,12,,,,73,45
93120,note_on,80,0,8,,,,,,,,4,,,,45,45
93480,note_off,360,0,4,,,,,,,,2,,,,73,64
93480,note_on,0,0,4,,,,,,,,2,,,,74,45
93480,note_off,360,0,19,,,,,,,,12,,,,73,64
93480,note_off,360,0,3,,,,,,,,2,,,,76,64
93480,note_on,0,0,3,,,,,,,,2,,,,78,45
93480,note_on,0,0,2,,,,,,,,0,,,,74,45
93480,note_on,0,0,19,,,,,,,,12,,,,74,45
93480,note_on,0,0,6,,,,,,,,3,,,,74,45
93480,note_off,360,0,6,,,,,,,,3,,,,73,64
93480,note_off,360,0,2,,,,,,,,0,,,,73,64
93480,note_on,0,0,1,,,,,,,,0,,,,78,45
93480,note_off,360,0,5,,,,,,,,3,,,,76,64
93480,note_off,360,0,1,,,,,,,,0,,,,76,64
93480,note_off,360,0,18,,,,,,,,11,,,,76,64
93480,note_on,0,0,5,,,,,,,,3,,,,78,45
93480,note_on,0,0,18,,,,,,,,11,,,,78,60
93520,note_off,400,0,20,,,,,,,,13,,,,61,64
93520,note_off,400,0,22,,,,,,,,15,,,,45,64
93520,note_off,400,0,8,,,,,,,,4,,,,45,64
93520,note_off,400,0,21,,,,,,,,14,,,,45,64
93520,note_off,400,0,7,,,,,,,,4,,,,61,64
93595,note_off,115,0,6,,,,,,,,3,,,,74,64
93595,note_off,115,0,19,,,,,,,,12,,,,74,64
93595,note_off,115,0,2,,,,,,,,0,,,,74,64
93595,note_off,115,0,18,,,,,,,,11,,,,78,64
93595,note_off,115,0,4,,,,,,,,2,,,,74,64
93595,note_off,115,0,3,,,,,,,,2,,,,78,64
93595,note_off,115,0,1,,,,,,,,0,,,,78,64
93595,note_off,115,0,5,,,,,,,,3,,,,78,64
93600,note_on,80,0,20,,,,,,,,13,,,,52,45
93600,note_on,80,0,22,,,,,,,,15,,,,45,45
93600,note_on,5,0,19,,,,,,,,12,,,,73,45
93600,note_on,5,0,4,,,,,,,,2,,,,73,45
93600,note_on,5,0,18,,,,,,,,11,,,,76,60
93600,note_on,5,0,3,,,,,,,,2,,,,76,45
93600,note_on,80,0,21,,,,,,,,14,,,,45,45
93600,note_on,5,0,6,,,,,,,,3,,,,73,45
93600,note_on,5,0,2,,,,,,,,0,,,,73,45
93600,note_on,5,0,5,,,,,,,,3,,,,76,45
93600,note_on,80,0,8,,,,,,,,4,,,,45,45
93600,note_on,5,0,1,,,,,,,,0,,,,76,45
93600,note_on,80,0,7,,,,,,,,4,,,,52,45
93960,note_on,0,0,18,,,,,,,,11,,,,78,60
93960,note_off,360,0,18,,,,,,,,11,,,,76,64
93960,note_on,0,0,4,,,,,,,,2,,,,74,45
93960,note_off,360,0,4,,,,,,,,2,,,,73,64
93960,note_on,0,0,2,,,,,,,,0,,,,74,45
93960,note_on,0,0,5,,,,,,,,3,,,,78,45
93960,note_off,360,0,5,,,,,,,,3,,,,76,64
93960,note_off,360,0,1,,,,,,,,0,,,,76,64
93960,note_on,0,0,1,,,,,,,,0,,,,78,45
93960,note_off,360,0,6,,,,,,,,3,,,,73,64
93960,note_off,360,0,2,,,,,,,,0,,,,73,64
93960,note_on,0,0,6,,,,,,,,3,,,,74,45
93960,note_on,0,0,19,,,,,,,,12,,,,74,45
93960,note_off,360,0,3,,,,,,,,2,,,,76,64
93960,note_on,0,0,3,,,,,,,,2,,,,78,45
93960,note_off,360,0,19,,,,,,,,12,,,,73,64
94000,note_off,400,0,20,,,,,,,,13,,,,52,64
94000,note_off,400,0,8,,,,,,,,4,,,,45,64
94000,note_off,400,0,22,,,,,,,,15,,,,45,64
94000,note_off,400,0,7,,,,,,,,4,,,,52,64
94000,note_off,400,0,21,,,,,,,,14,,,,45,64
94075,note_off,115,0,3,,,,,,,,2,,,,78,64
94075,note_off,115,0,4,,,,,,,,2,,,,74,64
94075,note_off,115,0,6,,,,,,,,3,,,,74,64
94075,note_off,115,0,2,,,,,,,,0,,,,74,64
94075,note_off,115,0,18,,,,,,,,11,,,,78,64
94075,note_off,115,0,5,,,,,,,,3,,,,78,64
94075,note_off,115,0,19,,,,,,,,12,,,,74,64
94075,note_off,115,0,1,,,,,,,,0,,,,78,64
94080,note_on,80,0,21,,,,,,,,14,,,,45,45
94080,note_on,80,0,20,,,,,,,,13,,,,61,45
94080,note_on,5,0,4,,,,,,,,2,,,,76,45
94080,note_on,80,0,22,,,,,,,,15,,,,45,45
94080,note_on,80,0,8,,,,,,,,4,,,,45,45
94080,note_on,5,0,1,,,,,,,,0,,,,79,45
94080,note_on,5,0,5,,,,,,,,3,,,,79,45
94080,note_on,5,0,2,,,,,,,,0,,,,76,45
94080,note_on,5,0,3,,,,,,,,2,,,,79,45
94080,note_on,5,0,6,,,,,,,,3,,,,76,45
94080,note_on,80,0,7,,,,,,,,4,,,,61,45
94080,note_on,5,0,18,,,,,,,,11,,,,79,60
94080,note_on,5,0,19,,,,,,,,12,,,,76,45
94440,note_on,0,0,6,,,,,,,,3,,,,73,45
94440,note_on,0,0,3,,,,,,,,2,,,,81,45
94440,note_off,360,0,3,,,,,,,,2,,,,79,64
94440,note_off,360,0,2,,,,,,,,0,,,,76,64
94440,note_off,360,0,5,,,,,,,,3,,,,79,64
94440,note_on,0,0,5,,,,,,,,3,,,,81,45
94440,note_off,360,0,18,,,,,,,,11,,,,79,64
94440,note_on,0,0,18,,,,,,,,11,,,,81,60
94440,note_on,0,0,2,,,,,,,,0,,,,73,45
94440,note_on,0,0,4,,,,,,,,2,,,,73,45
94440,note_off,360,0,4,,,,,,,,2,,,,76,64
94440,note_off,360,0,6,,,,,,,,3,,,,76,64
94440,note_on,0,0,19,,,,,,,,12,,,,73,45
94440,note_off,360,0,19,,,,,,,,12,,,,76,64
94440,note_off,360,0,1,,,,,,,,0,,,,79,64
94440,note_on,0,0,1,,,,,,,,0,,,,81,45
94480,note_off,400,0,20,,,,,,,,13,,,,61,64
94480,note_off,400,0,21,,,,,,,,14,,,,45,64
94480,note_off,400,0,22,,,,,,,,15,,,,45,64
94480,note_off,400,0,7,,,,,,,,4,,,,61,64
94480,note_off,400,0,8,,,,,,,,4,,,,45,64
94555,note_off,115,0,19,,,,,,,,12,,,,73,64
94555,note_off,115,0,2,,,,,,,,0,,,,73,64
94555,note_off,115,0,4,,,,,,,,2,,,,73,64
94555,note_off,115,0,3,,,,,,,,2,,,,81,64
94555,note_off,115,0,18,,,,,,,,11,,,,81,64
94555,note_off,115,0,5,,,,,,,,3,,,,81,64
94555,note_off,115,0,6,,,,,,,,3,,,,73,64
94555,note_off,115,0,1,,,,,,,,0,,,,81,64
94560,note_on,80,0,22,,,,,,,,15,,,,38,45
94560,note_on,5,0,18,,,,,,,,11,,,,78,60
94560,note_on,5,0,2,,,,,,,,0,,,,74,45
94560,note_on,80,0,7,,,,,,,,4,,,,57,45
94560,note_on,80,0,20,,,,,,,,13,,,,57,45
94560,note_on,5,0,6,,,,,,,,3,,,,74,45
94560,note_on,80,0,8,,,,,,,,4,,,,38,45
94560,note_on,5,0,3,,,,,,,,2,,,,78,45
94560,note_on,5,0,19,,,,,,,,12,,,,74,45
94560,note_on,5,0,1,,,,,,,,0,,,,78,45
94560,note_on,5,0,4,,,,,,,,2,,,,74,45
94560,note_on,5,0,5,,,,,,,,3,,,,78,45
94560,note_on,80,0,21,,,,,,,,14,,,,50,45
94800,note_on,3680,0,14,,,,,,,,7,,,,54,75
94800,note_on,5600,0,17,,,,,,,,10,,,,50,75
94800,note_on,3680,0,15,,,,,,,,7,,,,50,75
94800,note_on,3680,0,16,,,,,,,,8,,,,38,75
94800,note_on,3680,0,13,,,,,,,,7,,,,57,75
94800,note_on,3680,0,11,,,,,,,,6,,,,69,75
94800,note_on,3680,0,12,,,,,,,,6,,,,66,75
94880,note_off,80,0,16,,,,,,,,8,,,,38,64
94880,note_off,80,0,13,,,,,,,,7,,,,57,64
94880,note_off,80,0,15,,,,,,,,7,,,,50,64
94880,note_off,80,0,14,,,,,,,,7,,,,54,64
94880,note_off,80,0,11,,,,,,,,6,,,,69,64
94880,note_off,80,0,12,,,,,,,,6,,,,66,64
94915,note_off,115,0,17,,,,,,,,10,,,,50,64
94920,note_on,40,0,13,,,,,,,,7,,,,57,75
94920,note_on,40,0,12,,,,,,,,6,,,,66,75
94920,note_on,40,0,11,,,,,,,,6,,,,69,75
94920,note_on,5,0,17,,,,,,,,10,,,,50,75
94920,note_on,40,0,14,,,,,,,,7,,,,54,75
94920,note_on,40,0,15,,,,,,,,7,,,,50,75
94920,note_on,40,0,16,,,,,,,,8,,,,38,75
94960,note_off,400,0,22,,,,,,,,15,,,,38,64
94960,note_off,400,0,8,,,,,,,,4,,,,38,64
94960,note_off,400,0,5,,,,,,,,3,,,,78,64
94960,note_off,400,0,21,,,,,,,,14,,,,50,64
94960,note_off,400,0,19,,,,,,,,12,,,,74,64
94960,note_off,400,0,4,,,,,,,,2,,,,74,64
94960,note_off,400,0,6,,,,,,,,3,,,,74,64
94960,note_off,400,0,3,,,,,,,,2,,,,78,64
94960,note_off,400,0,18,,,,,,,,11,,,,78,64
94960,note_off,400,0,20,,,,,,,,13,,,,57,64
94960,note_off,400,0,1,,,,,,,,0,,,,78,64
94960,note_off,400,0,2,,,,,,,,0,,,,74,64
94960,note_off,400,0,7,,,,,,,,4,,,,57,64
95000,note_off,80,0,16,,,,,,,,8,,,,38,64
95000,note_off,80,0,13,,,,,,,,7,,,,57,64
95000,note_off,80,0,14,,,,,,,,7,,,,54,64
95000,note_off,80,0,15,,,,,,,,7,,,,50,64
95000,note_off,80,0,12,,,,,,,,6,,,,66,64
95000,note_off,80,0,11,,,,,,,,6,,,,69,64
95035,note_off,115,0,17,,,,,,,,10,,,,50,64
95040,note_on,5,0,17,,,,,,,,10,,,,50,75
95040,note_on,40,0,14,,,,,,,,7,,,,54,75
95040,note_on,40,0,12,,,,,,,,6,,,,66,75
95040,note_on,40,0,16,,,,,,,,8,,,,38,75
95040,note_on,40,0,13,,,,,,,,7,,,,57,75
95040,note_on,40,0,11,,,,,,,,6,,,,69,75
95040,note_on,40,0,15,,,,,,,,7,,,,50,75
95120,note_off,80,0,12,,,,,,,,6,,,,66,64
95120,note_off,80,0,14,,,,,,,,7,,,,54,64
95120,note_off,80,0,16,,,,,,,,8,,,,38,64
95120,note_off,80,0,11,,,,,,,,6,,,,69,64
95120,note_off,80,0,15,,,,,,,,7,,,,50,64
95120,note_off,80,0,13,,,,,,,,7,,,,57,64
95275,note_off,235,0,17,,,,,,,,10,,,,50,64
95280,note_on,5,0,17,,,,,,,,10,,,,50,75
95280,note_on,160,0,12,,,,,,,,6,,,,66,75
95280,note_on,160,0,13,,,,,,,,7,,,,57,75
95280,note_on,160,0,14,,,,,,,,7,,,,54,75
95280,note_on,160,0,16,,,,,,,,8,,,,38,75
95280,note_on,160,0,11,,,,,,,,6,,,,69,75
95280,note_on,160,0,15,,,,,,,,7,,,,50,75
95360,note_off,80,0,11,,,,,,,,6,,,,69,64
95360,note_off,80,0,14,,,,,,,,7,,,,54,64
95360,note_off,80,0,15,,,,,,,,7,,,,50,64
95360,note_off,80,0,13,,,,,,,,7,,,,57,64
95360,note_off,80,0,16,,,,,,,,8,,,,38,64
95360,note_off,80,0,12,,,,,,,,6,,,,66,64
95515,note_off,235,0,17,,,,,,,,10,,,,50,64
95520,note_on,160,0,15,,,,,,,,7,,,,50,75
95520,note_on,160,0,16,,,,,,,,8,,,,38,75
95520,note_on,5,0,17,,,,,,,,10,,,,50,75
95520,note_on,160,0,11,,,,,,,,6,,,,69,75
95520,note_on,160,0,12,,,,,,,,6,,,,66,75
95520,note_on,160,0,14,,,,,,,,7,,,,54,75
95520,note_on,160,0,13,,,,,,,,7,,,,57,75
95600,note_off,80,0,11,,,,,,,,6,,,,69,64
95600,note_off,80,0,12,,,,,,,,6,,,,66,64
95600,note_off,80,0,16,,,,,,,,8,,,,38,64
95600,note_off,80,0,15,,,,,,,,7,,,,50,64
95600,note_off,80,0,14,,,,,,,,7,,,,54,64
95600,note_off,80,0,13,,,,,,,,7,,,,57,64
95755,note_off,235,0,17,,,,,,,,10,,,,50,64
95760,note_on,160,0,16,,,,,,,,8,,,,38,75
95760,note_on,5,0,17,,,,,,,,10,,,,50,75
95760,note_on,160,0,15,,,,,,,,7,,,,50,75
95760,note_on,160,0,14,,,,,,,,7,,,,54,75
95760,note_on,160,0,13,,,,,,,,7,,,,57,75
95760,note_on,160,0,11,,,,,,,,6,,,,69,75
95760,note_on,160,0,12,,,,,,,,6,,,,66,75
95840,note_off,80,0,13,,,,,,,,7,,,,57,64
95840,note_off,80,0,16,,,,,,,,8,,,,38,64
95840,note_off,80,0,12,,,,,,,,6,,,,66,64
95840,note_off,80,0,15,,,,,,,,7,,,,50,64
95840,note_off,80,0,11,,,,,,,,6,,,,69,64
95840,note_off,80,0,14,,,,,,,,7,,,,54,64
95995,note_off,235,0,17,,,,,,,,10,,,,50,64
96000,note_on,160,0,15,,,,,,,,7,,,,54,75
96000,note_on,5,0,17,,,,,,,,10,,,,50,75
96000,note_on,160,0,12,,,,,,,,6,,,,69,75
96000,note_on,160,0,13,,,,,,,,7,,,,62,75
96000,note_on,160,0,11,,,,,,,,6,,,,74,75
96000,note_on,160,0,16,,,,,,,,8,,,,38,75
96000,note_on,160,0,14,,,,,,,,7,,,,57,75
96080,note_off,80,0,11,,,,,,,,6,,,,74,64
96080,note_off,80,0,15,,,,,,,,7,,,,54,64
96080,note_off,80,0,16,,,,,,,,8,,,,38,64
96080,note_off,80,0,12,,,,,,,,6,,,,69,64
96080,note_off,80,0,14,,,,,,,,7,,,,57,64
96080,note_off,80,0,13,,,,,,,,7,,,,62,64
96235,note_off,235,0,17,,,,,,,,10,,,,50,64
96240,note_on,160,0,11,,,,,,,,6,,,,69,75
96240,note_on,160,0,12,,,,,,,,6,,,,66,75
96240,note_on,5,0,17,,,,,,,,10,,,,50,75
96240,note_on,160,0,13,,,,,,,,7,,,,57,75
96240,note_on,160,0,14,,,,,,,,7,,,,54,75
96240,note_on,160,0,15,,,,,,,,7,,,,50,75
96240,note_on,160,0,16,,,,,,,,8,,,,38,75
96320,note_off,80,0,11,,,,,,,,6,,,,69,64
96320,note_off,80,0,15,,,,,,,,7,,,,50,64
96320,note_off,80,0,12,,,,,,,,6,,,,66,64
96320,note_off,80,0,16,,,,,,,,8,,,,38,64
96320,note_off,80,0,14,,,,,,,,7,,,,54,64
96320,note_off,80,0,13,,,,,,,,7,,,,57,64
96475,note_off,235,0,17,,,,,,,,10,,,,50,64
96480,note_on,8280,0,9,,,,,,,,5,,,,66,45
96480,note_on,160,0,15,,,,,,,,7,,,,50,75
96480,note_on,5,0,17,,,,,,,,10,,,,50,75
96480,note_on,8280,0,10,,,,,,,,5,,,,62,45
96480,note_on,160,0,12,,,,,,,,6,,,,66,75
96480,note_on,160,0,14,,,,,,,,7,,,,54,75
96480,note_on,160,0,11,,,,,,,,6,,,,69,75
96480,note_on,160,0,16,,,,,,,,8,,,,38,75
96480,note_on,160,0,13,,,,,,,,7,,,,62,75
96840,note_on,0,0,10,,,,,,,,5,,,,64,45
96840,note_off,360,0,9,,,,,,,,5,,,,66,64
96840,note_on,0,0,9,,,,,,,,5,,,,67,45
96840,note_off,360,0,10,,,,,,,,5,,,,62,64
96880,note_off,400,0,16,,,,,,,,8,,,,38,64
96880,note_off,400,0,15,,,,,,,,7,,,,50,64
96880,note_off,400,0,17,,,,,,,,10,,,,50,64
96880,note_off,400,0,11,,,,,,,,6,,,,69,64
96880,note_off,400,0,12,,,,,,,,6,,,,66,64
96880,note_off,400,0,13,,,,,,,,7,,,,62,64
96880,note_off,400,0,14,,,,,,,,7,,,,54,64
96955,note_off,115,0,9,,,,,,,,5,,,,67,64
96955,note_off,115,0,10,,,,,,,,5,,,,64,64
96960,note_on,5,0,10,,,,,,,,5,,,,66,45
96960,note_on,5,0,9,,,,,,,,5,,,,69,45
96960,note_on,80,0,14,,,,,,,,7,,,,50,75
96960,note_on,80,0,13,,,,,,,,7,,,,62,75
97320,note_on,0,0,9,,,,,,,,5,,,,71,45
97320,note_off,360,0,10,,,,,,,,5,,,,66,64
97320,note_on,0,0,10,,,,,,,,5,,,,67,45
97320,note_off,360,0,9,,,,,,,,5,,,,69,64
97360,note_off,400,0,14,,,,,,,,7,,,,50,64
97360,note_off,400,0,13,,,,,,,,7,,,,62,64
97435,note_off,115,0,10,,,,,,,,5,,,,67,64
97435,note_off,115,0,9,,,,,,,,5,,,,71,64
97440,note_on,5,0,10,,,,,,,,5,,,,64,45
97440,note_on,80,0,14,,,,,,,,7,,,,45,75
97440,note_on,80,0,13,,,,,,,,7,,,,57,75
97440,note_on,5,0,9,,,,,,,,5,,,,67,45
97800,note_off,360,0,9,,,,,,,,5,,,,67,64
97800,note_on,0,0,9,,,,,,,,5,,,,69,45
97800,note_off,360,0,10,,,,,,,,5,,,,64,64
97800,note_on,0,0,10,,,,,,,,5,,,,66,45
97840,note_off,400,0,14,,,,,,,,7,,,,45,64
97840,note_off,400,0,13,,,,,,,,7,,,,57,64
97915,note_off,115,0,9,,,,,,,,5,,,,69,64
97915,note_off,115,0,10,,,,,,,,5,,,,66,64
97920,note_on,5,0,10,,,,,,,,5,,,,64,45
97920,note_on,5,0,9,,,,,,,,5,,,,67,45
97920,note_on,80,0,13,,,,,,,,7,,,,57,75
97920,note_on,80,0,14,,,,,,,,7,,,,45,75
98280,note_off,360,0,10,,,,,,,,5,,,,64,64
98280,note_off,360,0,9,,,,,,,,5,,,,67,64
98280,note_on,0,0,9,,,,,,,,5,,,,69,45
98280,note_on,0,0,10,,,,,,,,5,,,,66,45
98320,note_off,400,0,14,,,,,,,,7,,,,45,64
98320,note_off,400,0,13,,,,,,,,7,,,,57,64
98395,note_off,115,0,10,,,,,,,,5,,,,66,64
98395,note_off,115,0,9,,,,,,,,5,,,,69,64
98400,note_on,80,0,14,,,,,,,,7,,,,50,75
98400,note_on,5,0,9,,,,,,,,5,,,,66,45
98400,note_on,5,0,10,,,,,,,,5,,,,62,45
98400,note_on,80,0,13,,,,,,,,7,,,,50,75
98760,note_off,360,0,9,,,,,,,,5,,,,66,64
98760,note_on,0,0,9,,,,,,,,5,,,,67,45
98760,note_on,0,0,10,,,,,,,,5,,,,64,45
98760,note_off,360,0,10,,,,,,,,5,,,,62,64
98800,note_off,400,0,13,,,,,,,,7,,,,50,64
98800,note_off,400,0,14,,,,,,,,7,,,,50,64
98875,note_off,115,0,9,,,,,,,,5,,,,67,64
98875,note_off,115,0,10,,,,,,,,5,,,,64,64
98880,note_on,5,0,9,,,,,,,,5,,,,64,45
98880,note_on,80,0,14,,,,,,,,7,,,,45,75
98880,note_on,80,0,13,,,,,,,,7,,,,57,75
98880,note_on,5,0,10,,,,,,,,5,,,,61,45
99240,note_on,0,0,10,,,,,,,,5,,,,62,45
99240,note_on,0,0,9,,,,,,,,5,,,,66,45
99240,note_off,360,0,10,,,,,,,,5,,,,61,64
99240,note_off,360,0,9,,,,,,,,5,,,,64,64
99280,note_off,400,0,14,,,,,,,,7,,,,45,64
99280,note_off,400,0,13,,,,,,,,7,,,,57,64
99355,note_off,115,0,10,,,,,,,,5,,,,62,64
99355,note_off,115,0,9,,,,,,,,5,,,,66,64
99360,note_on,5,0,9,,,,,,,,5,,,,64,45
99360,note_on,80,0,13,,,,,,,,7,,,,57,75
99360,note_on,80,0,14,,,,,,,,7,,,,45,75
99360,note_on,5,0,10,,,,,,,,5,,,,61,45
99720,note_on,0,0,10,,,,,,,,5,,,,62,45
99720,note_on,0,0,9,,,,,,,,5,,,,66,45
99720,note_off,360,0,9,,,,,,,,5,,,,64,64
99720,note_off,360,0,10,,,,,,,,5,,,,61,64
99760,note_off,400,0,13,,,,,,,,7,,,,57,64
99760,note_off,400,0,14,,,,,,,,7,,,,45,64
99835,note_off,115,0,9,,,,,,,,5,,,,66,64
99835,note_off,115,0,10,,,,,,,,5,,,,62,64
99840,note_on,5,0,10,,,,,,,,5,,,,64,45
99840,note_on,80,0,13,,,,,,,,7,,,,57,75
99840,note_on,80,0,14,,,,,,,,7,,,,45,75
99840,note_on,5,0,9,,,,,,,,5,,,,67,45
100200,note_on,0,0,9,,,,,,,,5,,,,69,45
100200,note_off,360,0,9,,,,,,,,5,,,,67,64
100200,note_off,360,0,10,,,,,,,,5,,,,64,64
100200,note_on,0,0,10,,,,,,,,5,,,,61,45
100240,note_off,400,0,14,,,,,,,,7,,,,45,64
100240,note_off,400,0,13,,,,,,,,7,,,,57,64
100315,note_off,115,0,10,,,,,,,,5,,,,61,64
100315,note_off,115,0,9,,,,,,,,5,,,,69,64
100320,note_on,5,0,9,,,,,,,,5,,,,66,45
100320,note_on,5,0,10,,,,,,,,5,,,,62,45
100320,note_on,80,0,14,,,,,,,,7,,,,50,75
100320,note_on,80,0,13,,,,,,,,7,,,,50,75
100555,note_off,235,0,13,,,,,,,,7,,,,50,64
100555,note_off,235,0,14,,,,,,,,7,,,,50,64
100560,note_on,5600,0,1,,,,,,,,0,,,,86,75
100560,note_on,3680,0,15,,,,,,,,7,,,,50,75
100560,note_on,5600,0,6,,,,,,,,3,,,,69,75
100560,note_on,3680,0,16,,,,,,,,8,,,,38,75
100560,note_on,5,0,14,,,,,,,,7,,,,54,75
100560,note_on,3680,0,17,,,,,,,,10,,,,50,75
100560,note_on,5,0,13,,,,,,,,7,,,,57,75
100560,note_on,5600,0,3,,,,,,,,2,,,,74,75
100560,note_on,5600,0,2,,,,,,,,0,,,,81,75
100560,note_on,3680,0,11,,,,,,,,6,,,,74,75
100560,note_on,3680,0,12,,,,,,,,6,,,,69,75
100560,note_on,5600,0,5,,,,,,,,3,,,,74,75
100560,note_on,5600,0,7,,,,,,,,4,,,,54,75
100560,note_on,5600,0,8,,,,,,,,4,,,,50,75
100560,note_on,5600,0,4,,,,,,,,2,,,,69,75
100640,note_off,80,0,11,,,,,,,,6,,,,74,64
100640,note_off,80,0,12,,,,,,,,6,,,,69,64
100640,note_off,80,0,15,,,,,,,,7,,,,50,64
100640,note_off,80,0,7,,,,,,,,4,,,,54,64
100640,note_off,80,0,5,,,,,,,,3,,,,74,64
100640,note_off,80,0,2,,,,,,,,0,,,,81,64
100640,note_off,80,0,14,,,,,,,,7,,,,54,64
100640,note_off,80,0,6,,,,,,,,3,,,,69,64
100640,note_off,80,0,4,,,,,,,,2,,,,69,64
100640,note_off,80,0,8,,,,,,,,4,,,,50,64
100640,note_off,80,0,16,,,,,,,,8,,,,38,64
100640,note_off,80,0,1,,,,,,,,0,,,,86,64
100640,note_off,80,0,3,,,,,,,,2,,,,74,64
100640,note_off,80,0,17,,,,,,,,10,,,,50,64
100640,note_off,80,0,13,,,,,,,,7,,,,57,64
100680,note_on,40,0,1,,,,,,,,0,,,,86,75
100680,note_on,40,0,7,,,,,,,,4,,,,54,75
100680,note_on,40,0,12,,,,,,,,6,,,,69,75
100680,note_on,40,0,3,,,,,,,,2,,,,74,75
100680,note_on,40,0,11,,,,,,,,6,,,,74,75
100680,note_on,40,0,6,,,,,,,,3,,,,69,75
100680,note_on,40,0,2,,,,,,,,0,,,,81,75
100680,note_on,40,0,14,,,,,,,,7,,,,54,75
100680,note_on,40,0,15,,,,,,,,7,,,,50,75
100680,note_on,40,0,13,,,,,,,,7,,,,57,75
100680,note_on,40,0,5,,,,,,,,3,,,,74,75
100680,note_on,40,0,4,,,,,,,,2,,,,69,75
100680,note_on,40,0,8,,,,,,,,4,,,,50,75
100680,note_on,40,0,16,,,,,,,,8,,,,38,75
100680,note_on,40,0,17,,,,,,,,10,,,,50,75
100720,note_off,400,0,10,,,,,,,,5,,,,62,64
100720,note_off,400,0,9,,,,,,,,5,,,,66,64
100760,note_off,80,0,3,,,,,,,,2,,,,74,64
100760,note_off,80,0,16,,,,,,,,8,,,,38,64
100760,note_off,80,0,7,,,,,,,,4,,,,54,64
100760,note_off,80,0,4,,,,,,,,2,,,,69,64
100760,note_off,80,0,5,,,,,,,,3,,,,74,64
100760,note_off,80,0,14,,,,,,,,7,,,,54,64
100760,note_off,80,0,11,,,,,,,,6,,,,74,64
100760,note_off,80,0,2,,,,,,,,0,,,,81,64
100760,note_off,80,0,8,,,,,,,,4,,,,50,64
100760,note_off,80,0,15,,,,,,,,7,,,,50,64
100760,note_off,80,0,13,,,,,,,,7,,,,57,64
100760,note_off,80,0,17,,,,,,,,10,,,,50,64
100760,note_off,80,0,1,,,,,,,,0,,,,86,64
100760,note_off,80,0,6,,,,,,,,3,,,,69,64
100760,note_off,80,0,12,,,,,,,,6,,,,69,64
100800,note_on,40,0,8,,,,,,,,4,,,,50,75
100800,note_on,40,0,11,,,,,,,,6,,,,74,75
100800,note_on,40,0,13,,,,,,,,7,,,,57,75
100800,note_on,40,0,14,,,,,,,,7,,,,54,75
100800,note_on,40,0,1,,,,,,,,0,,,,86,75
100800,note_on,40,0,4,,,,,,,,2,,,,69,75
100800,note_on,40,0,5,,,,,,,,3,,,,74,75
100800,note_on,40,0,2,,,,,,,,0,,,,81,75
100800,note_on,40,0,12,,,,,,,,6,,,,69,75
100800,note_on,40,0,7,,,,,,,,4,,,,54,75
100800,note_on,40,0,17,,,,,,,,10,,,,50,75
100800,note_on,40,0,3,,,,,,,,2,,,,74,75
100800,note_on,40,0,15,,,,,,,,7,,,,50,75
100800,note_on,40,0,6,,,,,,,,3,,,,69,75
100800,note_on,40,0,16,,,,,,,,8,,,,38,75
100880,note_off,80,0,15,,,,,,,,7,,,,50,64
100880,note_off,80,0,12,,,,,,,,6,,,,69,64
100880,note_off,80,0,11,,,,,,,,6,,,,74,64
100880,note_off,80,0,17,,,,,,,,10,,,,50,64
100880,note_off,80,0,3,,,,,,,,2,,,,74,64
100880,note_off,80,0,14,,,,,,,,7,,,,54,64
100880,note_off,80,0,7,,,,,,,,4,,,,54,64
100880,note_off,80,0,1,,,,,,,,0,,,,86,64
100880,note_off,80,0,13,,,,,,,,7,,,,57,64
100880,note_off,80,0,4,,,,,,,,2,,,,69,64
100880,note_off,80,0,8,,,,,,,,4,,,,50,64
100880,note_off,80,0,2,,,,,,,,0,,,,81,64
100880,note_off,80,0,6,,,,,,,,3,,,,69,64
100880,note_off,80,0,16,,,,,,,,8,,,,38,64
100880,note_off,80,0,5,,,,,,,,3,,,,74,64
101040,note_on,160,0,14,,,,,,,,7,,,,54,75
101040,note_on,160,0,5,,,,,,,,3,,,,74,75
101040,note_on,160,0,2,,,,,,,,0,,,,81,75
101040,note_on,160,0,11,,,,,,,,6,,,,74,75
101040,note_on,160,0,12,,,,,,,,6,,,,69,75
101040,note_on,160,0,7,,,,,,,,4,,,,54,75
101040,note_on,160,0,15,,,,,,,,7,,,,50,75
101040,note_on,160,0,16,,,,,,,,8,,,,38,75
101040,note_on,160,0,17,,,,,,,,10,,,,50,75
101040,note_on,160,0,4,,,,,,,,2,,,,69,75
101040,note_on,160,0,8,,,,,,,,4,,,,50,75
101040,note_on,160,0,1,,,,,,,,0,,,,86,75
101040,note_on,160,0,6,,,,,,,,3,,,,69,75
101040,note_on,160,0,3,,,,,,,,2,,,,74,75
101040,note_on,160,0,13,,,,,,,,7,,,,57,75
101120,note_off,80,0,11,,,,,,,,6,,,,74,64
101120,note_off,80,0,17,,,,,,,,10,,,,50,64
101120,note_off,80,0,7,,,,,,,,4,,,,54,64
101120,note_off,80,0,5,,,,,,,,3,,,,74,64
101120,note_off,80,0,15,,,,,,,,7,,,,50,64
101120,note_off,80,0,4,,,,,,,,2,,,,69,64
101120,note_off,80,0,1,,,,,,,,0,,,,86,64
101120,note_off,80,0,12,,,,,,,,6,,,,69,64
101120,note_off,80,0,6,,,,,,,,3,,,,69,64
101120,note_off,80,0,3,,,,,,,,2,,,,74,64
101120,note_off,80,0,14,,,,,,,,7,,,,54,64
101120,note_off,80,0,2,,,,,,,,0,,,,81,64
101120,note_off,80,0,16,,,,,,,,8,,,,38,64
101120,note_off,80,0,8,,,,,,,,4,,,,50,64
101120,note_off,80,0,13,,,,,,,,7,,,,57,64
101280,note_on,160,0,13,,,,,,,,7,,,,57,75
101280,note_on,160,0,11,,,,,,,,6,,,,74,75
101280,note_on,160,0,14,,,,,,,,7,,,,54,75
101280,note_on,160,0,2,,,,,,,,0,,,,81,75
101280,note_on,160,0,5,,,,,,,,3,,,,74,75
101280,note_on,160,0,4,,,,,,,,2,,,,69,75
101280,note_on,160,0,7,,,,,,,,4,,,,54,75
101280,note_on,160,0,15,,,,,,,,7,,,,50,75
101280,note_on,160,0,8,,,,,,,,4,,,,50,75
101280,note_on,160,0,16,,,,,,,,8,,,,38,75
101280,note_on,160,0,1,,,,,,,,0,,,,86,75
101280,note_on,160,0,6,,,,,,,,3,,,,69,75
101280,note_on,160,0,12,,,,,,,,6,,,,69,75
101280,note_on,160,0,3,,,,,,,,2,,,,74,75
101280,note_on,160,0,17,,,,,,,,10,,,,50,75
101360,note_off,80,0,3,,,,,,,,2,,,,74,64
101360,note_off,80,0,2,,,,,,,,0,,,,81,64
101360,note_off,80,0,15,,,,,,,,7,,,,50,64
101360,note_off,80,0,6,,,,,,,,3,,,,69,64
101360,note_off,80,0,11,,,,,,,,6,,,,74,64
101360,note_off,80,0,14,,,,,,,,7,,,,54,64
101360,note_off,80,0,16,,,,,,,,8,,,,38,64
101360,note_off,80,0,4,,,,,,,,2,,,,69,64
101360,note_off,80,0,5,,,,,,,,3,,,,74,64
101360,note_off,80,0,7,,,,,,,,4,,,,54,64
101360,note_off,80,0,1,,,,,,,,0,,,,86,64
101360,note_off,80,0,8,,,,,,,,4,,,,50,64
101360,note_off,80,0,13,,,,,,,,7,,,,57,64
101360,note_off,80,0,12,,,,,,,,6,,,,69,64
101360,note_off,80,0,17,,,,,,,,10,,,,50,64
101520,note_on,160,0,17,,,,,,,,10,,,,50,75
101520,note_on,160,0,16,,,,,,,,8,,,,38,75
101520,note_on,160,0,2,,,,,,,,0,,,,81,75
101520,note_on,160,0,14,,,,,,,,7,,,,54,75
101520,note_on,160,0,3,,,,,,,,2,,,,74,75
101520,note_on,160,0,8,,,,,,,,4,,,,50,75
101520,note_on,160,0,13,,,,,,,,7,,,,57,75
101520,note_on,160,0,1,,,,,,,,0,,,,86,75
101520,note_on,160,0,6,,,,,,,,3,,,,69,75
101520,note_on,160,0,15,,,,,,,,7,,,,50,75
101520,note_on,160,0,7,,,,,,,,4,,,,54,75
101520,note_on,160,0,5,,,,,,,,3,,,,74,75
101520,note_on,160,0,4,,,,,,,,2,,,,69,75
101520,note_on,160,0,11,,,,,,,,6,,,,74,75
101520,note_on,160,0,12,,,,,,,,6,,,,69,75
101600,note_off,80,0,6,,,,,,,,3,,,,69,64
101600,note_off,80,0,14,,,,,,,,7,,,,54,64
101600,note_off,80,0,3,,,,,,,,2,,,,74,64
101600,note_off,80,0,4,,,,,,,,2,,,,69,64
101600,note_off,80,0,8,,,,,,,,4,,,,50,64
101600,note_off,80,0,16,,,,,,,,8,,,,38,64
101600,note_off,80,0,17,,,,,,,,10,,,,50,64
101600,note_off,80,0,5,,,,,,,,3,,,,74,64
101600,note_off,80,0,1,,,,,,,,0,,,,86,64
101600,note_off,80,0,7,,,,,,,,4,,,,54,64
101600,note_off,80,0,15,,,,,,,,7,,,,50,64
101600,note_off,80,0,2,,,,,,,,0,,,,81,64
101600,note_off,80,0,11,,,,,,,,6,,,,74,64
101600,note_off,80,0,13,,,,,,,,7,,,,57,64
101600,note_off,80,0,12,,,,,,,,6,,,,69,64
101760,note_on,160,0,17,,,,,,,,10,,,,50,75
101760,note_on,160,0,14,,,,,,,,7,,,,57,75
101760,note_on,160,0,4,,,,,,,,2,,,,74,75
101760,note_on,160,0,5,,,,,,,,3,,,,78,75
101760,note_on,160,0,6,,,,,,,,3,,,,74,75
101760,note_on,160,0,15,,,,,,,,7,,,,50,75
101760,note_on,160,0,12,,,,,,,,6,,,,74,75
101760,note_on,160,0,1,,,,,,,,0,,,,90,75
101760,note_on,160,0,7,,,,,,,,4,,,,57,75
101760,note_on,160,0,11,,,,,,,,6,,,,78,75
101760,note_on,160,0,13,,,,,,,,7,,,,62,75
101760,note_on,160,0,2,,,,,,,,0,,,,86,75
101760,note_on,160,0,3,,,,,,,,2,,,,78,75
101760,note_on,160,0,8,,,,,,,,4,,,,50,75
101760,note_on,160,0,16,,,,,,,,8,,,,38,75
101840,note_off,80,0,7,,,,,,,,4,,,,57,64
101840,note_off,80,0,11,,,,,,,,6,,,,78,64
101840,note_off,80,0,16,,,,,,,,8,,,,38,64
101840,note_off,80,0,17,,,,,,,,10,,,,50,64
101840,note_off,80,0,4,,,,,,,,2,,,,74,64
101840,note_off,80,0,14,,,,,,,,7,,,,57,64
101840,note_off,80,0,8,,,,,,,,4,,,,50,64
101840,note_off,80,0,5,,,,,,,,3,,,,78,64
101840,note_off,80,0,12,,,,,,,,6,,,,74,64
101840,note_off,80,0,15,,,,,,,,7,,,,50,64
101840,note_off,80,0,2,,,,,,,,0,,,,86,64
101840,note_off,80,0,13,,,,,,,,7,,,,62,64
101840,note_off,80,0,1,,,,,,,,0,,,,90,64
101840,note_off,80,0,3,,,,,,,,2,,,,78,64
101840,note_off,80,0,6,,,,,,,,3,,,,74,64
102000,note_on,160,0,7,,,,,,,,4,,,,57,75
102000,note_on,160,0,5,,,,,,,,3,,,,76,75
102000,note_on,160,0,12,,,,,,,,6,,,,73,75
102000,note_on,160,0,8,,,,,,,,4,,,,45,75
102000,note_on,160,0,13,,,,,,,,7,,,,61,75
102000,note_on,160,0,4,,,,,,,,2,,,,76,75
102000,note_on,160,0,11,,,,,,,,6,,,,76,75
102000,note_on,160,0,17,,,,,,,,10,,,,50,75
102000,note_on,160,0,16,,,,,,,,8,,,,38,75
102000,note_on,160,0,3,,,,,,,,2,,,,76,75
102000,note_on,160,0,2,,,,,,,,0,,,,88,75
102000,note_on,160,0,14,,,,,,,,7,,,,57,75
102000,note_on,160,0,1,,,,,,,,0,,,,88,75
102000,note_on,160,0,15,,,,,,,,7,,,,50,75
102000,note_on,160,0,6,,,,,,,,3,,,,76,75
102080,note_off,80,0,15,,,,,,,,7,,,,50,64
102080,note_off,80,0,17,,,,,,,,10,,,,50,64
102080,note_off,80,0,8,,,,,,,,4,,,,45,64
102080,note_off,80,0,3,,,,,,,,2,,,,76,64
102080,note_off,80,0,13,,,,,,,,7,,,,61,64
102080,note_off,80,0,2,,,,,,,,0,,,,88,64
102080,note_off,80,0,7,,,,,,,,4,,,,57,64
102080,note_off,80,0,12,,,,,,,,6,,,,73,64
102080,note_off,80,0,6,,,,,,,,3,,,,76,64
102080,note_off,80,0,5,,,,,,,,3,,,,76,64
102080,note_off,80,0,4,,,,,,,,2,,,,76,64
102080,note_off,80,0,11,,,,,,,,6,,,,76,64
102080,note_off,80,0,1,,,,,,,,0,,,,88,64
102080,note_off,80,0,14,,,,,,,,7,,,,57,64
102080,note_off,80,0,16,,,,,,,,8,,,,38,64
102240,note_on,7280,0,20,,,,,,,,13,,,,64,45
102240,note_on,160,0,2,,,,,,,,0,,,,69,45
102240,note_on,160,0,4,,,,,,,,2,,,,69,45
102240,note_on,160,0,13,,,,,,,,7,,,,61,75
102240,note_on,160,0,5,,,,,,,,3,,,,73,45
102240,note_on,160,0,3,,,,,,,,2,,,,73,45
102240,note_on,160,0,14,,,,,,,,7,,,,57,75
102240,note_on,160,0,8,,,,,,,,4,,,,57,45
102240,note_on,7280,0,21,,,,,,,,14,,,,57,45
102240,note_on,160,0,17,,,,,,,,10,,,,50,75
102240,note_on,160,0,16,,,,,,,,8,,,,38,75
102240,note_on,7280,0,18,,,,,,,,11,,,,73,60
102240,note_on,7280,0,22,,,,,,,,15,,,,45,45
102240,note_on,160,0,1,,,,,,,,0,,,,73,45
102240,note_on,7280,0,19,,,,,,,,12,,,,69,45
102240,note_on,160,0,6,,,,,,,,3,,,,69,45
102240,note_on,160,0,12,,,,,,,,6,,,,73,75
102240,note_on,160,0,7,,,,,,,,4,,,,64,45
102240,note_on,160,0,11,,,,,,,,6,,,,76,75
102240,note_on,160,0,15,,,,,,,,7,,,,50,75
102600,note_on,0,0,2,,,,,,,,0,,,,71,45
102600,note_on,0,0,5,,,,,,,,3,,,,74,45
102600,note_on,0,0,3,,,,,,,,2,,,,74,45
102600,note_off,360,0,6,,,,,,,,3,,,,69,64
102600,note_off,360,0,19,,,,,,,,12,,,,69,64
102600,note_on,0,0,6,,,,,,,,3,,,,71,45
102600,note_off,360,0,1,,,,,,,,0,,,,73,64
102600,note_off,360,0,18,,,,,,,,11,,,,73,64
102600,note_off,360,0,3,,,,,,,,2,,,,73,64
102600,note_on,0,0,19,,,,,,,,12,,,,71,45
102600,note_on,0,0,4,,,,,,,,2,,,,71,45
102600,note_off,360,0,4,,,,,,,,2,,,,69,64
102600,note_on,0,0,1,,,,,,,,0,,,,74,45
102600,note_on,0,0,18,,,,,,,,11,,,,74,60
102600,note_off,360,0,5,,,,,,,,3,,,,73,64
102600,note_off,360,0,2,,,,,,,,0,,,,69,64
102640,note_off,400,0,21,,,,,,,,14,,,,57,64
102640,note_off,400,0,15,,,,,,,,7,,,,50,64
102640,note_off,400,0,17,,,,,,,,10,,,,50,64
102640,note_off,400,0,8,,,,,,,,4,,,,57,64
102640,note_off,400,0,22,,,,,,,,15,,,,45,64
102640,note_off,400,0,13,,,,,,,,7,,,,61,64
102640,note_off,400,0,7,,,,,,,,4,,,,64,64
102640,note_off,400,0,12,,,,,,,,6,,,,73,64
102640,note_off,400,0,11,,,,,,,,6,,,,76,64
102640,note_off,400,0,20,,,,,,,,13,,,,64,64
102640,note_off,400,0,14,,,,,,,,7,,,,57,64
102640,note_off,400,0,16,,,,,,,,8,,,,38,64
102715,note_off,115,0,1,,,,,,,,0,,,,74,64
102715,note_off,115,0,2,,,,,,,,0,,,,71,64
102715,note_off,115,0,6,,,,,,,,3,,,,71,64
102715,note_off,115,0,19,,,,,,,,12,,,,71,64
102715,note_off,115,0,3,,,,,,,,2,,,,74,64
102715,note_off,115,0,18,,,,,,,,11,,,,74,64
102715,note_off,115,0,5,,,,,,,,3,,,,74,64
102715,note_off,115,0,4,,,,,,,,2,,,,71,64
102720,note_on,5,0,2,,,,,,,,0,,,,73,45
102720,note_on,80,0,7,,,,,,,,4,,,,69,45
102720,note_on,5,0,3,,,,,,,,2,,,,76,45
102720,note_on,80,0,8,,,,,,,,4,,,,57,45
102720,note_on,80,0,21,,,,,,,,14,,,,57,45
102720,note_on,5,0,4,,,,,,,,2,,,,73,45
102720,note_on,5,0,18,,,,,,,,11,,,,76,60
102720,note_on,5,0,19,,,,,,,,12,,,,73,45
102720,note_on,5,0,1,,,,,,,,0,,,,76,45
102720,note_on,80,0,22,,,,,,,,15,,,,45,45
102720,note_on,5,0,5,,,,,,,,3,,,,76,45
102720,note_on,5,0,6,,,,,,,,3,,,,73,45
102720,note_on,80,0,20,,,,,,,,13,,,,69,45
103080,note_off,360,0,19,,,,,,,,12,,,,73,64
103080,note_on,0,0,1,,,,,,,,0,,,,78,45
103080,note_on,0,0,4,,,,,,,,2,,,,74,45
103080,note_on,0,0,5,,,,,,,,3,,,,78,45
103080,note_off,360,0,4,,,,,,,,2,,,,73,64
103080,note_off,360,0,5,,,,,,,,3,,,,76,64
103080,note_off,360,0,6,,,,,,,,3,,,,73,64
103080,note_on,0,0,6,,,,,,,,3,,,,74,45
103080,note_off,360,0,3,,,,,,,,2,,,,76,64
103080,note_on,0,0,19,,,,,,,,12,,,,74,45
103080,note_off,360,0,1,,,,,,,,0,,,,76,64
103080,note_on,0,0,3,,,,,,,,2,,,,78,45
103080,note_on,0,0,18,,,,,,,,11,,,,78,60
103080,note_on,0,0,2,,,,,,,,0,,,,74,45
103080,note_off,360,0,2,,,,,,,,0,,,,73,64
103080,note_off,360,0,18,,,,,,,,11,,,,76,64
103120,note_off,400,0,7,,,,,,,,4,,,,69,64
103120,note_off,400,0,8,,,,,,,,4,,,,57,64
103120,note_off,400,0,20,,,,,,,,13,,,,69,64
103120,note_off,400,0,22,,,,,,,,15,,,,45,64
103120,note_off,400,0,21,,,,,,,,14,,,,57,64
103195,note_off,115,0,19,,,,,,,,12,,,,74,64
103195,note_off,115,0,18,,,,,,,,11,,,,78,64
103195,note_off,115,0,2,,,,,,,,0,,,,74,64
103195,note_off,115,0,3,,,,,,,,2,,,,78,64
103195,note_off,115,0,5,,,,,,,,3,,,,78,64
103195,note_off,115,0,4,,,,,,,,2,,,,74,64
103195,note_off,115,0,6,,,,,,,,3,,,,74,64
103195,note_off,115,0,1,,,,,,,,0,,,,78,64
103200,note_on,5,0,19,,,,,,,,12,,,,71,45
103200,note_on,80,0,8,,,,,,,,4,,,,50,45
103200,note_on,80,0,21,,,,,,,,14,,,,50,45
103200,note_on,80,0,22,,,,,,,,15,,,,38,45
103200,note_on,5,0,3,,,,,,,,2,,,,74,45
103200,note_on,80,0,20,,,,,,,,13,,,,66,45
103200,note_on,5,0,5,,,,,,,,3,,,,74,45
103200,note_on,80,0,7,,,,,,,,4,,,,66,45
103200,note_on,5,0,2,,,,,,,,0,,,,71,45
103200,note_on,5,0,1,,,,,,,,0,,,,74,45
103200,note_on,5,0,6,,,,,,,,3,,,,71,45
103200,note_on,5,0,18,,,,,,,,11,,,,74,60
103200,note_on,5,0,4,,,,,,,,2,,,,71,45
103560,note_on,0,0,2,,,,,,,,0,,,,73,45
103560,note_on,0,0,19,,,,,,,,12,,,,73,45
103560,note_off,360,0,19,,,,,,,,12,,,,71,64
103560,note_off,360,0,2,,,,,,,,0,,,,71,64
103560,note_off,360,0,6,,,,,,,,3,,,,71,64
103560,note_on,0,0,6,,,,,,,,3,,,,73,45
103560,note_on,0,0,5,,,,,,,,3,,,,76,45
103560,note_off,360,0,4,,,,,,,,2,,,,71,64
103560,note_off,360,0,5,,,,,,,,3,,,,74,64
103560,note_on,0,0,4,,,,,,,,2,,,,73,45
103560,note_on,0,0,18,,,,,,,,11,,,,76,60
103560,note_on,0,0,3,,,,,,,,2,,,,76,45
103560,note_off,360,0,3,,,,,,,,2,,,,74,64
103560,note_off,360,0,18,,,,,,,,11,,,,74,64
103560,note_on,0,0,1,,,,,,,,0,,,,76,45
103560,note_off,360,0,1,,,,,,,,0,,,,74,64
103600,note_off,400,0,7,,,,,,,,4,,,,66,64
103600,note_off,400,0,21,,,,,,,,14,,,,50,64
103600,note_off,400,0,20,,,,,,,,13,,,,66,64
103600,note_off,400,0,8,,,,,,,,4,,,,50,64
103600,note_off,400,0,22,,,,,,,,15,,,,38,64
103675,note_off,115,0,1,,,,,,,,0,,,,76,64
103675,note_off,115,0,4,,,,,,,,2,,,,73,64
103675,note_off,115,0,5,,,,,,,,3,,,,76,64
103675,note_off,115,0,19,,,,,,,,12,,,,73,64
103675,note_off,115,0,6,,,,,,,,3,,,,73,64
103675,note_off,115,0,3,,,,,,,,2,,,,76,64
103675,note_off,115,0,18,,,,,,,,11,,,,76,64
103675,note_off,115,0,2,,,,,,,,0,,,,73,64
103680,note_on,80,0,20,,,,,,,,13,,,,66,45
103680,note_on,80,0,7,,,,,,,,4,,,,66,45
103680,note_on,5,0,3,,,,,,,,2,,,,74,45
103680,note_on,5,0,6,,,,,,,,3,,,,71,45
103680,note_on,80,0,22,,,,,,,,15,,,,38,45
103680,note_on,5,0,1,,,,,,,,0,,,,74,45
103680,note_on,80,0,21,,,,,,,,14,,,,50,45
103680,note_on,5,0,19,,,,,,,,12,,,,71,45
103680,note_on,5,0,4,,,,,,,,2,,,,71,45
103680,note_on,5,0,18,,,,,,,,11,,,,74,60
103680,note_on,5,0,2,,,,,,,,0,,,,71,45
103680,note_on,5,0,5,,,,,,,,3,,,,74,45
103680,note_on,80,0,8,,,,,,,,4,,,,50,45
104040,note_on,0,0,2,,,,,,,,0,,,,73,45
104040,note_off,360,0,6,,,,,,,,3,,,,71,64
104040,note_off,360,0,2,,,,,,,,0,,,,71,64
104040,note_off,360,0,3,,,,,,,,2,,,,74,64
104040,note_on,0,0,3,,,,,,,,2,,,,76,45
104040,note_on,0,0,1,,,,,,,,0,,,,76,45
104040,note_off,360,0,5,,,,,,,,3,,,,74,64
104040,note_on,0,0,5,,,,,,,,3,,,,76,45
104040,note_off,360,0,1,,,,,,,,0,,,,74,64
104040,note_on,0,0,6,,,,,,,,3,,,,73,45
104040,note_off,360,0,18,,,,,,,,11,,,,74,64
104040,note_on,0,0,4,,,,,,,,2,,,,73,45
104040,note_off,360,0,4,,,,,,,,2,,,,71,64
104040,note_off,360,0,19,,,,,,,,12,,,,71,64
104040,note_on,0,0,19,,,,,,,,12,,,,73,45
104040,note_on,0,0,18,,,,,,,,11,,,,76,60
104080,note_off,400,0,20,,,,,,,,13,,,,66,64
104080,note_off,400,0,8,,,,,,,,4,,,,50,64
104080,note_off,400,0,7,,,,,,,,4,,,,66,64
104080,note_off,400,0,22,,,,,,,,15,,,,38,64
104080,note_off,400,0,21,,,,,,,,14,,,,50,64
104155,note_off,115,0,19,,,,,,,,12,,,,73,64
104155,note_off,115,0,2,,,,,,,,0,,,,73,64
104155,note_off,115,0,4,,,,,,,,2,,,,73,64
104155,note_off,115,0,5,,,,,,,,3,,,,76,64
104155,note_off,115,0,6,,,,,,,,3,,,,73,64
104155,note_off,115,0,3,,,,,,,,2,,,,76,64
104155,note_off,115,0,18,,,,,,,,11,,,,76,64
104155,note_off,115,0,1,,,,,,,,0,,,,76,64
104160,note_on,5,0,5,,,,,,,,3,,,,73,45
104160,note_on,5,0,3,,,,,,,,2,,,,73,45
104160,note_on,80,0,20,,,,,,,,13,,,,66,45
104160,note_on,5,0,4,,,,,,,,2,,,,69,45
104160,note_on,5,0,1,,,,,,,,0,,,,73,45
104160,note_on,5,0,19,,,,,,,,12,,,,69,45
104160,note_on,5,0,18,,,,,,,,11,,,,73,60
104160,note_on,80,0,8,,,,,,,,4,,,,50,45
104160,note_on,80,0,21,,,,,,,,14,,,,50,45
104160,note_on,80,0,22,,,,,,,,15,,,,38,45
104160,note_on,80,0,7,,,,,,,,4,,,,66,45
104160,note_on,5,0,6,,,,,,,,3,,,,69,45
104160,note_on,5,0,2,,,,,,,,0,,,,69,45
104520,note_off,360,0,5,,,,,,,,3,,,,73,64
104520,note_on,0,0,3,,,,,,,,2,,,,74,45
104520,note_off,360,0,3,,,,,,,,2,,,,73,64
104520,note_on,0,0,1,,,,,,,,0,,,,74,45
104520,note_on,0,0,19,,,,,,,,12,,,,71,45
104520,note_off,360,0,19,,,,,,,,12,,,,69,64
104520,note_off,360,0,2,,,,,,,,0,,,,69,64
104520,note_on,0,0,2,,,,,,,,0,,,,71,45
104520,note_on,0,0,18,,,,,,,,11,,,,74,60
104520,note_on,0,0,4,,,,,,,,2,,,,71,45
104520,note_off,360,0,18,,,,,,,,11,,,,73,64
104520,note_off,360,0,6,,,,,,,,3,,,,69,64
104520,note_on,0,0,6,,,,,,,,3,,,,71,45
104520,note_off,360,0,4,,,,,,,,2,,,,69,64
104520,note_off,360,0,1,,,,,,,,0,,,,73,64
104520,note_on,0,0,5,,,,,,,,3,,,,74,45
104560,note_off,400,0,7,,,,,,,,4,,,,66,64
104560,note_off,400,0,8,,,,,,,,4,,,,50,64
104560,note_off,400,0,20,,,,,,,,13,,,,66,64
104560,note_off,400,0,22,,,,,,,,15,,,,38,64
104560,note_off,400,0,21,,,,,,,,14,,,,50,64
104635,note_off,115,0,5,,,,,,,,3,,,,74,64
104635,note_off,115,0,3,,,,,,,,2,,,,74,64
104635,note_off,115,0,1,,,,,,,,0,,,,74,64
104635,note_off,115,0,19,,,,,,,,12,,,,71,64
104635,note_off,115,0,4,,,,,,,,2,,,,71,64
104635,note_off,115,0,2,,,,,,,,0,,,,71,64
104635,note_off,115,0,6,,,,,,,,3,,,,71,64
104635,note_off,115,0,18,,,,,,,,11,,,,74,64
104640,note_on,80,0,20,,,,,,,,13,,,,68,45
104640,note_on,5,0,3,,,,,,,,2,,,,71,45
104640,note_on,80,0,22,,,,,,,,15,,,,40,45
104640,note_on,5,0,2,,,,,,,,0,,,,68,45
104640,note_on,80,0,8,,,,,,,,4,,,,52,45
104640,note_on,5,0,1,,,,,,,,0,,,,71,45
104640,note_on,80,0,21,,,,,,,,14,,,,52,45
104640,note_on,80,0,7,,,,,,,,4,,,,68,45
104640,note_on,5,0,6,,,,,,,,3,,,,68,45
104640,note_on,5,0,18,,,,,,,,11,,,,71,60
104640,note_on,5,0,19,,,,,,,,12,,,,68,45
104640,note_on,5,0,5,,,,,,,,3,,,,71,45
104640,note_on,5,0,4,,,,,,,,2,,,,68,45
105000,note_off,360,0,6,,,,,,,,3,,,,68,64
105000,note_on,0,0,2,,,,,,,,0,,,,69,45
105000,note_on,0,0,18,,,,,,,,11,,,,73,60
105000,note_off,360,0,18,,,,,,,,11,,,,71,64
105000,note_off,360,0,19,,,,,,,,12,,,,68,64
105000,note_off,360,0,1,,,,,,,,0,,,,71,64
105000,note_off,360,0,2,,,,,,,,0,,,,68,64
105000,note_on,0,0,4,,,,,,,,2,,,,69,45
105000,note_off,360,0,5,,,,,,,,3,,,,71,64
105000,note_off,360,0,4,,,,,,,,2,,,,68,64
105000,note_on,0,0,3,,,,,,,,2,,,,73,45
105000,note_off,360,0,3,,,,,,,,2,,,,71,64
105000,note_on,0,0,1,,,,,,,,0,,,,73,45
105000,note_on,0,0,19,,,,,,,,12,,,,69,45
105000,note_on,0,0,6,,,,,,,,3,,,,69,45
105000,note_on,0,0,5,,,,,,,,3,,,,73,45
105040,note_off,400,0,7,,,,,,,,4,,,,68,64
105040,note_off,400,0,22,,,,,,,,15,,,,40,64
105040,note_off,400,0,21,,,,,,,,14,,,,52,64
105040,note_off,400,0,20,,,,,,,,13,,,,68,64
105040,note_off,400,0,8,,,,,,,,4,,,,52,64
105115,note_off,115,0,6,,,,,,,,3,,,,69,64
105115,note_off,115,0,4,,,,,,,,2,,,,69,64
105115,note_off,115,0,2,,,,,,,,0,,,,69,64
105115,note_off,115,0,1,,,,,,,,0,,,,73,64
105115,note_off,115,0,19,,,,,,,,12,,,,69,64
105115,note_off,115,0,5,,,,,,,,3,,,,73,64
105115,note_off,115,0,18,,,,,,,,11,,,,73,64
105115,note_off,115,0,3,,,,,,,,2,,,,73,64
105120,note_on,80,0,22,,,,,,,,15,,,,40,45
105120,note_on,80,0,7,,,,,,,,4,,,,68,45
105120,note_on,80,0,20,,,,,,,,13,,,,68,45
105120,note_on,5,0,4,,,,,,,,2,,,,68,45
105120,note_on,5,0,1,,,,,,,,0,,,,71,45
105120,note_on,5,0,19,,,,,,,,12,,,,68,45
105120,note_on,5,0,5,,,,,,,,3,,,,71,45
105120,note_on,5,0,3,,,,,,,,2,,,,71,45
105120,note_on,80,0,21,,,,,,,,14,,,,52,45
105120,note_on,5,0,18,,,,,,,,11,,,,71,60
105120,note_on,80,0,8,,,,,,,,4,,,,52,45
105120,note_on,5,0,2,,,,,,,,0,,,,68,45
105120,note_on,5,0,6,,,,,,,,3,,,,68,45
105480,note_off,360,0,1,,,,,,,,0,,,,71,64
105480,note_off,360,0,19,,,,,,,,12,,,,68,64
105480,note_on,0,0,2,,,,,,,,0,,,,69,45
105480,note_on,0,0,18,,,,,,,,11,,,,73,60
105480,note_off,360,0,18,,,,,,,,11,,,,71,64
105480,note_off,360,0,2,,,,,,,,0,,,,68,64
105480,note_on,0,0,1,,,,,,,,0,,,,73,45
105480,note_on,0,0,4,,,,,,,,2,,,,69,45
105480,note_on,0,0,19,,,,,,,,12,,,,69,45
105480,note_on,0,0,3,,,,,,,,2,,,,73,45
105480,note_off,360,0,3,,,,,,,,2,,,,71,64
105480,note_on,0,0,5,,,,,,,,3,,,,73,45
105480,note_off,360,0,5,,,,,,,,3,,,,71,64
105480,note_off,360,0,4,,,,,,,,2,,,,68,64
105480,note_off,360,0,6,,,,,,,,3,,,,68,64
105480,note_on,0,0,6,,,,,,,,3,,,,69,45
105520,note_off,400,0,7,,,,,,,,4,,,,68,64
105520,note_off,400,0,21,,,,,,,,14,,,,52,64
105520,note_off,400,0,8,,,,,,,,4,,,,52,64
105520,note_off,400,0,20,,,,,,,,13,,,,68,64
105520,note_off,400,0,22,,,,,,,,15,,,,40,64
105595,note_off,115,0,5,,,,,,,,3,,,,73,64
105595,note_off,115,0,6,,,,,,,,3,,,,69,64
105595,note_off,115,0,1,,,,,,,,0,,,,73,64
105595,note_off,115,0,19,,,,,,,,12,,,,69,64
105595,note_off,115,0,2,,,,,,,,0,,,,69,64
105595,note_off,115,0,3,,,,,,,,2,,,,73,64
105595,note_off,115,0,4,,,,,,,,2,,,,69,64
105595,note_off,115,0,18,,,,,,,,11,,,,73,64
105600,note_on,5,0,1,,,,,,,,0,,,,74,45
105600,note_on,5,0,4,,,,,,,,2,,,,71,45
105600,note_on,80,0,22,,,,,,,,15,,,,40,45
105600,note_on,80,0,7,,,,,,,,4,,,,68,45
105600,note_on,5,0,2,,,,,,,,0,,,,71,45
105600,note_on,5,0,18,,,,,,,,11,,,,74,60
105600,note_on,5,0,5,,,,,,,,3,,,,74,45
105600,note_on,80,0,20,,,,,,,,13,,,,68,45
105600,note_on,80,0,8,,,,,,,,4,,,,52,45
105600,note_on,5,0,6,,,,,,,,3,,,,71,45
105600,note_on,5,0,3,,,,,,,,2,,,,74,45
105600,note_on,80,0,21,,,,,,,,14,,,,52,45
105600,note_on,5,0,19,,,,,,,,12,,,,71,45
105960,note_on,0,0,3,,,,,,,,2,,,,76,45
105960,note_off,360,0,19,,,,,,,,12,,,,71,64
105960,note_on,0,0,19,,,,,,,,12,,,,68,45
105960,note_off,360,0,18,,,,,,,,11,,,,74,64
105960,note_on,0,0,18,,,,,,,,11,,,,76,60
105960,note_off,360,0,3,,,,,,,,2,,,,74,64
105960,note_off,360,0,2,,,,,,,,0,,,,71,64
105960,note_on,0,0,4,,,,,,,,2,,,,68,45
105960,note_off,360,0,4,,,,,,,,2,,,,71,64
105960,note_on,0,0,6,,,,,,,,3,,,,68,45
105960,note_off,360,0,6,,,,,,,,3,,,,71,64
105960,note_on,0,0,5,,,,,,,,3,,,,76,45
105960,note_off,360,0,5,,,,,,,,3,,,,74,64
105960,note_off,360,0,1,,,,,,,,0,,,,74,64
105960,note_on,0,0,2,,,,,,,,0,,,,68,45
105960,note_on,0,0,1,,,,,,,,0,,,,76,45
106000,note_off,400,0,7,,,,,,,,4,,,,68,64
106000,note_off,400,0,21,,,,,,,,14,,,,52,64
106000,note_off,400,0,8,,,,,,,,4,,,,52,64
106000,note_off,400,0,20,,,,,,,,13,,,,68,64
106000,note_off,400,0,22,,,,,,,,15,,,,40,64
106075,note_off,115,0,6,,,,,,,,3,,,,68,64
106075,note_off,115,0,5,,,,,,,,3,,,,76,64
106075,note_off,115,0,2,,,,,,,,0,,,,68,64
106075,note_off,115,0,18,,,,,,,,11,,,,76,64
106075,note_off,115,0,19,,,,,,,,12,,,,68,64
106075,note_off,115,0,4,,,,,,,,2,,,,68,64
106075,note_off,115,0,3,,,,,,,,2,,,,76,64
106075,note_off,115,0,1,,,,,,,,0,,,,76,64
106080,note_on,80,0,8,,,,,,,,4,,,,57,45
106080,note_on,5,0,2,,,,,,,,0,,,,69,45
106080,note_on,5,0,4,,,,,,,,2,,,,69,45
106080,note_on,80,0,21,,,,,,,,14,,,,57,45
106080,note_on,5,0,3,,,,,,,,2,,,,73,45
106080,note_on,5,0,1,,,,,,,,0,,,,73,45
106080,note_on,5,0,6,,,,,,,,3,,,,69,45
106080,note_on,80,0,20,,,,,,,,13,,,,64,45
106080,note_on,80,0,22,,,,,,,,15,,,,45,45
106080,note_on,5,0,18,,,,,,,,11,,,,73,60
106080,note_on,5,0,19,,,,,,,,12,,,,69,45
106080,note_on,5,0,5,,,,,,,,3,,,,73,45
106080,note_on,80,0,7,,,,,,,,4,,,,64,45
106315,note_off,235,0,7,,,,,,,,4,,,,64,64
106315,note_off,235,0,2,,,,,,,,0,,,,69,64
106315,note_off,235,0,5,,,,,,,,3,,,,73,64
106315,note_off,235,0,3,,,,,,,,2,,,,73,64
106315,note_off,235,0,8,,,,,,,,4,,,,57,64
106315,note_off,235,0,4,,,,,,,,2,,,,69,64
106315,note_off,235,0,1,,,,,,,,0,,,,73,64
106315,note_off,235,0,6,,,,,,,,3,,,,69,64
106320,note_on,3680,0,13,,,,,,,,7,,,,61,75
106320,note_on,5,0,5,,,,,,,,3,,,,76,75
106320,note_on,5,0,6,,,,,,,,3,,,,69,75
106320,note_on,3680,0,14,,,,,,,,7,,,,57,75
106320,note_on,3680,0,17,,,,,,,,10,,,,45,75
106320,note_on,5,0,7,,,,,,,,4,,,,57,75
106320,note_on,3680,0,12,,,,,,,,6,,,,69,75
106320,note_on,5,0,2,,,,,,,,0,,,,81,75
106320,note_on,5,0,8,,,,,,,,4,,,,45,75
106320,note_on,5,0,3,,,,,,,,2,,,,76,75
106320,note_on,5,0,4,,,,,,,,2,,,,69,75
106320,note_on,3680,0,11,,,,,,,,6,,,,76,75
106320,note_on,5,0,1,,,,,,,,0,,,,88,75
106400,note_off,80,0,5,,,,,,,,3,,,,76,64
106400,note_off,80,0,17,,,,,,,,10,,,,45,64
106400,note_off,80,0,6,,,,,,,,3,,,,69,64
106400,note_off,80,0,13,,,,,,,,7,,,,61,64
106400,note_off,80,0,2,,,,,,,,0,,,,81,64
106400,note_off,80,0,11,,,,,,,,6,,,,76,64
106400,note_off,80,0,4,,,,,,,,2,,,,69,64
106400,note_off,80,0,14,,,,,,,,7,,,,57,64
106400,note_off,80,0,3,,,,,,,,2,,,,76,64
106400,note_off,80,0,8,,,,,,,,4,,,,45,64
106400,note_off,80,0,1,,,,,,,,0,,,,88,64
106400,note_off,80,0,7,,,,,,,,4,,,,57,64
106400,note_off,80,0,12,,,,,,,,6,,,,69,64
106440,note_on,40,0,8,,,,,,,,4,,,,45,75
106440,note_on,40,0,14,,,,,,,,7,,,,57,75
106440,note_on,40,0,5,,,,,,,,3,,,,76,75
106440,note_on,40,0,1,,,,,,,,0,,,,88,75
106440,note_on,40,0,4,,,,,,,,2,,,,69,75
106440,note_on,40,0,6,,,,,,,,3,,,,69,75
106440,note_on,40,0,13,,,,,,,,7,,,,61,75
106440,note_on,40,0,17,,,,,,,,10,,,,45,75
106440,note_on,40,0,3,,,,,,,,2,,,,76,75
106440,note_on,40,0,2,,,,,,,,0,,,,81,75
106440,note_on,40,0,11,,,,,,,,6,,,,76,75
106440,note_on,40,0,12,,,,,,,,6,,,,69,75
106440,note_on,40,0,7,,,,,,,,4,,,,57,75
106480,note_off,400,0,19,,,,,,,,12,,,,69,64
106480,note_off,400,0,20,,,,,,,,13,,,,64,64
106480,note_off,400,0,18,,,,,,,,11,,,,73,64
106480,note_off,400,0,21,,,,,,,,14,,,,57,64
106480,note_off,400,0,22,,,,,,,,15,,,,45,64
106520,note_off,80,0,17,,,,,,,,10,,,,45,64
106520,note_off,80,0,3,,,,,,,,2,,,,76,64
106520,note_off,80,0,6,,,,,,,,3,,,,69,64
106520,note_off,80,0,5,,,,,,,,3,,,,76,64
106520,note_off,80,0,7,,,,,,,,4,,,,57,64
106520,note_off,80,0,13,,,,,,,,7,,,,61,64
106520,note_off,80,0,4,,,,,,,,2,,,,69,64
106520,note_off,80,0,2,,,,,,,,0,,,,81,64
106520,note_off,80,0,11,,,,,,,,6,,,,76,64
106520,note_off,80,0,8,,,,,,,,4,,,,45,64
106520,note_off,80,0,1,,,,,,,,0,,,,88,64
106520,note_off,80,0,14,,,,,,,,7,,,,57,64
106520,note_off,80,0,12,,,,,,,,6,,,,69,64
106560,note_on,40,0,5,,,,,,,,3,,,,76,75
106560,note_on,40,0,4,,,,,,,,2,,,,69,75
106560,note_on,40,0,14,,,,,,,,7,,,,57,75
106560,note_on,40,0,8,,,,,,,,4,,,,45,75
106560,note_on,40,0,2,,,,,,,,0,,,,81,75
106560,note_on,40,0,17,,,,,,,,10,,,,45,75
106560,note_on,40,0,3,,,,,,,,2,,,,76,75
106560,note_on,40,0,6,,,,,,,,3,,,,69,75
106560,note_on,40,0,1,,,,,,,,0,,,,88,75
106560,note_on,40,0,11,,,,,,,,6,,,,76,75
106560,note_on,40,0,12,,,,,,,,6,,,,69,75
106560,note_on,40,0,7,,,,,,,,4,,,,57,75
106560,note_on,40,0,13,,,,,,,,7,,,,61,75
106640,note_off,80,0,12,,,,,,,,6,,,,69,64
106640,note_off,80,0,8,,,,,,,,4,,,,45,64
106640,note_off,80,0,3,,,,,,,,2,,,,76,64
106640,note_off,80,0,11,,,,,,,,6,,,,76,64
106640,note_off,80,0,14,,,,,,,,7,,,,57,64
106640,note_off,80,0,7,,,,,,,,4,,,,57,64
106640,note_off,80,0,1,,,,,,,,0,,,,88,64
106640,note_off,80,0,5,,,,,,,,3,,,,76,64
106640,note_off,80,0,4,,,,,,,,2,,,,69,64
106640,note_off,80,0,6,,,,,,,,3,,,,69,64
106640,note_off,80,0,17,,,,,,,,10,,,,45,64
106640,note_off,80,0,2,,,,,,,,0,,,,81,64
106640,note_off,80,0,13,,,,,,,,7,,,,61,64
106800,note_on,160,0,8,,,,,,,,4,,,,45,75
106800,note_on,160,0,17,,,,,,,,10,,,,45,75
106800,note_on,160,0,14,,,,,,,,7,,,,57,75
106800,note_on,160,0,5,,,,,,,,3,,,,76,75
106800,note_on,160,0,3,,,,,,,,2,,,,76,75
106800,note_on,160,0,1,,,,,,,,0,,,,88,75
106800,note_on,160,0,11,,,,,,,,6,,,,76,75
106800,note_on,160,0,2,,,,,,,,0,,,,81,75
106800,note_on,160,0,7,,,,,,,,4,,,,57,75
106800,note_on,160,0,13,,,,,,,,7,,,,61,75
106800,note_on,160,0,4,,,,,,,,2,,,,69,75
106800,note_on,160,0,12,,,,,,,,6,,,,69,75
106800,note_on,160,0,6,,,,,,,,3,,,,69,75
106880,note_off,80,0,7,,,,,,,,4,,,,57,64
106880,note_off,80,0,5,,,,,,,,3,,,,76,64
106880,note_off,80,0,4,,,,,,,,2,,,,69,64
106880,note_off,80,0,3,,,,,,,,2,,,,76,64
106880,note_off,80,0,17,,,,,,,,10,,,,45,64
106880,note_off,80,0,1,,,,,,,,0,,,,88,64
106880,note_off,80,0,8,,,,,,,,4,,,,45,64
106880,note_off,80,0,11,,,,,,,,6,,,,76,64
106880,note_off,80,0,13,,,,,,,,7,,,,61,64
106880,note_off,80,0,14,,,,,,,,7,,,,57,64
106880,note_off,80,0,2,,,,,,,,0,,,,81,64
106880,note_off,80,0,6,,,,,,,,3,,,,69,64
106880,note_off,80,0,12,,,,,,,,6,,,,69,64
107040,note_on,160,0,4,,,,,,,,2,,,,76,75
107040,note_on,160,0,13,,,,,,,,7,,,,61,75
107040,note_on,160,0,8,,,,,,,,4,,,,45,75
107040,note_on,160,0,17,,,,,,,,10,,,,45,75
107040,note_on,160,0,12,,,,,,,,6,,,,76,75
107040,note_on,160,0,1,,,,,,,,0,,,,93,75
107040,note_on,160,0,14,,,,,,,,7,,,,57,75
107040,note_on,160,0,3,,,,,,,,2,,,,81,75
107040,note_on,160,0,7,,,,,,,,4,,,,57,75
107040,note_on,160,0,2,,,,,,,,0,,,,88,75
107040,note_on,160,0,5,,,,,,,,3,,,,81,75
107040,note_on,160,0,6,,,,,,,,3,,,,76,75
107040,note_on,160,0,11,,,,,,,,6,,,,81,75
107120,note_off,80,0,5,,,,,,,,3,,,,81,64
107120,note_off,80,0,17,,,,,,,,10,,,,45,64
107120,note_off,80,0,1,,,,,,,,0,,,,93,64
107120,note_off,80,0,3,,,,,,,,2,,,,81,64
107120,note_off,80,0,13,,,,,,,,7,,,,61,64
107120,note_off,80,0,14,,,,,,,,7,,,,57,64
107120,note_off,80,0,2,,,,,,,,0,,,,88,64
107120,note_off,80,0,7,,,,,,,,4,,,,57,64
107120,note_off,80,0,8,,,,,,,,4,,,,45,64
107120,note_off,80,0,4,,,,,,,,2,,,,76,64
107120,note_off,80,0,12,,,,,,,,6,,,,76,64
107120,note_off,80,0,11,,,,,,,,6,,,,81,64
107120,note_off,80,0,6,,,,,,,,3,,,,76,64
107280,note_on,160,0,17,,,,,,,,10,,,,45,75
107280,note_on,160,0,6,,,,,,,,3,,,,69,75
107280,note_on,160,0,8,,,,,,,,4,,,,45,75
107280,note_on,160,0,13,,,,,,,,7,,,,61,75
107280,note_on,160,0,14,,,,,,,,7,,,,57,75
107280,note_on,160,0,3,,,,,,,,2,,,,76,75
107280,note_on,160,0,11,,,,,,,,6,,,,76,75
107280,note_on,160,0,2,,,,,,,,0,,,,81,75
107280,note_on,160,0,7,,,,,,,,4,,,,57,75
107280,note_on,160,0,12,,,,,,,,6,,,,69,75
107280,note_on,160,0,4,,,,,,,,2,,,,69,75
107280,note_on,160,0,1,,,,,,,,0,,,,88,75
107280,note_on,160,0,5,,,,,,,,3,,,,76,75
107360,note_off,80,0,17,,,,,,,,10,,,,45,64
107360,note_off,80,0,8,,,,,,,,4,,,,45,64
107360,note_off,80,0,7,,,,,,,,4,,,,57,64
107360,note_off,80,0,2,,,,,,,,0,,,,81,64
107360,note_off,80,0,11,,,,,,,,6,,,,76,64
107360,note_off,80,0,3,,,,,,,,2,,,,76,64
107360,note_off,80,0,4,,,,,,,,2,,,,69,64
107360,note_off,80,0,1,,,,,,,,0,,,,88,64
107360,note_off,80,0,12,,,,,,,,6,,,,69,64
107360,note_off,80,0,13,,,,,,,,7,,,,61,64
107360,note_off,80,0,6,,,,,,,,3,,,,69,64
107360,note_off,80,0,5,,,,,,,,3,,,,76,64
107360,note_off,80,0,14,,,,,,,,7,,,,57,64
107520,note_on,160,0,1,,,,,,,,0,,,,90,75
107520,note_on,160,0,17,,,,,,,,10,,,,50,75
107520,note_on,160,0,3,,,,,,,,2,,,,78,75
107520,note_on,160,0,8,,,,,,,,4,,,,50,75
107520,note_on,160,0,6,,,,,,,,3,,,,69,75
107520,note_on,160,0,11,,,,,,,,6,,,,78,75
107520,note_on,160,0,5,,,,,,,,3,,,,78,75
107520,note_on,160,0,2,,,,,,,,0,,,,81,75
107520,note_on,160,0,4,,,,,,,,2,,,,69,75
107520,note_on,160,0,14,,,,,,,,7,,,,57,75
107520,note_on,160,0,7,,,,,,,,4,,,,62,75
107520,note_on,160,0,13,,,,,,,,7,,,,62,75
107520,note_on,160,0,12,,,,,,,,6,,,,69,75
107600,note_off,80,0,1,,,,,,,,0,,,,90,64
107600,note_off,80,0,11,,,,,,,,6,,,,78,64
107600,note_off,80,0,17,,,,,,,,10,,,,50,64
107600,note_off,80,0,13,,,,,,,,7,,,,62,64
107600,note_off,80,0,14,,,,,,,,7,,,,57,64
107600,note_off,80,0,6,,,,,,,,3,,,,69,64
107600,note_off,80,0,12,,,,,,,,6,,,,69,64
107600,note_off,80,0,3,,,,,,,,2,,,,78,64
107600,note_off,80,0,5,,,,,,,,3,,,,78,64
107600,note_off,80,0,7,,,,,,,,4,,,,62,64
107600,note_off,80,0,8,,,,,,,,4,,,,50,64
107600,note_off,80,0,4,,,,,,,,2,,,,69,64
107600,note_off,80,0,2,,,,,,,,0,,,,81,64
107760,note_on,160,0,3,,,,,,,,2,,,,76,75
107760,note_on,160,0,12,,,,,,,,6,,,,69,75
107760,note_on,160,0,1,,,,,,,,0,,,,88,75
107760,note_on,160,0,13,,,,,,,,7,,,,61,75
107760,note_on,160,0,5,,,,,,,,3,,,,76,75
107760,note_on,160,0,8,,,,,,,,4,,,,45,75
107760,note_on,160,0,6,,,,,,,,3,,,,69,75
107760,note_on,160,0,14,,,,,,,,7,,,,57,75
107760,note_on,160,0,17,,,,,,,,10,,,,45,75
107760,note_on,160,0,7,,,,,,,,4,,,,57,75
107760,note_on,160,0,11,,,,,,,,6,,,,76,75
107760,note_on,160,0,4,,,,,,,,2,,,,69,75
107760,note_on,160,0,2,,,,,,,,0,,,,81,75
107840,note_off,80,0,5,,,,,,,,3,,,,76,64
107840,note_off,80,0,11,,,,,,,,6,,,,76,64
107840,note_off,80,0,6,,,,,,,,3,,,,69,64
107840,note_off,80,0,1,,,,,,,,0,,,,88,64
107840,note_off,80,0,7,,,,,,,,4,,,,57,64
107840,note_off,80,0,2,,,,,,,,0,,,,81,64
107840,note_off,80,0,4,,,,,,,,2,,,,69,64
107840,note_off,80,0,12,,,,,,,,6,,,,69,64
107840,note_off,80,0,17,,,,,,,,10,,,,45,64
107840,note_off,80,0,3,,,,,,,,2,,,,76,64
107840,note_off,80,0,8,,,,,,,,4,,,,45,64
107840,note_off,80,0,14,,,,,,,,7,,,,57,64
107840,note_off,80,0,13,,,,,,,,7,,,,61,64
108000,note_on,160,0,13,,,,,,,,7,,,,61,75
108000,note_on,160,0,17,,,,,,,,10,,,,45,75
108000,note_on,5360,0,15,,,,,,,,7,,,,57,45
108000,note_on,5360,0,16,,,,,,,,8,,,,45,45
108000,note_on,7280,0,10,,,,,,,,5,,,,64,45
108000,note_on,160,0,6,,,,,,,,3,,,,69,45
108000,note_on,1520,0,21,,,,,,,,14,,,,57,45
108000,note_on,160,0,8,,,,,,,,4,,,,57,45
108000,note_on,160,0,11,,,,,,,,6,,,,76,75
108000,note_on,1520,0,18,,,,,,,,11,,,,73,60
108000,note_on,1520,0,19,,,,,,,,12,,,,69,45
108000,note_on,160,0,2,,,,,,,,0,,,,69,45
108000,note_on,160,0,7,,,,,,,,4,,,,52,45
108000,note_on,160,0,3,,,,,,,,2,,,,73,45
108000,note_on,1520,0,22,,,,,,,,15,,,,45,45
108000,note_on,160,0,5,,,,,,,,3,,,,73,45
108000,note_on,160,0,12,,,,,,,,6,,,,69,75
108000,note_on,160,0,1,,,,,,,,0,,,,73,45
108000,note_on,1520,0,20,,,,,,,,13,,,,64,45
108000,note_on,7280,0,9,,,,,,,,5,,,,69,45
108000,note_on,160,0,4,,,,,,,,2,,,,69,45
108000,note_on,160,0,14,,,,,,,,7,,,,57,75
108360,note_on,0,0,3,,,,,,,,2,,,,74,45
108360,note_on,0,0,18,,,,,,,,11,,,,74,60
108360,note_off,360,0,8,,,,,,,,4,,,,57,64
108360,note_on,0,0,8,,,,,,,,4,,,,59,45
108360,note_on,0,0,10,,,,,,,,5,,,,62,45
108360,note_off,360,0,10,,,,,,,,5,,,,64,64
108360,note_off,360,0,21,,,,,,,,14,,,,57,64
108360,note_on,0,0,21,,,,,,,,14,,,,59,45
108360,note_off,360,0,5,,,,,,,,3,,,,73,64
108360,note_on,0,0,15,,,,,,,,7,,,,59,45
108360,note_off,360,0,16,,,,,,,,8,,,,45,64
108360,note_on,0,0,16,,,,,,,,8,,,,47,45
108360,note_off,360,0,15,,,,,,,,7,,,,57,64
108360,note_on,0,0,22,,,,,,,,15,,,,47,45
108360,note_off,360,0,22,,,,,,,,15,,,,45,64
108360,note_off,360,0,1,,,,,,,,0,,,,73,64
108360,note_on,0,0,1,,,,,,,,0,,,,74,45
108360,note_on,0,0,5,,,,,,,,3,,,,74,45
108360,note_off,360,0,3,,,,,,,,2,,,,73,64
108360,note_off,360,0,18,,,,,,,,11,,,,73,64
108400,note_off,400,0,14,,,,,,,,7,,,,57,64
108400,note_off,400,0,19,,,,,,,,12,,,,69,64
108400,note_off,400,0,13,,,,,,,,7,,,,61,64
108400,note_off,400,0,4,,,,,,,,2,,,,69,64
108400,note_off,400,0,20,,,,,,,,13,,,,64,64
108400,note_off,400,0,12,,,,,,,,6,,,,69,64
108400,note_off,400,0,7,,,,,,,,4,,,,52,64
108400,note_off,400,0,2,,,,,,,,0,,,,69,64
108400,note_off,400,0,11,,,,,,,,6,,,,76,64
108400,note_off,400,0,9,,,,,,,,5,,,,69,64
108400,note_off,400,0,17,,,,,,,,10,,,,45,64
108400,note_off,400,0,6,,,,,,,,3,,,,69,64
108475,note_off,115,0,3,,,,,,,,2,,,,74,64
108475,note_off,115,0,18,,,,,,,,11,,,,74,64
108475,note_off,115,0,1,,,,,,,,0,,,,74,64
108475,note_off,115,0,10,,,,,,,,5,,,,62,64
108475,note_off,115,0,5,,,,,,,,3,,,,74,64
108475,note_off,115,0,8,,,,,,,,4,,,,59,64
108475,note_off,115,0,21,,,,,,,,14,,,,59,64
108475,note_off,115,0,22,,,,,,,,15,,,,47,64
108475,note_off,115,0,15,,,,,,,,7,,,,59,64
108475,note_off,115,0,16,,,,,,,,8,,,,47,64
108480,note_on,80,0,20,,,,,,,,13,,,,76,45
108480,note_on,5,0,8,,,,,,,,4,,,,61,45
108480,note_on,80,0,7,,,,,,,,4,,,,64,45
108480,note_on,80,0,2,,,,,,,,0,,,,69,45
108480,note_on,5,0,15,,,,,,,,7,,,,61,45
108480,note_on,80,0,19,,,,,,,,12,,,,69,45
108480,note_on,80,0,14,,,,,,,,7,,,,57,45
108480,note_on,5,0,3,,,,,,,,2,,,,76,45
108480,note_on,80,0,6,,,,,,,,3,,,,69,45
108480,note_on,5,0,18,,,,,,,,11,,,,76,60
108480,note_on,5,0,16,,,,,,,,8,,,,49,45
108480,note_on,80,0,9,,,,,,,,5,,,,69,45
108480,note_on,5,0,5,,,,,,,,3,,,,76,45
108480,note_on,5,0,10,,,,,,,,5,,,,64,45
108480,note_on,5,0,1,,,,,,,,0,,,,76,45
108480,note_on,80,0,4,,,,,,,,2,,,,69,45
108480,note_on,80,0,13,,,,,,,,7,,,,64,45
108480,note_on,5,0,22,,,,,,,,15,,,,49,45
108480,note_on,5,0,21,,,,,,,,14,,,,61,45
108840,note_off,360,0,16,,,,,,,,8,,,,49,64
108840,note_on,0,0,16,,,,,,,,8,,,,45,45
108840,note_on,0,0,22,,,,,,,,15,,,,45,45
108840,note_on,0,0,10,,,,,,,,5,,,,67,45
108840,note_on,0,0,3,,,,,,,,2,,,,73,45
108840,note_off,360,0,3,,,,,,,,2,,,,76,64
108840,note_off,360,0,22,,,,,,,,15,,,,49,64
108840,note_off,360,0,21,,,,,,,,14,,,,61,64
108840,note_on,0,0,21,,,,,,,,14,,,,57,45
108840,note_off,360,0,10,,,,,,,,5,,,,64,64
108840,note_on,0,0,18,,,,,,,,11,,,,73,60
108840,note_off,360,0,18,,,,,,,,11,,,,76,64
108840,note_on,0,0,15,,,,,,,,7,,,,57,45
108840,note_off,360,0,5,,,,,,,,3,,,,76,64
108840,note_on,0,0,5,,,,,,,,3,,,,73,45
108840,note_on,0,0,1,,,,,,,,0,,,,73,45
108840,note_off,360,0,1,,,,,,,,0,,,,76,64
108840,note_off,360,0,8,,,,,,,,4,,,,61,64
108840,note_on,0,0,8,,,,,,,,4,,,,57,45
108840,note_off,360,0,15,,,,,,,,7,,,,61,64
108880,note_off,400,0,4,,,,,,,,2,,,,69,64
108880,note_off,400,0,20,,,,,,,,13,,,,76,64
108880,note_off,400,0,7,,,,,,,,4,,,,64,64
108880,note_off,400,0,6,,,,,,,,3,,,,69,64
108880,note_off,400,0,14,,,,,,,,7,,,,57,64
108880,note_off,400,0,19,,,,,,,,12,,,,69,64
108880,note_off,400,0,2,,,,,,,,0,,,,69,64
108880,note_off,400,0,13,,,,,,,,7,,,,64,64
108880,note_off,400,0,9,,,,,,,,5,,,,69,64
108955,note_off,115,0,18,,,,,,,,11,,,,73,64
108955,note_off,115,0,8,,,,,,,,4,,,,57,64
108955,note_off,115,0,21,,,,,,,,14,,,,57,64
108955,note_off,115,0,1,,,,,,,,0,,,,73,64
108955,note_off,115,0,22,,,,,,,,15,,,,45,64
108955,note_off,115,0,16,,,,,,,,8,,,,45,64
108955,note_off,115,0,3,,,,,,,,2,,,,73,64
108955,note_off,115,0,10,,,,,,,,5,,,,67,64
108955,note_off,115,0,5,,,,,,,,3,,,,73,64
108955,note_off,115,0,15,,,,,,,,7,,,,57,64
108960,note_on,80,0,2,,,,,,,,0,,,,69,45
108960,note_on,80,0,9,,,,,,,,5,,,,69,45
108960,note_on,5,0,5,,,,,,,,3,,,,78,45
108960,note_on,80,0,6,,,,,,,,3,,,,69,45
108960,note_on,5,0,8,,,,,,,,4,,,,62,45
108960,note_on,5,0,10,,,,,,,,5,,,,66,45
108960,note_on,80,0,19,,,,,,,,12,,,,69,45
108960,note_on,5,0,1,,,,,,,,0,,,,78,45
108960,note_on,5,0,21,,,,,,,,14,,,,62,45
108960,note_on,80,0,7,,,,,,,,4,,,,62,45
108960,note_on,5,0,18,,,,,,,,11,,,,78,60
108960,note_on,80,0,14,,,,,,,,7,,,,59,45
108960,note_on,5,0,3,,,,,,,,2,,,,78,45
108960,note_on,5,0,16,,,,,,,,8,,,,38,45
108960,note_on,80,0,20,,,,,,,,13,,,,74,45
108960,note_on,5,0,15,,,,,,,,7,,,,50,45
108960,note_on,80,0,4,,,,,,,,2,,,,69,45
108960,note_on,80,0,13,,,,,,,,7,,,,62,45
108960,note_on,5,0,22,,,,,,,,15,,,,50,45
109320,note_on,0,0,21,,,,,,,,14,,,,64,45
109320,note_on,0,0,18,,,,,,,,11,,,,79,60
109320,note_off,360,0,13,,,,,,,,7,,,,62,64
109320,note_on,0,0,22,,,,,,,,15,,,,52,45
109320,note_off,360,0,5,,,,,,,,3,,,,78,64
109320,note_off,360,0,3,,,,,,,,2,,,,78,64
109320,note_on,0,0,10,,,,,,,,5,,,,67,45
109320,note_off,360,0,10,,,,,,,,5,,,,66,64
109320,note_on,0,0,13,,,,,,,,7,,,,64,45
109320,note_on,0,0,5,,,,,,,,3,,,,79,45
109320,note_on,0,0,3,,,,,,,,2,,,,79,45
109320,note_off,360,0,22,,,,,,,,15,,,,50,64
109320,note_off,360,0,1,,,,,,,,0,,,,78,64
109320,note_on,0,0,1,,,,,,,,0,,,,79,45
109320,note_on,0,0,8,,,,,,,,4,,,,64,45
109320,note_off,360,0,18,,,,,,,,11,,,,78,64
109320,note_off,360,0,21,,,,,,,,14,,,,62,64
109320,note_off,360,0,8,,,,,,,,4,,,,62,64
109360,note_off,400,0,16,,,,,,,,8,,,,38,64
109360,note_off,400,0,15,,,,,,,,7,,,,50,64
109360,note_off,400,0,14,,,,,,,,7,,,,59,64
109360,note_off,400,0,7,,,,,,,,4,,,,62,64
109360,note_off,400,0,20,,,,,,,,13,,,,74,64
109435,note_off,115,0,10,,,,,,,,5,,,,67,64
109435,note_off,115,0,5,,,,,,,,3,,,,79,64
109435,note_off,115,0,1,,,,,,,,0,,,,79,64
109435,note_off,115,0,8,,,,,,,,4,,,,64,64
109435,note_off,115,0,21,,,,,,,,14,,,,64,64
109435,note_off,115,0,3,,,,,,,,2,,,,79,64
109435,note_off,115,0,22,,,,,,,,15,,,,52,64
109435,note_off,115,0,18,,,,,,,,11,,,,79,64
109435,note_off,115,0,13,,,,,,,,7,,,,64,64
109440,note_on,5,0,5,,,,,,,,3,,,,78,45
109440,note_on,5,0,8,,,,,,,,4,,,,62,45
109440,note_on,5,0,1,,,,,,,,0,,,,78,45
109440,note_on,80,0,20,,,,,,,,13,,,,74,45
109440,note_on,80,0,14,,,,,,,,7,,,,59,45
109440,note_on,80,0,15,,,,,,,,7,,,,50,45
109440,note_on,5,0,10,,,,,,,,5,,,,66,45
109440,note_on,5,0,21,,,,,,,,14,,,,62,45
109440,note_on,80,0,7,,,,,,,,4,,,,62,45
109440,note_on,5,0,18,,,,,,,,11,,,,78,60
109440,note_on,5,0,3,,,,,,,,2,,,,78,45
109440,note_on,5,0,13,,,,,,,,7,,,,62,45
109440,note_on,5,0,22,,,,,,,,15,,,,50,45
109440,note_on,80,0,16,,,,,,,,8,,,,38,45
109800,note_off,360,0,1,,,,,,,,0,,,,78,64
109800,note_off,360,0,5,,,,,,,,3,,,,78,64
109800,note_off,360,0,22,,,,,,,,15,,,,50,64
109800,note_off,360,0,21,,,,,,,,14,,,,62,64
109800,note_on,0,0,10,,,,,,,,5,,,,67,45
109800,note_on,0,0,5,,,,,,,,3,,,,79,45
109800,note_off,360,0,10,,,,,,,,5,,,,66,64
109800,note_on,0,0,1,,,,,,,,0,,,,79,45
109800,note_off,360,0,13,,,,,,,,7,,,,62,64
109800,note_on,0,0,22,,,,,,,,15,,,,52,45
109800,note_on,0,0,13,,,,,,,,7,,,,64,45
109800,note_off,360,0,3,,,,,,,,2,,,,78,64
109800,note_on,0,0,3,,,,,,,,2,,,,79,45
109800,note_on,0,0,18,,,,,,,,11,,,,79,60
109800,note_off,360,0,18,,,,,,,,11,,,,78,64
109800,note_on,0,0,8,,,,,,,,4,,,,64,45
109800,note_off,360,0,8,,,,,,,,4,,,,62,64
109800,note_on,0,0,21,,,,,,,,14,,,,64,45
109840,note_off,400,0,15,,,,,,,,7,,,,50,64
109840,note_off,400,0,20,,,,,,,,13,,,,74,64
109840,note_off,400,0,16,,,,,,,,8,,,,38,64
109840,note_off,400,0,14,,,,,,,,7,,,,59,64
109840,note_off,400,0,7,,,,,,,,4,,,,62,64
109915,note_off,115,0,18,,,,,,,,11,,,,79,64
109915,note_off,115,0,22,,,,,,,,15,,,,52,64
109915,note_off,115,0,13,,,,,,,,7,,,,64,64
109915,note_off,115,0,21,,,,,,,,14,,,,64,64
109915,note_off,115,0,5,,,,,,,,3,,,,79,64
109915,note_off,115,0,1,,,,,,,,0,,,,79,64
109915,note_off,115,0,3,,,,,,,,2,,,,79,64
109915,note_off,115,0,8,,,,,,,,4,,,,64,64
109915,note_off,115,0,10,,,,,,,,5,,,,67,64
109920,note_on,80,0,16,,,,,,,,8,,,,37,45
109920,note_on,5,0,8,,,,,,,,4,,,,61,45
109920,note_on,5,0,22,,,,,,,,15,,,,49,45
109920,note_on,5,0,5,,,,,,,,3,,,,76,45
109920,note_on,80,0,20,,,,,,,,13,,,,69,45
109920,note_on,5,0,1,,,,,,,,0,,,,76,45
109920,note_on,80,0,14,,,,,,,,7,,,,57,45
109920,note_on,5,0,10,,,,,,,,5,,,,64,45
109920,note_on,5,0,18,,,,,,,,11,,,,76,60
109920,note_on,5,0,21,,,,,,,,14,,,,61,45
109920,note_on,80,0,15,,,,,,,,7,,,,49,45
109920,note_on,80,0,7,,,,,,,,4,,,,57,45
109920,note_on,5,0,3,,,,,,,,2,,,,76,45
109920,note_on,5,0,13,,,,,,,,7,,,,64,45
110280,note_off,360,0,10,,,,,,,,5,,,,64,64
110280,note_on,0,0,21,,,,,,,,14,,,,62,45
110280,note_off,360,0,3,,,,,,,,2,,,,76,64
110280,note_off,360,0,21,,,,,,,,14,,,,61,64
110280,note_off,360,0,5,,,,,,,,3,,,,76,64
110280,note_on,0,0,5,,,,,,,,3,,,,78,45
110280,note_off,360,0,22,,,,,,,,15,,,,49,64
110280,note_on,0,0,22,,,,,,,,15,,,,50,45
110280,note_on,0,0,10,,,,,,,,5,,,,66,45
110280,note_on,0,0,3,,,,,,,,2,,,,78,45
110280,note_off,360,0,18,,,,,,,,11,,,,76,64
110280,note_off,360,0,1,,,,,,,,0,,,,76,64
110280,note_on,0,0,18,,,,,,,,11,,,,78,60
110280,note_off,360,0,8,,,,,,,,4,,,,61,64
110280,note_on,0,0,1,,,,,,,,0,,,,78,45
110280,note_on,0,0,8,,,,,,,,4,,,,62,45
110320,note_off,400,0,14,,,,,,,,7,,,,57,64
110320,note_off,400,0,16,,,,,,,,8,,,,37,64
110320,note_off,400,0,20,,,,,,,,13,,,,69,64
110320,note_off,400,0,15,,,,,,,,7,,,,49,64
110320,note_off,400,0,13,,,,,,,,7,,,,64,64
110320,note_off,400,0,7,,,,,,,,4,,,,57,64
110395,note_off,115,0,21,,,,,,,,14,,,,62,64
110395,note_off,115,0,22,,,,,,,,15,,,,50,64
110395,note_off,115,0,3,,,,,,,,2,,,,78,64
110395,note_off,115,0,10,,,,,,,,5,,,,66,64
110395,note_off,115,0,5,,,,,,,,3,,,,78,64
110395,note_off,115,0,8,,,,,,,,4,,,,62,64
110395,note_off,115,0,1,,,,,,,,0,,,,78,64
110395,note_off,115,0,18,,,,,,,,11,,,,78,64
110400,note_on,80,0,20,,,,,,,,13,,,,71,45
110400,note_on,5,0,21,,,,,,,,14,,,,59,45
110400,note_on,80,0,14,,,,,,,,7,,,,62,45
110400,note_on,5,0,8,,,,,,,,4,,,,59,45
110400,note_on,80,0,15,,,,,,,,7,,,,47,45
110400,note_on,5,0,22,,,,,,,,15,,,,47,45
110400,note_on,80,0,16,,,,,,,,8,,,,35,45
110400,note_on,5,0,3,,,,,,,,2,,,,74,45
110400,note_on,80,0,13,,,,,,,,7,,,,66,45
110400,note_on,80,0,7,,,,,,,,4,,,,59,45
110400,note_on,5,0,18,,,,,,,,11,,,,74,60
110400,note_on,5,0,5,,,,,,,,3,,,,74,45
110400,note_on,5,0,1,,,,,,,,0,,,,74,45
110400,note_on,5,0,10,,,,,,,,5,,,,62,45
110760,note_off,360,0,1,,,,,,,,0,,,,74,64
110760,note_on,0,0,1,,,,,,,,0,,,,76,45
110760,note_on,0,0,3,,,,,,,,2,,,,76,45
110760,note_off,360,0,18,,,,,,,,11,,,,74,64
110760,note_on,0,0,18,,,,,,,,11,,,,76,60
110760,note_on,0,0,10,,,,,,,,5,,,,64,45
110760,note_off,360,0,20,,,,,,,,13,,,,71,64
110760,note_off,360,0,3,,,,,,,,2,,,,74,64
110760,note_on,0,0,20,,,,,,,,13,,,,73,45
110760,note_on,0,0,7,,,,,,,,4,,,,61,45
110760,note_off,360,0,7,,,,,,,,4,,,,59,64
110760,note_on,0,0,5,,,,,,,,3,,,,76,45
110760,note_off,360,0,5,,,,,,,,3,,,,74,64
110760,note_off,360,0,10,,,,,,,,5,,,,62,64
110800,note_off,400,0,22,,,,,,,,15,,,,47,64
110800,note_off,400,0,21,,,,,,,,14,,,,59,64
110800,note_off,400,0,13,,,,,,,,7,,,,66,64
110800,note_off,1840,0,19,,,,,,,,12,,,,69,64
110800,note_off,400,0,15,,,,,,,,7,,,,47,64
110800,note_off,400,0,16,,,,,,,,8,,,,35,64
110800,note_off,400,0,8,,,,,,,,4,,,,59,64
110800,note_off,1840,0,9,,,,,,,,5,,,,69,64
110800,note_off,1840,0,2,,,,,,,,0,,,,69,64
110800,note_off,1840,0,4,,,,,,,,2,,,,69,64
110800,note_off,1840,0,6,,,,,,,,3,,,,69,64
110800,note_off,400,0,14,,,,,,,,7,,,,62,64
110875,note_off,115,0,7,,,,,,,,4,,,,61,64
110875,note_off,115,0,20,,,,,,,,13,,,,73,64
110875,note_off,115,0,3,,,,,,,,2,,,,76,64
110875,note_off,115,0,10,,,,,,,,5,,,,64,64
110875,note_off,115,0,18,,,,,,,,11,,,,76,64
110875,note_off,115,0,1,,,,,,,,0,,,,76,64
110875,note_off,115,0,5,,,,,,,,3,,,,76,64
110880,note_on,5,0,20,,,,,,,,13,,,,71,45
110880,note_on,80,0,4,,,,,,,,2,,,,68,45
110880,note_on,5,0,5,,,,,,,,3,,,,74,45
110880,note_on,80,0,16,,,,,,,,8,,,,40,45
110880,note_on,80,0,2,,,,,,,,0,,,,68,45
110880,note_on,80,0,19,,,,,,,,12,,,,68,45
110880,note_on,80,0,21,,,,,,,,14,,,,64,45
110880,note_on,80,0,9,,,,,,,,5,,,,68,45
110880,note_on,80,0,13,,,,,,,,7,,,,64,45
110880,note_on,5,0,1,,,,,,,,0,,,,74,45
110880,note_on,80,0,8,,,,,,,,4,,,,64,45
110880,note_on,80,0,6,,,,,,,,3,,,,68,45
110880,note_on,5,0,7,,,,,,,,4,,,,59,45
110880,note_on,80,0,14,,,,,,,,7,,,,62,45
110880,note_on,5,0,3,,,,,,,,2,,,,74,45
110880,note_on,5,0,10,,,,,,,,5,,,,62,45
110880,note_on,80,0,15,,,,,,,,7,,,,52,45
110880,note_on,80,0,22,,,,,,,,15,,,,52,45
110880,note_on,5,0,18,,,,,,,,11,,,,74,60
111240,note_off,360,0,3,,,,,,,,2,,,,74,64
111240,note_on,0,0,3,,,,,,,,2,,,,76,45
111240,note_off,360,0,1,,,,,,,,0,,,,74,64
111240,note_off,360,0,18,,,,,,,,11,,,,74,64
111240,note_on,0,0,1,,,,,,,,0,,,,76,45
111240,note_on,0,0,20,,,,,,,,13,,,,69,45
111240,note_off,360,0,20,,,,,,,,13,,,,71,64
111240,note_on,0,0,18,,,,,,,,11,,,,76,60
111240,note_on,0,0,5,,,,,,,,3,,,,76,45
111240,note_off,360,0,10,,,,,,,,5,,,,62,64
111240,note_off,360,0,5,,,,,,,,3,,,,74,64
111240,note_on,0,0,7,,,,,,,,4,,,,57,45
111240,note_off,360,0,7,,,,,,,,4,,,,59,64
111240,note_on,0,0,10,,,,,,,,5,,,,64,45
111280,note_off,400,0,21,,,,,,,,14,,,,64,64
111280,note_off,400,0,14,,,,,,,,7,,,,62,64
111280,note_off,400,0,8,,,,,,,,4,,,,64,64
111280,note_off,400,0,15,,,,,,,,7,,,,52,64
111280,note_off,400,0,22,,,,,,,,15,,,,52,64
111280,note_off,400,0,16,,,,,,,,8,,,,40,64
111355,note_off,115,0,10,,,,,,,,5,,,,64,64
111355,note_off,115,0,5,,,,,,,,3,,,,76,64
111355,note_off,115,0,3,,,,,,,,2,,,,76,64
111355,note_off,115,0,7,,,,,,,,4,,,,57,64
111355,note_off,115,0,1,,,,,,,,0,,,,76,64
111355,note_off,115,0,18,,,,,,,,11,,,,76,64
111355,note_off,115,0,20,,,,,,,,13,,,,69,64
111360,note_on,80,0,8,,,,,,,,4,,,,52,45
111360,note_on,80,0,15,,,,,,,,7,,,,52,45
111360,note_on,80,0,22,,,,,,,,15,,,,40,45
111360,note_on,80,0,21,,,,,,,,14,,,,52,45
111360,note_on,5,0,1,,,,,,,,0,,,,74,45
111360,note_on,5,0,7,,,,,,,,4,,,,59,45
111360,note_on,5,0,5,,,,,,,,3,,,,74,45
111360,note_on,5,0,20,,,,,,,,13,,,,71,45
111360,note_on,5,0,18,,,,,,,,11,,,,74,60
111360,note_on,5,0,10,,,,,,,,5,,,,62,45
111360,note_on,80,0,16,,,,,,,,8,,,,40,45
111360,note_on,80,0,14,,,,,,,,7,,,,61,45
111360,note_on,5,0,3,,,,,,,,2,,,,74,45
111520,note_off,640,0,9,,,,,,,,5,,,,68,64
111520,note_off,640,0,2,,,,,,,,0,,,,68,64
111520,note_off,640,0,4,,,,,,,,2,,,,68,64
111520,note_off,640,0,13,,,,,,,,7,,,,64,64
111520,note_off,640,0,6,,,,,,,,3,,,,68,64
111520,note_off,640,0,19,,,,,,,,12,,,,68,64
111600,note_on,80,0,9,,,,,,,,5,,,,68,45
111600,note_on,80,0,4,,,,,,,,2,,,,68,45
111600,note_on,80,0,2,,,,,,,,0,,,,68,45
111600,note_on,80,0,6,,,,,,,,3,,,,68,45
111600,note_on,80,0,13,,,,,,,,7,,,,64,45
111600,note_on,80,0,19,,,,,,,,12,,,,68,45
111720,note_on,0,0,20,,,,,,,,13,,,,68,45
111720,note_off,360,0,20,,,,,,,,13,,,,71,64
111720,note_off,360,0,10,,,,,,,,5,,,,62,64
111720,note_on,0,0,10,,,,,,,,5,,,,62,45
111720,note_off,360,0,7,,,,,,,,4,,,,59,64
111720,note_off,360,0,1,,,,,,,,0,,,,74,64
111720,note_off,360,0,5,,,,,,,,3,,,,74,64
111720,note_off,360,0,18,,,,,,,,11,,,,74,64
111720,note_on,0,0,18,,,,,,,,11,,,,74,60
111720,note_on,0,0,7,,,,,,,,4,,,,56,45
111720,note_on,0,0,1,,,,,,,,0,,,,74,45
111720,note_off,360,0,3,,,,,,,,2,,,,74,64
111720,note_on,0,0,3,,,,,,,,2,,,,74,45
111720,note_on,0,0,5,,,,,,,,3,,,,74,45
111760,note_off,400,0,14,,,,,,,,7,,,,61,64
111760,note_off,400,0,8,,,,,,,,4,,,,52,64
111760,note_off,400,0,21,,,,,,,,14,,,,52,64
111760,note_off,400,0,22,,,,,,,,15,,,,40,64
111760,note_off,400,0,15,,,,,,,,7,,,,52,64
111760,note_off,400,0,16,,,,,,,,8,,,,40,64
111835,note_off,235,0,4,,,,,,,,2,,,,68,64
111835,note_off,115,0,7,,,,,,,,4,,,,56,64
111835,note_off,115,0,1,,,,,,,,0,,,,74,64
111835,note_off,115,0,10,,,,,,,,5,,,,62,64
111835,note_off,235,0,2,,,,,,,,0,,,,68,64
111835,note_off,235,0,19,,,,,,,,12,,,,68,64
111835,note_off,115,0,5,,,,,,,,3,,,,74,64
111835,note_off,115,0,20,,,,,,,,13,,,,68,64
111835,note_off,115,0,18,,,,,,,,11,,,,74,64
111835,note_off,235,0,13,,,,,,,,7,,,,64,64
111835,note_off,235,0,6,,,,,,,,3,,,,68,64
111835,note_off,235,0,9,,,,,,,,5,,,,68,64
111835,note_off,115,0,3,,,,,,,,2,,,,74,64
111840,note_on,5,0,7,,,,,,,,4,,,,52,45
111840,note_on,5,0,6,,,,,,,,3,,,,69,45
111840,note_on,5,0,1,,,,,,,,0,,,,76,45
111840,note_on,5,0,3,,,,,,,,2,,,,76,45
111840,note_on,80,0,8,,,,,,,,4,,,,57,45
111840,note_on,5,0,2,,,,,,,,0,,,,69,45
111840,note_on,5,0,10,,,,,,,,5,,,,64,45
111840,note_on,80,0,15,,,,,,,,7,,,,57,45
111840,note_on,80,0,22,,,,,,,,15,,,,45,45
111840,note_on,5,0,4,,,,,,,,2,,,,69,45
111840,note_on,5,0,13,,,,,,,,7,,,,64,45
111840,note_on,5,0,18,,,,,,,,11,,,,76,60
111840,note_on,80,0,16,,,,,,,,8,,,,45,45
111840,note_on,5,0,9,,,,,,,,5,,,,69,45
111840,note_on,5,0,19,,,,,,,,12,,,,69,45
111840,note_on,5,0,20,,,,,,,,13,,,,73,45
111840,note_on,5,0,5,,,,,,,,3,,,,76,45
111840,note_on,80,0,21,,,,,,,,14,,,,57,45
111840,note_on,80,0,14,,,,,,,,7,,,,61,45
112075,note_off,235,0,6,,,,,,,,3,,,,69,64
112075,note_off,235,0,5,,,,,,,,3,,,,76,64
112075,note_off,235,0,4,,,,,,,,2,,,,69,64
112075,note_off,235,0,2,,,,,,,,0,,,,69,64
112075,note_off,235,0,8,,,,,,,,4,,,,57,64
112075,note_off,235,0,7,,,,,,,,4,,,,52,64
112075,note_off,235,0,3,,,,,,,,2,,,,76,64
112075,note_off,235,0,1,,,,,,,,0,,,,76,64
112080,note_on,5,0,3,,,,,,,,2,,,,76,75
112080,note_on,3680,0,12,,,,,,,,6,,,,69,75
112080,note_on,5,0,4,,,,,,,,2,,,,69,75
112080,note_on,5,0,2,,,,,,,,0,,,,81,75
112080,note_on,5,0,6,,,,,,,,3,,,,69,75
112080,note_on,3680,0,11,,,,,,,,6,,,,76,75
112080,note_on,5,0,7,,,,,,,,4,,,,57,75
112080,note_on,5,0,8,,,,,,,,4,,,,45,75
112080,note_on,3680,0,17,,,,,,,,10,,,,45,75
112080,note_on,5,0,1,,,,,,,,0,,,,88,75
112080,note_on,5,0,5,,,,,,,,3,,,,76,75
112160,note_off,80,0,17,,,,,,,,10,,,,45,64
112160,note_off,80,0,4,,,,,,,,2,,,,69,64
112160,note_off,80,0,3,,,,,,,,2,,,,76,64
112160,note_off,80,0,2,,,,,,,,0,,,,81,64
112160,note_off,80,0,1,,,,,,,,0,,,,88,64
112160,note_off,80,0,5,,,,,,,,3,,,,76,64
112160,note_off,80,0,7,,,,,,,,4,,,,57,64
112160,note_off,80,0,8,,,,,,,,4,,,,45,64
112160,note_off,80,0,12,,,,,,,,6,,,,69,64
112160,note_off,80,0,6,,,,,,,,3,,,,69,64
112160,note_off,80,0,11,,,,,,,,6,,,,76,64
112200,note_on,40,0,6,,,,,,,,3,,,,69,75
112200,note_on,40,0,7,,,,,,,,4,,,,57,75
112200,note_on,40,0,12,,,,,,,,6,,,,69,75
112200,note_on,40,0,3,,,,,,,,2,,,,76,75
112200,note_on,40,0,5,,,,,,,,3,,,,76,75
112200,note_on,40,0,4,,,,,,,,2,,,,69,75
112200,note_on,40,0,17,,,,,,,,10,,,,45,75
112200,note_on,40,0,2,,,,,,,,0,,,,81,75
112200,note_on,40,0,1,,,,,,,,0,,,,88,75
112200,note_on,40,0,8,,,,,,,,4,,,,45,75
112200,note_on,40,0,11,,,,,,,,6,,,,76,75
112240,note_off,400,0,20,,,,,,,,13,,,,73,64
112240,note_off,400,0,9,,,,,,,,5,,,,69,64
112240,note_off,400,0,15,,,,,,,,7,,,,57,64
112240,note_off,400,0,19,,,,,,,,12,,,,69,64
112240,note_off,400,0,16,,,,,,,,8,,,,45,64
112240,note_off,400,0,22,,,,,,,,15,,,,45,64
112240,note_off,400,0,10,,,,,,,,5,,,,64,64
112240,note_off,400,0,18,,,,,,,,11,,,,76,64
112240,note_off,400,0,21,,,,,,,,14,,,,57,64
112240,note_off,400,0,13,,,,,,,,7,,,,64,64
112240,note_off,400,0,14,,,,,,,,7,,,,61,64
112280,note_off,80,0,2,,,,,,,,0,,,,81,64
112280,note_off,80,0,17,,,,,,,,10,,,,45,64
112280,note_off,80,0,7,,,,,,,,4,,,,57,64
112280,note_off,80,0,4,,,,,,,,2,,,,69,64
112280,note_off,80,0,6,,,,,,,,3,,,,69,64
112280,note_off,80,0,12,,,,,,,,6,,,,69,64
112280,note_off,80,0,11,,,,,,,,6,,,,76,64
112280,note_off,80,0,3,,,,,,,,2,,,,76,64
112280,note_off,80,0,5,,,,,,,,3,,,,76,64
112280,note_off,80,0,1,,,,,,,,0,,,,88,64
112280,note_off,80,0,8,,,,,,,,4,,,,45,64
112320,note_on,40,0,6,,,,,,,,3,,,,69,75
112320,note_on,40,0,7,,,,,,,,4,,,,57,75
112320,note_on,40,0,8,,,,,,,,4,,,,45,75
112320,note_on,40,0,2,,,,,,,,0,,,,81,75
112320,note_on,40,0,11,,,,,,,,6,,,,76,75
112320,note_on,40,0,17,,,,,,,,10,,,,45,75
112320,note_on,40,0,5,,,,,,,,3,,,,76,75
112320,note_on,40,0,4,,,,,,,,2,,,,69,75
112320,note_on,40,0,12,,,,,,,,6,,,,69,75
112320,note_on,40,0,3,,,,,,,,2,,,,76,75
112320,note_on,40,0,1,,,,,,,,0,,,,88,75
112400,note_off,80,0,7,,,,,,,,4,,,,57,64
112400,note_off,80,0,3,,,,,,,,2,,,,76,64
112400,note_off,80,0,6,,,,,,,,3,,,,69,64
112400,note_off,80,0,5,,,,,,,,3,,,,76,64
112400,note_off,80,0,8,,,,,,,,4,,,,45,64
112400,note_off,80,0,2,,,,,,,,0,,,,81,64
112400,note_off,80,0,1,,,,,,,,0,,,,88,64
112400,note_off,80,0,4,,,,,,,,2,,,,69,64
112400,note_off,80,0,11,,,,,,,,6,,,,76,64
112400,note_off,80,0,12,,,,,,,,6,,,,69,64
112400,note_off,80,0,17,,,,,,,,10,,,,45,64
112560,note_on,160,0,1,,,,,,,,0,,,,88,75
112560,note_on,160,0,4,,,,,,,,2,,,,69,75
112560,note_on,160,0,2,,,,,,,,0,,,,81,75
112560,note_on,160,0,17,,,,,,,,10,,,,45,75
112560,note_on,160,0,11,,,,,,,,6,,,,76,75
112560,note_on,160,0,5,,,,,,,,3,,,,76,75
112560,note_on,160,0,3,,,,,,,,2,,,,76,75
112560,note_on,160,0,6,,,,,,,,3,,,,69,75
112560,note_on,160,0,7,,,,,,,,4,,,,57,75
112560,note_on,160,0,12,,,,,,,,6,,,,69,75
112560,note_on,160,0,8,,,,,,,,4,,,,45,75
112640,note_off,80,0,6,,,,,,,,3,,,,69,64
112640,note_off,80,0,12,,,,,,,,6,,,,69,64
112640,note_off,80,0,11,,,,,,,,6,,,,76,64
112640,note_off,80,0,1,,,,,,,,0,,,,88,64
112640,note_off,80,0,4,,,,,,,,2,,,,69,64
112640,note_off,80,0,17,,,,,,,,10,,,,45,64
112640,note_off,80,0,5,,,,,,,,3,,,,76,64
112640,note_off,80,0,8,,,,,,,,4,,,,45,64
112640,note_off,80,0,2,,,,,,,,0,,,,81,64
112640,note_off,80,0,3,,,,,,,,2,,,,76,64
112640,note_off,80,0,7,,,,,,,,4,,,,57,64
112800,note_on,160,0,3,,,,,,,,2,,,,76,75
112800,note_on,160,0,5,,,,,,,,3,,,,76,75
112800,note_on,160,0,11,,,,,,,,6,,,,76,75
112800,note_on,160,0,7,,,,,,,,4,,,,57,75
112800,note_on,160,0,17,,,,,,,,10,,,,45,75
112800,note_on,160,0,4,,,,,,,,2,,,,69,75
112800,note_on,160,0,2,,,,,,,,0,,,,81,75
112800,note_on,160,0,12,,,,,,,,6,,,,69,75
112800,note_on,160,0,6,,,,,,,,3,,,,69,75
112800,note_on,160,0,1,,,,,,,,0,,,,88,75
112800,note_on,160,0,8,,,,,,,,4,,,,45,75
112880,note_off,80,0,7,,,,,,,,4,,,,57,64
112880,note_off,80,0,2,,,,,,,,0,,,,81,64
112880,note_off,80,0,1,,,,,,,,0,,,,88,64
112880,note_off,80,0,17,,,,,,,,10,,,,45,64
112880,note_off,80,0,6,,,,,,,,3,,,,69,64
112880,note_off,80,0,4,,,,,,,,2,,,,69,64
112880,note_off,80,0,11,,,,,,,,6,,,,76,64
112880,note_off,80,0,3,,,,,,,,2,,,,76,64
112880,note_off,80,0,5,,,,,,,,3,,,,76,64
112880,note_off,80,0,12,,,,,,,,6,,,,69,64
112880,note_off,80,0,8,,,,,,,,4,,,,45,64
113040,note_on,160,0,11,,,,,,,,6,,,,76,75
113040,note_on,160,0,5,,,,,,,,3,,,,76,75
113040,note_on,160,0,12,,,,,,,,6,,,,69,75
113040,note_on,160,0,4,,,,,,,,2,,,,69,75
113040,note_on,160,0,17,,,,,,,,10,,,,45,75
113040,note_on,160,0,3,,,,,,,,2,,,,76,75
113040,note_on,160,0,2,,,,,,,,0,,,,81,75
113040,note_on,160,0,6,,,,,,,,3,,,,69,75
113040,note_on,160,0,7,,,,,,,,4,,,,57,75
113040,note_on,160,0,1,,,,,,,,0,,,,88,75
113040,note_on,160,0,8,,,,,,,,4,,,,45,75
113120,note_off,80,0,17,,,,,,,,10,,,,45,64
113120,note_off,80,0,1,,,,,,,,0,,,,88,64
113120,note_off,80,0,5,,,,,,,,3,,,,76,64
113120,note_off,80,0,2,,,,,,,,0,,,,81,64
113120,note_off,80,0,7,,,,,,,,4,,,,57,64
113120,note_off,80,0,8,,,,,,,,4,,,,45,64
113120,note_off,80,0,6,,,,,,,,3,,,,69,64
113120,note_off,80,0,3,,,,,,,,2,,,,76,64
113120,note_off,80,0,12,,,,,,,,6,,,,69,64
113120,note_off,80,0,11,,,,,,,,6,,,,76,64
113120,note_off,80,0,4,,,,,,,,2,,,,69,64
113280,note_on,160,0,11,,,,,,,,6,,,,81,75
113280,note_on,160,0,12,,,,,,,,6,,,,76,75
113280,note_on,160,0,7,,,,,,,,4,,,,57,75
113280,note_on,160,0,3,,,,,,,,2,,,,81,75
113280,note_on,160,0,8,,,,,,,,4,,,,45,75
113280,note_on,160,0,17,,,,,,,,10,,,,50,75
113280,note_on,160,0,1,,,,,,,,0,,,,93,75
113280,note_on,160,0,2,,,,,,,,0,,,,88,75
113280,note_on,160,0,6,,,,,,,,3,,,,76,75
113280,note_on,160,0,4,,,,,,,,2,,,,76,75
113280,note_on,160,0,5,,,,,,,,3,,,,81,75
113360,note_off,80,0,3,,,,,,,,2,,,,81,64
113360,note_off,80,0,4,,,,,,,,2,,,,76,64
113360,note_off,80,0,11,,,,,,,,6,,,,81,64
113360,note_off,80,0,12,,,,,,,,6,,,,76,64
113360,note_off,80,0,7,,,,,,,,4,,,,57,64
113360,note_off,80,0,1,,,,,,,,0,,,,93,64
113360,note_off,80,0,17,,,,,,,,10,,,,50,64
113360,note_off,80,0,2,,,,,,,,0,,,,88,64
113360,note_off,80,0,8,,,,,,,,4,,,,45,64
113360,note_off,80,0,5,,,,,,,,3,,,,81,64
113360,note_off,80,0,6,,,,,,,,3,,,,76,64
113520,note_on,160,0,3,,,,,,,,2,,,,76,75
113520,note_on,160,0,4,,,,,,,,2,,,,69,75
113520,note_on,160,0,8,,,,,,,,4,,,,45,75
113520,note_on,160,0,7,,,,,,,,4,,,,57,75
113520,note_on,160,0,6,,,,,,,,3,,,,69,75
113520,note_on,160,0,11,,,,,,,,6,,,,76,75
113520,note_on,160,0,2,,,,,,,,0,,,,81,75
113520,note_on,160,0,17,,,,,,,,10,,,,45,75
113520,note_on,160,0,1,,,,,,,,0,,,,88,75
113520,note_on,160,0,12,,,,,,,,6,,,,69,75
113520,note_on,160,0,5,,,,,,,,3,,,,76,75
113600,note_off,80,0,11,,,,,,,,6,,,,76,64
113600,note_off,80,0,7,,,,,,,,4,,,,57,64
113600,note_off,80,0,4,,,,,,,,2,,,,69,64
113600,note_off,80,0,3,,,,,,,,2,,,,76,64
113600,note_off,80,0,12,,,,,,,,6,,,,69,64
113600,note_off,80,0,8,,,,,,,,4,,,,45,64
113600,note_off,80,0,2,,,,,,,,0,,,,81,64
113600,note_off,80,0,17,,,,,,,,10,,,,45,64
113600,note_off,80,0,6,,,,,,,,3,,,,69,64
113600,note_off,80,0,5,,,,,,,,3,,,,76,64
113600,note_off,80,0,1,,,,,,,,0,,,,88,64
113760,note_on,160,0,5,,,,,,,,3,,,,76,45
113760,note_on,1520,0,9,,,,,,,,5,,,,64,45
113760,note_on,1520,0,19,,,,,,,,12,,,,73,45
113760,note_on,160,0,11,,,,,,,,6,,,,76,75
113760,note_on,160,0,17,,,,,,,,10,,,,45,75
113760,note_on,1520,0,15,,,,,,,,7,,,,54,45
113760,note_on,1520,0,20,,,,,,,,13,,,,64,45
113760,note_on,1520,0,14,,,,,,,,7,,,,57,45
113760,note_on,160,0,1,,,,,,,,0,,,,76,45
113760,note_on,160,0,6,,,,,,,,3,,,,73,45
113760,note_on,1520,0,21,,,,,,,,14,,,,57,45
113760,note_on,1520,0,22,,,,,,,,15,,,,45,45
113760,note_on,1520,0,16,,,,,,,,8,,,,45,45
113760,note_on,160,0,2,,,,,,,,0,,,,73,45
113760,note_on,160,0,12,,,,,,,,6,,,,69,75
113760,note_on,160,0,3,,,,,,,,2,,,,76,45
113760,note_on,1520,0,18,,,,,,,,11,,,,76,60
113760,note_on,160,0,8,,,,,,,,4,,,,45,75
113760,note_on,160,0,7,,,,,,,,4,,,,57,75
113760,note_on,160,0,4,,,,,,,,2,,,,73,45
113760,note_on,1520,0,13,,,,,,,,7,,,,61,45
113760,note_on,1520,0,10,,,,,,,,5,,,,64,45
114120,note_off,360,0,9,,,,,,,,5,,,,64,64
114120,note_on,0,0,18,,,,,,,,11,,,,78,60
114120,note_on,0,0,22,,,,,,,,15,,,,50,45
114120,note_on,0,0,9,,,,,,,,5,,,,66,45
114120,note_on,0,0,10,,,,,,,,5,,,,62,45
114120,note_on,0,0,1,,,,,,,,0,,,,78,45
114120,note_off,360,0,22,,,,,,,,15,,,,45,64
114120,note_off,360,0,1,,,,,,,,0,,,,76,64
114120,note_off,360,0,10,,,,,,,,5,,,,64,64
114120,note_off,360,0,18,,,,,,,,11,,,,76,64
114120,note_off,360,0,5,,,,,,,,3,,,,76,64
114120,note_on,0,0,21,,,,,,,,14,,,,62,45
114120,note_on,0,0,20,,,,,,,,13,,,,66,45
114120,note_on,0,0,2,,,,,,,,0,,,,74,45
114120,note_on,0,0,3,,,,,,,,2,,,,78,45
114120,note_off,360,0,3,,,,,,,,2,,,,76,64
114120,note_on,0,0,5,,,,,,,,3,,,,78,45
114120,note_on,0,0,4,,,,,,,,2,,,,74,45
114120,note_off,360,0,21,,,,,,,,14,,,,57,64
114120,note_off,360,0,2,,,,,,,,0,,,,73,64
114120,note_on,0,0,6,,,,,,,,3,,,,74,45
114120,note_on,0,0,19,,,,,,,,12,,,,74,45
114120,note_off,360,0,20,,,,,,,,13,,,,64,64
114120,note_off,360,0,6,,,,,,,,3,,,,73,64
114120,note_off,360,0,19,,,,,,,,12,,,,73,64
114120,note_off,360,0,4,,,,,,,,2,,,,73,64
114160,note_off,400,0,16,,,,,,,,8,,,,45,64
114160,note_off,400,0,8,,,,,,,,4,,,,45,64
114160,note_off,400,0,7,,,,,,,,4,,,,57,64
114160,note_off,400,0,12,,,,,,,,6,,,,69,64
114160,note_off,400,0,15,,,,,,,,7,,,,54,64
114160,note_off,400,0,11,,,,,,,,6,,,,76,64
114160,note_off,400,0,17,,,,,,,,10,,,,45,64
114160,note_off,400,0,13,,,,,,,,7,,,,61,64
114160,note_off,400,0,14,,,,,,,,7,,,,57,64
114235,note_off,115,0,2,,,,,,,,0,,,,74,64
114235,note_off,115,0,1,,,,,,,,0,,,,78,64
114235,note_off,115,0,9,,,,,,,,5,,,,66,64
114235,note_off,115,0,18,,,,,,,,11,,,,78,64
114235,note_off,115,0,10,,,,,,,,5,,,,62,64
114235,note_off,115,0,20,,,,,,,,13,,,,66,64
114235,note_off,115,0,21,,,,,,,,14,,,,62,64
114235,note_off,115,0,22,,,,,,,,15,,,,50,64
114235,note_off,115,0,4,,,,,,,,2,,,,74,64
114235,note_off,115,0,6,,,,,,,,3,,,,74,64
114235,note_off,115,0,19,,,,,,,,12,,,,74,64
114235,note_off,115,0,5,,,,,,,,3,,,,78,64
114235,note_off,115,0,3,,,,,,,,2,,,,78,64
114240,note_on,5,0,21,,,,,,,,14,,,,57,45
114240,note_on,80,0,15,,,,,,,,7,,,,54,45
114240,note_on,5,0,18,,,,,,,,11,,,,76,60
114240,note_on,5,0,9,,,,,,,,5,,,,64,45
114240,note_on,80,0,13,,,,,,,,7,,,,61,45
114240,note_on,5,0,10,,,,,,,,5,,,,64,45
114240,note_on,5,0,5,,,,,,,,3,,,,76,45
114240,note_on,5,0,2,,,,,,,,0,,,,73,45
114240,note_on,5,0,3,,,,,,,,2,,,,76,45
114240,note_on,80,0,14,,,,,,,,7,,,,57,45
114240,note_on,5,0,1,,,,,,,,0,,,,76,45
114240,note_on,5,0,19,,,,,,,,12,,,,73,45
114240,note_on,5,0,22,,,,,,,,15,,,,45,45
114240,note_on,5,0,6,,,,,,,,3,,,,73,45
114240,note_on,80,0,16,,,,,,,,8,,,,45,45
114240,note_on,5,0,20,,,,,,,,13,,,,64,45
114240,note_on,5,0,4,,,,,,,,2,,,,73,45
114600,note_off,360,0,5,,,,,,,,3,,,,76,64
114600,note_off,360,0,19,,,,,,,,12,,,,73,64
114600,note_on,0,0,5,,,,,,,,3,,,,78,45
114600,note_on,0,0,18,,,,,,,,11,,,,78,60
114600,note_off,360,0,18,,,,,,,,11,,,,76,64
114600,note_on,0,0,20,,,,,,,,13,,,,66,45
114600,note_off,360,0,20,,,,,,,,13,,,,64,64
114600,note_on,0,0,4,,,,,,,,2,,,,74,45
114600,note_on,0,0,3,,,,,,,,2,,,,78,45
114600,note_on,0,0,9,,,,,,,,5,,,,66,45
114600,note_off,360,0,21,,,,,,,,14,,,,57,64
114600,note_on,0,0,21,,,,,,,,14,,,,62,45
114600,note_off,360,0,6,,,,,,,,3,,,,73,64
114600,note_on,0,0,1,,,,,,,,0,,,,78,45
114600,note_off,360,0,1,,,,,,,,0,,,,76,64
114600,note_off,360,0,22,,,,,,,,15,,,,45,64
114600,note_on,0,0,22,,,,,,,,15,,,,50,45
114600,note_on,0,0,6,,,,,,,,3,,,,74,45
114600,note_off,360,0,2,,,,,,,,0,,,,73,64
114600,note_on,0,0,2,,,,,,,,0,,,,74,45
114600,note_off,360,0,10,,,,,,,,5,,,,64,64
114600,note_on,0,0,10,,,,,,,,5,,,,62,45
114600,note_off,360,0,3,,,,,,,,2,,,,76,64
114600,note_off,360,0,9,,,,,,,,5,,,,64,64
114600,note_off,360,0,4,,,,,,,,2,,,,73,64
114600,note_on,0,0,19,,,,,,,,12,,,,74,45
114640,note_off,400,0,15,,,,,,,,7,,,,54,64
114640,note_off,400,0,13,,,,,,,,7,,,,61,64
114640,note_off,400,0,16,,,,,,,,8,,,,45,64
114640,note_off,400,0,14,,,,,,,,7,,,,57,64
114715,note_off,115,0,19,,,,,,,,12,,,,74,64
114715,note_off,115,0,10,,,,,,,,5,,,,62,64
114715,note_off,115,0,4,,,,,,,,2,,,,74,64
114715,note_off,115,0,2,,,,,,,,0,,,,74,64
114715,note_off,115,0,5,,,,,,,,3,,,,78,64
114715,note_off,115,0,18,,,,,,,,11,,,,78,64
114715,note_off,115,0,3,,,,,,,,2,,,,78,64
114715,note_off,115,0,9,,,,,,,,5,,,,66,64
114715,note_off,115,0,6,,,,,,,,3,,,,74,64
114715,note_off,115,0,22,,,,,,,,15,,,,50,64
114715,note_off,115,0,1,,,,,,,,0,,,,78,64
114715,note_off,115,0,21,,,,,,,,14,,,,62,64
114715,note_off,115,0,20,,,,,,,,13,,,,66,64
114720,note_on,560,0,8,,,,,,,,4,,,,49,45
114720,note_on,5,0,1,,,,,,,,0,,,,79,45
114720,note_on,80,0,14,,,,,,,,7,,,,61,45
114720,note_on,5,0,21,,,,,,,,14,,,,49,45
114720,note_on,5,0,2,,,,,,,,0,,,,76,45
114720,note_on,5,0,10,,,,,,,,5,,,,64,45
114720,note_on,5,0,6,,,,,,,,3,,,,76,45
114720,note_on,5,0,22,,,,,,,,15,,,,49,45
114720,note_on,560,0,7,,,,,,,,4,,,,61,45
114720,note_on,5,0,19,,,,,,,,12,,,,76,45
114720,note_on,5,0,20,,,,,,,,13,,,,64,45
114720,note_on,80,0,13,,,,,,,,7,,,,64,45
114720,note_on,5,0,18,,,,,,,,11,,,,79,60
114720,note_on,5,0,3,,,,,,,,2,,,,79,45
114720,note_on,5,0,5,,,,,,,,3,,,,79,45
114720,note_on,80,0,15,,,,,,,,7,,,,57,45
114720,note_on,5,0,4,,,,,,,,2,,,,76,45
114720,note_on,5,0,9,,,,,,,,5,,,,67,45
114720,note_on,80,0,16,,,,,,,,8,,,,49,45
115075,note_off,355,0,15,,,,,,,,7,,,,57,64
115075,note_off,355,0,13,,,,,,,,7,,,,64,64
115075,note_off,355,0,14,,,,,,,,7,,,,61,64
115080,note_on,5,0,14,,,,,,,,7,,,,61,45
115080,note_off,360,0,10,,,,,,,,5,,,,64,64
115080,note_on,5,0,15,,,,,,,,7,,,,57,45
115080,note_on,0,0,9,,,,,,,,5,,,,69,45
115080,note_on,0,0,10,,,,,,,,5,,,,66,45
115080,note_on,5,0,13,,,,,,,,7,,,,64,45
115080,note_off,360,0,9,,,,,,,,5,,,,67,64
115080,note_on,0,0,18,,,,,,,,11,,,,81,60
115080,note_on,0,0,1,,,,,,,,0,,,,81,45
115080,note_on,0,0,5,,,,,,,,3,,,,81,45
115080,note_off,360,0,5,,,,,,,,3,,,,79,64
115080,note_off,360,0,19,,,,,,,,12,,,,76,64
115080,note_on,0,0,20,,,,,,,,13,,,,66,45
115080,note_off,360,0,20,,,,,,,,13,,,,64,64
115080,note_on,0,0,6,,,,,,,,3,,,,78,45
115080,note_off,360,0,1,,,,,,,,0,,,,79,64
115080,note_off,360,0,4,,,,,,,,2,,,,76,64
115080,note_on,0,0,4,,,,,,,,2,,,,78,45
115080,note_off,360,0,6,,,,,,,,3,,,,76,64
115080,note_off,360,0,3,,,,,,,,2,,,,79,64
115080,note_on,0,0,19,,,,,,,,12,,,,78,45
115080,note_on,0,0,3,,,,,,,,2,,,,81,45
115080,note_off,360,0,2,,,,,,,,0,,,,76,64
115080,note_on,0,0,2,,,,,,,,0,,,,78,45
115080,note_off,360,0,18,,,,,,,,11,,,,79,64
115120,note_off,400,0,16,,,,,,,,8,,,,49,64
115120,note_off,400,0,22,,,,,,,,15,,,,49,64
115120,note_off,400,0,21,,,,,,,,14,,,,49,64
115120,note_off,400,0,7,,,,,,,,4,,,,61,64
115120,note_off,400,0,8,,,,,,,,4,,,,49,64
115195,note_off,115,0,4,,,,,,,,2,,,,78,64
115195,note_off,115,0,18,,,,,,,,11,,,,81,64
115195,note_off,115,0,10,,,,,,,,5,,,,66,64
115195,note_off,115,0,9,,,,,,,,5,,,,69,64
115195,note_off,115,0,15,,,,,,,,7,,,,57,64
115195,note_off,115,0,3,,,,,,,,2,,,,81,64
115195,note_off,115,0,5,,,,,,,,3,,,,81,64
115195,note_off,115,0,20,,,,,,,,13,,,,66,64
115195,note_off,115,0,13,,,,,,,,7,,,,64,64
115195,note_off,115,0,1,,,,,,,,0,,,,81,64
115195,note_off,115,0,2,,,,,,,,0,,,,78,64
115195,note_off,115,0,19,,,,,,,,12,,,,78,64
115195,note_off,115,0,14,,,,,,,,7,,,,61,64
115195,note_off,115,0,6,,,,,,,,3,,,,78,64
115200,note_on,5,0,2,,,,,,,,0,,,,76,45
115200,note_on,5,0,18,,,,,,,,11,,,,79,60
115200,note_on,5,0,15,,,,,,,,7,,,,57,45
115200,note_on,5,0,3,,,,,,,,2,,,,79,45
115200,note_on,5,0,19,,,,,,,,12,,,,76,45
115200,note_on,5,0,5,,,,,,,,3,,,,79,45
115200,note_on,5,0,4,,,,,,,,2,,,,76,45
115200,note_on,80,0,7,,,,,,,,4,,,,61,45
115200,note_on,5,0,13,,,,,,,,7,,,,64,45
115200,note_on,5,0,1,,,,,,,,0,,,,79,45
115200,note_on,5,0,6,,,,,,,,3,,,,76,45
115200,note_on,5,0,9,,,,,,,,5,,,,67,45
115200,note_on,80,0,22,,,,,,,,15,,,,49,45
115200,note_on,5,0,14,,,,,,,,7,,,,61,45
115200,note_on,80,0,21,,,,,,,,14,,,,49,45
115200,note_on,80,0,16,,,,,,,,8,,,,49,45
115200,note_on,5,0,10,,,,,,,,5,,,,64,45
115200,note_on,5,0,20,,,,,,,,13,,,,64,45
115200,note_on,80,0,8,,,,,,,,4,,,,49,45
115555,note_off,355,0,14,,,,,,,,7,,,,61,64
115555,note_off,355,0,13,,,,,,,,7,,,,64,64
115555,note_off,355,0,15,,,,,,,,7,,,,57,64
115560,note_off,360,0,6,,,,,,,,3,,,,76,64
115560,note_on,0,0,19,,,,,,,,12,,,,78,45
115560,note_on,0,0,6,,,,,,,,3,,,,78,45
115560,note_off,360,0,3,,,,,,,,2,,,,79,64
115560,note_on,5,0,14,,,,,,,,7,,,,61,45
115560,note_off,360,0,9,,,,,,,,5,,,,67,64
115560,note_on,5,0,15,,,,,,,,7,,,,57,45
115560,note_on,0,0,5,,,,,,,,3,,,,81,45
115560,note_off,360,0,5,,,,,,,,3,,,,79,64
115560,note_off,360,0,19,,,,,,,,12,,,,76,64
115560,note_on,0,0,9,,,,,,,,5,,,,69,45
115560,note_on,0,0,3,,,,,,,,2,,,,81,45
115560,note_on,0,0,18,,,,,,,,11,,,,81,60
115560,note_off,360,0,2,,,,,,,,0,,,,76,64
115560,note_off,360,0,4,,,,,,,,2,,,,76,64
115560,note_on,0,0,2,,,,,,,,0,,,,78,45
115560,note_on,0,0,4,,,,,,,,2,,,,78,45
115560,note_on,0,0,20,,,,,,,,13,,,,66,45
115560,note_off,360,0,1,,,,,,,,0,,,,79,64
115560,note_on,0,0,1,,,,,,,,0,,,,81,45
115560,note_off,360,0,10,,,,,,,,5,,,,64,64
115560,note_off,360,0,18,,,,,,,,11,,,,79,64
115560,note_on,0,0,10,,,,,,,,5,,,,66,45
115560,note_off,360,0,20,,,,,,,,13,,,,64,64
115560,note_on,5,0,13,,,,,,,,7,,,,64,45
115600,note_off,400,0,21,,,,,,,,14,,,,49,64
115600,note_off,400,0,16,,,,,,,,8,,,,49,64
115600,note_off,400,0,22,,,,,,,,15,,,,49,64
115600,note_off,400,0,7,,,,,,,,4,,,,61,64
115600,note_off,400,0,8,,,,,,,,4,,,,49,64
115675,note_off,115,0,6,,,,,,,,3,,,,78,64
115675,note_off,115,0,5,,,,,,,,3,,,,81,64
115675,note_off,115,0,9,,,,,,,,5,,,,69,64
115675,note_off,115,0,1,,,,,,,,0,,,,81,64
115675,note_off,115,0,14,,,,,,,,7,,,,61,64
115675,note_off,115,0,20,,,,,,,,13,,,,66,64
115675,note_off,115,0,2,,,,,,,,0,,,,78,64
115675,note_off,115,0,13,,,,,,,,7,,,,64,64
115675,note_off,115,0,10,,,,,,,,5,,,,66,64
115675,note_off,115,0,19,,,,,,,,12,,,,78,64
115675,note_off,115,0,4,,,,,,,,2,,,,78,64
115675,note_off,115,0,3,,,,,,,,2,,,,81,64
115675,note_off,115,0,18,,,,,,,,11,,,,81,64
115675,note_off,115,0,15,,,,,,,,7,,,,57,64
115680,note_on,5,0,10,,,,,,,,5,,,,64,45
115680,note_on,5,0,1,,,,,,,,0,,,,79,45
115680,note_on,80,0,22,,,,,,,,15,,,,49,45
115680,note_on,5,0,6,,,,,,,,3,,,,76,45
115680,note_on,5,0,3,,,,,,,,2,,,,79,45
115680,note_on,5,0,18,,,,,,,,11,,,,79,60
115680,note_on,5,0,13,,,,,,,,7,,,,64,45
115680,note_on,5,0,14,,,,,,,,7,,,,61,45
115680,note_on,5,0,5,,,,,,,,3,,,,79,45
115680,note_on,5,0,15,,,,,,,,7,,,,57,45
115680,note_on,5,0,4,,,,,,,,2,,,,76,45
115680,note_on,80,0,7,,,,,,,,4,,,,61,45
115680,note_on,5,0,20,,,,,,,,13,,,,64,45
115680,note_on,80,0,8,,,,,,,,4,,,,49,45
115680,note_on,80,0,21,,,,,,,,14,,,,49,45
115680,note_on,5,0,2,,,,,,,,0,,,,76,45
115680,note_on,5,0,19,,,,,,,,12,,,,76,45
115680,note_on,5,0,9,,,,,,,,5,,,,67,45
115680,note_on,80,0,16,,,,,,,,8,,,,49,45
116035,note_off,355,0,13,,,,,,,,7,,,,64,64
116035,note_off,355,0,15,,,,,,,,7,,,,57,64
116035,note_off,355,0,14,,,,,,,,7,,,,61,64
116040,note_off,360,0,19,,,,,,,,12,,,,76,64
116040,note_on,5,0,14,,,,,,,,7,,,,61,45
116040,note_on,0,0,3,,,,,,,,2,,,,81,45
116040,note_on,0,0,19,,,,,,,,12,,,,78,45
116040,note_on,0,0,2,,,,,,,,0,,,,78,45
116040,note_off,360,0,2,,,,,,,,0,,,,76,64
116040,note_off,360,0,4,,,,,,,,2,,,,76,64
116040,note_off,360,0,1,,,,,,,,0,,,,79,64
116040,note_on,0,0,1,,,,,,,,0,,,,81,45
116040,note_off,360,0,3,,,,,,,,2,,,,79,64
116040,note_on,0,0,6,,,,,,,,3,,,,78,45
116040,note_on,0,0,4,,,,,,,,2,,,,78,45
116040,note_off,360,0,5,,,,,,,,3,,,,79,64
116040,note_on,0,0,18,,,,,,,,11,,,,81,60
116040,note_on,5,0,15,,,,,,,,7,,,,57,45
116040,note_off,360,0,20,,,,,,,,13,,,,64,64
116040,note_on,0,0,20,,,,,,,,13,,,,66,45
116040,note_off,360,0,9,,,,,,,,5,,,,67,64
116040,note_off,360,0,10,,,,,,,,5,,,,64,64
116040,note_on,0,0,10,,,,,,,,5,,,,66,45
116040,note_off,360,0,18,,,,,,,,11,,,,79,64
116040,note_on,0,0,5,,,,,,,,3,,,,81,45
116040,note_on,5,0,13,,,,,,,,7,,,,64,45
116040,note_off,360,0,6,,,,,,,,3,,,,76,64
116040,note_on,0,0,9,,,,,,,,5,,,,69,45
116080,note_off,400,0,22,,,,,,,,15,,,,49,64
116080,note_off,400,0,16,,,,,,,,8,,,,49,64
116080,note_off,400,0,8,,,,,,,,4,,,,49,64
116080,note_off,400,0,21,,,,,,,,14,,,,49,64
116080,note_off,400,0,7,,,,,,,,4,,,,61,64
116155,note_off,115,0,14,,,,,,,,7,,,,61,64
116155,note_off,115,0,19,,,,,,,,12,,,,78,64
116155,note_off,115,0,3,,,,,,,,2,,,,81,64
116155,note_off,115,0,1,,,,,,,,0,,,,81,64
116155,note_off,115,0,4,,,,,,,,2,,,,78,64
116155,note_off,115,0,13,,,,,,,,7,,,,64,64
116155,note_off,115,0,10,,,,,,,,5,,,,66,64
116155,note_off,115,0,20,,,,,,,,13,,,,66,64
116155,note_off,115,0,5,,,,,,,,3,,,,81,64
116155,note_off,115,0,6,,,,,,,,3,,,,78,64
116155,note_off,115,0,2,,,,,,,,0,,,,78,64
116155,note_off,115,0,9,,,,,,,,5,,,,69,64
116155,note_off,115,0,18,,,,,,,,11,,,,81,64
116155,note_off,115,0,15,,,,,,,,7,,,,57,64
116160,note_on,5,0,13,,,,,,,,7,,,,62,45
116160,note_on,80,0,21,,,,,,,,14,,,,50,45
116160,note_on,80,0,7,,,,,,,,4,,,,62,45
116160,note_on,80,0,22,,,,,,,,15,,,,50,45
116160,note_on,5,0,1,,,,,,,,0,,,,78,45
116160,note_on,5,0,2,,,,,,,,0,,,,74,45
116160,note_on,5,0,9,,,,,,,,5,,,,66,45
116160,note_on,80,0,16,,,,,,,,8,,,,50,45
116160,note_on,5,0,3,,,,,,,,2,,,,78,45
116160,note_on,5,0,6,,,,,,,,3,,,,74,45
116160,note_on,5,0,15,,,,,,,,7,,,,54,45
116160,note_on,5,0,5,,,,,,,,3,,,,78,45
116160,note_on,80,0,8,,,,,,,,4,,,,50,45
116160,note_on,5,0,20,,,,,,,,13,,,,62,45
116160,note_on,5,0,19,,,,,,,,12,,,,74,45
116160,note_on,5,0,10,,,,,,,,5,,,,62,45
116160,note_on,5,0,14,,,,,,,,7,,,,57,45
116160,note_on,5,0,18,,,,,,,,11,,,,78,60
116160,note_on,5,0,4,,,,,,,,2,,,,74,45
116395,note_off,235,0,14,,,,,,,,7,,,,57,64
116395,note_off,235,0,13,,,,,,,,7,,,,62,64
116395,note_off,235,0,15,,,,,,,,7,,,,54,64
116395,note_off,235,0,8,,,,,,,,4,,,,50,64
116395,note_off,235,0,7,,,,,,,,4,,,,62,64
116400,note_on,2240,0,17,,,,,,,,10,,,,50,75
116400,note_on,5,0,8,,,,,,,,4,,,,50,75
116400,note_on,5,0,14,,,,,,,,7,,,,57,75
116400,note_on,5,0,13,,,,,,,,7,,,,66,75
116400,note_on,2240,0,12,,,,,,,,6,,,,78,75
116400,note_on,5,0,7,,,,,,,,4,,,,62,75
116400,note_on,5,0,15,,,,,,,,7,,,,50,75
116400,note_on,2240,0,11,,,,,,,,6,,,,81,75
116480,note_off,80,0,15,,,,,,,,7,,,,50,64
116480,note_off,80,0,13,,,,,,,,7,,,,66,64
116480,note_off,80,0,7,,,,,,,,4,,,,62,64
116480,note_off,80,0,14,,,,,,,,7,,,,57,64
116480,note_off,80,0,8,,,,,,,,4,,,,50,64
116480,note_off,80,0,11,,,,,,,,6,,,,81,64
116480,note_off,80,0,12,,,,,,,,6,,,,78,64
116515,note_off,115,0,17,,,,,,,,10,,,,50,64
116520,note_on,5,0,17,,,,,,,,10,,,,50,75
116520,note_on,40,0,14,,,,,,,,7,,,,57,75
116520,note_on,40,0,7,,,,,,,,4,,,,62,75
116520,note_on,40,0,15,,,,,,,,7,,,,50,75
116520,note_on,40,0,8,,,,,,,,4,,,,50,75
116520,note_on,40,0,13,,,,,,,,7,,,,66,75
116520,note_on,40,0,11,,,,,,,,6,,,,81,75
116520,note_on,40,0,12,,,,,,,,6,,,,78,75
116560,note_off,400,0,19,,,,,,,,12,,,,74,64
116560,note_off,400,0,20,,,,,,,,13,,,,62,64
116560,note_off,400,0,10,,,,,,,,5,,,,62,64
116560,note_off,400,0,18,,,,,,,,11,,,,78,64
116560,note_off,400,0,6,,,,,,,,3,,,,74,64
116560,note_off,400,0,5,,,,,,,,3,,,,78,64
116560,note_off,400,0,4,,,,,,,,2,,,,74,64
116560,note_off,400,0,3,,,,,,,,2,,,,78,64
116560,note_off,400,0,21,,,,,,,,14,,,,50,64
116560,note_off,400,0,9,,,,,,,,5,,,,66,64
116560,note_off,400,0,2,,,,,,,,0,,,,74,64
116560,note_off,400,0,1,,,,,,,,0,,,,78,64
116560,note_off,400,0,22,,,,,,,,15,,,,50,64
116560,note_off,400,0,16,,,,,,,,8,,,,50,64
116600,note_off,80,0,15,,,,,,,,7,,,,50,64
116600,note_off,80,0,7,,,,,,,,4,,,,62,64
116600,note_off,80,0,13,,,,,,,,7,,,,66,64
116600,note_off,80,0,8,,,,,,,,4,,,,50,64
116600,note_off,80,0,14,,,,,,,,7,,,,57,64
116600,note_off,80,0,11,,,,,,,,6,,,,81,64
116600,note_off,80,0,12,,,,,,,,6,,,,78,64
116635,note_off,115,0,17,,,,,,,,10,,,,50,64
116640,note_on,5,0,17,,,,,,,,10,,,,50,75
116640,note_on,40,0,12,,,,,,,,6,,,,78,75
116640,note_on,40,0,8,,,,,,,,4,,,,50,75
116640,note_on,40,0,14,,,,,,,,7,,,,57,75
116640,note_on,40,0,13,,,,,,,,7,,,,66,75
116640,note_on,40,0,15,,,,,,,,7,,,,50,75
116640,note_on,40,0,11,,,,,,,,6,,,,81,75
116640,note_on,40,0,7,,,,,,,,4,,,,62,75
116720,note_off,80,0,13,,,,,,,,7,,,,66,64
116720,note_off,80,0,11,,,,,,,,6,,,,81,64
116720,note_off,80,0,7,,,,,,,,4,,,,62,64
116720,note_off,80,0,15,,,,,,,,7,,,,50,64
116720,note_off,80,0,8,,,,,,,,4,,,,50,64
116720,note_off,80,0,12,,,,,,,,6,,,,78,64
116720,note_off,80,0,14,,,,,,,,7,,,,57,64
116875,note_off,235,0,17,,,,,,,,10,,,,50,64
116880,note_on,160,0,8,,,,,,,,4,,,,50,75
116880,note_on,160,0,12,,,,,,,,6,,,,78,75
116880,note_on,5,0,17,,,,,,,,10,,,,50,75
116880,note_on,160,0,11,,,,,,,,6,,,,81,75
116880,note_on,160,0,13,,,,,,,,7,,,,66,75
116880,note_on,160,0,7,,,,,,,,4,,,,62,75
116880,note_on,160,0,15,,,,,,,,7,,,,50,75
116880,note_on,160,0,14,,,,,,,,7,,,,57,75
116960,note_off,80,0,15,,,,,,,,7,,,,50,64
116960,note_off,80,0,12,,,,,,,,6,,,,78,64
116960,note_off,80,0,11,,,,,,,,6,,,,81,64
116960,note_off,80,0,14,,,,,,,,7,,,,57,64
116960,note_off,80,0,8,,,,,,,,4,,,,50,64
116960,note_off,80,0,13,,,,,,,,7,,,,66,64
116960,note_off,80,0,7,,,,,,,,4,,,,62,64
117115,note_off,235,0,17,,,,,,,,10,,,,50,64
117120,note_on,160,0,12,,,,,,,,6,,,,78,75
117120,note_on,160,0,7,,,,,,,,4,,,,62,75
117120,note_on,160,0,13,,,,,,,,7,,,,66,75
117120,note_on,5,0,17,,,,,,,,10,,,,50,75
117120,note_on,160,0,14,,,,,,,,7,,,,57,75
117120,note_on,160,0,8,,,,,,,,4,,,,50,75
117120,note_on,160,0,11,,,,,,,,6,,,,81,75
117120,note_on,160,0,15,,,,,,,,7,,,,50,75
117200,note_off,80,0,12,,,,,,,,6,,,,78,64
117200,note_off,80,0,13,,,,,,,,7,,,,66,64
117200,note_off,80,0,15,,,,,,,,7,,,,50,64
117200,note_off,80,0,14,,,,,,,,7,,,,57,64
117200,note_off,80,0,11,,,,,,,,6,,,,81,64
117200,note_off,80,0,8,,,,,,,,4,,,,50,64
117200,note_off,80,0,7,,,,,,,,4,,,,62,64
117355,note_off,235,0,17,,,,,,,,10,,,,50,64
117360,note_on,160,0,7,,,,,,,,4,,,,62,75
117360,note_on,5,0,17,,,,,,,,10,,,,50,75
117360,note_on,160,0,12,,,,,,,,6,,,,78,75
117360,note_on,160,0,14,,,,,,,,7,,,,57,75
117360,note_on,160,0,13,,,,,,,,7,,,,66,75
117360,note_on,160,0,8,,,,,,,,4,,,,50,75
117360,note_on,160,0,15,,,,,,,,7,,,,50,75
117360,note_on,160,0,11,,,,,,,,6,,,,81,75
117440,note_off,80,0,13,,,,,,,,7,,,,66,64
117440,note_off,80,0,12,,,,,,,,6,,,,78,64
117440,note_off,80,0,14,,,,,,,,7,,,,57,64
117440,note_off,80,0,15,,,,,,,,7,,,,50,64
117440,note_off,80,0,8,,,,,,,,4,,,,50,64
117440,note_off,80,0,7,,,,,,,,4,,,,62,64
117440,note_off,80,0,11,,,,,,,,6,,,,81,64
117595,note_off,235,0,17,,,,,,,,10,,,,50,64
117600,note_on,160,0,12,,,,,,,,6,,,,74,75
117600,note_on,5,0,17,,,,,,,,10,,,,45,75
117600,note_on,160,0,11,,,,,,,,6,,,,78,75
117600,note_on,160,0,8,,,,,,,,4,,,,42,75
117600,note_on,160,0,14,,,,,,,,7,,,,54,75
117600,note_on,160,0,13,,,,,,,,7,,,,62,75
117600,note_on,160,0,15,,,,,,,,7,,,,50,75
117600,note_on,160,0,7,,,,,,,,4,,,,54,75
117680,note_off,80,0,8,,,,,,,,4,,,,42,64
117680,note_off,80,0,11,,,,,,,,6,,,,78,64
117680,note_off,80,0,12,,,,,,,,6,,,,74,64
117680,note_off,80,0,7,,,,,,,,4,,,,54,64
117680,note_off,80,0,13,,,,,,,,7,,,,62,64
117680,note_off,80,0,14,,,,,,,,7,,,,54,64
117680,note_off,80,0,15,,,,,,,,7,,,,50,64
117835,note_off,235,0,17,,,,,,,,10,,,,45,64
117840,note_on,160,0,15,,,,,,,,7,,,,50,75
117840,note_on,160,0,8,,,,,,,,4,,,,38,75
117840,note_on,160,0,14,,,,,,,,7,,,,57,75
117840,note_on,5,0,17,,,,,,,,10,,,,50,75
117840,note_on,160,0,11,,,,,,,,6,,,,81,75
117840,note_on,160,0,13,,,,,,,,7,,,,66,75
117840,note_on,160,0,12,,,,,,,,6,,,,78,75
117840,note_on,160,0,7,,,,,,,,4,,,,50,75
117920,note_off,80,0,12,,,,,,,,6,,,,78,64
117920,note_off,80,0,13,,,,,,,,7,,,,66,64
117920,note_off,80,0,14,,,,,,,,7,,,,57,64
117920,note_off,80,0,11,,,,,,,,6,,,,81,64
117920,note_off,80,0,7,,,,,,,,4,,,,50,64
117920,note_off,80,0,15,,,,,,,,7,,,,50,64
117920,note_off,80,0,8,,,,,,,,4,,,,38,64
118075,note_off,235,0,17,,,,,,,,10,,,,50,64
118080,note_on,160,0,15,,,,,,,,7,,,,50,75
118080,note_on,1520,0,2,,,,,,,,0,,,,69,45
118080,note_on,1520,0,19,,,,,,,,12,,,,69,45
118080,note_on,160,0,11,,,,,,,,6,,,,81,75
118080,note_on,1520,0,16,,,,,,,,8,,,,50,45
118080,note_on,1520,0,18,,,,,,,,11,,,,78,60
118080,note_on,160,0,13,,,,,,,,7,,,,66,75
118080,note_on,160,0,14,,,,,,,,7,,,,57,75
118080,note_on,160,0,12,,,,,,,,6,,,,78,75
118080,note_on,1520,0,5,,,,,,,,3,,,,78,45
118080,note_on,1520,0,10,,,,,,,,5,,,,66,45
118080,note_on,1520,0,20,,,,,,,,13,,,,66,45
118080,note_on,1520,0,4,,,,,,,,2,,,,69,45
118080,note_on,160,0,7,,,,,,,,4,,,,62,75
118080,note_on,1520,0,6,,,,,,,,3,,,,69,45
118080,note_on,1520,0,22,,,,,,,,15,,,,50,45
118080,note_on,1520,0,3,,,,,,,,2,,,,78,45
118080,note_on,1520,0,21,,,,,,,,14,,,,50,45
118080,note_on,5,0,17,,,,,,,,10,,,,50,75
118080,note_on,160,0,8,,,,,,,,4,,,,50,75
118080,note_on,1520,0,9,,,,,,,,5,,,,69,45
118080,note_on,1520,0,1,,,,,,,,0,,,,78,45
118440,note_on,0,0,3,,,,,,,,2,,,,79,45
118440,note_on,0,0,5,,,,,,,,3,,,,79,45
118440,note_off,360,0,5,,,,,,,,3,,,,78,64
118440,note_off,360,0,4,,,,,,,,2,,,,69,64
118440,note_off,360,0,9,,,,,,,,5,,,,69,64
118440,note_off,360,0,3,,,,,,,,2,,,,78,64
118440,note_on,0,0,6,,,,,,,,3,,,,71,45
118440,note_on,0,0,9,,,,,,,,5,,,,71,45
118440,note_off,360,0,6,,,,,,,,3,,,,69,64
118440,note_on,0,0,18,,,,,,,,11,,,,79,60
118440,note_off,360,0,2,,,,,,,,0,,,,69,64
118440,note_off,360,0,18,,,,,,,,11,,,,78,64
118440,note_on,0,0,2,,,,,,,,0,,,,71,45
118440,note_on,0,0,4,,,,,,,,2,,,,71,45
118440,note_on,0,0,10,,,,,,,,5,,,,67,45
118440,note_off,360,0,10,,,,,,,,5,,,,66,64
118440,note_off,360,0,19,,,,,,,,12,,,,69,64
118440,note_on,0,0,19,,,,,,,,12,,,,71,45
118440,note_on,0,0,1,,,,,,,,0,,,,79,45
118440,note_on,0,0,20,,,,,,,,13,,,,67,45
118440,note_off,360,0,20,,,,,,,,13,,,,66,64
118440,note_off,360,0,1,,,,,,,,0,,,,78,64
118480,note_off,400,0,17,,,,,,,,10,,,,50,64
118480,note_off,400,0,21,,,,,,,,14,,,,50,64
118480,note_off,400,0,11,,,,,,,,6,,,,81,64
118480,note_off,400,0,8,,,,,,,,4,,,,50,64
118480,note_off,400,0,7,,,,,,,,4,,,,62,64
118480,note_off,400,0,14,,,,,,,,7,,,,57,64
118480,note_off,400,0,22,,,,,,,,15,,,,50,64
118480,note_off,400,0,12,,,,,,,,6,,,,78,64
118480,note_off,400,0,16,,,,,,,,8,,,,50,64
118480,note_off,400,0,15,,,,,,,,7,,,,50,64
118480,note_off,400,0,13,,,,,,,,7,,,,66,64
118555,note_off,115,0,20,,,,,,,,13,,,,67,64
118555,note_off,115,0,18,,,,,,,,11,,,,79,64
118555,note_off,115,0,6,,,,,,,,3,,,,71,64
118555,note_off,115,0,10,,,,,,,,5,,,,67,64
118555,note_off,115,0,5,,,,,,,,3,,,,79,64
118555,note_off,115,0,4,,,,,,,,2,,,,71,64
118555,note_off,115,0,19,,,,,,,,12,,,,71,64
118555,note_off,115,0,1,,,,,,,,0,,,,79,64
118555,note_off,115,0,2,,,,,,,,0,,,,71,64
118555,note_off,115,0,3,,,,,,,,2,,,,79,64
118555,note_off,115,0,9,,,,,,,,5,,,,71,64
118560,note_on,5,0,18,,,,,,,,11,,,,78,60
118560,note_on,80,0,13,,,,,,,,7,,,,62,75
118560,note_on,80,0,8,,,,,,,,4,,,,50,75
118560,note_on,80,0,16,,,,,,,,8,,,,50,45
118560,note_on,5,0,1,,,,,,,,0,,,,78,45
118560,note_on,5,0,19,,,,,,,,12,,,,69,45
118560,note_on,5,0,9,,,,,,,,5,,,,69,45
118560,note_on,5,0,6,,,,,,,,3,,,,69,45
118560,note_on,80,0,14,,,,,,,,7,,,,50,75
118560,note_on,5,0,10,,,,,,,,5,,,,66,45
118560,note_on,5,0,4,,,,,,,,2,,,,69,45
118560,note_on,80,0,21,,,,,,,,14,,,,50,45
118560,note_on,80,0,7,,,,,,,,4,,,,62,75
118560,note_on,5,0,2,,,,,,,,0,,,,69,45
118560,note_on,5,0,3,,,,,,,,2,,,,78,45
118560,note_on,80,0,22,,,,,,,,15,,,,50,45
118560,note_on,5,0,20,,,,,,,,13,,,,66,45
118560,note_on,5,0,5,,,,,,,,3,,,,78,45
118920,note_on,0,0,4,,,,,,,,2,,,,71,45
118920,note_off,360,0,18,,,,,,,,11,,,,78,64
118920,note_on,0,0,1,,,,,,,,0,,,,79,45
118920,note_on,0,0,20,,,,,,,,13,,,,67,45
118920,note_off,360,0,20,,,,,,,,13,,,,66,64
118920,note_on,0,0,19,,,,,,,,12,,,,71,45
118920,note_off,360,0,1,,,,,,,,0,,,,78,64
118920,note_on,0,0,18,,,,,,,,11,,,,79,60
118920,note_off,360,0,3,,,,,,,,2,,,,78,64
118920,note_on,0,0,6,,,,,,,,3,,,,71,45
118920,note_off,360,0,10,,,,,,,,5,,,,66,64
118920,note_on,0,0,5,,,,,,,,3,,,,79,45
118920,note_off,360,0,5,,,,,,,,3,,,,78,64
118920,note_on,0,0,3,,,,,,,,2,,,,79,45
118920,note_off,360,0,2,,,,,,,,0,,,,69,64
118920,note_on,0,0,2,,,,,,,,0,,,,71,45
118920,note_off,360,0,9,,,,,,,,5,,,,69,64
118920,note_off,360,0,4,,,,,,,,2,,,,69,64
118920,note_off,360,0,6,,,,,,,,3,,,,69,64
118920,note_off,360,0,19,,,,,,,,12,,,,69,64
118920,note_on,0,0,10,,,,,,,,5,,,,67,45
118920,note_on,0,0,9,,,,,,,,5,,,,71,45
118960,note_off,400,0,14,,,,,,,,7,,,,50,64
118960,note_off,400,0,16,,,,,,,,8,,,,50,64
118960,note_off,400,0,8,,,,,,,,4,,,,50,64
118960,note_off,400,0,22,,,,,,,,15,,,,50,64
118960,note_off,400,0,21,,,,,,,,14,,,,50,64
118960,note_off,400,0,13,,,,,,,,7,,,,62,64
118960,note_off,400,0,7,,,,,,,,4,,,,62,64
119035,note_off,115,0,10,,,,,,,,5,,,,67,64
119035,note_off,115,0,1,,,,,,,,0,,,,79,64
119035,note_off,115,0,9,,,,,,,,5,,,,71,64
119035,note_off,115,0,19,,,,,,,,12,,,,71,64
119035,note_off,115,0,6,,,,,,,,3,,,,71,64
119035,note_off,115,0,20,,,,,,,,13,,,,67,64
119035,note_off,115,0,18,,,,,,,,11,,,,79,64
119035,note_off,115,0,5,,,,,,,,3,,,,79,64
119035,note_off,115,0,2,,,,,,,,0,,,,71,64
119035,note_off,115,0,3,,,,,,,,2,,,,79,64
119035,note_off,115,0,4,,,,,,,,2,,,,71,64
119040,note_on,80,0,13,,,,,,,,7,,,,62,75
119040,note_on,5,0,1,,,,,,,,0,,,,81,45
119040,note_on,80,0,7,,,,,,,,4,,,,54,75
119040,note_on,5,0,2,,,,,,,,0,,,,72,45
119040,note_on,5,0,20,,,,,,,,13,,,,69,45
119040,note_on,80,0,22,,,,,,,,15,,,,42,45
119040,note_on,5,0,4,,,,,,,,2,,,,72,45
119040,note_on,80,0,21,,,,,,,,14,,,,54,45
119040,note_on,80,0,14,,,,,,,,7,,,,50,75
119040,note_on,5,0,6,,,,,,,,3,,,,72,45
119040,note_on,5,0,5,,,,,,,,3,,,,81,45
119040,note_on,80,0,16,,,,,,,,8,,,,42,45
119040,note_on,5,0,3,,,,,,,,2,,,,81,45
119040,note_on,5,0,18,,,,,,,,11,,,,81,60
119040,note_on,5,0,19,,,,,,,,12,,,,72,45
119040,note_on,5,0,9,,,,,,,,5,,,,69,45
119040,note_on,5,0,10,,,,,,,,5,,,,66,45
119040,note_on,80,0,8,,,,,,,,4,,,,38,75
119400,note_on,0,0,1,,,,,,,,0,,,,83,45
119400,note_off,360,0,2,,,,,,,,0,,,,72,64
119400,note_on,0,0,2,,,,,,,,0,,,,74,45
119400,note_on,0,0,5,,,,,,,,3,,,,83,45
119400,note_off,360,0,5,,,,,,,,3,,,,81,64
119400,note_on,0,0,4,,,,,,,,2,,,,74,45
119400,note_off,360,0,4,,,,,,,,2,,,,72,64
119400,note_off,360,0,1,,,,,,,,0,,,,81,64
119400,note_off,360,0,3,,,,,,,,2,,,,81,64
119400,note_on,0,0,3,,,,,,,,2,,,,83,45
119400,note_off,360,0,6,,,,,,,,3,,,,72,64
119400,note_on,0,0,6,,,,,,,,3,,,,74,45
119400,note_on,0,0,20,,,,,,,,13,,,,71,45
119400,note_off,360,0,20,,,,,,,,13,,,,69,64
119400,note_on,0,0,19,,,,,,,,12,,,,74,45
119400,note_off,360,0,18,,,,,,,,11,,,,81,64
119400,note_on,0,0,18,,,,,,,,11,,,,83,60
119400,note_off,360,0,19,,,,,,,,12,,,,72,64
119400,note_off,360,0,9,,,,,,,,5,,,,69,64
119400,note_on,0,0,9,,,,,,,,5,,,,71,45
119440,note_off,400,0,13,,,,,,,,7,,,,62,64
119440,note_off,400,0,16,,,,,,,,8,,,,42,64
119440,note_off,400,0,14,,,,,,,,7,,,,50,64
119440,note_off,400,0,10,,,,,,,,5,,,,66,64
119440,note_off,400,0,22,,,,,,,,15,,,,42,64
119440,note_off,400,0,21,,,,,,,,14,,,,54,64
119440,note_off,400,0,8,,,,,,,,4,,,,38,64
119440,note_off,400,0,7,,,,,,,,4,,,,54,64
119515,note_off,115,0,4,,,,,,,,2,,,,74,64
119515,note_off,115,0,18,,,,,,,,11,,,,83,64
119515,note_off,115,0,1,,,,,,,,0,,,,83,64
119515,note_off,115,0,19,,,,,,,,12,,,,74,64
119515,note_off,115,0,5,,,,,,,,3,,,,83,64
119515,note_off,115,0,2,,,,,,,,0,,,,74,64
119515,note_off,115,0,6,,,,,,,,3,,,,74,64
119515,note_off,115,0,9,,,,,,,,5,,,,71,64
119515,note_off,115,0,20,,,,,,,,13,,,,71,64
119515,note_off,115,0,3,,,,,,,,2,,,,83,64
119520,note_on,5,0,18,,,,,,,,11,,,,81,60
119520,note_on,5,0,3,,,,,,,,2,,,,81,45
119520,note_on,5,0,19,,,,,,,,12,,,,72,45
119520,note_on,5,0,6,,,,,,,,3,,,,72,45
119520,note_on,5,0,20,,,,,,,,13,,,,69,45
119520,note_on,80,0,10,,,,,,,,5,,,,66,45
119520,note_on,80,0,14,,,,,,,,7,,,,50,75
119520,note_on,80,0,22,,,,,,,,15,,,,42,45
119520,note_on,80,0,21,,,,,,,,14,,,,54,45
119520,note_on,80,0,7,,,,,,,,4,,,,54,75
119520,note_on,5,0,2,,,,,,,,0,,,,72,45
119520,note_on,5,0,5,,,,,,,,3,,,,81,45
119520,note_on,80,0,16,,,,,,,,8,,,,42,45
119520,note_on,5,0,1,,,,,,,,0,,,,81,45
119520,note_on,80,0,8,,,,,,,,4,,,,38,75
119520,note_on,5,0,4,,,,,,,,2,,,,72,45
119520,note_on,80,0,13,,,,,,,,7,,,,62,75
119520,note_on,5,0,9,,,,,,,,5,,,,69,45
119880,note_on,0,0,4,,,,,,,,2,,,,74,45
119880,note_off,360,0,9,,,,,,,,5,,,,69,64
119880,note_off,360,0,6,,,,,,,,3,,,,72,64
119880,note_off,360,0,4,,,,,,,,2,,,,72,64
119880,note_on,0,0,9,,,,,,,,5,,,,71,45
119880,note_on,0,0,19,,,,,,,,12,,,,74,45
119880,note_off,360,0,18,,,,,,,,11,,,,81,64
119880,note_off,360,0,3,,,,,,,,2,,,,81,64
119880,note_on,0,0,3,,,,,,,,2,,,,83,45
119880,note_off,360,0,5,,,,,,,,3,,,,81,64
119880,note_on,0,0,6,,,,,,,,3,,,,74,45
119880,note_off,360,0,20,,,,,,,,13,,,,69,64
119880,note_on,0,0,18,,,,,,,,11,,,,83,60
119880,note_off,360,0,2,,,,,,,,0,,,,72,64
119880,note_off,360,0,1,,,,,,,,0,,,,81,64
119880,note_on,0,0,1,,,,,,,,0,,,,83,45
119880,note_off,360,0,19,,,,,,,,12,,,,72,64
119880,note_on,0,0,20,,,,,,,,13,,,,71,45
119880,note_on,0,0,2,,,,,,,,0,,,,74,45
119880,note_on,0,0,5,,,,,,,,3,,,,83,45
119920,note_off,400,0,14,,,,,,,,7,,,,50,64
119920,note_off,400,0,7,,,,,,,,4,,,,54,64
119920,note_off,400,0,16,,,,,,,,8,,,,42,64
119920,note_off,400,0,22,,,,,,,,15,,,,42,64
119920,note_off,400,0,21,,,,,,,,14,,,,54,64
119920,note_off,400,0,10,,,,,,,,5,,,,66,64
119920,note_off,400,0,8,,,,,,,,4,,,,38,64
119920,note_off,400,0,13,,,,,,,,7,,,,62,64
119995,note_off,115,0,6,,,,,,,,3,,,,74,64
119995,note_off,115,0,4,,,,,,,,2,,,,74,64
119995,note_off,115,0,19,,,,,,,,12,,,,74,64
119995,note_off,115,0,9,,,,,,,,5,,,,71,64
119995,note_off,115,0,3,,,,,,,,2,,,,83,64
119995,note_off,115,0,18,,,,,,,,11,,,,83,64
119995,note_off,115,0,20,,,,,,,,13,,,,71,64
119995,note_off,115,0,2,,,,,,,,0,,,,74,64
119995,note_off,115,0,1,,,,,,,,0,,,,83,64
119995,note_off,115,0,5,,,,,,,,3,,,,83,64
120000,note_on,5,0,9,,,,,,,,5,,,,69,45
120000,note_on,5,0,18,,,,,,,,11,,,,81,60
120000,note_on,5,0,2,,,,,,,,0,,,,72,45
120000,note_on,5,0,6,,,,,,,,3,,,,72,45
120000,note_on,80,0,13,,,,,,,,7,,,,62,75
120000,note_on,80,0,7,,,,,,,,4,,,,54,75
120000,note_on,80,0,21,,,,,,,,14,,,,54,45
120000,note_on,80,0,8,,,,,,,,4,,,,38,75
120000,note_on,5,0,20,,,,,,,,13,,,,69,45
120000,note_on,5,0,19,,,,,,,,12,,,,72,45
120000,note_on,5,0,5,,,,,,,,3,,,,81,45
120000,note_on,80,0,22,,,,,,,,15,,,,42,45
120000,note_on,5,0,3,,,,,,,,2,,,,81,45
120000,note_on,80,0,10,,,,,,,,5,,,,66,45
120000,note_on,80,0,16,,,,,,,,8,,,,42,45
120000,note_on,80,0,14,,,,,,,,7,,,,50,75
120000,note_on,5,0,1,,,,,,,,0,,,,81,45
120000,note_on,5,0,4,,,,,,,,2,,,,72,45
120360,note_on,0,0,18,,,,,,,,11,,,,83,60
120360,note_off,360,0,18,,,,,,,,11,,,,81,64
120360,note_off,360,0,20,,,,,,,,13,,,,69,64
120360,note_on,0,0,20,,,,,,,,13,,,,71,45
120360,note_on,0,0,1,,,,,,,,0,,,,83,45
120360,note_off,360,0,19,,,,,,,,12,,,,72,64
120360,note_off,360,0,5,,,,,,,,3,,,,81,64
120360,note_off,360,0,9,,,,,,,,5,,,,69,64
120360,note_on,0,0,9,,,,,,,,5,,,,74,45
120360,note_on,0,0,4,,,,,,,,2,,,,74,45
120360,note_off,360,0,6,,,,,,,,3,,,,72,64
120360,note_on,0,0,6,,,,,,,,3,,,,74,45
120360,note_on,0,0,19,,,,,,,,12,,,,74,45
120360,note_on,0,0,5,,,,,,,,3,,,,83,45
120360,note_off,360,0,4,,,,,,,,2,,,,72,64
120360,note_off,360,0,1,,,,,,,,0,,,,81,64
120360,note_off,360,0,3,,,,,,,,2,,,,81,64
120360,note_on,0,0,2,,,,,,,,0,,,,74,45
120360,note_off,360,0,2,,,,,,,,0,,,,72,64
120360,note_on,0,0,3,,,,,,,,2,,,,83,45
120400,note_off,400,0,8,,,,,,,,4,,,,38,64
120400,note_off,400,0,14,,,,,,,,7,,,,50,64
120400,note_off,400,0,22,,,,,,,,15,,,,42,64
120400,note_off,400,0,21,,,,,,,,14,,,,54,64
120400,note_off,400,0,7,,,,,,,,4,,,,54,64
120400,note_off,400,0,16,,,,,,,,8,,,,42,64
120400,note_off,400,0,13,,,,,,,,7,,,,62,64
120400,note_off,400,0,10,,,,,,,,5,,,,66,64
120475,note_off,115,0,9,,,,,,,,5,,,,74,64
120475,note_off,115,0,18,,,,,,,,11,,,,83,64
120475,note_off,115,0,5,,,,,,,,3,,,,83,64
120475,note_off,115,0,3,,,,,,,,2,,,,83,64
120475,note_off,115,0,6,,,,,,,,3,,,,74,64
120475,note_off,115,0,4,,,,,,,,2,,,,74,64
120475,note_off,115,0,2,,,,,,,,0,,,,74,64
120475,note_off,115,0,1,,,,,,,,0,,,,83,64
120475,note_off,115,0,19,,,,,,,,12,,,,74,64
120475,note_off,115,0,20,,,,,,,,13,,,,71,64
120480,note_on,5,0,20,,,,,,,,13,,,,71,45
120480,note_on,80,0,13,,,,,,,,7,,,,62,75
120480,note_on,5,0,1,,,,,,,,0,,,,79,45
120480,note_on,80,0,21,,,,,,,,14,,,,55,45
120480,note_on,80,0,16,,,,,,,,8,,,,43,45
120480,note_on,80,0,22,,,,,,,,15,,,,43,45
120480,note_on,5,0,5,,,,,,,,3,,,,79,45
120480,note_on,5,0,19,,,,,,,,12,,,,74,45
120480,note_on,5,0,9,,,,,,,,5,,,,71,75
120480,note_on,80,0,14,,,,,,,,7,,,,50,75
120480,note_on,5,0,4,,,,,,,,2,,,,71,45
120480,note_on,5,0,6,,,,,,,,3,,,,71,45
120480,note_on,80,0,7,,,,,,,,4,,,,55,75
120480,note_on,5,0,2,,,,,,,,0,,,,74,45
120480,note_on,80,0,10,,,,,,,,5,,,,67,75
120480,note_on,80,0,8,,,,,,,,4,,,,43,75
120480,note_on,5,0,18,,,,,,,,11,,,,79,60
120480,note_on,5,0,3,,,,,,,,2,,,,79,45
120560,note_off,80,0,16,,,,,,,,8,,,,43,64
120715,note_off,235,0,1,,,,,,,,0,,,,79,64
120715,note_off,235,0,13,,,,,,,,7,,,,62,64
120715,note_off,235,0,5,,,,,,,,3,,,,79,64
120715,note_off,235,0,4,,,,,,,,2,,,,71,64
120715,note_off,235,0,19,,,,,,,,12,,,,74,64
120715,note_off,235,0,7,,,,,,,,4,,,,55,64
120715,note_off,235,0,6,,,,,,,,3,,,,71,64
120715,note_off,235,0,21,,,,,,,,14,,,,55,64
120715,note_off,235,0,18,,,,,,,,11,,,,79,64
120715,note_off,235,0,3,,,,,,,,2,,,,79,64
120715,note_off,235,0,14,,,,,,,,7,,,,50,64
120715,note_off,235,0,8,,,,,,,,4,,,,43,64
120715,note_off,235,0,22,,,,,,,,15,,,,43,64
120715,note_off,235,0,2,,,,,,,,0,,,,74,64
120715,note_off,235,0,20,,,,,,,,13,,,,71,64
120720,note_on,5,0,13,,,,,,,,7,,,,62,75
120720,note_on,5,0,14,,,,,,,,7,,,,50,75
120720,note_on,5,0,20,,,,,,,,13,,,,62,75
120720,note_on,2240,0,11,,,,,,,,6,,,,74,75
120720,note_on,5,0,1,,,,,,,,0,,,,74,75
120720,note_on,5,0,7,,,,,,,,4,,,,55,75
120720,note_on,5,0,4,,,,,,,,2,,,,71,75
120720,note_on,5,0,2,,,,,,,,0,,,,71,75
120720,note_on,160,0,16,,,,,,,,8,,,,43,75
120720,note_on,5,0,5,,,,,,,,3,,,,74,75
120720,note_on,5,0,8,,,,,,,,4,,,,38,75
120720,note_on,2240,0,12,,,,,,,,6,,,,62,75
120720,note_on,5,0,19,,,,,,,,12,,,,71,75
120720,note_on,5,0,3,,,,,,,,2,,,,74,75
120720,note_on,5,0,6,,,,,,,,3,,,,71,75
120720,note_on,5,0,22,,,,,,,,15,,,,43,75
120720,note_on,2240,0,15,,,,,,,,7,,,,50,75
120720,note_on,5,0,18,,,,,,,,11,,,,74,92
120720,note_on,5,0,21,,,,,,,,14,,,,55,75
120800,note_off,80,0,19,,,,,,,,12,,,,71,64
120800,note_off,80,0,16,,,,,,,,8,,,,43,64
120800,note_off,80,0,5,,,,,,,,3,,,,74,64
120800,note_off,80,0,11,,,,,,,,6,,,,74,64
120800,note_off,80,0,15,,,,,,,,7,,,,50,64
120800,note_off,80,0,7,,,,,,,,4,,,,55,64
120800,note_off,80,0,2,,,,,,,,0,,,,71,64
120800,note_off,80,0,1,,,,,,,,0,,,,74,64
120800,note_off,80,0,20,,,,,,,,13,,,,62,64
120800,note_off,80,0,12,,,,,,,,6,,,,62,64
120800,note_off,80,0,18,,,,,,,,11,,,,74,64
120800,note_off,80,0,14,,,,,,,,7,,,,50,64
120800,note_off,80,0,6,,,,,,,,3,,,,71,64
120800,note_off,80,0,22,,,,,,,,15,,,,43,64
120800,note_off,80,0,21,,,,,,,,14,,,,55,64
120800,note_off,80,0,4,,,,,,,,2,,,,71,64
120800,note_off,80,0,3,,,,,,,,2,,,,74,64
120800,note_off,80,0,8,,,,,,,,4,,,,38,64
120800,note_off,80,0,13,,,,,,,,7,,,,62,64
120840,note_on,40,0,3,,,,,,,,2,,,,74,75
120840,note_on,40,0,5,,,,,,,,3,,,,74,75
120840,note_on,40,0,15,,,,,,,,7,,,,50,75
120840,note_on,40,0,8,,,,,,,,4,,,,38,75
120840,note_on,40,0,4,,,,,,,,2,,,,71,75
120840,note_on,40,0,22,,,,,,,,15,,,,43,75
120840,note_on,40,0,20,,,,,,,,13,,,,62,75
120840,note_on,40,0,1,,,,,,,,0,,,,74,75
120840,note_on,40,0,21,,,,,,,,14,,,,55,75
120840,note_on,40,0,16,,,,,,,,8,,,,43,75
120840,note_on,40,0,14,,,,,,,,7,,,,50,75
120840,note_on,40,0,18,,,,,,,,11,,,,74,92
120840,note_on,40,0,19,,,,,,,,12,,,,71,75
120840,note_on,40,0,11,,,,,,,,6,,,,74,75
120840,note_on,40,0,13,,,,,,,,7,,,,62,75
120840,note_on,40,0,7,,,,,,,,4,,,,55,75
120840,note_on,40,0,6,,,,,,,,3,,,,71,75
120840,note_on,40,0,2,,,,,,,,0,,,,71,75
120840,note_on,40,0,12,,,,,,,,6,,,,62,75
120920,note_off,80,0,11,,,,,,,,6,,,,74,64
120920,note_off,80,0,2,,,,,,,,0,,,,71,64
120920,note_off,80,0,19,,,,,,,,12,,,,71,64
120920,note_off,80,0,14,,,,,,,,7,,,,50,64
120920,note_off,80,0,13,,,,,,,,7,,,,62,64
120920,note_off,80,0,1,,,,,,,,0,,,,74,64
120920,note_off,80,0,3,,,,,,,,2,,,,74,64
120920,note_off,80,0,18,,,,,,,,11,,,,74,64
120920,note_off,80,0,16,,,,,,,,8,,,,43,64
120920,note_off,80,0,20,,,,,,,,13,,,,62,64
120920,note_off,80,0,4,,,,,,,,2,,,,71,64
120920,note_off,80,0,8,,,,,,,,4,,,,38,64
120920,note_off,80,0,12,,,,,,,,6,,,,62,64
120920,note_off,80,0,7,,,,,,,,4,,,,55,64
120920,note_off,80,0,15,,,,,,,,7,,,,50,64
120920,note_off,80,0,6,,,,,,,,3,,,,71,64
120920,note_off,80,0,5,,,,,,,,3,,,,74,64
120920,note_off,80,0,22,,,,,,,,15,,,,43,64
120920,note_off,80,0,21,,,,,,,,14,,,,55,64
120960,note_on,40,0,11,,,,,,,,6,,,,74,75
120960,note_on,40,0,12,,,,,,,,6,,,,62,75
120960,note_on,40,0,15,,,,,,,,7,,,,50,75
120960,note_on,40,0,20,,,,,,,,13,,,,62,75
120960,note_on,40,0,6,,,,,,,,3,,,,71,75
120960,note_on,40,0,3,,,,,,,,2,,,,74,75
120960,note_on,40,0,4,,,,,,,,2,,,,71,75
120960,note_on,40,0,14,,,,,,,,7,,,,50,75
120960,note_on,40,0,2,,,,,,,,0,,,,71,75
120960,note_on,40,0,22,,,,,,,,15,,,,43,75
120960,note_on,40,0,5,,,,,,,,3,,,,74,75
120960,note_on,40,0,7,,,,,,,,4,,,,55,75
120960,note_on,40,0,8,,,,,,,,4,,,,38,75
120960,note_on,40,0,19,,,,,,,,12,,,,71,75
120960,note_on,40,0,18,,,,,,,,11,,,,74,92
120960,note_on,40,0,13,,,,,,,,7,,,,62,75
120960,note_on,40,0,1,,,,,,,,0,,,,74,75
120960,note_on,40,0,16,,,,,,,,8,,,,43,75
120960,note_on,40,0,21,,,,,,,,14,,,,55,75
121040,note_off,80,0,8,,,,,,,,4,,,,38,64
121040,note_off,80,0,18,,,,,,,,11,,,,74,64
121040,note_off,80,0,2,,,,,,,,0,,,,71,64
121040,note_off,80,0,12,,,,,,,,6,,,,62,64
121040,note_off,80,0,15,,,,,,,,7,,,,50,64
121040,note_off,80,0,20,,,,,,,,13,,,,62,64
121040,note_off,80,0,7,,,,,,,,4,,,,55,64
121040,note_off,80,0,22,,,,,,,,15,,,,43,64
121040,note_off,80,0,16,,,,,,,,8,,,,43,64
121040,note_off,80,0,13,,,,,,,,7,,,,62,64
121040,note_off,80,0,6,,,,,,,,3,,,,71,64
121040,note_off,80,0,1,,,,,,,,0,,,,74,64
121040,note_off,80,0,14,,,,,,,,7,,,,50,64
121040,note_off,80,0,21,,,,,,,,14,,,,55,64
121040,note_off,80,0,3,,,,,,,,2,,,,74,64
121040,note_off,80,0,19,,,,,,,,12,,,,71,64
121040,note_off,80,0,5,,,,,,,,3,,,,74,64
121040,note_off,80,0,4,,,,,,,,2,,,,71,64
121040,note_off,80,0,11,,,,,,,,6,,,,74,64
121200,note_on,160,0,13,,,,,,,,7,,,,62,75
121200,note_on,160,0,8,,,,,,,,4,,,,38,75
121200,note_on,160,0,3,,,,,,,,2,,,,74,75
121200,note_on,160,0,16,,,,,,,,8,,,,43,75
121200,note_on,160,0,18,,,,,,,,11,,,,74,92
121200,note_on,160,0,19,,,,,,,,12,,,,71,75
121200,note_on,160,0,7,,,,,,,,4,,,,55,75
121200,note_on,160,0,14,,,,,,,,7,,,,50,75
121200,note_on,160,0,22,,,,,,,,15,,,,43,75
121200,note_on,160,0,1,,,,,,,,0,,,,74,75
121200,note_on,160,0,2,,,,,,,,0,,,,71,75
121200,note_on,160,0,21,,,,,,,,14,,,,55,75
121200,note_on,160,0,12,,,,,,,,6,,,,62,75
121200,note_on,160,0,6,,,,,,,,3,,,,71,75
121200,note_on,160,0,4,,,,,,,,2,,,,71,75
121200,note_on,160,0,20,,,,,,,,13,,,,62,75
121200,note_on,160,0,15,,,,,,,,7,,,,50,75
121200,note_on,160,0,11,,,,,,,,6,,,,74,75
121200,note_on,160,0,5,,,,,,,,3,,,,74,75
121280,note_off,80,0,22,,,,,,,,15,,,,43,64
121280,note_off,80,0,6,,,,,,,,3,,,,71,64
121280,note_off,80,0,14,,,,,,,,7,,,,50,64
121280,note_off,80,0,7,,,,,,,,4,,,,55,64
121280,note_off,80,0,5,,,,,,,,3,,,,74,64
121280,note_off,80,0,19,,,,,,,,12,,,,71,64
121280,note_off,80,0,12,,,,,,,,6,,,,62,64
121280,note_off,80,0,15,,,,,,,,7,,,,50,64
121280,note_off,80,0,2,,,,,,,,0,,,,71,64
121280,note_off,80,0,3,,,,,,,,2,,,,74,64
121280,note_off,80,0,16,,,,,,,,8,,,,43,64
121280,note_off,80,0,11,,,,,,,,6,,,,74,64
121280,note_off,80,0,8,,,,,,,,4,,,,38,64
121280,note_off,80,0,20,,,,,,,,13,,,,62,64
121280,note_off,80,0,13,,,,,,,,7,,,,62,64
121280,note_off,80,0,4,,,,,,,,2,,,,71,64
121280,note_off,80,0,1,,,,,,,,0,,,,74,64
121280,note_off,80,0,18,,,,,,,,11,,,,74,64
121280,note_off,80,0,21,,,,,,,,14,,,,55,64
121440,note_on,160,0,3,,,,,,,,2,,,,79,75
121440,note_on,160,0,5,,,,,,,,3,,,,79,75
121440,note_on,160,0,7,,,,,,,,4,,,,59,75
121440,note_on,160,0,22,,,,,,,,15,,,,47,75
121440,note_on,160,0,18,,,,,,,,11,,,,79,92
121440,note_on,160,0,2,,,,,,,,0,,,,74,75
121440,note_on,160,0,12,,,,,,,,6,,,,62,75
121440,note_on,160,0,6,,,,,,,,3,,,,74,75
121440,note_on,160,0,11,,,,,,,,6,,,,79,75
121440,note_on,160,0,13,,,,,,,,7,,,,62,75
121440,note_on,160,0,14,,,,,,,,7,,,,50,75
121440,note_on,160,0,16,,,,,,,,8,,,,47,75
121440,note_on,160,0,15,,,,,,,,7,,,,50,75
121440,note_on,160,0,19,,,,,,,,12,,,,74,75
121440,note_on,160,0,1,,,,,,,,0,,,,79,75
121440,note_on,160,0,8,,,,,,,,4,,,,42,75
121440,note_on,160,0,4,,,,,,,,2,,,,74,75
121440,note_on,160,0,20,,,,,,,,13,,,,67,75
121440,note_on,160,0,21,,,,,,,,14,,,,59,75
121520,note_off,80,0,18,,,,,,,,11,,,,79,64
121520,note_off,80,0,8,,,,,,,,4,,,,42,64
121520,note_off,80,0,2,,,,,,,,0,,,,74,64
121520,note_off,80,0,12,,,,,,,,6,,,,62,64
121520,note_off,80,0,5,,,,,,,,3,,,,79,64
121520,note_off,80,0,11,,,,,,,,6,,,,79,64
121520,note_off,80,0,21,,,,,,,,14,,,,59,64
121520,note_off,80,0,7,,,,,,,,4,,,,59,64
121520,note_off,80,0,14,,,,,,,,7,,,,50,64
121520,note_off,80,0,22,,,,,,,,15,,,,47,64
121520,note_off,80,0,19,,,,,,,,12,,,,74,64
121520,note_off,80,0,3,,,,,,,,2,,,,79,64
121520,note_off,80,0,16,,,,,,,,8,,,,47,64
121520,note_off,80,0,4,,,,,,,,2,,,,74,64
121520,note_off,80,0,15,,,,,,,,7,,,,50,64
121520,note_off,80,0,6,,,,,,,,3,,,,74,64
121520,note_off,80,0,1,,,,,,,,0,,,,79,64
121520,note_off,80,0,13,,,,,,,,7,,,,62,64
121520,note_off,80,0,20,,,,,,,,13,,,,67,64
121680,note_on,160,0,21,,,,,,,,14,,,,55,75
121680,note_on,160,0,12,,,,,,,,6,,,,62,75
121680,note_on,160,0,19,,,,,,,,12,,,,71,75
121680,note_on,160,0,6,,,,,,,,3,,,,71,75
121680,note_on,160,0,4,,,,,,,,2,,,,71,75
121680,note_on,160,0,2,,,,,,,,0,,,,71,75
121680,note_on,160,0,3,,,,,,,,2,,,,74,75
121680,note_on,160,0,18,,,,,,,,11,,,,74,92
121680,note_on,160,0,11,,,,,,,,6,,,,74,75
121680,note_on,160,0,1,,,,,,,,0,,,,74,75
121680,note_on,160,0,20,,,,,,,,13,,,,62,75
121680,note_on,160,0,16,,,,,,,,8,,,,43,75
121680,note_on,160,0,5,,,,,,,,3,,,,74,75
121680,note_on,160,0,8,,,,,,,,4,,,,38,75
121680,note_on,160,0,22,,,,,,,,15,,,,43,75
121680,note_on,160,0,15,,,,,,,,7,,,,50,75
121680,note_on,160,0,14,,,,,,,,7,,,,50,75
121680,note_on,160,0,7,,,,,,,,4,,,,55,75
121680,note_on,160,0,13,,,,,,,,7,,,,62,75
121760,note_off,80,0,13,,,,,,,,7,,,,62,64
121760,note_off,80,0,4,,,,,,,,2,,,,71,64
121760,note_off,80,0,11,,,,,,,,6,,,,74,64
121760,note_off,80,0,16,,,,,,,,8,,,,43,64
121760,note_off,80,0,14,,,,,,,,7,,,,50,64
121760,note_off,80,0,12,,,,,,,,6,,,,62,64
121760,note_off,80,0,1,,,,,,,,0,,,,74,64
121760,note_off,80,0,21,,,,,,,,14,,,,55,64
121760,note_off,80,0,8,,,,,,,,4,,,,38,64
121760,note_off,80,0,7,,,,,,,,4,,,,55,64
121760,note_off,80,0,22,,,,,,,,15,,,,43,64
121760,note_off,80,0,15,,,,,,,,7,,,,50,64
121760,note_off,80,0,5,,,,,,,,3,,,,74,64
121760,note_off,80,0,20,,,,,,,,13,,,,62,64
121760,note_off,80,0,18,,,,,,,,11,,,,74,64
121760,note_off,80,0,19,,,,,,,,12,,,,71,64
121760,note_off,80,0,2,,,,,,,,0,,,,71,64
121760,note_off,80,0,6,,,,,,,,3,,,,71,64
121760,note_off,80,0,3,,,,,,,,2,,,,74,64
121800,note_off,1320,0,10,,,,,,,,5,,,,67,64
121800,note_off,1320,0,9,,,,,,,,5,,,,71,64
121920,note_on,160,0,8,,,,,,,,4,,,,38,75
121920,note_on,160,0,1,,,,,,,,0,,,,78,75
121920,note_on,160,0,4,,,,,,,,2,,,,69,75
121920,note_on,160,0,5,,,,,,,,3,,,,78,75
121920,note_on,160,0,6,,,,,,,,3,,,,69,75
121920,note_on,160,0,16,,,,,,,,8,,,,38,75
121920,note_on,160,0,20,,,,,,,,13,,,,66,75
121920,note_on,160,0,21,,,,,,,,14,,,,50,75
121920,note_on,160,0,22,,,,,,,,15,,,,38,75
121920,note_on,120,0,10,,,,,,,,5,,,,66,75
121920,note_on,160,0,12,,,,,,,,6,,,,74,75
121920,note_on,160,0,11,,,,,,,,6,,,,78,75
121920,note_on,120,0,9,,,,,,,,5,,,,69,75
121920,note_on,160,0,19,,,,,,,,12,,,,69,75
121920,note_on,160,0,13,,,,,,,,7,,,,62,75
121920,note_on,160,0,3,,,,,,,,2,,,,78,75
121920,note_on,160,0,18,,,,,,,,11,,,,78,92
121920,note_on,160,0,7,,,,,,,,4,,,,50,75
121920,note_on,160,0,15,,,,,,,,7,,,,50,75
121920,note_on,160,0,2,,,,,,,,0,,,,69,75
121920,note_on,160,0,14,,,,,,,,7,,,,57,75
122000,note_off,80,0,1,,,,,,,,0,,,,78,64
122000,note_off,80,0,18,,,,,,,,11,,,,78,64
122000,note_off,80,0,21,,,,,,,,14,,,,50,64
122000,note_off,80,0,8,,,,,,,,4,,,,38,64
122000,note_off,80,0,20,,,,,,,,13,,,,66,64
122000,note_off,80,0,9,,,,,,,,5,,,,69,64
122000,note_off,80,0,19,,,,,,,,12,,,,69,64
122000,note_off,80,0,6,,,,,,,,3,,,,69,64
122000,note_off,80,0,5,,,,,,,,3,,,,78,64
122000,note_off,80,0,3,,,,,,,,2,,,,78,64
122000,note_off,80,0,4,,,,,,,,2,,,,69,64
122000,note_off,80,0,7,,,,,,,,4,,,,50,64
122000,note_off,80,0,16,,,,,,,,8,,,,38,64
122000,note_off,80,0,22,,,,,,,,15,,,,38,64
122000,note_off,80,0,10,,,,,,,,5,,,,66,64
122000,note_off,80,0,2,,,,,,,,0,,,,69,64
122160,note_on,160,0,10,,,,,,,,5,,,,66,75
122160,note_on,160,0,8,,,,,,,,4,,,,38,75
122160,note_on,160,0,18,,,,,,,,11,,,,81,92
122160,note_on,160,0,5,,,,,,,,3,,,,81,75
122160,note_on,160,0,22,,,,,,,,15,,,,38,75
122160,note_on,160,0,7,,,,,,,,4,,,,50,75
122160,note_on,160,0,19,,,,,,,,12,,,,78,75
122160,note_on,160,0,1,,,,,,,,0,,,,81,75
122160,note_on,160,0,2,,,,,,,,0,,,,78,75
122160,note_on,160,0,20,,,,,,,,13,,,,69,75
122160,note_on,160,0,21,,,,,,,,14,,,,50,75
122160,note_on,160,0,16,,,,,,,,8,,,,38,75
122160,note_on,160,0,4,,,,,,,,2,,,,78,75
122160,note_on,160,0,6,,,,,,,,3,,,,78,75
122160,note_on,160,0,9,,,,,,,,5,,,,69,75
122160,note_on,160,0,3,,,,,,,,2,,,,81,75
122240,note_off,80,0,19,,,,,,,,12,,,,78,64
122240,note_off,80,0,16,,,,,,,,8,,,,38,64
122240,note_off,80,0,4,,,,,,,,2,,,,78,64
122240,note_off,80,0,7,,,,,,,,4,,,,50,64
122240,note_off,80,0,18,,,,,,,,11,,,,81,64
122240,note_off,80,0,1,,,,,,,,0,,,,81,64
122240,note_off,80,0,21,,,,,,,,14,,,,50,64
122240,note_off,80,0,8,,,,,,,,4,,,,38,64
122240,note_off,80,0,2,,,,,,,,0,,,,78,64
122240,note_off,80,0,9,,,,,,,,5,,,,69,64
122240,note_off,80,0,20,,,,,,,,13,,,,69,64
122240,note_off,80,0,22,,,,,,,,15,,,,38,64
122240,note_off,80,0,6,,,,,,,,3,,,,78,64
122240,note_off,80,0,5,,,,,,,,3,,,,81,64
122240,note_off,80,0,10,,,,,,,,5,,,,66,64
122240,note_off,80,0,3,,,,,,,,2,,,,81,64
122280,note_on,40,0,5,,,,,,,,3,,,,81,75
122280,note_on,40,0,18,,,,,,,,11,,,,81,92
122280,note_on,40,0,2,,,,,,,,0,,,,78,75
122280,note_on,40,0,6,,,,,,,,3,,,,78,75
122280,note_on,40,0,20,,,,,,,,13,,,,69,75
122280,note_on,40,0,21,,,,,,,,14,,,,50,75
122280,note_on,40,0,1,,,,,,,,0,,,,81,75
122280,note_on,40,0,8,,,,,,,,4,,,,38,75
122280,note_on,40,0,22,,,,,,,,15,,,,38,75
122280,note_on,40,0,9,,,,,,,,5,,,,69,75
122280,note_on,40,0,7,,,,,,,,4,,,,50,75
122280,note_on,40,0,19,,,,,,,,12,,,,78,75
122280,note_on,40,0,3,,,,,,,,2,,,,81,75
122280,note_on,40,0,16,,,,,,,,8,,,,38,75
122280,note_on,40,0,4,,,,,,,,2,,,,78,75
122280,note_on,40,0,10,,,,,,,,5,,,,66,75
122360,note_off,80,0,7,,,,,,,,4,,,,50,64
122360,note_off,80,0,19,,,,,,,,12,,,,78,64
122360,note_off,80,0,2,,,,,,,,0,,,,78,64
122360,note_off,80,0,10,,,,,,,,5,,,,66,64
122360,note_off,80,0,4,,,,,,,,2,,,,78,64
122360,note_off,80,0,16,,,,,,,,8,,,,38,64
122360,note_off,80,0,20,,,,,,,,13,,,,69,64
122360,note_off,80,0,21,,,,,,,,14,,,,50,64
122360,note_off,80,0,1,,,,,,,,0,,,,81,64
122360,note_off,80,0,3,,,,,,,,2,,,,81,64
122360,note_off,80,0,5,,,,,,,,3,,,,81,64
122360,note_off,80,0,6,,,,,,,,3,,,,78,64
122360,note_off,80,0,9,,,,,,,,5,,,,69,64
122360,note_off,80,0,22,,,,,,,,15,,,,38,64
122360,note_off,80,0,8,,,,,,,,4,,,,38,64
122360,note_off,80,0,18,,,,,,,,11,,,,81,64
122400,note_on,40,0,6,,,,,,,,3,,,,78,75
122400,note_on,40,0,4,,,,,,,,2,,,,78,75
122400,note_on,40,0,2,,,,,,,,0,,,,78,75
122400,note_on,40,0,8,,,,,,,,4,,,,38,75
122400,note_on,40,0,20,,,,,,,,13,,,,69,75
122400,note_on,40,0,3,,,,,,,,2,,,,81,75
122400,note_on,40,0,16,,,,,,,,8,,,,38,75
122400,note_on,40,0,22,,,,,,,,15,,,,38,75
122400,note_on,40,0,7,,,,,,,,4,,,,50,75
122400,note_on,40,0,1,,,,,,,,0,,,,81,75
122400,note_on,40,0,10,,,,,,,,5,,,,66,75
122400,note_on,40,0,21,,,,,,,,14,,,,50,75
122400,note_on,40,0,19,,,,,,,,12,,,,78,75
122400,note_on,40,0,5,,,,,,,,3,,,,81,75
122400,note_on,40,0,9,,,,,,,,5,,,,69,75
122400,note_on,40,0,18,,,,,,,,11,,,,81,92
122480,note_off,80,0,6,,,,,,,,3,,,,78,64
122480,note_off,80,0,20,,,,,,,,13,,,,69,64
122480,note_off,80,0,8,,,,,,,,4,,,,38,64
122480,note_off,80,0,4,,,,,,,,2,,,,78,64
122480,note_off,80,0,3,,,,,,,,2,,,,81,64
122480,note_off,80,0,16,,,,,,,,8,,,,38,64
122480,note_off,80,0,22,,,,,,,,15,,,,38,64
122480,note_off,80,0,19,,,,,,,,12,,,,78,64
122480,note_off,80,0,5,,,,,,,,3,,,,81,64
122480,note_off,80,0,10,,,,,,,,5,,,,66,64
122480,note_off,80,0,9,,,,,,,,5,,,,69,64
122480,note_off,80,0,1,,,,,,,,0,,,,81,64
122480,note_off,80,0,21,,,,,,,,14,,,,50,64
122480,note_off,80,0,18,,,,,,,,11,,,,81,64
122480,note_off,80,0,2,,,,,,,,0,,,,78,64
122480,note_off,80,0,7,,,,,,,,4,,,,50,64
122640,note_on,160,0,1,,,,,,,,0,,,,81,75
122640,note_on,160,0,9,,,,,,,,5,,,,69,75
122640,note_on,160,0,3,,,,,,,,2,,,,81,75
122640,note_on,160,0,7,,,,,,,,4,,,,50,75
122640,note_on,160,0,2,,,,,,,,0,,,,78,75
122640,note_on,160,0,22,,,,,,,,15,,,,38,75
122640,note_on,160,0,5,,,,,,,,3,,,,81,75
122640,note_on,160,0,19,,,,,,,,12,,,,78,75
122640,note_on,160,0,6,,,,,,,,3,,,,78,75
122640,note_on,160,0,4,,,,,,,,2,,,,78,75
122640,note_on,160,0,21,,,,,,,,14,,,,50,75
122640,note_on,160,0,18,,,,,,,,11,,,,81,92
122640,note_on,160,0,10,,,,,,,,5,,,,66,75
122640,note_on,160,0,8,,,,,,,,4,,,,38,75
122640,note_on,160,0,16,,,,,,,,8,,,,38,75
122640,note_on,160,0,20,,,,,,,,13,,,,69,75
122720,note_off,80,0,1,,,,,,,,0,,,,81,64
122720,note_off,80,0,9,,,,,,,,5,,,,69,64
122720,note_off,80,0,18,,,,,,,,11,,,,81,64
122720,note_off,80,0,16,,,,,,,,8,,,,38,64
122720,note_off,80,0,3,,,,,,,,2,,,,81,64
122720,note_off,80,0,7,,,,,,,,4,,,,50,64
122720,note_off,80,0,20,,,,,,,,13,,,,69,64
122720,note_off,80,0,5,,,,,,,,3,,,,81,64
122720,note_off,80,0,22,,,,,,,,15,,,,38,64
122720,note_off,80,0,21,,,,,,,,14,,,,50,64
122720,note_off,80,0,8,,,,,,,,4,,,,38,64
122720,note_off,80,0,4,,,,,,,,2,,,,78,64
122720,note_off,80,0,10,,,,,,,,5,,,,66,64
122720,note_off,80,0,19,,,,,,,,12,,,,78,64
122720,note_off,80,0,2,,,,,,,,0,,,,78,64
122720,note_off,80,0,6,,,,,,,,3,,,,78,64
122880,note_on,160,0,4,,,,,,,,2,,,,81,75
122880,note_on,160,0,1,,,,,,,,0,,,,86,75
122880,note_on,160,0,3,,,,,,,,2,,,,86,75
122880,note_on,160,0,16,,,,,,,,8,,,,42,75
122880,note_on,160,0,19,,,,,,,,12,,,,81,75
122880,note_on,160,0,7,,,,,,,,4,,,,54,75
122880,note_on,160,0,22,,,,,,,,15,,,,42,75
122880,note_on,160,0,10,,,,,,,,5,,,,69,75
122880,note_on,160,0,8,,,,,,,,4,,,,42,75
122880,note_on,160,0,21,,,,,,,,14,,,,54,75
122880,note_on,160,0,18,,,,,,,,11,,,,86,92
122880,note_on,160,0,9,,,,,,,,5,,,,74,75
122880,note_on,160,0,6,,,,,,,,3,,,,81,75
122880,note_on,160,0,2,,,,,,,,0,,,,81,75
122880,note_on,160,0,5,,,,,,,,3,,,,86,75
122880,note_on,160,0,20,,,,,,,,13,,,,74,75
122960,note_off,80,0,8,,,,,,,,4,,,,42,64
122960,note_off,80,0,10,,,,,,,,5,,,,69,64
122960,note_off,80,0,2,,,,,,,,0,,,,81,64
122960,note_off,80,0,5,,,,,,,,3,,,,86,64
122960,note_off,80,0,20,,,,,,,,13,,,,74,64
122960,note_off,80,0,6,,,,,,,,3,,,,81,64
122960,note_off,80,0,3,,,,,,,,2,,,,86,64
122960,note_off,80,0,7,,,,,,,,4,,,,54,64
122960,note_off,80,0,19,,,,,,,,12,,,,81,64
122960,note_off,80,0,9,,,,,,,,5,,,,74,64
122960,note_off,80,0,1,,,,,,,,0,,,,86,64
122960,note_off,80,0,21,,,,,,,,14,,,,54,64
122960,note_off,80,0,22,,,,,,,,15,,,,42,64
122960,note_off,80,0,4,,,,,,,,2,,,,81,64
122960,note_off,80,0,18,,,,,,,,11,,,,86,64
122960,note_off,80,0,16,,,,,,,,8,,,,42,64
123120,note_on,160,0,6,,,,,,,,3,,,,78,75
123120,note_on,160,0,2,,,,,,,,0,,,,78,75
123120,note_on,160,0,8,,,,,,,,4,,,,38,75
123120,note_on,160,0,4,,,,,,,,2,,,,78,75
123120,note_on,160,0,7,,,,,,,,4,,,,50,75
123120,note_on,160,0,21,,,,,,,,14,,,,50,75
123120,note_on,160,0,20,,,,,,,,13,,,,69,75
123120,note_on,160,0,10,,,,,,,,5,,,,66,75
123120,note_on,160,0,19,,,,,,,,12,,,,78,75
123120,note_on,160,0,16,,,,,,,,8,,,,38,75
123120,note_on,160,0,5,,,,,,,,3,,,,81,75
123120,note_on,160,0,22,,,,,,,,15,,,,38,75
123120,note_on,160,0,3,,,,,,,,2,,,,81,75
123120,note_on,160,0,18,,,,,,,,11,,,,81,92
123120,note_on,160,0,1,,,,,,,,0,,,,81,75
123120,note_on,160,0,9,,,,,,,,5,,,,69,75
123200,note_off,80,0,18,,,,,,,,11,,,,81,64
123200,note_off,80,0,19,,,,,,,,12,,,,78,64
123200,note_off,80,0,8,,,,,,,,4,,,,38,64
123200,note_off,80,0,7,,,,,,,,4,,,,50,64
123200,note_off,80,0,21,,,,,,,,14,,,,50,64
123200,note_off,80,0,2,,,,,,,,0,,,,78,64
123200,note_off,80,0,20,,,,,,,,13,,,,69,64
123200,note_off,80,0,22,,,,,,,,15,,,,38,64
123200,note_off,80,0,16,,,,,,,,8,,,,38,64
123200,note_off,80,0,4,,,,,,,,2,,,,78,64
123200,note_off,80,0,9,,,,,,,,5,,,,69,64
123200,note_off,80,0,5,,,,,,,,3,,,,81,64
123200,note_off,80,0,6,,,,,,,,3,,,,78,64
123200,note_off,80,0,10,,,,,,,,5,,,,66,64
123200,note_off,80,0,1,,,,,,,,0,,,,81,64
123200,note_off,80,0,3,,,,,,,,2,,,,81,64
123240,note_off,1320,0,15,,,,,,,,7,,,,50,64
123240,note_off,1320,0,12,,,,,,,,6,,,,74,64
123240,note_off,1320,0,13,,,,,,,,7,,,,62,64
123240,note_off,1320,0,14,,,,,,,,7,,,,57,64
123240,note_off,1320,0,11,,,,,,,,6,,,,78,64
123360,note_on,160,0,10,,,,,,,,5,,,,64,75
123360,note_on,160,0,19,,,,,,,,12,,,,76,75
123360,note_on,160,0,16,,,,,,,,8,,,,45,75
123360,note_on,160,0,18,,,,,,,,11,,,,85,92
123360,note_on,160,0,7,,,,,,,,4,,,,57,75
123360,note_on,160,0,4,,,,,,,,2,,,,76,75
123360,note_on,120,0,14,,,,,,,,7,,,,57,75
123360,note_on,160,0,22,,,,,,,,15,,,,45,75
123360,note_on,120,0,15,,,,,,,,7,,,,45,75
123360,note_on,160,0,9,,,,,,,,5,,,,73,75
123360,note_on,160,0,5,,,,,,,,3,,,,73,75
123360,note_on,160,0,1,,,,,,,,0,,,,85,75
123360,note_on,120,0,12,,,,,,,,6,,,,69,75
123360,note_on,160,0,21,,,,,,,,14,,,,57,75
123360,note_on,120,0,11,,,,,,,,6,,,,76,75
123360,note_on,160,0,3,,,,,,,,2,,,,85,75
123360,note_on,160,0,20,,,,,,,,13,,,,73,75
123360,note_on,160,0,6,,,,,,,,3,,,,64,75
123360,note_on,160,0,2,,,,,,,,0,,,,76,75
123360,note_on,120,0,13,,,,,,,,7,,,,64,75
123360,note_on,160,0,8,,,,,,,,4,,,,45,75
123440,note_off,80,0,20,,,,,,,,13,,,,73,64
123440,note_off,80,0,2,,,,,,,,0,,,,76,64
123440,note_off,80,0,11,,,,,,,,6,,,,76,64
123440,note_off,80,0,12,,,,,,,,6,,,,69,64
123440,note_off,80,0,7,,,,,,,,4,,,,57,64
123440,note_off,80,0,1,,,,,,,,0,,,,85,64
123440,note_off,80,0,5,,,,,,,,3,,,,73,64
123440,note_off,80,0,13,,,,,,,,7,,,,64,64
123440,note_off,80,0,21,,,,,,,,14,,,,57,64
123440,note_off,80,0,14,,,,,,,,7,,,,57,64
123440,note_off,80,0,3,,,,,,,,2,,,,85,64
123440,note_off,80,0,18,,,,,,,,11,,,,85,64
123440,note_off,80,0,16,,,,,,,,8,,,,45,64
123440,note_off,80,0,22,,,,,,,,15,,,,45,64
123440,note_off,80,0,4,,,,,,,,2,,,,76,64
123440,note_off,80,0,15,,,,,,,,7,,,,45,64
123440,note_off,80,0,19,,,,,,,,12,,,,76,64
123440,note_off,80,0,6,,,,,,,,3,,,,64,64
123440,note_off,80,0,8,,,,,,,,4,,,,45,64
123600,note_on,160,0,21,,,,,,,,14,,,,57,75
123600,note_on,160,0,5,,,,,,,,3,,,,76,75
123600,note_on,160,0,1,,,,,,,,0,,,,76,75
123600,note_on,160,0,2,,,,,,,,0,,,,73,75
123600,note_on,160,0,4,,,,,,,,2,,,,73,75
123600,note_on,160,0,19,,,,,,,,12,,,,73,75
123600,note_on,160,0,8,,,,,,,,4,,,,45,75
123600,note_on,160,0,16,,,,,,,,8,,,,45,75
123600,note_on,160,0,20,,,,,,,,13,,,,64,75
123600,note_on,160,0,7,,,,,,,,4,,,,57,75
123600,note_on,160,0,18,,,,,,,,11,,,,76,92
123600,note_on,160,0,14,,,,,,,,7,,,,57,75
123600,note_on,160,0,11,,,,,,,,6,,,,76,75
123600,note_on,160,0,3,,,,,,,,2,,,,76,75
123600,note_on,160,0,15,,,,,,,,7,,,,45,75
123600,note_on,160,0,6,,,,,,,,3,,,,73,75
123600,note_on,160,0,13,,,,,,,,7,,,,64,75
123600,note_on,160,0,22,,,,,,,,15,,,,45,75
123600,note_on,160,0,12,,,,,,,,6,,,,69,75
123680,note_off,80,0,7,,,,,,,,4,,,,57,64
123680,note_off,80,0,3,,,,,,,,2,,,,76,64
123680,note_off,80,0,4,,,,,,,,2,,,,73,64
123680,note_off,80,0,6,,,,,,,,3,,,,73,64
123680,note_off,80,0,14,,,,,,,,7,,,,57,64
123680,note_off,80,0,21,,,,,,,,14,,,,57,64
123680,note_off,80,0,13,,,,,,,,7,,,,64,64
123680,note_off,80,0,16,,,,,,,,8,,,,45,64
123680,note_off,80,0,2,,,,,,,,0,,,,73,64
123680,note_off,80,0,1,,,,,,,,0,,,,76,64
123680,note_off,80,0,8,,,,,,,,4,,,,45,64
123680,note_off,80,0,12,,,,,,,,6,,,,69,64
123680,note_off,80,0,19,,,,,,,,12,,,,73,64
123680,note_off,80,0,22,,,,,,,,15,,,,45,64
123680,note_off,80,0,20,,,,,,,,13,,,,64,64
123680,note_off,80,0,5,,,,,,,,3,,,,76,64
123680,note_off,80,0,18,,,,,,,,11,,,,76,64
123680,note_off,80,0,15,,,,,,,,7,,,,45,64
123680,note_off,80,0,11,,,,,,,,6,,,,76,64
123720,note_on,40,0,1,,,,,,,,0,,,,76,75
123720,note_on,40,0,2,,,,,,,,0,,,,73,75
123720,note_on,40,0,12,,,,,,,,6,,,,69,75
123720,note_on,40,0,11,,,,,,,,6,,,,76,75
123720,note_on,40,0,5,,,,,,,,3,,,,76,75
123720,note_on,40,0,21,,,,,,,,14,,,,57,75
123720,note_on,40,0,6,,,,,,,,3,,,,73,75
123720,note_on,40,0,20,,,,,,,,13,,,,64,75
123720,note_on,40,0,4,,,,,,,,2,,,,73,75
123720,note_on,40,0,15,,,,,,,,7,,,,45,75
123720,note_on,40,0,16,,,,,,,,8,,,,45,75
123720,note_on,40,0,13,,,,,,,,7,,,,64,75
123720,note_on,40,0,7,,,,,,,,4,,,,57,75
123720,note_on,40,0,8,,,,,,,,4,,,,45,75
123720,note_on,40,0,22,,,,,,,,15,,,,45,75
123720,note_on,40,0,19,,,,,,,,12,,,,73,75
123720,note_on,40,0,3,,,,,,,,2,,,,76,75
123720,note_on,40,0,14,,,,,,,,7,,,,57,75
123720,note_on,40,0,18,,,,,,,,11,,,,76,92
123800,note_off,80,0,2,,,,,,,,0,,,,73,64
123800,note_off,80,0,7,,,,,,,,4,,,,57,64
123800,note_off,80,0,16,,,,,,,,8,,,,45,64
123800,note_off,80,0,6,,,,,,,,3,,,,73,64
123800,note_off,80,0,19,,,,,,,,12,,,,73,64
123800,note_off,80,0,15,,,,,,,,7,,,,45,64
123800,note_off,80,0,5,,,,,,,,3,,,,76,64
123800,note_off,80,0,21,,,,,,,,14,,,,57,64
123800,note_off,80,0,22,,,,,,,,15,,,,45,64
123800,note_off,80,0,12,,,,,,,,6,,,,69,64
123800,note_off,80,0,14,,,,,,,,7,,,,57,64
123800,note_off,80,0,18,,,,,,,,11,,,,76,64
123800,note_off,80,0,1,,,,,,,,0,,,,76,64
123800,note_off,80,0,13,,,,,,,,7,,,,64,64
123800,note_off,80,0,8,,,,,,,,4,,,,45,64
123800,note_off,80,0,3,,,,,,,,2,,,,76,64
123800,note_off,80,0,11,,,,,,,,6,,,,76,64
123800,note_off,80,0,20,,,,,,,,13,,,,64,64
123800,note_off,80,0,4,,,,,,,,2,,,,73,64
123840,note_on,40,0,20,,,,,,,,13,,,,64,75
123840,note_on,40,0,15,,,,,,,,7,,,,45,75
123840,note_on,40,0,1,,,,,,,,0,,,,76,75
123840,note_on,40,0,8,,,,,,,,4,,,,45,75
123840,note_on,40,0,22,,,,,,,,15,,,,45,75
123840,note_on,40,0,11,,,,,,,,6,,,,76,75
123840,note_on,40,0,5,,,,,,,,3,,,,76,75
123840,note_on,40,0,7,,,,,,,,4,,,,57,75
123840,note_on,40,0,16,,,,,,,,8,,,,45,75
123840,note_on,40,0,6,,,,,,,,3,,,,73,75
123840,note_on,40,0,19,,,,,,,,12,,,,73,75
123840,note_on,40,0,21,,,,,,,,14,,,,57,75
123840,note_on,40,0,3,,,,,,,,2,,,,76,75
123840,note_on,40,0,14,,,,,,,,7,,,,57,75
123840,note_on,40,0,18,,,,,,,,11,,,,76,92
123840,note_on,40,0,13,,,,,,,,7,,,,64,75
123840,note_on,40,0,12,,,,,,,,6,,,,69,75
123840,note_on,40,0,2,,,,,,,,0,,,,73,75
123840,note_on,40,0,4,,,,,,,,2,,,,73,75
123920,note_off,80,0,5,,,,,,,,3,,,,76,64
123920,note_off,80,0,15,,,,,,,,7,,,,45,64
123920,note_off,80,0,18,,,,,,,,11,,,,76,64
123920,note_off,80,0,22,,,,,,,,15,,,,45,64
123920,note_off,80,0,4,,,,,,,,2,,,,73,64
123920,note_off,80,0,8,,,,,,,,4,,,,45,64
123920,note_off,80,0,20,,,,,,,,13,,,,64,64
123920,note_off,80,0,1,,,,,,,,0,,,,76,64
123920,note_off,80,0,16,,,,,,,,8,,,,45,64
123920,note_off,80,0,7,,,,,,,,4,,,,57,64
123920,note_off,80,0,6,,,,,,,,3,,,,73,64
123920,note_off,80,0,21,,,,,,,,14,,,,57,64
123920,note_off,80,0,19,,,,,,,,12,,,,73,64
123920,note_off,80,0,3,,,,,,,,2,,,,76,64
123920,note_off,80,0,14,,,,,,,,7,,,,57,64
123920,note_off,80,0,12,,,,,,,,6,,,,69,64
123920,note_off,80,0,13,,,,,,,,7,,,,64,64
123920,note_off,80,0,2,,,,,,,,0,,,,73,64
123920,note_off,80,0,11,,,,,,,,6,,,,76,64
124080,note_on,160,0,18,,,,,,,,11,,,,76,92
124080,note_on,160,0,1,,,,,,,,0,,,,76,75
124080,note_on,160,0,4,,,,,,,,2,,,,73,75
124080,note_on,160,0,8,,,,,,,,4,,,,45,75
124080,note_on,160,0,7,,,,,,,,4,,,,57,75
124080,note_on,160,0,6,,,,,,,,3,,,,73,75
124080,note_on,160,0,3,,,,,,,,2,,,,76,75
124080,note_on,160,0,2,,,,,,,,0,,,,73,75
124080,note_on,160,0,22,,,,,,,,15,,,,45,75
124080,note_on,160,0,12,,,,,,,,6,,,,69,75
124080,note_on,160,0,14,,,,,,,,7,,,,57,75
124080,note_on,160,0,20,,,,,,,,13,,,,64,75
124080,note_on,160,0,11,,,,,,,,6,,,,76,75
124080,note_on,160,0,13,,,,,,,,7,,,,64,75
124080,note_on,160,0,15,,,,,,,,7,,,,45,75
124080,note_on,160,0,19,,,,,,,,12,,,,73,75
124080,note_on,160,0,5,,,,,,,,3,,,,76,75
124080,note_on,160,0,16,,,,,,,,8,,,,45,75
124080,note_on,160,0,21,,,,,,,,14,,,,57,75
124160,note_off,80,0,3,,,,,,,,2,,,,76,64
124160,note_off,80,0,2,,,,,,,,0,,,,73,64
124160,note_off,80,0,7,,,,,,,,4,,,,57,64
124160,note_off,80,0,13,,,,,,,,7,,,,64,64
124160,note_off,80,0,14,,,,,,,,7,,,,57,64
124160,note_off,80,0,1,,,,,,,,0,,,,76,64
124160,note_off,80,0,20,,,,,,,,13,,,,64,64
124160,note_off,80,0,8,,,,,,,,4,,,,45,64
124160,note_off,80,0,5,,,,,,,,3,,,,76,64
124160,note_off,80,0,15,,,,,,,,7,,,,45,64
124160,note_off,80,0,19,,,,,,,,12,,,,73,64
124160,note_off,80,0,4,,,,,,,,2,,,,73,64
124160,note_off,80,0,11,,,,,,,,6,,,,76,64
124160,note_off,80,0,21,,,,,,,,14,,,,57,64
124160,note_off,80,0,12,,,,,,,,6,,,,69,64
124160,note_off,80,0,16,,,,,,,,8,,,,45,64
124160,note_off,80,0,22,,,,,,,,15,,,,45,64
124160,note_off,80,0,6,,,,,,,,3,,,,73,64
124160,note_off,80,0,18,,,,,,,,11,,,,76,64
124320,note_on,160,0,12,,,,,,,,6,,,,76,75
124320,note_on,160,0,19,,,,,,,,12,,,,76,75
124320,note_on,160,0,20,,,,,,,,13,,,,69,75
124320,note_on,160,0,16,,,,,,,,8,,,,49,75
124320,note_on,160,0,6,,,,,,,,3,,,,76,75
124320,note_on,160,0,7,,,,,,,,4,,,,61,75
124320,note_on,160,0,18,,,,,,,,11,,,,81,92
124320,note_on,160,0,3,,,,,,,,2,,,,81,75
124320,note_on,160,0,15,,,,,,,,7,,,,45,75
124320,note_on,160,0,1,,,,,,,,0,,,,81,75
124320,note_on,160,0,2,,,,,,,,0,,,,76,75
124320,note_on,160,0,8,,,,,,,,4,,,,49,75
124320,note_on,160,0,22,,,,,,,,15,,,,49,75
124320,note_on,160,0,5,,,,,,,,3,,,,81,75
124320,note_on,160,0,21,,,,,,,,14,,,,61,75
124320,note_on,160,0,13,,,,,,,,7,,,,64,75
124320,note_on,160,0,4,,,,,,,,2,,,,76,75
124320,note_on,160,0,11,,,,,,,,6,,,,81,75
124320,note_on,160,0,14,,,,,,,,7,,,,57,75
124400,note_off,80,0,21,,,,,,,,14,,,,61,64
124400,note_off,80,0,14,,,,,,,,7,,,,57,64
124400,note_off,80,0,12,,,,,,,,6,,,,76,64
124400,note_off,80,0,19,,,,,,,,12,,,,76,64
124400,note_off,80,0,7,,,,,,,,4,,,,61,64
124400,note_off,80,0,8,,,,,,,,4,,,,49,64
124400,note_off,80,0,5,,,,,,,,3,,,,81,64
124400,note_off,80,0,3,,,,,,,,2,,,,81,64
124400,note_off,80,0,22,,,,,,,,15,,,,49,64
124400,note_off,80,0,15,,,,,,,,7,,,,45,64
124400,note_off,80,0,18,,,,,,,,11,,,,81,64
124400,note_off,80,0,16,,,,,,,,8,,,,49,64
124400,note_off,80,0,13,,,,,,,,7,,,,64,64
124400,note_off,80,0,2,,,,,,,,0,,,,76,64
124400,note_off,80,0,4,,,,,,,,2,,,,76,64
124400,note_off,80,0,20,,,,,,,,13,,,,69,64
124400,note_off,80,0,11,,,,,,,,6,,,,81,64
124400,note_off,80,0,1,,,,,,,,0,,,,81,64
124400,note_off,80,0,6,,,,,,,,3,,,,76,64
124560,note_on,160,0,19,,,,,,,,12,,,,73,75
124560,note_on,160,0,22,,,,,,,,15,,,,45,75
124560,note_on,160,0,14,,,,,,,,7,,,,52,75
124560,note_on,160,0,20,,,,,,,,13,,,,64,75
124560,note_on,160,0,12,,,,,,,,6,,,,69,75
124560,note_on,160,0,2,,,,,,,,0,,,,73,75
124560,note_on,160,0,1,,,,,,,,0,,,,76,75
124560,note_on,160,0,7,,,,,,,,4,,,,57,75
124560,note_on,160,0,8,,,,,,,,4,,,,45,75
124560,note_on,160,0,6,,,,,,,,3,,,,73,75
124560,note_on,160,0,13,,,,,,,,7,,,,57,75
124560,note_on,160,0,5,,,,,,,,3,,,,76,75
124560,note_on,160,0,4,,,,,,,,2,,,,73,75
124560,note_on,160,0,11,,,,,,,,6,,,,76,75
124560,note_on,160,0,3,,,,,,,,2,,,,76,75
124560,note_on,160,0,21,,,,,,,,14,,,,57,75
124560,note_on,160,0,15,,,,,,,,7,,,,45,75
124560,note_on,160,0,16,,,,,,,,8,,,,45,75
124560,note_on,160,0,18,,,,,,,,11,,,,76,92
124640,note_off,80,0,12,,,,,,,,6,,,,69,64
124640,note_off,80,0,8,,,,,,,,4,,,,45,64
124640,note_off,80,0,11,,,,,,,,6,,,,76,64
124640,note_off,80,0,1,,,,,,,,0,,,,76,64
124640,note_off,80,0,18,,,,,,,,11,,,,76,64
124640,note_off,80,0,4,,,,,,,,2,,,,73,64
124640,note_off,80,0,5,,,,,,,,3,,,,76,64
124640,note_off,80,0,16,,,,,,,,8,,,,45,64
124640,note_off,80,0,15,,,,,,,,7,,,,45,64
124640,note_off,80,0,3,,,,,,,,2,,,,76,64
124640,note_off,80,0,6,,,,,,,,3,,,,73,64
124640,note_off,80,0,20,,,,,,,,13,,,,64,64
124640,note_off,80,0,22,,,,,,,,15,,,,45,64
124640,note_off,80,0,2,,,,,,,,0,,,,73,64
124640,note_off,80,0,13,,,,,,,,7,,,,57,64
124640,note_off,80,0,19,,,,,,,,12,,,,73,64
124640,note_off,80,0,7,,,,,,,,4,,,,57,64
124640,note_off,80,0,14,,,,,,,,7,,,,52,64
124640,note_off,80,0,21,,,,,,,,14,,,,57,64
124680,note_off,1320,0,10,,,,,,,,5,,,,64,64
124680,note_off,1320,0,9,,,,,,,,5,,,,73,64
124800,note_on,160,0,8,,,,,,,,4,,,,40,75
124800,note_on,160,0,3,,,,,,,,2,,,,79,75
124800,note_on,160,0,5,,,,,,,,3,,,,79,75
124800,note_on,160,0,22,,,,,,,,15,,,,40,75
124800,note_on,120,0,10,,,,,,,,5,,,,67,75
124800,note_on,160,0,19,,,,,,,,12,,,,71,75
124800,note_on,160,0,6,,,,,,,,3,,,,71,75
124800,note_on,160,0,15,,,,,,,,7,,,,52,75
124800,note_on,160,0,7,,,,,,,,4,,,,52,75
124800,note_on,160,0,4,,,,,,,,2,,,,71,75
124800,note_on,160,0,20,,,,,,,,13,,,,67,75
124800,note_on,160,0,2,,,,,,,,0,,,,71,75
124800,note_on,120,0,9,,,,,,,,5,,,,71,75
124800,note_on,160,0,12,,,,,,,,6,,,,76,75
124800,note_on,160,0,11,,,,,,,,6,,,,79,75
124800,note_on,160,0,18,,,,,,,,11,,,,79,92
124800,note_on,160,0,14,,,,,,,,7,,,,59,75
124800,note_on,160,0,13,,,,,,,,7,,,,64,75
124800,note_on,160,0,1,,,,,,,,0,,,,79,75
124800,note_on,160,0,21,,,,,,,,14,,,,52,75
124800,note_on,160,0,16,,,,,,,,8,,,,40,75
124880,note_off,80,0,21,,,,,,,,14,,,,52,64
124880,note_off,80,0,22,,,,,,,,15,,,,40,64
124880,note_off,80,0,10,,,,,,,,5,,,,67,64
124880,note_off,80,0,9,,,,,,,,5,,,,71,64
124880,note_off,80,0,18,,,,,,,,11,,,,79,64
124880,note_off,80,0,2,,,,,,,,0,,,,71,64
124880,note_off,80,0,8,,,,,,,,4,,,,40,64
124880,note_off,80,0,5,,,,,,,,3,,,,79,64
124880,note_off,80,0,16,,,,,,,,8,,,,40,64
124880,note_off,80,0,3,,,,,,,,2,,,,79,64
124880,note_off,80,0,4,,,,,,,,2,,,,71,64
124880,note_off,80,0,6,,,,,,,,3,,,,71,64
124880,note_off,80,0,1,,,,,,,,0,,,,79,64
124880,note_off,80,0,7,,,,,,,,4,,,,52,64
124880,note_off,80,0,19,,,,,,,,12,,,,71,64
124880,note_off,80,0,20,,,,,,,,13,,,,67,64
125040,note_on,160,0,7,,,,,,,,4,,,,52,75
125040,note_on,160,0,9,,,,,,,,5,,,,71,75
125040,note_on,160,0,18,,,,,,,,11,,,,71,92
125040,note_on,160,0,6,,,,,,,,3,,,,67,75
125040,note_on,160,0,1,,,,,,,,0,,,,83,75
125040,note_on,160,0,21,,,,,,,,14,,,,52,75
125040,note_on,160,0,8,,,,,,,,4,,,,40,75
125040,note_on,160,0,3,,,,,,,,2,,,,71,75
125040,note_on,160,0,2,,,,,,,,0,,,,79,75
125040,note_on,160,0,20,,,,,,,,13,,,,59,75
125040,note_on,160,0,16,,,,,,,,8,,,,40,75
125040,note_on,160,0,5,,,,,,,,3,,,,71,75
125040,note_on,160,0,22,,,,,,,,15,,,,40,75
125040,note_on,160,0,19,,,,,,,,12,,,,67,75
125040,note_on,160,0,4,,,,,,,,2,,,,79,75
125040,note_on,160,0,10,,,,,,,,5,,,,67,75
125120,note_off,80,0,8,,,,,,,,4,,,,40,64
125120,note_off,80,0,9,,,,,,,,5,,,,71,64
125120,note_off,80,0,21,,,,,,,,14,,,,52,64
125120,note_off,80,0,19,,,,,,,,12,,,,67,64
125120,note_off,80,0,3,,,,,,,,2,,,,71,64
125120,note_off,80,0,18,,,,,,,,11,,,,71,64
125120,note_off,80,0,10,,,,,,,,5,,,,67,64
125120,note_off,80,0,1,,,,,,,,0,,,,83,64
125120,note_off,80,0,7,,,,,,,,4,,,,52,64
125120,note_off,80,0,20,,,,,,,,13,,,,59,64
125120,note_off,80,0,4,,,,,,,,2,,,,79,64
125120,note_off,80,0,22,,,,,,,,15,,,,40,64
125120,note_off,80,0,6,,,,,,,,3,,,,67,64
125120,note_off,80,0,16,,,,,,,,8,,,,40,64
125120,note_off,80,0,2,,,,,,,,0,,,,79,64
125120,note_off,80,0,5,,,,,,,,3,,,,71,64
125160,note_on,40,0,5,,,,,,,,3,,,,71,75
125160,note_on,40,0,10,,,,,,,,5,,,,67,75
125160,note_on,40,0,3,,,,,,,,2,,,,71,75
125160,note_on,40,0,2,,,,,,,,0,,,,79,75
125160,note_on,40,0,20,,,,,,,,13,,,,59,75
125160,note_on,40,0,1,,,,,,,,0,,,,83,75
125160,note_on,40,0,6,,,,,,,,3,,,,67,75
125160,note_on,40,0,8,,,,,,,,4,,,,40,75
125160,note_on,40,0,9,,,,,,,,5,,,,71,75
125160,note_on,40,0,7,,,,,,,,4,,,,52,75
125160,note_on,40,0,21,,,,,,,,14,,,,52,75
125160,note_on,40,0,19,,,,,,,,12,,,,67,75
125160,note_on,40,0,22,,,,,,,,15,,,,40,75
125160,note_on,40,0,4,,,,,,,,2,,,,79,75
125160,note_on,40,0,18,,,,,,,,11,,,,71,92
125160,note_on,40,0,16,,,,,,,,8,,,,40,75
125240,note_off,80,0,16,,,,,,,,8,,,,40,64
125240,note_off,80,0,5,,,,,,,,3,,,,71,64
125240,note_off,80,0,7,,,,,,,,4,,,,52,64
125240,note_off,80,0,19,,,,,,,,12,,,,67,64
125240,note_off,80,0,1,,,,,,,,0,,,,83,64
125240,note_off,80,0,20,,,,,,,,13,,,,59,64
125240,note_off,80,0,10,,,,,,,,5,,,,67,64
125240,note_off,80,0,3,,,,,,,,2,,,,71,64
125240,note_off,80,0,8,,,,,,,,4,,,,40,64
125240,note_off,80,0,21,,,,,,,,14,,,,52,64
125240,note_off,80,0,9,,,,,,,,5,,,,71,64
125240,note_off,80,0,18,,,,,,,,11,,,,71,64
125240,note_off,80,0,4,,,,,,,,2,,,,79,64
125240,note_off,80,0,22,,,,,,,,15,,,,40,64
125240,note_off,80,0,6,,,,,,,,3,,,,67,64
125240,note_off,80,0,2,,,,,,,,0,,,,79,64
125280,note_on,40,0,7,,,,,,,,4,,,,52,75
125280,note_on,40,0,6,,,,,,,,3,,,,67,75
125280,note_on,40,0,8,,,,,,,,4,,,,40,75
125280,note_on,40,0,4,,,,,,,,2,,,,79,75
125280,note_on,40,0,21,,,,,,,,14,,,,52,75
125280,note_on,40,0,2,,,,,,,,0,,,,79,75
125280,note_on,40,0,1,,,,,,,,0,,,,83,75
125280,note_on,40,0,20,,,,,,,,13,,,,59,75
125280,note_on,40,0,22,,,,,,,,15,,,,40,75
125280,note_on,40,0,16,,,,,,,,8,,,,40,75
125280,note_on,40,0,19,,,,,,,,12,,,,67,75
125280,note_on,40,0,18,,,,,,,,11,,,,71,92
125280,note_on,40,0,9,,,,,,,,5,,,,71,75
125280,note_on,40,0,5,,,,,,,,3,,,,71,75
125280,note_on,40,0,10,,,,,,,,5,,,,67,75
125280,note_on,40,0,3,,,,,,,,2,,,,71,75
125360,note_off,80,0,3,,,,,,,,2,,,,71,64
125360,note_off,80,0,10,,,,,,,,5,,,,67,64
125360,note_off,80,0,7,,,,,,,,4,,,,52,64
125360,note_off,80,0,6,,,,,,,,3,,,,67,64
125360,note_off,80,0,8,,,,,,,,4,,,,40,64
125360,note_off,80,0,16,,,,,,,,8,,,,40,64
125360,note_off,80,0,20,,,,,,,,13,,,,59,64
125360,note_off,80,0,21,,,,,,,,14,,,,52,64
125360,note_off,80,0,22,,,,,,,,15,,,,40,64
125360,note_off,80,0,1,,,,,,,,0,,,,83,64
125360,note_off,80,0,19,,,,,,,,12,,,,67,64
125360,note_off,80,0,5,,,,,,,,3,,,,71,64
125360,note_off,80,0,9,,,,,,,,5,,,,71,64
125360,note_off,80,0,2,,,,,,,,0,,,,79,64
125360,note_off,80,0,18,,,,,,,,11,,,,71,64
125360,note_off,80,0,4,,,,,,,,2,,,,79,64
125520,note_on,160,0,20,,,,,,,,13,,,,59,75
125520,note_on,160,0,9,,,,,,,,5,,,,71,75
125520,note_on,160,0,10,,,,,,,,5,,,,67,75
125520,note_on,160,0,3,,,,,,,,2,,,,71,75
125520,note_on,160,0,7,,,,,,,,4,,,,52,75
125520,note_on,160,0,1,,,,,,,,0,,,,83,75
125520,note_on,160,0,21,,,,,,,,14,,,,52,75
125520,note_on,160,0,18,,,,,,,,11,,,,71,92
125520,note_on,160,0,19,,,,,,,,12,,,,67,75
125520,note_on,160,0,16,,,,,,,,8,,,,40,75
125520,note_on,160,0,5,,,,,,,,3,,,,71,75
125520,note_on,160,0,8,,,,,,,,4,,,,40,75
125520,note_on,160,0,6,,,,,,,,3,,,,67,75
125520,note_on,160,0,2,,,,,,,,0,,,,79,75
125520,note_on,160,0,4,,,,,,,,2,,,,79,75
125520,note_on,160,0,22,,,,,,,,15,,,,40,75
125600,note_off,80,0,4,,,,,,,,2,,,,79,64
125600,note_off,80,0,20,,,,,,,,13,,,,59,64
125600,note_off,80,0,21,,,,,,,,14,,,,52,64
125600,note_off,80,0,7,,,,,,,,4,,,,52,64
125600,note_off,80,0,3,,,,,,,,2,,,,71,64
125600,note_off,80,0,1,,,,,,,,0,,,,83,64
125600,note_off,80,0,5,,,,,,,,3,,,,71,64
125600,note_off,80,0,8,,,,,,,,4,,,,40,64
125600,note_off,80,0,18,,,,,,,,11,,,,71,64
125600,note_off,80,0,2,,,,,,,,0,,,,79,64
125600,note_off,80,0,16,,,,,,,,8,,,,40,64
125600,note_off,80,0,22,,,,,,,,15,,,,40,64
125600,note_off,80,0,10,,,,,,,,5,,,,67,64
125600,note_off,80,0,19,,,,,,,,12,,,,67,64
125600,note_off,80,0,6,,,,,,,,3,,,,67,64
125600,note_off,80,0,9,,,,,,,,5,,,,71,64
125760,note_on,160,0,4,,,,,,,,2,,,,83,75
125760,note_on,160,0,3,,,,,,,,2,,,,76,75
125760,note_on,160,0,22,,,,,,,,15,,,,43,75
125760,note_on,160,0,20,,,,,,,,13,,,,64,75
125760,note_on,160,0,19,,,,,,,,12,,,,71,75
125760,note_on,160,0,5,,,,,,,,3,,,,76,75
125760,note_on,160,0,21,,,,,,,,14,,,,55,75
125760,note_on,160,0,7,,,,,,,,4,,,,55,75
125760,note_on,160,0,1,,,,,,,,0,,,,88,75
125760,note_on,160,0,18,,,,,,,,11,,,,76,92
125760,note_on,160,0,6,,,,,,,,3,,,,71,75
125760,note_on,160,0,2,,,,,,,,0,,,,83,75
125760,note_on,160,0,16,,,,,,,,8,,,,43,75
125760,note_on,160,0,10,,,,,,,,5,,,,64,75
125760,note_on,160,0,9,,,,,,,,5,,,,67,75
125760,note_on,160,0,8,,,,,,,,4,,,,43,75
125840,note_off,80,0,16,,,,,,,,8,,,,43,64
125840,note_off,80,0,21,,,,,,,,14,,,,55,64
125840,note_off,80,0,2,,,,,,,,0,,,,83,64
125840,note_off,80,0,3,,,,,,,,2,,,,76,64
125840,note_off,80,0,5,,,,,,,,3,,,,76,64
125840,note_off,80,0,18,,,,,,,,11,,,,76,64
125840,note_off,80,0,4,,,,,,,,2,,,,83,64
125840,note_off,80,0,6,,,,,,,,3,,,,71,64
125840,note_off,80,0,8,,,,,,,,4,,,,43,64
125840,note_off,80,0,22,,,,,,,,15,,,,43,64
125840,note_off,80,0,7,,,,,,,,4,,,,55,64
125840,note_off,80,0,10,,,,,,,,5,,,,64,64
125840,note_off,80,0,19,,,,,,,,12,,,,71,64
125840,note_off,80,0,20,,,,,,,,13,,,,64,64
125840,note_off,80,0,9,,,,,,,,5,,,,67,64
125840,note_off,80,0,1,,,,,,,,0,,,,88,64
126000,note_on,160,0,19,,,,,,,,12,,,,67,75
126000,note_on,160,0,2,,,,,,,,0,,,,79,75
126000,note_on,160,0,1,,,,,,,,0,,,,83,75
126000,note_on,160,0,21,,,,,,,,14,,,,52,75
126000,note_on,160,0,4,,,,,,,,2,,,,79,75
126000,note_on,160,0,9,,,,,,,,5,,,,67,75
126000,note_on,160,0,8,,,,,,,,4,,,,40,75
126000,note_on,160,0,18,,,,,,,,11,,,,71,92
126000,note_on,160,0,5,,,,,,,,3,,,,71,75
126000,note_on,160,0,6,,,,,,,,3,,,,67,75
126000,note_on,160,0,16,,,,,,,,8,,,,40,75
126000,note_on,160,0,22,,,,,,,,15,,,,40,75
126000,note_on,160,0,10,,,,,,,,5,,,,64,75
126000,note_on,160,0,20,,,,,,,,13,,,,59,75
126000,note_on,160,0,3,,,,,,,,2,,,,71,75
126000,note_on,160,0,7,,,,,,,,4,,,,52,75
126080,note_off,80,0,16,,,,,,,,8,,,,40,64
126080,note_off,80,0,5,,,,,,,,3,,,,71,64
126080,note_off,80,0,2,,,,,,,,0,,,,79,64
126080,note_off,80,0,18,,,,,,,,11,,,,71,64
126080,note_off,80,0,20,,,,,,,,13,,,,59,64
126080,note_off,80,0,1,,,,,,,,0,,,,83,64
126080,note_off,80,0,9,,,,,,,,5,,,,67,64
126080,note_off,80,0,21,,,,,,,,14,,,,52,64
126080,note_off,80,0,7,,,,,,,,4,,,,52,64
126080,note_off,80,0,8,,,,,,,,4,,,,40,64
126080,note_off,80,0,3,,,,,,,,2,,,,71,64
126080,note_off,80,0,22,,,,,,,,15,,,,40,64
126080,note_off,80,0,10,,,,,,,,5,,,,64,64
126080,note_off,80,0,6,,,,,,,,3,,,,67,64
126080,note_off,80,0,4,,,,,,,,2,,,,79,64
126080,note_off,80,0,19,,,,,,,,12,,,,67,64
126120,note_off,1320,0,14,,,,,,,,7,,,,59,64
126120,note_off,1320,0,15,,,,,,,,7,,,,52,64
126120,note_off,1320,0,12,,,,,,,,6,,,,76,64
126120,note_off,1320,0,11,,,,,,,,6,,,,79,64
126120,note_off,1320,0,13,,,,,,,,7,,,,64,64
126240,note_on,160,0,4,,,,,,,,2,,,,78,75
126240,note_on,160,0,2,,,,,,,,0,,,,78,75
126240,note_on,120,0,12,,,,,,,,6,,,,74,75
126240,note_on,120,0,11,,,,,,,,6,,,,78,75
126240,note_on,160,0,20,,,,,,,,13,,,,62,75
126240,note_on,160,0,22,,,,,,,,15,,,,47,75
126240,note_on,160,0,9,,,,,,,,5,,,,66,75
126240,note_on,160,0,21,,,,,,,,14,,,,59,75
126240,note_on,120,0,13,,,,,,,,7,,,,62,75
126240,note_on,160,0,3,,,,,,,,2,,,,74,75
126240,note_on,160,0,10,,,,,,,,5,,,,62,75
126240,note_on,160,0,19,,,,,,,,12,,,,66,75
126240,note_on,160,0,5,,,,,,,,3,,,,74,75
126240,note_on,120,0,14,,,,,,,,7,,,,54,75
126240,note_on,160,0,8,,,,,,,,4,,,,47,75
126240,note_on,160,0,1,,,,,,,,0,,,,86,75
126240,note_on,120,0,15,,,,,,,,7,,,,50,75
126240,note_on,160,0,18,,,,,,,,11,,,,74,92
126240,note_on,160,0,7,,,,,,,,4,,,,59,75
126240,note_on,160,0,6,,,,,,,,3,,,,66,75
126240,note_on,160,0,16,,,,,,,,8,,,,47,75
126320,note_off,80,0,3,,,,,,,,2,,,,74,64
126320,note_off,80,0,4,,,,,,,,2,,,,78,64
126320,note_off,80,0,15,,,,,,,,7,,,,50,64
126320,note_off,80,0,20,,,,,,,,13,,,,62,64
126320,note_off,80,0,6,,,,,,,,3,,,,66,64
126320,note_off,80,0,7,,,,,,,,4,,,,59,64
126320,note_off,80,0,13,,,,,,,,7,,,,62,64
126320,note_off,80,0,12,,,,,,,,6,,,,74,64
126320,note_off,80,0,18,,,,,,,,11,,,,74,64
126320,note_off,80,0,2,,,,,,,,0,,,,78,64
126320,note_off,80,0,22,,,,,,,,15,,,,47,64
126320,note_off,80,0,1,,,,,,,,0,,,,86,64
126320,note_off,80,0,8,,,,,,,,4,,,,47,64
126320,note_off,80,0,11,,,,,,,,6,,,,78,64
126320,note_off,80,0,19,,,,,,,,12,,,,66,64
126320,note_off,80,0,14,,,,,,,,7,,,,54,64
126320,note_off,80,0,21,,,,,,,,14,,,,59,64
126320,note_off,80,0,5,,,,,,,,3,,,,74,64
126320,note_off,80,0,16,,,,,,,,8,,,,47,64
126480,note_on,160,0,6,,,,,,,,3,,,,66,75
126480,note_on,160,0,21,,,,,,,,14,,,,59,75
126480,note_on,160,0,2,,,,,,,,0,,,,78,75
126480,note_on,160,0,8,,,,,,,,4,,,,47,75
126480,note_on,160,0,11,,,,,,,,6,,,,78,75
126480,note_on,160,0,4,,,,,,,,2,,,,78,75
126480,note_on,160,0,15,,,,,,,,7,,,,50,75
126480,note_on,160,0,3,,,,,,,,2,,,,74,75
126480,note_on,160,0,22,,,,,,,,15,,,,47,75
126480,note_on,160,0,19,,,,,,,,12,,,,66,75
126480,note_on,160,0,5,,,,,,,,3,,,,74,75
126480,note_on,160,0,14,,,,,,,,7,,,,54,75
126480,note_on,160,0,16,,,,,,,,8,,,,47,75
126480,note_on,160,0,18,,,,,,,,11,,,,74,92
126480,note_on,160,0,1,,,,,,,,0,,,,86,75
126480,note_on,160,0,20,,,,,,,,13,,,,62,75
126480,note_on,160,0,13,,,,,,,,7,,,,62,75
126480,note_on,160,0,7,,,,,,,,4,,,,59,75
126480,note_on,160,0,12,,,,,,,,6,,,,74,75
126560,note_off,80,0,21,,,,,,,,14,,,,59,64
126560,note_off,80,0,3,,,,,,,,2,,,,74,64
126560,note_off,80,0,4,,,,,,,,2,,,,78,64
126560,note_off,80,0,19,,,,,,,,12,,,,66,64
126560,note_off,80,0,16,,,,,,,,8,,,,47,64
126560,note_off,80,0,22,,,,,,,,15,,,,47,64
126560,note_off,80,0,20,,,,,,,,13,,,,62,64
126560,note_off,80,0,14,,,,,,,,7,,,,54,64
126560,note_off,80,0,2,,,,,,,,0,,,,78,64
126560,note_off,80,0,8,,,,,,,,4,,,,47,64
126560,note_off,80,0,7,,,,,,,,4,,,,59,64
126560,note_off,80,0,11,,,,,,,,6,,,,78,64
126560,note_off,80,0,13,,,,,,,,7,,,,62,64
126560,note_off,80,0,6,,,,,,,,3,,,,66,64
126560,note_off,80,0,1,,,,,,,,0,,,,86,64
126560,note_off,80,0,18,,,,,,,,11,,,,74,64
126560,note_off,80,0,15,,,,,,,,7,,,,50,64
126560,note_off,80,0,5,,,,,,,,3,,,,74,64
126560,note_off,80,0,12,,,,,,,,6,,,,74,64
126600,note_on,40,0,14,,,,,,,,7,,,,54,75
126600,note_on,40,0,5,,,,,,,,3,,,,74,75
126600,note_on,40,0,20,,,,,,,,13,,,,62,75
126600,note_on,40,0,13,,,,,,,,7,,,,62,75
126600,note_on,40,0,19,,,,,,,,12,,,,66,75
126600,note_on,40,0,12,,,,,,,,6,,,,74,75
126600,note_on,40,0,7,,,,,,,,4,,,,59,75
126600,note_on,40,0,18,,,,,,,,11,,,,74,92
126600,note_on,40,0,1,,,,,,,,0,,,,86,75
126600,note_on,40,0,3,,,,,,,,2,,,,74,75
126600,note_on,40,0,22,,,,,,,,15,,,,47,75
126600,note_on,40,0,11,,,,,,,,6,,,,78,75
126600,note_on,40,0,6,,,,,,,,3,,,,66,75
126600,note_on,40,0,16,,,,,,,,8,,,,47,75
126600,note_on,40,0,8,,,,,,,,4,,,,47,75
126600,note_on,40,0,21,,,,,,,,14,,,,59,75
126600,note_on,40,0,15,,,,,,,,7,,,,50,75
126600,note_on,40,0,4,,,,,,,,2,,,,78,75
126600,note_on,40,0,2,,,,,,,,0,,,,78,75
126680,note_off,80,0,15,,,,,,,,7,,,,50,64
126680,note_off,80,0,1,,,,,,,,0,,,,86,64
126680,note_off,80,0,12,,,,,,,,6,,,,74,64
126680,note_off,80,0,19,,,,,,,,12,,,,66,64
126680,note_off,80,0,18,,,,,,,,11,,,,74,64
126680,note_off,80,0,21,,,,,,,,14,,,,59,64
126680,note_off,80,0,2,,,,,,,,0,,,,78,64
126680,note_off,80,0,16,,,,,,,,8,,,,47,64
126680,note_off,80,0,14,,,,,,,,7,,,,54,64
126680,note_off,80,0,11,,,,,,,,6,,,,78,64
126680,note_off,80,0,5,,,,,,,,3,,,,74,64
126680,note_off,80,0,22,,,,,,,,15,,,,47,64
126680,note_off,80,0,3,,,,,,,,2,,,,74,64
126680,note_off,80,0,8,,,,,,,,4,,,,47,64
126680,note_off,80,0,7,,,,,,,,4,,,,59,64
126680,note_off,80,0,20,,,,,,,,13,,,,62,64
126680,note_off,80,0,6,,,,,,,,3,,,,66,64
126680,note_off,80,0,13,,,,,,,,7,,,,62,64
126680,note_off,80,0,4,,,,,,,,2,,,,78,64
126720,note_on,40,0,18,,,,,,,,11,,,,74,92
126720,note_on,40,0,2,,,,,,,,0,,,,78,75
126720,note_on,40,0,6,,,,,,,,3,,,,66,75
126720,note_on,40,0,20,,,,,,,,13,,,,62,75
126720,note_on,40,0,15,,,,,,,,7,,,,50,75
126720,note_on,40,0,22,,,,,,,,15,,,,47,75
126720,note_on,40,0,12,,,,,,,,6,,,,74,75
126720,note_on,40,0,13,,,,,,,,7,,,,62,75
126720,note_on,40,0,7,,,,,,,,4,,,,59,75
126720,note_on,40,0,16,,,,,,,,8,,,,47,75
126720,note_on,40,0,3,,,,,,,,2,,,,74,75
126720,note_on,40,0,8,,,,,,,,4,,,,47,75
126720,note_on,40,0,14,,,,,,,,7,,,,54,75
126720,note_on,40,0,11,,,,,,,,6,,,,78,75
126720,note_on,40,0,5,,,,,,,,3,,,,74,75
126720,note_on,40,0,1,,,,,,,,0,,,,86,75
126720,note_on,40,0,4,,,,,,,,2,,,,78,75
126720,note_on,40,0,21,,,,,,,,14,,,,59,75
126720,note_on,40,0,19,,,,,,,,12,,,,66,75
126800,note_off,80,0,21,,,,,,,,14,,,,59,64
126800,note_off,80,0,7,,,,,,,,4,,,,59,64
126800,note_off,80,0,15,,,,,,,,7,,,,50,64
126800,note_off,80,0,11,,,,,,,,6,,,,78,64
126800,note_off,80,0,6,,,,,,,,3,,,,66,64
126800,note_off,80,0,3,,,,,,,,2,,,,74,64
126800,note_off,80,0,8,,,,,,,,4,,,,47,64
126800,note_off,80,0,4,,,,,,,,2,,,,78,64
126800,note_off,80,0,22,,,,,,,,15,,,,47,64
126800,note_off,80,0,12,,,,,,,,6,,,,74,64
126800,note_off,80,0,2,,,,,,,,0,,,,78,64
126800,note_off,80,0,5,,,,,,,,3,,,,74,64
126800,note_off,80,0,14,,,,,,,,7,,,,54,64
126800,note_off,80,0,1,,,,,,,,0,,,,86,64
126800,note_off,80,0,16,,,,,,,,8,,,,47,64
126800,note_off,80,0,19,,,,,,,,12,,,,66,64
126800,note_off,80,0,13,,,,,,,,7,,,,62,64
126800,note_off,80,0,20,,,,,,,,13,,,,62,64
126800,note_off,80,0,18,,,,,,,,11,,,,74,64
126960,note_on,160,0,16,,,,,,,,8,,,,47,75
126960,note_on,160,0,7,,,,,,,,4,,,,59,75
126960,note_on,160,0,2,,,,,,,,0,,,,78,75
126960,note_on,160,0,8,,,,,,,,4,,,,47,75
126960,note_on,160,0,1,,,,,,,,0,,,,86,75
126960,note_on,160,0,21,,,,,,,,14,,,,59,75
126960,note_on,160,0,6,,,,,,,,3,,,,66,75
126960,note_on,160,0,11,,,,,,,,6,,,,78,75
126960,note_on,160,0,15,,,,,,,,7,,,,50,75
126960,note_on,160,0,20,,,,,,,,13,,,,62,75
126960,note_on,160,0,13,,,,,,,,7,,,,62,75
126960,note_on,160,0,4,,,,,,,,2,,,,78,75
126960,note_on,160,0,19,,,,,,,,12,,,,66,75
126960,note_on,160,0,18,,,,,,,,11,,,,74,92
126960,note_on,160,0,5,,,,,,,,3,,,,74,75
126960,note_on,160,0,12,,,,,,,,6,,,,74,75
126960,note_on,160,0,22,,,,,,,,15,,,,47,75
126960,note_on,160,0,3,,,,,,,,2,,,,74,75
126960,note_on,160,0,14,,,,,,,,7,,,,54,75
127040,note_off,80,0,21,,,,,,,,14,,,,59,64
127040,note_off,80,0,22,,,,,,,,15,,,,47,64
127040,note_off,80,0,1,,,,,,,,0,,,,86,64
127040,note_off,80,0,11,,,,,,,,6,,,,78,64
127040,note_off,80,0,6,,,,,,,,3,,,,66,64
127040,note_off,80,0,13,,,,,,,,7,,,,62,64
127040,note_off,80,0,18,,,,,,,,11,,,,74,64
127040,note_off,80,0,5,,,,,,,,3,,,,74,64
127040,note_off,80,0,12,,,,,,,,6,,,,74,64
127040,note_off,80,0,2,,,,,,,,0,,,,78,64
127040,note_off,80,0,15,,,,,,,,7,,,,50,64
127040,note_off,80,0,8,,,,,,,,4,,,,47,64
127040,note_off,80,0,14,,,,,,,,7,,,,54,64
127040,note_off,80,0,7,,,,,,,,4,,,,59,64
127040,note_off,80,0,3,,,,,,,,2,,,,74,64
127040,note_off,80,0,4,,,,,,,,2,,,,78,64
127040,note_off,80,0,20,,,,,,,,13,,,,62,64
127040,note_off,80,0,19,,,,,,,,12,,,,66,64
127040,note_off,80,0,16,,,,,,,,8,,,,47,64
127200,note_on,160,0,20,,,,,,,,13,,,,66,75
127200,note_on,160,0,18,,,,,,,,11,,,,78,92
127200,note_on,160,0,6,,,,,,,,3,,,,71,75
127200,note_on,160,0,2,,,,,,,,0,,,,83,75
127200,note_on,160,0,14,,,,,,,,7,,,,59,75
127200,note_on,160,0,15,,,,,,,,7,,,,54,75
127200,note_on,160,0,13,,,,,,,,7,,,,66,75
127200,note_on,160,0,11,,,,,,,,6,,,,83,75
127200,note_on,160,0,5,,,,,,,,3,,,,78,75
127200,note_on,160,0,7,,,,,,,,4,,,,62,75
127200,note_on,160,0,1,,,,,,,,0,,,,90,75
127200,note_on,160,0,12,,,,,,,,6,,,,78,75
127200,note_on,160,0,19,,,,,,,,12,,,,71,75
127200,note_on,160,0,21,,,,,,,,14,,,,62,75
127200,note_on,160,0,3,,,,,,,,2,,,,78,75
127200,note_on,160,0,16,,,,,,,,8,,,,50,75
127200,note_on,160,0,8,,,,,,,,4,,,,50,75
127200,note_on,160,0,4,,,,,,,,2,,,,83,75
127200,note_on,160,0,22,,,,,,,,15,,,,50,75
127280,note_off,80,0,5,,,,,,,,3,,,,78,64
127280,note_off,80,0,13,,,,,,,,7,,,,66,64
127280,note_off,80,0,18,,,,,,,,11,,,,78,64
127280,note_off,80,0,19,,,,,,,,12,,,,71,64
127280,note_off,80,0,11,,,,,,,,6,,,,83,64
127280,note_off,80,0,21,,,,,,,,14,,,,62,64
127280,note_off,80,0,6,,,,,,,,3,,,,71,64
127280,note_off,80,0,8,,,,,,,,4,,,,50,64
127280,note_off,80,0,14,,,,,,,,7,,,,59,64
127280,note_off,80,0,4,,,,,,,,2,,,,83,64
127280,note_off,80,0,22,,,,,,,,15,,,,50,64
127280,note_off,80,0,12,,,,,,,,6,,,,78,64
127280,note_off,80,0,20,,,,,,,,13,,,,66,64
127280,note_off,80,0,15,,,,,,,,7,,,,54,64
127280,note_off,80,0,3,,,,,,,,2,,,,78,64
127280,note_off,80,0,1,,,,,,,,0,,,,90,64
127280,note_off,80,0,2,,,,,,,,0,,,,83,64
127280,note_off,80,0,16,,,,,,,,8,,,,50,64
127280,note_off,80,0,7,,,,,,,,4,,,,62,64
127440,note_on,160,0,1,,,,,,,,0,,,,86,75
127440,note_on,160,0,2,,,,,,,,0,,,,78,75
127440,note_on,160,0,5,,,,,,,,3,,,,74,75
127440,note_on,160,0,16,,,,,,,,8,,,,47,75
127440,note_on,160,0,4,,,,,,,,2,,,,78,75
127440,note_on,160,0,6,,,,,,,,3,,,,66,75
127440,note_on,160,0,18,,,,,,,,11,,,,74,92
127440,note_on,160,0,8,,,,,,,,4,,,,47,75
127440,note_on,160,0,22,,,,,,,,15,,,,47,75
127440,note_on,160,0,3,,,,,,,,2,,,,74,75
127440,note_on,160,0,12,,,,,,,,6,,,,74,75
127440,note_on,160,0,7,,,,,,,,4,,,,59,75
127440,note_on,160,0,15,,,,,,,,7,,,,50,75
127440,note_on,160,0,13,,,,,,,,7,,,,62,75
127440,note_on,160,0,11,,,,,,,,6,,,,78,75
127440,note_on,160,0,19,,,,,,,,12,,,,66,75
127440,note_on,160,0,21,,,,,,,,14,,,,59,75
127440,note_on,160,0,20,,,,,,,,13,,,,62,75
127440,note_on,160,0,14,,,,,,,,7,,,,54,75
127520,note_off,80,0,21,,,,,,,,14,,,,59,64
127520,note_off,80,0,13,,,,,,,,7,,,,62,64
127520,note_off,80,0,2,,,,,,,,0,,,,78,64
127520,note_off,80,0,12,,,,,,,,6,,,,74,64
127520,note_off,80,0,19,,,,,,,,12,,,,66,64
127520,note_off,80,0,4,,,,,,,,2,,,,78,64
127520,note_off,80,0,5,,,,,,,,3,,,,74,64
127520,note_off,80,0,20,,,,,,,,13,,,,62,64
127520,note_off,80,0,22,,,,,,,,15,,,,47,64
127520,note_off,80,0,6,,,,,,,,3,,,,66,64
127520,note_off,80,0,1,,,,,,,,0,,,,86,64
127520,note_off,80,0,8,,,,,,,,4,,,,47,64
127520,note_off,80,0,16,,,,,,,,8,,,,47,64
127520,note_off,80,0,14,,,,,,,,7,,,,54,64
127520,note_off,80,0,15,,,,,,,,7,,,,50,64
127520,note_off,80,0,3,,,,,,,,2,,,,74,64
127520,note_off,80,0,11,,,,,,,,6,,,,78,64
127520,note_off,80,0,18,,,,,,,,11,,,,74,64
127520,note_off,80,0,7,,,,,,,,4,,,,59,64
127560,note_off,1320,0,10,,,,,,,,5,,,,62,64
127560,note_off,1320,0,9,,,,,,,,5,,,,66,64
127680,note_on,160,0,5,,,,,,,,3,,,,71,75
127680,note_on,120,0,10,,,,,,,,5,,,,67,75
127680,note_on,160,0,12,,,,,,,,6,,,,79,75
127680,note_on,160,0,22,,,,,,,,15,,,,43,75
127680,note_on,120,0,9,,,,,,,,5,,,,71,75
127680,note_on,160,0,19,,,,,,,,12,,,,67,75
127680,note_on,160,0,13,,,,,,,,7,,,,67,75
127680,note_on,160,0,4,,,,,,,,2,,,,79,75
127680,note_on,160,0,21,,,,,,,,14,,,,55,75
127680,note_on,160,0,8,,,,,,,,4,,,,43,75
127680,note_on,160,0,3,,,,,,,,2,,,,83,75
127680,note_on,160,0,7,,,,,,,,4,,,,55,75
127680,note_on,160,0,1,,,,,,,,0,,,,83,75
127680,note_on,160,0,15,,,,,,,,7,,,,59,75
127680,note_on,160,0,11,,,,,,,,6,,,,83,75
127680,note_on,160,0,16,,,,,,,,8,,,,43,75
127680,note_on,160,0,14,,,,,,,,7,,,,62,75
127680,note_on,160,0,20,,,,,,,,13,,,,55,75
127680,note_on,160,0,6,,,,,,,,3,,,,67,75
127680,note_on,160,0,18,,,,,,,,11,,,,67,92
127680,note_on,160,0,2,,,,,,,,0,,,,79,75
127760,note_off,80,0,18,,,,,,,,11,,,,67,64
127760,note_off,80,0,22,,,,,,,,15,,,,43,64
127760,note_off,80,0,20,,,,,,,,13,,,,55,64
127760,note_off,80,0,19,,,,,,,,12,,,,67,64
127760,note_off,80,0,16,,,,,,,,8,,,,43,64
127760,note_off,80,0,7,,,,,,,,4,,,,55,64
127760,note_off,80,0,21,,,,,,,,14,,,,55,64
127760,note_off,80,0,8,,,,,,,,4,,,,43,64
127920,note_on,160,0,7,,,,,,,,4,,,,59,75
127920,note_on,160,0,21,,,,,,,,14,,,,59,75
127920,note_on,160,0,18,,,,,,,,11,,,,71,92
127920,note_on,160,0,16,,,,,,,,8,,,,47,75
127920,note_on,160,0,22,,,,,,,,15,,,,47,75
127920,note_on,160,0,8,,,,,,,,4,,,,47,75
127920,note_on,160,0,20,,,,,,,,13,,,,59,75
127920,note_on,160,0,19,,,,,,,,12,,,,71,75
128000,note_off,80,0,21,,,,,,,,14,,,,59,64
128000,note_off,80,0,8,,,,,,,,4,,,,47,64
128000,note_off,80,0,7,,,,,,,,4,,,,59,64
128000,note_off,80,0,16,,,,,,,,8,,,,47,64
128000,note_off,80,0,20,,,,,,,,13,,,,59,64
128000,note_off,80,0,19,,,,,,,,12,,,,71,64
128000,note_off,80,0,18,,,,,,,,11,,,,71,64
128000,note_off,80,0,22,,,,,,,,15,,,,47,64
128160,note_on,160,0,20,,,,,,,,13,,,,62,75
128160,note_on,160,0,16,,,,,,,,8,,,,50,75
128160,note_on,160,0,7,,,,,,,,4,,,,62,75
128160,note_on,160,0,18,,,,,,,,11,,,,74,92
128160,note_on,160,0,22,,,,,,,,15,,,,50,75
128160,note_on,160,0,8,,,,,,,,4,,,,50,75
128160,note_on,160,0,19,,,,,,,,12,,,,74,75
128160,note_on,160,0,21,,,,,,,,14,,,,62,75
128240,note_off,80,0,22,,,,,,,,15,,,,50,64
128240,note_off,80,0,20,,,,,,,,13,,,,62,64
128240,note_off,80,0,16,,,,,,,,8,,,,50,64
128240,note_off,80,0,18,,,,,,,,11,,,,74,64
128240,note_off,80,0,19,,,,,,,,12,,,,74,64
128240,note_off,80,0,21,,,,,,,,14,,,,62,64
128240,note_off,80,0,8,,,,,,,,4,,,,50,64
128240,note_off,80,0,7,,,,,,,,4,,,,62,64
128400,note_on,160,0,20,,,,,,,,13,,,,55,75
128400,note_on,160,0,16,,,,,,,,8,,,,43,75
128400,note_on,160,0,18,,,,,,,,11,,,,67,92
128400,note_on,160,0,19,,,,,,,,12,,,,67,75
128400,note_on,160,0,21,,,,,,,,14,,,,55,75
128400,note_on,160,0,8,,,,,,,,4,,,,43,75
128400,note_on,160,0,22,,,,,,,,15,,,,43,75
128400,note_on,160,0,7,,,,,,,,4,,,,55,75
128480,note_off,80,0,19,,,,,,,,12,,,,67,64
128480,note_off,80,0,22,,,,,,,,15,,,,43,64
128480,note_off,80,0,18,,,,,,,,11,,,,67,64
128480,note_off,80,0,20,,,,,,,,13,,,,55,64
128480,note_off,80,0,8,,,,,,,,4,,,,43,64
128480,note_off,80,0,21,,,,,,,,14,,,,55,64
128480,note_off,80,0,7,,,,,,,,4,,,,55,64
128480,note_off,80,0,16,,,,,,,,8,,,,43,64
128640,note_on,160,0,8,,,,,,,,4,,,,47,75
128640,note_on,160,0,16,,,,,,,,8,,,,47,75
128640,note_on,160,0,19,,,,,,,,12,,,,71,75
128640,note_on,160,0,7,,,,,,,,4,,,,59,75
128640,note_on,160,0,18,,,,,,,,11,,,,71,92
128640,note_on,160,0,22,,,,,,,,15,,,,47,75
128640,note_on,160,0,21,,,,,,,,14,,,,59,75
128640,note_on,160,0,20,,,,,,,,13,,,,59,75
128720,note_off,80,0,7,,,,,,,,4,,,,59,64
128720,note_off,80,0,8,,,,,,,,4,,,,47,64
128720,note_off,80,0,20,,,,,,,,13,,,,59,64
128720,note_off,80,0,21,,,,,,,,14,,,,59,64
128720,note_off,80,0,18,,,,,,,,11,,,,71,64
128720,note_off,80,0,19,,,,,,,,12,,,,71,64
128720,note_off,80,0,16,,,,,,,,8,,,,47,64
128720,note_off,80,0,22,,,,,,,,15,,,,47,64
128880,note_on,160,0,8,,,,,,,,4,,,,50,75
128880,note_on,160,0,18,,,,,,,,11,,,,74,92
128880,note_on,160,0,20,,,,,,,,13,,,,62,75
128880,note_on,160,0,22,,,,,,,,15,,,,50,75
128880,note_on,160,0,19,,,,,,,,12,,,,74,75
128880,note_on,160,0,16,,,,,,,,8,,,,50,75
128880,note_on,160,0,7,,,,,,,,4,,,,62,75
128880,note_on,160,0,21,,,,,,,,14,,,,62,75
128960,note_off,80,0,21,,,,,,,,14,,,,62,64
128960,note_off,80,0,18,,,,,,,,11,,,,74,64
128960,note_off,80,0,19,,,,,,,,12,,,,74,64
128960,note_off,80,0,16,,,,,,,,8,,,,50,64
128960,note_off,80,0,22,,,,,,,,15,,,,50,64
128960,note_off,80,0,7,,,,,,,,4,,,,62,64
128960,note_off,80,0,20,,,,,,,,13,,,,62,64
128960,note_off,80,0,8,,,,,,,,4,,,,50,64
129000,note_off,1320,0,10,,,,,,,,5,,,,67,64
129000,note_off,1320,0,6,,,,,,,,3,,,,67,64
129000,note_off,1320,0,5,,,,,,,,3,,,,71,64
129000,note_off,1320,0,2,,,,,,,,0,,,,79,64
129000,note_off,1320,0,9,,,,,,,,5,,,,71,64
129000,note_off,1320,0,14,,,,,,,,7,,,,62,64
129000,note_off,1320,0,15,,,,,,,,7,,,,59,64
129000,note_off,1320,0,4,,,,,,,,2,,,,79,64
129000,note_off,1320,0,12,,,,,,,,6,,,,79,64
129000,note_off,1320,0,3,,,,,,,,2,,,,83,64
129000,note_off,1320,0,13,,,,,,,,7,,,,67,64
129000,note_off,1320,0,1,,,,,,,,0,,,,83,64
129000,note_off,1320,0,11,,,,,,,,6,,,,83,64
129120,note_on,160,0,20,,,,,,,,13,,,,54,75
129120,note_on,160,0,8,,,,,,,,4,,,,42,75
129120,note_on,120,0,11,,,,,,,,6,,,,81,75
129120,note_on,160,0,19,,,,,,,,12,,,,66,75
129120,note_on,120,0,15,,,,,,,,7,,,,57,75
129120,note_on,120,0,14,,,,,,,,7,,,,62,75
129120,note_on,120,0,5,,,,,,,,3,,,,69,75
129120,note_on,160,0,18,,,,,,,,11,,,,66,92
129120,note_on,120,0,3,,,,,,,,2,,,,81,75
129120,note_on,160,0,7,,,,,,,,4,,,,54,75
129120,note_on,160,0,21,,,,,,,,14,,,,54,75
129120,note_on,120,0,10,,,,,,,,5,,,,66,75
129120,note_on,120,0,9,,,,,,,,5,,,,69,75
129120,note_on,120,0,12,,,,,,,,6,,,,78,75
129120,note_on,160,0,22,,,,,,,,15,,,,42,75
129120,note_on,120,0,2,,,,,,,,0,,,,78,75
129120,note_on,120,0,13,,,,,,,,7,,,,66,75
129120,note_on,120,0,1,,,,,,,,0,,,,81,75
129120,note_on,160,0,16,,,,,,,,8,,,,42,75
129120,note_on,120,0,4,,,,,,,,2,,,,78,75
129120,note_on,120,0,6,,,,,,,,3,,,,66,75
129200,note_off,80,0,8,,,,,,,,4,,,,42,64
129200,note_off,80,0,16,,,,,,,,8,,,,42,64
129200,note_off,80,0,22,,,,,,,,15,,,,42,64
129200,note_off,80,0,19,,,,,,,,12,,,,66,64
129200,note_off,80,0,21,,,,,,,,14,,,,54,64
129200,note_off,80,0,20,,,,,,,,13,,,,54,64
129200,note_off,80,0,18,,,,,,,,11,,,,66,64
129200,note_off,80,0,7,,,,,,,,4,,,,54,64
129360,note_on,160,0,19,,,,,,,,12,,,,69,75
129360,note_on,160,0,21,,,,,,,,14,,,,57,75
129360,note_on,160,0,16,,,,,,,,8,,,,45,75
129360,note_on,160,0,7,,,,,,,,4,,,,57,75
129360,note_on,160,0,18,,,,,,,,11,,,,69,92
129360,note_on,160,0,20,,,,,,,,13,,,,57,75
129360,note_on,160,0,22,,,,,,,,15,,,,45,75
129360,note_on,160,0,8,,,,,,,,4,,,,45,75
129440,note_off,80,0,7,,,,,,,,4,,,,57,64
129440,note_off,80,0,19,,,,,,,,12,,,,69,64
129440,note_off,80,0,8,,,,,,,,4,,,,45,64
129440,note_off,80,0,16,,,,,,,,8,,,,45,64
129440,note_off,80,0,22,,,,,,,,15,,,,45,64
129440,note_off,80,0,20,,,,,,,,13,,,,57,64
129440,note_off,80,0,18,,,,,,,,11,,,,69,64
129440,note_off,80,0,21,,,,,,,,14,,,,57,64
129600,note_on,160,0,7,,,,,,,,4,,,,62,75
129600,note_on,160,0,22,,,,,,,,15,,,,50,75
129600,note_on,160,0,20,,,,,,,,13,,,,62,75
129600,note_on,160,0,8,,,,,,,,4,,,,50,75
129600,note_on,160,0,21,,,,,,,,14,,,,62,75
129600,note_on,160,0,19,,,,,,,,12,,,,74,75
129600,note_on,160,0,18,,,,,,,,11,,,,74,92
129600,note_on,160,0,16,,,,,,,,8,,,,50,75
129680,note_off,80,0,7,,,,,,,,4,,,,62,64
129680,note_off,80,0,16,,,,,,,,8,,,,50,64
129680,note_off,80,0,8,,,,,,,,4,,,,50,64
129680,note_off,80,0,21,,,,,,,,14,,,,62,64
129680,note_off,80,0,19,,,,,,,,12,,,,74,64
129680,note_off,80,0,20,,,,,,,,13,,,,62,64
129680,note_off,80,0,22,,,,,,,,15,,,,50,64
129680,note_off,80,0,18,,,,,,,,11,,,,74,64
129840,note_on,160,0,18,,,,,,,,11,,,,66,92
129840,note_on,160,0,16,,,,,,,,8,,,,42,75
129840,note_on,160,0,19,,,,,,,,12,,,,66,75
129840,note_on,160,0,8,,,,,,,,4,,,,42,75
129840,note_on,160,0,20,,,,,,,,13,,,,54,75
129840,note_on,160,0,21,,,,,,,,14,,,,54,75
129840,note_on,160,0,22,,,,,,,,15,,,,42,75
129840,note_on,160,0,7,,,,,,,,4,,,,54,75
129920,note_off,80,0,7,,,,,,,,4,,,,54,64
129920,note_off,80,0,8,,,,,,,,4,,,,42,64
129920,note_off,80,0,18,,,,,,,,11,,,,66,64
129920,note_off,80,0,22,,,,,,,,15,,,,42,64
129920,note_off,80,0,19,,,,,,,,12,,,,66,64
129920,note_off,80,0,20,,,,,,,,13,,,,54,64
129920,note_off,80,0,16,,,,,,,,8,,,,42,64
129920,note_off,80,0,21,,,,,,,,14,,,,54,64
130080,note_on,160,0,18,,,,,,,,11,,,,69,92
130080,note_on,160,0,21,,,,,,,,14,,,,57,75
130080,note_on,160,0,20,,,,,,,,13,,,,57,75
130080,note_on,160,0,19,,,,,,,,12,,,,69,75
130080,note_on,160,0,22,,,,,,,,15,,,,45,75
130080,note_on,160,0,8,,,,,,,,4,,,,45,75
130080,note_on,160,0,16,,,,,,,,8,,,,45,75
130080,note_on,160,0,7,,,,,,,,4,,,,57,75
130160,note_off,80,0,7,,,,,,,,4,,,,57,64
130160,note_off,80,0,20,,,,,,,,13,,,,57,64
130160,note_off,80,0,19,,,,,,,,12,,,,69,64
130160,note_off,80,0,18,,,,,,,,11,,,,69,64
130160,note_off,80,0,21,,,,,,,,14,,,,57,64
130160,note_off,80,0,22,,,,,,,,15,,,,45,64
130160,note_off,80,0,16,,,,,,,,8,,,,45,64
130160,note_off,80,0,8,,,,,,,,4,,,,45,64
130320,note_on,160,0,16,,,,,,,,8,,,,50,75
130320,note_on,160,0,20,,,,,,,,13,,,,62,75
130320,note_on,160,0,7,,,,,,,,4,,,,62,75
130320,note_on,160,0,18,,,,,,,,11,,,,74,92
130320,note_on,160,0,22,,,,,,,,15,,,,50,75
130320,note_on,160,0,19,,,,,,,,12,,,,74,75
130320,note_on,160,0,21,,,,,,,,14,,,,62,75
130320,note_on,160,0,8,,,,,,,,4,,,,50,75
130400,note_off,80,0,19,,,,,,,,12,,,,74,64
130400,note_off,80,0,8,,,,,,,,4,,,,50,64
130400,note_off,80,0,16,,,,,,,,8,,,,50,64
130400,note_off,80,0,22,,,,,,,,15,,,,50,64
130400,note_off,80,0,7,,,,,,,,4,,,,62,64
130400,note_off,80,0,20,,,,,,,,13,,,,62,64
130400,note_off,80,0,18,,,,,,,,11,,,,74,64
130400,note_off,80,0,21,,,,,,,,14,,,,62,64
130440,note_off,1320,0,6,,,,,,,,3,,,,66,64
130440,note_off,1320,0,2,,,,,,,,0,,,,78,64
130440,note_off,1320,0,9,,,,,,,,5,,,,69,64
130440,note_off,1320,0,13,,,,,,,,7,,,,66,64
130440,note_off,1320,0,12,,,,,,,,6,,,,78,64
130440,note_off,1320,0,10,,,,,,,,5,,,,66,64
130440,note_off,1320,0,4,,,,,,,,2,,,,78,64
130440,note_off,1320,0,14,,,,,,,,7,,,,62,64
130440,note_off,1320,0,15,,,,,,,,7,,,,57,64
130440,note_off,1320,0,1,,,,,,,,0,,,,81,64
130440,note_off,1320,0,11,,,,,,,,6,,,,81,64
130440,note_off,1320,0,3,,,,,,,,2,,,,81,64
130440,note_off,1320,0,5,,,,,,,,3,,,,69,64
130560,note_on,120,0,2,,,,,,,,0,,,,76,75
130560,note_on,120,0,13,,,,,,,,7,,,,64,75
130560,note_on,120,0,9,,,,,,,,5,,,,73,75
130560,note_on,160,0,22,,,,,,,,15,,,,40,75
130560,note_on,120,0,3,,,,,,,,2,,,,79,75
130560,note_on,160,0,19,,,,,,,,12,,,,64,75
130560,note_on,160,0,16,,,,,,,,8,,,,40,75
130560,note_on,160,0,8,,,,,,,,4,,,,40,75
130560,note_on,120,0,14,,,,,,,,7,,,,61,75
130560,note_on,120,0,1,,,,,,,,0,,,,79,75
130560,note_on,160,0,20,,,,,,,,13,,,,52,75
130560,note_on,120,0,5,,,,,,,,3,,,,67,75
130560,note_on,160,0,7,,,,,,,,4,,,,52,75
130560,note_on,120,0,6,,,,,,,,3,,,,64,75
130560,note_on,120,0,15,,,,,,,,7,,,,57,75
130560,note_on,160,0,21,,,,,,,,14,,,,52,75
130560,note_on,160,0,18,,,,,,,,11,,,,64,92
130560,note_on,120,0,11,,,,,,,,6,,,,79,75
130560,note_on,120,0,10,,,,,,,,5,,,,67,75
130560,note_on,120,0,12,,,,,,,,6,,,,76,75
130560,note_on,120,0,4,,,,,,,,2,,,,76,75
130640,note_off,80,0,21,,,,,,,,14,,,,52,64
130640,note_off,80,0,8,,,,,,,,4,,,,40,64
130640,note_off,80,0,18,,,,,,,,11,,,,64,64
130640,note_off,80,0,19,,,,,,,,12,,,,64,64
130640,note_off,80,0,22,,,,,,,,15,,,,40,64
130640,note_off,80,0,7,,,,,,,,4,,,,52,64
130640,note_off,80,0,20,,,,,,,,13,,,,52,64
130640,note_off,80,0,16,,,,,,,,8,,,,40,64
130800,note_on,160,0,21,,,,,,,,14,,,,55,75
130800,note_on,160,0,8,,,,,,,,4,,,,43,75
130800,note_on,160,0,18,,,,,,,,11,,,,67,92
130800,note_on,160,0,16,,,,,,,,8,,,,43,75
130800,note_on,160,0,20,,,,,,,,13,,,,55,75
130800,note_on,160,0,19,,,,,,,,12,,,,67,75
130800,note_on,160,0,22,,,,,,,,15,,,,43,75
130800,note_on,160,0,7,,,,,,,,4,,,,55,75
130880,note_off,80,0,8,,,,,,,,4,,,,43,64
130880,note_off,80,0,21,,,,,,,,14,,,,55,64
130880,note_off,80,0,16,,,,,,,,8,,,,43,64
130880,note_off,80,0,20,,,,,,,,13,,,,55,64
130880,note_off,80,0,7,,,,,,,,4,,,,55,64
130880,note_off,80,0,19,,,,,,,,12,,,,67,64
130880,note_off,80,0,22,,,,,,,,15,,,,43,64
130880,note_off,80,0,18,,,,,,,,11,,,,67,64
131040,note_on,160,0,18,,,,,,,,11,,,,73,92
131040,note_on,160,0,21,,,,,,,,14,,,,61,75
131040,note_on,160,0,16,,,,,,,,8,,,,49,75
131040,note_on,160,0,8,,,,,,,,4,,,,49,75
131040,note_on,160,0,19,,,,,,,,12,,,,73,75
131040,note_on,160,0,20,,,,,,,,13,,,,61,75
131040,note_on,160,0,22,,,,,,,,15,,,,49,75
131040,note_on,160,0,7,,,,,,,,4,,,,61,75
131120,note_off,80,0,21,,,,,,,,14,,,,61,64
131120,note_off,80,0,8,,,,,,,,4,,,,49,64
131120,note_off,80,0,7,,,,,,,,4,,,,61,64
131120,note_off,80,0,18,,,,,,,,11,,,,73,64
131120,note_off,80,0,22,,,,,,,,15,,,,49,64
131120,note_off,80,0,19,,,,,,,,12,,,,73,64
131120,note_off,80,0,20,,,,,,,,13,,,,61,64
131120,note_off,80,0,16,,,,,,,,8,,,,49,64
131280,note_on,160,0,19,,,,,,,,12,,,,64,75
131280,note_on,160,0,7,,,,,,,,4,,,,52,75
131280,note_on,160,0,20,,,,,,,,13,,,,52,75
131280,note_on,160,0,22,,,,,,,,15,,,,40,75
131280,note_on,160,0,8,,,,,,,,4,,,,40,75
131280,note_on,160,0,21,,,,,,,,14,,,,52,75
131280,note_on,160,0,18,,,,,,,,11,,,,64,92
131280,note_on,160,0,16,,,,,,,,8,,,,40,75
131360,note_off,80,0,7,,,,,,,,4,,,,52,64
131360,note_off,80,0,16,,,,,,,,8,,,,40,64
131360,note_off,80,0,18,,,,,,,,11,,,,64,64
131360,note_off,80,0,21,,,,,,,,14,,,,52,64
131360,note_off,80,0,8,,,,,,,,4,,,,40,64
131360,note_off,80,0,20,,,,,,,,13,,,,52,64
131360,note_off,80,0,19,,,,,,,,12,,,,64,64
131360,note_off,80,0,22,,,,,,,,15,,,,40,64
131520,note_on,160,0,18,,,,,,,,11,,,,67,92
131520,note_on,160,0,7,,,,,,,,4,,,,55,75
131520,note_on,160,0,16,,,,,,,,8,,,,43,75
131520,note_on,160,0,19,,,,,,,,12,,,,67,75
131520,note_on,160,0,8,,,,,,,,4,,,,43,75
131520,note_on,160,0,20,,,,,,,,13,,,,55,75
131520,note_on,160,0,22,,,,,,,,15,,,,43,75
131520,note_on,160,0,21,,,,,,,,14,,,,55,75
131600,note_off,80,0,7,,,,,,,,4,,,,55,64
131600,note_off,80,0,20,,,,,,,,13,,,,55,64
131600,note_off,80,0,16,,,,,,,,8,,,,43,64
131600,note_off,80,0,18,,,,,,,,11,,,,67,64
131600,note_off,80,0,21,,,,,,,,14,,,,55,64
131600,note_off,80,0,19,,,,,,,,12,,,,67,64
131600,note_off,80,0,8,,,,,,,,4,,,,43,64
131600,note_off,80,0,22,,,,,,,,15,,,,43,64
131760,note_on,160,0,18,,,,,,,,11,,,,73,92
131760,note_on,160,0,19,,,,,,,,12,,,,73,75
131760,note_on,160,0,8,,,,,,,,4,,,,49,75
131760,note_on,160,0,16,,,,,,,,8,,,,49,75
131760,note_on,160,0,20,,,,,,,,13,,,,61,75
131760,note_on,160,0,22,,,,,,,,15,,,,49,75
131760,note_on,160,0,7,,,,,,,,4,,,,61,75
131760,note_on,160,0,21,,,,,,,,14,,,,61,75
131840,note_off,80,0,16,,,,,,,,8,,,,49,64
131840,note_off,80,0,22,,,,,,,,15,,,,49,64
131840,note_off,80,0,20,,,,,,,,13,,,,61,64
131840,note_off,80,0,7,,,,,,,,4,,,,61,64
131840,note_off,80,0,19,,,,,,,,12,,,,73,64
131840,note_off,80,0,21,,,,,,,,14,,,,61,64
131840,note_off,80,0,8,,,,,,,,4,,,,49,64
131840,note_off,80,0,18,,,,,,,,11,,,,73,64
131880,note_off,1320,0,9,,,,,,,,5,,,,73,64
131880,note_off,1320,0,4,,,,,,,,2,,,,76,64
131880,note_off,1320,0,3,,,,,,,,2,,,,79,64
131880,note_off,1320,0,12,,,,,,,,6,,,,76,64
131880,note_off,1320,0,2,,,,,,,,0,,,,76,64
131880,note_off,1320,0,10,,,,,,,,5,,,,67,64
131880,note_off,1320,0,13,,,,,,,,7,,,,64,64
131880,note_off,1320,0,6,,,,,,,,3,,,,64,64
131880,note_off,1320,0,1,,,,,,,,0,,,,79,64
131880,note_off,1320,0,11,,,,,,,,6,,,,79,64
131880,note_off,1320,0,15,,,,,,,,7,,,,57,64
131880,note_off,1320,0,14,,,,,,,,7,,,,61,64
131880,note_off,1320,0,5,,,,,,,,3,,,,67,64
132000,note_on,120,0,10,,,,,,,,5,,,,66,75
132000,note_on,120,0,14,,,,,,,,7,,,,57,75
132000,note_on,160,0,19,,,,,,,,12,,,,62,75
132000,note_on,160,0,20,,,,,,,,13,,,,50,75
132000,note_on,160,0,21,,,,,,,,14,,,,62,75
132000,note_on,120,0,13,,,,,,,,7,,,,62,75
132000,note_on,160,0,22,,,,,,,,15,,,,50,75
132000,note_on,120,0,11,,,,,,,,6,,,,78,75
132000,note_on,120,0,15,,,,,,,,7,,,,54,75
132000,note_on,120,0,9,,,,,,,,5,,,,74,75
132000,note_on,120,0,3,,,,,,,,2,,,,78,75
132000,note_on,120,0,5,,,,,,,,3,,,,66,75
132000,note_on,160,0,8,,,,,,,,4,,,,50,75
132000,note_on,120,0,2,,,,,,,,0,,,,74,75
132000,note_on,120,0,4,,,,,,,,2,,,,74,75
132000,note_on,160,0,18,,,,,,,,11,,,,62,92
132000,note_on,120,0,12,,,,,,,,6,,,,74,75
132000,note_on,120,0,1,,,,,,,,0,,,,78,75
132000,note_on,160,0,16,,,,,,,,8,,,,50,75
132000,note_on,120,0,6,,,,,,,,3,,,,62,75
132000,note_on,160,0,7,,,,,,,,4,,,,62,75
132080,note_off,80,0,18,,,,,,,,11,,,,62,64
132080,note_off,80,0,8,,,,,,,,4,,,,50,64
132080,note_off,80,0,16,,,,,,,,8,,,,50,64
132080,note_off,80,0,7,,,,,,,,4,,,,62,64
132080,note_off,80,0,21,,,,,,,,14,,,,62,64
132080,note_off,80,0,22,,,,,,,,15,,,,50,64
132080,note_off,80,0,20,,,,,,,,13,,,,50,64
132080,note_off,80,0,19,,,,,,,,12,,,,62,64
132240,note_on,160,0,8,,,,,,,,4,,,,38,75
132240,note_on,160,0,22,,,,,,,,15,,,,38,75
132240,note_on,160,0,7,,,,,,,,4,,,,50,75
132240,note_on,160,0,16,,,,,,,,8,,,,38,75
132240,note_on,160,0,21,,,,,,,,14,,,,50,75
132240,note_on,160,0,20,,,,,,,,13,,,,50,75
132240,note_on,160,0,18,,,,,,,,11,,,,62,92
132240,note_on,160,0,19,,,,,,,,12,,,,62,75
132320,note_off,80,0,16,,,,,,,,8,,,,38,64
132320,note_off,80,0,20,,,,,,,,13,,,,50,64
132320,note_off,80,0,18,,,,,,,,11,,,,62,64
132320,note_off,80,0,22,,,,,,,,15,,,,38,64
132320,note_off,80,0,7,,,,,,,,4,,,,50,64
132320,note_off,80,0,8,,,,,,,,4,,,,38,64
132320,note_off,80,0,19,,,,,,,,12,,,,62,64
132320,note_off,80,0,21,,,,,,,,14,,,,50,64
132480,note_on,160,0,19,,,,,,,,12,,,,66,75
132480,note_on,160,0,20,,,,,,,,13,,,,54,75
132480,note_on,160,0,18,,,,,,,,11,,,,66,92
132480,note_on,160,0,7,,,,,,,,4,,,,54,75
132480,note_on,160,0,8,,,,,,,,4,,,,42,75
132480,note_on,160,0,22,,,,,,,,15,,,,42,75
132480,note_on,160,0,21,,,,,,,,14,,,,54,75
132480,note_on,160,0,16,,,,,,,,8,,,,42,75
132560,note_off,80,0,21,,,,,,,,14,,,,54,64
132560,note_off,80,0,7,,,,,,,,4,,,,54,64
132560,note_off,80,0,16,,,,,,,,8,,,,42,64
132560,note_off,80,0,8,,,,,,,,4,,,,42,64
132560,note_off,80,0,18,,,,,,,,11,,,,66,64
132560,note_off,80,0,20,,,,,,,,13,,,,54,64
132560,note_off,80,0,22,,,,,,,,15,,,,42,64
132560,note_off,80,0,19,,,,,,,,12,,,,66,64
132720,note_on,160,0,8,,,,,,,,4,,,,45,75
132720,note_on,160,0,22,,,,,,,,15,,,,45,75
132720,note_on,160,0,7,,,,,,,,4,,,,57,75
132720,note_on,160,0,20,,,,,,,,13,,,,57,75
132720,note_on,160,0,21,,,,,,,,14,,,,57,75
132720,note_on,160,0,18,,,,,,,,11,,,,69,92
132720,note_on,160,0,19,,,,,,,,12,,,,69,75
132720,note_on,160,0,16,,,,,,,,8,,,,45,75
132800,note_off,80,0,18,,,,,,,,11,,,,69,64
132800,note_off,80,0,20,,,,,,,,13,,,,57,64
132800,note_off,80,0,19,,,,,,,,12,,,,69,64
132800,note_off,80,0,22,,,,,,,,15,,,,45,64
132800,note_off,80,0,21,,,,,,,,14,,,,57,64
132800,note_off,80,0,8,,,,,,,,4,,,,45,64
132800,note_off,80,0,16,,,,,,,,8,,,,45,64
132800,note_off,80,0,7,,,,,,,,4,,,,57,64
132960,note_on,160,0,16,,,,,,,,8,,,,42,75
132960,note_on,160,0,20,,,,,,,,13,,,,54,75
132960,note_on,160,0,21,,,,,,,,14,,,,54,75
132960,note_on,160,0,7,,,,,,,,4,,,,54,75
132960,note_on,160,0,19,,,,,,,,12,,,,66,75
132960,note_on,160,0,8,,,,,,,,4,,,,42,75
132960,note_on,160,0,22,,,,,,,,15,,,,42,75
132960,note_on,160,0,18,,,,,,,,11,,,,66,92
133040,note_off,80,0,20,,,,,,,,13,,,,54,64
133040,note_off,80,0,8,,,,,,,,4,,,,42,64
133040,note_off,80,0,19,,,,,,,,12,,,,66,64
133040,note_off,80,0,21,,,,,,,,14,,,,54,64
133040,note_off,80,0,7,,,,,,,,4,,,,54,64
133040,note_off,80,0,22,,,,,,,,15,,,,42,64
133040,note_off,80,0,16,,,,,,,,8,,,,42,64
133040,note_off,80,0,18,,,,,,,,11,,,,66,64
133200,note_on,160,0,20,,,,,,,,13,,,,50,75
133200,note_on,160,0,21,,,,,,,,14,,,,50,75
133200,note_on,160,0,18,,,,,,,,11,,,,62,92
133200,note_on,160,0,7,,,,,,,,4,,,,50,75
133200,note_on,160,0,16,,,,,,,,8,,,,38,75
133200,note_on,160,0,22,,,,,,,,15,,,,38,75
133200,note_on,160,0,19,,,,,,,,12,,,,62,75
133200,note_on,160,0,8,,,,,,,,4,,,,38,75
133280,note_off,80,0,22,,,,,,,,15,,,,38,64
133280,note_off,80,0,21,,,,,,,,14,,,,50,64
133280,note_off,80,0,19,,,,,,,,12,,,,62,64
133280,note_off,80,0,16,,,,,,,,8,,,,38,64
133280,note_off,80,0,8,,,,,,,,4,,,,38,64
133280,note_off,80,0,20,,,,,,,,13,,,,50,64
133280,note_off,80,0,18,,,,,,,,11,,,,62,64
133280,note_off,80,0,7,,,,,,,,4,,,,50,64
133320,note_off,1320,0,12,,,,,,,,6,,,,74,64
133320,note_off,1320,0,2,,,,,,,,0,,,,74,64
133320,note_off,1320,0,10,,,,,,,,5,,,,66,64
133320,note_off,1320,0,1,,,,,,,,0,,,,78,64
133320,note_off,1320,0,3,,,,,,,,2,,,,78,64
133320,note_off,1320,0,13,,,,,,,,7,,,,62,64
133320,note_off,1320,0,4,,,,,,,,2,,,,74,64
133320,note_off,1320,0,11,,,,,,,,6,,,,78,64
133320,note_off,1320,0,9,,,,,,,,5,,,,74,64
133320,note_off,1320,0,5,,,,,,,,3,,,,66,64
133320,note_off,1320,0,15,,,,,,,,7,,,,54,64
133320,note_off,1320,0,14,,,,,,,,7,,,,57,64
133320,note_off,1320,0,6,,,,,,,,3,,,,62,64
133440,note_on,160,0,19,,,,,,,,12,,,,74,75
133440,note_on,120,0,10,,,,,,,,5,,,,67,75
133440,note_on,160,0,20,,,,,,,,13,,,,71,75
133440,note_on,160,0,7,,,,,,,,4,,,,55,75
133440,note_on,160,0,21,,,,,,,,14,,,,55,75
133440,note_on,160,0,16,,,,,,,,8,,,,43,75
133440,note_on,120,0,14,,,,,,,,7,,,,59,75
133440,note_on,160,0,18,,,,,,,,11,,,,67,92
133440,note_on,160,0,8,,,,,,,,4,,,,43,75
133440,note_on,160,0,22,,,,,,,,15,,,,43,75
133440,note_on,120,0,15,,,,,,,,7,,,,55,75
133440,note_on,120,0,9,,,,,,,,5,,,,71,75
133440,note_on,120,0,13,,,,,,,,7,,,,62,75
133520,note_off,80,0,7,,,,,,,,4,,,,55,64
133520,note_off,80,0,16,,,,,,,,8,,,,43,64
133520,note_off,80,0,18,,,,,,,,11,,,,67,64
133520,note_off,80,0,22,,,,,,,,15,,,,43,64
133520,note_off,80,0,8,,,,,,,,4,,,,43,64
133520,note_off,80,0,21,,,,,,,,14,,,,55,64
133680,note_on,160,0,21,,,,,,,,14,,,,59,75
133680,note_on,160,0,18,,,,,,,,11,,,,71,92
133680,note_on,160,0,22,,,,,,,,15,,,,47,75
133680,note_on,160,0,8,,,,,,,,4,,,,47,75
133680,note_on,160,0,7,,,,,,,,4,,,,59,75
133680,note_on,160,0,16,,,,,,,,8,,,,47,75
133760,note_off,80,0,21,,,,,,,,14,,,,59,64
133760,note_off,80,0,8,,,,,,,,4,,,,47,64
133760,note_off,80,0,18,,,,,,,,11,,,,71,64
133760,note_off,80,0,22,,,,,,,,15,,,,47,64
133760,note_off,80,0,16,,,,,,,,8,,,,47,64
133760,note_off,80,0,7,,,,,,,,4,,,,59,64
133920,note_on,160,0,22,,,,,,,,15,,,,50,75
133920,note_on,160,0,21,,,,,,,,14,,,,62,75
133920,note_on,160,0,16,,,,,,,,8,,,,50,75
133920,note_on,160,0,8,,,,,,,,4,,,,50,75
133920,note_on,160,0,7,,,,,,,,4,,,,62,75
133920,note_on,160,0,18,,,,,,,,11,,,,74,92
134000,note_off,80,0,18,,,,,,,,11,,,,74,64
134000,note_off,80,0,7,,,,,,,,4,,,,62,64
134000,note_off,80,0,8,,,,,,,,4,,,,50,64
134000,note_off,80,0,21,,,,,,,,14,,,,62,64
134000,note_off,80,0,16,,,,,,,,8,,,,50,64
134000,note_off,80,0,22,,,,,,,,15,,,,50,64
134160,note_on,160,0,7,,,,,,,,4,,,,55,75
134160,note_on,160,0,16,,,,,,,,8,,,,43,75
134160,note_on,160,0,18,,,,,,,,11,,,,67,92
134160,note_on,160,0,21,,,,,,,,14,,,,55,75
134160,note_on,160,0,8,,,,,,,,4,,,,43,75
134160,note_on,160,0,22,,,,,,,,15,,,,43,75
134240,note_off,80,0,8,,,,,,,,4,,,,43,64
134240,note_off,80,0,7,,,,,,,,4,,,,55,64
134240,note_off,80,0,16,,,,,,,,8,,,,43,64
134240,note_off,80,0,18,,,,,,,,11,,,,67,64
134240,note_off,80,0,22,,,,,,,,15,,,,43,64
134240,note_off,80,0,21,,,,,,,,14,,,,55,64
134400,note_on,160,0,7,,,,,,,,4,,,,59,75
134400,note_on,160,0,18,,,,,,,,11,,,,71,92
134400,note_on,160,0,16,,,,,,,,8,,,,47,75
134400,note_on,160,0,8,,,,,,,,4,,,,47,75
134400,note_on,160,0,22,,,,,,,,15,,,,47,75
134400,note_on,160,0,21,,,,,,,,14,,,,59,75
134480,note_off,80,0,8,,,,,,,,4,,,,47,64
134480,note_off,80,0,18,,,,,,,,11,,,,71,64
134480,note_off,80,0,7,,,,,,,,4,,,,59,64
134480,note_off,80,0,16,,,,,,,,8,,,,47,64
134480,note_off,80,0,22,,,,,,,,15,,,,47,64
134480,note_off,80,0,21,,,,,,,,14,,,,59,64
134640,note_on,160,0,21,,,,,,,,14,,,,62,75
134640,note_on,160,0,7,,,,,,,,4,,,,62,75
134640,note_on,160,0,16,,,,,,,,8,,,,50,75
134640,note_on,160,0,8,,,,,,,,4,,,,50,75
134640,note_on,160,0,22,,,,,,,,15,,,,50,75
134640,note_on,160,0,18,,,,,,,,11,,,,74,92
134720,note_off,80,0,21,,,,,,,,14,,,,62,64
134720,note_off,80,0,8,,,,,,,,4,,,,50,64
134720,note_off,80,0,22,,,,,,,,15,,,,50,64
134720,note_off,80,0,16,,,,,,,,8,,,,50,64
134720,note_off,80,0,18,,,,,,,,11,,,,74,64
134720,note_off,80,0,7,,,,,,,,4,,,,62,64
134760,note_off,1320,0,15,,,,,,,,7,,,,55,64
134760,note_off,1320,0,20,,,,,,,,13,,,,71,64
134760,note_off,1320,0,10,,,,,,,,5,,,,67,64
134760,note_off,1320,0,19,,,,,,,,12,,,,74,64
134760,note_off,1320,0,13,,,,,,,,7,,,,62,64
134760,note_off,1320,0,9,,,,,,,,5,,,,71,64
134760,note_off,1320,0,14,,,,,,,,7,,,,59,64
134880,note_on,120,0,14,,,,,,,,7,,,,57,75
134880,note_on,120,0,19,,,,,,,,12,,,,74,75
134880,note_on,160,0,22,,,,,,,,15,,,,42,75
134880,note_on,160,0,21,,,,,,,,14,,,,54,75
134880,note_on,160,0,18,,,,,,,,11,,,,66,92
134880,note_on,160,0,7,,,,,,,,4,,,,54,75
134880,note_on,120,0,9,,,,,,,,5,,,,69,75
134880,note_on,120,0,13,,,,,,,,7,,,,62,75
134880,note_on,120,0,10,,,,,,,,5,,,,66,75
134880,note_on,120,0,20,,,,,,,,13,,,,69,75
134880,note_on,160,0,16,,,,,,,,8,,,,42,75
134880,note_on,120,0,15,,,,,,,,7,,,,54,75
134880,note_on,160,0,8,,,,,,,,4,,,,42,75
134960,note_off,80,0,18,,,,,,,,11,,,,66,64
134960,note_off,80,0,16,,,,,,,,8,,,,42,64
134960,note_off,80,0,21,,,,,,,,14,,,,54,64
134960,note_off,80,0,22,,,,,,,,15,,,,42,64
134960,note_off,80,0,8,,,,,,,,4,,,,42,64
134960,note_off,80,0,7,,,,,,,,4,,,,54,64
135120,note_on,160,0,22,,,,,,,,15,,,,45,75
135120,note_on,160,0,16,,,,,,,,8,,,,45,75
135120,note_on,160,0,21,,,,,,,,14,,,,57,75
135120,note_on,160,0,8,,,,,,,,4,,,,45,75
135120,note_on,160,0,18,,,,,,,,11,,,,69,92
135120,note_on,160,0,7,,,,,,,,4,,,,57,75
135200,note_off,80,0,21,,,,,,,,14,,,,57,64
135200,note_off,80,0,22,,,,,,,,15,,,,45,64
135200,note_off,80,0,18,,,,,,,,11,,,,69,64
135200,note_off,80,0,8,,,,,,,,4,,,,45,64
135200,note_off,80,0,7,,,,,,,,4,,,,57,64
135200,note_off,80,0,16,,,,,,,,8,,,,45,64
135360,note_on,160,0,18,,,,,,,,11,,,,74,92
135360,note_on,160,0,7,,,,,,,,4,,,,62,75
135360,note_on,160,0,21,,,,,,,,14,,,,62,75
135360,note_on,160,0,22,,,,,,,,15,,,,50,75
135360,note_on,160,0,16,,,,,,,,8,,,,50,75
135360,note_on,160,0,8,,,,,,,,4,,,,50,75
135440,note_off,80,0,7,,,,,,,,4,,,,62,64
135440,note_off,80,0,16,,,,,,,,8,,,,50,64
135440,note_off,80,0,22,,,,,,,,15,,,,50,64
135440,note_off,80,0,21,,,,,,,,14,,,,62,64
135440,note_off,80,0,18,,,,,,,,11,,,,74,64
135440,note_off,80,0,8,,,,,,,,4,,,,50,64
135600,note_on,160,0,8,,,,,,,,4,,,,42,75
135600,note_on,160,0,7,,,,,,,,4,,,,54,75
135600,note_on,160,0,21,,,,,,,,14,,,,54,75
135600,note_on,160,0,22,,,,,,,,15,,,,42,75
135600,note_on,160,0,16,,,,,,,,8,,,,42,75
135600,note_on,160,0,18,,,,,,,,11,,,,66,92
135680,note_off,80,0,7,,,,,,,,4,,,,54,64
135680,note_off,80,0,21,,,,,,,,14,,,,54,64
135680,note_off,80,0,22,,,,,,,,15,,,,42,64
135680,note_off,80,0,16,,,,,,,,8,,,,42,64
135680,note_off,80,0,18,,,,,,,,11,,,,66,64
135680,note_off,80,0,8,,,,,,,,4,,,,42,64
135840,note_on,160,0,21,,,,,,,,14,,,,57,75
135840,note_on,160,0,7,,,,,,,,4,,,,57,75
135840,note_on,160,0,8,,,,,,,,4,,,,45,75
135840,note_on,160,0,22,,,,,,,,15,,,,45,75
135840,note_on,160,0,16,,,,,,,,8,,,,45,75
135840,note_on,160,0,18,,,,,,,,11,,,,69,92
135920,note_off,80,0,7,,,,,,,,4,,,,57,64
135920,note_off,80,0,22,,,,,,,,15,,,,45,64
135920,note_off,80,0,16,,,,,,,,8,,,,45,64
135920,note_off,80,0,8,,,,,,,,4,,,,45,64
135920,note_off,80,0,21,,,,,,,,14,,,,57,64
135920,note_off,80,0,18,,,,,,,,11,,,,69,64
136080,note_on,160,0,18,,,,,,,,11,,,,74,92
136080,note_on,160,0,22,,,,,,,,15,,,,50,75
136080,note_on,160,0,16,,,,,,,,8,,,,50,75
136080,note_on,160,0,8,,,,,,,,4,,,,50,75
136080,note_on,160,0,7,,,,,,,,4,,,,62,75
136080,note_on,160,0,21,,,,,,,,14,,,,62,75
136160,note_off,80,0,8,,,,,,,,4,,,,50,64
136160,note_off,80,0,21,,,,,,,,14,,,,62,64
136160,note_off,80,0,7,,,,,,,,4,,,,62,64
136160,note_off,80,0,18,,,,,,,,11,,,,74,64
136160,note_off,80,0,22,,,,,,,,15,,,,50,64
136160,note_off,80,0,16,,,,,,,,8,,,,50,64
136200,note_off,1320,0,9,,,,,,,,5,,,,69,64
136200,note_off,1320,0,13,,,,,,,,7,,,,62,64
136200,note_off,1320,0,10,,,,,,,,5,,,,66,64
136200,note_off,1320,0,20,,,,,,,,13,,,,69,64
136200,note_off,1320,0,15,,,,,,,,7,,,,54,64
136200,note_off,1320,0,19,,,,,,,,12,,,,74,64
136200,note_off,1320,0,14,,,,,,,,7,,,,57,64
136320,note_on,120,0,15,,,,,,,,7,,,,52,75
136320,note_on,160,0,21,,,,,,,,14,,,,52,75
136320,note_on,160,0,8,,,,,,,,4,,,,40,75
136320,note_on,160,0,22,,,,,,,,15,,,,40,75
136320,note_on,120,0,14,,,,,,,,7,,,,55,75
136320,note_on,120,0,9,,,,,,,,5,,,,67,75
136320,note_on,120,0,20,,,,,,,,13,,,,73,75
136320,note_on,120,0,10,,,,,,,,5,,,,64,75
136320,note_on,160,0,16,,,,,,,,8,,,,40,75
136320,note_on,160,0,7,,,,,,,,4,,,,52,75
136320,note_on,160,0,18,,,,,,,,11,,,,64,92
136320,note_on,120,0,19,,,,,,,,12,,,,76,75
136320,note_on,120,0,13,,,,,,,,7,,,,61,75
136400,note_off,80,0,21,,,,,,,,14,,,,52,64
136400,note_off,80,0,16,,,,,,,,8,,,,40,64
136400,note_off,80,0,18,,,,,,,,11,,,,64,64
136400,note_off,80,0,22,,,,,,,,15,,,,40,64
136400,note_off,80,0,8,,,,,,,,4,,,,40,64
136400,note_off,80,0,7,,,,,,,,4,,,,52,64
136560,note_on,160,0,22,,,,,,,,15,,,,43,75
136560,note_on,160,0,7,,,,,,,,4,,,,55,75
136560,note_on,160,0,16,,,,,,,,8,,,,43,75
136560,note_on,160,0,18,,,,,,,,11,,,,67,92
136560,note_on,160,0,8,,,,,,,,4,,,,43,75
136560,note_on,160,0,21,,,,,,,,14,,,,55,75
136640,note_off,80,0,22,,,,,,,,15,,,,43,64
136640,note_off,80,0,16,,,,,,,,8,,,,43,64
136640,note_off,80,0,18,,,,,,,,11,,,,67,64
136640,note_off,80,0,7,,,,,,,,4,,,,55,64
136640,note_off,80,0,21,,,,,,,,14,,,,55,64
136640,note_off,80,0,8,,,,,,,,4,,,,43,64
136800,note_on,160,0,7,,,,,,,,4,,,,61,75
136800,note_on,160,0,21,,,,,,,,14,,,,61,75
136800,note_on,160,0,8,,,,,,,,4,,,,49,75
136800,note_on,160,0,16,,,,,,,,8,,,,49,75
136800,note_on,160,0,18,,,,,,,,11,,,,73,92
136800,note_on,160,0,22,,,,,,,,15,,,,49,75
136880,note_off,80,0,8,,,,,,,,4,,,,49,64
136880,note_off,80,0,22,,,,,,,,15,,,,49,64
136880,note_off,80,0,7,,,,,,,,4,,,,61,64
136880,note_off,80,0,18,,,,,,,,11,,,,73,64
136880,note_off,80,0,21,,,,,,,,14,,,,61,64
136880,note_off,80,0,16,,,,,,,,8,,,,49,64
137040,note_on,160,0,22,,,,,,,,15,,,,40,75
137040,note_on,160,0,16,,,,,,,,8,,,,40,75
137040,note_on,160,0,18,,,,,,,,11,,,,64,92
137040,note_on,160,0,8,,,,,,,,4,,,,40,75
137040,note_on,160,0,7,,,,,,,,4,,,,52,75
137040,note_on,160,0,21,,,,,,,,14,,,,52,75
137120,note_off,80,0,18,,,,,,,,11,,,,64,64
137120,note_off,80,0,8,,,,,,,,4,,,,40,64
137120,note_off,80,0,22,,,,,,,,15,,,,40,64
137120,note_off,80,0,16,,,,,,,,8,,,,40,64
137120,note_off,80,0,7,,,,,,,,4,,,,52,64
137120,note_off,80,0,21,,,,,,,,14,,,,52,64
137280,note_on,160,0,21,,,,,,,,14,,,,55,75
137280,note_on,160,0,8,,,,,,,,4,,,,43,75
137280,note_on,160,0,22,,,,,,,,15,,,,43,75
137280,note_on,160,0,18,,,,,,,,11,,,,67,92
137280,note_on,160,0,7,,,,,,,,4,,,,55,75
137280,note_on,160,0,16,,,,,,,,8,,,,43,75
137360,note_off,80,0,16,,,,,,,,8,,,,43,64
137360,note_off,80,0,21,,,,,,,,14,,,,55,64
137360,note_off,80,0,8,,,,,,,,4,,,,43,64
137360,note_off,80,0,22,,,,,,,,15,,,,43,64
137360,note_off,80,0,7,,,,,,,,4,,,,55,64
137360,note_off,80,0,18,,,,,,,,11,,,,67,64
137520,note_on,160,0,22,,,,,,,,15,,,,49,75
137520,note_on,160,0,8,,,,,,,,4,,,,49,75
137520,note_on,160,0,7,,,,,,,,4,,,,61,75
137520,note_on,160,0,16,,,,,,,,8,,,,49,75
137520,note_on,160,0,21,,,,,,,,14,,,,61,75
137520,note_on,160,0,18,,,,,,,,11,,,,73,92
137600,note_off,80,0,7,,,,,,,,4,,,,61,64
137600,note_off,80,0,16,,,,,,,,8,,,,49,64
137600,note_off,80,0,22,,,,,,,,15,,,,49,64
137600,note_off,80,0,21,,,,,,,,14,,,,61,64
137600,note_off,80,0,8,,,,,,,,4,,,,49,64
137600,note_off,80,0,18,,,,,,,,11,,,,73,64
137640,note_off,1320,0,9,,,,,,,,5,,,,67,64
137640,note_off,1320,0,14,,,,,,,,7,,,,55,64
137640,note_off,1320,0,20,,,,,,,,13,,,,73,64
137640,note_off,1320,0,15,,,,,,,,7,,,,52,64
137640,note_off,1320,0,19,,,,,,,,12,,,,76,64
137640,note_off,1320,0,10,,,,,,,,5,,,,64,64
137640,note_off,1320,0,13,,,,,,,,7,,,,61,64
137760,note_on,160,0,8,,,,,,,,4,,,,50,75
137760,note_on,120,0,19,,,,,,,,12,,,,78,75
137760,note_on,160,0,7,,,,,,,,4,,,,62,75
137760,note_on,120,0,15,,,,,,,,7,,,,50,75
137760,note_on,120,0,14,,,,,,,,7,,,,54,75
137760,note_on,160,0,18,,,,,,,,11,,,,74,92
137760,note_on,120,0,20,,,,,,,,13,,,,74,75
137760,note_on,160,0,16,,,,,,,,8,,,,50,75
137760,note_on,120,0,13,,,,,,,,7,,,,57,75
137760,note_on,120,0,9,,,,,,,,5,,,,66,75
137760,note_on,120,0,10,,,,,,,,5,,,,62,75
137760,note_on,160,0,22,,,,,,,,15,,,,50,75
137760,note_on,160,0,21,,,,,,,,14,,,,62,75
137840,note_off,80,0,19,,,,,,,,12,,,,78,64
137840,note_off,80,0,21,,,,,,,,14,,,,62,64
137840,note_off,80,0,20,,,,,,,,13,,,,74,64
137840,note_off,80,0,8,,,,,,,,4,,,,50,64
137840,note_off,80,0,16,,,,,,,,8,,,,50,64
137840,note_off,80,0,7,,,,,,,,4,,,,62,64
137840,note_off,80,0,22,,,,,,,,15,,,,50,64
137840,note_off,80,0,18,,,,,,,,11,,,,74,64
138000,note_on,160,0,21,,,,,,,,14,,,,57,75
138000,note_on,160,0,7,,,,,,,,4,,,,57,75
138000,note_on,160,0,16,,,,,,,,8,,,,45,75
138000,note_on,160,0,22,,,,,,,,15,,,,45,75
138000,note_on,160,0,8,,,,,,,,4,,,,45,75
138000,note_on,160,0,18,,,,,,,,11,,,,69,92
138000,note_on,160,0,19,,,,,,,,12,,,,79,75
138000,note_on,160,0,20,,,,,,,,13,,,,74,75
138080,note_off,80,0,19,,,,,,,,12,,,,79,64
138080,note_off,80,0,21,,,,,,,,14,,,,57,64
138080,note_off,80,0,16,,,,,,,,8,,,,45,64
138080,note_off,80,0,20,,,,,,,,13,,,,74,64
138080,note_off,80,0,18,,,,,,,,11,,,,69,64
138080,note_off,80,0,22,,,,,,,,15,,,,45,64
138080,note_off,80,0,8,,,,,,,,4,,,,45,64
138080,note_off,80,0,7,,,,,,,,4,,,,57,64
138240,note_on,160,0,20,,,,,,,,13,,,,78,75
138240,note_on,160,0,21,,,,,,,,14,,,,54,75
138240,note_on,160,0,19,,,,,,,,12,,,,81,75
138240,note_on,160,0,22,,,,,,,,15,,,,42,75
138240,note_on,160,0,7,,,,,,,,4,,,,54,75
138240,note_on,160,0,8,,,,,,,,4,,,,42,75
138240,note_on,160,0,18,,,,,,,,11,,,,66,92
138240,note_on,160,0,16,,,,,,,,8,,,,42,75
138320,note_off,80,0,8,,,,,,,,4,,,,42,64
138320,note_off,80,0,21,,,,,,,,14,,,,54,64
138320,note_off,80,0,18,,,,,,,,11,,,,66,64
138320,note_off,80,0,7,,,,,,,,4,,,,54,64
138320,note_off,80,0,22,,,,,,,,15,,,,42,64
138320,note_off,80,0,16,,,,,,,,8,,,,42,64
138480,note_on,160,0,22,,,,,,,,15,,,,38,75
138480,note_on,160,0,16,,,,,,,,8,,,,38,75
138480,note_on,160,0,21,,,,,,,,14,,,,50,75
138480,note_on,160,0,18,,,,,,,,11,,,,62,92
138480,note_on,160,0,8,,,,,,,,4,,,,38,75
138480,note_on,160,0,7,,,,,,,,4,,,,50,75
138560,note_off,80,0,8,,,,,,,,4,,,,38,64
138560,note_off,80,0,22,,,,,,,,15,,,,38,64
138560,note_off,80,0,21,,,,,,,,14,,,,50,64
138560,note_off,80,0,16,,,,,,,,8,,,,38,64
138560,note_off,80,0,7,,,,,,,,4,,,,50,64
138560,note_off,80,0,18,,,,,,,,11,,,,62,64
138720,note_on,160,0,16,,,,,,,,8,,,,42,75
138720,note_on,160,0,21,,,,,,,,14,,,,54,75
138720,note_on,160,0,7,,,,,,,,4,,,,54,75
138720,note_on,160,0,8,,,,,,,,4,,,,42,75
138720,note_on,160,0,18,,,,,,,,11,,,,66,92
138720,note_on,160,0,22,,,,,,,,15,,,,42,75
138800,note_off,80,0,21,,,,,,,,14,,,,54,64
138800,note_off,80,0,16,,,,,,,,8,,,,42,64
138800,note_off,80,0,8,,,,,,,,4,,,,42,64
138800,note_off,80,0,22,,,,,,,,15,,,,42,64
138800,note_off,80,0,18,,,,,,,,11,,,,66,64
138800,note_off,80,0,7,,,,,,,,4,,,,54,64
138960,note_on,160,0,21,,,,,,,,14,,,,57,75
138960,note_on,160,0,22,,,,,,,,15,,,,45,75
138960,note_on,160,0,18,,,,,,,,11,,,,69,92
138960,note_on,160,0,7,,,,,,,,4,,,,57,75
138960,note_on,160,0,16,,,,,,,,8,,,,45,75
138960,note_on,160,0,8,,,,,,,,4,,,,45,75
139040,note_off,80,0,7,,,,,,,,4,,,,57,64
139040,note_off,80,0,18,,,,,,,,11,,,,69,64
139040,note_off,80,0,16,,,,,,,,8,,,,45,64
139040,note_off,80,0,22,,,,,,,,15,,,,45,64
139040,note_off,80,0,21,,,,,,,,14,,,,57,64
139040,note_off,80,0,8,,,,,,,,4,,,,45,64
139080,note_off,1320,0,14,,,,,,,,7,,,,54,64
139080,note_off,840,0,20,,,,,,,,13,,,,78,64
139080,note_off,1320,0,10,,,,,,,,5,,,,62,64
139080,note_off,840,0,19,,,,,,,,12,,,,81,64
139080,note_off,1320,0,13,,,,,,,,7,,,,57,64
139080,note_off,1320,0,15,,,,,,,,7,,,,50,64
139080,note_off,1320,0,9,,,,,,,,5,,,,66,64
139200,note_on,160,0,21,,,,,,,,14,,,,50,75
139200,note_on,160,0,22,,,,,,,,15,,,,38,75
139200,note_on,120,0,20,,,,,,,,13,,,,66,75
139200,note_on,160,0,16,,,,,,,,8,,,,38,75
139200,note_on,160,0,18,,,,,,,,11,,,,74,92
139200,note_on,160,0,8,,,,,,,,4,,,,38,75
139200,note_on,5880,0,11,,,,,,,,6,,,,74,75
139200,note_on,5880,0,3,,,,,,,,2,,,,74,75
139200,note_on,5880,0,2,,,,,,,,0,,,,66,75
139200,note_on,120,0,14,,,,,,,,7,,,,54,75
139200,note_on,120,0,15,,,,,,,,7,,,,50,75
139200,note_on,120,0,19,,,,,,,,12,,,,69,75
139200,note_on,5880,0,1,,,,,,,,0,,,,74,75
139200,note_on,160,0,7,,,,,,,,4,,,,50,75
139200,note_on,120,0,13,,,,,,,,7,,,,57,75
139200,note_on,5880,0,6,,,,,,,,3,,,,62,75
139200,note_on,5880,0,4,,,,,,,,2,,,,66,75
139200,note_on,5880,0,12,,,,,,,,6,,,,69,75
139200,note_on,5880,0,5,,,,,,,,3,,,,66,75
139280,note_off,80,0,8,,,,,,,,4,,,,38,64
139280,note_off,80,0,7,,,,,,,,4,,,,50,64
139280,note_off,80,0,16,,,,,,,,8,,,,38,64
139280,note_off,80,0,22,,,,,,,,15,,,,38,64
139280,note_off,80,0,21,,,,,,,,14,,,,50,64
139440,note_on,160,0,8,,,,,,,,4,,,,42,75
139440,note_on,160,0,7,,,,,,,,4,,,,54,75
139440,note_on,160,0,16,,,,,,,,8,,,,42,75
139440,note_on,160,0,21,,,,,,,,14,,,,54,75
139440,note_on,160,0,22,,,,,,,,15,,,,42,75
139520,note_off,80,0,22,,,,,,,,15,,,,42,64
139520,note_off,80,0,16,,,,,,,,8,,,,42,64
139520,note_off,80,0,8,,,,,,,,4,,,,42,64
139520,note_off,80,0,21,,,,,,,,14,,,,54,64
139520,note_off,80,0,7,,,,,,,,4,,,,54,64
139680,note_on,160,0,16,,,,,,,,8,,,,45,75
139680,note_on,160,0,8,,,,,,,,4,,,,45,75
139680,note_on,160,0,22,,,,,,,,15,,,,45,75
139680,note_on,160,0,21,,,,,,,,14,,,,57,75
139680,note_on,160,0,7,,,,,,,,4,,,,57,75
139760,note_off,80,0,16,,,,,,,,8,,,,45,64
139760,note_off,80,0,7,,,,,,,,4,,,,57,64
139760,note_off,80,0,22,,,,,,,,15,,,,45,64
139760,note_off,80,0,8,,,,,,,,4,,,,45,64
139760,note_off,80,0,21,,,,,,,,14,,,,57,64
139840,note_off,640,0,4,,,,,,,,2,,,,66,64
139840,note_off,640,0,19,,,,,,,,12,,,,69,64
139840,note_off,640,0,5,,,,,,,,3,,,,66,64
139840,note_off,640,0,18,,,,,,,,11,,,,74,64
139840,note_off,640,0,2,,,,,,,,0,,,,66,64
139920,note_on,160,0,21,,,,,,,,14,,,,50,75
139920,note_on,160,0,7,,,,,,,,4,,,,50,75
139920,note_on,160,0,22,,,,,,,,15,,,,38,75
139920,note_on,80,0,5,,,,,,,,3,,,,66,75
139920,note_on,160,0,8,,,,,,,,4,,,,38,75
139920,note_on,80,0,19,,,,,,,,12,,,,66,75
139920,note_on,160,0,16,,,,,,,,8,,,,38,75
139920,note_on,80,0,2,,,,,,,,0,,,,66,75
139920,note_on,80,0,4,,,,,,,,2,,,,66,75
139920,note_on,80,0,18,,,,,,,,11,,,,69,92
140000,note_off,80,0,8,,,,,,,,4,,,,38,64
140000,note_off,80,0,2,,,,,,,,0,,,,66,64
140000,note_off,80,0,4,,,,,,,,2,,,,66,64
140000,note_off,80,0,18,,,,,,,,11,,,,69,64
140000,note_off,80,0,22,,,,,,,,15,,,,38,64
140000,note_off,80,0,5,,,,,,,,3,,,,66,64
140000,note_off,80,0,19,,,,,,,,12,,,,66,64
140000,note_off,80,0,7,,,,,,,,4,,,,50,64
140000,note_off,80,0,16,,,,,,,,8,,,,38,64
140000,note_off,80,0,21,,,,,,,,14,,,,50,64
140160,note_on,160,0,21,,,,,,,,14,,,,54,75
140160,note_on,160,0,16,,,,,,,,8,,,,42,75
140160,note_on,160,0,2,,,,,,,,0,,,,69,75
140160,note_on,160,0,22,,,,,,,,15,,,,42,75
140160,note_on,160,0,4,,,,,,,,2,,,,69,75
140160,note_on,160,0,8,,,,,,,,4,,,,42,75
140160,note_on,160,0,7,,,,,,,,4,,,,54,75
140160,note_on,160,0,18,,,,,,,,11,,,,74,92
140160,note_on,160,0,19,,,,,,,,12,,,,69,75
140160,note_on,160,0,5,,,,,,,,3,,,,69,75
140240,note_off,80,0,18,,,,,,,,11,,,,74,64
140240,note_off,80,0,19,,,,,,,,12,,,,69,64
140240,note_off,80,0,2,,,,,,,,0,,,,69,64
140240,note_off,80,0,8,,,,,,,,4,,,,42,64
140240,note_off,80,0,5,,,,,,,,3,,,,69,64
140240,note_off,80,0,16,,,,,,,,8,,,,42,64
140240,note_off,80,0,22,,,,,,,,15,,,,42,64
140240,note_off,80,0,21,,,,,,,,14,,,,54,64
140240,note_off,80,0,7,,,,,,,,4,,,,54,64
140240,note_off,80,0,4,,,,,,,,2,,,,69,64
140400,note_on,160,0,19,,,,,,,,12,,,,69,75
140400,note_on,160,0,21,,,,,,,,14,,,,57,75
140400,note_on,160,0,4,,,,,,,,2,,,,69,75
140400,note_on,160,0,16,,,,,,,,8,,,,45,75
140400,note_on,160,0,5,,,,,,,,3,,,,69,75
140400,note_on,160,0,7,,,,,,,,4,,,,57,75
140400,note_on,160,0,8,,,,,,,,4,,,,45,75
140400,note_on,160,0,18,,,,,,,,11,,,,78,92
140400,note_on,160,0,2,,,,,,,,0,,,,69,75
140400,note_on,160,0,22,,,,,,,,15,,,,45,75
140480,note_off,80,0,4,,,,,,,,2,,,,69,64
140480,note_off,80,0,18,,,,,,,,11,,,,78,64
140480,note_off,80,0,21,,,,,,,,14,,,,57,64
140480,note_off,80,0,7,,,,,,,,4,,,,57,64
140480,note_off,80,0,2,,,,,,,,0,,,,69,64
140480,note_off,80,0,22,,,,,,,,15,,,,45,64
140480,note_off,80,0,8,,,,,,,,4,,,,45,64
140480,note_off,80,0,16,,,,,,,,8,,,,45,64
140480,note_off,80,0,5,,,,,,,,3,,,,69,64
140480,note_off,80,0,19,,,,,,,,12,,,,69,64
140520,note_off,1320,0,20,,,,,,,,13,,,,66,64
140520,note_off,1320,0,11,,,,,,,,6,,,,74,64
140520,note_off,1320,0,13,,,,,,,,7,,,,57,64
140520,note_off,1320,0,15,,,,,,,,7,,,,50,64
140520,note_off,1320,0,1,,,,,,,,0,,,,74,64
140520,note_off,1320,0,3,,,,,,,,2,,,,74,64
140520,note_off,1320,0,6,,,,,,,,3,,,,62,64
140520,note_off,1320,0,12,,,,,,,,6,,,,69,64
140520,note_off,1320,0,14,,,,,,,,7,,,,54,64
140640,note_on,160,0,4,,,,,,,,2,,,,69,75
140640,note_on,160,0,7,,,,,,,,4,,,,49,75
140640,note_on,120,0,3,,,,,,,,2,,,,76,75
140640,note_on,120,0,14,,,,,,,,7,,,,57,75
140640,note_on,120,0,15,,,,,,,,7,,,,45,75
140640,note_on,120,0,1,,,,,,,,0,,,,76,75
140640,note_on,160,0,19,,,,,,,,12,,,,69,75
140640,note_on,120,0,13,,,,,,,,7,,,,61,75
140640,note_on,120,0,12,,,,,,,,6,,,,73,75
140640,note_on,120,0,6,,,,,,,,3,,,,64,75
140640,note_on,160,0,21,,,,,,,,14,,,,49,75
140640,note_on,120,0,11,,,,,,,,6,,,,76,75
140640,note_on,160,0,18,,,,,,,,11,,,,76,92
140640,note_on,160,0,5,,,,,,,,3,,,,69,75
140640,note_on,160,0,22,,,,,,,,15,,,,37,75
140640,note_on,160,0,8,,,,,,,,4,,,,37,75
140640,note_on,160,0,2,,,,,,,,0,,,,69,75
140640,note_on,160,0,16,,,,,,,,8,,,,37,75
140640,note_on,120,0,20,,,,,,,,13,,,,64,75
140720,note_off,80,0,5,,,,,,,,3,,,,69,64
140720,note_off,80,0,22,,,,,,,,15,,,,37,64
140720,note_off,80,0,16,,,,,,,,8,,,,37,64
140720,note_off,80,0,21,,,,,,,,14,,,,49,64
140720,note_off,80,0,2,,,,,,,,0,,,,69,64
140720,note_off,80,0,7,,,,,,,,4,,,,49,64
140720,note_off,80,0,4,,,,,,,,2,,,,69,64
140720,note_off,80,0,19,,,,,,,,12,,,,69,64
140720,note_off,80,0,8,,,,,,,,4,,,,37,64
140880,note_on,160,0,7,,,,,,,,4,,,,52,75
140880,note_on,160,0,16,,,,,,,,8,,,,40,75
140880,note_on,160,0,22,,,,,,,,15,,,,40,75
140880,note_on,160,0,5,,,,,,,,3,,,,73,75
140880,note_on,160,0,2,,,,,,,,0,,,,73,75
140880,note_on,160,0,8,,,,,,,,4,,,,40,75
140880,note_on,160,0,19,,,,,,,,12,,,,73,75
140880,note_on,160,0,4,,,,,,,,2,,,,73,75
140880,note_on,160,0,21,,,,,,,,14,,,,52,75
140960,note_off,80,0,7,,,,,,,,4,,,,52,64
140960,note_off,80,0,21,,,,,,,,14,,,,52,64
140960,note_off,80,0,2,,,,,,,,0,,,,73,64
140960,note_off,80,0,4,,,,,,,,2,,,,73,64
140960,note_off,80,0,5,,,,,,,,3,,,,73,64
140960,note_off,80,0,22,,,,,,,,15,,,,40,64
140960,note_off,80,0,8,,,,,,,,4,,,,40,64
140960,note_off,80,0,19,,,,,,,,12,,,,73,64
140960,note_off,80,0,16,,,,,,,,8,,,,40,64
141120,note_on,160,0,19,,,,,,,,12,,,,73,75
141120,note_on,160,0,8,,,,,,,,4,,,,45,75
141120,note_on,160,0,16,,,,,,,,8,,,,45,75
141120,note_on,160,0,22,,,,,,,,15,,,,45,75
141120,note_on,160,0,4,,,,,,,,2,,,,73,75
141120,note_on,160,0,7,,,,,,,,4,,,,57,75
141120,note_on,160,0,2,,,,,,,,0,,,,73,75
141120,note_on,160,0,21,,,,,,,,14,,,,57,75
141120,note_on,160,0,5,,,,,,,,3,,,,73,75
141200,note_off,80,0,8,,,,,,,,4,,,,45,64
141200,note_off,80,0,22,,,,,,,,15,,,,45,64
141200,note_off,80,0,16,,,,,,,,8,,,,45,64
141200,note_off,80,0,7,,,,,,,,4,,,,57,64
141200,note_off,80,0,21,,,,,,,,14,,,,57,64
141280,note_off,640,0,18,,,,,,,,11,,,,76,64
141360,note_on,160,0,7,,,,,,,,4,,,,49,75
141360,note_on,160,0,8,,,,,,,,4,,,,37,75
141360,note_on,80,0,18,,,,,,,,11,,,,69,92
141360,note_on,160,0,22,,,,,,,,15,,,,37,75
141360,note_on,160,0,21,,,,,,,,14,,,,49,75
141360,note_on,160,0,16,,,,,,,,8,,,,37,75
141440,note_off,80,0,21,,,,,,,,14,,,,49,64
141440,note_off,80,0,8,,,,,,,,4,,,,37,64
141440,note_off,80,0,7,,,,,,,,4,,,,49,64
141440,note_off,80,0,22,,,,,,,,15,,,,37,64
141440,note_off,80,0,16,,,,,,,,8,,,,37,64
141440,note_off,80,0,18,,,,,,,,11,,,,69,64
141520,note_off,400,0,5,,,,,,,,3,,,,73,64
141520,note_off,400,0,19,,,,,,,,12,,,,73,64
141520,note_off,400,0,2,,,,,,,,0,,,,73,64
141520,note_off,400,0,4,,,,,,,,2,,,,73,64
141600,note_on,160,0,22,,,,,,,,15,,,,40,75
141600,note_on,160,0,8,,,,,,,,4,,,,40,75
141600,note_on,80,0,2,,,,,,,,0,,,,76,75
141600,note_on,160,0,16,,,,,,,,8,,,,40,75
141600,note_on,80,0,5,,,,,,,,3,,,,76,75
141600,note_on,160,0,18,,,,,,,,11,,,,79,92
141600,note_on,160,0,21,,,,,,,,14,,,,52,75
141600,note_on,160,0,7,,,,,,,,4,,,,52,75
141600,note_on,80,0,19,,,,,,,,12,,,,76,75
141600,note_on,80,0,4,,,,,,,,2,,,,76,75
141680,note_off,80,0,18,,,,,,,,11,,,,79,64
141680,note_off,80,0,2,,,,,,,,0,,,,76,64
141680,note_off,80,0,21,,,,,,,,14,,,,52,64
141680,note_off,80,0,16,,,,,,,,8,,,,40,64
141680,note_off,80,0,5,,,,,,,,3,,,,76,64
141680,note_off,80,0,22,,,,,,,,15,,,,40,64
141680,note_off,80,0,7,,,,,,,,4,,,,52,64
141680,note_off,80,0,8,,,,,,,,4,,,,40,64
141680,note_off,80,0,19,,,,,,,,12,,,,76,64
141680,note_off,80,0,4,,,,,,,,2,,,,76,64
141840,note_on,160,0,4,,,,,,,,2,,,,73,75
141840,note_on,160,0,7,,,,,,,,4,,,,57,75
141840,note_on,160,0,8,,,,,,,,4,,,,45,75
141840,note_on,160,0,21,,,,,,,,14,,,,57,75
141840,note_on,160,0,22,,,,,,,,15,,,,45,75
141840,note_on,160,0,2,,,,,,,,0,,,,73,75
141840,note_on,160,0,19,,,,,,,,12,,,,73,75
141840,note_on,160,0,16,,,,,,,,8,,,,45,75
141840,note_on,160,0,18,,,,,,,,11,,,,76,92
141840,note_on,160,0,5,,,,,,,,3,,,,73,75
141920,note_off,80,0,2,,,,,,,,0,,,,73,64
141920,note_off,80,0,16,,,,,,,,8,,,,45,64
141920,note_off,80,0,21,,,,,,,,14,,,,57,64
141920,note_off,80,0,19,,,,,,,,12,,,,73,64
141920,note_off,80,0,8,,,,,,,,4,,,,45,64
141920,note_off,80,0,7,,,,,,,,4,,,,57,64
141920,note_off,80,0,18,,,,,,,,11,,,,76,64
141920,note_off,80,0,4,,,,,,,,2,,,,73,64
141920,note_off,80,0,5,,,,,,,,3,,,,73,64
141920,note_off,80,0,22,,,,,,,,15,,,,45,64
141960,note_off,1320,0,1,,,,,,,,0,,,,76,64
141960,note_off,1320,0,20,,,,,,,,13,,,,64,64
141960,note_off,1320,0,15,,,,,,,,7,,,,45,64
141960,note_off,1320,0,3,,,,,,,,2,,,,76,64
141960,note_off,1320,0,11,,,,,,,,6,,,,76,64
141960,note_off,1320,0,13,,,,,,,,7,,,,61,64
141960,note_off,1320,0,12,,,,,,,,6,,,,73,64
141960,note_off,1320,0,6,,,,,,,,3,,,,64,64
141960,note_off,1320,0,14,,,,,,,,7,,,,57,64
142080,note_on,160,0,7,,,,,,,,4,,,,47,75
142080,note_on,120,0,13,,,,,,,,7,,,,66,75
142080,note_on,160,0,19,,,,,,,,12,,,,74,75
142080,note_on,120,0,12,,,,,,,,6,,,,74,75
142080,note_on,160,0,18,,,,,,,,11,,,,78,92
142080,note_on,120,0,6,,,,,,,,3,,,,66,75
142080,note_on,120,0,14,,,,,,,,7,,,,54,75
142080,note_on,160,0,2,,,,,,,,0,,,,74,75
142080,note_on,120,0,11,,,,,,,,6,,,,78,75
142080,note_on,160,0,22,,,,,,,,15,,,,35,75
142080,note_on,160,0,8,,,,,,,,4,,,,35,75
142080,note_on,160,0,16,,,,,,,,8,,,,35,75
142080,note_on,120,0,1,,,,,,,,0,,,,78,75
142080,note_on,120,0,3,,,,,,,,2,,,,78,75
142080,note_on,120,0,15,,,,,,,,7,,,,50,75
142080,note_on,120,0,20,,,,,,,,13,,,,66,75
142080,note_on,160,0,5,,,,,,,,3,,,,74,75
142080,note_on,160,0,4,,,,,,,,2,,,,74,75
142080,note_on,160,0,21,,,,,,,,14,,,,47,75
142160,note_off,80,0,7,,,,,,,,4,,,,47,64
142160,note_off,80,0,21,,,,,,,,14,,,,47,64
142160,note_off,80,0,16,,,,,,,,8,,,,35,64
142160,note_off,80,0,8,,,,,,,,4,,,,35,64
142160,note_off,80,0,22,,,,,,,,15,,,,35,64
142315,note_off,235,0,18,,,,,,,,11,,,,78,64
142320,note_on,160,0,22,,,,,,,,15,,,,38,75
142320,note_on,160,0,8,,,,,,,,4,,,,38,75
142320,note_on,160,0,16,,,,,,,,8,,,,38,75
142320,note_on,5,0,18,,,,,,,,11,,,,71,92
142320,note_on,160,0,21,,,,,,,,14,,,,50,75
142320,note_on,160,0,7,,,,,,,,4,,,,50,75
142400,note_off,80,0,8,,,,,,,,4,,,,38,64
142400,note_off,80,0,16,,,,,,,,8,,,,38,64
142400,note_off,80,0,22,,,,,,,,15,,,,38,64
142400,note_off,80,0,21,,,,,,,,14,,,,50,64
142400,note_off,80,0,7,,,,,,,,4,,,,50,64
142480,note_off,400,0,4,,,,,,,,2,,,,74,64
142480,note_off,400,0,15,,,,,,,,7,,,,50,64
142480,note_off,400,0,2,,,,,,,,0,,,,74,64
142480,note_off,400,0,19,,,,,,,,12,,,,74,64
142480,note_off,400,0,6,,,,,,,,3,,,,66,64
142480,note_off,400,0,12,,,,,,,,6,,,,74,64
142480,note_off,400,0,20,,,,,,,,13,,,,66,64
142480,note_off,400,0,5,,,,,,,,3,,,,74,64
142480,note_off,400,0,14,,,,,,,,7,,,,54,64
142480,note_off,400,0,11,,,,,,,,6,,,,78,64
142480,note_off,400,0,1,,,,,,,,0,,,,78,64
142480,note_off,400,0,13,,,,,,,,7,,,,66,64
142480,note_off,400,0,3,,,,,,,,2,,,,78,64
142555,note_off,235,0,18,,,,,,,,11,,,,71,64
142560,note_on,80,0,1,,,,,,,,0,,,,80,75
142560,note_on,160,0,16,,,,,,,,8,,,,44,75
142560,note_on,160,0,8,,,,,,,,4,,,,44,75
142560,note_on,160,0,21,,,,,,,,14,,,,56,75
142560,note_on,80,0,15,,,,,,,,7,,,,56,75
142560,note_on,80,0,14,,,,,,,,7,,,,59,75
142560,note_on,5,0,18,,,,,,,,11,,,,80,92
142560,note_on,80,0,13,,,,,,,,7,,,,62,75
142560,note_on,80,0,4,,,,,,,,2,,,,74,75
142560,note_on,80,0,2,,,,,,,,0,,,,74,75
142560,note_on,80,0,6,,,,,,,,3,,,,68,75
142560,note_on,80,0,3,,,,,,,,2,,,,80,75
142560,note_on,160,0,7,,,,,,,,4,,,,56,75
142560,note_on,80,0,20,,,,,,,,13,,,,68,75
142560,note_on,80,0,19,,,,,,,,12,,,,74,75
142560,note_on,80,0,12,,,,,,,,6,,,,74,75
142560,note_on,80,0,5,,,,,,,,3,,,,71,75
142560,note_on,80,0,11,,,,,,,,6,,,,80,75
142560,note_on,160,0,22,,,,,,,,15,,,,44,75
142620,note_off,60,0,3,,,,,,,,2,,,,80,64
142620,note_on,0,0,3,,,,,,,,2,,,,81,75
142620,note_off,60,0,18,,,,,,,,11,,,,80,64
142620,note_off,60,0,1,,,,,,,,0,,,,80,64
142620,note_off,60,0,11,,,,,,,,6,,,,80,64
142620,note_on,0,0,11,,,,,,,,6,,,,81,75
142620,note_on,0,0,18,,,,,,,,11,,,,81,92
142620,note_on,0,0,1,,,,,,,,0,,,,81,75
142640,note_off,80,0,16,,,,,,,,8,,,,44,64
142640,note_off,80,0,21,,,,,,,,14,,,,56,64
142640,note_off,80,0,8,,,,,,,,4,,,,44,64
142640,note_off,80,0,7,,,,,,,,4,,,,56,64
142640,note_off,80,0,22,,,,,,,,15,,,,44,64
142680,note_off,60,0,1,,,,,,,,0,,,,81,64
142680,note_on,0,0,11,,,,,,,,6,,,,80,75
142680,note_off,60,0,18,,,,,,,,11,,,,81,64
142680,note_on,0,0,18,,,,,,,,11,,,,80,92
142680,note_off,60,0,11,,,,,,,,6,,,,81,64
142680,note_on,0,0,1,,,,,,,,0,,,,80,75
142680,note_off,60,0,3,,,,,,,,2,,,,81,64
142680,note_on,0,0,3,,,,,,,,2,,,,80,75
142740,note_on,0,0,11,,,,,,,,6,,,,81,75
142740,note_off,60,0,11,,,,,,,,6,,,,80,64
142740,note_on,0,0,3,,,,,,,,2,,,,81,75
142740,note_on,0,0,18,,,,,,,,11,,,,81,92
142740,note_off,60,0,18,,,,,,,,11,,,,80,64
142740,note_on,0,0,1,,,,,,,,0,,,,81,75
142740,note_off,60,0,1,,,,,,,,0,,,,80,64
142740,note_off,60,0,3,,,,,,,,2,,,,80,64
142800,note_on,0,0,18,,,,,,,,11,,,,80,92
142800,note_on,160,0,16,,,,,,,,8,,,,35,75
142800,note_on,0,0,3,,,,,,,,2,,,,80,75
142800,note_off,60,0,18,,,,,,,,11,,,,81,64
142800,note_on,160,0,22,,,,,,,,15,,,,35,75
142800,note_on,0,0,1,,,,,,,,0,,,,80,75
142800,note_on,160,0,21,,,,,,,,14,,,,47,75
142800,note_off,60,0,11,,,,,,,,6,,,,81,64
142800,note_on,0,0,11,,,,,,,,6,,,,80,75
142800,note_off,60,0,3,,,,,,,,2,,,,81,64
142800,note_off,60,0,1,,,,,,,,0,,,,81,64
142800,note_on,160,0,8,,,,,,,,4,,,,35,75
142800,note_on,160,0,7,,,,,,,,4,,,,47,75
142860,note_on,0,0,11,,,,,,,,6,,,,81,75
142860,note_off,60,0,11,,,,,,,,6,,,,80,64
142860,note_on,0,0,3,,,,,,,,2,,,,81,75
142860,note_off,60,0,3,,,,,,,,2,,,,80,64
142860,note_on,0,0,1,,,,,,,,0,,,,81,75
142860,note_off,60,0,1,,,,,,,,0,,,,80,64
142860,note_off,60,0,18,,,,,,,,11,,,,80,64
142860,note_on,0,0,18,,,,,,,,11,,,,81,92
142880,note_off,80,0,8,,,,,,,,4,,,,35,64
142880,note_off,80,0,7,,,,,,,,4,,,,47,64
142880,note_off,80,0,16,,,,,,,,8,,,,35,64
142880,note_off,80,0,22,,,,,,,,15,,,,35,64
142880,note_off,80,0,21,,,,,,,,14,,,,47,64
142920,note_off,60,0,1,,,,,,,,0,,,,81,64
142920,note_off,60,0,11,,,,,,,,6,,,,81,64
142920,note_on,0,0,1,,,,,,,,0,,,,80,75
142920,note_off,60,0,3,,,,,,,,2,,,,81,64
142920,note_on,0,0,11,,,,,,,,6,,,,80,75
142920,note_on,0,0,3,,,,,,,,2,,,,80,75
142920,note_off,60,0,18,,,,,,,,11,,,,81,64
142920,note_on,0,0,18,,,,,,,,11,,,,80,92
142980,note_on,0,0,18,,,,,,,,11,,,,81,92
142980,note_off,60,0,11,,,,,,,,6,,,,80,64
142980,note_off,60,0,1,,,,,,,,0,,,,80,64
142980,note_on,0,0,1,,,,,,,,0,,,,81,75
142980,note_on,0,0,3,,,,,,,,2,,,,81,75
142980,note_on,0,0,11,,,,,,,,6,,,,81,75
142980,note_off,60,0,18,,,,,,,,11,,,,80,64
142980,note_off,60,0,3,,,,,,,,2,,,,80,64
143040,note_on,160,0,7,,,,,,,,4,,,,50,75
143040,note_on,0,0,18,,,,,,,,11,,,,80,92
143040,note_off,60,0,11,,,,,,,,6,,,,81,64
143040,note_on,0,0,11,,,,,,,,6,,,,80,75
143040,note_off,60,0,3,,,,,,,,2,,,,81,64
143040,note_on,0,0,3,,,,,,,,2,,,,80,75
143040,note_off,60,0,18,,,,,,,,11,,,,81,64
143040,note_on,160,0,21,,,,,,,,14,,,,50,75
143040,note_on,0,0,1,,,,,,,,0,,,,80,75
143040,note_on,160,0,22,,,,,,,,15,,,,38,75
143040,note_on,160,0,8,,,,,,,,4,,,,38,75
143040,note_on,160,0,16,,,,,,,,8,,,,38,75
143040,note_off,60,0,1,,,,,,,,0,,,,81,64
143100,note_on,0,0,3,,,,,,,,2,,,,81,75
143100,note_off,60,0,3,,,,,,,,2,,,,80,64
143100,note_on,0,0,11,,,,,,,,6,,,,81,75
143100,note_on,0,0,18,,,,,,,,11,,,,81,92
143100,note_off,60,0,11,,,,,,,,6,,,,80,64
143100,note_off,60,0,1,,,,,,,,0,,,,80,64
143100,note_on,0,0,1,,,,,,,,0,,,,81,75
143100,note_off,60,0,18,,,,,,,,11,,,,80,64
143120,note_off,80,0,21,,,,,,,,14,,,,50,64
143120,note_off,80,0,8,,,,,,,,4,,,,38,64
143120,note_off,80,0,7,,,,,,,,4,,,,50,64
143120,note_off,80,0,22,,,,,,,,15,,,,38,64
143120,note_off,80,0,16,,,,,,,,8,,,,38,64
143160,note_on,0,0,18,,,,,,,,11,,,,80,92
143160,note_on,0,0,3,,,,,,,,2,,,,80,75
143160,note_off,60,0,11,,,,,,,,6,,,,81,64
143160,note_on,0,0,11,,,,,,,,6,,,,80,75
143160,note_off,60,0,18,,,,,,,,11,,,,81,64
143160,note_on,0,0,1,,,,,,,,0,,,,80,75
143160,note_off,60,0,3,,,,,,,,2,,,,81,64
143160,note_off,60,0,1,,,,,,,,0,,,,81,64
143200,note_off,640,0,15,,,,,,,,7,,,,56,64
143200,note_off,640,0,2,,,,,,,,0,,,,74,64
143200,note_off,640,0,13,,,,,,,,7,,,,62,64
143200,note_off,640,0,5,,,,,,,,3,,,,71,64
143200,note_off,640,0,12,,,,,,,,6,,,,74,64
143200,note_off,640,0,19,,,,,,,,12,,,,74,64
143200,note_off,640,0,4,,,,,,,,2,,,,74,64
143200,note_off,640,0,14,,,,,,,,7,,,,59,64
143220,note_on,0,0,3,,,,,,,,2,,,,81,75
143220,note_off,60,0,18,,,,,,,,11,,,,80,64
143220,note_off,60,0,3,,,,,,,,2,,,,80,64
143220,note_off,60,0,11,,,,,,,,6,,,,80,64
143220,note_on,0,0,11,,,,,,,,6,,,,81,75
143220,note_on,0,0,18,,,,,,,,11,,,,81,92
143220,note_off,60,0,1,,,,,,,,0,,,,80,64
143220,note_on,0,0,1,,,,,,,,0,,,,81,75
143280,note_on,0,0,20,,,,,,,,13,,,,71,75
143280,note_off,720,0,20,,,,,,,,13,,,,68,64
143280,note_on,80,0,2,,,,,,,,0,,,,74,75
143280,note_on,0,0,1,,,,,,,,0,,,,81,75
143280,note_on,0,0,6,,,,,,,,3,,,,68,75
143280,note_off,720,0,6,,,,,,,,3,,,,68,64
143280,note_on,160,0,7,,,,,,,,4,,,,47,75
143280,note_off,60,0,1,,,,,,,,0,,,,81,64
143280,note_on,80,0,5,,,,,,,,3,,,,71,75
143280,note_on,80,0,19,,,,,,,,12,,,,74,75
143280,note_on,80,0,13,,,,,,,,7,,,,62,75
143280,note_on,0,0,11,,,,,,,,6,,,,81,75
143280,note_on,0,0,18,,,,,,,,11,,,,81,92
143280,note_off,60,0,18,,,,,,,,11,,,,81,64
143280,note_on,160,0,16,,,,,,,,8,,,,35,75
143280,note_off,60,0,11,,,,,,,,6,,,,81,64
143280,note_on,160,0,21,,,,,,,,14,,,,47,75
143280,note_on,160,0,22,,,,,,,,15,,,,35,75
143280,note_on,80,0,4,,,,,,,,2,,,,74,75
143280,note_on,80,0,12,,,,,,,,6,,,,74,75
143280,note_on,0,0,3,,,,,,,,2,,,,81,75
143280,note_on,80,0,14,,,,,,,,7,,,,59,75
143280,note_on,80,0,15,,,,,,,,7,,,,56,75
143280,note_on,160,0,8,,,,,,,,4,,,,35,75
143280,note_off,60,0,3,,,,,,,,2,,,,81,64
143360,note_off,80,0,7,,,,,,,,4,,,,47,64
143360,note_off,80,0,16,,,,,,,,8,,,,35,64
143360,note_off,80,0,8,,,,,,,,4,,,,35,64
143360,note_off,80,0,21,,,,,,,,14,,,,47,64
143360,note_off,80,0,22,,,,,,,,15,,,,35,64
143515,note_off,235,0,13,,,,,,,,7,,,,62,64
143515,note_off,235,0,18,,,,,,,,11,,,,81,64
143515,note_off,235,0,3,,,,,,,,2,,,,81,64
143515,note_off,235,0,5,,,,,,,,3,,,,71,64
143515,note_off,235,0,11,,,,,,,,6,,,,81,64
143515,note_off,235,0,14,,,,,,,,7,,,,59,64
143515,note_off,235,0,2,,,,,,,,0,,,,74,64
143515,note_off,235,0,12,,,,,,,,6,,,,74,64
143515,note_off,235,0,1,,,,,,,,0,,,,81,64
143515,note_off,235,0,15,,,,,,,,7,,,,56,64
143515,note_off,235,0,20,,,,,,,,13,,,,71,64
143515,note_off,235,0,4,,,,,,,,2,,,,74,64
143515,note_off,235,0,19,,,,,,,,12,,,,74,64
143515,note_off,235,0,6,,,,,,,,3,,,,68,64
143520,note_on,5,0,1,,,,,,,,0,,,,81,75
143520,note_on,5,0,15,,,,,,,,7,,,,45,75
143520,note_on,160,0,22,,,,,,,,15,,,,37,75
143520,note_on,5,0,14,,,,,,,,7,,,,57,75
143520,note_on,160,0,8,,,,,,,,4,,,,37,75
143520,note_on,5,0,12,,,,,,,,6,,,,76,75
143520,note_on,160,0,16,,,,,,,,8,,,,37,75
143520,note_on,160,0,7,,,,,,,,4,,,,49,75
143520,note_on,5,0,3,,,,,,,,2,,,,81,75
143520,note_on,5,0,11,,,,,,,,6,,,,81,75
143520,note_on,5,0,13,,,,,,,,7,,,,64,75
143520,note_on,5,0,2,,,,,,,,0,,,,76,75
143520,note_on,5,0,5,,,,,,,,3,,,,76,75
143520,note_on,5,0,19,,,,,,,,12,,,,76,75
143520,note_on,5,0,18,,,,,,,,11,,,,81,92
143520,note_on,5,0,20,,,,,,,,13,,,,73,75
143520,note_on,5,0,6,,,,,,,,3,,,,73,75
143520,note_on,160,0,21,,,,,,,,14,,,,49,75
143520,note_on,5,0,4,,,,,,,,2,,,,76,75
143600,note_off,80,0,16,,,,,,,,8,,,,37,64
143600,note_off,80,0,19,,,,,,,,12,,,,76,64
143600,note_off,80,0,22,,,,,,,,15,,,,37,64
143600,note_off,80,0,21,,,,,,,,14,,,,49,64
143600,note_off,80,0,6,,,,,,,,3,,,,73,64
143600,note_off,80,0,20,,,,,,,,13,,,,73,64
143600,note_off,80,0,7,,,,,,,,4,,,,49,64
143600,note_off,80,0,2,,,,,,,,0,,,,76,64
143600,note_off,80,0,5,,,,,,,,3,,,,76,64
143600,note_off,80,0,18,,,,,,,,11,,,,81,64
143600,note_off,80,0,4,,,,,,,,2,,,,76,64
143600,note_off,80,0,8,,,,,,,,4,,,,37,64
143760,note_on,160,0,8,,,,,,,,4,,,,45,75
143760,note_on,160,0,20,,,,,,,,13,,,,69,75
143760,note_on,160,0,19,,,,,,,,12,,,,73,75
143760,note_on,160,0,5,,,,,,,,3,,,,73,75
143760,note_on,160,0,22,,,,,,,,15,,,,33,75
143760,note_on,160,0,6,,,,,,,,3,,,,69,75
143760,note_on,160,0,16,,,,,,,,8,,,,33,75
143760,note_on,160,0,4,,,,,,,,2,,,,73,75
143760,note_on,160,0,21,,,,,,,,14,,,,45,75
143760,note_on,160,0,18,,,,,,,,11,,,,76,92
143760,note_on,160,0,2,,,,,,,,0,,,,73,75
143760,note_on,160,0,7,,,,,,,,4,,,,45,75
143840,note_off,80,0,19,,,,,,,,12,,,,73,64
143840,note_off,80,0,16,,,,,,,,8,,,,33,64
143840,note_off,80,0,6,,,,,,,,3,,,,69,64
143840,note_off,80,0,4,,,,,,,,2,,,,73,64
143840,note_off,80,0,21,,,,,,,,14,,,,45,64
143840,note_off,80,0,8,,,,,,,,4,,,,45,64
143840,note_off,80,0,20,,,,,,,,13,,,,69,64
143840,note_off,80,0,18,,,,,,,,11,,,,76,64
143840,note_off,80,0,7,,,,,,,,4,,,,45,64
143840,note_off,80,0,22,,,,,,,,15,,,,33,64
143840,note_off,80,0,2,,,,,,,,0,,,,73,64
143840,note_off,80,0,5,,,,,,,,3,,,,73,64
143920,note_off,400,0,15,,,,,,,,7,,,,45,64
144000,note_on,160,0,21,,,,,,,,14,,,,49,75
144000,note_on,160,0,5,,,,,,,,3,,,,76,75
144000,note_on,160,0,16,,,,,,,,8,,,,37,75
144000,note_on,160,0,19,,,,,,,,12,,,,76,75
144000,note_on,160,0,4,,,,,,,,2,,,,76,75
144000,note_on,160,0,20,,,,,,,,13,,,,73,75
144000,note_on,160,0,8,,,,,,,,4,,,,49,75
144000,note_on,160,0,2,,,,,,,,0,,,,76,75
144000,note_on,160,0,18,,,,,,,,11,,,,69,92
144000,note_on,160,0,6,,,,,,,,3,,,,73,75
144000,note_on,160,0,7,,,,,,,,4,,,,49,75
144000,note_on,160,0,22,,,,,,,,15,,,,37,75
144080,note_off,80,0,19,,,,,,,,12,,,,76,64
144080,note_off,80,0,20,,,,,,,,13,,,,73,64
144080,note_off,80,0,6,,,,,,,,3,,,,73,64
144080,note_off,80,0,5,,,,,,,,3,,,,76,64
144080,note_off,80,0,16,,,,,,,,8,,,,37,64
144080,note_off,80,0,4,,,,,,,,2,,,,76,64
144080,note_off,80,0,18,,,,,,,,11,,,,69,64
144080,note_off,80,0,7,,,,,,,,4,,,,49,64
144080,note_off,80,0,8,,,,,,,,4,,,,49,64
144080,note_off,80,0,22,,,,,,,,15,,,,37,64
144080,note_off,80,0,2,,,,,,,,0,,,,76,64
144080,note_off,80,0,21,,,,,,,,14,,,,49,64
144240,note_on,160,0,21,,,,,,,,14,,,,52,75
144240,note_on,160,0,22,,,,,,,,15,,,,40,75
144240,note_on,160,0,19,,,,,,,,12,,,,73,75
144240,note_on,160,0,18,,,,,,,,11,,,,73,92
144240,note_on,160,0,4,,,,,,,,2,,,,73,75
144240,note_on,160,0,8,,,,,,,,4,,,,52,75
144240,note_on,160,0,16,,,,,,,,8,,,,40,75
144240,note_on,160,0,7,,,,,,,,4,,,,52,75
144240,note_on,160,0,5,,,,,,,,3,,,,73,75
144240,note_on,160,0,6,,,,,,,,3,,,,69,75
144240,note_on,160,0,20,,,,,,,,13,,,,69,75
144240,note_on,160,0,2,,,,,,,,0,,,,73,75
144320,note_off,80,0,21,,,,,,,,14,,,,52,64
144320,note_off,80,0,6,,,,,,,,3,,,,69,64
144320,note_off,80,0,20,,,,,,,,13,,,,69,64
144320,note_off,80,0,18,,,,,,,,11,,,,73,64
144320,note_off,80,0,16,,,,,,,,8,,,,40,64
144320,note_off,80,0,2,,,,,,,,0,,,,73,64
144320,note_off,80,0,19,,,,,,,,12,,,,73,64
144320,note_off,80,0,7,,,,,,,,4,,,,52,64
144320,note_off,80,0,8,,,,,,,,4,,,,52,64
144320,note_off,80,0,5,,,,,,,,3,,,,73,64
144320,note_off,80,0,4,,,,,,,,2,,,,73,64
144320,note_off,80,0,22,,,,,,,,15,,,,40,64
144480,note_on,160,0,8,,,,,,,,4,,,,49,75
144480,note_on,160,0,6,,,,,,,,3,,,,64,75
144480,note_on,160,0,16,,,,,,,,8,,,,37,75
144480,note_on,160,0,18,,,,,,,,11,,,,76,92
144480,note_on,160,0,20,,,,,,,,13,,,,64,75
144480,note_on,160,0,5,,,,,,,,3,,,,69,75
144480,note_on,160,0,21,,,,,,,,14,,,,49,75
144480,note_on,160,0,4,,,,,,,,2,,,,69,75
144480,note_on,160,0,7,,,,,,,,4,,,,49,75
144480,note_on,160,0,22,,,,,,,,15,,,,37,75
144480,note_on,160,0,2,,,,,,,,0,,,,69,75
144480,note_on,160,0,19,,,,,,,,12,,,,69,75
144560,note_off,80,0,8,,,,,,,,4,,,,49,64
144560,note_off,80,0,22,,,,,,,,15,,,,37,64
144560,note_off,80,0,7,,,,,,,,4,,,,49,64
144560,note_off,80,0,20,,,,,,,,13,,,,64,64
144560,note_off,80,0,18,,,,,,,,11,,,,76,64
144560,note_off,80,0,4,,,,,,,,2,,,,69,64
144560,note_off,80,0,21,,,,,,,,14,,,,49,64
144560,note_off,80,0,2,,,,,,,,0,,,,69,64
144560,note_off,80,0,19,,,,,,,,12,,,,69,64
144560,note_off,80,0,16,,,,,,,,8,,,,37,64
144560,note_off,80,0,5,,,,,,,,3,,,,69,64
144560,note_off,80,0,6,,,,,,,,3,,,,64,64
144720,note_on,160,0,7,,,,,,,,4,,,,45,75
144720,note_on,160,0,5,,,,,,,,3,,,,69,75
144720,note_on,160,0,4,,,,,,,,2,,,,69,75
144720,note_on,160,0,6,,,,,,,,3,,,,64,75
144720,note_on,160,0,18,,,,,,,,11,,,,81,92
144720,note_on,160,0,22,,,,,,,,15,,,,33,75
144720,note_on,160,0,19,,,,,,,,12,,,,69,75
144720,note_on,160,0,2,,,,,,,,0,,,,69,75
144720,note_on,160,0,8,,,,,,,,4,,,,45,75
144720,note_on,160,0,20,,,,,,,,13,,,,64,75
144720,note_on,160,0,16,,,,,,,,8,,,,33,75
144720,note_on,160,0,21,,,,,,,,14,,,,45,75
144800,note_off,80,0,19,,,,,,,,12,,,,69,64
144800,note_off,80,0,6,,,,,,,,3,,,,64,64
144800,note_off,80,0,21,,,,,,,,14,,,,45,64
144800,note_off,80,0,7,,,,,,,,4,,,,45,64
144800,note_off,80,0,20,,,,,,,,13,,,,64,64
144800,note_off,80,0,2,,,,,,,,0,,,,69,64
144800,note_off,80,0,22,,,,,,,,15,,,,33,64
144800,note_off,80,0,16,,,,,,,,8,,,,33,64
144800,note_off,80,0,5,,,,,,,,3,,,,69,64
144800,note_off,80,0,8,,,,,,,,4,,,,45,64
144800,note_off,80,0,4,,,,,,,,2,,,,69,64
144800,note_off,80,0,18,,,,,,,,11,,,,81,64
144840,note_off,1320,0,12,,,,,,,,6,,,,76,64
144840,note_off,1320,0,14,,,,,,,,7,,,,57,64
144840,note_off,1320,0,13,,,,,,,,7,,,,64,64
144960,note_on,160,0,20,,,,,,,,13,,,,66,75
144960,note_on,160,0,22,,,,,,,,15,,,,38,75
144960,note_on,160,0,8,,,,,,,,4,,,,38,75
144960,note_on,5880,0,10,,,,,,,,5,,,,62,75
144960,note_on,120,0,14,,,,,,,,7,,,,62,75
144960,note_on,160,0,5,,,,,,,,3,,,,69,75
144960,note_on,160,0,19,,,,,,,,12,,,,69,75
144960,note_on,160,0,6,,,,,,,,3,,,,66,75
144960,note_on,120,0,13,,,,,,,,7,,,,66,75
144960,note_on,160,0,7,,,,,,,,4,,,,50,75
144960,note_on,160,0,16,,,,,,,,8,,,,38,75
144960,note_on,120,0,12,,,,,,,,6,,,,78,75
144960,note_on,160,0,18,,,,,,,,11,,,,78,92
144960,note_on,160,0,2,,,,,,,,0,,,,69,75
144960,note_on,160,0,4,,,,,,,,2,,,,69,75
144960,note_on,160,0,21,,,,,,,,14,,,,50,75
144960,note_on,1040,0,15,,,,,,,,7,,,,57,75
144960,note_on,5880,0,9,,,,,,,,5,,,,62,75
145040,note_off,80,0,16,,,,,,,,8,,,,38,64
145040,note_off,80,0,8,,,,,,,,4,,,,38,64
145040,note_off,80,0,22,,,,,,,,15,,,,38,64
145040,note_off,80,0,10,,,,,,,,5,,,,62,64
145040,note_off,80,0,7,,,,,,,,4,,,,50,64
145040,note_off,80,0,21,,,,,,,,14,,,,50,64
145200,note_on,160,0,21,,,,,,,,14,,,,54,75
145200,note_on,160,0,10,,,,,,,,5,,,,66,75
145200,note_on,160,0,22,,,,,,,,15,,,,42,75
145200,note_on,160,0,7,,,,,,,,4,,,,54,75
145200,note_on,160,0,16,,,,,,,,8,,,,42,75
145200,note_on,160,0,8,,,,,,,,4,,,,42,75
145280,note_off,80,0,7,,,,,,,,4,,,,54,64
145280,note_off,80,0,16,,,,,,,,8,,,,42,64
145280,note_off,80,0,22,,,,,,,,15,,,,42,64
145280,note_off,80,0,8,,,,,,,,4,,,,42,64
145280,note_off,80,0,21,,,,,,,,14,,,,54,64
145280,note_off,80,0,10,,,,,,,,5,,,,66,64
145440,note_on,160,0,21,,,,,,,,14,,,,57,75
145440,note_on,160,0,16,,,,,,,,8,,,,45,75
145440,note_on,160,0,7,,,,,,,,4,,,,57,75
145440,note_on,160,0,10,,,,,,,,5,,,,69,75
145440,note_on,160,0,22,,,,,,,,15,,,,45,75
145440,note_on,160,0,8,,,,,,,,4,,,,45,75
145520,note_off,80,0,8,,,,,,,,4,,,,45,64
145520,note_off,80,0,22,,,,,,,,15,,,,45,64
145520,note_off,80,0,7,,,,,,,,4,,,,57,64
145520,note_off,80,0,21,,,,,,,,14,,,,57,64
145520,note_off,80,0,16,,,,,,,,8,,,,45,64
145520,note_off,80,0,10,,,,,,,,5,,,,69,64
145600,note_off,640,0,13,,,,,,,,7,,,,66,64
145600,note_off,640,0,20,,,,,,,,13,,,,66,64
145600,note_off,640,0,5,,,,,,,,3,,,,69,64
145600,note_off,640,0,19,,,,,,,,12,,,,69,64
145600,note_off,640,0,4,,,,,,,,2,,,,69,64
145600,note_off,640,0,14,,,,,,,,7,,,,62,64
145600,note_off,640,0,6,,,,,,,,3,,,,66,64
145600,note_off,640,0,18,,,,,,,,11,,,,78,64
145600,note_off,640,0,15,,,,,,,,7,,,,57,64
145600,note_off,640,0,2,,,,,,,,0,,,,69,64
145600,note_off,640,0,12,,,,,,,,6,,,,78,64
145680,note_on,80,0,15,,,,,,,,7,,,,57,75
145680,note_on,160,0,7,,,,,,,,4,,,,50,75
145680,note_on,80,0,14,,,,,,,,7,,,,62,75
145680,note_on,80,0,12,,,,,,,,6,,,,69,75
145680,note_on,160,0,8,,,,,,,,4,,,,38,75
145680,note_on,80,0,18,,,,,,,,11,,,,69,92
145680,note_on,80,0,19,,,,,,,,12,,,,66,75
145680,note_on,80,0,2,,,,,,,,0,,,,66,75
145680,note_on,80,0,20,,,,,,,,13,,,,62,75
145680,note_on,80,0,5,,,,,,,,3,,,,66,75
145680,note_on,80,0,13,,,,,,,,7,,,,66,75
145680,note_on,160,0,10,,,,,,,,5,,,,62,75
145680,note_on,160,0,22,,,,,,,,15,,,,38,75
145680,note_on,80,0,6,,,,,,,,3,,,,62,75
145680,note_on,160,0,21,,,,,,,,14,,,,50,75
145680,note_on,160,0,16,,,,,,,,8,,,,38,75
145680,note_on,80,0,4,,,,,,,,2,,,,66,75
145760,note_off,80,0,4,,,,,,,,2,,,,66,64
145760,note_off,80,0,7,,,,,,,,4,,,,50,64
145760,note_off,80,0,21,,,,,,,,14,,,,50,64
145760,note_off,80,0,14,,,,,,,,7,,,,62,64
145760,note_off,80,0,12,,,,,,,,6,,,,69,64
145760,note_off,80,0,8,,,,,,,,4,,,,38,64
145760,note_off,80,0,16,,,,,,,,8,,,,38,64
145760,note_off,80,0,19,,,,,,,,12,,,,66,64
145760,note_off,80,0,20,,,,,,,,13,,,,62,64
145760,note_off,80,0,2,,,,,,,,0,,,,66,64
145760,note_off,80,0,18,,,,,,,,11,,,,69,64
145760,note_off,80,0,15,,,,,,,,7,,,,57,64
145760,note_off,80,0,10,,,,,,,,5,,,,62,64
145760,note_off,80,0,22,,,,,,,,15,,,,38,64
145760,note_off,80,0,13,,,,,,,,7,,,,66,64
145760,note_off,80,0,6,,,,,,,,3,,,,62,64
145760,note_off,80,0,5,,,,,,,,3,,,,66,64
145920,note_on,160,0,7,,,,,,,,4,,,,54,75
145920,note_on,160,0,4,,,,,,,,2,,,,69,75
145920,note_on,160,0,14,,,,,,,,7,,,,62,75
145920,note_on,160,0,10,,,,,,,,5,,,,66,75
145920,note_on,160,0,20,,,,,,,,13,,,,66,75
145920,note_on,160,0,18,,,,,,,,11,,,,74,92
145920,note_on,160,0,12,,,,,,,,6,,,,74,75
145920,note_on,160,0,13,,,,,,,,7,,,,66,75
145920,note_on,160,0,19,,,,,,,,12,,,,69,75
145920,note_on,160,0,2,,,,,,,,0,,,,69,75
145920,note_on,160,0,16,,,,,,,,8,,,,42,75
145920,note_on,160,0,8,,,,,,,,4,,,,42,75
145920,note_on,160,0,6,,,,,,,,3,,,,66,75
145920,note_on,160,0,21,,,,,,,,14,,,,54,75
145920,note_on,160,0,15,,,,,,,,7,,,,57,75
145920,note_on,160,0,5,,,,,,,,3,,,,69,75
145920,note_on,160,0,22,,,,,,,,15,,,,42,75
146000,note_off,80,0,13,,,,,,,,7,,,,66,64
146000,note_off,80,0,2,,,,,,,,0,,,,69,64
146000,note_off,80,0,12,,,,,,,,6,,,,74,64
146000,note_off,80,0,4,,,,,,,,2,,,,69,64
146000,note_off,80,0,22,,,,,,,,15,,,,42,64
146000,note_off,80,0,7,,,,,,,,4,,,,54,64
146000,note_off,80,0,18,,,,,,,,11,,,,74,64
146000,note_off,80,0,15,,,,,,,,7,,,,57,64
146000,note_off,80,0,8,,,,,,,,4,,,,42,64
146000,note_off,80,0,6,,,,,,,,3,,,,66,64
146000,note_off,80,0,10,,,,,,,,5,,,,66,64
146000,note_off,80,0,16,,,,,,,,8,,,,42,64
146000,note_off,80,0,5,,,,,,,,3,,,,69,64
146000,note_off,80,0,20,,,,,,,,13,,,,66,64
146000,note_off,80,0,21,,,,,,,,14,,,,54,64
146000,note_off,80,0,19,,,,,,,,12,,,,69,64
146000,note_off,80,0,14,,,,,,,,7,,,,62,64
146160,note_on,160,0,15,,,,,,,,7,,,,57,75
146160,note_on,160,0,4,,,,,,,,2,,,,74,75
146160,note_on,160,0,20,,,,,,,,13,,,,69,75
146160,note_on,160,0,12,,,,,,,,6,,,,78,75
146160,note_on,160,0,13,,,,,,,,7,,,,66,75
146160,note_on,160,0,19,,,,,,,,12,,,,74,75
146160,note_on,160,0,18,,,,,,,,11,,,,78,92
146160,note_on,160,0,8,,,,,,,,4,,,,45,75
146160,note_on,160,0,16,,,,,,,,8,,,,45,75
146160,note_on,160,0,22,,,,,,,,15,,,,45,75
146160,note_on,160,0,7,,,,,,,,4,,,,57,75
146160,note_on,160,0,6,,,,,,,,3,,,,69,75
146160,note_on,160,0,10,,,,,,,,5,,,,69,75
146160,note_on,160,0,5,,,,,,,,3,,,,74,75
146160,note_on,160,0,21,,,,,,,,14,,,,57,75
146160,note_on,160,0,14,,,,,,,,7,,,,62,75
146160,note_on,160,0,2,,,,,,,,0,,,,74,75
146240,note_off,80,0,18,,,,,,,,11,,,,78,64
146240,note_off,80,0,15,,,,,,,,7,,,,57,64
146240,note_off,80,0,2,,,,,,,,0,,,,74,64
146240,note_off,80,0,19,,,,,,,,12,,,,74,64
146240,note_off,80,0,20,,,,,,,,13,,,,69,64
146240,note_off,80,0,6,,,,,,,,3,,,,69,64
146240,note_off,80,0,22,,,,,,,,15,,,,45,64
146240,note_off,80,0,14,,,,,,,,7,,,,62,64
146240,note_off,80,0,21,,,,,,,,14,,,,57,64
146240,note_off,80,0,16,,,,,,,,8,,,,45,64
146240,note_off,80,0,7,,,,,,,,4,,,,57,64
146240,note_off,80,0,4,,,,,,,,2,,,,74,64
146240,note_off,80,0,10,,,,,,,,5,,,,69,64
146240,note_off,80,0,5,,,,,,,,3,,,,74,64
146240,note_off,80,0,12,,,,,,,,6,,,,78,64
146240,note_off,80,0,8,,,,,,,,4,,,,45,64
146240,note_off,80,0,13,,,,,,,,7,,,,66,64
146280,note_off,2760,0,3,,,,,,,,2,,,,81,64
146280,note_off,1320,0,9,,,,,,,,5,,,,62,64
146280,note_off,2760,0,1,,,,,,,,0,,,,81,64
146280,note_off,2760,0,11,,,,,,,,6,,,,81,64
146400,note_on,160,0,4,,,,,,,,2,,,,69,75
146400,note_on,160,0,5,,,,,,,,3,,,,69,75
146400,note_on,160,0,22,,,,,,,,15,,,,37,75
146400,note_on,160,0,8,,,,,,,,4,,,,37,75
146400,note_on,160,0,20,,,,,,,,13,,,,66,75
146400,note_on,160,0,14,,,,,,,,7,,,,61,75
146400,note_on,160,0,21,,,,,,,,14,,,,49,75
146400,note_on,160,0,16,,,,,,,,8,,,,37,75
146400,note_on,160,0,12,,,,,,,,6,,,,76,75
146400,note_on,160,0,6,,,,,,,,3,,,,64,75
146400,note_on,160,0,7,,,,,,,,4,,,,49,75
146400,note_on,120,0,11,,,,,,,,6,,,,81,75
146400,note_on,160,0,18,,,,,,,,11,,,,76,92
146400,note_on,160,0,15,,,,,,,,7,,,,57,75
146400,note_on,120,0,3,,,,,,,,2,,,,81,75
146400,note_on,160,0,19,,,,,,,,12,,,,69,75
146400,note_on,120,0,9,,,,,,,,5,,,,64,75
146400,note_on,160,0,2,,,,,,,,0,,,,69,75
146400,note_on,120,0,1,,,,,,,,0,,,,81,75
146400,note_on,160,0,13,,,,,,,,7,,,,64,75
146400,note_on,160,0,10,,,,,,,,5,,,,64,75
146480,note_off,80,0,19,,,,,,,,12,,,,69,64
146480,note_off,80,0,21,,,,,,,,14,,,,49,64
146480,note_off,80,0,20,,,,,,,,13,,,,66,64
146480,note_off,80,0,7,,,,,,,,4,,,,49,64
146480,note_off,80,0,8,,,,,,,,4,,,,37,64
146480,note_off,80,0,16,,,,,,,,8,,,,37,64
146480,note_off,80,0,22,,,,,,,,15,,,,37,64
146480,note_off,80,0,6,,,,,,,,3,,,,64,64
146480,note_off,80,0,5,,,,,,,,3,,,,69,64
146480,note_off,80,0,4,,,,,,,,2,,,,69,64
146480,note_off,80,0,2,,,,,,,,0,,,,69,64
146640,note_on,160,0,21,,,,,,,,14,,,,52,75
146640,note_on,160,0,4,,,,,,,,2,,,,73,75
146640,note_on,160,0,7,,,,,,,,4,,,,52,75
146640,note_on,160,0,16,,,,,,,,8,,,,40,75
146640,note_on,160,0,6,,,,,,,,3,,,,69,75
146640,note_on,160,0,19,,,,,,,,12,,,,73,75
146640,note_on,160,0,2,,,,,,,,0,,,,73,75
146640,note_on,160,0,22,,,,,,,,15,,,,40,75
146640,note_on,160,0,8,,,,,,,,4,,,,40,75
146640,note_on,160,0,20,,,,,,,,13,,,,69,75
146640,note_on,160,0,5,,,,,,,,3,,,,73,75
146720,note_off,80,0,21,,,,,,,,14,,,,52,64
146720,note_off,80,0,22,,,,,,,,15,,,,40,64
146720,note_off,80,0,4,,,,,,,,2,,,,73,64
146720,note_off,80,0,6,,,,,,,,3,,,,69,64
146720,note_off,80,0,20,,,,,,,,13,,,,69,64
146720,note_off,80,0,5,,,,,,,,3,,,,73,64
146720,note_off,80,0,19,,,,,,,,12,,,,73,64
146720,note_off,80,0,7,,,,,,,,4,,,,52,64
146720,note_off,80,0,8,,,,,,,,4,,,,40,64
146720,note_off,80,0,2,,,,,,,,0,,,,73,64
146720,note_off,80,0,16,,,,,,,,8,,,,40,64
146800,note_off,400,0,10,,,,,,,,5,,,,64,64
146880,note_on,160,0,6,,,,,,,,3,,,,69,75
146880,note_on,160,0,5,,,,,,,,3,,,,73,75
146880,note_on,160,0,16,,,,,,,,8,,,,45,75
146880,note_on,160,0,2,,,,,,,,0,,,,73,75
146880,note_on,160,0,22,,,,,,,,15,,,,45,75
146880,note_on,160,0,8,,,,,,,,4,,,,45,75
146880,note_on,160,0,21,,,,,,,,14,,,,57,75
146880,note_on,160,0,19,,,,,,,,12,,,,73,75
146880,note_on,80,0,10,,,,,,,,5,,,,57,75
146880,note_on,160,0,20,,,,,,,,13,,,,69,75
146880,note_on,160,0,7,,,,,,,,4,,,,57,75
146880,note_on,160,0,4,,,,,,,,2,,,,73,75
146960,note_off,80,0,16,,,,,,,,8,,,,45,64
146960,note_off,80,0,8,,,,,,,,4,,,,45,64
146960,note_off,80,0,7,,,,,,,,4,,,,57,64
146960,note_off,80,0,22,,,,,,,,15,,,,45,64
146960,note_off,80,0,21,,,,,,,,14,,,,57,64
147000,note_off,120,0,6,,,,,,,,3,,,,69,64
147000,note_off,120,0,20,,,,,,,,13,,,,69,64
147040,note_off,640,0,14,,,,,,,,7,,,,61,64
147040,note_off,640,0,13,,,,,,,,7,,,,64,64
147040,note_off,640,0,15,,,,,,,,7,,,,57,64
147040,note_off,640,0,18,,,,,,,,11,,,,76,64
147040,note_off,640,0,12,,,,,,,,6,,,,76,64
147120,note_on,160,0,7,,,,,,,,4,,,,49,75
147120,note_on,80,0,13,,,,,,,,7,,,,64,75
147120,note_on,160,0,21,,,,,,,,14,,,,49,75
147120,note_on,80,0,14,,,,,,,,7,,,,61,75
147120,note_on,160,0,16,,,,,,,,8,,,,37,75
147120,note_on,80,0,12,,,,,,,,6,,,,69,75
147120,note_on,80,0,15,,,,,,,,7,,,,57,75
147120,note_on,80,0,18,,,,,,,,11,,,,69,92
147120,note_on,160,0,22,,,,,,,,15,,,,37,75
147120,note_on,160,0,8,,,,,,,,4,,,,37,75
147200,note_off,80,0,12,,,,,,,,6,,,,69,64
147200,note_off,80,0,14,,,,,,,,7,,,,61,64
147200,note_off,80,0,18,,,,,,,,11,,,,69,64
147200,note_off,80,0,21,,,,,,,,14,,,,49,64
147200,note_off,80,0,15,,,,,,,,7,,,,57,64
147200,note_off,80,0,7,,,,,,,,4,,,,49,64
147200,note_off,80,0,22,,,,,,,,15,,,,37,64
147200,note_off,80,0,8,,,,,,,,4,,,,37,64
147200,note_off,80,0,13,,,,,,,,7,,,,64,64
147200,note_off,80,0,16,,,,,,,,8,,,,37,64
147280,note_off,400,0,19,,,,,,,,12,,,,73,64
147280,note_off,400,0,2,,,,,,,,0,,,,73,64
147280,note_off,400,0,5,,,,,,,,3,,,,73,64
147280,note_off,400,0,4,,,,,,,,2,,,,73,64
147360,note_on,80,0,4,,,,,,,,2,,,,76,75
147360,note_on,160,0,13,,,,,,,,7,,,,64,75
147360,note_on,360,0,20,,,,,,,,13,,,,73,75
147360,note_on,80,0,19,,,,,,,,12,,,,76,75
147360,note_on,80,0,2,,,,,,,,0,,,,76,75
147360,note_on,160,0,16,,,,,,,,8,,,,40,75
147360,note_on,160,0,14,,,,,,,,7,,,,61,75
147360,note_on,160,0,7,,,,,,,,4,,,,52,75
147360,note_on,160,0,8,,,,,,,,4,,,,40,75
147360,note_on,160,0,22,,,,,,,,15,,,,40,75
147360,note_on,160,0,12,,,,,,,,6,,,,79,75
147360,note_on,160,0,15,,,,,,,,7,,,,57,75
147360,note_on,160,0,18,,,,,,,,11,,,,79,92
147360,note_on,80,0,5,,,,,,,,3,,,,76,75
147360,note_on,360,0,6,,,,,,,,3,,,,73,75
147360,note_on,160,0,21,,,,,,,,14,,,,52,75
147440,note_off,80,0,14,,,,,,,,7,,,,61,64
147440,note_off,80,0,4,,,,,,,,2,,,,76,64
147440,note_off,80,0,18,,,,,,,,11,,,,79,64
147440,note_off,80,0,12,,,,,,,,6,,,,79,64
147440,note_off,80,0,13,,,,,,,,7,,,,64,64
147440,note_off,80,0,20,,,,,,,,13,,,,73,64
147440,note_off,80,0,5,,,,,,,,3,,,,76,64
147440,note_off,80,0,21,,,,,,,,14,,,,52,64
147440,note_off,80,0,2,,,,,,,,0,,,,76,64
147440,note_off,80,0,15,,,,,,,,7,,,,57,64
147440,note_off,80,0,16,,,,,,,,8,,,,40,64
147440,note_off,80,0,22,,,,,,,,15,,,,40,64
147440,note_off,80,0,8,,,,,,,,4,,,,40,64
147440,note_off,80,0,19,,,,,,,,12,,,,76,64
147440,note_off,80,0,6,,,,,,,,3,,,,73,64
147440,note_off,80,0,7,,,,,,,,4,,,,52,64
147600,note_on,160,0,8,,,,,,,,4,,,,45,75
147600,note_on,160,0,18,,,,,,,,11,,,,76,92
147600,note_on,160,0,4,,,,,,,,2,,,,73,75
147600,note_on,160,0,14,,,,,,,,7,,,,61,75
147600,note_on,160,0,5,,,,,,,,3,,,,73,75
147600,note_on,160,0,16,,,,,,,,8,,,,45,75
147600,note_on,160,0,20,,,,,,,,13,,,,69,75
147600,note_on,160,0,21,,,,,,,,14,,,,57,75
147600,note_on,160,0,13,,,,,,,,7,,,,64,75
147600,note_on,160,0,2,,,,,,,,0,,,,73,75
147600,note_on,160,0,19,,,,,,,,12,,,,73,75
147600,note_on,160,0,6,,,,,,,,3,,,,69,75
147600,note_on,160,0,22,,,,,,,,15,,,,45,75
147600,note_on,160,0,15,,,,,,,,7,,,,57,75
147600,note_on,160,0,7,,,,,,,,4,,,,57,75
147600,note_on,160,0,12,,,,,,,,6,,,,76,75
147680,note_off,80,0,6,,,,,,,,3,,,,69,64
147680,note_off,80,0,12,,,,,,,,6,,,,76,64
147680,note_off,80,0,20,,,,,,,,13,,,,69,64
147680,note_off,80,0,7,,,,,,,,4,,,,57,64
147680,note_off,80,0,22,,,,,,,,15,,,,45,64
147680,note_off,80,0,5,,,,,,,,3,,,,73,64
147680,note_off,80,0,18,,,,,,,,11,,,,76,64
147680,note_off,80,0,14,,,,,,,,7,,,,61,64
147680,note_off,80,0,8,,,,,,,,4,,,,45,64
147680,note_off,80,0,21,,,,,,,,14,,,,57,64
147680,note_off,80,0,15,,,,,,,,7,,,,57,64
147680,note_off,80,0,4,,,,,,,,2,,,,73,64
147680,note_off,80,0,2,,,,,,,,0,,,,73,64
147680,note_off,80,0,16,,,,,,,,8,,,,45,64
147680,note_off,80,0,19,,,,,,,,12,,,,73,64
147680,note_off,80,0,13,,,,,,,,7,,,,64,64
147720,note_off,1320,0,11,,,,,,,,6,,,,81,64
147720,note_off,1320,0,9,,,,,,,,5,,,,64,64
147720,note_off,840,0,10,,,,,,,,5,,,,57,64
147840,note_on,160,0,20,,,,,,,,13,,,,71,75
147840,note_on,160,0,7,,,,,,,,4,,,,47,75
147840,note_on,120,0,10,,,,,,,,5,,,,57,75
147840,note_on,160,0,5,,,,,,,,3,,,,74,75
147840,note_on,120,0,11,,,,,,,,6,,,,81,75
147840,note_on,160,0,2,,,,,,,,0,,,,74,75
147840,note_on,160,0,18,,,,,,,,11,,,,78,92
147840,note_on,160,0,16,,,,,,,,8,,,,35,75
147840,note_on,160,0,4,,,,,,,,2,,,,74,75
147840,note_on,160,0,12,,,,,,,,6,,,,78,75
147840,note_on,160,0,21,,,,,,,,14,,,,47,75
147840,note_on,160,0,13,,,,,,,,7,,,,66,75
147840,note_on,160,0,22,,,,,,,,15,,,,35,75
147840,note_on,160,0,19,,,,,,,,12,,,,74,75
147840,note_on,160,0,8,,,,,,,,4,,,,35,75
147840,note_on,160,0,6,,,,,,,,3,,,,69,75
147840,note_on,160,0,15,,,,,,,,7,,,,59,75
147840,note_on,160,0,14,,,,,,,,7,,,,62,75
147840,note_on,120,0,9,,,,,,,,5,,,,66,75
147920,note_off,80,0,22,,,,,,,,15,,,,35,64
147920,note_off,80,0,21,,,,,,,,14,,,,47,64
147920,note_off,80,0,7,,,,,,,,4,,,,47,64
147920,note_off,80,0,8,,,,,,,,4,,,,35,64
147920,note_off,80,0,16,,,,,,,,8,,,,35,64
148080,note_on,160,0,7,,,,,,,,4,,,,50,75
148080,note_on,160,0,8,,,,,,,,4,,,,38,75
148080,note_on,160,0,22,,,,,,,,15,,,,38,75
148080,note_on,160,0,21,,,,,,,,14,,,,50,75
148080,note_on,160,0,16,,,,,,,,8,,,,38,75
148160,note_off,80,0,8,,,,,,,,4,,,,38,64
148160,note_off,80,0,22,,,,,,,,15,,,,38,64
148160,note_off,80,0,16,,,,,,,,8,,,,38,64
148160,note_off,80,0,21,,,,,,,,14,,,,50,64
148160,note_off,80,0,7,,,,,,,,4,,,,50,64
148240,note_off,400,0,18,,,,,,,,11,,,,78,64
148240,note_off,400,0,13,,,,,,,,7,,,,66,64
148240,note_off,400,0,5,,,,,,,,3,,,,74,64
148240,note_off,400,0,20,,,,,,,,13,,,,71,64
148240,note_off,400,0,15,,,,,,,,7,,,,59,64
148240,note_off,400,0,2,,,,,,,,0,,,,74,64
148240,note_off,400,0,4,,,,,,,,2,,,,74,64
148240,note_off,400,0,19,,,,,,,,12,,,,74,64
148240,note_off,400,0,12,,,,,,,,6,,,,78,64
148240,note_off,400,0,6,,,,,,,,3,,,,69,64
148240,note_off,400,0,11,,,,,,,,6,,,,81,64
148240,note_off,400,0,14,,,,,,,,7,,,,62,64
148240,note_off,400,0,10,,,,,,,,5,,,,57,64
148240,note_off,400,0,9,,,,,,,,5,,,,66,64
148320,note_on,80,0,5,,,,,,,,3,,,,71,75
148320,note_on,80,0,2,,,,,,,,0,,,,74,75
148320,note_on,80,0,15,,,,,,,,7,,,,56,75
148320,note_on,0,0,3,,,,,,,,2,,,,80,75
148320,note_off,1920,0,3,,,,,,,,2,,,,81,64
148320,note_on,160,0,22,,,,,,,,15,,,,44,75
148320,note_on,80,0,6,,,,,,,,3,,,,68,75
148320,note_on,80,0,19,,,,,,,,12,,,,74,75
148320,note_on,160,0,7,,,,,,,,4,,,,56,75
148320,note_on,160,0,16,,,,,,,,8,,,,44,75
148320,note_on,160,0,8,,,,,,,,4,,,,44,75
148320,note_on,80,0,9,,,,,,,,5,,,,68,75
148320,note_on,80,0,14,,,,,,,,7,,,,59,75
148320,note_on,80,0,20,,,,,,,,13,,,,71,75
148320,note_on,80,0,13,,,,,,,,7,,,,62,75
148320,note_on,80,0,11,,,,,,,,6,,,,80,75
148320,note_on,80,0,10,,,,,,,,5,,,,62,75
148320,note_on,0,0,1,,,,,,,,0,,,,80,75
148320,note_on,160,0,21,,,,,,,,14,,,,56,75
148320,note_on,80,0,4,,,,,,,,2,,,,74,75
148320,note_on,80,0,12,,,,,,,,6,,,,74,75
148320,note_on,80,0,18,,,,,,,,11,,,,80,92
148320,note_off,1920,0,1,,,,,,,,0,,,,81,64
148380,note_off,60,0,18,,,,,,,,11,,,,80,64
148380,note_on,0,0,18,,,,,,,,11,,,,81,92
148400,note_off,80,0,21,,,,,,,,14,,,,56,64
148400,note_off,80,0,22,,,,,,,,15,,,,44,64
148400,note_off,80,0,8,,,,,,,,4,,,,44,64
148400,note_off,80,0,16,,,,,,,,8,,,,44,64
148400,note_off,80,0,7,,,,,,,,4,,,,56,64
148440,note_on,0,0,18,,,,,,,,11,,,,80,92
148440,note_off,60,0,18,,,,,,,,11,,,,81,64
148500,note_off,60,0,18,,,,,,,,11,,,,80,64
148500,note_on,0,0,18,,,,,,,,11,,,,81,92
148560,note_on,160,0,16,,,,,,,,8,,,,35,75
148560,note_off,60,0,18,,,,,,,,11,,,,81,64
148560,note_on,0,0,18,,,,,,,,11,,,,80,92
148560,note_on,160,0,22,,,,,,,,15,,,,35,75
148560,note_on,160,0,8,,,,,,,,4,,,,47,75
148560,note_on,160,0,21,,,,,,,,14,,,,47,75
148560,note_on,160,0,7,,,,,,,,4,,,,47,75
148620,note_off,60,0,18,,,,,,,,11,,,,80,64
148620,note_on,0,0,18,,,,,,,,11,,,,81,92
148640,note_off,80,0,21,,,,,,,,14,,,,47,64
148640,note_off,80,0,22,,,,,,,,15,,,,35,64
148640,note_off,80,0,8,,,,,,,,4,,,,47,64
148640,note_off,80,0,7,,,,,,,,4,,,,47,64
148640,note_off,80,0,16,,,,,,,,8,,,,35,64
148680,note_off,60,0,18,,,,,,,,11,,,,81,64
148680,note_on,0,0,18,,,,,,,,11,,,,80,92
148740,note_off,60,0,18,,,,,,,,11,,,,80,64
148740,note_on,0,0,18,,,,,,,,11,,,,81,92
148800,note_on,160,0,7,,,,,,,,4,,,,50,75
148800,note_on,160,0,21,,,,,,,,14,,,,50,75
148800,note_on,160,0,8,,,,,,,,4,,,,50,75
148800,note_off,60,0,18,,,,,,,,11,,,,81,64
148800,note_on,0,0,18,,,,,,,,11,,,,80,92
148800,note_on,160,0,16,,,,,,,,8,,,,38,75
148800,note_on,160,0,22,,,,,,,,15,,,,38,75
148860,note_off,60,0,18,,,,,,,,11,,,,80,64
148860,note_on,0,0,18,,,,,,,,11,,,,81,92
148880,note_off,80,0,22,,,,,,,,15,,,,38,64
148880,note_off,80,0,16,,,,,,,,8,,,,38,64
148880,note_off,80,0,7,,,,,,,,4,,,,50,64
148880,note_off,80,0,21,,,,,,,,14,,,,50,64
148880,note_off,80,0,8,,,,,,,,4,,,,50,64
148920,note_on,0,0,18,,,,,,,,11,,,,80,92
148920,note_off,60,0,18,,,,,,,,11,,,,81,64
148960,note_off,640,0,14,,,,,,,,7,,,,59,64
148960,note_off,640,0,12,,,,,,,,6,,,,74,64
148960,note_off,640,0,15,,,,,,,,7,,,,56,64
148960,note_off,640,0,19,,,,,,,,12,,,,74,64
148960,note_off,640,0,13,,,,,,,,7,,,,62,64
148960,note_off,640,0,10,,,,,,,,5,,,,62,64
148960,note_off,640,0,20,,,,,,,,13,,,,71,64
148980,note_on,0,0,18,,,,,,,,11,,,,81,92
148980,note_off,60,0,18,,,,,,,,11,,,,80,64
149040,note_on,160,0,21,,,,,,,,14,,,,47,75
149040,note_on,80,0,10,,,,,,,,5,,,,62,75
149040,note_on,80,0,15,,,,,,,,7,,,,56,75
149040,note_on,80,0,12,,,,,,,,6,,,,74,75
149040,note_off,720,0,6,,,,,,,,3,,,,68,64
149040,note_on,0,0,4,,,,,,,,2,,,,74,75
149040,note_on,160,0,8,,,,,,,,4,,,,47,75
149040,note_off,720,0,4,,,,,,,,2,,,,74,64
149040,note_on,0,0,18,,,,,,,,11,,,,80,92
149040,note_on,80,0,19,,,,,,,,12,,,,74,75
149040,note_off,60,0,18,,,,,,,,11,,,,81,64
149040,note_on,160,0,16,,,,,,,,8,,,,35,75
149040,note_on,160,0,22,,,,,,,,15,,,,35,75
149040,note_on,0,0,6,,,,,,,,3,,,,68,75
149040,note_on,80,0,13,,,,,,,,7,,,,62,75
149040,note_on,80,0,20,,,,,,,,13,,,,71,75
149040,note_on,160,0,7,,,,,,,,4,,,,47,75
149040,note_on,80,0,14,,,,,,,,7,,,,59,75
149040,note_on,0,0,5,,,,,,,,3,,,,74,75
149040,note_off,720,0,5,,,,,,,,3,,,,71,64
149040,note_off,720,0,2,,,,,,,,0,,,,74,64
149040,note_on,0,0,2,,,,,,,,0,,,,74,75
149120,note_off,80,0,22,,,,,,,,15,,,,35,64
149120,note_off,80,0,7,,,,,,,,4,,,,47,64
149120,note_off,80,0,16,,,,,,,,8,,,,35,64
149120,note_off,80,0,8,,,,,,,,4,,,,47,64
149120,note_off,80,0,21,,,,,,,,14,,,,47,64
149160,note_off,840,0,9,,,,,,,,5,,,,68,64
149160,note_off,840,0,11,,,,,,,,6,,,,80,64
149160,note_off,840,0,3,,,,,,,,2,,,,80,64
149160,note_off,840,0,1,,,,,,,,0,,,,80,64
149275,note_off,235,0,18,,,,,,,,11,,,,80,64
149275,note_off,235,0,2,,,,,,,,0,,,,74,64
149275,note_off,235,0,10,,,,,,,,5,,,,62,64
149275,note_off,235,0,4,,,,,,,,2,,,,74,64
149275,note_off,235,0,19,,,,,,,,12,,,,74,64
149275,note_off,235,0,6,,,,,,,,3,,,,68,64
149275,note_off,235,0,13,,,,,,,,7,,,,62,64
149275,note_off,235,0,14,,,,,,,,7,,,,59,64
149275,note_off,235,0,5,,,,,,,,3,,,,74,64
149275,note_off,235,0,20,,,,,,,,13,,,,71,64
149275,note_off,235,0,15,,,,,,,,7,,,,56,64
149275,note_off,235,0,12,,,,,,,,6,,,,74,64
149280,note_on,5,0,19,,,,,,,,12,,,,76,75
149280,note_on,160,0,8,,,,,,,,4,,,,49,75
149280,note_on,5,0,14,,,,,,,,7,,,,61,75
149280,note_on,5,0,4,,,,,,,,2,,,,76,75
149280,note_on,120,0,3,,,,,,,,2,,,,81,75
149280,note_on,5,0,10,,,,,,,,5,,,,64,75
149280,note_on,5,0,2,,,,,,,,0,,,,76,75
149280,note_on,160,0,7,,,,,,,,4,,,,49,75
149280,note_on,160,0,16,,,,,,,,8,,,,37,75
149280,note_on,5,0,12,,,,,,,,6,,,,76,75
149280,note_on,120,0,9,,,,,,,,5,,,,69,75
149280,note_on,5,0,13,,,,,,,,7,,,,64,75
149280,note_on,5,0,20,,,,,,,,13,,,,73,75
149280,note_on,160,0,21,,,,,,,,14,,,,49,75
149280,note_on,5,0,6,,,,,,,,3,,,,69,75
149280,note_on,120,0,1,,,,,,,,0,,,,81,75
149280,note_on,5,0,5,,,,,,,,3,,,,76,75
149280,note_on,5,0,15,,,,,,,,7,,,,57,75
149280,note_on,5,0,18,,,,,,,,11,,,,81,92
149280,note_on,160,0,22,,,,,,,,15,,,,37,75
149280,note_on,120,0,11,,,,,,,,6,,,,81,75
149360,note_off,80,0,19,,,,,,,,12,,,,76,64
149360,note_off,80,0,18,,,,,,,,11,,,,81,64
149360,note_off,80,0,12,,,,,,,,6,,,,76,64
149360,note_off,80,0,6,,,,,,,,3,,,,69,64
149360,note_off,80,0,20,,,,,,,,13,,,,73,64
149360,note_off,80,0,10,,,,,,,,5,,,,64,64
149360,note_off,80,0,5,,,,,,,,3,,,,76,64
149360,note_off,80,0,11,,,,,,,,6,,,,81,64
149360,note_off,80,0,3,,,,,,,,2,,,,81,64
149360,note_off,80,0,2,,,,,,,,0,,,,76,64
149360,note_off,80,0,1,,,,,,,,0,,,,81,64
149360,note_off,80,0,4,,,,,,,,2,,,,76,64
149360,note_off,80,0,9,,,,,,,,5,,,,69,64
149520,note_on,160,0,11,,,,,,,,6,,,,76,75
149520,note_on,160,0,3,,,,,,,,2,,,,76,75
149520,note_on,160,0,5,,,,,,,,3,,,,73,75
149520,note_on,160,0,6,,,,,,,,3,,,,64,75
149520,note_on,160,0,19,,,,,,,,12,,,,73,75
149520,note_on,160,0,4,,,,,,,,2,,,,73,75
149520,note_on,160,0,10,,,,,,,,5,,,,61,75
149520,note_on,160,0,20,,,,,,,,13,,,,69,75
149520,note_on,160,0,18,,,,,,,,11,,,,76,92
149520,note_on,160,0,1,,,,,,,,0,,,,76,75
149520,note_on,160,0,12,,,,,,,,6,,,,73,75
149520,note_on,160,0,9,,,,,,,,5,,,,64,75
149520,note_on,160,0,2,,,,,,,,0,,,,73,75
149600,note_off,80,0,5,,,,,,,,3,,,,73,64
149600,note_off,80,0,18,,,,,,,,11,,,,76,64
149600,note_off,80,0,3,,,,,,,,2,,,,76,64
149600,note_off,80,0,19,,,,,,,,12,,,,73,64
149600,note_off,80,0,4,,,,,,,,2,,,,73,64
149600,note_off,80,0,20,,,,,,,,13,,,,69,64
149600,note_off,80,0,10,,,,,,,,5,,,,61,64
149600,note_off,80,0,9,,,,,,,,5,,,,64,64
149600,note_off,80,0,12,,,,,,,,6,,,,73,64
149600,note_off,80,0,1,,,,,,,,0,,,,76,64
149600,note_off,80,0,2,,,,,,,,0,,,,73,64
149600,note_off,80,0,11,,,,,,,,6,,,,76,64
149600,note_off,80,0,6,,,,,,,,3,,,,64,64
149680,note_off,400,0,8,,,,,,,,4,,,,49,64
149680,note_off,400,0,16,,,,,,,,8,,,,37,64
149680,note_off,400,0,13,,,,,,,,7,,,,64,64
149680,note_off,400,0,15,,,,,,,,7,,,,57,64
149680,note_off,400,0,22,,,,,,,,15,,,,37,64
149680,note_off,400,0,14,,,,,,,,7,,,,61,64
149680,note_off,400,0,7,,,,,,,,4,,,,49,64
149680,note_off,400,0,21,,,,,,,,14,,,,49,64
149760,note_on,80,0,7,,,,,,,,4,,,,45,75
149760,note_on,160,0,19,,,,,,,,12,,,,73,75
149760,note_on,160,0,9,,,,,,,,5,,,,64,75
149760,note_on,160,0,4,,,,,,,,2,,,,73,75
149760,note_on,160,0,6,,,,,,,,3,,,,64,75
149760,note_on,160,0,5,,,,,,,,3,,,,73,75
149760,note_on,80,0,8,,,,,,,,4,,,,45,75
149760,note_on,160,0,1,,,,,,,,0,,,,76,75
149760,note_on,80,0,22,,,,,,,,15,,,,33,75
149760,note_on,160,0,20,,,,,,,,13,,,,69,75
149760,note_on,160,0,12,,,,,,,,6,,,,73,75
149760,note_on,160,0,18,,,,,,,,11,,,,76,92
149760,note_on,80,0,21,,,,,,,,14,,,,45,75
149760,note_on,160,0,11,,,,,,,,6,,,,76,75
149760,note_on,160,0,10,,,,,,,,5,,,,61,75
149760,note_on,160,0,2,,,,,,,,0,,,,73,75
149760,note_on,80,0,16,,,,,,,,8,,,,33,75
149760,note_on,160,0,3,,,,,,,,2,,,,76,75
149840,note_off,80,0,20,,,,,,,,13,,,,69,64
149840,note_off,80,0,6,,,,,,,,3,,,,64,64
149845,note_off,85,0,10,,,,,,,,5,,,,61,64
149845,note_off,85,0,9,,,,,,,,5,,,,64,64
149880,note_off,120,0,18,,,,,,,,11,,,,76,64
149880,note_on,0,0,18,,,,,,,,11,,,,78,92
149880,note_on,0,0,11,,,,,,,,6,,,,78,75
149880,note_off,120,0,11,,,,,,,,6,,,,76,64
149880,note_on,0,0,2,,,,,,,,0,,,,74,75
149880,note_on,0,0,4,,,,,,,,2,,,,74,75
149880,note_off,120,0,2,,,,,,,,0,,,,73,64
149880,note_off,120,0,19,,,,,,,,12,,,,73,64
149880,note_on,0,0,19,,,,,,,,12,,,,74,75
149880,note_on,0,0,3,,,,,,,,2,,,,78,75
149880,note_on,0,0,5,,,,,,,,3,,,,74,75
149880,note_off,120,0,5,,,,,,,,3,,,,73,64
149880,note_on,35,0,9,,,,,,,,5,,,,66,75
149880,note_off,120,0,4,,,,,,,,2,,,,73,64
149880,note_off,120,0,3,,,,,,,,2,,,,76,64
149880,note_on,35,0,10,,,,,,,,5,,,,62,75
149880,note_off,120,0,12,,,,,,,,6,,,,73,64
149880,note_on,0,0,12,,,,,,,,6,,,,74,75
149880,note_on,0,0,1,,,,,,,,0,,,,78,75
149880,note_off,120,0,1,,,,,,,,0,,,,76,64
149960,note_off,80,0,9,,,,,,,,5,,,,66,64
149960,note_off,80,0,1,,,,,,,,0,,,,78,64
149960,note_off,80,0,5,,,,,,,,3,,,,74,64
149960,note_off,80,0,2,,,,,,,,0,,,,74,64
149960,note_off,80,0,3,,,,,,,,2,,,,78,64
149960,note_off,80,0,4,,,,,,,,2,,,,74,64
149960,note_off,80,0,10,,,,,,,,5,,,,62,64
149960,note_off,80,0,11,,,,,,,,6,,,,78,64
149960,note_off,80,0,19,,,,,,,,12,,,,74,64
149960,note_off,80,0,12,,,,,,,,6,,,,74,64
149960,note_off,80,0,18,,,,,,,,11,,,,78,64
150000,note_on,40,0,10,,,,,,,,5,,,,61,75
150000,note_on,40,0,5,,,,,,,,3,,,,73,75
150000,note_on,40,0,12,,,,,,,,6,,,,73,75
150000,note_on,40,0,9,,,,,,,,5,,,,64,75
150000,note_on,40,0,1,,,,,,,,0,,,,76,75
150000,note_on,40,0,11,,,,,,,,6,,,,76,75
150000,note_on,40,0,3,,,,,,,,2,,,,76,75
150000,note_on,160,0,6,,,,,,,,3,,,,64,75
150000,note_on,40,0,19,,,,,,,,12,,,,73,75
150000,note_on,40,0,18,,,,,,,,11,,,,76,92
150000,note_on,160,0,20,,,,,,,,13,,,,69,75
150000,note_on,40,0,2,,,,,,,,0,,,,73,75
150000,note_on,40,0,4,,,,,,,,2,,,,73,75
150080,note_off,80,0,9,,,,,,,,5,,,,64,64
150080,note_off,80,0,11,,,,,,,,6,,,,76,64
150080,note_off,80,0,1,,,,,,,,0,,,,76,64
150080,note_off,80,0,10,,,,,,,,5,,,,61,64
150080,note_off,80,0,12,,,,,,,,6,,,,73,64
150080,note_off,80,0,20,,,,,,,,13,,,,69,64
150080,note_off,80,0,18,,,,,,,,11,,,,76,64
150080,note_off,80,0,4,,,,,,,,2,,,,73,64
150080,note_off,80,0,19,,,,,,,,12,,,,73,64
150080,note_off,80,0,5,,,,,,,,3,,,,73,64
150080,note_off,80,0,6,,,,,,,,3,,,,64,64
150080,note_off,80,0,2,,,,,,,,0,,,,73,64
150080,note_off,80,0,3,,,,,,,,2,,,,76,64
150160,note_off,400,0,22,,,,,,,,15,,,,33,64
150160,note_off,400,0,7,,,,,,,,4,,,,45,64
150160,note_off,400,0,21,,,,,,,,14,,,,45,64
150160,note_off,400,0,8,,,,,,,,4,,,,45,64
150160,note_off,400,0,16,,,,,,,,8,,,,33,64
150240,note_on,160,0,2,,,,,,,,0,,,,73,75
150240,note_on,160,0,20,,,,,,,,13,,,,69,75
150240,note_on,160,0,19,,,,,,,,12,,,,73,75
150240,note_on,160,0,9,,,,,,,,5,,,,64,75
150240,note_on,160,0,5,,,,,,,,3,,,,73,75
150240,note_on,160,0,18,,,,,,,,11,,,,76,92
150240,note_on,160,0,12,,,,,,,,6,,,,73,75
150240,note_on,160,0,11,,,,,,,,6,,,,76,75
150240,note_on,160,0,6,,,,,,,,3,,,,64,75
150240,note_on,160,0,3,,,,,,,,2,,,,76,75
150240,note_on,160,0,4,,,,,,,,2,,,,73,75
150240,note_on,160,0,1,,,,,,,,0,,,,76,75
150240,note_on,160,0,10,,,,,,,,5,,,,61,75
150320,note_off,80,0,6,,,,,,,,3,,,,64,64
150320,note_off,80,0,20,,,,,,,,13,,,,69,64
150325,note_off,85,0,9,,,,,,,,5,,,,64,64
150325,note_off,85,0,10,,,,,,,,5,,,,61,64
150360,note_off,120,0,11,,,,,,,,6,,,,76,64
150360,note_on,0,0,2,,,,,,,,0,,,,74,75
150360,note_off,120,0,2,,,,,,,,0,,,,73,64
150360,note_on,35,0,10,,,,,,,,5,,,,62,75
150360,note_on,0,0,18,,,,,,,,11,,,,78,92
150360,note_off,120,0,12,,,,,,,,6,,,,73,64
150360,note_off,120,0,1,,,,,,,,0,,,,76,64
150360,note_off,120,0,18,,,,,,,,11,,,,76,64
150360,note_on,0,0,1,,,,,,,,0,,,,78,75
150360,note_on,0,0,12,,,,,,,,6,,,,74,75
150360,note_on,0,0,11,,,,,,,,6,,,,78,75
150360,note_on,0,0,5,,,,,,,,3,,,,74,75
150360,note_on,35,0,9,,,,,,,,5,,,,66,75
150360,note_off,120,0,5,,,,,,,,3,,,,73,64
150360,note_off,120,0,4,,,,,,,,2,,,,73,64
150360,note_on,0,0,4,,,,,,,,2,,,,74,75
150360,note_off,120,0,3,,,,,,,,2,,,,76,64
150360,note_on,0,0,19,,,,,,,,12,,,,74,75
150360,note_off,120,0,19,,,,,,,,12,,,,73,64
150360,note_on,0,0,3,,,,,,,,2,,,,78,75
150440,note_off,80,0,4,,,,,,,,2,,,,74,64
150440,note_off,80,0,12,,,,,,,,6,,,,74,64
150440,note_off,80,0,3,,,,,,,,2,,,,78,64
150440,note_off,80,0,10,,,,,,,,5,,,,62,64
150440,note_off,80,0,9,,,,,,,,5,,,,66,64
150440,note_off,80,0,11,,,,,,,,6,,,,78,64
150440,note_off,80,0,18,,,,,,,,11,,,,78,64
150440,note_off,80,0,2,,,,,,,,0,,,,74,64
150440,note_off,80,0,19,,,,,,,,12,,,,74,64
150440,note_off,80,0,5,,,,,,,,3,,,,74,64
150440,note_off,80,0,1,,,,,,,,0,,,,78,64
150480,note_on,40,0,4,,,,,,,,2,,,,73,75
150480,note_on,40,0,19,,,,,,,,12,,,,73,75
150480,note_on,40,0,12,,,,,,,,6,,,,73,75
150480,note_on,40,0,3,,,,,,,,2,,,,76,75
150480,note_on,40,0,9,,,,,,,,5,,,,64,75
150480,note_on,40,0,2,,,,,,,,0,,,,73,75
150480,note_on,40,0,1,,,,,,,,0,,,,76,75
150480,note_on,40,0,10,,,,,,,,5,,,,61,75
150480,note_on,160,0,20,,,,,,,,13,,,,69,75
150480,note_on,40,0,5,,,,,,,,3,,,,73,75
150480,note_on,40,0,18,,,,,,,,11,,,,76,92
150480,note_on,160,0,6,,,,,,,,3,,,,64,75
150480,note_on,40,0,11,,,,,,,,6,,,,76,75
150560,note_off,80,0,11,,,,,,,,6,,,,76,64
150560,note_off,80,0,1,,,,,,,,0,,,,76,64
150560,note_off,80,0,12,,,,,,,,6,,,,73,64
150560,note_off,80,0,3,,,,,,,,2,,,,76,64
150560,note_off,80,0,4,,,,,,,,2,,,,73,64
150560,note_off,80,0,10,,,,,,,,5,,,,61,64
150560,note_off,80,0,6,,,,,,,,3,,,,64,64
150560,note_off,80,0,20,,,,,,,,13,,,,69,64
150560,note_off,80,0,18,,,,,,,,11,,,,76,64
150560,note_off,80,0,2,,,,,,,,0,,,,73,64
150560,note_off,80,0,19,,,,,,,,12,,,,73,64
150560,note_off,80,0,9,,,,,,,,5,,,,64,64
150560,note_off,80,0,5,,,,,,,,3,,,,73,64
150720,note_on,160,0,3,,,,,,,,2,,,,78,75
150720,note_on,160,0,6,,,,,,,,3,,,,66,75
150720,note_on,160,0,10,,,,,,,,5,,,,62,75
150720,note_on,160,0,5,,,,,,,,3,,,,74,75
150720,note_on,160,0,2,,,,,,,,0,,,,74,75
150720,note_on,160,0,18,,,,,,,,11,,,,78,92
150720,note_on,160,0,1,,,,,,,,0,,,,78,75
150720,note_on,160,0,20,,,,,,,,13,,,,66,75
150720,note_on,160,0,11,,,,,,,,6,,,,78,75
150720,note_on,160,0,12,,,,,,,,6,,,,74,75
150720,note_on,160,0,19,,,,,,,,12,,,,74,75
150720,note_on,160,0,9,,,,,,,,5,,,,66,75
150720,note_on,160,0,4,,,,,,,,2,,,,74,75
150800,note_off,80,0,5,,,,,,,,3,,,,74,64
150800,note_off,80,0,6,,,,,,,,3,,,,66,64
150800,note_off,80,0,20,,,,,,,,13,,,,66,64
150800,note_off,80,0,4,,,,,,,,2,,,,74,64
150800,note_off,80,0,2,,,,,,,,0,,,,74,64
150800,note_off,80,0,19,,,,,,,,12,,,,74,64
150960,note_on,800,0,22,,,,,,,,15,,,,45,75
150960,note_on,1280,0,15,,,,,,,,7,,,,50,75
150960,note_on,160,0,20,,,,,,,,13,,,,69,75
150960,note_on,160,0,6,,,,,,,,3,,,,69,75
150960,note_on,160,0,2,,,,,,,,0,,,,73,75
150960,note_on,800,0,8,,,,,,,,4,,,,45,75
150960,note_on,160,0,5,,,,,,,,3,,,,73,75
150960,note_on,1280,0,13,,,,,,,,7,,,,57,75
150960,note_on,32480,0,17,,,,,,,,10,,,,45,75
150960,note_on,800,0,21,,,,,,,,14,,,,57,75
150960,note_on,800,0,7,,,,,,,,4,,,,57,75
150960,note_on,160,0,19,,,,,,,,12,,,,73,75
150960,note_on,800,0,16,,,,,,,,8,,,,45,75
150960,note_on,160,0,4,,,,,,,,2,,,,73,75
150960,note_on,1280,0,14,,,,,,,,7,,,,54,75
151040,note_off,80,0,5,,,,,,,,3,,,,73,64
151040,note_off,80,0,15,,,,,,,,7,,,,50,64
151040,note_off,80,0,14,,,,,,,,7,,,,54,64
151040,note_off,80,0,22,,,,,,,,15,,,,45,64
151040,note_off,80,0,20,,,,,,,,13,,,,69,64
151040,note_off,80,0,6,,,,,,,,3,,,,69,64
151040,note_off,80,0,13,,,,,,,,7,,,,57,64
151040,note_off,80,0,7,,,,,,,,4,,,,57,64
151040,note_off,80,0,21,,,,,,,,14,,,,57,64
151040,note_off,80,0,19,,,,,,,,12,,,,73,64
151040,note_off,80,0,17,,,,,,,,10,,,,45,64
151040,note_off,80,0,16,,,,,,,,8,,,,45,64
151040,note_off,80,0,4,,,,,,,,2,,,,73,64
151040,note_off,80,0,2,,,,,,,,0,,,,73,64
151040,note_off,80,0,8,,,,,,,,4,,,,45,64
151200,note_on,160,0,5,,,,,,,,3,,,,73,75
151200,note_on,160,0,17,,,,,,,,10,,,,45,75
151200,note_on,160,0,7,,,,,,,,4,,,,57,75
151200,note_on,160,0,13,,,,,,,,7,,,,57,75
151200,note_on,160,0,20,,,,,,,,13,,,,69,75
151200,note_on,160,0,19,,,,,,,,12,,,,73,75
151200,note_on,160,0,16,,,,,,,,8,,,,45,75
151200,note_on,160,0,15,,,,,,,,7,,,,50,75
151200,note_on,160,0,21,,,,,,,,14,,,,57,75
151200,note_on,160,0,14,,,,,,,,7,,,,54,75
151200,note_on,160,0,4,,,,,,,,2,,,,73,75
151200,note_on,160,0,2,,,,,,,,0,,,,73,75
151200,note_on,160,0,8,,,,,,,,4,,,,45,75
151200,note_on,160,0,6,,,,,,,,3,,,,69,75
151200,note_on,160,0,22,,,,,,,,15,,,,45,75
151280,note_off,80,0,13,,,,,,,,7,,,,57,64
151280,note_off,80,0,14,,,,,,,,7,,,,54,64
151280,note_off,80,0,17,,,,,,,,10,,,,45,64
151280,note_off,80,0,15,,,,,,,,7,,,,50,64
151320,note_off,120,0,6,,,,,,,,3,,,,69,64
151320,note_off,120,0,19,,,,,,,,12,,,,73,64
151320,note_on,0,0,21,,,,,,,,14,,,,59,75
151320,note_on,0,0,19,,,,,,,,12,,,,74,75
151320,note_off,120,0,7,,,,,,,,4,,,,57,64
151320,note_on,0,0,2,,,,,,,,0,,,,74,75
151320,note_off,120,0,2,,,,,,,,0,,,,73,64
151320,note_off,120,0,16,,,,,,,,8,,,,45,64
151320,note_on,0,0,16,,,,,,,,8,,,,47,75
151320,note_off,120,0,8,,,,,,,,4,,,,45,64
151320,note_on,0,0,8,,,,,,,,4,,,,47,75
151320,note_on,0,0,6,,,,,,,,3,,,,71,75
151320,note_on,0,0,7,,,,,,,,4,,,,59,75
151320,note_off,120,0,21,,,,,,,,14,,,,57,64
151320,note_on,0,0,5,,,,,,,,3,,,,74,75
151320,note_on,0,0,22,,,,,,,,15,,,,47,75
151320,note_off,120,0,22,,,,,,,,15,,,,45,64
151320,note_off,120,0,20,,,,,,,,13,,,,69,64
151320,note_on,0,0,20,,,,,,,,13,,,,71,75
151320,note_off,120,0,5,,,,,,,,3,,,,73,64
151320,note_off,120,0,4,,,,,,,,2,,,,73,64
151320,note_on,0,0,4,,,,,,,,2,,,,74,75
151400,note_off,80,0,22,,,,,,,,15,,,,47,64
151400,note_off,80,0,6,,,,,,,,3,,,,71,64
151400,note_off,80,0,2,,,,,,,,0,,,,74,64
151400,note_off,80,0,7,,,,,,,,4,,,,59,64
151400,note_off,80,0,20,,,,,,,,13,,,,71,64
151400,note_off,80,0,16,,,,,,,,8,,,,47,64
151400,note_off,80,0,21,,,,,,,,14,,,,59,64
151400,note_off,80,0,8,,,,,,,,4,,,,47,64
151400,note_off,80,0,4,,,,,,,,2,,,,74,64
151400,note_off,80,0,5,,,,,,,,3,,,,74,64
151400,note_off,80,0,19,,,,,,,,12,,,,74,64
151440,note_on,40,0,6,,,,,,,,3,,,,69,75
151440,note_on,40,0,4,,,,,,,,2,,,,73,75
151440,note_on,160,0,17,,,,,,,,10,,,,45,75
151440,note_on,40,0,19,,,,,,,,12,,,,73,75
151440,note_on,40,0,20,,,,,,,,13,,,,69,75
151440,note_on,40,0,21,,,,,,,,14,,,,57,75
151440,note_on,40,0,22,,,,,,,,15,,,,45,75
151440,note_on,160,0,15,,,,,,,,7,,,,50,75
151440,note_on,40,0,2,,,,,,,,0,,,,73,75
151440,note_on,40,0,5,,,,,,,,3,,,,73,75
151440,note_on,160,0,14,,,,,,,,7,,,,54,75
151440,note_on,40,0,8,,,,,,,,4,,,,45,75
151440,note_on,160,0,13,,,,,,,,7,,,,57,75
151440,note_on,40,0,16,,,,,,,,8,,,,45,75
151440,note_on,40,0,7,,,,,,,,4,,,,57,75
151520,note_off,80,0,14,,,,,,,,7,,,,54,64
151520,note_off,80,0,17,,,,,,,,10,,,,45,64
151520,note_off,80,0,5,,,,,,,,3,,,,73,64
151520,note_off,80,0,15,,,,,,,,7,,,,50,64
151520,note_off,80,0,4,,,,,,,,2,,,,73,64
151520,note_off,80,0,13,,,,,,,,7,,,,57,64
151520,note_off,80,0,16,,,,,,,,8,,,,45,64
151520,note_off,80,0,21,,,,,,,,14,,,,57,64
151520,note_off,80,0,7,,,,,,,,4,,,,57,64
151520,note_off,80,0,20,,,,,,,,13,,,,69,64
151520,note_off,80,0,2,,,,,,,,0,,,,73,64
151520,note_off,80,0,19,,,,,,,,12,,,,73,64
151520,note_off,80,0,8,,,,,,,,4,,,,45,64
151520,note_off,80,0,6,,,,,,,,3,,,,69,64
151520,note_off,80,0,22,,,,,,,,15,,,,45,64
151560,note_off,840,0,12,,,,,,,,6,,,,74,64
151560,note_off,840,0,11,,,,,,,,6,,,,78,64
151560,note_off,840,0,18,,,,,,,,11,,,,78,64
151560,note_off,840,0,10,,,,,,,,5,,,,62,64
151560,note_off,840,0,3,,,,,,,,2,,,,78,64
151560,note_off,840,0,9,,,,,,,,5,,,,66,64
151560,note_off,840,0,1,,,,,,,,0,,,,78,64
151680,note_on,160,0,15,,,,,,,,7,,,,50,75
151680,note_on,160,0,5,,,,,,,,3,,,,73,75
151680,note_on,160,0,17,,,,,,,,10,,,,45,75
151680,note_on,160,0,6,,,,,,,,3,,,,69,75
151680,note_on,160,0,8,,,,,,,,4,,,,45,75
151680,note_on,160,0,14,,,,,,,,7,,,,54,75
151680,note_on,160,0,21,,,,,,,,14,,,,57,75
151680,note_on,160,0,22,,,,,,,,15,,,,45,75
151680,note_on,160,0,19,,,,,,,,12,,,,73,75
151680,note_on,160,0,4,,,,,,,,2,,,,73,75
151680,note_on,160,0,7,,,,,,,,4,,,,57,75
151680,note_on,160,0,2,,,,,,,,0,,,,73,75
151680,note_on,160,0,13,,,,,,,,7,,,,57,75
151680,note_on,160,0,20,,,,,,,,13,,,,69,75
151680,note_on,160,0,16,,,,,,,,8,,,,45,75
151760,note_off,80,0,15,,,,,,,,7,,,,50,64
151760,note_off,80,0,17,,,,,,,,10,,,,45,64
151760,note_off,80,0,14,,,,,,,,7,,,,54,64
151760,note_off,80,0,13,,,,,,,,7,,,,57,64
151800,note_on,0,0,7,,,,,,,,4,,,,59,75
151800,note_off,120,0,6,,,,,,,,3,,,,69,64
151800,note_off,120,0,7,,,,,,,,4,,,,57,64
151800,note_on,0,0,6,,,,,,,,3,,,,71,75
151800,note_on,0,0,4,,,,,,,,2,,,,74,75
151800,note_on,0,0,20,,,,,,,,13,,,,71,75
151800,note_off,120,0,20,,,,,,,,13,,,,69,64
151800,note_off,120,0,8,,,,,,,,4,,,,45,64
151800,note_on,0,0,8,,,,,,,,4,,,,47,75
151800,note_on,0,0,16,,,,,,,,8,,,,47,75
151800,note_on,0,0,19,,,,,,,,12,,,,74,75
151800,note_off,120,0,5,,,,,,,,3,,,,73,64
151800,note_off,120,0,2,,,,,,,,0,,,,73,64
151800,note_on,0,0,2,,,,,,,,0,,,,74,75
151800,note_off,120,0,16,,,,,,,,8,,,,45,64
151800,note_off,120,0,22,,,,,,,,15,,,,45,64
151800,note_on,0,0,22,,,,,,,,15,,,,47,75
151800,note_off,120,0,19,,,,,,,,12,,,,73,64
151800,note_on,0,0,21,,,,,,,,14,,,,59,75
151800,note_on,0,0,5,,,,,,,,3,,,,74,75
151800,note_off,120,0,21,,,,,,,,14,,,,57,64
151800,note_off,120,0,4,,,,,,,,2,,,,73,64
151880,note_off,80,0,6,,,,,,,,3,,,,71,64
151880,note_off,80,0,19,,,,,,,,12,,,,74,64
151880,note_off,80,0,7,,,,,,,,4,,,,59,64
151880,note_off,80,0,16,,,,,,,,8,,,,47,64
151880,note_off,80,0,4,,,,,,,,2,,,,74,64
151880,note_off,80,0,22,,,,,,,,15,,,,47,64
151880,note_off,80,0,20,,,,,,,,13,,,,71,64
151880,note_off,80,0,2,,,,,,,,0,,,,74,64
151880,note_off,80,0,8,,,,,,,,4,,,,47,64
151880,note_off,80,0,21,,,,,,,,14,,,,59,64
151880,note_off,80,0,5,,,,,,,,3,,,,74,64
151920,note_on,40,0,21,,,,,,,,14,,,,57,75
151920,note_on,40,0,4,,,,,,,,2,,,,73,75
151920,note_on,40,0,16,,,,,,,,8,,,,45,75
151920,note_on,40,0,20,,,,,,,,13,,,,69,75
151920,note_on,40,0,22,,,,,,,,15,,,,45,75
151920,note_on,40,0,5,,,,,,,,3,,,,73,75
151920,note_on,160,0,15,,,,,,,,7,,,,50,75
151920,note_on,160,0,17,,,,,,,,10,,,,45,75
151920,note_on,40,0,2,,,,,,,,0,,,,73,75
151920,note_on,160,0,14,,,,,,,,7,,,,54,75
151920,note_on,40,0,6,,,,,,,,3,,,,69,75
151920,note_on,40,0,19,,,,,,,,12,,,,73,75
151920,note_on,40,0,7,,,,,,,,4,,,,57,75
151920,note_on,160,0,13,,,,,,,,7,,,,57,75
151920,note_on,40,0,8,,,,,,,,4,,,,45,75
152000,note_off,80,0,5,,,,,,,,3,,,,73,64
152000,note_off,80,0,20,,,,,,,,13,,,,69,64
152000,note_off,80,0,15,,,,,,,,7,,,,50,64
152000,note_off,80,0,22,,,,,,,,15,,,,45,64
152000,note_off,80,0,4,,,,,,,,2,,,,73,64
152000,note_off,80,0,21,,,,,,,,14,,,,57,64
152000,note_off,80,0,6,,,,,,,,3,,,,69,64
152000,note_off,80,0,13,,,,,,,,7,,,,57,64
152000,note_off,80,0,17,,,,,,,,10,,,,45,64
152000,note_off,80,0,19,,,,,,,,12,,,,73,64
152000,note_off,80,0,2,,,,,,,,0,,,,73,64
152000,note_off,80,0,8,,,,,,,,4,,,,45,64
152000,note_off,80,0,7,,,,,,,,4,,,,57,64
152000,note_off,80,0,14,,,,,,,,7,,,,54,64
152000,note_off,80,0,16,,,,,,,,8,,,,45,64
152160,note_on,160,0,4,,,,,,,,2,,,,74,75
152160,note_on,160,0,22,,,,,,,,15,,,,47,75
152160,note_on,160,0,5,,,,,,,,3,,,,74,75
152160,note_on,160,0,8,,,,,,,,4,,,,47,75
152160,note_on,160,0,13,,,,,,,,7,,,,54,75
152160,note_on,160,0,7,,,,,,,,4,,,,59,75
152160,note_on,160,0,2,,,,,,,,0,,,,74,75
152160,note_on,160,0,6,,,,,,,,3,,,,71,75
152160,note_on,160,0,15,,,,,,,,7,,,,50,75
152160,note_on,160,0,16,,,,,,,,8,,,,47,75
152160,note_on,160,0,14,,,,,,,,7,,,,50,75
152160,note_on,160,0,20,,,,,,,,13,,,,71,75
152160,note_on,160,0,17,,,,,,,,10,,,,50,75
152160,note_on,160,0,21,,,,,,,,14,,,,59,75
152160,note_on,600,0,12,,,,,,,,6,,,,66,75
152160,note_on,160,0,19,,,,,,,,12,,,,74,75
152240,note_off,80,0,19,,,,,,,,12,,,,74,64
152240,note_off,80,0,4,,,,,,,,2,,,,74,64
152240,note_off,80,0,2,,,,,,,,0,,,,74,64
152240,note_off,80,0,5,,,,,,,,3,,,,74,64
152395,note_off,235,0,12,,,,,,,,6,,,,66,64
152400,note_on,160,0,19,,,,,,,,12,,,,74,75
152400,note_on,840,0,9,,,,,,,,5,,,,66,75
152400,note_on,840,0,11,,,,,,,,6,,,,78,75
152400,note_on,840,0,1,,,,,,,,0,,,,78,75
152400,note_on,840,0,3,,,,,,,,2,,,,78,75
152400,note_on,160,0,5,,,,,,,,3,,,,74,75
152400,note_on,160,0,2,,,,,,,,0,,,,74,75
152400,note_on,160,0,4,,,,,,,,2,,,,74,75
152400,note_on,840,0,10,,,,,,,,5,,,,62,75
152400,note_on,840,0,18,,,,,,,,11,,,,78,92
152400,note_on,5,0,12,,,,,,,,6,,,,74,75
152480,note_off,80,0,2,,,,,,,,0,,,,74,64
152480,note_off,80,0,3,,,,,,,,2,,,,78,64
152480,note_off,80,0,11,,,,,,,,6,,,,78,64
152480,note_off,80,0,12,,,,,,,,6,,,,74,64
152480,note_off,80,0,5,,,,,,,,3,,,,74,64
152480,note_off,80,0,10,,,,,,,,5,,,,62,64
152480,note_off,80,0,1,,,,,,,,0,,,,78,64
152480,note_off,80,0,19,,,,,,,,12,,,,74,64
152480,note_off,80,0,4,,,,,,,,2,,,,74,64
152480,note_off,80,0,9,,,,,,,,5,,,,66,64
152480,note_off,80,0,18,,,,,,,,11,,,,78,64
152560,note_off,400,0,17,,,,,,,,10,,,,50,64
152640,note_on,160,0,12,,,,,,,,6,,,,74,75
152640,note_on,160,0,1,,,,,,,,0,,,,78,75
152640,note_on,160,0,5,,,,,,,,3,,,,74,75
152640,note_on,160,0,11,,,,,,,,6,,,,78,75
152640,note_on,160,0,4,,,,,,,,2,,,,74,75
152640,note_on,160,0,3,,,,,,,,2,,,,78,75
152640,note_on,160,0,9,,,,,,,,5,,,,66,75
152640,note_on,160,0,10,,,,,,,,5,,,,62,75
152640,note_on,160,0,2,,,,,,,,0,,,,74,75
152640,note_on,160,0,19,,,,,,,,12,,,,74,75
152640,note_on,160,0,18,,,,,,,,11,,,,78,92
152760,note_on,0,0,9,,,,,,,,5,,,,67,75
152760,note_on,0,0,18,,,,,,,,11,,,,79,92
152760,note_off,120,0,18,,,,,,,,11,,,,78,64
152760,note_off,120,0,2,,,,,,,,0,,,,74,64
152760,note_off,120,0,4,,,,,,,,2,,,,74,64
152760,note_on,0,0,4,,,,,,,,2,,,,76,75
152760,note_off,120,0,12,,,,,,,,6,,,,74,64
152760,note_on,0,0,12,,,,,,,,6,,,,76,75
152760,note_off,120,0,11,,,,,,,,6,,,,78,64
152760,note_off,120,0,19,,,,,,,,12,,,,74,64
152760,note_on,0,0,11,,,,,,,,6,,,,79,75
152760,note_off,120,0,9,,,,,,,,5,,,,66,64
152760,note_on,0,0,10,,,,,,,,5,,,,64,75
152760,note_on,0,0,2,,,,,,,,0,,,,76,75
152760,note_off,120,0,10,,,,,,,,5,,,,62,64
152760,note_off,120,0,1,,,,,,,,0,,,,78,64
152760,note_on,0,0,1,,,,,,,,0,,,,79,75
152760,note_on,0,0,3,,,,,,,,2,,,,79,75
152760,note_on,0,0,19,,,,,,,,12,,,,76,75
152760,note_off,120,0,3,,,,,,,,2,,,,78,64
152760,note_off,120,0,5,,,,,,,,3,,,,74,64
152760,note_on,0,0,5,,,,,,,,3,,,,76,75
152840,note_off,80,0,5,,,,,,,,3,,,,76,64
152840,note_off,80,0,12,,,,,,,,6,,,,76,64
152840,note_off,80,0,3,,,,,,,,2,,,,79,64
152840,note_off,80,0,4,,,,,,,,2,,,,76,64
152840,note_off,80,0,11,,,,,,,,6,,,,79,64
152840,note_off,80,0,1,,,,,,,,0,,,,79,64
152840,note_off,80,0,19,,,,,,,,12,,,,76,64
152840,note_off,80,0,2,,,,,,,,0,,,,76,64
152840,note_off,80,0,18,,,,,,,,11,,,,79,64
152840,note_off,80,0,9,,,,,,,,5,,,,67,64
152840,note_off,80,0,10,,,,,,,,5,,,,64,64
152880,note_on,40,0,1,,,,,,,,0,,,,78,75
152880,note_on,40,0,9,,,,,,,,5,,,,66,75
152880,note_on,40,0,4,,,,,,,,2,,,,74,75
152880,note_on,40,0,10,,,,,,,,5,,,,62,75
152880,note_on,40,0,19,,,,,,,,12,,,,74,75
152880,note_on,40,0,2,,,,,,,,0,,,,74,75
152880,note_on,40,0,12,,,,,,,,6,,,,74,75
152880,note_on,40,0,18,,,,,,,,11,,,,78,92
152880,note_on,40,0,5,,,,,,,,3,,,,74,75
152880,note_on,40,0,11,,,,,,,,6,,,,78,75
152880,note_on,40,0,3,,,,,,,,2,,,,78,75
152960,note_off,80,0,3,,,,,,,,2,,,,78,64
152960,note_off,80,0,19,,,,,,,,12,,,,74,64
152960,note_off,80,0,2,,,,,,,,0,,,,74,64
152960,note_off,80,0,10,,,,,,,,5,,,,62,64
152960,note_off,80,0,18,,,,,,,,11,,,,78,64
152960,note_off,80,0,4,,,,,,,,2,,,,74,64
152960,note_off,80,0,12,,,,,,,,6,,,,74,64
152960,note_off,80,0,9,,,,,,,,5,,,,66,64
152960,note_off,80,0,5,,,,,,,,3,,,,74,64
152960,note_off,80,0,1,,,,,,,,0,,,,78,64
152960,note_off,80,0,11,,,,,,,,6,,,,78,64
153000,note_off,840,0,15,,,,,,,,7,,,,50,64
153000,note_off,840,0,6,,,,,,,,3,,,,71,64
153000,note_off,840,0,21,,,,,,,,14,,,,59,64
153000,note_off,840,0,14,,,,,,,,7,,,,50,64
153000,note_off,840,0,20,,,,,,,,13,,,,71,64
153000,note_off,840,0,13,,,,,,,,7,,,,54,64
153000,note_off,840,0,16,,,,,,,,8,,,,47,64
153000,note_off,840,0,8,,,,,,,,4,,,,47,64
153000,note_off,840,0,7,,,,,,,,4,,,,59,64
153000,note_off,840,0,22,,,,,,,,15,,,,47,64
153120,note_on,160,0,1,,,,,,,,0,,,,78,75
153120,note_on,160,0,3,,,,,,,,2,,,,78,75
153120,note_on,160,0,5,,,,,,,,3,,,,74,75
153120,note_on,160,0,12,,,,,,,,6,,,,74,75
153120,note_on,160,0,2,,,,,,,,0,,,,74,75
153120,note_on,160,0,4,,,,,,,,2,,,,74,75
153120,note_on,160,0,10,,,,,,,,5,,,,62,75
153120,note_on,160,0,18,,,,,,,,11,,,,78,92
153120,note_on,160,0,19,,,,,,,,12,,,,74,75
153120,note_on,160,0,11,,,,,,,,6,,,,78,75
153120,note_on,160,0,9,,,,,,,,5,,,,66,75
153240,note_on,0,0,9,,,,,,,,5,,,,67,75
153240,note_off,120,0,11,,,,,,,,6,,,,78,64
153240,note_on,0,0,11,,,,,,,,6,,,,79,75
153240,note_on,0,0,5,,,,,,,,3,,,,76,75
153240,note_on,0,0,19,,,,,,,,12,,,,76,75
153240,note_off,120,0,4,,,,,,,,2,,,,74,64
153240,note_on,0,0,4,,,,,,,,2,,,,76,75
153240,note_off,120,0,19,,,,,,,,12,,,,74,64
153240,note_off,120,0,5,,,,,,,,3,,,,74,64
153240,note_off,120,0,9,,,,,,,,5,,,,66,64
153240,note_off,120,0,10,,,,,,,,5,,,,62,64
153240,note_on,0,0,3,,,,,,,,2,,,,79,75
153240,note_off,120,0,2,,,,,,,,0,,,,74,64
153240,note_off,120,0,3,,,,,,,,2,,,,78,64
153240,note_on,0,0,18,,,,,,,,11,,,,79,92
153240,note_off,120,0,18,,,,,,,,11,,,,78,64
153240,note_off,120,0,1,,,,,,,,0,,,,78,64
153240,note_on,0,0,1,,,,,,,,0,,,,79,75
153240,note_on,0,0,2,,,,,,,,0,,,,76,75
153240,note_on,0,0,10,,,,,,,,5,,,,64,75
153240,note_off,120,0,12,,,,,,,,6,,,,74,64
153240,note_on,0,0,12,,,,,,,,6,,,,76,75
153320,note_off,80,0,2,,,,,,,,0,,,,76,64
153320,note_off,80,0,18,,,,,,,,11,,,,79,64
153320,note_off,80,0,10,,,,,,,,5,,,,64,64
153320,note_off,80,0,11,,,,,,,,6,,,,79,64
153320,note_off,80,0,5,,,,,,,,3,,,,76,64
153320,note_off,80,0,19,,,,,,,,12,,,,76,64
153320,note_off,80,0,12,,,,,,,,6,,,,76,64
153320,note_off,80,0,4,,,,,,,,2,,,,76,64
153320,note_off,80,0,9,,,,,,,,5,,,,67,64
153320,note_off,80,0,1,,,,,,,,0,,,,79,64
153320,note_off,80,0,3,,,,,,,,2,,,,79,64
153360,note_on,40,0,12,,,,,,,,6,,,,74,75
153360,note_on,40,0,3,,,,,,,,2,,,,78,75
153360,note_on,40,0,9,,,,,,,,5,,,,66,75
153360,note_on,40,0,18,,,,,,,,11,,,,78,92
153360,note_on,40,0,11,,,,,,,,6,,,,78,75
153360,note_on,40,0,19,,,,,,,,12,,,,74,75
153360,note_on,40,0,5,,,,,,,,3,,,,74,75
153360,note_on,40,0,1,,,,,,,,0,,,,78,75
153360,note_on,40,0,4,,,,,,,,2,,,,74,75
153360,note_on,40,0,2,,,,,,,,0,,,,74,75
153360,note_on,40,0,10,,,,,,,,5,,,,62,75
153440,note_off,80,0,3,,,,,,,,2,,,,78,64
153440,note_off,80,0,11,,,,,,,,6,,,,78,64
153440,note_off,80,0,4,,,,,,,,2,,,,74,64
153440,note_off,80,0,19,,,,,,,,12,,,,74,64
153440,note_off,80,0,10,,,,,,,,5,,,,62,64
153440,note_off,80,0,2,,,,,,,,0,,,,74,64
153440,note_off,80,0,18,,,,,,,,11,,,,78,64
153440,note_off,80,0,12,,,,,,,,6,,,,74,64
153440,note_off,80,0,5,,,,,,,,3,,,,74,64
153440,note_off,80,0,1,,,,,,,,0,,,,78,64
153440,note_off,80,0,9,,,,,,,,5,,,,66,64
153600,note_on,160,0,2,,,,,,,,0,,,,74,75
153600,note_on,160,0,9,,,,,,,,5,,,,67,75
153600,note_on,160,0,10,,,,,,,,5,,,,64,75
153600,note_on,160,0,4,,,,,,,,2,,,,74,75
153600,note_on,160,0,12,,,,,,,,6,,,,76,75
153600,note_on,160,0,18,,,,,,,,11,,,,79,92
153600,note_on,160,0,1,,,,,,,,0,,,,79,75
153600,note_on,160,0,11,,,,,,,,6,,,,79,75
153600,note_on,160,0,3,,,,,,,,2,,,,79,75
153600,note_on,160,0,19,,,,,,,,12,,,,74,75
153600,note_on,160,0,5,,,,,,,,3,,,,74,75
153680,note_off,80,0,2,,,,,,,,0,,,,74,64
153680,note_off,80,0,19,,,,,,,,12,,,,74,64
153680,note_off,80,0,5,,,,,,,,3,,,,74,64
153680,note_off,80,0,4,,,,,,,,2,,,,74,64
153840,note_on,840,0,13,,,,,,,,7,,,,62,75
153840,note_on,840,0,20,,,,,,,,13,,,,71,75
153840,note_on,160,0,4,,,,,,,,2,,,,74,75
153840,note_on,1280,0,17,,,,,,,,10,,,,50,75
153840,note_on,160,0,5,,,,,,,,3,,,,74,75
153840,note_on,840,0,21,,,,,,,,14,,,,59,75
153840,note_on,840,0,22,,,,,,,,15,,,,47,75
153840,note_on,840,0,6,,,,,,,,3,,,,71,75
153840,note_on,840,0,15,,,,,,,,7,,,,55,75
153840,note_on,840,0,16,,,,,,,,8,,,,38,75
153840,note_on,840,0,14,,,,,,,,7,,,,59,75
153840,note_on,160,0,2,,,,,,,,0,,,,74,75
153840,note_on,160,0,19,,,,,,,,12,,,,74,75
153840,note_on,840,0,7,,,,,,,,4,,,,59,75
153840,note_on,840,0,8,,,,,,,,4,,,,38,75
153920,note_off,80,0,14,,,,,,,,7,,,,59,64
153920,note_off,80,0,4,,,,,,,,2,,,,74,64
153920,note_off,80,0,2,,,,,,,,0,,,,74,64
153920,note_off,80,0,7,,,,,,,,4,,,,59,64
153920,note_off,80,0,5,,,,,,,,3,,,,74,64
153920,note_off,80,0,15,,,,,,,,7,,,,55,64
153920,note_off,80,0,8,,,,,,,,4,,,,38,64
153920,note_off,80,0,20,,,,,,,,13,,,,71,64
153920,note_off,80,0,13,,,,,,,,7,,,,62,64
153920,note_off,80,0,19,,,,,,,,12,,,,74,64
153920,note_off,80,0,17,,,,,,,,10,,,,50,64
153920,note_off,80,0,16,,,,,,,,8,,,,38,64
153920,note_off,80,0,6,,,,,,,,3,,,,71,64
153920,note_off,80,0,22,,,,,,,,15,,,,47,64
153920,note_off,80,0,21,,,,,,,,14,,,,59,64
154080,note_on,160,0,20,,,,,,,,13,,,,71,75
154080,note_on,160,0,21,,,,,,,,14,,,,59,75
154080,note_on,160,0,16,,,,,,,,8,,,,38,75
154080,note_on,160,0,22,,,,,,,,15,,,,47,75
154080,note_on,160,0,4,,,,,,,,2,,,,74,75
154080,note_on,160,0,5,,,,,,,,3,,,,74,75
154080,note_on,160,0,14,,,,,,,,7,,,,59,75
154080,note_on,160,0,6,,,,,,,,3,,,,71,75
154080,note_on,160,0,2,,,,,,,,0,,,,74,75
154080,note_on,160,0,7,,,,,,,,4,,,,59,75
154080,note_on,160,0,17,,,,,,,,10,,,,50,75
154080,note_on,160,0,13,,,,,,,,7,,,,62,75
154080,note_on,160,0,8,,,,,,,,4,,,,38,75
154080,note_on,160,0,15,,,,,,,,7,,,,55,75
154080,note_on,160,0,19,,,,,,,,12,,,,74,75
154160,note_off,80,0,14,,,,,,,,7,,,,59,64
154160,note_off,80,0,16,,,,,,,,8,,,,38,64
154160,note_off,80,0,13,,,,,,,,7,,,,62,64
154160,note_off,80,0,17,,,,,,,,10,,,,50,64
154160,note_off,80,0,15,,,,,,,,7,,,,55,64
154160,note_off,80,0,8,,,,,,,,4,,,,38,64
154200,note_on,0,0,5,,,,,,,,3,,,,76,75
154200,note_off,120,0,5,,,,,,,,3,,,,74,64
154200,note_on,0,0,21,,,,,,,,14,,,,61,75
154200,note_off,120,0,21,,,,,,,,14,,,,59,64
154200,note_on,0,0,2,,,,,,,,0,,,,76,75
154200,note_off,120,0,19,,,,,,,,12,,,,74,64
154200,note_on,0,0,4,,,,,,,,2,,,,76,75
154200,note_off,120,0,4,,,,,,,,2,,,,74,64
154200,note_off,120,0,6,,,,,,,,3,,,,71,64
154200,note_on,0,0,6,,,,,,,,3,,,,73,75
154200,note_on,0,0,7,,,,,,,,4,,,,61,75
154200,note_on,0,0,20,,,,,,,,13,,,,73,75
154200,note_off,120,0,20,,,,,,,,13,,,,71,64
154200,note_on,0,0,22,,,,,,,,15,,,,49,75
154200,note_off,120,0,2,,,,,,,,0,,,,74,64
154200,note_on,0,0,19,,,,,,,,12,,,,76,75
154200,note_off,120,0,22,,,,,,,,15,,,,47,64
154200,note_off,120,0,7,,,,,,,,4,,,,59,64
154280,note_off,80,0,7,,,,,,,,4,,,,61,64
154280,note_off,80,0,20,,,,,,,,13,,,,73,64
154280,note_off,80,0,19,,,,,,,,12,,,,76,64
154280,note_off,80,0,5,,,,,,,,3,,,,76,64
154280,note_off,80,0,4,,,,,,,,2,,,,76,64
154280,note_off,80,0,2,,,,,,,,0,,,,76,64
154280,note_off,80,0,6,,,,,,,,3,,,,73,64
154280,note_off,80,0,22,,,,,,,,15,,,,49,64
154280,note_off,80,0,21,,,,,,,,14,,,,61,64
154320,note_on,160,0,8,,,,,,,,4,,,,38,75
154320,note_on,160,0,14,,,,,,,,7,,,,59,75
154320,note_on,160,0,15,,,,,,,,7,,,,55,75
154320,note_on,40,0,7,,,,,,,,4,,,,59,75
154320,note_on,160,0,17,,,,,,,,10,,,,50,75
154320,note_on,40,0,19,,,,,,,,12,,,,74,75
154320,note_on,40,0,20,,,,,,,,13,,,,71,75
154320,note_on,160,0,16,,,,,,,,8,,,,38,75
154320,note_on,40,0,4,,,,,,,,2,,,,74,75
154320,note_on,40,0,21,,,,,,,,14,,,,59,75
154320,note_on,40,0,22,,,,,,,,15,,,,47,75
154320,note_on,40,0,5,,,,,,,,3,,,,74,75
154320,note_on,160,0,13,,,,,,,,7,,,,62,75
154320,note_on,40,0,6,,,,,,,,3,,,,71,75
154320,note_on,40,0,2,,,,,,,,0,,,,74,75
154400,note_off,80,0,16,,,,,,,,8,,,,38,64
154400,note_off,80,0,7,,,,,,,,4,,,,59,64
154400,note_off,80,0,6,,,,,,,,3,,,,71,64
154400,note_off,80,0,14,,,,,,,,7,,,,59,64
154400,note_off,80,0,20,,,,,,,,13,,,,71,64
154400,note_off,80,0,17,,,,,,,,10,,,,50,64
154400,note_off,80,0,2,,,,,,,,0,,,,74,64
154400,note_off,80,0,4,,,,,,,,2,,,,74,64
154400,note_off,80,0,5,,,,,,,,3,,,,74,64
154400,note_off,80,0,22,,,,,,,,15,,,,47,64
154400,note_off,80,0,21,,,,,,,,14,,,,59,64
154400,note_off,80,0,13,,,,,,,,7,,,,62,64
154400,note_off,80,0,8,,,,,,,,4,,,,38,64
154400,note_off,80,0,19,,,,,,,,12,,,,74,64
154400,note_off,80,0,15,,,,,,,,7,,,,55,64
154560,note_on,160,0,19,,,,,,,,12,,,,74,75
154560,note_on,160,0,16,,,,,,,,8,,,,38,75
154560,note_on,160,0,7,,,,,,,,4,,,,59,75
154560,note_on,160,0,14,,,,,,,,7,,,,59,75
154560,note_on,160,0,20,,,,,,,,13,,,,71,75
154560,note_on,160,0,17,,,,,,,,10,,,,50,75
154560,note_on,160,0,15,,,,,,,,7,,,,55,75
154560,note_on,160,0,13,,,,,,,,7,,,,62,75
154560,note_on,160,0,21,,,,,,,,14,,,,59,75
154560,note_on,160,0,2,,,,,,,,0,,,,74,75
154560,note_on,160,0,22,,,,,,,,15,,,,47,75
154560,note_on,160,0,5,,,,,,,,3,,,,74,75
154560,note_on,160,0,4,,,,,,,,2,,,,74,75
154560,note_on,160,0,6,,,,,,,,3,,,,71,75
154560,note_on,160,0,8,,,,,,,,4,,,,38,75
154640,note_off,80,0,16,,,,,,,,8,,,,38,64
154640,note_off,80,0,17,,,,,,,,10,,,,50,64
154640,note_off,80,0,14,,,,,,,,7,,,,59,64
154640,note_off,80,0,13,,,,,,,,7,,,,62,64
154640,note_off,80,0,15,,,,,,,,7,,,,55,64
154640,note_off,80,0,8,,,,,,,,4,,,,38,64
154680,note_off,120,0,2,,,,,,,,0,,,,74,64
154680,note_on,0,0,6,,,,,,,,3,,,,73,75
154680,note_off,120,0,6,,,,,,,,3,,,,71,64
154680,note_off,120,0,5,,,,,,,,3,,,,74,64
154680,note_on,0,0,5,,,,,,,,3,,,,76,75
154680,note_off,120,0,22,,,,,,,,15,,,,47,64
154680,note_on,0,0,22,,,,,,,,15,,,,49,75
154680,note_on,0,0,20,,,,,,,,13,,,,73,75
154680,note_on,0,0,4,,,,,,,,2,,,,76,75
154680,note_off,120,0,21,,,,,,,,14,,,,59,64
154680,note_off,120,0,20,,,,,,,,13,,,,71,64
154680,note_on,0,0,19,,,,,,,,12,,,,76,75
154680,note_on,0,0,2,,,,,,,,0,,,,76,75
154680,note_off,120,0,7,,,,,,,,4,,,,59,64
154680,note_on,0,0,7,,,,,,,,4,,,,61,75
154680,note_off,120,0,19,,,,,,,,12,,,,74,64
154680,note_on,0,0,21,,,,,,,,14,,,,61,75
154680,note_off,120,0,4,,,,,,,,2,,,,74,64
154760,note_off,80,0,4,,,,,,,,2,,,,76,64
154760,note_off,80,0,22,,,,,,,,15,,,,49,64
154760,note_off,80,0,21,,,,,,,,14,,,,61,64
154760,note_off,80,0,7,,,,,,,,4,,,,61,64
154760,note_off,80,0,19,,,,,,,,12,,,,76,64
154760,note_off,80,0,5,,,,,,,,3,,,,76,64
154760,note_off,80,0,6,,,,,,,,3,,,,73,64
154760,note_off,80,0,20,,,,,,,,13,,,,73,64
154760,note_off,80,0,2,,,,,,,,0,,,,76,64
154800,note_on,160,0,13,,,,,,,,7,,,,62,75
154800,note_on,40,0,21,,,,,,,,14,,,,59,75
154800,note_on,40,0,2,,,,,,,,0,,,,74,75
154800,note_on,160,0,15,,,,,,,,7,,,,55,75
154800,note_on,40,0,22,,,,,,,,15,,,,47,75
154800,note_on,40,0,19,,,,,,,,12,,,,74,75
154800,note_on,160,0,16,,,,,,,,8,,,,38,75
154800,note_on,160,0,17,,,,,,,,10,,,,50,75
154800,note_on,160,0,14,,,,,,,,7,,,,59,75
154800,note_on,40,0,20,,,,,,,,13,,,,71,75
154800,note_on,40,0,7,,,,,,,,4,,,,59,75
154800,note_on,160,0,8,,,,,,,,4,,,,38,75
154800,note_on,40,0,5,,,,,,,,3,,,,74,75
154800,note_on,40,0,6,,,,,,,,3,,,,71,75
154800,note_on,40,0,4,,,,,,,,2,,,,74,75
154880,note_off,80,0,5,,,,,,,,3,,,,74,64
154880,note_off,80,0,4,,,,,,,,2,,,,74,64
154880,note_off,80,0,19,,,,,,,,12,,,,74,64
154880,note_off,80,0,6,,,,,,,,3,,,,71,64
154880,note_off,80,0,14,,,,,,,,7,,,,59,64
154880,note_off,80,0,2,,,,,,,,0,,,,74,64
154880,note_off,80,0,17,,,,,,,,10,,,,50,64
154880,note_off,80,0,8,,,,,,,,4,,,,38,64
154880,note_off,80,0,15,,,,,,,,7,,,,55,64
154880,note_off,80,0,22,,,,,,,,15,,,,47,64
154880,note_off,80,0,16,,,,,,,,8,,,,38,64
154880,note_off,80,0,20,,,,,,,,13,,,,71,64
154880,note_off,80,0,13,,,,,,,,7,,,,62,64
154880,note_off,80,0,21,,,,,,,,14,,,,59,64
154880,note_off,80,0,7,,,,,,,,4,,,,59,64
155040,note_on,160,0,21,,,,,,,,14,,,,61,75
155040,note_on,160,0,2,,,,,,,,0,,,,76,75
155040,note_on,160,0,22,,,,,,,,15,,,,49,75
155040,note_on,160,0,16,,,,,,,,8,,,,45,75
155040,note_on,160,0,15,,,,,,,,7,,,,57,75
155040,note_on,160,0,13,,,,,,,,7,,,,64,75
155040,note_on,160,0,14,,,,,,,,7,,,,61,75
155040,note_on,160,0,5,,,,,,,,3,,,,76,75
155040,note_on,160,0,17,,,,,,,,10,,,,45,75
155040,note_on,160,0,7,,,,,,,,4,,,,61,75
155040,note_on,160,0,6,,,,,,,,3,,,,73,75
155040,note_on,160,0,8,,,,,,,,4,,,,45,75
155040,note_on,160,0,19,,,,,,,,12,,,,76,75
155040,note_on,160,0,20,,,,,,,,13,,,,73,75
155040,note_on,160,0,4,,,,,,,,2,,,,76,75
155120,note_off,80,0,2,,,,,,,,0,,,,76,64
155120,note_off,80,0,4,,,,,,,,2,,,,76,64
155120,note_off,80,0,20,,,,,,,,13,,,,73,64
155120,note_off,80,0,5,,,,,,,,3,,,,76,64
155120,note_off,80,0,6,,,,,,,,3,,,,73,64
155120,note_off,80,0,19,,,,,,,,12,,,,76,64
155275,note_off,1675,0,9,,,,,,,,5,,,,67,64
155275,note_off,1675,0,18,,,,,,,,11,,,,79,64
155275,note_off,1675,0,3,,,,,,,,2,,,,79,64
155275,note_off,1675,0,11,,,,,,,,6,,,,79,64
155275,note_off,1675,0,12,,,,,,,,6,,,,76,64
155275,note_off,235,0,13,,,,,,,,7,,,,64,64
155275,note_off,1675,0,10,,,,,,,,5,,,,64,64
155275,note_off,1675,0,1,,,,,,,,0,,,,79,64
155280,note_on,5,0,9,,,,,,,,5,,,,64,75
155280,note_on,5,0,3,,,,,,,,2,,,,76,75
155280,note_on,160,0,4,,,,,,,,2,,,,73,75
155280,note_on,5,0,13,,,,,,,,7,,,,57,75
155280,note_on,160,0,5,,,,,,,,3,,,,73,75
155280,note_on,5,0,18,,,,,,,,11,,,,76,92
155280,note_on,160,0,2,,,,,,,,0,,,,73,75
155280,note_on,5,0,12,,,,,,,,6,,,,69,75
155280,note_on,5,0,10,,,,,,,,5,,,,61,75
155280,note_on,160,0,6,,,,,,,,3,,,,69,75
155280,note_on,160,0,20,,,,,,,,13,,,,69,75
155280,note_on,160,0,19,,,,,,,,12,,,,73,75
155280,note_on,5,0,11,,,,,,,,6,,,,76,75
155280,note_on,5,0,1,,,,,,,,0,,,,76,75
155360,note_off,80,0,12,,,,,,,,6,,,,69,64
155360,note_off,80,0,10,,,,,,,,5,,,,61,64
155360,note_off,80,0,6,,,,,,,,3,,,,69,64
155360,note_off,80,0,18,,,,,,,,11,,,,76,64
155360,note_off,80,0,4,,,,,,,,2,,,,73,64
155360,note_off,80,0,11,,,,,,,,6,,,,76,64
155360,note_off,80,0,9,,,,,,,,5,,,,64,64
155360,note_off,80,0,3,,,,,,,,2,,,,76,64
155360,note_off,80,0,5,,,,,,,,3,,,,73,64
155360,note_off,80,0,2,,,,,,,,0,,,,73,64
155360,note_off,80,0,1,,,,,,,,0,,,,76,64
155360,note_off,80,0,20,,,,,,,,13,,,,69,64
155360,note_off,80,0,19,,,,,,,,12,,,,73,64
155360,note_off,80,0,13,,,,,,,,7,,,,57,64
155440,note_off,400,0,15,,,,,,,,7,,,,57,64
155440,note_off,400,0,14,,,,,,,,7,,,,61,64
155440,note_off,400,0,8,,,,,,,,4,,,,45,64
155440,note_off,400,0,17,,,,,,,,10,,,,45,64
155440,note_off,400,0,16,,,,,,,,8,,,,45,64
155520,note_on,160,0,13,,,,,,,,7,,,,57,75
155520,note_on,160,0,11,,,,,,,,6,,,,81,75
155520,note_on,160,0,20,,,,,,,,13,,,,73,75
155520,note_on,160,0,2,,,,,,,,0,,,,76,75
155520,note_on,160,0,10,,,,,,,,5,,,,64,75
155520,note_on,160,0,6,,,,,,,,3,,,,73,75
155520,note_on,160,0,19,,,,,,,,12,,,,76,75
155520,note_on,160,0,1,,,,,,,,0,,,,81,75
155520,note_on,160,0,12,,,,,,,,6,,,,69,75
155520,note_on,160,0,18,,,,,,,,11,,,,81,92
155520,note_on,160,0,9,,,,,,,,5,,,,69,75
155520,note_on,160,0,5,,,,,,,,3,,,,76,75
155520,note_on,160,0,3,,,,,,,,2,,,,81,75
155520,note_on,160,0,4,,,,,,,,2,,,,76,75
155600,note_off,80,0,9,,,,,,,,5,,,,69,64
155600,note_off,80,0,10,,,,,,,,5,,,,64,64
155600,note_off,80,0,12,,,,,,,,6,,,,69,64
155600,note_off,80,0,6,,,,,,,,3,,,,73,64
155600,note_off,80,0,20,,,,,,,,13,,,,73,64
155600,note_off,80,0,19,,,,,,,,12,,,,76,64
155600,note_off,80,0,5,,,,,,,,3,,,,76,64
155600,note_off,80,0,13,,,,,,,,7,,,,57,64
155600,note_off,80,0,11,,,,,,,,6,,,,81,64
155600,note_off,80,0,18,,,,,,,,11,,,,81,64
155600,note_off,80,0,1,,,,,,,,0,,,,81,64
155600,note_off,80,0,2,,,,,,,,0,,,,76,64
155600,note_off,80,0,3,,,,,,,,2,,,,81,64
155600,note_off,80,0,4,,,,,,,,2,,,,76,64
155680,note_off,640,0,21,,,,,,,,14,,,,61,64
155680,note_off,640,0,7,,,,,,,,4,,,,61,64
155680,note_off,640,0,22,,,,,,,,15,,,,49,64
155760,note_on,80,0,21,,,,,,,,14,,,,57,75
155760,note_on,80,0,7,,,,,,,,4,,,,57,75
155760,note_on,160,0,11,,,,,,,,6,,,,79,75
155760,note_on,160,0,18,,,,,,,,11,,,,79,92
155760,note_on,160,0,3,,,,,,,,2,,,,79,75
155760,note_on,160,0,2,,,,,,,,0,,,,76,75
155760,note_on,160,0,9,,,,,,,,5,,,,67,75
155760,note_on,160,0,19,,,,,,,,12,,,,76,75
155760,note_on,160,0,4,,,,,,,,2,,,,76,75
155760,note_on,160,0,10,,,,,,,,5,,,,64,75
155760,note_on,80,0,22,,,,,,,,15,,,,45,75
155760,note_on,160,0,20,,,,,,,,13,,,,73,75
155760,note_on,160,0,12,,,,,,,,6,,,,76,75
155760,note_on,160,0,6,,,,,,,,3,,,,73,75
155760,note_on,160,0,13,,,,,,,,7,,,,64,75
155760,note_on,160,0,1,,,,,,,,0,,,,79,75
155760,note_on,160,0,5,,,,,,,,3,,,,76,75
155840,note_off,80,0,12,,,,,,,,6,,,,76,64
155840,note_off,80,0,13,,,,,,,,7,,,,64,64
155840,note_off,80,0,10,,,,,,,,5,,,,64,64
155840,note_off,80,0,5,,,,,,,,3,,,,76,64
155840,note_off,80,0,4,,,,,,,,2,,,,76,64
155840,note_off,80,0,3,,,,,,,,2,,,,79,64
155840,note_off,80,0,22,,,,,,,,15,,,,45,64
155840,note_off,80,0,9,,,,,,,,5,,,,67,64
155840,note_off,80,0,7,,,,,,,,4,,,,57,64
155840,note_off,80,0,18,,,,,,,,11,,,,79,64
155840,note_off,80,0,6,,,,,,,,3,,,,73,64
155840,note_off,80,0,2,,,,,,,,0,,,,76,64
155840,note_off,80,0,19,,,,,,,,12,,,,76,64
155840,note_off,80,0,21,,,,,,,,14,,,,57,64
155840,note_off,80,0,20,,,,,,,,13,,,,73,64
155840,note_off,80,0,11,,,,,,,,6,,,,79,64
155840,note_off,80,0,1,,,,,,,,0,,,,79,64
156000,note_on,160,0,1,,,,,,,,0,,,,78,75
156000,note_on,160,0,7,,,,,,,,4,,,,59,75
156000,note_on,160,0,21,,,,,,,,14,,,,59,75
156000,note_on,160,0,12,,,,,,,,6,,,,74,75
156000,note_on,160,0,11,,,,,,,,6,,,,78,75
156000,note_on,160,0,6,,,,,,,,3,,,,69,75
156000,note_on,160,0,13,,,,,,,,7,,,,62,75
156000,note_on,160,0,5,,,,,,,,3,,,,73,75
156000,note_on,160,0,3,,,,,,,,2,,,,78,75
156000,note_on,160,0,22,,,,,,,,15,,,,47,75
156000,note_on,160,0,18,,,,,,,,11,,,,78,92
156000,note_on,160,0,4,,,,,,,,2,,,,73,75
156000,note_on,160,0,19,,,,,,,,12,,,,73,75
156000,note_on,160,0,2,,,,,,,,0,,,,73,75
156000,note_on,160,0,20,,,,,,,,13,,,,69,75
156000,note_on,160,0,9,,,,,,,,5,,,,66,75
156000,note_on,160,0,10,,,,,,,,5,,,,62,75
156080,note_off,80,0,22,,,,,,,,15,,,,47,64
156080,note_off,80,0,6,,,,,,,,3,,,,69,64
156080,note_off,80,0,7,,,,,,,,4,,,,59,64
156080,note_off,80,0,20,,,,,,,,13,,,,69,64
156080,note_off,80,0,13,,,,,,,,7,,,,62,64
156080,note_off,80,0,3,,,,,,,,2,,,,78,64
156080,note_off,80,0,18,,,,,,,,11,,,,78,64
156080,note_off,80,0,4,,,,,,,,2,,,,73,64
156080,note_off,80,0,19,,,,,,,,12,,,,73,64
156080,note_off,80,0,10,,,,,,,,5,,,,62,64
156080,note_off,80,0,2,,,,,,,,0,,,,73,64
156080,note_off,80,0,9,,,,,,,,5,,,,66,64
156080,note_off,80,0,12,,,,,,,,6,,,,74,64
156080,note_off,80,0,1,,,,,,,,0,,,,78,64
156080,note_off,80,0,21,,,,,,,,14,,,,59,64
156080,note_off,80,0,5,,,,,,,,3,,,,73,64
156080,note_off,80,0,11,,,,,,,,6,,,,78,64
156240,note_on,160,0,9,,,,,,,,5,,,,64,75
156240,note_on,160,0,13,,,,,,,,7,,,,57,75
156240,note_on,160,0,6,,,,,,,,3,,,,69,75
156240,note_on,160,0,12,,,,,,,,6,,,,69,75
156240,note_on,160,0,21,,,,,,,,14,,,,61,75
156240,note_on,160,0,3,,,,,,,,2,,,,76,75
156240,note_on,160,0,11,,,,,,,,6,,,,76,75
156240,note_on,160,0,1,,,,,,,,0,,,,76,75
156240,note_on,160,0,7,,,,,,,,4,,,,61,75
156240,note_on,160,0,4,,,,,,,,2,,,,73,75
156240,note_on,160,0,20,,,,,,,,13,,,,69,75
156240,note_on,160,0,18,,,,,,,,11,,,,76,92
156240,note_on,160,0,10,,,,,,,,5,,,,57,75
156240,note_on,160,0,22,,,,,,,,15,,,,49,75
156240,note_on,160,0,19,,,,,,,,12,,,,73,75
156240,note_on,160,0,2,,,,,,,,0,,,,73,75
156240,note_on,160,0,5,,,,,,,,3,,,,73,75
156320,note_off,80,0,12,,,,,,,,6,,,,69,64
156320,note_off,80,0,3,,,,,,,,2,,,,76,64
156320,note_off,80,0,20,,,,,,,,13,,,,69,64
156320,note_off,80,0,4,,,,,,,,2,,,,73,64
156320,note_off,80,0,18,,,,,,,,11,,,,76,64
156320,note_off,80,0,7,,,,,,,,4,,,,61,64
156320,note_off,80,0,13,,,,,,,,7,,,,57,64
156320,note_off,80,0,19,,,,,,,,12,,,,73,64
156320,note_off,80,0,9,,,,,,,,5,,,,64,64
156320,note_off,80,0,5,,,,,,,,3,,,,73,64
156320,note_off,80,0,22,,,,,,,,15,,,,49,64
156320,note_off,80,0,10,,,,,,,,5,,,,57,64
156320,note_off,80,0,6,,,,,,,,3,,,,69,64
156320,note_off,80,0,1,,,,,,,,0,,,,76,64
156320,note_off,80,0,11,,,,,,,,6,,,,76,64
156320,note_off,80,0,21,,,,,,,,14,,,,61,64
156320,note_off,80,0,2,,,,,,,,0,,,,73,64
156480,note_on,160,0,13,,,,,,,,7,,,,62,75
156480,note_on,160,0,4,,,,,,,,2,,,,74,75
156480,note_on,160,0,10,,,,,,,,5,,,,62,75
156480,note_on,160,0,19,,,,,,,,12,,,,74,75
156480,note_on,160,0,21,,,,,,,,14,,,,62,75
156480,note_on,160,0,1,,,,,,,,0,,,,78,75
156480,note_on,160,0,7,,,,,,,,4,,,,62,75
156480,note_on,160,0,2,,,,,,,,0,,,,74,75
156480,note_on,160,0,3,,,,,,,,2,,,,78,75
156480,note_on,160,0,22,,,,,,,,15,,,,50,75
156480,note_on,160,0,12,,,,,,,,6,,,,74,75
156480,note_on,160,0,6,,,,,,,,3,,,,69,75
156480,note_on,160,0,18,,,,,,,,11,,,,78,92
156480,note_on,160,0,11,,,,,,,,6,,,,78,75
156480,note_on,160,0,9,,,,,,,,5,,,,66,75
156480,note_on,160,0,5,,,,,,,,3,,,,74,75
156480,note_on,160,0,20,,,,,,,,13,,,,69,75
156560,note_off,80,0,2,,,,,,,,0,,,,74,64
156560,note_off,80,0,19,,,,,,,,12,,,,74,64
156560,note_off,80,0,18,,,,,,,,11,,,,78,64
156560,note_off,80,0,1,,,,,,,,0,,,,78,64
156560,note_off,80,0,4,,,,,,,,2,,,,74,64
156560,note_off,80,0,11,,,,,,,,6,,,,78,64
156560,note_off,80,0,5,,,,,,,,3,,,,74,64
156560,note_off,80,0,3,,,,,,,,2,,,,78,64
156560,note_off,80,0,12,,,,,,,,6,,,,74,64
156560,note_off,80,0,6,,,,,,,,3,,,,69,64
156560,note_off,80,0,13,,,,,,,,7,,,,62,64
156560,note_off,80,0,20,,,,,,,,13,,,,69,64
156720,note_on,1280,0,15,,,,,,,,7,,,,50,76
156720,note_on,160,0,11,,,,,,,,6,,,,74,76
156720,note_on,160,0,3,,,,,,,,2,,,,74,76
156720,note_on,160,0,20,,,,,,,,13,,,,66,76
156720,note_on,160,0,19,,,,,,,,12,,,,69,76
156720,note_on,1280,0,14,,,,,,,,7,,,,54,76
156720,note_on,160,0,2,,,,,,,,0,,,,69,76
156720,note_on,160,0,1,,,,,,,,0,,,,74,76
156720,note_on,1280,0,8,,,,,,,,4,,,,38,76
156720,note_on,1280,0,16,,,,,,,,8,,,,38,76
156720,note_on,160,0,6,,,,,,,,3,,,,66,76
156720,note_on,160,0,5,,,,,,,,3,,,,69,76
156720,note_on,160,0,12,,,,,,,,6,,,,69,76
156720,note_on,160,0,13,,,,,,,,7,,,,57,76
156720,note_on,1280,0,17,,,,,,,,10,,,,50,76
156720,note_on,160,0,4,,,,,,,,2,,,,69,76
156720,note_on,160,0,18,,,,,,,,11,,,,74,93
156800,note_off,80,0,12,,,,,,,,6,,,,69,64
156800,note_off,80,0,13,,,,,,,,7,,,,57,64
156800,note_off,80,0,6,,,,,,,,3,,,,66,64
156800,note_off,80,0,4,,,,,,,,2,,,,69,64
156800,note_off,80,0,19,,,,,,,,12,,,,69,64
156800,note_off,80,0,18,,,,,,,,11,,,,74,64
156800,note_off,80,0,1,,,,,,,,0,,,,74,64
156800,note_off,80,0,15,,,,,,,,7,,,,50,64
156800,note_off,80,0,11,,,,,,,,6,,,,74,64
156800,note_off,80,0,17,,,,,,,,10,,,,50,64
156800,note_off,80,0,20,,,,,,,,13,,,,66,64
156800,note_off,80,0,5,,,,,,,,3,,,,69,64
156800,note_off,80,0,2,,,,,,,,0,,,,69,64
156800,note_off,80,0,14,,,,,,,,7,,,,54,64
156800,note_off,80,0,3,,,,,,,,2,,,,74,64
156800,note_off,80,0,16,,,,,,,,8,,,,38,64
156800,note_off,80,0,8,,,,,,,,4,,,,38,64
156880,note_off,400,0,9,,,,,,,,5,,,,66,64
156880,note_off,400,0,10,,,,,,,,5,,,,62,64
156960,note_on,160,0,17,,,,,,,,10,,,,50,77
156960,note_on,160,0,1,,,,,,,,0,,,,74,77
156960,note_on,160,0,16,,,,,,,,8,,,,38,77
156960,note_on,160,0,12,,,,,,,,6,,,,69,77
156960,note_on,160,0,4,,,,,,,,2,,,,69,77
156960,note_on,160,0,19,,,,,,,,12,,,,69,77
156960,note_on,160,0,18,,,,,,,,11,,,,74,94
156960,note_on,160,0,14,,,,,,,,7,,,,54,77
156960,note_on,160,0,6,,,,,,,,3,,,,66,77
156960,note_on,160,0,5,,,,,,,,3,,,,69,77
156960,note_on,160,0,11,,,,,,,,6,,,,74,77
156960,note_on,160,0,8,,,,,,,,4,,,,38,77
156960,note_on,160,0,2,,,,,,,,0,,,,69,77
156960,note_on,160,0,13,,,,,,,,7,,,,57,77
156960,note_on,160,0,15,,,,,,,,7,,,,50,77
156960,note_on,160,0,3,,,,,,,,2,,,,74,77
156960,note_on,160,0,20,,,,,,,,13,,,,66,77
157040,note_off,80,0,16,,,,,,,,8,,,,38,64
157040,note_off,80,0,2,,,,,,,,0,,,,69,64
157040,note_off,80,0,1,,,,,,,,0,,,,74,64
157040,note_off,80,0,20,,,,,,,,13,,,,66,64
157040,note_off,80,0,14,,,,,,,,7,,,,54,64
157040,note_off,80,0,17,,,,,,,,10,,,,50,64
157040,note_off,80,0,6,,,,,,,,3,,,,66,64
157040,note_off,80,0,13,,,,,,,,7,,,,57,64
157040,note_off,80,0,18,,,,,,,,11,,,,74,64
157040,note_off,80,0,8,,,,,,,,4,,,,38,64
157040,note_off,80,0,19,,,,,,,,12,,,,69,64
157040,note_off,80,0,5,,,,,,,,3,,,,69,64
157040,note_off,80,0,3,,,,,,,,2,,,,74,64
157040,note_off,80,0,12,,,,,,,,6,,,,69,64
157040,note_off,80,0,4,,,,,,,,2,,,,69,64
157040,note_off,80,0,11,,,,,,,,6,,,,74,64
157040,note_off,80,0,15,,,,,,,,7,,,,50,64
157120,note_off,640,0,7,,,,,,,,4,,,,62,64
157120,note_off,640,0,22,,,,,,,,15,,,,50,64
157120,note_off,640,0,21,,,,,,,,14,,,,62,64
157200,note_on,160,0,20,,,,,,,,13,,,,69,78
157200,note_on,160,0,8,,,,,,,,4,,,,38,78
157200,note_on,80,0,7,,,,,,,,4,,,,61,79
157200,note_on,160,0,17,,,,,,,,10,,,,50,78
157200,note_on,160,0,15,,,,,,,,7,,,,54,78
157200,note_on,80,0,21,,,,,,,,14,,,,61,79
157200,note_on,160,0,4,,,,,,,,2,,,,74,78
157200,note_on,160,0,1,,,,,,,,0,,,,78,78
157200,note_on,80,0,22,,,,,,,,15,,,,49,79
157200,note_on,160,0,13,,,,,,,,7,,,,62,78
157200,note_on,160,0,11,,,,,,,,6,,,,78,78
157200,note_on,160,0,2,,,,,,,,0,,,,74,78
157200,note_on,160,0,5,,,,,,,,3,,,,74,78
157200,note_on,160,0,3,,,,,,,,2,,,,78,78
157200,note_on,160,0,19,,,,,,,,12,,,,74,78
157200,note_on,160,0,12,,,,,,,,6,,,,74,78
157200,note_on,160,0,16,,,,,,,,8,,,,38,78
157200,note_on,160,0,18,,,,,,,,11,,,,78,95
157200,note_on,160,0,6,,,,,,,,3,,,,69,78
157200,note_on,160,0,14,,,,,,,,7,,,,57,78
157280,note_off,80,0,6,,,,,,,,3,,,,69,64
157280,note_off,80,0,17,,,,,,,,10,,,,50,64
157280,note_off,80,0,7,,,,,,,,4,,,,61,64
157280,note_off,80,0,20,,,,,,,,13,,,,69,64
157280,note_off,80,0,13,,,,,,,,7,,,,62,64
157280,note_off,80,0,16,,,,,,,,8,,,,38,64
157280,note_off,80,0,12,,,,,,,,6,,,,74,64
157280,note_off,80,0,8,,,,,,,,4,,,,38,64
157280,note_off,80,0,15,,,,,,,,7,,,,54,64
157280,note_off,80,0,19,,,,,,,,12,,,,74,64
157280,note_off,80,0,11,,,,,,,,6,,,,78,64
157280,note_off,80,0,2,,,,,,,,0,,,,74,64
157280,note_off,80,0,3,,,,,,,,2,,,,78,64
157280,note_off,80,0,1,,,,,,,,0,,,,78,64
157280,note_off,80,0,18,,,,,,,,11,,,,78,64
157280,note_off,80,0,22,,,,,,,,15,,,,49,64
157280,note_off,80,0,4,,,,,,,,2,,,,74,64
157280,note_off,80,0,5,,,,,,,,3,,,,74,64
157280,note_off,80,0,14,,,,,,,,7,,,,57,64
157280,note_off,80,0,21,,,,,,,,14,,,,61,64
157320,note_on,40,0,21,,,,,,,,14,,,,59,79
157320,note_on,40,0,22,,,,,,,,15,,,,47,79
157320,note_on,40,0,7,,,,,,,,4,,,,59,79
157400,note_off,80,0,7,,,,,,,,4,,,,59,64
157400,note_off,80,0,21,,,,,,,,14,,,,59,64
157400,note_off,80,0,22,,,,,,,,15,,,,47,64
157440,note_on,160,0,15,,,,,,,,7,,,,54,79
157440,note_on,160,0,13,,,,,,,,7,,,,62,79
157440,note_on,160,0,20,,,,,,,,13,,,,69,79
157440,note_on,160,0,16,,,,,,,,8,,,,38,79
157440,note_on,40,0,7,,,,,,,,4,,,,57,79
157440,note_on,160,0,11,,,,,,,,6,,,,78,79
157440,note_on,160,0,8,,,,,,,,4,,,,38,79
157440,note_on,160,0,3,,,,,,,,2,,,,78,79
157440,note_on,160,0,12,,,,,,,,6,,,,74,79
157440,note_on,160,0,1,,,,,,,,0,,,,78,79
157440,note_on,160,0,18,,,,,,,,11,,,,78,96
157440,note_on,160,0,6,,,,,,,,3,,,,69,79
157440,note_on,160,0,14,,,,,,,,7,,,,57,79
157440,note_on,160,0,5,,,,,,,,3,,,,74,79
157440,note_on,160,0,19,,,,,,,,12,,,,74,79
157440,note_on,160,0,17,,,,,,,,10,,,,50,79
157440,note_on,40,0,21,,,,,,,,14,,,,57,79
157440,note_on,40,0,22,,,,,,,,15,,,,45,79
157440,note_on,160,0,4,,,,,,,,2,,,,74,79
157440,note_on,160,0,2,,,,,,,,0,,,,74,79
157520,note_off,80,0,1,,,,,,,,0,,,,78,64
157520,note_off,80,0,2,,,,,,,,0,,,,74,64
157520,note_off,80,0,5,,,,,,,,3,,,,74,64
157520,note_off,80,0,22,,,,,,,,15,,,,45,64
157520,note_off,80,0,16,,,,,,,,8,,,,38,64
157520,note_off,80,0,13,,,,,,,,7,,,,62,64
157520,note_off,80,0,21,,,,,,,,14,,,,57,64
157520,note_off,80,0,20,,,,,,,,13,,,,69,64
157520,note_off,80,0,18,,,,,,,,11,,,,78,64
157520,note_off,80,0,17,,,,,,,,10,,,,50,64
157520,note_off,80,0,19,,,,,,,,12,,,,74,64
157520,note_off,80,0,14,,,,,,,,7,,,,57,64
157520,note_off,80,0,3,,,,,,,,2,,,,78,64
157520,note_off,80,0,15,,,,,,,,7,,,,54,64
157520,note_off,80,0,4,,,,,,,,2,,,,74,64
157520,note_off,80,0,11,,,,,,,,6,,,,78,64
157520,note_off,80,0,8,,,,,,,,4,,,,38,64
157520,note_off,80,0,12,,,,,,,,6,,,,74,64
157520,note_off,80,0,7,,,,,,,,4,,,,57,64
157520,note_off,80,0,6,,,,,,,,3,,,,69,64
157560,note_on,40,0,21,,,,,,,,14,,,,55,79
157560,note_on,40,0,7,,,,,,,,4,,,,55,79
157560,note_on,40,0,22,,,,,,,,15,,,,43,79
157640,note_off,80,0,22,,,,,,,,15,,,,43,64
157640,note_off,80,0,7,,,,,,,,4,,,,55,64
157640,note_off,80,0,21,,,,,,,,14,,,,55,64
157680,note_on,160,0,19,,,,,,,,12,,,,78,80
157680,note_on,160,0,16,,,,,,,,8,,,,38,80
157680,note_on,160,0,1,,,,,,,,0,,,,81,80
157680,note_on,160,0,4,,,,,,,,2,,,,78,80
157680,note_on,160,0,5,,,,,,,,3,,,,78,80
157680,note_on,160,0,11,,,,,,,,6,,,,81,80
157680,note_on,160,0,15,,,,,,,,7,,,,57,80
157680,note_on,160,0,3,,,,,,,,2,,,,81,80
157680,note_on,40,0,22,,,,,,,,15,,,,42,79
157680,note_on,40,0,21,,,,,,,,14,,,,54,79
157680,note_on,160,0,14,,,,,,,,7,,,,62,80
157680,note_on,160,0,6,,,,,,,,3,,,,74,80
157680,note_on,160,0,17,,,,,,,,10,,,,50,80
157680,note_on,160,0,12,,,,,,,,6,,,,78,80
157680,note_on,160,0,18,,,,,,,,11,,,,81,97
157680,note_on,160,0,2,,,,,,,,0,,,,78,80
157680,note_on,160,0,8,,,,,,,,4,,,,38,80
157680,note_on,40,0,7,,,,,,,,4,,,,54,79
157680,note_on,160,0,20,,,,,,,,13,,,,74,80
157680,note_on,160,0,13,,,,,,,,7,,,,66,80
157760,note_off,80,0,6,,,,,,,,3,,,,74,64
157760,note_off,80,0,11,,,,,,,,6,,,,81,64
157760,note_off,80,0,8,,,,,,,,4,,,,38,64
157760,note_off,80,0,17,,,,,,,,10,,,,50,64
157760,note_off,80,0,7,,,,,,,,4,,,,54,64
157760,note_off,80,0,3,,,,,,,,2,,,,81,64
157760,note_off,80,0,20,,,,,,,,13,,,,74,64
157760,note_off,80,0,22,,,,,,,,15,,,,42,64
157760,note_off,80,0,13,,,,,,,,7,,,,66,64
157760,note_off,80,0,1,,,,,,,,0,,,,81,64
157760,note_off,80,0,15,,,,,,,,7,,,,57,64
157760,note_off,80,0,18,,,,,,,,11,,,,81,64
157760,note_off,80,0,14,,,,,,,,7,,,,62,64
157760,note_off,80,0,5,,,,,,,,3,,,,78,64
157760,note_off,80,0,4,,,,,,,,2,,,,78,64
157760,note_off,80,0,19,,,,,,,,12,,,,78,64
157760,note_off,80,0,16,,,,,,,,8,,,,38,64
157760,note_off,80,0,12,,,,,,,,6,,,,78,64
157760,note_off,80,0,21,,,,,,,,14,,,,54,64
157760,note_off,80,0,2,,,,,,,,0,,,,78,64
157800,note_on,40,0,7,,,,,,,,4,,,,52,79
157800,note_on,40,0,21,,,,,,,,14,,,,52,79
157800,note_on,40,0,22,,,,,,,,15,,,,40,79
157880,note_off,80,0,21,,,,,,,,14,,,,52,64
157880,note_off,80,0,22,,,,,,,,15,,,,40,64
157880,note_off,80,0,7,,,,,,,,4,,,,52,64
157920,note_on,40,0,21,,,,,,,,14,,,,50,80
157920,note_on,40,0,22,,,,,,,,15,,,,38,80
157920,note_on,160,0,14,,,,,,,,7,,,,62,81
157920,note_on,160,0,13,,,,,,,,7,,,,66,81
157920,note_on,160,0,20,,,,,,,,13,,,,74,81
157920,note_on,160,0,15,,,,,,,,7,,,,57,81
157920,note_on,160,0,18,,,,,,,,11,,,,81,98
157920,note_on,160,0,19,,,,,,,,12,,,,78,81
157920,note_on,160,0,12,,,,,,,,6,,,,78,81
157920,note_on,160,0,16,,,,,,,,8,,,,38,81
157920,note_on,160,0,17,,,,,,,,10,,,,50,81
157920,note_on,160,0,11,,,,,,,,6,,,,81,81
157920,note_on,160,0,4,,,,,,,,2,,,,78,81
157920,note_on,160,0,2,,,,,,,,0,,,,78,81
157920,note_on,160,0,5,,,,,,,,3,,,,78,81
157920,note_on,160,0,3,,,,,,,,2,,,,81,81
157920,note_on,160,0,6,,,,,,,,3,,,,74,81
157920,note_on,160,0,8,,,,,,,,4,,,,38,81
157920,note_on,160,0,1,,,,,,,,0,,,,81,81
157920,note_on,40,0,7,,,,,,,,4,,,,50,80
158000,note_off,80,0,18,,,,,,,,11,,,,81,64
158000,note_off,80,0,2,,,,,,,,0,,,,78,64
158000,note_off,80,0,14,,,,,,,,7,,,,62,64
158000,note_off,80,0,4,,,,,,,,2,,,,78,64
158000,note_off,80,0,20,,,,,,,,13,,,,74,64
158000,note_off,80,0,11,,,,,,,,6,,,,81,64
158000,note_off,80,0,19,,,,,,,,12,,,,78,64
158000,note_off,80,0,13,,,,,,,,7,,,,66,64
158000,note_off,80,0,5,,,,,,,,3,,,,78,64
158000,note_off,80,0,12,,,,,,,,6,,,,78,64
158000,note_off,80,0,3,,,,,,,,2,,,,81,64
158000,note_off,80,0,15,,,,,,,,7,,,,57,64
158000,note_off,80,0,1,,,,,,,,0,,,,81,64
158000,note_off,80,0,6,,,,,,,,3,,,,74,64
158160,note_on,160,0,18,,,,,,,,11,,,,78,99
158160,note_on,160,0,2,,,,,,,,0,,,,74,82
158160,note_on,160,0,19,,,,,,,,12,,,,74,82
158160,note_on,160,0,5,,,,,,,,3,,,,74,82
158160,note_on,160,0,1,,,,,,,,0,,,,78,82
158160,note_on,160,0,15,,,,,,,,7,,,,54,82
158160,note_on,160,0,4,,,,,,,,2,,,,74,82
158160,note_on,160,0,13,,,,,,,,7,,,,62,82
158160,note_on,160,0,20,,,,,,,,13,,,,66,82
158160,note_on,160,0,14,,,,,,,,7,,,,57,82
158160,note_on,160,0,6,,,,,,,,3,,,,69,82
158160,note_on,160,0,12,,,,,,,,6,,,,74,82
158160,note_on,160,0,3,,,,,,,,2,,,,78,82
158160,note_on,160,0,11,,,,,,,,6,,,,78,82
158240,note_off,80,0,4,,,,,,,,2,,,,74,64
158240,note_off,80,0,18,,,,,,,,11,,,,78,64
158240,note_off,80,0,6,,,,,,,,3,,,,69,64
158240,note_off,80,0,15,,,,,,,,7,,,,54,64
158240,note_off,80,0,1,,,,,,,,0,,,,78,64
158240,note_off,80,0,20,,,,,,,,13,,,,66,64
158240,note_off,80,0,13,,,,,,,,7,,,,62,64
158240,note_off,80,0,3,,,,,,,,2,,,,78,64
158240,note_off,80,0,19,,,,,,,,12,,,,74,64
158240,note_off,80,0,11,,,,,,,,6,,,,78,64
158240,note_off,80,0,5,,,,,,,,3,,,,74,64
158240,note_off,80,0,14,,,,,,,,7,,,,57,64
158240,note_off,80,0,12,,,,,,,,6,,,,74,64
158240,note_off,80,0,2,,,,,,,,0,,,,74,64
158400,note_on,160,0,18,,,,,,,,11,,,,78,100
158400,note_on,160,0,6,,,,,,,,3,,,,69,84
158400,note_on,160,0,15,,,,,,,,7,,,,54,84
158400,note_on,160,0,1,,,,,,,,0,,,,78,84
158400,note_on,160,0,13,,,,,,,,7,,,,62,84
158400,note_on,160,0,14,,,,,,,,7,,,,57,84
158400,note_on,160,0,20,,,,,,,,13,,,,66,84
158400,note_on,160,0,12,,,,,,,,6,,,,74,84
158400,note_on,160,0,11,,,,,,,,6,,,,78,84
158400,note_on,160,0,2,,,,,,,,0,,,,74,84
158400,note_on,160,0,5,,,,,,,,3,,,,74,84
158400,note_on,160,0,19,,,,,,,,12,,,,74,84
158400,note_on,160,0,3,,,,,,,,2,,,,78,84
158400,note_on,160,0,4,,,,,,,,2,,,,74,84
158480,note_off,80,0,6,,,,,,,,3,,,,69,64
158480,note_off,80,0,18,,,,,,,,11,,,,78,64
158480,note_off,80,0,19,,,,,,,,12,,,,74,64
158480,note_off,80,0,4,,,,,,,,2,,,,74,64
158480,note_off,80,0,5,,,,,,,,3,,,,74,64
158480,note_off,80,0,12,,,,,,,,6,,,,74,64
158480,note_off,80,0,2,,,,,,,,0,,,,74,64
158480,note_off,80,0,14,,,,,,,,7,,,,57,64
158480,note_off,80,0,1,,,,,,,,0,,,,78,64
158480,note_off,80,0,11,,,,,,,,6,,,,78,64
158480,note_off,80,0,20,,,,,,,,13,,,,66,64
158480,note_off,80,0,15,,,,,,,,7,,,,54,64
158480,note_off,80,0,13,,,,,,,,7,,,,62,64
158480,note_off,80,0,3,,,,,,,,2,,,,78,64
158560,note_off,640,0,7,,,,,,,,4,,,,50,64
158560,note_off,640,0,21,,,,,,,,14,,,,50,64
158560,note_off,640,0,17,,,,,,,,10,,,,50,64
158560,note_off,640,0,16,,,,,,,,8,,,,38,64
158560,note_off,640,0,22,,,,,,,,15,,,,38,64
158560,note_off,640,0,8,,,,,,,,4,,,,38,64
158640,note_on,160,0,4,,,,,,,,2,,,,78,86
158640,note_on,80,0,16,,,,,,,,8,,,,38,86
158640,note_on,160,0,1,,,,,,,,0,,,,81,86
158640,note_on,160,0,14,,,,,,,,7,,,,62,86
158640,note_on,80,0,22,,,,,,,,15,,,,49,86
158640,note_on,160,0,13,,,,,,,,7,,,,66,86
158640,note_on,160,0,2,,,,,,,,0,,,,78,86
158640,note_on,160,0,15,,,,,,,,7,,,,57,86
158640,note_on,160,0,19,,,,,,,,12,,,,78,86
158640,note_on,160,0,12,,,,,,,,6,,,,78,86
158640,note_on,160,0,20,,,,,,,,13,,,,71,86
158640,note_on,160,0,6,,,,,,,,3,,,,74,86
158640,note_on,80,0,8,,,,,,,,4,,,,38,86
158640,note_on,160,0,3,,,,,,,,2,,,,81,86
158640,note_on,160,0,11,,,,,,,,6,,,,81,86
158640,note_on,80,0,7,,,,,,,,4,,,,49,86
158640,note_on,160,0,18,,,,,,,,11,,,,81,102
158640,note_on,80,0,17,,,,,,,,10,,,,50,86
158640,note_on,80,0,21,,,,,,,,14,,,,49,86
158640,note_on,160,0,5,,,,,,,,3,,,,78,86
158720,note_off,80,0,14,,,,,,,,7,,,,62,64
158720,note_off,80,0,11,,,,,,,,6,,,,81,64
158720,note_off,80,0,5,,,,,,,,3,,,,78,64
158720,note_off,80,0,3,,,,,,,,2,,,,81,64
158720,note_off,80,0,12,,,,,,,,6,,,,78,64
158720,note_off,80,0,7,,,,,,,,4,,,,49,64
158720,note_off,80,0,15,,,,,,,,7,,,,57,64
158720,note_off,80,0,17,,,,,,,,10,,,,50,64
158720,note_off,80,0,4,,,,,,,,2,,,,78,64
158720,note_off,80,0,22,,,,,,,,15,,,,49,64
158720,note_off,80,0,1,,,,,,,,0,,,,81,64
158720,note_off,80,0,18,,,,,,,,11,,,,81,64
158720,note_off,80,0,21,,,,,,,,14,,,,49,64
158720,note_off,80,0,8,,,,,,,,4,,,,38,64
158720,note_off,80,0,13,,,,,,,,7,,,,66,64
158720,note_off,80,0,20,,,,,,,,13,,,,71,64
158720,note_off,80,0,16,,,,,,,,8,,,,38,64
158720,note_off,80,0,19,,,,,,,,12,,,,78,64
158720,note_off,80,0,2,,,,,,,,0,,,,78,64
158720,note_off,80,0,6,,,,,,,,3,,,,74,64
158760,note_on,40,0,22,,,,,,,,15,,,,47,87
158760,note_on,40,0,21,,,,,,,,14,,,,47,87
158760,note_on,40,0,7,,,,,,,,4,,,,47,87
158840,note_off,80,0,7,,,,,,,,4,,,,47,64
158840,note_off,80,0,21,,,,,,,,14,,,,47,64
158840,note_off,80,0,22,,,,,,,,15,,,,47,64
158880,note_on,160,0,2,,,,,,,,0,,,,78,88
158880,note_on,160,0,18,,,,,,,,11,,,,81,104
158880,note_on,160,0,15,,,,,,,,7,,,,57,88
158880,note_on,160,0,12,,,,,,,,6,,,,78,88
158880,note_on,160,0,14,,,,,,,,7,,,,62,88
158880,note_on,160,0,19,,,,,,,,12,,,,78,88
158880,note_on,160,0,6,,,,,,,,3,,,,74,88
158880,note_on,40,0,22,,,,,,,,15,,,,45,88
158880,note_on,160,0,20,,,,,,,,13,,,,71,88
158880,note_on,160,0,11,,,,,,,,6,,,,81,88
158880,note_on,40,0,7,,,,,,,,4,,,,45,88
158880,note_on,160,0,8,,,,,,,,4,,,,38,88
158880,note_on,160,0,13,,,,,,,,7,,,,66,88
158880,note_on,40,0,21,,,,,,,,14,,,,45,88
158880,note_on,160,0,3,,,,,,,,2,,,,81,88
158880,note_on,160,0,16,,,,,,,,8,,,,38,88
158880,note_on,160,0,17,,,,,,,,10,,,,50,88
158880,note_on,160,0,1,,,,,,,,0,,,,81,88
158880,note_on,160,0,4,,,,,,,,2,,,,78,88
158880,note_on,160,0,5,,,,,,,,3,,,,78,88
158960,note_off,80,0,3,,,,,,,,2,,,,81,64
158960,note_off,80,0,1,,,,,,,,0,,,,81,64
158960,note_off,80,0,7,,,,,,,,4,,,,45,64
158960,note_off,80,0,22,,,,,,,,15,,,,45,64
158960,note_off,80,0,5,,,,,,,,3,,,,78,64
158960,note_off,80,0,12,,,,,,,,6,,,,78,64
158960,note_off,80,0,15,,,,,,,,7,,,,57,64
158960,note_off,80,0,6,,,,,,,,3,,,,74,64
158960,note_off,80,0,2,,,,,,,,0,,,,78,64
158960,note_off,80,0,19,,,,,,,,12,,,,78,64
158960,note_off,80,0,20,,,,,,,,13,,,,71,64
158960,note_off,80,0,11,,,,,,,,6,,,,81,64
158960,note_off,80,0,8,,,,,,,,4,,,,38,64
158960,note_off,80,0,21,,,,,,,,14,,,,45,64
158960,note_off,80,0,14,,,,,,,,7,,,,62,64
158960,note_off,80,0,18,,,,,,,,11,,,,81,64
158960,note_off,80,0,16,,,,,,,,8,,,,38,64
158960,note_off,80,0,4,,,,,,,,2,,,,78,64
158960,note_off,80,0,13,,,,,,,,7,,,,66,64
158960,note_off,80,0,17,,,,,,,,10,,,,50,64
159000,note_on,40,0,22,,,,,,,,15,,,,43,89
159000,note_on,40,0,7,,,,,,,,4,,,,43,89
159000,note_on,40,0,21,,,,,,,,14,,,,43,89
159080,note_off,80,0,22,,,,,,,,15,,,,43,64
159080,note_off,80,0,7,,,,,,,,4,,,,43,64
159080,note_off,80,0,21,,,,,,,,14,,,,43,64
159120,note_on,40,0,22,,,,,,,,15,,,,42,90
159120,note_on,160,0,4,,,,,,,,2,,,,81,90
159120,note_on,160,0,6,,,,,,,,3,,,,78,90
159120,note_on,160,0,16,,,,,,,,8,,,,38,90
159120,note_on,160,0,18,,,,,,,,11,,,,86,106
159120,note_on,160,0,2,,,,,,,,0,,,,81,90
159120,note_on,40,0,21,,,,,,,,14,,,,42,90
159120,note_on,160,0,8,,,,,,,,4,,,,38,90
159120,note_on,160,0,3,,,,,,,,2,,,,74,90
159120,note_on,160,0,11,,,,,,,,6,,,,74,90
159120,note_on,160,0,20,,,,,,,,13,,,,74,90
159120,note_on,160,0,15,,,,,,,,7,,,,54,90
159120,note_on,160,0,12,,,,,,,,6,,,,69,90
159120,note_on,160,0,17,,,,,,,,10,,,,50,90
159120,note_on,160,0,19,,,,,,,,12,,,,81,90
159120,note_on,40,0,7,,,,,,,,4,,,,42,90
159120,note_on,160,0,1,,,,,,,,0,,,,74,90
159120,note_on,160,0,13,,,,,,,,7,,,,57,90
159120,note_on,160,0,5,,,,,,,,3,,,,81,90
159120,note_on,160,0,14,,,,,,,,7,,,,57,90
159200,note_off,80,0,4,,,,,,,,2,,,,81,64
159200,note_off,80,0,17,,,,,,,,10,,,,50,64
159200,note_off,80,0,6,,,,,,,,3,,,,78,64
159200,note_off,80,0,1,,,,,,,,0,,,,74,64
159200,note_off,80,0,16,,,,,,,,8,,,,38,64
159200,note_off,80,0,18,,,,,,,,11,,,,86,64
159200,note_off,80,0,22,,,,,,,,15,,,,42,64
159200,note_off,80,0,2,,,,,,,,0,,,,81,64
159200,note_off,80,0,21,,,,,,,,14,,,,42,64
159200,note_off,80,0,8,,,,,,,,4,,,,38,64
159200,note_off,80,0,5,,,,,,,,3,,,,81,64
159200,note_off,80,0,12,,,,,,,,6,,,,69,64
159200,note_off,80,0,11,,,,,,,,6,,,,74,64
159200,note_off,80,0,14,,,,,,,,7,,,,57,64
159200,note_off,80,0,13,,,,,,,,7,,,,57,64
159200,note_off,80,0,7,,,,,,,,4,,,,42,64
159200,note_off,80,0,19,,,,,,,,12,,,,81,64
159200,note_off,80,0,3,,,,,,,,2,,,,74,64
159200,note_off,80,0,20,,,,,,,,13,,,,74,64
159200,note_off,80,0,15,,,,,,,,7,,,,54,64
159240,note_on,40,0,21,,,,,,,,14,,,,40,91
159240,note_on,40,0,7,,,,,,,,4,,,,40,91
159240,note_on,40,0,22,,,,,,,,15,,,,40,91
159320,note_off,80,0,7,,,,,,,,4,,,,40,64
159320,note_off,80,0,21,,,,,,,,14,,,,40,64
159320,note_off,80,0,22,,,,,,,,15,,,,40,64
159360,note_on,160,0,3,,,,,,,,2,,,,74,92
159360,note_on,160,0,4,,,,,,,,2,,,,81,92
159360,note_on,40,0,22,,,,,,,,15,,,,38,92
159360,note_on,40,0,7,,,,,,,,4,,,,38,92
159360,note_on,40,0,21,,,,,,,,14,,,,38,92
159360,note_on,160,0,19,,,,,,,,12,,,,81,92
159360,note_on,160,0,5,,,,,,,,3,,,,81,92
159360,note_on,160,0,20,,,,,,,,13,,,,74,92
159360,note_on,160,0,1,,,,,,,,0,,,,74,92
159360,note_on,160,0,8,,,,,,,,4,,,,38,92
159360,note_on,160,0,11,,,,,,,,6,,,,74,92
159360,note_on,160,0,16,,,,,,,,8,,,,38,92
159360,note_on,160,0,17,,,,,,,,10,,,,50,92
159360,note_on,160,0,12,,,,,,,,6,,,,69,92
159360,note_on,160,0,14,,,,,,,,7,,,,54,92
159360,note_on,160,0,15,,,,,,,,7,,,,50,92
159360,note_on,160,0,2,,,,,,,,0,,,,81,92
159360,note_on,160,0,6,,,,,,,,3,,,,78,92
159360,note_on,160,0,18,,,,,,,,11,,,,86,108
159360,note_on,160,0,13,,,,,,,,7,,,,57,92
159440,note_off,80,0,6,,,,,,,,3,,,,78,64
159440,note_off,80,0,19,,,,,,,,12,,,,81,64
159440,note_off,80,0,15,,,,,,,,7,,,,50,64
159440,note_off,80,0,11,,,,,,,,6,,,,74,64
159440,note_off,80,0,14,,,,,,,,7,,,,54,64
159440,note_off,80,0,7,,,,,,,,4,,,,38,64
159440,note_off,80,0,3,,,,,,,,2,,,,74,64
159440,note_off,80,0,20,,,,,,,,13,,,,74,64
159440,note_off,80,0,4,,,,,,,,2,,,,81,64
159440,note_off,80,0,5,,,,,,,,3,,,,81,64
159440,note_off,80,0,18,,,,,,,,11,,,,86,64
159440,note_off,80,0,2,,,,,,,,0,,,,81,64
159440,note_off,80,0,1,,,,,,,,0,,,,74,64
159440,note_off,80,0,13,,,,,,,,7,,,,57,64
159440,note_off,80,0,21,,,,,,,,14,,,,38,64
159440,note_off,80,0,22,,,,,,,,15,,,,38,64
159440,note_off,80,0,12,,,,,,,,6,,,,69,64
159600,note_on,160,0,18,,,,,,,,11,,,,85,108
159600,note_on,160,0,4,,,,,,,,2,,,,62,92
159600,note_on,160,0,14,,,,,,,,7,,,,62,92
159600,note_on,160,0,11,,,,,,,,6,,,,81,92
159600,note_on,160,0,13,,,,,,,,7,,,,66,92
159600,note_on,160,0,12,,,,,,,,6,,,,78,92
159600,note_on,160,0,7,,,,,,,,4,,,,50,92
159600,note_on,160,0,21,,,,,,,,14,,,,50,92
159600,note_on,160,0,15,,,,,,,,7,,,,57,92
159600,note_on,160,0,2,,,,,,,,0,,,,62,92
159600,note_on,2720,0,9,,,,,,,,5,,,,62,92
159600,note_on,160,0,6,,,,,,,,3,,,,57,92
159600,note_on,160,0,22,,,,,,,,15,,,,38,92
159600,note_on,160,0,3,,,,,,,,2,,,,81,92
159600,note_on,160,0,20,,,,,,,,13,,,,73,92
159600,note_on,160,0,1,,,,,,,,0,,,,81,92
159600,note_on,160,0,19,,,,,,,,12,,,,62,92
159600,note_on,2720,0,10,,,,,,,,5,,,,57,92
159600,note_on,160,0,5,,,,,,,,3,,,,62,92
159680,note_off,80,0,5,,,,,,,,3,,,,62,64
159680,note_off,80,0,7,,,,,,,,4,,,,50,64
159680,note_off,80,0,20,,,,,,,,13,,,,73,64
159680,note_off,80,0,15,,,,,,,,7,,,,57,64
159680,note_off,80,0,3,,,,,,,,2,,,,81,64
159680,note_off,80,0,14,,,,,,,,7,,,,62,64
159680,note_off,80,0,22,,,,,,,,15,,,,38,64
159680,note_off,80,0,10,,,,,,,,5,,,,57,64
159680,note_off,80,0,12,,,,,,,,6,,,,78,64
159680,note_off,80,0,19,,,,,,,,12,,,,62,64
159680,note_off,80,0,4,,,,,,,,2,,,,62,64
159680,note_off,80,0,6,,,,,,,,3,,,,57,64
159680,note_off,80,0,9,,,,,,,,5,,,,62,64
159680,note_off,80,0,13,,,,,,,,7,,,,66,64
159680,note_off,80,0,1,,,,,,,,0,,,,81,64
159680,note_off,80,0,18,,,,,,,,11,,,,85,64
159680,note_off,80,0,11,,,,,,,,6,,,,81,64
159680,note_off,80,0,2,,,,,,,,0,,,,62,64
159680,note_off,80,0,21,,,,,,,,14,,,,50,64
159720,note_on,40,0,18,,,,,,,,11,,,,83,108
159720,note_on,40,0,20,,,,,,,,13,,,,71,92
159760,note_off,400,0,16,,,,,,,,8,,,,38,64
159760,note_off,400,0,8,,,,,,,,4,,,,38,64
159760,note_off,400,0,17,,,,,,,,10,,,,50,64
159800,note_off,80,0,18,,,,,,,,11,,,,83,64
159800,note_off,80,0,20,,,,,,,,13,,,,71,64
159840,note_on,160,0,22,,,,,,,,15,,,,38,92
159840,note_on,160,0,3,,,,,,,,2,,,,81,92
159840,note_on,160,0,21,,,,,,,,14,,,,50,92
159840,note_on,40,0,18,,,,,,,,11,,,,81,108
159840,note_on,160,0,7,,,,,,,,4,,,,50,92
159840,note_on,40,0,20,,,,,,,,13,,,,69,92
159840,note_on,160,0,5,,,,,,,,3,,,,62,92
159840,note_on,160,0,1,,,,,,,,0,,,,81,92
159840,note_on,160,0,13,,,,,,,,7,,,,66,92
159840,note_on,80,0,8,,,,,,,,4,,,,38,92
159840,note_on,160,0,10,,,,,,,,5,,,,57,92
159840,note_on,160,0,12,,,,,,,,6,,,,78,92
159840,note_on,80,0,16,,,,,,,,8,,,,38,92
159840,note_on,160,0,2,,,,,,,,0,,,,62,92
159840,note_on,80,0,17,,,,,,,,10,,,,50,92
159840,note_on,160,0,14,,,,,,,,7,,,,62,92
159840,note_on,160,0,4,,,,,,,,2,,,,62,92
159840,note_on,160,0,15,,,,,,,,7,,,,57,92
159840,note_on,160,0,11,,,,,,,,6,,,,81,92
159840,note_on,160,0,9,,,,,,,,5,,,,62,92
159840,note_on,160,0,6,,,,,,,,3,,,,57,92
159840,note_on,160,0,19,,,,,,,,12,,,,62,92
159920,note_off,80,0,20,,,,,,,,13,,,,69,64
159920,note_off,80,0,7,,,,,,,,4,,,,50,64
159920,note_off,80,0,9,,,,,,,,5,,,,62,64
159920,note_off,80,0,1,,,,,,,,0,,,,81,64
159920,note_off,80,0,13,,,,,,,,7,,,,66,64
159920,note_off,80,0,15,,,,,,,,7,,,,57,64
159920,note_off,80,0,22,,,,,,,,15,,,,38,64
159920,note_off,80,0,3,,,,,,,,2,,,,81,64
159920,note_off,80,0,10,,,,,,,,5,,,,57,64
159920,note_off,80,0,4,,,,,,,,2,,,,62,64
159920,note_off,80,0,21,,,,,,,,14,,,,50,64
159920,note_off,80,0,19,,,,,,,,12,,,,62,64
159920,note_off,80,0,6,,,,,,,,3,,,,57,64
159920,note_off,80,0,11,,,,,,,,6,,,,81,64
159920,note_off,80,0,5,,,,,,,,3,,,,62,64
159920,note_off,80,0,2,,,,,,,,0,,,,62,64
159920,note_off,80,0,12,,,,,,,,6,,,,78,64
159920,note_off,80,0,14,,,,,,,,7,,,,62,64
159920,note_off,80,0,18,,,,,,,,11,,,,81,64
159960,note_on,40,0,18,,,,,,,,11,,,,83,108
159960,note_on,40,0,20,,,,,,,,13,,,,71,92
160040,note_off,80,0,18,,,,,,,,11,,,,83,64
160040,note_off,80,0,20,,,,,,,,13,,,,71,64
160080,note_on,40,0,20,,,,,,,,13,,,,69,92
160080,note_on,160,0,9,,,,,,,,5,,,,66,92
160080,note_on,160,0,6,,,,,,,,3,,,,62,92
160080,note_on,160,0,12,,,,,,,,6,,,,74,92
160080,note_on,160,0,13,,,,,,,,7,,,,62,92
160080,note_on,160,0,21,,,,,,,,14,,,,62,92
160080,note_on,160,0,4,,,,,,,,2,,,,66,92
160080,note_on,160,0,14,,,,,,,,7,,,,57,92
160080,note_on,160,0,15,,,,,,,,7,,,,54,92
160080,note_on,160,0,10,,,,,,,,5,,,,62,92
160080,note_on,40,0,18,,,,,,,,11,,,,81,108
160080,note_on,160,0,1,,,,,,,,0,,,,78,92
160080,note_on,160,0,22,,,,,,,,15,,,,50,92
160080,note_on,160,0,7,,,,,,,,4,,,,62,92
160080,note_on,160,0,19,,,,,,,,12,,,,66,92
160080,note_on,160,0,11,,,,,,,,6,,,,78,92
160080,note_on,160,0,3,,,,,,,,2,,,,78,92
160080,note_on,160,0,2,,,,,,,,0,,,,66,92
160080,note_on,160,0,5,,,,,,,,3,,,,66,92
160160,note_off,80,0,15,,,,,,,,7,,,,54,64
160160,note_off,80,0,22,,,,,,,,15,,,,50,64
160160,note_off,80,0,13,,,,,,,,7,,,,62,64
160160,note_off,80,0,7,,,,,,,,4,,,,62,64
160160,note_off,80,0,3,,,,,,,,2,,,,78,64
160160,note_off,80,0,5,,,,,,,,3,,,,66,64
160160,note_off,80,0,12,,,,,,,,6,,,,74,64
160160,note_off,80,0,20,,,,,,,,13,,,,69,64
160160,note_off,80,0,10,,,,,,,,5,,,,62,64
160160,note_off,80,0,9,,,,,,,,5,,,,66,64
160160,note_off,80,0,6,,,,,,,,3,,,,62,64
160160,note_off,80,0,11,,,,,,,,6,,,,78,64
160160,note_off,80,0,19,,,,,,,,12,,,,66,64
160160,note_off,80,0,21,,,,,,,,14,,,,62,64
160160,note_off,80,0,4,,,,,,,,2,,,,66,64
160160,note_off,80,0,18,,,,,,,,11,,,,81,64
160160,note_off,80,0,1,,,,,,,,0,,,,78,64
160160,note_off,80,0,2,,,,,,,,0,,,,66,64
160160,note_off,80,0,14,,,,,,,,7,,,,57,64
160200,note_on,40,0,18,,,,,,,,11,,,,79,108
160200,note_on,40,0,20,,,,,,,,13,,,,67,92
160240,note_off,400,0,8,,,,,,,,4,,,,38,64
160240,note_off,400,0,17,,,,,,,,10,,,,50,64
160240,note_off,400,0,16,,,,,,,,8,,,,38,64
160280,note_off,80,0,20,,,,,,,,13,,,,67,64
160280,note_off,80,0,18,,,,,,,,11,,,,79,64
160320,note_on,80,0,17,,,,,,,,10,,,,50,92
160320,note_on,160,0,21,,,,,,,,14,,,,62,92
160320,note_on,160,0,11,,,,,,,,6,,,,78,92
160320,note_on,40,0,18,,,,,,,,11,,,,78,108
160320,note_on,160,0,14,,,,,,,,7,,,,57,92
160320,note_on,160,0,15,,,,,,,,7,,,,54,92
160320,note_on,80,0,16,,,,,,,,8,,,,38,92
160320,note_on,160,0,12,,,,,,,,6,,,,74,92
160320,note_on,160,0,6,,,,,,,,3,,,,62,92
160320,note_on,160,0,10,,,,,,,,5,,,,62,92
160320,note_on,160,0,19,,,,,,,,12,,,,66,92
160320,note_on,160,0,3,,,,,,,,2,,,,78,92
160320,note_on,160,0,5,,,,,,,,3,,,,66,92
160320,note_on,80,0,8,,,,,,,,4,,,,38,92
160320,note_on,160,0,9,,,,,,,,5,,,,66,92
160320,note_on,160,0,2,,,,,,,,0,,,,66,92
160320,note_on,160,0,7,,,,,,,,4,,,,62,92
160320,note_on,160,0,4,,,,,,,,2,,,,66,92
160320,note_on,160,0,13,,,,,,,,7,,,,62,92
160320,note_on,40,0,20,,,,,,,,13,,,,66,92
160320,note_on,160,0,1,,,,,,,,0,,,,78,92
160320,note_on,160,0,22,,,,,,,,15,,,,50,92
160400,note_off,80,0,18,,,,,,,,11,,,,78,64
160400,note_off,80,0,13,,,,,,,,7,,,,62,64
160400,note_off,80,0,4,,,,,,,,2,,,,66,64
160400,note_off,80,0,14,,,,,,,,7,,,,57,64
160400,note_off,80,0,15,,,,,,,,7,,,,54,64
160400,note_off,80,0,20,,,,,,,,13,,,,66,64
160400,note_off,80,0,6,,,,,,,,3,,,,62,64
160400,note_off,80,0,11,,,,,,,,6,,,,78,64
160400,note_off,80,0,10,,,,,,,,5,,,,62,64
160400,note_off,80,0,19,,,,,,,,12,,,,66,64
160400,note_off,80,0,3,,,,,,,,2,,,,78,64
160400,note_off,80,0,1,,,,,,,,0,,,,78,64
160400,note_off,80,0,5,,,,,,,,3,,,,66,64
160400,note_off,80,0,9,,,,,,,,5,,,,66,64
160400,note_off,80,0,12,,,,,,,,6,,,,74,64
160400,note_off,80,0,21,,,,,,,,14,,,,62,64
160400,note_off,80,0,22,,,,,,,,15,,,,50,64
160400,note_off,80,0,2,,,,,,,,0,,,,66,64
160400,note_off,80,0,7,,,,,,,,4,,,,62,64
160440,note_on,40,0,20,,,,,,,,13,,,,67,92
160440,note_on,40,0,18,,,,,,,,11,,,,79,108
160520,note_off,80,0,18,,,,,,,,11,,,,79,64
160520,note_off,80,0,20,,,,,,,,13,,,,67,64
160560,note_on,160,0,14,,,,,,,,7,,,,54,92
160560,note_on,160,0,4,,,,,,,,2,,,,69,92
160560,note_on,40,0,18,,,,,,,,11,,,,78,108
160560,note_on,160,0,10,,,,,,,,5,,,,66,92
160560,note_on,40,0,20,,,,,,,,13,,,,66,92
160560,note_on,160,0,15,,,,,,,,7,,,,50,92
160560,note_on,160,0,11,,,,,,,,6,,,,74,92
160560,note_on,160,0,2,,,,,,,,0,,,,69,92
160560,note_on,160,0,19,,,,,,,,12,,,,69,92
160560,note_on,160,0,22,,,,,,,,15,,,,38,92
160560,note_on,160,0,1,,,,,,,,0,,,,74,92
160560,note_on,160,0,5,,,,,,,,3,,,,69,92
160560,note_on,160,0,21,,,,,,,,14,,,,50,92
160560,note_on,160,0,9,,,,,,,,5,,,,69,92
160560,note_on,160,0,3,,,,,,,,2,,,,74,92
160560,note_on,160,0,7,,,,,,,,4,,,,50,92
160560,note_on,160,0,13,,,,,,,,7,,,,57,92
160560,note_on,160,0,6,,,,,,,,3,,,,66,92
160560,note_on,160,0,12,,,,,,,,6,,,,69,92
160640,note_off,80,0,15,,,,,,,,7,,,,50,64
160640,note_off,80,0,6,,,,,,,,3,,,,66,64
160640,note_off,80,0,1,,,,,,,,0,,,,74,64
160640,note_off,80,0,22,,,,,,,,15,,,,38,64
160640,note_off,80,0,5,,,,,,,,3,,,,69,64
160640,note_off,80,0,19,,,,,,,,12,,,,69,64
160640,note_off,80,0,3,,,,,,,,2,,,,74,64
160640,note_off,80,0,12,,,,,,,,6,,,,69,64
160640,note_off,80,0,10,,,,,,,,5,,,,66,64
160640,note_off,80,0,7,,,,,,,,4,,,,50,64
160640,note_off,80,0,18,,,,,,,,11,,,,78,64
160640,note_off,80,0,13,,,,,,,,7,,,,57,64
160640,note_off,80,0,9,,,,,,,,5,,,,69,64
160640,note_off,80,0,21,,,,,,,,14,,,,50,64
160640,note_off,80,0,4,,,,,,,,2,,,,69,64
160640,note_off,80,0,14,,,,,,,,7,,,,54,64
160640,note_off,80,0,2,,,,,,,,0,,,,69,64
160640,note_off,80,0,11,,,,,,,,6,,,,74,64
160640,note_off,80,0,20,,,,,,,,13,,,,66,64
160680,note_on,40,0,18,,,,,,,,11,,,,76,108
160680,note_on,40,0,20,,,,,,,,13,,,,64,92
160720,note_off,400,0,17,,,,,,,,10,,,,50,64
160720,note_off,400,0,16,,,,,,,,8,,,,38,64
160720,note_off,400,0,8,,,,,,,,4,,,,38,64
160760,note_off,80,0,20,,,,,,,,13,,,,64,64
160760,note_off,80,0,18,,,,,,,,11,,,,76,64
160800,note_on,160,0,19,,,,,,,,12,,,,69,92
160800,note_on,160,0,11,,,,,,,,6,,,,74,92
160800,note_on,160,0,10,,,,,,,,5,,,,66,92
160800,note_on,40,0,18,,,,,,,,11,,,,74,108
160800,note_on,160,0,13,,,,,,,,7,,,,57,92
160800,note_on,160,0,3,,,,,,,,2,,,,74,92
160800,note_on,160,0,21,,,,,,,,14,,,,50,92
160800,note_on,40,0,20,,,,,,,,13,,,,62,92
160800,note_on,160,0,22,,,,,,,,15,,,,38,92
160800,note_on,160,0,15,,,,,,,,7,,,,50,92
160800,note_on,160,0,2,,,,,,,,0,,,,69,92
160800,note_on,160,0,6,,,,,,,,3,,,,66,92
160800,note_on,160,0,12,,,,,,,,6,,,,69,92
160800,note_on,160,0,9,,,,,,,,5,,,,69,92
160800,note_on,160,0,5,,,,,,,,3,,,,69,92
160800,note_on,80,0,17,,,,,,,,10,,,,50,92
160800,note_on,80,0,8,,,,,,,,4,,,,38,92
160800,note_on,80,0,16,,,,,,,,8,,,,38,92
160800,note_on,160,0,4,,,,,,,,2,,,,69,92
160800,note_on,160,0,7,,,,,,,,4,,,,50,92
160800,note_on,160,0,14,,,,,,,,7,,,,54,92
160800,note_on,160,0,1,,,,,,,,0,,,,74,92
160880,note_off,80,0,13,,,,,,,,7,,,,57,64
160880,note_off,80,0,5,,,,,,,,3,,,,69,64
160880,note_off,80,0,9,,,,,,,,5,,,,69,64
160880,note_off,80,0,18,,,,,,,,11,,,,74,64
160880,note_off,80,0,3,,,,,,,,2,,,,74,64
160880,note_off,80,0,21,,,,,,,,14,,,,50,64
160880,note_off,80,0,20,,,,,,,,13,,,,62,64
160880,note_off,80,0,11,,,,,,,,6,,,,74,64
160880,note_off,80,0,2,,,,,,,,0,,,,69,64
160880,note_off,80,0,4,,,,,,,,2,,,,69,64
160880,note_off,80,0,14,,,,,,,,7,,,,54,64
160880,note_off,80,0,7,,,,,,,,4,,,,50,64
160880,note_off,80,0,22,,,,,,,,15,,,,38,64
160880,note_off,80,0,6,,,,,,,,3,,,,66,64
160880,note_off,80,0,1,,,,,,,,0,,,,74,64
160880,note_off,80,0,12,,,,,,,,6,,,,69,64
160880,note_off,80,0,10,,,,,,,,5,,,,66,64
160880,note_off,80,0,19,,,,,,,,12,,,,69,64
160880,note_off,80,0,15,,,,,,,,7,,,,50,64
161040,note_on,160,0,22,,,,,,,,15,,,,50,92
161040,note_on,160,0,20,,,,,,,,13,,,,61,92
161040,note_on,160,0,21,,,,,,,,14,,,,62,92
161040,note_on,160,0,2,,,,,,,,0,,,,66,92
161040,note_on,160,0,9,,,,,,,,5,,,,66,92
161040,note_on,160,0,18,,,,,,,,11,,,,73,108
161040,note_on,160,0,7,,,,,,,,4,,,,62,92
161040,note_on,160,0,14,,,,,,,,7,,,,62,92
161040,note_on,160,0,12,,,,,,,,6,,,,66,92
161040,note_on,160,0,15,,,,,,,,7,,,,57,92
161040,note_on,160,0,6,,,,,,,,3,,,,62,92
161040,note_on,160,0,10,,,,,,,,5,,,,62,92
161040,note_on,160,0,13,,,,,,,,7,,,,66,92
161040,note_on,160,0,3,,,,,,,,2,,,,69,92
161040,note_on,160,0,11,,,,,,,,6,,,,69,92
161040,note_on,160,0,19,,,,,,,,12,,,,66,92
161040,note_on,160,0,1,,,,,,,,0,,,,69,92
161040,note_on,160,0,5,,,,,,,,3,,,,66,92
161040,note_on,160,0,4,,,,,,,,2,,,,66,92
161120,note_off,80,0,11,,,,,,,,6,,,,69,64
161120,note_off,80,0,9,,,,,,,,5,,,,66,64
161120,note_off,80,0,22,,,,,,,,15,,,,50,64
161120,note_off,80,0,21,,,,,,,,14,,,,62,64
161120,note_off,80,0,15,,,,,,,,7,,,,57,64
161120,note_off,80,0,20,,,,,,,,13,,,,61,64
161120,note_off,80,0,12,,,,,,,,6,,,,66,64
161120,note_off,80,0,2,,,,,,,,0,,,,66,64
161120,note_off,80,0,1,,,,,,,,0,,,,69,64
161120,note_off,80,0,18,,,,,,,,11,,,,73,64
161120,note_off,80,0,13,,,,,,,,7,,,,66,64
161120,note_off,80,0,7,,,,,,,,4,,,,62,64
161120,note_off,80,0,3,,,,,,,,2,,,,69,64
161120,note_off,80,0,4,,,,,,,,2,,,,66,64
161120,note_off,80,0,10,,,,,,,,5,,,,62,64
161120,note_off,80,0,6,,,,,,,,3,,,,62,64
161120,note_off,80,0,19,,,,,,,,12,,,,66,64
161120,note_off,80,0,5,,,,,,,,3,,,,66,64
161120,note_off,80,0,14,,,,,,,,7,,,,62,64
161160,note_on,40,0,18,,,,,,,,11,,,,71,108
161160,note_on,40,0,20,,,,,,,,13,,,,59,92
161200,note_off,400,0,8,,,,,,,,4,,,,38,64
161200,note_off,400,0,16,,,,,,,,8,,,,38,64
161200,note_off,400,0,17,,,,,,,,10,,,,50,64
161240,note_off,80,0,18,,,,,,,,11,,,,71,64
161240,note_off,80,0,20,,,,,,,,13,,,,59,64
161280,note_on,160,0,19,,,,,,,,12,,,,66,92
161280,note_on,80,0,17,,,,,,,,10,,,,50,92
161280,note_on,80,0,8,,,,,,,,4,,,,38,92
161280,note_on,160,0,1,,,,,,,,0,,,,69,92
161280,note_on,160,0,4,,,,,,,,2,,,,66,92
161280,note_on,160,0,9,,,,,,,,5,,,,66,92
161280,note_on,160,0,22,,,,,,,,15,,,,50,92
161280,note_on,160,0,10,,,,,,,,5,,,,62,92
161280,note_on,160,0,2,,,,,,,,0,,,,66,92
161280,note_on,160,0,6,,,,,,,,3,,,,62,92
161280,note_on,80,0,16,,,,,,,,8,,,,38,92
161280,note_on,40,0,18,,,,,,,,11,,,,69,108
161280,note_on,160,0,14,,,,,,,,7,,,,62,92
161280,note_on,160,0,21,,,,,,,,14,,,,62,92
161280,note_on,40,0,20,,,,,,,,13,,,,57,92
161280,note_on,160,0,3,,,,,,,,2,,,,69,92
161280,note_on,160,0,15,,,,,,,,7,,,,57,92
161280,note_on,160,0,5,,,,,,,,3,,,,66,92
161280,note_on,160,0,13,,,,,,,,7,,,,66,92
161280,note_on,160,0,12,,,,,,,,6,,,,66,92
161280,note_on,160,0,7,,,,,,,,4,,,,62,92
161280,note_on,160,0,11,,,,,,,,6,,,,69,92
161360,note_off,80,0,3,,,,,,,,2,,,,69,64
161360,note_off,80,0,9,,,,,,,,5,,,,66,64
161360,note_off,80,0,19,,,,,,,,12,,,,66,64
161360,note_off,80,0,11,,,,,,,,6,,,,69,64
161360,note_off,80,0,10,,,,,,,,5,,,,62,64
161360,note_off,80,0,22,,,,,,,,15,,,,50,64
161360,note_off,80,0,6,,,,,,,,3,,,,62,64
161360,note_off,80,0,20,,,,,,,,13,,,,57,64
161360,note_off,80,0,5,,,,,,,,3,,,,66,64
161360,note_off,80,0,15,,,,,,,,7,,,,57,64
161360,note_off,80,0,14,,,,,,,,7,,,,62,64
161360,note_off,80,0,7,,,,,,,,4,,,,62,64
161360,note_off,80,0,4,,,,,,,,2,,,,66,64
161360,note_off,80,0,21,,,,,,,,14,,,,62,64
161360,note_off,80,0,2,,,,,,,,0,,,,66,64
161360,note_off,80,0,1,,,,,,,,0,,,,69,64
161360,note_off,80,0,13,,,,,,,,7,,,,66,64
161360,note_off,80,0,12,,,,,,,,6,,,,66,64
161360,note_off,80,0,18,,,,,,,,11,,,,69,64
161400,note_on,40,0,20,,,,,,,,13,,,,59,92
161400,note_on,40,0,18,,,,,,,,11,,,,71,108
161480,note_off,80,0,18,,,,,,,,11,,,,71,64
161480,note_off,80,0,20,,,,,,,,13,,,,59,64
161520,note_on,160,0,3,,,,,,,,2,,,,66,92
161520,note_on,160,0,9,,,,,,,,5,,,,69,92
161520,note_on,160,0,12,,,,,,,,6,,,,62,92
161520,note_on,160,0,11,,,,,,,,6,,,,66,92
161520,note_on,160,0,14,,,,,,,,7,,,,57,92
161520,note_on,160,0,5,,,,,,,,3,,,,69,92
161520,note_on,160,0,4,,,,,,,,2,,,,69,92
161520,note_on,160,0,22,,,,,,,,15,,,,38,92
161520,note_on,40,0,18,,,,,,,,11,,,,69,108
161520,note_on,160,0,6,,,,,,,,3,,,,66,92
161520,note_on,160,0,2,,,,,,,,0,,,,69,92
161520,note_on,160,0,10,,,,,,,,5,,,,66,92
161520,note_on,160,0,15,,,,,,,,7,,,,54,92
161520,note_on,160,0,21,,,,,,,,14,,,,50,92
161520,note_on,160,0,19,,,,,,,,12,,,,69,92
161520,note_on,160,0,7,,,,,,,,4,,,,50,92
161520,note_on,40,0,20,,,,,,,,13,,,,57,92
161520,note_on,160,0,1,,,,,,,,0,,,,66,92
161520,note_on,160,0,13,,,,,,,,7,,,,62,92
161600,note_off,80,0,13,,,,,,,,7,,,,62,64
161600,note_off,80,0,21,,,,,,,,14,,,,50,64
161600,note_off,80,0,4,,,,,,,,2,,,,69,64
161600,note_off,80,0,18,,,,,,,,11,,,,69,64
161600,note_off,80,0,5,,,,,,,,3,,,,69,64
161600,note_off,80,0,20,,,,,,,,13,,,,57,64
161600,note_off,80,0,22,,,,,,,,15,,,,38,64
161600,note_off,80,0,1,,,,,,,,0,,,,66,64
161600,note_off,80,0,10,,,,,,,,5,,,,66,64
161600,note_off,80,0,2,,,,,,,,0,,,,69,64
161600,note_off,80,0,14,,,,,,,,7,,,,57,64
161600,note_off,80,0,11,,,,,,,,6,,,,66,64
161600,note_off,80,0,19,,,,,,,,12,,,,69,64
161600,note_off,80,0,9,,,,,,,,5,,,,69,64
161600,note_off,80,0,7,,,,,,,,4,,,,50,64
161600,note_off,80,0,6,,,,,,,,3,,,,66,64
161600,note_off,80,0,12,,,,,,,,6,,,,62,64
161600,note_off,80,0,3,,,,,,,,2,,,,66,64
161600,note_off,80,0,15,,,,,,,,7,,,,54,64
161640,note_on,40,0,18,,,,,,,,11,,,,67,108
161640,note_on,40,0,20,,,,,,,,13,,,,55,92
161680,note_off,400,0,8,,,,,,,,4,,,,38,64
161680,note_off,400,0,16,,,,,,,,8,,,,38,64
161680,note_off,400,0,17,,,,,,,,10,,,,50,64
161720,note_off,80,0,20,,,,,,,,13,,,,55,64
161720,note_off,80,0,18,,,,,,,,11,,,,67,64
161760,note_on,40,0,18,,,,,,,,11,,,,66,108
161760,note_on,160,0,21,,,,,,,,14,,,,50,92
161760,note_on,80,0,16,,,,,,,,8,,,,38,92
161760,note_on,160,0,1,,,,,,,,0,,,,66,92
161760,note_on,160,0,12,,,,,,,,6,,,,62,92
161760,note_on,160,0,14,,,,,,,,7,,,,57,92
161760,note_on,160,0,2,,,,,,,,0,,,,69,92
161760,note_on,80,0,17,,,,,,,,10,,,,50,92
161760,note_on,160,0,7,,,,,,,,4,,,,50,92
161760,note_on,80,0,8,,,,,,,,4,,,,38,92
161760,note_on,160,0,4,,,,,,,,2,,,,69,92
161760,note_on,160,0,10,,,,,,,,5,,,,66,92
161760,note_on,160,0,22,,,,,,,,15,,,,38,92
161760,note_on,160,0,11,,,,,,,,6,,,,66,92
161760,note_on,160,0,15,,,,,,,,7,,,,54,92
161760,note_on,160,0,13,,,,,,,,7,,,,62,92
161760,note_on,160,0,6,,,,,,,,3,,,,66,92
161760,note_on,160,0,9,,,,,,,,5,,,,69,92
161760,note_on,40,0,20,,,,,,,,13,,,,54,92
161760,note_on,160,0,3,,,,,,,,2,,,,66,92
161760,note_on,160,0,19,,,,,,,,12,,,,69,92
161760,note_on,160,0,5,,,,,,,,3,,,,69,92
161840,note_off,80,0,3,,,,,,,,2,,,,66,64
161840,note_off,80,0,20,,,,,,,,13,,,,54,64
161840,note_off,80,0,22,,,,,,,,15,,,,38,64
161840,note_off,80,0,15,,,,,,,,7,,,,54,64
161840,note_off,80,0,12,,,,,,,,6,,,,62,64
161840,note_off,80,0,7,,,,,,,,4,,,,50,64
161840,note_off,80,0,19,,,,,,,,12,,,,69,64
161840,note_off,80,0,13,,,,,,,,7,,,,62,64
161840,note_off,80,0,9,,,,,,,,5,,,,69,64
161840,note_off,80,0,10,,,,,,,,5,,,,66,64
161840,note_off,80,0,14,,,,,,,,7,,,,57,64
161840,note_off,80,0,4,,,,,,,,2,,,,69,64
161840,note_off,80,0,2,,,,,,,,0,,,,69,64
161840,note_off,80,0,21,,,,,,,,14,,,,50,64
161840,note_off,80,0,18,,,,,,,,11,,,,66,64
161840,note_off,80,0,1,,,,,,,,0,,,,66,64
161840,note_off,80,0,11,,,,,,,,6,,,,66,64
161840,note_off,80,0,5,,,,,,,,3,,,,69,64
161840,note_off,80,0,6,,,,,,,,3,,,,66,64
161880,note_on,40,0,20,,,,,,,,13,,,,55,92
161880,note_on,40,0,18,,,,,,,,11,,,,67,108
161960,note_off,80,0,20,,,,,,,,13,,,,55,64
161960,note_off,80,0,18,,,,,,,,11,,,,67,64
162000,note_on,160,0,5,,,,,,,,3,,,,74,92
162000,note_on,160,0,10,,,,,,,,5,,,,69,92
162000,note_on,160,0,6,,,,,,,,3,,,,69,92
162000,note_on,160,0,3,,,,,,,,2,,,,62,92
162000,note_on,160,0,11,,,,,,,,6,,,,62,92
162000,note_on,160,0,14,,,,,,,,7,,,,54,92
162000,note_on,160,0,12,,,,,,,,6,,,,57,92
162000,note_on,160,0,4,,,,,,,,2,,,,74,92
162000,note_on,160,0,19,,,,,,,,12,,,,74,92
162000,note_on,160,0,13,,,,,,,,7,,,,57,92
162000,note_on,160,0,15,,,,,,,,7,,,,50,92
162000,note_on,40,0,20,,,,,,,,13,,,,54,92
162000,note_on,160,0,21,,,,,,,,14,,,,62,92
162000,note_on,160,0,1,,,,,,,,0,,,,62,92
162000,note_on,160,0,7,,,,,,,,4,,,,62,92
162000,note_on,160,0,2,,,,,,,,0,,,,74,92
162000,note_on,40,0,18,,,,,,,,11,,,,66,108
162000,note_on,160,0,22,,,,,,,,15,,,,50,92
162000,note_on,160,0,9,,,,,,,,5,,,,74,92
162080,note_off,80,0,9,,,,,,,,5,,,,74,64
162080,note_off,80,0,18,,,,,,,,11,,,,66,64
162080,note_off,80,0,19,,,,,,,,12,,,,74,64
162080,note_off,80,0,3,,,,,,,,2,,,,62,64
162080,note_off,80,0,5,,,,,,,,3,,,,74,64
162080,note_off,80,0,6,,,,,,,,3,,,,69,64
162080,note_off,80,0,22,,,,,,,,15,,,,50,64
162080,note_off,80,0,20,,,,,,,,13,,,,54,64
162080,note_off,80,0,13,,,,,,,,7,,,,57,64
162080,note_off,80,0,11,,,,,,,,6,,,,62,64
162080,note_off,80,0,7,,,,,,,,4,,,,62,64
162080,note_off,80,0,12,,,,,,,,6,,,,57,64
162080,note_off,80,0,14,,,,,,,,7,,,,54,64
162080,note_off,80,0,2,,,,,,,,0,,,,74,64
162080,note_off,80,0,4,,,,,,,,2,,,,74,64
162080,note_off,80,0,10,,,,,,,,5,,,,69,64
162080,note_off,80,0,1,,,,,,,,0,,,,62,64
162080,note_off,80,0,15,,,,,,,,7,,,,50,64
162080,note_off,80,0,21,,,,,,,,14,,,,62,64
162120,note_on,40,0,20,,,,,,,,13,,,,52,92
162120,note_on,40,0,18,,,,,,,,11,,,,64,108
162160,note_off,400,0,8,,,,,,,,4,,,,38,64
162160,note_off,400,0,17,,,,,,,,10,,,,50,64
162160,note_off,400,0,16,,,,,,,,8,,,,38,64
162200,note_off,80,0,20,,,,,,,,13,,,,52,64
162200,note_off,80,0,18,,,,,,,,11,,,,64,64
162240,note_on,160,0,3,,,,,,,,2,,,,62,92
162240,note_on,80,0,17,,,,,,,,10,,,,50,92
162240,note_on,160,0,9,,,,,,,,5,,,,74,92
162240,note_on,160,0,1,,,,,,,,0,,,,62,92
162240,note_on,160,0,10,,,,,,,,5,,,,69,92
162240,note_on,160,0,7,,,,,,,,4,,,,62,92
162240,note_on,160,0,4,,,,,,,,2,,,,74,92
162240,note_on,40,0,20,,,,,,,,13,,,,69,92
162240,note_on,160,0,5,,,,,,,,3,,,,74,92
162240,note_on,160,0,19,,,,,,,,12,,,,74,92
162240,note_on,80,0,16,,,,,,,,8,,,,38,92
162240,note_on,80,0,8,,,,,,,,4,,,,38,92
162240,note_on,160,0,6,,,,,,,,3,,,,69,92
162240,note_on,160,0,11,,,,,,,,6,,,,62,92
162240,note_on,160,0,21,,,,,,,,14,,,,62,92
162240,note_on,40,0,18,,,,,,,,11,,,,62,108
162240,note_on,160,0,12,,,,,,,,6,,,,57,92
162240,note_on,160,0,13,,,,,,,,7,,,,57,92
162240,note_on,160,0,15,,,,,,,,7,,,,50,92
162240,note_on,160,0,22,,,,,,,,15,,,,50,92
162240,note_on,160,0,14,,,,,,,,7,,,,54,92
162240,note_on,160,0,2,,,,,,,,0,,,,74,92
162320,note_off,80,0,10,,,,,,,,5,,,,69,64
162320,note_off,80,0,17,,,,,,,,10,,,,50,64
162320,note_off,80,0,2,,,,,,,,0,,,,74,64
162320,note_off,80,0,4,,,,,,,,2,,,,74,64
162320,note_off,80,0,16,,,,,,,,8,,,,38,64
162320,note_off,80,0,21,,,,,,,,14,,,,62,64
162320,note_off,80,0,7,,,,,,,,4,,,,62,64
162320,note_off,80,0,6,,,,,,,,3,,,,69,64
162320,note_off,80,0,14,,,,,,,,7,,,,54,64
162320,note_off,80,0,12,,,,,,,,6,,,,57,64
162320,note_off,80,0,15,,,,,,,,7,,,,50,64
162320,note_off,80,0,20,,,,,,,,13,,,,69,64
162320,note_off,80,0,3,,,,,,,,2,,,,62,64
162320,note_off,80,0,22,,,,,,,,15,,,,50,64
162320,note_off,80,0,13,,,,,,,,7,,,,57,64
162320,note_off,80,0,9,,,,,,,,5,,,,74,64
162320,note_off,80,0,18,,,,,,,,11,,,,62,64
162320,note_off,80,0,11,,,,,,,,6,,,,62,64
162320,note_off,80,0,19,,,,,,,,12,,,,74,64
162320,note_off,80,0,5,,,,,,,,3,,,,74,64
162320,note_off,80,0,8,,,,,,,,4,,,,38,64
162320,note_off,80,0,1,,,,,,,,0,,,,62,64
162480,note_on,160,0,1,,,,,,,,0,,,,66,92
162480,note_on,160,0,2,,,,,,,,0,,,,69,92
162480,note_on,160,0,11,,,,,,,,6,,,,66,92
162480,note_on,160,0,8,,,,,,,,4,,,,38,92
162480,note_on,160,0,22,,,,,,,,15,,,,49,92
162480,note_on,160,0,3,,,,,,,,2,,,,66,92
162480,note_on,160,0,15,,,,,,,,7,,,,54,92
162480,note_on,160,0,9,,,,,,,,5,,,,69,92
162480,note_on,160,0,20,,,,,,,,13,,,,66,92
162480,note_on,160,0,16,,,,,,,,8,,,,38,92
162480,note_on,160,0,5,,,,,,,,3,,,,69,92
162480,note_on,160,0,12,,,,,,,,6,,,,62,92
162480,note_on,160,0,13,,,,,,,,7,,,,62,92
162480,note_on,160,0,7,,,,,,,,4,,,,61,92
162480,note_on,160,0,17,,,,,,,,10,,,,50,92
162480,note_on,160,0,14,,,,,,,,7,,,,57,92
162480,note_on,160,0,18,,,,,,,,11,,,,66,108
162480,note_on,160,0,6,,,,,,,,3,,,,66,92
162480,note_on,160,0,19,,,,,,,,12,,,,69,92
162480,note_on,160,0,4,,,,,,,,2,,,,69,92
162480,note_on,160,0,21,,,,,,,,14,,,,61,92
162480,note_on,160,0,10,,,,,,,,5,,,,66,92
162560,note_off,80,0,5,,,,,,,,3,,,,69,64
162560,note_off,80,0,7,,,,,,,,4,,,,61,64
162560,note_off,80,0,4,,,,,,,,2,,,,69,64
162560,note_off,80,0,16,,,,,,,,8,,,,38,64
162560,note_off,80,0,21,,,,,,,,14,,,,61,64
162560,note_off,80,0,1,,,,,,,,0,,,,66,64
162560,note_off,80,0,13,,,,,,,,7,,,,62,64
162560,note_off,80,0,12,,,,,,,,6,,,,62,64
162560,note_off,80,0,9,,,,,,,,5,,,,69,64
162560,note_off,80,0,8,,,,,,,,4,,,,38,64
162560,note_off,80,0,17,,,,,,,,10,,,,50,64
162560,note_off,80,0,11,,,,,,,,6,,,,66,64
162560,note_off,80,0,20,,,,,,,,13,,,,66,64
162560,note_off,80,0,15,,,,,,,,7,,,,54,64
162560,note_off,80,0,14,,,,,,,,7,,,,57,64
162560,note_off,80,0,3,,,,,,,,2,,,,66,64
162560,note_off,80,0,18,,,,,,,,11,,,,66,64
162560,note_off,80,0,10,,,,,,,,5,,,,66,64
162560,note_off,80,0,2,,,,,,,,0,,,,69,64
162560,note_off,80,0,6,,,,,,,,3,,,,66,64
162560,note_off,80,0,19,,,,,,,,12,,,,69,64
162560,note_off,80,0,22,,,,,,,,15,,,,49,64
162600,note_on,40,0,22,,,,,,,,15,,,,47,92
162600,note_on,40,0,17,,,,,,,,10,,,,50,92
162600,note_on,40,0,16,,,,,,,,8,,,,38,92
162600,note_on,40,0,21,,,,,,,,14,,,,59,92
162600,note_on,40,0,8,,,,,,,,4,,,,38,92
162600,note_on,40,0,7,,,,,,,,4,,,,59,92
162680,note_off,80,0,21,,,,,,,,14,,,,59,64
162680,note_off,80,0,22,,,,,,,,15,,,,47,64
162680,note_off,80,0,16,,,,,,,,8,,,,38,64
162680,note_off,80,0,17,,,,,,,,10,,,,50,64
162680,note_off,80,0,8,,,,,,,,4,,,,38,64
162680,note_off,80,0,7,,,,,,,,4,,,,59,64
162720,note_on,160,0,20,,,,,,,,13,,,,66,92
162720,note_on,40,0,21,,,,,,,,14,,,,57,92
162720,note_on,40,0,22,,,,,,,,15,,,,45,92
162720,note_on,160,0,12,,,,,,,,6,,,,62,92
162720,note_on,160,0,2,,,,,,,,0,,,,69,92
162720,note_on,160,0,11,,,,,,,,6,,,,66,92
162720,note_on,40,0,7,,,,,,,,4,,,,57,92
162720,note_on,40,0,8,,,,,,,,4,,,,38,92
162720,note_on,160,0,4,,,,,,,,2,,,,69,92
162720,note_on,40,0,17,,,,,,,,10,,,,50,92
162720,note_on,160,0,19,,,,,,,,12,,,,69,92
162720,note_on,160,0,3,,,,,,,,2,,,,66,92
162720,note_on,160,0,6,,,,,,,,3,,,,66,92
162720,note_on,160,0,5,,,,,,,,3,,,,69,92
162720,note_on,160,0,18,,,,,,,,11,,,,66,108
162720,note_on,160,0,10,,,,,,,,5,,,,66,92
162720,note_on,160,0,14,,,,,,,,7,,,,57,92
162720,note_on,160,0,15,,,,,,,,7,,,,54,92
162720,note_on,160,0,13,,,,,,,,7,,,,62,92
162720,note_on,160,0,1,,,,,,,,0,,,,66,92
162720,note_on,40,0,16,,,,,,,,8,,,,38,92
162720,note_on,160,0,9,,,,,,,,5,,,,69,92
162800,note_off,80,0,4,,,,,,,,2,,,,69,64
162800,note_off,80,0,17,,,,,,,,10,,,,50,64
162800,note_off,80,0,19,,,,,,,,12,,,,69,64
162800,note_off,80,0,21,,,,,,,,14,,,,57,64
162800,note_off,80,0,22,,,,,,,,15,,,,45,64
162800,note_off,80,0,13,,,,,,,,7,,,,62,64
162800,note_off,80,0,3,,,,,,,,2,,,,66,64
162800,note_off,80,0,14,,,,,,,,7,,,,57,64
162800,note_off,80,0,20,,,,,,,,13,,,,66,64
162800,note_off,80,0,18,,,,,,,,11,,,,66,64
162800,note_off,80,0,10,,,,,,,,5,,,,66,64
162800,note_off,80,0,11,,,,,,,,6,,,,66,64
162800,note_off,80,0,15,,,,,,,,7,,,,54,64
162800,note_off,80,0,1,,,,,,,,0,,,,66,64
162800,note_off,80,0,9,,,,,,,,5,,,,69,64
162800,note_off,80,0,7,,,,,,,,4,,,,57,64
162800,note_off,80,0,6,,,,,,,,3,,,,66,64
162800,note_off,80,0,12,,,,,,,,6,,,,62,64
162800,note_off,80,0,2,,,,,,,,0,,,,69,64
162800,note_off,80,0,16,,,,,,,,8,,,,38,64
162800,note_off,80,0,8,,,,,,,,4,,,,38,64
162800,note_off,80,0,5,,,,,,,,3,,,,69,64
162840,note_on,40,0,21,,,,,,,,14,,,,59,92
162840,note_on,40,0,7,,,,,,,,4,,,,59,92
162840,note_on,40,0,8,,,,,,,,4,,,,38,92
162840,note_on,40,0,22,,,,,,,,15,,,,47,92
162840,note_on,40,0,17,,,,,,,,10,,,,50,92
162840,note_on,40,0,16,,,,,,,,8,,,,38,92
162920,note_off,80,0,7,,,,,,,,4,,,,59,64
162920,note_off,80,0,21,,,,,,,,14,,,,59,64
162920,note_off,80,0,16,,,,,,,,8,,,,38,64
162920,note_off,80,0,22,,,,,,,,15,,,,47,64
162920,note_off,80,0,17,,,,,,,,10,,,,50,64
162920,note_off,80,0,8,,,,,,,,4,,,,38,64
162960,note_on,160,0,18,,,,,,,,11,,,,69,108
162960,note_on,160,0,15,,,,,,,,7,,,,57,92
162960,note_on,160,0,19,,,,,,,,12,,,,66,92
162960,note_on,40,0,7,,,,,,,,4,,,,57,92
162960,note_on,160,0,6,,,,,,,,3,,,,62,92
162960,note_on,160,0,9,,,,,,,,5,,,,66,92
162960,note_on,160,0,3,,,,,,,,2,,,,69,92
162960,note_on,160,0,12,,,,,,,,6,,,,66,92
162960,note_on,160,0,5,,,,,,,,3,,,,66,92
162960,note_on,40,0,22,,,,,,,,15,,,,45,92
162960,note_on,160,0,10,,,,,,,,5,,,,62,92
162960,note_on,160,0,11,,,,,,,,6,,,,69,92
162960,note_on,160,0,1,,,,,,,,0,,,,69,92
162960,note_on,40,0,16,,,,,,,,8,,,,38,92
162960,note_on,40,0,8,,,,,,,,4,,,,38,92
162960,note_on,40,0,17,,,,,,,,10,,,,50,92
162960,note_on,160,0,4,,,,,,,,2,,,,66,92
162960,note_on,40,0,21,,,,,,,,14,,,,57,92
162960,note_on,160,0,20,,,,,,,,13,,,,62,92
162960,note_on,160,0,13,,,,,,,,7,,,,66,92
162960,note_on,160,0,2,,,,,,,,0,,,,66,92
162960,note_on,160,0,14,,,,,,,,7,,,,62,92
163040,note_off,80,0,20,,,,,,,,13,,,,62,64
163040,note_off,80,0,9,,,,,,,,5,,,,66,64
163040,note_off,80,0,15,,,,,,,,7,,,,57,64
163040,note_off,80,0,1,,,,,,,,0,,,,69,64
163040,note_off,80,0,5,,,,,,,,3,,,,66,64
163040,note_off,80,0,7,,,,,,,,4,,,,57,64
163040,note_off,80,0,18,,,,,,,,11,,,,69,64
163040,note_off,80,0,17,,,,,,,,10,,,,50,64
163040,note_off,80,0,16,,,,,,,,8,,,,38,64
163040,note_off,80,0,13,,,,,,,,7,,,,66,64
163040,note_off,80,0,14,,,,,,,,7,,,,62,64
163040,note_off,80,0,3,,,,,,,,2,,,,69,64
163040,note_off,80,0,11,,,,,,,,6,,,,69,64
163040,note_off,80,0,8,,,,,,,,4,,,,38,64
163040,note_off,80,0,2,,,,,,,,0,,,,66,64
163040,note_off,80,0,22,,,,,,,,15,,,,45,64
163040,note_off,80,0,21,,,,,,,,14,,,,57,64
163040,note_off,80,0,12,,,,,,,,6,,,,66,64
163040,note_off,80,0,19,,,,,,,,12,,,,66,64
163040,note_off,80,0,10,,,,,,,,5,,,,62,64
163040,note_off,80,0,6,,,,,,,,3,,,,62,64
163040,note_off,80,0,4,,,,,,,,2,,,,66,64
163080,note_on,40,0,8,,,,,,,,4,,,,38,92
163080,note_on,40,0,17,,,,,,,,10,,,,50,92
163080,note_on,40,0,21,,,,,,,,14,,,,55,92
163080,note_on,40,0,16,,,,,,,,8,,,,38,92
163080,note_on,40,0,22,,,,,,,,15,,,,43,92
163080,note_on,40,0,7,,,,,,,,4,,,,55,92
163160,note_off,80,0,21,,,,,,,,14,,,,55,64
163160,note_off,80,0,17,,,,,,,,10,,,,50,64
163160,note_off,80,0,22,,,,,,,,15,,,,43,64
163160,note_off,80,0,16,,,,,,,,8,,,,38,64
163160,note_off,80,0,8,,,,,,,,4,,,,38,64
163160,note_off,80,0,7,,,,,,,,4,,,,55,64
163200,note_on,160,0,11,,,,,,,,6,,,,69,92
163200,note_on,160,0,10,,,,,,,,5,,,,62,92
163200,note_on,40,0,17,,,,,,,,10,,,,50,92
163200,note_on,160,0,2,,,,,,,,0,,,,66,92
163200,note_on,160,0,20,,,,,,,,13,,,,62,92
163200,note_on,160,0,4,,,,,,,,2,,,,66,92
163200,note_on,40,0,16,,,,,,,,8,,,,38,92
163200,note_on,160,0,13,,,,,,,,7,,,,66,92
163200,note_on,40,0,21,,,,,,,,14,,,,54,92
163200,note_on,160,0,18,,,,,,,,11,,,,69,108
163200,note_on,40,0,22,,,,,,,,15,,,,42,92
163200,note_on,160,0,5,,,,,,,,3,,,,66,92
163200,note_on,160,0,12,,,,,,,,6,,,,66,92
163200,note_on,40,0,7,,,,,,,,4,,,,54,92
163200,note_on,160,0,14,,,,,,,,7,,,,62,92
163200,note_on,160,0,6,,,,,,,,3,,,,62,92
163200,note_on,160,0,3,,,,,,,,2,,,,69,92
163200,note_on,160,0,9,,,,,,,,5,,,,66,92
163200,note_on,160,0,19,,,,,,,,12,,,,66,92
163200,note_on,160,0,1,,,,,,,,0,,,,69,92
163200,note_on,40,0,8,,,,,,,,4,,,,38,92
163200,note_on,160,0,15,,,,,,,,7,,,,57,92
163280,note_off,80,0,7,,,,,,,,4,,,,54,64
163280,note_off,80,0,11,,,,,,,,6,,,,69,64
163280,note_off,80,0,14,,,,,,,,7,,,,62,64
163280,note_off,80,0,5,,,,,,,,3,,,,66,64
163280,note_off,80,0,20,,,,,,,,13,,,,62,64
163280,note_off,80,0,10,,,,,,,,5,,,,62,64
163280,note_off,80,0,4,,,,,,,,2,,,,66,64
163280,note_off,80,0,2,,,,,,,,0,,,,66,64
163280,note_off,80,0,8,,,,,,,,4,,,,38,64
163280,note_off,80,0,19,,,,,,,,12,,,,66,64
163280,note_off,80,0,3,,,,,,,,2,,,,69,64
163280,note_off,80,0,16,,,,,,,,8,,,,38,64
163280,note_off,80,0,6,,,,,,,,3,,,,62,64
163280,note_off,80,0,22,,,,,,,,15,,,,42,64
163280,note_off,80,0,18,,,,,,,,11,,,,69,64
163280,note_off,80,0,15,,,,,,,,7,,,,57,64
163280,note_off,80,0,9,,,,,,,,5,,,,66,64
163280,note_off,80,0,1,,,,,,,,0,,,,69,64
163280,note_off,80,0,13,,,,,,,,7,,,,66,64
163280,note_off,80,0,17,,,,,,,,10,,,,50,64
163280,note_off,80,0,21,,,,,,,,14,,,,54,64
163280,note_off,80,0,12,,,,,,,,6,,,,66,64
163320,note_on,40,0,7,,,,,,,,4,,,,55,92
163320,note_on,40,0,8,,,,,,,,4,,,,38,92
163320,note_on,40,0,16,,,,,,,,8,,,,38,92
163320,note_on,40,0,17,,,,,,,,10,,,,50,92
163320,note_on,40,0,22,,,,,,,,15,,,,43,92
163320,note_on,40,0,21,,,,,,,,14,,,,55,92
163400,note_off,80,0,22,,,,,,,,15,,,,43,64
163400,note_off,80,0,21,,,,,,,,14,,,,55,64
163400,note_off,80,0,8,,,,,,,,4,,,,38,64
163400,note_off,80,0,16,,,,,,,,8,,,,38,64
163400,note_off,80,0,7,,,,,,,,4,,,,55,64
163400,note_off,80,0,17,,,,,,,,10,,,,50,64
163440,note_on,160,0,2,,,,,,,,0,,,,62,92
163440,note_on,160,0,10,,,,,,,,5,,,,57,92
163440,note_on,160,0,3,,,,,,,,2,,,,74,92
163440,note_on,40,0,21,,,,,,,,14,,,,54,92
163440,note_on,40,0,16,,,,,,,,8,,,,38,92
163440,note_on,160,0,18,,,,,,,,11,,,,74,108
163440,note_on,160,0,14,,,,,,,,7,,,,54,92
163440,note_on,160,0,13,,,,,,,,7,,,,57,92
163440,note_on,160,0,4,,,,,,,,2,,,,62,92
163440,note_on,40,0,22,,,,,,,,15,,,,42,92
163440,note_on,160,0,15,,,,,,,,7,,,,50,92
163440,note_on,160,0,1,,,,,,,,0,,,,74,92
163440,note_on,40,0,8,,,,,,,,4,,,,38,92
163440,note_on,160,0,9,,,,,,,,5,,,,62,92
163440,note_on,160,0,19,,,,,,,,12,,,,62,92
163440,note_on,160,0,5,,,,,,,,3,,,,62,92
163440,note_on,160,0,12,,,,,,,,6,,,,69,92
163440,note_on,160,0,20,,,,,,,,13,,,,57,92
163440,note_on,40,0,7,,,,,,,,4,,,,54,92
163440,note_on,40,0,17,,,,,,,,10,,,,50,92
163440,note_on,160,0,6,,,,,,,,3,,,,57,92
163440,note_on,160,0,11,,,,,,,,6,,,,74,92
163520,note_off,80,0,5,,,,,,,,3,,,,62,64
163520,note_off,80,0,4,,,,,,,,2,,,,62,64
163520,note_off,80,0,20,,,,,,,,13,,,,57,64
163520,note_off,80,0,13,,,,,,,,7,,,,57,64
163520,note_off,80,0,2,,,,,,,,0,,,,62,64
163520,note_off,80,0,18,,,,,,,,11,,,,74,64
163520,note_off,80,0,12,,,,,,,,6,,,,69,64
163520,note_off,80,0,1,,,,,,,,0,,,,74,64
163520,note_off,80,0,14,,,,,,,,7,,,,54,64
163520,note_off,80,0,15,,,,,,,,7,,,,50,64
163520,note_off,80,0,11,,,,,,,,6,,,,74,64
163520,note_off,80,0,22,,,,,,,,15,,,,42,64
163520,note_off,80,0,3,,,,,,,,2,,,,74,64
163520,note_off,80,0,17,,,,,,,,10,,,,50,64
163520,note_off,80,0,10,,,,,,,,5,,,,57,64
163520,note_off,80,0,21,,,,,,,,14,,,,54,64
163520,note_off,80,0,9,,,,,,,,5,,,,62,64
163520,note_off,80,0,19,,,,,,,,12,,,,62,64
163520,note_off,80,0,7,,,,,,,,4,,,,54,64
163520,note_off,80,0,6,,,,,,,,3,,,,57,64
163520,note_off,80,0,16,,,,,,,,8,,,,38,64
163520,note_off,80,0,8,,,,,,,,4,,,,38,64
163560,note_on,40,0,17,,,,,,,,10,,,,50,92
163560,note_on,40,0,7,,,,,,,,4,,,,52,92
163560,note_on,40,0,16,,,,,,,,8,,,,38,92
163560,note_on,40,0,21,,,,,,,,14,,,,52,92
163560,note_on,40,0,8,,,,,,,,4,,,,38,92
163560,note_on,40,0,22,,,,,,,,15,,,,40,92
163640,note_off,80,0,8,,,,,,,,4,,,,38,64
163640,note_off,80,0,22,,,,,,,,15,,,,40,64
163640,note_off,80,0,21,,,,,,,,14,,,,52,64
163640,note_off,80,0,17,,,,,,,,10,,,,50,64
163640,note_off,80,0,7,,,,,,,,4,,,,52,64
163640,note_off,80,0,16,,,,,,,,8,,,,38,64
163680,note_on,40,0,22,,,,,,,,15,,,,38,92
163680,note_on,160,0,18,,,,,,,,11,,,,74,108
163680,note_on,160,0,9,,,,,,,,5,,,,62,92
163680,note_on,160,0,13,,,,,,,,7,,,,57,92
163680,note_on,160,0,12,,,,,,,,6,,,,69,92
163680,note_on,160,0,11,,,,,,,,6,,,,74,92
163680,note_on,160,0,1,,,,,,,,0,,,,74,92
163680,note_on,40,0,7,,,,,,,,4,,,,50,92
163680,note_on,40,0,16,,,,,,,,8,,,,38,92
163680,note_on,160,0,20,,,,,,,,13,,,,66,92
163680,note_on,160,0,10,,,,,,,,5,,,,57,92
163680,note_on,160,0,4,,,,,,,,2,,,,69,92
163680,note_on,160,0,19,,,,,,,,12,,,,69,92
163680,note_on,40,0,21,,,,,,,,14,,,,50,92
163680,note_on,160,0,15,,,,,,,,7,,,,50,92
163680,note_on,40,0,17,,,,,,,,10,,,,50,92
163680,note_on,160,0,14,,,,,,,,7,,,,54,92
163680,note_on,160,0,3,,,,,,,,2,,,,74,92
163680,note_on,160,0,6,,,,,,,,3,,,,66,92
163680,note_on,160,0,5,,,,,,,,3,,,,69,92
163680,note_on,40,0,8,,,,,,,,4,,,,38,92
163680,note_on,160,0,2,,,,,,,,0,,,,69,92
163760,note_off,80,0,15,,,,,,,,7,,,,50,64
163760,note_off,80,0,1,,,,,,,,0,,,,74,64
163760,note_off,80,0,9,,,,,,,,5,,,,62,64
163760,note_off,80,0,10,,,,,,,,5,,,,57,64
163760,note_off,80,0,11,,,,,,,,6,,,,74,64
163760,note_off,80,0,7,,,,,,,,4,,,,50,64
163760,note_off,80,0,19,,,,,,,,12,,,,69,64
163760,note_off,80,0,5,,,,,,,,3,,,,69,64
163760,note_off,80,0,22,,,,,,,,15,,,,38,64
163760,note_off,80,0,6,,,,,,,,3,,,,66,64
163760,note_off,80,0,21,,,,,,,,14,,,,50,64
163760,note_off,80,0,18,,,,,,,,11,,,,74,64
163760,note_off,80,0,14,,,,,,,,7,,,,54,64
163760,note_off,80,0,3,,,,,,,,2,,,,74,64
163760,note_off,80,0,4,,,,,,,,2,,,,69,64
163760,note_off,80,0,2,,,,,,,,0,,,,69,64
163760,note_off,80,0,12,,,,,,,,6,,,,69,64
163760,note_off,80,0,20,,,,,,,,13,,,,66,64
163760,note_off,80,0,13,,,,,,,,7,,,,57,64
163920,note_on,160,0,19,,,,,,,,12,,,,66,92
163920,note_on,160,0,4,,,,,,,,2,,,,66,92
163920,note_on,160,0,7,,,,,,,,4,,,,54,92
163920,note_on,160,0,5,,,,,,,,3,,,,66,92
163920,note_on,160,0,18,,,,,,,,11,,,,69,108
163920,note_on,160,0,20,,,,,,,,13,,,,62,92
163920,note_on,160,0,11,,,,,,,,6,,,,69,92
163920,note_on,160,0,21,,,,,,,,14,,,,54,92
163920,note_on,160,0,2,,,,,,,,0,,,,66,92
163920,note_on,160,0,1,,,,,,,,0,,,,69,92
163920,note_on,160,0,13,,,,,,,,7,,,,54,92
163920,note_on,160,0,9,,,,,,,,5,,,,57,92
163920,note_on,160,0,10,,,,,,,,5,,,,54,92
163920,note_on,160,0,22,,,,,,,,15,,,,42,92
163920,note_on,160,0,6,,,,,,,,3,,,,62,92
163920,note_on,160,0,15,,,,,,,,7,,,,45,92
163920,note_on,160,0,14,,,,,,,,7,,,,50,92
163920,note_on,160,0,12,,,,,,,,6,,,,66,92
163920,note_on,160,0,3,,,,,,,,2,,,,69,92
164000,note_off,80,0,19,,,,,,,,12,,,,66,64
164000,note_off,80,0,6,,,,,,,,3,,,,62,64
164000,note_off,80,0,21,,,,,,,,14,,,,54,64
164000,note_off,80,0,18,,,,,,,,11,,,,69,64
164000,note_off,80,0,15,,,,,,,,7,,,,45,64
164000,note_off,80,0,2,,,,,,,,0,,,,66,64
164000,note_off,80,0,5,,,,,,,,3,,,,66,64
164000,note_off,80,0,7,,,,,,,,4,,,,54,64
164000,note_off,80,0,14,,,,,,,,7,,,,50,64
164000,note_off,80,0,9,,,,,,,,5,,,,57,64
164000,note_off,80,0,22,,,,,,,,15,,,,42,64
164000,note_off,80,0,11,,,,,,,,6,,,,69,64
164000,note_off,80,0,13,,,,,,,,7,,,,54,64
164000,note_off,80,0,10,,,,,,,,5,,,,54,64
164000,note_off,80,0,4,,,,,,,,2,,,,66,64
164000,note_off,80,0,3,,,,,,,,2,,,,69,64
164000,note_off,80,0,1,,,,,,,,0,,,,69,64
164000,note_off,80,0,20,,,,,,,,13,,,,62,64
164000,note_off,80,0,12,,,,,,,,6,,,,66,64
164080,note_off,400,0,16,,,,,,,,8,,,,38,64
164080,note_off,400,0,8,,,,,,,,4,,,,38,64
164080,note_off,400,0,17,,,,,,,,10,,,,50,64
164160,note_on,160,0,21,,,,,,,,14,,,,57,92
164160,note_on,160,0,7,,,,,,,,4,,,,57,92
164160,note_on,160,0,22,,,,,,,,15,,,,45,92
164240,note_off,80,0,21,,,,,,,,14,,,,57,64
164240,note_off,80,0,22,,,,,,,,15,,,,45,64
164240,note_off,80,0,7,,,,,,,,4,,,,57,64
164400,note_on,400,0,6,,,,,,,,3,,,,66,92
164400,note_on,400,0,3,,,,,,,,2,,,,74,92
164400,note_on,400,0,19,,,,,,,,12,,,,71,92
164400,note_on,400,0,11,,,,,,,,6,,,,74,92
164400,note_on,320,0,16,,,,,,,,8,,,,38,92
164400,note_on,400,0,10,,,,,,,,5,,,,57,92
164400,note_on,400,0,12,,,,,,,,6,,,,69,92
164400,note_on,400,0,14,,,,,,,,7,,,,54,92
164400,note_on,400,0,2,,,,,,,,0,,,,71,92
164400,note_on,400,0,5,,,,,,,,3,,,,71,92
164400,note_on,160,0,21,,,,,,,,14,,,,62,92
164400,note_on,400,0,9,,,,,,,,5,,,,62,92
164400,note_on,400,0,15,,,,,,,,7,,,,50,92
164400,note_on,400,0,1,,,,,,,,0,,,,74,92
164400,note_on,160,0,22,,,,,,,,15,,,,50,92
164400,note_on,160,0,7,,,,,,,,4,,,,62,92
164400,note_on,400,0,20,,,,,,,,13,,,,66,92
164400,note_on,400,0,18,,,,,,,,11,,,,74,108
164400,note_on,400,0,4,,,,,,,,2,,,,71,92
164400,note_on,400,0,13,,,,,,,,7,,,,57,92
164400,note_on,320,0,17,,,,,,,,10,,,,50,92
164400,note_on,320,0,8,,,,,,,,4,,,,38,92
164480,note_off,80,0,22,,,,,,,,15,,,,50,64
164480,note_off,80,0,19,,,,,,,,12,,,,71,64
164480,note_off,80,0,4,,,,,,,,2,,,,71,64
164480,note_off,80,0,16,,,,,,,,8,,,,38,64
164480,note_off,80,0,2,,,,,,,,0,,,,71,64
164480,note_off,80,0,10,,,,,,,,5,,,,57,64
164480,note_off,80,0,13,,,,,,,,7,,,,57,64
164480,note_off,80,0,6,,,,,,,,3,,,,66,64
164480,note_off,80,0,11,,,,,,,,6,,,,74,64
164480,note_off,80,0,3,,,,,,,,2,,,,74,64
164480,note_off,80,0,12,,,,,,,,6,,,,69,64
164480,note_off,80,0,7,,,,,,,,4,,,,62,64
164480,note_off,80,0,14,,,,,,,,7,,,,54,64
164480,note_off,80,0,17,,,,,,,,10,,,,50,64
164480,note_off,80,0,8,,,,,,,,4,,,,38,64
164480,note_off,80,0,20,,,,,,,,13,,,,66,64
164480,note_off,80,0,1,,,,,,,,0,,,,74,64
164480,note_off,80,0,9,,,,,,,,5,,,,62,64
164480,note_off,80,0,21,,,,,,,,14,,,,62,64
164480,note_off,80,0,5,,,,,,,,3,,,,71,64
164480,note_off,80,0,15,,,,,,,,7,,,,50,64
164480,note_off,80,0,18,,,,,,,,11,,,,74,64
164640,note_on,160,0,17,,,,,,,,10,,,,50,92
164640,note_on,160,0,5,,,,,,,,3,,,,73,92
164640,note_on,160,0,6,,,,,,,,3,,,,69,92
164640,note_on,160,0,14,,,,,,,,7,,,,54,92
164640,note_on,160,0,8,,,,,,,,4,,,,38,92
164640,note_on,160,0,4,,,,,,,,2,,,,73,92
164640,note_on,160,0,16,,,,,,,,8,,,,38,92
164640,note_on,160,0,10,,,,,,,,5,,,,61,92
164640,note_on,160,0,2,,,,,,,,0,,,,73,92
164640,note_on,160,0,7,,,,,,,,4,,,,61,92
164640,note_on,160,0,12,,,,,,,,6,,,,73,92
164640,note_on,160,0,19,,,,,,,,12,,,,73,92
164640,note_on,160,0,3,,,,,,,,2,,,,76,92
164640,note_on,160,0,15,,,,,,,,7,,,,50,92
164640,note_on,160,0,20,,,,,,,,13,,,,69,92
164640,note_on,160,0,11,,,,,,,,6,,,,76,92
164640,note_on,160,0,22,,,,,,,,15,,,,49,92
164640,note_on,160,0,13,,,,,,,,7,,,,57,92
164640,note_on,160,0,18,,,,,,,,11,,,,76,108
164640,note_on,160,0,21,,,,,,,,14,,,,61,92
164640,note_on,160,0,1,,,,,,,,0,,,,76,92
164640,note_on,160,0,9,,,,,,,,5,,,,64,92
164720,note_off,80,0,19,,,,,,,,12,,,,73,64
164720,note_off,80,0,13,,,,,,,,7,,,,57,64
164720,note_off,80,0,3,,,,,,,,2,,,,76,64
164720,note_off,80,0,12,,,,,,,,6,,,,73,64
164720,note_off,80,0,6,,,,,,,,3,,,,69,64
164720,note_off,80,0,21,,,,,,,,14,,,,61,64
164720,note_off,80,0,2,,,,,,,,0,,,,73,64
164720,note_off,80,0,7,,,,,,,,4,,,,61,64
164720,note_off,80,0,9,,,,,,,,5,,,,64,64
164720,note_off,80,0,16,,,,,,,,8,,,,38,64
164720,note_off,80,0,4,,,,,,,,2,,,,73,64
164720,note_off,80,0,1,,,,,,,,0,,,,76,64
164720,note_off,80,0,14,,,,,,,,7,,,,54,64
164720,note_off,80,0,18,,,,,,,,11,,,,76,64
164720,note_off,80,0,8,,,,,,,,4,,,,38,64
164720,note_off,80,0,15,,,,,,,,7,,,,50,64
164720,note_off,80,0,17,,,,,,,,10,,,,50,64
164720,note_off,80,0,5,,,,,,,,3,,,,73,64
164720,note_off,80,0,10,,,,,,,,5,,,,61,64
164720,note_off,80,0,20,,,,,,,,13,,,,69,64
164720,note_off,80,0,22,,,,,,,,15,,,,49,64
164720,note_off,80,0,11,,,,,,,,6,,,,76,64
164880,note_on,160,0,10,,,,,,,,5,,,,62,92
164880,note_on,160,0,13,,,,,,,,7,,,,61,92
164880,note_on,160,0,21,,,,,,,,14,,,,57,92
164880,note_on,160,0,9,,,,,,,,5,,,,66,92
164880,note_on,160,0,2,,,,,,,,0,,,,74,92
164880,note_on,160,0,14,,,,,,,,7,,,,55,92
164880,note_on,160,0,3,,,,,,,,2,,,,78,92
164880,note_on,160,0,19,,,,,,,,12,,,,74,92
164880,note_on,160,0,18,,,,,,,,11,,,,78,108
164880,note_on,160,0,6,,,,,,,,3,,,,66,92
164880,note_on,160,0,15,,,,,,,,7,,,,52,92
164880,note_on,160,0,17,,,,,,,,10,,,,45,92
164880,note_on,160,0,12,,,,,,,,6,,,,74,92
164880,note_on,160,0,22,,,,,,,,15,,,,45,92
164880,note_on,160,0,8,,,,,,,,4,,,,45,92
164880,note_on,160,0,4,,,,,,,,2,,,,74,92
164880,note_on,160,0,5,,,,,,,,3,,,,74,92
164880,note_on,160,0,16,,,,,,,,8,,,,33,92
164880,note_on,160,0,1,,,,,,,,0,,,,78,92
164880,note_on,160,0,11,,,,,,,,6,,,,78,92
164880,note_on,160,0,20,,,,,,,,13,,,,66,92
164880,note_on,160,0,7,,,,,,,,4,,,,57,92
164960,note_off,80,0,7,,,,,,,,4,,,,57,64
164960,note_off,80,0,16,,,,,,,,8,,,,33,64
164960,note_off,80,0,17,,,,,,,,10,,,,45,64
164960,note_off,80,0,22,,,,,,,,15,,,,45,64
164960,note_off,80,0,13,,,,,,,,7,,,,61,64
164960,note_off,80,0,14,,,,,,,,7,,,,55,64
164960,note_off,80,0,20,,,,,,,,13,,,,66,64
164960,note_off,80,0,15,,,,,,,,7,,,,52,64
164960,note_off,80,0,21,,,,,,,,14,,,,57,64
164960,note_off,80,0,8,,,,,,,,4,,,,45,64
164960,note_off,80,0,6,,,,,,,,3,,,,66,64
165000,note_off,120,0,18,,,,,,,,11,,,,78,64
165000,note_on,0,0,2,,,,,,,,0,,,,73,92
165000,note_on,0,0,10,,,,,,,,5,,,,61,92
165000,note_on,0,0,11,,,,,,,,6,,,,76,92
165000,note_off,120,0,11,,,,,,,,6,,,,78,64
165000,note_off,120,0,10,,,,,,,,5,,,,62,64
165000,note_off,120,0,3,,,,,,,,2,,,,78,64
165000,note_on,0,0,3,,,,,,,,2,,,,76,92
165000,note_on,0,0,4,,,,,,,,2,,,,73,92
165000,note_off,120,0,4,,,,,,,,2,,,,74,64
165000,note_off,120,0,19,,,,,,,,12,,,,74,64
165000,note_off,120,0,2,,,,,,,,0,,,,74,64
165000,note_off,120,0,12,,,,,,,,6,,,,74,64
165000,note_on,0,0,19,,,,,,,,12,,,,73,92
165000,note_on,0,0,12,,,,,,,,6,,,,73,92
165000,note_on,0,0,18,,,,,,,,11,,,,76,108
165000,note_off,120,0,5,,,,,,,,3,,,,74,64
165000,note_on,0,0,1,,,,,,,,0,,,,76,92
165000,note_off,120,0,1,,,,,,,,0,,,,78,64
165000,note_off,120,0,9,,,,,,,,5,,,,66,64
165000,note_on,0,0,5,,,,,,,,3,,,,73,92
165000,note_on,0,0,9,,,,,,,,5,,,,64,92
165080,note_off,80,0,1,,,,,,,,0,,,,76,64
165080,note_off,80,0,11,,,,,,,,6,,,,76,64
165080,note_off,80,0,2,,,,,,,,0,,,,73,64
165080,note_off,80,0,3,,,,,,,,2,,,,76,64
165080,note_off,80,0,19,,,,,,,,12,,,,73,64
165080,note_off,80,0,4,,,,,,,,2,,,,73,64
165080,note_off,80,0,18,,,,,,,,11,,,,76,64
165080,note_off,80,0,5,,,,,,,,3,,,,73,64
165080,note_off,80,0,12,,,,,,,,6,,,,73,64
165080,note_off,80,0,9,,,,,,,,5,,,,64,64
165115,note_off,115,0,10,,,,,,,,5,,,,61,64
165120,note_on,160,0,8,,,,,,,,4,,,,38,92
165120,note_on,40,0,5,,,,,,,,3,,,,74,92
165120,note_on,160,0,20,,,,,,,,13,,,,69,92
165120,note_on,160,0,22,,,,,,,,15,,,,50,92
165120,note_on,40,0,3,,,,,,,,2,,,,78,92
165120,note_on,160,0,16,,,,,,,,8,,,,38,92
165120,note_on,40,0,12,,,,,,,,6,,,,74,92
165120,note_on,160,0,13,,,,,,,,7,,,,62,92
165120,note_on,160,0,15,,,,,,,,7,,,,54,92
165120,note_on,40,0,4,,,,,,,,2,,,,74,92
165120,note_on,40,0,19,,,,,,,,12,,,,74,92
165120,note_on,40,0,9,,,,,,,,5,,,,66,92
165120,note_on,160,0,6,,,,,,,,3,,,,69,92
165120,note_on,40,0,1,,,,,,,,0,,,,78,92
165120,note_on,160,0,21,,,,,,,,14,,,,62,92
165120,note_on,40,0,18,,,,,,,,11,,,,78,108
165120,note_on,160,0,17,,,,,,,,10,,,,50,92
165120,note_on,5,0,10,,,,,,,,5,,,,62,92
165120,note_on,160,0,7,,,,,,,,4,,,,62,92
165120,note_on,160,0,14,,,,,,,,7,,,,57,92
165120,note_on,40,0,11,,,,,,,,6,,,,78,92
165120,note_on,40,0,2,,,,,,,,0,,,,74,92
165200,note_off,80,0,18,,,,,,,,11,,,,78,64
165200,note_off,80,0,14,,,,,,,,7,,,,57,64
165200,note_off,80,0,4,,,,,,,,2,,,,74,64
165200,note_off,80,0,19,,,,,,,,12,,,,74,64
165200,note_off,80,0,3,,,,,,,,2,,,,78,64
165200,note_off,80,0,9,,,,,,,,5,,,,66,64
165200,note_off,80,0,20,,,,,,,,13,,,,69,64
165200,note_off,80,0,6,,,,,,,,3,,,,69,64
165200,note_off,80,0,7,,,,,,,,4,,,,62,64
165200,note_off,80,0,13,,,,,,,,7,,,,62,64
165200,note_off,80,0,5,,,,,,,,3,,,,74,64
165200,note_off,80,0,12,,,,,,,,6,,,,74,64
165200,note_off,80,0,21,,,,,,,,14,,,,62,64
165200,note_off,80,0,10,,,,,,,,5,,,,62,64
165200,note_off,80,0,15,,,,,,,,7,,,,54,64
165200,note_off,80,0,22,,,,,,,,15,,,,50,64
165200,note_off,80,0,1,,,,,,,,0,,,,78,64
165200,note_off,80,0,2,,,,,,,,0,,,,74,64
165200,note_off,80,0,11,,,,,,,,6,,,,78,64
165360,note_on,160,0,14,,,,,,,,7,,,,54,92
165360,note_on,160,0,11,,,,,,,,6,,,,74,92
165360,note_on,160,0,21,,,,,,,,14,,,,50,92
165360,note_on,160,0,3,,,,,,,,2,,,,74,92
165360,note_on,160,0,4,,,,,,,,2,,,,69,92
165360,note_on,160,0,1,,,,,,,,0,,,,74,92
165360,note_on,160,0,12,,,,,,,,6,,,,69,92
165360,note_on,160,0,18,,,,,,,,11,,,,74,108
165360,note_on,160,0,6,,,,,,,,3,,,,66,92
165360,note_on,160,0,13,,,,,,,,7,,,,57,92
165360,note_on,160,0,19,,,,,,,,12,,,,69,92
165360,note_on,160,0,7,,,,,,,,4,,,,50,92
165360,note_on,160,0,2,,,,,,,,0,,,,69,92
165360,note_on,160,0,9,,,,,,,,5,,,,62,92
165360,note_on,160,0,10,,,,,,,,5,,,,57,92
165360,note_on,160,0,15,,,,,,,,7,,,,50,92
165360,note_on,160,0,20,,,,,,,,13,,,,66,92
165360,note_on,160,0,5,,,,,,,,3,,,,69,92
165360,note_on,160,0,22,,,,,,,,15,,,,38,92
165440,note_off,80,0,11,,,,,,,,6,,,,74,64
165440,note_off,80,0,14,,,,,,,,7,,,,54,64
165440,note_off,80,0,4,,,,,,,,2,,,,69,64
165440,note_off,80,0,21,,,,,,,,14,,,,50,64
165440,note_off,80,0,7,,,,,,,,4,,,,50,64
165440,note_off,80,0,5,,,,,,,,3,,,,69,64
165440,note_off,80,0,2,,,,,,,,0,,,,69,64
165440,note_off,80,0,22,,,,,,,,15,,,,38,64
165440,note_off,80,0,1,,,,,,,,0,,,,74,64
165440,note_off,80,0,6,,,,,,,,3,,,,66,64
165440,note_off,80,0,19,,,,,,,,12,,,,69,64
165440,note_off,80,0,15,,,,,,,,7,,,,50,64
165440,note_off,80,0,12,,,,,,,,6,,,,69,64
165440,note_off,80,0,18,,,,,,,,11,,,,74,64
165440,note_off,80,0,13,,,,,,,,7,,,,57,64
165440,note_off,80,0,9,,,,,,,,5,,,,62,64
165440,note_off,80,0,10,,,,,,,,5,,,,57,64
165440,note_off,80,0,3,,,,,,,,2,,,,74,64
165440,note_off,80,0,20,,,,,,,,13,,,,66,64
165520,note_off,400,0,8,,,,,,,,4,,,,38,64
165520,note_off,400,0,16,,,,,,,,8,,,,38,64
165520,note_off,400,0,17,,,,,,,,10,,,,50,64
165600,note_on,160,0,21,,,,,,,,14,,,,54,92
165600,note_on,80,0,8,,,,,,,,4,,,,38,92
165600,note_on,160,0,22,,,,,,,,15,,,,42,92
165600,note_on,160,0,7,,,,,,,,4,,,,54,92
165680,note_off,80,0,22,,,,,,,,15,,,,42,64
165680,note_off,80,0,7,,,,,,,,4,,,,54,64
165680,note_off,80,0,21,,,,,,,,14,,,,54,64
165840,note_on,400,0,5,,,,,,,,3,,,,74,92
165840,note_on,400,0,18,,,,,,,,11,,,,78,108
165840,note_on,400,0,12,,,,,,,,6,,,,74,92
165840,note_on,400,0,13,,,,,,,,7,,,,62,92
165840,note_on,400,0,20,,,,,,,,13,,,,66,92
165840,note_on,400,0,10,,,,,,,,5,,,,62,92
165840,note_on,400,0,15,,,,,,,,7,,,,50,92
165840,note_on,160,0,21,,,,,,,,14,,,,50,92
165840,note_on,400,0,19,,,,,,,,12,,,,74,92
165840,note_on,400,0,9,,,,,,,,5,,,,66,92
165840,note_on,400,0,14,,,,,,,,7,,,,54,92
165840,note_on,400,0,3,,,,,,,,2,,,,78,92
165840,note_on,400,0,4,,,,,,,,2,,,,74,92
165840,note_on,160,0,7,,,,,,,,4,,,,50,92
165840,note_on,400,0,2,,,,,,,,0,,,,74,92
165840,note_on,400,0,1,,,,,,,,0,,,,78,92
165840,note_on,160,0,22,,,,,,,,15,,,,38,92
165840,note_on,400,0,11,,,,,,,,6,,,,78,92
165840,note_on,400,0,6,,,,,,,,3,,,,66,92
165920,note_off,80,0,12,,,,,,,,6,,,,74,64
165920,note_off,80,0,11,,,,,,,,6,,,,78,64
165920,note_off,80,0,1,,,,,,,,0,,,,78,64
165920,note_off,80,0,19,,,,,,,,12,,,,74,64
165920,note_off,80,0,21,,,,,,,,14,,,,50,64
165920,note_off,80,0,5,,,,,,,,3,,,,74,64
165920,note_off,80,0,2,,,,,,,,0,,,,74,64
165920,note_off,80,0,20,,,,,,,,13,,,,66,64
165920,note_off,80,0,4,,,,,,,,2,,,,74,64
165920,note_off,80,0,9,,,,,,,,5,,,,66,64
165920,note_off,80,0,6,,,,,,,,3,,,,66,64
165920,note_off,80,0,3,,,,,,,,2,,,,78,64
165920,note_off,80,0,18,,,,,,,,11,,,,78,64
165920,note_off,80,0,22,,,,,,,,15,,,,38,64
165920,note_off,80,0,7,,,,,,,,4,,,,50,64
165920,note_off,80,0,15,,,,,,,,7,,,,50,64
165920,note_off,80,0,13,,,,,,,,7,,,,62,64
165920,note_off,80,0,10,,,,,,,,5,,,,62,64
165920,note_off,80,0,14,,,,,,,,7,,,,54,64
166000,note_off,400,0,8,,,,,,,,4,,,,38,64
166080,note_on,160,0,11,,,,,,,,6,,,,79,92
166080,note_on,160,0,13,,,,,,,,7,,,,64,92
166080,note_on,160,0,19,,,,,,,,12,,,,76,92
166080,note_on,160,0,3,,,,,,,,2,,,,79,92
166080,note_on,160,0,15,,,,,,,,7,,,,54,92
166080,note_on,160,0,9,,,,,,,,5,,,,67,92
166080,note_on,160,0,10,,,,,,,,5,,,,64,92
166080,note_on,160,0,7,,,,,,,,4,,,,55,92
166080,note_on,160,0,18,,,,,,,,11,,,,79,108
166080,note_on,160,0,6,,,,,,,,3,,,,69,92
166080,note_on,160,0,14,,,,,,,,7,,,,59,92
166080,note_on,160,0,5,,,,,,,,3,,,,76,92
166080,note_on,160,0,20,,,,,,,,13,,,,69,92
166080,note_on,160,0,12,,,,,,,,6,,,,76,92
166080,note_on,160,0,4,,,,,,,,2,,,,76,92
166080,note_on,160,0,22,,,,,,,,15,,,,43,92
166080,note_on,160,0,21,,,,,,,,14,,,,55,92
166080,note_on,160,0,2,,,,,,,,0,,,,76,92
166080,note_on,160,0,1,,,,,,,,0,,,,79,92
166160,note_off,80,0,11,,,,,,,,6,,,,79,64
166160,note_off,80,0,9,,,,,,,,5,,,,67,64
166160,note_off,80,0,12,,,,,,,,6,,,,76,64
166160,note_off,80,0,1,,,,,,,,0,,,,79,64
166160,note_off,80,0,21,,,,,,,,14,,,,55,64
166160,note_off,80,0,14,,,,,,,,7,,,,59,64
166160,note_off,80,0,7,,,,,,,,4,,,,55,64
166160,note_off,80,0,10,,,,,,,,5,,,,64,64
166160,note_off,80,0,20,,,,,,,,13,,,,69,64
166160,note_off,80,0,2,,,,,,,,0,,,,76,64
166160,note_off,80,0,13,,,,,,,,7,,,,64,64
166160,note_off,80,0,19,,,,,,,,12,,,,76,64
166160,note_off,80,0,3,,,,,,,,2,,,,79,64
166160,note_off,80,0,4,,,,,,,,2,,,,76,64
166160,note_off,80,0,6,,,,,,,,3,,,,69,64
166160,note_off,80,0,5,,,,,,,,3,,,,76,64
166160,note_off,80,0,18,,,,,,,,11,,,,79,64
166160,note_off,80,0,15,,,,,,,,7,,,,54,64
166160,note_off,80,0,22,,,,,,,,15,,,,43,64
166320,note_on,160,0,4,,,,,,,,2,,,,78,92
166320,note_on,160,0,14,,,,,,,,7,,,,59,92
166320,note_on,160,0,6,,,,,,,,3,,,,74,92
166320,note_on,160,0,9,,,,,,,,5,,,,69,92
166320,note_on,160,0,12,,,,,,,,6,,,,78,92
166320,note_on,160,0,3,,,,,,,,2,,,,81,92
166320,note_on,160,0,5,,,,,,,,3,,,,78,92
166320,note_on,160,0,20,,,,,,,,13,,,,74,92
166320,note_on,160,0,18,,,,,,,,11,,,,81,108
166320,note_on,160,0,2,,,,,,,,0,,,,78,92
166320,note_on,160,0,10,,,,,,,,5,,,,66,92
166320,note_on,160,0,7,,,,,,,,4,,,,43,92
166320,note_on,160,0,19,,,,,,,,12,,,,78,92
166320,note_on,160,0,13,,,,,,,,7,,,,64,92
166320,note_on,160,0,1,,,,,,,,0,,,,81,92
166320,note_on,160,0,11,,,,,,,,6,,,,81,92
166320,note_on,160,0,15,,,,,,,,7,,,,54,92
166320,note_on,160,0,22,,,,,,,,15,,,,31,92
166320,note_on,160,0,21,,,,,,,,14,,,,43,92
166400,note_off,80,0,7,,,,,,,,4,,,,43,64
166400,note_off,80,0,6,,,,,,,,3,,,,74,64
166400,note_off,80,0,22,,,,,,,,15,,,,31,64
166400,note_off,80,0,13,,,,,,,,7,,,,64,64
166400,note_off,80,0,15,,,,,,,,7,,,,54,64
166400,note_off,80,0,14,,,,,,,,7,,,,59,64
166400,note_off,80,0,20,,,,,,,,13,,,,74,64
166400,note_off,80,0,21,,,,,,,,14,,,,43,64
166440,note_on,0,0,5,,,,,,,,3,,,,76,92
166440,note_off,120,0,10,,,,,,,,5,,,,66,64
166440,note_on,0,0,11,,,,,,,,6,,,,79,92
166440,note_off,120,0,11,,,,,,,,6,,,,81,64
166440,note_on,0,0,19,,,,,,,,12,,,,76,92
166440,note_off,120,0,19,,,,,,,,12,,,,78,64
166440,note_off,120,0,1,,,,,,,,0,,,,81,64
166440,note_on,0,0,1,,,,,,,,0,,,,79,92
166440,note_off,120,0,2,,,,,,,,0,,,,78,64
166440,note_on,0,0,2,,,,,,,,0,,,,76,92
166440,note_on,0,0,18,,,,,,,,11,,,,79,108
166440,note_off,120,0,3,,,,,,,,2,,,,81,64
166440,note_on,0,0,3,,,,,,,,2,,,,79,92
166440,note_on,0,0,10,,,,,,,,5,,,,64,92
166440,note_off,120,0,4,,,,,,,,2,,,,78,64
166440,note_off,120,0,18,,,,,,,,11,,,,81,64
166440,note_off,120,0,9,,,,,,,,5,,,,69,64
166440,note_on,0,0,9,,,,,,,,5,,,,67,92
166440,note_off,120,0,12,,,,,,,,6,,,,78,64
166440,note_on,0,0,12,,,,,,,,6,,,,76,92
166440,note_on,0,0,4,,,,,,,,2,,,,76,92
166440,note_off,120,0,5,,,,,,,,3,,,,78,64
166520,note_off,80,0,10,,,,,,,,5,,,,64,64
166520,note_off,80,0,9,,,,,,,,5,,,,67,64
166520,note_off,80,0,11,,,,,,,,6,,,,79,64
166520,note_off,80,0,2,,,,,,,,0,,,,76,64
166520,note_off,80,0,3,,,,,,,,2,,,,79,64
166520,note_off,80,0,1,,,,,,,,0,,,,79,64
166520,note_off,80,0,4,,,,,,,,2,,,,76,64
166520,note_off,80,0,5,,,,,,,,3,,,,76,64
166520,note_off,80,0,19,,,,,,,,12,,,,76,64
166520,note_off,80,0,12,,,,,,,,6,,,,76,64
166520,note_off,80,0,18,,,,,,,,11,,,,79,64
166560,note_on,40,0,12,,,,,,,,6,,,,78,92
166560,note_on,40,0,2,,,,,,,,0,,,,78,92
166560,note_on,160,0,6,,,,,,,,3,,,,78,92
166560,note_on,160,0,13,,,,,,,,7,,,,66,92
166560,note_on,160,0,21,,,,,,,,14,,,,50,92
166560,note_on,40,0,10,,,,,,,,5,,,,66,92
166560,note_on,160,0,15,,,,,,,,7,,,,57,92
166560,note_on,40,0,4,,,,,,,,2,,,,78,92
166560,note_on,160,0,22,,,,,,,,15,,,,38,92
166560,note_on,40,0,3,,,,,,,,2,,,,81,92
166560,note_on,40,0,5,,,,,,,,3,,,,78,92
166560,note_on,40,0,11,,,,,,,,6,,,,81,92
166560,note_on,40,0,1,,,,,,,,0,,,,81,92
166560,note_on,160,0,20,,,,,,,,13,,,,78,92
166560,note_on,40,0,19,,,,,,,,12,,,,78,92
166560,note_on,40,0,9,,,,,,,,5,,,,69,92
166560,note_on,40,0,18,,,,,,,,11,,,,81,108
166560,note_on,160,0,14,,,,,,,,7,,,,62,92
166560,note_on,160,0,7,,,,,,,,4,,,,50,92
166640,note_off,80,0,7,,,,,,,,4,,,,50,64
166640,note_off,80,0,3,,,,,,,,2,,,,81,64
166640,note_off,80,0,11,,,,,,,,6,,,,81,64
166640,note_off,80,0,22,,,,,,,,15,,,,38,64
166640,note_off,80,0,1,,,,,,,,0,,,,81,64
166640,note_off,80,0,6,,,,,,,,3,,,,78,64
166640,note_off,80,0,20,,,,,,,,13,,,,78,64
166640,note_off,80,0,18,,,,,,,,11,,,,81,64
166640,note_off,80,0,21,,,,,,,,14,,,,50,64
166640,note_off,80,0,4,,,,,,,,2,,,,78,64
166640,note_off,80,0,5,,,,,,,,3,,,,78,64
166640,note_off,80,0,2,,,,,,,,0,,,,78,64
166640,note_off,80,0,19,,,,,,,,12,,,,78,64
166640,note_off,80,0,9,,,,,,,,5,,,,69,64
166640,note_off,80,0,12,,,,,,,,6,,,,78,64
166640,note_off,80,0,15,,,,,,,,7,,,,57,64
166640,note_off,80,0,10,,,,,,,,5,,,,66,64
166640,note_off,80,0,14,,,,,,,,7,,,,62,64
166640,note_off,80,0,13,,,,,,,,7,,,,66,64
166800,note_on,160,0,1,,,,,,,,0,,,,78,92
166800,note_on,800,0,8,,,,,,,,4,,,,38,92
166800,note_on,160,0,3,,,,,,,,2,,,,78,92
166800,note_on,160,0,5,,,,,,,,3,,,,74,92
166800,note_on,160,0,10,,,,,,,,5,,,,62,92
166800,note_on,160,0,6,,,,,,,,3,,,,74,92
166800,note_on,160,0,22,,,,,,,,15,,,,42,92
166800,note_on,160,0,15,,,,,,,,7,,,,54,92
166800,note_on,160,0,4,,,,,,,,2,,,,74,92
166800,note_on,160,0,13,,,,,,,,7,,,,62,92
166800,note_on,160,0,2,,,,,,,,0,,,,74,92
166800,note_on,160,0,14,,,,,,,,7,,,,59,92
166800,note_on,160,0,18,,,,,,,,11,,,,78,108
166800,note_on,160,0,9,,,,,,,,5,,,,66,92
166800,note_on,160,0,19,,,,,,,,12,,,,74,92
166800,note_on,160,0,12,,,,,,,,6,,,,74,92
166800,note_on,160,0,21,,,,,,,,14,,,,54,92
166800,note_on,1280,0,16,,,,,,,,8,,,,38,92
166800,note_on,160,0,7,,,,,,,,4,,,,54,92
166800,note_on,160,0,11,,,,,,,,6,,,,78,92
166800,note_on,160,0,20,,,,,,,,13,,,,74,92
166800,note_on,1280,0,17,,,,,,,,10,,,,50,92
166880,note_off,80,0,22,,,,,,,,15,,,,42,64
166880,note_off,80,0,5,,,,,,,,3,,,,74,64
166880,note_off,80,0,6,,,,,,,,3,,,,74,64
166880,note_off,80,0,13,,,,,,,,7,,,,62,64
166880,note_off,80,0,14,,,,,,,,7,,,,59,64
166880,note_off,80,0,19,,,,,,,,12,,,,74,64
166880,note_off,80,0,4,,,,,,,,2,,,,74,64
166880,note_off,80,0,12,,,,,,,,6,,,,74,64
166880,note_off,80,0,17,,,,,,,,10,,,,50,64
166880,note_off,80,0,3,,,,,,,,2,,,,78,64
166880,note_off,80,0,15,,,,,,,,7,,,,54,64
166880,note_off,80,0,8,,,,,,,,4,,,,38,64
166880,note_off,80,0,21,,,,,,,,14,,,,54,64
166880,note_off,80,0,1,,,,,,,,0,,,,78,64
166880,note_off,80,0,18,,,,,,,,11,,,,78,64
166880,note_off,80,0,20,,,,,,,,13,,,,74,64
166880,note_off,80,0,7,,,,,,,,4,,,,54,64
166880,note_off,80,0,16,,,,,,,,8,,,,38,64
166880,note_off,80,0,2,,,,,,,,0,,,,74,64
166880,note_off,80,0,10,,,,,,,,5,,,,62,64
166880,note_off,80,0,11,,,,,,,,6,,,,78,64
166880,note_off,80,0,9,,,,,,,,5,,,,66,64
167040,note_on,160,0,1,,,,,,,,0,,,,83,92
167040,note_on,160,0,6,,,,,,,,3,,,,74,92
167040,note_on,160,0,5,,,,,,,,3,,,,79,92
167040,note_on,160,0,19,,,,,,,,12,,,,79,92
167040,note_on,160,0,4,,,,,,,,2,,,,79,92
167040,note_on,160,0,9,,,,,,,,5,,,,71,92
167040,note_on,160,0,22,,,,,,,,15,,,,43,92
167040,note_on,160,0,21,,,,,,,,14,,,,55,92
167040,note_on,160,0,18,,,,,,,,11,,,,83,108
167040,note_on,160,0,16,,,,,,,,8,,,,38,92
167040,note_on,160,0,20,,,,,,,,13,,,,74,92
167040,note_on,160,0,3,,,,,,,,2,,,,83,92
167040,note_on,160,0,14,,,,,,,,7,,,,62,92
167040,note_on,160,0,15,,,,,,,,7,,,,59,92
167040,note_on,160,0,8,,,,,,,,4,,,,38,92
167040,note_on,160,0,10,,,,,,,,5,,,,67,92
167040,note_on,160,0,12,,,,,,,,6,,,,79,92
167040,note_on,160,0,11,,,,,,,,6,,,,71,92
167040,note_on,0,0,11,,,,,,,,6,,,,83,92
167040,note_on,160,0,17,,,,,,,,10,,,,50,92
167040,note_on,160,0,2,,,,,,,,0,,,,79,92
167040,note_on,160,0,7,,,,,,,,4,,,,55,92
167040,note_on,160,0,13,,,,,,,,7,,,,67,92
167120,note_off,80,0,8,,,,,,,,4,,,,38,64
167120,note_off,80,0,7,,,,,,,,4,,,,55,64
167120,note_off,80,0,22,,,,,,,,15,,,,43,64
167120,note_off,80,0,21,,,,,,,,14,,,,55,64
167120,note_off,80,0,17,,,,,,,,10,,,,50,64
167120,note_off,80,0,6,,,,,,,,3,,,,74,64
167120,note_off,80,0,16,,,,,,,,8,,,,38,64
167120,note_off,80,0,20,,,,,,,,13,,,,74,64
167280,note_on,160,0,7,,,,,,,,4,,,,52,92
167280,note_on,160,0,21,,,,,,,,14,,,,52,92
167280,note_on,160,0,6,,,,,,,,3,,,,79,92
167280,note_on,160,0,20,,,,,,,,13,,,,79,92
167280,note_on,160,0,22,,,,,,,,15,,,,40,92
167280,note_on,160,0,8,,,,,,,,4,,,,38,92
167280,note_on,160,0,16,,,,,,,,8,,,,38,92
167280,note_on,160,0,17,,,,,,,,10,,,,50,92
167360,note_off,80,0,7,,,,,,,,4,,,,52,64
167360,note_off,80,0,8,,,,,,,,4,,,,38,64
167360,note_off,80,0,21,,,,,,,,14,,,,52,64
167360,note_off,80,0,16,,,,,,,,8,,,,38,64
167360,note_off,80,0,6,,,,,,,,3,,,,79,64
167360,note_off,80,0,22,,,,,,,,15,,,,40,64
167360,note_off,80,0,20,,,,,,,,13,,,,79,64
167360,note_off,80,0,17,,,,,,,,10,,,,50,64
167440,note_off,400,0,18,,,,,,,,11,,,,83,64
167440,note_off,400,0,9,,,,,,,,5,,,,71,64
167440,note_off,400,0,1,,,,,,,,0,,,,83,64
167440,note_off,400,0,5,,,,,,,,3,,,,79,64
167440,note_off,400,0,2,,,,,,,,0,,,,79,64
167440,note_off,400,0,3,,,,,,,,2,,,,83,64
167440,note_off,400,0,14,,,,,,,,7,,,,62,64
167440,note_off,400,0,4,,,,,,,,2,,,,79,64
167440,note_off,400,0,13,,,,,,,,7,,,,67,64
167440,note_off,400,0,11,,,,,,,,6,,,,83,64
167440,note_off,0,0,11,,,,,,,,6,,,,71,64
167440,note_off,400,0,19,,,,,,,,12,,,,79,64
167440,note_off,400,0,10,,,,,,,,5,,,,67,64
167440,note_off,400,0,15,,,,,,,,7,,,,59,64
167440,note_off,400,0,12,,,,,,,,6,,,,79,64
167520,note_on,160,0,7,,,,,,,,4,,,,57,92
167520,note_on,160,0,16,,,,,,,,8,,,,33,92
167520,note_on,80,0,13,,,,,,,,7,,,,64,92
167520,note_on,0,0,11,,,,,,,,6,,,,85,92
167520,note_on,80,0,18,,,,,,,,11,,,,85,108
167520,note_on,160,0,17,,,,,,,,10,,,,45,92
167520,note_on,80,0,1,,,,,,,,0,,,,85,92
167520,note_on,80,0,4,,,,,,,,2,,,,76,92
167520,note_on,80,0,11,,,,,,,,6,,,,73,92
167520,note_on,160,0,8,,,,,,,,4,,,,45,92
167520,note_on,80,0,3,,,,,,,,2,,,,85,92
167520,note_on,160,0,22,,,,,,,,15,,,,45,92
167520,note_on,160,0,20,,,,,,,,13,,,,76,92
167520,note_on,80,0,19,,,,,,,,12,,,,76,92
167520,note_on,80,0,5,,,,,,,,3,,,,76,92
167520,note_on,80,0,12,,,,,,,,6,,,,76,92
167520,note_on,80,0,9,,,,,,,,5,,,,73,92
167520,note_on,80,0,10,,,,,,,,5,,,,64,92
167520,note_on,160,0,21,,,,,,,,14,,,,57,92
167520,note_on,160,0,6,,,,,,,,3,,,,76,92
167520,note_on,80,0,15,,,,,,,,7,,,,57,92
167520,note_on,80,0,14,,,,,,,,7,,,,61,92
167520,note_on,80,0,2,,,,,,,,0,,,,76,92
167600,note_off,80,0,22,,,,,,,,15,,,,45,64
167600,note_off,80,0,8,,,,,,,,4,,,,45,64
167600,note_off,80,0,21,,,,,,,,14,,,,57,64
167600,note_off,80,0,18,,,,,,,,11,,,,85,64
167600,note_off,80,0,16,,,,,,,,8,,,,33,64
167600,note_off,80,0,6,,,,,,,,3,,,,76,64
167600,note_off,80,0,20,,,,,,,,13,,,,76,64
167600,note_off,80,0,17,,,,,,,,10,,,,45,64
167600,note_off,80,0,7,,,,,,,,4,,,,57,64
167755,note_off,235,0,5,,,,,,,,3,,,,76,64
167755,note_off,235,0,4,,,,,,,,2,,,,76,64
167755,note_off,235,0,19,,,,,,,,12,,,,76,64
167755,note_off,235,0,2,,,,,,,,0,,,,76,64
167760,note_on,160,0,21,,,,,,,,14,,,,55,92
167760,note_on,160,0,18,,,,,,,,11,,,,86,108
167760,note_on,5,0,19,,,,,,,,12,,,,79,92
167760,note_on,5,0,2,,,,,,,,0,,,,79,92
167760,note_on,160,0,17,,,,,,,,10,,,,45,92
167760,note_on,160,0,20,,,,,,,,13,,,,78,92
167760,note_on,5,0,4,,,,,,,,2,,,,79,92
167760,note_on,160,0,8,,,,,,,,4,,,,45,92
167760,note_on,160,0,6,,,,,,,,3,,,,78,92
167760,note_on,160,0,16,,,,,,,,8,,,,33,92
167760,note_on,160,0,7,,,,,,,,4,,,,55,92
167760,note_on,5,0,5,,,,,,,,3,,,,79,92
167760,note_on,160,0,22,,,,,,,,15,,,,43,92
167840,note_off,80,0,8,,,,,,,,4,,,,45,64
167840,note_off,80,0,17,,,,,,,,10,,,,45,64
167840,note_off,80,0,7,,,,,,,,4,,,,55,64
167840,note_off,80,0,21,,,,,,,,14,,,,55,64
167840,note_off,80,0,16,,,,,,,,8,,,,33,64
167840,note_off,80,0,22,,,,,,,,15,,,,43,64
167880,note_on,0,0,6,,,,,,,,3,,,,76,92
167880,note_off,120,0,20,,,,,,,,13,,,,78,64
167880,note_on,0,0,20,,,,,,,,13,,,,76,92
167880,note_off,120,0,18,,,,,,,,11,,,,86,64
167880,note_on,0,0,18,,,,,,,,11,,,,85,108
167880,note_off,120,0,6,,,,,,,,3,,,,78,64
167920,note_off,400,0,1,,,,,,,,0,,,,85,64
167920,note_off,400,0,13,,,,,,,,7,,,,64,64
167920,note_off,0,0,11,,,,,,,,6,,,,73,64
167920,note_off,400,0,11,,,,,,,,6,,,,85,64
167920,note_off,400,0,12,,,,,,,,6,,,,76,64
167920,note_off,400,0,15,,,,,,,,7,,,,57,64
167920,note_off,400,0,14,,,,,,,,7,,,,61,64
167920,note_off,400,0,9,,,,,,,,5,,,,73,64
167920,note_off,400,0,3,,,,,,,,2,,,,85,64
167920,note_off,400,0,10,,,,,,,,5,,,,64,64
167995,note_off,235,0,19,,,,,,,,12,,,,79,64
167995,note_off,115,0,18,,,,,,,,11,,,,85,64
167995,note_off,235,0,2,,,,,,,,0,,,,79,64
167995,note_off,115,0,6,,,,,,,,3,,,,76,64
167995,note_off,115,0,20,,,,,,,,13,,,,76,64
167995,note_off,235,0,4,,,,,,,,2,,,,79,64
167995,note_off,235,0,5,,,,,,,,3,,,,79,64
168000,note_on,5,0,20,,,,,,,,13,,,,74,92
168000,note_on,80,0,13,,,,,,,,7,,,,66,92
168000,note_on,80,0,3,,,,,,,,2,,,,86,92
168000,note_on,80,0,9,,,,,,,,5,,,,74,92
168000,note_on,160,0,16,,,,,,,,8,,,,38,92
168000,note_on,160,0,17,,,,,,,,10,,,,50,92
168000,note_on,5,0,5,,,,,,,,3,,,,78,92
168000,note_on,5,0,18,,,,,,,,11,,,,86,108
168000,note_on,80,0,10,,,,,,,,5,,,,66,92
168000,note_on,5,0,2,,,,,,,,0,,,,78,92
168000,note_on,5,0,4,,,,,,,,2,,,,78,92
168000,note_on,0,0,11,,,,,,,,6,,,,86,92
168000,note_on,80,0,11,,,,,,,,6,,,,74,92
168000,note_on,80,0,15,,,,,,,,7,,,,50,92
168000,note_on,5,0,6,,,,,,,,3,,,,74,92
168000,note_on,80,0,12,,,,,,,,6,,,,78,92
168000,note_on,80,0,14,,,,,,,,7,,,,57,92
168000,note_on,160,0,22,,,,,,,,15,,,,42,92
168000,note_on,160,0,7,,,,,,,,4,,,,54,92
168000,note_on,80,0,1,,,,,,,,0,,,,86,92
168000,note_on,160,0,21,,,,,,,,14,,,,54,92
168000,note_on,160,0,8,,,,,,,,4,,,,38,92
168000,note_on,5,0,19,,,,,,,,12,,,,78,92
168080,note_off,80,0,7,,,,,,,,4,,,,54,64
168080,note_off,80,0,2,,,,,,,,0,,,,78,64
168080,note_off,80,0,19,,,,,,,,12,,,,78,64
168080,note_off,80,0,20,,,,,,,,13,,,,74,64
168080,note_off,80,0,9,,,,,,,,5,,,,74,64
168080,note_off,80,0,21,,,,,,,,14,,,,54,64
168080,note_off,80,0,17,,,,,,,,10,,,,50,64
168080,note_off,80,0,11,,,,,,,,6,,,,86,64
168080,note_off,80,0,5,,,,,,,,3,,,,78,64
168080,note_off,80,0,4,,,,,,,,2,,,,78,64
168080,note_off,0,0,11,,,,,,,,6,,,,74,64
168080,note_off,80,0,1,,,,,,,,0,,,,86,64
168080,note_off,80,0,3,,,,,,,,2,,,,86,64
168080,note_off,80,0,16,,,,,,,,8,,,,38,64
168080,note_off,80,0,22,,,,,,,,15,,,,42,64
168080,note_off,80,0,18,,,,,,,,11,,,,86,64
168080,note_off,80,0,8,,,,,,,,4,,,,38,64
168080,note_off,80,0,15,,,,,,,,7,,,,50,64
168080,note_off,80,0,6,,,,,,,,3,,,,74,64
168240,note_on,160,0,21,,,,,,,,14,,,,62,92
168240,note_on,160,0,19,,,,,,,,12,,,,69,92
168240,note_on,160,0,1,,,,,,,,0,,,,74,92
168240,note_on,160,0,3,,,,,,,,2,,,,74,92
168240,note_on,160,0,22,,,,,,,,15,,,,50,92
168240,note_on,160,0,20,,,,,,,,13,,,,62,92
168240,note_on,160,0,4,,,,,,,,2,,,,69,92
168240,note_on,160,0,8,,,,,,,,4,,,,38,92
168240,note_on,160,0,2,,,,,,,,0,,,,69,92
168240,note_on,160,0,7,,,,,,,,4,,,,62,92
168240,note_on,160,0,16,,,,,,,,8,,,,38,92
168240,note_on,160,0,9,,,,,,,,5,,,,62,92
168240,note_on,160,0,6,,,,,,,,3,,,,62,92
168240,note_on,160,0,11,,,,,,,,6,,,,74,92
168240,note_on,160,0,17,,,,,,,,10,,,,50,92
168240,note_on,160,0,5,,,,,,,,3,,,,69,92
168240,note_on,160,0,15,,,,,,,,7,,,,50,92
168240,note_on,160,0,18,,,,,,,,11,,,,74,108
168320,note_off,80,0,7,,,,,,,,4,,,,62,64
168320,note_off,80,0,22,,,,,,,,15,,,,50,64
168320,note_off,80,0,6,,,,,,,,3,,,,62,64
168320,note_off,80,0,11,,,,,,,,6,,,,74,64
168320,note_off,80,0,21,,,,,,,,14,,,,62,64
168320,note_off,80,0,1,,,,,,,,0,,,,74,64
168320,note_off,80,0,15,,,,,,,,7,,,,50,64
168320,note_off,80,0,19,,,,,,,,12,,,,69,64
168320,note_off,80,0,4,,,,,,,,2,,,,69,64
168320,note_off,80,0,2,,,,,,,,0,,,,69,64
168320,note_off,80,0,17,,,,,,,,10,,,,50,64
168320,note_off,80,0,16,,,,,,,,8,,,,38,64
168320,note_off,80,0,20,,,,,,,,13,,,,62,64
168320,note_off,80,0,18,,,,,,,,11,,,,74,64
168320,note_off,80,0,9,,,,,,,,5,,,,62,64
168320,note_off,80,0,8,,,,,,,,4,,,,38,64
168320,note_off,80,0,3,,,,,,,,2,,,,74,64
168320,note_off,80,0,5,,,,,,,,3,,,,69,64
168360,note_on,40,0,16,,,,,,,,8,,,,38,92
168360,note_on,40,0,8,,,,,,,,4,,,,38,92
168360,note_on,40,0,15,,,,,,,,7,,,,50,92
168360,note_on,40,0,17,,,,,,,,10,,,,50,92
168400,note_off,400,0,14,,,,,,,,7,,,,57,64
168400,note_off,400,0,13,,,,,,,,7,,,,66,64
168400,note_off,400,0,10,,,,,,,,5,,,,66,64
168400,note_off,400,0,12,,,,,,,,6,,,,78,64
168440,note_off,80,0,15,,,,,,,,7,,,,50,64
168440,note_off,80,0,17,,,,,,,,10,,,,50,64
168440,note_off,80,0,8,,,,,,,,4,,,,38,64
168440,note_off,80,0,16,,,,,,,,8,,,,38,64
168480,note_on,40,0,17,,,,,,,,10,,,,50,92
168480,note_on,40,0,8,,,,,,,,4,,,,38,92
168480,note_on,160,0,11,,,,,,,,6,,,,74,92
168480,note_on,160,0,9,,,,,,,,5,,,,62,92
168480,note_on,160,0,19,,,,,,,,12,,,,69,92
168480,note_on,160,0,6,,,,,,,,3,,,,62,92
168480,note_on,40,0,15,,,,,,,,7,,,,50,92
168480,note_on,160,0,18,,,,,,,,11,,,,74,108
168480,note_on,160,0,3,,,,,,,,2,,,,74,92
168480,note_on,40,0,16,,,,,,,,8,,,,38,92
168480,note_on,160,0,21,,,,,,,,14,,,,62,92
168480,note_on,160,0,5,,,,,,,,3,,,,69,92
168480,note_on,160,0,4,,,,,,,,2,,,,69,92
168480,note_on,160,0,2,,,,,,,,0,,,,69,92
168480,note_on,160,0,20,,,,,,,,13,,,,62,92
168480,note_on,160,0,1,,,,,,,,0,,,,74,92
168480,note_on,160,0,22,,,,,,,,15,,,,50,92
168480,note_on,160,0,7,,,,,,,,4,,,,62,92
168560,note_off,80,0,8,,,,,,,,4,,,,38,64
168560,note_off,80,0,17,,,,,,,,10,,,,50,64
168560,note_off,80,0,18,,,,,,,,11,,,,74,64
168560,note_off,80,0,4,,,,,,,,2,,,,69,64
168560,note_off,80,0,1,,,,,,,,0,,,,74,64
168560,note_off,80,0,5,,,,,,,,3,,,,69,64
168560,note_off,80,0,6,,,,,,,,3,,,,62,64
168560,note_off,80,0,22,,,,,,,,15,,,,50,64
168560,note_off,80,0,16,,,,,,,,8,,,,38,64
168560,note_off,80,0,20,,,,,,,,13,,,,62,64
168560,note_off,80,0,9,,,,,,,,5,,,,62,64
168560,note_off,80,0,21,,,,,,,,14,,,,62,64
168560,note_off,80,0,15,,,,,,,,7,,,,50,64
168560,note_off,80,0,2,,,,,,,,0,,,,69,64
168560,note_off,80,0,7,,,,,,,,4,,,,62,64
168560,note_off,80,0,19,,,,,,,,12,,,,69,64
168560,note_off,80,0,3,,,,,,,,2,,,,74,64
168560,note_off,80,0,11,,,,,,,,6,,,,74,64
168720,note_on,160,0,18,,,,,,,,11,,,,78,108
168720,note_on,320,0,14,,,,,,,,7,,,,57,92
168720,note_on,160,0,8,,,,,,,,4,,,,38,92
168720,note_on,160,0,6,,,,,,,,3,,,,66,92
168720,note_on,160,0,17,,,,,,,,10,,,,50,92
168720,note_on,160,0,2,,,,,,,,0,,,,74,92
168720,note_on,160,0,11,,,,,,,,6,,,,78,92
168720,note_on,160,0,4,,,,,,,,2,,,,74,92
168720,note_on,320,0,10,,,,,,,,5,,,,62,92
168720,note_on,160,0,21,,,,,,,,14,,,,50,92
168720,note_on,160,0,7,,,,,,,,4,,,,50,92
168720,note_on,160,0,5,,,,,,,,3,,,,74,92
168720,note_on,160,0,15,,,,,,,,7,,,,50,92
168720,note_on,160,0,9,,,,,,,,5,,,,66,92
168720,note_on,320,0,12,,,,,,,,6,,,,74,92
168720,note_on,160,0,16,,,,,,,,8,,,,38,92
168720,note_on,160,0,3,,,,,,,,2,,,,78,92
168720,note_on,160,0,22,,,,,,,,15,,,,38,92
168720,note_on,160,0,20,,,,,,,,13,,,,66,92
168720,note_on,320,0,13,,,,,,,,7,,,,62,92
168720,note_on,160,0,19,,,,,,,,12,,,,74,92
168720,note_on,160,0,1,,,,,,,,0,,,,78,92
168800,note_off,80,0,15,,,,,,,,7,,,,50,64
168800,note_off,80,0,6,,,,,,,,3,,,,66,64
168800,note_off,80,0,22,,,,,,,,15,,,,38,64
168800,note_off,80,0,11,,,,,,,,6,,,,78,64
168800,note_off,80,0,14,,,,,,,,7,,,,57,64
168800,note_off,80,0,2,,,,,,,,0,,,,74,64
168800,note_off,80,0,18,,,,,,,,11,,,,78,64
168800,note_off,80,0,8,,,,,,,,4,,,,38,64
168800,note_off,80,0,17,,,,,,,,10,,,,50,64
168800,note_off,80,0,10,,,,,,,,5,,,,62,64
168800,note_off,80,0,21,,,,,,,,14,,,,50,64
168800,note_off,80,0,3,,,,,,,,2,,,,78,64
168800,note_off,80,0,9,,,,,,,,5,,,,66,64
168800,note_off,80,0,16,,,,,,,,8,,,,38,64
168800,note_off,80,0,20,,,,,,,,13,,,,66,64
168800,note_off,80,0,13,,,,,,,,7,,,,62,64
168800,note_off,80,0,1,,,,,,,,0,,,,78,64
168800,note_off,80,0,12,,,,,,,,6,,,,74,64
168800,note_off,80,0,7,,,,,,,,4,,,,50,64
168800,note_off,80,0,19,,,,,,,,12,,,,74,64
168800,note_off,80,0,4,,,,,,,,2,,,,74,64
168800,note_off,80,0,5,,,,,,,,3,,,,74,64
168960,note_on,160,0,18,,,,,,,,11,,,,78,108
168960,note_on,160,0,1,,,,,,,,0,,,,78,92
168960,note_on,160,0,19,,,,,,,,12,,,,74,92
168960,note_on,160,0,15,,,,,,,,7,,,,50,92
168960,note_on,160,0,4,,,,,,,,2,,,,74,92
168960,note_on,160,0,5,,,,,,,,3,,,,74,92
168960,note_on,160,0,14,,,,,,,,7,,,,57,92
168960,note_on,160,0,2,,,,,,,,0,,,,74,92
168960,note_on,160,0,10,,,,,,,,5,,,,62,92
168960,note_on,160,0,20,,,,,,,,13,,,,66,92
168960,note_on,160,0,6,,,,,,,,3,,,,66,92
168960,note_on,160,0,9,,,,,,,,5,,,,66,92
168960,note_on,160,0,8,,,,,,,,4,,,,38,92
168960,note_on,160,0,17,,,,,,,,10,,,,50,92
168960,note_on,160,0,21,,,,,,,,14,,,,50,92
168960,note_on,160,0,16,,,,,,,,8,,,,38,92
168960,note_on,160,0,3,,,,,,,,2,,,,78,92
168960,note_on,160,0,12,,,,,,,,6,,,,74,92
168960,note_on,160,0,11,,,,,,,,6,,,,78,92
168960,note_on,160,0,22,,,,,,,,15,,,,38,92
168960,note_on,160,0,7,,,,,,,,4,,,,50,92
168960,note_on,160,0,13,,,,,,,,7,,,,62,92
169040,note_off,80,0,6,,,,,,,,3,,,,66,64
169040,note_off,80,0,20,,,,,,,,13,,,,66,64
169040,note_off,80,0,1,,,,,,,,0,,,,78,64
169040,note_off,80,0,13,,,,,,,,7,,,,62,64
169040,note_off,80,0,22,,,,,,,,15,,,,38,64
169040,note_off,80,0,11,,,,,,,,6,,,,78,64
169040,note_off,80,0,9,,,,,,,,5,,,,66,64
169040,note_off,80,0,18,,,,,,,,11,,,,78,64
169040,note_off,80,0,21,,,,,,,,14,,,,50,64
169040,note_off,80,0,2,,,,,,,,0,,,,74,64
169040,note_off,80,0,19,,,,,,,,12,,,,74,64
169040,note_off,80,0,12,,,,,,,,6,,,,74,64
169040,note_off,80,0,15,,,,,,,,7,,,,50,64
169040,note_off,80,0,3,,,,,,,,2,,,,78,64
169040,note_off,80,0,16,,,,,,,,8,,,,38,64
169040,note_off,80,0,17,,,,,,,,10,,,,50,64
169040,note_off,80,0,8,,,,,,,,4,,,,38,64
169040,note_off,80,0,10,,,,,,,,5,,,,62,64
169040,note_off,80,0,5,,,,,,,,3,,,,74,64
169040,note_off,80,0,4,,,,,,,,2,,,,74,64
169040,note_off,80,0,7,,,,,,,,4,,,,50,64
169040,note_off,80,0,14,,,,,,,,7,,,,57,64
169200,note_on,160,0,9,,,,,,,,5,,,,69,92
169200,note_on,160,0,13,,,,,,,,7,,,,66,92
169200,note_on,160,0,17,,,,,,,,10,,,,50,92
169200,note_on,160,0,19,,,,,,,,12,,,,78,92
169200,note_on,160,0,16,,,,,,,,8,,,,38,92
169200,note_on,160,0,11,,,,,,,,6,,,,81,92
169200,note_on,160,0,14,,,,,,,,7,,,,62,92
169200,note_on,160,0,3,,,,,,,,2,,,,81,92
169200,note_on,160,0,12,,,,,,,,6,,,,78,92
169200,note_on,160,0,21,,,,,,,,14,,,,62,92
169200,note_on,160,0,5,,,,,,,,3,,,,78,92
169200,note_on,160,0,20,,,,,,,,13,,,,69,92
169200,note_on,160,0,6,,,,,,,,3,,,,69,92
169200,note_on,160,0,8,,,,,,,,4,,,,38,92
169200,note_on,160,0,1,,,,,,,,0,,,,81,92
169200,note_on,160,0,18,,,,,,,,11,,,,81,108
169200,note_on,160,0,4,,,,,,,,2,,,,78,92
169200,note_on,160,0,15,,,,,,,,7,,,,50,92
169200,note_on,160,0,10,,,,,,,,5,,,,66,92
169200,note_on,160,0,22,,,,,,,,15,,,,50,92
169200,note_on,160,0,2,,,,,,,,0,,,,78,92
169200,note_on,160,0,7,,,,,,,,4,,,,62,92
169280,note_off,80,0,11,,,,,,,,6,,,,81,64
169280,note_off,80,0,8,,,,,,,,4,,,,38,64
169280,note_off,80,0,10,,,,,,,,5,,,,66,64
169280,note_off,80,0,22,,,,,,,,15,,,,50,64
169280,note_off,80,0,14,,,,,,,,7,,,,62,64
169280,note_off,80,0,15,,,,,,,,7,,,,50,64
169280,note_off,80,0,13,,,,,,,,7,,,,66,64
169280,note_off,80,0,7,,,,,,,,4,,,,62,64
169280,note_off,80,0,16,,,,,,,,8,,,,38,64
169280,note_off,80,0,19,,,,,,,,12,,,,78,64
169280,note_off,80,0,3,,,,,,,,2,,,,81,64
169280,note_off,80,0,17,,,,,,,,10,,,,50,64
169280,note_off,80,0,6,,,,,,,,3,,,,69,64
169280,note_off,80,0,5,,,,,,,,3,,,,78,64
169280,note_off,80,0,20,,,,,,,,13,,,,69,64
169280,note_off,80,0,1,,,,,,,,0,,,,81,64
169280,note_off,80,0,2,,,,,,,,0,,,,78,64
169280,note_off,80,0,4,,,,,,,,2,,,,78,64
169280,note_off,80,0,9,,,,,,,,5,,,,69,64
169280,note_off,80,0,12,,,,,,,,6,,,,78,64
169280,note_off,80,0,18,,,,,,,,11,,,,81,64
169280,note_off,80,0,21,,,,,,,,14,,,,62,64
169440,note_on,160,0,20,,,,,,,,13,,,,69,92
169440,note_on,160,0,18,,,,,,,,11,,,,81,108
169440,note_on,160,0,15,,,,,,,,7,,,,50,92
169440,note_on,160,0,9,,,,,,,,5,,,,69,92
169440,note_on,160,0,8,,,,,,,,4,,,,38,92
169440,note_on,160,0,1,,,,,,,,0,,,,81,92
169440,note_on,160,0,7,,,,,,,,4,,,,62,92
169440,note_on,160,0,14,,,,,,,,7,,,,62,92
169440,note_on,160,0,17,,,,,,,,10,,,,50,92
169440,note_on,160,0,6,,,,,,,,3,,,,69,92
169440,note_on,160,0,10,,,,,,,,5,,,,66,92
169440,note_on,160,0,22,,,,,,,,15,,,,50,92
169440,note_on,160,0,2,,,,,,,,0,,,,78,92
169440,note_on,160,0,21,,,,,,,,14,,,,62,92
169440,note_on,160,0,4,,,,,,,,2,,,,78,92
169440,note_on,160,0,3,,,,,,,,2,,,,81,92
169440,note_on,160,0,12,,,,,,,,6,,,,78,92
169440,note_on,160,0,11,,,,,,,,6,,,,81,92
169440,note_on,160,0,19,,,,,,,,12,,,,78,92
169440,note_on,160,0,5,,,,,,,,3,,,,78,92
169440,note_on,160,0,13,,,,,,,,7,,,,66,92
169440,note_on,160,0,16,,,,,,,,8,,,,38,92
169520,note_off,80,0,13,,,,,,,,7,,,,66,64
169520,note_off,80,0,2,,,,,,,,0,,,,78,64
169520,note_off,80,0,19,,,,,,,,12,,,,78,64
169520,note_off,80,0,6,,,,,,,,3,,,,69,64
169520,note_off,80,0,22,,,,,,,,15,,,,50,64
169520,note_off,80,0,18,,,,,,,,11,,,,81,64
169520,note_off,80,0,20,,,,,,,,13,,,,69,64
169520,note_off,80,0,7,,,,,,,,4,,,,62,64
169520,note_off,80,0,12,,,,,,,,6,,,,78,64
169520,note_off,80,0,5,,,,,,,,3,,,,78,64
169520,note_off,80,0,21,,,,,,,,14,,,,62,64
169520,note_off,80,0,14,,,,,,,,7,,,,62,64
169520,note_off,80,0,4,,,,,,,,2,,,,78,64
169520,note_off,80,0,10,,,,,,,,5,,,,66,64
169680,note_on,160,0,14,,,,,,,,7,,,,57,92
169680,note_on,160,0,18,,,,,,,,11,,,,78,108
169680,note_on,160,0,2,,,,,,,,0,,,,74,92
169680,note_on,160,0,22,,,,,,,,15,,,,38,92
169680,note_on,160,0,4,,,,,,,,2,,,,74,92
169680,note_on,160,0,13,,,,,,,,7,,,,62,92
169680,note_on,160,0,6,,,,,,,,3,,,,66,92
169680,note_on,160,0,10,,,,,,,,5,,,,62,92
169680,note_on,160,0,12,,,,,,,,6,,,,74,92
169680,note_on,160,0,7,,,,,,,,4,,,,50,92
169680,note_on,160,0,19,,,,,,,,12,,,,74,92
169680,note_on,160,0,21,,,,,,,,14,,,,50,92
169680,note_on,160,0,5,,,,,,,,3,,,,74,92
169680,note_on,160,0,20,,,,,,,,13,,,,66,92
169760,note_off,80,0,10,,,,,,,,5,,,,62,64
169760,note_off,80,0,2,,,,,,,,0,,,,74,64
169760,note_off,80,0,21,,,,,,,,14,,,,50,64
169760,note_off,80,0,14,,,,,,,,7,,,,57,64
169760,note_off,80,0,22,,,,,,,,15,,,,38,64
169760,note_off,80,0,18,,,,,,,,11,,,,78,64
169760,note_off,80,0,5,,,,,,,,3,,,,74,64
169760,note_off,80,0,6,,,,,,,,3,,,,66,64
169760,note_off,80,0,12,,,,,,,,6,,,,74,64
169760,note_off,80,0,20,,,,,,,,13,,,,66,64
169760,note_off,80,0,4,,,,,,,,2,,,,74,64
169760,note_off,80,0,13,,,,,,,,7,,,,62,64
169760,note_off,80,0,19,,,,,,,,12,,,,74,64
169760,note_off,80,0,7,,,,,,,,4,,,,50,64
169840,note_off,400,0,8,,,,,,,,4,,,,38,64
169840,note_off,400,0,15,,,,,,,,7,,,,50,64
169840,note_off,400,0,16,,,,,,,,8,,,,38,64
169840,note_off,400,0,17,,,,,,,,10,,,,50,64
169920,note_on,80,0,17,,,,,,,,10,,,,50,92
169920,note_on,160,0,19,,,,,,,,12,,,,69,92
169920,note_on,160,0,4,,,,,,,,2,,,,69,92
169920,note_on,160,0,14,,,,,,,,7,,,,54,92
169920,note_on,160,0,18,,,,,,,,11,,,,78,108
169920,note_on,160,0,2,,,,,,,,0,,,,69,92
169920,note_on,160,0,13,,,,,,,,7,,,,57,92
169920,note_on,80,0,8,,,,,,,,4,,,,38,92
169920,note_on,160,0,5,,,,,,,,3,,,,69,92
169920,note_on,160,0,12,,,,,,,,6,,,,69,92
169920,note_on,160,0,10,,,,,,,,5,,,,57,92
169920,note_on,160,0,6,,,,,,,,3,,,,66,92
169920,note_on,160,0,20,,,,,,,,13,,,,66,92
170000,note_off,80,0,6,,,,,,,,3,,,,66,64
170000,note_off,80,0,14,,,,,,,,7,,,,54,64
170000,note_off,80,0,13,,,,,,,,7,,,,57,64
170000,note_off,80,0,12,,,,,,,,6,,,,69,64
170000,note_off,80,0,4,,,,,,,,2,,,,69,64
170000,note_off,80,0,5,,,,,,,,3,,,,69,64
170000,note_off,80,0,20,,,,,,,,13,,,,66,64
170000,note_off,80,0,10,,,,,,,,5,,,,57,64
170000,note_off,80,0,19,,,,,,,,12,,,,69,64
170000,note_off,80,0,2,,,,,,,,0,,,,69,64
170000,note_off,80,0,18,,,,,,,,11,,,,78,64
170160,note_on,160,0,2,,,,,,,,0,,,,78,92
170160,note_on,400,0,21,,,,,,,,14,,,,62,92
170160,note_on,160,0,12,,,,,,,,6,,,,78,92
170160,note_on,160,0,13,,,,,,,,7,,,,66,92
170160,note_on,400,0,7,,,,,,,,4,,,,62,92
170160,note_on,160,0,18,,,,,,,,11,,,,81,108
170160,note_on,160,0,14,,,,,,,,7,,,,62,92
170160,note_on,160,0,19,,,,,,,,12,,,,78,92
170160,note_on,400,0,22,,,,,,,,15,,,,50,92
170160,note_on,160,0,5,,,,,,,,3,,,,78,92
170160,note_on,160,0,20,,,,,,,,13,,,,69,92
170160,note_on,160,0,10,,,,,,,,5,,,,66,92
170160,note_on,160,0,4,,,,,,,,2,,,,78,92
170160,note_on,160,0,6,,,,,,,,3,,,,69,92
170240,note_off,80,0,21,,,,,,,,14,,,,62,64
170240,note_off,80,0,12,,,,,,,,6,,,,78,64
170240,note_off,80,0,22,,,,,,,,15,,,,50,64
170240,note_off,80,0,2,,,,,,,,0,,,,78,64
170240,note_off,80,0,10,,,,,,,,5,,,,66,64
170240,note_off,80,0,4,,,,,,,,2,,,,78,64
170240,note_off,80,0,14,,,,,,,,7,,,,62,64
170240,note_off,80,0,18,,,,,,,,11,,,,81,64
170240,note_off,80,0,7,,,,,,,,4,,,,62,64
170240,note_off,80,0,19,,,,,,,,12,,,,78,64
170240,note_off,80,0,5,,,,,,,,3,,,,78,64
170240,note_off,80,0,13,,,,,,,,7,,,,66,64
170240,note_off,80,0,6,,,,,,,,3,,,,69,64
170240,note_off,80,0,20,,,,,,,,13,,,,69,64
170320,note_off,400,0,8,,,,,,,,4,,,,38,64
170320,note_off,400,0,17,,,,,,,,10,,,,50,64
170400,note_on,160,0,21,,,,,,,,14,,,,61,92
170400,note_on,160,0,5,,,,,,,,3,,,,76,92
170400,note_on,160,0,7,,,,,,,,4,,,,61,92
170400,note_on,160,0,18,,,,,,,,11,,,,81,108
170400,note_on,160,0,4,,,,,,,,2,,,,76,92
170400,note_on,160,0,12,,,,,,,,6,,,,76,92
170400,note_on,160,0,10,,,,,,,,5,,,,64,92
170400,note_on,160,0,20,,,,,,,,13,,,,69,92
170400,note_on,160,0,14,,,,,,,,7,,,,57,92
170400,note_on,160,0,2,,,,,,,,0,,,,76,92
170400,note_on,160,0,19,,,,,,,,12,,,,76,92
170400,note_on,160,0,13,,,,,,,,7,,,,64,92
170400,note_on,160,0,6,,,,,,,,3,,,,69,92
170400,note_on,160,0,22,,,,,,,,15,,,,49,92
170480,note_off,80,0,12,,,,,,,,6,,,,76,64
170480,note_off,80,0,6,,,,,,,,3,,,,69,64
170480,note_off,80,0,21,,,,,,,,14,,,,61,64
170480,note_off,80,0,13,,,,,,,,7,,,,64,64
170480,note_off,80,0,18,,,,,,,,11,,,,81,64
170480,note_off,80,0,10,,,,,,,,5,,,,64,64
170480,note_off,80,0,7,,,,,,,,4,,,,61,64
170480,note_off,80,0,5,,,,,,,,3,,,,76,64
170480,note_off,80,0,4,,,,,,,,2,,,,76,64
170480,note_off,80,0,22,,,,,,,,15,,,,49,64
170480,note_off,80,0,19,,,,,,,,12,,,,76,64
170480,note_off,80,0,2,,,,,,,,0,,,,76,64
170480,note_off,80,0,14,,,,,,,,7,,,,57,64
170480,note_off,80,0,20,,,,,,,,13,,,,69,64
170640,note_on,160,0,10,,,,,,,,5,,,,66,92
170640,note_on,160,0,14,,,,,,,,7,,,,57,92
170640,note_on,160,0,5,,,,,,,,3,,,,78,92
170640,note_on,160,0,19,,,,,,,,12,,,,78,92
170640,note_on,160,0,4,,,,,,,,2,,,,78,92
170640,note_on,160,0,22,,,,,,,,15,,,,50,92
170640,note_on,160,0,12,,,,,,,,6,,,,78,92
170640,note_on,160,0,13,,,,,,,,7,,,,66,92
170640,note_on,160,0,20,,,,,,,,13,,,,71,92
170640,note_on,160,0,7,,,,,,,,4,,,,62,92
170640,note_on,160,0,6,,,,,,,,3,,,,71,92
170640,note_on,160,0,2,,,,,,,,0,,,,78,92
170640,note_on,160,0,21,,,,,,,,14,,,,62,92
170640,note_on,160,0,18,,,,,,,,11,,,,83,108
170720,note_off,80,0,6,,,,,,,,3,,,,71,64
170720,note_off,80,0,18,,,,,,,,11,,,,83,64
170720,note_off,80,0,20,,,,,,,,13,,,,71,64
170720,note_off,80,0,12,,,,,,,,6,,,,78,64
170720,note_off,80,0,14,,,,,,,,7,,,,57,64
170720,note_off,80,0,13,,,,,,,,7,,,,66,64
170720,note_off,80,0,10,,,,,,,,5,,,,66,64
170760,note_off,120,0,21,,,,,,,,14,,,,62,64
170760,note_on,40,0,10,,,,,,,,5,,,,64,92
170760,note_off,120,0,5,,,,,,,,3,,,,78,64
170760,note_on,40,0,12,,,,,,,,6,,,,76,92
170760,note_on,0,0,19,,,,,,,,12,,,,76,92
170760,note_off,1320,0,11,,,,,,,,6,,,,81,64
170760,note_on,40,0,6,,,,,,,,3,,,,73,92
170760,note_off,120,0,2,,,,,,,,0,,,,78,64
170760,note_on,0,0,21,,,,,,,,14,,,,61,92
170760,note_off,1320,0,1,,,,,,,,0,,,,81,64
170760,note_on,0,0,5,,,,,,,,3,,,,76,92
170760,note_off,1320,0,9,,,,,,,,5,,,,69,64
170760,note_off,120,0,19,,,,,,,,12,,,,78,64
170760,note_off,120,0,4,,,,,,,,2,,,,78,64
170760,note_on,0,0,4,,,,,,,,2,,,,76,92
170760,note_on,40,0,13,,,,,,,,7,,,,64,92
170760,note_off,120,0,22,,,,,,,,15,,,,50,64
170760,note_on,0,0,2,,,,,,,,0,,,,76,92
170760,note_off,1320,0,3,,,,,,,,2,,,,81,64
170760,note_on,40,0,18,,,,,,,,11,,,,85,108
170760,note_on,0,0,7,,,,,,,,4,,,,61,92
170760,note_off,120,0,7,,,,,,,,4,,,,62,64
170760,note_on,0,0,22,,,,,,,,15,,,,49,92
170760,note_on,40,0,20,,,,,,,,13,,,,73,92
170840,note_off,80,0,10,,,,,,,,5,,,,64,64
170840,note_off,80,0,7,,,,,,,,4,,,,61,64
170840,note_off,80,0,5,,,,,,,,3,,,,76,64
170840,note_off,80,0,22,,,,,,,,15,,,,49,64
170840,note_off,80,0,21,,,,,,,,14,,,,61,64
170840,note_off,80,0,19,,,,,,,,12,,,,76,64
170840,note_off,80,0,6,,,,,,,,3,,,,73,64
170840,note_off,80,0,18,,,,,,,,11,,,,85,64
170840,note_off,80,0,4,,,,,,,,2,,,,76,64
170840,note_off,80,0,13,,,,,,,,7,,,,64,64
170840,note_off,80,0,20,,,,,,,,13,,,,73,64
170840,note_off,80,0,12,,,,,,,,6,,,,76,64
170840,note_off,80,0,2,,,,,,,,0,,,,76,64
170880,note_on,40,0,21,,,,,,,,14,,,,59,92
170880,note_on,40,0,6,,,,,,,,3,,,,74,92
170880,note_on,40,0,18,,,,,,,,11,,,,86,108
170880,note_on,40,0,13,,,,,,,,7,,,,66,92
170880,note_on,40,0,20,,,,,,,,13,,,,74,92
170880,note_on,40,0,12,,,,,,,,6,,,,78,92
170880,note_on,40,0,7,,,,,,,,4,,,,59,92
170880,note_on,120,0,11,,,,,,,,6,,,,74,92
170880,note_on,40,0,19,,,,,,,,12,,,,74,92
170880,note_on,1040,0,15,,,,,,,,7,,,,50,92
170880,note_on,1040,0,16,,,,,,,,8,,,,38,92
170880,note_on,40,0,5,,,,,,,,3,,,,74,92
170880,note_on,160,0,14,,,,,,,,7,,,,54,92
170880,note_on,560,0,8,,,,,,,,4,,,,38,92
170880,note_on,560,0,17,,,,,,,,10,,,,50,92
170880,note_on,40,0,2,,,,,,,,0,,,,74,92
170880,note_on,40,0,4,,,,,,,,2,,,,74,92
170880,note_on,40,0,10,,,,,,,,5,,,,66,92
170880,note_on,40,0,22,,,,,,,,15,,,,47,92
170880,note_on,120,0,1,,,,,,,,0,,,,74,92
170880,note_on,120,0,3,,,,,,,,2,,,,74,92
170880,note_on,120,0,9,,,,,,,,5,,,,62,92
170960,note_off,80,0,7,,,,,,,,4,,,,59,64
170960,note_off,80,0,4,,,,,,,,2,,,,74,64
170960,note_off,80,0,6,,,,,,,,3,,,,74,64
170960,note_off,80,0,18,,,,,,,,11,,,,86,64
170960,note_off,80,0,22,,,,,,,,15,,,,47,64
170960,note_off,80,0,14,,,,,,,,7,,,,54,64
170960,note_off,80,0,20,,,,,,,,13,,,,74,64
170960,note_off,80,0,21,,,,,,,,14,,,,59,64
170960,note_off,80,0,19,,,,,,,,12,,,,74,64
170960,note_off,80,0,5,,,,,,,,3,,,,74,64
170960,note_off,80,0,2,,,,,,,,0,,,,74,64
171120,note_on,160,0,6,,,,,,,,3,,,,62,92
171120,note_on,160,0,7,,,,,,,,4,,,,47,92
171120,note_on,160,0,4,,,,,,,,2,,,,71,92
171120,note_on,160,0,2,,,,,,,,0,,,,71,92
171120,note_on,160,0,20,,,,,,,,13,,,,62,92
171120,note_on,160,0,14,,,,,,,,7,,,,50,92
171120,note_on,160,0,5,,,,,,,,3,,,,71,92
171120,note_on,160,0,18,,,,,,,,11,,,,74,108
171120,note_on,160,0,19,,,,,,,,12,,,,71,92
171120,note_on,160,0,21,,,,,,,,14,,,,47,92
171120,note_on,160,0,22,,,,,,,,15,,,,35,92
171200,note_off,80,0,5,,,,,,,,3,,,,71,64
171200,note_off,80,0,20,,,,,,,,13,,,,62,64
171200,note_off,80,0,14,,,,,,,,7,,,,50,64
171200,note_off,80,0,22,,,,,,,,15,,,,35,64
171200,note_off,80,0,4,,,,,,,,2,,,,71,64
171200,note_off,80,0,21,,,,,,,,14,,,,47,64
171200,note_off,80,0,7,,,,,,,,4,,,,47,64
171200,note_off,80,0,6,,,,,,,,3,,,,62,64
171200,note_off,80,0,2,,,,,,,,0,,,,71,64
171200,note_off,80,0,18,,,,,,,,11,,,,74,64
171200,note_off,80,0,19,,,,,,,,12,,,,71,64
171280,note_off,400,0,12,,,,,,,,6,,,,78,64
171280,note_off,400,0,16,,,,,,,,8,,,,38,64
171280,note_off,400,0,11,,,,,,,,6,,,,74,64
171280,note_off,400,0,17,,,,,,,,10,,,,50,64
171280,note_off,400,0,3,,,,,,,,2,,,,74,64
171280,note_off,400,0,13,,,,,,,,7,,,,66,64
171280,note_off,400,0,15,,,,,,,,7,,,,50,64
171280,note_off,400,0,8,,,,,,,,4,,,,38,64
171280,note_off,400,0,1,,,,,,,,0,,,,74,64
171280,note_off,400,0,9,,,,,,,,5,,,,62,64
171280,note_off,400,0,10,,,,,,,,5,,,,66,64
171360,note_on,160,0,2,,,,,,,,0,,,,78,92
171360,note_on,80,0,11,,,,,,,,6,,,,74,92
171360,note_on,80,0,1,,,,,,,,0,,,,74,92
171360,note_on,80,0,3,,,,,,,,2,,,,74,92
171360,note_on,160,0,19,,,,,,,,12,,,,78,92
171360,note_on,160,0,14,,,,,,,,7,,,,54,92
171360,note_on,80,0,9,,,,,,,,5,,,,74,92
171360,note_on,160,0,5,,,,,,,,3,,,,78,92
171360,note_on,160,0,4,,,,,,,,2,,,,78,92
171600,note_on,320,0,16,,,,,,,,8,,,,38,92
171600,note_on,400,0,22,,,,,,,,15,,,,47,92
171600,note_on,320,0,12,,,,,,,,6,,,,66,92
171600,note_on,400,0,6,,,,,,,,3,,,,74,92
171600,note_on,320,0,15,,,,,,,,7,,,,50,92
171600,note_on,400,0,18,,,,,,,,11,,,,86,108
171600,note_on,320,0,10,,,,,,,,5,,,,66,92
171600,note_on,320,0,17,,,,,,,,10,,,,50,92
171600,note_on,400,0,7,,,,,,,,4,,,,59,92
171600,note_on,400,0,21,,,,,,,,14,,,,59,92
171600,note_on,400,0,20,,,,,,,,13,,,,74,92
171600,note_on,320,0,13,,,,,,,,7,,,,54,92
171600,note_on,320,0,8,,,,,,,,4,,,,38,92
171680,note_off,80,0,10,,,,,,,,5,,,,66,64
171680,note_off,80,0,8,,,,,,,,4,,,,38,64
171680,note_off,80,0,22,,,,,,,,15,,,,47,64
171680,note_off,80,0,7,,,,,,,,4,,,,59,64
171680,note_off,80,0,21,,,,,,,,14,,,,59,64
171680,note_off,80,0,18,,,,,,,,11,,,,86,64
171680,note_off,80,0,17,,,,,,,,10,,,,50,64
171680,note_off,80,0,6,,,,,,,,3,,,,74,64
171680,note_off,80,0,13,,,,,,,,7,,,,54,64
171680,note_off,80,0,16,,,,,,,,8,,,,38,64
171680,note_off,80,0,12,,,,,,,,6,,,,66,64
171680,note_off,80,0,20,,,,,,,,13,,,,74,64
171680,note_off,80,0,15,,,,,,,,7,,,,50,64
171760,note_off,400,0,9,,,,,,,,5,,,,74,64
171760,note_off,400,0,1,,,,,,,,0,,,,74,64
171760,note_off,400,0,11,,,,,,,,6,,,,74,64
171760,note_off,400,0,14,,,,,,,,7,,,,54,64
171760,note_off,400,0,3,,,,,,,,2,,,,74,64
171840,note_on,160,0,15,,,,,,,,7,,,,50,92
171840,note_on,80,0,9,,,,,,,,5,,,,73,92
171840,note_on,80,0,14,,,,,,,,7,,,,57,92
171840,note_on,160,0,8,,,,,,,,4,,,,38,92
171840,note_on,160,0,10,,,,,,,,5,,,,66,92
171840,note_on,80,0,11,,,,,,,,6,,,,73,92
171840,note_on,160,0,16,,,,,,,,8,,,,38,92
171840,note_on,160,0,22,,,,,,,,15,,,,45,92
171840,note_on,160,0,6,,,,,,,,3,,,,73,92
171840,note_on,160,0,12,,,,,,,,6,,,,66,92
171840,note_on,160,0,17,,,,,,,,10,,,,50,92
171840,note_on,160,0,21,,,,,,,,14,,,,57,92
171840,note_on,160,0,7,,,,,,,,4,,,,57,92
171840,note_on,160,0,20,,,,,,,,13,,,,73,92
171840,note_on,160,0,18,,,,,,,,11,,,,85,108
171840,note_on,80,0,1,,,,,,,,0,,,,73,92
171840,note_on,80,0,3,,,,,,,,2,,,,73,92
171840,note_on,160,0,13,,,,,,,,7,,,,54,92
171920,note_off,80,0,13,,,,,,,,7,,,,54,64
171920,note_off,80,0,12,,,,,,,,6,,,,66,64
171920,note_off,80,0,6,,,,,,,,3,,,,73,64
171920,note_off,80,0,15,,,,,,,,7,,,,50,64
171920,note_off,80,0,20,,,,,,,,13,,,,73,64
171920,note_off,80,0,18,,,,,,,,11,,,,85,64
171920,note_off,80,0,22,,,,,,,,15,,,,45,64
171920,note_off,80,0,7,,,,,,,,4,,,,57,64
171920,note_off,80,0,8,,,,,,,,4,,,,38,64
171920,note_off,80,0,17,,,,,,,,10,,,,50,64
171920,note_off,80,0,10,,,,,,,,5,,,,66,64
171920,note_off,80,0,21,,,,,,,,14,,,,57,64
171920,note_off,80,0,16,,,,,,,,8,,,,38,64
172000,note_off,640,0,19,,,,,,,,12,,,,78,64
172000,note_off,640,0,5,,,,,,,,3,,,,78,64
172000,note_off,640,0,2,,,,,,,,0,,,,78,64
172000,note_off,640,0,4,,,,,,,,2,,,,78,64
172080,note_on,160,0,13,,,,,,,,7,,,,54,92
172080,note_on,80,0,4,,,,,,,,2,,,,78,92
172080,note_on,160,0,10,,,,,,,,5,,,,67,92
172080,note_on,160,0,16,,,,,,,,8,,,,38,92
172080,note_on,80,0,19,,,,,,,,12,,,,78,92
172080,note_on,160,0,7,,,,,,,,4,,,,59,92
172080,note_on,80,0,2,,,,,,,,0,,,,78,92
172080,note_on,160,0,8,,,,,,,,4,,,,38,92
172080,note_on,160,0,6,,,,,,,,3,,,,74,92
172080,note_on,160,0,22,,,,,,,,15,,,,47,92
172080,note_on,160,0,15,,,,,,,,7,,,,50,92
172080,note_on,160,0,18,,,,,,,,11,,,,86,108
172080,note_on,160,0,21,,,,,,,,14,,,,59,92
172080,note_on,160,0,17,,,,,,,,10,,,,50,92
172080,note_on,160,0,12,,,,,,,,6,,,,67,92
172080,note_on,160,0,20,,,,,,,,13,,,,74,92
172080,note_on,80,0,5,,,,,,,,3,,,,78,92
172160,note_off,80,0,13,,,,,,,,7,,,,54,64
172160,note_off,80,0,20,,,,,,,,13,,,,74,64
172160,note_off,80,0,18,,,,,,,,11,,,,86,64
172160,note_off,80,0,8,,,,,,,,4,,,,38,64
172160,note_off,80,0,6,,,,,,,,3,,,,74,64
172160,note_off,80,0,15,,,,,,,,7,,,,50,64
172160,note_off,80,0,10,,,,,,,,5,,,,67,64
172160,note_off,80,0,16,,,,,,,,8,,,,38,64
172160,note_off,80,0,17,,,,,,,,10,,,,50,64
172200,note_on,40,0,20,,,,,,,,13,,,,73,92
172200,note_on,0,0,21,,,,,,,,14,,,,57,92
172200,note_on,0,0,12,,,,,,,,6,,,,66,92
172200,note_off,120,0,12,,,,,,,,6,,,,67,64
172200,note_off,120,0,21,,,,,,,,14,,,,59,64
172200,note_on,40,0,17,,,,,,,,10,,,,50,92
172200,note_on,0,0,7,,,,,,,,4,,,,57,92
172200,note_on,40,0,18,,,,,,,,11,,,,85,108
172200,note_off,120,0,7,,,,,,,,4,,,,59,64
172200,note_on,40,0,16,,,,,,,,8,,,,38,92
172200,note_on,40,0,8,,,,,,,,4,,,,38,92
172200,note_on,40,0,15,,,,,,,,7,,,,50,92
172200,note_on,40,0,10,,,,,,,,5,,,,66,92
172200,note_off,120,0,22,,,,,,,,15,,,,47,64
172200,note_on,40,0,6,,,,,,,,3,,,,73,92
172200,note_on,0,0,22,,,,,,,,15,,,,45,92
172240,note_off,400,0,11,,,,,,,,6,,,,73,64
172240,note_off,400,0,9,,,,,,,,5,,,,73,64
172240,note_off,400,0,14,,,,,,,,7,,,,57,64
172240,note_off,400,0,1,,,,,,,,0,,,,73,64
172240,note_off,400,0,3,,,,,,,,2,,,,73,64
172280,note_off,80,0,21,,,,,,,,14,,,,57,64
172280,note_off,80,0,7,,,,,,,,4,,,,57,64
172280,note_off,80,0,10,,,,,,,,5,,,,66,64
172280,note_off,80,0,17,,,,,,,,10,,,,50,64
172280,note_off,80,0,18,,,,,,,,11,,,,85,64
172280,note_off,80,0,8,,,,,,,,4,,,,38,64
172280,note_off,80,0,6,,,,,,,,3,,,,73,64
172280,note_off,80,0,16,,,,,,,,8,,,,38,64
172280,note_off,80,0,12,,,,,,,,6,,,,66,64
172280,note_off,80,0,20,,,,,,,,13,,,,73,64
172280,note_off,80,0,15,,,,,,,,7,,,,50,64
172280,note_off,80,0,22,,,,,,,,15,,,,45,64
172315,note_off,235,0,4,,,,,,,,2,,,,78,64
172315,note_off,235,0,19,,,,,,,,12,,,,78,64
172315,note_off,235,0,5,,,,,,,,3,,,,78,64
172315,note_off,235,0,2,,,,,,,,0,,,,78,64
172320,note_on,80,0,14,,,,,,,,7,,,,62,92
172320,note_on,40,0,20,,,,,,,,13,,,,71,92
172320,note_on,5,0,2,,,,,,,,0,,,,79,92
172320,note_on,40,0,22,,,,,,,,15,,,,43,92
172320,note_on,80,0,1,,,,,,,,0,,,,71,92
172320,note_on,40,0,17,,,,,,,,10,,,,50,92
172320,note_on,40,0,7,,,,,,,,4,,,,55,92
172320,note_on,5,0,5,,,,,,,,3,,,,79,92
172320,note_on,80,0,9,,,,,,,,5,,,,71,92
172320,note_on,40,0,16,,,,,,,,8,,,,38,92
172320,note_on,5,0,19,,,,,,,,12,,,,79,92
172320,note_on,40,0,6,,,,,,,,3,,,,71,92
172320,note_on,40,0,15,,,,,,,,7,,,,50,92
172320,note_on,40,0,10,,,,,,,,5,,,,67,92
172320,note_on,5,0,4,,,,,,,,2,,,,79,92
172320,note_on,40,0,18,,,,,,,,11,,,,83,108
172320,note_on,80,0,3,,,,,,,,2,,,,71,92
172320,note_on,40,0,12,,,,,,,,6,,,,67,92
172320,note_on,160,0,13,,,,,,,,7,,,,55,92
172320,note_on,40,0,8,,,,,,,,4,,,,38,92
172320,note_on,80,0,11,,,,,,,,6,,,,71,92
172320,note_on,40,0,21,,,,,,,,14,,,,55,92
172400,note_off,80,0,18,,,,,,,,11,,,,83,64
172400,note_off,80,0,8,,,,,,,,4,,,,38,64
172400,note_off,80,0,16,,,,,,,,8,,,,38,64
172400,note_off,80,0,7,,,,,,,,4,,,,55,64
172400,note_off,80,0,20,,,,,,,,13,,,,71,64
172400,note_off,80,0,15,,,,,,,,7,,,,50,64
172400,note_off,80,0,17,,,,,,,,10,,,,50,64
172400,note_off,80,0,21,,,,,,,,14,,,,55,64
172400,note_off,80,0,22,,,,,,,,15,,,,43,64
172400,note_off,80,0,6,,,,,,,,3,,,,71,64
172560,note_on,160,0,7,,,,,,,,4,,,,43,92
172560,note_on,160,0,18,,,,,,,,11,,,,71,108
172560,note_on,160,0,17,,,,,,,,10,,,,50,92
172560,note_on,160,0,8,,,,,,,,4,,,,38,92
172560,note_on,160,0,6,,,,,,,,3,,,,59,92
172560,note_on,160,0,20,,,,,,,,13,,,,59,92
172560,note_on,160,0,15,,,,,,,,7,,,,50,92
172560,note_on,160,0,16,,,,,,,,8,,,,38,92
172560,note_on,160,0,21,,,,,,,,14,,,,43,92
172560,note_on,160,0,22,,,,,,,,15,,,,31,92
172640,note_off,80,0,6,,,,,,,,3,,,,59,64
172640,note_off,80,0,21,,,,,,,,14,,,,43,64
172640,note_off,80,0,22,,,,,,,,15,,,,31,64
172640,note_off,80,0,8,,,,,,,,4,,,,38,64
172640,note_off,80,0,16,,,,,,,,8,,,,38,64
172640,note_off,80,0,20,,,,,,,,13,,,,59,64
172640,note_off,80,0,15,,,,,,,,7,,,,50,64
172640,note_off,80,0,17,,,,,,,,10,,,,50,64
172640,note_off,80,0,7,,,,,,,,4,,,,43,64
172640,note_off,80,0,18,,,,,,,,11,,,,71,64
172720,note_off,400,0,1,,,,,,,,0,,,,71,64
172720,note_off,400,0,5,,,,,,,,3,,,,79,64
172720,note_off,400,0,9,,,,,,,,5,,,,71,64
172720,note_off,400,0,4,,,,,,,,2,,,,79,64
172720,note_off,400,0,14,,,,,,,,7,,,,62,64
172720,note_off,400,0,11,,,,,,,,6,,,,71,64
172720,note_off,400,0,12,,,,,,,,6,,,,67,64
172720,note_off,400,0,13,,,,,,,,7,,,,55,64
172720,note_off,400,0,3,,,,,,,,2,,,,71,64
172720,note_off,400,0,19,,,,,,,,12,,,,79,64
172720,note_off,400,0,10,,,,,,,,5,,,,67,64
172720,note_off,400,0,2,,,,,,,,0,,,,79,64
172800,note_on,80,0,10,,,,,,,,5,,,,66,92
172800,note_on,160,0,21,,,,,,,,14,,,,54,92
172800,note_on,160,0,18,,,,,,,,11,,,,81,108
172800,note_on,80,0,4,,,,,,,,2,,,,74,92
172800,note_on,80,0,11,,,,,,,,6,,,,81,92
172800,note_on,160,0,15,,,,,,,,7,,,,50,92
172800,note_on,160,0,6,,,,,,,,3,,,,69,92
172800,note_on,80,0,3,,,,,,,,2,,,,81,92
172800,note_on,80,0,19,,,,,,,,12,,,,74,92
172800,note_on,80,0,14,,,,,,,,7,,,,62,92
172800,note_on,80,0,12,,,,,,,,6,,,,78,92
172800,note_on,80,0,13,,,,,,,,7,,,,66,92
172800,note_on,160,0,8,,,,,,,,4,,,,38,92
172800,note_on,80,0,2,,,,,,,,0,,,,74,92
172800,note_on,80,0,9,,,,,,,,5,,,,69,92
172800,note_on,160,0,20,,,,,,,,13,,,,69,92
172800,note_on,160,0,16,,,,,,,,8,,,,38,92
172800,note_on,80,0,1,,,,,,,,0,,,,81,92
172800,note_on,160,0,7,,,,,,,,4,,,,54,92
172800,note_on,80,0,5,,,,,,,,3,,,,74,92
172800,note_on,160,0,22,,,,,,,,15,,,,42,92
172800,note_on,160,0,17,,,,,,,,10,,,,50,92
172880,note_off,80,0,22,,,,,,,,15,,,,42,64
172880,note_off,80,0,20,,,,,,,,13,,,,69,64
172880,note_off,80,0,21,,,,,,,,14,,,,54,64
172880,note_off,80,0,6,,,,,,,,3,,,,69,64
172880,note_off,80,0,7,,,,,,,,4,,,,54,64
172880,note_off,80,0,8,,,,,,,,4,,,,38,64
172880,note_off,80,0,15,,,,,,,,7,,,,50,64
172880,note_off,80,0,16,,,,,,,,8,,,,38,64
172880,note_off,80,0,18,,,,,,,,11,,,,81,64
172880,note_off,80,0,17,,,,,,,,10,,,,50,64
173040,note_on,160,0,8,,,,,,,,4,,,,38,92
173040,note_on,160,0,20,,,,,,,,13,,,,57,92
173040,note_on,160,0,22,,,,,,,,15,,,,30,92
173040,note_on,160,0,6,,,,,,,,3,,,,57,92
173040,note_on,160,0,21,,,,,,,,14,,,,42,92
173040,note_on,160,0,7,,,,,,,,4,,,,42,92
173040,note_on,160,0,16,,,,,,,,8,,,,38,92
173040,note_on,160,0,15,,,,,,,,7,,,,50,92
173040,note_on,160,0,18,,,,,,,,11,,,,69,108
173040,note_on,160,0,17,,,,,,,,10,,,,50,92
173120,note_off,80,0,16,,,,,,,,8,,,,38,64
173120,note_off,80,0,20,,,,,,,,13,,,,57,64
173120,note_off,80,0,8,,,,,,,,4,,,,38,64
173120,note_off,80,0,6,,,,,,,,3,,,,57,64
173120,note_off,80,0,22,,,,,,,,15,,,,30,64
173120,note_off,80,0,15,,,,,,,,7,,,,50,64
173120,note_off,80,0,18,,,,,,,,11,,,,69,64
173120,note_off,80,0,21,,,,,,,,14,,,,42,64
173120,note_off,80,0,7,,,,,,,,4,,,,42,64
173120,note_off,80,0,17,,,,,,,,10,,,,50,64
173200,note_off,400,0,12,,,,,,,,6,,,,78,64
173200,note_off,400,0,5,,,,,,,,3,,,,74,64
173200,note_off,400,0,13,,,,,,,,7,,,,66,64
173200,note_off,400,0,9,,,,,,,,5,,,,69,64
173200,note_off,400,0,2,,,,,,,,0,,,,74,64
173200,note_off,400,0,10,,,,,,,,5,,,,66,64
173200,note_off,400,0,14,,,,,,,,7,,,,62,64
173200,note_off,400,0,19,,,,,,,,12,,,,74,64
173200,note_off,400,0,11,,,,,,,,6,,,,81,64
173200,note_off,400,0,1,,,,,,,,0,,,,81,64
173200,note_off,400,0,3,,,,,,,,2,,,,81,64
173200,note_off,400,0,4,,,,,,,,2,,,,74,64
173280,note_on,160,0,20,,,,,,,,13,,,,67,92
173280,note_on,80,0,11,,,,,,,,6,,,,79,92
173280,note_on,160,0,15,,,,,,,,7,,,,57,92
173280,note_on,80,0,5,,,,,,,,3,,,,73,92
173280,note_on,80,0,1,,,,,,,,0,,,,79,92
173280,note_on,80,0,9,,,,,,,,5,,,,67,92
173280,note_on,80,0,10,,,,,,,,5,,,,64,92
173280,note_on,80,0,2,,,,,,,,0,,,,73,92
173280,note_on,160,0,7,,,,,,,,4,,,,52,92
173280,note_on,160,0,17,,,,,,,,10,,,,45,92
173280,note_on,80,0,13,,,,,,,,7,,,,64,92
173280,note_on,160,0,21,,,,,,,,14,,,,52,92
173280,note_on,160,0,18,,,,,,,,11,,,,79,108
173280,note_on,80,0,4,,,,,,,,2,,,,73,92
173280,note_on,160,0,16,,,,,,,,8,,,,45,92
173280,note_on,80,0,12,,,,,,,,6,,,,76,92
173280,note_on,80,0,19,,,,,,,,12,,,,73,92
173280,note_on,160,0,22,,,,,,,,15,,,,40,92
173280,note_on,80,0,3,,,,,,,,2,,,,79,92
173280,note_on,80,0,14,,,,,,,,7,,,,57,92
173280,note_on,160,0,6,,,,,,,,3,,,,67,92
173280,note_on,160,0,8,,,,,,,,4,,,,45,92
173360,note_off,80,0,21,,,,,,,,14,,,,52,64
173360,note_off,80,0,7,,,,,,,,4,,,,52,64
173360,note_off,80,0,16,,,,,,,,8,,,,45,64
173360,note_off,80,0,6,,,,,,,,3,,,,67,64
173360,note_off,80,0,15,,,,,,,,7,,,,57,64
173360,note_off,80,0,17,,,,,,,,10,,,,45,64
173360,note_off,80,0,18,,,,,,,,11,,,,79,64
173360,note_off,80,0,22,,,,,,,,15,,,,40,64
173360,note_off,80,0,20,,,,,,,,13,,,,67,64
173360,note_off,80,0,8,,,,,,,,4,,,,45,64
173520,note_on,160,0,21,,,,,,,,14,,,,40,92
173520,note_on,160,0,16,,,,,,,,8,,,,45,92
173520,note_on,160,0,7,,,,,,,,4,,,,40,92
173520,note_on,160,0,18,,,,,,,,11,,,,67,108
173520,note_on,160,0,22,,,,,,,,15,,,,28,92
173520,note_on,160,0,6,,,,,,,,3,,,,55,92
173520,note_on,160,0,8,,,,,,,,4,,,,45,92
173520,note_on,160,0,20,,,,,,,,13,,,,55,92
173520,note_on,160,0,17,,,,,,,,10,,,,45,92
173520,note_on,160,0,15,,,,,,,,7,,,,57,92
173600,note_off,80,0,20,,,,,,,,13,,,,55,64
173600,note_off,80,0,21,,,,,,,,14,,,,40,64
173600,note_off,80,0,17,,,,,,,,10,,,,45,64
173600,note_off,80,0,18,,,,,,,,11,,,,67,64
173600,note_off,80,0,8,,,,,,,,4,,,,45,64
173600,note_off,80,0,22,,,,,,,,15,,,,28,64
173600,note_off,80,0,6,,,,,,,,3,,,,55,64
173600,note_off,80,0,7,,,,,,,,4,,,,40,64
173600,note_off,80,0,16,,,,,,,,8,,,,45,64
173600,note_off,80,0,15,,,,,,,,7,,,,57,64
173680,note_off,400,0,1,,,,,,,,0,,,,79,64
173680,note_off,400,0,4,,,,,,,,2,,,,73,64
173680,note_off,400,0,11,,,,,,,,6,,,,79,64
173680,note_off,400,0,5,,,,,,,,3,,,,73,64
173680,note_off,400,0,13,,,,,,,,7,,,,64,64
173680,note_off,400,0,2,,,,,,,,0,,,,73,64
173680,note_off,400,0,3,,,,,,,,2,,,,79,64
173680,note_off,400,0,9,,,,,,,,5,,,,67,64
173680,note_off,400,0,14,,,,,,,,7,,,,57,64
173680,note_off,400,0,10,,,,,,,,5,,,,64,64
173680,note_off,400,0,19,,,,,,,,12,,,,73,64
173680,note_off,400,0,12,,,,,,,,6,,,,76,64
173760,note_on,80,0,9,,,,,,,,5,,,,66,92
173760,note_on,80,0,5,,,,,,,,3,,,,69,92
173760,note_on,80,0,2,,,,,,,,0,,,,69,92
173760,note_on,80,0,3,,,,,,,,2,,,,78,92
173760,note_on,80,0,10,,,,,,,,5,,,,62,92
173760,note_on,80,0,4,,,,,,,,2,,,,69,92
173760,note_on,80,0,1,,,,,,,,0,,,,78,92
173760,note_on,80,0,11,,,,,,,,6,,,,78,92
173760,note_on,160,0,6,,,,,,,,3,,,,57,92
173760,note_on,160,0,16,,,,,,,,8,,,,38,92
173760,note_on,80,0,12,,,,,,,,6,,,,74,92
173760,note_on,80,0,19,,,,,,,,12,,,,69,92
173760,note_on,160,0,18,,,,,,,,11,,,,78,108
173760,note_on,80,0,14,,,,,,,,7,,,,57,92
173760,note_on,160,0,17,,,,,,,,10,,,,50,92
173760,note_on,160,0,8,,,,,,,,4,,,,38,92
173760,note_on,160,0,21,,,,,,,,14,,,,50,92
173760,note_on,160,0,22,,,,,,,,15,,,,38,92
173760,note_on,80,0,13,,,,,,,,7,,,,62,92
173760,note_on,160,0,20,,,,,,,,13,,,,66,92
173760,note_on,160,0,15,,,,,,,,7,,,,50,92
173760,note_on,160,0,7,,,,,,,,4,,,,50,92
173840,note_off,80,0,22,,,,,,,,15,,,,38,64
173840,note_off,80,0,18,,,,,,,,11,,,,78,64
173840,note_off,80,0,21,,,,,,,,14,,,,50,64
173840,note_off,80,0,7,,,,,,,,4,,,,50,64
173840,note_off,80,0,20,,,,,,,,13,,,,66,64
173880,note_on,40,0,18,,,,,,,,11,,,,69,108
173880,note_on,40,0,20,,,,,,,,13,,,,57,92
173960,note_off,80,0,18,,,,,,,,11,,,,69,64
173960,note_off,80,0,20,,,,,,,,13,,,,57,64
174000,note_on,40,0,18,,,,,,,,11,,,,71,108
174000,note_on,40,0,20,,,,,,,,13,,,,59,92
174000,note_on,160,0,21,,,,,,,,14,,,,38,92
174000,note_on,160,0,7,,,,,,,,4,,,,38,92
174000,note_on,160,0,22,,,,,,,,15,,,,26,92
174080,note_off,80,0,7,,,,,,,,4,,,,38,64
174080,note_off,80,0,21,,,,,,,,14,,,,38,64
174080,note_off,80,0,22,,,,,,,,15,,,,26,64
174080,note_off,80,0,18,,,,,,,,11,,,,71,64
174080,note_off,80,0,20,,,,,,,,13,,,,59,64
174120,note_on,40,0,18,,,,,,,,11,,,,73,108
174120,note_on,40,0,20,,,,,,,,13,,,,61,92
174160,note_off,400,0,5,,,,,,,,3,,,,69,64
174160,note_off,400,0,11,,,,,,,,6,,,,78,64
174160,note_off,400,0,13,,,,,,,,7,,,,62,64
174160,note_off,400,0,14,,,,,,,,7,,,,57,64
174160,note_off,400,0,10,,,,,,,,5,,,,62,64
174160,note_off,400,0,15,,,,,,,,7,,,,50,64
174160,note_off,400,0,6,,,,,,,,3,,,,57,64
174160,note_off,400,0,12,,,,,,,,6,,,,74,64
174160,note_off,400,0,8,,,,,,,,4,,,,38,64
174160,note_off,400,0,2,,,,,,,,0,,,,69,64
174160,note_off,400,0,19,,,,,,,,12,,,,69,64
174160,note_off,400,0,17,,,,,,,,10,,,,50,64
174160,note_off,400,0,1,,,,,,,,0,,,,78,64
174160,note_off,400,0,9,,,,,,,,5,,,,66,64
174160,note_off,400,0,4,,,,,,,,2,,,,69,64
174160,note_off,400,0,16,,,,,,,,8,,,,38,64
174160,note_off,400,0,3,,,,,,,,2,,,,78,64
174200,note_off,80,0,18,,,,,,,,11,,,,73,64
174200,note_off,80,0,20,,,,,,,,13,,,,61,64
174240,note_on,40,0,18,,,,,,,,11,,,,74,108
174240,note_on,40,0,20,,,,,,,,13,,,,62,92
174320,note_off,80,0,20,,,,,,,,13,,,,62,64
174320,note_off,80,0,18,,,,,,,,11,,,,74,64
174360,note_on,40,0,20,,,,,,,,13,,,,64,92
174360,note_on,40,0,18,,,,,,,,11,,,,76,108
174440,note_off,80,0,18,,,,,,,,11,,,,76,64
174440,note_off,80,0,20,,,,,,,,13,,,,64,64
174480,note_on,320,0,4,,,,,,,,2,,,,69,92
174480,note_on,400,0,7,,,,,,,,4,,,,62,92
174480,note_on,320,0,19,,,,,,,,12,,,,69,92
174480,note_on,320,0,15,,,,,,,,7,,,,50,92
174480,note_on,320,0,17,,,,,,,,10,,,,50,92
174480,note_on,320,0,11,,,,,,,,6,,,,78,92
174480,note_on,320,0,5,,,,,,,,3,,,,69,92
174480,note_on,320,0,2,,,,,,,,0,,,,69,92
174480,note_on,40,0,20,,,,,,,,13,,,,66,92
174480,note_on,400,0,21,,,,,,,,14,,,,62,92
174480,note_on,320,0,10,,,,,,,,5,,,,62,92
174480,note_on,320,0,12,,,,,,,,6,,,,74,92
174480,note_on,320,0,14,,,,,,,,7,,,,57,92
174480,note_on,320,0,6,,,,,,,,3,,,,57,92
174480,note_on,320,0,16,,,,,,,,8,,,,38,92
174480,note_on,400,0,22,,,,,,,,15,,,,50,92
174480,note_on,320,0,3,,,,,,,,2,,,,78,92
174480,note_on,320,0,1,,,,,,,,0,,,,78,92
174480,note_on,40,0,18,,,,,,,,11,,,,78,108
174480,note_on,320,0,13,,,,,,,,7,,,,62,92
174480,note_on,320,0,9,,,,,,,,5,,,,66,92
174480,note_on,320,0,8,,,,,,,,4,,,,38,92
174560,note_off,80,0,19,,,,,,,,12,,,,69,64
174560,note_off,80,0,7,,,,,,,,4,,,,62,64
174560,note_off,80,0,16,,,,,,,,8,,,,38,64
174560,note_off,80,0,15,,,,,,,,7,,,,50,64
174560,note_off,80,0,20,,,,,,,,13,,,,66,64
174560,note_off,80,0,22,,,,,,,,15,,,,50,64
174560,note_off,80,0,6,,,,,,,,3,,,,57,64
174560,note_off,80,0,9,,,,,,,,5,,,,66,64
174560,note_off,80,0,11,,,,,,,,6,,,,78,64
174560,note_off,80,0,1,,,,,,,,0,,,,78,64
174560,note_off,80,0,17,,,,,,,,10,,,,50,64
174560,note_off,80,0,14,,,,,,,,7,,,,57,64
174560,note_off,80,0,21,,,,,,,,14,,,,62,64
174560,note_off,80,0,13,,,,,,,,7,,,,62,64
174560,note_off,80,0,10,,,,,,,,5,,,,62,64
174560,note_off,80,0,2,,,,,,,,0,,,,69,64
174560,note_off,80,0,4,,,,,,,,2,,,,69,64
174560,note_off,80,0,12,,,,,,,,6,,,,74,64
174560,note_off,80,0,18,,,,,,,,11,,,,78,64
174560,note_off,80,0,8,,,,,,,,4,,,,38,64
174560,note_off,80,0,3,,,,,,,,2,,,,78,64
174560,note_off,80,0,5,,,,,,,,3,,,,69,64
174600,note_on,40,0,18,,,,,,,,11,,,,79,108
174600,note_on,40,0,20,,,,,,,,13,,,,67,92
174680,note_off,80,0,18,,,,,,,,11,,,,79,64
174680,note_off,80,0,20,,,,,,,,13,,,,67,64
174720,note_on,160,0,16,,,,,,,,8,,,,45,92
174720,note_on,160,0,21,,,,,,,,14,,,,61,92
174720,note_on,160,0,15,,,,,,,,7,,,,57,92
174720,note_on,160,0,9,,,,,,,,5,,,,64,92
174720,note_on,160,0,19,,,,,,,,12,,,,69,92
174720,note_on,160,0,5,,,,,,,,3,,,,69,92
174720,note_on,160,0,14,,,,,,,,7,,,,57,92
174720,note_on,160,0,2,,,,,,,,0,,,,69,92
174720,note_on,40,0,20,,,,,,,,13,,,,64,92
174720,note_on,160,0,7,,,,,,,,4,,,,61,92
174720,note_on,160,0,4,,,,,,,,2,,,,69,92
174720,note_on,160,0,6,,,,,,,,3,,,,57,92
174720,note_on,160,0,1,,,,,,,,0,,,,76,92
174720,note_on,160,0,22,,,,,,,,15,,,,49,92
174720,note_on,160,0,13,,,,,,,,7,,,,57,92
174720,note_on,40,0,18,,,,,,,,11,,,,76,108
174720,note_on,160,0,11,,,,,,,,6,,,,76,92
174720,note_on,160,0,10,,,,,,,,5,,,,57,92
174720,note_on,160,0,3,,,,,,,,2,,,,76,92
174720,note_on,160,0,17,,,,,,,,10,,,,45,92
174720,note_on,160,0,12,,,,,,,,6,,,,69,92
174720,note_on,160,0,8,,,,,,,,4,,,,45,92
174800,note_off,80,0,17,,,,,,,,10,,,,45,64
174800,note_off,80,0,3,,,,,,,,2,,,,76,64
174800,note_off,80,0,5,,,,,,,,3,,,,69,64
174800,note_off,80,0,18,,,,,,,,11,,,,76,64
174800,note_off,80,0,15,,,,,,,,7,,,,57,64
174800,note_off,80,0,14,,,,,,,,7,,,,57,64
174800,note_off,80,0,21,,,,,,,,14,,,,61,64
174800,note_off,80,0,20,,,,,,,,13,,,,64,64
174800,note_off,80,0,10,,,,,,,,5,,,,57,64
174800,note_off,80,0,4,,,,,,,,2,,,,69,64
174800,note_off,80,0,9,,,,,,,,5,,,,64,64
174800,note_off,80,0,2,,,,,,,,0,,,,69,64
174800,note_off,80,0,16,,,,,,,,8,,,,45,64
174800,note_off,80,0,7,,,,,,,,4,,,,61,64
174800,note_off,80,0,6,,,,,,,,3,,,,57,64
174800,note_off,80,0,19,,,,,,,,12,,,,69,64
174800,note_off,80,0,1,,,,,,,,0,,,,76,64
174800,note_off,80,0,12,,,,,,,,6,,,,69,64
174800,note_off,80,0,22,,,,,,,,15,,,,49,64
174800,note_off,80,0,11,,,,,,,,6,,,,76,64
174800,note_off,80,0,13,,,,,,,,7,,,,57,64
174800,note_off,80,0,8,,,,,,,,4,,,,45,64
174840,note_on,40,0,20,,,,,,,,13,,,,66,92
174840,note_on,40,0,18,,,,,,,,11,,,,78,108
174920,note_off,80,0,18,,,,,,,,11,,,,78,64
174920,note_off,80,0,20,,,,,,,,13,,,,66,64
174960,note_on,160,0,12,,,,,,,,6,,,,76,92
174960,note_on,160,0,15,,,,,,,,7,,,,57,92
174960,note_on,160,0,17,,,,,,,,10,,,,45,92
174960,note_on,160,0,2,,,,,,,,0,,,,71,92
174960,note_on,160,0,8,,,,,,,,4,,,,45,92
174960,note_on,160,0,4,,,,,,,,2,,,,71,92
174960,note_on,160,0,9,,,,,,,,5,,,,67,92
174960,note_on,160,0,10,,,,,,,,5,,,,64,92
174960,note_on,40,0,18,,,,,,,,11,,,,79,108
174960,note_on,160,0,7,,,,,,,,4,,,,59,92
174960,note_on,160,0,21,,,,,,,,14,,,,59,92
174960,note_on,160,0,16,,,,,,,,8,,,,45,92
174960,note_on,160,0,3,,,,,,,,2,,,,79,92
174960,note_on,40,0,20,,,,,,,,13,,,,67,92
174960,note_on,160,0,6,,,,,,,,3,,,,59,92
174960,note_on,160,0,19,,,,,,,,12,,,,73,92
174960,note_on,160,0,14,,,,,,,,7,,,,57,92
174960,note_on,160,0,13,,,,,,,,7,,,,64,92
174960,note_on,160,0,11,,,,,,,,6,,,,79,92
174960,note_on,160,0,1,,,,,,,,0,,,,79,92
174960,note_on,160,0,5,,,,,,,,3,,,,71,92
174960,note_on,160,0,22,,,,,,,,15,,,,47,92
175040,note_off,80,0,19,,,,,,,,12,,,,73,64
175040,note_off,80,0,16,,,,,,,,8,,,,45,64
175040,note_off,80,0,8,,,,,,,,4,,,,45,64
175040,note_off,80,0,22,,,,,,,,15,,,,47,64
175040,note_off,80,0,6,,,,,,,,3,,,,59,64
175040,note_off,80,0,4,,,,,,,,2,,,,71,64
175040,note_off,80,0,1,,,,,,,,0,,,,79,64
175040,note_off,80,0,18,,,,,,,,11,,,,79,64
175040,note_off,80,0,7,,,,,,,,4,,,,59,64
175040,note_off,80,0,9,,,,,,,,5,,,,67,64
175040,note_off,80,0,12,,,,,,,,6,,,,76,64
175040,note_off,80,0,21,,,,,,,,14,,,,59,64
175040,note_off,80,0,10,,,,,,,,5,,,,64,64
175040,note_off,80,0,5,,,,,,,,3,,,,71,64
175040,note_off,80,0,2,,,,,,,,0,,,,71,64
175040,note_off,80,0,11,,,,,,,,6,,,,79,64
175040,note_off,80,0,20,,,,,,,,13,,,,67,64
175040,note_off,80,0,13,,,,,,,,7,,,,64,64
175040,note_off,80,0,3,,,,,,,,2,,,,79,64
175040,note_off,80,0,14,,,,,,,,7,,,,57,64
175040,note_off,80,0,15,,,,,,,,7,,,,57,64
175040,note_off,80,0,17,,,,,,,,10,,,,45,64
175080,note_on,40,0,20,,,,,,,,13,,,,69,92
175080,note_on,40,0,18,,,,,,,,11,,,,81,108
175160,note_off,80,0,18,,,,,,,,11,,,,81,64
175160,note_off,80,0,20,,,,,,,,13,,,,69,64
175200,note_on,160,0,19,,,,,,,,12,,,,74,92
175200,note_on,160,0,22,,,,,,,,15,,,,50,92
175200,note_on,160,0,16,,,,,,,,8,,,,38,92
175200,note_on,40,0,18,,,,,,,,11,,,,78,108
175200,note_on,40,0,20,,,,,,,,13,,,,66,92
175200,note_on,160,0,12,,,,,,,,6,,,,74,92
175200,note_on,160,0,1,,,,,,,,0,,,,78,92
175200,note_on,160,0,2,,,,,,,,0,,,,74,92
175200,note_on,160,0,5,,,,,,,,3,,,,74,92
175200,note_on,160,0,14,,,,,,,,7,,,,57,92
175200,note_on,160,0,6,,,,,,,,3,,,,62,92
175200,note_on,160,0,11,,,,,,,,6,,,,78,92
175200,note_on,160,0,7,,,,,,,,4,,,,62,92
175200,note_on,160,0,10,,,,,,,,5,,,,62,92
175200,note_on,160,0,3,,,,,,,,2,,,,78,92
175200,note_on,160,0,21,,,,,,,,14,,,,62,92
175200,note_on,160,0,15,,,,,,,,7,,,,50,92
175200,note_on,160,0,9,,,,,,,,5,,,,66,92
175200,note_on,160,0,17,,,,,,,,10,,,,50,92
175200,note_on,160,0,8,,,,,,,,4,,,,38,92
175200,note_on,160,0,13,,,,,,,,7,,,,62,92
175200,note_on,160,0,4,,,,,,,,2,,,,74,92
175280,note_off,80,0,18,,,,,,,,11,,,,78,64
175280,note_off,80,0,22,,,,,,,,15,,,,50,64
175280,note_off,80,0,20,,,,,,,,13,,,,66,64
175280,note_off,80,0,21,,,,,,,,14,,,,62,64
175280,note_off,80,0,7,,,,,,,,4,,,,62,64
175320,note_on,40,0,18,,,,,,,,11,,,,69,108
175320,note_on,40,0,20,,,,,,,,13,,,,57,92
175400,note_off,80,0,18,,,,,,,,11,,,,69,64
175400,note_off,80,0,20,,,,,,,,13,,,,57,64
175440,note_on,40,0,18,,,,,,,,11,,,,71,108
175440,note_on,160,0,7,,,,,,,,4,,,,50,92
175440,note_on,160,0,21,,,,,,,,14,,,,50,92
175440,note_on,40,0,20,,,,,,,,13,,,,59,92
175440,note_on,160,0,22,,,,,,,,15,,,,38,92
175520,note_off,80,0,7,,,,,,,,4,,,,50,64
175520,note_off,80,0,18,,,,,,,,11,,,,71,64
175520,note_off,80,0,22,,,,,,,,15,,,,38,64
175520,note_off,80,0,21,,,,,,,,14,,,,50,64
175520,note_off,80,0,20,,,,,,,,13,,,,59,64
175560,note_on,40,0,18,,,,,,,,11,,,,73,108
175560,note_on,40,0,20,,,,,,,,13,,,,61,92
175600,note_off,400,0,5,,,,,,,,3,,,,74,64
175600,note_off,400,0,17,,,,,,,,10,,,,50,64
175600,note_off,400,0,6,,,,,,,,3,,,,62,64
175600,note_off,400,0,3,,,,,,,,2,,,,78,64
175600,note_off,400,0,14,,,,,,,,7,,,,57,64
175600,note_off,400,0,11,,,,,,,,6,,,,78,64
175600,note_off,400,0,10,,,,,,,,5,,,,62,64
175600,note_off,400,0,15,,,,,,,,7,,,,50,64
175600,note_off,400,0,9,,,,,,,,5,,,,66,64
175600,note_off,400,0,4,,,,,,,,2,,,,74,64
175600,note_off,400,0,8,,,,,,,,4,,,,38,64
175600,note_off,400,0,16,,,,,,,,8,,,,38,64
175600,note_off,400,0,2,,,,,,,,0,,,,74,64
175600,note_off,400,0,1,,,,,,,,0,,,,78,64
175600,note_off,400,0,13,,,,,,,,7,,,,62,64
175600,note_off,400,0,12,,,,,,,,6,,,,74,64
175600,note_off,400,0,19,,,,,,,,12,,,,74,64
175640,note_off,80,0,20,,,,,,,,13,,,,61,64
175640,note_off,80,0,18,,,,,,,,11,,,,73,64
175680,note_on,40,0,20,,,,,,,,13,,,,62,92
175680,note_on,40,0,18,,,,,,,,11,,,,74,108
175760,note_off,80,0,18,,,,,,,,11,,,,74,64
175760,note_off,80,0,20,,,,,,,,13,,,,62,64
175800,note_on,40,0,18,,,,,,,,11,,,,76,108
175800,note_on,40,0,20,,,,,,,,13,,,,64,92
175880,note_off,80,0,18,,,,,,,,11,,,,76,64
175880,note_off,80,0,20,,,,,,,,13,,,,64,64
175920,note_on,320,0,19,,,,,,,,12,,,,78,92
175920,note_on,320,0,6,,,,,,,,3,,,,74,92
175920,note_on,40,0,18,,,,,,,,11,,,,78,108
175920,note_on,320,0,3,,,,,,,,2,,,,78,92
175920,note_on,320,0,17,,,,,,,,10,,,,50,92
175920,note_on,320,0,10,,,,,,,,5,,,,66,92
175920,note_on,320,0,15,,,,,,,,7,,,,50,92
175920,note_on,320,0,4,,,,,,,,2,,,,78,92
175920,note_on,400,0,7,,,,,,,,4,,,,62,92
175920,note_on,320,0,1,,,,,,,,0,,,,78,92
175920,note_on,400,0,22,,,,,,,,15,,,,50,92
175920,note_on,320,0,2,,,,,,,,0,,,,78,92
175920,note_on,320,0,16,,,,,,,,8,,,,38,92
175920,note_on,40,0,20,,,,,,,,13,,,,66,92
175920,note_on,400,0,21,,,,,,,,14,,,,62,92
175920,note_on,320,0,12,,,,,,,,6,,,,74,92
175920,note_on,320,0,9,,,,,,,,5,,,,69,92
175920,note_on,320,0,13,,,,,,,,7,,,,62,92
175920,note_on,320,0,5,,,,,,,,3,,,,78,92
175920,note_on,320,0,14,,,,,,,,7,,,,57,92
175920,note_on,320,0,8,,,,,,,,4,,,,38,92
175920,note_on,320,0,11,,,,,,,,6,,,,78,92
176000,note_off,80,0,21,,,,,,,,14,,,,62,64
176000,note_off,80,0,14,,,,,,,,7,,,,57,64
176000,note_off,80,0,18,,,,,,,,11,,,,78,64
176000,note_off,80,0,10,,,,,,,,5,,,,66,64
176000,note_off,80,0,11,,,,,,,,6,,,,78,64
176000,note_off,80,0,3,,,,,,,,2,,,,78,64
176000,note_off,80,0,4,,,,,,,,2,,,,78,64
176000,note_off,80,0,8,,,,,,,,4,,,,38,64
176000,note_off,80,0,7,,,,,,,,4,,,,62,64
176000,note_off,80,0,12,,,,,,,,6,,,,74,64
176000,note_off,80,0,1,,,,,,,,0,,,,78,64
176000,note_off,80,0,15,,,,,,,,7,,,,50,64
176000,note_off,80,0,2,,,,,,,,0,,,,78,64
176000,note_off,80,0,22,,,,,,,,15,,,,50,64
176000,note_off,80,0,9,,,,,,,,5,,,,69,64
176000,note_off,80,0,16,,,,,,,,8,,,,38,64
176000,note_off,80,0,17,,,,,,,,10,,,,50,64
176000,note_off,80,0,20,,,,,,,,13,,,,66,64
176000,note_off,80,0,13,,,,,,,,7,,,,62,64
176000,note_off,80,0,19,,,,,,,,12,,,,78,64
176000,note_off,80,0,5,,,,,,,,3,,,,78,64
176000,note_off,80,0,6,,,,,,,,3,,,,74,64
176040,note_on,40,0,20,,,,,,,,13,,,,67,92
176040,note_on,40,0,18,,,,,,,,11,,,,79,108
176120,note_off,80,0,20,,,,,,,,13,,,,67,64
176120,note_off,80,0,18,,,,,,,,11,,,,79,64
176160,note_on,160,0,7,,,,,,,,4,,,,61,92
176160,note_on,160,0,2,,,,,,,,0,,,,76,92
176160,note_on,160,0,13,,,,,,,,7,,,,57,92
176160,note_on,160,0,1,,,,,,,,0,,,,76,92
176160,note_on,160,0,12,,,,,,,,6,,,,69,92
176160,note_on,160,0,19,,,,,,,,12,,,,76,92
176160,note_on,40,0,20,,,,,,,,13,,,,64,92
176160,note_on,160,0,9,,,,,,,,5,,,,73,92
176160,note_on,160,0,8,,,,,,,,4,,,,45,92
176160,note_on,160,0,15,,,,,,,,7,,,,57,92
176160,note_on,160,0,6,,,,,,,,3,,,,73,92
176160,note_on,160,0,14,,,,,,,,7,,,,57,92
176160,note_on,40,0,18,,,,,,,,11,,,,76,108
176160,note_on,160,0,22,,,,,,,,15,,,,49,92
176160,note_on,160,0,3,,,,,,,,2,,,,76,92
176160,note_on,160,0,4,,,,,,,,2,,,,76,92
176160,note_on,160,0,16,,,,,,,,8,,,,45,92
176160,note_on,160,0,10,,,,,,,,5,,,,64,92
176160,note_on,160,0,17,,,,,,,,10,,,,45,92
176160,note_on,160,0,21,,,,,,,,14,,,,61,92
176160,note_on,160,0,11,,,,,,,,6,,,,76,92
176160,note_on,160,0,5,,,,,,,,3,,,,76,92
176240,note_off,80,0,8,,,,,,,,4,,,,45,64
176240,note_off,80,0,6,,,,,,,,3,,,,73,64
176240,note_off,80,0,18,,,,,,,,11,,,,76,64
176240,note_off,80,0,20,,,,,,,,13,,,,64,64
176240,note_off,80,0,17,,,,,,,,10,,,,45,64
176240,note_off,80,0,7,,,,,,,,4,,,,61,64
176240,note_off,80,0,2,,,,,,,,0,,,,76,64
176240,note_off,80,0,21,,,,,,,,14,,,,61,64
176240,note_off,80,0,10,,,,,,,,5,,,,64,64
176240,note_off,80,0,4,,,,,,,,2,,,,76,64
176240,note_off,80,0,14,,,,,,,,7,,,,57,64
176240,note_off,80,0,16,,,,,,,,8,,,,45,64
176240,note_off,80,0,3,,,,,,,,2,,,,76,64
176240,note_off,80,0,12,,,,,,,,6,,,,69,64
176240,note_off,80,0,15,,,,,,,,7,,,,57,64
176240,note_off,80,0,22,,,,,,,,15,,,,49,64
176240,note_off,80,0,11,,,,,,,,6,,,,76,64
176240,note_off,80,0,13,,,,,,,,7,,,,57,64
176240,note_off,80,0,1,,,,,,,,0,,,,76,64
176240,note_off,80,0,19,,,,,,,,12,,,,76,64
176240,note_off,80,0,5,,,,,,,,3,,,,76,64
176280,note_on,40,0,18,,,,,,,,11,,,,78,108
176280,note_on,40,0,20,,,,,,,,13,,,,66,92
176360,note_off,80,0,18,,,,,,,,11,,,,78,64
176360,note_off,80,0,20,,,,,,,,13,,,,66,64
176400,note_on,160,0,11,,,,,,,,6,,,,79,92
176400,note_on,160,0,14,,,,,,,,7,,,,57,92
176400,note_on,160,0,2,,,,,,,,0,,,,79,92
176400,note_on,160,0,5,,,,,,,,3,,,,79,92
176400,note_on,160,0,3,,,,,,,,2,,,,79,92
176400,note_on,160,0,16,,,,,,,,8,,,,45,92
176400,note_on,160,0,22,,,,,,,,15,,,,45,92
176400,note_on,160,0,10,,,,,,,,5,,,,67,92
176400,note_on,160,0,8,,,,,,,,4,,,,45,92
176400,note_on,160,0,17,,,,,,,,10,,,,45,92
176400,note_on,160,0,13,,,,,,,,7,,,,64,92
176400,note_on,160,0,19,,,,,,,,12,,,,79,92
176400,note_on,160,0,21,,,,,,,,14,,,,57,92
176400,note_on,160,0,15,,,,,,,,7,,,,57,92
176400,note_on,160,0,1,,,,,,,,0,,,,79,92
176400,note_on,40,0,18,,,,,,,,11,,,,79,108
176400,note_on,40,0,20,,,,,,,,13,,,,67,92
176400,note_on,160,0,6,,,,,,,,3,,,,76,92
176400,note_on,160,0,12,,,,,,,,6,,,,76,92
176400,note_on,160,0,7,,,,,,,,4,,,,57,92
176400,note_on,160,0,4,,,,,,,,2,,,,79,92
176480,note_off,80,0,14,,,,,,,,7,,,,57,64
176480,note_off,80,0,4,,,,,,,,2,,,,79,64
176480,note_off,80,0,15,,,,,,,,7,,,,57,64
176480,note_off,80,0,17,,,,,,,,10,,,,45,64
176480,note_off,80,0,3,,,,,,,,2,,,,79,64
176480,note_off,80,0,2,,,,,,,,0,,,,79,64
176480,note_off,80,0,16,,,,,,,,8,,,,45,64
176480,note_off,80,0,13,,,,,,,,7,,,,64,64
176480,note_off,80,0,18,,,,,,,,11,,,,79,64
176480,note_off,80,0,6,,,,,,,,3,,,,76,64
176480,note_off,80,0,5,,,,,,,,3,,,,79,64
176480,note_off,80,0,19,,,,,,,,12,,,,79,64
176480,note_off,80,0,21,,,,,,,,14,,,,57,64
176480,note_off,80,0,10,,,,,,,,5,,,,67,64
176480,note_off,80,0,1,,,,,,,,0,,,,79,64
176480,note_off,80,0,8,,,,,,,,4,,,,45,64
176480,note_off,80,0,7,,,,,,,,4,,,,57,64
176480,note_off,80,0,11,,,,,,,,6,,,,79,64
176480,note_off,80,0,20,,,,,,,,13,,,,67,64
176480,note_off,80,0,12,,,,,,,,6,,,,76,64
176480,note_off,80,0,22,,,,,,,,15,,,,45,64
176515,note_off,355,0,9,,,,,,,,5,,,,73,64
176520,note_on,40,0,18,,,,,,,,11,,,,81,108
176520,note_on,5,0,9,,,,,,,,5,,,,73,92
176520,note_on,40,0,20,,,,,,,,13,,,,69,92
176600,note_off,80,0,18,,,,,,,,11,,,,81,64
176600,note_off,80,0,20,,,,,,,,13,,,,69,64
176635,note_off,115,0,9,,,,,,,,5,,,,73,64
176640,note_on,160,0,12,,,,,,,,6,,,,74,92
176640,note_on,160,0,13,,,,,,,,7,,,,62,92
176640,note_on,160,0,15,,,,,,,,7,,,,50,92
176640,note_on,160,0,21,,,,,,,,14,,,,62,92
176640,note_on,160,0,1,,,,,,,,0,,,,78,92
176640,note_on,40,0,18,,,,,,,,11,,,,78,108
176640,note_on,160,0,4,,,,,,,,2,,,,78,92
176640,note_on,160,0,7,,,,,,,,4,,,,62,92
176640,note_on,160,0,2,,,,,,,,0,,,,78,92
176640,note_on,160,0,5,,,,,,,,3,,,,78,92
176640,note_on,160,0,19,,,,,,,,12,,,,78,92
176640,note_on,160,0,3,,,,,,,,2,,,,78,92
176640,note_on,40,0,20,,,,,,,,13,,,,66,92
176640,note_on,160,0,11,,,,,,,,6,,,,78,92
176640,note_on,160,0,8,,,,,,,,4,,,,38,92
176640,note_on,5,0,9,,,,,,,,5,,,,74,92
176640,note_on,160,0,10,,,,,,,,5,,,,66,92
176640,note_on,160,0,14,,,,,,,,7,,,,57,92
176640,note_on,160,0,16,,,,,,,,8,,,,38,92
176640,note_on,160,0,17,,,,,,,,10,,,,50,92
176640,note_on,160,0,22,,,,,,,,15,,,,50,92
176640,note_on,160,0,6,,,,,,,,3,,,,74,92
176720,note_off,80,0,11,,,,,,,,6,,,,78,64
176720,note_off,80,0,12,,,,,,,,6,,,,74,64
176720,note_off,80,0,8,,,,,,,,4,,,,38,64
176720,note_off,80,0,16,,,,,,,,8,,,,38,64
176720,note_off,80,0,1,,,,,,,,0,,,,78,64
176720,note_off,80,0,15,,,,,,,,7,,,,50,64
176720,note_off,80,0,18,,,,,,,,11,,,,78,64
176720,note_off,80,0,21,,,,,,,,14,,,,62,64
176720,note_off,80,0,17,,,,,,,,10,,,,50,64
176720,note_off,80,0,7,,,,,,,,4,,,,62,64
176720,note_off,80,0,22,,,,,,,,15,,,,50,64
176720,note_off,80,0,20,,,,,,,,13,,,,66,64
176720,note_off,80,0,9,,,,,,,,5,,,,74,64
176720,note_off,80,0,14,,,,,,,,7,,,,57,64
176720,note_off,80,0,13,,,,,,,,7,,,,62,64
176720,note_off,80,0,3,,,,,,,,2,,,,78,64
176760,note_on,40,0,18,,,,,,,,11,,,,81,108
176760,note_on,40,0,20,,,,,,,,13,,,,69,92
176840,note_off,80,0,20,,,,,,,,13,,,,69,64
176840,note_off,80,0,18,,,,,,,,11,,,,81,64
176880,note_on,160,0,21,,,,,,,,14,,,,50,92
176880,note_on,40,0,18,,,,,,,,11,,,,79,108
176880,note_on,160,0,1,,,,,,,,0,,,,74,92
176880,note_on,160,0,13,,,,,,,,7,,,,57,92
176880,note_on,160,0,15,,,,,,,,7,,,,50,92
176880,note_on,160,0,14,,,,,,,,7,,,,54,92
176880,note_on,160,0,8,,,,,,,,4,,,,38,92
176880,note_on,160,0,11,,,,,,,,6,,,,74,92
176880,note_on,160,0,17,,,,,,,,10,,,,50,92
176880,note_on,160,0,12,,,,,,,,6,,,,69,92
176880,note_on,160,0,9,,,,,,,,5,,,,69,92
176880,note_on,160,0,3,,,,,,,,2,,,,74,92
176880,note_on,160,0,22,,,,,,,,15,,,,38,92
176880,note_on,160,0,7,,,,,,,,4,,,,50,92
176880,note_on,160,0,16,,,,,,,,8,,,,38,92
176880,note_on,40,0,20,,,,,,,,13,,,,67,92
176960,note_off,80,0,8,,,,,,,,4,,,,38,64
176960,note_off,80,0,22,,,,,,,,15,,,,38,64
176960,note_off,80,0,13,,,,,,,,7,,,,57,64
176960,note_off,80,0,21,,,,,,,,14,,,,50,64
176960,note_off,80,0,16,,,,,,,,8,,,,38,64
176960,note_off,80,0,1,,,,,,,,0,,,,74,64
176960,note_off,80,0,18,,,,,,,,11,,,,79,64
176960,note_off,80,0,12,,,,,,,,6,,,,69,64
176960,note_off,80,0,15,,,,,,,,7,,,,50,64
176960,note_off,80,0,14,,,,,,,,7,,,,54,64
176960,note_off,80,0,11,,,,,,,,6,,,,74,64
176960,note_off,80,0,17,,,,,,,,10,,,,50,64
176960,note_off,80,0,9,,,,,,,,5,,,,69,64
176960,note_off,80,0,20,,,,,,,,13,,,,67,64
176960,note_off,80,0,3,,,,,,,,2,,,,74,64
176960,note_off,80,0,7,,,,,,,,4,,,,50,64
177000,note_on,40,0,18,,,,,,,,11,,,,78,108
177000,note_on,40,0,20,,,,,,,,13,,,,66,92
177080,note_off,80,0,20,,,,,,,,13,,,,66,64
177080,note_off,80,0,18,,,,,,,,11,,,,78,64
177120,note_on,160,0,15,,,,,,,,7,,,,50,92
177120,note_on,160,0,16,,,,,,,,8,,,,38,92
177120,note_on,40,0,20,,,,,,,,13,,,,71,92
177120,note_on,160,0,12,,,,,,,,6,,,,78,92
177120,note_on,160,0,1,,,,,,,,0,,,,83,92
177120,note_on,160,0,3,,,,,,,,2,,,,83,92
177120,note_on,40,0,18,,,,,,,,11,,,,83,108
177120,note_on,160,0,8,,,,,,,,4,,,,38,92
177120,note_on,160,0,21,,,,,,,,14,,,,62,92
177120,note_on,160,0,22,,,,,,,,15,,,,50,92
177120,note_on,160,0,7,,,,,,,,4,,,,62,92
177120,note_on,160,0,9,,,,,,,,5,,,,71,92
177120,note_on,160,0,14,,,,,,,,7,,,,50,92
177120,note_on,160,0,17,,,,,,,,10,,,,50,92
177120,note_on,160,0,13,,,,,,,,7,,,,66,92
177120,note_on,160,0,11,,,,,,,,6,,,,83,92
177200,note_off,80,0,16,,,,,,,,8,,,,38,64
177200,note_off,80,0,21,,,,,,,,14,,,,62,64
177200,note_off,80,0,15,,,,,,,,7,,,,50,64
177200,note_off,80,0,17,,,,,,,,10,,,,50,64
177200,note_off,80,0,8,,,,,,,,4,,,,38,64
177200,note_off,80,0,18,,,,,,,,11,,,,83,64
177200,note_off,80,0,14,,,,,,,,7,,,,50,64
177200,note_off,80,0,7,,,,,,,,4,,,,62,64
177200,note_off,80,0,22,,,,,,,,15,,,,50,64
177200,note_off,80,0,20,,,,,,,,13,,,,71,64
177240,note_on,40,0,18,,,,,,,,11,,,,81,108
177240,note_on,40,0,20,,,,,,,,13,,,,69,92
177280,note_off,640,0,19,,,,,,,,12,,,,78,64
177280,note_off,640,0,5,,,,,,,,3,,,,78,64
177280,note_off,640,0,10,,,,,,,,5,,,,66,64
177280,note_off,640,0,6,,,,,,,,3,,,,74,64
177280,note_off,640,0,4,,,,,,,,2,,,,78,64
177280,note_off,640,0,2,,,,,,,,0,,,,78,64
177320,note_off,80,0,18,,,,,,,,11,,,,81,64
177320,note_off,80,0,20,,,,,,,,13,,,,69,64
177360,note_on,80,0,6,,,,,,,,3,,,,74,92
177360,note_on,40,0,18,,,,,,,,11,,,,79,108
177360,note_on,80,0,5,,,,,,,,3,,,,78,92
177360,note_on,40,0,20,,,,,,,,13,,,,67,92
177360,note_on,160,0,17,,,,,,,,10,,,,50,92
177360,note_on,160,0,14,,,,,,,,7,,,,62,92
177360,note_on,160,0,22,,,,,,,,15,,,,38,92
177360,note_on,80,0,10,,,,,,,,5,,,,66,92
177360,note_on,160,0,8,,,,,,,,4,,,,38,92
177360,note_on,80,0,2,,,,,,,,0,,,,78,92
177360,note_on,80,0,19,,,,,,,,12,,,,78,92
177360,note_on,160,0,21,,,,,,,,14,,,,50,92
177360,note_on,80,0,4,,,,,,,,2,,,,78,92
177360,note_on,160,0,7,,,,,,,,4,,,,50,92
177360,note_on,160,0,15,,,,,,,,7,,,,50,92
177360,note_on,160,0,16,,,,,,,,8,,,,38,92
177440,note_off,80,0,19,,,,,,,,12,,,,78,64
177440,note_off,80,0,10,,,,,,,,5,,,,66,64
177440,note_off,80,0,21,,,,,,,,14,,,,50,64
177440,note_off,80,0,8,,,,,,,,4,,,,38,64
177440,note_off,80,0,18,,,,,,,,11,,,,79,64
177440,note_off,80,0,22,,,,,,,,15,,,,38,64
177440,note_off,80,0,7,,,,,,,,4,,,,50,64
177440,note_off,80,0,20,,,,,,,,13,,,,67,64
177440,note_off,80,0,16,,,,,,,,8,,,,38,64
177440,note_off,80,0,17,,,,,,,,10,,,,50,64
177440,note_off,80,0,2,,,,,,,,0,,,,78,64
177440,note_off,80,0,5,,,,,,,,3,,,,78,64
177440,note_off,80,0,14,,,,,,,,7,,,,62,64
177440,note_off,80,0,4,,,,,,,,2,,,,78,64
177440,note_off,80,0,15,,,,,,,,7,,,,50,64
177440,note_off,80,0,6,,,,,,,,3,,,,74,64
177480,note_on,40,0,20,,,,,,,,13,,,,66,92
177480,note_on,40,0,18,,,,,,,,11,,,,78,108
177560,note_off,80,0,18,,,,,,,,11,,,,78,64
177560,note_off,80,0,20,,,,,,,,13,,,,66,64
177600,note_on,40,0,18,,,,,,,,11,,,,79,108
177600,note_on,160,0,10,,,,,,,,5,,,,66,92
177600,note_on,160,0,22,,,,,,,,15,,,,50,92
177600,note_on,160,0,2,,,,,,,,0,,,,78,92
177600,note_on,160,0,15,,,,,,,,7,,,,50,92
177600,note_on,160,0,5,,,,,,,,3,,,,78,92
177600,note_on,160,0,8,,,,,,,,4,,,,38,92
177600,note_on,160,0,7,,,,,,,,4,,,,62,92
177600,note_on,160,0,14,,,,,,,,7,,,,62,92
177600,note_on,160,0,21,,,,,,,,14,,,,62,92
177600,note_on,160,0,4,,,,,,,,2,,,,78,92
177600,note_on,160,0,6,,,,,,,,3,,,,74,92
177600,note_on,160,0,19,,,,,,,,12,,,,78,92
177600,note_on,160,0,17,,,,,,,,10,,,,50,92
177600,note_on,160,0,16,,,,,,,,8,,,,38,92
177600,note_on,40,0,20,,,,,,,,13,,,,67,92
177680,note_off,80,0,14,,,,,,,,7,,,,62,64
177680,note_off,80,0,6,,,,,,,,3,,,,74,64
177680,note_off,80,0,10,,,,,,,,5,,,,66,64
177680,note_off,80,0,20,,,,,,,,13,,,,67,64
177680,note_off,80,0,19,,,,,,,,12,,,,78,64
177680,note_off,80,0,21,,,,,,,,14,,,,62,64
177680,note_off,80,0,22,,,,,,,,15,,,,50,64
177680,note_off,80,0,7,,,,,,,,4,,,,62,64
177680,note_off,80,0,18,,,,,,,,11,,,,79,64
177680,note_off,80,0,16,,,,,,,,8,,,,38,64
177680,note_off,80,0,17,,,,,,,,10,,,,50,64
177680,note_off,80,0,5,,,,,,,,3,,,,78,64
177680,note_off,80,0,15,,,,,,,,7,,,,50,64
177680,note_off,80,0,8,,,,,,,,4,,,,38,64
177680,note_off,80,0,4,,,,,,,,2,,,,78,64
177680,note_off,80,0,2,,,,,,,,0,,,,78,64
177720,note_on,40,0,20,,,,,,,,13,,,,66,92
177720,note_on,40,0,18,,,,,,,,11,,,,78,108
177760,note_off,640,0,13,,,,,,,,7,,,,66,64
177760,note_off,640,0,1,,,,,,,,0,,,,83,64
177760,note_off,640,0,3,,,,,,,,2,,,,83,64
177760,note_off,640,0,11,,,,,,,,6,,,,83,64
177760,note_off,640,0,9,,,,,,,,5,,,,71,64
177760,note_off,640,0,12,,,,,,,,6,,,,78,64
177800,note_off,80,0,18,,,,,,,,11,,,,78,64
177800,note_off,80,0,20,,,,,,,,13,,,,66,64
177840,note_on,80,0,13,,,,,,,,7,,,,66,92
177840,note_on,160,0,21,,,,,,,,14,,,,61,92
177840,note_on,40,0,20,,,,,,,,13,,,,64,92
177840,note_on,80,0,12,,,,,,,,6,,,,78,92
177840,note_on,160,0,22,,,,,,,,15,,,,49,92
177840,note_on,80,0,1,,,,,,,,0,,,,83,92
177840,note_on,160,0,10,,,,,,,,5,,,,66,92
177840,note_on,80,0,3,,,,,,,,2,,,,83,92
177840,note_on,80,0,9,,,,,,,,5,,,,71,92
177840,note_on,160,0,16,,,,,,,,8,,,,38,92
177840,note_on,160,0,5,,,,,,,,3,,,,78,92
177840,note_on,160,0,14,,,,,,,,7,,,,62,92
177840,note_on,160,0,8,,,,,,,,4,,,,38,92
177840,note_on,160,0,17,,,,,,,,10,,,,50,92
177840,note_on,160,0,2,,,,,,,,0,,,,78,92
177840,note_on,80,0,11,,,,,,,,6,,,,83,92
177840,note_on,160,0,4,,,,,,,,2,,,,78,92
177840,note_on,40,0,18,,,,,,,,11,,,,76,108
177840,note_on,160,0,6,,,,,,,,3,,,,73,92
177840,note_on,160,0,19,,,,,,,,12,,,,78,92
177840,note_on,160,0,15,,,,,,,,7,,,,50,92
177840,note_on,160,0,7,,,,,,,,4,,,,61,92
177920,note_off,80,0,22,,,,,,,,15,,,,49,64
177920,note_off,80,0,4,,,,,,,,2,,,,78,64
177920,note_off,80,0,19,,,,,,,,12,,,,78,64
177920,note_off,80,0,17,,,,,,,,10,,,,50,64
177920,note_off,80,0,8,,,,,,,,4,,,,38,64
177920,note_off,80,0,21,,,,,,,,14,,,,61,64
177920,note_off,80,0,20,,,,,,,,13,,,,64,64
177920,note_off,80,0,5,,,,,,,,3,,,,78,64
177920,note_off,80,0,1,,,,,,,,0,,,,83,64
177920,note_off,80,0,16,,,,,,,,8,,,,38,64
177920,note_off,80,0,7,,,,,,,,4,,,,61,64
177920,note_off,80,0,2,,,,,,,,0,,,,78,64
177920,note_off,80,0,18,,,,,,,,11,,,,76,64
177920,note_off,80,0,6,,,,,,,,3,,,,73,64
177920,note_off,80,0,9,,,,,,,,5,,,,71,64
177920,note_off,80,0,15,,,,,,,,7,,,,50,64
177920,note_off,80,0,10,,,,,,,,5,,,,66,64
177920,note_off,80,0,3,,,,,,,,2,,,,83,64
177920,note_off,80,0,11,,,,,,,,6,,,,83,64
177920,note_off,80,0,14,,,,,,,,7,,,,62,64
177960,note_on,40,0,20,,,,,,,,13,,,,62,92
177960,note_on,40,0,8,,,,,,,,4,,,,38,92
177960,note_on,40,0,17,,,,,,,,10,,,,50,92
177960,note_on,40,0,22,,,,,,,,15,,,,47,92
177960,note_on,40,0,7,,,,,,,,4,,,,59,92
177960,note_on,40,0,18,,,,,,,,11,,,,74,108
177960,note_on,40,0,16,,,,,,,,8,,,,38,92
177960,note_on,40,0,15,,,,,,,,7,,,,50,92
177960,note_on,40,0,21,,,,,,,,14,,,,59,92
178040,note_off,80,0,7,,,,,,,,4,,,,59,64
178040,note_off,80,0,15,,,,,,,,7,,,,50,64
178040,note_off,80,0,22,,,,,,,,15,,,,47,64
178040,note_off,80,0,20,,,,,,,,13,,,,62,64
178040,note_off,80,0,16,,,,,,,,8,,,,38,64
178040,note_off,80,0,17,,,,,,,,10,,,,50,64
178040,note_off,80,0,8,,,,,,,,4,,,,38,64
178040,note_off,80,0,21,,,,,,,,14,,,,59,64
178040,note_off,80,0,18,,,,,,,,11,,,,74,64
178075,note_off,235,0,12,,,,,,,,6,,,,78,64
178075,note_off,235,0,13,,,,,,,,7,,,,66,64
178080,note_on,40,0,21,,,,,,,,14,,,,61,92
178080,note_on,5,0,13,,,,,,,,7,,,,64,92
178080,note_on,40,0,7,,,,,,,,4,,,,61,92
178080,note_on,160,0,2,,,,,,,,0,,,,76,92
178080,note_on,160,0,1,,,,,,,,0,,,,83,92
178080,note_on,40,0,16,,,,,,,,8,,,,38,92
178080,note_on,160,0,6,,,,,,,,3,,,,73,92
178080,note_on,40,0,15,,,,,,,,7,,,,50,92
178080,note_on,160,0,14,,,,,,,,7,,,,64,92
178080,note_on,5,0,12,,,,,,,,6,,,,76,92
178080,note_on,160,0,9,,,,,,,,5,,,,71,92
178080,note_on,160,0,3,,,,,,,,2,,,,83,92
178080,note_on,160,0,5,,,,,,,,3,,,,76,92
178080,note_on,40,0,22,,,,,,,,15,,,,49,92
178080,note_on,160,0,19,,,,,,,,12,,,,76,92
178080,note_on,40,0,20,,,,,,,,13,,,,64,92
178080,note_on,160,0,10,,,,,,,,5,,,,64,92
178080,note_on,160,0,11,,,,,,,,6,,,,83,92
178080,note_on,160,0,4,,,,,,,,2,,,,76,92
178080,note_on,40,0,8,,,,,,,,4,,,,38,92
178080,note_on,40,0,17,,,,,,,,10,,,,50,92
178080,note_on,40,0,18,,,,,,,,11,,,,76,108
178160,note_off,80,0,18,,,,,,,,11,,,,76,64
178160,note_off,80,0,17,,,,,,,,10,,,,50,64
178160,note_off,80,0,11,,,,,,,,6,,,,83,64
178160,note_off,80,0,9,,,,,,,,5,,,,71,64
178160,note_off,80,0,3,,,,,,,,2,,,,83,64
178160,note_off,80,0,7,,,,,,,,4,,,,61,64
178160,note_off,80,0,15,,,,,,,,7,,,,50,64
178160,note_off,80,0,16,,,,,,,,8,,,,38,64
178160,note_off,80,0,22,,,,,,,,15,,,,49,64
178160,note_off,80,0,21,,,,,,,,14,,,,61,64
178160,note_off,80,0,8,,,,,,,,4,,,,38,64
178160,note_off,80,0,1,,,,,,,,0,,,,83,64
178160,note_off,80,0,20,,,,,,,,13,,,,64,64
178200,note_on,40,0,20,,,,,,,,13,,,,67,92
178200,note_on,40,0,18,,,,,,,,11,,,,79,108
178280,note_off,80,0,20,,,,,,,,13,,,,67,64
178280,note_off,80,0,18,,,,,,,,11,,,,79,64
178320,note_on,160,0,9,,,,,,,,5,,,,64,92
178320,note_on,160,0,21,,,,,,,,14,,,,49,92
178320,note_on,160,0,8,,,,,,,,4,,,,45,92
178320,note_on,160,0,16,,,,,,,,8,,,,45,92
178320,note_on,160,0,7,,,,,,,,4,,,,49,92
178320,note_on,160,0,17,,,,,,,,10,,,,45,92
178320,note_on,40,0,18,,,,,,,,11,,,,78,108
178320,note_on,160,0,1,,,,,,,,0,,,,76,92
178320,note_on,40,0,20,,,,,,,,13,,,,66,92
178320,note_on,160,0,15,,,,,,,,7,,,,57,92
178320,note_on,160,0,11,,,,,,,,6,,,,76,92
178320,note_on,160,0,22,,,,,,,,15,,,,37,92
178320,note_on,160,0,3,,,,,,,,2,,,,76,92
178400,note_off,80,0,3,,,,,,,,2,,,,76,64
178400,note_off,80,0,21,,,,,,,,14,,,,49,64
178400,note_off,80,0,22,,,,,,,,15,,,,37,64
178400,note_off,80,0,15,,,,,,,,7,,,,57,64
178400,note_off,80,0,16,,,,,,,,8,,,,45,64
178400,note_off,80,0,1,,,,,,,,0,,,,76,64
178400,note_off,80,0,9,,,,,,,,5,,,,64,64
178400,note_off,80,0,8,,,,,,,,4,,,,45,64
178400,note_off,80,0,11,,,,,,,,6,,,,76,64
178400,note_off,80,0,17,,,,,,,,10,,,,45,64
178400,note_off,80,0,20,,,,,,,,13,,,,66,64
178400,note_off,80,0,7,,,,,,,,4,,,,49,64
178400,note_off,80,0,18,,,,,,,,11,,,,78,64
178440,note_on,40,0,20,,,,,,,,13,,,,64,92
178440,note_on,40,0,18,,,,,,,,11,,,,76,108
178480,note_off,400,0,13,,,,,,,,7,,,,64,64
178480,note_off,400,0,12,,,,,,,,6,,,,76,64
178520,note_off,80,0,18,,,,,,,,11,,,,76,64
178520,note_off,80,0,20,,,,,,,,13,,,,64,64
178560,note_on,160,0,7,,,,,,,,4,,,,61,92
178560,note_on,40,0,20,,,,,,,,13,,,,69,92
178560,note_on,160,0,3,,,,,,,,2,,,,81,92
178560,note_on,160,0,15,,,,,,,,7,,,,57,92
178560,note_on,160,0,9,,,,,,,,5,,,,69,92
178560,note_on,160,0,11,,,,,,,,6,,,,81,92
178560,note_on,160,0,8,,,,,,,,4,,,,45,92
178560,note_on,160,0,17,,,,,,,,10,,,,45,92
178560,note_on,160,0,16,,,,,,,,8,,,,45,92
178560,note_on,160,0,21,,,,,,,,14,,,,61,92
178560,note_on,80,0,12,,,,,,,,6,,,,76,92
178560,note_on,160,0,1,,,,,,,,0,,,,81,92
178560,note_on,80,0,13,,,,,,,,7,,,,64,92
178560,note_on,40,0,18,,,,,,,,11,,,,81,108
178560,note_on,160,0,22,,,,,,,,15,,,,49,92
178640,note_off,80,0,22,,,,,,,,15,,,,49,64
178640,note_off,80,0,21,,,,,,,,14,,,,61,64
178640,note_off,80,0,8,,,,,,,,4,,,,45,64
178640,note_off,80,0,20,,,,,,,,13,,,,69,64
178640,note_off,80,0,17,,,,,,,,10,,,,45,64
178640,note_off,80,0,18,,,,,,,,11,,,,81,64
178640,note_off,80,0,16,,,,,,,,8,,,,45,64
178640,note_off,80,0,15,,,,,,,,7,,,,57,64
178640,note_off,80,0,7,,,,,,,,4,,,,61,64
178680,note_on,40,0,18,,,,,,,,11,,,,79,108
178680,note_on,40,0,20,,,,,,,,13,,,,67,92
178720,note_off,640,0,10,,,,,,,,5,,,,64,64
178720,note_off,640,0,14,,,,,,,,7,,,,64,64
178720,note_off,640,0,6,,,,,,,,3,,,,73,64
178720,note_off,640,0,19,,,,,,,,12,,,,76,64
178720,note_off,640,0,2,,,,,,,,0,,,,76,64
178720,note_off,640,0,4,,,,,,,,2,,,,76,64
178720,note_off,640,0,5,,,,,,,,3,,,,76,64
178760,note_off,80,0,18,,,,,,,,11,,,,79,64
178760,note_off,80,0,20,,,,,,,,13,,,,67,64
178800,note_on,80,0,10,,,,,,,,5,,,,64,92
178800,note_on,160,0,16,,,,,,,,8,,,,45,92
178800,note_on,160,0,21,,,,,,,,14,,,,49,92
178800,note_on,160,0,7,,,,,,,,4,,,,49,92
178800,note_on,160,0,17,,,,,,,,10,,,,45,92
178800,note_on,80,0,14,,,,,,,,7,,,,64,92
178800,note_on,80,0,2,,,,,,,,0,,,,76,92
178800,note_on,40,0,20,,,,,,,,13,,,,66,92
178800,note_on,160,0,15,,,,,,,,7,,,,57,92
178800,note_on,80,0,6,,,,,,,,3,,,,73,92
178800,note_on,160,0,8,,,,,,,,4,,,,45,92
178800,note_on,80,0,19,,,,,,,,12,,,,76,92
178800,note_on,40,0,18,,,,,,,,11,,,,78,108
178800,note_on,80,0,5,,,,,,,,3,,,,76,92
178800,note_on,160,0,22,,,,,,,,15,,,,37,92
178800,note_on,80,0,4,,,,,,,,2,,,,76,92
178880,note_off,80,0,2,,,,,,,,0,,,,76,64
178880,note_off,80,0,14,,,,,,,,7,,,,64,64
178880,note_off,80,0,4,,,,,,,,2,,,,76,64
178880,note_off,80,0,22,,,,,,,,15,,,,37,64
178880,note_off,80,0,6,,,,,,,,3,,,,73,64
178880,note_off,80,0,16,,,,,,,,8,,,,45,64
178880,note_off,80,0,7,,,,,,,,4,,,,49,64
178880,note_off,80,0,15,,,,,,,,7,,,,57,64
178880,note_off,80,0,20,,,,,,,,13,,,,66,64
178880,note_off,80,0,5,,,,,,,,3,,,,76,64
178880,note_off,80,0,19,,,,,,,,12,,,,76,64
178880,note_off,80,0,8,,,,,,,,4,,,,45,64
178880,note_off,80,0,18,,,,,,,,11,,,,78,64
178880,note_off,80,0,21,,,,,,,,14,,,,49,64
178880,note_off,80,0,17,,,,,,,,10,,,,45,64
178880,note_off,80,0,10,,,,,,,,5,,,,64,64
178920,note_on,40,0,18,,,,,,,,11,,,,76,108
178920,note_on,40,0,20,,,,,,,,13,,,,64,92
179000,note_off,80,0,18,,,,,,,,11,,,,76,64
179000,note_off,80,0,20,,,,,,,,13,,,,64,64
179040,note_on,40,0,18,,,,,,,,11,,,,78,108
179040,note_on,160,0,5,,,,,,,,3,,,,76,92
179040,note_on,160,0,14,,,,,,,,7,,,,57,92
179040,note_on,160,0,19,,,,,,,,12,,,,76,92
179040,note_on,160,0,16,,,,,,,,8,,,,45,92
179040,note_on,40,0,20,,,,,,,,13,,,,66,92
179040,note_on,160,0,8,,,,,,,,4,,,,45,92
179040,note_on,160,0,15,,,,,,,,7,,,,57,92
179040,note_on,160,0,10,,,,,,,,5,,,,64,92
179040,note_on,160,0,17,,,,,,,,10,,,,45,92
179040,note_on,160,0,7,,,,,,,,4,,,,61,92
179040,note_on,160,0,6,,,,,,,,3,,,,73,92
179040,note_on,160,0,2,,,,,,,,0,,,,76,92
179040,note_on,160,0,22,,,,,,,,15,,,,49,92
179040,note_on,160,0,4,,,,,,,,2,,,,76,92
179040,note_on,160,0,21,,,,,,,,14,,,,61,92
179120,note_off,80,0,17,,,,,,,,10,,,,45,64
179120,note_off,80,0,4,,,,,,,,2,,,,76,64
179120,note_off,80,0,7,,,,,,,,4,,,,61,64
179120,note_off,80,0,20,,,,,,,,13,,,,66,64
179120,note_off,80,0,8,,,,,,,,4,,,,45,64
179120,note_off,80,0,18,,,,,,,,11,,,,78,64
179120,note_off,80,0,21,,,,,,,,14,,,,61,64
179120,note_off,80,0,15,,,,,,,,7,,,,57,64
179120,note_off,80,0,14,,,,,,,,7,,,,57,64
179120,note_off,80,0,10,,,,,,,,5,,,,64,64
179120,note_off,80,0,2,,,,,,,,0,,,,76,64
179120,note_off,80,0,6,,,,,,,,3,,,,73,64
179120,note_off,80,0,19,,,,,,,,12,,,,76,64
179120,note_off,80,0,22,,,,,,,,15,,,,49,64
179120,note_off,80,0,16,,,,,,,,8,,,,45,64
179120,note_off,80,0,5,,,,,,,,3,,,,76,64
179160,note_on,40,0,18,,,,,,,,11,,,,76,108
179160,note_on,40,0,20,,,,,,,,13,,,,64,92
179200,note_off,640,0,1,,,,,,,,0,,,,81,64
179200,note_off,640,0,3,,,,,,,,2,,,,81,64
179200,note_off,640,0,9,,,,,,,,5,,,,69,64
179200,note_off,640,0,11,,,,,,,,6,,,,81,64
179200,note_off,640,0,13,,,,,,,,7,,,,64,64
179200,note_off,640,0,12,,,,,,,,6,,,,76,64
179240,note_off,80,0,18,,,,,,,,11,,,,76,64
179240,note_off,80,0,20,,,,,,,,13,,,,64,64
179280,note_on,160,0,22,,,,,,,,15,,,,47,92
179280,note_on,160,0,2,,,,,,,,0,,,,76,92
179280,note_on,80,0,11,,,,,,,,6,,,,81,92
179280,note_on,40,0,18,,,,,,,,11,,,,74,108
179280,note_on,160,0,8,,,,,,,,4,,,,45,92
179280,note_on,80,0,13,,,,,,,,7,,,,64,92
179280,note_on,160,0,17,,,,,,,,10,,,,45,92
179280,note_on,80,0,9,,,,,,,,5,,,,69,92
179280,note_on,80,0,1,,,,,,,,0,,,,81,92
179280,note_on,160,0,16,,,,,,,,8,,,,45,92
179280,note_on,160,0,4,,,,,,,,2,,,,76,92
179280,note_on,80,0,3,,,,,,,,2,,,,81,92
179280,note_on,160,0,14,,,,,,,,7,,,,57,92
179280,note_on,160,0,10,,,,,,,,5,,,,64,92
179280,note_on,160,0,15,,,,,,,,7,,,,57,92
179280,note_on,160,0,21,,,,,,,,14,,,,59,92
179280,note_on,160,0,7,,,,,,,,4,,,,59,92
179280,note_on,160,0,5,,,,,,,,3,,,,76,92
179280,note_on,160,0,19,,,,,,,,12,,,,76,92
179280,note_on,40,0,20,,,,,,,,13,,,,62,92
179280,note_on,160,0,6,,,,,,,,3,,,,73,92
179280,note_on,80,0,12,,,,,,,,6,,,,76,92
179360,note_off,80,0,21,,,,,,,,14,,,,59,64
179360,note_off,80,0,9,,,,,,,,5,,,,69,64
179360,note_off,80,0,20,,,,,,,,13,,,,62,64
179360,note_off,80,0,3,,,,,,,,2,,,,81,64
179360,note_off,80,0,2,,,,,,,,0,,,,76,64
179360,note_off,80,0,12,,,,,,,,6,,,,76,64
179360,note_off,80,0,15,,,,,,,,7,,,,57,64
179360,note_off,80,0,10,,,,,,,,5,,,,64,64
179360,note_off,80,0,13,,,,,,,,7,,,,64,64
179360,note_off,80,0,14,,,,,,,,7,,,,57,64
179360,note_off,80,0,8,,,,,,,,4,,,,45,64
179360,note_off,80,0,5,,,,,,,,3,,,,76,64
179360,note_off,80,0,1,,,,,,,,0,,,,81,64
179360,note_off,80,0,6,,,,,,,,3,,,,73,64
179360,note_off,80,0,17,,,,,,,,10,,,,45,64
179360,note_off,80,0,7,,,,,,,,4,,,,59,64
179360,note_off,80,0,19,,,,,,,,12,,,,76,64
179360,note_off,80,0,4,,,,,,,,2,,,,76,64
179360,note_off,80,0,16,,,,,,,,8,,,,45,64
179360,note_off,80,0,11,,,,,,,,6,,,,81,64
179360,note_off,80,0,18,,,,,,,,11,,,,74,64
179400,note_on,40,0,7,,,,,,,,4,,,,57,92
179400,note_on,40,0,20,,,,,,,,13,,,,61,92
179400,note_on,40,0,15,,,,,,,,7,,,,57,92
179400,note_on,40,0,21,,,,,,,,14,,,,57,92
179400,note_on,40,0,8,,,,,,,,4,,,,45,92
179400,note_on,40,0,17,,,,,,,,10,,,,45,92
179400,note_on,0,0,22,,,,,,,,15,,,,45,92
179400,note_on,40,0,16,,,,,,,,8,,,,45,92
179400,note_on,40,0,18,,,,,,,,11,,,,73,108
179400,note_off,120,0,22,,,,,,,,15,,,,47,64
179480,note_off,80,0,18,,,,,,,,11,,,,73,64
179480,note_off,80,0,21,,,,,,,,14,,,,57,64
179480,note_off,80,0,15,,,,,,,,7,,,,57,64
179480,note_off,80,0,17,,,,,,,,10,,,,45,64
179480,note_off,80,0,22,,,,,,,,15,,,,45,64
179480,note_off,80,0,16,,,,,,,,8,,,,45,64
179480,note_off,80,0,7,,,,,,,,4,,,,57,64
179480,note_off,80,0,20,,,,,,,,13,,,,61,64
179480,note_off,80,0,8,,,,,,,,4,,,,45,64
179520,note_on,160,0,5,,,,,,,,3,,,,74,92
179520,note_on,40,0,18,,,,,,,,11,,,,74,108
179520,note_on,40,0,17,,,,,,,,10,,,,50,92
179520,note_on,160,0,19,,,,,,,,12,,,,74,92
179520,note_on,40,0,16,,,,,,,,8,,,,38,92
179520,note_on,160,0,14,,,,,,,,7,,,,57,92
179520,note_on,160,0,10,,,,,,,,5,,,,62,92
179520,note_on,160,0,9,,,,,,,,5,,,,69,92
179520,note_on,160,0,4,,,,,,,,2,,,,74,92
179520,note_on,40,0,21,,,,,,,,14,,,,59,92
179520,note_on,40,0,8,,,,,,,,4,,,,38,92
179520,note_on,160,0,12,,,,,,,,6,,,,74,92
179520,note_on,40,0,20,,,,,,,,13,,,,62,92
179520,note_on,160,0,1,,,,,,,,0,,,,81,92
179520,note_on,40,0,22,,,,,,,,15,,,,47,92
179520,note_on,160,0,3,,,,,,,,2,,,,81,92
179520,note_on,40,0,15,,,,,,,,7,,,,50,92
179520,note_on,160,0,2,,,,,,,,0,,,,74,92
179520,note_on,160,0,13,,,,,,,,7,,,,62,92
179520,note_on,160,0,11,,,,,,,,6,,,,81,92
179520,note_on,160,0,6,,,,,,,,3,,,,71,92
179520,note_on,40,0,7,,,,,,,,4,,,,59,92
179600,note_off,80,0,19,,,,,,,,12,,,,74,64
179600,note_off,80,0,3,,,,,,,,2,,,,81,64
179600,note_off,80,0,20,,,,,,,,13,,,,62,64
179600,note_off,80,0,5,,,,,,,,3,,,,74,64
179600,note_off,80,0,16,,,,,,,,8,,,,38,64
179600,note_off,80,0,14,,,,,,,,7,,,,57,64
179600,note_off,80,0,12,,,,,,,,6,,,,74,64
179600,note_off,80,0,13,,,,,,,,7,,,,62,64
179600,note_off,80,0,6,,,,,,,,3,,,,71,64
179600,note_off,80,0,4,,,,,,,,2,,,,74,64
179600,note_off,80,0,7,,,,,,,,4,,,,59,64
179600,note_off,80,0,9,,,,,,,,5,,,,69,64
179600,note_off,80,0,21,,,,,,,,14,,,,59,64
179600,note_off,80,0,8,,,,,,,,4,,,,38,64
179600,note_off,80,0,15,,,,,,,,7,,,,50,64
179600,note_off,80,0,10,,,,,,,,5,,,,62,64
179600,note_off,80,0,2,,,,,,,,0,,,,74,64
179600,note_off,80,0,17,,,,,,,,10,,,,50,64
179600,note_off,80,0,22,,,,,,,,15,,,,47,64
179600,note_off,80,0,11,,,,,,,,6,,,,81,64
179600,note_off,80,0,18,,,,,,,,11,,,,74,64
179600,note_off,80,0,1,,,,,,,,0,,,,81,64
179640,note_on,40,0,18,,,,,,,,11,,,,78,108
179640,note_on,40,0,20,,,,,,,,13,,,,66,92
179720,note_off,80,0,18,,,,,,,,11,,,,78,64
179720,note_off,80,0,20,,,,,,,,13,,,,66,64
179760,note_on,160,0,1,,,,,,,,0,,,,74,92
179760,note_on,160,0,22,,,,,,,,15,,,,35,92
179760,note_on,160,0,2,,,,,,,,0,,,,78,92
179760,note_on,160,0,21,,,,,,,,14,,,,47,92
179760,note_on,40,0,20,,,,,,,,13,,,,64,92
179760,note_on,160,0,6,,,,,,,,3,,,,74,92
179760,note_on,160,0,11,,,,,,,,6,,,,74,92
179760,note_on,160,0,12,,,,,,,,6,,,,78,92
179760,note_on,160,0,15,,,,,,,,7,,,,50,92
179760,note_on,160,0,8,,,,,,,,4,,,,38,92
179760,note_on,160,0,9,,,,,,,,5,,,,62,92
179760,note_on,160,0,7,,,,,,,,4,,,,47,92
179760,note_on,160,0,4,,,,,,,,2,,,,78,92
179760,note_on,40,0,18,,,,,,,,11,,,,76,108
179760,note_on,160,0,13,,,,,,,,7,,,,66,92
179760,note_on,160,0,3,,,,,,,,2,,,,74,92
179760,note_on,160,0,17,,,,,,,,10,,,,50,92
179760,note_on,160,0,19,,,,,,,,12,,,,78,92
179760,note_on,160,0,16,,,,,,,,8,,,,38,92
179760,note_on,160,0,5,,,,,,,,3,,,,78,92
179760,note_on,160,0,14,,,,,,,,7,,,,54,92
179760,note_on,160,0,10,,,,,,,,5,,,,66,92
179840,note_off,80,0,6,,,,,,,,3,,,,74,64
179840,note_off,80,0,7,,,,,,,,4,,,,47,64
179840,note_off,80,0,17,,,,,,,,10,,,,50,64
179840,note_off,80,0,18,,,,,,,,11,,,,76,64
179840,note_off,80,0,12,,,,,,,,6,,,,78,64
179840,note_off,80,0,3,,,,,,,,2,,,,74,64
179840,note_off,80,0,10,,,,,,,,5,,,,66,64
179840,note_off,80,0,16,,,,,,,,8,,,,38,64
179840,note_off,80,0,5,,,,,,,,3,,,,78,64
179840,note_off,80,0,8,,,,,,,,4,,,,38,64
179840,note_off,80,0,11,,,,,,,,6,,,,74,64
179840,note_off,80,0,13,,,,,,,,7,,,,66,64
179840,note_off,80,0,21,,,,,,,,14,,,,47,64
179840,note_off,80,0,15,,,,,,,,7,,,,50,64
179840,note_off,80,0,2,,,,,,,,0,,,,78,64
179840,note_off,80,0,1,,,,,,,,0,,,,74,64
179840,note_off,80,0,9,,,,,,,,5,,,,62,64
179840,note_off,80,0,4,,,,,,,,2,,,,78,64
179840,note_off,80,0,14,,,,,,,,7,,,,54,64
179840,note_off,80,0,22,,,,,,,,15,,,,35,64
179840,note_off,80,0,20,,,,,,,,13,,,,64,64
179840,note_off,80,0,19,,,,,,,,12,,,,78,64
179880,note_on,40,0,18,,,,,,,,11,,,,74,108
179880,note_on,40,0,20,,,,,,,,13,,,,62,92
179960,note_off,80,0,20,,,,,,,,13,,,,62,64
179960,note_off,80,0,18,,,,,,,,11,,,,74,64
180000,note_on,160,0,9,,,,,,,,5,,,,67,92
180000,note_on,40,0,18,,,,,,,,11,,,,79,108
180000,note_on,160,0,4,,,,,,,,2,,,,79,92
180000,note_on,160,0,12,,,,,,,,6,,,,74,92
180000,note_on,160,0,7,,,,,,,,4,,,,59,92
180000,note_on,160,0,13,,,,,,,,7,,,,67,92
180000,note_on,160,0,2,,,,,,,,0,,,,79,92
180000,note_on,160,0,11,,,,,,,,6,,,,79,92
180000,note_on,160,0,5,,,,,,,,3,,,,79,92
180000,note_on,160,0,17,,,,,,,,10,,,,50,92
180000,note_on,160,0,3,,,,,,,,2,,,,79,92
180000,note_on,160,0,8,,,,,,,,4,,,,38,92
180000,note_on,160,0,19,,,,,,,,12,,,,79,92
180000,note_on,160,0,22,,,,,,,,15,,,,47,92
180000,note_on,40,0,20,,,,,,,,13,,,,67,92
180000,note_on,160,0,15,,,,,,,,7,,,,50,92
180000,note_on,160,0,1,,,,,,,,0,,,,79,92
180000,note_on,160,0,6,,,,,,,,3,,,,76,92
180000,note_on,160,0,16,,,,,,,,8,,,,38,92
180000,note_on,160,0,21,,,,,,,,14,,,,59,92
180000,note_on,160,0,10,,,,,,,,5,,,,62,92
180000,note_on,160,0,14,,,,,,,,7,,,,62,92
180080,note_off,80,0,18,,,,,,,,11,,,,79,64
180080,note_off,80,0,16,,,,,,,,8,,,,38,64
180080,note_off,80,0,7,,,,,,,,4,,,,59,64
180080,note_off,80,0,17,,,,,,,,10,,,,50,64
180080,note_off,80,0,8,,,,,,,,4,,,,38,64
180080,note_off,80,0,21,,,,,,,,14,,,,59,64
180080,note_off,80,0,22,,,,,,,,15,,,,47,64
180080,note_off,80,0,20,,,,,,,,13,,,,67,64
180080,note_off,80,0,15,,,,,,,,7,,,,50,64
180120,note_on,40,0,18,,,,,,,,11,,,,78,108
180120,note_on,40,0,20,,,,,,,,13,,,,66,92
180200,note_off,80,0,18,,,,,,,,11,,,,78,64
180200,note_off,80,0,20,,,,,,,,13,,,,66,64
180240,note_on,40,0,20,,,,,,,,13,,,,64,92
180240,note_on,160,0,22,,,,,,,,15,,,,35,92
180240,note_on,160,0,21,,,,,,,,14,,,,47,92
180240,note_on,160,0,8,,,,,,,,4,,,,38,92
180240,note_on,160,0,17,,,,,,,,10,,,,50,92
180240,note_on,160,0,15,,,,,,,,7,,,,50,92
180240,note_on,160,0,7,,,,,,,,4,,,,47,92
180240,note_on,40,0,18,,,,,,,,11,,,,76,108
180240,note_on,160,0,16,,,,,,,,8,,,,38,92
180320,note_off,80,0,17,,,,,,,,10,,,,50,64
180320,note_off,80,0,7,,,,,,,,4,,,,47,64
180320,note_off,80,0,21,,,,,,,,14,,,,47,64
180320,note_off,80,0,8,,,,,,,,4,,,,38,64
180320,note_off,80,0,18,,,,,,,,11,,,,76,64
180320,note_off,80,0,15,,,,,,,,7,,,,50,64
180320,note_off,80,0,20,,,,,,,,13,,,,64,64
180320,note_off,80,0,22,,,,,,,,15,,,,35,64
180320,note_off,80,0,16,,,,,,,,8,,,,38,64
180360,note_on,40,0,18,,,,,,,,11,,,,74,108
180360,note_on,40,0,20,,,,,,,,13,,,,62,92
180440,note_off,80,0,20,,,,,,,,13,,,,62,64
180440,note_off,80,0,18,,,,,,,,11,,,,74,64
180480,note_on,40,0,18,,,,,,,,11,,,,76,108
180480,note_on,160,0,15,,,,,,,,7,,,,50,92
180480,note_on,160,0,22,,,,,,,,15,,,,47,92
180480,note_on,160,0,7,,,,,,,,4,,,,59,92
180480,note_on,160,0,21,,,,,,,,14,,,,59,92
180480,note_on,40,0,20,,,,,,,,13,,,,64,92
180480,note_on,160,0,8,,,,,,,,4,,,,38,92
180480,note_on,160,0,16,,,,,,,,8,,,,38,92
180480,note_on,160,0,17,,,,,,,,10,,,,50,92
180560,note_off,80,0,21,,,,,,,,14,,,,59,64
180560,note_off,80,0,7,,,,,,,,4,,,,59,64
180560,note_off,80,0,8,,,,,,,,4,,,,38,64
180560,note_off,80,0,18,,,,,,,,11,,,,76,64
180560,note_off,80,0,22,,,,,,,,15,,,,47,64
180560,note_off,80,0,15,,,,,,,,7,,,,50,64
180560,note_off,80,0,16,,,,,,,,8,,,,38,64
180560,note_off,80,0,17,,,,,,,,10,,,,50,64
180560,note_off,80,0,20,,,,,,,,13,,,,64,64
180600,note_on,40,0,18,,,,,,,,11,,,,74,108
180600,note_on,40,0,20,,,,,,,,13,,,,62,92
180640,note_off,640,0,19,,,,,,,,12,,,,79,64
180680,note_off,80,0,20,,,,,,,,13,,,,62,64
180680,note_off,80,0,18,,,,,,,,11,,,,74,64
180720,note_off,720,0,11,,,,,,,,6,,,,79,64
180720,note_on,0,0,11,,,,,,,,6,,,,79,92
180720,note_off,720,0,4,,,,,,,,2,,,,79,64
180720,note_on,0,0,3,,,,,,,,2,,,,79,92
180720,note_off,720,0,1,,,,,,,,0,,,,79,64
180720,note_off,720,0,3,,,,,,,,2,,,,79,64
180720,note_on,160,0,21,,,,,,,,14,,,,57,92
180720,note_off,720,0,10,,,,,,,,5,,,,62,64
180720,note_off,720,0,5,,,,,,,,3,,,,79,64
180720,note_on,0,0,4,,,,,,,,2,,,,78,92
180720,note_on,80,0,19,,,,,,,,12,,,,78,92
180720,note_on,0,0,6,,,,,,,,3,,,,74,92
180720,note_on,160,0,17,,,,,,,,10,,,,50,92
180720,note_on,40,0,20,,,,,,,,13,,,,61,92
180720,note_on,0,0,1,,,,,,,,0,,,,79,92
180720,note_on,0,0,5,,,,,,,,3,,,,79,92
180720,note_off,720,0,6,,,,,,,,3,,,,76,64
180720,note_on,160,0,22,,,,,,,,15,,,,45,92
180720,note_off,720,0,9,,,,,,,,5,,,,67,64
180720,note_off,720,0,2,,,,,,,,0,,,,79,64
180720,note_on,160,0,16,,,,,,,,8,,,,38,92
180720,note_on,0,0,9,,,,,,,,5,,,,67,92
180720,note_on,160,0,8,,,,,,,,4,,,,38,92
180720,note_on,160,0,15,,,,,,,,7,,,,50,92
180720,note_on,40,0,18,,,,,,,,11,,,,73,108
180720,note_off,720,0,14,,,,,,,,7,,,,62,64
180720,note_on,0,0,13,,,,,,,,7,,,,67,92
180720,note_on,0,0,12,,,,,,,,6,,,,78,92
180720,note_on,0,0,14,,,,,,,,7,,,,50,92
180720,note_on,160,0,7,,,,,,,,4,,,,57,92
180720,note_on,0,0,2,,,,,,,,0,,,,78,92
180720,note_on,0,0,10,,,,,,,,5,,,,66,92
180720,note_off,720,0,12,,,,,,,,6,,,,74,64
180720,note_off,720,0,13,,,,,,,,7,,,,67,64
180800,note_off,80,0,7,,,,,,,,4,,,,57,64
180800,note_off,80,0,17,,,,,,,,10,,,,50,64
180800,note_off,80,0,18,,,,,,,,11,,,,73,64
180800,note_off,80,0,15,,,,,,,,7,,,,50,64
180800,note_off,80,0,19,,,,,,,,12,,,,78,64
180800,note_off,80,0,16,,,,,,,,8,,,,38,64
180800,note_off,80,0,4,,,,,,,,2,,,,78,64
180800,note_off,80,0,20,,,,,,,,13,,,,61,64
180800,note_off,80,0,21,,,,,,,,14,,,,57,64
180800,note_off,80,0,8,,,,,,,,4,,,,38,64
180840,note_on,40,0,8,,,,,,,,4,,,,38,92
180840,note_on,0,0,22,,,,,,,,15,,,,43,92
180840,note_off,120,0,22,,,,,,,,15,,,,45,64
180840,note_on,40,0,20,,,,,,,,13,,,,59,92
180840,note_on,40,0,18,,,,,,,,11,,,,71,108
180840,note_on,40,0,17,,,,,,,,10,,,,50,92
180840,note_on,40,0,7,,,,,,,,4,,,,55,92
180840,note_on,40,0,16,,,,,,,,8,,,,38,92
180840,note_on,40,0,21,,,,,,,,14,,,,55,92
180840,note_on,40,0,15,,,,,,,,7,,,,50,92
180920,note_off,80,0,16,,,,,,,,8,,,,38,64
180920,note_off,80,0,15,,,,,,,,7,,,,50,64
180920,note_off,80,0,20,,,,,,,,13,,,,59,64
180920,note_off,80,0,17,,,,,,,,10,,,,50,64
180920,note_off,80,0,18,,,,,,,,11,,,,71,64
180920,note_off,80,0,21,,,,,,,,14,,,,55,64
180920,note_off,80,0,7,,,,,,,,4,,,,55,64
180920,note_off,80,0,22,,,,,,,,15,,,,43,64
180920,note_off,80,0,8,,,,,,,,4,,,,38,64
180955,note_off,235,0,13,,,,,,,,7,,,,67,64
180955,note_off,235,0,3,,,,,,,,2,,,,79,64
180955,note_off,235,0,11,,,,,,,,6,,,,79,64
180955,note_off,235,0,12,,,,,,,,6,,,,78,64
180955,note_off,235,0,14,,,,,,,,7,,,,50,64
180955,note_off,235,0,2,,,,,,,,0,,,,78,64
180955,note_off,235,0,9,,,,,,,,5,,,,67,64
180955,note_off,235,0,6,,,,,,,,3,,,,74,64
180955,note_off,235,0,10,,,,,,,,5,,,,66,64
180955,note_off,235,0,1,,,,,,,,0,,,,79,64
180955,note_off,235,0,5,,,,,,,,3,,,,79,64
180960,note_on,5,0,11,,,,,,,,6,,,,69,92
180960,note_on,5,0,5,,,,,,,,3,,,,76,92
180960,note_on,5,0,3,,,,,,,,2,,,,69,92
180960,note_on,40,0,7,,,,,,,,4,,,,57,92
180960,note_on,40,0,17,,,,,,,,10,,,,45,92
180960,note_on,40,0,8,,,,,,,,4,,,,45,92
180960,note_on,5,0,13,,,,,,,,7,,,,64,92
180960,note_on,160,0,19,,,,,,,,12,,,,76,92
180960,note_on,5,0,10,,,,,,,,5,,,,64,92
180960,note_on,5,0,2,,,,,,,,0,,,,76,92
180960,note_on,40,0,16,,,,,,,,8,,,,45,92
180960,note_on,40,0,20,,,,,,,,13,,,,61,92
180960,note_on,5,0,1,,,,,,,,0,,,,69,92
180960,note_on,5,0,6,,,,,,,,3,,,,73,92
180960,note_on,5,0,14,,,,,,,,7,,,,57,92
180960,note_on,40,0,22,,,,,,,,15,,,,45,92
180960,note_on,40,0,15,,,,,,,,7,,,,57,92
180960,note_on,160,0,4,,,,,,,,2,,,,76,92
180960,note_on,5,0,9,,,,,,,,5,,,,57,92
180960,note_on,5,0,12,,,,,,,,6,,,,76,92
180960,note_on,40,0,18,,,,,,,,11,,,,73,108
180960,note_on,40,0,21,,,,,,,,14,,,,57,92
181040,note_off,80,0,8,,,,,,,,4,,,,45,64
181040,note_off,80,0,21,,,,,,,,14,,,,57,64
181040,note_off,80,0,17,,,,,,,,10,,,,45,64
181040,note_off,80,0,18,,,,,,,,11,,,,73,64
181040,note_off,80,0,7,,,,,,,,4,,,,57,64
181040,note_off,80,0,15,,,,,,,,7,,,,57,64
181040,note_off,80,0,11,,,,,,,,6,,,,69,64
181040,note_off,80,0,20,,,,,,,,13,,,,61,64
181040,note_off,80,0,3,,,,,,,,2,,,,69,64
181040,note_off,80,0,16,,,,,,,,8,,,,45,64
181040,note_off,80,0,1,,,,,,,,0,,,,69,64
181040,note_off,80,0,22,,,,,,,,15,,,,45,64
181080,note_on,40,0,18,,,,,,,,11,,,,69,108
181080,note_on,40,0,20,,,,,,,,13,,,,57,92
181160,note_off,80,0,20,,,,,,,,13,,,,57,64
181160,note_off,80,0,18,,,,,,,,11,,,,69,64
181200,note_on,160,0,16,,,,,,,,8,,,,45,92
181200,note_on,160,0,8,,,,,,,,4,,,,45,92
181200,note_on,160,0,15,,,,,,,,7,,,,57,92
181200,note_on,160,0,3,,,,,,,,2,,,,69,92
181200,note_on,160,0,11,,,,,,,,6,,,,69,92
181200,note_on,160,0,17,,,,,,,,10,,,,45,92
181200,note_on,160,0,1,,,,,,,,0,,,,69,92
181200,note_on,160,0,21,,,,,,,,14,,,,45,92
181200,note_on,160,0,7,,,,,,,,4,,,,45,92
181200,note_on,40,0,18,,,,,,,,11,,,,71,108
181200,note_on,40,0,20,,,,,,,,13,,,,59,92
181200,note_on,160,0,22,,,,,,,,15,,,,33,92
181280,note_off,80,0,16,,,,,,,,8,,,,45,64
181280,note_off,80,0,18,,,,,,,,11,,,,71,64
181280,note_off,80,0,3,,,,,,,,2,,,,69,64
181280,note_off,80,0,7,,,,,,,,4,,,,45,64
181280,note_off,80,0,8,,,,,,,,4,,,,45,64
181280,note_off,80,0,1,,,,,,,,0,,,,69,64
181280,note_off,80,0,11,,,,,,,,6,,,,69,64
181280,note_off,80,0,17,,,,,,,,10,,,,45,64
181280,note_off,80,0,21,,,,,,,,14,,,,45,64
181280,note_off,80,0,20,,,,,,,,13,,,,59,64
181280,note_off,80,0,22,,,,,,,,15,,,,33,64
181280,note_off,80,0,15,,,,,,,,7,,,,57,64
181320,note_on,40,0,18,,,,,,,,11,,,,73,108
181320,note_on,40,0,20,,,,,,,,13,,,,61,92
181400,note_off,80,0,20,,,,,,,,13,,,,61,64
181400,note_off,80,0,18,,,,,,,,11,,,,73,64
181440,note_on,160,0,16,,,,,,,,8,,,,45,92
181440,note_on,40,0,20,,,,,,,,13,,,,62,92
181440,note_on,160,0,22,,,,,,,,15,,,,33,92
181440,note_on,160,0,1,,,,,,,,0,,,,69,92
181440,note_on,160,0,3,,,,,,,,2,,,,69,92
181440,note_on,160,0,7,,,,,,,,4,,,,45,92
181440,note_on,160,0,15,,,,,,,,7,,,,57,92
181440,note_on,160,0,21,,,,,,,,14,,,,45,92
181440,note_on,160,0,17,,,,,,,,10,,,,45,92
181440,note_on,160,0,8,,,,,,,,4,,,,45,92
181440,note_on,40,0,18,,,,,,,,11,,,,74,108
181440,note_on,160,0,11,,,,,,,,6,,,,69,92
181520,note_off,80,0,20,,,,,,,,13,,,,62,64
181520,note_off,80,0,8,,,,,,,,4,,,,45,64
181520,note_off,80,0,15,,,,,,,,7,,,,57,64
181520,note_off,80,0,7,,,,,,,,4,,,,45,64
181520,note_off,80,0,3,,,,,,,,2,,,,69,64
181520,note_off,80,0,1,,,,,,,,0,,,,69,64
181520,note_off,80,0,21,,,,,,,,14,,,,45,64
181520,note_off,80,0,16,,,,,,,,8,,,,45,64
181520,note_off,80,0,17,,,,,,,,10,,,,45,64
181520,note_off,80,0,22,,,,,,,,15,,,,33,64
181520,note_off,80,0,18,,,,,,,,11,,,,74,64
181520,note_off,80,0,11,,,,,,,,6,,,,69,64
181560,note_on,40,0,18,,,,,,,,11,,,,76,108
181560,note_on,40,0,20,,,,,,,,13,,,,64,92
181600,note_off,640,0,10,,,,,,,,5,,,,64,64
181600,note_off,640,0,4,,,,,,,,2,,,,76,64
181600,note_off,640,0,2,,,,,,,,0,,,,76,64
181600,note_off,640,0,12,,,,,,,,6,,,,76,64
181600,note_off,640,0,14,,,,,,,,7,,,,57,64
181600,note_off,640,0,6,,,,,,,,3,,,,73,64
181600,note_off,640,0,5,,,,,,,,3,,,,76,64
181600,note_off,640,0,19,,,,,,,,12,,,,76,64
181600,note_off,640,0,9,,,,,,,,5,,,,57,64
181600,note_off,640,0,13,,,,,,,,7,,,,64,64
181640,note_off,80,0,18,,,,,,,,11,,,,76,64
181640,note_off,80,0,20,,,,,,,,13,,,,64,64
181680,note_on,160,0,8,,,,,,,,4,,,,45,92
181680,note_on,160,0,3,,,,,,,,2,,,,76,92
181680,note_on,40,0,18,,,,,,,,11,,,,78,108
181680,note_on,80,0,10,,,,,,,,5,,,,57,92
181680,note_on,160,0,22,,,,,,,,15,,,,45,92
181680,note_on,80,0,19,,,,,,,,12,,,,69,92
181680,note_on,160,0,17,,,,,,,,10,,,,45,92
181680,note_on,80,0,4,,,,,,,,2,,,,69,92
181680,note_on,160,0,1,,,,,,,,0,,,,76,92
181680,note_on,80,0,14,,,,,,,,7,,,,52,92
181680,note_on,80,0,6,,,,,,,,3,,,,64,92
181680,note_on,80,0,13,,,,,,,,7,,,,57,92
181680,note_on,160,0,21,,,,,,,,14,,,,57,92
181680,note_on,160,0,16,,,,,,,,8,,,,45,92
181680,note_on,160,0,15,,,,,,,,7,,,,57,92
181680,note_on,80,0,9,,,,,,,,5,,,,64,92
181680,note_on,160,0,7,,,,,,,,4,,,,57,92
181680,note_on,80,0,5,,,,,,,,3,,,,69,92
181680,note_on,160,0,11,,,,,,,,6,,,,76,92
181680,note_on,40,0,20,,,,,,,,13,,,,66,92
181680,note_on,80,0,2,,,,,,,,0,,,,69,92
181680,note_on,80,0,12,,,,,,,,6,,,,69,92
181760,note_off,80,0,16,,,,,,,,8,,,,45,64
181760,note_off,80,0,17,,,,,,,,10,,,,45,64
181760,note_off,80,0,15,,,,,,,,7,,,,57,64
181760,note_off,80,0,1,,,,,,,,0,,,,76,64
181760,note_off,80,0,14,,,,,,,,7,,,,52,64
181760,note_off,80,0,4,,,,,,,,2,,,,69,64
181760,note_off,80,0,9,,,,,,,,5,,,,64,64
181760,note_off,80,0,18,,,,,,,,11,,,,78,64
181760,note_off,80,0,8,,,,,,,,4,,,,45,64
181760,note_off,80,0,21,,,,,,,,14,,,,57,64
181760,note_off,80,0,12,,,,,,,,6,,,,69,64
181760,note_off,80,0,6,,,,,,,,3,,,,64,64
181760,note_off,80,0,22,,,,,,,,15,,,,45,64
181760,note_off,80,0,19,,,,,,,,12,,,,69,64
181760,note_off,80,0,20,,,,,,,,13,,,,66,64
181760,note_off,80,0,13,,,,,,,,7,,,,57,64
181760,note_off,80,0,7,,,,,,,,4,,,,57,64
181760,note_off,80,0,2,,,,,,,,0,,,,69,64
181760,note_off,80,0,3,,,,,,,,2,,,,76,64
181760,note_off,80,0,11,,,,,,,,6,,,,76,64
181760,note_off,80,0,5,,,,,,,,3,,,,69,64
181760,note_off,80,0,10,,,,,,,,5,,,,57,64
181800,note_on,40,0,18,,,,,,,,11,,,,79,108
181800,note_on,40,0,20,,,,,,,,13,,,,67,92
181880,note_off,80,0,18,,,,,,,,11,,,,79,64
181880,note_off,80,0,20,,,,,,,,13,,,,67,64
181920,note_on,160,0,8,,,,,,,,4,,,,45,92
181920,note_on,160,0,19,,,,,,,,12,,,,69,92
181920,note_on,160,0,5,,,,,,,,3,,,,69,92
181920,note_on,160,0,6,,,,,,,,3,,,,64,92
181920,note_on,160,0,13,,,,,,,,7,,,,57,92
181920,note_on,160,0,12,,,,,,,,6,,,,69,92
181920,note_on,160,0,9,,,,,,,,5,,,,64,92
181920,note_on,160,0,7,,,,,,,,4,,,,57,92
181920,note_on,160,0,15,,,,,,,,7,,,,57,92
181920,note_on,160,0,14,,,,,,,,7,,,,52,92
181920,note_on,160,0,2,,,,,,,,0,,,,69,92
181920,note_on,160,0,21,,,,,,,,14,,,,57,92
181920,note_on,160,0,11,,,,,,,,6,,,,76,92
181920,note_on,160,0,16,,,,,,,,8,,,,45,92
181920,note_on,40,0,20,,,,,,,,13,,,,69,92
181920,note_on,40,0,18,,,,,,,,11,,,,81,108
181920,note_on,160,0,17,,,,,,,,10,,,,45,92
181920,note_on,160,0,3,,,,,,,,2,,,,76,92
181920,note_on,160,0,10,,,,,,,,5,,,,57,92
181920,note_on,160,0,22,,,,,,,,15,,,,45,92
181920,note_on,160,0,1,,,,,,,,0,,,,76,92
181920,note_on,160,0,4,,,,,,,,2,,,,69,92
182000,note_off,80,0,18,,,,,,,,11,,,,81,64
182000,note_off,80,0,3,,,,,,,,2,,,,76,64
182000,note_off,80,0,15,,,,,,,,7,,,,57,64
182000,note_off,80,0,14,,,,,,,,7,,,,52,64
182000,note_off,80,0,9,,,,,,,,5,,,,64,64
182000,note_off,80,0,22,,,,,,,,15,,,,45,64
182000,note_off,80,0,12,,,,,,,,6,,,,69,64
182000,note_off,80,0,2,,,,,,,,0,,,,69,64
182000,note_off,80,0,10,,,,,,,,5,,,,57,64
182000,note_off,80,0,5,,,,,,,,3,,,,69,64
182000,note_off,80,0,16,,,,,,,,8,,,,45,64
182000,note_off,80,0,1,,,,,,,,0,,,,76,64
182000,note_off,80,0,4,,,,,,,,2,,,,69,64
182000,note_off,80,0,7,,,,,,,,4,,,,57,64
182000,note_off,80,0,20,,,,,,,,13,,,,69,64
182000,note_off,80,0,19,,,,,,,,12,,,,69,64
182000,note_off,80,0,8,,,,,,,,4,,,,45,64
182000,note_off,80,0,6,,,,,,,,3,,,,64,64
182000,note_off,80,0,11,,,,,,,,6,,,,76,64
182000,note_off,80,0,17,,,,,,,,10,,,,45,64
182000,note_off,80,0,13,,,,,,,,7,,,,57,64
182000,note_off,80,0,21,,,,,,,,14,,,,57,64
182040,note_on,40,0,20,,,,,,,,13,,,,67,92
182040,note_on,40,0,18,,,,,,,,11,,,,79,108
182120,note_off,80,0,20,,,,,,,,13,,,,67,64
182120,note_off,80,0,18,,,,,,,,11,,,,79,64
182160,note_on,160,0,15,,,,,,,,7,,,,57,92
182160,note_on,160,0,16,,,,,,,,8,,,,45,92
182160,note_on,40,0,20,,,,,,,,13,,,,66,92
182160,note_on,160,0,19,,,,,,,,12,,,,76,92
182160,note_on,160,0,4,,,,,,,,2,,,,76,92
182160,note_on,160,0,8,,,,,,,,4,,,,45,92
182160,note_on,160,0,7,,,,,,,,4,,,,45,92
182160,note_on,160,0,9,,,,,,,,5,,,,69,92
182160,note_on,160,0,11,,,,,,,,6,,,,81,92
182160,note_on,40,0,18,,,,,,,,11,,,,78,108
182160,note_on,160,0,1,,,,,,,,0,,,,81,92
182160,note_on,160,0,5,,,,,,,,3,,,,76,92
182160,note_on,160,0,10,,,,,,,,5,,,,64,92
182160,note_on,160,0,12,,,,,,,,6,,,,73,92
182160,note_on,160,0,14,,,,,,,,7,,,,57,92
182160,note_on,160,0,22,,,,,,,,15,,,,33,92
182160,note_on,160,0,2,,,,,,,,0,,,,76,92
182160,note_on,160,0,17,,,,,,,,10,,,,45,92
182160,note_on,160,0,6,,,,,,,,3,,,,73,92
182160,note_on,160,0,3,,,,,,,,2,,,,81,92
182160,note_on,160,0,21,,,,,,,,14,,,,45,92
182160,note_on,160,0,13,,,,,,,,7,,,,61,92
182240,note_off,80,0,11,,,,,,,,6,,,,81,64
182240,note_off,80,0,13,,,,,,,,7,,,,61,64
182240,note_off,80,0,2,,,,,,,,0,,,,76,64
182240,note_off,80,0,17,,,,,,,,10,,,,45,64
182240,note_off,80,0,6,,,,,,,,3,,,,73,64
182240,note_off,80,0,18,,,,,,,,11,,,,78,64
182240,note_off,80,0,14,,,,,,,,7,,,,57,64
182240,note_off,80,0,7,,,,,,,,4,,,,45,64
182240,note_off,80,0,19,,,,,,,,12,,,,76,64
182240,note_off,80,0,21,,,,,,,,14,,,,45,64
182240,note_off,80,0,10,,,,,,,,5,,,,64,64
182240,note_off,80,0,4,,,,,,,,2,,,,76,64
182240,note_off,80,0,15,,,,,,,,7,,,,57,64
182240,note_off,80,0,1,,,,,,,,0,,,,81,64
182240,note_off,80,0,20,,,,,,,,13,,,,66,64
182240,note_off,80,0,9,,,,,,,,5,,,,69,64
182240,note_off,80,0,3,,,,,,,,2,,,,81,64
182240,note_off,80,0,16,,,,,,,,8,,,,45,64
182240,note_off,80,0,8,,,,,,,,4,,,,45,64
182240,note_off,80,0,5,,,,,,,,3,,,,76,64
182240,note_off,80,0,22,,,,,,,,15,,,,33,64
182240,note_off,80,0,12,,,,,,,,6,,,,73,64
182280,note_on,40,0,18,,,,,,,,11,,,,76,108
182280,note_on,40,0,20,,,,,,,,13,,,,64,92
182360,note_off,80,0,18,,,,,,,,11,,,,76,64
182360,note_off,80,0,20,,,,,,,,13,,,,64,64
182400,note_on,40,0,20,,,,,,,,13,,,,66,92
182400,note_on,160,0,21,,,,,,,,14,,,,57,92
182400,note_on,160,0,11,,,,,,,,6,,,,81,92
182400,note_on,160,0,3,,,,,,,,2,,,,81,92
182400,note_on,160,0,14,,,,,,,,7,,,,62,92
182400,note_on,160,0,1,,,,,,,,0,,,,81,92
182400,note_on,160,0,4,,,,,,,,2,,,,74,92
182400,note_on,160,0,17,,,,,,,,10,,,,50,92
182400,note_on,40,0,18,,,,,,,,11,,,,78,108
182400,note_on,160,0,13,,,,,,,,7,,,,66,92
182400,note_on,160,0,22,,,,,,,,15,,,,45,92
182400,note_on,160,0,19,,,,,,,,12,,,,74,92
182400,note_on,160,0,15,,,,,,,,7,,,,50,92
182400,note_on,160,0,8,,,,,,,,4,,,,38,92
182400,note_on,160,0,12,,,,,,,,6,,,,78,92
182400,note_on,160,0,10,,,,,,,,5,,,,66,92
182400,note_on,160,0,9,,,,,,,,5,,,,69,92
182400,note_on,160,0,5,,,,,,,,3,,,,74,92
182400,note_on,160,0,7,,,,,,,,4,,,,57,92
182400,note_on,160,0,6,,,,,,,,3,,,,69,92
182400,note_on,160,0,2,,,,,,,,0,,,,74,92
182400,note_on,160,0,16,,,,,,,,8,,,,38,92
182480,note_off,80,0,22,,,,,,,,15,,,,45,64
182480,note_off,80,0,8,,,,,,,,4,,,,38,64
182480,note_off,80,0,16,,,,,,,,8,,,,38,64
182480,note_off,80,0,9,,,,,,,,5,,,,69,64
182480,note_off,80,0,13,,,,,,,,7,,,,66,64
182480,note_off,80,0,11,,,,,,,,6,,,,81,64
182480,note_off,80,0,20,,,,,,,,13,,,,66,64
182480,note_off,80,0,12,,,,,,,,6,,,,78,64
182480,note_off,80,0,17,,,,,,,,10,,,,50,64
182480,note_off,80,0,1,,,,,,,,0,,,,81,64
182480,note_off,80,0,21,,,,,,,,14,,,,57,64
182480,note_off,80,0,14,,,,,,,,7,,,,62,64
182480,note_off,80,0,7,,,,,,,,4,,,,57,64
182480,note_off,80,0,10,,,,,,,,5,,,,66,64
182480,note_off,80,0,15,,,,,,,,7,,,,50,64
182480,note_off,80,0,18,,,,,,,,11,,,,78,64
182480,note_off,80,0,3,,,,,,,,2,,,,81,64
182520,note_on,40,0,20,,,,,,,,13,,,,57,92
182520,note_on,40,0,18,,,,,,,,11,,,,69,108
182600,note_off,80,0,20,,,,,,,,13,,,,57,64
182600,note_off,80,0,18,,,,,,,,11,,,,69,64
182640,note_on,160,0,11,,,,,,,,6,,,,78,92
182640,note_on,40,0,20,,,,,,,,13,,,,59,92
182640,note_on,160,0,9,,,,,,,,5,,,,66,92
182640,note_on,160,0,13,,,,,,,,7,,,,62,92
182640,note_on,160,0,21,,,,,,,,14,,,,45,92
182640,note_on,160,0,7,,,,,,,,4,,,,45,92
182640,note_on,160,0,8,,,,,,,,4,,,,38,92
182640,note_on,160,0,15,,,,,,,,7,,,,50,92
182640,note_on,160,0,17,,,,,,,,10,,,,50,92
182640,note_on,160,0,12,,,,,,,,6,,,,74,92
182640,note_on,160,0,14,,,,,,,,7,,,,57,92
182640,note_on,40,0,18,,,,,,,,11,,,,71,108
182640,note_on,160,0,10,,,,,,,,5,,,,62,92
182640,note_on,160,0,22,,,,,,,,15,,,,33,92
182640,note_on,160,0,1,,,,,,,,0,,,,78,92
182640,note_on,160,0,16,,,,,,,,8,,,,38,92
182640,note_on,160,0,3,,,,,,,,2,,,,78,92
182720,note_off,80,0,7,,,,,,,,4,,,,45,64
182720,note_off,80,0,3,,,,,,,,2,,,,78,64
182720,note_off,80,0,18,,,,,,,,11,,,,71,64
182720,note_off,80,0,9,,,,,,,,5,,,,66,64
182720,note_off,80,0,1,,,,,,,,0,,,,78,64
182720,note_off,80,0,13,,,,,,,,7,,,,62,64
182720,note_off,80,0,11,,,,,,,,6,,,,78,64
182720,note_off,80,0,8,,,,,,,,4,,,,38,64
182720,note_off,80,0,21,,,,,,,,14,,,,45,64
182720,note_off,80,0,22,,,,,,,,15,,,,33,64
182720,note_off,80,0,15,,,,,,,,7,,,,50,64
182720,note_off,80,0,10,,,,,,,,5,,,,62,64
182720,note_off,80,0,12,,,,,,,,6,,,,74,64
182720,note_off,80,0,20,,,,,,,,13,,,,59,64
182720,note_off,80,0,17,,,,,,,,10,,,,50,64
182720,note_off,80,0,16,,,,,,,,8,,,,38,64
182720,note_off,80,0,14,,,,,,,,7,,,,57,64
182760,note_on,40,0,20,,,,,,,,13,,,,61,92
182760,note_on,40,0,18,,,,,,,,11,,,,73,108
182840,note_off,80,0,18,,,,,,,,11,,,,73,64
182840,note_off,80,0,20,,,,,,,,13,,,,61,64
182880,note_on,40,0,18,,,,,,,,11,,,,74,108
182880,note_on,160,0,7,,,,,,,,4,,,,45,92
182880,note_on,160,0,10,,,,,,,,5,,,,62,92
182880,note_on,160,0,16,,,,,,,,8,,,,38,92
182880,note_on,160,0,15,,,,,,,,7,,,,50,92
182880,note_on,160,0,3,,,,,,,,2,,,,78,92
182880,note_on,160,0,8,,,,,,,,4,,,,38,92
182880,note_on,160,0,12,,,,,,,,6,,,,74,92
182880,note_on,160,0,21,,,,,,,,14,,,,45,92
182880,note_on,160,0,9,,,,,,,,5,,,,66,92
182880,note_on,160,0,14,,,,,,,,7,,,,57,92
182880,note_on,40,0,20,,,,,,,,13,,,,62,92
182880,note_on,160,0,1,,,,,,,,0,,,,78,92
182880,note_on,160,0,13,,,,,,,,7,,,,62,92
182880,note_on,160,0,17,,,,,,,,10,,,,50,92
182880,note_on,160,0,22,,,,,,,,15,,,,33,92
182880,note_on,160,0,11,,,,,,,,6,,,,78,92
182960,note_off,80,0,7,,,,,,,,4,,,,45,64
182960,note_off,80,0,12,,,,,,,,6,,,,74,64
182960,note_off,80,0,11,,,,,,,,6,,,,78,64
182960,note_off,80,0,16,,,,,,,,8,,,,38,64
182960,note_off,80,0,18,,,,,,,,11,,,,74,64
182960,note_off,80,0,17,,,,,,,,10,,,,50,64
182960,note_off,80,0,13,,,,,,,,7,,,,62,64
182960,note_off,80,0,10,,,,,,,,5,,,,62,64
182960,note_off,80,0,21,,,,,,,,14,,,,45,64
182960,note_off,80,0,9,,,,,,,,5,,,,66,64
182960,note_off,80,0,15,,,,,,,,7,,,,50,64
182960,note_off,80,0,14,,,,,,,,7,,,,57,64
182960,note_off,80,0,3,,,,,,,,2,,,,78,64
182960,note_off,80,0,22,,,,,,,,15,,,,33,64
182960,note_off,80,0,20,,,,,,,,13,,,,62,64
182960,note_off,80,0,8,,,,,,,,4,,,,38,64
182960,note_off,80,0,1,,,,,,,,0,,,,78,64
183000,note_on,40,0,20,,,,,,,,13,,,,64,92
183000,note_on,40,0,18,,,,,,,,11,,,,76,108
183040,note_off,640,0,4,,,,,,,,2,,,,74,64
183040,note_off,640,0,19,,,,,,,,12,,,,74,64
183040,note_off,640,0,6,,,,,,,,3,,,,69,64
183040,note_off,640,0,2,,,,,,,,0,,,,74,64
183040,note_off,640,0,5,,,,,,,,3,,,,74,64
183080,note_off,80,0,20,,,,,,,,13,,,,64,64
183080,note_off,80,0,18,,,,,,,,11,,,,76,64
183120,note_on,160,0,8,,,,,,,,4,,,,38,92
183120,note_on,40,0,20,,,,,,,,13,,,,66,92
183120,note_on,160,0,12,,,,,,,,6,,,,78,92
183120,note_on,160,0,15,,,,,,,,7,,,,50,92
183120,note_on,160,0,7,,,,,,,,4,,,,57,92
183120,note_on,160,0,9,,,,,,,,5,,,,69,92
183120,note_on,160,0,14,,,,,,,,7,,,,62,92
183120,note_on,160,0,10,,,,,,,,5,,,,66,92
183120,note_on,80,0,2,,,,,,,,0,,,,74,92
183120,note_on,160,0,3,,,,,,,,2,,,,81,92
183120,note_on,80,0,4,,,,,,,,2,,,,74,92
183120,note_on,160,0,22,,,,,,,,15,,,,45,92
183120,note_on,80,0,19,,,,,,,,12,,,,74,92
183120,note_on,160,0,11,,,,,,,,6,,,,81,92
183120,note_on,80,0,5,,,,,,,,3,,,,74,92
183120,note_on,80,0,6,,,,,,,,3,,,,69,92
183120,note_on,160,0,13,,,,,,,,7,,,,66,92
183120,note_on,160,0,21,,,,,,,,14,,,,57,92
183120,note_on,40,0,18,,,,,,,,11,,,,78,108
183120,note_on,160,0,1,,,,,,,,0,,,,81,92
183120,note_on,160,0,16,,,,,,,,8,,,,38,92
183120,note_on,160,0,17,,,,,,,,10,,,,50,92
183200,note_off,80,0,1,,,,,,,,0,,,,81,64
183200,note_off,80,0,5,,,,,,,,3,,,,74,64
183200,note_off,80,0,7,,,,,,,,4,,,,57,64
183200,note_off,80,0,20,,,,,,,,13,,,,66,64
183200,note_off,80,0,8,,,,,,,,4,,,,38,64
183200,note_off,80,0,13,,,,,,,,7,,,,66,64
183200,note_off,80,0,18,,,,,,,,11,,,,78,64
183200,note_off,80,0,3,,,,,,,,2,,,,81,64
183200,note_off,80,0,2,,,,,,,,0,,,,74,64
183200,note_off,80,0,12,,,,,,,,6,,,,78,64
183200,note_off,80,0,16,,,,,,,,8,,,,38,64
183200,note_off,80,0,21,,,,,,,,14,,,,57,64
183200,note_off,80,0,14,,,,,,,,7,,,,62,64
183200,note_off,80,0,19,,,,,,,,12,,,,74,64
183200,note_off,80,0,22,,,,,,,,15,,,,45,64
183200,note_off,80,0,15,,,,,,,,7,,,,50,64
183200,note_off,80,0,6,,,,,,,,3,,,,69,64
183200,note_off,80,0,9,,,,,,,,5,,,,69,64
183200,note_off,80,0,11,,,,,,,,6,,,,81,64
183200,note_off,80,0,17,,,,,,,,10,,,,50,64
183200,note_off,80,0,10,,,,,,,,5,,,,66,64
183200,note_off,80,0,4,,,,,,,,2,,,,74,64
183240,note_on,40,0,20,,,,,,,,13,,,,67,92
183240,note_on,40,0,18,,,,,,,,11,,,,79,108
183320,note_off,80,0,20,,,,,,,,13,,,,67,64
183320,note_off,80,0,18,,,,,,,,11,,,,79,64
183360,note_on,160,0,16,,,,,,,,8,,,,38,92
183360,note_on,160,0,2,,,,,,,,0,,,,78,92
183360,note_on,160,0,3,,,,,,,,2,,,,81,92
183360,note_on,40,0,18,,,,,,,,11,,,,81,108
183360,note_on,160,0,19,,,,,,,,12,,,,78,92
183360,note_on,160,0,12,,,,,,,,6,,,,78,92
183360,note_on,160,0,6,,,,,,,,3,,,,74,92
183360,note_on,160,0,13,,,,,,,,7,,,,66,92
183360,note_on,160,0,7,,,,,,,,4,,,,57,92
183360,note_on,40,0,20,,,,,,,,13,,,,69,92
183360,note_on,160,0,22,,,,,,,,15,,,,45,92
183360,note_on,160,0,4,,,,,,,,2,,,,78,92
183360,note_on,160,0,14,,,,,,,,7,,,,62,92
183360,note_on,160,0,10,,,,,,,,5,,,,66,92
183360,note_on,160,0,1,,,,,,,,0,,,,81,92
183360,note_on,160,0,15,,,,,,,,7,,,,50,92
183360,note_on,160,0,9,,,,,,,,5,,,,69,92
183360,note_on,160,0,11,,,,,,,,6,,,,81,92
183360,note_on,160,0,5,,,,,,,,3,,,,78,92
183360,note_on,160,0,21,,,,,,,,14,,,,57,92
183360,note_on,160,0,8,,,,,,,,4,,,,38,92
183360,note_on,160,0,17,,,,,,,,10,,,,50,92
183440,note_off,80,0,11,,,,,,,,6,,,,81,64
183440,note_off,80,0,9,,,,,,,,5,,,,69,64
183440,note_off,80,0,21,,,,,,,,14,,,,57,64
183440,note_off,80,0,17,,,,,,,,10,,,,50,64
183440,note_off,80,0,8,,,,,,,,4,,,,38,64
183440,note_off,80,0,19,,,,,,,,12,,,,78,64
183440,note_off,80,0,14,,,,,,,,7,,,,62,64
183440,note_off,80,0,10,,,,,,,,5,,,,66,64
183440,note_off,80,0,7,,,,,,,,4,,,,57,64
183440,note_off,80,0,3,,,,,,,,2,,,,81,64
183440,note_off,80,0,5,,,,,,,,3,,,,78,64
183440,note_off,80,0,20,,,,,,,,13,,,,69,64
183440,note_off,80,0,13,,,,,,,,7,,,,66,64
183440,note_off,80,0,16,,,,,,,,8,,,,38,64
183440,note_off,80,0,12,,,,,,,,6,,,,78,64
183440,note_off,80,0,2,,,,,,,,0,,,,78,64
183440,note_off,80,0,18,,,,,,,,11,,,,81,64
183440,note_off,80,0,4,,,,,,,,2,,,,78,64
183440,note_off,80,0,1,,,,,,,,0,,,,81,64
183440,note_off,80,0,22,,,,,,,,15,,,,45,64
183440,note_off,80,0,15,,,,,,,,7,,,,50,64
183440,note_off,80,0,6,,,,,,,,3,,,,74,64
183480,note_on,40,0,18,,,,,,,,11,,,,78,108
183480,note_on,40,0,20,,,,,,,,13,,,,66,92
183560,note_off,80,0,18,,,,,,,,11,,,,78,64
183560,note_off,80,0,20,,,,,,,,13,,,,66,64
183600,note_on,160,0,21,,,,,,,,14,,,,45,92
183600,note_on,160,0,4,,,,,,,,2,,,,69,92
183600,note_on,160,0,8,,,,,,,,4,,,,38,92
183600,note_on,160,0,13,,,,,,,,7,,,,62,92
183600,note_on,160,0,5,,,,,,,,3,,,,69,92
183600,note_on,160,0,7,,,,,,,,4,,,,45,92
183600,note_on,160,0,11,,,,,,,,6,,,,78,92
183600,note_on,40,0,20,,,,,,,,13,,,,64,92
183600,note_on,160,0,19,,,,,,,,12,,,,69,92
183600,note_on,160,0,17,,,,,,,,10,,,,50,92
183600,note_on,160,0,3,,,,,,,,2,,,,78,92
183600,note_on,40,0,18,,,,,,,,11,,,,76,108
183600,note_on,160,0,2,,,,,,,,0,,,,69,92
183600,note_on,160,0,9,,,,,,,,5,,,,66,92
183600,note_on,160,0,14,,,,,,,,7,,,,57,92
183600,note_on,160,0,12,,,,,,,,6,,,,74,92
183600,note_on,160,0,22,,,,,,,,15,,,,33,92
183600,note_on,160,0,6,,,,,,,,3,,,,66,92
183600,note_on,160,0,16,,,,,,,,8,,,,38,92
183600,note_on,160,0,15,,,,,,,,7,,,,50,92
183600,note_on,160,0,1,,,,,,,,0,,,,78,92
183600,note_on,160,0,10,,,,,,,,5,,,,62,92
183680,note_off,80,0,3,,,,,,,,2,,,,78,64
183680,note_off,80,0,18,,,,,,,,11,,,,76,64
183680,note_off,80,0,13,,,,,,,,7,,,,62,64
183680,note_off,80,0,1,,,,,,,,0,,,,78,64
183680,note_off,80,0,4,,,,,,,,2,,,,69,64
183680,note_off,80,0,7,,,,,,,,4,,,,45,64
183680,note_off,80,0,5,,,,,,,,3,,,,69,64
183680,note_off,80,0,2,,,,,,,,0,,,,69,64
183680,note_off,80,0,17,,,,,,,,10,,,,50,64
183680,note_off,80,0,10,,,,,,,,5,,,,62,64
183680,note_off,80,0,14,,,,,,,,7,,,,57,64
183680,note_off,80,0,22,,,,,,,,15,,,,33,64
183680,note_off,80,0,15,,,,,,,,7,,,,50,64
183680,note_off,80,0,9,,,,,,,,5,,,,66,64
183680,note_off,80,0,8,,,,,,,,4,,,,38,64
183680,note_off,80,0,11,,,,,,,,6,,,,78,64
183680,note_off,80,0,21,,,,,,,,14,,,,45,64
183680,note_off,80,0,6,,,,,,,,3,,,,66,64
183680,note_off,80,0,20,,,,,,,,13,,,,64,64
183680,note_off,80,0,12,,,,,,,,6,,,,74,64
183680,note_off,80,0,19,,,,,,,,12,,,,69,64
183680,note_off,80,0,16,,,,,,,,8,,,,38,64
183720,note_on,40,0,20,,,,,,,,13,,,,62,92
183720,note_on,40,0,18,,,,,,,,11,,,,74,108
183800,note_off,80,0,18,,,,,,,,11,,,,74,64
183800,note_off,80,0,20,,,,,,,,13,,,,62,64
183840,note_on,160,0,13,,,,,,,,7,,,,57,92
183840,note_on,160,0,10,,,,,,,,5,,,,57,92
183840,note_on,160,0,17,,,,,,,,10,,,,45,92
183840,note_on,160,0,19,,,,,,,,12,,,,76,92
183840,note_on,160,0,1,,,,,,,,0,,,,76,92
183840,note_on,160,0,5,,,,,,,,3,,,,76,92
183840,note_on,160,0,14,,,,,,,,7,,,,52,92
183840,note_on,160,0,8,,,,,,,,4,,,,45,92
183840,note_on,160,0,4,,,,,,,,2,,,,76,92
183840,note_on,160,0,7,,,,,,,,4,,,,57,92
183840,note_on,160,0,6,,,,,,,,3,,,,73,92
183840,note_on,160,0,15,,,,,,,,7,,,,57,92
183840,note_on,160,0,22,,,,,,,,15,,,,45,92
183840,note_on,40,0,20,,,,,,,,13,,,,61,92
183840,note_on,160,0,12,,,,,,,,6,,,,69,92
183840,note_on,40,0,18,,,,,,,,11,,,,73,108
183840,note_on,160,0,3,,,,,,,,2,,,,76,92
183840,note_on,160,0,9,,,,,,,,5,,,,64,92
183840,note_on,160,0,2,,,,,,,,0,,,,76,92
183840,note_on,160,0,21,,,,,,,,14,,,,57,92
183840,note_on,160,0,16,,,,,,,,8,,,,45,92
183840,note_on,160,0,11,,,,,,,,6,,,,76,92
183920,note_off,80,0,3,,,,,,,,2,,,,76,64
183920,note_off,80,0,15,,,,,,,,7,,,,57,64
183920,note_off,80,0,8,,,,,,,,4,,,,45,64
183920,note_off,80,0,22,,,,,,,,15,,,,45,64
183920,note_off,80,0,20,,,,,,,,13,,,,61,64
183920,note_off,80,0,11,,,,,,,,6,,,,76,64
183920,note_off,80,0,7,,,,,,,,4,,,,57,64
183920,note_off,80,0,21,,,,,,,,14,,,,57,64
183920,note_off,80,0,1,,,,,,,,0,,,,76,64
183920,note_off,80,0,18,,,,,,,,11,,,,73,64
183920,note_off,80,0,9,,,,,,,,5,,,,64,64
183920,note_off,80,0,14,,,,,,,,7,,,,52,64
183920,note_off,80,0,13,,,,,,,,7,,,,57,64
183920,note_off,80,0,12,,,,,,,,6,,,,69,64
183920,note_off,80,0,16,,,,,,,,8,,,,45,64
183920,note_off,80,0,17,,,,,,,,10,,,,45,64
183920,note_off,80,0,10,,,,,,,,5,,,,57,64
183960,note_on,40,0,18,,,,,,,,11,,,,71,108
183960,note_on,40,0,20,,,,,,,,13,,,,59,92
184040,note_off,80,0,20,,,,,,,,13,,,,59,64
184040,note_off,80,0,18,,,,,,,,11,,,,71,64
184080,note_on,160,0,22,,,,,,,,15,,,,33,92
184080,note_on,160,0,17,,,,,,,,10,,,,45,92
184080,note_on,160,0,15,,,,,,,,7,,,,57,92
184080,note_on,160,0,14,,,,,,,,7,,,,61,92
184080,note_on,160,0,10,,,,,,,,5,,,,64,92
184080,note_on,160,0,16,,,,,,,,8,,,,45,92
184080,note_on,160,0,7,,,,,,,,4,,,,45,92
184080,note_on,160,0,21,,,,,,,,14,,,,45,92
184080,note_on,160,0,1,,,,,,,,0,,,,81,92
184080,note_on,160,0,9,,,,,,,,5,,,,69,92
184080,note_on,160,0,13,,,,,,,,7,,,,64,92
184080,note_on,160,0,3,,,,,,,,2,,,,81,92
184080,note_on,160,0,8,,,,,,,,4,,,,45,92
184080,note_on,160,0,12,,,,,,,,6,,,,76,92
184080,note_on,40,0,18,,,,,,,,11,,,,69,108
184080,note_on,40,0,20,,,,,,,,13,,,,57,92
184080,note_on,160,0,11,,,,,,,,6,,,,81,92
184160,note_off,80,0,11,,,,,,,,6,,,,81,64
184160,note_off,80,0,12,,,,,,,,6,,,,76,64
184160,note_off,80,0,9,,,,,,,,5,,,,69,64
184160,note_off,80,0,14,,,,,,,,7,,,,61,64
184160,note_off,80,0,17,,,,,,,,10,,,,45,64
184160,note_off,80,0,1,,,,,,,,0,,,,81,64
184160,note_off,80,0,22,,,,,,,,15,,,,33,64
184160,note_off,80,0,20,,,,,,,,13,,,,57,64
184160,note_off,80,0,10,,,,,,,,5,,,,64,64
184160,note_off,80,0,16,,,,,,,,8,,,,45,64
184160,note_off,80,0,3,,,,,,,,2,,,,81,64
184160,note_off,80,0,8,,,,,,,,4,,,,45,64
184160,note_off,80,0,15,,,,,,,,7,,,,57,64
184160,note_off,80,0,7,,,,,,,,4,,,,45,64
184160,note_off,80,0,13,,,,,,,,7,,,,64,64
184160,note_off,80,0,18,,,,,,,,11,,,,69,64
184160,note_off,80,0,21,,,,,,,,14,,,,45,64
184200,note_on,40,0,20,,,,,,,,13,,,,59,92
184200,note_on,40,0,18,,,,,,,,11,,,,71,108
184280,note_off,80,0,18,,,,,,,,11,,,,71,64
184280,note_off,80,0,20,,,,,,,,13,,,,59,64
184320,note_on,160,0,3,,,,,,,,2,,,,81,92
184320,note_on,160,0,14,,,,,,,,7,,,,61,92
184320,note_on,160,0,12,,,,,,,,6,,,,76,92
184320,note_on,160,0,17,,,,,,,,10,,,,45,92
184320,note_on,160,0,13,,,,,,,,7,,,,64,92
184320,note_on,160,0,9,,,,,,,,5,,,,69,92
184320,note_on,160,0,1,,,,,,,,0,,,,81,92
184320,note_on,160,0,22,,,,,,,,15,,,,33,92
184320,note_on,160,0,16,,,,,,,,8,,,,45,92
184320,note_on,160,0,21,,,,,,,,14,,,,45,92
184320,note_on,160,0,10,,,,,,,,5,,,,64,92
184320,note_on,160,0,7,,,,,,,,4,,,,45,92
184320,note_on,40,0,20,,,,,,,,13,,,,61,92
184320,note_on,160,0,11,,,,,,,,6,,,,81,92
184320,note_on,160,0,15,,,,,,,,7,,,,57,92
184320,note_on,40,0,18,,,,,,,,11,,,,73,108
184320,note_on,160,0,8,,,,,,,,4,,,,45,92
184400,note_off,80,0,7,,,,,,,,4,,,,45,64
184400,note_off,80,0,13,,,,,,,,7,,,,64,64
184400,note_off,80,0,1,,,,,,,,0,,,,81,64
184400,note_off,80,0,20,,,,,,,,13,,,,61,64
184400,note_off,80,0,11,,,,,,,,6,,,,81,64
184400,note_off,80,0,17,,,,,,,,10,,,,45,64
184400,note_off,80,0,9,,,,,,,,5,,,,69,64
184400,note_off,80,0,15,,,,,,,,7,,,,57,64
184400,note_off,80,0,3,,,,,,,,2,,,,81,64
184400,note_off,80,0,22,,,,,,,,15,,,,33,64
184400,note_off,80,0,21,,,,,,,,14,,,,45,64
184400,note_off,80,0,10,,,,,,,,5,,,,64,64
184400,note_off,80,0,14,,,,,,,,7,,,,61,64
184400,note_off,80,0,12,,,,,,,,6,,,,76,64
184400,note_off,80,0,16,,,,,,,,8,,,,45,64
184400,note_off,80,0,18,,,,,,,,11,,,,73,64
184400,note_off,80,0,8,,,,,,,,4,,,,45,64
184440,note_on,40,0,20,,,,,,,,13,,,,62,92
184440,note_on,40,0,18,,,,,,,,11,,,,74,108
184480,note_off,640,0,6,,,,,,,,3,,,,73,64
184480,note_off,640,0,2,,,,,,,,0,,,,76,64
184480,note_off,640,0,19,,,,,,,,12,,,,76,64
184480,note_off,640,0,4,,,,,,,,2,,,,76,64
184480,note_off,640,0,5,,,,,,,,3,,,,76,64
184520,note_off,80,0,18,,,,,,,,11,,,,74,64
184520,note_off,80,0,20,,,,,,,,13,,,,62,64
184560,note_on,160,0,12,,,,,,,,6,,,,69,92
184560,note_on,80,0,6,,,,,,,,3,,,,69,92
184560,note_on,160,0,16,,,,,,,,8,,,,45,92
184560,note_on,160,0,21,,,,,,,,14,,,,57,92
184560,note_on,160,0,11,,,,,,,,6,,,,76,92
184560,note_on,80,0,4,,,,,,,,2,,,,73,92
184560,note_on,160,0,22,,,,,,,,15,,,,45,92
184560,note_on,80,0,19,,,,,,,,12,,,,73,92
184560,note_on,40,0,18,,,,,,,,11,,,,76,108
184560,note_on,160,0,14,,,,,,,,7,,,,52,92
184560,note_on,160,0,17,,,,,,,,10,,,,45,92
184560,note_on,80,0,2,,,,,,,,0,,,,73,92
184560,note_on,160,0,9,,,,,,,,5,,,,64,92
184560,note_on,160,0,10,,,,,,,,5,,,,57,92
184560,note_on,80,0,5,,,,,,,,3,,,,73,92
184560,note_on,40,0,20,,,,,,,,13,,,,64,92
184560,note_on,160,0,13,,,,,,,,7,,,,57,92
184560,note_on,160,0,1,,,,,,,,0,,,,76,92
184560,note_on,160,0,7,,,,,,,,4,,,,57,92
184560,note_on,160,0,8,,,,,,,,4,,,,45,92
184560,note_on,160,0,15,,,,,,,,7,,,,57,92
184560,note_on,160,0,3,,,,,,,,2,,,,76,92
184640,note_off,80,0,21,,,,,,,,14,,,,57,64
184640,note_off,80,0,5,,,,,,,,3,,,,73,64
184640,note_off,80,0,22,,,,,,,,15,,,,45,64
184640,note_off,80,0,4,,,,,,,,2,,,,73,64
184640,note_off,80,0,17,,,,,,,,10,,,,45,64
184640,note_off,80,0,6,,,,,,,,3,,,,69,64
184640,note_off,80,0,13,,,,,,,,7,,,,57,64
184640,note_off,80,0,7,,,,,,,,4,,,,57,64
184640,note_off,80,0,19,,,,,,,,12,,,,73,64
184640,note_off,80,0,20,,,,,,,,13,,,,64,64
184640,note_off,80,0,8,,,,,,,,4,,,,45,64
184640,note_off,80,0,3,,,,,,,,2,,,,76,64
184640,note_off,80,0,14,,,,,,,,7,,,,52,64
184640,note_off,80,0,9,,,,,,,,5,,,,64,64
184640,note_off,80,0,2,,,,,,,,0,,,,73,64
184640,note_off,80,0,12,,,,,,,,6,,,,69,64
184640,note_off,80,0,16,,,,,,,,8,,,,45,64
184640,note_off,80,0,10,,,,,,,,5,,,,57,64
184640,note_off,80,0,1,,,,,,,,0,,,,76,64
184640,note_off,80,0,18,,,,,,,,11,,,,76,64
184640,note_off,80,0,11,,,,,,,,6,,,,76,64
184640,note_off,80,0,15,,,,,,,,7,,,,57,64
184680,note_on,40,0,18,,,,,,,,11,,,,74,108
184680,note_on,40,0,20,,,,,,,,13,,,,62,92
184760,note_off,80,0,20,,,,,,,,13,,,,62,64
184760,note_off,80,0,18,,,,,,,,11,,,,74,64
184800,note_on,160,0,10,,,,,,,,5,,,,57,92
184800,note_on,160,0,19,,,,,,,,12,,,,76,92
184800,note_on,160,0,7,,,,,,,,4,,,,57,92
184800,note_on,160,0,4,,,,,,,,2,,,,76,92
184800,note_on,160,0,15,,,,,,,,7,,,,57,92
184800,note_on,160,0,8,,,,,,,,4,,,,45,92
184800,note_on,40,0,18,,,,,,,,11,,,,73,108
184800,note_on,160,0,1,,,,,,,,0,,,,76,92
184800,note_on,160,0,13,,,,,,,,7,,,,57,92
184800,note_on,160,0,5,,,,,,,,3,,,,76,92
184800,note_on,160,0,22,,,,,,,,15,,,,45,92
184800,note_on,160,0,16,,,,,,,,8,,,,45,92
184800,note_on,160,0,6,,,,,,,,3,,,,73,92
184800,note_on,160,0,3,,,,,,,,2,,,,76,92
184800,note_on,160,0,12,,,,,,,,6,,,,69,92
184800,note_on,160,0,2,,,,,,,,0,,,,76,92
184800,note_on,160,0,17,,,,,,,,10,,,,45,92
184800,note_on,160,0,14,,,,,,,,7,,,,52,92
184800,note_on,160,0,9,,,,,,,,5,,,,64,92
184800,note_on,160,0,21,,,,,,,,14,,,,57,92
184800,note_on,160,0,11,,,,,,,,6,,,,76,92
184800,note_on,40,0,20,,,,,,,,13,,,,61,92
184880,note_off,80,0,4,,,,,,,,2,,,,76,64
184880,note_off,80,0,18,,,,,,,,11,,,,73,64
184880,note_off,80,0,13,,,,,,,,7,,,,57,64
184880,note_off,80,0,14,,,,,,,,7,,,,52,64
184880,note_off,80,0,9,,,,,,,,5,,,,64,64
184880,note_off,80,0,11,,,,,,,,6,,,,76,64
184880,note_off,80,0,12,,,,,,,,6,,,,69,64
184880,note_off,80,0,16,,,,,,,,8,,,,45,64
184880,note_off,80,0,2,,,,,,,,0,,,,76,64
184880,note_off,80,0,22,,,,,,,,15,,,,45,64
184880,note_off,80,0,20,,,,,,,,13,,,,61,64
184880,note_off,80,0,3,,,,,,,,2,,,,76,64
184880,note_off,80,0,15,,,,,,,,7,,,,57,64
184880,note_off,80,0,17,,,,,,,,10,,,,45,64
184880,note_off,80,0,5,,,,,,,,3,,,,76,64
184880,note_off,80,0,6,,,,,,,,3,,,,73,64
184880,note_off,80,0,8,,,,,,,,4,,,,45,64
184880,note_off,80,0,19,,,,,,,,12,,,,76,64
184880,note_off,80,0,10,,,,,,,,5,,,,57,64
184880,note_off,80,0,21,,,,,,,,14,,,,57,64
184880,note_off,80,0,7,,,,,,,,4,,,,57,64
184880,note_off,80,0,1,,,,,,,,0,,,,76,64
184920,note_on,40,0,18,,,,,,,,11,,,,74,108
184920,note_on,40,0,20,,,,,,,,13,,,,62,92
185000,note_off,80,0,18,,,,,,,,11,,,,74,64
185000,note_off,80,0,20,,,,,,,,13,,,,62,64
185040,note_on,160,0,5,,,,,,,,3,,,,73,92
185040,note_on,40,0,20,,,,,,,,13,,,,59,92
185040,note_on,160,0,1,,,,,,,,0,,,,81,92
185040,note_on,160,0,16,,,,,,,,8,,,,45,92
185040,note_on,160,0,6,,,,,,,,3,,,,69,92
185040,note_on,40,0,18,,,,,,,,11,,,,71,108
185040,note_on,160,0,11,,,,,,,,6,,,,81,92
185040,note_on,160,0,13,,,,,,,,7,,,,64,92
185040,note_on,160,0,22,,,,,,,,15,,,,33,92
185040,note_on,160,0,17,,,,,,,,10,,,,45,92
185040,note_on,160,0,10,,,,,,,,5,,,,64,92
185040,note_on,160,0,19,,,,,,,,12,,,,73,92
185040,note_on,160,0,7,,,,,,,,4,,,,45,92
185040,note_on,160,0,8,,,,,,,,4,,,,45,92
185040,note_on,160,0,15,,,,,,,,7,,,,57,92
185040,note_on,160,0,14,,,,,,,,7,,,,61,92
185040,note_on,160,0,3,,,,,,,,2,,,,81,92
185040,note_on,160,0,2,,,,,,,,0,,,,73,92
185040,note_on,160,0,4,,,,,,,,2,,,,73,92
185040,note_on,160,0,9,,,,,,,,5,,,,69,92
185040,note_on,160,0,12,,,,,,,,6,,,,76,92
185040,note_on,160,0,21,,,,,,,,14,,,,45,92
185120,note_off,80,0,11,,,,,,,,6,,,,81,64
185120,note_off,80,0,1,,,,,,,,0,,,,81,64
185120,note_off,80,0,15,,,,,,,,7,,,,57,64
185120,note_off,80,0,19,,,,,,,,12,,,,73,64
185120,note_off,80,0,4,,,,,,,,2,,,,73,64
185120,note_off,80,0,16,,,,,,,,8,,,,45,64
185120,note_off,80,0,9,,,,,,,,5,,,,69,64
185120,note_off,80,0,17,,,,,,,,10,,,,45,64
185120,note_off,80,0,21,,,,,,,,14,,,,45,64
185120,note_off,80,0,20,,,,,,,,13,,,,59,64
185120,note_off,80,0,6,,,,,,,,3,,,,69,64
185120,note_off,80,0,10,,,,,,,,5,,,,64,64
185120,note_off,80,0,5,,,,,,,,3,,,,73,64
185120,note_off,80,0,7,,,,,,,,4,,,,45,64
185120,note_off,80,0,12,,,,,,,,6,,,,76,64
185120,note_off,80,0,22,,,,,,,,15,,,,33,64
185120,note_off,80,0,18,,,,,,,,11,,,,71,64
185120,note_off,80,0,13,,,,,,,,7,,,,64,64
185120,note_off,80,0,2,,,,,,,,0,,,,73,64
185120,note_off,80,0,3,,,,,,,,2,,,,81,64
185120,note_off,80,0,8,,,,,,,,4,,,,45,64
185120,note_off,80,0,14,,,,,,,,7,,,,61,64
185160,note_on,40,0,18,,,,,,,,11,,,,73,108
185160,note_on,40,0,20,,,,,,,,13,,,,61,92
185240,note_off,80,0,18,,,,,,,,11,,,,73,64
185240,note_off,80,0,20,,,,,,,,13,,,,61,64
185280,note_on,40,0,20,,,,,,,,13,,,,62,92
185280,note_on,160,0,15,,,,,,,,7,,,,50,92
185280,note_on,160,0,4,,,,,,,,2,,,,78,92
185280,note_on,160,0,1,,,,,,,,0,,,,81,92
185280,note_on,40,0,18,,,,,,,,11,,,,74,108
185280,note_on,160,0,16,,,,,,,,8,,,,38,92
185280,note_on,160,0,12,,,,,,,,6,,,,78,92
185280,note_on,160,0,2,,,,,,,,0,,,,78,92
185280,note_on,160,0,3,,,,,,,,2,,,,81,92
185280,note_on,160,0,8,,,,,,,,4,,,,38,92
185280,note_on,160,0,7,,,,,,,,4,,,,57,92
185280,note_on,160,0,19,,,,,,,,12,,,,78,92
185280,note_on,160,0,9,,,,,,,,5,,,,69,92
185280,note_on,160,0,11,,,,,,,,6,,,,81,92
185280,note_on,160,0,21,,,,,,,,14,,,,57,92
185280,note_on,160,0,10,,,,,,,,5,,,,66,92
185280,note_on,160,0,17,,,,,,,,10,,,,50,92
185280,note_on,160,0,6,,,,,,,,3,,,,74,92
185280,note_on,160,0,5,,,,,,,,3,,,,78,92
185280,note_on,160,0,22,,,,,,,,15,,,,45,92
185280,note_on,160,0,13,,,,,,,,7,,,,66,92
185280,note_on,160,0,14,,,,,,,,7,,,,62,92
185360,note_off,80,0,20,,,,,,,,13,,,,62,64
185360,note_off,80,0,13,,,,,,,,7,,,,66,64
185360,note_off,80,0,1,,,,,,,,0,,,,81,64
185360,note_off,80,0,18,,,,,,,,11,,,,74,64
185360,note_off,80,0,16,,,,,,,,8,,,,38,64
185360,note_off,80,0,12,,,,,,,,6,,,,78,64
185360,note_off,80,0,22,,,,,,,,15,,,,45,64
185360,note_off,80,0,9,,,,,,,,5,,,,69,64
185360,note_off,80,0,17,,,,,,,,10,,,,50,64
185360,note_off,80,0,3,,,,,,,,2,,,,81,64
185360,note_off,80,0,11,,,,,,,,6,,,,81,64
185360,note_off,80,0,8,,,,,,,,4,,,,38,64
185360,note_off,80,0,15,,,,,,,,7,,,,50,64
185360,note_off,80,0,14,,,,,,,,7,,,,62,64
185360,note_off,80,0,7,,,,,,,,4,,,,57,64
185360,note_off,80,0,10,,,,,,,,5,,,,66,64
185360,note_off,80,0,21,,,,,,,,14,,,,57,64
185400,note_on,40,0,20,,,,,,,,13,,,,57,92
185400,note_on,40,0,18,,,,,,,,11,,,,69,108
185480,note_off,80,0,20,,,,,,,,13,,,,57,64
185480,note_off,80,0,18,,,,,,,,11,,,,69,64
185520,note_on,160,0,11,,,,,,,,6,,,,78,92
185520,note_on,160,0,17,,,,,,,,10,,,,50,92
185520,note_on,160,0,12,,,,,,,,6,,,,74,92
185520,note_on,160,0,7,,,,,,,,4,,,,45,92
185520,note_on,160,0,3,,,,,,,,2,,,,78,92
185520,note_on,160,0,16,,,,,,,,8,,,,38,92
185520,note_on,160,0,22,,,,,,,,15,,,,33,92
185520,note_on,160,0,13,,,,,,,,7,,,,62,92
185520,note_on,160,0,21,,,,,,,,14,,,,45,92
185520,note_on,160,0,10,,,,,,,,5,,,,62,92
185520,note_on,160,0,1,,,,,,,,0,,,,78,92
185520,note_on,40,0,20,,,,,,,,13,,,,59,92
185520,note_on,160,0,14,,,,,,,,7,,,,57,92
185520,note_on,160,0,9,,,,,,,,5,,,,66,92
185520,note_on,40,0,18,,,,,,,,11,,,,71,108
185520,note_on,160,0,15,,,,,,,,7,,,,50,92
185520,note_on,160,0,8,,,,,,,,4,,,,38,92
185600,note_off,80,0,21,,,,,,,,14,,,,45,64
185600,note_off,80,0,3,,,,,,,,2,,,,78,64
185600,note_off,80,0,12,,,,,,,,6,,,,74,64
185600,note_off,80,0,22,,,,,,,,15,,,,33,64
185600,note_off,80,0,10,,,,,,,,5,,,,62,64
185600,note_off,80,0,7,,,,,,,,4,,,,45,64
185600,note_off,80,0,8,,,,,,,,4,,,,38,64
185600,note_off,80,0,15,,,,,,,,7,,,,50,64
185600,note_off,80,0,20,,,,,,,,13,,,,59,64
185600,note_off,80,0,16,,,,,,,,8,,,,38,64
185600,note_off,80,0,17,,,,,,,,10,,,,50,64
185600,note_off,80,0,13,,,,,,,,7,,,,62,64
185600,note_off,80,0,1,,,,,,,,0,,,,78,64
185600,note_off,80,0,11,,,,,,,,6,,,,78,64
185600,note_off,80,0,18,,,,,,,,11,,,,71,64
185600,note_off,80,0,9,,,,,,,,5,,,,66,64
185600,note_off,80,0,14,,,,,,,,7,,,,57,64
185640,note_on,40,0,20,,,,,,,,13,,,,61,92
185640,note_on,40,0,18,,,,,,,,11,,,,73,108
185720,note_off,80,0,18,,,,,,,,11,,,,73,64
185720,note_off,80,0,20,,,,,,,,13,,,,61,64
185760,note_on,160,0,9,,,,,,,,5,,,,66,92
185760,note_on,160,0,10,,,,,,,,5,,,,62,92
185760,note_on,160,0,15,,,,,,,,7,,,,50,92
185760,note_on,160,0,11,,,,,,,,6,,,,78,92
185760,note_on,160,0,14,,,,,,,,7,,,,57,92
185760,note_on,160,0,13,,,,,,,,7,,,,62,92
185760,note_on,40,0,18,,,,,,,,11,,,,74,108
185760,note_on,160,0,7,,,,,,,,4,,,,45,92
185760,note_on,160,0,3,,,,,,,,2,,,,78,92
185760,note_on,160,0,22,,,,,,,,15,,,,33,92
185760,note_on,160,0,21,,,,,,,,14,,,,45,92
185760,note_on,160,0,8,,,,,,,,4,,,,38,92
185760,note_on,160,0,16,,,,,,,,8,,,,38,92
185760,note_on,40,0,20,,,,,,,,13,,,,62,92
185760,note_on,160,0,1,,,,,,,,0,,,,78,92
185760,note_on,160,0,12,,,,,,,,6,,,,74,92
185760,note_on,160,0,17,,,,,,,,10,,,,50,92
185840,note_off,80,0,10,,,,,,,,5,,,,62,64
185840,note_off,80,0,16,,,,,,,,8,,,,38,64
185840,note_off,80,0,21,,,,,,,,14,,,,45,64
185840,note_off,80,0,15,,,,,,,,7,,,,50,64
185840,note_off,80,0,12,,,,,,,,6,,,,74,64
185840,note_off,80,0,1,,,,,,,,0,,,,78,64
185840,note_off,80,0,18,,,,,,,,11,,,,74,64
185840,note_off,80,0,14,,,,,,,,7,,,,57,64
185840,note_off,80,0,8,,,,,,,,4,,,,38,64
185840,note_off,80,0,9,,,,,,,,5,,,,66,64
185840,note_off,80,0,11,,,,,,,,6,,,,78,64
185840,note_off,80,0,7,,,,,,,,4,,,,45,64
185840,note_off,80,0,20,,,,,,,,13,,,,62,64
185840,note_off,80,0,3,,,,,,,,2,,,,78,64
185840,note_off,80,0,13,,,,,,,,7,,,,62,64
185840,note_off,80,0,17,,,,,,,,10,,,,50,64
185840,note_off,80,0,22,,,,,,,,15,,,,33,64
185880,note_on,40,0,18,,,,,,,,11,,,,76,108
185880,note_on,40,0,20,,,,,,,,13,,,,64,92
185920,note_off,640,0,4,,,,,,,,2,,,,78,64
185920,note_off,640,0,5,,,,,,,,3,,,,78,64
185920,note_off,640,0,6,,,,,,,,3,,,,74,64
185920,note_off,640,0,2,,,,,,,,0,,,,78,64
185920,note_off,640,0,19,,,,,,,,12,,,,78,64
185960,note_off,80,0,18,,,,,,,,11,,,,76,64
185960,note_off,80,0,20,,,,,,,,13,,,,64,64
186000,note_on,40,0,20,,,,,,,,13,,,,66,92
186000,note_on,80,0,2,,,,,,,,0,,,,74,92
186000,note_on,80,0,4,,,,,,,,2,,,,74,92
186000,note_on,160,0,13,,,,,,,,7,,,,66,92
186000,note_on,80,0,19,,,,,,,,12,,,,74,92
186000,note_on,160,0,8,,,,,,,,4,,,,38,92
186000,note_on,160,0,7,,,,,,,,4,,,,57,92
186000,note_on,160,0,14,,,,,,,,7,,,,62,92
186000,note_on,40,0,18,,,,,,,,11,,,,78,108
186000,note_on,160,0,11,,,,,,,,6,,,,81,92
186000,note_on,80,0,6,,,,,,,,3,,,,69,92
186000,note_on,80,0,5,,,,,,,,3,,,,74,92
186000,note_on,160,0,15,,,,,,,,7,,,,50,92
186000,note_on,160,0,21,,,,,,,,14,,,,57,92
186000,note_on,160,0,12,,,,,,,,6,,,,78,92
186000,note_on,160,0,16,,,,,,,,8,,,,38,92
186000,note_on,160,0,3,,,,,,,,2,,,,81,92
186000,note_on,160,0,10,,,,,,,,5,,,,66,92
186000,note_on,160,0,17,,,,,,,,10,,,,50,92
186000,note_on,160,0,22,,,,,,,,15,,,,45,92
186000,note_on,160,0,1,,,,,,,,0,,,,81,92
186000,note_on,160,0,9,,,,,,,,5,,,,69,92
186080,note_off,80,0,7,,,,,,,,4,,,,57,64
186080,note_off,80,0,3,,,,,,,,2,,,,81,64
186080,note_off,80,0,19,,,,,,,,12,,,,74,64
186080,note_off,80,0,2,,,,,,,,0,,,,74,64
186080,note_off,80,0,4,,,,,,,,2,,,,74,64
186080,note_off,80,0,1,,,,,,,,0,,,,81,64
186080,note_off,80,0,6,,,,,,,,3,,,,69,64
186080,note_off,80,0,14,,,,,,,,7,,,,62,64
186080,note_off,80,0,10,,,,,,,,5,,,,66,64
186080,note_off,80,0,16,,,,,,,,8,,,,38,64
186080,note_off,80,0,12,,,,,,,,6,,,,78,64
186080,note_off,80,0,15,,,,,,,,7,,,,50,64
186080,note_off,80,0,9,,,,,,,,5,,,,69,64
186080,note_off,80,0,5,,,,,,,,3,,,,74,64
186080,note_off,80,0,18,,,,,,,,11,,,,78,64
186080,note_off,80,0,21,,,,,,,,14,,,,57,64
186080,note_off,80,0,8,,,,,,,,4,,,,38,64
186080,note_off,80,0,20,,,,,,,,13,,,,66,64
186080,note_off,80,0,17,,,,,,,,10,,,,50,64
186080,note_off,80,0,11,,,,,,,,6,,,,81,64
186080,note_off,80,0,13,,,,,,,,7,,,,66,64
186080,note_off,80,0,22,,,,,,,,15,,,,45,64
186120,note_on,40,0,18,,,,,,,,11,,,,79,108
186120,note_on,40,0,20,,,,,,,,13,,,,67,92
186200,note_off,80,0,20,,,,,,,,13,,,,67,64
186200,note_off,80,0,18,,,,,,,,11,,,,79,64
186240,note_on,160,0,11,,,,,,,,6,,,,81,92
186240,note_on,160,0,1,,,,,,,,0,,,,81,92
186240,note_on,160,0,8,,,,,,,,4,,,,38,92
186240,note_on,160,0,10,,,,,,,,5,,,,66,92
186240,note_on,160,0,22,,,,,,,,15,,,,45,92
186240,note_on,160,0,14,,,,,,,,7,,,,62,92
186240,note_on,160,0,21,,,,,,,,14,,,,57,92
186240,note_on,160,0,12,,,,,,,,6,,,,78,92
186240,note_on,160,0,9,,,,,,,,5,,,,69,92
186240,note_on,160,0,6,,,,,,,,3,,,,74,92
186240,note_on,160,0,15,,,,,,,,7,,,,50,92
186240,note_on,160,0,3,,,,,,,,2,,,,81,92
186240,note_on,40,0,20,,,,,,,,13,,,,69,92
186240,note_on,160,0,4,,,,,,,,2,,,,78,92
186240,note_on,160,0,2,,,,,,,,0,,,,78,92
186240,note_on,160,0,17,,,,,,,,10,,,,50,92
186240,note_on,160,0,16,,,,,,,,8,,,,38,92
186240,note_on,160,0,5,,,,,,,,3,,,,78,92
186240,note_on,40,0,18,,,,,,,,11,,,,81,108
186240,note_on,160,0,19,,,,,,,,12,,,,78,92
186240,note_on,160,0,7,,,,,,,,4,,,,57,92
186240,note_on,160,0,13,,,,,,,,7,,,,66,92
186320,note_off,80,0,2,,,,,,,,0,,,,78,64
186320,note_off,80,0,12,,,,,,,,6,,,,78,64
186320,note_off,80,0,18,,,,,,,,11,,,,81,64
186320,note_off,80,0,22,,,,,,,,15,,,,45,64
186320,note_off,80,0,14,,,,,,,,7,,,,62,64
186320,note_off,80,0,13,,,,,,,,7,,,,66,64
186320,note_off,80,0,9,,,,,,,,5,,,,69,64
186320,note_off,80,0,21,,,,,,,,14,,,,57,64
186320,note_off,80,0,8,,,,,,,,4,,,,38,64
186320,note_off,80,0,17,,,,,,,,10,,,,50,64
186320,note_off,80,0,11,,,,,,,,6,,,,81,64
186320,note_off,80,0,16,,,,,,,,8,,,,38,64
186320,note_off,80,0,10,,,,,,,,5,,,,66,64
186320,note_off,80,0,6,,,,,,,,3,,,,74,64
186320,note_off,80,0,1,,,,,,,,0,,,,81,64
186320,note_off,80,0,20,,,,,,,,13,,,,69,64
186320,note_off,80,0,5,,,,,,,,3,,,,78,64
186320,note_off,80,0,4,,,,,,,,2,,,,78,64
186320,note_off,80,0,3,,,,,,,,2,,,,81,64
186320,note_off,80,0,7,,,,,,,,4,,,,57,64
186320,note_off,80,0,15,,,,,,,,7,,,,50,64
186320,note_off,80,0,19,,,,,,,,12,,,,78,64
186360,note_on,40,0,18,,,,,,,,11,,,,78,108
186360,note_on,40,0,20,,,,,,,,13,,,,66,92
186440,note_off,80,0,18,,,,,,,,11,,,,78,64
186440,note_off,80,0,20,,,,,,,,13,,,,66,64
186480,note_on,160,0,1,,,,,,,,0,,,,78,92
186480,note_on,160,0,3,,,,,,,,2,,,,78,92
186480,note_on,40,0,20,,,,,,,,13,,,,64,92
186480,note_on,160,0,2,,,,,,,,0,,,,69,92
186480,note_on,160,0,14,,,,,,,,7,,,,57,92
186480,note_on,160,0,4,,,,,,,,2,,,,69,92
186480,note_on,160,0,22,,,,,,,,15,,,,33,92
186480,note_on,160,0,5,,,,,,,,3,,,,69,92
186480,note_on,160,0,21,,,,,,,,14,,,,45,92
186480,note_on,160,0,12,,,,,,,,6,,,,74,92
186480,note_on,160,0,8,,,,,,,,4,,,,38,92
186480,note_on,160,0,15,,,,,,,,7,,,,50,92
186480,note_on,160,0,11,,,,,,,,6,,,,78,92
186480,note_on,160,0,9,,,,,,,,5,,,,66,92
186480,note_on,160,0,13,,,,,,,,7,,,,62,92
186480,note_on,160,0,7,,,,,,,,4,,,,45,92
186480,note_on,160,0,19,,,,,,,,12,,,,69,92
186480,note_on,160,0,16,,,,,,,,8,,,,38,92
186480,note_on,40,0,18,,,,,,,,11,,,,76,108
186480,note_on,160,0,17,,,,,,,,10,,,,50,92
186480,note_on,160,0,6,,,,,,,,3,,,,66,92
186480,note_on,160,0,10,,,,,,,,5,,,,62,92
186560,note_off,80,0,17,,,,,,,,10,,,,50,64
186560,note_off,80,0,1,,,,,,,,0,,,,78,64
186560,note_off,80,0,10,,,,,,,,5,,,,62,64
186560,note_off,80,0,9,,,,,,,,5,,,,66,64
186560,note_off,80,0,16,,,,,,,,8,,,,38,64
186560,note_off,80,0,5,,,,,,,,3,,,,69,64
186560,note_off,80,0,11,,,,,,,,6,,,,78,64
186560,note_off,80,0,4,,,,,,,,2,,,,69,64
186560,note_off,80,0,8,,,,,,,,4,,,,38,64
186560,note_off,80,0,6,,,,,,,,3,,,,66,64
186560,note_off,80,0,2,,,,,,,,0,,,,69,64
186560,note_off,80,0,14,,,,,,,,7,,,,57,64
186560,note_off,80,0,22,,,,,,,,15,,,,33,64
186560,note_off,80,0,19,,,,,,,,12,,,,69,64
186560,note_off,80,0,21,,,,,,,,14,,,,45,64
186560,note_off,80,0,7,,,,,,,,4,,,,45,64
186560,note_off,80,0,20,,,,,,,,13,,,,64,64
186560,note_off,80,0,12,,,,,,,,6,,,,74,64
186560,note_off,80,0,3,,,,,,,,2,,,,78,64
186560,note_off,80,0,15,,,,,,,,7,,,,50,64
186560,note_off,80,0,18,,,,,,,,11,,,,76,64
186560,note_off,80,0,13,,,,,,,,7,,,,62,64
186600,note_on,40,0,18,,,,,,,,11,,,,74,108
186600,note_on,40,0,20,,,,,,,,13,,,,62,92
186680,note_off,80,0,20,,,,,,,,13,,,,62,64
186680,note_off,80,0,18,,,,,,,,11,,,,74,64
186720,note_on,160,0,1,,,,,,,,0,,,,79,92
186720,note_on,160,0,5,,,,,,,,3,,,,67,92
186720,note_on,160,0,21,,,,,,,,14,,,,57,92
186720,note_on,160,0,4,,,,,,,,2,,,,76,92
186720,note_on,160,0,13,,,,,,,,7,,,,64,92
186720,note_on,160,0,19,,,,,,,,12,,,,67,92
186720,note_on,160,0,16,,,,,,,,8,,,,45,92
186720,note_on,160,0,9,,,,,,,,5,,,,67,92
186720,note_on,40,0,18,,,,,,,,11,,,,73,108
186720,note_on,160,0,7,,,,,,,,4,,,,57,92
186720,note_on,40,0,20,,,,,,,,13,,,,61,92
186720,note_on,160,0,12,,,,,,,,6,,,,76,92
186720,note_on,160,0,14,,,,,,,,7,,,,59,92
186720,note_on,160,0,10,,,,,,,,5,,,,64,92
186720,note_on,160,0,22,,,,,,,,15,,,,45,92
186720,note_on,160,0,17,,,,,,,,10,,,,45,92
186720,note_on,160,0,15,,,,,,,,7,,,,55,92
186720,note_on,160,0,6,,,,,,,,3,,,,61,92
186720,note_on,160,0,11,,,,,,,,6,,,,79,92
186720,note_on,160,0,8,,,,,,,,4,,,,45,92
186720,note_on,160,0,2,,,,,,,,0,,,,76,92
186720,note_on,160,0,3,,,,,,,,2,,,,79,92
186960,note_on,0,0,6,,,,,,,,3,,,,64,92
186960,note_off,240,0,6,,,,,,,,3,,,,61,64
186960,note_off,240,0,20,,,,,,,,13,,,,61,64
186960,note_on,0,0,20,,,,,,,,13,,,,64,92
186960,note_on,0,0,21,,,,,,,,14,,,,45,92
186960,note_on,0,0,22,,,,,,,,15,,,,33,92
186960,note_on,0,0,7,,,,,,,,4,,,,45,92
186960,note_off,240,0,18,,,,,,,,11,,,,73,64
186960,note_on,0,0,18,,,,,,,,11,,,,76,108
186960,note_off,240,0,22,,,,,,,,15,,,,45,64
186960,note_off,240,0,7,,,,,,,,4,,,,57,64
186960,note_off,240,0,21,,,,,,,,14,,,,57,64
187195,note_off,235,0,20,,,,,,,,13,,,,64,64
187195,note_off,235,0,22,,,,,,,,15,,,,33,64
187195,note_off,235,0,18,,,,,,,,11,,,,76,64
187195,note_off,235,0,6,,,,,,,,3,,,,64,64
187195,note_off,235,0,21,,,,,,,,14,,,,45,64
187200,note_on,5,0,22,,,,,,,,15,,,,37,92
187200,note_on,5,0,18,,,,,,,,11,,,,69,108
187200,note_on,5,0,20,,,,,,,,13,,,,57,92
187200,note_on,5,0,21,,,,,,,,14,,,,49,92
187200,note_off,240,0,7,,,,,,,,4,,,,45,64
187200,note_on,5,0,6,,,,,,,,3,,,,57,92
187200,note_on,0,0,7,,,,,,,,4,,,,49,92
187360,note_off,640,0,17,,,,,,,,10,,,,45,64
187440,note_on,80,0,17,,,,,,,,10,,,,45,92
187440,note_on,0,0,4,,,,,,,,2,,,,76,92
187440,note_off,720,0,4,,,,,,,,2,,,,76,64
187440,note_off,240,0,22,,,,,,,,15,,,,37,64
187440,note_on,0,0,22,,,,,,,,15,,,,33,92
187440,note_off,720,0,13,,,,,,,,7,,,,64,64
187440,note_on,0,0,12,,,,,,,,6,,,,76,92
187440,note_on,0,0,20,,,,,,,,13,,,,64,92
187440,note_on,0,0,13,,,,,,,,7,,,,64,92
187440,note_off,720,0,5,,,,,,,,3,,,,67,64
187440,note_on,0,0,5,,,,,,,,3,,,,69,92
187440,note_on,0,0,16,,,,,,,,8,,,,45,92
187440,note_off,720,0,16,,,,,,,,8,,,,45,64
187440,note_on,0,0,9,,,,,,,,5,,,,69,92
187440,note_off,240,0,18,,,,,,,,11,,,,69,64
187440,note_on,0,0,18,,,,,,,,11,,,,76,108
187440,note_off,240,0,20,,,,,,,,13,,,,57,64
187440,note_off,720,0,9,,,,,,,,5,,,,67,64
187440,note_off,720,0,11,,,,,,,,6,,,,79,64
187440,note_on,0,0,14,,,,,,,,7,,,,61,92
187440,note_off,720,0,14,,,,,,,,7,,,,59,64
187440,note_on,0,0,6,,,,,,,,3,,,,64,92
187440,note_on,0,0,11,,,,,,,,6,,,,81,92
187440,note_off,240,0,6,,,,,,,,3,,,,57,64
187440,note_on,0,0,2,,,,,,,,0,,,,76,92
187440,note_off,720,0,12,,,,,,,,6,,,,76,64
187440,note_off,720,0,3,,,,,,,,2,,,,79,64
187440,note_on,0,0,19,,,,,,,,12,,,,69,92
187440,note_on,0,0,21,,,,,,,,14,,,,45,92
187440,note_on,0,0,3,,,,,,,,2,,,,81,92
187440,note_on,0,0,10,,,,,,,,5,,,,64,92
187440,note_off,720,0,10,,,,,,,,5,,,,64,64
187440,note_off,720,0,1,,,,,,,,0,,,,79,64
187440,note_on,0,0,8,,,,,,,,4,,,,45,92
187440,note_off,720,0,8,,,,,,,,4,,,,45,64
187440,note_on,0,0,1,,,,,,,,0,,,,81,92
187440,note_off,240,0,21,,,,,,,,14,,,,49,64
187440,note_on,0,0,15,,,,,,,,7,,,,55,92
187440,note_off,720,0,19,,,,,,,,12,,,,67,64
187440,note_off,720,0,2,,,,,,,,0,,,,76,64
187440,note_on,0,0,7,,,,,,,,4,,,,45,92
187440,note_off,240,0,7,,,,,,,,4,,,,49,64
187440,note_off,720,0,15,,,,,,,,7,,,,55,64
187675,note_off,235,0,11,,,,,,,,6,,,,81,64
187675,note_off,235,0,14,,,,,,,,7,,,,61,64
187675,note_off,235,0,18,,,,,,,,11,,,,76,64
187675,note_off,235,0,3,,,,,,,,2,,,,81,64
187675,note_off,235,0,21,,,,,,,,14,,,,45,64
187675,note_off,235,0,9,,,,,,,,5,,,,69,64
187675,note_off,235,0,1,,,,,,,,0,,,,81,64
187675,note_off,235,0,2,,,,,,,,0,,,,76,64
187675,note_off,235,0,20,,,,,,,,13,,,,64,64
187675,note_off,235,0,6,,,,,,,,3,,,,64,64
187675,note_off,235,0,4,,,,,,,,2,,,,76,64
187675,note_off,235,0,10,,,,,,,,5,,,,64,64
187675,note_off,235,0,5,,,,,,,,3,,,,69,64
187675,note_off,235,0,22,,,,,,,,15,,,,33,64
187675,note_off,235,0,12,,,,,,,,6,,,,76,64
187675,note_off,235,0,13,,,,,,,,7,,,,64,64
187675,note_off,235,0,8,,,,,,,,4,,,,45,64
187675,note_off,235,0,17,,,,,,,,10,,,,45,64
187675,note_off,235,0,15,,,,,,,,7,,,,55,64
187675,note_off,235,0,7,,,,,,,,4,,,,45,64
187675,note_off,235,0,16,,,,,,,,8,,,,45,64
187675,note_off,235,0,19,,,,,,,,12,,,,69,64
187680,note_on,5,0,9,,,,,,,,5,,,,66,92
187680,note_on,5,0,3,,,,,,,,2,,,,78,92
187680,note_on,5,0,5,,,,,,,,3,,,,66,92
187680,note_on,5,0,13,,,,,,,,7,,,,62,92
187680,note_on,5,0,7,,,,,,,,4,,,,50,92
187680,note_on,5,0,11,,,,,,,,6,,,,78,92
187680,note_on,5,0,6,,,,,,,,3,,,,66,92
187680,note_on,5,0,4,,,,,,,,2,,,,66,92
187680,note_on,5,0,15,,,,,,,,7,,,,50,92
187680,note_on,5,0,12,,,,,,,,6,,,,74,92
187680,note_on,5,0,10,,,,,,,,5,,,,62,92
187680,note_on,5,0,1,,,,,,,,0,,,,78,92
187680,note_on,5,0,8,,,,,,,,4,,,,38,92
187680,note_on,5,0,17,,,,,,,,10,,,,50,92
187680,note_on,5,0,20,,,,,,,,13,,,,66,92
187680,note_on,5,0,16,,,,,,,,8,,,,38,92
187680,note_on,5,0,19,,,,,,,,12,,,,66,92
187680,note_on,5,0,21,,,,,,,,14,,,,50,92
187680,note_on,5,0,2,,,,,,,,0,,,,66,92
187680,note_on,5,0,14,,,,,,,,7,,,,57,92
187680,note_on,5,0,22,,,,,,,,15,,,,38,92
187680,note_on,5,0,18,,,,,,,,11,,,,78,108
187920,note_on,0,0,11,,,,,,,,6,,,,76,92
187920,note_on,0,0,3,,,,,,,,2,,,,76,92
187920,note_on,0,0,6,,,,,,,,3,,,,64,92
187920,note_off,240,0,9,,,,,,,,5,,,,66,64
187920,note_on,0,0,9,,,,,,,,5,,,,67,92
187920,note_off,240,0,6,,,,,,,,3,,,,66,64
187920,note_off,240,0,1,,,,,,,,0,,,,78,64
187920,note_on,0,0,1,,,,,,,,0,,,,76,92
187920,note_off,240,0,10,,,,,,,,5,,,,62,64
187920,note_on,0,0,10,,,,,,,,5,,,,64,92
187920,note_on,0,0,18,,,,,,,,11,,,,76,108
187920,note_off,240,0,3,,,,,,,,2,,,,78,64
187920,note_off,240,0,18,,,,,,,,11,,,,78,64
187920,note_off,240,0,11,,,,,,,,6,,,,78,64
187920,note_on,0,0,20,,,,,,,,13,,,,64,92
187920,note_off,240,0,20,,,,,,,,13,,,,66,64
188080,note_off,400,0,4,,,,,,,,2,,,,66,64
188080,note_off,400,0,22,,,,,,,,15,,,,38,64
188080,note_off,400,0,16,,,,,,,,8,,,,38,64
188080,note_off,400,0,7,,,,,,,,4,,,,50,64
188080,note_off,400,0,21,,,,,,,,14,,,,50,64
188080,note_off,400,0,15,,,,,,,,7,,,,50,64
188080,note_off,400,0,14,,,,,,,,7,,,,57,64
188080,note_off,400,0,19,,,,,,,,12,,,,66,64
188080,note_off,400,0,2,,,,,,,,0,,,,66,64
188080,note_off,400,0,5,,,,,,,,3,,,,66,64
188080,note_off,400,0,17,,,,,,,,10,,,,50,64
188080,note_off,400,0,13,,,,,,,,7,,,,62,64
188080,note_off,400,0,12,,,,,,,,6,,,,74,64
188080,note_off,400,0,8,,,,,,,,4,,,,38,64
188155,note_off,235,0,18,,,,,,,,11,,,,76,64
188155,note_off,235,0,6,,,,,,,,3,,,,64,64
188155,note_off,235,0,20,,,,,,,,13,,,,64,64
188155,note_off,235,0,3,,,,,,,,2,,,,76,64
188155,note_off,235,0,1,,,,,,,,0,,,,76,64
188155,note_off,235,0,11,,,,,,,,6,,,,76,64
188155,note_off,235,0,9,,,,,,,,5,,,,67,64
188155,note_off,235,0,10,,,,,,,,5,,,,64,64
188160,note_on,80,0,8,,,,,,,,4,,,,38,92
188160,note_on,80,0,13,,,,,,,,7,,,,62,92
188160,note_on,5,0,11,,,,,,,,6,,,,78,92
188160,note_on,80,0,19,,,,,,,,12,,,,71,92
188160,note_on,80,0,5,,,,,,,,3,,,,67,92
188160,note_on,5,0,18,,,,,,,,11,,,,78,108
188160,note_on,80,0,2,,,,,,,,0,,,,74,92
188160,note_on,80,0,21,,,,,,,,14,,,,55,92
188160,note_on,80,0,12,,,,,,,,6,,,,74,92
188160,note_on,5,0,20,,,,,,,,13,,,,66,92
188160,note_on,80,0,17,,,,,,,,10,,,,50,92
188160,note_on,5,0,6,,,,,,,,3,,,,66,92
188160,note_on,80,0,16,,,,,,,,8,,,,38,92
188160,note_on,80,0,22,,,,,,,,15,,,,43,92
188160,note_on,5,0,9,,,,,,,,5,,,,69,92
188160,note_on,5,0,1,,,,,,,,0,,,,78,92
188160,note_on,5,0,10,,,,,,,,5,,,,66,92
188160,note_on,5,0,3,,,,,,,,2,,,,78,92
188160,note_on,80,0,4,,,,,,,,2,,,,71,92
188160,note_on,80,0,15,,,,,,,,7,,,,50,92
188160,note_on,80,0,7,,,,,,,,4,,,,55,92
188240,note_off,80,0,6,,,,,,,,3,,,,66,64
188240,note_off,80,0,18,,,,,,,,11,,,,78,64
188240,note_off,80,0,20,,,,,,,,13,,,,66,64
188400,note_on,0,0,1,,,,,,,,0,,,,79,92
188400,note_on,160,0,6,,,,,,,,3,,,,67,92
188400,note_off,240,0,13,,,,,,,,7,,,,62,64
188400,note_off,240,0,1,,,,,,,,0,,,,78,64
188400,note_on,0,0,10,,,,,,,,5,,,,67,92
188400,note_off,240,0,10,,,,,,,,5,,,,66,64
188400,note_off,240,0,12,,,,,,,,6,,,,74,64
188400,note_on,160,0,18,,,,,,,,11,,,,79,108
188400,note_on,0,0,13,,,,,,,,7,,,,50,92
188400,note_on,0,0,12,,,,,,,,6,,,,62,92
188400,note_on,160,0,20,,,,,,,,13,,,,67,92
188400,note_off,240,0,11,,,,,,,,6,,,,78,64
188400,note_off,240,0,3,,,,,,,,2,,,,78,64
188400,note_on,0,0,11,,,,,,,,6,,,,79,92
188400,note_on,0,0,3,,,,,,,,2,,,,79,92
188400,note_on,0,0,9,,,,,,,,5,,,,71,92
188400,note_on,320,0,14,,,,,,,,7,,,,57,92
188400,note_off,240,0,9,,,,,,,,5,,,,69,64
188480,note_off,80,0,20,,,,,,,,13,,,,67,64
188480,note_off,80,0,6,,,,,,,,3,,,,67,64
188480,note_off,80,0,18,,,,,,,,11,,,,79,64
188560,note_off,400,0,15,,,,,,,,7,,,,50,64
188560,note_off,400,0,16,,,,,,,,8,,,,38,64
188560,note_off,400,0,8,,,,,,,,4,,,,38,64
188560,note_off,400,0,21,,,,,,,,14,,,,55,64
188560,note_off,400,0,2,,,,,,,,0,,,,74,64
188560,note_off,400,0,4,,,,,,,,2,,,,71,64
188560,note_off,400,0,22,,,,,,,,15,,,,43,64
188560,note_off,400,0,7,,,,,,,,4,,,,55,64
188560,note_off,400,0,19,,,,,,,,12,,,,71,64
188560,note_off,400,0,17,,,,,,,,10,,,,50,64
188560,note_off,400,0,5,,,,,,,,3,,,,67,64
188635,note_off,235,0,13,,,,,,,,7,,,,50,64
188635,note_off,235,0,10,,,,,,,,5,,,,67,64
188635,note_off,235,0,12,,,,,,,,6,,,,62,64
188635,note_off,235,0,9,,,,,,,,5,,,,71,64
188635,note_off,235,0,3,,,,,,,,2,,,,79,64
188635,note_off,235,0,11,,,,,,,,6,,,,79,64
188635,note_off,235,0,14,,,,,,,,7,,,,57,64
188635,note_off,235,0,1,,,,,,,,0,,,,79,64
188640,note_on,5,0,13,,,,,,,,7,,,,57,92
188640,note_on,160,0,18,,,,,,,,11,,,,76,108
188640,note_on,80,0,8,,,,,,,,4,,,,45,92
188640,note_on,80,0,7,,,,,,,,4,,,,57,92
188640,note_on,5,0,11,,,,,,,,6,,,,76,92
188640,note_on,80,0,17,,,,,,,,10,,,,45,92
188640,note_on,80,0,21,,,,,,,,14,,,,57,92
188640,note_on,80,0,19,,,,,,,,12,,,,64,92
188640,note_on,80,0,2,,,,,,,,0,,,,74,92
188640,note_on,80,0,4,,,,,,,,2,,,,64,92
188640,note_on,80,0,16,,,,,,,,8,,,,45,92
188640,note_on,80,0,5,,,,,,,,3,,,,67,92
188640,note_on,5,0,9,,,,,,,,5,,,,67,92
188640,note_on,5,0,10,,,,,,,,5,,,,64,92
188640,note_on,80,0,22,,,,,,,,15,,,,45,92
188640,note_on,5,0,12,,,,,,,,6,,,,69,92
188640,note_on,160,0,20,,,,,,,,13,,,,64,92
188640,note_on,5,0,14,,,,,,,,7,,,,57,92
188640,note_on,5,0,1,,,,,,,,0,,,,76,92
188640,note_on,160,0,6,,,,,,,,3,,,,64,92
188640,note_on,5,0,3,,,,,,,,2,,,,76,92
188640,note_on,80,0,15,,,,,,,,7,,,,57,92
188720,note_off,80,0,14,,,,,,,,7,,,,57,64
188880,note_on,160,0,14,,,,,,,,7,,,,57,92
188960,note_off,80,0,14,,,,,,,,7,,,,57,64
189040,note_off,400,0,2,,,,,,,,0,,,,74,64
189040,note_off,400,0,19,,,,,,,,12,,,,64,64
189040,note_off,400,0,7,,,,,,,,4,,,,57,64
189040,note_off,400,0,21,,,,,,,,14,,,,57,64
189040,note_off,400,0,4,,,,,,,,2,,,,64,64
189040,note_off,400,0,22,,,,,,,,15,,,,45,64
189120,note_on,160,0,14,,,,,,,,7,,,,57,92
189120,note_on,80,0,22,,,,,,,,15,,,,33,92
189120,note_on,80,0,2,,,,,,,,0,,,,73,92
189120,note_on,80,0,21,,,,,,,,14,,,,45,92
189120,note_on,80,0,19,,,,,,,,12,,,,69,92
189120,note_on,80,0,7,,,,,,,,4,,,,45,92
189120,note_on,80,0,4,,,,,,,,2,,,,69,92
189200,note_off,80,0,14,,,,,,,,7,,,,57,64
189280,note_off,640,0,17,,,,,,,,10,,,,45,64
189360,note_on,0,0,6,,,,,,,,3,,,,62,92
189360,note_off,720,0,15,,,,,,,,7,,,,57,64
189360,note_on,0,0,15,,,,,,,,7,,,,57,92
189360,note_on,0,0,1,,,,,,,,0,,,,74,92
189360,note_on,0,0,20,,,,,,,,13,,,,62,92
189360,note_off,720,0,20,,,,,,,,13,,,,64,64
189360,note_on,80,0,17,,,,,,,,10,,,,45,92
189360,note_off,720,0,13,,,,,,,,7,,,,57,64
189360,note_on,0,0,9,,,,,,,,5,,,,66,92
189360,note_off,720,0,9,,,,,,,,5,,,,67,64
189360,note_off,720,0,5,,,,,,,,3,,,,67,64
189360,note_on,0,0,5,,,,,,,,3,,,,67,92
189360,note_off,720,0,18,,,,,,,,11,,,,76,64
189360,note_on,0,0,18,,,,,,,,11,,,,74,108
189360,note_on,160,0,14,,,,,,,,7,,,,57,92
189360,note_off,720,0,3,,,,,,,,2,,,,76,64
189360,note_on,0,0,3,,,,,,,,2,,,,74,92
189360,note_off,720,0,16,,,,,,,,8,,,,45,64
189360,note_on,0,0,16,,,,,,,,8,,,,45,92
189360,note_on,0,0,11,,,,,,,,6,,,,74,92
189360,note_off,720,0,11,,,,,,,,6,,,,76,64
189360,note_off,720,0,6,,,,,,,,3,,,,64,64
189360,note_off,720,0,1,,,,,,,,0,,,,76,64
189360,note_on,0,0,13,,,,,,,,7,,,,57,92
189360,note_on,0,0,10,,,,,,,,5,,,,62,92
189360,note_off,720,0,10,,,,,,,,5,,,,64,64
189360,note_off,720,0,8,,,,,,,,4,,,,45,64
189360,note_on,0,0,12,,,,,,,,6,,,,69,92
189360,note_on,0,0,8,,,,,,,,4,,,,45,92
189360,note_off,720,0,12,,,,,,,,6,,,,69,64
189440,note_off,80,0,14,,,,,,,,7,,,,57,64
189520,note_off,400,0,19,,,,,,,,12,,,,69,64
189520,note_off,400,0,4,,,,,,,,2,,,,69,64
189520,note_off,400,0,7,,,,,,,,4,,,,45,64
189520,note_off,400,0,22,,,,,,,,15,,,,33,64
189520,note_off,400,0,21,,,,,,,,14,,,,45,64
189520,note_off,400,0,2,,,,,,,,0,,,,73,64
189595,note_off,235,0,8,,,,,,,,4,,,,45,64
189595,note_off,235,0,17,,,,,,,,10,,,,45,64
189595,note_off,235,0,13,,,,,,,,7,,,,57,64
189595,note_off,235,0,9,,,,,,,,5,,,,66,64
189595,note_off,235,0,5,,,,,,,,3,,,,67,64
189595,note_off,235,0,10,,,,,,,,5,,,,62,64
189595,note_off,235,0,3,,,,,,,,2,,,,74,64
189595,note_off,235,0,18,,,,,,,,11,,,,74,64
189595,note_off,235,0,20,,,,,,,,13,,,,62,64
189595,note_off,235,0,15,,,,,,,,7,,,,57,64
189595,note_off,235,0,16,,,,,,,,8,,,,45,64
189595,note_off,235,0,6,,,,,,,,3,,,,62,64
189595,note_off,235,0,11,,,,,,,,6,,,,74,64
189595,note_off,235,0,12,,,,,,,,6,,,,69,64
189595,note_off,235,0,1,,,,,,,,0,,,,74,64
189600,note_on,5,0,12,,,,,,,,6,,,,69,92
189600,note_on,5,0,8,,,,,,,,4,,,,38,92
189600,note_on,5,0,17,,,,,,,,10,,,,50,92
189600,note_on,80,0,21,,,,,,,,14,,,,50,92
189600,note_on,5,0,9,,,,,,,,5,,,,66,92
189600,note_on,5,0,5,,,,,,,,3,,,,66,92
189600,note_on,5,0,6,,,,,,,,3,,,,62,92
189600,note_on,80,0,7,,,,,,,,4,,,,50,92
189600,note_on,5,0,18,,,,,,,,11,,,,74,108
189600,note_on,160,0,14,,,,,,,,7,,,,54,92
189600,note_on,80,0,22,,,,,,,,15,,,,38,92
189600,note_on,5,0,15,,,,,,,,7,,,,50,92
189600,note_on,5,0,16,,,,,,,,8,,,,38,92
189600,note_on,80,0,4,,,,,,,,2,,,,66,92
189600,note_on,5,0,10,,,,,,,,5,,,,62,92
189600,note_on,5,0,11,,,,,,,,6,,,,74,92
189600,note_on,5,0,3,,,,,,,,2,,,,74,92
189600,note_on,5,0,20,,,,,,,,13,,,,62,92
189600,note_on,80,0,19,,,,,,,,12,,,,66,92
189600,note_on,5,0,1,,,,,,,,0,,,,74,92
189600,note_on,5,0,13,,,,,,,,7,,,,57,92
189600,note_on,80,0,2,,,,,,,,0,,,,66,92
189680,note_off,80,0,16,,,,,,,,8,,,,38,64
189680,note_off,80,0,14,,,,,,,,7,,,,54,64
189680,note_off,80,0,3,,,,,,,,2,,,,74,64
189680,note_off,80,0,13,,,,,,,,7,,,,57,64
189680,note_off,80,0,11,,,,,,,,6,,,,74,64
189680,note_off,80,0,12,,,,,,,,6,,,,69,64
189680,note_off,80,0,17,,,,,,,,10,,,,50,64
189680,note_off,80,0,15,,,,,,,,7,,,,50,64
189680,note_off,80,0,8,,,,,,,,4,,,,38,64
189840,note_on,160,0,12,,,,,,,,6,,,,66,92
189840,note_on,160,0,13,,,,,,,,7,,,,54,92
189840,note_on,160,0,14,,,,,,,,7,,,,50,92
189840,note_on,160,0,16,,,,,,,,8,,,,38,92
189840,note_on,160,0,11,,,,,,,,6,,,,69,92
189840,note_on,160,0,17,,,,,,,,10,,,,50,92
189840,note_on,160,0,8,,,,,,,,4,,,,38,92
189840,note_on,160,0,15,,,,,,,,7,,,,50,92
189920,note_off,80,0,16,,,,,,,,8,,,,38,64
189920,note_off,80,0,8,,,,,,,,4,,,,38,64
189920,note_off,80,0,17,,,,,,,,10,,,,50,64
189920,note_off,80,0,14,,,,,,,,7,,,,50,64
189920,note_off,80,0,11,,,,,,,,6,,,,69,64
189920,note_off,80,0,12,,,,,,,,6,,,,66,64
189920,note_off,80,0,13,,,,,,,,7,,,,54,64
189920,note_off,80,0,15,,,,,,,,7,,,,50,64
189960,note_on,40,0,13,,,,,,,,7,,,,54,92
189960,note_on,40,0,11,,,,,,,,6,,,,69,92
189960,note_on,40,0,15,,,,,,,,7,,,,50,92
189960,note_on,40,0,8,,,,,,,,4,,,,38,92
189960,note_on,40,0,16,,,,,,,,8,,,,38,92
189960,note_on,40,0,17,,,,,,,,10,,,,50,92
189960,note_on,40,0,12,,,,,,,,6,,,,66,92
189960,note_on,40,0,14,,,,,,,,7,,,,50,92
190000,note_off,400,0,6,,,,,,,,3,,,,62,64
190000,note_off,400,0,5,,,,,,,,3,,,,66,64
190000,note_off,400,0,1,,,,,,,,0,,,,74,64
190000,note_off,400,0,22,,,,,,,,15,,,,38,64
190000,note_off,400,0,19,,,,,,,,12,,,,66,64
190000,note_off,400,0,20,,,,,,,,13,,,,62,64
190000,note_off,400,0,10,,,,,,,,5,,,,62,64
190000,note_off,400,0,4,,,,,,,,2,,,,66,64
190000,note_off,400,0,7,,,,,,,,4,,,,50,64
190000,note_off,400,0,9,,,,,,,,5,,,,66,64
190000,note_off,400,0,2,,,,,,,,0,,,,66,64
190000,note_off,400,0,18,,,,,,,,11,,,,74,64
190000,note_off,400,0,21,,,,,,,,14,,,,50,64
190040,note_off,80,0,8,,,,,,,,4,,,,38,64
190040,note_off,80,0,14,,,,,,,,7,,,,50,64
190040,note_off,80,0,15,,,,,,,,7,,,,50,64
190040,note_off,80,0,16,,,,,,,,8,,,,38,64
190040,note_off,80,0,12,,,,,,,,6,,,,66,64
190040,note_off,80,0,17,,,,,,,,10,,,,50,64
190040,note_off,80,0,13,,,,,,,,7,,,,54,64
190040,note_off,80,0,11,,,,,,,,6,,,,69,64
190080,note_on,40,0,13,,,,,,,,7,,,,54,92
190080,note_on,40,0,15,,,,,,,,7,,,,50,92
190080,note_on,40,0,17,,,,,,,,10,,,,50,92
190080,note_on,40,0,8,,,,,,,,4,,,,38,92
190080,note_on,40,0,12,,,,,,,,6,,,,66,92
190080,note_on,40,0,11,,,,,,,,6,,,,69,92
190080,note_on,40,0,14,,,,,,,,7,,,,50,92
190080,note_on,40,0,16,,,,,,,,8,,,,38,92
190160,note_off,80,0,12,,,,,,,,6,,,,66,64
190160,note_off,80,0,16,,,,,,,,8,,,,38,64
190160,note_off,80,0,13,,,,,,,,7,,,,54,64
190160,note_off,80,0,17,,,,,,,,10,,,,50,64
190160,note_off,80,0,8,,,,,,,,4,,,,38,64
190160,note_off,80,0,15,,,,,,,,7,,,,50,64
190160,note_off,80,0,14,,,,,,,,7,,,,50,64
190160,note_off,80,0,11,,,,,,,,6,,,,69,64
190320,note_on,160,0,14,,,,,,,,7,,,,50,92
190320,note_on,160,0,17,,,,,,,,10,,,,50,92
190320,note_on,160,0,8,,,,,,,,4,,,,38,92
190320,note_on,160,0,11,,,,,,,,6,,,,69,92
190320,note_on,160,0,12,,,,,,,,6,,,,66,92
190320,note_on,160,0,15,,,,,,,,7,,,,50,92
190320,note_on,160,0,16,,,,,,,,8,,,,38,92
190320,note_on,160,0,13,,,,,,,,7,,,,54,92
190400,note_off,80,0,17,,,,,,,,10,,,,50,64
190400,note_off,80,0,15,,,,,,,,7,,,,50,64
190400,note_off,80,0,16,,,,,,,,8,,,,38,64
190400,note_off,80,0,13,,,,,,,,7,,,,54,64
190400,note_off,80,0,8,,,,,,,,4,,,,38,64
190400,note_off,80,0,12,,,,,,,,6,,,,66,64
190400,note_off,80,0,11,,,,,,,,6,,,,69,64
190400,note_off,80,0,14,,,,,,,,7,,,,50,64
190560,note_on,160,0,13,,,,,,,,7,,,,54,92
190560,note_on,160,0,17,,,,,,,,10,,,,50,92
190560,note_on,160,0,12,,,,,,,,6,,,,66,92
190560,note_on,160,0,11,,,,,,,,6,,,,69,92
190560,note_on,160,0,8,,,,,,,,4,,,,38,92
190560,note_on,160,0,16,,,,,,,,8,,,,38,92
190560,note_on,160,0,15,,,,,,,,7,,,,50,92
190560,note_on,160,0,14,,,,,,,,7,,,,50,92
190640,note_off,80,0,8,,,,,,,,4,,,,38,64
190640,note_off,80,0,17,,,,,,,,10,,,,50,64
190640,note_off,80,0,14,,,,,,,,7,,,,50,64
190640,note_off,80,0,15,,,,,,,,7,,,,50,64
190640,note_off,80,0,12,,,,,,,,6,,,,66,64
190640,note_off,80,0,16,,,,,,,,8,,,,38,64
190640,note_off,80,0,13,,,,,,,,7,,,,54,64
190640,note_off,80,0,11,,,,,,,,6,,,,69,64
190800,note_on,160,0,14,,,,,,,,7,,,,50,92
190800,note_on,160,0,11,,,,,,,,6,,,,69,92
190800,note_on,160,0,15,,,,,,,,7,,,,50,92
190800,note_on,160,0,16,,,,,,,,8,,,,38,92
190800,note_on,160,0,17,,,,,,,,10,,,,50,92
190800,note_on,160,0,13,,,,,,,,7,,,,54,92
190800,note_on,160,0,12,,,,,,,,6,,,,66,92
190800,note_on,160,0,8,,,,,,,,4,,,,38,92
190880,note_off,80,0,15,,,,,,,,7,,,,50,64
190880,note_off,80,0,16,,,,,,,,8,,,,38,64
190880,note_off,80,0,12,,,,,,,,6,,,,66,64
190880,note_off,80,0,8,,,,,,,,4,,,,38,64
190880,note_off,80,0,11,,,,,,,,6,,,,69,64
190880,note_off,80,0,13,,,,,,,,7,,,,54,64
190880,note_off,80,0,14,,,,,,,,7,,,,50,64
190880,note_off,80,0,17,,,,,,,,10,,,,50,64
191040,note_on,160,0,12,,,,,,,,6,,,,69,92
191040,note_on,160,0,8,,,,,,,,4,,,,38,92
191040,note_on,160,0,13,,,,,,,,7,,,,57,92
191040,note_on,160,0,11,,,,,,,,6,,,,74,92
191040,note_on,160,0,14,,,,,,,,7,,,,54,92
191040,note_on,160,0,15,,,,,,,,7,,,,50,92
191040,note_on,160,0,17,,,,,,,,10,,,,50,92
191040,note_on,160,0,16,,,,,,,,8,,,,38,92
191120,note_off,80,0,14,,,,,,,,7,,,,54,64
191120,note_off,80,0,15,,,,,,,,7,,,,50,64
191120,note_off,80,0,12,,,,,,,,6,,,,69,64
191120,note_off,80,0,8,,,,,,,,4,,,,38,64
191120,note_off,80,0,16,,,,,,,,8,,,,38,64
191120,note_off,80,0,11,,,,,,,,6,,,,74,64
191120,note_off,80,0,17,,,,,,,,10,,,,50,64
191120,note_off,80,0,13,,,,,,,,7,,,,57,64
191280,note_on,160,0,12,,,,,,,,6,,,,66,92
191280,note_on,160,0,16,,,,,,,,8,,,,38,92
191280,note_on,160,0,14,,,,,,,,7,,,,50,92
191280,note_on,160,0,15,,,,,,,,7,,,,50,92
191280,note_on,160,0,13,,,,,,,,7,,,,54,92
191280,note_on,160,0,17,,,,,,,,10,,,,50,92
191280,note_on,160,0,11,,,,,,,,6,,,,69,92
191280,note_on,160,0,8,,,,,,,,4,,,,38,92
191360,note_off,80,0,11,,,,,,,,6,,,,69,64
191360,note_off,80,0,8,,,,,,,,4,,,,38,64
191360,note_off,80,0,14,,,,,,,,7,,,,50,64
191360,note_off,80,0,12,,,,,,,,6,,,,66,64
191360,note_off,80,0,16,,,,,,,,8,,,,38,64
191360,note_off,80,0,13,,,,,,,,7,,,,54,64
191360,note_off,80,0,17,,,,,,,,10,,,,50,64
191360,note_off,80,0,15,,,,,,,,7,,,,50,64
191520,note_on,160,0,11,,,,,,,,6,,,,71,92
191520,note_on,1520,0,2,,,,,,,,0,,,,71,45
191520,note_on,160,0,16,,,,,,,,8,,,,38,92
191520,note_on,160,0,13,,,,,,,,7,,,,55,92
191520,note_on,1840,0,3,,,,,,,,2,,,,74,45
191520,note_on,1520,0,20,,,,,,,,13,,,,62,45
191520,note_on,160,0,17,,,,,,,,10,,,,50,92
191520,note_on,1520,0,7,,,,,,,,4,,,,50,45
191520,note_on,160,0,14,,,,,,,,7,,,,52,92
191520,note_on,160,0,15,,,,,,,,7,,,,50,92
191520,note_on,1520,0,4,,,,,,,,2,,,,71,45
191520,note_on,160,0,12,,,,,,,,6,,,,67,92
191520,note_on,1520,0,22,,,,,,,,15,,,,38,45
191520,note_on,1520,0,5,,,,,,,,3,,,,74,45
191520,note_on,1520,0,18,,,,,,,,11,,,,74,60
191520,note_on,160,0,8,,,,,,,,4,,,,38,45
191520,note_on,1520,0,19,,,,,,,,12,,,,71,45
191520,note_on,1520,0,6,,,,,,,,3,,,,71,45
191520,note_on,1520,0,1,,,,,,,,0,,,,74,45
191520,note_on,1520,0,21,,,,,,,,14,,,,50,45
191880,note_off,360,0,19,,,,,,,,12,,,,71,64
191880,note_on,0,0,19,,,,,,,,12,,,,73,45
191880,note_on,0,0,3,,,,,,,,2,,,,76,45
191880,note_on,0,0,1,,,,,,,,0,,,,76,45
191880,note_off,360,0,1,,,,,,,,0,,,,74,64
191880,note_on,0,0,4,,,,,,,,2,,,,73,45
191880,note_off,360,0,4,,,,,,,,2,,,,71,64
191880,note_off,360,0,3,,,,,,,,2,,,,74,64
191880,note_on,0,0,2,,,,,,,,0,,,,73,45
191880,note_off,360,0,6,,,,,,,,3,,,,71,64
191880,note_off,360,0,5,,,,,,,,3,,,,74,64
191880,note_off,360,0,18,,,,,,,,11,,,,74,64
191880,note_on,0,0,18,,,,,,,,11,,,,76,60
191880,note_off,360,0,2,,,,,,,,0,,,,71,64
191880,note_on,0,0,5,,,,,,,,3,,,,76,45
191880,note_on,0,0,6,,,,,,,,3,,,,73,45
191880,note_off,360,0,20,,,,,,,,13,,,,62,64
191880,note_on,0,0,20,,,,,,,,13,,,,64,45
191920,note_off,400,0,22,,,,,,,,15,,,,38,64
191920,note_off,400,0,8,,,,,,,,4,,,,38,64
191920,note_off,400,0,12,,,,,,,,6,,,,67,64
191920,note_off,400,0,15,,,,,,,,7,,,,50,64
191920,note_off,400,0,17,,,,,,,,10,,,,50,64
191920,note_off,400,0,11,,,,,,,,6,,,,71,64
191920,note_off,400,0,16,,,,,,,,8,,,,38,64
191920,note_off,400,0,13,,,,,,,,7,,,,55,64
191920,note_off,400,0,14,,,,,,,,7,,,,52,64
191920,note_off,400,0,21,,,,,,,,14,,,,50,64
191920,note_off,400,0,7,,,,,,,,4,,,,50,64
191995,note_off,115,0,20,,,,,,,,13,,,,64,64
191995,note_off,115,0,2,,,,,,,,0,,,,73,64
191995,note_off,115,0,3,,,,,,,,2,,,,76,64
191995,note_off,115,0,1,,,,,,,,0,,,,76,64
191995,note_off,115,0,19,,,,,,,,12,,,,73,64
191995,note_off,115,0,18,,,,,,,,11,,,,76,64
191995,note_off,115,0,4,,,,,,,,2,,,,73,64
191995,note_off,115,0,5,,,,,,,,3,,,,76,64
191995,note_off,115,0,6,,,,,,,,3,,,,73,64
192000,note_on,5,0,1,,,,,,,,0,,,,78,45
192000,note_on,80,0,22,,,,,,,,15,,,,38,45
192000,note_on,5,0,6,,,,,,,,3,,,,74,45
192000,note_on,5,0,19,,,,,,,,12,,,,74,45
192000,note_on,5,0,5,,,,,,,,3,,,,78,45
192000,note_on,5,0,18,,,,,,,,11,,,,78,60
192000,note_on,80,0,8,,,,,,,,4,,,,38,45
192000,note_on,5,0,2,,,,,,,,0,,,,74,45
192000,note_on,80,0,21,,,,,,,,14,,,,50,45
192000,note_on,80,0,7,,,,,,,,4,,,,50,45
192000,note_on,5,0,3,,,,,,,,2,,,,78,45
192000,note_on,5,0,4,,,,,,,,2,,,,74,45
192000,note_on,5,0,20,,,,,,,,13,,,,66,45
192360,note_off,360,0,18,,,,,,,,11,,,,78,64
192360,note_off,360,0,5,,,,,,,,3,,,,78,64
192360,note_on,0,0,5,,,,,,,,3,,,,79,45
192360,note_on,0,0,6,,,,,,,,3,,,,76,45
192360,note_on,0,0,3,,,,,,,,2,,,,79,45
192360,note_on,0,0,18,,,,,,,,11,,,,79,60
192360,note_off,360,0,6,,,,,,,,3,,,,74,64
192360,note_on,0,0,19,,,,,,,,12,,,,76,45
192360,note_off,360,0,4,,,,,,,,2,,,,74,64
192360,note_on,0,0,4,,,,,,,,2,,,,76,45
192360,note_off,360,0,19,,,,,,,,12,,,,74,64
192360,note_off,360,0,2,,,,,,,,0,,,,74,64
192360,note_on,0,0,2,,,,,,,,0,,,,76,45
192360,note_off,360,0,20,,,,,,,,13,,,,66,64
192360,note_on,0,0,20,,,,,,,,13,,,,67,45
192360,note_off,360,0,3,,,,,,,,2,,,,78,64
192360,note_on,0,0,1,,,,,,,,0,,,,79,45
192360,note_off,360,0,1,,,,,,,,0,,,,78,64
192400,note_off,400,0,8,,,,,,,,4,,,,38,64
192400,note_off,400,0,7,,,,,,,,4,,,,50,64
192400,note_off,400,0,21,,,,,,,,14,,,,50,64
192400,note_off,400,0,22,,,,,,,,15,,,,38,64
192475,note_off,115,0,19,,,,,,,,12,,,,76,64
192475,note_off,115,0,1,,,,,,,,0,,,,79,64
192475,note_off,115,0,2,,,,,,,,0,,,,76,64
192475,note_off,115,0,6,,,,,,,,3,,,,76,64
192475,note_off,115,0,18,,,,,,,,11,,,,79,64
192475,note_off,115,0,20,,,,,,,,13,,,,67,64
192475,note_off,115,0,4,,,,,,,,2,,,,76,64
192475,note_off,115,0,3,,,,,,,,2,,,,79,64
192475,note_off,115,0,5,,,,,,,,3,,,,79,64
192480,note_on,80,0,21,,,,,,,,14,,,,52,45
192480,note_on,5,0,4,,,,,,,,2,,,,73,45
192480,note_on,80,0,7,,,,,,,,4,,,,52,45
192480,note_on,5,0,3,,,,,,,,2,,,,76,45
192480,note_on,5,0,18,,,,,,,,11,,,,76,60
192480,note_on,5,0,5,,,,,,,,3,,,,76,45
192480,note_on,5,0,6,,,,,,,,3,,,,73,45
192480,note_on,80,0,8,,,,,,,,4,,,,40,45
192480,note_on,5,0,1,,,,,,,,0,,,,76,45
192480,note_on,5,0,19,,,,,,,,12,,,,73,45
192480,note_on,5,0,2,,,,,,,,0,,,,73,45
192480,note_on,80,0,22,,,,,,,,15,,,,40,45
192480,note_on,5,0,20,,,,,,,,13,,,,64,45
192840,note_on,0,0,20,,,,,,,,13,,,,66,45
192840,note_off,360,0,6,,,,,,,,3,,,,73,64
192840,note_off,360,0,3,,,,,,,,2,,,,76,64
192840,note_on,0,0,3,,,,,,,,2,,,,78,45
192840,note_on,0,0,1,,,,,,,,0,,,,78,45
192840,note_off,360,0,1,,,,,,,,0,,,,76,64
192840,note_off,360,0,20,,,,,,,,13,,,,64,64
192840,note_on,0,0,5,,,,,,,,3,,,,78,45
192840,note_off,360,0,19,,,,,,,,12,,,,73,64
192840,note_on,0,0,19,,,,,,,,12,,,,74,45
192840,note_on,0,0,2,,,,,,,,0,,,,74,45
192840,note_off,360,0,4,,,,,,,,2,,,,73,64
192840,note_on,0,0,4,,,,,,,,2,,,,74,45
192840,note_off,360,0,2,,,,,,,,0,,,,73,64
192840,note_on,0,0,18,,,,,,,,11,,,,78,60
192840,note_off,360,0,18,,,,,,,,11,,,,76,64
192840,note_on,0,0,6,,,,,,,,3,,,,74,45
192840,note_off,360,0,5,,,,,,,,3,,,,76,64
192880,note_off,400,0,22,,,,,,,,15,,,,40,64
192880,note_off,400,0,8,,,,,,,,4,,,,40,64
192880,note_off,400,0,21,,,,,,,,14,,,,52,64
192880,note_off,400,0,7,,,,,,,,4,,,,52,64
192955,note_off,115,0,5,,,,,,,,3,,,,78,64
192955,note_off,115,0,18,,,,,,,,11,,,,78,64
192955,note_off,115,0,20,,,,,,,,13,,,,66,64
192955,note_off,115,0,3,,,,,,,,2,,,,78,64
192955,note_off,115,0,19,,,,,,,,12,,,,74,64
192955,note_off,115,0,6,,,,,,,,3,,,,74,64
192955,note_off,115,0,1,,,,,,,,0,,,,78,64
192955,note_off,115,0,4,,,,,,,,2,,,,74,64
192955,note_off,115,0,2,,,,,,,,0,,,,74,64
192960,note_on,5,0,6,,,,,,,,3,,,,73,45
192960,note_on,5,0,5,,,,,,,,3,,,,76,45
192960,note_on,80,0,8,,,,,,,,4,,,,40,45
192960,note_on,5,0,18,,,,,,,,11,,,,76,60
192960,note_on,5,0,3,,,,,,,,2,,,,76,45
192960,note_on,5,0,1,,,,,,,,0,,,,76,45
192960,note_on,80,0,7,,,,,,,,4,,,,52,45
192960,note_on,5,0,2,,,,,,,,0,,,,73,45
192960,note_on,80,0,21,,,,,,,,14,,,,52,45
192960,note_on,5,0,19,,,,,,,,12,,,,73,45
192960,note_on,5,0,4,,,,,,,,2,,,,73,45
192960,note_on,80,0,22,,,,,,,,15,,,,40,45
192960,note_on,5,0,20,,,,,,,,13,,,,64,45
193320,note_on,0,0,18,,,,,,,,11,,,,78,60
193320,note_on,0,0,6,,,,,,,,3,,,,74,45
193320,note_on,0,0,4,,,,,,,,2,,,,74,45
193320,note_off,360,0,1,,,,,,,,0,,,,76,64
193320,note_on,0,0,1,,,,,,,,0,,,,78,45
193320,note_off,360,0,18,,,,,,,,11,,,,76,64
193320,note_off,360,0,4,,,,,,,,2,,,,73,64
193320,note_on,0,0,3,,,,,,,,2,,,,78,45
193320,note_off,360,0,3,,,,,,,,2,,,,76,64
193320,note_off,360,0,6,,,,,,,,3,,,,73,64
193320,note_off,360,0,19,,,,,,,,12,,,,73,64
193320,note_on,0,0,19,,,,,,,,12,,,,74,45
193320,note_off,360,0,5,,,,,,,,3,,,,76,64
193320,note_off,360,0,20,,,,,,,,13,,,,64,64
193320,note_on,0,0,20,,,,,,,,13,,,,66,45
193320,note_on,0,0,5,,,,,,,,3,,,,78,45
193320,note_off,360,0,2,,,,,,,,0,,,,73,64
193320,note_on,0,0,2,,,,,,,,0,,,,74,45
193360,note_off,400,0,8,,,,,,,,4,,,,40,64
193360,note_off,400,0,22,,,,,,,,15,,,,40,64
193360,note_off,400,0,7,,,,,,,,4,,,,52,64
193360,note_off,400,0,21,,,,,,,,14,,,,52,64
193435,note_off,115,0,1,,,,,,,,0,,,,78,64
193435,note_off,115,0,5,,,,,,,,3,,,,78,64
193435,note_off,115,0,2,,,,,,,,0,,,,74,64
193435,note_off,115,0,18,,,,,,,,11,,,,78,64
193435,note_off,115,0,3,,,,,,,,2,,,,78,64
193435,note_off,115,0,4,,,,,,,,2,,,,74,64
193435,note_off,115,0,19,,,,,,,,12,,,,74,64
193435,note_off,115,0,20,,,,,,,,13,,,,66,64
193435,note_off,115,0,6,,,,,,,,3,,,,74,64
193440,note_on,5,0,2,,,,,,,,0,,,,71,45
193440,note_on,5,0,1,,,,,,,,0,,,,74,45
193440,note_on,80,0,7,,,,,,,,4,,,,52,45
193440,note_on,5,0,19,,,,,,,,12,,,,71,45
193440,note_on,80,0,21,,,,,,,,14,,,,52,45
193440,note_on,5,0,5,,,,,,,,3,,,,74,45
193440,note_on,5,0,6,,,,,,,,3,,,,71,45
193440,note_on,5,0,4,,,,,,,,2,,,,71,45
193440,note_on,80,0,22,,,,,,,,15,,,,40,45
193440,note_on,5,0,20,,,,,,,,13,,,,62,45
193440,note_on,5,0,3,,,,,,,,2,,,,74,45
193440,note_on,5,0,18,,,,,,,,11,,,,74,60
193440,note_on,80,0,8,,,,,,,,4,,,,40,45
193800,note_off,360,0,18,,,,,,,,11,,,,74,64
193800,note_off,360,0,5,,,,,,,,3,,,,74,64
193800,note_on,0,0,5,,,,,,,,3,,,,76,45
193800,note_on,0,0,20,,,,,,,,13,,,,64,45
193800,note_on,0,0,19,,,,,,,,12,,,,73,45
193800,note_off,360,0,19,,,,,,,,12,,,,71,64
193800,note_off,360,0,20,,,,,,,,13,,,,62,64
193800,note_on,0,0,3,,,,,,,,2,,,,76,45
193800,note_on,0,0,2,,,,,,,,0,,,,73,45
193800,note_off,360,0,2,,,,,,,,0,,,,71,64
193800,note_off,360,0,6,,,,,,,,3,,,,71,64
193800,note_off,360,0,4,,,,,,,,2,,,,71,64
193800,note_on,0,0,4,,,,,,,,2,,,,73,45
193800,note_off,360,0,1,,,,,,,,0,,,,74,64
193800,note_on,0,0,1,,,,,,,,0,,,,76,45
193800,note_on,0,0,18,,,,,,,,11,,,,76,60
193800,note_off,360,0,3,,,,,,,,2,,,,74,64
193800,note_on,0,0,6,,,,,,,,3,,,,73,45
193840,note_off,400,0,22,,,,,,,,15,,,,40,64
193840,note_off,400,0,21,,,,,,,,14,,,,52,64
193840,note_off,400,0,7,,,,,,,,4,,,,52,64
193840,note_off,400,0,8,,,,,,,,4,,,,40,64
193915,note_off,115,0,19,,,,,,,,12,,,,73,64
193915,note_off,115,0,6,,,,,,,,3,,,,73,64
193915,note_off,115,0,3,,,,,,,,2,,,,76,64
193915,note_off,115,0,2,,,,,,,,0,,,,73,64
193915,note_off,115,0,1,,,,,,,,0,,,,76,64
193915,note_off,115,0,5,,,,,,,,3,,,,76,64
193915,note_off,115,0,4,,,,,,,,2,,,,73,64
193915,note_off,115,0,18,,,,,,,,11,,,,76,64
193915,note_off,115,0,20,,,,,,,,13,,,,64,64
193920,note_on,5,0,3,,,,,,,,2,,,,73,45
193920,note_on,5,0,2,,,,,,,,0,,,,70,45
193920,note_on,5,0,1,,,,,,,,0,,,,73,45
193920,note_on,80,0,7,,,,,,,,4,,,,54,45
193920,note_on,5,0,6,,,,,,,,3,,,,70,45
193920,note_on,80,0,22,,,,,,,,15,,,,42,45
193920,note_on,80,0,21,,,,,,,,14,,,,54,45
193920,note_on,5,0,18,,,,,,,,11,,,,73,60
193920,note_on,5,0,4,,,,,,,,2,,,,70,45
193920,note_on,5,0,5,,,,,,,,3,,,,73,45
193920,note_on,80,0,8,,,,,,,,4,,,,42,45
193920,note_on,5,0,19,,,,,,,,12,,,,70,45
193920,note_on,5,0,20,,,,,,,,13,,,,61,45
194280,note_off,360,0,1,,,,,,,,0,,,,73,64
194280,note_off,360,0,18,,,,,,,,11,,,,73,64
194280,note_on,0,0,2,,,,,,,,0,,,,71,45
194280,note_off,360,0,2,,,,,,,,0,,,,70,64
194280,note_on,0,0,6,,,,,,,,3,,,,71,45
194280,note_off,360,0,6,,,,,,,,3,,,,70,64
194280,note_on,0,0,18,,,,,,,,11,,,,74,60
194280,note_off,360,0,19,,,,,,,,12,,,,70,64
194280,note_on,0,0,19,,,,,,,,12,,,,71,45
194280,note_on,0,0,5,,,,,,,,3,,,,74,45
194280,note_off,360,0,5,,,,,,,,3,,,,73,64
194280,note_off,360,0,4,,,,,,,,2,,,,70,64
194280,note_on,0,0,1,,,,,,,,0,,,,74,45
194280,note_off,360,0,20,,,,,,,,13,,,,61,64
194280,note_on,0,0,4,,,,,,,,2,,,,71,45
194280,note_on,0,0,20,,,,,,,,13,,,,62,45
194280,note_on,0,0,3,,,,,,,,2,,,,74,45
194280,note_off,360,0,3,,,,,,,,2,,,,73,64
194320,note_off,400,0,22,,,,,,,,15,,,,42,64
194320,note_off,400,0,7,,,,,,,,4,,,,54,64
194320,note_off,400,0,21,,,,,,,,14,,,,54,64
194320,note_off,400,0,8,,,,,,,,4,,,,42,64
194395,note_off,115,0,4,,,,,,,,2,,,,71,64
194395,note_off,115,0,18,,,,,,,,11,,,,74,64
194395,note_off,115,0,19,,,,,,,,12,,,,71,64
194395,note_off,115,0,6,,,,,,,,3,,,,71,64
194395,note_off,115,0,20,,,,,,,,13,,,,62,64
194395,note_off,115,0,3,,,,,,,,2,,,,74,64
194395,note_off,115,0,2,,,,,,,,0,,,,71,64
194395,note_off,115,0,5,,,,,,,,3,,,,74,64
194395,note_off,115,0,1,,,,,,,,0,,,,74,64
194400,note_on,5,0,4,,,,,,,,2,,,,70,45
194400,note_on,5,0,18,,,,,,,,11,,,,73,60
194400,note_on,5,0,5,,,,,,,,3,,,,73,45
194400,note_on,80,0,7,,,,,,,,4,,,,54,45
194400,note_on,80,0,8,,,,,,,,4,,,,42,45
194400,note_on,5,0,6,,,,,,,,3,,,,70,45
194400,note_on,80,0,21,,,,,,,,14,,,,54,45
194400,note_on,80,0,22,,,,,,,,15,,,,42,45
194400,note_on,5,0,2,,,,,,,,0,,,,70,45
194400,note_on,5,0,19,,,,,,,,12,,,,70,45
194400,note_on,5,0,1,,,,,,,,0,,,,73,45
194400,note_on,5,0,3,,,,,,,,2,,,,73,45
194400,note_on,5,0,20,,,,,,,,13,,,,61,45
194760,note_off,360,0,1,,,,,,,,0,,,,73,64
194760,note_on,0,0,20,,,,,,,,13,,,,62,45
194760,note_off,360,0,20,,,,,,,,13,,,,61,64
194760,note_off,360,0,5,,,,,,,,3,,,,73,64
194760,note_off,360,0,3,,,,,,,,2,,,,73,64
194760,note_on,0,0,5,,,,,,,,3,,,,74,45
194760,note_off,360,0,6,,,,,,,,3,,,,70,64
194760,note_off,360,0,19,,,,,,,,12,,,,70,64
194760,note_on,0,0,1,,,,,,,,0,,,,74,45
194760,note_on,0,0,3,,,,,,,,2,,,,74,45
194760,note_on,0,0,6,,,,,,,,3,,,,71,45
194760,note_on,0,0,19,,,,,,,,12,,,,71,45
194760,note_on,0,0,4,,,,,,,,2,,,,71,45
194760,note_off,360,0,4,,,,,,,,2,,,,70,64
194760,note_on,0,0,2,,,,,,,,0,,,,71,45
194760,note_off,360,0,2,,,,,,,,0,,,,70,64
194760,note_off,360,0,18,,,,,,,,11,,,,73,64
194760,note_on,0,0,18,,,,,,,,11,,,,74,60
194800,note_off,400,0,21,,,,,,,,14,,,,54,64
194800,note_off,400,0,22,,,,,,,,15,,,,42,64
194800,note_off,400,0,7,,,,,,,,4,,,,54,64
194800,note_off,400,0,8,,,,,,,,4,,,,42,64
194875,note_off,115,0,2,,,,,,,,0,,,,71,64
194875,note_off,115,0,6,,,,,,,,3,,,,71,64
194875,note_off,115,0,1,,,,,,,,0,,,,74,64
194875,note_off,115,0,18,,,,,,,,11,,,,74,64
194875,note_off,115,0,20,,,,,,,,13,,,,62,64
194875,note_off,115,0,3,,,,,,,,2,,,,74,64
194875,note_off,115,0,19,,,,,,,,12,,,,71,64
194875,note_off,115,0,5,,,,,,,,3,,,,74,64
194875,note_off,115,0,4,,,,,,,,2,,,,71,64
194880,note_on,5,0,19,,,,,,,,12,,,,73,45
194880,note_on,5,0,6,,,,,,,,3,,,,73,45
194880,note_on,80,0,8,,,,,,,,4,,,,42,45
194880,note_on,5,0,3,,,,,,,,2,,,,76,45
194880,note_on,5,0,2,,,,,,,,0,,,,73,45
194880,note_on,5,0,4,,,,,,,,2,,,,73,45
194880,note_on,80,0,22,,,,,,,,15,,,,42,45
194880,note_on,5,0,20,,,,,,,,13,,,,64,45
194880,note_on,5,0,1,,,,,,,,0,,,,76,45
194880,note_on,80,0,21,,,,,,,,14,,,,54,45
194880,note_on,5,0,5,,,,,,,,3,,,,76,45
194880,note_on,5,0,18,,,,,,,,11,,,,76,60
194880,note_on,80,0,7,,,,,,,,4,,,,54,45
195240,note_on,0,0,1,,,,,,,,0,,,,78,45
195240,note_on,0,0,2,,,,,,,,0,,,,74,45
195240,note_on,0,0,5,,,,,,,,3,,,,78,45
195240,note_off,360,0,5,,,,,,,,3,,,,76,64
195240,note_off,360,0,2,,,,,,,,0,,,,73,64
195240,note_on,0,0,18,,,,,,,,11,,,,78,60
195240,note_off,360,0,18,,,,,,,,11,,,,76,64
195240,note_on,0,0,20,,,,,,,,13,,,,66,45
195240,note_on,0,0,4,,,,,,,,2,,,,74,45
195240,note_off,360,0,1,,,,,,,,0,,,,76,64
195240,note_off,360,0,4,,,,,,,,2,,,,73,64
195240,note_off,360,0,20,,,,,,,,13,,,,64,64
195240,note_off,360,0,19,,,,,,,,12,,,,73,64
195240,note_on,0,0,19,,,,,,,,12,,,,74,45
195240,note_off,360,0,3,,,,,,,,2,,,,76,64
195240,note_on,0,0,3,,,,,,,,2,,,,78,45
195240,note_on,0,0,6,,,,,,,,3,,,,74,45
195240,note_off,360,0,6,,,,,,,,3,,,,73,64
195280,note_off,400,0,7,,,,,,,,4,,,,54,64
195280,note_off,400,0,21,,,,,,,,14,,,,54,64
195280,note_off,400,0,8,,,,,,,,4,,,,42,64
195280,note_off,400,0,22,,,,,,,,15,,,,42,64
195355,note_off,115,0,6,,,,,,,,3,,,,74,64
195355,note_off,115,0,1,,,,,,,,0,,,,78,64
195355,note_off,115,0,18,,,,,,,,11,,,,78,64
195355,note_off,115,0,4,,,,,,,,2,,,,74,64
195355,note_off,115,0,2,,,,,,,,0,,,,74,64
195355,note_off,115,0,3,,,,,,,,2,,,,78,64
195355,note_off,115,0,19,,,,,,,,12,,,,74,64
195355,note_off,115,0,20,,,,,,,,13,,,,66,64
195355,note_off,115,0,5,,,,,,,,3,,,,78,64
195360,note_on,80,0,7,,,,,,,,4,,,,59,45
195360,note_on,5,0,4,,,,,,,,2,,,,71,45
195360,note_on,80,0,8,,,,,,,,4,,,,47,45
195360,note_on,5,0,20,,,,,,,,13,,,,62,45
195360,note_on,80,0,22,,,,,,,,15,,,,47,45
195360,note_on,5,0,1,,,,,,,,0,,,,74,45
195360,note_on,5,0,3,,,,,,,,2,,,,74,45
195360,note_on,5,0,18,,,,,,,,11,,,,74,60
195360,note_on,5,0,6,,,,,,,,3,,,,71,45
195360,note_on,80,0,21,,,,,,,,14,,,,59,45
195360,note_on,5,0,2,,,,,,,,0,,,,71,45
195360,note_on,5,0,19,,,,,,,,12,,,,71,45
195360,note_on,5,0,5,,,,,,,,3,,,,74,45
195440,note_off,80,0,22,,,,,,,,15,,,,47,64
195440,note_off,80,0,21,,,,,,,,14,,,,59,64
195440,note_off,80,0,8,,,,,,,,4,,,,47,64
195440,note_off,80,0,7,,,,,,,,4,,,,59,64
195600,note_on,160,0,21,,,,,,,,14,,,,47,75
195600,note_on,160,0,22,,,,,,,,15,,,,35,75
195600,note_on,160,0,8,,,,,,,,4,,,,35,75
195600,note_on,3680,0,12,,,,,,,,6,,,,66,92
195600,note_on,3680,0,11,,,,,,,,6,,,,78,92
195600,note_on,3680,0,13,,,,,,,,7,,,,54,92
195600,note_on,3680,0,14,,,,,,,,7,,,,54,92
195600,note_on,160,0,7,,,,,,,,4,,,,47,75
195680,note_off,80,0,8,,,,,,,,4,,,,35,64
195680,note_off,80,0,11,,,,,,,,6,,,,78,64
195680,note_off,80,0,13,,,,,,,,7,,,,54,64
195680,note_off,80,0,14,,,,,,,,7,,,,54,64
195680,note_off,80,0,12,,,,,,,,6,,,,66,64
195680,note_off,80,0,21,,,,,,,,14,,,,47,64
195680,note_off,80,0,7,,,,,,,,4,,,,47,64
195680,note_off,80,0,22,,,,,,,,15,,,,35,64
195720,note_on,40,0,21,,,,,,,,14,,,,47,75
195720,note_on,40,0,14,,,,,,,,7,,,,54,92
195720,note_on,40,0,22,,,,,,,,15,,,,35,75
195720,note_on,40,0,11,,,,,,,,6,,,,78,92
195720,note_on,40,0,12,,,,,,,,6,,,,66,92
195720,note_on,40,0,8,,,,,,,,4,,,,35,75
195720,note_on,40,0,7,,,,,,,,4,,,,47,75
195720,note_on,40,0,13,,,,,,,,7,,,,54,92
195760,note_off,400,0,1,,,,,,,,0,,,,74,64
195760,note_off,400,0,5,,,,,,,,3,,,,74,64
195760,note_off,400,0,19,,,,,,,,12,,,,71,64
195760,note_off,400,0,18,,,,,,,,11,,,,74,64
195760,note_off,400,0,4,,,,,,,,2,,,,71,64
195760,note_off,400,0,2,,,,,,,,0,,,,71,64
195760,note_off,400,0,20,,,,,,,,13,,,,62,64
195760,note_off,400,0,6,,,,,,,,3,,,,71,64
195760,note_off,400,0,3,,,,,,,,2,,,,74,64
195800,note_off,80,0,22,,,,,,,,15,,,,35,64
195800,note_off,80,0,7,,,,,,,,4,,,,47,64
195800,note_off,80,0,14,,,,,,,,7,,,,54,64
195800,note_off,80,0,8,,,,,,,,4,,,,35,64
195800,note_off,80,0,12,,,,,,,,6,,,,66,64
195800,note_off,80,0,11,,,,,,,,6,,,,78,64
195800,note_off,80,0,21,,,,,,,,14,,,,47,64
195800,note_off,80,0,13,,,,,,,,7,,,,54,64
195840,note_on,40,0,14,,,,,,,,7,,,,54,92
195840,note_on,40,0,22,,,,,,,,15,,,,35,75
195840,note_on,40,0,12,,,,,,,,6,,,,66,92
195840,note_on,40,0,11,,,,,,,,6,,,,78,92
195840,note_on,40,0,7,,,,,,,,4,,,,47,75
195840,note_on,40,0,13,,,,,,,,7,,,,54,92
195840,note_on,40,0,8,,,,,,,,4,,,,35,75
195840,note_on,40,0,21,,,,,,,,14,,,,47,75
195920,note_off,80,0,13,,,,,,,,7,,,,54,64
195920,note_off,80,0,8,,,,,,,,4,,,,35,64
195920,note_off,80,0,12,,,,,,,,6,,,,66,64
195920,note_off,80,0,7,,,,,,,,4,,,,47,64
195920,note_off,80,0,22,,,,,,,,15,,,,35,64
195920,note_off,80,0,11,,,,,,,,6,,,,78,64
195920,note_off,80,0,14,,,,,,,,7,,,,54,64
195920,note_off,80,0,21,,,,,,,,14,,,,47,64
196080,note_on,160,0,11,,,,,,,,6,,,,78,92
196080,note_on,160,0,7,,,,,,,,4,,,,47,75
196080,note_on,160,0,21,,,,,,,,14,,,,47,75
196080,note_on,160,0,8,,,,,,,,4,,,,35,75
196080,note_on,160,0,14,,,,,,,,7,,,,54,92
196080,note_on,160,0,22,,,,,,,,15,,,,35,75
196080,note_on,160,0,13,,,,,,,,7,,,,54,92
196080,note_on,160,0,12,,,,,,,,6,,,,66,92
196160,note_off,80,0,12,,,,,,,,6,,,,66,64
196160,note_off,80,0,7,,,,,,,,4,,,,47,64
196160,note_off,80,0,8,,,,,,,,4,,,,35,64
196160,note_off,80,0,22,,,,,,,,15,,,,35,64
196160,note_off,80,0,14,,,,,,,,7,,,,54,64
196160,note_off,80,0,11,,,,,,,,6,,,,78,64
196160,note_off,80,0,13,,,,,,,,7,,,,54,64
196160,note_off,80,0,21,,,,,,,,14,,,,47,64
196320,note_on,160,0,22,,,,,,,,15,,,,35,75
196320,note_on,160,0,21,,,,,,,,14,,,,47,75
196320,note_on,160,0,13,,,,,,,,7,,,,54,92
196320,note_on,160,0,14,,,,,,,,7,,,,54,92
196320,note_on,160,0,11,,,,,,,,6,,,,78,92
196320,note_on,160,0,12,,,,,,,,6,,,,66,92
196320,note_on,160,0,8,,,,,,,,4,,,,35,75
196320,note_on,160,0,7,,,,,,,,4,,,,47,75
196400,note_off,80,0,7,,,,,,,,4,,,,47,64
196400,note_off,80,0,13,,,,,,,,7,,,,54,64
196400,note_off,80,0,21,,,,,,,,14,,,,47,64
196400,note_off,80,0,8,,,,,,,,4,,,,35,64
196400,note_off,80,0,12,,,,,,,,6,,,,66,64
196400,note_off,80,0,14,,,,,,,,7,,,,54,64
196400,note_off,80,0,22,,,,,,,,15,,,,35,64
196400,note_off,80,0,11,,,,,,,,6,,,,78,64
196560,note_on,160,0,21,,,,,,,,14,,,,47,75
196560,note_on,160,0,13,,,,,,,,7,,,,54,92
196560,note_on,160,0,14,,,,,,,,7,,,,54,92
196560,note_on,160,0,22,,,,,,,,15,,,,35,75
196560,note_on,160,0,12,,,,,,,,6,,,,66,92
196560,note_on,160,0,11,,,,,,,,6,,,,78,92
196560,note_on,160,0,7,,,,,,,,4,,,,47,75
196560,note_on,160,0,8,,,,,,,,4,,,,35,75
196640,note_off,80,0,13,,,,,,,,7,,,,54,64
196640,note_off,80,0,11,,,,,,,,6,,,,78,64
196640,note_off,80,0,7,,,,,,,,4,,,,47,64
196640,note_off,80,0,22,,,,,,,,15,,,,35,64
196640,note_off,80,0,14,,,,,,,,7,,,,54,64
196640,note_off,80,0,8,,,,,,,,4,,,,35,64
196640,note_off,80,0,21,,,,,,,,14,,,,47,64
196640,note_off,80,0,12,,,,,,,,6,,,,66,64
196800,note_on,160,0,13,,,,,,,,7,,,,59,92
196800,note_on,160,0,11,,,,,,,,6,,,,83,92
196800,note_on,160,0,21,,,,,,,,14,,,,50,75
196800,note_on,160,0,8,,,,,,,,4,,,,38,75
196800,note_on,160,0,7,,,,,,,,4,,,,50,75
196800,note_on,160,0,12,,,,,,,,6,,,,71,92
196800,note_on,160,0,22,,,,,,,,15,,,,38,75
196800,note_on,160,0,14,,,,,,,,7,,,,47,92
196880,note_off,80,0,8,,,,,,,,4,,,,38,64
196880,note_off,80,0,21,,,,,,,,14,,,,50,64
196880,note_off,80,0,7,,,,,,,,4,,,,50,64
196880,note_off,80,0,22,,,,,,,,15,,,,38,64
196880,note_off,80,0,11,,,,,,,,6,,,,83,64
196880,note_off,80,0,14,,,,,,,,7,,,,47,64
196880,note_off,80,0,13,,,,,,,,7,,,,59,64
196880,note_off,80,0,12,,,,,,,,6,,,,71,64
197040,note_on,160,0,14,,,,,,,,7,,,,54,92
197040,note_on,160,0,12,,,,,,,,6,,,,66,92
197040,note_on,160,0,11,,,,,,,,6,,,,78,92
197040,note_on,160,0,7,,,,,,,,4,,,,47,75
197040,note_on,160,0,22,,,,,,,,15,,,,42,75
197040,note_on,160,0,21,,,,,,,,14,,,,42,75
197040,note_on,160,0,8,,,,,,,,4,,,,35,75
197040,note_on,160,0,13,,,,,,,,7,,,,54,92
197120,note_off,80,0,8,,,,,,,,4,,,,35,64
197120,note_off,80,0,14,,,,,,,,7,,,,54,64
197120,note_off,80,0,12,,,,,,,,6,,,,66,64
197120,note_off,80,0,21,,,,,,,,14,,,,42,64
197120,note_off,80,0,13,,,,,,,,7,,,,54,64
197120,note_off,80,0,22,,,,,,,,15,,,,42,64
197120,note_off,80,0,11,,,,,,,,6,,,,78,64
197120,note_off,80,0,7,,,,,,,,4,,,,47,64
197280,note_on,160,0,12,,,,,,,,6,,,,71,92
197280,note_on,1520,0,1,,,,,,,,0,,,,74,45
197280,note_on,160,0,7,,,,,,,,4,,,,50,45
197280,note_on,1520,0,2,,,,,,,,0,,,,71,45
197280,note_on,160,0,13,,,,,,,,7,,,,59,92
197280,note_on,160,0,8,,,,,,,,4,,,,38,45
197280,note_on,1520,0,19,,,,,,,,12,,,,71,45
197280,note_on,1520,0,18,,,,,,,,11,,,,74,60
197280,note_on,160,0,14,,,,,,,,7,,,,50,92
197280,note_on,1520,0,5,,,,,,,,3,,,,71,45
197280,note_on,160,0,21,,,,,,,,14,,,,50,45
197280,note_on,1520,0,4,,,,,,,,2,,,,71,45
197280,note_on,160,0,22,,,,,,,,15,,,,38,45
197280,note_on,1520,0,3,,,,,,,,2,,,,74,45
197280,note_on,160,0,11,,,,,,,,6,,,,74,92
197280,note_on,1520,0,20,,,,,,,,13,,,,62,45
197280,note_on,1520,0,6,,,,,,,,3,,,,62,45
197400,note_off,120,0,21,,,,,,,,14,,,,50,64
197400,note_off,120,0,8,,,,,,,,4,,,,38,64
197400,note_off,120,0,22,,,,,,,,15,,,,38,64
197400,note_off,120,0,7,,,,,,,,4,,,,50,64
197640,note_on,0,0,18,,,,,,,,11,,,,76,60
197640,note_on,0,0,20,,,,,,,,13,,,,64,45
197640,note_off,360,0,20,,,,,,,,13,,,,62,64
197640,note_on,0,0,3,,,,,,,,2,,,,76,45
197640,note_off,360,0,3,,,,,,,,2,,,,74,64
197640,note_off,360,0,4,,,,,,,,2,,,,71,64
197640,note_on,0,0,4,,,,,,,,2,,,,73,45
197640,note_off,360,0,18,,,,,,,,11,,,,74,64
197640,note_on,0,0,6,,,,,,,,3,,,,64,45
197640,note_off,360,0,6,,,,,,,,3,,,,62,64
197640,note_on,0,0,1,,,,,,,,0,,,,76,45
197640,note_off,360,0,1,,,,,,,,0,,,,74,64
197640,note_on,0,0,5,,,,,,,,3,,,,73,45
197640,note_off,360,0,5,,,,,,,,3,,,,71,64
197640,note_on,0,0,19,,,,,,,,12,,,,73,45
197640,note_off,360,0,19,,,,,,,,12,,,,71,64
197640,note_on,0,0,2,,,,,,,,0,,,,73,45
197640,note_off,360,0,2,,,,,,,,0,,,,71,64
197680,note_off,400,0,14,,,,,,,,7,,,,50,64
197680,note_off,400,0,13,,,,,,,,7,,,,59,64
197680,note_off,400,0,11,,,,,,,,6,,,,74,64
197680,note_off,400,0,12,,,,,,,,6,,,,71,64
197755,note_off,115,0,2,,,,,,,,0,,,,73,64
197755,note_off,115,0,3,,,,,,,,2,,,,76,64
197755,note_off,115,0,18,,,,,,,,11,,,,76,64
197755,note_off,115,0,4,,,,,,,,2,,,,73,64
197755,note_off,115,0,20,,,,,,,,13,,,,64,64
197755,note_off,115,0,19,,,,,,,,12,,,,73,64
197755,note_off,115,0,5,,,,,,,,3,,,,73,64
197755,note_off,115,0,6,,,,,,,,3,,,,64,64
197755,note_off,115,0,1,,,,,,,,0,,,,76,64
197760,note_on,5,0,3,,,,,,,,2,,,,78,45
197760,note_on,360,0,22,,,,,,,,15,,,,47,45
197760,note_on,5,0,18,,,,,,,,11,,,,78,60
197760,note_on,5,0,5,,,,,,,,3,,,,74,45
197760,note_on,360,0,21,,,,,,,,14,,,,59,45
197760,note_on,360,0,7,,,,,,,,4,,,,59,45
197760,note_on,5,0,6,,,,,,,,3,,,,66,45
197760,note_on,5,0,4,,,,,,,,2,,,,74,45
197760,note_on,5,0,1,,,,,,,,0,,,,78,45
197760,note_on,5,0,2,,,,,,,,0,,,,74,45
197760,note_on,5,0,19,,,,,,,,12,,,,74,45
197760,note_on,360,0,8,,,,,,,,4,,,,47,45
197760,note_on,5,0,20,,,,,,,,13,,,,66,45
198120,note_off,360,0,3,,,,,,,,2,,,,78,64
198120,note_off,360,0,2,,,,,,,,0,,,,74,64
198120,note_on,0,0,2,,,,,,,,0,,,,76,45
198120,note_on,0,0,20,,,,,,,,13,,,,67,45
198120,note_off,360,0,18,,,,,,,,11,,,,78,64
198120,note_off,360,0,20,,,,,,,,13,,,,66,64
198120,note_on,0,0,18,,,,,,,,11,,,,79,60
198120,note_off,360,0,4,,,,,,,,2,,,,74,64
198120,note_on,0,0,4,,,,,,,,2,,,,76,45
198120,note_off,360,0,5,,,,,,,,3,,,,74,64
198120,note_on,0,0,1,,,,,,,,0,,,,79,45
198120,note_off,360,0,19,,,,,,,,12,,,,74,64
198120,note_on,0,0,6,,,,,,,,3,,,,67,45
198120,note_off,360,0,6,,,,,,,,3,,,,66,64
198120,note_on,0,0,19,,,,,,,,12,,,,76,45
198120,note_on,0,0,3,,,,,,,,2,,,,79,45
198120,note_off,360,0,1,,,,,,,,0,,,,78,64
198120,note_on,0,0,5,,,,,,,,3,,,,76,45
198160,note_off,400,0,22,,,,,,,,15,,,,47,64
198160,note_off,400,0,8,,,,,,,,4,,,,47,64
198160,note_off,400,0,21,,,,,,,,14,,,,59,64
198160,note_off,400,0,7,,,,,,,,4,,,,59,64
198235,note_off,115,0,2,,,,,,,,0,,,,76,64
198235,note_off,115,0,3,,,,,,,,2,,,,79,64
198235,note_off,115,0,19,,,,,,,,12,,,,76,64
198235,note_off,115,0,5,,,,,,,,3,,,,76,64
198235,note_off,115,0,6,,,,,,,,3,,,,67,64
198235,note_off,115,0,1,,,,,,,,0,,,,79,64
198235,note_off,115,0,20,,,,,,,,13,,,,67,64
198235,note_off,115,0,18,,,,,,,,11,,,,79,64
198235,note_off,115,0,4,,,,,,,,2,,,,76,64
198240,note_on,5,0,4,,,,,,,,2,,,,73,45
198240,note_on,5,0,1,,,,,,,,0,,,,76,45
198240,note_on,80,0,8,,,,,,,,4,,,,40,45
198240,note_on,5,0,2,,,,,,,,0,,,,73,45
198240,note_on,5,0,20,,,,,,,,13,,,,64,45
198240,note_on,80,0,22,,,,,,,,15,,,,40,45
198240,note_on,80,0,7,,,,,,,,4,,,,52,45
198240,note_on,5,0,19,,,,,,,,12,,,,73,45
198240,note_on,80,0,21,,,,,,,,14,,,,52,45
198240,note_on,5,0,5,,,,,,,,3,,,,73,45
198240,note_on,5,0,6,,,,,,,,3,,,,64,45
198240,note_on,5,0,18,,,,,,,,11,,,,76,60
198240,note_on,5,0,3,,,,,,,,2,,,,76,45
198600,note_off,360,0,6,,,,,,,,3,,,,64,64
198600,note_off,360,0,20,,,,,,,,13,,,,64,64
198600,note_on,0,0,20,,,,,,,,13,,,,66,45
198600,note_on,0,0,19,,,,,,,,12,,,,74,45
198600,note_off,360,0,19,,,,,,,,12,,,,73,64
198600,note_on,0,0,6,,,,,,,,3,,,,66,45
198600,note_on,0,0,1,,,,,,,,0,,,,78,45
198600,note_off,360,0,5,,,,,,,,3,,,,73,64
198600,note_off,360,0,3,,,,,,,,2,,,,76,64
198600,note_on,0,0,3,,,,,,,,2,,,,78,45
198600,note_off,360,0,4,,,,,,,,2,,,,73,64
198600,note_on,0,0,4,,,,,,,,2,,,,74,45
198600,note_off,360,0,2,,,,,,,,0,,,,73,64
198600,note_off,360,0,18,,,,,,,,11,,,,76,64
198600,note_on,0,0,2,,,,,,,,0,,,,74,45
198600,note_on,0,0,18,,,,,,,,11,,,,78,60
198600,note_on,0,0,5,,,,,,,,3,,,,74,45
198600,note_off,360,0,1,,,,,,,,0,,,,76,64
198640,note_off,400,0,7,,,,,,,,4,,,,52,64
198640,note_off,400,0,21,,,,,,,,14,,,,52,64
198640,note_off,400,0,22,,,,,,,,15,,,,40,64
198640,note_off,400,0,8,,,,,,,,4,,,,40,64
198715,note_off,115,0,6,,,,,,,,3,,,,66,64
198715,note_off,115,0,20,,,,,,,,13,,,,66,64
198715,note_off,115,0,5,,,,,,,,3,,,,74,64
198715,note_off,115,0,1,,,,,,,,0,,,,78,64
198715,note_off,115,0,2,,,,,,,,0,,,,74,64
198715,note_off,115,0,3,,,,,,,,2,,,,78,64
198715,note_off,115,0,19,,,,,,,,12,,,,74,64
198715,note_off,115,0,18,,,,,,,,11,,,,78,64
198715,note_off,115,0,4,,,,,,,,2,,,,74,64
198720,note_on,5,0,18,,,,,,,,11,,,,76,60
198720,note_on,5,0,2,,,,,,,,0,,,,73,45
198720,note_on,80,0,22,,,,,,,,15,,,,40,45
198720,note_on,80,0,8,,,,,,,,4,,,,40,45
198720,note_on,5,0,5,,,,,,,,3,,,,73,45
198720,note_on,5,0,4,,,,,,,,2,,,,73,45
198720,note_on,80,0,7,,,,,,,,4,,,,52,45
198720,note_on,5,0,1,,,,,,,,0,,,,76,45
198720,note_on,5,0,6,,,,,,,,3,,,,64,45
198720,note_on,5,0,20,,,,,,,,13,,,,64,45
198720,note_on,5,0,19,,,,,,,,12,,,,73,45
198720,note_on,5,0,3,,,,,,,,2,,,,76,45
198720,note_on,80,0,21,,,,,,,,14,,,,52,45
199080,note_off,360,0,2,,,,,,,,0,,,,73,64
199080,note_off,360,0,19,,,,,,,,12,,,,73,64
199080,note_on,0,0,18,,,,,,,,11,,,,78,60
199080,note_off,360,0,18,,,,,,,,11,,,,76,64
199080,note_on,0,0,19,,,,,,,,12,,,,74,45
199080,note_on,0,0,6,,,,,,,,3,,,,66,45
199080,note_off,360,0,5,,,,,,,,3,,,,73,64
199080,note_on,0,0,3,,,,,,,,2,,,,78,45
199080,note_off,360,0,3,,,,,,,,2,,,,76,64
199080,note_on,0,0,4,,,,,,,,2,,,,74,45
199080,note_off,360,0,4,,,,,,,,2,,,,73,64
199080,note_off,360,0,20,,,,,,,,13,,,,64,64
199080,note_on,0,0,1,,,,,,,,0,,,,78,45
199080,note_off,360,0,1,,,,,,,,0,,,,76,64
199080,note_on,0,0,5,,,,,,,,3,,,,74,45
199080,note_on,0,0,20,,,,,,,,13,,,,66,45
199080,note_on,0,0,2,,,,,,,,0,,,,74,45
199080,note_off,360,0,6,,,,,,,,3,,,,64,64
199120,note_off,400,0,21,,,,,,,,14,,,,52,64
199120,note_off,400,0,7,,,,,,,,4,,,,52,64
199120,note_off,400,0,8,,,,,,,,4,,,,40,64
199120,note_off,400,0,22,,,,,,,,15,,,,40,64
199195,note_off,115,0,5,,,,,,,,3,,,,74,64
199195,note_off,115,0,3,,,,,,,,2,,,,78,64
199195,note_off,115,0,19,,,,,,,,12,,,,74,64
199195,note_off,115,0,6,,,,,,,,3,,,,66,64
199195,note_off,115,0,4,,,,,,,,2,,,,74,64
199195,note_off,115,0,1,,,,,,,,0,,,,78,64
199195,note_off,115,0,20,,,,,,,,13,,,,66,64
199195,note_off,115,0,18,,,,,,,,11,,,,78,64
199195,note_off,115,0,2,,,,,,,,0,,,,74,64
199200,note_on,5,0,4,,,,,,,,2,,,,71,45
199200,note_on,80,0,8,,,,,,,,4,,,,40,45
199200,note_on,5,0,1,,,,,,,,0,,,,74,45
199200,note_on,5,0,20,,,,,,,,13,,,,62,45
199200,note_on,5,0,3,,,,,,,,2,,,,74,45
199200,note_on,5,0,5,,,,,,,,3,,,,71,45
199200,note_on,5,0,19,,,,,,,,12,,,,71,45
199200,note_on,5,0,18,,,,,,,,11,,,,74,60
199200,note_on,5,0,2,,,,,,,,0,,,,71,45
199200,note_on,5,0,6,,,,,,,,3,,,,62,45
199200,note_on,80,0,7,,,,,,,,4,,,,52,45
199200,note_on,80,0,21,,,,,,,,14,,,,52,45
199200,note_on,80,0,22,,,,,,,,15,,,,40,45
199560,note_on,0,0,5,,,,,,,,3,,,,73,45
199560,note_on,0,0,1,,,,,,,,0,,,,76,45
199560,note_on,0,0,6,,,,,,,,3,,,,64,45
199560,note_off,360,0,2,,,,,,,,0,,,,71,64
199560,note_off,360,0,5,,,,,,,,3,,,,71,64
199560,note_on,0,0,4,,,,,,,,2,,,,73,45
199560,note_off,360,0,6,,,,,,,,3,,,,62,64
199560,note_off,360,0,20,,,,,,,,13,,,,62,64
199560,note_on,0,0,20,,,,,,,,13,,,,64,45
199560,note_off,360,0,19,,,,,,,,12,,,,71,64
199560,note_on,0,0,3,,,,,,,,2,,,,76,45
199560,note_on,0,0,19,,,,,,,,12,,,,73,45
199560,note_off,360,0,4,,,,,,,,2,,,,71,64
199560,note_off,360,0,1,,,,,,,,0,,,,74,64
199560,note_on,0,0,18,,,,,,,,11,,,,76,60
199560,note_on,0,0,2,,,,,,,,0,,,,73,45
199560,note_off,360,0,3,,,,,,,,2,,,,74,64
199560,note_off,360,0,18,,,,,,,,11,,,,74,64
199600,note_off,400,0,8,,,,,,,,4,,,,40,64
199600,note_off,400,0,7,,,,,,,,4,,,,52,64
199600,note_off,400,0,22,,,,,,,,15,,,,40,64
199600,note_off,400,0,21,,,,,,,,14,,,,52,64
199675,note_off,115,0,2,,,,,,,,0,,,,73,64
199675,note_off,115,0,5,,,,,,,,3,,,,73,64
199675,note_off,115,0,1,,,,,,,,0,,,,76,64
199675,note_off,115,0,4,,,,,,,,2,,,,73,64
199675,note_off,115,0,18,,,,,,,,11,,,,76,64
199675,note_off,115,0,6,,,,,,,,3,,,,64,64
199675,note_off,115,0,19,,,,,,,,12,,,,73,64
199675,note_off,115,0,3,,,,,,,,2,,,,76,64
199675,note_off,115,0,20,,,,,,,,13,,,,64,64
199680,note_on,5,0,4,,,,,,,,2,,,,70,45
199680,note_on,5,0,18,,,,,,,,11,,,,73,60
199680,note_on,80,0,21,,,,,,,,14,,,,54,45
199680,note_on,5,0,3,,,,,,,,2,,,,73,45
199680,note_on,5,0,2,,,,,,,,0,,,,70,45
199680,note_on,80,0,22,,,,,,,,15,,,,42,45
199680,note_on,5,0,20,,,,,,,,13,,,,61,45
199680,note_on,5,0,19,,,,,,,,12,,,,70,45
199680,note_on,5,0,6,,,,,,,,3,,,,61,45
199680,note_on,80,0,8,,,,,,,,4,,,,42,45
199680,note_on,5,0,5,,,,,,,,3,,,,70,45
199680,note_on,5,0,1,,,,,,,,0,,,,73,45
199680,note_on,80,0,7,,,,,,,,4,,,,54,45
200040,note_on,0,0,19,,,,,,,,12,,,,71,45
200040,note_off,360,0,1,,,,,,,,0,,,,73,64
200040,note_off,360,0,5,,,,,,,,3,,,,70,64
200040,note_on,0,0,5,,,,,,,,3,,,,71,45
200040,note_off,360,0,4,,,,,,,,2,,,,70,64
200040,note_on,0,0,6,,,,,,,,3,,,,62,45
200040,note_off,360,0,6,,,,,,,,3,,,,61,64
200040,note_on,0,0,1,,,,,,,,0,,,,74,45
200040,note_on,0,0,4,,,,,,,,2,,,,71,45
200040,note_off,360,0,19,,,,,,,,12,,,,70,64
200040,note_off,360,0,18,,,,,,,,11,,,,73,64
200040,note_on,0,0,18,,,,,,,,11,,,,74,60
200040,note_off,360,0,20,,,,,,,,13,,,,61,64
200040,note_on,0,0,2,,,,,,,,0,,,,71,45
200040,note_on,0,0,20,,,,,,,,13,,,,62,45
200040,note_off,360,0,3,,,,,,,,2,,,,73,64
200040,note_off,360,0,2,,,,,,,,0,,,,70,64
200040,note_on,0,0,3,,,,,,,,2,,,,74,45
200080,note_off,400,0,8,,,,,,,,4,,,,42,64
200080,note_off,400,0,21,,,,,,,,14,,,,54,64
200080,note_off,400,0,7,,,,,,,,4,,,,54,64
200080,note_off,400,0,22,,,,,,,,15,,,,42,64
200155,note_off,115,0,6,,,,,,,,3,,,,62,64
200155,note_off,115,0,1,,,,,,,,0,,,,74,64
200155,note_off,115,0,3,,,,,,,,2,,,,74,64
200155,note_off,115,0,20,,,,,,,,13,,,,62,64
200155,note_off,115,0,4,,,,,,,,2,,,,71,64
200155,note_off,115,0,5,,,,,,,,3,,,,71,64
200155,note_off,115,0,19,,,,,,,,12,,,,71,64
200155,note_off,115,0,2,,,,,,,,0,,,,71,64
200155,note_off,115,0,18,,,,,,,,11,,,,74,64
200160,note_on,5,0,6,,,,,,,,3,,,,61,45
200160,note_on,80,0,8,,,,,,,,4,,,,42,45
200160,note_on,5,0,18,,,,,,,,11,,,,73,60
200160,note_on,80,0,21,,,,,,,,14,,,,54,45
200160,note_on,5,0,20,,,,,,,,13,,,,61,45
200160,note_on,5,0,1,,,,,,,,0,,,,73,45
200160,note_on,5,0,2,,,,,,,,0,,,,70,45
200160,note_on,5,0,3,,,,,,,,2,,,,73,45
200160,note_on,80,0,22,,,,,,,,15,,,,42,45
200160,note_on,80,0,7,,,,,,,,4,,,,54,45
200160,note_on,5,0,5,,,,,,,,3,,,,70,45
200160,note_on,5,0,4,,,,,,,,2,,,,70,45
200160,note_on,5,0,19,,,,,,,,12,,,,70,45
200520,note_off,360,0,6,,,,,,,,3,,,,61,64
200520,note_on,0,0,4,,,,,,,,2,,,,71,45
200520,note_off,360,0,4,,,,,,,,2,,,,70,64
200520,note_off,360,0,2,,,,,,,,0,,,,70,64
200520,note_on,0,0,2,,,,,,,,0,,,,71,45
200520,note_off,360,0,18,,,,,,,,11,,,,73,64
200520,note_off,360,0,20,,,,,,,,13,,,,61,64
200520,note_on,0,0,19,,,,,,,,12,,,,71,45
200520,note_on,0,0,18,,,,,,,,11,,,,74,60
200520,note_on,0,0,6,,,,,,,,3,,,,62,45
200520,note_on,0,0,1,,,,,,,,0,,,,74,45
200520,note_off,360,0,19,,,,,,,,12,,,,70,64
200520,note_on,0,0,20,,,,,,,,13,,,,62,45
200520,note_off,360,0,3,,,,,,,,2,,,,73,64
200520,note_on,0,0,3,,,,,,,,2,,,,74,45
200520,note_on,0,0,5,,,,,,,,3,,,,71,45
200520,note_off,360,0,5,,,,,,,,3,,,,70,64
200520,note_off,360,0,1,,,,,,,,0,,,,73,64
200560,note_off,400,0,22,,,,,,,,15,,,,42,64
200560,note_off,400,0,7,,,,,,,,4,,,,54,64
200560,note_off,400,0,21,,,,,,,,14,,,,54,64
200560,note_off,400,0,8,,,,,,,,4,,,,42,64
200635,note_off,115,0,20,,,,,,,,13,,,,62,64
200635,note_off,115,0,1,,,,,,,,0,,,,74,64
200635,note_off,115,0,6,,,,,,,,3,,,,62,64
200635,note_off,115,0,2,,,,,,,,0,,,,71,64
200635,note_off,115,0,18,,,,,,,,11,,,,74,64
200635,note_off,115,0,3,,,,,,,,2,,,,74,64
200635,note_off,115,0,5,,,,,,,,3,,,,71,64
200635,note_off,115,0,4,,,,,,,,2,,,,71,64
200635,note_off,115,0,19,,,,,,,,12,,,,71,64
200640,note_on,5,0,18,,,,,,,,11,,,,76,60
200640,note_on,5,0,5,,,,,,,,3,,,,73,45
200640,note_on,5,0,1,,,,,,,,0,,,,76,45
200640,note_on,80,0,7,,,,,,,,4,,,,54,45
200640,note_on,5,0,19,,,,,,,,12,,,,73,45
200640,note_on,5,0,4,,,,,,,,2,,,,73,45
200640,note_on,5,0,3,,,,,,,,2,,,,76,45
200640,note_on,80,0,22,,,,,,,,15,,,,42,45
200640,note_on,5,0,6,,,,,,,,3,,,,64,45
200640,note_on,80,0,8,,,,,,,,4,,,,42,45
200640,note_on,5,0,2,,,,,,,,0,,,,73,45
200640,note_on,80,0,21,,,,,,,,14,,,,54,45
200640,note_on,5,0,20,,,,,,,,13,,,,64,45
201000,note_on,0,0,18,,,,,,,,11,,,,78,60
201000,note_off,360,0,18,,,,,,,,11,,,,76,64
201000,note_on,0,0,19,,,,,,,,12,,,,74,45
201000,note_off,360,0,2,,,,,,,,0,,,,73,64
201000,note_on,0,0,6,,,,,,,,3,,,,66,45
201000,note_off,360,0,1,,,,,,,,0,,,,76,64
201000,note_on,0,0,1,,,,,,,,0,,,,78,45
201000,note_off,360,0,3,,,,,,,,2,,,,76,64
201000,note_off,360,0,6,,,,,,,,3,,,,64,64
201000,note_off,360,0,20,,,,,,,,13,,,,64,64
201000,note_on,0,0,3,,,,,,,,2,,,,78,45
201000,note_off,360,0,4,,,,,,,,2,,,,73,64
201000,note_off,360,0,19,,,,,,,,12,,,,73,64
201000,note_on,0,0,4,,,,,,,,2,,,,74,45
201000,note_on,0,0,5,,,,,,,,3,,,,74,45
201000,note_off,360,0,5,,,,,,,,3,,,,73,64
201000,note_on,0,0,2,,,,,,,,0,,,,74,45
201000,note_on,0,0,20,,,,,,,,13,,,,66,45
201040,note_off,400,0,8,,,,,,,,4,,,,42,64
201040,note_off,400,0,22,,,,,,,,15,,,,42,64
201040,note_off,400,0,21,,,,,,,,14,,,,54,64
201040,note_off,400,0,7,,,,,,,,4,,,,54,64
201115,note_off,115,0,20,,,,,,,,13,,,,66,64
201115,note_off,115,0,19,,,,,,,,12,,,,74,64
201115,note_off,115,0,18,,,,,,,,11,,,,78,64
201115,note_off,115,0,2,,,,,,,,0,,,,74,64
201115,note_off,115,0,4,,,,,,,,2,,,,74,64
201115,note_off,115,0,1,,,,,,,,0,,,,78,64
201115,note_off,115,0,5,,,,,,,,3,,,,74,64
201115,note_off,115,0,6,,,,,,,,3,,,,66,64
201115,note_off,115,0,3,,,,,,,,2,,,,78,64
201120,note_on,5,0,18,,,,,,,,11,,,,74,60
201120,note_on,5,0,4,,,,,,,,2,,,,71,45
201120,note_on,5,0,5,,,,,,,,3,,,,71,45
201120,note_on,5,0,1,,,,,,,,0,,,,74,45
201120,note_on,80,0,22,,,,,,,,15,,,,47,45
201120,note_on,5,0,3,,,,,,,,2,,,,74,45
201120,note_on,5,0,6,,,,,,,,3,,,,62,45
201120,note_on,5,0,19,,,,,,,,12,,,,71,45
201120,note_on,5,0,20,,,,,,,,13,,,,62,45
201120,note_on,5,0,2,,,,,,,,0,,,,71,45
201120,note_on,80,0,8,,,,,,,,4,,,,47,45
201120,note_on,80,0,7,,,,,,,,4,,,,59,45
201120,note_on,80,0,21,,,,,,,,14,,,,59,45
201200,note_off,80,0,22,,,,,,,,15,,,,47,64
201200,note_off,80,0,8,,,,,,,,4,,,,47,64
201200,note_off,80,0,7,,,,,,,,4,,,,59,64
201200,note_off,80,0,21,,,,,,,,14,,,,59,64
201360,note_on,11360,0,10,,,,,,,,5,,,,62,92
201360,note_on,160,0,7,,,,,,,,4,,,,47,75
201360,note_on,160,0,21,,,,,,,,14,,,,47,75
201360,note_on,11360,0,9,,,,,,,,5,,,,66,92
201360,note_on,160,0,8,,,,,,,,4,,,,35,75
201360,note_on,160,0,22,,,,,,,,15,,,,35,75
201360,note_on,3680,0,13,,,,,,,,7,,,,62,92
201360,note_on,3680,0,14,,,,,,,,7,,,,54,92
201440,note_off,80,0,9,,,,,,,,5,,,,66,64
201440,note_off,80,0,13,,,,,,,,7,,,,62,64
201440,note_off,80,0,10,,,,,,,,5,,,,62,64
201440,note_off,80,0,14,,,,,,,,7,,,,54,64
201440,note_off,80,0,22,,,,,,,,15,,,,35,64
201440,note_off,80,0,21,,,,,,,,14,,,,47,64
201440,note_off,80,0,8,,,,,,,,4,,,,35,64
201440,note_off,80,0,7,,,,,,,,4,,,,47,64
201480,note_on,40,0,13,,,,,,,,7,,,,62,92
201480,note_on,40,0,21,,,,,,,,14,,,,47,75
201480,note_on,40,0,9,,,,,,,,5,,,,66,92
201480,note_on,40,0,10,,,,,,,,5,,,,62,92
201480,note_on,40,0,8,,,,,,,,4,,,,35,75
201480,note_on,40,0,14,,,,,,,,7,,,,54,92
201480,note_on,40,0,7,,,,,,,,4,,,,47,75
201480,note_on,40,0,22,,,,,,,,15,,,,35,75
201520,note_off,400,0,5,,,,,,,,3,,,,71,64
201520,note_off,400,0,1,,,,,,,,0,,,,74,64
201520,note_off,400,0,4,,,,,,,,2,,,,71,64
201520,note_off,400,0,6,,,,,,,,3,,,,62,64
201520,note_off,400,0,2,,,,,,,,0,,,,71,64
201520,note_off,400,0,20,,,,,,,,13,,,,62,64
201520,note_off,400,0,18,,,,,,,,11,,,,74,64
201520,note_off,400,0,19,,,,,,,,12,,,,71,64
201520,note_off,400,0,3,,,,,,,,2,,,,74,64
201560,note_off,80,0,10,,,,,,,,5,,,,62,64
201560,note_off,80,0,14,,,,,,,,7,,,,54,64
201560,note_off,80,0,13,,,,,,,,7,,,,62,64
201560,note_off,80,0,22,,,,,,,,15,,,,35,64
201560,note_off,80,0,9,,,,,,,,5,,,,66,64
201560,note_off,80,0,8,,,,,,,,4,,,,35,64
201560,note_off,80,0,7,,,,,,,,4,,,,47,64
201560,note_off,80,0,21,,,,,,,,14,,,,47,64
201600,note_on,40,0,9,,,,,,,,5,,,,66,92
201600,note_on,40,0,22,,,,,,,,15,,,,35,75
201600,note_on,40,0,13,,,,,,,,7,,,,62,92
201600,note_on,40,0,14,,,,,,,,7,,,,54,92
201600,note_on,40,0,21,,,,,,,,14,,,,47,75
201600,note_on,40,0,8,,,,,,,,4,,,,35,75
201600,note_on,40,0,10,,,,,,,,5,,,,62,92
201600,note_on,40,0,7,,,,,,,,4,,,,47,75
201680,note_off,80,0,22,,,,,,,,15,,,,35,64
201680,note_off,80,0,13,,,,,,,,7,,,,62,64
201680,note_off,80,0,14,,,,,,,,7,,,,54,64
201680,note_off,80,0,7,,,,,,,,4,,,,47,64
201680,note_off,80,0,8,,,,,,,,4,,,,35,64
201680,note_off,80,0,9,,,,,,,,5,,,,66,64
201680,note_off,80,0,10,,,,,,,,5,,,,62,64
201680,note_off,80,0,21,,,,,,,,14,,,,47,64
201840,note_on,160,0,13,,,,,,,,7,,,,62,92
201840,note_on,160,0,9,,,,,,,,5,,,,66,92
201840,note_on,160,0,21,,,,,,,,14,,,,47,75
201840,note_on,160,0,7,,,,,,,,4,,,,47,75
201840,note_on,160,0,8,,,,,,,,4,,,,35,75
201840,note_on,160,0,14,,,,,,,,7,,,,54,92
201840,note_on,160,0,22,,,,,,,,15,,,,35,75
201840,note_on,160,0,10,,,,,,,,5,,,,62,92
201920,note_off,80,0,8,,,,,,,,4,,,,35,64
201920,note_off,80,0,10,,,,,,,,5,,,,62,64
201920,note_off,80,0,7,,,,,,,,4,,,,47,64
201920,note_off,80,0,13,,,,,,,,7,,,,62,64
201920,note_off,80,0,14,,,,,,,,7,,,,54,64
201920,note_off,80,0,9,,,,,,,,5,,,,66,64
201920,note_off,80,0,21,,,,,,,,14,,,,47,64
201920,note_off,80,0,22,,,,,,,,15,,,,35,64
202080,note_on,160,0,8,,,,,,,,4,,,,35,75
202080,note_on,160,0,10,,,,,,,,5,,,,62,92
202080,note_on,160,0,22,,,,,,,,15,,,,35,75
202080,note_on,160,0,13,,,,,,,,7,,,,62,92
202080,note_on,160,0,14,,,,,,,,7,,,,54,92
202080,note_on,160,0,21,,,,,,,,14,,,,47,75
202080,note_on,160,0,7,,,,,,,,4,,,,47,75
202080,note_on,160,0,9,,,,,,,,5,,,,66,92
202160,note_off,80,0,22,,,,,,,,15,,,,35,64
202160,note_off,80,0,13,,,,,,,,7,,,,62,64
202160,note_off,80,0,7,,,,,,,,4,,,,47,64
202160,note_off,80,0,14,,,,,,,,7,,,,54,64
202160,note_off,80,0,21,,,,,,,,14,,,,47,64
202160,note_off,80,0,8,,,,,,,,4,,,,35,64
202160,note_off,80,0,10,,,,,,,,5,,,,62,64
202160,note_off,80,0,9,,,,,,,,5,,,,66,64
202320,note_on,160,0,8,,,,,,,,4,,,,35,75
202320,note_on,160,0,10,,,,,,,,5,,,,62,92
202320,note_on,160,0,22,,,,,,,,15,,,,35,75
202320,note_on,160,0,14,,,,,,,,7,,,,54,92
202320,note_on,160,0,9,,,,,,,,5,,,,66,92
202320,note_on,160,0,21,,,,,,,,14,,,,47,75
202320,note_on,160,0,13,,,,,,,,7,,,,62,92
202320,note_on,160,0,7,,,,,,,,4,,,,47,75
202400,note_off,80,0,7,,,,,,,,4,,,,47,64
202400,note_off,80,0,22,,,,,,,,15,,,,35,64
202400,note_off,80,0,21,,,,,,,,14,,,,47,64
202400,note_off,80,0,10,,,,,,,,5,,,,62,64
202400,note_off,80,0,8,,,,,,,,4,,,,35,64
202400,note_off,80,0,9,,,,,,,,5,,,,66,64
202400,note_off,80,0,14,,,,,,,,7,,,,54,64
202400,note_off,80,0,13,,,,,,,,7,,,,62,64
202560,note_on,160,0,10,,,,,,,,5,,,,66,92
202560,note_on,160,0,21,,,,,,,,14,,,,50,75
202560,note_on,160,0,8,,,,,,,,4,,,,38,75
202560,note_on,160,0,13,,,,,,,,7,,,,66,92
202560,note_on,160,0,14,,,,,,,,7,,,,57,92
202560,note_on,160,0,7,,,,,,,,4,,,,50,75
202560,note_on,160,0,9,,,,,,,,5,,,,71,92
202560,note_on,160,0,22,,,,,,,,15,,,,38,75
202640,note_off,80,0,8,,,,,,,,4,,,,38,64
202640,note_off,80,0,9,,,,,,,,5,,,,71,64
202640,note_off,80,0,13,,,,,,,,7,,,,66,64
202640,note_off,80,0,14,,,,,,,,7,,,,57,64
202640,note_off,80,0,7,,,,,,,,4,,,,50,64
202640,note_off,80,0,10,,,,,,,,5,,,,66,64
202640,note_off,80,0,22,,,,,,,,15,,,,38,64
202640,note_off,80,0,21,,,,,,,,14,,,,50,64
202800,note_on,160,0,8,,,,,,,,4,,,,35,75
202800,note_on,160,0,14,,,,,,,,7,,,,54,92
202800,note_on,160,0,10,,,,,,,,5,,,,62,92
202800,note_on,160,0,21,,,,,,,,14,,,,47,75
202800,note_on,160,0,9,,,,,,,,5,,,,66,92
202800,note_on,160,0,22,,,,,,,,15,,,,35,75
202800,note_on,160,0,7,,,,,,,,4,,,,47,75
202800,note_on,160,0,13,,,,,,,,7,,,,62,92
202880,note_off,80,0,22,,,,,,,,15,,,,35,64
202880,note_off,80,0,7,,,,,,,,4,,,,47,64
202880,note_off,80,0,10,,,,,,,,5,,,,62,64
202880,note_off,80,0,14,,,,,,,,7,,,,54,64
202880,note_off,80,0,21,,,,,,,,14,,,,47,64
202880,note_off,80,0,8,,,,,,,,4,,,,35,64
202880,note_off,80,0,9,,,,,,,,5,,,,66,64
202880,note_off,80,0,13,,,,,,,,7,,,,62,64
203040,note_on,160,0,8,,,,,,,,4,,,,35,75
203040,note_on,160,0,14,,,,,,,,7,,,,54,92
203040,note_on,160,0,10,,,,,,,,5,,,,62,92
203040,note_on,160,0,21,,,,,,,,14,,,,47,75
203040,note_on,160,0,22,,,,,,,,15,,,,35,75
203040,note_on,160,0,9,,,,,,,,5,,,,66,92
203040,note_on,160,0,13,,,,,,,,7,,,,62,92
203040,note_on,160,0,7,,,,,,,,4,,,,47,75
203280,note_on,1760,0,5,,,,,,,,3,,,,74,75
203280,note_on,1760,0,1,,,,,,,,0,,,,78,75
203280,note_on,1760,0,4,,,,,,,,2,,,,74,75
203280,note_on,1760,0,2,,,,,,,,0,,,,74,75
203280,note_on,1760,0,18,,,,,,,,11,,,,78,92
203280,note_on,1760,0,3,,,,,,,,2,,,,78,75
203280,note_on,1760,0,19,,,,,,,,12,,,,74,75
203280,note_on,1760,0,6,,,,,,,,3,,,,66,75
203280,note_on,1760,0,20,,,,,,,,13,,,,66,75
203360,note_off,80,0,1,,,,,,,,0,,,,78,64
203360,note_off,80,0,6,,,,,,,,3,,,,66,64
203360,note_off,80,0,5,,,,,,,,3,,,,74,64
203360,note_off,80,0,19,,,,,,,,12,,,,74,64
203360,note_off,80,0,3,,,,,,,,2,,,,78,64
203360,note_off,80,0,2,,,,,,,,0,,,,74,64
203360,note_off,80,0,4,,,,,,,,2,,,,74,64
203360,note_off,80,0,20,,,,,,,,13,,,,66,64
203360,note_off,80,0,18,,,,,,,,11,,,,78,64
203440,note_off,400,0,7,,,,,,,,4,,,,47,64
203440,note_off,400,0,10,,,,,,,,5,,,,62,64
203440,note_off,400,0,21,,,,,,,,14,,,,47,64
203440,note_off,400,0,14,,,,,,,,7,,,,54,64
203440,note_off,400,0,13,,,,,,,,7,,,,62,64
203440,note_off,400,0,8,,,,,,,,4,,,,35,64
203440,note_off,400,0,22,,,,,,,,15,,,,35,64
203440,note_off,400,0,9,,,,,,,,5,,,,66,64
203520,note_on,160,0,1,,,,,,,,0,,,,76,75
203520,note_on,160,0,3,,,,,,,,2,,,,76,75
203520,note_on,80,0,8,,,,,,,,4,,,,35,75
203520,note_on,80,0,22,,,,,,,,15,,,,35,75
203520,note_on,80,0,21,,,,,,,,14,,,,47,75
203520,note_on,160,0,6,,,,,,,,3,,,,64,75
203520,note_on,80,0,7,,,,,,,,4,,,,47,75
203520,note_on,160,0,20,,,,,,,,13,,,,64,75
203520,note_on,160,0,5,,,,,,,,3,,,,73,75
203520,note_on,160,0,4,,,,,,,,2,,,,73,75
203520,note_on,160,0,2,,,,,,,,0,,,,73,75
203520,note_on,160,0,18,,,,,,,,11,,,,76,92
203520,note_on,160,0,19,,,,,,,,12,,,,73,75
203600,note_off,80,0,1,,,,,,,,0,,,,76,64
203600,note_off,80,0,4,,,,,,,,2,,,,73,64
203600,note_off,80,0,3,,,,,,,,2,,,,76,64
203600,note_off,80,0,18,,,,,,,,11,,,,76,64
203600,note_off,80,0,6,,,,,,,,3,,,,64,64
203600,note_off,80,0,19,,,,,,,,12,,,,73,64
203600,note_off,80,0,2,,,,,,,,0,,,,73,64
203600,note_off,80,0,5,,,,,,,,3,,,,73,64
203600,note_off,80,0,20,,,,,,,,13,,,,64,64
203760,note_on,160,0,1,,,,,,,,0,,,,78,75
203760,note_on,160,0,4,,,,,,,,2,,,,74,75
203760,note_on,160,0,3,,,,,,,,2,,,,78,75
203760,note_on,160,0,20,,,,,,,,13,,,,66,75
203760,note_on,160,0,18,,,,,,,,11,,,,78,92
203760,note_on,160,0,6,,,,,,,,3,,,,66,75
203760,note_on,160,0,5,,,,,,,,3,,,,74,75
203760,note_on,160,0,19,,,,,,,,12,,,,74,75
203760,note_on,160,0,2,,,,,,,,0,,,,74,75
203840,note_off,80,0,18,,,,,,,,11,,,,78,64
203840,note_off,80,0,1,,,,,,,,0,,,,78,64
203840,note_off,80,0,5,,,,,,,,3,,,,74,64
203840,note_off,80,0,3,,,,,,,,2,,,,78,64
203840,note_off,80,0,19,,,,,,,,12,,,,74,64
203840,note_off,80,0,4,,,,,,,,2,,,,74,64
203840,note_off,80,0,6,,,,,,,,3,,,,66,64
203840,note_off,80,0,2,,,,,,,,0,,,,74,64
203840,note_off,80,0,20,,,,,,,,13,,,,66,64
203920,note_off,400,0,7,,,,,,,,4,,,,47,64
203920,note_off,400,0,21,,,,,,,,14,,,,47,64
203920,note_off,400,0,22,,,,,,,,15,,,,35,64
203920,note_off,400,0,8,,,,,,,,4,,,,35,64
204000,note_on,160,0,2,,,,,,,,0,,,,76,75
204000,note_on,160,0,6,,,,,,,,3,,,,71,75
204000,note_on,80,0,7,,,,,,,,4,,,,52,75
204000,note_on,160,0,1,,,,,,,,0,,,,79,75
204000,note_on,160,0,4,,,,,,,,2,,,,76,75
204000,note_on,80,0,8,,,,,,,,4,,,,40,75
204000,note_on,160,0,3,,,,,,,,2,,,,79,75
204000,note_on,160,0,20,,,,,,,,13,,,,71,75
204000,note_on,160,0,19,,,,,,,,12,,,,76,75
204000,note_on,160,0,18,,,,,,,,11,,,,79,92
204000,note_on,80,0,21,,,,,,,,14,,,,52,75
204000,note_on,160,0,5,,,,,,,,3,,,,76,75
204000,note_on,80,0,22,,,,,,,,15,,,,40,75
204080,note_off,80,0,1,,,,,,,,0,,,,79,64
204080,note_off,80,0,6,,,,,,,,3,,,,71,64
204080,note_off,80,0,4,,,,,,,,2,,,,76,64
204080,note_off,80,0,19,,,,,,,,12,,,,76,64
204080,note_off,80,0,18,,,,,,,,11,,,,79,64
204080,note_off,80,0,3,,,,,,,,2,,,,79,64
204080,note_off,80,0,2,,,,,,,,0,,,,76,64
204080,note_off,80,0,5,,,,,,,,3,,,,76,64
204240,note_on,160,0,19,,,,,,,,12,,,,74,75
204240,note_on,160,0,6,,,,,,,,3,,,,64,75
204240,note_on,160,0,3,,,,,,,,2,,,,78,75
204240,note_on,160,0,4,,,,,,,,2,,,,74,75
204240,note_on,160,0,18,,,,,,,,11,,,,78,92
204240,note_on,160,0,1,,,,,,,,0,,,,78,75
204240,note_on,160,0,2,,,,,,,,0,,,,74,75
204240,note_on,160,0,5,,,,,,,,3,,,,74,75
204320,note_off,80,0,19,,,,,,,,12,,,,74,64
204320,note_off,80,0,1,,,,,,,,0,,,,78,64
204320,note_off,80,0,5,,,,,,,,3,,,,74,64
204320,note_off,80,0,4,,,,,,,,2,,,,74,64
204320,note_off,80,0,18,,,,,,,,11,,,,78,64
204320,note_off,80,0,2,,,,,,,,0,,,,74,64
204320,note_off,80,0,3,,,,,,,,2,,,,78,64
204320,note_off,80,0,6,,,,,,,,3,,,,64,64
204400,note_off,400,0,22,,,,,,,,15,,,,40,64
204400,note_off,400,0,7,,,,,,,,4,,,,52,64
204400,note_off,400,0,8,,,,,,,,4,,,,40,64
204400,note_off,400,0,20,,,,,,,,13,,,,71,64
204400,note_off,400,0,21,,,,,,,,14,,,,52,64
204480,note_on,160,0,4,,,,,,,,2,,,,76,75
204480,note_on,160,0,6,,,,,,,,3,,,,71,75
204480,note_on,160,0,3,,,,,,,,2,,,,79,75
204480,note_on,80,0,8,,,,,,,,4,,,,40,75
204480,note_on,160,0,1,,,,,,,,0,,,,79,75
204480,note_on,80,0,20,,,,,,,,13,,,,71,75
204480,note_on,160,0,2,,,,,,,,0,,,,76,75
204480,note_on,160,0,19,,,,,,,,12,,,,76,75
204480,note_on,80,0,7,,,,,,,,4,,,,52,75
204480,note_on,160,0,18,,,,,,,,11,,,,79,92
204480,note_on,80,0,22,,,,,,,,15,,,,40,75
204480,note_on,80,0,21,,,,,,,,14,,,,52,75
204480,note_on,160,0,5,,,,,,,,3,,,,76,75
204560,note_off,80,0,6,,,,,,,,3,,,,71,64
204560,note_off,80,0,1,,,,,,,,0,,,,79,64
204560,note_off,80,0,2,,,,,,,,0,,,,76,64
204560,note_off,80,0,18,,,,,,,,11,,,,79,64
204560,note_off,80,0,4,,,,,,,,2,,,,76,64
204560,note_off,80,0,19,,,,,,,,12,,,,76,64
204560,note_off,80,0,5,,,,,,,,3,,,,76,64
204560,note_off,80,0,3,,,,,,,,2,,,,79,64
204720,note_on,160,0,1,,,,,,,,0,,,,81,75
204720,note_on,160,0,6,,,,,,,,3,,,,64,75
204720,note_on,160,0,2,,,,,,,,0,,,,78,75
204720,note_on,160,0,18,,,,,,,,11,,,,81,92
204720,note_on,160,0,4,,,,,,,,2,,,,78,75
204720,note_on,160,0,5,,,,,,,,3,,,,78,75
204720,note_on,160,0,3,,,,,,,,2,,,,81,75
204720,note_on,160,0,19,,,,,,,,12,,,,78,75
204800,note_off,80,0,5,,,,,,,,3,,,,78,64
204800,note_off,80,0,1,,,,,,,,0,,,,81,64
204800,note_off,80,0,6,,,,,,,,3,,,,64,64
204800,note_off,80,0,4,,,,,,,,2,,,,78,64
204800,note_off,80,0,18,,,,,,,,11,,,,81,64
204800,note_off,80,0,3,,,,,,,,2,,,,81,64
204800,note_off,80,0,19,,,,,,,,12,,,,78,64
204800,note_off,80,0,2,,,,,,,,0,,,,78,64
204880,note_off,400,0,7,,,,,,,,4,,,,52,64
204880,note_off,400,0,8,,,,,,,,4,,,,40,64
204880,note_off,400,0,20,,,,,,,,13,,,,71,64
204880,note_off,400,0,21,,,,,,,,14,,,,52,64
204880,note_off,400,0,22,,,,,,,,15,,,,40,64
204960,note_on,160,0,5,,,,,,,,3,,,,76,75
204960,note_on,80,0,20,,,,,,,,13,,,,71,75
204960,note_on,80,0,22,,,,,,,,15,,,,40,75
204960,note_on,160,0,1,,,,,,,,0,,,,79,75
204960,note_on,160,0,18,,,,,,,,11,,,,79,92
204960,note_on,160,0,2,,,,,,,,0,,,,76,75
204960,note_on,80,0,7,,,,,,,,4,,,,52,75
204960,note_on,80,0,21,,,,,,,,14,,,,52,75
204960,note_on,160,0,3,,,,,,,,2,,,,79,75
204960,note_on,160,0,19,,,,,,,,12,,,,76,75
204960,note_on,80,0,8,,,,,,,,4,,,,40,75
204960,note_on,160,0,6,,,,,,,,3,,,,71,75
204960,note_on,160,0,4,,,,,,,,2,,,,76,75
205040,note_off,80,0,18,,,,,,,,11,,,,79,64
205040,note_off,80,0,4,,,,,,,,2,,,,76,64
205040,note_off,80,0,6,,,,,,,,3,,,,71,64
205040,note_off,80,0,1,,,,,,,,0,,,,79,64
205040,note_off,80,0,3,,,,,,,,2,,,,79,64
205040,note_off,80,0,19,,,,,,,,12,,,,76,64
205040,note_off,80,0,5,,,,,,,,3,,,,76,64
205040,note_off,80,0,2,,,,,,,,0,,,,76,64
205200,note_on,160,0,1,,,,,,,,0,,,,78,75
205200,note_on,160,0,3,,,,,,,,2,,,,78,75
205200,note_on,160,0,4,,,,,,,,2,,,,74,75
205200,note_on,160,0,19,,,,,,,,12,,,,74,75
205200,note_on,160,0,18,,,,,,,,11,,,,78,92
205200,note_on,160,0,2,,,,,,,,0,,,,74,75
205200,note_on,160,0,6,,,,,,,,3,,,,64,75
205200,note_on,160,0,5,,,,,,,,3,,,,74,75
205280,note_off,80,0,2,,,,,,,,0,,,,74,64
205280,note_off,80,0,19,,,,,,,,12,,,,74,64
205280,note_off,80,0,6,,,,,,,,3,,,,64,64
205280,note_off,80,0,3,,,,,,,,2,,,,78,64
205280,note_off,80,0,1,,,,,,,,0,,,,78,64
205280,note_off,80,0,5,,,,,,,,3,,,,74,64
205280,note_off,80,0,4,,,,,,,,2,,,,74,64
205280,note_off,80,0,18,,,,,,,,11,,,,78,64
205360,note_off,400,0,7,,,,,,,,4,,,,52,64
205360,note_off,400,0,20,,,,,,,,13,,,,71,64
205360,note_off,400,0,22,,,,,,,,15,,,,40,64
205360,note_off,400,0,21,,,,,,,,14,,,,52,64
205360,note_off,400,0,8,,,,,,,,4,,,,40,64
205440,note_on,160,0,1,,,,,,,,0,,,,76,75
205440,note_on,160,0,3,,,,,,,,2,,,,76,75
205440,note_on,160,0,2,,,,,,,,0,,,,73,75
205440,note_on,80,0,21,,,,,,,,14,,,,57,75
205440,note_on,160,0,6,,,,,,,,3,,,,69,75
205440,note_on,160,0,18,,,,,,,,11,,,,76,92
205440,note_on,80,0,8,,,,,,,,4,,,,45,75
205440,note_on,80,0,20,,,,,,,,13,,,,73,75
205440,note_on,160,0,5,,,,,,,,3,,,,73,75
205440,note_on,160,0,19,,,,,,,,12,,,,73,75
205440,note_on,80,0,22,,,,,,,,15,,,,45,75
205440,note_on,160,0,4,,,,,,,,2,,,,73,75
205440,note_on,80,0,7,,,,,,,,4,,,,57,75
205520,note_off,80,0,21,,,,,,,,14,,,,57,64
205520,note_off,80,0,6,,,,,,,,3,,,,69,64
205520,note_off,80,0,7,,,,,,,,4,,,,57,64
205520,note_off,80,0,22,,,,,,,,15,,,,45,64
205520,note_off,80,0,20,,,,,,,,13,,,,73,64
205520,note_off,80,0,8,,,,,,,,4,,,,45,64
205680,note_on,160,0,8,,,,,,,,4,,,,43,75
205680,note_on,160,0,21,,,,,,,,14,,,,55,75
205680,note_on,160,0,6,,,,,,,,3,,,,67,75
205680,note_on,160,0,22,,,,,,,,15,,,,43,75
205680,note_on,160,0,7,,,,,,,,4,,,,55,75
205680,note_on,160,0,20,,,,,,,,13,,,,71,75
205760,note_off,80,0,8,,,,,,,,4,,,,43,64
205760,note_off,80,0,7,,,,,,,,4,,,,55,64
205760,note_off,80,0,22,,,,,,,,15,,,,43,64
205760,note_off,80,0,20,,,,,,,,13,,,,71,64
205760,note_off,80,0,6,,,,,,,,3,,,,67,64
205760,note_off,80,0,21,,,,,,,,14,,,,55,64
205840,note_off,400,0,2,,,,,,,,0,,,,73,64
205840,note_off,400,0,4,,,,,,,,2,,,,73,64
205840,note_off,400,0,19,,,,,,,,12,,,,73,64
205840,note_off,400,0,3,,,,,,,,2,,,,76,64
205840,note_off,400,0,1,,,,,,,,0,,,,76,64
205840,note_off,400,0,18,,,,,,,,11,,,,76,64
205840,note_off,400,0,5,,,,,,,,3,,,,73,64
205920,note_on,160,0,21,,,,,,,,14,,,,57,75
205920,note_on,80,0,18,,,,,,,,11,,,,76,92
205920,note_on,80,0,5,,,,,,,,3,,,,73,75
205920,note_on,160,0,7,,,,,,,,4,,,,57,75
205920,note_on,80,0,4,,,,,,,,2,,,,73,75
205920,note_on,160,0,20,,,,,,,,13,,,,73,75
205920,note_on,160,0,8,,,,,,,,4,,,,45,75
205920,note_on,80,0,1,,,,,,,,0,,,,76,75
205920,note_on,80,0,3,,,,,,,,2,,,,76,75
205920,note_on,80,0,19,,,,,,,,12,,,,73,75
205920,note_on,160,0,6,,,,,,,,3,,,,69,75
205920,note_on,80,0,2,,,,,,,,0,,,,73,75
205920,note_on,160,0,22,,,,,,,,15,,,,45,75
206000,note_off,80,0,21,,,,,,,,14,,,,57,64
206000,note_off,80,0,6,,,,,,,,3,,,,69,64
206000,note_off,80,0,20,,,,,,,,13,,,,73,64
206000,note_off,80,0,7,,,,,,,,4,,,,57,64
206000,note_off,80,0,8,,,,,,,,4,,,,45,64
206000,note_off,80,0,22,,,,,,,,15,,,,45,64
206160,note_on,160,0,7,,,,,,,,4,,,,59,75
206160,note_on,160,0,22,,,,,,,,15,,,,47,75
206160,note_on,160,0,8,,,,,,,,4,,,,47,75
206160,note_on,160,0,21,,,,,,,,14,,,,59,75
206160,note_on,160,0,20,,,,,,,,13,,,,74,75
206160,note_on,160,0,6,,,,,,,,3,,,,71,75
206240,note_off,80,0,21,,,,,,,,14,,,,59,64
206240,note_off,80,0,6,,,,,,,,3,,,,71,64
206240,note_off,80,0,22,,,,,,,,15,,,,47,64
206240,note_off,80,0,20,,,,,,,,13,,,,74,64
206240,note_off,80,0,7,,,,,,,,4,,,,59,64
206240,note_off,80,0,8,,,,,,,,4,,,,47,64
206320,note_off,400,0,1,,,,,,,,0,,,,76,64
206320,note_off,400,0,2,,,,,,,,0,,,,73,64
206320,note_off,400,0,18,,,,,,,,11,,,,76,64
206320,note_off,400,0,4,,,,,,,,2,,,,73,64
206320,note_off,400,0,19,,,,,,,,12,,,,73,64
206320,note_off,400,0,3,,,,,,,,2,,,,76,64
206320,note_off,400,0,5,,,,,,,,3,,,,73,64
206400,note_on,80,0,18,,,,,,,,11,,,,76,92
206400,note_on,160,0,8,,,,,,,,4,,,,45,75
206400,note_on,160,0,20,,,,,,,,13,,,,73,75
206400,note_on,80,0,3,,,,,,,,2,,,,76,75
206400,note_on,80,0,5,,,,,,,,3,,,,73,75
206400,note_on,80,0,2,,,,,,,,0,,,,73,75
206400,note_on,80,0,19,,,,,,,,12,,,,73,75
206400,note_on,80,0,4,,,,,,,,2,,,,73,75
206400,note_on,80,0,1,,,,,,,,0,,,,76,75
206400,note_on,160,0,22,,,,,,,,15,,,,45,75
206400,note_on,160,0,21,,,,,,,,14,,,,57,75
206400,note_on,160,0,7,,,,,,,,4,,,,57,75
206400,note_on,160,0,6,,,,,,,,3,,,,69,75
206480,note_off,80,0,8,,,,,,,,4,,,,45,64
206480,note_off,80,0,6,,,,,,,,3,,,,69,64
206480,note_off,80,0,20,,,,,,,,13,,,,73,64
206480,note_off,80,0,7,,,,,,,,4,,,,57,64
206480,note_off,80,0,22,,,,,,,,15,,,,45,64
206480,note_off,80,0,21,,,,,,,,14,,,,57,64
206640,note_on,160,0,8,,,,,,,,4,,,,43,75
206640,note_on,160,0,6,,,,,,,,3,,,,67,75
206640,note_on,160,0,20,,,,,,,,13,,,,71,75
206640,note_on,160,0,7,,,,,,,,4,,,,55,75
206640,note_on,160,0,21,,,,,,,,14,,,,55,75
206640,note_on,160,0,22,,,,,,,,15,,,,43,75
206720,note_off,80,0,21,,,,,,,,14,,,,55,64
206720,note_off,80,0,6,,,,,,,,3,,,,67,64
206720,note_off,80,0,7,,,,,,,,4,,,,55,64
206720,note_off,80,0,8,,,,,,,,4,,,,43,64
206720,note_off,80,0,22,,,,,,,,15,,,,43,64
206720,note_off,80,0,20,,,,,,,,13,,,,71,64
206800,note_off,400,0,3,,,,,,,,2,,,,76,64
206800,note_off,400,0,2,,,,,,,,0,,,,73,64
206800,note_off,400,0,4,,,,,,,,2,,,,73,64
206800,note_off,400,0,19,,,,,,,,12,,,,73,64
206800,note_off,400,0,5,,,,,,,,3,,,,73,64
206800,note_off,400,0,18,,,,,,,,11,,,,76,64
206800,note_off,400,0,1,,,,,,,,0,,,,76,64
206880,note_on,160,0,22,,,,,,,,15,,,,42,75
206880,note_on,80,0,5,,,,,,,,3,,,,78,75
206880,note_on,80,0,4,,,,,,,,2,,,,78,75
206880,note_on,160,0,7,,,,,,,,4,,,,54,75
206880,note_on,80,0,2,,,,,,,,0,,,,78,75
206880,note_on,80,0,19,,,,,,,,12,,,,78,75
206880,note_on,80,0,1,,,,,,,,0,,,,81,75
206880,note_on,160,0,6,,,,,,,,3,,,,73,75
206880,note_on,160,0,20,,,,,,,,13,,,,73,75
206880,note_on,160,0,21,,,,,,,,14,,,,54,75
206880,note_on,80,0,18,,,,,,,,11,,,,81,92
206880,note_on,80,0,3,,,,,,,,2,,,,81,75
206880,note_on,160,0,8,,,,,,,,4,,,,42,75
206960,note_off,80,0,6,,,,,,,,3,,,,73,64
206960,note_off,80,0,2,,,,,,,,0,,,,78,64
206960,note_off,80,0,4,,,,,,,,2,,,,78,64
206960,note_off,80,0,5,,,,,,,,3,,,,78,64
206960,note_off,80,0,3,,,,,,,,2,,,,81,64
206960,note_off,80,0,18,,,,,,,,11,,,,81,64
206960,note_off,80,0,19,,,,,,,,12,,,,78,64
206960,note_off,80,0,1,,,,,,,,0,,,,81,64
207120,note_on,160,0,1,,,,,,,,0,,,,79,75
207120,note_on,160,0,5,,,,,,,,3,,,,76,75
207120,note_on,160,0,4,,,,,,,,2,,,,76,75
207120,note_on,160,0,19,,,,,,,,12,,,,76,75
207120,note_on,160,0,6,,,,,,,,3,,,,66,75
207120,note_on,160,0,18,,,,,,,,11,,,,79,92
207120,note_on,160,0,3,,,,,,,,2,,,,79,75
207120,note_on,160,0,2,,,,,,,,0,,,,76,75
207200,note_off,80,0,5,,,,,,,,3,,,,76,64
207200,note_off,80,0,18,,,,,,,,11,,,,79,64
207200,note_off,80,0,1,,,,,,,,0,,,,79,64
207200,note_off,80,0,3,,,,,,,,2,,,,79,64
207200,note_off,80,0,19,,,,,,,,12,,,,76,64
207200,note_off,80,0,6,,,,,,,,3,,,,66,64
207200,note_off,80,0,4,,,,,,,,2,,,,76,64
207200,note_off,80,0,2,,,,,,,,0,,,,76,64
207280,note_off,400,0,21,,,,,,,,14,,,,54,64
207280,note_off,400,0,8,,,,,,,,4,,,,42,64
207280,note_off,400,0,7,,,,,,,,4,,,,54,64
207280,note_off,400,0,20,,,,,,,,13,,,,73,64
207280,note_off,400,0,22,,,,,,,,15,,,,42,64
207360,note_on,160,0,5,,,,,,,,3,,,,78,75
207360,note_on,160,0,6,,,,,,,,3,,,,73,75
207360,note_on,160,0,1,,,,,,,,0,,,,81,75
207360,note_on,80,0,7,,,,,,,,4,,,,54,75
207360,note_on,160,0,3,,,,,,,,2,,,,81,75
207360,note_on,80,0,20,,,,,,,,13,,,,73,75
207360,note_on,80,0,22,,,,,,,,15,,,,42,75
207360,note_on,80,0,21,,,,,,,,14,,,,54,75
207360,note_on,160,0,18,,,,,,,,11,,,,81,92
207360,note_on,160,0,19,,,,,,,,12,,,,78,75
207360,note_on,160,0,2,,,,,,,,0,,,,78,75
207360,note_on,80,0,8,,,,,,,,4,,,,42,75
207360,note_on,160,0,4,,,,,,,,2,,,,78,75
207440,note_off,80,0,5,,,,,,,,3,,,,78,64
207440,note_off,80,0,18,,,,,,,,11,,,,81,64
207440,note_off,80,0,1,,,,,,,,0,,,,81,64
207440,note_off,80,0,19,,,,,,,,12,,,,78,64
207440,note_off,80,0,4,,,,,,,,2,,,,78,64
207440,note_off,80,0,3,,,,,,,,2,,,,81,64
207440,note_off,80,0,6,,,,,,,,3,,,,73,64
207440,note_off,80,0,2,,,,,,,,0,,,,78,64
207600,note_on,160,0,2,,,,,,,,0,,,,79,75
207600,note_on,160,0,3,,,,,,,,2,,,,83,75
207600,note_on,160,0,6,,,,,,,,3,,,,66,75
207600,note_on,160,0,5,,,,,,,,3,,,,79,75
207600,note_on,160,0,19,,,,,,,,12,,,,79,75
207600,note_on,160,0,18,,,,,,,,11,,,,83,92
207600,note_on,160,0,4,,,,,,,,2,,,,79,75
207600,note_on,160,0,1,,,,,,,,0,,,,83,75
207680,note_off,80,0,19,,,,,,,,12,,,,79,64
207680,note_off,80,0,5,,,,,,,,3,,,,79,64
207680,note_off,80,0,18,,,,,,,,11,,,,83,64
207680,note_off,80,0,6,,,,,,,,3,,,,66,64
207680,note_off,80,0,4,,,,,,,,2,,,,79,64
207680,note_off,80,0,1,,,,,,,,0,,,,83,64
207680,note_off,80,0,2,,,,,,,,0,,,,79,64
207680,note_off,80,0,3,,,,,,,,2,,,,83,64
207760,note_off,400,0,22,,,,,,,,15,,,,42,64
207760,note_off,400,0,7,,,,,,,,4,,,,54,64
207760,note_off,400,0,8,,,,,,,,4,,,,42,64
207760,note_off,400,0,20,,,,,,,,13,,,,73,64
207760,note_off,400,0,21,,,,,,,,14,,,,54,64
207840,note_on,160,0,1,,,,,,,,0,,,,81,75
207840,note_on,80,0,7,,,,,,,,4,,,,54,75
207840,note_on,160,0,18,,,,,,,,11,,,,81,92
207840,note_on,80,0,8,,,,,,,,4,,,,42,75
207840,note_on,160,0,19,,,,,,,,12,,,,78,75
207840,note_on,160,0,3,,,,,,,,2,,,,81,75
207840,note_on,80,0,22,,,,,,,,15,,,,42,75
207840,note_on,160,0,6,,,,,,,,3,,,,73,75
207840,note_on,160,0,4,,,,,,,,2,,,,78,75
207840,note_on,160,0,2,,,,,,,,0,,,,78,75
207840,note_on,80,0,20,,,,,,,,13,,,,73,75
207840,note_on,80,0,21,,,,,,,,14,,,,54,75
207840,note_on,160,0,5,,,,,,,,3,,,,78,75
207920,note_off,80,0,19,,,,,,,,12,,,,78,64
207920,note_off,80,0,3,,,,,,,,2,,,,81,64
207920,note_off,80,0,6,,,,,,,,3,,,,73,64
207920,note_off,80,0,2,,,,,,,,0,,,,78,64
207920,note_off,80,0,1,,,,,,,,0,,,,81,64
207920,note_off,80,0,18,,,,,,,,11,,,,81,64
207920,note_off,80,0,5,,,,,,,,3,,,,78,64
207920,note_off,80,0,4,,,,,,,,2,,,,78,64
208080,note_on,160,0,3,,,,,,,,2,,,,79,75
208080,note_on,160,0,2,,,,,,,,0,,,,76,75
208080,note_on,160,0,1,,,,,,,,0,,,,79,75
208080,note_on,160,0,19,,,,,,,,12,,,,76,75
208080,note_on,160,0,5,,,,,,,,3,,,,76,75
208080,note_on,160,0,18,,,,,,,,11,,,,79,92
208080,note_on,160,0,6,,,,,,,,3,,,,66,75
208080,note_on,160,0,4,,,,,,,,2,,,,76,75
208160,note_off,80,0,3,,,,,,,,2,,,,79,64
208160,note_off,80,0,18,,,,,,,,11,,,,79,64
208160,note_off,80,0,6,,,,,,,,3,,,,66,64
208160,note_off,80,0,1,,,,,,,,0,,,,79,64
208160,note_off,80,0,19,,,,,,,,12,,,,76,64
208160,note_off,80,0,4,,,,,,,,2,,,,76,64
208160,note_off,80,0,5,,,,,,,,3,,,,76,64
208160,note_off,80,0,2,,,,,,,,0,,,,76,64
208240,note_off,400,0,8,,,,,,,,4,,,,42,64
208240,note_off,400,0,7,,,,,,,,4,,,,54,64
208240,note_off,400,0,21,,,,,,,,14,,,,54,64
208240,note_off,400,0,20,,,,,,,,13,,,,73,64
208240,note_off,400,0,22,,,,,,,,15,,,,42,64
208320,note_on,160,0,1,,,,,,,,0,,,,78,75
208320,note_on,80,0,22,,,,,,,,15,,,,47,75
208320,note_on,160,0,4,,,,,,,,2,,,,75,75
208320,note_on,80,0,7,,,,,,,,4,,,,59,75
208320,note_on,160,0,2,,,,,,,,0,,,,75,75
208320,note_on,80,0,8,,,,,,,,4,,,,47,75
208320,note_on,160,0,19,,,,,,,,12,,,,75,75
208320,note_on,80,0,21,,,,,,,,14,,,,59,75
208320,note_on,160,0,18,,,,,,,,11,,,,78,92
208320,note_on,160,0,3,,,,,,,,2,,,,78,75
208320,note_on,80,0,20,,,,,,,,13,,,,66,75
208320,note_on,160,0,6,,,,,,,,3,,,,66,75
208320,note_on,160,0,5,,,,,,,,3,,,,75,75
208400,note_off,80,0,4,,,,,,,,2,,,,75,64
208400,note_off,80,0,19,,,,,,,,12,,,,75,64
208400,note_off,80,0,2,,,,,,,,0,,,,75,64
208400,note_off,80,0,5,,,,,,,,3,,,,75,64
208560,note_on,160,0,5,,,,,,,,3,,,,73,75
208560,note_on,160,0,2,,,,,,,,0,,,,73,75
208560,note_on,160,0,4,,,,,,,,2,,,,73,75
208560,note_on,160,0,19,,,,,,,,12,,,,73,75
208640,note_off,80,0,5,,,,,,,,3,,,,73,64
208640,note_off,80,0,2,,,,,,,,0,,,,73,64
208640,note_off,80,0,4,,,,,,,,2,,,,73,64
208640,note_off,80,0,19,,,,,,,,12,,,,73,64
208720,note_off,400,0,20,,,,,,,,13,,,,66,64
208720,note_off,400,0,7,,,,,,,,4,,,,59,64
208720,note_off,400,0,21,,,,,,,,14,,,,59,64
208720,note_off,400,0,18,,,,,,,,11,,,,78,64
208720,note_off,400,0,6,,,,,,,,3,,,,66,64
208720,note_off,400,0,1,,,,,,,,0,,,,78,64
208720,note_off,400,0,22,,,,,,,,15,,,,47,64
208720,note_off,400,0,3,,,,,,,,2,,,,78,64
208720,note_off,400,0,8,,,,,,,,4,,,,47,64
208800,note_on,80,0,6,,,,,,,,3,,,,69,75
208800,note_on,80,0,8,,,,,,,,4,,,,35,75
208800,note_on,160,0,2,,,,,,,,0,,,,75,75
208800,note_on,80,0,21,,,,,,,,14,,,,47,75
208800,note_on,80,0,7,,,,,,,,4,,,,47,75
208800,note_on,80,0,3,,,,,,,,2,,,,83,75
208800,note_on,160,0,5,,,,,,,,3,,,,75,75
208800,note_on,80,0,1,,,,,,,,0,,,,83,75
208800,note_on,80,0,20,,,,,,,,13,,,,69,75
208800,note_on,80,0,22,,,,,,,,15,,,,35,75
208800,note_on,160,0,4,,,,,,,,2,,,,75,75
208800,note_on,160,0,19,,,,,,,,12,,,,75,75
208800,note_on,80,0,18,,,,,,,,11,,,,83,92
208880,note_off,80,0,5,,,,,,,,3,,,,75,64
208880,note_off,80,0,2,,,,,,,,0,,,,75,64
208880,note_off,80,0,4,,,,,,,,2,,,,75,64
208880,note_off,80,0,19,,,,,,,,12,,,,75,64
209040,note_on,160,0,5,,,,,,,,3,,,,76,75
209040,note_on,160,0,2,,,,,,,,0,,,,76,75
209040,note_on,160,0,4,,,,,,,,2,,,,76,75
209040,note_on,160,0,19,,,,,,,,12,,,,76,75
209120,note_off,80,0,19,,,,,,,,12,,,,76,64
209120,note_off,80,0,5,,,,,,,,3,,,,76,64
209120,note_off,80,0,2,,,,,,,,0,,,,76,64
209120,note_off,80,0,4,,,,,,,,2,,,,76,64
209200,note_off,400,0,21,,,,,,,,14,,,,47,64
209200,note_off,400,0,22,,,,,,,,15,,,,35,64
209200,note_off,400,0,8,,,,,,,,4,,,,35,64
209200,note_off,400,0,7,,,,,,,,4,,,,47,64
209280,note_on,80,0,21,,,,,,,,14,,,,47,75
209280,note_on,160,0,2,,,,,,,,0,,,,78,75
209280,note_on,160,0,5,,,,,,,,3,,,,78,75
209280,note_on,80,0,22,,,,,,,,15,,,,35,75
209280,note_on,160,0,4,,,,,,,,2,,,,78,75
209280,note_on,80,0,7,,,,,,,,4,,,,47,75
209280,note_on,160,0,19,,,,,,,,12,,,,78,75
209280,note_on,80,0,8,,,,,,,,4,,,,35,75
209360,note_off,80,0,19,,,,,,,,12,,,,78,64
209360,note_off,80,0,4,,,,,,,,2,,,,78,64
209360,note_off,80,0,2,,,,,,,,0,,,,78,64
209360,note_off,80,0,5,,,,,,,,3,,,,78,64
209520,note_on,160,0,5,,,,,,,,3,,,,75,75
209520,note_on,160,0,4,,,,,,,,2,,,,75,75
209520,note_on,160,0,19,,,,,,,,12,,,,75,75
209520,note_on,160,0,2,,,,,,,,0,,,,75,75
209600,note_off,80,0,4,,,,,,,,2,,,,75,64
209600,note_off,80,0,2,,,,,,,,0,,,,75,64
209600,note_off,80,0,19,,,,,,,,12,,,,75,64
209600,note_off,80,0,5,,,,,,,,3,,,,75,64
209680,note_off,400,0,7,,,,,,,,4,,,,47,64
209680,note_off,400,0,21,,,,,,,,14,,,,47,64
209680,note_off,400,0,8,,,,,,,,4,,,,35,64
209680,note_off,400,0,22,,,,,,,,15,,,,35,64
209760,note_on,80,0,8,,,,,,,,4,,,,37,75
209760,note_on,160,0,2,,,,,,,,0,,,,76,75
209760,note_on,160,0,4,,,,,,,,2,,,,76,75
209760,note_on,80,0,21,,,,,,,,14,,,,49,75
209760,note_on,80,0,7,,,,,,,,4,,,,49,75
209760,note_on,160,0,19,,,,,,,,12,,,,76,75
209760,note_on,80,0,22,,,,,,,,15,,,,37,75
209760,note_on,160,0,5,,,,,,,,3,,,,76,75
209840,note_off,80,0,22,,,,,,,,15,,,,37,64
209840,note_off,80,0,21,,,,,,,,14,,,,49,64
209840,note_off,80,0,8,,,,,,,,4,,,,37,64
209840,note_off,80,0,7,,,,,,,,4,,,,49,64
210000,note_on,160,0,7,,,,,,,,4,,,,52,75
210000,note_on,160,0,22,,,,,,,,15,,,,40,75
210000,note_on,160,0,8,,,,,,,,4,,,,40,75
210000,note_on,160,0,21,,,,,,,,14,,,,52,75
210080,note_off,80,0,22,,,,,,,,15,,,,40,64
210080,note_off,80,0,21,,,,,,,,14,,,,52,64
210080,note_off,80,0,8,,,,,,,,4,,,,40,64
210080,note_off,80,0,7,,,,,,,,4,,,,52,64
210160,note_off,400,0,19,,,,,,,,12,,,,76,64
210160,note_off,1360,0,18,,,,,,,,11,,,,83,64
210160,note_off,400,0,5,,,,,,,,3,,,,76,64
210160,note_off,1360,0,20,,,,,,,,13,,,,69,64
210160,note_off,400,0,4,,,,,,,,2,,,,76,64
210160,note_off,1360,0,1,,,,,,,,0,,,,83,64
210160,note_off,400,0,2,,,,,,,,0,,,,76,64
210160,note_off,1360,0,3,,,,,,,,2,,,,83,64
210160,note_off,1360,0,6,,,,,,,,3,,,,69,64
210240,note_on,160,0,22,,,,,,,,15,,,,45,75
210240,note_on,80,0,19,,,,,,,,12,,,,76,75
210240,note_on,80,0,5,,,,,,,,3,,,,76,75
210240,note_on,80,0,1,,,,,,,,0,,,,81,75
210240,note_on,80,0,3,,,,,,,,2,,,,81,75
210240,note_on,80,0,6,,,,,,,,3,,,,73,75
210240,note_on,80,0,4,,,,,,,,2,,,,76,75
210240,note_on,160,0,21,,,,,,,,14,,,,57,75
210240,note_on,80,0,2,,,,,,,,0,,,,76,75
210240,note_on,80,0,18,,,,,,,,11,,,,81,92
210240,note_on,80,0,20,,,,,,,,13,,,,73,75
210240,note_on,160,0,7,,,,,,,,4,,,,57,75
210240,note_on,160,0,8,,,,,,,,4,,,,45,75
210320,note_off,80,0,8,,,,,,,,4,,,,45,64
210320,note_off,80,0,7,,,,,,,,4,,,,57,64
210320,note_off,80,0,22,,,,,,,,15,,,,45,64
210320,note_off,80,0,21,,,,,,,,14,,,,57,64
210480,note_on,160,0,22,,,,,,,,15,,,,37,75
210480,note_on,0,0,1,,,,,,,,0,,,,80,75
210480,note_on,160,0,21,,,,,,,,14,,,,49,75
210480,note_off,240,0,18,,,,,,,,11,,,,81,64
210480,note_off,240,0,1,,,,,,,,0,,,,81,64
210480,note_off,240,0,3,,,,,,,,2,,,,81,64
210480,note_on,0,0,3,,,,,,,,2,,,,80,75
210480,note_on,0,0,18,,,,,,,,11,,,,80,92
210480,note_on,160,0,8,,,,,,,,4,,,,37,75
210480,note_on,160,0,7,,,,,,,,4,,,,49,75
210560,note_off,80,0,7,,,,,,,,4,,,,49,64
210560,note_off,80,0,22,,,,,,,,15,,,,37,64
210560,note_off,80,0,21,,,,,,,,14,,,,49,64
210560,note_off,80,0,8,,,,,,,,4,,,,37,64
210715,note_off,235,0,1,,,,,,,,0,,,,80,64
210715,note_off,235,0,3,,,,,,,,2,,,,80,64
210715,note_off,235,0,18,,,,,,,,11,,,,80,64
210720,note_on,160,0,7,,,,,,,,4,,,,52,75
210720,note_on,5,0,18,,,,,,,,11,,,,81,92
210720,note_on,160,0,22,,,,,,,,15,,,,40,75
210720,note_on,160,0,8,,,,,,,,4,,,,40,75
210720,note_on,5,0,1,,,,,,,,0,,,,81,75
210720,note_on,5,0,3,,,,,,,,2,,,,81,75
210720,note_on,160,0,21,,,,,,,,14,,,,52,75
210800,note_off,80,0,22,,,,,,,,15,,,,40,64
210800,note_off,80,0,21,,,,,,,,14,,,,52,64
210800,note_off,80,0,7,,,,,,,,4,,,,52,64
210800,note_off,80,0,8,,,,,,,,4,,,,40,64
210880,note_off,640,0,4,,,,,,,,2,,,,76,64
210880,note_off,640,0,6,,,,,,,,3,,,,73,64
210880,note_off,640,0,20,,,,,,,,13,,,,73,64
210880,note_off,640,0,2,,,,,,,,0,,,,76,64
210880,note_off,640,0,5,,,,,,,,3,,,,76,64
210880,note_off,640,0,19,,,,,,,,12,,,,76,64
210960,note_on,160,0,8,,,,,,,,4,,,,45,75
210960,note_on,80,0,20,,,,,,,,13,,,,73,75
210960,note_on,80,0,2,,,,,,,,0,,,,76,75
210960,note_on,80,0,6,,,,,,,,3,,,,73,75
210960,note_on,80,0,19,,,,,,,,12,,,,76,75
210960,note_on,80,0,4,,,,,,,,2,,,,76,75
210960,note_on,160,0,21,,,,,,,,14,,,,57,75
210960,note_on,160,0,7,,,,,,,,4,,,,57,75
210960,note_on,80,0,5,,,,,,,,3,,,,76,75
210960,note_on,160,0,22,,,,,,,,15,,,,45,75
211040,note_off,80,0,22,,,,,,,,15,,,,45,64
211040,note_off,80,0,21,,,,,,,,14,,,,57,64
211040,note_off,80,0,7,,,,,,,,4,,,,57,64
211040,note_off,80,0,8,,,,,,,,4,,,,45,64
211195,note_off,235,0,6,,,,,,,,3,,,,73,64
211195,note_off,235,0,4,,,,,,,,2,,,,76,64
211195,note_off,235,0,2,,,,,,,,0,,,,76,64
211195,note_off,235,0,19,,,,,,,,12,,,,76,64
211195,note_off,235,0,5,,,,,,,,3,,,,76,64
211195,note_off,235,0,20,,,,,,,,13,,,,73,64
211200,note_on,5,0,5,,,,,,,,3,,,,78,75
211200,note_on,5,0,20,,,,,,,,13,,,,71,75
211200,note_on,5,0,4,,,,,,,,2,,,,78,75
211200,note_on,160,0,8,,,,,,,,4,,,,39,75
211200,note_on,160,0,22,,,,,,,,15,,,,39,75
211200,note_on,160,0,21,,,,,,,,14,,,,51,75
211200,note_on,5,0,19,,,,,,,,12,,,,78,75
211200,note_on,160,0,7,,,,,,,,4,,,,51,75
211200,note_on,5,0,2,,,,,,,,0,,,,78,75
211200,note_on,5,0,6,,,,,,,,3,,,,71,75
211280,note_off,80,0,21,,,,,,,,14,,,,51,64
211280,note_off,80,0,22,,,,,,,,15,,,,39,64
211280,note_off,80,0,7,,,,,,,,4,,,,51,64
211280,note_off,80,0,8,,,,,,,,4,,,,39,64
211435,note_off,715,0,18,,,,,,,,11,,,,81,64
211435,note_off,715,0,1,,,,,,,,0,,,,81,64
211435,note_off,715,0,3,,,,,,,,2,,,,81,64
211440,note_on,160,0,22,,,,,,,,15,,,,42,75
211440,note_on,160,0,21,,,,,,,,14,,,,54,75
211440,note_on,5,0,1,,,,,,,,0,,,,81,75
211440,note_on,160,0,7,,,,,,,,4,,,,54,75
211440,note_on,5,0,18,,,,,,,,11,,,,81,92
211440,note_on,160,0,8,,,,,,,,4,,,,42,75
211440,note_on,5,0,3,,,,,,,,2,,,,81,75
211520,note_off,80,0,7,,,,,,,,4,,,,54,64
211520,note_off,80,0,8,,,,,,,,4,,,,42,64
211520,note_off,80,0,22,,,,,,,,15,,,,42,64
211520,note_off,80,0,3,,,,,,,,2,,,,81,64
211520,note_off,80,0,21,,,,,,,,14,,,,54,64
211520,note_off,80,0,18,,,,,,,,11,,,,81,64
211520,note_off,80,0,1,,,,,,,,0,,,,81,64
211600,note_off,400,0,6,,,,,,,,3,,,,71,64
211600,note_off,400,0,20,,,,,,,,13,,,,71,64
211680,note_on,160,0,3,,,,,,,,2,,,,83,75
211680,note_on,160,0,18,,,,,,,,11,,,,83,92
211680,note_on,80,0,6,,,,,,,,3,,,,75,75
211680,note_on,160,0,7,,,,,,,,4,,,,59,75
211680,note_on,80,0,20,,,,,,,,13,,,,75,75
211680,note_on,160,0,1,,,,,,,,0,,,,83,75
211680,note_on,160,0,8,,,,,,,,4,,,,47,75
211680,note_on,160,0,21,,,,,,,,14,,,,59,75
211680,note_on,160,0,22,,,,,,,,15,,,,47,75
211760,note_off,80,0,21,,,,,,,,14,,,,59,64
211760,note_off,80,0,22,,,,,,,,15,,,,47,64
211760,note_off,80,0,1,,,,,,,,0,,,,83,64
211760,note_off,80,0,7,,,,,,,,4,,,,59,64
211760,note_off,80,0,8,,,,,,,,4,,,,47,64
211760,note_off,80,0,18,,,,,,,,11,,,,83,64
211760,note_off,80,0,3,,,,,,,,2,,,,83,64
211840,note_off,640,0,19,,,,,,,,12,,,,78,64
211840,note_off,640,0,4,,,,,,,,2,,,,78,64
211840,note_off,640,0,5,,,,,,,,3,,,,78,64
211840,note_off,640,0,2,,,,,,,,0,,,,78,64
211920,note_on,160,0,1,,,,,,,,0,,,,81,75
211920,note_on,160,0,7,,,,,,,,4,,,,51,75
211920,note_on,160,0,21,,,,,,,,14,,,,51,75
211920,note_on,160,0,8,,,,,,,,4,,,,39,75
211920,note_on,160,0,22,,,,,,,,15,,,,39,75
211920,note_on,80,0,2,,,,,,,,0,,,,78,75
211920,note_on,160,0,18,,,,,,,,11,,,,81,92
211920,note_on,160,0,3,,,,,,,,2,,,,81,75
211920,note_on,80,0,5,,,,,,,,3,,,,78,75
211920,note_on,80,0,19,,,,,,,,12,,,,78,75
211920,note_on,80,0,4,,,,,,,,2,,,,78,75
212000,note_off,80,0,3,,,,,,,,2,,,,81,64
212000,note_off,80,0,19,,,,,,,,12,,,,78,64
212000,note_off,80,0,7,,,,,,,,4,,,,51,64
212000,note_off,80,0,4,,,,,,,,2,,,,78,64
212000,note_off,80,0,8,,,,,,,,4,,,,39,64
212000,note_off,80,0,5,,,,,,,,3,,,,78,64
212000,note_off,80,0,18,,,,,,,,11,,,,81,64
212000,note_off,80,0,22,,,,,,,,15,,,,39,64
212000,note_off,80,0,2,,,,,,,,0,,,,78,64
212000,note_off,80,0,1,,,,,,,,0,,,,81,64
212000,note_off,80,0,21,,,,,,,,14,,,,51,64
212080,note_off,400,0,20,,,,,,,,13,,,,75,64
212080,note_off,400,0,6,,,,,,,,3,,,,75,64
212160,note_on,160,0,21,,,,,,,,14,,,,54,75
212160,note_on,160,0,18,,,,,,,,11,,,,79,92
212160,note_on,160,0,8,,,,,,,,4,,,,42,75
212160,note_on,160,0,2,,,,,,,,0,,,,76,75
212160,note_on,80,0,6,,,,,,,,3,,,,71,75
212160,note_on,160,0,4,,,,,,,,2,,,,76,75
212160,note_on,160,0,19,,,,,,,,12,,,,76,75
212160,note_on,160,0,5,,,,,,,,3,,,,76,75
212160,note_on,80,0,20,,,,,,,,13,,,,71,75
212160,note_on,160,0,3,,,,,,,,2,,,,79,75
212160,note_on,160,0,7,,,,,,,,4,,,,54,75
212160,note_on,160,0,1,,,,,,,,0,,,,79,75
212160,note_on,160,0,22,,,,,,,,15,,,,42,75
212240,note_off,80,0,18,,,,,,,,11,,,,79,64
212240,note_off,80,0,8,,,,,,,,4,,,,42,64
212240,note_off,80,0,4,,,,,,,,2,,,,76,64
212240,note_off,80,0,19,,,,,,,,12,,,,76,64
212240,note_off,80,0,5,,,,,,,,3,,,,76,64
212240,note_off,80,0,7,,,,,,,,4,,,,54,64
212240,note_off,80,0,2,,,,,,,,0,,,,76,64
212240,note_off,80,0,3,,,,,,,,2,,,,79,64
212240,note_off,80,0,21,,,,,,,,14,,,,54,64
212240,note_off,80,0,1,,,,,,,,0,,,,79,64
212240,note_off,80,0,22,,,,,,,,15,,,,42,64
212400,note_on,160,0,7,,,,,,,,4,,,,59,75
212400,note_on,160,0,5,,,,,,,,3,,,,75,75
212400,note_on,160,0,8,,,,,,,,4,,,,47,75
212400,note_on,160,0,1,,,,,,,,0,,,,78,75
212400,note_on,160,0,21,,,,,,,,14,,,,59,75
212400,note_on,160,0,4,,,,,,,,2,,,,75,75
212400,note_on,160,0,3,,,,,,,,2,,,,78,75
212400,note_on,160,0,18,,,,,,,,11,,,,78,92
212400,note_on,160,0,2,,,,,,,,0,,,,75,75
212400,note_on,160,0,22,,,,,,,,15,,,,47,75
212400,note_on,160,0,19,,,,,,,,12,,,,75,75
212480,note_off,80,0,2,,,,,,,,0,,,,75,64
212480,note_off,80,0,3,,,,,,,,2,,,,78,64
212480,note_off,80,0,21,,,,,,,,14,,,,59,64
212480,note_off,80,0,22,,,,,,,,15,,,,47,64
212480,note_off,80,0,1,,,,,,,,0,,,,78,64
212480,note_off,80,0,7,,,,,,,,4,,,,59,64
212480,note_off,80,0,18,,,,,,,,11,,,,78,64
212480,note_off,80,0,4,,,,,,,,2,,,,75,64
212480,note_off,80,0,5,,,,,,,,3,,,,75,64
212480,note_off,80,0,19,,,,,,,,12,,,,75,64
212480,note_off,80,0,8,,,,,,,,4,,,,47,64
212560,note_off,400,0,6,,,,,,,,3,,,,71,64
212560,note_off,400,0,20,,,,,,,,13,,,,71,64
212640,note_on,160,0,22,,,,,,,,15,,,,40,75
212640,note_on,80,0,6,,,,,,,,3,,,,71,75
212640,note_on,160,0,4,,,,,,,,2,,,,76,75
212640,note_on,160,0,1,,,,,,,,0,,,,79,75
212640,note_on,160,0,8,,,,,,,,4,,,,40,75
212640,note_on,160,0,18,,,,,,,,11,,,,79,92
212640,note_on,160,0,5,,,,,,,,3,,,,76,75
212640,note_on,160,0,19,,,,,,,,12,,,,76,75
212640,note_on,160,0,3,,,,,,,,2,,,,79,75
212640,note_on,80,0,20,,,,,,,,13,,,,71,75
212640,note_on,160,0,2,,,,,,,,0,,,,76,75
212640,note_on,160,0,21,,,,,,,,14,,,,52,75
212640,note_on,160,0,7,,,,,,,,4,,,,52,75
212720,note_off,80,0,22,,,,,,,,15,,,,40,64
212720,note_off,80,0,7,,,,,,,,4,,,,52,64
212720,note_off,80,0,8,,,,,,,,4,,,,40,64
212720,note_off,80,0,21,,,,,,,,14,,,,52,64
212880,note_on,160,0,22,,,,,,,,15,,,,43,75
212880,note_on,160,0,21,,,,,,,,14,,,,55,75
212880,note_on,160,0,8,,,,,,,,4,,,,43,75
212880,note_on,160,0,7,,,,,,,,4,,,,55,75
212960,note_off,80,0,21,,,,,,,,14,,,,55,64
212960,note_off,80,0,22,,,,,,,,15,,,,43,64
212960,note_off,80,0,7,,,,,,,,4,,,,55,64
212960,note_off,80,0,8,,,,,,,,4,,,,43,64
213120,note_on,160,0,8,,,,,,,,4,,,,47,75
213120,note_on,160,0,22,,,,,,,,15,,,,47,75
213120,note_on,160,0,21,,,,,,,,14,,,,59,75
213120,note_on,160,0,7,,,,,,,,4,,,,59,75
213200,note_off,80,0,8,,,,,,,,4,,,,47,64
213200,note_off,80,0,22,,,,,,,,15,,,,47,64
213200,note_off,80,0,21,,,,,,,,14,,,,59,64
213200,note_off,80,0,7,,,,,,,,4,,,,59,64
213280,note_off,640,0,18,,,,,,,,11,,,,79,64
213280,note_off,640,0,5,,,,,,,,3,,,,76,64
213280,note_off,640,0,4,,,,,,,,2,,,,76,64
213280,note_off,640,0,19,,,,,,,,12,,,,76,64
213280,note_off,640,0,1,,,,,,,,0,,,,79,64
213280,note_off,640,0,6,,,,,,,,3,,,,71,64
213280,note_off,640,0,3,,,,,,,,2,,,,79,64
213280,note_off,640,0,2,,,,,,,,0,,,,76,64
213280,note_off,640,0,20,,,,,,,,13,,,,71,64
213360,note_on,160,0,7,,,,,,,,4,,,,52,75
213360,note_on,80,0,5,,,,,,,,3,,,,71,75
213360,note_on,80,0,18,,,,,,,,11,,,,79,92
213360,note_on,80,0,1,,,,,,,,0,,,,79,75
213360,note_on,80,0,19,,,,,,,,12,,,,71,75
213360,note_on,80,0,3,,,,,,,,2,,,,79,75
213360,note_on,80,0,20,,,,,,,,13,,,,79,75
213360,note_on,160,0,22,,,,,,,,15,,,,40,75
213360,note_on,80,0,2,,,,,,,,0,,,,71,75
213360,note_on,160,0,21,,,,,,,,14,,,,52,75
213360,note_on,80,0,4,,,,,,,,2,,,,71,75
213360,note_on,160,0,8,,,,,,,,4,,,,40,75
213360,note_on,80,0,6,,,,,,,,3,,,,79,75
213440,note_off,80,0,22,,,,,,,,15,,,,40,64
213440,note_off,80,0,1,,,,,,,,0,,,,79,64
213440,note_off,80,0,8,,,,,,,,4,,,,40,64
213440,note_off,80,0,3,,,,,,,,2,,,,79,64
213440,note_off,80,0,6,,,,,,,,3,,,,79,64
213440,note_off,80,0,5,,,,,,,,3,,,,71,64
213440,note_off,80,0,19,,,,,,,,12,,,,71,64
213440,note_off,80,0,4,,,,,,,,2,,,,71,64
213440,note_off,80,0,21,,,,,,,,14,,,,52,64
213440,note_off,80,0,18,,,,,,,,11,,,,79,64
213440,note_off,80,0,20,,,,,,,,13,,,,79,64
213440,note_off,80,0,7,,,,,,,,4,,,,52,64
213440,note_off,80,0,2,,,,,,,,0,,,,71,64
213600,note_on,160,0,7,,,,,,,,4,,,,55,75
213600,note_on,160,0,19,,,,,,,,12,,,,71,75
213600,note_on,160,0,4,,,,,,,,2,,,,71,75
213600,note_on,160,0,6,,,,,,,,3,,,,76,75
213600,note_on,160,0,2,,,,,,,,0,,,,71,75
213600,note_on,160,0,5,,,,,,,,3,,,,71,75
213600,note_on,160,0,8,,,,,,,,4,,,,43,75
213600,note_on,160,0,20,,,,,,,,13,,,,76,75
213600,note_on,160,0,21,,,,,,,,14,,,,55,75
213600,note_on,160,0,18,,,,,,,,11,,,,79,92
213600,note_on,160,0,1,,,,,,,,0,,,,79,75
213600,note_on,160,0,22,,,,,,,,15,,,,43,75
213600,note_on,160,0,3,,,,,,,,2,,,,79,75
213680,note_off,80,0,4,,,,,,,,2,,,,71,64
213680,note_off,80,0,18,,,,,,,,11,,,,79,64
213680,note_off,80,0,5,,,,,,,,3,,,,71,64
213680,note_off,80,0,20,,,,,,,,13,,,,76,64
213680,note_off,80,0,2,,,,,,,,0,,,,71,64
213680,note_off,80,0,19,,,,,,,,12,,,,71,64
213680,note_off,80,0,21,,,,,,,,14,,,,55,64
213680,note_off,80,0,1,,,,,,,,0,,,,79,64
213680,note_off,80,0,22,,,,,,,,15,,,,43,64
213680,note_off,80,0,3,,,,,,,,2,,,,79,64
213680,note_off,80,0,7,,,,,,,,4,,,,55,64
213680,note_off,80,0,6,,,,,,,,3,,,,76,64
213680,note_off,80,0,8,,,,,,,,4,,,,43,64
213840,note_on,160,0,20,,,,,,,,13,,,,71,75
213840,note_on,160,0,3,,,,,,,,2,,,,78,75
213840,note_on,160,0,1,,,,,,,,0,,,,78,75
213840,note_on,160,0,5,,,,,,,,3,,,,69,75
213840,note_on,160,0,22,,,,,,,,15,,,,47,75
213840,note_on,160,0,18,,,,,,,,11,,,,78,92
213840,note_on,160,0,19,,,,,,,,12,,,,69,75
213840,note_on,160,0,2,,,,,,,,0,,,,69,75
213840,note_on,160,0,6,,,,,,,,3,,,,71,75
213840,note_on,160,0,21,,,,,,,,14,,,,59,75
213840,note_on,160,0,4,,,,,,,,2,,,,69,75
213840,note_on,160,0,7,,,,,,,,4,,,,59,75
213840,note_on,160,0,8,,,,,,,,4,,,,47,75
213920,note_off,80,0,6,,,,,,,,3,,,,71,64
213920,note_off,80,0,21,,,,,,,,14,,,,59,64
213920,note_off,80,0,7,,,,,,,,4,,,,59,64
213920,note_off,80,0,20,,,,,,,,13,,,,71,64
213920,note_off,80,0,22,,,,,,,,15,,,,47,64
213920,note_off,80,0,8,,,,,,,,4,,,,47,64
213960,note_on,0,0,19,,,,,,,,12,,,,67,75
213960,note_off,120,0,19,,,,,,,,12,,,,69,64
213960,note_off,120,0,2,,,,,,,,0,,,,69,64
213960,note_on,0,0,2,,,,,,,,0,,,,67,75
213960,note_off,120,0,18,,,,,,,,11,,,,78,64
213960,note_on,0,0,18,,,,,,,,11,,,,76,92
213960,note_on,0,0,3,,,,,,,,2,,,,76,75
213960,note_off,120,0,3,,,,,,,,2,,,,78,64
213960,note_off,120,0,4,,,,,,,,2,,,,69,64
213960,note_on,0,0,4,,,,,,,,2,,,,67,75
213960,note_on,0,0,1,,,,,,,,0,,,,76,75
213960,note_on,0,0,5,,,,,,,,3,,,,67,75
213960,note_off,120,0,5,,,,,,,,3,,,,69,64
213960,note_off,120,0,1,,,,,,,,0,,,,78,64
214075,note_off,115,0,2,,,,,,,,0,,,,67,64
214075,note_off,115,0,1,,,,,,,,0,,,,76,64
214075,note_off,115,0,18,,,,,,,,11,,,,76,64
214075,note_off,115,0,5,,,,,,,,3,,,,67,64
214075,note_off,115,0,19,,,,,,,,12,,,,67,64
214075,note_off,115,0,3,,,,,,,,2,,,,76,64
214075,note_off,115,0,4,,,,,,,,2,,,,67,64
214080,note_on,5,0,5,,,,,,,,3,,,,69,75
214080,note_on,5,0,2,,,,,,,,0,,,,69,75
214080,note_on,5,0,18,,,,,,,,11,,,,75,92
214080,note_on,160,0,22,,,,,,,,15,,,,42,75
214080,note_on,5,0,4,,,,,,,,2,,,,69,75
214080,note_on,5,0,1,,,,,,,,0,,,,75,75
214080,note_on,160,0,7,,,,,,,,4,,,,54,75
214080,note_on,160,0,6,,,,,,,,3,,,,69,75
214080,note_on,5,0,19,,,,,,,,12,,,,69,75
214080,note_on,5,0,3,,,,,,,,2,,,,75,75
214080,note_on,160,0,20,,,,,,,,13,,,,69,75
214080,note_on,160,0,21,,,,,,,,14,,,,54,75
214080,note_on,160,0,8,,,,,,,,4,,,,42,75
214160,note_off,80,0,22,,,,,,,,15,,,,42,64
214160,note_off,80,0,7,,,,,,,,4,,,,54,64
214160,note_off,80,0,8,,,,,,,,4,,,,42,64
214160,note_off,80,0,21,,,,,,,,14,,,,54,64
214160,note_off,80,0,20,,,,,,,,13,,,,69,64
214160,note_off,80,0,6,,,,,,,,3,,,,69,64
214320,note_on,160,0,6,,,,,,,,3,,,,66,75
214320,note_on,160,0,8,,,,,,,,4,,,,45,75
214320,note_on,160,0,22,,,,,,,,15,,,,45,75
214320,note_on,160,0,20,,,,,,,,13,,,,66,75
214320,note_on,160,0,7,,,,,,,,4,,,,57,75
214320,note_on,160,0,21,,,,,,,,14,,,,57,75
214400,note_off,80,0,7,,,,,,,,4,,,,57,64
214400,note_off,80,0,8,,,,,,,,4,,,,45,64
214400,note_off,80,0,20,,,,,,,,13,,,,66,64
214400,note_off,80,0,22,,,,,,,,15,,,,45,64
214400,note_off,80,0,6,,,,,,,,3,,,,66,64
214400,note_off,80,0,21,,,,,,,,14,,,,57,64
214480,note_off,400,0,18,,,,,,,,11,,,,75,64
214480,note_off,400,0,19,,,,,,,,12,,,,69,64
214480,note_off,400,0,4,,,,,,,,2,,,,69,64
214480,note_off,400,0,5,,,,,,,,3,,,,69,64
214480,note_off,400,0,1,,,,,,,,0,,,,75,64
214480,note_off,400,0,3,,,,,,,,2,,,,75,64
214480,note_off,400,0,2,,,,,,,,0,,,,69,64
214560,note_on,80,0,5,,,,,,,,3,,,,66,75
214560,note_on,80,0,1,,,,,,,,0,,,,75,75
214560,note_on,160,0,22,,,,,,,,15,,,,47,75
214560,note_on,160,0,8,,,,,,,,4,,,,47,75
214560,note_on,80,0,2,,,,,,,,0,,,,66,75
214560,note_on,160,0,6,,,,,,,,3,,,,71,75
214560,note_on,80,0,18,,,,,,,,11,,,,75,92
214560,note_on,80,0,3,,,,,,,,2,,,,75,75
214560,note_on,160,0,21,,,,,,,,14,,,,59,75
214560,note_on,160,0,7,,,,,,,,4,,,,59,75
214560,note_on,80,0,4,,,,,,,,2,,,,66,75
214560,note_on,160,0,20,,,,,,,,13,,,,71,75
214560,note_on,80,0,19,,,,,,,,12,,,,66,75
214620,note_off,60,0,18,,,,,,,,11,,,,75,64
214620,note_on,0,0,18,,,,,,,,11,,,,76,92
214640,note_off,80,0,21,,,,,,,,14,,,,59,64
214640,note_off,80,0,7,,,,,,,,4,,,,59,64
214640,note_off,80,0,22,,,,,,,,15,,,,47,64
214640,note_off,80,0,8,,,,,,,,4,,,,47,64
214680,note_off,60,0,18,,,,,,,,11,,,,76,64
214680,note_on,0,0,18,,,,,,,,11,,,,75,92
214740,note_on,0,0,18,,,,,,,,11,,,,76,92
214740,note_off,60,0,18,,,,,,,,11,,,,75,64
214800,note_off,60,0,18,,,,,,,,11,,,,76,64
214800,note_on,160,0,8,,,,,,,,4,,,,42,75
214800,note_on,0,0,18,,,,,,,,11,,,,75,92
214800,note_on,160,0,7,,,,,,,,4,,,,54,75
214800,note_on,160,0,22,,,,,,,,15,,,,42,75
214800,note_on,160,0,21,,,,,,,,14,,,,54,75
214860,note_on,0,0,18,,,,,,,,11,,,,76,92
214860,note_off,60,0,18,,,,,,,,11,,,,75,64
214880,note_off,80,0,21,,,,,,,,14,,,,54,64
214880,note_off,80,0,22,,,,,,,,15,,,,42,64
214880,note_off,80,0,7,,,,,,,,4,,,,54,64
214880,note_off,80,0,8,,,,,,,,4,,,,42,64
214920,note_on,0,0,18,,,,,,,,11,,,,75,92
214920,note_off,60,0,18,,,,,,,,11,,,,76,64
214980,note_on,0,0,18,,,,,,,,11,,,,76,92
214980,note_off,60,0,18,,,,,,,,11,,,,75,64
215040,note_on,160,0,22,,,,,,,,15,,,,45,75
215040,note_on,160,0,21,,,,,,,,14,,,,57,75
215040,note_off,60,0,18,,,,,,,,11,,,,76,64
215040,note_on,0,0,18,,,,,,,,11,,,,75,92
215040,note_on,160,0,7,,,,,,,,4,,,,57,75
215040,note_on,160,0,8,,,,,,,,4,,,,45,75
215100,note_off,60,0,18,,,,,,,,11,,,,75,64
215100,note_on,0,0,18,,,,,,,,11,,,,76,92
215120,note_off,80,0,7,,,,,,,,4,,,,57,64
215120,note_off,80,0,8,,,,,,,,4,,,,45,64
215120,note_off,80,0,22,,,,,,,,15,,,,45,64
215120,note_off,80,0,21,,,,,,,,14,,,,57,64
215160,note_on,0,0,18,,,,,,,,11,,,,73,92
215160,note_off,60,0,18,,,,,,,,11,,,,76,64
215200,note_off,640,0,4,,,,,,,,2,,,,66,64
215200,note_off,640,0,20,,,,,,,,13,,,,71,64
215200,note_off,640,0,6,,,,,,,,3,,,,71,64
215200,note_off,640,0,2,,,,,,,,0,,,,66,64
215200,note_off,640,0,3,,,,,,,,2,,,,75,64
215200,note_off,640,0,5,,,,,,,,3,,,,66,64
215200,note_off,640,0,1,,,,,,,,0,,,,75,64
215200,note_off,640,0,19,,,,,,,,12,,,,66,64
215220,note_off,60,0,18,,,,,,,,11,,,,73,64
215220,note_on,0,0,18,,,,,,,,11,,,,75,92
215280,note_on,80,0,20,,,,,,,,13,,,,71,75
215280,note_on,160,0,8,,,,,,,,4,,,,47,75
215280,note_on,160,0,22,,,,,,,,15,,,,47,75
215280,note_on,80,0,4,,,,,,,,2,,,,66,75
215280,note_on,0,0,18,,,,,,,,11,,,,75,92
215280,note_off,60,0,18,,,,,,,,11,,,,75,64
215280,note_on,80,0,3,,,,,,,,2,,,,75,75
215280,note_on,80,0,19,,,,,,,,12,,,,66,75
215280,note_on,80,0,6,,,,,,,,3,,,,71,75
215280,note_on,80,0,2,,,,,,,,0,,,,66,75
215280,note_on,160,0,7,,,,,,,,4,,,,59,75
215280,note_on,80,0,1,,,,,,,,0,,,,75,75
215280,note_on,160,0,21,,,,,,,,14,,,,59,75
215280,note_on,80,0,5,,,,,,,,3,,,,66,75
215360,note_off,80,0,7,,,,,,,,4,,,,59,64
215360,note_off,80,0,22,,,,,,,,15,,,,47,64
215360,note_off,80,0,8,,,,,,,,4,,,,47,64
215360,note_off,80,0,21,,,,,,,,14,,,,59,64
215515,note_off,235,0,5,,,,,,,,3,,,,66,64
215515,note_off,235,0,1,,,,,,,,0,,,,75,64
215515,note_off,235,0,19,,,,,,,,12,,,,66,64
215515,note_off,235,0,18,,,,,,,,11,,,,75,64
215515,note_off,235,0,3,,,,,,,,2,,,,75,64
215515,note_off,235,0,2,,,,,,,,0,,,,66,64
215515,note_off,235,0,20,,,,,,,,13,,,,71,64
215515,note_off,235,0,4,,,,,,,,2,,,,66,64
215515,note_off,235,0,6,,,,,,,,3,,,,71,64
215520,note_on,5,0,2,,,,,,,,0,,,,71,75
215520,note_on,160,0,8,,,,,,,,4,,,,43,75
215520,note_on,160,0,21,,,,,,,,14,,,,55,75
215520,note_on,5,0,4,,,,,,,,2,,,,71,75
215520,note_on,5,0,6,,,,,,,,3,,,,64,75
215520,note_on,160,0,22,,,,,,,,15,,,,43,75
215520,note_on,160,0,7,,,,,,,,4,,,,55,75
215520,note_on,5,0,19,,,,,,,,12,,,,71,75
215520,note_on,5,0,3,,,,,,,,2,,,,76,75
215520,note_on,5,0,18,,,,,,,,11,,,,76,92
215520,note_on,5,0,5,,,,,,,,3,,,,71,75
215520,note_on,5,0,20,,,,,,,,13,,,,64,75
215520,note_on,5,0,1,,,,,,,,0,,,,76,75
215600,note_off,80,0,7,,,,,,,,4,,,,55,64
215600,note_off,80,0,21,,,,,,,,14,,,,55,64
215600,note_off,80,0,8,,,,,,,,4,,,,43,64
215600,note_off,80,0,22,,,,,,,,15,,,,43,64
215760,note_on,160,0,21,,,,,,,,14,,,,59,75
215760,note_on,160,0,7,,,,,,,,4,,,,59,75
215760,note_on,160,0,8,,,,,,,,4,,,,47,75
215760,note_on,160,0,22,,,,,,,,15,,,,47,75
215840,note_off,80,0,7,,,,,,,,4,,,,59,64
215840,note_off,80,0,8,,,,,,,,4,,,,47,64
215840,note_off,80,0,22,,,,,,,,15,,,,47,64
215840,note_off,80,0,21,,,,,,,,14,,,,59,64
215920,note_off,400,0,5,,,,,,,,3,,,,71,64
215920,note_off,400,0,6,,,,,,,,3,,,,64,64
215920,note_off,400,0,2,,,,,,,,0,,,,71,64
215920,note_off,400,0,19,,,,,,,,12,,,,71,64
215920,note_off,400,0,20,,,,,,,,13,,,,64,64
215920,note_off,400,0,4,,,,,,,,2,,,,71,64
216000,note_on,80,0,19,,,,,,,,12,,,,67,75
216000,note_on,80,0,4,,,,,,,,2,,,,67,75
216000,note_on,80,0,5,,,,,,,,3,,,,67,75
216000,note_on,80,0,20,,,,,,,,13,,,,64,75
216000,note_on,80,0,6,,,,,,,,3,,,,64,75
216000,note_on,160,0,22,,,,,,,,15,,,,40,75
216000,note_on,80,0,2,,,,,,,,0,,,,67,75
216000,note_on,160,0,21,,,,,,,,14,,,,52,75
216000,note_on,160,0,7,,,,,,,,4,,,,52,75
216000,note_on,160,0,8,,,,,,,,4,,,,40,75
216080,note_off,80,0,22,,,,,,,,15,,,,40,64
216080,note_off,80,0,21,,,,,,,,14,,,,52,64
216080,note_off,80,0,7,,,,,,,,4,,,,52,64
216080,note_off,80,0,8,,,,,,,,4,,,,40,64
216160,note_off,640,0,3,,,,,,,,2,,,,76,64
216160,note_off,640,0,18,,,,,,,,11,,,,76,64
216160,note_off,640,0,1,,,,,,,,0,,,,76,64
216240,note_on,80,0,1,,,,,,,,0,,,,71,75
216240,note_on,160,0,21,,,,,,,,14,,,,55,75
216240,note_on,160,0,22,,,,,,,,15,,,,43,75
216240,note_on,80,0,18,,,,,,,,11,,,,71,92
216240,note_on,80,0,3,,,,,,,,2,,,,71,75
216240,note_on,160,0,7,,,,,,,,4,,,,55,75
216240,note_on,160,0,8,,,,,,,,4,,,,43,75
216320,note_off,80,0,1,,,,,,,,0,,,,71,64
216320,note_off,80,0,7,,,,,,,,4,,,,55,64
216320,note_off,80,0,3,,,,,,,,2,,,,71,64
216320,note_off,80,0,22,,,,,,,,15,,,,43,64
216320,note_off,80,0,21,,,,,,,,14,,,,55,64
216320,note_off,80,0,18,,,,,,,,11,,,,71,64
216320,note_off,80,0,8,,,,,,,,4,,,,43,64
216480,note_on,160,0,7,,,,,,,,4,,,,49,75
216480,note_on,160,0,1,,,,,,,,0,,,,76,75
216480,note_on,160,0,8,,,,,,,,4,,,,37,75
216480,note_on,160,0,18,,,,,,,,11,,,,76,92
216480,note_on,160,0,21,,,,,,,,14,,,,49,75
216480,note_on,160,0,22,,,,,,,,15,,,,37,75
216480,note_on,160,0,3,,,,,,,,2,,,,76,75
216560,note_off,80,0,21,,,,,,,,14,,,,49,64
216560,note_off,80,0,8,,,,,,,,4,,,,37,64
216560,note_off,80,0,22,,,,,,,,15,,,,37,64
216560,note_off,80,0,7,,,,,,,,4,,,,49,64
216640,note_off,640,0,5,,,,,,,,3,,,,67,64
216640,note_off,640,0,20,,,,,,,,13,,,,64,64
216640,note_off,640,0,2,,,,,,,,0,,,,67,64
216640,note_off,640,0,6,,,,,,,,3,,,,64,64
216640,note_off,640,0,19,,,,,,,,12,,,,67,64
216640,note_off,640,0,4,,,,,,,,2,,,,67,64
216720,note_on,160,0,7,,,,,,,,4,,,,52,75
216720,note_on,160,0,21,,,,,,,,14,,,,52,75
216720,note_on,80,0,19,,,,,,,,12,,,,67,75
216720,note_on,160,0,22,,,,,,,,15,,,,40,75
216720,note_on,80,0,5,,,,,,,,3,,,,67,75
216720,note_on,80,0,2,,,,,,,,0,,,,67,75
216720,note_on,160,0,8,,,,,,,,4,,,,40,75
216720,note_on,80,0,20,,,,,,,,13,,,,64,75
216720,note_on,80,0,4,,,,,,,,2,,,,67,75
216720,note_on,80,0,6,,,,,,,,3,,,,64,75
216800,note_off,80,0,21,,,,,,,,14,,,,52,64
216800,note_off,80,0,7,,,,,,,,4,,,,52,64
216800,note_off,80,0,8,,,,,,,,4,,,,40,64
216800,note_off,80,0,22,,,,,,,,15,,,,40,64
216835,note_off,355,0,18,,,,,,,,11,,,,76,64
216835,note_off,355,0,1,,,,,,,,0,,,,76,64
216835,note_off,355,0,3,,,,,,,,2,,,,76,64
216840,note_on,5,0,3,,,,,,,,2,,,,76,75
216840,note_on,5,0,1,,,,,,,,0,,,,76,75
216840,note_on,5,0,18,,,,,,,,11,,,,76,92
216955,note_off,235,0,4,,,,,,,,2,,,,67,64
216955,note_off,235,0,19,,,,,,,,12,,,,67,64
216955,note_off,235,0,2,,,,,,,,0,,,,67,64
216955,note_off,115,0,3,,,,,,,,2,,,,76,64
216955,note_off,115,0,18,,,,,,,,11,,,,76,64
216955,note_off,235,0,20,,,,,,,,13,,,,64,64
216955,note_off,235,0,6,,,,,,,,3,,,,64,64
216955,note_off,115,0,1,,,,,,,,0,,,,76,64
216955,note_off,235,0,5,,,,,,,,3,,,,67,64
216960,note_on,160,0,22,,,,,,,,15,,,,34,75
216960,note_on,5,0,5,,,,,,,,3,,,,66,75
216960,note_on,5,0,1,,,,,,,,0,,,,76,75
216960,note_on,5,0,2,,,,,,,,0,,,,66,75
216960,note_on,5,0,6,,,,,,,,3,,,,73,75
216960,note_on,5,0,19,,,,,,,,12,,,,66,75
216960,note_on,5,0,4,,,,,,,,2,,,,66,75
216960,note_on,160,0,8,,,,,,,,4,,,,46,75
216960,note_on,5,0,3,,,,,,,,2,,,,76,75
216960,note_on,5,0,18,,,,,,,,11,,,,76,92
216960,note_on,160,0,21,,,,,,,,14,,,,46,75
216960,note_on,160,0,7,,,,,,,,4,,,,46,75
216960,note_on,5,0,20,,,,,,,,13,,,,73,75
217040,note_off,80,0,8,,,,,,,,4,,,,46,64
217040,note_off,80,0,22,,,,,,,,15,,,,34,64
217040,note_off,80,0,7,,,,,,,,4,,,,46,64
217040,note_off,80,0,21,,,,,,,,14,,,,46,64
217200,note_on,160,0,22,,,,,,,,15,,,,37,75
217200,note_on,160,0,7,,,,,,,,4,,,,49,75
217200,note_on,160,0,21,,,,,,,,14,,,,49,75
217200,note_on,160,0,8,,,,,,,,4,,,,49,75
217280,note_off,80,0,21,,,,,,,,14,,,,49,64
217280,note_off,80,0,8,,,,,,,,4,,,,49,64
217280,note_off,80,0,7,,,,,,,,4,,,,49,64
217280,note_off,80,0,22,,,,,,,,15,,,,37,64
217360,note_off,400,0,20,,,,,,,,13,,,,73,64
217360,note_off,400,0,6,,,,,,,,3,,,,73,64
217440,note_on,160,0,8,,,,,,,,4,,,,54,75
217440,note_on,80,0,20,,,,,,,,13,,,,70,75
217440,note_on,80,0,6,,,,,,,,3,,,,70,75
217440,note_on,160,0,7,,,,,,,,4,,,,54,75
217440,note_on,160,0,21,,,,,,,,14,,,,54,75
217440,note_on,160,0,22,,,,,,,,15,,,,42,75
217520,note_off,80,0,7,,,,,,,,4,,,,54,64
217520,note_off,80,0,8,,,,,,,,4,,,,54,64
217520,note_off,80,0,21,,,,,,,,14,,,,54,64
217520,note_off,80,0,22,,,,,,,,15,,,,42,64
217600,note_off,640,0,1,,,,,,,,0,,,,76,64
217600,note_off,640,0,4,,,,,,,,2,,,,66,64
217600,note_off,640,0,2,,,,,,,,0,,,,66,64
217600,note_off,640,0,5,,,,,,,,3,,,,66,64
217600,note_off,640,0,18,,,,,,,,11,,,,76,64
217600,note_off,640,0,19,,,,,,,,12,,,,66,64
217600,note_off,640,0,3,,,,,,,,2,,,,76,64
217680,note_on,80,0,3,,,,,,,,2,,,,78,75
217680,note_on,160,0,7,,,,,,,,4,,,,42,75
217680,note_on,80,0,5,,,,,,,,3,,,,73,75
217680,note_on,160,0,21,,,,,,,,14,,,,42,75
217680,note_on,160,0,22,,,,,,,,15,,,,30,75
217680,note_on,80,0,1,,,,,,,,0,,,,78,75
217680,note_on,80,0,2,,,,,,,,0,,,,73,75
217680,note_on,80,0,4,,,,,,,,2,,,,73,75
217680,note_on,160,0,8,,,,,,,,4,,,,42,75
217680,note_on,80,0,19,,,,,,,,12,,,,73,75
217680,note_on,80,0,18,,,,,,,,11,,,,78,92
217760,note_off,80,0,5,,,,,,,,3,,,,73,64
217760,note_off,80,0,2,,,,,,,,0,,,,73,64
217760,note_off,80,0,1,,,,,,,,0,,,,78,64
217760,note_off,80,0,4,,,,,,,,2,,,,73,64
217760,note_off,80,0,21,,,,,,,,14,,,,42,64
217760,note_off,80,0,7,,,,,,,,4,,,,42,64
217760,note_off,80,0,22,,,,,,,,15,,,,30,64
217760,note_off,80,0,19,,,,,,,,12,,,,73,64
217760,note_off,80,0,3,,,,,,,,2,,,,78,64
217760,note_off,80,0,8,,,,,,,,4,,,,42,64
217760,note_off,80,0,18,,,,,,,,11,,,,78,64
217840,note_off,400,0,20,,,,,,,,13,,,,70,64
217840,note_off,400,0,6,,,,,,,,3,,,,70,64
217920,note_on,160,0,4,,,,,,,,2,,,,71,75
217920,note_on,160,0,18,,,,,,,,11,,,,74,92
217920,note_on,160,0,5,,,,,,,,3,,,,71,75
217920,note_on,160,0,3,,,,,,,,2,,,,74,75
217920,note_on,160,0,7,,,,,,,,4,,,,47,75
217920,note_on,160,0,8,,,,,,,,4,,,,35,75
217920,note_on,160,0,2,,,,,,,,0,,,,71,75
217920,note_on,80,0,20,,,,,,,,13,,,,66,75
217920,note_on,80,0,6,,,,,,,,3,,,,66,75
217920,note_on,160,0,21,,,,,,,,14,,,,47,75
217920,note_on,160,0,19,,,,,,,,12,,,,71,75
217920,note_on,160,0,22,,,,,,,,15,,,,35,75
217920,note_on,160,0,1,,,,,,,,0,,,,74,75
218000,note_off,80,0,21,,,,,,,,14,,,,47,64
218000,note_off,80,0,18,,,,,,,,11,,,,74,64
218000,note_off,80,0,7,,,,,,,,4,,,,47,64
218000,note_off,80,0,1,,,,,,,,0,,,,74,64
218000,note_off,80,0,22,,,,,,,,15,,,,35,64
218000,note_off,80,0,5,,,,,,,,3,,,,71,64
218000,note_off,80,0,2,,,,,,,,0,,,,71,64
218000,note_off,80,0,19,,,,,,,,12,,,,71,64
218000,note_off,80,0,3,,,,,,,,2,,,,74,64
218000,note_off,80,0,8,,,,,,,,4,,,,35,64
218000,note_off,80,0,4,,,,,,,,2,,,,71,64
218160,note_on,160,0,1,,,,,,,,0,,,,73,75
218160,note_on,160,0,19,,,,,,,,12,,,,70,75
218160,note_on,160,0,7,,,,,,,,4,,,,54,75
218160,note_on,160,0,3,,,,,,,,2,,,,73,75
218160,note_on,160,0,8,,,,,,,,4,,,,42,75
218160,note_on,160,0,4,,,,,,,,2,,,,70,75
218160,note_on,160,0,18,,,,,,,,11,,,,73,92
218160,note_on,160,0,5,,,,,,,,3,,,,70,75
218160,note_on,160,0,21,,,,,,,,14,,,,54,75
218160,note_on,160,0,2,,,,,,,,0,,,,70,75
218160,note_on,160,0,22,,,,,,,,15,,,,42,75
218240,note_off,80,0,21,,,,,,,,14,,,,54,64
218240,note_off,80,0,19,,,,,,,,12,,,,70,64
218240,note_off,80,0,4,,,,,,,,2,,,,70,64
218240,note_off,80,0,8,,,,,,,,4,,,,42,64
218240,note_off,80,0,3,,,,,,,,2,,,,73,64
218240,note_off,80,0,2,,,,,,,,0,,,,70,64
218240,note_off,80,0,18,,,,,,,,11,,,,73,64
218240,note_off,80,0,5,,,,,,,,3,,,,70,64
218240,note_off,80,0,7,,,,,,,,4,,,,54,64
218240,note_off,80,0,1,,,,,,,,0,,,,73,64
218240,note_off,80,0,22,,,,,,,,15,,,,42,64
218320,note_off,400,0,6,,,,,,,,3,,,,66,64
218320,note_off,400,0,20,,,,,,,,13,,,,66,64
218400,note_on,160,0,3,,,,,,,,2,,,,74,75
218400,note_on,160,0,19,,,,,,,,12,,,,71,75
218400,note_on,160,0,21,,,,,,,,14,,,,59,75
218400,note_on,80,0,6,,,,,,,,3,,,,66,75
218400,note_on,160,0,4,,,,,,,,2,,,,71,75
218400,note_on,160,0,8,,,,,,,,4,,,,47,75
218400,note_on,160,0,22,,,,,,,,15,,,,47,75
218400,note_on,160,0,1,,,,,,,,0,,,,74,75
218400,note_on,160,0,2,,,,,,,,0,,,,71,75
218400,note_on,80,0,20,,,,,,,,13,,,,66,75
218400,note_on,160,0,18,,,,,,,,11,,,,74,92
218400,note_on,160,0,5,,,,,,,,3,,,,71,75
218400,note_on,160,0,7,,,,,,,,4,,,,59,75
218480,note_off,80,0,22,,,,,,,,15,,,,47,64
218640,note_off,240,0,21,,,,,,,,14,,,,59,64
218640,note_off,240,0,18,,,,,,,,11,,,,74,64
218640,note_on,0,0,18,,,,,,,,11,,,,76,92
218640,note_off,240,0,8,,,,,,,,4,,,,47,64
218640,note_off,240,0,6,,,,,,,,3,,,,66,64
218640,note_on,160,0,22,,,,,,,,15,,,,40,75
218640,note_on,0,0,6,,,,,,,,3,,,,67,75
218640,note_on,0,0,8,,,,,,,,4,,,,40,75
218640,note_on,0,0,21,,,,,,,,14,,,,52,75
218640,note_off,240,0,3,,,,,,,,2,,,,74,64
218640,note_off,240,0,1,,,,,,,,0,,,,74,64
218640,note_off,240,0,7,,,,,,,,4,,,,59,64
218640,note_on,0,0,20,,,,,,,,13,,,,67,75
218640,note_off,240,0,20,,,,,,,,13,,,,66,64
218640,note_on,0,0,7,,,,,,,,4,,,,52,75
218640,note_on,0,0,1,,,,,,,,0,,,,76,75
218640,note_on,0,0,3,,,,,,,,2,,,,76,75
218720,note_off,80,0,22,,,,,,,,15,,,,40,64
218800,note_off,400,0,19,,,,,,,,12,,,,71,64
218800,note_off,400,0,5,,,,,,,,3,,,,71,64
218800,note_off,400,0,4,,,,,,,,2,,,,71,64
218800,note_off,400,0,2,,,,,,,,0,,,,71,64
218875,note_off,235,0,6,,,,,,,,3,,,,67,64
218875,note_off,235,0,20,,,,,,,,13,,,,67,64
218875,note_off,235,0,21,,,,,,,,14,,,,52,64
218875,note_off,235,0,18,,,,,,,,11,,,,76,64
218875,note_off,235,0,7,,,,,,,,4,,,,52,64
218875,note_off,235,0,3,,,,,,,,2,,,,76,64
218875,note_off,235,0,8,,,,,,,,4,,,,40,64
218875,note_off,235,0,1,,,,,,,,0,,,,76,64
218880,note_on,5,0,7,,,,,,,,4,,,,54,75
218880,note_on,160,0,22,,,,,,,,15,,,,42,75
218880,note_on,5,0,3,,,,,,,,2,,,,73,75
218880,note_on,5,0,6,,,,,,,,3,,,,66,75
218880,note_on,5,0,18,,,,,,,,11,,,,73,92
218880,note_on,5,0,1,,,,,,,,0,,,,73,75
218880,note_on,80,0,19,,,,,,,,12,,,,71,75
218880,note_on,80,0,4,,,,,,,,2,,,,71,75
218880,note_on,80,0,5,,,,,,,,3,,,,71,75
218880,note_on,5,0,21,,,,,,,,14,,,,54,75
218880,note_on,80,0,2,,,,,,,,0,,,,71,75
218880,note_on,5,0,8,,,,,,,,4,,,,42,75
218880,note_on,5,0,20,,,,,,,,13,,,,66,75
218940,note_off,60,0,18,,,,,,,,11,,,,73,64
218940,note_on,0,0,18,,,,,,,,11,,,,74,92
219000,note_on,0,0,18,,,,,,,,11,,,,73,92
219000,note_off,60,0,18,,,,,,,,11,,,,74,64
219060,note_on,0,0,18,,,,,,,,11,,,,74,92
219060,note_off,60,0,18,,,,,,,,11,,,,73,64
219120,note_on,0,0,18,,,,,,,,11,,,,73,92
219120,note_off,60,0,18,,,,,,,,11,,,,74,64
219180,note_on,0,0,18,,,,,,,,11,,,,74,92
219180,note_off,60,0,18,,,,,,,,11,,,,73,64
219240,note_off,60,0,18,,,,,,,,11,,,,74,64
219240,note_on,0,0,18,,,,,,,,11,,,,73,92
219280,note_off,400,0,7,,,,,,,,4,,,,54,64
219280,note_off,400,0,21,,,,,,,,14,,,,54,64
219280,note_off,400,0,8,,,,,,,,4,,,,42,64
219280,note_off,400,0,22,,,,,,,,15,,,,42,64
219300,note_off,60,0,18,,,,,,,,11,,,,73,64
219300,note_on,0,0,18,,,,,,,,11,,,,74,92
219360,note_on,0,0,6,,,,,,,,3,,,,64,75
219360,note_on,80,0,7,,,,,,,,4,,,,42,75
219360,note_on,80,0,8,,,,,,,,4,,,,42,75
219360,note_on,0,0,4,,,,,,,,2,,,,70,75
219360,note_off,480,0,4,,,,,,,,2,,,,71,64
219360,note_off,480,0,20,,,,,,,,13,,,,66,64
219360,note_on,0,0,20,,,,,,,,13,,,,64,75
219360,note_off,60,0,18,,,,,,,,11,,,,74,64
219360,note_off,480,0,2,,,,,,,,0,,,,71,64
219360,note_on,0,0,2,,,,,,,,0,,,,70,75
219360,note_off,480,0,6,,,,,,,,3,,,,66,64
219360,note_on,80,0,21,,,,,,,,14,,,,42,75
219360,note_on,0,0,18,,,,,,,,11,,,,73,92
219360,note_on,0,0,19,,,,,,,,12,,,,70,75
219360,note_off,480,0,19,,,,,,,,12,,,,71,64
219360,note_on,0,0,5,,,,,,,,3,,,,70,75
219360,note_on,80,0,22,,,,,,,,15,,,,30,75
219360,note_off,480,0,5,,,,,,,,3,,,,71,64
219600,note_off,720,0,1,,,,,,,,0,,,,73,64
219600,note_on,0,0,18,,,,,,,,11,,,,71,92
219600,note_on,0,0,3,,,,,,,,2,,,,71,75
219600,note_on,0,0,1,,,,,,,,0,,,,71,75
219600,note_off,720,0,3,,,,,,,,2,,,,73,64
219600,note_off,240,0,18,,,,,,,,11,,,,73,64
219760,note_off,400,0,4,,,,,,,,2,,,,70,64
219760,note_off,400,0,2,,,,,,,,0,,,,70,64
219760,note_off,400,0,8,,,,,,,,4,,,,42,64
219760,note_off,400,0,5,,,,,,,,3,,,,70,64
219760,note_off,400,0,20,,,,,,,,13,,,,64,64
219760,note_off,400,0,7,,,,,,,,4,,,,42,64
219760,note_off,400,0,21,,,,,,,,14,,,,42,64
219760,note_off,400,0,6,,,,,,,,3,,,,64,64
219760,note_off,400,0,19,,,,,,,,12,,,,70,64
219760,note_off,400,0,22,,,,,,,,15,,,,30,64
219835,note_off,235,0,3,,,,,,,,2,,,,71,64
219835,note_off,235,0,1,,,,,,,,0,,,,71,64
219835,note_off,235,0,18,,,,,,,,11,,,,71,64
219840,note_on,80,0,21,,,,,,,,14,,,,47,75
219840,note_on,5,0,3,,,,,,,,2,,,,71,75
219840,note_on,5,0,18,,,,,,,,11,,,,71,92
219840,note_on,80,0,22,,,,,,,,15,,,,35,75
219840,note_on,5,0,1,,,,,,,,0,,,,71,75
219840,note_on,80,0,2,,,,,,,,0,,,,66,75
219840,note_on,80,0,5,,,,,,,,3,,,,66,75
219840,note_on,80,0,20,,,,,,,,13,,,,62,75
219840,note_on,80,0,4,,,,,,,,2,,,,66,75
219840,note_on,80,0,8,,,,,,,,4,,,,35,75
219840,note_on,80,0,7,,,,,,,,4,,,,47,75
219840,note_on,80,0,6,,,,,,,,3,,,,62,75
219840,note_on,80,0,19,,,,,,,,12,,,,66,75
220080,note_on,16640,0,10,,,,,,,,5,,,,62,92
220080,note_on,22400,0,12,,,,,,,,6,,,,74,92
220080,note_on,22400,0,11,,,,,,,,6,,,,78,92
220080,note_on,16640,0,9,,,,,,,,5,,,,71,92
220080,note_on,16640,0,14,,,,,,,,7,,,,54,92
220080,note_on,16640,0,13,,,,,,,,7,,,,62,92
220160,note_off,80,0,13,,,,,,,,7,,,,62,64
220160,note_off,80,0,9,,,,,,,,5,,,,71,64
220160,note_off,80,0,11,,,,,,,,6,,,,78,64
220160,note_off,80,0,14,,,,,,,,7,,,,54,64
220160,note_off,80,0,12,,,,,,,,6,,,,74,64
220160,note_off,80,0,10,,,,,,,,5,,,,62,64
220200,note_on,40,0,11,,,,,,,,6,,,,78,92
220200,note_on,40,0,13,,,,,,,,7,,,,62,92
220200,note_on,40,0,9,,,,,,,,5,,,,71,92
220200,note_on,40,0,12,,,,,,,,6,,,,74,92
220200,note_on,40,0,14,,,,,,,,7,,,,54,92
220200,note_on,40,0,10,,,,,,,,5,,,,62,92
220280,note_off,80,0,14,,,,,,,,7,,,,54,64
220280,note_off,80,0,11,,,,,,,,6,,,,78,64
220280,note_off,80,0,9,,,,,,,,5,,,,71,64
220280,note_off,80,0,13,,,,,,,,7,,,,62,64
220280,note_off,80,0,12,,,,,,,,6,,,,74,64
220280,note_off,80,0,10,,,,,,,,5,,,,62,64
220320,note_on,40,0,10,,,,,,,,5,,,,62,92
220320,note_on,40,0,9,,,,,,,,5,,,,71,92
220320,note_on,40,0,13,,,,,,,,7,,,,62,92
220320,note_on,40,0,14,,,,,,,,7,,,,54,92
220320,note_on,40,0,12,,,,,,,,6,,,,74,92
220320,note_on,40,0,11,,,,,,,,6,,,,78,92
220400,note_off,80,0,9,,,,,,,,5,,,,71,64
220400,note_off,80,0,13,,,,,,,,7,,,,62,64
220400,note_off,80,0,14,,,,,,,,7,,,,54,64
220400,note_off,80,0,10,,,,,,,,5,,,,62,64
220400,note_off,80,0,12,,,,,,,,6,,,,74,64
220400,note_off,80,0,11,,,,,,,,6,,,,78,64
220560,note_on,160,0,13,,,,,,,,7,,,,62,92
220560,note_on,160,0,9,,,,,,,,5,,,,71,92
220560,note_on,160,0,10,,,,,,,,5,,,,62,92
220560,note_on,160,0,11,,,,,,,,6,,,,78,92
220560,note_on,160,0,14,,,,,,,,7,,,,54,92
220560,note_on,160,0,12,,,,,,,,6,,,,74,92
220640,note_off,80,0,12,,,,,,,,6,,,,74,64
220640,note_off,80,0,10,,,,,,,,5,,,,62,64
220640,note_off,80,0,13,,,,,,,,7,,,,62,64
220640,note_off,80,0,14,,,,,,,,7,,,,54,64
220640,note_off,80,0,9,,,,,,,,5,,,,71,64
220640,note_off,80,0,11,,,,,,,,6,,,,78,64
220680,note_off,840,0,22,,,,,,,,15,,,,35,64
220680,note_off,840,0,5,,,,,,,,3,,,,66,64
220680,note_off,840,0,3,,,,,,,,2,,,,71,64
220680,note_off,840,0,4,,,,,,,,2,,,,66,64
220680,note_off,840,0,21,,,,,,,,14,,,,47,64
220680,note_off,840,0,6,,,,,,,,3,,,,62,64
220680,note_off,840,0,2,,,,,,,,0,,,,66,64
220680,note_off,840,0,19,,,,,,,,12,,,,66,64
220680,note_off,840,0,1,,,,,,,,0,,,,71,64
220680,note_off,840,0,8,,,,,,,,4,,,,35,64
220680,note_off,840,0,18,,,,,,,,11,,,,71,64
220680,note_off,840,0,20,,,,,,,,13,,,,62,64
220680,note_off,840,0,7,,,,,,,,4,,,,47,64
220800,note_on,160,0,11,,,,,,,,6,,,,78,92
220800,note_on,160,0,13,,,,,,,,7,,,,62,92
220800,note_on,160,0,10,,,,,,,,5,,,,62,92
220800,note_on,160,0,12,,,,,,,,6,,,,74,92
220800,note_on,160,0,9,,,,,,,,5,,,,71,92
220800,note_on,160,0,14,,,,,,,,7,,,,54,92
220880,note_off,80,0,13,,,,,,,,7,,,,62,64
220880,note_off,80,0,12,,,,,,,,6,,,,74,64
220880,note_off,80,0,11,,,,,,,,6,,,,78,64
220880,note_off,80,0,10,,,,,,,,5,,,,62,64
220880,note_off,80,0,9,,,,,,,,5,,,,71,64
220880,note_off,80,0,14,,,,,,,,7,,,,54,64
221040,note_on,160,0,9,,,,,,,,5,,,,71,92
221040,note_on,160,0,13,,,,,,,,7,,,,62,92
221040,note_on,160,0,11,,,,,,,,6,,,,78,92
221040,note_on,160,0,12,,,,,,,,6,,,,74,92
221040,note_on,160,0,10,,,,,,,,5,,,,62,92
221040,note_on,160,0,14,,,,,,,,7,,,,54,92
221120,note_off,80,0,13,,,,,,,,7,,,,62,64
221120,note_off,80,0,10,,,,,,,,5,,,,62,64
221120,note_off,80,0,14,,,,,,,,7,,,,54,64
221120,note_off,80,0,9,,,,,,,,5,,,,71,64
221120,note_off,80,0,11,,,,,,,,6,,,,78,64
221120,note_off,80,0,12,,,,,,,,6,,,,74,64
221280,note_on,160,0,12,,,,,,,,6,,,,78,92
221280,note_on,160,0,13,,,,,,,,7,,,,66,92
221280,note_on,160,0,14,,,,,,,,7,,,,50,92
221280,note_on,160,0,9,,,,,,,,5,,,,71,92
221280,note_on,160,0,11,,,,,,,,6,,,,83,92
221280,note_on,160,0,10,,,,,,,,5,,,,62,92
221360,note_off,80,0,13,,,,,,,,7,,,,66,64
221360,note_off,80,0,12,,,,,,,,6,,,,78,64
221360,note_off,80,0,9,,,,,,,,5,,,,71,64
221360,note_off,80,0,14,,,,,,,,7,,,,50,64
221360,note_off,80,0,11,,,,,,,,6,,,,83,64
221360,note_off,80,0,10,,,,,,,,5,,,,62,64
221520,note_on,160,0,12,,,,,,,,6,,,,74,92
221520,note_on,160,0,9,,,,,,,,5,,,,66,92
221520,note_on,160,0,14,,,,,,,,7,,,,54,92
221520,note_on,160,0,13,,,,,,,,7,,,,62,92
221520,note_on,160,0,11,,,,,,,,6,,,,78,92
221520,note_on,160,0,10,,,,,,,,5,,,,62,92
221600,note_off,80,0,10,,,,,,,,5,,,,62,64
221600,note_off,80,0,11,,,,,,,,6,,,,78,64
221600,note_off,80,0,13,,,,,,,,7,,,,62,64
221600,note_off,80,0,9,,,,,,,,5,,,,66,64
221600,note_off,80,0,12,,,,,,,,6,,,,74,64
221600,note_off,80,0,14,,,,,,,,7,,,,54,64
221640,note_on,40,0,10,,,,,,,,5,,,,62,92
221640,note_on,40,0,9,,,,,,,,5,,,,66,92
221640,note_on,40,0,14,,,,,,,,7,,,,54,92
221640,note_on,40,0,13,,,,,,,,7,,,,62,92
221720,note_off,80,0,9,,,,,,,,5,,,,66,64
221720,note_off,80,0,14,,,,,,,,7,,,,54,64
221720,note_off,80,0,13,,,,,,,,7,,,,62,64
221720,note_off,80,0,10,,,,,,,,5,,,,62,64
221760,note_on,160,0,12,,,,,,,,6,,,,74,92
221760,note_on,40,0,14,,,,,,,,7,,,,54,92
221760,note_on,40,0,9,,,,,,,,5,,,,66,92
221760,note_on,40,0,13,,,,,,,,7,,,,62,92
221760,note_on,160,0,11,,,,,,,,6,,,,78,92
221760,note_on,40,0,10,,,,,,,,5,,,,62,92
221840,note_off,80,0,9,,,,,,,,5,,,,66,64
221840,note_off,80,0,13,,,,,,,,7,,,,62,64
221840,note_off,80,0,14,,,,,,,,7,,,,54,64
221840,note_off,80,0,10,,,,,,,,5,,,,62,64
222000,note_on,160,0,10,,,,,,,,5,,,,62,92
222000,note_on,160,0,9,,,,,,,,5,,,,66,92
222000,note_on,160,0,14,,,,,,,,7,,,,54,92
222000,note_on,160,0,13,,,,,,,,7,,,,62,92
222080,note_off,80,0,9,,,,,,,,5,,,,66,64
222080,note_off,80,0,14,,,,,,,,7,,,,54,64
222080,note_off,80,0,10,,,,,,,,5,,,,62,64
222080,note_off,80,0,13,,,,,,,,7,,,,62,64
222160,note_off,400,0,11,,,,,,,,6,,,,78,64
222160,note_off,400,0,12,,,,,,,,6,,,,74,64
222240,note_on,160,0,10,,,,,,,,5,,,,62,92
222240,note_on,160,0,13,,,,,,,,7,,,,62,92
222240,note_on,160,0,9,,,,,,,,5,,,,66,92
222240,note_on,160,0,14,,,,,,,,7,,,,54,92
222320,note_off,80,0,10,,,,,,,,5,,,,62,64
222320,note_off,80,0,9,,,,,,,,5,,,,66,64
222320,note_off,80,0,13,,,,,,,,7,,,,62,64
222320,note_off,80,0,14,,,,,,,,7,,,,54,64
222480,note_on,160,0,13,,,,,,,,7,,,,62,92
222480,note_on,160,0,14,,,,,,,,7,,,,54,92
222480,note_on,160,0,9,,,,,,,,5,,,,66,92
222480,note_on,160,0,10,,,,,,,,5,,,,62,92
222560,note_off,80,0,14,,,,,,,,7,,,,54,64
222560,note_off,80,0,9,,,,,,,,5,,,,66,64
222560,note_off,80,0,13,,,,,,,,7,,,,62,64
222560,note_off,80,0,10,,,,,,,,5,,,,62,64
222720,note_on,160,0,10,,,,,,,,5,,,,66,92
222720,note_on,160,0,14,,,,,,,,7,,,,57,92
222720,note_on,160,0,13,,,,,,,,7,,,,66,92
222720,note_on,160,0,9,,,,,,,,5,,,,71,92
222800,note_off,80,0,13,,,,,,,,7,,,,66,64
222800,note_off,80,0,10,,,,,,,,5,,,,66,64
222800,note_off,80,0,14,,,,,,,,7,,,,57,64
222800,note_off,80,0,9,,,,,,,,5,,,,71,64
222960,note_on,160,0,13,,,,,,,,7,,,,62,92
222960,note_on,160,0,10,,,,,,,,5,,,,62,92
222960,note_on,160,0,14,,,,,,,,7,,,,54,92
222960,note_on,160,0,9,,,,,,,,5,,,,66,92
223040,note_off,80,0,13,,,,,,,,7,,,,62,64
223040,note_off,80,0,9,,,,,,,,5,,,,66,64
223040,note_off,80,0,14,,,,,,,,7,,,,54,64
223040,note_off,80,0,10,,,,,,,,5,,,,62,64
223200,note_on,2520,0,3,,,,,,,,2,,,,74,45
223200,note_on,2520,0,8,,,,,,,,4,,,,54,45
223200,note_on,160,0,14,,,,,,,,7,,,,54,92
223200,note_on,2520,0,4,,,,,,,,2,,,,66,45
223200,note_on,2520,0,18,,,,,,,,11,,,,74,60
223200,note_on,2520,0,5,,,,,,,,3,,,,71,45
223200,note_on,160,0,9,,,,,,,,5,,,,66,92
223200,note_on,2520,0,7,,,,,,,,4,,,,59,45
223200,note_on,2520,0,20,,,,,,,,13,,,,71,45
223200,note_on,2520,0,22,,,,,,,,15,,,,47,45
223200,note_on,2520,0,21,,,,,,,,14,,,,59,45
223200,note_on,2520,0,6,,,,,,,,3,,,,66,45
223200,note_on,160,0,10,,,,,,,,5,,,,62,92
223200,note_on,2520,0,1,,,,,,,,0,,,,74,45
223200,note_on,2520,0,19,,,,,,,,12,,,,66,45
223200,note_on,2520,0,2,,,,,,,,0,,,,66,45
223200,note_on,160,0,13,,,,,,,,7,,,,62,92
223560,note_off,360,0,18,,,,,,,,11,,,,74,64
223560,note_on,0,0,18,,,,,,,,11,,,,76,60
223560,note_off,360,0,1,,,,,,,,0,,,,74,64
223560,note_on,0,0,1,,,,,,,,0,,,,76,45
223560,note_on,0,0,5,,,,,,,,3,,,,73,45
223560,note_off,360,0,5,,,,,,,,3,,,,71,64
223560,note_on,0,0,20,,,,,,,,13,,,,73,45
223560,note_off,360,0,20,,,,,,,,13,,,,71,64
223560,note_off,360,0,3,,,,,,,,2,,,,74,64
223560,note_on,0,0,3,,,,,,,,2,,,,76,45
223600,note_off,400,0,14,,,,,,,,7,,,,54,64
223600,note_off,400,0,8,,,,,,,,4,,,,54,64
223600,note_off,400,0,2,,,,,,,,0,,,,66,64
223600,note_off,400,0,4,,,,,,,,2,,,,66,64
223600,note_off,400,0,21,,,,,,,,14,,,,59,64
223600,note_off,400,0,19,,,,,,,,12,,,,66,64
223600,note_off,400,0,6,,,,,,,,3,,,,66,64
223600,note_off,400,0,10,,,,,,,,5,,,,62,64
223600,note_off,400,0,22,,,,,,,,15,,,,47,64
223600,note_off,400,0,7,,,,,,,,4,,,,59,64
223600,note_off,400,0,13,,,,,,,,7,,,,62,64
223600,note_off,400,0,9,,,,,,,,5,,,,66,64
223675,note_off,115,0,20,,,,,,,,13,,,,73,64
223675,note_off,115,0,18,,,,,,,,11,,,,76,64
223675,note_off,115,0,1,,,,,,,,0,,,,76,64
223675,note_off,115,0,3,,,,,,,,2,,,,76,64
223675,note_off,115,0,5,,,,,,,,3,,,,73,64
223680,note_on,5,0,5,,,,,,,,3,,,,71,45
223680,note_on,80,0,6,,,,,,,,3,,,,66,45
223680,note_on,80,0,19,,,,,,,,12,,,,66,45
223680,note_on,80,0,22,,,,,,,,15,,,,45,45
223680,note_on,5,0,20,,,,,,,,13,,,,71,45
223680,note_on,80,0,4,,,,,,,,2,,,,66,45
223680,note_on,80,0,2,,,,,,,,0,,,,66,45
223680,note_on,80,0,7,,,,,,,,4,,,,57,45
223680,note_on,5,0,1,,,,,,,,0,,,,74,45
223680,note_on,80,0,8,,,,,,,,4,,,,54,45
223680,note_on,5,0,18,,,,,,,,11,,,,74,60
223680,note_on,5,0,3,,,,,,,,2,,,,74,45
223680,note_on,80,0,21,,,,,,,,14,,,,57,45
224040,note_off,360,0,18,,,,,,,,11,,,,74,64
224040,note_on,0,0,20,,,,,,,,13,,,,69,45
224040,note_off,360,0,20,,,,,,,,13,,,,71,64
224040,note_on,0,0,18,,,,,,,,11,,,,73,60
224040,note_on,0,0,1,,,,,,,,0,,,,73,45
224040,note_on,0,0,3,,,,,,,,2,,,,73,45
224040,note_off,360,0,1,,,,,,,,0,,,,74,64
224040,note_off,360,0,5,,,,,,,,3,,,,71,64
224040,note_on,0,0,5,,,,,,,,3,,,,69,45
224040,note_off,360,0,3,,,,,,,,2,,,,74,64
224080,note_off,400,0,6,,,,,,,,3,,,,66,64
224080,note_off,400,0,19,,,,,,,,12,,,,66,64
224080,note_off,400,0,2,,,,,,,,0,,,,66,64
224080,note_off,400,0,22,,,,,,,,15,,,,45,64
224080,note_off,400,0,4,,,,,,,,2,,,,66,64
224080,note_off,400,0,21,,,,,,,,14,,,,57,64
224080,note_off,400,0,8,,,,,,,,4,,,,54,64
224080,note_off,400,0,7,,,,,,,,4,,,,57,64
224155,note_off,115,0,20,,,,,,,,13,,,,69,64
224155,note_off,115,0,1,,,,,,,,0,,,,73,64
224155,note_off,115,0,5,,,,,,,,3,,,,69,64
224155,note_off,115,0,3,,,,,,,,2,,,,73,64
224155,note_off,115,0,18,,,,,,,,11,,,,73,64
224160,note_on,5,0,3,,,,,,,,2,,,,74,45
224160,note_on,80,0,2,,,,,,,,0,,,,68,45
224160,note_on,5,0,5,,,,,,,,3,,,,71,45
224160,note_on,80,0,21,,,,,,,,14,,,,56,45
224160,note_on,5,0,20,,,,,,,,13,,,,71,45
224160,note_on,80,0,22,,,,,,,,15,,,,44,45
224160,note_on,80,0,19,,,,,,,,12,,,,68,45
224160,note_on,80,0,8,,,,,,,,4,,,,52,45
224160,note_on,80,0,7,,,,,,,,4,,,,56,45
224160,note_on,80,0,6,,,,,,,,3,,,,68,45
224160,note_on,5,0,1,,,,,,,,0,,,,74,45
224160,note_on,5,0,18,,,,,,,,11,,,,74,60
224160,note_on,80,0,4,,,,,,,,2,,,,68,45
224520,note_off,360,0,1,,,,,,,,0,,,,74,64
224520,note_on,0,0,1,,,,,,,,0,,,,76,45
224520,note_off,360,0,20,,,,,,,,13,,,,71,64
224520,note_on,0,0,3,,,,,,,,2,,,,76,45
224520,note_on,0,0,18,,,,,,,,11,,,,76,60
224520,note_on,0,0,5,,,,,,,,3,,,,73,45
224520,note_on,0,0,20,,,,,,,,13,,,,73,45
224520,note_off,360,0,18,,,,,,,,11,,,,74,64
224520,note_off,360,0,3,,,,,,,,2,,,,74,64
224520,note_off,360,0,5,,,,,,,,3,,,,71,64
224560,note_off,400,0,2,,,,,,,,0,,,,68,64
224560,note_off,400,0,22,,,,,,,,15,,,,44,64
224560,note_off,400,0,21,,,,,,,,14,,,,56,64
224560,note_off,400,0,19,,,,,,,,12,,,,68,64
224560,note_off,400,0,6,,,,,,,,3,,,,68,64
224560,note_off,400,0,4,,,,,,,,2,,,,68,64
224560,note_off,400,0,8,,,,,,,,4,,,,52,64
224560,note_off,400,0,7,,,,,,,,4,,,,56,64
224635,note_off,115,0,5,,,,,,,,3,,,,73,64
224635,note_off,115,0,1,,,,,,,,0,,,,76,64
224635,note_off,115,0,3,,,,,,,,2,,,,76,64
224635,note_off,115,0,20,,,,,,,,13,,,,73,64
224635,note_off,115,0,18,,,,,,,,11,,,,76,64
224640,note_on,80,0,8,,,,,,,,4,,,,56,45
224640,note_on,5,0,1,,,,,,,,0,,,,74,45
224640,note_on,5,0,20,,,,,,,,13,,,,71,45
224640,note_on,80,0,6,,,,,,,,3,,,,68,45
224640,note_on,80,0,19,,,,,,,,12,,,,68,45
224640,note_on,80,0,2,,,,,,,,0,,,,68,45
224640,note_on,5,0,18,,,,,,,,11,,,,74,60
224640,note_on,80,0,22,,,,,,,,15,,,,40,45
224640,note_on,5,0,3,,,,,,,,2,,,,74,45
224640,note_on,80,0,7,,,,,,,,4,,,,52,45
224640,note_on,80,0,21,,,,,,,,14,,,,52,45
224640,note_on,80,0,4,,,,,,,,2,,,,68,45
224640,note_on,5,0,5,,,,,,,,3,,,,71,45
225000,note_on,0,0,5,,,,,,,,3,,,,73,45
225000,note_off,360,0,1,,,,,,,,0,,,,74,64
225000,note_on,0,0,1,,,,,,,,0,,,,76,45
225000,note_off,360,0,20,,,,,,,,13,,,,71,64
225000,note_on,0,0,20,,,,,,,,13,,,,73,45
225000,note_on,0,0,18,,,,,,,,11,,,,76,60
225000,note_on,0,0,3,,,,,,,,2,,,,76,45
225000,note_off,360,0,3,,,,,,,,2,,,,74,64
225000,note_off,360,0,18,,,,,,,,11,,,,74,64
225000,note_off,360,0,5,,,,,,,,3,,,,71,64
225040,note_off,400,0,7,,,,,,,,4,,,,52,64
225040,note_off,400,0,19,,,,,,,,12,,,,68,64
225040,note_off,400,0,8,,,,,,,,4,,,,56,64
225040,note_off,400,0,6,,,,,,,,3,,,,68,64
225040,note_off,400,0,21,,,,,,,,14,,,,52,64
225040,note_off,400,0,4,,,,,,,,2,,,,68,64
225040,note_off,400,0,22,,,,,,,,15,,,,40,64
225040,note_off,400,0,2,,,,,,,,0,,,,68,64
225115,note_off,115,0,1,,,,,,,,0,,,,76,64
225115,note_off,115,0,5,,,,,,,,3,,,,73,64
225115,note_off,115,0,18,,,,,,,,11,,,,76,64
225115,note_off,115,0,20,,,,,,,,13,,,,73,64
225115,note_off,115,0,3,,,,,,,,2,,,,76,64
225120,note_on,80,0,21,,,,,,,,14,,,,56,45
225120,note_on,80,0,4,,,,,,,,2,,,,64,45
225120,note_on,5,0,20,,,,,,,,13,,,,71,45
225120,note_on,5,0,18,,,,,,,,11,,,,74,60
225120,note_on,80,0,7,,,,,,,,4,,,,56,45
225120,note_on,80,0,6,,,,,,,,3,,,,64,45
225120,note_on,80,0,19,,,,,,,,12,,,,64,45
225120,note_on,5,0,3,,,,,,,,2,,,,74,45
225120,note_on,80,0,2,,,,,,,,0,,,,64,45
225120,note_on,80,0,22,,,,,,,,15,,,,44,45
225120,note_on,5,0,1,,,,,,,,0,,,,74,45
225120,note_on,80,0,8,,,,,,,,4,,,,52,45
225120,note_on,5,0,5,,,,,,,,3,,,,71,45
225480,note_on,0,0,3,,,,,,,,2,,,,76,45
225480,note_off,360,0,20,,,,,,,,13,,,,71,64
225480,note_on,0,0,20,,,,,,,,13,,,,73,45
225480,note_on,0,0,18,,,,,,,,11,,,,76,60
225480,note_off,360,0,5,,,,,,,,3,,,,71,64
225480,note_off,360,0,1,,,,,,,,0,,,,74,64
225480,note_off,360,0,3,,,,,,,,2,,,,74,64
225480,note_on,0,0,5,,,,,,,,3,,,,73,45
225480,note_off,360,0,18,,,,,,,,11,,,,74,64
225480,note_on,0,0,1,,,,,,,,0,,,,76,45
225520,note_off,400,0,21,,,,,,,,14,,,,56,64
225520,note_off,400,0,7,,,,,,,,4,,,,56,64
225520,note_off,400,0,4,,,,,,,,2,,,,64,64
225520,note_off,400,0,6,,,,,,,,3,,,,64,64
225520,note_off,400,0,22,,,,,,,,15,,,,44,64
225520,note_off,400,0,2,,,,,,,,0,,,,64,64
225520,note_off,400,0,19,,,,,,,,12,,,,64,64
225520,note_off,400,0,8,,,,,,,,4,,,,52,64
225595,note_off,115,0,20,,,,,,,,13,,,,73,64
225595,note_off,115,0,18,,,,,,,,11,,,,76,64
225595,note_off,115,0,3,,,,,,,,2,,,,76,64
225595,note_off,115,0,5,,,,,,,,3,,,,73,64
225595,note_off,115,0,1,,,,,,,,0,,,,76,64
225600,note_on,80,0,2,,,,,,,,0,,,,64,45
225600,note_on,5,0,18,,,,,,,,11,,,,73,60
225600,note_on,80,0,8,,,,,,,,4,,,,52,45
225600,note_on,80,0,4,,,,,,,,2,,,,64,45
225600,note_on,80,0,21,,,,,,,,14,,,,57,45
225600,note_on,80,0,19,,,,,,,,12,,,,64,45
225600,note_on,80,0,22,,,,,,,,15,,,,45,45
225600,note_on,5,0,1,,,,,,,,0,,,,73,45
225600,note_on,5,0,5,,,,,,,,3,,,,69,45
225600,note_on,5,0,20,,,,,,,,13,,,,69,45
225600,note_on,80,0,6,,,,,,,,3,,,,64,45
225600,note_on,80,0,7,,,,,,,,4,,,,57,45
225600,note_on,5,0,3,,,,,,,,2,,,,73,45
225840,note_on,2240,0,9,,,,,,,,5,,,,73,92
225840,note_on,2240,0,13,,,,,,,,7,,,,57,92
225840,note_on,3680,0,11,,,,,,,,6,,,,76,92
225840,note_on,3680,0,12,,,,,,,,6,,,,69,92
225840,note_on,2240,0,10,,,,,,,,5,,,,69,92
225840,note_on,2240,0,14,,,,,,,,7,,,,57,92
225920,note_off,80,0,14,,,,,,,,7,,,,57,64
225920,note_off,80,0,9,,,,,,,,5,,,,73,64
225920,note_off,80,0,13,,,,,,,,7,,,,57,64
225920,note_off,80,0,12,,,,,,,,6,,,,69,64
225920,note_off,80,0,10,,,,,,,,5,,,,69,64
225920,note_off,80,0,11,,,,,,,,6,,,,76,64
225960,note_on,40,0,10,,,,,,,,5,,,,69,92
225960,note_on,40,0,12,,,,,,,,6,,,,69,92
225960,note_on,40,0,11,,,,,,,,6,,,,76,92
225960,note_on,40,0,14,,,,,,,,7,,,,57,92
225960,note_on,40,0,13,,,,,,,,7,,,,57,92
225960,note_on,40,0,9,,,,,,,,5,,,,73,92
226000,note_off,400,0,4,,,,,,,,2,,,,64,64
226000,note_off,400,0,1,,,,,,,,0,,,,73,64
226000,note_off,400,0,22,,,,,,,,15,,,,45,64
226000,note_off,400,0,19,,,,,,,,12,,,,64,64
226000,note_off,400,0,5,,,,,,,,3,,,,69,64
226000,note_off,400,0,3,,,,,,,,2,,,,73,64
226000,note_off,400,0,7,,,,,,,,4,,,,57,64
226000,note_off,400,0,21,,,,,,,,14,,,,57,64
226000,note_off,400,0,6,,,,,,,,3,,,,64,64
226000,note_off,400,0,18,,,,,,,,11,,,,73,64
226000,note_off,400,0,2,,,,,,,,0,,,,64,64
226000,note_off,400,0,8,,,,,,,,4,,,,52,64
226000,note_off,400,0,20,,,,,,,,13,,,,69,64
226040,note_off,80,0,12,,,,,,,,6,,,,69,64
226040,note_off,80,0,10,,,,,,,,5,,,,69,64
226040,note_off,80,0,14,,,,,,,,7,,,,57,64
226040,note_off,80,0,9,,,,,,,,5,,,,73,64
226040,note_off,80,0,13,,,,,,,,7,,,,57,64
226040,note_off,80,0,11,,,,,,,,6,,,,76,64
226080,note_on,40,0,12,,,,,,,,6,,,,69,92
226080,note_on,40,0,11,,,,,,,,6,,,,76,92
226080,note_on,40,0,9,,,,,,,,5,,,,73,92
226080,note_on,40,0,10,,,,,,,,5,,,,69,92
226080,note_on,40,0,14,,,,,,,,7,,,,57,92
226080,note_on,40,0,13,,,,,,,,7,,,,57,92
226160,note_off,80,0,14,,,,,,,,7,,,,57,64
226160,note_off,80,0,13,,,,,,,,7,,,,57,64
226160,note_off,80,0,9,,,,,,,,5,,,,73,64
226160,note_off,80,0,12,,,,,,,,6,,,,69,64
226160,note_off,80,0,10,,,,,,,,5,,,,69,64
226160,note_off,80,0,11,,,,,,,,6,,,,76,64
226320,note_on,160,0,13,,,,,,,,7,,,,57,92
226320,note_on,160,0,12,,,,,,,,6,,,,69,92
226320,note_on,160,0,9,,,,,,,,5,,,,73,92
226320,note_on,160,0,10,,,,,,,,5,,,,69,92
226320,note_on,160,0,11,,,,,,,,6,,,,76,92
226320,note_on,160,0,14,,,,,,,,7,,,,57,92
226400,note_off,80,0,9,,,,,,,,5,,,,73,64
226400,note_off,80,0,13,,,,,,,,7,,,,57,64
226400,note_off,80,0,14,,,,,,,,7,,,,57,64
226400,note_off,80,0,10,,,,,,,,5,,,,69,64
226400,note_off,80,0,12,,,,,,,,6,,,,69,64
226400,note_off,80,0,11,,,,,,,,6,,,,76,64
226560,note_on,160,0,13,,,,,,,,7,,,,57,92
226560,note_on,160,0,11,,,,,,,,6,,,,76,92
226560,note_on,160,0,14,,,,,,,,7,,,,57,92
226560,note_on,160,0,9,,,,,,,,5,,,,73,92
226560,note_on,160,0,10,,,,,,,,5,,,,69,92
226560,note_on,160,0,12,,,,,,,,6,,,,69,92
226640,note_off,80,0,10,,,,,,,,5,,,,69,64
226640,note_off,80,0,12,,,,,,,,6,,,,69,64
226640,note_off,80,0,13,,,,,,,,7,,,,57,64
226640,note_off,80,0,14,,,,,,,,7,,,,57,64
226640,note_off,80,0,9,,,,,,,,5,,,,73,64
226640,note_off,80,0,11,,,,,,,,6,,,,76,64
226800,note_on,160,0,9,,,,,,,,5,,,,73,92
226800,note_on,160,0,12,,,,,,,,6,,,,69,92
226800,note_on,160,0,13,,,,,,,,7,,,,57,92
226800,note_on,160,0,10,,,,,,,,5,,,,69,92
226800,note_on,160,0,14,,,,,,,,7,,,,57,92
226800,note_on,160,0,11,,,,,,,,6,,,,76,92
226880,note_off,80,0,12,,,,,,,,6,,,,69,64
226880,note_off,80,0,14,,,,,,,,7,,,,57,64
226880,note_off,80,0,10,,,,,,,,5,,,,69,64
226880,note_off,80,0,9,,,,,,,,5,,,,73,64
226880,note_off,80,0,11,,,,,,,,6,,,,76,64
226880,note_off,80,0,13,,,,,,,,7,,,,57,64
227040,note_on,160,0,13,,,,,,,,7,,,,64,92
227040,note_on,160,0,14,,,,,,,,7,,,,57,92
227040,note_on,160,0,11,,,,,,,,6,,,,81,92
227040,note_on,160,0,10,,,,,,,,5,,,,69,92
227040,note_on,160,0,12,,,,,,,,6,,,,76,92
227040,note_on,160,0,9,,,,,,,,5,,,,73,92
227120,note_off,80,0,11,,,,,,,,6,,,,81,64
227120,note_off,80,0,13,,,,,,,,7,,,,64,64
227120,note_off,80,0,10,,,,,,,,5,,,,69,64
227120,note_off,80,0,9,,,,,,,,5,,,,73,64
227120,note_off,80,0,14,,,,,,,,7,,,,57,64
227120,note_off,80,0,12,,,,,,,,6,,,,76,64
227280,note_on,160,0,13,,,,,,,,7,,,,57,92
227280,note_on,160,0,9,,,,,,,,5,,,,73,92
227280,note_on,160,0,11,,,,,,,,6,,,,76,92
227280,note_on,160,0,14,,,,,,,,7,,,,54,92
227280,note_on,160,0,12,,,,,,,,6,,,,69,92
227280,note_on,160,0,10,,,,,,,,5,,,,69,92
227360,note_off,80,0,13,,,,,,,,7,,,,57,64
227360,note_off,80,0,12,,,,,,,,6,,,,69,64
227360,note_off,80,0,10,,,,,,,,5,,,,69,64
227360,note_off,80,0,14,,,,,,,,7,,,,54,64
227360,note_off,80,0,11,,,,,,,,6,,,,76,64
227360,note_off,80,0,9,,,,,,,,5,,,,73,64
227400,note_on,40,0,14,,,,,,,,7,,,,54,92
227400,note_on,40,0,13,,,,,,,,7,,,,57,92
227400,note_on,40,0,9,,,,,,,,5,,,,73,92
227400,note_on,40,0,10,,,,,,,,5,,,,69,92
227480,note_off,80,0,14,,,,,,,,7,,,,54,64
227480,note_off,80,0,10,,,,,,,,5,,,,69,64
227480,note_off,80,0,9,,,,,,,,5,,,,73,64
227480,note_off,80,0,13,,,,,,,,7,,,,57,64
227520,note_on,160,0,11,,,,,,,,6,,,,76,92
227520,note_on,160,0,12,,,,,,,,6,,,,69,92
227520,note_on,40,0,13,,,,,,,,7,,,,57,92
227520,note_on,40,0,14,,,,,,,,7,,,,54,92
227520,note_on,40,0,9,,,,,,,,5,,,,73,92
227520,note_on,40,0,10,,,,,,,,5,,,,69,92
227600,note_off,80,0,10,,,,,,,,5,,,,69,64
227600,note_off,80,0,14,,,,,,,,7,,,,54,64
227600,note_off,80,0,13,,,,,,,,7,,,,57,64
227600,note_off,80,0,9,,,,,,,,5,,,,73,64
227760,note_on,160,0,14,,,,,,,,7,,,,54,92
227760,note_on,160,0,9,,,,,,,,5,,,,73,92
227760,note_on,160,0,13,,,,,,,,7,,,,57,92
227760,note_on,160,0,10,,,,,,,,5,,,,69,92
227840,note_off,80,0,10,,,,,,,,5,,,,69,64
227840,note_off,80,0,13,,,,,,,,7,,,,57,64
227840,note_off,80,0,9,,,,,,,,5,,,,73,64
227840,note_off,80,0,14,,,,,,,,7,,,,54,64
227920,note_off,400,0,12,,,,,,,,6,,,,69,64
227920,note_off,400,0,11,,,,,,,,6,,,,76,64
228000,note_on,160,0,9,,,,,,,,5,,,,69,92
228000,note_on,160,0,14,,,,,,,,7,,,,54,92
228000,note_on,160,0,13,,,,,,,,7,,,,57,92
228000,note_on,160,0,10,,,,,,,,5,,,,66,92
228080,note_off,80,0,14,,,,,,,,7,,,,54,64
228080,note_off,80,0,9,,,,,,,,5,,,,69,64
228080,note_off,80,0,10,,,,,,,,5,,,,66,64
228080,note_off,80,0,13,,,,,,,,7,,,,57,64
228240,note_on,160,0,13,,,,,,,,7,,,,57,92
228240,note_on,160,0,14,,,,,,,,7,,,,54,92
228240,note_on,160,0,9,,,,,,,,5,,,,69,92
228240,note_on,160,0,10,,,,,,,,5,,,,66,92
228320,note_off,80,0,10,,,,,,,,5,,,,66,64
228320,note_off,80,0,14,,,,,,,,7,,,,54,64
228320,note_off,80,0,9,,,,,,,,5,,,,69,64
228320,note_off,80,0,13,,,,,,,,7,,,,57,64
228480,note_on,160,0,10,,,,,,,,5,,,,66,92
228480,note_on,160,0,14,,,,,,,,7,,,,54,92
228480,note_on,160,0,13,,,,,,,,7,,,,57,92
228480,note_on,160,0,9,,,,,,,,5,,,,69,92
228560,note_off,80,0,14,,,,,,,,7,,,,54,64
228560,note_off,80,0,13,,,,,,,,7,,,,57,64
228560,note_off,80,0,9,,,,,,,,5,,,,69,64
228560,note_off,80,0,10,,,,,,,,5,,,,66,64
228720,note_on,160,0,9,,,,,,,,5,,,,64,92
228720,note_on,160,0,14,,,,,,,,7,,,,49,92
228720,note_on,160,0,10,,,,,,,,5,,,,61,92
228720,note_on,160,0,13,,,,,,,,7,,,,52,92
228800,note_off,80,0,9,,,,,,,,5,,,,64,64
228800,note_off,80,0,13,,,,,,,,7,,,,52,64
228800,note_off,80,0,14,,,,,,,,7,,,,49,64
228800,note_off,80,0,10,,,,,,,,5,,,,61,64
228960,note_on,2960,0,6,,,,,,,,3,,,,69,45
228960,note_on,160,0,9,,,,,,,,5,,,,64,92
228960,note_on,2960,0,21,,,,,,,,14,,,,45,45
228960,note_on,2960,0,1,,,,,,,,0,,,,76,45
228960,note_on,2960,0,8,,,,,,,,4,,,,45,45
228960,note_on,2960,0,18,,,,,,,,11,,,,76,60
228960,note_on,2960,0,19,,,,,,,,12,,,,69,45
228960,note_on,2960,0,5,,,,,,,,3,,,,73,45
228960,note_on,2960,0,2,,,,,,,,0,,,,69,45
228960,note_on,2960,0,7,,,,,,,,4,,,,45,45
228960,note_on,2960,0,20,,,,,,,,13,,,,73,45
228960,note_on,2960,0,22,,,,,,,,15,,,,33,45
228960,note_on,2960,0,4,,,,,,,,2,,,,69,45
228960,note_on,160,0,14,,,,,,,,7,,,,49,92
228960,note_on,160,0,13,,,,,,,,7,,,,52,92
228960,note_on,2960,0,3,,,,,,,,2,,,,76,45
228960,note_on,160,0,10,,,,,,,,5,,,,61,92
229320,note_on,0,0,3,,,,,,,,2,,,,78,45
229320,note_on,0,0,5,,,,,,,,3,,,,74,45
229320,note_off,360,0,8,,,,,,,,4,,,,45,64
229320,note_off,360,0,18,,,,,,,,11,,,,76,64
229320,note_on,0,0,18,,,,,,,,11,,,,78,60
229320,note_off,360,0,5,,,,,,,,3,,,,73,64
229320,note_on,0,0,7,,,,,,,,4,,,,50,45
229320,note_on,0,0,20,,,,,,,,13,,,,74,45
229320,note_off,360,0,7,,,,,,,,4,,,,45,64
229320,note_off,360,0,21,,,,,,,,14,,,,45,64
229320,note_on,0,0,21,,,,,,,,14,,,,50,45
229320,note_on,0,0,1,,,,,,,,0,,,,78,45
229320,note_off,360,0,22,,,,,,,,15,,,,33,64
229320,note_off,360,0,1,,,,,,,,0,,,,76,64
229320,note_on,0,0,22,,,,,,,,15,,,,38,45
229320,note_off,360,0,3,,,,,,,,2,,,,76,64
229320,note_on,0,0,8,,,,,,,,4,,,,50,45
229320,note_off,360,0,20,,,,,,,,13,,,,73,64
229360,note_off,400,0,10,,,,,,,,5,,,,61,64
229360,note_off,400,0,14,,,,,,,,7,,,,49,64
229360,note_off,400,0,13,,,,,,,,7,,,,52,64
229360,note_off,400,0,9,,,,,,,,5,,,,64,64
229360,note_off,400,0,2,,,,,,,,0,,,,69,64
229360,note_off,400,0,4,,,,,,,,2,,,,69,64
229360,note_off,400,0,19,,,,,,,,12,,,,69,64
229360,note_off,400,0,6,,,,,,,,3,,,,69,64
229435,note_off,115,0,7,,,,,,,,4,,,,50,64
229435,note_off,115,0,22,,,,,,,,15,,,,38,64
229435,note_off,115,0,18,,,,,,,,11,,,,78,64
229435,note_off,115,0,21,,,,,,,,14,,,,50,64
229435,note_off,115,0,1,,,,,,,,0,,,,78,64
229435,note_off,115,0,20,,,,,,,,13,,,,74,64
229435,note_off,115,0,8,,,,,,,,4,,,,50,64
229435,note_off,115,0,3,,,,,,,,2,,,,78,64
229435,note_off,115,0,5,,,,,,,,3,,,,74,64
229440,note_on,5,0,8,,,,,,,,4,,,,45,45
229440,note_on,5,0,22,,,,,,,,15,,,,33,45
229440,note_on,80,0,19,,,,,,,,12,,,,69,45
229440,note_on,5,0,3,,,,,,,,2,,,,76,45
229440,note_on,5,0,18,,,,,,,,11,,,,76,60
229440,note_on,80,0,2,,,,,,,,0,,,,69,45
229440,note_on,80,0,4,,,,,,,,2,,,,69,45
229440,note_on,5,0,21,,,,,,,,14,,,,45,45
229440,note_on,80,0,6,,,,,,,,3,,,,69,45
229440,note_on,5,0,1,,,,,,,,0,,,,76,45
229440,note_on,5,0,20,,,,,,,,13,,,,73,45
229440,note_on,5,0,7,,,,,,,,4,,,,45,45
229440,note_on,5,0,5,,,,,,,,3,,,,73,45
229800,note_off,360,0,1,,,,,,,,0,,,,76,64
229800,note_off,360,0,5,,,,,,,,3,,,,73,64
229800,note_on,0,0,1,,,,,,,,0,,,,78,45
229800,note_on,0,0,3,,,,,,,,2,,,,78,45
229800,note_off,360,0,22,,,,,,,,15,,,,33,64
229800,note_on,0,0,22,,,,,,,,15,,,,38,45
229800,note_on,0,0,5,,,,,,,,3,,,,74,45
229800,note_off,360,0,3,,,,,,,,2,,,,76,64
229800,note_on,0,0,21,,,,,,,,14,,,,50,45
229800,note_on,0,0,20,,,,,,,,13,,,,74,45
229800,note_off,360,0,20,,,,,,,,13,,,,73,64
229800,note_on,0,0,8,,,,,,,,4,,,,50,45
229800,note_off,360,0,21,,,,,,,,14,,,,45,64
229800,note_off,360,0,7,,,,,,,,4,,,,45,64
229800,note_on,0,0,7,,,,,,,,4,,,,50,45
229800,note_off,360,0,18,,,,,,,,11,,,,76,64
229800,note_off,360,0,8,,,,,,,,4,,,,45,64
229800,note_on,0,0,18,,,,,,,,11,,,,78,60
229840,note_off,400,0,6,,,,,,,,3,,,,69,64
229840,note_off,400,0,19,,,,,,,,12,,,,69,64
229840,note_off,400,0,2,,,,,,,,0,,,,69,64
229840,note_off,400,0,4,,,,,,,,2,,,,69,64
229915,note_off,115,0,20,,,,,,,,13,,,,74,64
229915,note_off,115,0,1,,,,,,,,0,,,,78,64
229915,note_off,115,0,7,,,,,,,,4,,,,50,64
229915,note_off,115,0,21,,,,,,,,14,,,,50,64
229915,note_off,115,0,8,,,,,,,,4,,,,50,64
229915,note_off,115,0,3,,,,,,,,2,,,,78,64
229915,note_off,115,0,5,,,,,,,,3,,,,74,64
229915,note_off,115,0,18,,,,,,,,11,,,,78,64
229915,note_off,115,0,22,,,,,,,,15,,,,38,64
229920,note_on,80,0,6,,,,,,,,3,,,,69,45
229920,note_on,5,0,1,,,,,,,,0,,,,79,45
229920,note_on,80,0,2,,,,,,,,0,,,,69,45
229920,note_on,5,0,8,,,,,,,,4,,,,45,45
229920,note_on,5,0,18,,,,,,,,11,,,,79,60
229920,note_on,80,0,19,,,,,,,,12,,,,69,45
229920,note_on,5,0,5,,,,,,,,3,,,,76,45
229920,note_on,5,0,7,,,,,,,,4,,,,49,45
229920,note_on,5,0,22,,,,,,,,15,,,,37,45
229920,note_on,80,0,4,,,,,,,,2,,,,69,45
229920,note_on,5,0,20,,,,,,,,13,,,,76,45
229920,note_on,5,0,21,,,,,,,,14,,,,49,45
229920,note_on,5,0,3,,,,,,,,2,,,,79,45
230280,note_on,0,0,20,,,,,,,,13,,,,78,45
230280,note_off,360,0,20,,,,,,,,13,,,,76,64
230280,note_on,0,0,1,,,,,,,,0,,,,81,45
230280,note_on,0,0,18,,,,,,,,11,,,,81,60
230280,note_off,360,0,5,,,,,,,,3,,,,76,64
230280,note_off,360,0,1,,,,,,,,0,,,,79,64
230280,note_off,360,0,3,,,,,,,,2,,,,79,64
230280,note_on,0,0,3,,,,,,,,2,,,,81,45
230280,note_on,0,0,5,,,,,,,,3,,,,78,45
230280,note_off,360,0,18,,,,,,,,11,,,,79,64
230320,note_off,400,0,21,,,,,,,,14,,,,49,64
230320,note_off,400,0,8,,,,,,,,4,,,,45,64
230320,note_off,400,0,22,,,,,,,,15,,,,37,64
230320,note_off,400,0,4,,,,,,,,2,,,,69,64
230320,note_off,400,0,6,,,,,,,,3,,,,69,64
230320,note_off,400,0,2,,,,,,,,0,,,,69,64
230320,note_off,400,0,19,,,,,,,,12,,,,69,64
230320,note_off,400,0,7,,,,,,,,4,,,,49,64
230395,note_off,115,0,1,,,,,,,,0,,,,81,64
230395,note_off,115,0,18,,,,,,,,11,,,,81,64
230395,note_off,115,0,3,,,,,,,,2,,,,81,64
230395,note_off,115,0,5,,,,,,,,3,,,,78,64
230395,note_off,115,0,20,,,,,,,,13,,,,78,64
230400,note_on,80,0,22,,,,,,,,15,,,,33,45
230400,note_on,80,0,4,,,,,,,,2,,,,73,45
230400,note_on,5,0,20,,,,,,,,13,,,,76,45
230400,note_on,5,0,1,,,,,,,,0,,,,79,45
230400,note_on,5,0,5,,,,,,,,3,,,,76,45
230400,note_on,80,0,19,,,,,,,,12,,,,73,45
230400,note_on,5,0,3,,,,,,,,2,,,,79,45
230400,note_on,80,0,6,,,,,,,,3,,,,73,45
230400,note_on,80,0,21,,,,,,,,14,,,,45,45
230400,note_on,5,0,18,,,,,,,,11,,,,79,60
230400,note_on,80,0,7,,,,,,,,4,,,,45,45
230400,note_on,80,0,8,,,,,,,,4,,,,49,45
230400,note_on,80,0,2,,,,,,,,0,,,,73,45
230760,note_off,360,0,20,,,,,,,,13,,,,76,64
230760,note_off,360,0,1,,,,,,,,0,,,,79,64
230760,note_on,0,0,1,,,,,,,,0,,,,81,45
230760,note_on,0,0,18,,,,,,,,11,,,,81,60
230760,note_on,0,0,5,,,,,,,,3,,,,78,45
230760,note_off,360,0,18,,,,,,,,11,,,,79,64
230760,note_on,0,0,3,,,,,,,,2,,,,81,45
230760,note_on,0,0,20,,,,,,,,13,,,,78,45
230760,note_off,360,0,3,,,,,,,,2,,,,79,64
230760,note_off,360,0,5,,,,,,,,3,,,,76,64
230800,note_off,400,0,7,,,,,,,,4,,,,45,64
230800,note_off,400,0,22,,,,,,,,15,,,,33,64
230800,note_off,400,0,19,,,,,,,,12,,,,73,64
230800,note_off,400,0,4,,,,,,,,2,,,,73,64
230800,note_off,400,0,6,,,,,,,,3,,,,73,64
230800,note_off,400,0,2,,,,,,,,0,,,,73,64
230800,note_off,400,0,8,,,,,,,,4,,,,49,64
230800,note_off,400,0,21,,,,,,,,14,,,,45,64
230875,note_off,115,0,20,,,,,,,,13,,,,78,64
230875,note_off,115,0,1,,,,,,,,0,,,,81,64
230875,note_off,115,0,3,,,,,,,,2,,,,81,64
230875,note_off,115,0,5,,,,,,,,3,,,,78,64
230875,note_off,115,0,18,,,,,,,,11,,,,81,64
230880,note_on,5,0,3,,,,,,,,2,,,,79,45
230880,note_on,80,0,21,,,,,,,,14,,,,49,45
230880,note_on,80,0,2,,,,,,,,0,,,,69,45
230880,note_on,80,0,8,,,,,,,,4,,,,45,45
230880,note_on,5,0,20,,,,,,,,13,,,,76,45
230880,note_on,80,0,4,,,,,,,,2,,,,69,45
230880,note_on,80,0,7,,,,,,,,4,,,,49,45
230880,note_on,80,0,22,,,,,,,,15,,,,37,45
230880,note_on,80,0,19,,,,,,,,12,,,,69,45
230880,note_on,5,0,1,,,,,,,,0,,,,79,45
230880,note_on,80,0,6,,,,,,,,3,,,,69,45
230880,note_on,5,0,5,,,,,,,,3,,,,76,45
230880,note_on,5,0,18,,,,,,,,11,,,,79,60
231240,note_off,360,0,20,,,,,,,,13,,,,76,64
231240,note_on,0,0,1,,,,,,,,0,,,,81,45
231240,note_off,360,0,5,,,,,,,,3,,,,76,64
231240,note_on,0,0,20,,,,,,,,13,,,,78,45
231240,note_off,360,0,18,,,,,,,,11,,,,79,64
231240,note_on,0,0,18,,,,,,,,11,,,,81,60
231240,note_on,0,0,5,,,,,,,,3,,,,78,45
231240,note_off,360,0,1,,,,,,,,0,,,,79,64
231240,note_off,360,0,3,,,,,,,,2,,,,79,64
231240,note_on,0,0,3,,,,,,,,2,,,,81,45
231280,note_off,400,0,4,,,,,,,,2,,,,69,64
231280,note_off,400,0,6,,,,,,,,3,,,,69,64
231280,note_off,400,0,8,,,,,,,,4,,,,45,64
231280,note_off,400,0,2,,,,,,,,0,,,,69,64
231280,note_off,400,0,21,,,,,,,,14,,,,49,64
231280,note_off,400,0,22,,,,,,,,15,,,,37,64
231280,note_off,400,0,7,,,,,,,,4,,,,49,64
231280,note_off,400,0,19,,,,,,,,12,,,,69,64
231355,note_off,115,0,18,,,,,,,,11,,,,81,64
231355,note_off,115,0,5,,,,,,,,3,,,,78,64
231355,note_off,115,0,3,,,,,,,,2,,,,81,64
231355,note_off,115,0,1,,,,,,,,0,,,,81,64
231355,note_off,115,0,20,,,,,,,,13,,,,78,64
231360,note_on,5,0,3,,,,,,,,2,,,,78,45
231360,note_on,80,0,7,,,,,,,,4,,,,50,45
231360,note_on,80,0,4,,,,,,,,2,,,,69,45
231360,note_on,5,0,20,,,,,,,,13,,,,74,45
231360,note_on,80,0,22,,,,,,,,15,,,,38,45
231360,note_on,80,0,19,,,,,,,,12,,,,69,45
231360,note_on,5,0,1,,,,,,,,0,,,,78,45
231360,note_on,80,0,6,,,,,,,,3,,,,69,45
231360,note_on,80,0,2,,,,,,,,0,,,,69,45
231360,note_on,80,0,21,,,,,,,,14,,,,50,45
231360,note_on,5,0,5,,,,,,,,3,,,,74,45
231360,note_on,5,0,18,,,,,,,,11,,,,78,60
231360,note_on,80,0,8,,,,,,,,4,,,,38,45
231600,note_on,39680,0,16,,,,,,,,8,,,,38,92
231600,note_on,39680,0,17,,,,,,,,10,,,,50,92
231600,note_on,2240,0,13,,,,,,,,7,,,,66,92
231600,note_on,2240,0,14,,,,,,,,7,,,,62,92
231600,note_on,3680,0,11,,,,,,,,6,,,,81,92
231600,note_on,3680,0,12,,,,,,,,6,,,,78,92
231600,note_on,39680,0,15,,,,,,,,7,,,,50,92
231680,note_off,80,0,13,,,,,,,,7,,,,66,64
231680,note_off,80,0,16,,,,,,,,8,,,,38,64
231680,note_off,80,0,15,,,,,,,,7,,,,50,64
231680,note_off,80,0,14,,,,,,,,7,,,,62,64
231680,note_off,80,0,11,,,,,,,,6,,,,81,64
231680,note_off,80,0,12,,,,,,,,6,,,,78,64
231680,note_off,80,0,17,,,,,,,,10,,,,50,64
231720,note_on,40,0,14,,,,,,,,7,,,,62,92
231720,note_on,40,0,15,,,,,,,,7,,,,50,92
231720,note_on,40,0,12,,,,,,,,6,,,,78,92
231720,note_on,40,0,16,,,,,,,,8,,,,38,92
231720,note_on,40,0,17,,,,,,,,10,,,,50,92
231720,note_on,40,0,11,,,,,,,,6,,,,81,92
231720,note_on,40,0,13,,,,,,,,7,,,,66,92
231760,note_off,400,0,5,,,,,,,,3,,,,74,64
231760,note_off,400,0,22,,,,,,,,15,,,,38,64
231760,note_off,400,0,19,,,,,,,,12,,,,69,64
231760,note_off,400,0,6,,,,,,,,3,,,,69,64
231760,note_off,400,0,8,,,,,,,,4,,,,38,64
231760,note_off,400,0,2,,,,,,,,0,,,,69,64
231760,note_off,400,0,20,,,,,,,,13,,,,74,64
231760,note_off,400,0,3,,,,,,,,2,,,,78,64
231760,note_off,400,0,4,,,,,,,,2,,,,69,64
231760,note_off,400,0,18,,,,,,,,11,,,,78,64
231760,note_off,400,0,7,,,,,,,,4,,,,50,64
231760,note_off,400,0,1,,,,,,,,0,,,,78,64
231760,note_off,400,0,21,,,,,,,,14,,,,50,64
231800,note_off,80,0,11,,,,,,,,6,,,,81,64
231800,note_off,80,0,17,,,,,,,,10,,,,50,64
231800,note_off,80,0,14,,,,,,,,7,,,,62,64
231800,note_off,80,0,16,,,,,,,,8,,,,38,64
231800,note_off,80,0,12,,,,,,,,6,,,,78,64
231800,note_off,80,0,15,,,,,,,,7,,,,50,64
231800,note_off,80,0,13,,,,,,,,7,,,,66,64
231840,note_on,40,0,14,,,,,,,,7,,,,62,92
231840,note_on,40,0,15,,,,,,,,7,,,,50,92
231840,note_on,40,0,16,,,,,,,,8,,,,38,92
231840,note_on,40,0,11,,,,,,,,6,,,,81,92
231840,note_on,40,0,13,,,,,,,,7,,,,66,92
231840,note_on,40,0,17,,,,,,,,10,,,,50,92
231840,note_on,40,0,12,,,,,,,,6,,,,78,92
231920,note_off,80,0,16,,,,,,,,8,,,,38,64
231920,note_off,80,0,14,,,,,,,,7,,,,62,64
231920,note_off,80,0,11,,,,,,,,6,,,,81,64
231920,note_off,80,0,17,,,,,,,,10,,,,50,64
231920,note_off,80,0,12,,,,,,,,6,,,,78,64
231920,note_off,80,0,13,,,,,,,,7,,,,66,64
231920,note_off,80,0,15,,,,,,,,7,,,,50,64
232080,note_on,160,0,15,,,,,,,,7,,,,50,92
232080,note_on,160,0,16,,,,,,,,8,,,,38,92
232080,note_on,160,0,13,,,,,,,,7,,,,66,92
232080,note_on,160,0,17,,,,,,,,10,,,,50,92
232080,note_on,160,0,11,,,,,,,,6,,,,81,92
232080,note_on,160,0,12,,,,,,,,6,,,,78,92
232080,note_on,160,0,14,,,,,,,,7,,,,62,92
232160,note_off,80,0,17,,,,,,,,10,,,,50,64
232160,note_off,80,0,13,,,,,,,,7,,,,66,64
232160,note_off,80,0,15,,,,,,,,7,,,,50,64
232160,note_off,80,0,16,,,,,,,,8,,,,38,64
232160,note_off,80,0,14,,,,,,,,7,,,,62,64
232160,note_off,80,0,11,,,,,,,,6,,,,81,64
232160,note_off,80,0,12,,,,,,,,6,,,,78,64
232320,note_on,160,0,16,,,,,,,,8,,,,38,92
232320,note_on,160,0,14,,,,,,,,7,,,,62,92
232320,note_on,160,0,15,,,,,,,,7,,,,50,92
232320,note_on,160,0,17,,,,,,,,10,,,,50,92
232320,note_on,160,0,12,,,,,,,,6,,,,78,92
232320,note_on,160,0,13,,,,,,,,7,,,,66,92
232320,note_on,160,0,11,,,,,,,,6,,,,81,92
232400,note_off,80,0,15,,,,,,,,7,,,,50,64
232400,note_off,80,0,13,,,,,,,,7,,,,66,64
232400,note_off,80,0,17,,,,,,,,10,,,,50,64
232400,note_off,80,0,16,,,,,,,,8,,,,38,64
232400,note_off,80,0,14,,,,,,,,7,,,,62,64
232400,note_off,80,0,11,,,,,,,,6,,,,81,64
232400,note_off,80,0,12,,,,,,,,6,,,,78,64
232560,note_on,160,0,13,,,,,,,,7,,,,66,92
232560,note_on,160,0,17,,,,,,,,10,,,,50,92
232560,note_on,160,0,16,,,,,,,,8,,,,38,92
232560,note_on,160,0,14,,,,,,,,7,,,,62,92
232560,note_on,160,0,11,,,,,,,,6,,,,81,92
232560,note_on,160,0,15,,,,,,,,7,,,,50,92
232560,note_on,160,0,12,,,,,,,,6,,,,78,92
232640,note_off,80,0,17,,,,,,,,10,,,,50,64
232640,note_off,80,0,14,,,,,,,,7,,,,62,64
232640,note_off,80,0,16,,,,,,,,8,,,,38,64
232640,note_off,80,0,15,,,,,,,,7,,,,50,64
232640,note_off,80,0,11,,,,,,,,6,,,,81,64
232640,note_off,80,0,12,,,,,,,,6,,,,78,64
232640,note_off,80,0,13,,,,,,,,7,,,,66,64
232800,note_on,160,0,13,,,,,,,,7,,,,57,92
232800,note_on,160,0,11,,,,,,,,6,,,,74,92
232800,note_on,160,0,15,,,,,,,,7,,,,50,92
232800,note_on,160,0,12,,,,,,,,6,,,,69,92
232800,note_on,160,0,17,,,,,,,,10,,,,50,92
232800,note_on,160,0,16,,,,,,,,8,,,,38,92
232800,note_on,160,0,14,,,,,,,,7,,,,66,92
232880,note_off,80,0,17,,,,,,,,10,,,,50,64
232880,note_off,80,0,15,,,,,,,,7,,,,50,64
232880,note_off,80,0,16,,,,,,,,8,,,,38,64
232880,note_off,80,0,13,,,,,,,,7,,,,57,64
232880,note_off,80,0,11,,,,,,,,6,,,,74,64
232880,note_off,80,0,12,,,,,,,,6,,,,69,64
232880,note_off,80,0,14,,,,,,,,7,,,,66,64
233040,note_on,160,0,15,,,,,,,,7,,,,50,92
233040,note_on,160,0,12,,,,,,,,6,,,,78,92
233040,note_on,160,0,17,,,,,,,,10,,,,50,92
233040,note_on,160,0,14,,,,,,,,7,,,,62,92
233040,note_on,160,0,13,,,,,,,,7,,,,66,92
233040,note_on,3680,0,9,,,,,,,,5,,,,69,92
233040,note_on,160,0,16,,,,,,,,8,,,,38,92
233040,note_on,160,0,11,,,,,,,,6,,,,81,92
233040,note_on,3680,0,10,,,,,,,,5,,,,66,92
233120,note_off,80,0,11,,,,,,,,6,,,,81,64
233120,note_off,80,0,15,,,,,,,,7,,,,50,64
233120,note_off,80,0,12,,,,,,,,6,,,,78,64
233120,note_off,80,0,16,,,,,,,,8,,,,38,64
233120,note_off,80,0,13,,,,,,,,7,,,,66,64
233120,note_off,80,0,17,,,,,,,,10,,,,50,64
233120,note_off,80,0,10,,,,,,,,5,,,,66,64
233120,note_off,80,0,14,,,,,,,,7,,,,62,64
233120,note_off,80,0,9,,,,,,,,5,,,,69,64
233160,note_on,40,0,14,,,,,,,,7,,,,62,92
233160,note_on,40,0,9,,,,,,,,5,,,,69,92
233160,note_on,40,0,10,,,,,,,,5,,,,66,92
233160,note_on,40,0,13,,,,,,,,7,,,,66,92
233240,note_off,80,0,9,,,,,,,,5,,,,69,64
233240,note_off,80,0,10,,,,,,,,5,,,,66,64
233240,note_off,80,0,13,,,,,,,,7,,,,66,64
233240,note_off,80,0,14,,,,,,,,7,,,,62,64
233280,note_on,160,0,12,,,,,,,,6,,,,78,92
233280,note_on,40,0,9,,,,,,,,5,,,,69,92
233280,note_on,40,0,14,,,,,,,,7,,,,62,92
233280,note_on,160,0,17,,,,,,,,10,,,,50,92
233280,note_on,160,0,11,,,,,,,,6,,,,81,92
233280,note_on,160,0,15,,,,,,,,7,,,,50,92
233280,note_on,40,0,13,,,,,,,,7,,,,66,92
233280,note_on,160,0,16,,,,,,,,8,,,,38,92
233280,note_on,40,0,10,,,,,,,,5,,,,66,92
233360,note_off,80,0,13,,,,,,,,7,,,,66,64
233360,note_off,80,0,9,,,,,,,,5,,,,69,64
233360,note_off,80,0,10,,,,,,,,5,,,,66,64
233360,note_off,80,0,14,,,,,,,,7,,,,62,64
233520,note_on,160,0,10,,,,,,,,5,,,,66,92
233520,note_on,160,0,13,,,,,,,,7,,,,66,92
233520,note_on,160,0,14,,,,,,,,7,,,,62,92
233520,note_on,160,0,9,,,,,,,,5,,,,69,92
233600,note_off,80,0,9,,,,,,,,5,,,,69,64
233600,note_off,80,0,10,,,,,,,,5,,,,66,64
233600,note_off,80,0,13,,,,,,,,7,,,,66,64
233600,note_off,80,0,14,,,,,,,,7,,,,62,64
233680,note_off,400,0,15,,,,,,,,7,,,,50,64
233680,note_off,400,0,12,,,,,,,,6,,,,78,64
233680,note_off,400,0,16,,,,,,,,8,,,,38,64
233680,note_off,400,0,17,,,,,,,,10,,,,50,64
233680,note_off,400,0,11,,,,,,,,6,,,,81,64
233760,note_on,160,0,13,,,,,,,,7,,,,66,92
233760,note_on,160,0,10,,,,,,,,5,,,,66,92
233760,note_on,160,0,9,,,,,,,,5,,,,69,92
233760,note_on,160,0,14,,,,,,,,7,,,,62,92
233840,note_off,80,0,10,,,,,,,,5,,,,66,64
233840,note_off,80,0,13,,,,,,,,7,,,,66,64
233840,note_off,80,0,14,,,,,,,,7,,,,62,64
233840,note_off,80,0,9,,,,,,,,5,,,,69,64
234000,note_on,160,0,10,,,,,,,,5,,,,66,92
234000,note_on,160,0,13,,,,,,,,7,,,,66,92
234000,note_on,160,0,14,,,,,,,,7,,,,62,92
234000,note_on,160,0,9,,,,,,,,5,,,,69,92
234080,note_off,80,0,13,,,,,,,,7,,,,66,64
234080,note_off,80,0,10,,,,,,,,5,,,,66,64
234080,note_off,80,0,9,,,,,,,,5,,,,69,64
234080,note_off,80,0,14,,,,,,,,7,,,,62,64
234240,note_on,160,0,9,,,,,,,,5,,,,74,92
234240,note_on,160,0,14,,,,,,,,7,,,,57,92
234240,note_on,160,0,13,,,,,,,,7,,,,62,92
234240,note_on,160,0,10,,,,,,,,5,,,,69,92
234320,note_off,80,0,14,,,,,,,,7,,,,57,64
234320,note_off,80,0,13,,,,,,,,7,,,,62,64
234320,note_off,80,0,10,,,,,,,,5,,,,69,64
234320,note_off,80,0,9,,,,,,,,5,,,,74,64
234480,note_on,160,0,10,,,,,,,,5,,,,66,92
234480,note_on,160,0,13,,,,,,,,7,,,,66,92
234480,note_on,160,0,9,,,,,,,,5,,,,69,92
234480,note_on,160,0,14,,,,,,,,7,,,,62,92
234560,note_off,80,0,10,,,,,,,,5,,,,66,64
234560,note_off,80,0,9,,,,,,,,5,,,,69,64
234560,note_off,80,0,14,,,,,,,,7,,,,62,64
234560,note_off,80,0,13,,,,,,,,7,,,,66,64
234720,note_on,2960,0,20,,,,,,,,13,,,,66,45
234720,note_on,160,0,14,,,,,,,,7,,,,62,92
234720,note_on,2960,0,7,,,,,,,,4,,,,50,45
234720,note_on,2960,0,3,,,,,,,,2,,,,69,45
234720,note_on,2960,0,2,,,,,,,,0,,,,62,45
234720,note_on,2960,0,22,,,,,,,,15,,,,38,45
234720,note_on,2960,0,6,,,,,,,,3,,,,62,45
234720,note_on,2960,0,18,,,,,,,,11,,,,69,60
234720,note_on,160,0,9,,,,,,,,5,,,,69,92
234720,note_on,2960,0,1,,,,,,,,0,,,,69,45
234720,note_on,2960,0,19,,,,,,,,12,,,,62,45
234720,note_on,160,0,13,,,,,,,,7,,,,66,92
234720,note_on,2960,0,8,,,,,,,,4,,,,50,45
234720,note_on,160,0,10,,,,,,,,5,,,,66,92
234720,note_on,2960,0,4,,,,,,,,2,,,,62,45
234720,note_on,2960,0,21,,,,,,,,14,,,,50,45
234720,note_on,2960,0,5,,,,,,,,3,,,,66,45
235080,note_off,360,0,3,,,,,,,,2,,,,69,64
235080,note_off,360,0,1,,,,,,,,0,,,,69,64
235080,note_on,0,0,1,,,,,,,,0,,,,71,45
235080,note_off,360,0,5,,,,,,,,3,,,,66,64
235080,note_on,0,0,3,,,,,,,,2,,,,71,45
235080,note_on,0,0,18,,,,,,,,11,,,,71,60
235080,note_off,360,0,18,,,,,,,,11,,,,69,64
235080,note_on,0,0,20,,,,,,,,13,,,,67,45
235080,note_off,360,0,20,,,,,,,,13,,,,66,64
235080,note_on,0,0,5,,,,,,,,3,,,,67,45
235120,note_off,400,0,21,,,,,,,,14,,,,50,64
235120,note_off,400,0,19,,,,,,,,12,,,,62,64
235120,note_off,400,0,9,,,,,,,,5,,,,69,64
235120,note_off,400,0,14,,,,,,,,7,,,,62,64
235120,note_off,400,0,22,,,,,,,,15,,,,38,64
235120,note_off,400,0,8,,,,,,,,4,,,,50,64
235120,note_off,400,0,7,,,,,,,,4,,,,50,64
235120,note_off,400,0,6,,,,,,,,3,,,,62,64
235120,note_off,400,0,13,,,,,,,,7,,,,66,64
235120,note_off,400,0,2,,,,,,,,0,,,,62,64
235120,note_off,400,0,10,,,,,,,,5,,,,66,64
235120,note_off,400,0,4,,,,,,,,2,,,,62,64
235195,note_off,115,0,3,,,,,,,,2,,,,71,64
235195,note_off,115,0,5,,,,,,,,3,,,,67,64
235195,note_off,115,0,18,,,,,,,,11,,,,71,64
235195,note_off,115,0,1,,,,,,,,0,,,,71,64
235195,note_off,115,0,20,,,,,,,,13,,,,67,64
235200,note_on,5,0,1,,,,,,,,0,,,,69,45
235200,note_on,80,0,7,,,,,,,,4,,,,45,45
235200,note_on,80,0,21,,,,,,,,14,,,,45,45
235200,note_on,80,0,22,,,,,,,,15,,,,33,45
235200,note_on,5,0,3,,,,,,,,2,,,,69,45
235200,note_on,5,0,20,,,,,,,,13,,,,66,45
235200,note_on,5,0,5,,,,,,,,3,,,,66,45
235200,note_on,5,0,18,,,,,,,,11,,,,69,60
235200,note_on,80,0,19,,,,,,,,12,,,,62,45
235200,note_on,80,0,2,,,,,,,,0,,,,62,45
235200,note_on,80,0,4,,,,,,,,2,,,,62,45
235200,note_on,80,0,8,,,,,,,,4,,,,45,45
235200,note_on,80,0,6,,,,,,,,3,,,,62,45
235560,note_on,0,0,3,,,,,,,,2,,,,71,45
235560,note_on,0,0,5,,,,,,,,3,,,,67,45
235560,note_off,360,0,5,,,,,,,,3,,,,66,64
235560,note_off,360,0,18,,,,,,,,11,,,,69,64
235560,note_on,0,0,18,,,,,,,,11,,,,71,60
235560,note_on,0,0,1,,,,,,,,0,,,,71,45
235560,note_off,360,0,1,,,,,,,,0,,,,69,64
235560,note_off,360,0,20,,,,,,,,13,,,,66,64
235560,note_off,360,0,3,,,,,,,,2,,,,69,64
235560,note_on,0,0,20,,,,,,,,13,,,,67,45
235600,note_off,400,0,4,,,,,,,,2,,,,62,64
235600,note_off,400,0,21,,,,,,,,14,,,,45,64
235600,note_off,400,0,7,,,,,,,,4,,,,45,64
235600,note_off,400,0,22,,,,,,,,15,,,,33,64
235600,note_off,400,0,6,,,,,,,,3,,,,62,64
235600,note_off,400,0,8,,,,,,,,4,,,,45,64
235600,note_off,400,0,2,,,,,,,,0,,,,62,64
235600,note_off,400,0,19,,,,,,,,12,,,,62,64
235675,note_off,115,0,18,,,,,,,,11,,,,71,64
235675,note_off,115,0,20,,,,,,,,13,,,,67,64
235675,note_off,115,0,1,,,,,,,,0,,,,71,64
235675,note_off,115,0,3,,,,,,,,2,,,,71,64
235675,note_off,115,0,5,,,,,,,,3,,,,67,64
235680,note_on,80,0,7,,,,,,,,4,,,,42,45
235680,note_on,80,0,2,,,,,,,,0,,,,66,45
235680,note_on,5,0,3,,,,,,,,2,,,,72,45
235680,note_on,80,0,19,,,,,,,,12,,,,66,45
235680,note_on,5,0,1,,,,,,,,0,,,,72,45
235680,note_on,5,0,5,,,,,,,,3,,,,69,45
235680,note_on,80,0,8,,,,,,,,4,,,,42,45
235680,note_on,5,0,20,,,,,,,,13,,,,69,45
235680,note_on,80,0,22,,,,,,,,15,,,,30,45
235680,note_on,5,0,18,,,,,,,,11,,,,72,60
235680,note_on,80,0,21,,,,,,,,14,,,,42,45
235680,note_on,80,0,6,,,,,,,,3,,,,66,45
235680,note_on,80,0,4,,,,,,,,2,,,,66,45
236040,note_off,360,0,1,,,,,,,,0,,,,72,64
236040,note_off,360,0,20,,,,,,,,13,,,,69,64
236040,note_on,0,0,20,,,,,,,,13,,,,71,45
236040,note_on,0,0,3,,,,,,,,2,,,,74,45
236040,note_off,360,0,18,,,,,,,,11,,,,72,64
236040,note_on,0,0,18,,,,,,,,11,,,,74,60
236040,note_off,360,0,5,,,,,,,,3,,,,69,64
236040,note_on,0,0,1,,,,,,,,0,,,,74,45
236040,note_on,0,0,5,,,,,,,,3,,,,71,45
236040,note_off,360,0,3,,,,,,,,2,,,,72,64
236080,note_off,400,0,2,,,,,,,,0,,,,66,64
236080,note_off,400,0,21,,,,,,,,14,,,,42,64
236080,note_off,400,0,4,,,,,,,,2,,,,66,64
236080,note_off,400,0,6,,,,,,,,3,,,,66,64
236080,note_off,400,0,22,,,,,,,,15,,,,30,64
236080,note_off,400,0,7,,,,,,,,4,,,,42,64
236080,note_off,400,0,19,,,,,,,,12,,,,66,64
236080,note_off,400,0,8,,,,,,,,4,,,,42,64
236155,note_off,115,0,5,,,,,,,,3,,,,71,64
236155,note_off,115,0,1,,,,,,,,0,,,,74,64
236155,note_off,115,0,20,,,,,,,,13,,,,71,64
236155,note_off,115,0,18,,,,,,,,11,,,,74,64
236155,note_off,115,0,3,,,,,,,,2,,,,74,64
236160,note_on,80,0,8,,,,,,,,4,,,,38,45
236160,note_on,80,0,2,,,,,,,,0,,,,66,45
236160,note_on,80,0,21,,,,,,,,14,,,,38,45
236160,note_on,80,0,22,,,,,,,,15,,,,26,45
236160,note_on,80,0,19,,,,,,,,12,,,,66,45
236160,note_on,5,0,20,,,,,,,,13,,,,69,45
236160,note_on,80,0,6,,,,,,,,3,,,,66,45
236160,note_on,5,0,5,,,,,,,,3,,,,69,45
236160,note_on,80,0,7,,,,,,,,4,,,,38,45
236160,note_on,80,0,4,,,,,,,,2,,,,66,45
236160,note_on,5,0,18,,,,,,,,11,,,,72,60
236160,note_on,5,0,3,,,,,,,,2,,,,72,45
236160,note_on,5,0,1,,,,,,,,0,,,,72,45
236520,note_off,360,0,5,,,,,,,,3,,,,69,64
236520,note_off,360,0,18,,,,,,,,11,,,,72,64
236520,note_off,360,0,3,,,,,,,,2,,,,72,64
236520,note_on,0,0,18,,,,,,,,11,,,,74,60
236520,note_on,0,0,3,,,,,,,,2,,,,74,45
236520,note_off,360,0,1,,,,,,,,0,,,,72,64
236520,note_on,0,0,1,,,,,,,,0,,,,74,45
236520,note_on,0,0,20,,,,,,,,13,,,,71,45
236520,note_off,360,0,20,,,,,,,,13,,,,69,64
236520,note_on,0,0,5,,,,,,,,3,,,,71,45
236560,note_off,400,0,6,,,,,,,,3,,,,66,64
236560,note_off,400,0,19,,,,,,,,12,,,,66,64
236560,note_off,400,0,7,,,,,,,,4,,,,38,64
236560,note_off,400,0,8,,,,,,,,4,,,,38,64
236560,note_off,400,0,22,,,,,,,,15,,,,26,64
236560,note_off,400,0,21,,,,,,,,14,,,,38,64
236560,note_off,400,0,4,,,,,,,,2,,,,66,64
236560,note_off,400,0,2,,,,,,,,0,,,,66,64
236635,note_off,115,0,1,,,,,,,,0,,,,74,64
236635,note_off,115,0,20,,,,,,,,13,,,,71,64
236635,note_off,115,0,3,,,,,,,,2,,,,74,64
236635,note_off,115,0,18,,,,,,,,11,,,,74,64
236635,note_off,115,0,5,,,,,,,,3,,,,71,64
236640,note_on,80,0,22,,,,,,,,15,,,,30,45
236640,note_on,5,0,5,,,,,,,,3,,,,69,45
236640,note_on,5,0,3,,,,,,,,2,,,,72,45
236640,note_on,80,0,19,,,,,,,,12,,,,66,45
236640,note_on,5,0,18,,,,,,,,11,,,,72,60
236640,note_on,80,0,6,,,,,,,,3,,,,66,45
236640,note_on,80,0,4,,,,,,,,2,,,,66,45
236640,note_on,80,0,8,,,,,,,,4,,,,42,45
236640,note_on,80,0,7,,,,,,,,4,,,,42,45
236640,note_on,80,0,2,,,,,,,,0,,,,66,45
236640,note_on,80,0,21,,,,,,,,14,,,,42,45
236640,note_on,5,0,20,,,,,,,,13,,,,69,45
236640,note_on,5,0,1,,,,,,,,0,,,,72,45
237000,note_off,360,0,1,,,,,,,,0,,,,72,64
237000,note_on,0,0,1,,,,,,,,0,,,,74,45
237000,note_on,0,0,5,,,,,,,,3,,,,71,45
237000,note_off,360,0,20,,,,,,,,13,,,,69,64
237000,note_on,0,0,20,,,,,,,,13,,,,71,45
237000,note_off,360,0,18,,,,,,,,11,,,,72,64
237000,note_off,360,0,3,,,,,,,,2,,,,72,64
237000,note_on,0,0,3,,,,,,,,2,,,,74,45
237000,note_off,360,0,5,,,,,,,,3,,,,69,64
237000,note_on,0,0,18,,,,,,,,11,,,,74,60
237040,note_off,400,0,19,,,,,,,,12,,,,66,64
237040,note_off,400,0,6,,,,,,,,3,,,,66,64
237040,note_off,400,0,21,,,,,,,,14,,,,42,64
237040,note_off,400,0,7,,,,,,,,4,,,,42,64
237040,note_off,400,0,8,,,,,,,,4,,,,42,64
237040,note_off,400,0,22,,,,,,,,15,,,,30,64
237040,note_off,400,0,4,,,,,,,,2,,,,66,64
237040,note_off,400,0,2,,,,,,,,0,,,,66,64
237115,note_off,115,0,3,,,,,,,,2,,,,74,64
237115,note_off,115,0,5,,,,,,,,3,,,,71,64
237115,note_off,115,0,18,,,,,,,,11,,,,74,64
237115,note_off,115,0,20,,,,,,,,13,,,,71,64
237115,note_off,115,0,1,,,,,,,,0,,,,74,64
237120,note_on,5,0,20,,,,,,,,13,,,,67,45
237120,note_on,80,0,21,,,,,,,,14,,,,43,45
237120,note_on,80,0,22,,,,,,,,15,,,,31,45
237120,note_on,5,0,1,,,,,,,,0,,,,71,45
237120,note_on,5,0,3,,,,,,,,2,,,,71,45
237120,note_on,5,0,18,,,,,,,,11,,,,71,60
237120,note_on,80,0,2,,,,,,,,0,,,,62,45
237120,note_on,80,0,19,,,,,,,,12,,,,62,45
237120,note_on,5,0,5,,,,,,,,3,,,,67,45
237120,note_on,80,0,6,,,,,,,,3,,,,62,45
237120,note_on,80,0,7,,,,,,,,4,,,,43,45
237120,note_on,80,0,8,,,,,,,,4,,,,43,45
237120,note_on,80,0,4,,,,,,,,2,,,,62,45
237480,note_off,360,0,3,,,,,,,,2,,,,71,64
237480,note_on,0,0,18,,,,,,,,11,,,,73,60
237480,note_off,360,0,20,,,,,,,,13,,,,67,64
237480,note_off,360,0,18,,,,,,,,11,,,,71,64
237480,note_on,0,0,20,,,,,,,,13,,,,69,45
237480,note_on,0,0,5,,,,,,,,3,,,,69,45
237480,note_on,0,0,1,,,,,,,,0,,,,73,45
237480,note_off,360,0,1,,,,,,,,0,,,,71,64
237480,note_off,360,0,5,,,,,,,,3,,,,67,64
237480,note_on,0,0,3,,,,,,,,2,,,,73,45
237520,note_off,400,0,19,,,,,,,,12,,,,62,64
237520,note_off,400,0,8,,,,,,,,4,,,,43,64
237520,note_off,400,0,4,,,,,,,,2,,,,62,64
237520,note_off,400,0,7,,,,,,,,4,,,,43,64
237520,note_off,400,0,21,,,,,,,,14,,,,43,64
237520,note_off,400,0,2,,,,,,,,0,,,,62,64
237520,note_off,400,0,6,,,,,,,,3,,,,62,64
237520,note_off,400,0,22,,,,,,,,15,,,,31,64
237595,note_off,115,0,5,,,,,,,,3,,,,69,64
237595,note_off,115,0,18,,,,,,,,11,,,,73,64
237595,note_off,115,0,1,,,,,,,,0,,,,73,64
237595,note_off,115,0,3,,,,,,,,2,,,,73,64
237595,note_off,115,0,20,,,,,,,,13,,,,69,64
237600,note_on,80,0,22,,,,,,,,15,,,,43,45
237600,note_on,3920,0,11,,,,,,,,6,,,,74,45
237600,note_on,80,0,4,,,,,,,,2,,,,62,45
237600,note_on,5,0,1,,,,,,,,0,,,,71,45
237600,note_on,80,0,7,,,,,,,,4,,,,55,45
237600,note_on,5,0,18,,,,,,,,11,,,,71,60
237600,note_on,80,0,2,,,,,,,,0,,,,62,45
237600,note_on,5,0,20,,,,,,,,13,,,,67,45
237600,note_on,80,0,8,,,,,,,,4,,,,55,45
237600,note_on,80,0,6,,,,,,,,3,,,,62,45
237600,note_on,3920,0,12,,,,,,,,6,,,,71,45
237600,note_on,2480,0,13,,,,,,,,7,,,,62,45
237600,note_on,2480,0,14,,,,,,,,7,,,,59,45
237600,note_on,80,0,19,,,,,,,,12,,,,62,45
237600,note_on,80,0,21,,,,,,,,14,,,,55,45
237600,note_on,5,0,3,,,,,,,,2,,,,71,45
237600,note_on,5,0,5,,,,,,,,3,,,,67,45
237960,note_off,360,0,12,,,,,,,,6,,,,71,64
237960,note_on,0,0,12,,,,,,,,6,,,,73,45
237960,note_on,0,0,1,,,,,,,,0,,,,73,45
237960,note_off,360,0,1,,,,,,,,0,,,,71,64
237960,note_off,360,0,5,,,,,,,,3,,,,67,64
237960,note_on,0,0,20,,,,,,,,13,,,,69,45
237960,note_off,360,0,20,,,,,,,,13,,,,67,64
237960,note_off,360,0,11,,,,,,,,6,,,,74,64
237960,note_on,0,0,18,,,,,,,,11,,,,73,60
237960,note_off,360,0,14,,,,,,,,7,,,,59,64
237960,note_on,0,0,14,,,,,,,,7,,,,61,45
237960,note_off,360,0,13,,,,,,,,7,,,,62,64
237960,note_on,0,0,13,,,,,,,,7,,,,64,45
237960,note_off,360,0,3,,,,,,,,2,,,,71,64
237960,note_off,360,0,18,,,,,,,,11,,,,71,64
237960,note_on,0,0,3,,,,,,,,2,,,,73,45
237960,note_on,0,0,5,,,,,,,,3,,,,69,45
237960,note_on,0,0,11,,,,,,,,6,,,,76,45
238000,note_off,400,0,8,,,,,,,,4,,,,55,64
238000,note_off,400,0,7,,,,,,,,4,,,,55,64
238000,note_off,400,0,4,,,,,,,,2,,,,62,64
238000,note_off,400,0,22,,,,,,,,15,,,,43,64
238000,note_off,400,0,19,,,,,,,,12,,,,62,64
238000,note_off,400,0,21,,,,,,,,14,,,,55,64
238000,note_off,400,0,2,,,,,,,,0,,,,62,64
238000,note_off,400,0,6,,,,,,,,3,,,,62,64
238075,note_off,115,0,18,,,,,,,,11,,,,73,64
238075,note_off,115,0,5,,,,,,,,3,,,,69,64
238075,note_off,115,0,14,,,,,,,,7,,,,61,64
238075,note_off,115,0,13,,,,,,,,7,,,,64,64
238075,note_off,115,0,12,,,,,,,,6,,,,73,64
238075,note_off,115,0,11,,,,,,,,6,,,,76,64
238075,note_off,115,0,20,,,,,,,,13,,,,69,64
238075,note_off,115,0,3,,,,,,,,2,,,,73,64
238075,note_off,115,0,1,,,,,,,,0,,,,73,64
238080,note_on,80,0,2,,,,,,,,0,,,,62,45
238080,note_on,5,0,5,,,,,,,,3,,,,67,45
238080,note_on,80,0,7,,,,,,,,4,,,,43,45
238080,note_on,5,0,13,,,,,,,,7,,,,62,45
238080,note_on,5,0,11,,,,,,,,6,,,,74,45
238080,note_on,80,0,8,,,,,,,,4,,,,43,45
238080,note_on,5,0,14,,,,,,,,7,,,,59,45
238080,note_on,80,0,4,,,,,,,,2,,,,62,45
238080,note_on,5,0,3,,,,,,,,2,,,,71,45
238080,note_on,5,0,1,,,,,,,,0,,,,71,45
238080,note_on,80,0,22,,,,,,,,15,,,,31,45
238080,note_on,5,0,20,,,,,,,,13,,,,67,45
238080,note_on,80,0,19,,,,,,,,12,,,,62,45
238080,note_on,5,0,12,,,,,,,,6,,,,71,45
238080,note_on,80,0,6,,,,,,,,3,,,,62,45
238080,note_on,80,0,21,,,,,,,,14,,,,43,45
238080,note_on,5,0,18,,,,,,,,11,,,,71,60
238440,note_off,360,0,1,,,,,,,,0,,,,71,64
238440,note_on,0,0,1,,,,,,,,0,,,,73,45
238440,note_off,360,0,20,,,,,,,,13,,,,67,64
238440,note_on,0,0,20,,,,,,,,13,,,,69,45
238440,note_off,360,0,11,,,,,,,,6,,,,74,64
238440,note_off,360,0,12,,,,,,,,6,,,,71,64
238440,note_on,0,0,11,,,,,,,,6,,,,76,45
238440,note_on,0,0,12,,,,,,,,6,,,,73,45
238440,note_on,0,0,13,,,,,,,,7,,,,64,45
238440,note_off,360,0,5,,,,,,,,3,,,,67,64
238440,note_on,0,0,3,,,,,,,,2,,,,73,45
238440,note_off,360,0,14,,,,,,,,7,,,,59,64
238440,note_on,0,0,14,,,,,,,,7,,,,61,45
238440,note_off,360,0,3,,,,,,,,2,,,,71,64
238440,note_off,360,0,13,,,,,,,,7,,,,62,64
238440,note_on,0,0,18,,,,,,,,11,,,,73,60
238440,note_on,0,0,5,,,,,,,,3,,,,69,45
238440,note_off,360,0,18,,,,,,,,11,,,,71,64
238480,note_off,400,0,7,,,,,,,,4,,,,43,64
238480,note_off,400,0,6,,,,,,,,3,,,,62,64
238480,note_off,400,0,2,,,,,,,,0,,,,62,64
238480,note_off,400,0,19,,,,,,,,12,,,,62,64
238480,note_off,400,0,22,,,,,,,,15,,,,31,64
238480,note_off,400,0,8,,,,,,,,4,,,,43,64
238480,note_off,400,0,21,,,,,,,,14,,,,43,64
238480,note_off,400,0,4,,,,,,,,2,,,,62,64
238555,note_off,115,0,5,,,,,,,,3,,,,69,64
238555,note_off,115,0,1,,,,,,,,0,,,,73,64
238555,note_off,115,0,20,,,,,,,,13,,,,69,64
238555,note_off,115,0,12,,,,,,,,6,,,,73,64
238555,note_off,115,0,13,,,,,,,,7,,,,64,64
238555,note_off,115,0,18,,,,,,,,11,,,,73,64
238555,note_off,115,0,14,,,,,,,,7,,,,61,64
238555,note_off,115,0,11,,,,,,,,6,,,,76,64
238555,note_off,115,0,3,,,,,,,,2,,,,73,64
238560,note_on,5,0,3,,,,,,,,2,,,,78,45
238560,note_on,5,0,13,,,,,,,,7,,,,66,45
238560,note_on,5,0,12,,,,,,,,6,,,,74,45
238560,note_on,80,0,7,,,,,,,,4,,,,50,45
238560,note_on,5,0,5,,,,,,,,3,,,,74,45
238560,note_on,5,0,11,,,,,,,,6,,,,78,45
238560,note_on,5,0,1,,,,,,,,0,,,,78,45
238560,note_on,5,0,20,,,,,,,,13,,,,62,45
238560,note_on,5,0,14,,,,,,,,7,,,,62,45
238560,note_on,80,0,19,,,,,,,,12,,,,62,45
238560,note_on,80,0,22,,,,,,,,15,,,,38,45
238560,note_on,80,0,2,,,,,,,,0,,,,62,45
238560,note_on,80,0,6,,,,,,,,3,,,,62,45
238560,note_on,80,0,21,,,,,,,,14,,,,50,45
238560,note_on,80,0,8,,,,,,,,4,,,,50,45
238560,note_on,80,0,4,,,,,,,,2,,,,62,45
238560,note_on,5,0,18,,,,,,,,11,,,,78,60
238920,note_on,0,0,5,,,,,,,,3,,,,76,45
238920,note_on,0,0,1,,,,,,,,0,,,,79,45
238920,note_off,360,0,1,,,,,,,,0,,,,78,64
238920,note_off,360,0,12,,,,,,,,6,,,,74,64
238920,note_on,0,0,12,,,,,,,,6,,,,76,45
238920,note_on,0,0,3,,,,,,,,2,,,,79,45
238920,note_off,360,0,3,,,,,,,,2,,,,78,64
238920,note_off,360,0,14,,,,,,,,7,,,,62,64
238920,note_off,360,0,5,,,,,,,,3,,,,74,64
238920,note_on,0,0,11,,,,,,,,6,,,,79,45
238920,note_on,0,0,14,,,,,,,,7,,,,64,45
238920,note_off,360,0,11,,,,,,,,6,,,,78,64
238920,note_off,360,0,20,,,,,,,,13,,,,62,64
238920,note_on,0,0,20,,,,,,,,13,,,,64,45
238920,note_off,360,0,13,,,,,,,,7,,,,66,64
238920,note_on,0,0,13,,,,,,,,7,,,,67,45
238920,note_on,0,0,18,,,,,,,,11,,,,79,60
238920,note_off,360,0,18,,,,,,,,11,,,,78,64
238960,note_off,400,0,4,,,,,,,,2,,,,62,64
238960,note_off,400,0,2,,,,,,,,0,,,,62,64
238960,note_off,400,0,22,,,,,,,,15,,,,38,64
238960,note_off,400,0,6,,,,,,,,3,,,,62,64
238960,note_off,400,0,8,,,,,,,,4,,,,50,64
238960,note_off,400,0,19,,,,,,,,12,,,,62,64
238960,note_off,400,0,21,,,,,,,,14,,,,50,64
238960,note_off,400,0,7,,,,,,,,4,,,,50,64
239035,note_off,115,0,20,,,,,,,,13,,,,64,64
239035,note_off,115,0,18,,,,,,,,11,,,,79,64
239035,note_off,115,0,3,,,,,,,,2,,,,79,64
239035,note_off,115,0,12,,,,,,,,6,,,,76,64
239035,note_off,115,0,13,,,,,,,,7,,,,67,64
239035,note_off,115,0,5,,,,,,,,3,,,,76,64
239035,note_off,115,0,11,,,,,,,,6,,,,79,64
239035,note_off,115,0,1,,,,,,,,0,,,,79,64
239035,note_off,115,0,14,,,,,,,,7,,,,64,64
239040,note_on,5,0,11,,,,,,,,6,,,,78,45
239040,note_on,80,0,6,,,,,,,,3,,,,62,45
239040,note_on,5,0,14,,,,,,,,7,,,,62,45
239040,note_on,5,0,13,,,,,,,,7,,,,66,45
239040,note_on,80,0,7,,,,,,,,4,,,,38,45
239040,note_on,5,0,12,,,,,,,,6,,,,74,45
239040,note_on,80,0,2,,,,,,,,0,,,,62,45
239040,note_on,5,0,20,,,,,,,,13,,,,62,45
239040,note_on,5,0,3,,,,,,,,2,,,,78,45
239040,note_on,80,0,4,,,,,,,,2,,,,62,45
239040,note_on,80,0,22,,,,,,,,15,,,,26,45
239040,note_on,80,0,19,,,,,,,,12,,,,62,45
239040,note_on,5,0,18,,,,,,,,11,,,,78,60
239040,note_on,80,0,21,,,,,,,,14,,,,38,45
239040,note_on,5,0,1,,,,,,,,0,,,,78,45
239040,note_on,5,0,5,,,,,,,,3,,,,74,45
239040,note_on,80,0,8,,,,,,,,4,,,,38,45
239400,note_on,0,0,3,,,,,,,,2,,,,79,45
239400,note_off,360,0,3,,,,,,,,2,,,,78,64
239400,note_off,360,0,12,,,,,,,,6,,,,74,64
239400,note_on,0,0,13,,,,,,,,7,,,,67,45
239400,note_off,360,0,13,,,,,,,,7,,,,66,64
239400,note_on,0,0,5,,,,,,,,3,,,,76,45
239400,note_on,0,0,12,,,,,,,,6,,,,76,45
239400,note_on,0,0,11,,,,,,,,6,,,,79,45
239400,note_off,360,0,11,,,,,,,,6,,,,78,64
239400,note_off,360,0,14,,,,,,,,7,,,,62,64
239400,note_on,0,0,1,,,,,,,,0,,,,79,45
239400,note_off,360,0,1,,,,,,,,0,,,,78,64
239400,note_off,360,0,18,,,,,,,,11,,,,78,64
239400,note_on,0,0,20,,,,,,,,13,,,,64,45
239400,note_off,360,0,20,,,,,,,,13,,,,62,64
239400,note_off,360,0,5,,,,,,,,3,,,,74,64
239400,note_on,0,0,18,,,,,,,,11,,,,79,60
239400,note_on,0,0,14,,,,,,,,7,,,,64,45
239440,note_off,400,0,22,,,,,,,,15,,,,26,64
239440,note_off,400,0,2,,,,,,,,0,,,,62,64
239440,note_off,400,0,19,,,,,,,,12,,,,62,64
239440,note_off,400,0,6,,,,,,,,3,,,,62,64
239440,note_off,400,0,8,,,,,,,,4,,,,38,64
239440,note_off,400,0,7,,,,,,,,4,,,,38,64
239440,note_off,400,0,21,,,,,,,,14,,,,38,64
239440,note_off,400,0,4,,,,,,,,2,,,,62,64
239515,note_off,115,0,18,,,,,,,,11,,,,79,64
239515,note_off,115,0,3,,,,,,,,2,,,,79,64
239515,note_off,115,0,13,,,,,,,,7,,,,67,64
239515,note_off,115,0,1,,,,,,,,0,,,,79,64
239515,note_off,115,0,20,,,,,,,,13,,,,64,64
239515,note_off,115,0,14,,,,,,,,7,,,,64,64
239515,note_off,115,0,12,,,,,,,,6,,,,76,64
239515,note_off,115,0,11,,,,,,,,6,,,,79,64
239515,note_off,115,0,5,,,,,,,,3,,,,76,64
239520,note_on,80,0,8,,,,,,,,4,,,,50,45
239520,note_on,80,0,19,,,,,,,,12,,,,62,45
239520,note_on,5,0,11,,,,,,,,6,,,,78,45
239520,note_on,80,0,6,,,,,,,,3,,,,62,45
239520,note_on,5,0,1,,,,,,,,0,,,,78,45
239520,note_on,5,0,12,,,,,,,,6,,,,74,45
239520,note_on,80,0,21,,,,,,,,14,,,,50,45
239520,note_on,80,0,22,,,,,,,,15,,,,38,45
239520,note_on,80,0,2,,,,,,,,0,,,,62,45
239520,note_on,5,0,13,,,,,,,,7,,,,66,45
239520,note_on,5,0,20,,,,,,,,13,,,,62,45
239520,note_on,5,0,14,,,,,,,,7,,,,62,45
239520,note_on,80,0,4,,,,,,,,2,,,,62,45
239520,note_on,5,0,3,,,,,,,,2,,,,78,45
239520,note_on,80,0,7,,,,,,,,4,,,,50,45
239520,note_on,5,0,18,,,,,,,,11,,,,78,60
239520,note_on,5,0,5,,,,,,,,3,,,,74,45
239880,note_off,360,0,18,,,,,,,,11,,,,78,64
239880,note_off,360,0,20,,,,,,,,13,,,,62,64
239880,note_on,0,0,18,,,,,,,,11,,,,79,60
239880,note_on,0,0,20,,,,,,,,13,,,,64,45
239880,note_off,360,0,1,,,,,,,,0,,,,78,64
239880,note_on,0,0,13,,,,,,,,7,,,,67,45
239880,note_on,0,0,1,,,,,,,,0,,,,79,45
239880,note_on,0,0,12,,,,,,,,6,,,,76,45
239880,note_off,360,0,12,,,,,,,,6,,,,74,64
239880,note_on,0,0,3,,,,,,,,2,,,,79,45
239880,note_off,360,0,3,,,,,,,,2,,,,78,64
239880,note_on,0,0,5,,,,,,,,3,,,,76,45
239880,note_off,360,0,13,,,,,,,,7,,,,66,64
239880,note_on,0,0,11,,,,,,,,6,,,,79,45
239880,note_off,360,0,11,,,,,,,,6,,,,78,64
239880,note_on,0,0,14,,,,,,,,7,,,,64,45
239880,note_off,360,0,14,,,,,,,,7,,,,62,64
239880,note_off,360,0,5,,,,,,,,3,,,,74,64
239920,note_off,400,0,2,,,,,,,,0,,,,62,64
239920,note_off,400,0,8,,,,,,,,4,,,,50,64
239920,note_off,400,0,19,,,,,,,,12,,,,62,64
239920,note_off,400,0,7,,,,,,,,4,,,,50,64
239920,note_off,400,0,4,,,,,,,,2,,,,62,64
239920,note_off,400,0,22,,,,,,,,15,,,,38,64
239920,note_off,400,0,6,,,,,,,,3,,,,62,64
239920,note_off,400,0,21,,,,,,,,14,,,,50,64
239995,note_off,115,0,13,,,,,,,,7,,,,67,64
239995,note_off,115,0,12,,,,,,,,6,,,,76,64
239995,note_off,115,0,14,,,,,,,,7,,,,64,64
239995,note_off,115,0,3,,,,,,,,2,,,,79,64
239995,note_off,115,0,20,,,,,,,,13,,,,64,64
239995,note_off,115,0,1,,,,,,,,0,,,,79,64
239995,note_off,115,0,5,,,,,,,,3,,,,76,64
239995,note_off,115,0,18,,,,,,,,11,,,,79,64
239995,note_off,115,0,11,,,,,,,,6,,,,79,64
240000,note_on,80,0,22,,,,,,,,15,,,,33,45
240000,note_on,5,0,1,,,,,,,,0,,,,73,45
240000,note_on,5,0,14,,,,,,,,7,,,,61,45
240000,note_on,5,0,13,,,,,,,,7,,,,64,45
240000,note_on,80,0,4,,,,,,,,2,,,,69,45
240000,note_on,80,0,6,,,,,,,,3,,,,57,45
240000,note_on,80,0,7,,,,,,,,4,,,,45,45
240000,note_on,5,0,12,,,,,,,,6,,,,73,45
240000,note_on,5,0,3,,,,,,,,2,,,,73,45
240000,note_on,5,0,11,,,,,,,,6,,,,76,45
240000,note_on,5,0,18,,,,,,,,11,,,,73,60
240000,note_on,80,0,19,,,,,,,,12,,,,69,45
240000,note_on,5,0,5,,,,,,,,3,,,,64,45
240000,note_on,80,0,21,,,,,,,,14,,,,45,45
240000,note_on,80,0,8,,,,,,,,4,,,,45,45
240000,note_on,5,0,20,,,,,,,,13,,,,64,45
240000,note_on,80,0,2,,,,,,,,0,,,,69,45
240360,note_on,0,0,5,,,,,,,,3,,,,66,45
240360,note_on,0,0,3,,,,,,,,2,,,,74,45
240360,note_off,360,0,5,,,,,,,,3,,,,64,64
240360,note_off,360,0,18,,,,,,,,11,,,,73,64
240360,note_off,360,0,1,,,,,,,,0,,,,73,64
240360,note_on,0,0,1,,,,,,,,0,,,,74,45
240360,note_on,0,0,18,,,,,,,,11,,,,74,60
240360,note_on,0,0,20,,,,,,,,13,,,,66,45
240360,note_off,360,0,20,,,,,,,,13,,,,64,64
240360,note_off,360,0,3,,,,,,,,2,,,,73,64
240400,note_off,400,0,7,,,,,,,,4,,,,45,64
240400,note_off,400,0,12,,,,,,,,6,,,,73,64
240400,note_off,400,0,14,,,,,,,,7,,,,61,64
240400,note_off,400,0,19,,,,,,,,12,,,,69,64
240400,note_off,400,0,4,,,,,,,,2,,,,69,64
240400,note_off,400,0,8,,,,,,,,4,,,,45,64
240400,note_off,400,0,2,,,,,,,,0,,,,69,64
240400,note_off,400,0,6,,,,,,,,3,,,,57,64
240400,note_off,400,0,22,,,,,,,,15,,,,33,64
240400,note_off,400,0,21,,,,,,,,14,,,,45,64
240400,note_off,400,0,13,,,,,,,,7,,,,64,64
240400,note_off,400,0,11,,,,,,,,6,,,,76,64
240475,note_off,115,0,1,,,,,,,,0,,,,74,64
240475,note_off,115,0,20,,,,,,,,13,,,,66,64
240475,note_off,115,0,3,,,,,,,,2,,,,74,64
240475,note_off,115,0,5,,,,,,,,3,,,,66,64
240475,note_off,115,0,18,,,,,,,,11,,,,74,64
240480,note_on,80,0,2,,,,,,,,0,,,,69,45
240480,note_on,5,0,5,,,,,,,,3,,,,64,45
240480,note_on,80,0,4,,,,,,,,2,,,,69,45
240480,note_on,80,0,19,,,,,,,,12,,,,69,45
240480,note_on,80,0,21,,,,,,,,14,,,,57,45
240480,note_on,5360,0,10,,,,,,,,5,,,,61,45
240480,note_on,80,0,13,,,,,,,,7,,,,64,45
240480,note_on,5360,0,9,,,,,,,,5,,,,64,45
240480,note_on,80,0,8,,,,,,,,4,,,,57,45
240480,note_on,5,0,20,,,,,,,,13,,,,64,45
240480,note_on,80,0,14,,,,,,,,7,,,,61,45
240480,note_on,5,0,18,,,,,,,,11,,,,73,60
240480,note_on,5,0,1,,,,,,,,0,,,,73,45
240480,note_on,80,0,7,,,,,,,,4,,,,57,45
240480,note_on,5,0,3,,,,,,,,2,,,,73,45
240480,note_on,80,0,22,,,,,,,,15,,,,45,45
240480,note_on,80,0,6,,,,,,,,3,,,,57,45
240840,note_off,360,0,3,,,,,,,,2,,,,73,64
240840,note_on,0,0,5,,,,,,,,3,,,,66,45
240840,note_on,0,0,20,,,,,,,,13,,,,66,45
240840,note_off,360,0,20,,,,,,,,13,,,,64,64
240840,note_on,0,0,9,,,,,,,,5,,,,66,45
240840,note_off,360,0,9,,,,,,,,5,,,,64,64
240840,note_on,0,0,3,,,,,,,,2,,,,74,45
240840,note_on,0,0,10,,,,,,,,5,,,,62,45
240840,note_off,360,0,10,,,,,,,,5,,,,61,64
240840,note_off,360,0,13,,,,,,,,7,,,,64,64
240840,note_on,0,0,13,,,,,,,,7,,,,66,45
240840,note_on,0,0,18,,,,,,,,11,,,,74,60
240840,note_off,360,0,18,,,,,,,,11,,,,73,64
240840,note_off,360,0,14,,,,,,,,7,,,,61,64
240840,note_on,0,0,14,,,,,,,,7,,,,62,45
240840,note_off,360,0,1,,,,,,,,0,,,,73,64
240840,note_on,0,0,1,,,,,,,,0,,,,74,45
240840,note_off,360,0,5,,,,,,,,3,,,,64,64
240880,note_off,400,0,6,,,,,,,,3,,,,57,64
240880,note_off,400,0,22,,,,,,,,15,,,,45,64
240880,note_off,400,0,21,,,,,,,,14,,,,57,64
240880,note_off,400,0,4,,,,,,,,2,,,,69,64
240880,note_off,400,0,8,,,,,,,,4,,,,57,64
240880,note_off,400,0,7,,,,,,,,4,,,,57,64
240880,note_off,400,0,19,,,,,,,,12,,,,69,64
240880,note_off,400,0,2,,,,,,,,0,,,,69,64
240955,note_off,115,0,1,,,,,,,,0,,,,74,64
240955,note_off,115,0,18,,,,,,,,11,,,,74,64
240955,note_off,115,0,9,,,,,,,,5,,,,66,64
240955,note_off,115,0,10,,,,,,,,5,,,,62,64
240955,note_off,115,0,5,,,,,,,,3,,,,66,64
240955,note_off,115,0,14,,,,,,,,7,,,,62,64
240955,note_off,115,0,20,,,,,,,,13,,,,66,64
240955,note_off,115,0,13,,,,,,,,7,,,,66,64
240955,note_off,115,0,3,,,,,,,,2,,,,74,64
240960,note_on,5,0,18,,,,,,,,11,,,,73,60
240960,note_on,80,0,21,,,,,,,,14,,,,45,45
240960,note_on,80,0,7,,,,,,,,4,,,,45,45
240960,note_on,5,0,3,,,,,,,,2,,,,73,45
240960,note_on,5,0,10,,,,,,,,5,,,,61,45
240960,note_on,5,0,1,,,,,,,,0,,,,73,45
240960,note_on,80,0,6,,,,,,,,3,,,,57,45
240960,note_on,80,0,4,,,,,,,,2,,,,69,45
240960,note_on,80,0,2,,,,,,,,0,,,,69,45
240960,note_on,80,0,8,,,,,,,,4,,,,45,45
240960,note_on,5,0,20,,,,,,,,13,,,,64,45
240960,note_on,80,0,19,,,,,,,,12,,,,69,45
240960,note_on,5,0,5,,,,,,,,3,,,,64,45
240960,note_on,5,0,9,,,,,,,,5,,,,64,45
240960,note_on,5,0,14,,,,,,,,7,,,,61,45
240960,note_on,80,0,22,,,,,,,,15,,,,33,45
240960,note_on,5,0,13,,,,,,,,7,,,,64,45
241320,note_on,0,0,14,,,,,,,,7,,,,62,45
241320,note_off,360,0,3,,,,,,,,2,,,,73,64
241320,note_off,360,0,20,,,,,,,,13,,,,64,64
241320,note_on,0,0,20,,,,,,,,13,,,,66,45
241320,note_off,360,0,9,,,,,,,,5,,,,64,64
241320,note_on,0,0,9,,,,,,,,5,,,,66,45
241320,note_on,0,0,3,,,,,,,,2,,,,74,45
241320,note_off,360,0,14,,,,,,,,7,,,,61,64
241320,note_on,0,0,10,,,,,,,,5,,,,62,45
241320,note_off,360,0,10,,,,,,,,5,,,,61,64
241320,note_on,0,0,1,,,,,,,,0,,,,74,45
241320,note_on,0,0,5,,,,,,,,3,,,,66,45
241320,note_off,360,0,5,,,,,,,,3,,,,64,64
241320,note_off,360,0,18,,,,,,,,11,,,,73,64
241320,note_on,0,0,18,,,,,,,,11,,,,74,60
241320,note_off,360,0,13,,,,,,,,7,,,,64,64
241320,note_off,360,0,1,,,,,,,,0,,,,73,64
241320,note_on,0,0,13,,,,,,,,7,,,,66,45
241360,note_off,400,0,2,,,,,,,,0,,,,69,64
241360,note_off,400,0,22,,,,,,,,15,,,,33,64
241360,note_off,400,0,19,,,,,,,,12,,,,69,64
241360,note_off,400,0,8,,,,,,,,4,,,,45,64
241360,note_off,400,0,4,,,,,,,,2,,,,69,64
241360,note_off,400,0,6,,,,,,,,3,,,,57,64
241360,note_off,400,0,7,,,,,,,,4,,,,45,64
241360,note_off,400,0,21,,,,,,,,14,,,,45,64
241435,note_off,115,0,18,,,,,,,,11,,,,74,64
241435,note_off,115,0,9,,,,,,,,5,,,,66,64
241435,note_off,115,0,13,,,,,,,,7,,,,66,64
241435,note_off,115,0,20,,,,,,,,13,,,,66,64
241435,note_off,115,0,14,,,,,,,,7,,,,62,64
241435,note_off,115,0,5,,,,,,,,3,,,,66,64
241435,note_off,115,0,10,,,,,,,,5,,,,62,64
241435,note_off,115,0,3,,,,,,,,2,,,,74,64
241435,note_off,115,0,1,,,,,,,,0,,,,74,64
241440,note_on,80,0,4,,,,,,,,2,,,,73,45
241440,note_on,80,0,8,,,,,,,,4,,,,52,45
241440,note_on,5,0,10,,,,,,,,5,,,,64,45
241440,note_on,80,0,19,,,,,,,,12,,,,73,45
241440,note_on,5,0,14,,,,,,,,7,,,,64,45
241440,note_on,5,0,9,,,,,,,,5,,,,67,45
241440,note_on,80,0,7,,,,,,,,4,,,,52,45
241440,note_on,5,0,13,,,,,,,,7,,,,67,45
241440,note_on,80,0,6,,,,,,,,3,,,,61,45
241440,note_on,5,0,18,,,,,,,,11,,,,76,60
241440,note_on,5,0,3,,,,,,,,2,,,,76,45
241440,note_on,5,0,5,,,,,,,,3,,,,69,45
241440,note_on,5,0,20,,,,,,,,13,,,,69,45
241440,note_on,80,0,21,,,,,,,,14,,,,52,45
241440,note_on,80,0,22,,,,,,,,15,,,,40,45
241440,note_on,5,0,1,,,,,,,,0,,,,76,45
241440,note_on,80,0,2,,,,,,,,0,,,,73,45
241800,note_on,0,0,14,,,,,,,,7,,,,66,45
241800,note_off,360,0,14,,,,,,,,7,,,,64,64
241800,note_on,0,0,1,,,,,,,,0,,,,78,45
241800,note_off,360,0,3,,,,,,,,2,,,,76,64
241800,note_on,0,0,13,,,,,,,,7,,,,69,45
241800,note_off,360,0,13,,,,,,,,7,,,,67,64
241800,note_on,0,0,3,,,,,,,,2,,,,78,45
241800,note_off,360,0,1,,,,,,,,0,,,,76,64
241800,note_off,360,0,10,,,,,,,,5,,,,64,64
241800,note_off,360,0,9,,,,,,,,5,,,,67,64
241800,note_on,0,0,9,,,,,,,,5,,,,69,45
241800,note_off,360,0,18,,,,,,,,11,,,,76,64
241800,note_on,0,0,18,,,,,,,,11,,,,78,60
241800,note_off,360,0,20,,,,,,,,13,,,,69,64
241800,note_on,0,0,20,,,,,,,,13,,,,71,45
241800,note_off,360,0,5,,,,,,,,3,,,,69,64
241800,note_on,0,0,5,,,,,,,,3,,,,71,45
241800,note_on,0,0,10,,,,,,,,5,,,,66,45
241840,note_off,400,0,21,,,,,,,,14,,,,52,64
241840,note_off,400,0,4,,,,,,,,2,,,,73,64
241840,note_off,400,0,8,,,,,,,,4,,,,52,64
241840,note_off,400,0,22,,,,,,,,15,,,,40,64
241840,note_off,400,0,7,,,,,,,,4,,,,52,64
241840,note_off,400,0,2,,,,,,,,0,,,,73,64
241840,note_off,400,0,19,,,,,,,,12,,,,73,64
241840,note_off,400,0,6,,,,,,,,3,,,,61,64
241915,note_off,115,0,1,,,,,,,,0,,,,78,64
241915,note_off,115,0,14,,,,,,,,7,,,,66,64
241915,note_off,115,0,3,,,,,,,,2,,,,78,64
241915,note_off,115,0,13,,,,,,,,7,,,,69,64
241915,note_off,115,0,18,,,,,,,,11,,,,78,64
241915,note_off,115,0,10,,,,,,,,5,,,,66,64
241915,note_off,115,0,20,,,,,,,,13,,,,71,64
241915,note_off,115,0,5,,,,,,,,3,,,,71,64
241915,note_off,115,0,9,,,,,,,,5,,,,69,64
241920,note_on,80,0,6,,,,,,,,3,,,,61,45
241920,note_on,5,0,13,,,,,,,,7,,,,67,45
241920,note_on,5,0,10,,,,,,,,5,,,,64,45
241920,note_on,80,0,4,,,,,,,,2,,,,73,45
241920,note_on,80,0,19,,,,,,,,12,,,,73,45
241920,note_on,80,0,22,,,,,,,,15,,,,28,45
241920,note_on,80,0,2,,,,,,,,0,,,,73,45
241920,note_on,5,0,14,,,,,,,,7,,,,64,45
241920,note_on,5,0,5,,,,,,,,3,,,,69,45
241920,note_on,5,0,20,,,,,,,,13,,,,69,45
241920,note_on,5,0,18,,,,,,,,11,,,,76,60
241920,note_on,80,0,21,,,,,,,,14,,,,40,45
241920,note_on,5,0,3,,,,,,,,2,,,,76,45
241920,note_on,5,0,1,,,,,,,,0,,,,76,45
241920,note_on,5,0,9,,,,,,,,5,,,,67,45
241920,note_on,80,0,7,,,,,,,,4,,,,40,45
241920,note_on,80,0,8,,,,,,,,4,,,,40,45
242280,note_off,360,0,18,,,,,,,,11,,,,76,64
242280,note_on,0,0,18,,,,,,,,11,,,,78,60
242280,note_on,0,0,13,,,,,,,,7,,,,69,45
242280,note_off,360,0,13,,,,,,,,7,,,,67,64
242280,note_off,360,0,10,,,,,,,,5,,,,64,64
242280,note_on,0,0,10,,,,,,,,5,,,,66,45
242280,note_off,360,0,9,,,,,,,,5,,,,67,64
242280,note_on,0,0,1,,,,,,,,0,,,,78,45
242280,note_off,360,0,1,,,,,,,,0,,,,76,64
242280,note_off,360,0,14,,,,,,,,7,,,,64,64
242280,note_on,0,0,20,,,,,,,,13,,,,71,45
242280,note_off,360,0,3,,,,,,,,2,,,,76,64
242280,note_on,0,0,14,,,,,,,,7,,,,66,45
242280,note_off,360,0,20,,,,,,,,13,,,,69,64
242280,note_on,0,0,9,,,,,,,,5,,,,69,45
242280,note_on,0,0,5,,,,,,,,3,,,,71,45
242280,note_on,0,0,3,,,,,,,,2,,,,78,45
242280,note_off,360,0,5,,,,,,,,3,,,,69,64
242320,note_off,400,0,22,,,,,,,,15,,,,28,64
242320,note_off,400,0,7,,,,,,,,4,,,,40,64
242320,note_off,400,0,6,,,,,,,,3,,,,61,64
242320,note_off,400,0,19,,,,,,,,12,,,,73,64
242320,note_off,400,0,2,,,,,,,,0,,,,73,64
242320,note_off,400,0,8,,,,,,,,4,,,,40,64
242320,note_off,400,0,21,,,,,,,,14,,,,40,64
242320,note_off,400,0,4,,,,,,,,2,,,,73,64
242395,note_off,115,0,18,,,,,,,,11,,,,78,64
242395,note_off,115,0,5,,,,,,,,3,,,,71,64
242395,note_off,115,0,20,,,,,,,,13,,,,71,64
242395,note_off,115,0,14,,,,,,,,7,,,,66,64
242395,note_off,115,0,10,,,,,,,,5,,,,66,64
242395,note_off,115,0,1,,,,,,,,0,,,,78,64
242395,note_off,115,0,3,,,,,,,,2,,,,78,64
242395,note_off,115,0,9,,,,,,,,5,,,,69,64
242395,note_off,115,0,13,,,,,,,,7,,,,69,64
242400,note_on,5,0,10,,,,,,,,5,,,,64,45
242400,note_on,5,0,13,,,,,,,,7,,,,67,45
242400,note_on,80,0,4,,,,,,,,2,,,,73,45
242400,note_on,5,0,14,,,,,,,,7,,,,64,45
242400,note_on,80,0,8,,,,,,,,4,,,,52,45
242400,note_on,5,0,5,,,,,,,,3,,,,69,45
242400,note_on,5,0,9,,,,,,,,5,,,,67,45
242400,note_on,5,0,20,,,,,,,,13,,,,69,45
242400,note_on,80,0,2,,,,,,,,0,,,,73,45
242400,note_on,5,0,18,,,,,,,,11,,,,76,60
242400,note_on,80,0,19,,,,,,,,12,,,,73,45
242400,note_on,80,0,22,,,,,,,,15,,,,40,45
242400,note_on,80,0,7,,,,,,,,4,,,,52,45
242400,note_on,5,0,3,,,,,,,,2,,,,76,45
242400,note_on,80,0,6,,,,,,,,3,,,,61,45
242400,note_on,80,0,21,,,,,,,,14,,,,52,45
242400,note_on,5,0,1,,,,,,,,0,,,,76,45
242760,note_off,360,0,1,,,,,,,,0,,,,76,64
242760,note_off,360,0,9,,,,,,,,5,,,,67,64
242760,note_on,0,0,14,,,,,,,,7,,,,66,45
242760,note_off,360,0,14,,,,,,,,7,,,,64,64
242760,note_on,0,0,13,,,,,,,,7,,,,69,45
242760,note_off,360,0,13,,,,,,,,7,,,,67,64
242760,note_off,360,0,5,,,,,,,,3,,,,69,64
242760,note_on,0,0,3,,,,,,,,2,,,,78,45
242760,note_on,0,0,5,,,,,,,,3,,,,71,45
242760,note_off,360,0,3,,,,,,,,2,,,,76,64
242760,note_off,360,0,18,,,,,,,,11,,,,76,64
242760,note_off,360,0,10,,,,,,,,5,,,,64,64
242760,note_off,360,0,20,,,,,,,,13,,,,69,64
242760,note_on,0,0,20,,,,,,,,13,,,,71,45
242760,note_on,0,0,1,,,,,,,,0,,,,78,45
242760,note_on,0,0,10,,,,,,,,5,,,,66,45
242760,note_on,0,0,18,,,,,,,,11,,,,78,60
242760,note_on,0,0,9,,,,,,,,5,,,,69,45
242800,note_off,400,0,22,,,,,,,,15,,,,40,64
242800,note_off,400,0,2,,,,,,,,0,,,,73,64
242800,note_off,400,0,7,,,,,,,,4,,,,52,64
242800,note_off,400,0,6,,,,,,,,3,,,,61,64
242800,note_off,400,0,4,,,,,,,,2,,,,73,64
242800,note_off,400,0,21,,,,,,,,14,,,,52,64
242800,note_off,400,0,19,,,,,,,,12,,,,73,64
242800,note_off,400,0,8,,,,,,,,4,,,,52,64
242875,note_off,115,0,9,,,,,,,,5,,,,69,64
242875,note_off,115,0,14,,,,,,,,7,,,,66,64
242875,note_off,115,0,13,,,,,,,,7,,,,69,64
242875,note_off,115,0,10,,,,,,,,5,,,,66,64
242875,note_off,115,0,5,,,,,,,,3,,,,71,64
242875,note_off,115,0,18,,,,,,,,11,,,,78,64
242875,note_off,115,0,3,,,,,,,,2,,,,78,64
242875,note_off,115,0,1,,,,,,,,0,,,,78,64
242875,note_off,115,0,20,,,,,,,,13,,,,71,64
242880,note_on,5,0,3,,,,,,,,2,,,,74,45
242880,note_on,80,0,22,,,,,,,,15,,,,35,45
242880,note_on,80,0,4,,,,,,,,2,,,,69,45
242880,note_on,80,0,21,,,,,,,,14,,,,47,45
242880,note_on,5,0,9,,,,,,,,5,,,,66,45
242880,note_on,5,0,13,,,,,,,,7,,,,66,45
242880,note_on,5,0,20,,,,,,,,13,,,,66,45
242880,note_on,5,0,18,,,,,,,,11,,,,74,60
242880,note_on,80,0,6,,,,,,,,3,,,,59,45
242880,note_on,80,0,19,,,,,,,,12,,,,69,45
242880,note_on,80,0,8,,,,,,,,4,,,,47,45
242880,note_on,80,0,7,,,,,,,,4,,,,47,45
242880,note_on,5,0,10,,,,,,,,5,,,,62,45
242880,note_on,5,0,14,,,,,,,,7,,,,62,45
242880,note_on,5,0,1,,,,,,,,0,,,,74,45
242880,note_on,5,0,5,,,,,,,,3,,,,66,45
242880,note_on,80,0,2,,,,,,,,0,,,,71,45
243240,note_on,0,0,10,,,,,,,,5,,,,64,45
243240,note_off,360,0,5,,,,,,,,3,,,,66,64
243240,note_on,0,0,18,,,,,,,,11,,,,76,60
243240,note_off,360,0,20,,,,,,,,13,,,,66,64
243240,note_off,360,0,13,,,,,,,,7,,,,66,64
243240,note_off,360,0,9,,,,,,,,5,,,,66,64
243240,note_on,0,0,5,,,,,,,,3,,,,69,45
243240,note_on,0,0,9,,,,,,,,5,,,,67,45
243240,note_on,0,0,3,,,,,,,,2,,,,76,45
243240,note_on,0,0,20,,,,,,,,13,,,,69,45
243240,note_on,0,0,13,,,,,,,,7,,,,67,45
243240,note_off,360,0,18,,,,,,,,11,,,,74,64
243240,note_off,360,0,10,,,,,,,,5,,,,62,64
243240,note_on,0,0,14,,,,,,,,7,,,,64,45
243240,note_off,360,0,3,,,,,,,,2,,,,74,64
243240,note_off,360,0,14,,,,,,,,7,,,,62,64
243240,note_on,0,0,1,,,,,,,,0,,,,76,45
243240,note_off,360,0,1,,,,,,,,0,,,,74,64
243280,note_off,400,0,6,,,,,,,,3,,,,59,64
243280,note_off,400,0,8,,,,,,,,4,,,,47,64
243280,note_off,400,0,19,,,,,,,,12,,,,69,64
243280,note_off,400,0,7,,,,,,,,4,,,,47,64
243280,note_off,400,0,21,,,,,,,,14,,,,47,64
243280,note_off,400,0,22,,,,,,,,15,,,,35,64
243280,note_off,400,0,2,,,,,,,,0,,,,71,64
243280,note_off,400,0,4,,,,,,,,2,,,,69,64
243355,note_off,115,0,13,,,,,,,,7,,,,67,64
243355,note_off,115,0,18,,,,,,,,11,,,,76,64
243355,note_off,115,0,5,,,,,,,,3,,,,69,64
243355,note_off,115,0,9,,,,,,,,5,,,,67,64
243355,note_off,115,0,20,,,,,,,,13,,,,69,64
243355,note_off,115,0,3,,,,,,,,2,,,,76,64
243355,note_off,115,0,10,,,,,,,,5,,,,64,64
243355,note_off,115,0,14,,,,,,,,7,,,,64,64
243355,note_off,115,0,1,,,,,,,,0,,,,76,64
243360,note_on,5,0,18,,,,,,,,11,,,,78,60
243360,note_on,5,0,9,,,,,,,,5,,,,66,45
243360,note_on,80,0,4,,,,,,,,2,,,,74,45
243360,note_on,80,0,2,,,,,,,,0,,,,74,45
243360,note_on,80,0,19,,,,,,,,12,,,,74,45
243360,note_on,80,0,22,,,,,,,,15,,,,47,45
243360,note_on,80,0,7,,,,,,,,4,,,,59,45
243360,note_on,5,0,14,,,,,,,,7,,,,59,45
243360,note_on,5,0,13,,,,,,,,7,,,,62,45
243360,note_on,5,0,1,,,,,,,,0,,,,78,45
243360,note_on,5,0,3,,,,,,,,2,,,,78,45
243360,note_on,80,0,21,,,,,,,,14,,,,59,45
243360,note_on,2960,0,11,,,,,,,,6,,,,78,45
243360,note_on,2960,0,12,,,,,,,,6,,,,74,45
243360,note_on,80,0,6,,,,,,,,3,,,,62,45
243360,note_on,80,0,8,,,,,,,,4,,,,59,45
243360,note_on,5,0,10,,,,,,,,5,,,,62,45
243360,note_on,5,0,5,,,,,,,,3,,,,62,45
243360,note_on,5,0,20,,,,,,,,13,,,,62,45
243720,note_on,0,0,1,,,,,,,,0,,,,79,45
243720,note_off,360,0,1,,,,,,,,0,,,,78,64
243720,note_off,360,0,12,,,,,,,,6,,,,74,64
243720,note_on,0,0,14,,,,,,,,7,,,,61,45
243720,note_off,360,0,14,,,,,,,,7,,,,59,64
243720,note_on,0,0,3,,,,,,,,2,,,,79,45
243720,note_off,360,0,20,,,,,,,,13,,,,62,64
243720,note_on,0,0,11,,,,,,,,6,,,,79,45
243720,note_on,0,0,10,,,,,,,,5,,,,64,45
243720,note_on,0,0,13,,,,,,,,7,,,,64,45
243720,note_off,360,0,13,,,,,,,,7,,,,62,64
243720,note_off,360,0,18,,,,,,,,11,,,,78,64
243720,note_on,0,0,18,,,,,,,,11,,,,79,60
243720,note_off,360,0,11,,,,,,,,6,,,,78,64
243720,note_on,0,0,12,,,,,,,,6,,,,76,45
243720,note_off,360,0,5,,,,,,,,3,,,,62,64
243720,note_on,0,0,5,,,,,,,,3,,,,64,45
243720,note_off,360,0,9,,,,,,,,5,,,,66,64
243720,note_on,0,0,9,,,,,,,,5,,,,67,45
243720,note_off,360,0,10,,,,,,,,5,,,,62,64
243720,note_on,0,0,20,,,,,,,,13,,,,64,45
243720,note_off,360,0,3,,,,,,,,2,,,,78,64
243760,note_off,400,0,2,,,,,,,,0,,,,74,64
243760,note_off,400,0,8,,,,,,,,4,,,,59,64
243760,note_off,400,0,22,,,,,,,,15,,,,47,64
243760,note_off,400,0,6,,,,,,,,3,,,,62,64
243760,note_off,400,0,19,,,,,,,,12,,,,74,64
243760,note_off,400,0,21,,,,,,,,14,,,,59,64
243760,note_off,400,0,7,,,,,,,,4,,,,59,64
243760,note_off,400,0,4,,,,,,,,2,,,,74,64
243835,note_off,115,0,10,,,,,,,,5,,,,64,64
243835,note_off,115,0,13,,,,,,,,7,,,,64,64
243835,note_off,115,0,14,,,,,,,,7,,,,61,64
243835,note_off,115,0,5,,,,,,,,3,,,,64,64
243835,note_off,115,0,18,,,,,,,,11,,,,79,64
243835,note_off,115,0,3,,,,,,,,2,,,,79,64
243835,note_off,115,0,11,,,,,,,,6,,,,79,64
243835,note_off,115,0,20,,,,,,,,13,,,,64,64
243835,note_off,115,0,1,,,,,,,,0,,,,79,64
243835,note_off,115,0,12,,,,,,,,6,,,,76,64
243835,note_off,115,0,9,,,,,,,,5,,,,67,64
243840,note_on,5,0,1,,,,,,,,0,,,,78,45
243840,note_on,5,0,3,,,,,,,,2,,,,78,45
243840,note_on,80,0,6,,,,,,,,3,,,,62,45
243840,note_on,80,0,21,,,,,,,,14,,,,47,45
243840,note_on,5,0,14,,,,,,,,7,,,,59,45
243840,note_on,5,0,12,,,,,,,,6,,,,74,45
243840,note_on,80,0,7,,,,,,,,4,,,,47,45
243840,note_on,80,0,8,,,,,,,,4,,,,47,45
243840,note_on,5,0,20,,,,,,,,13,,,,62,45
243840,note_on,80,0,19,,,,,,,,12,,,,74,45
243840,note_on,80,0,22,,,,,,,,15,,,,35,45
243840,note_on,80,0,4,,,,,,,,2,,,,74,45
243840,note_on,80,0,2,,,,,,,,0,,,,74,45
243840,note_on,5,0,18,,,,,,,,11,,,,78,60
243840,note_on,5,0,9,,,,,,,,5,,,,66,45
243840,note_on,5,0,11,,,,,,,,6,,,,78,45
243840,note_on,5,0,13,,,,,,,,7,,,,62,45
243840,note_on,5,0,10,,,,,,,,5,,,,62,45
243840,note_on,5,0,5,,,,,,,,3,,,,62,45
244200,note_on,0,0,9,,,,,,,,5,,,,67,45
244200,note_off,360,0,5,,,,,,,,3,,,,62,64
244200,note_off,360,0,10,,,,,,,,5,,,,62,64
244200,note_on,0,0,10,,,,,,,,5,,,,64,45
244200,note_off,360,0,3,,,,,,,,2,,,,78,64
244200,note_on,0,0,3,,,,,,,,2,,,,79,45
244200,note_on,0,0,5,,,,,,,,3,,,,64,45
244200,note_off,360,0,9,,,,,,,,5,,,,66,64
244200,note_off,360,0,12,,,,,,,,6,,,,74,64
244200,note_on,0,0,1,,,,,,,,0,,,,79,45
244200,note_on,0,0,18,,,,,,,,11,,,,79,60
244200,note_off,360,0,1,,,,,,,,0,,,,78,64
244200,note_off,360,0,14,,,,,,,,7,,,,59,64
244200,note_off,360,0,11,,,,,,,,6,,,,78,64
244200,note_on,0,0,12,,,,,,,,6,,,,76,45
244200,note_on,0,0,11,,,,,,,,6,,,,79,45
244200,note_on,0,0,14,,,,,,,,7,,,,61,45
244200,note_on,0,0,13,,,,,,,,7,,,,64,45
244200,note_off,360,0,18,,,,,,,,11,,,,78,64
244200,note_on,0,0,20,,,,,,,,13,,,,64,45
244200,note_off,360,0,20,,,,,,,,13,,,,62,64
244200,note_off,360,0,13,,,,,,,,7,,,,62,64
244240,note_off,400,0,22,,,,,,,,15,,,,35,64
244240,note_off,400,0,4,,,,,,,,2,,,,74,64
244240,note_off,400,0,7,,,,,,,,4,,,,47,64
244240,note_off,400,0,2,,,,,,,,0,,,,74,64
244240,note_off,400,0,6,,,,,,,,3,,,,62,64
244240,note_off,400,0,19,,,,,,,,12,,,,74,64
244240,note_off,400,0,21,,,,,,,,14,,,,47,64
244240,note_off,400,0,8,,,,,,,,4,,,,47,64
244315,note_off,115,0,13,,,,,,,,7,,,,64,64
244315,note_off,115,0,5,,,,,,,,3,,,,64,64
244315,note_off,115,0,20,,,,,,,,13,,,,64,64
244315,note_off,115,0,3,,,,,,,,2,,,,79,64
244315,note_off,115,0,11,,,,,,,,6,,,,79,64
244315,note_off,115,0,18,,,,,,,,11,,,,79,64
244315,note_off,115,0,9,,,,,,,,5,,,,67,64
244315,note_off,115,0,12,,,,,,,,6,,,,76,64
244315,note_off,115,0,14,,,,,,,,7,,,,61,64
244315,note_off,115,0,10,,,,,,,,5,,,,64,64
244315,note_off,115,0,1,,,,,,,,0,,,,79,64
244320,note_on,80,0,7,,,,,,,,4,,,,54,45
244320,note_on,5,0,1,,,,,,,,0,,,,81,45
244320,note_on,80,0,2,,,,,,,,0,,,,78,45
244320,note_on,5,0,20,,,,,,,,13,,,,66,45
244320,note_on,80,0,4,,,,,,,,2,,,,78,45
244320,note_on,5,0,3,,,,,,,,2,,,,81,45
244320,note_on,80,0,6,,,,,,,,3,,,,66,45
244320,note_on,5,0,9,,,,,,,,5,,,,69,45
244320,note_on,5,0,5,,,,,,,,3,,,,66,45
244320,note_on,80,0,22,,,,,,,,15,,,,42,45
244320,note_on,5,0,12,,,,,,,,6,,,,78,45
244320,note_on,5,0,10,,,,,,,,5,,,,66,45
244320,note_on,5,0,13,,,,,,,,7,,,,66,45
244320,note_on,5,0,14,,,,,,,,7,,,,62,45
244320,note_on,80,0,19,,,,,,,,12,,,,78,45
244320,note_on,80,0,21,,,,,,,,14,,,,54,45
244320,note_on,80,0,8,,,,,,,,4,,,,54,45
244320,note_on,5,0,11,,,,,,,,6,,,,81,45
244320,note_on,5,0,18,,,,,,,,11,,,,81,60
244680,note_on,0,0,18,,,,,,,,11,,,,83,60
244680,note_off,360,0,9,,,,,,,,5,,,,69,64
244680,note_off,360,0,18,,,,,,,,11,,,,81,64
244680,note_on,0,0,9,,,,,,,,5,,,,71,45
244680,note_off,360,0,13,,,,,,,,7,,,,66,64
244680,note_on,0,0,11,,,,,,,,6,,,,83,45
244680,note_on,0,0,3,,,,,,,,2,,,,83,45
244680,note_off,360,0,3,,,,,,,,2,,,,81,64
244680,note_off,360,0,11,,,,,,,,6,,,,81,64
244680,note_off,360,0,5,,,,,,,,3,,,,66,64
244680,note_off,360,0,14,,,,,,,,7,,,,62,64
244680,note_on,0,0,14,,,,,,,,7,,,,64,45
244680,note_on,0,0,1,,,,,,,,0,,,,83,45
244680,note_off,360,0,1,,,,,,,,0,,,,81,64
244680,note_on,0,0,13,,,,,,,,7,,,,67,45
244680,note_on,0,0,20,,,,,,,,13,,,,67,45
244680,note_off,360,0,20,,,,,,,,13,,,,66,64
244680,note_off,360,0,12,,,,,,,,6,,,,78,64
244680,note_on,0,0,5,,,,,,,,3,,,,67,45
244680,note_on,0,0,12,,,,,,,,6,,,,79,45
244680,note_on,0,0,10,,,,,,,,5,,,,67,45
244680,note_off,360,0,10,,,,,,,,5,,,,66,64
244720,note_off,400,0,19,,,,,,,,12,,,,78,64
244720,note_off,400,0,8,,,,,,,,4,,,,54,64
244720,note_off,400,0,7,,,,,,,,4,,,,54,64
244720,note_off,400,0,2,,,,,,,,0,,,,78,64
244720,note_off,400,0,6,,,,,,,,3,,,,66,64
244720,note_off,400,0,22,,,,,,,,15,,,,42,64
244720,note_off,400,0,4,,,,,,,,2,,,,78,64
244720,note_off,400,0,21,,,,,,,,14,,,,54,64
244795,note_off,115,0,9,,,,,,,,5,,,,71,64
244795,note_off,115,0,14,,,,,,,,7,,,,64,64
244795,note_off,115,0,11,,,,,,,,6,,,,83,64
244795,note_off,115,0,3,,,,,,,,2,,,,83,64
244795,note_off,115,0,20,,,,,,,,13,,,,67,64
244795,note_off,115,0,5,,,,,,,,3,,,,67,64
244795,note_off,115,0,10,,,,,,,,5,,,,67,64
244795,note_off,115,0,1,,,,,,,,0,,,,83,64
244795,note_off,115,0,12,,,,,,,,6,,,,79,64
244795,note_off,115,0,13,,,,,,,,7,,,,67,64
244795,note_off,115,0,18,,,,,,,,11,,,,83,64
244800,note_on,5,0,1,,,,,,,,0,,,,81,45
244800,note_on,80,0,19,,,,,,,,12,,,,78,45
244800,note_on,5,0,3,,,,,,,,2,,,,81,45
244800,note_on,5,0,11,,,,,,,,6,,,,81,45
244800,note_on,80,0,2,,,,,,,,0,,,,78,45
244800,note_on,80,0,22,,,,,,,,15,,,,38,45
244800,note_on,5,0,10,,,,,,,,5,,,,66,45
244800,note_on,80,0,7,,,,,,,,4,,,,50,45
244800,note_on,80,0,6,,,,,,,,3,,,,66,45
244800,note_on,5,0,18,,,,,,,,11,,,,81,60
244800,note_on,5,0,13,,,,,,,,7,,,,66,45
244800,note_on,5,0,5,,,,,,,,3,,,,66,45
244800,note_on,80,0,21,,,,,,,,14,,,,50,45
244800,note_on,80,0,8,,,,,,,,4,,,,50,45
244800,note_on,5,0,12,,,,,,,,6,,,,78,45
244800,note_on,5,0,9,,,,,,,,5,,,,69,45
244800,note_on,5,0,14,,,,,,,,7,,,,62,45
244800,note_on,80,0,4,,,,,,,,2,,,,78,45
244800,note_on,5,0,20,,,,,,,,13,,,,66,45
245160,note_off,360,0,13,,,,,,,,7,,,,66,64
245160,note_on,0,0,11,,,,,,,,6,,,,83,45
245160,note_off,360,0,11,,,,,,,,6,,,,81,64
245160,note_on,0,0,12,,,,,,,,6,,,,79,45
245160,note_off,360,0,14,,,,,,,,7,,,,62,64
245160,note_off,360,0,20,,,,,,,,13,,,,66,64
245160,note_off,360,0,12,,,,,,,,6,,,,78,64
245160,note_off,360,0,10,,,,,,,,5,,,,66,64
245160,note_off,360,0,5,,,,,,,,3,,,,66,64
245160,note_on,0,0,5,,,,,,,,3,,,,67,45
245160,note_on,0,0,20,,,,,,,,13,,,,67,45
245160,note_on,0,0,10,,,,,,,,5,,,,67,45
245160,note_on,0,0,3,,,,,,,,2,,,,83,45
245160,note_on,0,0,13,,,,,,,,7,,,,67,45
245160,note_on,0,0,9,,,,,,,,5,,,,71,45
245160,note_off,360,0,9,,,,,,,,5,,,,69,64
245160,note_off,360,0,1,,,,,,,,0,,,,81,64
245160,note_on,0,0,14,,,,,,,,7,,,,64,45
245160,note_off,360,0,3,,,,,,,,2,,,,81,64
245160,note_on,0,0,18,,,,,,,,11,,,,83,60
245160,note_off,360,0,18,,,,,,,,11,,,,81,64
245160,note_on,0,0,1,,,,,,,,0,,,,83,45
245200,note_off,400,0,19,,,,,,,,12,,,,78,64
245200,note_off,400,0,6,,,,,,,,3,,,,66,64
245200,note_off,400,0,2,,,,,,,,0,,,,78,64
245200,note_off,400,0,7,,,,,,,,4,,,,50,64
245200,note_off,400,0,8,,,,,,,,4,,,,50,64
245200,note_off,400,0,21,,,,,,,,14,,,,50,64
245200,note_off,400,0,22,,,,,,,,15,,,,38,64
245200,note_off,400,0,4,,,,,,,,2,,,,78,64
245275,note_off,115,0,12,,,,,,,,6,,,,79,64
245275,note_off,115,0,20,,,,,,,,13,,,,67,64
245275,note_off,115,0,11,,,,,,,,6,,,,83,64
245275,note_off,115,0,1,,,,,,,,0,,,,83,64
245275,note_off,115,0,13,,,,,,,,7,,,,67,64
245275,note_off,115,0,10,,,,,,,,5,,,,67,64
245275,note_off,115,0,14,,,,,,,,7,,,,64,64
245275,note_off,115,0,5,,,,,,,,3,,,,67,64
245275,note_off,115,0,9,,,,,,,,5,,,,71,64
245275,note_off,115,0,18,,,,,,,,11,,,,83,64
245275,note_off,115,0,3,,,,,,,,2,,,,83,64
245280,note_on,80,0,6,,,,,,,,3,,,,66,45
245280,note_on,5,0,14,,,,,,,,7,,,,62,45
245280,note_on,5,0,12,,,,,,,,6,,,,78,45
245280,note_on,5,0,5,,,,,,,,3,,,,66,45
245280,note_on,80,0,4,,,,,,,,2,,,,78,45
245280,note_on,5,0,20,,,,,,,,13,,,,66,45
245280,note_on,5,0,13,,,,,,,,7,,,,66,45
245280,note_on,5,0,9,,,,,,,,5,,,,69,45
245280,note_on,5,0,10,,,,,,,,5,,,,66,45
245280,note_on,5,0,18,,,,,,,,11,,,,81,60
245280,note_on,5,0,1,,,,,,,,0,,,,81,45
245280,note_on,5,0,3,,,,,,,,2,,,,81,45
245280,note_on,5,0,11,,,,,,,,6,,,,81,45
245280,note_on,80,0,19,,,,,,,,12,,,,78,45
245280,note_on,80,0,2,,,,,,,,0,,,,78,45
245640,note_off,360,0,12,,,,,,,,6,,,,78,64
245640,note_on,0,0,9,,,,,,,,5,,,,71,45
245640,note_off,360,0,9,,,,,,,,5,,,,69,64
245640,note_off,360,0,14,,,,,,,,7,,,,62,64
245640,note_off,360,0,13,,,,,,,,7,,,,66,64
245640,note_on,0,0,13,,,,,,,,7,,,,67,45
245640,note_on,0,0,18,,,,,,,,11,,,,83,60
245640,note_on,0,0,3,,,,,,,,2,,,,83,45
245640,note_on,0,0,20,,,,,,,,13,,,,67,45
245640,note_off,360,0,20,,,,,,,,13,,,,66,64
245640,note_off,360,0,5,,,,,,,,3,,,,66,64
245640,note_on,0,0,12,,,,,,,,6,,,,79,45
245640,note_on,0,0,10,,,,,,,,5,,,,67,45
245640,note_off,360,0,18,,,,,,,,11,,,,81,64
245640,note_on,0,0,14,,,,,,,,7,,,,64,45
245640,note_off,360,0,10,,,,,,,,5,,,,66,64
245640,note_on,0,0,1,,,,,,,,0,,,,83,45
245640,note_off,360,0,1,,,,,,,,0,,,,81,64
245640,note_off,360,0,11,,,,,,,,6,,,,81,64
245640,note_on,0,0,5,,,,,,,,3,,,,67,45
245640,note_on,0,0,11,,,,,,,,6,,,,83,45
245640,note_off,360,0,3,,,,,,,,2,,,,81,64
245680,note_off,400,0,4,,,,,,,,2,,,,78,64
245680,note_off,400,0,6,,,,,,,,3,,,,66,64
245680,note_off,400,0,19,,,,,,,,12,,,,78,64
245680,note_off,400,0,2,,,,,,,,0,,,,78,64
245755,note_off,115,0,11,,,,,,,,6,,,,83,64
245755,note_off,115,0,10,,,,,,,,5,,,,67,64
245755,note_off,115,0,12,,,,,,,,6,,,,79,64
245755,note_off,115,0,18,,,,,,,,11,,,,83,64
245755,note_off,115,0,14,,,,,,,,7,,,,64,64
245755,note_off,115,0,20,,,,,,,,13,,,,67,64
245755,note_off,115,0,1,,,,,,,,0,,,,83,64
245755,note_off,115,0,3,,,,,,,,2,,,,83,64
245755,note_off,115,0,13,,,,,,,,7,,,,67,64
245755,note_off,115,0,5,,,,,,,,3,,,,67,64
245755,note_off,115,0,9,,,,,,,,5,,,,71,64
245760,note_on,5,0,11,,,,,,,,6,,,,81,45
245760,note_on,80,0,4,,,,,,,,2,,,,78,45
245760,note_on,5,0,3,,,,,,,,2,,,,81,45
245760,note_on,5,0,9,,,,,,,,5,,,,69,45
245760,note_on,5,0,10,,,,,,,,5,,,,66,45
245760,note_on,5,0,1,,,,,,,,0,,,,81,45
245760,note_on,80,0,2,,,,,,,,0,,,,78,45
245760,note_on,5,0,12,,,,,,,,6,,,,78,45
245760,note_on,5,0,18,,,,,,,,11,,,,81,60
245760,note_on,80,0,19,,,,,,,,12,,,,78,45
245760,note_on,5,0,5,,,,,,,,3,,,,78,45
245760,note_on,5,0,13,,,,,,,,7,,,,66,45
245760,note_on,80,0,6,,,,,,,,3,,,,69,45
245760,note_on,5,0,20,,,,,,,,13,,,,69,45
246000,note_on,245,0,14,,,,,,,,7,,,,50,48
246000,note_on,800,0,7,,,,,,,,4,,,,50,48
246000,note_on,12320,0,15,,,,,,,,7,,,,50,92
246000,note_on,12320,0,16,,,,,,,,8,,,,38,92
246000,note_on,800,0,8,,,,,,,,4,,,,38,48
246000,note_on,800,0,21,,,,,,,,14,,,,50,48
246000,note_on,12320,0,17,,,,,,,,10,,,,50,92
246000,note_on,800,0,22,,,,,,,,15,,,,38,48
246080,note_off,80,0,21,,,,,,,,14,,,,50,64
246080,note_off,80,0,7,,,,,,,,4,,,,50,64
246080,note_off,80,0,15,,,,,,,,7,,,,50,64
246080,note_off,80,0,16,,,,,,,,8,,,,38,64
246080,note_off,80,0,17,,,,,,,,10,,,,50,64
246080,note_off,80,0,14,,,,,,,,7,,,,50,64
246080,note_off,80,0,22,,,,,,,,15,,,,38,64
246080,note_off,80,0,8,,,,,,,,4,,,,38,64
246240,note_on,160,0,21,,,,,,,,14,,,,50,52
246240,note_on,160,0,16,,,,,,,,8,,,,38,92
246240,note_on,160,0,8,,,,,,,,4,,,,38,52
246240,note_on,160,0,14,,,,,,,,7,,,,50,52
246240,note_on,160,0,7,,,,,,,,4,,,,50,52
246240,note_on,160,0,17,,,,,,,,10,,,,50,92
246240,note_on,160,0,15,,,,,,,,7,,,,50,92
246240,note_on,160,0,22,,,,,,,,15,,,,38,52
246320,note_off,80,0,16,,,,,,,,8,,,,38,64
246320,note_off,80,0,14,,,,,,,,7,,,,50,64
246320,note_off,80,0,22,,,,,,,,15,,,,38,64
246320,note_off,80,0,17,,,,,,,,10,,,,50,64
246320,note_off,80,0,8,,,,,,,,4,,,,38,64
246320,note_off,80,0,21,,,,,,,,14,,,,50,64
246320,note_off,80,0,7,,,,,,,,4,,,,50,64
246320,note_off,80,0,15,,,,,,,,7,,,,50,64
246480,note_on,160,0,7,,,,,,,,4,,,,54,56
246480,note_on,160,0,8,,,,,,,,4,,,,38,56
246480,note_on,160,0,22,,,,,,,,15,,,,42,56
246480,note_on,160,0,14,,,,,,,,7,,,,54,56
246480,note_on,160,0,21,,,,,,,,14,,,,54,56
246480,note_on,160,0,17,,,,,,,,10,,,,50,92
246480,note_on,160,0,15,,,,,,,,7,,,,50,92
246480,note_on,160,0,16,,,,,,,,8,,,,38,92
246560,note_off,80,0,14,,,,,,,,7,,,,54,64
246560,note_off,80,0,8,,,,,,,,4,,,,38,64
246560,note_off,80,0,15,,,,,,,,7,,,,50,64
246560,note_off,80,0,17,,,,,,,,10,,,,50,64
246560,note_off,80,0,7,,,,,,,,4,,,,54,64
246560,note_off,80,0,22,,,,,,,,15,,,,42,64
246560,note_off,80,0,21,,,,,,,,14,,,,54,64
246560,note_off,80,0,16,,,,,,,,8,,,,38,64
246720,note_on,160,0,21,,,,,,,,14,,,,54,60
246720,note_on,160,0,8,,,,,,,,4,,,,38,60
246720,note_on,160,0,7,,,,,,,,4,,,,54,60
246720,note_on,160,0,16,,,,,,,,8,,,,38,92
246720,note_on,160,0,17,,,,,,,,10,,,,50,92
246720,note_on,160,0,14,,,,,,,,7,,,,54,60
246720,note_on,160,0,22,,,,,,,,15,,,,42,60
246720,note_on,160,0,15,,,,,,,,7,,,,50,92
246800,note_off,80,0,16,,,,,,,,8,,,,38,64
246800,note_off,80,0,14,,,,,,,,7,,,,54,64
246800,note_off,80,0,22,,,,,,,,15,,,,42,64
246800,note_off,80,0,17,,,,,,,,10,,,,50,64
246800,note_off,80,0,7,,,,,,,,4,,,,54,64
246800,note_off,80,0,21,,,,,,,,14,,,,54,64
246800,note_off,80,0,15,,,,,,,,7,,,,50,64
246800,note_off,80,0,8,,,,,,,,4,,,,38,64
246960,note_on,160,0,17,,,,,,,,10,,,,50,92
246960,note_on,160,0,16,,,,,,,,8,,,,38,92
246960,note_on,160,0,22,,,,,,,,15,,,,45,64
246960,note_on,160,0,21,,,,,,,,14,,,,57,64
246960,note_on,160,0,15,,,,,,,,7,,,,50,92
246960,note_on,160,0,7,,,,,,,,4,,,,57,64
246960,note_on,160,0,14,,,,,,,,7,,,,57,64
246960,note_on,160,0,8,,,,,,,,4,,,,38,64
247040,note_off,80,0,8,,,,,,,,4,,,,38,64
247040,note_off,80,0,17,,,,,,,,10,,,,50,64
247040,note_off,80,0,15,,,,,,,,7,,,,50,64
247040,note_off,80,0,21,,,,,,,,14,,,,57,64
247040,note_off,80,0,7,,,,,,,,4,,,,57,64
247040,note_off,80,0,16,,,,,,,,8,,,,38,64
247040,note_off,80,0,14,,,,,,,,7,,,,57,64
247040,note_off,80,0,22,,,,,,,,15,,,,45,64
247080,note_off,1320,0,5,,,,,,,,3,,,,78,64
247080,note_off,1320,0,18,,,,,,,,11,,,,81,64
247080,note_off,1320,0,4,,,,,,,,2,,,,78,64
247080,note_off,1320,0,6,,,,,,,,3,,,,69,64
247080,note_off,1320,0,19,,,,,,,,12,,,,78,64
247080,note_off,1320,0,2,,,,,,,,0,,,,78,64
247080,note_off,1320,0,3,,,,,,,,2,,,,81,64
247080,note_off,1320,0,20,,,,,,,,13,,,,69,64
247080,note_off,1320,0,1,,,,,,,,0,,,,81,64
247200,note_on,120,0,19,,,,,,,,12,,,,78,68
247200,note_on,120,0,18,,,,,,,,11,,,,81,84
247200,note_on,160,0,15,,,,,,,,7,,,,50,92
247200,note_on,160,0,22,,,,,,,,15,,,,50,68
247200,note_on,160,0,14,,,,,,,,7,,,,62,68
247200,note_on,120,0,2,,,,,,,,0,,,,78,68
247200,note_on,160,0,8,,,,,,,,4,,,,38,68
247200,note_on,120,0,5,,,,,,,,3,,,,78,68
247200,note_on,160,0,7,,,,,,,,4,,,,62,68
247200,note_on,120,0,4,,,,,,,,2,,,,78,68
247200,note_on,160,0,21,,,,,,,,14,,,,62,68
247200,note_on,160,0,17,,,,,,,,10,,,,50,92
247200,note_on,120,0,6,,,,,,,,3,,,,69,68
247200,note_on,120,0,3,,,,,,,,2,,,,81,68
247200,note_on,160,0,16,,,,,,,,8,,,,38,92
247200,note_on,120,0,20,,,,,,,,13,,,,69,68
247200,note_on,120,0,1,,,,,,,,0,,,,81,68
247280,note_off,80,0,15,,,,,,,,7,,,,50,64
247280,note_off,80,0,16,,,,,,,,8,,,,38,64
247280,note_off,80,0,17,,,,,,,,10,,,,50,64
247280,note_off,80,0,21,,,,,,,,14,,,,62,64
247280,note_off,80,0,7,,,,,,,,4,,,,62,64
247280,note_off,80,0,22,,,,,,,,15,,,,50,64
247280,note_off,80,0,14,,,,,,,,7,,,,62,64
247280,note_off,80,0,8,,,,,,,,4,,,,38,64
247440,note_on,160,0,7,,,,,,,,4,,,,57,72
247440,note_on,160,0,22,,,,,,,,15,,,,45,72
247440,note_on,160,0,16,,,,,,,,8,,,,45,92
247440,note_on,160,0,14,,,,,,,,7,,,,57,72
247440,note_on,160,0,21,,,,,,,,14,,,,57,72
247440,note_on,160,0,17,,,,,,,,10,,,,45,92
247440,note_on,160,0,8,,,,,,,,4,,,,45,72
247440,note_on,160,0,15,,,,,,,,7,,,,57,92
247520,note_off,80,0,7,,,,,,,,4,,,,57,64
247520,note_off,80,0,8,,,,,,,,4,,,,45,64
247520,note_off,80,0,14,,,,,,,,7,,,,57,64
247520,note_off,80,0,17,,,,,,,,10,,,,45,64
247520,note_off,80,0,15,,,,,,,,7,,,,57,64
247520,note_off,80,0,21,,,,,,,,14,,,,57,64
247520,note_off,80,0,22,,,,,,,,15,,,,45,64
247520,note_off,80,0,16,,,,,,,,8,,,,45,64
247680,note_on,160,0,16,,,,,,,,8,,,,38,92
247680,note_on,160,0,17,,,,,,,,10,,,,50,92
247680,note_on,160,0,8,,,,,,,,4,,,,38,76
247680,note_on,160,0,22,,,,,,,,15,,,,50,76
247680,note_on,160,0,15,,,,,,,,7,,,,50,92
247680,note_on,160,0,7,,,,,,,,4,,,,62,76
247680,note_on,160,0,14,,,,,,,,7,,,,62,76
247680,note_on,160,0,21,,,,,,,,14,,,,62,76
247760,note_off,80,0,17,,,,,,,,10,,,,50,64
247760,note_off,80,0,14,,,,,,,,7,,,,62,64
247760,note_off,80,0,15,,,,,,,,7,,,,50,64
247760,note_off,80,0,7,,,,,,,,4,,,,62,64
247760,note_off,80,0,8,,,,,,,,4,,,,38,64
247760,note_off,80,0,16,,,,,,,,8,,,,38,64
247760,note_off,80,0,21,,,,,,,,14,,,,62,64
247760,note_off,80,0,22,,,,,,,,15,,,,50,64
247920,note_on,160,0,15,,,,,,,,7,,,,57,92
247920,note_on,160,0,16,,,,,,,,8,,,,45,92
247920,note_on,160,0,17,,,,,,,,10,,,,45,92
247920,note_on,160,0,7,,,,,,,,4,,,,57,80
247920,note_on,160,0,8,,,,,,,,4,,,,45,80
247920,note_on,160,0,14,,,,,,,,7,,,,59,80
247920,note_on,160,0,21,,,,,,,,14,,,,57,80
247920,note_on,160,0,22,,,,,,,,15,,,,45,80
248000,note_off,80,0,16,,,,,,,,8,,,,45,64
248000,note_off,80,0,17,,,,,,,,10,,,,45,64
248000,note_off,80,0,21,,,,,,,,14,,,,57,64
248000,note_off,80,0,8,,,,,,,,4,,,,45,64
248000,note_off,80,0,15,,,,,,,,7,,,,57,64
248000,note_off,80,0,14,,,,,,,,7,,,,59,64
248000,note_off,80,0,7,,,,,,,,4,,,,57,64
248000,note_off,80,0,22,,,,,,,,15,,,,45,64
248160,note_on,160,0,17,,,,,,,,10,,,,50,92
248160,note_on,160,0,14,,,,,,,,7,,,,62,84
248160,note_on,160,0,22,,,,,,,,15,,,,50,84
248160,note_on,160,0,15,,,,,,,,7,,,,50,92
248160,note_on,160,0,21,,,,,,,,14,,,,62,84
248160,note_on,160,0,8,,,,,,,,4,,,,38,84
248160,note_on,160,0,16,,,,,,,,8,,,,38,92
248160,note_on,160,0,7,,,,,,,,4,,,,62,84
248240,note_off,80,0,22,,,,,,,,15,,,,50,64
248240,note_off,80,0,15,,,,,,,,7,,,,50,64
248240,note_off,80,0,8,,,,,,,,4,,,,38,64
248240,note_off,80,0,7,,,,,,,,4,,,,62,64
248240,note_off,80,0,14,,,,,,,,7,,,,62,64
248240,note_off,80,0,21,,,,,,,,14,,,,62,64
248240,note_off,80,0,17,,,,,,,,10,,,,50,64
248240,note_off,80,0,16,,,,,,,,8,,,,38,64
248400,note_on,160,0,8,,,,,,,,4,,,,45,88
248400,note_on,160,0,22,,,,,,,,15,,,,45,88
248400,note_on,160,0,16,,,,,,,,8,,,,45,92
248400,note_on,160,0,17,,,,,,,,10,,,,45,92
248400,note_on,160,0,7,,,,,,,,4,,,,57,88
248400,note_on,160,0,15,,,,,,,,7,,,,57,92
248400,note_on,160,0,14,,,,,,,,7,,,,57,88
248400,note_on,160,0,21,,,,,,,,14,,,,57,88
248480,note_off,80,0,17,,,,,,,,10,,,,45,64
248480,note_off,80,0,15,,,,,,,,7,,,,57,64
248480,note_off,80,0,7,,,,,,,,4,,,,57,64
248480,note_off,80,0,14,,,,,,,,7,,,,57,64
248480,note_off,80,0,22,,,,,,,,15,,,,45,64
248480,note_off,80,0,21,,,,,,,,14,,,,57,64
248480,note_off,80,0,8,,,,,,,,4,,,,45,64
248480,note_off,80,0,16,,,,,,,,8,,,,45,64
248520,note_off,1320,0,4,,,,,,,,2,,,,78,64
248520,note_off,1320,0,20,,,,,,,,13,,,,69,64
248520,note_off,1320,0,6,,,,,,,,3,,,,69,64
248520,note_off,1320,0,5,,,,,,,,3,,,,78,64
248520,note_off,1320,0,19,,,,,,,,12,,,,78,64
248520,note_off,1320,0,2,,,,,,,,0,,,,78,64
248520,note_off,1320,0,1,,,,,,,,0,,,,81,64
248520,note_off,1320,0,18,,,,,,,,11,,,,81,64
248520,note_off,1320,0,3,,,,,,,,2,,,,81,64
248640,note_on,160,0,16,,,,,,,,8,,,,38,92
248640,note_on,160,0,17,,,,,,,,10,,,,50,92
248640,note_on,120,0,20,,,,,,,,13,,,,69,92
248640,note_on,120,0,4,,,,,,,,2,,,,78,92
248640,note_on,120,0,1,,,,,,,,0,,,,81,92
248640,note_on,120,0,3,,,,,,,,2,,,,81,92
248640,note_on,160,0,7,,,,,,,,4,,,,62,92
248640,note_on,160,0,14,,,,,,,,7,,,,62,92
248640,note_on,120,0,6,,,,,,,,3,,,,69,92
248640,note_on,160,0,22,,,,,,,,15,,,,50,92
248640,note_on,160,0,21,,,,,,,,14,,,,62,92
248640,note_on,120,0,5,,,,,,,,3,,,,78,92
248640,note_on,120,0,19,,,,,,,,12,,,,78,92
248640,note_on,120,0,2,,,,,,,,0,,,,78,92
248640,note_on,160,0,15,,,,,,,,7,,,,50,92
248640,note_on,120,0,18,,,,,,,,11,,,,81,108
248640,note_on,160,0,8,,,,,,,,4,,,,38,92
248720,note_off,80,0,6,,,,,,,,3,,,,69,64
248720,note_off,80,0,20,,,,,,,,13,,,,69,64
248720,note_off,80,0,2,,,,,,,,0,,,,78,64
248720,note_off,80,0,21,,,,,,,,14,,,,62,64
248720,note_off,80,0,7,,,,,,,,4,,,,62,64
248720,note_off,80,0,14,,,,,,,,7,,,,62,64
248720,note_off,80,0,8,,,,,,,,4,,,,38,64
248720,note_off,80,0,3,,,,,,,,2,,,,81,64
248720,note_off,80,0,18,,,,,,,,11,,,,81,64
248720,note_off,80,0,15,,,,,,,,7,,,,50,64
248720,note_off,80,0,5,,,,,,,,3,,,,78,64
248720,note_off,80,0,22,,,,,,,,15,,,,50,64
248720,note_off,80,0,4,,,,,,,,2,,,,78,64
248720,note_off,80,0,1,,,,,,,,0,,,,81,64
248720,note_off,80,0,19,,,,,,,,12,,,,78,64
248720,note_off,80,0,16,,,,,,,,8,,,,38,64
248720,note_off,80,0,17,,,,,,,,10,,,,50,64
248875,note_off,3115,0,10,,,,,,,,5,,,,66,64
248875,note_off,3115,0,13,,,,,,,,7,,,,66,64
248875,note_off,3115,0,11,,,,,,,,6,,,,81,64
248875,note_off,3115,0,9,,,,,,,,5,,,,69,64
248875,note_off,3115,0,12,,,,,,,,6,,,,78,64
248880,note_on,160,0,8,,,,,,,,4,,,,38,92
248880,note_on,160,0,2,,,,,,,,0,,,,78,92
248880,note_on,160,0,16,,,,,,,,8,,,,38,92
248880,note_on,160,0,17,,,,,,,,10,,,,50,92
248880,note_on,160,0,18,,,,,,,,11,,,,81,108
248880,note_on,5,0,12,,,,,,,,6,,,,78,92
248880,note_on,160,0,19,,,,,,,,12,,,,78,92
248880,note_on,160,0,7,,,,,,,,4,,,,50,92
248880,note_on,160,0,20,,,,,,,,13,,,,69,92
248880,note_on,5,0,10,,,,,,,,5,,,,66,92
248880,note_on,160,0,22,,,,,,,,15,,,,38,92
248880,note_on,160,0,14,,,,,,,,7,,,,62,92
248880,note_on,160,0,1,,,,,,,,0,,,,81,92
248880,note_on,160,0,6,,,,,,,,3,,,,69,92
248880,note_on,160,0,21,,,,,,,,14,,,,50,92
248880,note_on,160,0,15,,,,,,,,7,,,,50,92
248880,note_on,5,0,9,,,,,,,,5,,,,69,92
248880,note_on,160,0,5,,,,,,,,3,,,,78,92
248880,note_on,160,0,3,,,,,,,,2,,,,81,92
248880,note_on,5,0,11,,,,,,,,6,,,,81,92
248880,note_on,5,0,13,,,,,,,,7,,,,66,92
248880,note_on,160,0,4,,,,,,,,2,,,,78,92
248960,note_off,80,0,4,,,,,,,,2,,,,78,64
248960,note_off,80,0,19,,,,,,,,12,,,,78,64
248960,note_off,80,0,13,,,,,,,,7,,,,66,64
248960,note_off,80,0,17,,,,,,,,10,,,,50,64
248960,note_off,80,0,20,,,,,,,,13,,,,69,64
248960,note_off,80,0,14,,,,,,,,7,,,,62,64
248960,note_off,80,0,15,,,,,,,,7,,,,50,64
248960,note_off,80,0,8,,,,,,,,4,,,,38,64
248960,note_off,80,0,9,,,,,,,,5,,,,69,64
248960,note_off,80,0,2,,,,,,,,0,,,,78,64
248960,note_off,80,0,3,,,,,,,,2,,,,81,64
248960,note_off,80,0,6,,,,,,,,3,,,,69,64
248960,note_off,80,0,10,,,,,,,,5,,,,66,64
248960,note_off,80,0,5,,,,,,,,3,,,,78,64
248960,note_off,80,0,22,,,,,,,,15,,,,38,64
248960,note_off,80,0,11,,,,,,,,6,,,,81,64
248960,note_off,80,0,16,,,,,,,,8,,,,38,64
248960,note_off,80,0,12,,,,,,,,6,,,,78,64
248960,note_off,80,0,21,,,,,,,,14,,,,50,64
248960,note_off,80,0,18,,,,,,,,11,,,,81,64
248960,note_off,80,0,1,,,,,,,,0,,,,81,64
248960,note_off,80,0,7,,,,,,,,4,,,,50,64
249000,note_on,40,0,6,,,,,,,,3,,,,69,92
249000,note_on,40,0,18,,,,,,,,11,,,,81,108
249000,note_on,40,0,19,,,,,,,,12,,,,78,92
249000,note_on,40,0,15,,,,,,,,7,,,,50,92
249000,note_on,40,0,5,,,,,,,,3,,,,78,92
249000,note_on,40,0,7,,,,,,,,4,,,,50,92
249000,note_on,40,0,20,,,,,,,,13,,,,69,92
249000,note_on,40,0,12,,,,,,,,6,,,,78,92
249000,note_on,40,0,3,,,,,,,,2,,,,81,92
249000,note_on,40,0,2,,,,,,,,0,,,,78,92
249000,note_on,40,0,16,,,,,,,,8,,,,38,92
249000,note_on,40,0,21,,,,,,,,14,,,,50,92
249000,note_on,40,0,22,,,,,,,,15,,,,38,92
249000,note_on,40,0,1,,,,,,,,0,,,,81,92
249000,note_on,40,0,11,,,,,,,,6,,,,81,92
249000,note_on,40,0,4,,,,,,,,2,,,,78,92
249000,note_on,40,0,17,,,,,,,,10,,,,50,92
249000,note_on,40,0,8,,,,,,,,4,,,,38,92
249000,note_on,40,0,13,,,,,,,,7,,,,66,92
249000,note_on,40,0,10,,,,,,,,5,,,,66,92
249000,note_on,40,0,14,,,,,,,,7,,,,62,92
249000,note_on,40,0,9,,,,,,,,5,,,,69,92
249080,note_off,80,0,17,,,,,,,,10,,,,50,64
249080,note_off,80,0,20,,,,,,,,13,,,,69,64
249080,note_off,80,0,18,,,,,,,,11,,,,81,64
249080,note_off,80,0,7,,,,,,,,4,,,,50,64
249080,note_off,80,0,3,,,,,,,,2,,,,81,64
249080,note_off,80,0,1,,,,,,,,0,,,,81,64
249080,note_off,80,0,8,,,,,,,,4,,,,38,64
249080,note_off,80,0,10,,,,,,,,5,,,,66,64
249080,note_off,80,0,9,,,,,,,,5,,,,69,64
249080,note_off,80,0,2,,,,,,,,0,,,,78,64
249080,note_off,80,0,5,,,,,,,,3,,,,78,64
249080,note_off,80,0,15,,,,,,,,7,,,,50,64
249080,note_off,80,0,4,,,,,,,,2,,,,78,64
249080,note_off,80,0,22,,,,,,,,15,,,,38,64
249080,note_off,80,0,16,,,,,,,,8,,,,38,64
249080,note_off,80,0,6,,,,,,,,3,,,,69,64
249080,note_off,80,0,21,,,,,,,,14,,,,50,64
249080,note_off,80,0,19,,,,,,,,12,,,,78,64
249080,note_off,80,0,14,,,,,,,,7,,,,62,64
249080,note_off,80,0,11,,,,,,,,6,,,,81,64
249080,note_off,80,0,12,,,,,,,,6,,,,78,64
249080,note_off,80,0,13,,,,,,,,7,,,,66,64
249120,note_on,40,0,13,,,,,,,,7,,,,66,92
249120,note_on,40,0,19,,,,,,,,12,,,,78,92
249120,note_on,40,0,14,,,,,,,,7,,,,62,92
249120,note_on,40,0,8,,,,,,,,4,,,,38,92
249120,note_on,40,0,9,,,,,,,,5,,,,69,92
249120,note_on,40,0,11,,,,,,,,6,,,,81,92
249120,note_on,40,0,4,,,,,,,,2,,,,78,92
249120,note_on,40,0,7,,,,,,,,4,,,,50,92
249120,note_on,40,0,10,,,,,,,,5,,,,66,92
249120,note_on,40,0,1,,,,,,,,0,,,,81,92
249120,note_on,40,0,3,,,,,,,,2,,,,81,92
249120,note_on,40,0,22,,,,,,,,15,,,,38,92
249120,note_on,40,0,21,,,,,,,,14,,,,50,92
249120,note_on,40,0,16,,,,,,,,8,,,,38,92
249120,note_on,40,0,17,,,,,,,,10,,,,50,92
249120,note_on,40,0,2,,,,,,,,0,,,,78,92
249120,note_on,40,0,15,,,,,,,,7,,,,50,92
249120,note_on,40,0,20,,,,,,,,13,,,,69,92
249120,note_on,40,0,12,,,,,,,,6,,,,78,92
249120,note_on,40,0,18,,,,,,,,11,,,,81,108
249120,note_on,40,0,5,,,,,,,,3,,,,78,92
249120,note_on,40,0,6,,,,,,,,3,,,,69,92
249200,note_off,80,0,8,,,,,,,,4,,,,38,64
249200,note_off,80,0,16,,,,,,,,8,,,,38,64
249200,note_off,80,0,17,,,,,,,,10,,,,50,64
249200,note_off,80,0,11,,,,,,,,6,,,,81,64
249200,note_off,80,0,9,,,,,,,,5,,,,69,64
249200,note_off,80,0,13,,,,,,,,7,,,,66,64
249200,note_off,80,0,10,,,,,,,,5,,,,66,64
249200,note_off,80,0,6,,,,,,,,3,,,,69,64
249200,note_off,80,0,14,,,,,,,,7,,,,62,64
249200,note_off,80,0,4,,,,,,,,2,,,,78,64
249200,note_off,80,0,18,,,,,,,,11,,,,81,64
249200,note_off,80,0,21,,,,,,,,14,,,,50,64
249200,note_off,80,0,15,,,,,,,,7,,,,50,64
249200,note_off,80,0,2,,,,,,,,0,,,,78,64
249200,note_off,80,0,20,,,,,,,,13,,,,69,64
249200,note_off,80,0,22,,,,,,,,15,,,,38,64
249200,note_off,80,0,19,,,,,,,,12,,,,78,64
249200,note_off,80,0,3,,,,,,,,2,,,,81,64
249200,note_off,80,0,12,,,,,,,,6,,,,78,64
249200,note_off,80,0,1,,,,,,,,0,,,,81,64
249200,note_off,80,0,7,,,,,,,,4,,,,50,64
249200,note_off,80,0,5,,,,,,,,3,,,,78,64
249360,note_on,160,0,3,,,,,,,,2,,,,81,92
249360,note_on,160,0,18,,,,,,,,11,,,,81,108
249360,note_on,160,0,10,,,,,,,,5,,,,66,92
249360,note_on,160,0,22,,,,,,,,15,,,,38,92
249360,note_on,160,0,21,,,,,,,,14,,,,50,92
249360,note_on,160,0,9,,,,,,,,5,,,,69,92
249360,note_on,160,0,20,,,,,,,,13,,,,69,92
249360,note_on,160,0,11,,,,,,,,6,,,,81,92
249360,note_on,160,0,1,,,,,,,,0,,,,81,92
249360,note_on,160,0,16,,,,,,,,8,,,,38,92
249360,note_on,160,0,4,,,,,,,,2,,,,78,92
249360,note_on,160,0,7,,,,,,,,4,,,,50,92
249360,note_on,160,0,14,,,,,,,,7,,,,62,92
249360,note_on,160,0,15,,,,,,,,7,,,,50,92
249360,note_on,160,0,19,,,,,,,,12,,,,78,92
249360,note_on,160,0,13,,,,,,,,7,,,,66,92
249360,note_on,160,0,6,,,,,,,,3,,,,69,92
249360,note_on,160,0,8,,,,,,,,4,,,,38,92
249360,note_on,160,0,12,,,,,,,,6,,,,78,92
249360,note_on,160,0,17,,,,,,,,10,,,,50,92
249360,note_on,160,0,5,,,,,,,,3,,,,78,92
249360,note_on,160,0,2,,,,,,,,0,,,,78,92
249440,note_off,80,0,22,,,,,,,,15,,,,38,64
249440,note_off,80,0,7,,,,,,,,4,,,,50,64
249440,note_off,80,0,1,,,,,,,,0,,,,81,64
249440,note_off,80,0,18,,,,,,,,11,,,,81,64
249440,note_off,80,0,20,,,,,,,,13,,,,69,64
249440,note_off,80,0,3,,,,,,,,2,,,,81,64
249440,note_off,80,0,11,,,,,,,,6,,,,81,64
249440,note_off,80,0,13,,,,,,,,7,,,,66,64
249440,note_off,80,0,10,,,,,,,,5,,,,66,64
249440,note_off,80,0,5,,,,,,,,3,,,,78,64
249440,note_off,80,0,4,,,,,,,,2,,,,78,64
249440,note_off,80,0,12,,,,,,,,6,,,,78,64
249440,note_off,80,0,14,,,,,,,,7,,,,62,64
249440,note_off,80,0,16,,,,,,,,8,,,,38,64
249440,note_off,80,0,6,,,,,,,,3,,,,69,64
249440,note_off,80,0,9,,,,,,,,5,,,,69,64
249440,note_off,80,0,8,,,,,,,,4,,,,38,64
249440,note_off,80,0,17,,,,,,,,10,,,,50,64
249440,note_off,80,0,15,,,,,,,,7,,,,50,64
249440,note_off,80,0,21,,,,,,,,14,,,,50,64
249440,note_off,80,0,19,,,,,,,,12,,,,78,64
249440,note_off,80,0,2,,,,,,,,0,,,,78,64
249600,note_on,160,0,8,,,,,,,,4,,,,38,92
249600,note_on,160,0,9,,,,,,,,5,,,,69,92
249600,note_on,160,0,5,,,,,,,,3,,,,78,92
249600,note_on,160,0,3,,,,,,,,2,,,,81,92
249600,note_on,160,0,19,,,,,,,,12,,,,78,92
249600,note_on,160,0,18,,,,,,,,11,,,,81,108
249600,note_on,160,0,16,,,,,,,,8,,,,38,92
249600,note_on,160,0,1,,,,,,,,0,,,,81,92
249600,note_on,160,0,4,,,,,,,,2,,,,78,92
249600,note_on,160,0,22,,,,,,,,15,,,,38,92
249600,note_on,160,0,15,,,,,,,,7,,,,50,92
249600,note_on,160,0,2,,,,,,,,0,,,,78,92
249600,note_on,160,0,20,,,,,,,,13,,,,69,92
249600,note_on,160,0,7,,,,,,,,4,,,,50,92
249600,note_on,160,0,6,,,,,,,,3,,,,69,92
249600,note_on,160,0,17,,,,,,,,10,,,,50,92
249600,note_on,160,0,13,,,,,,,,7,,,,66,92
249600,note_on,160,0,21,,,,,,,,14,,,,50,92
249600,note_on,160,0,12,,,,,,,,6,,,,78,92
249600,note_on,160,0,14,,,,,,,,7,,,,62,92
249600,note_on,160,0,10,,,,,,,,5,,,,66,92
249600,note_on,160,0,11,,,,,,,,6,,,,81,92
249680,note_off,80,0,22,,,,,,,,15,,,,38,64
249680,note_off,80,0,10,,,,,,,,5,,,,66,64
249680,note_off,80,0,11,,,,,,,,6,,,,81,64
249680,note_off,80,0,7,,,,,,,,4,,,,50,64
249680,note_off,80,0,5,,,,,,,,3,,,,78,64
249680,note_off,80,0,20,,,,,,,,13,,,,69,64
249680,note_off,80,0,18,,,,,,,,11,,,,81,64
249680,note_off,80,0,6,,,,,,,,3,,,,69,64
249680,note_off,80,0,4,,,,,,,,2,,,,78,64
249680,note_off,80,0,12,,,,,,,,6,,,,78,64
249680,note_off,80,0,17,,,,,,,,10,,,,50,64
249680,note_off,80,0,1,,,,,,,,0,,,,81,64
249680,note_off,80,0,16,,,,,,,,8,,,,38,64
249680,note_off,80,0,14,,,,,,,,7,,,,62,64
249680,note_off,80,0,3,,,,,,,,2,,,,81,64
249680,note_off,80,0,19,,,,,,,,12,,,,78,64
249680,note_off,80,0,21,,,,,,,,14,,,,50,64
249680,note_off,80,0,8,,,,,,,,4,,,,38,64
249680,note_off,80,0,13,,,,,,,,7,,,,66,64
249680,note_off,80,0,2,,,,,,,,0,,,,78,64
249680,note_off,80,0,15,,,,,,,,7,,,,50,64
249680,note_off,80,0,9,,,,,,,,5,,,,69,64
249840,note_on,160,0,6,,,,,,,,3,,,,69,92
249840,note_on,160,0,12,,,,,,,,6,,,,78,92
249840,note_on,160,0,15,,,,,,,,7,,,,50,92
249840,note_on,160,0,9,,,,,,,,5,,,,69,92
249840,note_on,160,0,20,,,,,,,,13,,,,69,92
249840,note_on,160,0,13,,,,,,,,7,,,,66,92
249840,note_on,160,0,2,,,,,,,,0,,,,78,92
249840,note_on,160,0,19,,,,,,,,12,,,,78,92
249840,note_on,160,0,14,,,,,,,,7,,,,62,92
249840,note_on,160,0,16,,,,,,,,8,,,,38,92
249840,note_on,160,0,18,,,,,,,,11,,,,81,108
249840,note_on,160,0,10,,,,,,,,5,,,,66,92
249840,note_on,160,0,11,,,,,,,,6,,,,81,92
249840,note_on,160,0,3,,,,,,,,2,,,,81,92
249840,note_on,160,0,8,,,,,,,,4,,,,38,92
249840,note_on,160,0,17,,,,,,,,10,,,,50,92
249840,note_on,160,0,4,,,,,,,,2,,,,78,92
249840,note_on,160,0,7,,,,,,,,4,,,,50,92
249840,note_on,160,0,21,,,,,,,,14,,,,50,92
249840,note_on,160,0,5,,,,,,,,3,,,,78,92
249840,note_on,160,0,22,,,,,,,,15,,,,38,92
249840,note_on,160,0,1,,,,,,,,0,,,,81,92
249920,note_off,80,0,9,,,,,,,,5,,,,69,64
249920,note_off,80,0,1,,,,,,,,0,,,,81,64
249920,note_off,80,0,12,,,,,,,,6,,,,78,64
249920,note_off,80,0,22,,,,,,,,15,,,,38,64
249920,note_off,80,0,11,,,,,,,,6,,,,81,64
249920,note_off,80,0,13,,,,,,,,7,,,,66,64
249920,note_off,80,0,21,,,,,,,,14,,,,50,64
249920,note_off,80,0,18,,,,,,,,11,,,,81,64
249920,note_off,80,0,3,,,,,,,,2,,,,81,64
249920,note_off,80,0,2,,,,,,,,0,,,,78,64
249920,note_off,80,0,10,,,,,,,,5,,,,66,64
249920,note_off,80,0,8,,,,,,,,4,,,,38,64
249920,note_off,80,0,14,,,,,,,,7,,,,62,64
249920,note_off,80,0,17,,,,,,,,10,,,,50,64
249920,note_off,80,0,15,,,,,,,,7,,,,50,64
249920,note_off,80,0,4,,,,,,,,2,,,,78,64
249920,note_off,80,0,19,,,,,,,,12,,,,78,64
249920,note_off,80,0,6,,,,,,,,3,,,,69,64
249920,note_off,80,0,16,,,,,,,,8,,,,38,64
249920,note_off,80,0,5,,,,,,,,3,,,,78,64
249920,note_off,80,0,20,,,,,,,,13,,,,69,64
249920,note_off,80,0,7,,,,,,,,4,,,,50,64
250080,note_on,160,0,11,,,,,,,,6,,,,74,92
250080,note_on,160,0,16,,,,,,,,8,,,,38,92
250080,note_on,160,0,12,,,,,,,,6,,,,69,92
250080,note_on,160,0,2,,,,,,,,0,,,,78,92
250080,note_on,160,0,19,,,,,,,,12,,,,78,92
250080,note_on,160,0,18,,,,,,,,11,,,,81,108
250080,note_on,160,0,1,,,,,,,,0,,,,81,92
250080,note_on,160,0,8,,,,,,,,4,,,,38,92
250080,note_on,160,0,17,,,,,,,,10,,,,50,92
250080,note_on,160,0,20,,,,,,,,13,,,,69,92
250080,note_on,160,0,3,,,,,,,,2,,,,81,92
250080,note_on,160,0,21,,,,,,,,14,,,,50,92
250080,note_on,160,0,6,,,,,,,,3,,,,69,92
250080,note_on,160,0,7,,,,,,,,4,,,,50,92
250080,note_on,160,0,5,,,,,,,,3,,,,78,92
250080,note_on,160,0,10,,,,,,,,5,,,,66,92
250080,note_on,160,0,14,,,,,,,,7,,,,57,92
250080,note_on,160,0,13,,,,,,,,7,,,,62,92
250080,note_on,160,0,9,,,,,,,,5,,,,69,92
250080,note_on,160,0,22,,,,,,,,15,,,,38,92
250080,note_on,160,0,15,,,,,,,,7,,,,50,92
250080,note_on,160,0,4,,,,,,,,2,,,,78,92
250160,note_off,80,0,22,,,,,,,,15,,,,38,64
250160,note_off,80,0,17,,,,,,,,10,,,,50,64
250160,note_off,80,0,10,,,,,,,,5,,,,66,64
250160,note_off,80,0,7,,,,,,,,4,,,,50,64
250160,note_off,80,0,18,,,,,,,,11,,,,81,64
250160,note_off,80,0,2,,,,,,,,0,,,,78,64
250160,note_off,80,0,6,,,,,,,,3,,,,69,64
250160,note_off,80,0,14,,,,,,,,7,,,,57,64
250160,note_off,80,0,13,,,,,,,,7,,,,62,64
250160,note_off,80,0,12,,,,,,,,6,,,,69,64
250160,note_off,80,0,4,,,,,,,,2,,,,78,64
250160,note_off,80,0,20,,,,,,,,13,,,,69,64
250160,note_off,80,0,21,,,,,,,,14,,,,50,64
250160,note_off,80,0,15,,,,,,,,7,,,,50,64
250160,note_off,80,0,8,,,,,,,,4,,,,38,64
250160,note_off,80,0,1,,,,,,,,0,,,,81,64
250160,note_off,80,0,9,,,,,,,,5,,,,69,64
250160,note_off,80,0,3,,,,,,,,2,,,,81,64
250160,note_off,80,0,16,,,,,,,,8,,,,38,64
250160,note_off,80,0,5,,,,,,,,3,,,,78,64
250160,note_off,80,0,11,,,,,,,,6,,,,74,64
250160,note_off,80,0,19,,,,,,,,12,,,,78,64
250320,note_on,160,0,15,,,,,,,,7,,,,50,92
250320,note_on,160,0,2,,,,,,,,0,,,,69,92
250320,note_on,160,0,16,,,,,,,,8,,,,38,92
250320,note_on,160,0,7,,,,,,,,4,,,,62,92
250320,note_on,160,0,5,,,,,,,,3,,,,69,92
250320,note_on,160,0,20,,,,,,,,13,,,,62,92
250320,note_on,160,0,13,,,,,,,,7,,,,66,92
250320,note_on,160,0,6,,,,,,,,3,,,,62,92
250320,note_on,160,0,1,,,,,,,,0,,,,74,92
250320,note_on,160,0,4,,,,,,,,2,,,,69,92
250320,note_on,160,0,8,,,,,,,,4,,,,38,92
250320,note_on,160,0,12,,,,,,,,6,,,,78,92
250320,note_on,160,0,17,,,,,,,,10,,,,50,92
250320,note_on,160,0,3,,,,,,,,2,,,,74,92
250320,note_on,160,0,18,,,,,,,,11,,,,74,108
250320,note_on,160,0,11,,,,,,,,6,,,,81,92
250320,note_on,160,0,21,,,,,,,,14,,,,62,92
250320,note_on,160,0,9,,,,,,,,5,,,,62,92
250320,note_on,160,0,10,,,,,,,,5,,,,57,92
250320,note_on,160,0,22,,,,,,,,15,,,,50,92
250320,note_on,160,0,14,,,,,,,,7,,,,62,92
250320,note_on,160,0,19,,,,,,,,12,,,,69,92
250400,note_off,80,0,13,,,,,,,,7,,,,66,64
250400,note_off,80,0,15,,,,,,,,7,,,,50,64
250400,note_off,80,0,4,,,,,,,,2,,,,69,64
250400,note_off,80,0,16,,,,,,,,8,,,,38,64
250400,note_off,80,0,20,,,,,,,,13,,,,62,64
250400,note_off,80,0,7,,,,,,,,4,,,,62,64
250400,note_off,80,0,5,,,,,,,,3,,,,69,64
250400,note_off,80,0,1,,,,,,,,0,,,,74,64
250400,note_off,80,0,22,,,,,,,,15,,,,50,64
250400,note_off,80,0,6,,,,,,,,3,,,,62,64
250400,note_off,80,0,12,,,,,,,,6,,,,78,64
250400,note_off,80,0,19,,,,,,,,12,,,,69,64
250400,note_off,80,0,3,,,,,,,,2,,,,74,64
250400,note_off,80,0,14,,,,,,,,7,,,,62,64
250400,note_off,80,0,8,,,,,,,,4,,,,38,64
250400,note_off,80,0,18,,,,,,,,11,,,,74,64
250400,note_off,80,0,9,,,,,,,,5,,,,62,64
250400,note_off,80,0,11,,,,,,,,6,,,,81,64
250400,note_off,80,0,10,,,,,,,,5,,,,57,64
250400,note_off,80,0,17,,,,,,,,10,,,,50,64
250400,note_off,80,0,2,,,,,,,,0,,,,69,64
250400,note_off,80,0,21,,,,,,,,14,,,,62,64
250440,note_on,40,0,17,,,,,,,,10,,,,50,92
250440,note_on,40,0,16,,,,,,,,8,,,,38,92
250440,note_on,40,0,8,,,,,,,,4,,,,38,92
250440,note_on,40,0,15,,,,,,,,7,,,,50,92
250520,note_off,80,0,17,,,,,,,,10,,,,50,64
250520,note_off,80,0,16,,,,,,,,8,,,,38,64
250520,note_off,80,0,8,,,,,,,,4,,,,38,64
250520,note_off,80,0,15,,,,,,,,7,,,,50,64
250560,note_on,160,0,11,,,,,,,,6,,,,81,92
250560,note_on,160,0,20,,,,,,,,13,,,,62,92
250560,note_on,160,0,1,,,,,,,,0,,,,74,92
250560,note_on,160,0,22,,,,,,,,15,,,,50,92
250560,note_on,40,0,15,,,,,,,,7,,,,50,92
250560,note_on,40,0,8,,,,,,,,4,,,,38,92
250560,note_on,160,0,7,,,,,,,,4,,,,62,92
250560,note_on,160,0,21,,,,,,,,14,,,,62,92
250560,note_on,160,0,19,,,,,,,,12,,,,69,92
250560,note_on,40,0,17,,,,,,,,10,,,,50,92
250560,note_on,160,0,2,,,,,,,,0,,,,69,92
250560,note_on,160,0,10,,,,,,,,5,,,,57,92
250560,note_on,160,0,9,,,,,,,,5,,,,62,92
250560,note_on,160,0,13,,,,,,,,7,,,,66,92
250560,note_on,160,0,6,,,,,,,,3,,,,62,92
250560,note_on,40,0,16,,,,,,,,8,,,,38,92
250560,note_on,160,0,12,,,,,,,,6,,,,78,92
250560,note_on,160,0,5,,,,,,,,3,,,,69,92
250560,note_on,160,0,14,,,,,,,,7,,,,62,92
250560,note_on,160,0,3,,,,,,,,2,,,,74,92
250560,note_on,160,0,4,,,,,,,,2,,,,69,92
250560,note_on,160,0,18,,,,,,,,11,,,,74,108
250640,note_off,80,0,3,,,,,,,,2,,,,74,64
250640,note_off,80,0,7,,,,,,,,4,,,,62,64
250640,note_off,80,0,17,,,,,,,,10,,,,50,64
250640,note_off,80,0,21,,,,,,,,14,,,,62,64
250640,note_off,80,0,19,,,,,,,,12,,,,69,64
250640,note_off,80,0,9,,,,,,,,5,,,,62,64
250640,note_off,80,0,4,,,,,,,,2,,,,69,64
250640,note_off,80,0,5,,,,,,,,3,,,,69,64
250640,note_off,80,0,8,,,,,,,,4,,,,38,64
250640,note_off,80,0,6,,,,,,,,3,,,,62,64
250640,note_off,80,0,12,,,,,,,,6,,,,78,64
250640,note_off,80,0,15,,,,,,,,7,,,,50,64
250640,note_off,80,0,18,,,,,,,,11,,,,74,64
250640,note_off,80,0,10,,,,,,,,5,,,,57,64
250640,note_off,80,0,16,,,,,,,,8,,,,38,64
250640,note_off,80,0,22,,,,,,,,15,,,,50,64
250640,note_off,80,0,20,,,,,,,,13,,,,62,64
250640,note_off,80,0,11,,,,,,,,6,,,,81,64
250640,note_off,80,0,14,,,,,,,,7,,,,62,64
250640,note_off,80,0,1,,,,,,,,0,,,,74,64
250640,note_off,80,0,2,,,,,,,,0,,,,69,64
250640,note_off,80,0,13,,,,,,,,7,,,,66,64
250800,note_on,160,0,10,,,,,,,,5,,,,62,92
250800,note_on,160,0,1,,,,,,,,0,,,,78,92
250800,note_on,160,0,4,,,,,,,,2,,,,74,92
250800,note_on,160,0,21,,,,,,,,14,,,,50,92
250800,note_on,160,0,17,,,,,,,,10,,,,50,92
250800,note_on,160,0,15,,,,,,,,7,,,,50,92
250800,note_on,160,0,20,,,,,,,,13,,,,66,92
250800,note_on,160,0,6,,,,,,,,3,,,,66,92
250800,note_on,160,0,14,,,,,,,,7,,,,57,92
250800,note_on,160,0,22,,,,,,,,15,,,,38,92
250800,note_on,160,0,13,,,,,,,,7,,,,62,92
250800,note_on,160,0,18,,,,,,,,11,,,,78,108
250800,note_on,160,0,3,,,,,,,,2,,,,78,92
250800,note_on,160,0,5,,,,,,,,3,,,,74,92
250800,note_on,160,0,9,,,,,,,,5,,,,66,92
250800,note_on,160,0,8,,,,,,,,4,,,,38,92
250800,note_on,160,0,16,,,,,,,,8,,,,38,92
250800,note_on,160,0,7,,,,,,,,4,,,,50,92
250800,note_on,160,0,11,,,,,,,,6,,,,78,92
250800,note_on,160,0,2,,,,,,,,0,,,,74,92
250800,note_on,160,0,12,,,,,,,,6,,,,74,92
250800,note_on,160,0,19,,,,,,,,12,,,,74,92
250880,note_off,80,0,10,,,,,,,,5,,,,62,64
250880,note_off,80,0,21,,,,,,,,14,,,,50,64
250880,note_off,80,0,2,,,,,,,,0,,,,74,64
250880,note_off,80,0,5,,,,,,,,3,,,,74,64
250880,note_off,80,0,17,,,,,,,,10,,,,50,64
250880,note_off,80,0,3,,,,,,,,2,,,,78,64
250880,note_off,80,0,14,,,,,,,,7,,,,57,64
250880,note_off,80,0,4,,,,,,,,2,,,,74,64
250880,note_off,80,0,15,,,,,,,,7,,,,50,64
250880,note_off,80,0,22,,,,,,,,15,,,,38,64
250880,note_off,80,0,6,,,,,,,,3,,,,66,64
250880,note_off,80,0,18,,,,,,,,11,,,,78,64
250880,note_off,80,0,19,,,,,,,,12,,,,74,64
250880,note_off,80,0,20,,,,,,,,13,,,,66,64
250880,note_off,80,0,9,,,,,,,,5,,,,66,64
250880,note_off,80,0,7,,,,,,,,4,,,,50,64
250880,note_off,80,0,16,,,,,,,,8,,,,38,64
250880,note_off,80,0,1,,,,,,,,0,,,,78,64
250880,note_off,80,0,12,,,,,,,,6,,,,74,64
250880,note_off,80,0,13,,,,,,,,7,,,,62,64
250880,note_off,80,0,11,,,,,,,,6,,,,78,64
250880,note_off,80,0,8,,,,,,,,4,,,,38,64
251040,note_on,160,0,1,,,,,,,,0,,,,78,92
251040,note_on,160,0,13,,,,,,,,7,,,,62,92
251040,note_on,160,0,7,,,,,,,,4,,,,50,92
251040,note_on,160,0,2,,,,,,,,0,,,,74,92
251040,note_on,160,0,11,,,,,,,,6,,,,78,92
251040,note_on,160,0,3,,,,,,,,2,,,,78,92
251040,note_on,160,0,17,,,,,,,,10,,,,50,92
251040,note_on,160,0,12,,,,,,,,6,,,,74,92
251040,note_on,160,0,22,,,,,,,,15,,,,38,92
251040,note_on,160,0,15,,,,,,,,7,,,,50,92
251040,note_on,160,0,18,,,,,,,,11,,,,78,108
251040,note_on,160,0,8,,,,,,,,4,,,,38,92
251040,note_on,160,0,21,,,,,,,,14,,,,50,92
251040,note_on,160,0,14,,,,,,,,7,,,,57,92
251040,note_on,160,0,19,,,,,,,,12,,,,74,92
251040,note_on,160,0,6,,,,,,,,3,,,,66,92
251040,note_on,160,0,5,,,,,,,,3,,,,74,92
251040,note_on,160,0,20,,,,,,,,13,,,,66,92
251040,note_on,160,0,9,,,,,,,,5,,,,66,92
251040,note_on,160,0,4,,,,,,,,2,,,,74,92
251040,note_on,160,0,16,,,,,,,,8,,,,38,92
251040,note_on,160,0,10,,,,,,,,5,,,,62,92
251120,note_off,80,0,1,,,,,,,,0,,,,78,64
251120,note_off,80,0,3,,,,,,,,2,,,,78,64
251120,note_off,80,0,12,,,,,,,,6,,,,74,64
251120,note_off,80,0,7,,,,,,,,4,,,,50,64
251120,note_off,80,0,9,,,,,,,,5,,,,66,64
251120,note_off,80,0,15,,,,,,,,7,,,,50,64
251120,note_off,80,0,18,,,,,,,,11,,,,78,64
251120,note_off,80,0,8,,,,,,,,4,,,,38,64
251120,note_off,80,0,17,,,,,,,,10,,,,50,64
251120,note_off,80,0,22,,,,,,,,15,,,,38,64
251120,note_off,80,0,19,,,,,,,,12,,,,74,64
251120,note_off,80,0,16,,,,,,,,8,,,,38,64
251120,note_off,80,0,11,,,,,,,,6,,,,78,64
251120,note_off,80,0,6,,,,,,,,3,,,,66,64
251120,note_off,80,0,2,,,,,,,,0,,,,74,64
251120,note_off,80,0,4,,,,,,,,2,,,,74,64
251120,note_off,80,0,20,,,,,,,,13,,,,66,64
251120,note_off,80,0,10,,,,,,,,5,,,,62,64
251120,note_off,80,0,21,,,,,,,,14,,,,50,64
251120,note_off,80,0,14,,,,,,,,7,,,,57,64
251120,note_off,80,0,13,,,,,,,,7,,,,62,64
251120,note_off,80,0,5,,,,,,,,3,,,,74,64
251280,note_on,160,0,17,,,,,,,,10,,,,50,92
251280,note_on,160,0,3,,,,,,,,2,,,,81,92
251280,note_on,160,0,2,,,,,,,,0,,,,78,92
251280,note_on,160,0,1,,,,,,,,0,,,,81,92
251280,note_on,160,0,19,,,,,,,,12,,,,78,92
251280,note_on,160,0,21,,,,,,,,14,,,,62,92
251280,note_on,160,0,16,,,,,,,,8,,,,38,92
251280,note_on,160,0,11,,,,,,,,6,,,,74,92
251280,note_on,160,0,5,,,,,,,,3,,,,78,92
251280,note_on,160,0,10,,,,,,,,5,,,,66,92
251280,note_on,160,0,18,,,,,,,,11,,,,81,108
251280,note_on,160,0,20,,,,,,,,13,,,,69,92
251280,note_on,160,0,8,,,,,,,,4,,,,38,92
251280,note_on,160,0,12,,,,,,,,6,,,,69,92
251280,note_on,160,0,22,,,,,,,,15,,,,50,92
251280,note_on,160,0,4,,,,,,,,2,,,,78,92
251280,note_on,160,0,6,,,,,,,,3,,,,69,92
251280,note_on,160,0,7,,,,,,,,4,,,,62,92
251280,note_on,160,0,15,,,,,,,,7,,,,50,92
251280,note_on,160,0,13,,,,,,,,7,,,,57,92
251280,note_on,160,0,14,,,,,,,,7,,,,54,92
251280,note_on,160,0,9,,,,,,,,5,,,,69,92
251360,note_off,80,0,20,,,,,,,,13,,,,69,64
251360,note_off,80,0,17,,,,,,,,10,,,,50,64
251360,note_off,80,0,8,,,,,,,,4,,,,38,64
251360,note_off,80,0,11,,,,,,,,6,,,,74,64
251360,note_off,80,0,10,,,,,,,,5,,,,66,64
251360,note_off,80,0,7,,,,,,,,4,,,,62,64
251360,note_off,80,0,5,,,,,,,,3,,,,78,64
251360,note_off,80,0,21,,,,,,,,14,,,,62,64
251360,note_off,80,0,14,,,,,,,,7,,,,54,64
251360,note_off,80,0,4,,,,,,,,2,,,,78,64
251360,note_off,80,0,12,,,,,,,,6,,,,69,64
251360,note_off,80,0,2,,,,,,,,0,,,,78,64
251360,note_off,80,0,16,,,,,,,,8,,,,38,64
251360,note_off,80,0,15,,,,,,,,7,,,,50,64
251360,note_off,80,0,19,,,,,,,,12,,,,78,64
251360,note_off,80,0,6,,,,,,,,3,,,,69,64
251360,note_off,80,0,18,,,,,,,,11,,,,81,64
251360,note_off,80,0,9,,,,,,,,5,,,,69,64
251360,note_off,80,0,3,,,,,,,,2,,,,81,64
251360,note_off,80,0,1,,,,,,,,0,,,,81,64
251360,note_off,80,0,22,,,,,,,,15,,,,50,64
251360,note_off,80,0,13,,,,,,,,7,,,,57,64
251520,note_on,160,0,15,,,,,,,,7,,,,50,92
251520,note_on,160,0,21,,,,,,,,14,,,,62,92
251520,note_on,160,0,17,,,,,,,,10,,,,50,92
251520,note_on,160,0,18,,,,,,,,11,,,,81,108
251520,note_on,160,0,14,,,,,,,,7,,,,54,92
251520,note_on,160,0,20,,,,,,,,13,,,,69,92
251520,note_on,160,0,16,,,,,,,,8,,,,38,92
251520,note_on,160,0,6,,,,,,,,3,,,,69,92
251520,note_on,160,0,9,,,,,,,,5,,,,69,92
251520,note_on,160,0,5,,,,,,,,3,,,,78,92
251520,note_on,160,0,10,,,,,,,,5,,,,66,92
251520,note_on,160,0,4,,,,,,,,2,,,,78,92
251520,note_on,160,0,13,,,,,,,,7,,,,57,92
251520,note_on,160,0,12,,,,,,,,6,,,,69,92
251520,note_on,160,0,2,,,,,,,,0,,,,78,92
251520,note_on,160,0,19,,,,,,,,12,,,,78,92
251520,note_on,160,0,22,,,,,,,,15,,,,50,92
251520,note_on,160,0,7,,,,,,,,4,,,,62,92
251520,note_on,160,0,1,,,,,,,,0,,,,81,92
251520,note_on,160,0,11,,,,,,,,6,,,,74,92
251520,note_on,160,0,8,,,,,,,,4,,,,38,92
251520,note_on,160,0,3,,,,,,,,2,,,,81,92
251600,note_off,80,0,22,,,,,,,,15,,,,50,64
251600,note_off,80,0,14,,,,,,,,7,,,,54,64
251600,note_off,80,0,6,,,,,,,,3,,,,69,64
251600,note_off,80,0,4,,,,,,,,2,,,,78,64
251600,note_off,80,0,7,,,,,,,,4,,,,62,64
251600,note_off,80,0,3,,,,,,,,2,,,,81,64
251600,note_off,80,0,20,,,,,,,,13,,,,69,64
251600,note_off,80,0,2,,,,,,,,0,,,,78,64
251600,note_off,80,0,17,,,,,,,,10,,,,50,64
251600,note_off,80,0,15,,,,,,,,7,,,,50,64
251600,note_off,80,0,5,,,,,,,,3,,,,78,64
251600,note_off,80,0,21,,,,,,,,14,,,,62,64
251600,note_off,80,0,1,,,,,,,,0,,,,81,64
251600,note_off,80,0,18,,,,,,,,11,,,,81,64
251600,note_off,80,0,10,,,,,,,,5,,,,66,64
251600,note_off,80,0,16,,,,,,,,8,,,,38,64
251600,note_off,80,0,19,,,,,,,,12,,,,78,64
251600,note_off,80,0,13,,,,,,,,7,,,,57,64
251600,note_off,80,0,12,,,,,,,,6,,,,69,64
251600,note_off,80,0,8,,,,,,,,4,,,,38,64
251600,note_off,80,0,11,,,,,,,,6,,,,74,64
251600,note_off,80,0,9,,,,,,,,5,,,,69,64
251760,note_on,160,0,1,,,,,,,,0,,,,78,92
251760,note_on,160,0,7,,,,,,,,4,,,,50,92
251760,note_on,160,0,6,,,,,,,,3,,,,66,92
251760,note_on,160,0,5,,,,,,,,3,,,,74,92
251760,note_on,160,0,22,,,,,,,,15,,,,38,92
251760,note_on,160,0,18,,,,,,,,11,,,,78,108
251760,note_on,160,0,15,,,,,,,,7,,,,50,92
251760,note_on,160,0,3,,,,,,,,2,,,,78,92
251760,note_on,160,0,14,,,,,,,,7,,,,62,92
251760,note_on,160,0,8,,,,,,,,4,,,,38,92
251760,note_on,160,0,19,,,,,,,,12,,,,74,92
251760,note_on,160,0,21,,,,,,,,14,,,,50,92
251760,note_on,160,0,4,,,,,,,,2,,,,74,92
251760,note_on,160,0,10,,,,,,,,5,,,,62,92
251760,note_on,160,0,12,,,,,,,,6,,,,66,92
251760,note_on,160,0,9,,,,,,,,5,,,,66,92
251760,note_on,160,0,11,,,,,,,,6,,,,69,92
251760,note_on,160,0,16,,,,,,,,8,,,,38,92
251760,note_on,160,0,2,,,,,,,,0,,,,74,92
251760,note_on,160,0,13,,,,,,,,7,,,,54,92
251760,note_on,160,0,17,,,,,,,,10,,,,50,92
251760,note_on,160,0,20,,,,,,,,13,,,,66,92
251840,note_off,80,0,12,,,,,,,,6,,,,66,64
251840,note_off,80,0,3,,,,,,,,2,,,,78,64
251840,note_off,80,0,16,,,,,,,,8,,,,38,64
251840,note_off,80,0,14,,,,,,,,7,,,,62,64
251840,note_off,80,0,20,,,,,,,,13,,,,66,64
251840,note_off,80,0,11,,,,,,,,6,,,,69,64
251840,note_off,80,0,9,,,,,,,,5,,,,66,64
251840,note_off,80,0,4,,,,,,,,2,,,,74,64
251840,note_off,80,0,10,,,,,,,,5,,,,62,64
251840,note_off,80,0,5,,,,,,,,3,,,,74,64
251840,note_off,80,0,6,,,,,,,,3,,,,66,64
251840,note_off,80,0,18,,,,,,,,11,,,,78,64
251840,note_off,80,0,15,,,,,,,,7,,,,50,64
251840,note_off,80,0,19,,,,,,,,12,,,,74,64
251840,note_off,80,0,13,,,,,,,,7,,,,54,64
251840,note_off,80,0,1,,,,,,,,0,,,,78,64
251840,note_off,80,0,8,,,,,,,,4,,,,38,64
251840,note_off,80,0,7,,,,,,,,4,,,,50,64
251840,note_off,80,0,21,,,,,,,,14,,,,50,64
251840,note_off,80,0,2,,,,,,,,0,,,,74,64
251840,note_off,80,0,22,,,,,,,,15,,,,38,64
251840,note_off,80,0,17,,,,,,,,10,,,,50,64
251880,note_on,40,0,16,,,,,,,,8,,,,38,92
251880,note_on,40,0,8,,,,,,,,4,,,,38,92
251880,note_on,40,0,15,,,,,,,,7,,,,50,92
251880,note_on,40,0,17,,,,,,,,10,,,,50,92
251960,note_off,80,0,15,,,,,,,,7,,,,50,64
251960,note_off,80,0,16,,,,,,,,8,,,,38,64
251960,note_off,80,0,17,,,,,,,,10,,,,50,64
251960,note_off,80,0,8,,,,,,,,4,,,,38,64
252000,note_on,160,0,2,,,,,,,,0,,,,74,92
252000,note_on,160,0,19,,,,,,,,12,,,,74,92
252000,note_on,160,0,9,,,,,,,,5,,,,66,92
252000,note_on,160,0,4,,,,,,,,2,,,,74,92
252000,note_on,40,0,8,,,,,,,,4,,,,38,92
252000,note_on,160,0,12,,,,,,,,6,,,,66,92
252000,note_on,160,0,11,,,,,,,,6,,,,69,92
252000,note_on,40,0,17,,,,,,,,10,,,,50,92
252000,note_on,160,0,20,,,,,,,,13,,,,66,92
252000,note_on,160,0,14,,,,,,,,7,,,,62,92
252000,note_on,160,0,3,,,,,,,,2,,,,78,92
252000,note_on,160,0,7,,,,,,,,4,,,,50,92
252000,note_on,160,0,13,,,,,,,,7,,,,54,92
252000,note_on,160,0,21,,,,,,,,14,,,,50,92
252000,note_on,160,0,6,,,,,,,,3,,,,66,92
252000,note_on,160,0,22,,,,,,,,15,,,,38,92
252000,note_on,160,0,5,,,,,,,,3,,,,74,92
252000,note_on,40,0,15,,,,,,,,7,,,,50,92
252000,note_on,160,0,10,,,,,,,,5,,,,62,92
252000,note_on,40,0,16,,,,,,,,8,,,,38,92
252000,note_on,160,0,18,,,,,,,,11,,,,78,108
252000,note_on,160,0,1,,,,,,,,0,,,,78,92
252080,note_off,80,0,16,,,,,,,,8,,,,38,64
252080,note_off,80,0,8,,,,,,,,4,,,,38,64
252080,note_off,80,0,13,,,,,,,,7,,,,54,64
252080,note_off,80,0,12,,,,,,,,6,,,,66,64
252080,note_off,80,0,20,,,,,,,,13,,,,66,64
252080,note_off,80,0,19,,,,,,,,12,,,,74,64
252080,note_off,80,0,11,,,,,,,,6,,,,69,64
252080,note_off,80,0,17,,,,,,,,10,,,,50,64
252080,note_off,80,0,2,,,,,,,,0,,,,74,64
252080,note_off,80,0,9,,,,,,,,5,,,,66,64
252080,note_off,80,0,4,,,,,,,,2,,,,74,64
252080,note_off,80,0,10,,,,,,,,5,,,,62,64
252080,note_off,80,0,14,,,,,,,,7,,,,62,64
252080,note_off,80,0,7,,,,,,,,4,,,,50,64
252080,note_off,80,0,22,,,,,,,,15,,,,38,64
252080,note_off,80,0,5,,,,,,,,3,,,,74,64
252080,note_off,80,0,15,,,,,,,,7,,,,50,64
252080,note_off,80,0,18,,,,,,,,11,,,,78,64
252080,note_off,80,0,1,,,,,,,,0,,,,78,64
252080,note_off,80,0,21,,,,,,,,14,,,,50,64
252080,note_off,80,0,3,,,,,,,,2,,,,78,64
252080,note_off,80,0,6,,,,,,,,3,,,,66,64
252120,note_on,40,0,16,,,,,,,,8,,,,38,92
252120,note_on,40,0,17,,,,,,,,10,,,,50,92
252120,note_on,40,0,8,,,,,,,,4,,,,38,92
252120,note_on,40,0,15,,,,,,,,7,,,,50,92
252200,note_off,80,0,15,,,,,,,,7,,,,50,64
252200,note_off,80,0,8,,,,,,,,4,,,,38,64
252200,note_off,80,0,16,,,,,,,,8,,,,38,64
252200,note_off,80,0,17,,,,,,,,10,,,,50,64
252240,note_on,160,0,4,,,,,,,,2,,,,78,92
252240,note_on,40,0,8,,,,,,,,4,,,,38,92
252240,note_on,160,0,13,,,,,,,,7,,,,50,92
252240,note_on,160,0,20,,,,,,,,13,,,,69,92
252240,note_on,40,0,17,,,,,,,,10,,,,50,92
252240,note_on,160,0,6,,,,,,,,3,,,,69,92
252240,note_on,160,0,19,,,,,,,,12,,,,78,92
252240,note_on,160,0,22,,,,,,,,15,,,,50,92
252240,note_on,160,0,7,,,,,,,,4,,,,62,92
252240,note_on,160,0,14,,,,,,,,7,,,,57,92
252240,note_on,160,0,21,,,,,,,,14,,,,62,92
252240,note_on,160,0,1,,,,,,,,0,,,,81,92
252240,note_on,160,0,18,,,,,,,,11,,,,81,108
252240,note_on,40,0,16,,,,,,,,8,,,,38,92
252240,note_on,160,0,12,,,,,,,,6,,,,62,92
252240,note_on,160,0,11,,,,,,,,6,,,,66,92
252240,note_on,160,0,9,,,,,,,,5,,,,69,92
252240,note_on,160,0,5,,,,,,,,3,,,,78,92
252240,note_on,160,0,10,,,,,,,,5,,,,66,92
252240,note_on,40,0,15,,,,,,,,7,,,,50,92
252240,note_on,160,0,3,,,,,,,,2,,,,81,92
252240,note_on,160,0,2,,,,,,,,0,,,,78,92
252320,note_off,80,0,13,,,,,,,,7,,,,50,64
252320,note_off,80,0,21,,,,,,,,14,,,,62,64
252320,note_off,80,0,9,,,,,,,,5,,,,69,64
252320,note_off,80,0,15,,,,,,,,7,,,,50,64
252320,note_off,80,0,11,,,,,,,,6,,,,66,64
252320,note_off,80,0,5,,,,,,,,3,,,,78,64
252320,note_off,80,0,17,,,,,,,,10,,,,50,64
252320,note_off,80,0,18,,,,,,,,11,,,,81,64
252320,note_off,80,0,16,,,,,,,,8,,,,38,64
252320,note_off,80,0,22,,,,,,,,15,,,,50,64
252320,note_off,80,0,7,,,,,,,,4,,,,62,64
252320,note_off,80,0,1,,,,,,,,0,,,,81,64
252320,note_off,80,0,10,,,,,,,,5,,,,66,64
252320,note_off,80,0,8,,,,,,,,4,,,,38,64
252320,note_off,80,0,2,,,,,,,,0,,,,78,64
252320,note_off,80,0,3,,,,,,,,2,,,,81,64
252320,note_off,80,0,4,,,,,,,,2,,,,78,64
252320,note_off,80,0,14,,,,,,,,7,,,,57,64
252320,note_off,80,0,6,,,,,,,,3,,,,69,64
252320,note_off,80,0,12,,,,,,,,6,,,,62,64
252320,note_off,80,0,20,,,,,,,,13,,,,69,64
252320,note_off,80,0,19,,,,,,,,12,,,,78,64
252360,note_on,40,0,8,,,,,,,,4,,,,38,92
252360,note_on,40,0,16,,,,,,,,8,,,,38,92
252360,note_on,40,0,17,,,,,,,,10,,,,50,92
252360,note_on,40,0,15,,,,,,,,7,,,,50,92
252440,note_off,80,0,16,,,,,,,,8,,,,38,64
252440,note_off,80,0,15,,,,,,,,7,,,,50,64
252440,note_off,80,0,8,,,,,,,,4,,,,38,64
252440,note_off,80,0,17,,,,,,,,10,,,,50,64
252480,note_on,160,0,3,,,,,,,,2,,,,81,92
252480,note_on,40,0,15,,,,,,,,7,,,,50,92
252480,note_on,160,0,11,,,,,,,,6,,,,66,92
252480,note_on,160,0,13,,,,,,,,7,,,,50,92
252480,note_on,160,0,4,,,,,,,,2,,,,78,92
252480,note_on,160,0,6,,,,,,,,3,,,,69,92
252480,note_on,40,0,8,,,,,,,,4,,,,38,92
252480,note_on,160,0,9,,,,,,,,5,,,,69,92
252480,note_on,160,0,18,,,,,,,,11,,,,81,108
252480,note_on,160,0,1,,,,,,,,0,,,,81,92
252480,note_on,160,0,12,,,,,,,,6,,,,62,92
252480,note_on,40,0,16,,,,,,,,8,,,,38,92
252480,note_on,160,0,21,,,,,,,,14,,,,62,92
252480,note_on,160,0,22,,,,,,,,15,,,,50,92
252480,note_on,160,0,2,,,,,,,,0,,,,78,92
252480,note_on,160,0,19,,,,,,,,12,,,,78,92
252480,note_on,160,0,7,,,,,,,,4,,,,62,92
252480,note_on,160,0,14,,,,,,,,7,,,,57,92
252480,note_on,160,0,10,,,,,,,,5,,,,66,92
252480,note_on,40,0,17,,,,,,,,10,,,,50,92
252480,note_on,160,0,5,,,,,,,,3,,,,78,92
252480,note_on,160,0,20,,,,,,,,13,,,,69,92
252560,note_off,80,0,4,,,,,,,,2,,,,78,64
252560,note_off,80,0,5,,,,,,,,3,,,,78,64
252560,note_off,80,0,10,,,,,,,,5,,,,66,64
252560,note_off,80,0,14,,,,,,,,7,,,,57,64
252560,note_off,80,0,9,,,,,,,,5,,,,69,64
252560,note_off,80,0,21,,,,,,,,14,,,,62,64
252560,note_off,80,0,1,,,,,,,,0,,,,81,64
252560,note_off,80,0,15,,,,,,,,7,,,,50,64
252560,note_off,80,0,3,,,,,,,,2,,,,81,64
252560,note_off,80,0,13,,,,,,,,7,,,,50,64
252560,note_off,80,0,12,,,,,,,,6,,,,62,64
252560,note_off,80,0,2,,,,,,,,0,,,,78,64
252560,note_off,80,0,17,,,,,,,,10,,,,50,64
252560,note_off,80,0,7,,,,,,,,4,,,,62,64
252560,note_off,80,0,20,,,,,,,,13,,,,69,64
252560,note_off,80,0,19,,,,,,,,12,,,,78,64
252560,note_off,80,0,22,,,,,,,,15,,,,50,64
252560,note_off,80,0,16,,,,,,,,8,,,,38,64
252560,note_off,80,0,6,,,,,,,,3,,,,69,64
252560,note_off,80,0,8,,,,,,,,4,,,,38,64
252560,note_off,80,0,11,,,,,,,,6,,,,66,64
252560,note_off,80,0,18,,,,,,,,11,,,,81,64
252600,note_on,40,0,17,,,,,,,,10,,,,50,92
252600,note_on,40,0,8,,,,,,,,4,,,,38,92
252600,note_on,40,0,16,,,,,,,,8,,,,38,92
252600,note_on,40,0,15,,,,,,,,7,,,,50,92
252680,note_off,80,0,16,,,,,,,,8,,,,38,64
252680,note_off,80,0,15,,,,,,,,7,,,,50,64
252680,note_off,80,0,17,,,,,,,,10,,,,50,64
252680,note_off,80,0,8,,,,,,,,4,,,,38,64
252720,note_on,160,0,10,,,,,,,,5,,,,69,92
252720,note_on,160,0,12,,,,,,,,6,,,,57,92
252720,note_on,40,0,16,,,,,,,,8,,,,38,92
252720,note_on,160,0,2,,,,,,,,0,,,,81,92
252720,note_on,160,0,9,,,,,,,,5,,,,74,92
252720,note_on,160,0,11,,,,,,,,6,,,,62,92
252720,note_on,160,0,5,,,,,,,,3,,,,81,92
252720,note_on,160,0,13,,,,,,,,7,,,,45,92
252720,note_on,160,0,7,,,,,,,,4,,,,50,92
252720,note_on,40,0,17,,,,,,,,10,,,,50,92
252720,note_on,40,0,8,,,,,,,,4,,,,38,92
252720,note_on,40,0,15,,,,,,,,7,,,,50,92
252720,note_on,160,0,4,,,,,,,,2,,,,81,92
252720,note_on,160,0,3,,,,,,,,2,,,,86,92
252720,note_on,160,0,19,,,,,,,,12,,,,81,92
252720,note_on,160,0,18,,,,,,,,11,,,,86,108
252720,note_on,160,0,1,,,,,,,,0,,,,86,92
252720,note_on,160,0,21,,,,,,,,14,,,,50,92
252720,note_on,160,0,22,,,,,,,,15,,,,38,92
252720,note_on,160,0,14,,,,,,,,7,,,,54,92
252720,note_on,160,0,6,,,,,,,,3,,,,74,92
252720,note_on,160,0,20,,,,,,,,13,,,,74,92
252800,note_off,80,0,12,,,,,,,,6,,,,57,64
252800,note_off,80,0,18,,,,,,,,11,,,,86,64
252800,note_off,80,0,19,,,,,,,,12,,,,81,64
252800,note_off,80,0,4,,,,,,,,2,,,,81,64
252800,note_off,80,0,11,,,,,,,,6,,,,62,64
252800,note_off,80,0,22,,,,,,,,15,,,,38,64
252800,note_off,80,0,7,,,,,,,,4,,,,50,64
252800,note_off,80,0,8,,,,,,,,4,,,,38,64
252800,note_off,80,0,14,,,,,,,,7,,,,54,64
252800,note_off,80,0,5,,,,,,,,3,,,,81,64
252800,note_off,80,0,6,,,,,,,,3,,,,74,64
252800,note_off,80,0,17,,,,,,,,10,,,,50,64
252800,note_off,80,0,16,,,,,,,,8,,,,38,64
252800,note_off,80,0,3,,,,,,,,2,,,,86,64
252800,note_off,80,0,1,,,,,,,,0,,,,86,64
252800,note_off,80,0,20,,,,,,,,13,,,,74,64
252800,note_off,80,0,21,,,,,,,,14,,,,50,64
252800,note_off,80,0,15,,,,,,,,7,,,,50,64
252800,note_off,80,0,10,,,,,,,,5,,,,69,64
252800,note_off,80,0,9,,,,,,,,5,,,,74,64
252800,note_off,80,0,2,,,,,,,,0,,,,81,64
252800,note_off,80,0,13,,,,,,,,7,,,,45,64
252840,note_on,40,0,17,,,,,,,,10,,,,50,92
252840,note_on,40,0,15,,,,,,,,7,,,,50,92
252840,note_on,40,0,16,,,,,,,,8,,,,38,92
252840,note_on,40,0,8,,,,,,,,4,,,,38,92
252920,note_off,80,0,15,,,,,,,,7,,,,50,64
252920,note_off,80,0,17,,,,,,,,10,,,,50,64
252920,note_off,80,0,8,,,,,,,,4,,,,38,64
252920,note_off,80,0,16,,,,,,,,8,,,,38,64
252960,note_on,40,0,8,,,,,,,,4,,,,38,92
252960,note_on,160,0,4,,,,,,,,2,,,,81,92
252960,note_on,160,0,1,,,,,,,,0,,,,86,92
252960,note_on,160,0,3,,,,,,,,2,,,,86,92
252960,note_on,160,0,10,,,,,,,,5,,,,69,92
252960,note_on,160,0,20,,,,,,,,13,,,,74,92
252960,note_on,160,0,12,,,,,,,,6,,,,57,92
252960,note_on,160,0,11,,,,,,,,6,,,,62,92
252960,note_on,160,0,21,,,,,,,,14,,,,62,92
252960,note_on,40,0,16,,,,,,,,8,,,,38,92
252960,note_on,40,0,17,,,,,,,,10,,,,50,92
252960,note_on,160,0,18,,,,,,,,11,,,,86,108
252960,note_on,160,0,22,,,,,,,,15,,,,50,92
252960,note_on,160,0,19,,,,,,,,12,,,,81,92
252960,note_on,160,0,5,,,,,,,,3,,,,81,92
252960,note_on,160,0,7,,,,,,,,4,,,,62,92
252960,note_on,160,0,13,,,,,,,,7,,,,45,92
252960,note_on,160,0,2,,,,,,,,0,,,,81,92
252960,note_on,40,0,15,,,,,,,,7,,,,50,92
252960,note_on,160,0,9,,,,,,,,5,,,,74,92
252960,note_on,160,0,14,,,,,,,,7,,,,54,92
252960,note_on,160,0,6,,,,,,,,3,,,,74,92
253040,note_off,80,0,1,,,,,,,,0,,,,86,64
253040,note_off,80,0,5,,,,,,,,3,,,,81,64
253040,note_off,80,0,10,,,,,,,,5,,,,69,64
253040,note_off,80,0,16,,,,,,,,8,,,,38,64
253040,note_off,80,0,19,,,,,,,,12,,,,81,64
253040,note_off,80,0,2,,,,,,,,0,,,,81,64
253040,note_off,80,0,21,,,,,,,,14,,,,62,64
253040,note_off,80,0,11,,,,,,,,6,,,,62,64
253040,note_off,80,0,7,,,,,,,,4,,,,62,64
253040,note_off,80,0,12,,,,,,,,6,,,,57,64
253040,note_off,80,0,9,,,,,,,,5,,,,74,64
253040,note_off,80,0,17,,,,,,,,10,,,,50,64
253040,note_off,80,0,6,,,,,,,,3,,,,74,64
253040,note_off,80,0,4,,,,,,,,2,,,,81,64
253040,note_off,80,0,15,,,,,,,,7,,,,50,64
253040,note_off,80,0,13,,,,,,,,7,,,,45,64
253040,note_off,80,0,3,,,,,,,,2,,,,86,64
253040,note_off,80,0,20,,,,,,,,13,,,,74,64
253040,note_off,80,0,8,,,,,,,,4,,,,38,64
253040,note_off,80,0,22,,,,,,,,15,,,,50,64
253040,note_off,80,0,14,,,,,,,,7,,,,54,64
253040,note_off,80,0,18,,,,,,,,11,,,,86,64
253200,note_on,160,0,9,,,,,,,,5,,,,69,92
253200,note_on,160,0,2,,,,,,,,0,,,,78,92
253200,note_on,160,0,13,,,,,,,,7,,,,50,92
253200,note_on,160,0,8,,,,,,,,4,,,,38,92
253200,note_on,160,0,12,,,,,,,,6,,,,62,92
253200,note_on,160,0,10,,,,,,,,5,,,,66,92
253200,note_on,160,0,21,,,,,,,,14,,,,61,92
253200,note_on,160,0,1,,,,,,,,0,,,,81,92
253200,note_on,160,0,4,,,,,,,,2,,,,78,92
253200,note_on,160,0,14,,,,,,,,7,,,,57,92
253200,note_on,160,0,15,,,,,,,,7,,,,50,92
253200,note_on,160,0,20,,,,,,,,13,,,,69,92
253200,note_on,160,0,19,,,,,,,,12,,,,78,92
253200,note_on,160,0,16,,,,,,,,8,,,,38,92
253200,note_on,160,0,7,,,,,,,,4,,,,61,92
253200,note_on,160,0,5,,,,,,,,3,,,,78,92
253200,note_on,160,0,22,,,,,,,,15,,,,49,92
253200,note_on,160,0,6,,,,,,,,3,,,,69,92
253200,note_on,160,0,11,,,,,,,,6,,,,66,92
253200,note_on,160,0,18,,,,,,,,11,,,,81,108
253200,note_on,160,0,17,,,,,,,,10,,,,50,92
253200,note_on,160,0,3,,,,,,,,2,,,,81,92
253280,note_off,80,0,19,,,,,,,,12,,,,78,64
253280,note_off,80,0,9,,,,,,,,5,,,,69,64
253280,note_off,80,0,16,,,,,,,,8,,,,38,64
253280,note_off,80,0,13,,,,,,,,7,,,,50,64
253280,note_off,80,0,20,,,,,,,,13,,,,69,64
253280,note_off,80,0,3,,,,,,,,2,,,,81,64
253280,note_off,80,0,5,,,,,,,,3,,,,78,64
253280,note_off,80,0,15,,,,,,,,7,,,,50,64
253280,note_off,80,0,14,,,,,,,,7,,,,57,64
253280,note_off,80,0,8,,,,,,,,4,,,,38,64
253280,note_off,80,0,2,,,,,,,,0,,,,78,64
253280,note_off,80,0,18,,,,,,,,11,,,,81,64
253280,note_off,80,0,6,,,,,,,,3,,,,69,64
253280,note_off,80,0,10,,,,,,,,5,,,,66,64
253280,note_off,80,0,4,,,,,,,,2,,,,78,64
253280,note_off,80,0,17,,,,,,,,10,,,,50,64
253280,note_off,80,0,7,,,,,,,,4,,,,61,64
253280,note_off,80,0,1,,,,,,,,0,,,,81,64
253280,note_off,80,0,22,,,,,,,,15,,,,49,64
253280,note_off,80,0,12,,,,,,,,6,,,,62,64
253280,note_off,80,0,21,,,,,,,,14,,,,61,64
253280,note_off,80,0,11,,,,,,,,6,,,,66,64
253320,note_on,40,0,17,,,,,,,,10,,,,50,92
253320,note_on,40,0,8,,,,,,,,4,,,,38,92
253320,note_on,40,0,21,,,,,,,,14,,,,59,92
253320,note_on,40,0,22,,,,,,,,15,,,,47,92
253320,note_on,40,0,15,,,,,,,,7,,,,50,92
253320,note_on,40,0,7,,,,,,,,4,,,,59,92
253320,note_on,40,0,16,,,,,,,,8,,,,38,92
253400,note_off,80,0,22,,,,,,,,15,,,,47,64
253400,note_off,80,0,21,,,,,,,,14,,,,59,64
253400,note_off,80,0,16,,,,,,,,8,,,,38,64
253400,note_off,80,0,8,,,,,,,,4,,,,38,64
253400,note_off,80,0,17,,,,,,,,10,,,,50,64
253400,note_off,80,0,15,,,,,,,,7,,,,50,64
253400,note_off,80,0,7,,,,,,,,4,,,,59,64
253440,note_on,160,0,5,,,,,,,,3,,,,78,92
253440,note_on,160,0,18,,,,,,,,11,,,,81,108
253440,note_on,160,0,11,,,,,,,,6,,,,66,92
253440,note_on,40,0,7,,,,,,,,4,,,,57,92
253440,note_on,40,0,17,,,,,,,,10,,,,50,92
253440,note_on,160,0,9,,,,,,,,5,,,,69,92
253440,note_on,160,0,2,,,,,,,,0,,,,78,92
253440,note_on,40,0,22,,,,,,,,15,,,,45,92
253440,note_on,160,0,10,,,,,,,,5,,,,66,92
253440,note_on,40,0,15,,,,,,,,7,,,,50,92
253440,note_on,40,0,8,,,,,,,,4,,,,38,92
253440,note_on,160,0,20,,,,,,,,13,,,,69,92
253440,note_on,160,0,12,,,,,,,,6,,,,62,92
253440,note_on,160,0,19,,,,,,,,12,,,,78,92
253440,note_on,160,0,14,,,,,,,,7,,,,57,92
253440,note_on,40,0,21,,,,,,,,14,,,,57,92
253440,note_on,160,0,13,,,,,,,,7,,,,50,92
253440,note_on,160,0,3,,,,,,,,2,,,,81,92
253440,note_on,40,0,16,,,,,,,,8,,,,38,92
253440,note_on,160,0,6,,,,,,,,3,,,,69,92
253440,note_on,160,0,4,,,,,,,,2,,,,78,92
253440,note_on,160,0,1,,,,,,,,0,,,,81,92
253520,note_off,80,0,12,,,,,,,,6,,,,62,64
253520,note_off,80,0,10,,,,,,,,5,,,,66,64
253520,note_off,80,0,21,,,,,,,,14,,,,57,64
253520,note_off,80,0,16,,,,,,,,8,,,,38,64
253520,note_off,80,0,17,,,,,,,,10,,,,50,64
253520,note_off,80,0,22,,,,,,,,15,,,,45,64
253520,note_off,80,0,6,,,,,,,,3,,,,69,64
253520,note_off,80,0,18,,,,,,,,11,,,,81,64
253520,note_off,80,0,15,,,,,,,,7,,,,50,64
253520,note_off,80,0,14,,,,,,,,7,,,,57,64
253520,note_off,80,0,19,,,,,,,,12,,,,78,64
253520,note_off,80,0,13,,,,,,,,7,,,,50,64
253520,note_off,80,0,3,,,,,,,,2,,,,81,64
253520,note_off,80,0,1,,,,,,,,0,,,,81,64
253520,note_off,80,0,8,,,,,,,,4,,,,38,64
253520,note_off,80,0,7,,,,,,,,4,,,,57,64
253520,note_off,80,0,4,,,,,,,,2,,,,78,64
253520,note_off,80,0,5,,,,,,,,3,,,,78,64
253520,note_off,80,0,9,,,,,,,,5,,,,69,64
253520,note_off,80,0,11,,,,,,,,6,,,,66,64
253520,note_off,80,0,20,,,,,,,,13,,,,69,64
253520,note_off,80,0,2,,,,,,,,0,,,,78,64
253560,note_on,40,0,15,,,,,,,,7,,,,50,92
253560,note_on,40,0,22,,,,,,,,15,,,,47,92
253560,note_on,40,0,8,,,,,,,,4,,,,38,92
253560,note_on,40,0,17,,,,,,,,10,,,,50,92
253560,note_on,40,0,16,,,,,,,,8,,,,38,92
253560,note_on,40,0,21,,,,,,,,14,,,,59,92
253560,note_on,40,0,7,,,,,,,,4,,,,59,92
253640,note_off,80,0,16,,,,,,,,8,,,,38,64
253640,note_off,80,0,15,,,,,,,,7,,,,50,64
253640,note_off,80,0,17,,,,,,,,10,,,,50,64
253640,note_off,80,0,8,,,,,,,,4,,,,38,64
253640,note_off,80,0,22,,,,,,,,15,,,,47,64
253640,note_off,80,0,7,,,,,,,,4,,,,59,64
253640,note_off,80,0,21,,,,,,,,14,,,,59,64
253680,note_on,160,0,12,,,,,,,,6,,,,66,92
253680,note_on,160,0,10,,,,,,,,5,,,,62,92
253680,note_on,160,0,20,,,,,,,,13,,,,66,92
253680,note_on,160,0,9,,,,,,,,5,,,,66,92
253680,note_on,40,0,21,,,,,,,,14,,,,57,92
253680,note_on,40,0,7,,,,,,,,4,,,,57,92
253680,note_on,40,0,16,,,,,,,,8,,,,38,92
253680,note_on,40,0,8,,,,,,,,4,,,,38,92
253680,note_on,160,0,3,,,,,,,,2,,,,78,92
253680,note_on,160,0,19,,,,,,,,12,,,,74,92
253680,note_on,160,0,14,,,,,,,,7,,,,62,92
253680,note_on,160,0,18,,,,,,,,11,,,,78,108
253680,note_on,40,0,17,,,,,,,,10,,,,50,92
253680,note_on,160,0,4,,,,,,,,2,,,,74,92
253680,note_on,40,0,15,,,,,,,,7,,,,50,92
253680,note_on,160,0,1,,,,,,,,0,,,,78,92
253680,note_on,160,0,11,,,,,,,,6,,,,69,92
253680,note_on,40,0,22,,,,,,,,15,,,,45,92
253680,note_on,160,0,13,,,,,,,,7,,,,54,92
253680,note_on,160,0,6,,,,,,,,3,,,,66,92
253680,note_on,160,0,5,,,,,,,,3,,,,74,92
253680,note_on,160,0,2,,,,,,,,0,,,,74,92
253760,note_off,80,0,13,,,,,,,,7,,,,54,64
253760,note_off,80,0,6,,,,,,,,3,,,,66,64
253760,note_off,80,0,2,,,,,,,,0,,,,74,64
253760,note_off,80,0,21,,,,,,,,14,,,,57,64
253760,note_off,80,0,22,,,,,,,,15,,,,45,64
253760,note_off,80,0,10,,,,,,,,5,,,,62,64
253760,note_off,80,0,17,,,,,,,,10,,,,50,64
253760,note_off,80,0,16,,,,,,,,8,,,,38,64
253760,note_off,80,0,3,,,,,,,,2,,,,78,64
253760,note_off,80,0,15,,,,,,,,7,,,,50,64
253760,note_off,80,0,18,,,,,,,,11,,,,78,64
253760,note_off,80,0,12,,,,,,,,6,,,,66,64
253760,note_off,80,0,4,,,,,,,,2,,,,74,64
253760,note_off,80,0,11,,,,,,,,6,,,,69,64
253760,note_off,80,0,5,,,,,,,,3,,,,74,64
253760,note_off,80,0,7,,,,,,,,4,,,,57,64
253760,note_off,80,0,19,,,,,,,,12,,,,74,64
253760,note_off,80,0,8,,,,,,,,4,,,,38,64
253760,note_off,80,0,1,,,,,,,,0,,,,78,64
253760,note_off,80,0,9,,,,,,,,5,,,,66,64
253760,note_off,80,0,20,,,,,,,,13,,,,66,64
253760,note_off,80,0,14,,,,,,,,7,,,,62,64
253800,note_on,40,0,15,,,,,,,,7,,,,50,92
253800,note_on,40,0,16,,,,,,,,8,,,,38,92
253800,note_on,40,0,21,,,,,,,,14,,,,55,92
253800,note_on,40,0,17,,,,,,,,10,,,,50,92
253800,note_on,40,0,8,,,,,,,,4,,,,38,92
253800,note_on,40,0,7,,,,,,,,4,,,,55,92
253800,note_on,40,0,22,,,,,,,,15,,,,43,92
253880,note_off,80,0,22,,,,,,,,15,,,,43,64
253880,note_off,80,0,8,,,,,,,,4,,,,38,64
253880,note_off,80,0,16,,,,,,,,8,,,,38,64
253880,note_off,80,0,21,,,,,,,,14,,,,55,64
253880,note_off,80,0,7,,,,,,,,4,,,,55,64
253880,note_off,80,0,15,,,,,,,,7,,,,50,64
253880,note_off,80,0,17,,,,,,,,10,,,,50,64
253920,note_on,40,0,7,,,,,,,,4,,,,54,92
253920,note_on,40,0,22,,,,,,,,15,,,,42,92
253920,note_on,40,0,15,,,,,,,,7,,,,50,92
253920,note_on,160,0,14,,,,,,,,7,,,,62,92
253920,note_on,40,0,21,,,,,,,,14,,,,54,92
253920,note_on,160,0,3,,,,,,,,2,,,,78,92
253920,note_on,160,0,5,,,,,,,,3,,,,74,92
253920,note_on,160,0,6,,,,,,,,3,,,,66,92
253920,note_on,160,0,20,,,,,,,,13,,,,66,92
253920,note_on,160,0,9,,,,,,,,5,,,,66,92
253920,note_on,160,0,12,,,,,,,,6,,,,66,92
253920,note_on,40,0,17,,,,,,,,10,,,,50,92
253920,note_on,160,0,10,,,,,,,,5,,,,62,92
253920,note_on,160,0,2,,,,,,,,0,,,,74,92
253920,note_on,160,0,18,,,,,,,,11,,,,78,108
253920,note_on,40,0,16,,,,,,,,8,,,,38,92
253920,note_on,160,0,1,,,,,,,,0,,,,78,92
253920,note_on,160,0,19,,,,,,,,12,,,,74,92
253920,note_on,160,0,4,,,,,,,,2,,,,74,92
253920,note_on,160,0,13,,,,,,,,7,,,,54,92
253920,note_on,160,0,11,,,,,,,,6,,,,69,92
253920,note_on,40,0,8,,,,,,,,4,,,,38,92
254000,note_off,80,0,1,,,,,,,,0,,,,78,64
254000,note_off,80,0,11,,,,,,,,6,,,,69,64
254000,note_off,80,0,7,,,,,,,,4,,,,54,64
254000,note_off,80,0,14,,,,,,,,7,,,,62,64
254000,note_off,80,0,18,,,,,,,,11,,,,78,64
254000,note_off,80,0,9,,,,,,,,5,,,,66,64
254000,note_off,80,0,19,,,,,,,,12,,,,74,64
254000,note_off,80,0,4,,,,,,,,2,,,,74,64
254000,note_off,80,0,5,,,,,,,,3,,,,74,64
254000,note_off,80,0,20,,,,,,,,13,,,,66,64
254000,note_off,80,0,8,,,,,,,,4,,,,38,64
254000,note_off,80,0,17,,,,,,,,10,,,,50,64
254000,note_off,80,0,15,,,,,,,,7,,,,50,64
254000,note_off,80,0,12,,,,,,,,6,,,,66,64
254000,note_off,80,0,22,,,,,,,,15,,,,42,64
254000,note_off,80,0,10,,,,,,,,5,,,,62,64
254000,note_off,80,0,3,,,,,,,,2,,,,78,64
254000,note_off,80,0,2,,,,,,,,0,,,,74,64
254000,note_off,80,0,6,,,,,,,,3,,,,66,64
254000,note_off,80,0,21,,,,,,,,14,,,,54,64
254000,note_off,80,0,13,,,,,,,,7,,,,54,64
254000,note_off,80,0,16,,,,,,,,8,,,,38,64
254040,note_on,40,0,15,,,,,,,,7,,,,50,92
254040,note_on,40,0,7,,,,,,,,4,,,,55,92
254040,note_on,40,0,8,,,,,,,,4,,,,38,92
254040,note_on,40,0,17,,,,,,,,10,,,,50,92
254040,note_on,40,0,21,,,,,,,,14,,,,55,92
254040,note_on,40,0,22,,,,,,,,15,,,,43,92
254040,note_on,40,0,16,,,,,,,,8,,,,38,92
254120,note_off,80,0,21,,,,,,,,14,,,,55,64
254120,note_off,80,0,7,,,,,,,,4,,,,55,64
254120,note_off,80,0,17,,,,,,,,10,,,,50,64
254120,note_off,80,0,8,,,,,,,,4,,,,38,64
254120,note_off,80,0,16,,,,,,,,8,,,,38,64
254120,note_off,80,0,15,,,,,,,,7,,,,50,64
254120,note_off,80,0,22,,,,,,,,15,,,,43,64
254160,note_on,160,0,18,,,,,,,,11,,,,74,108
254160,note_on,40,0,7,,,,,,,,4,,,,54,92
254160,note_on,40,0,17,,,,,,,,10,,,,50,92
254160,note_on,160,0,3,,,,,,,,2,,,,74,92
254160,note_on,160,0,2,,,,,,,,0,,,,69,92
254160,note_on,160,0,13,,,,,,,,7,,,,57,92
254160,note_on,40,0,22,,,,,,,,15,,,,42,92
254160,note_on,40,0,15,,,,,,,,7,,,,50,92
254160,note_on,160,0,5,,,,,,,,3,,,,69,92
254160,note_on,160,0,10,,,,,,,,5,,,,57,92
254160,note_on,40,0,21,,,,,,,,14,,,,54,92
254160,note_on,160,0,6,,,,,,,,3,,,,62,92
254160,note_on,40,0,16,,,,,,,,8,,,,38,92
254160,note_on,160,0,11,,,,,,,,6,,,,74,92
254160,note_on,160,0,12,,,,,,,,6,,,,69,92
254160,note_on,40,0,8,,,,,,,,4,,,,38,92
254160,note_on,160,0,19,,,,,,,,12,,,,69,92
254160,note_on,160,0,9,,,,,,,,5,,,,61,92
254160,note_on,160,0,1,,,,,,,,0,,,,74,92
254160,note_on,160,0,4,,,,,,,,2,,,,69,92
254160,note_on,160,0,20,,,,,,,,13,,,,62,92
254160,note_on,160,0,14,,,,,,,,7,,,,54,92
254240,note_off,80,0,8,,,,,,,,4,,,,38,64
254240,note_off,80,0,18,,,,,,,,11,,,,74,64
254240,note_off,80,0,16,,,,,,,,8,,,,38,64
254240,note_off,80,0,1,,,,,,,,0,,,,74,64
254240,note_off,80,0,7,,,,,,,,4,,,,54,64
254240,note_off,80,0,4,,,,,,,,2,,,,69,64
254240,note_off,80,0,15,,,,,,,,7,,,,50,64
254240,note_off,80,0,2,,,,,,,,0,,,,69,64
254240,note_off,80,0,10,,,,,,,,5,,,,57,64
254240,note_off,80,0,19,,,,,,,,12,,,,69,64
254240,note_off,80,0,20,,,,,,,,13,,,,62,64
254240,note_off,80,0,17,,,,,,,,10,,,,50,64
254240,note_off,80,0,21,,,,,,,,14,,,,54,64
254240,note_off,80,0,3,,,,,,,,2,,,,74,64
254240,note_off,80,0,22,,,,,,,,15,,,,42,64
254240,note_off,80,0,9,,,,,,,,5,,,,61,64
254240,note_off,80,0,6,,,,,,,,3,,,,62,64
254240,note_off,80,0,12,,,,,,,,6,,,,69,64
254240,note_off,80,0,11,,,,,,,,6,,,,74,64
254240,note_off,80,0,5,,,,,,,,3,,,,69,64
254240,note_off,80,0,14,,,,,,,,7,,,,54,64
254240,note_off,80,0,13,,,,,,,,7,,,,57,64
254280,note_on,40,0,22,,,,,,,,15,,,,40,92
254280,note_on,40,0,8,,,,,,,,4,,,,38,92
254280,note_on,40,0,15,,,,,,,,7,,,,50,92
254280,note_on,40,0,16,,,,,,,,8,,,,38,92
254280,note_on,40,0,17,,,,,,,,10,,,,50,92
254280,note_on,40,0,7,,,,,,,,4,,,,52,92
254280,note_on,40,0,21,,,,,,,,14,,,,52,92
254360,note_off,80,0,16,,,,,,,,8,,,,38,64
254360,note_off,80,0,7,,,,,,,,4,,,,52,64
254360,note_off,80,0,15,,,,,,,,7,,,,50,64
254360,note_off,80,0,8,,,,,,,,4,,,,38,64
254360,note_off,80,0,22,,,,,,,,15,,,,40,64
254360,note_off,80,0,17,,,,,,,,10,,,,50,64
254360,note_off,80,0,21,,,,,,,,14,,,,52,64
254400,note_on,160,0,5,,,,,,,,3,,,,69,92
254400,note_on,160,0,4,,,,,,,,2,,,,69,92
254400,note_on,160,0,14,,,,,,,,7,,,,54,92
254400,note_on,160,0,12,,,,,,,,6,,,,69,92
254400,note_on,40,0,8,,,,,,,,4,,,,38,92
254400,note_on,40,0,21,,,,,,,,14,,,,50,92
254400,note_on,40,0,16,,,,,,,,8,,,,38,92
254400,note_on,160,0,10,,,,,,,,5,,,,57,92
254400,note_on,160,0,6,,,,,,,,3,,,,62,92
254400,note_on,40,0,17,,,,,,,,10,,,,50,92
254400,note_on,160,0,11,,,,,,,,6,,,,74,92
254400,note_on,160,0,9,,,,,,,,5,,,,62,92
254400,note_on,160,0,19,,,,,,,,12,,,,69,92
254400,note_on,40,0,22,,,,,,,,15,,,,38,92
254400,note_on,160,0,13,,,,,,,,7,,,,57,92
254400,note_on,160,0,1,,,,,,,,0,,,,74,92
254400,note_on,160,0,3,,,,,,,,2,,,,74,92
254400,note_on,160,0,2,,,,,,,,0,,,,69,92
254400,note_on,160,0,18,,,,,,,,11,,,,74,108
254400,note_on,40,0,7,,,,,,,,4,,,,50,92
254400,note_on,160,0,20,,,,,,,,13,,,,62,92
254400,note_on,40,0,15,,,,,,,,7,,,,50,92
254480,note_off,80,0,2,,,,,,,,0,,,,69,64
254480,note_off,80,0,7,,,,,,,,4,,,,50,64
254480,note_off,80,0,12,,,,,,,,6,,,,69,64
254480,note_off,80,0,4,,,,,,,,2,,,,69,64
254480,note_off,80,0,15,,,,,,,,7,,,,50,64
254480,note_off,80,0,1,,,,,,,,0,,,,74,64
254480,note_off,80,0,3,,,,,,,,2,,,,74,64
254480,note_off,80,0,11,,,,,,,,6,,,,74,64
254480,note_off,80,0,19,,,,,,,,12,,,,69,64
254480,note_off,80,0,22,,,,,,,,15,,,,38,64
254480,note_off,80,0,18,,,,,,,,11,,,,74,64
254480,note_off,80,0,20,,,,,,,,13,,,,62,64
254480,note_off,80,0,9,,,,,,,,5,,,,62,64
254480,note_off,80,0,5,,,,,,,,3,,,,69,64
254480,note_off,80,0,14,,,,,,,,7,,,,54,64
254480,note_off,80,0,21,,,,,,,,14,,,,50,64
254480,note_off,80,0,6,,,,,,,,3,,,,62,64
254480,note_off,80,0,10,,,,,,,,5,,,,57,64
254480,note_off,80,0,16,,,,,,,,8,,,,38,64
254480,note_off,80,0,13,,,,,,,,7,,,,57,64
254640,note_on,160,0,21,,,,,,,,14,,,,54,92
254640,note_on,160,0,13,,,,,,,,7,,,,54,92
254640,note_on,160,0,9,,,,,,,,5,,,,57,92
254640,note_on,160,0,10,,,,,,,,5,,,,54,92
254640,note_on,160,0,20,,,,,,,,13,,,,57,92
254640,note_on,160,0,11,,,,,,,,6,,,,69,92
254640,note_on,160,0,6,,,,,,,,3,,,,57,92
254640,note_on,160,0,2,,,,,,,,0,,,,66,92
254640,note_on,160,0,19,,,,,,,,12,,,,66,92
254640,note_on,160,0,16,,,,,,,,8,,,,38,92
254640,note_on,160,0,22,,,,,,,,15,,,,42,92
254640,note_on,160,0,1,,,,,,,,0,,,,69,92
254640,note_on,160,0,12,,,,,,,,6,,,,66,92
254640,note_on,160,0,14,,,,,,,,7,,,,50,92
254640,note_on,160,0,4,,,,,,,,2,,,,66,92
254640,note_on,160,0,7,,,,,,,,4,,,,54,92
254640,note_on,160,0,18,,,,,,,,11,,,,69,108
254640,note_on,160,0,15,,,,,,,,7,,,,50,92
254640,note_on,160,0,5,,,,,,,,3,,,,66,92
254640,note_on,160,0,3,,,,,,,,2,,,,69,92
254720,note_off,80,0,20,,,,,,,,13,,,,57,64
254720,note_off,80,0,2,,,,,,,,0,,,,66,64
254720,note_off,80,0,19,,,,,,,,12,,,,66,64
254720,note_off,80,0,4,,,,,,,,2,,,,66,64
254720,note_off,80,0,6,,,,,,,,3,,,,57,64
254720,note_off,80,0,12,,,,,,,,6,,,,66,64
254720,note_off,80,0,13,,,,,,,,7,,,,54,64
254720,note_off,80,0,14,,,,,,,,7,,,,50,64
254720,note_off,80,0,10,,,,,,,,5,,,,54,64
254720,note_off,80,0,22,,,,,,,,15,,,,42,64
254720,note_off,80,0,15,,,,,,,,7,,,,50,64
254720,note_off,80,0,11,,,,,,,,6,,,,69,64
254720,note_off,80,0,21,,,,,,,,14,,,,54,64
254720,note_off,80,0,16,,,,,,,,8,,,,38,64
254720,note_off,80,0,9,,,,,,,,5,,,,57,64
254720,note_off,80,0,1,,,,,,,,0,,,,69,64
254720,note_off,80,0,7,,,,,,,,4,,,,54,64
254720,note_off,80,0,5,,,,,,,,3,,,,66,64
254720,note_off,80,0,18,,,,,,,,11,,,,69,64
254720,note_off,80,0,3,,,,,,,,2,,,,69,64
254800,note_off,400,0,17,,,,,,,,10,,,,50,64
254800,note_off,400,0,8,,,,,,,,4,,,,38,64
254880,note_on,160,0,22,,,,,,,,15,,,,45,92
254880,note_on,160,0,21,,,,,,,,14,,,,57,92
254880,note_on,160,0,7,,,,,,,,4,,,,57,92
254960,note_off,80,0,22,,,,,,,,15,,,,45,64
254960,note_off,80,0,7,,,,,,,,4,,,,57,64
254960,note_off,80,0,21,,,,,,,,14,,,,57,64
255120,note_on,400,0,11,,,,,,,,6,,,,74,92
255120,note_on,400,0,16,,,,,,,,8,,,,38,92
255120,note_on,400,0,4,,,,,,,,2,,,,69,92
255120,note_on,400,0,2,,,,,,,,0,,,,69,92
255120,note_on,320,0,8,,,,,,,,4,,,,38,92
255120,note_on,160,0,22,,,,,,,,15,,,,50,92
255120,note_on,400,0,6,,,,,,,,3,,,,62,92
255120,note_on,400,0,19,,,,,,,,12,,,,69,92
255120,note_on,400,0,3,,,,,,,,2,,,,74,92
255120,note_on,400,0,18,,,,,,,,11,,,,74,108
255120,note_on,400,0,1,,,,,,,,0,,,,74,92
255120,note_on,400,0,20,,,,,,,,13,,,,62,92
255120,note_on,320,0,17,,,,,,,,10,,,,50,92
255120,note_on,400,0,14,,,,,,,,7,,,,54,92
255120,note_on,400,0,9,,,,,,,,5,,,,62,92
255120,note_on,400,0,13,,,,,,,,7,,,,57,92
255120,note_on,400,0,5,,,,,,,,3,,,,69,92
255120,note_on,400,0,10,,,,,,,,5,,,,57,92
255120,note_on,160,0,21,,,,,,,,14,,,,62,92
255120,note_on,400,0,12,,,,,,,,6,,,,69,92
255120,note_on,160,0,7,,,,,,,,4,,,,62,92
255120,note_on,400,0,15,,,,,,,,7,,,,50,92
255200,note_off,80,0,5,,,,,,,,3,,,,69,64
255200,note_off,80,0,22,,,,,,,,15,,,,50,64
255200,note_off,80,0,11,,,,,,,,6,,,,74,64
255200,note_off,80,0,16,,,,,,,,8,,,,38,64
255200,note_off,80,0,10,,,,,,,,5,,,,57,64
255200,note_off,80,0,1,,,,,,,,0,,,,74,64
255200,note_off,80,0,3,,,,,,,,2,,,,74,64
255200,note_off,80,0,2,,,,,,,,0,,,,69,64
255200,note_off,80,0,7,,,,,,,,4,,,,62,64
255200,note_off,80,0,21,,,,,,,,14,,,,62,64
255200,note_off,80,0,6,,,,,,,,3,,,,62,64
255200,note_off,80,0,15,,,,,,,,7,,,,50,64
255200,note_off,80,0,14,,,,,,,,7,,,,54,64
255200,note_off,80,0,19,,,,,,,,12,,,,69,64
255200,note_off,80,0,12,,,,,,,,6,,,,69,64
255200,note_off,80,0,13,,,,,,,,7,,,,57,64
255200,note_off,80,0,4,,,,,,,,2,,,,69,64
255200,note_off,80,0,9,,,,,,,,5,,,,62,64
255200,note_off,80,0,20,,,,,,,,13,,,,62,64
255200,note_off,80,0,18,,,,,,,,11,,,,74,64
255355,note_off,235,0,17,,,,,,,,10,,,,50,64
255355,note_off,235,0,8,,,,,,,,4,,,,38,64
255360,note_on,160,0,1,,,,,,,,0,,,,76,92
255360,note_on,160,0,16,,,,,,,,8,,,,45,92
255360,note_on,160,0,10,,,,,,,,5,,,,61,92
255360,note_on,5,0,17,,,,,,,,10,,,,45,92
255360,note_on,160,0,6,,,,,,,,3,,,,64,92
255360,note_on,160,0,13,,,,,,,,7,,,,61,92
255360,note_on,160,0,5,,,,,,,,3,,,,73,92
255360,note_on,160,0,21,,,,,,,,14,,,,61,92
255360,note_on,160,0,15,,,,,,,,7,,,,57,92
255360,note_on,160,0,2,,,,,,,,0,,,,73,92
255360,note_on,160,0,19,,,,,,,,12,,,,69,92
255360,note_on,5,0,8,,,,,,,,4,,,,45,92
255360,note_on,160,0,3,,,,,,,,2,,,,76,92
255360,note_on,160,0,18,,,,,,,,11,,,,76,108
255360,note_on,160,0,22,,,,,,,,15,,,,49,92
255360,note_on,160,0,14,,,,,,,,7,,,,54,92
255360,note_on,160,0,11,,,,,,,,6,,,,76,92
255360,note_on,160,0,12,,,,,,,,6,,,,73,92
255360,note_on,160,0,20,,,,,,,,13,,,,64,92
255360,note_on,160,0,9,,,,,,,,5,,,,64,92
255360,note_on,160,0,4,,,,,,,,2,,,,73,92
255360,note_on,160,0,7,,,,,,,,4,,,,61,92
255440,note_off,80,0,12,,,,,,,,6,,,,73,64
255440,note_off,80,0,5,,,,,,,,3,,,,73,64
255440,note_off,80,0,16,,,,,,,,8,,,,45,64
255440,note_off,80,0,14,,,,,,,,7,,,,54,64
255440,note_off,80,0,13,,,,,,,,7,,,,61,64
255440,note_off,80,0,7,,,,,,,,4,,,,61,64
255440,note_off,80,0,18,,,,,,,,11,,,,76,64
255440,note_off,80,0,6,,,,,,,,3,,,,64,64
255440,note_off,80,0,15,,,,,,,,7,,,,57,64
255440,note_off,80,0,4,,,,,,,,2,,,,73,64
255440,note_off,80,0,3,,,,,,,,2,,,,76,64
255440,note_off,80,0,22,,,,,,,,15,,,,49,64
255440,note_off,80,0,2,,,,,,,,0,,,,73,64
255440,note_off,80,0,1,,,,,,,,0,,,,76,64
255440,note_off,80,0,11,,,,,,,,6,,,,76,64
255440,note_off,80,0,19,,,,,,,,12,,,,69,64
255440,note_off,80,0,9,,,,,,,,5,,,,64,64
255440,note_off,80,0,21,,,,,,,,14,,,,61,64
255440,note_off,80,0,20,,,,,,,,13,,,,64,64
255440,note_off,80,0,10,,,,,,,,5,,,,61,64
255595,note_off,235,0,8,,,,,,,,4,,,,45,64
255595,note_off,235,0,17,,,,,,,,10,,,,45,64
255600,note_on,5,0,8,,,,,,,,4,,,,45,92
255600,note_on,5,0,17,,,,,,,,10,,,,45,92
255600,note_on,160,0,9,,,,,,,,5,,,,66,92
255600,note_on,160,0,21,,,,,,,,14,,,,57,92
255600,note_on,160,0,10,,,,,,,,5,,,,61,92
255600,note_on,160,0,12,,,,,,,,6,,,,73,92
255600,note_on,160,0,3,,,,,,,,2,,,,78,92
255600,note_on,160,0,14,,,,,,,,7,,,,55,92
255600,note_on,160,0,19,,,,,,,,12,,,,73,92
255600,note_on,160,0,13,,,,,,,,7,,,,61,92
255600,note_on,160,0,18,,,,,,,,11,,,,78,108
255600,note_on,160,0,11,,,,,,,,6,,,,78,92
255600,note_on,160,0,6,,,,,,,,3,,,,66,92
255600,note_on,160,0,1,,,,,,,,0,,,,78,92
255600,note_on,160,0,22,,,,,,,,15,,,,45,92
255600,note_on,160,0,5,,,,,,,,3,,,,74,92
255600,note_on,160,0,2,,,,,,,,0,,,,74,92
255600,note_on,160,0,15,,,,,,,,7,,,,57,92
255600,note_on,160,0,4,,,,,,,,2,,,,74,92
255600,note_on,160,0,20,,,,,,,,13,,,,66,92
255600,note_on,160,0,16,,,,,,,,8,,,,45,92
255600,note_on,160,0,7,,,,,,,,4,,,,57,92
255680,note_off,80,0,7,,,,,,,,4,,,,57,64
255680,note_off,80,0,12,,,,,,,,6,,,,73,64
255680,note_off,80,0,13,,,,,,,,7,,,,61,64
255680,note_off,80,0,10,,,,,,,,5,,,,61,64
255680,note_off,80,0,14,,,,,,,,7,,,,55,64
255680,note_off,80,0,21,,,,,,,,14,,,,57,64
255680,note_off,80,0,15,,,,,,,,7,,,,57,64
255680,note_off,80,0,22,,,,,,,,15,,,,45,64
255680,note_off,80,0,16,,,,,,,,8,,,,45,64
255680,note_off,80,0,19,,,,,,,,12,,,,73,64
255720,note_off,120,0,4,,,,,,,,2,,,,74,64
255720,note_off,120,0,9,,,,,,,,5,,,,66,64
255720,note_on,0,0,9,,,,,,,,5,,,,64,92
255720,note_off,120,0,20,,,,,,,,13,,,,66,64
255720,note_on,0,0,3,,,,,,,,2,,,,76,92
255720,note_on,0,0,20,,,,,,,,13,,,,64,92
255720,note_on,0,0,5,,,,,,,,3,,,,73,92
255720,note_off,120,0,5,,,,,,,,3,,,,74,64
255720,note_off,120,0,6,,,,,,,,3,,,,66,64
255720,note_off,120,0,3,,,,,,,,2,,,,78,64
255720,note_off,120,0,11,,,,,,,,6,,,,78,64
255720,note_on,0,0,1,,,,,,,,0,,,,76,92
255720,note_off,120,0,1,,,,,,,,0,,,,78,64
255720,note_on,0,0,6,,,,,,,,3,,,,64,92
255720,note_on,0,0,2,,,,,,,,0,,,,73,92
255720,note_off,120,0,2,,,,,,,,0,,,,74,64
255720,note_on,0,0,11,,,,,,,,6,,,,76,92
255720,note_on,0,0,4,,,,,,,,2,,,,73,92
255720,note_on,0,0,18,,,,,,,,11,,,,76,108
255720,note_off,120,0,18,,,,,,,,11,,,,78,64
255800,note_off,80,0,4,,,,,,,,2,,,,73,64
255800,note_off,80,0,1,,,,,,,,0,,,,76,64
255800,note_off,80,0,3,,,,,,,,2,,,,76,64
255800,note_off,80,0,11,,,,,,,,6,,,,76,64
255800,note_off,80,0,18,,,,,,,,11,,,,76,64
255800,note_off,80,0,20,,,,,,,,13,,,,64,64
255800,note_off,80,0,2,,,,,,,,0,,,,73,64
255800,note_off,80,0,6,,,,,,,,3,,,,64,64
255800,note_off,80,0,9,,,,,,,,5,,,,64,64
255800,note_off,80,0,5,,,,,,,,3,,,,73,64
255835,note_off,235,0,17,,,,,,,,10,,,,45,64
255835,note_off,235,0,8,,,,,,,,4,,,,45,64
255840,note_on,160,0,16,,,,,,,,8,,,,38,92
255840,note_on,160,0,13,,,,,,,,7,,,,62,92
255840,note_on,40,0,9,,,,,,,,5,,,,66,92
255840,note_on,40,0,3,,,,,,,,2,,,,78,92
255840,note_on,40,0,11,,,,,,,,6,,,,78,92
255840,note_on,5,0,8,,,,,,,,4,,,,38,92
255840,note_on,40,0,20,,,,,,,,13,,,,69,92
255840,note_on,40,0,4,,,,,,,,2,,,,74,92
255840,note_on,40,0,2,,,,,,,,0,,,,74,92
255840,note_on,5,0,17,,,,,,,,10,,,,50,92
255840,note_on,160,0,21,,,,,,,,14,,,,62,92
255840,note_on,160,0,22,,,,,,,,15,,,,50,92
255840,note_on,40,0,6,,,,,,,,3,,,,69,92
255840,note_on,160,0,10,,,,,,,,5,,,,62,92
255840,note_on,160,0,7,,,,,,,,4,,,,62,92
255840,note_on,40,0,1,,,,,,,,0,,,,78,92
255840,note_on,160,0,15,,,,,,,,7,,,,50,92
255840,note_on,160,0,19,,,,,,,,12,,,,74,92
255840,note_on,40,0,18,,,,,,,,11,,,,78,108
255840,note_on,40,0,5,,,,,,,,3,,,,74,92
255840,note_on,160,0,12,,,,,,,,6,,,,74,92
255840,note_on,160,0,14,,,,,,,,7,,,,57,92
255920,note_off,80,0,6,,,,,,,,3,,,,69,64
255920,note_off,80,0,20,,,,,,,,13,,,,69,64
255920,note_off,80,0,14,,,,,,,,7,,,,57,64
255920,note_off,80,0,2,,,,,,,,0,,,,74,64
255920,note_off,80,0,4,,,,,,,,2,,,,74,64
255920,note_off,80,0,11,,,,,,,,6,,,,78,64
255920,note_off,80,0,19,,,,,,,,12,,,,74,64
255920,note_off,80,0,15,,,,,,,,7,,,,50,64
255920,note_off,80,0,16,,,,,,,,8,,,,38,64
255920,note_off,80,0,22,,,,,,,,15,,,,50,64
255920,note_off,80,0,18,,,,,,,,11,,,,78,64
255920,note_off,80,0,9,,,,,,,,5,,,,66,64
255920,note_off,80,0,3,,,,,,,,2,,,,78,64
255920,note_off,80,0,13,,,,,,,,7,,,,62,64
255920,note_off,80,0,12,,,,,,,,6,,,,74,64
255920,note_off,80,0,10,,,,,,,,5,,,,62,64
255920,note_off,80,0,1,,,,,,,,0,,,,78,64
255920,note_off,80,0,7,,,,,,,,4,,,,62,64
255920,note_off,80,0,5,,,,,,,,3,,,,74,64
255920,note_off,80,0,21,,,,,,,,14,,,,62,64
256080,note_on,160,0,5,,,,,,,,3,,,,69,92
256080,note_on,160,0,19,,,,,,,,12,,,,69,92
256080,note_on,160,0,11,,,,,,,,6,,,,74,92
256080,note_on,160,0,3,,,,,,,,2,,,,74,92
256080,note_on,160,0,15,,,,,,,,7,,,,50,92
256080,note_on,160,0,10,,,,,,,,5,,,,57,92
256080,note_on,160,0,16,,,,,,,,8,,,,38,92
256080,note_on,160,0,22,,,,,,,,15,,,,38,92
256080,note_on,160,0,21,,,,,,,,14,,,,50,92
256080,note_on,160,0,4,,,,,,,,2,,,,69,92
256080,note_on,160,0,7,,,,,,,,4,,,,50,92
256080,note_on,160,0,13,,,,,,,,7,,,,57,92
256080,note_on,160,0,9,,,,,,,,5,,,,62,92
256080,note_on,160,0,1,,,,,,,,0,,,,74,92
256080,note_on,160,0,6,,,,,,,,3,,,,66,92
256080,note_on,160,0,12,,,,,,,,6,,,,69,92
256080,note_on,160,0,2,,,,,,,,0,,,,69,92
256080,note_on,160,0,20,,,,,,,,13,,,,66,92
256080,note_on,160,0,18,,,,,,,,11,,,,74,108
256080,note_on,160,0,14,,,,,,,,7,,,,54,92
256160,note_off,80,0,18,,,,,,,,11,,,,74,64
256160,note_off,80,0,19,,,,,,,,12,,,,69,64
256160,note_off,80,0,3,,,,,,,,2,,,,74,64
256160,note_off,80,0,20,,,,,,,,13,,,,66,64
256160,note_off,80,0,7,,,,,,,,4,,,,50,64
256160,note_off,80,0,12,,,,,,,,6,,,,69,64
256160,note_off,80,0,21,,,,,,,,14,,,,50,64
256160,note_off,80,0,1,,,,,,,,0,,,,74,64
256160,note_off,80,0,9,,,,,,,,5,,,,62,64
256160,note_off,80,0,16,,,,,,,,8,,,,38,64
256160,note_off,80,0,22,,,,,,,,15,,,,38,64
256160,note_off,80,0,4,,,,,,,,2,,,,69,64
256160,note_off,80,0,6,,,,,,,,3,,,,66,64
256160,note_off,80,0,11,,,,,,,,6,,,,74,64
256160,note_off,80,0,14,,,,,,,,7,,,,54,64
256160,note_off,80,0,15,,,,,,,,7,,,,50,64
256160,note_off,80,0,10,,,,,,,,5,,,,57,64
256160,note_off,80,0,2,,,,,,,,0,,,,69,64
256160,note_off,80,0,5,,,,,,,,3,,,,69,64
256160,note_off,80,0,13,,,,,,,,7,,,,57,64
256240,note_off,400,0,8,,,,,,,,4,,,,38,64
256240,note_off,400,0,17,,,,,,,,10,,,,50,64
256320,note_on,80,0,8,,,,,,,,4,,,,38,92
256320,note_on,160,0,7,,,,,,,,4,,,,54,92
256320,note_on,160,0,22,,,,,,,,15,,,,42,92
256320,note_on,160,0,15,,,,,,,,7,,,,50,92
256320,note_on,160,0,6,,,,,,,,3,,,,69,92
256320,note_on,160,0,21,,,,,,,,14,,,,54,92
256320,note_on,160,0,19,,,,,,,,12,,,,74,92
256320,note_on,160,0,20,,,,,,,,13,,,,69,92
256320,note_on,160,0,16,,,,,,,,8,,,,38,92
256320,note_on,160,0,2,,,,,,,,0,,,,74,92
256320,note_on,160,0,4,,,,,,,,2,,,,74,92
256320,note_on,160,0,5,,,,,,,,3,,,,74,92
256320,note_on,80,0,17,,,,,,,,10,,,,50,92
256400,note_off,80,0,21,,,,,,,,14,,,,54,64
256400,note_off,80,0,7,,,,,,,,4,,,,54,64
256400,note_off,80,0,22,,,,,,,,15,,,,42,64
256560,note_on,400,0,13,,,,,,,,7,,,,62,92
256560,note_on,400,0,14,,,,,,,,7,,,,54,92
256560,note_on,400,0,10,,,,,,,,5,,,,62,92
256560,note_on,400,0,3,,,,,,,,2,,,,78,92
256560,note_on,160,0,7,,,,,,,,4,,,,50,92
256560,note_on,160,0,22,,,,,,,,15,,,,38,92
256560,note_on,400,0,18,,,,,,,,11,,,,78,108
256560,note_on,400,0,1,,,,,,,,0,,,,78,92
256560,note_on,400,0,12,,,,,,,,6,,,,74,92
256560,note_on,160,0,21,,,,,,,,14,,,,50,92
256560,note_on,400,0,9,,,,,,,,5,,,,66,92
256560,note_on,400,0,11,,,,,,,,6,,,,78,92
256640,note_off,80,0,18,,,,,,,,11,,,,78,64
256640,note_off,80,0,21,,,,,,,,14,,,,50,64
256640,note_off,80,0,10,,,,,,,,5,,,,62,64
256640,note_off,80,0,14,,,,,,,,7,,,,54,64
256640,note_off,80,0,9,,,,,,,,5,,,,66,64
256640,note_off,80,0,22,,,,,,,,15,,,,38,64
256640,note_off,80,0,11,,,,,,,,6,,,,78,64
256640,note_off,80,0,1,,,,,,,,0,,,,78,64
256640,note_off,80,0,7,,,,,,,,4,,,,50,64
256640,note_off,80,0,12,,,,,,,,6,,,,74,64
256640,note_off,80,0,3,,,,,,,,2,,,,78,64
256640,note_off,80,0,13,,,,,,,,7,,,,62,64
256720,note_off,400,0,5,,,,,,,,3,,,,74,64
256720,note_off,400,0,8,,,,,,,,4,,,,38,64
256720,note_off,400,0,6,,,,,,,,3,,,,69,64
256720,note_off,400,0,20,,,,,,,,13,,,,69,64
256720,note_off,400,0,19,,,,,,,,12,,,,74,64
256720,note_off,400,0,2,,,,,,,,0,,,,74,64
256720,note_off,400,0,15,,,,,,,,7,,,,50,64
256720,note_off,400,0,17,,,,,,,,10,,,,50,64
256720,note_off,400,0,4,,,,,,,,2,,,,74,64
256720,note_off,400,0,16,,,,,,,,8,,,,38,64
256800,note_on,160,0,9,,,,,,,,5,,,,67,92
256800,note_on,160,0,12,,,,,,,,6,,,,76,92
256800,note_on,160,0,11,,,,,,,,6,,,,79,92
256800,note_on,160,0,21,,,,,,,,14,,,,55,92
256800,note_on,160,0,1,,,,,,,,0,,,,79,92
256800,note_on,160,0,7,,,,,,,,4,,,,55,92
256800,note_on,80,0,4,,,,,,,,2,,,,76,92
256800,note_on,80,0,2,,,,,,,,0,,,,76,92
256800,note_on,80,0,19,,,,,,,,12,,,,76,92
256800,note_on,80,0,5,,,,,,,,3,,,,76,92
256800,note_on,160,0,14,,,,,,,,7,,,,59,92
256800,note_on,160,0,22,,,,,,,,15,,,,43,92
256800,note_on,160,0,18,,,,,,,,11,,,,79,108
256800,note_on,80,0,6,,,,,,,,3,,,,71,92
256800,note_on,160,0,10,,,,,,,,5,,,,64,92
256800,note_on,160,0,3,,,,,,,,2,,,,79,92
256800,note_on,160,0,13,,,,,,,,7,,,,64,92
256800,note_on,80,0,20,,,,,,,,13,,,,71,92
256880,note_off,80,0,3,,,,,,,,2,,,,79,64
256880,note_off,80,0,20,,,,,,,,13,,,,71,64
256880,note_off,80,0,11,,,,,,,,6,,,,79,64
256880,note_off,80,0,6,,,,,,,,3,,,,71,64
256880,note_off,80,0,19,,,,,,,,12,,,,76,64
256880,note_off,80,0,14,,,,,,,,7,,,,59,64
256880,note_off,80,0,5,,,,,,,,3,,,,76,64
256880,note_off,80,0,7,,,,,,,,4,,,,55,64
256880,note_off,80,0,1,,,,,,,,0,,,,79,64
256880,note_off,80,0,12,,,,,,,,6,,,,76,64
256880,note_off,80,0,18,,,,,,,,11,,,,79,64
256880,note_off,80,0,13,,,,,,,,7,,,,64,64
256880,note_off,80,0,10,,,,,,,,5,,,,64,64
256880,note_off,80,0,9,,,,,,,,5,,,,67,64
256880,note_off,80,0,2,,,,,,,,0,,,,76,64
256880,note_off,80,0,21,,,,,,,,14,,,,55,64
256880,note_off,80,0,22,,,,,,,,15,,,,43,64
256880,note_off,80,0,4,,,,,,,,2,,,,76,64
257040,note_on,160,0,2,,,,,,,,0,,,,78,92
257040,note_on,160,0,18,,,,,,,,11,,,,81,108
257040,note_on,160,0,5,,,,,,,,3,,,,78,92
257040,note_on,160,0,6,,,,,,,,3,,,,73,92
257040,note_on,160,0,14,,,,,,,,7,,,,59,92
257040,note_on,160,0,1,,,,,,,,0,,,,81,92
257040,note_on,160,0,4,,,,,,,,2,,,,78,92
257040,note_on,160,0,3,,,,,,,,2,,,,81,92
257040,note_on,160,0,22,,,,,,,,15,,,,31,92
257040,note_on,160,0,10,,,,,,,,5,,,,66,92
257040,note_on,160,0,21,,,,,,,,14,,,,43,92
257040,note_on,160,0,13,,,,,,,,7,,,,66,92
257040,note_on,160,0,12,,,,,,,,6,,,,78,92
257040,note_on,160,0,20,,,,,,,,13,,,,73,92
257040,note_on,160,0,19,,,,,,,,12,,,,78,92
257040,note_on,160,0,7,,,,,,,,4,,,,43,92
257040,note_on,160,0,9,,,,,,,,5,,,,69,92
257040,note_on,160,0,11,,,,,,,,6,,,,81,92
257120,note_off,80,0,13,,,,,,,,7,,,,66,64
257120,note_off,80,0,14,,,,,,,,7,,,,59,64
257120,note_off,80,0,12,,,,,,,,6,,,,78,64
257120,note_off,80,0,6,,,,,,,,3,,,,73,64
257120,note_off,80,0,7,,,,,,,,4,,,,43,64
257120,note_off,80,0,21,,,,,,,,14,,,,43,64
257120,note_off,80,0,10,,,,,,,,5,,,,66,64
257120,note_off,80,0,20,,,,,,,,13,,,,73,64
257120,note_off,80,0,22,,,,,,,,15,,,,31,64
257160,note_off,120,0,4,,,,,,,,2,,,,78,64
257160,note_off,120,0,9,,,,,,,,5,,,,69,64
257160,note_on,0,0,4,,,,,,,,2,,,,76,92
257160,note_on,0,0,9,,,,,,,,5,,,,67,92
257160,note_off,120,0,3,,,,,,,,2,,,,81,64
257160,note_off,120,0,19,,,,,,,,12,,,,78,64
257160,note_on,40,0,10,,,,,,,,5,,,,64,92
257160,note_on,0,0,3,,,,,,,,2,,,,79,92
257160,note_on,0,0,18,,,,,,,,11,,,,79,108
257160,note_off,120,0,1,,,,,,,,0,,,,81,64
257160,note_on,0,0,1,,,,,,,,0,,,,79,92
257160,note_on,40,0,12,,,,,,,,6,,,,76,92
257160,note_on,0,0,19,,,,,,,,12,,,,76,92
257160,note_off,120,0,11,,,,,,,,6,,,,81,64
257160,note_on,0,0,11,,,,,,,,6,,,,79,92
257160,note_on,0,0,2,,,,,,,,0,,,,76,92
257160,note_on,0,0,5,,,,,,,,3,,,,76,92
257160,note_off,120,0,5,,,,,,,,3,,,,78,64
257160,note_off,120,0,2,,,,,,,,0,,,,78,64
257160,note_off,120,0,18,,,,,,,,11,,,,81,64
257160,note_on,40,0,13,,,,,,,,7,,,,64,92
257240,note_off,80,0,4,,,,,,,,2,,,,76,64
257240,note_off,80,0,1,,,,,,,,0,,,,79,64
257240,note_off,80,0,2,,,,,,,,0,,,,76,64
257240,note_off,80,0,13,,,,,,,,7,,,,64,64
257240,note_off,80,0,10,,,,,,,,5,,,,64,64
257240,note_off,80,0,9,,,,,,,,5,,,,67,64
257240,note_off,80,0,12,,,,,,,,6,,,,76,64
257240,note_off,80,0,18,,,,,,,,11,,,,79,64
257240,note_off,80,0,3,,,,,,,,2,,,,79,64
257240,note_off,80,0,5,,,,,,,,3,,,,76,64
257240,note_off,80,0,11,,,,,,,,6,,,,79,64
257240,note_off,80,0,19,,,,,,,,12,,,,76,64
257280,note_on,40,0,11,,,,,,,,6,,,,81,92
257280,note_on,40,0,2,,,,,,,,0,,,,78,92
257280,note_on,40,0,9,,,,,,,,5,,,,69,92
257280,note_on,40,0,1,,,,,,,,0,,,,81,92
257280,note_on,40,0,3,,,,,,,,2,,,,81,92
257280,note_on,40,0,19,,,,,,,,12,,,,78,92
257280,note_on,40,0,13,,,,,,,,7,,,,66,92
257280,note_on,160,0,21,,,,,,,,14,,,,50,92
257280,note_on,160,0,7,,,,,,,,4,,,,50,92
257280,note_on,40,0,4,,,,,,,,2,,,,78,92
257280,note_on,160,0,22,,,,,,,,15,,,,38,92
257280,note_on,40,0,10,,,,,,,,5,,,,66,92
257280,note_on,160,0,14,,,,,,,,7,,,,62,92
257280,note_on,40,0,12,,,,,,,,6,,,,78,92
257280,note_on,40,0,18,,,,,,,,11,,,,81,108
257280,note_on,160,0,20,,,,,,,,13,,,,74,92
257280,note_on,160,0,6,,,,,,,,3,,,,74,92
257280,note_on,40,0,5,,,,,,,,3,,,,78,92
257360,note_off,80,0,11,,,,,,,,6,,,,81,64
257360,note_off,80,0,2,,,,,,,,0,,,,78,64
257360,note_off,80,0,7,,,,,,,,4,,,,50,64
257360,note_off,80,0,1,,,,,,,,0,,,,81,64
257360,note_off,80,0,3,,,,,,,,2,,,,81,64
257360,note_off,80,0,12,,,,,,,,6,,,,78,64
257360,note_off,80,0,10,,,,,,,,5,,,,66,64
257360,note_off,80,0,19,,,,,,,,12,,,,78,64
257360,note_off,80,0,9,,,,,,,,5,,,,69,64
257360,note_off,80,0,13,,,,,,,,7,,,,66,64
257360,note_off,80,0,5,,,,,,,,3,,,,78,64
257360,note_off,80,0,21,,,,,,,,14,,,,50,64
257360,note_off,80,0,22,,,,,,,,15,,,,38,64
257360,note_off,80,0,4,,,,,,,,2,,,,78,64
257360,note_off,80,0,14,,,,,,,,7,,,,62,64
257360,note_off,80,0,18,,,,,,,,11,,,,81,64
257520,note_on,160,0,14,,,,,,,,7,,,,59,92
257520,note_on,160,0,11,,,,,,,,6,,,,78,92
257520,note_on,160,0,2,,,,,,,,0,,,,74,92
257520,note_on,160,0,7,,,,,,,,4,,,,54,92
257520,note_on,160,0,10,,,,,,,,5,,,,62,92
257520,note_on,160,0,22,,,,,,,,15,,,,42,92
257520,note_on,160,0,12,,,,,,,,6,,,,74,92
257520,note_on,160,0,3,,,,,,,,2,,,,78,92
257520,note_on,160,0,21,,,,,,,,14,,,,54,92
257520,note_on,160,0,5,,,,,,,,3,,,,74,92
257520,note_on,160,0,13,,,,,,,,7,,,,62,92
257520,note_on,800,0,16,,,,,,,,8,,,,38,92
257520,note_on,160,0,1,,,,,,,,0,,,,78,92
257520,note_on,800,0,15,,,,,,,,7,,,,50,92
257520,note_on,800,0,17,,,,,,,,10,,,,50,92
257520,note_on,160,0,4,,,,,,,,2,,,,74,92
257520,note_on,160,0,19,,,,,,,,12,,,,74,92
257520,note_on,800,0,8,,,,,,,,4,,,,38,92
257520,note_on,160,0,9,,,,,,,,5,,,,66,92
257520,note_on,160,0,18,,,,,,,,11,,,,78,108
257600,note_off,80,0,5,,,,,,,,3,,,,74,64
257600,note_off,80,0,1,,,,,,,,0,,,,78,64
257600,note_off,80,0,10,,,,,,,,5,,,,62,64
257600,note_off,80,0,18,,,,,,,,11,,,,78,64
257600,note_off,80,0,7,,,,,,,,4,,,,54,64
257600,note_off,80,0,15,,,,,,,,7,,,,50,64
257600,note_off,80,0,16,,,,,,,,8,,,,38,64
257600,note_off,80,0,19,,,,,,,,12,,,,74,64
257600,note_off,80,0,4,,,,,,,,2,,,,74,64
257600,note_off,80,0,22,,,,,,,,15,,,,42,64
257600,note_off,80,0,3,,,,,,,,2,,,,78,64
257600,note_off,80,0,12,,,,,,,,6,,,,74,64
257600,note_off,80,0,21,,,,,,,,14,,,,54,64
257600,note_off,80,0,13,,,,,,,,7,,,,62,64
257600,note_off,80,0,8,,,,,,,,4,,,,38,64
257600,note_off,80,0,2,,,,,,,,0,,,,74,64
257600,note_off,80,0,11,,,,,,,,6,,,,78,64
257600,note_off,80,0,14,,,,,,,,7,,,,59,64
257600,note_off,80,0,17,,,,,,,,10,,,,50,64
257680,note_off,400,0,6,,,,,,,,3,,,,74,64
257680,note_off,400,0,20,,,,,,,,13,,,,74,64
257755,note_off,235,0,9,,,,,,,,5,,,,66,64
257760,note_on,80,0,20,,,,,,,,13,,,,71,92
257760,note_on,160,0,2,,,,,,,,0,,,,74,92
257760,note_on,160,0,22,,,,,,,,15,,,,43,92
257760,note_on,160,0,19,,,,,,,,12,,,,74,92
257760,note_on,160,0,3,,,,,,,,2,,,,83,92
257760,note_on,160,0,8,,,,,,,,4,,,,38,92
257760,note_on,160,0,14,,,,,,,,7,,,,62,92
257760,note_on,160,0,15,,,,,,,,7,,,,50,92
257760,note_on,160,0,10,,,,,,,,5,,,,55,92
257760,note_on,160,0,11,,,,,,,,6,,,,71,92
257760,note_on,160,0,13,,,,,,,,7,,,,55,92
257760,note_on,160,0,5,,,,,,,,3,,,,74,92
257760,note_on,160,0,21,,,,,,,,14,,,,55,92
257760,note_on,160,0,18,,,,,,,,11,,,,83,108
257760,note_on,160,0,17,,,,,,,,10,,,,50,92
257760,note_on,160,0,7,,,,,,,,4,,,,55,92
257760,note_on,160,0,4,,,,,,,,2,,,,74,92
257760,note_on,5,0,9,,,,,,,,5,,,,59,92
257760,note_on,160,0,12,,,,,,,,6,,,,67,92
257760,note_on,160,0,1,,,,,,,,0,,,,83,92
257760,note_on,80,0,6,,,,,,,,3,,,,71,92
257760,note_on,160,0,16,,,,,,,,8,,,,38,92
257840,note_off,80,0,15,,,,,,,,7,,,,50,64
257840,note_off,80,0,8,,,,,,,,4,,,,38,64
257840,note_off,80,0,19,,,,,,,,12,,,,74,64
257840,note_off,80,0,21,,,,,,,,14,,,,55,64
257840,note_off,80,0,2,,,,,,,,0,,,,74,64
257840,note_off,80,0,22,,,,,,,,15,,,,43,64
257840,note_off,80,0,5,,,,,,,,3,,,,74,64
257840,note_off,80,0,17,,,,,,,,10,,,,50,64
257840,note_off,80,0,7,,,,,,,,4,,,,55,64
257840,note_off,80,0,16,,,,,,,,8,,,,38,64
257840,note_off,80,0,4,,,,,,,,2,,,,74,64
257880,note_off,120,0,13,,,,,,,,7,,,,55,64
257880,note_off,120,0,10,,,,,,,,5,,,,55,64
257880,note_off,120,0,12,,,,,,,,6,,,,67,64
258000,note_on,160,0,15,,,,,,,,7,,,,50,92
258000,note_on,160,0,21,,,,,,,,14,,,,52,92
258000,note_on,160,0,5,,,,,,,,3,,,,79,92
258000,note_on,160,0,16,,,,,,,,8,,,,38,92
258000,note_on,160,0,8,,,,,,,,4,,,,38,92
258000,note_on,160,0,19,,,,,,,,12,,,,79,92
258000,note_on,160,0,22,,,,,,,,15,,,,40,92
258000,note_on,160,0,4,,,,,,,,2,,,,79,92
258000,note_on,160,0,7,,,,,,,,4,,,,52,92
258000,note_on,160,0,2,,,,,,,,0,,,,79,92
258000,note_on,160,0,17,,,,,,,,10,,,,50,92
258080,note_off,80,0,8,,,,,,,,4,,,,38,64
258080,note_off,80,0,21,,,,,,,,14,,,,52,64
258080,note_off,80,0,15,,,,,,,,7,,,,50,64
258080,note_off,80,0,7,,,,,,,,4,,,,52,64
258080,note_off,80,0,2,,,,,,,,0,,,,79,64
258080,note_off,80,0,19,,,,,,,,12,,,,79,64
258080,note_off,80,0,5,,,,,,,,3,,,,79,64
258080,note_off,80,0,17,,,,,,,,10,,,,50,64
258080,note_off,80,0,4,,,,,,,,2,,,,79,64
258080,note_off,80,0,16,,,,,,,,8,,,,38,64
258080,note_off,80,0,22,,,,,,,,15,,,,40,64
258160,note_off,400,0,18,,,,,,,,11,,,,83,64
258160,note_off,400,0,9,,,,,,,,5,,,,59,64
258160,note_off,400,0,11,,,,,,,,6,,,,71,64
258160,note_off,400,0,3,,,,,,,,2,,,,83,64
258160,note_off,400,0,14,,,,,,,,7,,,,62,64
258160,note_off,400,0,1,,,,,,,,0,,,,83,64
258160,note_off,400,0,20,,,,,,,,13,,,,71,64
258160,note_off,400,0,6,,,,,,,,3,,,,71,64
258240,note_on,160,0,7,,,,,,,,4,,,,57,92
258240,note_on,360,0,12,,,,,,,,6,,,,69,92
258240,note_on,80,0,6,,,,,,,,3,,,,69,92
258240,note_on,80,0,18,,,,,,,,11,,,,85,108
258240,note_on,160,0,15,,,,,,,,7,,,,57,92
258240,note_on,160,0,21,,,,,,,,14,,,,57,92
258240,note_on,80,0,14,,,,,,,,7,,,,61,92
258240,note_on,160,0,8,,,,,,,,4,,,,45,92
258240,note_on,160,0,19,,,,,,,,12,,,,76,92
258240,note_on,80,0,1,,,,,,,,0,,,,85,92
258240,note_on,160,0,16,,,,,,,,8,,,,45,92
258240,note_on,80,0,11,,,,,,,,6,,,,73,92
258240,note_on,160,0,2,,,,,,,,0,,,,76,92
258240,note_on,80,0,9,,,,,,,,5,,,,61,92
258240,note_on,80,0,3,,,,,,,,2,,,,85,92
258240,note_on,160,0,22,,,,,,,,15,,,,45,92
258240,note_on,360,0,10,,,,,,,,5,,,,57,92
258240,note_on,160,0,5,,,,,,,,3,,,,76,92
258240,note_on,360,0,13,,,,,,,,7,,,,57,92
258240,note_on,160,0,4,,,,,,,,2,,,,76,92
258240,note_on,160,0,17,,,,,,,,10,,,,45,92
258240,note_on,80,0,20,,,,,,,,13,,,,69,92
258320,note_off,80,0,19,,,,,,,,12,,,,76,64
258320,note_off,80,0,8,,,,,,,,4,,,,45,64
258320,note_off,80,0,16,,,,,,,,8,,,,45,64
258320,note_off,80,0,15,,,,,,,,7,,,,57,64
258320,note_off,80,0,21,,,,,,,,14,,,,57,64
258320,note_off,80,0,5,,,,,,,,3,,,,76,64
258320,note_off,80,0,22,,,,,,,,15,,,,45,64
258320,note_off,80,0,7,,,,,,,,4,,,,57,64
258320,note_off,80,0,2,,,,,,,,0,,,,76,64
258320,note_off,80,0,17,,,,,,,,10,,,,45,64
258320,note_off,80,0,4,,,,,,,,2,,,,76,64
258360,note_off,120,0,13,,,,,,,,7,,,,57,64
258360,note_off,120,0,10,,,,,,,,5,,,,57,64
258360,note_off,120,0,12,,,,,,,,6,,,,69,64
258480,note_on,160,0,7,,,,,,,,4,,,,55,92
258480,note_on,160,0,8,,,,,,,,4,,,,45,92
258480,note_on,160,0,19,,,,,,,,12,,,,78,92
258480,note_on,160,0,5,,,,,,,,3,,,,78,92
258480,note_on,160,0,4,,,,,,,,2,,,,78,92
258480,note_on,160,0,17,,,,,,,,10,,,,45,92
258480,note_on,160,0,21,,,,,,,,14,,,,55,92
258480,note_on,160,0,15,,,,,,,,7,,,,57,92
258480,note_on,160,0,22,,,,,,,,15,,,,43,92
258480,note_on,160,0,16,,,,,,,,8,,,,45,92
258480,note_on,160,0,2,,,,,,,,0,,,,78,92
258560,note_off,80,0,2,,,,,,,,0,,,,78,64
258560,note_off,80,0,7,,,,,,,,4,,,,55,64
258560,note_off,80,0,19,,,,,,,,12,,,,78,64
258560,note_off,80,0,21,,,,,,,,14,,,,55,64
258560,note_off,80,0,15,,,,,,,,7,,,,57,64
258560,note_off,80,0,8,,,,,,,,4,,,,45,64
258560,note_off,80,0,4,,,,,,,,2,,,,78,64
258560,note_off,80,0,17,,,,,,,,10,,,,45,64
258560,note_off,80,0,22,,,,,,,,15,,,,43,64
258560,note_off,80,0,5,,,,,,,,3,,,,78,64
258560,note_off,80,0,16,,,,,,,,8,,,,45,64
258600,note_on,40,0,4,,,,,,,,2,,,,76,92
258600,note_on,40,0,5,,,,,,,,3,,,,76,92
258600,note_on,40,0,19,,,,,,,,12,,,,76,92
258600,note_on,40,0,2,,,,,,,,0,,,,76,92
258640,note_off,400,0,14,,,,,,,,7,,,,61,64
258640,note_off,400,0,20,,,,,,,,13,,,,69,64
258640,note_off,400,0,1,,,,,,,,0,,,,85,64
258640,note_off,400,0,18,,,,,,,,11,,,,85,64
258640,note_off,400,0,6,,,,,,,,3,,,,69,64
258640,note_off,400,0,11,,,,,,,,6,,,,73,64
258640,note_off,400,0,3,,,,,,,,2,,,,85,64
258640,note_off,400,0,9,,,,,,,,5,,,,61,64
258680,note_off,80,0,19,,,,,,,,12,,,,76,64
258680,note_off,80,0,5,,,,,,,,3,,,,76,64
258680,note_off,80,0,2,,,,,,,,0,,,,76,64
258680,note_off,80,0,4,,,,,,,,2,,,,76,64
258720,note_on,80,0,6,,,,,,,,3,,,,69,92
258720,note_on,80,0,18,,,,,,,,11,,,,86,108
258720,note_on,80,0,1,,,,,,,,0,,,,86,92
258720,note_on,80,0,14,,,,,,,,7,,,,54,92
258720,note_on,80,0,9,,,,,,,,5,,,,62,92
258720,note_on,160,0,15,,,,,,,,7,,,,50,92
258720,note_on,40,0,19,,,,,,,,12,,,,78,92
258720,note_on,80,0,11,,,,,,,,6,,,,74,92
258720,note_on,160,0,8,,,,,,,,4,,,,38,92
258720,note_on,360,0,10,,,,,,,,5,,,,57,92
258720,note_on,160,0,16,,,,,,,,8,,,,38,92
258720,note_on,160,0,21,,,,,,,,14,,,,54,92
258720,note_on,360,0,13,,,,,,,,7,,,,57,92
258720,note_on,160,0,7,,,,,,,,4,,,,54,92
258720,note_on,40,0,2,,,,,,,,0,,,,78,92
258720,note_on,40,0,5,,,,,,,,3,,,,78,92
258720,note_on,80,0,3,,,,,,,,2,,,,86,92
258720,note_on,160,0,17,,,,,,,,10,,,,50,92
258720,note_on,40,0,4,,,,,,,,2,,,,78,92
258720,note_on,160,0,22,,,,,,,,15,,,,42,92
258720,note_on,80,0,20,,,,,,,,13,,,,69,92
258720,note_on,360,0,12,,,,,,,,6,,,,69,92
258800,note_off,80,0,10,,,,,,,,5,,,,57,64
258800,note_off,80,0,5,,,,,,,,3,,,,78,64
258800,note_off,80,0,17,,,,,,,,10,,,,50,64
258800,note_off,80,0,3,,,,,,,,2,,,,86,64
258800,note_off,80,0,1,,,,,,,,0,,,,86,64
258800,note_off,80,0,13,,,,,,,,7,,,,57,64
258800,note_off,80,0,16,,,,,,,,8,,,,38,64
258800,note_off,80,0,18,,,,,,,,11,,,,86,64
258800,note_off,80,0,4,,,,,,,,2,,,,78,64
258800,note_off,80,0,9,,,,,,,,5,,,,62,64
258800,note_off,80,0,22,,,,,,,,15,,,,42,64
258800,note_off,80,0,8,,,,,,,,4,,,,38,64
258800,note_off,80,0,21,,,,,,,,14,,,,54,64
258800,note_off,80,0,19,,,,,,,,12,,,,78,64
258800,note_off,80,0,2,,,,,,,,0,,,,78,64
258800,note_off,80,0,7,,,,,,,,4,,,,54,64
258800,note_off,80,0,12,,,,,,,,6,,,,69,64
258800,note_off,80,0,15,,,,,,,,7,,,,50,64
258800,note_off,80,0,14,,,,,,,,7,,,,54,64
258800,note_off,80,0,11,,,,,,,,6,,,,74,64
258960,note_on,160,0,12,,,,,,,,6,,,,69,92
258960,note_on,160,0,17,,,,,,,,10,,,,50,92
258960,note_on,160,0,16,,,,,,,,8,,,,38,92
258960,note_on,160,0,21,,,,,,,,14,,,,62,92
258960,note_on,160,0,11,,,,,,,,6,,,,74,92
258960,note_on,160,0,10,,,,,,,,5,,,,57,92
258960,note_on,160,0,13,,,,,,,,7,,,,57,92
258960,note_on,160,0,3,,,,,,,,2,,,,74,92
258960,note_on,160,0,2,,,,,,,,0,,,,69,92
258960,note_on,160,0,4,,,,,,,,2,,,,69,92
258960,note_on,160,0,9,,,,,,,,5,,,,62,92
258960,note_on,160,0,22,,,,,,,,15,,,,50,92
258960,note_on,160,0,5,,,,,,,,3,,,,69,92
258960,note_on,160,0,7,,,,,,,,4,,,,62,92
258960,note_on,160,0,15,,,,,,,,7,,,,50,92
258960,note_on,160,0,8,,,,,,,,4,,,,38,92
258960,note_on,160,0,18,,,,,,,,11,,,,74,108
258960,note_on,160,0,19,,,,,,,,12,,,,69,92
258960,note_on,160,0,14,,,,,,,,7,,,,54,92
258960,note_on,160,0,1,,,,,,,,0,,,,74,92
259040,note_off,80,0,3,,,,,,,,2,,,,74,64
259040,note_off,80,0,22,,,,,,,,15,,,,50,64
259040,note_off,80,0,4,,,,,,,,2,,,,69,64
259040,note_off,80,0,18,,,,,,,,11,,,,74,64
259040,note_off,80,0,7,,,,,,,,4,,,,62,64
259040,note_off,80,0,19,,,,,,,,12,,,,69,64
259040,note_off,80,0,14,,,,,,,,7,,,,54,64
259040,note_off,80,0,21,,,,,,,,14,,,,62,64
259040,note_off,80,0,5,,,,,,,,3,,,,69,64
259040,note_off,80,0,8,,,,,,,,4,,,,38,64
259040,note_off,80,0,2,,,,,,,,0,,,,69,64
259040,note_off,80,0,12,,,,,,,,6,,,,69,64
259040,note_off,80,0,15,,,,,,,,7,,,,50,64
259040,note_off,80,0,10,,,,,,,,5,,,,57,64
259040,note_off,80,0,11,,,,,,,,6,,,,74,64
259040,note_off,80,0,13,,,,,,,,7,,,,57,64
259040,note_off,80,0,1,,,,,,,,0,,,,74,64
259040,note_off,80,0,16,,,,,,,,8,,,,38,64
259040,note_off,80,0,9,,,,,,,,5,,,,62,64
259040,note_off,80,0,17,,,,,,,,10,,,,50,64
259080,note_on,40,0,17,,,,,,,,10,,,,50,92
259080,note_on,40,0,16,,,,,,,,8,,,,38,92
259080,note_on,40,0,8,,,,,,,,4,,,,38,92
259080,note_on,40,0,15,,,,,,,,7,,,,50,92
259120,note_off,400,0,20,,,,,,,,13,,,,69,64
259120,note_off,400,0,6,,,,,,,,3,,,,69,64
259160,note_off,80,0,16,,,,,,,,8,,,,38,64
259160,note_off,80,0,17,,,,,,,,10,,,,50,64
259160,note_off,80,0,8,,,,,,,,4,,,,38,64
259160,note_off,80,0,15,,,,,,,,7,,,,50,64
259200,note_on,160,0,14,,,,,,,,7,,,,54,92
259200,note_on,160,0,12,,,,,,,,6,,,,69,92
259200,note_on,160,0,13,,,,,,,,7,,,,57,92
259200,note_on,160,0,5,,,,,,,,3,,,,69,92
259200,note_on,80,0,20,,,,,,,,13,,,,69,92
259200,note_on,160,0,18,,,,,,,,11,,,,74,108
259200,note_on,160,0,22,,,,,,,,15,,,,50,92
259200,note_on,160,0,2,,,,,,,,0,,,,69,92
259200,note_on,40,0,16,,,,,,,,8,,,,38,92
259200,note_on,160,0,11,,,,,,,,6,,,,74,92
259200,note_on,80,0,6,,,,,,,,3,,,,69,92
259200,note_on,160,0,10,,,,,,,,5,,,,57,92
259200,note_on,40,0,17,,,,,,,,10,,,,50,92
259200,note_on,160,0,19,,,,,,,,12,,,,69,92
259200,note_on,160,0,7,,,,,,,,4,,,,62,92
259200,note_on,40,0,15,,,,,,,,7,,,,50,92
259200,note_on,160,0,4,,,,,,,,2,,,,69,92
259200,note_on,160,0,21,,,,,,,,14,,,,62,92
259200,note_on,160,0,9,,,,,,,,5,,,,62,92
259200,note_on,160,0,1,,,,,,,,0,,,,74,92
259200,note_on,40,0,8,,,,,,,,4,,,,38,92
259200,note_on,160,0,3,,,,,,,,2,,,,74,92
259280,note_off,80,0,11,,,,,,,,6,,,,74,64
259280,note_off,80,0,13,,,,,,,,7,,,,57,64
259280,note_off,80,0,17,,,,,,,,10,,,,50,64
259280,note_off,80,0,15,,,,,,,,7,,,,50,64
259280,note_off,80,0,9,,,,,,,,5,,,,62,64
259280,note_off,80,0,12,,,,,,,,6,,,,69,64
259280,note_off,80,0,1,,,,,,,,0,,,,74,64
259280,note_off,80,0,14,,,,,,,,7,,,,54,64
259280,note_off,80,0,16,,,,,,,,8,,,,38,64
259280,note_off,80,0,19,,,,,,,,12,,,,69,64
259280,note_off,80,0,7,,,,,,,,4,,,,62,64
259280,note_off,80,0,4,,,,,,,,2,,,,69,64
259280,note_off,80,0,2,,,,,,,,0,,,,69,64
259280,note_off,80,0,8,,,,,,,,4,,,,38,64
259280,note_off,80,0,10,,,,,,,,5,,,,57,64
259280,note_off,80,0,3,,,,,,,,2,,,,74,64
259280,note_off,80,0,22,,,,,,,,15,,,,50,64
259280,note_off,80,0,18,,,,,,,,11,,,,74,64
259280,note_off,80,0,21,,,,,,,,14,,,,62,64
259280,note_off,80,0,5,,,,,,,,3,,,,69,64
259440,note_on,160,0,13,,,,,,,,7,,,,62,92
259440,note_on,160,0,19,,,,,,,,12,,,,74,92
259440,note_on,160,0,11,,,,,,,,6,,,,78,92
259440,note_on,160,0,3,,,,,,,,2,,,,78,92
259440,note_on,160,0,21,,,,,,,,14,,,,50,92
259440,note_on,160,0,17,,,,,,,,10,,,,50,92
259440,note_on,160,0,9,,,,,,,,5,,,,66,92
259440,note_on,160,0,10,,,,,,,,5,,,,62,92
259440,note_on,160,0,7,,,,,,,,4,,,,50,92
259440,note_on,160,0,16,,,,,,,,8,,,,38,92
259440,note_on,160,0,15,,,,,,,,7,,,,50,92
259440,note_on,160,0,8,,,,,,,,4,,,,38,92
259440,note_on,160,0,12,,,,,,,,6,,,,74,92
259440,note_on,160,0,4,,,,,,,,2,,,,74,92
259440,note_on,160,0,18,,,,,,,,11,,,,78,108
259440,note_on,160,0,1,,,,,,,,0,,,,78,92
259440,note_on,160,0,14,,,,,,,,7,,,,57,92
259440,note_on,160,0,2,,,,,,,,0,,,,74,92
259440,note_on,160,0,22,,,,,,,,15,,,,38,92
259440,note_on,160,0,5,,,,,,,,3,,,,74,92
259520,note_off,80,0,9,,,,,,,,5,,,,66,64
259520,note_off,80,0,8,,,,,,,,4,,,,38,64
259520,note_off,80,0,18,,,,,,,,11,,,,78,64
259520,note_off,80,0,10,,,,,,,,5,,,,62,64
259520,note_off,80,0,14,,,,,,,,7,,,,57,64
259520,note_off,80,0,5,,,,,,,,3,,,,74,64
259520,note_off,80,0,1,,,,,,,,0,,,,78,64
259520,note_off,80,0,7,,,,,,,,4,,,,50,64
259520,note_off,80,0,4,,,,,,,,2,,,,74,64
259520,note_off,80,0,15,,,,,,,,7,,,,50,64
259520,note_off,80,0,19,,,,,,,,12,,,,74,64
259520,note_off,80,0,3,,,,,,,,2,,,,78,64
259520,note_off,80,0,17,,,,,,,,10,,,,50,64
259520,note_off,80,0,2,,,,,,,,0,,,,74,64
259520,note_off,80,0,11,,,,,,,,6,,,,78,64
259520,note_off,80,0,22,,,,,,,,15,,,,38,64
259520,note_off,80,0,21,,,,,,,,14,,,,50,64
259520,note_off,80,0,12,,,,,,,,6,,,,74,64
259520,note_off,80,0,16,,,,,,,,8,,,,38,64
259520,note_off,80,0,13,,,,,,,,7,,,,62,64
259560,note_on,40,0,15,,,,,,,,7,,,,50,92
259560,note_on,40,0,8,,,,,,,,4,,,,38,92
259560,note_on,40,0,17,,,,,,,,10,,,,50,92
259560,note_on,40,0,16,,,,,,,,8,,,,38,92
259640,note_off,80,0,16,,,,,,,,8,,,,38,64
259640,note_off,80,0,15,,,,,,,,7,,,,50,64
259640,note_off,80,0,8,,,,,,,,4,,,,38,64
259640,note_off,80,0,17,,,,,,,,10,,,,50,64
259680,note_on,160,0,14,,,,,,,,7,,,,57,92
259680,note_on,40,0,17,,,,,,,,10,,,,50,92
259680,note_on,160,0,13,,,,,,,,7,,,,62,92
259680,note_on,160,0,4,,,,,,,,2,,,,74,92
259680,note_on,160,0,18,,,,,,,,11,,,,78,108
259680,note_on,160,0,12,,,,,,,,6,,,,74,92
259680,note_on,160,0,1,,,,,,,,0,,,,78,92
259680,note_on,160,0,11,,,,,,,,6,,,,78,92
259680,note_on,160,0,7,,,,,,,,4,,,,50,92
259680,note_on,160,0,10,,,,,,,,5,,,,62,92
259680,note_on,160,0,5,,,,,,,,3,,,,74,92
259680,note_on,160,0,3,,,,,,,,2,,,,78,92
259680,note_on,160,0,21,,,,,,,,14,,,,50,92
259680,note_on,160,0,19,,,,,,,,12,,,,74,92
259680,note_on,40,0,8,,,,,,,,4,,,,38,92
259680,note_on,160,0,2,,,,,,,,0,,,,74,92
259680,note_on,160,0,22,,,,,,,,15,,,,38,92
259680,note_on,160,0,9,,,,,,,,5,,,,66,92
259680,note_on,40,0,16,,,,,,,,8,,,,38,92
259680,note_on,40,0,15,,,,,,,,7,,,,50,92
259760,note_off,80,0,12,,,,,,,,6,,,,74,64
259760,note_off,80,0,14,,,,,,,,7,,,,57,64
259760,note_off,80,0,17,,,,,,,,10,,,,50,64
259760,note_off,80,0,9,,,,,,,,5,,,,66,64
259760,note_off,80,0,19,,,,,,,,12,,,,74,64
259760,note_off,80,0,7,,,,,,,,4,,,,50,64
259760,note_off,80,0,1,,,,,,,,0,,,,78,64
259760,note_off,80,0,11,,,,,,,,6,,,,78,64
259760,note_off,80,0,21,,,,,,,,14,,,,50,64
259760,note_off,80,0,22,,,,,,,,15,,,,38,64
259760,note_off,80,0,8,,,,,,,,4,,,,38,64
259760,note_off,80,0,18,,,,,,,,11,,,,78,64
259760,note_off,80,0,5,,,,,,,,3,,,,74,64
259760,note_off,80,0,4,,,,,,,,2,,,,74,64
259760,note_off,80,0,2,,,,,,,,0,,,,74,64
259760,note_off,80,0,16,,,,,,,,8,,,,38,64
259760,note_off,80,0,13,,,,,,,,7,,,,62,64
259760,note_off,80,0,10,,,,,,,,5,,,,62,64
259760,note_off,80,0,15,,,,,,,,7,,,,50,64
259760,note_off,80,0,3,,,,,,,,2,,,,78,64
259840,note_off,640,0,20,,,,,,,,13,,,,69,64
259840,note_off,640,0,6,,,,,,,,3,,,,69,64
259920,note_on,160,0,14,,,,,,,,7,,,,62,92
259920,note_on,160,0,19,,,,,,,,12,,,,78,92
259920,note_on,160,0,10,,,,,,,,5,,,,66,92
259920,note_on,160,0,16,,,,,,,,8,,,,38,92
259920,note_on,80,0,6,,,,,,,,3,,,,74,92
259920,note_on,160,0,5,,,,,,,,3,,,,78,92
259920,note_on,160,0,15,,,,,,,,7,,,,50,92
259920,note_on,160,0,13,,,,,,,,7,,,,66,92
259920,note_on,160,0,22,,,,,,,,15,,,,50,92
259920,note_on,160,0,2,,,,,,,,0,,,,78,92
259920,note_on,160,0,21,,,,,,,,14,,,,62,92
259920,note_on,160,0,11,,,,,,,,6,,,,81,92
259920,note_on,160,0,3,,,,,,,,2,,,,81,92
259920,note_on,160,0,8,,,,,,,,4,,,,38,92
259920,note_on,80,0,20,,,,,,,,13,,,,74,92
259920,note_on,160,0,9,,,,,,,,5,,,,69,92
259920,note_on,160,0,18,,,,,,,,11,,,,81,108
259920,note_on,160,0,7,,,,,,,,4,,,,62,92
259920,note_on,160,0,17,,,,,,,,10,,,,50,92
259920,note_on,160,0,1,,,,,,,,0,,,,81,92
259920,note_on,160,0,4,,,,,,,,2,,,,78,92
259920,note_on,160,0,12,,,,,,,,6,,,,78,92
260000,note_off,80,0,11,,,,,,,,6,,,,81,64
260000,note_off,80,0,3,,,,,,,,2,,,,81,64
260000,note_off,80,0,8,,,,,,,,4,,,,38,64
260000,note_off,80,0,9,,,,,,,,5,,,,69,64
260000,note_off,80,0,2,,,,,,,,0,,,,78,64
260000,note_off,80,0,7,,,,,,,,4,,,,62,64
260000,note_off,80,0,15,,,,,,,,7,,,,50,64
260000,note_off,80,0,17,,,,,,,,10,,,,50,64
260000,note_off,80,0,5,,,,,,,,3,,,,78,64
260000,note_off,80,0,16,,,,,,,,8,,,,38,64
260000,note_off,80,0,21,,,,,,,,14,,,,62,64
260000,note_off,80,0,19,,,,,,,,12,,,,78,64
260000,note_off,80,0,18,,,,,,,,11,,,,81,64
260000,note_off,80,0,14,,,,,,,,7,,,,62,64
260000,note_off,80,0,10,,,,,,,,5,,,,66,64
260000,note_off,80,0,12,,,,,,,,6,,,,78,64
260000,note_off,80,0,4,,,,,,,,2,,,,78,64
260000,note_off,80,0,22,,,,,,,,15,,,,50,64
260000,note_off,80,0,13,,,,,,,,7,,,,66,64
260000,note_off,80,0,1,,,,,,,,0,,,,81,64
260155,note_off,235,0,20,,,,,,,,13,,,,74,64
260155,note_off,235,0,6,,,,,,,,3,,,,74,64
260160,note_on,160,0,2,,,,,,,,0,,,,78,92
260160,note_on,5,0,20,,,,,,,,13,,,,74,92
260160,note_on,160,0,5,,,,,,,,3,,,,78,92
260160,note_on,160,0,17,,,,,,,,10,,,,50,92
260160,note_on,160,0,11,,,,,,,,6,,,,81,92
260160,note_on,160,0,21,,,,,,,,14,,,,62,92
260160,note_on,160,0,7,,,,,,,,4,,,,62,92
260160,note_on,160,0,22,,,,,,,,15,,,,50,92
260160,note_on,160,0,4,,,,,,,,2,,,,78,92
260160,note_on,160,0,15,,,,,,,,7,,,,50,92
260160,note_on,160,0,8,,,,,,,,4,,,,38,92
260160,note_on,160,0,9,,,,,,,,5,,,,69,92
260160,note_on,160,0,3,,,,,,,,2,,,,81,92
260160,note_on,160,0,16,,,,,,,,8,,,,38,92
260160,note_on,160,0,1,,,,,,,,0,,,,81,92
260160,note_on,5,0,6,,,,,,,,3,,,,74,92
260160,note_on,160,0,19,,,,,,,,12,,,,78,92
260160,note_on,160,0,18,,,,,,,,11,,,,81,108
260160,note_on,160,0,10,,,,,,,,5,,,,66,92
260160,note_on,160,0,13,,,,,,,,7,,,,66,92
260160,note_on,160,0,12,,,,,,,,6,,,,78,92
260160,note_on,160,0,14,,,,,,,,7,,,,62,92
260240,note_off,80,0,5,,,,,,,,3,,,,78,64
260240,note_off,80,0,22,,,,,,,,15,,,,50,64
260240,note_off,80,0,15,,,,,,,,7,,,,50,64
260240,note_off,80,0,16,,,,,,,,8,,,,38,64
260240,note_off,80,0,10,,,,,,,,5,,,,66,64
260240,note_off,80,0,7,,,,,,,,4,,,,62,64
260240,note_off,80,0,18,,,,,,,,11,,,,81,64
260240,note_off,80,0,2,,,,,,,,0,,,,78,64
260240,note_off,80,0,12,,,,,,,,6,,,,78,64
260240,note_off,80,0,13,,,,,,,,7,,,,66,64
260240,note_off,80,0,1,,,,,,,,0,,,,81,64
260240,note_off,80,0,3,,,,,,,,2,,,,81,64
260240,note_off,80,0,4,,,,,,,,2,,,,78,64
260240,note_off,80,0,21,,,,,,,,14,,,,62,64
260240,note_off,80,0,19,,,,,,,,12,,,,78,64
260240,note_off,80,0,14,,,,,,,,7,,,,62,64
260400,note_on,160,0,1,,,,,,,,0,,,,78,92
260400,note_on,160,0,7,,,,,,,,4,,,,50,92
260400,note_on,160,0,14,,,,,,,,7,,,,57,92
260400,note_on,160,0,5,,,,,,,,3,,,,74,92
260400,note_on,160,0,4,,,,,,,,2,,,,74,92
260400,note_on,160,0,21,,,,,,,,14,,,,50,92
260400,note_on,160,0,13,,,,,,,,7,,,,62,92
260400,note_on,160,0,19,,,,,,,,12,,,,74,92
260400,note_on,160,0,22,,,,,,,,15,,,,38,92
260400,note_on,160,0,10,,,,,,,,5,,,,62,92
260400,note_on,160,0,16,,,,,,,,8,,,,38,92
260400,note_on,160,0,3,,,,,,,,2,,,,78,92
260400,note_on,160,0,18,,,,,,,,11,,,,78,108
260400,note_on,160,0,15,,,,,,,,7,,,,50,92
260400,note_on,160,0,2,,,,,,,,0,,,,74,92
260400,note_on,160,0,12,,,,,,,,6,,,,74,92
260480,note_off,80,0,4,,,,,,,,2,,,,74,64
260480,note_off,80,0,15,,,,,,,,7,,,,50,64
260480,note_off,80,0,22,,,,,,,,15,,,,38,64
260480,note_off,80,0,5,,,,,,,,3,,,,74,64
260480,note_off,80,0,10,,,,,,,,5,,,,62,64
260480,note_off,80,0,14,,,,,,,,7,,,,57,64
260480,note_off,80,0,21,,,,,,,,14,,,,50,64
260480,note_off,80,0,13,,,,,,,,7,,,,62,64
260480,note_off,80,0,19,,,,,,,,12,,,,74,64
260480,note_off,80,0,1,,,,,,,,0,,,,78,64
260480,note_off,80,0,2,,,,,,,,0,,,,74,64
260480,note_off,80,0,3,,,,,,,,2,,,,78,64
260480,note_off,80,0,12,,,,,,,,6,,,,74,64
260480,note_off,80,0,18,,,,,,,,11,,,,78,64
260480,note_off,80,0,7,,,,,,,,4,,,,50,64
260480,note_off,80,0,16,,,,,,,,8,,,,38,64
260560,note_off,400,0,17,,,,,,,,10,,,,50,64
260560,note_off,400,0,8,,,,,,,,4,,,,38,64
260640,note_on,160,0,19,,,,,,,,12,,,,69,92
260640,note_on,160,0,5,,,,,,,,3,,,,69,92
260640,note_on,160,0,1,,,,,,,,0,,,,78,92
260640,note_on,160,0,4,,,,,,,,2,,,,69,92
260640,note_on,160,0,14,,,,,,,,7,,,,54,92
260640,note_on,160,0,12,,,,,,,,6,,,,69,92
260640,note_on,80,0,8,,,,,,,,4,,,,38,92
260640,note_on,160,0,18,,,,,,,,11,,,,78,108
260640,note_on,160,0,13,,,,,,,,7,,,,57,92
260640,note_on,80,0,17,,,,,,,,10,,,,50,92
260640,note_on,160,0,3,,,,,,,,2,,,,78,92
260640,note_on,160,0,10,,,,,,,,5,,,,57,92
260640,note_on,160,0,2,,,,,,,,0,,,,69,92
260640,note_on,160,0,15,,,,,,,,7,,,,50,92
260640,note_on,160,0,16,,,,,,,,8,,,,38,92
260720,note_off,80,0,18,,,,,,,,11,,,,78,64
260720,note_off,80,0,19,,,,,,,,12,,,,69,64
260720,note_off,80,0,2,,,,,,,,0,,,,69,64
260720,note_off,80,0,4,,,,,,,,2,,,,69,64
260720,note_off,80,0,3,,,,,,,,2,,,,78,64
260720,note_off,80,0,5,,,,,,,,3,,,,69,64
260720,note_off,80,0,14,,,,,,,,7,,,,54,64
260720,note_off,80,0,13,,,,,,,,7,,,,57,64
260720,note_off,80,0,12,,,,,,,,6,,,,69,64
260720,note_off,80,0,1,,,,,,,,0,,,,78,64
260720,note_off,80,0,10,,,,,,,,5,,,,57,64
260800,note_off,640,0,6,,,,,,,,3,,,,74,64
260800,note_off,640,0,20,,,,,,,,13,,,,74,64
260880,note_on,160,0,5,,,,,,,,3,,,,78,92
260880,note_on,160,0,12,,,,,,,,6,,,,78,92
260880,note_on,160,0,18,,,,,,,,11,,,,81,108
260880,note_on,80,0,20,,,,,,,,13,,,,74,92
260880,note_on,400,0,7,,,,,,,,4,,,,62,92
260880,note_on,160,0,14,,,,,,,,7,,,,62,92
260880,note_on,160,0,3,,,,,,,,2,,,,81,92
260880,note_on,160,0,10,,,,,,,,5,,,,66,92
260880,note_on,160,0,1,,,,,,,,0,,,,81,92
260880,note_on,80,0,6,,,,,,,,3,,,,74,92
260880,note_on,400,0,22,,,,,,,,15,,,,50,92
260880,note_on,400,0,21,,,,,,,,14,,,,62,92
260880,note_on,160,0,4,,,,,,,,2,,,,78,92
260880,note_on,160,0,13,,,,,,,,7,,,,66,92
260880,note_on,160,0,2,,,,,,,,0,,,,78,92
260880,note_on,160,0,19,,,,,,,,12,,,,78,92
260960,note_off,80,0,3,,,,,,,,2,,,,81,64
260960,note_off,80,0,2,,,,,,,,0,,,,78,64
260960,note_off,80,0,4,,,,,,,,2,,,,78,64
260960,note_off,80,0,13,,,,,,,,7,,,,66,64
260960,note_off,80,0,10,,,,,,,,5,,,,66,64
260960,note_off,80,0,7,,,,,,,,4,,,,62,64
260960,note_off,80,0,18,,,,,,,,11,,,,81,64
260960,note_off,80,0,1,,,,,,,,0,,,,81,64
260960,note_off,80,0,5,,,,,,,,3,,,,78,64
260960,note_off,80,0,12,,,,,,,,6,,,,78,64
260960,note_off,80,0,19,,,,,,,,12,,,,78,64
260960,note_off,80,0,21,,,,,,,,14,,,,62,64
260960,note_off,80,0,14,,,,,,,,7,,,,62,64
260960,note_off,80,0,22,,,,,,,,15,,,,50,64
261040,note_off,400,0,16,,,,,,,,8,,,,38,64
261040,note_off,400,0,17,,,,,,,,10,,,,50,64
261040,note_off,400,0,8,,,,,,,,4,,,,38,64
261040,note_off,400,0,15,,,,,,,,7,,,,50,64
261115,note_off,235,0,6,,,,,,,,3,,,,74,64
261115,note_off,235,0,20,,,,,,,,13,,,,74,64
261120,note_on,160,0,14,,,,,,,,7,,,,57,92
261120,note_on,160,0,12,,,,,,,,6,,,,76,92
261120,note_on,160,0,10,,,,,,,,5,,,,64,92
261120,note_on,160,0,1,,,,,,,,0,,,,81,92
261120,note_on,160,0,18,,,,,,,,11,,,,81,108
261120,note_on,5,0,6,,,,,,,,3,,,,76,92
261120,note_on,160,0,22,,,,,,,,15,,,,49,92
261120,note_on,5,0,20,,,,,,,,13,,,,76,92
261120,note_on,160,0,21,,,,,,,,14,,,,61,92
261120,note_on,160,0,3,,,,,,,,2,,,,81,92
261120,note_on,160,0,7,,,,,,,,4,,,,61,92
261120,note_on,160,0,5,,,,,,,,3,,,,76,92
261120,note_on,160,0,4,,,,,,,,2,,,,76,92
261120,note_on,160,0,19,,,,,,,,12,,,,76,92
261120,note_on,160,0,13,,,,,,,,7,,,,64,92
261120,note_on,160,0,2,,,,,,,,0,,,,76,92
261200,note_off,80,0,3,,,,,,,,2,,,,81,64
261200,note_off,80,0,5,,,,,,,,3,,,,76,64
261200,note_off,80,0,18,,,,,,,,11,,,,81,64
261200,note_off,80,0,19,,,,,,,,12,,,,76,64
261200,note_off,80,0,4,,,,,,,,2,,,,76,64
261200,note_off,80,0,14,,,,,,,,7,,,,57,64
261200,note_off,80,0,21,,,,,,,,14,,,,61,64
261200,note_off,80,0,7,,,,,,,,4,,,,61,64
261200,note_off,80,0,2,,,,,,,,0,,,,76,64
261200,note_off,80,0,1,,,,,,,,0,,,,81,64
261200,note_off,80,0,22,,,,,,,,15,,,,49,64
261200,note_off,80,0,10,,,,,,,,5,,,,64,64
261355,note_off,235,0,20,,,,,,,,13,,,,76,64
261355,note_off,235,0,6,,,,,,,,3,,,,76,64
261360,note_off,240,0,13,,,,,,,,7,,,,64,64
261360,note_on,160,0,19,,,,,,,,12,,,,78,92
261360,note_on,0,0,12,,,,,,,,6,,,,78,92
261360,note_on,160,0,3,,,,,,,,2,,,,83,92
261360,note_on,160,0,18,,,,,,,,11,,,,83,108
261360,note_on,160,0,10,,,,,,,,5,,,,66,92
261360,note_on,160,0,7,,,,,,,,4,,,,62,92
261360,note_on,160,0,5,,,,,,,,3,,,,78,92
261360,note_off,240,0,12,,,,,,,,6,,,,76,64
261360,note_on,0,0,13,,,,,,,,7,,,,66,92
261360,note_on,160,0,1,,,,,,,,0,,,,83,92
261360,note_on,160,0,21,,,,,,,,14,,,,62,92
261360,note_on,5,0,20,,,,,,,,13,,,,74,92
261360,note_on,160,0,22,,,,,,,,15,,,,50,92
261360,note_on,160,0,4,,,,,,,,2,,,,78,92
261360,note_on,160,0,14,,,,,,,,7,,,,54,92
261360,note_on,5,0,6,,,,,,,,3,,,,74,92
261360,note_on,160,0,2,,,,,,,,0,,,,78,92
261440,note_off,80,0,1,,,,,,,,0,,,,83,64
261440,note_off,80,0,14,,,,,,,,7,,,,54,64
261440,note_off,80,0,19,,,,,,,,12,,,,78,64
261440,note_off,80,0,2,,,,,,,,0,,,,78,64
261440,note_off,80,0,13,,,,,,,,7,,,,66,64
261440,note_off,80,0,12,,,,,,,,6,,,,78,64
261440,note_off,80,0,3,,,,,,,,2,,,,83,64
261440,note_off,80,0,22,,,,,,,,15,,,,50,64
261440,note_off,80,0,18,,,,,,,,11,,,,83,64
261440,note_off,80,0,4,,,,,,,,2,,,,78,64
261440,note_off,80,0,7,,,,,,,,4,,,,62,64
261440,note_off,80,0,5,,,,,,,,3,,,,78,64
261440,note_off,80,0,21,,,,,,,,14,,,,62,64
261440,note_off,80,0,10,,,,,,,,5,,,,66,64
261480,note_on,40,0,21,,,,,,,,14,,,,61,92
261480,note_off,1320,0,9,,,,,,,,5,,,,69,64
261480,note_off,120,0,20,,,,,,,,13,,,,74,64
261480,note_on,40,0,10,,,,,,,,5,,,,64,92
261480,note_off,1320,0,11,,,,,,,,6,,,,81,64
261480,note_on,40,0,2,,,,,,,,0,,,,76,92
261480,note_on,40,0,22,,,,,,,,15,,,,49,92
261480,note_on,40,0,12,,,,,,,,6,,,,76,92
261480,note_on,40,0,13,,,,,,,,7,,,,64,92
261480,note_on,0,0,20,,,,,,,,13,,,,76,92
261480,note_on,40,0,3,,,,,,,,2,,,,85,92
261480,note_on,40,0,4,,,,,,,,2,,,,76,92
261480,note_off,120,0,6,,,,,,,,3,,,,74,64
261480,note_on,40,0,18,,,,,,,,11,,,,85,108
261480,note_on,40,0,7,,,,,,,,4,,,,61,92
261480,note_on,40,0,1,,,,,,,,0,,,,85,92
261480,note_on,0,0,6,,,,,,,,3,,,,76,92
261480,note_on,40,0,19,,,,,,,,12,,,,76,92
261480,note_on,40,0,5,,,,,,,,3,,,,76,92
261560,note_off,80,0,18,,,,,,,,11,,,,85,64
261560,note_off,80,0,19,,,,,,,,12,,,,76,64
261560,note_off,80,0,12,,,,,,,,6,,,,76,64
261560,note_off,80,0,21,,,,,,,,14,,,,61,64
261560,note_off,80,0,2,,,,,,,,0,,,,76,64
261560,note_off,80,0,13,,,,,,,,7,,,,64,64
261560,note_off,80,0,10,,,,,,,,5,,,,64,64
261560,note_off,80,0,22,,,,,,,,15,,,,49,64
261560,note_off,80,0,4,,,,,,,,2,,,,76,64
261560,note_off,80,0,3,,,,,,,,2,,,,85,64
261560,note_off,80,0,1,,,,,,,,0,,,,85,64
261560,note_off,80,0,7,,,,,,,,4,,,,61,64
261560,note_off,80,0,5,,,,,,,,3,,,,76,64
261595,note_off,115,0,20,,,,,,,,13,,,,76,64
261595,note_off,115,0,6,,,,,,,,3,,,,76,64
261600,note_on,560,0,15,,,,,,,,7,,,,50,92
261600,note_on,40,0,10,,,,,,,,5,,,,66,92
261600,note_on,40,0,19,,,,,,,,12,,,,74,92
261600,note_on,5,0,20,,,,,,,,13,,,,78,92
261600,note_on,160,0,14,,,,,,,,7,,,,57,92
261600,note_on,40,0,4,,,,,,,,2,,,,74,92
261600,note_on,40,0,2,,,,,,,,0,,,,74,92
261600,note_on,40,0,5,,,,,,,,3,,,,74,92
261600,note_on,40,0,1,,,,,,,,0,,,,86,92
261600,note_on,40,0,22,,,,,,,,15,,,,47,92
261600,note_on,120,0,9,,,,,,,,5,,,,62,92
261600,note_on,40,0,3,,,,,,,,2,,,,86,92
261600,note_on,40,0,7,,,,,,,,4,,,,59,92
261600,note_on,40,0,13,,,,,,,,7,,,,66,92
261600,note_on,560,0,16,,,,,,,,8,,,,38,92
261600,note_on,40,0,21,,,,,,,,14,,,,59,92
261600,note_on,560,0,17,,,,,,,,10,,,,50,92
261600,note_on,560,0,8,,,,,,,,4,,,,38,92
261600,note_on,5,0,6,,,,,,,,3,,,,78,92
261600,note_on,40,0,18,,,,,,,,11,,,,86,108
261600,note_on,120,0,11,,,,,,,,6,,,,74,92
261600,note_on,40,0,12,,,,,,,,6,,,,78,92
261680,note_off,80,0,2,,,,,,,,0,,,,74,64
261680,note_off,80,0,19,,,,,,,,12,,,,74,64
261680,note_off,80,0,7,,,,,,,,4,,,,59,64
261680,note_off,80,0,14,,,,,,,,7,,,,57,64
261680,note_off,80,0,22,,,,,,,,15,,,,47,64
261680,note_off,80,0,4,,,,,,,,2,,,,74,64
261680,note_off,80,0,16,,,,,,,,8,,,,38,64
261680,note_off,80,0,3,,,,,,,,2,,,,86,64
261680,note_off,80,0,5,,,,,,,,3,,,,74,64
261680,note_off,80,0,15,,,,,,,,7,,,,50,64
261680,note_off,80,0,18,,,,,,,,11,,,,86,64
261680,note_off,80,0,21,,,,,,,,14,,,,59,64
261680,note_off,80,0,1,,,,,,,,0,,,,86,64
261835,note_off,235,0,20,,,,,,,,13,,,,78,64
261835,note_off,235,0,6,,,,,,,,3,,,,78,64
261840,note_on,160,0,16,,,,,,,,8,,,,38,92
261840,note_on,160,0,7,,,,,,,,4,,,,47,92
261840,note_on,160,0,21,,,,,,,,14,,,,47,92
261840,note_on,160,0,4,,,,,,,,2,,,,71,92
261840,note_on,5,0,6,,,,,,,,3,,,,74,92
261840,note_on,160,0,18,,,,,,,,11,,,,74,108
261840,note_on,5,0,20,,,,,,,,13,,,,74,92
261840,note_on,160,0,14,,,,,,,,7,,,,54,92
261840,note_on,160,0,1,,,,,,,,0,,,,74,92
261840,note_on,160,0,22,,,,,,,,15,,,,35,92
261840,note_on,160,0,3,,,,,,,,2,,,,74,92
261840,note_on,160,0,2,,,,,,,,0,,,,71,92
261840,note_on,160,0,15,,,,,,,,7,,,,50,92
261840,note_on,160,0,19,,,,,,,,12,,,,71,92
261840,note_on,160,0,5,,,,,,,,3,,,,71,92
261920,note_off,80,0,16,,,,,,,,8,,,,38,64
261920,note_off,80,0,3,,,,,,,,2,,,,74,64
261920,note_off,80,0,14,,,,,,,,7,,,,54,64
261920,note_off,80,0,5,,,,,,,,3,,,,71,64
261920,note_off,80,0,7,,,,,,,,4,,,,47,64
261920,note_off,80,0,19,,,,,,,,12,,,,71,64
261920,note_off,80,0,1,,,,,,,,0,,,,74,64
261920,note_off,80,0,18,,,,,,,,11,,,,74,64
261920,note_off,80,0,4,,,,,,,,2,,,,71,64
261920,note_off,80,0,15,,,,,,,,7,,,,50,64
261920,note_off,80,0,21,,,,,,,,14,,,,47,64
261920,note_off,80,0,22,,,,,,,,15,,,,35,64
261920,note_off,80,0,2,,,,,,,,0,,,,71,64
262000,note_off,400,0,12,,,,,,,,6,,,,78,64
262000,note_off,400,0,11,,,,,,,,6,,,,74,64
262000,note_off,400,0,10,,,,,,,,5,,,,66,64
262000,note_off,400,0,8,,,,,,,,4,,,,38,64
262000,note_off,400,0,9,,,,,,,,5,,,,62,64
262000,note_off,400,0,17,,,,,,,,10,,,,50,64
262000,note_off,400,0,13,,,,,,,,7,,,,66,64
262075,note_off,235,0,20,,,,,,,,13,,,,74,64
262075,note_off,235,0,6,,,,,,,,3,,,,74,64
262080,note_on,160,0,19,,,,,,,,12,,,,78,92
262080,note_on,160,0,5,,,,,,,,3,,,,78,92
262080,note_on,160,0,4,,,,,,,,2,,,,78,92
262080,note_on,160,0,2,,,,,,,,0,,,,78,92
262080,note_on,5,0,6,,,,,,,,3,,,,74,92
262080,note_on,5,0,20,,,,,,,,13,,,,74,92
262080,note_on,80,0,11,,,,,,,,6,,,,74,92
262080,note_on,80,0,9,,,,,,,,5,,,,62,92
262080,note_on,160,0,14,,,,,,,,7,,,,50,92
262160,note_off,80,0,14,,,,,,,,7,,,,50,64
262320,note_on,400,0,16,,,,,,,,8,,,,38,92
262320,note_on,320,0,10,,,,,,,,5,,,,66,92
262320,note_on,320,0,12,,,,,,,,6,,,,78,92
262320,note_on,320,0,17,,,,,,,,10,,,,50,92
262320,note_on,400,0,22,,,,,,,,15,,,,47,92
262320,note_on,400,0,15,,,,,,,,7,,,,50,92
262320,note_on,320,0,13,,,,,,,,7,,,,66,92
262320,note_on,400,0,18,,,,,,,,11,,,,86,108
262320,note_on,160,0,14,,,,,,,,7,,,,57,92
262320,note_on,400,0,21,,,,,,,,14,,,,59,92
262320,note_on,400,0,7,,,,,,,,4,,,,59,92
262320,note_on,320,0,8,,,,,,,,4,,,,38,92
262320,note_on,400,0,1,,,,,,,,0,,,,86,92
262320,note_on,400,0,3,,,,,,,,2,,,,86,92
262400,note_off,80,0,3,,,,,,,,2,,,,86,64
262400,note_off,80,0,15,,,,,,,,7,,,,50,64
262400,note_off,80,0,8,,,,,,,,4,,,,38,64
262400,note_off,80,0,10,,,,,,,,5,,,,66,64
262400,note_off,80,0,7,,,,,,,,4,,,,59,64
262400,note_off,80,0,18,,,,,,,,11,,,,86,64
262400,note_off,80,0,13,,,,,,,,7,,,,66,64
262400,note_off,80,0,12,,,,,,,,6,,,,78,64
262400,note_off,80,0,1,,,,,,,,0,,,,86,64
262400,note_off,80,0,21,,,,,,,,14,,,,59,64
262400,note_off,80,0,22,,,,,,,,15,,,,47,64
262400,note_off,80,0,14,,,,,,,,7,,,,57,64
262400,note_off,80,0,17,,,,,,,,10,,,,50,64
262400,note_off,80,0,16,,,,,,,,8,,,,38,64
262480,note_off,400,0,6,,,,,,,,3,,,,74,64
262480,note_off,400,0,11,,,,,,,,6,,,,74,64
262480,note_off,400,0,9,,,,,,,,5,,,,62,64
262480,note_off,400,0,20,,,,,,,,13,,,,74,64
262560,note_on,160,0,17,,,,,,,,10,,,,50,92
262560,note_on,160,0,18,,,,,,,,11,,,,85,108
262560,note_on,160,0,14,,,,,,,,7,,,,54,92
262560,note_on,160,0,12,,,,,,,,6,,,,78,92
262560,note_on,160,0,3,,,,,,,,2,,,,85,92
262560,note_on,160,0,1,,,,,,,,0,,,,85,92
262560,note_on,80,0,20,,,,,,,,13,,,,66,92
262560,note_on,160,0,15,,,,,,,,7,,,,50,92
262560,note_on,80,0,6,,,,,,,,3,,,,66,92
262560,note_on,160,0,8,,,,,,,,4,,,,38,92
262560,note_on,160,0,10,,,,,,,,5,,,,66,92
262560,note_on,160,0,13,,,,,,,,7,,,,66,92
262560,note_on,80,0,9,,,,,,,,5,,,,61,92
262560,note_on,160,0,7,,,,,,,,4,,,,57,92
262560,note_on,160,0,22,,,,,,,,15,,,,45,92
262560,note_on,160,0,16,,,,,,,,8,,,,38,92
262560,note_on,160,0,21,,,,,,,,14,,,,57,92
262560,note_on,80,0,11,,,,,,,,6,,,,73,92
262640,note_off,80,0,17,,,,,,,,10,,,,50,64
262640,note_off,80,0,22,,,,,,,,15,,,,45,64
262640,note_off,80,0,16,,,,,,,,8,,,,38,64
262640,note_off,80,0,21,,,,,,,,14,,,,57,64
262640,note_off,80,0,15,,,,,,,,7,,,,50,64
262640,note_off,80,0,14,,,,,,,,7,,,,54,64
262640,note_off,80,0,10,,,,,,,,5,,,,66,64
262640,note_off,80,0,18,,,,,,,,11,,,,85,64
262640,note_off,80,0,1,,,,,,,,0,,,,85,64
262640,note_off,80,0,3,,,,,,,,2,,,,85,64
262640,note_off,80,0,7,,,,,,,,4,,,,57,64
262640,note_off,80,0,8,,,,,,,,4,,,,38,64
262720,note_off,640,0,5,,,,,,,,3,,,,78,64
262720,note_off,640,0,4,,,,,,,,2,,,,78,64
262720,note_off,640,0,2,,,,,,,,0,,,,78,64
262720,note_off,640,0,19,,,,,,,,12,,,,78,64
262800,note_on,0,0,13,,,,,,,,7,,,,67,92
262800,note_on,80,0,5,,,,,,,,3,,,,78,92
262800,note_on,160,0,17,,,,,,,,10,,,,50,92
262800,note_on,160,0,22,,,,,,,,15,,,,47,92
262800,note_on,80,0,2,,,,,,,,0,,,,78,92
262800,note_on,160,0,8,,,,,,,,4,,,,38,92
262800,note_off,240,0,12,,,,,,,,6,,,,78,64
262800,note_on,0,0,12,,,,,,,,6,,,,79,92
262800,note_off,240,0,13,,,,,,,,7,,,,66,64
262800,note_on,80,0,19,,,,,,,,12,,,,78,92
262800,note_on,160,0,16,,,,,,,,8,,,,38,92
262800,note_on,80,0,4,,,,,,,,2,,,,78,92
262800,note_on,160,0,15,,,,,,,,7,,,,50,92
262800,note_on,160,0,3,,,,,,,,2,,,,86,92
262800,note_on,160,0,10,,,,,,,,5,,,,67,92
262800,note_on,160,0,1,,,,,,,,0,,,,86,92
262800,note_on,160,0,18,,,,,,,,11,,,,86,108
262800,note_on,160,0,7,,,,,,,,4,,,,59,92
262800,note_on,160,0,21,,,,,,,,14,,,,59,92
262800,note_on,160,0,14,,,,,,,,7,,,,50,92
262880,note_off,80,0,13,,,,,,,,7,,,,67,64
262880,note_off,80,0,1,,,,,,,,0,,,,86,64
262880,note_off,80,0,22,,,,,,,,15,,,,47,64
262880,note_off,80,0,3,,,,,,,,2,,,,86,64
262880,note_off,80,0,17,,,,,,,,10,,,,50,64
262880,note_off,80,0,21,,,,,,,,14,,,,59,64
262880,note_off,80,0,12,,,,,,,,6,,,,79,64
262880,note_off,80,0,16,,,,,,,,8,,,,38,64
262880,note_off,80,0,15,,,,,,,,7,,,,50,64
262880,note_off,80,0,18,,,,,,,,11,,,,86,64
262880,note_off,80,0,10,,,,,,,,5,,,,67,64
262880,note_off,80,0,7,,,,,,,,4,,,,59,64
262880,note_off,80,0,8,,,,,,,,4,,,,38,64
262880,note_off,80,0,14,,,,,,,,7,,,,50,64
262920,note_on,40,0,1,,,,,,,,0,,,,85,92
262920,note_on,40,0,3,,,,,,,,2,,,,85,92
262920,note_on,40,0,7,,,,,,,,4,,,,57,92
262920,note_on,40,0,21,,,,,,,,14,,,,57,92
262920,note_on,40,0,12,,,,,,,,6,,,,78,92
262920,note_on,40,0,17,,,,,,,,10,,,,50,92
262920,note_on,40,0,18,,,,,,,,11,,,,85,108
262920,note_on,40,0,13,,,,,,,,7,,,,66,92
262920,note_on,40,0,15,,,,,,,,7,,,,50,92
262920,note_on,40,0,22,,,,,,,,15,,,,45,92
262920,note_on,40,0,16,,,,,,,,8,,,,38,92
262920,note_on,40,0,8,,,,,,,,4,,,,38,92
262920,note_on,40,0,10,,,,,,,,5,,,,66,92
262960,note_off,400,0,9,,,,,,,,5,,,,61,64
262960,note_off,400,0,11,,,,,,,,6,,,,73,64
262960,note_off,400,0,20,,,,,,,,13,,,,66,64
262960,note_off,400,0,6,,,,,,,,3,,,,66,64
263000,note_off,80,0,8,,,,,,,,4,,,,38,64
263000,note_off,80,0,16,,,,,,,,8,,,,38,64
263000,note_off,80,0,15,,,,,,,,7,,,,50,64
263000,note_off,80,0,12,,,,,,,,6,,,,78,64
263000,note_off,80,0,21,,,,,,,,14,,,,57,64
263000,note_off,80,0,10,,,,,,,,5,,,,66,64
263000,note_off,80,0,18,,,,,,,,11,,,,85,64
263000,note_off,80,0,3,,,,,,,,2,,,,85,64
263000,note_off,80,0,22,,,,,,,,15,,,,45,64
263000,note_off,80,0,17,,,,,,,,10,,,,50,64
263000,note_off,80,0,13,,,,,,,,7,,,,66,64
263000,note_off,80,0,1,,,,,,,,0,,,,85,64
263000,note_off,80,0,7,,,,,,,,4,,,,57,64
263035,note_off,235,0,19,,,,,,,,12,,,,78,64
263035,note_off,235,0,2,,,,,,,,0,,,,78,64
263035,note_off,235,0,5,,,,,,,,3,,,,78,64
263035,note_off,235,0,4,,,,,,,,2,,,,78,64
263040,note_on,80,0,9,,,,,,,,5,,,,59,92
263040,note_on,5,0,5,,,,,,,,3,,,,79,92
263040,note_on,80,0,20,,,,,,,,13,,,,74,92
263040,note_on,40,0,10,,,,,,,,5,,,,67,92
263040,note_on,40,0,7,,,,,,,,4,,,,55,92
263040,note_on,5,0,2,,,,,,,,0,,,,79,92
263040,note_on,40,0,22,,,,,,,,15,,,,43,92
263040,note_on,40,0,13,,,,,,,,7,,,,67,92
263040,note_on,40,0,16,,,,,,,,8,,,,38,92
263040,note_on,40,0,21,,,,,,,,14,,,,55,92
263040,note_on,40,0,3,,,,,,,,2,,,,83,92
263040,note_on,80,0,11,,,,,,,,6,,,,71,92
263040,note_on,160,0,14,,,,,,,,7,,,,59,92
263040,note_on,40,0,1,,,,,,,,0,,,,83,92
263040,note_on,80,0,6,,,,,,,,3,,,,74,92
263040,note_on,5,0,4,,,,,,,,2,,,,79,92
263040,note_on,40,0,8,,,,,,,,4,,,,38,92
263040,note_on,40,0,17,,,,,,,,10,,,,50,92
263040,note_on,40,0,18,,,,,,,,11,,,,83,108
263040,note_on,40,0,12,,,,,,,,6,,,,79,92
263040,note_on,40,0,15,,,,,,,,7,,,,50,92
263040,note_on,5,0,19,,,,,,,,12,,,,79,92
263120,note_off,80,0,1,,,,,,,,0,,,,83,64
263120,note_off,80,0,22,,,,,,,,15,,,,43,64
263120,note_off,80,0,17,,,,,,,,10,,,,50,64
263120,note_off,80,0,18,,,,,,,,11,,,,83,64
263120,note_off,80,0,15,,,,,,,,7,,,,50,64
263120,note_off,80,0,8,,,,,,,,4,,,,38,64
263120,note_off,80,0,16,,,,,,,,8,,,,38,64
263120,note_off,80,0,3,,,,,,,,2,,,,83,64
263120,note_off,80,0,21,,,,,,,,14,,,,55,64
263120,note_off,80,0,7,,,,,,,,4,,,,55,64
263280,note_on,160,0,15,,,,,,,,7,,,,50,92
263280,note_on,160,0,8,,,,,,,,4,,,,38,92
263280,note_on,160,0,18,,,,,,,,11,,,,71,108
263280,note_on,160,0,17,,,,,,,,10,,,,50,92
263280,note_on,160,0,16,,,,,,,,8,,,,38,92
263280,note_on,160,0,22,,,,,,,,15,,,,31,92
263280,note_on,160,0,3,,,,,,,,2,,,,71,92
263280,note_on,160,0,7,,,,,,,,4,,,,43,92
263280,note_on,160,0,21,,,,,,,,14,,,,43,92
263280,note_on,160,0,1,,,,,,,,0,,,,71,92
263360,note_off,80,0,21,,,,,,,,14,,,,43,64
263360,note_off,80,0,22,,,,,,,,15,,,,31,64
263360,note_off,80,0,7,,,,,,,,4,,,,43,64
263360,note_off,80,0,3,,,,,,,,2,,,,71,64
263360,note_off,80,0,1,,,,,,,,0,,,,71,64
263360,note_off,80,0,16,,,,,,,,8,,,,38,64
263360,note_off,80,0,17,,,,,,,,10,,,,50,64
263360,note_off,80,0,18,,,,,,,,11,,,,71,64
263360,note_off,80,0,15,,,,,,,,7,,,,50,64
263360,note_off,80,0,8,,,,,,,,4,,,,38,64
263440,note_off,400,0,11,,,,,,,,6,,,,71,64
263440,note_off,400,0,4,,,,,,,,2,,,,79,64
263440,note_off,400,0,19,,,,,,,,12,,,,79,64
263440,note_off,400,0,20,,,,,,,,13,,,,74,64
263440,note_off,400,0,12,,,,,,,,6,,,,79,64
263440,note_off,400,0,14,,,,,,,,7,,,,59,64
263440,note_off,400,0,9,,,,,,,,5,,,,59,64
263440,note_off,400,0,6,,,,,,,,3,,,,74,64
263440,note_off,400,0,13,,,,,,,,7,,,,67,64
263440,note_off,400,0,2,,,,,,,,0,,,,79,64
263440,note_off,400,0,5,,,,,,,,3,,,,79,64
263440,note_off,400,0,10,,,,,,,,5,,,,67,64
263520,note_on,80,0,5,,,,,,,,3,,,,74,92
263520,note_on,160,0,22,,,,,,,,15,,,,42,92
263520,note_on,160,0,21,,,,,,,,14,,,,54,92
263520,note_on,160,0,15,,,,,,,,7,,,,50,92
263520,note_on,160,0,7,,,,,,,,4,,,,54,92
263520,note_on,160,0,3,,,,,,,,2,,,,81,92
263520,note_on,80,0,13,,,,,,,,7,,,,66,92
263520,note_on,80,0,4,,,,,,,,2,,,,74,92
263520,note_on,80,0,2,,,,,,,,0,,,,74,92
263520,note_on,80,0,9,,,,,,,,5,,,,69,92
263520,note_on,80,0,6,,,,,,,,3,,,,69,92
263520,note_on,160,0,1,,,,,,,,0,,,,81,92
263520,note_on,160,0,8,,,,,,,,4,,,,38,92
263520,note_on,80,0,10,,,,,,,,5,,,,66,92
263520,note_on,80,0,20,,,,,,,,13,,,,69,92
263520,note_on,160,0,16,,,,,,,,8,,,,38,92
263520,note_on,80,0,12,,,,,,,,6,,,,78,92
263520,note_on,160,0,18,,,,,,,,11,,,,81,108
263520,note_on,80,0,14,,,,,,,,7,,,,57,92
263520,note_on,80,0,19,,,,,,,,12,,,,74,92
263520,note_on,80,0,11,,,,,,,,6,,,,81,92
263520,note_on,160,0,17,,,,,,,,10,,,,50,92
263600,note_off,80,0,18,,,,,,,,11,,,,81,64
263600,note_off,80,0,22,,,,,,,,15,,,,42,64
263600,note_off,80,0,3,,,,,,,,2,,,,81,64
263600,note_off,80,0,1,,,,,,,,0,,,,81,64
263600,note_off,80,0,21,,,,,,,,14,,,,54,64
263600,note_off,80,0,16,,,,,,,,8,,,,38,64
263600,note_off,80,0,7,,,,,,,,4,,,,54,64
263600,note_off,80,0,15,,,,,,,,7,,,,50,64
263600,note_off,80,0,8,,,,,,,,4,,,,38,64
263600,note_off,80,0,17,,,,,,,,10,,,,50,64
263760,note_on,160,0,8,,,,,,,,4,,,,38,92
263760,note_on,160,0,18,,,,,,,,11,,,,69,108
263760,note_on,160,0,3,,,,,,,,2,,,,69,92
263760,note_on,160,0,1,,,,,,,,0,,,,69,92
263760,note_on,160,0,16,,,,,,,,8,,,,38,92
263760,note_on,160,0,17,,,,,,,,10,,,,50,92
263760,note_on,160,0,7,,,,,,,,4,,,,42,92
263760,note_on,160,0,15,,,,,,,,7,,,,50,92
263760,note_on,160,0,22,,,,,,,,15,,,,30,92
263760,note_on,160,0,21,,,,,,,,14,,,,42,92
263840,note_off,80,0,7,,,,,,,,4,,,,42,64
263840,note_off,80,0,18,,,,,,,,11,,,,69,64
263840,note_off,80,0,16,,,,,,,,8,,,,38,64
263840,note_off,80,0,3,,,,,,,,2,,,,69,64
263840,note_off,80,0,8,,,,,,,,4,,,,38,64
263840,note_off,80,0,22,,,,,,,,15,,,,30,64
263840,note_off,80,0,1,,,,,,,,0,,,,69,64
263840,note_off,80,0,17,,,,,,,,10,,,,50,64
263840,note_off,80,0,21,,,,,,,,14,,,,42,64
263840,note_off,80,0,15,,,,,,,,7,,,,50,64
263920,note_off,400,0,13,,,,,,,,7,,,,66,64
263920,note_off,400,0,19,,,,,,,,12,,,,74,64
263920,note_off,400,0,12,,,,,,,,6,,,,78,64
263920,note_off,400,0,14,,,,,,,,7,,,,57,64
263920,note_off,400,0,4,,,,,,,,2,,,,74,64
263920,note_off,400,0,5,,,,,,,,3,,,,74,64
263920,note_off,400,0,11,,,,,,,,6,,,,81,64
263920,note_off,400,0,6,,,,,,,,3,,,,69,64
263920,note_off,400,0,9,,,,,,,,5,,,,69,64
263920,note_off,400,0,20,,,,,,,,13,,,,69,64
263920,note_off,400,0,2,,,,,,,,0,,,,74,64
263920,note_off,400,0,10,,,,,,,,5,,,,66,64
264000,note_on,160,0,7,,,,,,,,4,,,,52,92
264000,note_on,160,0,8,,,,,,,,4,,,,45,92
264000,note_on,80,0,4,,,,,,,,2,,,,73,92
264000,note_on,160,0,17,,,,,,,,10,,,,45,92
264000,note_on,80,0,20,,,,,,,,13,,,,64,92
264000,note_on,80,0,9,,,,,,,,5,,,,67,92
264000,note_on,80,0,11,,,,,,,,6,,,,79,92
264000,note_on,80,0,13,,,,,,,,7,,,,64,92
264000,note_on,80,0,14,,,,,,,,7,,,,55,92
264000,note_on,160,0,3,,,,,,,,2,,,,79,92
264000,note_on,80,0,5,,,,,,,,3,,,,73,92
264000,note_on,160,0,21,,,,,,,,14,,,,52,92
264000,note_on,80,0,2,,,,,,,,0,,,,73,92
264000,note_on,80,0,6,,,,,,,,3,,,,64,92
264000,note_on,160,0,16,,,,,,,,8,,,,45,92
264000,note_on,160,0,1,,,,,,,,0,,,,79,92
264000,note_on,160,0,18,,,,,,,,11,,,,79,108
264000,note_on,160,0,15,,,,,,,,7,,,,57,92
264000,note_on,80,0,12,,,,,,,,6,,,,76,92
264000,note_on,160,0,22,,,,,,,,15,,,,40,92
264000,note_on,80,0,10,,,,,,,,5,,,,64,92
264000,note_on,80,0,19,,,,,,,,12,,,,73,92
264080,note_off,80,0,18,,,,,,,,11,,,,79,64
264080,note_off,80,0,17,,,,,,,,10,,,,45,64
264080,note_off,80,0,16,,,,,,,,8,,,,45,64
264080,note_off,80,0,1,,,,,,,,0,,,,79,64
264080,note_off,80,0,15,,,,,,,,7,,,,57,64
264080,note_off,80,0,3,,,,,,,,2,,,,79,64
264080,note_off,80,0,21,,,,,,,,14,,,,52,64
264080,note_off,80,0,7,,,,,,,,4,,,,52,64
264080,note_off,80,0,8,,,,,,,,4,,,,45,64
264080,note_off,80,0,22,,,,,,,,15,,,,40,64
264240,note_on,160,0,16,,,,,,,,8,,,,45,92
264240,note_on,160,0,1,,,,,,,,0,,,,67,92
264240,note_on,160,0,15,,,,,,,,7,,,,57,92
264240,note_on,160,0,22,,,,,,,,15,,,,28,92
264240,note_on,160,0,17,,,,,,,,10,,,,45,92
264240,note_on,160,0,18,,,,,,,,11,,,,67,108
264240,note_on,160,0,21,,,,,,,,14,,,,40,92
264240,note_on,160,0,7,,,,,,,,4,,,,40,92
264240,note_on,160,0,8,,,,,,,,4,,,,45,92
264240,note_on,160,0,3,,,,,,,,2,,,,67,92
264320,note_off,80,0,17,,,,,,,,10,,,,45,64
264320,note_off,80,0,7,,,,,,,,4,,,,40,64
264320,note_off,80,0,8,,,,,,,,4,,,,45,64
264320,note_off,80,0,18,,,,,,,,11,,,,67,64
264320,note_off,80,0,21,,,,,,,,14,,,,40,64
264320,note_off,80,0,16,,,,,,,,8,,,,45,64
264320,note_off,80,0,3,,,,,,,,2,,,,67,64
264320,note_off,80,0,15,,,,,,,,7,,,,57,64
264320,note_off,80,0,22,,,,,,,,15,,,,28,64
264320,note_off,80,0,1,,,,,,,,0,,,,67,64
264400,note_off,400,0,13,,,,,,,,7,,,,64,64
264400,note_off,400,0,12,,,,,,,,6,,,,76,64
264400,note_off,400,0,4,,,,,,,,2,,,,73,64
264400,note_off,400,0,10,,,,,,,,5,,,,64,64
264400,note_off,400,0,14,,,,,,,,7,,,,55,64
264400,note_off,400,0,5,,,,,,,,3,,,,73,64
264400,note_off,400,0,19,,,,,,,,12,,,,73,64
264400,note_off,400,0,6,,,,,,,,3,,,,64,64
264400,note_off,400,0,9,,,,,,,,5,,,,67,64
264400,note_off,400,0,20,,,,,,,,13,,,,64,64
264400,note_off,400,0,11,,,,,,,,6,,,,79,64
264400,note_off,400,0,2,,,,,,,,0,,,,73,64
264480,note_on,160,0,16,,,,,,,,8,,,,38,92
264480,note_on,80,0,13,,,,,,,,7,,,,66,92
264480,note_on,160,0,18,,,,,,,,11,,,,66,108
264480,note_on,160,0,7,,,,,,,,4,,,,50,92
264480,note_on,160,0,8,,,,,,,,4,,,,38,92
264480,note_on,160,0,1,,,,,,,,0,,,,66,92
264480,note_on,80,0,19,,,,,,,,12,,,,74,92
264480,note_on,160,0,3,,,,,,,,2,,,,66,92
264480,note_on,80,0,10,,,,,,,,5,,,,62,92
264480,note_on,80,0,4,,,,,,,,2,,,,74,92
264480,note_on,160,0,15,,,,,,,,7,,,,50,92
264480,note_on,80,0,14,,,,,,,,7,,,,62,92
264480,note_on,80,0,5,,,,,,,,3,,,,74,92
264480,note_on,160,0,21,,,,,,,,14,,,,50,92
264480,note_on,80,0,2,,,,,,,,0,,,,74,92
264480,note_on,160,0,17,,,,,,,,10,,,,50,92
264480,note_on,80,0,6,,,,,,,,3,,,,71,92
264480,note_on,80,0,12,,,,,,,,6,,,,74,92
264480,note_on,80,0,20,,,,,,,,13,,,,69,92
264480,note_on,160,0,22,,,,,,,,15,,,,38,92
264480,note_on,80,0,11,,,,,,,,6,,,,78,92
264480,note_on,80,0,9,,,,,,,,5,,,,66,92
264560,note_off,80,0,22,,,,,,,,15,,,,38,64
264560,note_off,80,0,1,,,,,,,,0,,,,66,64
264560,note_off,80,0,3,,,,,,,,2,,,,66,64
264560,note_off,80,0,21,,,,,,,,14,,,,50,64
264560,note_off,80,0,7,,,,,,,,4,,,,50,64
264560,note_off,80,0,18,,,,,,,,11,,,,66,64
264720,note_on,160,0,1,,,,,,,,0,,,,69,92
264720,note_on,160,0,22,,,,,,,,15,,,,45,92
264720,note_on,160,0,18,,,,,,,,11,,,,69,108
264720,note_on,160,0,21,,,,,,,,14,,,,57,92
264720,note_on,160,0,3,,,,,,,,2,,,,69,92
264720,note_on,160,0,7,,,,,,,,4,,,,57,92
264800,note_off,80,0,22,,,,,,,,15,,,,45,64
264800,note_off,80,0,1,,,,,,,,0,,,,69,64
264800,note_off,80,0,21,,,,,,,,14,,,,57,64
264800,note_off,80,0,3,,,,,,,,2,,,,69,64
264800,note_off,80,0,18,,,,,,,,11,,,,69,64
264800,note_off,80,0,7,,,,,,,,4,,,,57,64
264960,note_on,160,0,3,,,,,,,,2,,,,74,92
264960,note_on,160,0,22,,,,,,,,15,,,,50,92
264960,note_on,160,0,1,,,,,,,,0,,,,74,92
264960,note_on,160,0,21,,,,,,,,14,,,,62,92
264960,note_on,160,0,18,,,,,,,,11,,,,74,108
264960,note_on,160,0,7,,,,,,,,4,,,,62,92
265040,note_off,80,0,7,,,,,,,,4,,,,62,64
265040,note_off,80,0,1,,,,,,,,0,,,,74,64
265040,note_off,80,0,3,,,,,,,,2,,,,74,64
265040,note_off,80,0,22,,,,,,,,15,,,,50,64
265040,note_off,80,0,18,,,,,,,,11,,,,74,64
265040,note_off,80,0,21,,,,,,,,14,,,,62,64
265120,note_off,640,0,17,,,,,,,,10,,,,50,64
265120,note_off,640,0,20,,,,,,,,13,,,,69,64
265120,note_off,640,0,8,,,,,,,,4,,,,38,64
265120,note_off,640,0,15,,,,,,,,7,,,,50,64
265120,note_off,640,0,19,,,,,,,,12,,,,74,64
265120,note_off,640,0,16,,,,,,,,8,,,,38,64
265200,note_on,0,0,12,,,,,,,,6,,,,73,92
265200,note_on,80,0,8,,,,,,,,4,,,,45,92
265200,note_on,0,0,4,,,,,,,,2,,,,73,92
265200,note_off,720,0,5,,,,,,,,3,,,,74,64
265200,note_on,80,0,17,,,,,,,,10,,,,45,92
265200,note_on,80,0,15,,,,,,,,7,,,,57,92
265200,note_on,0,0,5,,,,,,,,3,,,,73,92
265200,note_off,720,0,14,,,,,,,,7,,,,62,64
265200,note_on,0,0,14,,,,,,,,7,,,,61,92
265200,note_off,720,0,11,,,,,,,,6,,,,78,64
265200,note_off,720,0,12,,,,,,,,6,,,,74,64
265200,note_on,0,0,11,,,,,,,,6,,,,76,92
265200,note_on,80,0,19,,,,,,,,12,,,,73,92
265200,note_on,80,0,20,,,,,,,,13,,,,69,92
265200,note_on,160,0,18,,,,,,,,11,,,,76,108
265200,note_off,720,0,4,,,,,,,,2,,,,74,64
265200,note_on,160,0,3,,,,,,,,2,,,,76,92
265200,note_on,80,0,16,,,,,,,,8,,,,45,92
265200,note_on,160,0,21,,,,,,,,14,,,,57,92
265200,note_on,0,0,6,,,,,,,,3,,,,69,92
265200,note_on,160,0,1,,,,,,,,0,,,,76,92
265200,note_off,720,0,6,,,,,,,,3,,,,71,64
265200,note_off,720,0,9,,,,,,,,5,,,,66,64
265200,note_on,0,0,13,,,,,,,,7,,,,64,92
265200,note_on,0,0,2,,,,,,,,0,,,,73,92
265200,note_off,720,0,13,,,,,,,,7,,,,66,64
265200,note_off,720,0,2,,,,,,,,0,,,,74,64
265200,note_on,160,0,22,,,,,,,,15,,,,45,92
265200,note_on,0,0,9,,,,,,,,5,,,,64,92
265200,note_off,720,0,10,,,,,,,,5,,,,62,64
265200,note_on,0,0,10,,,,,,,,5,,,,61,92
265200,note_on,160,0,7,,,,,,,,4,,,,57,92
265280,note_off,80,0,6,,,,,,,,3,,,,69,64
265280,note_off,80,0,20,,,,,,,,13,,,,69,64
265280,note_off,80,0,7,,,,,,,,4,,,,57,64
265280,note_off,80,0,1,,,,,,,,0,,,,76,64
265280,note_off,80,0,19,,,,,,,,12,,,,73,64
265280,note_off,80,0,18,,,,,,,,11,,,,76,64
265280,note_off,80,0,22,,,,,,,,15,,,,45,64
265280,note_off,80,0,3,,,,,,,,2,,,,76,64
265280,note_off,80,0,4,,,,,,,,2,,,,73,64
265280,note_off,80,0,2,,,,,,,,0,,,,73,64
265280,note_off,80,0,5,,,,,,,,3,,,,73,64
265280,note_off,80,0,21,,,,,,,,14,,,,57,64
265435,note_off,235,0,14,,,,,,,,7,,,,61,64
265435,note_off,235,0,16,,,,,,,,8,,,,45,64
265435,note_off,235,0,12,,,,,,,,6,,,,73,64
265435,note_off,235,0,13,,,,,,,,7,,,,64,64
265435,note_off,235,0,9,,,,,,,,5,,,,64,64
265435,note_off,235,0,10,,,,,,,,5,,,,61,64
265435,note_off,235,0,8,,,,,,,,4,,,,45,64
265435,note_off,235,0,17,,,,,,,,10,,,,45,64
265435,note_off,235,0,15,,,,,,,,7,,,,57,64
265435,note_off,235,0,11,,,,,,,,6,,,,76,64
265440,note_on,5,0,8,,,,,,,,4,,,,38,92
265440,note_on,160,0,22,,,,,,,,15,,,,42,92
265440,note_on,160,0,19,,,,,,,,12,,,,74,92
265440,note_on,5,0,9,,,,,,,,5,,,,66,92
265440,note_on,5,0,10,,,,,,,,5,,,,62,92
265440,note_on,5,0,14,,,,,,,,7,,,,62,92
265440,note_on,160,0,5,,,,,,,,3,,,,74,92
265440,note_on,160,0,4,,,,,,,,2,,,,74,92
265440,note_on,5,0,13,,,,,,,,7,,,,66,92
265440,note_on,5,0,11,,,,,,,,6,,,,78,92
265440,note_on,160,0,21,,,,,,,,14,,,,54,92
265440,note_on,160,0,7,,,,,,,,4,,,,54,92
265440,note_on,160,0,18,,,,,,,,11,,,,78,108
265440,note_on,5,0,17,,,,,,,,10,,,,50,92
265440,note_on,5,0,15,,,,,,,,7,,,,50,92
265440,note_on,160,0,2,,,,,,,,0,,,,74,92
265440,note_on,5,0,16,,,,,,,,8,,,,38,92
265440,note_on,5,0,12,,,,,,,,6,,,,74,92
265440,note_on,160,0,6,,,,,,,,3,,,,69,92
265440,note_on,160,0,1,,,,,,,,0,,,,78,92
265440,note_on,160,0,3,,,,,,,,2,,,,78,92
265440,note_on,160,0,20,,,,,,,,13,,,,69,92
265520,note_off,80,0,21,,,,,,,,14,,,,54,64
265520,note_off,80,0,22,,,,,,,,15,,,,42,64
265520,note_off,80,0,6,,,,,,,,3,,,,69,64
265520,note_off,80,0,20,,,,,,,,13,,,,69,64
265520,note_off,80,0,7,,,,,,,,4,,,,54,64
265680,note_on,160,0,6,,,,,,,,3,,,,69,92
265680,note_on,160,0,7,,,,,,,,4,,,,50,92
265680,note_on,160,0,22,,,,,,,,15,,,,38,92
265680,note_on,160,0,21,,,,,,,,14,,,,50,92
265680,note_on,160,0,20,,,,,,,,13,,,,69,92
265760,note_off,80,0,6,,,,,,,,3,,,,69,64
265760,note_off,80,0,20,,,,,,,,13,,,,69,64
265760,note_off,80,0,22,,,,,,,,15,,,,38,64
265760,note_off,80,0,7,,,,,,,,4,,,,50,64
265760,note_off,80,0,21,,,,,,,,14,,,,50,64
265800,note_off,360,0,12,,,,,,,,6,,,,74,64
265800,note_on,0,0,10,,,,,,,,5,,,,64,92
265800,note_off,360,0,10,,,,,,,,5,,,,62,64
265800,note_off,360,0,11,,,,,,,,6,,,,78,64
265800,note_on,0,0,5,,,,,,,,3,,,,76,92
265800,note_off,360,0,5,,,,,,,,3,,,,74,64
265800,note_on,0,0,12,,,,,,,,6,,,,76,92
265800,note_on,0,0,18,,,,,,,,11,,,,79,108
265800,note_on,0,0,11,,,,,,,,6,,,,79,92
265800,note_on,0,0,1,,,,,,,,0,,,,79,92
265800,note_on,0,0,9,,,,,,,,5,,,,67,92
265800,note_off,360,0,9,,,,,,,,5,,,,66,64
265800,note_off,360,0,2,,,,,,,,0,,,,74,64
265800,note_off,360,0,4,,,,,,,,2,,,,74,64
265800,note_on,0,0,19,,,,,,,,12,,,,76,92
265800,note_off,360,0,19,,,,,,,,12,,,,74,64
265800,note_off,360,0,1,,,,,,,,0,,,,78,64
265800,note_on,0,0,2,,,,,,,,0,,,,76,92
265800,note_on,0,0,13,,,,,,,,7,,,,67,92
265800,note_off,360,0,3,,,,,,,,2,,,,78,64
265800,note_on,0,0,3,,,,,,,,2,,,,79,92
265800,note_off,360,0,13,,,,,,,,7,,,,66,64
265800,note_off,360,0,14,,,,,,,,7,,,,62,64
265800,note_on,0,0,14,,,,,,,,7,,,,64,92
265800,note_on,0,0,4,,,,,,,,2,,,,76,92
265800,note_off,360,0,18,,,,,,,,11,,,,78,64
265840,note_off,400,0,15,,,,,,,,7,,,,50,64
265840,note_off,400,0,17,,,,,,,,10,,,,50,64
265840,note_off,400,0,16,,,,,,,,8,,,,38,64
265840,note_off,400,0,8,,,,,,,,4,,,,38,64
265880,note_off,80,0,5,,,,,,,,3,,,,76,64
265880,note_off,80,0,3,,,,,,,,2,,,,79,64
265880,note_off,80,0,1,,,,,,,,0,,,,79,64
265880,note_off,80,0,4,,,,,,,,2,,,,76,64
265880,note_off,80,0,18,,,,,,,,11,,,,79,64
265880,note_off,80,0,2,,,,,,,,0,,,,76,64
265880,note_off,80,0,19,,,,,,,,12,,,,76,64
265915,note_off,115,0,12,,,,,,,,6,,,,76,64
265915,note_off,115,0,11,,,,,,,,6,,,,79,64
265915,note_off,115,0,14,,,,,,,,7,,,,64,64
265915,note_off,115,0,9,,,,,,,,5,,,,67,64
265915,note_off,115,0,13,,,,,,,,7,,,,67,64
265915,note_off,115,0,10,,,,,,,,5,,,,64,64
265920,note_on,40,0,18,,,,,,,,11,,,,76,108
265920,note_on,160,0,21,,,,,,,,14,,,,57,92
265920,note_on,80,0,8,,,,,,,,4,,,,45,92
265920,note_on,5,0,10,,,,,,,,5,,,,57,92
265920,note_on,160,0,7,,,,,,,,4,,,,57,92
265920,note_on,5,0,9,,,,,,,,5,,,,64,92
265920,note_on,160,0,22,,,,,,,,15,,,,45,92
265920,note_on,40,0,2,,,,,,,,0,,,,73,92
265920,note_on,40,0,5,,,,,,,,3,,,,73,92
265920,note_on,40,0,4,,,,,,,,2,,,,73,92
265920,note_on,5,0,12,,,,,,,,6,,,,69,92
265920,note_on,5,0,11,,,,,,,,6,,,,76,92
265920,note_on,5,0,14,,,,,,,,7,,,,61,92
265920,note_on,80,0,15,,,,,,,,7,,,,57,92
265920,note_on,80,0,17,,,,,,,,10,,,,45,92
265920,note_on,40,0,3,,,,,,,,2,,,,76,92
265920,note_on,40,0,1,,,,,,,,0,,,,76,92
265920,note_on,160,0,20,,,,,,,,13,,,,69,92
265920,note_on,5,0,13,,,,,,,,7,,,,61,92
265920,note_on,160,0,6,,,,,,,,3,,,,69,92
265920,note_on,80,0,16,,,,,,,,8,,,,45,92
265920,note_on,40,0,19,,,,,,,,12,,,,73,92
266000,note_off,80,0,1,,,,,,,,0,,,,76,64
266000,note_off,80,0,7,,,,,,,,4,,,,57,64
266000,note_off,80,0,4,,,,,,,,2,,,,73,64
266000,note_off,80,0,5,,,,,,,,3,,,,73,64
266000,note_off,80,0,2,,,,,,,,0,,,,73,64
266000,note_off,80,0,22,,,,,,,,15,,,,45,64
266000,note_off,80,0,19,,,,,,,,12,,,,73,64
266000,note_off,80,0,3,,,,,,,,2,,,,76,64
266000,note_off,80,0,21,,,,,,,,14,,,,57,64
266000,note_off,80,0,18,,,,,,,,11,,,,76,64
266160,note_on,160,0,1,,,,,,,,0,,,,74,92
266160,note_on,160,0,19,,,,,,,,12,,,,71,92
266160,note_on,160,0,7,,,,,,,,4,,,,59,92
266160,note_on,160,0,4,,,,,,,,2,,,,71,92
266160,note_on,160,0,22,,,,,,,,15,,,,47,92
266160,note_on,160,0,5,,,,,,,,3,,,,71,92
266160,note_on,160,0,21,,,,,,,,14,,,,59,92
266160,note_on,160,0,2,,,,,,,,0,,,,71,92
266160,note_on,160,0,3,,,,,,,,2,,,,74,92
266160,note_on,160,0,18,,,,,,,,11,,,,74,108
266240,note_off,80,0,4,,,,,,,,2,,,,71,64
266240,note_off,80,0,5,,,,,,,,3,,,,71,64
266240,note_off,80,0,21,,,,,,,,14,,,,59,64
266240,note_off,80,0,22,,,,,,,,15,,,,47,64
266240,note_off,80,0,19,,,,,,,,12,,,,71,64
266240,note_off,80,0,18,,,,,,,,11,,,,74,64
266240,note_off,80,0,7,,,,,,,,4,,,,59,64
266240,note_off,80,0,2,,,,,,,,0,,,,71,64
266240,note_off,80,0,1,,,,,,,,0,,,,74,64
266240,note_off,80,0,3,,,,,,,,2,,,,74,64
266320,note_off,400,0,6,,,,,,,,3,,,,69,64
266320,note_off,400,0,20,,,,,,,,13,,,,69,64
266400,note_on,80,0,6,,,,,,,,3,,,,69,92
266400,note_on,160,0,22,,,,,,,,15,,,,49,92
266400,note_on,160,0,21,,,,,,,,14,,,,61,92
266400,note_on,80,0,20,,,,,,,,13,,,,69,92
266400,note_on,160,0,2,,,,,,,,0,,,,69,92
266400,note_on,160,0,4,,,,,,,,2,,,,69,92
266400,note_on,160,0,18,,,,,,,,11,,,,76,108
266400,note_on,160,0,3,,,,,,,,2,,,,76,92
266400,note_on,160,0,7,,,,,,,,4,,,,61,92
266400,note_on,160,0,5,,,,,,,,3,,,,69,92
266400,note_on,160,0,19,,,,,,,,12,,,,69,92
266400,note_on,160,0,1,,,,,,,,0,,,,76,92
266480,note_off,80,0,3,,,,,,,,2,,,,76,64
266480,note_off,80,0,6,,,,,,,,3,,,,69,64
266480,note_off,80,0,7,,,,,,,,4,,,,61,64
266480,note_off,80,0,22,,,,,,,,15,,,,49,64
266480,note_off,80,0,4,,,,,,,,2,,,,69,64
266480,note_off,80,0,1,,,,,,,,0,,,,76,64
266480,note_off,80,0,20,,,,,,,,13,,,,69,64
266480,note_off,80,0,2,,,,,,,,0,,,,69,64
266480,note_off,80,0,5,,,,,,,,3,,,,69,64
266480,note_off,80,0,18,,,,,,,,11,,,,76,64
266480,note_off,80,0,21,,,,,,,,14,,,,61,64
266480,note_off,80,0,19,,,,,,,,12,,,,69,64
266560,note_off,640,0,16,,,,,,,,8,,,,45,64
266560,note_off,640,0,15,,,,,,,,7,,,,57,64
266560,note_off,640,0,17,,,,,,,,10,,,,45,64
266560,note_off,640,0,8,,,,,,,,4,,,,45,64
266640,note_on,160,0,18,,,,,,,,11,,,,79,108
266640,note_on,0,0,13,,,,,,,,7,,,,64,92
266640,note_off,720,0,13,,,,,,,,7,,,,61,64
266640,note_on,160,0,6,,,,,,,,3,,,,73,92
266640,note_off,720,0,11,,,,,,,,6,,,,76,64
266640,note_on,160,0,5,,,,,,,,3,,,,76,92
266640,note_on,160,0,2,,,,,,,,0,,,,76,92
266640,note_on,80,0,16,,,,,,,,8,,,,45,92
266640,note_on,160,0,22,,,,,,,,15,,,,45,92
266640,note_on,0,0,11,,,,,,,,6,,,,79,92
266640,note_off,720,0,14,,,,,,,,7,,,,61,64
266640,note_on,0,0,9,,,,,,,,5,,,,67,92
266640,note_off,720,0,12,,,,,,,,6,,,,69,64
266640,note_on,160,0,7,,,,,,,,4,,,,57,92
266640,note_on,0,0,12,,,,,,,,6,,,,76,92
266640,note_off,720,0,9,,,,,,,,5,,,,64,64
266640,note_off,720,0,10,,,,,,,,5,,,,57,64
266640,note_on,0,0,10,,,,,,,,5,,,,64,92
266640,note_on,80,0,17,,,,,,,,10,,,,45,92
266640,note_on,160,0,21,,,,,,,,14,,,,57,92
266640,note_on,160,0,1,,,,,,,,0,,,,79,92
266640,note_on,80,0,8,,,,,,,,4,,,,45,92
266640,note_on,80,0,15,,,,,,,,7,,,,57,92
266640,note_on,160,0,20,,,,,,,,13,,,,73,92
266640,note_on,160,0,4,,,,,,,,2,,,,76,92
266640,note_on,160,0,3,,,,,,,,2,,,,79,92
266640,note_on,160,0,19,,,,,,,,12,,,,76,92
266640,note_on,0,0,14,,,,,,,,7,,,,55,92
266720,note_off,80,0,21,,,,,,,,14,,,,57,64
266720,note_off,80,0,5,,,,,,,,3,,,,76,64
266720,note_off,80,0,2,,,,,,,,0,,,,76,64
266720,note_off,80,0,3,,,,,,,,2,,,,79,64
266720,note_off,80,0,19,,,,,,,,12,,,,76,64
266720,note_off,80,0,4,,,,,,,,2,,,,76,64
266720,note_off,80,0,20,,,,,,,,13,,,,73,64
266720,note_off,80,0,7,,,,,,,,4,,,,57,64
266720,note_off,80,0,18,,,,,,,,11,,,,79,64
266720,note_off,80,0,22,,,,,,,,15,,,,45,64
266720,note_off,80,0,6,,,,,,,,3,,,,73,64
266720,note_off,80,0,1,,,,,,,,0,,,,79,64
266875,note_off,235,0,15,,,,,,,,7,,,,57,64
266875,note_off,235,0,10,,,,,,,,5,,,,64,64
266875,note_off,235,0,9,,,,,,,,5,,,,67,64
266875,note_off,235,0,12,,,,,,,,6,,,,76,64
266875,note_off,235,0,8,,,,,,,,4,,,,45,64
266875,note_off,235,0,13,,,,,,,,7,,,,64,64
266875,note_off,235,0,11,,,,,,,,6,,,,79,64
266875,note_off,235,0,16,,,,,,,,8,,,,45,64
266875,note_off,235,0,17,,,,,,,,10,,,,45,64
266875,note_off,235,0,14,,,,,,,,7,,,,55,64
266880,note_on,5,0,14,,,,,,,,7,,,,54,92
266880,note_on,160,0,20,,,,,,,,13,,,,69,92
266880,note_on,5,0,12,,,,,,,,6,,,,74,92
266880,note_on,5,0,13,,,,,,,,7,,,,62,92
266880,note_on,160,0,19,,,,,,,,12,,,,74,92
266880,note_on,160,0,2,,,,,,,,0,,,,74,92
266880,note_on,5,0,17,,,,,,,,10,,,,50,92
266880,note_on,5,0,9,,,,,,,,5,,,,66,92
266880,note_on,160,0,7,,,,,,,,4,,,,62,92
266880,note_on,160,0,6,,,,,,,,3,,,,69,92
266880,note_on,160,0,1,,,,,,,,0,,,,78,92
266880,note_on,5,0,16,,,,,,,,8,,,,38,92
266880,note_on,5,0,15,,,,,,,,7,,,,50,92
266880,note_on,160,0,21,,,,,,,,14,,,,62,92
266880,note_on,160,0,3,,,,,,,,2,,,,78,92
266880,note_on,160,0,4,,,,,,,,2,,,,74,92
266880,note_on,5,0,8,,,,,,,,4,,,,38,92
266880,note_on,160,0,18,,,,,,,,11,,,,78,108
266880,note_on,5,0,10,,,,,,,,5,,,,62,92
266880,note_on,160,0,5,,,,,,,,3,,,,74,92
266880,note_on,5,0,11,,,,,,,,6,,,,78,92
266880,note_on,160,0,22,,,,,,,,15,,,,50,92
266960,note_off,80,0,22,,,,,,,,15,,,,50,64
266960,note_off,80,0,5,,,,,,,,3,,,,74,64
266960,note_off,80,0,7,,,,,,,,4,,,,62,64
266960,note_off,80,0,3,,,,,,,,2,,,,78,64
266960,note_off,80,0,21,,,,,,,,14,,,,62,64
266960,note_off,80,0,2,,,,,,,,0,,,,74,64
266960,note_off,80,0,18,,,,,,,,11,,,,78,64
266960,note_off,80,0,19,,,,,,,,12,,,,74,64
266960,note_off,80,0,4,,,,,,,,2,,,,74,64
266960,note_off,80,0,1,,,,,,,,0,,,,78,64
267120,note_on,160,0,7,,,,,,,,4,,,,50,92
267120,note_on,160,0,5,,,,,,,,3,,,,76,92
267120,note_on,160,0,2,,,,,,,,0,,,,76,92
267120,note_on,160,0,1,,,,,,,,0,,,,79,92
267120,note_on,160,0,19,,,,,,,,12,,,,76,92
267120,note_on,160,0,21,,,,,,,,14,,,,50,92
267120,note_on,160,0,3,,,,,,,,2,,,,79,92
267120,note_on,160,0,22,,,,,,,,15,,,,38,92
267120,note_on,160,0,18,,,,,,,,11,,,,79,108
267120,note_on,160,0,4,,,,,,,,2,,,,76,92
267200,note_off,80,0,5,,,,,,,,3,,,,76,64
267200,note_off,80,0,3,,,,,,,,2,,,,79,64
267200,note_off,80,0,19,,,,,,,,12,,,,76,64
267200,note_off,80,0,7,,,,,,,,4,,,,50,64
267200,note_off,80,0,18,,,,,,,,11,,,,79,64
267200,note_off,80,0,1,,,,,,,,0,,,,79,64
267200,note_off,80,0,4,,,,,,,,2,,,,76,64
267200,note_off,80,0,22,,,,,,,,15,,,,38,64
267200,note_off,80,0,21,,,,,,,,14,,,,50,64
267200,note_off,80,0,2,,,,,,,,0,,,,76,64
267240,note_off,360,0,13,,,,,,,,7,,,,62,64
267240,note_on,0,0,13,,,,,,,,7,,,,64,92
267240,note_on,0,0,12,,,,,,,,6,,,,76,92
267240,note_off,360,0,11,,,,,,,,6,,,,78,64
267240,note_on,0,0,11,,,,,,,,6,,,,79,92
267240,note_off,360,0,12,,,,,,,,6,,,,74,64
267240,note_on,0,0,10,,,,,,,,5,,,,64,92
267240,note_off,360,0,10,,,,,,,,5,,,,62,64
267240,note_off,360,0,9,,,,,,,,5,,,,66,64
267240,note_on,0,0,9,,,,,,,,5,,,,67,92
267240,note_on,0,0,14,,,,,,,,7,,,,55,92
267240,note_off,360,0,14,,,,,,,,7,,,,54,64
267280,note_off,400,0,15,,,,,,,,7,,,,50,64
267280,note_off,400,0,20,,,,,,,,13,,,,69,64
267280,note_off,400,0,17,,,,,,,,10,,,,50,64
267280,note_off,400,0,6,,,,,,,,3,,,,69,64
267280,note_off,400,0,8,,,,,,,,4,,,,38,64
267280,note_off,400,0,16,,,,,,,,8,,,,38,64
267355,note_off,115,0,11,,,,,,,,6,,,,79,64
267355,note_off,115,0,9,,,,,,,,5,,,,67,64
267355,note_off,115,0,14,,,,,,,,7,,,,55,64
267355,note_off,115,0,10,,,,,,,,5,,,,64,64
267355,note_off,115,0,13,,,,,,,,7,,,,64,64
267355,note_off,115,0,12,,,,,,,,6,,,,76,64
267360,note_on,160,0,7,,,,,,,,4,,,,57,92
267360,note_on,160,0,21,,,,,,,,14,,,,57,92
267360,note_on,5,0,9,,,,,,,,5,,,,64,92
267360,note_on,160,0,22,,,,,,,,15,,,,45,92
267360,note_on,160,0,2,,,,,,,,0,,,,73,92
267360,note_on,160,0,1,,,,,,,,0,,,,76,92
267360,note_on,160,0,4,,,,,,,,2,,,,73,92
267360,note_on,5,0,10,,,,,,,,5,,,,57,92
267360,note_on,160,0,19,,,,,,,,12,,,,73,92
267360,note_on,5,0,11,,,,,,,,6,,,,76,92
267360,note_on,160,0,5,,,,,,,,3,,,,73,92
267360,note_on,160,0,18,,,,,,,,11,,,,76,108
267360,note_on,5,0,12,,,,,,,,6,,,,69,92
267360,note_on,160,0,3,,,,,,,,2,,,,76,92
267360,note_on,80,0,15,,,,,,,,7,,,,57,92
267360,note_on,5,0,14,,,,,,,,7,,,,57,92
267360,note_on,80,0,16,,,,,,,,8,,,,45,92
267360,note_on,80,0,17,,,,,,,,10,,,,45,92
267360,note_on,80,0,6,,,,,,,,3,,,,69,92
267360,note_on,80,0,8,,,,,,,,4,,,,45,92
267360,note_on,5,0,13,,,,,,,,7,,,,61,92
267360,note_on,80,0,20,,,,,,,,13,,,,69,92
267440,note_off,80,0,5,,,,,,,,3,,,,73,64
267440,note_off,80,0,21,,,,,,,,14,,,,57,64
267440,note_off,80,0,4,,,,,,,,2,,,,73,64
267440,note_off,80,0,18,,,,,,,,11,,,,76,64
267440,note_off,80,0,22,,,,,,,,15,,,,45,64
267440,note_off,80,0,3,,,,,,,,2,,,,76,64
267440,note_off,80,0,2,,,,,,,,0,,,,73,64
267440,note_off,80,0,19,,,,,,,,12,,,,73,64
267440,note_off,80,0,1,,,,,,,,0,,,,76,64
267440,note_off,80,0,7,,,,,,,,4,,,,57,64
267600,note_on,160,0,18,,,,,,,,11,,,,74,108
267600,note_on,160,0,1,,,,,,,,0,,,,74,92
267600,note_on,160,0,2,,,,,,,,0,,,,71,92
267600,note_on,160,0,7,,,,,,,,4,,,,59,92
267600,note_on,160,0,21,,,,,,,,14,,,,59,92
267600,note_on,160,0,4,,,,,,,,2,,,,71,92
267600,note_on,160,0,5,,,,,,,,3,,,,71,92
267600,note_on,160,0,3,,,,,,,,2,,,,74,92
267600,note_on,160,0,19,,,,,,,,12,,,,71,92
267600,note_on,160,0,22,,,,,,,,15,,,,47,92
267680,note_off,80,0,1,,,,,,,,0,,,,74,64
267680,note_off,80,0,21,,,,,,,,14,,,,59,64
267680,note_off,80,0,18,,,,,,,,11,,,,74,64
267680,note_off,80,0,4,,,,,,,,2,,,,71,64
267680,note_off,80,0,5,,,,,,,,3,,,,71,64
267680,note_off,80,0,2,,,,,,,,0,,,,71,64
267680,note_off,80,0,19,,,,,,,,12,,,,71,64
267680,note_off,80,0,7,,,,,,,,4,,,,59,64
267680,note_off,80,0,3,,,,,,,,2,,,,74,64
267680,note_off,80,0,22,,,,,,,,15,,,,47,64
267760,note_off,400,0,6,,,,,,,,3,,,,69,64
267760,note_off,400,0,20,,,,,,,,13,,,,69,64
267840,note_on,160,0,2,,,,,,,,0,,,,69,92
267840,note_on,160,0,22,,,,,,,,15,,,,49,92
267840,note_on,160,0,4,,,,,,,,2,,,,69,92
267840,note_on,160,0,19,,,,,,,,12,,,,69,92
267840,note_on,160,0,21,,,,,,,,14,,,,61,92
267840,note_on,160,0,5,,,,,,,,3,,,,69,92
267840,note_on,80,0,6,,,,,,,,3,,,,69,92
267840,note_on,160,0,1,,,,,,,,0,,,,76,92
267840,note_on,80,0,20,,,,,,,,13,,,,69,92
267840,note_on,160,0,3,,,,,,,,2,,,,76,92
267840,note_on,160,0,7,,,,,,,,4,,,,61,92
267840,note_on,160,0,18,,,,,,,,11,,,,76,108
267920,note_off,80,0,22,,,,,,,,15,,,,49,64
267920,note_off,80,0,18,,,,,,,,11,,,,76,64
267920,note_off,80,0,2,,,,,,,,0,,,,69,64
267920,note_off,80,0,20,,,,,,,,13,,,,69,64
267920,note_off,80,0,1,,,,,,,,0,,,,76,64
267920,note_off,80,0,21,,,,,,,,14,,,,61,64
267920,note_off,80,0,4,,,,,,,,2,,,,69,64
267920,note_off,80,0,5,,,,,,,,3,,,,69,64
267920,note_off,80,0,19,,,,,,,,12,,,,69,64
267920,note_off,80,0,3,,,,,,,,2,,,,76,64
267920,note_off,80,0,7,,,,,,,,4,,,,61,64
267920,note_off,80,0,6,,,,,,,,3,,,,69,64
268000,note_off,640,0,8,,,,,,,,4,,,,45,64
268000,note_off,640,0,15,,,,,,,,7,,,,57,64
268000,note_off,640,0,17,,,,,,,,10,,,,45,64
268000,note_off,640,0,16,,,,,,,,8,,,,45,64
268080,note_on,0,0,11,,,,,,,,6,,,,79,92
268080,note_off,720,0,12,,,,,,,,6,,,,69,64
268080,note_off,720,0,10,,,,,,,,5,,,,57,64
268080,note_off,720,0,11,,,,,,,,6,,,,76,64
268080,note_on,0,0,12,,,,,,,,6,,,,76,92
268080,note_on,0,0,10,,,,,,,,5,,,,64,92
268080,note_on,160,0,22,,,,,,,,15,,,,45,92
268080,note_on,160,0,18,,,,,,,,11,,,,79,108
268080,note_on,80,0,8,,,,,,,,4,,,,45,92
268080,note_on,160,0,5,,,,,,,,3,,,,76,92
268080,note_on,160,0,4,,,,,,,,2,,,,76,92
268080,note_on,80,0,17,,,,,,,,10,,,,45,92
268080,note_on,160,0,19,,,,,,,,12,,,,76,92
268080,note_on,160,0,20,,,,,,,,13,,,,73,92
268080,note_on,80,0,15,,,,,,,,7,,,,57,92
268080,note_on,160,0,1,,,,,,,,0,,,,79,92
268080,note_on,0,0,14,,,,,,,,7,,,,55,92
268080,note_on,160,0,21,,,,,,,,14,,,,57,92
268080,note_off,720,0,13,,,,,,,,7,,,,61,64
268080,note_on,0,0,13,,,,,,,,7,,,,64,92
268080,note_off,720,0,14,,,,,,,,7,,,,57,64
268080,note_off,720,0,9,,,,,,,,5,,,,64,64
268080,note_on,0,0,9,,,,,,,,5,,,,67,92
268080,note_on,160,0,2,,,,,,,,0,,,,76,92
268080,note_on,160,0,3,,,,,,,,2,,,,79,92
268080,note_on,160,0,7,,,,,,,,4,,,,57,92
268080,note_on,80,0,16,,,,,,,,8,,,,45,92
268080,note_on,160,0,6,,,,,,,,3,,,,73,92
268160,note_off,80,0,1,,,,,,,,0,,,,79,64
268160,note_off,80,0,19,,,,,,,,12,,,,76,64
268160,note_off,80,0,4,,,,,,,,2,,,,76,64
268160,note_off,80,0,3,,,,,,,,2,,,,79,64
268160,note_off,80,0,2,,,,,,,,0,,,,76,64
268160,note_off,80,0,18,,,,,,,,11,,,,79,64
268160,note_off,80,0,5,,,,,,,,3,,,,76,64
268160,note_off,80,0,20,,,,,,,,13,,,,73,64
268160,note_off,80,0,22,,,,,,,,15,,,,45,64
268160,note_off,80,0,7,,,,,,,,4,,,,57,64
268160,note_off,80,0,21,,,,,,,,14,,,,57,64
268160,note_off,80,0,6,,,,,,,,3,,,,73,64
268315,note_off,235,0,17,,,,,,,,10,,,,45,64
268315,note_off,235,0,11,,,,,,,,6,,,,79,64
268315,note_off,235,0,8,,,,,,,,4,,,,45,64
268315,note_off,235,0,15,,,,,,,,7,,,,57,64
268315,note_off,235,0,10,,,,,,,,5,,,,64,64
268315,note_off,235,0,13,,,,,,,,7,,,,64,64
268315,note_off,235,0,14,,,,,,,,7,,,,55,64
268315,note_off,235,0,9,,,,,,,,5,,,,67,64
268315,note_off,235,0,12,,,,,,,,6,,,,76,64
268315,note_off,235,0,16,,,,,,,,8,,,,45,64
268320,note_on,5,0,15,,,,,,,,7,,,,50,92
268320,note_on,5,0,13,,,,,,,,7,,,,62,92
268320,note_on,160,0,3,,,,,,,,2,,,,78,92
268320,note_on,160,0,2,,,,,,,,0,,,,74,92
268320,note_on,5,0,17,,,,,,,,10,,,,50,92
268320,note_on,5,0,16,,,,,,,,8,,,,38,92
268320,note_on,160,0,6,,,,,,,,3,,,,69,92
268320,note_on,5,0,11,,,,,,,,6,,,,78,92
268320,note_on,160,0,19,,,,,,,,12,,,,74,92
268320,note_on,5,0,10,,,,,,,,5,,,,62,92
268320,note_on,160,0,21,,,,,,,,14,,,,62,92
268320,note_on,160,0,7,,,,,,,,4,,,,62,92
268320,note_on,160,0,20,,,,,,,,13,,,,69,92
268320,note_on,5,0,8,,,,,,,,4,,,,38,92
268320,note_on,160,0,22,,,,,,,,15,,,,50,92
268320,note_on,160,0,1,,,,,,,,0,,,,78,92
268320,note_on,5,0,14,,,,,,,,7,,,,54,92
268320,note_on,160,0,18,,,,,,,,11,,,,78,108
268320,note_on,5,0,12,,,,,,,,6,,,,74,92
268320,note_on,160,0,4,,,,,,,,2,,,,74,92
268320,note_on,160,0,5,,,,,,,,3,,,,74,92
268320,note_on,5,0,9,,,,,,,,5,,,,66,92
268400,note_off,80,0,19,,,,,,,,12,,,,74,64
268400,note_off,80,0,7,,,,,,,,4,,,,62,64
268400,note_off,80,0,4,,,,,,,,2,,,,74,64
268400,note_off,80,0,21,,,,,,,,14,,,,62,64
268400,note_off,80,0,22,,,,,,,,15,,,,50,64
268400,note_off,80,0,18,,,,,,,,11,,,,78,64
268400,note_off,80,0,1,,,,,,,,0,,,,78,64
268400,note_off,80,0,3,,,,,,,,2,,,,78,64
268400,note_off,80,0,2,,,,,,,,0,,,,74,64
268400,note_off,80,0,5,,,,,,,,3,,,,74,64
268560,note_on,160,0,22,,,,,,,,15,,,,38,92
268560,note_on,160,0,18,,,,,,,,11,,,,79,108
268560,note_on,160,0,4,,,,,,,,2,,,,76,92
268560,note_on,160,0,19,,,,,,,,12,,,,76,92
268560,note_on,160,0,21,,,,,,,,14,,,,50,92
268560,note_on,160,0,5,,,,,,,,3,,,,76,92
268560,note_on,160,0,3,,,,,,,,2,,,,79,92
268560,note_on,160,0,1,,,,,,,,0,,,,79,92
268560,note_on,160,0,2,,,,,,,,0,,,,76,92
268560,note_on,160,0,7,,,,,,,,4,,,,50,92
268640,note_off,80,0,7,,,,,,,,4,,,,50,64
268640,note_off,80,0,18,,,,,,,,11,,,,79,64
268640,note_off,80,0,1,,,,,,,,0,,,,79,64
268640,note_off,80,0,21,,,,,,,,14,,,,50,64
268640,note_off,80,0,5,,,,,,,,3,,,,76,64
268640,note_off,80,0,3,,,,,,,,2,,,,79,64
268640,note_off,80,0,2,,,,,,,,0,,,,76,64
268640,note_off,80,0,22,,,,,,,,15,,,,38,64
268640,note_off,80,0,4,,,,,,,,2,,,,76,64
268640,note_off,80,0,19,,,,,,,,12,,,,76,64
268680,note_off,360,0,12,,,,,,,,6,,,,74,64
268680,note_off,360,0,14,,,,,,,,7,,,,54,64
268680,note_on,0,0,9,,,,,,,,5,,,,67,92
268680,note_off,360,0,9,,,,,,,,5,,,,66,64
268680,note_on,0,0,12,,,,,,,,6,,,,76,92
268680,note_off,360,0,13,,,,,,,,7,,,,62,64
268680,note_on,0,0,13,,,,,,,,7,,,,64,92
268680,note_on,0,0,11,,,,,,,,6,,,,79,92
268680,note_off,360,0,11,,,,,,,,6,,,,78,64
268680,note_on,0,0,10,,,,,,,,5,,,,64,92
268680,note_off,360,0,10,,,,,,,,5,,,,62,64
268680,note_on,0,0,14,,,,,,,,7,,,,55,92
268720,note_off,400,0,16,,,,,,,,8,,,,38,64
268720,note_off,400,0,8,,,,,,,,4,,,,38,64
268720,note_off,400,0,15,,,,,,,,7,,,,50,64
268720,note_off,400,0,17,,,,,,,,10,,,,50,64
268720,note_off,400,0,20,,,,,,,,13,,,,69,64
268720,note_off,400,0,6,,,,,,,,3,,,,69,64
268795,note_off,115,0,11,,,,,,,,6,,,,79,64
268795,note_off,115,0,12,,,,,,,,6,,,,76,64
268795,note_off,115,0,9,,,,,,,,5,,,,67,64
268795,note_off,115,0,13,,,,,,,,7,,,,64,64
268795,note_off,115,0,10,,,,,,,,5,,,,64,64
268795,note_off,115,0,14,,,,,,,,7,,,,55,64
268800,note_on,80,0,16,,,,,,,,8,,,,45,92
268800,note_on,5,0,9,,,,,,,,5,,,,64,92
268800,note_on,80,0,8,,,,,,,,4,,,,45,92
268800,note_on,5,0,14,,,,,,,,7,,,,57,92
268800,note_on,80,0,15,,,,,,,,7,,,,57,92
268800,note_on,5,0,10,,,,,,,,5,,,,57,92
268800,note_on,5,0,12,,,,,,,,6,,,,69,92
268800,note_on,80,0,20,,,,,,,,13,,,,69,92
268800,note_on,160,0,22,,,,,,,,15,,,,45,92
268800,note_on,160,0,2,,,,,,,,0,,,,73,92
268800,note_on,80,0,6,,,,,,,,3,,,,69,92
268800,note_on,160,0,7,,,,,,,,4,,,,57,92
268800,note_on,160,0,3,,,,,,,,2,,,,76,92
268800,note_on,160,0,1,,,,,,,,0,,,,76,92
268800,note_on,160,0,5,,,,,,,,3,,,,73,92
268800,note_on,160,0,4,,,,,,,,2,,,,73,92
268800,note_on,5,0,13,,,,,,,,7,,,,61,92
268800,note_on,160,0,21,,,,,,,,14,,,,57,92
268800,note_on,5,0,11,,,,,,,,6,,,,76,92
268800,note_on,160,0,19,,,,,,,,12,,,,73,92
268800,note_on,80,0,17,,,,,,,,10,,,,45,92
268800,note_on,160,0,18,,,,,,,,11,,,,76,108
268880,note_off,80,0,3,,,,,,,,2,,,,76,64
268880,note_off,80,0,4,,,,,,,,2,,,,73,64
268880,note_off,80,0,22,,,,,,,,15,,,,45,64
268880,note_off,80,0,2,,,,,,,,0,,,,73,64
268880,note_off,80,0,5,,,,,,,,3,,,,73,64
268880,note_off,80,0,19,,,,,,,,12,,,,73,64
268880,note_off,80,0,1,,,,,,,,0,,,,76,64
268880,note_off,80,0,21,,,,,,,,14,,,,57,64
268880,note_off,80,0,18,,,,,,,,11,,,,76,64
268880,note_off,80,0,7,,,,,,,,4,,,,57,64
269040,note_on,160,0,2,,,,,,,,0,,,,71,92
269040,note_on,160,0,21,,,,,,,,14,,,,59,92
269040,note_on,160,0,3,,,,,,,,2,,,,74,92
269040,note_on,160,0,7,,,,,,,,4,,,,59,92
269040,note_on,160,0,4,,,,,,,,2,,,,71,92
269040,note_on,160,0,18,,,,,,,,11,,,,74,108
269040,note_on,160,0,19,,,,,,,,12,,,,71,92
269040,note_on,160,0,1,,,,,,,,0,,,,74,92
269040,note_on,160,0,5,,,,,,,,3,,,,71,92
269040,note_on,160,0,22,,,,,,,,15,,,,47,92
269120,note_off,80,0,7,,,,,,,,4,,,,59,64
269120,note_off,80,0,19,,,,,,,,12,,,,71,64
269120,note_off,80,0,22,,,,,,,,15,,,,47,64
269120,note_off,80,0,2,,,,,,,,0,,,,71,64
269120,note_off,80,0,5,,,,,,,,3,,,,71,64
269120,note_off,80,0,4,,,,,,,,2,,,,71,64
269120,note_off,80,0,18,,,,,,,,11,,,,74,64
269120,note_off,80,0,1,,,,,,,,0,,,,74,64
269120,note_off,80,0,3,,,,,,,,2,,,,74,64
269120,note_off,80,0,21,,,,,,,,14,,,,59,64
269200,note_off,400,0,20,,,,,,,,13,,,,69,64
269200,note_off,400,0,6,,,,,,,,3,,,,69,64
269280,note_on,160,0,5,,,,,,,,3,,,,69,92
269280,note_on,160,0,4,,,,,,,,2,,,,69,92
269280,note_on,160,0,18,,,,,,,,11,,,,76,108
269280,note_on,160,0,1,,,,,,,,0,,,,76,92
269280,note_on,160,0,19,,,,,,,,12,,,,69,92
269280,note_on,160,0,2,,,,,,,,0,,,,69,92
269280,note_on,80,0,20,,,,,,,,13,,,,69,92
269280,note_on,80,0,6,,,,,,,,3,,,,69,92
269280,note_on,160,0,21,,,,,,,,14,,,,61,92
269280,note_on,160,0,22,,,,,,,,15,,,,49,92
269280,note_on,160,0,3,,,,,,,,2,,,,76,92
269280,note_on,160,0,7,,,,,,,,4,,,,61,92
269360,note_off,80,0,21,,,,,,,,14,,,,61,64
269360,note_off,80,0,18,,,,,,,,11,,,,76,64
269360,note_off,80,0,4,,,,,,,,2,,,,69,64
269360,note_off,80,0,1,,,,,,,,0,,,,76,64
269360,note_off,80,0,6,,,,,,,,3,,,,69,64
269360,note_off,80,0,5,,,,,,,,3,,,,69,64
269360,note_off,80,0,2,,,,,,,,0,,,,69,64
269360,note_off,80,0,3,,,,,,,,2,,,,76,64
269360,note_off,80,0,20,,,,,,,,13,,,,69,64
269360,note_off,80,0,22,,,,,,,,15,,,,49,64
269360,note_off,80,0,7,,,,,,,,4,,,,61,64
269360,note_off,80,0,19,,,,,,,,12,,,,69,64
269440,note_off,640,0,17,,,,,,,,10,,,,45,64
269440,note_off,640,0,15,,,,,,,,7,,,,57,64
269440,note_off,640,0,16,,,,,,,,8,,,,45,64
269440,note_off,640,0,8,,,,,,,,4,,,,45,64
269520,note_on,80,0,16,,,,,,,,8,,,,45,92
269520,note_on,160,0,6,,,,,,,,3,,,,73,92
269520,note_on,80,0,8,,,,,,,,4,,,,45,92
269520,note_on,0,0,10,,,,,,,,5,,,,64,92
269520,note_on,0,0,14,,,,,,,,7,,,,55,92
269520,note_off,720,0,14,,,,,,,,7,,,,57,64
269520,note_on,160,0,4,,,,,,,,2,,,,76,92
269520,note_on,0,0,9,,,,,,,,5,,,,67,92
269520,note_off,720,0,9,,,,,,,,5,,,,64,64
269520,note_on,0,0,11,,,,,,,,6,,,,79,92
269520,note_off,720,0,11,,,,,,,,6,,,,76,64
269520,note_on,160,0,1,,,,,,,,0,,,,79,92
269520,note_on,160,0,21,,,,,,,,14,,,,57,92
269520,note_on,160,0,18,,,,,,,,11,,,,79,108
269520,note_off,720,0,10,,,,,,,,5,,,,57,64
269520,note_on,160,0,5,,,,,,,,3,,,,76,92
269520,note_on,80,0,15,,,,,,,,7,,,,57,92
269520,note_on,160,0,22,,,,,,,,15,,,,45,92
269520,note_on,160,0,3,,,,,,,,2,,,,79,92
269520,note_on,80,0,17,,,,,,,,10,,,,45,92
269520,note_off,720,0,13,,,,,,,,7,,,,61,64
269520,note_on,0,0,13,,,,,,,,7,,,,64,92
269520,note_on,160,0,7,,,,,,,,4,,,,57,92
269520,note_on,160,0,20,,,,,,,,13,,,,73,92
269520,note_on,160,0,2,,,,,,,,0,,,,76,92
269520,note_on,0,0,12,,,,,,,,6,,,,76,92
269520,note_off,720,0,12,,,,,,,,6,,,,69,64
269520,note_on,160,0,19,,,,,,,,12,,,,76,92
269600,note_off,80,0,18,,,,,,,,11,,,,79,64
269600,note_off,80,0,20,,,,,,,,13,,,,73,64
269600,note_off,80,0,22,,,,,,,,15,,,,45,64
269600,note_off,80,0,4,,,,,,,,2,,,,76,64
269600,note_off,80,0,21,,,,,,,,14,,,,57,64
269600,note_off,80,0,1,,,,,,,,0,,,,79,64
269600,note_off,80,0,6,,,,,,,,3,,,,73,64
269600,note_off,80,0,19,,,,,,,,12,,,,76,64
269600,note_off,80,0,7,,,,,,,,4,,,,57,64
269600,note_off,80,0,2,,,,,,,,0,,,,76,64
269600,note_off,80,0,3,,,,,,,,2,,,,79,64
269600,note_off,80,0,5,,,,,,,,3,,,,76,64
269755,note_off,235,0,17,,,,,,,,10,,,,45,64
269755,note_off,235,0,16,,,,,,,,8,,,,45,64
269755,note_off,235,0,15,,,,,,,,7,,,,57,64
269755,note_off,235,0,14,,,,,,,,7,,,,55,64
269755,note_off,235,0,10,,,,,,,,5,,,,64,64
269755,note_off,235,0,9,,,,,,,,5,,,,67,64
269755,note_off,235,0,8,,,,,,,,4,,,,45,64
269755,note_off,235,0,13,,,,,,,,7,,,,64,64
269755,note_off,235,0,11,,,,,,,,6,,,,79,64
269755,note_off,235,0,12,,,,,,,,6,,,,76,64
269760,note_on,5,0,9,,,,,,,,5,,,,66,92
269760,note_on,5,0,16,,,,,,,,8,,,,38,92
269760,note_on,160,0,3,,,,,,,,2,,,,78,92
269760,note_on,5,0,11,,,,,,,,6,,,,78,92
269760,note_on,160,0,22,,,,,,,,15,,,,50,92
269760,note_on,160,0,4,,,,,,,,2,,,,74,92
269760,note_on,5,0,14,,,,,,,,7,,,,54,92
269760,note_on,5,0,8,,,,,,,,4,,,,38,92
269760,note_on,160,0,6,,,,,,,,3,,,,69,92
269760,note_on,160,0,19,,,,,,,,12,,,,74,92
269760,note_on,160,0,2,,,,,,,,0,,,,74,92
269760,note_on,160,0,5,,,,,,,,3,,,,74,92
269760,note_on,5,0,17,,,,,,,,10,,,,50,92
269760,note_on,160,0,20,,,,,,,,13,,,,69,92
269760,note_on,160,0,7,,,,,,,,4,,,,62,92
269760,note_on,160,0,18,,,,,,,,11,,,,78,108
269760,note_on,5,0,12,,,,,,,,6,,,,74,92
269760,note_on,5,0,15,,,,,,,,7,,,,50,92
269760,note_on,5,0,13,,,,,,,,7,,,,62,92
269760,note_on,5,0,10,,,,,,,,5,,,,62,92
269760,note_on,160,0,1,,,,,,,,0,,,,78,92
269760,note_on,160,0,21,,,,,,,,14,,,,62,92
269840,note_off,80,0,5,,,,,,,,3,,,,74,64
269840,note_off,80,0,21,,,,,,,,14,,,,62,64
269840,note_off,80,0,1,,,,,,,,0,,,,78,64
269840,note_off,80,0,18,,,,,,,,11,,,,78,64
269840,note_off,80,0,4,,,,,,,,2,,,,74,64
269840,note_off,80,0,19,,,,,,,,12,,,,74,64
269840,note_off,80,0,3,,,,,,,,2,,,,78,64
269840,note_off,80,0,7,,,,,,,,4,,,,62,64
269840,note_off,80,0,2,,,,,,,,0,,,,74,64
269840,note_off,80,0,22,,,,,,,,15,,,,50,64
270000,note_on,160,0,3,,,,,,,,2,,,,79,92
270000,note_on,160,0,7,,,,,,,,4,,,,50,92
270000,note_on,160,0,2,,,,,,,,0,,,,76,92
270000,note_on,160,0,21,,,,,,,,14,,,,50,92
270000,note_on,160,0,5,,,,,,,,3,,,,76,92
270000,note_on,160,0,19,,,,,,,,12,,,,76,92
270000,note_on,160,0,4,,,,,,,,2,,,,76,92
270000,note_on,160,0,22,,,,,,,,15,,,,38,92
270000,note_on,160,0,1,,,,,,,,0,,,,79,92
270000,note_on,160,0,18,,,,,,,,11,,,,79,108
270080,note_off,80,0,21,,,,,,,,14,,,,50,64
270080,note_off,80,0,5,,,,,,,,3,,,,76,64
270080,note_off,80,0,1,,,,,,,,0,,,,79,64
270080,note_off,80,0,2,,,,,,,,0,,,,76,64
270080,note_off,80,0,22,,,,,,,,15,,,,38,64
270080,note_off,80,0,18,,,,,,,,11,,,,79,64
270080,note_off,80,0,4,,,,,,,,2,,,,76,64
270080,note_off,80,0,3,,,,,,,,2,,,,79,64
270080,note_off,80,0,19,,,,,,,,12,,,,76,64
270080,note_off,80,0,7,,,,,,,,4,,,,50,64
270120,note_off,360,0,11,,,,,,,,6,,,,78,64
270120,note_off,360,0,9,,,,,,,,5,,,,66,64
270120,note_on,0,0,11,,,,,,,,6,,,,79,92
270120,note_on,0,0,14,,,,,,,,7,,,,55,92
270120,note_off,360,0,14,,,,,,,,7,,,,54,64
270120,note_off,360,0,10,,,,,,,,5,,,,62,64
270120,note_on,0,0,13,,,,,,,,7,,,,64,92
270120,note_off,360,0,13,,,,,,,,7,,,,62,64
270120,note_on,0,0,9,,,,,,,,5,,,,67,92
270120,note_on,0,0,10,,,,,,,,5,,,,64,92
270120,note_off,360,0,12,,,,,,,,6,,,,74,64
270120,note_on,0,0,12,,,,,,,,6,,,,76,92
270160,note_off,400,0,17,,,,,,,,10,,,,50,64
270160,note_off,400,0,16,,,,,,,,8,,,,38,64
270160,note_off,400,0,6,,,,,,,,3,,,,69,64
270160,note_off,400,0,15,,,,,,,,7,,,,50,64
270160,note_off,400,0,8,,,,,,,,4,,,,38,64
270160,note_off,400,0,20,,,,,,,,13,,,,69,64
270235,note_off,115,0,12,,,,,,,,6,,,,76,64
270235,note_off,115,0,10,,,,,,,,5,,,,64,64
270235,note_off,115,0,14,,,,,,,,7,,,,55,64
270235,note_off,115,0,11,,,,,,,,6,,,,79,64
270235,note_off,115,0,13,,,,,,,,7,,,,64,64
270235,note_off,115,0,9,,,,,,,,5,,,,67,64
270240,note_on,5,0,13,,,,,,,,7,,,,61,92
270240,note_on,160,0,1,,,,,,,,0,,,,76,92
270240,note_on,160,0,18,,,,,,,,11,,,,76,108
270240,note_on,160,0,19,,,,,,,,12,,,,73,92
270240,note_on,80,0,15,,,,,,,,7,,,,57,92
270240,note_on,80,0,20,,,,,,,,13,,,,69,92
270240,note_on,5,0,11,,,,,,,,6,,,,76,92
270240,set_tempo,181440,1,0,545454,,,,,,,,,,,,
270240,note_on,160,0,4,,,,,,,,2,,,,73,92
270240,note_on,160,0,3,,,,,,,,2,,,,76,92
270240,note_on,80,0,8,,,,,,,,4,,,,45,92
270240,note_on,80,0,6,,,,,,,,3,,,,69,92
270240,note_on,80,0,16,,,,,,,,8,,,,45,92
270240,note_on,5,0,9,,,,,,,,5,,,,64,92
270240,note_on,160,0,7,,,,,,,,4,,,,57,92
270240,note_on,5,0,12,,,,,,,,6,,,,69,92
270240,note_on,160,0,5,,,,,,,,3,,,,73,92
270240,note_on,160,0,21,,,,,,,,14,,,,57,92
270240,note_on,160,0,2,,,,,,,,0,,,,73,92
270240,note_on,5,0,14,,,,,,,,7,,,,57,92
270240,note_on,5,0,10,,,,,,,,5,,,,57,92
270240,note_on,80,0,17,,,,,,,,10,,,,45,92
270240,note_on,160,0,22,,,,,,,,15,,,,45,92
270310,set_tempo,70,1,0,550458,,,,,,,,,,,,
270320,note_off,80,0,5,,,,,,,,3,,,,73,64
270320,note_off,80,0,19,,,,,,,,12,,,,73,64
270320,note_off,80,0,2,,,,,,,,0,,,,73,64
270320,note_off,80,0,4,,,,,,,,2,,,,73,64
270320,note_off,80,0,7,,,,,,,,4,,,,57,64
270320,note_off,80,0,21,,,,,,,,14,,,,57,64
270320,note_off,80,0,22,,,,,,,,15,,,,45,64
270382,set_tempo,72,1,0,555555,,,,,,,,,,,,
270455,set_tempo,73,1,0,560747,,,,,,,,,,,,
270480,note_on,160,0,5,,,,,,,,3,,,,74,92
270480,note_on,160,0,21,,,,,,,,14,,,,59,92
270480,note_on,160,0,7,,,,,,,,4,,,,59,92
270480,note_on,160,0,22,,,,,,,,15,,,,47,92
270480,note_on,160,0,19,,,,,,,,12,,,,74,92
270480,note_on,160,0,4,,,,,,,,2,,,,74,92
270480,note_on,160,0,2,,,,,,,,0,,,,74,92
270527,set_tempo,72,1,0,566037,,,,,,,,,,,,
270560,note_off,80,0,2,,,,,,,,0,,,,74,64
270560,note_off,80,0,22,,,,,,,,15,,,,47,64
270560,note_off,80,0,4,,,,,,,,2,,,,74,64
270560,note_off,80,0,7,,,,,,,,4,,,,59,64
270560,note_off,80,0,21,,,,,,,,14,,,,59,64
270560,note_off,80,0,5,,,,,,,,3,,,,74,64
270560,note_off,80,0,19,,,,,,,,12,,,,74,64
270597,set_tempo,70,1,0,571428,,,,,,,,,,,,
270640,note_off,400,0,13,,,,,,,,7,,,,61,64
270640,note_off,400,0,6,,,,,,,,3,,,,69,64
270640,note_off,400,0,20,,,,,,,,13,,,,69,64
270640,note_off,400,0,18,,,,,,,,11,,,,76,64
270640,note_off,400,0,1,,,,,,,,0,,,,76,64
270640,note_off,400,0,8,,,,,,,,4,,,,45,64
270640,note_off,400,0,3,,,,,,,,2,,,,76,64
270640,note_off,400,0,14,,,,,,,,7,,,,57,64
270640,note_off,400,0,16,,,,,,,,8,,,,45,64
270640,note_off,400,0,17,,,,,,,,10,,,,45,64
270640,note_off,400,0,12,,,,,,,,6,,,,69,64
270640,note_off,400,0,10,,,,,,,,5,,,,57,64
270640,note_off,400,0,9,,,,,,,,5,,,,64,64
270640,note_off,400,0,11,,,,,,,,6,,,,76,64
270640,note_off,400,0,15,,,,,,,,7,,,,57,64
270670,set_tempo,73,1,0,576923,,,,,,,,,,,,
270720,note_on,160,0,2,,,,,,,,0,,,,76,92
270720,note_on,160,0,4,,,,,,,,2,,,,76,92
270720,note_on,160,0,22,,,,,,,,15,,,,49,92
270720,note_on,80,0,9,,,,,,,,5,,,,69,92
270720,note_on,80,0,16,,,,,,,,8,,,,45,92
270720,note_on,80,0,10,,,,,,,,5,,,,64,92
270720,note_on,80,0,12,,,,,,,,6,,,,76,92
270720,note_on,80,0,6,,,,,,,,3,,,,69,92
270720,note_on,160,0,7,,,,,,,,4,,,,61,92
270720,note_on,80,0,18,,,,,,,,11,,,,81,108
270720,note_on,80,0,8,,,,,,,,4,,,,45,92
270720,note_on,80,0,17,,,,,,,,10,,,,45,92
270720,note_on,80,0,3,,,,,,,,2,,,,81,92
270720,note_on,80,0,15,,,,,,,,7,,,,57,92
270720,note_on,160,0,21,,,,,,,,14,,,,61,92
270720,note_on,80,0,20,,,,,,,,13,,,,69,92
270720,note_on,80,0,1,,,,,,,,0,,,,81,92
270720,note_on,80,0,11,,,,,,,,6,,,,81,92
270720,note_on,80,0,13,,,,,,,,7,,,,64,92
270720,note_on,160,0,5,,,,,,,,3,,,,76,92
270720,note_on,160,0,19,,,,,,,,12,,,,76,92
270720,note_on,80,0,14,,,,,,,,7,,,,61,92
270742,set_tempo,72,1,0,582524,,,,,,,,,,,,
270800,note_off,80,0,20,,,,,,,,13,,,,69,64
270800,note_off,80,0,2,,,,,,,,0,,,,76,64
270800,note_off,80,0,7,,,,,,,,4,,,,61,64
270800,note_off,80,0,4,,,,,,,,2,,,,76,64
270800,note_off,80,0,19,,,,,,,,12,,,,76,64
270800,note_off,80,0,22,,,,,,,,15,,,,49,64
270800,note_off,80,0,5,,,,,,,,3,,,,76,64
270800,note_off,80,0,6,,,,,,,,3,,,,69,64
270800,note_off,80,0,21,,,,,,,,14,,,,61,64
270815,set_tempo,73,1,0,588235,,,,,,,,,,,,
270887,set_tempo,72,1,0,594059,,,,,,,,,,,,
270957,set_tempo,70,1,0,600000,,,,,,,,,,,,
270960,note_on,160,0,5,,,,,,,,3,,,,78,92
270960,note_on,160,0,21,,,,,,,,14,,,,62,92
270960,note_on,160,0,20,,,,,,,,13,,,,74,92
270960,note_on,160,0,19,,,,,,,,12,,,,78,92
270960,note_on,160,0,22,,,,,,,,15,,,,50,92
270960,note_on,160,0,6,,,,,,,,3,,,,74,92
270960,note_on,160,0,7,,,,,,,,4,,,,62,92
270960,note_on,160,0,2,,,,,,,,0,,,,78,92
270960,note_on,160,0,4,,,,,,,,2,,,,78,92
271030,set_tempo,73,1,0,606060,,,,,,,,,,,,
271040,note_off,80,0,19,,,,,,,,12,,,,78,64
271040,note_off,80,0,4,,,,,,,,2,,,,78,64
271040,note_off,80,0,6,,,,,,,,3,,,,74,64
271040,note_off,80,0,2,,,,,,,,0,,,,78,64
271040,note_off,80,0,20,,,,,,,,13,,,,74,64
271040,note_off,80,0,5,,,,,,,,3,,,,78,64
271040,note_off,80,0,21,,,,,,,,14,,,,62,64
271040,note_off,80,0,7,,,,,,,,4,,,,62,64
271040,note_off,80,0,22,,,,,,,,15,,,,50,64
271080,note_on,0,0,10,,,,,,,,5,,,,66,92
271080,note_on,0,0,13,,,,,,,,7,,,,66,92
271080,note_off,360,0,13,,,,,,,,7,,,,64,64
271080,note_on,0,0,12,,,,,,,,6,,,,78,92
271080,note_off,360,0,10,,,,,,,,5,,,,64,64
271080,note_off,360,0,12,,,,,,,,6,,,,76,64
271080,note_off,360,0,14,,,,,,,,7,,,,61,64
271080,note_on,0,0,14,,,,,,,,7,,,,62,92
271102,set_tempo,72,1,0,612244,,,,,,,,,,,,
271120,note_off,400,0,9,,,,,,,,5,,,,69,64
271120,note_off,400,0,18,,,,,,,,11,,,,81,64
271120,note_off,400,0,11,,,,,,,,6,,,,81,64
271120,note_off,400,0,16,,,,,,,,8,,,,45,64
271120,note_off,400,0,15,,,,,,,,7,,,,57,64
271120,note_off,400,0,8,,,,,,,,4,,,,45,64
271120,note_off,400,0,3,,,,,,,,2,,,,81,64
271120,note_off,400,0,1,,,,,,,,0,,,,81,64
271120,note_off,400,0,17,,,,,,,,10,,,,45,64
271175,set_tempo,73,1,0,618556,,,,,,,,,,,,
271195,note_off,115,0,10,,,,,,,,5,,,,66,64
271195,note_off,115,0,12,,,,,,,,6,,,,78,64
271195,note_off,115,0,14,,,,,,,,7,,,,62,64
271195,note_off,115,0,13,,,,,,,,7,,,,66,64
271200,note_on,160,0,21,,,,,,,,14,,,,64,92
271200,note_on,5,0,13,,,,,,,,7,,,,67,92
271200,note_on,80,0,8,,,,,,,,4,,,,45,92
271200,note_on,160,0,22,,,,,,,,15,,,,52,92
271200,note_on,160,0,4,,,,,,,,2,,,,79,92
271200,note_on,5,0,14,,,,,,,,7,,,,64,92
271200,note_on,80,0,3,,,,,,,,2,,,,81,92
271200,note_on,80,0,15,,,,,,,,7,,,,57,92
271200,note_on,160,0,20,,,,,,,,13,,,,73,92
271200,note_on,80,0,1,,,,,,,,0,,,,81,92
271200,note_on,160,0,2,,,,,,,,0,,,,79,92
271200,note_on,160,0,5,,,,,,,,3,,,,79,92
271200,note_on,160,0,7,,,,,,,,4,,,,64,92
271200,note_on,80,0,18,,,,,,,,11,,,,81,108
271200,note_on,5,0,10,,,,,,,,5,,,,67,92
271200,note_on,160,0,19,,,,,,,,12,,,,79,92
271200,note_on,160,0,6,,,,,,,,3,,,,73,92
271200,note_on,80,0,16,,,,,,,,8,,,,45,92
271200,note_on,80,0,9,,,,,,,,5,,,,69,92
271200,note_on,80,0,11,,,,,,,,6,,,,81,92
271200,note_on,80,0,17,,,,,,,,10,,,,45,92
271200,note_on,5,0,12,,,,,,,,6,,,,79,92
271247,set_tempo,72,1,0,625000,,,,,,,,,,,,
271280,note_off,80,0,2,,,,,,,,0,,,,79,64
271280,note_off,80,0,4,,,,,,,,2,,,,79,64
271280,note_off,80,0,21,,,,,,,,14,,,,64,64
271280,note_off,80,0,19,,,,,,,,12,,,,79,64
271280,note_off,80,0,7,,,,,,,,4,,,,64,64
271280,note_off,80,0,22,,,,,,,,15,,,,52,64
271280,note_off,80,0,5,,,,,,,,3,,,,79,64
271317,set_tempo,70,1,0,631578,,,,,,,,,,,,
271390,set_tempo,73,1,0,638297,,,,,,,,,,,,
271440,note_on,160,0,7,,,,,,,,4,,,,61,92
271440,note_on,160,0,22,,,,,,,,15,,,,49,92
271440,note_on,160,0,2,,,,,,,,0,,,,76,92
271440,note_on,160,0,5,,,,,,,,3,,,,76,92
271440,note_on,160,0,19,,,,,,,,12,,,,76,92
271440,note_on,160,0,4,,,,,,,,2,,,,76,92
271440,note_on,160,0,21,,,,,,,,14,,,,61,92
271462,set_tempo,72,1,0,645161,,,,,,,,,,,,
271520,note_off,80,0,4,,,,,,,,2,,,,76,64
271520,note_off,80,0,2,,,,,,,,0,,,,76,64
271520,note_off,80,0,7,,,,,,,,4,,,,61,64
271520,note_off,80,0,21,,,,,,,,14,,,,61,64
271520,note_off,80,0,22,,,,,,,,15,,,,49,64
271520,note_off,80,0,19,,,,,,,,12,,,,76,64
271520,note_off,80,0,5,,,,,,,,3,,,,76,64
271535,set_tempo,73,1,0,652173,,,,,,,,,,,,
271560,note_off,360,0,12,,,,,,,,6,,,,79,64
271560,note_on,0,0,12,,,,,,,,6,,,,76,92
271560,note_on,0,0,14,,,,,,,,7,,,,61,92
271560,note_off,360,0,10,,,,,,,,5,,,,67,64
271560,note_on,0,0,10,,,,,,,,5,,,,64,92
271560,note_off,360,0,13,,,,,,,,7,,,,67,64
271560,note_off,360,0,14,,,,,,,,7,,,,64,64
271560,note_on,0,0,13,,,,,,,,7,,,,64,92
271600,note_off,400,0,20,,,,,,,,13,,,,73,64
271600,note_off,400,0,16,,,,,,,,8,,,,45,64
271600,note_off,400,0,11,,,,,,,,6,,,,81,64
271600,note_off,400,0,6,,,,,,,,3,,,,73,64
271600,note_off,400,0,1,,,,,,,,0,,,,81,64
271600,note_off,400,0,18,,,,,,,,11,,,,81,64
271600,note_off,400,0,17,,,,,,,,10,,,,45,64
271600,note_off,400,0,3,,,,,,,,2,,,,81,64
271600,note_off,400,0,8,,,,,,,,4,,,,45,64
271600,note_off,400,0,15,,,,,,,,7,,,,57,64
271600,note_off,400,0,9,,,,,,,,5,,,,69,64
271607,set_tempo,72,1,0,659340,,,,,,,,,,,,
271675,note_off,115,0,10,,,,,,,,5,,,,64,64
271675,note_off,115,0,12,,,,,,,,6,,,,76,64
271675,note_off,115,0,14,,,,,,,,7,,,,61,64
271675,note_off,115,0,13,,,,,,,,7,,,,64,64
271680,note_on,80,0,16,,,,,,,,8,,,,38,92
271680,note_on,5,0,14,,,,,,,,7,,,,57,92
271680,note_on,160,0,19,,,,,,,,12,,,,78,92
271680,note_on,80,0,6,,,,,,,,3,,,,69,92
271680,note_on,160,0,5,,,,,,,,3,,,,78,92
271680,note_on,80,0,8,,,,,,,,4,,,,38,92
271680,note_on,80,0,3,,,,,,,,2,,,,81,92
271680,note_on,80,0,17,,,,,,,,10,,,,50,92
271680,set_tempo,73,1,0,666666,,,,,,,,,,,,
271680,note_on,5,0,13,,,,,,,,7,,,,66,92
271680,note_on,160,0,21,,,,,,,,14,,,,62,92
271680,note_on,80,0,9,,,,,,,,5,,,,69,92
271680,note_on,160,0,4,,,,,,,,2,,,,78,92
271680,note_on,80,0,11,,,,,,,,6,,,,81,92
271680,note_on,80,0,15,,,,,,,,7,,,,50,92
271680,note_on,160,0,22,,,,,,,,15,,,,50,92
271680,note_on,80,0,20,,,,,,,,13,,,,69,92
271680,note_on,160,0,7,,,,,,,,4,,,,62,92
271680,note_on,80,0,18,,,,,,,,11,,,,81,108
271680,note_on,5,0,12,,,,,,,,6,,,,78,92
271680,note_on,80,0,1,,,,,,,,0,,,,81,92
271680,note_on,160,0,2,,,,,,,,0,,,,78,92
271680,note_on,5,0,10,,,,,,,,5,,,,66,92
272320,note_off,640,0,14,,,,,,,,7,,,,57,64
272320,note_off,640,0,9,,,,,,,,5,,,,69,64
272320,note_off,640,0,18,,,,,,,,11,,,,81,64
272320,note_off,640,0,3,,,,,,,,2,,,,81,64
272320,note_off,640,0,22,,,,,,,,15,,,,50,64
272320,note_off,640,0,16,,,,,,,,8,,,,38,64
272320,note_off,640,0,17,,,,,,,,10,,,,50,64
272320,note_off,640,0,15,,,,,,,,7,,,,50,64
272320,note_off,640,0,1,,,,,,,,0,,,,81,64
272320,note_off,640,0,12,,,,,,,,6,,,,78,64
272320,note_off,640,0,21,,,,,,,,14,,,,62,64
272320,note_off,640,0,13,,,,,,,,7,,,,66,64
272320,note_off,640,0,7,,,,,,,,4,,,,62,64
272320,note_off,640,0,8,,,,,,,,4,,,,38,64
272320,note_off,640,0,11,,,,,,,,6,,,,81,64
272320,note_off,640,0,10,,,,,,,,5,,,,66,64
272400,note_off,720,0,5,,,,,,,,3,,,,78,64
272400,note_on,80,0,12,,,,,,,,6,,,,76,92
272400,note_on,80,0,22,,,,,,,,15,,,,45,92
272400,note_on,0,0,5,,,,,,,,3,,,,76,92
272400,note_on,80,0,15,,,,,,,,7,,,,57,92
272400,note_on,80,0,18,,,,,,,,11,,,,79,108
272400,note_on,0,0,2,,,,,,,,0,,,,76,92
272400,note_on,0,0,19,,,,,,,,12,,,,76,92
272400,note_on,80,0,7,,,,,,,,4,,,,57,92
272400,note_on,80,0,3,,,,,,,,2,,,,79,92
272400,note_on,80,0,11,,,,,,,,6,,,,79,92
272400,note_on,80,0,17,,,,,,,,10,,,,45,92
272400,note_on,80,0,10,,,,,,,,5,,,,64,92
272400,note_on,80,0,21,,,,,,,,14,,,,57,92
272400,note_on,80,0,13,,,,,,,,7,,,,64,92
272400,note_off,720,0,20,,,,,,,,13,,,,69,64
272400,note_on,80,0,8,,,,,,,,4,,,,45,92
272400,note_on,0,0,20,,,,,,,,13,,,,73,92
272400,note_off,720,0,2,,,,,,,,0,,,,78,64
272400,note_off,720,0,6,,,,,,,,3,,,,69,64
272400,note_off,720,0,19,,,,,,,,12,,,,78,64
272400,note_off,720,0,4,,,,,,,,2,,,,78,64
272400,note_on,80,0,16,,,,,,,,8,,,,45,92
272400,note_on,0,0,6,,,,,,,,3,,,,73,92
272400,note_on,80,0,9,,,,,,,,5,,,,67,92
272400,note_on,80,0,14,,,,,,,,7,,,,55,92
272400,note_on,80,0,1,,,,,,,,0,,,,79,92
272400,note_on,0,0,4,,,,,,,,2,,,,76,92
272635,note_off,235,0,19,,,,,,,,12,,,,76,64
272635,note_off,235,0,2,,,,,,,,0,,,,76,64
272635,note_off,235,0,15,,,,,,,,7,,,,57,64
272635,note_off,235,0,21,,,,,,,,14,,,,57,64
272635,note_off,235,0,5,,,,,,,,3,,,,76,64
272635,note_off,235,0,6,,,,,,,,3,,,,73,64
272635,note_off,235,0,4,,,,,,,,2,,,,76,64
272635,note_off,235,0,22,,,,,,,,15,,,,45,64
272635,note_off,235,0,16,,,,,,,,8,,,,45,64
272635,note_off,235,0,8,,,,,,,,4,,,,45,64
272635,note_off,235,0,20,,,,,,,,13,,,,73,64
272635,note_off,235,0,7,,,,,,,,4,,,,57,64
272635,note_off,235,0,17,,,,,,,,10,,,,45,64
272640,note_on,0,0,11,,,,,,,,6,,,,78,92
272640,note_on,0,0,3,,,,,,,,2,,,,78,92
272640,note_off,240,0,11,,,,,,,,6,,,,79,64
272640,note_off,240,0,3,,,,,,,,2,,,,79,64
272640,note_off,240,0,18,,,,,,,,11,,,,79,64
272640,note_on,5,0,17,,,,,,,,10,,,,50,92
272640,note_off,240,0,10,,,,,,,,5,,,,64,64
272640,note_on,0,0,14,,,,,,,,7,,,,54,92
272640,note_off,240,0,9,,,,,,,,5,,,,67,64
272640,note_on,5,0,21,,,,,,,,14,,,,59,92
272640,note_off,240,0,1,,,,,,,,0,,,,79,64
272640,note_on,0,0,10,,,,,,,,5,,,,62,92
272640,note_on,5,0,4,,,,,,,,2,,,,74,92
272640,note_off,240,0,14,,,,,,,,7,,,,55,64
272640,note_on,5,0,8,,,,,,,,4,,,,38,92
272640,note_on,5,0,20,,,,,,,,13,,,,74,92
272640,note_on,0,0,18,,,,,,,,11,,,,78,108
272640,note_on,5,0,2,,,,,,,,0,,,,74,92
272640,note_on,5,0,16,,,,,,,,8,,,,38,92
272640,note_on,0,0,1,,,,,,,,0,,,,78,92
272640,note_on,0,0,12,,,,,,,,6,,,,74,92
272640,note_on,0,0,9,,,,,,,,5,,,,66,92
272640,note_on,5,0,22,,,,,,,,15,,,,47,92
272640,note_off,240,0,12,,,,,,,,6,,,,76,64
272640,note_on,5,0,15,,,,,,,,7,,,,50,92
272640,note_on,0,0,13,,,,,,,,7,,,,62,92
272640,note_on,5,0,5,,,,,,,,3,,,,74,92
272640,note_on,5,0,19,,,,,,,,12,,,,74,92
272640,note_on,5,0,6,,,,,,,,3,,,,71,92
272640,note_on,5,0,7,,,,,,,,4,,,,59,92
272640,note_off,240,0,13,,,,,,,,7,,,,64,64
272880,note_on,0,0,10,,,,,,,,5,,,,61,92
272880,note_off,240,0,10,,,,,,,,5,,,,62,64
272880,note_on,0,0,12,,,,,,,,6,,,,73,92
272880,note_off,240,0,11,,,,,,,,6,,,,78,64
272880,note_on,0,0,18,,,,,,,,11,,,,76,108
272880,note_off,240,0,18,,,,,,,,11,,,,78,64
272880,note_on,0,0,1,,,,,,,,0,,,,76,92
272880,note_off,240,0,12,,,,,,,,6,,,,74,64
272880,note_off,240,0,14,,,,,,,,7,,,,54,64
272880,note_on,0,0,9,,,,,,,,5,,,,64,92
272880,note_off,240,0,1,,,,,,,,0,,,,78,64
272880,note_off,240,0,9,,,,,,,,5,,,,66,64
272880,note_on,0,0,3,,,,,,,,2,,,,76,92
272880,note_off,240,0,3,,,,,,,,2,,,,78,64
272880,note_on,0,0,13,,,,,,,,7,,,,61,92
272880,note_on,0,0,11,,,,,,,,6,,,,76,92
272880,note_off,240,0,13,,,,,,,,7,,,,62,64
272880,note_on,0,0,14,,,,,,,,7,,,,52,92
273040,note_off,400,0,20,,,,,,,,13,,,,74,64
273040,note_off,400,0,21,,,,,,,,14,,,,59,64
273040,note_off,400,0,2,,,,,,,,0,,,,74,64
273040,note_off,400,0,19,,,,,,,,12,,,,74,64
273040,note_off,400,0,8,,,,,,,,4,,,,38,64
273040,note_off,400,0,7,,,,,,,,4,,,,59,64
273040,note_off,400,0,6,,,,,,,,3,,,,71,64
273040,note_off,400,0,4,,,,,,,,2,,,,74,64
273040,note_off,400,0,17,,,,,,,,10,,,,50,64
273040,note_off,400,0,15,,,,,,,,7,,,,50,64
273040,note_off,400,0,5,,,,,,,,3,,,,74,64
273040,note_off,400,0,22,,,,,,,,15,,,,47,64
273040,note_off,400,0,16,,,,,,,,8,,,,38,64
273115,note_off,235,0,18,,,,,,,,11,,,,76,64
273115,note_off,235,0,14,,,,,,,,7,,,,52,64
273115,note_off,235,0,12,,,,,,,,6,,,,73,64
273115,note_off,235,0,9,,,,,,,,5,,,,64,64
273115,note_off,235,0,13,,,,,,,,7,,,,61,64
273115,note_off,235,0,3,,,,,,,,2,,,,76,64
273115,note_off,235,0,10,,,,,,,,5,,,,61,64
273115,note_off,235,0,11,,,,,,,,6,,,,76,64
273115,note_off,235,0,1,,,,,,,,0,,,,76,64
273120,note_on,5,0,14,,,,,,,,7,,,,54,92
273120,note_on,5,0,11,,,,,,,,6,,,,78,92
273120,note_on,80,0,6,,,,,,,,3,,,,71,92
273120,note_on,5,0,12,,,,,,,,6,,,,74,92
273120,note_on,80,0,4,,,,,,,,2,,,,74,92
273120,note_on,80,0,16,,,,,,,,8,,,,38,92
273120,note_on,80,0,8,,,,,,,,4,,,,38,92
273120,note_on,5,0,10,,,,,,,,5,,,,62,92
273120,note_on,5,0,1,,,,,,,,0,,,,78,92
273120,note_on,80,0,7,,,,,,,,4,,,,55,92
273120,note_on,80,0,21,,,,,,,,14,,,,55,92
273120,note_on,80,0,19,,,,,,,,12,,,,74,92
273120,note_on,5,0,9,,,,,,,,5,,,,66,92
273120,note_on,80,0,22,,,,,,,,15,,,,43,92
273120,note_on,80,0,15,,,,,,,,7,,,,50,92
273120,note_on,80,0,2,,,,,,,,0,,,,74,92
273120,note_on,5,0,18,,,,,,,,11,,,,78,108
273120,note_on,5,0,13,,,,,,,,7,,,,62,92
273120,note_on,80,0,17,,,,,,,,10,,,,50,92
273120,set_tempo,1440,1,0,750000,,,,,,,,,,,,
273120,note_on,5,0,3,,,,,,,,2,,,,78,92
273120,note_on,80,0,20,,,,,,,,13,,,,71,92
273120,note_on,80,0,5,,,,,,,,3,,,,74,92
273360,note_off,240,0,18,,,,,,,,11,,,,78,64
273360,note_on,0,0,18,,,,,,,,11,,,,79,108
273360,note_on,0,0,14,,,,,,,,7,,,,55,92
273360,note_off,240,0,14,,,,,,,,7,,,,54,64
273360,note_off,240,0,10,,,,,,,,5,,,,62,64
273360,note_on,0,0,3,,,,,,,,2,,,,79,92
273360,note_off,240,0,9,,,,,,,,5,,,,66,64
273360,note_on,0,0,9,,,,,,,,5,,,,67,92
273360,note_off,240,0,12,,,,,,,,6,,,,74,64
273360,note_off,240,0,1,,,,,,,,0,,,,78,64
273360,note_on,0,0,12,,,,,,,,6,,,,76,92
273360,note_on,0,0,13,,,,,,,,7,,,,64,92
273360,note_on,0,0,11,,,,,,,,6,,,,81,92
273360,note_off,240,0,11,,,,,,,,6,,,,78,64
273360,note_off,240,0,13,,,,,,,,7,,,,62,64
273360,note_off,240,0,3,,,,,,,,2,,,,78,64
273360,note_on,0,0,10,,,,,,,,5,,,,64,92
273360,note_on,0,0,1,,,,,,,,0,,,,79,92
273520,note_off,400,0,20,,,,,,,,13,,,,71,64
273520,note_off,400,0,5,,,,,,,,3,,,,74,64
273520,note_off,400,0,21,,,,,,,,14,,,,55,64
273520,note_off,400,0,4,,,,,,,,2,,,,74,64
273520,note_off,400,0,17,,,,,,,,10,,,,50,64
273520,note_off,400,0,19,,,,,,,,12,,,,74,64
273520,note_off,400,0,22,,,,,,,,15,,,,43,64
273520,note_off,400,0,7,,,,,,,,4,,,,55,64
273520,note_off,400,0,15,,,,,,,,7,,,,50,64
273520,note_off,400,0,2,,,,,,,,0,,,,74,64
273520,note_off,400,0,16,,,,,,,,8,,,,38,64
273520,note_off,400,0,6,,,,,,,,3,,,,71,64
273520,note_off,400,0,8,,,,,,,,4,,,,38,64
273595,note_off,235,0,1,,,,,,,,0,,,,79,64
273595,note_off,235,0,3,,,,,,,,2,,,,79,64
273595,note_off,235,0,13,,,,,,,,7,,,,64,64
273595,note_off,235,0,11,,,,,,,,6,,,,81,64
273595,note_off,235,0,10,,,,,,,,5,,,,64,64
273595,note_off,235,0,12,,,,,,,,6,,,,76,64
273595,note_off,235,0,9,,,,,,,,5,,,,67,64
273595,note_off,235,0,14,,,,,,,,7,,,,55,64
273595,note_off,235,0,18,,,,,,,,11,,,,79,64
273600,note_on,5,0,11,,,,,,,,6,,,,76,92
273600,note_on,5,0,12,,,,,,,,6,,,,76,92
273600,note_on,80,0,20,,,,,,,,13,,,,64,92
273600,note_on,5,0,14,,,,,,,,7,,,,57,92
273600,note_on,80,0,5,,,,,,,,3,,,,74,92
273600,note_on,5,0,13,,,,,,,,7,,,,64,92
273600,note_on,80,0,17,,,,,,,,10,,,,45,92
273600,note_on,5,0,3,,,,,,,,2,,,,76,92
273600,note_on,5,0,18,,,,,,,,11,,,,76,108
273600,note_on,80,0,2,,,,,,,,0,,,,74,92
273600,note_on,80,0,8,,,,,,,,4,,,,45,92
273600,note_on,80,0,21,,,,,,,,14,,,,57,92
273600,note_on,5,0,9,,,,,,,,5,,,,64,92
273600,note_on,80,0,4,,,,,,,,2,,,,74,92
273600,note_on,5,0,10,,,,,,,,5,,,,64,92
273600,note_on,80,0,22,,,,,,,,15,,,,45,92
273600,note_on,80,0,6,,,,,,,,3,,,,64,92
273600,note_on,80,0,19,,,,,,,,12,,,,74,92
273600,note_on,80,0,7,,,,,,,,4,,,,57,92
273600,note_on,80,0,16,,,,,,,,8,,,,45,92
273600,note_on,5,0,1,,,,,,,,0,,,,76,92
273600,note_on,80,0,15,,,,,,,,7,,,,57,92
273660,note_on,0,0,9,,,,,,,,5,,,,66,92
273660,note_off,60,0,11,,,,,,,,6,,,,76,64
273660,note_on,0,0,11,,,,,,,,6,,,,78,92
273660,note_on,0,0,3,,,,,,,,2,,,,78,92
273660,note_on,0,0,18,,,,,,,,11,,,,78,108
273660,note_off,60,0,3,,,,,,,,2,,,,76,64
273660,note_on,0,0,1,,,,,,,,0,,,,78,92
273660,note_off,60,0,18,,,,,,,,11,,,,76,64
273660,note_off,60,0,1,,,,,,,,0,,,,76,64
273660,note_off,60,0,9,,,,,,,,5,,,,64,64
273720,note_off,60,0,1,,,,,,,,0,,,,78,64
273720,note_off,60,0,3,,,,,,,,2,,,,78,64
273720,note_on,0,0,3,,,,,,,,2,,,,76,92
273720,note_on,0,0,9,,,,,,,,5,,,,64,92
273720,note_on,0,0,18,,,,,,,,11,,,,76,108
273720,note_off,60,0,9,,,,,,,,5,,,,66,64
273720,note_on,0,0,1,,,,,,,,0,,,,76,92
273720,note_off,60,0,18,,,,,,,,11,,,,78,64
273720,note_off,60,0,11,,,,,,,,6,,,,78,64
273720,note_on,0,0,11,,,,,,,,6,,,,76,92
273780,note_off,60,0,11,,,,,,,,6,,,,76,64
273780,note_on,0,0,18,,,,,,,,11,,,,78,108
273780,note_off,60,0,9,,,,,,,,5,,,,64,64
273780,note_off,60,0,18,,,,,,,,11,,,,76,64
273780,note_on,0,0,11,,,,,,,,6,,,,78,92
273780,note_off,60,0,3,,,,,,,,2,,,,76,64
273780,note_on,0,0,3,,,,,,,,2,,,,78,92
273780,note_on,0,0,9,,,,,,,,5,,,,66,92
273780,note_off,60,0,1,,,,,,,,0,,,,76,64
273780,note_on,0,0,1,,,,,,,,0,,,,78,92
273840,note_on,0,0,3,,,,,,,,2,,,,76,92
273840,note_off,60,0,9,,,,,,,,5,,,,66,64
273840,note_off,60,0,11,,,,,,,,6,,,,78,64
273840,note_on,0,0,11,,,,,,,,6,,,,76,92
273840,note_on,0,0,9,,,,,,,,5,,,,64,92
273840,note_off,60,0,1,,,,,,,,0,,,,78,64
273840,note_on,0,0,1,,,,,,,,0,,,,76,92
273840,note_off,60,0,18,,,,,,,,11,,,,78,64
273840,note_on,0,0,18,,,,,,,,11,,,,76,108
273840,note_off,60,0,3,,,,,,,,2,,,,78,64
273900,note_on,0,0,9,,,,,,,,5,,,,66,92
273900,note_off,60,0,9,,,,,,,,5,,,,64,64
273900,note_off,60,0,1,,,,,,,,0,,,,76,64
273900,note_off,60,0,11,,,,,,,,6,,,,76,64
273900,note_on,0,0,1,,,,,,,,0,,,,78,92
273900,note_off,60,0,18,,,,,,,,11,,,,76,64
273900,note_on,0,0,18,,,,,,,,11,,,,78,108
273900,note_off,60,0,3,,,,,,,,2,,,,76,64
273900,note_on,0,0,3,,,,,,,,2,,,,78,92
273900,note_on,0,0,11,,,,,,,,6,,,,78,92
273960,note_on,0,0,11,,,,,,,,6,,,,76,92
273960,note_off,60,0,11,,,,,,,,6,,,,78,64
273960,note_off,60,0,18,,,,,,,,11,,,,78,64
273960,note_off,60,0,1,,,,,,,,0,,,,78,64
273960,note_off,60,0,9,,,,,,,,5,,,,66,64
273960,note_on,0,0,18,,,,,,,,11,,,,76,108
273960,note_on,0,0,9,,,,,,,,5,,,,64,92
273960,note_off,60,0,3,,,,,,,,2,,,,78,64
273960,note_on,0,0,3,,,,,,,,2,,,,76,92
273960,note_on,0,0,1,,,,,,,,0,,,,76,92
274000,note_off,400,0,22,,,,,,,,15,,,,45,64
274000,note_off,400,0,6,,,,,,,,3,,,,64,64
274000,note_off,400,0,2,,,,,,,,0,,,,74,64
274000,note_off,400,0,7,,,,,,,,4,,,,57,64
274000,note_off,400,0,19,,,,,,,,12,,,,74,64
274000,note_off,400,0,21,,,,,,,,14,,,,57,64
274000,note_off,400,0,4,,,,,,,,2,,,,74,64
274000,note_off,400,0,5,,,,,,,,3,,,,74,64
274000,note_off,400,0,20,,,,,,,,13,,,,64,64
274020,note_off,60,0,11,,,,,,,,6,,,,76,64
274020,note_on,0,0,3,,,,,,,,2,,,,78,92
274020,note_on,0,0,1,,,,,,,,0,,,,78,92
274020,note_off,60,0,1,,,,,,,,0,,,,76,64
274020,note_off,60,0,3,,,,,,,,2,,,,76,64
274020,note_on,0,0,18,,,,,,,,11,,,,78,108
274020,note_on,0,0,9,,,,,,,,5,,,,66,92
274020,note_off,60,0,9,,,,,,,,5,,,,64,64
274020,note_on,0,0,11,,,,,,,,6,,,,78,92
274020,note_off,60,0,18,,,,,,,,11,,,,76,64
274080,note_on,80,0,19,,,,,,,,12,,,,73,92
274080,note_on,80,0,6,,,,,,,,3,,,,69,92
274080,note_on,80,0,7,,,,,,,,4,,,,45,92
274080,note_on,80,0,22,,,,,,,,15,,,,33,92
274080,note_off,480,0,10,,,,,,,,5,,,,64,64
274080,note_on,0,0,10,,,,,,,,5,,,,57,92
274080,note_on,0,0,9,,,,,,,,5,,,,64,92
274080,note_off,60,0,9,,,,,,,,5,,,,66,64
274080,note_on,0,0,3,,,,,,,,2,,,,76,92
274080,note_on,80,0,4,,,,,,,,2,,,,73,92
274080,note_off,60,0,3,,,,,,,,2,,,,78,64
274080,note_off,60,0,1,,,,,,,,0,,,,78,64
274080,note_off,480,0,13,,,,,,,,7,,,,64,64
274080,note_on,0,0,13,,,,,,,,7,,,,61,92
274080,note_on,80,0,5,,,,,,,,3,,,,73,92
274080,note_off,60,0,11,,,,,,,,6,,,,78,64
274080,note_on,0,0,11,,,,,,,,6,,,,76,92
274080,note_off,480,0,14,,,,,,,,7,,,,57,64
274080,note_on,0,0,14,,,,,,,,7,,,,54,92
274080,note_off,480,0,12,,,,,,,,6,,,,76,64
274080,note_on,0,0,12,,,,,,,,6,,,,69,92
274080,note_on,80,0,20,,,,,,,,13,,,,69,92
274080,note_on,80,0,2,,,,,,,,0,,,,73,92
274080,note_off,60,0,18,,,,,,,,11,,,,78,64
274080,note_on,0,0,1,,,,,,,,0,,,,76,92
274080,note_on,0,0,18,,,,,,,,11,,,,76,108
274080,note_on,80,0,21,,,,,,,,14,,,,45,92
274140,note_on,0,0,11,,,,,,,,6,,,,78,92
274140,note_off,60,0,1,,,,,,,,0,,,,76,64
274140,note_off,60,0,18,,,,,,,,11,,,,76,64
274140,note_off,60,0,11,,,,,,,,6,,,,76,64
274140,note_off,60,0,3,,,,,,,,2,,,,76,64
274140,note_off,60,0,9,,,,,,,,5,,,,64,64
274140,note_on,0,0,18,,,,,,,,11,,,,78,108
274140,note_on,0,0,1,,,,,,,,0,,,,78,92
274140,note_on,0,0,9,,,,,,,,5,,,,66,92
274140,note_on,0,0,3,,,,,,,,2,,,,78,92
274200,note_on,0,0,9,,,,,,,,5,,,,64,92
274200,note_off,60,0,9,,,,,,,,5,,,,66,64
274200,note_off,60,0,1,,,,,,,,0,,,,78,64
274200,note_off,60,0,18,,,,,,,,11,,,,78,64
274200,note_on,0,0,18,,,,,,,,11,,,,76,108
274200,note_on,0,0,3,,,,,,,,2,,,,76,92
274200,note_on,0,0,11,,,,,,,,6,,,,76,92
274200,note_on,0,0,1,,,,,,,,0,,,,76,92
274200,note_off,60,0,3,,,,,,,,2,,,,78,64
274200,note_off,60,0,11,,,,,,,,6,,,,78,64
274240,note_off,640,0,17,,,,,,,,10,,,,45,64
274240,note_off,640,0,8,,,,,,,,4,,,,45,64
274240,note_off,640,0,15,,,,,,,,7,,,,57,64
274240,note_off,640,0,16,,,,,,,,8,,,,45,64
274260,note_off,60,0,11,,,,,,,,6,,,,76,64
274260,note_off,60,0,3,,,,,,,,2,,,,76,64
274260,note_on,0,0,9,,,,,,,,5,,,,66,92
274260,note_off,60,0,9,,,,,,,,5,,,,64,64
274260,note_on,0,0,1,,,,,,,,0,,,,78,92
274260,note_on,0,0,11,,,,,,,,6,,,,78,92
274260,note_off,60,0,1,,,,,,,,0,,,,76,64
274260,note_on,0,0,3,,,,,,,,2,,,,78,92
274260,note_off,60,0,18,,,,,,,,11,,,,76,64
274260,note_on,0,0,18,,,,,,,,11,,,,78,108
274320,note_on,80,0,15,,,,,,,,7,,,,45,92
274320,note_off,60,0,18,,,,,,,,11,,,,78,64
274320,note_on,0,0,18,,,,,,,,11,,,,74,108
274320,note_on,0,0,3,,,,,,,,2,,,,74,92
274320,note_on,0,0,9,,,,,,,,5,,,,62,92
274320,note_off,60,0,3,,,,,,,,2,,,,78,64
274320,note_off,60,0,9,,,,,,,,5,,,,66,64
274320,note_on,0,0,1,,,,,,,,0,,,,74,92
274320,note_on,80,0,17,,,,,,,,10,,,,45,92
274320,note_off,60,0,1,,,,,,,,0,,,,78,64
274320,note_on,0,0,11,,,,,,,,6,,,,74,92
274320,note_on,80,0,16,,,,,,,,8,,,,33,92
274320,note_on,80,0,8,,,,,,,,4,,,,45,92
274320,note_off,60,0,11,,,,,,,,6,,,,78,64
274480,note_off,400,0,14,,,,,,,,7,,,,54,64
274480,note_off,400,0,5,,,,,,,,3,,,,73,64
274480,note_off,400,0,19,,,,,,,,12,,,,73,64
274480,note_off,400,0,12,,,,,,,,6,,,,69,64
274480,note_off,400,0,20,,,,,,,,13,,,,69,64
274480,note_off,400,0,2,,,,,,,,0,,,,73,64
274480,note_off,400,0,13,,,,,,,,7,,,,61,64
274480,note_off,400,0,4,,,,,,,,2,,,,73,64
274480,note_off,400,0,21,,,,,,,,14,,,,45,64
274480,note_off,400,0,6,,,,,,,,3,,,,69,64
274480,note_off,400,0,10,,,,,,,,5,,,,57,64
274480,note_off,400,0,22,,,,,,,,15,,,,33,64
274480,note_off,400,0,7,,,,,,,,4,,,,45,64
274555,note_off,235,0,18,,,,,,,,11,,,,74,64
274555,note_off,235,0,3,,,,,,,,2,,,,74,64
274555,note_off,235,0,8,,,,,,,,4,,,,45,64
274555,note_off,235,0,11,,,,,,,,6,,,,74,64
274555,note_off,235,0,16,,,,,,,,8,,,,33,64
274555,note_off,235,0,17,,,,,,,,10,,,,45,64
274555,note_off,235,0,15,,,,,,,,7,,,,45,64
274555,note_off,235,0,1,,,,,,,,0,,,,74,64
274555,note_off,235,0,9,,,,,,,,5,,,,62,64
274560,note_on,5,0,18,,,,,,,,11,,,,74,108
274560,note_on,80,0,2,,,,,,,,0,,,,69,92
274560,note_on,5,0,3,,,,,,,,2,,,,74,92
274560,note_on,80,0,20,,,,,,,,13,,,,66,92
274560,note_on,80,0,6,,,,,,,,3,,,,66,92
274560,note_on,5,0,8,,,,,,,,4,,,,38,92
274560,note_on,80,0,19,,,,,,,,12,,,,69,92
274560,note_on,80,0,10,,,,,,,,5,,,,54,92
274560,note_on,5,0,11,,,,,,,,6,,,,74,92
274560,note_on,5,0,1,,,,,,,,0,,,,74,92
274560,note_on,5,0,9,,,,,,,,5,,,,62,92
274560,note_on,80,0,14,,,,,,,,7,,,,50,92
274560,note_on,5,0,15,,,,,,,,7,,,,50,92
274560,set_tempo,1440,1,0,909090,,,,,,,,,,,,
274560,note_on,80,0,22,,,,,,,,15,,,,38,92
274560,note_on,80,0,12,,,,,,,,6,,,,66,92
274560,note_on,5,0,17,,,,,,,,10,,,,50,92
274560,note_on,80,0,4,,,,,,,,2,,,,69,92
274560,note_on,80,0,5,,,,,,,,3,,,,69,92
274560,note_on,80,0,7,,,,,,,,4,,,,50,92
274560,note_on,80,0,13,,,,,,,,7,,,,54,92
274560,end_of_track,0,1,0,,,,,,,,,,,,,
274560,note_on,5,0,16,,,,,,,,8,,,,38,92
274560,note_on,80,0,21,,,,,,,,14,,,,50,92
275880,note_off,1320,0,11,,,,,,,,6,,,,74,64
275880,note_off,1320,0,21,,,,,,,,14,,,,50,64
275880,note_off,1320,0,16,,,,,,,,8,,,,38,64
275880,note_off,1320,0,7,,,,,,,,4,,,,50,64
275880,end_of_track,0,1,7,,,,,,,,,,,,,
275880,end_of_track,0,1,15,,,,,,,,,,,,,
275880,note_off,1320,0,15,,,,,,,,7,,,,50,64
275880,note_off,1320,0,8,,,,,,,,4,,,,38,64
275880,end_of_track,0,1,8,,,,,,,,,,,,,
275880,end_of_track,0,1,14,,,,,,,,,,,,,
275880,end_of_track,0,1,16,,,,,,,,,,,,,
275880,note_off,1320,0,14,,,,,,,,7,,,,50,64
275880,end_of_track,0,1,9,,,,,,,,,,,,,
275880,end_of_track,0,1,13,,,,,,,,,,,,,
275880,note_off,1320,0,13,,,,,,,,7,,,,54,64
275880,note_off,1320,0,10,,,,,,,,5,,,,54,64
275880,end_of_track,0,1,10,,,,,,,,,,,,,
275880,note_off,1320,0,22,,,,,,,,15,,,,38,64
275880,end_of_track,0,1,12,,,,,,,,,,,,,
275880,note_off,1320,0,12,,,,,,,,6,,,,66,64
275880,note_off,1320,0,9,,,,,,,,5,,,,62,64
275880,end_of_track,0,1,21,,,,,,,,,,,,,
275880,end_of_track,0,1,6,,,,,,,,,,,,,
275880,note_off,1320,0,17,,,,,,,,10,,,,50,64
275880,note_off,1320,0,1,,,,,,,,0,,,,74,64
275880,end_of_track,0,1,1,,,,,,,,,,,,,
275880,note_off,1320,0,2,,,,,,,,0,,,,69,64
275880,end_of_track,0,1,2,,,,,,,,,,,,,
275880,end_of_track,0,1,20,,,,,,,,,,,,,
275880,note_off,1320,0,20,,,,,,,,13,,,,66,64
275880,note_off,1320,0,3,,,,,,,,2,,,,74,64
275880,end_of_track,0,1,3,,,,,,,,,,,,,
275880,note_off,1320,0,6,,,,,,,,3,,,,66,64
275880,end_of_track,0,1,19,,,,,,,,,,,,,
275880,note_off,1320,0,4,,,,,,,,2,,,,69,64
275880,end_of_track,0,1,4,,,,,,,,,,,,,
275880,end_of_track,0,1,18,,,,,,,,,,,,,
275880,note_off,1320,0,18,,,,,,,,11,,,,74,64
275880,end_of_track,0,1,11,,,,,,,,,,,,,
275880,note_off,1320,0,5,,,,,,,,3,,,,69,64
275880,end_of_track,0,1,5,,,,,,,,,,,,,
275880,end_of_track,0,1,17,,,,,,,,,,,,,
275880,note_off,1320,0,19,,,,,,,,12,,,,69,64
275880,end_of_track,0,1,22,,,,,,,,,,,,,
