tick,type,time,meta,track,tempo,numerator,denominator,clocks_per_click,notated_32nd_notes_per_beat,key,port,channel,control,value,program,note,velocity
0,text,0,1,0,,,,,,,,,,,,,
0,channel_prefix,0,1,2,,,,,,,,1,,,,,
0,control_change,0,0,2,,,,,,,,1,7,109,,,
0,control_change,0,0,2,,,,,,,,1,10,44,,,
0,control_change,0,0,2,,,,,,,,1,91,54,,,
0,program_change,0,0,2,,,,,,,,1,,,73,,
0,note_on,0,0,2,,,,,,,,1,,,,66,92
0,note_on,0,0,16,,,,,,,,10,,,,50,92
0,program_change,0,0,16,,,,,,,,10,,,47,,
0,control_change,0,0,16,,,,,,,,10,91,53,,,
0,control_change,0,0,16,,,,,,,,10,10,27,,,
0,control_change,0,0,16,,,,,,,,10,7,107,,,
0,channel_prefix,0,1,16,,,,,,,,10,,,,,
0,midi_port,0,1,16,,,,,,,0,,,,,,
0,midi_port,0,1,4,,,,,,,0,,,,,,
0,note_on,0,0,15,,,,,,,,8,,,,38,92
0,program_change,0,0,15,,,,,,,,8,,,58,,
0,control_change,0,0,15,,,,,,,,8,91,54,,,
0,control_change,0,0,13,,,,,,,,7,91,46,,,
0,program_change,0,0,13,,,,,,,,7,,,57,,
0,note_on,0,0,13,,,,,,,,7,,,,57,92
0,midi_port,0,1,14,,,,,,,0,,,,,,
0,channel_prefix,0,1,14,,,,,,,,7,,,,,
0,control_change,0,0,14,,,,,,,,7,7,127,,,
0,midi_port,0,1,2,,,,,,,0,,,,,,
0,control_change,0,0,14,,,,,,,,7,10,85,,,
0,program_change,0,0,14,,,,,,,,7,,,57,,
0,note_on,0,0,14,,,,,,,,7,,,,50,92
0,midi_port,0,1,15,,,,,,,0,,,,,,
0,channel_prefix,0,1,15,,,,,,,,8,,,,,
0,control_change,0,0,15,,,,,,,,8,7,117,,,
0,control_change,0,0,15,,,,,,,,8,10,111,,,
0,control_change,0,0,14,,,,,,,,7,91,46,,,
0,control_change,0,0,13,,,,,,,,7,10,85,,,
0,track_name,0,1,2,,,,,,,,,,,,,
0,channel_prefix,0,1,17,,,,,,,,11,,,,,
0,control_change,0,0,21,,,,,,,,15,91,124,,,
0,control_change,0,0,21,,,,,,,,15,10,120,,,
0,control_change,0,0,21,,,,,,,,15,7,121,,,
0,channel_prefix,0,1,21,,,,,,,,15,,,,,
0,midi_port,0,1,21,,,,,,,0,,,,,,
0,note_on,0,0,20,,,,,,,,14,,,,50,92
0,program_change,0,0,20,,,,,,,,14,,,48,,
0,control_change,0,0,20,,,,,,,,14,91,127,,,
0,control_change,0,0,20,,,,,,,,14,10,100,,,
0,control_change,0,0,20,,,,,,,,14,7,123,,,
0,channel_prefix,0,1,20,,,,,,,,14,,,,,
0,midi_port,0,1,20,,,,,,,0,,,,,,
0,note_on,0,0,19,,,,,,,,13,,,,62,92
0,program_change,0,0,19,,,,,,,,13,,,48,,
0,control_change,0,0,19,,,,,,,,13,91,122,,,
0,control_change,0,0,19,,,,,,,,13,10,75,,,
0,control_change,0,0,19,,,,,,,,13,7,120,,,
0,control_change,0,0,17,,,,,,,,11,7,127,,,
0,control_change,0,0,17,,,,,,,,11,10,45,,,
0,control_change,0,0,17,,,,,,,,11,91,127,,,
0,program_change,0,0,17,,,,,,,,11,,,48,,
0,note_on,0,0,17,,,,,,,,11,,,,69,108
0,midi_port,0,1,18,,,,,,,0,,,,,,
0,midi_port,0,1,17,,,,,,,0,,,,,,
0,channel_prefix,0,1,18,,,,,,,,12,,,,,
0,control_change,0,0,18,,,,,,,,12,10,15,,,
0,control_change,0,0,18,,,,,,,,12,91,127,,,
0,program_change,0,0,18,,,,,,,,12,,,48,,
0,note_on,0,0,18,,,,,,,,12,,,,66,92
0,midi_port,0,1,19,,,,,,,0,,,,,,
0,channel_prefix,0,1,19,,,,,,,,13,,,,,
0,control_change,0,0,18,,,,,,,,12,7,120,,,
0,program_change,0,0,21,,,,,,,,15,,,48,,
0,control_change,0,0,13,,,,,,,,7,7,127,,,
0,midi_port,0,1,13,,,,,,,0,,,,,,
0,control_change,0,0,8,,,,,,,,5,7,127,,,
0,channel_prefix,0,1,8,,,,,,,,5,,,,,
0,midi_port,0,1,8,,,,,,,0,,,,,,
0,note_on,0,0,7,,,,,,,,4,,,,50,92
0,program_change,0,0,7,,,,,,,,4,,,70,,
0,control_change,0,0,7,,,,,,,,4,91,54,,,
0,control_change,0,0,7,,,,,,,,4,10,70,,,
0,control_change,0,0,7,,,,,,,,4,7,111,,,
0,channel_prefix,0,1,7,,,,,,,,4,,,,,
0,midi_port,0,1,7,,,,,,,0,,,,,,
0,note_on,0,0,6,,,,,,,,3,,,,66,92
0,program_change,0,0,6,,,,,,,,3,,,71,,
0,control_change,0,0,6,,,,,,,,3,91,48,,,
0,control_change,0,0,6,,,,,,,,3,10,48,,,
0,control_change,0,0,6,,,,,,,,3,7,113,,,
0,channel_prefix,0,1,6,,,,,,,,3,,,,,
0,midi_port,0,1,6,,,,,,,0,,,,,,
0,channel_prefix,0,1,4,,,,,,,,2,,,,,
0,control_change,0,0,4,,,,,,,,2,7,111,,,
0,control_change,0,0,4,,,,,,,,2,10,80,,,
0,control_change,0,0,4,,,,,,,,2,91,51,,,
0,program_change,0,0,4,,,,,,,,2,,,68,,
0,note_on,0,0,4,,,,,,,,2,,,,66,92
0,control_change,0,0,8,,,,,,,,5,10,35,,,
0,midi_port,0,1,5,,,,,,,0,,,,,,
0,control_change,0,0,5,,,,,,,,3,7,113,,,
0,control_change,0,0,5,,,,,,,,3,10,48,,,
0,control_change,0,0,5,,,,,,,,3,91,48,,,
0,program_change,0,0,5,,,,,,,,3,,,71,,
0,note_on,0,0,5,,,,,,,,3,,,,69,92
0,track_name,0,1,6,,,,,,,,,,,,,
0,channel_prefix,0,1,5,,,,,,,,3,,,,,
0,channel_prefix,0,1,13,,,,,,,,7,,,,,
0,control_change,0,0,8,,,,,,,,5,91,47,,,
0,midi_port,0,1,9,,,,,,,0,,,,,,
0,note_on,0,0,12,,,,,,,,7,,,,62,92
0,program_change,0,0,12,,,,,,,,7,,,57,,
0,control_change,0,0,12,,,,,,,,7,91,46,,,
0,control_change,0,0,12,,,,,,,,7,10,85,,,
0,control_change,0,0,12,,,,,,,,7,7,127,,,
0,channel_prefix,0,1,12,,,,,,,,7,,,,,
0,midi_port,0,1,12,,,,,,,0,,,,,,
0,midi_port,0,1,3,,,,,,,0,,,,,,
0,channel_prefix,0,1,3,,,,,,,,2,,,,,
0,control_change,0,0,3,,,,,,,,2,7,111,,,
0,control_change,0,0,3,,,,,,,,2,10,80,,,
0,control_change,0,0,3,,,,,,,,2,91,51,,,
0,program_change,0,0,3,,,,,,,,2,,,68,,
0,note_on,0,0,3,,,,,,,,2,,,,69,92
0,program_change,0,0,11,,,,,,,,6,,,56,,
0,control_change,0,0,11,,,,,,,,6,91,52,,,
0,control_change,0,0,11,,,,,,,,6,10,60,,,
0,channel_prefix,0,1,9,,,,,,,,5,,,,,
0,control_change,0,0,9,,,,,,,,5,7,127,,,
0,control_change,0,0,9,,,,,,,,5,10,35,,,
0,control_change,0,0,9,,,,,,,,5,91,47,,,
0,program_change,0,0,9,,,,,,,,5,,,60,,
0,midi_port,0,1,10,,,,,,,0,,,,,,
0,program_change,0,0,8,,,,,,,,5,,,60,,
0,channel_prefix,0,1,10,,,,,,,,6,,,,,
0,control_change,0,0,10,,,,,,,,6,10,60,,,
0,control_change,0,0,10,,,,,,,,6,91,52,,,
0,program_change,0,0,10,,,,,,,,6,,,56,,
0,midi_port,0,1,11,,,,,,,0,,,,,,
0,channel_prefix,0,1,11,,,,,,,,6,,,,,
0,control_change,0,0,11,,,,,,,,6,7,127,,,
0,control_change,0,0,10,,,,,,,,6,7,127,,,
0,note_on,0,0,21,,,,,,,,15,,,,38,92
0,track_name,0,1,4,,,,,,,,,,,,,
0,midi_port,0,1,1,,,,,,,0,,,,,,
0,channel_prefix,0,1,1,,,,,,,,0,,,,,
0,track_name,0,1,1,,,,,,,,,,,,,
0,note_on,0,0,1,,,,,,,,0,,,,69,92
0,control_change,0,0,1,,,,,,,,0,91,46,,,
0,control_change,0,0,1,,,,,,,,0,10,50,,,
0,control_change,0,0,1,,,,,,,,0,7,111,,,
0,program_change,0,0,1,,,,,,,,0,,,73,,
0,key_signature,0,1,0,,,,,,D,,,,,,,
0,time_signature,0,1,0,,3,2,24,8,,,,,,,,
0,set_tempo,0,1,0,272727,,,,,,,,,,,,
0,copyright,0,1,0,,,,,,,,,,,,,
0,track_name,0,1,0,,,,,,,,,,,,,
840,note_off,840,0,21,,,,,,,,15,,,,38,64
840,note_off,840,0,12,,,,,,,,7,,,,62,64
840,note_off,840,0,1,,,,,,,,0,,,,69,64
840,note_off,840,0,5,,,,,,,,3,,,,69,64
840,note_off,840,0,7,,,,,,,,4,,,,50,64
840,note_off,840,0,17,,,,,,,,11,,,,69,64
840,note_off,840,0,19,,,,,,,,13,,,,62,64
840,note_off,840,0,15,,,,,,,,8,,,,38,64
840,note_off,840,0,18,,,,,,,,12,,,,66,64
840,note_off,840,0,16,,,,,,,,10,,,,50,64
840,note_off,840,0,3,,,,,,,,2,,,,69,64
840,note_off,840,0,14,,,,,,,,7,,,,50,64
840,note_off,840,0,20,,,,,,,,14,,,,50,64
840,note_off,840,0,4,,,,,,,,2,,,,66,64
840,note_off,840,0,13,,,,,,,,7,,,,57,64
840,note_off,840,0,2,,,,,,,,1,,,,66,64
840,note_off,840,0,6,,,,,,,,3,,,,66,64
960,note_on,120,0,3,,,,,,,,2,,,,74,92
960,note_on,120,0,7,,,,,,,,4,,,,54,92
960,note_on,120,0,6,,,,,,,,3,,,,69,92
960,note_on,120,0,16,,,,,,,,10,,,,50,92
960,note_on,120,0,1,,,,,,,,0,,,,74,92
960,note_on,120,0,13,,,,,,,,7,,,,57,92
960,note_on,120,0,15,,,,,,,,8,,,,42,92
960,note_on,120,0,17,,,,,,,,11,,,,74,108
960,note_on,120,0,20,,,,,,,,14,,,,54,92
960,note_on,120,0,19,,,,,,,,13,,,,69,92
960,note_on,120,0,18,,,,,,,,12,,,,69,92
960,note_on,120,0,2,,,,,,,,1,,,,69,92
960,note_on,120,0,4,,,,,,,,2,,,,69,92
960,note_on,120,0,12,,,,,,,,7,,,,62,92
960,note_on,120,0,21,,,,,,,,15,,,,42,92
960,note_on,120,0,14,,,,,,,,7,,,,54,92
960,note_on,120,0,5,,,,,,,,3,,,,74,92
1800,note_off,840,0,13,,,,,,,,7,,,,57,64
1800,note_off,840,0,4,,,,,,,,2,,,,69,64
1800,note_off,840,0,1,,,,,,,,0,,,,74,64
1800,note_off,840,0,21,,,,,,,,15,,,,42,64
1800,note_off,840,0,16,,,,,,,,10,,,,50,64
1800,note_off,840,0,20,,,,,,,,14,,,,54,64
1800,note_off,840,0,3,,,,,,,,2,,,,74,64
1800,note_off,840,0,17,,,,,,,,11,,,,74,64
1800,note_off,840,0,12,,,,,,,,7,,,,62,64
1800,note_off,840,0,7,,,,,,,,4,,,,54,64
1800,note_off,840,0,6,,,,,,,,3,,,,69,64
1800,note_off,840,0,19,,,,,,,,13,,,,69,64
1800,note_off,840,0,14,,,,,,,,7,,,,54,64
1800,note_off,840,0,5,,,,,,,,3,,,,74,64
1800,note_off,840,0,18,,,,,,,,12,,,,69,64
1800,note_off,840,0,15,,,,,,,,8,,,,42,64
1800,note_off,840,0,2,,,,,,,,1,,,,69,64
1920,note_on,120,0,5,,,,,,,,3,,,,76,92
1920,note_on,120,0,12,,,,,,,,7,,,,61,92
1920,note_on,120,0,19,,,,,,,,13,,,,69,92
1920,note_on,120,0,2,,,,,,,,1,,,,73,92
1920,note_on,120,0,14,,,,,,,,7,,,,57,92
1920,note_on,120,0,6,,,,,,,,3,,,,73,92
1920,note_on,120,0,7,,,,,,,,4,,,,57,92
1920,note_on,120,0,17,,,,,,,,11,,,,76,108
1920,note_on,120,0,13,,,,,,,,7,,,,57,92
1920,note_on,120,0,16,,,,,,,,10,,,,50,92
1920,note_on,120,0,20,,,,,,,,14,,,,57,92
1920,note_on,120,0,1,,,,,,,,0,,,,76,92
1920,note_on,120,0,15,,,,,,,,8,,,,45,92
1920,note_on,120,0,18,,,,,,,,12,,,,73,92
1920,note_on,120,0,3,,,,,,,,2,,,,76,92
1920,note_on,120,0,21,,,,,,,,15,,,,45,92
1920,note_on,120,0,4,,,,,,,,2,,,,73,92
1980,note_on,0,0,17,,,,,,,,11,,,,78,108
1980,note_off,60,0,17,,,,,,,,11,,,,76,64
2040,note_on,0,0,3,,,,,,,,2,,,,78,92
2040,note_off,60,0,17,,,,,,,,11,,,,78,64
2040,note_on,0,0,17,,,,,,,,11,,,,76,108
2040,note_off,120,0,5,,,,,,,,3,,,,76,64
2040,note_on,0,0,5,,,,,,,,3,,,,78,92
2040,note_off,120,0,1,,,,,,,,0,,,,76,64
2040,note_on,0,0,1,,,,,,,,0,,,,78,92
2040,note_off,120,0,3,,,,,,,,2,,,,76,64
2100,note_off,60,0,17,,,,,,,,11,,,,76,64
2100,note_on,0,0,17,,,,,,,,11,,,,78,108
2160,note_off,60,0,17,,,,,,,,11,,,,78,64
2160,note_on,0,0,17,,,,,,,,11,,,,76,108
2160,note_off,120,0,1,,,,,,,,0,,,,78,64
2160,note_on,0,0,5,,,,,,,,3,,,,76,92
2160,note_on,0,0,1,,,,,,,,0,,,,76,92
2160,note_off,120,0,3,,,,,,,,2,,,,78,64
2160,note_off,120,0,5,,,,,,,,3,,,,78,64
2160,note_on,0,0,3,,,,,,,,2,,,,76,92
2220,note_off,60,0,17,,,,,,,,11,,,,76,64
2220,note_on,0,0,17,,,,,,,,11,,,,78,108
2280,note_on,0,0,3,,,,,,,,2,,,,78,92
2280,note_off,120,0,3,,,,,,,,2,,,,76,64
2280,note_off,120,0,1,,,,,,,,0,,,,76,64
2280,note_on,0,0,1,,,,,,,,0,,,,78,92
2280,note_on,0,0,5,,,,,,,,3,,,,78,92
2280,note_on,0,0,17,,,,,,,,11,,,,76,108
2280,note_off,120,0,5,,,,,,,,3,,,,76,64
2280,note_off,60,0,17,,,,,,,,11,,,,78,64
2340,note_off,60,0,17,,,,,,,,11,,,,76,64
2340,note_on,0,0,17,,,,,,,,11,,,,78,108
2400,note_off,120,0,3,,,,,,,,2,,,,78,64
2400,note_on,0,0,3,,,,,,,,2,,,,76,92
2400,note_on,0,0,17,,,,,,,,11,,,,76,108
2400,note_off,60,0,17,,,,,,,,11,,,,78,64
2400,note_off,120,0,1,,,,,,,,0,,,,78,64
2400,note_off,120,0,5,,,,,,,,3,,,,78,64
2400,note_on,0,0,5,,,,,,,,3,,,,76,92
2400,note_on,0,0,1,,,,,,,,0,,,,76,92
2460,note_on,0,0,17,,,,,,,,11,,,,78,108
2460,note_off,60,0,17,,,,,,,,11,,,,76,64
2520,note_on,0,0,17,,,,,,,,11,,,,76,108
2520,note_on,0,0,3,,,,,,,,2,,,,78,92
2520,note_off,120,0,3,,,,,,,,2,,,,76,64
2520,note_off,120,0,5,,,,,,,,3,,,,76,64
2520,note_on,0,0,5,,,,,,,,3,,,,78,92
2520,note_on,0,0,1,,,,,,,,0,,,,78,92
2520,note_off,60,0,17,,,,,,,,11,,,,78,64
2520,note_off,120,0,1,,,,,,,,0,,,,76,64
2580,note_on,0,0,17,,,,,,,,11,,,,78,108
2580,note_off,60,0,17,,,,,,,,11,,,,76,64
2640,note_on,0,0,17,,,,,,,,11,,,,76,108
2640,note_off,60,0,17,,,,,,,,11,,,,78,64
2640,note_on,0,0,5,,,,,,,,3,,,,74,92
2640,note_on,0,0,3,,,,,,,,2,,,,74,92
2640,note_off,120,0,5,,,,,,,,3,,,,78,64
2640,note_on,0,0,1,,,,,,,,0,,,,74,92
2640,note_off,120,0,1,,,,,,,,0,,,,78,64
2640,note_off,120,0,3,,,,,,,,2,,,,78,64
2700,note_on,0,0,17,,,,,,,,11,,,,78,108
2700,note_off,60,0,17,,,,,,,,11,,,,76,64
2760,note_off,840,0,7,,,,,,,,4,,,,57,64
2760,note_off,120,0,3,,,,,,,,2,,,,74,64
2760,note_on,0,0,3,,,,,,,,2,,,,76,92
2760,note_off,840,0,19,,,,,,,,13,,,,69,64
2760,note_off,840,0,6,,,,,,,,3,,,,73,64
2760,note_off,60,0,17,,,,,,,,11,,,,78,64
2760,note_on,0,0,17,,,,,,,,11,,,,74,108
2760,note_off,840,0,18,,,,,,,,12,,,,73,64
2760,note_off,840,0,12,,,,,,,,7,,,,61,64
2760,note_on,0,0,1,,,,,,,,0,,,,76,92
2760,note_off,840,0,2,,,,,,,,1,,,,73,64
2760,note_off,120,0,1,,,,,,,,0,,,,74,64
2760,note_off,840,0,15,,,,,,,,8,,,,45,64
2760,note_off,840,0,21,,,,,,,,15,,,,45,64
2760,note_off,840,0,20,,,,,,,,14,,,,57,64
2760,note_on,0,0,5,,,,,,,,3,,,,76,92
2760,note_off,120,0,5,,,,,,,,3,,,,74,64
2760,note_off,840,0,16,,,,,,,,10,,,,50,64
2760,note_off,840,0,14,,,,,,,,7,,,,57,64
2760,note_off,840,0,13,,,,,,,,7,,,,57,64
2760,note_off,840,0,4,,,,,,,,2,,,,73,64
2820,note_on,0,0,17,,,,,,,,11,,,,76,108
2820,note_off,60,0,17,,,,,,,,11,,,,74,64
2875,note_off,55,0,17,,,,,,,,11,,,,76,64
2875,note_off,115,0,5,,,,,,,,3,,,,76,64
2875,note_off,115,0,1,,,,,,,,0,,,,76,64
2875,note_off,115,0,3,,,,,,,,2,,,,76,64
2880,note_on,5,0,1,,,,,,,,0,,,,78,92
2880,note_on,120,0,12,,,,,,,,7,,,,62,92
2880,note_on,120,0,19,,,,,,,,13,,,,69,92
2880,note_on,120,0,7,,,,,,,,4,,,,62,92
2880,note_on,5,0,5,,,,,,,,3,,,,78,92
2880,note_on,120,0,4,,,,,,,,2,,,,74,92
2880,note_on,5,0,3,,,,,,,,2,,,,78,92
2880,note_on,120,0,15,,,,,,,,8,,,,50,92
2880,note_on,120,0,14,,,,,,,,7,,,,62,92
2880,note_on,120,0,13,,,,,,,,7,,,,57,92
2880,note_on,120,0,21,,,,,,,,15,,,,50,92
2880,note_on,5,0,17,,,,,,,,11,,,,78,108
2880,note_on,120,0,18,,,,,,,,12,,,,74,92
2880,note_on,120,0,16,,,,,,,,10,,,,45,92
2880,note_on,120,0,20,,,,,,,,14,,,,62,92
2880,note_on,120,0,2,,,,,,,,1,,,,74,92
2880,note_on,120,0,6,,,,,,,,3,,,,74,92
3280,note_off,400,0,18,,,,,,,,12,,,,74,64
3280,note_off,400,0,17,,,,,,,,11,,,,78,64
3280,note_off,400,0,3,,,,,,,,2,,,,78,64
3280,note_off,400,0,21,,,,,,,,15,,,,50,64
3280,note_off,400,0,12,,,,,,,,7,,,,62,64
3280,note_off,400,0,13,,,,,,,,7,,,,57,64
3280,note_off,400,0,6,,,,,,,,3,,,,74,64
3280,note_off,400,0,14,,,,,,,,7,,,,62,64
3280,note_off,400,0,15,,,,,,,,8,,,,50,64
3280,note_off,400,0,2,,,,,,,,1,,,,74,64
3280,note_off,400,0,19,,,,,,,,13,,,,69,64
3280,note_off,400,0,4,,,,,,,,2,,,,74,64
3280,note_off,400,0,1,,,,,,,,0,,,,78,64
3280,note_off,400,0,20,,,,,,,,14,,,,62,64
3280,note_off,400,0,5,,,,,,,,3,,,,78,64
3280,note_off,400,0,16,,,,,,,,10,,,,45,64
3280,note_off,400,0,7,,,,,,,,4,,,,62,64
3360,note_on,80,0,15,,,,,,,,8,,,,42,92
3360,note_on,80,0,19,,,,,,,,13,,,,62,92
3360,note_on,80,0,12,,,,,,,,7,,,,62,92
3360,note_on,80,0,1,,,,,,,,0,,,,74,92
3360,note_on,80,0,17,,,,,,,,11,,,,74,108
3360,note_on,80,0,14,,,,,,,,7,,,,54,92
3360,note_on,80,0,5,,,,,,,,3,,,,74,92
3360,note_on,80,0,18,,,,,,,,12,,,,69,92
3360,note_on,80,0,21,,,,,,,,15,,,,42,92
3360,note_on,80,0,3,,,,,,,,2,,,,74,92
3360,note_on,80,0,6,,,,,,,,3,,,,69,92
3360,note_on,80,0,13,,,,,,,,7,,,,57,92
3360,note_on,80,0,2,,,,,,,,1,,,,69,92
3360,note_on,80,0,7,,,,,,,,4,,,,54,92
3360,note_on,80,0,16,,,,,,,,10,,,,50,92
3360,note_on,80,0,20,,,,,,,,14,,,,54,92
3360,note_on,80,0,4,,,,,,,,2,,,,69,92
4200,note_off,840,0,7,,,,,,,,4,,,,54,64
4200,note_off,840,0,5,,,,,,,,3,,,,74,64
4200,note_off,840,0,2,,,,,,,,1,,,,69,64
4200,note_off,840,0,17,,,,,,,,11,,,,74,64
4200,note_off,840,0,18,,,,,,,,12,,,,69,64
4200,note_off,840,0,1,,,,,,,,0,,,,74,64
4200,note_off,840,0,14,,,,,,,,7,,,,54,64
4200,note_off,840,0,16,,,,,,,,10,,,,50,64
4200,note_off,840,0,21,,,,,,,,15,,,,42,64
4200,note_off,840,0,6,,,,,,,,3,,,,69,64
4200,note_off,840,0,19,,,,,,,,13,,,,62,64
4200,note_off,840,0,3,,,,,,,,2,,,,74,64
4200,note_off,840,0,15,,,,,,,,8,,,,42,64
4200,note_off,840,0,13,,,,,,,,7,,,,57,64
4200,note_off,840,0,4,,,,,,,,2,,,,69,64
4200,note_off,840,0,12,,,,,,,,7,,,,62,64
4200,note_off,840,0,20,,,,,,,,14,,,,54,64
4320,note_on,120,0,21,,,,,,,,15,,,,45,92
4320,note_on,120,0,3,,,,,,,,2,,,,76,92
4320,note_on,120,0,4,,,,,,,,2,,,,73,92
4320,note_on,120,0,13,,,,,,,,7,,,,57,92
4320,note_on,120,0,14,,,,,,,,7,,,,57,92
4320,note_on,120,0,16,,,,,,,,10,,,,50,92
4320,note_on,120,0,1,,,,,,,,0,,,,76,92
4320,note_on,120,0,20,,,,,,,,14,,,,57,92
4320,note_on,120,0,12,,,,,,,,7,,,,62,92
4320,note_on,120,0,17,,,,,,,,11,,,,76,108
4320,note_on,120,0,2,,,,,,,,1,,,,73,92
4320,note_on,120,0,6,,,,,,,,3,,,,73,92
4320,note_on,120,0,18,,,,,,,,12,,,,73,92
4320,note_on,120,0,15,,,,,,,,8,,,,45,92
4320,note_on,120,0,5,,,,,,,,3,,,,76,92
4320,note_on,120,0,19,,,,,,,,13,,,,69,92
4320,note_on,120,0,7,,,,,,,,4,,,,57,92
4720,note_off,400,0,2,,,,,,,,1,,,,73,64
4720,note_off,400,0,6,,,,,,,,3,,,,73,64
4720,note_off,400,0,5,,,,,,,,3,,,,76,64
4720,note_off,400,0,21,,,,,,,,15,,,,45,64
4720,note_off,400,0,7,,,,,,,,4,,,,57,64
4720,note_off,400,0,19,,,,,,,,13,,,,69,64
4720,note_off,400,0,1,,,,,,,,0,,,,76,64
4720,note_off,400,0,15,,,,,,,,8,,,,45,64
4720,note_off,400,0,18,,,,,,,,12,,,,73,64
4720,note_off,400,0,17,,,,,,,,11,,,,76,64
4720,note_off,400,0,13,,,,,,,,7,,,,57,64
4720,note_off,400,0,3,,,,,,,,2,,,,76,64
4720,note_off,400,0,12,,,,,,,,7,,,,62,64
4720,note_off,400,0,16,,,,,,,,10,,,,50,64
4720,note_off,400,0,14,,,,,,,,7,,,,57,64
4720,note_off,400,0,4,,,,,,,,2,,,,73,64
4720,note_off,400,0,20,,,,,,,,14,,,,57,64
4800,note_on,80,0,4,,,,,,,,2,,,,74,92
4800,note_on,80,0,14,,,,,,,,7,,,,62,92
4800,note_on,80,0,15,,,,,,,,8,,,,50,92
4800,note_on,80,0,17,,,,,,,,11,,,,78,108
4800,note_on,80,0,18,,,,,,,,12,,,,74,92
4800,note_on,80,0,21,,,,,,,,15,,,,50,92
4800,note_on,80,0,20,,,,,,,,14,,,,62,92
4800,note_on,80,0,2,,,,,,,,1,,,,74,92
4800,note_on,80,0,3,,,,,,,,2,,,,78,92
4800,note_on,80,0,5,,,,,,,,3,,,,78,92
4800,note_on,80,0,7,,,,,,,,4,,,,62,92
4800,note_on,80,0,6,,,,,,,,3,,,,74,92
4800,note_on,80,0,1,,,,,,,,0,,,,78,92
4800,note_on,80,0,19,,,,,,,,13,,,,69,92
4800,note_on,80,0,16,,,,,,,,10,,,,50,92
4800,note_on,80,0,12,,,,,,,,7,,,,62,92
4800,note_on,80,0,13,,,,,,,,7,,,,57,92
5200,note_off,400,0,14,,,,,,,,7,,,,62,64
5200,note_off,400,0,18,,,,,,,,12,,,,74,64
5200,note_off,400,0,19,,,,,,,,13,,,,69,64
5200,note_off,400,0,16,,,,,,,,10,,,,50,64
5200,note_off,400,0,15,,,,,,,,8,,,,50,64
5200,note_off,400,0,17,,,,,,,,11,,,,78,64
5200,note_off,400,0,21,,,,,,,,15,,,,50,64
5200,note_off,400,0,20,,,,,,,,14,,,,62,64
5200,note_off,400,0,7,,,,,,,,4,,,,62,64
5200,note_off,400,0,1,,,,,,,,0,,,,78,64
5200,note_off,400,0,2,,,,,,,,1,,,,74,64
5200,note_off,400,0,13,,,,,,,,7,,,,57,64
5200,note_off,400,0,5,,,,,,,,3,,,,78,64
5200,note_off,400,0,4,,,,,,,,2,,,,74,64
5200,note_off,400,0,6,,,,,,,,3,,,,74,64
5200,note_off,400,0,12,,,,,,,,7,,,,62,64
5200,note_off,400,0,3,,,,,,,,2,,,,78,64
5280,note_on,80,0,18,,,,,,,,12,,,,69,92
5280,note_on,80,0,6,,,,,,,,3,,,,69,92
5280,note_on,80,0,3,,,,,,,,2,,,,74,92
5280,note_on,80,0,1,,,,,,,,0,,,,74,92
5280,note_on,80,0,13,,,,,,,,7,,,,57,92
5280,note_on,80,0,15,,,,,,,,8,,,,42,92
5280,note_on,80,0,19,,,,,,,,13,,,,69,92
5280,note_on,80,0,17,,,,,,,,11,,,,74,108
5280,note_on,80,0,4,,,,,,,,2,,,,69,92
5280,note_on,80,0,12,,,,,,,,7,,,,62,92
5280,note_on,80,0,20,,,,,,,,14,,,,54,92
5280,note_on,80,0,2,,,,,,,,1,,,,69,92
5280,note_on,80,0,5,,,,,,,,3,,,,74,92
5280,note_on,80,0,7,,,,,,,,4,,,,54,92
5280,note_on,80,0,21,,,,,,,,15,,,,42,92
5280,note_on,80,0,16,,,,,,,,10,,,,50,92
5280,note_on,80,0,14,,,,,,,,7,,,,54,92
5680,note_off,400,0,15,,,,,,,,8,,,,42,64
5680,note_off,400,0,2,,,,,,,,1,,,,69,64
5680,note_off,400,0,4,,,,,,,,2,,,,69,64
5680,note_off,400,0,3,,,,,,,,2,,,,74,64
5680,note_off,400,0,7,,,,,,,,4,,,,54,64
5680,note_off,400,0,13,,,,,,,,7,,,,57,64
5680,note_off,400,0,17,,,,,,,,11,,,,74,64
5680,note_off,400,0,21,,,,,,,,15,,,,42,64
5680,note_off,400,0,19,,,,,,,,13,,,,69,64
5680,note_off,400,0,16,,,,,,,,10,,,,50,64
5680,note_off,400,0,20,,,,,,,,14,,,,54,64
5680,note_off,400,0,12,,,,,,,,7,,,,62,64
5680,note_off,400,0,5,,,,,,,,3,,,,74,64
5680,note_off,400,0,6,,,,,,,,3,,,,69,64
5680,note_off,400,0,14,,,,,,,,7,,,,54,64
5680,note_off,400,0,18,,,,,,,,12,,,,69,64
5680,note_off,400,0,1,,,,,,,,0,,,,74,64
5760,note_on,80,0,16,,,,,,,,10,,,,45,92
5760,note_on,80,0,2,,,,,,,,1,,,,73,92
5760,note_on,80,0,5,,,,,,,,3,,,,76,92
5760,note_on,80,0,4,,,,,,,,2,,,,73,92
5760,note_on,80,0,3,,,,,,,,2,,,,76,92
5760,note_on,80,0,7,,,,,,,,4,,,,57,92
5760,note_on,80,0,14,,,,,,,,7,,,,57,92
5760,note_on,80,0,20,,,,,,,,14,,,,57,92
5760,note_on,80,0,19,,,,,,,,13,,,,69,92
5760,note_on,80,0,1,,,,,,,,0,,,,76,92
5760,note_on,80,0,6,,,,,,,,3,,,,73,92
5760,note_on,80,0,17,,,,,,,,11,,,,76,108
5760,note_on,80,0,12,,,,,,,,7,,,,61,92
5760,note_on,80,0,13,,,,,,,,7,,,,57,92
5760,note_on,80,0,18,,,,,,,,12,,,,73,92
5760,note_on,80,0,15,,,,,,,,8,,,,45,92
5760,note_on,80,0,21,,,,,,,,15,,,,45,92
6160,note_off,400,0,16,,,,,,,,10,,,,45,64
6160,note_off,400,0,7,,,,,,,,4,,,,57,64
6160,note_off,400,0,13,,,,,,,,7,,,,57,64
6160,note_off,400,0,2,,,,,,,,1,,,,73,64
6160,note_off,400,0,4,,,,,,,,2,,,,73,64
6160,note_off,400,0,18,,,,,,,,12,,,,73,64
6160,note_off,400,0,1,,,,,,,,0,,,,76,64
6160,note_off,400,0,6,,,,,,,,3,,,,73,64
6160,note_off,400,0,20,,,,,,,,14,,,,57,64
6160,note_off,400,0,12,,,,,,,,7,,,,61,64
6160,note_off,400,0,15,,,,,,,,8,,,,45,64
6160,note_off,400,0,5,,,,,,,,3,,,,76,64
6160,note_off,400,0,14,,,,,,,,7,,,,57,64
6160,note_off,400,0,17,,,,,,,,11,,,,76,64
6160,note_off,400,0,3,,,,,,,,2,,,,76,64
6160,note_off,400,0,21,,,,,,,,15,,,,45,64
6240,note_on,80,0,5,,,,,,,,3,,,,81,92
6240,note_on,80,0,6,,,,,,,,3,,,,76,92
6240,note_on,80,0,12,,,,,,,,7,,,,61,92
6240,note_on,80,0,16,,,,,,,,10,,,,45,92
6240,note_on,80,0,14,,,,,,,,7,,,,61,92
6240,note_on,80,0,7,,,,,,,,4,,,,61,92
6240,note_on,80,0,2,,,,,,,,1,,,,76,92
6240,note_on,80,0,1,,,,,,,,0,,,,81,92
6240,note_on,80,0,18,,,,,,,,12,,,,76,92
6240,note_on,80,0,13,,,,,,,,7,,,,57,92
6240,note_on,80,0,3,,,,,,,,2,,,,81,92
6240,note_on,80,0,17,,,,,,,,11,,,,81,108
6240,note_on,80,0,21,,,,,,,,15,,,,49,92
6240,note_on,80,0,20,,,,,,,,14,,,,61,92
6240,note_on,80,0,4,,,,,,,,2,,,,76,92
6240,note_on,80,0,15,,,,,,,,8,,,,49,92
6600,note_off,840,0,19,,,,,,,,13,,,,69,64
7080,note_off,840,0,15,,,,,,,,8,,,,49,64
7080,note_off,840,0,12,,,,,,,,7,,,,61,64
7080,note_off,840,0,1,,,,,,,,0,,,,81,64
7080,note_off,840,0,17,,,,,,,,11,,,,81,64
7080,note_off,840,0,13,,,,,,,,7,,,,57,64
7080,note_off,840,0,2,,,,,,,,1,,,,76,64
7080,note_off,840,0,14,,,,,,,,7,,,,61,64
7080,note_off,840,0,16,,,,,,,,10,,,,45,64
7080,note_off,840,0,3,,,,,,,,2,,,,81,64
7080,note_off,840,0,4,,,,,,,,2,,,,76,64
7080,note_off,840,0,7,,,,,,,,4,,,,61,64
7080,note_off,840,0,21,,,,,,,,15,,,,49,64
7080,note_off,840,0,5,,,,,,,,3,,,,81,64
7080,note_off,840,0,6,,,,,,,,3,,,,76,64
7080,note_off,840,0,18,,,,,,,,12,,,,76,64
7080,note_off,840,0,20,,,,,,,,14,,,,61,64
7200,note_on,120,0,1,,,,,,,,0,,,,76,92
7200,note_on,120,0,18,,,,,,,,12,,,,73,92
7200,note_on,120,0,7,,,,,,,,4,,,,57,92
7200,note_on,600,0,19,,,,,,,,13,,,,69,92
7200,note_on,120,0,12,,,,,,,,7,,,,61,92
7200,note_on,120,0,16,,,,,,,,10,,,,50,92
7200,note_on,120,0,6,,,,,,,,3,,,,73,92
7200,note_on,120,0,2,,,,,,,,1,,,,73,92
7200,note_on,120,0,3,,,,,,,,2,,,,76,92
7200,note_on,120,0,17,,,,,,,,11,,,,76,108
7200,note_on,120,0,4,,,,,,,,2,,,,73,92
7200,note_on,120,0,13,,,,,,,,7,,,,57,92
7200,note_on,120,0,5,,,,,,,,3,,,,76,92
7200,note_on,120,0,21,,,,,,,,15,,,,45,92
7200,note_on,120,0,15,,,,,,,,8,,,,45,92
7200,note_on,120,0,20,,,,,,,,14,,,,57,92
7200,note_on,120,0,14,,,,,,,,7,,,,57,92
7600,note_off,400,0,20,,,,,,,,14,,,,57,64
7600,note_off,400,0,18,,,,,,,,12,,,,73,64
7600,note_off,400,0,7,,,,,,,,4,,,,57,64
7600,note_off,400,0,4,,,,,,,,2,,,,73,64
7600,note_off,400,0,14,,,,,,,,7,,,,57,64
7600,note_off,400,0,19,,,,,,,,13,,,,69,64
7600,note_off,400,0,16,,,,,,,,10,,,,50,64
7600,note_off,400,0,21,,,,,,,,15,,,,45,64
7600,note_off,400,0,6,,,,,,,,3,,,,73,64
7600,note_off,400,0,5,,,,,,,,3,,,,76,64
7600,note_off,400,0,2,,,,,,,,1,,,,73,64
7600,note_off,400,0,13,,,,,,,,7,,,,57,64
7600,note_off,400,0,1,,,,,,,,0,,,,76,64
7600,note_off,400,0,12,,,,,,,,7,,,,61,64
7600,note_off,400,0,3,,,,,,,,2,,,,76,64
7600,note_off,400,0,15,,,,,,,,8,,,,45,64
7600,note_off,400,0,17,,,,,,,,11,,,,76,64
7680,note_on,80,0,14,,,,,,,,7,,,,62,92
7680,note_on,80,0,19,,,,,,,,13,,,,69,92
7680,note_on,80,0,15,,,,,,,,8,,,,50,92
7680,note_on,80,0,21,,,,,,,,15,,,,50,92
7680,note_on,80,0,12,,,,,,,,7,,,,62,92
7680,note_on,80,0,5,,,,,,,,3,,,,78,92
7680,note_on,80,0,7,,,,,,,,4,,,,62,92
7680,note_on,80,0,6,,,,,,,,3,,,,74,92
7680,note_on,80,0,18,,,,,,,,12,,,,74,92
7680,note_on,80,0,16,,,,,,,,10,,,,50,92
7680,note_on,80,0,2,,,,,,,,1,,,,74,92
7680,note_on,80,0,3,,,,,,,,2,,,,78,92
7680,note_on,80,0,17,,,,,,,,11,,,,78,108
7680,note_on,80,0,1,,,,,,,,0,,,,78,92
7680,note_on,80,0,20,,,,,,,,14,,,,62,92
7680,note_on,80,0,13,,,,,,,,7,,,,57,92
7680,note_on,80,0,4,,,,,,,,2,,,,74,92
8080,note_off,400,0,14,,,,,,,,7,,,,62,64
8080,note_off,400,0,1,,,,,,,,0,,,,78,64
8080,note_off,400,0,19,,,,,,,,13,,,,69,64
8080,note_off,400,0,13,,,,,,,,7,,,,57,64
8080,note_off,400,0,12,,,,,,,,7,,,,62,64
8080,note_off,400,0,5,,,,,,,,3,,,,78,64
8080,note_off,400,0,16,,,,,,,,10,,,,50,64
8080,note_off,400,0,6,,,,,,,,3,,,,74,64
8080,note_off,400,0,20,,,,,,,,14,,,,62,64
8080,note_off,400,0,21,,,,,,,,15,,,,50,64
8080,note_off,400,0,7,,,,,,,,4,,,,62,64
8080,note_off,400,0,2,,,,,,,,1,,,,74,64
8080,note_off,400,0,15,,,,,,,,8,,,,50,64
8080,note_off,400,0,3,,,,,,,,2,,,,78,64
8080,note_off,400,0,18,,,,,,,,12,,,,74,64
8080,note_off,400,0,17,,,,,,,,11,,,,78,64
8080,note_off,400,0,4,,,,,,,,2,,,,74,64
8160,note_on,80,0,15,,,,,,,,8,,,,42,92
8160,note_on,80,0,19,,,,,,,,13,,,,69,92
8160,note_on,80,0,14,,,,,,,,7,,,,54,92
8160,note_on,80,0,18,,,,,,,,12,,,,69,92
8160,note_on,80,0,12,,,,,,,,7,,,,62,92
8160,note_on,80,0,6,,,,,,,,3,,,,69,92
8160,note_on,80,0,2,,,,,,,,1,,,,69,92
8160,note_on,80,0,4,,,,,,,,2,,,,69,92
8160,note_on,80,0,21,,,,,,,,15,,,,42,92
8160,note_on,80,0,5,,,,,,,,3,,,,76,92
8160,note_on,80,0,13,,,,,,,,7,,,,57,92
8160,note_on,80,0,16,,,,,,,,10,,,,50,92
8160,note_on,80,0,1,,,,,,,,0,,,,76,92
8160,note_on,80,0,20,,,,,,,,14,,,,54,92
8160,note_on,80,0,3,,,,,,,,2,,,,76,92
8160,note_on,80,0,17,,,,,,,,11,,,,76,108
8160,note_on,80,0,7,,,,,,,,4,,,,54,92
8400,note_on,0,0,5,,,,,,,,3,,,,74,92
8400,note_off,240,0,5,,,,,,,,3,,,,76,64
8400,note_on,0,0,1,,,,,,,,0,,,,74,92
8400,note_off,240,0,3,,,,,,,,2,,,,76,64
8400,note_off,240,0,1,,,,,,,,0,,,,76,64
8400,note_on,0,0,17,,,,,,,,11,,,,74,108
8400,note_on,0,0,3,,,,,,,,2,,,,74,92
8400,note_off,240,0,17,,,,,,,,11,,,,76,64
8560,note_off,400,0,14,,,,,,,,7,,,,54,64
8560,note_off,400,0,12,,,,,,,,7,,,,62,64
8560,note_off,400,0,18,,,,,,,,12,,,,69,64
8560,note_off,400,0,7,,,,,,,,4,,,,54,64
8560,note_off,400,0,21,,,,,,,,15,,,,42,64
8560,note_off,400,0,16,,,,,,,,10,,,,50,64
8560,note_off,400,0,13,,,,,,,,7,,,,57,64
8560,note_off,400,0,15,,,,,,,,8,,,,42,64
8560,note_off,400,0,20,,,,,,,,14,,,,54,64
8560,note_off,400,0,19,,,,,,,,13,,,,69,64
8635,note_off,235,0,17,,,,,,,,11,,,,74,64
8640,note_on,80,0,18,,,,,,,,12,,,,73,92
8640,note_off,240,0,1,,,,,,,,0,,,,74,64
8640,note_off,480,0,2,,,,,,,,1,,,,69,64
8640,note_on,0,0,5,,,,,,,,3,,,,76,92
8640,note_on,80,0,15,,,,,,,,8,,,,45,92
8640,note_off,480,0,6,,,,,,,,3,,,,69,64
8640,note_on,80,0,7,,,,,,,,4,,,,57,92
8640,note_on,0,0,6,,,,,,,,3,,,,73,92
8640,note_on,80,0,20,,,,,,,,14,,,,57,92
8640,note_on,0,0,1,,,,,,,,0,,,,76,92
8640,note_on,80,0,16,,,,,,,,10,,,,45,92
8640,note_off,240,0,5,,,,,,,,3,,,,74,64
8640,note_on,5,0,17,,,,,,,,11,,,,76,108
8640,note_on,0,0,4,,,,,,,,2,,,,73,92
8640,note_on,80,0,21,,,,,,,,15,,,,45,92
8640,note_off,480,0,4,,,,,,,,2,,,,69,64
8640,note_on,0,0,2,,,,,,,,1,,,,73,92
8640,note_off,240,0,3,,,,,,,,2,,,,74,64
8640,note_on,0,0,3,,,,,,,,2,,,,76,92
8640,note_on,80,0,19,,,,,,,,13,,,,69,92
8640,note_on,80,0,13,,,,,,,,7,,,,57,92
8640,note_on,80,0,14,,,,,,,,7,,,,57,92
8640,note_on,80,0,12,,,,,,,,7,,,,61,92
9040,note_off,400,0,17,,,,,,,,11,,,,76,64
9040,note_off,400,0,5,,,,,,,,3,,,,76,64
9040,note_off,400,0,6,,,,,,,,3,,,,73,64
9040,note_off,400,0,1,,,,,,,,0,,,,76,64
9040,note_off,400,0,13,,,,,,,,7,,,,57,64
9040,note_off,400,0,18,,,,,,,,12,,,,73,64
9040,note_off,400,0,14,,,,,,,,7,,,,57,64
9040,note_off,400,0,21,,,,,,,,15,,,,45,64
9040,note_off,400,0,16,,,,,,,,10,,,,45,64
9040,note_off,400,0,7,,,,,,,,4,,,,57,64
9040,note_off,400,0,4,,,,,,,,2,,,,73,64
9040,note_off,400,0,3,,,,,,,,2,,,,76,64
9040,note_off,400,0,2,,,,,,,,1,,,,73,64
9040,note_off,400,0,15,,,,,,,,8,,,,45,64
9040,note_off,400,0,20,,,,,,,,14,,,,57,64
9040,note_off,400,0,12,,,,,,,,7,,,,61,64
9120,note_on,80,0,13,,,,,,,,7,,,,57,92
9120,note_on,80,0,18,,,,,,,,12,,,,76,92
9120,note_on,80,0,6,,,,,,,,3,,,,76,92
9120,note_on,80,0,16,,,,,,,,10,,,,45,92
9120,note_on,80,0,1,,,,,,,,0,,,,81,92
9120,note_on,80,0,15,,,,,,,,8,,,,49,92
9120,note_on,80,0,3,,,,,,,,2,,,,81,92
9120,note_on,80,0,17,,,,,,,,11,,,,81,108
9120,note_on,80,0,4,,,,,,,,2,,,,76,92
9120,note_on,80,0,21,,,,,,,,15,,,,49,92
9120,note_on,80,0,2,,,,,,,,1,,,,76,92
9120,note_on,80,0,7,,,,,,,,4,,,,61,92
9120,note_on,80,0,14,,,,,,,,7,,,,61,92
9120,note_on,80,0,5,,,,,,,,3,,,,81,92
9120,note_on,80,0,12,,,,,,,,7,,,,61,92
9120,note_on,80,0,20,,,,,,,,14,,,,61,92
9480,note_off,840,0,19,,,,,,,,13,,,,69,64
9960,note_off,840,0,2,,,,,,,,1,,,,76,64
9960,note_off,840,0,15,,,,,,,,8,,,,49,64
9960,note_off,840,0,17,,,,,,,,11,,,,81,64
9960,note_off,840,0,1,,,,,,,,0,,,,81,64
9960,note_off,840,0,14,,,,,,,,7,,,,61,64
9960,note_off,840,0,7,,,,,,,,4,,,,61,64
9960,note_off,840,0,21,,,,,,,,15,,,,49,64
9960,note_off,840,0,5,,,,,,,,3,,,,81,64
9960,note_off,840,0,20,,,,,,,,14,,,,61,64
9960,note_off,840,0,4,,,,,,,,2,,,,76,64
9960,note_off,840,0,6,,,,,,,,3,,,,76,64
9960,note_off,840,0,3,,,,,,,,2,,,,81,64
9960,note_off,840,0,18,,,,,,,,12,,,,76,64
9960,note_off,840,0,16,,,,,,,,10,,,,45,64
9960,note_off,840,0,12,,,,,,,,7,,,,61,64
9960,note_off,840,0,13,,,,,,,,7,,,,57,64
10080,note_on,120,0,3,,,,,,,,2,,,,76,92
10080,note_on,120,0,21,,,,,,,,15,,,,45,92
10080,note_on,120,0,13,,,,,,,,7,,,,57,92
10080,note_on,120,0,14,,,,,,,,7,,,,57,92
10080,note_on,120,0,1,,,,,,,,0,,,,76,92
10080,note_on,120,0,15,,,,,,,,8,,,,45,92
10080,note_on,120,0,4,,,,,,,,2,,,,73,92
10080,note_on,120,0,20,,,,,,,,14,,,,57,92
10080,note_on,120,0,5,,,,,,,,3,,,,76,92
10080,note_on,120,0,7,,,,,,,,4,,,,57,92
10080,note_on,120,0,2,,,,,,,,1,,,,73,92
10080,note_on,120,0,16,,,,,,,,10,,,,50,92
10080,note_on,120,0,18,,,,,,,,12,,,,73,92
10080,note_on,600,0,19,,,,,,,,13,,,,69,92
10080,note_on,120,0,12,,,,,,,,7,,,,61,92
10080,note_on,120,0,17,,,,,,,,11,,,,76,108
10080,note_on,120,0,6,,,,,,,,3,,,,73,92
10480,note_off,400,0,17,,,,,,,,11,,,,76,64
10480,note_off,400,0,13,,,,,,,,7,,,,57,64
10480,note_off,400,0,16,,,,,,,,10,,,,50,64
10480,note_off,400,0,5,,,,,,,,3,,,,76,64
10480,note_off,400,0,3,,,,,,,,2,,,,76,64
10480,note_off,400,0,15,,,,,,,,8,,,,45,64
10480,note_off,400,0,20,,,,,,,,14,,,,57,64
10480,note_off,400,0,4,,,,,,,,2,,,,73,64
10480,note_off,400,0,12,,,,,,,,7,,,,61,64
10480,note_off,400,0,1,,,,,,,,0,,,,76,64
10480,note_off,400,0,7,,,,,,,,4,,,,57,64
10480,note_off,400,0,21,,,,,,,,15,,,,45,64
10480,note_off,400,0,18,,,,,,,,12,,,,73,64
10480,note_off,400,0,2,,,,,,,,1,,,,73,64
10480,note_off,400,0,6,,,,,,,,3,,,,73,64
10480,note_off,400,0,19,,,,,,,,13,,,,69,64
10480,note_off,400,0,14,,,,,,,,7,,,,57,64
10560,note_on,80,0,7,,,,,,,,4,,,,62,92
10560,note_on,80,0,15,,,,,,,,8,,,,50,92
10560,note_on,80,0,6,,,,,,,,3,,,,74,92
10560,note_on,80,0,13,,,,,,,,7,,,,57,92
10560,note_on,80,0,18,,,,,,,,12,,,,74,92
10560,note_on,80,0,16,,,,,,,,10,,,,50,92
10560,note_on,80,0,17,,,,,,,,11,,,,78,108
10560,note_on,80,0,19,,,,,,,,13,,,,69,92
10560,note_on,80,0,21,,,,,,,,15,,,,50,92
10560,note_on,80,0,3,,,,,,,,2,,,,78,92
10560,note_on,80,0,1,,,,,,,,0,,,,78,92
10560,note_on,80,0,20,,,,,,,,14,,,,62,92
10560,note_on,80,0,2,,,,,,,,1,,,,74,92
10560,note_on,80,0,4,,,,,,,,2,,,,74,92
10560,note_on,80,0,5,,,,,,,,3,,,,78,92
10560,note_on,80,0,14,,,,,,,,7,,,,62,92
10560,note_on,80,0,12,,,,,,,,7,,,,62,92
10960,note_off,400,0,21,,,,,,,,15,,,,50,64
10960,note_off,400,0,16,,,,,,,,10,,,,50,64
10960,note_off,400,0,4,,,,,,,,2,,,,74,64
10960,note_off,400,0,19,,,,,,,,13,,,,69,64
10960,note_off,400,0,7,,,,,,,,4,,,,62,64
10960,note_off,400,0,14,,,,,,,,7,,,,62,64
10960,note_off,400,0,6,,,,,,,,3,,,,74,64
10960,note_off,400,0,1,,,,,,,,0,,,,78,64
10960,note_off,400,0,12,,,,,,,,7,,,,62,64
10960,note_off,400,0,5,,,,,,,,3,,,,78,64
10960,note_off,400,0,20,,,,,,,,14,,,,62,64
10960,note_off,400,0,3,,,,,,,,2,,,,78,64
10960,note_off,400,0,2,,,,,,,,1,,,,74,64
10960,note_off,400,0,18,,,,,,,,12,,,,74,64
10960,note_off,400,0,17,,,,,,,,11,,,,78,64
10960,note_off,400,0,15,,,,,,,,8,,,,50,64
10960,note_off,400,0,13,,,,,,,,7,,,,57,64
11040,note_on,80,0,20,,,,,,,,14,,,,54,92
11040,note_on,80,0,15,,,,,,,,8,,,,42,92
11040,note_on,80,0,4,,,,,,,,2,,,,69,92
11040,note_on,80,0,3,,,,,,,,2,,,,76,92
11040,note_on,80,0,1,,,,,,,,0,,,,76,92
11040,note_on,80,0,5,,,,,,,,3,,,,76,92
11040,note_on,80,0,18,,,,,,,,12,,,,69,92
11040,note_on,80,0,14,,,,,,,,7,,,,54,92
11040,note_on,80,0,16,,,,,,,,10,,,,50,92
11040,note_on,80,0,6,,,,,,,,3,,,,69,92
11040,note_on,80,0,19,,,,,,,,13,,,,69,92
11040,note_on,80,0,12,,,,,,,,7,,,,62,92
11040,note_on,80,0,21,,,,,,,,15,,,,42,92
11040,note_on,80,0,2,,,,,,,,1,,,,69,92
11040,note_on,80,0,13,,,,,,,,7,,,,57,92
11040,note_on,80,0,17,,,,,,,,11,,,,76,108
11040,note_on,80,0,7,,,,,,,,4,,,,54,92
11280,note_on,0,0,17,,,,,,,,11,,,,74,108
11280,note_off,240,0,17,,,,,,,,11,,,,76,64
11280,note_off,240,0,3,,,,,,,,2,,,,76,64
11280,note_on,0,0,5,,,,,,,,3,,,,74,92
11280,note_off,240,0,1,,,,,,,,0,,,,76,64
11280,note_on,0,0,1,,,,,,,,0,,,,74,92
11280,note_on,0,0,3,,,,,,,,2,,,,74,92
11280,note_off,240,0,5,,,,,,,,3,,,,76,64
11440,note_off,400,0,19,,,,,,,,13,,,,69,64
11440,note_off,400,0,15,,,,,,,,8,,,,42,64
11440,note_off,400,0,7,,,,,,,,4,,,,54,64
11440,note_off,400,0,16,,,,,,,,10,,,,50,64
11440,note_off,400,0,12,,,,,,,,7,,,,62,64
11440,note_off,400,0,21,,,,,,,,15,,,,42,64
11440,note_off,400,0,20,,,,,,,,14,,,,54,64
11440,note_off,400,0,13,,,,,,,,7,,,,57,64
11440,note_off,400,0,14,,,,,,,,7,,,,54,64
11440,note_off,400,0,18,,,,,,,,12,,,,69,64
11515,note_off,235,0,17,,,,,,,,11,,,,74,64
11520,note_on,80,0,14,,,,,,,,7,,,,57,92
11520,note_on,80,0,18,,,,,,,,12,,,,73,92
11520,note_on,80,0,7,,,,,,,,4,,,,57,92
11520,note_on,80,0,15,,,,,,,,8,,,,45,92
11520,note_on,80,0,21,,,,,,,,15,,,,45,92
11520,note_on,0,0,3,,,,,,,,2,,,,76,92
11520,note_off,240,0,3,,,,,,,,2,,,,74,64
11520,note_on,80,0,12,,,,,,,,7,,,,61,92
11520,note_on,80,0,16,,,,,,,,10,,,,45,92
11520,note_off,240,0,5,,,,,,,,3,,,,74,64
11520,note_on,0,0,4,,,,,,,,2,,,,73,92
11520,note_off,480,0,6,,,,,,,,3,,,,69,64
11520,note_on,80,0,19,,,,,,,,13,,,,69,92
11520,note_off,480,0,4,,,,,,,,2,,,,69,64
11520,note_on,0,0,6,,,,,,,,3,,,,73,92
11520,note_on,80,0,13,,,,,,,,7,,,,57,92
11520,note_off,240,0,1,,,,,,,,0,,,,74,64
11520,note_on,0,0,1,,,,,,,,0,,,,76,92
11520,note_on,0,0,5,,,,,,,,3,,,,76,92
11520,note_on,80,0,20,,,,,,,,14,,,,57,92
11520,note_on,0,0,2,,,,,,,,1,,,,73,92
11520,note_off,480,0,2,,,,,,,,1,,,,69,64
11520,note_on,5,0,17,,,,,,,,11,,,,76,108
11920,note_off,400,0,16,,,,,,,,10,,,,45,64
11920,note_off,400,0,5,,,,,,,,3,,,,76,64
11920,note_off,400,0,3,,,,,,,,2,,,,76,64
11920,note_off,400,0,13,,,,,,,,7,,,,57,64
11920,note_off,400,0,12,,,,,,,,7,,,,61,64
11920,note_off,400,0,17,,,,,,,,11,,,,76,64
11920,note_off,400,0,1,,,,,,,,0,,,,76,64
12000,note_on,80,0,13,,,,,,,,7,,,,57,92
12000,note_on,80,0,16,,,,,,,,10,,,,45,92
12000,note_on,80,0,1,,,,,,,,0,,,,69,92
12000,note_on,80,0,3,,,,,,,,2,,,,69,92
12000,note_on,80,0,12,,,,,,,,7,,,,61,92
12000,note_on,80,0,17,,,,,,,,11,,,,69,108
12000,note_on,80,0,5,,,,,,,,3,,,,69,92
12360,note_off,840,0,21,,,,,,,,15,,,,45,64
12360,note_off,840,0,18,,,,,,,,12,,,,73,64
12360,note_off,840,0,7,,,,,,,,4,,,,57,64
12360,note_off,840,0,2,,,,,,,,1,,,,73,64
12360,note_off,840,0,6,,,,,,,,3,,,,73,64
12360,note_off,840,0,15,,,,,,,,8,,,,45,64
12360,note_off,840,0,19,,,,,,,,13,,,,69,64
12360,note_off,840,0,20,,,,,,,,14,,,,57,64
12360,note_off,840,0,14,,,,,,,,7,,,,57,64
12360,note_off,840,0,4,,,,,,,,2,,,,73,64
12840,note_off,840,0,13,,,,,,,,7,,,,57,64
12840,note_off,840,0,12,,,,,,,,7,,,,61,64
12840,note_off,840,0,16,,,,,,,,10,,,,45,64
12960,note_on,600,0,6,,,,,,,,3,,,,81,92
12960,note_on,600,0,19,,,,,,,,13,,,,73,92
12960,note_on,600,0,14,,,,,,,,7,,,,57,92
12960,note_on,600,0,2,,,,,,,,1,,,,81,92
12960,note_on,600,0,21,,,,,,,,15,,,,45,92
12960,note_on,600,0,4,,,,,,,,2,,,,81,92
12960,note_on,600,0,20,,,,,,,,14,,,,57,92
12960,note_on,600,0,15,,,,,,,,8,,,,45,92
12960,note_on,600,0,18,,,,,,,,12,,,,81,92
12960,note_on,600,0,7,,,,,,,,4,,,,57,92
13320,note_off,1320,0,17,,,,,,,,11,,,,69,64
13320,note_off,1320,0,3,,,,,,,,2,,,,69,64
13320,note_off,1320,0,5,,,,,,,,3,,,,69,64
13320,note_off,1320,0,1,,,,,,,,0,,,,69,64
13360,note_off,400,0,4,,,,,,,,2,,,,81,64
13360,note_off,400,0,7,,,,,,,,4,,,,57,64
13360,note_off,400,0,6,,,,,,,,3,,,,81,64
13360,note_off,400,0,14,,,,,,,,7,,,,57,64
13360,note_off,400,0,2,,,,,,,,1,,,,81,64
13360,note_off,400,0,15,,,,,,,,8,,,,45,64
13360,note_off,400,0,20,,,,,,,,14,,,,57,64
13360,note_off,400,0,19,,,,,,,,13,,,,73,64
13360,note_off,400,0,18,,,,,,,,12,,,,81,64
13360,note_off,400,0,21,,,,,,,,15,,,,45,64
13440,note_on,80,0,20,,,,,,,,14,,,,54,92
13440,note_on,80,0,4,,,,,,,,2,,,,81,92
13440,note_on,80,0,18,,,,,,,,12,,,,81,92
13440,note_on,80,0,15,,,,,,,,8,,,,42,92
13440,note_on,80,0,19,,,,,,,,13,,,,69,92
13440,note_on,80,0,6,,,,,,,,3,,,,81,92
13440,note_on,80,0,21,,,,,,,,15,,,,42,92
13440,note_on,80,0,14,,,,,,,,7,,,,54,92
13440,note_on,80,0,2,,,,,,,,1,,,,81,92
13440,note_on,80,0,7,,,,,,,,4,,,,54,92
13840,note_off,400,0,7,,,,,,,,4,,,,54,64
13840,note_off,400,0,4,,,,,,,,2,,,,81,64
13840,note_off,400,0,21,,,,,,,,15,,,,42,64
13840,note_off,400,0,14,,,,,,,,7,,,,54,64
13840,note_off,400,0,2,,,,,,,,1,,,,81,64
13840,note_off,400,0,15,,,,,,,,8,,,,42,64
13840,note_off,400,0,20,,,,,,,,14,,,,54,64
13840,note_off,400,0,18,,,,,,,,12,,,,81,64
13840,note_off,400,0,6,,,,,,,,3,,,,81,64
13840,note_off,400,0,19,,,,,,,,13,,,,69,64
13920,note_on,80,0,14,,,,,,,,7,,,,57,92
13920,note_on,80,0,15,,,,,,,,8,,,,45,92
13920,note_on,80,0,21,,,,,,,,15,,,,45,92
13920,note_on,80,0,6,,,,,,,,3,,,,81,92
13920,note_on,80,0,19,,,,,,,,13,,,,73,92
13920,note_on,80,0,7,,,,,,,,4,,,,57,92
13920,note_on,80,0,20,,,,,,,,14,,,,57,92
13920,note_on,80,0,18,,,,,,,,12,,,,81,92
13920,note_on,80,0,4,,,,,,,,2,,,,81,92
13920,note_on,80,0,2,,,,,,,,1,,,,81,92
14320,note_off,400,0,18,,,,,,,,12,,,,81,64
14320,note_off,400,0,19,,,,,,,,13,,,,73,64
14320,note_off,400,0,20,,,,,,,,14,,,,57,64
14320,note_off,400,0,6,,,,,,,,3,,,,81,64
14320,note_off,400,0,21,,,,,,,,15,,,,45,64
14320,note_off,400,0,4,,,,,,,,2,,,,81,64
14320,note_off,400,0,7,,,,,,,,4,,,,57,64
14320,note_off,400,0,14,,,,,,,,7,,,,57,64
14320,note_off,400,0,2,,,,,,,,1,,,,81,64
14320,note_off,400,0,15,,,,,,,,8,,,,45,64
14400,note_on,80,0,6,,,,,,,,3,,,,81,92
14400,note_on,80,0,20,,,,,,,,14,,,,59,92
14400,note_on,80,0,21,,,,,,,,15,,,,47,92
14400,note_on,80,0,2,,,,,,,,1,,,,81,92
14400,note_on,80,0,4,,,,,,,,2,,,,81,92
14400,note_on,80,0,18,,,,,,,,12,,,,81,92
14400,note_on,80,0,19,,,,,,,,13,,,,74,92
14400,note_on,80,0,7,,,,,,,,4,,,,59,92
14400,note_on,80,0,15,,,,,,,,8,,,,47,92
14400,note_on,80,0,14,,,,,,,,7,,,,59,92
14800,note_off,400,0,6,,,,,,,,3,,,,81,64
14800,note_off,400,0,4,,,,,,,,2,,,,81,64
14800,note_off,400,0,18,,,,,,,,12,,,,81,64
14800,note_off,400,0,2,,,,,,,,1,,,,81,64
14880,note_on,80,0,18,,,,,,,,12,,,,79,92
14880,note_on,80,0,2,,,,,,,,1,,,,79,92
14880,note_on,80,0,4,,,,,,,,2,,,,79,92
14880,note_on,80,0,6,,,,,,,,3,,,,79,92
15120,note_off,240,0,2,,,,,,,,1,,,,79,64
15120,note_off,240,0,4,,,,,,,,2,,,,79,64
15120,note_off,240,0,18,,,,,,,,12,,,,79,64
15120,note_on,0,0,18,,,,,,,,12,,,,78,92
15120,note_off,240,0,6,,,,,,,,3,,,,79,64
15120,note_on,0,0,4,,,,,,,,2,,,,78,92
15120,note_on,0,0,2,,,,,,,,1,,,,78,92
15120,note_on,0,0,6,,,,,,,,3,,,,78,92
15240,note_off,840,0,19,,,,,,,,13,,,,74,64
15240,note_off,840,0,21,,,,,,,,15,,,,47,64
15240,note_off,840,0,7,,,,,,,,4,,,,59,64
15240,note_off,840,0,20,,,,,,,,14,,,,59,64
15240,note_off,840,0,15,,,,,,,,8,,,,47,64
15240,note_off,840,0,14,,,,,,,,7,,,,59,64
15355,note_off,235,0,2,,,,,,,,1,,,,78,64
15355,note_off,235,0,4,,,,,,,,2,,,,78,64
15355,note_off,235,0,18,,,,,,,,12,,,,78,64
15355,note_off,235,0,6,,,,,,,,3,,,,78,64
15360,note_on,5,0,18,,,,,,,,12,,,,79,92
15360,note_on,5,0,4,,,,,,,,2,,,,79,92
15360,note_on,5,0,6,,,,,,,,3,,,,79,92
15360,note_on,5,0,2,,,,,,,,1,,,,79,92
15760,note_off,400,0,6,,,,,,,,3,,,,79,64
15760,note_off,400,0,18,,,,,,,,12,,,,79,64
15760,note_off,400,0,4,,,,,,,,2,,,,79,64
15760,note_off,400,0,2,,,,,,,,1,,,,79,64
15840,note_on,80,0,18,,,,,,,,12,,,,79,92
15840,note_on,80,0,6,,,,,,,,3,,,,79,92
15840,note_on,600,0,19,,,,,,,,13,,,,71,92
15840,note_on,80,0,2,,,,,,,,1,,,,79,92
15840,note_on,600,0,7,,,,,,,,4,,,,55,92
15840,note_on,600,0,20,,,,,,,,14,,,,55,92
15840,note_on,80,0,4,,,,,,,,2,,,,79,92
15840,note_on,600,0,15,,,,,,,,8,,,,43,92
15840,note_on,600,0,14,,,,,,,,7,,,,55,92
15840,note_on,600,0,21,,,,,,,,15,,,,43,92
16240,note_off,400,0,15,,,,,,,,8,,,,43,64
16240,note_off,400,0,20,,,,,,,,14,,,,55,64
16240,note_off,400,0,14,,,,,,,,7,,,,55,64
16240,note_off,400,0,21,,,,,,,,15,,,,43,64
16240,note_off,400,0,6,,,,,,,,3,,,,79,64
16240,note_off,400,0,7,,,,,,,,4,,,,55,64
16240,note_off,400,0,18,,,,,,,,12,,,,79,64
16240,note_off,400,0,4,,,,,,,,2,,,,79,64
16240,note_off,400,0,19,,,,,,,,13,,,,71,64
16240,note_off,400,0,2,,,,,,,,1,,,,79,64
16320,note_on,80,0,21,,,,,,,,15,,,,40,92
16320,note_on,80,0,7,,,,,,,,4,,,,52,92
16320,note_on,80,0,4,,,,,,,,2,,,,79,92
16320,note_on,80,0,15,,,,,,,,8,,,,40,92
16320,note_on,80,0,19,,,,,,,,13,,,,67,92
16320,note_on,80,0,6,,,,,,,,3,,,,79,92
16320,note_on,80,0,18,,,,,,,,12,,,,79,92
16320,note_on,80,0,20,,,,,,,,14,,,,52,92
16320,note_on,80,0,14,,,,,,,,7,,,,52,92
16320,note_on,80,0,2,,,,,,,,1,,,,79,92
16720,note_off,400,0,20,,,,,,,,14,,,,52,64
16720,note_off,400,0,15,,,,,,,,8,,,,40,64
16720,note_off,400,0,14,,,,,,,,7,,,,52,64
16720,note_off,400,0,19,,,,,,,,13,,,,67,64
16720,note_off,400,0,18,,,,,,,,12,,,,79,64
16720,note_off,400,0,2,,,,,,,,1,,,,79,64
16720,note_off,400,0,6,,,,,,,,3,,,,79,64
16720,note_off,400,0,4,,,,,,,,2,,,,79,64
16720,note_off,400,0,21,,,,,,,,15,,,,40,64
16720,note_off,400,0,7,,,,,,,,4,,,,52,64
16800,note_on,80,0,2,,,,,,,,1,,,,79,92
16800,note_on,80,0,4,,,,,,,,2,,,,79,92
16800,note_on,80,0,6,,,,,,,,3,,,,79,92
16800,note_on,80,0,20,,,,,,,,14,,,,55,92
16800,note_on,80,0,15,,,,,,,,8,,,,43,92
16800,note_on,80,0,18,,,,,,,,12,,,,79,92
16800,note_on,80,0,14,,,,,,,,7,,,,55,92
16800,note_on,80,0,19,,,,,,,,13,,,,64,92
16800,note_on,80,0,21,,,,,,,,15,,,,43,92
16800,note_on,80,0,7,,,,,,,,4,,,,55,92
17200,note_off,400,0,19,,,,,,,,13,,,,64,64
17200,note_off,400,0,4,,,,,,,,2,,,,79,64
17200,note_off,400,0,2,,,,,,,,1,,,,79,64
17200,note_off,400,0,20,,,,,,,,14,,,,55,64
17200,note_off,400,0,14,,,,,,,,7,,,,55,64
17200,note_off,400,0,21,,,,,,,,15,,,,43,64
17200,note_off,400,0,15,,,,,,,,8,,,,43,64
17200,note_off,400,0,6,,,,,,,,3,,,,79,64
17200,note_off,400,0,7,,,,,,,,4,,,,55,64
17200,note_off,400,0,18,,,,,,,,12,,,,79,64
17280,note_on,80,0,4,,,,,,,,2,,,,79,92
17280,note_on,80,0,2,,,,,,,,1,,,,79,92
17280,note_on,80,0,15,,,,,,,,8,,,,45,92
17280,note_on,80,0,21,,,,,,,,15,,,,45,92
17280,note_on,80,0,7,,,,,,,,4,,,,57,92
17280,note_on,80,0,14,,,,,,,,7,,,,57,92
17280,note_on,80,0,6,,,,,,,,3,,,,79,92
17280,note_on,80,0,18,,,,,,,,12,,,,79,92
17280,note_on,80,0,19,,,,,,,,13,,,,61,92
17280,note_on,80,0,20,,,,,,,,14,,,,57,92
17680,note_off,400,0,4,,,,,,,,2,,,,79,64
17680,note_off,400,0,2,,,,,,,,1,,,,79,64
17680,note_off,400,0,18,,,,,,,,12,,,,79,64
17680,note_off,400,0,6,,,,,,,,3,,,,79,64
17760,note_on,80,0,2,,,,,,,,1,,,,78,92
17760,note_on,80,0,18,,,,,,,,12,,,,78,92
17760,note_on,80,0,6,,,,,,,,3,,,,78,92
17760,note_on,80,0,4,,,,,,,,2,,,,78,92
18000,note_off,240,0,6,,,,,,,,3,,,,78,64
18000,note_on,0,0,4,,,,,,,,2,,,,76,92
18000,note_on,0,0,2,,,,,,,,1,,,,76,92
18000,note_off,240,0,4,,,,,,,,2,,,,78,64
18000,note_on,0,0,18,,,,,,,,12,,,,76,92
18000,note_off,240,0,18,,,,,,,,12,,,,78,64
18000,note_off,240,0,2,,,,,,,,1,,,,78,64
18000,note_on,0,0,6,,,,,,,,3,,,,76,92
18120,note_off,840,0,20,,,,,,,,14,,,,57,64
18120,note_off,840,0,14,,,,,,,,7,,,,57,64
18120,note_off,840,0,19,,,,,,,,13,,,,61,64
18120,note_off,840,0,21,,,,,,,,15,,,,45,64
18120,note_off,840,0,7,,,,,,,,4,,,,57,64
18120,note_off,840,0,15,,,,,,,,8,,,,45,64
18235,note_off,235,0,2,,,,,,,,1,,,,76,64
18235,note_off,235,0,18,,,,,,,,12,,,,76,64
18235,note_off,235,0,4,,,,,,,,2,,,,76,64
18235,note_off,235,0,6,,,,,,,,3,,,,76,64
18240,note_on,5,0,6,,,,,,,,3,,,,78,92
18240,note_on,5,0,2,,,,,,,,1,,,,78,92
18240,note_on,120,0,19,,,,,,,,13,,,,57,92
18240,note_on,5,0,18,,,,,,,,12,,,,78,92
18240,note_on,5,0,4,,,,,,,,2,,,,78,92
18475,note_off,235,0,6,,,,,,,,3,,,,78,64
18475,note_off,235,0,2,,,,,,,,1,,,,78,64
18475,note_off,235,0,4,,,,,,,,2,,,,78,64
18640,note_off,400,0,18,,,,,,,,12,,,,78,64
18720,note_on,600,0,15,,,,,,,,8,,,,42,92
18720,note_on,5400,0,5,,,,,,,,3,,,,81,92
18720,note_on,600,0,21,,,,,,,,15,,,,42,92
18720,note_on,5880,0,12,,,,,,,,7,,,,62,92
18720,note_on,5400,0,17,,,,,,,,11,,,,81,108
18720,note_on,245,0,6,,,,,,,,3,,,,78,92
18720,note_on,5880,0,16,,,,,,,,10,,,,50,92
18720,note_on,5400,0,3,,,,,,,,2,,,,81,92
18720,note_on,245,0,4,,,,,,,,2,,,,78,92
18720,note_on,600,0,14,,,,,,,,7,,,,54,92
18720,note_on,600,0,7,,,,,,,,4,,,,54,92
18720,note_on,600,0,20,,,,,,,,14,,,,54,92
18720,note_on,5880,0,13,,,,,,,,7,,,,57,92
18720,note_on,245,0,2,,,,,,,,1,,,,78,92
18720,note_on,80,0,18,,,,,,,,12,,,,78,92
18720,note_on,5400,0,1,,,,,,,,0,,,,81,92
19080,note_off,840,0,19,,,,,,,,13,,,,57,64
19120,note_off,400,0,16,,,,,,,,10,,,,50,64
19120,note_off,400,0,20,,,,,,,,14,,,,54,64
19120,note_off,400,0,6,,,,,,,,3,,,,78,64
19120,note_off,400,0,17,,,,,,,,11,,,,81,64
19120,note_off,400,0,1,,,,,,,,0,,,,81,64
19120,note_off,400,0,21,,,,,,,,15,,,,42,64
19120,note_off,400,0,2,,,,,,,,1,,,,78,64
19120,note_off,400,0,13,,,,,,,,7,,,,57,64
19120,note_off,400,0,7,,,,,,,,4,,,,54,64
19120,note_off,400,0,4,,,,,,,,2,,,,78,64
19120,note_off,400,0,3,,,,,,,,2,,,,81,64
19120,note_off,400,0,18,,,,,,,,12,,,,78,64
19120,note_off,400,0,15,,,,,,,,8,,,,42,64
19120,note_off,400,0,12,,,,,,,,7,,,,62,64
19120,note_off,400,0,14,,,,,,,,7,,,,54,64
19120,note_off,400,0,5,,,,,,,,3,,,,81,64
19200,note_on,80,0,14,,,,,,,,7,,,,50,92
19200,note_on,120,0,19,,,,,,,,13,,,,69,92
19200,note_on,80,0,5,,,,,,,,3,,,,81,92
19200,note_on,80,0,21,,,,,,,,15,,,,38,92
19200,note_on,80,0,13,,,,,,,,7,,,,57,92
19200,note_on,80,0,20,,,,,,,,14,,,,50,92
19200,note_on,80,0,6,,,,,,,,3,,,,78,92
19200,note_on,80,0,2,,,,,,,,1,,,,78,92
19200,note_on,80,0,15,,,,,,,,8,,,,38,92
19200,note_on,80,0,18,,,,,,,,12,,,,78,92
19200,note_on,80,0,1,,,,,,,,0,,,,81,92
19200,note_on,80,0,4,,,,,,,,2,,,,78,92
19200,note_on,80,0,7,,,,,,,,4,,,,50,92
19200,note_on,80,0,16,,,,,,,,10,,,,50,92
19200,note_on,80,0,17,,,,,,,,11,,,,81,108
19200,note_on,80,0,3,,,,,,,,2,,,,81,92
19200,note_on,80,0,12,,,,,,,,7,,,,62,92
19600,note_off,400,0,6,,,,,,,,3,,,,78,64
19600,note_off,400,0,13,,,,,,,,7,,,,57,64
19600,note_off,400,0,3,,,,,,,,2,,,,81,64
19600,note_off,400,0,1,,,,,,,,0,,,,81,64
19600,note_off,400,0,5,,,,,,,,3,,,,81,64
19600,note_off,400,0,4,,,,,,,,2,,,,78,64
19600,note_off,400,0,17,,,,,,,,11,,,,81,64
19600,note_off,400,0,12,,,,,,,,7,,,,62,64
19600,note_off,400,0,21,,,,,,,,15,,,,38,64
19600,note_off,400,0,20,,,,,,,,14,,,,50,64
19600,note_off,400,0,16,,,,,,,,10,,,,50,64
19600,note_off,400,0,15,,,,,,,,8,,,,38,64
19600,note_off,400,0,2,,,,,,,,1,,,,78,64
19600,note_off,400,0,18,,,,,,,,12,,,,78,64
19600,note_off,400,0,14,,,,,,,,7,,,,50,64
19600,note_off,400,0,7,,,,,,,,4,,,,50,64
19680,note_on,80,0,12,,,,,,,,7,,,,62,92
19680,note_on,80,0,3,,,,,,,,2,,,,81,92
19680,note_on,80,0,4,,,,,,,,2,,,,78,92
19680,note_on,80,0,21,,,,,,,,15,,,,42,92
19680,note_on,80,0,15,,,,,,,,8,,,,42,92
19680,note_on,80,0,5,,,,,,,,3,,,,81,92
19680,note_on,80,0,7,,,,,,,,4,,,,54,92
19680,note_on,80,0,2,,,,,,,,1,,,,78,92
19680,note_on,80,0,13,,,,,,,,7,,,,57,92
19680,note_on,80,0,14,,,,,,,,7,,,,54,92
19680,note_on,80,0,20,,,,,,,,14,,,,54,92
19680,note_on,80,0,17,,,,,,,,11,,,,81,108
19680,note_on,80,0,16,,,,,,,,10,,,,50,92
19680,note_on,80,0,1,,,,,,,,0,,,,81,92
19680,note_on,80,0,6,,,,,,,,3,,,,78,92
19680,note_on,80,0,18,,,,,,,,12,,,,78,92
20040,note_off,840,0,19,,,,,,,,13,,,,69,64
20080,note_off,400,0,2,,,,,,,,1,,,,78,64
20080,note_off,400,0,14,,,,,,,,7,,,,54,64
20080,note_off,400,0,17,,,,,,,,11,,,,81,64
20080,note_off,400,0,20,,,,,,,,14,,,,54,64
20080,note_off,400,0,4,,,,,,,,2,,,,78,64
20080,note_off,400,0,18,,,,,,,,12,,,,78,64
20080,note_off,400,0,1,,,,,,,,0,,,,81,64
20080,note_off,400,0,21,,,,,,,,15,,,,42,64
20080,note_off,400,0,5,,,,,,,,3,,,,81,64
20080,note_off,400,0,6,,,,,,,,3,,,,78,64
20080,note_off,400,0,7,,,,,,,,4,,,,54,64
20080,note_off,400,0,16,,,,,,,,10,,,,50,64
20080,note_off,400,0,13,,,,,,,,7,,,,57,64
20080,note_off,400,0,3,,,,,,,,2,,,,81,64
20080,note_off,400,0,12,,,,,,,,7,,,,62,64
20080,note_off,400,0,15,,,,,,,,8,,,,42,64
20160,note_on,80,0,16,,,,,,,,10,,,,50,92
20160,note_on,80,0,20,,,,,,,,14,,,,55,92
20160,note_on,80,0,4,,,,,,,,2,,,,78,92
20160,note_on,80,0,21,,,,,,,,15,,,,43,92
20160,note_on,80,0,12,,,,,,,,7,,,,62,92
20160,note_on,80,0,7,,,,,,,,4,,,,55,92
20160,note_on,80,0,17,,,,,,,,11,,,,81,108
20160,note_on,80,0,6,,,,,,,,3,,,,78,92
20160,note_on,80,0,2,,,,,,,,1,,,,78,92
20160,note_on,80,0,18,,,,,,,,12,,,,78,92
20160,note_on,80,0,14,,,,,,,,7,,,,55,92
20160,note_on,80,0,15,,,,,,,,8,,,,43,92
20160,note_on,120,0,19,,,,,,,,13,,,,71,92
20160,note_on,80,0,1,,,,,,,,0,,,,81,92
20160,note_on,80,0,3,,,,,,,,2,,,,81,92
20160,note_on,80,0,5,,,,,,,,3,,,,81,92
20160,note_on,80,0,13,,,,,,,,7,,,,59,92
20560,note_off,400,0,17,,,,,,,,11,,,,81,64
20560,note_off,400,0,3,,,,,,,,2,,,,81,64
20560,note_off,400,0,2,,,,,,,,1,,,,78,64
20560,note_off,400,0,4,,,,,,,,2,,,,78,64
20560,note_off,400,0,18,,,,,,,,12,,,,78,64
20560,note_off,400,0,1,,,,,,,,0,,,,81,64
20560,note_off,400,0,5,,,,,,,,3,,,,81,64
20560,note_off,400,0,6,,,,,,,,3,,,,78,64
20640,note_on,80,0,3,,,,,,,,2,,,,79,92
20640,note_on,80,0,18,,,,,,,,12,,,,76,92
20640,note_on,80,0,6,,,,,,,,3,,,,76,92
20640,note_on,80,0,2,,,,,,,,1,,,,76,92
20640,note_on,80,0,1,,,,,,,,0,,,,79,92
20640,note_on,80,0,4,,,,,,,,2,,,,76,92
20640,note_on,80,0,17,,,,,,,,11,,,,79,108
20640,note_on,80,0,5,,,,,,,,3,,,,79,92
20880,note_off,240,0,5,,,,,,,,3,,,,79,64
20880,note_on,0,0,5,,,,,,,,3,,,,78,92
20880,note_off,240,0,6,,,,,,,,3,,,,76,64
20880,note_off,240,0,3,,,,,,,,2,,,,79,64
20880,note_off,240,0,17,,,,,,,,11,,,,79,64
20880,note_on,0,0,17,,,,,,,,11,,,,78,108
20880,note_on,0,0,3,,,,,,,,2,,,,78,92
20880,note_on,0,0,1,,,,,,,,0,,,,78,92
20880,note_off,240,0,18,,,,,,,,12,,,,76,64
20880,note_off,240,0,1,,,,,,,,0,,,,79,64
20880,note_on,0,0,4,,,,,,,,2,,,,74,92
20880,note_off,240,0,4,,,,,,,,2,,,,76,64
20880,note_off,240,0,2,,,,,,,,1,,,,76,64
20880,note_on,0,0,2,,,,,,,,1,,,,74,92
20880,note_on,0,0,6,,,,,,,,3,,,,74,92
20880,note_on,0,0,18,,,,,,,,12,,,,74,92
21000,note_off,840,0,16,,,,,,,,10,,,,50,64
21000,note_off,840,0,15,,,,,,,,8,,,,43,64
21000,note_off,840,0,20,,,,,,,,14,,,,55,64
21000,note_off,840,0,13,,,,,,,,7,,,,59,64
21000,note_off,840,0,7,,,,,,,,4,,,,55,64
21000,note_off,840,0,21,,,,,,,,15,,,,43,64
21000,note_off,840,0,19,,,,,,,,13,,,,71,64
21000,note_off,840,0,14,,,,,,,,7,,,,55,64
21000,note_off,840,0,12,,,,,,,,7,,,,62,64
21115,note_off,235,0,6,,,,,,,,3,,,,74,64
21115,note_off,235,0,18,,,,,,,,12,,,,74,64
21115,note_off,235,0,4,,,,,,,,2,,,,74,64
21115,note_off,235,0,1,,,,,,,,0,,,,78,64
21115,note_off,235,0,2,,,,,,,,1,,,,74,64
21115,note_off,235,0,17,,,,,,,,11,,,,78,64
21115,note_off,235,0,5,,,,,,,,3,,,,78,64
21115,note_off,235,0,3,,,,,,,,2,,,,78,64
21120,note_on,5,0,17,,,,,,,,11,,,,79,108
21120,note_on,5,0,4,,,,,,,,2,,,,76,92
21120,note_on,5,0,1,,,,,,,,0,,,,79,92
21120,note_on,5,0,2,,,,,,,,1,,,,76,92
21120,note_on,5,0,6,,,,,,,,3,,,,76,92
21120,note_on,5,0,5,,,,,,,,3,,,,79,92
21120,note_on,5,0,3,,,,,,,,2,,,,79,92
21120,note_on,5,0,18,,,,,,,,12,,,,76,92
21520,note_off,400,0,17,,,,,,,,11,,,,79,64
21520,note_off,400,0,18,,,,,,,,12,,,,76,64
21520,note_off,400,0,4,,,,,,,,2,,,,76,64
21520,note_off,400,0,6,,,,,,,,3,,,,76,64
21520,note_off,400,0,1,,,,,,,,0,,,,79,64
21520,note_off,400,0,2,,,,,,,,1,,,,76,64
21520,note_off,400,0,3,,,,,,,,2,,,,79,64
21520,note_off,400,0,5,,,,,,,,3,,,,79,64
21600,note_on,600,0,20,,,,,,,,14,,,,52,92
21600,note_on,80,0,1,,,,,,,,0,,,,79,92
21600,note_on,600,0,15,,,,,,,,8,,,,40,92
21600,note_on,80,0,18,,,,,,,,12,,,,76,92
21600,note_on,600,0,12,,,,,,,,7,,,,64,92
21600,note_on,600,0,14,,,,,,,,7,,,,52,92
21600,note_on,80,0,6,,,,,,,,3,,,,76,92
21600,note_on,80,0,17,,,,,,,,11,,,,79,108
21600,note_on,600,0,16,,,,,,,,10,,,,50,92
21600,note_on,600,0,19,,,,,,,,13,,,,71,92
21600,note_on,80,0,4,,,,,,,,2,,,,76,92
21600,note_on,600,0,7,,,,,,,,4,,,,52,92
21600,note_on,80,0,2,,,,,,,,1,,,,76,92
21600,note_on,600,0,21,,,,,,,,15,,,,40,92
21600,note_on,80,0,3,,,,,,,,2,,,,79,92
21600,note_on,600,0,13,,,,,,,,7,,,,59,92
21600,note_on,80,0,5,,,,,,,,3,,,,79,92
22000,note_off,400,0,12,,,,,,,,7,,,,64,64
22000,note_off,400,0,18,,,,,,,,12,,,,76,64
22000,note_off,400,0,13,,,,,,,,7,,,,59,64
22000,note_off,400,0,3,,,,,,,,2,,,,79,64
22000,note_off,400,0,6,,,,,,,,3,,,,76,64
22000,note_off,400,0,5,,,,,,,,3,,,,79,64
22000,note_off,400,0,14,,,,,,,,7,,,,52,64
22000,note_off,400,0,21,,,,,,,,15,,,,40,64
22000,note_off,400,0,17,,,,,,,,11,,,,79,64
22000,note_off,400,0,20,,,,,,,,14,,,,52,64
22000,note_off,400,0,19,,,,,,,,13,,,,71,64
22000,note_off,400,0,2,,,,,,,,1,,,,76,64
22000,note_off,400,0,1,,,,,,,,0,,,,79,64
22000,note_off,400,0,4,,,,,,,,2,,,,76,64
22000,note_off,400,0,7,,,,,,,,4,,,,52,64
22000,note_off,400,0,16,,,,,,,,10,,,,50,64
22000,note_off,400,0,15,,,,,,,,8,,,,40,64
22080,note_on,80,0,15,,,,,,,,8,,,,43,92
22080,note_on,80,0,2,,,,,,,,1,,,,76,92
22080,note_on,80,0,14,,,,,,,,7,,,,55,92
22080,note_on,80,0,7,,,,,,,,4,,,,55,92
22080,note_on,80,0,13,,,,,,,,7,,,,59,92
22080,note_on,80,0,12,,,,,,,,7,,,,64,92
22080,note_on,80,0,5,,,,,,,,3,,,,79,92
22080,note_on,80,0,20,,,,,,,,14,,,,55,92
22080,note_on,80,0,18,,,,,,,,12,,,,76,92
22080,note_on,80,0,21,,,,,,,,15,,,,43,92
22080,note_on,80,0,1,,,,,,,,0,,,,79,92
22080,note_on,80,0,16,,,,,,,,10,,,,50,92
22080,note_on,80,0,4,,,,,,,,2,,,,76,92
22080,note_on,80,0,17,,,,,,,,11,,,,79,108
22080,note_on,80,0,19,,,,,,,,13,,,,71,92
22080,note_on,80,0,6,,,,,,,,3,,,,76,92
22080,note_on,80,0,3,,,,,,,,2,,,,79,92
22480,note_off,400,0,1,,,,,,,,0,,,,79,64
22480,note_off,400,0,20,,,,,,,,14,,,,55,64
22480,note_off,400,0,17,,,,,,,,11,,,,79,64
22480,note_off,400,0,3,,,,,,,,2,,,,79,64
22480,note_off,400,0,4,,,,,,,,2,,,,76,64
22480,note_off,400,0,7,,,,,,,,4,,,,55,64
22480,note_off,400,0,13,,,,,,,,7,,,,59,64
22480,note_off,400,0,5,,,,,,,,3,,,,79,64
22480,note_off,400,0,2,,,,,,,,1,,,,76,64
22480,note_off,400,0,21,,,,,,,,15,,,,43,64
22480,note_off,400,0,16,,,,,,,,10,,,,50,64
22480,note_off,400,0,14,,,,,,,,7,,,,55,64
22480,note_off,400,0,15,,,,,,,,8,,,,43,64
22480,note_off,400,0,6,,,,,,,,3,,,,76,64
22480,note_off,400,0,18,,,,,,,,12,,,,76,64
22480,note_off,400,0,19,,,,,,,,13,,,,71,64
22480,note_off,400,0,12,,,,,,,,7,,,,64,64
22560,note_on,80,0,12,,,,,,,,7,,,,64,92
22560,note_on,80,0,5,,,,,,,,3,,,,79,92
22560,note_on,80,0,20,,,,,,,,14,,,,52,92
22560,note_on,80,0,1,,,,,,,,0,,,,79,92
22560,note_on,80,0,2,,,,,,,,1,,,,76,92
22560,note_on,80,0,14,,,,,,,,7,,,,52,92
22560,note_on,80,0,17,,,,,,,,11,,,,79,108
22560,note_on,80,0,6,,,,,,,,3,,,,76,92
22560,note_on,80,0,21,,,,,,,,15,,,,40,92
22560,note_on,80,0,18,,,,,,,,12,,,,76,92
22560,note_on,80,0,16,,,,,,,,10,,,,50,92
22560,note_on,80,0,7,,,,,,,,4,,,,52,92
22560,note_on,80,0,4,,,,,,,,2,,,,76,92
22560,note_on,80,0,19,,,,,,,,13,,,,71,92
22560,note_on,80,0,15,,,,,,,,8,,,,40,92
22560,note_on,80,0,3,,,,,,,,2,,,,79,92
22560,note_on,80,0,13,,,,,,,,7,,,,59,92
22960,note_off,400,0,15,,,,,,,,8,,,,40,64
22960,note_off,400,0,18,,,,,,,,12,,,,76,64
22960,note_off,400,0,14,,,,,,,,7,,,,52,64
22960,note_off,400,0,5,,,,,,,,3,,,,79,64
22960,note_off,400,0,3,,,,,,,,2,,,,79,64
22960,note_off,400,0,21,,,,,,,,15,,,,40,64
22960,note_off,400,0,1,,,,,,,,0,,,,79,64
22960,note_off,400,0,17,,,,,,,,11,,,,79,64
22960,note_off,400,0,4,,,,,,,,2,,,,76,64
22960,note_off,400,0,19,,,,,,,,13,,,,71,64
22960,note_off,400,0,16,,,,,,,,10,,,,50,64
22960,note_off,400,0,12,,,,,,,,7,,,,64,64
22960,note_off,400,0,6,,,,,,,,3,,,,76,64
22960,note_off,400,0,20,,,,,,,,14,,,,52,64
22960,note_off,400,0,13,,,,,,,,7,,,,59,64
22960,note_off,400,0,7,,,,,,,,4,,,,52,64
22960,note_off,400,0,2,,,,,,,,1,,,,76,64
23040,note_on,80,0,2,,,,,,,,1,,,,73,92
23040,note_on,80,0,14,,,,,,,,7,,,,57,92
23040,note_on,80,0,17,,,,,,,,11,,,,79,108
23040,note_on,80,0,13,,,,,,,,7,,,,57,92
23040,note_on,80,0,4,,,,,,,,2,,,,73,92
23040,note_on,80,0,1,,,,,,,,0,,,,79,92
23040,note_on,80,0,18,,,,,,,,12,,,,73,92
23040,note_on,80,0,19,,,,,,,,13,,,,69,92
23040,note_on,80,0,16,,,,,,,,10,,,,45,92
23040,note_on,80,0,7,,,,,,,,4,,,,57,92
23040,note_on,80,0,12,,,,,,,,7,,,,61,92
23040,note_on,80,0,5,,,,,,,,3,,,,79,92
23040,note_on,80,0,21,,,,,,,,15,,,,45,92
23040,note_on,80,0,20,,,,,,,,14,,,,57,92
23040,note_on,80,0,3,,,,,,,,2,,,,79,92
23040,note_on,80,0,6,,,,,,,,3,,,,73,92
23040,note_on,80,0,15,,,,,,,,8,,,,45,92
23880,note_off,840,0,16,,,,,,,,10,,,,45,64
24360,note_off,1320,0,7,,,,,,,,4,,,,57,64
24360,note_off,1320,0,21,,,,,,,,15,,,,45,64
24360,note_off,1320,0,14,,,,,,,,7,,,,57,64
24360,note_off,1320,0,12,,,,,,,,7,,,,61,64
24360,note_off,1320,0,15,,,,,,,,8,,,,45,64
24360,note_off,1320,0,13,,,,,,,,7,,,,57,64
24480,note_on,0,0,5,,,,,,,,3,,,,81,92
24480,note_off,1440,0,5,,,,,,,,3,,,,79,64
24480,note_on,0,0,6,,,,,,,,3,,,,73,92
24480,note_off,1440,0,19,,,,,,,,13,,,,69,64
24480,note_on,0,0,19,,,,,,,,13,,,,69,92
24480,note_on,120,0,21,,,,,,,,15,,,,45,92
24480,note_off,1440,0,6,,,,,,,,3,,,,73,64
24480,note_on,0,0,3,,,,,,,,2,,,,81,92
24480,note_on,120,0,13,,,,,,,,7,,,,57,92
24480,note_off,1440,0,20,,,,,,,,14,,,,57,64
24480,note_off,1440,0,2,,,,,,,,1,,,,73,64
24480,note_on,0,0,17,,,,,,,,11,,,,81,108
24480,note_off,1440,0,17,,,,,,,,11,,,,79,64
24480,note_on,0,0,2,,,,,,,,1,,,,73,92
24480,note_on,120,0,15,,,,,,,,8,,,,45,92
24480,note_off,1440,0,4,,,,,,,,2,,,,73,64
24480,note_on,600,0,16,,,,,,,,10,,,,45,92
24480,note_on,0,0,20,,,,,,,,14,,,,57,92
24480,note_on,120,0,12,,,,,,,,7,,,,61,92
24480,note_off,1440,0,1,,,,,,,,0,,,,79,64
24480,note_on,120,0,7,,,,,,,,4,,,,57,92
24480,note_off,1440,0,18,,,,,,,,12,,,,73,64
24480,note_on,0,0,18,,,,,,,,12,,,,73,92
24480,note_on,0,0,4,,,,,,,,2,,,,73,92
24480,note_on,120,0,14,,,,,,,,7,,,,57,92
24480,note_on,0,0,1,,,,,,,,0,,,,81,92
24480,note_off,1440,0,3,,,,,,,,2,,,,79,64
24880,note_off,400,0,19,,,,,,,,13,,,,69,64
24880,note_off,400,0,15,,,,,,,,8,,,,45,64
24880,note_off,400,0,13,,,,,,,,7,,,,57,64
24880,note_off,400,0,14,,,,,,,,7,,,,57,64
24880,note_off,400,0,17,,,,,,,,11,,,,81,64
24880,note_off,400,0,16,,,,,,,,10,,,,45,64
24880,note_off,400,0,12,,,,,,,,7,,,,61,64
24880,note_off,400,0,7,,,,,,,,4,,,,57,64
24880,note_off,400,0,18,,,,,,,,12,,,,73,64
24880,note_off,400,0,21,,,,,,,,15,,,,45,64
24880,note_off,400,0,20,,,,,,,,14,,,,57,64
24960,note_on,0,0,1,,,,,,,,0,,,,78,92
24960,note_on,80,0,15,,,,,,,,8,,,,50,92
24960,note_off,480,0,4,,,,,,,,2,,,,73,64
24960,note_off,480,0,3,,,,,,,,2,,,,81,64
24960,note_on,0,0,3,,,,,,,,2,,,,78,92
24960,note_on,0,0,2,,,,,,,,1,,,,74,92
24960,note_off,480,0,2,,,,,,,,1,,,,73,64
24960,note_off,480,0,5,,,,,,,,3,,,,81,64
24960,note_on,80,0,21,,,,,,,,15,,,,50,92
24960,note_on,0,0,4,,,,,,,,2,,,,74,92
24960,note_on,0,0,5,,,,,,,,3,,,,78,92
24960,note_on,80,0,13,,,,,,,,7,,,,57,92
24960,note_on,80,0,12,,,,,,,,7,,,,62,92
24960,note_on,80,0,18,,,,,,,,12,,,,74,92
24960,note_on,80,0,7,,,,,,,,4,,,,62,92
24960,note_on,80,0,16,,,,,,,,10,,,,50,92
24960,note_on,0,0,6,,,,,,,,3,,,,74,92
24960,note_off,480,0,6,,,,,,,,3,,,,73,64
24960,note_on,80,0,20,,,,,,,,14,,,,62,92
24960,note_on,80,0,19,,,,,,,,13,,,,69,92
24960,note_off,480,0,1,,,,,,,,0,,,,81,64
24960,note_on,80,0,14,,,,,,,,7,,,,62,92
24960,note_on,80,0,17,,,,,,,,11,,,,78,108
25440,note_on,0,0,1,,,,,,,,0,,,,76,92
25440,note_on,0,0,5,,,,,,,,3,,,,76,92
25440,note_off,480,0,1,,,,,,,,0,,,,78,64
25440,note_on,0,0,17,,,,,,,,11,,,,76,108
25440,note_off,480,0,3,,,,,,,,2,,,,78,64
25440,note_on,0,0,3,,,,,,,,2,,,,76,92
25440,note_off,480,0,17,,,,,,,,11,,,,78,64
25440,note_off,480,0,5,,,,,,,,3,,,,78,64
25800,note_off,840,0,16,,,,,,,,10,,,,50,64
25840,note_off,400,0,17,,,,,,,,11,,,,76,64
25920,note_on,0,0,3,,,,,,,,2,,,,78,92
25920,note_off,480,0,3,,,,,,,,2,,,,76,64
25920,note_off,960,0,12,,,,,,,,7,,,,62,64
25920,note_on,0,0,5,,,,,,,,3,,,,78,92
25920,note_off,480,0,5,,,,,,,,3,,,,76,64
25920,note_on,80,0,17,,,,,,,,11,,,,78,108
25920,note_on,0,0,12,,,,,,,,7,,,,62,92
25920,note_on,0,0,1,,,,,,,,0,,,,78,92
25920,note_off,480,0,1,,,,,,,,0,,,,76,64
26320,note_off,400,0,12,,,,,,,,7,,,,62,64
26320,note_off,1360,0,14,,,,,,,,7,,,,62,64
26320,note_off,1360,0,6,,,,,,,,3,,,,74,64
26320,note_off,1360,0,7,,,,,,,,4,,,,62,64
26320,note_off,1360,0,18,,,,,,,,12,,,,74,64
26320,note_off,1360,0,20,,,,,,,,14,,,,62,64
26320,note_off,1360,0,13,,,,,,,,7,,,,57,64
26320,note_off,1360,0,19,,,,,,,,13,,,,69,64
26320,note_off,1360,0,21,,,,,,,,15,,,,50,64
26320,note_off,1360,0,2,,,,,,,,1,,,,74,64
26320,note_off,1360,0,15,,,,,,,,8,,,,50,64
26320,note_off,1360,0,4,,,,,,,,2,,,,74,64
26400,note_on,80,0,2,,,,,,,,1,,,,74,92
26400,note_on,600,0,16,,,,,,,,10,,,,50,92
26400,note_on,80,0,15,,,,,,,,8,,,,43,92
26400,note_on,80,0,7,,,,,,,,4,,,,55,92
26400,note_on,80,0,14,,,,,,,,7,,,,55,92
26400,note_on,0,0,3,,,,,,,,2,,,,79,92
26400,note_on,80,0,12,,,,,,,,7,,,,64,92
26400,note_on,80,0,20,,,,,,,,14,,,,55,92
26400,note_off,480,0,1,,,,,,,,0,,,,78,64
26400,note_on,0,0,1,,,,,,,,0,,,,79,92
26400,note_off,480,0,17,,,,,,,,11,,,,78,64
26400,note_on,0,0,17,,,,,,,,11,,,,79,108
26400,note_on,80,0,18,,,,,,,,12,,,,71,92
26400,note_on,80,0,19,,,,,,,,13,,,,74,92
26400,note_off,480,0,3,,,,,,,,2,,,,78,64
26400,note_on,80,0,21,,,,,,,,15,,,,43,92
26400,note_off,480,0,5,,,,,,,,3,,,,78,64
26400,note_on,80,0,4,,,,,,,,2,,,,74,92
26400,note_on,0,0,5,,,,,,,,3,,,,79,92
26400,note_on,80,0,13,,,,,,,,7,,,,59,92
26400,note_on,80,0,6,,,,,,,,3,,,,67,92
26800,note_off,400,0,1,,,,,,,,0,,,,79,64
26800,note_off,400,0,13,,,,,,,,7,,,,59,64
26800,note_off,400,0,2,,,,,,,,1,,,,74,64
26800,note_off,400,0,15,,,,,,,,8,,,,43,64
26800,note_off,400,0,5,,,,,,,,3,,,,79,64
26800,note_off,400,0,12,,,,,,,,7,,,,64,64
26800,note_off,400,0,14,,,,,,,,7,,,,55,64
26800,note_off,400,0,19,,,,,,,,13,,,,74,64
26800,note_off,400,0,18,,,,,,,,12,,,,71,64
26800,note_off,400,0,20,,,,,,,,14,,,,55,64
26800,note_off,400,0,3,,,,,,,,2,,,,79,64
26800,note_off,400,0,17,,,,,,,,11,,,,79,64
26800,note_off,400,0,16,,,,,,,,10,,,,50,64
26800,note_off,400,0,4,,,,,,,,2,,,,74,64
26800,note_off,400,0,21,,,,,,,,15,,,,43,64
26800,note_off,400,0,6,,,,,,,,3,,,,67,64
26800,note_off,400,0,7,,,,,,,,4,,,,55,64
26880,note_on,80,0,2,,,,,,,,1,,,,74,92
26880,note_on,80,0,5,,,,,,,,3,,,,76,92
26880,note_on,80,0,15,,,,,,,,8,,,,45,92
26880,note_on,80,0,4,,,,,,,,2,,,,74,92
26880,note_on,80,0,21,,,,,,,,15,,,,45,92
26880,note_on,80,0,20,,,,,,,,14,,,,57,92
26880,note_on,80,0,3,,,,,,,,2,,,,76,92
26880,note_on,80,0,7,,,,,,,,4,,,,57,92
26880,note_on,80,0,16,,,,,,,,10,,,,45,92
26880,note_on,80,0,13,,,,,,,,7,,,,57,92
26880,note_on,80,0,14,,,,,,,,7,,,,57,92
26880,note_on,80,0,18,,,,,,,,12,,,,64,92
26880,note_on,80,0,6,,,,,,,,3,,,,69,92
26880,note_on,80,0,1,,,,,,,,0,,,,76,92
26880,note_on,80,0,12,,,,,,,,7,,,,64,92
26880,note_on,80,0,17,,,,,,,,11,,,,76,108
26880,note_on,80,0,19,,,,,,,,13,,,,74,92
27000,note_on,0,0,1,,,,,,,,0,,,,78,92
27000,note_on,0,0,3,,,,,,,,2,,,,78,92
27000,note_off,120,0,17,,,,,,,,11,,,,76,64
27000,note_on,0,0,5,,,,,,,,3,,,,78,92
27000,note_on,0,0,17,,,,,,,,11,,,,78,108
27000,note_off,120,0,1,,,,,,,,0,,,,76,64
27000,note_off,120,0,5,,,,,,,,3,,,,76,64
27000,note_off,120,0,3,,,,,,,,2,,,,76,64
27120,note_on,0,0,3,,,,,,,,2,,,,76,92
27120,note_off,120,0,3,,,,,,,,2,,,,78,64
27120,note_on,0,0,1,,,,,,,,0,,,,76,92
27120,note_off,120,0,1,,,,,,,,0,,,,78,64
27120,note_on,0,0,5,,,,,,,,3,,,,76,92
27120,note_off,120,0,17,,,,,,,,11,,,,78,64
27120,note_on,0,0,17,,,,,,,,11,,,,76,108
27120,note_off,120,0,5,,,,,,,,3,,,,78,64
27240,note_off,120,0,17,,,,,,,,11,,,,76,64
27240,note_on,0,0,17,,,,,,,,11,,,,78,108
27240,note_off,120,0,1,,,,,,,,0,,,,76,64
27240,note_on,0,0,1,,,,,,,,0,,,,78,92
27240,note_off,120,0,3,,,,,,,,2,,,,76,64
27240,note_on,0,0,3,,,,,,,,2,,,,78,92
27240,note_on,0,0,5,,,,,,,,3,,,,78,92
27240,note_off,120,0,5,,,,,,,,3,,,,76,64
27360,note_off,120,0,17,,,,,,,,11,,,,78,64
27360,note_on,0,0,5,,,,,,,,3,,,,76,92
27360,note_off,120,0,5,,,,,,,,3,,,,78,64
27360,note_off,120,0,1,,,,,,,,0,,,,78,64
27360,note_on,0,0,1,,,,,,,,0,,,,76,92
27360,note_on,0,0,3,,,,,,,,2,,,,76,92
27360,note_off,120,0,3,,,,,,,,2,,,,78,64
27360,note_on,0,0,17,,,,,,,,11,,,,76,108
27480,note_on,0,0,3,,,,,,,,2,,,,78,92
27480,note_off,120,0,3,,,,,,,,2,,,,76,64
27480,note_off,120,0,1,,,,,,,,0,,,,76,64
27480,note_on,0,0,1,,,,,,,,0,,,,78,92
27480,note_off,120,0,5,,,,,,,,3,,,,76,64
27480,note_on,0,0,5,,,,,,,,3,,,,78,92
27480,note_off,120,0,17,,,,,,,,11,,,,76,64
27480,note_on,0,0,17,,,,,,,,11,,,,78,108
27600,note_on,0,0,3,,,,,,,,2,,,,76,92
27600,note_off,120,0,1,,,,,,,,0,,,,78,64
27600,note_on,0,0,1,,,,,,,,0,,,,76,92
27600,note_off,120,0,5,,,,,,,,3,,,,78,64
27600,note_on,0,0,5,,,,,,,,3,,,,76,92
27600,note_off,120,0,3,,,,,,,,2,,,,78,64
27600,note_off,120,0,17,,,,,,,,11,,,,78,64
27600,note_on,0,0,17,,,,,,,,11,,,,76,108
27720,note_off,840,0,20,,,,,,,,14,,,,57,64
27720,note_off,840,0,21,,,,,,,,15,,,,45,64
27720,note_on,0,0,1,,,,,,,,0,,,,78,92
27720,note_off,840,0,15,,,,,,,,8,,,,45,64
27720,note_off,120,0,17,,,,,,,,11,,,,76,64
27720,note_on,0,0,17,,,,,,,,11,,,,78,108
27720,note_off,840,0,18,,,,,,,,12,,,,64,64
27720,note_off,840,0,7,,,,,,,,4,,,,57,64
27720,note_on,0,0,3,,,,,,,,2,,,,78,92
27720,note_off,120,0,3,,,,,,,,2,,,,76,64
27720,note_off,840,0,6,,,,,,,,3,,,,69,64
27720,note_off,840,0,14,,,,,,,,7,,,,57,64
27720,note_on,0,0,5,,,,,,,,3,,,,78,92
27720,note_off,120,0,5,,,,,,,,3,,,,76,64
27720,note_off,840,0,19,,,,,,,,13,,,,74,64
27720,note_off,840,0,16,,,,,,,,10,,,,45,64
27720,note_off,120,0,1,,,,,,,,0,,,,76,64
27840,note_off,120,0,17,,,,,,,,11,,,,78,64
27840,note_on,120,0,15,,,,,,,,8,,,,33,92
27840,note_on,120,0,7,,,,,,,,4,,,,45,92
27840,note_on,120,0,18,,,,,,,,12,,,,69,92
27840,note_on,120,0,14,,,,,,,,7,,,,45,92
27840,note_on,0,0,2,,,,,,,,1,,,,73,92
27840,note_off,960,0,2,,,,,,,,1,,,,74,64
27840,note_on,120,0,21,,,,,,,,15,,,,33,92
27840,note_on,0,0,1,,,,,,,,0,,,,76,92
27840,note_on,0,0,4,,,,,,,,2,,,,73,92
27840,note_off,960,0,4,,,,,,,,2,,,,74,64
27840,note_off,120,0,1,,,,,,,,0,,,,78,64
27840,note_on,0,0,17,,,,,,,,11,,,,76,108
27840,note_on,120,0,20,,,,,,,,14,,,,45,92
27840,note_on,0,0,3,,,,,,,,2,,,,76,92
27840,note_off,120,0,3,,,,,,,,2,,,,78,64
27840,note_on,0,0,5,,,,,,,,3,,,,76,92
27840,note_off,120,0,5,,,,,,,,3,,,,78,64
27840,note_on,120,0,19,,,,,,,,13,,,,73,92
27840,note_on,120,0,6,,,,,,,,3,,,,69,92
27840,note_on,120,0,16,,,,,,,,10,,,,45,92
27960,note_off,120,0,17,,,,,,,,11,,,,76,64
27960,note_on,0,0,3,,,,,,,,2,,,,78,92
27960,note_off,120,0,3,,,,,,,,2,,,,76,64
27960,note_on,0,0,17,,,,,,,,11,,,,78,108
27960,note_off,120,0,1,,,,,,,,0,,,,76,64
27960,note_on,0,0,1,,,,,,,,0,,,,78,92
27960,note_off,120,0,5,,,,,,,,3,,,,76,64
27960,note_on,0,0,5,,,,,,,,3,,,,78,92
28080,note_off,120,0,3,,,,,,,,2,,,,78,64
28080,note_on,0,0,3,,,,,,,,2,,,,74,92
28080,note_off,120,0,17,,,,,,,,11,,,,78,64
28080,note_on,0,0,17,,,,,,,,11,,,,74,108
28080,note_off,120,0,5,,,,,,,,3,,,,78,64
28080,note_off,120,0,1,,,,,,,,0,,,,78,64
28080,note_on,0,0,1,,,,,,,,0,,,,74,92
28080,note_on,0,0,5,,,,,,,,3,,,,74,92
28200,note_off,120,0,5,,,,,,,,3,,,,74,64
28200,note_on,0,0,17,,,,,,,,11,,,,76,108
28200,note_off,120,0,17,,,,,,,,11,,,,74,64
28200,note_off,120,0,1,,,,,,,,0,,,,74,64
28200,note_on,0,0,1,,,,,,,,0,,,,76,92
28200,note_on,0,0,3,,,,,,,,2,,,,76,92
28200,note_off,120,0,3,,,,,,,,2,,,,74,64
28200,note_on,0,0,5,,,,,,,,3,,,,76,92
28200,note_off,1320,0,13,,,,,,,,7,,,,57,64
28240,note_off,400,0,4,,,,,,,,2,,,,73,64
28320,note_off,1440,0,12,,,,,,,,7,,,,64,64
28320,note_on,0,0,5,,,,,,,,3,,,,74,92
28320,note_on,0,0,17,,,,,,,,11,,,,74,108
28320,note_on,0,0,12,,,,,,,,7,,,,62,92
28320,note_off,120,0,17,,,,,,,,11,,,,76,64
28320,note_on,0,0,3,,,,,,,,2,,,,74,92
28320,note_off,120,0,3,,,,,,,,2,,,,76,64
28320,note_off,120,0,1,,,,,,,,0,,,,76,64
28320,note_on,0,0,1,,,,,,,,0,,,,74,92
28320,note_on,120,0,13,,,,,,,,7,,,,57,92
28320,note_off,120,0,5,,,,,,,,3,,,,76,64
28680,note_off,840,0,19,,,,,,,,13,,,,73,64
28680,note_off,840,0,14,,,,,,,,7,,,,45,64
28680,note_off,840,0,20,,,,,,,,14,,,,45,64
28680,note_off,840,0,6,,,,,,,,3,,,,69,64
28680,note_off,840,0,2,,,,,,,,1,,,,73,64
28680,note_off,840,0,18,,,,,,,,12,,,,69,64
28680,note_off,840,0,16,,,,,,,,10,,,,45,64
28680,note_off,840,0,15,,,,,,,,8,,,,33,64
28680,note_off,840,0,7,,,,,,,,4,,,,45,64
28680,note_off,840,0,21,,,,,,,,15,,,,33,64
28720,note_off,400,0,12,,,,,,,,7,,,,62,64
28720,note_off,400,0,1,,,,,,,,0,,,,74,64
28720,note_off,400,0,5,,,,,,,,3,,,,74,64
28720,note_off,400,0,13,,,,,,,,7,,,,57,64
28720,note_off,400,0,17,,,,,,,,11,,,,74,64
28720,note_off,400,0,3,,,,,,,,2,,,,74,64
28800,note_on,120,0,19,,,,,,,,13,,,,74,92
28800,note_on,120,0,15,,,,,,,,8,,,,38,92
28800,note_on,120,0,20,,,,,,,,14,,,,50,92
28800,note_on,80,0,13,,,,,,,,7,,,,50,92
28800,note_on,120,0,2,,,,,,,,1,,,,74,92
28800,note_on,120,0,14,,,,,,,,7,,,,50,92
28800,note_on,80,0,1,,,,,,,,0,,,,74,92
28800,note_on,80,0,12,,,,,,,,7,,,,57,92
28800,note_on,120,0,16,,,,,,,,10,,,,50,92
28800,note_on,120,0,7,,,,,,,,4,,,,50,92
28800,note_on,560,0,4,,,,,,,,2,,,,62,92
28800,note_on,80,0,5,,,,,,,,3,,,,74,92
28800,note_on,80,0,17,,,,,,,,11,,,,74,108
28800,note_on,120,0,18,,,,,,,,12,,,,66,92
28800,note_on,80,0,3,,,,,,,,2,,,,69,92
28800,note_on,120,0,6,,,,,,,,3,,,,66,92
28800,note_on,120,0,21,,,,,,,,15,,,,38,92
28800,note_on,28800,0,11,,,,,,,,6,,,,62,92
28800,note_on,28800,0,10,,,,,,,,6,,,,69,92
29640,note_off,840,0,2,,,,,,,,1,,,,74,64
29640,note_off,840,0,15,,,,,,,,8,,,,38,64
29640,note_off,840,0,11,,,,,,,,6,,,,62,64
29640,note_off,840,0,14,,,,,,,,7,,,,50,64
29640,note_off,840,0,16,,,,,,,,10,,,,50,64
29640,note_off,840,0,10,,,,,,,,6,,,,69,64
29640,note_off,840,0,13,,,,,,,,7,,,,50,64
29640,note_off,840,0,6,,,,,,,,3,,,,66,64
29640,note_off,840,0,21,,,,,,,,15,,,,38,64
29640,note_off,840,0,18,,,,,,,,12,,,,66,64
29640,note_off,840,0,5,,,,,,,,3,,,,74,64
29640,note_off,840,0,1,,,,,,,,0,,,,74,64
29640,note_off,840,0,7,,,,,,,,4,,,,50,64
29640,note_off,840,0,17,,,,,,,,11,,,,74,64
29640,note_off,840,0,19,,,,,,,,13,,,,74,64
29640,note_off,840,0,3,,,,,,,,2,,,,69,64
29640,note_off,840,0,12,,,,,,,,7,,,,57,64
29640,note_off,840,0,4,,,,,,,,2,,,,62,64
29640,note_off,840,0,20,,,,,,,,14,,,,50,64
29760,note_on,120,0,4,,,,,,,,2,,,,66,92
29760,note_on,120,0,13,,,,,,,,7,,,,54,92
29760,note_on,120,0,3,,,,,,,,2,,,,74,92
29760,note_on,120,0,12,,,,,,,,7,,,,62,92
29760,note_on,120,0,10,,,,,,,,6,,,,74,92
29760,note_on,120,0,11,,,,,,,,6,,,,66,92
30600,note_off,840,0,12,,,,,,,,7,,,,62,64
30600,note_off,840,0,10,,,,,,,,6,,,,74,64
30600,note_off,840,0,3,,,,,,,,2,,,,74,64
30600,note_off,840,0,11,,,,,,,,6,,,,66,64
30600,note_off,840,0,4,,,,,,,,2,,,,66,64
30600,note_off,840,0,13,,,,,,,,7,,,,54,64
30720,note_on,120,0,3,,,,,,,,2,,,,76,92
30720,note_on,120,0,11,,,,,,,,6,,,,69,92
30720,note_on,120,0,13,,,,,,,,7,,,,57,92
30720,note_on,120,0,12,,,,,,,,7,,,,64,92
30720,note_on,120,0,4,,,,,,,,2,,,,69,92
30720,note_on,120,0,10,,,,,,,,6,,,,76,92
31560,note_off,840,0,11,,,,,,,,6,,,,69,64
31560,note_off,840,0,13,,,,,,,,7,,,,57,64
31560,note_off,840,0,3,,,,,,,,2,,,,76,64
31560,note_off,840,0,10,,,,,,,,6,,,,76,64
31560,note_off,840,0,4,,,,,,,,2,,,,69,64
31560,note_off,840,0,12,,,,,,,,7,,,,64,64
31680,note_on,120,0,12,,,,,,,,7,,,,66,92
31680,note_on,120,0,13,,,,,,,,7,,,,62,92
31680,note_on,120,0,10,,,,,,,,6,,,,78,92
31680,note_on,120,0,3,,,,,,,,2,,,,78,92
31680,note_on,120,0,4,,,,,,,,2,,,,74,92
31680,note_on,120,0,11,,,,,,,,6,,,,74,92
32080,note_off,400,0,4,,,,,,,,2,,,,74,64
32080,note_off,400,0,11,,,,,,,,6,,,,74,64
32080,note_off,400,0,13,,,,,,,,7,,,,62,64
32080,note_off,400,0,10,,,,,,,,6,,,,78,64
32080,note_off,400,0,12,,,,,,,,7,,,,66,64
32080,note_off,400,0,3,,,,,,,,2,,,,78,64
32160,note_on,80,0,13,,,,,,,,7,,,,54,92
32160,note_on,80,0,12,,,,,,,,7,,,,62,92
32160,note_on,80,0,11,,,,,,,,6,,,,66,92
32160,note_on,80,0,10,,,,,,,,6,,,,74,92
32160,note_on,80,0,4,,,,,,,,2,,,,66,92
32160,note_on,80,0,3,,,,,,,,2,,,,74,92
33000,note_off,840,0,11,,,,,,,,6,,,,66,64
33000,note_off,840,0,4,,,,,,,,2,,,,66,64
33000,note_off,840,0,10,,,,,,,,6,,,,74,64
33000,note_off,840,0,12,,,,,,,,7,,,,62,64
33000,note_off,840,0,3,,,,,,,,2,,,,74,64
33000,note_off,840,0,13,,,,,,,,7,,,,54,64
33120,note_on,120,0,4,,,,,,,,2,,,,69,92
33120,note_on,120,0,13,,,,,,,,7,,,,57,92
33120,note_on,120,0,3,,,,,,,,2,,,,76,92
33120,note_on,120,0,10,,,,,,,,6,,,,76,92
33120,note_on,120,0,12,,,,,,,,7,,,,64,92
33120,note_on,120,0,11,,,,,,,,6,,,,69,92
33520,note_off,400,0,13,,,,,,,,7,,,,57,64
33520,note_off,400,0,10,,,,,,,,6,,,,76,64
33520,note_off,400,0,11,,,,,,,,6,,,,69,64
33520,note_off,400,0,3,,,,,,,,2,,,,76,64
33520,note_off,400,0,4,,,,,,,,2,,,,69,64
33520,note_off,400,0,12,,,,,,,,7,,,,64,64
33600,note_on,80,0,13,,,,,,,,7,,,,62,92
33600,note_on,80,0,10,,,,,,,,6,,,,78,92
33600,note_on,80,0,12,,,,,,,,7,,,,66,92
33600,note_on,80,0,11,,,,,,,,6,,,,74,92
33600,note_on,80,0,4,,,,,,,,2,,,,74,92
33600,note_on,80,0,3,,,,,,,,2,,,,78,92
34000,note_off,400,0,13,,,,,,,,7,,,,62,64
34000,note_off,400,0,10,,,,,,,,6,,,,78,64
34000,note_off,400,0,11,,,,,,,,6,,,,74,64
34000,note_off,400,0,4,,,,,,,,2,,,,74,64
34000,note_off,400,0,12,,,,,,,,7,,,,66,64
34000,note_off,400,0,3,,,,,,,,2,,,,78,64
34080,note_on,80,0,3,,,,,,,,2,,,,74,92
34080,note_on,80,0,13,,,,,,,,7,,,,54,92
34080,note_on,80,0,4,,,,,,,,2,,,,66,92
34080,note_on,80,0,12,,,,,,,,7,,,,62,92
34080,note_on,80,0,11,,,,,,,,6,,,,66,92
34080,note_on,80,0,10,,,,,,,,6,,,,74,92
34480,note_off,400,0,13,,,,,,,,7,,,,54,64
34480,note_off,400,0,12,,,,,,,,7,,,,62,64
34480,note_off,400,0,4,,,,,,,,2,,,,66,64
34480,note_off,400,0,10,,,,,,,,6,,,,74,64
34480,note_off,400,0,3,,,,,,,,2,,,,74,64
34480,note_off,400,0,11,,,,,,,,6,,,,66,64
34560,note_on,80,0,12,,,,,,,,7,,,,64,92
34560,note_on,80,0,10,,,,,,,,6,,,,76,92
34560,note_on,80,0,4,,,,,,,,2,,,,69,92
34560,note_on,80,0,3,,,,,,,,2,,,,76,92
34560,note_on,80,0,11,,,,,,,,6,,,,69,92
34560,note_on,80,0,13,,,,,,,,7,,,,57,92
34960,note_off,400,0,11,,,,,,,,6,,,,69,64
34960,note_off,400,0,10,,,,,,,,6,,,,76,64
34960,note_off,400,0,4,,,,,,,,2,,,,69,64
34960,note_off,400,0,12,,,,,,,,7,,,,64,64
34960,note_off,400,0,13,,,,,,,,7,,,,57,64
34960,note_off,400,0,3,,,,,,,,2,,,,76,64
35040,note_on,80,0,11,,,,,,,,6,,,,76,92
35040,note_on,80,0,10,,,,,,,,6,,,,81,92
35040,note_on,80,0,12,,,,,,,,7,,,,69,92
35040,note_on,80,0,3,,,,,,,,2,,,,81,92
35040,note_on,80,0,13,,,,,,,,7,,,,64,92
35040,note_on,80,0,4,,,,,,,,2,,,,76,92
35880,note_off,840,0,4,,,,,,,,2,,,,76,64
35880,note_off,840,0,11,,,,,,,,6,,,,76,64
35880,note_off,840,0,10,,,,,,,,6,,,,81,64
35880,note_off,840,0,12,,,,,,,,7,,,,69,64
35880,note_off,840,0,13,,,,,,,,7,,,,64,64
35880,note_off,840,0,3,,,,,,,,2,,,,81,64
36000,note_on,120,0,3,,,,,,,,2,,,,76,92
36000,note_on,120,0,11,,,,,,,,6,,,,69,92
36000,note_on,120,0,10,,,,,,,,6,,,,76,92
36000,note_on,120,0,4,,,,,,,,2,,,,69,92
36000,note_on,120,0,12,,,,,,,,7,,,,64,92
36000,note_on,120,0,13,,,,,,,,7,,,,57,92
36400,note_off,400,0,10,,,,,,,,6,,,,76,64
36400,note_off,400,0,4,,,,,,,,2,,,,69,64
36400,note_off,400,0,13,,,,,,,,7,,,,57,64
36400,note_off,400,0,3,,,,,,,,2,,,,76,64
36400,note_off,400,0,12,,,,,,,,7,,,,64,64
36400,note_off,400,0,11,,,,,,,,6,,,,69,64
36480,note_on,80,0,12,,,,,,,,7,,,,66,92
36480,note_on,80,0,3,,,,,,,,2,,,,78,92
36480,note_on,80,0,10,,,,,,,,6,,,,78,92
36480,note_on,80,0,11,,,,,,,,6,,,,74,92
36480,note_on,80,0,13,,,,,,,,7,,,,62,92
36480,note_on,80,0,4,,,,,,,,2,,,,74,92
36880,note_off,400,0,4,,,,,,,,2,,,,74,64
36880,note_off,400,0,12,,,,,,,,7,,,,66,64
36880,note_off,400,0,10,,,,,,,,6,,,,78,64
36880,note_off,400,0,3,,,,,,,,2,,,,78,64
36880,note_off,400,0,13,,,,,,,,7,,,,62,64
36880,note_off,400,0,11,,,,,,,,6,,,,74,64
36960,note_on,80,0,13,,,,,,,,7,,,,54,92
36960,note_on,80,0,12,,,,,,,,7,,,,64,92
36960,note_on,80,0,10,,,,,,,,6,,,,76,92
36960,note_on,80,0,11,,,,,,,,6,,,,66,92
36960,note_on,80,0,4,,,,,,,,2,,,,66,92
36960,note_on,80,0,3,,,,,,,,2,,,,76,92
37200,note_off,240,0,12,,,,,,,,7,,,,64,64
37200,note_on,0,0,10,,,,,,,,6,,,,74,92
37200,note_off,240,0,10,,,,,,,,6,,,,76,64
37200,note_on,0,0,3,,,,,,,,2,,,,74,92
37200,note_off,240,0,3,,,,,,,,2,,,,76,64
37200,note_on,0,0,12,,,,,,,,7,,,,62,92
37360,note_off,400,0,13,,,,,,,,7,,,,54,64
37360,note_off,400,0,11,,,,,,,,6,,,,66,64
37360,note_off,400,0,4,,,,,,,,2,,,,66,64
37435,note_off,235,0,10,,,,,,,,6,,,,74,64
37435,note_off,235,0,3,,,,,,,,2,,,,74,64
37435,note_off,235,0,12,,,,,,,,7,,,,62,64
37440,note_on,80,0,4,,,,,,,,2,,,,69,92
37440,note_on,80,0,13,,,,,,,,7,,,,57,92
37440,note_on,5,0,3,,,,,,,,2,,,,76,92
37440,note_on,5,0,12,,,,,,,,7,,,,64,92
37440,note_on,80,0,11,,,,,,,,6,,,,69,92
37440,note_on,5,0,10,,,,,,,,6,,,,76,92
37840,note_off,400,0,3,,,,,,,,2,,,,76,64
37840,note_off,400,0,4,,,,,,,,2,,,,69,64
37840,note_off,400,0,13,,,,,,,,7,,,,57,64
37840,note_off,400,0,11,,,,,,,,6,,,,69,64
37840,note_off,400,0,12,,,,,,,,7,,,,64,64
37840,note_off,400,0,10,,,,,,,,6,,,,76,64
37920,note_on,80,0,4,,,,,,,,2,,,,76,92
37920,note_on,80,0,13,,,,,,,,7,,,,64,92
37920,note_on,80,0,3,,,,,,,,2,,,,81,92
37920,note_on,80,0,10,,,,,,,,6,,,,81,92
37920,note_on,80,0,12,,,,,,,,7,,,,69,92
37920,note_on,80,0,11,,,,,,,,6,,,,76,92
38760,note_off,840,0,12,,,,,,,,7,,,,69,64
38760,note_off,840,0,10,,,,,,,,6,,,,81,64
38760,note_off,840,0,13,,,,,,,,7,,,,64,64
38760,note_off,840,0,3,,,,,,,,2,,,,81,64
38760,note_off,840,0,4,,,,,,,,2,,,,76,64
38760,note_off,840,0,11,,,,,,,,6,,,,76,64
38880,note_on,120,0,4,,,,,,,,2,,,,69,92
38880,note_on,120,0,11,,,,,,,,6,,,,69,92
38880,note_on,120,0,10,,,,,,,,6,,,,76,92
38880,note_on,120,0,3,,,,,,,,2,,,,76,92
38880,note_on,120,0,13,,,,,,,,7,,,,57,92
38880,note_on,120,0,12,,,,,,,,7,,,,64,92
39280,note_off,400,0,4,,,,,,,,2,,,,69,64
39280,note_off,400,0,11,,,,,,,,6,,,,69,64
39280,note_off,400,0,13,,,,,,,,7,,,,57,64
39280,note_off,400,0,12,,,,,,,,7,,,,64,64
39280,note_off,400,0,3,,,,,,,,2,,,,76,64
39280,note_off,400,0,10,,,,,,,,6,,,,76,64
39360,note_on,80,0,11,,,,,,,,6,,,,69,92
39360,note_on,80,0,10,,,,,,,,6,,,,76,92
39360,note_on,80,0,12,,,,,,,,7,,,,64,92
39360,note_on,80,0,13,,,,,,,,7,,,,57,92
39360,note_on,80,0,3,,,,,,,,2,,,,76,92
39360,note_on,80,0,4,,,,,,,,2,,,,69,92
39760,note_off,400,0,12,,,,,,,,7,,,,64,64
39760,note_off,400,0,3,,,,,,,,2,,,,76,64
39760,note_off,400,0,10,,,,,,,,6,,,,76,64
39840,note_on,80,0,12,,,,,,,,7,,,,57,92
39840,note_on,80,0,3,,,,,,,,2,,,,69,92
39840,note_on,80,0,10,,,,,,,,6,,,,69,92
40200,note_off,840,0,11,,,,,,,,6,,,,69,64
40200,note_off,840,0,13,,,,,,,,7,,,,57,64
40200,note_off,840,0,4,,,,,,,,2,,,,69,64
40240,note_off,400,0,10,,,,,,,,6,,,,69,64
40240,note_off,400,0,12,,,,,,,,7,,,,57,64
40240,note_off,400,0,3,,,,,,,,2,,,,69,64
40320,note_on,10680,0,5,,,,,,,,3,,,,57,92
40320,note_on,40320,0,9,,,,,,,,5,,,,50,92
40320,note_on,10680,0,6,,,,,,,,3,,,,50,92
40320,note_on,40320,0,8,,,,,,,,5,,,,57,92
41160,note_off,840,0,8,,,,,,,,5,,,,57,64
41160,note_off,840,0,5,,,,,,,,3,,,,57,64
41160,note_off,840,0,6,,,,,,,,3,,,,50,64
41160,note_off,840,0,9,,,,,,,,5,,,,50,64
41280,note_on,120,0,6,,,,,,,,3,,,,54,92
41280,note_on,120,0,8,,,,,,,,5,,,,62,92
41280,note_on,120,0,9,,,,,,,,5,,,,54,92
41280,note_on,120,0,5,,,,,,,,3,,,,62,92
42120,note_off,840,0,5,,,,,,,,3,,,,62,64
42120,note_off,840,0,6,,,,,,,,3,,,,54,64
42120,note_off,840,0,9,,,,,,,,5,,,,54,64
42120,note_off,840,0,8,,,,,,,,5,,,,62,64
42240,note_on,120,0,6,,,,,,,,3,,,,57,92
42240,note_on,120,0,8,,,,,,,,5,,,,64,92
42240,note_on,120,0,9,,,,,,,,5,,,,57,92
42240,note_on,120,0,5,,,,,,,,3,,,,64,92
43080,note_off,840,0,9,,,,,,,,5,,,,57,64
43080,note_off,840,0,6,,,,,,,,3,,,,57,64
43080,note_off,840,0,5,,,,,,,,3,,,,64,64
43080,note_off,840,0,8,,,,,,,,5,,,,64,64
43200,note_on,120,0,6,,,,,,,,3,,,,62,92
43200,note_on,120,0,9,,,,,,,,5,,,,62,92
43200,note_on,120,0,8,,,,,,,,5,,,,66,92
43200,note_on,120,0,5,,,,,,,,3,,,,66,92
43600,note_off,400,0,6,,,,,,,,3,,,,62,64
43600,note_off,400,0,8,,,,,,,,5,,,,66,64
43600,note_off,400,0,9,,,,,,,,5,,,,62,64
43600,note_off,400,0,5,,,,,,,,3,,,,66,64
43680,note_on,80,0,5,,,,,,,,3,,,,62,92
43680,note_on,80,0,9,,,,,,,,5,,,,54,92
43680,note_on,80,0,8,,,,,,,,5,,,,62,92
43680,note_on,80,0,6,,,,,,,,3,,,,54,92
44520,note_off,840,0,6,,,,,,,,3,,,,54,64
44520,note_off,840,0,8,,,,,,,,5,,,,62,64
44520,note_off,840,0,5,,,,,,,,3,,,,62,64
44520,note_off,840,0,9,,,,,,,,5,,,,54,64
44640,note_on,120,0,9,,,,,,,,5,,,,57,92
44640,note_on,120,0,8,,,,,,,,5,,,,64,92
44640,note_on,120,0,6,,,,,,,,3,,,,57,92
44640,note_on,120,0,5,,,,,,,,3,,,,64,92
45040,note_off,400,0,5,,,,,,,,3,,,,64,64
45040,note_off,400,0,8,,,,,,,,5,,,,64,64
45040,note_off,400,0,6,,,,,,,,3,,,,57,64
45040,note_off,400,0,9,,,,,,,,5,,,,57,64
45120,note_on,80,0,8,,,,,,,,5,,,,66,92
45120,note_on,80,0,6,,,,,,,,3,,,,62,92
45120,note_on,80,0,9,,,,,,,,5,,,,62,92
45120,note_on,80,0,5,,,,,,,,3,,,,66,92
45520,note_off,400,0,8,,,,,,,,5,,,,66,64
45520,note_off,400,0,6,,,,,,,,3,,,,62,64
45520,note_off,400,0,9,,,,,,,,5,,,,62,64
45520,note_off,400,0,5,,,,,,,,3,,,,66,64
45600,note_on,80,0,9,,,,,,,,5,,,,54,92
45600,note_on,80,0,8,,,,,,,,5,,,,62,92
45600,note_on,80,0,5,,,,,,,,3,,,,62,92
45600,note_on,80,0,6,,,,,,,,3,,,,54,92
46000,note_off,400,0,8,,,,,,,,5,,,,62,64
46000,note_off,400,0,6,,,,,,,,3,,,,54,64
46000,note_off,400,0,5,,,,,,,,3,,,,62,64
46000,note_off,400,0,9,,,,,,,,5,,,,54,64
46080,note_on,80,0,5,,,,,,,,3,,,,64,92
46080,note_on,80,0,9,,,,,,,,5,,,,57,92
46080,note_on,80,0,6,,,,,,,,3,,,,57,92
46080,note_on,80,0,8,,,,,,,,5,,,,64,92
46480,note_off,400,0,8,,,,,,,,5,,,,64,64
46480,note_off,400,0,6,,,,,,,,3,,,,57,64
46480,note_off,400,0,9,,,,,,,,5,,,,57,64
46480,note_off,400,0,5,,,,,,,,3,,,,64,64
46560,note_on,80,0,8,,,,,,,,5,,,,69,92
46560,note_on,80,0,6,,,,,,,,3,,,,64,92
46560,note_on,80,0,9,,,,,,,,5,,,,64,92
46560,note_on,80,0,5,,,,,,,,3,,,,69,92
47400,note_off,840,0,5,,,,,,,,3,,,,69,64
47400,note_off,840,0,6,,,,,,,,3,,,,64,64
47400,note_off,840,0,8,,,,,,,,5,,,,69,64
47400,note_off,840,0,9,,,,,,,,5,,,,64,64
47520,note_on,120,0,6,,,,,,,,3,,,,57,92
47520,note_on,120,0,5,,,,,,,,3,,,,64,92
47520,note_on,120,0,9,,,,,,,,5,,,,57,92
47520,note_on,120,0,8,,,,,,,,5,,,,64,92
47920,note_off,400,0,5,,,,,,,,3,,,,64,64
47920,note_off,400,0,6,,,,,,,,3,,,,57,64
47920,note_off,400,0,9,,,,,,,,5,,,,57,64
47920,note_off,400,0,8,,,,,,,,5,,,,64,64
48000,note_on,80,0,5,,,,,,,,3,,,,66,92
48000,note_on,80,0,8,,,,,,,,5,,,,66,92
48000,note_on,80,0,9,,,,,,,,5,,,,62,92
48000,note_on,80,0,6,,,,,,,,3,,,,62,92
48400,note_off,400,0,8,,,,,,,,5,,,,66,64
48400,note_off,400,0,9,,,,,,,,5,,,,62,64
48400,note_off,400,0,5,,,,,,,,3,,,,66,64
48400,note_off,400,0,6,,,,,,,,3,,,,62,64
48480,note_on,80,0,8,,,,,,,,5,,,,64,92
48480,note_on,80,0,5,,,,,,,,3,,,,64,92
48480,note_on,80,0,9,,,,,,,,5,,,,54,92
48480,note_on,80,0,6,,,,,,,,3,,,,54,92
48720,note_off,240,0,8,,,,,,,,5,,,,64,64
48720,note_on,0,0,8,,,,,,,,5,,,,62,92
48720,note_off,240,0,5,,,,,,,,3,,,,64,64
48720,note_on,0,0,5,,,,,,,,3,,,,62,92
48880,note_off,400,0,9,,,,,,,,5,,,,54,64
48880,note_off,400,0,6,,,,,,,,3,,,,54,64
48955,note_off,235,0,5,,,,,,,,3,,,,62,64
48955,note_off,235,0,8,,,,,,,,5,,,,62,64
48960,note_on,5,0,8,,,,,,,,5,,,,64,92
48960,note_on,80,0,9,,,,,,,,5,,,,57,92
48960,note_on,80,0,6,,,,,,,,3,,,,57,92
48960,note_on,5,0,5,,,,,,,,3,,,,64,92
49360,note_off,400,0,9,,,,,,,,5,,,,57,64
49360,note_off,400,0,6,,,,,,,,3,,,,57,64
49360,note_off,400,0,8,,,,,,,,5,,,,64,64
49360,note_off,400,0,5,,,,,,,,3,,,,64,64
49440,note_on,80,0,6,,,,,,,,3,,,,64,92
49440,note_on,80,0,9,,,,,,,,5,,,,64,92
49440,note_on,80,0,5,,,,,,,,3,,,,69,92
49440,note_on,80,0,8,,,,,,,,5,,,,69,92
49840,note_off,400,0,6,,,,,,,,3,,,,64,64
49840,note_off,400,0,5,,,,,,,,3,,,,69,64
50280,note_off,840,0,9,,,,,,,,5,,,,64,64
50280,note_off,840,0,8,,,,,,,,5,,,,69,64
50400,note_on,560,0,6,,,,,,,,3,,,,78,92
50400,note_on,20760,0,19,,,,,,,,13,,,,73,92
50400,note_on,560,0,5,,,,,,,,3,,,,81,92
50400,note_on,20760,0,2,,,,,,,,1,,,,78,92
50400,note_on,20760,0,15,,,,,,,,8,,,,45,92
50400,note_on,20760,0,17,,,,,,,,11,,,,81,108
50400,note_on,20760,0,16,,,,,,,,10,,,,45,92
50400,note_on,20760,0,18,,,,,,,,12,,,,78,92
50400,note_on,10160,0,12,,,,,,,,7,,,,69,92
50400,note_on,10160,0,3,,,,,,,,2,,,,81,92
50400,note_on,20760,0,1,,,,,,,,0,,,,81,92
50400,note_on,10200,0,13,,,,,,,,7,,,,66,92
50400,note_on,20760,0,7,,,,,,,,4,,,,57,92
50400,note_on,10200,0,11,,,,,,,,6,,,,78,92
50400,note_on,10200,0,4,,,,,,,,2,,,,78,92
50400,note_on,10160,0,10,,,,,,,,6,,,,81,92
50400,note_on,20760,0,20,,,,,,,,14,,,,57,92
50400,note_on,20760,0,21,,,,,,,,15,,,,45,92
50400,note_on,20760,0,14,,,,,,,,7,,,,57,92
50400,note_on,120,0,8,,,,,,,,5,,,,64,92
50400,note_on,120,0,9,,,,,,,,5,,,,57,92
50800,note_off,400,0,18,,,,,,,,12,,,,78,64
50800,note_off,400,0,5,,,,,,,,3,,,,81,64
50800,note_off,400,0,17,,,,,,,,11,,,,81,64
50800,note_off,400,0,10,,,,,,,,6,,,,81,64
50800,note_off,400,0,9,,,,,,,,5,,,,57,64
50800,note_off,400,0,13,,,,,,,,7,,,,66,64
50800,note_off,400,0,19,,,,,,,,13,,,,73,64
50800,note_off,400,0,16,,,,,,,,10,,,,45,64
50800,note_off,400,0,7,,,,,,,,4,,,,57,64
50800,note_off,400,0,21,,,,,,,,15,,,,45,64
50800,note_off,400,0,20,,,,,,,,14,,,,57,64
50800,note_off,400,0,14,,,,,,,,7,,,,57,64
50800,note_off,400,0,1,,,,,,,,0,,,,81,64
50800,note_off,400,0,3,,,,,,,,2,,,,81,64
50800,note_off,400,0,11,,,,,,,,6,,,,78,64
50800,note_off,400,0,2,,,,,,,,1,,,,78,64
50800,note_off,400,0,4,,,,,,,,2,,,,78,64
50800,note_off,400,0,12,,,,,,,,7,,,,69,64
50800,note_off,400,0,8,,,,,,,,5,,,,64,64
50800,note_off,400,0,15,,,,,,,,8,,,,45,64
50800,note_off,400,0,6,,,,,,,,3,,,,78,64
50880,note_on,80,0,5,,,,,,,,3,,,,81,92
50880,note_on,80,0,1,,,,,,,,0,,,,81,92
50880,note_on,80,0,18,,,,,,,,12,,,,78,92
50880,note_on,80,0,15,,,,,,,,8,,,,42,92
50880,note_on,80,0,6,,,,,,,,3,,,,78,92
50880,note_on,80,0,21,,,,,,,,15,,,,42,92
50880,note_on,80,0,12,,,,,,,,7,,,,69,92
50880,note_on,80,0,13,,,,,,,,7,,,,66,92
50880,note_on,80,0,20,,,,,,,,14,,,,54,92
50880,note_on,80,0,8,,,,,,,,5,,,,57,92
50880,note_on,80,0,9,,,,,,,,5,,,,57,92
50880,note_on,80,0,10,,,,,,,,6,,,,81,92
50880,note_on,80,0,7,,,,,,,,4,,,,54,92
50880,note_on,80,0,19,,,,,,,,13,,,,69,92
50880,note_on,80,0,16,,,,,,,,10,,,,45,92
50880,note_on,80,0,17,,,,,,,,11,,,,81,108
50880,note_on,80,0,2,,,,,,,,1,,,,78,92
50880,note_on,80,0,3,,,,,,,,2,,,,81,92
50880,note_on,80,0,11,,,,,,,,6,,,,78,92
50880,note_on,80,0,4,,,,,,,,2,,,,78,92
50880,note_on,80,0,14,,,,,,,,7,,,,54,92
51280,note_off,400,0,14,,,,,,,,7,,,,54,64
51280,note_off,400,0,3,,,,,,,,2,,,,81,64
51280,note_off,400,0,19,,,,,,,,13,,,,69,64
51280,note_off,400,0,1,,,,,,,,0,,,,81,64
51280,note_off,400,0,7,,,,,,,,4,,,,54,64
51280,note_off,400,0,11,,,,,,,,6,,,,78,64
51280,note_off,400,0,4,,,,,,,,2,,,,78,64
51280,note_off,400,0,20,,,,,,,,14,,,,54,64
51280,note_off,400,0,16,,,,,,,,10,,,,45,64
51280,note_off,400,0,15,,,,,,,,8,,,,42,64
51280,note_off,400,0,21,,,,,,,,15,,,,42,64
51280,note_off,400,0,10,,,,,,,,6,,,,81,64
51280,note_off,400,0,5,,,,,,,,3,,,,81,64
51280,note_off,400,0,18,,,,,,,,12,,,,78,64
51280,note_off,400,0,17,,,,,,,,11,,,,81,64
51280,note_off,400,0,6,,,,,,,,3,,,,78,64
51280,note_off,400,0,2,,,,,,,,1,,,,78,64
51280,note_off,400,0,12,,,,,,,,7,,,,69,64
51280,note_off,400,0,13,,,,,,,,7,,,,66,64
51360,note_on,80,0,13,,,,,,,,7,,,,66,92
51360,note_on,80,0,11,,,,,,,,6,,,,78,92
51360,note_on,80,0,1,,,,,,,,0,,,,81,92
51360,note_on,80,0,21,,,,,,,,15,,,,45,92
51360,note_on,80,0,5,,,,,,,,3,,,,81,92
51360,note_on,80,0,3,,,,,,,,2,,,,81,92
51360,note_on,80,0,19,,,,,,,,13,,,,73,92
51360,note_on,80,0,17,,,,,,,,11,,,,81,108
51360,note_on,80,0,14,,,,,,,,7,,,,57,92
51360,note_on,80,0,15,,,,,,,,8,,,,45,92
51360,note_on,80,0,2,,,,,,,,1,,,,78,92
51360,note_on,80,0,10,,,,,,,,6,,,,81,92
51360,note_on,80,0,12,,,,,,,,7,,,,69,92
51360,note_on,80,0,18,,,,,,,,12,,,,78,92
51360,note_on,80,0,7,,,,,,,,4,,,,57,92
51360,note_on,80,0,16,,,,,,,,10,,,,45,92
51360,note_on,80,0,6,,,,,,,,3,,,,78,92
51360,note_on,80,0,4,,,,,,,,2,,,,78,92
51360,note_on,80,0,20,,,,,,,,14,,,,57,92
51720,note_off,840,0,8,,,,,,,,5,,,,57,64
51720,note_off,840,0,9,,,,,,,,5,,,,57,64
51760,note_off,400,0,15,,,,,,,,8,,,,45,64
51760,note_off,400,0,16,,,,,,,,10,,,,45,64
51760,note_off,400,0,20,,,,,,,,14,,,,57,64
51760,note_off,400,0,13,,,,,,,,7,,,,66,64
51760,note_off,400,0,17,,,,,,,,11,,,,81,64
51760,note_off,400,0,14,,,,,,,,7,,,,57,64
51760,note_off,400,0,7,,,,,,,,4,,,,57,64
51760,note_off,400,0,4,,,,,,,,2,,,,78,64
51760,note_off,400,0,5,,,,,,,,3,,,,81,64
51760,note_off,400,0,3,,,,,,,,2,,,,81,64
51760,note_off,400,0,6,,,,,,,,3,,,,78,64
51760,note_off,400,0,18,,,,,,,,12,,,,78,64
51760,note_off,400,0,1,,,,,,,,0,,,,81,64
51760,note_off,400,0,21,,,,,,,,15,,,,45,64
51760,note_off,400,0,2,,,,,,,,1,,,,78,64
51760,note_off,400,0,10,,,,,,,,6,,,,81,64
51760,note_off,400,0,12,,,,,,,,7,,,,69,64
51760,note_off,400,0,11,,,,,,,,6,,,,78,64
51760,note_off,400,0,19,,,,,,,,13,,,,73,64
51840,note_on,80,0,16,,,,,,,,10,,,,50,92
51840,note_on,80,0,11,,,,,,,,6,,,,78,92
51840,note_on,80,0,14,,,,,,,,7,,,,59,92
51840,note_on,80,0,7,,,,,,,,4,,,,59,92
51840,note_on,80,0,3,,,,,,,,2,,,,81,92
51840,note_on,80,0,1,,,,,,,,0,,,,81,92
51840,note_on,80,0,5,,,,,,,,3,,,,81,92
51840,note_on,80,0,17,,,,,,,,11,,,,81,108
51840,note_on,80,0,18,,,,,,,,12,,,,78,92
51840,note_on,80,0,6,,,,,,,,3,,,,78,92
51840,note_on,80,0,12,,,,,,,,7,,,,69,92
51840,note_on,80,0,20,,,,,,,,14,,,,59,92
51840,note_on,80,0,21,,,,,,,,15,,,,47,92
51840,note_on,80,0,2,,,,,,,,1,,,,78,92
51840,note_on,80,0,10,,,,,,,,6,,,,81,92
51840,note_on,80,0,4,,,,,,,,2,,,,78,92
51840,note_on,80,0,15,,,,,,,,8,,,,47,92
51840,note_on,80,0,19,,,,,,,,13,,,,74,92
51840,note_on,80,0,13,,,,,,,,7,,,,66,92
52240,note_off,400,0,12,,,,,,,,7,,,,69,64
52240,note_off,400,0,3,,,,,,,,2,,,,81,64
52240,note_off,400,0,1,,,,,,,,0,,,,81,64
52240,note_off,400,0,17,,,,,,,,11,,,,81,64
52240,note_off,400,0,2,,,,,,,,1,,,,78,64
52240,note_off,400,0,13,,,,,,,,7,,,,66,64
52240,note_off,400,0,10,,,,,,,,6,,,,81,64
52240,note_off,400,0,5,,,,,,,,3,,,,81,64
52240,note_off,400,0,6,,,,,,,,3,,,,78,64
52240,note_off,400,0,4,,,,,,,,2,,,,78,64
52240,note_off,400,0,18,,,,,,,,12,,,,78,64
52240,note_off,400,0,11,,,,,,,,6,,,,78,64
52320,note_on,80,0,12,,,,,,,,7,,,,67,92
52320,note_on,80,0,5,,,,,,,,3,,,,79,92
52320,note_on,80,0,10,,,,,,,,6,,,,79,92
52320,note_on,80,0,6,,,,,,,,3,,,,76,92
52320,note_on,80,0,11,,,,,,,,6,,,,76,92
52320,note_on,80,0,3,,,,,,,,2,,,,79,92
52320,note_on,80,0,13,,,,,,,,7,,,,64,92
52320,note_on,80,0,2,,,,,,,,1,,,,76,92
52320,note_on,80,0,1,,,,,,,,0,,,,79,92
52320,note_on,80,0,18,,,,,,,,12,,,,76,92
52320,note_on,80,0,4,,,,,,,,2,,,,76,92
52320,note_on,80,0,17,,,,,,,,11,,,,79,108
52560,note_off,240,0,18,,,,,,,,12,,,,76,64
52560,note_off,240,0,10,,,,,,,,6,,,,79,64
52560,note_on,0,0,10,,,,,,,,6,,,,78,92
52560,note_on,0,0,17,,,,,,,,11,,,,78,108
52560,note_off,240,0,12,,,,,,,,7,,,,67,64
52560,note_on,0,0,12,,,,,,,,7,,,,66,92
52560,note_on,0,0,3,,,,,,,,2,,,,78,92
52560,note_off,240,0,3,,,,,,,,2,,,,79,64
52560,note_on,0,0,18,,,,,,,,12,,,,74,92
52560,note_off,240,0,17,,,,,,,,11,,,,79,64
52560,note_off,240,0,6,,,,,,,,3,,,,76,64
52560,note_off,240,0,4,,,,,,,,2,,,,76,64
52560,note_on,0,0,4,,,,,,,,2,,,,74,92
52560,note_on,0,0,1,,,,,,,,0,,,,78,92
52560,note_off,240,0,1,,,,,,,,0,,,,79,64
52560,note_off,240,0,2,,,,,,,,1,,,,76,64
52560,note_on,0,0,6,,,,,,,,3,,,,74,92
52560,note_on,0,0,2,,,,,,,,1,,,,74,92
52560,note_off,240,0,11,,,,,,,,6,,,,76,64
52560,note_on,0,0,11,,,,,,,,6,,,,74,92
52560,note_on,0,0,13,,,,,,,,7,,,,62,92
52560,note_off,240,0,5,,,,,,,,3,,,,79,64
52560,note_off,240,0,13,,,,,,,,7,,,,64,64
52560,note_on,0,0,5,,,,,,,,3,,,,78,92
52680,note_off,840,0,14,,,,,,,,7,,,,59,64
52680,note_off,840,0,16,,,,,,,,10,,,,50,64
52680,note_off,840,0,20,,,,,,,,14,,,,59,64
52680,note_off,840,0,7,,,,,,,,4,,,,59,64
52680,note_off,840,0,19,,,,,,,,13,,,,74,64
52680,note_off,840,0,15,,,,,,,,8,,,,47,64
52680,note_off,840,0,21,,,,,,,,15,,,,47,64
52795,note_off,235,0,13,,,,,,,,7,,,,62,64
52795,note_off,235,0,18,,,,,,,,12,,,,74,64
52795,note_off,235,0,12,,,,,,,,7,,,,66,64
52795,note_off,235,0,10,,,,,,,,6,,,,78,64
52795,note_off,235,0,2,,,,,,,,1,,,,74,64
52795,note_off,235,0,11,,,,,,,,6,,,,74,64
52795,note_off,235,0,17,,,,,,,,11,,,,78,64
52800,note_on,5,0,18,,,,,,,,12,,,,76,92
52800,note_on,5,0,10,,,,,,,,6,,,,79,92
52800,note_on,0,0,3,,,,,,,,2,,,,79,92
52800,note_off,240,0,3,,,,,,,,2,,,,78,64
52800,note_on,5,0,13,,,,,,,,7,,,,64,92
52800,note_off,240,0,6,,,,,,,,3,,,,74,64
52800,note_on,5,0,11,,,,,,,,6,,,,76,92
52800,note_off,240,0,1,,,,,,,,0,,,,78,64
52800,note_on,0,0,1,,,,,,,,0,,,,79,92
52800,note_on,0,0,4,,,,,,,,2,,,,76,92
52800,note_off,240,0,4,,,,,,,,2,,,,74,64
52800,note_on,120,0,19,,,,,,,,13,,,,67,92
52800,note_on,0,0,6,,,,,,,,3,,,,76,92
52800,note_on,5,0,17,,,,,,,,11,,,,79,108
52800,note_off,240,0,5,,,,,,,,3,,,,78,64
52800,note_on,5,0,2,,,,,,,,1,,,,76,92
52800,note_on,5,0,12,,,,,,,,7,,,,67,92
52800,note_on,0,0,5,,,,,,,,3,,,,79,92
53200,note_off,400,0,12,,,,,,,,7,,,,67,64
53200,note_off,400,0,2,,,,,,,,1,,,,76,64
53200,note_off,400,0,6,,,,,,,,3,,,,76,64
53200,note_off,400,0,1,,,,,,,,0,,,,79,64
53200,note_off,400,0,10,,,,,,,,6,,,,79,64
53200,note_off,400,0,17,,,,,,,,11,,,,79,64
53200,note_off,400,0,11,,,,,,,,6,,,,76,64
53200,note_off,400,0,3,,,,,,,,2,,,,79,64
53200,note_off,400,0,5,,,,,,,,3,,,,79,64
53200,note_off,400,0,4,,,,,,,,2,,,,76,64
53200,note_off,400,0,18,,,,,,,,12,,,,76,64
53200,note_off,400,0,19,,,,,,,,13,,,,67,64
53200,note_off,400,0,13,,,,,,,,7,,,,64,64
53280,note_on,600,0,14,,,,,,,,7,,,,55,92
53280,note_on,600,0,7,,,,,,,,4,,,,55,92
53280,note_on,80,0,11,,,,,,,,6,,,,76,92
53280,note_on,600,0,15,,,,,,,,8,,,,43,92
53280,note_on,80,0,17,,,,,,,,11,,,,79,108
53280,note_on,80,0,1,,,,,,,,0,,,,79,92
53280,note_on,600,0,16,,,,,,,,10,,,,50,92
53280,note_on,600,0,20,,,,,,,,14,,,,55,92
53280,note_on,80,0,4,,,,,,,,2,,,,76,92
53280,note_on,80,0,19,,,,,,,,13,,,,71,92
53280,note_on,80,0,10,,,,,,,,6,,,,79,92
53280,note_on,600,0,21,,,,,,,,15,,,,43,92
53280,note_on,80,0,2,,,,,,,,1,,,,76,92
53280,note_on,80,0,12,,,,,,,,7,,,,67,92
53280,note_on,80,0,6,,,,,,,,3,,,,76,92
53280,note_on,80,0,18,,,,,,,,12,,,,76,92
53280,note_on,80,0,5,,,,,,,,3,,,,79,92
53280,note_on,80,0,13,,,,,,,,7,,,,64,92
53280,note_on,80,0,3,,,,,,,,2,,,,79,92
53680,note_off,400,0,19,,,,,,,,13,,,,71,64
53680,note_off,400,0,1,,,,,,,,0,,,,79,64
53680,note_off,400,0,18,,,,,,,,12,,,,76,64
53680,note_off,400,0,20,,,,,,,,14,,,,55,64
53680,note_off,400,0,13,,,,,,,,7,,,,64,64
53680,note_off,400,0,16,,,,,,,,10,,,,50,64
53680,note_off,400,0,2,,,,,,,,1,,,,76,64
53680,note_off,400,0,6,,,,,,,,3,,,,76,64
53680,note_off,400,0,4,,,,,,,,2,,,,76,64
53680,note_off,400,0,12,,,,,,,,7,,,,67,64
53680,note_off,400,0,21,,,,,,,,15,,,,43,64
53680,note_off,400,0,14,,,,,,,,7,,,,55,64
53680,note_off,400,0,5,,,,,,,,3,,,,79,64
53680,note_off,400,0,7,,,,,,,,4,,,,55,64
53680,note_off,400,0,3,,,,,,,,2,,,,79,64
53680,note_off,400,0,10,,,,,,,,6,,,,79,64
53680,note_off,400,0,17,,,,,,,,11,,,,79,64
53680,note_off,400,0,15,,,,,,,,8,,,,43,64
53680,note_off,400,0,11,,,,,,,,6,,,,76,64
53760,note_on,80,0,1,,,,,,,,0,,,,79,92
53760,note_on,80,0,15,,,,,,,,8,,,,40,92
53760,note_on,80,0,20,,,,,,,,14,,,,52,92
53760,note_on,80,0,7,,,,,,,,4,,,,52,92
53760,note_on,80,0,16,,,,,,,,10,,,,50,92
53760,note_on,80,0,18,,,,,,,,12,,,,76,92
53760,note_on,80,0,10,,,,,,,,6,,,,79,92
53760,note_on,80,0,3,,,,,,,,2,,,,79,92
53760,note_on,80,0,5,,,,,,,,3,,,,79,92
53760,note_on,80,0,19,,,,,,,,13,,,,67,92
53760,note_on,80,0,2,,,,,,,,1,,,,76,92
53760,note_on,80,0,12,,,,,,,,7,,,,67,92
53760,note_on,80,0,6,,,,,,,,3,,,,76,92
53760,note_on,80,0,21,,,,,,,,15,,,,40,92
53760,note_on,80,0,17,,,,,,,,11,,,,79,108
53760,note_on,80,0,13,,,,,,,,7,,,,64,92
53760,note_on,80,0,11,,,,,,,,6,,,,76,92
53760,note_on,80,0,14,,,,,,,,7,,,,52,92
53760,note_on,80,0,4,,,,,,,,2,,,,76,92
54160,note_off,400,0,1,,,,,,,,0,,,,79,64
54160,note_off,400,0,2,,,,,,,,1,,,,76,64
54160,note_off,400,0,5,,,,,,,,3,,,,79,64
54160,note_off,400,0,20,,,,,,,,14,,,,52,64
54160,note_off,400,0,16,,,,,,,,10,,,,50,64
54160,note_off,400,0,18,,,,,,,,12,,,,76,64
54160,note_off,400,0,19,,,,,,,,13,,,,67,64
54160,note_off,400,0,12,,,,,,,,7,,,,67,64
54160,note_off,400,0,21,,,,,,,,15,,,,40,64
54160,note_off,400,0,6,,,,,,,,3,,,,76,64
54160,note_off,400,0,3,,,,,,,,2,,,,79,64
54160,note_off,400,0,14,,,,,,,,7,,,,52,64
54160,note_off,400,0,7,,,,,,,,4,,,,52,64
54160,note_off,400,0,4,,,,,,,,2,,,,76,64
54160,note_off,400,0,11,,,,,,,,6,,,,76,64
54160,note_off,400,0,15,,,,,,,,8,,,,40,64
54160,note_off,400,0,10,,,,,,,,6,,,,79,64
54160,note_off,400,0,17,,,,,,,,11,,,,79,64
54160,note_off,400,0,13,,,,,,,,7,,,,64,64
54240,note_on,80,0,3,,,,,,,,2,,,,79,92
54240,note_on,80,0,19,,,,,,,,13,,,,71,92
54240,note_on,80,0,16,,,,,,,,10,,,,50,92
54240,note_on,80,0,21,,,,,,,,15,,,,43,92
54240,note_on,80,0,7,,,,,,,,4,,,,55,92
54240,note_on,80,0,15,,,,,,,,8,,,,43,92
54240,note_on,80,0,4,,,,,,,,2,,,,76,92
54240,note_on,80,0,18,,,,,,,,12,,,,76,92
54240,note_on,80,0,1,,,,,,,,0,,,,79,92
54240,note_on,80,0,2,,,,,,,,1,,,,76,92
54240,note_on,80,0,10,,,,,,,,6,,,,79,92
54240,note_on,80,0,13,,,,,,,,7,,,,64,92
54240,note_on,80,0,6,,,,,,,,3,,,,76,92
54240,note_on,80,0,20,,,,,,,,14,,,,55,92
54240,note_on,80,0,12,,,,,,,,7,,,,67,92
54240,note_on,80,0,11,,,,,,,,6,,,,76,92
54240,note_on,80,0,17,,,,,,,,11,,,,79,108
54240,note_on,80,0,14,,,,,,,,7,,,,55,92
54240,note_on,80,0,5,,,,,,,,3,,,,79,92
54640,note_off,400,0,20,,,,,,,,14,,,,55,64
54640,note_off,400,0,19,,,,,,,,13,,,,71,64
54640,note_off,400,0,5,,,,,,,,3,,,,79,64
54640,note_off,400,0,21,,,,,,,,15,,,,43,64
54640,note_off,400,0,7,,,,,,,,4,,,,55,64
54640,note_off,400,0,17,,,,,,,,11,,,,79,64
54640,note_off,400,0,3,,,,,,,,2,,,,79,64
54640,note_off,400,0,4,,,,,,,,2,,,,76,64
54640,note_off,400,0,18,,,,,,,,12,,,,76,64
54640,note_off,400,0,2,,,,,,,,1,,,,76,64
54640,note_off,400,0,12,,,,,,,,7,,,,67,64
54640,note_off,400,0,6,,,,,,,,3,,,,76,64
54640,note_off,400,0,11,,,,,,,,6,,,,76,64
54640,note_off,400,0,1,,,,,,,,0,,,,79,64
54640,note_off,400,0,10,,,,,,,,6,,,,79,64
54640,note_off,400,0,15,,,,,,,,8,,,,43,64
54640,note_off,400,0,13,,,,,,,,7,,,,64,64
54640,note_off,400,0,16,,,,,,,,10,,,,50,64
54640,note_off,400,0,14,,,,,,,,7,,,,55,64
54720,note_on,80,0,7,,,,,,,,4,,,,57,92
54720,note_on,80,0,4,,,,,,,,2,,,,76,92
54720,note_on,80,0,11,,,,,,,,6,,,,76,92
54720,note_on,80,0,16,,,,,,,,10,,,,45,92
54720,note_on,80,0,17,,,,,,,,11,,,,79,108
54720,note_on,80,0,20,,,,,,,,14,,,,57,92
54720,note_on,80,0,6,,,,,,,,3,,,,76,92
54720,note_on,80,0,21,,,,,,,,15,,,,45,92
54720,note_on,80,0,10,,,,,,,,6,,,,79,92
54720,note_on,80,0,14,,,,,,,,7,,,,57,92
54720,note_on,80,0,12,,,,,,,,7,,,,67,92
54720,note_on,80,0,18,,,,,,,,12,,,,76,92
54720,note_on,80,0,13,,,,,,,,7,,,,64,92
54720,note_on,80,0,19,,,,,,,,13,,,,73,92
54720,note_on,80,0,3,,,,,,,,2,,,,79,92
54720,note_on,80,0,15,,,,,,,,8,,,,45,92
54720,note_on,80,0,5,,,,,,,,3,,,,79,92
54720,note_on,80,0,1,,,,,,,,0,,,,79,92
54720,note_on,80,0,2,,,,,,,,1,,,,76,92
55120,note_off,400,0,2,,,,,,,,1,,,,76,64
55120,note_off,400,0,5,,,,,,,,3,,,,79,64
55120,note_off,400,0,18,,,,,,,,12,,,,76,64
55120,note_off,400,0,3,,,,,,,,2,,,,79,64
55120,note_off,400,0,1,,,,,,,,0,,,,79,64
55120,note_off,400,0,17,,,,,,,,11,,,,79,64
55120,note_off,400,0,11,,,,,,,,6,,,,76,64
55120,note_off,400,0,10,,,,,,,,6,,,,79,64
55120,note_off,400,0,6,,,,,,,,3,,,,76,64
55120,note_off,400,0,4,,,,,,,,2,,,,76,64
55120,note_off,400,0,13,,,,,,,,7,,,,64,64
55120,note_off,400,0,12,,,,,,,,7,,,,67,64
55200,note_on,80,0,1,,,,,,,,0,,,,78,92
55200,note_on,80,0,12,,,,,,,,7,,,,66,92
55200,note_on,80,0,2,,,,,,,,1,,,,74,92
55200,note_on,80,0,10,,,,,,,,6,,,,78,92
55200,note_on,80,0,3,,,,,,,,2,,,,78,92
55200,note_on,80,0,5,,,,,,,,3,,,,78,92
55200,note_on,80,0,17,,,,,,,,11,,,,78,108
55200,note_on,80,0,6,,,,,,,,3,,,,74,92
55200,note_on,80,0,11,,,,,,,,6,,,,69,92
55200,note_on,80,0,18,,,,,,,,12,,,,74,92
55200,note_on,80,0,4,,,,,,,,2,,,,74,92
55200,note_on,80,0,13,,,,,,,,7,,,,57,92
55440,note_off,240,0,17,,,,,,,,11,,,,78,64
55440,note_off,240,0,6,,,,,,,,3,,,,74,64
55440,note_on,0,0,6,,,,,,,,3,,,,73,92
55440,note_on,0,0,10,,,,,,,,6,,,,76,92
55440,note_on,0,0,12,,,,,,,,7,,,,64,92
55440,note_off,240,0,12,,,,,,,,7,,,,66,64
55440,note_off,240,0,2,,,,,,,,1,,,,74,64
55440,note_on,0,0,17,,,,,,,,11,,,,76,108
55440,note_off,240,0,3,,,,,,,,2,,,,78,64
55440,note_off,240,0,10,,,,,,,,6,,,,78,64
55440,note_on,0,0,4,,,,,,,,2,,,,73,92
55440,note_off,240,0,4,,,,,,,,2,,,,74,64
55440,note_on,0,0,1,,,,,,,,0,,,,76,92
55440,note_on,0,0,3,,,,,,,,2,,,,76,92
55440,note_off,240,0,1,,,,,,,,0,,,,78,64
55440,note_off,240,0,18,,,,,,,,12,,,,74,64
55440,note_on,0,0,18,,,,,,,,12,,,,73,92
55440,note_on,0,0,5,,,,,,,,3,,,,76,92
55440,note_on,0,0,2,,,,,,,,1,,,,73,92
55440,note_off,240,0,5,,,,,,,,3,,,,78,64
55560,note_off,840,0,14,,,,,,,,7,,,,57,64
55560,note_off,840,0,19,,,,,,,,13,,,,73,64
55560,note_off,840,0,7,,,,,,,,4,,,,57,64
55560,note_off,840,0,21,,,,,,,,15,,,,45,64
55560,note_off,840,0,15,,,,,,,,8,,,,45,64
55560,note_off,840,0,16,,,,,,,,10,,,,45,64
55560,note_off,840,0,20,,,,,,,,14,,,,57,64
55600,note_off,400,0,11,,,,,,,,6,,,,69,64
55600,note_off,400,0,13,,,,,,,,7,,,,57,64
55675,note_off,235,0,18,,,,,,,,12,,,,73,64
55675,note_off,235,0,10,,,,,,,,6,,,,76,64
55675,note_off,235,0,12,,,,,,,,7,,,,64,64
55675,note_off,235,0,17,,,,,,,,11,,,,76,64
55680,note_on,5,0,17,,,,,,,,11,,,,78,108
55680,note_on,5,0,10,,,,,,,,6,,,,78,92
55680,note_off,240,0,5,,,,,,,,3,,,,76,64
55680,note_on,0,0,5,,,,,,,,3,,,,78,92
55680,note_on,120,0,20,,,,,,,,14,,,,50,92
55680,note_off,240,0,1,,,,,,,,0,,,,76,64
55680,note_on,0,0,3,,,,,,,,2,,,,78,92
55680,note_on,0,0,6,,,,,,,,3,,,,74,92
55680,note_off,240,0,2,,,,,,,,1,,,,73,64
55680,note_on,5,0,18,,,,,,,,12,,,,74,92
55680,note_on,80,0,11,,,,,,,,6,,,,74,92
55680,note_on,120,0,7,,,,,,,,4,,,,50,92
55680,note_on,80,0,13,,,,,,,,7,,,,62,92
55680,note_off,240,0,3,,,,,,,,2,,,,76,64
55680,note_off,240,0,4,,,,,,,,2,,,,73,64
55680,note_on,0,0,4,,,,,,,,2,,,,74,92
55680,note_on,120,0,19,,,,,,,,13,,,,69,92
55680,note_on,0,0,1,,,,,,,,0,,,,78,92
55680,note_on,120,0,16,,,,,,,,10,,,,50,92
55680,note_on,120,0,14,,,,,,,,7,,,,50,92
55680,note_on,5,0,12,,,,,,,,7,,,,66,92
55680,note_on,120,0,15,,,,,,,,8,,,,38,92
55680,note_off,240,0,6,,,,,,,,3,,,,73,64
55680,note_on,120,0,21,,,,,,,,15,,,,38,92
55680,note_on,0,0,2,,,,,,,,1,,,,74,92
55915,note_off,235,0,5,,,,,,,,3,,,,78,64
55915,note_off,235,0,6,,,,,,,,3,,,,74,64
56080,note_off,400,0,4,,,,,,,,2,,,,74,64
56080,note_off,400,0,3,,,,,,,,2,,,,78,64
56080,note_off,400,0,1,,,,,,,,0,,,,78,64
56080,note_off,400,0,2,,,,,,,,1,,,,74,64
56160,note_on,245,0,5,,,,,,,,3,,,,69,92
56160,note_on,4440,0,8,,,,,,,,5,,,,69,92
56160,note_on,245,0,6,,,,,,,,3,,,,66,92
56160,note_on,4440,0,9,,,,,,,,5,,,,66,92
56520,note_off,840,0,18,,,,,,,,12,,,,74,64
56520,note_off,840,0,7,,,,,,,,4,,,,50,64
56520,note_off,840,0,11,,,,,,,,6,,,,74,64
56520,note_off,840,0,17,,,,,,,,11,,,,78,64
56520,note_off,840,0,20,,,,,,,,14,,,,50,64
56520,note_off,840,0,21,,,,,,,,15,,,,38,64
56520,note_off,840,0,19,,,,,,,,13,,,,69,64
56520,note_off,840,0,13,,,,,,,,7,,,,62,64
56520,note_off,840,0,16,,,,,,,,10,,,,50,64
56520,note_off,840,0,15,,,,,,,,8,,,,38,64
56520,note_off,840,0,10,,,,,,,,6,,,,78,64
56520,note_off,840,0,12,,,,,,,,7,,,,66,64
56520,note_off,840,0,14,,,,,,,,7,,,,50,64
56560,note_off,400,0,6,,,,,,,,3,,,,66,64
56560,note_off,400,0,5,,,,,,,,3,,,,69,64
56560,note_off,400,0,9,,,,,,,,5,,,,66,64
56560,note_off,400,0,8,,,,,,,,5,,,,69,64
56640,note_on,80,0,5,,,,,,,,3,,,,69,92
56640,note_on,80,0,6,,,,,,,,3,,,,66,92
56640,note_on,80,0,8,,,,,,,,5,,,,69,92
56640,note_on,80,0,9,,,,,,,,5,,,,66,92
57040,note_off,400,0,5,,,,,,,,3,,,,69,64
57040,note_off,400,0,6,,,,,,,,3,,,,66,64
57040,note_off,400,0,8,,,,,,,,5,,,,69,64
57040,note_off,400,0,9,,,,,,,,5,,,,66,64
57120,note_on,80,0,5,,,,,,,,3,,,,69,92
57120,note_on,80,0,6,,,,,,,,3,,,,66,92
57120,note_on,80,0,8,,,,,,,,5,,,,69,92
57120,note_on,80,0,9,,,,,,,,5,,,,66,92
57520,note_off,400,0,5,,,,,,,,3,,,,69,64
57520,note_off,400,0,8,,,,,,,,5,,,,69,64
57520,note_off,400,0,9,,,,,,,,5,,,,66,64
57520,note_off,400,0,6,,,,,,,,3,,,,66,64
57600,note_on,80,0,6,,,,,,,,3,,,,66,92
57600,note_on,80,0,5,,,,,,,,3,,,,69,92
57600,note_on,80,0,8,,,,,,,,5,,,,69,92
57600,note_on,80,0,9,,,,,,,,5,,,,66,92
58000,note_off,400,0,9,,,,,,,,5,,,,66,64
58000,note_off,400,0,6,,,,,,,,3,,,,66,64
58000,note_off,400,0,8,,,,,,,,5,,,,69,64
58000,note_off,400,0,5,,,,,,,,3,,,,69,64
58080,note_on,80,0,9,,,,,,,,5,,,,64,92
58080,note_on,80,0,8,,,,,,,,5,,,,67,92
58080,note_on,80,0,6,,,,,,,,3,,,,64,92
58080,note_on,80,0,5,,,,,,,,3,,,,67,92
58320,note_on,0,0,8,,,,,,,,5,,,,66,92
58320,note_off,240,0,8,,,,,,,,5,,,,67,64
58320,note_off,240,0,9,,,,,,,,5,,,,64,64
58320,note_on,0,0,6,,,,,,,,3,,,,62,92
58320,note_off,240,0,5,,,,,,,,3,,,,67,64
58320,note_on,0,0,5,,,,,,,,3,,,,66,92
58320,note_on,0,0,9,,,,,,,,5,,,,62,92
58320,note_off,240,0,6,,,,,,,,3,,,,64,64
58555,note_off,235,0,6,,,,,,,,3,,,,62,64
58555,note_off,235,0,5,,,,,,,,3,,,,66,64
58555,note_off,235,0,8,,,,,,,,5,,,,66,64
58555,note_off,235,0,9,,,,,,,,5,,,,62,64
58560,note_on,5,0,6,,,,,,,,3,,,,64,92
58560,note_on,5,0,5,,,,,,,,3,,,,67,92
58560,note_on,5,0,8,,,,,,,,5,,,,67,92
58560,note_on,5,0,9,,,,,,,,5,,,,64,92
58960,note_off,400,0,5,,,,,,,,3,,,,67,64
58960,note_off,400,0,8,,,,,,,,5,,,,67,64
58960,note_off,400,0,6,,,,,,,,3,,,,64,64
58960,note_off,400,0,9,,,,,,,,5,,,,64,64
59040,note_on,80,0,5,,,,,,,,3,,,,67,92
59040,note_on,80,0,9,,,,,,,,5,,,,64,92
59040,note_on,80,0,6,,,,,,,,3,,,,64,92
59040,note_on,80,0,8,,,,,,,,5,,,,67,92
59440,note_off,400,0,9,,,,,,,,5,,,,64,64
59440,note_off,400,0,8,,,,,,,,5,,,,67,64
59440,note_off,400,0,5,,,,,,,,3,,,,67,64
59440,note_off,400,0,6,,,,,,,,3,,,,64,64
59520,note_on,80,0,9,,,,,,,,5,,,,64,92
59520,note_on,80,0,8,,,,,,,,5,,,,67,92
59520,note_on,80,0,5,,,,,,,,3,,,,67,92
59520,note_on,80,0,6,,,,,,,,3,,,,64,92
59920,note_off,400,0,8,,,,,,,,5,,,,67,64
59920,note_off,400,0,5,,,,,,,,3,,,,67,64
59920,note_off,400,0,9,,,,,,,,5,,,,64,64
59920,note_off,400,0,6,,,,,,,,3,,,,64,64
60000,note_on,80,0,5,,,,,,,,3,,,,67,92
60000,note_on,80,0,9,,,,,,,,5,,,,64,92
60000,note_on,80,0,6,,,,,,,,3,,,,64,92
60000,note_on,80,0,8,,,,,,,,5,,,,67,92
60400,note_off,400,0,8,,,,,,,,5,,,,67,64
60400,note_off,400,0,5,,,,,,,,3,,,,67,64
60400,note_off,400,0,9,,,,,,,,5,,,,64,64
60400,note_off,400,0,6,,,,,,,,3,,,,64,64
60480,note_on,80,0,9,,,,,,,,5,,,,64,92
60480,note_on,80,0,8,,,,,,,,5,,,,67,92
60480,note_on,80,0,5,,,,,,,,3,,,,67,92
60480,note_on,80,0,6,,,,,,,,3,,,,64,92
60880,note_off,400,0,9,,,,,,,,5,,,,64,64
60880,note_off,400,0,6,,,,,,,,3,,,,64,64
60880,note_off,400,0,5,,,,,,,,3,,,,67,64
60880,note_off,400,0,8,,,,,,,,5,,,,67,64
60960,note_on,80,0,9,,,,,,,,5,,,,57,92
60960,note_on,80,0,6,,,,,,,,3,,,,57,92
60960,note_on,80,0,8,,,,,,,,5,,,,66,92
60960,note_on,80,0,5,,,,,,,,3,,,,66,92
61200,note_on,0,0,8,,,,,,,,5,,,,64,92
61200,note_off,240,0,8,,,,,,,,5,,,,66,64
61200,note_on,0,0,5,,,,,,,,3,,,,64,92
61200,note_off,240,0,5,,,,,,,,3,,,,66,64
61360,note_off,400,0,6,,,,,,,,3,,,,57,64
61360,note_off,400,0,9,,,,,,,,5,,,,57,64
61435,note_off,235,0,8,,,,,,,,5,,,,64,64
61435,note_off,235,0,5,,,,,,,,3,,,,64,64
61440,note_on,5,0,8,,,,,,,,5,,,,66,92
61440,note_on,80,0,6,,,,,,,,3,,,,62,92
61440,note_on,5,0,5,,,,,,,,3,,,,66,92
61440,note_on,80,0,9,,,,,,,,5,,,,62,92
61675,note_off,235,0,5,,,,,,,,3,,,,66,64
61675,note_off,235,0,6,,,,,,,,3,,,,62,64
61920,note_on,5400,0,19,,,,,,,,13,,,,69,92
61920,note_on,5840,0,2,,,,,,,,1,,,,78,92
61920,note_on,5400,0,13,,,,,,,,7,,,,57,92
61920,note_on,5400,0,21,,,,,,,,15,,,,38,92
61920,note_on,5400,0,18,,,,,,,,12,,,,74,92
61920,note_on,5400,0,15,,,,,,,,8,,,,38,92
61920,note_on,5840,0,1,,,,,,,,0,,,,86,92
61920,note_on,5400,0,12,,,,,,,,7,,,,62,92
61920,note_on,5840,0,4,,,,,,,,2,,,,78,92
61920,note_on,5400,0,20,,,,,,,,14,,,,50,92
61920,note_on,5400,0,14,,,,,,,,7,,,,50,92
61920,note_on,245,0,6,,,,,,,,3,,,,66,92
61920,note_on,245,0,5,,,,,,,,3,,,,74,92
61920,note_on,5400,0,16,,,,,,,,10,,,,50,92
61920,note_on,5400,0,17,,,,,,,,11,,,,86,108
61920,note_on,5840,0,3,,,,,,,,2,,,,74,92
61920,note_on,5400,0,7,,,,,,,,4,,,,50,92
62280,note_off,840,0,9,,,,,,,,5,,,,62,64
62280,note_off,840,0,8,,,,,,,,5,,,,66,64
62320,note_off,400,0,15,,,,,,,,8,,,,38,64
62320,note_off,400,0,14,,,,,,,,7,,,,50,64
62320,note_off,400,0,13,,,,,,,,7,,,,57,64
62320,note_off,400,0,7,,,,,,,,4,,,,50,64
62320,note_off,400,0,2,,,,,,,,1,,,,78,64
62320,note_off,400,0,17,,,,,,,,11,,,,86,64
62320,note_off,400,0,19,,,,,,,,13,,,,69,64
62320,note_off,400,0,21,,,,,,,,15,,,,38,64
62320,note_off,400,0,18,,,,,,,,12,,,,74,64
62320,note_off,400,0,5,,,,,,,,3,,,,74,64
62320,note_off,400,0,6,,,,,,,,3,,,,66,64
62320,note_off,400,0,12,,,,,,,,7,,,,62,64
62320,note_off,400,0,1,,,,,,,,0,,,,86,64
62320,note_off,400,0,16,,,,,,,,10,,,,50,64
62320,note_off,400,0,3,,,,,,,,2,,,,74,64
62320,note_off,400,0,4,,,,,,,,2,,,,78,64
62320,note_off,400,0,20,,,,,,,,14,,,,50,64
62400,note_on,80,0,20,,,,,,,,14,,,,47,92
62400,note_on,80,0,15,,,,,,,,8,,,,35,92
62400,note_on,80,0,2,,,,,,,,1,,,,78,92
62400,note_on,80,0,3,,,,,,,,2,,,,74,92
62400,note_on,80,0,13,,,,,,,,7,,,,59,92
62400,note_on,80,0,18,,,,,,,,12,,,,74,92
62400,note_on,80,0,16,,,,,,,,10,,,,50,92
62400,note_on,80,0,7,,,,,,,,4,,,,47,92
62400,note_on,80,0,4,,,,,,,,2,,,,78,92
62400,note_on,80,0,5,,,,,,,,3,,,,74,92
62400,note_on,80,0,1,,,,,,,,0,,,,86,92
62400,note_on,80,0,17,,,,,,,,11,,,,86,108
62400,note_on,80,0,12,,,,,,,,7,,,,62,92
62400,note_on,80,0,21,,,,,,,,15,,,,35,92
62400,note_on,80,0,19,,,,,,,,13,,,,71,92
62400,note_on,80,0,6,,,,,,,,3,,,,66,92
62400,note_on,80,0,14,,,,,,,,7,,,,47,92
62800,note_off,400,0,18,,,,,,,,12,,,,74,64
62800,note_off,400,0,19,,,,,,,,13,,,,71,64
62800,note_off,400,0,15,,,,,,,,8,,,,35,64
62800,note_off,400,0,17,,,,,,,,11,,,,86,64
62800,note_off,400,0,2,,,,,,,,1,,,,78,64
62800,note_off,400,0,13,,,,,,,,7,,,,59,64
62800,note_off,400,0,6,,,,,,,,3,,,,66,64
62800,note_off,400,0,20,,,,,,,,14,,,,47,64
62800,note_off,400,0,12,,,,,,,,7,,,,62,64
62800,note_off,400,0,3,,,,,,,,2,,,,74,64
62800,note_off,400,0,16,,,,,,,,10,,,,50,64
62800,note_off,400,0,5,,,,,,,,3,,,,74,64
62800,note_off,400,0,21,,,,,,,,15,,,,35,64
62800,note_off,400,0,7,,,,,,,,4,,,,47,64
62800,note_off,400,0,4,,,,,,,,2,,,,78,64
62800,note_off,400,0,14,,,,,,,,7,,,,47,64
62800,note_off,400,0,1,,,,,,,,0,,,,86,64
62880,note_on,80,0,2,,,,,,,,1,,,,78,92
62880,note_on,80,0,6,,,,,,,,3,,,,66,92
62880,note_on,80,0,20,,,,,,,,14,,,,50,92
62880,note_on,80,0,3,,,,,,,,2,,,,74,92
62880,note_on,80,0,15,,,,,,,,8,,,,38,92
62880,note_on,80,0,7,,,,,,,,4,,,,50,92
62880,note_on,80,0,19,,,,,,,,13,,,,71,92
62880,note_on,80,0,5,,,,,,,,3,,,,74,92
62880,note_on,80,0,1,,,,,,,,0,,,,86,92
62880,note_on,80,0,14,,,,,,,,7,,,,50,92
62880,note_on,80,0,12,,,,,,,,7,,,,62,92
62880,note_on,80,0,21,,,,,,,,15,,,,38,92
62880,note_on,80,0,18,,,,,,,,12,,,,74,92
62880,note_on,80,0,17,,,,,,,,11,,,,86,108
62880,note_on,80,0,13,,,,,,,,7,,,,59,92
62880,note_on,80,0,4,,,,,,,,2,,,,78,92
62880,note_on,80,0,16,,,,,,,,10,,,,50,92
63280,note_off,400,0,7,,,,,,,,4,,,,50,64
63280,note_off,400,0,6,,,,,,,,3,,,,66,64
63280,note_off,400,0,4,,,,,,,,2,,,,78,64
63280,note_off,400,0,3,,,,,,,,2,,,,74,64
63280,note_off,400,0,18,,,,,,,,12,,,,74,64
63280,note_off,400,0,5,,,,,,,,3,,,,74,64
63280,note_off,400,0,15,,,,,,,,8,,,,38,64
63280,note_off,400,0,14,,,,,,,,7,,,,50,64
63280,note_off,400,0,20,,,,,,,,14,,,,50,64
63280,note_off,400,0,13,,,,,,,,7,,,,59,64
63280,note_off,400,0,2,,,,,,,,1,,,,78,64
63280,note_off,400,0,17,,,,,,,,11,,,,86,64
63280,note_off,400,0,21,,,,,,,,15,,,,38,64
63280,note_off,400,0,12,,,,,,,,7,,,,62,64
63280,note_off,400,0,1,,,,,,,,0,,,,86,64
63280,note_off,400,0,16,,,,,,,,10,,,,50,64
63280,note_off,400,0,19,,,,,,,,13,,,,71,64
63360,note_on,80,0,16,,,,,,,,10,,,,45,92
63360,note_on,80,0,18,,,,,,,,12,,,,74,92
63360,note_on,80,0,20,,,,,,,,14,,,,52,92
63360,note_on,80,0,12,,,,,,,,7,,,,62,92
63360,note_on,80,0,6,,,,,,,,3,,,,68,92
63360,note_on,80,0,19,,,,,,,,13,,,,71,92
63360,note_on,80,0,1,,,,,,,,0,,,,86,92
63360,note_on,80,0,3,,,,,,,,2,,,,74,92
63360,note_on,80,0,21,,,,,,,,15,,,,40,92
63360,note_on,80,0,13,,,,,,,,7,,,,59,92
63360,note_on,80,0,2,,,,,,,,1,,,,80,92
63360,note_on,80,0,15,,,,,,,,8,,,,40,92
63360,note_on,80,0,17,,,,,,,,11,,,,86,108
63360,note_on,80,0,7,,,,,,,,4,,,,52,92
63360,note_on,80,0,4,,,,,,,,2,,,,80,92
63360,note_on,80,0,14,,,,,,,,7,,,,52,92
63360,note_on,80,0,5,,,,,,,,3,,,,74,92
63760,note_off,400,0,17,,,,,,,,11,,,,86,64
63760,note_off,400,0,5,,,,,,,,3,,,,74,64
63760,note_off,400,0,3,,,,,,,,2,,,,74,64
63760,note_off,400,0,18,,,,,,,,12,,,,74,64
63760,note_off,400,0,1,,,,,,,,0,,,,86,64
63760,note_off,400,0,12,,,,,,,,7,,,,62,64
63840,note_on,80,0,12,,,,,,,,7,,,,61,92
63840,note_on,80,0,5,,,,,,,,3,,,,73,92
63840,note_on,80,0,3,,,,,,,,2,,,,73,92
63840,note_on,80,0,1,,,,,,,,0,,,,85,92
63840,note_on,80,0,18,,,,,,,,12,,,,73,92
63840,note_on,80,0,17,,,,,,,,11,,,,85,108
64080,note_off,240,0,5,,,,,,,,3,,,,73,64
64080,note_on,0,0,5,,,,,,,,3,,,,71,92
64080,note_off,240,0,12,,,,,,,,7,,,,61,64
64080,note_on,0,0,12,,,,,,,,7,,,,59,92
64080,note_off,240,0,3,,,,,,,,2,,,,73,64
64080,note_off,240,0,17,,,,,,,,11,,,,85,64
64080,note_on,0,0,17,,,,,,,,11,,,,83,108
64080,note_off,240,0,18,,,,,,,,12,,,,73,64
64080,note_on,0,0,3,,,,,,,,2,,,,71,92
64080,note_off,240,0,1,,,,,,,,0,,,,85,64
64080,note_on,0,0,1,,,,,,,,0,,,,83,92
64080,note_on,0,0,18,,,,,,,,12,,,,71,92
64200,note_off,840,0,15,,,,,,,,8,,,,40,64
64200,note_off,840,0,14,,,,,,,,7,,,,52,64
64200,note_off,840,0,2,,,,,,,,1,,,,80,64
64200,note_off,840,0,19,,,,,,,,13,,,,71,64
64200,note_off,840,0,20,,,,,,,,14,,,,52,64
64200,note_off,840,0,6,,,,,,,,3,,,,68,64
64200,note_off,840,0,16,,,,,,,,10,,,,45,64
64200,note_off,840,0,7,,,,,,,,4,,,,52,64
64200,note_off,840,0,21,,,,,,,,15,,,,40,64
64200,note_off,840,0,13,,,,,,,,7,,,,59,64
64200,note_off,840,0,4,,,,,,,,2,,,,80,64
64315,note_off,235,0,3,,,,,,,,2,,,,71,64
64315,note_off,235,0,5,,,,,,,,3,,,,71,64
64315,note_off,235,0,12,,,,,,,,7,,,,59,64
64315,note_off,235,0,1,,,,,,,,0,,,,83,64
64315,note_off,235,0,17,,,,,,,,11,,,,83,64
64315,note_off,235,0,18,,,,,,,,12,,,,71,64
64320,note_on,5,0,18,,,,,,,,12,,,,73,92
64320,note_on,5,0,17,,,,,,,,11,,,,85,108
64320,note_on,5,0,1,,,,,,,,0,,,,85,92
64320,note_on,5,0,3,,,,,,,,2,,,,73,92
64320,note_on,5,0,5,,,,,,,,3,,,,73,92
64320,note_on,5,0,12,,,,,,,,7,,,,61,92
64720,note_off,400,0,5,,,,,,,,3,,,,73,64
64720,note_off,400,0,18,,,,,,,,12,,,,73,64
64720,note_off,400,0,12,,,,,,,,7,,,,61,64
64720,note_off,400,0,1,,,,,,,,0,,,,85,64
64720,note_off,400,0,3,,,,,,,,2,,,,73,64
64720,note_off,400,0,17,,,,,,,,11,,,,85,64
64800,note_on,600,0,16,,,,,,,,10,,,,45,92
64800,note_on,600,0,6,,,,,,,,3,,,,64,92
64800,note_on,80,0,5,,,,,,,,3,,,,73,92
64800,note_on,600,0,14,,,,,,,,7,,,,49,92
64800,note_on,80,0,17,,,,,,,,11,,,,85,108
64800,note_on,600,0,15,,,,,,,,8,,,,37,92
64800,note_on,600,0,19,,,,,,,,13,,,,69,92
64800,note_on,600,0,21,,,,,,,,15,,,,37,92
64800,note_on,80,0,12,,,,,,,,7,,,,61,92
64800,note_on,80,0,3,,,,,,,,2,,,,73,92
64800,note_on,600,0,20,,,,,,,,14,,,,49,92
64800,note_on,600,0,7,,,,,,,,4,,,,49,92
64800,note_on,600,0,2,,,,,,,,1,,,,76,92
64800,note_on,600,0,4,,,,,,,,2,,,,76,92
64800,note_on,80,0,1,,,,,,,,0,,,,85,92
64800,note_on,80,0,18,,,,,,,,12,,,,73,92
64800,note_on,600,0,13,,,,,,,,7,,,,57,92
65200,note_off,400,0,5,,,,,,,,3,,,,73,64
65200,note_off,400,0,7,,,,,,,,4,,,,49,64
65200,note_off,400,0,16,,,,,,,,10,,,,45,64
65200,note_off,400,0,18,,,,,,,,12,,,,73,64
65200,note_off,400,0,17,,,,,,,,11,,,,85,64
65200,note_off,400,0,19,,,,,,,,13,,,,69,64
65200,note_off,400,0,1,,,,,,,,0,,,,85,64
65200,note_off,400,0,12,,,,,,,,7,,,,61,64
65200,note_off,400,0,6,,,,,,,,3,,,,64,64
65200,note_off,400,0,20,,,,,,,,14,,,,49,64
65200,note_off,400,0,2,,,,,,,,1,,,,76,64
65200,note_off,400,0,3,,,,,,,,2,,,,73,64
65200,note_off,400,0,13,,,,,,,,7,,,,57,64
65200,note_off,400,0,14,,,,,,,,7,,,,49,64
65200,note_off,400,0,21,,,,,,,,15,,,,37,64
65200,note_off,400,0,15,,,,,,,,8,,,,37,64
65200,note_off,400,0,4,,,,,,,,2,,,,76,64
65280,note_on,80,0,13,,,,,,,,7,,,,57,92
65280,note_on,80,0,2,,,,,,,,1,,,,81,92
65280,note_on,80,0,12,,,,,,,,7,,,,61,92
65280,note_on,80,0,20,,,,,,,,14,,,,45,92
65280,note_on,80,0,18,,,,,,,,12,,,,73,92
65280,note_on,80,0,6,,,,,,,,3,,,,69,92
65280,note_on,80,0,4,,,,,,,,2,,,,81,92
65280,note_on,80,0,19,,,,,,,,13,,,,69,92
65280,note_on,80,0,1,,,,,,,,0,,,,85,92
65280,note_on,80,0,15,,,,,,,,8,,,,33,92
65280,note_on,80,0,7,,,,,,,,4,,,,45,92
65280,note_on,80,0,14,,,,,,,,7,,,,45,92
65280,note_on,80,0,5,,,,,,,,3,,,,73,92
65280,note_on,80,0,17,,,,,,,,11,,,,85,108
65280,note_on,80,0,21,,,,,,,,15,,,,33,92
65280,note_on,80,0,16,,,,,,,,10,,,,45,92
65280,note_on,80,0,3,,,,,,,,2,,,,73,92
65680,note_off,400,0,4,,,,,,,,2,,,,81,64
65680,note_off,400,0,7,,,,,,,,4,,,,45,64
65680,note_off,400,0,17,,,,,,,,11,,,,85,64
65680,note_off,400,0,20,,,,,,,,14,,,,45,64
65680,note_off,400,0,13,,,,,,,,7,,,,57,64
65680,note_off,400,0,2,,,,,,,,1,,,,81,64
65680,note_off,400,0,3,,,,,,,,2,,,,73,64
65680,note_off,400,0,1,,,,,,,,0,,,,85,64
65680,note_off,400,0,12,,,,,,,,7,,,,61,64
65680,note_off,400,0,18,,,,,,,,12,,,,73,64
65680,note_off,400,0,16,,,,,,,,10,,,,45,64
65680,note_off,400,0,6,,,,,,,,3,,,,69,64
65680,note_off,400,0,19,,,,,,,,13,,,,69,64
65680,note_off,400,0,21,,,,,,,,15,,,,33,64
65680,note_off,400,0,14,,,,,,,,7,,,,45,64
65680,note_off,400,0,15,,,,,,,,8,,,,33,64
65680,note_off,400,0,5,,,,,,,,3,,,,73,64
65760,note_on,80,0,18,,,,,,,,12,,,,73,92
65760,note_on,80,0,17,,,,,,,,11,,,,85,108
65760,note_on,80,0,15,,,,,,,,8,,,,37,92
65760,note_on,80,0,6,,,,,,,,3,,,,64,92
65760,note_on,80,0,3,,,,,,,,2,,,,73,92
65760,note_on,80,0,20,,,,,,,,14,,,,49,92
65760,note_on,80,0,13,,,,,,,,7,,,,57,92
65760,note_on,80,0,4,,,,,,,,2,,,,76,92
65760,note_on,80,0,21,,,,,,,,15,,,,37,92
65760,note_on,80,0,1,,,,,,,,0,,,,85,92
65760,note_on,80,0,2,,,,,,,,1,,,,76,92
65760,note_on,80,0,12,,,,,,,,7,,,,61,92
65760,note_on,80,0,16,,,,,,,,10,,,,45,92
65760,note_on,80,0,5,,,,,,,,3,,,,73,92
65760,note_on,80,0,7,,,,,,,,4,,,,49,92
65760,note_on,80,0,19,,,,,,,,13,,,,69,92
65760,note_on,80,0,14,,,,,,,,7,,,,49,92
66160,note_off,400,0,17,,,,,,,,11,,,,85,64
66160,note_off,400,0,7,,,,,,,,4,,,,49,64
66160,note_off,400,0,1,,,,,,,,0,,,,85,64
66160,note_off,400,0,6,,,,,,,,3,,,,64,64
66160,note_off,400,0,15,,,,,,,,8,,,,37,64
66160,note_off,400,0,19,,,,,,,,13,,,,69,64
66160,note_off,400,0,5,,,,,,,,3,,,,73,64
66160,note_off,400,0,16,,,,,,,,10,,,,45,64
66160,note_off,400,0,2,,,,,,,,1,,,,76,64
66160,note_off,400,0,3,,,,,,,,2,,,,73,64
66160,note_off,400,0,21,,,,,,,,15,,,,37,64
66160,note_off,400,0,20,,,,,,,,14,,,,49,64
66160,note_off,400,0,14,,,,,,,,7,,,,49,64
66160,note_off,400,0,12,,,,,,,,7,,,,61,64
66160,note_off,400,0,13,,,,,,,,7,,,,57,64
66160,note_off,400,0,18,,,,,,,,12,,,,73,64
66160,note_off,400,0,4,,,,,,,,2,,,,76,64
66240,note_on,80,0,4,,,,,,,,2,,,,78,92
66240,note_on,80,0,14,,,,,,,,7,,,,50,92
66240,note_on,80,0,19,,,,,,,,13,,,,69,92
66240,note_on,80,0,15,,,,,,,,8,,,,38,92
66240,note_on,80,0,12,,,,,,,,7,,,,61,92
66240,note_on,80,0,5,,,,,,,,3,,,,73,92
66240,note_on,80,0,18,,,,,,,,12,,,,73,92
66240,note_on,80,0,16,,,,,,,,10,,,,50,92
66240,note_on,80,0,2,,,,,,,,1,,,,78,92
66240,note_on,80,0,17,,,,,,,,11,,,,85,108
66240,note_on,80,0,7,,,,,,,,4,,,,50,92
66240,note_on,80,0,20,,,,,,,,14,,,,50,92
66240,note_on,80,0,3,,,,,,,,2,,,,73,92
66240,note_on,80,0,6,,,,,,,,3,,,,66,92
66240,note_on,80,0,13,,,,,,,,7,,,,57,92
66240,note_on,80,0,1,,,,,,,,0,,,,85,92
66240,note_on,80,0,21,,,,,,,,15,,,,38,92
66640,note_off,400,0,5,,,,,,,,3,,,,73,64
66640,note_off,400,0,3,,,,,,,,2,,,,73,64
66640,note_off,400,0,17,,,,,,,,11,,,,85,64
66640,note_off,400,0,12,,,,,,,,7,,,,61,64
66640,note_off,400,0,1,,,,,,,,0,,,,85,64
66640,note_off,400,0,18,,,,,,,,12,,,,73,64
66720,note_on,80,0,17,,,,,,,,11,,,,83,108
66720,note_on,80,0,3,,,,,,,,2,,,,71,92
66720,note_on,80,0,1,,,,,,,,0,,,,83,92
66720,note_on,80,0,18,,,,,,,,12,,,,71,92
66720,note_on,80,0,5,,,,,,,,3,,,,71,92
66720,note_on,80,0,12,,,,,,,,7,,,,59,92
66960,note_on,0,0,17,,,,,,,,11,,,,81,108
66960,note_off,240,0,17,,,,,,,,11,,,,83,64
66960,note_off,240,0,12,,,,,,,,7,,,,59,64
66960,note_off,240,0,5,,,,,,,,3,,,,71,64
66960,note_on,0,0,12,,,,,,,,7,,,,57,92
66960,note_on,0,0,18,,,,,,,,12,,,,69,92
66960,note_on,0,0,5,,,,,,,,3,,,,69,92
66960,note_on,0,0,1,,,,,,,,0,,,,81,92
66960,note_off,240,0,3,,,,,,,,2,,,,71,64
66960,note_on,0,0,3,,,,,,,,2,,,,69,92
66960,note_off,240,0,1,,,,,,,,0,,,,83,64
66960,note_off,240,0,18,,,,,,,,12,,,,71,64
67080,note_off,840,0,20,,,,,,,,14,,,,50,64
67080,note_off,840,0,6,,,,,,,,3,,,,66,64
67080,note_off,840,0,2,,,,,,,,1,,,,78,64
67080,note_off,840,0,16,,,,,,,,10,,,,50,64
67080,note_off,840,0,4,,,,,,,,2,,,,78,64
67080,note_off,840,0,19,,,,,,,,13,,,,69,64
67080,note_off,840,0,15,,,,,,,,8,,,,38,64
67080,note_off,840,0,7,,,,,,,,4,,,,50,64
67080,note_off,840,0,13,,,,,,,,7,,,,57,64
67080,note_off,840,0,21,,,,,,,,15,,,,38,64
67080,note_off,840,0,14,,,,,,,,7,,,,50,64
67195,note_off,235,0,1,,,,,,,,0,,,,81,64
67195,note_off,235,0,17,,,,,,,,11,,,,81,64
67195,note_off,235,0,5,,,,,,,,3,,,,69,64
67195,note_off,235,0,18,,,,,,,,12,,,,69,64
67195,note_off,235,0,12,,,,,,,,7,,,,57,64
67195,note_off,235,0,3,,,,,,,,2,,,,69,64
67200,note_on,5,0,17,,,,,,,,11,,,,83,108
67200,note_on,120,0,19,,,,,,,,13,,,,62,92
67200,note_on,5,0,3,,,,,,,,2,,,,71,92
67200,note_on,5,0,1,,,,,,,,0,,,,83,92
67200,note_on,5,0,5,,,,,,,,3,,,,71,92
67200,note_on,5,0,18,,,,,,,,12,,,,71,92
67200,note_on,5,0,12,,,,,,,,7,,,,59,92
67435,note_off,235,0,3,,,,,,,,2,,,,71,64
67435,note_off,235,0,1,,,,,,,,0,,,,83,64
67435,note_off,235,0,18,,,,,,,,12,,,,71,64
67435,note_off,235,0,5,,,,,,,,3,,,,71,64
67435,note_off,235,0,17,,,,,,,,11,,,,83,64
67440,note_on,5,0,5,,,,,,,,3,,,,74,92
67440,note_on,5,0,17,,,,,,,,11,,,,86,108
67440,note_on,5,0,18,,,,,,,,12,,,,74,92
67440,note_on,5,0,1,,,,,,,,0,,,,86,92
67440,note_on,5,0,3,,,,,,,,2,,,,74,92
67600,note_off,400,0,12,,,,,,,,7,,,,59,64
67675,note_off,235,0,5,,,,,,,,3,,,,74,64
67675,note_off,235,0,17,,,,,,,,11,,,,86,64
67675,note_off,235,0,3,,,,,,,,2,,,,74,64
67675,note_off,235,0,18,,,,,,,,12,,,,74,64
67675,note_off,235,0,1,,,,,,,,0,,,,86,64
67680,note_on,5,0,3,,,,,,,,2,,,,73,92
67680,note_on,600,0,20,,,,,,,,14,,,,50,92
67680,note_on,5,0,1,,,,,,,,0,,,,85,92
67680,note_on,600,0,14,,,,,,,,7,,,,50,92
67680,note_on,5,0,5,,,,,,,,3,,,,73,92
67680,note_on,600,0,7,,,,,,,,4,,,,50,92
67680,note_on,600,0,4,,,,,,,,2,,,,78,92
67680,note_on,600,0,21,,,,,,,,15,,,,38,92
67680,note_on,600,0,15,,,,,,,,8,,,,38,92
67680,note_on,600,0,13,,,,,,,,7,,,,59,92
67680,note_on,600,0,6,,,,,,,,3,,,,66,92
67680,note_on,600,0,2,,,,,,,,1,,,,78,92
67680,note_on,600,0,16,,,,,,,,10,,,,50,92
67680,note_on,80,0,12,,,,,,,,7,,,,62,92
67680,note_on,5,0,18,,,,,,,,12,,,,73,92
67680,note_on,5,0,17,,,,,,,,11,,,,85,108
67915,note_off,235,0,5,,,,,,,,3,,,,73,64
67915,note_off,235,0,17,,,,,,,,11,,,,85,64
67915,note_off,235,0,3,,,,,,,,2,,,,73,64
67915,note_off,235,0,18,,,,,,,,12,,,,73,64
67915,note_off,235,0,1,,,,,,,,0,,,,85,64
67920,note_on,5,0,5,,,,,,,,3,,,,74,92
67920,note_on,5,0,1,,,,,,,,0,,,,86,92
67920,note_on,5,0,18,,,,,,,,12,,,,74,92
67920,note_on,5,0,3,,,,,,,,2,,,,74,92
67920,note_on,5,0,17,,,,,,,,11,,,,86,108
68040,note_off,840,0,19,,,,,,,,13,,,,62,64
68080,note_off,400,0,4,,,,,,,,2,,,,78,64
68080,note_off,400,0,6,,,,,,,,3,,,,66,64
68080,note_off,400,0,2,,,,,,,,1,,,,78,64
68080,note_off,400,0,20,,,,,,,,14,,,,50,64
68080,note_off,400,0,21,,,,,,,,15,,,,38,64
68080,note_off,400,0,13,,,,,,,,7,,,,59,64
68080,note_off,400,0,12,,,,,,,,7,,,,62,64
68080,note_off,400,0,15,,,,,,,,8,,,,38,64
68080,note_off,400,0,16,,,,,,,,10,,,,50,64
68080,note_off,400,0,14,,,,,,,,7,,,,50,64
68080,note_off,400,0,7,,,,,,,,4,,,,50,64
68155,note_off,235,0,18,,,,,,,,12,,,,74,64
68155,note_off,235,0,3,,,,,,,,2,,,,74,64
68155,note_off,235,0,5,,,,,,,,3,,,,74,64
68155,note_off,235,0,1,,,,,,,,0,,,,86,64
68155,note_off,235,0,17,,,,,,,,11,,,,86,64
68160,note_on,120,0,19,,,,,,,,13,,,,66,92
68160,note_on,5,0,5,,,,,,,,3,,,,71,92
68160,note_on,5,0,3,,,,,,,,2,,,,71,92
68160,note_on,5,0,1,,,,,,,,0,,,,83,92
68160,note_on,80,0,2,,,,,,,,1,,,,78,92
68160,note_on,80,0,12,,,,,,,,7,,,,62,92
68160,note_on,5,0,17,,,,,,,,11,,,,83,108
68160,note_on,80,0,13,,,,,,,,7,,,,59,92
68160,note_on,80,0,15,,,,,,,,8,,,,50,92
68160,note_on,80,0,20,,,,,,,,14,,,,62,92
68160,note_on,80,0,14,,,,,,,,7,,,,50,92
68160,note_on,80,0,21,,,,,,,,15,,,,50,92
68160,note_on,80,0,6,,,,,,,,3,,,,66,92
68160,note_on,80,0,4,,,,,,,,2,,,,78,92
68160,note_on,5,0,18,,,,,,,,12,,,,71,92
68160,note_on,80,0,16,,,,,,,,10,,,,50,92
68160,note_on,80,0,7,,,,,,,,4,,,,62,92
68395,note_off,235,0,1,,,,,,,,0,,,,83,64
68395,note_off,235,0,18,,,,,,,,12,,,,71,64
68395,note_off,235,0,5,,,,,,,,3,,,,71,64
68395,note_off,235,0,17,,,,,,,,11,,,,83,64
68395,note_off,235,0,3,,,,,,,,2,,,,71,64
68400,note_on,5,0,18,,,,,,,,12,,,,74,92
68400,note_on,5,0,3,,,,,,,,2,,,,74,92
68400,note_on,5,0,1,,,,,,,,0,,,,86,92
68400,note_on,5,0,5,,,,,,,,3,,,,74,92
68400,note_on,5,0,17,,,,,,,,11,,,,86,108
68560,note_off,400,0,20,,,,,,,,14,,,,62,64
68560,note_off,400,0,16,,,,,,,,10,,,,50,64
68560,note_off,400,0,21,,,,,,,,15,,,,50,64
68560,note_off,400,0,4,,,,,,,,2,,,,78,64
68560,note_off,400,0,6,,,,,,,,3,,,,66,64
68560,note_off,400,0,14,,,,,,,,7,,,,50,64
68560,note_off,400,0,15,,,,,,,,8,,,,50,64
68560,note_off,400,0,7,,,,,,,,4,,,,62,64
68560,note_off,400,0,13,,,,,,,,7,,,,59,64
68560,note_off,400,0,12,,,,,,,,7,,,,62,64
68560,note_off,400,0,2,,,,,,,,1,,,,78,64
68635,note_off,235,0,17,,,,,,,,11,,,,86,64
68635,note_off,235,0,3,,,,,,,,2,,,,74,64
68635,note_off,235,0,5,,,,,,,,3,,,,74,64
68635,note_off,235,0,1,,,,,,,,0,,,,86,64
68635,note_off,235,0,18,,,,,,,,12,,,,74,64
68640,note_on,5,0,18,,,,,,,,12,,,,73,92
68640,note_on,80,0,21,,,,,,,,15,,,,50,92
68640,note_on,80,0,15,,,,,,,,8,,,,50,92
68640,note_on,5,0,17,,,,,,,,11,,,,85,108
68640,note_on,80,0,14,,,,,,,,7,,,,50,92
68640,note_on,80,0,6,,,,,,,,3,,,,66,92
68640,note_on,5,0,5,,,,,,,,3,,,,73,92
68640,note_on,80,0,7,,,,,,,,4,,,,62,92
68640,note_on,80,0,16,,,,,,,,10,,,,50,92
68640,note_on,80,0,12,,,,,,,,7,,,,62,92
68640,note_on,80,0,2,,,,,,,,1,,,,78,92
68640,note_on,5,0,1,,,,,,,,0,,,,85,92
68640,note_on,80,0,13,,,,,,,,7,,,,59,92
68640,note_on,5,0,3,,,,,,,,2,,,,73,92
68640,note_on,80,0,20,,,,,,,,14,,,,62,92
68640,note_on,80,0,4,,,,,,,,2,,,,78,92
68875,note_off,235,0,18,,,,,,,,12,,,,73,64
68875,note_off,235,0,17,,,,,,,,11,,,,85,64
68875,note_off,235,0,5,,,,,,,,3,,,,73,64
68875,note_off,235,0,3,,,,,,,,2,,,,73,64
68875,note_off,235,0,1,,,,,,,,0,,,,85,64
68880,note_on,5,0,5,,,,,,,,3,,,,74,92
68880,note_on,5,0,18,,,,,,,,12,,,,74,92
68880,note_on,5,0,1,,,,,,,,0,,,,86,92
68880,note_on,5,0,17,,,,,,,,11,,,,86,108
68880,note_on,5,0,3,,,,,,,,2,,,,74,92
69000,note_off,840,0,19,,,,,,,,13,,,,66,64
69040,note_off,400,0,15,,,,,,,,8,,,,50,64
69040,note_off,400,0,12,,,,,,,,7,,,,62,64
69040,note_off,400,0,21,,,,,,,,15,,,,50,64
69040,note_off,400,0,20,,,,,,,,14,,,,62,64
69040,note_off,400,0,6,,,,,,,,3,,,,66,64
69040,note_off,400,0,2,,,,,,,,1,,,,78,64
69040,note_off,400,0,13,,,,,,,,7,,,,59,64
69040,note_off,400,0,14,,,,,,,,7,,,,50,64
69040,note_off,400,0,7,,,,,,,,4,,,,62,64
69040,note_off,400,0,16,,,,,,,,10,,,,50,64
69040,note_off,400,0,4,,,,,,,,2,,,,78,64
69115,note_off,235,0,18,,,,,,,,12,,,,74,64
69115,note_off,235,0,5,,,,,,,,3,,,,74,64
69115,note_off,235,0,3,,,,,,,,2,,,,74,64
69115,note_off,235,0,17,,,,,,,,11,,,,86,64
69115,note_off,235,0,1,,,,,,,,0,,,,86,64
69120,note_on,80,0,6,,,,,,,,3,,,,59,92
69120,note_on,5,0,18,,,,,,,,12,,,,64,92
69120,note_on,80,0,14,,,,,,,,7,,,,52,92
69120,note_on,80,0,7,,,,,,,,4,,,,62,92
69120,note_on,80,0,12,,,,,,,,7,,,,64,92
69120,note_on,5,0,5,,,,,,,,3,,,,64,92
69120,note_on,80,0,4,,,,,,,,2,,,,71,92
69120,note_on,80,0,15,,,,,,,,8,,,,50,92
69120,note_on,80,0,16,,,,,,,,10,,,,50,92
69120,note_on,80,0,2,,,,,,,,1,,,,71,92
69120,note_on,5,0,3,,,,,,,,2,,,,64,92
69120,note_on,80,0,21,,,,,,,,15,,,,50,92
69120,note_on,80,0,13,,,,,,,,7,,,,56,92
69120,note_on,5,0,1,,,,,,,,0,,,,76,92
69120,note_on,120,0,19,,,,,,,,13,,,,68,92
69120,note_on,5,0,17,,,,,,,,11,,,,76,108
69120,note_on,80,0,20,,,,,,,,14,,,,62,92
69960,note_off,840,0,1,,,,,,,,0,,,,76,64
69960,note_off,840,0,5,,,,,,,,3,,,,64,64
69960,note_off,840,0,3,,,,,,,,2,,,,64,64
69960,note_off,840,0,6,,,,,,,,3,,,,59,64
69960,note_off,840,0,2,,,,,,,,1,,,,71,64
69960,note_off,840,0,4,,,,,,,,2,,,,71,64
69960,note_off,840,0,7,,,,,,,,4,,,,62,64
70440,note_off,1320,0,15,,,,,,,,8,,,,50,64
70440,note_off,1320,0,12,,,,,,,,7,,,,64,64
70440,note_off,1320,0,14,,,,,,,,7,,,,52,64
70440,note_off,1320,0,18,,,,,,,,12,,,,64,64
70440,note_off,1320,0,21,,,,,,,,15,,,,50,64
70440,note_off,1320,0,16,,,,,,,,10,,,,50,64
70440,note_off,1320,0,19,,,,,,,,13,,,,68,64
70440,note_off,1320,0,13,,,,,,,,7,,,,56,64
70440,note_off,1320,0,17,,,,,,,,11,,,,76,64
70440,note_off,1320,0,20,,,,,,,,14,,,,62,64
70560,note_on,600,0,6,,,,,,,,3,,,,59,92
70560,note_on,600,0,7,,,,,,,,4,,,,62,92
70560,note_on,600,0,2,,,,,,,,1,,,,71,92
70560,note_on,120,0,12,,,,,,,,7,,,,64,92
70560,note_on,120,0,21,,,,,,,,15,,,,50,92
70560,note_on,120,0,20,,,,,,,,14,,,,62,92
70560,note_on,120,0,15,,,,,,,,8,,,,50,92
70560,note_on,120,0,14,,,,,,,,7,,,,50,92
70560,note_on,600,0,4,,,,,,,,2,,,,71,92
70560,note_on,120,0,17,,,,,,,,11,,,,76,108
70560,note_on,600,0,5,,,,,,,,3,,,,64,92
70560,note_on,120,0,18,,,,,,,,12,,,,64,92
70560,note_on,600,0,1,,,,,,,,0,,,,76,92
70560,note_on,120,0,19,,,,,,,,13,,,,68,92
70560,note_on,120,0,16,,,,,,,,10,,,,50,92
70560,note_on,120,0,13,,,,,,,,7,,,,56,92
70560,note_on,600,0,3,,,,,,,,2,,,,64,92
70960,note_off,400,0,6,,,,,,,,3,,,,59,64
70960,note_off,400,0,7,,,,,,,,4,,,,62,64
70960,note_off,400,0,17,,,,,,,,11,,,,76,64
70960,note_off,400,0,14,,,,,,,,7,,,,50,64
70960,note_off,400,0,21,,,,,,,,15,,,,50,64
70960,note_off,400,0,2,,,,,,,,1,,,,71,64
70960,note_off,400,0,12,,,,,,,,7,,,,64,64
70960,note_off,400,0,16,,,,,,,,10,,,,50,64
70960,note_off,400,0,15,,,,,,,,8,,,,50,64
70960,note_off,400,0,1,,,,,,,,0,,,,76,64
70960,note_off,400,0,20,,,,,,,,14,,,,62,64
70960,note_off,400,0,4,,,,,,,,2,,,,71,64
70960,note_off,400,0,5,,,,,,,,3,,,,64,64
70960,note_off,400,0,13,,,,,,,,7,,,,56,64
70960,note_off,400,0,19,,,,,,,,13,,,,68,64
70960,note_off,400,0,18,,,,,,,,12,,,,64,64
70960,note_off,400,0,3,,,,,,,,2,,,,64,64
71040,note_on,80,0,2,,,,,,,,1,,,,76,92
71040,note_on,80,0,16,,,,,,,,10,,,,45,92
71040,note_on,80,0,15,,,,,,,,8,,,,49,92
71040,note_on,80,0,6,,,,,,,,3,,,,64,92
71040,note_on,80,0,17,,,,,,,,11,,,,81,108
71040,note_on,80,0,21,,,,,,,,15,,,,49,92
71040,note_on,80,0,12,,,,,,,,7,,,,61,92
71040,note_on,80,0,4,,,,,,,,2,,,,76,92
71040,note_on,80,0,5,,,,,,,,3,,,,69,92
71040,note_on,80,0,20,,,,,,,,14,,,,61,92
71040,note_on,80,0,13,,,,,,,,7,,,,57,92
71040,note_on,80,0,19,,,,,,,,13,,,,69,92
71040,note_on,80,0,18,,,,,,,,12,,,,69,92
71040,note_on,80,0,1,,,,,,,,0,,,,81,92
71040,note_on,80,0,7,,,,,,,,4,,,,61,92
71040,note_on,80,0,3,,,,,,,,2,,,,69,92
71040,note_on,80,0,14,,,,,,,,7,,,,49,92
71440,note_off,400,0,21,,,,,,,,15,,,,49,64
71440,note_off,400,0,16,,,,,,,,10,,,,45,64
71440,note_off,400,0,15,,,,,,,,8,,,,49,64
71440,note_off,400,0,7,,,,,,,,4,,,,61,64
71440,note_off,400,0,14,,,,,,,,7,,,,49,64
71440,note_off,400,0,20,,,,,,,,14,,,,61,64
71520,note_on,80,0,7,,,,,,,,4,,,,59,92
71520,note_on,80,0,14,,,,,,,,7,,,,47,92
71520,note_on,80,0,21,,,,,,,,15,,,,47,92
71520,note_on,80,0,16,,,,,,,,10,,,,45,92
71520,note_on,80,0,20,,,,,,,,14,,,,59,92
71520,note_on,80,0,15,,,,,,,,8,,,,47,92
71880,note_off,840,0,13,,,,,,,,7,,,,57,64
71880,note_off,840,0,19,,,,,,,,13,,,,69,64
71880,note_off,840,0,6,,,,,,,,3,,,,64,64
71880,note_off,840,0,12,,,,,,,,7,,,,61,64
71880,note_off,840,0,2,,,,,,,,1,,,,76,64
71880,note_off,840,0,4,,,,,,,,2,,,,76,64
71920,note_off,400,0,15,,,,,,,,8,,,,47,64
71920,note_off,400,0,20,,,,,,,,14,,,,59,64
71920,note_off,400,0,21,,,,,,,,15,,,,47,64
71920,note_off,400,0,14,,,,,,,,7,,,,47,64
71920,note_off,400,0,16,,,,,,,,10,,,,45,64
71920,note_off,400,0,7,,,,,,,,4,,,,59,64
72000,note_on,80,0,20,,,,,,,,14,,,,61,92
72000,note_on,120,0,13,,,,,,,,7,,,,57,92
72000,note_on,80,0,14,,,,,,,,7,,,,49,92
72000,note_on,120,0,2,,,,,,,,1,,,,81,92
72000,note_on,80,0,7,,,,,,,,4,,,,61,92
72000,note_on,120,0,4,,,,,,,,2,,,,81,92
72000,note_on,80,0,16,,,,,,,,10,,,,45,92
72000,note_on,120,0,19,,,,,,,,13,,,,66,92
72000,note_on,80,0,21,,,,,,,,15,,,,49,92
72000,note_on,120,0,6,,,,,,,,3,,,,69,92
72000,note_on,80,0,15,,,,,,,,8,,,,49,92
72000,note_on,120,0,12,,,,,,,,7,,,,61,92
72400,note_off,1360,0,5,,,,,,,,3,,,,69,64
72400,note_off,1360,0,1,,,,,,,,0,,,,81,64
72400,note_off,400,0,14,,,,,,,,7,,,,49,64
72400,note_off,400,0,16,,,,,,,,10,,,,45,64
72400,note_off,400,0,21,,,,,,,,15,,,,49,64
72400,note_off,400,0,7,,,,,,,,4,,,,61,64
72400,note_off,400,0,15,,,,,,,,8,,,,49,64
72400,note_off,400,0,20,,,,,,,,14,,,,61,64
72400,note_off,1360,0,18,,,,,,,,12,,,,69,64
72400,note_off,1360,0,17,,,,,,,,11,,,,81,64
72400,note_off,1360,0,3,,,,,,,,2,,,,69,64
72480,note_on,80,0,3,,,,,,,,2,,,,74,92
72480,note_on,80,0,15,,,,,,,,8,,,,45,92
72480,note_on,80,0,16,,,,,,,,10,,,,45,92
72480,note_on,80,0,20,,,,,,,,14,,,,57,92
72480,note_on,80,0,18,,,,,,,,12,,,,74,92
72480,note_on,80,0,14,,,,,,,,7,,,,45,92
72480,note_on,80,0,7,,,,,,,,4,,,,57,92
72480,note_on,80,0,5,,,,,,,,3,,,,74,92
72480,note_on,80,0,21,,,,,,,,15,,,,45,92
72480,note_on,80,0,1,,,,,,,,0,,,,86,92
72480,note_on,80,0,17,,,,,,,,11,,,,86,108
72840,note_off,840,0,2,,,,,,,,1,,,,81,64
72840,note_off,840,0,6,,,,,,,,3,,,,69,64
72840,note_off,840,0,12,,,,,,,,7,,,,61,64
72840,note_off,840,0,4,,,,,,,,2,,,,81,64
72840,note_off,840,0,19,,,,,,,,13,,,,66,64
72840,note_off,840,0,13,,,,,,,,7,,,,57,64
72880,note_off,400,0,3,,,,,,,,2,,,,74,64
72880,note_off,400,0,1,,,,,,,,0,,,,86,64
72880,note_off,400,0,5,,,,,,,,3,,,,74,64
72880,note_off,400,0,15,,,,,,,,8,,,,45,64
72880,note_off,400,0,20,,,,,,,,14,,,,57,64
72880,note_off,400,0,21,,,,,,,,15,,,,45,64
72880,note_off,400,0,7,,,,,,,,4,,,,57,64
72880,note_off,400,0,16,,,,,,,,10,,,,45,64
72880,note_off,400,0,17,,,,,,,,11,,,,86,64
72880,note_off,400,0,14,,,,,,,,7,,,,45,64
72880,note_off,400,0,18,,,,,,,,12,,,,74,64
72960,note_on,80,0,1,,,,,,,,0,,,,85,92
72960,note_on,120,0,13,,,,,,,,7,,,,52,92
72960,note_on,80,0,7,,,,,,,,4,,,,64,92
72960,note_on,120,0,19,,,,,,,,13,,,,64,92
72960,note_on,120,0,6,,,,,,,,3,,,,69,92
72960,note_on,80,0,5,,,,,,,,3,,,,73,92
72960,note_on,80,0,18,,,,,,,,12,,,,73,92
72960,note_on,80,0,14,,,,,,,,7,,,,52,92
72960,note_on,80,0,17,,,,,,,,11,,,,85,108
72960,note_on,120,0,2,,,,,,,,1,,,,81,92
72960,note_on,80,0,15,,,,,,,,8,,,,52,92
72960,note_on,80,0,3,,,,,,,,2,,,,73,92
72960,note_on,120,0,4,,,,,,,,2,,,,81,92
72960,note_on,80,0,16,,,,,,,,10,,,,45,92
72960,note_on,120,0,12,,,,,,,,7,,,,61,92
72960,note_on,80,0,21,,,,,,,,15,,,,52,92
72960,note_on,80,0,20,,,,,,,,14,,,,64,92
73800,note_off,840,0,14,,,,,,,,7,,,,52,64
73800,note_off,840,0,2,,,,,,,,1,,,,81,64
73800,note_off,840,0,16,,,,,,,,10,,,,45,64
73800,note_off,840,0,7,,,,,,,,4,,,,64,64
73800,note_off,840,0,5,,,,,,,,3,,,,73,64
73800,note_off,840,0,6,,,,,,,,3,,,,69,64
73800,note_off,840,0,21,,,,,,,,15,,,,52,64
73800,note_off,840,0,17,,,,,,,,11,,,,85,64
73800,note_off,840,0,18,,,,,,,,12,,,,73,64
73800,note_off,840,0,12,,,,,,,,7,,,,61,64
73800,note_off,840,0,19,,,,,,,,13,,,,64,64
73800,note_off,840,0,4,,,,,,,,2,,,,81,64
73800,note_off,840,0,3,,,,,,,,2,,,,73,64
73800,note_off,840,0,20,,,,,,,,14,,,,64,64
73800,note_off,840,0,15,,,,,,,,8,,,,52,64
73800,note_off,840,0,13,,,,,,,,7,,,,52,64
73800,note_off,840,0,1,,,,,,,,0,,,,85,64
73920,note_on,120,0,17,,,,,,,,11,,,,83,108
73920,note_on,120,0,20,,,,,,,,14,,,,52,92
73920,note_on,120,0,7,,,,,,,,4,,,,52,92
73920,note_on,120,0,6,,,,,,,,3,,,,68,92
73920,note_on,120,0,18,,,,,,,,12,,,,71,92
73920,note_on,120,0,19,,,,,,,,13,,,,64,92
73920,note_on,120,0,15,,,,,,,,8,,,,40,92
73920,note_on,120,0,21,,,,,,,,15,,,,40,92
73920,note_on,120,0,16,,,,,,,,10,,,,45,92
73920,note_on,120,0,2,,,,,,,,1,,,,80,92
73920,note_on,120,0,13,,,,,,,,7,,,,52,92
73920,note_on,120,0,3,,,,,,,,2,,,,71,92
73920,note_on,120,0,14,,,,,,,,7,,,,52,92
73920,note_on,120,0,4,,,,,,,,2,,,,80,92
73920,note_on,120,0,5,,,,,,,,3,,,,71,92
73920,note_on,120,0,12,,,,,,,,7,,,,59,92
73920,note_on,120,0,1,,,,,,,,0,,,,83,92
74400,note_on,0,0,1,,,,,,,,0,,,,81,92
74400,note_on,0,0,18,,,,,,,,12,,,,69,92
74400,note_off,480,0,12,,,,,,,,7,,,,59,64
74400,note_off,480,0,18,,,,,,,,12,,,,71,64
74400,note_off,480,0,1,,,,,,,,0,,,,83,64
74400,note_off,480,0,5,,,,,,,,3,,,,71,64
74400,note_on,0,0,5,,,,,,,,3,,,,69,92
74400,note_on,0,0,3,,,,,,,,2,,,,69,92
74400,note_off,480,0,3,,,,,,,,2,,,,71,64
74400,note_off,480,0,17,,,,,,,,11,,,,83,64
74400,note_on,0,0,17,,,,,,,,11,,,,81,108
74400,note_on,0,0,12,,,,,,,,7,,,,57,92
74760,note_off,840,0,2,,,,,,,,1,,,,80,64
74760,note_off,840,0,14,,,,,,,,7,,,,52,64
74760,note_off,840,0,15,,,,,,,,8,,,,40,64
74760,note_off,840,0,13,,,,,,,,7,,,,52,64
74760,note_off,840,0,7,,,,,,,,4,,,,52,64
74760,note_off,840,0,21,,,,,,,,15,,,,40,64
74760,note_off,840,0,20,,,,,,,,14,,,,52,64
74760,note_off,840,0,6,,,,,,,,3,,,,68,64
74760,note_off,840,0,16,,,,,,,,10,,,,45,64
74760,note_off,840,0,4,,,,,,,,2,,,,80,64
74760,note_off,840,0,19,,,,,,,,13,,,,64,64
74800,note_off,400,0,1,,,,,,,,0,,,,81,64
74800,note_off,400,0,17,,,,,,,,11,,,,81,64
74800,note_off,400,0,12,,,,,,,,7,,,,57,64
74800,note_off,400,0,5,,,,,,,,3,,,,69,64
74800,note_off,400,0,3,,,,,,,,2,,,,69,64
74800,note_off,400,0,18,,,,,,,,12,,,,69,64
74880,note_on,120,0,4,,,,,,,,2,,,,81,92
74880,note_on,80,0,18,,,,,,,,12,,,,69,92
74880,note_on,120,0,7,,,,,,,,4,,,,57,92
74880,note_on,120,0,20,,,,,,,,14,,,,57,92
74880,note_on,120,0,15,,,,,,,,8,,,,45,92
74880,note_on,80,0,12,,,,,,,,7,,,,57,92
74880,note_on,120,0,16,,,,,,,,10,,,,45,92
74880,note_on,120,0,6,,,,,,,,3,,,,69,92
74880,note_on,120,0,2,,,,,,,,1,,,,81,92
74880,note_on,120,0,21,,,,,,,,15,,,,45,92
74880,note_on,80,0,3,,,,,,,,2,,,,69,92
74880,note_on,120,0,19,,,,,,,,13,,,,61,92
74880,note_on,80,0,1,,,,,,,,0,,,,81,92
74880,note_on,80,0,17,,,,,,,,11,,,,81,108
74880,note_on,120,0,14,,,,,,,,7,,,,45,92
74880,note_on,80,0,5,,,,,,,,3,,,,69,92
74880,note_on,120,0,13,,,,,,,,7,,,,49,92
75720,note_off,840,0,4,,,,,,,,2,,,,81,64
75720,note_off,840,0,3,,,,,,,,2,,,,69,64
75720,note_off,840,0,12,,,,,,,,7,,,,57,64
75720,note_off,840,0,13,,,,,,,,7,,,,49,64
76320,note_on,600,0,4,,,,,,,,2,,,,78,92
76320,note_on,600,0,3,,,,,,,,2,,,,81,92
76320,note_on,19800,0,10,,,,,,,,6,,,,81,92
76320,note_on,19800,0,11,,,,,,,,6,,,,78,92
76320,note_on,600,0,12,,,,,,,,7,,,,69,92
76320,note_on,600,0,13,,,,,,,,7,,,,66,92
76680,note_off,1800,0,2,,,,,,,,1,,,,81,64
76680,note_off,1800,0,18,,,,,,,,12,,,,69,64
76680,note_off,1800,0,6,,,,,,,,3,,,,69,64
76680,note_off,1800,0,21,,,,,,,,15,,,,45,64
76680,note_off,1800,0,1,,,,,,,,0,,,,81,64
76680,note_off,1800,0,17,,,,,,,,11,,,,81,64
76680,note_off,1800,0,15,,,,,,,,8,,,,45,64
76680,note_off,1800,0,20,,,,,,,,14,,,,57,64
76680,note_off,1800,0,14,,,,,,,,7,,,,45,64
76680,note_off,1800,0,16,,,,,,,,10,,,,45,64
76680,note_off,1800,0,7,,,,,,,,4,,,,57,64
76680,note_off,1800,0,5,,,,,,,,3,,,,69,64
76680,note_off,1800,0,19,,,,,,,,13,,,,61,64
76720,note_off,400,0,4,,,,,,,,2,,,,78,64
76720,note_off,400,0,3,,,,,,,,2,,,,81,64
76720,note_off,400,0,11,,,,,,,,6,,,,78,64
76720,note_off,400,0,13,,,,,,,,7,,,,66,64
76720,note_off,400,0,10,,,,,,,,6,,,,81,64
76720,note_off,400,0,12,,,,,,,,7,,,,69,64
76800,note_on,80,0,3,,,,,,,,2,,,,81,92
76800,note_on,80,0,13,,,,,,,,7,,,,66,92
76800,note_on,80,0,10,,,,,,,,6,,,,81,92
76800,note_on,80,0,12,,,,,,,,7,,,,69,92
76800,note_on,80,0,4,,,,,,,,2,,,,78,92
76800,note_on,80,0,11,,,,,,,,6,,,,78,92
77200,note_off,400,0,4,,,,,,,,2,,,,78,64
77200,note_off,400,0,10,,,,,,,,6,,,,81,64
77200,note_off,400,0,11,,,,,,,,6,,,,78,64
77200,note_off,400,0,13,,,,,,,,7,,,,66,64
77200,note_off,400,0,3,,,,,,,,2,,,,81,64
77200,note_off,400,0,12,,,,,,,,7,,,,69,64
77280,note_on,80,0,10,,,,,,,,6,,,,81,92
77280,note_on,80,0,3,,,,,,,,2,,,,81,92
77280,note_on,80,0,4,,,,,,,,2,,,,78,92
77280,note_on,80,0,13,,,,,,,,7,,,,66,92
77280,note_on,80,0,11,,,,,,,,6,,,,78,92
77280,note_on,80,0,12,,,,,,,,7,,,,69,92
77680,note_off,400,0,11,,,,,,,,6,,,,78,64
77680,note_off,400,0,3,,,,,,,,2,,,,81,64
77680,note_off,400,0,13,,,,,,,,7,,,,66,64
77680,note_off,400,0,12,,,,,,,,7,,,,69,64
77680,note_off,400,0,4,,,,,,,,2,,,,78,64
77680,note_off,400,0,10,,,,,,,,6,,,,81,64
77760,note_on,80,0,10,,,,,,,,6,,,,79,92
77760,note_on,80,0,4,,,,,,,,2,,,,76,92
77760,note_on,80,0,12,,,,,,,,7,,,,67,92
77760,note_on,80,0,13,,,,,,,,7,,,,64,92
77760,note_on,80,0,3,,,,,,,,2,,,,79,92
77760,note_on,80,0,11,,,,,,,,6,,,,76,92
78160,note_off,400,0,3,,,,,,,,2,,,,79,64
78160,note_off,400,0,12,,,,,,,,7,,,,67,64
78160,note_off,400,0,4,,,,,,,,2,,,,76,64
78160,note_off,400,0,10,,,,,,,,6,,,,79,64
78160,note_off,400,0,11,,,,,,,,6,,,,76,64
78160,note_off,400,0,13,,,,,,,,7,,,,64,64
78240,note_on,80,0,11,,,,,,,,6,,,,78,92
78240,note_on,80,0,3,,,,,,,,2,,,,81,92
78240,note_on,80,0,13,,,,,,,,7,,,,66,92
78240,note_on,80,0,4,,,,,,,,2,,,,78,92
78240,note_on,80,0,12,,,,,,,,7,,,,69,92
78240,note_on,80,0,10,,,,,,,,6,,,,81,92
78480,note_off,240,0,4,,,,,,,,2,,,,78,64
78480,note_on,0,0,4,,,,,,,,2,,,,76,92
78480,note_off,240,0,10,,,,,,,,6,,,,81,64
78480,note_on,0,0,10,,,,,,,,6,,,,79,92
78480,note_off,240,0,13,,,,,,,,7,,,,66,64
78480,note_off,240,0,12,,,,,,,,7,,,,69,64
78480,note_on,0,0,12,,,,,,,,7,,,,67,92
78480,note_on,0,0,11,,,,,,,,6,,,,76,92
78480,note_off,240,0,3,,,,,,,,2,,,,81,64
78480,note_off,240,0,11,,,,,,,,6,,,,78,64
78480,note_on,0,0,13,,,,,,,,7,,,,64,92
78480,note_on,0,0,3,,,,,,,,2,,,,79,92
78715,note_off,235,0,13,,,,,,,,7,,,,64,64
78715,note_off,235,0,11,,,,,,,,6,,,,76,64
78715,note_off,235,0,4,,,,,,,,2,,,,76,64
78715,note_off,235,0,3,,,,,,,,2,,,,79,64
78715,note_off,235,0,10,,,,,,,,6,,,,79,64
78715,note_off,235,0,12,,,,,,,,7,,,,67,64
78720,note_on,5,0,11,,,,,,,,6,,,,74,92
78720,note_on,5,0,13,,,,,,,,7,,,,62,92
78720,note_on,5,0,10,,,,,,,,6,,,,78,92
78720,note_on,5,0,4,,,,,,,,2,,,,74,92
78720,note_on,5,0,12,,,,,,,,7,,,,66,92
78720,note_on,5,0,3,,,,,,,,2,,,,78,92
79120,note_off,400,0,10,,,,,,,,6,,,,78,64
79120,note_off,400,0,4,,,,,,,,2,,,,74,64
79120,note_off,400,0,13,,,,,,,,7,,,,62,64
79120,note_off,400,0,12,,,,,,,,7,,,,66,64
79120,note_off,400,0,3,,,,,,,,2,,,,78,64
79120,note_off,400,0,11,,,,,,,,6,,,,74,64
79200,note_on,80,0,3,,,,,,,,2,,,,81,92
79200,note_on,80,0,12,,,,,,,,7,,,,69,92
79200,note_on,80,0,13,,,,,,,,7,,,,66,92
79200,note_on,80,0,4,,,,,,,,2,,,,78,92
79200,note_on,80,0,11,,,,,,,,6,,,,78,92
79200,note_on,80,0,10,,,,,,,,6,,,,81,92
79600,note_off,400,0,12,,,,,,,,7,,,,69,64
79600,note_off,400,0,10,,,,,,,,6,,,,81,64
79600,note_off,400,0,11,,,,,,,,6,,,,78,64
79600,note_off,400,0,4,,,,,,,,2,,,,78,64
79600,note_off,400,0,3,,,,,,,,2,,,,81,64
79600,note_off,400,0,13,,,,,,,,7,,,,66,64
79680,note_on,80,0,4,,,,,,,,2,,,,76,92
79680,note_on,80,0,10,,,,,,,,6,,,,79,92
79680,note_on,80,0,11,,,,,,,,6,,,,76,92
79680,note_on,80,0,3,,,,,,,,2,,,,79,92
79680,note_on,80,0,12,,,,,,,,7,,,,67,92
79680,note_on,80,0,13,,,,,,,,7,,,,64,92
80080,note_off,400,0,4,,,,,,,,2,,,,76,64
80080,note_off,400,0,10,,,,,,,,6,,,,79,64
80080,note_off,400,0,11,,,,,,,,6,,,,76,64
80080,note_off,400,0,3,,,,,,,,2,,,,79,64
80080,note_off,400,0,12,,,,,,,,7,,,,67,64
80080,note_off,400,0,13,,,,,,,,7,,,,64,64
80160,note_on,80,0,4,,,,,,,,2,,,,74,92
80160,note_on,80,0,10,,,,,,,,6,,,,78,92
80160,note_on,80,0,12,,,,,,,,7,,,,66,92
80160,note_on,80,0,3,,,,,,,,2,,,,78,92
80160,note_on,80,0,11,,,,,,,,6,,,,74,92
80160,note_on,80,0,13,,,,,,,,7,,,,62,92
80560,note_off,400,0,11,,,,,,,,6,,,,74,64
80560,note_off,400,0,12,,,,,,,,7,,,,66,64
80560,note_off,400,0,4,,,,,,,,2,,,,74,64
80560,note_off,400,0,10,,,,,,,,6,,,,78,64
80560,note_off,400,0,3,,,,,,,,2,,,,78,64
80560,note_off,400,0,13,,,,,,,,7,,,,62,64
80640,note_on,80,0,4,,,,,,,,2,,,,74,92
80640,note_on,80,0,11,,,,,,,,6,,,,74,92
80640,note_on,80,0,12,,,,,,,,7,,,,66,92
80640,note_on,80,0,10,,,,,,,,6,,,,78,92
80640,note_on,80,0,3,,,,,,,,2,,,,78,92
80640,note_on,80,0,13,,,,,,,,7,,,,62,92
81040,note_off,400,0,10,,,,,,,,6,,,,78,64
81040,note_off,400,0,4,,,,,,,,2,,,,74,64
81040,note_off,400,0,13,,,,,,,,7,,,,62,64
81040,note_off,400,0,11,,,,,,,,6,,,,74,64
81040,note_off,400,0,12,,,,,,,,7,,,,66,64
81040,note_off,400,0,3,,,,,,,,2,,,,78,64
81120,note_on,80,0,3,,,,,,,,2,,,,76,92
81120,note_on,80,0,10,,,,,,,,6,,,,76,92
81120,note_on,80,0,11,,,,,,,,6,,,,66,92
81120,note_on,80,0,12,,,,,,,,7,,,,64,92
81120,note_on,80,0,4,,,,,,,,2,,,,66,92
81120,note_on,80,0,13,,,,,,,,7,,,,54,92
81360,note_on,0,0,12,,,,,,,,7,,,,62,92
81360,note_on,0,0,10,,,,,,,,6,,,,74,92
81360,note_off,240,0,12,,,,,,,,7,,,,64,64
81360,note_off,240,0,10,,,,,,,,6,,,,76,64
81360,note_off,240,0,3,,,,,,,,2,,,,76,64
81360,note_on,0,0,3,,,,,,,,2,,,,74,92
81520,note_off,400,0,11,,,,,,,,6,,,,66,64
81520,note_off,400,0,13,,,,,,,,7,,,,54,64
81520,note_off,400,0,4,,,,,,,,2,,,,66,64
81595,note_off,235,0,10,,,,,,,,6,,,,74,64
81595,note_off,235,0,12,,,,,,,,7,,,,62,64
81595,note_off,235,0,3,,,,,,,,2,,,,74,64
81600,note_on,80,0,4,,,,,,,,2,,,,69,92
81600,note_on,5,0,10,,,,,,,,6,,,,76,92
81600,note_on,5,0,12,,,,,,,,7,,,,64,92
81600,note_on,80,0,13,,,,,,,,7,,,,57,92
81600,note_on,80,0,11,,,,,,,,6,,,,69,92
81600,note_on,5,0,3,,,,,,,,2,,,,76,92
82080,note_on,19800,0,9,,,,,,,,5,,,,66,92
82080,note_on,5400,0,6,,,,,,,,3,,,,66,92
82080,note_on,5400,0,5,,,,,,,,3,,,,69,92
82080,note_on,19800,0,8,,,,,,,,5,,,,69,92
82440,note_off,840,0,11,,,,,,,,6,,,,69,64
82440,note_off,840,0,13,,,,,,,,7,,,,57,64
82440,note_off,840,0,12,,,,,,,,7,,,,64,64
82440,note_off,840,0,3,,,,,,,,2,,,,76,64
82440,note_off,840,0,10,,,,,,,,6,,,,76,64
82440,note_off,840,0,4,,,,,,,,2,,,,69,64
82480,note_off,400,0,8,,,,,,,,5,,,,69,64
82480,note_off,400,0,5,,,,,,,,3,,,,69,64
82480,note_off,400,0,6,,,,,,,,3,,,,66,64
82480,note_off,400,0,9,,,,,,,,5,,,,66,64
82560,note_on,80,0,8,,,,,,,,5,,,,69,92
82560,note_on,80,0,5,,,,,,,,3,,,,69,92
82560,note_on,80,0,9,,,,,,,,5,,,,66,92
82560,note_on,80,0,6,,,,,,,,3,,,,66,92
82960,note_off,400,0,8,,,,,,,,5,,,,69,64
82960,note_off,400,0,6,,,,,,,,3,,,,66,64
82960,note_off,400,0,9,,,,,,,,5,,,,66,64
82960,note_off,400,0,5,,,,,,,,3,,,,69,64
83040,note_on,80,0,6,,,,,,,,3,,,,66,92
83040,note_on,80,0,8,,,,,,,,5,,,,69,92
83040,note_on,80,0,9,,,,,,,,5,,,,66,92
83040,note_on,80,0,5,,,,,,,,3,,,,69,92
83440,note_off,400,0,5,,,,,,,,3,,,,69,64
83440,note_off,400,0,6,,,,,,,,3,,,,66,64
83440,note_off,400,0,9,,,,,,,,5,,,,66,64
83440,note_off,400,0,8,,,,,,,,5,,,,69,64
83520,note_on,80,0,5,,,,,,,,3,,,,67,92
83520,note_on,80,0,6,,,,,,,,3,,,,64,92
83520,note_on,80,0,8,,,,,,,,5,,,,67,92
83520,note_on,80,0,9,,,,,,,,5,,,,64,92
83920,note_off,400,0,6,,,,,,,,3,,,,64,64
83920,note_off,400,0,8,,,,,,,,5,,,,67,64
83920,note_off,400,0,9,,,,,,,,5,,,,64,64
83920,note_off,400,0,5,,,,,,,,3,,,,67,64
84000,note_on,80,0,8,,,,,,,,5,,,,69,92
84000,note_on,80,0,9,,,,,,,,5,,,,66,92
84000,note_on,80,0,5,,,,,,,,3,,,,69,92
84000,note_on,80,0,6,,,,,,,,3,,,,66,92
84240,note_on,0,0,9,,,,,,,,5,,,,64,92
84240,note_on,0,0,8,,,,,,,,5,,,,67,92
84240,note_off,240,0,8,,,,,,,,5,,,,69,64
84240,note_on,0,0,6,,,,,,,,3,,,,64,92
84240,note_off,240,0,9,,,,,,,,5,,,,66,64
84240,note_off,240,0,5,,,,,,,,3,,,,69,64
84240,note_on,0,0,5,,,,,,,,3,,,,67,92
84240,note_off,240,0,6,,,,,,,,3,,,,66,64
84475,note_off,235,0,6,,,,,,,,3,,,,64,64
84475,note_off,235,0,8,,,,,,,,5,,,,67,64
84475,note_off,235,0,5,,,,,,,,3,,,,67,64
84475,note_off,235,0,9,,,,,,,,5,,,,64,64
84480,note_on,5,0,9,,,,,,,,5,,,,62,92
84480,note_on,5,0,5,,,,,,,,3,,,,66,92
84480,note_on,5,0,6,,,,,,,,3,,,,62,92
84480,note_on,5,0,8,,,,,,,,5,,,,66,92
84880,note_off,400,0,9,,,,,,,,5,,,,62,64
84880,note_off,400,0,5,,,,,,,,3,,,,66,64
84880,note_off,400,0,8,,,,,,,,5,,,,66,64
84880,note_off,400,0,6,,,,,,,,3,,,,62,64
84960,note_on,80,0,9,,,,,,,,5,,,,66,92
84960,note_on,80,0,8,,,,,,,,5,,,,69,92
84960,note_on,80,0,5,,,,,,,,3,,,,69,92
84960,note_on,80,0,6,,,,,,,,3,,,,66,92
85360,note_off,400,0,9,,,,,,,,5,,,,66,64
85360,note_off,400,0,5,,,,,,,,3,,,,69,64
85360,note_off,400,0,8,,,,,,,,5,,,,69,64
85360,note_off,400,0,6,,,,,,,,3,,,,66,64
85440,note_on,80,0,6,,,,,,,,3,,,,64,92
85440,note_on,80,0,8,,,,,,,,5,,,,67,92
85440,note_on,80,0,9,,,,,,,,5,,,,64,92
85440,note_on,80,0,5,,,,,,,,3,,,,67,92
85840,note_off,400,0,8,,,,,,,,5,,,,67,64
85840,note_off,400,0,6,,,,,,,,3,,,,64,64
85840,note_off,400,0,9,,,,,,,,5,,,,64,64
85840,note_off,400,0,5,,,,,,,,3,,,,67,64
85920,note_on,80,0,8,,,,,,,,5,,,,66,92
85920,note_on,80,0,9,,,,,,,,5,,,,62,92
85920,note_on,80,0,6,,,,,,,,3,,,,62,92
85920,note_on,80,0,5,,,,,,,,3,,,,66,92
86320,note_off,400,0,5,,,,,,,,3,,,,66,64
86320,note_off,400,0,8,,,,,,,,5,,,,66,64
86320,note_off,400,0,9,,,,,,,,5,,,,62,64
86320,note_off,400,0,6,,,,,,,,3,,,,62,64
86400,note_on,80,0,8,,,,,,,,5,,,,66,92
86400,note_on,80,0,5,,,,,,,,3,,,,66,92
86400,note_on,80,0,9,,,,,,,,5,,,,62,92
86400,note_on,80,0,6,,,,,,,,3,,,,62,92
86800,note_off,400,0,6,,,,,,,,3,,,,62,64
86800,note_off,400,0,5,,,,,,,,3,,,,66,64
86800,note_off,400,0,9,,,,,,,,5,,,,62,64
86800,note_off,400,0,8,,,,,,,,5,,,,66,64
86880,note_on,80,0,6,,,,,,,,3,,,,54,92
86880,note_on,80,0,9,,,,,,,,5,,,,54,92
86880,note_on,80,0,5,,,,,,,,3,,,,64,92
86880,note_on,80,0,8,,,,,,,,5,,,,64,92
87120,note_off,240,0,8,,,,,,,,5,,,,64,64
87120,note_off,240,0,5,,,,,,,,3,,,,64,64
87120,note_on,0,0,8,,,,,,,,5,,,,62,92
87120,note_on,0,0,5,,,,,,,,3,,,,62,92
87280,note_off,400,0,9,,,,,,,,5,,,,54,64
87280,note_off,400,0,6,,,,,,,,3,,,,54,64
87355,note_off,235,0,8,,,,,,,,5,,,,62,64
87355,note_off,235,0,5,,,,,,,,3,,,,62,64
87360,note_on,5,0,5,,,,,,,,3,,,,64,92
87360,note_on,80,0,6,,,,,,,,3,,,,57,92
87360,note_on,5,0,8,,,,,,,,5,,,,64,92
87360,note_on,80,0,9,,,,,,,,5,,,,57,92
87595,note_off,235,0,6,,,,,,,,3,,,,57,64
87595,note_off,235,0,5,,,,,,,,3,,,,64,64
87840,note_on,5400,0,11,,,,,,,,6,,,,78,92
87840,note_on,11160,0,20,,,,,,,,14,,,,54,92
87840,note_on,245,0,6,,,,,,,,3,,,,78,92
87840,note_on,11160,0,14,,,,,,,,7,,,,54,92
87840,note_on,5400,0,3,,,,,,,,2,,,,81,92
87840,note_on,11160,0,1,,,,,,,,0,,,,81,92
87840,note_on,5400,0,10,,,,,,,,6,,,,81,92
87840,note_on,5400,0,12,,,,,,,,7,,,,69,92
87840,note_on,11160,0,7,,,,,,,,4,,,,54,92
87840,note_on,11160,0,19,,,,,,,,13,,,,69,92
87840,note_on,5400,0,13,,,,,,,,7,,,,66,92
87840,note_on,11160,0,2,,,,,,,,1,,,,78,92
87840,note_on,11160,0,15,,,,,,,,8,,,,42,92
87840,note_on,11160,0,18,,,,,,,,12,,,,78,92
87840,note_on,11160,0,17,,,,,,,,11,,,,81,108
87840,note_on,5400,0,4,,,,,,,,2,,,,78,92
87840,note_on,11160,0,16,,,,,,,,10,,,,45,92
87840,note_on,11160,0,21,,,,,,,,15,,,,42,92
87840,note_on,245,0,5,,,,,,,,3,,,,81,92
88200,note_off,840,0,9,,,,,,,,5,,,,57,64
88200,note_off,840,0,8,,,,,,,,5,,,,64,64
88240,note_off,400,0,21,,,,,,,,15,,,,42,64
88240,note_off,400,0,18,,,,,,,,12,,,,78,64
88240,note_off,400,0,6,,,,,,,,3,,,,78,64
88240,note_off,400,0,2,,,,,,,,1,,,,78,64
88240,note_off,400,0,14,,,,,,,,7,,,,54,64
88240,note_off,400,0,5,,,,,,,,3,,,,81,64
88240,note_off,400,0,7,,,,,,,,4,,,,54,64
88240,note_off,400,0,15,,,,,,,,8,,,,42,64
88240,note_off,400,0,20,,,,,,,,14,,,,54,64
88240,note_off,400,0,16,,,,,,,,10,,,,45,64
88240,note_off,400,0,4,,,,,,,,2,,,,78,64
88240,note_off,400,0,1,,,,,,,,0,,,,81,64
88240,note_off,400,0,17,,,,,,,,11,,,,81,64
88240,note_off,400,0,12,,,,,,,,7,,,,69,64
88240,note_off,400,0,11,,,,,,,,6,,,,78,64
88240,note_off,400,0,19,,,,,,,,13,,,,69,64
88240,note_off,400,0,13,,,,,,,,7,,,,66,64
88240,note_off,400,0,3,,,,,,,,2,,,,81,64
88240,note_off,400,0,10,,,,,,,,6,,,,81,64
88320,note_on,80,0,14,,,,,,,,7,,,,57,92
88320,note_on,80,0,17,,,,,,,,11,,,,81,108
88320,note_on,80,0,2,,,,,,,,1,,,,78,92
88320,note_on,80,0,11,,,,,,,,6,,,,78,92
88320,note_on,80,0,4,,,,,,,,2,,,,78,92
88320,note_on,80,0,12,,,,,,,,7,,,,69,92
88320,note_on,80,0,7,,,,,,,,4,,,,57,92
88320,note_on,80,0,20,,,,,,,,14,,,,57,92
88320,note_on,80,0,6,,,,,,,,3,,,,78,92
88320,note_on,80,0,10,,,,,,,,6,,,,81,92
88320,note_on,80,0,1,,,,,,,,0,,,,81,92
88320,note_on,80,0,5,,,,,,,,3,,,,81,92
88320,note_on,80,0,15,,,,,,,,8,,,,45,92
88320,note_on,80,0,19,,,,,,,,13,,,,73,92
88320,note_on,80,0,16,,,,,,,,10,,,,45,92
88320,note_on,80,0,13,,,,,,,,7,,,,66,92
88320,note_on,80,0,18,,,,,,,,12,,,,78,92
88320,note_on,80,0,3,,,,,,,,2,,,,81,92
88320,note_on,80,0,21,,,,,,,,15,,,,45,92
88720,note_off,400,0,13,,,,,,,,7,,,,66,64
88720,note_off,400,0,4,,,,,,,,2,,,,78,64
88720,note_off,400,0,7,,,,,,,,4,,,,57,64
88720,note_off,400,0,2,,,,,,,,1,,,,78,64
88720,note_off,400,0,16,,,,,,,,10,,,,45,64
88720,note_off,400,0,10,,,,,,,,6,,,,81,64
88720,note_off,400,0,11,,,,,,,,6,,,,78,64
88720,note_off,400,0,18,,,,,,,,12,,,,78,64
88720,note_off,400,0,6,,,,,,,,3,,,,78,64
88720,note_off,400,0,3,,,,,,,,2,,,,81,64
88720,note_off,400,0,19,,,,,,,,13,,,,73,64
88720,note_off,400,0,5,,,,,,,,3,,,,81,64
88720,note_off,400,0,17,,,,,,,,11,,,,81,64
88720,note_off,400,0,1,,,,,,,,0,,,,81,64
88720,note_off,400,0,14,,,,,,,,7,,,,57,64
88720,note_off,400,0,12,,,,,,,,7,,,,69,64
88720,note_off,400,0,15,,,,,,,,8,,,,45,64
88720,note_off,400,0,21,,,,,,,,15,,,,45,64
88720,note_off,400,0,20,,,,,,,,14,,,,57,64
88800,note_on,80,0,4,,,,,,,,2,,,,78,92
88800,note_on,80,0,6,,,,,,,,3,,,,78,92
88800,note_on,80,0,13,,,,,,,,7,,,,66,92
88800,note_on,80,0,1,,,,,,,,0,,,,81,92
88800,note_on,80,0,2,,,,,,,,1,,,,78,92
88800,note_on,80,0,20,,,,,,,,14,,,,54,92
88800,note_on,80,0,16,,,,,,,,10,,,,45,92
88800,note_on,80,0,3,,,,,,,,2,,,,81,92
88800,note_on,80,0,21,,,,,,,,15,,,,42,92
88800,note_on,80,0,17,,,,,,,,11,,,,81,108
88800,note_on,80,0,7,,,,,,,,4,,,,54,92
88800,note_on,80,0,18,,,,,,,,12,,,,78,92
88800,note_on,80,0,15,,,,,,,,8,,,,42,92
88800,note_on,80,0,14,,,,,,,,7,,,,54,92
88800,note_on,80,0,5,,,,,,,,3,,,,81,92
88800,note_on,80,0,19,,,,,,,,13,,,,69,92
88800,note_on,80,0,10,,,,,,,,6,,,,81,92
88800,note_on,80,0,12,,,,,,,,7,,,,69,92
88800,note_on,80,0,11,,,,,,,,6,,,,78,92
89200,note_off,400,0,1,,,,,,,,0,,,,81,64
89200,note_off,400,0,19,,,,,,,,13,,,,69,64
89200,note_off,400,0,15,,,,,,,,8,,,,42,64
89200,note_off,400,0,14,,,,,,,,7,,,,54,64
89200,note_off,400,0,6,,,,,,,,3,,,,78,64
89200,note_off,400,0,20,,,,,,,,14,,,,54,64
89200,note_off,400,0,17,,,,,,,,11,,,,81,64
89200,note_off,400,0,21,,,,,,,,15,,,,42,64
89200,note_off,400,0,12,,,,,,,,7,,,,69,64
89200,note_off,400,0,5,,,,,,,,3,,,,81,64
89200,note_off,400,0,3,,,,,,,,2,,,,81,64
89200,note_off,400,0,18,,,,,,,,12,,,,78,64
89200,note_off,400,0,2,,,,,,,,1,,,,78,64
89200,note_off,400,0,4,,,,,,,,2,,,,78,64
89200,note_off,400,0,11,,,,,,,,6,,,,78,64
89200,note_off,400,0,10,,,,,,,,6,,,,81,64
89200,note_off,400,0,13,,,,,,,,7,,,,66,64
89200,note_off,400,0,16,,,,,,,,10,,,,45,64
89200,note_off,400,0,7,,,,,,,,4,,,,54,64
89280,note_on,80,0,17,,,,,,,,11,,,,81,108
89280,note_on,80,0,20,,,,,,,,14,,,,59,92
89280,note_on,80,0,19,,,,,,,,13,,,,74,92
89280,note_on,80,0,2,,,,,,,,1,,,,78,92
89280,note_on,80,0,12,,,,,,,,7,,,,69,92
89280,note_on,80,0,21,,,,,,,,15,,,,47,92
89280,note_on,80,0,3,,,,,,,,2,,,,81,92
89280,note_on,80,0,7,,,,,,,,4,,,,59,92
89280,note_on,80,0,1,,,,,,,,0,,,,81,92
89280,note_on,80,0,16,,,,,,,,10,,,,50,92
89280,note_on,80,0,15,,,,,,,,8,,,,47,92
89280,note_on,80,0,5,,,,,,,,3,,,,81,92
89280,note_on,80,0,13,,,,,,,,7,,,,66,92
89280,note_on,80,0,14,,,,,,,,7,,,,59,92
89280,note_on,80,0,18,,,,,,,,12,,,,78,92
89280,note_on,80,0,6,,,,,,,,3,,,,78,92
89280,note_on,80,0,11,,,,,,,,6,,,,78,92
89280,note_on,80,0,4,,,,,,,,2,,,,78,92
89280,note_on,80,0,10,,,,,,,,6,,,,81,92
89680,note_off,400,0,18,,,,,,,,12,,,,78,64
89680,note_off,400,0,1,,,,,,,,0,,,,81,64
89680,note_off,400,0,11,,,,,,,,6,,,,78,64
89680,note_off,400,0,6,,,,,,,,3,,,,78,64
89680,note_off,400,0,13,,,,,,,,7,,,,66,64
89680,note_off,400,0,4,,,,,,,,2,,,,78,64
89680,note_off,400,0,12,,,,,,,,7,,,,69,64
89680,note_off,400,0,5,,,,,,,,3,,,,81,64
89680,note_off,400,0,10,,,,,,,,6,,,,81,64
89680,note_off,400,0,17,,,,,,,,11,,,,81,64
89680,note_off,400,0,3,,,,,,,,2,,,,81,64
89680,note_off,400,0,2,,,,,,,,1,,,,78,64
89760,note_on,80,0,12,,,,,,,,7,,,,67,92
89760,note_on,80,0,2,,,,,,,,1,,,,76,92
89760,note_on,80,0,18,,,,,,,,12,,,,76,92
89760,note_on,80,0,1,,,,,,,,0,,,,79,92
89760,note_on,80,0,3,,,,,,,,2,,,,79,92
89760,note_on,80,0,4,,,,,,,,2,,,,76,92
89760,note_on,80,0,10,,,,,,,,6,,,,79,92
89760,note_on,80,0,5,,,,,,,,3,,,,79,92
89760,note_on,80,0,13,,,,,,,,7,,,,64,92
89760,note_on,80,0,17,,,,,,,,11,,,,79,108
89760,note_on,80,0,11,,,,,,,,6,,,,76,92
89760,note_on,80,0,6,,,,,,,,3,,,,76,92
90000,note_off,240,0,2,,,,,,,,1,,,,76,64
90000,note_off,240,0,4,,,,,,,,2,,,,76,64
90000,note_on,0,0,11,,,,,,,,6,,,,74,92
90000,note_off,240,0,17,,,,,,,,11,,,,79,64
90000,note_on,0,0,13,,,,,,,,7,,,,62,92
90000,note_off,240,0,10,,,,,,,,6,,,,79,64
90000,note_on,0,0,10,,,,,,,,6,,,,78,92
90000,note_off,240,0,11,,,,,,,,6,,,,76,64
90000,note_on,0,0,2,,,,,,,,1,,,,74,92
90000,note_off,240,0,13,,,,,,,,7,,,,64,64
90000,note_off,240,0,5,,,,,,,,3,,,,79,64
90000,note_on,0,0,5,,,,,,,,3,,,,78,92
90000,note_on,0,0,4,,,,,,,,2,,,,74,92
90000,note_on,0,0,1,,,,,,,,0,,,,78,92
90000,note_off,240,0,1,,,,,,,,0,,,,79,64
90000,note_off,240,0,3,,,,,,,,2,,,,79,64
90000,note_off,240,0,18,,,,,,,,12,,,,76,64
90000,note_off,240,0,12,,,,,,,,7,,,,67,64
90000,note_on,0,0,12,,,,,,,,7,,,,66,92
90000,note_on,0,0,3,,,,,,,,2,,,,78,92
90000,note_on,0,0,6,,,,,,,,3,,,,74,92
90000,note_off,240,0,6,,,,,,,,3,,,,76,64
90000,note_on,0,0,17,,,,,,,,11,,,,78,108
90000,note_on,0,0,18,,,,,,,,12,,,,74,92
90120,note_off,840,0,16,,,,,,,,10,,,,50,64
90120,note_off,840,0,14,,,,,,,,7,,,,59,64
90120,note_off,840,0,15,,,,,,,,8,,,,47,64
90120,note_off,840,0,7,,,,,,,,4,,,,59,64
90120,note_off,840,0,20,,,,,,,,14,,,,59,64
90120,note_off,840,0,21,,,,,,,,15,,,,47,64
90120,note_off,840,0,19,,,,,,,,13,,,,74,64
90235,note_off,235,0,4,,,,,,,,2,,,,74,64
90235,note_off,235,0,10,,,,,,,,6,,,,78,64
90235,note_off,235,0,2,,,,,,,,1,,,,74,64
90235,note_off,235,0,12,,,,,,,,7,,,,66,64
90235,note_off,235,0,13,,,,,,,,7,,,,62,64
90235,note_off,235,0,5,,,,,,,,3,,,,78,64
90235,note_off,235,0,17,,,,,,,,11,,,,78,64
90235,note_off,235,0,6,,,,,,,,3,,,,74,64
90235,note_off,235,0,3,,,,,,,,2,,,,78,64
90235,note_off,235,0,1,,,,,,,,0,,,,78,64
90235,note_off,235,0,18,,,,,,,,12,,,,74,64
90235,note_off,235,0,11,,,,,,,,6,,,,74,64
90240,note_on,5,0,4,,,,,,,,2,,,,76,92
90240,note_on,5,0,17,,,,,,,,11,,,,79,108
90240,note_on,120,0,19,,,,,,,,13,,,,64,92
90240,note_on,5,0,13,,,,,,,,7,,,,64,92
90240,note_on,5,0,18,,,,,,,,12,,,,76,92
90240,note_on,5,0,12,,,,,,,,7,,,,67,92
90240,note_on,5,0,10,,,,,,,,6,,,,79,92
90240,note_on,5,0,2,,,,,,,,1,,,,76,92
90240,note_on,5,0,5,,,,,,,,3,,,,79,92
90240,note_on,5,0,6,,,,,,,,3,,,,76,92
90240,note_on,5,0,3,,,,,,,,2,,,,79,92
90240,note_on,5,0,11,,,,,,,,6,,,,76,92
90240,note_on,5,0,1,,,,,,,,0,,,,79,92
90640,note_off,400,0,12,,,,,,,,7,,,,67,64
90640,note_off,400,0,17,,,,,,,,11,,,,79,64
90640,note_off,400,0,10,,,,,,,,6,,,,79,64
90640,note_off,400,0,13,,,,,,,,7,,,,64,64
90640,note_off,400,0,1,,,,,,,,0,,,,79,64
90640,note_off,400,0,5,,,,,,,,3,,,,79,64
90640,note_off,400,0,6,,,,,,,,3,,,,76,64
90640,note_off,400,0,2,,,,,,,,1,,,,76,64
90640,note_off,400,0,18,,,,,,,,12,,,,76,64
90640,note_off,400,0,3,,,,,,,,2,,,,79,64
90640,note_off,400,0,4,,,,,,,,2,,,,76,64
90640,note_off,400,0,11,,,,,,,,6,,,,76,64
90720,note_on,80,0,5,,,,,,,,3,,,,79,92
90720,note_on,80,0,11,,,,,,,,6,,,,76,92
90720,note_on,80,0,13,,,,,,,,7,,,,64,92
90720,note_on,80,0,6,,,,,,,,3,,,,76,92
90720,note_on,600,0,21,,,,,,,,15,,,,40,92
90720,note_on,80,0,10,,,,,,,,6,,,,79,92
90720,note_on,80,0,4,,,,,,,,2,,,,76,92
90720,note_on,80,0,3,,,,,,,,2,,,,79,92
90720,note_on,600,0,15,,,,,,,,8,,,,40,92
90720,note_on,600,0,7,,,,,,,,4,,,,52,92
90720,note_on,600,0,20,,,,,,,,14,,,,52,92
90720,note_on,80,0,1,,,,,,,,0,,,,79,92
90720,note_on,80,0,17,,,,,,,,11,,,,79,108
90720,note_on,80,0,18,,,,,,,,12,,,,76,92
90720,note_on,80,0,2,,,,,,,,1,,,,76,92
90720,note_on,600,0,14,,,,,,,,7,,,,52,92
90720,note_on,600,0,16,,,,,,,,10,,,,50,92
90720,note_on,80,0,12,,,,,,,,7,,,,67,92
91080,note_off,840,0,19,,,,,,,,13,,,,64,64
91120,note_off,400,0,1,,,,,,,,0,,,,79,64
91120,note_off,400,0,11,,,,,,,,6,,,,76,64
91120,note_off,400,0,2,,,,,,,,1,,,,76,64
91120,note_off,400,0,16,,,,,,,,10,,,,50,64
91120,note_off,400,0,15,,,,,,,,8,,,,40,64
91120,note_off,400,0,14,,,,,,,,7,,,,52,64
91120,note_off,400,0,5,,,,,,,,3,,,,79,64
91120,note_off,400,0,3,,,,,,,,2,,,,79,64
91120,note_off,400,0,13,,,,,,,,7,,,,64,64
91120,note_off,400,0,21,,,,,,,,15,,,,40,64
91120,note_off,400,0,20,,,,,,,,14,,,,52,64
91120,note_off,400,0,17,,,,,,,,11,,,,79,64
91120,note_off,400,0,10,,,,,,,,6,,,,79,64
91120,note_off,400,0,18,,,,,,,,12,,,,76,64
91120,note_off,400,0,6,,,,,,,,3,,,,76,64
91120,note_off,400,0,12,,,,,,,,7,,,,67,64
91120,note_off,400,0,4,,,,,,,,2,,,,76,64
91120,note_off,400,0,7,,,,,,,,4,,,,52,64
91200,note_on,80,0,17,,,,,,,,11,,,,79,108
91200,note_on,80,0,13,,,,,,,,7,,,,64,92
91200,note_on,80,0,20,,,,,,,,14,,,,55,92
91200,note_on,80,0,14,,,,,,,,7,,,,55,92
91200,note_on,80,0,12,,,,,,,,7,,,,67,92
91200,note_on,120,0,19,,,,,,,,13,,,,71,92
91200,note_on,80,0,2,,,,,,,,1,,,,76,92
91200,note_on,80,0,16,,,,,,,,10,,,,50,92
91200,note_on,80,0,21,,,,,,,,15,,,,43,92
91200,note_on,80,0,3,,,,,,,,2,,,,79,92
91200,note_on,80,0,4,,,,,,,,2,,,,76,92
91200,note_on,80,0,7,,,,,,,,4,,,,55,92
91200,note_on,80,0,15,,,,,,,,8,,,,43,92
91200,note_on,80,0,5,,,,,,,,3,,,,79,92
91200,note_on,80,0,6,,,,,,,,3,,,,76,92
91200,note_on,80,0,18,,,,,,,,12,,,,76,92
91200,note_on,80,0,11,,,,,,,,6,,,,76,92
91200,note_on,80,0,10,,,,,,,,6,,,,79,92
91200,note_on,80,0,1,,,,,,,,0,,,,79,92
91600,note_off,400,0,20,,,,,,,,14,,,,55,64
91600,note_off,400,0,6,,,,,,,,3,,,,76,64
91600,note_off,400,0,21,,,,,,,,15,,,,43,64
91600,note_off,400,0,5,,,,,,,,3,,,,79,64
91600,note_off,400,0,2,,,,,,,,1,,,,76,64
91600,note_off,400,0,13,,,,,,,,7,,,,64,64
91600,note_off,400,0,3,,,,,,,,2,,,,79,64
91600,note_off,400,0,17,,,,,,,,11,,,,79,64
91600,note_off,400,0,11,,,,,,,,6,,,,76,64
91600,note_off,400,0,12,,,,,,,,7,,,,67,64
91600,note_off,400,0,4,,,,,,,,2,,,,76,64
91600,note_off,400,0,7,,,,,,,,4,,,,55,64
91600,note_off,400,0,18,,,,,,,,12,,,,76,64
91600,note_off,400,0,10,,,,,,,,6,,,,79,64
91600,note_off,400,0,1,,,,,,,,0,,,,79,64
91600,note_off,400,0,15,,,,,,,,8,,,,43,64
91600,note_off,400,0,14,,,,,,,,7,,,,55,64
91600,note_off,400,0,16,,,,,,,,10,,,,50,64
91680,note_on,80,0,1,,,,,,,,0,,,,79,92
91680,note_on,80,0,13,,,,,,,,7,,,,64,92
91680,note_on,80,0,21,,,,,,,,15,,,,40,92
91680,note_on,80,0,12,,,,,,,,7,,,,67,92
91680,note_on,80,0,20,,,,,,,,14,,,,52,92
91680,note_on,80,0,4,,,,,,,,2,,,,74,92
91680,note_on,80,0,6,,,,,,,,3,,,,74,92
91680,note_on,80,0,2,,,,,,,,1,,,,74,92
91680,note_on,80,0,15,,,,,,,,8,,,,40,92
91680,note_on,80,0,3,,,,,,,,2,,,,79,92
91680,note_on,80,0,10,,,,,,,,6,,,,79,92
91680,note_on,80,0,18,,,,,,,,12,,,,74,92
91680,note_on,80,0,16,,,,,,,,10,,,,50,92
91680,note_on,80,0,11,,,,,,,,6,,,,76,92
91680,note_on,80,0,17,,,,,,,,11,,,,79,108
91680,note_on,80,0,5,,,,,,,,3,,,,79,92
91680,note_on,80,0,7,,,,,,,,4,,,,52,92
91680,note_on,80,0,14,,,,,,,,7,,,,52,92
92040,note_off,840,0,19,,,,,,,,13,,,,71,64
92080,note_off,400,0,10,,,,,,,,6,,,,79,64
92080,note_off,400,0,17,,,,,,,,11,,,,79,64
92080,note_off,400,0,1,,,,,,,,0,,,,79,64
92080,note_off,400,0,13,,,,,,,,7,,,,64,64
92080,note_off,400,0,3,,,,,,,,2,,,,79,64
92080,note_off,400,0,14,,,,,,,,7,,,,52,64
92080,note_off,400,0,20,,,,,,,,14,,,,52,64
92080,note_off,400,0,21,,,,,,,,15,,,,40,64
92080,note_off,400,0,7,,,,,,,,4,,,,52,64
92080,note_off,400,0,4,,,,,,,,2,,,,74,64
92080,note_off,400,0,2,,,,,,,,1,,,,74,64
92080,note_off,400,0,15,,,,,,,,8,,,,40,64
92080,note_off,400,0,16,,,,,,,,10,,,,50,64
92080,note_off,400,0,6,,,,,,,,3,,,,74,64
92080,note_off,400,0,11,,,,,,,,6,,,,76,64
92080,note_off,400,0,5,,,,,,,,3,,,,79,64
92080,note_off,400,0,12,,,,,,,,7,,,,67,64
92080,note_off,400,0,18,,,,,,,,12,,,,74,64
92160,note_on,80,0,3,,,,,,,,2,,,,79,92
92160,note_on,80,0,21,,,,,,,,15,,,,45,92
92160,note_on,80,0,5,,,,,,,,3,,,,79,92
92160,note_on,80,0,11,,,,,,,,6,,,,76,92
92160,note_on,80,0,15,,,,,,,,8,,,,45,92
92160,note_on,80,0,18,,,,,,,,12,,,,73,92
92160,note_on,80,0,14,,,,,,,,7,,,,57,92
92160,note_on,80,0,7,,,,,,,,4,,,,57,92
92160,note_on,80,0,6,,,,,,,,3,,,,69,92
92160,note_on,80,0,20,,,,,,,,14,,,,57,92
92160,note_on,80,0,10,,,,,,,,6,,,,79,92
92160,note_on,80,0,1,,,,,,,,0,,,,79,92
92160,note_on,80,0,17,,,,,,,,11,,,,79,108
92160,note_on,80,0,4,,,,,,,,2,,,,73,92
92160,note_on,120,0,19,,,,,,,,13,,,,69,92
92160,note_on,80,0,13,,,,,,,,7,,,,64,92
92160,note_on,80,0,12,,,,,,,,7,,,,67,92
92160,note_on,80,0,2,,,,,,,,1,,,,69,92
92160,note_on,80,0,16,,,,,,,,10,,,,45,92
92560,note_off,400,0,11,,,,,,,,6,,,,76,64
92560,note_off,400,0,13,,,,,,,,7,,,,64,64
92640,note_on,80,0,11,,,,,,,,6,,,,69,92
92640,note_on,80,0,13,,,,,,,,7,,,,57,92
93040,note_off,400,0,11,,,,,,,,6,,,,69,64
93040,note_off,400,0,13,,,,,,,,7,,,,57,64
93120,note_on,80,0,11,,,,,,,,6,,,,69,92
93120,note_on,80,0,13,,,,,,,,7,,,,57,92
93480,note_off,1320,0,14,,,,,,,,7,,,,57,64
93480,note_off,1320,0,21,,,,,,,,15,,,,45,64
93480,note_off,1320,0,19,,,,,,,,13,,,,69,64
93480,note_off,1320,0,20,,,,,,,,14,,,,57,64
93480,note_off,1320,0,4,,,,,,,,2,,,,73,64
93480,note_off,1320,0,6,,,,,,,,3,,,,69,64
93480,note_off,1320,0,16,,,,,,,,10,,,,45,64
93480,note_off,1320,0,2,,,,,,,,1,,,,69,64
93480,note_off,1320,0,15,,,,,,,,8,,,,45,64
93480,note_off,1320,0,7,,,,,,,,4,,,,57,64
93480,note_off,1320,0,18,,,,,,,,12,,,,73,64
93520,note_off,400,0,11,,,,,,,,6,,,,69,64
93520,note_off,400,0,13,,,,,,,,7,,,,57,64
93600,note_on,120,0,2,,,,,,,,1,,,,69,92
93600,note_on,120,0,19,,,,,,,,13,,,,69,92
93600,note_on,0,0,10,,,,,,,,6,,,,81,92
93600,note_on,120,0,7,,,,,,,,4,,,,57,92
93600,note_on,0,0,1,,,,,,,,0,,,,81,92
93600,note_off,1440,0,1,,,,,,,,0,,,,79,64
93600,note_on,120,0,21,,,,,,,,15,,,,45,92
93600,note_on,120,0,16,,,,,,,,10,,,,45,92
93600,note_on,120,0,4,,,,,,,,2,,,,73,92
93600,note_on,80,0,13,,,,,,,,7,,,,57,92
93600,note_off,1440,0,12,,,,,,,,7,,,,67,64
93600,note_off,1440,0,10,,,,,,,,6,,,,79,64
93600,note_on,120,0,20,,,,,,,,14,,,,57,92
93600,note_on,120,0,15,,,,,,,,8,,,,45,92
93600,note_on,120,0,6,,,,,,,,3,,,,69,92
93600,note_on,120,0,14,,,,,,,,7,,,,57,92
93600,note_on,0,0,17,,,,,,,,11,,,,81,108
93600,note_on,120,0,18,,,,,,,,12,,,,73,92
93600,note_off,1440,0,5,,,,,,,,3,,,,79,64
93600,note_on,0,0,5,,,,,,,,3,,,,81,92
93600,note_off,1440,0,3,,,,,,,,2,,,,79,64
93600,note_on,0,0,3,,,,,,,,2,,,,81,92
93600,note_off,1440,0,17,,,,,,,,11,,,,79,64
93600,note_on,80,0,11,,,,,,,,6,,,,69,92
93600,note_on,0,0,12,,,,,,,,7,,,,69,92
94000,note_off,400,0,17,,,,,,,,11,,,,81,64
94000,note_off,400,0,19,,,,,,,,13,,,,69,64
94000,note_off,400,0,18,,,,,,,,12,,,,73,64
94000,note_off,400,0,21,,,,,,,,15,,,,45,64
94000,note_off,400,0,16,,,,,,,,10,,,,45,64
94000,note_off,400,0,1,,,,,,,,0,,,,81,64
94000,note_off,400,0,7,,,,,,,,4,,,,57,64
94000,note_off,400,0,12,,,,,,,,7,,,,69,64
94000,note_off,400,0,14,,,,,,,,7,,,,57,64
94000,note_off,400,0,10,,,,,,,,6,,,,81,64
94000,note_off,400,0,13,,,,,,,,7,,,,57,64
94000,note_off,400,0,15,,,,,,,,8,,,,45,64
94000,note_off,400,0,4,,,,,,,,2,,,,73,64
94000,note_off,400,0,2,,,,,,,,1,,,,69,64
94000,note_off,400,0,20,,,,,,,,14,,,,57,64
94000,note_off,400,0,3,,,,,,,,2,,,,81,64
94000,note_off,400,0,5,,,,,,,,3,,,,81,64
94000,note_off,400,0,11,,,,,,,,6,,,,69,64
94000,note_off,400,0,6,,,,,,,,3,,,,69,64
94080,note_on,80,0,21,,,,,,,,15,,,,47,92
94080,note_on,80,0,20,,,,,,,,14,,,,59,92
94080,note_on,80,0,1,,,,,,,,0,,,,78,92
94080,note_on,80,0,13,,,,,,,,7,,,,62,92
94080,note_on,80,0,12,,,,,,,,7,,,,66,92
94080,note_on,80,0,7,,,,,,,,4,,,,59,92
94080,note_on,80,0,5,,,,,,,,3,,,,78,92
94080,note_on,80,0,19,,,,,,,,13,,,,62,92
94080,note_on,80,0,16,,,,,,,,10,,,,50,92
94080,note_on,80,0,2,,,,,,,,1,,,,71,92
94080,note_on,80,0,18,,,,,,,,12,,,,74,92
94080,note_on,80,0,6,,,,,,,,3,,,,71,92
94080,note_on,80,0,11,,,,,,,,6,,,,74,92
94080,note_on,80,0,17,,,,,,,,11,,,,78,108
94080,note_on,80,0,3,,,,,,,,2,,,,78,92
94080,note_on,80,0,10,,,,,,,,6,,,,78,92
94080,note_on,80,0,4,,,,,,,,2,,,,74,92
94080,note_on,80,0,15,,,,,,,,8,,,,47,92
94080,note_on,80,0,14,,,,,,,,7,,,,59,92
94480,note_off,400,0,11,,,,,,,,6,,,,74,64
94480,note_off,400,0,16,,,,,,,,10,,,,50,64
94480,note_off,400,0,13,,,,,,,,7,,,,62,64
94560,note_on,0,0,10,,,,,,,,6,,,,76,92
94560,note_off,480,0,17,,,,,,,,11,,,,78,64
94560,note_on,80,0,11,,,,,,,,6,,,,69,92
94560,note_off,480,0,1,,,,,,,,0,,,,78,64
94560,note_on,80,0,16,,,,,,,,10,,,,50,92
94560,note_off,480,0,3,,,,,,,,2,,,,78,64
94560,note_on,0,0,17,,,,,,,,11,,,,76,108
94560,note_off,480,0,12,,,,,,,,7,,,,66,64
94560,note_on,0,0,12,,,,,,,,7,,,,64,92
94560,note_off,480,0,5,,,,,,,,3,,,,78,64
94560,note_on,80,0,13,,,,,,,,7,,,,57,92
94560,note_on,0,0,5,,,,,,,,3,,,,76,92
94560,note_off,480,0,10,,,,,,,,6,,,,78,64
94560,note_on,0,0,1,,,,,,,,0,,,,76,92
94560,note_on,0,0,3,,,,,,,,2,,,,76,92
94920,note_off,840,0,2,,,,,,,,1,,,,71,64
94920,note_off,840,0,6,,,,,,,,3,,,,71,64
94960,note_off,400,0,16,,,,,,,,10,,,,50,64
94960,note_off,400,0,13,,,,,,,,7,,,,57,64
94960,note_off,400,0,11,,,,,,,,6,,,,69,64
94960,note_off,400,0,17,,,,,,,,11,,,,76,64
95040,note_on,120,0,6,,,,,,,,3,,,,67,92
95040,note_on,80,0,13,,,,,,,,7,,,,50,92
95040,note_on,0,0,1,,,,,,,,0,,,,78,92
95040,note_off,480,0,1,,,,,,,,0,,,,76,64
95040,note_off,480,0,12,,,,,,,,7,,,,64,64
95040,note_on,80,0,16,,,,,,,,10,,,,50,92
95040,note_on,80,0,11,,,,,,,,6,,,,62,92
95040,note_on,80,0,17,,,,,,,,11,,,,78,108
95040,note_on,0,0,12,,,,,,,,7,,,,66,92
95040,note_off,480,0,3,,,,,,,,2,,,,76,64
95040,note_on,0,0,10,,,,,,,,6,,,,78,92
95040,note_off,480,0,5,,,,,,,,3,,,,76,64
95040,note_on,0,0,5,,,,,,,,3,,,,78,92
95040,note_off,480,0,10,,,,,,,,6,,,,76,64
95040,note_on,0,0,3,,,,,,,,2,,,,78,92
95040,note_on,120,0,2,,,,,,,,1,,,,67,92
95440,note_off,1360,0,20,,,,,,,,14,,,,59,64
95440,note_off,1360,0,7,,,,,,,,4,,,,59,64
95440,note_off,1360,0,21,,,,,,,,15,,,,47,64
95440,note_off,1360,0,15,,,,,,,,8,,,,47,64
95440,note_off,400,0,13,,,,,,,,7,,,,50,64
95440,note_off,1360,0,14,,,,,,,,7,,,,59,64
95440,note_off,1360,0,19,,,,,,,,13,,,,62,64
95440,note_off,400,0,11,,,,,,,,6,,,,62,64
95440,note_off,400,0,16,,,,,,,,10,,,,50,64
95440,note_off,1360,0,4,,,,,,,,2,,,,74,64
95440,note_off,1360,0,18,,,,,,,,12,,,,74,64
95520,note_on,80,0,4,,,,,,,,2,,,,76,92
95520,note_on,80,0,13,,,,,,,,7,,,,50,92
95520,note_on,0,0,5,,,,,,,,3,,,,79,92
95520,note_off,480,0,1,,,,,,,,0,,,,78,64
95520,note_off,480,0,5,,,,,,,,3,,,,78,64
95520,note_on,80,0,15,,,,,,,,8,,,,43,92
95520,note_off,480,0,17,,,,,,,,11,,,,78,64
95520,note_on,0,0,17,,,,,,,,11,,,,79,108
95520,note_on,80,0,20,,,,,,,,14,,,,55,92
95520,note_on,0,0,1,,,,,,,,0,,,,79,92
95520,note_on,80,0,18,,,,,,,,12,,,,71,92
95520,note_on,80,0,11,,,,,,,,6,,,,62,92
95520,note_on,80,0,16,,,,,,,,10,,,,50,92
95520,note_on,80,0,19,,,,,,,,13,,,,64,92
95520,note_on,80,0,21,,,,,,,,15,,,,43,92
95520,note_off,480,0,10,,,,,,,,6,,,,78,64
95520,note_on,80,0,7,,,,,,,,4,,,,55,92
95520,note_on,0,0,10,,,,,,,,6,,,,79,92
95520,note_off,480,0,12,,,,,,,,7,,,,66,64
95520,note_on,0,0,12,,,,,,,,7,,,,67,92
95520,note_on,0,0,3,,,,,,,,2,,,,79,92
95520,note_off,480,0,3,,,,,,,,2,,,,78,64
95520,note_on,80,0,14,,,,,,,,7,,,,55,92
95880,note_off,840,0,6,,,,,,,,3,,,,67,64
95880,note_off,840,0,2,,,,,,,,1,,,,67,64
95920,note_off,400,0,1,,,,,,,,0,,,,79,64
95920,note_off,400,0,11,,,,,,,,6,,,,62,64
95920,note_off,400,0,5,,,,,,,,3,,,,79,64
95920,note_off,400,0,13,,,,,,,,7,,,,50,64
95920,note_off,400,0,4,,,,,,,,2,,,,76,64
95920,note_off,400,0,15,,,,,,,,8,,,,43,64
95920,note_off,400,0,10,,,,,,,,6,,,,79,64
95920,note_off,400,0,17,,,,,,,,11,,,,79,64
95920,note_off,400,0,16,,,,,,,,10,,,,50,64
95920,note_off,400,0,18,,,,,,,,12,,,,71,64
95920,note_off,400,0,20,,,,,,,,14,,,,55,64
95920,note_off,400,0,3,,,,,,,,2,,,,79,64
95920,note_off,400,0,7,,,,,,,,4,,,,55,64
95920,note_off,400,0,12,,,,,,,,7,,,,67,64
95920,note_off,400,0,19,,,,,,,,13,,,,64,64
95920,note_off,400,0,21,,,,,,,,15,,,,43,64
95920,note_off,400,0,14,,,,,,,,7,,,,55,64
96000,note_on,120,0,6,,,,,,,,3,,,,69,92
96000,note_on,80,0,7,,,,,,,,4,,,,57,92
96000,note_on,80,0,13,,,,,,,,7,,,,57,92
96000,note_on,80,0,14,,,,,,,,7,,,,57,92
96000,note_on,80,0,10,,,,,,,,6,,,,76,92
96000,note_on,80,0,15,,,,,,,,8,,,,45,92
96000,note_on,80,0,18,,,,,,,,12,,,,64,92
96000,note_on,80,0,21,,,,,,,,15,,,,45,92
96000,note_on,80,0,17,,,,,,,,11,,,,76,108
96000,note_on,80,0,4,,,,,,,,2,,,,73,92
96000,note_on,120,0,2,,,,,,,,1,,,,69,92
96000,note_on,80,0,19,,,,,,,,13,,,,61,92
96000,note_on,80,0,20,,,,,,,,14,,,,57,92
96000,note_on,80,0,12,,,,,,,,7,,,,64,92
96000,note_on,80,0,11,,,,,,,,6,,,,69,92
96000,note_on,80,0,1,,,,,,,,0,,,,76,92
96000,note_on,80,0,3,,,,,,,,2,,,,76,92
96000,note_on,80,0,16,,,,,,,,10,,,,45,92
96000,note_on,80,0,5,,,,,,,,3,,,,76,92
96120,note_off,120,0,1,,,,,,,,0,,,,76,64
96120,note_on,0,0,1,,,,,,,,0,,,,78,92
96120,note_on,0,0,17,,,,,,,,11,,,,78,108
96120,note_off,120,0,17,,,,,,,,11,,,,76,64
96120,note_off,120,0,3,,,,,,,,2,,,,76,64
96120,note_off,120,0,5,,,,,,,,3,,,,76,64
96120,note_on,0,0,5,,,,,,,,3,,,,78,92
96120,note_on,0,0,3,,,,,,,,2,,,,78,92
96240,note_off,120,0,5,,,,,,,,3,,,,78,64
96240,note_off,120,0,3,,,,,,,,2,,,,78,64
96240,note_off,120,0,17,,,,,,,,11,,,,78,64
96240,note_on,0,0,17,,,,,,,,11,,,,76,108
96240,note_on,0,0,3,,,,,,,,2,,,,76,92
96240,note_on,0,0,1,,,,,,,,0,,,,76,92
96240,note_off,120,0,1,,,,,,,,0,,,,78,64
96240,note_on,0,0,5,,,,,,,,3,,,,76,92
96360,note_off,120,0,3,,,,,,,,2,,,,76,64
96360,note_on,0,0,3,,,,,,,,2,,,,78,92
96360,note_off,120,0,17,,,,,,,,11,,,,76,64
96360,note_on,0,0,17,,,,,,,,11,,,,78,108
96360,note_off,120,0,5,,,,,,,,3,,,,76,64
96360,note_on,0,0,5,,,,,,,,3,,,,78,92
96360,note_off,120,0,1,,,,,,,,0,,,,76,64
96360,note_on,0,0,1,,,,,,,,0,,,,78,92
96400,note_off,400,0,13,,,,,,,,7,,,,57,64
96400,note_off,400,0,11,,,,,,,,6,,,,69,64
96480,note_on,80,0,11,,,,,,,,6,,,,69,92
96480,note_off,120,0,3,,,,,,,,2,,,,78,64
96480,note_on,0,0,3,,,,,,,,2,,,,76,92
96480,note_off,120,0,1,,,,,,,,0,,,,78,64
96480,note_on,0,0,1,,,,,,,,0,,,,76,92
96480,note_off,120,0,17,,,,,,,,11,,,,78,64
96480,note_on,0,0,17,,,,,,,,11,,,,76,108
96480,note_off,120,0,5,,,,,,,,3,,,,78,64
96480,note_on,0,0,5,,,,,,,,3,,,,76,92
96480,note_on,80,0,13,,,,,,,,7,,,,57,92
96600,note_off,120,0,17,,,,,,,,11,,,,76,64
96600,note_on,0,0,17,,,,,,,,11,,,,78,108
96600,note_on,0,0,5,,,,,,,,3,,,,78,92
96600,note_off,120,0,5,,,,,,,,3,,,,76,64
96600,note_off,120,0,3,,,,,,,,2,,,,76,64
96600,note_on,0,0,3,,,,,,,,2,,,,78,92
96600,note_off,120,0,1,,,,,,,,0,,,,76,64
96600,note_on,0,0,1,,,,,,,,0,,,,78,92
96720,note_off,120,0,3,,,,,,,,2,,,,78,64
96720,note_on,0,0,1,,,,,,,,0,,,,76,92
96720,note_off,120,0,1,,,,,,,,0,,,,78,64
96720,note_off,120,0,5,,,,,,,,3,,,,78,64
96720,note_on,0,0,17,,,,,,,,11,,,,76,108
96720,note_off,120,0,17,,,,,,,,11,,,,78,64
96720,note_on,0,0,5,,,,,,,,3,,,,76,92
96720,note_on,0,0,3,,,,,,,,2,,,,76,92
96840,note_off,120,0,1,,,,,,,,0,,,,76,64
96840,note_off,840,0,20,,,,,,,,14,,,,57,64
96840,note_on,0,0,5,,,,,,,,3,,,,78,92
96840,note_off,840,0,6,,,,,,,,3,,,,69,64
96840,note_off,120,0,5,,,,,,,,3,,,,76,64
96840,note_on,0,0,1,,,,,,,,0,,,,78,92
96840,note_off,840,0,2,,,,,,,,1,,,,69,64
96840,note_off,840,0,18,,,,,,,,12,,,,64,64
96840,note_off,120,0,17,,,,,,,,11,,,,76,64
96840,note_on,0,0,17,,,,,,,,11,,,,78,108
96840,note_off,840,0,16,,,,,,,,10,,,,45,64
96840,note_off,840,0,21,,,,,,,,15,,,,45,64
96840,note_off,840,0,14,,,,,,,,7,,,,57,64
96840,note_on,0,0,3,,,,,,,,2,,,,78,92
96840,note_off,120,0,3,,,,,,,,2,,,,76,64
96840,note_off,840,0,7,,,,,,,,4,,,,57,64
96840,note_off,840,0,15,,,,,,,,8,,,,45,64
96880,note_off,400,0,13,,,,,,,,7,,,,57,64
96880,note_off,400,0,11,,,,,,,,6,,,,69,64
96960,note_on,120,0,7,,,,,,,,4,,,,45,92
96960,note_on,120,0,16,,,,,,,,10,,,,45,92
96960,note_on,0,0,5,,,,,,,,3,,,,76,92
96960,note_off,120,0,5,,,,,,,,3,,,,78,64
96960,note_on,120,0,21,,,,,,,,15,,,,33,92
96960,note_off,120,0,1,,,,,,,,0,,,,78,64
96960,note_on,120,0,6,,,,,,,,3,,,,69,92
96960,note_on,80,0,11,,,,,,,,6,,,,69,92
96960,note_on,0,0,17,,,,,,,,11,,,,76,108
96960,note_on,120,0,2,,,,,,,,1,,,,69,92
96960,note_off,120,0,17,,,,,,,,11,,,,78,64
96960,note_on,120,0,20,,,,,,,,14,,,,45,92
96960,note_on,120,0,18,,,,,,,,12,,,,69,92
96960,note_on,0,0,3,,,,,,,,2,,,,76,92
96960,note_on,80,0,13,,,,,,,,7,,,,57,92
96960,note_off,120,0,3,,,,,,,,2,,,,78,64
96960,note_on,0,0,1,,,,,,,,0,,,,76,92
96960,note_on,120,0,14,,,,,,,,7,,,,45,92
96960,note_on,120,0,15,,,,,,,,8,,,,33,92
97080,note_on,0,0,3,,,,,,,,2,,,,78,92
97080,note_off,120,0,3,,,,,,,,2,,,,76,64
97080,note_on,0,0,17,,,,,,,,11,,,,78,108
97080,note_off,120,0,17,,,,,,,,11,,,,76,64
97080,note_on,0,0,1,,,,,,,,0,,,,78,92
97080,note_off,120,0,1,,,,,,,,0,,,,76,64
97080,note_off,120,0,5,,,,,,,,3,,,,76,64
97080,note_on,0,0,5,,,,,,,,3,,,,78,92
97200,note_on,0,0,1,,,,,,,,0,,,,74,92
97200,note_off,120,0,5,,,,,,,,3,,,,78,64
97200,note_off,120,0,17,,,,,,,,11,,,,78,64
97200,note_on,0,0,17,,,,,,,,11,,,,74,108
97200,note_off,120,0,1,,,,,,,,0,,,,78,64
97200,note_off,120,0,3,,,,,,,,2,,,,78,64
97200,note_on,0,0,5,,,,,,,,3,,,,74,92
97200,note_on,0,0,3,,,,,,,,2,,,,74,92
97320,note_off,120,0,17,,,,,,,,11,,,,74,64
97320,note_off,120,0,3,,,,,,,,2,,,,74,64
97320,note_on,0,0,17,,,,,,,,11,,,,76,108
97320,note_on,0,0,5,,,,,,,,3,,,,76,92
97320,note_off,120,0,5,,,,,,,,3,,,,74,64
97320,note_on,0,0,3,,,,,,,,2,,,,76,92
97320,note_off,120,0,1,,,,,,,,0,,,,74,64
97320,note_on,0,0,1,,,,,,,,0,,,,76,92
97360,note_off,400,0,11,,,,,,,,6,,,,69,64
97360,note_off,400,0,13,,,,,,,,7,,,,57,64
97440,note_on,0,0,4,,,,,,,,2,,,,74,92
97440,note_off,1440,0,12,,,,,,,,7,,,,64,64
97440,note_on,0,0,10,,,,,,,,6,,,,74,92
97440,note_off,120,0,5,,,,,,,,3,,,,76,64
97440,note_on,0,0,12,,,,,,,,7,,,,62,92
97440,note_on,0,0,17,,,,,,,,11,,,,74,108
97440,note_off,120,0,17,,,,,,,,11,,,,76,64
97440,note_on,80,0,13,,,,,,,,7,,,,57,92
97440,note_on,0,0,5,,,,,,,,3,,,,74,92
97440,note_off,1440,0,10,,,,,,,,6,,,,76,64
97440,note_off,120,0,3,,,,,,,,2,,,,76,64
97440,note_on,0,0,19,,,,,,,,13,,,,62,92
97440,note_off,1440,0,19,,,,,,,,13,,,,61,64
97440,note_off,120,0,1,,,,,,,,0,,,,76,64
97440,note_on,0,0,1,,,,,,,,0,,,,74,92
97440,note_on,80,0,11,,,,,,,,6,,,,69,92
97440,note_off,1440,0,4,,,,,,,,2,,,,73,64
97440,note_on,0,0,3,,,,,,,,2,,,,74,92
97800,note_off,840,0,14,,,,,,,,7,,,,45,64
97800,note_off,840,0,18,,,,,,,,12,,,,69,64
97800,note_off,840,0,16,,,,,,,,10,,,,45,64
97800,note_off,840,0,20,,,,,,,,14,,,,45,64
97800,note_off,840,0,2,,,,,,,,1,,,,69,64
97800,note_off,840,0,6,,,,,,,,3,,,,69,64
97800,note_off,840,0,7,,,,,,,,4,,,,45,64
97800,note_off,840,0,21,,,,,,,,15,,,,33,64
97800,note_off,840,0,15,,,,,,,,8,,,,33,64
97840,note_off,400,0,5,,,,,,,,3,,,,74,64
97840,note_off,400,0,11,,,,,,,,6,,,,69,64
97840,note_off,400,0,19,,,,,,,,13,,,,62,64
97840,note_off,400,0,12,,,,,,,,7,,,,62,64
97840,note_off,400,0,10,,,,,,,,6,,,,74,64
97840,note_off,400,0,13,,,,,,,,7,,,,57,64
97840,note_off,400,0,4,,,,,,,,2,,,,74,64
97840,note_off,400,0,17,,,,,,,,11,,,,74,64
97840,note_off,400,0,1,,,,,,,,0,,,,74,64
97840,note_off,400,0,3,,,,,,,,2,,,,74,64
97920,note_on,120,0,15,,,,,,,,8,,,,38,92
97920,note_on,120,0,6,,,,,,,,3,,,,66,92
97920,note_on,80,0,3,,,,,,,,2,,,,74,92
97920,note_on,80,0,5,,,,,,,,3,,,,74,92
97920,note_on,80,0,13,,,,,,,,7,,,,54,92
97920,note_on,120,0,18,,,,,,,,12,,,,66,92
97920,note_on,120,0,16,,,,,,,,10,,,,50,92
97920,note_on,120,0,14,,,,,,,,7,,,,50,92
97920,note_on,120,0,21,,,,,,,,15,,,,38,92
97920,note_on,80,0,1,,,,,,,,0,,,,74,92
97920,note_on,80,0,4,,,,,,,,2,,,,74,92
97920,note_on,80,0,17,,,,,,,,11,,,,74,108
97920,note_on,80,0,10,,,,,,,,6,,,,74,92
97920,note_on,120,0,7,,,,,,,,4,,,,50,92
97920,note_on,80,0,11,,,,,,,,6,,,,66,92
97920,note_on,80,0,19,,,,,,,,13,,,,62,92
97920,note_on,120,0,20,,,,,,,,14,,,,50,92
97920,note_on,80,0,12,,,,,,,,7,,,,62,92
97920,note_on,120,0,2,,,,,,,,1,,,,66,92
98320,note_off,400,0,14,,,,,,,,7,,,,50,64
98320,note_off,400,0,21,,,,,,,,15,,,,38,64
98320,note_off,400,0,15,,,,,,,,8,,,,38,64
98320,note_off,400,0,20,,,,,,,,14,,,,50,64
98320,note_off,400,0,16,,,,,,,,10,,,,50,64
98320,note_off,400,0,7,,,,,,,,4,,,,50,64
98400,note_on,80,0,16,,,,,,,,10,,,,45,92
98400,note_on,80,0,21,,,,,,,,15,,,,50,92
98400,note_on,80,0,20,,,,,,,,14,,,,62,92
98400,note_on,80,0,14,,,,,,,,7,,,,62,92
98400,note_on,80,0,15,,,,,,,,8,,,,50,92
98400,note_on,80,0,7,,,,,,,,4,,,,62,92
98760,note_off,840,0,19,,,,,,,,13,,,,62,64
98760,note_off,840,0,4,,,,,,,,2,,,,74,64
98760,note_off,840,0,13,,,,,,,,7,,,,54,64
98760,note_off,840,0,12,,,,,,,,7,,,,62,64
98760,note_off,840,0,3,,,,,,,,2,,,,74,64
98760,note_off,840,0,5,,,,,,,,3,,,,74,64
98760,note_off,840,0,6,,,,,,,,3,,,,66,64
98760,note_off,840,0,2,,,,,,,,1,,,,66,64
98760,note_off,840,0,18,,,,,,,,12,,,,66,64
98760,note_off,840,0,10,,,,,,,,6,,,,74,64
98760,note_off,840,0,17,,,,,,,,11,,,,74,64
98760,note_off,840,0,1,,,,,,,,0,,,,74,64
98760,note_off,840,0,11,,,,,,,,6,,,,66,64
98800,note_off,400,0,20,,,,,,,,14,,,,62,64
98800,note_off,400,0,7,,,,,,,,4,,,,62,64
98800,note_off,400,0,21,,,,,,,,15,,,,50,64
98800,note_off,400,0,16,,,,,,,,10,,,,45,64
98800,note_off,400,0,15,,,,,,,,8,,,,50,64
98800,note_off,400,0,14,,,,,,,,7,,,,62,64
98880,note_on,80,0,15,,,,,,,,8,,,,45,92
98880,note_on,80,0,16,,,,,,,,10,,,,50,92
98880,note_on,80,0,14,,,,,,,,7,,,,57,92
98880,note_on,80,0,7,,,,,,,,4,,,,57,92
98880,note_on,80,0,20,,,,,,,,14,,,,57,92
98880,note_on,80,0,21,,,,,,,,15,,,,45,92
99280,note_off,400,0,16,,,,,,,,10,,,,50,64
99280,note_off,400,0,14,,,,,,,,7,,,,57,64
99280,note_off,400,0,21,,,,,,,,15,,,,45,64
99280,note_off,400,0,20,,,,,,,,14,,,,57,64
99280,note_off,400,0,7,,,,,,,,4,,,,57,64
99280,note_off,400,0,15,,,,,,,,8,,,,45,64
99360,note_on,80,0,7,,,,,,,,4,,,,54,92
99360,note_on,600,0,1,,,,,,,,0,,,,81,92
99360,note_on,80,0,14,,,,,,,,7,,,,54,92
99360,note_on,600,0,13,,,,,,,,7,,,,66,92
99360,note_on,600,0,19,,,,,,,,13,,,,69,92
99360,note_on,600,0,17,,,,,,,,11,,,,81,108
99360,note_on,600,0,10,,,,,,,,6,,,,81,92
99360,note_on,600,0,11,,,,,,,,6,,,,78,92
99360,note_on,11160,0,8,,,,,,,,5,,,,69,92
99360,note_on,600,0,12,,,,,,,,7,,,,69,92
99360,note_on,80,0,21,,,,,,,,15,,,,42,92
99360,note_on,600,0,18,,,,,,,,12,,,,78,92
99360,note_on,80,0,15,,,,,,,,8,,,,42,92
99360,note_on,600,0,2,,,,,,,,1,,,,78,92
99360,note_on,80,0,16,,,,,,,,10,,,,45,92
99360,note_on,80,0,20,,,,,,,,14,,,,54,92
99360,note_on,11160,0,9,,,,,,,,5,,,,66,92
99360,note_on,600,0,6,,,,,,,,3,,,,78,92
99360,note_on,600,0,5,,,,,,,,3,,,,81,92
99360,note_on,600,0,3,,,,,,,,2,,,,81,92
99360,note_on,600,0,4,,,,,,,,2,,,,78,92
99760,note_off,400,0,18,,,,,,,,12,,,,78,64
99760,note_off,400,0,21,,,,,,,,15,,,,42,64
99760,note_off,400,0,7,,,,,,,,4,,,,54,64
99760,note_off,400,0,1,,,,,,,,0,,,,81,64
99760,note_off,400,0,14,,,,,,,,7,,,,54,64
99760,note_off,400,0,3,,,,,,,,2,,,,81,64
99760,note_off,400,0,17,,,,,,,,11,,,,81,64
99760,note_off,400,0,15,,,,,,,,8,,,,42,64
99760,note_off,400,0,10,,,,,,,,6,,,,81,64
99760,note_off,400,0,13,,,,,,,,7,,,,66,64
99760,note_off,400,0,19,,,,,,,,13,,,,69,64
99760,note_off,400,0,5,,,,,,,,3,,,,81,64
99760,note_off,400,0,16,,,,,,,,10,,,,45,64
99760,note_off,400,0,6,,,,,,,,3,,,,78,64
99760,note_off,400,0,20,,,,,,,,14,,,,54,64
99760,note_off,400,0,8,,,,,,,,5,,,,69,64
99760,note_off,400,0,12,,,,,,,,7,,,,69,64
99760,note_off,400,0,2,,,,,,,,1,,,,78,64
99760,note_off,400,0,9,,,,,,,,5,,,,66,64
99760,note_off,400,0,4,,,,,,,,2,,,,78,64
99760,note_off,400,0,11,,,,,,,,6,,,,78,64
99840,note_on,80,0,5,,,,,,,,3,,,,81,92
99840,note_on,80,0,1,,,,,,,,0,,,,81,92
99840,note_on,80,0,3,,,,,,,,2,,,,81,92
99840,note_on,80,0,8,,,,,,,,5,,,,69,92
99840,note_on,80,0,12,,,,,,,,7,,,,69,92
99840,note_on,80,0,17,,,,,,,,11,,,,81,108
99840,note_on,80,0,10,,,,,,,,6,,,,81,92
99840,note_on,80,0,15,,,,,,,,8,,,,45,92
99840,note_on,80,0,6,,,,,,,,3,,,,78,92
99840,note_on,80,0,19,,,,,,,,13,,,,73,92
99840,note_on,80,0,4,,,,,,,,2,,,,78,92
99840,note_on,80,0,13,,,,,,,,7,,,,66,92
99840,note_on,80,0,7,,,,,,,,4,,,,57,92
99840,note_on,80,0,16,,,,,,,,10,,,,50,92
99840,note_on,80,0,20,,,,,,,,14,,,,57,92
99840,note_on,80,0,18,,,,,,,,12,,,,78,92
99840,note_on,80,0,21,,,,,,,,15,,,,45,92
99840,note_on,80,0,11,,,,,,,,6,,,,78,92
99840,note_on,80,0,9,,,,,,,,5,,,,66,92
99840,note_on,80,0,2,,,,,,,,1,,,,78,92
99840,note_on,80,0,14,,,,,,,,7,,,,57,92
100240,note_off,400,0,12,,,,,,,,7,,,,69,64
100240,note_off,400,0,20,,,,,,,,14,,,,57,64
100240,note_off,400,0,6,,,,,,,,3,,,,78,64
100240,note_off,400,0,11,,,,,,,,6,,,,78,64
100240,note_off,400,0,3,,,,,,,,2,,,,81,64
100240,note_off,400,0,15,,,,,,,,8,,,,45,64
100240,note_off,400,0,18,,,,,,,,12,,,,78,64
100240,note_off,400,0,5,,,,,,,,3,,,,81,64
100240,note_off,400,0,7,,,,,,,,4,,,,57,64
100240,note_off,400,0,10,,,,,,,,6,,,,81,64
100240,note_off,400,0,2,,,,,,,,1,,,,78,64
100240,note_off,400,0,4,,,,,,,,2,,,,78,64
100240,note_off,400,0,16,,,,,,,,10,,,,50,64
100240,note_off,400,0,13,,,,,,,,7,,,,66,64
100240,note_off,400,0,21,,,,,,,,15,,,,45,64
100240,note_off,400,0,14,,,,,,,,7,,,,57,64
100240,note_off,400,0,19,,,,,,,,13,,,,73,64
100240,note_off,400,0,17,,,,,,,,11,,,,81,64
100240,note_off,400,0,8,,,,,,,,5,,,,69,64
100240,note_off,400,0,1,,,,,,,,0,,,,81,64
100240,note_off,400,0,9,,,,,,,,5,,,,66,64
100320,note_on,80,0,6,,,,,,,,3,,,,78,92
100320,note_on,80,0,8,,,,,,,,5,,,,69,92
100320,note_on,80,0,14,,,,,,,,7,,,,54,92
100320,note_on,80,0,12,,,,,,,,7,,,,69,92
100320,note_on,80,0,19,,,,,,,,13,,,,69,92
100320,note_on,80,0,11,,,,,,,,6,,,,78,92
100320,note_on,80,0,20,,,,,,,,14,,,,54,92
100320,note_on,80,0,9,,,,,,,,5,,,,66,92
100320,note_on,80,0,16,,,,,,,,10,,,,45,92
100320,note_on,80,0,13,,,,,,,,7,,,,66,92
100320,note_on,80,0,2,,,,,,,,1,,,,78,92
100320,note_on,80,0,7,,,,,,,,4,,,,54,92
100320,note_on,80,0,21,,,,,,,,15,,,,42,92
100320,note_on,80,0,5,,,,,,,,3,,,,81,92
100320,note_on,80,0,17,,,,,,,,11,,,,81,108
100320,note_on,80,0,1,,,,,,,,0,,,,81,92
100320,note_on,80,0,18,,,,,,,,12,,,,78,92
100320,note_on,80,0,10,,,,,,,,6,,,,81,92
100320,note_on,80,0,15,,,,,,,,8,,,,42,92
100320,note_on,80,0,4,,,,,,,,2,,,,78,92
100320,note_on,80,0,3,,,,,,,,2,,,,81,92
100720,note_off,400,0,13,,,,,,,,7,,,,66,64
100720,note_off,400,0,17,,,,,,,,11,,,,81,64
100720,note_off,400,0,9,,,,,,,,5,,,,66,64
100720,note_off,400,0,10,,,,,,,,6,,,,81,64
100720,note_off,400,0,12,,,,,,,,7,,,,69,64
100720,note_off,400,0,19,,,,,,,,13,,,,69,64
100720,note_off,400,0,5,,,,,,,,3,,,,81,64
100720,note_off,400,0,2,,,,,,,,1,,,,78,64
100720,note_off,400,0,8,,,,,,,,5,,,,69,64
100720,note_off,400,0,20,,,,,,,,14,,,,54,64
100720,note_off,400,0,21,,,,,,,,15,,,,42,64
100720,note_off,400,0,7,,,,,,,,4,,,,54,64
100720,note_off,400,0,18,,,,,,,,12,,,,78,64
100720,note_off,400,0,3,,,,,,,,2,,,,81,64
100720,note_off,400,0,14,,,,,,,,7,,,,54,64
100720,note_off,400,0,16,,,,,,,,10,,,,45,64
100720,note_off,400,0,1,,,,,,,,0,,,,81,64
100720,note_off,400,0,15,,,,,,,,8,,,,42,64
100720,note_off,400,0,4,,,,,,,,2,,,,78,64
100720,note_off,400,0,11,,,,,,,,6,,,,78,64
100720,note_off,400,0,6,,,,,,,,3,,,,78,64
100800,note_on,80,0,12,,,,,,,,7,,,,69,92
100800,note_on,80,0,3,,,,,,,,2,,,,81,92
100800,note_on,80,0,6,,,,,,,,3,,,,78,92
100800,note_on,80,0,8,,,,,,,,5,,,,69,92
100800,note_on,80,0,5,,,,,,,,3,,,,81,92
100800,note_on,80,0,19,,,,,,,,13,,,,74,92
100800,note_on,80,0,4,,,,,,,,2,,,,78,92
100800,note_on,80,0,13,,,,,,,,7,,,,66,92
100800,note_on,80,0,2,,,,,,,,1,,,,78,92
100800,note_on,80,0,11,,,,,,,,6,,,,78,92
100800,note_on,80,0,20,,,,,,,,14,,,,59,92
100800,note_on,80,0,7,,,,,,,,4,,,,59,92
100800,note_on,80,0,21,,,,,,,,15,,,,47,92
100800,note_on,80,0,14,,,,,,,,7,,,,59,92
100800,note_on,80,0,18,,,,,,,,12,,,,78,92
100800,note_on,80,0,1,,,,,,,,0,,,,81,92
100800,note_on,80,0,16,,,,,,,,10,,,,50,92
100800,note_on,80,0,10,,,,,,,,6,,,,81,92
100800,note_on,80,0,17,,,,,,,,11,,,,81,108
100800,note_on,80,0,9,,,,,,,,5,,,,66,92
100800,note_on,80,0,15,,,,,,,,8,,,,47,92
101200,note_off,400,0,8,,,,,,,,5,,,,69,64
101200,note_off,400,0,17,,,,,,,,11,,,,81,64
101200,note_off,400,0,12,,,,,,,,7,,,,69,64
101200,note_off,400,0,3,,,,,,,,2,,,,81,64
101200,note_off,400,0,5,,,,,,,,3,,,,81,64
101200,note_off,400,0,1,,,,,,,,0,,,,81,64
101200,note_off,400,0,4,,,,,,,,2,,,,78,64
101200,note_off,400,0,9,,,,,,,,5,,,,66,64
101200,note_off,400,0,2,,,,,,,,1,,,,78,64
101200,note_off,400,0,11,,,,,,,,6,,,,78,64
101200,note_off,400,0,18,,,,,,,,12,,,,78,64
101200,note_off,400,0,10,,,,,,,,6,,,,81,64
101200,note_off,400,0,6,,,,,,,,3,,,,78,64
101200,note_off,400,0,13,,,,,,,,7,,,,66,64
101280,note_on,80,0,5,,,,,,,,3,,,,79,92
101280,note_on,80,0,4,,,,,,,,2,,,,76,92
101280,note_on,80,0,10,,,,,,,,6,,,,79,92
101280,note_on,80,0,1,,,,,,,,0,,,,79,92
101280,note_on,80,0,8,,,,,,,,5,,,,67,92
101280,note_on,80,0,6,,,,,,,,3,,,,76,92
101280,note_on,80,0,12,,,,,,,,7,,,,67,92
101280,note_on,80,0,3,,,,,,,,2,,,,79,92
101280,note_on,80,0,17,,,,,,,,11,,,,79,108
101280,note_on,80,0,13,,,,,,,,7,,,,64,92
101280,note_on,80,0,9,,,,,,,,5,,,,64,92
101280,note_on,80,0,2,,,,,,,,1,,,,76,92
101280,note_on,80,0,11,,,,,,,,6,,,,76,92
101280,note_on,80,0,18,,,,,,,,12,,,,76,92
101520,note_on,0,0,11,,,,,,,,6,,,,74,92
101520,note_off,240,0,11,,,,,,,,6,,,,76,64
101520,note_off,240,0,13,,,,,,,,7,,,,64,64
101520,note_on,0,0,13,,,,,,,,7,,,,62,92
101520,note_off,240,0,3,,,,,,,,2,,,,79,64
101520,note_on,0,0,3,,,,,,,,2,,,,78,92
101520,note_on,0,0,10,,,,,,,,6,,,,78,92
101520,note_on,0,0,5,,,,,,,,3,,,,78,92
101520,note_off,240,0,10,,,,,,,,6,,,,79,64
101520,note_on,0,0,18,,,,,,,,12,,,,74,92
101520,note_off,240,0,18,,,,,,,,12,,,,76,64
101520,note_on,0,0,9,,,,,,,,5,,,,62,92
101520,note_off,240,0,9,,,,,,,,5,,,,64,64
101520,note_on,0,0,2,,,,,,,,1,,,,74,92
101520,note_off,240,0,2,,,,,,,,1,,,,76,64
101520,note_off,240,0,8,,,,,,,,5,,,,67,64
101520,note_off,240,0,17,,,,,,,,11,,,,79,64
101520,note_on,0,0,1,,,,,,,,0,,,,78,92
101520,note_on,0,0,8,,,,,,,,5,,,,66,92
101520,note_on,0,0,12,,,,,,,,7,,,,66,92
101520,note_off,240,0,12,,,,,,,,7,,,,67,64
101520,note_on,0,0,4,,,,,,,,2,,,,74,92
101520,note_on,0,0,6,,,,,,,,3,,,,74,92
101520,note_off,240,0,6,,,,,,,,3,,,,76,64
101520,note_off,240,0,4,,,,,,,,2,,,,76,64
101520,note_off,240,0,5,,,,,,,,3,,,,79,64
101520,note_off,240,0,1,,,,,,,,0,,,,79,64
101520,note_on,0,0,17,,,,,,,,11,,,,78,108
101640,note_off,840,0,16,,,,,,,,10,,,,50,64
101640,note_off,840,0,19,,,,,,,,13,,,,74,64
101755,note_off,235,0,8,,,,,,,,5,,,,66,64
101755,note_off,235,0,4,,,,,,,,2,,,,74,64
101755,note_off,235,0,9,,,,,,,,5,,,,62,64
101755,note_off,235,0,13,,,,,,,,7,,,,62,64
101755,note_off,235,0,18,,,,,,,,12,,,,74,64
101755,note_off,235,0,3,,,,,,,,2,,,,78,64
101755,note_off,235,0,11,,,,,,,,6,,,,74,64
101755,note_off,235,0,5,,,,,,,,3,,,,78,64
101755,note_off,235,0,10,,,,,,,,6,,,,78,64
101755,note_off,235,0,2,,,,,,,,1,,,,74,64
101755,note_off,235,0,6,,,,,,,,3,,,,74,64
101755,note_off,235,0,12,,,,,,,,7,,,,66,64
101755,note_off,235,0,1,,,,,,,,0,,,,78,64
101755,note_off,235,0,17,,,,,,,,11,,,,78,64
101760,note_on,5,0,4,,,,,,,,2,,,,76,92
101760,note_on,5,0,17,,,,,,,,11,,,,79,108
101760,note_on,5,0,8,,,,,,,,5,,,,67,92
101760,note_on,5,0,1,,,,,,,,0,,,,79,92
101760,note_on,5,0,10,,,,,,,,6,,,,79,92
101760,note_on,5,0,9,,,,,,,,5,,,,64,92
101760,note_on,5,0,12,,,,,,,,7,,,,67,92
101760,note_on,5,0,13,,,,,,,,7,,,,64,92
101760,note_on,5,0,11,,,,,,,,6,,,,76,92
101760,note_on,5,0,5,,,,,,,,3,,,,79,92
101760,note_on,120,0,19,,,,,,,,13,,,,64,92
101760,note_on,5,0,2,,,,,,,,1,,,,76,92
101760,note_on,5,0,6,,,,,,,,3,,,,76,92
101760,note_on,5,0,18,,,,,,,,12,,,,76,92
101760,note_on,5,0,3,,,,,,,,2,,,,79,92
102120,note_off,1320,0,7,,,,,,,,4,,,,59,64
102120,note_off,1320,0,15,,,,,,,,8,,,,47,64
102120,note_off,1320,0,21,,,,,,,,15,,,,47,64
102120,note_off,1320,0,14,,,,,,,,7,,,,59,64
102120,note_off,1320,0,20,,,,,,,,14,,,,59,64
102160,note_off,400,0,4,,,,,,,,2,,,,76,64
102160,note_off,400,0,9,,,,,,,,5,,,,64,64
102160,note_off,400,0,6,,,,,,,,3,,,,76,64
102160,note_off,400,0,3,,,,,,,,2,,,,79,64
102160,note_off,400,0,18,,,,,,,,12,,,,76,64
102160,note_off,400,0,12,,,,,,,,7,,,,67,64
102160,note_off,400,0,2,,,,,,,,1,,,,76,64
102160,note_off,400,0,10,,,,,,,,6,,,,79,64
102160,note_off,400,0,11,,,,,,,,6,,,,76,64
102160,note_off,400,0,1,,,,,,,,0,,,,79,64
102160,note_off,400,0,17,,,,,,,,11,,,,79,64
102160,note_off,400,0,13,,,,,,,,7,,,,64,64
102160,note_off,400,0,5,,,,,,,,3,,,,79,64
102160,note_off,400,0,8,,,,,,,,5,,,,67,64
102240,note_on,80,0,18,,,,,,,,12,,,,76,92
102240,note_on,80,0,2,,,,,,,,1,,,,76,92
102240,note_on,80,0,1,,,,,,,,0,,,,79,92
102240,note_on,80,0,6,,,,,,,,3,,,,76,92
102240,note_on,80,0,5,,,,,,,,3,,,,79,92
102240,note_on,600,0,16,,,,,,,,10,,,,50,92
102240,note_on,120,0,15,,,,,,,,8,,,,40,92
102240,note_on,80,0,11,,,,,,,,6,,,,76,92
102240,note_on,80,0,12,,,,,,,,7,,,,67,92
102240,note_on,120,0,7,,,,,,,,4,,,,52,92
102240,note_on,120,0,14,,,,,,,,7,,,,52,92
102240,note_on,80,0,13,,,,,,,,7,,,,64,92
102240,note_on,80,0,17,,,,,,,,11,,,,79,108
102240,note_on,80,0,8,,,,,,,,5,,,,67,92
102240,note_on,120,0,20,,,,,,,,14,,,,52,92
102240,note_on,80,0,9,,,,,,,,5,,,,64,92
102240,note_on,80,0,3,,,,,,,,2,,,,79,92
102240,note_on,120,0,21,,,,,,,,15,,,,40,92
102240,note_on,80,0,4,,,,,,,,2,,,,76,92
102240,note_on,80,0,10,,,,,,,,6,,,,79,92
102600,note_off,840,0,19,,,,,,,,13,,,,64,64
102640,note_off,400,0,9,,,,,,,,5,,,,64,64
102640,note_off,400,0,1,,,,,,,,0,,,,79,64
102640,note_off,400,0,4,,,,,,,,2,,,,76,64
102640,note_off,400,0,13,,,,,,,,7,,,,64,64
102640,note_off,400,0,18,,,,,,,,12,,,,76,64
102640,note_off,400,0,14,,,,,,,,7,,,,52,64
102640,note_off,400,0,7,,,,,,,,4,,,,52,64
102640,note_off,400,0,10,,,,,,,,6,,,,79,64
102640,note_off,400,0,21,,,,,,,,15,,,,40,64
102640,note_off,400,0,17,,,,,,,,11,,,,79,64
102640,note_off,400,0,3,,,,,,,,2,,,,79,64
102640,note_off,400,0,20,,,,,,,,14,,,,52,64
102640,note_off,400,0,15,,,,,,,,8,,,,40,64
102640,note_off,400,0,8,,,,,,,,5,,,,67,64
102640,note_off,400,0,16,,,,,,,,10,,,,50,64
102640,note_off,400,0,6,,,,,,,,3,,,,76,64
102640,note_off,400,0,2,,,,,,,,1,,,,76,64
102640,note_off,400,0,11,,,,,,,,6,,,,76,64
102640,note_off,400,0,12,,,,,,,,7,,,,67,64
102640,note_off,400,0,5,,,,,,,,3,,,,79,64
102720,note_on,120,0,19,,,,,,,,13,,,,71,92
102720,note_on,80,0,17,,,,,,,,11,,,,79,108
102720,note_on,80,0,6,,,,,,,,3,,,,76,92
102720,note_on,80,0,11,,,,,,,,6,,,,76,92
102720,note_on,80,0,4,,,,,,,,2,,,,76,92
102720,note_on,80,0,12,,,,,,,,7,,,,67,92
102720,note_on,80,0,14,,,,,,,,7,,,,55,92
102720,note_on,80,0,7,,,,,,,,4,,,,55,92
102720,note_on,80,0,10,,,,,,,,6,,,,79,92
102720,note_on,80,0,21,,,,,,,,15,,,,43,92
102720,note_on,80,0,3,,,,,,,,2,,,,79,92
102720,note_on,80,0,15,,,,,,,,8,,,,43,92
102720,note_on,80,0,5,,,,,,,,3,,,,79,92
102720,note_on,80,0,13,,,,,,,,7,,,,64,92
102720,note_on,80,0,16,,,,,,,,10,,,,50,92
102720,note_on,80,0,20,,,,,,,,14,,,,55,92
102720,note_on,80,0,18,,,,,,,,12,,,,76,92
102720,note_on,80,0,1,,,,,,,,0,,,,79,92
102720,note_on,80,0,9,,,,,,,,5,,,,64,92
102720,note_on,80,0,8,,,,,,,,5,,,,67,92
102720,note_on,80,0,2,,,,,,,,1,,,,76,92
103120,note_off,400,0,20,,,,,,,,14,,,,55,64
103120,note_off,400,0,13,,,,,,,,7,,,,64,64
103120,note_off,400,0,12,,,,,,,,7,,,,67,64
103120,note_off,400,0,6,,,,,,,,3,,,,76,64
103120,note_off,400,0,17,,,,,,,,11,,,,79,64
103120,note_off,400,0,7,,,,,,,,4,,,,55,64
103120,note_off,400,0,10,,,,,,,,6,,,,79,64
103120,note_off,400,0,21,,,,,,,,15,,,,43,64
103120,note_off,400,0,3,,,,,,,,2,,,,79,64
103120,note_off,400,0,15,,,,,,,,8,,,,43,64
103120,note_off,400,0,8,,,,,,,,5,,,,67,64
103120,note_off,400,0,16,,,,,,,,10,,,,50,64
103120,note_off,400,0,11,,,,,,,,6,,,,76,64
103120,note_off,400,0,2,,,,,,,,1,,,,76,64
103120,note_off,400,0,1,,,,,,,,0,,,,79,64
103120,note_off,400,0,4,,,,,,,,2,,,,76,64
103120,note_off,400,0,14,,,,,,,,7,,,,55,64
103120,note_off,400,0,9,,,,,,,,5,,,,64,64
103120,note_off,400,0,18,,,,,,,,12,,,,76,64
103120,note_off,400,0,5,,,,,,,,3,,,,79,64
103200,note_on,80,0,18,,,,,,,,12,,,,74,92
103200,note_on,80,0,17,,,,,,,,11,,,,79,108
103200,note_on,80,0,10,,,,,,,,6,,,,79,92
103200,note_on,80,0,1,,,,,,,,0,,,,79,92
103200,note_on,80,0,13,,,,,,,,7,,,,62,92
103200,note_on,80,0,7,,,,,,,,4,,,,52,92
103200,note_on,80,0,14,,,,,,,,7,,,,52,92
103200,note_on,80,0,16,,,,,,,,10,,,,50,92
103200,note_on,80,0,5,,,,,,,,3,,,,79,92
103200,note_on,80,0,6,,,,,,,,3,,,,74,92
103200,note_on,80,0,2,,,,,,,,1,,,,74,92
103200,note_on,80,0,4,,,,,,,,2,,,,74,92
103200,note_on,80,0,8,,,,,,,,5,,,,67,92
103200,note_on,80,0,11,,,,,,,,6,,,,74,92
103200,note_on,80,0,9,,,,,,,,5,,,,64,92
103200,note_on,80,0,3,,,,,,,,2,,,,79,92
103200,note_on,80,0,12,,,,,,,,7,,,,67,92
103200,note_on,80,0,20,,,,,,,,14,,,,52,92
103200,note_on,80,0,21,,,,,,,,15,,,,40,92
103200,note_on,80,0,15,,,,,,,,8,,,,40,92
103560,note_off,840,0,19,,,,,,,,13,,,,71,64
103600,note_off,400,0,15,,,,,,,,8,,,,40,64
103600,note_off,400,0,3,,,,,,,,2,,,,79,64
103600,note_off,400,0,2,,,,,,,,1,,,,74,64
103600,note_off,400,0,1,,,,,,,,0,,,,79,64
103600,note_off,400,0,21,,,,,,,,15,,,,40,64
103600,note_off,400,0,16,,,,,,,,10,,,,50,64
103600,note_off,400,0,4,,,,,,,,2,,,,74,64
103600,note_off,400,0,8,,,,,,,,5,,,,67,64
103600,note_off,400,0,9,,,,,,,,5,,,,64,64
103600,note_off,400,0,18,,,,,,,,12,,,,74,64
103600,note_off,400,0,7,,,,,,,,4,,,,52,64
103600,note_off,400,0,17,,,,,,,,11,,,,79,64
103600,note_off,400,0,5,,,,,,,,3,,,,79,64
103600,note_off,400,0,10,,,,,,,,6,,,,79,64
103600,note_off,400,0,6,,,,,,,,3,,,,74,64
103600,note_off,400,0,20,,,,,,,,14,,,,52,64
103600,note_off,400,0,13,,,,,,,,7,,,,62,64
103600,note_off,400,0,12,,,,,,,,7,,,,67,64
103600,note_off,400,0,11,,,,,,,,6,,,,74,64
103600,note_off,400,0,14,,,,,,,,7,,,,52,64
103680,note_on,80,0,7,,,,,,,,4,,,,57,92
103680,note_on,80,0,21,,,,,,,,15,,,,45,92
103680,note_on,80,0,20,,,,,,,,14,,,,57,92
103680,note_on,80,0,9,,,,,,,,5,,,,64,92
103680,note_on,80,0,11,,,,,,,,6,,,,73,92
103680,note_on,80,0,8,,,,,,,,5,,,,67,92
103680,note_on,80,0,17,,,,,,,,11,,,,79,108
103680,note_on,80,0,16,,,,,,,,10,,,,45,92
103680,note_on,80,0,4,,,,,,,,2,,,,73,92
103680,note_on,80,0,14,,,,,,,,7,,,,57,92
103680,note_on,80,0,10,,,,,,,,6,,,,79,92
103680,note_on,80,0,18,,,,,,,,12,,,,73,92
103680,set_tempo,103680,1,0,300000,,,,,,,,,,,,
103680,note_on,80,0,15,,,,,,,,8,,,,45,92
103680,note_on,80,0,5,,,,,,,,3,,,,79,92
103680,note_on,80,0,12,,,,,,,,7,,,,67,92
103680,note_on,80,0,2,,,,,,,,1,,,,69,92
103680,note_on,120,0,19,,,,,,,,13,,,,69,92
103680,note_on,80,0,1,,,,,,,,0,,,,79,92
103680,note_on,80,0,3,,,,,,,,2,,,,79,92
103680,note_on,80,0,13,,,,,,,,7,,,,61,92
103680,note_on,80,0,6,,,,,,,,3,,,,69,92
104080,note_off,400,0,9,,,,,,,,5,,,,64,64
104160,note_on,80,0,9,,,,,,,,5,,,,57,92
104560,note_off,400,0,9,,,,,,,,5,,,,57,64
104640,note_on,80,0,9,,,,,,,,5,,,,57,92
105000,note_off,1320,0,19,,,,,,,,13,,,,69,64
105000,note_off,1320,0,14,,,,,,,,7,,,,57,64
105000,note_off,1320,0,18,,,,,,,,12,,,,73,64
105000,note_off,1320,0,4,,,,,,,,2,,,,73,64
105000,note_off,1320,0,20,,,,,,,,14,,,,57,64
105000,note_off,1320,0,21,,,,,,,,15,,,,45,64
105000,note_off,1320,0,7,,,,,,,,4,,,,57,64
105000,note_off,1320,0,6,,,,,,,,3,,,,69,64
105000,note_off,1320,0,15,,,,,,,,8,,,,45,64
105000,note_off,1320,0,2,,,,,,,,1,,,,69,64
105000,note_off,1320,0,16,,,,,,,,10,,,,45,64
105040,note_off,400,0,9,,,,,,,,5,,,,57,64
105120,note_on,0,0,8,,,,,,,,5,,,,69,92
105120,note_on,0,0,3,,,,,,,,2,,,,81,92
105120,note_off,1440,0,3,,,,,,,,2,,,,79,64
105120,note_on,0,0,12,,,,,,,,7,,,,69,92
105120,note_off,1440,0,8,,,,,,,,5,,,,67,64
105120,set_tempo,1440,1,0,315789,,,,,,,,,,,,
105120,note_off,1440,0,17,,,,,,,,11,,,,79,64
105120,note_on,0,0,11,,,,,,,,6,,,,73,92
105120,note_on,120,0,14,,,,,,,,7,,,,57,92
105120,note_off,1440,0,11,,,,,,,,6,,,,73,64
105120,note_off,1440,0,13,,,,,,,,7,,,,61,64
105120,note_on,0,0,13,,,,,,,,7,,,,61,92
105120,note_on,120,0,6,,,,,,,,3,,,,69,92
105120,note_off,1440,0,12,,,,,,,,7,,,,67,64
105120,note_on,120,0,19,,,,,,,,13,,,,69,92
105120,note_on,0,0,17,,,,,,,,11,,,,81,108
105120,note_on,120,0,16,,,,,,,,10,,,,45,92
105120,note_on,120,0,15,,,,,,,,8,,,,45,92
105120,note_on,120,0,4,,,,,,,,2,,,,73,92
105120,note_on,120,0,7,,,,,,,,4,,,,57,92
105120,note_on,0,0,1,,,,,,,,0,,,,81,92
105120,note_off,1440,0,1,,,,,,,,0,,,,79,64
105120,note_on,0,0,5,,,,,,,,3,,,,81,92
105120,note_on,120,0,18,,,,,,,,12,,,,73,92
105120,note_off,1440,0,10,,,,,,,,6,,,,79,64
105120,note_off,1440,0,5,,,,,,,,3,,,,79,64
105120,note_on,120,0,21,,,,,,,,15,,,,45,92
105120,note_on,80,0,9,,,,,,,,5,,,,57,92
105120,note_on,120,0,2,,,,,,,,1,,,,69,92
105120,note_on,0,0,10,,,,,,,,6,,,,81,92
105120,note_on,120,0,20,,,,,,,,14,,,,57,92
105520,note_off,400,0,2,,,,,,,,1,,,,69,64
105520,note_off,400,0,13,,,,,,,,7,,,,61,64
105520,note_off,400,0,6,,,,,,,,3,,,,69,64
105520,note_off,400,0,10,,,,,,,,6,,,,81,64
105520,note_off,400,0,7,,,,,,,,4,,,,57,64
105520,note_off,400,0,4,,,,,,,,2,,,,73,64
105520,note_off,400,0,15,,,,,,,,8,,,,45,64
105520,note_off,400,0,12,,,,,,,,7,,,,69,64
105520,note_off,400,0,14,,,,,,,,7,,,,57,64
105520,note_off,400,0,16,,,,,,,,10,,,,45,64
105520,note_off,400,0,11,,,,,,,,6,,,,73,64
105520,note_off,400,0,1,,,,,,,,0,,,,81,64
105520,note_off,400,0,19,,,,,,,,13,,,,69,64
105520,note_off,400,0,18,,,,,,,,12,,,,73,64
105520,note_off,400,0,21,,,,,,,,15,,,,45,64
105520,note_off,400,0,3,,,,,,,,2,,,,81,64
105520,note_off,400,0,9,,,,,,,,5,,,,57,64
105520,note_off,400,0,17,,,,,,,,11,,,,81,64
105520,note_off,400,0,8,,,,,,,,5,,,,69,64
105520,note_off,400,0,20,,,,,,,,14,,,,57,64
105520,note_off,400,0,5,,,,,,,,3,,,,81,64
105600,note_on,80,0,8,,,,,,,,5,,,,66,92
105600,note_on,80,0,11,,,,,,,,6,,,,74,92
105600,note_on,80,0,9,,,,,,,,5,,,,62,92
105600,note_on,80,0,5,,,,,,,,3,,,,78,92
105600,note_on,80,0,2,,,,,,,,1,,,,71,92
105600,note_on,80,0,4,,,,,,,,2,,,,74,92
105600,note_on,80,0,16,,,,,,,,10,,,,50,92
105600,note_on,80,0,6,,,,,,,,3,,,,71,92
105600,note_on,80,0,12,,,,,,,,7,,,,66,92
105600,note_on,80,0,20,,,,,,,,14,,,,59,92
105600,note_on,80,0,18,,,,,,,,12,,,,74,92
105600,note_on,80,0,19,,,,,,,,13,,,,62,92
105600,note_on,80,0,14,,,,,,,,7,,,,59,92
105600,note_on,80,0,13,,,,,,,,7,,,,62,92
105600,note_on,80,0,7,,,,,,,,4,,,,59,92
105600,note_on,80,0,1,,,,,,,,0,,,,78,92
105600,note_on,80,0,10,,,,,,,,6,,,,78,92
105600,note_on,80,0,3,,,,,,,,2,,,,78,92
105600,note_on,80,0,21,,,,,,,,15,,,,47,92
105600,note_on,80,0,15,,,,,,,,8,,,,47,92
105600,set_tempo,480,1,0,333333,,,,,,,,,,,,
105600,note_on,80,0,17,,,,,,,,11,,,,78,108
106000,note_off,400,0,9,,,,,,,,5,,,,62,64
106000,note_off,400,0,8,,,,,,,,5,,,,66,64
106000,note_off,400,0,16,,,,,,,,10,,,,50,64
106080,note_on,0,0,17,,,,,,,,11,,,,76,108
106080,note_on,80,0,9,,,,,,,,5,,,,57,92
106080,note_off,480,0,17,,,,,,,,11,,,,78,64
106080,note_off,480,0,3,,,,,,,,2,,,,78,64
106080,note_off,480,0,1,,,,,,,,0,,,,78,64
106080,note_off,480,0,5,,,,,,,,3,,,,78,64
106080,note_on,80,0,8,,,,,,,,5,,,,64,92
106080,note_off,480,0,12,,,,,,,,7,,,,66,64
106080,note_on,0,0,12,,,,,,,,7,,,,64,92
106080,note_on,0,0,1,,,,,,,,0,,,,76,92
106080,note_on,0,0,3,,,,,,,,2,,,,76,92
106080,note_off,480,0,10,,,,,,,,6,,,,78,64
106080,note_on,0,0,10,,,,,,,,6,,,,76,92
106080,note_on,80,0,16,,,,,,,,10,,,,50,92
106080,note_on,0,0,5,,,,,,,,3,,,,76,92
106440,note_off,840,0,14,,,,,,,,7,,,,59,64
106440,note_off,840,0,7,,,,,,,,4,,,,59,64
106440,note_off,840,0,6,,,,,,,,3,,,,71,64
106440,note_off,840,0,21,,,,,,,,15,,,,47,64
106440,note_off,840,0,15,,,,,,,,8,,,,47,64
106440,note_off,840,0,20,,,,,,,,14,,,,59,64
106440,note_off,840,0,2,,,,,,,,1,,,,71,64
106480,note_off,400,0,16,,,,,,,,10,,,,50,64
106480,note_off,400,0,9,,,,,,,,5,,,,57,64
106480,note_off,400,0,17,,,,,,,,11,,,,76,64
106480,note_off,400,0,8,,,,,,,,5,,,,64,64
106560,note_on,120,0,21,,,,,,,,15,,,,43,92
106560,note_on,0,0,10,,,,,,,,6,,,,78,92
106560,note_off,480,0,12,,,,,,,,7,,,,64,64
106560,note_on,120,0,15,,,,,,,,8,,,,43,92
106560,note_on,120,0,20,,,,,,,,14,,,,55,92
106560,note_on,80,0,16,,,,,,,,10,,,,50,92
106560,note_off,480,0,10,,,,,,,,6,,,,76,64
106560,note_on,0,0,3,,,,,,,,2,,,,78,92
106560,note_on,120,0,6,,,,,,,,3,,,,67,92
106560,note_off,480,0,3,,,,,,,,2,,,,76,64
106560,note_on,80,0,17,,,,,,,,11,,,,78,108
106560,note_on,0,0,1,,,,,,,,0,,,,78,92
106560,note_on,120,0,7,,,,,,,,4,,,,55,92
106560,note_on,120,0,14,,,,,,,,7,,,,55,92
106560,set_tempo,960,1,0,352941,,,,,,,,,,,,
106560,note_on,80,0,9,,,,,,,,5,,,,50,92
106560,note_on,0,0,12,,,,,,,,7,,,,66,92
106560,note_off,480,0,5,,,,,,,,3,,,,76,64
106560,note_on,0,0,5,,,,,,,,3,,,,78,92
106560,note_off,480,0,1,,,,,,,,0,,,,76,64
106560,note_on,80,0,8,,,,,,,,5,,,,66,92
106560,note_on,120,0,2,,,,,,,,1,,,,67,92
106960,note_off,400,0,8,,,,,,,,5,,,,66,64
106960,note_off,400,0,16,,,,,,,,10,,,,50,64
106960,note_off,1360,0,4,,,,,,,,2,,,,74,64
106960,note_off,1360,0,13,,,,,,,,7,,,,62,64
106960,note_off,400,0,9,,,,,,,,5,,,,50,64
106960,note_off,1360,0,19,,,,,,,,13,,,,62,64
106960,note_off,1360,0,11,,,,,,,,6,,,,74,64
106960,note_off,1360,0,18,,,,,,,,12,,,,74,64
107040,note_on,0,0,5,,,,,,,,3,,,,79,92
107040,note_on,80,0,8,,,,,,,,5,,,,67,92
107040,note_off,480,0,10,,,,,,,,6,,,,78,64
107040,note_off,480,0,3,,,,,,,,2,,,,78,64
107040,note_on,0,0,1,,,,,,,,0,,,,79,92
107040,note_off,480,0,1,,,,,,,,0,,,,78,64
107040,note_on,80,0,18,,,,,,,,12,,,,71,92
107040,note_on,0,0,17,,,,,,,,11,,,,79,108
107040,note_off,480,0,17,,,,,,,,11,,,,78,64
107040,note_on,0,0,12,,,,,,,,7,,,,67,92
107040,note_off,480,0,12,,,,,,,,7,,,,66,64
107040,note_on,80,0,19,,,,,,,,13,,,,64,92
107040,note_on,80,0,16,,,,,,,,10,,,,50,92
107040,note_on,0,0,3,,,,,,,,2,,,,79,92
107040,note_on,80,0,13,,,,,,,,7,,,,64,92
107040,note_on,0,0,10,,,,,,,,6,,,,79,92
107040,note_on,80,0,11,,,,,,,,6,,,,76,92
107040,note_on,80,0,9,,,,,,,,5,,,,50,92
107040,note_on,80,0,4,,,,,,,,2,,,,76,92
107040,note_off,480,0,5,,,,,,,,3,,,,78,64
107400,note_off,840,0,14,,,,,,,,7,,,,55,64
107400,note_off,840,0,7,,,,,,,,4,,,,55,64
107400,note_off,840,0,6,,,,,,,,3,,,,67,64
107400,note_off,840,0,15,,,,,,,,8,,,,43,64
107400,note_off,840,0,21,,,,,,,,15,,,,43,64
107400,note_off,840,0,2,,,,,,,,1,,,,67,64
107400,note_off,840,0,20,,,,,,,,14,,,,55,64
107440,note_off,400,0,18,,,,,,,,12,,,,71,64
107440,note_off,400,0,9,,,,,,,,5,,,,50,64
107440,note_off,400,0,12,,,,,,,,7,,,,67,64
107440,note_off,400,0,1,,,,,,,,0,,,,79,64
107440,note_off,400,0,10,,,,,,,,6,,,,79,64
107440,note_off,400,0,17,,,,,,,,11,,,,79,64
107440,note_off,400,0,4,,,,,,,,2,,,,76,64
107440,note_off,400,0,5,,,,,,,,3,,,,79,64
107440,note_off,400,0,19,,,,,,,,13,,,,64,64
107440,note_off,400,0,11,,,,,,,,6,,,,76,64
107440,note_off,400,0,3,,,,,,,,2,,,,79,64
107440,note_off,400,0,13,,,,,,,,7,,,,64,64
107440,note_off,400,0,8,,,,,,,,5,,,,67,64
107440,note_off,400,0,16,,,,,,,,10,,,,50,64
107520,note_on,80,0,17,,,,,,,,11,,,,76,108
107520,note_on,120,0,14,,,,,,,,7,,,,57,92
107520,note_on,80,0,3,,,,,,,,2,,,,76,92
107520,note_on,80,0,12,,,,,,,,7,,,,64,92
107520,note_on,120,0,15,,,,,,,,8,,,,45,92
107520,note_on,120,0,6,,,,,,,,3,,,,69,92
107520,note_on,80,0,8,,,,,,,,5,,,,64,92
107520,note_on,80,0,4,,,,,,,,2,,,,73,92
107520,note_on,80,0,16,,,,,,,,10,,,,45,92
107520,note_on,80,0,11,,,,,,,,6,,,,73,92
107520,note_on,80,0,1,,,,,,,,0,,,,76,92
107520,note_on,80,0,10,,,,,,,,6,,,,76,92
107520,note_on,80,0,9,,,,,,,,5,,,,57,92
107520,set_tempo,960,1,0,375000,,,,,,,,,,,,
107520,note_on,80,0,18,,,,,,,,12,,,,64,92
107520,note_on,80,0,5,,,,,,,,3,,,,76,92
107520,note_on,80,0,19,,,,,,,,13,,,,61,92
107520,note_on,120,0,21,,,,,,,,15,,,,45,92
107520,note_on,80,0,13,,,,,,,,7,,,,61,92
107520,note_on,120,0,20,,,,,,,,14,,,,57,92
107520,note_on,120,0,7,,,,,,,,4,,,,57,92
107520,note_on,120,0,2,,,,,,,,1,,,,69,92
107640,note_off,120,0,1,,,,,,,,0,,,,76,64
107640,note_on,0,0,10,,,,,,,,6,,,,78,92
107640,note_off,120,0,10,,,,,,,,6,,,,76,64
107640,note_on,0,0,3,,,,,,,,2,,,,78,92
107640,note_off,120,0,3,,,,,,,,2,,,,76,64
107640,note_off,120,0,17,,,,,,,,11,,,,76,64
107640,note_on,0,0,17,,,,,,,,11,,,,78,108
107640,note_on,0,0,1,,,,,,,,0,,,,78,92
107640,note_off,120,0,5,,,,,,,,3,,,,76,64
107640,note_on,0,0,5,,,,,,,,3,,,,78,92
107760,note_on,0,0,5,,,,,,,,3,,,,76,92
107760,note_on,0,0,17,,,,,,,,11,,,,76,108
107760,note_on,0,0,10,,,,,,,,6,,,,76,92
107760,note_on,0,0,1,,,,,,,,0,,,,76,92
107760,note_off,120,0,17,,,,,,,,11,,,,78,64
107760,note_off,120,0,3,,,,,,,,2,,,,78,64
107760,note_on,0,0,3,,,,,,,,2,,,,76,92
107760,note_off,120,0,10,,,,,,,,6,,,,78,64
107760,note_off,120,0,5,,,,,,,,3,,,,78,64
107760,note_off,120,0,1,,,,,,,,0,,,,78,64
107880,note_on,0,0,17,,,,,,,,11,,,,78,108
107880,note_off,120,0,3,,,,,,,,2,,,,76,64
107880,note_on,0,0,3,,,,,,,,2,,,,78,92
107880,note_off,120,0,17,,,,,,,,11,,,,76,64
107880,note_off,120,0,10,,,,,,,,6,,,,76,64
107880,note_on,0,0,10,,,,,,,,6,,,,78,92
107880,note_off,120,0,5,,,,,,,,3,,,,76,64
107880,note_on,0,0,5,,,,,,,,3,,,,78,92
107880,note_off,120,0,1,,,,,,,,0,,,,76,64
107880,note_on,0,0,1,,,,,,,,0,,,,78,92
107920,note_off,400,0,9,,,,,,,,5,,,,57,64
108000,note_off,120,0,17,,,,,,,,11,,,,78,64
108000,note_on,0,0,17,,,,,,,,11,,,,76,108
108000,note_off,120,0,5,,,,,,,,3,,,,78,64
108000,note_off,120,0,1,,,,,,,,0,,,,78,64
108000,note_on,0,0,1,,,,,,,,0,,,,76,92
108000,note_on,0,0,5,,,,,,,,3,,,,76,92
108000,note_on,0,0,10,,,,,,,,6,,,,76,92
108000,note_off,120,0,3,,,,,,,,2,,,,78,64
108000,note_on,0,0,3,,,,,,,,2,,,,76,92
108000,note_on,80,0,9,,,,,,,,5,,,,57,92
108000,note_off,120,0,10,,,,,,,,6,,,,78,64
108120,note_off,120,0,17,,,,,,,,11,,,,76,64
108120,note_off,120,0,5,,,,,,,,3,,,,76,64
108120,note_on,0,0,5,,,,,,,,3,,,,78,92
108120,note_off,120,0,3,,,,,,,,2,,,,76,64
108120,note_off,120,0,1,,,,,,,,0,,,,76,64
108120,note_on,0,0,3,,,,,,,,2,,,,78,92
108120,note_on,0,0,17,,,,,,,,11,,,,78,108
108120,note_on,0,0,1,,,,,,,,0,,,,78,92
108120,note_off,120,0,10,,,,,,,,6,,,,76,64
108120,note_on,0,0,10,,,,,,,,6,,,,78,92
108240,note_on,0,0,17,,,,,,,,11,,,,76,108
108240,note_on,0,0,3,,,,,,,,2,,,,76,92
108240,note_off,120,0,3,,,,,,,,2,,,,78,64
108240,note_off,120,0,1,,,,,,,,0,,,,78,64
108240,note_on,0,0,1,,,,,,,,0,,,,76,92
108240,note_on,0,0,10,,,,,,,,6,,,,76,92
108240,note_off,120,0,10,,,,,,,,6,,,,78,64
108240,note_off,120,0,17,,,,,,,,11,,,,78,64
108240,note_off,120,0,5,,,,,,,,3,,,,78,64
108240,note_on,0,0,5,,,,,,,,3,,,,76,92
108360,note_off,840,0,14,,,,,,,,7,,,,57,64
108360,note_off,120,0,3,,,,,,,,2,,,,76,64
108360,note_off,120,0,17,,,,,,,,11,,,,76,64
108360,note_on,0,0,17,,,,,,,,11,,,,78,108
108360,note_off,840,0,2,,,,,,,,1,,,,69,64
108360,note_off,120,0,1,,,,,,,,0,,,,76,64
108360,note_on,0,0,10,,,,,,,,6,,,,78,92
108360,note_off,120,0,10,,,,,,,,6,,,,76,64
108360,note_off,840,0,18,,,,,,,,12,,,,64,64
108360,note_off,840,0,6,,,,,,,,3,,,,69,64
108360,note_off,840,0,21,,,,,,,,15,,,,45,64
108360,note_off,840,0,15,,,,,,,,8,,,,45,64
108360,note_on,0,0,5,,,,,,,,3,,,,78,92
108360,note_off,120,0,5,,,,,,,,3,,,,76,64
108360,note_on,0,0,3,,,,,,,,2,,,,78,92
108360,note_on,0,0,1,,,,,,,,0,,,,78,92
108360,note_off,840,0,20,,,,,,,,14,,,,57,64
108360,note_off,840,0,16,,,,,,,,10,,,,45,64
108360,note_off,840,0,7,,,,,,,,4,,,,57,64
108400,note_off,400,0,9,,,,,,,,5,,,,57,64
108480,note_on,120,0,20,,,,,,,,14,,,,45,92
108480,note_off,120,0,3,,,,,,,,2,,,,78,64
108480,note_on,120,0,15,,,,,,,,8,,,,33,92
108480,note_on,120,0,2,,,,,,,,1,,,,69,92
108480,note_on,120,0,7,,,,,,,,4,,,,45,92
108480,note_on,120,0,6,,,,,,,,3,,,,69,92
108480,note_on,120,0,21,,,,,,,,15,,,,33,92
108480,note_on,0,0,3,,,,,,,,2,,,,76,92
108480,note_on,120,0,14,,,,,,,,7,,,,45,92
108480,note_on,0,0,10,,,,,,,,6,,,,76,92
108480,note_off,120,0,10,,,,,,,,6,,,,78,64
108480,note_off,120,0,17,,,,,,,,11,,,,78,64
108480,note_off,120,0,1,,,,,,,,0,,,,78,64
108480,note_on,80,0,9,,,,,,,,5,,,,57,92
108480,note_off,120,0,5,,,,,,,,3,,,,78,64
108480,note_on,120,0,18,,,,,,,,12,,,,69,92
108480,note_on,120,0,16,,,,,,,,10,,,,45,92
108480,set_tempo,960,1,0,400000,,,,,,,,,,,,
108480,note_on,0,0,1,,,,,,,,0,,,,76,92
108480,note_on,0,0,5,,,,,,,,3,,,,76,92
108480,note_on,0,0,17,,,,,,,,11,,,,76,108
108600,note_off,120,0,10,,,,,,,,6,,,,76,64
108600,note_off,120,0,17,,,,,,,,11,,,,76,64
108600,note_on,0,0,5,,,,,,,,3,,,,78,92
108600,note_on,0,0,17,,,,,,,,11,,,,78,108
108600,note_on,0,0,10,,,,,,,,6,,,,78,92
108600,note_on,0,0,3,,,,,,,,2,,,,78,92
108600,note_off,120,0,5,,,,,,,,3,,,,76,64
108600,note_off,120,0,1,,,,,,,,0,,,,76,64
108600,note_off,120,0,3,,,,,,,,2,,,,76,64
108600,note_on,0,0,1,,,,,,,,0,,,,78,92
108720,note_on,0,0,3,,,,,,,,2,,,,74,92
108720,note_off,120,0,1,,,,,,,,0,,,,78,64
108720,note_on,0,0,10,,,,,,,,6,,,,74,92
108720,note_off,120,0,10,,,,,,,,6,,,,78,64
108720,note_off,120,0,3,,,,,,,,2,,,,78,64
108720,note_on,0,0,1,,,,,,,,0,,,,74,92
108720,note_on,0,0,17,,,,,,,,11,,,,74,108
108720,note_off,120,0,5,,,,,,,,3,,,,78,64
108720,note_on,0,0,5,,,,,,,,3,,,,74,92
108720,note_off,120,0,17,,,,,,,,11,,,,78,64
108840,note_off,120,0,3,,,,,,,,2,,,,74,64
108840,note_off,120,0,5,,,,,,,,3,,,,74,64
108840,note_on,0,0,5,,,,,,,,3,,,,76,92
108840,note_off,120,0,17,,,,,,,,11,,,,74,64
108840,note_off,120,0,1,,,,,,,,0,,,,74,64
108840,note_on,0,0,3,,,,,,,,2,,,,76,92
108840,note_on,0,0,10,,,,,,,,6,,,,76,92
108840,note_on,0,0,17,,,,,,,,11,,,,76,108
108840,note_off,120,0,10,,,,,,,,6,,,,74,64
108840,note_on,0,0,1,,,,,,,,0,,,,76,92
108880,note_off,400,0,9,,,,,,,,5,,,,57,64
108960,note_off,120,0,1,,,,,,,,0,,,,76,64
108960,note_on,0,0,1,,,,,,,,0,,,,74,92
108960,note_on,0,0,4,,,,,,,,2,,,,74,92
108960,note_off,120,0,3,,,,,,,,2,,,,76,64
108960,note_on,0,0,3,,,,,,,,2,,,,74,92
108960,note_off,1440,0,8,,,,,,,,5,,,,64,64
108960,note_off,1440,0,12,,,,,,,,7,,,,64,64
108960,note_off,1440,0,19,,,,,,,,13,,,,61,64
108960,note_on,0,0,19,,,,,,,,13,,,,62,92
108960,note_on,0,0,10,,,,,,,,6,,,,74,92
108960,note_off,1440,0,13,,,,,,,,7,,,,61,64
108960,note_off,120,0,5,,,,,,,,3,,,,76,64
108960,note_on,0,0,5,,,,,,,,3,,,,74,92
108960,note_on,0,0,8,,,,,,,,5,,,,62,92
108960,note_on,80,0,9,,,,,,,,5,,,,57,92
108960,note_on,0,0,11,,,,,,,,6,,,,66,92
108960,note_off,1440,0,11,,,,,,,,6,,,,73,64
108960,note_on,0,0,13,,,,,,,,7,,,,54,92
108960,note_off,120,0,17,,,,,,,,11,,,,76,64
108960,note_on,0,0,17,,,,,,,,11,,,,74,108
108960,note_on,0,0,12,,,,,,,,7,,,,62,92
108960,note_off,1440,0,4,,,,,,,,2,,,,73,64
108960,note_off,120,0,10,,,,,,,,6,,,,76,64
109320,note_off,840,0,6,,,,,,,,3,,,,69,64
109320,note_off,840,0,18,,,,,,,,12,,,,69,64
109320,note_off,840,0,14,,,,,,,,7,,,,45,64
109320,note_off,840,0,20,,,,,,,,14,,,,45,64
109320,note_off,840,0,15,,,,,,,,8,,,,33,64
109320,note_off,840,0,2,,,,,,,,1,,,,69,64
109320,note_off,840,0,21,,,,,,,,15,,,,33,64
109320,note_off,840,0,16,,,,,,,,10,,,,45,64
109320,note_off,840,0,7,,,,,,,,4,,,,45,64
109360,note_off,400,0,19,,,,,,,,13,,,,62,64
109360,note_off,400,0,12,,,,,,,,7,,,,62,64
109360,note_off,400,0,13,,,,,,,,7,,,,54,64
109360,note_off,400,0,8,,,,,,,,5,,,,62,64
109360,note_off,400,0,3,,,,,,,,2,,,,74,64
109360,note_off,400,0,9,,,,,,,,5,,,,57,64
109360,note_off,400,0,1,,,,,,,,0,,,,74,64
109360,note_off,400,0,10,,,,,,,,6,,,,74,64
109360,note_off,400,0,4,,,,,,,,2,,,,74,64
109360,note_off,400,0,11,,,,,,,,6,,,,66,64
109360,note_off,400,0,5,,,,,,,,3,,,,74,64
109360,note_off,400,0,17,,,,,,,,11,,,,74,64
109440,note_on,80,0,12,,,,,,,,7,,,,62,92
109440,set_tempo,960,1,0,461538,,,,,,,,,,,,
109440,note_on,120,0,16,,,,,,,,10,,,,50,92
109440,note_on,80,0,4,,,,,,,,2,,,,74,92
109440,note_on,120,0,21,,,,,,,,15,,,,38,92
109440,note_on,80,0,9,,,,,,,,5,,,,54,92
109440,note_on,80,0,13,,,,,,,,7,,,,54,92
109440,note_on,120,0,7,,,,,,,,4,,,,50,92
109440,note_on,80,0,11,,,,,,,,6,,,,66,92
109440,note_on,80,0,17,,,,,,,,11,,,,74,108
109440,note_on,120,0,6,,,,,,,,3,,,,66,92
109440,note_on,80,0,8,,,,,,,,5,,,,62,92
109440,note_on,120,0,20,,,,,,,,14,,,,50,92
109440,note_on,80,0,3,,,,,,,,2,,,,74,92
109440,note_on,80,0,10,,,,,,,,6,,,,74,92
109440,note_on,120,0,18,,,,,,,,12,,,,66,92
109440,note_on,120,0,2,,,,,,,,1,,,,66,92
109440,note_on,120,0,15,,,,,,,,8,,,,38,92
109440,note_on,80,0,5,,,,,,,,3,,,,74,92
109440,note_on,80,0,1,,,,,,,,0,,,,74,92
109440,note_on,80,0,19,,,,,,,,13,,,,62,92
109440,note_on,120,0,14,,,,,,,,7,,,,50,92
112200,note_off,2760,0,18,,,,,,,,12,,,,66,64
112200,note_off,2760,0,16,,,,,,,,10,,,,50,64
112200,note_off,2760,0,13,,,,,,,,7,,,,54,64
112200,note_off,2760,0,7,,,,,,,,4,,,,50,64
112200,note_off,2760,0,11,,,,,,,,6,,,,66,64
112200,note_off,2760,0,17,,,,,,,,11,,,,74,64
112200,note_off,2760,0,12,,,,,,,,7,,,,62,64
112200,note_off,2760,0,9,,,,,,,,5,,,,54,64
112200,note_off,2760,0,10,,,,,,,,6,,,,74,64
112200,note_off,2760,0,6,,,,,,,,3,,,,66,64
112200,note_off,2760,0,4,,,,,,,,2,,,,74,64
112200,note_off,2760,0,20,,,,,,,,14,,,,50,64
112200,note_off,2760,0,14,,,,,,,,7,,,,50,64
112200,note_off,2760,0,1,,,,,,,,0,,,,74,64
112200,note_off,2760,0,8,,,,,,,,5,,,,62,64
112200,note_off,2760,0,21,,,,,,,,15,,,,38,64
112200,note_off,2760,0,5,,,,,,,,3,,,,74,64
112200,note_off,2760,0,3,,,,,,,,2,,,,74,64
112200,note_off,2760,0,2,,,,,,,,1,,,,66,64
112200,note_off,2760,0,19,,,,,,,,13,,,,62,64
112200,note_off,2760,0,15,,,,,,,,8,,,,38,64
112320,set_tempo,2880,1,0,285714,,,,,,,,,,,,
112320,note_on,120,0,3,,,,,,,,2,,,,78,60
112320,note_on,120,0,17,,,,,,,,11,,,,78,75
112320,note_on,120,0,19,,,,,,,,13,,,,71,45
112320,note_on,120,0,7,,,,,,,,4,,,,47,45
112320,note_on,120,0,20,,,,,,,,14,,,,47,45
112320,note_on,120,0,21,,,,,,,,15,,,,35,45
112320,note_on,120,0,18,,,,,,,,12,,,,62,45
112800,note_off,480,0,3,,,,,,,,2,,,,78,64
112800,note_on,0,0,3,,,,,,,,2,,,,74,60
112800,note_off,480,0,17,,,,,,,,11,,,,78,64
112800,note_on,0,0,17,,,,,,,,11,,,,74,75
113160,note_off,840,0,19,,,,,,,,13,,,,71,64
113160,note_off,840,0,21,,,,,,,,15,,,,35,64
113160,note_off,840,0,7,,,,,,,,4,,,,47,64
113160,note_off,840,0,18,,,,,,,,12,,,,62,64
113160,note_off,840,0,20,,,,,,,,14,,,,47,64
113280,note_on,0,0,17,,,,,,,,11,,,,71,75
113280,note_on,0,0,3,,,,,,,,2,,,,71,60
113280,note_off,480,0,3,,,,,,,,2,,,,74,64
113280,note_off,480,0,17,,,,,,,,11,,,,74,64
113680,note_off,400,0,17,,,,,,,,11,,,,71,64
113680,note_off,400,0,3,,,,,,,,2,,,,71,64
113760,note_on,600,0,18,,,,,,,,12,,,,74,45
113760,note_on,600,0,20,,,,,,,,14,,,,47,45
113760,note_on,600,0,21,,,,,,,,15,,,,35,45
113760,note_on,600,0,7,,,,,,,,4,,,,47,45
113760,note_on,80,0,17,,,,,,,,11,,,,78,75
113760,note_on,80,0,3,,,,,,,,2,,,,78,60
113760,note_on,600,0,19,,,,,,,,13,,,,71,45
113880,note_off,120,0,17,,,,,,,,11,,,,78,64
114160,note_off,400,0,18,,,,,,,,12,,,,74,64
114160,note_off,400,0,21,,,,,,,,15,,,,35,64
114160,note_off,400,0,19,,,,,,,,13,,,,71,64
114160,note_off,400,0,3,,,,,,,,2,,,,78,64
114160,note_off,400,0,7,,,,,,,,4,,,,47,64
114160,note_off,400,0,20,,,,,,,,14,,,,47,64
114240,note_on,80,0,7,,,,,,,,4,,,,50,45
114240,note_on,80,0,20,,,,,,,,14,,,,50,45
114240,note_on,360,0,17,,,,,,,,11,,,,78,75
114240,note_on,80,0,18,,,,,,,,12,,,,74,45
114240,note_on,80,0,21,,,,,,,,15,,,,38,45
114240,note_on,80,0,19,,,,,,,,13,,,,71,45
114240,note_on,80,0,3,,,,,,,,2,,,,78,60
114360,note_off,120,0,17,,,,,,,,11,,,,78,64
114640,note_off,400,0,19,,,,,,,,13,,,,71,64
114640,note_off,400,0,20,,,,,,,,14,,,,50,64
114640,note_off,400,0,7,,,,,,,,4,,,,50,64
114640,note_off,400,0,3,,,,,,,,2,,,,78,64
114640,note_off,400,0,18,,,,,,,,12,,,,74,64
114640,note_off,400,0,21,,,,,,,,15,,,,38,64
114720,note_on,80,0,19,,,,,,,,13,,,,71,45
114720,note_on,80,0,3,,,,,,,,2,,,,78,60
114720,note_on,80,0,21,,,,,,,,15,,,,35,45
114720,note_on,80,0,18,,,,,,,,12,,,,74,45
114720,note_on,80,0,20,,,,,,,,14,,,,47,45
114720,note_on,360,0,17,,,,,,,,11,,,,78,75
114720,note_on,80,0,7,,,,,,,,4,,,,47,45
114840,note_off,120,0,17,,,,,,,,11,,,,78,64
115120,note_off,400,0,21,,,,,,,,15,,,,35,64
115120,note_off,400,0,3,,,,,,,,2,,,,78,64
115120,note_off,400,0,20,,,,,,,,14,,,,47,64
115120,note_off,400,0,18,,,,,,,,12,,,,74,64
115120,note_off,400,0,19,,,,,,,,13,,,,71,64
115120,note_off,400,0,7,,,,,,,,4,,,,47,64
115200,note_on,360,0,17,,,,,,,,11,,,,78,75
115200,note_on,80,0,7,,,,,,,,4,,,,55,45
115200,note_on,80,0,19,,,,,,,,13,,,,59,45
115200,note_on,80,0,3,,,,,,,,2,,,,78,60
115200,note_on,80,0,21,,,,,,,,15,,,,43,45
115200,note_on,80,0,20,,,,,,,,14,,,,55,45
115200,note_on,80,0,18,,,,,,,,12,,,,71,45
115600,note_off,400,0,3,,,,,,,,2,,,,78,64
115600,note_off,400,0,17,,,,,,,,11,,,,78,64
115680,note_on,80,0,17,,,,,,,,11,,,,76,75
115680,note_on,80,0,3,,,,,,,,2,,,,76,60
115920,note_on,0,0,17,,,,,,,,11,,,,74,75
115920,note_off,240,0,17,,,,,,,,11,,,,76,64
115920,note_off,240,0,3,,,,,,,,2,,,,76,64
115920,note_on,0,0,3,,,,,,,,2,,,,74,60
116040,note_off,840,0,19,,,,,,,,13,,,,59,64
116040,note_off,840,0,7,,,,,,,,4,,,,55,64
116040,note_off,840,0,20,,,,,,,,14,,,,55,64
116040,note_off,840,0,21,,,,,,,,15,,,,43,64
116040,note_off,840,0,18,,,,,,,,12,,,,71,64
116155,note_off,235,0,17,,,,,,,,11,,,,74,64
116155,note_off,235,0,3,,,,,,,,2,,,,74,64
116160,note_on,5,0,3,,,,,,,,2,,,,76,60
116160,note_on,5,0,17,,,,,,,,11,,,,76,75
116560,note_off,400,0,3,,,,,,,,2,,,,76,64
116560,note_off,400,0,17,,,,,,,,11,,,,76,64
116640,note_on,600,0,7,,,,,,,,4,,,,49,45
116640,note_on,600,0,18,,,,,,,,12,,,,71,45
116640,note_on,80,0,3,,,,,,,,2,,,,76,60
116640,note_on,600,0,20,,,,,,,,14,,,,49,45
116640,note_on,600,0,21,,,,,,,,15,,,,37,45
116640,note_on,80,0,17,,,,,,,,11,,,,76,75
116640,note_on,600,0,19,,,,,,,,13,,,,64,45
116760,note_off,120,0,17,,,,,,,,11,,,,76,64
117040,note_off,400,0,20,,,,,,,,14,,,,49,64
117040,note_off,400,0,3,,,,,,,,2,,,,76,64
117040,note_off,400,0,18,,,,,,,,12,,,,71,64
117040,note_off,400,0,19,,,,,,,,13,,,,64,64
117040,note_off,400,0,21,,,,,,,,15,,,,37,64
117040,note_off,400,0,7,,,,,,,,4,,,,49,64
117120,note_on,80,0,20,,,,,,,,14,,,,52,45
117120,note_on,80,0,19,,,,,,,,13,,,,67,45
117120,note_on,80,0,3,,,,,,,,2,,,,76,60
117120,note_on,80,0,18,,,,,,,,12,,,,71,45
117120,note_on,360,0,17,,,,,,,,11,,,,76,75
117120,note_on,80,0,7,,,,,,,,4,,,,52,45
117120,note_on,80,0,21,,,,,,,,15,,,,40,45
117240,note_off,120,0,17,,,,,,,,11,,,,76,64
117520,note_off,400,0,18,,,,,,,,12,,,,71,64
117520,note_off,400,0,21,,,,,,,,15,,,,40,64
117520,note_off,400,0,19,,,,,,,,13,,,,67,64
117520,note_off,400,0,20,,,,,,,,14,,,,52,64
117520,note_off,400,0,7,,,,,,,,4,,,,52,64
117520,note_off,400,0,3,,,,,,,,2,,,,76,64
117600,note_on,80,0,18,,,,,,,,12,,,,71,45
117600,note_on,80,0,19,,,,,,,,13,,,,64,45
117600,note_on,80,0,20,,,,,,,,14,,,,49,45
117600,note_on,80,0,21,,,,,,,,15,,,,37,45
117600,note_on,360,0,17,,,,,,,,11,,,,76,75
117600,note_on,80,0,7,,,,,,,,4,,,,49,45
117600,note_on,80,0,3,,,,,,,,2,,,,76,60
117720,note_off,120,0,17,,,,,,,,11,,,,76,64
118000,note_off,400,0,3,,,,,,,,2,,,,76,64
118000,note_off,400,0,20,,,,,,,,14,,,,49,64
118000,note_off,400,0,21,,,,,,,,15,,,,37,64
118000,note_off,400,0,18,,,,,,,,12,,,,71,64
118000,note_off,400,0,7,,,,,,,,4,,,,49,64
118000,note_off,400,0,19,,,,,,,,13,,,,64,64
118080,note_on,80,0,3,,,,,,,,2,,,,76,60
118080,note_on,80,0,21,,,,,,,,15,,,,42,45
118080,note_on,80,0,19,,,,,,,,13,,,,61,45
118080,note_on,80,0,20,,,,,,,,14,,,,54,45
118080,note_on,80,0,7,,,,,,,,4,,,,54,45
118080,note_on,360,0,17,,,,,,,,11,,,,76,75
118080,note_on,80,0,18,,,,,,,,12,,,,70,45
118480,note_off,400,0,17,,,,,,,,11,,,,76,64
118480,note_off,400,0,3,,,,,,,,2,,,,76,64
118560,note_on,80,0,17,,,,,,,,11,,,,74,75
118560,note_on,80,0,3,,,,,,,,2,,,,74,60
118800,note_off,240,0,17,,,,,,,,11,,,,74,64
118800,note_on,0,0,17,,,,,,,,11,,,,73,75
118800,note_on,0,0,3,,,,,,,,2,,,,73,60
118800,note_off,240,0,3,,,,,,,,2,,,,74,64
118920,note_off,840,0,20,,,,,,,,14,,,,54,64
118920,note_off,840,0,19,,,,,,,,13,,,,61,64
118920,note_off,840,0,18,,,,,,,,12,,,,70,64
118920,note_off,840,0,21,,,,,,,,15,,,,42,64
118920,note_off,840,0,7,,,,,,,,4,,,,54,64
119035,note_off,235,0,17,,,,,,,,11,,,,73,64
119035,note_off,235,0,3,,,,,,,,2,,,,73,64
119040,note_on,5,0,17,,,,,,,,11,,,,74,75
119040,note_on,5,0,3,,,,,,,,2,,,,74,60
119440,note_off,400,0,3,,,,,,,,2,,,,74,64
119440,note_off,400,0,17,,,,,,,,11,,,,74,64
119520,note_on,80,0,17,,,,,,,,11,,,,74,75
119520,note_on,600,0,7,,,,,,,,4,,,,47,45
119520,note_on,600,0,19,,,,,,,,13,,,,66,45
119520,note_on,600,0,18,,,,,,,,12,,,,71,45
119520,note_on,600,0,21,,,,,,,,15,,,,35,45
119520,note_on,600,0,20,,,,,,,,14,,,,47,45
119520,note_on,80,0,3,,,,,,,,2,,,,74,60
119640,note_off,120,0,17,,,,,,,,11,,,,74,64
119920,note_off,400,0,21,,,,,,,,15,,,,35,64
119920,note_off,400,0,18,,,,,,,,12,,,,71,64
119920,note_off,400,0,19,,,,,,,,13,,,,66,64
119920,note_off,400,0,20,,,,,,,,14,,,,47,64
119920,note_off,400,0,7,,,,,,,,4,,,,47,64
119920,note_off,400,0,3,,,,,,,,2,,,,74,64
120000,note_on,80,0,18,,,,,,,,12,,,,71,45
120000,note_on,80,0,19,,,,,,,,13,,,,66,45
120000,note_on,360,0,17,,,,,,,,11,,,,74,75
120000,note_on,80,0,21,,,,,,,,15,,,,38,45
120000,note_on,80,0,20,,,,,,,,14,,,,50,45
120000,note_on,80,0,7,,,,,,,,4,,,,50,45
120000,note_on,80,0,3,,,,,,,,2,,,,74,60
120120,note_off,120,0,17,,,,,,,,11,,,,74,64
120400,note_off,400,0,21,,,,,,,,15,,,,38,64
120400,note_off,400,0,7,,,,,,,,4,,,,50,64
120400,note_off,400,0,18,,,,,,,,12,,,,71,64
120400,note_off,400,0,3,,,,,,,,2,,,,74,64
120400,note_off,400,0,20,,,,,,,,14,,,,50,64
120400,note_off,400,0,19,,,,,,,,13,,,,66,64
120480,note_on,80,0,7,,,,,,,,4,,,,47,45
120480,note_on,80,0,21,,,,,,,,15,,,,35,45
120480,note_on,80,0,3,,,,,,,,2,,,,74,60
120480,note_on,80,0,18,,,,,,,,12,,,,71,45
120480,note_on,360,0,17,,,,,,,,11,,,,74,75
120480,note_on,80,0,19,,,,,,,,13,,,,66,45
120480,note_on,80,0,20,,,,,,,,14,,,,47,45
120600,note_off,120,0,17,,,,,,,,11,,,,74,64
120880,note_off,400,0,21,,,,,,,,15,,,,35,64
120880,note_off,400,0,7,,,,,,,,4,,,,47,64
120880,note_off,400,0,19,,,,,,,,13,,,,66,64
120880,note_off,400,0,18,,,,,,,,12,,,,71,64
120880,note_off,400,0,20,,,,,,,,14,,,,47,64
120880,note_off,400,0,3,,,,,,,,2,,,,74,64
120960,note_on,80,0,18,,,,,,,,12,,,,67,45
120960,note_on,80,0,20,,,,,,,,14,,,,52,45
120960,note_on,80,0,19,,,,,,,,13,,,,64,45
120960,note_on,360,0,17,,,,,,,,11,,,,74,75
120960,note_on,80,0,21,,,,,,,,15,,,,40,45
120960,note_on,80,0,7,,,,,,,,4,,,,52,45
120960,note_on,80,0,3,,,,,,,,2,,,,74,60
121360,note_off,400,0,3,,,,,,,,2,,,,74,64
121360,note_off,400,0,17,,,,,,,,11,,,,74,64
121440,note_on,80,0,17,,,,,,,,11,,,,79,75
121440,note_on,80,0,3,,,,,,,,2,,,,76,60
121675,note_off,235,0,17,,,,,,,,11,,,,79,64
121680,note_on,5,0,17,,,,,,,,11,,,,78,75
121680,note_off,240,0,3,,,,,,,,2,,,,76,64
121680,note_on,0,0,3,,,,,,,,2,,,,74,60
121800,note_off,840,0,20,,,,,,,,14,,,,52,64
121800,note_off,840,0,7,,,,,,,,4,,,,52,64
121800,note_off,840,0,18,,,,,,,,12,,,,67,64
121800,note_off,840,0,19,,,,,,,,13,,,,64,64
121800,note_off,840,0,21,,,,,,,,15,,,,40,64
121915,note_off,235,0,17,,,,,,,,11,,,,78,64
121915,note_off,235,0,3,,,,,,,,2,,,,74,64
121920,note_on,5,0,3,,,,,,,,2,,,,73,60
121920,note_on,5,0,17,,,,,,,,11,,,,76,75
122155,note_off,235,0,17,,,,,,,,11,,,,76,64
122160,note_on,5,0,17,,,,,,,,11,,,,78,75
122320,note_off,400,0,3,,,,,,,,2,,,,73,64
122395,note_off,235,0,17,,,,,,,,11,,,,78,64
122400,note_on,600,0,20,,,,,,,,14,,,,52,45
122400,note_on,600,0,21,,,,,,,,15,,,,40,45
122400,note_on,5,0,17,,,,,,,,11,,,,74,75
122400,note_on,600,0,7,,,,,,,,4,,,,52,45
122400,note_on,80,0,3,,,,,,,,2,,,,76,60
122400,note_on,600,0,18,,,,,,,,12,,,,67,45
122400,note_on,600,0,19,,,,,,,,13,,,,64,45
122635,note_off,235,0,17,,,,,,,,11,,,,74,64
122640,note_on,5,0,17,,,,,,,,11,,,,76,75
122800,note_off,400,0,20,,,,,,,,14,,,,52,64
122800,note_off,400,0,19,,,,,,,,13,,,,64,64
122800,note_off,400,0,21,,,,,,,,15,,,,40,64
122800,note_off,400,0,7,,,,,,,,4,,,,52,64
122800,note_off,400,0,18,,,,,,,,12,,,,67,64
122800,note_off,400,0,3,,,,,,,,2,,,,76,64
122875,note_off,235,0,17,,,,,,,,11,,,,76,64
122880,note_on,80,0,18,,,,,,,,12,,,,67,45
122880,note_on,80,0,7,,,,,,,,4,,,,55,45
122880,note_on,80,0,3,,,,,,,,2,,,,76,55
122880,note_on,80,0,20,,,,,,,,14,,,,55,45
122880,note_on,5,0,17,,,,,,,,11,,,,73,75
122880,note_on,80,0,21,,,,,,,,15,,,,43,45
122880,note_on,80,0,19,,,,,,,,13,,,,64,45
123115,note_off,235,0,17,,,,,,,,11,,,,73,64
123120,note_on,5,0,17,,,,,,,,11,,,,74,75
123280,note_off,400,0,7,,,,,,,,4,,,,55,64
123280,note_off,400,0,20,,,,,,,,14,,,,55,64
123280,note_off,400,0,18,,,,,,,,12,,,,67,64
123280,note_off,400,0,21,,,,,,,,15,,,,43,64
123280,note_off,400,0,3,,,,,,,,2,,,,76,64
123280,note_off,400,0,19,,,,,,,,13,,,,64,64
123355,note_off,235,0,17,,,,,,,,11,,,,74,64
123360,note_on,80,0,18,,,,,,,,12,,,,67,45
123360,note_on,5,0,17,,,,,,,,11,,,,71,75
123360,note_on,80,0,21,,,,,,,,15,,,,40,45
123360,note_on,80,0,20,,,,,,,,14,,,,52,45
123360,note_on,80,0,7,,,,,,,,4,,,,52,45
123360,note_on,80,0,3,,,,,,,,2,,,,76,50
123360,note_on,80,0,19,,,,,,,,13,,,,64,45
123595,note_off,235,0,17,,,,,,,,11,,,,71,64
123600,note_on,5,0,17,,,,,,,,11,,,,73,75
123760,note_off,400,0,19,,,,,,,,13,,,,64,64
123760,note_off,400,0,21,,,,,,,,15,,,,40,64
123760,note_off,400,0,7,,,,,,,,4,,,,52,64
123760,note_off,400,0,18,,,,,,,,12,,,,67,64
123760,note_off,400,0,20,,,,,,,,14,,,,52,64
123760,note_off,400,0,3,,,,,,,,2,,,,76,64
123835,note_off,235,0,17,,,,,,,,11,,,,73,64
123840,note_on,80,0,18,,,,,,,,12,,,,66,45
123840,note_on,80,0,21,,,,,,,,15,,,,42,45
123840,note_on,80,0,20,,,,,,,,14,,,,54,45
123840,note_on,80,0,3,,,,,,,,2,,,,76,45
123840,note_on,80,0,19,,,,,,,,13,,,,61,45
123840,note_on,80,0,7,,,,,,,,4,,,,54,45
123840,note_on,5,0,17,,,,,,,,11,,,,70,75
124075,note_off,235,0,17,,,,,,,,11,,,,70,64
124080,note_on,5,0,17,,,,,,,,11,,,,73,75
124315,note_off,235,0,17,,,,,,,,11,,,,73,64
124320,note_on,5,0,17,,,,,,,,11,,,,71,75
124555,note_off,235,0,17,,,,,,,,11,,,,71,64
124560,note_on,5,0,17,,,,,,,,11,,,,73,75
124680,note_off,840,0,18,,,,,,,,12,,,,66,64
124680,note_off,840,0,20,,,,,,,,14,,,,54,64
124680,note_off,840,0,21,,,,,,,,15,,,,42,64
124680,note_off,840,0,19,,,,,,,,13,,,,61,64
124680,note_off,840,0,7,,,,,,,,4,,,,54,64
124795,note_off,235,0,17,,,,,,,,11,,,,73,64
124800,note_on,5,0,17,,,,,,,,11,,,,70,75
125035,note_off,235,0,17,,,,,,,,11,,,,70,64
125040,note_on,5,0,17,,,,,,,,11,,,,73,75
125160,note_off,1320,0,3,,,,,,,,2,,,,76,64
125275,note_off,235,0,17,,,,,,,,11,,,,73,64
125280,note_on,600,0,18,,,,,,,,12,,,,66,45
125280,note_on,600,0,20,,,,,,,,14,,,,54,45
125280,note_on,120,0,3,,,,,,,,2,,,,76,45
125280,note_on,600,0,19,,,,,,,,13,,,,61,45
125280,note_on,600,0,7,,,,,,,,4,,,,54,45
125280,note_on,5,0,17,,,,,,,,11,,,,71,75
125280,note_on,600,0,21,,,,,,,,15,,,,42,45
125515,note_off,235,0,17,,,,,,,,11,,,,71,64
125520,note_on,5,0,17,,,,,,,,11,,,,73,75
125680,note_off,400,0,18,,,,,,,,12,,,,66,64
125680,note_off,400,0,20,,,,,,,,14,,,,54,64
125680,note_off,400,0,19,,,,,,,,13,,,,61,64
125680,note_off,400,0,21,,,,,,,,15,,,,42,64
125680,note_off,400,0,7,,,,,,,,4,,,,54,64
125755,note_off,235,0,17,,,,,,,,11,,,,73,64
125760,note_off,480,0,3,,,,,,,,2,,,,76,64
125760,note_on,0,0,3,,,,,,,,2,,,,78,45
125760,note_on,5,0,17,,,,,,,,11,,,,66,75
125760,note_on,80,0,21,,,,,,,,15,,,,46,45
125760,note_on,80,0,7,,,,,,,,4,,,,58,45
125760,note_on,80,0,18,,,,,,,,12,,,,73,45
125760,note_on,80,0,19,,,,,,,,13,,,,61,45
125760,note_on,80,0,20,,,,,,,,14,,,,58,45
125995,note_off,235,0,17,,,,,,,,11,,,,66,64
126000,note_on,5,0,17,,,,,,,,11,,,,78,75
126160,note_off,400,0,7,,,,,,,,4,,,,58,64
126160,note_off,400,0,18,,,,,,,,12,,,,73,64
126160,note_off,400,0,19,,,,,,,,13,,,,61,64
126160,note_off,400,0,21,,,,,,,,15,,,,46,64
126160,note_off,400,0,20,,,,,,,,14,,,,58,64
126235,note_off,235,0,17,,,,,,,,11,,,,78,64
126240,note_on,5,0,17,,,,,,,,11,,,,76,75
126240,note_on,80,0,7,,,,,,,,4,,,,54,45
126240,note_off,480,0,3,,,,,,,,2,,,,78,64
126240,note_on,80,0,19,,,,,,,,13,,,,61,45
126240,note_on,80,0,18,,,,,,,,12,,,,70,45
126240,note_on,80,0,21,,,,,,,,15,,,,42,45
126240,note_on,80,0,20,,,,,,,,14,,,,54,45
126240,note_on,0,0,3,,,,,,,,2,,,,73,45
126475,note_off,235,0,17,,,,,,,,11,,,,76,64
126480,note_on,5,0,17,,,,,,,,11,,,,78,75
126640,note_off,400,0,21,,,,,,,,15,,,,42,64
126640,note_off,400,0,18,,,,,,,,12,,,,70,64
126640,note_off,400,0,19,,,,,,,,13,,,,61,64
126640,note_off,400,0,3,,,,,,,,2,,,,73,64
126640,note_off,400,0,7,,,,,,,,4,,,,54,64
126640,note_off,400,0,20,,,,,,,,14,,,,54,64
126715,note_off,235,0,17,,,,,,,,11,,,,78,64
126720,note_on,80,0,3,,,,,,,,2,,,,74,45
126720,note_on,80,0,20,,,,,,,,14,,,,59,45
126720,note_on,80,0,19,,,,,,,,13,,,,59,45
126720,note_on,80,0,18,,,,,,,,12,,,,66,45
126720,note_on,80,0,21,,,,,,,,15,,,,47,45
126720,note_on,5,0,17,,,,,,,,11,,,,74,75
126720,note_on,80,0,7,,,,,,,,4,,,,59,45
126955,note_off,235,0,17,,,,,,,,11,,,,74,64
126960,note_on,5,0,17,,,,,,,,11,,,,78,75
127195,note_off,235,0,17,,,,,,,,11,,,,78,64
127200,note_on,5,0,17,,,,,,,,11,,,,76,75
127200,note_off,480,0,3,,,,,,,,2,,,,74,64
127200,note_on,0,0,3,,,,,,,,2,,,,78,45
127435,note_off,235,0,17,,,,,,,,11,,,,76,64
127440,note_on,5,0,17,,,,,,,,11,,,,78,75
127560,note_off,840,0,19,,,,,,,,13,,,,59,64
127560,note_off,840,0,18,,,,,,,,12,,,,66,64
127560,note_off,840,0,20,,,,,,,,14,,,,59,64
127560,note_off,840,0,21,,,,,,,,15,,,,47,64
127560,note_off,840,0,7,,,,,,,,4,,,,59,64
127675,note_off,235,0,17,,,,,,,,11,,,,78,64
127680,note_on,5,0,17,,,,,,,,11,,,,74,75
127915,note_off,235,0,17,,,,,,,,11,,,,74,64
127920,note_on,5,0,17,,,,,,,,11,,,,76,75
128040,note_off,840,0,3,,,,,,,,2,,,,78,64
128155,note_off,235,0,17,,,,,,,,11,,,,76,64
128160,note_on,600,0,21,,,,,,,,15,,,,35,45
128160,note_on,600,0,7,,,,,,,,4,,,,47,45
128160,note_on,600,0,19,,,,,,,,13,,,,59,45
128160,note_on,120,0,3,,,,,,,,2,,,,83,45
128160,note_on,5,0,17,,,,,,,,11,,,,73,75
128160,note_on,600,0,20,,,,,,,,14,,,,47,45
128160,note_on,600,0,18,,,,,,,,12,,,,66,45
128395,note_off,235,0,17,,,,,,,,11,,,,73,64
128400,note_on,5,0,17,,,,,,,,11,,,,74,75
128560,note_off,400,0,20,,,,,,,,14,,,,47,64
128560,note_off,400,0,19,,,,,,,,13,,,,59,64
128560,note_off,400,0,18,,,,,,,,12,,,,66,64
128560,note_off,400,0,21,,,,,,,,15,,,,35,64
128560,note_off,400,0,7,,,,,,,,4,,,,47,64
128635,note_off,235,0,17,,,,,,,,11,,,,74,64
128640,note_on,80,0,19,,,,,,,,13,,,,59,45
128640,note_on,80,0,21,,,,,,,,15,,,,38,45
128640,note_on,80,0,18,,,,,,,,12,,,,66,45
128640,note_on,5,0,17,,,,,,,,11,,,,71,75
128640,note_on,80,0,20,,,,,,,,14,,,,50,45
128640,note_on,80,0,7,,,,,,,,4,,,,50,45
128875,note_off,235,0,17,,,,,,,,11,,,,71,64
128880,note_on,5,0,17,,,,,,,,11,,,,83,75
129000,note_off,840,0,3,,,,,,,,2,,,,83,64
129040,note_off,400,0,21,,,,,,,,15,,,,38,64
129040,note_off,400,0,20,,,,,,,,14,,,,50,64
129040,note_off,400,0,7,,,,,,,,4,,,,50,64
129040,note_off,400,0,18,,,,,,,,12,,,,66,64
129040,note_off,400,0,19,,,,,,,,13,,,,59,64
129115,note_off,235,0,17,,,,,,,,11,,,,83,64
129120,note_on,80,0,19,,,,,,,,13,,,,59,45
129120,note_on,5,0,17,,,,,,,,11,,,,81,75
129120,note_on,80,0,20,,,,,,,,14,,,,47,45
129120,note_on,80,0,21,,,,,,,,15,,,,35,45
129120,note_on,80,0,7,,,,,,,,4,,,,47,45
129120,note_on,80,0,18,,,,,,,,12,,,,66,45
129120,note_on,120,0,3,,,,,,,,2,,,,78,45
129355,note_off,235,0,17,,,,,,,,11,,,,81,64
129360,note_on,5,0,17,,,,,,,,11,,,,83,75
129520,note_off,400,0,21,,,,,,,,15,,,,35,64
129520,note_off,400,0,19,,,,,,,,13,,,,59,64
129520,note_off,400,0,7,,,,,,,,4,,,,47,64
129520,note_off,400,0,18,,,,,,,,12,,,,66,64
129520,note_off,400,0,20,,,,,,,,14,,,,47,64
129595,note_off,235,0,17,,,,,,,,11,,,,83,64
129600,note_on,80,0,19,,,,,,,,13,,,,59,45
129600,note_on,80,0,7,,,,,,,,4,,,,52,45
129600,note_on,80,0,20,,,,,,,,14,,,,52,45
129600,note_on,80,0,21,,,,,,,,15,,,,40,45
129600,note_on,80,0,18,,,,,,,,12,,,,67,45
129600,note_on,5,0,17,,,,,,,,11,,,,79,75
129835,note_off,235,0,17,,,,,,,,11,,,,79,64
129840,note_on,5,0,17,,,,,,,,11,,,,81,75
130075,note_off,235,0,17,,,,,,,,11,,,,81,64
130080,note_on,5,0,17,,,,,,,,11,,,,83,75
130315,note_off,235,0,17,,,,,,,,11,,,,83,64
130320,note_on,5,0,17,,,,,,,,11,,,,81,75
130440,note_off,840,0,19,,,,,,,,13,,,,59,64
130440,note_off,840,0,7,,,,,,,,4,,,,52,64
130440,note_off,840,0,18,,,,,,,,12,,,,67,64
130440,note_off,840,0,21,,,,,,,,15,,,,40,64
130440,note_off,840,0,20,,,,,,,,14,,,,52,64
130440,note_off,1320,0,3,,,,,,,,2,,,,78,64
130555,note_off,235,0,17,,,,,,,,11,,,,81,64
130560,note_on,120,0,3,,,,,,,,2,,,,76,45
130560,note_on,5,0,17,,,,,,,,11,,,,79,75
130795,note_off,235,0,17,,,,,,,,11,,,,79,64
130800,note_on,5,0,17,,,,,,,,11,,,,81,75
131035,note_off,235,0,17,,,,,,,,11,,,,81,64
131040,note_off,480,0,3,,,,,,,,2,,,,76,64
131040,note_on,5,0,17,,,,,,,,11,,,,78,75
131040,note_on,0,0,3,,,,,,,,2,,,,79,45
131040,note_on,600,0,20,,,,,,,,14,,,,52,45
131040,note_on,600,0,19,,,,,,,,13,,,,59,45
131040,note_on,600,0,7,,,,,,,,4,,,,52,45
131040,note_on,600,0,21,,,,,,,,15,,,,40,45
131040,note_on,600,0,18,,,,,,,,12,,,,71,45
131275,note_off,235,0,17,,,,,,,,11,,,,78,64
131280,note_on,5,0,17,,,,,,,,11,,,,79,75
131440,note_off,400,0,18,,,,,,,,12,,,,71,64
131440,note_off,400,0,21,,,,,,,,15,,,,40,64
131440,note_off,400,0,20,,,,,,,,14,,,,52,64
131440,note_off,400,0,3,,,,,,,,2,,,,79,64
131440,note_off,400,0,19,,,,,,,,13,,,,59,64
131440,note_off,400,0,7,,,,,,,,4,,,,52,64
131515,note_off,235,0,17,,,,,,,,11,,,,79,64
131520,note_on,80,0,3,,,,,,,,2,,,,79,45
131520,note_on,5,0,17,,,,,,,,11,,,,76,75
131520,note_on,80,0,19,,,,,,,,13,,,,64,45
131520,note_on,80,0,21,,,,,,,,15,,,,43,45
131520,note_on,80,0,18,,,,,,,,12,,,,71,45
131520,note_on,80,0,20,,,,,,,,14,,,,55,45
131520,note_on,80,0,7,,,,,,,,4,,,,55,45
131755,note_off,235,0,17,,,,,,,,11,,,,76,64
131760,note_on,5,0,17,,,,,,,,11,,,,78,75
131920,note_off,400,0,18,,,,,,,,12,,,,71,64
131920,note_off,400,0,20,,,,,,,,14,,,,55,64
131920,note_off,400,0,21,,,,,,,,15,,,,43,64
131920,note_off,400,0,19,,,,,,,,13,,,,64,64
131920,note_off,400,0,7,,,,,,,,4,,,,55,64
131995,note_off,235,0,17,,,,,,,,11,,,,78,64
132000,note_on,80,0,21,,,,,,,,15,,,,40,45
132000,note_on,80,0,19,,,,,,,,13,,,,64,45
132000,note_on,80,0,18,,,,,,,,12,,,,71,45
132000,note_on,80,0,7,,,,,,,,4,,,,52,45
132000,note_on,5,0,17,,,,,,,,11,,,,74,75
132000,note_on,80,0,20,,,,,,,,14,,,,52,45
132235,note_off,235,0,17,,,,,,,,11,,,,74,64
132240,note_on,5,0,17,,,,,,,,11,,,,76,75
132400,note_off,400,0,18,,,,,,,,12,,,,71,64
132400,note_off,400,0,7,,,,,,,,4,,,,52,64
132400,note_off,400,0,19,,,,,,,,13,,,,64,64
132400,note_off,400,0,20,,,,,,,,14,,,,52,64
132400,note_off,400,0,21,,,,,,,,15,,,,40,64
132475,note_off,235,0,17,,,,,,,,11,,,,76,64
132480,note_on,80,0,19,,,,,,,,13,,,,64,45
132480,note_on,80,0,20,,,,,,,,14,,,,57,45
132480,note_on,80,0,18,,,,,,,,12,,,,73,45
132480,note_on,80,0,21,,,,,,,,15,,,,45,45
132480,note_on,5,0,17,,,,,,,,11,,,,73,75
132480,note_on,80,0,7,,,,,,,,4,,,,57,45
132715,note_off,235,0,17,,,,,,,,11,,,,73,64
132720,note_on,5,0,17,,,,,,,,11,,,,74,75
132955,note_off,235,0,17,,,,,,,,11,,,,74,64
132960,note_on,5,0,17,,,,,,,,11,,,,76,75
133195,note_off,235,0,17,,,,,,,,11,,,,76,64
133200,note_on,5,0,17,,,,,,,,11,,,,74,75
133320,note_off,840,0,7,,,,,,,,4,,,,57,64
133320,note_off,840,0,21,,,,,,,,15,,,,45,64
133320,note_off,840,0,19,,,,,,,,13,,,,64,64
133320,note_off,840,0,20,,,,,,,,14,,,,57,64
133320,note_off,840,0,18,,,,,,,,12,,,,73,64
133435,note_off,235,0,17,,,,,,,,11,,,,74,64
133440,note_on,5,0,17,,,,,,,,11,,,,73,75
133675,note_off,235,0,17,,,,,,,,11,,,,73,64
133680,note_on,5,0,17,,,,,,,,11,,,,74,75
133800,note_off,2280,0,3,,,,,,,,2,,,,79,64
133915,note_off,235,0,17,,,,,,,,11,,,,74,64
133920,note_on,600,0,21,,,,,,,,15,,,,33,45
133920,note_on,5,0,17,,,,,,,,11,,,,71,75
133920,note_on,600,0,19,,,,,,,,13,,,,64,45
133920,note_on,600,0,7,,,,,,,,4,,,,45,45
133920,note_on,120,0,3,,,,,,,,2,,,,79,45
133920,note_on,600,0,18,,,,,,,,12,,,,73,45
133920,note_on,600,0,20,,,,,,,,14,,,,45,45
134155,note_off,235,0,17,,,,,,,,11,,,,71,64
134160,note_on,5,0,17,,,,,,,,11,,,,73,75
134320,note_off,400,0,20,,,,,,,,14,,,,45,64
134320,note_off,400,0,19,,,,,,,,13,,,,64,64
134320,note_off,400,0,7,,,,,,,,4,,,,45,64
134320,note_off,400,0,21,,,,,,,,15,,,,33,64
134320,note_off,400,0,18,,,,,,,,12,,,,73,64
134395,note_off,235,0,17,,,,,,,,11,,,,73,64
134400,note_on,5,0,17,,,,,,,,11,,,,69,75
134400,note_on,80,0,21,,,,,,,,15,,,,37,45
134400,note_on,80,0,18,,,,,,,,12,,,,73,45
134400,note_on,80,0,20,,,,,,,,14,,,,49,45
134400,note_on,80,0,7,,,,,,,,4,,,,49,45
134400,note_on,80,0,19,,,,,,,,13,,,,64,45
134400,note_on,0,0,3,,,,,,,,2,,,,78,45
134400,note_off,480,0,3,,,,,,,,2,,,,79,64
134635,note_off,235,0,17,,,,,,,,11,,,,69,64
134640,note_on,5,0,17,,,,,,,,11,,,,81,75
134800,note_off,400,0,7,,,,,,,,4,,,,49,64
134800,note_off,400,0,21,,,,,,,,15,,,,37,64
134800,note_off,400,0,19,,,,,,,,13,,,,64,64
134800,note_off,400,0,18,,,,,,,,12,,,,73,64
134800,note_off,400,0,20,,,,,,,,14,,,,49,64
134875,note_off,235,0,17,,,,,,,,11,,,,81,64
134880,note_on,0,0,3,,,,,,,,2,,,,76,45
134880,note_off,480,0,3,,,,,,,,2,,,,78,64
134880,note_on,80,0,18,,,,,,,,12,,,,73,45
134880,note_on,5,0,17,,,,,,,,11,,,,79,75
134880,note_on,80,0,20,,,,,,,,14,,,,45,45
134880,note_on,80,0,19,,,,,,,,13,,,,64,45
134880,note_on,80,0,21,,,,,,,,15,,,,33,45
134880,note_on,80,0,7,,,,,,,,4,,,,45,45
135115,note_off,235,0,17,,,,,,,,11,,,,79,64
135120,note_on,5,0,17,,,,,,,,11,,,,81,75
135280,note_off,400,0,7,,,,,,,,4,,,,45,64
135280,note_off,400,0,20,,,,,,,,14,,,,45,64
135280,note_off,400,0,3,,,,,,,,2,,,,76,64
135280,note_off,400,0,19,,,,,,,,13,,,,64,64
135280,note_off,400,0,21,,,,,,,,15,,,,33,64
135280,note_off,400,0,18,,,,,,,,12,,,,73,64
135355,note_off,235,0,17,,,,,,,,11,,,,81,64
135360,note_on,80,0,7,,,,,,,,4,,,,50,45
135360,note_on,80,0,19,,,,,,,,13,,,,62,45
135360,note_on,5,0,17,,,,,,,,11,,,,78,75
135360,note_on,80,0,20,,,,,,,,14,,,,50,45
135360,note_on,80,0,18,,,,,,,,12,,,,74,45
135360,note_on,80,0,21,,,,,,,,15,,,,38,45
135360,note_on,80,0,3,,,,,,,,2,,,,78,45
135760,note_off,400,0,3,,,,,,,,2,,,,78,64
135760,note_off,400,0,17,,,,,,,,11,,,,78,64
135840,note_on,80,0,17,,,,,,,,11,,,,83,75
135840,note_on,80,0,3,,,,,,,,2,,,,83,45
136075,note_off,235,0,17,,,,,,,,11,,,,83,64
136080,note_on,5,0,17,,,,,,,,11,,,,81,75
136200,note_off,840,0,18,,,,,,,,12,,,,74,64
136200,note_off,840,0,21,,,,,,,,15,,,,38,64
136200,note_off,840,0,19,,,,,,,,13,,,,62,64
136200,note_off,840,0,20,,,,,,,,14,,,,50,64
136200,note_off,840,0,7,,,,,,,,4,,,,50,64
136315,note_off,235,0,17,,,,,,,,11,,,,81,64
136320,note_on,5,0,17,,,,,,,,11,,,,80,75
136680,note_off,840,0,3,,,,,,,,2,,,,83,64
136720,note_off,400,0,17,,,,,,,,11,,,,80,64
136800,note_on,600,0,21,,,,,,,,15,,,,38,45
136800,note_on,600,0,7,,,,,,,,4,,,,50,45
136800,note_on,600,0,20,,,,,,,,14,,,,50,45
136800,note_on,120,0,3,,,,,,,,2,,,,80,45
136800,note_on,600,0,19,,,,,,,,13,,,,62,45
136800,note_on,80,0,17,,,,,,,,11,,,,83,75
136800,note_on,600,0,18,,,,,,,,12,,,,74,45
137035,note_off,235,0,17,,,,,,,,11,,,,83,64
137040,note_on,5,0,17,,,,,,,,11,,,,81,75
137200,note_off,400,0,21,,,,,,,,15,,,,38,64
137200,note_off,400,0,20,,,,,,,,14,,,,50,64
137200,note_off,400,0,7,,,,,,,,4,,,,50,64
137200,note_off,400,0,18,,,,,,,,12,,,,74,64
137200,note_off,400,0,19,,,,,,,,13,,,,62,64
137275,note_off,235,0,17,,,,,,,,11,,,,81,64
137280,note_on,5,0,17,,,,,,,,11,,,,80,75
137280,note_on,80,0,18,,,,,,,,12,,,,74,45
137280,note_on,80,0,7,,,,,,,,4,,,,47,45
137280,note_on,80,0,21,,,,,,,,15,,,,35,45
137280,note_on,80,0,20,,,,,,,,14,,,,47,45
137280,note_on,80,0,19,,,,,,,,13,,,,62,45
137515,note_off,235,0,17,,,,,,,,11,,,,80,64
137520,note_on,5,0,17,,,,,,,,11,,,,81,75
137640,note_off,840,0,3,,,,,,,,2,,,,80,64
137680,note_off,400,0,18,,,,,,,,12,,,,74,64
137680,note_off,400,0,21,,,,,,,,15,,,,35,64
137680,note_off,400,0,7,,,,,,,,4,,,,47,64
137680,note_off,400,0,19,,,,,,,,13,,,,62,64
137680,note_off,400,0,20,,,,,,,,14,,,,47,64
137755,note_off,235,0,17,,,,,,,,11,,,,81,64
137760,note_on,80,0,21,,,,,,,,15,,,,38,45
137760,note_on,80,0,7,,,,,,,,4,,,,50,45
137760,note_on,80,0,19,,,,,,,,13,,,,62,45
137760,note_on,5,0,17,,,,,,,,11,,,,78,75
137760,note_on,80,0,18,,,,,,,,12,,,,71,45
137760,note_on,80,0,20,,,,,,,,14,,,,50,45
137760,note_on,120,0,3,,,,,,,,2,,,,78,45
137995,note_off,235,0,17,,,,,,,,11,,,,78,64
138000,note_on,5,0,17,,,,,,,,11,,,,80,75
138160,note_off,400,0,3,,,,,,,,2,,,,78,64
138160,note_off,400,0,21,,,,,,,,15,,,,38,64
138160,note_off,400,0,20,,,,,,,,14,,,,50,64
138160,note_off,400,0,19,,,,,,,,13,,,,62,64
138160,note_off,400,0,7,,,,,,,,4,,,,50,64
138160,note_off,400,0,18,,,,,,,,12,,,,71,64
138235,note_off,235,0,17,,,,,,,,11,,,,80,64
138240,note_on,80,0,3,,,,,,,,2,,,,77,45
138240,note_on,80,0,21,,,,,,,,15,,,,37,45
138240,note_on,80,0,19,,,,,,,,13,,,,68,45
138240,note_on,80,0,20,,,,,,,,14,,,,49,45
138240,note_on,80,0,7,,,,,,,,4,,,,49,45
138240,note_on,80,0,18,,,,,,,,12,,,,71,45
138240,note_on,5,0,17,,,,,,,,11,,,,77,75
138640,note_off,400,0,17,,,,,,,,11,,,,77,64
138720,note_on,80,0,17,,,,,,,,11,,,,73,75
139080,note_off,840,0,20,,,,,,,,14,,,,49,64
139080,note_off,840,0,19,,,,,,,,13,,,,68,64
139080,note_off,840,0,18,,,,,,,,12,,,,71,64
139080,note_off,840,0,3,,,,,,,,2,,,,77,64
139080,note_off,840,0,21,,,,,,,,15,,,,37,64
139080,note_off,840,0,7,,,,,,,,4,,,,49,64
139120,note_off,400,0,17,,,,,,,,11,,,,73,64
139200,note_on,80,0,17,,,,,,,,11,,,,73,75
139440,note_on,0,0,17,,,,,,,,11,,,,74,75
139440,note_off,240,0,17,,,,,,,,11,,,,73,64
139675,note_off,235,0,17,,,,,,,,11,,,,74,64
139680,note_on,5,0,17,,,,,,,,11,,,,73,75
139680,note_on,600,0,19,,,,,,,,13,,,,68,45
139680,note_on,600,0,18,,,,,,,,12,,,,68,45
139680,note_on,600,0,21,,,,,,,,15,,,,37,45
139680,note_on,600,0,20,,,,,,,,14,,,,49,45
139680,note_on,600,0,7,,,,,,,,4,,,,49,45
139680,note_on,600,0,3,,,,,,,,2,,,,73,45
140080,note_off,400,0,3,,,,,,,,2,,,,73,64
140080,note_off,400,0,19,,,,,,,,13,,,,68,64
140080,note_off,400,0,18,,,,,,,,12,,,,68,64
140080,note_off,400,0,20,,,,,,,,14,,,,49,64
140080,note_off,400,0,21,,,,,,,,15,,,,37,64
140080,note_off,400,0,7,,,,,,,,4,,,,49,64
140080,note_off,400,0,17,,,,,,,,11,,,,73,64
140160,note_on,80,0,21,,,,,,,,15,,,,49,45
140160,note_on,80,0,17,,,,,,,,11,,,,73,75
140160,note_on,80,0,3,,,,,,,,2,,,,73,45
140160,note_on,80,0,7,,,,,,,,4,,,,61,45
140160,note_on,80,0,18,,,,,,,,12,,,,66,45
140160,note_on,80,0,20,,,,,,,,14,,,,61,45
140160,note_on,80,0,19,,,,,,,,13,,,,61,45
140220,note_off,60,0,3,,,,,,,,2,,,,73,64
140220,note_on,0,0,17,,,,,,,,11,,,,74,75
140220,note_off,60,0,17,,,,,,,,11,,,,73,64
140220,note_on,0,0,3,,,,,,,,2,,,,74,45
140280,note_off,60,0,3,,,,,,,,2,,,,74,64
140280,note_on,0,0,17,,,,,,,,11,,,,73,75
140280,note_on,0,0,3,,,,,,,,2,,,,73,45
140280,note_off,60,0,17,,,,,,,,11,,,,74,64
140340,note_off,60,0,3,,,,,,,,2,,,,73,64
140340,note_on,0,0,3,,,,,,,,2,,,,74,45
140340,note_on,0,0,17,,,,,,,,11,,,,74,75
140340,note_off,60,0,17,,,,,,,,11,,,,73,64
140400,note_off,60,0,3,,,,,,,,2,,,,74,64
140400,note_on,0,0,3,,,,,,,,2,,,,73,45
140400,note_on,0,0,17,,,,,,,,11,,,,73,75
140400,note_off,60,0,17,,,,,,,,11,,,,74,64
140460,note_off,60,0,17,,,,,,,,11,,,,73,64
140460,note_off,60,0,3,,,,,,,,2,,,,73,64
140460,note_on,0,0,17,,,,,,,,11,,,,74,75
140460,note_on,0,0,3,,,,,,,,2,,,,74,45
140520,note_on,0,0,17,,,,,,,,11,,,,73,75
140520,note_off,60,0,3,,,,,,,,2,,,,74,64
140520,note_on,0,0,3,,,,,,,,2,,,,73,45
140520,note_off,60,0,17,,,,,,,,11,,,,74,64
140560,note_off,400,0,7,,,,,,,,4,,,,61,64
140560,note_off,400,0,20,,,,,,,,14,,,,61,64
140560,note_off,400,0,21,,,,,,,,15,,,,49,64
140560,note_off,400,0,18,,,,,,,,12,,,,66,64
140560,note_off,400,0,19,,,,,,,,13,,,,61,64
140580,note_on,0,0,3,,,,,,,,2,,,,74,45
140580,note_off,60,0,3,,,,,,,,2,,,,73,64
140580,note_on,0,0,17,,,,,,,,11,,,,74,75
140580,note_off,60,0,17,,,,,,,,11,,,,73,64
140640,note_on,0,0,3,,,,,,,,2,,,,73,45
140640,note_on,0,0,17,,,,,,,,11,,,,73,75
140640,note_off,60,0,17,,,,,,,,11,,,,74,64
140640,note_off,60,0,3,,,,,,,,2,,,,74,64
140640,note_on,80,0,7,,,,,,,,4,,,,49,45
140640,note_on,80,0,18,,,,,,,,12,,,,65,45
140640,note_on,80,0,20,,,,,,,,14,,,,49,45
140640,note_on,80,0,21,,,,,,,,15,,,,37,45
140640,note_on,80,0,19,,,,,,,,13,,,,61,45
140700,note_on,0,0,3,,,,,,,,2,,,,74,45
140700,note_off,60,0,3,,,,,,,,2,,,,73,64
140700,note_off,60,0,17,,,,,,,,11,,,,73,64
140700,note_on,0,0,17,,,,,,,,11,,,,74,75
140760,note_on,0,0,3,,,,,,,,2,,,,69,45
140760,note_off,60,0,3,,,,,,,,2,,,,74,64
140760,note_off,60,0,17,,,,,,,,11,,,,74,64
140760,note_on,0,0,17,,,,,,,,11,,,,69,75
140820,note_off,60,0,3,,,,,,,,2,,,,69,64
140820,note_off,60,0,17,,,,,,,,11,,,,69,64
140820,note_on,0,0,3,,,,,,,,2,,,,71,45
140820,note_on,0,0,17,,,,,,,,11,,,,71,75
140875,note_off,55,0,3,,,,,,,,2,,,,71,64
140875,note_off,55,0,17,,,,,,,,11,,,,71,64
140880,note_on,5,0,17,,,,,,,,11,,,,71,75
140880,note_on,5,0,3,,,,,,,,2,,,,71,45
141000,note_off,120,0,17,,,,,,,,11,,,,71,64
141000,note_on,0,0,17,,,,,,,,11,,,,73,75
141000,note_off,120,0,3,,,,,,,,2,,,,71,64
141000,note_on,0,0,3,,,,,,,,2,,,,73,45
141040,note_off,400,0,19,,,,,,,,13,,,,61,64
141040,note_off,400,0,7,,,,,,,,4,,,,49,64
141040,note_off,400,0,20,,,,,,,,14,,,,49,64
141040,note_off,400,0,21,,,,,,,,15,,,,37,64
141040,note_off,400,0,18,,,,,,,,12,,,,65,64
141115,note_off,115,0,3,,,,,,,,2,,,,73,64
141115,note_off,115,0,17,,,,,,,,11,,,,73,64
141120,note_on,80,0,19,,,,,,,,13,,,,57,45
141120,note_on,5,0,3,,,,,,,,2,,,,78,45
141120,note_on,80,0,20,,,,,,,,14,,,,61,45
141120,note_on,5,0,17,,,,,,,,11,,,,78,75
141120,note_on,80,0,7,,,,,,,,4,,,,61,45
141120,note_on,80,0,21,,,,,,,,15,,,,49,45
141120,note_on,80,0,18,,,,,,,,12,,,,66,45
141520,note_off,400,0,17,,,,,,,,11,,,,78,64
141600,note_on,80,0,17,,,,,,,,11,,,,73,75
141960,note_off,840,0,19,,,,,,,,13,,,,57,64
141960,note_off,840,0,21,,,,,,,,15,,,,49,64
141960,note_off,840,0,20,,,,,,,,14,,,,61,64
141960,note_off,840,0,3,,,,,,,,2,,,,78,64
141960,note_off,840,0,18,,,,,,,,12,,,,66,64
141960,note_off,840,0,7,,,,,,,,4,,,,61,64
142000,note_off,400,0,17,,,,,,,,11,,,,73,64
142080,note_on,80,0,17,,,,,,,,11,,,,73,75
142320,note_off,240,0,17,,,,,,,,11,,,,73,64
142320,note_on,0,0,17,,,,,,,,11,,,,74,75
142555,note_off,235,0,17,,,,,,,,11,,,,74,64
142560,note_on,600,0,21,,,,,,,,15,,,,37,45
142560,note_on,600,0,19,,,,,,,,13,,,,66,45
142560,note_on,600,0,18,,,,,,,,12,,,,69,45
142560,note_on,600,0,20,,,,,,,,14,,,,49,45
142560,note_on,5,0,17,,,,,,,,11,,,,73,75
142560,note_on,600,0,3,,,,,,,,2,,,,73,45
142560,note_on,600,0,7,,,,,,,,4,,,,49,45
142960,note_off,400,0,18,,,,,,,,12,,,,69,64
142960,note_off,400,0,20,,,,,,,,14,,,,49,64
142960,note_off,400,0,3,,,,,,,,2,,,,73,64
142960,note_off,400,0,19,,,,,,,,13,,,,66,64
142960,note_off,400,0,7,,,,,,,,4,,,,49,64
142960,note_off,400,0,17,,,,,,,,11,,,,73,64
142960,note_off,400,0,21,,,,,,,,15,,,,37,64
143040,note_on,80,0,17,,,,,,,,11,,,,73,75
143040,note_on,80,0,19,,,,,,,,13,,,,68,45
143040,note_on,80,0,21,,,,,,,,15,,,,49,45
143040,note_on,80,0,20,,,,,,,,14,,,,61,45
143040,note_on,80,0,7,,,,,,,,4,,,,61,45
143040,note_on,80,0,3,,,,,,,,2,,,,73,45
143040,note_on,80,0,18,,,,,,,,12,,,,68,45
143100,note_on,0,0,17,,,,,,,,11,,,,74,75
143100,note_on,0,0,3,,,,,,,,2,,,,74,45
143100,note_off,60,0,3,,,,,,,,2,,,,73,64
143100,note_off,60,0,17,,,,,,,,11,,,,73,64
143160,note_on,0,0,17,,,,,,,,11,,,,73,75
143160,note_off,60,0,17,,,,,,,,11,,,,74,64
143160,note_off,60,0,3,,,,,,,,2,,,,74,64
143160,note_on,0,0,3,,,,,,,,2,,,,73,45
143220,note_on,0,0,3,,,,,,,,2,,,,74,45
143220,note_off,60,0,17,,,,,,,,11,,,,73,64
143220,note_off,60,0,3,,,,,,,,2,,,,73,64
143220,note_on,0,0,17,,,,,,,,11,,,,74,75
143280,note_off,60,0,17,,,,,,,,11,,,,74,64
143280,note_on,0,0,3,,,,,,,,2,,,,73,45
143280,note_on,0,0,17,,,,,,,,11,,,,73,75
143280,note_off,60,0,3,,,,,,,,2,,,,74,64
143340,note_off,60,0,3,,,,,,,,2,,,,73,64
143340,note_on,0,0,17,,,,,,,,11,,,,74,75
143340,note_off,60,0,17,,,,,,,,11,,,,73,64
143340,note_on,0,0,3,,,,,,,,2,,,,74,45
143400,note_on,0,0,3,,,,,,,,2,,,,73,45
143400,note_off,60,0,17,,,,,,,,11,,,,74,64
143400,note_on,0,0,17,,,,,,,,11,,,,73,75
143400,note_off,60,0,3,,,,,,,,2,,,,74,64
143440,note_off,400,0,18,,,,,,,,12,,,,68,64
143440,note_off,400,0,19,,,,,,,,13,,,,68,64
143440,note_off,400,0,7,,,,,,,,4,,,,61,64
143440,note_off,400,0,20,,,,,,,,14,,,,61,64
143440,note_off,400,0,21,,,,,,,,15,,,,49,64
143460,note_off,60,0,3,,,,,,,,2,,,,73,64
143460,note_on,0,0,3,,,,,,,,2,,,,74,45
143460,note_off,60,0,17,,,,,,,,11,,,,73,64
143460,note_on,0,0,17,,,,,,,,11,,,,74,75
143520,note_off,60,0,17,,,,,,,,11,,,,74,64
143520,note_off,60,0,3,,,,,,,,2,,,,74,64
143520,note_on,80,0,19,,,,,,,,13,,,,69,45
143520,note_on,0,0,3,,,,,,,,2,,,,73,45
143520,note_on,0,0,17,,,,,,,,11,,,,73,75
143520,note_on,80,0,21,,,,,,,,15,,,,37,45
143520,note_on,80,0,18,,,,,,,,12,,,,66,45
143520,note_on,80,0,7,,,,,,,,4,,,,49,45
143520,note_on,80,0,20,,,,,,,,14,,,,49,45
143580,note_on,0,0,3,,,,,,,,2,,,,74,45
143580,note_off,60,0,3,,,,,,,,2,,,,73,64
143580,note_on,0,0,17,,,,,,,,11,,,,74,75
143580,note_off,60,0,17,,,,,,,,11,,,,73,64
143640,note_off,60,0,17,,,,,,,,11,,,,74,64
143640,note_on,0,0,17,,,,,,,,11,,,,69,75
143640,note_on,0,0,3,,,,,,,,2,,,,69,45
143640,note_off,60,0,3,,,,,,,,2,,,,74,64
143700,note_on,0,0,3,,,,,,,,2,,,,71,45
143700,note_off,60,0,17,,,,,,,,11,,,,69,64
143700,note_on,0,0,17,,,,,,,,11,,,,71,75
143700,note_off,60,0,3,,,,,,,,2,,,,69,64
143755,note_off,55,0,3,,,,,,,,2,,,,71,64
143755,note_off,55,0,17,,,,,,,,11,,,,71,64
143760,note_on,5,0,3,,,,,,,,2,,,,71,45
143760,note_on,5,0,17,,,,,,,,11,,,,71,75
143880,note_on,0,0,17,,,,,,,,11,,,,73,75
143880,note_off,120,0,17,,,,,,,,11,,,,71,64
143880,note_off,120,0,3,,,,,,,,2,,,,71,64
143880,note_on,0,0,3,,,,,,,,2,,,,73,45
143920,note_off,400,0,7,,,,,,,,4,,,,49,64
143920,note_off,400,0,19,,,,,,,,13,,,,69,64
143920,note_off,400,0,21,,,,,,,,15,,,,37,64
143920,note_off,400,0,20,,,,,,,,14,,,,49,64
143920,note_off,400,0,18,,,,,,,,12,,,,66,64
143995,note_off,115,0,17,,,,,,,,11,,,,73,64
143995,note_off,115,0,3,,,,,,,,2,,,,73,64
144000,note_on,80,0,21,,,,,,,,15,,,,49,45
144000,note_on,5,0,3,,,,,,,,2,,,,80,45
144000,note_on,80,0,7,,,,,,,,4,,,,61,45
144000,note_on,80,0,20,,,,,,,,14,,,,61,45
144000,note_on,80,0,19,,,,,,,,13,,,,68,45
144000,note_on,5,0,17,,,,,,,,11,,,,80,75
144000,note_on,80,0,18,,,,,,,,12,,,,71,45
144400,note_off,400,0,17,,,,,,,,11,,,,80,64
144480,note_on,80,0,17,,,,,,,,11,,,,73,75
144840,note_off,840,0,3,,,,,,,,2,,,,80,64
144840,note_off,840,0,21,,,,,,,,15,,,,49,64
144840,note_off,840,0,19,,,,,,,,13,,,,68,64
144840,note_off,840,0,7,,,,,,,,4,,,,61,64
144840,note_off,840,0,20,,,,,,,,14,,,,61,64
144840,note_off,840,0,18,,,,,,,,12,,,,71,64
144880,note_off,400,0,17,,,,,,,,11,,,,73,64
144960,note_on,80,0,17,,,,,,,,11,,,,73,75
145200,note_off,240,0,17,,,,,,,,11,,,,73,64
145200,note_on,0,0,17,,,,,,,,11,,,,74,75
145435,note_off,235,0,17,,,,,,,,11,,,,74,64
145440,note_on,600,0,18,,,,,,,,12,,,,59,45
145440,note_on,5,0,17,,,,,,,,11,,,,73,75
145440,note_on,600,0,3,,,,,,,,2,,,,73,45
145440,note_on,600,0,20,,,,,,,,14,,,,49,45
145440,note_on,600,0,7,,,,,,,,4,,,,49,45
145440,note_on,600,0,19,,,,,,,,13,,,,68,45
145440,note_on,600,0,21,,,,,,,,15,,,,37,45
145840,note_off,400,0,3,,,,,,,,2,,,,73,64
145840,note_off,400,0,17,,,,,,,,11,,,,73,64
145840,note_off,400,0,20,,,,,,,,14,,,,49,64
145840,note_off,400,0,21,,,,,,,,15,,,,37,64
145840,note_off,400,0,18,,,,,,,,12,,,,59,64
145840,note_off,400,0,7,,,,,,,,4,,,,49,64
145840,note_off,400,0,19,,,,,,,,13,,,,68,64
145920,note_on,80,0,20,,,,,,,,14,,,,61,45
145920,note_on,80,0,17,,,,,,,,11,,,,73,75
145920,note_on,80,0,7,,,,,,,,4,,,,61,45
145920,note_on,80,0,18,,,,,,,,12,,,,65,45
145920,note_on,80,0,21,,,,,,,,15,,,,49,45
145920,note_on,80,0,3,,,,,,,,2,,,,73,45
145920,note_on,80,0,19,,,,,,,,13,,,,68,45
145980,note_on,0,0,3,,,,,,,,2,,,,74,45
145980,note_off,60,0,17,,,,,,,,11,,,,73,64
145980,note_on,0,0,17,,,,,,,,11,,,,74,75
145980,note_off,60,0,3,,,,,,,,2,,,,73,64
146040,note_on,0,0,3,,,,,,,,2,,,,73,45
146040,note_off,60,0,3,,,,,,,,2,,,,74,64
146040,note_off,60,0,17,,,,,,,,11,,,,74,64
146040,note_on,0,0,17,,,,,,,,11,,,,73,75
146100,note_off,60,0,17,,,,,,,,11,,,,73,64
146100,note_on,0,0,17,,,,,,,,11,,,,74,75
146100,note_off,60,0,3,,,,,,,,2,,,,73,64
146100,note_on,0,0,3,,,,,,,,2,,,,74,45
146160,note_off,60,0,3,,,,,,,,2,,,,74,64
146160,note_on,0,0,17,,,,,,,,11,,,,73,75
146160,note_off,60,0,17,,,,,,,,11,,,,74,64
146160,note_on,0,0,3,,,,,,,,2,,,,73,45
146220,note_off,60,0,3,,,,,,,,2,,,,73,64
146220,note_off,60,0,17,,,,,,,,11,,,,73,64
146220,note_on,0,0,3,,,,,,,,2,,,,74,45
146220,note_on,0,0,17,,,,,,,,11,,,,74,75
146280,note_off,60,0,3,,,,,,,,2,,,,74,64
146280,note_on,0,0,17,,,,,,,,11,,,,73,75
146280,note_off,60,0,17,,,,,,,,11,,,,74,64
146280,note_on,0,0,3,,,,,,,,2,,,,73,45
146320,note_off,400,0,18,,,,,,,,12,,,,65,64
146320,note_off,400,0,20,,,,,,,,14,,,,61,64
146320,note_off,400,0,19,,,,,,,,13,,,,68,64
146320,note_off,400,0,7,,,,,,,,4,,,,61,64
146320,note_off,400,0,21,,,,,,,,15,,,,49,64
146340,note_off,60,0,3,,,,,,,,2,,,,73,64
146340,note_on,0,0,17,,,,,,,,11,,,,74,75
146340,note_on,0,0,3,,,,,,,,2,,,,74,45
146340,note_off,60,0,17,,,,,,,,11,,,,73,64
146400,note_on,80,0,18,,,,,,,,12,,,,65,45
146400,note_on,80,0,7,,,,,,,,4,,,,49,45
146400,note_on,80,0,20,,,,,,,,14,,,,49,45
146400,note_on,0,0,3,,,,,,,,2,,,,73,45
146400,note_on,80,0,19,,,,,,,,13,,,,68,45
146400,note_on,0,0,17,,,,,,,,11,,,,73,75
146400,note_off,60,0,17,,,,,,,,11,,,,74,64
146400,note_on,80,0,21,,,,,,,,15,,,,37,45
146400,note_off,60,0,3,,,,,,,,2,,,,74,64
146460,note_on,0,0,17,,,,,,,,11,,,,74,75
146460,note_on,0,0,3,,,,,,,,2,,,,74,45
146460,note_off,60,0,17,,,,,,,,11,,,,73,64
146460,note_off,60,0,3,,,,,,,,2,,,,73,64
146520,note_on,0,0,3,,,,,,,,2,,,,69,45
146520,note_off,60,0,3,,,,,,,,2,,,,74,64
146520,note_on,0,0,17,,,,,,,,11,,,,69,75
146520,note_off,60,0,17,,,,,,,,11,,,,74,64
146580,note_off,60,0,17,,,,,,,,11,,,,69,64
146580,note_off,60,0,3,,,,,,,,2,,,,69,64
146580,note_on,0,0,3,,,,,,,,2,,,,71,45
146580,note_on,0,0,17,,,,,,,,11,,,,71,75
146635,note_off,55,0,17,,,,,,,,11,,,,71,64
146635,note_off,55,0,3,,,,,,,,2,,,,71,64
146640,note_on,5,0,17,,,,,,,,11,,,,71,75
146640,note_on,5,0,3,,,,,,,,2,,,,71,45
146760,note_off,120,0,3,,,,,,,,2,,,,71,64
146760,note_on,0,0,3,,,,,,,,2,,,,73,45
146760,note_off,120,0,17,,,,,,,,11,,,,71,64
146760,note_on,0,0,17,,,,,,,,11,,,,73,75
146800,note_off,400,0,18,,,,,,,,12,,,,65,64
146800,note_off,400,0,19,,,,,,,,13,,,,68,64
146800,note_off,400,0,20,,,,,,,,14,,,,49,64
146800,note_off,400,0,21,,,,,,,,15,,,,37,64
146800,note_off,400,0,7,,,,,,,,4,,,,49,64
146875,note_off,115,0,3,,,,,,,,2,,,,73,64
146875,note_off,115,0,17,,,,,,,,11,,,,73,64
146880,note_on,5,0,17,,,,,,,,11,,,,81,75
146880,note_on,80,0,21,,,,,,,,15,,,,49,45
146880,note_on,80,0,20,,,,,,,,14,,,,61,45
146880,note_on,5,0,3,,,,,,,,2,,,,81,45
146880,note_on,80,0,19,,,,,,,,13,,,,69,45
146880,note_on,80,0,18,,,,,,,,12,,,,73,45
146880,note_on,80,0,7,,,,,,,,4,,,,61,45
147280,note_off,400,0,17,,,,,,,,11,,,,81,64
147360,note_on,80,0,17,,,,,,,,11,,,,73,75
147720,note_off,840,0,7,,,,,,,,4,,,,61,64
147720,note_off,840,0,3,,,,,,,,2,,,,81,64
147720,note_off,840,0,18,,,,,,,,12,,,,73,64
147720,note_off,840,0,21,,,,,,,,15,,,,49,64
147720,note_off,840,0,20,,,,,,,,14,,,,61,64
147720,note_off,840,0,19,,,,,,,,13,,,,69,64
147760,note_off,400,0,17,,,,,,,,11,,,,73,64
147840,note_on,80,0,17,,,,,,,,11,,,,73,75
148080,note_off,240,0,17,,,,,,,,11,,,,73,64
148080,note_on,0,0,17,,,,,,,,11,,,,74,75
148315,note_off,235,0,17,,,,,,,,11,,,,74,64
148320,note_on,5,0,17,,,,,,,,11,,,,73,75
148320,note_on,600,0,20,,,,,,,,14,,,,49,45
148320,note_on,600,0,21,,,,,,,,15,,,,37,45
148320,note_on,600,0,19,,,,,,,,13,,,,69,45
148320,note_on,600,0,3,,,,,,,,2,,,,73,45
148320,note_on,600,0,7,,,,,,,,4,,,,49,45
148320,note_on,600,0,18,,,,,,,,12,,,,57,45
148720,note_off,400,0,17,,,,,,,,11,,,,73,64
148720,note_off,400,0,3,,,,,,,,2,,,,73,64
148720,note_off,400,0,19,,,,,,,,13,,,,69,64
148720,note_off,400,0,21,,,,,,,,15,,,,37,64
148720,note_off,400,0,18,,,,,,,,12,,,,57,64
148720,note_off,400,0,7,,,,,,,,4,,,,49,64
148720,note_off,400,0,20,,,,,,,,14,,,,49,64
148800,note_on,80,0,7,,,,,,,,4,,,,61,45
148800,note_on,80,0,18,,,,,,,,12,,,,57,45
148800,note_on,80,0,19,,,,,,,,13,,,,61,45
148800,note_on,80,0,3,,,,,,,,2,,,,81,45
148800,note_on,80,0,17,,,,,,,,11,,,,81,75
148800,note_on,80,0,21,,,,,,,,15,,,,49,45
148800,note_on,80,0,20,,,,,,,,14,,,,61,45
149200,note_off,400,0,7,,,,,,,,4,,,,61,64
149200,note_off,400,0,17,,,,,,,,11,,,,81,64
149200,note_off,400,0,18,,,,,,,,12,,,,57,64
149200,note_off,400,0,21,,,,,,,,15,,,,49,64
149200,note_off,400,0,20,,,,,,,,14,,,,61,64
149200,note_off,400,0,19,,,,,,,,13,,,,61,64
149200,note_off,400,0,3,,,,,,,,2,,,,81,64
149280,note_on,80,0,17,,,,,,,,11,,,,73,75
149280,note_on,80,0,20,,,,,,,,14,,,,49,45
149280,note_on,80,0,18,,,,,,,,12,,,,57,45
149280,note_on,80,0,3,,,,,,,,2,,,,73,45
149280,note_on,80,0,7,,,,,,,,4,,,,49,45
149280,note_on,80,0,19,,,,,,,,13,,,,61,45
149280,note_on,80,0,21,,,,,,,,15,,,,37,45
149680,note_off,400,0,17,,,,,,,,11,,,,73,64
149680,note_off,400,0,21,,,,,,,,15,,,,37,64
149680,note_off,400,0,3,,,,,,,,2,,,,73,64
149680,note_off,400,0,19,,,,,,,,13,,,,61,64
149680,note_off,400,0,7,,,,,,,,4,,,,49,64
149680,note_off,400,0,20,,,,,,,,14,,,,49,64
149680,note_off,400,0,18,,,,,,,,12,,,,57,64
149760,note_on,80,0,20,,,,,,,,14,,,,50,45
149760,note_on,80,0,3,,,,,,,,2,,,,80,45
149760,note_on,80,0,7,,,,,,,,4,,,,50,45
149760,note_on,80,0,17,,,,,,,,11,,,,80,75
149760,note_on,80,0,19,,,,,,,,13,,,,59,45
149760,note_on,80,0,21,,,,,,,,15,,,,38,45
149760,note_on,80,0,18,,,,,,,,12,,,,65,45
150240,note_off,480,0,17,,,,,,,,11,,,,80,64
150240,note_on,0,0,3,,,,,,,,2,,,,81,45
150240,note_off,480,0,3,,,,,,,,2,,,,80,64
150240,note_on,0,0,17,,,,,,,,11,,,,81,75
150480,note_on,0,0,3,,,,,,,,2,,,,83,45
150480,note_off,240,0,3,,,,,,,,2,,,,81,64
150480,note_on,0,0,17,,,,,,,,11,,,,83,75
150480,note_off,240,0,17,,,,,,,,11,,,,81,64
150600,note_off,840,0,21,,,,,,,,15,,,,38,64
150600,note_off,840,0,20,,,,,,,,14,,,,50,64
150600,note_off,840,0,7,,,,,,,,4,,,,50,64
150600,note_off,840,0,19,,,,,,,,13,,,,59,64
150600,note_off,840,0,18,,,,,,,,12,,,,65,64
150715,note_off,235,0,17,,,,,,,,11,,,,83,64
150715,note_off,235,0,3,,,,,,,,2,,,,83,64
150720,note_on,5,0,17,,,,,,,,11,,,,71,75
150720,note_on,5,0,3,,,,,,,,2,,,,71,45
151120,note_off,400,0,17,,,,,,,,11,,,,71,64
151120,note_off,400,0,3,,,,,,,,2,,,,71,64
151200,note_on,600,0,19,,,,,,,,13,,,,59,45
151200,note_on,600,0,21,,,,,,,,15,,,,38,45
151200,note_on,80,0,3,,,,,,,,2,,,,71,45
151200,note_on,600,0,18,,,,,,,,12,,,,66,45
151200,note_on,600,0,7,,,,,,,,4,,,,50,45
151200,note_on,80,0,17,,,,,,,,11,,,,71,75
151200,note_on,600,0,20,,,,,,,,14,,,,50,45
151600,note_off,400,0,21,,,,,,,,15,,,,38,64
151600,note_off,400,0,3,,,,,,,,2,,,,71,64
151600,note_off,400,0,18,,,,,,,,12,,,,66,64
151600,note_off,400,0,7,,,,,,,,4,,,,50,64
151600,note_off,400,0,20,,,,,,,,14,,,,50,64
151600,note_off,400,0,17,,,,,,,,11,,,,71,64
151600,note_off,400,0,19,,,,,,,,13,,,,59,64
151680,note_on,80,0,18,,,,,,,,12,,,,66,45
151680,note_on,80,0,17,,,,,,,,11,,,,71,75
151680,note_on,80,0,3,,,,,,,,2,,,,71,45
151680,note_on,80,0,21,,,,,,,,15,,,,50,45
151680,note_on,80,0,19,,,,,,,,13,,,,59,45
151680,note_on,80,0,20,,,,,,,,14,,,,62,45
151680,note_on,80,0,7,,,,,,,,4,,,,62,45
152080,note_off,400,0,19,,,,,,,,13,,,,59,64
152080,note_off,400,0,17,,,,,,,,11,,,,71,64
152080,note_off,400,0,3,,,,,,,,2,,,,71,64
152080,note_off,400,0,21,,,,,,,,15,,,,50,64
152080,note_off,400,0,20,,,,,,,,14,,,,62,64
152080,note_off,400,0,7,,,,,,,,4,,,,62,64
152080,note_off,400,0,18,,,,,,,,12,,,,66,64
152160,note_on,80,0,17,,,,,,,,11,,,,71,75
152160,note_on,80,0,19,,,,,,,,13,,,,59,45
152160,note_on,80,0,18,,,,,,,,12,,,,66,45
152160,note_on,80,0,3,,,,,,,,2,,,,71,45
152160,note_on,80,0,20,,,,,,,,14,,,,50,45
152160,note_on,80,0,7,,,,,,,,4,,,,50,45
152160,note_on,80,0,21,,,,,,,,15,,,,38,45
152560,note_off,400,0,20,,,,,,,,14,,,,50,64
152560,note_off,400,0,17,,,,,,,,11,,,,71,64
152560,note_off,400,0,18,,,,,,,,12,,,,66,64
152560,note_off,400,0,3,,,,,,,,2,,,,71,64
152560,note_off,400,0,7,,,,,,,,4,,,,50,64
152560,note_off,400,0,19,,,,,,,,13,,,,59,64
152560,note_off,400,0,21,,,,,,,,15,,,,38,64
152640,note_on,80,0,20,,,,,,,,14,,,,62,45
152640,note_on,80,0,21,,,,,,,,15,,,,50,45
152640,note_on,80,0,19,,,,,,,,13,,,,71,45
152640,note_on,80,0,3,,,,,,,,2,,,,80,45
152640,note_on,80,0,17,,,,,,,,11,,,,80,75
152640,note_on,80,0,18,,,,,,,,12,,,,65,45
152640,note_on,80,0,7,,,,,,,,4,,,,62,45
153120,note_on,0,0,3,,,,,,,,2,,,,81,45
153120,note_on,0,0,17,,,,,,,,11,,,,81,75
153120,note_off,480,0,3,,,,,,,,2,,,,80,64
153120,note_off,480,0,17,,,,,,,,11,,,,80,64
153360,note_on,0,0,17,,,,,,,,11,,,,83,75
153360,note_off,240,0,3,,,,,,,,2,,,,81,64
153360,note_on,0,0,3,,,,,,,,2,,,,83,45
153360,note_off,240,0,17,,,,,,,,11,,,,81,64
153480,note_off,840,0,19,,,,,,,,13,,,,71,64
153480,note_off,840,0,18,,,,,,,,12,,,,65,64
153480,note_off,840,0,7,,,,,,,,4,,,,62,64
153480,note_off,840,0,21,,,,,,,,15,,,,50,64
153480,note_off,840,0,20,,,,,,,,14,,,,62,64
153595,note_off,235,0,17,,,,,,,,11,,,,83,64
153595,note_off,235,0,3,,,,,,,,2,,,,83,64
153600,note_on,5,0,3,,,,,,,,2,,,,71,45
153600,note_on,5,0,17,,,,,,,,11,,,,71,75
154000,note_off,400,0,3,,,,,,,,2,,,,71,64
154000,note_off,400,0,17,,,,,,,,11,,,,71,64
154080,note_on,600,0,7,,,,,,,,4,,,,50,45
154080,note_on,80,0,3,,,,,,,,2,,,,71,45
154080,note_on,600,0,19,,,,,,,,13,,,,62,45
154080,note_on,80,0,17,,,,,,,,11,,,,71,75
154080,note_on,600,0,18,,,,,,,,12,,,,66,45
154080,note_on,600,0,20,,,,,,,,14,,,,50,45
154080,note_on,600,0,21,,,,,,,,15,,,,38,45
154480,note_off,400,0,3,,,,,,,,2,,,,71,64
154480,note_off,400,0,21,,,,,,,,15,,,,38,64
154480,note_off,400,0,18,,,,,,,,12,,,,66,64
154480,note_off,400,0,17,,,,,,,,11,,,,71,64
154480,note_off,400,0,20,,,,,,,,14,,,,50,64
154480,note_off,400,0,19,,,,,,,,13,,,,62,64
154480,note_off,400,0,7,,,,,,,,4,,,,50,64
154560,note_on,80,0,18,,,,,,,,12,,,,66,45
154560,note_on,80,0,19,,,,,,,,13,,,,62,45
154560,note_on,80,0,21,,,,,,,,15,,,,50,45
154560,note_on,80,0,3,,,,,,,,2,,,,71,45
154560,note_on,80,0,7,,,,,,,,4,,,,62,45
154560,note_on,80,0,17,,,,,,,,11,,,,71,75
154560,note_on,80,0,20,,,,,,,,14,,,,62,45
154960,note_off,400,0,18,,,,,,,,12,,,,66,64
154960,note_off,400,0,3,,,,,,,,2,,,,71,64
154960,note_off,400,0,21,,,,,,,,15,,,,50,64
154960,note_off,400,0,20,,,,,,,,14,,,,62,64
154960,note_off,400,0,17,,,,,,,,11,,,,71,64
154960,note_off,400,0,19,,,,,,,,13,,,,62,64
154960,note_off,400,0,7,,,,,,,,4,,,,62,64
155040,note_on,80,0,7,,,,,,,,4,,,,50,45
155040,note_on,80,0,3,,,,,,,,2,,,,71,45
155040,note_on,80,0,18,,,,,,,,12,,,,66,45
155040,note_on,80,0,17,,,,,,,,11,,,,71,75
155040,note_on,80,0,20,,,,,,,,14,,,,50,45
155040,note_on,80,0,21,,,,,,,,15,,,,38,45
155040,note_on,80,0,19,,,,,,,,13,,,,62,45
155440,note_off,400,0,18,,,,,,,,12,,,,66,64
155440,note_off,400,0,19,,,,,,,,13,,,,62,64
155440,note_off,400,0,21,,,,,,,,15,,,,38,64
155440,note_off,400,0,3,,,,,,,,2,,,,71,64
155440,note_off,400,0,17,,,,,,,,11,,,,71,64
155440,note_off,400,0,20,,,,,,,,14,,,,50,64
155440,note_off,400,0,7,,,,,,,,4,,,,50,64
155520,note_on,80,0,19,,,,,,,,13,,,,56,45
155520,note_on,80,0,7,,,,,,,,4,,,,49,45
155520,note_on,80,0,17,,,,,,,,11,,,,77,75
155520,note_on,80,0,3,,,,,,,,2,,,,77,45
155520,note_on,80,0,21,,,,,,,,15,,,,37,45
155520,note_on,80,0,20,,,,,,,,14,,,,49,45
155520,note_on,80,0,18,,,,,,,,12,,,,68,45
156840,note_off,1320,0,3,,,,,,,,2,,,,77,64
156840,note_off,1320,0,18,,,,,,,,12,,,,68,64
156840,note_off,1320,0,17,,,,,,,,11,,,,77,64
156840,note_off,1320,0,7,,,,,,,,4,,,,49,64
156840,note_off,1320,0,19,,,,,,,,13,,,,56,64
156840,note_off,1320,0,20,,,,,,,,14,,,,49,64
156840,note_off,1320,0,21,,,,,,,,15,,,,37,64
156960,note_on,120,0,18,,,,,,,,12,,,,68,45
156960,note_on,120,0,17,,,,,,,,11,,,,73,75
156960,note_on,120,0,19,,,,,,,,13,,,,65,45
156960,note_on,120,0,20,,,,,,,,14,,,,61,45
156960,note_on,120,0,21,,,,,,,,15,,,,49,45
156960,note_on,120,0,7,,,,,,,,4,,,,61,45
156960,note_on,120,0,3,,,,,,,,2,,,,73,45
157360,note_off,400,0,17,,,,,,,,11,,,,73,64
157360,note_off,400,0,7,,,,,,,,4,,,,61,64
157360,note_off,400,0,19,,,,,,,,13,,,,65,64
157360,note_off,400,0,20,,,,,,,,14,,,,61,64
157360,note_off,400,0,3,,,,,,,,2,,,,73,64
157360,note_off,400,0,21,,,,,,,,15,,,,49,64
157360,note_off,400,0,18,,,,,,,,12,,,,68,64
157440,note_on,80,0,17,,,,,,,,11,,,,78,75
157440,note_on,80,0,19,,,,,,,,13,,,,66,45
157440,note_on,80,0,20,,,,,,,,14,,,,62,45
157440,note_on,80,0,3,,,,,,,,2,,,,78,45
157440,note_on,80,0,18,,,,,,,,12,,,,69,45
157440,note_on,80,0,21,,,,,,,,15,,,,50,45
157440,note_on,80,0,7,,,,,,,,4,,,,62,45
158280,note_off,840,0,21,,,,,,,,15,,,,50,64
158280,note_off,840,0,18,,,,,,,,12,,,,69,64
158280,note_off,840,0,7,,,,,,,,4,,,,62,64
158280,note_off,840,0,20,,,,,,,,14,,,,62,64
158280,note_off,840,0,19,,,,,,,,13,,,,66,64
158400,note_on,120,0,18,,,,,,,,12,,,,66,45
158400,note_on,120,0,20,,,,,,,,14,,,,59,45
158400,note_on,120,0,7,,,,,,,,4,,,,59,45
158400,note_on,120,0,21,,,,,,,,15,,,,47,45
158400,note_on,120,0,19,,,,,,,,13,,,,62,45
158800,note_off,1360,0,17,,,,,,,,11,,,,78,64
158880,note_on,80,0,17,,,,,,,,11,,,,80,75
158880,note_off,1440,0,3,,,,,,,,2,,,,78,64
158880,note_on,0,0,3,,,,,,,,2,,,,80,45
159240,note_off,840,0,21,,,,,,,,15,,,,47,64
159240,note_off,840,0,19,,,,,,,,13,,,,62,64
159240,note_off,840,0,20,,,,,,,,14,,,,59,64
159240,note_off,840,0,7,,,,,,,,4,,,,59,64
159280,note_off,400,0,17,,,,,,,,11,,,,80,64
159280,note_off,400,0,3,,,,,,,,2,,,,80,64
159360,note_on,120,0,21,,,,,,,,15,,,,49,45
159360,note_on,120,0,19,,,,,,,,13,,,,61,45
159360,note_on,80,0,3,,,,,,,,2,,,,80,45
159360,note_on,80,0,17,,,,,,,,11,,,,73,75
159360,note_on,120,0,7,,,,,,,,4,,,,61,45
159360,note_on,120,0,20,,,,,,,,14,,,,61,45
159480,note_off,120,0,3,,,,,,,,2,,,,80,64
159480,note_on,0,0,3,,,,,,,,2,,,,81,45
159600,note_off,120,0,3,,,,,,,,2,,,,81,64
159600,note_on,0,0,3,,,,,,,,2,,,,80,45
159720,note_off,120,0,3,,,,,,,,2,,,,80,64
159720,note_off,1320,0,18,,,,,,,,12,,,,66,64
159720,note_on,0,0,3,,,,,,,,2,,,,81,45
159760,note_off,400,0,17,,,,,,,,11,,,,73,64
159840,note_on,120,0,18,,,,,,,,12,,,,63,45
159840,note_on,80,0,17,,,,,,,,11,,,,78,75
159840,note_on,0,0,3,,,,,,,,2,,,,80,45
159840,note_off,120,0,3,,,,,,,,2,,,,81,64
159960,note_on,0,0,3,,,,,,,,2,,,,81,45
159960,note_off,120,0,3,,,,,,,,2,,,,80,64
160080,note_off,120,0,3,,,,,,,,2,,,,81,64
160080,note_on,0,0,3,,,,,,,,2,,,,80,45
160200,note_off,120,0,3,,,,,,,,2,,,,80,64
160200,note_off,840,0,20,,,,,,,,14,,,,61,64
160200,note_off,840,0,7,,,,,,,,4,,,,61,64
160200,note_on,0,0,3,,,,,,,,2,,,,81,45
160200,note_off,840,0,19,,,,,,,,13,,,,61,64
160200,note_off,840,0,21,,,,,,,,15,,,,49,64
160240,note_off,400,0,17,,,,,,,,11,,,,78,64
160240,note_off,400,0,18,,,,,,,,12,,,,63,64
160320,note_on,120,0,20,,,,,,,,14,,,,49,45
160320,note_on,120,0,7,,,,,,,,4,,,,49,45
160320,note_off,120,0,3,,,,,,,,2,,,,81,64
160320,note_on,80,0,18,,,,,,,,12,,,,65,45
160320,note_on,120,0,21,,,,,,,,15,,,,37,45
160320,note_on,80,0,17,,,,,,,,11,,,,77,75
160320,note_on,0,0,3,,,,,,,,2,,,,80,45
160320,note_on,120,0,19,,,,,,,,13,,,,61,45
160440,note_on,0,0,3,,,,,,,,2,,,,81,45
160440,note_off,120,0,3,,,,,,,,2,,,,80,64
160560,note_on,0,0,3,,,,,,,,2,,,,80,45
160560,note_off,120,0,3,,,,,,,,2,,,,81,64
160680,note_on,0,0,3,,,,,,,,2,,,,78,45
160680,note_off,120,0,3,,,,,,,,2,,,,80,64
160720,note_off,400,0,17,,,,,,,,11,,,,77,64
160800,note_off,120,0,3,,,,,,,,2,,,,78,64
160800,note_on,0,0,3,,,,,,,,2,,,,78,45
160800,note_on,80,0,17,,,,,,,,11,,,,71,75
161160,note_off,840,0,21,,,,,,,,15,,,,37,64
161160,note_off,840,0,19,,,,,,,,13,,,,61,64
161160,note_off,840,0,7,,,,,,,,4,,,,49,64
161160,note_off,840,0,18,,,,,,,,12,,,,65,64
161160,note_off,840,0,20,,,,,,,,14,,,,49,64
161200,note_off,400,0,3,,,,,,,,2,,,,78,64
161200,note_off,400,0,17,,,,,,,,11,,,,71,64
161280,note_on,120,0,20,,,,,,,,14,,,,54,45
161280,note_on,120,0,7,,,,,,,,4,,,,54,45
161280,note_on,80,0,17,,,,,,,,11,,,,70,75
161280,note_on,120,0,19,,,,,,,,13,,,,61,45
161280,note_on,120,0,21,,,,,,,,15,,,,42,45
161280,note_on,120,0,18,,,,,,,,12,,,,66,45
161280,note_on,80,0,3,,,,,,,,2,,,,78,45
161515,note_off,235,0,17,,,,,,,,11,,,,70,64
161520,note_on,5,0,17,,,,,,,,11,,,,73,75
161755,note_off,235,0,17,,,,,,,,11,,,,73,64
161760,note_on,5,0,17,,,,,,,,11,,,,71,75
161995,note_off,235,0,17,,,,,,,,11,,,,71,64
162000,note_on,5,0,17,,,,,,,,11,,,,73,75
162120,note_off,840,0,3,,,,,,,,2,,,,78,64
162120,note_off,840,0,18,,,,,,,,12,,,,66,64
162120,note_off,840,0,19,,,,,,,,13,,,,61,64
162120,note_off,840,0,21,,,,,,,,15,,,,42,64
162120,note_off,840,0,7,,,,,,,,4,,,,54,64
162120,note_off,840,0,20,,,,,,,,14,,,,54,64
162235,note_off,235,0,17,,,,,,,,11,,,,73,64
162240,note_on,5,0,17,,,,,,,,11,,,,70,75
162475,note_off,235,0,17,,,,,,,,11,,,,70,64
162480,note_on,5,0,17,,,,,,,,11,,,,73,75
162715,note_off,235,0,17,,,,,,,,11,,,,73,64
162720,note_on,600,0,7,,,,,,,,4,,,,54,45
162720,note_on,5,0,17,,,,,,,,11,,,,71,75
162720,note_on,600,0,18,,,,,,,,12,,,,66,45
162720,note_on,600,0,19,,,,,,,,13,,,,70,45
162720,note_on,600,0,3,,,,,,,,2,,,,73,45
162720,note_on,600,0,21,,,,,,,,15,,,,42,45
162720,note_on,600,0,20,,,,,,,,14,,,,54,45
162955,note_off,235,0,17,,,,,,,,11,,,,71,64
162960,note_on,5,0,17,,,,,,,,11,,,,73,75
163120,note_off,400,0,18,,,,,,,,12,,,,66,64
163120,note_off,400,0,21,,,,,,,,15,,,,42,64
163120,note_off,400,0,19,,,,,,,,13,,,,70,64
163120,note_off,400,0,3,,,,,,,,2,,,,73,64
163120,note_off,400,0,20,,,,,,,,14,,,,54,64
163120,note_off,400,0,7,,,,,,,,4,,,,54,64
163195,note_off,235,0,17,,,,,,,,11,,,,73,64
163200,note_on,80,0,18,,,,,,,,12,,,,66,45
163200,note_on,80,0,21,,,,,,,,15,,,,46,45
163200,note_on,80,0,3,,,,,,,,2,,,,78,45
163200,note_on,80,0,20,,,,,,,,14,,,,58,45
163200,note_on,80,0,7,,,,,,,,4,,,,58,45
163200,note_on,80,0,19,,,,,,,,13,,,,70,45
163200,note_on,5,0,17,,,,,,,,11,,,,66,75
163435,note_off,235,0,17,,,,,,,,11,,,,66,64
163440,note_on,5,0,17,,,,,,,,11,,,,78,75
163600,note_off,400,0,7,,,,,,,,4,,,,58,64
163600,note_off,400,0,19,,,,,,,,13,,,,70,64
163600,note_off,400,0,21,,,,,,,,15,,,,46,64
163600,note_off,400,0,20,,,,,,,,14,,,,58,64
163600,note_off,400,0,18,,,,,,,,12,,,,66,64
163600,note_off,400,0,3,,,,,,,,2,,,,78,64
163675,note_off,235,0,17,,,,,,,,11,,,,78,64
163680,note_on,80,0,7,,,,,,,,4,,,,54,45
163680,note_on,80,0,21,,,,,,,,15,,,,42,45
163680,note_on,80,0,19,,,,,,,,13,,,,70,45
163680,note_on,80,0,20,,,,,,,,14,,,,54,45
163680,note_on,80,0,18,,,,,,,,12,,,,66,45
163680,note_on,80,0,3,,,,,,,,2,,,,73,45
163680,note_on,5,0,17,,,,,,,,11,,,,76,75
163915,note_off,235,0,17,,,,,,,,11,,,,76,64
163920,note_on,5,0,17,,,,,,,,11,,,,78,75
164080,note_off,400,0,21,,,,,,,,15,,,,42,64
164080,note_off,400,0,19,,,,,,,,13,,,,70,64
164080,note_off,400,0,3,,,,,,,,2,,,,73,64
164080,note_off,400,0,7,,,,,,,,4,,,,54,64
164080,note_off,400,0,20,,,,,,,,14,,,,54,64
164080,note_off,400,0,18,,,,,,,,12,,,,66,64
164155,note_off,235,0,17,,,,,,,,11,,,,78,64
164160,note_on,80,0,19,,,,,,,,13,,,,71,45
164160,note_on,80,0,21,,,,,,,,15,,,,47,45
164160,note_on,80,0,7,,,,,,,,4,,,,59,45
164160,note_on,80,0,18,,,,,,,,12,,,,66,45
164160,note_on,80,0,20,,,,,,,,14,,,,59,45
164160,note_on,5,0,17,,,,,,,,11,,,,75,75
164160,note_on,80,0,3,,,,,,,,2,,,,75,45
164395,note_off,235,0,17,,,,,,,,11,,,,75,64
164400,note_on,5,0,17,,,,,,,,11,,,,78,75
164560,note_off,400,0,3,,,,,,,,2,,,,75,64
164635,note_off,235,0,17,,,,,,,,11,,,,78,64
164640,note_on,80,0,3,,,,,,,,2,,,,78,45
164640,note_on,5,0,17,,,,,,,,11,,,,76,75
164875,note_off,235,0,17,,,,,,,,11,,,,76,64
164880,note_on,5,0,17,,,,,,,,11,,,,78,75
165000,note_off,840,0,21,,,,,,,,15,,,,47,64
165000,note_off,840,0,7,,,,,,,,4,,,,59,64
165000,note_off,840,0,18,,,,,,,,12,,,,66,64
165000,note_off,840,0,19,,,,,,,,13,,,,71,64
165000,note_off,840,0,20,,,,,,,,14,,,,59,64
165115,note_off,235,0,17,,,,,,,,11,,,,78,64
165120,note_on,5,0,17,,,,,,,,11,,,,75,75
165355,note_off,235,0,17,,,,,,,,11,,,,75,64
165360,note_on,5,0,17,,,,,,,,11,,,,76,75
165480,note_off,840,0,3,,,,,,,,2,,,,78,64
165595,note_off,235,0,17,,,,,,,,11,,,,76,64
165600,note_on,600,0,7,,,,,,,,4,,,,47,45
165600,note_on,600,0,18,,,,,,,,12,,,,66,45
165600,note_on,600,0,19,,,,,,,,13,,,,63,45
165600,note_on,120,0,3,,,,,,,,2,,,,71,45
165600,note_on,600,0,20,,,,,,,,14,,,,47,45
165600,note_on,600,0,21,,,,,,,,15,,,,35,45
165600,note_on,5,0,17,,,,,,,,11,,,,73,75
165835,note_off,235,0,17,,,,,,,,11,,,,73,64
165840,note_on,5,0,17,,,,,,,,11,,,,75,75
166000,note_off,400,0,20,,,,,,,,14,,,,47,64
166000,note_off,400,0,19,,,,,,,,13,,,,63,64
166000,note_off,400,0,18,,,,,,,,12,,,,66,64
166000,note_off,400,0,7,,,,,,,,4,,,,47,64
166000,note_off,400,0,21,,,,,,,,15,,,,35,64
166075,note_off,235,0,17,,,,,,,,11,,,,75,64
166080,note_on,5,0,17,,,,,,,,11,,,,71,75
166080,note_on,80,0,20,,,,,,,,14,,,,51,45
166080,note_on,80,0,7,,,,,,,,4,,,,51,45
166080,note_on,80,0,19,,,,,,,,13,,,,63,45
166080,note_on,80,0,18,,,,,,,,12,,,,66,45
166080,note_on,80,0,21,,,,,,,,15,,,,39,45
166315,note_off,235,0,17,,,,,,,,11,,,,71,64
166320,note_on,5,0,17,,,,,,,,11,,,,83,75
166440,note_off,840,0,3,,,,,,,,2,,,,71,64
166480,note_off,400,0,20,,,,,,,,14,,,,51,64
166480,note_off,400,0,19,,,,,,,,13,,,,63,64
166480,note_off,400,0,21,,,,,,,,15,,,,39,64
166480,note_off,400,0,18,,,,,,,,12,,,,66,64
166480,note_off,400,0,7,,,,,,,,4,,,,51,64
166555,note_off,235,0,17,,,,,,,,11,,,,83,64
166560,note_on,80,0,7,,,,,,,,4,,,,47,45
166560,note_on,80,0,20,,,,,,,,14,,,,47,45
166560,note_on,120,0,3,,,,,,,,2,,,,83,45
166560,note_on,5,0,17,,,,,,,,11,,,,81,75
166560,note_on,80,0,21,,,,,,,,15,,,,35,45
166560,note_on,80,0,18,,,,,,,,12,,,,66,45
166560,note_on,80,0,19,,,,,,,,13,,,,63,45
166795,note_off,235,0,17,,,,,,,,11,,,,81,64
166800,note_on,5,0,17,,,,,,,,11,,,,83,75
166960,note_off,400,0,7,,,,,,,,4,,,,47,64
166960,note_off,400,0,21,,,,,,,,15,,,,35,64
166960,note_off,400,0,20,,,,,,,,14,,,,47,64
166960,note_off,400,0,18,,,,,,,,12,,,,66,64
166960,note_off,400,0,19,,,,,,,,13,,,,63,64
167035,note_off,235,0,17,,,,,,,,11,,,,83,64
167040,note_on,80,0,21,,,,,,,,15,,,,40,45
167040,note_on,5,0,17,,,,,,,,11,,,,80,75
167040,note_on,80,0,20,,,,,,,,14,,,,52,45
167040,note_on,80,0,19,,,,,,,,13,,,,64,45
167040,note_on,80,0,7,,,,,,,,4,,,,52,45
167040,note_on,80,0,18,,,,,,,,12,,,,68,45
167275,note_off,235,0,17,,,,,,,,11,,,,80,64
167280,note_on,5,0,17,,,,,,,,11,,,,81,75
167440,note_off,880,0,3,,,,,,,,2,,,,83,64
167515,note_off,235,0,17,,,,,,,,11,,,,81,64
167520,note_on,80,0,3,,,,,,,,2,,,,80,45
167520,note_on,5,0,17,,,,,,,,11,,,,83,75
167755,note_off,235,0,17,,,,,,,,11,,,,83,64
167760,note_on,5,0,17,,,,,,,,11,,,,81,75
167880,note_off,840,0,20,,,,,,,,14,,,,52,64
167880,note_off,840,0,21,,,,,,,,15,,,,40,64
167880,note_off,840,0,7,,,,,,,,4,,,,52,64
167880,note_off,840,0,19,,,,,,,,13,,,,64,64
167880,note_off,840,0,18,,,,,,,,12,,,,68,64
167995,note_off,235,0,17,,,,,,,,11,,,,81,64
168000,note_on,5,0,17,,,,,,,,11,,,,80,75
168235,note_off,235,0,17,,,,,,,,11,,,,80,64
168240,note_on,5,0,17,,,,,,,,11,,,,83,75
168360,note_off,840,0,3,,,,,,,,2,,,,80,64
168475,note_off,235,0,17,,,,,,,,11,,,,83,64
168480,note_on,600,0,20,,,,,,,,14,,,,52,45
168480,note_on,600,0,21,,,,,,,,15,,,,40,45
168480,note_on,600,0,19,,,,,,,,13,,,,71,45
168480,note_on,600,0,7,,,,,,,,4,,,,52,45
168480,note_on,5,0,17,,,,,,,,11,,,,81,75
168480,note_on,600,0,18,,,,,,,,12,,,,68,45
168480,note_on,120,0,3,,,,,,,,2,,,,76,45
168715,note_off,235,0,17,,,,,,,,11,,,,81,64
168720,note_on,5,0,17,,,,,,,,11,,,,83,75
168880,note_off,400,0,7,,,,,,,,4,,,,52,64
168880,note_off,400,0,19,,,,,,,,13,,,,71,64
168880,note_off,400,0,18,,,,,,,,12,,,,68,64
168880,note_off,400,0,21,,,,,,,,15,,,,40,64
168880,note_off,400,0,20,,,,,,,,14,,,,52,64
168955,note_off,235,0,17,,,,,,,,11,,,,83,64
168960,note_on,5,0,17,,,,,,,,11,,,,76,75
168960,note_on,80,0,19,,,,,,,,13,,,,71,45
168960,note_on,80,0,20,,,,,,,,14,,,,56,45
168960,note_on,80,0,21,,,,,,,,15,,,,44,45
168960,note_on,80,0,7,,,,,,,,4,,,,56,45
168960,note_on,80,0,18,,,,,,,,12,,,,68,45
169195,note_off,235,0,17,,,,,,,,11,,,,76,64
169200,note_on,5,0,17,,,,,,,,11,,,,78,75
169320,note_off,840,0,3,,,,,,,,2,,,,76,64
169360,note_off,400,0,21,,,,,,,,15,,,,44,64
169360,note_off,400,0,19,,,,,,,,13,,,,71,64
169360,note_off,400,0,18,,,,,,,,12,,,,68,64
169360,note_off,400,0,7,,,,,,,,4,,,,56,64
169360,note_off,400,0,20,,,,,,,,14,,,,56,64
169435,note_off,235,0,17,,,,,,,,11,,,,78,64
169440,note_on,80,0,7,,,,,,,,4,,,,52,45
169440,note_on,80,0,20,,,,,,,,14,,,,52,45
169440,note_on,80,0,21,,,,,,,,15,,,,40,45
169440,note_on,120,0,3,,,,,,,,2,,,,71,45
169440,note_on,5,0,17,,,,,,,,11,,,,74,75
169440,note_on,80,0,19,,,,,,,,13,,,,71,45
169440,note_on,80,0,18,,,,,,,,12,,,,68,45
169675,note_off,235,0,17,,,,,,,,11,,,,74,64
169680,note_on,5,0,17,,,,,,,,11,,,,76,75
169840,note_off,400,0,18,,,,,,,,12,,,,68,64
169840,note_off,400,0,7,,,,,,,,4,,,,52,64
169840,note_off,400,0,19,,,,,,,,13,,,,71,64
169840,note_off,400,0,3,,,,,,,,2,,,,71,64
169840,note_off,400,0,20,,,,,,,,14,,,,52,64
169840,note_off,400,0,21,,,,,,,,15,,,,40,64
169915,note_off,235,0,17,,,,,,,,11,,,,76,64
169920,note_on,80,0,21,,,,,,,,15,,,,45,45
169920,note_on,5,0,17,,,,,,,,11,,,,73,75
169920,note_on,80,0,19,,,,,,,,13,,,,69,45
169920,note_on,80,0,20,,,,,,,,14,,,,57,45
169920,note_on,80,0,3,,,,,,,,2,,,,73,45
169920,note_on,80,0,18,,,,,,,,12,,,,64,45
169920,note_on,80,0,7,,,,,,,,4,,,,57,45
170155,note_off,235,0,17,,,,,,,,11,,,,73,64
170160,note_on,5,0,17,,,,,,,,11,,,,74,75
170160,note_on,0,0,3,,,,,,,,2,,,,74,45
170160,note_off,240,0,3,,,,,,,,2,,,,73,64
170395,note_off,235,0,17,,,,,,,,11,,,,74,64
170400,note_on,5,0,17,,,,,,,,11,,,,76,75
170400,note_off,240,0,3,,,,,,,,2,,,,74,64
170400,note_on,0,0,3,,,,,,,,2,,,,76,45
170760,note_off,840,0,21,,,,,,,,15,,,,45,64
170760,note_off,840,0,7,,,,,,,,4,,,,57,64
170760,note_off,840,0,18,,,,,,,,12,,,,64,64
170760,note_off,840,0,19,,,,,,,,13,,,,69,64
170760,note_off,840,0,20,,,,,,,,14,,,,57,64
170800,note_off,400,0,3,,,,,,,,2,,,,76,64
170800,note_off,400,0,17,,,,,,,,11,,,,76,64
170880,note_on,80,0,3,,,,,,,,2,,,,69,45
170880,note_on,80,0,17,,,,,,,,11,,,,69,75
171115,note_off,235,0,17,,,,,,,,11,,,,69,64
171120,note_on,5,0,17,,,,,,,,11,,,,81,75
171280,note_off,400,0,3,,,,,,,,2,,,,69,64
171355,note_off,235,0,17,,,,,,,,11,,,,81,64
171360,note_on,600,0,19,,,,,,,,13,,,,61,45
171360,note_on,5,0,17,,,,,,,,11,,,,80,75
171360,note_on,80,0,3,,,,,,,,2,,,,81,45
171360,note_on,600,0,21,,,,,,,,15,,,,33,45
171360,note_on,600,0,18,,,,,,,,12,,,,64,45
171360,note_on,600,0,7,,,,,,,,4,,,,45,45
171360,note_on,600,0,20,,,,,,,,14,,,,45,45
171595,note_off,235,0,17,,,,,,,,11,,,,80,64
171600,note_on,5,0,17,,,,,,,,11,,,,81,75
171760,note_off,400,0,18,,,,,,,,12,,,,64,64
171760,note_off,400,0,19,,,,,,,,13,,,,61,64
171760,note_off,400,0,20,,,,,,,,14,,,,45,64
171760,note_off,400,0,21,,,,,,,,15,,,,33,64
171760,note_off,400,0,7,,,,,,,,4,,,,45,64
171835,note_off,235,0,17,,,,,,,,11,,,,81,64
171840,note_on,80,0,20,,,,,,,,14,,,,49,45
171840,note_on,80,0,18,,,,,,,,12,,,,64,45
171840,note_on,80,0,19,,,,,,,,13,,,,61,45
171840,note_on,5,0,17,,,,,,,,11,,,,76,75
171840,note_on,80,0,21,,,,,,,,15,,,,37,45
171840,note_on,80,0,7,,,,,,,,4,,,,49,45
172075,note_off,235,0,17,,,,,,,,11,,,,76,64
172080,note_on,5,0,17,,,,,,,,11,,,,81,75
172200,note_off,840,0,3,,,,,,,,2,,,,81,64
172240,note_off,400,0,20,,,,,,,,14,,,,49,64
172240,note_off,400,0,21,,,,,,,,15,,,,37,64
172240,note_off,400,0,7,,,,,,,,4,,,,49,64
172240,note_off,400,0,18,,,,,,,,12,,,,64,64
172240,note_off,400,0,19,,,,,,,,13,,,,61,64
172315,note_off,235,0,17,,,,,,,,11,,,,81,64
172320,note_on,80,0,7,,,,,,,,4,,,,45,45
172320,note_on,120,0,3,,,,,,,,2,,,,76,45
172320,note_on,80,0,18,,,,,,,,12,,,,64,45
172320,note_on,80,0,19,,,,,,,,13,,,,61,45
172320,note_on,80,0,20,,,,,,,,14,,,,45,45
172320,note_on,80,0,21,,,,,,,,15,,,,33,45
172320,note_on,5,0,17,,,,,,,,11,,,,80,75
172555,note_off,235,0,17,,,,,,,,11,,,,80,64
172560,note_on,5,0,17,,,,,,,,11,,,,81,75
172720,note_off,400,0,19,,,,,,,,13,,,,61,64
172720,note_off,400,0,18,,,,,,,,12,,,,64,64
172720,note_off,400,0,7,,,,,,,,4,,,,45,64
172720,note_off,400,0,21,,,,,,,,15,,,,33,64
172720,note_off,400,0,20,,,,,,,,14,,,,45,64
172720,note_off,400,0,3,,,,,,,,2,,,,76,64
172795,note_off,235,0,17,,,,,,,,11,,,,81,64
172800,note_on,80,0,18,,,,,,,,12,,,,62,45
172800,note_on,80,0,3,,,,,,,,2,,,,78,45
172800,note_on,80,0,7,,,,,,,,4,,,,50,45
172800,note_on,80,0,21,,,,,,,,15,,,,38,45
172800,note_on,80,0,20,,,,,,,,14,,,,50,45
172800,note_on,5,0,17,,,,,,,,11,,,,78,75
172800,note_on,80,0,19,,,,,,,,13,,,,69,45
173035,note_off,235,0,17,,,,,,,,11,,,,78,64
173040,note_on,5,0,17,,,,,,,,11,,,,81,75
173275,note_off,235,0,17,,,,,,,,11,,,,81,64
173280,note_on,5,0,17,,,,,,,,11,,,,80,75
173515,note_off,235,0,17,,,,,,,,11,,,,80,64
173520,note_on,5,0,17,,,,,,,,11,,,,81,75
173640,note_off,840,0,18,,,,,,,,12,,,,62,64
173640,note_off,840,0,3,,,,,,,,2,,,,78,64
173640,note_off,840,0,20,,,,,,,,14,,,,50,64
173640,note_off,840,0,7,,,,,,,,4,,,,50,64
173640,note_off,840,0,21,,,,,,,,15,,,,38,64
173640,note_off,840,0,19,,,,,,,,13,,,,69,64
173755,note_off,235,0,17,,,,,,,,11,,,,81,64
173760,note_on,5,0,17,,,,,,,,11,,,,74,75
173995,note_off,235,0,17,,,,,,,,11,,,,74,64
174000,note_on,5,0,17,,,,,,,,11,,,,83,75
174235,note_off,235,0,17,,,,,,,,11,,,,83,64
174240,note_on,600,0,20,,,,,,,,14,,,,50,45
174240,note_on,600,0,19,,,,,,,,13,,,,66,45
174240,note_on,600,0,7,,,,,,,,4,,,,50,45
174240,note_on,5,0,17,,,,,,,,11,,,,81,75
174240,note_on,600,0,3,,,,,,,,2,,,,78,45
174240,note_on,600,0,18,,,,,,,,12,,,,62,45
174240,note_on,600,0,21,,,,,,,,15,,,,38,45
174475,note_off,235,0,17,,,,,,,,11,,,,81,64
174480,note_on,5,0,17,,,,,,,,11,,,,83,75
174640,note_off,400,0,18,,,,,,,,12,,,,62,64
174640,note_off,400,0,19,,,,,,,,13,,,,66,64
174640,note_off,400,0,21,,,,,,,,15,,,,38,64
174640,note_off,400,0,20,,,,,,,,14,,,,50,64
174640,note_off,400,0,7,,,,,,,,4,,,,50,64
174640,note_off,400,0,3,,,,,,,,2,,,,78,64
174715,note_off,235,0,17,,,,,,,,11,,,,83,64
174720,note_on,80,0,7,,,,,,,,4,,,,55,45
174720,note_on,80,0,20,,,,,,,,14,,,,55,45
174720,note_on,80,0,18,,,,,,,,12,,,,71,45
174720,note_on,80,0,21,,,,,,,,15,,,,43,45
174720,note_on,80,0,19,,,,,,,,13,,,,67,45
174720,note_on,5,0,17,,,,,,,,11,,,,76,75
174720,note_on,80,0,3,,,,,,,,2,,,,76,45
175120,note_off,400,0,7,,,,,,,,4,,,,55,64
175120,note_off,400,0,21,,,,,,,,15,,,,43,64
175120,note_off,400,0,19,,,,,,,,13,,,,67,64
175120,note_off,400,0,20,,,,,,,,14,,,,55,64
175120,note_off,400,0,3,,,,,,,,2,,,,76,64
175120,note_off,400,0,17,,,,,,,,11,,,,76,64
175120,note_off,400,0,18,,,,,,,,12,,,,71,64
175200,note_on,80,0,3,,,,,,,,2,,,,76,45
175200,note_on,80,0,19,,,,,,,,13,,,,67,45
175200,note_on,80,0,18,,,,,,,,12,,,,71,45
175200,note_on,80,0,17,,,,,,,,11,,,,76,75
175200,note_on,80,0,21,,,,,,,,15,,,,40,45
175200,note_on,80,0,7,,,,,,,,4,,,,52,45
175200,note_on,80,0,20,,,,,,,,14,,,,52,45
175600,note_off,400,0,3,,,,,,,,2,,,,76,64
175600,note_off,400,0,18,,,,,,,,12,,,,71,64
175600,note_off,400,0,17,,,,,,,,11,,,,76,64
175600,note_off,400,0,19,,,,,,,,13,,,,67,64
175600,note_off,400,0,21,,,,,,,,15,,,,40,64
175600,note_off,400,0,20,,,,,,,,14,,,,52,64
175600,note_off,400,0,7,,,,,,,,4,,,,52,64
175680,note_on,80,0,20,,,,,,,,14,,,,54,45
175680,note_on,80,0,19,,,,,,,,13,,,,66,45
175680,note_on,80,0,18,,,,,,,,12,,,,73,45
175680,note_on,80,0,17,,,,,,,,11,,,,82,75
175680,note_on,80,0,7,,,,,,,,4,,,,54,45
175680,note_on,80,0,3,,,,,,,,2,,,,76,45
175680,note_on,80,0,21,,,,,,,,15,,,,42,45
176160,note_on,0,0,17,,,,,,,,11,,,,83,75
176160,note_off,480,0,17,,,,,,,,11,,,,82,64
176400,note_off,240,0,17,,,,,,,,11,,,,83,64
176400,note_on,0,0,17,,,,,,,,11,,,,85,75
176520,note_off,840,0,18,,,,,,,,12,,,,73,64
176520,note_off,840,0,3,,,,,,,,2,,,,76,64
176520,note_off,840,0,21,,,,,,,,15,,,,42,64
176520,note_off,840,0,20,,,,,,,,14,,,,54,64
176520,note_off,840,0,19,,,,,,,,13,,,,66,64
176520,note_off,840,0,7,,,,,,,,4,,,,54,64
176635,note_off,235,0,17,,,,,,,,11,,,,85,64
176640,note_on,5,0,17,,,,,,,,11,,,,76,75
177040,note_off,400,0,17,,,,,,,,11,,,,76,64
177120,note_on,600,0,20,,,,,,,,14,,,,61,45
177120,note_on,600,0,19,,,,,,,,13,,,,70,45
177120,note_on,600,0,7,,,,,,,,4,,,,61,45
177120,note_on,80,0,17,,,,,,,,11,,,,76,75
177120,note_on,600,0,21,,,,,,,,15,,,,49,45
177120,note_on,600,0,3,,,,,,,,2,,,,76,45
177120,note_on,600,0,18,,,,,,,,12,,,,73,45
177520,note_off,400,0,7,,,,,,,,4,,,,61,64
177520,note_off,400,0,21,,,,,,,,15,,,,49,64
177520,note_off,400,0,19,,,,,,,,13,,,,70,64
177520,note_off,400,0,3,,,,,,,,2,,,,76,64
177520,note_off,400,0,20,,,,,,,,14,,,,61,64
177520,note_off,400,0,18,,,,,,,,12,,,,73,64
177520,note_off,400,0,17,,,,,,,,11,,,,76,64
177600,note_on,80,0,19,,,,,,,,13,,,,70,45
177600,note_on,80,0,21,,,,,,,,15,,,,46,45
177600,note_on,80,0,18,,,,,,,,12,,,,73,45
177600,note_on,80,0,20,,,,,,,,14,,,,58,45
177600,note_on,80,0,7,,,,,,,,4,,,,58,45
177600,note_on,80,0,3,,,,,,,,2,,,,76,45
177600,note_on,80,0,17,,,,,,,,11,,,,76,75
178000,note_off,400,0,17,,,,,,,,11,,,,76,64
178000,note_off,400,0,18,,,,,,,,12,,,,73,64
178000,note_off,400,0,3,,,,,,,,2,,,,76,64
178000,note_off,400,0,20,,,,,,,,14,,,,58,64
178000,note_off,400,0,19,,,,,,,,13,,,,70,64
178000,note_off,400,0,7,,,,,,,,4,,,,58,64
178000,note_off,400,0,21,,,,,,,,15,,,,46,64
178080,note_on,80,0,18,,,,,,,,12,,,,73,45
178080,note_on,80,0,3,,,,,,,,2,,,,76,45
178080,note_on,80,0,19,,,,,,,,13,,,,70,45
178080,note_on,80,0,20,,,,,,,,14,,,,61,45
178080,note_on,80,0,21,,,,,,,,15,,,,49,45
178080,note_on,80,0,7,,,,,,,,4,,,,61,45
178080,note_on,80,0,17,,,,,,,,11,,,,76,75
178480,note_off,400,0,7,,,,,,,,4,,,,61,64
178480,note_off,400,0,18,,,,,,,,12,,,,73,64
178480,note_off,400,0,17,,,,,,,,11,,,,76,64
178480,note_off,400,0,3,,,,,,,,2,,,,76,64
178480,note_off,400,0,19,,,,,,,,13,,,,70,64
178480,note_off,400,0,20,,,,,,,,14,,,,61,64
178480,note_off,400,0,21,,,,,,,,15,,,,49,64
178560,note_on,80,0,17,,,,,,,,11,,,,82,75
178560,note_on,80,0,19,,,,,,,,13,,,,70,45
178560,note_on,80,0,20,,,,,,,,14,,,,54,45
178560,note_on,80,0,18,,,,,,,,12,,,,73,45
178560,note_on,80,0,7,,,,,,,,4,,,,54,45
178560,note_on,80,0,21,,,,,,,,15,,,,42,45
178560,note_on,80,0,3,,,,,,,,2,,,,76,45
179040,note_on,0,0,17,,,,,,,,11,,,,83,75
179040,note_off,480,0,17,,,,,,,,11,,,,82,64
179280,note_on,0,0,17,,,,,,,,11,,,,85,75
179280,note_off,240,0,17,,,,,,,,11,,,,83,64
179400,note_off,840,0,19,,,,,,,,13,,,,70,64
179400,note_off,840,0,18,,,,,,,,12,,,,73,64
179400,note_off,840,0,7,,,,,,,,4,,,,54,64
179400,note_off,840,0,3,,,,,,,,2,,,,76,64
179400,note_off,840,0,21,,,,,,,,15,,,,42,64
179400,note_off,840,0,20,,,,,,,,14,,,,54,64
179515,note_off,235,0,17,,,,,,,,11,,,,85,64
179520,note_on,5,0,17,,,,,,,,11,,,,76,75
179920,note_off,400,0,17,,,,,,,,11,,,,76,64
180000,note_on,600,0,18,,,,,,,,12,,,,73,45
180000,note_on,600,0,19,,,,,,,,13,,,,70,45
180000,note_on,600,0,21,,,,,,,,15,,,,49,45
180000,note_on,80,0,17,,,,,,,,11,,,,76,75
180000,note_on,600,0,3,,,,,,,,2,,,,76,45
180000,note_on,600,0,20,,,,,,,,14,,,,61,45
180000,note_on,600,0,7,,,,,,,,4,,,,61,45
180400,note_off,400,0,21,,,,,,,,15,,,,49,64
180400,note_off,400,0,19,,,,,,,,13,,,,70,64
180400,note_off,400,0,20,,,,,,,,14,,,,61,64
180400,note_off,400,0,3,,,,,,,,2,,,,76,64
180400,note_off,400,0,17,,,,,,,,11,,,,76,64
180400,note_off,400,0,18,,,,,,,,12,,,,73,64
180400,note_off,400,0,7,,,,,,,,4,,,,61,64
180480,note_on,80,0,7,,,,,,,,4,,,,58,45
180480,note_on,80,0,20,,,,,,,,14,,,,58,45
180480,note_on,80,0,18,,,,,,,,12,,,,73,45
180480,note_on,80,0,21,,,,,,,,15,,,,46,45
180480,note_on,80,0,19,,,,,,,,13,,,,70,45
180480,note_on,80,0,17,,,,,,,,11,,,,76,75
180480,note_on,80,0,3,,,,,,,,2,,,,76,45
180880,note_off,400,0,20,,,,,,,,14,,,,58,64
180880,note_off,400,0,19,,,,,,,,13,,,,70,64
180880,note_off,400,0,21,,,,,,,,15,,,,46,64
180880,note_off,400,0,18,,,,,,,,12,,,,73,64
180880,note_off,400,0,7,,,,,,,,4,,,,58,64
180880,note_off,400,0,3,,,,,,,,2,,,,76,64
180880,note_off,400,0,17,,,,,,,,11,,,,76,64
180960,note_on,80,0,18,,,,,,,,12,,,,73,45
180960,note_on,80,0,7,,,,,,,,4,,,,61,45
180960,note_on,80,0,3,,,,,,,,2,,,,76,45
180960,note_on,80,0,20,,,,,,,,14,,,,61,45
180960,note_on,80,0,19,,,,,,,,13,,,,70,45
180960,note_on,80,0,17,,,,,,,,11,,,,76,75
180960,note_on,80,0,21,,,,,,,,15,,,,49,45
181360,note_off,400,0,3,,,,,,,,2,,,,76,64
181360,note_off,400,0,7,,,,,,,,4,,,,61,64
181360,note_off,400,0,19,,,,,,,,13,,,,70,64
181360,note_off,400,0,17,,,,,,,,11,,,,76,64
181360,note_off,400,0,21,,,,,,,,15,,,,49,64
181360,note_off,400,0,20,,,,,,,,14,,,,61,64
181360,note_off,400,0,18,,,,,,,,12,,,,73,64
181440,note_on,80,0,20,,,,,,,,14,,,,54,45
181440,note_on,80,0,7,,,,,,,,4,,,,54,45
181440,note_on,80,0,19,,,,,,,,13,,,,70,45
181440,note_on,80,0,3,,,,,,,,2,,,,82,45
181440,note_on,80,0,18,,,,,,,,12,,,,73,45
181440,note_on,80,0,17,,,,,,,,11,,,,82,75
181440,note_on,80,0,21,,,,,,,,15,,,,42,45
182760,note_off,1320,0,7,,,,,,,,4,,,,54,64
182760,note_off,1320,0,21,,,,,,,,15,,,,42,64
182760,note_off,1320,0,18,,,,,,,,12,,,,73,64
182760,note_off,1320,0,17,,,,,,,,11,,,,82,64
182760,note_off,1320,0,19,,,,,,,,13,,,,70,64
182760,note_off,1320,0,20,,,,,,,,14,,,,54,64
182880,note_on,120,0,7,,,,,,,,4,,,,52,45
182880,note_on,120,0,19,,,,,,,,13,,,,61,45
182880,note_off,1440,0,3,,,,,,,,2,,,,82,64
182880,note_on,120,0,20,,,,,,,,14,,,,52,45
182880,note_on,120,0,21,,,,,,,,15,,,,40,45
182880,note_on,120,0,17,,,,,,,,11,,,,80,75
182880,note_on,0,0,3,,,,,,,,2,,,,80,45
182880,note_on,120,0,18,,,,,,,,12,,,,64,45
183120,note_off,240,0,3,,,,,,,,2,,,,80,64
183120,note_on,0,0,3,,,,,,,,2,,,,78,45
183120,note_off,240,0,17,,,,,,,,11,,,,80,64
183120,note_on,0,0,17,,,,,,,,11,,,,78,75
183280,note_off,400,0,21,,,,,,,,15,,,,40,64
183280,note_off,400,0,7,,,,,,,,4,,,,52,64
183280,note_off,400,0,20,,,,,,,,14,,,,52,64
183280,note_off,400,0,18,,,,,,,,12,,,,64,64
183280,note_off,400,0,19,,,,,,,,13,,,,61,64
183355,note_off,235,0,17,,,,,,,,11,,,,78,64
183355,note_off,235,0,3,,,,,,,,2,,,,78,64
183360,note_on,80,0,7,,,,,,,,4,,,,50,45
183360,note_on,80,0,19,,,,,,,,13,,,,62,45
183360,note_on,80,0,20,,,,,,,,14,,,,50,45
183360,note_on,80,0,21,,,,,,,,15,,,,38,45
183360,note_on,5,0,17,,,,,,,,11,,,,83,75
183360,note_on,80,0,18,,,,,,,,12,,,,66,45
183360,note_on,5,0,3,,,,,,,,2,,,,83,45
183760,note_off,400,0,17,,,,,,,,11,,,,83,64
183760,note_off,400,0,3,,,,,,,,2,,,,83,64
183840,note_on,80,0,17,,,,,,,,11,,,,81,75
183840,note_on,80,0,3,,,,,,,,2,,,,81,45
184080,note_on,0,0,17,,,,,,,,11,,,,79,75
184080,note_off,240,0,17,,,,,,,,11,,,,81,64
184080,note_off,240,0,3,,,,,,,,2,,,,81,64
184080,note_on,0,0,3,,,,,,,,2,,,,79,45
184200,note_off,840,0,18,,,,,,,,12,,,,66,64
184200,note_off,840,0,19,,,,,,,,13,,,,62,64
184200,note_off,840,0,21,,,,,,,,15,,,,38,64
184200,note_off,840,0,20,,,,,,,,14,,,,50,64
184200,note_off,840,0,7,,,,,,,,4,,,,50,64
184315,note_off,235,0,17,,,,,,,,11,,,,79,64
184315,note_off,235,0,3,,,,,,,,2,,,,79,64
184320,note_on,5,0,3,,,,,,,,2,,,,78,45
184320,note_on,120,0,21,,,,,,,,15,,,,40,45
184320,note_on,120,0,20,,,,,,,,14,,,,52,45
184320,note_on,5,0,17,,,,,,,,11,,,,78,75
184320,note_on,120,0,7,,,,,,,,4,,,,52,45
184560,note_off,240,0,3,,,,,,,,2,,,,78,64
184560,note_on,0,0,3,,,,,,,,2,,,,79,45
184560,note_off,240,0,17,,,,,,,,11,,,,78,64
184560,note_on,0,0,17,,,,,,,,11,,,,79,75
184795,note_off,235,0,17,,,,,,,,11,,,,79,64
184800,note_on,5,0,17,,,,,,,,11,,,,76,75
184800,note_on,0,0,3,,,,,,,,2,,,,76,45
184800,note_on,600,0,18,,,,,,,,12,,,,67,45
184800,note_off,240,0,3,,,,,,,,2,,,,79,64
184800,note_on,600,0,19,,,,,,,,13,,,,67,45
185160,note_off,840,0,20,,,,,,,,14,,,,52,64
185160,note_off,840,0,21,,,,,,,,15,,,,40,64
185160,note_off,840,0,7,,,,,,,,4,,,,52,64
185200,note_off,400,0,19,,,,,,,,13,,,,67,64
185200,note_off,400,0,18,,,,,,,,12,,,,67,64
185200,note_off,400,0,17,,,,,,,,11,,,,76,64
185200,note_off,400,0,3,,,,,,,,2,,,,76,64
185280,note_on,120,0,21,,,,,,,,15,,,,42,45
185280,note_on,120,0,20,,,,,,,,14,,,,54,45
185280,note_on,80,0,19,,,,,,,,13,,,,66,45
185280,note_on,80,0,18,,,,,,,,12,,,,62,45
185280,note_on,80,0,17,,,,,,,,11,,,,74,75
185280,note_on,120,0,7,,,,,,,,4,,,,54,45
185280,note_on,80,0,3,,,,,,,,2,,,,74,45
186120,note_off,840,0,18,,,,,,,,12,,,,62,64
186120,note_off,840,0,3,,,,,,,,2,,,,74,64
186120,note_off,840,0,21,,,,,,,,15,,,,42,64
186120,note_off,840,0,7,,,,,,,,4,,,,54,64
186120,note_off,840,0,17,,,,,,,,11,,,,74,64
186120,note_off,840,0,19,,,,,,,,13,,,,66,64
186120,note_off,840,0,20,,,,,,,,14,,,,54,64
186240,note_on,120,0,20,,,,,,,,14,,,,42,45
186240,note_on,120,0,21,,,,,,,,15,,,,30,45
186240,note_on,120,0,17,,,,,,,,11,,,,73,75
186240,note_on,120,0,3,,,,,,,,2,,,,73,45
186240,note_on,120,0,19,,,,,,,,13,,,,64,45
186240,note_on,120,0,18,,,,,,,,12,,,,66,45
186240,note_on,120,0,7,,,,,,,,4,,,,42,45
186960,note_off,720,0,17,,,,,,,,11,,,,73,64
186960,note_on,0,0,17,,,,,,,,11,,,,71,75
186960,note_off,720,0,3,,,,,,,,2,,,,73,64
186960,note_on,0,0,3,,,,,,,,2,,,,71,45
187080,note_off,840,0,18,,,,,,,,12,,,,66,64
187080,note_off,840,0,21,,,,,,,,15,,,,30,64
187080,note_off,840,0,19,,,,,,,,13,,,,64,64
187080,note_off,840,0,7,,,,,,,,4,,,,42,64
187080,note_off,840,0,20,,,,,,,,14,,,,42,64
187195,note_off,235,0,17,,,,,,,,11,,,,71,64
187195,note_off,235,0,3,,,,,,,,2,,,,71,64
187200,note_on,120,0,20,,,,,,,,14,,,,47,45
187200,note_on,120,0,21,,,,,,,,15,,,,35,45
187200,note_on,5,0,3,,,,,,,,2,,,,71,45
187200,note_on,120,0,7,,,,,,,,4,,,,47,45
187200,note_on,120,0,18,,,,,,,,12,,,,66,45
187200,note_on,120,0,19,,,,,,,,13,,,,62,45
187200,note_on,5,0,17,,,,,,,,11,,,,71,75
187600,note_off,400,0,17,,,,,,,,11,,,,71,64
187680,note_on,80,0,17,,,,,,,,11,,,,83,75
188040,note_off,840,0,19,,,,,,,,13,,,,62,64
188040,note_off,840,0,7,,,,,,,,4,,,,47,64
188040,note_off,840,0,3,,,,,,,,2,,,,71,64
188040,note_off,840,0,21,,,,,,,,15,,,,35,64
188040,note_off,840,0,20,,,,,,,,14,,,,47,64
188040,note_off,840,0,18,,,,,,,,12,,,,66,64
188080,note_off,400,0,17,,,,,,,,11,,,,83,64
188160,note_on,80,0,17,,,,,,,,11,,,,71,75
188560,note_off,400,0,17,,,,,,,,11,,,,71,64
188640,note_on,80,0,17,,,,,,,,11,,,,83,75
188640,note_on,600,0,20,,,,,,,,14,,,,47,45
188640,note_on,600,0,18,,,,,,,,12,,,,66,45
188640,note_on,600,0,21,,,,,,,,15,,,,35,45
188640,note_on,600,0,19,,,,,,,,13,,,,62,45
189040,note_off,400,0,17,,,,,,,,11,,,,83,64
189040,note_off,400,0,19,,,,,,,,13,,,,62,64
189040,note_off,400,0,20,,,,,,,,14,,,,47,64
189040,note_off,400,0,21,,,,,,,,15,,,,35,64
189040,note_off,400,0,18,,,,,,,,12,,,,66,64
189120,note_on,80,0,17,,,,,,,,11,,,,83,75
189120,note_on,80,0,19,,,,,,,,13,,,,62,45
189120,note_on,80,0,18,,,,,,,,12,,,,66,45
189120,note_on,80,0,21,,,,,,,,15,,,,47,45
189120,note_on,80,0,20,,,,,,,,14,,,,59,45
189520,note_off,400,0,19,,,,,,,,13,,,,62,64
189520,note_off,400,0,18,,,,,,,,12,,,,66,64
189520,note_off,400,0,21,,,,,,,,15,,,,47,64
189520,note_off,400,0,17,,,,,,,,11,,,,83,64
189520,note_off,400,0,20,,,,,,,,14,,,,59,64
189600,note_on,80,0,18,,,,,,,,12,,,,66,45
189600,note_on,80,0,17,,,,,,,,11,,,,81,75
189600,note_on,80,0,19,,,,,,,,13,,,,62,45
189600,note_on,80,0,20,,,,,,,,14,,,,47,45
189600,note_on,80,0,21,,,,,,,,15,,,,35,45
189840,note_off,240,0,17,,,,,,,,11,,,,81,64
189840,note_on,0,0,17,,,,,,,,11,,,,79,75
190000,note_off,400,0,20,,,,,,,,14,,,,47,64
190000,note_off,400,0,18,,,,,,,,12,,,,66,64
190000,note_off,400,0,19,,,,,,,,13,,,,62,64
190000,note_off,400,0,21,,,,,,,,15,,,,35,64
190075,note_off,235,0,17,,,,,,,,11,,,,79,64
190080,note_on,80,0,18,,,,,,,,12,,,,66,45
190080,note_on,80,0,21,,,,,,,,15,,,,47,45
190080,note_on,5,0,17,,,,,,,,11,,,,81,75
190080,note_on,80,0,20,,,,,,,,14,,,,59,45
190080,note_on,80,0,19,,,,,,,,13,,,,63,45
190480,note_off,400,0,17,,,,,,,,11,,,,81,64
190560,note_on,80,0,17,,,,,,,,11,,,,81,75
190920,note_off,840,0,18,,,,,,,,12,,,,66,64
190920,note_off,840,0,19,,,,,,,,13,,,,63,64
190920,note_off,840,0,21,,,,,,,,15,,,,47,64
190920,note_off,840,0,20,,,,,,,,14,,,,59,64
190960,note_off,400,0,17,,,,,,,,11,,,,81,64
191040,note_on,80,0,17,,,,,,,,11,,,,71,75
191440,note_off,400,0,17,,,,,,,,11,,,,71,64
191520,note_on,600,0,20,,,,,,,,14,,,,47,45
191520,note_on,600,0,18,,,,,,,,12,,,,66,45
191520,note_on,80,0,17,,,,,,,,11,,,,81,75
191520,note_on,600,0,21,,,,,,,,15,,,,35,45
191520,note_on,600,0,19,,,,,,,,13,,,,63,45
191920,note_off,400,0,20,,,,,,,,14,,,,47,64
191920,note_off,400,0,18,,,,,,,,12,,,,66,64
191920,note_off,400,0,21,,,,,,,,15,,,,35,64
191920,note_off,400,0,17,,,,,,,,11,,,,81,64
191920,note_off,400,0,19,,,,,,,,13,,,,63,64
192000,note_on,80,0,20,,,,,,,,14,,,,59,45
192000,note_on,80,0,21,,,,,,,,15,,,,47,45
192000,note_on,80,0,18,,,,,,,,12,,,,66,45
192000,note_on,80,0,19,,,,,,,,13,,,,63,45
192000,note_on,80,0,17,,,,,,,,11,,,,81,75
192400,note_off,400,0,19,,,,,,,,13,,,,63,64
192400,note_off,400,0,21,,,,,,,,15,,,,47,64
192400,note_off,400,0,20,,,,,,,,14,,,,59,64
192400,note_off,400,0,17,,,,,,,,11,,,,81,64
192400,note_off,400,0,18,,,,,,,,12,,,,66,64
192480,note_on,80,0,19,,,,,,,,13,,,,63,45
192480,note_on,80,0,18,,,,,,,,12,,,,71,45
192480,note_on,80,0,21,,,,,,,,15,,,,35,45
192480,note_on,80,0,17,,,,,,,,11,,,,79,75
192480,note_on,80,0,20,,,,,,,,14,,,,47,45
192720,note_off,240,0,17,,,,,,,,11,,,,79,64
192720,note_on,0,0,17,,,,,,,,11,,,,78,75
192880,note_off,400,0,18,,,,,,,,12,,,,71,64
192880,note_off,400,0,20,,,,,,,,14,,,,47,64
192880,note_off,400,0,21,,,,,,,,15,,,,35,64
192880,note_off,400,0,19,,,,,,,,13,,,,63,64
192955,note_off,235,0,17,,,,,,,,11,,,,78,64
192960,note_on,80,0,21,,,,,,,,15,,,,47,45
192960,note_on,80,0,18,,,,,,,,12,,,,71,45
192960,note_on,80,0,20,,,,,,,,14,,,,59,45
192960,note_on,5,0,17,,,,,,,,11,,,,79,75
192960,note_on,80,0,19,,,,,,,,13,,,,64,45
193360,note_off,400,0,17,,,,,,,,11,,,,79,64
193440,note_on,80,0,17,,,,,,,,11,,,,83,75
193800,note_off,840,0,21,,,,,,,,15,,,,47,64
193800,note_off,840,0,20,,,,,,,,14,,,,59,64
193800,note_off,840,0,18,,,,,,,,12,,,,71,64
193800,note_off,840,0,19,,,,,,,,13,,,,64,64
193840,note_off,400,0,17,,,,,,,,11,,,,83,64
193920,note_on,80,0,17,,,,,,,,11,,,,71,75
194320,note_off,400,0,17,,,,,,,,11,,,,71,64
194400,note_on,600,0,21,,,,,,,,15,,,,35,45
194400,note_on,600,0,20,,,,,,,,14,,,,47,45
194400,note_on,600,0,18,,,,,,,,12,,,,79,45
194400,note_on,80,0,17,,,,,,,,11,,,,83,75
194400,note_on,600,0,19,,,,,,,,13,,,,64,45
194800,note_off,400,0,21,,,,,,,,15,,,,35,64
194800,note_off,400,0,18,,,,,,,,12,,,,79,64
194800,note_off,400,0,20,,,,,,,,14,,,,47,64
194800,note_off,400,0,17,,,,,,,,11,,,,83,64
194800,note_off,400,0,19,,,,,,,,13,,,,64,64
194880,note_on,80,0,18,,,,,,,,12,,,,79,45
194880,note_on,80,0,21,,,,,,,,15,,,,47,45
194880,note_on,80,0,17,,,,,,,,11,,,,83,75
194880,note_on,80,0,19,,,,,,,,13,,,,64,45
194880,note_on,80,0,20,,,,,,,,14,,,,59,45
195280,note_off,400,0,20,,,,,,,,14,,,,59,64
195280,note_off,400,0,19,,,,,,,,13,,,,64,64
195280,note_off,400,0,17,,,,,,,,11,,,,83,64
195280,note_off,400,0,21,,,,,,,,15,,,,47,64
195280,note_off,400,0,18,,,,,,,,12,,,,79,64
195360,note_on,80,0,17,,,,,,,,11,,,,81,75
195360,note_on,80,0,21,,,,,,,,15,,,,35,45
195360,note_on,80,0,20,,,,,,,,14,,,,47,45
195360,note_on,80,0,19,,,,,,,,13,,,,67,45
195360,note_on,80,0,18,,,,,,,,12,,,,78,45
195600,note_off,240,0,17,,,,,,,,11,,,,81,64
195600,note_on,0,0,18,,,,,,,,12,,,,76,45
195600,note_on,0,0,17,,,,,,,,11,,,,79,75
195600,note_off,240,0,18,,,,,,,,12,,,,78,64
195760,note_off,400,0,19,,,,,,,,13,,,,67,64
195760,note_off,400,0,21,,,,,,,,15,,,,35,64
195760,note_off,400,0,20,,,,,,,,14,,,,47,64
195835,note_off,235,0,17,,,,,,,,11,,,,79,64
195835,note_off,235,0,18,,,,,,,,12,,,,76,64
195840,note_on,5,0,17,,,,,,,,11,,,,81,75
195840,note_on,80,0,21,,,,,,,,15,,,,47,45
195840,note_on,80,0,19,,,,,,,,13,,,,66,45
195840,note_on,80,0,20,,,,,,,,14,,,,59,45
195840,note_on,5,0,18,,,,,,,,12,,,,78,45
196240,note_off,400,0,17,,,,,,,,11,,,,81,64
196240,note_off,400,0,18,,,,,,,,12,,,,78,64
196320,note_on,80,0,17,,,,,,,,11,,,,81,75
196320,note_on,80,0,18,,,,,,,,12,,,,78,45
196680,note_off,840,0,21,,,,,,,,15,,,,47,64
196680,note_off,840,0,19,,,,,,,,13,,,,66,64
196680,note_off,840,0,20,,,,,,,,14,,,,59,64
196720,note_off,400,0,17,,,,,,,,11,,,,81,64
196720,note_off,400,0,18,,,,,,,,12,,,,78,64
196800,note_on,80,0,17,,,,,,,,11,,,,69,75
196800,note_on,80,0,18,,,,,,,,12,,,,66,45
197200,note_off,400,0,18,,,,,,,,12,,,,66,64
197200,note_off,400,0,17,,,,,,,,11,,,,69,64
197280,note_on,600,0,20,,,,,,,,14,,,,47,45
197280,note_on,80,0,17,,,,,,,,11,,,,81,75
197280,note_on,600,0,19,,,,,,,,13,,,,66,45
197280,note_on,600,0,21,,,,,,,,15,,,,35,45
197280,note_on,80,0,18,,,,,,,,12,,,,78,45
197680,note_off,400,0,17,,,,,,,,11,,,,81,64
197680,note_off,400,0,21,,,,,,,,15,,,,35,64
197680,note_off,400,0,19,,,,,,,,13,,,,66,64
197680,note_off,400,0,20,,,,,,,,14,,,,47,64
197680,note_off,400,0,18,,,,,,,,12,,,,78,64
197760,note_on,80,0,21,,,,,,,,15,,,,47,45
197760,note_on,80,0,17,,,,,,,,11,,,,81,75
197760,note_on,80,0,19,,,,,,,,13,,,,66,45
197760,note_on,80,0,18,,,,,,,,12,,,,78,45
197760,note_on,80,0,20,,,,,,,,14,,,,59,45
198160,note_off,400,0,21,,,,,,,,15,,,,47,64
198160,note_off,400,0,19,,,,,,,,13,,,,66,64
198160,note_off,400,0,20,,,,,,,,14,,,,59,64
198160,note_off,400,0,17,,,,,,,,11,,,,81,64
198160,note_off,400,0,18,,,,,,,,12,,,,78,64
198240,note_on,80,0,20,,,,,,,,14,,,,47,45
198240,note_on,80,0,19,,,,,,,,13,,,,66,45
198240,note_on,80,0,18,,,,,,,,12,,,,76,45
198240,note_on,80,0,21,,,,,,,,15,,,,35,45
198240,note_on,80,0,17,,,,,,,,11,,,,79,75
198480,note_on,0,0,18,,,,,,,,12,,,,75,45
198480,note_on,0,0,17,,,,,,,,11,,,,78,75
198480,note_off,240,0,18,,,,,,,,12,,,,76,64
198480,note_off,240,0,17,,,,,,,,11,,,,79,64
198640,note_off,400,0,21,,,,,,,,15,,,,35,64
198640,note_off,400,0,20,,,,,,,,14,,,,47,64
198640,note_off,400,0,19,,,,,,,,13,,,,66,64
198715,note_off,235,0,17,,,,,,,,11,,,,78,64
198715,note_off,235,0,18,,,,,,,,12,,,,75,64
198720,note_on,5,0,17,,,,,,,,11,,,,79,75
198720,note_on,80,0,19,,,,,,,,13,,,,64,45
198720,note_on,80,0,20,,,,,,,,14,,,,52,45
198720,note_on,80,0,21,,,,,,,,15,,,,40,45
198720,note_on,5,0,18,,,,,,,,12,,,,71,45
198720,set_tempo,86400,1,0,300000,,,,,,,,,,,,
199200,note_off,480,0,17,,,,,,,,11,,,,79,64
199200,note_on,0,0,17,,,,,,,,11,,,,78,75
199200,note_off,480,0,18,,,,,,,,12,,,,71,64
199200,note_on,0,0,18,,,,,,,,12,,,,69,45
199560,note_off,840,0,21,,,,,,,,15,,,,40,64
199560,note_off,840,0,20,,,,,,,,14,,,,52,64
199560,note_off,840,0,19,,,,,,,,13,,,,64,64
199600,note_off,400,0,17,,,,,,,,11,,,,78,64
199600,note_off,400,0,18,,,,,,,,12,,,,69,64
199680,note_on,120,0,21,,,,,,,,15,,,,40,45
199680,note_on,80,0,17,,,,,,,,11,,,,78,75
199680,note_on,120,0,20,,,,,,,,14,,,,52,45
199680,note_on,80,0,18,,,,,,,,12,,,,69,45
200160,note_off,480,0,18,,,,,,,,12,,,,69,64
200160,note_on,0,0,18,,,,,,,,12,,,,67,45
200160,note_on,0,0,17,,,,,,,,11,,,,76,75
200160,note_off,480,0,17,,,,,,,,11,,,,78,64
200520,note_off,840,0,20,,,,,,,,14,,,,52,64
200520,note_off,840,0,21,,,,,,,,15,,,,40,64
200560,note_off,400,0,18,,,,,,,,12,,,,67,64
200560,note_off,400,0,17,,,,,,,,11,,,,76,64
200640,note_on,120,0,20,,,,,,,,14,,,,52,45
200640,note_on,120,0,21,,,,,,,,15,,,,40,45
200640,note_on,80,0,17,,,,,,,,11,,,,76,75
200640,set_tempo,1920,1,0,315789,,,,,,,,,,,,
200640,note_on,80,0,18,,,,,,,,12,,,,67,45
201120,note_on,0,0,18,,,,,,,,12,,,,66,45
201120,note_off,480,0,17,,,,,,,,11,,,,76,64
201120,note_on,0,0,17,,,,,,,,11,,,,74,75
201120,note_off,480,0,18,,,,,,,,12,,,,67,64
201480,note_off,840,0,21,,,,,,,,15,,,,40,64
201480,note_off,840,0,20,,,,,,,,14,,,,52,64
201520,note_off,400,0,18,,,,,,,,12,,,,66,64
201520,note_off,400,0,17,,,,,,,,11,,,,74,64
201600,note_on,120,0,21,,,,,,,,15,,,,40,45
201600,note_on,120,0,20,,,,,,,,14,,,,52,45
201600,note_on,80,0,18,,,,,,,,12,,,,66,45
201600,note_on,80,0,17,,,,,,,,11,,,,74,75
201600,set_tempo,960,1,0,333333,,,,,,,,,,,,
202080,note_on,0,0,18,,,,,,,,12,,,,64,45
202080,note_off,480,0,17,,,,,,,,11,,,,74,64
202080,note_off,480,0,18,,,,,,,,12,,,,66,64
202080,note_on,0,0,17,,,,,,,,11,,,,72,75
202440,note_off,840,0,20,,,,,,,,14,,,,52,64
202440,note_off,840,0,21,,,,,,,,15,,,,40,64
202480,note_off,400,0,18,,,,,,,,12,,,,64,64
202480,note_off,400,0,17,,,,,,,,11,,,,72,64
202560,note_on,120,0,20,,,,,,,,14,,,,52,45
202560,note_on,80,0,17,,,,,,,,11,,,,72,75
202560,note_on,120,0,21,,,,,,,,15,,,,40,45
202560,note_on,80,0,18,,,,,,,,12,,,,64,45
203040,note_on,0,0,17,,,,,,,,11,,,,71,75
203040,note_off,480,0,18,,,,,,,,12,,,,64,64
203040,note_off,480,0,17,,,,,,,,11,,,,72,64
203040,note_on,0,0,18,,,,,,,,12,,,,62,45
203400,note_off,840,0,20,,,,,,,,14,,,,52,64
203400,note_off,840,0,21,,,,,,,,15,,,,40,64
203440,note_off,400,0,17,,,,,,,,11,,,,71,64
203440,note_off,400,0,18,,,,,,,,12,,,,62,64
203520,note_on,80,0,17,,,,,,,,11,,,,71,75
203520,note_on,120,0,20,,,,,,,,14,,,,52,45
203520,note_on,120,0,21,,,,,,,,15,,,,40,45
203520,note_on,80,0,18,,,,,,,,12,,,,62,45
204000,note_off,480,0,18,,,,,,,,12,,,,62,64
204000,note_on,0,0,18,,,,,,,,12,,,,61,45
204000,note_on,0,0,17,,,,,,,,11,,,,70,75
204000,note_off,480,0,17,,,,,,,,11,,,,71,64
204360,note_off,840,0,20,,,,,,,,14,,,,52,64
204360,note_off,840,0,21,,,,,,,,15,,,,40,64
204400,note_off,400,0,18,,,,,,,,12,,,,61,64
204400,note_off,400,0,17,,,,,,,,11,,,,70,64
204480,note_on,80,0,17,,,,,,,,11,,,,70,75
204480,note_on,120,0,21,,,,,,,,15,,,,42,45
204480,note_on,80,0,18,,,,,,,,12,,,,66,45
204480,note_on,120,0,20,,,,,,,,14,,,,54,45
204480,set_tempo,2880,1,0,352941,,,,,,,,,,,,
204480,note_on,4920,0,19,,,,,,,,13,,,,58,45
205800,note_off,1320,0,18,,,,,,,,12,,,,66,64
205800,note_off,1320,0,21,,,,,,,,15,,,,42,64
205800,note_off,1320,0,17,,,,,,,,11,,,,70,64
205800,note_off,1320,0,20,,,,,,,,14,,,,54,64
205800,note_off,1320,0,19,,,,,,,,13,,,,58,64
205920,note_on,120,0,19,,,,,,,,13,,,,61,45
205920,note_on,120,0,21,,,,,,,,15,,,,40,45
205920,note_on,120,0,18,,,,,,,,12,,,,70,45
205920,note_on,120,0,17,,,,,,,,11,,,,79,75
205920,note_on,120,0,20,,,,,,,,14,,,,52,45
206320,note_off,400,0,21,,,,,,,,15,,,,40,64
206320,note_off,400,0,20,,,,,,,,14,,,,52,64
206320,note_off,400,0,18,,,,,,,,12,,,,70,64
206320,note_off,400,0,17,,,,,,,,11,,,,79,64
206320,note_off,400,0,19,,,,,,,,13,,,,61,64
206400,note_on,80,0,17,,,,,,,,11,,,,78,75
206400,note_on,80,0,20,,,,,,,,14,,,,50,45
206400,note_on,80,0,19,,,,,,,,13,,,,59,45
206400,note_on,80,0,21,,,,,,,,15,,,,38,45
206400,note_on,80,0,18,,,,,,,,12,,,,71,45
207240,note_off,840,0,19,,,,,,,,13,,,,59,64
207360,note_on,120,0,19,,,,,,,,13,,,,59,45
207760,note_off,1360,0,21,,,,,,,,15,,,,38,64
207760,note_off,1360,0,17,,,,,,,,11,,,,78,64
207760,note_off,1360,0,20,,,,,,,,14,,,,50,64
207760,note_off,1360,0,18,,,,,,,,12,,,,71,64
207840,note_on,80,0,20,,,,,,,,14,,,,52,45
207840,note_on,80,0,21,,,,,,,,15,,,,40,45
207840,note_on,80,0,18,,,,,,,,12,,,,71,45
207840,note_on,80,0,17,,,,,,,,11,,,,79,75
208200,note_off,840,0,19,,,,,,,,13,,,,59,64
208240,note_off,400,0,21,,,,,,,,15,,,,40,64
208240,note_off,400,0,17,,,,,,,,11,,,,79,64
208240,note_off,400,0,18,,,,,,,,12,,,,71,64
208240,note_off,400,0,20,,,,,,,,14,,,,52,64
208320,note_on,80,0,17,,,,,,,,11,,,,74,75
208320,note_on,80,0,21,,,,,,,,15,,,,42,45
208320,note_on,80,0,18,,,,,,,,12,,,,62,45
208320,note_on,80,0,20,,,,,,,,14,,,,54,45
208320,note_on,120,0,19,,,,,,,,13,,,,59,45
209160,note_off,840,0,17,,,,,,,,11,,,,74,64
209160,note_off,840,0,18,,,,,,,,12,,,,62,64
209160,note_off,840,0,19,,,,,,,,13,,,,59,64
209160,note_off,840,0,20,,,,,,,,14,,,,54,64
209160,note_off,840,0,21,,,,,,,,15,,,,42,64
209280,note_on,120,0,21,,,,,,,,15,,,,30,45
209280,set_tempo,4800,1,0,375000,,,,,,,,,,,,
209280,note_on,120,0,20,,,,,,,,14,,,,42,45
209280,note_on,120,0,17,,,,,,,,11,,,,73,75
209280,note_on,120,0,19,,,,,,,,13,,,,58,45
209280,note_on,120,0,18,,,,,,,,12,,,,66,45
209760,note_on,0,0,17,,,,,,,,11,,,,71,75
209760,note_off,480,0,17,,,,,,,,11,,,,73,64
210120,note_off,840,0,21,,,,,,,,15,,,,30,64
210120,note_off,840,0,20,,,,,,,,14,,,,42,64
210120,note_off,840,0,19,,,,,,,,13,,,,58,64
210120,note_off,840,0,18,,,,,,,,12,,,,66,64
210160,note_off,400,0,17,,,,,,,,11,,,,71,64
210240,note_on,120,0,20,,,,,,,,14,,,,47,45
210240,note_on,120,0,19,,,,,,,,13,,,,59,45
210240,note_on,80,0,17,,,,,,,,11,,,,71,75
210240,note_on,120,0,18,,,,,,,,12,,,,62,45
210240,note_on,120,0,21,,,,,,,,15,,,,35,45
210240,set_tempo,960,1,0,400000,,,,,,,,,,,,
213000,note_off,2760,0,19,,,,,,,,13,,,,59,64
213000,note_off,2760,0,17,,,,,,,,11,,,,71,64
213000,note_off,2760,0,18,,,,,,,,12,,,,62,64
213000,note_off,2760,0,21,,,,,,,,15,,,,35,64
213000,note_off,2760,0,20,,,,,,,,14,,,,47,64
213120,note_on,120,0,20,,,,,,,,14,,,,50,92
213120,note_on,100920,0,5,,,,,,,,3,,,,69,92
213120,set_tempo,2880,1,0,272727,,,,,,,,,,,,
213120,note_on,100920,0,14,,,,,,,,7,,,,50,92
213120,note_on,100920,0,16,,,,,,,,10,,,,50,92
213120,note_on,25080,0,3,,,,,,,,2,,,,69,92
213120,note_on,120,0,17,,,,,,,,11,,,,69,108
213120,note_on,120,0,18,,,,,,,,12,,,,66,92
213120,note_on,100920,0,4,,,,,,,,2,,,,66,92
213120,note_on,100920,0,6,,,,,,,,3,,,,66,92
213120,note_on,100920,0,1,,,,,,,,0,,,,69,92
213120,note_on,100920,0,13,,,,,,,,7,,,,57,92
213120,note_on,120,0,21,,,,,,,,15,,,,38,92
213120,note_on,120,0,19,,,,,,,,13,,,,62,92
213120,note_on,100920,0,12,,,,,,,,7,,,,62,92
213120,note_on,100920,0,15,,,,,,,,8,,,,38,92
213120,note_on,100920,0,2,,,,,,,,1,,,,66,92
213120,note_on,25080,0,7,,,,,,,,4,,,,50,92
213960,note_off,840,0,15,,,,,,,,8,,,,38,64
213960,note_off,840,0,13,,,,,,,,7,,,,57,64
213960,note_off,840,0,16,,,,,,,,10,,,,50,64
213960,note_off,840,0,4,,,,,,,,2,,,,66,64
213960,note_off,840,0,19,,,,,,,,13,,,,62,64
213960,note_off,840,0,6,,,,,,,,3,,,,66,64
213960,note_off,840,0,14,,,,,,,,7,,,,50,64
213960,note_off,840,0,5,,,,,,,,3,,,,69,64
213960,note_off,840,0,20,,,,,,,,14,,,,50,64
213960,note_off,840,0,2,,,,,,,,1,,,,66,64
213960,note_off,840,0,1,,,,,,,,0,,,,69,64
213960,note_off,840,0,12,,,,,,,,7,,,,62,64
213960,note_off,840,0,21,,,,,,,,15,,,,38,64
213960,note_off,840,0,18,,,,,,,,12,,,,66,64
213960,note_off,840,0,17,,,,,,,,11,,,,69,64
213960,note_off,840,0,3,,,,,,,,2,,,,69,64
213960,note_off,840,0,7,,,,,,,,4,,,,50,64
214080,note_on,120,0,20,,,,,,,,14,,,,54,92
214080,note_on,120,0,12,,,,,,,,7,,,,62,92
214080,note_on,120,0,5,,,,,,,,3,,,,74,92
214080,note_on,120,0,13,,,,,,,,7,,,,57,92
214080,note_on,120,0,15,,,,,,,,8,,,,42,92
214080,note_on,120,0,3,,,,,,,,2,,,,74,92
214080,note_on,120,0,17,,,,,,,,11,,,,74,108
214080,note_on,120,0,2,,,,,,,,1,,,,69,92
214080,note_on,120,0,6,,,,,,,,3,,,,69,92
214080,note_on,120,0,16,,,,,,,,10,,,,50,92
214080,note_on,120,0,19,,,,,,,,13,,,,69,92
214080,note_on,120,0,4,,,,,,,,2,,,,69,92
214080,note_on,120,0,18,,,,,,,,12,,,,69,92
214080,note_on,120,0,21,,,,,,,,15,,,,42,92
214080,note_on,120,0,7,,,,,,,,4,,,,54,92
214080,note_on,120,0,14,,,,,,,,7,,,,54,92
214080,note_on,120,0,1,,,,,,,,0,,,,74,92
214920,note_off,840,0,18,,,,,,,,12,,,,69,64
214920,note_off,840,0,16,,,,,,,,10,,,,50,64
214920,note_off,840,0,7,,,,,,,,4,,,,54,64
214920,note_off,840,0,12,,,,,,,,7,,,,62,64
214920,note_off,840,0,21,,,,,,,,15,,,,42,64
214920,note_off,840,0,1,,,,,,,,0,,,,74,64
214920,note_off,840,0,2,,,,,,,,1,,,,69,64
214920,note_off,840,0,17,,,,,,,,11,,,,74,64
214920,note_off,840,0,20,,,,,,,,14,,,,54,64
214920,note_off,840,0,14,,,,,,,,7,,,,54,64
214920,note_off,840,0,4,,,,,,,,2,,,,69,64
214920,note_off,840,0,5,,,,,,,,3,,,,74,64
214920,note_off,840,0,6,,,,,,,,3,,,,69,64
214920,note_off,840,0,13,,,,,,,,7,,,,57,64
214920,note_off,840,0,19,,,,,,,,13,,,,69,64
214920,note_off,840,0,3,,,,,,,,2,,,,74,64
214920,note_off,840,0,15,,,,,,,,8,,,,42,64
215040,note_on,120,0,14,,,,,,,,7,,,,57,92
215040,note_on,120,0,17,,,,,,,,11,,,,76,108
215040,note_on,120,0,20,,,,,,,,14,,,,57,92
215040,note_on,120,0,3,,,,,,,,2,,,,76,92
215040,note_on,120,0,13,,,,,,,,7,,,,57,92
215040,note_on,120,0,7,,,,,,,,4,,,,57,92
215040,note_on,120,0,2,,,,,,,,1,,,,73,92
215040,note_on,120,0,12,,,,,,,,7,,,,61,92
215040,note_on,120,0,18,,,,,,,,12,,,,73,92
215040,note_on,120,0,6,,,,,,,,3,,,,73,92
215040,note_on,120,0,21,,,,,,,,15,,,,45,92
215040,note_on,120,0,1,,,,,,,,0,,,,76,92
215040,note_on,120,0,4,,,,,,,,2,,,,73,92
215040,note_on,120,0,15,,,,,,,,8,,,,45,92
215040,note_on,120,0,16,,,,,,,,10,,,,50,92
215040,note_on,120,0,19,,,,,,,,13,,,,69,92
215040,note_on,120,0,5,,,,,,,,3,,,,76,92
215100,note_on,0,0,17,,,,,,,,11,,,,78,108
215100,note_off,60,0,17,,,,,,,,11,,,,76,64
215160,note_on,0,0,3,,,,,,,,2,,,,78,92
215160,note_off,60,0,17,,,,,,,,11,,,,78,64
215160,note_off,120,0,3,,,,,,,,2,,,,76,64
215160,note_on,0,0,17,,,,,,,,11,,,,76,108
215160,note_off,120,0,5,,,,,,,,3,,,,76,64
215160,note_on,0,0,5,,,,,,,,3,,,,78,92
215160,note_on,0,0,1,,,,,,,,0,,,,78,92
215160,note_off,120,0,1,,,,,,,,0,,,,76,64
215220,note_on,0,0,17,,,,,,,,11,,,,78,108
215220,note_off,60,0,17,,,,,,,,11,,,,76,64
215280,note_on,0,0,17,,,,,,,,11,,,,76,108
215280,note_off,120,0,1,,,,,,,,0,,,,78,64
215280,note_on,0,0,5,,,,,,,,3,,,,76,92
215280,note_off,60,0,17,,,,,,,,11,,,,78,64
215280,note_on,0,0,3,,,,,,,,2,,,,76,92
215280,note_off,120,0,5,,,,,,,,3,,,,78,64
215280,note_on,0,0,1,,,,,,,,0,,,,76,92
215280,note_off,120,0,3,,,,,,,,2,,,,78,64
215340,note_off,60,0,17,,,,,,,,11,,,,76,64
215340,note_on,0,0,17,,,,,,,,11,,,,78,108
215400,note_off,60,0,17,,,,,,,,11,,,,78,64
215400,note_on,0,0,17,,,,,,,,11,,,,76,108
215400,note_on,0,0,5,,,,,,,,3,,,,78,92
215400,note_off,120,0,5,,,,,,,,3,,,,76,64
215400,note_off,120,0,1,,,,,,,,0,,,,76,64
215400,note_on,0,0,1,,,,,,,,0,,,,78,92
215400,note_on,0,0,3,,,,,,,,2,,,,78,92
215400,note_off,120,0,3,,,,,,,,2,,,,76,64
215460,note_off,60,0,17,,,,,,,,11,,,,76,64
215460,note_on,0,0,17,,,,,,,,11,,,,78,108
215520,note_on,0,0,5,,,,,,,,3,,,,76,92
215520,note_off,120,0,5,,,,,,,,3,,,,78,64
215520,note_off,60,0,17,,,,,,,,11,,,,78,64
215520,note_on,0,0,17,,,,,,,,11,,,,76,108
215520,note_off,120,0,1,,,,,,,,0,,,,78,64
215520,note_off,120,0,3,,,,,,,,2,,,,78,64
215520,note_on,0,0,3,,,,,,,,2,,,,76,92
215520,note_on,0,0,1,,,,,,,,0,,,,76,92
215580,note_off,60,0,17,,,,,,,,11,,,,76,64
215580,note_on,0,0,17,,,,,,,,11,,,,78,108
215640,note_on,0,0,1,,,,,,,,0,,,,78,92
215640,note_on,0,0,5,,,,,,,,3,,,,78,92
215640,note_off,120,0,5,,,,,,,,3,,,,76,64
215640,note_off,120,0,1,,,,,,,,0,,,,76,64
215640,note_on,0,0,17,,,,,,,,11,,,,76,108
215640,note_on,0,0,3,,,,,,,,2,,,,78,92
215640,note_off,120,0,3,,,,,,,,2,,,,76,64
215640,note_off,60,0,17,,,,,,,,11,,,,78,64
215700,note_off,60,0,17,,,,,,,,11,,,,76,64
215700,note_on,0,0,17,,,,,,,,11,,,,78,108
215760,note_on,0,0,5,,,,,,,,3,,,,74,92
215760,note_off,120,0,5,,,,,,,,3,,,,78,64
215760,note_off,60,0,17,,,,,,,,11,,,,78,64
215760,note_on,0,0,17,,,,,,,,11,,,,76,108
215760,note_on,0,0,3,,,,,,,,2,,,,74,92
215760,note_on,0,0,1,,,,,,,,0,,,,74,92
215760,note_off,120,0,3,,,,,,,,2,,,,78,64
215760,note_off,120,0,1,,,,,,,,0,,,,78,64
215820,note_on,0,0,17,,,,,,,,11,,,,78,108
215820,note_off,60,0,17,,,,,,,,11,,,,76,64
215880,note_off,840,0,4,,,,,,,,2,,,,73,64
215880,note_off,840,0,12,,,,,,,,7,,,,61,64
215880,note_off,840,0,2,,,,,,,,1,,,,73,64
215880,note_off,840,0,16,,,,,,,,10,,,,50,64
215880,note_off,840,0,19,,,,,,,,13,,,,69,64
215880,note_on,0,0,3,,,,,,,,2,,,,76,92
215880,note_off,840,0,6,,,,,,,,3,,,,73,64
215880,note_off,120,0,3,,,,,,,,2,,,,74,64
215880,note_on,0,0,5,,,,,,,,3,,,,76,92
215880,note_off,840,0,14,,,,,,,,7,,,,57,64
215880,note_off,840,0,15,,,,,,,,8,,,,45,64
215880,note_off,840,0,20,,,,,,,,14,,,,57,64
215880,note_on,0,0,17,,,,,,,,11,,,,74,108
215880,note_on,0,0,1,,,,,,,,0,,,,76,92
215880,note_off,120,0,1,,,,,,,,0,,,,74,64
215880,note_off,840,0,7,,,,,,,,4,,,,57,64
215880,note_off,840,0,13,,,,,,,,7,,,,57,64
215880,note_off,60,0,17,,,,,,,,11,,,,78,64
215880,note_off,840,0,21,,,,,,,,15,,,,45,64
215880,note_off,840,0,18,,,,,,,,12,,,,73,64
215880,note_off,120,0,5,,,,,,,,3,,,,74,64
215940,note_off,60,0,17,,,,,,,,11,,,,74,64
215940,note_on,0,0,17,,,,,,,,11,,,,76,108
215995,note_off,115,0,1,,,,,,,,0,,,,76,64
215995,note_off,115,0,5,,,,,,,,3,,,,76,64
215995,note_off,115,0,3,,,,,,,,2,,,,76,64
215995,note_off,55,0,17,,,,,,,,11,,,,76,64
216000,note_on,120,0,19,,,,,,,,13,,,,69,92
216000,note_on,5,0,17,,,,,,,,11,,,,78,108
216000,note_on,120,0,20,,,,,,,,14,,,,62,92
216000,note_on,5,0,3,,,,,,,,2,,,,78,92
216000,note_on,120,0,15,,,,,,,,8,,,,50,92
216000,note_on,120,0,7,,,,,,,,4,,,,62,92
216000,note_on,120,0,2,,,,,,,,1,,,,74,92
216000,note_on,120,0,14,,,,,,,,7,,,,62,92
216000,note_on,120,0,12,,,,,,,,7,,,,62,92
216000,note_on,120,0,18,,,,,,,,12,,,,74,92
216000,note_on,120,0,6,,,,,,,,3,,,,74,92
216000,note_on,120,0,16,,,,,,,,10,,,,45,92
216000,note_on,5,0,5,,,,,,,,3,,,,78,92
216000,note_on,5,0,1,,,,,,,,0,,,,78,92
216000,note_on,120,0,13,,,,,,,,7,,,,57,92
216000,note_on,120,0,21,,,,,,,,15,,,,50,92
216000,note_on,120,0,4,,,,,,,,2,,,,74,92
216400,note_off,400,0,13,,,,,,,,7,,,,57,64
216400,note_off,400,0,1,,,,,,,,0,,,,78,64
216400,note_off,400,0,16,,,,,,,,10,,,,45,64
216400,note_off,400,0,17,,,,,,,,11,,,,78,64
216400,note_off,400,0,2,,,,,,,,1,,,,74,64
216400,note_off,400,0,5,,,,,,,,3,,,,78,64
216400,note_off,400,0,14,,,,,,,,7,,,,62,64
216400,note_off,400,0,3,,,,,,,,2,,,,78,64
216400,note_off,400,0,15,,,,,,,,8,,,,50,64
216400,note_off,400,0,12,,,,,,,,7,,,,62,64
216400,note_off,400,0,21,,,,,,,,15,,,,50,64
216400,note_off,400,0,4,,,,,,,,2,,,,74,64
216400,note_off,400,0,20,,,,,,,,14,,,,62,64
216400,note_off,400,0,18,,,,,,,,12,,,,74,64
216400,note_off,400,0,6,,,,,,,,3,,,,74,64
216400,note_off,400,0,19,,,,,,,,13,,,,69,64
216400,note_off,400,0,7,,,,,,,,4,,,,62,64
216480,note_on,80,0,4,,,,,,,,2,,,,69,92
216480,note_on,80,0,16,,,,,,,,10,,,,50,92
216480,note_on,80,0,12,,,,,,,,7,,,,62,92
216480,note_on,80,0,1,,,,,,,,0,,,,74,92
216480,note_on,80,0,21,,,,,,,,15,,,,42,92
216480,note_on,80,0,5,,,,,,,,3,,,,74,92
216480,note_on,80,0,3,,,,,,,,2,,,,74,92
216480,note_on,80,0,6,,,,,,,,3,,,,69,92
216480,note_on,80,0,14,,,,,,,,7,,,,54,92
216480,note_on,80,0,18,,,,,,,,12,,,,69,92
216480,note_on,80,0,15,,,,,,,,8,,,,42,92
216480,note_on,80,0,19,,,,,,,,13,,,,62,92
216480,note_on,80,0,20,,,,,,,,14,,,,54,92
216480,note_on,80,0,2,,,,,,,,1,,,,69,92
216480,note_on,80,0,7,,,,,,,,4,,,,54,92
216480,note_on,80,0,13,,,,,,,,7,,,,57,92
216480,note_on,80,0,17,,,,,,,,11,,,,74,108
217320,note_off,840,0,20,,,,,,,,14,,,,54,64
217320,note_off,840,0,6,,,,,,,,3,,,,69,64
217320,note_off,840,0,4,,,,,,,,2,,,,69,64
217320,note_off,840,0,16,,,,,,,,10,,,,50,64
217320,note_off,840,0,15,,,,,,,,8,,,,42,64
217320,note_off,840,0,5,,,,,,,,3,,,,74,64
217320,note_off,840,0,13,,,,,,,,7,,,,57,64
217320,note_off,840,0,3,,,,,,,,2,,,,74,64
217320,note_off,840,0,7,,,,,,,,4,,,,54,64
217320,note_off,840,0,21,,,,,,,,15,,,,42,64
217320,note_off,840,0,2,,,,,,,,1,,,,69,64
217320,note_off,840,0,19,,,,,,,,13,,,,62,64
217320,note_off,840,0,12,,,,,,,,7,,,,62,64
217320,note_off,840,0,18,,,,,,,,12,,,,69,64
217320,note_off,840,0,14,,,,,,,,7,,,,54,64
217320,note_off,840,0,1,,,,,,,,0,,,,74,64
217320,note_off,840,0,17,,,,,,,,11,,,,74,64
217440,note_on,120,0,16,,,,,,,,10,,,,50,92
217440,note_on,120,0,4,,,,,,,,2,,,,73,92
217440,note_on,120,0,6,,,,,,,,3,,,,73,92
217440,note_on,120,0,18,,,,,,,,12,,,,73,92
217440,note_on,120,0,19,,,,,,,,13,,,,69,92
217440,note_on,120,0,7,,,,,,,,4,,,,57,92
217440,note_on,120,0,20,,,,,,,,14,,,,57,92
217440,note_on,120,0,14,,,,,,,,7,,,,57,92
217440,note_on,120,0,2,,,,,,,,1,,,,73,92
217440,note_on,120,0,1,,,,,,,,0,,,,76,92
217440,note_on,120,0,13,,,,,,,,7,,,,57,92
217440,note_on,120,0,3,,,,,,,,2,,,,76,92
217440,note_on,120,0,5,,,,,,,,3,,,,76,92
217440,note_on,120,0,12,,,,,,,,7,,,,62,92
217440,note_on,120,0,15,,,,,,,,8,,,,45,92
217440,note_on,120,0,17,,,,,,,,11,,,,76,108
217440,note_on,120,0,21,,,,,,,,15,,,,45,92
217840,note_off,400,0,17,,,,,,,,11,,,,76,64
217840,note_off,400,0,4,,,,,,,,2,,,,73,64
217840,note_off,400,0,6,,,,,,,,3,,,,73,64
217840,note_off,400,0,12,,,,,,,,7,,,,62,64
217840,note_off,400,0,18,,,,,,,,12,,,,73,64
217840,note_off,400,0,19,,,,,,,,13,,,,69,64
217840,note_off,400,0,15,,,,,,,,8,,,,45,64
217840,note_off,400,0,7,,,,,,,,4,,,,57,64
217840,note_off,400,0,2,,,,,,,,1,,,,73,64
217840,note_off,400,0,20,,,,,,,,14,,,,57,64
217840,note_off,400,0,14,,,,,,,,7,,,,57,64
217840,note_off,400,0,5,,,,,,,,3,,,,76,64
217840,note_off,400,0,13,,,,,,,,7,,,,57,64
217840,note_off,400,0,21,,,,,,,,15,,,,45,64
217840,note_off,400,0,16,,,,,,,,10,,,,50,64
217840,note_off,400,0,1,,,,,,,,0,,,,76,64
217840,note_off,400,0,3,,,,,,,,2,,,,76,64
217920,note_on,80,0,21,,,,,,,,15,,,,50,92
217920,note_on,80,0,4,,,,,,,,2,,,,74,92
217920,note_on,80,0,1,,,,,,,,0,,,,78,92
217920,note_on,80,0,2,,,,,,,,1,,,,74,92
217920,note_on,80,0,14,,,,,,,,7,,,,62,92
217920,note_on,80,0,15,,,,,,,,8,,,,50,92
217920,note_on,80,0,16,,,,,,,,10,,,,50,92
217920,note_on,80,0,13,,,,,,,,7,,,,57,92
217920,note_on,80,0,5,,,,,,,,3,,,,78,92
217920,note_on,80,0,20,,,,,,,,14,,,,62,92
217920,note_on,80,0,17,,,,,,,,11,,,,78,108
217920,note_on,80,0,6,,,,,,,,3,,,,74,92
217920,note_on,80,0,19,,,,,,,,13,,,,69,92
217920,note_on,80,0,18,,,,,,,,12,,,,74,92
217920,note_on,80,0,7,,,,,,,,4,,,,62,92
217920,note_on,80,0,12,,,,,,,,7,,,,62,92
217920,note_on,80,0,3,,,,,,,,2,,,,78,92
218320,note_off,400,0,19,,,,,,,,13,,,,69,64
218320,note_off,400,0,15,,,,,,,,8,,,,50,64
218320,note_off,400,0,18,,,,,,,,12,,,,74,64
218320,note_off,400,0,14,,,,,,,,7,,,,62,64
218320,note_off,400,0,21,,,,,,,,15,,,,50,64
218320,note_off,400,0,1,,,,,,,,0,,,,78,64
218320,note_off,400,0,7,,,,,,,,4,,,,62,64
218320,note_off,400,0,5,,,,,,,,3,,,,78,64
218320,note_off,400,0,6,,,,,,,,3,,,,74,64
218320,note_off,400,0,20,,,,,,,,14,,,,62,64
218320,note_off,400,0,16,,,,,,,,10,,,,50,64
218320,note_off,400,0,4,,,,,,,,2,,,,74,64
218320,note_off,400,0,17,,,,,,,,11,,,,78,64
218320,note_off,400,0,2,,,,,,,,1,,,,74,64
218320,note_off,400,0,12,,,,,,,,7,,,,62,64
218320,note_off,400,0,13,,,,,,,,7,,,,57,64
218320,note_off,400,0,3,,,,,,,,2,,,,78,64
218400,note_on,80,0,4,,,,,,,,2,,,,69,92
218400,note_on,80,0,19,,,,,,,,13,,,,69,92
218400,note_on,80,0,17,,,,,,,,11,,,,74,108
218400,note_on,80,0,18,,,,,,,,12,,,,69,92
218400,note_on,80,0,6,,,,,,,,3,,,,69,92
218400,note_on,80,0,12,,,,,,,,7,,,,62,92
218400,note_on,80,0,16,,,,,,,,10,,,,50,92
218400,note_on,80,0,13,,,,,,,,7,,,,57,92
218400,note_on,80,0,20,,,,,,,,14,,,,54,92
218400,note_on,80,0,14,,,,,,,,7,,,,54,92
218400,note_on,80,0,15,,,,,,,,8,,,,42,92
218400,note_on,80,0,5,,,,,,,,3,,,,74,92
218400,note_on,80,0,2,,,,,,,,1,,,,69,92
218400,note_on,80,0,1,,,,,,,,0,,,,74,92
218400,note_on,80,0,3,,,,,,,,2,,,,74,92
218400,note_on,80,0,21,,,,,,,,15,,,,42,92
218400,note_on,80,0,7,,,,,,,,4,,,,54,92
218800,note_off,400,0,1,,,,,,,,0,,,,74,64
218800,note_off,400,0,5,,,,,,,,3,,,,74,64
218800,note_off,400,0,16,,,,,,,,10,,,,50,64
218800,note_off,400,0,6,,,,,,,,3,,,,69,64
218800,note_off,400,0,19,,,,,,,,13,,,,69,64
218800,note_off,400,0,14,,,,,,,,7,,,,54,64
218800,note_off,400,0,13,,,,,,,,7,,,,57,64
218800,note_off,400,0,7,,,,,,,,4,,,,54,64
218800,note_off,400,0,20,,,,,,,,14,,,,54,64
218800,note_off,400,0,4,,,,,,,,2,,,,69,64
218800,note_off,400,0,21,,,,,,,,15,,,,42,64
218800,note_off,400,0,15,,,,,,,,8,,,,42,64
218800,note_off,400,0,17,,,,,,,,11,,,,74,64
218800,note_off,400,0,18,,,,,,,,12,,,,69,64
218800,note_off,400,0,2,,,,,,,,1,,,,69,64
218800,note_off,400,0,3,,,,,,,,2,,,,74,64
218800,note_off,400,0,12,,,,,,,,7,,,,62,64
218880,note_on,80,0,20,,,,,,,,14,,,,57,92
218880,note_on,80,0,13,,,,,,,,7,,,,57,92
218880,note_on,80,0,14,,,,,,,,7,,,,57,92
218880,note_on,80,0,5,,,,,,,,3,,,,76,92
218880,note_on,80,0,15,,,,,,,,8,,,,45,92
218880,note_on,80,0,1,,,,,,,,0,,,,76,92
218880,note_on,80,0,3,,,,,,,,2,,,,76,92
218880,note_on,80,0,2,,,,,,,,1,,,,73,92
218880,note_on,80,0,7,,,,,,,,4,,,,57,92
218880,note_on,80,0,19,,,,,,,,13,,,,69,92
218880,note_on,80,0,4,,,,,,,,2,,,,73,92
218880,note_on,80,0,6,,,,,,,,3,,,,73,92
218880,note_on,80,0,16,,,,,,,,10,,,,45,92
218880,note_on,80,0,18,,,,,,,,12,,,,73,92
218880,note_on,80,0,21,,,,,,,,15,,,,45,92
218880,note_on,80,0,12,,,,,,,,7,,,,61,92
218880,note_on,80,0,17,,,,,,,,11,,,,76,108
219280,note_off,400,0,13,,,,,,,,7,,,,57,64
219280,note_off,400,0,21,,,,,,,,15,,,,45,64
219280,note_off,400,0,5,,,,,,,,3,,,,76,64
219280,note_off,400,0,17,,,,,,,,11,,,,76,64
219280,note_off,400,0,14,,,,,,,,7,,,,57,64
219280,note_off,400,0,6,,,,,,,,3,,,,73,64
219280,note_off,400,0,15,,,,,,,,8,,,,45,64
219280,note_off,400,0,20,,,,,,,,14,,,,57,64
219280,note_off,400,0,12,,,,,,,,7,,,,61,64
219280,note_off,400,0,2,,,,,,,,1,,,,73,64
219280,note_off,400,0,3,,,,,,,,2,,,,76,64
219280,note_off,400,0,18,,,,,,,,12,,,,73,64
219280,note_off,400,0,16,,,,,,,,10,,,,45,64
219280,note_off,400,0,7,,,,,,,,4,,,,57,64
219280,note_off,400,0,1,,,,,,,,0,,,,76,64
219280,note_off,400,0,4,,,,,,,,2,,,,73,64
219360,note_on,80,0,2,,,,,,,,1,,,,76,92
219360,note_on,80,0,20,,,,,,,,14,,,,61,92
219360,note_on,80,0,7,,,,,,,,4,,,,61,92
219360,note_on,80,0,17,,,,,,,,11,,,,81,108
219360,note_on,80,0,18,,,,,,,,12,,,,76,92
219360,note_on,80,0,15,,,,,,,,8,,,,49,92
219360,note_on,80,0,6,,,,,,,,3,,,,76,92
219360,note_on,80,0,4,,,,,,,,2,,,,76,92
219360,note_on,80,0,13,,,,,,,,7,,,,57,92
219360,note_on,80,0,12,,,,,,,,7,,,,61,92
219360,note_on,80,0,16,,,,,,,,10,,,,45,92
219360,note_on,80,0,5,,,,,,,,3,,,,81,92
219360,note_on,80,0,1,,,,,,,,0,,,,81,92
219360,note_on,80,0,3,,,,,,,,2,,,,81,92
219360,note_on,80,0,14,,,,,,,,7,,,,61,92
219360,note_on,80,0,21,,,,,,,,15,,,,49,92
219720,note_off,840,0,19,,,,,,,,13,,,,69,64
220200,note_off,840,0,4,,,,,,,,2,,,,76,64
220200,note_off,840,0,13,,,,,,,,7,,,,57,64
220200,note_off,840,0,15,,,,,,,,8,,,,49,64
220200,note_off,840,0,12,,,,,,,,7,,,,61,64
220200,note_off,840,0,21,,,,,,,,15,,,,49,64
220200,note_off,840,0,3,,,,,,,,2,,,,81,64
220200,note_off,840,0,1,,,,,,,,0,,,,81,64
220200,note_off,840,0,20,,,,,,,,14,,,,61,64
220200,note_off,840,0,16,,,,,,,,10,,,,45,64
220200,note_off,840,0,5,,,,,,,,3,,,,81,64
220200,note_off,840,0,2,,,,,,,,1,,,,76,64
220200,note_off,840,0,14,,,,,,,,7,,,,61,64
220200,note_off,840,0,18,,,,,,,,12,,,,76,64
220200,note_off,840,0,7,,,,,,,,4,,,,61,64
220200,note_off,840,0,17,,,,,,,,11,,,,81,64
220200,note_off,840,0,6,,,,,,,,3,,,,76,64
220320,note_on,120,0,17,,,,,,,,11,,,,76,108
220320,note_on,120,0,12,,,,,,,,7,,,,61,92
220320,note_on,120,0,4,,,,,,,,2,,,,73,92
220320,note_on,600,0,19,,,,,,,,13,,,,69,92
220320,note_on,120,0,3,,,,,,,,2,,,,76,92
220320,note_on,120,0,7,,,,,,,,4,,,,57,92
220320,note_on,120,0,16,,,,,,,,10,,,,50,92
220320,note_on,120,0,2,,,,,,,,1,,,,73,92
220320,note_on,120,0,18,,,,,,,,12,,,,73,92
220320,note_on,120,0,20,,,,,,,,14,,,,57,92
220320,note_on,120,0,5,,,,,,,,3,,,,76,92
220320,note_on,120,0,21,,,,,,,,15,,,,45,92
220320,note_on,120,0,13,,,,,,,,7,,,,57,92
220320,note_on,120,0,14,,,,,,,,7,,,,57,92
220320,note_on,120,0,1,,,,,,,,0,,,,76,92
220320,note_on,120,0,6,,,,,,,,3,,,,73,92
220320,note_on,120,0,15,,,,,,,,8,,,,45,92
220720,note_off,400,0,19,,,,,,,,13,,,,69,64
220720,note_off,400,0,12,,,,,,,,7,,,,61,64
220720,note_off,400,0,18,,,,,,,,12,,,,73,64
220720,note_off,400,0,7,,,,,,,,4,,,,57,64
220720,note_off,400,0,20,,,,,,,,14,,,,57,64
220720,note_off,400,0,21,,,,,,,,15,,,,45,64
220720,note_off,400,0,13,,,,,,,,7,,,,57,64
220720,note_off,400,0,15,,,,,,,,8,,,,45,64
220720,note_off,400,0,1,,,,,,,,0,,,,76,64
220720,note_off,400,0,6,,,,,,,,3,,,,73,64
220720,note_off,400,0,14,,,,,,,,7,,,,57,64
220720,note_off,400,0,5,,,,,,,,3,,,,76,64
220720,note_off,400,0,2,,,,,,,,1,,,,73,64
220720,note_off,400,0,17,,,,,,,,11,,,,76,64
220720,note_off,400,0,16,,,,,,,,10,,,,50,64
220720,note_off,400,0,4,,,,,,,,2,,,,73,64
220720,note_off,400,0,3,,,,,,,,2,,,,76,64
220800,note_on,80,0,2,,,,,,,,1,,,,74,92
220800,note_on,80,0,21,,,,,,,,15,,,,50,92
220800,note_on,80,0,1,,,,,,,,0,,,,78,92
220800,note_on,80,0,16,,,,,,,,10,,,,50,92
220800,note_on,80,0,17,,,,,,,,11,,,,78,108
220800,note_on,80,0,5,,,,,,,,3,,,,78,92
220800,note_on,80,0,14,,,,,,,,7,,,,62,92
220800,note_on,80,0,6,,,,,,,,3,,,,74,92
220800,note_on,80,0,12,,,,,,,,7,,,,62,92
220800,note_on,80,0,15,,,,,,,,8,,,,50,92
220800,note_on,80,0,20,,,,,,,,14,,,,62,92
220800,note_on,80,0,7,,,,,,,,4,,,,62,92
220800,note_on,80,0,4,,,,,,,,2,,,,74,92
220800,note_on,80,0,3,,,,,,,,2,,,,78,92
220800,note_on,80,0,19,,,,,,,,13,,,,69,92
220800,note_on,80,0,18,,,,,,,,12,,,,74,92
220800,note_on,80,0,13,,,,,,,,7,,,,57,92
221200,note_off,400,0,12,,,,,,,,7,,,,62,64
221200,note_off,400,0,15,,,,,,,,8,,,,50,64
221200,note_off,400,0,5,,,,,,,,3,,,,78,64
221200,note_off,400,0,17,,,,,,,,11,,,,78,64
221200,note_off,400,0,19,,,,,,,,13,,,,69,64
221200,note_off,400,0,21,,,,,,,,15,,,,50,64
221200,note_off,400,0,1,,,,,,,,0,,,,78,64
221200,note_off,400,0,7,,,,,,,,4,,,,62,64
221200,note_off,400,0,2,,,,,,,,1,,,,74,64
221200,note_off,400,0,20,,,,,,,,14,,,,62,64
221200,note_off,400,0,18,,,,,,,,12,,,,74,64
221200,note_off,400,0,4,,,,,,,,2,,,,74,64
221200,note_off,400,0,3,,,,,,,,2,,,,78,64
221200,note_off,400,0,14,,,,,,,,7,,,,62,64
221200,note_off,400,0,6,,,,,,,,3,,,,74,64
221200,note_off,400,0,16,,,,,,,,10,,,,50,64
221200,note_off,400,0,13,,,,,,,,7,,,,57,64
221280,note_on,80,0,13,,,,,,,,7,,,,57,92
221280,note_on,80,0,3,,,,,,,,2,,,,76,92
221280,note_on,80,0,15,,,,,,,,8,,,,42,92
221280,note_on,80,0,14,,,,,,,,7,,,,54,92
221280,note_on,80,0,5,,,,,,,,3,,,,76,92
221280,note_on,80,0,19,,,,,,,,13,,,,69,92
221280,note_on,80,0,16,,,,,,,,10,,,,50,92
221280,note_on,80,0,17,,,,,,,,11,,,,76,108
221280,note_on,80,0,20,,,,,,,,14,,,,54,92
221280,note_on,80,0,6,,,,,,,,3,,,,69,92
221280,note_on,80,0,1,,,,,,,,0,,,,76,92
221280,note_on,80,0,21,,,,,,,,15,,,,42,92
221280,note_on,80,0,4,,,,,,,,2,,,,69,92
221280,note_on,80,0,12,,,,,,,,7,,,,62,92
221280,note_on,80,0,18,,,,,,,,12,,,,69,92
221280,note_on,80,0,2,,,,,,,,1,,,,69,92
221280,note_on,80,0,7,,,,,,,,4,,,,54,92
221520,note_on,0,0,17,,,,,,,,11,,,,74,108
221520,note_on,0,0,5,,,,,,,,3,,,,74,92
221520,note_off,240,0,17,,,,,,,,11,,,,76,64
221520,note_off,240,0,5,,,,,,,,3,,,,76,64
221520,note_off,240,0,3,,,,,,,,2,,,,76,64
221520,note_on,0,0,3,,,,,,,,2,,,,74,92
221520,note_on,0,0,1,,,,,,,,0,,,,74,92
221520,note_off,240,0,1,,,,,,,,0,,,,76,64
221680,note_off,400,0,7,,,,,,,,4,,,,54,64
221680,note_off,400,0,19,,,,,,,,13,,,,69,64
221680,note_off,400,0,16,,,,,,,,10,,,,50,64
221680,note_off,400,0,15,,,,,,,,8,,,,42,64
221680,note_off,400,0,20,,,,,,,,14,,,,54,64
221680,note_off,400,0,21,,,,,,,,15,,,,42,64
221680,note_off,400,0,14,,,,,,,,7,,,,54,64
221680,note_off,400,0,12,,,,,,,,7,,,,62,64
221680,note_off,400,0,13,,,,,,,,7,,,,57,64
221680,note_off,400,0,18,,,,,,,,12,,,,69,64
221755,note_off,235,0,17,,,,,,,,11,,,,74,64
221760,note_on,80,0,18,,,,,,,,12,,,,73,92
221760,note_on,80,0,7,,,,,,,,4,,,,57,92
221760,note_on,80,0,19,,,,,,,,13,,,,69,92
221760,note_off,240,0,5,,,,,,,,3,,,,74,64
221760,note_on,0,0,5,,,,,,,,3,,,,76,92
221760,note_on,80,0,13,,,,,,,,7,,,,57,92
221760,note_off,240,0,3,,,,,,,,2,,,,74,64
221760,note_on,80,0,16,,,,,,,,10,,,,45,92
221760,note_off,240,0,1,,,,,,,,0,,,,74,64
221760,note_off,480,0,2,,,,,,,,1,,,,69,64
221760,note_on,0,0,2,,,,,,,,1,,,,73,92
221760,note_off,480,0,4,,,,,,,,2,,,,69,64
221760,note_on,80,0,14,,,,,,,,7,,,,57,92
221760,note_on,0,0,6,,,,,,,,3,,,,73,92
221760,note_on,80,0,12,,,,,,,,7,,,,61,92
221760,note_on,80,0,21,,,,,,,,15,,,,45,92
221760,note_on,0,0,4,,,,,,,,2,,,,73,92
221760,note_on,0,0,1,,,,,,,,0,,,,76,92
221760,note_off,480,0,6,,,,,,,,3,,,,69,64
221760,note_on,0,0,3,,,,,,,,2,,,,76,92
221760,note_on,80,0,20,,,,,,,,14,,,,57,92
221760,note_on,80,0,15,,,,,,,,8,,,,45,92
221760,note_on,5,0,17,,,,,,,,11,,,,76,108
222160,note_off,400,0,14,,,,,,,,7,,,,57,64
222160,note_off,400,0,12,,,,,,,,7,,,,61,64
222160,note_off,400,0,21,,,,,,,,15,,,,45,64
222160,note_off,400,0,1,,,,,,,,0,,,,76,64
222160,note_off,400,0,15,,,,,,,,8,,,,45,64
222160,note_off,400,0,18,,,,,,,,12,,,,73,64
222160,note_off,400,0,13,,,,,,,,7,,,,57,64
222160,note_off,400,0,20,,,,,,,,14,,,,57,64
222160,note_off,400,0,4,,,,,,,,2,,,,73,64
222160,note_off,400,0,5,,,,,,,,3,,,,76,64
222160,note_off,400,0,2,,,,,,,,1,,,,73,64
222160,note_off,400,0,16,,,,,,,,10,,,,45,64
222160,note_off,400,0,7,,,,,,,,4,,,,57,64
222160,note_off,400,0,3,,,,,,,,2,,,,76,64
222160,note_off,400,0,17,,,,,,,,11,,,,76,64
222160,note_off,400,0,6,,,,,,,,3,,,,73,64
222240,note_on,80,0,3,,,,,,,,2,,,,81,92
222240,note_on,80,0,2,,,,,,,,1,,,,76,92
222240,note_on,80,0,4,,,,,,,,2,,,,76,92
222240,note_on,80,0,6,,,,,,,,3,,,,76,92
222240,note_on,80,0,18,,,,,,,,12,,,,76,92
222240,note_on,80,0,17,,,,,,,,11,,,,81,108
222240,note_on,80,0,16,,,,,,,,10,,,,45,92
222240,note_on,80,0,7,,,,,,,,4,,,,61,92
222240,note_on,80,0,12,,,,,,,,7,,,,61,92
222240,note_on,80,0,21,,,,,,,,15,,,,49,92
222240,note_on,80,0,20,,,,,,,,14,,,,61,92
222240,note_on,80,0,14,,,,,,,,7,,,,61,92
222240,note_on,80,0,1,,,,,,,,0,,,,81,92
222240,note_on,80,0,5,,,,,,,,3,,,,81,92
222240,note_on,80,0,15,,,,,,,,8,,,,49,92
222240,note_on,80,0,13,,,,,,,,7,,,,57,92
222600,note_off,840,0,19,,,,,,,,13,,,,69,64
223080,note_off,840,0,15,,,,,,,,8,,,,49,64
223080,note_off,840,0,4,,,,,,,,2,,,,76,64
223080,note_off,840,0,16,,,,,,,,10,,,,45,64
223080,note_off,840,0,17,,,,,,,,11,,,,81,64
223080,note_off,840,0,2,,,,,,,,1,,,,76,64
223080,note_off,840,0,3,,,,,,,,2,,,,81,64
223080,note_off,840,0,13,,,,,,,,7,,,,57,64
223080,note_off,840,0,7,,,,,,,,4,,,,61,64
223080,note_off,840,0,6,,,,,,,,3,,,,76,64
223080,note_off,840,0,12,,,,,,,,7,,,,61,64
223080,note_off,840,0,14,,,,,,,,7,,,,61,64
223080,note_off,840,0,18,,,,,,,,12,,,,76,64
223080,note_off,840,0,5,,,,,,,,3,,,,81,64
223080,note_off,840,0,1,,,,,,,,0,,,,81,64
223080,note_off,840,0,21,,,,,,,,15,,,,49,64
223080,note_off,840,0,20,,,,,,,,14,,,,61,64
223200,note_on,120,0,16,,,,,,,,10,,,,50,92
223200,note_on,120,0,21,,,,,,,,15,,,,45,92
223200,note_on,120,0,3,,,,,,,,2,,,,76,92
223200,note_on,120,0,1,,,,,,,,0,,,,76,92
223200,note_on,120,0,12,,,,,,,,7,,,,61,92
223200,note_on,120,0,17,,,,,,,,11,,,,76,108
223200,note_on,120,0,7,,,,,,,,4,,,,57,92
223200,note_on,120,0,5,,,,,,,,3,,,,76,92
223200,note_on,120,0,20,,,,,,,,14,,,,57,92
223200,note_on,120,0,4,,,,,,,,2,,,,73,92
223200,note_on,120,0,18,,,,,,,,12,,,,73,92
223200,note_on,120,0,6,,,,,,,,3,,,,73,92
223200,note_on,120,0,13,,,,,,,,7,,,,57,92
223200,note_on,120,0,2,,,,,,,,1,,,,73,92
223200,note_on,120,0,14,,,,,,,,7,,,,57,92
223200,note_on,120,0,15,,,,,,,,8,,,,45,92
223200,note_on,600,0,19,,,,,,,,13,,,,69,92
223600,note_off,400,0,16,,,,,,,,10,,,,50,64
223600,note_off,400,0,5,,,,,,,,3,,,,76,64
223600,note_off,400,0,1,,,,,,,,0,,,,76,64
223600,note_off,400,0,4,,,,,,,,2,,,,73,64
223600,note_off,400,0,18,,,,,,,,12,,,,73,64
223600,note_off,400,0,17,,,,,,,,11,,,,76,64
223600,note_off,400,0,20,,,,,,,,14,,,,57,64
223600,note_off,400,0,12,,,,,,,,7,,,,61,64
223600,note_off,400,0,2,,,,,,,,1,,,,73,64
223600,note_off,400,0,21,,,,,,,,15,,,,45,64
223600,note_off,400,0,19,,,,,,,,13,,,,69,64
223600,note_off,400,0,6,,,,,,,,3,,,,73,64
223600,note_off,400,0,15,,,,,,,,8,,,,45,64
223600,note_off,400,0,3,,,,,,,,2,,,,76,64
223600,note_off,400,0,14,,,,,,,,7,,,,57,64
223600,note_off,400,0,13,,,,,,,,7,,,,57,64
223600,note_off,400,0,7,,,,,,,,4,,,,57,64
223680,note_on,80,0,21,,,,,,,,15,,,,50,92
223680,note_on,80,0,16,,,,,,,,10,,,,50,92
223680,note_on,80,0,6,,,,,,,,3,,,,74,92
223680,note_on,80,0,20,,,,,,,,14,,,,62,92
223680,note_on,80,0,18,,,,,,,,12,,,,74,92
223680,note_on,80,0,5,,,,,,,,3,,,,78,92
223680,note_on,80,0,15,,,,,,,,8,,,,50,92
223680,note_on,80,0,4,,,,,,,,2,,,,74,92
223680,note_on,80,0,1,,,,,,,,0,,,,78,92
223680,note_on,80,0,19,,,,,,,,13,,,,69,92
223680,note_on,80,0,2,,,,,,,,1,,,,74,92
223680,note_on,80,0,12,,,,,,,,7,,,,62,92
223680,note_on,80,0,14,,,,,,,,7,,,,62,92
223680,note_on,80,0,3,,,,,,,,2,,,,78,92
223680,note_on,80,0,17,,,,,,,,11,,,,78,108
223680,note_on,80,0,7,,,,,,,,4,,,,62,92
223680,note_on,80,0,13,,,,,,,,7,,,,57,92
224080,note_off,400,0,19,,,,,,,,13,,,,69,64
224080,note_off,400,0,3,,,,,,,,2,,,,78,64
224080,note_off,400,0,5,,,,,,,,3,,,,78,64
224080,note_off,400,0,7,,,,,,,,4,,,,62,64
224080,note_off,400,0,1,,,,,,,,0,,,,78,64
224080,note_off,400,0,14,,,,,,,,7,,,,62,64
224080,note_off,400,0,4,,,,,,,,2,,,,74,64
224080,note_off,400,0,20,,,,,,,,14,,,,62,64
224080,note_off,400,0,18,,,,,,,,12,,,,74,64
224080,note_off,400,0,15,,,,,,,,8,,,,50,64
224080,note_off,400,0,6,,,,,,,,3,,,,74,64
224080,note_off,400,0,2,,,,,,,,1,,,,74,64
224080,note_off,400,0,21,,,,,,,,15,,,,50,64
224080,note_off,400,0,16,,,,,,,,10,,,,50,64
224080,note_off,400,0,12,,,,,,,,7,,,,62,64
224080,note_off,400,0,17,,,,,,,,11,,,,78,64
224080,note_off,400,0,13,,,,,,,,7,,,,57,64
224160,note_on,80,0,15,,,,,,,,8,,,,42,92
224160,note_on,80,0,3,,,,,,,,2,,,,76,92
224160,note_on,80,0,6,,,,,,,,3,,,,69,92
224160,note_on,80,0,1,,,,,,,,0,,,,76,92
224160,note_on,80,0,19,,,,,,,,13,,,,69,92
224160,note_on,80,0,17,,,,,,,,11,,,,76,108
224160,note_on,80,0,2,,,,,,,,1,,,,69,92
224160,note_on,80,0,21,,,,,,,,15,,,,42,92
224160,note_on,80,0,12,,,,,,,,7,,,,62,92
224160,note_on,80,0,4,,,,,,,,2,,,,69,92
224160,note_on,80,0,14,,,,,,,,7,,,,54,92
224160,note_on,80,0,13,,,,,,,,7,,,,57,92
224160,note_on,80,0,20,,,,,,,,14,,,,54,92
224160,note_on,80,0,7,,,,,,,,4,,,,54,92
224160,note_on,80,0,16,,,,,,,,10,,,,50,92
224160,note_on,80,0,18,,,,,,,,12,,,,69,92
224160,note_on,80,0,5,,,,,,,,3,,,,76,92
224400,note_on,0,0,17,,,,,,,,11,,,,74,108
224400,note_off,240,0,17,,,,,,,,11,,,,76,64
224400,note_off,240,0,1,,,,,,,,0,,,,76,64
224400,note_on,0,0,3,,,,,,,,2,,,,74,92
224400,note_on,0,0,1,,,,,,,,0,,,,74,92
224400,note_off,240,0,5,,,,,,,,3,,,,76,64
224400,note_off,240,0,3,,,,,,,,2,,,,76,64
224400,note_on,0,0,5,,,,,,,,3,,,,74,92
224560,note_off,400,0,15,,,,,,,,8,,,,42,64
224560,note_off,400,0,16,,,,,,,,10,,,,50,64
224560,note_off,400,0,21,,,,,,,,15,,,,42,64
224560,note_off,400,0,7,,,,,,,,4,,,,54,64
224560,note_off,400,0,18,,,,,,,,12,,,,69,64
224560,note_off,400,0,19,,,,,,,,13,,,,69,64
224560,note_off,400,0,20,,,,,,,,14,,,,54,64
224560,note_off,400,0,13,,,,,,,,7,,,,57,64
224560,note_off,400,0,12,,,,,,,,7,,,,62,64
224560,note_off,400,0,14,,,,,,,,7,,,,54,64
224635,note_off,235,0,17,,,,,,,,11,,,,74,64
224640,note_on,80,0,12,,,,,,,,7,,,,61,92
224640,note_on,0,0,2,,,,,,,,1,,,,73,92
224640,note_off,480,0,2,,,,,,,,1,,,,69,64
224640,note_on,80,0,16,,,,,,,,10,,,,45,92
224640,note_on,80,0,21,,,,,,,,15,,,,45,92
224640,note_off,240,0,3,,,,,,,,2,,,,74,64
224640,note_on,5,0,17,,,,,,,,11,,,,76,108
224640,note_on,80,0,14,,,,,,,,7,,,,57,92
224640,note_on,0,0,3,,,,,,,,2,,,,76,92
224640,note_on,0,0,4,,,,,,,,2,,,,73,92
224640,note_on,80,0,18,,,,,,,,12,,,,73,92
224640,note_on,80,0,15,,,,,,,,8,,,,45,92
224640,note_off,480,0,4,,,,,,,,2,,,,69,64
224640,note_off,240,0,5,,,,,,,,3,,,,74,64
224640,note_on,0,0,1,,,,,,,,0,,,,76,92
224640,note_off,240,0,1,,,,,,,,0,,,,74,64
224640,note_on,0,0,6,,,,,,,,3,,,,73,92
224640,note_off,480,0,6,,,,,,,,3,,,,69,64
224640,note_on,80,0,13,,,,,,,,7,,,,57,92
224640,note_on,80,0,19,,,,,,,,13,,,,69,92
224640,note_on,80,0,7,,,,,,,,4,,,,57,92
224640,note_on,0,0,5,,,,,,,,3,,,,76,92
224640,note_on,80,0,20,,,,,,,,14,,,,57,92
225040,note_off,400,0,3,,,,,,,,2,,,,76,64
225040,note_off,400,0,16,,,,,,,,10,,,,45,64
225040,note_off,400,0,1,,,,,,,,0,,,,76,64
225040,note_off,400,0,17,,,,,,,,11,,,,76,64
225040,note_off,400,0,5,,,,,,,,3,,,,76,64
225040,note_off,400,0,12,,,,,,,,7,,,,61,64
225040,note_off,400,0,13,,,,,,,,7,,,,57,64
225120,note_on,80,0,5,,,,,,,,3,,,,69,92
225120,note_on,80,0,16,,,,,,,,10,,,,45,92
225120,note_on,80,0,1,,,,,,,,0,,,,69,92
225120,note_on,80,0,13,,,,,,,,7,,,,57,92
225120,note_on,80,0,3,,,,,,,,2,,,,69,92
225120,note_on,80,0,17,,,,,,,,11,,,,69,108
225120,note_on,80,0,12,,,,,,,,7,,,,61,92
225480,note_off,840,0,20,,,,,,,,14,,,,57,64
225480,note_off,840,0,15,,,,,,,,8,,,,45,64
225480,note_off,840,0,14,,,,,,,,7,,,,57,64
225480,note_off,840,0,4,,,,,,,,2,,,,73,64
225480,note_off,840,0,21,,,,,,,,15,,,,45,64
225480,note_off,840,0,19,,,,,,,,13,,,,69,64
225480,note_off,840,0,18,,,,,,,,12,,,,73,64
225480,note_off,840,0,2,,,,,,,,1,,,,73,64
225480,note_off,840,0,6,,,,,,,,3,,,,73,64
225480,note_off,840,0,7,,,,,,,,4,,,,57,64
225960,note_off,840,0,16,,,,,,,,10,,,,45,64
225960,note_off,840,0,12,,,,,,,,7,,,,61,64
225960,note_off,840,0,13,,,,,,,,7,,,,57,64
226080,note_on,600,0,7,,,,,,,,4,,,,57,92
226080,note_on,600,0,2,,,,,,,,1,,,,81,92
226080,note_on,600,0,4,,,,,,,,2,,,,81,92
226080,note_on,600,0,18,,,,,,,,12,,,,81,92
226080,note_on,600,0,14,,,,,,,,7,,,,57,92
226080,note_on,600,0,15,,,,,,,,8,,,,45,92
226080,note_on,600,0,6,,,,,,,,3,,,,81,92
226080,note_on,600,0,19,,,,,,,,13,,,,73,92
226080,note_on,600,0,21,,,,,,,,15,,,,45,92
226080,note_on,600,0,20,,,,,,,,14,,,,57,92
226440,note_off,1320,0,17,,,,,,,,11,,,,69,64
226440,note_off,1320,0,3,,,,,,,,2,,,,69,64
226440,note_off,1320,0,5,,,,,,,,3,,,,69,64
226440,note_off,1320,0,1,,,,,,,,0,,,,69,64
226480,note_off,400,0,7,,,,,,,,4,,,,57,64
226480,note_off,400,0,18,,,,,,,,12,,,,81,64
226480,note_off,400,0,14,,,,,,,,7,,,,57,64
226480,note_off,400,0,21,,,,,,,,15,,,,45,64
226480,note_off,400,0,6,,,,,,,,3,,,,81,64
226480,note_off,400,0,4,,,,,,,,2,,,,81,64
226480,note_off,400,0,2,,,,,,,,1,,,,81,64
226480,note_off,400,0,20,,,,,,,,14,,,,57,64
226480,note_off,400,0,19,,,,,,,,13,,,,73,64
226480,note_off,400,0,15,,,,,,,,8,,,,45,64
226560,note_on,80,0,15,,,,,,,,8,,,,42,92
226560,note_on,80,0,14,,,,,,,,7,,,,54,92
226560,note_on,80,0,6,,,,,,,,3,,,,81,92
226560,note_on,80,0,18,,,,,,,,12,,,,81,92
226560,note_on,80,0,19,,,,,,,,13,,,,69,92
226560,note_on,80,0,7,,,,,,,,4,,,,54,92
226560,note_on,80,0,4,,,,,,,,2,,,,81,92
226560,note_on,80,0,2,,,,,,,,1,,,,81,92
226560,note_on,80,0,20,,,,,,,,14,,,,54,92
226560,note_on,80,0,21,,,,,,,,15,,,,42,92
226960,note_off,400,0,6,,,,,,,,3,,,,81,64
226960,note_off,400,0,18,,,,,,,,12,,,,81,64
226960,note_off,400,0,14,,,,,,,,7,,,,54,64
226960,note_off,400,0,4,,,,,,,,2,,,,81,64
226960,note_off,400,0,15,,,,,,,,8,,,,42,64
226960,note_off,400,0,21,,,,,,,,15,,,,42,64
226960,note_off,400,0,20,,,,,,,,14,,,,54,64
226960,note_off,400,0,2,,,,,,,,1,,,,81,64
226960,note_off,400,0,19,,,,,,,,13,,,,69,64
226960,note_off,400,0,7,,,,,,,,4,,,,54,64
227040,note_on,80,0,20,,,,,,,,14,,,,57,92
227040,note_on,80,0,6,,,,,,,,3,,,,81,92
227040,note_on,80,0,21,,,,,,,,15,,,,45,92
227040,note_on,80,0,4,,,,,,,,2,,,,81,92
227040,note_on,80,0,19,,,,,,,,13,,,,73,92
227040,note_on,80,0,15,,,,,,,,8,,,,45,92
227040,note_on,80,0,14,,,,,,,,7,,,,57,92
227040,note_on,80,0,2,,,,,,,,1,,,,81,92
227040,note_on,80,0,7,,,,,,,,4,,,,57,92
227040,note_on,80,0,18,,,,,,,,12,,,,81,92
227440,note_off,400,0,21,,,,,,,,15,,,,45,64
227440,note_off,400,0,2,,,,,,,,1,,,,81,64
227440,note_off,400,0,19,,,,,,,,13,,,,73,64
227440,note_off,400,0,7,,,,,,,,4,,,,57,64
227440,note_off,400,0,6,,,,,,,,3,,,,81,64
227440,note_off,400,0,4,,,,,,,,2,,,,81,64
227440,note_off,400,0,14,,,,,,,,7,,,,57,64
227440,note_off,400,0,20,,,,,,,,14,,,,57,64
227440,note_off,400,0,18,,,,,,,,12,,,,81,64
227440,note_off,400,0,15,,,,,,,,8,,,,45,64
227520,note_on,80,0,7,,,,,,,,4,,,,59,92
227520,note_on,80,0,6,,,,,,,,3,,,,81,92
227520,note_on,80,0,4,,,,,,,,2,,,,81,92
227520,note_on,80,0,15,,,,,,,,8,,,,47,92
227520,note_on,80,0,18,,,,,,,,12,,,,81,92
227520,note_on,80,0,20,,,,,,,,14,,,,59,92
227520,note_on,80,0,21,,,,,,,,15,,,,47,92
227520,note_on,80,0,14,,,,,,,,7,,,,59,92
227520,note_on,80,0,19,,,,,,,,13,,,,74,92
227520,note_on,80,0,2,,,,,,,,1,,,,81,92
227920,note_off,400,0,2,,,,,,,,1,,,,81,64
227920,note_off,400,0,18,,,,,,,,12,,,,81,64
227920,note_off,400,0,6,,,,,,,,3,,,,81,64
227920,note_off,400,0,4,,,,,,,,2,,,,81,64
228000,note_on,80,0,2,,,,,,,,1,,,,79,92
228000,note_on,80,0,18,,,,,,,,12,,,,79,92
228000,note_on,80,0,4,,,,,,,,2,,,,79,92
228000,note_on,80,0,6,,,,,,,,3,,,,79,92
228240,note_on,0,0,4,,,,,,,,2,,,,78,92
228240,note_off,240,0,2,,,,,,,,1,,,,79,64
228240,note_on,0,0,2,,,,,,,,1,,,,78,92
228240,note_on,0,0,6,,,,,,,,3,,,,78,92
228240,note_off,240,0,6,,,,,,,,3,,,,79,64
228240,note_off,240,0,4,,,,,,,,2,,,,79,64
228240,note_on,0,0,18,,,,,,,,12,,,,78,92
228240,note_off,240,0,18,,,,,,,,12,,,,79,64
228360,note_off,840,0,15,,,,,,,,8,,,,47,64
228360,note_off,840,0,19,,,,,,,,13,,,,74,64
228360,note_off,840,0,21,,,,,,,,15,,,,47,64
228360,note_off,840,0,20,,,,,,,,14,,,,59,64
228360,note_off,840,0,14,,,,,,,,7,,,,59,64
228360,note_off,840,0,7,,,,,,,,4,,,,59,64
228475,note_off,235,0,6,,,,,,,,3,,,,78,64
228475,note_off,235,0,2,,,,,,,,1,,,,78,64
228475,note_off,235,0,18,,,,,,,,12,,,,78,64
228475,note_off,235,0,4,,,,,,,,2,,,,78,64
228480,note_on,5,0,4,,,,,,,,2,,,,79,92
228480,note_on,5,0,6,,,,,,,,3,,,,79,92
228480,note_on,5,0,2,,,,,,,,1,,,,79,92
228480,note_on,5,0,18,,,,,,,,12,,,,79,92
228880,note_off,400,0,6,,,,,,,,3,,,,79,64
228880,note_off,400,0,2,,,,,,,,1,,,,79,64
228880,note_off,400,0,4,,,,,,,,2,,,,79,64
228880,note_off,400,0,18,,,,,,,,12,,,,79,64
228960,note_on,600,0,7,,,,,,,,4,,,,55,92
228960,note_on,80,0,2,,,,,,,,1,,,,79,92
228960,note_on,600,0,15,,,,,,,,8,,,,43,92
228960,note_on,600,0,21,,,,,,,,15,,,,43,92
228960,note_on,80,0,6,,,,,,,,3,,,,79,92
228960,note_on,600,0,20,,,,,,,,14,,,,55,92
228960,note_on,80,0,18,,,,,,,,12,,,,79,92
228960,note_on,600,0,19,,,,,,,,13,,,,71,92
228960,note_on,80,0,4,,,,,,,,2,,,,79,92
228960,note_on,600,0,14,,,,,,,,7,,,,55,92
229360,note_off,400,0,14,,,,,,,,7,,,,55,64
229360,note_off,400,0,7,,,,,,,,4,,,,55,64
229360,note_off,400,0,2,,,,,,,,1,,,,79,64
229360,note_off,400,0,4,,,,,,,,2,,,,79,64
229360,note_off,400,0,15,,,,,,,,8,,,,43,64
229360,note_off,400,0,21,,,,,,,,15,,,,43,64
229360,note_off,400,0,6,,,,,,,,3,,,,79,64
229360,note_off,400,0,19,,,,,,,,13,,,,71,64
229360,note_off,400,0,18,,,,,,,,12,,,,79,64
229360,note_off,400,0,20,,,,,,,,14,,,,55,64
229440,note_on,80,0,14,,,,,,,,7,,,,52,92
229440,note_on,80,0,4,,,,,,,,2,,,,79,92
229440,note_on,80,0,7,,,,,,,,4,,,,52,92
229440,note_on,80,0,2,,,,,,,,1,,,,79,92
229440,note_on,80,0,18,,,,,,,,12,,,,79,92
229440,note_on,80,0,19,,,,,,,,13,,,,67,92
229440,note_on,80,0,15,,,,,,,,8,,,,40,92
229440,note_on,80,0,20,,,,,,,,14,,,,52,92
229440,note_on,80,0,6,,,,,,,,3,,,,79,92
229440,note_on,80,0,21,,,,,,,,15,,,,40,92
229840,note_off,400,0,2,,,,,,,,1,,,,79,64
229840,note_off,400,0,7,,,,,,,,4,,,,52,64
229840,note_off,400,0,14,,,,,,,,7,,,,52,64
229840,note_off,400,0,19,,,,,,,,13,,,,67,64
229840,note_off,400,0,6,,,,,,,,3,,,,79,64
229840,note_off,400,0,20,,,,,,,,14,,,,52,64
229840,note_off,400,0,4,,,,,,,,2,,,,79,64
229840,note_off,400,0,15,,,,,,,,8,,,,40,64
229840,note_off,400,0,18,,,,,,,,12,,,,79,64
229840,note_off,400,0,21,,,,,,,,15,,,,40,64
229920,note_on,80,0,7,,,,,,,,4,,,,55,92
229920,note_on,80,0,2,,,,,,,,1,,,,79,92
229920,note_on,80,0,21,,,,,,,,15,,,,43,92
229920,note_on,80,0,15,,,,,,,,8,,,,43,92
229920,note_on,80,0,4,,,,,,,,2,,,,79,92
229920,note_on,80,0,20,,,,,,,,14,,,,55,92
229920,note_on,80,0,6,,,,,,,,3,,,,79,92
229920,note_on,80,0,18,,,,,,,,12,,,,79,92
229920,note_on,80,0,14,,,,,,,,7,,,,55,92
229920,note_on,80,0,19,,,,,,,,13,,,,64,92
230320,note_off,400,0,19,,,,,,,,13,,,,64,64
230320,note_off,400,0,20,,,,,,,,14,,,,55,64
230320,note_off,400,0,21,,,,,,,,15,,,,43,64
230320,note_off,400,0,18,,,,,,,,12,,,,79,64
230320,note_off,400,0,2,,,,,,,,1,,,,79,64
230320,note_off,400,0,7,,,,,,,,4,,,,55,64
230320,note_off,400,0,15,,,,,,,,8,,,,43,64
230320,note_off,400,0,14,,,,,,,,7,,,,55,64
230320,note_off,400,0,4,,,,,,,,2,,,,79,64
230320,note_off,400,0,6,,,,,,,,3,,,,79,64
230400,note_on,80,0,21,,,,,,,,15,,,,45,92
230400,note_on,80,0,15,,,,,,,,8,,,,45,92
230400,note_on,80,0,4,,,,,,,,2,,,,79,92
230400,note_on,80,0,20,,,,,,,,14,,,,57,92
230400,note_on,80,0,7,,,,,,,,4,,,,57,92
230400,note_on,80,0,18,,,,,,,,12,,,,79,92
230400,note_on,80,0,2,,,,,,,,1,,,,79,92
230400,note_on,80,0,19,,,,,,,,13,,,,61,92
230400,note_on,80,0,14,,,,,,,,7,,,,57,92
230400,note_on,80,0,6,,,,,,,,3,,,,79,92
230800,note_off,400,0,18,,,,,,,,12,,,,79,64
230800,note_off,400,0,4,,,,,,,,2,,,,79,64
230800,note_off,400,0,2,,,,,,,,1,,,,79,64
230800,note_off,400,0,6,,,,,,,,3,,,,79,64
230880,note_on,80,0,6,,,,,,,,3,,,,78,92
230880,note_on,80,0,2,,,,,,,,1,,,,78,92
230880,note_on,80,0,18,,,,,,,,12,,,,78,92
230880,note_on,80,0,4,,,,,,,,2,,,,78,92
231120,note_off,240,0,18,,,,,,,,12,,,,78,64
231120,note_on,0,0,18,,,,,,,,12,,,,76,92
231120,note_on,0,0,6,,,,,,,,3,,,,76,92
231120,note_off,240,0,6,,,,,,,,3,,,,78,64
231120,note_on,0,0,4,,,,,,,,2,,,,76,92
231120,note_off,240,0,2,,,,,,,,1,,,,78,64
231120,note_off,240,0,4,,,,,,,,2,,,,78,64
231120,note_on,0,0,2,,,,,,,,1,,,,76,92
231240,note_off,840,0,21,,,,,,,,15,,,,45,64
231240,note_off,840,0,20,,,,,,,,14,,,,57,64
231240,note_off,840,0,14,,,,,,,,7,,,,57,64
231240,note_off,840,0,19,,,,,,,,13,,,,61,64
231240,note_off,840,0,15,,,,,,,,8,,,,45,64
231240,note_off,840,0,7,,,,,,,,4,,,,57,64
231355,note_off,235,0,4,,,,,,,,2,,,,76,64
231355,note_off,235,0,2,,,,,,,,1,,,,76,64
231355,note_off,235,0,6,,,,,,,,3,,,,76,64
231355,note_off,235,0,18,,,,,,,,12,,,,76,64
231360,note_on,5,0,6,,,,,,,,3,,,,78,92
231360,note_on,5,0,2,,,,,,,,1,,,,78,92
231360,note_on,5,0,4,,,,,,,,2,,,,78,92
231360,note_on,120,0,19,,,,,,,,13,,,,57,92
231360,note_on,5,0,18,,,,,,,,12,,,,78,92
231595,note_off,235,0,6,,,,,,,,3,,,,78,64
231595,note_off,235,0,4,,,,,,,,2,,,,78,64
231595,note_off,235,0,2,,,,,,,,1,,,,78,64
231760,note_off,400,0,18,,,,,,,,12,,,,78,64
231840,note_on,600,0,14,,,,,,,,7,,,,54,92
231840,note_on,5400,0,1,,,,,,,,0,,,,81,92
231840,note_on,245,0,4,,,,,,,,2,,,,78,92
231840,note_on,245,0,2,,,,,,,,1,,,,78,92
231840,note_on,600,0,15,,,,,,,,8,,,,42,92
231840,note_on,5880,0,13,,,,,,,,7,,,,57,92
231840,note_on,600,0,7,,,,,,,,4,,,,54,92
231840,note_on,5880,0,16,,,,,,,,10,,,,50,92
231840,note_on,600,0,20,,,,,,,,14,,,,54,92
231840,note_on,5400,0,5,,,,,,,,3,,,,81,92
231840,note_on,600,0,21,,,,,,,,15,,,,42,92
231840,note_on,5880,0,12,,,,,,,,7,,,,62,92
231840,note_on,245,0,6,,,,,,,,3,,,,78,92
231840,note_on,80,0,18,,,,,,,,12,,,,78,92
231840,note_on,5400,0,17,,,,,,,,11,,,,81,108
231840,note_on,5400,0,3,,,,,,,,2,,,,81,92
232200,note_off,840,0,19,,,,,,,,13,,,,57,64
232240,note_off,400,0,1,,,,,,,,0,,,,81,64
232240,note_off,400,0,3,,,,,,,,2,,,,81,64
232240,note_off,400,0,12,,,,,,,,7,,,,62,64
232240,note_off,400,0,7,,,,,,,,4,,,,54,64
232240,note_off,400,0,2,,,,,,,,1,,,,78,64
232240,note_off,400,0,21,,,,,,,,15,,,,42,64
232240,note_off,400,0,13,,,,,,,,7,,,,57,64
232240,note_off,400,0,17,,,,,,,,11,,,,81,64
232240,note_off,400,0,15,,,,,,,,8,,,,42,64
232240,note_off,400,0,20,,,,,,,,14,,,,54,64
232240,note_off,400,0,5,,,,,,,,3,,,,81,64
232240,note_off,400,0,6,,,,,,,,3,,,,78,64
232240,note_off,400,0,14,,,,,,,,7,,,,54,64
232240,note_off,400,0,18,,,,,,,,12,,,,78,64
232240,note_off,400,0,16,,,,,,,,10,,,,50,64
232240,note_off,400,0,4,,,,,,,,2,,,,78,64
232320,note_on,80,0,12,,,,,,,,7,,,,62,92
232320,note_on,80,0,17,,,,,,,,11,,,,81,108
232320,note_on,80,0,1,,,,,,,,0,,,,81,92
232320,note_on,80,0,18,,,,,,,,12,,,,78,92
232320,note_on,80,0,3,,,,,,,,2,,,,81,92
232320,note_on,80,0,2,,,,,,,,1,,,,78,92
232320,note_on,80,0,21,,,,,,,,15,,,,38,92
232320,note_on,80,0,20,,,,,,,,14,,,,50,92
232320,note_on,80,0,16,,,,,,,,10,,,,50,92
232320,note_on,80,0,5,,,,,,,,3,,,,81,92
232320,note_on,80,0,4,,,,,,,,2,,,,78,92
232320,note_on,120,0,19,,,,,,,,13,,,,69,92
232320,note_on,80,0,14,,,,,,,,7,,,,50,92
232320,note_on,80,0,7,,,,,,,,4,,,,50,92
232320,note_on,80,0,15,,,,,,,,8,,,,38,92
232320,note_on,80,0,13,,,,,,,,7,,,,57,92
232320,note_on,80,0,6,,,,,,,,3,,,,78,92
232720,note_off,400,0,20,,,,,,,,14,,,,50,64
232720,note_off,400,0,17,,,,,,,,11,,,,81,64
232720,note_off,400,0,18,,,,,,,,12,,,,78,64
232720,note_off,400,0,13,,,,,,,,7,,,,57,64
232720,note_off,400,0,1,,,,,,,,0,,,,81,64
232720,note_off,400,0,3,,,,,,,,2,,,,81,64
232720,note_off,400,0,12,,,,,,,,7,,,,62,64
232720,note_off,400,0,2,,,,,,,,1,,,,78,64
232720,note_off,400,0,14,,,,,,,,7,,,,50,64
232720,note_off,400,0,7,,,,,,,,4,,,,50,64
232720,note_off,400,0,4,,,,,,,,2,,,,78,64
232720,note_off,400,0,21,,,,,,,,15,,,,38,64
232720,note_off,400,0,6,,,,,,,,3,,,,78,64
232720,note_off,400,0,16,,,,,,,,10,,,,50,64
232720,note_off,400,0,15,,,,,,,,8,,,,38,64
232720,note_off,400,0,5,,,,,,,,3,,,,81,64
232800,note_on,80,0,21,,,,,,,,15,,,,42,92
232800,note_on,80,0,20,,,,,,,,14,,,,54,92
232800,note_on,80,0,17,,,,,,,,11,,,,81,108
232800,note_on,80,0,4,,,,,,,,2,,,,78,92
232800,note_on,80,0,13,,,,,,,,7,,,,57,92
232800,note_on,80,0,18,,,,,,,,12,,,,78,92
232800,note_on,80,0,5,,,,,,,,3,,,,81,92
232800,note_on,80,0,1,,,,,,,,0,,,,81,92
232800,note_on,80,0,14,,,,,,,,7,,,,54,92
232800,note_on,80,0,15,,,,,,,,8,,,,42,92
232800,note_on,80,0,3,,,,,,,,2,,,,81,92
232800,note_on,80,0,12,,,,,,,,7,,,,62,92
232800,note_on,80,0,7,,,,,,,,4,,,,54,92
232800,note_on,80,0,2,,,,,,,,1,,,,78,92
232800,note_on,80,0,6,,,,,,,,3,,,,78,92
232800,note_on,80,0,16,,,,,,,,10,,,,50,92
233160,note_off,840,0,19,,,,,,,,13,,,,69,64
233200,note_off,400,0,5,,,,,,,,3,,,,81,64
233200,note_off,400,0,18,,,,,,,,12,,,,78,64
233200,note_off,400,0,21,,,,,,,,15,,,,42,64
233200,note_off,400,0,7,,,,,,,,4,,,,54,64
233200,note_off,400,0,1,,,,,,,,0,,,,81,64
233200,note_off,400,0,6,,,,,,,,3,,,,78,64
233200,note_off,400,0,3,,,,,,,,2,,,,81,64
233200,note_off,400,0,15,,,,,,,,8,,,,42,64
233200,note_off,400,0,17,,,,,,,,11,,,,81,64
233200,note_off,400,0,20,,,,,,,,14,,,,54,64
233200,note_off,400,0,4,,,,,,,,2,,,,78,64
233200,note_off,400,0,12,,,,,,,,7,,,,62,64
233200,note_off,400,0,2,,,,,,,,1,,,,78,64
233200,note_off,400,0,14,,,,,,,,7,,,,54,64
233200,note_off,400,0,13,,,,,,,,7,,,,57,64
233200,note_off,400,0,16,,,,,,,,10,,,,50,64
233280,note_on,80,0,12,,,,,,,,7,,,,62,92
233280,note_on,80,0,2,,,,,,,,1,,,,78,92
233280,note_on,80,0,1,,,,,,,,0,,,,81,92
233280,note_on,80,0,7,,,,,,,,4,,,,55,92
233280,note_on,80,0,3,,,,,,,,2,,,,81,92
233280,note_on,80,0,5,,,,,,,,3,,,,81,92
233280,note_on,80,0,16,,,,,,,,10,,,,50,92
233280,note_on,80,0,4,,,,,,,,2,,,,78,92
233280,note_on,80,0,17,,,,,,,,11,,,,81,108
233280,note_on,80,0,21,,,,,,,,15,,,,43,92
233280,note_on,80,0,15,,,,,,,,8,,,,43,92
233280,note_on,80,0,14,,,,,,,,7,,,,55,92
233280,note_on,120,0,19,,,,,,,,13,,,,71,92
233280,note_on,80,0,18,,,,,,,,12,,,,78,92
233280,note_on,80,0,6,,,,,,,,3,,,,78,92
233280,note_on,80,0,13,,,,,,,,7,,,,59,92
233280,note_on,80,0,20,,,,,,,,14,,,,55,92
233680,note_off,400,0,17,,,,,,,,11,,,,81,64
233680,note_off,400,0,1,,,,,,,,0,,,,81,64
233680,note_off,400,0,18,,,,,,,,12,,,,78,64
233680,note_off,400,0,4,,,,,,,,2,,,,78,64
233680,note_off,400,0,3,,,,,,,,2,,,,81,64
233680,note_off,400,0,5,,,,,,,,3,,,,81,64
233680,note_off,400,0,2,,,,,,,,1,,,,78,64
233680,note_off,400,0,6,,,,,,,,3,,,,78,64
233760,note_on,80,0,3,,,,,,,,2,,,,79,92
233760,note_on,80,0,4,,,,,,,,2,,,,76,92
233760,note_on,80,0,2,,,,,,,,1,,,,76,92
233760,note_on,80,0,17,,,,,,,,11,,,,79,108
233760,note_on,80,0,18,,,,,,,,12,,,,76,92
233760,note_on,80,0,1,,,,,,,,0,,,,79,92
233760,note_on,80,0,6,,,,,,,,3,,,,76,92
233760,note_on,80,0,5,,,,,,,,3,,,,79,92
234000,note_on,0,0,18,,,,,,,,12,,,,74,92
234000,note_on,0,0,6,,,,,,,,3,,,,74,92
234000,note_on,0,0,5,,,,,,,,3,,,,78,92
234000,note_off,240,0,2,,,,,,,,1,,,,76,64
234000,note_off,240,0,18,,,,,,,,12,,,,76,64
234000,note_off,240,0,5,,,,,,,,3,,,,79,64
234000,note_on,0,0,2,,,,,,,,1,,,,74,92
234000,note_on,0,0,4,,,,,,,,2,,,,74,92
234000,note_off,240,0,4,,,,,,,,2,,,,76,64
234000,note_off,240,0,17,,,,,,,,11,,,,79,64
234000,note_on,0,0,3,,,,,,,,2,,,,78,92
234000,note_off,240,0,3,,,,,,,,2,,,,79,64
234000,note_on,0,0,17,,,,,,,,11,,,,78,108
234000,note_off,240,0,6,,,,,,,,3,,,,76,64
234000,note_on,0,0,1,,,,,,,,0,,,,78,92
234000,note_off,240,0,1,,,,,,,,0,,,,79,64
234120,note_off,840,0,13,,,,,,,,7,,,,59,64
234120,note_off,840,0,14,,,,,,,,7,,,,55,64
234120,note_off,840,0,7,,,,,,,,4,,,,55,64
234120,note_off,840,0,15,,,,,,,,8,,,,43,64
234120,note_off,840,0,16,,,,,,,,10,,,,50,64
234120,note_off,840,0,19,,,,,,,,13,,,,71,64
234120,note_off,840,0,12,,,,,,,,7,,,,62,64
234120,note_off,840,0,21,,,,,,,,15,,,,43,64
234120,note_off,840,0,20,,,,,,,,14,,,,55,64
234235,note_off,235,0,5,,,,,,,,3,,,,78,64
234235,note_off,235,0,3,,,,,,,,2,,,,78,64
234235,note_off,235,0,4,,,,,,,,2,,,,74,64
234235,note_off,235,0,6,,,,,,,,3,,,,74,64
234235,note_off,235,0,2,,,,,,,,1,,,,74,64
234235,note_off,235,0,1,,,,,,,,0,,,,78,64
234235,note_off,235,0,17,,,,,,,,11,,,,78,64
234235,note_off,235,0,18,,,,,,,,12,,,,74,64
234240,note_on,5,0,2,,,,,,,,1,,,,76,92
234240,note_on,5,0,1,,,,,,,,0,,,,79,92
234240,note_on,5,0,17,,,,,,,,11,,,,79,108
234240,note_on,5,0,4,,,,,,,,2,,,,76,92
234240,note_on,5,0,3,,,,,,,,2,,,,79,92
234240,note_on,5,0,18,,,,,,,,12,,,,76,92
234240,note_on,5,0,5,,,,,,,,3,,,,79,92
234240,note_on,5,0,6,,,,,,,,3,,,,76,92
234640,note_off,400,0,5,,,,,,,,3,,,,79,64
234640,note_off,400,0,18,,,,,,,,12,,,,76,64
234640,note_off,400,0,17,,,,,,,,11,,,,79,64
234640,note_off,400,0,6,,,,,,,,3,,,,76,64
234640,note_off,400,0,1,,,,,,,,0,,,,79,64
234640,note_off,400,0,4,,,,,,,,2,,,,76,64
234640,note_off,400,0,2,,,,,,,,1,,,,76,64
234640,note_off,400,0,3,,,,,,,,2,,,,79,64
234720,note_on,600,0,12,,,,,,,,7,,,,64,92
234720,note_on,600,0,13,,,,,,,,7,,,,59,92
234720,note_on,600,0,19,,,,,,,,13,,,,71,92
234720,note_on,80,0,4,,,,,,,,2,,,,76,92
234720,note_on,600,0,15,,,,,,,,8,,,,40,92
234720,note_on,600,0,14,,,,,,,,7,,,,52,92
234720,note_on,80,0,17,,,,,,,,11,,,,79,108
234720,note_on,600,0,16,,,,,,,,10,,,,50,92
234720,note_on,80,0,5,,,,,,,,3,,,,79,92
234720,note_on,80,0,3,,,,,,,,2,,,,79,92
234720,note_on,80,0,18,,,,,,,,12,,,,76,92
234720,note_on,80,0,2,,,,,,,,1,,,,76,92
234720,note_on,600,0,20,,,,,,,,14,,,,52,92
234720,note_on,600,0,21,,,,,,,,15,,,,40,92
234720,note_on,80,0,6,,,,,,,,3,,,,76,92
234720,note_on,600,0,7,,,,,,,,4,,,,52,92
234720,note_on,80,0,1,,,,,,,,0,,,,79,92
235120,note_off,400,0,2,,,,,,,,1,,,,76,64
235120,note_off,400,0,13,,,,,,,,7,,,,59,64
235120,note_off,400,0,21,,,,,,,,15,,,,40,64
235120,note_off,400,0,19,,,,,,,,13,,,,71,64
235120,note_off,400,0,7,,,,,,,,4,,,,52,64
235120,note_off,400,0,4,,,,,,,,2,,,,76,64
235120,note_off,400,0,15,,,,,,,,8,,,,40,64
235120,note_off,400,0,14,,,,,,,,7,,,,52,64
235120,note_off,400,0,17,,,,,,,,11,,,,79,64
235120,note_off,400,0,16,,,,,,,,10,,,,50,64
235120,note_off,400,0,12,,,,,,,,7,,,,64,64
235120,note_off,400,0,20,,,,,,,,14,,,,52,64
235120,note_off,400,0,6,,,,,,,,3,,,,76,64
235120,note_off,400,0,5,,,,,,,,3,,,,79,64
235120,note_off,400,0,3,,,,,,,,2,,,,79,64
235120,note_off,400,0,18,,,,,,,,12,,,,76,64
235120,note_off,400,0,1,,,,,,,,0,,,,79,64
235200,note_on,80,0,1,,,,,,,,0,,,,79,92
235200,note_on,80,0,16,,,,,,,,10,,,,50,92
235200,note_on,80,0,7,,,,,,,,4,,,,55,92
235200,note_on,80,0,18,,,,,,,,12,,,,76,92
235200,note_on,80,0,6,,,,,,,,3,,,,76,92
235200,note_on,80,0,4,,,,,,,,2,,,,76,92
235200,note_on,80,0,13,,,,,,,,7,,,,59,92
235200,note_on,80,0,19,,,,,,,,13,,,,71,92
235200,note_on,80,0,5,,,,,,,,3,,,,79,92
235200,note_on,80,0,3,,,,,,,,2,,,,79,92
235200,note_on,80,0,21,,,,,,,,15,,,,43,92
235200,note_on,80,0,12,,,,,,,,7,,,,64,92
235200,note_on,80,0,17,,,,,,,,11,,,,79,108
235200,note_on,80,0,2,,,,,,,,1,,,,76,92
235200,note_on,80,0,14,,,,,,,,7,,,,55,92
235200,note_on,80,0,20,,,,,,,,14,,,,55,92
235200,note_on,80,0,15,,,,,,,,8,,,,43,92
235600,note_off,400,0,21,,,,,,,,15,,,,43,64
235600,note_off,400,0,12,,,,,,,,7,,,,64,64
235600,note_off,400,0,18,,,,,,,,12,,,,76,64
235600,note_off,400,0,3,,,,,,,,2,,,,79,64
235600,note_off,400,0,13,,,,,,,,7,,,,59,64
235600,note_off,400,0,4,,,,,,,,2,,,,76,64
235600,note_off,400,0,7,,,,,,,,4,,,,55,64
235600,note_off,400,0,6,,,,,,,,3,,,,76,64
235600,note_off,400,0,1,,,,,,,,0,,,,79,64
235600,note_off,400,0,5,,,,,,,,3,,,,79,64
235600,note_off,400,0,19,,,,,,,,13,,,,71,64
235600,note_off,400,0,2,,,,,,,,1,,,,76,64
235600,note_off,400,0,20,,,,,,,,14,,,,55,64
235600,note_off,400,0,16,,,,,,,,10,,,,50,64
235600,note_off,400,0,14,,,,,,,,7,,,,55,64
235600,note_off,400,0,15,,,,,,,,8,,,,43,64
235600,note_off,400,0,17,,,,,,,,11,,,,79,64
235680,note_on,80,0,17,,,,,,,,11,,,,79,108
235680,note_on,80,0,5,,,,,,,,3,,,,79,92
235680,note_on,80,0,1,,,,,,,,0,,,,79,92
235680,note_on,80,0,15,,,,,,,,8,,,,40,92
235680,note_on,80,0,21,,,,,,,,15,,,,40,92
235680,note_on,80,0,6,,,,,,,,3,,,,76,92
235680,note_on,80,0,20,,,,,,,,14,,,,52,92
235680,note_on,80,0,14,,,,,,,,7,,,,52,92
235680,note_on,80,0,18,,,,,,,,12,,,,76,92
235680,note_on,80,0,2,,,,,,,,1,,,,76,92
235680,note_on,80,0,19,,,,,,,,13,,,,71,92
235680,note_on,80,0,12,,,,,,,,7,,,,64,92
235680,note_on,80,0,7,,,,,,,,4,,,,52,92
235680,note_on,80,0,13,,,,,,,,7,,,,59,92
235680,note_on,80,0,3,,,,,,,,2,,,,79,92
235680,note_on,80,0,16,,,,,,,,10,,,,50,92
235680,note_on,80,0,4,,,,,,,,2,,,,76,92
236080,note_off,400,0,18,,,,,,,,12,,,,76,64
236080,note_off,400,0,5,,,,,,,,3,,,,79,64
236080,note_off,400,0,15,,,,,,,,8,,,,40,64
236080,note_off,400,0,6,,,,,,,,3,,,,76,64
236080,note_off,400,0,20,,,,,,,,14,,,,52,64
236080,note_off,400,0,14,,,,,,,,7,,,,52,64
236080,note_off,400,0,21,,,,,,,,15,,,,40,64
236080,note_off,400,0,3,,,,,,,,2,,,,79,64
236080,note_off,400,0,7,,,,,,,,4,,,,52,64
236080,note_off,400,0,1,,,,,,,,0,,,,79,64
236080,note_off,400,0,12,,,,,,,,7,,,,64,64
236080,note_off,400,0,17,,,,,,,,11,,,,79,64
236080,note_off,400,0,13,,,,,,,,7,,,,59,64
236080,note_off,400,0,16,,,,,,,,10,,,,50,64
236080,note_off,400,0,2,,,,,,,,1,,,,76,64
236080,note_off,400,0,19,,,,,,,,13,,,,71,64
236080,note_off,400,0,4,,,,,,,,2,,,,76,64
236160,note_on,80,0,19,,,,,,,,13,,,,69,92
236160,note_on,80,0,15,,,,,,,,8,,,,45,92
236160,note_on,80,0,2,,,,,,,,1,,,,73,92
236160,note_on,80,0,16,,,,,,,,10,,,,45,92
236160,note_on,80,0,18,,,,,,,,12,,,,73,92
236160,note_on,80,0,12,,,,,,,,7,,,,61,92
236160,note_on,80,0,1,,,,,,,,0,,,,79,92
236160,note_on,80,0,3,,,,,,,,2,,,,79,92
236160,note_on,80,0,14,,,,,,,,7,,,,57,92
236160,note_on,80,0,4,,,,,,,,2,,,,73,92
236160,note_on,80,0,21,,,,,,,,15,,,,45,92
236160,note_on,80,0,20,,,,,,,,14,,,,57,92
236160,note_on,80,0,17,,,,,,,,11,,,,79,108
236160,note_on,80,0,13,,,,,,,,7,,,,57,92
236160,note_on,80,0,6,,,,,,,,3,,,,73,92
236160,note_on,80,0,5,,,,,,,,3,,,,79,92
236160,note_on,80,0,7,,,,,,,,4,,,,57,92
237000,note_off,840,0,16,,,,,,,,10,,,,45,64
237480,note_off,1320,0,13,,,,,,,,7,,,,57,64
237480,note_off,1320,0,14,,,,,,,,7,,,,57,64
237480,note_off,1320,0,21,,,,,,,,15,,,,45,64
237480,note_off,1320,0,12,,,,,,,,7,,,,61,64
237480,note_off,1320,0,15,,,,,,,,8,,,,45,64
237480,note_off,1320,0,7,,,,,,,,4,,,,57,64
237600,note_off,1440,0,20,,,,,,,,14,,,,57,64
237600,note_off,1440,0,2,,,,,,,,1,,,,73,64
237600,note_on,0,0,2,,,,,,,,1,,,,73,92
237600,note_on,600,0,16,,,,,,,,10,,,,45,92
237600,note_on,0,0,6,,,,,,,,3,,,,73,92
237600,note_on,0,0,5,,,,,,,,3,,,,81,92
237600,note_on,120,0,13,,,,,,,,7,,,,57,92
237600,note_on,0,0,17,,,,,,,,11,,,,81,108
237600,note_on,0,0,4,,,,,,,,2,,,,73,92
237600,note_off,1440,0,19,,,,,,,,13,,,,69,64
237600,note_on,0,0,3,,,,,,,,2,,,,81,92
237600,note_on,0,0,19,,,,,,,,13,,,,69,92
237600,note_on,0,0,20,,,,,,,,14,,,,57,92
237600,note_off,1440,0,4,,,,,,,,2,,,,73,64
237600,note_off,1440,0,3,,,,,,,,2,,,,79,64
237600,note_on,0,0,18,,,,,,,,12,,,,73,92
237600,note_on,120,0,12,,,,,,,,7,,,,61,92
237600,note_off,1440,0,6,,,,,,,,3,,,,73,64
237600,note_on,120,0,15,,,,,,,,8,,,,45,92
237600,note_on,120,0,21,,,,,,,,15,,,,45,92
237600,note_off,1440,0,5,,,,,,,,3,,,,79,64
237600,note_on,120,0,7,,,,,,,,4,,,,57,92
237600,note_off,1440,0,18,,,,,,,,12,,,,73,64
237600,note_off,1440,0,17,,,,,,,,11,,,,79,64
237600,note_on,120,0,14,,,,,,,,7,,,,57,92
237600,note_off,1440,0,1,,,,,,,,0,,,,79,64
237600,note_on,0,0,1,,,,,,,,0,,,,81,92
238000,note_off,400,0,21,,,,,,,,15,,,,45,64
238000,note_off,400,0,19,,,,,,,,13,,,,69,64
238000,note_off,400,0,12,,,,,,,,7,,,,61,64
238000,note_off,400,0,20,,,,,,,,14,,,,57,64
238000,note_off,400,0,15,,,,,,,,8,,,,45,64
238000,note_off,400,0,16,,,,,,,,10,,,,45,64
238000,note_off,400,0,14,,,,,,,,7,,,,57,64
238000,note_off,400,0,17,,,,,,,,11,,,,81,64
238000,note_off,400,0,13,,,,,,,,7,,,,57,64
238000,note_off,400,0,18,,,,,,,,12,,,,73,64
238000,note_off,400,0,7,,,,,,,,4,,,,57,64
238080,note_off,480,0,2,,,,,,,,1,,,,73,64
238080,note_off,480,0,1,,,,,,,,0,,,,81,64
238080,note_on,80,0,18,,,,,,,,12,,,,74,92
238080,note_on,80,0,17,,,,,,,,11,,,,78,108
238080,note_off,480,0,5,,,,,,,,3,,,,81,64
238080,note_on,80,0,19,,,,,,,,13,,,,69,92
238080,note_on,0,0,1,,,,,,,,0,,,,78,92
238080,note_on,80,0,21,,,,,,,,15,,,,50,92
238080,note_on,80,0,20,,,,,,,,14,,,,62,92
238080,note_on,80,0,15,,,,,,,,8,,,,50,92
238080,note_on,80,0,13,,,,,,,,7,,,,57,92
238080,note_on,0,0,3,,,,,,,,2,,,,78,92
238080,note_off,480,0,3,,,,,,,,2,,,,81,64
238080,note_on,80,0,7,,,,,,,,4,,,,62,92
238080,note_on,0,0,4,,,,,,,,2,,,,74,92
238080,note_off,480,0,4,,,,,,,,2,,,,73,64
238080,note_off,480,0,6,,,,,,,,3,,,,73,64
238080,note_on,80,0,12,,,,,,,,7,,,,62,92
238080,note_on,80,0,14,,,,,,,,7,,,,62,92
238080,note_on,0,0,6,,,,,,,,3,,,,74,92
238080,note_on,0,0,5,,,,,,,,3,,,,78,92
238080,note_on,80,0,16,,,,,,,,10,,,,50,92
238080,note_on,0,0,2,,,,,,,,1,,,,74,92
238560,note_off,480,0,1,,,,,,,,0,,,,78,64
238560,note_off,480,0,3,,,,,,,,2,,,,78,64
238560,note_on,0,0,5,,,,,,,,3,,,,76,92
238560,note_on,0,0,1,,,,,,,,0,,,,76,92
238560,note_off,480,0,5,,,,,,,,3,,,,78,64
238560,note_on,0,0,3,,,,,,,,2,,,,76,92
238560,note_off,480,0,17,,,,,,,,11,,,,78,64
238560,note_on,0,0,17,,,,,,,,11,,,,76,108
238920,note_off,840,0,16,,,,,,,,10,,,,50,64
238960,note_off,400,0,17,,,,,,,,11,,,,76,64
239040,note_on,80,0,17,,,,,,,,11,,,,78,108
239040,note_on,0,0,3,,,,,,,,2,,,,78,92
239040,note_on,0,0,1,,,,,,,,0,,,,78,92
239040,note_off,480,0,5,,,,,,,,3,,,,76,64
239040,note_off,960,0,12,,,,,,,,7,,,,62,64
239040,note_on,0,0,5,,,,,,,,3,,,,78,92
239040,note_on,0,0,12,,,,,,,,7,,,,62,92
239040,note_off,480,0,3,,,,,,,,2,,,,76,64
239040,note_off,480,0,1,,,,,,,,0,,,,76,64
239440,note_off,1360,0,7,,,,,,,,4,,,,62,64
239440,note_off,1360,0,15,,,,,,,,8,,,,50,64
239440,note_off,1360,0,20,,,,,,,,14,,,,62,64
239440,note_off,1360,0,4,,,,,,,,2,,,,74,64
239440,note_off,1360,0,13,,,,,,,,7,,,,57,64
239440,note_off,1360,0,19,,,,,,,,13,,,,69,64
239440,note_off,1360,0,14,,,,,,,,7,,,,62,64
239440,note_off,1360,0,21,,,,,,,,15,,,,50,64
239440,note_off,1360,0,2,,,,,,,,1,,,,74,64
239440,note_off,400,0,12,,,,,,,,7,,,,62,64
239440,note_off,1360,0,18,,,,,,,,12,,,,74,64
239440,note_off,1360,0,6,,,,,,,,3,,,,74,64
239520,note_on,80,0,20,,,,,,,,14,,,,55,92
239520,note_on,80,0,2,,,,,,,,1,,,,74,92
239520,note_on,80,0,15,,,,,,,,8,,,,43,92
239520,note_on,0,0,5,,,,,,,,3,,,,79,92
239520,note_off,480,0,5,,,,,,,,3,,,,78,64
239520,note_on,80,0,14,,,,,,,,7,,,,55,92
239520,note_on,0,0,17,,,,,,,,11,,,,79,108
239520,note_on,80,0,6,,,,,,,,3,,,,67,92
239520,note_on,80,0,18,,,,,,,,12,,,,71,92
239520,note_off,480,0,3,,,,,,,,2,,,,78,64
239520,note_on,80,0,4,,,,,,,,2,,,,74,92
239520,note_on,80,0,12,,,,,,,,7,,,,64,92
239520,note_off,480,0,1,,,,,,,,0,,,,78,64
239520,note_on,0,0,1,,,,,,,,0,,,,79,92
239520,note_on,80,0,19,,,,,,,,13,,,,74,92
239520,note_on,600,0,16,,,,,,,,10,,,,50,92
239520,note_off,480,0,17,,,,,,,,11,,,,78,64
239520,note_on,80,0,7,,,,,,,,4,,,,55,92
239520,note_on,80,0,21,,,,,,,,15,,,,43,92
239520,note_on,80,0,13,,,,,,,,7,,,,59,92
239520,note_on,0,0,3,,,,,,,,2,,,,79,92
239920,note_off,400,0,6,,,,,,,,3,,,,67,64
239920,note_off,400,0,20,,,,,,,,14,,,,55,64
239920,note_off,400,0,3,,,,,,,,2,,,,79,64
239920,note_off,400,0,7,,,,,,,,4,,,,55,64
239920,note_off,400,0,2,,,,,,,,1,,,,74,64
239920,note_off,400,0,1,,,,,,,,0,,,,79,64
239920,note_off,400,0,17,,,,,,,,11,,,,79,64
239920,note_off,400,0,13,,,,,,,,7,,,,59,64
239920,note_off,400,0,12,,,,,,,,7,,,,64,64
239920,note_off,400,0,14,,,,,,,,7,,,,55,64
239920,note_off,400,0,15,,,,,,,,8,,,,43,64
239920,note_off,400,0,18,,,,,,,,12,,,,71,64
239920,note_off,400,0,16,,,,,,,,10,,,,50,64
239920,note_off,400,0,4,,,,,,,,2,,,,74,64
239920,note_off,400,0,5,,,,,,,,3,,,,79,64
239920,note_off,400,0,19,,,,,,,,13,,,,74,64
239920,note_off,400,0,21,,,,,,,,15,,,,43,64
240000,note_on,80,0,3,,,,,,,,2,,,,76,92
240000,note_on,80,0,16,,,,,,,,10,,,,45,92
240000,note_on,80,0,5,,,,,,,,3,,,,76,92
240000,note_on,80,0,15,,,,,,,,8,,,,45,92
240000,note_on,80,0,17,,,,,,,,11,,,,76,108
240000,note_on,80,0,6,,,,,,,,3,,,,69,92
240000,note_on,80,0,13,,,,,,,,7,,,,57,92
240000,note_on,80,0,7,,,,,,,,4,,,,57,92
240000,note_on,80,0,1,,,,,,,,0,,,,76,92
240000,note_on,80,0,14,,,,,,,,7,,,,57,92
240000,note_on,80,0,4,,,,,,,,2,,,,74,92
240000,note_on,80,0,12,,,,,,,,7,,,,64,92
240000,note_on,80,0,20,,,,,,,,14,,,,57,92
240000,note_on,80,0,18,,,,,,,,12,,,,64,92
240000,note_on,80,0,21,,,,,,,,15,,,,45,92
240000,note_on,80,0,19,,,,,,,,13,,,,74,92
240000,note_on,80,0,2,,,,,,,,1,,,,74,92
240120,note_on,0,0,17,,,,,,,,11,,,,78,108
240120,note_on,0,0,1,,,,,,,,0,,,,78,92
240120,note_on,0,0,5,,,,,,,,3,,,,78,92
240120,note_off,120,0,5,,,,,,,,3,,,,76,64
240120,note_off,120,0,3,,,,,,,,2,,,,76,64
240120,note_on,0,0,3,,,,,,,,2,,,,78,92
240120,note_off,120,0,17,,,,,,,,11,,,,76,64
240120,note_off,120,0,1,,,,,,,,0,,,,76,64
240240,note_off,120,0,17,,,,,,,,11,,,,78,64
240240,note_on,0,0,17,,,,,,,,11,,,,76,108
240240,note_on,0,0,5,,,,,,,,3,,,,76,92
240240,note_on,0,0,3,,,,,,,,2,,,,76,92
240240,note_off,120,0,3,,,,,,,,2,,,,78,64
240240,note_off,120,0,5,,,,,,,,3,,,,78,64
240240,note_off,120,0,1,,,,,,,,0,,,,78,64
240240,note_on,0,0,1,,,,,,,,0,,,,76,92
240360,note_on,0,0,17,,,,,,,,11,,,,78,108
240360,note_on,0,0,5,,,,,,,,3,,,,78,92
240360,note_off,120,0,5,,,,,,,,3,,,,76,64
240360,note_off,120,0,1,,,,,,,,0,,,,76,64
240360,note_on,0,0,3,,,,,,,,2,,,,78,92
240360,note_off,120,0,17,,,,,,,,11,,,,76,64
240360,note_off,120,0,3,,,,,,,,2,,,,76,64
240360,note_on,0,0,1,,,,,,,,0,,,,78,92
240480,note_on,0,0,3,,,,,,,,2,,,,76,92
240480,note_off,120,0,3,,,,,,,,2,,,,78,64
240480,note_on,0,0,17,,,,,,,,11,,,,76,108
240480,note_off,120,0,1,,,,,,,,0,,,,78,64
240480,note_on,0,0,1,,,,,,,,0,,,,76,92
240480,note_off,120,0,17,,,,,,,,11,,,,78,64
240480,note_off,120,0,5,,,,,,,,3,,,,78,64
240480,note_on,0,0,5,,,,,,,,3,,,,76,92
240600,note_on,0,0,5,,,,,,,,3,,,,78,92
240600,note_off,120,0,1,,,,,,,,0,,,,76,64
240600,note_on,0,0,1,,,,,,,,0,,,,78,92
240600,note_on,0,0,3,,,,,,,,2,,,,78,92
240600,note_off,120,0,3,,,,,,,,2,,,,76,64
240600,note_on,0,0,17,,,,,,,,11,,,,78,108
240600,note_off,120,0,17,,,,,,,,11,,,,76,64
240600,note_off,120,0,5,,,,,,,,3,,,,76,64
240720,note_off,120,0,1,,,,,,,,0,,,,78,64
240720,note_on,0,0,17,,,,,,,,11,,,,76,108
240720,note_off,120,0,5,,,,,,,,3,,,,78,64
240720,note_on,0,0,5,,,,,,,,3,,,,76,92
240720,note_on,0,0,1,,,,,,,,0,,,,76,92
240720,note_off,120,0,3,,,,,,,,2,,,,78,64
240720,note_on,0,0,3,,,,,,,,2,,,,76,92
240720,note_off,120,0,17,,,,,,,,11,,,,78,64
240840,note_off,120,0,1,,,,,,,,0,,,,76,64
240840,note_on,0,0,1,,,,,,,,0,,,,78,92
240840,note_off,840,0,7,,,,,,,,4,,,,57,64
240840,note_off,120,0,3,,,,,,,,2,,,,76,64
240840,note_on,0,0,3,,,,,,,,2,,,,78,92
240840,note_off,840,0,16,,,,,,,,10,,,,45,64
240840,note_off,840,0,6,,,,,,,,3,,,,69,64
240840,note_off,840,0,19,,,,,,,,13,,,,74,64
240840,note_off,840,0,21,,,,,,,,15,,,,45,64
240840,note_off,840,0,15,,,,,,,,8,,,,45,64
240840,note_off,840,0,18,,,,,,,,12,,,,64,64
240840,note_on,0,0,17,,,,,,,,11,,,,78,108
240840,note_off,120,0,5,,,,,,,,3,,,,76,64
240840,note_on,0,0,5,,,,,,,,3,,,,78,92
240840,note_off,840,0,14,,,,,,,,7,,,,57,64
240840,note_off,120,0,17,,,,,,,,11,,,,76,64
240840,note_off,840,0,20,,,,,,,,14,,,,57,64
240960,note_on,120,0,19,,,,,,,,13,,,,73,92
240960,note_on,120,0,6,,,,,,,,3,,,,69,92
240960,note_on,120,0,20,,,,,,,,14,,,,45,92
240960,note_on,120,0,7,,,,,,,,4,,,,45,92
240960,note_off,960,0,2,,,,,,,,1,,,,74,64
240960,note_on,120,0,14,,,,,,,,7,,,,45,92
240960,note_off,120,0,3,,,,,,,,2,,,,78,64
240960,note_on,120,0,18,,,,,,,,12,,,,69,92
240960,note_on,0,0,2,,,,,,,,1,,,,73,92
240960,note_on,0,0,3,,,,,,,,2,,,,76,92
240960,note_off,120,0,17,,,,,,,,11,,,,78,64
240960,note_off,960,0,4,,,,,,,,2,,,,74,64
240960,note_on,0,0,4,,,,,,,,2,,,,73,92
240960,note_on,120,0,15,,,,,,,,8,,,,33,92
240960,note_on,120,0,16,,,,,,,,10,,,,45,92
240960,note_off,120,0,1,,,,,,,,0,,,,78,64
240960,note_on,0,0,1,,,,,,,,0,,,,76,92
240960,note_off,120,0,5,,,,,,,,3,,,,78,64
240960,note_on,0,0,5,,,,,,,,3,,,,76,92
240960,note_on,120,0,21,,,,,,,,15,,,,33,92
240960,note_on,0,0,17,,,,,,,,11,,,,76,108
241080,note_on,0,0,3,,,,,,,,2,,,,78,92
241080,note_off,120,0,3,,,,,,,,2,,,,76,64
241080,note_off,120,0,1,,,,,,,,0,,,,76,64
241080,note_on,0,0,1,,,,,,,,0,,,,78,92
241080,note_off,120,0,17,,,,,,,,11,,,,76,64
241080,note_on,0,0,17,,,,,,,,11,,,,78,108
241080,note_on,0,0,5,,,,,,,,3,,,,78,92
241080,note_off,120,0,5,,,,,,,,3,,,,76,64
241200,note_on,0,0,5,,,,,,,,3,,,,74,92
241200,note_off,120,0,5,,,,,,,,3,,,,78,64
241200,note_on,0,0,1,,,,,,,,0,,,,74,92
241200,note_off,120,0,1,,,,,,,,0,,,,78,64
241200,note_off,120,0,17,,,,,,,,11,,,,78,64
241200,note_on,0,0,17,,,,,,,,11,,,,74,108
241200,note_on,0,0,3,,,,,,,,2,,,,74,92
241200,note_off,120,0,3,,,,,,,,2,,,,78,64
241320,note_off,120,0,1,,,,,,,,0,,,,74,64
241320,note_off,120,0,17,,,,,,,,11,,,,74,64
241320,note_on,0,0,17,,,,,,,,11,,,,76,108
241320,note_off,1320,0,13,,,,,,,,7,,,,57,64
241320,note_on,0,0,1,,,,,,,,0,,,,76,92
241320,note_on,0,0,3,,,,,,,,2,,,,76,92
241320,note_off,120,0,3,,,,,,,,2,,,,74,64
241320,note_on,0,0,5,,,,,,,,3,,,,76,92
241320,note_off,120,0,5,,,,,,,,3,,,,74,64
241360,note_off,400,0,4,,,,,,,,2,,,,73,64
241440,note_on,0,0,5,,,,,,,,3,,,,74,92
241440,note_off,120,0,5,,,,,,,,3,,,,76,64
241440,note_off,120,0,1,,,,,,,,0,,,,76,64
241440,note_on,0,0,3,,,,,,,,2,,,,74,92
241440,note_off,120,0,3,,,,,,,,2,,,,76,64
241440,note_on,120,0,13,,,,,,,,7,,,,57,92
241440,note_off,1440,0,12,,,,,,,,7,,,,64,64
241440,note_on,0,0,12,,,,,,,,7,,,,62,92
241440,note_off,120,0,17,,,,,,,,11,,,,76,64
241440,note_on,0,0,17,,,,,,,,11,,,,74,108
241440,note_on,0,0,1,,,,,,,,0,,,,74,92
241800,note_off,840,0,15,,,,,,,,8,,,,33,64
241800,note_off,840,0,18,,,,,,,,12,,,,69,64
241800,note_off,840,0,19,,,,,,,,13,,,,73,64
241800,note_off,840,0,6,,,,,,,,3,,,,69,64
241800,note_off,840,0,20,,,,,,,,14,,,,45,64
241800,note_off,840,0,21,,,,,,,,15,,,,33,64
241800,note_off,840,0,14,,,,,,,,7,,,,45,64
241800,note_off,840,0,7,,,,,,,,4,,,,45,64
241800,note_off,840,0,16,,,,,,,,10,,,,45,64
241800,note_off,840,0,2,,,,,,,,1,,,,73,64
241840,note_off,400,0,17,,,,,,,,11,,,,74,64
241840,note_off,400,0,12,,,,,,,,7,,,,62,64
241840,note_off,400,0,3,,,,,,,,2,,,,74,64
241840,note_off,400,0,1,,,,,,,,0,,,,74,64
241840,note_off,400,0,13,,,,,,,,7,,,,57,64
241840,note_off,400,0,5,,,,,,,,3,,,,74,64
241920,note_on,120,0,18,,,,,,,,12,,,,66,92
241920,note_on,120,0,14,,,,,,,,7,,,,50,92
241920,note_on,120,0,15,,,,,,,,8,,,,38,92
241920,note_on,120,0,16,,,,,,,,10,,,,50,92
241920,note_on,120,0,7,,,,,,,,4,,,,50,92
241920,note_on,120,0,6,,,,,,,,3,,,,66,92
241920,note_on,80,0,12,,,,,,,,7,,,,57,92
241920,note_on,120,0,2,,,,,,,,1,,,,74,92
241920,note_on,80,0,1,,,,,,,,0,,,,74,92
241920,note_on,80,0,13,,,,,,,,7,,,,50,92
241920,note_on,120,0,19,,,,,,,,13,,,,74,92
241920,note_on,80,0,5,,,,,,,,3,,,,74,92
241920,note_on,560,0,4,,,,,,,,2,,,,62,92
241920,note_on,129720,0,10,,,,,,,,6,,,,69,92
241920,note_on,80,0,17,,,,,,,,11,,,,74,108
241920,note_on,80,0,3,,,,,,,,2,,,,69,92
241920,note_on,129720,0,11,,,,,,,,6,,,,62,92
241920,note_on,120,0,20,,,,,,,,14,,,,50,92
241920,note_on,120,0,21,,,,,,,,15,,,,38,92
242760,note_off,840,0,18,,,,,,,,12,,,,66,64
242760,note_off,840,0,12,,,,,,,,7,,,,57,64
242760,note_off,840,0,17,,,,,,,,11,,,,74,64
242760,note_off,840,0,1,,,,,,,,0,,,,74,64
242760,note_off,840,0,21,,,,,,,,15,,,,38,64
242760,note_off,840,0,10,,,,,,,,6,,,,69,64
242760,note_off,840,0,7,,,,,,,,4,,,,50,64
242760,note_off,840,0,14,,,,,,,,7,,,,50,64
242760,note_off,840,0,16,,,,,,,,10,,,,50,64
242760,note_off,840,0,3,,,,,,,,2,,,,69,64
242760,note_off,840,0,5,,,,,,,,3,,,,74,64
242760,note_off,840,0,6,,,,,,,,3,,,,66,64
242760,note_off,840,0,11,,,,,,,,6,,,,62,64
242760,note_off,840,0,13,,,,,,,,7,,,,50,64
242760,note_off,840,0,4,,,,,,,,2,,,,62,64
242760,note_off,840,0,20,,,,,,,,14,,,,50,64
242760,note_off,840,0,15,,,,,,,,8,,,,38,64
242760,note_off,840,0,2,,,,,,,,1,,,,74,64
242760,note_off,840,0,19,,,,,,,,13,,,,74,64
242880,note_on,120,0,10,,,,,,,,6,,,,74,92
242880,note_on,120,0,13,,,,,,,,7,,,,54,92
242880,note_on,120,0,12,,,,,,,,7,,,,62,92
242880,note_on,120,0,11,,,,,,,,6,,,,66,92
242880,note_on,120,0,3,,,,,,,,2,,,,74,92
242880,note_on,120,0,4,,,,,,,,2,,,,66,92
243720,note_off,840,0,12,,,,,,,,7,,,,62,64
243720,note_off,840,0,13,,,,,,,,7,,,,54,64
243720,note_off,840,0,11,,,,,,,,6,,,,66,64
243720,note_off,840,0,3,,,,,,,,2,,,,74,64
243720,note_off,840,0,10,,,,,,,,6,,,,74,64
243720,note_off,840,0,4,,,,,,,,2,,,,66,64
243840,note_on,120,0,12,,,,,,,,7,,,,64,92
243840,note_on,120,0,13,,,,,,,,7,,,,57,92
243840,note_on,120,0,3,,,,,,,,2,,,,76,92
243840,note_on,120,0,4,,,,,,,,2,,,,69,92
243840,note_on,120,0,11,,,,,,,,6,,,,69,92
243840,note_on,120,0,10,,,,,,,,6,,,,76,92
244680,note_off,840,0,3,,,,,,,,2,,,,76,64
244680,note_off,840,0,4,,,,,,,,2,,,,69,64
244680,note_off,840,0,12,,,,,,,,7,,,,64,64
244680,note_off,840,0,13,,,,,,,,7,,,,57,64
244680,note_off,840,0,10,,,,,,,,6,,,,76,64
244680,note_off,840,0,11,,,,,,,,6,,,,69,64
244800,note_on,120,0,3,,,,,,,,2,,,,78,92
244800,note_on,120,0,10,,,,,,,,6,,,,78,92
244800,note_on,120,0,13,,,,,,,,7,,,,62,92
244800,note_on,120,0,4,,,,,,,,2,,,,74,92
244800,note_on,120,0,12,,,,,,,,7,,,,66,92
244800,note_on,120,0,11,,,,,,,,6,,,,74,92
245200,note_off,400,0,12,,,,,,,,7,,,,66,64
245200,note_off,400,0,10,,,,,,,,6,,,,78,64
245200,note_off,400,0,4,,,,,,,,2,,,,74,64
245200,note_off,400,0,3,,,,,,,,2,,,,78,64
245200,note_off,400,0,13,,,,,,,,7,,,,62,64
245200,note_off,400,0,11,,,,,,,,6,,,,74,64
245280,note_on,80,0,3,,,,,,,,2,,,,74,92
245280,note_on,80,0,12,,,,,,,,7,,,,62,92
245280,note_on,80,0,10,,,,,,,,6,,,,74,92
245280,note_on,80,0,11,,,,,,,,6,,,,66,92
245280,note_on,80,0,13,,,,,,,,7,,,,54,92
245280,note_on,80,0,4,,,,,,,,2,,,,66,92
246120,note_off,840,0,11,,,,,,,,6,,,,66,64
246120,note_off,840,0,4,,,,,,,,2,,,,66,64
246120,note_off,840,0,10,,,,,,,,6,,,,74,64
246120,note_off,840,0,13,,,,,,,,7,,,,54,64
246120,note_off,840,0,3,,,,,,,,2,,,,74,64
246120,note_off,840,0,12,,,,,,,,7,,,,62,64
246240,note_on,120,0,10,,,,,,,,6,,,,76,92
246240,note_on,120,0,13,,,,,,,,7,,,,57,92
246240,note_on,120,0,11,,,,,,,,6,,,,69,92
246240,note_on,120,0,3,,,,,,,,2,,,,76,92
246240,note_on,120,0,4,,,,,,,,2,,,,69,92
246240,note_on,120,0,12,,,,,,,,7,,,,64,92
246640,note_off,400,0,10,,,,,,,,6,,,,76,64
246640,note_off,400,0,13,,,,,,,,7,,,,57,64
246640,note_off,400,0,12,,,,,,,,7,,,,64,64
246640,note_off,400,0,4,,,,,,,,2,,,,69,64
246640,note_off,400,0,3,,,,,,,,2,,,,76,64
246640,note_off,400,0,11,,,,,,,,6,,,,69,64
246720,note_on,80,0,12,,,,,,,,7,,,,66,92
246720,note_on,80,0,13,,,,,,,,7,,,,62,92
246720,note_on,80,0,11,,,,,,,,6,,,,74,92
246720,note_on,80,0,4,,,,,,,,2,,,,74,92
246720,note_on,80,0,10,,,,,,,,6,,,,78,92
246720,note_on,80,0,3,,,,,,,,2,,,,78,92
247120,note_off,400,0,13,,,,,,,,7,,,,62,64
247120,note_off,400,0,4,,,,,,,,2,,,,74,64
247120,note_off,400,0,10,,,,,,,,6,,,,78,64
247120,note_off,400,0,3,,,,,,,,2,,,,78,64
247120,note_off,400,0,11,,,,,,,,6,,,,74,64
247120,note_off,400,0,12,,,,,,,,7,,,,66,64
247200,note_on,80,0,10,,,,,,,,6,,,,74,92
247200,note_on,80,0,13,,,,,,,,7,,,,54,92
247200,note_on,80,0,11,,,,,,,,6,,,,66,92
247200,note_on,80,0,3,,,,,,,,2,,,,74,92
247200,note_on,80,0,4,,,,,,,,2,,,,66,92
247200,note_on,80,0,12,,,,,,,,7,,,,62,92
247600,note_off,400,0,4,,,,,,,,2,,,,66,64
247600,note_off,400,0,11,,,,,,,,6,,,,66,64
247600,note_off,400,0,3,,,,,,,,2,,,,74,64
247600,note_off,400,0,13,,,,,,,,7,,,,54,64
247600,note_off,400,0,10,,,,,,,,6,,,,74,64
247600,note_off,400,0,12,,,,,,,,7,,,,62,64
247680,note_on,80,0,13,,,,,,,,7,,,,57,92
247680,note_on,80,0,11,,,,,,,,6,,,,69,92
247680,note_on,80,0,10,,,,,,,,6,,,,76,92
247680,note_on,80,0,3,,,,,,,,2,,,,76,92
247680,note_on,80,0,12,,,,,,,,7,,,,64,92
247680,note_on,80,0,4,,,,,,,,2,,,,69,92
248080,note_off,400,0,4,,,,,,,,2,,,,69,64
248080,note_off,400,0,10,,,,,,,,6,,,,76,64
248080,note_off,400,0,11,,,,,,,,6,,,,69,64
248080,note_off,400,0,13,,,,,,,,7,,,,57,64
248080,note_off,400,0,3,,,,,,,,2,,,,76,64
248080,note_off,400,0,12,,,,,,,,7,,,,64,64
248160,note_on,80,0,10,,,,,,,,6,,,,81,92
248160,note_on,80,0,13,,,,,,,,7,,,,64,92
248160,note_on,80,0,4,,,,,,,,2,,,,76,92
248160,note_on,80,0,3,,,,,,,,2,,,,81,92
248160,note_on,80,0,12,,,,,,,,7,,,,69,92
248160,note_on,80,0,11,,,,,,,,6,,,,76,92
249000,note_off,840,0,10,,,,,,,,6,,,,81,64
249000,note_off,840,0,4,,,,,,,,2,,,,76,64
249000,note_off,840,0,3,,,,,,,,2,,,,81,64
249000,note_off,840,0,13,,,,,,,,7,,,,64,64
249000,note_off,840,0,12,,,,,,,,7,,,,69,64
249000,note_off,840,0,11,,,,,,,,6,,,,76,64
249120,note_on,120,0,11,,,,,,,,6,,,,69,92
249120,note_on,120,0,12,,,,,,,,7,,,,64,92
249120,note_on,120,0,3,,,,,,,,2,,,,76,92
249120,note_on,120,0,4,,,,,,,,2,,,,69,92
249120,note_on,120,0,10,,,,,,,,6,,,,76,92
249120,note_on,120,0,13,,,,,,,,7,,,,57,92
249520,note_off,400,0,11,,,,,,,,6,,,,69,64
249520,note_off,400,0,10,,,,,,,,6,,,,76,64
249520,note_off,400,0,13,,,,,,,,7,,,,57,64
249520,note_off,400,0,4,,,,,,,,2,,,,69,64
249520,note_off,400,0,12,,,,,,,,7,,,,64,64
249520,note_off,400,0,3,,,,,,,,2,,,,76,64
249600,note_on,80,0,10,,,,,,,,6,,,,78,92
249600,note_on,80,0,11,,,,,,,,6,,,,74,92
249600,note_on,80,0,13,,,,,,,,7,,,,62,92
249600,note_on,80,0,12,,,,,,,,7,,,,66,92
249600,note_on,80,0,3,,,,,,,,2,,,,78,92
249600,note_on,80,0,4,,,,,,,,2,,,,74,92
250000,note_off,400,0,13,,,,,,,,7,,,,62,64
250000,note_off,400,0,12,,,,,,,,7,,,,66,64
250000,note_off,400,0,4,,,,,,,,2,,,,74,64
250000,note_off,400,0,11,,,,,,,,6,,,,74,64
250000,note_off,400,0,3,,,,,,,,2,,,,78,64
250000,note_off,400,0,10,,,,,,,,6,,,,78,64
250080,note_on,80,0,4,,,,,,,,2,,,,66,92
250080,note_on,80,0,13,,,,,,,,7,,,,54,92
250080,note_on,80,0,10,,,,,,,,6,,,,76,92
250080,note_on,80,0,11,,,,,,,,6,,,,66,92
250080,note_on,80,0,3,,,,,,,,2,,,,76,92
250080,note_on,80,0,12,,,,,,,,7,,,,64,92
250320,note_on,0,0,12,,,,,,,,7,,,,62,92
250320,note_on,0,0,10,,,,,,,,6,,,,74,92
250320,note_off,240,0,10,,,,,,,,6,,,,76,64
250320,note_off,240,0,12,,,,,,,,7,,,,64,64
250320,note_on,0,0,3,,,,,,,,2,,,,74,92
250320,note_off,240,0,3,,,,,,,,2,,,,76,64
250480,note_off,400,0,13,,,,,,,,7,,,,54,64
250480,note_off,400,0,11,,,,,,,,6,,,,66,64
250480,note_off,400,0,4,,,,,,,,2,,,,66,64
250555,note_off,235,0,12,,,,,,,,7,,,,62,64
250555,note_off,235,0,3,,,,,,,,2,,,,74,64
250555,note_off,235,0,10,,,,,,,,6,,,,74,64
250560,note_on,5,0,3,,,,,,,,2,,,,76,92
250560,note_on,80,0,13,,,,,,,,7,,,,57,92
250560,note_on,5,0,10,,,,,,,,6,,,,76,92
250560,note_on,80,0,11,,,,,,,,6,,,,69,92
250560,note_on,80,0,4,,,,,,,,2,,,,69,92
250560,note_on,5,0,12,,,,,,,,7,,,,64,92
250960,note_off,400,0,10,,,,,,,,6,,,,76,64
250960,note_off,400,0,11,,,,,,,,6,,,,69,64
250960,note_off,400,0,4,,,,,,,,2,,,,69,64
250960,note_off,400,0,3,,,,,,,,2,,,,76,64
250960,note_off,400,0,13,,,,,,,,7,,,,57,64
250960,note_off,400,0,12,,,,,,,,7,,,,64,64
251040,note_on,80,0,12,,,,,,,,7,,,,69,92
251040,note_on,80,0,11,,,,,,,,6,,,,76,92
251040,note_on,80,0,10,,,,,,,,6,,,,81,92
251040,note_on,80,0,4,,,,,,,,2,,,,76,92
251040,note_on,80,0,3,,,,,,,,2,,,,81,92
251040,note_on,80,0,13,,,,,,,,7,,,,64,92
251880,note_off,840,0,4,,,,,,,,2,,,,76,64
251880,note_off,840,0,12,,,,,,,,7,,,,69,64
251880,note_off,840,0,10,,,,,,,,6,,,,81,64
251880,note_off,840,0,11,,,,,,,,6,,,,76,64
251880,note_off,840,0,13,,,,,,,,7,,,,64,64
251880,note_off,840,0,3,,,,,,,,2,,,,81,64
252000,note_on,120,0,11,,,,,,,,6,,,,69,92
252000,note_on,120,0,12,,,,,,,,7,,,,64,92
252000,note_on,120,0,13,,,,,,,,7,,,,57,92
252000,note_on,120,0,4,,,,,,,,2,,,,69,92
252000,note_on,120,0,10,,,,,,,,6,,,,76,92
252000,note_on,120,0,3,,,,,,,,2,,,,76,92
252400,note_off,400,0,11,,,,,,,,6,,,,69,64
252400,note_off,400,0,4,,,,,,,,2,,,,69,64
252400,note_off,400,0,13,,,,,,,,7,,,,57,64
252400,note_off,400,0,12,,,,,,,,7,,,,64,64
252400,note_off,400,0,3,,,,,,,,2,,,,76,64
252400,note_off,400,0,10,,,,,,,,6,,,,76,64
252480,note_on,80,0,13,,,,,,,,7,,,,57,92
252480,note_on,80,0,4,,,,,,,,2,,,,69,92
252480,note_on,80,0,11,,,,,,,,6,,,,69,92
252480,note_on,80,0,12,,,,,,,,7,,,,64,92
252480,note_on,80,0,3,,,,,,,,2,,,,76,92
252480,note_on,80,0,10,,,,,,,,6,,,,76,92
252880,note_off,400,0,10,,,,,,,,6,,,,76,64
252880,note_off,400,0,3,,,,,,,,2,,,,76,64
252880,note_off,400,0,12,,,,,,,,7,,,,64,64
252960,note_on,80,0,12,,,,,,,,7,,,,57,92
252960,note_on,80,0,10,,,,,,,,6,,,,69,92
252960,note_on,80,0,3,,,,,,,,2,,,,69,92
253320,note_off,840,0,13,,,,,,,,7,,,,57,64
253320,note_off,840,0,11,,,,,,,,6,,,,69,64
253320,note_off,840,0,4,,,,,,,,2,,,,69,64
253360,note_off,400,0,12,,,,,,,,7,,,,57,64
253360,note_off,400,0,3,,,,,,,,2,,,,69,64
253360,note_off,400,0,10,,,,,,,,6,,,,69,64
253440,note_on,10680,0,5,,,,,,,,3,,,,57,92
253440,note_on,10680,0,6,,,,,,,,3,,,,50,92
253440,note_on,141240,0,8,,,,,,,,5,,,,57,92
253440,note_on,141240,0,9,,,,,,,,5,,,,50,92
254280,note_off,840,0,5,,,,,,,,3,,,,57,64
254280,note_off,840,0,9,,,,,,,,5,,,,50,64
254280,note_off,840,0,8,,,,,,,,5,,,,57,64
254280,note_off,840,0,6,,,,,,,,3,,,,50,64
254400,note_on,120,0,6,,,,,,,,3,,,,54,92
254400,note_on,120,0,9,,,,,,,,5,,,,54,92
254400,note_on,120,0,8,,,,,,,,5,,,,62,92
254400,note_on,120,0,5,,,,,,,,3,,,,62,92
255240,note_off,840,0,6,,,,,,,,3,,,,54,64
255240,note_off,840,0,5,,,,,,,,3,,,,62,64
255240,note_off,840,0,9,,,,,,,,5,,,,54,64
255240,note_off,840,0,8,,,,,,,,5,,,,62,64
255360,note_on,120,0,9,,,,,,,,5,,,,57,92
255360,note_on,120,0,8,,,,,,,,5,,,,64,92
255360,note_on,120,0,5,,,,,,,,3,,,,64,92
255360,note_on,120,0,6,,,,,,,,3,,,,57,92
256200,note_off,840,0,9,,,,,,,,5,,,,57,64
256200,note_off,840,0,8,,,,,,,,5,,,,64,64
256200,note_off,840,0,6,,,,,,,,3,,,,57,64
256200,note_off,840,0,5,,,,,,,,3,,,,64,64
256320,note_on,120,0,9,,,,,,,,5,,,,62,92
256320,note_on,120,0,8,,,,,,,,5,,,,66,92
256320,note_on,120,0,6,,,,,,,,3,,,,62,92
256320,note_on,120,0,5,,,,,,,,3,,,,66,92
256720,note_off,400,0,6,,,,,,,,3,,,,62,64
256720,note_off,400,0,9,,,,,,,,5,,,,62,64
256720,note_off,400,0,8,,,,,,,,5,,,,66,64
256720,note_off,400,0,5,,,,,,,,3,,,,66,64
256800,note_on,80,0,8,,,,,,,,5,,,,62,92
256800,note_on,80,0,9,,,,,,,,5,,,,54,92
256800,note_on,80,0,6,,,,,,,,3,,,,54,92
256800,note_on,80,0,5,,,,,,,,3,,,,62,92
257640,note_off,840,0,8,,,,,,,,5,,,,62,64
257640,note_off,840,0,6,,,,,,,,3,,,,54,64
257640,note_off,840,0,9,,,,,,,,5,,,,54,64
257640,note_off,840,0,5,,,,,,,,3,,,,62,64
257760,note_on,120,0,6,,,,,,,,3,,,,57,92
257760,note_on,120,0,9,,,,,,,,5,,,,57,92
257760,note_on,120,0,5,,,,,,,,3,,,,64,92
257760,note_on,120,0,8,,,,,,,,5,,,,64,92
258160,note_off,400,0,6,,,,,,,,3,,,,57,64
258160,note_off,400,0,5,,,,,,,,3,,,,64,64
258160,note_off,400,0,9,,,,,,,,5,,,,57,64
258160,note_off,400,0,8,,,,,,,,5,,,,64,64
258240,note_on,80,0,9,,,,,,,,5,,,,62,92
258240,note_on,80,0,5,,,,,,,,3,,,,66,92
258240,note_on,80,0,6,,,,,,,,3,,,,62,92
258240,note_on,80,0,8,,,,,,,,5,,,,66,92
258640,note_off,400,0,5,,,,,,,,3,,,,66,64
258640,note_off,400,0,9,,,,,,,,5,,,,62,64
258640,note_off,400,0,6,,,,,,,,3,,,,62,64
258640,note_off,400,0,8,,,,,,,,5,,,,66,64
258720,note_on,80,0,8,,,,,,,,5,,,,62,92
258720,note_on,80,0,5,,,,,,,,3,,,,62,92
258720,note_on,80,0,6,,,,,,,,3,,,,54,92
258720,note_on,80,0,9,,,,,,,,5,,,,54,92
259120,note_off,400,0,5,,,,,,,,3,,,,62,64
259120,note_off,400,0,6,,,,,,,,3,,,,54,64
259120,note_off,400,0,9,,,,,,,,5,,,,54,64
259120,note_off,400,0,8,,,,,,,,5,,,,62,64
259200,note_on,80,0,5,,,,,,,,3,,,,64,92
259200,note_on,80,0,6,,,,,,,,3,,,,57,92
259200,note_on,80,0,9,,,,,,,,5,,,,57,92
259200,note_on,80,0,8,,,,,,,,5,,,,64,92
259600,note_off,400,0,6,,,,,,,,3,,,,57,64
259600,note_off,400,0,9,,,,,,,,5,,,,57,64
259600,note_off,400,0,8,,,,,,,,5,,,,64,64
259600,note_off,400,0,5,,,,,,,,3,,,,64,64
259680,note_on,80,0,9,,,,,,,,5,,,,64,92
259680,note_on,80,0,6,,,,,,,,3,,,,64,92
259680,note_on,80,0,5,,,,,,,,3,,,,69,92
259680,note_on,80,0,8,,,,,,,,5,,,,69,92
260520,note_off,840,0,8,,,,,,,,5,,,,69,64
260520,note_off,840,0,9,,,,,,,,5,,,,64,64
260520,note_off,840,0,5,,,,,,,,3,,,,69,64
260520,note_off,840,0,6,,,,,,,,3,,,,64,64
260640,note_on,120,0,9,,,,,,,,5,,,,57,92
260640,note_on,120,0,5,,,,,,,,3,,,,64,92
260640,note_on,120,0,8,,,,,,,,5,,,,64,92
260640,note_on,120,0,6,,,,,,,,3,,,,57,92
261040,note_off,400,0,9,,,,,,,,5,,,,57,64
261040,note_off,400,0,5,,,,,,,,3,,,,64,64
261040,note_off,400,0,6,,,,,,,,3,,,,57,64
261040,note_off,400,0,8,,,,,,,,5,,,,64,64
261120,note_on,80,0,9,,,,,,,,5,,,,62,92
261120,note_on,80,0,8,,,,,,,,5,,,,66,92
261120,note_on,80,0,6,,,,,,,,3,,,,62,92
261120,note_on,80,0,5,,,,,,,,3,,,,66,92
261520,note_off,400,0,8,,,,,,,,5,,,,66,64
261520,note_off,400,0,9,,,,,,,,5,,,,62,64
261520,note_off,400,0,6,,,,,,,,3,,,,62,64
261520,note_off,400,0,5,,,,,,,,3,,,,66,64
261600,note_on,80,0,8,,,,,,,,5,,,,64,92
261600,note_on,80,0,9,,,,,,,,5,,,,54,92
261600,note_on,80,0,5,,,,,,,,3,,,,64,92
261600,note_on,80,0,6,,,,,,,,3,,,,54,92
261840,note_off,240,0,5,,,,,,,,3,,,,64,64
261840,note_on,0,0,5,,,,,,,,3,,,,62,92
261840,note_off,240,0,8,,,,,,,,5,,,,64,64
261840,note_on,0,0,8,,,,,,,,5,,,,62,92
262000,note_off,400,0,6,,,,,,,,3,,,,54,64
262000,note_off,400,0,9,,,,,,,,5,,,,54,64
262075,note_off,235,0,8,,,,,,,,5,,,,62,64
262075,note_off,235,0,5,,,,,,,,3,,,,62,64
262080,note_on,80,0,9,,,,,,,,5,,,,57,92
262080,note_on,5,0,5,,,,,,,,3,,,,64,92
262080,note_on,5,0,8,,,,,,,,5,,,,64,92
262080,note_on,80,0,6,,,,,,,,3,,,,57,92
262480,note_off,400,0,5,,,,,,,,3,,,,64,64
262480,note_off,400,0,8,,,,,,,,5,,,,64,64
262480,note_off,400,0,9,,,,,,,,5,,,,57,64
262480,note_off,400,0,6,,,,,,,,3,,,,57,64
262560,note_on,80,0,8,,,,,,,,5,,,,69,92
262560,note_on,80,0,9,,,,,,,,5,,,,64,92
262560,note_on,80,0,6,,,,,,,,3,,,,64,92
262560,note_on,80,0,5,,,,,,,,3,,,,69,92
262960,note_off,400,0,5,,,,,,,,3,,,,69,64
262960,note_off,400,0,6,,,,,,,,3,,,,64,64
263400,note_off,840,0,8,,,,,,,,5,,,,69,64
263400,note_off,840,0,9,,,,,,,,5,,,,64,64
263520,note_on,560,0,5,,,,,,,,3,,,,81,92
263520,note_on,20760,0,21,,,,,,,,15,,,,45,92
263520,note_on,560,0,6,,,,,,,,3,,,,78,92
263520,note_on,20760,0,18,,,,,,,,12,,,,78,92
263520,note_on,10160,0,12,,,,,,,,7,,,,69,92
263520,note_on,20760,0,19,,,,,,,,13,,,,73,92
263520,note_on,120,0,9,,,,,,,,5,,,,57,92
263520,note_on,20760,0,1,,,,,,,,0,,,,81,92
263520,note_on,10200,0,11,,,,,,,,6,,,,78,92
263520,note_on,10160,0,3,,,,,,,,2,,,,81,92
263520,note_on,10160,0,10,,,,,,,,6,,,,81,92
263520,note_on,120,0,8,,,,,,,,5,,,,64,92
263520,note_on,20760,0,2,,,,,,,,1,,,,78,92
263520,note_on,10200,0,13,,,,,,,,7,,,,66,92
263520,note_on,10200,0,4,,,,,,,,2,,,,78,92
263520,note_on,20760,0,14,,,,,,,,7,,,,57,92
263520,note_on,20760,0,17,,,,,,,,11,,,,81,108
263520,note_on,20760,0,16,,,,,,,,10,,,,45,92
263520,note_on,20760,0,15,,,,,,,,8,,,,45,92
263520,note_on,20760,0,7,,,,,,,,4,,,,57,92
263520,note_on,20760,0,20,,,,,,,,14,,,,57,92
263920,note_off,400,0,1,,,,,,,,0,,,,81,64
263920,note_off,400,0,8,,,,,,,,5,,,,64,64
263920,note_off,400,0,14,,,,,,,,7,,,,57,64
263920,note_off,400,0,7,,,,,,,,4,,,,57,64
263920,note_off,400,0,16,,,,,,,,10,,,,45,64
263920,note_off,400,0,4,,,,,,,,2,,,,78,64
263920,note_off,400,0,6,,,,,,,,3,,,,78,64
263920,note_off,400,0,11,,,,,,,,6,,,,78,64
263920,note_off,400,0,2,,,,,,,,1,,,,78,64
263920,note_off,400,0,5,,,,,,,,3,,,,81,64
263920,note_off,400,0,9,,,,,,,,5,,,,57,64
263920,note_off,400,0,19,,,,,,,,13,,,,73,64
263920,note_off,400,0,13,,,,,,,,7,,,,66,64
263920,note_off,400,0,18,,,,,,,,12,,,,78,64
263920,note_off,400,0,10,,,,,,,,6,,,,81,64
263920,note_off,400,0,12,,,,,,,,7,,,,69,64
263920,note_off,400,0,17,,,,,,,,11,,,,81,64
263920,note_off,400,0,15,,,,,,,,8,,,,45,64
263920,note_off,400,0,3,,,,,,,,2,,,,81,64
263920,note_off,400,0,21,,,,,,,,15,,,,45,64
263920,note_off,400,0,20,,,,,,,,14,,,,57,64
264000,note_on,80,0,18,,,,,,,,12,,,,78,92
264000,note_on,80,0,17,,,,,,,,11,,,,81,108
264000,note_on,80,0,1,,,,,,,,0,,,,81,92
264000,note_on,80,0,20,,,,,,,,14,,,,54,92
264000,note_on,80,0,19,,,,,,,,13,,,,69,92
264000,note_on,80,0,21,,,,,,,,15,,,,42,92
264000,note_on,80,0,13,,,,,,,,7,,,,66,92
264000,note_on,80,0,16,,,,,,,,10,,,,45,92
264000,note_on,80,0,15,,,,,,,,8,,,,42,92
264000,note_on,80,0,4,,,,,,,,2,,,,78,92
264000,note_on,80,0,2,,,,,,,,1,,,,78,92
264000,note_on,80,0,12,,,,,,,,7,,,,69,92
264000,note_on,80,0,10,,,,,,,,6,,,,81,92
264000,note_on,80,0,14,,,,,,,,7,,,,54,92
264000,note_on,80,0,7,,,,,,,,4,,,,54,92
264000,note_on,80,0,9,,,,,,,,5,,,,57,92
264000,note_on,80,0,11,,,,,,,,6,,,,78,92
264000,note_on,80,0,5,,,,,,,,3,,,,81,92
264000,note_on,80,0,3,,,,,,,,2,,,,81,92
264000,note_on,80,0,8,,,,,,,,5,,,,57,92
264000,note_on,80,0,6,,,,,,,,3,,,,78,92
264400,note_off,400,0,17,,,,,,,,11,,,,81,64
264400,note_off,400,0,3,,,,,,,,2,,,,81,64
264400,note_off,400,0,18,,,,,,,,12,,,,78,64
264400,note_off,400,0,10,,,,,,,,6,,,,81,64
264400,note_off,400,0,20,,,,,,,,14,,,,54,64
264400,note_off,400,0,7,,,,,,,,4,,,,54,64
264400,note_off,400,0,21,,,,,,,,15,,,,42,64
264400,note_off,400,0,6,,,,,,,,3,,,,78,64
264400,note_off,400,0,4,,,,,,,,2,,,,78,64
264400,note_off,400,0,13,,,,,,,,7,,,,66,64
264400,note_off,400,0,2,,,,,,,,1,,,,78,64
264400,note_off,400,0,16,,,,,,,,10,,,,45,64
264400,note_off,400,0,19,,,,,,,,13,,,,69,64
264400,note_off,400,0,14,,,,,,,,7,,,,54,64
264400,note_off,400,0,11,,,,,,,,6,,,,78,64
264400,note_off,400,0,5,,,,,,,,3,,,,81,64
264400,note_off,400,0,1,,,,,,,,0,,,,81,64
264400,note_off,400,0,12,,,,,,,,7,,,,69,64
264400,note_off,400,0,15,,,,,,,,8,,,,42,64
264480,note_on,80,0,12,,,,,,,,7,,,,69,92
264480,note_on,80,0,19,,,,,,,,13,,,,73,92
264480,note_on,80,0,21,,,,,,,,15,,,,45,92
264480,note_on,80,0,14,,,,,,,,7,,,,57,92
264480,note_on,80,0,7,,,,,,,,4,,,,57,92
264480,note_on,80,0,15,,,,,,,,8,,,,45,92
264480,note_on,80,0,17,,,,,,,,11,,,,81,108
264480,note_on,80,0,3,,,,,,,,2,,,,81,92
264480,note_on,80,0,16,,,,,,,,10,,,,45,92
264480,note_on,80,0,5,,,,,,,,3,,,,81,92
264480,note_on,80,0,11,,,,,,,,6,,,,78,92
264480,note_on,80,0,1,,,,,,,,0,,,,81,92
264480,note_on,80,0,10,,,,,,,,6,,,,81,92
264480,note_on,80,0,2,,,,,,,,1,,,,78,92
264480,note_on,80,0,13,,,,,,,,7,,,,66,92
264480,note_on,80,0,6,,,,,,,,3,,,,78,92
264480,note_on,80,0,20,,,,,,,,14,,,,57,92
264480,note_on,80,0,18,,,,,,,,12,,,,78,92
264480,note_on,80,0,4,,,,,,,,2,,,,78,92
264840,note_off,840,0,8,,,,,,,,5,,,,57,64
264840,note_off,840,0,9,,,,,,,,5,,,,57,64
264880,note_off,400,0,1,,,,,,,,0,,,,81,64
264880,note_off,400,0,19,,,,,,,,13,,,,73,64
264880,note_off,400,0,21,,,,,,,,15,,,,45,64
264880,note_off,400,0,14,,,,,,,,7,,,,57,64
264880,note_off,400,0,20,,,,,,,,14,,,,57,64
264880,note_off,400,0,16,,,,,,,,10,,,,45,64
264880,note_off,400,0,3,,,,,,,,2,,,,81,64
264880,note_off,400,0,2,,,,,,,,1,,,,78,64
264880,note_off,400,0,12,,,,,,,,7,,,,69,64
264880,note_off,400,0,18,,,,,,,,12,,,,78,64
264880,note_off,400,0,10,,,,,,,,6,,,,81,64
264880,note_off,400,0,15,,,,,,,,8,,,,45,64
264880,note_off,400,0,17,,,,,,,,11,,,,81,64
264880,note_off,400,0,4,,,,,,,,2,,,,78,64
264880,note_off,400,0,6,,,,,,,,3,,,,78,64
264880,note_off,400,0,5,,,,,,,,3,,,,81,64
264880,note_off,400,0,7,,,,,,,,4,,,,57,64
264880,note_off,400,0,13,,,,,,,,7,,,,66,64
264880,note_off,400,0,11,,,,,,,,6,,,,78,64
264960,note_on,80,0,11,,,,,,,,6,,,,78,92
264960,note_on,80,0,20,,,,,,,,14,,,,59,92
264960,note_on,80,0,4,,,,,,,,2,,,,78,92
264960,note_on,80,0,17,,,,,,,,11,,,,81,108
264960,note_on,80,0,16,,,,,,,,10,,,,50,92
264960,note_on,80,0,5,,,,,,,,3,,,,81,92
264960,note_on,80,0,1,,,,,,,,0,,,,81,92
264960,note_on,80,0,13,,,,,,,,7,,,,66,92
264960,note_on,80,0,3,,,,,,,,2,,,,81,92
264960,note_on,80,0,10,,,,,,,,6,,,,81,92
264960,note_on,80,0,15,,,,,,,,8,,,,47,92
264960,note_on,80,0,6,,,,,,,,3,,,,78,92
264960,note_on,80,0,7,,,,,,,,4,,,,59,92
264960,note_on,80,0,21,,,,,,,,15,,,,47,92
264960,note_on,80,0,19,,,,,,,,13,,,,74,92
264960,note_on,80,0,18,,,,,,,,12,,,,78,92
264960,note_on,80,0,14,,,,,,,,7,,,,59,92
264960,note_on,80,0,2,,,,,,,,1,,,,78,92
264960,note_on,80,0,12,,,,,,,,7,,,,69,92
265360,note_off,400,0,5,,,,,,,,3,,,,81,64
265360,note_off,400,0,10,,,,,,,,6,,,,81,64
265360,note_off,400,0,6,,,,,,,,3,,,,78,64
265360,note_off,400,0,17,,,,,,,,11,,,,81,64
265360,note_off,400,0,1,,,,,,,,0,,,,81,64
265360,note_off,400,0,12,,,,,,,,7,,,,69,64
265360,note_off,400,0,11,,,,,,,,6,,,,78,64
265360,note_off,400,0,3,,,,,,,,2,,,,81,64
265360,note_off,400,0,4,,,,,,,,2,,,,78,64
265360,note_off,400,0,18,,,,,,,,12,,,,78,64
265360,note_off,400,0,2,,,,,,,,1,,,,78,64
265360,note_off,400,0,13,,,,,,,,7,,,,66,64
265440,note_on,80,0,5,,,,,,,,3,,,,79,92
265440,note_on,80,0,6,,,,,,,,3,,,,76,92
265440,note_on,80,0,4,,,,,,,,2,,,,76,92
265440,note_on,80,0,3,,,,,,,,2,,,,79,92
265440,note_on,80,0,2,,,,,,,,1,,,,76,92
265440,note_on,80,0,1,,,,,,,,0,,,,79,92
265440,note_on,80,0,17,,,,,,,,11,,,,79,108
265440,note_on,80,0,18,,,,,,,,12,,,,76,92
265440,note_on,80,0,13,,,,,,,,7,,,,64,92
265440,note_on,80,0,10,,,,,,,,6,,,,79,92
265440,note_on,80,0,12,,,,,,,,7,,,,67,92
265440,note_on,80,0,11,,,,,,,,6,,,,76,92
265680,note_on,0,0,17,,,,,,,,11,,,,78,108
265680,note_off,240,0,2,,,,,,,,1,,,,76,64
265680,note_off,240,0,13,,,,,,,,7,,,,64,64
265680,note_on,0,0,13,,,,,,,,7,,,,62,92
265680,note_off,240,0,12,,,,,,,,7,,,,67,64
265680,note_on,0,0,12,,,,,,,,7,,,,66,92
265680,note_off,240,0,3,,,,,,,,2,,,,79,64
265680,note_on,0,0,3,,,,,,,,2,,,,78,92
265680,note_off,240,0,11,,,,,,,,6,,,,76,64
265680,note_on,0,0,11,,,,,,,,6,,,,74,92
265680,note_on,0,0,4,,,,,,,,2,,,,74,92
265680,note_on,0,0,2,,,,,,,,1,,,,74,92
265680,note_off,240,0,17,,,,,,,,11,,,,79,64
265680,note_on,0,0,5,,,,,,,,3,,,,78,92
265680,note_off,240,0,5,,,,,,,,3,,,,79,64
265680,note_on,0,0,18,,,,,,,,12,,,,74,92
265680,note_off,240,0,18,,,,,,,,12,,,,76,64
265680,note_off,240,0,1,,,,,,,,0,,,,79,64
265680,note_on,0,0,1,,,,,,,,0,,,,78,92
265680,note_off,240,0,10,,,,,,,,6,,,,79,64
265680,note_off,240,0,6,,,,,,,,3,,,,76,64
265680,note_on,0,0,6,,,,,,,,3,,,,74,92
265680,note_on,0,0,10,,,,,,,,6,,,,78,92
265680,note_off,240,0,4,,,,,,,,2,,,,76,64
265800,note_off,840,0,21,,,,,,,,15,,,,47,64
265800,note_off,840,0,20,,,,,,,,14,,,,59,64
265800,note_off,840,0,15,,,,,,,,8,,,,47,64
265800,note_off,840,0,19,,,,,,,,13,,,,74,64
265800,note_off,840,0,16,,,,,,,,10,,,,50,64
265800,note_off,840,0,7,,,,,,,,4,,,,59,64
265800,note_off,840,0,14,,,,,,,,7,,,,59,64
265915,note_off,235,0,2,,,,,,,,1,,,,74,64
265915,note_off,235,0,13,,,,,,,,7,,,,62,64
265915,note_off,235,0,12,,,,,,,,7,,,,66,64
265915,note_off,235,0,17,,,,,,,,11,,,,78,64
265915,note_off,235,0,11,,,,,,,,6,,,,74,64
265915,note_off,235,0,18,,,,,,,,12,,,,74,64
265915,note_off,235,0,10,,,,,,,,6,,,,78,64
265920,note_on,5,0,13,,,,,,,,7,,,,64,92
265920,note_on,5,0,10,,,,,,,,6,,,,79,92
265920,note_on,5,0,18,,,,,,,,12,,,,76,92
265920,note_on,5,0,17,,,,,,,,11,,,,79,108
265920,note_on,5,0,11,,,,,,,,6,,,,76,92
265920,note_off,240,0,6,,,,,,,,3,,,,74,64
265920,note_on,0,0,6,,,,,,,,3,,,,76,92
265920,note_off,240,0,3,,,,,,,,2,,,,78,64
265920,note_on,120,0,19,,,,,,,,13,,,,67,92
265920,note_on,0,0,3,,,,,,,,2,,,,79,92
265920,note_off,240,0,5,,,,,,,,3,,,,78,64
265920,note_on,5,0,12,,,,,,,,7,,,,67,92
265920,note_on,0,0,4,,,,,,,,2,,,,76,92
265920,note_on,0,0,5,,,,,,,,3,,,,79,92
265920,note_off,240,0,4,,,,,,,,2,,,,74,64
265920,note_on,0,0,1,,,,,,,,0,,,,79,92
265920,note_off,240,0,1,,,,,,,,0,,,,78,64
265920,note_on,5,0,2,,,,,,,,1,,,,76,92
266320,note_off,400,0,19,,,,,,,,13,,,,67,64
266320,note_off,400,0,4,,,,,,,,2,,,,76,64
266320,note_off,400,0,17,,,,,,,,11,,,,79,64
266320,note_off,400,0,11,,,,,,,,6,,,,76,64
266320,note_off,400,0,6,,,,,,,,3,,,,76,64
266320,note_off,400,0,5,,,,,,,,3,,,,79,64
266320,note_off,400,0,18,,,,,,,,12,,,,76,64
266320,note_off,400,0,2,,,,,,,,1,,,,76,64
266320,note_off,400,0,3,,,,,,,,2,,,,79,64
266320,note_off,400,0,10,,,,,,,,6,,,,79,64
266320,note_off,400,0,12,,,,,,,,7,,,,67,64
266320,note_off,400,0,13,,,,,,,,7,,,,64,64
266320,note_off,400,0,1,,,,,,,,0,,,,79,64
266400,note_on,80,0,11,,,,,,,,6,,,,76,92
266400,note_on,600,0,14,,,,,,,,7,,,,55,92
266400,note_on,600,0,16,,,,,,,,10,,,,50,92
266400,note_on,80,0,3,,,,,,,,2,,,,79,92
266400,note_on,600,0,15,,,,,,,,8,,,,43,92
266400,note_on,80,0,10,,,,,,,,6,,,,79,92
266400,note_on,80,0,13,,,,,,,,7,,,,64,92
266400,note_on,600,0,20,,,,,,,,14,,,,55,92
266400,note_on,80,0,5,,,,,,,,3,,,,79,92
266400,note_on,80,0,6,,,,,,,,3,,,,76,92
266400,note_on,80,0,17,,,,,,,,11,,,,79,108
266400,note_on,80,0,12,,,,,,,,7,,,,67,92
266400,note_on,80,0,2,,,,,,,,1,,,,76,92
266400,note_on,80,0,18,,,,,,,,12,,,,76,92
266400,note_on,600,0,21,,,,,,,,15,,,,43,92
266400,note_on,600,0,7,,,,,,,,4,,,,55,92
266400,note_on,80,0,19,,,,,,,,13,,,,71,92
266400,note_on,80,0,1,,,,,,,,0,,,,79,92
266400,note_on,80,0,4,,,,,,,,2,,,,76,92
266800,note_off,400,0,15,,,,,,,,8,,,,43,64
266800,note_off,400,0,19,,,,,,,,13,,,,71,64
266800,note_off,400,0,12,,,,,,,,7,,,,67,64
266800,note_off,400,0,2,,,,,,,,1,,,,76,64
266800,note_off,400,0,16,,,,,,,,10,,,,50,64
266800,note_off,400,0,14,,,,,,,,7,,,,55,64
266800,note_off,400,0,20,,,,,,,,14,,,,55,64
266800,note_off,400,0,3,,,,,,,,2,,,,79,64
266800,note_off,400,0,10,,,,,,,,6,,,,79,64
266800,note_off,400,0,17,,,,,,,,11,,,,79,64
266800,note_off,400,0,6,,,,,,,,3,,,,76,64
266800,note_off,400,0,18,,,,,,,,12,,,,76,64
266800,note_off,400,0,1,,,,,,,,0,,,,79,64
266800,note_off,400,0,11,,,,,,,,6,,,,76,64
266800,note_off,400,0,21,,,,,,,,15,,,,43,64
266800,note_off,400,0,4,,,,,,,,2,,,,76,64
266800,note_off,400,0,13,,,,,,,,7,,,,64,64
266800,note_off,400,0,7,,,,,,,,4,,,,55,64
266800,note_off,400,0,5,,,,,,,,3,,,,79,64
266880,note_on,80,0,17,,,,,,,,11,,,,79,108
266880,note_on,80,0,14,,,,,,,,7,,,,52,92
266880,note_on,80,0,2,,,,,,,,1,,,,76,92
266880,note_on,80,0,5,,,,,,,,3,,,,79,92
266880,note_on,80,0,7,,,,,,,,4,,,,52,92
266880,note_on,80,0,10,,,,,,,,6,,,,79,92
266880,note_on,80,0,21,,,,,,,,15,,,,40,92
266880,note_on,80,0,4,,,,,,,,2,,,,76,92
266880,note_on,80,0,12,,,,,,,,7,,,,67,92
266880,note_on,80,0,19,,,,,,,,13,,,,67,92
266880,note_on,80,0,1,,,,,,,,0,,,,79,92
266880,note_on,80,0,20,,,,,,,,14,,,,52,92
266880,note_on,80,0,18,,,,,,,,12,,,,76,92
266880,note_on,80,0,13,,,,,,,,7,,,,64,92
266880,note_on,80,0,15,,,,,,,,8,,,,40,92
266880,note_on,80,0,3,,,,,,,,2,,,,79,92
266880,note_on,80,0,6,,,,,,,,3,,,,76,92
266880,note_on,80,0,16,,,,,,,,10,,,,50,92
266880,note_on,80,0,11,,,,,,,,6,,,,76,92
267280,note_off,400,0,13,,,,,,,,7,,,,64,64
267280,note_off,400,0,21,,,,,,,,15,,,,40,64
267280,note_off,400,0,20,,,,,,,,14,,,,52,64
267280,note_off,400,0,5,,,,,,,,3,,,,79,64
267280,note_off,400,0,4,,,,,,,,2,,,,76,64
267280,note_off,400,0,16,,,,,,,,10,,,,50,64
267280,note_off,400,0,3,,,,,,,,2,,,,79,64
267280,note_off,400,0,10,,,,,,,,6,,,,79,64
267280,note_off,400,0,1,,,,,,,,0,,,,79,64
267280,note_off,400,0,12,,,,,,,,7,,,,67,64
267280,note_off,400,0,2,,,,,,,,1,,,,76,64
267280,note_off,400,0,11,,,,,,,,6,,,,76,64
267280,note_off,400,0,19,,,,,,,,13,,,,67,64
267280,note_off,400,0,17,,,,,,,,11,,,,79,64
267280,note_off,400,0,18,,,,,,,,12,,,,76,64
267280,note_off,400,0,7,,,,,,,,4,,,,52,64
267280,note_off,400,0,14,,,,,,,,7,,,,52,64
267280,note_off,400,0,6,,,,,,,,3,,,,76,64
267280,note_off,400,0,15,,,,,,,,8,,,,40,64
267360,note_on,80,0,21,,,,,,,,15,,,,43,92
267360,note_on,80,0,11,,,,,,,,6,,,,76,92
267360,note_on,80,0,16,,,,,,,,10,,,,50,92
267360,note_on,80,0,12,,,,,,,,7,,,,67,92
267360,note_on,80,0,6,,,,,,,,3,,,,76,92
267360,note_on,80,0,15,,,,,,,,8,,,,43,92
267360,note_on,80,0,13,,,,,,,,7,,,,64,92
267360,note_on,80,0,18,,,,,,,,12,,,,76,92
267360,note_on,80,0,5,,,,,,,,3,,,,79,92
267360,note_on,80,0,4,,,,,,,,2,,,,76,92
267360,note_on,80,0,2,,,,,,,,1,,,,76,92
267360,note_on,80,0,3,,,,,,,,2,,,,79,92
267360,note_on,80,0,14,,,,,,,,7,,,,55,92
267360,note_on,80,0,1,,,,,,,,0,,,,79,92
267360,note_on,80,0,17,,,,,,,,11,,,,79,108
267360,note_on,80,0,19,,,,,,,,13,,,,71,92
267360,note_on,80,0,7,,,,,,,,4,,,,55,92
267360,note_on,80,0,10,,,,,,,,6,,,,79,92
267360,note_on,80,0,20,,,,,,,,14,,,,55,92
267760,note_off,400,0,5,,,,,,,,3,,,,79,64
267760,note_off,400,0,16,,,,,,,,10,,,,50,64
267760,note_off,400,0,6,,,,,,,,3,,,,76,64
267760,note_off,400,0,12,,,,,,,,7,,,,67,64
267760,note_off,400,0,20,,,,,,,,14,,,,55,64
267760,note_off,400,0,21,,,,,,,,15,,,,43,64
267760,note_off,400,0,14,,,,,,,,7,,,,55,64
267760,note_off,400,0,19,,,,,,,,13,,,,71,64
267760,note_off,400,0,13,,,,,,,,7,,,,64,64
267760,note_off,400,0,17,,,,,,,,11,,,,79,64
267760,note_off,400,0,3,,,,,,,,2,,,,79,64
267760,note_off,400,0,4,,,,,,,,2,,,,76,64
267760,note_off,400,0,11,,,,,,,,6,,,,76,64
267760,note_off,400,0,7,,,,,,,,4,,,,55,64
267760,note_off,400,0,10,,,,,,,,6,,,,79,64
267760,note_off,400,0,1,,,,,,,,0,,,,79,64
267760,note_off,400,0,18,,,,,,,,12,,,,76,64
267760,note_off,400,0,15,,,,,,,,8,,,,43,64
267760,note_off,400,0,2,,,,,,,,1,,,,76,64
267840,note_on,80,0,19,,,,,,,,13,,,,73,92
267840,note_on,80,0,2,,,,,,,,1,,,,76,92
267840,note_on,80,0,14,,,,,,,,7,,,,57,92
267840,note_on,80,0,21,,,,,,,,15,,,,45,92
267840,note_on,80,0,13,,,,,,,,7,,,,64,92
267840,note_on,80,0,7,,,,,,,,4,,,,57,92
267840,note_on,80,0,12,,,,,,,,7,,,,67,92
267840,note_on,80,0,17,,,,,,,,11,,,,79,108
267840,note_on,80,0,16,,,,,,,,10,,,,45,92
267840,note_on,80,0,20,,,,,,,,14,,,,57,92
267840,note_on,80,0,1,,,,,,,,0,,,,79,92
267840,note_on,80,0,15,,,,,,,,8,,,,45,92
267840,note_on,80,0,3,,,,,,,,2,,,,79,92
267840,note_on,80,0,11,,,,,,,,6,,,,76,92
267840,note_on,80,0,10,,,,,,,,6,,,,79,92
267840,note_on,80,0,6,,,,,,,,3,,,,76,92
267840,note_on,80,0,4,,,,,,,,2,,,,76,92
267840,note_on,80,0,18,,,,,,,,12,,,,76,92
267840,note_on,80,0,5,,,,,,,,3,,,,79,92
268240,note_off,400,0,17,,,,,,,,11,,,,79,64
268240,note_off,400,0,11,,,,,,,,6,,,,76,64
268240,note_off,400,0,1,,,,,,,,0,,,,79,64
268240,note_off,400,0,6,,,,,,,,3,,,,76,64
268240,note_off,400,0,13,,,,,,,,7,,,,64,64
268240,note_off,400,0,10,,,,,,,,6,,,,79,64
268240,note_off,400,0,18,,,,,,,,12,,,,76,64
268240,note_off,400,0,2,,,,,,,,1,,,,76,64
268240,note_off,400,0,12,,,,,,,,7,,,,67,64
268240,note_off,400,0,5,,,,,,,,3,,,,79,64
268240,note_off,400,0,3,,,,,,,,2,,,,79,64
268240,note_off,400,0,4,,,,,,,,2,,,,76,64
268320,note_on,80,0,1,,,,,,,,0,,,,78,92
268320,note_on,80,0,11,,,,,,,,6,,,,69,92
268320,note_on,80,0,2,,,,,,,,1,,,,74,92
268320,note_on,80,0,12,,,,,,,,7,,,,66,92
268320,note_on,80,0,3,,,,,,,,2,,,,78,92
268320,note_on,80,0,4,,,,,,,,2,,,,74,92
268320,note_on,80,0,13,,,,,,,,7,,,,57,92
268320,note_on,80,0,18,,,,,,,,12,,,,74,92
268320,note_on,80,0,6,,,,,,,,3,,,,74,92
268320,note_on,80,0,5,,,,,,,,3,,,,78,92
268320,note_on,80,0,10,,,,,,,,6,,,,78,92
268320,note_on,80,0,17,,,,,,,,11,,,,78,108
268560,note_on,0,0,18,,,,,,,,12,,,,73,92
268560,note_on,0,0,6,,,,,,,,3,,,,73,92
268560,note_off,240,0,6,,,,,,,,3,,,,74,64
268560,note_on,0,0,2,,,,,,,,1,,,,73,92
268560,note_on,0,0,12,,,,,,,,7,,,,64,92
268560,note_off,240,0,18,,,,,,,,12,,,,74,64
268560,note_off,240,0,2,,,,,,,,1,,,,74,64
268560,note_off,240,0,5,,,,,,,,3,,,,78,64
268560,note_on,0,0,5,,,,,,,,3,,,,76,92
268560,note_off,240,0,12,,,,,,,,7,,,,66,64
268560,note_off,240,0,4,,,,,,,,2,,,,74,64
268560,note_off,240,0,3,,,,,,,,2,,,,78,64
268560,note_on,0,0,3,,,,,,,,2,,,,76,92
268560,note_on,0,0,1,,,,,,,,0,,,,76,92
268560,note_off,240,0,1,,,,,,,,0,,,,78,64
268560,note_on,0,0,17,,,,,,,,11,,,,76,108
268560,note_on,0,0,10,,,,,,,,6,,,,76,92
268560,note_off,240,0,10,,,,,,,,6,,,,78,64
268560,note_off,240,0,17,,,,,,,,11,,,,78,64
268560,note_on,0,0,4,,,,,,,,2,,,,73,92
268680,note_off,840,0,20,,,,,,,,14,,,,57,64
268680,note_off,840,0,14,,,,,,,,7,,,,57,64
268680,note_off,840,0,19,,,,,,,,13,,,,73,64
268680,note_off,840,0,16,,,,,,,,10,,,,45,64
268680,note_off,840,0,21,,,,,,,,15,,,,45,64
268680,note_off,840,0,15,,,,,,,,8,,,,45,64
268680,note_off,840,0,7,,,,,,,,4,,,,57,64
268720,note_off,400,0,11,,,,,,,,6,,,,69,64
268720,note_off,400,0,13,,,,,,,,7,,,,57,64
268795,note_off,235,0,17,,,,,,,,11,,,,76,64
268795,note_off,235,0,18,,,,,,,,12,,,,73,64
268795,note_off,235,0,12,,,,,,,,7,,,,64,64
268795,note_off,235,0,10,,,,,,,,6,,,,76,64
268800,note_on,5,0,12,,,,,,,,7,,,,66,92
268800,note_on,120,0,20,,,,,,,,14,,,,50,92
268800,note_on,80,0,13,,,,,,,,7,,,,62,92
268800,note_on,120,0,19,,,,,,,,13,,,,69,92
268800,note_on,120,0,16,,,,,,,,10,,,,50,92
268800,note_off,240,0,4,,,,,,,,2,,,,73,64
268800,note_off,240,0,5,,,,,,,,3,,,,76,64
268800,note_on,120,0,21,,,,,,,,15,,,,38,92
268800,note_on,120,0,15,,,,,,,,8,,,,38,92
268800,note_on,0,0,5,,,,,,,,3,,,,78,92
268800,note_on,0,0,3,,,,,,,,2,,,,78,92
268800,note_on,0,0,4,,,,,,,,2,,,,74,92
268800,note_on,5,0,18,,,,,,,,12,,,,74,92
268800,note_on,120,0,14,,,,,,,,7,,,,50,92
268800,note_off,240,0,3,,,,,,,,2,,,,76,64
268800,note_off,240,0,1,,,,,,,,0,,,,76,64
268800,note_on,80,0,11,,,,,,,,6,,,,74,92
268800,note_on,0,0,2,,,,,,,,1,,,,74,92
268800,note_on,0,0,1,,,,,,,,0,,,,78,92
268800,note_on,5,0,10,,,,,,,,6,,,,78,92
268800,note_on,120,0,7,,,,,,,,4,,,,50,92
268800,note_off,240,0,2,,,,,,,,1,,,,73,64
268800,note_on,0,0,6,,,,,,,,3,,,,74,92
268800,note_off,240,0,6,,,,,,,,3,,,,73,64
268800,note_on,5,0,17,,,,,,,,11,,,,78,108
269035,note_off,235,0,6,,,,,,,,3,,,,74,64
269035,note_off,235,0,5,,,,,,,,3,,,,78,64
269200,note_off,400,0,1,,,,,,,,0,,,,78,64
269200,note_off,400,0,4,,,,,,,,2,,,,74,64
269200,note_off,400,0,2,,,,,,,,1,,,,74,64
269200,note_off,400,0,3,,,,,,,,2,,,,78,64
269280,note_on,245,0,6,,,,,,,,3,,,,66,92
269280,note_on,245,0,5,,,,,,,,3,,,,69,92
269280,note_on,4440,0,8,,,,,,,,5,,,,69,92
269280,note_on,4440,0,9,,,,,,,,5,,,,66,92
269640,note_off,840,0,12,,,,,,,,7,,,,66,64
269640,note_off,840,0,14,,,,,,,,7,,,,50,64
269640,note_off,840,0,20,,,,,,,,14,,,,50,64
269640,note_off,840,0,11,,,,,,,,6,,,,74,64
269640,note_off,840,0,13,,,,,,,,7,,,,62,64
269640,note_off,840,0,16,,,,,,,,10,,,,50,64
269640,note_off,840,0,10,,,,,,,,6,,,,78,64
269640,note_off,840,0,18,,,,,,,,12,,,,74,64
269640,note_off,840,0,17,,,,,,,,11,,,,78,64
269640,note_off,840,0,19,,,,,,,,13,,,,69,64
269640,note_off,840,0,7,,,,,,,,4,,,,50,64
269640,note_off,840,0,21,,,,,,,,15,,,,38,64
269640,note_off,840,0,15,,,,,,,,8,,,,38,64
269680,note_off,400,0,6,,,,,,,,3,,,,66,64
269680,note_off,400,0,8,,,,,,,,5,,,,69,64
269680,note_off,400,0,9,,,,,,,,5,,,,66,64
269680,note_off,400,0,5,,,,,,,,3,,,,69,64
269760,note_on,80,0,9,,,,,,,,5,,,,66,92
269760,note_on,80,0,6,,,,,,,,3,,,,66,92
269760,note_on,80,0,8,,,,,,,,5,,,,69,92
269760,note_on,80,0,5,,,,,,,,3,,,,69,92
270160,note_off,400,0,8,,,,,,,,5,,,,69,64
270160,note_off,400,0,5,,,,,,,,3,,,,69,64
270160,note_off,400,0,9,,,,,,,,5,,,,66,64
270160,note_off,400,0,6,,,,,,,,3,,,,66,64
270240,note_on,80,0,8,,,,,,,,5,,,,69,92
270240,note_on,80,0,9,,,,,,,,5,,,,66,92
270240,note_on,80,0,6,,,,,,,,3,,,,66,92
270240,note_on,80,0,5,,,,,,,,3,,,,69,92
270640,note_off,400,0,9,,,,,,,,5,,,,66,64
270640,note_off,400,0,5,,,,,,,,3,,,,69,64
270640,note_off,400,0,8,,,,,,,,5,,,,69,64
270640,note_off,400,0,6,,,,,,,,3,,,,66,64
270720,note_on,80,0,6,,,,,,,,3,,,,66,92
270720,note_on,80,0,8,,,,,,,,5,,,,69,92
270720,note_on,80,0,9,,,,,,,,5,,,,66,92
270720,note_on,80,0,5,,,,,,,,3,,,,69,92
271120,note_off,400,0,8,,,,,,,,5,,,,69,64
271120,note_off,400,0,5,,,,,,,,3,,,,69,64
271120,note_off,400,0,9,,,,,,,,5,,,,66,64
271120,note_off,400,0,6,,,,,,,,3,,,,66,64
271200,note_on,80,0,8,,,,,,,,5,,,,67,92
271200,note_on,80,0,9,,,,,,,,5,,,,64,92
271200,note_on,80,0,5,,,,,,,,3,,,,67,92
271200,note_on,80,0,6,,,,,,,,3,,,,64,92
271440,note_on,0,0,5,,,,,,,,3,,,,66,92
271440,note_on,0,0,9,,,,,,,,5,,,,62,92
271440,note_off,240,0,8,,,,,,,,5,,,,67,64
271440,note_off,240,0,5,,,,,,,,3,,,,67,64
271440,note_on,0,0,8,,,,,,,,5,,,,66,92
271440,note_off,240,0,6,,,,,,,,3,,,,64,64
271440,note_off,240,0,9,,,,,,,,5,,,,64,64
271440,note_on,0,0,6,,,,,,,,3,,,,62,92
271675,note_off,235,0,9,,,,,,,,5,,,,62,64
271675,note_off,235,0,5,,,,,,,,3,,,,66,64
271675,note_off,235,0,8,,,,,,,,5,,,,66,64
271675,note_off,235,0,6,,,,,,,,3,,,,62,64
271680,note_on,5,0,6,,,,,,,,3,,,,64,92
271680,note_on,5,0,8,,,,,,,,5,,,,67,92
271680,note_on,5,0,9,,,,,,,,5,,,,64,92
271680,note_on,5,0,5,,,,,,,,3,,,,67,92
272080,note_off,400,0,6,,,,,,,,3,,,,64,64
272080,note_off,400,0,8,,,,,,,,5,,,,67,64
272080,note_off,400,0,5,,,,,,,,3,,,,67,64
272080,note_off,400,0,9,,,,,,,,5,,,,64,64
272160,note_on,80,0,8,,,,,,,,5,,,,67,92
272160,note_on,80,0,6,,,,,,,,3,,,,64,92
272160,note_on,80,0,5,,,,,,,,3,,,,67,92
272160,note_on,80,0,9,,,,,,,,5,,,,64,92
272560,note_off,400,0,6,,,,,,,,3,,,,64,64
272560,note_off,400,0,9,,,,,,,,5,,,,64,64
272560,note_off,400,0,8,,,,,,,,5,,,,67,64
272560,note_off,400,0,5,,,,,,,,3,,,,67,64
272640,note_on,80,0,6,,,,,,,,3,,,,64,92
272640,note_on,80,0,9,,,,,,,,5,,,,64,92
272640,note_on,80,0,5,,,,,,,,3,,,,67,92
272640,note_on,80,0,8,,,,,,,,5,,,,67,92
273040,note_off,400,0,6,,,,,,,,3,,,,64,64
273040,note_off,400,0,9,,,,,,,,5,,,,64,64
273040,note_off,400,0,8,,,,,,,,5,,,,67,64
273040,note_off,400,0,5,,,,,,,,3,,,,67,64
273120,note_on,80,0,8,,,,,,,,5,,,,67,92
273120,note_on,80,0,9,,,,,,,,5,,,,64,92
273120,note_on,80,0,5,,,,,,,,3,,,,67,92
273120,note_on,80,0,6,,,,,,,,3,,,,64,92
273520,note_off,400,0,9,,,,,,,,5,,,,64,64
273520,note_off,400,0,6,,,,,,,,3,,,,64,64
273520,note_off,400,0,5,,,,,,,,3,,,,67,64
273520,note_off,400,0,8,,,,,,,,5,,,,67,64
273600,note_on,80,0,8,,,,,,,,5,,,,67,92
273600,note_on,80,0,5,,,,,,,,3,,,,67,92
273600,note_on,80,0,6,,,,,,,,3,,,,64,92
273600,note_on,80,0,9,,,,,,,,5,,,,64,92
274000,note_off,400,0,8,,,,,,,,5,,,,67,64
274000,note_off,400,0,6,,,,,,,,3,,,,64,64
274000,note_off,400,0,5,,,,,,,,3,,,,67,64
274000,note_off,400,0,9,,,,,,,,5,,,,64,64
274080,note_on,80,0,5,,,,,,,,3,,,,66,92
274080,note_on,80,0,6,,,,,,,,3,,,,57,92
274080,note_on,80,0,9,,,,,,,,5,,,,57,92
274080,note_on,80,0,8,,,,,,,,5,,,,66,92
274320,note_on,0,0,8,,,,,,,,5,,,,64,92
274320,note_off,240,0,8,,,,,,,,5,,,,66,64
274320,note_off,240,0,5,,,,,,,,3,,,,66,64
274320,note_on,0,0,5,,,,,,,,3,,,,64,92
274480,note_off,400,0,6,,,,,,,,3,,,,57,64
274480,note_off,400,0,9,,,,,,,,5,,,,57,64
274555,note_off,235,0,8,,,,,,,,5,,,,64,64
274555,note_off,235,0,5,,,,,,,,3,,,,64,64
274560,note_on,80,0,6,,,,,,,,3,,,,62,92
274560,note_on,5,0,8,,,,,,,,5,,,,66,92
274560,note_on,5,0,5,,,,,,,,3,,,,66,92
274560,note_on,80,0,9,,,,,,,,5,,,,62,92
274795,note_off,235,0,6,,,,,,,,3,,,,62,64
274795,note_off,235,0,5,,,,,,,,3,,,,66,64
275040,note_on,5400,0,12,,,,,,,,7,,,,62,92
275040,note_on,5400,0,20,,,,,,,,14,,,,50,92
275040,note_on,5840,0,2,,,,,,,,1,,,,78,92
275040,note_on,5400,0,21,,,,,,,,15,,,,38,92
275040,note_on,5840,0,4,,,,,,,,2,,,,78,92
275040,note_on,5840,0,3,,,,,,,,2,,,,74,92
275040,note_on,5400,0,15,,,,,,,,8,,,,38,92
275040,note_on,5400,0,16,,,,,,,,10,,,,50,92
275040,note_on,5840,0,1,,,,,,,,0,,,,86,92
275040,note_on,5400,0,13,,,,,,,,7,,,,57,92
275040,note_on,5400,0,14,,,,,,,,7,,,,50,92
275040,note_on,245,0,6,,,,,,,,3,,,,66,92
275040,note_on,5400,0,19,,,,,,,,13,,,,69,92
275040,note_on,5400,0,7,,,,,,,,4,,,,50,92
275040,note_on,5400,0,17,,,,,,,,11,,,,86,108
275040,note_on,5400,0,18,,,,,,,,12,,,,74,92
275040,note_on,245,0,5,,,,,,,,3,,,,74,92
275400,note_off,840,0,9,,,,,,,,5,,,,62,64
275400,note_off,840,0,8,,,,,,,,5,,,,66,64
275440,note_off,400,0,3,,,,,,,,2,,,,74,64
275440,note_off,400,0,19,,,,,,,,13,,,,69,64
275440,note_off,400,0,18,,,,,,,,12,,,,74,64
275440,note_off,400,0,1,,,,,,,,0,,,,86,64
275440,note_off,400,0,12,,,,,,,,7,,,,62,64
275440,note_off,400,0,16,,,,,,,,10,,,,50,64
275440,note_off,400,0,17,,,,,,,,11,,,,86,64
275440,note_off,400,0,15,,,,,,,,8,,,,38,64
275440,note_off,400,0,4,,,,,,,,2,,,,78,64
275440,note_off,400,0,5,,,,,,,,3,,,,74,64
275440,note_off,400,0,13,,,,,,,,7,,,,57,64
275440,note_off,400,0,21,,,,,,,,15,,,,38,64
275440,note_off,400,0,2,,,,,,,,1,,,,78,64
275440,note_off,400,0,6,,,,,,,,3,,,,66,64
275440,note_off,400,0,20,,,,,,,,14,,,,50,64
275440,note_off,400,0,14,,,,,,,,7,,,,50,64
275440,note_off,400,0,7,,,,,,,,4,,,,50,64
275520,note_on,80,0,7,,,,,,,,4,,,,47,92
275520,note_on,80,0,13,,,,,,,,7,,,,59,92
275520,note_on,80,0,14,,,,,,,,7,,,,47,92
275520,note_on,80,0,17,,,,,,,,11,,,,86,108
275520,note_on,80,0,6,,,,,,,,3,,,,66,92
275520,note_on,80,0,12,,,,,,,,7,,,,62,92
275520,note_on,80,0,21,,,,,,,,15,,,,35,92
275520,note_on,80,0,20,,,,,,,,14,,,,47,92
275520,note_on,80,0,5,,,,,,,,3,,,,74,92
275520,note_on,80,0,19,,,,,,,,13,,,,71,92
275520,note_on,80,0,3,,,,,,,,2,,,,74,92
275520,note_on,80,0,15,,,,,,,,8,,,,35,92
275520,note_on,80,0,2,,,,,,,,1,,,,78,92
275520,note_on,80,0,4,,,,,,,,2,,,,78,92
275520,note_on,80,0,16,,,,,,,,10,,,,50,92
275520,note_on,80,0,18,,,,,,,,12,,,,74,92
275520,note_on,80,0,1,,,,,,,,0,,,,86,92
275920,note_off,400,0,1,,,,,,,,0,,,,86,64
275920,note_off,400,0,19,,,,,,,,13,,,,71,64
275920,note_off,400,0,17,,,,,,,,11,,,,86,64
275920,note_off,400,0,20,,,,,,,,14,,,,47,64
275920,note_off,400,0,15,,,,,,,,8,,,,35,64
275920,note_off,400,0,13,,,,,,,,7,,,,59,64
275920,note_off,400,0,21,,,,,,,,15,,,,35,64
275920,note_off,400,0,18,,,,,,,,12,,,,74,64
275920,note_off,400,0,7,,,,,,,,4,,,,47,64
275920,note_off,400,0,2,,,,,,,,1,,,,78,64
275920,note_off,400,0,6,,,,,,,,3,,,,66,64
275920,note_off,400,0,5,,,,,,,,3,,,,74,64
275920,note_off,400,0,4,,,,,,,,2,,,,78,64
275920,note_off,400,0,12,,,,,,,,7,,,,62,64
275920,note_off,400,0,16,,,,,,,,10,,,,50,64
275920,note_off,400,0,14,,,,,,,,7,,,,47,64
275920,note_off,400,0,3,,,,,,,,2,,,,74,64
276000,note_on,80,0,3,,,,,,,,2,,,,74,92
276000,note_on,80,0,12,,,,,,,,7,,,,62,92
276000,note_on,80,0,17,,,,,,,,11,,,,86,108
276000,note_on,80,0,7,,,,,,,,4,,,,50,92
276000,note_on,80,0,14,,,,,,,,7,,,,50,92
276000,note_on,80,0,5,,,,,,,,3,,,,74,92
276000,note_on,80,0,15,,,,,,,,8,,,,38,92
276000,note_on,80,0,13,,,,,,,,7,,,,59,92
276000,note_on,80,0,21,,,,,,,,15,,,,38,92
276000,note_on,80,0,4,,,,,,,,2,,,,78,92
276000,note_on,80,0,20,,,,,,,,14,,,,50,92
276000,note_on,80,0,19,,,,,,,,13,,,,71,92
276000,note_on,80,0,1,,,,,,,,0,,,,86,92
276000,note_on,80,0,2,,,,,,,,1,,,,78,92
276000,note_on,80,0,6,,,,,,,,3,,,,66,92
276000,note_on,80,0,16,,,,,,,,10,,,,50,92
276000,note_on,80,0,18,,,,,,,,12,,,,74,92
276400,note_off,400,0,14,,,,,,,,7,,,,50,64
276400,note_off,400,0,12,,,,,,,,7,,,,62,64
276400,note_off,400,0,2,,,,,,,,1,,,,78,64
276400,note_off,400,0,5,,,,,,,,3,,,,74,64
276400,note_off,400,0,18,,,,,,,,12,,,,74,64
276400,note_off,400,0,13,,,,,,,,7,,,,59,64
276400,note_off,400,0,21,,,,,,,,15,,,,38,64
276400,note_off,400,0,15,,,,,,,,8,,,,38,64
276400,note_off,400,0,3,,,,,,,,2,,,,74,64
276400,note_off,400,0,4,,,,,,,,2,,,,78,64
276400,note_off,400,0,17,,,,,,,,11,,,,86,64
276400,note_off,400,0,7,,,,,,,,4,,,,50,64
276400,note_off,400,0,16,,,,,,,,10,,,,50,64
276400,note_off,400,0,19,,,,,,,,13,,,,71,64
276400,note_off,400,0,20,,,,,,,,14,,,,50,64
276400,note_off,400,0,1,,,,,,,,0,,,,86,64
276400,note_off,400,0,6,,,,,,,,3,,,,66,64
276480,note_on,80,0,7,,,,,,,,4,,,,52,92
276480,note_on,80,0,6,,,,,,,,3,,,,68,92
276480,note_on,80,0,20,,,,,,,,14,,,,52,92
276480,note_on,80,0,2,,,,,,,,1,,,,80,92
276480,note_on,80,0,4,,,,,,,,2,,,,80,92
276480,note_on,80,0,14,,,,,,,,7,,,,52,92
276480,note_on,80,0,18,,,,,,,,12,,,,74,92
276480,note_on,80,0,1,,,,,,,,0,,,,86,92
276480,note_on,80,0,15,,,,,,,,8,,,,40,92
276480,note_on,80,0,21,,,,,,,,15,,,,40,92
276480,note_on,80,0,5,,,,,,,,3,,,,74,92
276480,note_on,80,0,16,,,,,,,,10,,,,45,92
276480,note_on,80,0,17,,,,,,,,11,,,,86,108
276480,note_on,80,0,3,,,,,,,,2,,,,74,92
276480,note_on,80,0,19,,,,,,,,13,,,,71,92
276480,note_on,80,0,13,,,,,,,,7,,,,59,92
276480,note_on,80,0,12,,,,,,,,7,,,,62,92
276880,note_off,400,0,5,,,,,,,,3,,,,74,64
276880,note_off,400,0,1,,,,,,,,0,,,,86,64
276880,note_off,400,0,3,,,,,,,,2,,,,74,64
276880,note_off,400,0,12,,,,,,,,7,,,,62,64
276880,note_off,400,0,17,,,,,,,,11,,,,86,64
276880,note_off,400,0,18,,,,,,,,12,,,,74,64
276960,note_on,80,0,18,,,,,,,,12,,,,73,92
276960,note_on,80,0,17,,,,,,,,11,,,,85,108
276960,note_on,80,0,5,,,,,,,,3,,,,73,92
276960,note_on,80,0,1,,,,,,,,0,,,,85,92
276960,note_on,80,0,12,,,,,,,,7,,,,61,92
276960,note_on,80,0,3,,,,,,,,2,,,,73,92
277200,note_off,240,0,12,,,,,,,,7,,,,61,64
277200,note_on,0,0,5,,,,,,,,3,,,,71,92
277200,note_on,0,0,17,,,,,,,,11,,,,83,108
277200,note_on,0,0,3,,,,,,,,2,,,,71,92
277200,note_off,240,0,3,,,,,,,,2,,,,73,64
277200,note_on,0,0,18,,,,,,,,12,,,,71,92
277200,note_off,240,0,18,,,,,,,,12,,,,73,64
277200,note_on,0,0,12,,,,,,,,7,,,,59,92
277200,note_off,240,0,5,,,,,,,,3,,,,73,64
277200,note_off,240,0,17,,,,,,,,11,,,,85,64
277200,note_off,240,0,1,,,,,,,,0,,,,85,64
277200,note_on,0,0,1,,,,,,,,0,,,,83,92
277320,note_off,840,0,4,,,,,,,,2,,,,80,64
277320,note_off,840,0,15,,,,,,,,8,,,,40,64
277320,note_off,840,0,6,,,,,,,,3,,,,68,64
277320,note_off,840,0,13,,,,,,,,7,,,,59,64
277320,note_off,840,0,16,,,,,,,,10,,,,45,64
277320,note_off,840,0,19,,,,,,,,13,,,,71,64
277320,note_off,840,0,21,,,,,,,,15,,,,40,64
277320,note_off,840,0,20,,,,,,,,14,,,,52,64
277320,note_off,840,0,2,,,,,,,,1,,,,80,64
277320,note_off,840,0,7,,,,,,,,4,,,,52,64
277320,note_off,840,0,14,,,,,,,,7,,,,52,64
277435,note_off,235,0,18,,,,,,,,12,,,,71,64
277435,note_off,235,0,12,,,,,,,,7,,,,59,64
277435,note_off,235,0,3,,,,,,,,2,,,,71,64
277435,note_off,235,0,5,,,,,,,,3,,,,71,64
277435,note_off,235,0,1,,,,,,,,0,,,,83,64
277435,note_off,235,0,17,,,,,,,,11,,,,83,64
277440,note_on,5,0,3,,,,,,,,2,,,,73,92
277440,note_on,5,0,5,,,,,,,,3,,,,73,92
277440,note_on,5,0,12,,,,,,,,7,,,,61,92
277440,note_on,5,0,17,,,,,,,,11,,,,85,108
277440,note_on,5,0,1,,,,,,,,0,,,,85,92
277440,note_on,5,0,18,,,,,,,,12,,,,73,92
277840,note_off,400,0,5,,,,,,,,3,,,,73,64
277840,note_off,400,0,17,,,,,,,,11,,,,85,64
277840,note_off,400,0,3,,,,,,,,2,,,,73,64
277840,note_off,400,0,18,,,,,,,,12,,,,73,64
277840,note_off,400,0,1,,,,,,,,0,,,,85,64
277840,note_off,400,0,12,,,,,,,,7,,,,61,64
277920,note_on,80,0,3,,,,,,,,2,,,,73,92
277920,note_on,600,0,7,,,,,,,,4,,,,49,92
277920,note_on,600,0,15,,,,,,,,8,,,,37,92
277920,note_on,80,0,5,,,,,,,,3,,,,73,92
277920,note_on,600,0,21,,,,,,,,15,,,,37,92
277920,note_on,600,0,19,,,,,,,,13,,,,69,92
277920,note_on,600,0,14,,,,,,,,7,,,,49,92
277920,note_on,600,0,4,,,,,,,,2,,,,76,92
277920,note_on,600,0,16,,,,,,,,10,,,,45,92
277920,note_on,600,0,6,,,,,,,,3,,,,64,92
277920,note_on,600,0,13,,,,,,,,7,,,,57,92
277920,note_on,80,0,1,,,,,,,,0,,,,85,92
277920,note_on,80,0,18,,,,,,,,12,,,,73,92
277920,note_on,600,0,2,,,,,,,,1,,,,76,92
277920,note_on,600,0,20,,,,,,,,14,,,,49,92
277920,note_on,80,0,12,,,,,,,,7,,,,61,92
277920,note_on,80,0,17,,,,,,,,11,,,,85,108
278320,note_off,400,0,14,,,,,,,,7,,,,49,64
278320,note_off,400,0,13,,,,,,,,7,,,,57,64
278320,note_off,400,0,6,,,,,,,,3,,,,64,64
278320,note_off,400,0,20,,,,,,,,14,,,,49,64
278320,note_off,400,0,19,,,,,,,,13,,,,69,64
278320,note_off,400,0,12,,,,,,,,7,,,,61,64
278320,note_off,400,0,7,,,,,,,,4,,,,49,64
278320,note_off,400,0,5,,,,,,,,3,,,,73,64
278320,note_off,400,0,4,,,,,,,,2,,,,76,64
278320,note_off,400,0,3,,,,,,,,2,,,,73,64
278320,note_off,400,0,18,,,,,,,,12,,,,73,64
278320,note_off,400,0,16,,,,,,,,10,,,,45,64
278320,note_off,400,0,1,,,,,,,,0,,,,85,64
278320,note_off,400,0,15,,,,,,,,8,,,,37,64
278320,note_off,400,0,21,,,,,,,,15,,,,37,64
278320,note_off,400,0,2,,,,,,,,1,,,,76,64
278320,note_off,400,0,17,,,,,,,,11,,,,85,64
278400,note_on,80,0,16,,,,,,,,10,,,,45,92
278400,note_on,80,0,12,,,,,,,,7,,,,61,92
278400,note_on,80,0,3,,,,,,,,2,,,,73,92
278400,note_on,80,0,17,,,,,,,,11,,,,85,108
278400,note_on,80,0,5,,,,,,,,3,,,,73,92
278400,note_on,80,0,21,,,,,,,,15,,,,33,92
278400,note_on,80,0,20,,,,,,,,14,,,,45,92
278400,note_on,80,0,2,,,,,,,,1,,,,81,92
278400,note_on,80,0,6,,,,,,,,3,,,,69,92
278400,note_on,80,0,19,,,,,,,,13,,,,69,92
278400,note_on,80,0,4,,,,,,,,2,,,,81,92
278400,note_on,80,0,7,,,,,,,,4,,,,45,92
278400,note_on,80,0,13,,,,,,,,7,,,,57,92
278400,note_on,80,0,14,,,,,,,,7,,,,45,92
278400,note_on,80,0,18,,,,,,,,12,,,,73,92
278400,note_on,80,0,1,,,,,,,,0,,,,85,92
278400,note_on,80,0,15,,,,,,,,8,,,,33,92
278800,note_off,400,0,20,,,,,,,,14,,,,45,64
278800,note_off,400,0,6,,,,,,,,3,,,,69,64
278800,note_off,400,0,13,,,,,,,,7,,,,57,64
278800,note_off,400,0,1,,,,,,,,0,,,,85,64
278800,note_off,400,0,19,,,,,,,,13,,,,69,64
278800,note_off,400,0,5,,,,,,,,3,,,,73,64
278800,note_off,400,0,7,,,,,,,,4,,,,45,64
278800,note_off,400,0,17,,,,,,,,11,,,,85,64
278800,note_off,400,0,21,,,,,,,,15,,,,33,64
278800,note_off,400,0,4,,,,,,,,2,,,,81,64
278800,note_off,400,0,16,,,,,,,,10,,,,45,64
278800,note_off,400,0,3,,,,,,,,2,,,,73,64
278800,note_off,400,0,2,,,,,,,,1,,,,81,64
278800,note_off,400,0,12,,,,,,,,7,,,,61,64
278800,note_off,400,0,15,,,,,,,,8,,,,33,64
278800,note_off,400,0,14,,,,,,,,7,,,,45,64
278800,note_off,400,0,18,,,,,,,,12,,,,73,64
278880,note_on,80,0,6,,,,,,,,3,,,,64,92
278880,note_on,80,0,13,,,,,,,,7,,,,57,92
278880,note_on,80,0,2,,,,,,,,1,,,,76,92
278880,note_on,80,0,15,,,,,,,,8,,,,37,92
278880,note_on,80,0,1,,,,,,,,0,,,,85,92
278880,note_on,80,0,7,,,,,,,,4,,,,49,92
278880,note_on,80,0,18,,,,,,,,12,,,,73,92
278880,note_on,80,0,17,,,,,,,,11,,,,85,108
278880,note_on,80,0,16,,,,,,,,10,,,,45,92
278880,note_on,80,0,19,,,,,,,,13,,,,69,92
278880,note_on,80,0,4,,,,,,,,2,,,,76,92
278880,note_on,80,0,14,,,,,,,,7,,,,49,92
278880,note_on,80,0,12,,,,,,,,7,,,,61,92
278880,note_on,80,0,20,,,,,,,,14,,,,49,92
278880,note_on,80,0,5,,,,,,,,3,,,,73,92
278880,note_on,80,0,3,,,,,,,,2,,,,73,92
278880,note_on,80,0,21,,,,,,,,15,,,,37,92
279280,note_off,400,0,18,,,,,,,,12,,,,73,64
279280,note_off,400,0,4,,,,,,,,2,,,,76,64
279280,note_off,400,0,12,,,,,,,,7,,,,61,64
279280,note_off,400,0,2,,,,,,,,1,,,,76,64
279280,note_off,400,0,5,,,,,,,,3,,,,73,64
279280,note_off,400,0,13,,,,,,,,7,,,,57,64
279280,note_off,400,0,6,,,,,,,,3,,,,64,64
279280,note_off,400,0,19,,,,,,,,13,,,,69,64
279280,note_off,400,0,7,,,,,,,,4,,,,49,64
279280,note_off,400,0,17,,,,,,,,11,,,,85,64
279280,note_off,400,0,3,,,,,,,,2,,,,73,64
279280,note_off,400,0,16,,,,,,,,10,,,,45,64
279280,note_off,400,0,21,,,,,,,,15,,,,37,64
279280,note_off,400,0,15,,,,,,,,8,,,,37,64
279280,note_off,400,0,1,,,,,,,,0,,,,85,64
279280,note_off,400,0,20,,,,,,,,14,,,,49,64
279280,note_off,400,0,14,,,,,,,,7,,,,49,64
279360,note_on,80,0,5,,,,,,,,3,,,,73,92
279360,note_on,80,0,2,,,,,,,,1,,,,78,92
279360,note_on,80,0,3,,,,,,,,2,,,,73,92
279360,note_on,80,0,17,,,,,,,,11,,,,85,108
279360,note_on,80,0,20,,,,,,,,14,,,,50,92
279360,note_on,80,0,14,,,,,,,,7,,,,50,92
279360,note_on,80,0,16,,,,,,,,10,,,,50,92
279360,note_on,80,0,13,,,,,,,,7,,,,57,92
279360,note_on,80,0,19,,,,,,,,13,,,,69,92
279360,note_on,80,0,1,,,,,,,,0,,,,85,92
279360,note_on,80,0,7,,,,,,,,4,,,,50,92
279360,note_on,80,0,18,,,,,,,,12,,,,73,92
279360,note_on,80,0,21,,,,,,,,15,,,,38,92
279360,note_on,80,0,12,,,,,,,,7,,,,61,92
279360,note_on,80,0,6,,,,,,,,3,,,,66,92
279360,note_on,80,0,15,,,,,,,,8,,,,38,92
279360,note_on,80,0,4,,,,,,,,2,,,,78,92
279760,note_off,400,0,17,,,,,,,,11,,,,85,64
279760,note_off,400,0,18,,,,,,,,12,,,,73,64
279760,note_off,400,0,1,,,,,,,,0,,,,85,64
279760,note_off,400,0,5,,,,,,,,3,,,,73,64
279760,note_off,400,0,12,,,,,,,,7,,,,61,64
279760,note_off,400,0,3,,,,,,,,2,,,,73,64
279840,note_on,80,0,1,,,,,,,,0,,,,83,92
279840,note_on,80,0,17,,,,,,,,11,,,,83,108
279840,note_on,80,0,3,,,,,,,,2,,,,71,92
279840,note_on,80,0,5,,,,,,,,3,,,,71,92
279840,note_on,80,0,18,,,,,,,,12,,,,71,92
279840,note_on,80,0,12,,,,,,,,7,,,,59,92
280080,note_on,0,0,12,,,,,,,,7,,,,57,92
280080,note_on,0,0,18,,,,,,,,12,,,,69,92
280080,note_off,240,0,1,,,,,,,,0,,,,83,64
280080,note_on,0,0,5,,,,,,,,3,,,,69,92
280080,note_on,0,0,1,,,,,,,,0,,,,81,92
280080,note_off,240,0,5,,,,,,,,3,,,,71,64
280080,note_off,240,0,3,,,,,,,,2,,,,71,64
280080,note_off,240,0,18,,,,,,,,12,,,,71,64
280080,note_off,240,0,12,,,,,,,,7,,,,59,64
280080,note_on,0,0,17,,,,,,,,11,,,,81,108
280080,note_off,240,0,17,,,,,,,,11,,,,83,64
280080,note_on,0,0,3,,,,,,,,2,,,,69,92
280200,note_off,840,0,7,,,,,,,,4,,,,50,64
280200,note_off,840,0,13,,,,,,,,7,,,,57,64
280200,note_off,840,0,14,,,,,,,,7,,,,50,64
280200,note_off,840,0,20,,,,,,,,14,,,,50,64
280200,note_off,840,0,6,,,,,,,,3,,,,66,64
280200,note_off,840,0,16,,,,,,,,10,,,,50,64
280200,note_off,840,0,19,,,,,,,,13,,,,69,64
280200,note_off,840,0,15,,,,,,,,8,,,,38,64
280200,note_off,840,0,2,,,,,,,,1,,,,78,64
280200,note_off,840,0,4,,,,,,,,2,,,,78,64
280200,note_off,840,0,21,,,,,,,,15,,,,38,64
280315,note_off,235,0,3,,,,,,,,2,,,,69,64
280315,note_off,235,0,17,,,,,,,,11,,,,81,64
280315,note_off,235,0,5,,,,,,,,3,,,,69,64
280315,note_off,235,0,18,,,,,,,,12,,,,69,64
280315,note_off,235,0,1,,,,,,,,0,,,,81,64
280315,note_off,235,0,12,,,,,,,,7,,,,57,64
280320,note_on,5,0,18,,,,,,,,12,,,,71,92
280320,note_on,5,0,1,,,,,,,,0,,,,83,92
280320,note_on,5,0,12,,,,,,,,7,,,,59,92
280320,note_on,5,0,17,,,,,,,,11,,,,83,108
280320,note_on,5,0,3,,,,,,,,2,,,,71,92
280320,note_on,120,0,19,,,,,,,,13,,,,62,92
280320,note_on,5,0,5,,,,,,,,3,,,,71,92
280555,note_off,235,0,3,,,,,,,,2,,,,71,64
280555,note_off,235,0,18,,,,,,,,12,,,,71,64
280555,note_off,235,0,17,,,,,,,,11,,,,83,64
280555,note_off,235,0,1,,,,,,,,0,,,,83,64
280555,note_off,235,0,5,,,,,,,,3,,,,71,64
280560,note_on,5,0,17,,,,,,,,11,,,,86,108
280560,note_on,5,0,1,,,,,,,,0,,,,86,92
280560,note_on,5,0,5,,,,,,,,3,,,,74,92
280560,note_on,5,0,3,,,,,,,,2,,,,74,92
280560,note_on,5,0,18,,,,,,,,12,,,,74,92
280720,note_off,400,0,12,,,,,,,,7,,,,59,64
280795,note_off,235,0,5,,,,,,,,3,,,,74,64
280795,note_off,235,0,18,,,,,,,,12,,,,74,64
280795,note_off,235,0,3,,,,,,,,2,,,,74,64
280795,note_off,235,0,17,,,,,,,,11,,,,86,64
280795,note_off,235,0,1,,,,,,,,0,,,,86,64
280800,note_on,600,0,16,,,,,,,,10,,,,50,92
280800,note_on,600,0,20,,,,,,,,14,,,,50,92
280800,note_on,80,0,12,,,,,,,,7,,,,62,92
280800,note_on,600,0,14,,,,,,,,7,,,,50,92
280800,note_on,600,0,7,,,,,,,,4,,,,50,92
280800,note_on,600,0,2,,,,,,,,1,,,,78,92
280800,note_on,5,0,1,,,,,,,,0,,,,85,92
280800,note_on,600,0,6,,,,,,,,3,,,,66,92
280800,note_on,600,0,15,,,,,,,,8,,,,38,92
280800,note_on,600,0,4,,,,,,,,2,,,,78,92
280800,note_on,5,0,17,,,,,,,,11,,,,85,108
280800,note_on,5,0,3,,,,,,,,2,,,,73,92
280800,note_on,600,0,13,,,,,,,,7,,,,59,92
280800,note_on,5,0,18,,,,,,,,12,,,,73,92
280800,note_on,5,0,5,,,,,,,,3,,,,73,92
280800,note_on,600,0,21,,,,,,,,15,,,,38,92
281035,note_off,235,0,1,,,,,,,,0,,,,85,64
281035,note_off,235,0,17,,,,,,,,11,,,,85,64
281035,note_off,235,0,3,,,,,,,,2,,,,73,64
281035,note_off,235,0,5,,,,,,,,3,,,,73,64
281035,note_off,235,0,18,,,,,,,,12,,,,73,64
281040,note_on,5,0,3,,,,,,,,2,,,,74,92
281040,note_on,5,0,5,,,,,,,,3,,,,74,92
281040,note_on,5,0,18,,,,,,,,12,,,,74,92
281040,note_on,5,0,17,,,,,,,,11,,,,86,108
281040,note_on,5,0,1,,,,,,,,0,,,,86,92
281160,note_off,840,0,19,,,,,,,,13,,,,62,64
281200,note_off,400,0,16,,,,,,,,10,,,,50,64
281200,note_off,400,0,12,,,,,,,,7,,,,62,64
281200,note_off,400,0,14,,,,,,,,7,,,,50,64
281200,note_off,400,0,7,,,,,,,,4,,,,50,64
281200,note_off,400,0,21,,,,,,,,15,,,,38,64
281200,note_off,400,0,2,,,,,,,,1,,,,78,64
281200,note_off,400,0,15,,,,,,,,8,,,,38,64
281200,note_off,400,0,4,,,,,,,,2,,,,78,64
281200,note_off,400,0,20,,,,,,,,14,,,,50,64
281200,note_off,400,0,6,,,,,,,,3,,,,66,64
281200,note_off,400,0,13,,,,,,,,7,,,,59,64
281275,note_off,235,0,3,,,,,,,,2,,,,74,64
281275,note_off,235,0,18,,,,,,,,12,,,,74,64
281275,note_off,235,0,17,,,,,,,,11,,,,86,64
281275,note_off,235,0,1,,,,,,,,0,,,,86,64
281275,note_off,235,0,5,,,,,,,,3,,,,74,64
281280,note_on,5,0,3,,,,,,,,2,,,,71,92
281280,note_on,5,0,5,,,,,,,,3,,,,71,92
281280,note_on,80,0,12,,,,,,,,7,,,,62,92
281280,note_on,5,0,1,,,,,,,,0,,,,83,92
281280,note_on,80,0,20,,,,,,,,14,,,,62,92
281280,note_on,80,0,7,,,,,,,,4,,,,62,92
281280,note_on,80,0,14,,,,,,,,7,,,,50,92
281280,note_on,80,0,2,,,,,,,,1,,,,78,92
281280,note_on,120,0,19,,,,,,,,13,,,,66,92
281280,note_on,80,0,4,,,,,,,,2,,,,78,92
281280,note_on,5,0,17,,,,,,,,11,,,,83,108
281280,note_on,80,0,15,,,,,,,,8,,,,50,92
281280,note_on,80,0,13,,,,,,,,7,,,,59,92
281280,note_on,80,0,16,,,,,,,,10,,,,50,92
281280,note_on,80,0,21,,,,,,,,15,,,,50,92
281280,note_on,80,0,6,,,,,,,,3,,,,66,92
281280,note_on,5,0,18,,,,,,,,12,,,,71,92
281515,note_off,235,0,3,,,,,,,,2,,,,71,64
281515,note_off,235,0,5,,,,,,,,3,,,,71,64
281515,note_off,235,0,1,,,,,,,,0,,,,83,64
281515,note_off,235,0,18,,,,,,,,12,,,,71,64
281515,note_off,235,0,17,,,,,,,,11,,,,83,64
281520,note_on,5,0,17,,,,,,,,11,,,,86,108
281520,note_on,5,0,18,,,,,,,,12,,,,74,92
281520,note_on,5,0,5,,,,,,,,3,,,,74,92
281520,note_on,5,0,1,,,,,,,,0,,,,86,92
281520,note_on,5,0,3,,,,,,,,2,,,,74,92
281680,note_off,400,0,14,,,,,,,,7,,,,50,64
281680,note_off,400,0,2,,,,,,,,1,,,,78,64
281680,note_off,400,0,7,,,,,,,,4,,,,62,64
281680,note_off,400,0,13,,,,,,,,7,,,,59,64
281680,note_off,400,0,16,,,,,,,,10,,,,50,64
281680,note_off,400,0,20,,,,,,,,14,,,,62,64
281680,note_off,400,0,12,,,,,,,,7,,,,62,64
281680,note_off,400,0,4,,,,,,,,2,,,,78,64
281680,note_off,400,0,6,,,,,,,,3,,,,66,64
281680,note_off,400,0,21,,,,,,,,15,,,,50,64
281680,note_off,400,0,15,,,,,,,,8,,,,50,64
281755,note_off,235,0,17,,,,,,,,11,,,,86,64
281755,note_off,235,0,5,,,,,,,,3,,,,74,64
281755,note_off,235,0,1,,,,,,,,0,,,,86,64
281755,note_off,235,0,18,,,,,,,,12,,,,74,64
281755,note_off,235,0,3,,,,,,,,2,,,,74,64
281760,note_on,5,0,17,,,,,,,,11,,,,85,108
281760,note_on,80,0,2,,,,,,,,1,,,,78,92
281760,note_on,5,0,3,,,,,,,,2,,,,73,92
281760,note_on,5,0,18,,,,,,,,12,,,,73,92
281760,note_on,80,0,16,,,,,,,,10,,,,50,92
281760,note_on,5,0,5,,,,,,,,3,,,,73,92
281760,note_on,80,0,15,,,,,,,,8,,,,50,92
281760,note_on,80,0,7,,,,,,,,4,,,,62,92
281760,note_on,80,0,14,,,,,,,,7,,,,50,92
281760,note_on,80,0,6,,,,,,,,3,,,,66,92
281760,note_on,80,0,20,,,,,,,,14,,,,62,92
281760,note_on,80,0,4,,,,,,,,2,,,,78,92
281760,note_on,80,0,13,,,,,,,,7,,,,59,92
281760,note_on,80,0,12,,,,,,,,7,,,,62,92
281760,note_on,80,0,21,,,,,,,,15,,,,50,92
281760,note_on,5,0,1,,,,,,,,0,,,,85,92
281995,note_off,235,0,5,,,,,,,,3,,,,73,64
281995,note_off,235,0,18,,,,,,,,12,,,,73,64
281995,note_off,235,0,1,,,,,,,,0,,,,85,64
281995,note_off,235,0,3,,,,,,,,2,,,,73,64
281995,note_off,235,0,17,,,,,,,,11,,,,85,64
282000,note_on,5,0,17,,,,,,,,11,,,,86,108
282000,note_on,5,0,18,,,,,,,,12,,,,74,92
282000,note_on,5,0,1,,,,,,,,0,,,,86,92
282000,note_on,5,0,3,,,,,,,,2,,,,74,92
282000,note_on,5,0,5,,,,,,,,3,,,,74,92
282120,note_off,840,0,19,,,,,,,,13,,,,66,64
282160,note_off,400,0,12,,,,,,,,7,,,,62,64
282160,note_off,400,0,6,,,,,,,,3,,,,66,64
282160,note_off,400,0,7,,,,,,,,4,,,,62,64
282160,note_off,400,0,15,,,,,,,,8,,,,50,64
282160,note_off,400,0,21,,,,,,,,15,,,,50,64
282160,note_off,400,0,16,,,,,,,,10,,,,50,64
282160,note_off,400,0,20,,,,,,,,14,,,,62,64
282160,note_off,400,0,4,,,,,,,,2,,,,78,64
282160,note_off,400,0,13,,,,,,,,7,,,,59,64
282160,note_off,400,0,14,,,,,,,,7,,,,50,64
282160,note_off,400,0,2,,,,,,,,1,,,,78,64
282235,note_off,235,0,17,,,,,,,,11,,,,86,64
282235,note_off,235,0,3,,,,,,,,2,,,,74,64
282235,note_off,235,0,18,,,,,,,,12,,,,74,64
282235,note_off,235,0,1,,,,,,,,0,,,,86,64
282235,note_off,235,0,5,,,,,,,,3,,,,74,64
282240,note_on,80,0,6,,,,,,,,3,,,,59,92
282240,note_on,80,0,12,,,,,,,,7,,,,64,92
282240,note_on,80,0,7,,,,,,,,4,,,,62,92
282240,note_on,5,0,3,,,,,,,,2,,,,64,92
282240,note_on,5,0,5,,,,,,,,3,,,,64,92
282240,note_on,80,0,20,,,,,,,,14,,,,62,92
282240,note_on,5,0,1,,,,,,,,0,,,,76,92
282240,note_on,80,0,14,,,,,,,,7,,,,52,92
282240,note_on,5,0,18,,,,,,,,12,,,,64,92
282240,note_on,5,0,17,,,,,,,,11,,,,76,108
282240,note_on,80,0,4,,,,,,,,2,,,,71,92
282240,note_on,80,0,21,,,,,,,,15,,,,50,92
282240,note_on,80,0,16,,,,,,,,10,,,,50,92
282240,note_on,80,0,13,,,,,,,,7,,,,56,92
282240,note_on,120,0,19,,,,,,,,13,,,,68,92
282240,note_on,80,0,15,,,,,,,,8,,,,50,92
282240,note_on,80,0,2,,,,,,,,1,,,,71,92
283080,note_off,840,0,5,,,,,,,,3,,,,64,64
283080,note_off,840,0,6,,,,,,,,3,,,,59,64
283080,note_off,840,0,2,,,,,,,,1,,,,71,64
283080,note_off,840,0,4,,,,,,,,2,,,,71,64
283080,note_off,840,0,7,,,,,,,,4,,,,62,64
283080,note_off,840,0,3,,,,,,,,2,,,,64,64
283080,note_off,840,0,1,,,,,,,,0,,,,76,64
283560,note_off,1320,0,17,,,,,,,,11,,,,76,64
283560,note_off,1320,0,14,,,,,,,,7,,,,52,64
283560,note_off,1320,0,13,,,,,,,,7,,,,56,64
283560,note_off,1320,0,15,,,,,,,,8,,,,50,64
283560,note_off,1320,0,12,,,,,,,,7,,,,64,64
283560,note_off,1320,0,16,,,,,,,,10,,,,50,64
283560,note_off,1320,0,18,,,,,,,,12,,,,64,64
283560,note_off,1320,0,20,,,,,,,,14,,,,62,64
283560,note_off,1320,0,21,,,,,,,,15,,,,50,64
283560,note_off,1320,0,19,,,,,,,,13,,,,68,64
283680,note_on,600,0,6,,,,,,,,3,,,,59,92
283680,note_on,600,0,3,,,,,,,,2,,,,64,92
283680,note_on,600,0,7,,,,,,,,4,,,,62,92
283680,note_on,600,0,4,,,,,,,,2,,,,71,92
283680,note_on,120,0,17,,,,,,,,11,,,,76,108
283680,note_on,120,0,12,,,,,,,,7,,,,64,92
283680,note_on,600,0,2,,,,,,,,1,,,,71,92
283680,note_on,120,0,19,,,,,,,,13,,,,68,92
283680,note_on,120,0,21,,,,,,,,15,,,,50,92
283680,note_on,600,0,5,,,,,,,,3,,,,64,92
283680,note_on,120,0,14,,,,,,,,7,,,,50,92
283680,note_on,120,0,13,,,,,,,,7,,,,56,92
283680,note_on,120,0,20,,,,,,,,14,,,,62,92
283680,note_on,600,0,1,,,,,,,,0,,,,76,92
283680,note_on,120,0,16,,,,,,,,10,,,,50,92
283680,note_on,120,0,15,,,,,,,,8,,,,50,92
283680,note_on,120,0,18,,,,,,,,12,,,,64,92
284080,note_off,400,0,15,,,,,,,,8,,,,50,64
284080,note_off,400,0,13,,,,,,,,7,,,,56,64
284080,note_off,400,0,2,,,,,,,,1,,,,71,64
284080,note_off,400,0,6,,,,,,,,3,,,,59,64
284080,note_off,400,0,16,,,,,,,,10,,,,50,64
284080,note_off,400,0,17,,,,,,,,11,,,,76,64
284080,note_off,400,0,21,,,,,,,,15,,,,50,64
284080,note_off,400,0,19,,,,,,,,13,,,,68,64
284080,note_off,400,0,20,,,,,,,,14,,,,62,64
284080,note_off,400,0,12,,,,,,,,7,,,,64,64
284080,note_off,400,0,5,,,,,,,,3,,,,64,64
284080,note_off,400,0,3,,,,,,,,2,,,,64,64
284080,note_off,400,0,14,,,,,,,,7,,,,50,64
284080,note_off,400,0,1,,,,,,,,0,,,,76,64
284080,note_off,400,0,7,,,,,,,,4,,,,62,64
284080,note_off,400,0,4,,,,,,,,2,,,,71,64
284080,note_off,400,0,18,,,,,,,,12,,,,64,64
284160,note_on,80,0,21,,,,,,,,15,,,,49,92
284160,note_on,80,0,5,,,,,,,,3,,,,69,92
284160,note_on,80,0,16,,,,,,,,10,,,,45,92
284160,note_on,80,0,13,,,,,,,,7,,,,57,92
284160,note_on,80,0,14,,,,,,,,7,,,,49,92
284160,note_on,80,0,15,,,,,,,,8,,,,49,92
284160,note_on,80,0,4,,,,,,,,2,,,,76,92
284160,note_on,80,0,2,,,,,,,,1,,,,76,92
284160,note_on,80,0,7,,,,,,,,4,,,,61,92
284160,note_on,80,0,6,,,,,,,,3,,,,64,92
284160,note_on,80,0,12,,,,,,,,7,,,,61,92
284160,note_on,80,0,3,,,,,,,,2,,,,69,92
284160,note_on,80,0,17,,,,,,,,11,,,,81,108
284160,note_on,80,0,18,,,,,,,,12,,,,69,92
284160,note_on,80,0,1,,,,,,,,0,,,,81,92
284160,note_on,80,0,20,,,,,,,,14,,,,61,92
284160,note_on,80,0,19,,,,,,,,13,,,,69,92
284560,note_off,400,0,20,,,,,,,,14,,,,61,64
284560,note_off,400,0,7,,,,,,,,4,,,,61,64
284560,note_off,400,0,21,,,,,,,,15,,,,49,64
284560,note_off,400,0,16,,,,,,,,10,,,,45,64
284560,note_off,400,0,15,,,,,,,,8,,,,49,64
284560,note_off,400,0,14,,,,,,,,7,,,,49,64
284640,note_on,80,0,14,,,,,,,,7,,,,47,92
284640,note_on,80,0,15,,,,,,,,8,,,,47,92
284640,note_on,80,0,21,,,,,,,,15,,,,47,92
284640,note_on,80,0,16,,,,,,,,10,,,,45,92
284640,note_on,80,0,20,,,,,,,,14,,,,59,92
284640,note_on,80,0,7,,,,,,,,4,,,,59,92
285000,note_off,840,0,19,,,,,,,,13,,,,69,64
285000,note_off,840,0,12,,,,,,,,7,,,,61,64
285000,note_off,840,0,2,,,,,,,,1,,,,76,64
285000,note_off,840,0,4,,,,,,,,2,,,,76,64
285000,note_off,840,0,13,,,,,,,,7,,,,57,64
285000,note_off,840,0,6,,,,,,,,3,,,,64,64
285040,note_off,400,0,7,,,,,,,,4,,,,59,64
285040,note_off,400,0,21,,,,,,,,15,,,,47,64
285040,note_off,400,0,15,,,,,,,,8,,,,47,64
285040,note_off,400,0,20,,,,,,,,14,,,,59,64
285040,note_off,400,0,14,,,,,,,,7,,,,47,64
285040,note_off,400,0,16,,,,,,,,10,,,,45,64
285120,note_on,80,0,21,,,,,,,,15,,,,49,92
285120,note_on,120,0,4,,,,,,,,2,,,,81,92
285120,note_on,80,0,15,,,,,,,,8,,,,49,92
285120,note_on,120,0,6,,,,,,,,3,,,,69,92
285120,note_on,80,0,14,,,,,,,,7,,,,49,92
285120,note_on,80,0,7,,,,,,,,4,,,,61,92
285120,note_on,80,0,20,,,,,,,,14,,,,61,92
285120,note_on,120,0,13,,,,,,,,7,,,,57,92
285120,note_on,120,0,2,,,,,,,,1,,,,81,92
285120,note_on,120,0,19,,,,,,,,13,,,,66,92
285120,note_on,120,0,12,,,,,,,,7,,,,61,92
285120,note_on,80,0,16,,,,,,,,10,,,,45,92
285520,note_off,400,0,16,,,,,,,,10,,,,45,64
285520,note_off,1360,0,18,,,,,,,,12,,,,69,64
285520,note_off,400,0,7,,,,,,,,4,,,,61,64
285520,note_off,400,0,21,,,,,,,,15,,,,49,64
285520,note_off,1360,0,5,,,,,,,,3,,,,69,64
285520,note_off,1360,0,3,,,,,,,,2,,,,69,64
285520,note_off,400,0,15,,,,,,,,8,,,,49,64
285520,note_off,400,0,14,,,,,,,,7,,,,49,64
285520,note_off,1360,0,17,,,,,,,,11,,,,81,64
285520,note_off,1360,0,1,,,,,,,,0,,,,81,64
285520,note_off,400,0,20,,,,,,,,14,,,,61,64
285600,note_on,80,0,7,,,,,,,,4,,,,57,92
285600,note_on,80,0,21,,,,,,,,15,,,,45,92
285600,note_on,80,0,14,,,,,,,,7,,,,45,92
285600,note_on,80,0,20,,,,,,,,14,,,,57,92
285600,note_on,80,0,17,,,,,,,,11,,,,86,108
285600,note_on,80,0,5,,,,,,,,3,,,,74,92
285600,note_on,80,0,3,,,,,,,,2,,,,74,92
285600,note_on,80,0,16,,,,,,,,10,,,,45,92
285600,note_on,80,0,15,,,,,,,,8,,,,45,92
285600,note_on,80,0,1,,,,,,,,0,,,,86,92
285600,note_on,80,0,18,,,,,,,,12,,,,74,92
285960,note_off,840,0,4,,,,,,,,2,,,,81,64
285960,note_off,840,0,2,,,,,,,,1,,,,81,64
285960,note_off,840,0,13,,,,,,,,7,,,,57,64
285960,note_off,840,0,19,,,,,,,,13,,,,66,64
285960,note_off,840,0,6,,,,,,,,3,,,,69,64
285960,note_off,840,0,12,,,,,,,,7,,,,61,64
286000,note_off,400,0,7,,,,,,,,4,,,,57,64
286000,note_off,400,0,14,,,,,,,,7,,,,45,64
286000,note_off,400,0,1,,,,,,,,0,,,,86,64
286000,note_off,400,0,15,,,,,,,,8,,,,45,64
286000,note_off,400,0,16,,,,,,,,10,,,,45,64
286000,note_off,400,0,17,,,,,,,,11,,,,86,64
286000,note_off,400,0,21,,,,,,,,15,,,,45,64
286000,note_off,400,0,5,,,,,,,,3,,,,74,64
286000,note_off,400,0,18,,,,,,,,12,,,,74,64
286000,note_off,400,0,20,,,,,,,,14,,,,57,64
286000,note_off,400,0,3,,,,,,,,2,,,,74,64
286080,note_on,120,0,12,,,,,,,,7,,,,61,92
286080,note_on,80,0,16,,,,,,,,10,,,,45,92
286080,note_on,80,0,14,,,,,,,,7,,,,52,92
286080,note_on,80,0,21,,,,,,,,15,,,,52,92
286080,note_on,120,0,6,,,,,,,,3,,,,69,92
286080,note_on,80,0,5,,,,,,,,3,,,,73,92
286080,note_on,80,0,1,,,,,,,,0,,,,85,92
286080,note_on,80,0,17,,,,,,,,11,,,,85,108
286080,note_on,80,0,7,,,,,,,,4,,,,64,92
286080,note_on,80,0,18,,,,,,,,12,,,,73,92
286080,note_on,80,0,20,,,,,,,,14,,,,64,92
286080,note_on,120,0,19,,,,,,,,13,,,,64,92
286080,note_on,80,0,3,,,,,,,,2,,,,73,92
286080,note_on,120,0,2,,,,,,,,1,,,,81,92
286080,note_on,80,0,15,,,,,,,,8,,,,52,92
286080,note_on,120,0,13,,,,,,,,7,,,,52,92
286080,note_on,120,0,4,,,,,,,,2,,,,81,92
286920,note_off,840,0,3,,,,,,,,2,,,,73,64
286920,note_off,840,0,2,,,,,,,,1,,,,81,64
286920,note_off,840,0,6,,,,,,,,3,,,,69,64
286920,note_off,840,0,18,,,,,,,,12,,,,73,64
286920,note_off,840,0,16,,,,,,,,10,,,,45,64
286920,note_off,840,0,19,,,,,,,,13,,,,64,64
286920,note_off,840,0,7,,,,,,,,4,,,,64,64
286920,note_off,840,0,17,,,,,,,,11,,,,85,64
286920,note_off,840,0,5,,,,,,,,3,,,,73,64
286920,note_off,840,0,12,,,,,,,,7,,,,61,64
286920,note_off,840,0,14,,,,,,,,7,,,,52,64
286920,note_off,840,0,21,,,,,,,,15,,,,52,64
286920,note_off,840,0,20,,,,,,,,14,,,,64,64
286920,note_off,840,0,13,,,,,,,,7,,,,52,64
286920,note_off,840,0,1,,,,,,,,0,,,,85,64
286920,note_off,840,0,4,,,,,,,,2,,,,81,64
286920,note_off,840,0,15,,,,,,,,8,,,,52,64
287040,note_on,120,0,4,,,,,,,,2,,,,80,92
287040,note_on,120,0,17,,,,,,,,11,,,,83,108
287040,note_on,120,0,12,,,,,,,,7,,,,59,92
287040,note_on,120,0,20,,,,,,,,14,,,,52,92
287040,note_on,120,0,3,,,,,,,,2,,,,71,92
287040,note_on,120,0,15,,,,,,,,8,,,,40,92
287040,note_on,120,0,2,,,,,,,,1,,,,80,92
287040,note_on,120,0,1,,,,,,,,0,,,,83,92
287040,note_on,120,0,21,,,,,,,,15,,,,40,92
287040,note_on,120,0,19,,,,,,,,13,,,,64,92
287040,note_on,120,0,16,,,,,,,,10,,,,45,92
287040,note_on,120,0,14,,,,,,,,7,,,,52,92
287040,note_on,120,0,7,,,,,,,,4,,,,52,92
287040,note_on,120,0,18,,,,,,,,12,,,,71,92
287040,note_on,120,0,5,,,,,,,,3,,,,71,92
287040,note_on,120,0,13,,,,,,,,7,,,,52,92
287040,note_on,120,0,6,,,,,,,,3,,,,68,92
287520,note_on,0,0,5,,,,,,,,3,,,,69,92
287520,note_off,480,0,12,,,,,,,,7,,,,59,64
287520,note_off,480,0,5,,,,,,,,3,,,,71,64
287520,note_off,480,0,1,,,,,,,,0,,,,83,64
287520,note_on,0,0,17,,,,,,,,11,,,,81,108
287520,note_off,480,0,17,,,,,,,,11,,,,83,64
287520,note_on,0,0,1,,,,,,,,0,,,,81,92
287520,note_on,0,0,12,,,,,,,,7,,,,57,92
287520,note_off,480,0,18,,,,,,,,12,,,,71,64
287520,note_on,0,0,3,,,,,,,,2,,,,69,92
287520,note_off,480,0,3,,,,,,,,2,,,,71,64
287520,note_on,0,0,18,,,,,,,,12,,,,69,92
287880,note_off,840,0,2,,,,,,,,1,,,,80,64
287880,note_off,840,0,15,,,,,,,,8,,,,40,64
287880,note_off,840,0,19,,,,,,,,13,,,,64,64
287880,note_off,840,0,14,,,,,,,,7,,,,52,64
287880,note_off,840,0,20,,,,,,,,14,,,,52,64
287880,note_off,840,0,4,,,,,,,,2,,,,80,64
287880,note_off,840,0,13,,,,,,,,7,,,,52,64
287880,note_off,840,0,6,,,,,,,,3,,,,68,64
287880,note_off,840,0,7,,,,,,,,4,,,,52,64
287880,note_off,840,0,21,,,,,,,,15,,,,40,64
287880,note_off,840,0,16,,,,,,,,10,,,,45,64
287920,note_off,400,0,3,,,,,,,,2,,,,69,64
287920,note_off,400,0,1,,,,,,,,0,,,,81,64
287920,note_off,400,0,18,,,,,,,,12,,,,69,64
287920,note_off,400,0,17,,,,,,,,11,,,,81,64
287920,note_off,400,0,5,,,,,,,,3,,,,69,64
287920,note_off,400,0,12,,,,,,,,7,,,,57,64
288000,note_on,120,0,2,,,,,,,,1,,,,81,92
288000,note_on,120,0,13,,,,,,,,7,,,,49,92
288000,note_on,120,0,19,,,,,,,,13,,,,61,92
288000,note_on,120,0,16,,,,,,,,10,,,,45,92
288000,note_on,80,0,5,,,,,,,,3,,,,69,92
288000,note_on,80,0,1,,,,,,,,0,,,,81,92
288000,note_on,120,0,7,,,,,,,,4,,,,57,92
288000,note_on,80,0,3,,,,,,,,2,,,,69,92
288000,note_on,120,0,6,,,,,,,,3,,,,69,92
288000,note_on,120,0,4,,,,,,,,2,,,,81,92
288000,note_on,120,0,14,,,,,,,,7,,,,45,92
288000,note_on,80,0,17,,,,,,,,11,,,,81,108
288000,note_on,80,0,18,,,,,,,,12,,,,69,92
288000,note_on,80,0,12,,,,,,,,7,,,,57,92
288000,note_on,120,0,15,,,,,,,,8,,,,45,92
288000,note_on,120,0,21,,,,,,,,15,,,,45,92
288000,note_on,120,0,20,,,,,,,,14,,,,57,92
288840,note_off,840,0,4,,,,,,,,2,,,,81,64
288840,note_off,840,0,3,,,,,,,,2,,,,69,64
288840,note_off,840,0,13,,,,,,,,7,,,,49,64
288840,note_off,840,0,12,,,,,,,,7,,,,57,64
289440,note_on,600,0,3,,,,,,,,2,,,,81,92
289440,note_on,600,0,12,,,,,,,,7,,,,69,92
289440,note_on,600,0,13,,,,,,,,7,,,,66,92
289440,note_on,19800,0,10,,,,,,,,6,,,,81,92
289440,note_on,19800,0,11,,,,,,,,6,,,,78,92
289440,note_on,600,0,4,,,,,,,,2,,,,78,92
289800,note_off,1800,0,2,,,,,,,,1,,,,81,64
289800,note_off,1800,0,16,,,,,,,,10,,,,45,64
289800,note_off,1800,0,5,,,,,,,,3,,,,69,64
289800,note_off,1800,0,1,,,,,,,,0,,,,81,64
289800,note_off,1800,0,21,,,,,,,,15,,,,45,64
289800,note_off,1800,0,6,,,,,,,,3,,,,69,64
289800,note_off,1800,0,19,,,,,,,,13,,,,61,64
289800,note_off,1800,0,20,,,,,,,,14,,,,57,64
289800,note_off,1800,0,18,,,,,,,,12,,,,69,64
289800,note_off,1800,0,7,,,,,,,,4,,,,57,64
289800,note_off,1800,0,15,,,,,,,,8,,,,45,64
289800,note_off,1800,0,14,,,,,,,,7,,,,45,64
289800,note_off,1800,0,17,,,,,,,,11,,,,81,64
289840,note_off,400,0,4,,,,,,,,2,,,,78,64
289840,note_off,400,0,10,,,,,,,,6,,,,81,64
289840,note_off,400,0,11,,,,,,,,6,,,,78,64
289840,note_off,400,0,12,,,,,,,,7,,,,69,64
289840,note_off,400,0,13,,,,,,,,7,,,,66,64
289840,note_off,400,0,3,,,,,,,,2,,,,81,64
289920,note_on,80,0,12,,,,,,,,7,,,,69,92
289920,note_on,80,0,10,,,,,,,,6,,,,81,92
289920,note_on,80,0,13,,,,,,,,7,,,,66,92
289920,note_on,80,0,11,,,,,,,,6,,,,78,92
289920,note_on,80,0,4,,,,,,,,2,,,,78,92
289920,note_on,80,0,3,,,,,,,,2,,,,81,92
290320,note_off,400,0,13,,,,,,,,7,,,,66,64
290320,note_off,400,0,4,,,,,,,,2,,,,78,64
290320,note_off,400,0,10,,,,,,,,6,,,,81,64
290320,note_off,400,0,12,,,,,,,,7,,,,69,64
290320,note_off,400,0,3,,,,,,,,2,,,,81,64
290320,note_off,400,0,11,,,,,,,,6,,,,78,64
290400,note_on,80,0,4,,,,,,,,2,,,,78,92
290400,note_on,80,0,3,,,,,,,,2,,,,81,92
290400,note_on,80,0,10,,,,,,,,6,,,,81,92
290400,note_on,80,0,12,,,,,,,,7,,,,69,92
290400,note_on,80,0,11,,,,,,,,6,,,,78,92
290400,note_on,80,0,13,,,,,,,,7,,,,66,92
290800,note_off,400,0,11,,,,,,,,6,,,,78,64
290800,note_off,400,0,4,,,,,,,,2,,,,78,64
290800,note_off,400,0,12,,,,,,,,7,,,,69,64
290800,note_off,400,0,10,,,,,,,,6,,,,81,64
290800,note_off,400,0,13,,,,,,,,7,,,,66,64
290800,note_off,400,0,3,,,,,,,,2,,,,81,64
290880,note_on,80,0,4,,,,,,,,2,,,,76,92
290880,note_on,80,0,3,,,,,,,,2,,,,79,92
290880,note_on,80,0,10,,,,,,,,6,,,,79,92
290880,note_on,80,0,13,,,,,,,,7,,,,64,92
290880,note_on,80,0,11,,,,,,,,6,,,,76,92
290880,note_on,80,0,12,,,,,,,,7,,,,67,92
291280,note_off,400,0,3,,,,,,,,2,,,,79,64
291280,note_off,400,0,12,,,,,,,,7,,,,67,64
291280,note_off,400,0,4,,,,,,,,2,,,,76,64
291280,note_off,400,0,10,,,,,,,,6,,,,79,64
291280,note_off,400,0,13,,,,,,,,7,,,,64,64
291280,note_off,400,0,11,,,,,,,,6,,,,76,64
291360,note_on,80,0,13,,,,,,,,7,,,,66,92
291360,note_on,80,0,11,,,,,,,,6,,,,78,92
291360,note_on,80,0,12,,,,,,,,7,,,,69,92
291360,note_on,80,0,4,,,,,,,,2,,,,78,92
291360,note_on,80,0,10,,,,,,,,6,,,,81,92
291360,note_on,80,0,3,,,,,,,,2,,,,81,92
291600,note_off,240,0,3,,,,,,,,2,,,,81,64
291600,note_on,0,0,10,,,,,,,,6,,,,79,92
291600,note_off,240,0,10,,,,,,,,6,,,,81,64
291600,note_off,240,0,4,,,,,,,,2,,,,78,64
291600,note_on,0,0,4,,,,,,,,2,,,,76,92
291600,note_off,240,0,11,,,,,,,,6,,,,78,64
291600,note_off,240,0,13,,,,,,,,7,,,,66,64
291600,note_off,240,0,12,,,,,,,,7,,,,69,64
291600,note_on,0,0,13,,,,,,,,7,,,,64,92
291600,note_on,0,0,11,,,,,,,,6,,,,76,92
291600,note_on,0,0,3,,,,,,,,2,,,,79,92
291600,note_on,0,0,12,,,,,,,,7,,,,67,92
291835,note_off,235,0,13,,,,,,,,7,,,,64,64
291835,note_off,235,0,10,,,,,,,,6,,,,79,64
291835,note_off,235,0,3,,,,,,,,2,,,,79,64
291835,note_off,235,0,12,,,,,,,,7,,,,67,64
291835,note_off,235,0,4,,,,,,,,2,,,,76,64
291835,note_off,235,0,11,,,,,,,,6,,,,76,64
291840,note_on,5,0,10,,,,,,,,6,,,,78,92
291840,note_on,5,0,13,,,,,,,,7,,,,62,92
291840,note_on,5,0,4,,,,,,,,2,,,,74,92
291840,note_on,5,0,11,,,,,,,,6,,,,74,92
291840,note_on,5,0,3,,,,,,,,2,,,,78,92
291840,note_on,5,0,12,,,,,,,,7,,,,66,92
292240,note_off,400,0,4,,,,,,,,2,,,,74,64
292240,note_off,400,0,11,,,,,,,,6,,,,74,64
292240,note_off,400,0,3,,,,,,,,2,,,,78,64
292240,note_off,400,0,13,,,,,,,,7,,,,62,64
292240,note_off,400,0,10,,,,,,,,6,,,,78,64
292240,note_off,400,0,12,,,,,,,,7,,,,66,64
292320,note_on,80,0,12,,,,,,,,7,,,,69,92
292320,note_on,80,0,13,,,,,,,,7,,,,66,92
292320,note_on,80,0,10,,,,,,,,6,,,,81,92
292320,note_on,80,0,4,,,,,,,,2,,,,78,92
292320,note_on,80,0,3,,,,,,,,2,,,,81,92
292320,note_on,80,0,11,,,,,,,,6,,,,78,92
292720,note_off,400,0,10,,,,,,,,6,,,,81,64
292720,note_off,400,0,4,,,,,,,,2,,,,78,64
292720,note_off,400,0,11,,,,,,,,6,,,,78,64
292720,note_off,400,0,3,,,,,,,,2,,,,81,64
292720,note_off,400,0,12,,,,,,,,7,,,,69,64
292720,note_off,400,0,13,,,,,,,,7,,,,66,64
292800,note_on,80,0,12,,,,,,,,7,,,,67,92
292800,note_on,80,0,4,,,,,,,,2,,,,76,92
292800,note_on,80,0,13,,,,,,,,7,,,,64,92
292800,note_on,80,0,10,,,,,,,,6,,,,79,92
292800,note_on,80,0,3,,,,,,,,2,,,,79,92
292800,note_on,80,0,11,,,,,,,,6,,,,76,92
293200,note_off,400,0,11,,,,,,,,6,,,,76,64
293200,note_off,400,0,4,,,,,,,,2,,,,76,64
293200,note_off,400,0,13,,,,,,,,7,,,,64,64
293200,note_off,400,0,3,,,,,,,,2,,,,79,64
293200,note_off,400,0,10,,,,,,,,6,,,,79,64
293200,note_off,400,0,12,,,,,,,,7,,,,67,64
293280,note_on,80,0,11,,,,,,,,6,,,,74,92
293280,note_on,80,0,4,,,,,,,,2,,,,74,92
293280,note_on,80,0,10,,,,,,,,6,,,,78,92
293280,note_on,80,0,13,,,,,,,,7,,,,62,92
293280,note_on,80,0,3,,,,,,,,2,,,,78,92
293280,note_on,80,0,12,,,,,,,,7,,,,66,92
293680,note_off,400,0,3,,,,,,,,2,,,,78,64
293680,note_off,400,0,10,,,,,,,,6,,,,78,64
293680,note_off,400,0,12,,,,,,,,7,,,,66,64
293680,note_off,400,0,13,,,,,,,,7,,,,62,64
293680,note_off,400,0,4,,,,,,,,2,,,,74,64
293680,note_off,400,0,11,,,,,,,,6,,,,74,64
293760,note_on,80,0,13,,,,,,,,7,,,,62,92
293760,note_on,80,0,4,,,,,,,,2,,,,74,92
293760,note_on,80,0,11,,,,,,,,6,,,,74,92
293760,note_on,80,0,12,,,,,,,,7,,,,66,92
293760,note_on,80,0,3,,,,,,,,2,,,,78,92
293760,note_on,80,0,10,,,,,,,,6,,,,78,92
294160,note_off,400,0,10,,,,,,,,6,,,,78,64
294160,note_off,400,0,11,,,,,,,,6,,,,74,64
294160,note_off,400,0,4,,,,,,,,2,,,,74,64
294160,note_off,400,0,12,,,,,,,,7,,,,66,64
294160,note_off,400,0,3,,,,,,,,2,,,,78,64
294160,note_off,400,0,13,,,,,,,,7,,,,62,64
294240,note_on,80,0,12,,,,,,,,7,,,,64,92
294240,note_on,80,0,11,,,,,,,,6,,,,66,92
294240,note_on,80,0,4,,,,,,,,2,,,,66,92
294240,note_on,80,0,13,,,,,,,,7,,,,54,92
294240,note_on,80,0,3,,,,,,,,2,,,,76,92
294240,note_on,80,0,10,,,,,,,,6,,,,76,92
294480,note_on,0,0,3,,,,,,,,2,,,,74,92
294480,note_on,0,0,12,,,,,,,,7,,,,62,92
294480,note_off,240,0,10,,,,,,,,6,,,,76,64
294480,note_off,240,0,3,,,,,,,,2,,,,76,64
294480,note_off,240,0,12,,,,,,,,7,,,,64,64
294480,note_on,0,0,10,,,,,,,,6,,,,74,92
294640,note_off,400,0,13,,,,,,,,7,,,,54,64
294640,note_off,400,0,4,,,,,,,,2,,,,66,64
294640,note_off,400,0,11,,,,,,,,6,,,,66,64
294715,note_off,235,0,10,,,,,,,,6,,,,74,64
294715,note_off,235,0,12,,,,,,,,7,,,,62,64
294715,note_off,235,0,3,,,,,,,,2,,,,74,64
294720,note_on,5,0,12,,,,,,,,7,,,,64,92
294720,note_on,80,0,11,,,,,,,,6,,,,69,92
294720,note_on,80,0,13,,,,,,,,7,,,,57,92
294720,note_on,5,0,10,,,,,,,,6,,,,76,92
294720,note_on,80,0,4,,,,,,,,2,,,,69,92
294720,note_on,5,0,3,,,,,,,,2,,,,76,92
295200,note_on,19800,0,9,,,,,,,,5,,,,66,92
295200,note_on,5400,0,5,,,,,,,,3,,,,69,92
295200,note_on,19800,0,8,,,,,,,,5,,,,69,92
295200,note_on,5400,0,6,,,,,,,,3,,,,66,92
295560,note_off,840,0,12,,,,,,,,7,,,,64,64
295560,note_off,840,0,11,,,,,,,,6,,,,69,64
295560,note_off,840,0,13,,,,,,,,7,,,,57,64
295560,note_off,840,0,10,,,,,,,,6,,,,76,64
295560,note_off,840,0,4,,,,,,,,2,,,,69,64
295560,note_off,840,0,3,,,,,,,,2,,,,76,64
295600,note_off,400,0,6,,,,,,,,3,,,,66,64
295600,note_off,400,0,5,,,,,,,,3,,,,69,64
295600,note_off,400,0,9,,,,,,,,5,,,,66,64
295600,note_off,400,0,8,,,,,,,,5,,,,69,64
295680,note_on,80,0,9,,,,,,,,5,,,,66,92
295680,note_on,80,0,5,,,,,,,,3,,,,69,92
295680,note_on,80,0,8,,,,,,,,5,,,,69,92
295680,note_on,80,0,6,,,,,,,,3,,,,66,92
296080,note_off,400,0,9,,,,,,,,5,,,,66,64
296080,note_off,400,0,6,,,,,,,,3,,,,66,64
296080,note_off,400,0,5,,,,,,,,3,,,,69,64
296080,note_off,400,0,8,,,,,,,,5,,,,69,64
296160,note_on,80,0,6,,,,,,,,3,,,,66,92
296160,note_on,80,0,9,,,,,,,,5,,,,66,92
296160,note_on,80,0,5,,,,,,,,3,,,,69,92
296160,note_on,80,0,8,,,,,,,,5,,,,69,92
296560,note_off,400,0,5,,,,,,,,3,,,,69,64
296560,note_off,400,0,6,,,,,,,,3,,,,66,64
296560,note_off,400,0,9,,,,,,,,5,,,,66,64
296560,note_off,400,0,8,,,,,,,,5,,,,69,64
296640,note_on,80,0,8,,,,,,,,5,,,,67,92
296640,note_on,80,0,5,,,,,,,,3,,,,67,92
296640,note_on,80,0,9,,,,,,,,5,,,,64,92
296640,note_on,80,0,6,,,,,,,,3,,,,64,92
297040,note_off,400,0,6,,,,,,,,3,,,,64,64
297040,note_off,400,0,9,,,,,,,,5,,,,64,64
297040,note_off,400,0,8,,,,,,,,5,,,,67,64
297040,note_off,400,0,5,,,,,,,,3,,,,67,64
297120,note_on,80,0,6,,,,,,,,3,,,,66,92
297120,note_on,80,0,8,,,,,,,,5,,,,69,92
297120,note_on,80,0,5,,,,,,,,3,,,,69,92
297120,note_on,80,0,9,,,,,,,,5,,,,66,92
297360,note_on,0,0,6,,,,,,,,3,,,,64,92
297360,note_off,240,0,9,,,,,,,,5,,,,66,64
297360,note_on,0,0,8,,,,,,,,5,,,,67,92
297360,note_on,0,0,9,,,,,,,,5,,,,64,92
297360,note_off,240,0,5,,,,,,,,3,,,,69,64
297360,note_on,0,0,5,,,,,,,,3,,,,67,92
297360,note_off,240,0,8,,,,,,,,5,,,,69,64
297360,note_off,240,0,6,,,,,,,,3,,,,66,64
297595,note_off,235,0,6,,,,,,,,3,,,,64,64
297595,note_off,235,0,9,,,,,,,,5,,,,64,64
297595,note_off,235,0,8,,,,,,,,5,,,,67,64
297595,note_off,235,0,5,,,,,,,,3,,,,67,64
297600,note_on,5,0,6,,,,,,,,3,,,,62,92
297600,note_on,5,0,9,,,,,,,,5,,,,62,92
297600,note_on,5,0,8,,,,,,,,5,,,,66,92
297600,note_on,5,0,5,,,,,,,,3,,,,66,92
298000,note_off,400,0,8,,,,,,,,5,,,,66,64
298000,note_off,400,0,6,,,,,,,,3,,,,62,64
298000,note_off,400,0,5,,,,,,,,3,,,,66,64
298000,note_off,400,0,9,,,,,,,,5,,,,62,64
298080,note_on,80,0,5,,,,,,,,3,,,,69,92
298080,note_on,80,0,6,,,,,,,,3,,,,66,92
298080,note_on,80,0,8,,,,,,,,5,,,,69,92
298080,note_on,80,0,9,,,,,,,,5,,,,66,92
298480,note_off,400,0,6,,,,,,,,3,,,,66,64
298480,note_off,400,0,8,,,,,,,,5,,,,69,64
298480,note_off,400,0,5,,,,,,,,3,,,,69,64
298480,note_off,400,0,9,,,,,,,,5,,,,66,64
298560,note_on,80,0,6,,,,,,,,3,,,,64,92
298560,note_on,80,0,9,,,,,,,,5,,,,64,92
298560,note_on,80,0,5,,,,,,,,3,,,,67,92
298560,note_on,80,0,8,,,,,,,,5,,,,67,92
298960,note_off,400,0,8,,,,,,,,5,,,,67,64
298960,note_off,400,0,6,,,,,,,,3,,,,64,64
298960,note_off,400,0,9,,,,,,,,5,,,,64,64
298960,note_off,400,0,5,,,,,,,,3,,,,67,64
299040,note_on,80,0,6,,,,,,,,3,,,,62,92
299040,note_on,80,0,9,,,,,,,,5,,,,62,92
299040,note_on,80,0,8,,,,,,,,5,,,,66,92
299040,note_on,80,0,5,,,,,,,,3,,,,66,92
299440,note_off,400,0,9,,,,,,,,5,,,,62,64
299440,note_off,400,0,5,,,,,,,,3,,,,66,64
299440,note_off,400,0,6,,,,,,,,3,,,,62,64
299440,note_off,400,0,8,,,,,,,,5,,,,66,64
299520,note_on,80,0,8,,,,,,,,5,,,,66,92
299520,note_on,80,0,5,,,,,,,,3,,,,66,92
299520,note_on,80,0,6,,,,,,,,3,,,,62,92
299520,note_on,80,0,9,,,,,,,,5,,,,62,92
299920,note_off,400,0,6,,,,,,,,3,,,,62,64
299920,note_off,400,0,9,,,,,,,,5,,,,62,64
299920,note_off,400,0,5,,,,,,,,3,,,,66,64
299920,note_off,400,0,8,,,,,,,,5,,,,66,64
300000,note_on,80,0,9,,,,,,,,5,,,,54,92
300000,note_on,80,0,8,,,,,,,,5,,,,64,92
300000,note_on,80,0,5,,,,,,,,3,,,,64,92
300000,note_on,80,0,6,,,,,,,,3,,,,54,92
300240,note_on,0,0,5,,,,,,,,3,,,,62,92
300240,note_off,240,0,8,,,,,,,,5,,,,64,64
300240,note_on,0,0,8,,,,,,,,5,,,,62,92
300240,note_off,240,0,5,,,,,,,,3,,,,64,64
300400,note_off,400,0,9,,,,,,,,5,,,,54,64
300400,note_off,400,0,6,,,,,,,,3,,,,54,64
300475,note_off,235,0,5,,,,,,,,3,,,,62,64
300475,note_off,235,0,8,,,,,,,,5,,,,62,64
300480,note_on,80,0,6,,,,,,,,3,,,,57,92
300480,note_on,80,0,9,,,,,,,,5,,,,57,92
300480,note_on,5,0,8,,,,,,,,5,,,,64,92
300480,note_on,5,0,5,,,,,,,,3,,,,64,92
300715,note_off,235,0,6,,,,,,,,3,,,,57,64
300715,note_off,235,0,5,,,,,,,,3,,,,64,64
300960,note_on,11160,0,18,,,,,,,,12,,,,78,92
300960,note_on,11160,0,1,,,,,,,,0,,,,81,92
300960,note_on,5400,0,13,,,,,,,,7,,,,66,92
300960,note_on,11160,0,16,,,,,,,,10,,,,45,92
300960,note_on,11160,0,15,,,,,,,,8,,,,42,92
300960,note_on,5400,0,3,,,,,,,,2,,,,81,92
300960,note_on,11160,0,19,,,,,,,,13,,,,69,92
300960,note_on,245,0,5,,,,,,,,3,,,,81,92
300960,note_on,11160,0,17,,,,,,,,11,,,,81,108
300960,note_on,11160,0,2,,,,,,,,1,,,,78,92
300960,note_on,11160,0,21,,,,,,,,15,,,,42,92
300960,note_on,11160,0,7,,,,,,,,4,,,,54,92
300960,note_on,245,0,6,,,,,,,,3,,,,78,92
300960,note_on,11160,0,14,,,,,,,,7,,,,54,92
300960,note_on,11160,0,20,,,,,,,,14,,,,54,92
300960,note_on,5400,0,12,,,,,,,,7,,,,69,92
300960,note_on,5400,0,4,,,,,,,,2,,,,78,92
300960,note_on,5400,0,10,,,,,,,,6,,,,81,92
300960,note_on,5400,0,11,,,,,,,,6,,,,78,92
301320,note_off,840,0,8,,,,,,,,5,,,,64,64
301320,note_off,840,0,9,,,,,,,,5,,,,57,64
301360,note_off,400,0,10,,,,,,,,6,,,,81,64
301360,note_off,400,0,21,,,,,,,,15,,,,42,64
301360,note_off,400,0,20,,,,,,,,14,,,,54,64
301360,note_off,400,0,13,,,,,,,,7,,,,66,64
301360,note_off,400,0,19,,,,,,,,13,,,,69,64
301360,note_off,400,0,16,,,,,,,,10,,,,45,64
301360,note_off,400,0,15,,,,,,,,8,,,,42,64
301360,note_off,400,0,12,,,,,,,,7,,,,69,64
301360,note_off,400,0,3,,,,,,,,2,,,,81,64
301360,note_off,400,0,14,,,,,,,,7,,,,54,64
301360,note_off,400,0,18,,,,,,,,12,,,,78,64
301360,note_off,400,0,6,,,,,,,,3,,,,78,64
301360,note_off,400,0,5,,,,,,,,3,,,,81,64
301360,note_off,400,0,4,,,,,,,,2,,,,78,64
301360,note_off,400,0,1,,,,,,,,0,,,,81,64
301360,note_off,400,0,7,,,,,,,,4,,,,54,64
301360,note_off,400,0,17,,,,,,,,11,,,,81,64
301360,note_off,400,0,11,,,,,,,,6,,,,78,64
301360,note_off,400,0,2,,,,,,,,1,,,,78,64
301440,note_on,80,0,3,,,,,,,,2,,,,81,92
301440,note_on,80,0,19,,,,,,,,13,,,,73,92
301440,note_on,80,0,11,,,,,,,,6,,,,78,92
301440,note_on,80,0,18,,,,,,,,12,,,,78,92
301440,note_on,80,0,10,,,,,,,,6,,,,81,92
301440,note_on,80,0,20,,,,,,,,14,,,,57,92
301440,note_on,80,0,13,,,,,,,,7,,,,66,92
301440,note_on,80,0,4,,,,,,,,2,,,,78,92
301440,note_on,80,0,2,,,,,,,,1,,,,78,92
301440,note_on,80,0,15,,,,,,,,8,,,,45,92
301440,note_on,80,0,12,,,,,,,,7,,,,69,92
301440,note_on,80,0,6,,,,,,,,3,,,,78,92
301440,note_on,80,0,5,,,,,,,,3,,,,81,92
301440,note_on,80,0,17,,,,,,,,11,,,,81,108
301440,note_on,80,0,1,,,,,,,,0,,,,81,92
301440,note_on,80,0,21,,,,,,,,15,,,,45,92
301440,note_on,80,0,16,,,,,,,,10,,,,45,92
301440,note_on,80,0,7,,,,,,,,4,,,,57,92
301440,note_on,80,0,14,,,,,,,,7,,,,57,92
301840,note_off,400,0,18,,,,,,,,12,,,,78,64
301840,note_off,400,0,16,,,,,,,,10,,,,45,64
301840,note_off,400,0,10,,,,,,,,6,,,,81,64
301840,note_off,400,0,13,,,,,,,,7,,,,66,64
301840,note_off,400,0,5,,,,,,,,3,,,,81,64
301840,note_off,400,0,14,,,,,,,,7,,,,57,64
301840,note_off,400,0,11,,,,,,,,6,,,,78,64
301840,note_off,400,0,21,,,,,,,,15,,,,45,64
301840,note_off,400,0,12,,,,,,,,7,,,,69,64
301840,note_off,400,0,7,,,,,,,,4,,,,57,64
301840,note_off,400,0,20,,,,,,,,14,,,,57,64
301840,note_off,400,0,1,,,,,,,,0,,,,81,64
301840,note_off,400,0,19,,,,,,,,13,,,,73,64
301840,note_off,400,0,17,,,,,,,,11,,,,81,64
301840,note_off,400,0,4,,,,,,,,2,,,,78,64
301840,note_off,400,0,2,,,,,,,,1,,,,78,64
301840,note_off,400,0,3,,,,,,,,2,,,,81,64
301840,note_off,400,0,15,,,,,,,,8,,,,45,64
301840,note_off,400,0,6,,,,,,,,3,,,,78,64
301920,note_on,80,0,1,,,,,,,,0,,,,81,92
301920,note_on,80,0,18,,,,,,,,12,,,,78,92
301920,note_on,80,0,13,,,,,,,,7,,,,66,92
301920,note_on,80,0,12,,,,,,,,7,,,,69,92
301920,note_on,80,0,5,,,,,,,,3,,,,81,92
301920,note_on,80,0,4,,,,,,,,2,,,,78,92
301920,note_on,80,0,21,,,,,,,,15,,,,42,92
301920,note_on,80,0,16,,,,,,,,10,,,,45,92
301920,note_on,80,0,10,,,,,,,,6,,,,81,92
301920,note_on,80,0,20,,,,,,,,14,,,,54,92
301920,note_on,80,0,6,,,,,,,,3,,,,78,92
301920,note_on,80,0,2,,,,,,,,1,,,,78,92
301920,note_on,80,0,19,,,,,,,,13,,,,69,92
301920,note_on,80,0,3,,,,,,,,2,,,,81,92
301920,note_on,80,0,11,,,,,,,,6,,,,78,92
301920,note_on,80,0,15,,,,,,,,8,,,,42,92
301920,note_on,80,0,14,,,,,,,,7,,,,54,92
301920,note_on,80,0,17,,,,,,,,11,,,,81,108
301920,note_on,80,0,7,,,,,,,,4,,,,54,92
302320,note_off,400,0,17,,,,,,,,11,,,,81,64
302320,note_off,400,0,21,,,,,,,,15,,,,42,64
302320,note_off,400,0,19,,,,,,,,13,,,,69,64
302320,note_off,400,0,3,,,,,,,,2,,,,81,64
302320,note_off,400,0,4,,,,,,,,2,,,,78,64
302320,note_off,400,0,1,,,,,,,,0,,,,81,64
302320,note_off,400,0,18,,,,,,,,12,,,,78,64
302320,note_off,400,0,11,,,,,,,,6,,,,78,64
302320,note_off,400,0,12,,,,,,,,7,,,,69,64
302320,note_off,400,0,6,,,,,,,,3,,,,78,64
302320,note_off,400,0,10,,,,,,,,6,,,,81,64
302320,note_off,400,0,5,,,,,,,,3,,,,81,64
302320,note_off,400,0,20,,,,,,,,14,,,,54,64
302320,note_off,400,0,16,,,,,,,,10,,,,45,64
302320,note_off,400,0,13,,,,,,,,7,,,,66,64
302320,note_off,400,0,14,,,,,,,,7,,,,54,64
302320,note_off,400,0,2,,,,,,,,1,,,,78,64
302320,note_off,400,0,7,,,,,,,,4,,,,54,64
302320,note_off,400,0,15,,,,,,,,8,,,,42,64
302400,note_on,80,0,16,,,,,,,,10,,,,50,92
302400,note_on,80,0,21,,,,,,,,15,,,,47,92
302400,note_on,80,0,2,,,,,,,,1,,,,78,92
302400,note_on,80,0,12,,,,,,,,7,,,,69,92
302400,note_on,80,0,13,,,,,,,,7,,,,66,92
302400,note_on,80,0,7,,,,,,,,4,,,,59,92
302400,note_on,80,0,11,,,,,,,,6,,,,78,92
302400,note_on,80,0,19,,,,,,,,13,,,,74,92
302400,note_on,80,0,15,,,,,,,,8,,,,47,92
302400,note_on,80,0,6,,,,,,,,3,,,,78,92
302400,note_on,80,0,3,,,,,,,,2,,,,81,92
302400,note_on,80,0,10,,,,,,,,6,,,,81,92
302400,note_on,80,0,20,,,,,,,,14,,,,59,92
302400,note_on,80,0,14,,,,,,,,7,,,,59,92
302400,note_on,80,0,17,,,,,,,,11,,,,81,108
302400,note_on,80,0,5,,,,,,,,3,,,,81,92
302400,note_on,80,0,4,,,,,,,,2,,,,78,92
302400,note_on,80,0,18,,,,,,,,12,,,,78,92
302400,note_on,80,0,1,,,,,,,,0,,,,81,92
302800,note_off,400,0,2,,,,,,,,1,,,,78,64
302800,note_off,400,0,12,,,,,,,,7,,,,69,64
302800,note_off,400,0,11,,,,,,,,6,,,,78,64
302800,note_off,400,0,17,,,,,,,,11,,,,81,64
302800,note_off,400,0,18,,,,,,,,12,,,,78,64
302800,note_off,400,0,4,,,,,,,,2,,,,78,64
302800,note_off,400,0,10,,,,,,,,6,,,,81,64
302800,note_off,400,0,6,,,,,,,,3,,,,78,64
302800,note_off,400,0,3,,,,,,,,2,,,,81,64
302800,note_off,400,0,1,,,,,,,,0,,,,81,64
302800,note_off,400,0,5,,,,,,,,3,,,,81,64
302800,note_off,400,0,13,,,,,,,,7,,,,66,64
302880,note_on,80,0,6,,,,,,,,3,,,,76,92
302880,note_on,80,0,13,,,,,,,,7,,,,64,92
302880,note_on,80,0,5,,,,,,,,3,,,,79,92
302880,note_on,80,0,12,,,,,,,,7,,,,67,92
302880,note_on,80,0,1,,,,,,,,0,,,,79,92
302880,note_on,80,0,18,,,,,,,,12,,,,76,92
302880,note_on,80,0,3,,,,,,,,2,,,,79,92
302880,note_on,80,0,2,,,,,,,,1,,,,76,92
302880,note_on,80,0,17,,,,,,,,11,,,,79,108
302880,note_on,80,0,11,,,,,,,,6,,,,76,92
302880,note_on,80,0,4,,,,,,,,2,,,,76,92
302880,note_on,80,0,10,,,,,,,,6,,,,79,92
303120,note_on,0,0,12,,,,,,,,7,,,,66,92
303120,note_off,240,0,12,,,,,,,,7,,,,67,64
303120,note_off,240,0,11,,,,,,,,6,,,,76,64
303120,note_off,240,0,6,,,,,,,,3,,,,76,64
303120,note_on,0,0,17,,,,,,,,11,,,,78,108
303120,note_on,0,0,10,,,,,,,,6,,,,78,92
303120,note_off,240,0,17,,,,,,,,11,,,,79,64
303120,note_off,240,0,3,,,,,,,,2,,,,79,64
303120,note_on,0,0,3,,,,,,,,2,,,,78,92
303120,note_off,240,0,10,,,,,,,,6,,,,79,64
303120,note_on,0,0,4,,,,,,,,2,,,,74,92
303120,note_on,0,0,11,,,,,,,,6,,,,74,92
303120,note_on,0,0,18,,,,,,,,12,,,,74,92
303120,note_on,0,0,5,,,,,,,,3,,,,78,92
303120,note_off,240,0,5,,,,,,,,3,,,,79,64
303120,note_off,240,0,2,,,,,,,,1,,,,76,64
303120,note_on,0,0,2,,,,,,,,1,,,,74,92
303120,note_on,0,0,1,,,,,,,,0,,,,78,92
303120,note_off,240,0,4,,,,,,,,2,,,,76,64
303120,note_on,0,0,6,,,,,,,,3,,,,74,92
303120,note_off,240,0,1,,,,,,,,0,,,,79,64
303120,note_off,240,0,13,,,,,,,,7,,,,64,64
303120,note_on,0,0,13,,,,,,,,7,,,,62,92
303120,note_off,240,0,18,,,,,,,,12,,,,76,64
303240,note_off,840,0,15,,,,,,,,8,,,,47,64
303240,note_off,840,0,19,,,,,,,,13,,,,74,64
303240,note_off,840,0,21,,,,,,,,15,,,,47,64
303240,note_off,840,0,14,,,,,,,,7,,,,59,64
303240,note_off,840,0,16,,,,,,,,10,,,,50,64
303240,note_off,840,0,7,,,,,,,,4,,,,59,64
303240,note_off,840,0,20,,,,,,,,14,,,,59,64
303355,note_off,235,0,18,,,,,,,,12,,,,74,64
303355,note_off,235,0,3,,,,,,,,2,,,,78,64
303355,note_off,235,0,13,,,,,,,,7,,,,62,64
303355,note_off,235,0,12,,,,,,,,7,,,,66,64
303355,note_off,235,0,17,,,,,,,,11,,,,78,64
303355,note_off,235,0,5,,,,,,,,3,,,,78,64
303355,note_off,235,0,2,,,,,,,,1,,,,74,64
303355,note_off,235,0,1,,,,,,,,0,,,,78,64
303355,note_off,235,0,6,,,,,,,,3,,,,74,64
303355,note_off,235,0,10,,,,,,,,6,,,,78,64
303355,note_off,235,0,4,,,,,,,,2,,,,74,64
303355,note_off,235,0,11,,,,,,,,6,,,,74,64
303360,note_on,5,0,13,,,,,,,,7,,,,64,92
303360,note_on,5,0,17,,,,,,,,11,,,,79,108
303360,note_on,120,0,19,,,,,,,,13,,,,64,92
303360,note_on,5,0,10,,,,,,,,6,,,,79,92
303360,note_on,5,0,6,,,,,,,,3,,,,76,92
303360,note_on,5,0,4,,,,,,,,2,,,,76,92
303360,note_on,5,0,18,,,,,,,,12,,,,76,92
303360,note_on,5,0,3,,,,,,,,2,,,,79,92
303360,note_on,5,0,1,,,,,,,,0,,,,79,92
303360,note_on,5,0,2,,,,,,,,1,,,,76,92
303360,note_on,5,0,12,,,,,,,,7,,,,67,92
303360,note_on,5,0,11,,,,,,,,6,,,,76,92
303360,note_on,5,0,5,,,,,,,,3,,,,79,92
303760,note_off,400,0,5,,,,,,,,3,,,,79,64
303760,note_off,400,0,1,,,,,,,,0,,,,79,64
303760,note_off,400,0,2,,,,,,,,1,,,,76,64
303760,note_off,400,0,4,,,,,,,,2,,,,76,64
303760,note_off,400,0,6,,,,,,,,3,,,,76,64
303760,note_off,400,0,18,,,,,,,,12,,,,76,64
303760,note_off,400,0,12,,,,,,,,7,,,,67,64
303760,note_off,400,0,10,,,,,,,,6,,,,79,64
303760,note_off,400,0,3,,,,,,,,2,,,,79,64
303760,note_off,400,0,11,,,,,,,,6,,,,76,64
303760,note_off,400,0,13,,,,,,,,7,,,,64,64
303760,note_off,400,0,17,,,,,,,,11,,,,79,64
303840,note_on,80,0,6,,,,,,,,3,,,,76,92
303840,note_on,80,0,3,,,,,,,,2,,,,79,92
303840,note_on,600,0,14,,,,,,,,7,,,,52,92
303840,note_on,80,0,17,,,,,,,,11,,,,79,108
303840,note_on,80,0,5,,,,,,,,3,,,,79,92
303840,note_on,80,0,2,,,,,,,,1,,,,76,92
303840,note_on,600,0,7,,,,,,,,4,,,,52,92
303840,note_on,80,0,11,,,,,,,,6,,,,76,92
303840,note_on,80,0,12,,,,,,,,7,,,,67,92
303840,note_on,80,0,18,,,,,,,,12,,,,76,92
303840,note_on,600,0,15,,,,,,,,8,,,,40,92
303840,note_on,80,0,1,,,,,,,,0,,,,79,92
303840,note_on,600,0,20,,,,,,,,14,,,,52,92
303840,note_on,80,0,13,,,,,,,,7,,,,64,92
303840,note_on,80,0,4,,,,,,,,2,,,,76,92
303840,note_on,600,0,21,,,,,,,,15,,,,40,92
303840,note_on,80,0,10,,,,,,,,6,,,,79,92
303840,note_on,600,0,16,,,,,,,,10,,,,50,92
304200,note_off,840,0,19,,,,,,,,13,,,,64,64
304240,note_off,400,0,20,,,,,,,,14,,,,52,64
304240,note_off,400,0,11,,,,,,,,6,,,,76,64
304240,note_off,400,0,7,,,,,,,,4,,,,52,64
304240,note_off,400,0,18,,,,,,,,12,,,,76,64
304240,note_off,400,0,13,,,,,,,,7,,,,64,64
304240,note_off,400,0,5,,,,,,,,3,,,,79,64
304240,note_off,400,0,17,,,,,,,,11,,,,79,64
304240,note_off,400,0,12,,,,,,,,7,,,,67,64
304240,note_off,400,0,15,,,,,,,,8,,,,40,64
304240,note_off,400,0,4,,,,,,,,2,,,,76,64
304240,note_off,400,0,6,,,,,,,,3,,,,76,64
304240,note_off,400,0,21,,,,,,,,15,,,,40,64
304240,note_off,400,0,14,,,,,,,,7,,,,52,64
304240,note_off,400,0,16,,,,,,,,10,,,,50,64
304240,note_off,400,0,3,,,,,,,,2,,,,79,64
304240,note_off,400,0,1,,,,,,,,0,,,,79,64
304240,note_off,400,0,2,,,,,,,,1,,,,76,64
304240,note_off,400,0,10,,,,,,,,6,,,,79,64
304320,note_on,80,0,14,,,,,,,,7,,,,55,92
304320,note_on,80,0,12,,,,,,,,7,,,,67,92
304320,note_on,80,0,21,,,,,,,,15,,,,43,92
304320,note_on,80,0,11,,,,,,,,6,,,,76,92
304320,note_on,80,0,10,,,,,,,,6,,,,79,92
304320,note_on,80,0,2,,,,,,,,1,,,,76,92
304320,note_on,80,0,1,,,,,,,,0,,,,79,92
304320,note_on,80,0,18,,,,,,,,12,,,,76,92
304320,note_on,80,0,7,,,,,,,,4,,,,55,92
304320,note_on,120,0,19,,,,,,,,13,,,,71,92
304320,note_on,80,0,5,,,,,,,,3,,,,79,92
304320,note_on,80,0,6,,,,,,,,3,,,,76,92
304320,note_on,80,0,17,,,,,,,,11,,,,79,108
304320,note_on,80,0,3,,,,,,,,2,,,,79,92
304320,note_on,80,0,20,,,,,,,,14,,,,55,92
304320,note_on,80,0,15,,,,,,,,8,,,,43,92
304320,note_on,80,0,16,,,,,,,,10,,,,50,92
304320,note_on,80,0,4,,,,,,,,2,,,,76,92
304320,note_on,80,0,13,,,,,,,,7,,,,64,92
304720,note_off,400,0,15,,,,,,,,8,,,,43,64
304720,note_off,400,0,1,,,,,,,,0,,,,79,64
304720,note_off,400,0,21,,,,,,,,15,,,,43,64
304720,note_off,400,0,18,,,,,,,,12,,,,76,64
304720,note_off,400,0,4,,,,,,,,2,,,,76,64
304720,note_off,400,0,11,,,,,,,,6,,,,76,64
304720,note_off,400,0,20,,,,,,,,14,,,,55,64
304720,note_off,400,0,12,,,,,,,,7,,,,67,64
304720,note_off,400,0,13,,,,,,,,7,,,,64,64
304720,note_off,400,0,2,,,,,,,,1,,,,76,64
304720,note_off,400,0,6,,,,,,,,3,,,,76,64
304720,note_off,400,0,17,,,,,,,,11,,,,79,64
304720,note_off,400,0,7,,,,,,,,4,,,,55,64
304720,note_off,400,0,16,,,,,,,,10,,,,50,64
304720,note_off,400,0,14,,,,,,,,7,,,,55,64
304720,note_off,400,0,3,,,,,,,,2,,,,79,64
304720,note_off,400,0,10,,,,,,,,6,,,,79,64
304720,note_off,400,0,5,,,,,,,,3,,,,79,64
304800,note_on,80,0,5,,,,,,,,3,,,,79,92
304800,note_on,80,0,7,,,,,,,,4,,,,52,92
304800,note_on,80,0,2,,,,,,,,1,,,,74,92
304800,note_on,80,0,15,,,,,,,,8,,,,40,92
304800,note_on,80,0,21,,,,,,,,15,,,,40,92
304800,note_on,80,0,13,,,,,,,,7,,,,64,92
304800,note_on,80,0,16,,,,,,,,10,,,,50,92
304800,note_on,80,0,10,,,,,,,,6,,,,79,92
304800,note_on,80,0,3,,,,,,,,2,,,,79,92
304800,note_on,80,0,4,,,,,,,,2,,,,74,92
304800,note_on,80,0,6,,,,,,,,3,,,,74,92
304800,note_on,80,0,1,,,,,,,,0,,,,79,92
304800,note_on,80,0,17,,,,,,,,11,,,,79,108
304800,note_on,80,0,12,,,,,,,,7,,,,67,92
304800,note_on,80,0,20,,,,,,,,14,,,,52,92
304800,note_on,80,0,11,,,,,,,,6,,,,76,92
304800,note_on,80,0,18,,,,,,,,12,,,,74,92
304800,note_on,80,0,14,,,,,,,,7,,,,52,92
305160,note_off,840,0,19,,,,,,,,13,,,,71,64
305200,note_off,400,0,14,,,,,,,,7,,,,52,64
305200,note_off,400,0,15,,,,,,,,8,,,,40,64
305200,note_off,400,0,3,,,,,,,,2,,,,79,64
305200,note_off,400,0,13,,,,,,,,7,,,,64,64
305200,note_off,400,0,18,,,,,,,,12,,,,74,64
305200,note_off,400,0,1,,,,,,,,0,,,,79,64
305200,note_off,400,0,12,,,,,,,,7,,,,67,64
305200,note_off,400,0,20,,,,,,,,14,,,,52,64
305200,note_off,400,0,21,,,,,,,,15,,,,40,64
305200,note_off,400,0,16,,,,,,,,10,,,,50,64
305200,note_off,400,0,7,,,,,,,,4,,,,52,64
305200,note_off,400,0,10,,,,,,,,6,,,,79,64
305200,note_off,400,0,2,,,,,,,,1,,,,74,64
305200,note_off,400,0,11,,,,,,,,6,,,,76,64
305200,note_off,400,0,4,,,,,,,,2,,,,74,64
305200,note_off,400,0,5,,,,,,,,3,,,,79,64
305200,note_off,400,0,6,,,,,,,,3,,,,74,64
305200,note_off,400,0,17,,,,,,,,11,,,,79,64
305280,note_on,80,0,2,,,,,,,,1,,,,69,92
305280,note_on,80,0,20,,,,,,,,14,,,,57,92
305280,note_on,80,0,12,,,,,,,,7,,,,67,92
305280,note_on,80,0,14,,,,,,,,7,,,,57,92
305280,note_on,80,0,17,,,,,,,,11,,,,79,108
305280,note_on,80,0,4,,,,,,,,2,,,,73,92
305280,note_on,80,0,3,,,,,,,,2,,,,79,92
305280,note_on,80,0,10,,,,,,,,6,,,,79,92
305280,note_on,80,0,16,,,,,,,,10,,,,45,92
305280,note_on,80,0,13,,,,,,,,7,,,,64,92
305280,note_on,80,0,21,,,,,,,,15,,,,45,92
305280,note_on,120,0,19,,,,,,,,13,,,,69,92
305280,note_on,80,0,11,,,,,,,,6,,,,76,92
305280,note_on,80,0,5,,,,,,,,3,,,,79,92
305280,note_on,80,0,1,,,,,,,,0,,,,79,92
305280,note_on,80,0,15,,,,,,,,8,,,,45,92
305280,note_on,80,0,18,,,,,,,,12,,,,73,92
305280,note_on,80,0,6,,,,,,,,3,,,,69,92
305280,note_on,80,0,7,,,,,,,,4,,,,57,92
305680,note_off,400,0,11,,,,,,,,6,,,,76,64
305680,note_off,400,0,13,,,,,,,,7,,,,64,64
305760,note_on,80,0,11,,,,,,,,6,,,,69,92
305760,note_on,80,0,13,,,,,,,,7,,,,57,92
306160,note_off,400,0,13,,,,,,,,7,,,,57,64
306160,note_off,400,0,11,,,,,,,,6,,,,69,64
306240,note_on,80,0,11,,,,,,,,6,,,,69,92
306240,note_on,80,0,13,,,,,,,,7,,,,57,92
306600,note_off,1320,0,15,,,,,,,,8,,,,45,64
306600,note_off,1320,0,6,,,,,,,,3,,,,69,64
306600,note_off,1320,0,20,,,,,,,,14,,,,57,64
306600,note_off,1320,0,19,,,,,,,,13,,,,69,64
306600,note_off,1320,0,4,,,,,,,,2,,,,73,64
306600,note_off,1320,0,2,,,,,,,,1,,,,69,64
306600,note_off,1320,0,18,,,,,,,,12,,,,73,64
306600,note_off,1320,0,7,,,,,,,,4,,,,57,64
306600,note_off,1320,0,21,,,,,,,,15,,,,45,64
306600,note_off,1320,0,14,,,,,,,,7,,,,57,64
306600,note_off,1320,0,16,,,,,,,,10,,,,45,64
306640,note_off,400,0,13,,,,,,,,7,,,,57,64
306640,note_off,400,0,11,,,,,,,,6,,,,69,64
306720,note_on,80,0,13,,,,,,,,7,,,,57,92
306720,note_on,0,0,3,,,,,,,,2,,,,81,92
306720,note_on,0,0,1,,,,,,,,0,,,,81,92
306720,note_on,120,0,16,,,,,,,,10,,,,45,92
306720,note_on,120,0,2,,,,,,,,1,,,,69,92
306720,note_off,1440,0,1,,,,,,,,0,,,,79,64
306720,note_on,0,0,5,,,,,,,,3,,,,81,92
306720,note_off,1440,0,5,,,,,,,,3,,,,79,64
306720,note_on,80,0,11,,,,,,,,6,,,,69,92
306720,note_off,1440,0,3,,,,,,,,2,,,,79,64
306720,note_on,120,0,7,,,,,,,,4,,,,57,92
306720,note_on,120,0,18,,,,,,,,12,,,,73,92
306720,note_off,1440,0,12,,,,,,,,7,,,,67,64
306720,note_on,0,0,12,,,,,,,,7,,,,69,92
306720,note_on,120,0,6,,,,,,,,3,,,,69,92
306720,note_on,0,0,17,,,,,,,,11,,,,81,108
306720,note_off,1440,0,17,,,,,,,,11,,,,79,64
306720,note_on,120,0,4,,,,,,,,2,,,,73,92
306720,note_on,120,0,19,,,,,,,,13,,,,69,92
306720,note_on,120,0,15,,,,,,,,8,,,,45,92
306720,note_on,120,0,20,,,,,,,,14,,,,57,92
306720,note_on,0,0,10,,,,,,,,6,,,,81,92
306720,note_on,120,0,21,,,,,,,,15,,,,45,92
306720,note_off,1440,0,10,,,,,,,,6,,,,79,64
306720,note_on,120,0,14,,,,,,,,7,,,,57,92
307120,note_off,400,0,7,,,,,,,,4,,,,57,64
307120,note_off,400,0,20,,,,,,,,14,,,,57,64
307120,note_off,400,0,6,,,,,,,,3,,,,69,64
307120,note_off,400,0,11,,,,,,,,6,,,,69,64
307120,note_off,400,0,4,,,,,,,,2,,,,73,64
307120,note_off,400,0,21,,,,,,,,15,,,,45,64
307120,note_off,400,0,17,,,,,,,,11,,,,81,64
307120,note_off,400,0,1,,,,,,,,0,,,,81,64
307120,note_off,400,0,19,,,,,,,,13,,,,69,64
307120,note_off,400,0,5,,,,,,,,3,,,,81,64
307120,note_off,400,0,10,,,,,,,,6,,,,81,64
307120,note_off,400,0,2,,,,,,,,1,,,,69,64
307120,note_off,400,0,15,,,,,,,,8,,,,45,64
307120,note_off,400,0,16,,,,,,,,10,,,,45,64
307120,note_off,400,0,18,,,,,,,,12,,,,73,64
307120,note_off,400,0,3,,,,,,,,2,,,,81,64
307120,note_off,400,0,14,,,,,,,,7,,,,57,64
307120,note_off,400,0,13,,,,,,,,7,,,,57,64
307120,note_off,400,0,12,,,,,,,,7,,,,69,64
307200,note_on,80,0,14,,,,,,,,7,,,,59,92
307200,note_on,80,0,6,,,,,,,,3,,,,71,92
307200,note_on,80,0,7,,,,,,,,4,,,,59,92
307200,note_on,80,0,11,,,,,,,,6,,,,74,92
307200,note_on,80,0,18,,,,,,,,12,,,,74,92
307200,note_on,80,0,17,,,,,,,,11,,,,78,108
307200,note_on,80,0,13,,,,,,,,7,,,,62,92
307200,note_on,80,0,15,,,,,,,,8,,,,47,92
307200,note_on,80,0,3,,,,,,,,2,,,,78,92
307200,note_on,80,0,4,,,,,,,,2,,,,74,92
307200,note_on,80,0,20,,,,,,,,14,,,,59,92
307200,note_on,80,0,10,,,,,,,,6,,,,78,92
307200,note_on,80,0,12,,,,,,,,7,,,,66,92
307200,note_on,80,0,2,,,,,,,,1,,,,71,92
307200,note_on,80,0,1,,,,,,,,0,,,,78,92
307200,note_on,80,0,16,,,,,,,,10,,,,50,92
307200,note_on,80,0,5,,,,,,,,3,,,,78,92
307200,note_on,80,0,19,,,,,,,,13,,,,62,92
307200,note_on,80,0,21,,,,,,,,15,,,,47,92
307600,note_off,400,0,16,,,,,,,,10,,,,50,64
307600,note_off,400,0,11,,,,,,,,6,,,,74,64
307600,note_off,400,0,13,,,,,,,,7,,,,62,64
307680,note_off,480,0,5,,,,,,,,3,,,,78,64
307680,note_on,0,0,5,,,,,,,,3,,,,76,92
307680,note_on,80,0,11,,,,,,,,6,,,,69,92
307680,note_off,480,0,12,,,,,,,,7,,,,66,64
307680,note_on,0,0,12,,,,,,,,7,,,,64,92
307680,note_on,0,0,17,,,,,,,,11,,,,76,108
307680,note_off,480,0,17,,,,,,,,11,,,,78,64
307680,note_off,480,0,1,,,,,,,,0,,,,78,64
307680,note_on,80,0,16,,,,,,,,10,,,,50,92
307680,note_on,80,0,13,,,,,,,,7,,,,57,92
307680,note_off,480,0,10,,,,,,,,6,,,,78,64
307680,note_on,0,0,10,,,,,,,,6,,,,76,92
307680,note_on,0,0,3,,,,,,,,2,,,,76,92
307680,note_off,480,0,3,,,,,,,,2,,,,78,64
307680,note_on,0,0,1,,,,,,,,0,,,,76,92
308040,note_off,840,0,2,,,,,,,,1,,,,71,64
308040,note_off,840,0,6,,,,,,,,3,,,,71,64
308080,note_off,400,0,17,,,,,,,,11,,,,76,64
308080,note_off,400,0,11,,,,,,,,6,,,,69,64
308080,note_off,400,0,13,,,,,,,,7,,,,57,64
308080,note_off,400,0,16,,,,,,,,10,,,,50,64
308160,note_off,480,0,5,,,,,,,,3,,,,76,64
308160,note_off,480,0,1,,,,,,,,0,,,,76,64
308160,note_on,80,0,13,,,,,,,,7,,,,50,92
308160,note_off,480,0,3,,,,,,,,2,,,,76,64
308160,note_off,480,0,12,,,,,,,,7,,,,64,64
308160,note_on,120,0,2,,,,,,,,1,,,,67,92
308160,note_on,0,0,12,,,,,,,,7,,,,66,92
308160,note_on,0,0,5,,,,,,,,3,,,,78,92
308160,note_on,0,0,1,,,,,,,,0,,,,78,92
308160,note_on,0,0,3,,,,,,,,2,,,,78,92
308160,note_on,80,0,16,,,,,,,,10,,,,50,92
308160,note_off,480,0,10,,,,,,,,6,,,,76,64
308160,note_on,120,0,6,,,,,,,,3,,,,67,92
308160,note_on,0,0,10,,,,,,,,6,,,,78,92
308160,note_on,80,0,17,,,,,,,,11,,,,78,108
308160,note_on,80,0,11,,,,,,,,6,,,,62,92
308560,note_off,1360,0,18,,,,,,,,12,,,,74,64
308560,note_off,400,0,13,,,,,,,,7,,,,50,64
308560,note_off,1360,0,21,,,,,,,,15,,,,47,64
308560,note_off,1360,0,14,,,,,,,,7,,,,59,64
308560,note_off,1360,0,15,,,,,,,,8,,,,47,64
308560,note_off,1360,0,4,,,,,,,,2,,,,74,64
308560,note_off,400,0,16,,,,,,,,10,,,,50,64
308560,note_off,1360,0,7,,,,,,,,4,,,,59,64
308560,note_off,1360,0,19,,,,,,,,13,,,,62,64
308560,note_off,400,0,11,,,,,,,,6,,,,62,64
308560,note_off,1360,0,20,,,,,,,,14,,,,59,64
308640,note_on,80,0,19,,,,,,,,13,,,,64,92
308640,note_on,80,0,4,,,,,,,,2,,,,76,92
308640,note_on,80,0,13,,,,,,,,7,,,,50,92
308640,note_on,0,0,10,,,,,,,,6,,,,79,92
308640,note_off,480,0,10,,,,,,,,6,,,,78,64
308640,note_on,0,0,3,,,,,,,,2,,,,79,92
308640,note_off,480,0,3,,,,,,,,2,,,,78,64
308640,note_on,80,0,20,,,,,,,,14,,,,55,92
308640,note_off,480,0,1,,,,,,,,0,,,,78,64
308640,note_off,480,0,12,,,,,,,,7,,,,66,64
308640,note_on,80,0,14,,,,,,,,7,,,,55,92
308640,note_on,0,0,12,,,,,,,,7,,,,67,92
308640,note_on,80,0,16,,,,,,,,10,,,,50,92
308640,note_off,480,0,17,,,,,,,,11,,,,78,64
308640,note_on,0,0,5,,,,,,,,3,,,,79,92
308640,note_off,480,0,5,,,,,,,,3,,,,78,64
308640,note_on,0,0,17,,,,,,,,11,,,,79,108
308640,note_on,80,0,18,,,,,,,,12,,,,71,92
308640,note_on,80,0,21,,,,,,,,15,,,,43,92
308640,note_on,80,0,15,,,,,,,,8,,,,43,92
308640,note_on,80,0,11,,,,,,,,6,,,,62,92
308640,note_on,80,0,7,,,,,,,,4,,,,55,92
308640,note_on,0,0,1,,,,,,,,0,,,,79,92
309000,note_off,840,0,6,,,,,,,,3,,,,67,64
309000,note_off,840,0,2,,,,,,,,1,,,,67,64
309040,note_off,400,0,5,,,,,,,,3,,,,79,64
309040,note_off,400,0,18,,,,,,,,12,,,,71,64
309040,note_off,400,0,16,,,,,,,,10,,,,50,64
309040,note_off,400,0,14,,,,,,,,7,,,,55,64
309040,note_off,400,0,10,,,,,,,,6,,,,79,64
309040,note_off,400,0,15,,,,,,,,8,,,,43,64
309040,note_off,400,0,13,,,,,,,,7,,,,50,64
309040,note_off,400,0,12,,,,,,,,7,,,,67,64
309040,note_off,400,0,17,,,,,,,,11,,,,79,64
309040,note_off,400,0,20,,,,,,,,14,,,,55,64
309040,note_off,400,0,3,,,,,,,,2,,,,79,64
309040,note_off,400,0,7,,,,,,,,4,,,,55,64
309040,note_off,400,0,11,,,,,,,,6,,,,62,64
309040,note_off,400,0,1,,,,,,,,0,,,,79,64
309040,note_off,400,0,19,,,,,,,,13,,,,64,64
309040,note_off,400,0,4,,,,,,,,2,,,,76,64
309040,note_off,400,0,21,,,,,,,,15,,,,43,64
309120,note_on,120,0,2,,,,,,,,1,,,,69,92
309120,note_on,120,0,6,,,,,,,,3,,,,69,92
309120,note_on,80,0,11,,,,,,,,6,,,,69,92
309120,note_on,80,0,18,,,,,,,,12,,,,64,92
309120,note_on,80,0,19,,,,,,,,13,,,,61,92
309120,note_on,80,0,12,,,,,,,,7,,,,64,92
309120,note_on,80,0,13,,,,,,,,7,,,,57,92
309120,note_on,80,0,4,,,,,,,,2,,,,73,92
309120,note_on,80,0,7,,,,,,,,4,,,,57,92
309120,note_on,80,0,14,,,,,,,,7,,,,57,92
309120,note_on,80,0,15,,,,,,,,8,,,,45,92
309120,note_on,80,0,17,,,,,,,,11,,,,76,108
309120,note_on,80,0,20,,,,,,,,14,,,,57,92
309120,note_on,80,0,16,,,,,,,,10,,,,45,92
309120,note_on,80,0,21,,,,,,,,15,,,,45,92
309120,note_on,80,0,1,,,,,,,,0,,,,76,92
309120,note_on,80,0,5,,,,,,,,3,,,,76,92
309120,note_on,80,0,3,,,,,,,,2,,,,76,92
309120,note_on,80,0,10,,,,,,,,6,,,,76,92
309240,note_on,0,0,17,,,,,,,,11,,,,78,108
309240,note_on,0,0,3,,,,,,,,2,,,,78,92
309240,note_off,120,0,17,,,,,,,,11,,,,76,64
309240,note_on,0,0,1,,,,,,,,0,,,,78,92
309240,note_off,120,0,1,,,,,,,,0,,,,76,64
309240,note_off,120,0,5,,,,,,,,3,,,,76,64
309240,note_on,0,0,5,,,,,,,,3,,,,78,92
309240,note_off,120,0,3,,,,,,,,2,,,,76,64
309360,note_off,120,0,17,,,,,,,,11,,,,78,64
309360,note_on,0,0,17,,,,,,,,11,,,,76,108
309360,note_on,0,0,1,,,,,,,,0,,,,76,92
309360,note_off,120,0,1,,,,,,,,0,,,,78,64
309360,note_off,120,0,5,,,,,,,,3,,,,78,64
309360,note_on,0,0,5,,,,,,,,3,,,,76,92
309360,note_on,0,0,3,,,,,,,,2,,,,76,92
309360,note_off,120,0,3,,,,,,,,2,,,,78,64
309480,note_off,120,0,5,,,,,,,,3,,,,76,64
309480,note_off,120,0,17,,,,,,,,11,,,,76,64
309480,note_on,0,0,17,,,,,,,,11,,,,78,108
309480,note_on,0,0,1,,,,,,,,0,,,,78,92
309480,note_off,120,0,1,,,,,,,,0,,,,76,64
309480,note_on,0,0,3,,,,,,,,2,,,,78,92
309480,note_off,120,0,3,,,,,,,,2,,,,76,64
309480,note_on,0,0,5,,,,,,,,3,,,,78,92
309520,note_off,400,0,11,,,,,,,,6,,,,69,64
309520,note_off,400,0,13,,,,,,,,7,,,,57,64
309600,note_off,120,0,5,,,,,,,,3,,,,78,64
309600,note_off,120,0,3,,,,,,,,2,,,,78,64
309600,note_on,80,0,13,,,,,,,,7,,,,57,92
309600,note_on,0,0,3,,,,,,,,2,,,,76,92
309600,note_on,0,0,1,,,,,,,,0,,,,76,92
309600,note_off,120,0,1,,,,,,,,0,,,,78,64
309600,note_on,0,0,5,,,,,,,,3,,,,76,92
309600,note_on,80,0,11,,,,,,,,6,,,,69,92
309600,note_off,120,0,17,,,,,,,,11,,,,78,64
309600,note_on,0,0,17,,,,,,,,11,,,,76,108
309720,note_off,120,0,5,,,,,,,,3,,,,76,64
309720,note_on,0,0,17,,,,,,,,11,,,,78,108
309720,note_off,120,0,17,,,,,,,,11,,,,76,64
309720,note_on,0,0,1,,,,,,,,0,,,,78,92
309720,note_off,120,0,1,,,,,,,,0,,,,76,64
309720,note_on,0,0,3,,,,,,,,2,,,,78,92
309720,note_off,120,0,3,,,,,,,,2,,,,76,64
309720,note_on,0,0,5,,,,,,,,3,,,,78,92
309840,note_on,0,0,1,,,,,,,,0,,,,76,92
309840,note_on,0,0,17,,,,,,,,11,,,,76,108
309840,note_off,120,0,5,,,,,,,,3,,,,78,64
309840,note_off,120,0,17,,,,,,,,11,,,,78,64
309840,note_on,0,0,5,,,,,,,,3,,,,76,92
309840,note_on,0,0,3,,,,,,,,2,,,,76,92
309840,note_off,120,0,1,,,,,,,,0,,,,78,64
309840,note_off,120,0,3,,,,,,,,2,,,,78,64
309960,note_off,840,0,14,,,,,,,,7,,,,57,64
309960,note_on,0,0,3,,,,,,,,2,,,,78,92
309960,note_off,120,0,3,,,,,,,,2,,,,76,64
309960,note_on,0,0,17,,,,,,,,11,,,,78,108
309960,note_off,840,0,21,,,,,,,,15,,,,45,64
309960,note_off,120,0,17,,,,,,,,11,,,,76,64
309960,note_off,840,0,20,,,,,,,,14,,,,57,64
309960,note_off,840,0,16,,,,,,,,10,,,,45,64
309960,note_off,840,0,15,,,,,,,,8,,,,45,64
309960,note_off,840,0,18,,,,,,,,12,,,,64,64
309960,note_off,120,0,1,,,,,,,,0,,,,76,64
309960,note_off,120,0,5,,,,,,,,3,,,,76,64
309960,note_on,0,0,1,,,,,,,,0,,,,78,92
309960,note_on,0,0,5,,,,,,,,3,,,,78,92
309960,note_off,840,0,2,,,,,,,,1,,,,69,64
309960,note_off,840,0,6,,,,,,,,3,,,,69,64
309960,note_off,840,0,7,,,,,,,,4,,,,57,64
310000,note_off,400,0,13,,,,,,,,7,,,,57,64
310000,note_off,400,0,11,,,,,,,,6,,,,69,64
310080,note_on,80,0,11,,,,,,,,6,,,,69,92
310080,note_on,0,0,5,,,,,,,,3,,,,76,92
310080,note_off,120,0,3,,,,,,,,2,,,,78,64
310080,note_off,120,0,5,,,,,,,,3,,,,78,64
310080,note_on,80,0,13,,,,,,,,7,,,,57,92
310080,note_off,120,0,17,,,,,,,,11,,,,78,64
310080,note_on,0,0,17,,,,,,,,11,,,,76,108
310080,note_on,120,0,14,,,,,,,,7,,,,45,92
310080,note_on,120,0,7,,,,,,,,4,,,,45,92
310080,note_on,0,0,3,,,,,,,,2,,,,76,92
310080,note_on,120,0,6,,,,,,,,3,,,,69,92
310080,note_on,120,0,20,,,,,,,,14,,,,45,92
310080,note_on,120,0,15,,,,,,,,8,,,,33,92
310080,note_on,120,0,18,,,,,,,,12,,,,69,92
310080,note_on,120,0,16,,,,,,,,10,,,,45,92
310080,note_on,0,0,1,,,,,,,,0,,,,76,92
310080,note_off,120,0,1,,,,,,,,0,,,,78,64
310080,note_on,120,0,21,,,,,,,,15,,,,33,92
310080,note_on,120,0,2,,,,,,,,1,,,,69,92
310200,note_on,0,0,3,,,,,,,,2,,,,78,92
310200,note_off,120,0,17,,,,,,,,11,,,,76,64
310200,note_off,120,0,1,,,,,,,,0,,,,76,64
310200,note_on,0,0,1,,,,,,,,0,,,,78,92
310200,note_on,0,0,17,,,,,,,,11,,,,78,108
310200,note_off,120,0,3,,,,,,,,2,,,,76,64
310200,note_off,120,0,5,,,,,,,,3,,,,76,64
310200,note_on,0,0,5,,,,,,,,3,,,,78,92
310320,note_on,0,0,1,,,,,,,,0,,,,74,92
310320,note_off,120,0,1,,,,,,,,0,,,,78,64
310320,note_on,0,0,3,,,,,,,,2,,,,74,92
310320,note_off,120,0,3,,,,,,,,2,,,,78,64
310320,note_off,120,0,17,,,,,,,,11,,,,78,64
310320,note_on,0,0,17,,,,,,,,11,,,,74,108
310320,note_off,120,0,5,,,,,,,,3,,,,78,64
310320,note_on,0,0,5,,,,,,,,3,,,,74,92
310440,note_off,120,0,17,,,,,,,,11,,,,74,64
310440,note_on,0,0,17,,,,,,,,11,,,,76,108
310440,note_on,0,0,1,,,,,,,,0,,,,76,92
310440,note_off,120,0,3,,,,,,,,2,,,,74,64
310440,note_off,120,0,5,,,,,,,,3,,,,74,64
310440,note_on,0,0,5,,,,,,,,3,,,,76,92
310440,note_off,120,0,1,,,,,,,,0,,,,74,64
310440,note_on,0,0,3,,,,,,,,2,,,,76,92
310480,note_off,400,0,13,,,,,,,,7,,,,57,64
310480,note_off,400,0,11,,,,,,,,6,,,,69,64
310560,note_off,120,0,5,,,,,,,,3,,,,76,64
310560,note_on,0,0,5,,,,,,,,3,,,,74,92
310560,note_off,120,0,17,,,,,,,,11,,,,76,64
310560,note_on,0,0,17,,,,,,,,11,,,,74,108
310560,note_off,120,0,1,,,,,,,,0,,,,76,64
310560,note_off,1440,0,10,,,,,,,,6,,,,76,64
310560,note_on,0,0,1,,,,,,,,0,,,,74,92
310560,note_on,0,0,10,,,,,,,,6,,,,74,92
310560,note_off,1440,0,12,,,,,,,,7,,,,64,64
310560,note_on,80,0,13,,,,,,,,7,,,,57,92
310560,note_on,0,0,4,,,,,,,,2,,,,74,92
310560,note_off,1440,0,4,,,,,,,,2,,,,73,64
310560,note_off,1440,0,19,,,,,,,,13,,,,61,64
310560,note_off,120,0,3,,,,,,,,2,,,,76,64
310560,note_on,80,0,11,,,,,,,,6,,,,69,92
310560,note_on,0,0,19,,,,,,,,13,,,,62,92
310560,note_on,0,0,12,,,,,,,,7,,,,62,92
310560,note_on,0,0,3,,,,,,,,2,,,,74,92
310920,note_off,840,0,21,,,,,,,,15,,,,33,64
310920,note_off,840,0,16,,,,,,,,10,,,,45,64
310920,note_off,840,0,7,,,,,,,,4,,,,45,64
310920,note_off,840,0,6,,,,,,,,3,,,,69,64
310920,note_off,840,0,14,,,,,,,,7,,,,45,64
310920,note_off,840,0,15,,,,,,,,8,,,,33,64
310920,note_off,840,0,18,,,,,,,,12,,,,69,64
310920,note_off,840,0,20,,,,,,,,14,,,,45,64
310920,note_off,840,0,2,,,,,,,,1,,,,69,64
310960,note_off,400,0,13,,,,,,,,7,,,,57,64
310960,note_off,400,0,11,,,,,,,,6,,,,69,64
310960,note_off,400,0,17,,,,,,,,11,,,,74,64
310960,note_off,400,0,1,,,,,,,,0,,,,74,64
310960,note_off,400,0,19,,,,,,,,13,,,,62,64
310960,note_off,400,0,12,,,,,,,,7,,,,62,64
310960,note_off,400,0,5,,,,,,,,3,,,,74,64
310960,note_off,400,0,4,,,,,,,,2,,,,74,64
310960,note_off,400,0,10,,,,,,,,6,,,,74,64
310960,note_off,400,0,3,,,,,,,,2,,,,74,64
311040,note_on,80,0,3,,,,,,,,2,,,,74,92
311040,note_on,120,0,20,,,,,,,,14,,,,50,92
311040,note_on,120,0,21,,,,,,,,15,,,,38,92
311040,note_on,120,0,16,,,,,,,,10,,,,50,92
311040,note_on,80,0,1,,,,,,,,0,,,,74,92
311040,note_on,120,0,15,,,,,,,,8,,,,38,92
311040,note_on,80,0,11,,,,,,,,6,,,,66,92
311040,note_on,120,0,18,,,,,,,,12,,,,66,92
311040,note_on,80,0,19,,,,,,,,13,,,,62,92
311040,note_on,120,0,2,,,,,,,,1,,,,66,92
311040,note_on,80,0,17,,,,,,,,11,,,,74,108
311040,note_on,120,0,7,,,,,,,,4,,,,50,92
311040,note_on,120,0,6,,,,,,,,3,,,,66,92
311040,note_on,80,0,5,,,,,,,,3,,,,74,92
311040,note_on,120,0,14,,,,,,,,7,,,,50,92
311040,note_on,80,0,4,,,,,,,,2,,,,74,92
311040,note_on,80,0,10,,,,,,,,6,,,,74,92
311040,note_on,80,0,13,,,,,,,,7,,,,54,92
311040,note_on,80,0,12,,,,,,,,7,,,,62,92
311440,note_off,400,0,7,,,,,,,,4,,,,50,64
311440,note_off,400,0,16,,,,,,,,10,,,,50,64
311440,note_off,400,0,21,,,,,,,,15,,,,38,64
311440,note_off,400,0,20,,,,,,,,14,,,,50,64
311440,note_off,400,0,14,,,,,,,,7,,,,50,64
311440,note_off,400,0,15,,,,,,,,8,,,,38,64
311520,note_on,80,0,14,,,,,,,,7,,,,62,92
311520,note_on,80,0,20,,,,,,,,14,,,,62,92
311520,note_on,80,0,16,,,,,,,,10,,,,45,92
311520,note_on,80,0,15,,,,,,,,8,,,,50,92
311520,note_on,80,0,21,,,,,,,,15,,,,50,92
311520,note_on,80,0,7,,,,,,,,4,,,,62,92
311880,note_off,840,0,12,,,,,,,,7,,,,62,64
311880,note_off,840,0,13,,,,,,,,7,,,,54,64
311880,note_off,840,0,19,,,,,,,,13,,,,62,64
311880,note_off,840,0,18,,,,,,,,12,,,,66,64
311880,note_off,840,0,5,,,,,,,,3,,,,74,64
311880,note_off,840,0,17,,,,,,,,11,,,,74,64
311880,note_off,840,0,6,,,,,,,,3,,,,66,64
311880,note_off,840,0,4,,,,,,,,2,,,,74,64
311880,note_off,840,0,10,,,,,,,,6,,,,74,64
311880,note_off,840,0,11,,,,,,,,6,,,,66,64
311880,note_off,840,0,1,,,,,,,,0,,,,74,64
311880,note_off,840,0,2,,,,,,,,1,,,,66,64
311880,note_off,840,0,3,,,,,,,,2,,,,74,64
311920,note_off,400,0,14,,,,,,,,7,,,,62,64
311920,note_off,400,0,20,,,,,,,,14,,,,62,64
311920,note_off,400,0,16,,,,,,,,10,,,,45,64
311920,note_off,400,0,7,,,,,,,,4,,,,62,64
311920,note_off,400,0,21,,,,,,,,15,,,,50,64
311920,note_off,400,0,15,,,,,,,,8,,,,50,64
312000,note_on,80,0,7,,,,,,,,4,,,,57,92
312000,note_on,80,0,21,,,,,,,,15,,,,45,92
312000,note_on,80,0,15,,,,,,,,8,,,,45,92
312000,note_on,80,0,20,,,,,,,,14,,,,57,92
312000,note_on,80,0,16,,,,,,,,10,,,,50,92
312000,note_on,80,0,14,,,,,,,,7,,,,57,92
312400,note_off,400,0,16,,,,,,,,10,,,,50,64
312400,note_off,400,0,14,,,,,,,,7,,,,57,64
312400,note_off,400,0,15,,,,,,,,8,,,,45,64
312400,note_off,400,0,20,,,,,,,,14,,,,57,64
312400,note_off,400,0,21,,,,,,,,15,,,,45,64
312400,note_off,400,0,7,,,,,,,,4,,,,57,64
312480,note_on,80,0,21,,,,,,,,15,,,,42,92
312480,note_on,600,0,10,,,,,,,,6,,,,81,92
312480,note_on,600,0,4,,,,,,,,2,,,,78,92
312480,note_on,600,0,12,,,,,,,,7,,,,69,92
312480,note_on,80,0,14,,,,,,,,7,,,,54,92
312480,note_on,11160,0,9,,,,,,,,5,,,,66,92
312480,note_on,600,0,1,,,,,,,,0,,,,81,92
312480,note_on,11160,0,8,,,,,,,,5,,,,69,92
312480,note_on,80,0,16,,,,,,,,10,,,,45,92
312480,note_on,600,0,6,,,,,,,,3,,,,78,92
312480,note_on,80,0,15,,,,,,,,8,,,,42,92
312480,note_on,600,0,19,,,,,,,,13,,,,69,92
312480,note_on,600,0,5,,,,,,,,3,,,,81,92
312480,note_on,80,0,7,,,,,,,,4,,,,54,92
312480,note_on,600,0,11,,,,,,,,6,,,,78,92
312480,note_on,600,0,3,,,,,,,,2,,,,81,92
312480,note_on,600,0,2,,,,,,,,1,,,,78,92
312480,note_on,600,0,18,,,,,,,,12,,,,78,92
312480,note_on,600,0,17,,,,,,,,11,,,,81,108
312480,note_on,600,0,13,,,,,,,,7,,,,66,92
312480,note_on,80,0,20,,,,,,,,14,,,,54,92
312880,note_off,400,0,10,,,,,,,,6,,,,81,64
312880,note_off,400,0,4,,,,,,,,2,,,,78,64
312880,note_off,400,0,9,,,,,,,,5,,,,66,64
312880,note_off,400,0,21,,,,,,,,15,,,,42,64
312880,note_off,400,0,2,,,,,,,,1,,,,78,64
312880,note_off,400,0,14,,,,,,,,7,,,,54,64
312880,note_off,400,0,12,,,,,,,,7,,,,69,64
312880,note_off,400,0,7,,,,,,,,4,,,,54,64
312880,note_off,400,0,19,,,,,,,,13,,,,69,64
312880,note_off,400,0,11,,,,,,,,6,,,,78,64
312880,note_off,400,0,1,,,,,,,,0,,,,81,64
312880,note_off,400,0,6,,,,,,,,3,,,,78,64
312880,note_off,400,0,3,,,,,,,,2,,,,81,64
312880,note_off,400,0,18,,,,,,,,12,,,,78,64
312880,note_off,400,0,5,,,,,,,,3,,,,81,64
312880,note_off,400,0,13,,,,,,,,7,,,,66,64
312880,note_off,400,0,16,,,,,,,,10,,,,45,64
312880,note_off,400,0,8,,,,,,,,5,,,,69,64
312880,note_off,400,0,15,,,,,,,,8,,,,42,64
312880,note_off,400,0,17,,,,,,,,11,,,,81,64
312880,note_off,400,0,20,,,,,,,,14,,,,54,64
312960,note_on,80,0,3,,,,,,,,2,,,,81,92
312960,note_on,80,0,4,,,,,,,,2,,,,78,92
312960,note_on,80,0,20,,,,,,,,14,,,,57,92
312960,note_on,80,0,21,,,,,,,,15,,,,45,92
312960,note_on,80,0,10,,,,,,,,6,,,,81,92
312960,note_on,80,0,16,,,,,,,,10,,,,50,92
312960,note_on,80,0,7,,,,,,,,4,,,,57,92
312960,note_on,80,0,8,,,,,,,,5,,,,69,92
312960,note_on,80,0,17,,,,,,,,11,,,,81,108
312960,note_on,80,0,12,,,,,,,,7,,,,69,92
312960,note_on,80,0,18,,,,,,,,12,,,,78,92
312960,note_on,80,0,1,,,,,,,,0,,,,81,92
312960,note_on,80,0,11,,,,,,,,6,,,,78,92
312960,note_on,80,0,5,,,,,,,,3,,,,81,92
312960,note_on,80,0,14,,,,,,,,7,,,,57,92
312960,note_on,80,0,13,,,,,,,,7,,,,66,92
312960,note_on,80,0,19,,,,,,,,13,,,,73,92
312960,note_on,80,0,15,,,,,,,,8,,,,45,92
312960,note_on,80,0,9,,,,,,,,5,,,,66,92
312960,note_on,80,0,6,,,,,,,,3,,,,78,92
312960,note_on,80,0,2,,,,,,,,1,,,,78,92
313360,note_off,400,0,13,,,,,,,,7,,,,66,64
313360,note_off,400,0,4,,,,,,,,2,,,,78,64
313360,note_off,400,0,15,,,,,,,,8,,,,45,64
313360,note_off,400,0,14,,,,,,,,7,,,,57,64
313360,note_off,400,0,12,,,,,,,,7,,,,69,64
313360,note_off,400,0,17,,,,,,,,11,,,,81,64
313360,note_off,400,0,6,,,,,,,,3,,,,78,64
313360,note_off,400,0,2,,,,,,,,1,,,,78,64
313360,note_off,400,0,8,,,,,,,,5,,,,69,64
313360,note_off,400,0,16,,,,,,,,10,,,,50,64
313360,note_off,400,0,11,,,,,,,,6,,,,78,64
313360,note_off,400,0,18,,,,,,,,12,,,,78,64
313360,note_off,400,0,5,,,,,,,,3,,,,81,64
313360,note_off,400,0,9,,,,,,,,5,,,,66,64
313360,note_off,400,0,7,,,,,,,,4,,,,57,64
313360,note_off,400,0,10,,,,,,,,6,,,,81,64
313360,note_off,400,0,19,,,,,,,,13,,,,73,64
313360,note_off,400,0,20,,,,,,,,14,,,,57,64
313360,note_off,400,0,1,,,,,,,,0,,,,81,64
313360,note_off,400,0,3,,,,,,,,2,,,,81,64
313360,note_off,400,0,21,,,,,,,,15,,,,45,64
313440,note_on,80,0,13,,,,,,,,7,,,,66,92
313440,note_on,80,0,9,,,,,,,,5,,,,66,92
313440,note_on,80,0,15,,,,,,,,8,,,,42,92
313440,note_on,80,0,14,,,,,,,,7,,,,54,92
313440,note_on,80,0,19,,,,,,,,13,,,,69,92
313440,note_on,80,0,12,,,,,,,,7,,,,69,92
313440,note_on,80,0,18,,,,,,,,12,,,,78,92
313440,note_on,80,0,20,,,,,,,,14,,,,54,92
313440,note_on,80,0,6,,,,,,,,3,,,,78,92
313440,note_on,80,0,8,,,,,,,,5,,,,69,92
313440,note_on,80,0,21,,,,,,,,15,,,,42,92
313440,note_on,80,0,4,,,,,,,,2,,,,78,92
313440,note_on,80,0,1,,,,,,,,0,,,,81,92
313440,note_on,80,0,2,,,,,,,,1,,,,78,92
313440,note_on,80,0,17,,,,,,,,11,,,,81,108
313440,note_on,80,0,7,,,,,,,,4,,,,54,92
313440,note_on,80,0,10,,,,,,,,6,,,,81,92
313440,note_on,80,0,5,,,,,,,,3,,,,81,92
313440,note_on,80,0,16,,,,,,,,10,,,,45,92
313440,note_on,80,0,11,,,,,,,,6,,,,78,92
313440,note_on,80,0,3,,,,,,,,2,,,,81,92
313840,note_off,400,0,3,,,,,,,,2,,,,81,64
313840,note_off,400,0,18,,,,,,,,12,,,,78,64
313840,note_off,400,0,20,,,,,,,,14,,,,54,64
313840,note_off,400,0,7,,,,,,,,4,,,,54,64
313840,note_off,400,0,13,,,,,,,,7,,,,66,64
313840,note_off,400,0,12,,,,,,,,7,,,,69,64
313840,note_off,400,0,14,,,,,,,,7,,,,54,64
313840,note_off,400,0,2,,,,,,,,1,,,,78,64
313840,note_off,400,0,15,,,,,,,,8,,,,42,64
313840,note_off,400,0,16,,,,,,,,10,,,,45,64
313840,note_off,400,0,5,,,,,,,,3,,,,81,64
313840,note_off,400,0,6,,,,,,,,3,,,,78,64
313840,note_off,400,0,17,,,,,,,,11,,,,81,64
313840,note_off,400,0,9,,,,,,,,5,,,,66,64
313840,note_off,400,0,8,,,,,,,,5,,,,69,64
313840,note_off,400,0,19,,,,,,,,13,,,,69,64
313840,note_off,400,0,21,,,,,,,,15,,,,42,64
313840,note_off,400,0,10,,,,,,,,6,,,,81,64
313840,note_off,400,0,1,,,,,,,,0,,,,81,64
313840,note_off,400,0,4,,,,,,,,2,,,,78,64
313840,note_off,400,0,11,,,,,,,,6,,,,78,64
313920,note_on,80,0,19,,,,,,,,13,,,,74,92
313920,note_on,80,0,1,,,,,,,,0,,,,81,92
313920,note_on,80,0,20,,,,,,,,14,,,,59,92
313920,note_on,80,0,12,,,,,,,,7,,,,69,92
313920,note_on,80,0,21,,,,,,,,15,,,,47,92
313920,note_on,80,0,5,,,,,,,,3,,,,81,92
313920,note_on,80,0,3,,,,,,,,2,,,,81,92
313920,note_on,80,0,7,,,,,,,,4,,,,59,92
313920,note_on,80,0,10,,,,,,,,6,,,,81,92
313920,note_on,80,0,9,,,,,,,,5,,,,66,92
313920,note_on,80,0,18,,,,,,,,12,,,,78,92
313920,note_on,80,0,16,,,,,,,,10,,,,50,92
313920,note_on,80,0,2,,,,,,,,1,,,,78,92
313920,note_on,80,0,13,,,,,,,,7,,,,66,92
313920,note_on,80,0,17,,,,,,,,11,,,,81,108
313920,note_on,80,0,4,,,,,,,,2,,,,78,92
313920,note_on,80,0,11,,,,,,,,6,,,,78,92
313920,note_on,80,0,6,,,,,,,,3,,,,78,92
313920,note_on,80,0,14,,,,,,,,7,,,,59,92
313920,note_on,80,0,15,,,,,,,,8,,,,47,92
313920,note_on,80,0,8,,,,,,,,5,,,,69,92
314320,note_off,400,0,12,,,,,,,,7,,,,69,64
314320,note_off,400,0,10,,,,,,,,6,,,,81,64
314320,note_off,400,0,18,,,,,,,,12,,,,78,64
314320,note_off,400,0,4,,,,,,,,2,,,,78,64
314320,note_off,400,0,11,,,,,,,,6,,,,78,64
314320,note_off,400,0,8,,,,,,,,5,,,,69,64
314320,note_off,400,0,2,,,,,,,,1,,,,78,64
314320,note_off,400,0,9,,,,,,,,5,,,,66,64
314320,note_off,400,0,6,,,,,,,,3,,,,78,64
314320,note_off,400,0,5,,,,,,,,3,,,,81,64
314320,note_off,400,0,13,,,,,,,,7,,,,66,64
314320,note_off,400,0,3,,,,,,,,2,,,,81,64
314320,note_off,400,0,17,,,,,,,,11,,,,81,64
314320,note_off,400,0,1,,,,,,,,0,,,,81,64
314400,note_on,80,0,18,,,,,,,,12,,,,76,92
314400,note_on,80,0,6,,,,,,,,3,,,,76,92
314400,note_on,80,0,13,,,,,,,,7,,,,64,92
314400,note_on,80,0,10,,,,,,,,6,,,,79,92
314400,note_on,80,0,4,,,,,,,,2,,,,76,92
314400,note_on,80,0,9,,,,,,,,5,,,,64,92
314400,note_on,80,0,11,,,,,,,,6,,,,76,92
314400,note_on,80,0,1,,,,,,,,0,,,,79,92
314400,note_on,80,0,3,,,,,,,,2,,,,79,92
314400,note_on,80,0,12,,,,,,,,7,,,,67,92
314400,note_on,80,0,17,,,,,,,,11,,,,79,108
314400,note_on,80,0,5,,,,,,,,3,,,,79,92
314400,note_on,80,0,8,,,,,,,,5,,,,67,92
314400,note_on,80,0,2,,,,,,,,1,,,,76,92
314640,note_on,0,0,6,,,,,,,,3,,,,74,92
314640,note_off,240,0,10,,,,,,,,6,,,,79,64
314640,note_on,0,0,10,,,,,,,,6,,,,78,92
314640,note_on,0,0,1,,,,,,,,0,,,,78,92
314640,note_on,0,0,3,,,,,,,,2,,,,78,92
314640,note_on,0,0,8,,,,,,,,5,,,,66,92
314640,note_off,240,0,2,,,,,,,,1,,,,76,64
314640,note_on,0,0,2,,,,,,,,1,,,,74,92
314640,note_on,0,0,4,,,,,,,,2,,,,74,92
314640,note_off,240,0,4,,,,,,,,2,,,,76,64
314640,note_on,0,0,11,,,,,,,,6,,,,74,92
314640,note_off,240,0,11,,,,,,,,6,,,,76,64
314640,note_off,240,0,17,,,,,,,,11,,,,79,64
314640,note_off,240,0,8,,,,,,,,5,,,,67,64
314640,note_off,240,0,6,,,,,,,,3,,,,76,64
314640,note_on,0,0,17,,,,,,,,11,,,,78,108
314640,note_on,0,0,13,,,,,,,,7,,,,62,92
314640,note_off,240,0,1,,,,,,,,0,,,,79,64
314640,note_off,240,0,3,,,,,,,,2,,,,79,64
314640,note_off,240,0,12,,,,,,,,7,,,,67,64
314640,note_on,0,0,12,,,,,,,,7,,,,66,92
314640,note_on,0,0,18,,,,,,,,12,,,,74,92
314640,note_off,240,0,18,,,,,,,,12,,,,76,64
314640,note_off,240,0,13,,,,,,,,7,,,,64,64
314640,note_on,0,0,9,,,,,,,,5,,,,62,92
314640,note_off,240,0,5,,,,,,,,3,,,,79,64
314640,note_on,0,0,5,,,,,,,,3,,,,78,92
314640,note_off,240,0,9,,,,,,,,5,,,,64,64
314760,note_off,840,0,19,,,,,,,,13,,,,74,64
314760,note_off,840,0,16,,,,,,,,10,,,,50,64
314875,note_off,235,0,6,,,,,,,,3,,,,74,64
314875,note_off,235,0,12,,,,,,,,7,,,,66,64
314875,note_off,235,0,11,,,,,,,,6,,,,74,64
314875,note_off,235,0,1,,,,,,,,0,,,,78,64
314875,note_off,235,0,3,,,,,,,,2,,,,78,64
314875,note_off,235,0,17,,,,,,,,11,,,,78,64
314875,note_off,235,0,2,,,,,,,,1,,,,74,64
314875,note_off,235,0,13,,,,,,,,7,,,,62,64
314875,note_off,235,0,9,,,,,,,,5,,,,62,64
314875,note_off,235,0,10,,,,,,,,6,,,,78,64
314875,note_off,235,0,8,,,,,,,,5,,,,66,64
314875,note_off,235,0,5,,,,,,,,3,,,,78,64
314875,note_off,235,0,18,,,,,,,,12,,,,74,64
314875,note_off,235,0,4,,,,,,,,2,,,,74,64
314880,note_on,5,0,9,,,,,,,,5,,,,64,92
314880,note_on,5,0,10,,,,,,,,6,,,,79,92
314880,note_on,5,0,5,,,,,,,,3,,,,79,92
314880,note_on,120,0,19,,,,,,,,13,,,,64,92
314880,note_on,5,0,4,,,,,,,,2,,,,76,92
314880,note_on,5,0,3,,,,,,,,2,,,,79,92
314880,note_on,5,0,17,,,,,,,,11,,,,79,108
314880,note_on,5,0,1,,,,,,,,0,,,,79,92
314880,note_on,5,0,11,,,,,,,,6,,,,76,92
314880,note_on,5,0,12,,,,,,,,7,,,,67,92
314880,note_on,5,0,2,,,,,,,,1,,,,76,92
314880,note_on,5,0,13,,,,,,,,7,,,,64,92
314880,note_on,5,0,6,,,,,,,,3,,,,76,92
314880,note_on,5,0,18,,,,,,,,12,,,,76,92
314880,note_on,5,0,8,,,,,,,,5,,,,67,92
315240,note_off,1320,0,14,,,,,,,,7,,,,59,64
315240,note_off,1320,0,20,,,,,,,,14,,,,59,64
315240,note_off,1320,0,7,,,,,,,,4,,,,59,64
315240,note_off,1320,0,15,,,,,,,,8,,,,47,64
315240,note_off,1320,0,21,,,,,,,,15,,,,47,64
315280,note_off,400,0,18,,,,,,,,12,,,,76,64
315280,note_off,400,0,17,,,,,,,,11,,,,79,64
315280,note_off,400,0,9,,,,,,,,5,,,,64,64
315280,note_off,400,0,12,,,,,,,,7,,,,67,64
315280,note_off,400,0,3,,,,,,,,2,,,,79,64
315280,note_off,400,0,5,,,,,,,,3,,,,79,64
315280,note_off,400,0,13,,,,,,,,7,,,,64,64
315280,note_off,400,0,6,,,,,,,,3,,,,76,64
315280,note_off,400,0,11,,,,,,,,6,,,,76,64
315280,note_off,400,0,1,,,,,,,,0,,,,79,64
315280,note_off,400,0,8,,,,,,,,5,,,,67,64
315280,note_off,400,0,2,,,,,,,,1,,,,76,64
315280,note_off,400,0,4,,,,,,,,2,,,,76,64
315280,note_off,400,0,10,,,,,,,,6,,,,79,64
315360,note_on,80,0,18,,,,,,,,12,,,,76,92
315360,note_on,80,0,17,,,,,,,,11,,,,79,108
315360,note_on,80,0,3,,,,,,,,2,,,,79,92
315360,note_on,80,0,12,,,,,,,,7,,,,67,92
315360,note_on,80,0,10,,,,,,,,6,,,,79,92
315360,note_on,120,0,14,,,,,,,,7,,,,52,92
315360,note_on,80,0,9,,,,,,,,5,,,,64,92
315360,note_on,80,0,13,,,,,,,,7,,,,64,92
315360,note_on,80,0,1,,,,,,,,0,,,,79,92
315360,note_on,120,0,21,,,,,,,,15,,,,40,92
315360,note_on,120,0,15,,,,,,,,8,,,,40,92
315360,note_on,600,0,16,,,,,,,,10,,,,50,92
315360,note_on,80,0,4,,,,,,,,2,,,,76,92
315360,note_on,80,0,11,,,,,,,,6,,,,76,92
315360,note_on,80,0,2,,,,,,,,1,,,,76,92
315360,note_on,120,0,20,,,,,,,,14,,,,52,92
315360,note_on,80,0,6,,,,,,,,3,,,,76,92
315360,note_on,120,0,7,,,,,,,,4,,,,52,92
315360,note_on,80,0,5,,,,,,,,3,,,,79,92
315360,note_on,80,0,8,,,,,,,,5,,,,67,92
315720,note_off,840,0,19,,,,,,,,13,,,,64,64
315760,note_off,400,0,13,,,,,,,,7,,,,64,64
315760,note_off,400,0,18,,,,,,,,12,,,,76,64
315760,note_off,400,0,16,,,,,,,,10,,,,50,64
315760,note_off,400,0,10,,,,,,,,6,,,,79,64
315760,note_off,400,0,17,,,,,,,,11,,,,79,64
315760,note_off,400,0,5,,,,,,,,3,,,,79,64
315760,note_off,400,0,21,,,,,,,,15,,,,40,64
315760,note_off,400,0,1,,,,,,,,0,,,,79,64
315760,note_off,400,0,20,,,,,,,,14,,,,52,64
315760,note_off,400,0,4,,,,,,,,2,,,,76,64
315760,note_off,400,0,3,,,,,,,,2,,,,79,64
315760,note_off,400,0,14,,,,,,,,7,,,,52,64
315760,note_off,400,0,12,,,,,,,,7,,,,67,64
315760,note_off,400,0,2,,,,,,,,1,,,,76,64
315760,note_off,400,0,6,,,,,,,,3,,,,76,64
315760,note_off,400,0,15,,,,,,,,8,,,,40,64
315760,note_off,400,0,9,,,,,,,,5,,,,64,64
315760,note_off,400,0,8,,,,,,,,5,,,,67,64
315760,note_off,400,0,7,,,,,,,,4,,,,52,64
315760,note_off,400,0,11,,,,,,,,6,,,,76,64
315840,note_on,80,0,14,,,,,,,,7,,,,55,92
315840,note_on,80,0,3,,,,,,,,2,,,,79,92
315840,note_on,80,0,7,,,,,,,,4,,,,55,92
315840,note_on,120,0,19,,,,,,,,13,,,,71,92
315840,note_on,80,0,16,,,,,,,,10,,,,50,92
315840,note_on,80,0,12,,,,,,,,7,,,,67,92
315840,note_on,80,0,1,,,,,,,,0,,,,79,92
315840,note_on,80,0,17,,,,,,,,11,,,,79,108
315840,note_on,80,0,20,,,,,,,,14,,,,55,92
315840,note_on,80,0,2,,,,,,,,1,,,,76,92
315840,note_on,80,0,9,,,,,,,,5,,,,64,92
315840,note_on,80,0,15,,,,,,,,8,,,,43,92
315840,note_on,80,0,8,,,,,,,,5,,,,67,92
315840,note_on,80,0,6,,,,,,,,3,,,,76,92
315840,note_on,80,0,11,,,,,,,,6,,,,76,92
315840,note_on,80,0,5,,,,,,,,3,,,,79,92
315840,note_on,80,0,4,,,,,,,,2,,,,76,92
315840,note_on,80,0,18,,,,,,,,12,,,,76,92
315840,note_on,80,0,13,,,,,,,,7,,,,64,92
315840,note_on,80,0,21,,,,,,,,15,,,,43,92
315840,note_on,80,0,10,,,,,,,,6,,,,79,92
316240,note_off,400,0,13,,,,,,,,7,,,,64,64
316240,note_off,400,0,1,,,,,,,,0,,,,79,64
316240,note_off,400,0,12,,,,,,,,7,,,,67,64
316240,note_off,400,0,15,,,,,,,,8,,,,43,64
316240,note_off,400,0,4,,,,,,,,2,,,,76,64
316240,note_off,400,0,6,,,,,,,,3,,,,76,64
316240,note_off,400,0,7,,,,,,,,4,,,,55,64
316240,note_off,400,0,2,,,,,,,,1,,,,76,64
316240,note_off,400,0,9,,,,,,,,5,,,,64,64
316240,note_off,400,0,8,,,,,,,,5,,,,67,64
316240,note_off,400,0,11,,,,,,,,6,,,,76,64
316240,note_off,400,0,21,,,,,,,,15,,,,43,64
316240,note_off,400,0,10,,,,,,,,6,,,,79,64
316240,note_off,400,0,5,,,,,,,,3,,,,79,64
316240,note_off,400,0,14,,,,,,,,7,,,,55,64
316240,note_off,400,0,20,,,,,,,,14,,,,55,64
316240,note_off,400,0,16,,,,,,,,10,,,,50,64
316240,note_off,400,0,3,,,,,,,,2,,,,79,64
316240,note_off,400,0,17,,,,,,,,11,,,,79,64
316240,note_off,400,0,18,,,,,,,,12,,,,76,64
316320,note_on,80,0,18,,,,,,,,12,,,,74,92
316320,note_on,80,0,20,,,,,,,,14,,,,52,92
316320,note_on,80,0,3,,,,,,,,2,,,,79,92
316320,note_on,80,0,13,,,,,,,,7,,,,62,92
316320,note_on,80,0,6,,,,,,,,3,,,,74,92
316320,note_on,80,0,11,,,,,,,,6,,,,74,92
316320,note_on,80,0,12,,,,,,,,7,,,,67,92
316320,note_on,80,0,8,,,,,,,,5,,,,67,92
316320,note_on,80,0,2,,,,,,,,1,,,,74,92
316320,note_on,80,0,4,,,,,,,,2,,,,74,92
316320,note_on,80,0,7,,,,,,,,4,,,,52,92
316320,note_on,80,0,14,,,,,,,,7,,,,52,92
316320,note_on,80,0,17,,,,,,,,11,,,,79,108
316320,note_on,80,0,15,,,,,,,,8,,,,40,92
316320,note_on,80,0,16,,,,,,,,10,,,,50,92
316320,note_on,80,0,1,,,,,,,,0,,,,79,92
316320,note_on,80,0,10,,,,,,,,6,,,,79,92
316320,note_on,80,0,5,,,,,,,,3,,,,79,92
316320,note_on,80,0,21,,,,,,,,15,,,,40,92
316320,note_on,80,0,9,,,,,,,,5,,,,64,92
316680,note_off,840,0,19,,,,,,,,13,,,,71,64
316720,note_off,400,0,1,,,,,,,,0,,,,79,64
316720,note_off,400,0,5,,,,,,,,3,,,,79,64
316720,note_off,400,0,20,,,,,,,,14,,,,52,64
316720,note_off,400,0,14,,,,,,,,7,,,,52,64
316720,note_off,400,0,10,,,,,,,,6,,,,79,64
316720,note_off,400,0,3,,,,,,,,2,,,,79,64
316720,note_off,400,0,17,,,,,,,,11,,,,79,64
316720,note_off,400,0,16,,,,,,,,10,,,,50,64
316720,note_off,400,0,12,,,,,,,,7,,,,67,64
316720,note_off,400,0,18,,,,,,,,12,,,,74,64
316720,note_off,400,0,11,,,,,,,,6,,,,74,64
316720,note_off,400,0,2,,,,,,,,1,,,,74,64
316720,note_off,400,0,21,,,,,,,,15,,,,40,64
316720,note_off,400,0,15,,,,,,,,8,,,,40,64
316720,note_off,400,0,6,,,,,,,,3,,,,74,64
316720,note_off,400,0,13,,,,,,,,7,,,,62,64
316720,note_off,400,0,8,,,,,,,,5,,,,67,64
316720,note_off,400,0,4,,,,,,,,2,,,,74,64
316720,note_off,400,0,9,,,,,,,,5,,,,64,64
316720,note_off,400,0,7,,,,,,,,4,,,,52,64
316800,note_on,80,0,16,,,,,,,,10,,,,45,92
316800,note_on,80,0,20,,,,,,,,14,,,,57,92
316800,note_on,80,0,18,,,,,,,,12,,,,73,92
316800,note_on,80,0,3,,,,,,,,2,,,,79,92
316800,note_on,80,0,8,,,,,,,,5,,,,67,92
316800,note_on,80,0,5,,,,,,,,3,,,,79,92
316800,note_on,80,0,9,,,,,,,,5,,,,64,92
316800,note_on,80,0,11,,,,,,,,6,,,,73,92
316800,note_on,80,0,21,,,,,,,,15,,,,45,92
316800,note_on,80,0,2,,,,,,,,1,,,,69,92
316800,note_on,120,0,19,,,,,,,,13,,,,69,92
316800,note_on,80,0,13,,,,,,,,7,,,,61,92
316800,note_on,80,0,7,,,,,,,,4,,,,57,92
316800,note_on,80,0,1,,,,,,,,0,,,,79,92
316800,note_on,80,0,6,,,,,,,,3,,,,69,92
316800,note_on,80,0,15,,,,,,,,8,,,,45,92
316800,note_on,80,0,12,,,,,,,,7,,,,67,92
316800,note_on,80,0,10,,,,,,,,6,,,,79,92
316800,note_on,80,0,4,,,,,,,,2,,,,73,92
316800,note_on,80,0,14,,,,,,,,7,,,,57,92
316800,note_on,80,0,17,,,,,,,,11,,,,79,108
316800,set_tempo,103680,1,0,300000,,,,,,,,,,,,
317200,note_off,400,0,9,,,,,,,,5,,,,64,64
317280,note_on,80,0,9,,,,,,,,5,,,,57,92
317680,note_off,400,0,9,,,,,,,,5,,,,57,64
317760,note_on,80,0,9,,,,,,,,5,,,,57,92
318120,note_off,1320,0,21,,,,,,,,15,,,,45,64
318120,note_off,1320,0,18,,,,,,,,12,,,,73,64
318120,note_off,1320,0,19,,,,,,,,13,,,,69,64
318120,note_off,1320,0,6,,,,,,,,3,,,,69,64
318120,note_off,1320,0,4,,,,,,,,2,,,,73,64
318120,note_off,1320,0,15,,,,,,,,8,,,,45,64
318120,note_off,1320,0,20,,,,,,,,14,,,,57,64
318120,note_off,1320,0,16,,,,,,,,10,,,,45,64
318120,note_off,1320,0,2,,,,,,,,1,,,,69,64
318120,note_off,1320,0,14,,,,,,,,7,,,,57,64
318120,note_off,1320,0,7,,,,,,,,4,,,,57,64
318160,note_off,400,0,9,,,,,,,,5,,,,57,64
318240,note_on,120,0,18,,,,,,,,12,,,,73,92
318240,note_off,1440,0,13,,,,,,,,7,,,,61,64
318240,note_on,0,0,13,,,,,,,,7,,,,61,92
318240,note_on,120,0,14,,,,,,,,7,,,,57,92
318240,note_on,120,0,21,,,,,,,,15,,,,45,92
318240,note_off,1440,0,1,,,,,,,,0,,,,79,64
318240,note_on,0,0,1,,,,,,,,0,,,,81,92
318240,note_off,1440,0,5,,,,,,,,3,,,,79,64
318240,note_on,120,0,20,,,,,,,,14,,,,57,92
318240,note_on,120,0,6,,,,,,,,3,,,,69,92
318240,note_on,0,0,12,,,,,,,,7,,,,69,92
318240,note_on,0,0,5,,,,,,,,3,,,,81,92
318240,note_on,120,0,16,,,,,,,,10,,,,45,92
318240,note_off,1440,0,12,,,,,,,,7,,,,67,64
318240,note_on,0,0,3,,,,,,,,2,,,,81,92
318240,note_off,1440,0,3,,,,,,,,2,,,,79,64
318240,note_on,0,0,17,,,,,,,,11,,,,81,108
318240,note_off,1440,0,17,,,,,,,,11,,,,79,64
318240,note_on,120,0,7,,,,,,,,4,,,,57,92
318240,note_on,120,0,15,,,,,,,,8,,,,45,92
318240,note_on,120,0,2,,,,,,,,1,,,,69,92
318240,set_tempo,1440,1,0,315789,,,,,,,,,,,,
318240,note_off,1440,0,11,,,,,,,,6,,,,73,64
318240,note_on,120,0,4,,,,,,,,2,,,,73,92
318240,note_on,80,0,9,,,,,,,,5,,,,57,92
318240,note_off,1440,0,8,,,,,,,,5,,,,67,64
318240,note_off,1440,0,10,,,,,,,,6,,,,79,64
318240,note_on,0,0,8,,,,,,,,5,,,,69,92
318240,note_on,120,0,19,,,,,,,,13,,,,69,92
318240,note_on,0,0,11,,,,,,,,6,,,,73,92
318240,note_on,0,0,10,,,,,,,,6,,,,81,92
318640,note_off,400,0,9,,,,,,,,5,,,,57,64
318640,note_off,400,0,15,,,,,,,,8,,,,45,64
318640,note_off,400,0,6,,,,,,,,3,,,,69,64
318640,note_off,400,0,7,,,,,,,,4,,,,57,64
318640,note_off,400,0,5,,,,,,,,3,,,,81,64
318640,note_off,400,0,1,,,,,,,,0,,,,81,64
318640,note_off,400,0,3,,,,,,,,2,,,,81,64
318640,note_off,400,0,10,,,,,,,,6,,,,81,64
318640,note_off,400,0,8,,,,,,,,5,,,,69,64
318640,note_off,400,0,11,,,,,,,,6,,,,73,64
318640,note_off,400,0,18,,,,,,,,12,,,,73,64
318640,note_off,400,0,14,,,,,,,,7,,,,57,64
318640,note_off,400,0,12,,,,,,,,7,,,,69,64
318640,note_off,400,0,20,,,,,,,,14,,,,57,64
318640,note_off,400,0,4,,,,,,,,2,,,,73,64
318640,note_off,400,0,17,,,,,,,,11,,,,81,64
318640,note_off,400,0,21,,,,,,,,15,,,,45,64
318640,note_off,400,0,2,,,,,,,,1,,,,69,64
318640,note_off,400,0,16,,,,,,,,10,,,,45,64
318640,note_off,400,0,19,,,,,,,,13,,,,69,64
318640,note_off,400,0,13,,,,,,,,7,,,,61,64
318720,note_on,80,0,16,,,,,,,,10,,,,50,92
318720,note_on,80,0,20,,,,,,,,14,,,,59,92
318720,note_on,80,0,6,,,,,,,,3,,,,71,92
318720,note_on,80,0,19,,,,,,,,13,,,,62,92
318720,note_on,80,0,17,,,,,,,,11,,,,78,108
318720,note_on,80,0,8,,,,,,,,5,,,,66,92
318720,note_on,80,0,10,,,,,,,,6,,,,78,92
318720,note_on,80,0,5,,,,,,,,3,,,,78,92
318720,note_on,80,0,9,,,,,,,,5,,,,62,92
318720,set_tempo,480,1,0,333333,,,,,,,,,,,,
318720,note_on,80,0,11,,,,,,,,6,,,,74,92
318720,note_on,80,0,18,,,,,,,,12,,,,74,92
318720,note_on,80,0,15,,,,,,,,8,,,,47,92
318720,note_on,80,0,7,,,,,,,,4,,,,59,92
318720,note_on,80,0,21,,,,,,,,15,,,,47,92
318720,note_on,80,0,14,,,,,,,,7,,,,59,92
318720,note_on,80,0,12,,,,,,,,7,,,,66,92
318720,note_on,80,0,4,,,,,,,,2,,,,74,92
318720,note_on,80,0,2,,,,,,,,1,,,,71,92
318720,note_on,80,0,1,,,,,,,,0,,,,78,92
318720,note_on,80,0,3,,,,,,,,2,,,,78,92
318720,note_on,80,0,13,,,,,,,,7,,,,62,92
319120,note_off,400,0,8,,,,,,,,5,,,,66,64
319120,note_off,400,0,9,,,,,,,,5,,,,62,64
319120,note_off,400,0,16,,,,,,,,10,,,,50,64
319200,note_on,0,0,12,,,,,,,,7,,,,64,92
319200,note_off,480,0,3,,,,,,,,2,,,,78,64
319200,note_off,480,0,17,,,,,,,,11,,,,78,64
319200,note_off,480,0,10,,,,,,,,6,,,,78,64
319200,note_on,0,0,10,,,,,,,,6,,,,76,92
319200,note_on,0,0,3,,,,,,,,2,,,,76,92
319200,note_on,0,0,1,,,,,,,,0,,,,76,92
319200,note_off,480,0,1,,,,,,,,0,,,,78,64
319200,note_off,480,0,12,,,,,,,,7,,,,66,64
319200,note_on,80,0,16,,,,,,,,10,,,,50,92
319200,note_on,0,0,17,,,,,,,,11,,,,76,108
319200,note_on,0,0,5,,,,,,,,3,,,,76,92
319200,note_on,80,0,9,,,,,,,,5,,,,57,92
319200,note_on,80,0,8,,,,,,,,5,,,,64,92
319200,note_off,480,0,5,,,,,,,,3,,,,78,64
319560,note_off,840,0,14,,,,,,,,7,,,,59,64
319560,note_off,840,0,15,,,,,,,,8,,,,47,64
319560,note_off,840,0,6,,,,,,,,3,,,,71,64
319560,note_off,840,0,21,,,,,,,,15,,,,47,64
319560,note_off,840,0,20,,,,,,,,14,,,,59,64
319560,note_off,840,0,7,,,,,,,,4,,,,59,64
319560,note_off,840,0,2,,,,,,,,1,,,,71,64
319600,note_off,400,0,17,,,,,,,,11,,,,76,64
319600,note_off,400,0,8,,,,,,,,5,,,,64,64
319600,note_off,400,0,16,,,,,,,,10,,,,50,64
319600,note_off,400,0,9,,,,,,,,5,,,,57,64
319680,note_on,0,0,12,,,,,,,,7,,,,66,92
319680,note_on,80,0,9,,,,,,,,5,,,,50,92
319680,note_on,0,0,1,,,,,,,,0,,,,78,92
319680,note_off,480,0,12,,,,,,,,7,,,,64,64
319680,note_off,480,0,1,,,,,,,,0,,,,76,64
319680,set_tempo,960,1,0,352941,,,,,,,,,,,,
319680,note_on,120,0,15,,,,,,,,8,,,,43,92
319680,note_off,480,0,3,,,,,,,,2,,,,76,64
319680,note_on,0,0,3,,,,,,,,2,,,,78,92
319680,note_on,0,0,10,,,,,,,,6,,,,78,92
319680,note_off,480,0,10,,,,,,,,6,,,,76,64
319680,note_on,120,0,7,,,,,,,,4,,,,55,92
319680,note_on,80,0,16,,,,,,,,10,,,,50,92
319680,note_on,120,0,14,,,,,,,,7,,,,55,92
319680,note_on,0,0,5,,,,,,,,3,,,,78,92
319680,note_on,120,0,21,,,,,,,,15,,,,43,92
319680,note_on,80,0,8,,,,,,,,5,,,,66,92
319680,note_off,480,0,5,,,,,,,,3,,,,76,64
319680,note_on,120,0,20,,,,,,,,14,,,,55,92
319680,note_on,80,0,17,,,,,,,,11,,,,78,108
319680,note_on,120,0,2,,,,,,,,1,,,,67,92
319680,note_on,120,0,6,,,,,,,,3,,,,67,92
320080,note_off,400,0,8,,,,,,,,5,,,,66,64
320080,note_off,400,0,9,,,,,,,,5,,,,50,64
320080,note_off,1360,0,19,,,,,,,,13,,,,62,64
320080,note_off,400,0,16,,,,,,,,10,,,,50,64
320080,note_off,1360,0,18,,,,,,,,12,,,,74,64
320080,note_off,1360,0,4,,,,,,,,2,,,,74,64
320080,note_off,1360,0,11,,,,,,,,6,,,,74,64
320080,note_off,1360,0,13,,,,,,,,7,,,,62,64
320160,note_on,0,0,5,,,,,,,,3,,,,79,92
320160,note_off,480,0,10,,,,,,,,6,,,,78,64
320160,note_on,0,0,10,,,,,,,,6,,,,79,92
320160,note_on,80,0,8,,,,,,,,5,,,,67,92
320160,note_on,80,0,11,,,,,,,,6,,,,76,92
320160,note_on,80,0,16,,,,,,,,10,,,,50,92
320160,note_off,480,0,5,,,,,,,,3,,,,78,64
320160,note_on,0,0,1,,,,,,,,0,,,,79,92
320160,note_off,480,0,1,,,,,,,,0,,,,78,64
320160,note_on,80,0,9,,,,,,,,5,,,,50,92
320160,note_off,480,0,12,,,,,,,,7,,,,66,64
320160,note_on,0,0,12,,,,,,,,7,,,,67,92
320160,note_off,480,0,17,,,,,,,,11,,,,78,64
320160,note_on,80,0,13,,,,,,,,7,,,,64,92
320160,note_on,80,0,18,,,,,,,,12,,,,71,92
320160,note_on,0,0,17,,,,,,,,11,,,,79,108
320160,note_on,80,0,4,,,,,,,,2,,,,76,92
320160,note_on,0,0,3,,,,,,,,2,,,,79,92
320160,note_on,80,0,19,,,,,,,,13,,,,64,92
320160,note_off,480,0,3,,,,,,,,2,,,,78,64
320520,note_off,840,0,6,,,,,,,,3,,,,67,64
320520,note_off,840,0,21,,,,,,,,15,,,,43,64
320520,note_off,840,0,7,,,,,,,,4,,,,55,64
320520,note_off,840,0,2,,,,,,,,1,,,,67,64
320520,note_off,840,0,15,,,,,,,,8,,,,43,64
320520,note_off,840,0,20,,,,,,,,14,,,,55,64
320520,note_off,840,0,14,,,,,,,,7,,,,55,64
320560,note_off,400,0,5,,,,,,,,3,,,,79,64
320560,note_off,400,0,16,,,,,,,,10,,,,50,64
320560,note_off,400,0,8,,,,,,,,5,,,,67,64
320560,note_off,400,0,19,,,,,,,,13,,,,64,64
320560,note_off,400,0,17,,,,,,,,11,,,,79,64
320560,note_off,400,0,4,,,,,,,,2,,,,76,64
320560,note_off,400,0,3,,,,,,,,2,,,,79,64
320560,note_off,400,0,13,,,,,,,,7,,,,64,64
320560,note_off,400,0,12,,,,,,,,7,,,,67,64
320560,note_off,400,0,18,,,,,,,,12,,,,71,64
320560,note_off,400,0,9,,,,,,,,5,,,,50,64
320560,note_off,400,0,1,,,,,,,,0,,,,79,64
320560,note_off,400,0,10,,,,,,,,6,,,,79,64
320560,note_off,400,0,11,,,,,,,,6,,,,76,64
320640,note_on,80,0,10,,,,,,,,6,,,,76,92
320640,note_on,80,0,5,,,,,,,,3,,,,76,92
320640,note_on,80,0,19,,,,,,,,13,,,,61,92
320640,note_on,80,0,4,,,,,,,,2,,,,73,92
320640,note_on,80,0,13,,,,,,,,7,,,,61,92
320640,note_on,120,0,21,,,,,,,,15,,,,45,92
320640,note_on,80,0,17,,,,,,,,11,,,,76,108
320640,set_tempo,960,1,0,375000,,,,,,,,,,,,
320640,note_on,120,0,15,,,,,,,,8,,,,45,92
320640,note_on,80,0,16,,,,,,,,10,,,,45,92
320640,note_on,80,0,1,,,,,,,,0,,,,76,92
320640,note_on,80,0,9,,,,,,,,5,,,,57,92
320640,note_on,120,0,2,,,,,,,,1,,,,69,92
320640,note_on,120,0,14,,,,,,,,7,,,,57,92
320640,note_on,120,0,20,,,,,,,,14,,,,57,92
320640,note_on,80,0,8,,,,,,,,5,,,,64,92
320640,note_on,80,0,18,,,,,,,,12,,,,64,92
320640,note_on,120,0,6,,,,,,,,3,,,,69,92
320640,note_on,80,0,11,,,,,,,,6,,,,73,92
320640,note_on,120,0,7,,,,,,,,4,,,,57,92
320640,note_on,80,0,3,,,,,,,,2,,,,76,92
320640,note_on,80,0,12,,,,,,,,7,,,,64,92
320760,note_on,0,0,3,,,,,,,,2,,,,78,92
320760,note_off,120,0,10,,,,,,,,6,,,,76,64
320760,note_on,0,0,17,,,,,,,,11,,,,78,108
320760,note_off,120,0,17,,,,,,,,11,,,,76,64
320760,note_on,0,0,10,,,,,,,,6,,,,78,92
320760,note_off,120,0,3,,,,,,,,2,,,,76,64
320760,note_on,0,0,5,,,,,,,,3,,,,78,92
320760,note_off,120,0,5,,,,,,,,3,,,,76,64
320760,note_off,120,0,1,,,,,,,,0,,,,76,64
320760,note_on,0,0,1,,,,,,,,0,,,,78,92
320880,note_on,0,0,10,,,,,,,,6,,,,76,92
320880,note_off,120,0,5,,,,,,,,3,,,,78,64
320880,note_on,0,0,17,,,,,,,,11,,,,76,108
320880,note_off,120,0,17,,,,,,,,11,,,,78,64
320880,note_on,0,0,1,,,,,,,,0,,,,76,92
320880,note_off,120,0,1,,,,,,,,0,,,,78,64
320880,note_off,120,0,10,,,,,,,,6,,,,78,64
320880,note_on,0,0,5,,,,,,,,3,,,,76,92
320880,note_off,120,0,3,,,,,,,,2,,,,78,64
320880,note_on,0,0,3,,,,,,,,2,,,,76,92
321000,note_on,0,0,10,,,,,,,,6,,,,78,92
321000,note_off,120,0,5,,,,,,,,3,,,,76,64
321000,note_on,0,0,5,,,,,,,,3,,,,78,92
321000,note_off,120,0,3,,,,,,,,2,,,,76,64
321000,note_off,120,0,1,,,,,,,,0,,,,76,64
321000,note_on,0,0,1,,,,,,,,0,,,,78,92
321000,note_off,120,0,17,,,,,,,,11,,,,76,64
321000,note_off,120,0,10,,,,,,,,6,,,,76,64
321000,note_on,0,0,17,,,,,,,,11,,,,78,108
321000,note_on,0,0,3,,,,,,,,2,,,,78,92
321040,note_off,400,0,9,,,,,,,,5,,,,57,64
321120,note_on,0,0,17,,,,,,,,11,,,,76,108
321120,note_off,120,0,3,,,,,,,,2,,,,78,64
321120,note_off,120,0,10,,,,,,,,6,,,,78,64
321120,note_on,0,0,10,,,,,,,,6,,,,76,92
321120,note_on,0,0,5,,,,,,,,3,,,,76,92
321120,note_on,0,0,3,,,,,,,,2,,,,76,92
321120,note_on,80,0,9,,,,,,,,5,,,,57,92
321120,note_off,120,0,1,,,,,,,,0,,,,78,64
321120,note_off,120,0,5,,,,,,,,3,,,,78,64
321120,note_on,0,0,1,,,,,,,,0,,,,76,92
321120,note_off,120,0,17,,,,,,,,11,,,,78,64
321240,note_off,120,0,5,,,,,,,,3,,,,76,64
321240,note_off,120,0,1,,,,,,,,0,,,,76,64
321240,note_on,0,0,3,,,,,,,,2,,,,78,92
321240,note_on,0,0,1,,,,,,,,0,,,,78,92
321240,note_on,0,0,5,,,,,,,,3,,,,78,92
321240,note_off,120,0,3,,,,,,,,2,,,,76,64
321240,note_on,0,0,10,,,,,,,,6,,,,78,92
321240,note_off,120,0,10,,,,,,,,6,,,,76,64
321240,note_on,0,0,17,,,,,,,,11,,,,78,108
321240,note_off,120,0,17,,,,,,,,11,,,,76,64
321360,note_off,120,0,1,,,,,,,,0,,,,78,64
321360,note_on,0,0,1,,,,,,,,0,,,,76,92
321360,note_off,120,0,5,,,,,,,,3,,,,78,64
321360,note_on,0,0,3,,,,,,,,2,,,,76,92
321360,note_off,120,0,3,,,,,,,,2,,,,78,64
321360,note_off,120,0,10,,,,,,,,6,,,,78,64
321360,note_on,0,0,5,,,,,,,,3,,,,76,92
321360,note_on,0,0,10,,,,,,,,6,,,,76,92
321360,note_off,120,0,17,,,,,,,,11,,,,78,64
321360,note_on,0,0,17,,,,,,,,11,,,,76,108
321480,note_on,0,0,10,,,,,,,,6,,,,78,92
321480,note_on,0,0,17,,,,,,,,11,,,,78,108
321480,note_off,120,0,17,,,,,,,,11,,,,76,64
321480,note_off,120,0,1,,,,,,,,0,,,,76,64
321480,note_on,0,0,1,,,,,,,,0,,,,78,92
321480,note_on,0,0,5,,,,,,,,3,,,,78,92
321480,note_off,120,0,5,,,,,,,,3,,,,76,64
321480,note_off,840,0,6,,,,,,,,3,,,,69,64
321480,note_off,840,0,16,,,,,,,,10,,,,45,64
321480,note_off,840,0,20,,,,,,,,14,,,,57,64
321480,note_off,840,0,21,,,,,,,,15,,,,45,64
321480,note_on,0,0,3,,,,,,,,2,,,,78,92
321480,note_off,120,0,3,,,,,,,,2,,,,76,64
321480,note_off,840,0,14,,,,,,,,7,,,,57,64
321480,note_off,840,0,18,,,,,,,,12,,,,64,64
321480,note_off,840,0,15,,,,,,,,8,,,,45,64
321480,note_off,840,0,7,,,,,,,,4,,,,57,64
321480,note_off,120,0,10,,,,,,,,6,,,,76,64
321480,note_off,840,0,2,,,,,,,,1,,,,69,64
321520,note_off,400,0,9,,,,,,,,5,,,,57,64
321600,note_off,120,0,3,,,,,,,,2,,,,78,64
321600,note_on,0,0,3,,,,,,,,2,,,,76,92
321600,note_on,0,0,5,,,,,,,,3,,,,76,92
321600,note_off,120,0,5,,,,,,,,3,,,,78,64
321600,note_off,120,0,17,,,,,,,,11,,,,78,64
321600,note_on,0,0,17,,,,,,,,11,,,,76,108
321600,note_on,0,0,1,,,,,,,,0,,,,76,92
321600,note_on,120,0,14,,,,,,,,7,,,,45,92
321600,note_on,120,0,6,,,,,,,,3,,,,69,92
321600,note_on,80,0,9,,,,,,,,5,,,,57,92
321600,note_on,120,0,21,,,,,,,,15,,,,33,92
321600,note_on,120,0,2,,,,,,,,1,,,,69,92
321600,set_tempo,960,1,0,400000,,,,,,,,,,,,
321600,note_on,120,0,18,,,,,,,,12,,,,69,92
321600,note_on,120,0,20,,,,,,,,14,,,,45,92
321600,note_on,120,0,16,,,,,,,,10,,,,45,92
321600,note_on,120,0,15,,,,,,,,8,,,,33,92
321600,note_on,0,0,10,,,,,,,,6,,,,76,92
321600,note_off,120,0,1,,,,,,,,0,,,,78,64
321600,note_on,120,0,7,,,,,,,,4,,,,45,92
321600,note_off,120,0,10,,,,,,,,6,,,,78,64
321720,note_off,120,0,10,,,,,,,,6,,,,76,64
321720,note_off,120,0,1,,,,,,,,0,,,,76,64
321720,note_off,120,0,17,,,,,,,,11,,,,76,64
321720,note_off,120,0,3,,,,,,,,2,,,,76,64
321720,note_on,0,0,3,,,,,,,,2,,,,78,92
321720,note_on,0,0,5,,,,,,,,3,,,,78,92
321720,note_on,0,0,10,,,,,,,,6,,,,78,92
321720,note_on,0,0,17,,,,,,,,11,,,,78,108
321720,note_off,120,0,5,,,,,,,,3,,,,76,64
321720,note_on,0,0,1,,,,,,,,0,,,,78,92
321840,note_on,0,0,3,,,,,,,,2,,,,74,92
321840,note_off,120,0,3,,,,,,,,2,,,,78,64
321840,note_off,120,0,1,,,,,,,,0,,,,78,64
321840,note_on,0,0,1,,,,,,,,0,,,,74,92
321840,note_off,120,0,10,,,,,,,,6,,,,78,64
321840,note_off,120,0,17,,,,,,,,11,,,,78,64
321840,note_on,0,0,17,,,,,,,,11,,,,74,108
321840,note_on,0,0,10,,,,,,,,6,,,,74,92
321840,note_off,120,0,5,,,,,,,,3,,,,78,64
321840,note_on,0,0,5,,,,,,,,3,,,,74,92
321960,note_off,120,0,10,,,,,,,,6,,,,74,64
321960,note_on,0,0,10,,,,,,,,6,,,,76,92
321960,note_on,0,0,1,,,,,,,,0,,,,76,92
321960,note_off,120,0,1,,,,,,,,0,,,,74,64
321960,note_off,120,0,3,,,,,,,,2,,,,74,64
321960,note_on,0,0,5,,,,,,,,3,,,,76,92
321960,note_off,120,0,5,,,,,,,,3,,,,74,64
321960,note_off,120,0,17,,,,,,,,11,,,,74,64
321960,note_on,0,0,17,,,,,,,,11,,,,76,108
321960,note_on,0,0,3,,,,,,,,2,,,,76,92
322000,note_off,400,0,9,,,,,,,,5,,,,57,64
322080,note_off,120,0,3,,,,,,,,2,,,,76,64
322080,note_off,1440,0,11,,,,,,,,6,,,,73,64
322080,note_on,80,0,9,,,,,,,,5,,,,57,92
322080,note_on,0,0,12,,,,,,,,7,,,,62,92
322080,note_off,1440,0,19,,,,,,,,13,,,,61,64
322080,note_off,1440,0,12,,,,,,,,7,,,,64,64
322080,note_off,1440,0,13,,,,,,,,7,,,,61,64
322080,note_on,0,0,13,,,,,,,,7,,,,54,92
322080,note_on,0,0,19,,,,,,,,13,,,,62,92
322080,note_on,0,0,11,,,,,,,,6,,,,66,92
322080,note_off,120,0,5,,,,,,,,3,,,,76,64
322080,note_on,0,0,1,,,,,,,,0,,,,74,92
322080,note_off,1440,0,4,,,,,,,,2,,,,73,64
322080,note_on,0,0,4,,,,,,,,2,,,,74,92
322080,note_on,0,0,17,,,,,,,,11,,,,74,108
322080,note_off,120,0,17,,,,,,,,11,,,,76,64
322080,note_on,0,0,8,,,,,,,,5,,,,62,92
322080,note_off,120,0,10,,,,,,,,6,,,,76,64
322080,note_off,1440,0,8,,,,,,,,5,,,,64,64
322080,note_on,0,0,3,,,,,,,,2,,,,74,92
322080,note_off,120,0,1,,,,,,,,0,,,,76,64
322080,note_on,0,0,5,,,,,,,,3,,,,74,92
322080,note_on,0,0,10,,,,,,,,6,,,,74,92
322440,note_off,840,0,15,,,,,,,,8,,,,33,64
322440,note_off,840,0,6,,,,,,,,3,,,,69,64
322440,note_off,840,0,21,,,,,,,,15,,,,33,64
322440,note_off,840,0,7,,,,,,,,4,,,,45,64
322440,note_off,840,0,14,,,,,,,,7,,,,45,64
322440,note_off,840,0,16,,,,,,,,10,,,,45,64
322440,note_off,840,0,20,,,,,,,,14,,,,45,64
322440,note_off,840,0,2,,,,,,,,1,,,,69,64
322440,note_off,840,0,18,,,,,,,,12,,,,69,64
322480,note_off,400,0,3,,,,,,,,2,,,,74,64
322480,note_off,400,0,11,,,,,,,,6,,,,66,64
322480,note_off,400,0,9,,,,,,,,5,,,,57,64
322480,note_off,400,0,19,,,,,,,,13,,,,62,64
322480,note_off,400,0,4,,,,,,,,2,,,,74,64
322480,note_off,400,0,5,,,,,,,,3,,,,74,64
322480,note_off,400,0,12,,,,,,,,7,,,,62,64
322480,note_off,400,0,1,,,,,,,,0,,,,74,64
322480,note_off,400,0,10,,,,,,,,6,,,,74,64
322480,note_off,400,0,8,,,,,,,,5,,,,62,64
322480,note_off,400,0,13,,,,,,,,7,,,,54,64
322480,note_off,400,0,17,,,,,,,,11,,,,74,64
322560,note_on,120,0,14,,,,,,,,7,,,,50,92
322560,note_on,120,0,7,,,,,,,,4,,,,50,92
322560,note_on,120,0,15,,,,,,,,8,,,,38,92
322560,note_on,120,0,16,,,,,,,,10,,,,50,92
322560,note_on,120,0,20,,,,,,,,14,,,,50,92
322560,note_on,120,0,2,,,,,,,,1,,,,66,92
322560,note_on,120,0,18,,,,,,,,12,,,,66,92
322560,set_tempo,960,1,0,461538,,,,,,,,,,,,
322560,note_on,80,0,4,,,,,,,,2,,,,74,92
322560,note_on,80,0,8,,,,,,,,5,,,,62,92
322560,note_on,80,0,5,,,,,,,,3,,,,74,92
322560,end_of_track,0,1,0,,,,,,,,,,,,,
322560,note_on,80,0,11,,,,,,,,6,,,,66,92
322560,note_on,80,0,17,,,,,,,,11,,,,74,108
322560,note_on,120,0,21,,,,,,,,15,,,,38,92
322560,note_on,120,0,6,,,,,,,,3,,,,66,92
322560,note_on,80,0,19,,,,,,,,13,,,,62,92
322560,note_on,80,0,12,,,,,,,,7,,,,62,92
322560,note_on,80,0,10,,,,,,,,6,,,,74,92
322560,note_on,80,0,13,,,,,,,,7,,,,54,92
322560,note_on,80,0,9,,,,,,,,5,,,,54,92
322560,note_on,80,0,1,,,,,,,,0,,,,74,92
322560,note_on,80,0,3,,,,,,,,2,,,,74,92
325320,end_of_track,0,1,11,,,,,,,,,,,,,
325320,note_off,2760,0,11,,,,,,,,6,,,,66,64
325320,note_off,2760,0,18,,,,,,,,12,,,,66,64
325320,end_of_track,0,1,18,,,,,,,,,,,,,
325320,note_off,2760,0,21,,,,,,,,15,,,,38,64
325320,note_off,2760,0,20,,,,,,,,14,,,,50,64
325320,end_of_track,0,1,20,,,,,,,,,,,,,
325320,end_of_track,0,1,13,,,,,,,,,,,,,
325320,end_of_track,0,1,12,,,,,,,,,,,,,
325320,note_off,2760,0,19,,,,,,,,13,,,,62,64
325320,note_off,2760,0,7,,,,,,,,4,,,,50,64
325320,end_of_track,0,1,7,,,,,,,,,,,,,
325320,note_off,2760,0,13,,,,,,,,7,,,,54,64
325320,note_off,2760,0,12,,,,,,,,7,,,,62,64
325320,note_off,2760,0,16,,,,,,,,10,,,,50,64
325320,note_off,2760,0,4,,,,,,,,2,,,,74,64
325320,note_off,2760,0,17,,,,,,,,11,,,,74,64
325320,end_of_track,0,1,17,,,,,,,,,,,,,
325320,end_of_track,0,1,2,,,,,,,,,,,,,
325320,end_of_track,0,1,10,,,,,,,,,,,,,
325320,note_off,2760,0,10,,,,,,,,6,,,,74,64
325320,note_off,2760,0,3,,,,,,,,2,,,,74,64
325320,note_off,2760,0,9,,,,,,,,5,,,,54,64
325320,note_off,2760,0,1,,,,,,,,0,,,,74,64
325320,end_of_track,0,1,1,,,,,,,,,,,,,
325320,end_of_track,0,1,15,,,,,,,,,,,,,
325320,note_off,2760,0,15,,,,,,,,8,,,,38,64
325320,end_of_track,0,1,19,,,,,,,,,,,,,
325320,end_of_track,0,1,3,,,,,,,,,,,,,
325320,note_off,2760,0,6,,,,,,,,3,,,,66,64
325320,note_off,2760,0,2,,,,,,,,1,,,,66,64
325320,note_off,2760,0,5,,,,,,,,3,,,,74,64
325320,end_of_track,0,1,14,,,,,,,,,,,,,
325320,note_off,2760,0,14,,,,,,,,7,,,,50,64
325320,end_of_track,0,1,9,,,,,,,,,,,,,
325320,end_of_track,0,1,16,,,,,,,,,,,,,
325320,note_off,2760,0,8,,,,,,,,5,,,,62,64
325320,end_of_track,0,1,8,,,,,,,,,,,,,
325320,end_of_track,0,1,4,,,,,,,,,,,,,
325320,end_of_track,0,1,5,,,,,,,,,,,,,
325320,end_of_track,0,1,6,,,,,,,,,,,,,
325320,end_of_track,0,1,21,,,,,,,,,,,,,
