tick,type,time,meta,track,tempo,numerator,denominator,clocks_per_click,notated_32nd_notes_per_beat,key,port,channel,control,value,program,note,velocity
0,text,0,1,0,,,,,,,,,,,,,
0,program_change,0,0,10,,,,,,,,11,,,48,,
0,control_change,0,0,10,,,,,,,,11,91,125,,,
0,control_change,0,0,10,,,,,,,,11,10,45,,,
0,control_change,0,0,10,,,,,,,,11,7,127,,,
0,channel_prefix,0,1,10,,,,,,,,11,,,,,
0,midi_port,0,1,10,,,,,,,0,,,,,,
0,program_change,0,0,9,,,,,,,,5,,,60,,
0,control_change,0,0,9,,,,,,,,5,91,40,,,
0,midi_port,0,1,11,,,,,,,0,,,,,,
0,control_change,0,0,9,,,,,,,,5,10,35,,,
0,channel_prefix,0,1,9,,,,,,,,5,,,,,
0,midi_port,0,1,9,,,,,,,0,,,,,,
0,program_change,0,0,8,,,,,,,,5,,,60,,
0,control_change,0,0,8,,,,,,,,5,91,40,,,
0,control_change,0,0,8,,,,,,,,5,10,35,,,
0,control_change,0,0,8,,,,,,,,5,7,109,,,
0,channel_prefix,0,1,8,,,,,,,,5,,,,,
0,midi_port,0,1,8,,,,,,,0,,,,,,
0,control_change,0,0,9,,,,,,,,5,7,109,,,
0,track_name,0,1,2,,,,,,,,,,,,,
0,channel_prefix,0,1,11,,,,,,,,12,,,,,
0,control_change,0,0,11,,,,,,,,12,10,15,,,
0,control_change,0,0,14,,,,,,,,15,10,120,,,
0,control_change,0,0,14,,,,,,,,15,7,117,,,
0,channel_prefix,0,1,14,,,,,,,,15,,,,,
0,midi_port,0,1,14,,,,,,,0,,,,,,
0,program_change,0,0,13,,,,,,,,14,,,48,,
0,control_change,0,0,13,,,,,,,,14,91,124,,,
0,control_change,0,0,13,,,,,,,,14,10,100,,,
0,control_change,0,0,13,,,,,,,,14,7,117,,,
0,control_change,0,0,11,,,,,,,,12,7,120,,,
0,channel_prefix,0,1,13,,,,,,,,14,,,,,
0,program_change,0,0,12,,,,,,,,13,,,48,,
0,control_change,0,0,12,,,,,,,,13,91,127,,,
0,control_change,0,0,12,,,,,,,,13,10,75,,,
0,control_change,0,0,12,,,,,,,,13,7,120,,,
0,channel_prefix,0,1,12,,,,,,,,13,,,,,
0,midi_port,0,1,12,,,,,,,0,,,,,,
0,program_change,0,0,11,,,,,,,,12,,,48,,
0,control_change,0,0,11,,,,,,,,12,91,124,,,
0,midi_port,0,1,13,,,,,,,0,,,,,,
0,control_change,0,0,14,,,,,,,,15,91,121,,,
0,midi_port,0,1,2,,,,,,,0,,,,,,
0,control_change,0,0,2,,,,,,,,1,7,113,,,
0,control_change,0,0,3,,,,,,,,2,7,111,,,
0,control_change,0,0,3,,,,,,,,2,10,80,,,
0,control_change,0,0,3,,,,,,,,2,91,42,,,
0,program_change,0,0,3,,,,,,,,2,,,68,,
0,note_on,0,0,3,,,,,,,,2,,,,81,60
0,note_on,0,0,5,,,,,,,,3,,,,72,45
0,program_change,0,0,5,,,,,,,,3,,,71,,
0,control_change,0,0,5,,,,,,,,3,91,54,,,
0,channel_prefix,0,1,3,,,,,,,,2,,,,,
0,control_change,0,0,5,,,,,,,,3,10,48,,,
0,channel_prefix,0,1,5,,,,,,,,3,,,,,
0,midi_port,0,1,5,,,,,,,0,,,,,,
0,note_on,0,0,4,,,,,,,,2,,,,72,45
0,program_change,0,0,4,,,,,,,,2,,,68,,
0,control_change,0,0,4,,,,,,,,2,91,42,,,
0,control_change,0,0,4,,,,,,,,2,10,80,,,
0,control_change,0,0,4,,,,,,,,2,7,111,,,
0,channel_prefix,0,1,4,,,,,,,,2,,,,,
0,control_change,0,0,5,,,,,,,,3,7,107,,,
0,channel_prefix,0,1,2,,,,,,,,1,,,,,
0,midi_port,0,1,3,,,,,,,0,,,,,,
0,midi_port,0,1,6,,,,,,,0,,,,,,
0,control_change,0,0,2,,,,,,,,1,10,44,,,
0,control_change,0,0,2,,,,,,,,1,91,57,,,
0,program_change,0,0,2,,,,,,,,1,,,73,,
0,note_on,0,0,2,,,,,,,,1,,,,72,45
0,midi_port,0,1,4,,,,,,,0,,,,,,
0,note_on,0,0,7,,,,,,,,4,,,,53,45
0,program_change,0,0,7,,,,,,,,4,,,70,,
0,control_change,0,0,7,,,,,,,,4,91,42,,,
0,track_name,0,1,3,,,,,,,,,,,,,
0,control_change,0,0,7,,,,,,,,4,10,70,,,
0,channel_prefix,0,1,7,,,,,,,,4,,,,,
0,midi_port,0,1,7,,,,,,,0,,,,,,
0,note_on,0,0,6,,,,,,,,3,,,,65,45
0,program_change,0,0,6,,,,,,,,3,,,71,,
0,control_change,0,0,6,,,,,,,,3,91,54,,,
0,control_change,0,0,6,,,,,,,,3,10,48,,,
0,control_change,0,0,6,,,,,,,,3,7,107,,,
0,channel_prefix,0,1,6,,,,,,,,3,,,,,
0,control_change,0,0,7,,,,,,,,4,7,109,,,
0,program_change,0,0,14,,,,,,,,15,,,48,,
0,track_name,0,1,4,,,,,,,,,,,,,
0,track_name,0,1,1,,,,,,,,,,,,,
0,track_name,0,1,0,,,,,,,,,,,,,
0,copyright,0,1,0,,,,,,,,,,,,,
0,set_tempo,0,1,0,272727,,,,,,,,,,,,
0,time_signature,0,1,0,,3,2,24,8,,,,,,,,
0,key_signature,0,1,0,,,,,,F,,,,,,,
0,control_change,0,0,1,,,,,,,,0,91,42,,,
0,control_change,0,0,1,,,,,,,,0,10,50,,,
0,control_change,0,0,1,,,,,,,,0,7,113,,,
0,channel_prefix,0,1,1,,,,,,,,0,,,,,
0,midi_port,0,1,1,,,,,,,0,,,,,,
0,program_change,0,0,1,,,,,,,,0,,,73,,
0,note_on,0,0,1,,,,,,,,0,,,,81,60
840,note_off,840,0,6,,,,,,,,3,,,,65,64
840,note_off,840,0,5,,,,,,,,3,,,,72,64
840,note_off,840,0,3,,,,,,,,2,,,,81,64
840,note_off,840,0,1,,,,,,,,0,,,,81,64
840,note_off,840,0,4,,,,,,,,2,,,,72,64
840,note_off,840,0,2,,,,,,,,1,,,,72,64
840,note_off,840,0,7,,,,,,,,4,,,,53,64
960,note_on,120,0,1,,,,,,,,0,,,,79,60
960,note_on,120,0,3,,,,,,,,2,,,,79,60
960,note_on,120,0,7,,,,,,,,4,,,,60,45
960,note_on,120,0,2,,,,,,,,1,,,,76,45
960,note_on,120,0,6,,,,,,,,3,,,,67,45
960,note_on,120,0,4,,,,,,,,2,,,,76,45
960,note_on,120,0,5,,,,,,,,3,,,,76,45
1440,note_off,480,0,4,,,,,,,,2,,,,76,64
1440,note_off,480,0,1,,,,,,,,0,,,,79,64
1440,note_on,0,0,1,,,,,,,,0,,,,77,60
1440,note_off,480,0,5,,,,,,,,3,,,,76,64
1440,note_off,480,0,3,,,,,,,,2,,,,79,64
1440,note_on,0,0,4,,,,,,,,2,,,,72,45
1440,note_off,480,0,2,,,,,,,,1,,,,76,64
1440,note_on,0,0,2,,,,,,,,1,,,,72,45
1440,note_on,0,0,3,,,,,,,,2,,,,77,60
1440,note_on,0,0,5,,,,,,,,3,,,,72,45
1680,note_on,0,0,1,,,,,,,,0,,,,76,60
1680,note_off,240,0,1,,,,,,,,0,,,,77,64
1680,note_off,240,0,3,,,,,,,,2,,,,77,64
1680,note_on,0,0,3,,,,,,,,2,,,,76,60
1800,note_off,840,0,7,,,,,,,,4,,,,60,64
1800,note_off,840,0,6,,,,,,,,3,,,,67,64
1920,note_off,480,0,5,,,,,,,,3,,,,72,64
1920,note_off,240,0,3,,,,,,,,2,,,,76,64
1920,note_on,0,0,2,,,,,,,,1,,,,69,45
1920,note_off,480,0,2,,,,,,,,1,,,,72,64
1920,note_on,0,0,5,,,,,,,,3,,,,69,45
1920,note_on,0,0,3,,,,,,,,2,,,,77,60
1920,note_off,480,0,4,,,,,,,,2,,,,72,64
1920,note_on,0,0,4,,,,,,,,2,,,,69,45
1920,note_off,240,0,1,,,,,,,,0,,,,76,64
1920,note_on,120,0,6,,,,,,,,3,,,,62,45
1920,note_on,0,0,1,,,,,,,,0,,,,77,60
1920,note_on,120,0,7,,,,,,,,4,,,,62,45
2040,note_off,120,0,3,,,,,,,,2,,,,77,64
2040,note_off,120,0,4,,,,,,,,2,,,,69,64
2040,note_off,120,0,2,,,,,,,,1,,,,69,64
2040,note_off,120,0,1,,,,,,,,0,,,,77,64
2040,note_off,120,0,7,,,,,,,,4,,,,62,64
2040,note_off,120,0,6,,,,,,,,3,,,,62,64
2040,note_off,120,0,5,,,,,,,,3,,,,69,64
2400,note_on,360,0,2,,,,,,,,1,,,,70,45
2400,note_on,360,0,3,,,,,,,,2,,,,74,60
2400,note_on,360,0,5,,,,,,,,3,,,,70,45
2400,note_on,360,0,6,,,,,,,,3,,,,64,45
2400,note_on,360,0,7,,,,,,,,4,,,,58,45
2400,note_on,360,0,1,,,,,,,,0,,,,74,60
2400,note_on,360,0,4,,,,,,,,2,,,,70,45
2520,note_off,120,0,1,,,,,,,,0,,,,74,64
2520,note_off,120,0,5,,,,,,,,3,,,,70,64
2520,note_off,120,0,3,,,,,,,,2,,,,74,64
2520,note_off,120,0,7,,,,,,,,4,,,,58,64
2520,note_off,120,0,2,,,,,,,,1,,,,70,64
2520,note_off,120,0,6,,,,,,,,3,,,,64,64
2520,note_off,120,0,4,,,,,,,,2,,,,70,64
2880,note_on,360,0,1,,,,,,,,0,,,,72,60
2880,note_on,360,0,2,,,,,,,,1,,,,65,45
2880,note_on,360,0,4,,,,,,,,2,,,,65,45
2880,note_on,360,0,6,,,,,,,,3,,,,65,45
2880,note_on,360,0,7,,,,,,,,4,,,,57,45
2880,note_on,360,0,3,,,,,,,,2,,,,72,60
2880,note_on,360,0,5,,,,,,,,3,,,,65,45
3360,note_off,480,0,1,,,,,,,,0,,,,72,64
3360,note_on,0,0,7,,,,,,,,4,,,,53,45
3360,note_off,480,0,7,,,,,,,,4,,,,57,64
3360,note_off,480,0,3,,,,,,,,2,,,,72,64
3360,note_on,0,0,3,,,,,,,,2,,,,70,60
3360,note_on,0,0,1,,,,,,,,0,,,,70,60
3600,note_on,0,0,1,,,,,,,,0,,,,69,60
3600,note_off,240,0,3,,,,,,,,2,,,,70,64
3600,note_off,240,0,1,,,,,,,,0,,,,70,64
3600,note_on,0,0,3,,,,,,,,2,,,,69,60
3720,note_off,840,0,4,,,,,,,,2,,,,65,64
3720,note_off,840,0,6,,,,,,,,3,,,,65,64
3720,note_off,840,0,5,,,,,,,,3,,,,65,64
3720,note_off,840,0,2,,,,,,,,1,,,,65,64
3840,note_off,240,0,3,,,,,,,,2,,,,69,64
3840,note_on,0,0,3,,,,,,,,2,,,,70,60
3840,note_off,480,0,7,,,,,,,,4,,,,53,64
3840,note_on,0,0,1,,,,,,,,0,,,,70,60
3840,note_off,240,0,1,,,,,,,,0,,,,69,64
3840,note_on,120,0,2,,,,,,,,1,,,,65,45
3840,note_on,120,0,5,,,,,,,,3,,,,65,45
3840,note_on,0,0,7,,,,,,,,4,,,,55,45
3840,note_on,120,0,6,,,,,,,,3,,,,62,45
3840,note_on,120,0,4,,,,,,,,2,,,,65,45
3960,note_off,120,0,2,,,,,,,,1,,,,65,64
3960,note_off,120,0,5,,,,,,,,3,,,,65,64
3960,note_off,120,0,6,,,,,,,,3,,,,62,64
3960,note_off,120,0,4,,,,,,,,2,,,,65,64
3960,note_off,120,0,3,,,,,,,,2,,,,70,64
3960,note_off,120,0,1,,,,,,,,0,,,,70,64
3960,note_off,120,0,7,,,,,,,,4,,,,55,64
4320,note_on,360,0,6,,,,,,,,3,,,,64,45
4320,note_on,360,0,3,,,,,,,,2,,,,69,60
4320,note_on,360,0,7,,,,,,,,4,,,,48,45
4320,note_on,360,0,1,,,,,,,,0,,,,69,60
4320,note_on,360,0,4,,,,,,,,2,,,,64,45
4320,note_on,360,0,5,,,,,,,,3,,,,64,45
4320,note_on,360,0,2,,,,,,,,1,,,,64,45
4560,note_on,0,0,1,,,,,,,,0,,,,67,60
4560,note_off,240,0,1,,,,,,,,0,,,,69,64
4560,note_off,240,0,3,,,,,,,,2,,,,69,64
4560,note_on,0,0,3,,,,,,,,2,,,,67,60
4720,note_off,400,0,2,,,,,,,,1,,,,64,64
4800,note_off,480,0,5,,,,,,,,3,,,,64,64
4800,note_on,0,0,5,,,,,,,,3,,,,65,45
4800,note_off,480,0,7,,,,,,,,4,,,,48,64
4800,note_on,0,0,6,,,,,,,,3,,,,60,45
4800,note_on,0,0,7,,,,,,,,4,,,,53,45
4800,note_off,480,0,4,,,,,,,,2,,,,64,64
4800,note_on,0,0,4,,,,,,,,2,,,,65,45
4800,note_off,240,0,3,,,,,,,,2,,,,67,64
4800,note_on,0,0,3,,,,,,,,2,,,,69,60
4800,note_on,80,0,2,,,,,,,,1,,,,65,45
4800,note_on,0,0,1,,,,,,,,0,,,,69,60
4800,note_off,240,0,1,,,,,,,,0,,,,67,64
4800,note_off,480,0,6,,,,,,,,3,,,,64,64
5040,note_off,240,0,3,,,,,,,,2,,,,69,64
5040,note_on,0,0,3,,,,,,,,2,,,,70,60
5040,note_on,0,0,1,,,,,,,,0,,,,70,60
5040,note_off,240,0,1,,,,,,,,0,,,,69,64
5280,note_off,480,0,6,,,,,,,,3,,,,60,64
5280,note_off,480,0,4,,,,,,,,2,,,,65,64
5280,note_on,0,0,4,,,,,,,,2,,,,67,45
5280,note_on,0,0,5,,,,,,,,3,,,,67,45
5280,note_off,480,0,5,,,,,,,,3,,,,65,64
5280,note_on,0,0,1,,,,,,,,0,,,,72,60
5280,note_off,480,0,2,,,,,,,,1,,,,65,64
5280,note_on,0,0,6,,,,,,,,3,,,,60,45
5280,note_on,0,0,7,,,,,,,,4,,,,52,45
5280,note_on,0,0,2,,,,,,,,1,,,,67,45
5280,note_off,240,0,1,,,,,,,,0,,,,70,64
5280,note_off,480,0,7,,,,,,,,4,,,,53,64
5280,note_off,240,0,3,,,,,,,,2,,,,70,64
5280,note_on,0,0,3,,,,,,,,2,,,,72,60
5400,note_off,120,0,1,,,,,,,,0,,,,72,64
5400,note_off,120,0,2,,,,,,,,1,,,,67,64
5400,note_off,120,0,6,,,,,,,,3,,,,60,64
5400,note_off,120,0,3,,,,,,,,2,,,,72,64
5400,note_off,120,0,4,,,,,,,,2,,,,67,64
5400,note_off,120,0,7,,,,,,,,4,,,,52,64
5400,note_off,120,0,5,,,,,,,,3,,,,67,64
5760,note_on,360,0,5,,,,,,,,3,,,,69,45
5760,note_on,360,0,4,,,,,,,,2,,,,69,45
5760,note_on,360,0,2,,,,,,,,1,,,,69,45
5760,note_on,360,0,7,,,,,,,,4,,,,50,45
5760,note_on,360,0,3,,,,,,,,2,,,,77,60
5760,note_on,360,0,6,,,,,,,,3,,,,62,45
5760,note_on,360,0,1,,,,,,,,0,,,,77,60
6600,note_off,840,0,3,,,,,,,,2,,,,77,64
6600,note_off,840,0,4,,,,,,,,2,,,,69,64
6600,note_off,840,0,2,,,,,,,,1,,,,69,64
6600,note_off,840,0,1,,,,,,,,0,,,,77,64
6600,note_off,840,0,5,,,,,,,,3,,,,69,64
6600,note_off,840,0,6,,,,,,,,3,,,,62,64
6600,note_off,840,0,7,,,,,,,,4,,,,50,64
6720,note_on,120,0,7,,,,,,,,4,,,,57,45
6720,note_on,120,0,1,,,,,,,,0,,,,76,60
6720,note_on,120,0,6,,,,,,,,3,,,,60,45
6720,note_on,120,0,2,,,,,,,,1,,,,72,45
6720,note_on,120,0,3,,,,,,,,2,,,,76,60
6720,note_on,120,0,5,,,,,,,,3,,,,72,45
6720,note_on,120,0,4,,,,,,,,2,,,,72,45
7200,note_on,0,0,6,,,,,,,,3,,,,65,45
7200,note_off,480,0,6,,,,,,,,3,,,,60,64
7200,note_on,0,0,3,,,,,,,,2,,,,74,60
7200,note_on,0,0,1,,,,,,,,0,,,,74,60
7200,note_off,480,0,3,,,,,,,,2,,,,76,64
7200,note_off,480,0,1,,,,,,,,0,,,,76,64
7440,note_on,0,0,1,,,,,,,,0,,,,72,60
7440,note_off,240,0,1,,,,,,,,0,,,,74,64
7440,note_off,240,0,3,,,,,,,,2,,,,74,64
7440,note_on,0,0,3,,,,,,,,2,,,,72,60
7560,note_off,840,0,5,,,,,,,,3,,,,72,64
7560,note_off,840,0,2,,,,,,,,1,,,,72,64
7560,note_off,840,0,7,,,,,,,,4,,,,57,64
7560,note_off,840,0,4,,,,,,,,2,,,,72,64
7600,note_off,400,0,6,,,,,,,,3,,,,65,64
7680,note_off,240,0,3,,,,,,,,2,,,,72,64
7680,note_on,120,0,4,,,,,,,,2,,,,65,45
7680,note_on,80,0,6,,,,,,,,3,,,,62,45
7680,note_on,0,0,3,,,,,,,,2,,,,74,60
7680,note_off,240,0,1,,,,,,,,0,,,,72,64
7680,note_on,120,0,7,,,,,,,,4,,,,58,45
7680,note_on,120,0,2,,,,,,,,1,,,,65,45
7680,note_on,120,0,5,,,,,,,,3,,,,65,45
7680,note_on,0,0,1,,,,,,,,0,,,,74,60
7800,note_off,120,0,3,,,,,,,,2,,,,74,64
7800,note_off,120,0,1,,,,,,,,0,,,,74,64
7800,note_off,120,0,4,,,,,,,,2,,,,65,64
7800,note_off,120,0,7,,,,,,,,4,,,,58,64
7800,note_off,120,0,5,,,,,,,,3,,,,65,64
7800,note_off,120,0,2,,,,,,,,1,,,,65,64
7800,note_off,120,0,6,,,,,,,,3,,,,62,64
8160,note_on,360,0,1,,,,,,,,0,,,,77,60
8160,note_on,360,0,7,,,,,,,,4,,,,57,45
8160,note_on,360,0,5,,,,,,,,3,,,,69,45
8160,note_on,360,0,4,,,,,,,,2,,,,69,45
8160,note_on,360,0,3,,,,,,,,2,,,,77,60
8160,note_on,360,0,2,,,,,,,,1,,,,69,45
8160,note_on,360,0,6,,,,,,,,3,,,,60,45
8280,note_off,120,0,6,,,,,,,,3,,,,60,64
8280,note_off,120,0,5,,,,,,,,3,,,,69,64
8280,note_off,120,0,1,,,,,,,,0,,,,77,64
8280,note_off,120,0,4,,,,,,,,2,,,,69,64
8280,note_off,120,0,3,,,,,,,,2,,,,77,64
8280,note_off,120,0,2,,,,,,,,1,,,,69,64
8280,note_off,120,0,7,,,,,,,,4,,,,57,64
8640,note_on,360,0,6,,,,,,,,3,,,,58,45
8640,note_on,360,0,3,,,,,,,,2,,,,82,60
8640,note_on,360,0,1,,,,,,,,0,,,,82,60
8640,note_on,360,0,7,,,,,,,,4,,,,55,45
8640,note_on,360,0,2,,,,,,,,1,,,,74,45
8640,note_on,360,0,4,,,,,,,,2,,,,74,45
8640,note_on,360,0,5,,,,,,,,3,,,,74,45
9120,note_on,0,0,5,,,,,,,,3,,,,76,45
9120,note_off,480,0,5,,,,,,,,3,,,,74,64
9120,note_off,480,0,6,,,,,,,,3,,,,58,64
9120,note_on,0,0,6,,,,,,,,3,,,,60,45
9120,note_on,0,0,2,,,,,,,,1,,,,76,45
9120,note_on,0,0,7,,,,,,,,4,,,,48,45
9120,note_off,480,0,4,,,,,,,,2,,,,74,64
9120,note_on,0,0,4,,,,,,,,2,,,,76,45
9120,note_off,480,0,2,,,,,,,,1,,,,74,64
9120,note_off,480,0,7,,,,,,,,4,,,,55,64
9480,note_off,840,0,3,,,,,,,,2,,,,82,64
9480,note_off,840,0,1,,,,,,,,0,,,,82,64
9520,note_off,400,0,7,,,,,,,,4,,,,48,64
9520,note_off,400,0,2,,,,,,,,1,,,,76,64
9520,note_off,400,0,6,,,,,,,,3,,,,60,64
9600,note_on,120,0,3,,,,,,,,2,,,,81,60
9600,note_on,80,0,7,,,,,,,,4,,,,53,45
9600,note_on,120,0,1,,,,,,,,0,,,,81,60
9600,note_on,80,0,2,,,,,,,,1,,,,77,45
9600,note_off,480,0,4,,,,,,,,2,,,,76,64
9600,note_on,0,0,4,,,,,,,,2,,,,77,45
9600,note_on,80,0,6,,,,,,,,3,,,,60,45
9600,note_off,480,0,5,,,,,,,,3,,,,76,64
9600,note_on,0,0,5,,,,,,,,3,,,,77,45
10080,note_on,0,0,1,,,,,,,,0,,,,79,60
10080,note_off,480,0,1,,,,,,,,0,,,,81,64
10080,note_on,0,0,7,,,,,,,,4,,,,62,45
10080,note_off,480,0,6,,,,,,,,3,,,,60,64
10080,note_off,480,0,7,,,,,,,,4,,,,53,64
10080,note_off,480,0,3,,,,,,,,2,,,,81,64
10080,note_on,0,0,6,,,,,,,,3,,,,62,45
10080,note_on,0,0,3,,,,,,,,2,,,,79,60
10320,note_off,240,0,3,,,,,,,,2,,,,79,64
10320,note_on,0,0,1,,,,,,,,0,,,,77,60
10320,note_on,0,0,3,,,,,,,,2,,,,77,60
10320,note_off,240,0,1,,,,,,,,0,,,,79,64
10440,note_off,840,0,4,,,,,,,,2,,,,77,64
10440,note_off,840,0,2,,,,,,,,1,,,,77,64
10440,note_off,840,0,5,,,,,,,,3,,,,77,64
10560,note_off,480,0,7,,,,,,,,4,,,,62,64
10560,note_on,0,0,1,,,,,,,,0,,,,79,60
10560,note_off,240,0,1,,,,,,,,0,,,,77,64
10560,note_off,480,0,6,,,,,,,,3,,,,62,64
10560,note_on,0,0,7,,,,,,,,4,,,,60,45
10560,note_on,0,0,3,,,,,,,,2,,,,79,60
10560,note_on,120,0,2,,,,,,,,1,,,,76,45
10560,note_on,120,0,5,,,,,,,,3,,,,76,45
10560,note_on,120,0,4,,,,,,,,2,,,,76,45
10560,note_on,0,0,6,,,,,,,,3,,,,64,45
10560,note_off,240,0,3,,,,,,,,2,,,,77,64
11040,note_off,480,0,3,,,,,,,,2,,,,79,64
11040,note_on,0,0,3,,,,,,,,2,,,,72,60
11040,note_on,0,0,7,,,,,,,,4,,,,52,45
11040,note_off,480,0,1,,,,,,,,0,,,,79,64
11040,note_off,480,0,6,,,,,,,,3,,,,64,64
11040,note_on,0,0,6,,,,,,,,3,,,,67,45
11040,note_on,0,0,1,,,,,,,,0,,,,72,60
11040,note_off,480,0,7,,,,,,,,4,,,,60,64
11400,note_off,840,0,2,,,,,,,,1,,,,76,64
11400,note_off,840,0,5,,,,,,,,3,,,,76,64
11400,note_off,840,0,4,,,,,,,,2,,,,76,64
11440,note_off,400,0,3,,,,,,,,2,,,,72,64
11440,note_off,400,0,7,,,,,,,,4,,,,52,64
11440,note_off,400,0,6,,,,,,,,3,,,,67,64
11440,note_off,400,0,1,,,,,,,,0,,,,72,64
11520,note_on,80,0,7,,,,,,,,4,,,,53,45
11520,note_on,80,0,6,,,,,,,,3,,,,65,45
11520,note_on,120,0,2,,,,,,,,1,,,,72,45
11520,note_on,80,0,1,,,,,,,,0,,,,81,60
11520,note_on,120,0,4,,,,,,,,2,,,,72,45
11520,note_on,120,0,5,,,,,,,,3,,,,72,45
11520,note_on,80,0,3,,,,,,,,2,,,,81,60
12360,note_off,840,0,4,,,,,,,,2,,,,72,64
12360,note_off,840,0,1,,,,,,,,0,,,,81,64
12360,note_off,840,0,3,,,,,,,,2,,,,81,64
12360,note_off,840,0,5,,,,,,,,3,,,,72,64
12360,note_off,840,0,6,,,,,,,,3,,,,65,64
12360,note_off,840,0,7,,,,,,,,4,,,,53,64
12360,note_off,840,0,2,,,,,,,,1,,,,72,64
12480,note_on,120,0,1,,,,,,,,0,,,,79,60
12480,note_on,120,0,2,,,,,,,,1,,,,76,45
12480,note_on,120,0,6,,,,,,,,3,,,,67,45
12480,note_on,120,0,4,,,,,,,,2,,,,76,45
12480,note_on,120,0,7,,,,,,,,4,,,,48,45
12480,note_on,120,0,3,,,,,,,,2,,,,79,60
12480,note_on,120,0,5,,,,,,,,3,,,,76,45
12720,note_off,240,0,7,,,,,,,,4,,,,48,64
12960,note_on,0,0,1,,,,,,,,0,,,,77,60
12960,note_off,480,0,4,,,,,,,,2,,,,76,64
12960,note_off,480,0,2,,,,,,,,1,,,,76,64
12960,note_on,0,0,4,,,,,,,,2,,,,72,45
12960,note_on,0,0,2,,,,,,,,1,,,,72,45
12960,note_off,480,0,5,,,,,,,,3,,,,76,64
12960,note_on,0,0,5,,,,,,,,3,,,,72,45
12960,note_on,0,0,3,,,,,,,,2,,,,77,60
12960,note_off,480,0,1,,,,,,,,0,,,,79,64
12960,note_off,480,0,3,,,,,,,,2,,,,79,64
13200,note_on,0,0,3,,,,,,,,2,,,,76,60
13200,note_on,0,0,1,,,,,,,,0,,,,76,60
13200,note_off,240,0,1,,,,,,,,0,,,,77,64
13200,note_off,240,0,3,,,,,,,,2,,,,77,64
13320,note_off,840,0,6,,,,,,,,3,,,,67,64
13440,note_off,480,0,4,,,,,,,,2,,,,72,64
13440,note_off,480,0,5,,,,,,,,3,,,,72,64
13440,note_on,0,0,5,,,,,,,,3,,,,69,45
13440,note_on,0,0,4,,,,,,,,2,,,,69,45
13440,note_off,240,0,3,,,,,,,,2,,,,76,64
13440,note_on,0,0,3,,,,,,,,2,,,,77,60
13440,note_off,480,0,2,,,,,,,,1,,,,72,64
13440,note_on,0,0,2,,,,,,,,1,,,,69,45
13440,note_on,720,0,7,,,,,,,,4,,,,50,45
13440,note_on,0,0,1,,,,,,,,0,,,,77,60
13440,note_on,120,0,6,,,,,,,,3,,,,62,45
13440,note_off,240,0,1,,,,,,,,0,,,,76,64
13560,note_off,120,0,2,,,,,,,,1,,,,69,64
13560,note_off,120,0,6,,,,,,,,3,,,,62,64
13560,note_off,120,0,7,,,,,,,,4,,,,50,64
13560,note_off,120,0,4,,,,,,,,2,,,,69,64
13560,note_off,120,0,5,,,,,,,,3,,,,69,64
13560,note_off,120,0,1,,,,,,,,0,,,,77,64
13560,note_off,120,0,3,,,,,,,,2,,,,77,64
13920,note_on,360,0,5,,,,,,,,3,,,,70,45
13920,note_on,360,0,3,,,,,,,,2,,,,74,60
13920,note_on,360,0,2,,,,,,,,1,,,,70,45
13920,note_on,360,0,4,,,,,,,,2,,,,70,45
13920,note_on,360,0,1,,,,,,,,0,,,,74,60
13920,note_on,360,0,7,,,,,,,,4,,,,58,45
13920,note_on,360,0,6,,,,,,,,3,,,,64,45
14040,note_off,120,0,4,,,,,,,,2,,,,70,64
14040,note_off,120,0,6,,,,,,,,3,,,,64,64
14040,note_off,120,0,1,,,,,,,,0,,,,74,64
14040,note_off,120,0,2,,,,,,,,1,,,,70,64
14040,note_off,120,0,3,,,,,,,,2,,,,74,64
14040,note_off,120,0,5,,,,,,,,3,,,,70,64
14040,note_off,120,0,7,,,,,,,,4,,,,58,64
14400,note_on,360,0,4,,,,,,,,2,,,,65,45
14400,note_on,360,0,6,,,,,,,,3,,,,65,45
14400,note_on,360,0,3,,,,,,,,2,,,,72,60
14400,note_on,360,0,5,,,,,,,,3,,,,65,45
14400,note_on,360,0,7,,,,,,,,4,,,,57,45
14400,note_on,360,0,2,,,,,,,,1,,,,65,45
14400,note_on,360,0,1,,,,,,,,0,,,,72,60
14880,note_on,0,0,3,,,,,,,,2,,,,70,60
14880,note_off,480,0,3,,,,,,,,2,,,,72,64
14880,note_off,480,0,1,,,,,,,,0,,,,72,64
14880,note_on,0,0,7,,,,,,,,4,,,,53,45
14880,note_off,480,0,7,,,,,,,,4,,,,57,64
14880,note_on,0,0,1,,,,,,,,0,,,,70,60
15120,note_on,0,0,3,,,,,,,,2,,,,69,60
15120,note_off,240,0,3,,,,,,,,2,,,,70,64
15120,note_on,0,0,1,,,,,,,,0,,,,69,60
15120,note_off,240,0,1,,,,,,,,0,,,,70,64
15240,note_off,840,0,2,,,,,,,,1,,,,65,64
15360,note_on,0,0,1,,,,,,,,0,,,,70,60
15360,note_on,0,0,3,,,,,,,,2,,,,70,60
15360,note_off,240,0,3,,,,,,,,2,,,,69,64
15360,note_off,480,0,7,,,,,,,,4,,,,53,64
15360,note_on,0,0,7,,,,,,,,4,,,,55,45
15360,note_off,960,0,5,,,,,,,,3,,,,65,64
15360,note_off,240,0,1,,,,,,,,0,,,,69,64
15360,note_on,0,0,6,,,,,,,,3,,,,62,45
15360,note_on,0,0,5,,,,,,,,3,,,,65,45
15360,note_off,960,0,4,,,,,,,,2,,,,65,64
15360,note_on,0,0,4,,,,,,,,2,,,,65,45
15360,note_off,960,0,6,,,,,,,,3,,,,65,64
15360,note_on,120,0,2,,,,,,,,1,,,,65,45
15480,note_off,120,0,5,,,,,,,,3,,,,65,64
15480,note_off,120,0,3,,,,,,,,2,,,,70,64
15480,note_off,120,0,1,,,,,,,,0,,,,70,64
15480,note_off,120,0,2,,,,,,,,1,,,,65,64
15480,note_off,120,0,4,,,,,,,,2,,,,65,64
15480,note_off,120,0,7,,,,,,,,4,,,,55,64
15480,note_off,120,0,6,,,,,,,,3,,,,62,64
15840,note_on,360,0,7,,,,,,,,4,,,,48,45
15840,note_on,360,0,4,,,,,,,,2,,,,64,45
15840,note_on,360,0,3,,,,,,,,2,,,,69,60
15840,note_on,360,0,2,,,,,,,,1,,,,64,45
15840,note_on,360,0,6,,,,,,,,3,,,,60,45
15840,note_on,360,0,1,,,,,,,,0,,,,69,60
15840,note_on,360,0,5,,,,,,,,3,,,,64,45
16080,note_off,240,0,3,,,,,,,,2,,,,69,64
16080,note_on,0,0,3,,,,,,,,2,,,,67,60
16080,note_on,0,0,1,,,,,,,,0,,,,67,60
16080,note_off,240,0,1,,,,,,,,0,,,,69,64
16320,note_on,0,0,7,,,,,,,,4,,,,53,45
16320,note_off,480,0,4,,,,,,,,2,,,,64,64
16320,note_on,0,0,2,,,,,,,,1,,,,65,45
16320,note_off,240,0,3,,,,,,,,2,,,,67,64
16320,note_off,240,0,1,,,,,,,,0,,,,67,64
16320,note_off,480,0,6,,,,,,,,3,,,,60,64
16320,note_off,480,0,7,,,,,,,,4,,,,48,64
16320,note_on,0,0,6,,,,,,,,3,,,,60,45
16320,note_off,480,0,5,,,,,,,,3,,,,64,64
16320,note_on,0,0,5,,,,,,,,3,,,,65,45
16320,note_on,0,0,3,,,,,,,,2,,,,69,60
16320,note_off,480,0,2,,,,,,,,1,,,,64,64
16320,note_on,0,0,4,,,,,,,,2,,,,65,45
16320,note_on,0,0,1,,,,,,,,0,,,,69,60
16560,note_off,240,0,3,,,,,,,,2,,,,69,64
16560,note_on,0,0,3,,,,,,,,2,,,,70,60
16560,note_off,240,0,1,,,,,,,,0,,,,69,64
16560,note_on,0,0,1,,,,,,,,0,,,,70,60
16800,note_on,0,0,7,,,,,,,,4,,,,52,45
16800,note_off,240,0,3,,,,,,,,2,,,,70,64
16800,note_on,0,0,3,,,,,,,,2,,,,72,60
16800,note_off,480,0,6,,,,,,,,3,,,,60,64
16800,note_off,480,0,2,,,,,,,,1,,,,65,64
16800,note_on,0,0,5,,,,,,,,3,,,,67,45
16800,note_on,0,0,2,,,,,,,,1,,,,67,45
16800,note_on,0,0,4,,,,,,,,2,,,,67,45
16800,note_off,480,0,4,,,,,,,,2,,,,65,64
16800,note_on,0,0,6,,,,,,,,3,,,,60,45
16800,note_off,480,0,5,,,,,,,,3,,,,65,64
16800,note_off,240,0,1,,,,,,,,0,,,,70,64
16800,note_off,480,0,7,,,,,,,,4,,,,53,64
16800,note_on,0,0,1,,,,,,,,0,,,,72,60
16920,note_off,120,0,1,,,,,,,,0,,,,72,64
16920,note_off,120,0,6,,,,,,,,3,,,,60,64
16920,note_off,120,0,2,,,,,,,,1,,,,67,64
16920,note_off,120,0,5,,,,,,,,3,,,,67,64
16920,note_off,120,0,3,,,,,,,,2,,,,72,64
16920,note_off,120,0,4,,,,,,,,2,,,,67,64
16920,note_off,120,0,7,,,,,,,,4,,,,52,64
17280,note_on,360,0,5,,,,,,,,3,,,,62,45
17280,note_on,360,0,1,,,,,,,,0,,,,65,60
17280,note_on,360,0,3,,,,,,,,2,,,,65,60
17280,note_on,360,0,7,,,,,,,,4,,,,50,45
17280,note_on,360,0,2,,,,,,,,1,,,,62,45
17280,note_on,360,0,6,,,,,,,,3,,,,57,45
17280,note_on,360,0,4,,,,,,,,2,,,,62,45
17400,note_off,120,0,6,,,,,,,,3,,,,57,64
17400,note_off,120,0,4,,,,,,,,2,,,,62,64
17400,note_off,120,0,1,,,,,,,,0,,,,65,64
17400,note_off,120,0,7,,,,,,,,4,,,,50,64
17400,note_off,120,0,3,,,,,,,,2,,,,65,64
17400,note_off,120,0,2,,,,,,,,1,,,,62,64
17400,note_off,120,0,5,,,,,,,,3,,,,62,64
17760,note_on,360,0,2,,,,,,,,1,,,,69,45
17760,note_on,360,0,4,,,,,,,,2,,,,69,45
17760,note_on,360,0,3,,,,,,,,2,,,,74,60
17760,note_on,360,0,7,,,,,,,,4,,,,53,45
17760,note_on,360,0,5,,,,,,,,3,,,,69,45
17760,note_on,360,0,6,,,,,,,,3,,,,65,45
17760,note_on,360,0,1,,,,,,,,0,,,,74,60
18600,note_off,840,0,6,,,,,,,,3,,,,65,64
18600,note_off,840,0,5,,,,,,,,3,,,,69,64
18600,note_off,840,0,2,,,,,,,,1,,,,69,64
18600,note_off,840,0,1,,,,,,,,0,,,,74,64
18600,note_off,840,0,7,,,,,,,,4,,,,53,64
18600,note_off,840,0,3,,,,,,,,2,,,,74,64
18600,note_off,840,0,4,,,,,,,,2,,,,69,64
18720,note_on,120,0,2,,,,,,,,1,,,,69,45
18720,note_on,120,0,3,,,,,,,,2,,,,76,60
18720,note_on,120,0,6,,,,,,,,3,,,,65,45
18720,note_on,120,0,1,,,,,,,,0,,,,76,60
18720,note_on,120,0,5,,,,,,,,3,,,,69,45
18720,note_on,120,0,7,,,,,,,,4,,,,50,45
18720,note_on,120,0,4,,,,,,,,2,,,,69,45
18960,note_off,240,0,3,,,,,,,,2,,,,76,64
18960,note_off,240,0,1,,,,,,,,0,,,,76,64
18960,note_on,0,0,1,,,,,,,,0,,,,77,60
18960,note_on,0,0,3,,,,,,,,2,,,,77,60
19200,note_off,480,0,6,,,,,,,,3,,,,65,64
19200,note_on,0,0,3,,,,,,,,2,,,,71,60
19200,note_off,240,0,3,,,,,,,,2,,,,77,64
19200,note_off,480,0,5,,,,,,,,3,,,,69,64
19200,note_on,0,0,6,,,,,,,,3,,,,62,45
19200,note_on,0,0,5,,,,,,,,3,,,,67,45
19200,note_on,0,0,4,,,,,,,,2,,,,67,45
19200,note_on,0,0,1,,,,,,,,0,,,,71,60
19200,note_off,240,0,1,,,,,,,,0,,,,77,64
19200,note_off,480,0,4,,,,,,,,2,,,,69,64
19200,note_off,480,0,2,,,,,,,,1,,,,69,64
19200,note_on,0,0,2,,,,,,,,1,,,,67,45
19200,note_on,0,0,7,,,,,,,,4,,,,55,45
19200,note_off,480,0,7,,,,,,,,4,,,,50,64
19320,note_off,120,0,4,,,,,,,,2,,,,67,64
19320,note_off,120,0,1,,,,,,,,0,,,,71,64
19320,note_off,120,0,6,,,,,,,,3,,,,62,64
19320,note_off,120,0,7,,,,,,,,4,,,,55,64
19320,note_off,120,0,3,,,,,,,,2,,,,71,64
19320,note_off,120,0,2,,,,,,,,1,,,,67,64
19320,note_off,120,0,5,,,,,,,,3,,,,67,64
19680,note_on,360,0,6,,,,,,,,3,,,,59,45
19680,note_on,360,0,4,,,,,,,,2,,,,62,45
19680,note_on,360,0,1,,,,,,,,0,,,,67,60
19680,note_on,360,0,5,,,,,,,,3,,,,62,45
19680,note_on,360,0,7,,,,,,,,4,,,,53,45
19680,note_on,360,0,3,,,,,,,,2,,,,67,60
19680,note_on,360,0,2,,,,,,,,1,,,,62,45
19800,note_off,120,0,3,,,,,,,,2,,,,67,64
19800,note_off,120,0,6,,,,,,,,3,,,,59,64
19800,note_off,120,0,2,,,,,,,,1,,,,62,64
19800,note_off,120,0,5,,,,,,,,3,,,,62,64
19800,note_off,120,0,7,,,,,,,,4,,,,53,64
19800,note_off,120,0,4,,,,,,,,2,,,,62,64
19800,note_off,120,0,1,,,,,,,,0,,,,67,64
20160,note_on,360,0,3,,,,,,,,2,,,,72,60
20160,note_on,360,0,6,,,,,,,,3,,,,55,45
20160,note_on,360,0,4,,,,,,,,2,,,,67,45
20160,note_on,360,0,5,,,,,,,,3,,,,67,45
20160,note_on,360,0,1,,,,,,,,0,,,,72,60
20160,note_on,360,0,7,,,,,,,,4,,,,52,45
20160,note_on,360,0,2,,,,,,,,1,,,,67,45
20640,note_off,480,0,7,,,,,,,,4,,,,52,64
20640,note_on,0,0,7,,,,,,,,4,,,,48,50
20640,note_off,480,0,3,,,,,,,,2,,,,72,64
20640,note_on,0,0,1,,,,,,,,0,,,,64,65
20640,note_on,0,0,3,,,,,,,,2,,,,64,65
20640,note_off,480,0,1,,,,,,,,0,,,,72,64
21120,note_off,480,0,7,,,,,,,,4,,,,48,64
21120,note_on,0,0,3,,,,,,,,2,,,,62,70
21120,note_on,0,0,7,,,,,,,,4,,,,55,55
21120,note_off,480,0,3,,,,,,,,2,,,,64,64
21120,note_off,480,0,1,,,,,,,,0,,,,64,64
21120,note_on,0,0,1,,,,,,,,0,,,,62,70
21600,note_off,1440,0,2,,,,,,,,1,,,,67,64
21600,note_off,1440,0,6,,,,,,,,3,,,,55,64
21600,note_on,0,0,5,,,,,,,,3,,,,65,60
21600,note_off,1440,0,5,,,,,,,,3,,,,67,64
21600,note_off,480,0,7,,,,,,,,4,,,,55,64
21600,note_on,0,0,7,,,,,,,,4,,,,43,60
21600,note_on,0,0,1,,,,,,,,0,,,,71,75
21600,note_off,480,0,1,,,,,,,,0,,,,62,64
21600,note_on,0,0,4,,,,,,,,2,,,,65,60
21600,note_on,0,0,2,,,,,,,,1,,,,65,60
21600,note_on,0,0,6,,,,,,,,3,,,,55,60
21600,note_off,1440,0,4,,,,,,,,2,,,,67,64
21600,note_on,0,0,3,,,,,,,,2,,,,71,75
21600,note_off,480,0,3,,,,,,,,2,,,,62,64
22080,note_off,480,0,6,,,,,,,,3,,,,55,64
22080,note_on,0,0,3,,,,,,,,2,,,,72,80
22080,note_off,480,0,3,,,,,,,,2,,,,71,64
22080,note_off,480,0,7,,,,,,,,4,,,,43,64
22080,note_on,0,0,7,,,,,,,,4,,,,48,65
22080,note_on,0,0,6,,,,,,,,3,,,,55,65
22080,note_off,480,0,2,,,,,,,,1,,,,65,64
22080,note_on,0,0,2,,,,,,,,1,,,,64,65
22080,note_off,480,0,5,,,,,,,,3,,,,65,64
22080,note_off,480,0,1,,,,,,,,0,,,,71,64
22080,note_on,0,0,1,,,,,,,,0,,,,72,80
22080,note_on,0,0,5,,,,,,,,3,,,,64,65
22080,note_off,480,0,4,,,,,,,,2,,,,65,64
22080,note_on,0,0,4,,,,,,,,2,,,,64,65
22920,note_off,840,0,3,,,,,,,,2,,,,72,64
22920,note_off,840,0,1,,,,,,,,0,,,,72,64
22920,note_off,840,0,4,,,,,,,,2,,,,64,64
22920,note_off,840,0,2,,,,,,,,1,,,,64,64
22920,note_off,840,0,5,,,,,,,,3,,,,64,64
22920,note_off,840,0,7,,,,,,,,4,,,,48,64
22920,note_off,840,0,6,,,,,,,,3,,,,55,64
23040,note_on,120,0,5,,,,,,,,3,,,,72,75
23040,note_on,23040,0,11,,,,,,,,12,,,,72,75
23040,note_on,120,0,2,,,,,,,,1,,,,72,75
23040,note_on,23040,0,12,,,,,,,,13,,,,65,75
23040,note_on,23040,0,14,,,,,,,,15,,,,41,75
23040,note_on,120,0,3,,,,,,,,2,,,,81,92
23040,note_on,120,0,4,,,,,,,,2,,,,72,75
23040,note_on,23040,0,13,,,,,,,,14,,,,53,75
23040,note_on,23040,0,9,,,,,,,,5,,,,65,75
23040,note_on,120,0,1,,,,,,,,0,,,,81,92
23040,note_on,120,0,6,,,,,,,,3,,,,65,75
23040,note_on,23040,0,10,,,,,,,,11,,,,81,92
23040,note_on,23040,0,8,,,,,,,,5,,,,60,75
23040,note_on,120,0,7,,,,,,,,4,,,,53,75
23880,note_off,840,0,14,,,,,,,,15,,,,41,64
23880,note_off,840,0,3,,,,,,,,2,,,,81,64
23880,note_off,840,0,10,,,,,,,,11,,,,81,64
23880,note_off,840,0,5,,,,,,,,3,,,,72,64
23880,note_off,840,0,7,,,,,,,,4,,,,53,64
23880,note_off,840,0,2,,,,,,,,1,,,,72,64
23880,note_off,840,0,11,,,,,,,,12,,,,72,64
23880,note_off,840,0,8,,,,,,,,5,,,,60,64
23880,note_off,840,0,6,,,,,,,,3,,,,65,64
23880,note_off,840,0,12,,,,,,,,13,,,,65,64
23880,note_off,840,0,1,,,,,,,,0,,,,81,64
23880,note_off,840,0,9,,,,,,,,5,,,,65,64
23880,note_off,840,0,13,,,,,,,,14,,,,53,64
23880,note_off,840,0,4,,,,,,,,2,,,,72,64
24000,note_on,120,0,8,,,,,,,,5,,,,64,75
24000,note_on,120,0,1,,,,,,,,0,,,,79,92
24000,note_on,120,0,3,,,,,,,,2,,,,79,92
24000,note_on,120,0,5,,,,,,,,3,,,,76,75
24000,note_on,120,0,7,,,,,,,,4,,,,60,75
24000,note_on,120,0,10,,,,,,,,11,,,,79,92
24000,note_on,120,0,2,,,,,,,,1,,,,76,75
24000,note_on,120,0,6,,,,,,,,3,,,,67,75
24000,note_on,120,0,11,,,,,,,,12,,,,76,75
24000,note_on,120,0,9,,,,,,,,5,,,,67,75
24000,note_on,120,0,12,,,,,,,,13,,,,67,75
24000,note_on,120,0,13,,,,,,,,14,,,,60,75
24000,note_on,120,0,4,,,,,,,,2,,,,76,75
24000,note_on,120,0,14,,,,,,,,15,,,,48,75
24480,note_off,480,0,4,,,,,,,,2,,,,76,64
24480,note_on,0,0,1,,,,,,,,0,,,,77,92
24480,note_off,480,0,1,,,,,,,,0,,,,79,64
24480,note_on,0,0,4,,,,,,,,2,,,,72,75
24480,note_off,480,0,11,,,,,,,,12,,,,76,64
24480,note_off,480,0,3,,,,,,,,2,,,,79,64
24480,note_on,0,0,3,,,,,,,,2,,,,77,92
24480,note_on,0,0,11,,,,,,,,12,,,,72,75
24480,note_on,0,0,5,,,,,,,,3,,,,72,75
24480,note_off,480,0,10,,,,,,,,11,,,,79,64
24480,note_on,0,0,10,,,,,,,,11,,,,77,92
24480,note_on,0,0,8,,,,,,,,5,,,,60,75
24480,note_off,480,0,8,,,,,,,,5,,,,64,64
24480,note_on,0,0,2,,,,,,,,1,,,,72,75
24480,note_off,480,0,2,,,,,,,,1,,,,76,64
24480,note_off,480,0,5,,,,,,,,3,,,,76,64
24720,note_on,0,0,1,,,,,,,,0,,,,76,92
24720,note_off,240,0,1,,,,,,,,0,,,,77,64
24720,note_on,0,0,3,,,,,,,,2,,,,76,92
24720,note_on,0,0,10,,,,,,,,11,,,,76,92
24720,note_off,240,0,10,,,,,,,,11,,,,77,64
24720,note_off,240,0,3,,,,,,,,2,,,,77,64
24840,note_off,840,0,9,,,,,,,,5,,,,67,64
24840,note_off,840,0,13,,,,,,,,14,,,,60,64
24840,note_off,840,0,12,,,,,,,,13,,,,67,64
24840,note_off,840,0,14,,,,,,,,15,,,,48,64
24840,note_off,840,0,6,,,,,,,,3,,,,67,64
24840,note_off,840,0,7,,,,,,,,4,,,,60,64
24880,note_off,400,0,8,,,,,,,,5,,,,60,64
24960,note_off,480,0,11,,,,,,,,12,,,,72,64
24960,note_on,120,0,12,,,,,,,,13,,,,62,75
24960,note_on,120,0,9,,,,,,,,5,,,,62,75
24960,note_off,240,0,3,,,,,,,,2,,,,76,64
24960,note_on,120,0,14,,,,,,,,15,,,,50,75
24960,note_on,80,0,8,,,,,,,,5,,,,57,75
24960,note_on,0,0,11,,,,,,,,12,,,,69,75
24960,note_on,0,0,3,,,,,,,,2,,,,77,92
24960,note_on,120,0,6,,,,,,,,3,,,,62,75
24960,note_off,240,0,1,,,,,,,,0,,,,76,64
24960,note_on,0,0,10,,,,,,,,11,,,,77,92
24960,note_off,480,0,2,,,,,,,,1,,,,72,64
24960,note_on,0,0,2,,,,,,,,1,,,,69,75
24960,note_off,240,0,10,,,,,,,,11,,,,76,64
24960,note_off,480,0,5,,,,,,,,3,,,,72,64
24960,note_on,0,0,5,,,,,,,,3,,,,69,75
24960,note_on,0,0,4,,,,,,,,2,,,,69,75
24960,note_on,120,0,7,,,,,,,,4,,,,62,75
24960,note_off,480,0,4,,,,,,,,2,,,,72,64
24960,note_on,120,0,13,,,,,,,,14,,,,62,75
24960,note_on,0,0,1,,,,,,,,0,,,,77,92
25080,note_off,120,0,4,,,,,,,,2,,,,69,64
25080,note_off,120,0,6,,,,,,,,3,,,,62,64
25080,note_off,120,0,8,,,,,,,,5,,,,57,64
25080,note_off,120,0,10,,,,,,,,11,,,,77,64
25080,note_off,120,0,14,,,,,,,,15,,,,50,64
25080,note_off,120,0,13,,,,,,,,14,,,,62,64
25080,note_off,120,0,3,,,,,,,,2,,,,77,64
25080,note_off,120,0,2,,,,,,,,1,,,,69,64
25080,note_off,120,0,5,,,,,,,,3,,,,69,64
25080,note_off,120,0,1,,,,,,,,0,,,,77,64
25080,note_off,120,0,11,,,,,,,,12,,,,69,64
25080,note_off,120,0,7,,,,,,,,4,,,,62,64
25360,note_off,400,0,9,,,,,,,,5,,,,62,64
25360,note_off,400,0,12,,,,,,,,13,,,,62,64
25440,note_on,360,0,4,,,,,,,,2,,,,70,75
25440,note_on,360,0,13,,,,,,,,14,,,,58,75
25440,note_on,360,0,3,,,,,,,,2,,,,74,92
25440,note_on,360,0,2,,,,,,,,1,,,,70,75
25440,note_on,360,0,6,,,,,,,,3,,,,64,75
25440,note_on,80,0,9,,,,,,,,5,,,,64,75
25440,note_on,360,0,10,,,,,,,,11,,,,74,92
25440,note_on,360,0,7,,,,,,,,4,,,,58,75
25440,note_on,360,0,11,,,,,,,,12,,,,70,75
25440,note_on,360,0,1,,,,,,,,0,,,,74,92
25440,note_on,360,0,8,,,,,,,,5,,,,58,75
25440,note_on,80,0,12,,,,,,,,13,,,,64,75
25440,note_on,360,0,14,,,,,,,,15,,,,46,75
25440,note_on,360,0,5,,,,,,,,3,,,,70,75
25560,note_off,120,0,4,,,,,,,,2,,,,70,64
25560,note_off,120,0,2,,,,,,,,1,,,,70,64
25560,note_off,120,0,13,,,,,,,,14,,,,58,64
25560,note_off,120,0,7,,,,,,,,4,,,,58,64
25560,note_off,120,0,10,,,,,,,,11,,,,74,64
25560,note_off,120,0,3,,,,,,,,2,,,,74,64
25560,note_off,120,0,11,,,,,,,,12,,,,70,64
25560,note_off,120,0,6,,,,,,,,3,,,,64,64
25560,note_off,120,0,5,,,,,,,,3,,,,70,64
25560,note_off,120,0,8,,,,,,,,5,,,,58,64
25560,note_off,120,0,14,,,,,,,,15,,,,46,64
25560,note_off,120,0,1,,,,,,,,0,,,,74,64
25840,note_off,400,0,12,,,,,,,,13,,,,64,64
25840,note_off,400,0,9,,,,,,,,5,,,,64,64
25920,note_on,360,0,5,,,,,,,,3,,,,65,75
25920,note_on,360,0,2,,,,,,,,1,,,,65,75
25920,note_on,360,0,4,,,,,,,,2,,,,65,75
25920,note_on,360,0,1,,,,,,,,0,,,,72,92
25920,note_on,80,0,9,,,,,,,,5,,,,65,75
25920,note_on,360,0,10,,,,,,,,11,,,,72,92
25920,note_on,360,0,11,,,,,,,,12,,,,65,75
25920,note_on,360,0,14,,,,,,,,15,,,,45,75
25920,note_on,360,0,13,,,,,,,,14,,,,57,75
25920,note_on,360,0,7,,,,,,,,4,,,,57,75
25920,note_on,80,0,12,,,,,,,,13,,,,65,75
25920,note_on,360,0,6,,,,,,,,3,,,,65,75
25920,note_on,360,0,8,,,,,,,,5,,,,53,75
25920,note_on,360,0,3,,,,,,,,2,,,,72,92
26320,note_off,400,0,3,,,,,,,,2,,,,72,64
26320,note_off,400,0,14,,,,,,,,15,,,,45,64
26400,note_off,480,0,1,,,,,,,,0,,,,72,64
26400,note_on,0,0,1,,,,,,,,0,,,,70,92
26400,note_on,80,0,3,,,,,,,,2,,,,70,92
26400,note_on,80,0,14,,,,,,,,15,,,,41,75
26400,note_off,480,0,13,,,,,,,,14,,,,57,64
26400,note_on,0,0,10,,,,,,,,11,,,,70,92
26400,note_off,480,0,7,,,,,,,,4,,,,57,64
26400,note_on,0,0,7,,,,,,,,4,,,,53,75
26400,note_on,0,0,13,,,,,,,,14,,,,53,75
26400,note_off,480,0,10,,,,,,,,11,,,,72,64
26640,note_off,240,0,10,,,,,,,,11,,,,70,64
26640,note_on,0,0,10,,,,,,,,11,,,,69,92
26640,note_on,0,0,3,,,,,,,,2,,,,69,92
26640,note_off,240,0,3,,,,,,,,2,,,,70,64
26640,note_on,0,0,1,,,,,,,,0,,,,69,92
26640,note_off,240,0,1,,,,,,,,0,,,,70,64
26760,note_off,840,0,5,,,,,,,,3,,,,65,64
26760,note_off,840,0,11,,,,,,,,12,,,,65,64
26760,note_off,840,0,12,,,,,,,,13,,,,65,64
26760,note_off,840,0,2,,,,,,,,1,,,,65,64
26760,note_off,840,0,8,,,,,,,,5,,,,53,64
26760,note_off,840,0,9,,,,,,,,5,,,,65,64
26760,note_off,840,0,6,,,,,,,,3,,,,65,64
26760,note_off,840,0,4,,,,,,,,2,,,,65,64
26800,note_off,400,0,14,,,,,,,,15,,,,41,64
26800,note_off,400,0,13,,,,,,,,14,,,,53,64
26800,note_off,400,0,7,,,,,,,,4,,,,53,64
26880,note_on,0,0,3,,,,,,,,2,,,,70,92
26880,note_off,240,0,3,,,,,,,,2,,,,69,64
26880,note_off,240,0,10,,,,,,,,11,,,,69,64
26880,note_on,0,0,10,,,,,,,,11,,,,70,92
26880,note_on,120,0,2,,,,,,,,1,,,,65,75
26880,note_on,80,0,7,,,,,,,,4,,,,55,75
26880,note_on,120,0,4,,,,,,,,2,,,,65,75
26880,note_on,120,0,11,,,,,,,,12,,,,65,75
26880,note_on,120,0,12,,,,,,,,13,,,,62,75
26880,note_on,120,0,8,,,,,,,,5,,,,53,75
26880,note_on,120,0,5,,,,,,,,3,,,,65,75
26880,note_on,80,0,14,,,,,,,,15,,,,43,75
26880,note_on,120,0,9,,,,,,,,5,,,,62,75
26880,note_on,0,0,1,,,,,,,,0,,,,70,92
26880,note_on,120,0,6,,,,,,,,3,,,,62,75
26880,note_on,80,0,13,,,,,,,,14,,,,55,75
26880,note_off,240,0,1,,,,,,,,0,,,,69,64
27280,note_off,400,0,3,,,,,,,,2,,,,70,64
27280,note_off,400,0,1,,,,,,,,0,,,,70,64
27280,note_off,400,0,14,,,,,,,,15,,,,43,64
27280,note_off,400,0,10,,,,,,,,11,,,,70,64
27360,note_on,80,0,14,,,,,,,,15,,,,36,75
27360,note_on,0,0,4,,,,,,,,2,,,,64,75
27360,note_off,480,0,8,,,,,,,,5,,,,53,64
27360,note_off,480,0,4,,,,,,,,2,,,,65,64
27360,note_off,480,0,7,,,,,,,,4,,,,55,64
27360,note_on,0,0,7,,,,,,,,4,,,,48,75
27360,note_off,480,0,6,,,,,,,,3,,,,62,64
27360,note_on,0,0,6,,,,,,,,3,,,,64,75
27360,note_on,0,0,8,,,,,,,,5,,,,52,75
27360,note_on,0,0,2,,,,,,,,1,,,,64,75
27360,note_on,80,0,1,,,,,,,,0,,,,69,92
27360,note_off,480,0,2,,,,,,,,1,,,,65,64
27360,note_off,480,0,9,,,,,,,,5,,,,62,64
27360,note_off,480,0,5,,,,,,,,3,,,,65,64
27360,note_on,0,0,5,,,,,,,,3,,,,64,75
27360,note_off,480,0,11,,,,,,,,12,,,,65,64
27360,note_on,0,0,11,,,,,,,,12,,,,64,75
27360,note_off,480,0,12,,,,,,,,13,,,,62,64
27360,note_on,0,0,12,,,,,,,,13,,,,64,75
27360,note_on,0,0,9,,,,,,,,5,,,,64,75
27360,note_on,80,0,3,,,,,,,,2,,,,69,92
27360,note_on,80,0,10,,,,,,,,11,,,,69,92
27360,note_off,480,0,13,,,,,,,,14,,,,55,64
27360,note_on,0,0,13,,,,,,,,14,,,,48,75
27600,note_on,0,0,1,,,,,,,,0,,,,67,92
27600,note_on,0,0,10,,,,,,,,11,,,,67,92
27600,note_off,240,0,3,,,,,,,,2,,,,69,64
27600,note_off,240,0,1,,,,,,,,0,,,,69,64
27600,note_off,240,0,10,,,,,,,,11,,,,69,64
27600,note_on,0,0,3,,,,,,,,2,,,,67,92
27760,note_off,400,0,14,,,,,,,,15,,,,36,64
27840,note_off,240,0,3,,,,,,,,2,,,,67,64
27840,note_off,240,0,10,,,,,,,,11,,,,67,64
27840,note_on,80,0,14,,,,,,,,15,,,,41,75
27840,note_on,0,0,11,,,,,,,,12,,,,65,75
27840,note_off,480,0,11,,,,,,,,12,,,,64,64
27840,note_off,480,0,8,,,,,,,,5,,,,52,64
27840,note_on,0,0,9,,,,,,,,5,,,,60,75
27840,note_on,0,0,7,,,,,,,,4,,,,53,75
27840,note_off,480,0,7,,,,,,,,4,,,,48,64
27840,note_off,240,0,1,,,,,,,,0,,,,67,64
27840,note_on,0,0,1,,,,,,,,0,,,,69,92
27840,note_on,0,0,12,,,,,,,,13,,,,60,75
27840,note_on,0,0,6,,,,,,,,3,,,,60,75
27840,note_on,0,0,4,,,,,,,,2,,,,65,75
27840,note_off,480,0,12,,,,,,,,13,,,,64,64
27840,note_on,0,0,2,,,,,,,,1,,,,65,75
27840,note_off,480,0,2,,,,,,,,1,,,,64,64
27840,note_on,0,0,3,,,,,,,,2,,,,69,92
27840,note_off,480,0,6,,,,,,,,3,,,,64,64
27840,note_off,480,0,13,,,,,,,,14,,,,48,64
27840,note_off,480,0,5,,,,,,,,3,,,,64,64
27840,note_on,0,0,10,,,,,,,,11,,,,69,92
27840,note_off,480,0,9,,,,,,,,5,,,,64,64
27840,note_on,0,0,5,,,,,,,,3,,,,65,75
27840,note_on,0,0,13,,,,,,,,14,,,,53,75
27840,note_off,480,0,4,,,,,,,,2,,,,64,64
27840,note_on,0,0,8,,,,,,,,5,,,,53,75
28080,note_off,240,0,3,,,,,,,,2,,,,69,64
28080,note_on,0,0,3,,,,,,,,2,,,,70,92
28080,note_off,240,0,10,,,,,,,,11,,,,69,64
28080,note_on,0,0,10,,,,,,,,11,,,,70,92
28080,note_on,0,0,1,,,,,,,,0,,,,70,92
28080,note_off,240,0,1,,,,,,,,0,,,,69,64
28240,note_off,400,0,14,,,,,,,,15,,,,41,64
28320,note_on,0,0,8,,,,,,,,5,,,,55,75
28320,note_on,0,0,12,,,,,,,,13,,,,60,75
28320,note_off,480,0,12,,,,,,,,13,,,,60,64
28320,note_on,0,0,6,,,,,,,,3,,,,60,75
28320,note_on,0,0,7,,,,,,,,4,,,,52,75
28320,note_on,0,0,11,,,,,,,,12,,,,67,75
28320,note_off,480,0,11,,,,,,,,12,,,,65,64
28320,note_off,240,0,3,,,,,,,,2,,,,70,64
28320,note_off,480,0,13,,,,,,,,14,,,,53,64
28320,note_off,480,0,7,,,,,,,,4,,,,53,64
28320,note_on,0,0,5,,,,,,,,3,,,,67,75
28320,note_on,0,0,2,,,,,,,,1,,,,67,75
28320,note_off,480,0,2,,,,,,,,1,,,,65,64
28320,note_on,0,0,10,,,,,,,,11,,,,72,92
28320,note_off,240,0,10,,,,,,,,11,,,,70,64
28320,note_off,480,0,5,,,,,,,,3,,,,65,64
28320,note_on,0,0,3,,,,,,,,2,,,,72,92
28320,note_on,0,0,13,,,,,,,,14,,,,52,75
28320,note_off,480,0,6,,,,,,,,3,,,,60,64
28320,note_off,480,0,9,,,,,,,,5,,,,60,64
28320,note_on,80,0,14,,,,,,,,15,,,,40,75
28320,note_off,480,0,8,,,,,,,,5,,,,53,64
28320,note_on,0,0,1,,,,,,,,0,,,,72,92
28320,note_on,0,0,9,,,,,,,,5,,,,60,75
28320,note_off,240,0,1,,,,,,,,0,,,,70,64
28320,note_on,0,0,4,,,,,,,,2,,,,67,75
28320,note_off,480,0,4,,,,,,,,2,,,,65,64
28440,note_off,120,0,11,,,,,,,,12,,,,67,64
28440,note_off,120,0,13,,,,,,,,14,,,,52,64
28440,note_off,120,0,9,,,,,,,,5,,,,60,64
28440,note_off,120,0,7,,,,,,,,4,,,,52,64
28440,note_off,120,0,6,,,,,,,,3,,,,60,64
28440,note_off,120,0,4,,,,,,,,2,,,,67,64
28440,note_off,120,0,8,,,,,,,,5,,,,55,64
28440,note_off,120,0,12,,,,,,,,13,,,,60,64
28440,note_off,120,0,5,,,,,,,,3,,,,67,64
28440,note_off,120,0,2,,,,,,,,1,,,,67,64
28440,note_off,120,0,1,,,,,,,,0,,,,72,64
28440,note_off,120,0,10,,,,,,,,11,,,,72,64
28720,note_off,400,0,14,,,,,,,,15,,,,40,64
28720,note_off,400,0,3,,,,,,,,2,,,,72,64
28800,note_on,360,0,5,,,,,,,,3,,,,69,75
28800,note_on,360,0,10,,,,,,,,11,,,,77,92
28800,note_on,360,0,2,,,,,,,,1,,,,69,75
28800,note_on,360,0,7,,,,,,,,4,,,,50,75
28800,note_on,360,0,1,,,,,,,,0,,,,77,92
28800,note_on,360,0,11,,,,,,,,12,,,,69,75
28800,note_on,360,0,8,,,,,,,,5,,,,57,75
28800,note_on,360,0,13,,,,,,,,14,,,,50,75
28800,note_on,360,0,9,,,,,,,,5,,,,62,75
28800,note_on,80,0,14,,,,,,,,15,,,,38,75
28800,note_on,360,0,6,,,,,,,,3,,,,62,75
28800,note_on,360,0,4,,,,,,,,2,,,,69,75
28800,note_on,80,0,3,,,,,,,,2,,,,77,92
28800,note_on,360,0,12,,,,,,,,13,,,,62,75
29640,note_off,840,0,12,,,,,,,,13,,,,62,64
29640,note_off,840,0,6,,,,,,,,3,,,,62,64
29640,note_off,840,0,10,,,,,,,,11,,,,77,64
29640,note_off,840,0,7,,,,,,,,4,,,,50,64
29640,note_off,840,0,2,,,,,,,,1,,,,69,64
29640,note_off,840,0,3,,,,,,,,2,,,,77,64
29640,note_off,840,0,9,,,,,,,,5,,,,62,64
29640,note_off,840,0,1,,,,,,,,0,,,,77,64
29640,note_off,840,0,4,,,,,,,,2,,,,69,64
29640,note_off,840,0,11,,,,,,,,12,,,,69,64
29640,note_off,840,0,14,,,,,,,,15,,,,38,64
29640,note_off,840,0,8,,,,,,,,5,,,,57,64
29640,note_off,840,0,13,,,,,,,,14,,,,50,64
29640,note_off,840,0,5,,,,,,,,3,,,,69,64
29760,note_on,120,0,1,,,,,,,,0,,,,76,92
29760,note_on,120,0,2,,,,,,,,1,,,,72,75
29760,note_on,120,0,13,,,,,,,,14,,,,57,75
29760,note_on,120,0,8,,,,,,,,5,,,,60,75
29760,note_on,120,0,10,,,,,,,,11,,,,76,92
29760,note_on,120,0,3,,,,,,,,2,,,,76,92
29760,note_on,120,0,12,,,,,,,,13,,,,60,75
29760,note_on,120,0,4,,,,,,,,2,,,,72,75
29760,note_on,120,0,14,,,,,,,,15,,,,45,75
29760,note_on,120,0,11,,,,,,,,12,,,,72,75
29760,note_on,120,0,6,,,,,,,,3,,,,60,75
29760,note_on,120,0,5,,,,,,,,3,,,,72,75
29760,note_on,120,0,7,,,,,,,,4,,,,57,75
29760,note_on,120,0,9,,,,,,,,5,,,,60,75
30240,note_off,480,0,3,,,,,,,,2,,,,76,64
30240,note_on,0,0,9,,,,,,,,5,,,,65,75
30240,note_on,0,0,3,,,,,,,,2,,,,74,92
30240,note_off,480,0,9,,,,,,,,5,,,,60,64
30240,note_on,0,0,6,,,,,,,,3,,,,65,75
30240,note_on,0,0,1,,,,,,,,0,,,,74,92
30240,note_on,0,0,12,,,,,,,,13,,,,65,75
30240,note_off,480,0,1,,,,,,,,0,,,,76,64
30240,note_off,480,0,12,,,,,,,,13,,,,60,64
30240,note_off,480,0,10,,,,,,,,11,,,,76,64
30240,note_on,0,0,10,,,,,,,,11,,,,74,92
30240,note_off,480,0,6,,,,,,,,3,,,,60,64
30480,note_on,0,0,1,,,,,,,,0,,,,72,92
30480,note_off,240,0,1,,,,,,,,0,,,,74,64
30480,note_on,0,0,3,,,,,,,,2,,,,72,92
30480,note_off,240,0,10,,,,,,,,11,,,,74,64
30480,note_on,0,0,10,,,,,,,,11,,,,72,92
30480,note_off,240,0,3,,,,,,,,2,,,,74,64
30600,note_off,840,0,13,,,,,,,,14,,,,57,64
30600,note_off,840,0,11,,,,,,,,12,,,,72,64
30600,note_off,840,0,8,,,,,,,,5,,,,60,64
30600,note_off,840,0,5,,,,,,,,3,,,,72,64
30600,note_off,840,0,7,,,,,,,,4,,,,57,64
30600,note_off,840,0,4,,,,,,,,2,,,,72,64
30600,note_off,840,0,14,,,,,,,,15,,,,45,64
30600,note_off,840,0,2,,,,,,,,1,,,,72,64
30640,note_off,400,0,9,,,,,,,,5,,,,65,64
30720,note_on,120,0,4,,,,,,,,2,,,,65,75
30720,note_on,120,0,13,,,,,,,,14,,,,58,75
30720,note_on,80,0,9,,,,,,,,5,,,,62,75
30720,note_off,480,0,12,,,,,,,,13,,,,65,64
30720,note_on,0,0,12,,,,,,,,13,,,,62,75
30720,note_on,120,0,11,,,,,,,,12,,,,65,75
30720,note_on,120,0,7,,,,,,,,4,,,,58,75
30720,note_on,120,0,2,,,,,,,,1,,,,65,75
30720,note_on,120,0,5,,,,,,,,3,,,,65,75
30720,note_on,0,0,3,,,,,,,,2,,,,74,92
30720,note_on,0,0,10,,,,,,,,11,,,,74,92
30720,note_off,240,0,10,,,,,,,,11,,,,72,64
30720,note_on,120,0,14,,,,,,,,15,,,,46,75
30720,note_off,240,0,3,,,,,,,,2,,,,72,64
30720,note_off,240,0,1,,,,,,,,0,,,,72,64
30720,note_on,0,0,6,,,,,,,,3,,,,62,75
30720,note_on,0,0,1,,,,,,,,0,,,,74,92
30720,note_on,120,0,8,,,,,,,,5,,,,53,75
30720,note_off,480,0,6,,,,,,,,3,,,,65,64
30840,note_off,120,0,8,,,,,,,,5,,,,53,64
30840,note_off,120,0,3,,,,,,,,2,,,,74,64
30840,note_off,120,0,13,,,,,,,,14,,,,58,64
30840,note_off,120,0,4,,,,,,,,2,,,,65,64
30840,note_off,120,0,9,,,,,,,,5,,,,62,64
30840,note_off,120,0,1,,,,,,,,0,,,,74,64
30840,note_off,120,0,12,,,,,,,,13,,,,62,64
30840,note_off,120,0,11,,,,,,,,12,,,,65,64
30840,note_off,120,0,2,,,,,,,,1,,,,65,64
30840,note_off,120,0,6,,,,,,,,3,,,,62,64
30840,note_off,120,0,10,,,,,,,,11,,,,74,64
30840,note_off,120,0,7,,,,,,,,4,,,,58,64
30840,note_off,120,0,14,,,,,,,,15,,,,46,64
30840,note_off,120,0,5,,,,,,,,3,,,,65,64
31200,note_on,360,0,2,,,,,,,,1,,,,69,75
31200,note_on,360,0,1,,,,,,,,0,,,,77,92
31200,note_on,360,0,14,,,,,,,,15,,,,45,75
31200,note_on,360,0,9,,,,,,,,5,,,,60,75
31200,note_on,360,0,7,,,,,,,,4,,,,57,75
31200,note_on,360,0,4,,,,,,,,2,,,,69,75
31200,note_on,360,0,12,,,,,,,,13,,,,60,75
31200,note_on,360,0,11,,,,,,,,12,,,,72,75
31200,note_on,360,0,10,,,,,,,,11,,,,77,92
31200,note_on,360,0,8,,,,,,,,5,,,,60,75
31200,note_on,360,0,3,,,,,,,,2,,,,77,92
31200,note_on,360,0,5,,,,,,,,3,,,,69,75
31200,note_on,360,0,6,,,,,,,,3,,,,60,75
31200,note_on,360,0,13,,,,,,,,14,,,,57,75
31320,note_off,120,0,13,,,,,,,,14,,,,57,64
31320,note_off,120,0,14,,,,,,,,15,,,,45,64
31320,note_off,120,0,10,,,,,,,,11,,,,77,64
31320,note_off,120,0,9,,,,,,,,5,,,,60,64
31320,note_off,120,0,7,,,,,,,,4,,,,57,64
31320,note_off,120,0,8,,,,,,,,5,,,,60,64
31320,note_off,120,0,4,,,,,,,,2,,,,69,64
31320,note_off,120,0,5,,,,,,,,3,,,,69,64
31320,note_off,120,0,1,,,,,,,,0,,,,77,64
31320,note_off,120,0,11,,,,,,,,12,,,,72,64
31320,note_off,120,0,2,,,,,,,,1,,,,69,64
31320,note_off,120,0,3,,,,,,,,2,,,,77,64
31320,note_off,120,0,6,,,,,,,,3,,,,60,64
31320,note_off,120,0,12,,,,,,,,13,,,,60,64
31680,note_on,360,0,14,,,,,,,,15,,,,43,75
31680,note_on,360,0,1,,,,,,,,0,,,,82,92
31680,note_on,360,0,13,,,,,,,,14,,,,55,75
31680,note_on,360,0,3,,,,,,,,2,,,,82,92
31680,note_on,360,0,9,,,,,,,,5,,,,58,75
31680,note_on,360,0,2,,,,,,,,1,,,,74,75
31680,note_on,360,0,11,,,,,,,,12,,,,74,75
31680,note_on,360,0,10,,,,,,,,11,,,,82,92
31680,note_on,360,0,6,,,,,,,,3,,,,58,75
31680,note_on,360,0,12,,,,,,,,13,,,,58,75
31680,note_on,360,0,4,,,,,,,,2,,,,74,75
31680,note_on,360,0,7,,,,,,,,4,,,,55,75
31680,note_on,360,0,8,,,,,,,,5,,,,62,75
31680,note_on,360,0,5,,,,,,,,3,,,,74,75
32080,note_off,400,0,14,,,,,,,,15,,,,43,64
32160,note_on,0,0,7,,,,,,,,4,,,,48,75
32160,note_on,0,0,12,,,,,,,,13,,,,60,75
32160,note_off,480,0,9,,,,,,,,5,,,,58,64
32160,note_off,480,0,12,,,,,,,,13,,,,58,64
32160,note_off,480,0,4,,,,,,,,2,,,,74,64
32160,note_on,0,0,4,,,,,,,,2,,,,76,75
32160,note_off,480,0,2,,,,,,,,1,,,,74,64
32160,note_on,0,0,2,,,,,,,,1,,,,76,75
32160,note_on,0,0,6,,,,,,,,3,,,,60,75
32160,note_off,480,0,6,,,,,,,,3,,,,58,64
32160,note_off,480,0,8,,,,,,,,5,,,,62,64
32160,note_off,480,0,7,,,,,,,,4,,,,55,64
32160,note_on,0,0,8,,,,,,,,5,,,,64,75
32160,note_off,480,0,5,,,,,,,,3,,,,74,64
32160,note_on,0,0,5,,,,,,,,3,,,,76,75
32160,note_off,480,0,13,,,,,,,,14,,,,55,64
32160,note_on,0,0,13,,,,,,,,14,,,,48,75
32160,note_on,80,0,14,,,,,,,,15,,,,36,75
32160,note_on,0,0,11,,,,,,,,12,,,,76,75
32160,note_off,480,0,11,,,,,,,,12,,,,74,64
32160,note_on,0,0,9,,,,,,,,5,,,,60,75
32520,note_off,840,0,1,,,,,,,,0,,,,82,64
32520,note_off,840,0,10,,,,,,,,11,,,,82,64
32520,note_off,840,0,3,,,,,,,,2,,,,82,64
32560,note_off,400,0,11,,,,,,,,12,,,,76,64
32560,note_off,400,0,4,,,,,,,,2,,,,76,64
32560,note_off,400,0,9,,,,,,,,5,,,,60,64
32560,note_off,400,0,13,,,,,,,,14,,,,48,64
32560,note_off,400,0,12,,,,,,,,13,,,,60,64
32560,note_off,400,0,8,,,,,,,,5,,,,64,64
32560,note_off,400,0,7,,,,,,,,4,,,,48,64
32560,note_off,400,0,2,,,,,,,,1,,,,76,64
32560,note_off,400,0,6,,,,,,,,3,,,,60,64
32560,note_off,400,0,14,,,,,,,,15,,,,36,64
32560,note_off,400,0,5,,,,,,,,3,,,,76,64
32640,note_on,80,0,12,,,,,,,,13,,,,60,75
32640,note_on,80,0,8,,,,,,,,5,,,,65,75
32640,note_on,80,0,6,,,,,,,,3,,,,60,75
32640,note_on,80,0,11,,,,,,,,12,,,,77,75
32640,note_on,80,0,14,,,,,,,,15,,,,41,75
32640,note_on,80,0,7,,,,,,,,4,,,,53,75
32640,note_on,80,0,9,,,,,,,,5,,,,60,75
32640,note_on,80,0,5,,,,,,,,3,,,,77,75
32640,note_on,120,0,1,,,,,,,,0,,,,81,92
32640,note_on,120,0,3,,,,,,,,2,,,,81,92
32640,note_on,80,0,13,,,,,,,,14,,,,53,75
32640,note_on,120,0,10,,,,,,,,11,,,,81,92
32640,note_on,80,0,2,,,,,,,,1,,,,77,75
32640,note_on,80,0,4,,,,,,,,2,,,,77,75
33040,note_off,400,0,14,,,,,,,,15,,,,41,64
33120,note_off,480,0,9,,,,,,,,5,,,,60,64
33120,note_on,0,0,6,,,,,,,,3,,,,62,75
33120,note_off,480,0,6,,,,,,,,3,,,,60,64
33120,note_off,480,0,3,,,,,,,,2,,,,81,64
33120,note_on,0,0,3,,,,,,,,2,,,,79,92
33120,note_on,0,0,7,,,,,,,,4,,,,62,75
33120,note_on,0,0,12,,,,,,,,13,,,,62,75
33120,note_off,480,0,12,,,,,,,,13,,,,60,64
33120,note_on,0,0,10,,,,,,,,11,,,,79,92
33120,note_off,480,0,1,,,,,,,,0,,,,81,64
33120,note_on,0,0,1,,,,,,,,0,,,,79,92
33120,note_off,480,0,10,,,,,,,,11,,,,81,64
33120,note_off,480,0,13,,,,,,,,14,,,,53,64
33120,note_on,0,0,13,,,,,,,,14,,,,62,75
33120,note_on,80,0,14,,,,,,,,15,,,,50,75
33120,note_off,480,0,7,,,,,,,,4,,,,53,64
33120,note_on,0,0,9,,,,,,,,5,,,,62,75
33360,note_off,240,0,10,,,,,,,,11,,,,79,64
33360,note_on,0,0,10,,,,,,,,11,,,,77,92
33360,note_off,240,0,3,,,,,,,,2,,,,79,64
33360,note_on,0,0,1,,,,,,,,0,,,,77,92
33360,note_on,0,0,3,,,,,,,,2,,,,77,92
33360,note_off,240,0,1,,,,,,,,0,,,,79,64
33480,note_off,840,0,4,,,,,,,,2,,,,77,64
33480,note_off,840,0,11,,,,,,,,12,,,,77,64
33480,note_off,840,0,2,,,,,,,,1,,,,77,64
33480,note_off,840,0,5,,,,,,,,3,,,,77,64
33480,note_off,840,0,8,,,,,,,,5,,,,65,64
33520,note_off,400,0,9,,,,,,,,5,,,,62,64
33520,note_off,400,0,14,,,,,,,,15,,,,50,64
33520,note_off,400,0,12,,,,,,,,13,,,,62,64
33520,note_off,400,0,7,,,,,,,,4,,,,62,64
33520,note_off,400,0,6,,,,,,,,3,,,,62,64
33520,note_off,400,0,13,,,,,,,,14,,,,62,64
33600,note_on,120,0,2,,,,,,,,1,,,,76,75
33600,note_on,0,0,10,,,,,,,,11,,,,79,92
33600,note_off,240,0,3,,,,,,,,2,,,,77,64
33600,note_on,120,0,11,,,,,,,,12,,,,76,75
33600,note_on,0,0,3,,,,,,,,2,,,,79,92
33600,note_on,120,0,5,,,,,,,,3,,,,76,75
33600,note_off,240,0,10,,,,,,,,11,,,,77,64
33600,note_on,80,0,14,,,,,,,,15,,,,48,75
33600,note_on,80,0,9,,,,,,,,5,,,,64,75
33600,note_on,80,0,13,,,,,,,,14,,,,60,75
33600,note_on,120,0,4,,,,,,,,2,,,,76,75
33600,note_on,80,0,12,,,,,,,,13,,,,64,75
33600,note_on,80,0,7,,,,,,,,4,,,,60,75
33600,note_on,0,0,1,,,,,,,,0,,,,79,92
33600,note_on,80,0,6,,,,,,,,3,,,,64,75
33600,note_on,120,0,8,,,,,,,,5,,,,64,75
33600,note_off,240,0,1,,,,,,,,0,,,,77,64
33720,note_off,120,0,3,,,,,,,,2,,,,79,64
33720,note_off,120,0,1,,,,,,,,0,,,,79,64
34000,note_off,400,0,14,,,,,,,,15,,,,48,64
34000,note_off,400,0,10,,,,,,,,11,,,,79,64
34080,note_on,360,0,1,,,,,,,,0,,,,72,92
34080,note_on,0,0,7,,,,,,,,4,,,,52,75
34080,note_on,80,0,10,,,,,,,,11,,,,72,92
34080,note_on,360,0,3,,,,,,,,2,,,,72,92
34080,note_off,480,0,13,,,,,,,,14,,,,60,64
34080,note_on,0,0,9,,,,,,,,5,,,,67,75
34080,note_on,0,0,13,,,,,,,,14,,,,52,75
34080,note_off,480,0,12,,,,,,,,13,,,,64,64
34080,note_off,480,0,9,,,,,,,,5,,,,64,64
34080,note_off,480,0,7,,,,,,,,4,,,,60,64
34080,note_on,0,0,12,,,,,,,,13,,,,67,75
34080,note_on,80,0,14,,,,,,,,15,,,,40,75
34080,note_on,0,0,6,,,,,,,,3,,,,67,75
34080,note_off,480,0,6,,,,,,,,3,,,,64,64
34200,note_off,120,0,1,,,,,,,,0,,,,72,64
34200,note_off,120,0,3,,,,,,,,2,,,,72,64
34440,note_off,840,0,2,,,,,,,,1,,,,76,64
34440,note_off,840,0,8,,,,,,,,5,,,,64,64
34440,note_off,840,0,4,,,,,,,,2,,,,76,64
34440,note_off,840,0,11,,,,,,,,12,,,,76,64
34440,note_off,840,0,5,,,,,,,,3,,,,76,64
34480,note_off,400,0,14,,,,,,,,15,,,,40,64
34480,note_off,400,0,6,,,,,,,,3,,,,67,64
34480,note_off,400,0,12,,,,,,,,13,,,,67,64
34480,note_off,400,0,7,,,,,,,,4,,,,52,64
34480,note_off,400,0,13,,,,,,,,14,,,,52,64
34480,note_off,400,0,9,,,,,,,,5,,,,67,64
34560,note_on,120,0,11,,,,,,,,12,,,,72,75
34560,note_on,80,0,9,,,,,,,,5,,,,65,75
34560,note_on,120,0,8,,,,,,,,5,,,,60,75
34560,note_on,120,0,5,,,,,,,,3,,,,72,75
34560,note_on,80,0,14,,,,,,,,15,,,,41,75
34560,note_on,120,0,4,,,,,,,,2,,,,72,75
34560,note_on,360,0,3,,,,,,,,2,,,,81,92
34560,note_on,80,0,6,,,,,,,,3,,,,65,75
34560,note_on,80,0,12,,,,,,,,13,,,,65,75
34560,note_on,80,0,13,,,,,,,,14,,,,53,75
34560,note_on,360,0,1,,,,,,,,0,,,,81,92
34560,note_off,480,0,10,,,,,,,,11,,,,72,64
34560,note_on,0,0,10,,,,,,,,11,,,,81,92
34560,note_on,80,0,7,,,,,,,,4,,,,53,75
34560,note_on,120,0,2,,,,,,,,1,,,,72,75
35400,note_off,840,0,10,,,,,,,,11,,,,81,64
35400,note_off,840,0,13,,,,,,,,14,,,,53,64
35400,note_off,840,0,7,,,,,,,,4,,,,53,64
35400,note_off,840,0,14,,,,,,,,15,,,,41,64
35400,note_off,840,0,2,,,,,,,,1,,,,72,64
35400,note_off,840,0,9,,,,,,,,5,,,,65,64
35400,note_off,840,0,8,,,,,,,,5,,,,60,64
35400,note_off,840,0,11,,,,,,,,12,,,,72,64
35400,note_off,840,0,6,,,,,,,,3,,,,65,64
35400,note_off,840,0,12,,,,,,,,13,,,,65,64
35400,note_off,840,0,5,,,,,,,,3,,,,72,64
35400,note_off,840,0,3,,,,,,,,2,,,,81,64
35400,note_off,840,0,1,,,,,,,,0,,,,81,64
35400,note_off,840,0,4,,,,,,,,2,,,,72,64
35520,note_on,120,0,4,,,,,,,,2,,,,76,75
35520,note_on,120,0,10,,,,,,,,11,,,,79,92
35520,note_on,120,0,14,,,,,,,,15,,,,36,75
35520,note_on,120,0,1,,,,,,,,0,,,,79,92
35520,note_on,120,0,3,,,,,,,,2,,,,79,92
35520,note_on,120,0,2,,,,,,,,1,,,,76,75
35520,note_on,120,0,9,,,,,,,,5,,,,67,75
35520,note_on,120,0,8,,,,,,,,5,,,,64,75
35520,note_on,120,0,5,,,,,,,,3,,,,76,75
35520,note_on,120,0,13,,,,,,,,14,,,,48,75
35520,note_on,120,0,12,,,,,,,,13,,,,67,75
35520,note_on,120,0,7,,,,,,,,4,,,,48,75
35520,note_on,120,0,6,,,,,,,,3,,,,67,75
35520,note_on,120,0,11,,,,,,,,12,,,,76,75
36000,note_off,480,0,10,,,,,,,,11,,,,79,64
36000,note_off,480,0,11,,,,,,,,12,,,,76,64
36000,note_off,480,0,1,,,,,,,,0,,,,79,64
36000,note_off,480,0,3,,,,,,,,2,,,,79,64
36000,note_on,0,0,3,,,,,,,,2,,,,77,92
36000,note_off,480,0,4,,,,,,,,2,,,,76,64
36000,note_on,0,0,11,,,,,,,,12,,,,72,75
36000,note_off,480,0,2,,,,,,,,1,,,,76,64
36000,note_on,0,0,2,,,,,,,,1,,,,72,75
36000,note_on,0,0,8,,,,,,,,5,,,,60,75
36000,note_off,480,0,8,,,,,,,,5,,,,64,64
36000,note_on,0,0,10,,,,,,,,11,,,,77,92
36000,note_on,0,0,4,,,,,,,,2,,,,72,75
36000,note_on,0,0,5,,,,,,,,3,,,,72,75
36000,note_off,480,0,5,,,,,,,,3,,,,76,64
36000,note_on,0,0,1,,,,,,,,0,,,,77,92
36240,note_on,0,0,1,,,,,,,,0,,,,76,92
36240,note_on,0,0,10,,,,,,,,11,,,,76,92
36240,note_on,0,0,3,,,,,,,,2,,,,76,92
36240,note_off,240,0,1,,,,,,,,0,,,,77,64
36240,note_off,240,0,10,,,,,,,,11,,,,77,64
36240,note_off,240,0,3,,,,,,,,2,,,,77,64
36360,note_off,840,0,12,,,,,,,,13,,,,67,64
36360,note_off,840,0,13,,,,,,,,14,,,,48,64
36360,note_off,840,0,7,,,,,,,,4,,,,48,64
36360,note_off,840,0,14,,,,,,,,15,,,,36,64
36360,note_off,840,0,6,,,,,,,,3,,,,67,64
36360,note_off,840,0,9,,,,,,,,5,,,,67,64
36400,note_off,400,0,8,,,,,,,,5,,,,60,64
36480,note_on,120,0,9,,,,,,,,5,,,,62,75
36480,note_off,240,0,3,,,,,,,,2,,,,76,64
36480,note_on,0,0,3,,,,,,,,2,,,,77,92
36480,note_on,120,0,13,,,,,,,,14,,,,50,75
36480,note_on,120,0,12,,,,,,,,13,,,,62,75
36480,note_off,480,0,4,,,,,,,,2,,,,72,64
36480,note_on,0,0,4,,,,,,,,2,,,,69,75
36480,note_off,480,0,2,,,,,,,,1,,,,72,64
36480,note_on,120,0,6,,,,,,,,3,,,,62,75
36480,note_on,80,0,8,,,,,,,,5,,,,57,75
36480,note_on,120,0,7,,,,,,,,4,,,,50,75
36480,note_off,480,0,5,,,,,,,,3,,,,72,64
36480,note_on,0,0,5,,,,,,,,3,,,,69,75
36480,note_on,0,0,2,,,,,,,,1,,,,69,75
36480,note_on,0,0,11,,,,,,,,12,,,,69,75
36480,note_off,240,0,1,,,,,,,,0,,,,76,64
36480,note_on,120,0,14,,,,,,,,15,,,,38,75
36480,note_on,0,0,10,,,,,,,,11,,,,77,92
36480,note_off,480,0,11,,,,,,,,12,,,,72,64
36480,note_off,240,0,10,,,,,,,,11,,,,76,64
36480,note_on,0,0,1,,,,,,,,0,,,,77,92
36600,note_off,120,0,13,,,,,,,,14,,,,50,64
36600,note_off,120,0,3,,,,,,,,2,,,,77,64
36600,note_off,120,0,12,,,,,,,,13,,,,62,64
36600,note_off,120,0,4,,,,,,,,2,,,,69,64
36600,note_off,120,0,6,,,,,,,,3,,,,62,64
36600,note_off,120,0,10,,,,,,,,11,,,,77,64
36600,note_off,120,0,11,,,,,,,,12,,,,69,64
36600,note_off,120,0,9,,,,,,,,5,,,,62,64
36600,note_off,120,0,1,,,,,,,,0,,,,77,64
36600,note_off,120,0,5,,,,,,,,3,,,,69,64
36600,note_off,120,0,2,,,,,,,,1,,,,69,64
36600,note_off,120,0,8,,,,,,,,5,,,,57,64
36600,note_off,120,0,7,,,,,,,,4,,,,50,64
36880,note_off,400,0,14,,,,,,,,15,,,,38,64
36960,note_on,360,0,6,,,,,,,,3,,,,64,75
36960,note_on,360,0,12,,,,,,,,13,,,,64,75
36960,note_on,360,0,7,,,,,,,,4,,,,58,75
36960,note_on,360,0,10,,,,,,,,11,,,,74,92
36960,note_on,360,0,8,,,,,,,,5,,,,58,75
36960,note_on,360,0,3,,,,,,,,2,,,,74,92
36960,note_on,360,0,4,,,,,,,,2,,,,70,75
36960,note_on,360,0,1,,,,,,,,0,,,,74,92
36960,note_on,360,0,9,,,,,,,,5,,,,64,75
36960,note_on,80,0,14,,,,,,,,15,,,,46,75
36960,note_on,360,0,5,,,,,,,,3,,,,70,75
36960,note_on,360,0,13,,,,,,,,14,,,,58,75
36960,note_on,360,0,11,,,,,,,,12,,,,70,75
36960,note_on,360,0,2,,,,,,,,1,,,,70,75
37080,note_off,120,0,9,,,,,,,,5,,,,64,64
37080,note_off,120,0,13,,,,,,,,14,,,,58,64
37080,note_off,120,0,7,,,,,,,,4,,,,58,64
37080,note_off,120,0,11,,,,,,,,12,,,,70,64
37080,note_off,120,0,8,,,,,,,,5,,,,58,64
37080,note_off,120,0,6,,,,,,,,3,,,,64,64
37080,note_off,120,0,12,,,,,,,,13,,,,64,64
37080,note_off,120,0,2,,,,,,,,1,,,,70,64
37080,note_off,120,0,10,,,,,,,,11,,,,74,64
37080,note_off,120,0,5,,,,,,,,3,,,,70,64
37080,note_off,120,0,4,,,,,,,,2,,,,70,64
37080,note_off,120,0,1,,,,,,,,0,,,,74,64
37080,note_off,120,0,3,,,,,,,,2,,,,74,64
37360,note_off,400,0,14,,,,,,,,15,,,,46,64
37440,note_on,360,0,10,,,,,,,,11,,,,72,92
37440,note_on,360,0,12,,,,,,,,13,,,,65,75
37440,note_on,80,0,14,,,,,,,,15,,,,45,75
37440,note_on,360,0,11,,,,,,,,12,,,,65,75
37440,note_on,360,0,3,,,,,,,,2,,,,72,92
37440,note_on,360,0,5,,,,,,,,3,,,,65,75
37440,note_on,360,0,6,,,,,,,,3,,,,65,75
37440,note_on,360,0,1,,,,,,,,0,,,,72,92
37440,note_on,360,0,2,,,,,,,,1,,,,65,75
37440,note_on,360,0,7,,,,,,,,4,,,,57,75
37440,note_on,360,0,4,,,,,,,,2,,,,65,75
37440,note_on,360,0,8,,,,,,,,5,,,,53,75
37440,note_on,360,0,13,,,,,,,,14,,,,57,75
37440,note_on,360,0,9,,,,,,,,5,,,,65,75
37840,note_off,400,0,14,,,,,,,,15,,,,45,64
37920,note_off,480,0,13,,,,,,,,14,,,,57,64
37920,note_on,0,0,13,,,,,,,,14,,,,53,75
37920,note_on,0,0,7,,,,,,,,4,,,,53,75
37920,note_off,480,0,7,,,,,,,,4,,,,57,64
37920,note_on,0,0,1,,,,,,,,0,,,,70,92
37920,note_off,480,0,1,,,,,,,,0,,,,72,64
37920,note_off,480,0,3,,,,,,,,2,,,,72,64
37920,note_on,0,0,3,,,,,,,,2,,,,70,92
37920,note_on,0,0,10,,,,,,,,11,,,,70,92
37920,note_on,80,0,14,,,,,,,,15,,,,41,75
37920,note_off,480,0,10,,,,,,,,11,,,,72,64
38160,note_on,0,0,10,,,,,,,,11,,,,69,92
38160,note_off,240,0,3,,,,,,,,2,,,,70,64
38160,note_on,0,0,3,,,,,,,,2,,,,69,92
38160,note_on,0,0,1,,,,,,,,0,,,,69,92
38160,note_off,240,0,1,,,,,,,,0,,,,70,64
38160,note_off,240,0,10,,,,,,,,11,,,,70,64
38280,note_off,840,0,11,,,,,,,,12,,,,65,64
38280,note_off,840,0,8,,,,,,,,5,,,,53,64
38280,note_off,840,0,4,,,,,,,,2,,,,65,64
38280,note_off,840,0,2,,,,,,,,1,,,,65,64
38280,note_off,840,0,12,,,,,,,,13,,,,65,64
38280,note_off,840,0,5,,,,,,,,3,,,,65,64
38320,note_off,400,0,14,,,,,,,,15,,,,41,64
38320,note_off,400,0,13,,,,,,,,14,,,,53,64
38400,note_on,0,0,6,,,,,,,,3,,,,62,75
38400,note_on,80,0,14,,,,,,,,15,,,,43,75
38400,note_on,120,0,4,,,,,,,,2,,,,65,75
38400,note_on,0,0,3,,,,,,,,2,,,,70,92
38400,note_off,240,0,3,,,,,,,,2,,,,69,64
38400,note_off,960,0,9,,,,,,,,5,,,,65,64
38400,note_on,0,0,9,,,,,,,,5,,,,62,75
38400,note_on,0,0,1,,,,,,,,0,,,,70,92
38400,note_off,240,0,1,,,,,,,,0,,,,69,64
38400,note_on,80,0,13,,,,,,,,14,,,,55,75
38400,note_on,120,0,5,,,,,,,,3,,,,65,75
38400,note_off,960,0,6,,,,,,,,3,,,,65,64
38400,note_on,0,0,10,,,,,,,,11,,,,70,92
38400,note_on,0,0,7,,,,,,,,4,,,,55,75
38400,note_on,120,0,8,,,,,,,,5,,,,53,75
38400,note_on,120,0,2,,,,,,,,1,,,,65,75
38400,note_on,120,0,11,,,,,,,,12,,,,65,75
38400,note_on,120,0,12,,,,,,,,13,,,,62,75
38400,note_off,240,0,10,,,,,,,,11,,,,69,64
38400,note_off,480,0,7,,,,,,,,4,,,,53,64
38520,note_off,120,0,3,,,,,,,,2,,,,70,64
38800,note_off,400,0,9,,,,,,,,5,,,,62,64
38800,note_off,400,0,10,,,,,,,,11,,,,70,64
38800,note_off,400,0,1,,,,,,,,0,,,,70,64
38800,note_off,400,0,14,,,,,,,,15,,,,43,64
38880,note_on,0,0,4,,,,,,,,2,,,,64,75
38880,note_on,360,0,3,,,,,,,,2,,,,69,92
38880,note_off,480,0,4,,,,,,,,2,,,,65,64
38880,note_off,480,0,11,,,,,,,,12,,,,65,64
38880,note_off,480,0,8,,,,,,,,5,,,,53,64
38880,note_off,480,0,6,,,,,,,,3,,,,62,64
38880,note_on,0,0,8,,,,,,,,5,,,,52,75
38880,note_on,80,0,10,,,,,,,,11,,,,69,92
38880,note_off,480,0,12,,,,,,,,13,,,,62,64
38880,note_on,80,0,1,,,,,,,,0,,,,69,92
38880,note_on,0,0,12,,,,,,,,13,,,,60,75
38880,note_off,480,0,7,,,,,,,,4,,,,55,64
38880,note_on,0,0,7,,,,,,,,4,,,,48,75
38880,note_off,480,0,2,,,,,,,,1,,,,65,64
38880,note_on,0,0,11,,,,,,,,12,,,,64,75
38880,note_on,0,0,2,,,,,,,,1,,,,64,75
38880,note_on,80,0,14,,,,,,,,15,,,,36,75
38880,note_off,480,0,5,,,,,,,,3,,,,65,64
38880,note_on,0,0,5,,,,,,,,3,,,,64,75
38880,note_on,0,0,6,,,,,,,,3,,,,60,75
38880,note_on,80,0,9,,,,,,,,5,,,,60,75
38880,note_on,0,0,13,,,,,,,,14,,,,48,75
38880,note_off,480,0,13,,,,,,,,14,,,,55,64
39120,note_off,240,0,10,,,,,,,,11,,,,69,64
39120,note_off,240,0,1,,,,,,,,0,,,,69,64
39120,note_on,0,0,1,,,,,,,,0,,,,67,92
39120,note_on,0,0,10,,,,,,,,11,,,,67,92
39120,note_off,240,0,3,,,,,,,,2,,,,69,64
39120,note_on,0,0,3,,,,,,,,2,,,,67,92
39280,note_off,400,0,14,,,,,,,,15,,,,36,64
39360,note_on,0,0,10,,,,,,,,11,,,,69,92
39360,note_off,240,0,10,,,,,,,,11,,,,67,64
39360,note_on,0,0,5,,,,,,,,3,,,,65,75
39360,note_on,0,0,8,,,,,,,,5,,,,53,75
39360,note_off,240,0,1,,,,,,,,0,,,,67,64
39360,note_off,480,0,12,,,,,,,,13,,,,60,64
39360,note_on,0,0,12,,,,,,,,13,,,,60,75
39360,note_on,0,0,11,,,,,,,,12,,,,65,75
39360,note_off,480,0,11,,,,,,,,12,,,,64,64
39360,note_off,480,0,5,,,,,,,,3,,,,64,64
39360,note_on,0,0,1,,,,,,,,0,,,,69,92
39360,note_off,480,0,8,,,,,,,,5,,,,52,64
39360,note_on,0,0,9,,,,,,,,5,,,,60,75
39360,note_on,80,0,14,,,,,,,,15,,,,41,75
39360,note_on,0,0,13,,,,,,,,14,,,,53,75
39360,note_off,480,0,13,,,,,,,,14,,,,48,64
39360,note_on,0,0,4,,,,,,,,2,,,,65,75
39360,note_off,480,0,4,,,,,,,,2,,,,64,64
39360,note_off,480,0,2,,,,,,,,1,,,,64,64
39360,note_off,480,0,9,,,,,,,,5,,,,60,64
39360,note_on,0,0,7,,,,,,,,4,,,,53,75
39360,note_on,0,0,6,,,,,,,,3,,,,60,75
39360,note_off,480,0,6,,,,,,,,3,,,,60,64
39360,note_on,0,0,3,,,,,,,,2,,,,69,92
39360,note_off,240,0,3,,,,,,,,2,,,,67,64
39360,note_on,0,0,2,,,,,,,,1,,,,65,75
39360,note_off,480,0,7,,,,,,,,4,,,,48,64
39600,note_off,240,0,3,,,,,,,,2,,,,69,64
39600,note_on,0,0,10,,,,,,,,11,,,,70,92
39600,note_off,240,0,1,,,,,,,,0,,,,69,64
39600,note_on,0,0,3,,,,,,,,2,,,,70,92
39600,note_on,0,0,1,,,,,,,,0,,,,70,92
39600,note_off,240,0,10,,,,,,,,11,,,,69,64
39760,note_off,400,0,14,,,,,,,,15,,,,41,64
39840,note_on,0,0,11,,,,,,,,12,,,,67,75
39840,note_off,480,0,11,,,,,,,,12,,,,65,64
39840,note_off,480,0,13,,,,,,,,14,,,,53,64
39840,note_on,0,0,13,,,,,,,,14,,,,52,75
39840,note_on,0,0,3,,,,,,,,2,,,,72,92
39840,note_on,0,0,1,,,,,,,,0,,,,72,92
39840,note_off,480,0,7,,,,,,,,4,,,,53,64
39840,note_off,480,0,12,,,,,,,,13,,,,60,64
39840,note_on,0,0,12,,,,,,,,13,,,,60,75
39840,note_off,240,0,1,,,,,,,,0,,,,70,64
39840,note_off,480,0,8,,,,,,,,5,,,,53,64
39840,note_off,480,0,9,,,,,,,,5,,,,60,64
39840,note_on,0,0,9,,,,,,,,5,,,,60,75
39840,note_on,0,0,2,,,,,,,,1,,,,67,75
39840,note_off,480,0,2,,,,,,,,1,,,,65,64
39840,note_on,80,0,14,,,,,,,,15,,,,40,75
39840,note_on,0,0,4,,,,,,,,2,,,,67,75
39840,note_off,480,0,4,,,,,,,,2,,,,65,64
39840,note_off,240,0,10,,,,,,,,11,,,,70,64
39840,note_on,0,0,10,,,,,,,,11,,,,72,92
39840,note_off,240,0,3,,,,,,,,2,,,,70,64
39840,note_on,0,0,7,,,,,,,,4,,,,52,75
39840,note_off,480,0,6,,,,,,,,3,,,,60,64
39840,note_on,0,0,8,,,,,,,,5,,,,55,75
39840,note_on,0,0,5,,,,,,,,3,,,,67,75
39840,note_off,480,0,5,,,,,,,,3,,,,65,64
39840,note_on,0,0,6,,,,,,,,3,,,,60,75
39960,note_off,120,0,1,,,,,,,,0,,,,72,64
39960,note_off,120,0,10,,,,,,,,11,,,,72,64
39960,note_off,120,0,4,,,,,,,,2,,,,67,64
39960,note_off,120,0,13,,,,,,,,14,,,,52,64
39960,note_off,120,0,11,,,,,,,,12,,,,67,64
39960,note_off,120,0,2,,,,,,,,1,,,,67,64
39960,note_off,120,0,9,,,,,,,,5,,,,60,64
39960,note_off,120,0,5,,,,,,,,3,,,,67,64
39960,note_off,120,0,8,,,,,,,,5,,,,55,64
39960,note_off,120,0,3,,,,,,,,2,,,,72,64
39960,note_off,120,0,7,,,,,,,,4,,,,52,64
39960,note_off,120,0,6,,,,,,,,3,,,,60,64
39960,note_off,120,0,12,,,,,,,,13,,,,60,64
40240,note_off,400,0,14,,,,,,,,15,,,,40,64
40320,note_on,360,0,13,,,,,,,,14,,,,50,75
40320,note_on,360,0,8,,,,,,,,5,,,,50,75
40320,note_on,360,0,6,,,,,,,,3,,,,57,75
40320,note_on,80,0,14,,,,,,,,15,,,,38,75
40320,note_on,360,0,11,,,,,,,,12,,,,62,75
40320,note_on,360,0,1,,,,,,,,0,,,,65,92
40320,note_on,360,0,4,,,,,,,,2,,,,62,75
40320,note_on,360,0,7,,,,,,,,4,,,,50,75
40320,note_on,360,0,10,,,,,,,,11,,,,65,92
40320,note_on,360,0,9,,,,,,,,5,,,,57,75
40320,note_on,360,0,12,,,,,,,,13,,,,57,75
40320,note_on,360,0,5,,,,,,,,3,,,,62,75
40320,note_on,360,0,3,,,,,,,,2,,,,65,92
40320,note_on,360,0,2,,,,,,,,1,,,,62,75
40440,note_off,120,0,3,,,,,,,,2,,,,65,64
40440,note_off,120,0,1,,,,,,,,0,,,,65,64
40440,note_off,120,0,7,,,,,,,,4,,,,50,64
40440,note_off,120,0,11,,,,,,,,12,,,,62,64
40440,note_off,120,0,13,,,,,,,,14,,,,50,64
40440,note_off,120,0,8,,,,,,,,5,,,,50,64
40440,note_off,120,0,10,,,,,,,,11,,,,65,64
40440,note_off,120,0,6,,,,,,,,3,,,,57,64
40440,note_off,120,0,2,,,,,,,,1,,,,62,64
40440,note_off,120,0,9,,,,,,,,5,,,,57,64
40440,note_off,120,0,12,,,,,,,,13,,,,57,64
40440,note_off,120,0,5,,,,,,,,3,,,,62,64
40440,note_off,120,0,4,,,,,,,,2,,,,62,64
40720,note_off,400,0,14,,,,,,,,15,,,,38,64
40800,note_on,360,0,10,,,,,,,,11,,,,74,92
40800,note_on,360,0,6,,,,,,,,3,,,,65,75
40800,note_on,360,0,5,,,,,,,,3,,,,69,75
40800,note_on,360,0,9,,,,,,,,5,,,,65,75
40800,note_on,80,0,14,,,,,,,,15,,,,41,75
40800,note_on,360,0,11,,,,,,,,12,,,,69,75
40800,note_on,360,0,12,,,,,,,,13,,,,65,75
40800,note_on,360,0,4,,,,,,,,2,,,,69,75
40800,note_on,360,0,3,,,,,,,,2,,,,74,92
40800,note_on,360,0,2,,,,,,,,1,,,,69,75
40800,note_on,360,0,8,,,,,,,,5,,,,57,75
40800,note_on,360,0,13,,,,,,,,14,,,,53,75
40800,note_on,360,0,1,,,,,,,,0,,,,74,92
40800,note_on,360,0,7,,,,,,,,4,,,,53,75
41640,note_off,840,0,2,,,,,,,,1,,,,69,64
41640,note_off,840,0,10,,,,,,,,11,,,,74,64
41640,note_off,840,0,4,,,,,,,,2,,,,69,64
41640,note_off,840,0,3,,,,,,,,2,,,,74,64
41640,note_off,840,0,9,,,,,,,,5,,,,65,64
41640,note_off,840,0,7,,,,,,,,4,,,,53,64
41640,note_off,840,0,5,,,,,,,,3,,,,69,64
41640,note_off,840,0,6,,,,,,,,3,,,,65,64
41640,note_off,840,0,13,,,,,,,,14,,,,53,64
41640,note_off,840,0,8,,,,,,,,5,,,,57,64
41640,note_off,840,0,1,,,,,,,,0,,,,74,64
41640,note_off,840,0,14,,,,,,,,15,,,,41,64
41640,note_off,840,0,12,,,,,,,,13,,,,65,64
41640,note_off,840,0,11,,,,,,,,12,,,,69,64
41760,note_on,120,0,2,,,,,,,,1,,,,69,75
41760,note_on,120,0,9,,,,,,,,5,,,,65,75
41760,note_on,120,0,8,,,,,,,,5,,,,57,75
41760,note_on,120,0,1,,,,,,,,0,,,,76,92
41760,note_on,120,0,4,,,,,,,,2,,,,69,75
41760,note_on,120,0,6,,,,,,,,3,,,,65,75
41760,note_on,120,0,12,,,,,,,,13,,,,65,75
41760,note_on,120,0,13,,,,,,,,14,,,,50,75
41760,note_on,120,0,7,,,,,,,,4,,,,50,75
41760,note_on,120,0,11,,,,,,,,12,,,,69,75
41760,note_on,120,0,14,,,,,,,,15,,,,38,75
41760,note_on,120,0,10,,,,,,,,11,,,,76,92
41760,note_on,120,0,5,,,,,,,,3,,,,69,75
41760,note_on,120,0,3,,,,,,,,2,,,,76,92
42000,note_on,0,0,1,,,,,,,,0,,,,77,92
42000,note_on,0,0,3,,,,,,,,2,,,,77,92
42000,note_off,240,0,3,,,,,,,,2,,,,76,64
42000,note_off,240,0,10,,,,,,,,11,,,,76,64
42000,note_on,0,0,10,,,,,,,,11,,,,77,92
42000,note_off,240,0,1,,,,,,,,0,,,,76,64
42160,note_off,400,0,14,,,,,,,,15,,,,38,64
42240,note_on,0,0,13,,,,,,,,14,,,,55,75
42240,note_on,80,0,14,,,,,,,,15,,,,43,75
42240,note_on,0,0,12,,,,,,,,13,,,,62,75
42240,note_on,0,0,8,,,,,,,,5,,,,55,75
42240,note_off,480,0,8,,,,,,,,5,,,,57,64
42240,note_off,480,0,12,,,,,,,,13,,,,65,64
42240,note_on,0,0,7,,,,,,,,4,,,,55,75
42240,note_on,0,0,2,,,,,,,,1,,,,67,75
42240,note_off,480,0,2,,,,,,,,1,,,,69,64
42240,note_off,240,0,3,,,,,,,,2,,,,77,64
42240,note_off,480,0,9,,,,,,,,5,,,,65,64
42240,note_on,0,0,9,,,,,,,,5,,,,62,75
42240,note_on,0,0,4,,,,,,,,2,,,,67,75
42240,note_off,480,0,4,,,,,,,,2,,,,69,64
42240,note_on,0,0,10,,,,,,,,11,,,,71,92
42240,note_off,240,0,10,,,,,,,,11,,,,77,64
42240,note_off,480,0,13,,,,,,,,14,,,,50,64
42240,note_on,0,0,3,,,,,,,,2,,,,71,92
42240,note_off,480,0,7,,,,,,,,4,,,,50,64
42240,note_off,240,0,1,,,,,,,,0,,,,77,64
42240,note_off,480,0,5,,,,,,,,3,,,,69,64
42240,note_off,480,0,11,,,,,,,,12,,,,69,64
42240,note_on,0,0,11,,,,,,,,12,,,,67,75
42240,note_on,0,0,6,,,,,,,,3,,,,62,75
42240,note_on,0,0,5,,,,,,,,3,,,,67,75
42240,note_off,480,0,6,,,,,,,,3,,,,65,64
42240,note_on,0,0,1,,,,,,,,0,,,,71,92
42360,note_off,120,0,3,,,,,,,,2,,,,71,64
42360,note_off,120,0,6,,,,,,,,3,,,,62,64
42360,note_off,120,0,2,,,,,,,,1,,,,67,64
42360,note_off,120,0,7,,,,,,,,4,,,,55,64
42360,note_off,120,0,5,,,,,,,,3,,,,67,64
42360,note_off,120,0,10,,,,,,,,11,,,,71,64
42360,note_off,120,0,1,,,,,,,,0,,,,71,64
42360,note_off,120,0,8,,,,,,,,5,,,,55,64
42360,note_off,120,0,9,,,,,,,,5,,,,62,64
42360,note_off,120,0,4,,,,,,,,2,,,,67,64
42360,note_off,120,0,12,,,,,,,,13,,,,62,64
42360,note_off,120,0,13,,,,,,,,14,,,,55,64
42360,note_off,120,0,11,,,,,,,,12,,,,67,64
42640,note_off,400,0,14,,,,,,,,15,,,,43,64
42720,note_on,360,0,9,,,,,,,,5,,,,59,75
42720,note_on,360,0,12,,,,,,,,13,,,,59,75
42720,note_on,360,0,6,,,,,,,,3,,,,59,75
42720,note_on,80,0,14,,,,,,,,15,,,,41,75
42720,note_on,360,0,2,,,,,,,,1,,,,62,75
42720,note_on,360,0,1,,,,,,,,0,,,,67,92
42720,note_on,360,0,4,,,,,,,,2,,,,62,75
42720,note_on,360,0,7,,,,,,,,4,,,,53,75
42720,note_on,360,0,13,,,,,,,,14,,,,53,75
42720,note_on,360,0,5,,,,,,,,3,,,,62,75
42720,note_on,360,0,11,,,,,,,,12,,,,62,75
42720,note_on,360,0,10,,,,,,,,11,,,,67,92
42720,note_on,360,0,3,,,,,,,,2,,,,67,92
42720,note_on,360,0,8,,,,,,,,5,,,,50,75
42840,note_off,120,0,9,,,,,,,,5,,,,59,64
42840,note_off,120,0,4,,,,,,,,2,,,,62,64
42840,note_off,120,0,10,,,,,,,,11,,,,67,64
42840,note_off,120,0,2,,,,,,,,1,,,,62,64
42840,note_off,120,0,6,,,,,,,,3,,,,59,64
42840,note_off,120,0,7,,,,,,,,4,,,,53,64
42840,note_off,120,0,1,,,,,,,,0,,,,67,64
42840,note_off,120,0,8,,,,,,,,5,,,,50,64
42840,note_off,120,0,11,,,,,,,,12,,,,62,64
42840,note_off,120,0,13,,,,,,,,14,,,,53,64
42840,note_off,120,0,12,,,,,,,,13,,,,59,64
42840,note_off,120,0,3,,,,,,,,2,,,,67,64
42840,note_off,120,0,5,,,,,,,,3,,,,62,64
43120,note_off,400,0,14,,,,,,,,15,,,,41,64
43200,note_on,360,0,3,,,,,,,,2,,,,72,92
43200,note_on,360,0,1,,,,,,,,0,,,,72,92
43200,note_on,80,0,14,,,,,,,,15,,,,40,75
43200,note_on,360,0,7,,,,,,,,4,,,,52,75
43200,note_on,360,0,11,,,,,,,,12,,,,67,75
43200,note_on,360,0,13,,,,,,,,14,,,,52,75
43200,note_on,360,0,10,,,,,,,,11,,,,72,92
43200,note_on,360,0,2,,,,,,,,1,,,,67,75
43200,note_on,360,0,12,,,,,,,,13,,,,55,75
43200,note_on,360,0,9,,,,,,,,5,,,,55,75
43200,note_on,360,0,8,,,,,,,,5,,,,55,75
43200,note_on,360,0,4,,,,,,,,2,,,,67,75
43200,note_on,360,0,6,,,,,,,,3,,,,55,75
43200,note_on,360,0,5,,,,,,,,3,,,,67,75
43600,note_off,400,0,14,,,,,,,,15,,,,40,64
43680,note_on,0,0,3,,,,,,,,2,,,,64,87
43680,note_on,0,0,7,,,,,,,,4,,,,48,70
43680,note_on,0,0,1,,,,,,,,0,,,,64,87
43680,note_off,480,0,1,,,,,,,,0,,,,72,64
43680,note_off,480,0,13,,,,,,,,14,,,,52,64
43680,note_on,0,0,13,,,,,,,,14,,,,48,68
43680,note_off,480,0,3,,,,,,,,2,,,,72,64
43680,note_off,480,0,7,,,,,,,,4,,,,52,64
43680,note_on,80,0,14,,,,,,,,15,,,,36,68
43680,note_off,480,0,10,,,,,,,,11,,,,72,64
43680,note_on,0,0,10,,,,,,,,11,,,,64,84
44080,note_off,400,0,10,,,,,,,,11,,,,64,64
44080,note_off,400,0,13,,,,,,,,14,,,,48,64
44080,note_off,400,0,14,,,,,,,,15,,,,36,64
44160,note_off,480,0,1,,,,,,,,0,,,,64,64
44160,note_on,80,0,13,,,,,,,,14,,,,55,61
44160,note_on,0,0,7,,,,,,,,4,,,,55,65
44160,note_off,480,0,3,,,,,,,,2,,,,64,64
44160,note_on,80,0,14,,,,,,,,15,,,,43,61
44160,note_on,80,0,10,,,,,,,,11,,,,62,76
44160,note_off,480,0,7,,,,,,,,4,,,,48,64
44160,note_on,0,0,1,,,,,,,,0,,,,62,82
44160,note_on,0,0,3,,,,,,,,2,,,,62,82
44560,note_off,400,0,14,,,,,,,,15,,,,43,64
44640,note_off,1440,0,5,,,,,,,,3,,,,67,64
44640,note_off,1440,0,11,,,,,,,,12,,,,67,64
44640,note_off,1440,0,8,,,,,,,,5,,,,55,64
44640,note_on,0,0,2,,,,,,,,1,,,,65,60
44640,note_off,480,0,13,,,,,,,,14,,,,55,64
44640,note_on,0,0,13,,,,,,,,14,,,,43,53
44640,note_off,480,0,7,,,,,,,,4,,,,55,64
44640,note_on,0,0,12,,,,,,,,13,,,,55,53
44640,note_off,1440,0,12,,,,,,,,13,,,,55,64
44640,note_on,0,0,11,,,,,,,,12,,,,65,53
44640,note_on,0,0,8,,,,,,,,5,,,,53,53
44640,note_on,0,0,3,,,,,,,,2,,,,71,77
44640,note_off,480,0,1,,,,,,,,0,,,,62,64
44640,note_on,0,0,4,,,,,,,,2,,,,65,60
44640,note_on,0,0,5,,,,,,,,3,,,,65,60
44640,note_on,0,0,7,,,,,,,,4,,,,43,60
44640,note_on,0,0,9,,,,,,,,5,,,,55,53
44640,note_off,1440,0,9,,,,,,,,5,,,,55,64
44640,note_off,1440,0,2,,,,,,,,1,,,,67,64
44640,note_on,0,0,1,,,,,,,,0,,,,71,77
44640,note_off,1440,0,4,,,,,,,,2,,,,67,64
44640,note_on,80,0,14,,,,,,,,15,,,,31,53
44640,note_on,0,0,6,,,,,,,,3,,,,55,60
44640,note_off,1440,0,6,,,,,,,,3,,,,55,64
44640,note_off,480,0,3,,,,,,,,2,,,,62,64
44640,note_on,0,0,10,,,,,,,,11,,,,71,68
44640,note_off,480,0,10,,,,,,,,11,,,,62,64
45040,note_off,400,0,14,,,,,,,,15,,,,31,64
45040,note_off,400,0,13,,,,,,,,14,,,,43,64
45040,note_off,400,0,8,,,,,,,,5,,,,53,64
45040,note_off,400,0,12,,,,,,,,13,,,,55,64
45040,note_off,400,0,11,,,,,,,,12,,,,65,64
45040,note_off,400,0,9,,,,,,,,5,,,,55,64
45040,note_off,400,0,10,,,,,,,,11,,,,71,64
45120,note_off,480,0,6,,,,,,,,3,,,,55,64
45120,note_on,80,0,14,,,,,,,,15,,,,36,45
45120,note_on,80,0,8,,,,,,,,5,,,,52,45
45120,note_on,0,0,2,,,,,,,,1,,,,64,55
45120,note_on,0,0,7,,,,,,,,4,,,,48,55
45120,note_off,480,0,2,,,,,,,,1,,,,65,64
45120,note_on,80,0,9,,,,,,,,5,,,,55,45
45120,note_on,0,0,6,,,,,,,,3,,,,55,55
45120,note_off,480,0,7,,,,,,,,4,,,,43,64
45120,note_off,480,0,3,,,,,,,,2,,,,71,64
45120,note_off,480,0,1,,,,,,,,0,,,,71,64
45120,note_on,0,0,1,,,,,,,,0,,,,72,72
45120,note_on,0,0,3,,,,,,,,2,,,,72,72
45120,note_on,0,0,5,,,,,,,,3,,,,64,55
45120,note_off,480,0,5,,,,,,,,3,,,,65,64
45120,note_on,80,0,11,,,,,,,,12,,,,64,45
45120,note_on,80,0,10,,,,,,,,11,,,,72,60
45120,note_on,0,0,4,,,,,,,,2,,,,64,55
45120,note_off,480,0,4,,,,,,,,2,,,,65,64
45120,note_on,80,0,13,,,,,,,,14,,,,48,45
45120,note_on,80,0,12,,,,,,,,13,,,,55,45
45960,note_off,840,0,10,,,,,,,,11,,,,72,64
45960,note_off,840,0,8,,,,,,,,5,,,,52,64
45960,note_off,840,0,6,,,,,,,,3,,,,55,64
45960,note_off,840,0,2,,,,,,,,1,,,,64,64
45960,note_off,840,0,4,,,,,,,,2,,,,64,64
45960,note_off,840,0,3,,,,,,,,2,,,,72,64
45960,note_off,840,0,12,,,,,,,,13,,,,55,64
45960,note_off,840,0,9,,,,,,,,5,,,,55,64
45960,note_off,840,0,5,,,,,,,,3,,,,64,64
45960,note_off,840,0,13,,,,,,,,14,,,,48,64
45960,note_off,840,0,1,,,,,,,,0,,,,72,64
45960,note_off,840,0,14,,,,,,,,15,,,,36,64
45960,note_off,840,0,11,,,,,,,,12,,,,64,64
45960,note_off,840,0,7,,,,,,,,4,,,,48,64
46080,note_on,120,0,4,,,,,,,,2,,,,76,45
46080,note_on,120,0,5,,,,,,,,3,,,,76,45
46080,note_on,120,0,3,,,,,,,,2,,,,79,60
46080,note_on,120,0,1,,,,,,,,0,,,,79,60
46080,note_on,120,0,7,,,,,,,,4,,,,48,45
46080,note_on,120,0,2,,,,,,,,1,,,,76,45
46080,note_on,120,0,6,,,,,,,,3,,,,72,45
46920,note_off,840,0,6,,,,,,,,3,,,,72,64
46920,note_off,840,0,7,,,,,,,,4,,,,48,64
46920,note_off,840,0,1,,,,,,,,0,,,,79,64
46920,note_off,840,0,3,,,,,,,,2,,,,79,64
46920,note_off,840,0,5,,,,,,,,3,,,,76,64
46920,note_off,840,0,2,,,,,,,,1,,,,76,64
46920,note_off,840,0,4,,,,,,,,2,,,,76,64
47040,note_on,120,0,3,,,,,,,,2,,,,76,60
47040,note_on,120,0,5,,,,,,,,3,,,,67,45
47040,note_on,120,0,4,,,,,,,,2,,,,67,45
47040,note_on,120,0,1,,,,,,,,0,,,,76,60
47040,note_on,120,0,2,,,,,,,,1,,,,67,45
47040,note_on,120,0,6,,,,,,,,3,,,,60,45
47040,note_on,120,0,7,,,,,,,,4,,,,60,45
47520,note_on,0,0,1,,,,,,,,0,,,,74,60
47520,note_off,480,0,1,,,,,,,,0,,,,76,64
47520,note_off,480,0,2,,,,,,,,1,,,,67,64
47520,note_on,0,0,2,,,,,,,,1,,,,64,45
47520,note_off,480,0,4,,,,,,,,2,,,,67,64
47520,note_on,0,0,4,,,,,,,,2,,,,64,45
47520,note_on,0,0,3,,,,,,,,2,,,,74,60
47520,note_off,480,0,7,,,,,,,,4,,,,60,64
47520,note_on,0,0,7,,,,,,,,4,,,,58,45
47520,note_off,480,0,3,,,,,,,,2,,,,76,64
47520,note_on,0,0,5,,,,,,,,3,,,,64,45
47520,note_off,480,0,5,,,,,,,,3,,,,67,64
47640,note_off,120,0,2,,,,,,,,1,,,,64,64
47760,note_off,240,0,3,,,,,,,,2,,,,74,64
47760,note_on,0,0,1,,,,,,,,0,,,,72,60
47760,note_off,240,0,1,,,,,,,,0,,,,74,64
47760,note_on,0,0,3,,,,,,,,2,,,,72,60
47880,note_off,840,0,6,,,,,,,,3,,,,60,64
48000,note_on,0,0,5,,,,,,,,3,,,,72,45
48000,note_on,0,0,1,,,,,,,,0,,,,77,60
48000,note_off,240,0,1,,,,,,,,0,,,,72,64
48000,note_off,480,0,4,,,,,,,,2,,,,64,64
48000,note_on,0,0,4,,,,,,,,2,,,,72,45
48000,note_off,480,0,7,,,,,,,,4,,,,58,64
48000,note_on,0,0,7,,,,,,,,4,,,,57,45
48000,note_off,240,0,3,,,,,,,,2,,,,72,64
48000,note_on,0,0,3,,,,,,,,2,,,,77,60
48000,note_off,480,0,5,,,,,,,,3,,,,64,64
48000,note_on,120,0,6,,,,,,,,3,,,,72,45
48000,note_on,360,0,2,,,,,,,,1,,,,72,45
48120,note_off,120,0,3,,,,,,,,2,,,,77,64
48120,note_off,120,0,1,,,,,,,,0,,,,77,64
48120,note_off,120,0,7,,,,,,,,4,,,,57,64
48120,note_off,120,0,6,,,,,,,,3,,,,72,64
48120,note_off,120,0,2,,,,,,,,1,,,,72,64
48120,note_off,120,0,4,,,,,,,,2,,,,72,64
48120,note_off,120,0,5,,,,,,,,3,,,,72,64
48480,note_on,360,0,5,,,,,,,,3,,,,76,45
48480,note_on,360,0,6,,,,,,,,3,,,,70,45
48480,note_on,360,0,2,,,,,,,,1,,,,76,45
48480,note_on,360,0,1,,,,,,,,0,,,,79,60
48480,note_on,360,0,4,,,,,,,,2,,,,76,45
48480,note_on,360,0,3,,,,,,,,2,,,,79,60
48480,note_on,360,0,7,,,,,,,,4,,,,55,45
48600,note_off,120,0,2,,,,,,,,1,,,,76,64
48600,note_off,120,0,3,,,,,,,,2,,,,79,64
48600,note_off,120,0,4,,,,,,,,2,,,,76,64
48600,note_off,120,0,7,,,,,,,,4,,,,55,64
48600,note_off,120,0,1,,,,,,,,0,,,,79,64
48600,note_off,120,0,6,,,,,,,,3,,,,70,64
48600,note_off,120,0,5,,,,,,,,3,,,,76,64
48960,note_on,360,0,6,,,,,,,,3,,,,69,45
48960,note_on,360,0,1,,,,,,,,0,,,,81,60
48960,note_on,360,0,2,,,,,,,,1,,,,77,45
48960,note_on,360,0,7,,,,,,,,4,,,,53,45
48960,note_on,360,0,5,,,,,,,,3,,,,77,45
48960,note_on,360,0,4,,,,,,,,2,,,,77,45
48960,note_on,360,0,3,,,,,,,,2,,,,81,60
49440,note_on,0,0,7,,,,,,,,4,,,,50,45
49440,note_off,480,0,7,,,,,,,,4,,,,53,64
49440,note_off,480,0,3,,,,,,,,2,,,,81,64
49440,note_on,0,0,1,,,,,,,,0,,,,69,60
49440,note_off,480,0,1,,,,,,,,0,,,,81,64
49440,note_on,0,0,3,,,,,,,,2,,,,69,60
49800,note_off,840,0,6,,,,,,,,3,,,,69,64
49920,note_on,0,0,5,,,,,,,,3,,,,65,45
49920,note_on,0,0,2,,,,,,,,1,,,,65,45
49920,note_off,960,0,2,,,,,,,,1,,,,77,64
49920,note_off,960,0,5,,,,,,,,3,,,,77,64
49920,note_on,0,0,4,,,,,,,,2,,,,65,45
49920,note_off,960,0,4,,,,,,,,2,,,,77,64
49920,note_on,120,0,6,,,,,,,,3,,,,62,45
50280,note_off,840,0,1,,,,,,,,0,,,,69,64
50280,note_off,840,0,7,,,,,,,,4,,,,50,64
50280,note_off,840,0,3,,,,,,,,2,,,,69,64
50320,note_off,400,0,4,,,,,,,,2,,,,65,64
50320,note_off,400,0,5,,,,,,,,3,,,,65,64
50320,note_off,400,0,2,,,,,,,,1,,,,65,64
50400,note_on,120,0,7,,,,,,,,4,,,,58,45
50400,note_on,80,0,5,,,,,,,,3,,,,62,45
50400,note_on,120,0,3,,,,,,,,2,,,,74,60
50400,note_on,80,0,2,,,,,,,,1,,,,62,45
50400,note_on,120,0,1,,,,,,,,0,,,,74,60
50400,note_on,80,0,4,,,,,,,,2,,,,62,45
50520,note_off,120,0,7,,,,,,,,4,,,,58,64
50520,note_off,120,0,3,,,,,,,,2,,,,74,64
50520,note_off,120,0,5,,,,,,,,3,,,,62,64
50520,note_off,120,0,4,,,,,,,,2,,,,62,64
50520,note_off,120,0,1,,,,,,,,0,,,,74,64
50520,note_off,120,0,2,,,,,,,,1,,,,62,64
50760,note_off,840,0,6,,,,,,,,3,,,,62,64
50880,note_on,360,0,7,,,,,,,,4,,,,57,45
50880,note_on,360,0,4,,,,,,,,2,,,,64,45
50880,note_on,360,0,2,,,,,,,,1,,,,64,45
50880,note_on,120,0,6,,,,,,,,3,,,,57,45
50880,note_on,360,0,3,,,,,,,,2,,,,73,60
50880,note_on,360,0,1,,,,,,,,0,,,,73,60
50880,note_on,360,0,5,,,,,,,,3,,,,64,45
51000,note_off,120,0,1,,,,,,,,0,,,,73,64
51000,note_off,120,0,3,,,,,,,,2,,,,73,64
51000,note_off,120,0,6,,,,,,,,3,,,,57,64
51000,note_off,120,0,5,,,,,,,,3,,,,64,64
51000,note_off,120,0,2,,,,,,,,1,,,,64,64
51000,note_off,120,0,4,,,,,,,,2,,,,64,64
51000,note_off,120,0,7,,,,,,,,4,,,,57,64
51360,note_on,360,0,6,,,,,,,,3,,,,65,45
51360,note_on,360,0,2,,,,,,,,1,,,,65,45
51360,note_on,360,0,5,,,,,,,,3,,,,65,45
51360,note_on,360,0,3,,,,,,,,2,,,,69,60
51360,note_on,360,0,1,,,,,,,,0,,,,69,60
51360,note_on,360,0,7,,,,,,,,4,,,,62,45
51360,note_on,360,0,4,,,,,,,,2,,,,65,45
51480,note_off,120,0,6,,,,,,,,3,,,,65,64
51480,note_off,120,0,3,,,,,,,,2,,,,69,64
51480,note_off,120,0,1,,,,,,,,0,,,,69,64
51480,note_off,120,0,7,,,,,,,,4,,,,62,64
51480,note_off,120,0,4,,,,,,,,2,,,,65,64
51480,note_off,120,0,5,,,,,,,,3,,,,65,64
51480,note_off,120,0,2,,,,,,,,1,,,,65,64
51840,note_on,360,0,7,,,,,,,,4,,,,55,45
51840,note_on,360,0,5,,,,,,,,3,,,,67,45
51840,note_on,360,0,3,,,,,,,,2,,,,82,60
51840,note_on,360,0,1,,,,,,,,0,,,,82,60
51840,note_on,360,0,2,,,,,,,,1,,,,67,45
51840,note_on,360,0,6,,,,,,,,3,,,,62,45
51840,note_on,360,0,4,,,,,,,,2,,,,67,45
52080,note_on,0,0,1,,,,,,,,0,,,,81,60
52080,note_off,240,0,1,,,,,,,,0,,,,82,64
52080,note_on,0,0,4,,,,,,,,2,,,,65,45
52080,note_off,240,0,4,,,,,,,,2,,,,67,64
52080,note_off,240,0,5,,,,,,,,3,,,,67,64
52080,note_on,0,0,3,,,,,,,,2,,,,81,60
52080,note_off,240,0,3,,,,,,,,2,,,,82,64
52080,note_off,240,0,2,,,,,,,,1,,,,67,64
52080,note_on,0,0,2,,,,,,,,1,,,,65,45
52080,note_on,0,0,5,,,,,,,,3,,,,65,45
52320,note_on,0,0,7,,,,,,,,4,,,,60,45
52320,note_off,240,0,2,,,,,,,,1,,,,65,64
52320,note_off,480,0,7,,,,,,,,4,,,,55,64
52320,note_off,240,0,1,,,,,,,,0,,,,81,64
52320,note_on,0,0,1,,,,,,,,0,,,,79,60
52320,note_on,0,0,3,,,,,,,,2,,,,79,60
52320,note_off,240,0,5,,,,,,,,3,,,,65,64
52320,note_on,0,0,5,,,,,,,,3,,,,64,45
52320,note_off,240,0,3,,,,,,,,2,,,,81,64
52320,note_on,0,0,6,,,,,,,,3,,,,64,45
52320,note_off,240,0,4,,,,,,,,2,,,,65,64
52320,note_on,0,0,2,,,,,,,,1,,,,64,45
52320,note_on,0,0,4,,,,,,,,2,,,,64,45
52320,note_off,480,0,6,,,,,,,,3,,,,62,64
52440,note_off,120,0,4,,,,,,,,2,,,,64,64
52440,note_off,120,0,1,,,,,,,,0,,,,79,64
52440,note_off,120,0,3,,,,,,,,2,,,,79,64
52440,note_off,120,0,5,,,,,,,,3,,,,64,64
52440,note_off,120,0,2,,,,,,,,1,,,,64,64
52440,note_off,120,0,7,,,,,,,,4,,,,60,64
52440,note_off,120,0,6,,,,,,,,3,,,,64,64
52800,note_on,360,0,1,,,,,,,,0,,,,81,60
52800,note_on,360,0,7,,,,,,,,4,,,,53,45
52800,note_on,360,0,3,,,,,,,,2,,,,81,60
52800,note_on,360,0,6,,,,,,,,3,,,,60,45
52800,note_on,360,0,4,,,,,,,,2,,,,65,45
52800,note_on,360,0,5,,,,,,,,3,,,,65,45
52800,note_on,360,0,2,,,,,,,,1,,,,65,45
53040,note_off,240,0,3,,,,,,,,2,,,,81,64
53040,note_off,240,0,1,,,,,,,,0,,,,81,64
53040,note_on,0,0,3,,,,,,,,2,,,,79,60
53040,note_on,0,0,1,,,,,,,,0,,,,79,60
53280,note_on,0,0,2,,,,,,,,1,,,,74,45
53280,note_off,240,0,3,,,,,,,,2,,,,79,64
53280,note_on,0,0,3,,,,,,,,2,,,,77,60
53280,note_off,480,0,7,,,,,,,,4,,,,53,64
53280,note_on,0,0,7,,,,,,,,4,,,,58,45
53280,note_on,0,0,4,,,,,,,,2,,,,74,45
53280,note_off,480,0,4,,,,,,,,2,,,,65,64
53280,note_off,480,0,2,,,,,,,,1,,,,65,64
53280,note_on,0,0,1,,,,,,,,0,,,,77,60
53280,note_off,240,0,1,,,,,,,,0,,,,79,64
53280,note_off,480,0,5,,,,,,,,3,,,,65,64
53280,note_on,0,0,5,,,,,,,,3,,,,74,45
53280,note_off,480,0,6,,,,,,,,3,,,,60,64
53280,note_on,0,0,6,,,,,,,,3,,,,62,45
53400,note_off,120,0,1,,,,,,,,0,,,,77,64
53400,note_off,120,0,5,,,,,,,,3,,,,74,64
53400,note_off,120,0,4,,,,,,,,2,,,,74,64
53400,note_off,120,0,2,,,,,,,,1,,,,74,64
53400,note_off,120,0,3,,,,,,,,2,,,,77,64
53400,note_off,120,0,7,,,,,,,,4,,,,58,64
53400,note_off,120,0,6,,,,,,,,3,,,,62,64
53760,note_on,360,0,2,,,,,,,,1,,,,76,45
53760,note_on,360,0,6,,,,,,,,3,,,,55,45
53760,note_on,360,0,4,,,,,,,,2,,,,76,45
53760,note_on,360,0,5,,,,,,,,3,,,,76,45
53760,note_on,360,0,7,,,,,,,,4,,,,55,45
53760,note_on,360,0,1,,,,,,,,0,,,,79,60
53760,note_on,360,0,3,,,,,,,,2,,,,79,60
54000,note_off,240,0,3,,,,,,,,2,,,,79,64
54000,note_off,240,0,1,,,,,,,,0,,,,79,64
54000,note_on,0,0,1,,,,,,,,0,,,,77,60
54000,note_off,240,0,4,,,,,,,,2,,,,76,64
54000,note_on,0,0,5,,,,,,,,3,,,,74,45
54000,note_off,240,0,2,,,,,,,,1,,,,76,64
54000,note_on,0,0,2,,,,,,,,1,,,,74,45
54000,note_off,240,0,5,,,,,,,,3,,,,76,64
54000,note_on,0,0,4,,,,,,,,2,,,,74,45
54000,note_on,0,0,3,,,,,,,,2,,,,77,60
54240,note_on,0,0,5,,,,,,,,3,,,,73,45
54240,note_off,240,0,5,,,,,,,,3,,,,74,64
54240,note_on,0,0,4,,,,,,,,2,,,,73,45
54240,note_on,0,0,3,,,,,,,,2,,,,76,60
54240,note_off,480,0,6,,,,,,,,3,,,,55,64
54240,note_on,0,0,6,,,,,,,,3,,,,64,45
54240,note_off,240,0,4,,,,,,,,2,,,,74,64
54240,note_on,0,0,2,,,,,,,,1,,,,73,45
54240,note_off,240,0,2,,,,,,,,1,,,,74,64
54240,note_off,480,0,7,,,,,,,,4,,,,55,64
54240,note_on,0,0,7,,,,,,,,4,,,,57,45
54240,note_on,0,0,1,,,,,,,,0,,,,76,60
54240,note_off,240,0,1,,,,,,,,0,,,,77,64
54240,note_off,240,0,3,,,,,,,,2,,,,77,64
54360,note_off,120,0,7,,,,,,,,4,,,,57,64
54360,note_off,120,0,3,,,,,,,,2,,,,76,64
54360,note_off,120,0,6,,,,,,,,3,,,,64,64
54360,note_off,120,0,2,,,,,,,,1,,,,73,64
54360,note_off,120,0,1,,,,,,,,0,,,,76,64
54360,note_off,120,0,5,,,,,,,,3,,,,73,64
54360,note_off,120,0,4,,,,,,,,2,,,,73,64
54720,note_on,360,0,5,,,,,,,,3,,,,74,45
54720,note_on,360,0,3,,,,,,,,2,,,,77,60
54720,note_on,360,0,1,,,,,,,,0,,,,77,60
54720,note_on,360,0,4,,,,,,,,2,,,,74,45
54720,note_on,360,0,2,,,,,,,,1,,,,74,45
54720,note_on,360,0,7,,,,,,,,4,,,,50,45
54720,note_on,360,0,6,,,,,,,,3,,,,62,45
54840,note_off,120,0,2,,,,,,,,1,,,,74,64
54840,note_off,120,0,1,,,,,,,,0,,,,77,64
54840,note_off,120,0,7,,,,,,,,4,,,,50,64
54840,note_off,120,0,4,,,,,,,,2,,,,74,64
54840,note_off,120,0,6,,,,,,,,3,,,,62,64
54840,note_off,120,0,3,,,,,,,,2,,,,77,64
54840,note_off,120,0,5,,,,,,,,3,,,,74,64
55200,note_on,360,0,7,,,,,,,,4,,,,53,45
55200,note_on,360,0,2,,,,,,,,1,,,,69,45
55200,note_on,360,0,6,,,,,,,,3,,,,62,45
55200,note_on,360,0,5,,,,,,,,3,,,,69,45
55200,note_on,360,0,1,,,,,,,,0,,,,74,60
55200,note_on,360,0,3,,,,,,,,2,,,,74,60
55200,note_on,360,0,4,,,,,,,,2,,,,69,45
55320,note_off,120,0,5,,,,,,,,3,,,,69,64
55320,note_off,120,0,2,,,,,,,,1,,,,69,64
55320,note_off,120,0,3,,,,,,,,2,,,,74,64
55320,note_off,120,0,1,,,,,,,,0,,,,74,64
55320,note_off,120,0,6,,,,,,,,3,,,,62,64
55320,note_off,120,0,7,,,,,,,,4,,,,53,64
55320,note_off,120,0,4,,,,,,,,2,,,,69,64
55680,note_on,360,0,1,,,,,,,,0,,,,69,60
55680,note_on,360,0,2,,,,,,,,1,,,,65,45
55680,note_on,360,0,4,,,,,,,,2,,,,65,45
55680,note_on,360,0,3,,,,,,,,2,,,,69,60
55680,note_on,360,0,7,,,,,,,,4,,,,57,45
55680,note_on,360,0,6,,,,,,,,3,,,,62,45
55680,note_on,360,0,5,,,,,,,,3,,,,65,45
55800,note_off,120,0,3,,,,,,,,2,,,,69,64
55800,note_off,120,0,6,,,,,,,,3,,,,62,64
55800,note_off,120,0,2,,,,,,,,1,,,,65,64
55800,note_off,120,0,4,,,,,,,,2,,,,65,64
55800,note_off,120,0,1,,,,,,,,0,,,,69,64
55800,note_off,120,0,5,,,,,,,,3,,,,65,64
55800,note_off,120,0,7,,,,,,,,4,,,,57,64
56160,note_on,360,0,3,,,,,,,,2,,,,67,60
56160,note_on,360,0,6,,,,,,,,3,,,,61,45
56160,note_on,360,0,2,,,,,,,,1,,,,64,45
56160,note_on,360,0,7,,,,,,,,4,,,,45,45
56160,note_on,360,0,1,,,,,,,,0,,,,67,60
56160,note_on,360,0,5,,,,,,,,3,,,,64,45
56160,note_on,360,0,4,,,,,,,,2,,,,64,45
56640,note_off,480,0,7,,,,,,,,4,,,,45,64
56640,note_off,480,0,3,,,,,,,,2,,,,67,64
56640,note_on,0,0,3,,,,,,,,2,,,,65,60
56640,note_on,0,0,7,,,,,,,,4,,,,50,45
56640,note_on,0,0,1,,,,,,,,0,,,,65,60
56640,note_off,480,0,1,,,,,,,,0,,,,67,64
56640,note_off,480,0,4,,,,,,,,2,,,,64,64
56640,note_off,480,0,5,,,,,,,,3,,,,64,64
56640,note_off,480,0,6,,,,,,,,3,,,,61,64
56640,note_on,0,0,6,,,,,,,,3,,,,62,45
56640,note_on,0,0,5,,,,,,,,3,,,,62,45
56640,note_on,0,0,2,,,,,,,,1,,,,62,45
56640,note_off,480,0,2,,,,,,,,1,,,,64,64
56640,note_on,0,0,4,,,,,,,,2,,,,62,45
57120,note_on,0,0,1,,,,,,,,0,,,,62,60
57120,note_on,0,0,3,,,,,,,,2,,,,62,60
57120,note_off,480,0,1,,,,,,,,0,,,,65,64
57120,note_off,480,0,3,,,,,,,,2,,,,65,64
57120,note_off,480,0,6,,,,,,,,3,,,,62,64
57120,note_on,0,0,6,,,,,,,,3,,,,65,45
57480,note_off,840,0,7,,,,,,,,4,,,,50,64
57480,note_off,840,0,2,,,,,,,,1,,,,62,64
57480,note_off,840,0,5,,,,,,,,3,,,,62,64
57480,note_off,840,0,4,,,,,,,,2,,,,62,64
57520,note_off,400,0,3,,,,,,,,2,,,,62,64
57520,note_off,400,0,1,,,,,,,,0,,,,62,64
57520,note_off,400,0,6,,,,,,,,3,,,,65,64
57600,note_on,120,0,4,,,,,,,,2,,,,64,45
57600,note_on,120,0,5,,,,,,,,3,,,,64,45
57600,note_on,120,0,2,,,,,,,,1,,,,64,45
57600,note_on,80,0,6,,,,,,,,3,,,,69,45
57600,note_on,80,0,1,,,,,,,,0,,,,72,60
57600,note_on,120,0,7,,,,,,,,4,,,,57,45
57600,note_on,80,0,3,,,,,,,,2,,,,72,60
58000,note_off,400,0,2,,,,,,,,1,,,,64,64
58080,note_on,0,0,4,,,,,,,,2,,,,69,45
58080,note_on,0,0,5,,,,,,,,3,,,,69,45
58080,note_off,480,0,5,,,,,,,,3,,,,64,64
58080,note_on,80,0,2,,,,,,,,1,,,,69,45
58080,note_off,480,0,4,,,,,,,,2,,,,64,64
58440,note_off,840,0,1,,,,,,,,0,,,,72,64
58440,note_off,840,0,6,,,,,,,,3,,,,69,64
58440,note_off,840,0,7,,,,,,,,4,,,,57,64
58440,note_off,840,0,3,,,,,,,,2,,,,72,64
58560,note_on,120,0,3,,,,,,,,2,,,,66,60
58560,note_on,120,0,1,,,,,,,,0,,,,66,60
58560,note_on,120,0,6,,,,,,,,3,,,,57,45
58560,note_on,120,0,7,,,,,,,,4,,,,50,45
58800,note_on,0,0,1,,,,,,,,0,,,,67,60
58800,note_off,240,0,3,,,,,,,,2,,,,66,64
58800,note_off,240,0,1,,,,,,,,0,,,,66,64
58800,note_on,0,0,3,,,,,,,,2,,,,67,60
58920,note_off,840,0,4,,,,,,,,2,,,,69,64
58920,note_off,840,0,5,,,,,,,,3,,,,69,64
58920,note_off,840,0,2,,,,,,,,1,,,,69,64
59040,note_on,120,0,4,,,,,,,,2,,,,66,45
59040,note_off,240,0,1,,,,,,,,0,,,,67,64
59040,note_on,0,0,1,,,,,,,,0,,,,69,60
59040,note_on,120,0,5,,,,,,,,3,,,,66,45
59040,note_off,240,0,3,,,,,,,,2,,,,67,64
59040,note_on,0,0,3,,,,,,,,2,,,,69,60
59040,note_on,120,0,2,,,,,,,,1,,,,66,45
59400,note_off,840,0,6,,,,,,,,3,,,,57,64
59400,note_off,840,0,7,,,,,,,,4,,,,50,64
59440,note_off,400,0,3,,,,,,,,2,,,,69,64
59440,note_off,400,0,1,,,,,,,,0,,,,69,64
59520,note_on,80,0,3,,,,,,,,2,,,,62,60
59520,note_on,80,0,1,,,,,,,,0,,,,62,60
59520,note_on,120,0,6,,,,,,,,3,,,,57,45
59520,note_on,120,0,7,,,,,,,,4,,,,54,45
59880,note_off,840,0,5,,,,,,,,3,,,,66,64
59880,note_off,840,0,4,,,,,,,,2,,,,66,64
59880,note_off,840,0,2,,,,,,,,1,,,,66,64
60000,note_on,120,0,5,,,,,,,,3,,,,69,45
60000,note_on,120,0,2,,,,,,,,1,,,,69,45
60000,note_off,480,0,3,,,,,,,,2,,,,62,64
60000,note_on,120,0,4,,,,,,,,2,,,,69,45
60000,note_on,0,0,1,,,,,,,,0,,,,74,60
60000,note_off,480,0,1,,,,,,,,0,,,,62,64
60000,note_on,0,0,3,,,,,,,,2,,,,74,60
60120,note_off,120,0,4,,,,,,,,2,,,,69,64
60120,note_off,120,0,5,,,,,,,,3,,,,69,64
60120,note_off,120,0,1,,,,,,,,0,,,,74,64
60120,note_off,120,0,3,,,,,,,,2,,,,74,64
60360,note_off,840,0,6,,,,,,,,3,,,,57,64
60360,note_off,840,0,7,,,,,,,,4,,,,54,64
60400,note_off,400,0,2,,,,,,,,1,,,,69,64
60480,note_on,360,0,4,,,,,,,,2,,,,62,45
60480,note_on,360,0,5,,,,,,,,3,,,,62,45
60480,note_on,120,0,7,,,,,,,,4,,,,55,45
60480,note_on,120,0,6,,,,,,,,3,,,,55,45
60480,note_on,80,0,2,,,,,,,,1,,,,62,45
60480,note_on,360,0,3,,,,,,,,2,,,,70,60
60480,note_on,360,0,1,,,,,,,,0,,,,70,60
60720,note_off,240,0,1,,,,,,,,0,,,,70,64
60720,note_on,0,0,1,,,,,,,,0,,,,72,60
60720,note_on,0,0,3,,,,,,,,2,,,,72,60
60720,note_off,240,0,3,,,,,,,,2,,,,70,64
60960,note_off,240,0,3,,,,,,,,2,,,,72,64
60960,note_on,0,0,3,,,,,,,,2,,,,74,60
60960,note_on,0,0,1,,,,,,,,0,,,,74,60
60960,note_off,240,0,1,,,,,,,,0,,,,72,64
61360,note_off,400,0,3,,,,,,,,2,,,,74,64
61360,note_off,400,0,1,,,,,,,,0,,,,74,64
61440,note_on,80,0,3,,,,,,,,2,,,,67,60
61440,note_on,80,0,1,,,,,,,,0,,,,67,60
61440,note_on,0,0,7,,,,,,,,4,,,,58,45
61440,note_off,960,0,7,,,,,,,,4,,,,55,64
61800,note_off,1320,0,2,,,,,,,,1,,,,62,64
61800,note_off,1320,0,5,,,,,,,,3,,,,62,64
61800,note_off,1320,0,6,,,,,,,,3,,,,55,64
61800,note_off,1320,0,4,,,,,,,,2,,,,62,64
61840,note_off,400,0,1,,,,,,,,0,,,,67,64
61840,note_off,400,0,7,,,,,,,,4,,,,58,64
61920,note_on,80,0,1,,,,,,,,0,,,,79,60
61920,note_on,80,0,7,,,,,,,,4,,,,55,45
61920,note_on,120,0,2,,,,,,,,1,,,,70,45
61920,note_on,0,0,3,,,,,,,,2,,,,79,60
61920,note_on,120,0,4,,,,,,,,2,,,,70,45
61920,note_on,120,0,6,,,,,,,,3,,,,62,45
61920,note_on,120,0,5,,,,,,,,3,,,,70,45
61920,note_off,480,0,3,,,,,,,,2,,,,67,64
62040,note_off,120,0,7,,,,,,,,4,,,,55,64
62040,note_off,120,0,6,,,,,,,,3,,,,62,64
62400,note_off,480,0,3,,,,,,,,2,,,,79,64
62400,note_on,0,0,3,,,,,,,,2,,,,76,60
62400,note_off,480,0,5,,,,,,,,3,,,,70,64
62400,note_on,0,0,5,,,,,,,,3,,,,67,45
62400,note_on,0,0,2,,,,,,,,1,,,,67,45
62400,note_off,480,0,2,,,,,,,,1,,,,70,64
62400,note_on,0,0,1,,,,,,,,0,,,,76,60
62400,note_on,360,0,7,,,,,,,,4,,,,60,45
62400,note_on,0,0,4,,,,,,,,2,,,,67,45
62400,note_on,360,0,6,,,,,,,,3,,,,60,45
62400,note_off,480,0,4,,,,,,,,2,,,,70,64
62400,note_off,480,0,1,,,,,,,,0,,,,79,64
62520,note_off,120,0,3,,,,,,,,2,,,,76,64
62520,note_off,120,0,4,,,,,,,,2,,,,67,64
62520,note_off,120,0,5,,,,,,,,3,,,,67,64
62520,note_off,120,0,2,,,,,,,,1,,,,67,64
62520,note_off,120,0,1,,,,,,,,0,,,,76,64
62880,note_on,360,0,4,,,,,,,,2,,,,64,45
62880,note_on,360,0,5,,,,,,,,3,,,,64,45
62880,note_on,360,0,2,,,,,,,,1,,,,64,45
62880,note_on,360,0,3,,,,,,,,2,,,,72,60
62880,note_on,360,0,1,,,,,,,,0,,,,72,60
63240,note_off,840,0,7,,,,,,,,4,,,,60,64
63240,note_off,840,0,6,,,,,,,,3,,,,60,64
63360,note_on,0,0,1,,,,,,,,0,,,,79,60
63360,note_on,120,0,7,,,,,,,,4,,,,52,45
63360,note_off,480,0,1,,,,,,,,0,,,,72,64
63360,note_on,0,0,3,,,,,,,,2,,,,79,60
63360,note_off,480,0,3,,,,,,,,2,,,,72,64
63360,note_off,480,0,4,,,,,,,,2,,,,64,64
63360,note_on,0,0,4,,,,,,,,2,,,,60,45
63360,note_on,0,0,2,,,,,,,,1,,,,60,45
63360,note_off,480,0,2,,,,,,,,1,,,,64,64
63360,note_on,0,0,5,,,,,,,,3,,,,60,45
63360,note_off,480,0,5,,,,,,,,3,,,,64,64
63360,note_on,120,0,6,,,,,,,,3,,,,60,45
63840,note_off,480,0,7,,,,,,,,4,,,,52,64
63840,note_off,480,0,4,,,,,,,,2,,,,60,64
63840,note_on,0,0,4,,,,,,,,2,,,,64,45
63840,note_on,0,0,7,,,,,,,,4,,,,48,45
63840,note_off,480,0,2,,,,,,,,1,,,,60,64
63840,note_on,0,0,5,,,,,,,,3,,,,64,45
63840,note_on,0,0,2,,,,,,,,1,,,,64,45
63840,note_off,480,0,5,,,,,,,,3,,,,60,64
64200,note_off,840,0,6,,,,,,,,3,,,,60,64
64200,note_off,840,0,1,,,,,,,,0,,,,79,64
64200,note_off,840,0,3,,,,,,,,2,,,,79,64
64320,note_on,120,0,6,,,,,,,,3,,,,58,45
64320,note_on,120,0,1,,,,,,,,0,,,,70,60
64320,note_on,0,0,5,,,,,,,,3,,,,65,45
64320,note_on,120,0,3,,,,,,,,2,,,,70,60
64320,note_off,480,0,4,,,,,,,,2,,,,64,64
64320,note_on,0,0,4,,,,,,,,2,,,,65,45
64320,note_off,480,0,5,,,,,,,,3,,,,64,64
64320,note_off,480,0,2,,,,,,,,1,,,,64,64
64320,note_off,480,0,7,,,,,,,,4,,,,48,64
64320,note_on,0,0,7,,,,,,,,4,,,,50,45
64320,note_on,0,0,2,,,,,,,,1,,,,65,45
64800,note_off,480,0,4,,,,,,,,2,,,,65,64
64800,note_on,0,0,4,,,,,,,,2,,,,67,45
64800,note_on,0,0,7,,,,,,,,4,,,,52,45
64800,note_off,480,0,7,,,,,,,,4,,,,50,64
64800,note_on,0,0,5,,,,,,,,3,,,,67,45
64800,note_off,480,0,5,,,,,,,,3,,,,65,64
64800,note_on,0,0,6,,,,,,,,3,,,,57,45
64800,note_off,480,0,6,,,,,,,,3,,,,58,64
64800,note_off,480,0,2,,,,,,,,1,,,,65,64
64800,note_on,0,0,2,,,,,,,,1,,,,67,45
65040,note_on,0,0,6,,,,,,,,3,,,,55,45
65040,note_off,240,0,6,,,,,,,,3,,,,57,64
65160,note_off,840,0,3,,,,,,,,2,,,,70,64
65160,note_off,840,0,1,,,,,,,,0,,,,70,64
65200,note_off,400,0,7,,,,,,,,4,,,,52,64
65200,note_off,400,0,2,,,,,,,,1,,,,67,64
65200,note_off,400,0,4,,,,,,,,2,,,,67,64
65200,note_off,400,0,5,,,,,,,,3,,,,67,64
65275,note_off,235,0,6,,,,,,,,3,,,,55,64
65280,note_on,5,0,6,,,,,,,,3,,,,53,45
65280,note_on,120,0,1,,,,,,,,0,,,,69,60
65280,note_on,80,0,7,,,,,,,,4,,,,53,45
65280,note_on,80,0,5,,,,,,,,3,,,,60,45
65280,note_on,120,0,3,,,,,,,,2,,,,69,60
65280,note_on,80,0,4,,,,,,,,2,,,,60,45
65280,note_on,80,0,2,,,,,,,,1,,,,60,45
65760,note_off,480,0,7,,,,,,,,4,,,,53,64
65760,note_off,480,0,3,,,,,,,,2,,,,69,64
65760,note_on,0,0,3,,,,,,,,2,,,,67,60
65760,note_off,480,0,2,,,,,,,,1,,,,60,64
65760,note_off,480,0,1,,,,,,,,0,,,,69,64
65760,note_off,480,0,4,,,,,,,,2,,,,60,64
65760,note_on,0,0,4,,,,,,,,2,,,,65,45
65760,note_on,0,0,5,,,,,,,,3,,,,65,45
65760,note_on,0,0,7,,,,,,,,4,,,,45,45
65760,note_on,0,0,2,,,,,,,,1,,,,65,45
65760,note_on,0,0,1,,,,,,,,0,,,,67,60
65760,note_off,480,0,5,,,,,,,,3,,,,60,64
66000,note_off,240,0,1,,,,,,,,0,,,,67,64
66000,note_on,0,0,1,,,,,,,,0,,,,65,60
66000,note_off,240,0,3,,,,,,,,2,,,,67,64
66000,note_on,0,0,3,,,,,,,,2,,,,65,60
66120,note_off,840,0,6,,,,,,,,3,,,,53,64
66235,note_off,235,0,3,,,,,,,,2,,,,65,64
66235,note_off,235,0,1,,,,,,,,0,,,,65,64
66240,note_off,480,0,5,,,,,,,,3,,,,65,64
66240,note_on,5,0,3,,,,,,,,2,,,,67,60
66240,note_off,480,0,7,,,,,,,,4,,,,45,64
66240,note_on,120,0,6,,,,,,,,3,,,,58,45
66240,note_on,0,0,5,,,,,,,,3,,,,62,45
66240,note_off,480,0,2,,,,,,,,1,,,,65,64
66240,note_on,0,0,2,,,,,,,,1,,,,62,45
66240,note_on,5,0,1,,,,,,,,0,,,,67,60
66240,note_on,0,0,7,,,,,,,,4,,,,46,45
66240,note_off,480,0,4,,,,,,,,2,,,,65,64
66240,note_on,0,0,4,,,,,,,,2,,,,62,45
66720,note_off,480,0,2,,,,,,,,1,,,,62,64
66720,note_on,0,0,3,,,,,,,,2,,,,77,68
66720,note_on,0,0,4,,,,,,,,2,,,,70,52
66720,note_on,0,0,2,,,,,,,,1,,,,70,52
66720,note_on,0,0,1,,,,,,,,0,,,,77,68
66720,note_on,0,0,5,,,,,,,,3,,,,70,52
66720,note_off,480,0,5,,,,,,,,3,,,,62,64
66720,note_off,480,0,4,,,,,,,,2,,,,62,64
66720,note_off,480,0,7,,,,,,,,4,,,,46,64
66720,note_off,480,0,3,,,,,,,,2,,,,67,64
66720,note_on,0,0,7,,,,,,,,4,,,,50,52
66720,note_off,480,0,1,,,,,,,,0,,,,67,64
66840,note_off,120,0,4,,,,,,,,2,,,,70,64
66840,note_off,120,0,7,,,,,,,,4,,,,50,64
66840,note_off,120,0,3,,,,,,,,2,,,,77,64
66840,note_off,120,0,2,,,,,,,,1,,,,70,64
66840,note_off,120,0,5,,,,,,,,3,,,,70,64
66840,note_off,120,0,1,,,,,,,,0,,,,77,64
67080,note_off,840,0,6,,,,,,,,3,,,,58,64
67200,note_on,360,0,2,,,,,,,,1,,,,72,60
67200,note_on,360,0,1,,,,,,,,0,,,,72,76
67200,note_on,360,0,5,,,,,,,,3,,,,72,60
67200,note_on,360,0,3,,,,,,,,2,,,,72,76
67200,note_on,120,0,6,,,,,,,,3,,,,57,60
67200,note_on,360,0,4,,,,,,,,2,,,,72,60
67200,note_on,360,0,7,,,,,,,,4,,,,48,60
67320,note_off,120,0,1,,,,,,,,0,,,,72,64
67320,note_off,120,0,5,,,,,,,,3,,,,72,64
67320,note_off,120,0,7,,,,,,,,4,,,,48,64
67320,note_off,120,0,2,,,,,,,,1,,,,72,64
67320,note_off,120,0,3,,,,,,,,2,,,,72,64
67320,note_off,120,0,6,,,,,,,,3,,,,57,64
67320,note_off,120,0,4,,,,,,,,2,,,,72,64
67680,note_on,360,0,2,,,,,,,,1,,,,70,68
67680,note_on,360,0,7,,,,,,,,4,,,,36,68
67680,note_on,360,0,1,,,,,,,,0,,,,76,84
67680,note_on,360,0,6,,,,,,,,3,,,,55,68
67680,note_on,360,0,5,,,,,,,,3,,,,70,68
67680,note_on,360,0,3,,,,,,,,2,,,,76,84
67680,note_on,360,0,4,,,,,,,,2,,,,70,68
67800,note_off,120,0,6,,,,,,,,3,,,,55,64
67800,note_off,120,0,3,,,,,,,,2,,,,76,64
67800,note_off,120,0,1,,,,,,,,0,,,,76,64
67800,note_off,120,0,2,,,,,,,,1,,,,70,64
67800,note_off,120,0,5,,,,,,,,3,,,,70,64
67800,note_off,120,0,4,,,,,,,,2,,,,70,64
67800,note_off,120,0,7,,,,,,,,4,,,,36,64
68160,note_on,360,0,3,,,,,,,,2,,,,77,92
68160,note_on,360,0,5,,,,,,,,3,,,,69,76
68160,note_on,360,0,6,,,,,,,,3,,,,53,76
68160,note_on,360,0,4,,,,,,,,2,,,,69,76
68160,note_on,360,0,7,,,,,,,,4,,,,41,76
68160,note_on,360,0,2,,,,,,,,1,,,,69,76
68160,note_on,360,0,1,,,,,,,,0,,,,77,92
69000,note_off,840,0,5,,,,,,,,3,,,,69,64
69000,note_off,840,0,6,,,,,,,,3,,,,53,64
69000,note_off,840,0,4,,,,,,,,2,,,,69,64
69000,note_off,840,0,1,,,,,,,,0,,,,77,64
69000,note_off,840,0,7,,,,,,,,4,,,,41,64
69000,note_off,840,0,3,,,,,,,,2,,,,77,64
69000,note_off,840,0,2,,,,,,,,1,,,,69,64
69120,note_on,120,0,3,,,,,,,,2,,,,79,108
69120,note_on,120,0,5,,,,,,,,3,,,,76,92
69120,note_on,23160,0,11,,,,,,,,12,,,,76,92
69120,note_on,23160,0,10,,,,,,,,11,,,,79,108
69120,note_on,120,0,4,,,,,,,,2,,,,76,92
69120,note_on,23160,0,14,,,,,,,,15,,,,36,92
69120,note_on,23160,0,9,,,,,,,,5,,,,72,92
69120,note_on,23160,0,13,,,,,,,,14,,,,48,92
69120,note_on,120,0,7,,,,,,,,4,,,,48,92
69120,note_on,120,0,2,,,,,,,,1,,,,76,92
69120,note_on,120,0,6,,,,,,,,3,,,,72,92
69120,note_on,23160,0,8,,,,,,,,5,,,,64,92
69120,note_on,120,0,1,,,,,,,,0,,,,79,108
69120,note_on,23160,0,12,,,,,,,,13,,,,72,92
69960,note_off,840,0,8,,,,,,,,5,,,,64,64
69960,note_off,840,0,9,,,,,,,,5,,,,72,64
69960,note_off,840,0,1,,,,,,,,0,,,,79,64
69960,note_off,840,0,13,,,,,,,,14,,,,48,64
69960,note_off,840,0,7,,,,,,,,4,,,,48,64
69960,note_off,840,0,2,,,,,,,,1,,,,76,64
69960,note_off,840,0,6,,,,,,,,3,,,,72,64
69960,note_off,840,0,5,,,,,,,,3,,,,76,64
69960,note_off,840,0,14,,,,,,,,15,,,,36,64
69960,note_off,840,0,3,,,,,,,,2,,,,79,64
69960,note_off,840,0,4,,,,,,,,2,,,,76,64
69960,note_off,840,0,12,,,,,,,,13,,,,72,64
69960,note_off,840,0,10,,,,,,,,11,,,,79,64
69960,note_off,840,0,11,,,,,,,,12,,,,76,64
70080,note_on,120,0,13,,,,,,,,14,,,,60,92
70080,note_on,120,0,3,,,,,,,,2,,,,76,108
70080,note_on,120,0,4,,,,,,,,2,,,,67,92
70080,note_on,120,0,12,,,,,,,,13,,,,60,92
70080,note_on,120,0,8,,,,,,,,5,,,,67,92
70080,note_on,120,0,7,,,,,,,,4,,,,60,92
70080,note_on,120,0,6,,,,,,,,3,,,,60,92
70080,note_on,120,0,1,,,,,,,,0,,,,76,108
70080,note_on,120,0,2,,,,,,,,1,,,,67,92
70080,note_on,120,0,9,,,,,,,,5,,,,60,92
70080,note_on,120,0,14,,,,,,,,15,,,,48,92
70080,note_on,120,0,5,,,,,,,,3,,,,67,92
70080,note_on,120,0,11,,,,,,,,12,,,,67,92
70080,note_on,120,0,10,,,,,,,,11,,,,76,108
70480,note_off,400,0,14,,,,,,,,15,,,,48,64
70560,note_on,0,0,3,,,,,,,,2,,,,74,108
70560,note_off,480,0,3,,,,,,,,2,,,,76,64
70560,note_on,0,0,5,,,,,,,,3,,,,64,92
70560,note_off,480,0,5,,,,,,,,3,,,,67,64
70560,note_on,80,0,14,,,,,,,,15,,,,46,92
70560,note_off,480,0,10,,,,,,,,11,,,,76,64
70560,note_off,480,0,1,,,,,,,,0,,,,76,64
70560,note_on,0,0,7,,,,,,,,4,,,,58,92
70560,note_off,480,0,7,,,,,,,,4,,,,60,64
70560,note_on,0,0,10,,,,,,,,11,,,,74,108
70560,note_off,480,0,8,,,,,,,,5,,,,67,64
70560,note_on,0,0,8,,,,,,,,5,,,,64,92
70560,note_on,0,0,1,,,,,,,,0,,,,74,108
70560,note_on,0,0,13,,,,,,,,14,,,,58,92
70560,note_off,480,0,13,,,,,,,,14,,,,60,64
70560,note_off,480,0,4,,,,,,,,2,,,,67,64
70560,note_on,0,0,4,,,,,,,,2,,,,64,92
70560,note_on,0,0,2,,,,,,,,1,,,,64,92
70560,note_off,480,0,2,,,,,,,,1,,,,67,64
70560,note_on,0,0,11,,,,,,,,12,,,,64,92
70560,note_off,480,0,11,,,,,,,,12,,,,67,64
70800,note_off,240,0,10,,,,,,,,11,,,,74,64
70800,note_on,0,0,3,,,,,,,,2,,,,72,108
70800,note_off,240,0,3,,,,,,,,2,,,,74,64
70800,note_on,0,0,1,,,,,,,,0,,,,72,108
70800,note_on,0,0,10,,,,,,,,11,,,,72,108
70800,note_off,240,0,1,,,,,,,,0,,,,74,64
70920,note_off,840,0,12,,,,,,,,13,,,,60,64
70920,note_off,840,0,6,,,,,,,,3,,,,60,64
70920,note_off,840,0,9,,,,,,,,5,,,,60,64
70960,note_off,400,0,13,,,,,,,,14,,,,58,64
70960,note_off,400,0,11,,,,,,,,12,,,,64,64
70960,note_off,400,0,14,,,,,,,,15,,,,46,64
71035,note_off,235,0,10,,,,,,,,11,,,,72,64
71040,note_on,80,0,11,,,,,,,,12,,,,72,92
71040,note_off,480,0,8,,,,,,,,5,,,,64,64
71040,note_on,0,0,4,,,,,,,,2,,,,72,92
71040,note_on,5,0,10,,,,,,,,11,,,,77,108
71040,note_on,80,0,13,,,,,,,,14,,,,57,92
71040,note_on,120,0,6,,,,,,,,3,,,,72,92
71040,note_on,0,0,2,,,,,,,,1,,,,72,92
71040,note_on,0,0,8,,,,,,,,5,,,,60,92
71040,note_on,120,0,9,,,,,,,,5,,,,72,92
71040,note_off,480,0,7,,,,,,,,4,,,,58,64
71040,note_on,0,0,7,,,,,,,,4,,,,57,92
71040,note_on,0,0,3,,,,,,,,2,,,,77,108
71040,note_off,240,0,3,,,,,,,,2,,,,72,64
71040,note_on,0,0,1,,,,,,,,0,,,,77,108
71040,note_on,120,0,12,,,,,,,,13,,,,72,92
71040,note_on,80,0,14,,,,,,,,15,,,,45,92
71040,note_off,480,0,5,,,,,,,,3,,,,64,64
71040,note_off,240,0,1,,,,,,,,0,,,,72,64
71040,note_on,0,0,5,,,,,,,,3,,,,72,92
71040,note_off,480,0,4,,,,,,,,2,,,,64,64
71040,note_off,480,0,2,,,,,,,,1,,,,64,64
71160,note_off,120,0,3,,,,,,,,2,,,,77,64
71160,note_off,120,0,4,,,,,,,,2,,,,72,64
71160,note_off,120,0,6,,,,,,,,3,,,,72,64
71160,note_off,120,0,5,,,,,,,,3,,,,72,64
71160,note_off,120,0,10,,,,,,,,11,,,,77,64
71160,note_off,120,0,12,,,,,,,,13,,,,72,64
71160,note_off,120,0,13,,,,,,,,14,,,,57,64
71160,note_off,120,0,8,,,,,,,,5,,,,60,64
71160,note_off,120,0,1,,,,,,,,0,,,,77,64
71160,note_off,120,0,7,,,,,,,,4,,,,57,64
71160,note_off,120,0,11,,,,,,,,12,,,,72,64
71160,note_off,120,0,9,,,,,,,,5,,,,72,64
71160,note_off,120,0,2,,,,,,,,1,,,,72,64
71440,note_off,400,0,14,,,,,,,,15,,,,45,64
71520,note_on,360,0,5,,,,,,,,3,,,,76,92
71520,note_on,360,0,10,,,,,,,,11,,,,79,108
71520,note_on,360,0,6,,,,,,,,3,,,,70,92
71520,note_on,360,0,8,,,,,,,,5,,,,64,92
71520,note_on,360,0,9,,,,,,,,5,,,,70,92
71520,note_on,360,0,3,,,,,,,,2,,,,79,108
71520,note_on,360,0,2,,,,,,,,1,,,,76,92
71520,note_on,360,0,13,,,,,,,,14,,,,55,92
71520,note_on,80,0,14,,,,,,,,15,,,,43,92
71520,note_on,360,0,1,,,,,,,,0,,,,79,108
71520,note_on,360,0,11,,,,,,,,12,,,,76,92
71520,note_on,360,0,4,,,,,,,,2,,,,76,92
71520,note_on,360,0,7,,,,,,,,4,,,,55,92
71520,note_on,360,0,12,,,,,,,,13,,,,70,92
71640,note_off,120,0,13,,,,,,,,14,,,,55,64
71640,note_off,120,0,3,,,,,,,,2,,,,79,64
71640,note_off,120,0,12,,,,,,,,13,,,,70,64
71640,note_off,120,0,11,,,,,,,,12,,,,76,64
71640,note_off,120,0,6,,,,,,,,3,,,,70,64
71640,note_off,120,0,5,,,,,,,,3,,,,76,64
71640,note_off,120,0,2,,,,,,,,1,,,,76,64
71640,note_off,120,0,9,,,,,,,,5,,,,70,64
71640,note_off,120,0,4,,,,,,,,2,,,,76,64
71640,note_off,120,0,1,,,,,,,,0,,,,79,64
71640,note_off,120,0,10,,,,,,,,11,,,,79,64
71640,note_off,120,0,8,,,,,,,,5,,,,64,64
71640,note_off,120,0,7,,,,,,,,4,,,,55,64
71920,note_off,400,0,14,,,,,,,,15,,,,43,64
72000,note_on,360,0,10,,,,,,,,11,,,,81,108
72000,note_on,360,0,11,,,,,,,,12,,,,77,92
72000,note_on,360,0,6,,,,,,,,3,,,,69,92
72000,note_on,360,0,1,,,,,,,,0,,,,81,108
72000,note_on,360,0,8,,,,,,,,5,,,,65,92
72000,note_on,360,0,5,,,,,,,,3,,,,77,92
72000,note_on,360,0,2,,,,,,,,1,,,,77,92
72000,note_on,360,0,9,,,,,,,,5,,,,69,92
72000,note_on,360,0,4,,,,,,,,2,,,,77,92
72000,note_on,360,0,12,,,,,,,,13,,,,69,92
72000,note_on,360,0,3,,,,,,,,2,,,,81,108
72000,note_on,360,0,13,,,,,,,,14,,,,53,92
72000,note_on,360,0,7,,,,,,,,4,,,,53,92
72000,note_on,80,0,14,,,,,,,,15,,,,41,92
72120,note_off,120,0,3,,,,,,,,2,,,,81,64
72120,note_off,120,0,1,,,,,,,,0,,,,81,64
72120,note_off,120,0,7,,,,,,,,4,,,,53,64
72400,note_off,400,0,14,,,,,,,,15,,,,41,64
72480,note_on,360,0,1,,,,,,,,0,,,,69,108
72480,note_on,0,0,13,,,,,,,,14,,,,50,92
72480,note_off,480,0,13,,,,,,,,14,,,,53,64
72480,note_on,80,0,14,,,,,,,,15,,,,38,92
72480,note_on,360,0,3,,,,,,,,2,,,,69,108
72480,note_on,0,0,10,,,,,,,,11,,,,69,108
72480,note_on,360,0,7,,,,,,,,4,,,,50,92
72480,note_off,480,0,10,,,,,,,,11,,,,81,64
72840,note_off,840,0,2,,,,,,,,1,,,,77,64
72840,note_off,840,0,9,,,,,,,,5,,,,69,64
72840,note_off,840,0,11,,,,,,,,12,,,,77,64
72840,note_off,840,0,12,,,,,,,,13,,,,69,64
72840,note_off,840,0,6,,,,,,,,3,,,,69,64
72960,note_on,120,0,9,,,,,,,,5,,,,62,92
72960,note_on,0,0,4,,,,,,,,2,,,,65,92
72960,note_on,120,0,11,,,,,,,,12,,,,65,92
72960,note_on,120,0,6,,,,,,,,3,,,,62,92
72960,note_on,0,0,8,,,,,,,,5,,,,65,92
72960,note_off,960,0,8,,,,,,,,5,,,,65,64
72960,note_on,0,0,5,,,,,,,,3,,,,65,92
72960,note_off,960,0,5,,,,,,,,3,,,,77,64
72960,note_on,120,0,2,,,,,,,,1,,,,65,92
72960,note_off,960,0,4,,,,,,,,2,,,,77,64
72960,note_on,120,0,12,,,,,,,,13,,,,62,92
73320,note_off,840,0,1,,,,,,,,0,,,,69,64
73320,note_off,840,0,3,,,,,,,,2,,,,69,64
73320,note_off,840,0,13,,,,,,,,14,,,,50,64
73320,note_off,840,0,14,,,,,,,,15,,,,38,64
73320,note_off,840,0,7,,,,,,,,4,,,,50,64
73320,note_off,840,0,10,,,,,,,,11,,,,69,64
73360,note_off,400,0,2,,,,,,,,1,,,,65,64
73360,note_off,400,0,5,,,,,,,,3,,,,65,64
73360,note_off,400,0,4,,,,,,,,2,,,,65,64
73360,note_off,400,0,8,,,,,,,,5,,,,65,64
73440,note_on,120,0,7,,,,,,,,4,,,,58,92
73440,note_on,120,0,10,,,,,,,,11,,,,74,108
73440,note_on,120,0,13,,,,,,,,14,,,,58,92
73440,note_on,80,0,8,,,,,,,,5,,,,62,92
73440,note_on,80,0,2,,,,,,,,1,,,,62,92
73440,note_on,120,0,1,,,,,,,,0,,,,74,108
73440,note_on,120,0,14,,,,,,,,15,,,,46,92
73440,note_on,0,0,11,,,,,,,,12,,,,62,92
73440,note_off,480,0,11,,,,,,,,12,,,,65,64
73440,note_on,120,0,3,,,,,,,,2,,,,74,108
73440,note_on,80,0,5,,,,,,,,3,,,,62,92
73440,note_on,80,0,4,,,,,,,,2,,,,62,92
73560,note_off,120,0,7,,,,,,,,4,,,,58,64
73560,note_off,120,0,3,,,,,,,,2,,,,74,64
73560,note_off,120,0,5,,,,,,,,3,,,,62,64
73560,note_off,120,0,4,,,,,,,,2,,,,62,64
73560,note_off,120,0,8,,,,,,,,5,,,,62,64
73560,note_off,120,0,1,,,,,,,,0,,,,74,64
73800,note_off,840,0,9,,,,,,,,5,,,,62,64
73800,note_off,840,0,6,,,,,,,,3,,,,62,64
73800,note_off,840,0,12,,,,,,,,13,,,,62,64
73840,note_off,400,0,14,,,,,,,,15,,,,46,64
73840,note_off,400,0,2,,,,,,,,1,,,,62,64
73840,note_off,400,0,11,,,,,,,,12,,,,62,64
73920,note_on,360,0,3,,,,,,,,2,,,,73,108
73920,note_on,80,0,14,,,,,,,,15,,,,45,92
73920,note_on,80,0,11,,,,,,,,12,,,,64,92
73920,note_off,480,0,10,,,,,,,,11,,,,74,64
73920,note_on,0,0,10,,,,,,,,11,,,,73,108
73920,note_on,120,0,9,,,,,,,,5,,,,57,92
73920,note_on,360,0,4,,,,,,,,2,,,,64,92
73920,note_on,80,0,2,,,,,,,,1,,,,64,92
73920,note_on,360,0,5,,,,,,,,3,,,,64,92
73920,note_on,120,0,12,,,,,,,,13,,,,57,92
73920,note_on,360,0,1,,,,,,,,0,,,,73,108
73920,note_on,360,0,8,,,,,,,,5,,,,64,92
73920,note_on,120,0,6,,,,,,,,3,,,,57,92
73920,note_off,480,0,13,,,,,,,,14,,,,58,64
73920,note_on,0,0,13,,,,,,,,14,,,,57,92
73920,note_on,360,0,7,,,,,,,,4,,,,57,92
74040,note_off,120,0,10,,,,,,,,11,,,,73,64
74040,note_off,120,0,13,,,,,,,,14,,,,57,64
74040,note_off,120,0,7,,,,,,,,4,,,,57,64
74040,note_off,120,0,12,,,,,,,,13,,,,57,64
74040,note_off,120,0,5,,,,,,,,3,,,,64,64
74040,note_off,120,0,4,,,,,,,,2,,,,64,64
74040,note_off,120,0,1,,,,,,,,0,,,,73,64
74040,note_off,120,0,11,,,,,,,,12,,,,64,64
74040,note_off,120,0,8,,,,,,,,5,,,,64,64
74040,note_off,120,0,6,,,,,,,,3,,,,57,64
74040,note_off,120,0,3,,,,,,,,2,,,,73,64
74320,note_off,400,0,2,,,,,,,,1,,,,64,64
74320,note_off,400,0,9,,,,,,,,5,,,,57,64
74320,note_off,400,0,14,,,,,,,,15,,,,45,64
74400,note_on,360,0,10,,,,,,,,11,,,,69,108
74400,note_on,360,0,5,,,,,,,,3,,,,65,92
74400,note_on,360,0,3,,,,,,,,2,,,,69,108
74400,note_on,80,0,2,,,,,,,,1,,,,65,92
74400,note_on,80,0,14,,,,,,,,15,,,,50,92
74400,note_on,360,0,4,,,,,,,,2,,,,65,92
74400,note_on,360,0,7,,,,,,,,4,,,,62,92
74400,note_on,80,0,9,,,,,,,,5,,,,65,92
74400,note_on,360,0,1,,,,,,,,0,,,,69,108
74400,note_on,360,0,12,,,,,,,,13,,,,65,92
74400,note_on,360,0,13,,,,,,,,14,,,,62,92
74400,note_on,360,0,8,,,,,,,,5,,,,65,92
74400,note_on,360,0,6,,,,,,,,3,,,,65,92
74400,note_on,360,0,11,,,,,,,,12,,,,65,92
74520,note_off,120,0,13,,,,,,,,14,,,,62,64
74520,note_off,120,0,4,,,,,,,,2,,,,65,64
74520,note_off,120,0,8,,,,,,,,5,,,,65,64
74520,note_off,120,0,1,,,,,,,,0,,,,69,64
74520,note_off,120,0,7,,,,,,,,4,,,,62,64
74520,note_off,120,0,12,,,,,,,,13,,,,65,64
74520,note_off,120,0,5,,,,,,,,3,,,,65,64
74520,note_off,120,0,3,,,,,,,,2,,,,69,64
74520,note_off,120,0,11,,,,,,,,12,,,,65,64
74520,note_off,120,0,10,,,,,,,,11,,,,69,64
74520,note_off,120,0,6,,,,,,,,3,,,,65,64
74800,note_off,400,0,14,,,,,,,,15,,,,50,64
74800,note_off,400,0,9,,,,,,,,5,,,,65,64
74800,note_off,400,0,2,,,,,,,,1,,,,65,64
74880,note_on,80,0,2,,,,,,,,1,,,,67,92
74880,note_on,360,0,3,,,,,,,,2,,,,82,108
74880,note_on,80,0,9,,,,,,,,5,,,,62,92
74880,note_on,360,0,5,,,,,,,,3,,,,67,92
74880,note_on,80,0,14,,,,,,,,15,,,,43,92
74880,note_on,360,0,12,,,,,,,,13,,,,62,92
74880,note_on,360,0,7,,,,,,,,4,,,,55,92
74880,note_on,360,0,11,,,,,,,,12,,,,67,92
74880,note_on,360,0,6,,,,,,,,3,,,,62,92
74880,note_on,360,0,10,,,,,,,,11,,,,82,108
74880,note_on,360,0,1,,,,,,,,0,,,,82,108
74880,note_on,360,0,13,,,,,,,,14,,,,55,92
74880,note_on,360,0,4,,,,,,,,2,,,,67,92
74880,note_on,360,0,8,,,,,,,,5,,,,67,92
75120,note_off,240,0,8,,,,,,,,5,,,,67,64
75120,note_on,0,0,8,,,,,,,,5,,,,65,92
75120,note_off,240,0,3,,,,,,,,2,,,,82,64
75120,note_off,240,0,10,,,,,,,,11,,,,82,64
75120,note_on,0,0,3,,,,,,,,2,,,,81,108
75120,note_on,0,0,2,,,,,,,,1,,,,65,92
75120,note_on,0,0,4,,,,,,,,2,,,,65,92
75120,note_off,240,0,2,,,,,,,,1,,,,67,64
75120,note_off,240,0,1,,,,,,,,0,,,,82,64
75120,note_on,0,0,10,,,,,,,,11,,,,81,108
75120,note_on,0,0,11,,,,,,,,12,,,,65,92
75120,note_off,240,0,5,,,,,,,,3,,,,67,64
75120,note_off,240,0,11,,,,,,,,12,,,,67,64
75120,note_on,0,0,5,,,,,,,,3,,,,65,92
75120,note_off,240,0,4,,,,,,,,2,,,,67,64
75120,note_on,0,0,1,,,,,,,,0,,,,81,108
75280,note_off,400,0,14,,,,,,,,15,,,,43,64
75360,note_on,0,0,11,,,,,,,,12,,,,64,92
75360,note_off,480,0,9,,,,,,,,5,,,,62,64
75360,note_off,480,0,7,,,,,,,,4,,,,55,64
75360,note_on,0,0,7,,,,,,,,4,,,,60,92
75360,note_on,0,0,13,,,,,,,,14,,,,60,92
75360,note_off,240,0,2,,,,,,,,1,,,,65,64
75360,note_on,0,0,2,,,,,,,,1,,,,64,92
75360,note_off,240,0,8,,,,,,,,5,,,,65,64
75360,note_on,0,0,8,,,,,,,,5,,,,64,92
75360,note_on,80,0,14,,,,,,,,15,,,,48,92
75360,note_off,480,0,13,,,,,,,,14,,,,55,64
75360,note_off,240,0,1,,,,,,,,0,,,,81,64
75360,note_off,240,0,11,,,,,,,,12,,,,65,64
75360,note_off,240,0,5,,,,,,,,3,,,,65,64
75360,note_on,0,0,12,,,,,,,,13,,,,64,92
75360,note_on,0,0,9,,,,,,,,5,,,,64,92
75360,note_on,0,0,10,,,,,,,,11,,,,79,108
75360,note_off,240,0,10,,,,,,,,11,,,,81,64
75360,note_off,480,0,12,,,,,,,,13,,,,62,64
75360,note_on,0,0,6,,,,,,,,3,,,,64,92
75360,note_off,480,0,6,,,,,,,,3,,,,62,64
75360,note_on,0,0,1,,,,,,,,0,,,,79,108
75360,note_on,0,0,4,,,,,,,,2,,,,64,92
75360,note_off,240,0,4,,,,,,,,2,,,,65,64
75360,note_on,0,0,5,,,,,,,,3,,,,64,92
75360,note_on,0,0,3,,,,,,,,2,,,,79,108
75360,note_off,240,0,3,,,,,,,,2,,,,81,64
75480,note_off,120,0,6,,,,,,,,3,,,,64,64
75480,note_off,120,0,4,,,,,,,,2,,,,64,64
75480,note_off,120,0,1,,,,,,,,0,,,,79,64
75480,note_off,120,0,5,,,,,,,,3,,,,64,64
75480,note_off,120,0,12,,,,,,,,13,,,,64,64
75480,note_off,120,0,7,,,,,,,,4,,,,60,64
75480,note_off,120,0,3,,,,,,,,2,,,,79,64
75480,note_off,120,0,2,,,,,,,,1,,,,64,64
75480,note_off,120,0,8,,,,,,,,5,,,,64,64
75480,note_off,120,0,9,,,,,,,,5,,,,64,64
75480,note_off,120,0,10,,,,,,,,11,,,,79,64
75480,note_off,120,0,11,,,,,,,,12,,,,64,64
75480,note_off,120,0,13,,,,,,,,14,,,,60,64
75760,note_off,400,0,14,,,,,,,,15,,,,48,64
75840,note_on,360,0,11,,,,,,,,12,,,,65,92
75840,note_on,360,0,7,,,,,,,,4,,,,53,92
75840,note_on,80,0,14,,,,,,,,15,,,,41,92
75840,note_on,360,0,8,,,,,,,,5,,,,65,92
75840,note_on,360,0,9,,,,,,,,5,,,,60,92
75840,note_on,360,0,2,,,,,,,,1,,,,65,92
75840,note_on,360,0,4,,,,,,,,2,,,,65,92
75840,note_on,360,0,12,,,,,,,,13,,,,60,92
75840,note_on,360,0,1,,,,,,,,0,,,,81,108
75840,note_on,360,0,6,,,,,,,,3,,,,60,92
75840,note_on,360,0,3,,,,,,,,2,,,,81,108
75840,note_on,360,0,13,,,,,,,,14,,,,53,92
75840,note_on,360,0,10,,,,,,,,11,,,,81,108
75840,note_on,360,0,5,,,,,,,,3,,,,65,92
76080,note_off,240,0,1,,,,,,,,0,,,,81,64
76080,note_on,0,0,10,,,,,,,,11,,,,79,108
76080,note_on,0,0,1,,,,,,,,0,,,,79,108
76080,note_off,240,0,10,,,,,,,,11,,,,81,64
76080,note_on,0,0,3,,,,,,,,2,,,,79,108
76080,note_off,240,0,3,,,,,,,,2,,,,81,64
76240,note_off,400,0,14,,,,,,,,15,,,,41,64
76320,note_on,0,0,2,,,,,,,,1,,,,74,92
76320,note_on,0,0,7,,,,,,,,4,,,,58,92
76320,note_off,480,0,7,,,,,,,,4,,,,53,64
76320,note_off,480,0,6,,,,,,,,3,,,,60,64
76320,note_on,0,0,6,,,,,,,,3,,,,62,92
76320,note_on,0,0,1,,,,,,,,0,,,,77,108
76320,note_off,240,0,1,,,,,,,,0,,,,79,64
76320,note_off,480,0,12,,,,,,,,13,,,,60,64
76320,note_on,0,0,11,,,,,,,,12,,,,74,92
76320,note_off,240,0,3,,,,,,,,2,,,,79,64
76320,note_on,0,0,3,,,,,,,,2,,,,77,108
76320,note_off,480,0,2,,,,,,,,1,,,,65,64
76320,note_off,480,0,5,,,,,,,,3,,,,65,64
76320,note_on,0,0,4,,,,,,,,2,,,,74,92
76320,note_off,480,0,4,,,,,,,,2,,,,65,64
76320,note_on,0,0,13,,,,,,,,14,,,,58,92
76320,note_off,480,0,9,,,,,,,,5,,,,60,64
76320,note_on,0,0,9,,,,,,,,5,,,,62,92
76320,note_off,480,0,8,,,,,,,,5,,,,65,64
76320,note_on,0,0,8,,,,,,,,5,,,,62,92
76320,note_off,480,0,13,,,,,,,,14,,,,53,64
76320,note_on,0,0,12,,,,,,,,13,,,,62,92
76320,note_off,240,0,10,,,,,,,,11,,,,79,64
76320,note_on,0,0,10,,,,,,,,11,,,,77,108
76320,note_off,480,0,11,,,,,,,,12,,,,65,64
76320,note_on,80,0,14,,,,,,,,15,,,,46,92
76320,note_on,0,0,5,,,,,,,,3,,,,74,92
76440,note_off,120,0,1,,,,,,,,0,,,,77,64
76440,note_off,120,0,10,,,,,,,,11,,,,77,64
76440,note_off,120,0,13,,,,,,,,14,,,,58,64
76440,note_off,120,0,4,,,,,,,,2,,,,74,64
76440,note_off,120,0,9,,,,,,,,5,,,,62,64
76440,note_off,120,0,3,,,,,,,,2,,,,77,64
76440,note_off,120,0,12,,,,,,,,13,,,,62,64
76440,note_off,120,0,2,,,,,,,,1,,,,74,64
76440,note_off,120,0,7,,,,,,,,4,,,,58,64
76440,note_off,120,0,5,,,,,,,,3,,,,74,64
76440,note_off,120,0,8,,,,,,,,5,,,,62,64
76440,note_off,120,0,6,,,,,,,,3,,,,62,64
76440,note_off,120,0,11,,,,,,,,12,,,,74,64
76720,note_off,400,0,14,,,,,,,,15,,,,46,64
76800,note_on,360,0,8,,,,,,,,5,,,,64,92
76800,note_on,360,0,13,,,,,,,,14,,,,55,92
76800,note_on,360,0,7,,,,,,,,4,,,,55,92
76800,note_on,360,0,10,,,,,,,,11,,,,79,108
76800,note_on,360,0,1,,,,,,,,0,,,,79,108
76800,note_on,360,0,6,,,,,,,,3,,,,55,92
76800,note_on,360,0,9,,,,,,,,5,,,,55,92
76800,note_on,360,0,2,,,,,,,,1,,,,76,92
76800,note_on,360,0,3,,,,,,,,2,,,,79,108
76800,note_on,360,0,5,,,,,,,,3,,,,76,92
76800,note_on,360,0,12,,,,,,,,13,,,,55,92
76800,note_on,360,0,4,,,,,,,,2,,,,76,92
76800,note_on,80,0,14,,,,,,,,15,,,,43,92
76800,note_on,360,0,11,,,,,,,,12,,,,76,92
77040,note_on,0,0,8,,,,,,,,5,,,,62,92
77040,note_off,240,0,5,,,,,,,,3,,,,76,64
77040,note_off,240,0,10,,,,,,,,11,,,,79,64
77040,note_off,240,0,11,,,,,,,,12,,,,76,64
77040,note_off,240,0,4,,,,,,,,2,,,,76,64
77040,note_on,0,0,1,,,,,,,,0,,,,77,108
77040,note_on,0,0,10,,,,,,,,11,,,,77,108
77040,note_on,0,0,4,,,,,,,,2,,,,74,92
77040,note_on,0,0,5,,,,,,,,3,,,,74,92
77040,note_off,240,0,3,,,,,,,,2,,,,79,64
77040,note_on,0,0,11,,,,,,,,12,,,,74,92
77040,note_off,240,0,8,,,,,,,,5,,,,64,64
77040,note_on,0,0,2,,,,,,,,1,,,,74,92
77040,note_off,240,0,2,,,,,,,,1,,,,76,64
77040,note_on,0,0,3,,,,,,,,2,,,,77,108
77040,note_off,240,0,1,,,,,,,,0,,,,79,64
77200,note_off,400,0,14,,,,,,,,15,,,,43,64
77280,note_off,240,0,2,,,,,,,,1,,,,74,64
77280,note_on,0,0,9,,,,,,,,5,,,,64,92
77280,note_off,480,0,9,,,,,,,,5,,,,55,64
77280,note_off,240,0,4,,,,,,,,2,,,,74,64
77280,note_on,0,0,13,,,,,,,,14,,,,57,92
77280,note_off,480,0,13,,,,,,,,14,,,,55,64
77280,note_on,0,0,4,,,,,,,,2,,,,73,92
77280,note_on,0,0,1,,,,,,,,0,,,,76,108
77280,note_on,0,0,12,,,,,,,,13,,,,64,92
77280,note_on,80,0,14,,,,,,,,15,,,,45,92
77280,note_on,0,0,3,,,,,,,,2,,,,76,108
77280,note_off,240,0,3,,,,,,,,2,,,,77,64
77280,note_on,0,0,10,,,,,,,,11,,,,76,108
77280,note_off,240,0,5,,,,,,,,3,,,,74,64
77280,note_on,0,0,5,,,,,,,,3,,,,73,92
77280,note_on,0,0,11,,,,,,,,12,,,,73,92
77280,note_off,480,0,12,,,,,,,,13,,,,55,64
77280,note_on,0,0,6,,,,,,,,3,,,,64,92
77280,note_on,0,0,8,,,,,,,,5,,,,61,92
77280,note_off,480,0,6,,,,,,,,3,,,,55,64
77280,note_off,240,0,1,,,,,,,,0,,,,77,64
77280,note_off,480,0,7,,,,,,,,4,,,,55,64
77280,note_on,0,0,7,,,,,,,,4,,,,57,92
77280,note_on,0,0,2,,,,,,,,1,,,,73,92
77280,note_off,240,0,8,,,,,,,,5,,,,62,64
77280,note_off,240,0,11,,,,,,,,12,,,,74,64
77280,note_off,240,0,10,,,,,,,,11,,,,77,64
77400,note_off,120,0,10,,,,,,,,11,,,,76,64
77400,note_off,120,0,11,,,,,,,,12,,,,73,64
77400,note_off,120,0,13,,,,,,,,14,,,,57,64
77400,note_off,120,0,4,,,,,,,,2,,,,73,64
77400,note_off,120,0,9,,,,,,,,5,,,,64,64
77400,note_off,120,0,2,,,,,,,,1,,,,73,64
77400,note_off,120,0,3,,,,,,,,2,,,,76,64
77400,note_off,120,0,6,,,,,,,,3,,,,64,64
77400,note_off,120,0,8,,,,,,,,5,,,,61,64
77400,note_off,120,0,5,,,,,,,,3,,,,73,64
77400,note_off,120,0,7,,,,,,,,4,,,,57,64
77400,note_off,120,0,1,,,,,,,,0,,,,76,64
77400,note_off,120,0,12,,,,,,,,13,,,,64,64
77680,note_off,400,0,14,,,,,,,,15,,,,45,64
77760,note_on,360,0,4,,,,,,,,2,,,,74,92
77760,note_on,360,0,12,,,,,,,,13,,,,62,92
77760,note_on,360,0,9,,,,,,,,5,,,,62,92
77760,note_on,360,0,2,,,,,,,,1,,,,74,92
77760,note_on,360,0,1,,,,,,,,0,,,,77,108
77760,note_on,360,0,3,,,,,,,,2,,,,77,108
77760,note_on,360,0,10,,,,,,,,11,,,,77,108
77760,note_on,360,0,11,,,,,,,,12,,,,74,92
77760,note_on,360,0,7,,,,,,,,4,,,,50,92
77760,note_on,360,0,13,,,,,,,,14,,,,50,92
77760,note_on,360,0,5,,,,,,,,3,,,,74,92
77760,note_on,80,0,14,,,,,,,,15,,,,38,92
77760,note_on,360,0,8,,,,,,,,5,,,,62,92
77760,note_on,360,0,6,,,,,,,,3,,,,62,92
77880,note_off,120,0,4,,,,,,,,2,,,,74,64
77880,note_off,120,0,2,,,,,,,,1,,,,74,64
77880,note_off,120,0,11,,,,,,,,12,,,,74,64
77880,note_off,120,0,7,,,,,,,,4,,,,50,64
77880,note_off,120,0,5,,,,,,,,3,,,,74,64
77880,note_off,120,0,8,,,,,,,,5,,,,62,64
77880,note_off,120,0,3,,,,,,,,2,,,,77,64
77880,note_off,120,0,13,,,,,,,,14,,,,50,64
77880,note_off,120,0,9,,,,,,,,5,,,,62,64
77880,note_off,120,0,1,,,,,,,,0,,,,77,64
77880,note_off,120,0,12,,,,,,,,13,,,,62,64
77880,note_off,120,0,10,,,,,,,,11,,,,77,64
77880,note_off,120,0,6,,,,,,,,3,,,,62,64
78160,note_off,400,0,14,,,,,,,,15,,,,38,64
78240,note_on,360,0,2,,,,,,,,1,,,,69,92
78240,note_on,360,0,10,,,,,,,,11,,,,74,108
78240,note_on,360,0,4,,,,,,,,2,,,,69,92
78240,note_on,360,0,12,,,,,,,,13,,,,62,92
78240,note_on,80,0,14,,,,,,,,15,,,,41,92
78240,note_on,360,0,1,,,,,,,,0,,,,74,108
78240,note_on,360,0,6,,,,,,,,3,,,,62,92
78240,note_on,360,0,5,,,,,,,,3,,,,69,92
78240,note_on,360,0,3,,,,,,,,2,,,,74,108
78240,note_on,360,0,9,,,,,,,,5,,,,62,92
78240,note_on,360,0,11,,,,,,,,12,,,,69,92
78240,note_on,360,0,8,,,,,,,,5,,,,69,92
78240,note_on,360,0,13,,,,,,,,14,,,,53,92
78240,note_on,360,0,7,,,,,,,,4,,,,53,92
78360,note_off,120,0,8,,,,,,,,5,,,,69,64
78360,note_off,120,0,10,,,,,,,,11,,,,74,64
78360,note_off,120,0,11,,,,,,,,12,,,,69,64
78360,note_off,120,0,3,,,,,,,,2,,,,74,64
78360,note_off,120,0,6,,,,,,,,3,,,,62,64
78360,note_off,120,0,12,,,,,,,,13,,,,62,64
78360,note_off,120,0,2,,,,,,,,1,,,,69,64
78360,note_off,120,0,13,,,,,,,,14,,,,53,64
78360,note_off,120,0,9,,,,,,,,5,,,,62,64
78360,note_off,120,0,7,,,,,,,,4,,,,53,64
78360,note_off,120,0,5,,,,,,,,3,,,,69,64
78360,note_off,120,0,4,,,,,,,,2,,,,69,64
78360,note_off,120,0,1,,,,,,,,0,,,,74,64
78640,note_off,400,0,14,,,,,,,,15,,,,41,64
78720,note_on,360,0,6,,,,,,,,3,,,,62,92
78720,note_on,360,0,4,,,,,,,,2,,,,65,92
78720,note_on,360,0,2,,,,,,,,1,,,,65,92
78720,note_on,360,0,3,,,,,,,,2,,,,69,108
78720,note_on,360,0,13,,,,,,,,14,,,,57,92
78720,note_on,360,0,11,,,,,,,,12,,,,65,92
78720,note_on,360,0,9,,,,,,,,5,,,,62,92
78720,note_on,360,0,1,,,,,,,,0,,,,69,108
78720,note_on,80,0,14,,,,,,,,15,,,,45,92
78720,note_on,360,0,7,,,,,,,,4,,,,57,92
78720,note_on,360,0,5,,,,,,,,3,,,,65,92
78720,note_on,360,0,10,,,,,,,,11,,,,69,108
78720,note_on,360,0,8,,,,,,,,5,,,,65,92
78720,note_on,360,0,12,,,,,,,,13,,,,62,92
78840,note_off,120,0,4,,,,,,,,2,,,,65,64
78840,note_off,120,0,5,,,,,,,,3,,,,65,64
78840,note_off,120,0,11,,,,,,,,12,,,,65,64
78840,note_off,120,0,2,,,,,,,,1,,,,65,64
78840,note_off,120,0,1,,,,,,,,0,,,,69,64
78840,note_off,120,0,12,,,,,,,,13,,,,62,64
78840,note_off,120,0,10,,,,,,,,11,,,,69,64
78840,note_off,120,0,13,,,,,,,,14,,,,57,64
78840,note_off,120,0,6,,,,,,,,3,,,,62,64
78840,note_off,120,0,3,,,,,,,,2,,,,69,64
78840,note_off,120,0,8,,,,,,,,5,,,,65,64
78840,note_off,120,0,7,,,,,,,,4,,,,57,64
78840,note_off,120,0,9,,,,,,,,5,,,,62,64
79120,note_off,400,0,14,,,,,,,,15,,,,45,64
79200,note_on,360,0,6,,,,,,,,3,,,,61,92
79200,note_on,360,0,13,,,,,,,,14,,,,45,92
79200,note_on,360,0,10,,,,,,,,11,,,,67,108
79200,note_on,360,0,5,,,,,,,,3,,,,64,92
79200,note_on,360,0,4,,,,,,,,2,,,,64,92
79200,note_on,360,0,7,,,,,,,,4,,,,45,92
79200,note_on,360,0,8,,,,,,,,5,,,,64,92
79200,note_on,360,0,11,,,,,,,,12,,,,64,92
79200,note_on,360,0,2,,,,,,,,1,,,,64,92
79200,note_on,360,0,12,,,,,,,,13,,,,61,92
79200,note_on,360,0,3,,,,,,,,2,,,,67,108
79200,note_on,360,0,9,,,,,,,,5,,,,61,92
79200,note_on,80,0,14,,,,,,,,15,,,,33,92
79200,note_on,360,0,1,,,,,,,,0,,,,67,108
79600,note_off,400,0,7,,,,,,,,4,,,,45,64
79600,note_off,400,0,14,,,,,,,,15,,,,33,64
79680,note_on,0,0,4,,,,,,,,2,,,,62,92
79680,note_off,480,0,4,,,,,,,,2,,,,64,64
79680,note_on,80,0,7,,,,,,,,4,,,,50,92
79680,note_off,480,0,11,,,,,,,,12,,,,64,64
79680,note_on,0,0,8,,,,,,,,5,,,,62,92
79680,note_on,0,0,11,,,,,,,,12,,,,62,92
79680,note_off,480,0,8,,,,,,,,5,,,,64,64
79680,note_on,0,0,6,,,,,,,,3,,,,62,92
79680,note_off,480,0,1,,,,,,,,0,,,,67,64
79680,note_off,480,0,6,,,,,,,,3,,,,61,64
79680,note_on,0,0,3,,,,,,,,2,,,,65,108
79680,note_off,480,0,3,,,,,,,,2,,,,67,64
79680,note_on,0,0,12,,,,,,,,13,,,,62,92
79680,note_off,480,0,12,,,,,,,,13,,,,61,64
79680,note_off,480,0,2,,,,,,,,1,,,,64,64
79680,note_on,80,0,14,,,,,,,,15,,,,38,92
79680,note_on,0,0,13,,,,,,,,14,,,,50,92
79680,note_on,0,0,2,,,,,,,,1,,,,62,92
79680,note_off,480,0,5,,,,,,,,3,,,,64,64
79680,note_off,480,0,10,,,,,,,,11,,,,67,64
79680,note_on,0,0,9,,,,,,,,5,,,,62,92
79680,note_off,480,0,9,,,,,,,,5,,,,61,64
79680,note_off,480,0,13,,,,,,,,14,,,,45,64
79680,note_on,0,0,10,,,,,,,,11,,,,65,108
79680,note_on,0,0,5,,,,,,,,3,,,,62,92
79680,note_on,0,0,1,,,,,,,,0,,,,65,108
80160,note_off,480,0,12,,,,,,,,13,,,,62,64
80160,note_on,0,0,12,,,,,,,,13,,,,65,92
80160,note_off,480,0,10,,,,,,,,11,,,,65,64
80160,note_on,0,0,10,,,,,,,,11,,,,62,108
80160,note_on,0,0,3,,,,,,,,2,,,,62,108
80160,note_off,480,0,1,,,,,,,,0,,,,65,64
80160,note_on,0,0,1,,,,,,,,0,,,,62,108
80160,note_off,480,0,3,,,,,,,,2,,,,65,64
80160,note_on,0,0,9,,,,,,,,5,,,,65,92
80160,note_off,480,0,9,,,,,,,,5,,,,62,64
80160,note_on,0,0,6,,,,,,,,3,,,,65,92
80160,note_off,480,0,6,,,,,,,,3,,,,62,64
80520,note_off,840,0,13,,,,,,,,14,,,,50,64
80520,note_off,840,0,7,,,,,,,,4,,,,50,64
80520,note_off,840,0,5,,,,,,,,3,,,,62,64
80520,note_off,840,0,11,,,,,,,,12,,,,62,64
80520,note_off,840,0,8,,,,,,,,5,,,,62,64
80520,note_off,840,0,4,,,,,,,,2,,,,62,64
80520,note_off,840,0,14,,,,,,,,15,,,,38,64
80520,note_off,840,0,2,,,,,,,,1,,,,62,64
80560,note_off,400,0,1,,,,,,,,0,,,,62,64
80560,note_off,400,0,10,,,,,,,,11,,,,62,64
80560,note_off,400,0,9,,,,,,,,5,,,,65,64
80560,note_off,400,0,12,,,,,,,,13,,,,65,64
80560,note_off,400,0,3,,,,,,,,2,,,,62,64
80560,note_off,400,0,6,,,,,,,,3,,,,65,64
80640,note_on,80,0,1,,,,,,,,0,,,,72,108
80640,note_on,120,0,5,,,,,,,,3,,,,64,92
80640,note_on,120,0,8,,,,,,,,5,,,,64,92
80640,note_on,80,0,12,,,,,,,,13,,,,69,92
80640,note_on,120,0,14,,,,,,,,15,,,,45,92
80640,note_on,80,0,3,,,,,,,,2,,,,72,108
80640,note_on,80,0,9,,,,,,,,5,,,,69,92
80640,note_on,120,0,11,,,,,,,,12,,,,64,92
80640,note_on,120,0,7,,,,,,,,4,,,,57,92
80640,note_on,120,0,2,,,,,,,,1,,,,64,92
80640,note_on,80,0,6,,,,,,,,3,,,,69,92
80640,note_on,80,0,10,,,,,,,,11,,,,72,108
80640,note_on,120,0,4,,,,,,,,2,,,,64,92
80640,note_on,120,0,13,,,,,,,,14,,,,57,92
81120,note_on,0,0,11,,,,,,,,12,,,,69,92
81120,note_off,480,0,11,,,,,,,,12,,,,64,64
81120,note_off,480,0,4,,,,,,,,2,,,,64,64
81120,note_on,0,0,4,,,,,,,,2,,,,69,92
81120,note_on,0,0,8,,,,,,,,5,,,,57,92
81120,note_on,0,0,2,,,,,,,,1,,,,69,92
81120,note_off,480,0,2,,,,,,,,1,,,,64,64
81120,note_off,480,0,8,,,,,,,,5,,,,64,64
81120,note_on,0,0,5,,,,,,,,3,,,,69,92
81120,note_off,480,0,5,,,,,,,,3,,,,64,64
81480,note_off,840,0,3,,,,,,,,2,,,,72,64
81480,note_off,840,0,13,,,,,,,,14,,,,57,64
81480,note_off,840,0,14,,,,,,,,15,,,,45,64
81480,note_off,840,0,10,,,,,,,,11,,,,72,64
81480,note_off,840,0,6,,,,,,,,3,,,,69,64
81480,note_off,840,0,7,,,,,,,,4,,,,57,64
81480,note_off,840,0,1,,,,,,,,0,,,,72,64
81480,note_off,840,0,9,,,,,,,,5,,,,69,64
81480,note_off,840,0,12,,,,,,,,13,,,,69,64
81600,note_on,120,0,12,,,,,,,,13,,,,57,92
81600,note_on,120,0,3,,,,,,,,2,,,,66,108
81600,note_on,120,0,9,,,,,,,,5,,,,57,92
81600,note_on,120,0,7,,,,,,,,4,,,,50,92
81600,note_on,120,0,13,,,,,,,,14,,,,50,92
81600,note_on,120,0,6,,,,,,,,3,,,,57,92
81600,note_on,120,0,14,,,,,,,,15,,,,38,92
81600,note_on,120,0,1,,,,,,,,0,,,,66,108
81600,note_on,120,0,10,,,,,,,,11,,,,66,108
81840,note_on,0,0,3,,,,,,,,2,,,,67,108
81840,note_off,240,0,3,,,,,,,,2,,,,66,64
81840,note_on,0,0,10,,,,,,,,11,,,,67,108
81840,note_on,0,0,1,,,,,,,,0,,,,67,108
81840,note_off,240,0,1,,,,,,,,0,,,,66,64
81840,note_off,240,0,10,,,,,,,,11,,,,66,64
81960,note_off,840,0,5,,,,,,,,3,,,,69,64
81960,note_off,840,0,2,,,,,,,,1,,,,69,64
81960,note_off,840,0,4,,,,,,,,2,,,,69,64
81960,note_off,840,0,8,,,,,,,,5,,,,57,64
81960,note_off,840,0,11,,,,,,,,12,,,,69,64
82080,note_on,120,0,8,,,,,,,,5,,,,66,92
82080,note_off,240,0,3,,,,,,,,2,,,,67,64
82080,note_on,0,0,10,,,,,,,,11,,,,69,108
82080,note_off,240,0,10,,,,,,,,11,,,,67,64
82080,note_on,120,0,2,,,,,,,,1,,,,66,92
82080,note_on,120,0,5,,,,,,,,3,,,,66,92
82080,note_on,0,0,3,,,,,,,,2,,,,69,108
82080,note_off,240,0,1,,,,,,,,0,,,,67,64
82080,note_on,120,0,11,,,,,,,,12,,,,66,92
82080,note_on,0,0,1,,,,,,,,0,,,,69,108
82080,note_on,120,0,4,,,,,,,,2,,,,66,92
82200,note_off,120,0,1,,,,,,,,0,,,,69,64
82440,note_off,840,0,13,,,,,,,,14,,,,50,64
82440,note_off,840,0,7,,,,,,,,4,,,,50,64
82440,note_off,840,0,6,,,,,,,,3,,,,57,64
82440,note_off,840,0,14,,,,,,,,15,,,,38,64
82440,note_off,840,0,12,,,,,,,,13,,,,57,64
82440,note_off,840,0,9,,,,,,,,5,,,,57,64
82480,note_off,400,0,10,,,,,,,,11,,,,69,64
82560,note_on,120,0,13,,,,,,,,14,,,,54,92
82560,note_on,120,0,12,,,,,,,,13,,,,57,92
82560,note_on,120,0,7,,,,,,,,4,,,,54,92
82560,note_on,80,0,10,,,,,,,,11,,,,62,108
82560,note_on,120,0,14,,,,,,,,15,,,,42,92
82560,note_on,120,0,6,,,,,,,,3,,,,57,92
82560,note_on,360,0,1,,,,,,,,0,,,,62,108
82560,note_off,480,0,3,,,,,,,,2,,,,69,64
82560,note_on,0,0,3,,,,,,,,2,,,,62,108
82560,note_on,120,0,9,,,,,,,,5,,,,57,92
82680,note_off,120,0,3,,,,,,,,2,,,,62,64
82680,note_off,120,0,1,,,,,,,,0,,,,62,64
82920,note_off,840,0,4,,,,,,,,2,,,,66,64
82920,note_off,840,0,5,,,,,,,,3,,,,66,64
82920,note_off,840,0,2,,,,,,,,1,,,,66,64
82920,note_off,840,0,11,,,,,,,,12,,,,66,64
82920,note_off,840,0,8,,,,,,,,5,,,,66,64
83040,note_on,120,0,8,,,,,,,,5,,,,69,92
83040,note_on,0,0,10,,,,,,,,11,,,,74,108
83040,note_on,360,0,1,,,,,,,,0,,,,74,108
83040,note_on,360,0,3,,,,,,,,2,,,,74,108
83040,note_on,120,0,4,,,,,,,,2,,,,69,92
83040,note_on,120,0,5,,,,,,,,3,,,,69,92
83040,note_on,120,0,2,,,,,,,,1,,,,69,92
83040,note_off,480,0,10,,,,,,,,11,,,,62,64
83040,note_on,120,0,11,,,,,,,,12,,,,69,92
83160,note_off,120,0,10,,,,,,,,11,,,,74,64
83160,note_off,120,0,2,,,,,,,,1,,,,69,64
83160,note_off,120,0,1,,,,,,,,0,,,,74,64
83160,note_off,120,0,3,,,,,,,,2,,,,74,64
83160,note_off,120,0,4,,,,,,,,2,,,,69,64
83160,note_off,120,0,5,,,,,,,,3,,,,69,64
83160,note_off,120,0,8,,,,,,,,5,,,,69,64
83400,note_off,840,0,9,,,,,,,,5,,,,57,64
83400,note_off,840,0,14,,,,,,,,15,,,,42,64
83400,note_off,840,0,12,,,,,,,,13,,,,57,64
83400,note_off,840,0,6,,,,,,,,3,,,,57,64
83400,note_off,840,0,13,,,,,,,,14,,,,54,64
83400,note_off,840,0,7,,,,,,,,4,,,,54,64
83520,note_on,120,0,13,,,,,,,,14,,,,55,92
83520,note_on,120,0,12,,,,,,,,13,,,,55,92
83520,note_on,360,0,2,,,,,,,,1,,,,62,92
83520,note_on,120,0,9,,,,,,,,5,,,,55,92
83520,note_on,360,0,1,,,,,,,,0,,,,70,108
83520,note_on,120,0,6,,,,,,,,3,,,,55,92
83520,note_on,120,0,14,,,,,,,,15,,,,43,92
83520,note_on,360,0,8,,,,,,,,5,,,,62,92
83520,note_on,0,0,11,,,,,,,,12,,,,62,92
83520,note_off,480,0,11,,,,,,,,12,,,,69,64
83520,note_on,360,0,10,,,,,,,,11,,,,70,108
83520,note_on,360,0,4,,,,,,,,2,,,,62,92
83520,note_on,360,0,3,,,,,,,,2,,,,70,108
83520,note_on,120,0,7,,,,,,,,4,,,,55,92
83520,note_on,360,0,5,,,,,,,,3,,,,62,92
83760,note_on,0,0,3,,,,,,,,2,,,,72,108
83760,note_off,240,0,3,,,,,,,,2,,,,70,64
83760,note_off,240,0,10,,,,,,,,11,,,,70,64
83760,note_on,0,0,1,,,,,,,,0,,,,72,108
83760,note_off,240,0,1,,,,,,,,0,,,,70,64
83760,note_on,0,0,10,,,,,,,,11,,,,72,108
84000,note_off,240,0,1,,,,,,,,0,,,,72,64
84000,note_off,240,0,10,,,,,,,,11,,,,72,64
84000,note_on,0,0,3,,,,,,,,2,,,,74,108
84000,note_off,240,0,3,,,,,,,,2,,,,72,64
84000,note_on,0,0,1,,,,,,,,0,,,,74,108
84000,note_on,0,0,10,,,,,,,,11,,,,74,108
84360,note_off,840,0,13,,,,,,,,14,,,,55,64
84360,note_off,840,0,14,,,,,,,,15,,,,43,64
84400,note_off,400,0,10,,,,,,,,11,,,,74,64
84480,note_on,80,0,10,,,,,,,,11,,,,67,108
84480,note_on,0,0,7,,,,,,,,4,,,,58,92
84480,note_on,0,0,3,,,,,,,,2,,,,67,108
84480,note_off,960,0,7,,,,,,,,4,,,,55,64
84480,note_on,0,0,1,,,,,,,,0,,,,67,108
84480,note_off,480,0,1,,,,,,,,0,,,,74,64
84480,note_off,480,0,3,,,,,,,,2,,,,74,64
84480,note_on,120,0,13,,,,,,,,14,,,,58,92
84480,note_on,120,0,14,,,,,,,,15,,,,46,92
84840,note_off,1320,0,12,,,,,,,,13,,,,55,64
84840,note_off,1320,0,11,,,,,,,,12,,,,62,64
84880,note_off,400,0,3,,,,,,,,2,,,,67,64
84880,note_off,400,0,1,,,,,,,,0,,,,67,64
84880,note_off,400,0,14,,,,,,,,15,,,,46,64
84880,note_off,400,0,7,,,,,,,,4,,,,58,64
84960,note_off,1440,0,8,,,,,,,,5,,,,62,64
84960,note_on,0,0,13,,,,,,,,14,,,,55,92
84960,note_on,0,0,10,,,,,,,,11,,,,79,108
84960,note_on,0,0,4,,,,,,,,2,,,,70,92
84960,note_on,80,0,1,,,,,,,,0,,,,79,108
84960,note_off,1440,0,6,,,,,,,,3,,,,55,64
84960,note_on,0,0,5,,,,,,,,3,,,,70,92
84960,note_on,0,0,9,,,,,,,,5,,,,62,92
84960,note_on,80,0,14,,,,,,,,15,,,,43,92
84960,note_off,480,0,13,,,,,,,,14,,,,58,64
84960,note_off,1440,0,9,,,,,,,,5,,,,55,64
84960,note_on,120,0,11,,,,,,,,12,,,,70,92
84960,note_on,120,0,12,,,,,,,,13,,,,62,92
84960,note_on,0,0,8,,,,,,,,5,,,,70,92
84960,note_off,1440,0,5,,,,,,,,3,,,,62,64
84960,note_off,480,0,10,,,,,,,,11,,,,67,64
84960,note_off,1440,0,4,,,,,,,,2,,,,62,64
84960,note_off,1440,0,2,,,,,,,,1,,,,62,64
84960,note_on,80,0,3,,,,,,,,2,,,,79,108
84960,note_on,80,0,7,,,,,,,,4,,,,55,92
84960,note_on,0,0,6,,,,,,,,3,,,,62,92
84960,note_on,0,0,2,,,,,,,,1,,,,70,92
85080,note_off,120,0,8,,,,,,,,5,,,,70,64
85080,note_off,120,0,3,,,,,,,,2,,,,79,64
85080,note_off,120,0,5,,,,,,,,3,,,,70,64
85080,note_off,120,0,11,,,,,,,,12,,,,70,64
85080,note_off,120,0,9,,,,,,,,5,,,,62,64
85080,note_off,120,0,7,,,,,,,,4,,,,55,64
85080,note_off,120,0,6,,,,,,,,3,,,,62,64
85080,note_off,120,0,1,,,,,,,,0,,,,79,64
85080,note_off,120,0,4,,,,,,,,2,,,,70,64
85080,note_off,120,0,2,,,,,,,,1,,,,70,64
85080,note_off,120,0,10,,,,,,,,11,,,,79,64
85080,note_off,120,0,13,,,,,,,,14,,,,55,64
85080,note_off,120,0,12,,,,,,,,13,,,,62,64
85360,note_off,400,0,14,,,,,,,,15,,,,43,64
85440,note_on,80,0,14,,,,,,,,15,,,,48,92
85440,note_on,360,0,6,,,,,,,,3,,,,60,92
85440,note_on,360,0,10,,,,,,,,11,,,,76,108
85440,note_on,360,0,9,,,,,,,,5,,,,60,92
85440,note_on,360,0,3,,,,,,,,2,,,,76,108
85440,note_on,360,0,5,,,,,,,,3,,,,67,92
85440,note_on,360,0,8,,,,,,,,5,,,,67,92
85440,note_on,360,0,11,,,,,,,,12,,,,67,92
85440,note_on,360,0,7,,,,,,,,4,,,,60,92
85440,note_on,360,0,1,,,,,,,,0,,,,76,108
85440,note_on,360,0,4,,,,,,,,2,,,,67,92
85440,note_on,360,0,2,,,,,,,,1,,,,67,92
85440,note_on,360,0,13,,,,,,,,14,,,,60,92
85440,note_on,360,0,12,,,,,,,,13,,,,60,92
85920,note_off,480,0,3,,,,,,,,2,,,,76,64
85920,note_on,0,0,3,,,,,,,,2,,,,72,108
85920,note_on,0,0,1,,,,,,,,0,,,,72,108
85920,note_off,480,0,1,,,,,,,,0,,,,76,64
85920,note_off,480,0,5,,,,,,,,3,,,,67,64
85920,note_on,0,0,5,,,,,,,,3,,,,64,92
85920,note_off,480,0,8,,,,,,,,5,,,,67,64
85920,note_on,0,0,11,,,,,,,,12,,,,64,92
85920,note_off,480,0,10,,,,,,,,11,,,,76,64
85920,note_on,0,0,10,,,,,,,,11,,,,72,108
85920,note_on,0,0,8,,,,,,,,5,,,,64,92
85920,note_off,480,0,4,,,,,,,,2,,,,67,64
85920,note_off,480,0,11,,,,,,,,12,,,,67,64
85920,note_on,0,0,4,,,,,,,,2,,,,64,92
85920,note_off,480,0,2,,,,,,,,1,,,,67,64
85920,note_on,0,0,2,,,,,,,,1,,,,64,92
86280,note_off,840,0,14,,,,,,,,15,,,,48,64
86280,note_off,840,0,13,,,,,,,,14,,,,60,64
86280,note_off,840,0,9,,,,,,,,5,,,,60,64
86280,note_off,840,0,12,,,,,,,,13,,,,60,64
86280,note_off,840,0,7,,,,,,,,4,,,,60,64
86280,note_off,840,0,6,,,,,,,,3,,,,60,64
86320,note_off,400,0,10,,,,,,,,11,,,,72,64
86320,note_off,400,0,3,,,,,,,,2,,,,72,64
86320,note_off,400,0,1,,,,,,,,0,,,,72,64
86320,note_off,400,0,2,,,,,,,,1,,,,64,64
86320,note_off,400,0,11,,,,,,,,12,,,,64,64
86320,note_off,400,0,8,,,,,,,,5,,,,64,64
86320,note_off,400,0,5,,,,,,,,3,,,,64,64
86320,note_off,400,0,4,,,,,,,,2,,,,64,64
86400,note_on,80,0,4,,,,,,,,2,,,,72,92
86400,note_on,80,0,1,,,,,,,,0,,,,79,108
86400,note_on,80,0,11,,,,,,,,12,,,,60,92
86400,note_on,120,0,13,,,,,,,,14,,,,52,92
86400,note_on,80,0,2,,,,,,,,1,,,,72,92
86400,note_on,120,0,14,,,,,,,,15,,,,40,92
86400,set_tempo,86400,1,0,315789,,,,,,,,,,,,
86400,note_on,120,0,7,,,,,,,,4,,,,52,92
86400,note_on,120,0,12,,,,,,,,13,,,,60,92
86400,note_on,120,0,9,,,,,,,,5,,,,60,92
86400,note_on,120,0,6,,,,,,,,3,,,,60,92
86400,note_on,80,0,5,,,,,,,,3,,,,60,92
86400,note_on,80,0,10,,,,,,,,11,,,,79,108
86400,note_on,80,0,3,,,,,,,,2,,,,79,108
86400,note_on,80,0,8,,,,,,,,5,,,,60,92
86800,note_off,400,0,14,,,,,,,,15,,,,40,64
86880,note_off,480,0,8,,,,,,,,5,,,,60,64
86880,note_off,480,0,11,,,,,,,,12,,,,60,64
86880,note_on,0,0,11,,,,,,,,12,,,,64,92
86880,note_on,0,0,5,,,,,,,,3,,,,64,92
86880,note_on,0,0,13,,,,,,,,14,,,,48,92
86880,note_off,480,0,13,,,,,,,,14,,,,52,64
86880,note_on,80,0,14,,,,,,,,15,,,,36,92
86880,note_on,0,0,8,,,,,,,,5,,,,64,92
86880,note_off,480,0,7,,,,,,,,4,,,,52,64
86880,note_off,480,0,5,,,,,,,,3,,,,60,64
86880,note_on,0,0,7,,,,,,,,4,,,,48,92
86880,note_on,0,0,4,,,,,,,,2,,,,76,92
86880,note_off,480,0,4,,,,,,,,2,,,,72,64
86880,note_off,480,0,2,,,,,,,,1,,,,72,64
86880,note_on,0,0,2,,,,,,,,1,,,,76,92
87240,note_off,840,0,6,,,,,,,,3,,,,60,64
87240,note_off,840,0,1,,,,,,,,0,,,,79,64
87240,note_off,840,0,3,,,,,,,,2,,,,79,64
87240,note_off,840,0,10,,,,,,,,11,,,,79,64
87240,note_off,840,0,12,,,,,,,,13,,,,60,64
87240,note_off,840,0,9,,,,,,,,5,,,,60,64
87280,note_off,400,0,8,,,,,,,,5,,,,64,64
87280,note_off,400,0,7,,,,,,,,4,,,,48,64
87280,note_off,400,0,2,,,,,,,,1,,,,76,64
87280,note_off,400,0,4,,,,,,,,2,,,,76,64
87280,note_off,400,0,11,,,,,,,,12,,,,64,64
87280,note_off,400,0,13,,,,,,,,14,,,,48,64
87280,note_off,400,0,14,,,,,,,,15,,,,36,64
87280,note_off,400,0,5,,,,,,,,3,,,,64,64
87360,note_on,80,0,13,,,,,,,,14,,,,50,92
87360,note_on,120,0,6,,,,,,,,3,,,,58,92
87360,note_on,120,0,1,,,,,,,,0,,,,70,108
87360,note_on,80,0,8,,,,,,,,5,,,,65,92
87360,note_on,120,0,12,,,,,,,,13,,,,58,92
87360,note_on,80,0,7,,,,,,,,4,,,,50,92
87360,note_on,80,0,11,,,,,,,,12,,,,65,92
87360,note_on,80,0,5,,,,,,,,3,,,,65,92
87360,note_on,120,0,9,,,,,,,,5,,,,58,92
87360,set_tempo,960,1,0,352941,,,,,,,,,,,,
87360,note_on,80,0,14,,,,,,,,15,,,,38,92
87360,note_on,120,0,10,,,,,,,,11,,,,70,108
87360,note_on,120,0,3,,,,,,,,2,,,,70,108
87360,note_on,80,0,4,,,,,,,,2,,,,65,92
87360,note_on,80,0,2,,,,,,,,1,,,,65,92
87760,note_off,400,0,14,,,,,,,,15,,,,38,64
87760,note_off,400,0,9,,,,,,,,5,,,,58,64
87840,note_on,0,0,2,,,,,,,,1,,,,67,92
87840,note_off,480,0,4,,,,,,,,2,,,,65,64
87840,note_on,0,0,4,,,,,,,,2,,,,67,92
87840,note_off,480,0,13,,,,,,,,14,,,,50,64
87840,note_on,0,0,13,,,,,,,,14,,,,52,92
87840,note_on,80,0,14,,,,,,,,15,,,,40,92
87840,note_off,480,0,7,,,,,,,,4,,,,50,64
87840,note_on,0,0,7,,,,,,,,4,,,,52,92
87840,note_off,480,0,8,,,,,,,,5,,,,65,64
87840,note_on,0,0,11,,,,,,,,12,,,,67,92
87840,note_off,480,0,12,,,,,,,,13,,,,58,64
87840,note_on,0,0,12,,,,,,,,13,,,,57,92
87840,note_off,480,0,11,,,,,,,,12,,,,65,64
87840,note_off,480,0,2,,,,,,,,1,,,,65,64
87840,note_off,480,0,6,,,,,,,,3,,,,58,64
87840,note_on,0,0,8,,,,,,,,5,,,,67,92
87840,note_on,0,0,5,,,,,,,,3,,,,67,92
87840,note_off,480,0,5,,,,,,,,3,,,,65,64
87840,note_on,0,0,6,,,,,,,,3,,,,57,92
87840,note_on,80,0,9,,,,,,,,5,,,,57,92
88075,note_off,235,0,9,,,,,,,,5,,,,57,64
88080,note_on,5,0,9,,,,,,,,5,,,,55,92
88080,note_on,0,0,6,,,,,,,,3,,,,55,92
88080,note_off,240,0,6,,,,,,,,3,,,,57,64
88080,note_off,240,0,12,,,,,,,,13,,,,57,64
88080,note_on,0,0,12,,,,,,,,13,,,,55,92
88200,note_off,840,0,10,,,,,,,,11,,,,70,64
88200,note_off,840,0,1,,,,,,,,0,,,,70,64
88200,note_off,840,0,3,,,,,,,,2,,,,70,64
88240,note_off,400,0,5,,,,,,,,3,,,,67,64
88240,note_off,400,0,14,,,,,,,,15,,,,40,64
88240,note_off,400,0,2,,,,,,,,1,,,,67,64
88240,note_off,400,0,13,,,,,,,,14,,,,52,64
88240,note_off,400,0,11,,,,,,,,12,,,,67,64
88240,note_off,400,0,8,,,,,,,,5,,,,67,64
88240,note_off,400,0,4,,,,,,,,2,,,,67,64
88240,note_off,400,0,7,,,,,,,,4,,,,52,64
88315,note_off,235,0,9,,,,,,,,5,,,,55,64
88315,note_off,235,0,6,,,,,,,,3,,,,55,64
88315,note_off,235,0,12,,,,,,,,13,,,,55,64
88320,note_on,5,0,9,,,,,,,,5,,,,53,92
88320,note_on,120,0,3,,,,,,,,2,,,,69,108
88320,note_on,80,0,13,,,,,,,,14,,,,53,92
88320,note_on,5,0,6,,,,,,,,3,,,,53,92
88320,note_on,120,0,10,,,,,,,,11,,,,69,108
88320,note_on,80,0,2,,,,,,,,1,,,,60,92
88320,note_on,80,0,7,,,,,,,,4,,,,53,92
88320,note_on,80,0,4,,,,,,,,2,,,,60,92
88320,note_on,80,0,11,,,,,,,,12,,,,60,92
88320,note_on,80,0,14,,,,,,,,15,,,,41,92
88320,note_on,5,0,12,,,,,,,,13,,,,53,92
88320,set_tempo,960,1,0,400000,,,,,,,,,,,,
88320,note_on,80,0,5,,,,,,,,3,,,,60,92
88320,note_on,120,0,1,,,,,,,,0,,,,69,108
88320,note_on,80,0,8,,,,,,,,5,,,,60,92
88720,note_off,400,0,14,,,,,,,,15,,,,41,64
88800,note_on,0,0,4,,,,,,,,2,,,,65,92
88800,note_on,0,0,13,,,,,,,,14,,,,45,92
88800,note_off,480,0,13,,,,,,,,14,,,,53,64
88800,note_off,480,0,11,,,,,,,,12,,,,60,64
88800,note_off,480,0,5,,,,,,,,3,,,,60,64
88800,note_off,480,0,4,,,,,,,,2,,,,60,64
88800,note_on,0,0,5,,,,,,,,3,,,,65,92
88800,note_on,0,0,11,,,,,,,,12,,,,65,92
88800,note_on,0,0,10,,,,,,,,11,,,,67,108
88800,note_on,0,0,2,,,,,,,,1,,,,65,92
88800,note_off,480,0,3,,,,,,,,2,,,,69,64
88800,note_on,0,0,3,,,,,,,,2,,,,67,108
88800,note_on,80,0,14,,,,,,,,15,,,,33,92
88800,note_on,0,0,7,,,,,,,,4,,,,45,92
88800,note_off,480,0,7,,,,,,,,4,,,,53,64
88800,note_on,0,0,8,,,,,,,,5,,,,65,92
88800,note_off,480,0,1,,,,,,,,0,,,,69,64
88800,note_off,480,0,8,,,,,,,,5,,,,60,64
88800,note_off,480,0,10,,,,,,,,11,,,,69,64
88800,note_off,480,0,2,,,,,,,,1,,,,60,64
88800,note_on,0,0,1,,,,,,,,0,,,,67,108
89040,note_off,240,0,1,,,,,,,,0,,,,67,64
89040,note_off,240,0,10,,,,,,,,11,,,,67,64
89040,note_on,0,0,10,,,,,,,,11,,,,65,108
89040,note_on,0,0,3,,,,,,,,2,,,,65,108
89040,note_off,240,0,3,,,,,,,,2,,,,67,64
89040,note_on,0,0,1,,,,,,,,0,,,,65,108
89160,note_off,840,0,12,,,,,,,,13,,,,53,64
89160,note_off,840,0,6,,,,,,,,3,,,,53,64
89160,note_off,840,0,9,,,,,,,,5,,,,53,64
89200,note_off,400,0,14,,,,,,,,15,,,,33,64
89200,note_off,400,0,4,,,,,,,,2,,,,65,64
89200,note_off,400,0,13,,,,,,,,14,,,,45,64
89200,note_off,400,0,11,,,,,,,,12,,,,65,64
89200,note_off,400,0,7,,,,,,,,4,,,,45,64
89200,note_off,400,0,5,,,,,,,,3,,,,65,64
89200,note_off,400,0,2,,,,,,,,1,,,,65,64
89200,note_off,400,0,8,,,,,,,,5,,,,65,64
89275,note_off,235,0,10,,,,,,,,11,,,,65,64
89275,note_off,235,0,3,,,,,,,,2,,,,65,64
89275,note_off,235,0,1,,,,,,,,0,,,,65,64
89280,note_on,80,0,4,,,,,,,,2,,,,62,92
89280,note_on,80,0,11,,,,,,,,12,,,,62,92
89280,set_tempo,960,1,0,428571,,,,,,,,,,,,
89280,note_on,80,0,14,,,,,,,,15,,,,34,92
89280,note_on,80,0,2,,,,,,,,1,,,,62,92
89280,note_on,5,0,10,,,,,,,,11,,,,67,108
89280,note_on,80,0,5,,,,,,,,3,,,,62,92
89280,note_on,80,0,8,,,,,,,,5,,,,62,92
89280,note_on,80,0,13,,,,,,,,14,,,,46,92
89280,note_on,120,0,12,,,,,,,,13,,,,58,92
89280,note_on,5,0,1,,,,,,,,0,,,,67,108
89280,note_on,5,0,3,,,,,,,,2,,,,67,108
89280,note_on,120,0,6,,,,,,,,3,,,,58,92
89280,note_on,120,0,9,,,,,,,,5,,,,58,92
89280,note_on,80,0,7,,,,,,,,4,,,,46,92
89680,note_off,400,0,7,,,,,,,,4,,,,46,64
89760,note_off,480,0,14,,,,,,,,15,,,,34,64
89760,note_on,0,0,14,,,,,,,,15,,,,38,92
89760,note_off,480,0,5,,,,,,,,3,,,,62,64
89760,note_on,0,0,8,,,,,,,,5,,,,70,92
89760,note_on,0,0,1,,,,,,,,0,,,,77,108
89760,note_off,480,0,1,,,,,,,,0,,,,67,64
89760,note_off,480,0,8,,,,,,,,5,,,,62,64
89760,note_on,80,0,7,,,,,,,,4,,,,50,92
89760,note_off,480,0,10,,,,,,,,11,,,,67,64
89760,note_on,0,0,10,,,,,,,,11,,,,77,108
89760,note_off,480,0,11,,,,,,,,12,,,,62,64
89760,note_on,0,0,11,,,,,,,,12,,,,70,92
89760,note_on,0,0,4,,,,,,,,2,,,,70,92
89760,note_off,480,0,4,,,,,,,,2,,,,62,64
89760,note_off,480,0,2,,,,,,,,1,,,,62,64
89760,note_on,0,0,2,,,,,,,,1,,,,70,92
89760,note_on,0,0,5,,,,,,,,3,,,,70,92
89760,note_on,0,0,3,,,,,,,,2,,,,77,108
89760,note_off,480,0,3,,,,,,,,2,,,,67,64
89760,note_on,0,0,13,,,,,,,,14,,,,50,92
89760,note_off,480,0,13,,,,,,,,14,,,,46,64
90120,note_off,840,0,12,,,,,,,,13,,,,58,64
90120,note_off,840,0,9,,,,,,,,5,,,,58,64
90120,note_off,840,0,6,,,,,,,,3,,,,58,64
90160,note_off,400,0,7,,,,,,,,4,,,,50,64
90240,note_on,0,0,13,,,,,,,,14,,,,48,92
90240,note_off,480,0,10,,,,,,,,11,,,,77,64
90240,note_off,480,0,13,,,,,,,,14,,,,50,64
90240,note_on,0,0,8,,,,,,,,5,,,,72,92
90240,set_tempo,960,1,0,545454,,,,,,,,,,,,
90240,note_on,0,0,10,,,,,,,,11,,,,72,108
90240,note_on,120,0,6,,,,,,,,3,,,,57,92
90240,note_on,120,0,9,,,,,,,,5,,,,57,92
90240,note_off,480,0,8,,,,,,,,5,,,,70,64
90240,note_on,80,0,7,,,,,,,,4,,,,48,92
90240,note_off,480,0,5,,,,,,,,3,,,,70,64
90240,note_off,480,0,1,,,,,,,,0,,,,77,64
90240,note_off,480,0,14,,,,,,,,15,,,,38,64
90240,note_on,0,0,14,,,,,,,,15,,,,36,92
90240,note_off,480,0,11,,,,,,,,12,,,,70,64
90240,note_on,0,0,11,,,,,,,,12,,,,72,92
90240,note_off,480,0,2,,,,,,,,1,,,,70,64
90240,note_on,0,0,2,,,,,,,,1,,,,72,92
90240,note_on,0,0,4,,,,,,,,2,,,,72,92
90240,note_off,480,0,4,,,,,,,,2,,,,70,64
90240,note_off,480,0,3,,,,,,,,2,,,,77,64
90240,note_on,0,0,3,,,,,,,,2,,,,72,108
90240,note_on,120,0,12,,,,,,,,13,,,,57,92
90240,note_on,0,0,5,,,,,,,,3,,,,72,92
90240,note_on,0,0,1,,,,,,,,0,,,,72,108
90640,note_off,400,0,6,,,,,,,,3,,,,57,64
90720,note_off,480,0,3,,,,,,,,2,,,,72,64
90720,note_on,80,0,6,,,,,,,,3,,,,55,92
90720,note_on,0,0,1,,,,,,,,0,,,,76,108
90720,note_on,0,0,5,,,,,,,,3,,,,70,92
90720,note_on,0,0,3,,,,,,,,2,,,,76,108
90720,note_off,480,0,5,,,,,,,,3,,,,72,64
90720,note_off,480,0,7,,,,,,,,4,,,,48,64
90720,note_on,0,0,4,,,,,,,,2,,,,70,92
90720,note_off,480,0,4,,,,,,,,2,,,,72,64
90720,note_off,480,0,1,,,,,,,,0,,,,72,64
90720,note_on,0,0,7,,,,,,,,4,,,,36,92
90720,note_off,480,0,2,,,,,,,,1,,,,72,64
90720,note_off,480,0,9,,,,,,,,5,,,,57,64
90720,note_on,0,0,11,,,,,,,,12,,,,70,92
90720,note_on,0,0,12,,,,,,,,13,,,,55,92
90720,note_off,480,0,13,,,,,,,,14,,,,48,64
90720,note_on,0,0,13,,,,,,,,14,,,,36,92
90720,note_on,0,0,9,,,,,,,,5,,,,55,92
90720,note_on,0,0,10,,,,,,,,11,,,,76,108
90720,note_off,480,0,10,,,,,,,,11,,,,72,64
90720,note_off,480,0,12,,,,,,,,13,,,,57,64
90720,note_on,0,0,14,,,,,,,,15,,,,36,92
90720,note_off,480,0,14,,,,,,,,15,,,,36,64
90720,note_off,480,0,11,,,,,,,,12,,,,72,64
90720,note_on,0,0,8,,,,,,,,5,,,,70,92
90720,note_off,480,0,8,,,,,,,,5,,,,72,64
90720,note_on,0,0,2,,,,,,,,1,,,,70,92
90720,set_tempo,480,1,0,666666,,,,,,,,,,,,
91120,note_off,400,0,6,,,,,,,,3,,,,55,64
91200,note_on,0,0,7,,,,,,,,4,,,,41,92
91200,note_on,0,0,3,,,,,,,,2,,,,77,108
91200,note_off,480,0,3,,,,,,,,2,,,,76,64
91200,note_off,480,0,14,,,,,,,,15,,,,36,64
91200,note_on,0,0,12,,,,,,,,13,,,,53,92
91200,note_on,0,0,14,,,,,,,,15,,,,41,92
91200,note_off,480,0,13,,,,,,,,14,,,,36,64
91200,note_on,0,0,13,,,,,,,,14,,,,41,92
91200,note_on,0,0,2,,,,,,,,1,,,,69,92
91200,note_off,480,0,2,,,,,,,,1,,,,70,64
91200,note_off,480,0,12,,,,,,,,13,,,,55,64
91200,note_on,0,0,11,,,,,,,,12,,,,69,92
91200,note_on,80,0,6,,,,,,,,3,,,,53,92
91200,note_off,480,0,4,,,,,,,,2,,,,70,64
91200,note_off,480,0,8,,,,,,,,5,,,,70,64
91200,note_on,0,0,8,,,,,,,,5,,,,69,92
91200,end_of_track,0,1,0,,,,,,,,,,,,,
91200,set_tempo,480,1,0,857142,,,,,,,,,,,,
91200,note_off,480,0,9,,,,,,,,5,,,,55,64
91200,note_on,0,0,9,,,,,,,,5,,,,53,92
91200,note_off,480,0,1,,,,,,,,0,,,,76,64
91200,note_on,0,0,5,,,,,,,,3,,,,69,92
91200,note_off,480,0,5,,,,,,,,3,,,,70,64
91200,note_off,480,0,10,,,,,,,,11,,,,76,64
91200,note_on,0,0,10,,,,,,,,11,,,,77,108
91200,note_on,0,0,1,,,,,,,,0,,,,77,108
91200,note_off,480,0,7,,,,,,,,4,,,,36,64
91200,note_on,0,0,4,,,,,,,,2,,,,69,92
91200,note_off,480,0,11,,,,,,,,12,,,,70,64
92040,note_off,840,0,1,,,,,,,,0,,,,77,64
92040,end_of_track,0,1,1,,,,,,,,,,,,,
92040,note_off,840,0,13,,,,,,,,14,,,,41,64
92040,end_of_track,0,1,2,,,,,,,,,,,,,
92040,end_of_track,0,1,12,,,,,,,,,,,,,
92040,note_off,840,0,12,,,,,,,,13,,,,53,64
92040,end_of_track,0,1,11,,,,,,,,,,,,,
92040,note_off,840,0,11,,,,,,,,12,,,,69,64
92040,end_of_track,0,1,10,,,,,,,,,,,,,
92040,note_off,840,0,10,,,,,,,,11,,,,77,64
92040,end_of_track,0,1,9,,,,,,,,,,,,,
92040,note_off,840,0,9,,,,,,,,5,,,,53,64
92040,end_of_track,0,1,8,,,,,,,,,,,,,
92040,note_off,840,0,8,,,,,,,,5,,,,69,64
92040,note_off,840,0,2,,,,,,,,1,,,,69,64
92040,end_of_track,0,1,7,,,,,,,,,,,,,
92040,end_of_track,0,1,6,,,,,,,,,,,,,
92040,note_off,840,0,6,,,,,,,,3,,,,53,64
92040,end_of_track,0,1,13,,,,,,,,,,,,,
92040,end_of_track,0,1,5,,,,,,,,,,,,,
92040,note_off,840,0,5,,,,,,,,3,,,,69,64
92040,note_off,840,0,14,,,,,,,,15,,,,41,64
92040,end_of_track,0,1,4,,,,,,,,,,,,,
92040,note_off,840,0,4,,,,,,,,2,,,,69,64
92040,end_of_track,0,1,3,,,,,,,,,,,,,
92040,note_off,840,0,3,,,,,,,,2,,,,77,64
92040,note_off,840,0,7,,,,,,,,4,,,,41,64
92040,end_of_track,0,1,14,,,,,,,,,,,,,
