tick,type,time,meta,track,tempo,numerator,denominator,clocks_per_click,notated_32nd_notes_per_beat,key,port,channel,control,value,program,note,velocity
0,text,0,1,0,,,,,,,,,,,,,
0,midi_port,0,1,2,,,,,,,0,,,,,,
0,channel_prefix,0,1,2,,,,,,,,1,,,,,
0,control_change,0,0,2,,,,,,,,1,7,107,,,
0,control_change,0,0,2,,,,,,,,1,10,44,,,
0,control_change,0,0,2,,,,,,,,1,91,49,,,
0,program_change,0,0,2,,,,,,,,1,,,73,,
0,note_on,0,0,10,,,,,,,,11,,,,72,60
0,midi_port,0,1,11,,,,,,,0,,,,,,
0,program_change,0,0,10,,,,,,,,11,,,48,,
0,control_change,0,0,10,,,,,,,,11,10,45,,,
0,control_change,0,0,10,,,,,,,,11,7,127,,,
0,channel_prefix,0,1,10,,,,,,,,11,,,,,
0,midi_port,0,1,10,,,,,,,0,,,,,,
0,program_change,0,0,9,,,,,,,,5,,,60,,
0,control_change,0,0,9,,,,,,,,5,91,48,,,
0,control_change,0,0,9,,,,,,,,5,10,35,,,
0,control_change,0,0,10,,,,,,,,11,91,124,,,
0,control_change,0,0,9,,,,,,,,5,7,109,,,
0,channel_prefix,0,1,11,,,,,,,,12,,,,,
0,control_change,0,0,11,,,,,,,,12,10,15,,,
0,control_change,0,0,13,,,,,,,,14,91,124,,,
0,control_change,0,0,13,,,,,,,,14,10,100,,,
0,control_change,0,0,13,,,,,,,,14,7,119,,,
0,channel_prefix,0,1,13,,,,,,,,14,,,,,
0,midi_port,0,1,13,,,,,,,0,,,,,,
0,note_on,0,0,12,,,,,,,,13,,,,65,45
0,program_change,0,0,12,,,,,,,,13,,,48,,
0,control_change,0,0,11,,,,,,,,12,7,120,,,
0,control_change,0,0,12,,,,,,,,13,91,127,,,
0,control_change,0,0,12,,,,,,,,13,7,120,,,
0,channel_prefix,0,1,12,,,,,,,,13,,,,,
0,midi_port,0,1,12,,,,,,,0,,,,,,
0,midi_port,0,1,3,,,,,,,0,,,,,,
0,note_on,0,0,11,,,,,,,,12,,,,69,45
0,program_change,0,0,11,,,,,,,,12,,,48,,
0,control_change,0,0,11,,,,,,,,12,91,127,,,
0,control_change,0,0,12,,,,,,,,13,10,75,,,
0,program_change,0,0,13,,,,,,,,14,,,48,,
0,channel_prefix,0,1,9,,,,,,,,5,,,,,
0,program_change,0,0,8,,,,,,,,5,,,60,,
0,control_change,0,0,5,,,,,,,,3,10,48,,,
0,control_change,0,0,5,,,,,,,,3,7,107,,,
0,channel_prefix,0,1,5,,,,,,,,3,,,,,
0,midi_port,0,1,5,,,,,,,0,,,,,,
0,track_name,0,1,5,,,,,,,,,,,,,
0,program_change,0,0,4,,,,,,,,2,,,68,,
0,control_change,0,0,4,,,,,,,,2,91,45,,,
0,control_change,0,0,5,,,,,,,,3,91,47,,,
0,control_change,0,0,4,,,,,,,,2,10,80,,,
0,channel_prefix,0,1,4,,,,,,,,2,,,,,
0,midi_port,0,1,4,,,,,,,0,,,,,,
0,program_change,0,0,3,,,,,,,,2,,,68,,
0,control_change,0,0,3,,,,,,,,2,91,45,,,
0,control_change,0,0,3,,,,,,,,2,10,80,,,
0,control_change,0,0,3,,,,,,,,2,7,109,,,
0,channel_prefix,0,1,3,,,,,,,,2,,,,,
0,control_change,0,0,4,,,,,,,,2,7,109,,,
0,midi_port,0,1,9,,,,,,,0,,,,,,
0,program_change,0,0,5,,,,,,,,3,,,71,,
0,midi_port,0,1,6,,,,,,,0,,,,,,
0,control_change,0,0,8,,,,,,,,5,91,48,,,
0,control_change,0,0,8,,,,,,,,5,10,35,,,
0,control_change,0,0,8,,,,,,,,5,7,109,,,
0,channel_prefix,0,1,8,,,,,,,,5,,,,,
0,midi_port,0,1,8,,,,,,,0,,,,,,
0,program_change,0,0,7,,,,,,,,4,,,70,,
0,control_change,0,0,7,,,,,,,,4,91,51,,,
0,track_name,0,1,6,,,,,,,,,,,,,
0,control_change,0,0,7,,,,,,,,4,10,70,,,
0,channel_prefix,0,1,7,,,,,,,,4,,,,,
0,midi_port,0,1,7,,,,,,,0,,,,,,
0,program_change,0,0,6,,,,,,,,3,,,71,,
0,control_change,0,0,6,,,,,,,,3,91,47,,,
0,control_change,0,0,6,,,,,,,,3,10,48,,,
0,control_change,0,0,6,,,,,,,,3,7,107,,,
0,channel_prefix,0,1,6,,,,,,,,3,,,,,
0,control_change,0,0,7,,,,,,,,4,7,107,,,
0,note_on,0,0,13,,,,,,,,14,,,,53,45
0,track_name,0,1,3,,,,,,,,,,,,,
0,channel_prefix,0,1,1,,,,,,,,0,,,,,
0,track_name,0,1,0,,,,,,,,,,,,,
0,copyright,0,1,0,,,,,,,,,,,,,
0,set_tempo,0,1,0,260869,,,,,,,,,,,,
0,time_signature,0,1,0,,4,4,24,8,,,,,,,,
0,midi_port,0,1,14,,,,,,,0,,,,,,
0,channel_prefix,0,1,14,,,,,,,,15,,,,,
0,control_change,0,0,14,,,,,,,,15,7,119,,,
0,control_change,0,0,14,,,,,,,,15,91,124,,,
0,control_change,0,0,14,,,,,,,,15,10,120,,,
0,note_on,0,0,14,,,,,,,,15,,,,41,45
0,key_signature,0,1,0,,,,,,F,,,,,,,
0,track_name,0,1,1,,,,,,,,,,,,,
0,midi_port,0,1,1,,,,,,,0,,,,,,
0,control_change,0,0,1,,,,,,,,0,7,107,,,
0,control_change,0,0,1,,,,,,,,0,10,50,,,
0,control_change,0,0,1,,,,,,,,0,91,51,,,
0,program_change,0,0,14,,,,,,,,15,,,48,,
0,program_change,0,0,1,,,,,,,,0,,,73,,
120,note_off,120,0,10,,,,,,,,11,,,,72,64
120,note_off,120,0,13,,,,,,,,14,,,,53,64
120,note_off,120,0,12,,,,,,,,13,,,,65,64
120,note_off,120,0,11,,,,,,,,12,,,,69,64
120,note_off,120,0,14,,,,,,,,15,,,,41,64
480,note_on,360,0,14,,,,,,,,15,,,,29,45
480,note_on,360,0,12,,,,,,,,13,,,,60,45
480,note_on,360,0,11,,,,,,,,12,,,,65,45
480,note_on,360,0,10,,,,,,,,11,,,,69,60
480,note_on,360,0,13,,,,,,,,14,,,,41,45
600,note_off,120,0,11,,,,,,,,12,,,,65,64
600,note_off,120,0,13,,,,,,,,14,,,,41,64
600,note_off,120,0,14,,,,,,,,15,,,,29,64
600,note_off,120,0,10,,,,,,,,11,,,,69,64
600,note_off,120,0,12,,,,,,,,13,,,,60,64
960,note_on,360,0,11,,,,,,,,12,,,,65,45
960,note_on,360,0,12,,,,,,,,13,,,,58,45
960,note_on,360,0,14,,,,,,,,15,,,,34,45
960,note_on,360,0,10,,,,,,,,11,,,,74,60
960,note_on,360,0,13,,,,,,,,14,,,,46,45
1080,note_off,120,0,12,,,,,,,,13,,,,58,64
1080,note_off,120,0,10,,,,,,,,11,,,,74,64
1080,note_off,120,0,11,,,,,,,,12,,,,65,64
1080,note_off,120,0,14,,,,,,,,15,,,,34,64
1080,note_off,120,0,13,,,,,,,,14,,,,46,64
1440,note_on,360,0,12,,,,,,,,13,,,,60,45
1440,note_on,360,0,14,,,,,,,,15,,,,33,45
1440,note_on,360,0,10,,,,,,,,11,,,,72,60
1440,note_on,360,0,11,,,,,,,,12,,,,65,45
1440,note_on,360,0,13,,,,,,,,14,,,,45,45
1560,note_off,120,0,13,,,,,,,,14,,,,45,64
1560,note_off,120,0,12,,,,,,,,13,,,,60,64
1560,note_off,120,0,10,,,,,,,,11,,,,72,64
1560,note_off,120,0,14,,,,,,,,15,,,,33,64
1560,note_off,120,0,11,,,,,,,,12,,,,65,64
1920,note_on,360,0,12,,,,,,,,13,,,,60,45
1920,note_on,360,0,13,,,,,,,,14,,,,41,45
1920,note_on,360,0,14,,,,,,,,15,,,,29,45
1920,note_on,360,0,11,,,,,,,,12,,,,69,45
1920,note_on,360,0,10,,,,,,,,11,,,,77,60
2040,note_off,120,0,14,,,,,,,,15,,,,29,64
2040,note_off,120,0,10,,,,,,,,11,,,,77,64
2040,note_off,120,0,13,,,,,,,,14,,,,41,64
2040,note_off,120,0,11,,,,,,,,12,,,,69,64
2040,note_off,120,0,12,,,,,,,,13,,,,60,64
2400,note_on,360,0,14,,,,,,,,15,,,,36,45
2400,note_on,360,0,13,,,,,,,,14,,,,48,45
2400,note_on,360,0,10,,,,,,,,11,,,,76,60
2400,note_on,360,0,11,,,,,,,,12,,,,67,45
2400,note_on,360,0,12,,,,,,,,13,,,,60,45
2520,note_off,120,0,10,,,,,,,,11,,,,76,64
2520,note_off,120,0,11,,,,,,,,12,,,,67,64
2520,note_off,120,0,14,,,,,,,,15,,,,36,64
2520,note_off,120,0,13,,,,,,,,14,,,,48,64
2520,note_off,120,0,12,,,,,,,,13,,,,60,64
2880,note_on,360,0,12,,,,,,,,13,,,,60,45
2880,note_on,360,0,13,,,,,,,,14,,,,53,45
2880,note_on,360,0,10,,,,,,,,11,,,,81,60
2880,note_on,360,0,14,,,,,,,,15,,,,41,45
2880,note_on,360,0,11,,,,,,,,12,,,,65,45
3000,note_off,120,0,14,,,,,,,,15,,,,41,64
3000,note_off,120,0,13,,,,,,,,14,,,,53,64
3000,note_off,120,0,12,,,,,,,,13,,,,60,64
3000,note_off,120,0,10,,,,,,,,11,,,,81,64
3000,note_off,120,0,11,,,,,,,,12,,,,65,64
3360,note_on,360,0,12,,,,,,,,13,,,,60,45
3360,note_on,360,0,14,,,,,,,,15,,,,40,45
3360,note_on,360,0,10,,,,,,,,11,,,,79,60
3360,note_on,360,0,13,,,,,,,,14,,,,52,45
3360,note_on,360,0,11,,,,,,,,12,,,,72,45
3480,note_off,120,0,14,,,,,,,,15,,,,40,64
3480,note_off,120,0,13,,,,,,,,14,,,,52,64
3480,note_off,120,0,10,,,,,,,,11,,,,79,64
3480,note_off,120,0,12,,,,,,,,13,,,,60,64
3480,note_off,120,0,11,,,,,,,,12,,,,72,64
3840,note_on,360,0,10,,,,,,,,11,,,,70,60
3840,note_on,360,0,14,,,,,,,,15,,,,36,45
3840,note_on,360,0,13,,,,,,,,14,,,,48,45
3840,note_on,360,0,11,,,,,,,,12,,,,64,45
3840,note_on,360,0,12,,,,,,,,13,,,,60,45
3960,note_off,120,0,11,,,,,,,,12,,,,64,64
3960,note_off,120,0,13,,,,,,,,14,,,,48,64
3960,note_off,120,0,10,,,,,,,,11,,,,70,64
3960,note_off,120,0,14,,,,,,,,15,,,,36,64
3960,note_off,120,0,12,,,,,,,,13,,,,60,64
4320,note_on,360,0,10,,,,,,,,11,,,,69,60
4320,note_on,360,0,13,,,,,,,,14,,,,53,45
4320,note_on,360,0,14,,,,,,,,15,,,,41,45
4320,note_on,360,0,12,,,,,,,,13,,,,60,45
4320,note_on,360,0,11,,,,,,,,12,,,,65,45
4440,note_off,120,0,14,,,,,,,,15,,,,41,64
4440,note_off,120,0,13,,,,,,,,14,,,,53,64
4440,note_off,120,0,10,,,,,,,,11,,,,69,64
4440,note_off,120,0,12,,,,,,,,13,,,,60,64
4440,note_off,120,0,11,,,,,,,,12,,,,65,64
4800,note_on,360,0,10,,,,,,,,11,,,,77,60
4800,note_on,360,0,14,,,,,,,,15,,,,38,45
4800,note_on,360,0,13,,,,,,,,14,,,,50,45
4800,note_on,360,0,11,,,,,,,,12,,,,69,45
4800,note_on,360,0,12,,,,,,,,13,,,,62,45
4920,note_off,120,0,10,,,,,,,,11,,,,77,64
4920,note_off,120,0,14,,,,,,,,15,,,,38,64
4920,note_off,120,0,12,,,,,,,,13,,,,62,64
4920,note_off,120,0,11,,,,,,,,12,,,,69,64
4920,note_off,120,0,13,,,,,,,,14,,,,50,64
5280,note_on,360,0,14,,,,,,,,15,,,,34,45
5280,note_on,360,0,11,,,,,,,,12,,,,70,45
5280,note_on,360,0,10,,,,,,,,11,,,,79,60
5280,note_on,360,0,13,,,,,,,,14,,,,46,45
5280,note_on,360,0,12,,,,,,,,13,,,,62,45
5400,note_off,120,0,14,,,,,,,,15,,,,34,64
5400,note_off,120,0,13,,,,,,,,14,,,,46,64
5400,note_off,120,0,10,,,,,,,,11,,,,79,64
5400,note_on,0,0,10,,,,,,,,11,,,,81,60
5400,note_off,120,0,12,,,,,,,,13,,,,62,64
5400,note_off,120,0,11,,,,,,,,12,,,,70,64
5520,note_off,120,0,10,,,,,,,,11,,,,81,64
5520,note_on,0,0,10,,,,,,,,11,,,,79,60
5640,note_on,0,0,10,,,,,,,,11,,,,81,60
5640,note_off,120,0,10,,,,,,,,11,,,,79,64
5755,note_off,115,0,10,,,,,,,,11,,,,81,64
5760,note_on,360,0,13,,,,,,,,14,,,,48,45
5760,note_on,5,0,10,,,,,,,,11,,,,77,60
5760,note_on,360,0,14,,,,,,,,15,,,,36,45
5760,note_on,360,0,11,,,,,,,,12,,,,69,45
5760,note_on,360,0,12,,,,,,,,13,,,,60,45
5840,note_off,80,0,10,,,,,,,,11,,,,77,64
5840,note_off,80,0,11,,,,,,,,12,,,,69,64
5880,note_off,120,0,13,,,,,,,,14,,,,48,64
5880,note_off,120,0,12,,,,,,,,13,,,,60,64
5880,note_off,120,0,14,,,,,,,,15,,,,36,64
6000,note_on,160,0,10,,,,,,,,11,,,,76,60
6000,note_on,160,0,11,,,,,,,,12,,,,67,45
6080,note_off,80,0,11,,,,,,,,12,,,,67,64
6080,note_off,80,0,10,,,,,,,,11,,,,76,64
6240,note_on,360,0,12,,,,,,,,13,,,,60,45
6240,note_on,360,0,13,,,,,,,,14,,,,41,45
6240,note_on,160,0,10,,,,,,,,11,,,,77,60
6240,note_on,360,0,14,,,,,,,,15,,,,29,45
6240,note_on,160,0,11,,,,,,,,12,,,,69,45
6360,note_off,120,0,11,,,,,,,,12,,,,69,64
6360,note_off,120,0,10,,,,,,,,11,,,,77,64
6360,note_off,120,0,14,,,,,,,,15,,,,29,64
6360,note_off,120,0,13,,,,,,,,14,,,,41,64
6360,note_off,120,0,12,,,,,,,,13,,,,60,64
6720,note_on,360,0,10,,,,,,,,11,,,,72,60
6840,note_off,120,0,10,,,,,,,,11,,,,72,64
7200,note_on,360,0,10,,,,,,,,11,,,,65,60
7320,note_off,120,0,10,,,,,,,,11,,,,65,64
7680,note_on,1320,0,14,,,,,,,,15,,,,29,45
7680,note_on,1320,0,13,,,,,,,,14,,,,41,45
7680,note_on,1320,0,11,,,,,,,,12,,,,60,45
7680,note_on,360,0,10,,,,,,,,11,,,,67,60
7680,note_on,1320,0,12,,,,,,,,13,,,,57,45
7760,note_off,80,0,10,,,,,,,,11,,,,67,64
7800,note_off,120,0,12,,,,,,,,13,,,,57,64
7800,note_off,120,0,14,,,,,,,,15,,,,29,64
7800,note_off,120,0,13,,,,,,,,14,,,,41,64
7800,note_off,120,0,11,,,,,,,,12,,,,60,64
7920,note_on,160,0,10,,,,,,,,11,,,,65,60
8000,note_off,80,0,10,,,,,,,,11,,,,65,64
8160,note_on,360,0,14,,,,,,,,15,,,,36,45
8160,note_on,360,0,11,,,,,,,,12,,,,64,45
8160,note_on,360,0,12,,,,,,,,13,,,,55,45
8160,note_on,360,0,13,,,,,,,,14,,,,48,45
8160,note_on,160,0,10,,,,,,,,11,,,,64,60
8280,note_off,120,0,14,,,,,,,,15,,,,36,64
8280,note_off,120,0,10,,,,,,,,11,,,,64,64
8280,note_off,120,0,11,,,,,,,,12,,,,64,64
8280,note_off,120,0,12,,,,,,,,13,,,,55,64
8280,note_off,120,0,13,,,,,,,,14,,,,48,64
8640,note_on,360,0,11,,,,,,,,12,,,,65,45
8640,note_on,360,0,13,,,,,,,,14,,,,53,45
8640,note_on,360,0,12,,,,,,,,13,,,,53,45
8640,note_on,360,0,10,,,,,,,,11,,,,69,60
8640,note_on,360,0,14,,,,,,,,15,,,,41,45
8760,note_off,120,0,12,,,,,,,,13,,,,53,64
8760,note_off,120,0,14,,,,,,,,15,,,,41,64
8760,note_off,120,0,11,,,,,,,,12,,,,65,64
8760,note_off,120,0,10,,,,,,,,11,,,,69,64
8760,note_off,120,0,13,,,,,,,,14,,,,53,64
9120,note_on,360,0,10,,,,,,,,11,,,,67,60
9120,note_on,360,0,14,,,,,,,,15,,,,40,45
9120,note_on,360,0,11,,,,,,,,12,,,,67,45
9120,note_on,360,0,12,,,,,,,,13,,,,60,45
9120,note_on,360,0,13,,,,,,,,14,,,,52,45
9240,note_off,120,0,12,,,,,,,,13,,,,60,64
9240,note_off,120,0,14,,,,,,,,15,,,,40,64
9240,note_off,120,0,13,,,,,,,,14,,,,52,64
9240,note_off,120,0,10,,,,,,,,11,,,,67,64
9240,note_off,120,0,11,,,,,,,,12,,,,67,64
9600,note_on,360,0,10,,,,,,,,11,,,,72,60
9600,note_on,360,0,11,,,,,,,,12,,,,64,45
9600,note_on,360,0,14,,,,,,,,15,,,,36,45
9600,note_on,360,0,13,,,,,,,,14,,,,48,45
9600,note_on,360,0,12,,,,,,,,13,,,,67,45
9720,note_off,120,0,12,,,,,,,,13,,,,67,64
9720,note_off,120,0,13,,,,,,,,14,,,,48,64
9720,note_off,120,0,10,,,,,,,,11,,,,72,64
9720,note_off,120,0,14,,,,,,,,15,,,,36,64
9720,note_off,120,0,11,,,,,,,,12,,,,64,64
10080,note_on,360,0,14,,,,,,,,15,,,,43,45
10080,note_on,360,0,12,,,,,,,,13,,,,67,45
10080,note_on,360,0,13,,,,,,,,14,,,,55,45
10080,note_on,360,0,11,,,,,,,,12,,,,62,45
10080,note_on,360,0,10,,,,,,,,11,,,,71,60
10200,note_off,120,0,12,,,,,,,,13,,,,67,64
10200,note_off,120,0,10,,,,,,,,11,,,,71,64
10200,note_off,120,0,14,,,,,,,,15,,,,43,64
10200,note_off,120,0,13,,,,,,,,14,,,,55,64
10200,note_off,120,0,11,,,,,,,,12,,,,62,64
10560,note_on,360,0,10,,,,,,,,11,,,,76,60
10560,note_on,360,0,14,,,,,,,,15,,,,48,45
10560,note_on,360,0,11,,,,,,,,12,,,,72,45
10560,note_on,360,0,13,,,,,,,,14,,,,60,45
10560,note_on,360,0,12,,,,,,,,13,,,,67,45
10680,note_off,120,0,13,,,,,,,,14,,,,60,64
10680,note_off,120,0,11,,,,,,,,12,,,,72,64
10680,note_off,120,0,10,,,,,,,,11,,,,76,64
10680,note_off,120,0,12,,,,,,,,13,,,,67,64
10680,note_off,120,0,14,,,,,,,,15,,,,48,64
11040,note_on,360,0,12,,,,,,,,13,,,,67,45
11040,note_on,360,0,13,,,,,,,,14,,,,59,45
11040,note_on,360,0,11,,,,,,,,12,,,,67,45
11040,note_on,360,0,10,,,,,,,,11,,,,74,60
11040,note_on,360,0,14,,,,,,,,15,,,,47,45
11120,note_off,80,0,10,,,,,,,,11,,,,74,64
11160,note_off,120,0,13,,,,,,,,14,,,,59,64
11160,note_off,120,0,11,,,,,,,,12,,,,67,64
11160,note_off,120,0,12,,,,,,,,13,,,,67,64
11160,note_off,120,0,14,,,,,,,,15,,,,47,64
11280,note_on,160,0,10,,,,,,,,11,,,,76,60
11360,note_off,80,0,10,,,,,,,,11,,,,76,64
11520,note_on,360,0,14,,,,,,,,15,,,,43,45
11520,note_on,360,0,13,,,,,,,,14,,,,55,45
11520,note_on,360,0,12,,,,,,,,13,,,,59,45
11520,note_on,360,0,11,,,,,,,,12,,,,74,45
11520,note_on,160,0,10,,,,,,,,11,,,,77,60
11640,note_off,120,0,11,,,,,,,,12,,,,74,64
11640,note_off,120,0,10,,,,,,,,11,,,,77,64
11640,note_off,120,0,14,,,,,,,,15,,,,43,64
11640,note_off,120,0,13,,,,,,,,14,,,,55,64
11640,note_off,120,0,12,,,,,,,,13,,,,59,64
12000,note_on,360,0,11,,,,,,,,12,,,,72,45
12000,note_on,360,0,12,,,,,,,,13,,,,67,45
12000,note_on,360,0,14,,,,,,,,15,,,,48,45
12000,note_on,360,0,10,,,,,,,,11,,,,76,60
12000,note_on,360,0,13,,,,,,,,14,,,,60,45
12080,note_off,80,0,10,,,,,,,,11,,,,76,64
12120,note_off,120,0,12,,,,,,,,13,,,,67,64
12120,note_off,120,0,13,,,,,,,,14,,,,60,64
12120,note_off,120,0,14,,,,,,,,15,,,,48,64
12120,note_off,120,0,11,,,,,,,,12,,,,72,64
12240,note_on,160,0,10,,,,,,,,11,,,,77,63
12320,note_off,80,0,10,,,,,,,,11,,,,77,64
12480,note_on,360,0,12,,,,,,,,13,,,,67,51
12480,note_on,360,0,14,,,,,,,,15,,,,40,51
12480,note_on,160,0,10,,,,,,,,11,,,,79,66
12480,note_on,360,0,13,,,,,,,,14,,,,52,51
12480,note_on,360,0,11,,,,,,,,12,,,,72,51
12600,note_off,120,0,10,,,,,,,,11,,,,79,64
12600,note_off,120,0,13,,,,,,,,14,,,,52,64
12600,note_off,120,0,14,,,,,,,,15,,,,40,64
12600,note_off,120,0,11,,,,,,,,12,,,,72,64
12600,note_off,120,0,12,,,,,,,,13,,,,67,64
12960,note_on,360,0,12,,,,,,,,13,,,,64,57
12960,note_on,360,0,10,,,,,,,,11,,,,67,73
12960,note_on,360,0,14,,,,,,,,15,,,,43,57
12960,note_on,360,0,11,,,,,,,,12,,,,67,57
12960,note_on,360,0,13,,,,,,,,14,,,,55,57
13080,note_off,120,0,10,,,,,,,,11,,,,67,64
13080,note_off,120,0,11,,,,,,,,12,,,,67,64
13080,note_off,120,0,14,,,,,,,,15,,,,43,64
13080,note_off,120,0,12,,,,,,,,13,,,,64,64
13080,note_off,120,0,13,,,,,,,,14,,,,55,64
13440,note_on,360,0,13,,,,,,,,14,,,,43,64
13440,note_on,360,0,12,,,,,,,,13,,,,62,64
13440,note_on,360,0,10,,,,,,,,11,,,,71,80
13440,note_on,360,0,14,,,,,,,,15,,,,31,64
13440,note_on,360,0,11,,,,,,,,12,,,,65,64
13520,note_off,80,0,10,,,,,,,,11,,,,71,64
13560,note_off,120,0,12,,,,,,,,13,,,,62,64
13560,note_off,120,0,11,,,,,,,,12,,,,65,64
13560,note_off,120,0,14,,,,,,,,15,,,,31,64
13560,note_off,120,0,13,,,,,,,,14,,,,43,64
13680,note_on,160,0,10,,,,,,,,11,,,,72,83
13760,note_off,80,0,10,,,,,,,,11,,,,72,64
13920,note_on,360,0,14,,,,,,,,15,,,,36,71
13920,note_on,160,0,10,,,,,,,,11,,,,72,86
13920,note_on,360,0,12,,,,,,,,13,,,,60,71
13920,note_on,360,0,13,,,,,,,,14,,,,48,71
13920,note_on,360,0,11,,,,,,,,12,,,,64,71
14040,note_off,120,0,14,,,,,,,,15,,,,36,64
14040,note_off,120,0,11,,,,,,,,12,,,,64,64
14040,note_off,120,0,13,,,,,,,,14,,,,48,64
14280,note_off,360,0,10,,,,,,,,11,,,,72,64
14400,note_on,360,0,14,,,,,,,,15,,,,38,78
14400,note_on,360,0,11,,,,,,,,12,,,,65,78
14400,note_on,360,0,13,,,,,,,,14,,,,50,78
14520,note_off,120,0,14,,,,,,,,15,,,,38,64
14520,note_off,120,0,11,,,,,,,,12,,,,65,64
14520,note_off,120,0,13,,,,,,,,14,,,,50,64
14880,note_on,360,0,13,,,,,,,,14,,,,52,85
14880,note_on,360,0,14,,,,,,,,15,,,,40,85
14880,note_on,360,0,11,,,,,,,,12,,,,67,85
15000,note_off,120,0,11,,,,,,,,12,,,,67,64
15000,note_off,120,0,14,,,,,,,,15,,,,40,64
15000,note_off,120,0,13,,,,,,,,14,,,,52,64
15240,note_off,1320,0,12,,,,,,,,13,,,,60,64
15360,note_on,360,0,11,,,,,,,,12,,,,69,92
15360,note_on,15360,0,3,,,,,,,,2,,,,72,92
15360,note_on,15360,0,7,,,,,,,,4,,,,53,92
15360,note_on,15360,0,6,,,,,,,,3,,,,65,92
15360,note_on,15360,0,9,,,,,,,,5,,,,65,92
15360,note_on,360,0,13,,,,,,,,14,,,,53,92
15360,note_on,15360,0,2,,,,,,,,1,,,,69,92
15360,note_on,15360,0,5,,,,,,,,3,,,,69,92
15360,note_on,1080,0,10,,,,,,,,11,,,,72,108
15360,note_on,15360,0,4,,,,,,,,2,,,,69,92
15360,note_on,120,0,12,,,,,,,,13,,,,65,92
15360,note_on,15360,0,8,,,,,,,,5,,,,69,92
15360,note_on,360,0,14,,,,,,,,15,,,,41,92
15360,note_on,15360,0,1,,,,,,,,0,,,,72,92
15480,note_off,120,0,5,,,,,,,,3,,,,69,64
15480,note_off,120,0,9,,,,,,,,5,,,,65,64
15480,note_off,120,0,12,,,,,,,,13,,,,65,64
15480,note_off,120,0,8,,,,,,,,5,,,,69,64
15480,note_off,120,0,3,,,,,,,,2,,,,72,64
15480,note_off,120,0,2,,,,,,,,1,,,,69,64
15480,note_off,120,0,11,,,,,,,,12,,,,69,64
15480,note_off,120,0,10,,,,,,,,11,,,,72,64
15480,note_off,120,0,14,,,,,,,,15,,,,41,64
15480,note_off,120,0,13,,,,,,,,14,,,,53,64
15480,note_off,120,0,4,,,,,,,,2,,,,69,64
15480,note_off,120,0,7,,,,,,,,4,,,,53,64
15480,note_off,120,0,6,,,,,,,,3,,,,65,64
15480,note_off,120,0,1,,,,,,,,0,,,,72,64
15840,note_on,360,0,10,,,,,,,,11,,,,69,108
15840,note_on,360,0,2,,,,,,,,1,,,,65,92
15840,note_on,360,0,11,,,,,,,,12,,,,65,92
15840,note_on,360,0,8,,,,,,,,5,,,,65,92
15840,note_on,360,0,1,,,,,,,,0,,,,69,92
15840,note_on,360,0,9,,,,,,,,5,,,,60,92
15840,note_on,360,0,12,,,,,,,,13,,,,60,92
15840,note_on,360,0,4,,,,,,,,2,,,,65,92
15840,note_on,360,0,7,,,,,,,,4,,,,41,92
15840,note_on,360,0,13,,,,,,,,14,,,,41,92
15840,note_on,360,0,6,,,,,,,,3,,,,60,92
15840,note_on,360,0,3,,,,,,,,2,,,,69,92
15840,note_on,360,0,14,,,,,,,,15,,,,29,92
15840,note_on,360,0,5,,,,,,,,3,,,,65,92
15960,note_off,120,0,14,,,,,,,,15,,,,29,64
15960,note_off,120,0,7,,,,,,,,4,,,,41,64
15960,note_off,120,0,2,,,,,,,,1,,,,65,64
15960,note_off,120,0,11,,,,,,,,12,,,,65,64
15960,note_off,120,0,3,,,,,,,,2,,,,69,64
15960,note_off,120,0,1,,,,,,,,0,,,,69,64
15960,note_off,120,0,9,,,,,,,,5,,,,60,64
15960,note_off,120,0,8,,,,,,,,5,,,,65,64
15960,note_off,120,0,12,,,,,,,,13,,,,60,64
15960,note_off,120,0,4,,,,,,,,2,,,,65,64
15960,note_off,120,0,10,,,,,,,,11,,,,69,64
15960,note_off,120,0,5,,,,,,,,3,,,,65,64
15960,note_off,120,0,6,,,,,,,,3,,,,60,64
15960,note_off,120,0,13,,,,,,,,14,,,,41,64
16320,note_on,360,0,4,,,,,,,,2,,,,65,92
16320,note_on,360,0,14,,,,,,,,15,,,,34,92
16320,note_on,360,0,2,,,,,,,,1,,,,65,92
16320,note_on,360,0,5,,,,,,,,3,,,,65,92
16320,note_on,360,0,11,,,,,,,,12,,,,65,92
16320,note_on,360,0,8,,,,,,,,5,,,,65,92
16320,note_on,360,0,7,,,,,,,,4,,,,46,92
16320,note_on,360,0,13,,,,,,,,14,,,,46,92
16320,note_on,360,0,12,,,,,,,,13,,,,58,92
16320,note_on,360,0,3,,,,,,,,2,,,,74,92
16320,note_on,360,0,1,,,,,,,,0,,,,74,92
16320,note_on,360,0,10,,,,,,,,11,,,,74,108
16320,note_on,360,0,9,,,,,,,,5,,,,58,92
16320,note_on,360,0,6,,,,,,,,3,,,,58,92
16440,note_off,120,0,10,,,,,,,,11,,,,74,64
16440,note_off,120,0,5,,,,,,,,3,,,,65,64
16440,note_off,120,0,1,,,,,,,,0,,,,74,64
16440,note_off,120,0,13,,,,,,,,14,,,,46,64
16440,note_off,120,0,11,,,,,,,,12,,,,65,64
16440,note_off,120,0,7,,,,,,,,4,,,,46,64
16440,note_off,120,0,8,,,,,,,,5,,,,65,64
16440,note_off,120,0,4,,,,,,,,2,,,,65,64
16440,note_off,120,0,3,,,,,,,,2,,,,74,64
16440,note_off,120,0,14,,,,,,,,15,,,,34,64
16440,note_off,120,0,6,,,,,,,,3,,,,58,64
16440,note_off,120,0,12,,,,,,,,13,,,,58,64
16440,note_off,120,0,9,,,,,,,,5,,,,58,64
16440,note_off,120,0,2,,,,,,,,1,,,,65,64
16800,note_on,360,0,2,,,,,,,,1,,,,65,92
16800,note_on,360,0,10,,,,,,,,11,,,,72,108
16800,note_on,360,0,7,,,,,,,,4,,,,45,92
16800,note_on,360,0,14,,,,,,,,15,,,,33,92
16800,note_on,360,0,5,,,,,,,,3,,,,65,92
16800,note_on,360,0,12,,,,,,,,13,,,,60,92
16800,note_on,360,0,11,,,,,,,,12,,,,65,92
16800,note_on,360,0,3,,,,,,,,2,,,,72,92
16800,note_on,360,0,13,,,,,,,,14,,,,45,92
16800,note_on,360,0,1,,,,,,,,0,,,,72,92
16800,note_on,360,0,6,,,,,,,,3,,,,60,92
16800,note_on,360,0,4,,,,,,,,2,,,,65,92
16800,note_on,360,0,8,,,,,,,,5,,,,65,92
16800,note_on,360,0,9,,,,,,,,5,,,,60,92
16920,note_off,120,0,4,,,,,,,,2,,,,65,64
16920,note_off,120,0,1,,,,,,,,0,,,,72,64
16920,note_off,120,0,14,,,,,,,,15,,,,33,64
16920,note_off,120,0,12,,,,,,,,13,,,,60,64
16920,note_off,120,0,2,,,,,,,,1,,,,65,64
16920,note_off,120,0,10,,,,,,,,11,,,,72,64
16920,note_off,120,0,9,,,,,,,,5,,,,60,64
16920,note_off,120,0,11,,,,,,,,12,,,,65,64
16920,note_off,120,0,6,,,,,,,,3,,,,60,64
16920,note_off,120,0,7,,,,,,,,4,,,,45,64
16920,note_off,120,0,8,,,,,,,,5,,,,65,64
16920,note_off,120,0,3,,,,,,,,2,,,,72,64
16920,note_off,120,0,13,,,,,,,,14,,,,45,64
16920,note_off,120,0,5,,,,,,,,3,,,,65,64
17280,note_on,360,0,10,,,,,,,,11,,,,77,108
17280,note_on,360,0,8,,,,,,,,5,,,,69,92
17280,note_on,360,0,2,,,,,,,,1,,,,69,92
17280,note_on,360,0,13,,,,,,,,14,,,,41,92
17280,note_on,360,0,6,,,,,,,,3,,,,60,92
17280,note_on,360,0,12,,,,,,,,13,,,,60,92
17280,note_on,360,0,5,,,,,,,,3,,,,69,92
17280,note_on,360,0,9,,,,,,,,5,,,,60,92
17280,note_on,360,0,1,,,,,,,,0,,,,77,92
17280,note_on,360,0,14,,,,,,,,15,,,,29,92
17280,note_on,360,0,3,,,,,,,,2,,,,77,92
17280,note_on,360,0,7,,,,,,,,4,,,,41,92
17280,note_on,360,0,11,,,,,,,,12,,,,69,92
17280,note_on,360,0,4,,,,,,,,2,,,,69,92
17400,note_off,120,0,8,,,,,,,,5,,,,69,64
17400,note_off,120,0,1,,,,,,,,0,,,,77,64
17400,note_off,120,0,14,,,,,,,,15,,,,29,64
17400,note_off,120,0,12,,,,,,,,13,,,,60,64
17400,note_off,120,0,13,,,,,,,,14,,,,41,64
17400,note_off,120,0,3,,,,,,,,2,,,,77,64
17400,note_off,120,0,2,,,,,,,,1,,,,69,64
17400,note_off,120,0,7,,,,,,,,4,,,,41,64
17400,note_off,120,0,9,,,,,,,,5,,,,60,64
17400,note_off,120,0,6,,,,,,,,3,,,,60,64
17400,note_off,120,0,4,,,,,,,,2,,,,69,64
17400,note_off,120,0,11,,,,,,,,12,,,,69,64
17400,note_off,120,0,10,,,,,,,,11,,,,77,64
17400,note_off,120,0,5,,,,,,,,3,,,,69,64
17760,note_on,360,0,1,,,,,,,,0,,,,76,92
17760,note_on,360,0,2,,,,,,,,1,,,,67,92
17760,note_on,360,0,7,,,,,,,,4,,,,48,92
17760,note_on,360,0,12,,,,,,,,13,,,,60,92
17760,note_on,360,0,6,,,,,,,,3,,,,60,92
17760,note_on,360,0,4,,,,,,,,2,,,,67,92
17760,note_on,360,0,9,,,,,,,,5,,,,60,92
17760,note_on,360,0,14,,,,,,,,15,,,,36,92
17760,note_on,360,0,10,,,,,,,,11,,,,76,108
17760,note_on,360,0,5,,,,,,,,3,,,,67,92
17760,note_on,360,0,3,,,,,,,,2,,,,76,92
17760,note_on,360,0,13,,,,,,,,14,,,,48,92
17760,note_on,360,0,11,,,,,,,,12,,,,67,92
17760,note_on,360,0,8,,,,,,,,5,,,,67,92
17880,note_off,120,0,13,,,,,,,,14,,,,48,64
17880,note_off,120,0,7,,,,,,,,4,,,,48,64
17880,note_off,120,0,6,,,,,,,,3,,,,60,64
17880,note_off,120,0,1,,,,,,,,0,,,,76,64
17880,note_off,120,0,14,,,,,,,,15,,,,36,64
17880,note_off,120,0,10,,,,,,,,11,,,,76,64
17880,note_off,120,0,3,,,,,,,,2,,,,76,64
17880,note_off,120,0,11,,,,,,,,12,,,,67,64
17880,note_off,120,0,9,,,,,,,,5,,,,60,64
17880,note_off,120,0,5,,,,,,,,3,,,,67,64
17880,note_off,120,0,12,,,,,,,,13,,,,60,64
17880,note_off,120,0,8,,,,,,,,5,,,,67,64
17880,note_off,120,0,4,,,,,,,,2,,,,67,64
17880,note_off,120,0,2,,,,,,,,1,,,,67,64
18240,note_on,360,0,12,,,,,,,,13,,,,60,92
18240,note_on,360,0,10,,,,,,,,11,,,,81,108
18240,note_on,360,0,3,,,,,,,,2,,,,81,92
18240,note_on,360,0,8,,,,,,,,5,,,,65,92
18240,note_on,360,0,14,,,,,,,,15,,,,41,92
18240,note_on,360,0,4,,,,,,,,2,,,,65,92
18240,note_on,360,0,6,,,,,,,,3,,,,60,92
18240,note_on,360,0,2,,,,,,,,1,,,,65,92
18240,note_on,360,0,1,,,,,,,,0,,,,81,92
18240,note_on,360,0,9,,,,,,,,5,,,,60,92
18240,note_on,360,0,11,,,,,,,,12,,,,65,92
18240,note_on,360,0,13,,,,,,,,14,,,,53,92
18240,note_on,360,0,7,,,,,,,,4,,,,60,92
18240,note_on,360,0,5,,,,,,,,3,,,,65,92
18360,note_off,120,0,3,,,,,,,,2,,,,81,64
18360,note_off,120,0,14,,,,,,,,15,,,,41,64
18360,note_off,120,0,12,,,,,,,,13,,,,60,64
18360,note_off,120,0,5,,,,,,,,3,,,,65,64
18360,note_off,120,0,13,,,,,,,,14,,,,53,64
18360,note_off,120,0,4,,,,,,,,2,,,,65,64
18360,note_off,120,0,8,,,,,,,,5,,,,65,64
18360,note_off,120,0,6,,,,,,,,3,,,,60,64
18360,note_off,120,0,7,,,,,,,,4,,,,60,64
18360,note_off,120,0,1,,,,,,,,0,,,,81,64
18360,note_off,120,0,10,,,,,,,,11,,,,81,64
18360,note_off,120,0,9,,,,,,,,5,,,,60,64
18360,note_off,120,0,2,,,,,,,,1,,,,65,64
18360,note_off,120,0,11,,,,,,,,12,,,,65,64
18720,note_on,360,0,1,,,,,,,,0,,,,79,92
18720,note_on,360,0,10,,,,,,,,11,,,,79,108
18720,note_on,360,0,5,,,,,,,,3,,,,72,92
18720,note_on,360,0,11,,,,,,,,12,,,,72,92
18720,note_on,360,0,14,,,,,,,,15,,,,40,92
18720,note_on,360,0,12,,,,,,,,13,,,,60,92
18720,note_on,360,0,8,,,,,,,,5,,,,72,92
18720,note_on,360,0,4,,,,,,,,2,,,,72,92
18720,note_on,360,0,3,,,,,,,,2,,,,79,92
18720,note_on,360,0,2,,,,,,,,1,,,,72,92
18720,note_on,360,0,6,,,,,,,,3,,,,60,92
18720,note_on,360,0,9,,,,,,,,5,,,,60,92
18720,note_on,360,0,7,,,,,,,,4,,,,58,92
18720,note_on,360,0,13,,,,,,,,14,,,,52,92
18840,note_off,120,0,4,,,,,,,,2,,,,72,64
18840,note_off,120,0,11,,,,,,,,12,,,,72,64
18840,note_off,120,0,10,,,,,,,,11,,,,79,64
18840,note_off,120,0,9,,,,,,,,5,,,,60,64
18840,note_off,120,0,8,,,,,,,,5,,,,72,64
18840,note_off,120,0,7,,,,,,,,4,,,,58,64
18840,note_off,120,0,13,,,,,,,,14,,,,52,64
18840,note_off,120,0,2,,,,,,,,1,,,,72,64
18840,note_off,120,0,5,,,,,,,,3,,,,72,64
18840,note_off,120,0,6,,,,,,,,3,,,,60,64
18840,note_off,120,0,14,,,,,,,,15,,,,40,64
18840,note_off,120,0,1,,,,,,,,0,,,,79,64
18840,note_off,120,0,3,,,,,,,,2,,,,79,64
18840,note_off,120,0,12,,,,,,,,13,,,,60,64
19200,note_on,360,0,13,,,,,,,,14,,,,48,92
19200,note_on,360,0,6,,,,,,,,3,,,,60,92
19200,note_on,360,0,11,,,,,,,,12,,,,64,92
19200,note_on,360,0,4,,,,,,,,2,,,,64,92
19200,note_on,360,0,12,,,,,,,,13,,,,60,92
19200,note_on,360,0,1,,,,,,,,0,,,,70,92
19200,note_on,360,0,7,,,,,,,,4,,,,50,92
19200,note_on,360,0,14,,,,,,,,15,,,,36,92
19200,note_on,360,0,2,,,,,,,,1,,,,64,92
19200,note_on,360,0,9,,,,,,,,5,,,,60,92
19200,note_on,360,0,8,,,,,,,,5,,,,64,92
19200,note_on,360,0,3,,,,,,,,2,,,,70,92
19200,note_on,360,0,10,,,,,,,,11,,,,70,108
19200,note_on,360,0,5,,,,,,,,3,,,,64,92
19320,note_off,120,0,5,,,,,,,,3,,,,64,64
19320,note_off,120,0,8,,,,,,,,5,,,,64,64
19320,note_off,120,0,4,,,,,,,,2,,,,64,64
19320,note_off,120,0,11,,,,,,,,12,,,,64,64
19320,note_off,120,0,2,,,,,,,,1,,,,64,64
19320,note_off,120,0,7,,,,,,,,4,,,,50,64
19320,note_off,120,0,10,,,,,,,,11,,,,70,64
19320,note_off,120,0,9,,,,,,,,5,,,,60,64
19320,note_off,120,0,14,,,,,,,,15,,,,36,64
19320,note_off,120,0,6,,,,,,,,3,,,,60,64
19320,note_off,120,0,1,,,,,,,,0,,,,70,64
19320,note_off,120,0,12,,,,,,,,13,,,,60,64
19320,note_off,120,0,13,,,,,,,,14,,,,48,64
19320,note_off,120,0,3,,,,,,,,2,,,,70,64
19680,note_on,360,0,6,,,,,,,,3,,,,60,92
19680,note_on,360,0,8,,,,,,,,5,,,,65,92
19680,note_on,360,0,1,,,,,,,,0,,,,69,92
19680,note_on,360,0,3,,,,,,,,2,,,,69,92
19680,note_on,360,0,12,,,,,,,,13,,,,60,92
19680,note_on,360,0,11,,,,,,,,12,,,,65,92
19680,note_on,360,0,4,,,,,,,,2,,,,65,92
19680,note_on,360,0,2,,,,,,,,1,,,,65,92
19680,note_on,360,0,5,,,,,,,,3,,,,65,92
19680,note_on,360,0,13,,,,,,,,14,,,,53,92
19680,note_on,360,0,7,,,,,,,,4,,,,53,92
19680,note_on,360,0,14,,,,,,,,15,,,,41,92
19680,note_on,360,0,9,,,,,,,,5,,,,60,92
19680,note_on,360,0,10,,,,,,,,11,,,,69,108
19800,note_off,120,0,14,,,,,,,,15,,,,41,64
19800,note_off,120,0,12,,,,,,,,13,,,,60,64
19800,note_off,120,0,10,,,,,,,,11,,,,69,64
19800,note_off,120,0,4,,,,,,,,2,,,,65,64
19800,note_off,120,0,5,,,,,,,,3,,,,65,64
19800,note_off,120,0,1,,,,,,,,0,,,,69,64
19800,note_off,120,0,8,,,,,,,,5,,,,65,64
19800,note_off,120,0,6,,,,,,,,3,,,,60,64
19800,note_off,120,0,11,,,,,,,,12,,,,65,64
19800,note_off,120,0,13,,,,,,,,14,,,,53,64
19800,note_off,120,0,7,,,,,,,,4,,,,53,64
19800,note_off,120,0,3,,,,,,,,2,,,,69,64
19800,note_off,120,0,9,,,,,,,,5,,,,60,64
19800,note_off,120,0,2,,,,,,,,1,,,,65,64
20160,note_on,360,0,8,,,,,,,,5,,,,69,92
20160,note_on,360,0,12,,,,,,,,13,,,,62,92
20160,note_on,360,0,7,,,,,,,,4,,,,50,92
20160,note_on,360,0,6,,,,,,,,3,,,,62,92
20160,note_on,360,0,13,,,,,,,,14,,,,50,92
20160,note_on,360,0,9,,,,,,,,5,,,,62,92
20160,note_on,360,0,5,,,,,,,,3,,,,69,92
20160,note_on,360,0,1,,,,,,,,0,,,,77,92
20160,note_on,360,0,10,,,,,,,,11,,,,77,108
20160,note_on,360,0,2,,,,,,,,1,,,,69,92
20160,note_on,360,0,14,,,,,,,,15,,,,38,92
20160,note_on,360,0,4,,,,,,,,2,,,,69,92
20160,note_on,360,0,3,,,,,,,,2,,,,77,92
20160,note_on,360,0,11,,,,,,,,12,,,,69,92
20280,note_off,120,0,11,,,,,,,,12,,,,69,64
20280,note_off,120,0,1,,,,,,,,0,,,,77,64
20280,note_off,120,0,9,,,,,,,,5,,,,62,64
20280,note_off,120,0,7,,,,,,,,4,,,,50,64
20280,note_off,120,0,6,,,,,,,,3,,,,62,64
20280,note_off,120,0,3,,,,,,,,2,,,,77,64
20280,note_off,120,0,10,,,,,,,,11,,,,77,64
20280,note_off,120,0,14,,,,,,,,15,,,,38,64
20280,note_off,120,0,4,,,,,,,,2,,,,69,64
20280,note_off,120,0,12,,,,,,,,13,,,,62,64
20280,note_off,120,0,8,,,,,,,,5,,,,69,64
20280,note_off,120,0,2,,,,,,,,1,,,,69,64
20280,note_off,120,0,5,,,,,,,,3,,,,69,64
20280,note_off,120,0,13,,,,,,,,14,,,,50,64
20640,note_on,360,0,5,,,,,,,,3,,,,70,92
20640,note_on,360,0,9,,,,,,,,5,,,,62,92
20640,note_on,360,0,1,,,,,,,,0,,,,79,92
20640,note_on,360,0,11,,,,,,,,12,,,,70,92
20640,note_on,360,0,3,,,,,,,,2,,,,79,92
20640,note_on,360,0,7,,,,,,,,4,,,,46,92
20640,note_on,360,0,13,,,,,,,,14,,,,46,92
20640,note_on,360,0,2,,,,,,,,1,,,,70,92
20640,note_on,360,0,10,,,,,,,,11,,,,79,108
20640,note_on,360,0,14,,,,,,,,15,,,,34,92
20640,note_on,360,0,6,,,,,,,,3,,,,62,92
20640,note_on,360,0,8,,,,,,,,5,,,,70,92
20640,note_on,360,0,12,,,,,,,,13,,,,62,92
20640,note_on,360,0,4,,,,,,,,2,,,,70,92
20760,note_off,120,0,13,,,,,,,,14,,,,46,64
20760,note_off,120,0,3,,,,,,,,2,,,,79,64
20760,note_on,0,0,3,,,,,,,,2,,,,81,92
20760,note_off,120,0,1,,,,,,,,0,,,,79,64
20760,note_on,0,0,1,,,,,,,,0,,,,81,92
20760,note_off,120,0,4,,,,,,,,2,,,,70,64
20760,note_on,0,0,10,,,,,,,,11,,,,81,108
20760,note_off,120,0,7,,,,,,,,4,,,,46,64
20760,note_off,120,0,6,,,,,,,,3,,,,62,64
20760,note_off,120,0,2,,,,,,,,1,,,,70,64
20760,note_off,120,0,8,,,,,,,,5,,,,70,64
20760,note_off,120,0,12,,,,,,,,13,,,,62,64
20760,note_off,120,0,5,,,,,,,,3,,,,70,64
20760,note_off,120,0,9,,,,,,,,5,,,,62,64
20760,note_off,120,0,14,,,,,,,,15,,,,34,64
20760,note_off,120,0,10,,,,,,,,11,,,,79,64
20760,note_off,120,0,11,,,,,,,,12,,,,70,64
20880,note_on,0,0,1,,,,,,,,0,,,,79,92
20880,note_off,120,0,1,,,,,,,,0,,,,81,64
20880,note_on,0,0,10,,,,,,,,11,,,,79,108
20880,note_off,120,0,10,,,,,,,,11,,,,81,64
20880,note_on,0,0,3,,,,,,,,2,,,,79,92
20880,note_off,120,0,3,,,,,,,,2,,,,81,64
21000,note_on,0,0,1,,,,,,,,0,,,,81,92
21000,note_off,120,0,1,,,,,,,,0,,,,79,64
21000,note_on,0,0,3,,,,,,,,2,,,,81,92
21000,note_on,0,0,10,,,,,,,,11,,,,81,108
21000,note_off,120,0,10,,,,,,,,11,,,,79,64
21000,note_off,120,0,3,,,,,,,,2,,,,79,64
21115,note_off,115,0,3,,,,,,,,2,,,,81,64
21115,note_off,115,0,10,,,,,,,,11,,,,81,64
21115,note_off,115,0,1,,,,,,,,0,,,,81,64
21120,note_on,360,0,5,,,,,,,,3,,,,69,92
21120,note_on,5,0,3,,,,,,,,2,,,,77,92
21120,note_on,360,0,7,,,,,,,,4,,,,48,92
21120,note_on,360,0,2,,,,,,,,1,,,,69,92
21120,note_on,5,0,10,,,,,,,,11,,,,77,108
21120,note_on,360,0,12,,,,,,,,13,,,,60,92
21120,note_on,360,0,8,,,,,,,,5,,,,69,92
21120,note_on,360,0,9,,,,,,,,5,,,,60,92
21120,note_on,360,0,13,,,,,,,,14,,,,48,92
21120,note_on,360,0,6,,,,,,,,3,,,,60,92
21120,note_on,360,0,11,,,,,,,,12,,,,69,92
21120,note_on,360,0,4,,,,,,,,2,,,,69,92
21120,note_on,360,0,14,,,,,,,,15,,,,36,92
21120,note_on,5,0,1,,,,,,,,0,,,,77,92
21200,note_off,80,0,11,,,,,,,,12,,,,69,64
21200,note_off,80,0,10,,,,,,,,11,,,,77,64
21200,note_off,80,0,2,,,,,,,,1,,,,69,64
21200,note_off,80,0,1,,,,,,,,0,,,,77,64
21200,note_off,80,0,3,,,,,,,,2,,,,77,64
21200,note_off,80,0,8,,,,,,,,5,,,,69,64
21200,note_off,80,0,4,,,,,,,,2,,,,69,64
21200,note_off,80,0,5,,,,,,,,3,,,,69,64
21240,note_off,120,0,14,,,,,,,,15,,,,36,64
21240,note_off,120,0,7,,,,,,,,4,,,,48,64
21240,note_off,120,0,6,,,,,,,,3,,,,60,64
21240,note_off,120,0,12,,,,,,,,13,,,,60,64
21240,note_off,120,0,9,,,,,,,,5,,,,60,64
21240,note_off,120,0,13,,,,,,,,14,,,,48,64
21360,note_on,160,0,1,,,,,,,,0,,,,76,92
21360,note_on,160,0,3,,,,,,,,2,,,,76,92
21360,note_on,160,0,11,,,,,,,,12,,,,67,92
21360,note_on,160,0,10,,,,,,,,11,,,,76,108
21360,note_on,160,0,2,,,,,,,,1,,,,67,92
21360,note_on,160,0,4,,,,,,,,2,,,,67,92
21360,note_on,160,0,8,,,,,,,,5,,,,67,92
21360,note_on,160,0,5,,,,,,,,3,,,,67,92
21440,note_off,80,0,3,,,,,,,,2,,,,76,64
21440,note_off,80,0,2,,,,,,,,1,,,,67,64
21440,note_off,80,0,8,,,,,,,,5,,,,67,64
21440,note_off,80,0,4,,,,,,,,2,,,,67,64
21440,note_off,80,0,11,,,,,,,,12,,,,67,64
21440,note_off,80,0,1,,,,,,,,0,,,,76,64
21440,note_off,80,0,5,,,,,,,,3,,,,67,64
21440,note_off,80,0,10,,,,,,,,11,,,,76,64
21600,note_on,360,0,12,,,,,,,,13,,,,60,92
21600,note_on,160,0,4,,,,,,,,2,,,,69,92
21600,note_on,360,0,13,,,,,,,,14,,,,41,92
21600,note_on,160,0,1,,,,,,,,0,,,,77,92
21600,note_on,360,0,9,,,,,,,,5,,,,60,92
21600,note_on,160,0,10,,,,,,,,11,,,,77,108
21600,note_on,360,0,6,,,,,,,,3,,,,60,92
21600,note_on,160,0,5,,,,,,,,3,,,,69,92
21600,note_on,160,0,11,,,,,,,,12,,,,69,92
21600,note_on,160,0,2,,,,,,,,1,,,,69,92
21600,note_on,360,0,7,,,,,,,,4,,,,41,92
21600,note_on,160,0,8,,,,,,,,5,,,,69,92
21600,note_on,160,0,3,,,,,,,,2,,,,77,92
21600,note_on,360,0,14,,,,,,,,15,,,,29,92
21720,note_off,120,0,10,,,,,,,,11,,,,77,64
21720,note_off,120,0,7,,,,,,,,4,,,,41,64
21720,note_off,120,0,4,,,,,,,,2,,,,69,64
21720,note_off,120,0,2,,,,,,,,1,,,,69,64
21720,note_off,120,0,13,,,,,,,,14,,,,41,64
21720,note_off,120,0,11,,,,,,,,12,,,,69,64
21720,note_off,120,0,14,,,,,,,,15,,,,29,64
21720,note_off,120,0,9,,,,,,,,5,,,,60,64
21720,note_off,120,0,3,,,,,,,,2,,,,77,64
21720,note_off,120,0,8,,,,,,,,5,,,,69,64
21720,note_off,120,0,1,,,,,,,,0,,,,77,64
21720,note_off,120,0,12,,,,,,,,13,,,,60,64
21720,note_off,120,0,5,,,,,,,,3,,,,69,64
21720,note_off,120,0,6,,,,,,,,3,,,,60,64
22080,note_on,360,0,1,,,,,,,,0,,,,72,92
22080,note_on,360,0,3,,,,,,,,2,,,,72,92
22080,note_on,360,0,10,,,,,,,,11,,,,72,108
22200,note_off,120,0,1,,,,,,,,0,,,,72,64
22200,note_off,120,0,3,,,,,,,,2,,,,72,64
22200,note_off,120,0,10,,,,,,,,11,,,,72,64
22560,note_on,360,0,3,,,,,,,,2,,,,65,92
22560,note_on,360,0,1,,,,,,,,0,,,,65,92
22560,note_on,360,0,10,,,,,,,,11,,,,65,108
22680,note_off,120,0,10,,,,,,,,11,,,,65,64
22680,note_off,120,0,3,,,,,,,,2,,,,65,64
22680,note_off,120,0,1,,,,,,,,0,,,,65,64
23040,note_on,1320,0,14,,,,,,,,15,,,,29,92
23040,note_on,1320,0,9,,,,,,,,5,,,,57,92
23040,note_on,360,0,1,,,,,,,,0,,,,67,92
23040,note_on,1320,0,4,,,,,,,,2,,,,60,92
23040,note_on,360,0,10,,,,,,,,11,,,,67,108
23040,note_on,1320,0,5,,,,,,,,3,,,,60,92
23040,note_on,1320,0,6,,,,,,,,3,,,,57,92
23040,note_on,1320,0,2,,,,,,,,1,,,,60,92
23040,note_on,1320,0,8,,,,,,,,5,,,,60,92
23040,note_on,1320,0,13,,,,,,,,14,,,,41,92
23040,note_on,1320,0,11,,,,,,,,12,,,,60,92
23040,note_on,1320,0,12,,,,,,,,13,,,,57,92
23040,note_on,360,0,3,,,,,,,,2,,,,67,92
23040,note_on,1320,0,7,,,,,,,,4,,,,41,92
23120,note_off,80,0,1,,,,,,,,0,,,,67,64
23120,note_off,80,0,3,,,,,,,,2,,,,67,64
23120,note_off,80,0,10,,,,,,,,11,,,,67,64
23160,note_off,120,0,7,,,,,,,,4,,,,41,64
23160,note_off,120,0,6,,,,,,,,3,,,,57,64
23160,note_off,120,0,5,,,,,,,,3,,,,60,64
23160,note_off,120,0,13,,,,,,,,14,,,,41,64
23160,note_off,120,0,11,,,,,,,,12,,,,60,64
23160,note_off,120,0,8,,,,,,,,5,,,,60,64
23160,note_off,120,0,2,,,,,,,,1,,,,60,64
23160,note_off,120,0,4,,,,,,,,2,,,,60,64
23160,note_off,120,0,12,,,,,,,,13,,,,57,64
23160,note_off,120,0,9,,,,,,,,5,,,,57,64
23160,note_off,120,0,14,,,,,,,,15,,,,29,64
23280,note_on,160,0,10,,,,,,,,11,,,,65,108
23280,note_on,160,0,3,,,,,,,,2,,,,65,92
23280,note_on,160,0,1,,,,,,,,0,,,,65,92
23360,note_off,80,0,3,,,,,,,,2,,,,65,64
23360,note_off,80,0,10,,,,,,,,11,,,,65,64
23360,note_off,80,0,1,,,,,,,,0,,,,65,64
23520,note_on,360,0,9,,,,,,,,5,,,,55,92
23520,note_on,360,0,11,,,,,,,,12,,,,64,92
23520,note_on,360,0,14,,,,,,,,15,,,,36,92
23520,note_on,160,0,1,,,,,,,,0,,,,64,92
23520,note_on,160,0,3,,,,,,,,2,,,,64,92
23520,note_on,360,0,8,,,,,,,,5,,,,64,92
23520,note_on,360,0,7,,,,,,,,4,,,,48,92
23520,note_on,360,0,12,,,,,,,,13,,,,55,92
23520,note_on,360,0,5,,,,,,,,3,,,,64,92
23520,note_on,160,0,10,,,,,,,,11,,,,64,108
23520,note_on,360,0,6,,,,,,,,3,,,,55,92
23520,note_on,360,0,2,,,,,,,,1,,,,64,92
23520,note_on,360,0,4,,,,,,,,2,,,,64,92
23520,note_on,360,0,13,,,,,,,,14,,,,48,92
23640,note_off,120,0,3,,,,,,,,2,,,,64,64
23640,note_off,120,0,6,,,,,,,,3,,,,55,64
23640,note_off,120,0,7,,,,,,,,4,,,,48,64
23640,note_off,120,0,8,,,,,,,,5,,,,64,64
23640,note_off,120,0,10,,,,,,,,11,,,,64,64
23640,note_off,120,0,2,,,,,,,,1,,,,64,64
23640,note_off,120,0,1,,,,,,,,0,,,,64,64
23640,note_off,120,0,12,,,,,,,,13,,,,55,64
23640,note_off,120,0,14,,,,,,,,15,,,,36,64
23640,note_off,120,0,4,,,,,,,,2,,,,64,64
23640,note_off,120,0,9,,,,,,,,5,,,,55,64
23640,note_off,120,0,5,,,,,,,,3,,,,64,64
23640,note_off,120,0,13,,,,,,,,14,,,,48,64
23640,note_off,120,0,11,,,,,,,,12,,,,64,64
24000,note_on,360,0,13,,,,,,,,14,,,,53,92
24000,note_on,360,0,7,,,,,,,,4,,,,53,92
24000,note_on,360,0,4,,,,,,,,2,,,,65,92
24000,note_on,360,0,10,,,,,,,,11,,,,69,108
24000,note_on,360,0,6,,,,,,,,3,,,,53,92
24000,note_on,360,0,5,,,,,,,,3,,,,65,92
24000,note_on,360,0,12,,,,,,,,13,,,,53,92
24000,note_on,360,0,14,,,,,,,,15,,,,41,92
24000,note_on,360,0,11,,,,,,,,12,,,,65,92
24000,note_on,360,0,8,,,,,,,,5,,,,65,92
24000,note_on,360,0,3,,,,,,,,2,,,,69,92
24000,note_on,360,0,9,,,,,,,,5,,,,53,92
24000,note_on,360,0,1,,,,,,,,0,,,,69,92
24000,note_on,360,0,2,,,,,,,,1,,,,65,92
24120,note_off,120,0,1,,,,,,,,0,,,,69,64
24120,note_off,120,0,5,,,,,,,,3,,,,65,64
24120,note_off,120,0,6,,,,,,,,3,,,,53,64
24120,note_off,120,0,9,,,,,,,,5,,,,53,64
24120,note_off,120,0,3,,,,,,,,2,,,,69,64
24120,note_off,120,0,4,,,,,,,,2,,,,65,64
24120,note_off,120,0,2,,,,,,,,1,,,,65,64
24120,note_off,120,0,10,,,,,,,,11,,,,69,64
24120,note_off,120,0,12,,,,,,,,13,,,,53,64
24120,note_off,120,0,8,,,,,,,,5,,,,65,64
24120,note_off,120,0,14,,,,,,,,15,,,,41,64
24120,note_off,120,0,13,,,,,,,,14,,,,53,64
24120,note_off,120,0,11,,,,,,,,12,,,,65,64
24120,note_off,120,0,7,,,,,,,,4,,,,53,64
24480,note_on,360,0,12,,,,,,,,13,,,,60,92
24480,note_on,360,0,6,,,,,,,,3,,,,60,92
24480,note_on,360,0,8,,,,,,,,5,,,,67,92
24480,note_on,360,0,11,,,,,,,,12,,,,67,92
24480,note_on,360,0,1,,,,,,,,0,,,,67,92
24480,note_on,360,0,5,,,,,,,,3,,,,67,92
24480,note_on,360,0,7,,,,,,,,4,,,,52,92
24480,note_on,360,0,4,,,,,,,,2,,,,67,92
24480,note_on,360,0,3,,,,,,,,2,,,,67,92
24480,note_on,360,0,9,,,,,,,,5,,,,60,92
24480,note_on,360,0,13,,,,,,,,14,,,,52,92
24480,note_on,360,0,10,,,,,,,,11,,,,67,108
24480,note_on,360,0,14,,,,,,,,15,,,,40,92
24480,note_on,360,0,2,,,,,,,,1,,,,67,92
24600,note_off,120,0,4,,,,,,,,2,,,,67,64
24600,note_off,120,0,7,,,,,,,,4,,,,52,64
24600,note_off,120,0,6,,,,,,,,3,,,,60,64
24600,note_off,120,0,10,,,,,,,,11,,,,67,64
24600,note_off,120,0,13,,,,,,,,14,,,,52,64
24600,note_off,120,0,9,,,,,,,,5,,,,60,64
24600,note_off,120,0,8,,,,,,,,5,,,,67,64
24600,note_off,120,0,11,,,,,,,,12,,,,67,64
24600,note_off,120,0,5,,,,,,,,3,,,,67,64
24600,note_off,120,0,1,,,,,,,,0,,,,67,64
24600,note_off,120,0,3,,,,,,,,2,,,,67,64
24600,note_off,120,0,2,,,,,,,,1,,,,67,64
24600,note_off,120,0,14,,,,,,,,15,,,,40,64
24600,note_off,120,0,12,,,,,,,,13,,,,60,64
24960,note_on,360,0,1,,,,,,,,0,,,,72,92
24960,note_on,360,0,8,,,,,,,,5,,,,64,92
24960,note_on,360,0,7,,,,,,,,4,,,,48,92
24960,note_on,360,0,11,,,,,,,,12,,,,64,92
24960,note_on,360,0,12,,,,,,,,13,,,,67,92
24960,note_on,360,0,10,,,,,,,,11,,,,72,108
24960,note_on,360,0,13,,,,,,,,14,,,,48,92
24960,note_on,360,0,5,,,,,,,,3,,,,64,92
24960,note_on,360,0,4,,,,,,,,2,,,,64,92
24960,note_on,360,0,9,,,,,,,,5,,,,67,92
24960,note_on,360,0,2,,,,,,,,1,,,,64,92
24960,note_on,360,0,6,,,,,,,,3,,,,67,92
24960,note_on,360,0,3,,,,,,,,2,,,,72,92
24960,note_on,360,0,14,,,,,,,,15,,,,36,92
25080,note_off,120,0,14,,,,,,,,15,,,,36,64
25080,note_off,120,0,13,,,,,,,,14,,,,48,64
25080,note_off,120,0,9,,,,,,,,5,,,,67,64
25080,note_off,120,0,2,,,,,,,,1,,,,64,64
25080,note_off,120,0,10,,,,,,,,11,,,,72,64
25080,note_off,120,0,4,,,,,,,,2,,,,64,64
25080,note_off,120,0,12,,,,,,,,13,,,,67,64
25080,note_off,120,0,5,,,,,,,,3,,,,64,64
25080,note_off,120,0,1,,,,,,,,0,,,,72,64
25080,note_off,120,0,6,,,,,,,,3,,,,67,64
25080,note_off,120,0,11,,,,,,,,12,,,,64,64
25080,note_off,120,0,7,,,,,,,,4,,,,48,64
25080,note_off,120,0,3,,,,,,,,2,,,,72,64
25080,note_off,120,0,8,,,,,,,,5,,,,64,64
25440,note_on,360,0,7,,,,,,,,4,,,,55,92
25440,note_on,360,0,11,,,,,,,,12,,,,62,92
25440,note_on,360,0,5,,,,,,,,3,,,,62,92
25440,note_on,360,0,4,,,,,,,,2,,,,62,92
25440,note_on,360,0,8,,,,,,,,5,,,,62,92
25440,note_on,360,0,1,,,,,,,,0,,,,71,92
25440,note_on,360,0,12,,,,,,,,13,,,,67,92
25440,note_on,360,0,3,,,,,,,,2,,,,71,92
25440,note_on,360,0,13,,,,,,,,14,,,,55,92
25440,note_on,360,0,14,,,,,,,,15,,,,43,92
25440,note_on,360,0,2,,,,,,,,1,,,,62,92
25440,note_on,360,0,6,,,,,,,,3,,,,67,92
25440,note_on,360,0,9,,,,,,,,5,,,,67,92
25440,note_on,360,0,10,,,,,,,,11,,,,71,108
25560,note_off,120,0,6,,,,,,,,3,,,,67,64
25560,note_off,120,0,11,,,,,,,,12,,,,62,64
25560,note_off,120,0,9,,,,,,,,5,,,,67,64
25560,note_off,120,0,4,,,,,,,,2,,,,62,64
25560,note_off,120,0,10,,,,,,,,11,,,,71,64
25560,note_off,120,0,1,,,,,,,,0,,,,71,64
25560,note_off,120,0,13,,,,,,,,14,,,,55,64
25560,note_off,120,0,3,,,,,,,,2,,,,71,64
25560,note_off,120,0,8,,,,,,,,5,,,,62,64
25560,note_off,120,0,12,,,,,,,,13,,,,67,64
25560,note_off,120,0,14,,,,,,,,15,,,,43,64
25560,note_off,120,0,5,,,,,,,,3,,,,62,64
25560,note_off,120,0,2,,,,,,,,1,,,,62,64
25560,note_off,120,0,7,,,,,,,,4,,,,55,64
25920,note_on,360,0,8,,,,,,,,5,,,,72,92
25920,note_on,360,0,11,,,,,,,,12,,,,72,92
25920,note_on,360,0,1,,,,,,,,0,,,,76,92
25920,note_on,360,0,6,,,,,,,,3,,,,67,92
25920,note_on,360,0,10,,,,,,,,11,,,,76,108
25920,note_on,360,0,5,,,,,,,,3,,,,72,92
25920,note_on,360,0,4,,,,,,,,2,,,,72,92
25920,note_on,360,0,14,,,,,,,,15,,,,48,92
25920,note_on,360,0,3,,,,,,,,2,,,,76,92
25920,note_on,360,0,2,,,,,,,,1,,,,72,92
25920,note_on,360,0,13,,,,,,,,14,,,,60,92
25920,note_on,360,0,9,,,,,,,,5,,,,67,92
25920,note_on,360,0,12,,,,,,,,13,,,,67,92
25920,note_on,360,0,7,,,,,,,,4,,,,60,92
26040,note_off,120,0,10,,,,,,,,11,,,,76,64
26040,note_off,120,0,9,,,,,,,,5,,,,67,64
26040,note_off,120,0,4,,,,,,,,2,,,,72,64
26040,note_off,120,0,8,,,,,,,,5,,,,72,64
26040,note_off,120,0,2,,,,,,,,1,,,,72,64
26040,note_off,120,0,11,,,,,,,,12,,,,72,64
26040,note_off,120,0,1,,,,,,,,0,,,,76,64
26040,note_off,120,0,14,,,,,,,,15,,,,48,64
26040,note_off,120,0,5,,,,,,,,3,,,,72,64
26040,note_off,120,0,12,,,,,,,,13,,,,67,64
26040,note_off,120,0,3,,,,,,,,2,,,,76,64
26040,note_off,120,0,13,,,,,,,,14,,,,60,64
26040,note_off,120,0,7,,,,,,,,4,,,,60,64
26040,note_off,120,0,6,,,,,,,,3,,,,67,64
26400,note_on,360,0,8,,,,,,,,5,,,,67,92
26400,note_on,360,0,12,,,,,,,,13,,,,67,92
26400,note_on,360,0,9,,,,,,,,5,,,,67,92
26400,note_on,360,0,13,,,,,,,,14,,,,59,92
26400,note_on,360,0,4,,,,,,,,2,,,,67,92
26400,note_on,360,0,11,,,,,,,,12,,,,67,92
26400,note_on,360,0,10,,,,,,,,11,,,,74,108
26400,note_on,360,0,2,,,,,,,,1,,,,67,92
26400,note_on,360,0,5,,,,,,,,3,,,,67,92
26400,note_on,360,0,14,,,,,,,,15,,,,47,92
26400,note_on,360,0,1,,,,,,,,0,,,,74,92
26400,note_on,360,0,3,,,,,,,,2,,,,74,92
26400,note_on,360,0,6,,,,,,,,3,,,,67,92
26400,note_on,360,0,7,,,,,,,,4,,,,59,92
26480,note_off,80,0,10,,,,,,,,11,,,,74,64
26480,note_off,80,0,1,,,,,,,,0,,,,74,64
26480,note_off,80,0,3,,,,,,,,2,,,,74,64
26520,note_off,120,0,6,,,,,,,,3,,,,67,64
26520,note_off,120,0,11,,,,,,,,12,,,,67,64
26520,note_off,120,0,12,,,,,,,,13,,,,67,64
26520,note_off,120,0,9,,,,,,,,5,,,,67,64
26520,note_off,120,0,8,,,,,,,,5,,,,67,64
26520,note_off,120,0,7,,,,,,,,4,,,,59,64
26520,note_off,120,0,4,,,,,,,,2,,,,67,64
26520,note_off,120,0,5,,,,,,,,3,,,,67,64
26520,note_off,120,0,14,,,,,,,,15,,,,47,64
26520,note_off,120,0,2,,,,,,,,1,,,,67,64
26520,note_off,120,0,13,,,,,,,,14,,,,59,64
26640,note_on,160,0,1,,,,,,,,0,,,,76,92
26640,note_on,160,0,10,,,,,,,,11,,,,76,108
26640,note_on,160,0,3,,,,,,,,2,,,,76,92
26720,note_off,80,0,3,,,,,,,,2,,,,76,64
26720,note_off,80,0,1,,,,,,,,0,,,,76,64
26720,note_off,80,0,10,,,,,,,,11,,,,76,64
26880,note_on,360,0,11,,,,,,,,12,,,,74,92
26880,note_on,360,0,12,,,,,,,,13,,,,59,92
26880,note_on,360,0,4,,,,,,,,2,,,,74,92
26880,note_on,360,0,5,,,,,,,,3,,,,74,92
26880,note_on,360,0,14,,,,,,,,15,,,,43,92
26880,note_on,160,0,10,,,,,,,,11,,,,77,108
26880,note_on,160,0,3,,,,,,,,2,,,,77,92
26880,note_on,360,0,8,,,,,,,,5,,,,74,92
26880,note_on,360,0,7,,,,,,,,4,,,,55,92
26880,note_on,360,0,9,,,,,,,,5,,,,59,92
26880,note_on,160,0,1,,,,,,,,0,,,,77,92
26880,note_on,360,0,2,,,,,,,,1,,,,74,92
26880,note_on,360,0,6,,,,,,,,3,,,,59,92
26880,note_on,360,0,13,,,,,,,,14,,,,55,92
27000,note_off,120,0,3,,,,,,,,2,,,,77,64
27000,note_off,120,0,1,,,,,,,,0,,,,77,64
27000,note_off,120,0,12,,,,,,,,13,,,,59,64
27000,note_off,120,0,5,,,,,,,,3,,,,74,64
27000,note_off,120,0,7,,,,,,,,4,,,,55,64
27000,note_off,120,0,14,,,,,,,,15,,,,43,64
27000,note_off,120,0,10,,,,,,,,11,,,,77,64
27000,note_off,120,0,4,,,,,,,,2,,,,74,64
27000,note_off,120,0,6,,,,,,,,3,,,,59,64
27000,note_off,120,0,11,,,,,,,,12,,,,74,64
27000,note_off,120,0,8,,,,,,,,5,,,,74,64
27000,note_off,120,0,2,,,,,,,,1,,,,74,64
27000,note_off,120,0,9,,,,,,,,5,,,,59,64
27000,note_off,120,0,13,,,,,,,,14,,,,55,64
27360,note_on,360,0,11,,,,,,,,12,,,,72,92
27360,note_on,360,0,10,,,,,,,,11,,,,76,108
27360,note_on,360,0,1,,,,,,,,0,,,,76,92
27360,note_on,360,0,14,,,,,,,,15,,,,48,92
27360,note_on,360,0,9,,,,,,,,5,,,,67,92
27360,note_on,360,0,5,,,,,,,,3,,,,72,92
27360,note_on,360,0,13,,,,,,,,14,,,,60,92
27360,note_on,360,0,6,,,,,,,,3,,,,67,92
27360,note_on,360,0,3,,,,,,,,2,,,,76,92
27360,note_on,360,0,2,,,,,,,,1,,,,72,92
27360,note_on,360,0,8,,,,,,,,5,,,,72,92
27360,note_on,360,0,7,,,,,,,,4,,,,60,92
27360,note_on,360,0,4,,,,,,,,2,,,,72,92
27360,note_on,360,0,12,,,,,,,,13,,,,67,92
27440,note_off,80,0,3,,,,,,,,2,,,,76,64
27440,note_off,80,0,10,,,,,,,,11,,,,76,64
27440,note_off,80,0,1,,,,,,,,0,,,,76,64
27480,note_off,120,0,11,,,,,,,,12,,,,72,64
27480,note_off,120,0,6,,,,,,,,3,,,,67,64
27480,note_off,120,0,7,,,,,,,,4,,,,60,64
27480,note_off,120,0,9,,,,,,,,5,,,,67,64
27480,note_off,120,0,8,,,,,,,,5,,,,72,64
27480,note_off,120,0,14,,,,,,,,15,,,,48,64
27480,note_off,120,0,2,,,,,,,,1,,,,72,64
27480,note_off,120,0,13,,,,,,,,14,,,,60,64
27480,note_off,120,0,12,,,,,,,,13,,,,67,64
27480,note_off,120,0,4,,,,,,,,2,,,,72,64
27480,note_off,120,0,5,,,,,,,,3,,,,72,64
27600,note_on,160,0,3,,,,,,,,2,,,,77,92
27600,note_on,160,0,10,,,,,,,,11,,,,77,108
27600,note_on,160,0,1,,,,,,,,0,,,,77,92
27680,note_off,80,0,10,,,,,,,,11,,,,77,64
27680,note_off,80,0,1,,,,,,,,0,,,,77,64
27680,note_off,80,0,3,,,,,,,,2,,,,77,64
27840,note_on,160,0,1,,,,,,,,0,,,,79,92
27840,note_on,360,0,2,,,,,,,,1,,,,72,92
27840,note_on,360,0,8,,,,,,,,5,,,,72,92
27840,note_on,360,0,12,,,,,,,,13,,,,67,92
27840,note_on,160,0,10,,,,,,,,11,,,,79,108
27840,note_on,360,0,9,,,,,,,,5,,,,67,92
27840,note_on,360,0,11,,,,,,,,12,,,,72,92
27840,note_on,360,0,7,,,,,,,,4,,,,52,92
27840,note_on,360,0,13,,,,,,,,14,,,,52,92
27840,note_on,360,0,6,,,,,,,,3,,,,67,92
27840,note_on,360,0,14,,,,,,,,15,,,,40,92
27840,note_on,360,0,5,,,,,,,,3,,,,72,92
27840,note_on,360,0,4,,,,,,,,2,,,,72,92
27840,note_on,160,0,3,,,,,,,,2,,,,79,92
27960,note_off,120,0,12,,,,,,,,13,,,,67,64
27960,note_off,120,0,14,,,,,,,,15,,,,40,64
27960,note_off,120,0,3,,,,,,,,2,,,,79,64
27960,note_off,120,0,8,,,,,,,,5,,,,72,64
27960,note_off,120,0,13,,,,,,,,14,,,,52,64
27960,note_off,120,0,10,,,,,,,,11,,,,79,64
27960,note_off,120,0,2,,,,,,,,1,,,,72,64
27960,note_off,120,0,4,,,,,,,,2,,,,72,64
27960,note_off,120,0,9,,,,,,,,5,,,,67,64
27960,note_off,120,0,1,,,,,,,,0,,,,79,64
27960,note_off,120,0,5,,,,,,,,3,,,,72,64
27960,note_off,120,0,6,,,,,,,,3,,,,67,64
27960,note_off,120,0,7,,,,,,,,4,,,,52,64
27960,note_off,120,0,11,,,,,,,,12,,,,72,64
28320,note_on,360,0,8,,,,,,,,5,,,,67,92
28320,note_on,360,0,12,,,,,,,,13,,,,64,92
28320,note_on,360,0,7,,,,,,,,4,,,,55,92
28320,note_on,360,0,9,,,,,,,,5,,,,64,92
28320,note_on,360,0,10,,,,,,,,11,,,,67,108
28320,note_on,360,0,2,,,,,,,,1,,,,67,92
28320,note_on,360,0,4,,,,,,,,2,,,,67,92
28320,note_on,360,0,13,,,,,,,,14,,,,55,92
28320,note_on,360,0,11,,,,,,,,12,,,,67,92
28320,note_on,360,0,5,,,,,,,,3,,,,67,92
28320,note_on,360,0,3,,,,,,,,2,,,,67,92
28320,note_on,360,0,1,,,,,,,,0,,,,67,92
28320,note_on,360,0,14,,,,,,,,15,,,,43,92
28320,note_on,360,0,6,,,,,,,,3,,,,64,92
28440,note_off,120,0,7,,,,,,,,4,,,,55,64
28440,note_off,120,0,12,,,,,,,,13,,,,64,64
28440,note_off,120,0,11,,,,,,,,12,,,,67,64
28440,note_off,120,0,10,,,,,,,,11,,,,67,64
28440,note_off,120,0,6,,,,,,,,3,,,,64,64
28440,note_off,120,0,1,,,,,,,,0,,,,67,64
28440,note_off,120,0,9,,,,,,,,5,,,,64,64
28440,note_off,120,0,14,,,,,,,,15,,,,43,64
28440,note_off,120,0,4,,,,,,,,2,,,,67,64
28440,note_off,120,0,5,,,,,,,,3,,,,67,64
28440,note_off,120,0,3,,,,,,,,2,,,,67,64
28440,note_off,120,0,2,,,,,,,,1,,,,67,64
28440,note_off,120,0,8,,,,,,,,5,,,,67,64
28440,note_off,120,0,13,,,,,,,,14,,,,55,64
28800,note_on,360,0,5,,,,,,,,3,,,,65,92
28800,note_on,360,0,14,,,,,,,,15,,,,31,92
28800,note_on,360,0,11,,,,,,,,12,,,,65,92
28800,note_on,360,0,8,,,,,,,,5,,,,65,92
28800,note_on,360,0,10,,,,,,,,11,,,,71,108
28800,note_on,360,0,12,,,,,,,,13,,,,62,92
28800,note_on,360,0,3,,,,,,,,2,,,,71,92
28800,note_on,360,0,4,,,,,,,,2,,,,65,92
28800,note_on,360,0,1,,,,,,,,0,,,,71,92
28800,note_on,360,0,7,,,,,,,,4,,,,43,92
28800,note_on,360,0,2,,,,,,,,1,,,,65,92
28800,note_on,360,0,9,,,,,,,,5,,,,62,92
28800,note_on,360,0,6,,,,,,,,3,,,,62,92
28800,note_on,360,0,13,,,,,,,,14,,,,43,92
28880,note_off,80,0,10,,,,,,,,11,,,,71,64
28920,note_off,120,0,12,,,,,,,,13,,,,62,64
28920,note_off,120,0,7,,,,,,,,4,,,,43,64
28920,note_off,120,0,11,,,,,,,,12,,,,65,64
28920,note_off,120,0,3,,,,,,,,2,,,,71,64
28920,note_off,120,0,14,,,,,,,,15,,,,31,64
28920,note_off,120,0,6,,,,,,,,3,,,,62,64
28920,note_off,120,0,9,,,,,,,,5,,,,62,64
28920,note_off,120,0,1,,,,,,,,0,,,,71,64
28920,note_off,120,0,4,,,,,,,,2,,,,65,64
28920,note_off,120,0,5,,,,,,,,3,,,,65,64
28920,note_off,120,0,13,,,,,,,,14,,,,43,64
28920,note_off,120,0,2,,,,,,,,1,,,,65,64
28920,note_off,120,0,8,,,,,,,,5,,,,65,64
29040,note_on,160,0,10,,,,,,,,11,,,,72,108
29120,note_off,80,0,10,,,,,,,,11,,,,72,64
29280,note_on,360,0,8,,,,,,,,5,,,,64,92
29280,note_on,360,0,1,,,,,,,,0,,,,72,92
29280,note_on,360,0,9,,,,,,,,5,,,,60,92
29280,note_on,360,0,4,,,,,,,,2,,,,64,92
29280,note_on,360,0,3,,,,,,,,2,,,,72,92
29280,note_on,360,0,6,,,,,,,,3,,,,60,92
29280,note_on,360,0,2,,,,,,,,1,,,,64,92
29280,note_on,360,0,5,,,,,,,,3,,,,64,92
29280,note_on,360,0,13,,,,,,,,14,,,,48,92
29280,note_on,360,0,11,,,,,,,,12,,,,64,92
29280,note_on,160,0,10,,,,,,,,11,,,,72,108
29280,note_on,360,0,14,,,,,,,,15,,,,36,92
29280,note_on,360,0,7,,,,,,,,4,,,,48,92
29280,note_on,360,0,12,,,,,,,,13,,,,60,92
29400,note_off,120,0,7,,,,,,,,4,,,,48,64
29400,note_off,120,0,8,,,,,,,,5,,,,64,64
29400,note_off,120,0,5,,,,,,,,3,,,,64,64
29400,note_off,120,0,4,,,,,,,,2,,,,64,64
29400,note_off,120,0,13,,,,,,,,14,,,,48,64
29400,note_off,120,0,11,,,,,,,,12,,,,64,64
29400,note_off,120,0,2,,,,,,,,1,,,,64,64
29400,note_off,120,0,14,,,,,,,,15,,,,36,64
29640,note_off,360,0,10,,,,,,,,11,,,,72,64
29760,note_on,360,0,2,,,,,,,,1,,,,65,92
29760,note_on,360,0,7,,,,,,,,4,,,,50,92
29760,note_on,360,0,11,,,,,,,,12,,,,65,92
29760,note_on,360,0,4,,,,,,,,2,,,,65,92
29760,note_on,360,0,14,,,,,,,,15,,,,38,92
29760,note_on,360,0,5,,,,,,,,3,,,,65,92
29760,note_on,360,0,13,,,,,,,,14,,,,50,92
29760,note_on,360,0,8,,,,,,,,5,,,,65,92
29880,note_off,120,0,11,,,,,,,,12,,,,65,64
29880,note_off,120,0,4,,,,,,,,2,,,,65,64
29880,note_off,120,0,5,,,,,,,,3,,,,65,64
29880,note_off,120,0,2,,,,,,,,1,,,,65,64
29880,note_off,120,0,8,,,,,,,,5,,,,65,64
29880,note_off,120,0,14,,,,,,,,15,,,,38,64
29880,note_off,120,0,7,,,,,,,,4,,,,50,64
29880,note_off,120,0,13,,,,,,,,14,,,,50,64
30240,note_on,360,0,13,,,,,,,,14,,,,52,92
30240,note_on,360,0,2,,,,,,,,1,,,,67,92
30240,note_on,360,0,5,,,,,,,,3,,,,67,92
30240,note_on,360,0,14,,,,,,,,15,,,,40,92
30240,note_on,360,0,11,,,,,,,,12,,,,67,92
30240,note_on,360,0,7,,,,,,,,4,,,,52,92
30240,note_on,360,0,4,,,,,,,,2,,,,67,92
30240,note_on,360,0,8,,,,,,,,5,,,,67,92
30360,note_off,120,0,2,,,,,,,,1,,,,67,64
30360,note_off,120,0,5,,,,,,,,3,,,,67,64
30360,note_off,120,0,8,,,,,,,,5,,,,67,64
30360,note_off,120,0,14,,,,,,,,15,,,,40,64
30360,note_off,120,0,4,,,,,,,,2,,,,67,64
30360,note_off,120,0,11,,,,,,,,12,,,,67,64
30360,note_off,120,0,13,,,,,,,,14,,,,52,64
30360,note_off,120,0,7,,,,,,,,4,,,,52,64
30600,note_off,1320,0,12,,,,,,,,13,,,,60,64
30600,note_off,1320,0,9,,,,,,,,5,,,,60,64
30600,note_off,1320,0,1,,,,,,,,0,,,,72,64
30600,note_off,1320,0,6,,,,,,,,3,,,,60,64
30600,note_off,1320,0,3,,,,,,,,2,,,,72,64
30720,note_on,360,0,13,,,,,,,,14,,,,48,45
30720,note_on,120,0,12,,,,,,,,13,,,,60,45
30720,note_on,360,0,14,,,,,,,,15,,,,36,45
30720,note_on,1080,0,10,,,,,,,,11,,,,79,60
30720,note_on,360,0,11,,,,,,,,12,,,,64,45
30840,note_off,120,0,13,,,,,,,,14,,,,48,64
30840,note_off,120,0,14,,,,,,,,15,,,,36,64
30840,note_off,120,0,11,,,,,,,,12,,,,64,64
30840,note_off,120,0,12,,,,,,,,13,,,,60,64
30840,note_off,120,0,10,,,,,,,,11,,,,79,64
31200,note_on,360,0,10,,,,,,,,11,,,,76,60
31200,note_on,360,0,14,,,,,,,,15,,,,48,45
31200,note_on,360,0,11,,,,,,,,12,,,,67,45
31200,note_on,360,0,12,,,,,,,,13,,,,60,45
31200,note_on,360,0,13,,,,,,,,14,,,,60,45
31320,note_off,120,0,10,,,,,,,,11,,,,76,64
31320,note_off,120,0,14,,,,,,,,15,,,,48,64
31320,note_off,120,0,13,,,,,,,,14,,,,60,64
31320,note_off,120,0,11,,,,,,,,12,,,,67,64
31320,note_off,120,0,12,,,,,,,,13,,,,60,64
31680,note_on,360,0,13,,,,,,,,14,,,,53,45
31680,note_on,360,0,10,,,,,,,,11,,,,81,60
31680,note_on,360,0,11,,,,,,,,12,,,,65,45
31680,note_on,360,0,12,,,,,,,,13,,,,60,45
31680,note_on,360,0,14,,,,,,,,15,,,,41,45
31800,note_off,120,0,11,,,,,,,,12,,,,65,64
31800,note_off,120,0,10,,,,,,,,11,,,,81,64
31800,note_off,120,0,12,,,,,,,,13,,,,60,64
31800,note_off,120,0,13,,,,,,,,14,,,,53,64
31800,note_off,120,0,14,,,,,,,,15,,,,41,64
32160,note_on,360,0,13,,,,,,,,14,,,,52,45
32160,note_on,360,0,12,,,,,,,,13,,,,60,45
32160,note_on,360,0,14,,,,,,,,15,,,,40,45
32160,note_on,360,0,10,,,,,,,,11,,,,79,60
32160,note_on,360,0,11,,,,,,,,12,,,,72,45
32280,note_off,120,0,14,,,,,,,,15,,,,40,64
32280,note_off,120,0,10,,,,,,,,11,,,,79,64
32280,note_off,120,0,11,,,,,,,,12,,,,72,64
32280,note_off,120,0,13,,,,,,,,14,,,,52,64
32280,note_off,120,0,12,,,,,,,,13,,,,60,64
32640,note_on,360,0,13,,,,,,,,14,,,,48,45
32640,note_on,360,0,11,,,,,,,,12,,,,64,45
32640,note_on,360,0,12,,,,,,,,13,,,,67,45
32640,note_on,360,0,10,,,,,,,,11,,,,72,60
32640,note_on,360,0,14,,,,,,,,15,,,,36,45
32760,note_off,120,0,10,,,,,,,,11,,,,72,64
32760,note_off,120,0,13,,,,,,,,14,,,,48,64
32760,note_off,120,0,12,,,,,,,,13,,,,67,64
32760,note_off,120,0,14,,,,,,,,15,,,,36,64
32760,note_off,120,0,11,,,,,,,,12,,,,64,64
33120,note_on,360,0,13,,,,,,,,14,,,,53,45
33120,note_on,360,0,10,,,,,,,,11,,,,69,60
33120,note_on,360,0,14,,,,,,,,15,,,,41,45
33120,note_on,360,0,12,,,,,,,,13,,,,65,45
33120,note_on,360,0,11,,,,,,,,12,,,,60,45
33240,note_off,120,0,13,,,,,,,,14,,,,53,64
33240,note_off,120,0,11,,,,,,,,12,,,,60,64
33240,note_off,120,0,10,,,,,,,,11,,,,69,64
33240,note_off,120,0,14,,,,,,,,15,,,,41,64
33240,note_off,120,0,12,,,,,,,,13,,,,65,64
33600,note_on,360,0,10,,,,,,,,11,,,,74,60
33600,note_on,360,0,11,,,,,,,,12,,,,65,45
33600,note_on,360,0,13,,,,,,,,14,,,,50,45
33600,note_on,360,0,14,,,,,,,,15,,,,38,45
33600,note_on,360,0,12,,,,,,,,13,,,,69,45
33720,note_off,120,0,12,,,,,,,,13,,,,69,64
33720,note_off,120,0,10,,,,,,,,11,,,,74,64
33720,note_off,120,0,14,,,,,,,,15,,,,38,64
33720,note_off,120,0,13,,,,,,,,14,,,,50,64
33720,note_off,120,0,11,,,,,,,,12,,,,65,64
34080,note_on,360,0,13,,,,,,,,14,,,,57,45
34080,note_on,360,0,11,,,,,,,,12,,,,64,45
34080,note_on,360,0,12,,,,,,,,13,,,,69,45
34080,note_on,360,0,14,,,,,,,,15,,,,45,45
34080,note_on,360,0,10,,,,,,,,11,,,,73,60
34200,note_off,120,0,10,,,,,,,,11,,,,73,64
34200,note_off,120,0,14,,,,,,,,15,,,,45,64
34200,note_off,120,0,11,,,,,,,,12,,,,64,64
34200,note_off,120,0,12,,,,,,,,13,,,,69,64
34200,note_off,120,0,13,,,,,,,,14,,,,57,64
34560,note_on,360,0,10,,,,,,,,11,,,,77,60
34560,note_on,360,0,14,,,,,,,,15,,,,38,45
34560,note_on,360,0,13,,,,,,,,14,,,,50,45
34560,note_on,360,0,12,,,,,,,,13,,,,69,45
34560,note_on,360,0,11,,,,,,,,12,,,,74,45
34680,note_off,120,0,13,,,,,,,,14,,,,50,64
34680,note_off,120,0,14,,,,,,,,15,,,,38,64
34680,note_off,120,0,10,,,,,,,,11,,,,77,64
34680,note_off,120,0,11,,,,,,,,12,,,,74,64
34680,note_off,120,0,12,,,,,,,,13,,,,69,64
35040,note_on,360,0,11,,,,,,,,12,,,,74,45
35040,note_on,360,0,12,,,,,,,,13,,,,70,45
35040,note_on,360,0,14,,,,,,,,15,,,,43,45
35040,note_on,360,0,10,,,,,,,,11,,,,76,60
35040,note_on,360,0,13,,,,,,,,14,,,,55,45
35160,note_off,120,0,10,,,,,,,,11,,,,76,64
35160,note_off,120,0,13,,,,,,,,14,,,,55,64
35160,note_off,120,0,11,,,,,,,,12,,,,74,64
35160,note_off,120,0,12,,,,,,,,13,,,,70,64
35160,note_off,120,0,14,,,,,,,,15,,,,43,64
35520,note_on,360,0,11,,,,,,,,12,,,,74,45
35520,note_on,360,0,12,,,,,,,,13,,,,69,45
35520,note_on,360,0,13,,,,,,,,14,,,,53,45
35520,note_on,360,0,14,,,,,,,,15,,,,41,45
35520,note_on,360,0,10,,,,,,,,11,,,,81,60
35640,note_off,120,0,14,,,,,,,,15,,,,41,64
35640,note_off,120,0,13,,,,,,,,14,,,,53,64
35640,note_off,120,0,10,,,,,,,,11,,,,81,64
35640,note_off,120,0,12,,,,,,,,13,,,,69,64
35640,note_off,120,0,11,,,,,,,,12,,,,74,64
36000,note_on,360,0,13,,,,,,,,14,,,,52,45
36000,note_on,360,0,11,,,,,,,,12,,,,74,45
36000,note_on,360,0,12,,,,,,,,13,,,,70,45
36000,note_on,360,0,10,,,,,,,,11,,,,79,60
36000,note_on,360,0,14,,,,,,,,15,,,,40,45
36120,note_off,120,0,11,,,,,,,,12,,,,74,64
36120,note_on,0,0,10,,,,,,,,11,,,,81,60
36120,note_off,120,0,13,,,,,,,,14,,,,52,64
36120,note_off,120,0,14,,,,,,,,15,,,,40,64
36120,note_off,120,0,10,,,,,,,,11,,,,79,64
36120,note_off,120,0,12,,,,,,,,13,,,,70,64
36240,note_off,120,0,10,,,,,,,,11,,,,81,64
36240,note_on,0,0,10,,,,,,,,11,,,,79,60
36360,note_off,120,0,10,,,,,,,,11,,,,79,64
36360,note_on,0,0,10,,,,,,,,11,,,,81,60
36475,note_off,115,0,10,,,,,,,,11,,,,81,64
36480,note_on,360,0,13,,,,,,,,14,,,,57,45
36480,note_on,360,0,11,,,,,,,,12,,,,73,45
36480,note_on,360,0,14,,,,,,,,15,,,,45,45
36480,note_on,360,0,12,,,,,,,,13,,,,69,45
36480,note_on,5,0,10,,,,,,,,11,,,,77,60
36560,note_off,80,0,10,,,,,,,,11,,,,77,64
36600,note_off,120,0,12,,,,,,,,13,,,,69,64
36600,note_off,120,0,11,,,,,,,,12,,,,73,64
36600,note_off,120,0,13,,,,,,,,14,,,,57,64
36600,note_off,120,0,14,,,,,,,,15,,,,45,64
36720,note_on,160,0,10,,,,,,,,11,,,,76,60
36800,note_off,80,0,10,,,,,,,,11,,,,76,64
36960,note_on,360,0,14,,,,,,,,15,,,,38,45
36960,note_on,160,0,10,,,,,,,,11,,,,77,60
36960,note_on,360,0,11,,,,,,,,12,,,,74,45
36960,note_on,360,0,13,,,,,,,,14,,,,50,45
36960,note_on,360,0,12,,,,,,,,13,,,,69,45
37040,note_off,80,0,10,,,,,,,,11,,,,77,64
37080,note_off,120,0,13,,,,,,,,14,,,,50,64
37080,note_off,120,0,14,,,,,,,,15,,,,38,64
37080,note_off,120,0,11,,,,,,,,12,,,,74,64
37080,note_off,120,0,12,,,,,,,,13,,,,69,64
37200,note_on,160,0,10,,,,,,,,11,,,,79,60
37280,note_off,80,0,10,,,,,,,,11,,,,79,64
37440,note_on,360,0,14,,,,,,,,15,,,,50,45
37440,note_on,360,0,11,,,,,,,,12,,,,65,45
37440,note_on,160,0,10,,,,,,,,11,,,,81,60
37440,note_on,360,0,12,,,,,,,,13,,,,69,45
37440,note_on,360,0,13,,,,,,,,14,,,,62,45
37560,note_off,120,0,12,,,,,,,,13,,,,69,64
37560,note_off,120,0,14,,,,,,,,15,,,,50,64
37560,note_off,120,0,13,,,,,,,,14,,,,62,64
37560,note_off,120,0,10,,,,,,,,11,,,,81,64
37560,note_off,120,0,11,,,,,,,,12,,,,65,64
37920,note_on,360,0,13,,,,,,,,14,,,,62,45
37920,note_on,360,0,10,,,,,,,,11,,,,74,60
37920,note_on,360,0,12,,,,,,,,13,,,,65,45
37920,note_on,360,0,11,,,,,,,,12,,,,69,45
37920,note_on,360,0,14,,,,,,,,15,,,,50,45
38040,note_off,120,0,13,,,,,,,,14,,,,62,64
38040,note_off,120,0,10,,,,,,,,11,,,,74,64
38040,note_off,120,0,14,,,,,,,,15,,,,50,64
38040,note_off,120,0,12,,,,,,,,13,,,,65,64
38040,note_off,120,0,11,,,,,,,,12,,,,69,64
38400,note_on,360,0,14,,,,,,,,15,,,,48,45
38400,note_on,360,0,10,,,,,,,,11,,,,78,60
38400,note_on,360,0,13,,,,,,,,14,,,,60,45
38400,note_on,360,0,12,,,,,,,,13,,,,69,45
38400,note_on,360,0,11,,,,,,,,12,,,,74,45
38520,note_off,120,0,14,,,,,,,,15,,,,48,64
38520,note_off,120,0,10,,,,,,,,11,,,,78,64
38520,note_off,120,0,11,,,,,,,,12,,,,74,64
38520,note_off,120,0,13,,,,,,,,14,,,,60,64
38520,note_off,120,0,12,,,,,,,,13,,,,69,64
38880,note_on,360,0,11,,,,,,,,12,,,,74,45
38880,note_on,360,0,10,,,,,,,,11,,,,79,60
38880,note_on,360,0,13,,,,,,,,14,,,,58,45
38880,note_on,360,0,12,,,,,,,,13,,,,67,45
38880,note_on,360,0,14,,,,,,,,15,,,,46,45
38960,note_off,80,0,10,,,,,,,,11,,,,79,64
39000,note_off,120,0,12,,,,,,,,13,,,,67,64
39000,note_off,120,0,13,,,,,,,,14,,,,58,64
39000,note_off,120,0,14,,,,,,,,15,,,,46,64
39000,note_off,120,0,11,,,,,,,,12,,,,74,64
39120,note_on,160,0,10,,,,,,,,11,,,,81,60
39200,note_off,80,0,10,,,,,,,,11,,,,81,64
39360,note_on,360,0,14,,,,,,,,15,,,,43,45
39360,note_on,360,0,13,,,,,,,,14,,,,55,45
39360,note_on,360,0,12,,,,,,,,13,,,,67,45
39360,note_on,160,0,10,,,,,,,,11,,,,82,60
39360,note_on,360,0,11,,,,,,,,12,,,,70,45
39480,note_off,120,0,10,,,,,,,,11,,,,82,64
39480,note_off,120,0,13,,,,,,,,14,,,,55,64
39480,note_off,120,0,12,,,,,,,,13,,,,67,64
39480,note_off,120,0,11,,,,,,,,12,,,,70,64
39480,note_off,120,0,14,,,,,,,,15,,,,43,64
39840,note_on,360,0,14,,,,,,,,15,,,,43,45
39840,note_on,360,0,10,,,,,,,,11,,,,74,60
39840,note_on,360,0,13,,,,,,,,14,,,,55,45
39840,note_on,360,0,11,,,,,,,,12,,,,70,45
39840,note_on,360,0,12,,,,,,,,13,,,,67,45
39920,note_off,80,0,13,,,,,,,,14,,,,55,64
39920,note_off,80,0,11,,,,,,,,12,,,,70,64
39920,note_off,80,0,14,,,,,,,,15,,,,43,64
39960,note_off,120,0,10,,,,,,,,11,,,,74,64
39960,note_off,120,0,12,,,,,,,,13,,,,67,64
40080,note_on,160,0,13,,,,,,,,14,,,,57,45
40080,note_on,160,0,11,,,,,,,,12,,,,69,45
40080,note_on,160,0,14,,,,,,,,15,,,,45,45
40160,note_off,80,0,13,,,,,,,,14,,,,57,64
40160,note_off,80,0,14,,,,,,,,15,,,,45,64
40160,note_off,80,0,11,,,,,,,,12,,,,69,64
40320,note_on,160,0,14,,,,,,,,15,,,,46,45
40320,note_on,160,0,13,,,,,,,,14,,,,58,45
40320,note_on,360,0,12,,,,,,,,13,,,,62,45
40320,note_on,160,0,11,,,,,,,,12,,,,67,45
40320,note_on,360,0,10,,,,,,,,11,,,,79,60
40400,note_off,80,0,10,,,,,,,,11,,,,79,64
40440,note_off,120,0,12,,,,,,,,13,,,,62,64
40440,note_off,120,0,14,,,,,,,,15,,,,46,64
40440,note_off,120,0,13,,,,,,,,14,,,,58,64
40440,note_off,120,0,11,,,,,,,,12,,,,67,64
40560,note_on,160,0,10,,,,,,,,11,,,,77,60
40640,note_off,80,0,10,,,,,,,,11,,,,77,64
40800,note_on,360,0,13,,,,,,,,14,,,,60,45
40800,note_on,360,0,14,,,,,,,,15,,,,48,45
40800,note_on,160,0,10,,,,,,,,11,,,,76,60
40800,note_on,360,0,12,,,,,,,,13,,,,60,45
40800,note_on,360,0,11,,,,,,,,12,,,,67,45
40880,note_off,80,0,10,,,,,,,,11,,,,76,64
40920,note_off,120,0,12,,,,,,,,13,,,,60,64
40920,note_off,120,0,11,,,,,,,,12,,,,67,64
40920,note_off,120,0,14,,,,,,,,15,,,,48,64
40920,note_off,120,0,13,,,,,,,,14,,,,60,64
41040,note_on,160,0,10,,,,,,,,11,,,,77,60
41120,note_off,80,0,10,,,,,,,,11,,,,77,64
41280,note_on,360,0,11,,,,,,,,12,,,,64,45
41280,note_on,360,0,12,,,,,,,,13,,,,60,45
41280,note_on,160,0,10,,,,,,,,11,,,,79,60
41280,note_on,360,0,13,,,,,,,,14,,,,48,45
41280,note_on,360,0,14,,,,,,,,15,,,,36,45
41400,note_off,120,0,10,,,,,,,,11,,,,79,64
41400,note_off,120,0,11,,,,,,,,12,,,,64,64
41400,note_off,120,0,12,,,,,,,,13,,,,60,64
41400,note_off,120,0,13,,,,,,,,14,,,,48,64
41400,note_off,120,0,14,,,,,,,,15,,,,36,64
41760,note_on,360,0,11,,,,,,,,12,,,,64,45
41760,note_on,360,0,13,,,,,,,,14,,,,48,45
41760,note_on,360,0,14,,,,,,,,15,,,,36,45
41760,note_on,360,0,10,,,,,,,,11,,,,72,60
41760,note_on,360,0,12,,,,,,,,13,,,,67,45
41840,note_off,80,0,14,,,,,,,,15,,,,36,64
41840,note_off,80,0,11,,,,,,,,12,,,,64,64
41840,note_off,80,0,13,,,,,,,,14,,,,48,64
41880,note_off,120,0,10,,,,,,,,11,,,,72,64
41880,note_off,120,0,12,,,,,,,,13,,,,67,64
42000,note_on,160,0,11,,,,,,,,12,,,,65,45
42000,note_on,160,0,14,,,,,,,,15,,,,38,45
42000,note_on,160,0,13,,,,,,,,14,,,,50,45
42080,note_off,80,0,13,,,,,,,,14,,,,50,64
42080,note_off,80,0,11,,,,,,,,12,,,,65,64
42080,note_off,80,0,14,,,,,,,,15,,,,38,64
42240,note_on,360,0,10,,,,,,,,11,,,,70,60
42240,note_on,160,0,11,,,,,,,,12,,,,67,45
42240,note_on,160,0,13,,,,,,,,14,,,,52,45
42240,note_on,160,0,14,,,,,,,,15,,,,40,45
42240,note_on,360,0,12,,,,,,,,13,,,,60,45
42360,note_off,120,0,12,,,,,,,,13,,,,60,64
42360,note_off,120,0,10,,,,,,,,11,,,,70,64
42360,note_off,120,0,13,,,,,,,,14,,,,52,64
42360,note_off,120,0,14,,,,,,,,15,,,,40,64
42360,note_off,120,0,11,,,,,,,,12,,,,67,64
42720,note_on,360,0,13,,,,,,,,14,,,,53,45
42720,note_on,360,0,14,,,,,,,,15,,,,41,45
42720,note_on,360,0,11,,,,,,,,12,,,,69,45
42720,note_on,360,0,10,,,,,,,,11,,,,69,60
42720,note_on,360,0,12,,,,,,,,13,,,,60,45
42800,note_off,80,0,10,,,,,,,,11,,,,69,64
42840,note_off,120,0,14,,,,,,,,15,,,,41,64
42840,note_off,120,0,13,,,,,,,,14,,,,53,64
42840,note_off,120,0,12,,,,,,,,13,,,,60,64
42840,note_off,120,0,11,,,,,,,,12,,,,69,64
42960,note_on,160,0,10,,,,,,,,11,,,,70,60
43040,note_off,80,0,10,,,,,,,,11,,,,70,64
43200,note_on,360,0,11,,,,,,,,12,,,,65,45
43200,note_on,360,0,12,,,,,,,,13,,,,60,45
43200,note_on,160,0,10,,,,,,,,11,,,,72,60
43200,note_on,360,0,14,,,,,,,,15,,,,33,45
43200,note_on,360,0,13,,,,,,,,14,,,,45,45
43320,note_off,120,0,12,,,,,,,,13,,,,60,64
43320,note_off,120,0,13,,,,,,,,14,,,,45,64
43320,note_off,120,0,10,,,,,,,,11,,,,72,64
43320,note_off,120,0,11,,,,,,,,12,,,,65,64
43320,note_off,120,0,14,,,,,,,,15,,,,33,64
43680,note_on,360,0,11,,,,,,,,12,,,,62,45
43680,note_on,360,0,14,,,,,,,,15,,,,34,45
43680,note_on,360,0,10,,,,,,,,11,,,,67,60
43680,note_on,360,0,12,,,,,,,,13,,,,58,45
43680,note_on,360,0,13,,,,,,,,14,,,,46,45
43760,note_off,80,0,13,,,,,,,,14,,,,46,64
43760,note_off,80,0,14,,,,,,,,15,,,,34,64
43800,note_off,120,0,11,,,,,,,,12,,,,62,64
43800,note_off,120,0,12,,,,,,,,13,,,,58,64
43800,note_off,120,0,10,,,,,,,,11,,,,67,64
43920,note_on,160,0,13,,,,,,,,14,,,,48,45
43920,note_on,160,0,14,,,,,,,,15,,,,36,45
44000,note_off,80,0,14,,,,,,,,15,,,,36,64
44000,note_off,80,0,13,,,,,,,,14,,,,48,64
44160,note_on,360,0,10,,,,,,,,11,,,,65,60
44160,note_on,360,0,11,,,,,,,,12,,,,65,45
44160,note_on,360,0,12,,,,,,,,13,,,,53,45
44160,note_on,160,0,13,,,,,,,,14,,,,50,45
44160,note_on,160,0,14,,,,,,,,15,,,,38,45
44280,note_off,120,0,10,,,,,,,,11,,,,65,64
44280,note_off,120,0,12,,,,,,,,13,,,,53,64
44280,note_off,120,0,11,,,,,,,,12,,,,65,64
44280,note_off,120,0,13,,,,,,,,14,,,,50,64
44280,note_off,120,0,14,,,,,,,,15,,,,38,64
44640,note_on,360,0,12,,,,,,,,13,,,,55,45
44640,note_on,360,0,10,,,,,,,,11,,,,64,60
44640,note_on,360,0,11,,,,,,,,12,,,,60,45
44640,note_on,360,0,13,,,,,,,,14,,,,48,45
44640,note_on,360,0,14,,,,,,,,15,,,,36,45
44720,note_off,80,0,10,,,,,,,,11,,,,64,64
44760,note_off,120,0,13,,,,,,,,14,,,,48,64
44760,note_off,120,0,11,,,,,,,,12,,,,60,64
44760,note_off,120,0,14,,,,,,,,15,,,,36,64
44880,note_on,160,0,10,,,,,,,,11,,,,65,60
44960,note_off,80,0,10,,,,,,,,11,,,,65,64
45120,note_on,360,0,14,,,,,,,,15,,,,34,45
45120,note_on,360,0,13,,,,,,,,14,,,,46,45
45120,note_on,160,0,10,,,,,,,,11,,,,67,60
45240,note_off,120,0,10,,,,,,,,11,,,,67,64
45240,note_off,120,0,13,,,,,,,,14,,,,46,64
45240,note_off,120,0,14,,,,,,,,15,,,,34,64
45480,note_off,840,0,12,,,,,,,,13,,,,55,64
45600,note_on,360,0,10,,,,,,,,11,,,,60,60
45600,note_on,360,0,13,,,,,,,,14,,,,45,45
45600,note_on,360,0,14,,,,,,,,15,,,,33,45
45600,note_on,120,0,12,,,,,,,,13,,,,57,45
45720,note_off,120,0,10,,,,,,,,11,,,,60,64
45720,note_off,120,0,12,,,,,,,,13,,,,57,64
45720,note_off,120,0,13,,,,,,,,14,,,,45,64
45720,note_off,120,0,14,,,,,,,,15,,,,33,64
46080,note_on,360,0,14,,,,,,,,15,,,,31,45
46080,note_on,1320,0,11,,,,,,,,12,,,,64,45
46080,note_on,360,0,12,,,,,,,,13,,,,58,45
46080,note_on,360,0,13,,,,,,,,14,,,,43,45
46080,note_on,360,0,10,,,,,,,,11,,,,72,60
46200,note_off,120,0,14,,,,,,,,15,,,,31,64
46200,note_off,120,0,11,,,,,,,,12,,,,64,64
46200,note_off,120,0,12,,,,,,,,13,,,,58,64
46200,note_off,120,0,13,,,,,,,,14,,,,43,64
46200,note_off,120,0,10,,,,,,,,11,,,,72,64
46560,note_on,360,0,12,,,,,,,,13,,,,60,45
46560,note_on,360,0,14,,,,,,,,15,,,,29,45
46560,note_on,360,0,11,,,,,,,,12,,,,65,45
46560,note_on,360,0,10,,,,,,,,11,,,,69,60
46560,note_on,360,0,13,,,,,,,,14,,,,41,45
46680,note_off,120,0,10,,,,,,,,11,,,,69,64
46680,note_off,120,0,11,,,,,,,,12,,,,65,64
46680,note_off,120,0,14,,,,,,,,15,,,,29,64
46680,note_off,120,0,13,,,,,,,,14,,,,41,64
46680,note_off,120,0,12,,,,,,,,13,,,,60,64
47040,note_on,360,0,10,,,,,,,,11,,,,74,60
47040,note_on,360,0,14,,,,,,,,15,,,,34,45
47040,note_on,360,0,13,,,,,,,,14,,,,46,45
47040,note_on,360,0,12,,,,,,,,13,,,,58,45
47040,note_on,360,0,11,,,,,,,,12,,,,65,45
47160,note_off,120,0,11,,,,,,,,12,,,,65,64
47160,note_off,120,0,10,,,,,,,,11,,,,74,64
47160,note_off,120,0,12,,,,,,,,13,,,,58,64
47160,note_off,120,0,14,,,,,,,,15,,,,34,64
47160,note_off,120,0,13,,,,,,,,14,,,,46,64
47520,note_on,360,0,10,,,,,,,,11,,,,72,60
47520,note_on,360,0,14,,,,,,,,15,,,,33,45
47520,note_on,360,0,11,,,,,,,,12,,,,65,45
47520,note_on,360,0,13,,,,,,,,14,,,,45,45
47520,note_on,360,0,12,,,,,,,,13,,,,60,45
47640,note_off,120,0,10,,,,,,,,11,,,,72,64
47640,note_off,120,0,11,,,,,,,,12,,,,65,64
47640,note_off,120,0,14,,,,,,,,15,,,,33,64
47640,note_off,120,0,13,,,,,,,,14,,,,45,64
47640,note_off,120,0,12,,,,,,,,13,,,,60,64
48000,note_on,360,0,13,,,,,,,,14,,,,41,45
48000,note_on,360,0,14,,,,,,,,15,,,,29,45
48000,note_on,360,0,10,,,,,,,,11,,,,77,60
48000,note_on,360,0,11,,,,,,,,12,,,,69,45
48000,note_on,360,0,12,,,,,,,,13,,,,60,45
48120,note_off,120,0,12,,,,,,,,13,,,,60,64
48120,note_off,120,0,13,,,,,,,,14,,,,41,64
48120,note_off,120,0,11,,,,,,,,12,,,,69,64
48120,note_off,120,0,10,,,,,,,,11,,,,77,64
48120,note_off,120,0,14,,,,,,,,15,,,,29,64
48480,note_on,360,0,12,,,,,,,,13,,,,60,45
48480,note_on,360,0,14,,,,,,,,15,,,,36,45
48480,note_on,360,0,13,,,,,,,,14,,,,48,45
48480,note_on,360,0,11,,,,,,,,12,,,,67,45
48480,note_on,360,0,10,,,,,,,,11,,,,76,60
48600,note_off,120,0,11,,,,,,,,12,,,,67,64
48600,note_off,120,0,14,,,,,,,,15,,,,36,64
48600,note_off,120,0,10,,,,,,,,11,,,,76,64
48600,note_off,120,0,12,,,,,,,,13,,,,60,64
48600,note_off,120,0,13,,,,,,,,14,,,,48,64
48960,note_on,360,0,12,,,,,,,,13,,,,60,45
48960,note_on,360,0,14,,,,,,,,15,,,,41,45
48960,note_on,360,0,11,,,,,,,,12,,,,65,45
48960,note_on,360,0,13,,,,,,,,14,,,,53,45
48960,note_on,360,0,10,,,,,,,,11,,,,81,60
49080,note_off,120,0,11,,,,,,,,12,,,,65,64
49080,note_off,120,0,14,,,,,,,,15,,,,41,64
49080,note_off,120,0,10,,,,,,,,11,,,,81,64
49080,note_off,120,0,12,,,,,,,,13,,,,60,64
49080,note_off,120,0,13,,,,,,,,14,,,,53,64
49440,note_on,360,0,11,,,,,,,,12,,,,72,45
49440,note_on,360,0,13,,,,,,,,14,,,,52,45
49440,note_on,360,0,12,,,,,,,,13,,,,60,45
49440,note_on,360,0,14,,,,,,,,15,,,,40,45
49440,note_on,360,0,10,,,,,,,,11,,,,79,60
49520,note_off,80,0,10,,,,,,,,11,,,,79,64
49560,note_off,120,0,14,,,,,,,,15,,,,40,64
49560,note_off,120,0,12,,,,,,,,13,,,,60,64
49560,note_off,120,0,13,,,,,,,,14,,,,52,64
49560,note_off,120,0,11,,,,,,,,12,,,,72,64
49680,note_on,160,0,10,,,,,,,,11,,,,81,60
49760,note_off,80,0,10,,,,,,,,11,,,,81,64
49920,note_on,160,0,10,,,,,,,,11,,,,82,60
49920,note_on,360,0,13,,,,,,,,14,,,,48,45
49920,note_on,360,0,12,,,,,,,,13,,,,60,45
49920,note_on,360,0,14,,,,,,,,15,,,,36,45
49920,note_on,360,0,11,,,,,,,,12,,,,64,45
50040,note_off,120,0,13,,,,,,,,14,,,,48,64
50040,note_off,120,0,12,,,,,,,,13,,,,60,64
50040,note_off,120,0,10,,,,,,,,11,,,,82,64
50040,note_off,120,0,14,,,,,,,,15,,,,36,64
50040,note_off,120,0,11,,,,,,,,12,,,,64,64
50400,note_on,360,0,11,,,,,,,,12,,,,65,45
50400,note_on,360,0,13,,,,,,,,14,,,,53,45
50400,note_on,360,0,14,,,,,,,,15,,,,41,45
50400,note_on,360,0,10,,,,,,,,11,,,,81,60
50400,note_on,360,0,12,,,,,,,,13,,,,60,45
50520,note_off,120,0,13,,,,,,,,14,,,,53,64
50520,note_on,0,0,10,,,,,,,,11,,,,82,60
50520,note_off,120,0,10,,,,,,,,11,,,,81,64
50520,note_off,120,0,11,,,,,,,,12,,,,65,64
50520,note_off,120,0,12,,,,,,,,13,,,,60,64
50520,note_off,120,0,14,,,,,,,,15,,,,41,64
50640,note_off,120,0,10,,,,,,,,11,,,,82,64
50640,note_on,0,0,10,,,,,,,,11,,,,81,60
50760,note_on,0,0,10,,,,,,,,11,,,,82,60
50760,note_off,120,0,10,,,,,,,,11,,,,81,64
50875,note_off,115,0,10,,,,,,,,11,,,,82,64
50880,note_on,360,0,14,,,,,,,,15,,,,45,45
50880,note_on,360,0,11,,,,,,,,12,,,,72,45
50880,note_on,5,0,10,,,,,,,,11,,,,79,60
50880,note_on,360,0,12,,,,,,,,13,,,,60,45
50880,note_on,360,0,13,,,,,,,,14,,,,57,45
50960,note_off,80,0,10,,,,,,,,11,,,,79,64
51000,note_off,120,0,12,,,,,,,,13,,,,60,64
51000,note_off,120,0,14,,,,,,,,15,,,,45,64
51000,note_off,120,0,11,,,,,,,,12,,,,72,64
51000,note_off,120,0,13,,,,,,,,14,,,,57,64
51120,note_on,160,0,10,,,,,,,,11,,,,77,60
51200,note_off,80,0,10,,,,,,,,11,,,,77,64
51360,note_on,160,0,10,,,,,,,,11,,,,76,60
51360,note_on,360,0,11,,,,,,,,12,,,,67,45
51360,note_on,360,0,12,,,,,,,,13,,,,64,45
51360,note_on,360,0,13,,,,,,,,14,,,,60,45
51360,note_on,360,0,14,,,,,,,,15,,,,48,45
51440,note_off,80,0,11,,,,,,,,12,,,,67,64
51440,note_off,80,0,10,,,,,,,,11,,,,76,64
51480,note_off,120,0,13,,,,,,,,14,,,,60,64
51480,note_off,120,0,12,,,,,,,,13,,,,64,64
51480,note_off,120,0,14,,,,,,,,15,,,,48,64
51600,note_on,160,0,11,,,,,,,,12,,,,69,45
51600,note_on,160,0,10,,,,,,,,11,,,,77,60
51680,note_off,80,0,11,,,,,,,,12,,,,69,64
51680,note_off,80,0,10,,,,,,,,11,,,,77,64
51840,note_on,160,0,11,,,,,,,,12,,,,70,45
51840,note_on,160,0,10,,,,,,,,11,,,,79,60
51840,note_on,360,0,14,,,,,,,,15,,,,36,45
51840,note_on,360,0,13,,,,,,,,14,,,,48,45
51840,note_on,360,0,12,,,,,,,,13,,,,64,45
51960,note_off,120,0,13,,,,,,,,14,,,,48,64
51960,note_off,120,0,10,,,,,,,,11,,,,79,64
51960,note_off,120,0,14,,,,,,,,15,,,,36,64
51960,note_off,120,0,12,,,,,,,,13,,,,64,64
51960,note_off,120,0,11,,,,,,,,12,,,,70,64
52320,note_on,360,0,10,,,,,,,,11,,,,77,60
52320,note_on,360,0,13,,,,,,,,14,,,,50,45
52320,note_on,360,0,14,,,,,,,,15,,,,38,45
52320,note_on,360,0,12,,,,,,,,13,,,,65,45
52320,note_on,360,0,11,,,,,,,,12,,,,69,45
52440,note_off,120,0,10,,,,,,,,11,,,,77,64
52440,note_on,0,0,10,,,,,,,,11,,,,79,60
52440,note_off,120,0,11,,,,,,,,12,,,,69,64
52440,note_off,120,0,12,,,,,,,,13,,,,65,64
52440,note_off,120,0,13,,,,,,,,14,,,,50,64
52440,note_off,120,0,14,,,,,,,,15,,,,38,64
52560,note_on,0,0,10,,,,,,,,11,,,,77,60
52560,note_off,120,0,10,,,,,,,,11,,,,79,64
52680,note_on,0,0,10,,,,,,,,11,,,,79,60
52680,note_off,120,0,10,,,,,,,,11,,,,77,64
52795,note_off,115,0,10,,,,,,,,11,,,,79,64
52800,note_on,360,0,13,,,,,,,,14,,,,58,45
52800,note_on,5,0,10,,,,,,,,11,,,,76,60
52800,note_on,360,0,14,,,,,,,,15,,,,46,45
52800,note_on,360,0,11,,,,,,,,12,,,,70,45
52800,note_on,360,0,12,,,,,,,,13,,,,65,45
52880,note_off,80,0,10,,,,,,,,11,,,,76,64
52920,note_off,120,0,13,,,,,,,,14,,,,58,64
52920,note_off,120,0,14,,,,,,,,15,,,,46,64
52920,note_off,120,0,12,,,,,,,,13,,,,65,64
52920,note_off,120,0,11,,,,,,,,12,,,,70,64
53040,note_on,160,0,10,,,,,,,,11,,,,74,60
53120,note_off,80,0,10,,,,,,,,11,,,,74,64
53280,note_on,360,0,13,,,,,,,,14,,,,52,45
53280,note_on,160,0,10,,,,,,,,11,,,,72,60
53280,note_on,360,0,11,,,,,,,,12,,,,67,45
53280,note_on,360,0,14,,,,,,,,15,,,,40,45
53280,note_on,360,0,12,,,,,,,,13,,,,67,45
53400,note_off,120,0,10,,,,,,,,11,,,,72,64
53400,note_off,120,0,13,,,,,,,,14,,,,52,64
53400,note_off,120,0,12,,,,,,,,13,,,,67,64
53400,note_off,120,0,11,,,,,,,,12,,,,67,64
53400,note_off,120,0,14,,,,,,,,15,,,,40,64
53760,note_on,360,0,10,,,,,,,,11,,,,70,60
53760,note_on,360,0,14,,,,,,,,15,,,,48,45
53760,note_on,360,0,12,,,,,,,,13,,,,67,45
53760,note_on,360,0,11,,,,,,,,12,,,,64,45
53760,note_on,360,0,13,,,,,,,,14,,,,60,45
53880,note_off,120,0,12,,,,,,,,13,,,,67,64
53880,note_off,120,0,10,,,,,,,,11,,,,70,64
53880,note_off,120,0,14,,,,,,,,15,,,,48,64
53880,note_off,120,0,13,,,,,,,,14,,,,60,64
53880,note_off,120,0,11,,,,,,,,12,,,,64,64
54240,note_on,360,0,13,,,,,,,,14,,,,53,45
54240,note_on,360,0,12,,,,,,,,13,,,,69,45
54240,note_on,360,0,10,,,,,,,,11,,,,69,60
54240,note_on,360,0,11,,,,,,,,12,,,,65,45
54240,note_on,360,0,14,,,,,,,,15,,,,41,45
54320,note_off,80,0,10,,,,,,,,11,,,,69,64
54360,note_off,120,0,11,,,,,,,,12,,,,65,64
54360,note_off,120,0,12,,,,,,,,13,,,,69,64
54360,note_off,120,0,13,,,,,,,,14,,,,53,64
54360,note_off,120,0,14,,,,,,,,15,,,,41,64
54480,note_on,160,0,10,,,,,,,,11,,,,70,63
54560,note_off,80,0,10,,,,,,,,11,,,,70,64
54720,note_on,360,0,12,,,,,,,,13,,,,60,51
54720,note_on,360,0,13,,,,,,,,14,,,,45,51
54720,note_on,360,0,11,,,,,,,,12,,,,65,51
54720,note_on,160,0,10,,,,,,,,11,,,,72,66
54720,note_on,360,0,14,,,,,,,,15,,,,45,51
54840,note_off,120,0,12,,,,,,,,13,,,,60,64
54840,note_off,120,0,14,,,,,,,,15,,,,45,64
54840,note_off,120,0,10,,,,,,,,11,,,,72,64
54840,note_off,120,0,13,,,,,,,,14,,,,45,64
54840,note_off,120,0,11,,,,,,,,12,,,,65,64
55200,note_on,360,0,11,,,,,,,,12,,,,65,57
55200,note_on,360,0,12,,,,,,,,13,,,,60,57
55200,note_on,360,0,13,,,,,,,,14,,,,48,57
55200,note_on,360,0,14,,,,,,,,15,,,,48,57
55200,note_on,360,0,10,,,,,,,,11,,,,69,73
55320,note_off,120,0,12,,,,,,,,13,,,,60,64
55320,note_off,120,0,11,,,,,,,,12,,,,65,64
55320,note_off,120,0,13,,,,,,,,14,,,,48,64
55320,note_off,120,0,14,,,,,,,,15,,,,48,64
55320,note_off,120,0,10,,,,,,,,11,,,,69,64
55680,note_on,360,0,13,,,,,,,,14,,,,36,64
55680,note_on,360,0,12,,,,,,,,13,,,,58,64
55680,note_on,360,0,10,,,,,,,,11,,,,67,80
55680,note_on,360,0,11,,,,,,,,12,,,,64,64
55680,note_on,360,0,14,,,,,,,,15,,,,36,64
55760,note_off,80,0,10,,,,,,,,11,,,,67,64
55800,note_off,120,0,14,,,,,,,,15,,,,36,64
55800,note_off,120,0,13,,,,,,,,14,,,,36,64
55800,note_off,120,0,11,,,,,,,,12,,,,64,64
55800,note_off,120,0,12,,,,,,,,13,,,,58,64
55920,note_on,160,0,10,,,,,,,,11,,,,65,83
56000,note_off,80,0,10,,,,,,,,11,,,,65,64
56160,note_on,360,0,12,,,,,,,,13,,,,57,71
56160,note_on,360,0,13,,,,,,,,14,,,,41,71
56160,note_on,360,0,11,,,,,,,,12,,,,65,71
56160,note_on,160,0,10,,,,,,,,11,,,,65,86
56160,note_on,360,0,14,,,,,,,,15,,,,41,71
57480,note_off,1320,0,13,,,,,,,,14,,,,41,64
57480,note_off,1320,0,12,,,,,,,,13,,,,57,64
57480,note_off,1320,0,11,,,,,,,,12,,,,65,64
57480,note_off,1320,0,10,,,,,,,,11,,,,65,64
57480,note_off,1320,0,14,,,,,,,,15,,,,41,64
57600,note_on,27240,0,5,,,,,,,,3,,,,64,92
57600,note_on,120,0,11,,,,,,,,12,,,,64,92
57600,note_on,120,0,10,,,,,,,,11,,,,79,108
57600,note_on,27000,0,1,,,,,,,,0,,,,79,108
57600,note_on,120,0,12,,,,,,,,13,,,,60,92
57600,note_on,27240,0,7,,,,,,,,4,,,,48,92
57600,note_on,120,0,14,,,,,,,,15,,,,36,92
57600,note_on,27240,0,2,,,,,,,,1,,,,64,92
57600,note_on,27000,0,9,,,,,,,,5,,,,60,92
57600,note_on,27000,0,6,,,,,,,,3,,,,60,92
57600,note_on,27240,0,8,,,,,,,,5,,,,64,92
57600,note_on,27000,0,3,,,,,,,,2,,,,79,108
57600,note_on,120,0,13,,,,,,,,14,,,,48,92
57600,note_on,27240,0,4,,,,,,,,2,,,,64,92
57720,note_off,120,0,13,,,,,,,,14,,,,48,64
57720,note_off,120,0,5,,,,,,,,3,,,,64,64
57720,note_off,120,0,11,,,,,,,,12,,,,64,64
57720,note_off,120,0,8,,,,,,,,5,,,,64,64
57720,note_off,120,0,12,,,,,,,,13,,,,60,64
57720,note_off,120,0,10,,,,,,,,11,,,,79,64
57720,note_off,120,0,1,,,,,,,,0,,,,79,64
57720,note_off,120,0,2,,,,,,,,1,,,,64,64
57720,note_off,120,0,3,,,,,,,,2,,,,79,64
57720,note_off,120,0,9,,,,,,,,5,,,,60,64
57720,note_off,120,0,4,,,,,,,,2,,,,64,64
57720,note_off,120,0,7,,,,,,,,4,,,,48,64
57720,note_off,120,0,14,,,,,,,,15,,,,36,64
57720,note_off,120,0,6,,,,,,,,3,,,,60,64
58080,note_on,360,0,12,,,,,,,,13,,,,60,92
58080,note_on,360,0,1,,,,,,,,0,,,,76,108
58080,note_on,360,0,8,,,,,,,,5,,,,67,92
58080,note_on,360,0,6,,,,,,,,3,,,,60,92
58080,note_on,360,0,13,,,,,,,,14,,,,60,92
58080,note_on,360,0,7,,,,,,,,4,,,,60,92
58080,note_on,360,0,5,,,,,,,,3,,,,67,92
58080,note_on,360,0,14,,,,,,,,15,,,,48,92
58080,note_on,360,0,11,,,,,,,,12,,,,67,92
58080,note_on,360,0,10,,,,,,,,11,,,,76,108
58080,note_on,360,0,3,,,,,,,,2,,,,76,108
58080,note_on,360,0,2,,,,,,,,1,,,,67,92
58080,note_on,360,0,9,,,,,,,,5,,,,60,92
58080,note_on,360,0,4,,,,,,,,2,,,,67,92
58200,note_off,120,0,6,,,,,,,,3,,,,60,64
58200,note_off,120,0,3,,,,,,,,2,,,,76,64
58200,note_off,120,0,1,,,,,,,,0,,,,76,64
58200,note_off,120,0,14,,,,,,,,15,,,,48,64
58200,note_off,120,0,7,,,,,,,,4,,,,60,64
58200,note_off,120,0,12,,,,,,,,13,,,,60,64
58200,note_off,120,0,4,,,,,,,,2,,,,67,64
58200,note_off,120,0,11,,,,,,,,12,,,,67,64
58200,note_off,120,0,9,,,,,,,,5,,,,60,64
58200,note_off,120,0,2,,,,,,,,1,,,,67,64
58200,note_off,120,0,10,,,,,,,,11,,,,76,64
58200,note_off,120,0,8,,,,,,,,5,,,,67,64
58200,note_off,120,0,5,,,,,,,,3,,,,67,64
58200,note_off,120,0,13,,,,,,,,14,,,,60,64
58560,note_on,360,0,4,,,,,,,,2,,,,65,92
58560,note_on,360,0,5,,,,,,,,3,,,,65,92
58560,note_on,360,0,7,,,,,,,,4,,,,53,92
58560,note_on,360,0,11,,,,,,,,12,,,,65,92
58560,note_on,360,0,6,,,,,,,,3,,,,60,92
58560,note_on,360,0,3,,,,,,,,2,,,,81,108
58560,note_on,360,0,14,,,,,,,,15,,,,41,92
58560,note_on,360,0,2,,,,,,,,1,,,,65,92
58560,note_on,360,0,8,,,,,,,,5,,,,65,92
58560,note_on,360,0,12,,,,,,,,13,,,,60,92
58560,note_on,360,0,1,,,,,,,,0,,,,81,108
58560,note_on,360,0,13,,,,,,,,14,,,,53,92
58560,note_on,360,0,10,,,,,,,,11,,,,81,108
58560,note_on,360,0,9,,,,,,,,5,,,,60,92
58680,note_off,120,0,3,,,,,,,,2,,,,81,64
58680,note_off,120,0,11,,,,,,,,12,,,,65,64
58680,note_off,120,0,7,,,,,,,,4,,,,53,64
58680,note_off,120,0,8,,,,,,,,5,,,,65,64
58680,note_off,120,0,1,,,,,,,,0,,,,81,64
58680,note_off,120,0,5,,,,,,,,3,,,,65,64
58680,note_off,120,0,9,,,,,,,,5,,,,60,64
58680,note_off,120,0,6,,,,,,,,3,,,,60,64
58680,note_off,120,0,10,,,,,,,,11,,,,81,64
58680,note_off,120,0,14,,,,,,,,15,,,,41,64
58680,note_off,120,0,4,,,,,,,,2,,,,65,64
58680,note_off,120,0,12,,,,,,,,13,,,,60,64
58680,note_off,120,0,13,,,,,,,,14,,,,53,64
58680,note_off,120,0,2,,,,,,,,1,,,,65,64
59040,note_on,360,0,6,,,,,,,,3,,,,60,92
59040,note_on,360,0,7,,,,,,,,4,,,,52,92
59040,note_on,360,0,10,,,,,,,,11,,,,79,108
59040,note_on,360,0,9,,,,,,,,5,,,,60,92
59040,note_on,360,0,3,,,,,,,,2,,,,79,108
59040,note_on,360,0,12,,,,,,,,13,,,,60,92
59040,note_on,360,0,11,,,,,,,,12,,,,72,92
59040,note_on,360,0,8,,,,,,,,5,,,,72,92
59040,note_on,360,0,4,,,,,,,,2,,,,72,92
59040,note_on,360,0,2,,,,,,,,1,,,,72,92
59040,note_on,360,0,5,,,,,,,,3,,,,72,92
59040,note_on,360,0,14,,,,,,,,15,,,,40,92
59040,note_on,360,0,1,,,,,,,,0,,,,79,108
59040,note_on,360,0,13,,,,,,,,14,,,,52,92
59160,note_off,120,0,14,,,,,,,,15,,,,40,64
59160,note_off,120,0,13,,,,,,,,14,,,,52,64
59160,note_off,120,0,5,,,,,,,,3,,,,72,64
59160,note_off,120,0,10,,,,,,,,11,,,,79,64
59160,note_off,120,0,3,,,,,,,,2,,,,79,64
59160,note_off,120,0,8,,,,,,,,5,,,,72,64
59160,note_off,120,0,7,,,,,,,,4,,,,52,64
59160,note_off,120,0,6,,,,,,,,3,,,,60,64
59160,note_off,120,0,1,,,,,,,,0,,,,79,64
59160,note_off,120,0,12,,,,,,,,13,,,,60,64
59160,note_off,120,0,2,,,,,,,,1,,,,72,64
59160,note_off,120,0,4,,,,,,,,2,,,,72,64
59160,note_off,120,0,9,,,,,,,,5,,,,60,64
59160,note_off,120,0,11,,,,,,,,12,,,,72,64
59520,note_on,360,0,2,,,,,,,,1,,,,64,92
59520,note_on,360,0,5,,,,,,,,3,,,,64,92
59520,note_on,360,0,6,,,,,,,,3,,,,67,92
59520,note_on,360,0,7,,,,,,,,4,,,,48,92
59520,note_on,360,0,3,,,,,,,,2,,,,70,108
59520,note_on,360,0,11,,,,,,,,12,,,,64,92
59520,note_on,360,0,9,,,,,,,,5,,,,67,92
59520,note_on,360,0,13,,,,,,,,14,,,,48,92
59520,note_on,360,0,8,,,,,,,,5,,,,62,92
59520,note_on,360,0,12,,,,,,,,13,,,,67,92
59520,note_on,360,0,4,,,,,,,,2,,,,64,92
59520,note_on,360,0,1,,,,,,,,0,,,,70,108
59520,note_on,360,0,14,,,,,,,,15,,,,36,92
59520,note_on,360,0,10,,,,,,,,11,,,,70,108
59640,note_off,120,0,3,,,,,,,,2,,,,70,64
59640,note_off,120,0,6,,,,,,,,3,,,,67,64
59640,note_off,120,0,9,,,,,,,,5,,,,67,64
59640,note_off,120,0,2,,,,,,,,1,,,,64,64
59640,note_off,120,0,11,,,,,,,,12,,,,64,64
59640,note_off,120,0,13,,,,,,,,14,,,,48,64
59640,note_off,120,0,4,,,,,,,,2,,,,64,64
59640,note_off,120,0,10,,,,,,,,11,,,,70,64
59640,note_off,120,0,7,,,,,,,,4,,,,48,64
59640,note_off,120,0,14,,,,,,,,15,,,,36,64
59640,note_off,120,0,5,,,,,,,,3,,,,64,64
59640,note_off,120,0,1,,,,,,,,0,,,,70,64
59640,note_off,120,0,8,,,,,,,,5,,,,62,64
59640,note_off,120,0,12,,,,,,,,13,,,,67,64
60000,note_on,360,0,7,,,,,,,,4,,,,53,92
60000,note_on,360,0,5,,,,,,,,3,,,,60,92
60000,note_on,360,0,13,,,,,,,,14,,,,53,92
60000,note_on,360,0,10,,,,,,,,11,,,,69,108
60000,note_on,360,0,8,,,,,,,,5,,,,60,92
60000,note_on,360,0,12,,,,,,,,13,,,,65,92
60000,note_on,360,0,6,,,,,,,,3,,,,65,92
60000,note_on,360,0,14,,,,,,,,15,,,,41,92
60000,note_on,360,0,2,,,,,,,,1,,,,60,92
60000,note_on,360,0,11,,,,,,,,12,,,,60,92
60000,note_on,360,0,3,,,,,,,,2,,,,69,108
60000,note_on,360,0,9,,,,,,,,5,,,,65,92
60000,note_on,360,0,1,,,,,,,,0,,,,69,108
60000,note_on,360,0,4,,,,,,,,2,,,,60,92
60120,note_off,120,0,4,,,,,,,,2,,,,60,64
60120,note_off,120,0,7,,,,,,,,4,,,,53,64
60120,note_off,120,0,12,,,,,,,,13,,,,65,64
60120,note_off,120,0,11,,,,,,,,12,,,,60,64
60120,note_off,120,0,9,,,,,,,,5,,,,65,64
60120,note_off,120,0,13,,,,,,,,14,,,,53,64
60120,note_off,120,0,14,,,,,,,,15,,,,41,64
60120,note_off,120,0,5,,,,,,,,3,,,,60,64
60120,note_off,120,0,1,,,,,,,,0,,,,69,64
60120,note_off,120,0,6,,,,,,,,3,,,,65,64
60120,note_off,120,0,8,,,,,,,,5,,,,60,64
60120,note_off,120,0,10,,,,,,,,11,,,,69,64
60120,note_off,120,0,2,,,,,,,,1,,,,60,64
60120,note_off,120,0,3,,,,,,,,2,,,,69,64
60480,note_on,360,0,4,,,,,,,,2,,,,65,92
60480,note_on,360,0,2,,,,,,,,1,,,,65,92
60480,note_on,360,0,12,,,,,,,,13,,,,69,92
60480,note_on,360,0,13,,,,,,,,14,,,,50,92
60480,note_on,360,0,10,,,,,,,,11,,,,74,108
60480,note_on,360,0,6,,,,,,,,3,,,,69,92
60480,note_on,360,0,14,,,,,,,,15,,,,38,92
60480,note_on,360,0,3,,,,,,,,2,,,,74,108
60480,note_on,360,0,11,,,,,,,,12,,,,65,92
60480,note_on,360,0,7,,,,,,,,4,,,,50,92
60480,note_on,360,0,1,,,,,,,,0,,,,74,108
60480,note_on,360,0,8,,,,,,,,5,,,,65,92
60480,note_on,360,0,5,,,,,,,,3,,,,65,92
60480,note_on,360,0,9,,,,,,,,5,,,,69,92
60600,note_off,120,0,14,,,,,,,,15,,,,38,64
60600,note_off,120,0,4,,,,,,,,2,,,,65,64
60600,note_off,120,0,3,,,,,,,,2,,,,74,64
60600,note_off,120,0,2,,,,,,,,1,,,,65,64
60600,note_off,120,0,11,,,,,,,,12,,,,65,64
60600,note_off,120,0,9,,,,,,,,5,,,,69,64
60600,note_off,120,0,12,,,,,,,,13,,,,69,64
60600,note_off,120,0,1,,,,,,,,0,,,,74,64
60600,note_off,120,0,6,,,,,,,,3,,,,69,64
60600,note_off,120,0,7,,,,,,,,4,,,,50,64
60600,note_off,120,0,8,,,,,,,,5,,,,65,64
60600,note_off,120,0,13,,,,,,,,14,,,,50,64
60600,note_off,120,0,10,,,,,,,,11,,,,74,64
60600,note_off,120,0,5,,,,,,,,3,,,,65,64
60960,note_on,360,0,12,,,,,,,,13,,,,69,92
60960,note_on,360,0,7,,,,,,,,4,,,,57,92
60960,note_on,360,0,11,,,,,,,,12,,,,64,92
60960,note_on,360,0,8,,,,,,,,5,,,,64,92
60960,note_on,360,0,14,,,,,,,,15,,,,45,92
60960,note_on,360,0,10,,,,,,,,11,,,,73,108
60960,note_on,360,0,5,,,,,,,,3,,,,64,92
60960,note_on,360,0,2,,,,,,,,1,,,,64,92
60960,note_on,360,0,3,,,,,,,,2,,,,73,108
60960,note_on,360,0,1,,,,,,,,0,,,,73,108
60960,note_on,360,0,4,,,,,,,,2,,,,64,92
60960,note_on,360,0,6,,,,,,,,3,,,,69,92
60960,note_on,360,0,9,,,,,,,,5,,,,69,92
60960,note_on,360,0,13,,,,,,,,14,,,,57,92
61080,note_off,120,0,5,,,,,,,,3,,,,64,64
61080,note_off,120,0,7,,,,,,,,4,,,,57,64
61080,note_off,120,0,11,,,,,,,,12,,,,64,64
61080,note_off,120,0,2,,,,,,,,1,,,,64,64
61080,note_off,120,0,1,,,,,,,,0,,,,73,64
61080,note_off,120,0,8,,,,,,,,5,,,,64,64
61080,note_off,120,0,10,,,,,,,,11,,,,73,64
61080,note_off,120,0,9,,,,,,,,5,,,,69,64
61080,note_off,120,0,14,,,,,,,,15,,,,45,64
61080,note_off,120,0,3,,,,,,,,2,,,,73,64
61080,note_off,120,0,12,,,,,,,,13,,,,69,64
61080,note_off,120,0,6,,,,,,,,3,,,,69,64
61080,note_off,120,0,13,,,,,,,,14,,,,57,64
61080,note_off,120,0,4,,,,,,,,2,,,,64,64
61440,note_on,360,0,9,,,,,,,,5,,,,69,92
61440,note_on,360,0,13,,,,,,,,14,,,,50,92
61440,note_on,360,0,11,,,,,,,,12,,,,74,92
61440,note_on,360,0,12,,,,,,,,13,,,,69,92
61440,note_on,360,0,6,,,,,,,,3,,,,69,92
61440,note_on,360,0,14,,,,,,,,15,,,,38,92
61440,note_on,360,0,3,,,,,,,,2,,,,77,108
61440,note_on,360,0,4,,,,,,,,2,,,,74,92
61440,note_on,360,0,2,,,,,,,,1,,,,74,92
61440,note_on,360,0,5,,,,,,,,3,,,,74,92
61440,note_on,360,0,10,,,,,,,,11,,,,77,108
61440,note_on,360,0,8,,,,,,,,5,,,,74,92
61440,note_on,360,0,7,,,,,,,,4,,,,50,92
61440,note_on,360,0,1,,,,,,,,0,,,,77,108
61560,note_off,120,0,14,,,,,,,,15,,,,38,64
61560,note_off,120,0,6,,,,,,,,3,,,,69,64
61560,note_off,120,0,10,,,,,,,,11,,,,77,64
61560,note_off,120,0,8,,,,,,,,5,,,,74,64
61560,note_off,120,0,5,,,,,,,,3,,,,74,64
61560,note_off,120,0,4,,,,,,,,2,,,,74,64
61560,note_off,120,0,9,,,,,,,,5,,,,69,64
61560,note_off,120,0,12,,,,,,,,13,,,,69,64
61560,note_off,120,0,1,,,,,,,,0,,,,77,64
61560,note_off,120,0,13,,,,,,,,14,,,,50,64
61560,note_off,120,0,11,,,,,,,,12,,,,74,64
61560,note_off,120,0,7,,,,,,,,4,,,,50,64
61560,note_off,120,0,3,,,,,,,,2,,,,77,64
61560,note_off,120,0,2,,,,,,,,1,,,,74,64
61920,note_on,360,0,8,,,,,,,,5,,,,74,92
61920,note_on,360,0,5,,,,,,,,3,,,,74,92
61920,note_on,360,0,14,,,,,,,,15,,,,43,92
61920,note_on,360,0,7,,,,,,,,4,,,,55,92
61920,note_on,360,0,12,,,,,,,,13,,,,70,92
61920,note_on,360,0,13,,,,,,,,14,,,,55,92
61920,note_on,360,0,4,,,,,,,,2,,,,74,92
61920,note_on,360,0,9,,,,,,,,5,,,,70,92
61920,note_on,360,0,1,,,,,,,,0,,,,76,108
61920,note_on,360,0,6,,,,,,,,3,,,,70,92
61920,note_on,360,0,3,,,,,,,,2,,,,76,108
61920,note_on,360,0,2,,,,,,,,1,,,,74,92
61920,note_on,360,0,10,,,,,,,,11,,,,76,108
61920,note_on,360,0,11,,,,,,,,12,,,,74,92
62040,note_off,120,0,13,,,,,,,,14,,,,55,64
62040,note_off,120,0,1,,,,,,,,0,,,,76,64
62040,note_off,120,0,12,,,,,,,,13,,,,70,64
62040,note_off,120,0,11,,,,,,,,12,,,,74,64
62040,note_off,120,0,14,,,,,,,,15,,,,43,64
62040,note_off,120,0,2,,,,,,,,1,,,,74,64
62040,note_off,120,0,6,,,,,,,,3,,,,70,64
62040,note_off,120,0,5,,,,,,,,3,,,,74,64
62040,note_off,120,0,3,,,,,,,,2,,,,76,64
62040,note_off,120,0,8,,,,,,,,5,,,,74,64
62040,note_off,120,0,4,,,,,,,,2,,,,74,64
62040,note_off,120,0,7,,,,,,,,4,,,,55,64
62040,note_off,120,0,10,,,,,,,,11,,,,76,64
62040,note_off,120,0,9,,,,,,,,5,,,,70,64
62400,note_on,360,0,11,,,,,,,,12,,,,74,92
62400,note_on,360,0,3,,,,,,,,2,,,,81,108
62400,note_on,360,0,6,,,,,,,,3,,,,69,92
62400,note_on,360,0,5,,,,,,,,3,,,,74,92
62400,note_on,360,0,7,,,,,,,,4,,,,53,92
62400,note_on,360,0,12,,,,,,,,13,,,,69,92
62400,note_on,360,0,9,,,,,,,,5,,,,69,92
62400,note_on,360,0,14,,,,,,,,15,,,,41,92
62400,note_on,360,0,1,,,,,,,,0,,,,81,108
62400,note_on,360,0,13,,,,,,,,14,,,,53,92
62400,note_on,360,0,8,,,,,,,,5,,,,74,92
62400,note_on,360,0,4,,,,,,,,2,,,,74,92
62400,note_on,360,0,2,,,,,,,,1,,,,74,92
62400,note_on,360,0,10,,,,,,,,11,,,,81,108
62520,note_off,120,0,4,,,,,,,,2,,,,74,64
62520,note_off,120,0,5,,,,,,,,3,,,,74,64
62520,note_off,120,0,10,,,,,,,,11,,,,81,64
62520,note_off,120,0,7,,,,,,,,4,,,,53,64
62520,note_off,120,0,1,,,,,,,,0,,,,81,64
62520,note_off,120,0,6,,,,,,,,3,,,,69,64
62520,note_off,120,0,3,,,,,,,,2,,,,81,64
62520,note_off,120,0,2,,,,,,,,1,,,,74,64
62520,note_off,120,0,14,,,,,,,,15,,,,41,64
62520,note_off,120,0,8,,,,,,,,5,,,,74,64
62520,note_off,120,0,11,,,,,,,,12,,,,74,64
62520,note_off,120,0,12,,,,,,,,13,,,,69,64
62520,note_off,120,0,9,,,,,,,,5,,,,69,64
62520,note_off,120,0,13,,,,,,,,14,,,,53,64
62880,note_on,360,0,11,,,,,,,,12,,,,74,92
62880,note_on,360,0,5,,,,,,,,3,,,,74,92
62880,note_on,360,0,13,,,,,,,,14,,,,52,92
62880,note_on,360,0,9,,,,,,,,5,,,,70,92
62880,note_on,360,0,12,,,,,,,,13,,,,70,92
62880,note_on,360,0,8,,,,,,,,5,,,,74,92
62880,note_on,360,0,2,,,,,,,,1,,,,74,92
62880,note_on,360,0,4,,,,,,,,2,,,,74,92
62880,note_on,360,0,3,,,,,,,,2,,,,79,108
62880,note_on,360,0,1,,,,,,,,0,,,,79,108
62880,note_on,360,0,7,,,,,,,,4,,,,52,92
62880,note_on,360,0,10,,,,,,,,11,,,,79,108
62880,note_on,360,0,6,,,,,,,,3,,,,70,92
62880,note_on,360,0,14,,,,,,,,15,,,,40,92
63000,note_off,120,0,7,,,,,,,,4,,,,52,64
63000,note_off,120,0,13,,,,,,,,14,,,,52,64
63000,note_off,120,0,5,,,,,,,,3,,,,74,64
63000,note_off,120,0,2,,,,,,,,1,,,,74,64
63000,note_off,120,0,8,,,,,,,,5,,,,74,64
63000,note_off,120,0,1,,,,,,,,0,,,,79,64
63000,note_on,0,0,1,,,,,,,,0,,,,81,108
63000,note_off,120,0,14,,,,,,,,15,,,,40,64
63000,note_off,120,0,12,,,,,,,,13,,,,70,64
63000,note_off,120,0,4,,,,,,,,2,,,,74,64
63000,note_off,120,0,9,,,,,,,,5,,,,70,64
63000,note_off,120,0,11,,,,,,,,12,,,,74,64
63000,note_off,120,0,3,,,,,,,,2,,,,79,64
63000,note_off,120,0,10,,,,,,,,11,,,,79,64
63000,note_on,0,0,3,,,,,,,,2,,,,81,108
63000,note_on,0,0,10,,,,,,,,11,,,,81,108
63000,note_off,120,0,6,,,,,,,,3,,,,70,64
63120,note_off,120,0,10,,,,,,,,11,,,,81,64
63120,note_off,120,0,3,,,,,,,,2,,,,81,64
63120,note_on,0,0,3,,,,,,,,2,,,,79,108
63120,note_on,0,0,10,,,,,,,,11,,,,79,108
63120,note_off,120,0,1,,,,,,,,0,,,,81,64
63120,note_on,0,0,1,,,,,,,,0,,,,79,108
63240,note_off,120,0,10,,,,,,,,11,,,,79,64
63240,note_on,0,0,10,,,,,,,,11,,,,81,108
63240,note_off,120,0,1,,,,,,,,0,,,,79,64
63240,note_on,0,0,1,,,,,,,,0,,,,81,108
63240,note_off,120,0,3,,,,,,,,2,,,,79,64
63240,note_on,0,0,3,,,,,,,,2,,,,81,108
63355,note_off,115,0,3,,,,,,,,2,,,,81,64
63355,note_off,115,0,10,,,,,,,,11,,,,81,64
63355,note_off,115,0,1,,,,,,,,0,,,,81,64
63360,note_on,360,0,2,,,,,,,,1,,,,73,92
63360,note_on,5,0,3,,,,,,,,2,,,,77,108
63360,note_on,5,0,1,,,,,,,,0,,,,77,108
63360,note_on,360,0,8,,,,,,,,5,,,,73,92
63360,note_on,360,0,7,,,,,,,,4,,,,57,92
63360,note_on,360,0,14,,,,,,,,15,,,,45,92
63360,note_on,360,0,4,,,,,,,,2,,,,73,92
63360,note_on,360,0,12,,,,,,,,13,,,,69,92
63360,note_on,360,0,11,,,,,,,,12,,,,73,92
63360,note_on,5,0,10,,,,,,,,11,,,,77,108
63360,note_on,360,0,5,,,,,,,,3,,,,73,92
63360,note_on,360,0,13,,,,,,,,14,,,,57,92
63360,note_on,360,0,6,,,,,,,,3,,,,69,92
63360,note_on,360,0,9,,,,,,,,5,,,,69,92
63440,note_off,80,0,3,,,,,,,,2,,,,77,64
63440,note_off,80,0,1,,,,,,,,0,,,,77,64
63440,note_off,80,0,10,,,,,,,,11,,,,77,64
63480,note_off,120,0,12,,,,,,,,13,,,,69,64
63480,note_off,120,0,13,,,,,,,,14,,,,57,64
63480,note_off,120,0,11,,,,,,,,12,,,,73,64
63480,note_off,120,0,14,,,,,,,,15,,,,45,64
63480,note_off,120,0,5,,,,,,,,3,,,,73,64
63480,note_off,120,0,6,,,,,,,,3,,,,69,64
63480,note_off,120,0,8,,,,,,,,5,,,,73,64
63480,note_off,120,0,4,,,,,,,,2,,,,73,64
63480,note_off,120,0,9,,,,,,,,5,,,,69,64
63480,note_off,120,0,2,,,,,,,,1,,,,73,64
63480,note_off,120,0,7,,,,,,,,4,,,,57,64
63600,note_on,160,0,10,,,,,,,,11,,,,76,108
63600,note_on,160,0,3,,,,,,,,2,,,,76,108
63600,note_on,160,0,1,,,,,,,,0,,,,76,108
63680,note_off,80,0,1,,,,,,,,0,,,,76,64
63680,note_off,80,0,10,,,,,,,,11,,,,76,64
63680,note_off,80,0,3,,,,,,,,2,,,,76,64
63840,note_on,160,0,10,,,,,,,,11,,,,77,108
63840,note_on,360,0,8,,,,,,,,5,,,,74,92
63840,note_on,360,0,13,,,,,,,,14,,,,50,92
63840,note_on,360,0,9,,,,,,,,5,,,,69,92
63840,note_on,360,0,2,,,,,,,,1,,,,74,92
63840,note_on,360,0,5,,,,,,,,3,,,,74,92
63840,note_on,360,0,6,,,,,,,,3,,,,69,92
63840,note_on,360,0,11,,,,,,,,12,,,,74,92
63840,note_on,160,0,1,,,,,,,,0,,,,77,108
63840,note_on,160,0,3,,,,,,,,2,,,,77,108
63840,note_on,360,0,14,,,,,,,,15,,,,38,92
63840,note_on,360,0,12,,,,,,,,13,,,,69,92
63840,note_on,360,0,7,,,,,,,,4,,,,50,92
63840,note_on,360,0,4,,,,,,,,2,,,,74,92
63920,note_off,80,0,10,,,,,,,,11,,,,77,64
63920,note_off,80,0,1,,,,,,,,0,,,,77,64
63920,note_off,80,0,3,,,,,,,,2,,,,77,64
63960,note_off,120,0,8,,,,,,,,5,,,,74,64
63960,note_off,120,0,4,,,,,,,,2,,,,74,64
63960,note_off,120,0,12,,,,,,,,13,,,,69,64
63960,note_off,120,0,2,,,,,,,,1,,,,74,64
63960,note_off,120,0,6,,,,,,,,3,,,,69,64
63960,note_off,120,0,5,,,,,,,,3,,,,74,64
63960,note_off,120,0,9,,,,,,,,5,,,,69,64
63960,note_off,120,0,14,,,,,,,,15,,,,38,64
63960,note_off,120,0,11,,,,,,,,12,,,,74,64
63960,note_off,120,0,13,,,,,,,,14,,,,50,64
63960,note_off,120,0,7,,,,,,,,4,,,,50,64
64080,note_on,160,0,10,,,,,,,,11,,,,79,108
64080,note_on,160,0,3,,,,,,,,2,,,,79,108
64080,note_on,160,0,1,,,,,,,,0,,,,79,108
64160,note_off,80,0,3,,,,,,,,2,,,,79,64
64160,note_off,80,0,1,,,,,,,,0,,,,79,64
64160,note_off,80,0,10,,,,,,,,11,,,,79,64
64320,note_on,160,0,10,,,,,,,,11,,,,81,108
64320,note_on,360,0,12,,,,,,,,13,,,,69,92
64320,note_on,360,0,2,,,,,,,,1,,,,65,92
64320,note_on,360,0,14,,,,,,,,15,,,,50,92
64320,note_on,360,0,11,,,,,,,,12,,,,65,92
64320,note_on,160,0,1,,,,,,,,0,,,,81,108
64320,note_on,360,0,5,,,,,,,,3,,,,65,92
64320,note_on,360,0,6,,,,,,,,3,,,,69,92
64320,note_on,360,0,13,,,,,,,,14,,,,62,92
64320,note_on,160,0,3,,,,,,,,2,,,,81,108
64320,note_on,360,0,4,,,,,,,,2,,,,65,92
64320,note_on,360,0,7,,,,,,,,4,,,,62,92
64320,note_on,360,0,8,,,,,,,,5,,,,65,92
64320,note_on,360,0,9,,,,,,,,5,,,,69,92
64440,note_off,120,0,13,,,,,,,,14,,,,62,64
64440,note_off,120,0,4,,,,,,,,2,,,,65,64
64440,note_off,120,0,2,,,,,,,,1,,,,65,64
64440,note_off,120,0,11,,,,,,,,12,,,,65,64
64440,note_off,120,0,6,,,,,,,,3,,,,69,64
64440,note_off,120,0,5,,,,,,,,3,,,,65,64
64440,note_off,120,0,14,,,,,,,,15,,,,50,64
64440,note_off,120,0,12,,,,,,,,13,,,,69,64
64440,note_off,120,0,9,,,,,,,,5,,,,69,64
64440,note_off,120,0,3,,,,,,,,2,,,,81,64
64440,note_off,120,0,1,,,,,,,,0,,,,81,64
64440,note_off,120,0,7,,,,,,,,4,,,,62,64
64440,note_off,120,0,8,,,,,,,,5,,,,65,64
64440,note_off,120,0,10,,,,,,,,11,,,,81,64
64800,note_on,360,0,12,,,,,,,,13,,,,65,92
64800,note_on,360,0,13,,,,,,,,14,,,,62,92
64800,note_on,360,0,1,,,,,,,,0,,,,74,108
64800,note_on,360,0,2,,,,,,,,1,,,,69,92
64800,note_on,360,0,7,,,,,,,,4,,,,62,92
64800,note_on,360,0,8,,,,,,,,5,,,,69,92
64800,note_on,360,0,10,,,,,,,,11,,,,74,108
64800,note_on,360,0,6,,,,,,,,3,,,,65,92
64800,note_on,360,0,11,,,,,,,,12,,,,69,92
64800,note_on,360,0,3,,,,,,,,2,,,,74,108
64800,note_on,360,0,9,,,,,,,,5,,,,65,92
64800,note_on,360,0,4,,,,,,,,2,,,,69,92
64800,note_on,360,0,5,,,,,,,,3,,,,69,92
64800,note_on,360,0,14,,,,,,,,15,,,,50,92
64920,note_off,120,0,14,,,,,,,,15,,,,50,64
64920,note_off,120,0,11,,,,,,,,12,,,,69,64
64920,note_off,120,0,1,,,,,,,,0,,,,74,64
64920,note_off,120,0,9,,,,,,,,5,,,,65,64
64920,note_off,120,0,2,,,,,,,,1,,,,69,64
64920,note_off,120,0,7,,,,,,,,4,,,,62,64
64920,note_off,120,0,12,,,,,,,,13,,,,65,64
64920,note_off,120,0,6,,,,,,,,3,,,,65,64
64920,note_off,120,0,13,,,,,,,,14,,,,62,64
64920,note_off,120,0,10,,,,,,,,11,,,,74,64
64920,note_off,120,0,5,,,,,,,,3,,,,69,64
64920,note_off,120,0,3,,,,,,,,2,,,,74,64
64920,note_off,120,0,8,,,,,,,,5,,,,69,64
64920,note_off,120,0,4,,,,,,,,2,,,,69,64
65280,note_on,360,0,3,,,,,,,,2,,,,78,108
65280,note_on,360,0,12,,,,,,,,13,,,,69,92
65280,note_on,360,0,9,,,,,,,,5,,,,69,92
65280,note_on,360,0,11,,,,,,,,12,,,,74,92
65280,note_on,360,0,6,,,,,,,,3,,,,69,92
65280,note_on,360,0,14,,,,,,,,15,,,,48,92
65280,note_on,360,0,4,,,,,,,,2,,,,74,92
65280,note_on,360,0,7,,,,,,,,4,,,,60,92
65280,note_on,360,0,10,,,,,,,,11,,,,78,108
65280,note_on,360,0,5,,,,,,,,3,,,,74,92
65280,note_on,360,0,8,,,,,,,,5,,,,74,92
65280,note_on,360,0,13,,,,,,,,14,,,,60,92
65280,note_on,360,0,2,,,,,,,,1,,,,74,92
65280,note_on,360,0,1,,,,,,,,0,,,,78,108
65400,note_off,120,0,8,,,,,,,,5,,,,74,64
65400,note_off,120,0,2,,,,,,,,1,,,,74,64
65400,note_off,120,0,4,,,,,,,,2,,,,74,64
65400,note_off,120,0,1,,,,,,,,0,,,,78,64
65400,note_off,120,0,3,,,,,,,,2,,,,78,64
65400,note_off,120,0,5,,,,,,,,3,,,,74,64
65400,note_off,120,0,13,,,,,,,,14,,,,60,64
65400,note_off,120,0,12,,,,,,,,13,,,,69,64
65400,note_off,120,0,14,,,,,,,,15,,,,48,64
65400,note_off,120,0,7,,,,,,,,4,,,,60,64
65400,note_off,120,0,6,,,,,,,,3,,,,69,64
65400,note_off,120,0,11,,,,,,,,12,,,,74,64
65400,note_off,120,0,9,,,,,,,,5,,,,69,64
65400,note_off,120,0,10,,,,,,,,11,,,,78,64
65760,note_on,360,0,1,,,,,,,,0,,,,79,108
65760,note_on,360,0,2,,,,,,,,1,,,,74,92
65760,note_on,360,0,3,,,,,,,,2,,,,79,108
65760,note_on,360,0,4,,,,,,,,2,,,,74,92
65760,note_on,360,0,11,,,,,,,,12,,,,74,92
65760,note_on,360,0,10,,,,,,,,11,,,,79,108
65760,note_on,360,0,12,,,,,,,,13,,,,67,92
65760,note_on,360,0,9,,,,,,,,5,,,,67,92
65760,note_on,360,0,7,,,,,,,,4,,,,58,92
65760,note_on,360,0,5,,,,,,,,3,,,,74,92
65760,note_on,360,0,6,,,,,,,,3,,,,67,92
65760,note_on,360,0,8,,,,,,,,5,,,,74,92
65760,note_on,360,0,13,,,,,,,,14,,,,58,92
65760,note_on,360,0,14,,,,,,,,15,,,,46,92
65840,note_off,80,0,1,,,,,,,,0,,,,79,64
65840,note_off,80,0,10,,,,,,,,11,,,,79,64
65840,note_off,80,0,3,,,,,,,,2,,,,79,64
65880,note_off,120,0,11,,,,,,,,12,,,,74,64
65880,note_off,120,0,5,,,,,,,,3,,,,74,64
65880,note_off,120,0,6,,,,,,,,3,,,,67,64
65880,note_off,120,0,2,,,,,,,,1,,,,74,64
65880,note_off,120,0,14,,,,,,,,15,,,,46,64
65880,note_off,120,0,9,,,,,,,,5,,,,67,64
65880,note_off,120,0,8,,,,,,,,5,,,,74,64
65880,note_off,120,0,7,,,,,,,,4,,,,58,64
65880,note_off,120,0,12,,,,,,,,13,,,,67,64
65880,note_off,120,0,4,,,,,,,,2,,,,74,64
65880,note_off,120,0,13,,,,,,,,14,,,,58,64
66000,note_on,160,0,3,,,,,,,,2,,,,81,108
66000,note_on,160,0,10,,,,,,,,11,,,,81,108
66000,note_on,160,0,1,,,,,,,,0,,,,81,108
66080,note_off,80,0,1,,,,,,,,0,,,,81,64
66080,note_off,80,0,10,,,,,,,,11,,,,81,64
66080,note_off,80,0,3,,,,,,,,2,,,,81,64
66240,note_on,360,0,7,,,,,,,,4,,,,55,92
66240,note_on,360,0,14,,,,,,,,15,,,,43,92
66240,note_on,360,0,2,,,,,,,,1,,,,70,92
66240,note_on,360,0,6,,,,,,,,3,,,,67,92
66240,note_on,360,0,13,,,,,,,,14,,,,55,92
66240,note_on,360,0,8,,,,,,,,5,,,,70,92
66240,note_on,160,0,10,,,,,,,,11,,,,82,108
66240,note_on,360,0,9,,,,,,,,5,,,,67,92
66240,note_on,360,0,4,,,,,,,,2,,,,70,92
66240,note_on,360,0,11,,,,,,,,12,,,,70,92
66240,note_on,360,0,12,,,,,,,,13,,,,67,92
66240,note_on,160,0,1,,,,,,,,0,,,,82,108
66240,note_on,160,0,3,,,,,,,,2,,,,82,108
66240,note_on,360,0,5,,,,,,,,3,,,,70,92
66360,note_off,120,0,13,,,,,,,,14,,,,55,64
66360,note_off,120,0,4,,,,,,,,2,,,,70,64
66360,note_off,120,0,3,,,,,,,,2,,,,82,64
66360,note_off,120,0,2,,,,,,,,1,,,,70,64
66360,note_off,120,0,5,,,,,,,,3,,,,70,64
66360,note_off,120,0,1,,,,,,,,0,,,,82,64
66360,note_off,120,0,10,,,,,,,,11,,,,82,64
66360,note_off,120,0,11,,,,,,,,12,,,,70,64
66360,note_off,120,0,12,,,,,,,,13,,,,67,64
66360,note_off,120,0,7,,,,,,,,4,,,,55,64
66360,note_off,120,0,6,,,,,,,,3,,,,67,64
66360,note_off,120,0,14,,,,,,,,15,,,,43,64
66360,note_off,120,0,9,,,,,,,,5,,,,67,64
66360,note_off,120,0,8,,,,,,,,5,,,,70,64
66720,note_on,360,0,6,,,,,,,,3,,,,67,92
66720,note_on,360,0,2,,,,,,,,1,,,,70,92
66720,note_on,360,0,7,,,,,,,,4,,,,55,92
66720,note_on,360,0,12,,,,,,,,13,,,,67,92
66720,note_on,360,0,3,,,,,,,,2,,,,74,108
66720,note_on,360,0,1,,,,,,,,0,,,,74,108
66720,note_on,360,0,5,,,,,,,,3,,,,70,92
66720,note_on,360,0,8,,,,,,,,5,,,,70,92
66720,note_on,360,0,13,,,,,,,,14,,,,55,92
66720,note_on,360,0,9,,,,,,,,5,,,,67,92
66720,note_on,360,0,14,,,,,,,,15,,,,43,92
66720,note_on,360,0,10,,,,,,,,11,,,,74,108
66720,note_on,360,0,4,,,,,,,,2,,,,70,92
66720,note_on,360,0,11,,,,,,,,12,,,,70,92
66800,note_off,80,0,2,,,,,,,,1,,,,70,64
66800,note_off,80,0,8,,,,,,,,5,,,,70,64
66800,note_off,80,0,11,,,,,,,,12,,,,70,64
66800,note_off,80,0,14,,,,,,,,15,,,,43,64
66800,note_off,80,0,13,,,,,,,,14,,,,55,64
66800,note_off,80,0,5,,,,,,,,3,,,,70,64
66800,note_off,80,0,7,,,,,,,,4,,,,55,64
66800,note_off,80,0,4,,,,,,,,2,,,,70,64
66840,note_off,120,0,1,,,,,,,,0,,,,74,64
66840,note_off,120,0,6,,,,,,,,3,,,,67,64
66840,note_off,120,0,9,,,,,,,,5,,,,67,64
66840,note_off,120,0,10,,,,,,,,11,,,,74,64
66840,note_off,120,0,12,,,,,,,,13,,,,67,64
66840,note_off,120,0,3,,,,,,,,2,,,,74,64
66960,note_on,160,0,11,,,,,,,,12,,,,69,92
66960,note_on,160,0,7,,,,,,,,4,,,,57,92
66960,note_on,160,0,4,,,,,,,,2,,,,69,92
66960,note_on,160,0,13,,,,,,,,14,,,,57,92
66960,note_on,160,0,2,,,,,,,,1,,,,69,92
66960,note_on,160,0,8,,,,,,,,5,,,,69,92
66960,note_on,160,0,5,,,,,,,,3,,,,69,92
66960,note_on,160,0,14,,,,,,,,15,,,,45,92
67040,note_off,80,0,8,,,,,,,,5,,,,69,64
67040,note_off,80,0,7,,,,,,,,4,,,,57,64
67040,note_off,80,0,14,,,,,,,,15,,,,45,64
67040,note_off,80,0,5,,,,,,,,3,,,,69,64
67040,note_off,80,0,4,,,,,,,,2,,,,69,64
67040,note_off,80,0,13,,,,,,,,14,,,,57,64
67040,note_off,80,0,11,,,,,,,,12,,,,69,64
67040,note_off,80,0,2,,,,,,,,1,,,,69,64
67200,note_on,360,0,12,,,,,,,,13,,,,62,92
67200,note_on,160,0,2,,,,,,,,1,,,,67,92
67200,note_on,160,0,5,,,,,,,,3,,,,67,92
67200,note_on,160,0,14,,,,,,,,15,,,,46,92
67200,note_on,160,0,13,,,,,,,,14,,,,58,92
67200,note_on,160,0,4,,,,,,,,2,,,,67,92
67200,note_on,360,0,3,,,,,,,,2,,,,79,108
67200,note_on,360,0,6,,,,,,,,3,,,,62,92
67200,note_on,160,0,7,,,,,,,,4,,,,58,92
67200,note_on,360,0,1,,,,,,,,0,,,,79,108
67200,note_on,160,0,11,,,,,,,,12,,,,67,92
67200,note_on,160,0,8,,,,,,,,5,,,,67,92
67200,note_on,360,0,10,,,,,,,,11,,,,79,108
67200,note_on,360,0,9,,,,,,,,5,,,,62,92
67280,note_off,80,0,3,,,,,,,,2,,,,79,64
67280,note_off,80,0,1,,,,,,,,0,,,,79,64
67280,note_off,80,0,10,,,,,,,,11,,,,79,64
67320,note_off,120,0,5,,,,,,,,3,,,,67,64
67320,note_off,120,0,12,,,,,,,,13,,,,62,64
67320,note_off,120,0,14,,,,,,,,15,,,,46,64
67320,note_off,120,0,2,,,,,,,,1,,,,67,64
67320,note_off,120,0,8,,,,,,,,5,,,,67,64
67320,note_off,120,0,13,,,,,,,,14,,,,58,64
67320,note_off,120,0,11,,,,,,,,12,,,,67,64
67320,note_off,120,0,6,,,,,,,,3,,,,62,64
67320,note_off,120,0,7,,,,,,,,4,,,,58,64
67320,note_off,120,0,4,,,,,,,,2,,,,67,64
67320,note_off,120,0,9,,,,,,,,5,,,,62,64
67440,note_on,160,0,1,,,,,,,,0,,,,77,108
67440,note_on,160,0,10,,,,,,,,11,,,,77,108
67440,note_on,160,0,3,,,,,,,,2,,,,77,108
67520,note_off,80,0,1,,,,,,,,0,,,,77,64
67520,note_off,80,0,3,,,,,,,,2,,,,77,64
67520,note_off,80,0,10,,,,,,,,11,,,,77,64
67680,note_on,160,0,1,,,,,,,,0,,,,76,108
67680,note_on,360,0,8,,,,,,,,5,,,,67,92
67680,note_on,360,0,14,,,,,,,,15,,,,48,92
67680,note_on,360,0,2,,,,,,,,1,,,,67,92
67680,note_on,360,0,4,,,,,,,,2,,,,67,92
67680,note_on,360,0,7,,,,,,,,4,,,,60,92
67680,note_on,360,0,13,,,,,,,,14,,,,60,92
67680,note_on,360,0,5,,,,,,,,3,,,,67,92
67680,note_on,160,0,3,,,,,,,,2,,,,76,108
67680,note_on,360,0,12,,,,,,,,13,,,,60,92
67680,note_on,360,0,6,,,,,,,,3,,,,60,92
67680,note_on,160,0,10,,,,,,,,11,,,,76,108
67680,note_on,360,0,9,,,,,,,,5,,,,60,92
67680,note_on,360,0,11,,,,,,,,12,,,,67,92
67760,note_off,80,0,3,,,,,,,,2,,,,76,64
67760,note_off,80,0,10,,,,,,,,11,,,,76,64
67760,note_off,80,0,1,,,,,,,,0,,,,76,64
67800,note_off,120,0,13,,,,,,,,14,,,,60,64
67800,note_off,120,0,5,,,,,,,,3,,,,67,64
67800,note_off,120,0,12,,,,,,,,13,,,,60,64
67800,note_off,120,0,2,,,,,,,,1,,,,67,64
67800,note_off,120,0,6,,,,,,,,3,,,,60,64
67800,note_off,120,0,8,,,,,,,,5,,,,67,64
67800,note_off,120,0,14,,,,,,,,15,,,,48,64
67800,note_off,120,0,9,,,,,,,,5,,,,60,64
67800,note_off,120,0,4,,,,,,,,2,,,,67,64
67800,note_off,120,0,11,,,,,,,,12,,,,67,64
67800,note_off,120,0,7,,,,,,,,4,,,,60,64
67920,note_on,160,0,3,,,,,,,,2,,,,77,108
67920,note_on,160,0,10,,,,,,,,11,,,,77,108
67920,note_on,160,0,1,,,,,,,,0,,,,77,108
68000,note_off,80,0,1,,,,,,,,0,,,,77,64
68000,note_off,80,0,10,,,,,,,,11,,,,77,64
68000,note_off,80,0,3,,,,,,,,2,,,,77,64
68160,note_on,360,0,2,,,,,,,,1,,,,64,92
68160,note_on,360,0,8,,,,,,,,5,,,,64,92
68160,note_on,360,0,5,,,,,,,,3,,,,64,92
68160,note_on,360,0,12,,,,,,,,13,,,,60,92
68160,note_on,360,0,6,,,,,,,,3,,,,60,92
68160,note_on,360,0,4,,,,,,,,2,,,,64,92
68160,note_on,360,0,7,,,,,,,,4,,,,48,92
68160,note_on,360,0,14,,,,,,,,15,,,,36,92
68160,note_on,160,0,3,,,,,,,,2,,,,79,108
68160,note_on,160,0,10,,,,,,,,11,,,,79,108
68160,note_on,360,0,11,,,,,,,,12,,,,64,92
68160,note_on,360,0,13,,,,,,,,14,,,,48,92
68160,note_on,160,0,1,,,,,,,,0,,,,79,108
68160,note_on,360,0,9,,,,,,,,5,,,,60,92
68280,note_off,120,0,1,,,,,,,,0,,,,79,64
68280,note_off,120,0,8,,,,,,,,5,,,,64,64
68280,note_off,120,0,11,,,,,,,,12,,,,64,64
68280,note_off,120,0,5,,,,,,,,3,,,,64,64
68280,note_off,120,0,14,,,,,,,,15,,,,36,64
68280,note_off,120,0,3,,,,,,,,2,,,,79,64
68280,note_off,120,0,10,,,,,,,,11,,,,79,64
68280,note_off,120,0,2,,,,,,,,1,,,,64,64
68280,note_off,120,0,13,,,,,,,,14,,,,48,64
68280,note_off,120,0,4,,,,,,,,2,,,,64,64
68280,note_off,120,0,12,,,,,,,,13,,,,60,64
68280,note_off,120,0,7,,,,,,,,4,,,,48,64
68280,note_off,120,0,6,,,,,,,,3,,,,60,64
68280,note_off,120,0,9,,,,,,,,5,,,,60,64
68640,note_on,360,0,5,,,,,,,,3,,,,64,92
68640,note_on,360,0,3,,,,,,,,2,,,,72,108
68640,note_on,360,0,4,,,,,,,,2,,,,64,92
68640,note_on,360,0,13,,,,,,,,14,,,,48,92
68640,note_on,360,0,1,,,,,,,,0,,,,72,108
68640,note_on,360,0,8,,,,,,,,5,,,,64,92
68640,note_on,360,0,14,,,,,,,,15,,,,36,92
68640,note_on,360,0,10,,,,,,,,11,,,,72,108
68640,note_on,360,0,9,,,,,,,,5,,,,67,92
68640,note_on,360,0,2,,,,,,,,1,,,,64,92
68640,note_on,360,0,12,,,,,,,,13,,,,67,92
68640,note_on,360,0,6,,,,,,,,3,,,,67,92
68640,note_on,360,0,7,,,,,,,,4,,,,48,92
68640,note_on,360,0,11,,,,,,,,12,,,,64,92
68720,note_off,80,0,13,,,,,,,,14,,,,48,64
68720,note_off,80,0,5,,,,,,,,3,,,,64,64
68720,note_off,80,0,4,,,,,,,,2,,,,64,64
68720,note_off,80,0,2,,,,,,,,1,,,,64,64
68720,note_off,80,0,8,,,,,,,,5,,,,64,64
68720,note_off,80,0,7,,,,,,,,4,,,,48,64
68720,note_off,80,0,11,,,,,,,,12,,,,64,64
68720,note_off,80,0,14,,,,,,,,15,,,,36,64
68760,note_off,120,0,12,,,,,,,,13,,,,67,64
68760,note_off,120,0,9,,,,,,,,5,,,,67,64
68760,note_off,120,0,6,,,,,,,,3,,,,67,64
68760,note_off,120,0,10,,,,,,,,11,,,,72,64
68760,note_off,120,0,3,,,,,,,,2,,,,72,64
68760,note_off,120,0,1,,,,,,,,0,,,,72,64
68880,note_on,160,0,8,,,,,,,,5,,,,65,92
68880,note_on,160,0,4,,,,,,,,2,,,,65,92
68880,note_on,160,0,13,,,,,,,,14,,,,50,92
68880,note_on,160,0,7,,,,,,,,4,,,,50,92
68880,note_on,160,0,14,,,,,,,,15,,,,38,92
68880,note_on,160,0,5,,,,,,,,3,,,,65,92
68880,note_on,160,0,2,,,,,,,,1,,,,65,92
68880,note_on,160,0,11,,,,,,,,12,,,,65,92
68960,note_off,80,0,14,,,,,,,,15,,,,38,64
68960,note_off,80,0,2,,,,,,,,1,,,,65,64
68960,note_off,80,0,4,,,,,,,,2,,,,65,64
68960,note_off,80,0,8,,,,,,,,5,,,,65,64
68960,note_off,80,0,11,,,,,,,,12,,,,65,64
68960,note_off,80,0,13,,,,,,,,14,,,,50,64
68960,note_off,80,0,5,,,,,,,,3,,,,65,64
68960,note_off,80,0,7,,,,,,,,4,,,,50,64
69120,note_on,360,0,6,,,,,,,,3,,,,60,92
69120,note_on,160,0,7,,,,,,,,4,,,,52,92
69120,note_on,360,0,12,,,,,,,,13,,,,60,92
69120,note_on,160,0,8,,,,,,,,5,,,,67,92
69120,note_on,160,0,2,,,,,,,,1,,,,67,92
69120,note_on,360,0,9,,,,,,,,5,,,,60,92
69120,note_on,360,0,10,,,,,,,,11,,,,70,108
69120,note_on,360,0,1,,,,,,,,0,,,,70,108
69120,note_on,160,0,14,,,,,,,,15,,,,40,92
69120,note_on,160,0,4,,,,,,,,2,,,,67,92
69120,note_on,160,0,5,,,,,,,,3,,,,67,92
69120,note_on,360,0,3,,,,,,,,2,,,,70,108
69120,note_on,160,0,13,,,,,,,,14,,,,52,92
69120,note_on,160,0,11,,,,,,,,12,,,,67,92
69240,note_off,120,0,7,,,,,,,,4,,,,52,64
69240,note_off,120,0,5,,,,,,,,3,,,,67,64
69240,note_off,120,0,8,,,,,,,,5,,,,67,64
69240,note_off,120,0,13,,,,,,,,14,,,,52,64
69240,note_off,120,0,14,,,,,,,,15,,,,40,64
69240,note_off,120,0,6,,,,,,,,3,,,,60,64
69240,note_off,120,0,3,,,,,,,,2,,,,70,64
69240,note_off,120,0,12,,,,,,,,13,,,,60,64
69240,note_off,120,0,2,,,,,,,,1,,,,67,64
69240,note_off,120,0,11,,,,,,,,12,,,,67,64
69240,note_off,120,0,4,,,,,,,,2,,,,67,64
69240,note_off,120,0,9,,,,,,,,5,,,,60,64
69240,note_off,120,0,10,,,,,,,,11,,,,70,64
69240,note_off,120,0,1,,,,,,,,0,,,,70,64
69600,note_on,360,0,13,,,,,,,,14,,,,53,92
69600,note_on,360,0,7,,,,,,,,4,,,,53,92
69600,note_on,360,0,9,,,,,,,,5,,,,60,92
69600,note_on,360,0,2,,,,,,,,1,,,,67,92
69600,note_on,360,0,12,,,,,,,,13,,,,60,92
69600,note_on,360,0,4,,,,,,,,2,,,,67,92
69600,note_on,360,0,6,,,,,,,,3,,,,60,92
69600,note_on,360,0,10,,,,,,,,11,,,,69,108
69600,note_on,360,0,5,,,,,,,,3,,,,67,92
69600,note_on,360,0,8,,,,,,,,5,,,,69,92
69600,note_on,360,0,3,,,,,,,,2,,,,69,108
69600,note_on,360,0,14,,,,,,,,15,,,,41,92
69600,note_on,360,0,11,,,,,,,,12,,,,69,92
69600,note_on,360,0,1,,,,,,,,0,,,,69,108
69680,note_off,80,0,1,,,,,,,,0,,,,69,64
69680,note_off,80,0,10,,,,,,,,11,,,,69,64
69680,note_off,80,0,3,,,,,,,,2,,,,69,64
69720,note_off,120,0,2,,,,,,,,1,,,,67,64
69720,note_off,120,0,9,,,,,,,,5,,,,60,64
69720,note_off,120,0,11,,,,,,,,12,,,,69,64
69720,note_off,120,0,12,,,,,,,,13,,,,60,64
69720,note_off,120,0,5,,,,,,,,3,,,,67,64
69720,note_off,120,0,7,,,,,,,,4,,,,53,64
69720,note_off,120,0,6,,,,,,,,3,,,,60,64
69720,note_off,120,0,14,,,,,,,,15,,,,41,64
69720,note_off,120,0,4,,,,,,,,2,,,,67,64
69720,note_off,120,0,13,,,,,,,,14,,,,53,64
69720,note_off,120,0,8,,,,,,,,5,,,,69,64
69840,note_on,160,0,1,,,,,,,,0,,,,70,102
69840,note_on,160,0,10,,,,,,,,11,,,,70,102
69840,note_on,160,0,3,,,,,,,,2,,,,70,102
69920,note_off,80,0,3,,,,,,,,2,,,,70,64
69920,note_off,80,0,1,,,,,,,,0,,,,70,64
69920,note_off,80,0,10,,,,,,,,11,,,,70,64
70080,note_on,360,0,4,,,,,,,,2,,,,65,81
70080,note_on,160,0,1,,,,,,,,0,,,,72,96
70080,note_on,160,0,10,,,,,,,,11,,,,72,96
70080,note_on,360,0,8,,,,,,,,5,,,,65,81
70080,note_on,360,0,12,,,,,,,,13,,,,60,81
70080,note_on,360,0,6,,,,,,,,3,,,,60,81
70080,note_on,160,0,3,,,,,,,,2,,,,72,96
70080,note_on,360,0,9,,,,,,,,5,,,,60,81
70080,note_on,360,0,5,,,,,,,,3,,,,65,81
70080,note_on,360,0,11,,,,,,,,12,,,,65,81
70080,note_on,360,0,13,,,,,,,,14,,,,45,81
70080,note_on,360,0,7,,,,,,,,4,,,,45,81
70080,note_on,360,0,14,,,,,,,,15,,,,33,81
70080,note_on,360,0,2,,,,,,,,1,,,,65,81
70200,note_off,120,0,1,,,,,,,,0,,,,72,64
70200,note_off,120,0,5,,,,,,,,3,,,,65,64
70200,note_off,120,0,6,,,,,,,,3,,,,60,64
70200,note_off,120,0,3,,,,,,,,2,,,,72,64
70200,note_off,120,0,12,,,,,,,,13,,,,60,64
70200,note_off,120,0,7,,,,,,,,4,,,,45,64
70200,note_off,120,0,9,,,,,,,,5,,,,60,64
70200,note_off,120,0,10,,,,,,,,11,,,,72,64
70200,note_off,120,0,4,,,,,,,,2,,,,65,64
70200,note_off,120,0,8,,,,,,,,5,,,,65,64
70200,note_off,120,0,13,,,,,,,,14,,,,45,64
70200,note_off,120,0,2,,,,,,,,1,,,,65,64
70200,note_off,120,0,14,,,,,,,,15,,,,33,64
70200,note_off,120,0,11,,,,,,,,12,,,,65,64
70560,note_on,360,0,9,,,,,,,,5,,,,58,69
70560,note_on,360,0,3,,,,,,,,2,,,,67,84
70560,note_on,360,0,10,,,,,,,,11,,,,67,84
70560,note_on,360,0,7,,,,,,,,4,,,,46,69
70560,note_on,360,0,11,,,,,,,,12,,,,62,69
70560,note_on,360,0,6,,,,,,,,3,,,,58,69
70560,note_on,360,0,2,,,,,,,,1,,,,62,69
70560,note_on,360,0,5,,,,,,,,3,,,,62,69
70560,note_on,360,0,8,,,,,,,,5,,,,62,69
70560,note_on,360,0,14,,,,,,,,15,,,,34,69
70560,note_on,360,0,12,,,,,,,,13,,,,58,69
70560,note_on,360,0,13,,,,,,,,14,,,,46,69
70560,note_on,360,0,4,,,,,,,,2,,,,62,69
70560,note_on,360,0,1,,,,,,,,0,,,,67,84
70640,note_off,80,0,13,,,,,,,,14,,,,46,64
70640,note_off,80,0,7,,,,,,,,4,,,,46,64
70640,note_off,80,0,14,,,,,,,,15,,,,34,64
70680,note_off,120,0,11,,,,,,,,12,,,,62,64
70680,note_off,120,0,8,,,,,,,,5,,,,62,64
70680,note_off,120,0,3,,,,,,,,2,,,,67,64
70680,note_off,120,0,6,,,,,,,,3,,,,58,64
70680,note_off,120,0,5,,,,,,,,3,,,,62,64
70680,note_off,120,0,4,,,,,,,,2,,,,62,64
70680,note_off,120,0,9,,,,,,,,5,,,,58,64
70680,note_off,120,0,2,,,,,,,,1,,,,62,64
70680,note_off,120,0,12,,,,,,,,13,,,,58,64
70680,note_off,120,0,1,,,,,,,,0,,,,67,64
70680,note_off,120,0,10,,,,,,,,11,,,,67,64
70800,note_on,160,0,7,,,,,,,,4,,,,48,63
70800,note_on,160,0,13,,,,,,,,14,,,,48,63
70800,note_on,160,0,14,,,,,,,,15,,,,36,63
70880,note_off,80,0,14,,,,,,,,15,,,,36,64
70880,note_off,80,0,7,,,,,,,,4,,,,48,64
70880,note_off,80,0,13,,,,,,,,14,,,,48,64
71040,note_on,360,0,6,,,,,,,,3,,,,53,57
71040,note_on,360,0,5,,,,,,,,3,,,,65,57
71040,note_on,360,0,1,,,,,,,,0,,,,65,72
71040,note_on,160,0,14,,,,,,,,15,,,,38,57
71040,note_on,360,0,11,,,,,,,,12,,,,65,57
71040,note_on,360,0,8,,,,,,,,5,,,,65,57
71040,note_on,160,0,7,,,,,,,,4,,,,50,57
71040,note_on,360,0,9,,,,,,,,5,,,,53,57
71040,note_on,360,0,10,,,,,,,,11,,,,65,72
71040,note_on,360,0,4,,,,,,,,2,,,,65,57
71040,note_on,360,0,12,,,,,,,,13,,,,53,57
71040,note_on,160,0,13,,,,,,,,14,,,,50,57
71040,note_on,360,0,2,,,,,,,,1,,,,65,57
71040,note_on,360,0,3,,,,,,,,2,,,,65,72
71160,note_off,120,0,6,,,,,,,,3,,,,53,64
71160,note_off,120,0,12,,,,,,,,13,,,,53,64
71160,note_off,120,0,11,,,,,,,,12,,,,65,64
71160,note_off,120,0,5,,,,,,,,3,,,,65,64
71160,note_off,120,0,1,,,,,,,,0,,,,65,64
71160,note_off,120,0,13,,,,,,,,14,,,,50,64
71160,note_off,120,0,4,,,,,,,,2,,,,65,64
71160,note_off,120,0,8,,,,,,,,5,,,,65,64
71160,note_off,120,0,3,,,,,,,,2,,,,65,64
71160,note_off,120,0,2,,,,,,,,1,,,,65,64
71160,note_off,120,0,9,,,,,,,,5,,,,53,64
71160,note_off,120,0,10,,,,,,,,11,,,,65,64
71160,note_off,120,0,7,,,,,,,,4,,,,50,64
71160,note_off,120,0,14,,,,,,,,15,,,,38,64
71520,note_on,360,0,4,,,,,,,,2,,,,60,45
71520,note_on,360,0,3,,,,,,,,2,,,,64,60
71520,note_on,360,0,1,,,,,,,,0,,,,64,60
71520,note_on,360,0,9,,,,,,,,5,,,,55,45
71520,note_on,360,0,5,,,,,,,,3,,,,60,45
71520,note_on,360,0,6,,,,,,,,3,,,,55,45
71520,note_on,360,0,13,,,,,,,,14,,,,48,45
71520,note_on,360,0,14,,,,,,,,15,,,,36,45
71520,note_on,360,0,7,,,,,,,,4,,,,48,45
71520,note_on,360,0,10,,,,,,,,11,,,,64,60
71520,note_on,360,0,11,,,,,,,,12,,,,60,45
71520,note_on,360,0,2,,,,,,,,1,,,,60,45
71520,note_on,360,0,8,,,,,,,,5,,,,60,45
71520,note_on,360,0,12,,,,,,,,13,,,,55,45
71600,note_off,80,0,10,,,,,,,,11,,,,64,64
71600,note_off,80,0,3,,,,,,,,2,,,,64,64
71600,note_off,80,0,1,,,,,,,,0,,,,64,64
71640,note_off,120,0,13,,,,,,,,14,,,,48,64
71640,note_off,120,0,11,,,,,,,,12,,,,60,64
71640,note_off,120,0,2,,,,,,,,1,,,,60,64
71640,note_off,120,0,14,,,,,,,,15,,,,36,64
71640,note_off,120,0,8,,,,,,,,5,,,,60,64
71640,note_off,120,0,4,,,,,,,,2,,,,60,64
71640,note_off,120,0,5,,,,,,,,3,,,,60,64
71640,note_off,120,0,7,,,,,,,,4,,,,48,64
71760,note_on,160,0,1,,,,,,,,0,,,,65,60
71760,note_on,160,0,3,,,,,,,,2,,,,65,60
71760,note_on,160,0,10,,,,,,,,11,,,,65,60
71840,note_off,80,0,1,,,,,,,,0,,,,65,64
71840,note_off,80,0,3,,,,,,,,2,,,,65,64
71840,note_off,80,0,10,,,,,,,,11,,,,65,64
72000,note_on,360,0,7,,,,,,,,4,,,,46,45
72000,note_on,160,0,3,,,,,,,,2,,,,67,60
72000,note_on,160,0,10,,,,,,,,11,,,,67,60
72000,note_on,360,0,14,,,,,,,,15,,,,34,45
72000,note_on,160,0,1,,,,,,,,0,,,,67,60
72000,note_on,360,0,13,,,,,,,,14,,,,46,45
72120,note_off,120,0,1,,,,,,,,0,,,,67,64
72120,note_off,120,0,14,,,,,,,,15,,,,34,64
72120,note_off,120,0,10,,,,,,,,11,,,,67,64
72120,note_off,120,0,7,,,,,,,,4,,,,46,64
72120,note_off,120,0,13,,,,,,,,14,,,,46,64
72120,note_off,120,0,3,,,,,,,,2,,,,67,64
72360,note_off,840,0,6,,,,,,,,3,,,,55,64
72360,note_off,840,0,9,,,,,,,,5,,,,55,64
72360,note_off,840,0,12,,,,,,,,13,,,,55,64
72480,note_on,120,0,6,,,,,,,,3,,,,57,45
72480,note_on,360,0,10,,,,,,,,11,,,,60,60
72480,note_on,360,0,3,,,,,,,,2,,,,60,60
72480,note_on,360,0,7,,,,,,,,4,,,,45,45
72480,note_on,120,0,9,,,,,,,,5,,,,57,45
72480,note_on,120,0,12,,,,,,,,13,,,,57,45
72480,note_on,360,0,1,,,,,,,,0,,,,60,60
72480,note_on,360,0,14,,,,,,,,15,,,,33,45
72480,note_on,360,0,13,,,,,,,,14,,,,45,45
72600,note_off,120,0,10,,,,,,,,11,,,,60,64
72600,note_off,120,0,13,,,,,,,,14,,,,45,64
72600,note_off,120,0,12,,,,,,,,13,,,,57,64
72600,note_off,120,0,9,,,,,,,,5,,,,57,64
72600,note_off,120,0,14,,,,,,,,15,,,,33,64
72600,note_off,120,0,1,,,,,,,,0,,,,60,64
72600,note_off,120,0,3,,,,,,,,2,,,,60,64
72600,note_off,120,0,7,,,,,,,,4,,,,45,64
72600,note_off,120,0,6,,,,,,,,3,,,,57,64
72960,note_on,360,0,14,,,,,,,,15,,,,31,92
72960,note_on,360,0,3,,,,,,,,2,,,,72,108
72960,note_on,1320,0,8,,,,,,,,5,,,,64,92
72960,note_on,360,0,10,,,,,,,,11,,,,72,108
72960,note_on,1320,0,2,,,,,,,,1,,,,64,92
72960,note_on,1320,0,11,,,,,,,,12,,,,64,92
72960,note_on,360,0,6,,,,,,,,3,,,,58,92
72960,note_on,360,0,7,,,,,,,,4,,,,43,92
72960,note_on,1320,0,5,,,,,,,,3,,,,64,92
72960,note_on,360,0,13,,,,,,,,14,,,,43,92
72960,note_on,360,0,12,,,,,,,,13,,,,58,92
72960,note_on,1320,0,4,,,,,,,,2,,,,64,92
72960,note_on,360,0,1,,,,,,,,0,,,,72,108
72960,note_on,360,0,9,,,,,,,,5,,,,58,92
73080,note_off,120,0,10,,,,,,,,11,,,,72,64
73080,note_off,120,0,14,,,,,,,,15,,,,31,64
73080,note_off,120,0,13,,,,,,,,14,,,,43,64
73080,note_off,120,0,5,,,,,,,,3,,,,64,64
73080,note_off,120,0,9,,,,,,,,5,,,,58,64
73080,note_off,120,0,7,,,,,,,,4,,,,43,64
73080,note_off,120,0,3,,,,,,,,2,,,,72,64
73080,note_off,120,0,4,,,,,,,,2,,,,64,64
73080,note_off,120,0,8,,,,,,,,5,,,,64,64
73080,note_off,120,0,12,,,,,,,,13,,,,58,64
73080,note_off,120,0,2,,,,,,,,1,,,,64,64
73080,note_off,120,0,11,,,,,,,,12,,,,64,64
73080,note_off,120,0,1,,,,,,,,0,,,,72,64
73080,note_off,120,0,6,,,,,,,,3,,,,58,64
73440,note_on,360,0,14,,,,,,,,15,,,,29,92
73440,note_on,360,0,10,,,,,,,,11,,,,69,108
73440,note_on,360,0,7,,,,,,,,4,,,,41,92
73440,note_on,360,0,4,,,,,,,,2,,,,65,92
73440,note_on,360,0,12,,,,,,,,13,,,,60,92
73440,note_on,360,0,11,,,,,,,,12,,,,65,92
73440,note_on,360,0,5,,,,,,,,3,,,,65,92
73440,note_on,360,0,13,,,,,,,,14,,,,41,92
73440,note_on,360,0,2,,,,,,,,1,,,,65,92
73440,note_on,360,0,8,,,,,,,,5,,,,65,92
73440,note_on,360,0,3,,,,,,,,2,,,,69,108
73440,note_on,360,0,9,,,,,,,,5,,,,60,92
73440,note_on,360,0,6,,,,,,,,3,,,,60,92
73440,note_on,360,0,1,,,,,,,,0,,,,69,108
73560,note_off,120,0,6,,,,,,,,3,,,,60,64
73560,note_off,120,0,1,,,,,,,,0,,,,69,64
73560,note_off,120,0,14,,,,,,,,15,,,,29,64
73560,note_off,120,0,3,,,,,,,,2,,,,69,64
73560,note_off,120,0,7,,,,,,,,4,,,,41,64
73560,note_off,120,0,5,,,,,,,,3,,,,65,64
73560,note_off,120,0,12,,,,,,,,13,,,,60,64
73560,note_off,120,0,13,,,,,,,,14,,,,41,64
73560,note_off,120,0,10,,,,,,,,11,,,,69,64
73560,note_off,120,0,4,,,,,,,,2,,,,65,64
73560,note_off,120,0,8,,,,,,,,5,,,,65,64
73560,note_off,120,0,2,,,,,,,,1,,,,65,64
73560,note_off,120,0,9,,,,,,,,5,,,,60,64
73560,note_off,120,0,11,,,,,,,,12,,,,65,64
73920,note_on,360,0,8,,,,,,,,5,,,,65,92
73920,note_on,360,0,5,,,,,,,,3,,,,65,92
73920,note_on,360,0,12,,,,,,,,13,,,,58,92
73920,note_on,360,0,9,,,,,,,,5,,,,58,92
73920,note_on,360,0,14,,,,,,,,15,,,,34,92
73920,note_on,360,0,10,,,,,,,,11,,,,74,108
73920,note_on,360,0,11,,,,,,,,12,,,,65,92
73920,note_on,360,0,13,,,,,,,,14,,,,46,92
73920,note_on,360,0,3,,,,,,,,2,,,,74,108
73920,note_on,360,0,4,,,,,,,,2,,,,65,92
73920,note_on,360,0,1,,,,,,,,0,,,,74,108
73920,note_on,360,0,7,,,,,,,,4,,,,46,92
73920,note_on,360,0,2,,,,,,,,1,,,,65,92
73920,note_on,360,0,6,,,,,,,,3,,,,58,92
74040,note_off,120,0,3,,,,,,,,2,,,,74,64
74040,note_off,120,0,8,,,,,,,,5,,,,65,64
74040,note_off,120,0,2,,,,,,,,1,,,,65,64
74040,note_off,120,0,9,,,,,,,,5,,,,58,64
74040,note_off,120,0,14,,,,,,,,15,,,,34,64
74040,note_off,120,0,7,,,,,,,,4,,,,46,64
74040,note_off,120,0,11,,,,,,,,12,,,,65,64
74040,note_off,120,0,1,,,,,,,,0,,,,74,64
74040,note_off,120,0,13,,,,,,,,14,,,,46,64
74040,note_off,120,0,6,,,,,,,,3,,,,58,64
74040,note_off,120,0,10,,,,,,,,11,,,,74,64
74040,note_off,120,0,12,,,,,,,,13,,,,58,64
74040,note_off,120,0,4,,,,,,,,2,,,,65,64
74040,note_off,120,0,5,,,,,,,,3,,,,65,64
74400,note_on,360,0,12,,,,,,,,13,,,,60,92
74400,note_on,360,0,11,,,,,,,,12,,,,65,92
74400,note_on,360,0,14,,,,,,,,15,,,,33,92
74400,note_on,360,0,10,,,,,,,,11,,,,72,108
74400,note_on,360,0,1,,,,,,,,0,,,,72,108
74400,note_on,360,0,4,,,,,,,,2,,,,65,92
74400,note_on,360,0,9,,,,,,,,5,,,,60,92
74400,note_on,360,0,7,,,,,,,,4,,,,45,92
74400,note_on,360,0,5,,,,,,,,3,,,,65,92
74400,note_on,360,0,8,,,,,,,,5,,,,65,92
74400,note_on,360,0,2,,,,,,,,1,,,,65,92
74400,note_on,360,0,13,,,,,,,,14,,,,45,92
74400,note_on,360,0,3,,,,,,,,2,,,,72,108
74400,note_on,360,0,6,,,,,,,,3,,,,60,92
74520,note_off,120,0,7,,,,,,,,4,,,,45,64
74520,note_off,120,0,8,,,,,,,,5,,,,65,64
74520,note_off,120,0,14,,,,,,,,15,,,,33,64
74520,note_off,120,0,3,,,,,,,,2,,,,72,64
74520,note_off,120,0,4,,,,,,,,2,,,,65,64
74520,note_off,120,0,9,,,,,,,,5,,,,60,64
74520,note_off,120,0,2,,,,,,,,1,,,,65,64
74520,note_off,120,0,11,,,,,,,,12,,,,65,64
74520,note_off,120,0,13,,,,,,,,14,,,,45,64
74520,note_off,120,0,12,,,,,,,,13,,,,60,64
74520,note_off,120,0,6,,,,,,,,3,,,,60,64
74520,note_off,120,0,1,,,,,,,,0,,,,72,64
74520,note_off,120,0,10,,,,,,,,11,,,,72,64
74520,note_off,120,0,5,,,,,,,,3,,,,65,64
74880,note_on,360,0,11,,,,,,,,12,,,,69,92
74880,note_on,360,0,9,,,,,,,,5,,,,60,92
74880,note_on,360,0,3,,,,,,,,2,,,,77,108
74880,note_on,360,0,13,,,,,,,,14,,,,41,92
74880,note_on,360,0,8,,,,,,,,5,,,,69,92
74880,note_on,360,0,6,,,,,,,,3,,,,60,92
74880,note_on,360,0,4,,,,,,,,2,,,,69,92
74880,note_on,360,0,10,,,,,,,,11,,,,77,108
74880,note_on,360,0,1,,,,,,,,0,,,,77,108
74880,note_on,360,0,2,,,,,,,,1,,,,69,92
74880,note_on,360,0,14,,,,,,,,15,,,,29,92
74880,note_on,360,0,5,,,,,,,,3,,,,69,92
74880,note_on,360,0,12,,,,,,,,13,,,,60,92
74880,note_on,360,0,7,,,,,,,,4,,,,41,92
75000,note_off,120,0,5,,,,,,,,3,,,,69,64
75000,note_off,120,0,2,,,,,,,,1,,,,69,64
75000,note_off,120,0,9,,,,,,,,5,,,,60,64
75000,note_off,120,0,11,,,,,,,,12,,,,69,64
75000,note_off,120,0,14,,,,,,,,15,,,,29,64
75000,note_off,120,0,4,,,,,,,,2,,,,69,64
75000,note_off,120,0,3,,,,,,,,2,,,,77,64
75000,note_off,120,0,12,,,,,,,,13,,,,60,64
75000,note_off,120,0,7,,,,,,,,4,,,,41,64
75000,note_off,120,0,13,,,,,,,,14,,,,41,64
75000,note_off,120,0,10,,,,,,,,11,,,,77,64
75000,note_off,120,0,1,,,,,,,,0,,,,77,64
75000,note_off,120,0,8,,,,,,,,5,,,,69,64
75000,note_off,120,0,6,,,,,,,,3,,,,60,64
75360,note_on,360,0,8,,,,,,,,5,,,,67,92
75360,note_on,360,0,4,,,,,,,,2,,,,67,92
75360,note_on,360,0,12,,,,,,,,13,,,,60,92
75360,note_on,360,0,10,,,,,,,,11,,,,76,108
75360,note_on,360,0,5,,,,,,,,3,,,,67,92
75360,note_on,360,0,1,,,,,,,,0,,,,76,108
75360,note_on,360,0,2,,,,,,,,1,,,,67,92
75360,note_on,360,0,13,,,,,,,,14,,,,48,92
75360,note_on,360,0,11,,,,,,,,12,,,,67,92
75360,note_on,360,0,14,,,,,,,,15,,,,36,92
75360,note_on,360,0,7,,,,,,,,4,,,,48,92
75360,note_on,360,0,3,,,,,,,,2,,,,76,108
75360,note_on,360,0,9,,,,,,,,5,,,,60,92
75360,note_on,360,0,6,,,,,,,,3,,,,60,92
75480,note_off,120,0,13,,,,,,,,14,,,,48,64
75480,note_off,120,0,3,,,,,,,,2,,,,76,64
75480,note_off,120,0,4,,,,,,,,2,,,,67,64
75480,note_off,120,0,7,,,,,,,,4,,,,48,64
75480,note_off,120,0,11,,,,,,,,12,,,,67,64
75480,note_off,120,0,6,,,,,,,,3,,,,60,64
75480,note_off,120,0,12,,,,,,,,13,,,,60,64
75480,note_off,120,0,8,,,,,,,,5,,,,67,64
75480,note_off,120,0,5,,,,,,,,3,,,,67,64
75480,note_off,120,0,2,,,,,,,,1,,,,67,64
75480,note_off,120,0,10,,,,,,,,11,,,,76,64
75480,note_off,120,0,9,,,,,,,,5,,,,60,64
75480,note_off,120,0,1,,,,,,,,0,,,,76,64
75480,note_off,120,0,14,,,,,,,,15,,,,36,64
75840,note_on,360,0,13,,,,,,,,14,,,,53,92
75840,note_on,360,0,9,,,,,,,,5,,,,60,92
75840,note_on,360,0,1,,,,,,,,0,,,,81,108
75840,note_on,360,0,11,,,,,,,,12,,,,65,92
75840,note_on,360,0,8,,,,,,,,5,,,,65,92
75840,note_on,360,0,7,,,,,,,,4,,,,53,92
75840,note_on,360,0,14,,,,,,,,15,,,,41,92
75840,note_on,360,0,12,,,,,,,,13,,,,60,92
75840,note_on,360,0,3,,,,,,,,2,,,,81,108
75840,note_on,360,0,4,,,,,,,,2,,,,65,92
75840,note_on,360,0,10,,,,,,,,11,,,,81,108
75840,note_on,360,0,2,,,,,,,,1,,,,65,92
75840,note_on,360,0,5,,,,,,,,3,,,,65,92
75840,note_on,360,0,6,,,,,,,,3,,,,60,92
75960,note_off,120,0,13,,,,,,,,14,,,,53,64
75960,note_off,120,0,8,,,,,,,,5,,,,65,64
75960,note_off,120,0,12,,,,,,,,13,,,,60,64
75960,note_off,120,0,11,,,,,,,,12,,,,65,64
75960,note_off,120,0,9,,,,,,,,5,,,,60,64
75960,note_off,120,0,7,,,,,,,,4,,,,53,64
75960,note_off,120,0,4,,,,,,,,2,,,,65,64
75960,note_off,120,0,1,,,,,,,,0,,,,81,64
75960,note_off,120,0,2,,,,,,,,1,,,,65,64
75960,note_off,120,0,14,,,,,,,,15,,,,41,64
75960,note_off,120,0,6,,,,,,,,3,,,,60,64
75960,note_off,120,0,3,,,,,,,,2,,,,81,64
75960,note_off,120,0,5,,,,,,,,3,,,,65,64
75960,note_off,120,0,10,,,,,,,,11,,,,81,64
76320,note_on,360,0,2,,,,,,,,1,,,,72,92
76320,note_on,360,0,5,,,,,,,,3,,,,72,92
76320,note_on,360,0,13,,,,,,,,14,,,,52,92
76320,note_on,360,0,1,,,,,,,,0,,,,79,108
76320,note_on,360,0,7,,,,,,,,4,,,,52,92
76320,note_on,360,0,12,,,,,,,,13,,,,60,92
76320,note_on,360,0,6,,,,,,,,3,,,,60,92
76320,note_on,360,0,8,,,,,,,,5,,,,72,92
76320,note_on,360,0,4,,,,,,,,2,,,,72,92
76320,note_on,360,0,14,,,,,,,,15,,,,40,92
76320,note_on,360,0,9,,,,,,,,5,,,,60,92
76320,note_on,360,0,10,,,,,,,,11,,,,79,108
76320,note_on,360,0,3,,,,,,,,2,,,,79,108
76320,note_on,360,0,11,,,,,,,,12,,,,72,92
76400,note_off,80,0,10,,,,,,,,11,,,,79,64
76400,note_off,80,0,1,,,,,,,,0,,,,79,64
76400,note_off,80,0,3,,,,,,,,2,,,,79,64
76440,note_off,120,0,4,,,,,,,,2,,,,72,64
76440,note_off,120,0,9,,,,,,,,5,,,,60,64
76440,note_off,120,0,7,,,,,,,,4,,,,52,64
76440,note_off,120,0,12,,,,,,,,13,,,,60,64
76440,note_off,120,0,8,,,,,,,,5,,,,72,64
76440,note_off,120,0,13,,,,,,,,14,,,,52,64
76440,note_off,120,0,11,,,,,,,,12,,,,72,64
76440,note_off,120,0,5,,,,,,,,3,,,,72,64
76440,note_off,120,0,6,,,,,,,,3,,,,60,64
76440,note_off,120,0,14,,,,,,,,15,,,,40,64
76440,note_off,120,0,2,,,,,,,,1,,,,72,64
76560,note_on,160,0,1,,,,,,,,0,,,,81,108
76560,note_on,160,0,10,,,,,,,,11,,,,81,108
76560,note_on,160,0,3,,,,,,,,2,,,,81,108
76640,note_off,80,0,10,,,,,,,,11,,,,81,64
76640,note_off,80,0,1,,,,,,,,0,,,,81,64
76640,note_off,80,0,3,,,,,,,,2,,,,81,64
76800,note_on,360,0,12,,,,,,,,13,,,,60,92
76800,note_on,360,0,11,,,,,,,,12,,,,64,92
76800,note_on,360,0,8,,,,,,,,5,,,,64,92
76800,note_on,360,0,7,,,,,,,,4,,,,48,92
76800,note_on,160,0,10,,,,,,,,11,,,,82,108
76800,note_on,360,0,9,,,,,,,,5,,,,60,92
76800,note_on,360,0,13,,,,,,,,14,,,,48,92
76800,note_on,360,0,6,,,,,,,,3,,,,60,92
76800,note_on,360,0,4,,,,,,,,2,,,,64,92
76800,note_on,360,0,14,,,,,,,,15,,,,36,92
76800,note_on,360,0,2,,,,,,,,1,,,,64,92
76800,note_on,160,0,3,,,,,,,,2,,,,82,108
76800,note_on,160,0,1,,,,,,,,0,,,,82,108
76800,note_on,360,0,5,,,,,,,,3,,,,64,92
76920,note_off,120,0,8,,,,,,,,5,,,,64,64
76920,note_off,120,0,2,,,,,,,,1,,,,64,64
76920,note_off,120,0,9,,,,,,,,5,,,,60,64
76920,note_off,120,0,10,,,,,,,,11,,,,82,64
76920,note_off,120,0,1,,,,,,,,0,,,,82,64
76920,note_off,120,0,14,,,,,,,,15,,,,36,64
76920,note_off,120,0,3,,,,,,,,2,,,,82,64
76920,note_off,120,0,7,,,,,,,,4,,,,48,64
76920,note_off,120,0,13,,,,,,,,14,,,,48,64
76920,note_off,120,0,11,,,,,,,,12,,,,64,64
76920,note_off,120,0,4,,,,,,,,2,,,,64,64
76920,note_off,120,0,12,,,,,,,,13,,,,60,64
76920,note_off,120,0,5,,,,,,,,3,,,,64,64
76920,note_off,120,0,6,,,,,,,,3,,,,60,64
77280,note_on,360,0,8,,,,,,,,5,,,,65,92
77280,note_on,360,0,12,,,,,,,,13,,,,60,92
77280,note_on,360,0,2,,,,,,,,1,,,,65,92
77280,note_on,360,0,4,,,,,,,,2,,,,65,92
77280,note_on,360,0,9,,,,,,,,5,,,,60,92
77280,note_on,360,0,11,,,,,,,,12,,,,65,92
77280,note_on,360,0,3,,,,,,,,2,,,,81,108
77280,note_on,360,0,6,,,,,,,,3,,,,60,92
77280,note_on,360,0,1,,,,,,,,0,,,,81,108
77280,note_on,360,0,10,,,,,,,,11,,,,81,108
77280,note_on,360,0,13,,,,,,,,14,,,,53,92
77280,note_on,360,0,7,,,,,,,,4,,,,53,92
77280,note_on,360,0,5,,,,,,,,3,,,,65,92
77280,note_on,360,0,14,,,,,,,,15,,,,41,92
77400,note_off,120,0,6,,,,,,,,3,,,,60,64
77400,note_on,0,0,3,,,,,,,,2,,,,82,108
77400,note_off,120,0,9,,,,,,,,5,,,,60,64
77400,note_off,120,0,14,,,,,,,,15,,,,41,64
77400,note_off,120,0,3,,,,,,,,2,,,,81,64
77400,note_off,120,0,11,,,,,,,,12,,,,65,64
77400,note_off,120,0,8,,,,,,,,5,,,,65,64
77400,note_off,120,0,2,,,,,,,,1,,,,65,64
77400,note_on,0,0,1,,,,,,,,0,,,,82,108
77400,note_off,120,0,1,,,,,,,,0,,,,81,64
77400,note_off,120,0,7,,,,,,,,4,,,,53,64
77400,note_off,120,0,12,,,,,,,,13,,,,60,64
77400,note_off,120,0,13,,,,,,,,14,,,,53,64
77400,note_off,120,0,10,,,,,,,,11,,,,81,64
77400,note_on,0,0,10,,,,,,,,11,,,,82,108
77400,note_off,120,0,4,,,,,,,,2,,,,65,64
77400,note_off,120,0,5,,,,,,,,3,,,,65,64
77520,note_on,0,0,1,,,,,,,,0,,,,81,108
77520,note_on,0,0,10,,,,,,,,11,,,,81,108
77520,note_off,120,0,10,,,,,,,,11,,,,82,64
77520,note_off,120,0,1,,,,,,,,0,,,,82,64
77520,note_off,120,0,3,,,,,,,,2,,,,82,64
77520,note_on,0,0,3,,,,,,,,2,,,,81,108
77640,note_off,120,0,3,,,,,,,,2,,,,81,64
77640,note_on,0,0,3,,,,,,,,2,,,,82,108
77640,note_on,0,0,1,,,,,,,,0,,,,82,108
77640,note_off,120,0,1,,,,,,,,0,,,,81,64
77640,note_off,120,0,10,,,,,,,,11,,,,81,64
77640,note_on,0,0,10,,,,,,,,11,,,,82,108
77755,note_off,115,0,10,,,,,,,,11,,,,82,64
77755,note_off,115,0,3,,,,,,,,2,,,,82,64
77755,note_off,115,0,1,,,,,,,,0,,,,82,64
77760,note_on,360,0,5,,,,,,,,3,,,,72,92
77760,note_on,360,0,12,,,,,,,,13,,,,60,92
77760,note_on,5,0,1,,,,,,,,0,,,,79,108
77760,note_on,360,0,8,,,,,,,,5,,,,72,92
77760,note_on,5,0,10,,,,,,,,11,,,,79,108
77760,note_on,360,0,7,,,,,,,,4,,,,57,92
77760,note_on,360,0,13,,,,,,,,14,,,,57,92
77760,note_on,360,0,11,,,,,,,,12,,,,72,92
77760,note_on,360,0,2,,,,,,,,1,,,,72,92
77760,note_on,360,0,4,,,,,,,,2,,,,72,92
77760,note_on,360,0,9,,,,,,,,5,,,,60,92
77760,note_on,5,0,3,,,,,,,,2,,,,79,108
77760,note_on,360,0,6,,,,,,,,3,,,,60,92
77760,note_on,360,0,14,,,,,,,,15,,,,45,92
77840,note_off,80,0,3,,,,,,,,2,,,,79,64
77840,note_off,80,0,1,,,,,,,,0,,,,79,64
77840,note_off,80,0,10,,,,,,,,11,,,,79,64
77880,note_off,120,0,13,,,,,,,,14,,,,57,64
77880,note_off,120,0,7,,,,,,,,4,,,,57,64
77880,note_off,120,0,5,,,,,,,,3,,,,72,64
77880,note_off,120,0,9,,,,,,,,5,,,,60,64
77880,note_off,120,0,8,,,,,,,,5,,,,72,64
77880,note_off,120,0,6,,,,,,,,3,,,,60,64
77880,note_off,120,0,11,,,,,,,,12,,,,72,64
77880,note_off,120,0,14,,,,,,,,15,,,,45,64
77880,note_off,120,0,12,,,,,,,,13,,,,60,64
77880,note_off,120,0,2,,,,,,,,1,,,,72,64
77880,note_off,120,0,4,,,,,,,,2,,,,72,64
78000,note_on,160,0,10,,,,,,,,11,,,,77,108
78000,note_on,160,0,1,,,,,,,,0,,,,77,108
78000,note_on,160,0,3,,,,,,,,2,,,,77,108
78080,note_off,80,0,10,,,,,,,,11,,,,77,64
78080,note_off,80,0,1,,,,,,,,0,,,,77,64
78080,note_off,80,0,3,,,,,,,,2,,,,77,64
78240,note_on,160,0,1,,,,,,,,0,,,,76,108
78240,note_on,360,0,4,,,,,,,,2,,,,67,92
78240,note_on,360,0,6,,,,,,,,3,,,,64,92
78240,note_on,360,0,2,,,,,,,,1,,,,67,92
78240,note_on,360,0,12,,,,,,,,13,,,,64,92
78240,note_on,160,0,10,,,,,,,,11,,,,76,108
78240,note_on,360,0,14,,,,,,,,15,,,,48,92
78240,note_on,160,0,3,,,,,,,,2,,,,76,108
78240,note_on,360,0,9,,,,,,,,5,,,,64,92
78240,note_on,360,0,5,,,,,,,,3,,,,67,92
78240,note_on,360,0,11,,,,,,,,12,,,,67,92
78240,note_on,360,0,13,,,,,,,,14,,,,60,92
78240,note_on,360,0,8,,,,,,,,5,,,,67,92
78240,note_on,360,0,7,,,,,,,,4,,,,60,92
78320,note_off,80,0,11,,,,,,,,12,,,,67,64
78320,note_off,80,0,4,,,,,,,,2,,,,67,64
78320,note_off,80,0,2,,,,,,,,1,,,,67,64
78320,note_off,80,0,8,,,,,,,,5,,,,67,64
78320,note_off,80,0,3,,,,,,,,2,,,,76,64
78320,note_off,80,0,1,,,,,,,,0,,,,76,64
78320,note_off,80,0,5,,,,,,,,3,,,,67,64
78320,note_off,80,0,10,,,,,,,,11,,,,76,64
78360,note_off,120,0,12,,,,,,,,13,,,,64,64
78360,note_off,120,0,14,,,,,,,,15,,,,48,64
78360,note_off,120,0,9,,,,,,,,5,,,,64,64
78360,note_off,120,0,6,,,,,,,,3,,,,64,64
78360,note_off,120,0,7,,,,,,,,4,,,,60,64
78360,note_off,120,0,13,,,,,,,,14,,,,60,64
78480,note_on,160,0,10,,,,,,,,11,,,,77,108
78480,note_on,160,0,5,,,,,,,,3,,,,69,92
78480,note_on,160,0,1,,,,,,,,0,,,,77,108
78480,note_on,160,0,3,,,,,,,,2,,,,77,108
78480,note_on,160,0,11,,,,,,,,12,,,,69,92
78480,note_on,160,0,4,,,,,,,,2,,,,69,92
78480,note_on,160,0,2,,,,,,,,1,,,,69,92
78480,note_on,160,0,8,,,,,,,,5,,,,69,92
78560,note_off,80,0,2,,,,,,,,1,,,,69,64
78560,note_off,80,0,1,,,,,,,,0,,,,77,64
78560,note_off,80,0,4,,,,,,,,2,,,,69,64
78560,note_off,80,0,8,,,,,,,,5,,,,69,64
78560,note_off,80,0,11,,,,,,,,12,,,,69,64
78560,note_off,80,0,3,,,,,,,,2,,,,77,64
78560,note_off,80,0,5,,,,,,,,3,,,,69,64
78560,note_off,80,0,10,,,,,,,,11,,,,77,64
78720,note_on,160,0,4,,,,,,,,2,,,,70,92
78720,note_on,160,0,8,,,,,,,,5,,,,70,92
78720,note_on,360,0,13,,,,,,,,14,,,,48,92
78720,note_on,160,0,11,,,,,,,,12,,,,70,92
78720,note_on,360,0,7,,,,,,,,4,,,,48,92
78720,note_on,160,0,5,,,,,,,,3,,,,70,92
78720,note_on,360,0,9,,,,,,,,5,,,,64,92
78720,note_on,160,0,2,,,,,,,,1,,,,70,92
78720,note_on,160,0,10,,,,,,,,11,,,,79,108
78720,note_on,360,0,14,,,,,,,,15,,,,36,92
78720,note_on,360,0,12,,,,,,,,13,,,,64,92
78720,note_on,360,0,6,,,,,,,,3,,,,64,92
78720,note_on,160,0,3,,,,,,,,2,,,,79,108
78720,note_on,160,0,1,,,,,,,,0,,,,79,108
78840,note_off,120,0,8,,,,,,,,5,,,,70,64
78840,note_off,120,0,14,,,,,,,,15,,,,36,64
78840,note_off,120,0,11,,,,,,,,12,,,,70,64
78840,note_off,120,0,2,,,,,,,,1,,,,70,64
78840,note_off,120,0,6,,,,,,,,3,,,,64,64
78840,note_off,120,0,3,,,,,,,,2,,,,79,64
78840,note_off,120,0,13,,,,,,,,14,,,,48,64
78840,note_off,120,0,12,,,,,,,,13,,,,64,64
78840,note_off,120,0,1,,,,,,,,0,,,,79,64
78840,note_off,120,0,9,,,,,,,,5,,,,64,64
78840,note_off,120,0,10,,,,,,,,11,,,,79,64
78840,note_off,120,0,4,,,,,,,,2,,,,70,64
78840,note_off,120,0,5,,,,,,,,3,,,,70,64
78840,note_off,120,0,7,,,,,,,,4,,,,48,64
79200,note_on,360,0,6,,,,,,,,3,,,,65,92
79200,note_on,360,0,11,,,,,,,,12,,,,69,92
79200,note_on,360,0,7,,,,,,,,4,,,,50,92
79200,note_on,360,0,2,,,,,,,,1,,,,69,92
79200,set_tempo,79200,1,0,300000,,,,,,,,,,,,
79200,note_on,360,0,3,,,,,,,,2,,,,77,108
79200,note_on,360,0,12,,,,,,,,13,,,,65,92
79200,note_on,360,0,1,,,,,,,,0,,,,77,108
79200,note_on,360,0,4,,,,,,,,2,,,,69,92
79200,note_on,360,0,5,,,,,,,,3,,,,69,92
79200,note_on,360,0,8,,,,,,,,5,,,,69,92
79200,note_on,360,0,13,,,,,,,,14,,,,50,92
79200,note_on,360,0,9,,,,,,,,5,,,,65,92
79200,note_on,360,0,14,,,,,,,,15,,,,38,92
79200,note_on,360,0,10,,,,,,,,11,,,,77,108
79320,note_off,120,0,12,,,,,,,,13,,,,65,64
79320,note_off,120,0,7,,,,,,,,4,,,,50,64
79320,note_off,120,0,5,,,,,,,,3,,,,69,64
79320,note_off,120,0,13,,,,,,,,14,,,,50,64
79320,note_off,120,0,10,,,,,,,,11,,,,77,64
79320,note_off,120,0,3,,,,,,,,2,,,,77,64
79320,note_off,120,0,11,,,,,,,,12,,,,69,64
79320,note_off,120,0,4,,,,,,,,2,,,,69,64
79320,note_off,120,0,1,,,,,,,,0,,,,77,64
79320,note_off,120,0,6,,,,,,,,3,,,,65,64
79320,note_off,120,0,2,,,,,,,,1,,,,69,64
79320,note_off,120,0,14,,,,,,,,15,,,,38,64
79320,note_on,0,0,1,,,,,,,,0,,,,79,108
79320,note_off,120,0,8,,,,,,,,5,,,,69,64
79320,note_off,120,0,9,,,,,,,,5,,,,65,64
79320,note_on,0,0,3,,,,,,,,2,,,,79,108
79320,note_on,0,0,10,,,,,,,,11,,,,79,108
79440,note_off,120,0,3,,,,,,,,2,,,,79,64
79440,note_on,0,0,3,,,,,,,,2,,,,77,108
79440,note_off,120,0,10,,,,,,,,11,,,,79,64
79440,note_on,0,0,10,,,,,,,,11,,,,77,108
79440,note_off,120,0,1,,,,,,,,0,,,,79,64
79440,note_on,0,0,1,,,,,,,,0,,,,77,108
79560,note_off,120,0,10,,,,,,,,11,,,,77,64
79560,note_on,0,0,3,,,,,,,,2,,,,79,108
79560,note_on,0,0,10,,,,,,,,11,,,,79,108
79560,note_off,120,0,1,,,,,,,,0,,,,77,64
79560,note_on,0,0,1,,,,,,,,0,,,,79,108
79560,note_off,120,0,3,,,,,,,,2,,,,77,64
79675,note_off,115,0,3,,,,,,,,2,,,,79,64
79675,note_off,115,0,10,,,,,,,,11,,,,79,64
79675,note_off,115,0,1,,,,,,,,0,,,,79,64
79680,note_on,360,0,5,,,,,,,,3,,,,70,92
79680,note_on,360,0,6,,,,,,,,3,,,,65,92
79680,note_on,360,0,2,,,,,,,,1,,,,70,92
79680,note_on,360,0,12,,,,,,,,13,,,,65,92
79680,note_on,5,0,1,,,,,,,,0,,,,76,108
79680,note_on,360,0,11,,,,,,,,12,,,,70,92
79680,note_on,360,0,9,,,,,,,,5,,,,65,92
79680,note_on,360,0,4,,,,,,,,2,,,,70,92
79680,note_on,5,0,10,,,,,,,,11,,,,76,108
79680,note_on,360,0,14,,,,,,,,15,,,,46,92
79680,note_on,360,0,8,,,,,,,,5,,,,70,92
79680,note_on,360,0,13,,,,,,,,14,,,,58,92
79680,note_on,360,0,7,,,,,,,,4,,,,58,92
79680,set_tempo,480,1,0,315789,,,,,,,,,,,,
79680,note_on,5,0,3,,,,,,,,2,,,,76,108
79760,note_off,80,0,3,,,,,,,,2,,,,76,64
79760,note_off,80,0,1,,,,,,,,0,,,,76,64
79760,note_off,80,0,10,,,,,,,,11,,,,76,64
79800,note_off,120,0,7,,,,,,,,4,,,,58,64
79800,note_off,120,0,11,,,,,,,,12,,,,70,64
79800,note_off,120,0,8,,,,,,,,5,,,,70,64
79800,note_off,120,0,2,,,,,,,,1,,,,70,64
79800,note_off,120,0,6,,,,,,,,3,,,,65,64
79800,note_off,120,0,13,,,,,,,,14,,,,58,64
79800,note_off,120,0,14,,,,,,,,15,,,,46,64
79800,note_off,120,0,12,,,,,,,,13,,,,65,64
79800,note_off,120,0,5,,,,,,,,3,,,,70,64
79800,note_off,120,0,4,,,,,,,,2,,,,70,64
79800,note_off,120,0,9,,,,,,,,5,,,,65,64
79920,note_on,160,0,10,,,,,,,,11,,,,74,108
79920,note_on,160,0,1,,,,,,,,0,,,,74,108
79920,note_on,160,0,3,,,,,,,,2,,,,74,108
80000,note_off,80,0,10,,,,,,,,11,,,,74,64
80000,note_off,80,0,1,,,,,,,,0,,,,74,64
80000,note_off,80,0,3,,,,,,,,2,,,,74,64
80160,note_on,160,0,1,,,,,,,,0,,,,72,108
80160,note_on,360,0,11,,,,,,,,12,,,,67,92
80160,note_on,360,0,2,,,,,,,,1,,,,67,92
80160,note_on,160,0,3,,,,,,,,2,,,,72,108
80160,note_on,360,0,6,,,,,,,,3,,,,67,92
80160,set_tempo,480,1,0,333333,,,,,,,,,,,,
80160,note_on,360,0,5,,,,,,,,3,,,,67,92
80160,note_on,360,0,12,,,,,,,,13,,,,67,92
80160,note_on,360,0,9,,,,,,,,5,,,,67,92
80160,note_on,160,0,10,,,,,,,,11,,,,72,108
80160,note_on,360,0,8,,,,,,,,5,,,,67,92
80160,note_on,360,0,7,,,,,,,,4,,,,52,92
80160,note_on,360,0,13,,,,,,,,14,,,,52,92
80160,note_on,360,0,14,,,,,,,,15,,,,40,92
80160,note_on,360,0,4,,,,,,,,2,,,,67,92
80280,note_off,120,0,1,,,,,,,,0,,,,72,64
80280,note_off,120,0,12,,,,,,,,13,,,,67,64
80280,note_off,120,0,3,,,,,,,,2,,,,72,64
80280,note_off,120,0,5,,,,,,,,3,,,,67,64
80280,note_off,120,0,9,,,,,,,,5,,,,67,64
80280,note_off,120,0,14,,,,,,,,15,,,,40,64
80280,note_off,120,0,8,,,,,,,,5,,,,67,64
80280,note_off,120,0,13,,,,,,,,14,,,,52,64
80280,note_off,120,0,11,,,,,,,,12,,,,67,64
80280,note_off,120,0,10,,,,,,,,11,,,,72,64
80280,note_off,120,0,4,,,,,,,,2,,,,67,64
80280,note_off,120,0,6,,,,,,,,3,,,,67,64
80280,note_off,120,0,7,,,,,,,,4,,,,52,64
80280,note_off,120,0,2,,,,,,,,1,,,,67,64
80640,note_on,360,0,14,,,,,,,,15,,,,48,92
80640,note_on,360,0,6,,,,,,,,3,,,,67,92
80640,note_on,360,0,3,,,,,,,,2,,,,70,108
80640,note_on,360,0,2,,,,,,,,1,,,,64,92
80640,note_on,360,0,13,,,,,,,,14,,,,60,92
80640,note_on,360,0,1,,,,,,,,0,,,,70,108
80640,note_on,360,0,4,,,,,,,,2,,,,64,92
80640,note_on,360,0,12,,,,,,,,13,,,,67,92
80640,note_on,360,0,8,,,,,,,,5,,,,64,92
80640,note_on,360,0,10,,,,,,,,11,,,,70,108
80640,note_on,360,0,9,,,,,,,,5,,,,67,92
80640,set_tempo,480,1,0,352941,,,,,,,,,,,,
80640,note_on,360,0,5,,,,,,,,3,,,,64,92
80640,note_on,360,0,7,,,,,,,,4,,,,60,92
80640,note_on,360,0,11,,,,,,,,12,,,,64,92
80760,note_off,120,0,12,,,,,,,,13,,,,67,64
80760,note_off,120,0,4,,,,,,,,2,,,,64,64
80760,note_off,120,0,9,,,,,,,,5,,,,67,64
80760,note_off,120,0,2,,,,,,,,1,,,,64,64
80760,note_off,120,0,8,,,,,,,,5,,,,64,64
80760,note_off,120,0,3,,,,,,,,2,,,,70,64
80760,note_off,120,0,7,,,,,,,,4,,,,60,64
80760,note_off,120,0,10,,,,,,,,11,,,,70,64
80760,note_off,120,0,14,,,,,,,,15,,,,48,64
80760,note_off,120,0,13,,,,,,,,14,,,,60,64
80760,note_off,120,0,5,,,,,,,,3,,,,64,64
80760,note_off,120,0,6,,,,,,,,3,,,,67,64
80760,note_off,120,0,1,,,,,,,,0,,,,70,64
80760,note_off,120,0,11,,,,,,,,12,,,,64,64
81120,note_on,360,0,6,,,,,,,,3,,,,69,92
81120,note_on,360,0,11,,,,,,,,12,,,,65,92
81120,note_on,360,0,12,,,,,,,,13,,,,69,92
81120,note_on,360,0,14,,,,,,,,15,,,,41,92
81120,note_on,360,0,4,,,,,,,,2,,,,65,92
81120,note_on,360,0,8,,,,,,,,5,,,,65,92
81120,note_on,360,0,10,,,,,,,,11,,,,69,108
81120,note_on,360,0,1,,,,,,,,0,,,,69,108
81120,note_on,360,0,3,,,,,,,,2,,,,69,108
81120,note_on,360,0,7,,,,,,,,4,,,,53,92
81120,set_tempo,480,1,0,375000,,,,,,,,,,,,
81120,note_on,360,0,13,,,,,,,,14,,,,53,92
81120,note_on,360,0,9,,,,,,,,5,,,,69,92
81120,note_on,360,0,2,,,,,,,,1,,,,65,92
81120,note_on,360,0,5,,,,,,,,3,,,,65,92
81200,note_off,80,0,10,,,,,,,,11,,,,69,64
81200,note_off,80,0,3,,,,,,,,2,,,,69,64
81200,note_off,80,0,1,,,,,,,,0,,,,69,64
81240,note_off,120,0,11,,,,,,,,12,,,,65,64
81240,note_off,120,0,12,,,,,,,,13,,,,69,64
81240,note_off,120,0,2,,,,,,,,1,,,,65,64
81240,note_off,120,0,7,,,,,,,,4,,,,53,64
81240,note_off,120,0,4,,,,,,,,2,,,,65,64
81240,note_off,120,0,5,,,,,,,,3,,,,65,64
81240,note_off,120,0,9,,,,,,,,5,,,,69,64
81240,note_off,120,0,8,,,,,,,,5,,,,65,64
81240,note_off,120,0,13,,,,,,,,14,,,,53,64
81240,note_off,120,0,6,,,,,,,,3,,,,69,64
81240,note_off,120,0,14,,,,,,,,15,,,,41,64
81360,note_on,160,0,1,,,,,,,,0,,,,70,108
81360,note_on,160,0,10,,,,,,,,11,,,,70,108
81360,note_on,160,0,3,,,,,,,,2,,,,70,108
81440,note_off,80,0,10,,,,,,,,11,,,,70,64
81440,note_off,80,0,1,,,,,,,,0,,,,70,64
81440,note_off,80,0,3,,,,,,,,2,,,,70,64
81600,note_on,360,0,8,,,,,,,,5,,,,65,92
81600,note_on,360,0,11,,,,,,,,12,,,,65,92
81600,note_on,360,0,7,,,,,,,,4,,,,45,92
81600,note_on,360,0,2,,,,,,,,1,,,,65,92
81600,note_on,360,0,12,,,,,,,,13,,,,60,92
81600,note_on,160,0,3,,,,,,,,2,,,,72,108
81600,note_on,360,0,9,,,,,,,,5,,,,60,92
81600,note_on,360,0,14,,,,,,,,15,,,,45,92
81600,note_on,160,0,1,,,,,,,,0,,,,72,108
81600,note_on,360,0,13,,,,,,,,14,,,,45,92
81600,note_on,360,0,6,,,,,,,,3,,,,60,92
81600,note_on,360,0,4,,,,,,,,2,,,,65,92
81600,note_on,360,0,5,,,,,,,,3,,,,65,92
81600,set_tempo,480,1,0,400000,,,,,,,,,,,,
81600,note_on,160,0,10,,,,,,,,11,,,,72,108
81720,note_off,120,0,3,,,,,,,,2,,,,72,64
81720,note_off,120,0,14,,,,,,,,15,,,,45,64
81720,note_off,120,0,8,,,,,,,,5,,,,65,64
81720,note_off,120,0,13,,,,,,,,14,,,,45,64
81720,note_off,120,0,4,,,,,,,,2,,,,65,64
81720,note_off,120,0,10,,,,,,,,11,,,,72,64
81720,note_off,120,0,2,,,,,,,,1,,,,65,64
81720,note_off,120,0,11,,,,,,,,12,,,,65,64
81720,note_off,120,0,6,,,,,,,,3,,,,60,64
81720,note_off,120,0,1,,,,,,,,0,,,,72,64
81720,note_off,120,0,7,,,,,,,,4,,,,45,64
81720,note_off,120,0,9,,,,,,,,5,,,,60,64
81720,note_off,120,0,12,,,,,,,,13,,,,60,64
81720,note_off,120,0,5,,,,,,,,3,,,,65,64
82080,note_on,360,0,10,,,,,,,,11,,,,69,108
82080,note_on,360,0,1,,,,,,,,0,,,,69,108
82080,note_on,360,0,9,,,,,,,,5,,,,60,92
82080,note_on,360,0,14,,,,,,,,15,,,,48,92
82080,note_on,360,0,11,,,,,,,,12,,,,65,92
82080,note_on,360,0,7,,,,,,,,4,,,,48,92
82080,note_on,360,0,3,,,,,,,,2,,,,69,108
82080,note_on,360,0,6,,,,,,,,3,,,,60,92
82080,note_on,360,0,4,,,,,,,,2,,,,65,92
82080,note_on,360,0,5,,,,,,,,3,,,,65,92
82080,note_on,360,0,12,,,,,,,,13,,,,60,92
82080,set_tempo,480,1,0,428571,,,,,,,,,,,,
82080,note_on,360,0,13,,,,,,,,14,,,,48,92
82080,note_on,360,0,2,,,,,,,,1,,,,65,92
82080,note_on,360,0,8,,,,,,,,5,,,,65,92
82200,note_off,120,0,3,,,,,,,,2,,,,69,64
82200,note_off,120,0,12,,,,,,,,13,,,,60,64
82200,note_off,120,0,7,,,,,,,,4,,,,48,64
82200,note_off,120,0,2,,,,,,,,1,,,,65,64
82200,note_off,120,0,1,,,,,,,,0,,,,69,64
82200,note_off,120,0,13,,,,,,,,14,,,,48,64
82200,note_off,120,0,6,,,,,,,,3,,,,60,64
82200,note_off,120,0,8,,,,,,,,5,,,,65,64
82200,note_off,120,0,10,,,,,,,,11,,,,69,64
82200,note_off,120,0,9,,,,,,,,5,,,,60,64
82200,note_off,120,0,5,,,,,,,,3,,,,65,64
82200,note_off,120,0,11,,,,,,,,12,,,,65,64
82200,note_off,120,0,4,,,,,,,,2,,,,65,64
82200,note_off,120,0,14,,,,,,,,15,,,,48,64
82560,note_on,360,0,6,,,,,,,,3,,,,58,92
82560,note_on,360,0,2,,,,,,,,1,,,,64,92
82560,note_on,360,0,13,,,,,,,,14,,,,36,92
82560,note_on,360,0,10,,,,,,,,11,,,,67,108
82560,note_on,360,0,5,,,,,,,,3,,,,64,92
82560,set_tempo,480,1,0,461538,,,,,,,,,,,,
82560,note_on,360,0,1,,,,,,,,0,,,,67,108
82560,note_on,360,0,4,,,,,,,,2,,,,64,92
82560,note_on,360,0,11,,,,,,,,12,,,,64,92
82560,note_on,360,0,8,,,,,,,,5,,,,64,92
82560,note_on,360,0,14,,,,,,,,15,,,,36,92
82560,note_on,360,0,7,,,,,,,,4,,,,36,92
82560,note_on,360,0,12,,,,,,,,13,,,,58,92
82560,note_on,360,0,3,,,,,,,,2,,,,67,108
82560,note_on,360,0,9,,,,,,,,5,,,,58,92
82640,note_off,80,0,3,,,,,,,,2,,,,67,64
82640,note_off,80,0,10,,,,,,,,11,,,,67,64
82640,note_off,80,0,1,,,,,,,,0,,,,67,64
82680,note_off,120,0,13,,,,,,,,14,,,,36,64
82680,note_off,120,0,14,,,,,,,,15,,,,36,64
82680,note_off,120,0,5,,,,,,,,3,,,,64,64
82680,note_off,120,0,8,,,,,,,,5,,,,64,64
82680,note_off,120,0,9,,,,,,,,5,,,,58,64
82680,note_off,120,0,2,,,,,,,,1,,,,64,64
82680,note_off,120,0,7,,,,,,,,4,,,,36,64
82680,note_off,120,0,11,,,,,,,,12,,,,64,64
82680,note_off,120,0,12,,,,,,,,13,,,,58,64
82680,note_off,120,0,6,,,,,,,,3,,,,58,64
82680,note_off,120,0,4,,,,,,,,2,,,,64,64
82800,note_on,160,0,1,,,,,,,,0,,,,65,108
82800,note_on,160,0,3,,,,,,,,2,,,,65,108
82800,note_on,160,0,10,,,,,,,,11,,,,65,108
82880,note_off,80,0,3,,,,,,,,2,,,,65,64
82880,note_off,80,0,10,,,,,,,,11,,,,65,64
82880,note_off,80,0,1,,,,,,,,0,,,,65,64
83040,note_on,360,0,14,,,,,,,,15,,,,41,92
83040,note_on,360,0,6,,,,,,,,3,,,,57,92
83040,note_on,360,0,8,,,,,,,,5,,,,65,92
83040,note_on,160,0,10,,,,,,,,11,,,,65,108
83040,note_on,160,0,3,,,,,,,,2,,,,65,108
83040,note_on,360,0,12,,,,,,,,13,,,,57,92
83040,note_on,360,0,5,,,,,,,,3,,,,65,92
83040,end_of_track,0,1,0,,,,,,,,,,,,,
83040,note_on,360,0,13,,,,,,,,14,,,,41,92
83040,set_tempo,480,1,0,600000,,,,,,,,,,,,
83040,note_on,360,0,9,,,,,,,,5,,,,57,92
83040,note_on,360,0,11,,,,,,,,12,,,,65,92
83040,note_on,360,0,2,,,,,,,,1,,,,65,92
83040,note_on,360,0,4,,,,,,,,2,,,,65,92
83040,note_on,160,0,1,,,,,,,,0,,,,65,108
83040,note_on,360,0,7,,,,,,,,4,,,,41,92
84360,note_off,1320,0,3,,,,,,,,2,,,,65,64
84360,end_of_track,0,1,3,,,,,,,,,,,,,
84360,end_of_track,0,1,13,,,,,,,,,,,,,
84360,note_off,1320,0,13,,,,,,,,14,,,,41,64
84360,note_off,1320,0,11,,,,,,,,12,,,,65,64
84360,end_of_track,0,1,4,,,,,,,,,,,,,
84360,end_of_track,0,1,8,,,,,,,,,,,,,
84360,note_off,1320,0,8,,,,,,,,5,,,,65,64
84360,end_of_track,0,1,7,,,,,,,,,,,,,
84360,note_off,1320,0,7,,,,,,,,4,,,,41,64
84360,note_off,1320,0,12,,,,,,,,13,,,,57,64
84360,end_of_track,0,1,12,,,,,,,,,,,,,
84360,end_of_track,0,1,6,,,,,,,,,,,,,
84360,note_off,1320,0,9,,,,,,,,5,,,,57,64
84360,end_of_track,0,1,9,,,,,,,,,,,,,
84360,note_off,1320,0,4,,,,,,,,2,,,,65,64
84360,end_of_track,0,1,1,,,,,,,,,,,,,
84360,note_off,1320,0,6,,,,,,,,3,,,,57,64
84360,end_of_track,0,1,11,,,,,,,,,,,,,
84360,note_off,1320,0,2,,,,,,,,1,,,,65,64
84360,end_of_track,0,1,2,,,,,,,,,,,,,
84360,end_of_track,0,1,5,,,,,,,,,,,,,
84360,note_off,1320,0,5,,,,,,,,3,,,,65,64
84360,note_off,1320,0,14,,,,,,,,15,,,,41,64
84360,end_of_track,0,1,10,,,,,,,,,,,,,
84360,note_off,1320,0,10,,,,,,,,11,,,,65,64
84360,note_off,1320,0,1,,,,,,,,0,,,,65,64
84360,end_of_track,0,1,14,,,,,,,,,,,,,
