tick,type,time,meta,track,numerator,denominator,clocks_per_click,notated_32nd_notes_per_beat,key,tempo,program,channel,control,value,note,velocity
0,track_name,0,1,0,,,,,,,,,,,,
0,control_change,0,0,6,,,,,,,,6,7,110,,
0,program_change,0,0,6,,,,,,,48,6,,,,
0,track_name,0,1,6,,,,,,,,,,,,
0,control_change,0,0,5,,,,,,,,5,121,0,,
0,control_change,0,0,5,,,,,,,,5,10,20,,
0,control_change,0,0,5,,,,,,,,5,7,110,,
0,program_change,0,0,5,,,,,,,48,5,,,,
0,track_name,0,1,5,,,,,,,,,,,,
0,end_of_track,0,1,14,,,,,,,,,,,,
0,control_change,0,0,4,,,,,,,,4,121,0,,
0,control_change,0,0,6,,,,,,,,6,10,38,,
0,control_change,0,0,4,,,,,,,,4,10,45,,
0,program_change,0,0,4,,,,,,,56,4,,,,
0,track_name,0,1,4,,,,,,,,,,,,
0,control_change,0,0,3,,,,,,,,3,121,0,,
0,control_change,0,0,3,,,,,,,,3,10,84,,
0,control_change,0,0,3,,,,,,,,3,7,100,,
0,program_change,0,0,3,,,,,,,60,3,,,,
0,track_name,0,1,3,,,,,,,,,,,,
0,control_change,0,0,2,,,,,,,,2,121,0,,
0,control_change,0,0,2,,,,,,,,2,10,75,,
0,control_change,0,0,2,,,,,,,,2,7,110,,
0,control_change,0,0,4,,,,,,,,4,7,127,,
0,program_change,0,0,2,,,,,,,70,2,,,,
0,control_change,0,0,6,,,,,,,,6,121,0,,
0,program_change,0,0,7,,,,,,,48,7,,,,
0,track_name,0,1,14,,,,,,,,,,,,
0,end_of_track,0,1,13,,,,,,,,,,,,
0,track_name,0,1,13,,,,,,,,,,,,
0,end_of_track,0,1,12,,,,,,,,,,,,
0,track_name,0,1,12,,,,,,,,,,,,
0,end_of_track,0,1,11,,,,,,,,,,,,
0,track_name,0,1,11,,,,,,,,,,,,
0,end_of_track,0,1,10,,,,,,,,,,,,
0,track_name,0,1,10,,,,,,,,,,,,
0,control_change,0,0,9,,,,,,,,10,121,0,,
0,track_name,0,1,7,,,,,,,,,,,,
0,control_change,0,0,9,,,,,,,,10,10,88,,
0,program_change,0,0,9,,,,,,,48,10,,,,
0,track_name,0,1,9,,,,,,,,,,,,
0,control_change,0,0,8,,,,,,,,8,121,0,,
0,control_change,0,0,8,,,,,,,,8,10,108,,
0,control_change,0,0,8,,,,,,,,8,7,121,,
0,program_change,0,0,8,,,,,,,48,8,,,,
0,track_name,0,1,8,,,,,,,,,,,,
0,control_change,0,0,7,,,,,,,,7,121,0,,
0,control_change,0,0,7,,,,,,,,7,10,94,,
0,control_change,0,0,7,,,,,,,,7,7,116,,
0,control_change,0,0,9,,,,,,,,10,7,119,,
0,track_name,0,1,2,,,,,,,,,,,,
0,end_of_track,0,1,15,,,,,,,,,,,,
0,time_signature,0,1,0,4,4,24,8,,,,,,,,
0,set_tempo,0,1,0,,,,,,600000,,,,,,
0,control_change,0,0,1,,,,,,,,1,10,71,,
0,track_name,0,1,1,,,,,,,,,,,,
0,key_signature,0,1,0,,,,,C,,,,,,,
0,control_change,0,0,1,,,,,,,,1,121,0,,
0,control_change,0,0,1,,,,,,,,1,7,95,,
0,program_change,0,0,1,,,,,,,68,1,,,,
479,control_change,479,0,1,,,,,,,,1,0,56,,
479,control_change,0,0,1,,,,,,,,1,32,0,,
479,control_change,479,0,3,,,,,,,,3,0,56,,
479,control_change,0,0,8,,,,,,,,8,32,0,,
479,control_change,479,0,9,,,,,,,,10,0,56,,
479,control_change,479,0,8,,,,,,,,8,0,56,,
479,control_change,0,0,7,,,,,,,,7,32,0,,
479,control_change,479,0,7,,,,,,,,7,0,56,,
479,control_change,479,0,4,,,,,,,,4,0,56,,
479,control_change,0,0,4,,,,,,,,4,32,0,,
479,control_change,479,0,5,,,,,,,,5,0,56,,
479,control_change,0,0,3,,,,,,,,3,32,0,,
479,control_change,0,0,9,,,,,,,,10,32,0,,
479,control_change,0,0,5,,,,,,,,5,32,0,,
479,control_change,479,0,6,,,,,,,,6,0,56,,
479,control_change,0,0,2,,,,,,,,2,32,0,,
479,control_change,479,0,2,,,,,,,,2,0,56,,
479,control_change,0,0,6,,,,,,,,6,32,0,,
480,program_change,1,0,1,,,,,,,68,1,,,,
480,program_change,1,0,5,,,,,,,48,5,,,,
480,program_change,1,0,9,,,,,,,48,10,,,,
480,program_change,1,0,7,,,,,,,48,7,,,,
480,program_change,1,0,4,,,,,,,56,4,,,,
480,program_change,1,0,2,,,,,,,70,2,,,,
480,program_change,1,0,8,,,,,,,48,8,,,,
480,program_change,1,0,6,,,,,,,48,6,,,,
480,program_change,1,0,3,,,,,,,60,3,,,,
481,control_change,0,0,1,,,,,,,,1,93,27,,
481,control_change,1,0,7,,,,,,,,7,91,68,,
481,control_change,0,0,6,,,,,,,,6,93,27,,
481,control_change,0,0,7,,,,,,,,7,93,27,,
481,control_change,1,0,4,,,,,,,,4,91,68,,
481,control_change,0,0,4,,,,,,,,4,93,27,,
481,control_change,0,0,5,,,,,,,,5,93,27,,
481,control_change,1,0,5,,,,,,,,5,91,68,,
481,control_change,1,0,6,,,,,,,,6,91,68,,
481,control_change,1,0,1,,,,,,,,1,91,68,,
481,control_change,1,0,8,,,,,,,,8,91,68,,
481,control_change,0,0,8,,,,,,,,8,93,27,,
481,control_change,0,0,2,,,,,,,,2,93,27,,
481,control_change,1,0,2,,,,,,,,2,91,68,,
481,control_change,0,0,9,,,,,,,,10,93,27,,
481,control_change,1,0,3,,,,,,,,3,91,68,,
481,control_change,0,0,3,,,,,,,,3,93,27,,
481,control_change,1,0,9,,,,,,,,10,91,68,,
960,note_on,0,0,6,,,,,,,,6,,,66,95
960,note_on,479,0,2,,,,,,,,2,,,50,95
960,marker,960,1,0,,,,,,,,,,,,
960,note_on,0,0,5,,,,,,,,5,,,66,95
960,note_on,479,0,5,,,,,,,,5,,,69,95
960,note_on,479,0,7,,,,,,,,7,,,62,95
960,note_on,479,0,9,,,,,,,,10,,,38,95
960,note_on,0,0,1,,,,,,,,1,,,69,95
960,note_on,479,0,1,,,,,,,,1,,,66,95
960,note_on,479,0,8,,,,,,,,8,,,50,95
960,note_on,479,0,6,,,,,,,,6,,,62,95
1150,note_on,190,0,5,,,,,,,,5,,,66,0
1150,note_on,0,0,5,,,,,,,,5,,,69,0
1150,note_on,190,0,9,,,,,,,,10,,,38,0
1150,note_on,190,0,1,,,,,,,,1,,,69,0
1150,note_on,190,0,7,,,,,,,,7,,,62,0
1150,note_on,190,0,2,,,,,,,,2,,,50,0
1150,note_on,190,0,8,,,,,,,,8,,,50,0
1150,note_on,0,0,1,,,,,,,,1,,,66,0
1150,note_on,190,0,6,,,,,,,,6,,,66,0
1150,note_on,0,0,6,,,,,,,,6,,,62,0
1320,note_on,0,0,4,,,,,,,,4,,,69,95
1320,note_on,839,0,4,,,,,,,,4,,,62,95
1416,note_on,0,0,4,,,,,,,,4,,,62,0
1416,note_on,96,0,4,,,,,,,,4,,,69,0
1440,note_on,0,0,4,,,,,,,,4,,,74,95
1440,note_on,24,0,4,,,,,,,,4,,,66,95
1632,note_on,0,0,4,,,,,,,,4,,,66,0
1632,note_on,192,0,4,,,,,,,,4,,,74,0
1680,note_on,0,0,4,,,,,,,,4,,,74,95
1680,note_on,48,0,4,,,,,,,,4,,,66,95
1872,note_on,0,0,4,,,,,,,,4,,,66,0
1872,note_on,192,0,4,,,,,,,,4,,,74,0
1920,note_on,770,0,7,,,,,,,,7,,,74,95
1920,note_on,770,0,1,,,,,,,,1,,,74,95
1920,note_on,770,0,5,,,,,,,,5,,,74,95
1920,note_on,770,0,6,,,,,,,,6,,,74,95
1920,note_on,0,0,4,,,,,,,,4,,,74,95
1920,note_on,48,0,4,,,,,,,,4,,,66,95
2015,note_on,95,0,5,,,,,,,,5,,,74,0
2015,note_on,95,0,7,,,,,,,,7,,,74,0
2015,note_on,95,0,6,,,,,,,,6,,,74,0
2015,note_on,95,0,1,,,,,,,,1,,,74,0
2040,note_on,25,0,5,,,,,,,,5,,,73,95
2040,note_on,25,0,7,,,,,,,,7,,,73,95
2040,note_on,25,0,6,,,,,,,,6,,,73,95
2040,note_on,25,0,1,,,,,,,,1,,,73,95
2087,note_on,47,0,1,,,,,,,,1,,,73,0
2087,note_on,47,0,7,,,,,,,,7,,,73,0
2087,note_on,47,0,5,,,,,,,,5,,,73,0
2087,note_on,47,0,6,,,,,,,,6,,,73,0
2100,note_on,13,0,7,,,,,,,,7,,,71,95
2100,note_on,13,0,6,,,,,,,,6,,,71,95
2100,note_on,13,0,1,,,,,,,,1,,,71,95
2100,note_on,13,0,5,,,,,,,,5,,,71,95
2112,note_on,0,0,4,,,,,,,,4,,,66,0
2112,note_on,192,0,4,,,,,,,,4,,,74,0
2147,note_on,47,0,5,,,,,,,,5,,,71,0
2147,note_on,47,0,7,,,,,,,,7,,,71,0
2147,note_on,47,0,6,,,,,,,,6,,,71,0
2147,note_on,47,0,1,,,,,,,,1,,,71,0
2160,note_on,13,0,6,,,,,,,,6,,,69,95
2160,note_on,13,0,5,,,,,,,,5,,,69,95
2160,note_on,13,0,1,,,,,,,,1,,,69,95
2160,note_on,13,0,7,,,,,,,,7,,,69,95
2207,note_on,47,0,7,,,,,,,,7,,,69,0
2207,note_on,47,0,1,,,,,,,,1,,,69,0
2207,note_on,47,0,6,,,,,,,,6,,,69,0
2207,note_on,47,0,5,,,,,,,,5,,,69,0
2220,note_on,13,0,7,,,,,,,,7,,,67,95
2220,note_on,13,0,6,,,,,,,,6,,,67,95
2220,note_on,13,0,5,,,,,,,,5,,,67,95
2220,note_on,13,0,1,,,,,,,,1,,,67,95
2267,note_on,47,0,7,,,,,,,,7,,,67,0
2267,note_on,47,0,6,,,,,,,,6,,,67,0
2267,note_on,47,0,1,,,,,,,,1,,,67,0
2267,note_on,47,0,5,,,,,,,,5,,,67,0
2280,note_on,13,0,7,,,,,,,,7,,,66,95
2280,note_on,168,0,4,,,,,,,,4,,,69,95
2280,note_on,13,0,5,,,,,,,,5,,,66,95
2280,note_on,13,0,6,,,,,,,,6,,,66,95
2280,note_on,0,0,4,,,,,,,,4,,,74,95
2280,note_on,13,0,1,,,,,,,,1,,,66,95
2327,note_on,47,0,6,,,,,,,,6,,,66,0
2327,note_on,47,0,5,,,,,,,,5,,,66,0
2327,note_on,47,0,1,,,,,,,,1,,,66,0
2327,note_on,47,0,7,,,,,,,,7,,,66,0
2340,note_on,13,0,6,,,,,,,,6,,,64,95
2340,note_on,13,0,1,,,,,,,,1,,,64,95
2340,note_on,13,0,7,,,,,,,,7,,,64,95
2340,note_on,13,0,5,,,,,,,,5,,,64,95
2376,note_on,96,0,4,,,,,,,,4,,,74,0
2376,note_on,0,0,4,,,,,,,,4,,,69,0
2387,note_on,47,0,6,,,,,,,,6,,,64,0
2387,note_on,47,0,7,,,,,,,,7,,,64,0
2387,note_on,47,0,1,,,,,,,,1,,,64,0
2387,note_on,47,0,5,,,,,,,,5,,,64,0
2400,note_on,13,0,7,,,,,,,,7,,,62,95
2400,note_on,13,0,1,,,,,,,,1,,,62,95
2400,note_on,13,0,5,,,,,,,,5,,,62,95
2400,note_on,24,0,4,,,,,,,,4,,,74,95
2400,note_on,0,0,4,,,,,,,,4,,,78,95
2400,note_on,13,0,6,,,,,,,,6,,,62,95
2590,note_on,190,0,7,,,,,,,,7,,,62,0
2590,note_on,190,0,6,,,,,,,,6,,,62,0
2590,note_on,190,0,1,,,,,,,,1,,,62,0
2590,note_on,190,0,5,,,,,,,,5,,,62,0
2592,note_on,192,0,4,,,,,,,,4,,,78,0
2592,note_on,0,0,4,,,,,,,,4,,,74,0
2640,note_on,48,0,4,,,,,,,,4,,,74,95
2640,note_on,0,0,4,,,,,,,,4,,,78,95
2760,note_on,170,0,6,,,,,,,,6,,,69,95
2760,note_on,170,0,7,,,,,,,,7,,,69,95
2760,note_on,170,0,1,,,,,,,,1,,,69,95
2760,note_on,170,0,5,,,,,,,,5,,,69,95
2832,note_on,192,0,4,,,,,,,,4,,,78,0
2832,note_on,0,0,4,,,,,,,,4,,,74,0
2855,note_on,95,0,6,,,,,,,,6,,,69,0
2855,note_on,95,0,7,,,,,,,,7,,,69,0
2855,note_on,95,0,5,,,,,,,,5,,,69,0
2855,note_on,95,0,1,,,,,,,,1,,,69,0
2880,note_on,25,0,5,,,,,,,,5,,,74,95
2880,note_on,0,0,4,,,,,,,,4,,,78,95
2880,note_on,25,0,6,,,,,,,,6,,,74,95
2880,note_on,48,0,4,,,,,,,,4,,,74,95
2880,note_on,25,0,1,,,,,,,,1,,,74,95
2880,note_on,25,0,7,,,,,,,,7,,,74,95
2975,note_on,95,0,1,,,,,,,,1,,,74,0
2975,note_on,95,0,6,,,,,,,,6,,,74,0
2975,note_on,95,0,7,,,,,,,,7,,,74,0
2975,note_on,95,0,5,,,,,,,,5,,,74,0
3000,note_on,25,0,1,,,,,,,,1,,,73,95
3000,note_on,25,0,7,,,,,,,,7,,,73,95
3000,note_on,25,0,5,,,,,,,,5,,,73,95
3000,note_on,25,0,6,,,,,,,,6,,,73,95
3047,note_on,47,0,1,,,,,,,,1,,,73,0
3047,note_on,47,0,5,,,,,,,,5,,,73,0
3047,note_on,47,0,6,,,,,,,,6,,,73,0
3047,note_on,47,0,7,,,,,,,,7,,,73,0
3060,note_on,13,0,6,,,,,,,,6,,,71,95
3060,note_on,13,0,7,,,,,,,,7,,,71,95
3060,note_on,13,0,5,,,,,,,,5,,,71,95
3060,note_on,13,0,1,,,,,,,,1,,,71,95
3072,note_on,0,0,4,,,,,,,,4,,,74,0
3072,note_on,192,0,4,,,,,,,,4,,,78,0
3107,note_on,47,0,6,,,,,,,,6,,,71,0
3107,note_on,47,0,1,,,,,,,,1,,,71,0
3107,note_on,47,0,7,,,,,,,,7,,,71,0
3107,note_on,47,0,5,,,,,,,,5,,,71,0
3120,note_on,13,0,6,,,,,,,,6,,,69,95
3120,note_on,13,0,7,,,,,,,,7,,,69,95
3120,note_on,13,0,5,,,,,,,,5,,,69,95
3120,note_on,13,0,1,,,,,,,,1,,,69,95
3167,note_on,47,0,5,,,,,,,,5,,,69,0
3167,note_on,47,0,1,,,,,,,,1,,,69,0
3167,note_on,47,0,7,,,,,,,,7,,,69,0
3167,note_on,47,0,6,,,,,,,,6,,,69,0
3180,note_on,13,0,6,,,,,,,,6,,,67,95
3180,note_on,13,0,1,,,,,,,,1,,,67,95
3180,note_on,13,0,7,,,,,,,,7,,,67,95
3180,note_on,13,0,5,,,,,,,,5,,,67,95
3227,note_on,47,0,6,,,,,,,,6,,,67,0
3227,note_on,47,0,1,,,,,,,,1,,,67,0
3227,note_on,47,0,5,,,,,,,,5,,,67,0
3227,note_on,47,0,7,,,,,,,,7,,,67,0
3240,note_on,0,0,4,,,,,,,,4,,,78,95
3240,note_on,13,0,1,,,,,,,,1,,,66,95
3240,note_on,13,0,6,,,,,,,,6,,,66,95
3240,note_on,13,0,5,,,,,,,,5,,,66,95
3240,note_on,13,0,7,,,,,,,,7,,,66,95
3240,note_on,168,0,4,,,,,,,,4,,,74,95
3287,note_on,47,0,6,,,,,,,,6,,,66,0
3287,note_on,47,0,5,,,,,,,,5,,,66,0
3287,note_on,47,0,1,,,,,,,,1,,,66,0
3287,note_on,47,0,7,,,,,,,,7,,,66,0
3300,note_on,13,0,6,,,,,,,,6,,,64,95
3300,note_on,13,0,5,,,,,,,,5,,,64,95
3300,note_on,13,0,1,,,,,,,,1,,,64,95
3300,note_on,13,0,7,,,,,,,,7,,,64,95
3336,note_on,96,0,4,,,,,,,,4,,,78,0
3336,note_on,0,0,4,,,,,,,,4,,,74,0
3347,note_on,47,0,6,,,,,,,,6,,,64,0
3347,note_on,47,0,5,,,,,,,,5,,,64,0
3347,note_on,47,0,7,,,,,,,,7,,,64,0
3347,note_on,47,0,1,,,,,,,,1,,,64,0
3360,note_on,24,0,4,,,,,,,,4,,,78,95
3360,note_on,0,0,4,,,,,,,,4,,,81,95
3360,note_on,13,0,1,,,,,,,,1,,,62,95
3360,note_on,13,0,5,,,,,,,,5,,,62,95
3360,note_on,13,0,7,,,,,,,,7,,,62,95
3360,note_on,13,0,6,,,,,,,,6,,,62,95
3550,note_on,190,0,7,,,,,,,,7,,,62,0
3550,note_on,190,0,1,,,,,,,,1,,,62,0
3550,note_on,190,0,5,,,,,,,,5,,,62,0
3550,note_on,190,0,6,,,,,,,,6,,,62,0
3552,note_on,0,0,4,,,,,,,,4,,,78,0
3552,note_on,192,0,4,,,,,,,,4,,,81,0
3600,note_on,48,0,4,,,,,,,,4,,,78,95
3600,note_on,0,0,4,,,,,,,,4,,,81,95
3720,note_on,170,0,7,,,,,,,,7,,,69,95
3720,note_on,170,0,6,,,,,,,,6,,,69,95
3720,note_on,170,0,5,,,,,,,,5,,,69,95
3720,note_on,170,0,1,,,,,,,,1,,,69,95
3792,note_on,0,0,4,,,,,,,,4,,,78,0
3792,note_on,192,0,4,,,,,,,,4,,,81,0
3815,note_on,95,0,5,,,,,,,,5,,,69,0
3815,note_on,95,0,6,,,,,,,,6,,,69,0
3815,note_on,95,0,1,,,,,,,,1,,,69,0
3815,note_on,95,0,7,,,,,,,,7,,,69,0
3840,note_on,25,0,7,,,,,,,,7,,,74,95
3840,note_on,25,0,6,,,,,,,,6,,,74,95
3840,note_on,48,0,4,,,,,,,,4,,,81,95
3840,note_on,0,0,4,,,,,,,,4,,,78,95
3840,note_on,25,0,5,,,,,,,,5,,,74,95
3840,note_on,25,0,1,,,,,,,,1,,,74,95
3935,note_on,95,0,6,,,,,,,,6,,,74,0
3935,note_on,95,0,5,,,,,,,,5,,,74,0
3935,note_on,95,0,1,,,,,,,,1,,,74,0
3935,note_on,95,0,7,,,,,,,,7,,,74,0
3960,note_on,25,0,7,,,,,,,,7,,,62,95
3960,note_on,25,0,6,,,,,,,,6,,,62,95
3960,note_on,25,0,5,,,,,,,,5,,,62,95
3960,note_on,25,0,1,,,,,,,,1,,,62,95
4055,note_on,95,0,5,,,,,,,,5,,,62,0
4055,note_on,95,0,6,,,,,,,,6,,,62,0
4055,note_on,95,0,1,,,,,,,,1,,,62,0
4055,note_on,95,0,7,,,,,,,,7,,,62,0
4080,note_on,25,0,1,,,,,,,,1,,,66,95
4080,note_on,25,0,6,,,,,,,,6,,,66,95
4080,note_on,25,0,7,,,,,,,,7,,,66,95
4080,note_on,25,0,5,,,,,,,,5,,,66,95
4128,note_on,0,0,4,,,,,,,,4,,,81,0
4128,note_on,288,0,4,,,,,,,,4,,,78,0
4175,note_on,95,0,6,,,,,,,,6,,,66,0
4175,note_on,95,0,5,,,,,,,,5,,,66,0
4175,note_on,95,0,7,,,,,,,,7,,,66,0
4175,note_on,95,0,1,,,,,,,,1,,,66,0
4200,note_on,0,0,4,,,,,,,,4,,,76,95
4200,note_on,25,0,6,,,,,,,,6,,,67,95
4200,note_on,25,0,1,,,,,,,,1,,,67,95
4200,note_on,25,0,7,,,,,,,,7,,,67,95
4200,note_on,25,0,5,,,,,,,,5,,,67,95
4200,note_on,72,0,4,,,,,,,,4,,,79,95
4248,note_on,48,0,4,,,,,,,,4,,,76,0
4248,note_on,0,0,4,,,,,,,,4,,,79,0
4260,note_on,0,0,4,,,,,,,,4,,,74,95
4260,note_on,12,0,4,,,,,,,,4,,,78,95
4295,note_on,95,0,7,,,,,,,,7,,,67,0
4295,note_on,95,0,1,,,,,,,,1,,,67,0
4295,note_on,95,0,5,,,,,,,,5,,,67,0
4295,note_on,95,0,6,,,,,,,,6,,,67,0
4308,note_on,0,0,4,,,,,,,,4,,,78,0
4308,note_on,48,0,4,,,,,,,,4,,,74,0
4320,note_on,25,0,1,,,,,,,,1,,,69,95
4320,note_on,25,0,5,,,,,,,,5,,,69,95
4320,note_on,25,0,7,,,,,,,,7,,,69,95
4320,note_on,12,0,4,,,,,,,,4,,,76,95
4320,note_on,0,0,4,,,,,,,,4,,,69,95
4320,note_on,25,0,6,,,,,,,,6,,,69,95
4368,note_on,48,0,4,,,,,,,,4,,,76,0
4380,note_on,12,0,4,,,,,,,,4,,,74,95
4415,note_on,95,0,7,,,,,,,,7,,,69,0
4415,note_on,95,0,5,,,,,,,,5,,,69,0
4415,note_on,95,0,1,,,,,,,,1,,,69,0
4415,note_on,95,0,6,,,,,,,,6,,,69,0
4416,note_on,36,0,4,,,,,,,,4,,,69,0
4428,note_on,12,0,4,,,,,,,,4,,,74,0
4440,note_on,25,0,7,,,,,,,,7,,,64,95
4440,note_on,25,0,5,,,,,,,,5,,,64,95
4440,note_on,25,0,1,,,,,,,,1,,,64,95
4440,note_on,25,0,6,,,,,,,,6,,,64,95
4440,note_on,12,0,4,,,,,,,,4,,,76,95
4440,note_on,0,0,4,,,,,,,,4,,,69,95
4488,note_on,48,0,4,,,,,,,,4,,,76,0
4500,note_on,12,0,4,,,,,,,,4,,,78,95
4535,note_on,95,0,5,,,,,,,,5,,,64,0
4535,note_on,95,0,7,,,,,,,,7,,,64,0
4535,note_on,95,0,6,,,,,,,,6,,,64,0
4535,note_on,95,0,1,,,,,,,,1,,,64,0
4536,note_on,36,0,4,,,,,,,,4,,,69,0
4548,note_on,12,0,4,,,,,,,,4,,,78,0
4560,note_on,25,0,5,,,,,,,,5,,,61,95
4560,note_on,25,0,6,,,,,,,,6,,,61,95
4560,note_on,25,0,7,,,,,,,,7,,,61,95
4560,note_on,12,0,4,,,,,,,,4,,,76,95
4560,note_on,0,0,4,,,,,,,,4,,,69,95
4560,note_on,25,0,1,,,,,,,,1,,,61,95
4655,note_on,95,0,1,,,,,,,,1,,,61,0
4655,note_on,95,0,6,,,,,,,,6,,,61,0
4655,note_on,95,0,5,,,,,,,,5,,,61,0
4655,note_on,95,0,7,,,,,,,,7,,,61,0
4656,note_on,0,0,4,,,,,,,,4,,,76,0
4656,note_on,96,0,4,,,,,,,,4,,,69,0
4680,note_on,25,0,7,,,,,,,,7,,,57,95
4680,note_on,25,0,1,,,,,,,,1,,,57,95
4680,note_on,25,0,5,,,,,,,,5,,,57,95
4680,note_on,0,0,4,,,,,,,,4,,,69,95
4680,note_on,25,0,6,,,,,,,,6,,,57,95
4680,note_on,24,0,4,,,,,,,,4,,,76,95
4775,note_on,95,0,7,,,,,,,,7,,,57,0
4775,note_on,95,0,5,,,,,,,,5,,,57,0
4775,note_on,95,0,6,,,,,,,,6,,,57,0
4775,note_on,95,0,1,,,,,,,,1,,,57,0
4776,note_on,96,0,4,,,,,,,,4,,,69,0
4776,note_on,0,0,4,,,,,,,,4,,,76,0
4800,note_on,0,0,4,,,,,,,,4,,,69,95
4800,note_on,25,0,7,,,,,,,,7,,,69,95
4800,note_on,25,0,5,,,,,,,,5,,,69,95
4800,note_on,25,0,1,,,,,,,,1,,,69,95
4800,note_on,24,0,4,,,,,,,,4,,,76,95
4800,note_on,25,0,6,,,,,,,,6,,,69,95
4990,note_on,190,0,6,,,,,,,,6,,,69,0
4990,note_on,190,0,5,,,,,,,,5,,,69,0
4990,note_on,190,0,7,,,,,,,,7,,,69,0
4990,note_on,190,0,1,,,,,,,,1,,,69,0
4992,note_on,0,0,4,,,,,,,,4,,,76,0
4992,note_on,192,0,4,,,,,,,,4,,,69,0
5160,note_on,4679,0,3,,,,,,,,3,,,50,95
5160,note_on,0,0,3,,,,,,,,3,,,57,95
5256,note_on,96,0,3,,,,,,,,3,,,57,0
5256,note_on,0,0,3,,,,,,,,3,,,50,0
5280,note_on,24,0,3,,,,,,,,3,,,54,95
5280,note_on,0,0,3,,,,,,,,3,,,62,95
5472,note_on,0,0,3,,,,,,,,3,,,54,0
5472,note_on,192,0,3,,,,,,,,3,,,62,0
5520,note_on,48,0,3,,,,,,,,3,,,54,95
5520,note_on,0,0,3,,,,,,,,3,,,62,95
5712,note_on,192,0,3,,,,,,,,3,,,62,0
5712,note_on,0,0,3,,,,,,,,3,,,54,0
5760,note_on,4610,0,9,,,,,,,,10,,,50,95
5760,note_on,4610,0,2,,,,,,,,2,,,62,95
5760,note_on,4610,0,8,,,,,,,,8,,,62,95
5760,note_on,0,0,3,,,,,,,,3,,,62,95
5760,note_on,48,0,3,,,,,,,,3,,,54,95
5855,note_on,95,0,9,,,,,,,,10,,,50,0
5855,note_on,95,0,2,,,,,,,,2,,,62,0
5855,note_on,95,0,8,,,,,,,,8,,,62,0
5880,note_on,25,0,2,,,,,,,,2,,,61,95
5880,note_on,25,0,9,,,,,,,,10,,,49,95
5880,note_on,25,0,8,,,,,,,,8,,,61,95
5927,note_on,47,0,9,,,,,,,,10,,,49,0
5927,note_on,47,0,8,,,,,,,,8,,,61,0
5927,note_on,47,0,2,,,,,,,,2,,,61,0
5940,note_on,13,0,8,,,,,,,,8,,,59,95
5940,note_on,13,0,2,,,,,,,,2,,,59,95
5940,note_on,13,0,9,,,,,,,,10,,,47,95
5952,note_on,0,0,3,,,,,,,,3,,,54,0
5952,note_on,192,0,3,,,,,,,,3,,,62,0
5987,note_on,47,0,8,,,,,,,,8,,,59,0
5987,note_on,47,0,2,,,,,,,,2,,,59,0
5987,note_on,47,0,9,,,,,,,,10,,,47,0
6000,note_on,13,0,8,,,,,,,,8,,,57,95
6000,note_on,13,0,2,,,,,,,,2,,,57,95
6000,note_on,13,0,9,,,,,,,,10,,,45,95
6047,note_on,47,0,2,,,,,,,,2,,,57,0
6047,note_on,47,0,9,,,,,,,,10,,,45,0
6047,note_on,47,0,8,,,,,,,,8,,,57,0
6060,note_on,13,0,8,,,,,,,,8,,,55,95
6060,note_on,13,0,2,,,,,,,,2,,,55,95
6060,note_on,13,0,9,,,,,,,,10,,,43,95
6107,note_on,47,0,9,,,,,,,,10,,,43,0
6107,note_on,47,0,2,,,,,,,,2,,,55,0
6107,note_on,47,0,8,,,,,,,,8,,,55,0
6120,note_on,13,0,9,,,,,,,,10,,,42,95
6120,note_on,13,0,2,,,,,,,,2,,,54,95
6120,note_on,0,0,3,,,,,,,,3,,,62,95
6120,note_on,13,0,8,,,,,,,,8,,,54,95
6120,note_on,168,0,3,,,,,,,,3,,,57,95
6167,note_on,47,0,9,,,,,,,,10,,,42,0
6167,note_on,47,0,2,,,,,,,,2,,,54,0
6167,note_on,47,0,8,,,,,,,,8,,,54,0
6180,note_on,13,0,8,,,,,,,,8,,,52,95
6180,note_on,13,0,2,,,,,,,,2,,,52,95
6180,note_on,13,0,9,,,,,,,,10,,,40,95
6216,note_on,0,0,3,,,,,,,,3,,,57,0
6216,note_on,96,0,3,,,,,,,,3,,,62,0
6227,note_on,47,0,9,,,,,,,,10,,,40,0
6227,note_on,47,0,2,,,,,,,,2,,,52,0
6227,note_on,47,0,8,,,,,,,,8,,,52,0
6240,note_on,13,0,2,,,,,,,,2,,,50,95
6240,note_on,24,0,3,,,,,,,,3,,,62,95
6240,note_on,0,0,3,,,,,,,,3,,,66,95
6240,note_on,13,0,8,,,,,,,,8,,,50,95
6240,note_on,13,0,9,,,,,,,,10,,,38,95
6430,note_on,190,0,9,,,,,,,,10,,,38,0
6430,note_on,190,0,8,,,,,,,,8,,,50,0
6430,note_on,190,0,2,,,,,,,,2,,,50,0
6432,note_on,0,0,3,,,,,,,,3,,,62,0
6432,note_on,192,0,3,,,,,,,,3,,,66,0
6480,note_on,0,0,3,,,,,,,,3,,,66,95
6480,note_on,48,0,3,,,,,,,,3,,,62,95
6600,note_on,170,0,8,,,,,,,,8,,,45,95
6600,note_on,170,0,2,,,,,,,,2,,,45,95
6600,note_on,170,0,9,,,,,,,,10,,,33,95
6672,note_on,192,0,3,,,,,,,,3,,,66,0
6672,note_on,0,0,3,,,,,,,,3,,,62,0
6695,note_on,95,0,9,,,,,,,,10,,,33,0
6695,note_on,95,0,2,,,,,,,,2,,,45,0
6695,note_on,95,0,8,,,,,,,,8,,,45,0
6720,note_on,25,0,8,,,,,,,,8,,,50,95
6720,note_on,25,0,9,,,,,,,,10,,,38,95
6720,note_on,25,0,2,,,,,,,,2,,,50,95
6720,note_on,48,0,3,,,,,,,,3,,,66,95
6720,note_on,0,0,3,,,,,,,,3,,,62,95
6815,note_on,95,0,9,,,,,,,,10,,,38,0
6815,note_on,95,0,2,,,,,,,,2,,,50,0
6815,note_on,95,0,8,,,,,,,,8,,,50,0
6840,note_on,25,0,9,,,,,,,,10,,,37,95
6840,note_on,25,0,8,,,,,,,,8,,,49,95
6840,note_on,25,0,2,,,,,,,,2,,,49,95
6887,note_on,47,0,8,,,,,,,,8,,,49,0
6887,note_on,47,0,2,,,,,,,,2,,,49,0
6887,note_on,47,0,9,,,,,,,,10,,,37,0
6900,note_on,13,0,9,,,,,,,,10,,,35,95
6900,note_on,13,0,2,,,,,,,,2,,,47,95
6900,note_on,13,0,8,,,,,,,,8,,,47,95
6912,note_on,192,0,3,,,,,,,,3,,,62,0
6912,note_on,0,0,3,,,,,,,,3,,,66,0
6947,note_on,47,0,8,,,,,,,,8,,,47,0
6947,note_on,47,0,2,,,,,,,,2,,,47,0
6947,note_on,47,0,9,,,,,,,,10,,,35,0
6960,note_on,13,0,8,,,,,,,,8,,,45,95
6960,note_on,13,0,2,,,,,,,,2,,,45,95
6960,note_on,13,0,9,,,,,,,,10,,,33,95
7007,note_on,47,0,8,,,,,,,,8,,,45,0
7007,note_on,47,0,9,,,,,,,,10,,,33,0
7007,note_on,47,0,2,,,,,,,,2,,,45,0
7020,note_on,13,0,8,,,,,,,,8,,,43,95
7020,note_on,13,0,2,,,,,,,,2,,,43,95
7020,note_on,13,0,9,,,,,,,,10,,,31,95
7067,note_on,47,0,8,,,,,,,,8,,,43,0
7067,note_on,47,0,2,,,,,,,,2,,,43,0
7067,note_on,47,0,9,,,,,,,,10,,,31,0
7080,note_on,168,0,3,,,,,,,,3,,,66,95
7080,note_on,13,0,2,,,,,,,,2,,,42,95
7080,note_on,13,0,9,,,,,,,,10,,,30,95
7080,note_on,13,0,8,,,,,,,,8,,,42,95
7080,note_on,0,0,3,,,,,,,,3,,,62,95
7127,note_on,47,0,2,,,,,,,,2,,,42,0
7127,note_on,47,0,9,,,,,,,,10,,,30,0
7127,note_on,47,0,8,,,,,,,,8,,,42,0
7140,note_on,13,0,9,,,,,,,,10,,,28,95
7140,note_on,13,0,2,,,,,,,,2,,,40,95
7140,note_on,13,0,8,,,,,,,,8,,,40,95
7176,note_on,0,0,3,,,,,,,,3,,,66,0
7176,note_on,96,0,3,,,,,,,,3,,,62,0
7187,note_on,47,0,8,,,,,,,,8,,,40,0
7187,note_on,47,0,9,,,,,,,,10,,,28,0
7187,note_on,47,0,2,,,,,,,,2,,,40,0
7200,note_on,13,0,9,,,,,,,,10,,,26,95
7200,note_on,13,0,2,,,,,,,,2,,,38,95
7200,note_on,24,0,3,,,,,,,,3,,,69,95
7200,note_on,0,0,3,,,,,,,,3,,,66,95
7200,note_on,13,0,8,,,,,,,,8,,,38,95
7390,note_on,190,0,2,,,,,,,,2,,,38,0
7390,note_on,190,0,8,,,,,,,,8,,,38,0
7390,note_on,190,0,9,,,,,,,,10,,,26,0
7392,note_on,0,0,3,,,,,,,,3,,,69,0
7392,note_on,192,0,3,,,,,,,,3,,,66,0
7440,note_on,48,0,3,,,,,,,,3,,,69,95
7440,note_on,0,0,3,,,,,,,,3,,,66,95
7560,note_on,170,0,9,,,,,,,,10,,,45,95
7560,note_on,170,0,2,,,,,,,,2,,,57,95
7560,note_on,170,0,8,,,,,,,,8,,,57,95
7632,note_on,192,0,3,,,,,,,,3,,,66,0
7632,note_on,0,0,3,,,,,,,,3,,,69,0
7655,note_on,95,0,2,,,,,,,,2,,,57,0
7655,note_on,95,0,8,,,,,,,,8,,,57,0
7655,note_on,95,0,9,,,,,,,,10,,,45,0
7680,note_on,0,0,3,,,,,,,,3,,,66,95
7680,note_on,48,0,3,,,,,,,,3,,,69,95
7680,note_on,25,0,2,,,,,,,,2,,,62,95
7680,note_on,25,0,8,,,,,,,,8,,,62,95
7680,note_on,25,0,9,,,,,,,,10,,,50,95
7775,note_on,95,0,2,,,,,,,,2,,,62,0
7775,note_on,95,0,8,,,,,,,,8,,,62,0
7775,note_on,95,0,9,,,,,,,,10,,,50,0
7800,note_on,25,0,9,,,,,,,,10,,,38,95
7800,note_on,25,0,8,,,,,,,,8,,,50,95
7800,note_on,25,0,2,,,,,,,,2,,,50,95
7895,note_on,95,0,8,,,,,,,,8,,,50,0
7895,note_on,95,0,9,,,,,,,,10,,,38,0
7895,note_on,95,0,2,,,,,,,,2,,,50,0
7920,note_on,25,0,9,,,,,,,,10,,,42,95
7920,note_on,25,0,2,,,,,,,,2,,,54,95
7920,note_on,25,0,8,,,,,,,,8,,,54,95
7968,note_on,0,0,3,,,,,,,,3,,,69,0
7968,note_on,288,0,3,,,,,,,,3,,,66,0
8015,note_on,95,0,9,,,,,,,,10,,,42,0
8015,note_on,95,0,8,,,,,,,,8,,,54,0
8015,note_on,95,0,2,,,,,,,,2,,,54,0
8040,note_on,25,0,8,,,,,,,,8,,,55,95
8040,note_on,0,0,3,,,,,,,,3,,,64,95
8040,note_on,72,0,3,,,,,,,,3,,,67,95
8040,note_on,25,0,2,,,,,,,,2,,,55,95
8040,note_on,25,0,9,,,,,,,,10,,,43,95
8088,note_on,0,0,3,,,,,,,,3,,,67,0
8088,note_on,48,0,3,,,,,,,,3,,,64,0
8100,note_on,12,0,3,,,,,,,,3,,,66,95
8100,note_on,0,0,3,,,,,,,,3,,,62,95
8135,note_on,95,0,2,,,,,,,,2,,,55,0
8135,note_on,95,0,9,,,,,,,,10,,,43,0
8135,note_on,95,0,8,,,,,,,,8,,,55,0
8148,note_on,0,0,3,,,,,,,,3,,,66,0
8148,note_on,48,0,3,,,,,,,,3,,,62,0
8160,note_on,0,0,3,,,,,,,,3,,,57,95
8160,note_on,25,0,9,,,,,,,,10,,,45,95
8160,note_on,25,0,8,,,,,,,,8,,,57,95
8160,note_on,12,0,3,,,,,,,,3,,,64,95
8160,note_on,25,0,2,,,,,,,,2,,,57,95
8208,note_on,48,0,3,,,,,,,,3,,,64,0
8220,note_on,12,0,3,,,,,,,,3,,,62,95
8255,note_on,95,0,2,,,,,,,,2,,,57,0
8255,note_on,95,0,8,,,,,,,,8,,,57,0
8255,note_on,95,0,9,,,,,,,,10,,,45,0
8256,note_on,36,0,3,,,,,,,,3,,,57,0
8268,note_on,12,0,3,,,,,,,,3,,,62,0
8280,note_on,12,0,3,,,,,,,,3,,,64,95
8280,note_on,25,0,9,,,,,,,,10,,,40,95
8280,note_on,25,0,8,,,,,,,,8,,,52,95
8280,note_on,0,0,3,,,,,,,,3,,,57,95
8280,note_on,25,0,2,,,,,,,,2,,,52,95
8328,note_on,48,0,3,,,,,,,,3,,,64,0
8340,note_on,12,0,3,,,,,,,,3,,,66,95
8375,note_on,95,0,9,,,,,,,,10,,,40,0
8375,note_on,95,0,2,,,,,,,,2,,,52,0
8375,note_on,95,0,8,,,,,,,,8,,,52,0
8376,note_on,36,0,3,,,,,,,,3,,,57,0
8388,note_on,12,0,3,,,,,,,,3,,,66,0
8400,note_on,12,0,3,,,,,,,,3,,,64,95
8400,note_on,0,0,3,,,,,,,,3,,,57,95
8400,note_on,25,0,9,,,,,,,,10,,,37,95
8400,note_on,25,0,8,,,,,,,,8,,,49,95
8400,note_on,25,0,2,,,,,,,,2,,,49,95
8495,note_on,95,0,8,,,,,,,,8,,,49,0
8495,note_on,95,0,9,,,,,,,,10,,,37,0
8495,note_on,95,0,2,,,,,,,,2,,,49,0
8496,note_on,0,0,3,,,,,,,,3,,,64,0
8496,note_on,96,0,3,,,,,,,,3,,,57,0
8520,note_on,25,0,2,,,,,,,,2,,,45,95
8520,note_on,0,0,3,,,,,,,,3,,,57,95
8520,note_on,25,0,9,,,,,,,,10,,,33,95
8520,note_on,24,0,3,,,,,,,,3,,,64,95
8520,note_on,25,0,8,,,,,,,,8,,,45,95
8615,note_on,95,0,2,,,,,,,,2,,,45,0
8615,note_on,95,0,9,,,,,,,,10,,,33,0
8615,note_on,95,0,8,,,,,,,,8,,,45,0
8616,note_on,0,0,3,,,,,,,,3,,,64,0
8616,note_on,96,0,3,,,,,,,,3,,,57,0
8640,note_on,0,0,3,,,,,,,,3,,,64,95
8640,note_on,25,0,8,,,,,,,,8,,,57,95
8640,note_on,25,0,2,,,,,,,,2,,,61,95
8640,note_on,24,0,3,,,,,,,,3,,,57,95
8640,note_on,25,0,9,,,,,,,,10,,,45,95
8830,note_on,190,0,9,,,,,,,,10,,,45,0
8830,note_on,190,0,8,,,,,,,,8,,,57,0
8830,note_on,190,0,2,,,,,,,,2,,,61,0
8832,note_on,192,0,3,,,,,,,,3,,,64,0
8832,note_on,0,0,3,,,,,,,,3,,,57,0
9120,note_on,4130,0,1,,,,,,,,1,,,73,95
9120,note_on,0,0,1,,,,,,,,1,,,76,95
9120,note_on,4130,0,5,,,,,,,,5,,,57,95
9120,note_on,4130,0,6,,,,,,,,6,,,57,95
9120,note_on,0,0,4,,,,,,,,4,,,81,95
9120,note_on,4128,0,4,,,,,,,,4,,,69,95
9120,note_on,4130,0,7,,,,,,,,7,,,57,95
9310,note_on,190,0,6,,,,,,,,6,,,57,0
9310,note_on,190,0,7,,,,,,,,7,,,57,0
9310,note_on,190,0,5,,,,,,,,5,,,57,0
9312,note_on,0,0,1,,,,,,,,1,,,73,0
9312,note_on,192,0,4,,,,,,,,4,,,81,0
9312,note_on,0,0,4,,,,,,,,4,,,69,0
9312,note_on,192,0,1,,,,,,,,1,,,76,0
9360,note_on,50,0,6,,,,,,,,6,,,62,95
9360,note_on,0,0,1,,,,,,,,1,,,78,95
9360,note_on,48,0,1,,,,,,,,1,,,74,95
9360,note_on,50,0,7,,,,,,,,7,,,62,95
9360,note_on,48,0,4,,,,,,,,4,,,74,95
9360,note_on,0,0,4,,,,,,,,4,,,78,95
9360,note_on,50,0,5,,,,,,,,5,,,62,95
9550,note_on,190,0,6,,,,,,,,6,,,62,0
9550,note_on,190,0,7,,,,,,,,7,,,62,0
9550,note_on,190,0,5,,,,,,,,5,,,62,0
9552,note_on,192,0,4,,,,,,,,4,,,78,0
9552,note_on,0,0,4,,,,,,,,4,,,74,0
9552,note_on,192,0,1,,,,,,,,1,,,78,0
9552,note_on,0,0,1,,,,,,,,1,,,74,0
9600,note_on,50,0,7,,,,,,,,7,,,57,95
9600,note_on,770,0,2,,,,,,,,2,,,45,95
9600,note_on,50,0,6,,,,,,,,6,,,61,95
9600,note_on,770,0,8,,,,,,,,8,,,45,95
9600,note_on,0,0,3,,,,,,,,3,,,57,95
9600,note_on,768,0,3,,,,,,,,3,,,69,95
9600,note_on,50,0,5,,,,,,,,5,,,64,95
9600,note_on,770,0,9,,,,,,,,10,,,33,95
9790,note_on,190,0,8,,,,,,,,8,,,45,0
9790,note_on,190,0,7,,,,,,,,7,,,57,0
9790,note_on,190,0,5,,,,,,,,5,,,64,0
9790,note_on,190,0,6,,,,,,,,6,,,61,0
9790,note_on,190,0,2,,,,,,,,2,,,45,0
9790,note_on,190,0,9,,,,,,,,10,,,33,0
9792,note_on,0,0,3,,,,,,,,3,,,69,0
9792,note_on,192,0,3,,,,,,,,3,,,57,0
9840,note_on,50,0,6,,,,,,,,6,,,62,95
9840,note_on,50,0,5,,,,,,,,5,,,66,95
9840,note_on,50,0,2,,,,,,,,2,,,50,95
9840,note_on,50,0,8,,,,,,,,8,,,50,95
9840,note_on,50,0,9,,,,,,,,10,,,38,95
9840,note_on,0,0,3,,,,,,,,3,,,62,95
9840,note_on,48,0,3,,,,,,,,3,,,66,95
9840,note_on,50,0,7,,,,,,,,7,,,57,95
10030,note_on,190,0,5,,,,,,,,5,,,66,0
10030,note_on,190,0,2,,,,,,,,2,,,50,0
10030,note_on,190,0,8,,,,,,,,8,,,50,0
10030,note_on,190,0,9,,,,,,,,10,,,38,0
10030,note_on,190,0,7,,,,,,,,7,,,57,0
10030,note_on,190,0,6,,,,,,,,6,,,62,0
10032,note_on,0,0,3,,,,,,,,3,,,66,0
10032,note_on,192,0,3,,,,,,,,3,,,62,0
10080,note_on,0,0,4,,,,,,,,4,,,69,95
10080,note_on,50,0,6,,,,,,,,6,,,57,95
10080,note_on,0,0,1,,,,,,,,1,,,73,95
10080,note_on,528,0,1,,,,,,,,1,,,76,95
10080,note_on,528,0,4,,,,,,,,4,,,81,95
10080,note_on,50,0,5,,,,,,,,5,,,57,95
10080,note_on,50,0,7,,,,,,,,7,,,57,95
10270,note_on,190,0,7,,,,,,,,7,,,57,0
10270,note_on,190,0,5,,,,,,,,5,,,57,0
10270,note_on,190,0,6,,,,,,,,6,,,57,0
10272,note_on,0,0,4,,,,,,,,4,,,81,0
10272,note_on,192,0,4,,,,,,,,4,,,69,0
10272,note_on,192,0,1,,,,,,,,1,,,73,0
10272,note_on,0,0,1,,,,,,,,1,,,76,0
10320,note_on,50,0,6,,,,,,,,6,,,62,95
10320,note_on,48,0,1,,,,,,,,1,,,74,95
10320,note_on,50,0,5,,,,,,,,5,,,62,95
10320,note_on,50,0,7,,,,,,,,7,,,62,95
10320,note_on,0,0,1,,,,,,,,1,,,78,95
10320,note_on,0,0,4,,,,,,,,4,,,74,95
10320,note_on,48,0,4,,,,,,,,4,,,78,95
10510,note_on,190,0,7,,,,,,,,7,,,62,0
10510,note_on,190,0,6,,,,,,,,6,,,62,0
10510,note_on,190,0,5,,,,,,,,5,,,62,0
10512,note_on,0,0,1,,,,,,,,1,,,74,0
10512,note_on,192,0,4,,,,,,,,4,,,74,0
10512,note_on,0,0,4,,,,,,,,4,,,78,0
10512,note_on,192,0,1,,,,,,,,1,,,78,0
10560,note_on,50,0,6,,,,,,,,6,,,61,95
10560,note_on,530,0,9,,,,,,,,10,,,33,95
10560,note_on,528,0,3,,,,,,,,3,,,69,95
10560,note_on,530,0,2,,,,,,,,2,,,45,95
10560,note_on,0,0,3,,,,,,,,3,,,57,95
10560,note_on,50,0,7,,,,,,,,7,,,57,95
10560,note_on,530,0,8,,,,,,,,8,,,45,95
10560,note_on,50,0,5,,,,,,,,5,,,64,95
10750,note_on,190,0,7,,,,,,,,7,,,57,0
10750,note_on,190,0,2,,,,,,,,2,,,45,0
10750,note_on,190,0,6,,,,,,,,6,,,61,0
10750,note_on,190,0,5,,,,,,,,5,,,64,0
10750,note_on,190,0,9,,,,,,,,10,,,33,0
10750,note_on,190,0,8,,,,,,,,8,,,45,0
10752,note_on,0,0,3,,,,,,,,3,,,69,0
10752,note_on,192,0,3,,,,,,,,3,,,57,0
10800,note_on,50,0,2,,,,,,,,2,,,50,95
10800,note_on,48,0,3,,,,,,,,3,,,66,95
10800,note_on,50,0,9,,,,,,,,10,,,38,95
10800,note_on,50,0,7,,,,,,,,7,,,57,95
10800,note_on,50,0,5,,,,,,,,5,,,66,95
10800,note_on,50,0,6,,,,,,,,6,,,62,95
10800,note_on,50,0,8,,,,,,,,8,,,50,95
10800,note_on,0,0,3,,,,,,,,3,,,62,95
10990,note_on,190,0,2,,,,,,,,2,,,50,0
10990,note_on,190,0,6,,,,,,,,6,,,62,0
10990,note_on,190,0,8,,,,,,,,8,,,50,0
10990,note_on,190,0,5,,,,,,,,5,,,66,0
10990,note_on,190,0,9,,,,,,,,10,,,38,0
10990,note_on,190,0,7,,,,,,,,7,,,57,0
10992,note_on,192,0,3,,,,,,,,3,,,62,0
10992,note_on,0,0,3,,,,,,,,3,,,66,0
11040,note_on,0,0,4,,,,,,,,4,,,81,95
11040,note_on,528,0,4,,,,,,,,4,,,78,95
11040,note_on,50,0,7,,,,,,,,7,,,74,95
11040,note_on,50,0,6,,,,,,,,6,,,74,95
11040,note_on,50,0,5,,,,,,,,5,,,74,95
11040,note_on,528,0,1,,,,,,,,1,,,74,95
11135,note_on,95,0,7,,,,,,,,7,,,74,0
11135,note_on,95,0,6,,,,,,,,6,,,74,0
11135,note_on,95,0,5,,,,,,,,5,,,74,0
11135,note_on,95,0,1,,,,,,,,1,,,74,0
11136,note_on,96,0,4,,,,,,,,4,,,81,0
11136,note_on,0,0,4,,,,,,,,4,,,78,0
11160,note_on,25,0,5,,,,,,,,5,,,62,95
11160,note_on,0,0,4,,,,,,,,4,,,78,95
11160,note_on,24,0,4,,,,,,,,4,,,74,95
11160,note_on,25,0,7,,,,,,,,7,,,62,95
11160,note_on,25,0,6,,,,,,,,6,,,62,95
11160,note_on,25,0,1,,,,,,,,1,,,62,95
11255,note_on,95,0,5,,,,,,,,5,,,62,0
11255,note_on,95,0,6,,,,,,,,6,,,62,0
11255,note_on,95,0,1,,,,,,,,1,,,62,0
11255,note_on,95,0,7,,,,,,,,7,,,62,0
11256,note_on,96,0,4,,,,,,,,4,,,78,0
11256,note_on,0,0,4,,,,,,,,4,,,74,0
11280,note_on,25,0,6,,,,,,,,6,,,66,95
11280,note_on,24,0,4,,,,,,,,4,,,74,95
11280,note_on,0,0,4,,,,,,,,4,,,78,95
11280,note_on,25,0,5,,,,,,,,5,,,66,95
11280,note_on,25,0,1,,,,,,,,1,,,66,95
11280,note_on,25,0,7,,,,,,,,7,,,66,95
11375,note_on,95,0,7,,,,,,,,7,,,66,0
11375,note_on,95,0,5,,,,,,,,5,,,66,0
11375,note_on,95,0,1,,,,,,,,1,,,66,0
11375,note_on,95,0,6,,,,,,,,6,,,66,0
11376,note_on,0,0,4,,,,,,,,4,,,74,0
11376,note_on,96,0,4,,,,,,,,4,,,78,0
11400,note_on,24,0,4,,,,,,,,4,,,78,95
11400,note_on,25,0,5,,,,,,,,5,,,62,95
11400,note_on,25,0,7,,,,,,,,7,,,62,95
11400,note_on,25,0,6,,,,,,,,6,,,62,95
11400,note_on,0,0,4,,,,,,,,4,,,81,95
11400,note_on,25,0,1,,,,,,,,1,,,62,95
11495,note_on,95,0,5,,,,,,,,5,,,62,0
11495,note_on,95,0,7,,,,,,,,7,,,62,0
11495,note_on,95,0,6,,,,,,,,6,,,62,0
11495,note_on,95,0,1,,,,,,,,1,,,62,0
11496,note_on,96,0,4,,,,,,,,4,,,81,0
11496,note_on,0,0,4,,,,,,,,4,,,78,0
11520,note_on,25,0,1,,,,,,,,1,,,64,95
11520,note_on,25,0,5,,,,,,,,5,,,64,95
11520,note_on,25,0,6,,,,,,,,6,,,64,95
11520,note_on,24,0,4,,,,,,,,4,,,76,95
11520,note_on,0,0,4,,,,,,,,4,,,79,95
11520,note_on,25,0,7,,,,,,,,7,,,64,95
11615,note_on,95,0,5,,,,,,,,5,,,64,0
11615,note_on,95,0,7,,,,,,,,7,,,64,0
11615,note_on,95,0,6,,,,,,,,6,,,64,0
11615,note_on,95,0,1,,,,,,,,1,,,64,0
11616,note_on,0,0,4,,,,,,,,4,,,76,0
11616,note_on,96,0,4,,,,,,,,4,,,79,0
11640,note_on,25,0,5,,,,,,,,5,,,74,95
11640,note_on,25,0,6,,,,,,,,6,,,74,95
11640,note_on,25,0,7,,,,,,,,7,,,74,95
11640,note_on,25,0,1,,,,,,,,1,,,74,95
11640,note_on,0,0,4,,,,,,,,4,,,76,95
11640,note_on,24,0,4,,,,,,,,4,,,69,95
11735,note_on,95,0,7,,,,,,,,7,,,74,0
11735,note_on,95,0,5,,,,,,,,5,,,74,0
11735,note_on,95,0,6,,,,,,,,6,,,74,0
11735,note_on,95,0,1,,,,,,,,1,,,74,0
11736,note_on,0,0,4,,,,,,,,4,,,69,0
11736,note_on,96,0,4,,,,,,,,4,,,76,0
11760,note_on,25,0,5,,,,,,,,5,,,73,95
11760,note_on,24,0,4,,,,,,,,4,,,69,95
11760,note_on,25,0,1,,,,,,,,1,,,73,95
11760,note_on,25,0,7,,,,,,,,7,,,73,95
11760,note_on,25,0,6,,,,,,,,6,,,73,95
11760,note_on,0,0,4,,,,,,,,4,,,76,95
11855,note_on,95,0,7,,,,,,,,7,,,73,0
11855,note_on,95,0,6,,,,,,,,6,,,73,0
11855,note_on,95,0,5,,,,,,,,5,,,73,0
11855,note_on,95,0,1,,,,,,,,1,,,73,0
11856,note_on,0,0,4,,,,,,,,4,,,69,0
11856,note_on,96,0,4,,,,,,,,4,,,76,0
11880,note_on,25,0,1,,,,,,,,1,,,69,95
11880,note_on,25,0,6,,,,,,,,6,,,69,95
11880,note_on,25,0,7,,,,,,,,7,,,69,95
11880,note_on,25,0,5,,,,,,,,5,,,69,95
11880,note_on,0,0,4,,,,,,,,4,,,79,95
11880,note_on,24,0,4,,,,,,,,4,,,76,95
11975,note_on,95,0,5,,,,,,,,5,,,69,0
11975,note_on,95,0,7,,,,,,,,7,,,69,0
11975,note_on,95,0,6,,,,,,,,6,,,69,0
11975,note_on,95,0,1,,,,,,,,1,,,69,0
11976,note_on,0,0,4,,,,,,,,4,,,76,0
11976,note_on,96,0,4,,,,,,,,4,,,79,0
12000,note_on,25,0,5,,,,,,,,5,,,74,95
12000,note_on,24,0,4,,,,,,,,4,,,74,95
12000,note_on,0,0,4,,,,,,,,4,,,78,95
12000,note_on,25,0,1,,,,,,,,1,,,74,95
12000,note_on,25,0,6,,,,,,,,6,,,74,95
12000,note_on,25,0,7,,,,,,,,7,,,74,95
12095,note_on,95,0,6,,,,,,,,6,,,74,0
12095,note_on,95,0,1,,,,,,,,1,,,74,0
12095,note_on,95,0,5,,,,,,,,5,,,74,0
12095,note_on,95,0,7,,,,,,,,7,,,74,0
12096,note_on,0,0,4,,,,,,,,4,,,74,0
12096,note_on,96,0,4,,,,,,,,4,,,78,0
12120,note_on,24,0,4,,,,,,,,4,,,69,95
12120,note_on,0,0,4,,,,,,,,4,,,74,95
12120,note_on,25,0,1,,,,,,,,1,,,62,95
12120,note_on,25,0,5,,,,,,,,5,,,62,95
12120,note_on,25,0,6,,,,,,,,6,,,62,95
12120,note_on,25,0,7,,,,,,,,7,,,62,95
12215,note_on,95,0,5,,,,,,,,5,,,62,0
12215,note_on,95,0,1,,,,,,,,1,,,62,0
12215,note_on,95,0,7,,,,,,,,7,,,62,0
12215,note_on,95,0,6,,,,,,,,6,,,62,0
12216,note_on,0,0,4,,,,,,,,4,,,69,0
12216,note_on,96,0,4,,,,,,,,4,,,74,0
12240,note_on,25,0,6,,,,,,,,6,,,69,95
12240,note_on,25,0,5,,,,,,,,5,,,69,95
12240,note_on,25,0,7,,,,,,,,7,,,69,95
12240,note_on,25,0,1,,,,,,,,1,,,69,95
12240,note_on,0,0,4,,,,,,,,4,,,74,95
12240,note_on,24,0,4,,,,,,,,4,,,66,95
12335,note_on,95,0,6,,,,,,,,6,,,69,0
12335,note_on,95,0,1,,,,,,,,1,,,69,0
12335,note_on,95,0,7,,,,,,,,7,,,69,0
12335,note_on,95,0,5,,,,,,,,5,,,69,0
12336,note_on,96,0,4,,,,,,,,4,,,74,0
12336,note_on,0,0,4,,,,,,,,4,,,66,0
12360,note_on,25,0,5,,,,,,,,5,,,74,95
12360,note_on,24,0,4,,,,,,,,4,,,62,95
12360,note_on,25,0,6,,,,,,,,6,,,74,95
12360,note_on,25,0,1,,,,,,,,1,,,74,95
12360,note_on,25,0,7,,,,,,,,7,,,74,95
12360,note_on,0,0,4,,,,,,,,4,,,78,95
12455,note_on,95,0,1,,,,,,,,1,,,74,0
12455,note_on,95,0,5,,,,,,,,5,,,74,0
12455,note_on,95,0,6,,,,,,,,6,,,74,0
12455,note_on,95,0,7,,,,,,,,7,,,74,0
12456,note_on,0,0,4,,,,,,,,4,,,62,0
12456,note_on,96,0,4,,,,,,,,4,,,78,0
12480,note_on,25,0,6,,,,,,,,6,,,57,95
12480,note_on,25,0,1,,,,,,,,1,,,73,95
12480,note_on,25,0,7,,,,,,,,7,,,57,95
12480,note_on,24,0,4,,,,,,,,4,,,76,95
12480,note_on,25,0,5,,,,,,,,5,,,57,95
12480,note_on,0,0,4,,,,,,,,4,,,69,95
12670,note_on,190,0,5,,,,,,,,5,,,57,0
12670,note_on,190,0,7,,,,,,,,7,,,57,0
12670,note_on,190,0,6,,,,,,,,6,,,57,0
12672,note_on,192,0,4,,,,,,,,4,,,69,0
12672,note_on,0,0,4,,,,,,,,4,,,76,0
12672,note_on,192,0,1,,,,,,,,1,,,73,0
12960,note_on,1970,0,2,,,,,,,,2,,,62,95
12960,note_on,0,0,3,,,,,,,,3,,,69,95
12960,note_on,1970,0,8,,,,,,,,8,,,62,95
12960,note_on,1970,0,9,,,,,,,,10,,,50,95
12960,note_on,1968,0,3,,,,,,,,3,,,66,95
13055,note_on,95,0,9,,,,,,,,10,,,50,0
13055,note_on,95,0,2,,,,,,,,2,,,62,0
13055,note_on,95,0,8,,,,,,,,8,,,62,0
13056,note_on,96,0,3,,,,,,,,3,,,69,0
13056,note_on,0,0,3,,,,,,,,3,,,66,0
13080,note_on,25,0,9,,,,,,,,10,,,38,95
13080,note_on,25,0,2,,,,,,,,2,,,50,95
13080,note_on,25,0,8,,,,,,,,8,,,50,95
13080,note_on,24,0,3,,,,,,,,3,,,62,95
13080,note_on,0,0,3,,,,,,,,3,,,66,95
13175,note_on,95,0,9,,,,,,,,10,,,38,0
13175,note_on,95,0,8,,,,,,,,8,,,50,0
13175,note_on,95,0,2,,,,,,,,2,,,50,0
13176,note_on,96,0,3,,,,,,,,3,,,66,0
13176,note_on,0,0,3,,,,,,,,3,,,62,0
13200,note_on,25,0,2,,,,,,,,2,,,54,95
13200,note_on,25,0,9,,,,,,,,10,,,42,95
13200,note_on,24,0,3,,,,,,,,3,,,62,95
13200,note_on,25,0,8,,,,,,,,8,,,54,95
13200,note_on,0,0,3,,,,,,,,3,,,66,95
13295,note_on,95,0,8,,,,,,,,8,,,54,0
13295,note_on,95,0,9,,,,,,,,10,,,42,0
13295,note_on,95,0,2,,,,,,,,2,,,54,0
13296,note_on,96,0,3,,,,,,,,3,,,66,0
13296,note_on,0,0,3,,,,,,,,3,,,62,0
13320,note_on,24,0,3,,,,,,,,3,,,66,95
13320,note_on,0,0,3,,,,,,,,3,,,69,95
13320,note_on,25,0,9,,,,,,,,10,,,38,95
13320,note_on,25,0,2,,,,,,,,2,,,50,95
13320,note_on,25,0,8,,,,,,,,8,,,50,95
13415,note_on,95,0,2,,,,,,,,2,,,50,0
13415,note_on,95,0,9,,,,,,,,10,,,38,0
13415,note_on,95,0,8,,,,,,,,8,,,50,0
13416,note_on,0,0,3,,,,,,,,3,,,66,0
13416,note_on,96,0,3,,,,,,,,3,,,69,0
13440,note_on,25,0,2,,,,,,,,2,,,52,95
13440,note_on,24,0,3,,,,,,,,3,,,64,95
13440,note_on,0,0,3,,,,,,,,3,,,67,95
13440,note_on,25,0,8,,,,,,,,8,,,52,95
13440,note_on,25,0,9,,,,,,,,10,,,40,95
13535,note_on,95,0,8,,,,,,,,8,,,52,0
13535,note_on,95,0,9,,,,,,,,10,,,40,0
13535,note_on,95,0,2,,,,,,,,2,,,52,0
13536,note_on,96,0,3,,,,,,,,3,,,67,0
13536,note_on,0,0,3,,,,,,,,3,,,64,0
13560,note_on,0,0,3,,,,,,,,3,,,64,95
13560,note_on,24,0,3,,,,,,,,3,,,57,95
13560,note_on,25,0,9,,,,,,,,10,,,50,95
13560,note_on,25,0,2,,,,,,,,2,,,62,95
13560,note_on,25,0,8,,,,,,,,8,,,62,95
13655,note_on,95,0,9,,,,,,,,10,,,50,0
13655,note_on,95,0,2,,,,,,,,2,,,62,0
13655,note_on,95,0,8,,,,,,,,8,,,62,0
13656,note_on,96,0,3,,,,,,,,3,,,64,0
13656,note_on,0,0,3,,,,,,,,3,,,57,0
13680,note_on,24,0,3,,,,,,,,3,,,57,95
13680,note_on,25,0,9,,,,,,,,10,,,49,95
13680,note_on,0,0,3,,,,,,,,3,,,64,95
13680,note_on,25,0,2,,,,,,,,2,,,61,95
13680,note_on,25,0,8,,,,,,,,8,,,61,95
13775,note_on,95,0,8,,,,,,,,8,,,61,0
13775,note_on,95,0,9,,,,,,,,10,,,49,0
13775,note_on,95,0,2,,,,,,,,2,,,61,0
13776,note_on,0,0,3,,,,,,,,3,,,57,0
13776,note_on,96,0,3,,,,,,,,3,,,64,0
13800,note_on,0,0,3,,,,,,,,3,,,67,95
13800,note_on,24,0,3,,,,,,,,3,,,64,95
13800,note_on,25,0,9,,,,,,,,10,,,45,95
13800,note_on,25,0,8,,,,,,,,8,,,57,95
13800,note_on,25,0,2,,,,,,,,2,,,57,95
13895,note_on,95,0,8,,,,,,,,8,,,57,0
13895,note_on,95,0,9,,,,,,,,10,,,45,0
13895,note_on,95,0,2,,,,,,,,2,,,57,0
13896,note_on,0,0,3,,,,,,,,3,,,64,0
13896,note_on,96,0,3,,,,,,,,3,,,67,0
13920,note_on,0,0,3,,,,,,,,3,,,66,95
13920,note_on,25,0,8,,,,,,,,8,,,62,95
13920,note_on,24,0,3,,,,,,,,3,,,62,95
13920,note_on,25,0,2,,,,,,,,2,,,62,95
13920,note_on,25,0,9,,,,,,,,10,,,50,95
14015,note_on,95,0,9,,,,,,,,10,,,50,0
14015,note_on,95,0,8,,,,,,,,8,,,62,0
14015,note_on,95,0,2,,,,,,,,2,,,62,0
14016,note_on,96,0,3,,,,,,,,3,,,66,0
14016,note_on,0,0,3,,,,,,,,3,,,62,0
14040,note_on,25,0,9,,,,,,,,10,,,38,95
14040,note_on,0,0,3,,,,,,,,3,,,62,95
14040,note_on,24,0,3,,,,,,,,3,,,57,95
14040,note_on,25,0,8,,,,,,,,8,,,50,95
14040,note_on,25,0,2,,,,,,,,2,,,50,95
14135,note_on,95,0,8,,,,,,,,8,,,50,0
14135,note_on,95,0,2,,,,,,,,2,,,50,0
14135,note_on,95,0,9,,,,,,,,10,,,38,0
14136,note_on,96,0,3,,,,,,,,3,,,62,0
14136,note_on,0,0,3,,,,,,,,3,,,57,0
14160,note_on,25,0,8,,,,,,,,8,,,57,95
14160,note_on,25,0,2,,,,,,,,2,,,57,95
14160,note_on,24,0,3,,,,,,,,3,,,54,95
14160,note_on,25,0,9,,,,,,,,10,,,45,95
14160,note_on,0,0,3,,,,,,,,3,,,62,95
14255,note_on,95,0,2,,,,,,,,2,,,57,0
14255,note_on,95,0,9,,,,,,,,10,,,45,0
14255,note_on,95,0,8,,,,,,,,8,,,57,0
14256,note_on,96,0,3,,,,,,,,3,,,62,0
14256,note_on,0,0,3,,,,,,,,3,,,54,0
14280,note_on,0,0,3,,,,,,,,3,,,66,95
14280,note_on,25,0,8,,,,,,,,8,,,62,95
14280,note_on,24,0,3,,,,,,,,3,,,50,95
14280,note_on,25,0,2,,,,,,,,2,,,62,95
14280,note_on,25,0,9,,,,,,,,10,,,50,95
14375,note_on,95,0,8,,,,,,,,8,,,62,0
14375,note_on,95,0,9,,,,,,,,10,,,50,0
14375,note_on,95,0,2,,,,,,,,2,,,62,0
14376,note_on,0,0,3,,,,,,,,3,,,50,0
14376,note_on,96,0,3,,,,,,,,3,,,66,0
14400,note_on,25,0,2,,,,,,,,2,,,61,95
14400,note_on,25,0,8,,,,,,,,8,,,45,95
14400,note_on,25,0,9,,,,,,,,10,,,33,95
14400,note_on,0,0,3,,,,,,,,3,,,57,95
14400,note_on,24,0,3,,,,,,,,3,,,64,95
14590,note_on,190,0,9,,,,,,,,10,,,33,0
14590,note_on,190,0,8,,,,,,,,8,,,45,0
14590,note_on,190,0,2,,,,,,,,2,,,61,0
14592,note_on,192,0,3,,,,,,,,3,,,57,0
14592,note_on,0,0,3,,,,,,,,3,,,64,0
14880,note_on,2210,0,5,,,,,,,,5,,,57,95
14880,note_on,0,0,4,,,,,,,,4,,,76,95
14880,note_on,2208,0,4,,,,,,,,4,,,69,95
14880,note_on,2210,0,7,,,,,,,,7,,,57,95
14880,note_on,2210,0,6,,,,,,,,6,,,57,95
14880,note_on,2208,0,1,,,,,,,,1,,,73,95
14975,note_on,95,0,6,,,,,,,,6,,,57,0
14975,note_on,95,0,1,,,,,,,,1,,,73,0
14975,note_on,95,0,7,,,,,,,,7,,,57,0
14975,note_on,95,0,5,,,,,,,,5,,,57,0
15000,note_on,25,0,7,,,,,,,,7,,,69,95
15000,note_on,25,0,1,,,,,,,,1,,,69,95
15000,note_on,25,0,6,,,,,,,,6,,,69,95
15000,note_on,25,0,5,,,,,,,,5,,,69,95
15024,note_on,144,0,4,,,,,,,,4,,,76,0
15060,note_on,36,0,4,,,,,,,,4,,,78,95
15072,note_on,12,0,4,,,,,,,,4,,,69,0
15095,note_on,95,0,1,,,,,,,,1,,,69,0
15095,note_on,95,0,7,,,,,,,,7,,,69,0
15095,note_on,95,0,5,,,,,,,,5,,,69,0
15095,note_on,95,0,6,,,,,,,,6,,,69,0
15108,note_on,36,0,4,,,,,,,,4,,,78,0
15120,note_on,25,0,1,,,,,,,,1,,,67,95
15120,note_on,0,0,4,,,,,,,,4,,,76,95
15120,note_on,12,0,4,,,,,,,,4,,,69,95
15120,note_on,25,0,5,,,,,,,,5,,,67,95
15120,note_on,25,0,7,,,,,,,,7,,,67,95
15120,note_on,25,0,6,,,,,,,,6,,,67,95
15215,note_on,95,0,1,,,,,,,,1,,,67,0
15215,note_on,95,0,6,,,,,,,,6,,,67,0
15215,note_on,95,0,7,,,,,,,,7,,,67,0
15215,note_on,95,0,5,,,,,,,,5,,,67,0
15240,note_on,25,0,7,,,,,,,,7,,,66,95
15240,note_on,25,0,6,,,,,,,,6,,,66,95
15240,note_on,25,0,5,,,,,,,,5,,,66,95
15240,note_on,25,0,1,,,,,,,,1,,,66,95
15264,note_on,144,0,4,,,,,,,,4,,,76,0
15264,note_on,0,0,4,,,,,,,,4,,,69,0
15300,note_on,0,0,4,,,,,,,,4,,,78,95
15300,note_on,36,0,4,,,,,,,,4,,,74,95
15335,note_on,95,0,7,,,,,,,,7,,,66,0
15335,note_on,95,0,5,,,,,,,,5,,,66,0
15335,note_on,95,0,1,,,,,,,,1,,,66,0
15335,note_on,95,0,6,,,,,,,,6,,,66,0
15348,note_on,48,0,4,,,,,,,,4,,,78,0
15348,note_on,0,0,4,,,,,,,,4,,,74,0
15360,note_on,25,0,6,,,,,,,,6,,,64,95
15360,note_on,12,0,4,,,,,,,,4,,,79,95
15360,note_on,25,0,7,,,,,,,,7,,,64,95
15360,note_on,0,0,4,,,,,,,,4,,,76,95
15360,note_on,25,0,1,,,,,,,,1,,,64,95
15360,note_on,25,0,5,,,,,,,,5,,,64,95
15455,note_on,95,0,1,,,,,,,,1,,,64,0
15455,note_on,95,0,6,,,,,,,,6,,,64,0
15455,note_on,95,0,7,,,,,,,,7,,,64,0
15455,note_on,95,0,5,,,,,,,,5,,,64,0
15480,note_on,25,0,5,,,,,,,,5,,,66,95
15480,note_on,25,0,1,,,,,,,,1,,,66,95
15480,note_on,25,0,7,,,,,,,,7,,,66,95
15480,note_on,25,0,6,,,,,,,,6,,,66,95
15504,note_on,0,0,4,,,,,,,,4,,,79,0
15504,note_on,144,0,4,,,,,,,,4,,,76,0
15540,note_on,0,0,4,,,,,,,,4,,,78,95
15540,note_on,36,0,4,,,,,,,,4,,,81,95
15575,note_on,95,0,5,,,,,,,,5,,,66,0
15575,note_on,95,0,7,,,,,,,,7,,,66,0
15575,note_on,95,0,6,,,,,,,,6,,,66,0
15575,note_on,95,0,1,,,,,,,,1,,,66,0
15588,note_on,48,0,4,,,,,,,,4,,,78,0
15588,note_on,0,0,4,,,,,,,,4,,,81,0
15600,note_on,25,0,5,,,,,,,,5,,,67,95
15600,note_on,0,0,4,,,,,,,,4,,,76,95
15600,note_on,12,0,4,,,,,,,,4,,,79,95
15600,note_on,25,0,1,,,,,,,,1,,,67,95
15600,note_on,25,0,6,,,,,,,,6,,,67,95
15600,note_on,25,0,7,,,,,,,,7,,,67,95
15695,note_on,95,0,5,,,,,,,,5,,,67,0
15695,note_on,95,0,6,,,,,,,,6,,,67,0
15695,note_on,95,0,1,,,,,,,,1,,,67,0
15695,note_on,95,0,7,,,,,,,,7,,,67,0
15720,note_on,25,0,6,,,,,,,,6,,,64,95
15720,note_on,25,0,1,,,,,,,,1,,,64,95
15720,note_on,25,0,5,,,,,,,,5,,,64,95
15720,note_on,25,0,7,,,,,,,,7,,,64,95
15744,note_on,144,0,4,,,,,,,,4,,,76,0
15744,note_on,0,0,4,,,,,,,,4,,,79,0
15780,note_on,36,0,4,,,,,,,,4,,,81,95
15780,note_on,0,0,4,,,,,,,,4,,,78,95
15815,note_on,95,0,6,,,,,,,,6,,,64,0
15815,note_on,95,0,5,,,,,,,,5,,,64,0
15815,note_on,95,0,7,,,,,,,,7,,,64,0
15815,note_on,95,0,1,,,,,,,,1,,,64,0
15828,note_on,0,0,4,,,,,,,,4,,,81,0
15828,note_on,48,0,4,,,,,,,,4,,,78,0
15840,note_on,12,0,4,,,,,,,,4,,,78,95
15840,note_on,25,0,7,,,,,,,,7,,,71,95
15840,note_on,25,0,1,,,,,,,,1,,,71,95
15840,note_on,25,0,5,,,,,,,,5,,,71,95
15840,note_on,25,0,6,,,,,,,,6,,,71,95
15840,note_on,0,0,4,,,,,,,,4,,,74,95
15935,note_on,95,0,7,,,,,,,,7,,,71,0
15935,note_on,95,0,5,,,,,,,,5,,,71,0
15935,note_on,95,0,1,,,,,,,,1,,,71,0
15935,note_on,95,0,6,,,,,,,,6,,,71,0
15960,note_on,25,0,7,,,,,,,,7,,,71,95
15960,note_on,25,0,5,,,,,,,,5,,,71,95
15960,note_on,25,0,1,,,,,,,,1,,,71,95
15960,note_on,25,0,6,,,,,,,,6,,,71,95
15984,note_on,0,0,4,,,,,,,,4,,,78,0
15984,note_on,144,0,4,,,,,,,,4,,,74,0
16020,note_on,0,0,4,,,,,,,,4,,,76,95
16020,note_on,36,0,4,,,,,,,,4,,,79,95
16055,note_on,95,0,1,,,,,,,,1,,,71,0
16055,note_on,95,0,5,,,,,,,,5,,,71,0
16055,note_on,95,0,7,,,,,,,,7,,,71,0
16055,note_on,95,0,6,,,,,,,,6,,,71,0
16068,note_on,48,0,4,,,,,,,,4,,,76,0
16068,note_on,0,0,4,,,,,,,,4,,,79,0
16080,note_on,0,0,4,,,,,,,,4,,,74,95
16080,note_on,25,0,6,,,,,,,,6,,,69,95
16080,note_on,25,0,1,,,,,,,,1,,,69,95
16080,note_on,25,0,5,,,,,,,,5,,,69,95
16080,note_on,12,0,4,,,,,,,,4,,,78,95
16080,note_on,25,0,7,,,,,,,,7,,,69,95
16175,note_on,95,0,6,,,,,,,,6,,,69,0
16175,note_on,95,0,7,,,,,,,,7,,,69,0
16175,note_on,95,0,5,,,,,,,,5,,,69,0
16175,note_on,95,0,1,,,,,,,,1,,,69,0
16200,note_on,25,0,7,,,,,,,,7,,,67,95
16200,note_on,25,0,1,,,,,,,,1,,,67,95
16200,note_on,25,0,5,,,,,,,,5,,,67,95
16200,note_on,25,0,6,,,,,,,,6,,,67,95
16224,note_on,144,0,4,,,,,,,,4,,,74,0
16224,note_on,0,0,4,,,,,,,,4,,,78,0
16260,note_on,0,0,4,,,,,,,,4,,,76,95
16260,note_on,36,0,4,,,,,,,,4,,,79,95
16295,note_on,95,0,7,,,,,,,,7,,,67,0
16295,note_on,95,0,6,,,,,,,,6,,,67,0
16295,note_on,95,0,1,,,,,,,,1,,,67,0
16295,note_on,95,0,5,,,,,,,,5,,,67,0
16308,note_on,0,0,4,,,,,,,,4,,,79,0
16308,note_on,48,0,4,,,,,,,,4,,,76,0
16320,note_on,25,0,1,,,,,,,,1,,,66,95
16320,note_on,25,0,5,,,,,,,,5,,,66,95
16320,note_on,25,0,6,,,,,,,,6,,,66,95
16320,note_on,12,0,4,,,,,,,,4,,,78,95
16320,note_on,0,0,4,,,,,,,,4,,,81,95
16320,note_on,25,0,7,,,,,,,,7,,,66,95
16415,note_on,95,0,6,,,,,,,,6,,,66,0
16415,note_on,95,0,1,,,,,,,,1,,,66,0
16415,note_on,95,0,5,,,,,,,,5,,,66,0
16415,note_on,95,0,7,,,,,,,,7,,,66,0
16440,note_on,25,0,6,,,,,,,,6,,,62,95
16440,note_on,25,0,7,,,,,,,,7,,,62,95
16440,note_on,25,0,1,,,,,,,,1,,,62,95
16440,note_on,25,0,5,,,,,,,,5,,,62,95
16535,note_on,95,0,6,,,,,,,,6,,,62,0
16535,note_on,95,0,1,,,,,,,,1,,,62,0
16535,note_on,95,0,5,,,,,,,,5,,,62,0
16535,note_on,95,0,7,,,,,,,,7,,,62,0
16560,note_on,25,0,7,,,,,,,,7,,,66,95
16560,note_on,25,0,1,,,,,,,,1,,,66,95
16560,note_on,25,0,5,,,,,,,,5,,,66,95
16560,note_on,25,0,6,,,,,,,,6,,,66,95
16608,note_on,0,0,4,,,,,,,,4,,,78,0
16608,note_on,288,0,4,,,,,,,,4,,,81,0
16655,note_on,95,0,7,,,,,,,,7,,,66,0
16655,note_on,95,0,1,,,,,,,,1,,,66,0
16655,note_on,95,0,5,,,,,,,,5,,,66,0
16655,note_on,95,0,6,,,,,,,,6,,,66,0
16680,note_on,25,0,6,,,,,,,,6,,,69,95
16680,note_on,25,0,1,,,,,,,,1,,,69,95
16680,note_on,0,0,4,,,,,,,,4,,,83,95
16680,note_on,72,0,4,,,,,,,,4,,,79,95
16680,note_on,25,0,7,,,,,,,,7,,,69,95
16680,note_on,25,0,5,,,,,,,,5,,,69,95
16775,note_on,95,0,6,,,,,,,,6,,,69,0
16775,note_on,95,0,1,,,,,,,,1,,,69,0
16775,note_on,95,0,5,,,,,,,,5,,,69,0
16775,note_on,95,0,7,,,,,,,,7,,,69,0
16776,note_on,96,0,4,,,,,,,,4,,,83,0
16776,note_on,0,0,4,,,,,,,,4,,,79,0
16800,note_on,25,0,1,,,,,,,,1,,,74,95
16800,note_on,25,0,5,,,,,,,,5,,,74,95
16800,note_on,25,0,7,,,,,,,,7,,,74,95
16800,note_on,0,0,4,,,,,,,,4,,,81,95
16800,note_on,24,0,4,,,,,,,,4,,,78,95
16800,note_on,25,0,6,,,,,,,,6,,,74,95
16895,note_on,95,0,5,,,,,,,,5,,,74,0
16895,note_on,95,0,6,,,,,,,,6,,,74,0
16895,note_on,95,0,1,,,,,,,,1,,,74,0
16895,note_on,95,0,7,,,,,,,,7,,,74,0
16920,note_on,25,0,7,,,,,,,,7,,,62,95
16920,note_on,25,0,5,,,,,,,,5,,,62,95
16920,note_on,25,0,1,,,,,,,,1,,,62,95
16920,note_on,25,0,6,,,,,,,,6,,,62,95
17015,note_on,95,0,5,,,,,,,,5,,,62,0
17015,note_on,95,0,6,,,,,,,,6,,,62,0
17015,note_on,95,0,7,,,,,,,,7,,,62,0
17015,note_on,95,0,1,,,,,,,,1,,,62,0
17040,note_on,25,0,7,,,,,,,,7,,,66,95
17040,note_on,25,0,1,,,,,,,,1,,,66,95
17040,note_on,25,0,6,,,,,,,,6,,,66,95
17040,note_on,25,0,5,,,,,,,,5,,,66,95
17088,note_on,288,0,4,,,,,,,,4,,,81,0
17088,note_on,0,0,4,,,,,,,,4,,,78,0
17135,note_on,95,0,1,,,,,,,,1,,,66,0
17135,note_on,95,0,5,,,,,,,,5,,,66,0
17135,note_on,95,0,6,,,,,,,,6,,,66,0
17135,note_on,95,0,7,,,,,,,,7,,,66,0
17160,note_on,25,0,5,,,,,,,,5,,,69,95
17160,note_on,0,0,4,,,,,,,,4,,,83,95
17160,note_on,72,0,4,,,,,,,,4,,,79,95
17160,note_on,25,0,7,,,,,,,,7,,,69,95
17160,note_on,25,0,1,,,,,,,,1,,,69,95
17160,note_on,25,0,6,,,,,,,,6,,,69,95
17255,note_on,95,0,6,,,,,,,,6,,,69,0
17255,note_on,95,0,5,,,,,,,,5,,,69,0
17255,note_on,95,0,1,,,,,,,,1,,,69,0
17255,note_on,95,0,7,,,,,,,,7,,,69,0
17256,note_on,0,0,4,,,,,,,,4,,,79,0
17256,note_on,96,0,4,,,,,,,,4,,,83,0
17280,note_on,25,0,7,,,,,,,,7,,,74,95
17280,note_on,0,0,4,,,,,,,,4,,,78,95
17280,note_on,25,0,1,,,,,,,,1,,,74,95
17280,note_on,25,0,6,,,,,,,,6,,,74,95
17280,note_on,25,0,5,,,,,,,,5,,,74,95
17280,note_on,24,0,4,,,,,,,,4,,,81,95
17375,note_on,95,0,7,,,,,,,,7,,,74,0
17375,note_on,95,0,6,,,,,,,,6,,,74,0
17375,note_on,95,0,1,,,,,,,,1,,,74,0
17375,note_on,95,0,5,,,,,,,,5,,,74,0
17400,note_on,25,0,7,,,,,,,,7,,,62,95
17400,note_on,25,0,5,,,,,,,,5,,,62,95
17400,note_on,25,0,6,,,,,,,,6,,,62,95
17400,note_on,25,0,1,,,,,,,,1,,,62,95
17495,note_on,95,0,7,,,,,,,,7,,,62,0
17495,note_on,95,0,5,,,,,,,,5,,,62,0
17495,note_on,95,0,6,,,,,,,,6,,,62,0
17495,note_on,95,0,1,,,,,,,,1,,,62,0
17520,note_on,25,0,1,,,,,,,,1,,,66,95
17520,note_on,25,0,6,,,,,,,,6,,,66,95
17520,note_on,25,0,7,,,,,,,,7,,,66,95
17520,note_on,25,0,5,,,,,,,,5,,,66,95
17568,note_on,288,0,4,,,,,,,,4,,,78,0
17568,note_on,0,0,4,,,,,,,,4,,,81,0
17615,note_on,95,0,6,,,,,,,,6,,,66,0
17615,note_on,95,0,7,,,,,,,,7,,,66,0
17615,note_on,95,0,1,,,,,,,,1,,,66,0
17615,note_on,95,0,5,,,,,,,,5,,,66,0
17640,note_on,0,0,4,,,,,,,,4,,,74,95
17640,note_on,25,0,1,,,,,,,,1,,,67,95
17640,note_on,72,0,4,,,,,,,,4,,,79,95
17640,note_on,25,0,5,,,,,,,,5,,,67,95
17640,note_on,25,0,7,,,,,,,,7,,,67,95
17640,note_on,25,0,6,,,,,,,,6,,,67,95
17688,note_on,48,0,4,,,,,,,,4,,,79,0
17700,note_on,12,0,4,,,,,,,,4,,,78,95
17735,note_on,95,0,5,,,,,,,,5,,,67,0
17735,note_on,95,0,1,,,,,,,,1,,,67,0
17735,note_on,95,0,7,,,,,,,,7,,,67,0
17735,note_on,95,0,6,,,,,,,,6,,,67,0
17736,note_on,36,0,4,,,,,,,,4,,,74,0
17748,note_on,12,0,4,,,,,,,,4,,,78,0
17760,note_on,0,0,4,,,,,,,,4,,,69,95
17760,note_on,12,0,4,,,,,,,,4,,,76,95
17760,note_on,25,0,1,,,,,,,,1,,,69,95
17760,note_on,25,0,5,,,,,,,,5,,,69,95
17760,note_on,25,0,7,,,,,,,,7,,,69,95
17760,note_on,25,0,6,,,,,,,,6,,,69,95
17855,note_on,95,0,7,,,,,,,,7,,,69,0
17855,note_on,95,0,5,,,,,,,,5,,,69,0
17855,note_on,95,0,6,,,,,,,,6,,,69,0
17855,note_on,95,0,1,,,,,,,,1,,,69,0
17856,note_on,0,0,4,,,,,,,,4,,,76,0
17856,note_on,96,0,4,,,,,,,,4,,,69,0
17880,note_on,25,0,7,,,,,,,,7,,,62,95
17880,note_on,25,0,6,,,,,,,,6,,,62,95
17880,note_on,0,0,4,,,,,,,,4,,,74,95
17880,note_on,24,0,4,,,,,,,,4,,,78,95
17880,note_on,25,0,1,,,,,,,,1,,,74,95
17880,note_on,25,0,5,,,,,,,,5,,,62,95
17928,note_on,48,0,4,,,,,,,,4,,,78,0
17940,note_on,12,0,4,,,,,,,,4,,,79,95
17975,note_on,95,0,6,,,,,,,,6,,,62,0
17975,note_on,95,0,5,,,,,,,,5,,,62,0
17975,note_on,95,0,7,,,,,,,,7,,,62,0
17976,note_on,96,0,1,,,,,,,,1,,,74,0
17976,note_on,36,0,4,,,,,,,,4,,,74,0
17988,note_on,12,0,4,,,,,,,,4,,,79,0
18000,note_on,0,0,4,,,,,,,,4,,,69,95
18000,note_on,12,0,4,,,,,,,,4,,,76,95
18000,note_on,24,0,1,,,,,,,,1,,,73,95
18000,note_on,25,0,7,,,,,,,,7,,,69,95
18000,note_on,25,0,6,,,,,,,,6,,,69,95
18000,note_on,25,0,5,,,,,,,,5,,,69,95
18095,note_on,95,0,7,,,,,,,,7,,,69,0
18095,note_on,95,0,6,,,,,,,,6,,,69,0
18095,note_on,95,0,5,,,,,,,,5,,,69,0
18096,note_on,96,0,4,,,,,,,,4,,,69,0
18120,note_on,25,0,7,,,,,,,,7,,,57,95
18120,note_on,25,0,5,,,,,,,,5,,,57,95
18120,note_on,24,0,4,,,,,,,,4,,,69,95
18120,note_on,25,0,6,,,,,,,,6,,,57,95
18144,note_on,144,0,1,,,,,,,,1,,,73,0
18144,note_on,24,0,4,,,,,,,,4,,,76,0
18180,note_on,36,0,4,,,,,,,,4,,,74,95
18180,note_on,36,0,1,,,,,,,,1,,,74,95
18215,note_on,95,0,6,,,,,,,,6,,,57,0
18215,note_on,95,0,5,,,,,,,,5,,,57,0
18215,note_on,95,0,7,,,,,,,,7,,,57,0
18216,note_on,36,0,4,,,,,,,,4,,,69,0
18228,note_on,48,0,1,,,,,,,,1,,,74,0
18228,note_on,12,0,4,,,,,,,,4,,,74,0
18240,note_on,25,0,7,,,,,,,,7,,,62,95
18240,note_on,0,0,4,,,,,,,,4,,,74,95
18240,note_on,12,0,4,,,,,,,,4,,,66,95
18240,note_on,25,0,5,,,,,,,,5,,,62,95
18240,note_on,12,0,1,,,,,,,,1,,,74,95
18240,note_on,25,0,6,,,,,,,,6,,,62,95
18360,note_on,3770,0,2,,,,,,,,2,,,50,95
18360,note_on,3770,0,9,,,,,,,,10,,,38,95
18360,note_on,3770,0,8,,,,,,,,8,,,50,95
18430,note_on,190,0,5,,,,,,,,5,,,62,0
18430,note_on,190,0,6,,,,,,,,6,,,62,0
18430,note_on,190,0,7,,,,,,,,7,,,62,0
18432,note_on,192,0,4,,,,,,,,4,,,74,0
18432,note_on,0,0,4,,,,,,,,4,,,66,0
18432,note_on,192,0,1,,,,,,,,1,,,74,0
18455,note_on,95,0,8,,,,,,,,8,,,50,0
18455,note_on,95,0,9,,,,,,,,10,,,38,0
18455,note_on,95,0,2,,,,,,,,2,,,50,0
18480,note_on,25,0,8,,,,,,,,8,,,54,95
18480,note_on,25,0,9,,,,,,,,10,,,42,95
18480,note_on,25,0,2,,,,,,,,2,,,54,95
18575,note_on,95,0,8,,,,,,,,8,,,54,0
18575,note_on,95,0,2,,,,,,,,2,,,54,0
18575,note_on,95,0,9,,,,,,,,10,,,42,0
18600,note_on,25,0,2,,,,,,,,2,,,50,95
18600,note_on,25,0,9,,,,,,,,10,,,38,95
18600,note_on,25,0,8,,,,,,,,8,,,50,95
18695,note_on,95,0,2,,,,,,,,2,,,50,0
18695,note_on,95,0,9,,,,,,,,10,,,38,0
18695,note_on,95,0,8,,,,,,,,8,,,50,0
18720,note_on,0,0,3,,,,,,,,3,,,64,95
18720,note_on,25,0,2,,,,,,,,2,,,45,95
18720,note_on,25,0,8,,,,,,,,8,,,45,95
18720,note_on,4128,0,3,,,,,,,,3,,,57,95
18720,note_on,25,0,9,,,,,,,,10,,,33,95
18815,note_on,95,0,2,,,,,,,,2,,,45,0
18815,note_on,95,0,9,,,,,,,,10,,,33,0
18815,note_on,95,0,8,,,,,,,,8,,,45,0
18840,note_on,25,0,9,,,,,,,,10,,,45,95
18840,note_on,25,0,2,,,,,,,,2,,,57,95
18840,note_on,25,0,8,,,,,,,,8,,,57,95
18864,note_on,144,0,3,,,,,,,,3,,,64,0
18900,note_on,36,0,3,,,,,,,,3,,,66,95
18912,note_on,12,0,3,,,,,,,,3,,,57,0
18935,note_on,95,0,8,,,,,,,,8,,,57,0
18935,note_on,95,0,9,,,,,,,,10,,,45,0
18935,note_on,95,0,2,,,,,,,,2,,,57,0
18948,note_on,36,0,3,,,,,,,,3,,,66,0
18960,note_on,25,0,9,,,,,,,,10,,,43,95
18960,note_on,12,0,3,,,,,,,,3,,,57,95
18960,note_on,25,0,8,,,,,,,,8,,,55,95
18960,note_on,0,0,3,,,,,,,,3,,,64,95
18960,note_on,25,0,2,,,,,,,,2,,,55,95
19055,note_on,95,0,9,,,,,,,,10,,,43,0
19055,note_on,95,0,8,,,,,,,,8,,,55,0
19055,note_on,95,0,2,,,,,,,,2,,,55,0
19080,note_on,25,0,8,,,,,,,,8,,,54,95
19080,note_on,25,0,2,,,,,,,,2,,,54,95
19080,note_on,25,0,9,,,,,,,,10,,,42,95
19104,note_on,144,0,3,,,,,,,,3,,,64,0
19104,note_on,0,0,3,,,,,,,,3,,,57,0
19140,note_on,36,0,3,,,,,,,,3,,,62,95
19140,note_on,0,0,3,,,,,,,,3,,,66,95
19175,note_on,95,0,2,,,,,,,,2,,,54,0
19175,note_on,95,0,8,,,,,,,,8,,,54,0
19175,note_on,95,0,9,,,,,,,,10,,,42,0
19188,note_on,0,0,3,,,,,,,,3,,,62,0
19188,note_on,48,0,3,,,,,,,,3,,,66,0
19200,note_on,0,0,3,,,,,,,,3,,,67,95
19200,note_on,25,0,2,,,,,,,,2,,,52,95
19200,note_on,25,0,9,,,,,,,,10,,,40,95
19200,note_on,25,0,8,,,,,,,,8,,,52,95
19200,note_on,12,0,3,,,,,,,,3,,,64,95
19295,note_on,95,0,8,,,,,,,,8,,,52,0
19295,note_on,95,0,2,,,,,,,,2,,,52,0
19295,note_on,95,0,9,,,,,,,,10,,,40,0
19320,note_on,25,0,9,,,,,,,,10,,,42,95
19320,note_on,25,0,2,,,,,,,,2,,,54,95
19320,note_on,25,0,8,,,,,,,,8,,,54,95
19344,note_on,144,0,3,,,,,,,,3,,,67,0
19344,note_on,0,0,3,,,,,,,,3,,,64,0
19380,note_on,36,0,3,,,,,,,,3,,,66,95
19380,note_on,0,0,3,,,,,,,,3,,,69,95
19415,note_on,95,0,2,,,,,,,,2,,,54,0
19415,note_on,95,0,8,,,,,,,,8,,,54,0
19415,note_on,95,0,9,,,,,,,,10,,,42,0
19428,note_on,0,0,3,,,,,,,,3,,,66,0
19428,note_on,48,0,3,,,,,,,,3,,,69,0
19440,note_on,25,0,2,,,,,,,,2,,,55,95
19440,note_on,25,0,8,,,,,,,,8,,,55,95
19440,note_on,12,0,3,,,,,,,,3,,,64,95
19440,note_on,0,0,3,,,,,,,,3,,,67,95
19440,note_on,25,0,9,,,,,,,,10,,,43,95
19535,note_on,95,0,8,,,,,,,,8,,,55,0
19535,note_on,95,0,2,,,,,,,,2,,,55,0
19535,note_on,95,0,9,,,,,,,,10,,,43,0
19560,note_on,25,0,9,,,,,,,,10,,,40,95
19560,note_on,25,0,8,,,,,,,,8,,,52,95
19560,note_on,25,0,2,,,,,,,,2,,,52,95
19584,note_on,144,0,3,,,,,,,,3,,,67,0
19584,note_on,0,0,3,,,,,,,,3,,,64,0
19620,note_on,0,0,3,,,,,,,,3,,,69,95
19620,note_on,36,0,3,,,,,,,,3,,,66,95
19655,note_on,95,0,2,,,,,,,,2,,,52,0
19655,note_on,95,0,9,,,,,,,,10,,,40,0
19655,note_on,95,0,8,,,,,,,,8,,,52,0
19668,note_on,48,0,3,,,,,,,,3,,,69,0
19668,note_on,0,0,3,,,,,,,,3,,,66,0
19680,note_on,25,0,8,,,,,,,,8,,,47,95
19680,note_on,12,0,3,,,,,,,,3,,,62,95
19680,note_on,0,0,3,,,,,,,,3,,,66,95
19680,note_on,25,0,2,,,,,,,,2,,,47,95
19680,note_on,25,0,9,,,,,,,,10,,,35,95
19775,note_on,95,0,9,,,,,,,,10,,,35,0
19775,note_on,95,0,2,,,,,,,,2,,,47,0
19775,note_on,95,0,8,,,,,,,,8,,,47,0
19800,note_on,25,0,9,,,,,,,,10,,,47,95
19800,note_on,25,0,2,,,,,,,,2,,,59,95
19800,note_on,25,0,8,,,,,,,,8,,,59,95
19824,note_on,0,0,3,,,,,,,,3,,,62,0
19824,note_on,144,0,3,,,,,,,,3,,,66,0
19860,note_on,36,0,3,,,,,,,,3,,,64,95
19860,note_on,0,0,3,,,,,,,,3,,,67,95
19895,note_on,95,0,9,,,,,,,,10,,,47,0
19895,note_on,95,0,8,,,,,,,,8,,,59,0
19895,note_on,95,0,2,,,,,,,,2,,,59,0
19908,note_on,0,0,3,,,,,,,,3,,,64,0
19908,note_on,48,0,3,,,,,,,,3,,,67,0
19920,note_on,25,0,9,,,,,,,,10,,,45,95
19920,note_on,25,0,2,,,,,,,,2,,,57,95
19920,note_on,25,0,8,,,,,,,,8,,,57,95
19920,note_on,12,0,3,,,,,,,,3,,,62,95
19920,note_on,0,0,3,,,,,,,,3,,,66,95
20015,note_on,95,0,9,,,,,,,,10,,,45,0
20015,note_on,95,0,8,,,,,,,,8,,,57,0
20015,note_on,95,0,2,,,,,,,,2,,,57,0
20040,note_on,25,0,2,,,,,,,,2,,,55,95
20040,note_on,25,0,9,,,,,,,,10,,,43,95
20040,note_on,25,0,8,,,,,,,,8,,,55,95
20064,note_on,0,0,3,,,,,,,,3,,,62,0
20064,note_on,144,0,3,,,,,,,,3,,,66,0
20100,note_on,36,0,3,,,,,,,,3,,,64,95
20100,note_on,0,0,3,,,,,,,,3,,,67,95
20135,note_on,95,0,9,,,,,,,,10,,,43,0
20135,note_on,95,0,2,,,,,,,,2,,,55,0
20135,note_on,95,0,8,,,,,,,,8,,,55,0
20148,note_on,48,0,3,,,,,,,,3,,,67,0
20148,note_on,0,0,3,,,,,,,,3,,,64,0
20160,note_on,25,0,2,,,,,,,,2,,,54,95
20160,note_on,25,0,9,,,,,,,,10,,,42,95
20160,note_on,12,0,3,,,,,,,,3,,,66,95
20160,note_on,0,0,3,,,,,,,,3,,,69,95
20160,note_on,25,0,8,,,,,,,,8,,,54,95
20255,note_on,95,0,2,,,,,,,,2,,,54,0
20255,note_on,95,0,9,,,,,,,,10,,,42,0
20255,note_on,95,0,8,,,,,,,,8,,,54,0
20280,note_on,25,0,2,,,,,,,,2,,,50,95
20280,note_on,25,0,9,,,,,,,,10,,,38,95
20280,note_on,25,0,8,,,,,,,,8,,,50,95
20375,note_on,95,0,2,,,,,,,,2,,,50,0
20375,note_on,95,0,8,,,,,,,,8,,,50,0
20375,note_on,95,0,9,,,,,,,,10,,,38,0
20400,note_on,25,0,8,,,,,,,,8,,,54,95
20400,note_on,25,0,2,,,,,,,,2,,,54,95
20400,note_on,25,0,9,,,,,,,,10,,,42,95
20448,note_on,0,0,3,,,,,,,,3,,,66,0
20448,note_on,288,0,3,,,,,,,,3,,,69,0
20495,note_on,95,0,2,,,,,,,,2,,,54,0
20495,note_on,95,0,8,,,,,,,,8,,,54,0
20495,note_on,95,0,9,,,,,,,,10,,,42,0
20520,note_on,0,0,3,,,,,,,,3,,,71,95
20520,note_on,72,0,3,,,,,,,,3,,,67,95
20520,note_on,25,0,8,,,,,,,,8,,,57,95
20520,note_on,25,0,2,,,,,,,,2,,,57,95
20520,note_on,25,0,9,,,,,,,,10,,,45,95
20615,note_on,95,0,8,,,,,,,,8,,,57,0
20615,note_on,95,0,2,,,,,,,,2,,,57,0
20615,note_on,95,0,9,,,,,,,,10,,,45,0
20616,note_on,96,0,3,,,,,,,,3,,,71,0
20616,note_on,0,0,3,,,,,,,,3,,,67,0
20640,note_on,25,0,9,,,,,,,,10,,,50,95
20640,note_on,25,0,8,,,,,,,,8,,,62,95
20640,note_on,25,0,2,,,,,,,,2,,,62,95
20640,note_on,0,0,3,,,,,,,,3,,,69,95
20640,note_on,24,0,3,,,,,,,,3,,,66,95
20735,note_on,95,0,2,,,,,,,,2,,,62,0
20735,note_on,95,0,8,,,,,,,,8,,,62,0
20735,note_on,95,0,9,,,,,,,,10,,,50,0
20760,note_on,25,0,2,,,,,,,,2,,,50,95
20760,note_on,25,0,8,,,,,,,,8,,,50,95
20760,note_on,25,0,9,,,,,,,,10,,,38,95
20855,note_on,95,0,8,,,,,,,,8,,,50,0
20855,note_on,95,0,2,,,,,,,,2,,,50,0
20855,note_on,95,0,9,,,,,,,,10,,,38,0
20880,note_on,25,0,9,,,,,,,,10,,,42,95
20880,note_on,25,0,8,,,,,,,,8,,,54,95
20880,note_on,25,0,2,,,,,,,,2,,,54,95
20928,note_on,0,0,3,,,,,,,,3,,,66,0
20928,note_on,288,0,3,,,,,,,,3,,,69,0
20975,note_on,95,0,9,,,,,,,,10,,,42,0
20975,note_on,95,0,8,,,,,,,,8,,,54,0
20975,note_on,95,0,2,,,,,,,,2,,,54,0
21000,note_on,25,0,8,,,,,,,,8,,,57,95
21000,note_on,25,0,2,,,,,,,,2,,,57,95
21000,note_on,72,0,3,,,,,,,,3,,,67,95
21000,note_on,0,0,3,,,,,,,,3,,,71,95
21000,note_on,25,0,9,,,,,,,,10,,,45,95
21095,note_on,95,0,9,,,,,,,,10,,,45,0
21095,note_on,95,0,2,,,,,,,,2,,,57,0
21095,note_on,95,0,8,,,,,,,,8,,,57,0
21096,note_on,96,0,3,,,,,,,,3,,,71,0
21096,note_on,0,0,3,,,,,,,,3,,,67,0
21120,note_on,25,0,2,,,,,,,,2,,,62,95
21120,note_on,24,0,3,,,,,,,,3,,,66,95
21120,note_on,0,0,3,,,,,,,,3,,,69,95
21120,note_on,25,0,8,,,,,,,,8,,,62,95
21120,note_on,25,0,9,,,,,,,,10,,,50,95
21215,note_on,95,0,9,,,,,,,,10,,,50,0
21215,note_on,95,0,2,,,,,,,,2,,,62,0
21215,note_on,95,0,8,,,,,,,,8,,,62,0
21240,note_on,25,0,2,,,,,,,,2,,,50,95
21240,note_on,25,0,8,,,,,,,,8,,,50,95
21240,note_on,25,0,9,,,,,,,,10,,,38,95
21335,note_on,95,0,8,,,,,,,,8,,,50,0
21335,note_on,95,0,2,,,,,,,,2,,,50,0
21335,note_on,95,0,9,,,,,,,,10,,,38,0
21360,note_on,25,0,2,,,,,,,,2,,,54,95
21360,note_on,25,0,8,,,,,,,,8,,,54,95
21360,note_on,25,0,9,,,,,,,,10,,,42,95
21408,note_on,288,0,3,,,,,,,,3,,,69,0
21408,note_on,0,0,3,,,,,,,,3,,,66,0
21455,note_on,95,0,2,,,,,,,,2,,,54,0
21455,note_on,95,0,9,,,,,,,,10,,,42,0
21455,note_on,95,0,8,,,,,,,,8,,,54,0
21480,note_on,72,0,3,,,,,,,,3,,,62,95
21480,note_on,25,0,9,,,,,,,,10,,,43,95
21480,note_on,25,0,8,,,,,,,,8,,,55,95
21480,note_on,25,0,2,,,,,,,,2,,,55,95
21480,note_on,0,0,3,,,,,,,,3,,,67,95
21528,note_on,48,0,3,,,,,,,,3,,,67,0
21540,note_on,12,0,3,,,,,,,,3,,,66,95
21575,note_on,95,0,9,,,,,,,,10,,,43,0
21575,note_on,95,0,8,,,,,,,,8,,,55,0
21575,note_on,95,0,2,,,,,,,,2,,,55,0
21576,note_on,36,0,3,,,,,,,,3,,,62,0
21588,note_on,12,0,3,,,,,,,,3,,,66,0
21600,note_on,0,0,3,,,,,,,,3,,,64,95
21600,note_on,12,0,3,,,,,,,,3,,,57,95
21600,note_on,25,0,8,,,,,,,,8,,,57,95
21600,note_on,25,0,2,,,,,,,,2,,,57,95
21600,note_on,25,0,9,,,,,,,,10,,,45,95
21695,note_on,95,0,9,,,,,,,,10,,,45,0
21695,note_on,95,0,8,,,,,,,,8,,,57,0
21695,note_on,95,0,2,,,,,,,,2,,,57,0
21696,note_on,0,0,3,,,,,,,,3,,,57,0
21696,note_on,96,0,3,,,,,,,,3,,,64,0
21720,note_on,24,0,3,,,,,,,,3,,,62,95
21720,note_on,0,0,3,,,,,,,,3,,,66,95
21720,note_on,25,0,8,,,,,,,,8,,,50,95
21720,note_on,25,0,2,,,,,,,,2,,,62,95
21720,note_on,25,0,9,,,,,,,,10,,,38,95
21768,note_on,48,0,3,,,,,,,,3,,,66,0
21780,note_on,12,0,3,,,,,,,,3,,,67,95
21815,note_on,95,0,9,,,,,,,,10,,,38,0
21815,note_on,95,0,8,,,,,,,,8,,,50,0
21816,note_on,96,0,2,,,,,,,,2,,,62,0
21816,note_on,36,0,3,,,,,,,,3,,,62,0
21828,note_on,12,0,3,,,,,,,,3,,,67,0
21840,note_on,24,0,2,,,,,,,,2,,,61,95
21840,note_on,0,0,3,,,,,,,,3,,,64,95
21840,note_on,25,0,8,,,,,,,,8,,,57,95
21840,note_on,25,0,9,,,,,,,,10,,,45,95
21840,note_on,12,0,3,,,,,,,,3,,,57,95
21935,note_on,95,0,8,,,,,,,,8,,,57,0
21935,note_on,95,0,9,,,,,,,,10,,,45,0
21936,note_on,96,0,3,,,,,,,,3,,,57,0
21960,note_on,25,0,9,,,,,,,,10,,,33,95
21960,note_on,25,0,8,,,,,,,,8,,,45,95
21960,note_on,24,0,3,,,,,,,,3,,,57,95
21984,note_on,24,0,3,,,,,,,,3,,,64,0
21984,note_on,144,0,2,,,,,,,,2,,,61,0
22020,note_on,36,0,2,,,,,,,,2,,,62,95
22020,note_on,36,0,3,,,,,,,,3,,,62,95
22055,note_on,95,0,8,,,,,,,,8,,,45,0
22055,note_on,95,0,9,,,,,,,,10,,,33,0
22056,note_on,36,0,3,,,,,,,,3,,,57,0
22068,note_on,12,0,3,,,,,,,,3,,,62,0
22068,note_on,48,0,2,,,,,,,,2,,,62,0
22080,note_on,12,0,2,,,,,,,,2,,,62,95
22080,note_on,25,0,8,,,,,,,,8,,,50,95
22080,note_on,0,0,3,,,,,,,,3,,,62,95
22080,note_on,25,0,9,,,,,,,,10,,,38,95
22080,note_on,12,0,3,,,,,,,,3,,,54,95
22270,note_on,190,0,2,,,,,,,,2,,,62,0
22270,note_on,190,0,8,,,,,,,,8,,,50,0
22270,note_on,190,0,9,,,,,,,,10,,,38,0
22272,note_on,192,0,3,,,,,,,,3,,,62,0
22272,note_on,0,0,3,,,,,,,,3,,,54,0
22440,note_on,4010,0,7,,,,,,,,7,,,73,95
22440,note_on,4008,0,4,,,,,,,,4,,,76,95
22440,note_on,0,0,4,,,,,,,,4,,,69,95
22440,note_on,4010,0,6,,,,,,,,6,,,73,95
22440,note_on,4008,0,1,,,,,,,,1,,,73,95
22440,note_on,4010,0,5,,,,,,,,5,,,73,95
22535,note_on,95,0,1,,,,,,,,1,,,73,0
22535,note_on,95,0,6,,,,,,,,6,,,73,0
22535,note_on,95,0,7,,,,,,,,7,,,73,0
22535,note_on,95,0,4,,,,,,,,4,,,69,0
22535,note_on,95,0,5,,,,,,,,5,,,73,0
22536,note_on,1,0,4,,,,,,,,4,,,76,0
22560,note_on,25,0,6,,,,,,,,6,,,74,95
22560,note_on,25,0,1,,,,,,,,1,,,74,95
22560,note_on,25,0,7,,,,,,,,7,,,74,95
22560,note_on,0,0,4,,,,,,,,4,,,74,95
22560,note_on,25,0,5,,,,,,,,5,,,74,95
22560,note_on,24,0,4,,,,,,,,4,,,78,95
22655,note_on,95,0,7,,,,,,,,7,,,74,0
22655,note_on,95,0,4,,,,,,,,4,,,74,0
22655,note_on,95,0,5,,,,,,,,5,,,74,0
22655,note_on,95,0,1,,,,,,,,1,,,74,0
22655,note_on,95,0,6,,,,,,,,6,,,74,0
22656,note_on,1,0,4,,,,,,,,4,,,78,0
22680,note_on,24,0,4,,,,,,,,4,,,76,95
22680,note_on,25,0,5,,,,,,,,5,,,73,95
22680,note_on,25,0,6,,,,,,,,6,,,73,95
22680,note_on,25,0,1,,,,,,,,1,,,73,95
22680,note_on,25,0,7,,,,,,,,7,,,73,95
22680,note_on,0,0,4,,,,,,,,4,,,69,95
22775,note_on,95,0,5,,,,,,,,5,,,73,0
22775,note_on,95,0,6,,,,,,,,6,,,73,0
22775,note_on,95,0,1,,,,,,,,1,,,73,0
22775,note_on,95,0,4,,,,,,,,4,,,69,0
22775,note_on,95,0,7,,,,,,,,7,,,73,0
22776,note_on,1,0,4,,,,,,,,4,,,76,0
22800,note_on,24,0,4,,,,,,,,4,,,74,95
22800,note_on,0,0,4,,,,,,,,4,,,66,95
22800,note_on,25,0,6,,,,,,,,6,,,74,95
22800,note_on,25,0,5,,,,,,,,5,,,74,95
22800,note_on,25,0,1,,,,,,,,1,,,74,95
22800,note_on,25,0,7,,,,,,,,7,,,74,95
22895,note_on,95,0,5,,,,,,,,5,,,74,0
22895,note_on,95,0,7,,,,,,,,7,,,74,0
22895,note_on,95,0,6,,,,,,,,6,,,74,0
22895,note_on,95,0,1,,,,,,,,1,,,74,0
22895,note_on,95,0,4,,,,,,,,4,,,66,0
22896,note_on,1,0,4,,,,,,,,4,,,74,0
22920,note_on,25,0,7,,,,,,,,7,,,73,95
22920,note_on,25,0,1,,,,,,,,1,,,73,95
22920,note_on,24,0,4,,,,,,,,4,,,76,95
22920,note_on,25,0,5,,,,,,,,5,,,73,95
22920,note_on,0,0,4,,,,,,,,4,,,69,95
22920,note_on,25,0,6,,,,,,,,6,,,73,95
23015,note_on,95,0,6,,,,,,,,6,,,73,0
23015,note_on,95,0,7,,,,,,,,7,,,73,0
23015,note_on,95,0,1,,,,,,,,1,,,73,0
23015,note_on,95,0,5,,,,,,,,5,,,73,0
23015,note_on,95,0,4,,,,,,,,4,,,69,0
23016,note_on,1,0,4,,,,,,,,4,,,76,0
23040,note_on,24,0,4,,,,,,,,4,,,74,95
23040,note_on,0,0,4,,,,,,,,4,,,78,95
23040,note_on,25,0,6,,,,,,,,6,,,74,95
23040,note_on,25,0,1,,,,,,,,1,,,74,95
23040,note_on,25,0,5,,,,,,,,5,,,74,95
23040,note_on,25,0,7,,,,,,,,7,,,74,95
23135,note_on,95,0,6,,,,,,,,6,,,74,0
23135,note_on,95,0,7,,,,,,,,7,,,74,0
23135,note_on,95,0,1,,,,,,,,1,,,74,0
23135,note_on,95,0,5,,,,,,,,5,,,74,0
23136,note_on,96,0,4,,,,,,,,4,,,78,0
23136,note_on,0,0,4,,,,,,,,4,,,74,0
23160,note_on,24,0,4,,,,,,,,4,,,66,95
23160,note_on,0,0,4,,,,,,,,4,,,76,95
23160,note_on,25,0,6,,,,,,,,6,,,62,95
23160,note_on,25,0,7,,,,,,,,7,,,62,95
23160,note_on,25,0,5,,,,,,,,5,,,62,95
23160,note_on,25,0,1,,,,,,,,1,,,62,95
23208,note_on,48,0,4,,,,,,,,4,,,76,0
23220,note_on,12,0,4,,,,,,,,4,,,74,95
23255,note_on,95,0,6,,,,,,,,6,,,62,0
23255,note_on,95,0,5,,,,,,,,5,,,62,0
23255,note_on,95,0,7,,,,,,,,7,,,62,0
23255,note_on,95,0,1,,,,,,,,1,,,62,0
23256,note_on,36,0,4,,,,,,,,4,,,66,0
23268,note_on,12,0,4,,,,,,,,4,,,74,0
23280,note_on,12,0,4,,,,,,,,4,,,69,95
23280,note_on,25,0,7,,,,,,,,7,,,69,95
23280,note_on,0,0,4,,,,,,,,4,,,76,95
23280,note_on,25,0,6,,,,,,,,6,,,69,95
23280,note_on,25,0,1,,,,,,,,1,,,69,95
23280,note_on,25,0,5,,,,,,,,5,,,69,95
23400,note_on,0,0,3,,,,,,,,3,,,64,95
23400,note_on,1130,0,2,,,,,,,,2,,,61,95
23400,note_on,1130,0,8,,,,,,,,8,,,61,95
23400,note_on,1128,0,3,,,,,,,,3,,,57,95
23400,note_on,1130,0,9,,,,,,,,10,,,49,95
23470,note_on,190,0,5,,,,,,,,5,,,69,0
23470,note_on,190,0,7,,,,,,,,7,,,69,0
23470,note_on,190,0,1,,,,,,,,1,,,69,0
23470,note_on,190,0,6,,,,,,,,6,,,69,0
23472,note_on,0,0,4,,,,,,,,4,,,69,0
23472,note_on,192,0,4,,,,,,,,4,,,76,0
23495,note_on,95,0,9,,,,,,,,10,,,49,0
23495,note_on,95,0,2,,,,,,,,2,,,61,0
23495,note_on,95,0,8,,,,,,,,8,,,61,0
23496,note_on,0,0,3,,,,,,,,3,,,57,0
23496,note_on,96,0,3,,,,,,,,3,,,64,0
23520,note_on,25,0,8,,,,,,,,8,,,62,95
23520,note_on,0,0,3,,,,,,,,3,,,66,95
23520,note_on,24,0,3,,,,,,,,3,,,62,95
23520,note_on,25,0,2,,,,,,,,2,,,62,95
23520,note_on,25,0,9,,,,,,,,10,,,50,95
23615,note_on,95,0,8,,,,,,,,8,,,62,0
23615,note_on,95,0,9,,,,,,,,10,,,50,0
23615,note_on,95,0,2,,,,,,,,2,,,62,0
23616,note_on,0,0,3,,,,,,,,3,,,62,0
23616,note_on,96,0,3,,,,,,,,3,,,66,0
23640,note_on,0,0,3,,,,,,,,3,,,64,95
23640,note_on,24,0,3,,,,,,,,3,,,57,95
23640,note_on,25,0,9,,,,,,,,10,,,49,95
23640,note_on,25,0,2,,,,,,,,2,,,61,95
23640,note_on,25,0,8,,,,,,,,8,,,61,95
23735,note_on,95,0,9,,,,,,,,10,,,49,0
23735,note_on,95,0,2,,,,,,,,2,,,61,0
23735,note_on,95,0,8,,,,,,,,8,,,61,0
23736,note_on,0,0,3,,,,,,,,3,,,57,0
23736,note_on,96,0,3,,,,,,,,3,,,64,0
23760,note_on,25,0,9,,,,,,,,10,,,50,95
23760,note_on,25,0,8,,,,,,,,8,,,62,95
23760,note_on,25,0,2,,,,,,,,2,,,62,95
23760,note_on,24,0,3,,,,,,,,3,,,54,95
23760,note_on,0,0,3,,,,,,,,3,,,62,95
23855,note_on,95,0,2,,,,,,,,2,,,62,0
23855,note_on,95,0,8,,,,,,,,8,,,62,0
23855,note_on,95,0,9,,,,,,,,10,,,50,0
23856,note_on,0,0,3,,,,,,,,3,,,54,0
23856,note_on,96,0,3,,,,,,,,3,,,62,0
23880,note_on,25,0,8,,,,,,,,8,,,61,95
23880,note_on,0,0,3,,,,,,,,3,,,64,95
23880,note_on,24,0,3,,,,,,,,3,,,57,95
23880,note_on,25,0,9,,,,,,,,10,,,49,95
23880,note_on,25,0,2,,,,,,,,2,,,61,95
23975,note_on,95,0,9,,,,,,,,10,,,49,0
23975,note_on,95,0,2,,,,,,,,2,,,61,0
23975,note_on,95,0,8,,,,,,,,8,,,61,0
23976,note_on,96,0,3,,,,,,,,3,,,64,0
23976,note_on,0,0,3,,,,,,,,3,,,57,0
24000,note_on,25,0,8,,,,,,,,8,,,62,95
24000,note_on,25,0,9,,,,,,,,10,,,50,95
24000,note_on,0,0,3,,,,,,,,3,,,62,95
24000,note_on,24,0,3,,,,,,,,3,,,66,95
24000,note_on,25,0,2,,,,,,,,2,,,62,95
24095,note_on,95,0,2,,,,,,,,2,,,62,0
24095,note_on,95,0,9,,,,,,,,10,,,50,0
24095,note_on,95,0,8,,,,,,,,8,,,62,0
24096,note_on,0,0,3,,,,,,,,3,,,66,0
24096,note_on,96,0,3,,,,,,,,3,,,62,0
24120,note_on,24,0,3,,,,,,,,3,,,64,95
24120,note_on,0,0,3,,,,,,,,3,,,54,95
24120,note_on,25,0,9,,,,,,,,10,,,38,95
24120,note_on,25,0,2,,,,,,,,2,,,50,95
24120,note_on,25,0,8,,,,,,,,8,,,50,95
24168,note_on,48,0,3,,,,,,,,3,,,64,0
24180,note_on,12,0,3,,,,,,,,3,,,62,95
24215,note_on,95,0,9,,,,,,,,10,,,38,0
24215,note_on,95,0,2,,,,,,,,2,,,50,0
24215,note_on,95,0,8,,,,,,,,8,,,50,0
24216,note_on,36,0,3,,,,,,,,3,,,54,0
24228,note_on,12,0,3,,,,,,,,3,,,62,0
24240,note_on,25,0,8,,,,,,,,8,,,57,95
24240,note_on,25,0,2,,,,,,,,2,,,57,95
24240,note_on,12,0,3,,,,,,,,3,,,64,95
24240,note_on,0,0,3,,,,,,,,3,,,57,95
24240,note_on,25,0,9,,,,,,,,10,,,45,95
24360,note_on,890,0,1,,,,,,,,1,,,73,95
24360,note_on,890,0,5,,,,,,,,5,,,73,95
24360,note_on,890,0,7,,,,,,,,7,,,73,95
24360,note_on,0,0,4,,,,,,,,4,,,81,95
24360,note_on,890,0,6,,,,,,,,6,,,73,95
24360,note_on,888,0,4,,,,,,,,4,,,76,95
24430,note_on,190,0,9,,,,,,,,10,,,45,0
24430,note_on,190,0,2,,,,,,,,2,,,57,0
24430,note_on,190,0,8,,,,,,,,8,,,57,0
24432,note_on,0,0,3,,,,,,,,3,,,64,0
24432,note_on,192,0,3,,,,,,,,3,,,57,0
24455,note_on,95,0,7,,,,,,,,7,,,73,0
24455,note_on,95,0,1,,,,,,,,1,,,73,0
24455,note_on,95,0,5,,,,,,,,5,,,73,0
24455,note_on,95,0,6,,,,,,,,6,,,73,0
24456,note_on,96,0,4,,,,,,,,4,,,81,0
24456,note_on,0,0,4,,,,,,,,4,,,76,0
24480,note_on,25,0,1,,,,,,,,1,,,74,95
24480,note_on,25,0,5,,,,,,,,5,,,74,95
24480,note_on,24,0,4,,,,,,,,4,,,78,95
24480,note_on,25,0,6,,,,,,,,6,,,74,95
24480,note_on,25,0,7,,,,,,,,7,,,74,95
24480,note_on,0,0,4,,,,,,,,4,,,81,95
24575,note_on,95,0,1,,,,,,,,1,,,74,0
24575,note_on,95,0,5,,,,,,,,5,,,74,0
24575,note_on,95,0,7,,,,,,,,7,,,74,0
24575,note_on,95,0,6,,,,,,,,6,,,74,0
24576,note_on,96,0,4,,,,,,,,4,,,78,0
24600,note_on,24,0,4,,,,,,,,4,,,76,95
24600,note_on,25,0,5,,,,,,,,5,,,73,95
24600,note_on,25,0,1,,,,,,,,1,,,73,95
24600,note_on,25,0,6,,,,,,,,6,,,73,95
24600,note_on,25,0,7,,,,,,,,7,,,73,95
24647,note_on,47,0,6,,,,,,,,6,,,73,0
24647,note_on,47,0,5,,,,,,,,5,,,73,0
24647,note_on,47,0,1,,,,,,,,1,,,73,0
24647,note_on,47,0,7,,,,,,,,7,,,73,0
24648,note_on,48,0,4,,,,,,,,4,,,76,0
24660,note_on,13,0,6,,,,,,,,6,,,71,95
24660,note_on,13,0,1,,,,,,,,1,,,71,95
24660,note_on,13,0,5,,,,,,,,5,,,71,95
24660,note_on,12,0,4,,,,,,,,4,,,74,95
24660,note_on,13,0,7,,,,,,,,7,,,71,95
24707,note_on,47,0,1,,,,,,,,1,,,71,0
24707,note_on,47,0,7,,,,,,,,7,,,71,0
24707,note_on,47,0,5,,,,,,,,5,,,71,0
24707,note_on,47,0,6,,,,,,,,6,,,71,0
24708,note_on,48,0,4,,,,,,,,4,,,74,0
24720,note_on,13,0,6,,,,,,,,6,,,73,95
24720,note_on,13,0,7,,,,,,,,7,,,73,95
24720,note_on,12,0,4,,,,,,,,4,,,76,95
24720,note_on,13,0,1,,,,,,,,1,,,73,95
24720,note_on,13,0,5,,,,,,,,5,,,73,95
24815,note_on,95,0,1,,,,,,,,1,,,73,0
24815,note_on,95,0,7,,,,,,,,7,,,73,0
24815,note_on,95,0,5,,,,,,,,5,,,73,0
24815,note_on,95,0,6,,,,,,,,6,,,73,0
24816,note_on,96,0,4,,,,,,,,4,,,76,0
24840,note_on,25,0,5,,,,,,,,5,,,69,95
24840,note_on,25,0,6,,,,,,,,6,,,69,95
24840,note_on,25,0,1,,,,,,,,1,,,69,95
24840,note_on,25,0,7,,,,,,,,7,,,69,95
24840,note_on,24,0,4,,,,,,,,4,,,69,95
24935,note_on,95,0,6,,,,,,,,6,,,69,0
24935,note_on,95,0,5,,,,,,,,5,,,69,0
24935,note_on,95,0,7,,,,,,,,7,,,69,0
24935,note_on,95,0,1,,,,,,,,1,,,69,0
24936,note_on,96,0,4,,,,,,,,4,,,69,0
24960,note_on,25,0,1,,,,,,,,1,,,74,95
24960,note_on,25,0,7,,,,,,,,7,,,74,95
24960,note_on,25,0,6,,,,,,,,6,,,74,95
24960,note_on,25,0,5,,,,,,,,5,,,74,95
24960,note_on,24,0,4,,,,,,,,4,,,78,95
25055,note_on,95,0,5,,,,,,,,5,,,74,0
25055,note_on,95,0,6,,,,,,,,6,,,74,0
25055,note_on,95,0,1,,,,,,,,1,,,74,0
25055,note_on,95,0,7,,,,,,,,7,,,74,0
25056,note_on,96,0,4,,,,,,,,4,,,78,0
25080,note_on,25,0,1,,,,,,,,1,,,73,95
25080,note_on,24,0,4,,,,,,,,4,,,76,95
25080,note_on,25,0,7,,,,,,,,7,,,73,95
25080,note_on,25,0,6,,,,,,,,6,,,73,95
25080,note_on,25,0,5,,,,,,,,5,,,73,95
25127,note_on,47,0,6,,,,,,,,6,,,73,0
25127,note_on,47,0,7,,,,,,,,7,,,73,0
25127,note_on,47,0,5,,,,,,,,5,,,73,0
25127,note_on,47,0,1,,,,,,,,1,,,73,0
25128,note_on,48,0,4,,,,,,,,4,,,76,0
25140,note_on,12,0,4,,,,,,,,4,,,74,95
25140,note_on,13,0,7,,,,,,,,7,,,71,95
25140,note_on,13,0,1,,,,,,,,1,,,71,95
25140,note_on,13,0,6,,,,,,,,6,,,71,95
25140,note_on,13,0,5,,,,,,,,5,,,71,95
25187,note_on,47,0,7,,,,,,,,7,,,71,0
25187,note_on,47,0,6,,,,,,,,6,,,71,0
25187,note_on,47,0,1,,,,,,,,1,,,71,0
25187,note_on,47,0,5,,,,,,,,5,,,71,0
25188,note_on,48,0,4,,,,,,,,4,,,74,0
25200,note_on,13,0,5,,,,,,,,5,,,73,95
25200,note_on,13,0,7,,,,,,,,7,,,73,95
25200,note_on,12,0,4,,,,,,,,4,,,76,95
25200,note_on,13,0,1,,,,,,,,1,,,73,95
25200,note_on,13,0,6,,,,,,,,6,,,73,95
25295,note_on,95,0,6,,,,,,,,6,,,73,0
25295,note_on,95,0,1,,,,,,,,1,,,73,0
25295,note_on,95,0,7,,,,,,,,7,,,73,0
25295,note_on,95,0,5,,,,,,,,5,,,73,0
25296,note_on,96,0,4,,,,,,,,4,,,76,0
25320,note_on,25,0,1,,,,,,,,1,,,69,95
25320,note_on,25,0,6,,,,,,,,6,,,69,95
25320,note_on,24,0,4,,,,,,,,4,,,69,95
25320,note_on,25,0,7,,,,,,,,7,,,69,95
25320,note_on,25,0,5,,,,,,,,5,,,69,95
25415,note_on,95,0,7,,,,,,,,7,,,69,0
25415,note_on,95,0,5,,,,,,,,5,,,69,0
25415,note_on,95,0,1,,,,,,,,1,,,69,0
25415,note_on,95,0,6,,,,,,,,6,,,69,0
25416,note_on,96,0,4,,,,,,,,4,,,69,0
25440,note_on,25,0,7,,,,,,,,7,,,74,95
25440,note_on,25,0,6,,,,,,,,6,,,74,95
25440,note_on,25,0,1,,,,,,,,1,,,74,95
25440,note_on,25,0,5,,,,,,,,5,,,74,95
25440,note_on,24,0,4,,,,,,,,4,,,78,95
25535,note_on,95,0,1,,,,,,,,1,,,74,0
25535,note_on,95,0,5,,,,,,,,5,,,74,0
25535,note_on,95,0,6,,,,,,,,6,,,74,0
25535,note_on,95,0,7,,,,,,,,7,,,74,0
25536,note_on,96,0,4,,,,,,,,4,,,81,0
25560,note_on,25,0,6,,,,,,,,6,,,71,95
25560,note_on,25,0,7,,,,,,,,7,,,71,95
25560,note_on,25,0,5,,,,,,,,5,,,71,95
25560,note_on,25,0,1,,,,,,,,1,,,71,95
25560,note_on,24,0,4,,,,,,,,4,,,83,95
25584,note_on,24,0,4,,,,,,,,4,,,78,0
25620,note_on,36,0,4,,,,,,,,4,,,78,95
25655,note_on,95,0,6,,,,,,,,6,,,71,0
25655,note_on,95,0,5,,,,,,,,5,,,71,0
25655,note_on,95,0,7,,,,,,,,7,,,71,0
25655,note_on,95,0,1,,,,,,,,1,,,71,0
25656,note_on,36,0,4,,,,,,,,4,,,83,0
25668,note_on,12,0,4,,,,,,,,4,,,78,0
25680,note_on,25,0,7,,,,,,,,7,,,76,95
25680,note_on,25,0,6,,,,,,,,6,,,76,95
25680,note_on,25,0,1,,,,,,,,1,,,76,95
25680,note_on,25,0,5,,,,,,,,5,,,76,95
25680,note_on,12,0,4,,,,,,,,4,,,80,95
25680,note_on,0,0,4,,,,,,,,4,,,76,95
25775,note_on,95,0,7,,,,,,,,7,,,76,0
25775,note_on,95,0,6,,,,,,,,6,,,76,0
25775,note_on,95,0,5,,,,,,,,5,,,76,0
25775,note_on,95,0,1,,,,,,,,1,,,76,0
25800,note_on,25,0,6,,,,,,,,6,,,64,95
25800,note_on,25,0,1,,,,,,,,1,,,64,95
25800,note_on,25,0,5,,,,,,,,5,,,64,95
25800,note_on,25,0,7,,,,,,,,7,,,64,95
25824,note_on,144,0,4,,,,,,,,4,,,76,0
25824,note_on,0,0,4,,,,,,,,4,,,80,0
25860,note_on,36,0,4,,,,,,,,4,,,81,95
25860,note_on,0,0,4,,,,,,,,4,,,76,95
25895,note_on,95,0,5,,,,,,,,5,,,64,0
25895,note_on,95,0,7,,,,,,,,7,,,64,0
25895,note_on,95,0,6,,,,,,,,6,,,64,0
25895,note_on,95,0,1,,,,,,,,1,,,64,0
25908,note_on,48,0,4,,,,,,,,4,,,76,0
25908,note_on,0,0,4,,,,,,,,4,,,81,0
25920,note_on,25,0,5,,,,,,,,5,,,69,95
25920,note_on,12,0,4,,,,,,,,4,,,76,95
25920,note_on,0,0,4,,,,,,,,4,,,81,95
25920,note_on,25,0,1,,,,,,,,1,,,69,95
25920,note_on,25,0,6,,,,,,,,6,,,69,95
25920,note_on,25,0,7,,,,,,,,7,,,69,95
26015,note_on,95,0,6,,,,,,,,6,,,69,0
26015,note_on,95,0,5,,,,,,,,5,,,69,0
26015,note_on,95,0,7,,,,,,,,7,,,69,0
26040,note_on,25,0,6,,,,,,,,6,,,64,95
26040,note_on,25,0,5,,,,,,,,5,,,64,95
26040,note_on,25,0,7,,,,,,,,7,,,64,95
26112,note_on,192,0,4,,,,,,,,4,,,81,0
26112,note_on,192,0,1,,,,,,,,1,,,69,0
26112,note_on,0,0,4,,,,,,,,4,,,76,0
26135,note_on,95,0,7,,,,,,,,7,,,64,0
26135,note_on,95,0,5,,,,,,,,5,,,64,0
26135,note_on,95,0,6,,,,,,,,6,,,64,0
26160,note_on,25,0,7,,,,,,,,7,,,61,95
26160,note_on,25,0,5,,,,,,,,5,,,61,95
26160,note_on,25,0,6,,,,,,,,6,,,61,95
26255,note_on,95,0,7,,,,,,,,7,,,61,0
26255,note_on,95,0,5,,,,,,,,5,,,61,0
26255,note_on,95,0,6,,,,,,,,6,,,61,0
26280,note_on,1848,0,3,,,,,,,,3,,,64,95
26280,note_on,0,0,3,,,,,,,,3,,,69,95
26280,note_on,1850,0,9,,,,,,,,10,,,49,95
26280,note_on,1850,0,2,,,,,,,,2,,,61,95
26280,note_on,25,0,6,,,,,,,,6,,,57,95
26280,note_on,25,0,5,,,,,,,,5,,,57,95
26280,note_on,1850,0,8,,,,,,,,8,,,61,95
26280,note_on,25,0,7,,,,,,,,7,,,57,95
26375,note_on,95,0,6,,,,,,,,6,,,57,0
26375,note_on,95,0,5,,,,,,,,5,,,57,0
26375,note_on,95,0,7,,,,,,,,7,,,57,0
26375,note_on,95,0,9,,,,,,,,10,,,49,0
26375,note_on,95,0,8,,,,,,,,8,,,61,0
26375,note_on,95,0,2,,,,,,,,2,,,61,0
26376,note_on,96,0,3,,,,,,,,3,,,69,0
26376,note_on,0,0,3,,,,,,,,3,,,64,0
26400,note_on,25,0,2,,,,,,,,2,,,62,95
26400,note_on,24,0,3,,,,,,,,3,,,66,95
26400,note_on,0,0,3,,,,,,,,3,,,69,95
26400,note_on,25,0,9,,,,,,,,10,,,50,95
26400,note_on,25,0,8,,,,,,,,8,,,62,95
26495,note_on,95,0,8,,,,,,,,8,,,62,0
26495,note_on,95,0,2,,,,,,,,2,,,62,0
26495,note_on,95,0,9,,,,,,,,10,,,50,0
26496,note_on,96,0,3,,,,,,,,3,,,66,0
26520,note_on,25,0,9,,,,,,,,10,,,49,95
26520,note_on,25,0,8,,,,,,,,8,,,61,95
26520,note_on,24,0,3,,,,,,,,3,,,64,95
26520,note_on,25,0,2,,,,,,,,2,,,61,95
26567,note_on,47,0,2,,,,,,,,2,,,61,0
26567,note_on,47,0,8,,,,,,,,8,,,61,0
26567,note_on,47,0,9,,,,,,,,10,,,49,0
26568,note_on,48,0,3,,,,,,,,3,,,64,0
26580,note_on,12,0,3,,,,,,,,3,,,62,95
26580,note_on,13,0,8,,,,,,,,8,,,59,95
26580,note_on,13,0,2,,,,,,,,2,,,59,95
26580,note_on,13,0,9,,,,,,,,10,,,47,95
26627,note_on,47,0,8,,,,,,,,8,,,59,0
26627,note_on,47,0,9,,,,,,,,10,,,47,0
26627,note_on,47,0,2,,,,,,,,2,,,59,0
26628,note_on,48,0,3,,,,,,,,3,,,62,0
26640,note_on,13,0,8,,,,,,,,8,,,61,95
26640,note_on,12,0,3,,,,,,,,3,,,64,95
26640,note_on,13,0,9,,,,,,,,10,,,49,95
26640,note_on,13,0,2,,,,,,,,2,,,61,95
26735,note_on,95,0,8,,,,,,,,8,,,61,0
26735,note_on,95,0,2,,,,,,,,2,,,61,0
26735,note_on,95,0,9,,,,,,,,10,,,49,0
26736,note_on,96,0,3,,,,,,,,3,,,64,0
26760,note_on,25,0,2,,,,,,,,2,,,57,95
26760,note_on,24,0,3,,,,,,,,3,,,57,95
26760,note_on,25,0,8,,,,,,,,8,,,57,95
26760,note_on,25,0,9,,,,,,,,10,,,45,95
26855,note_on,95,0,8,,,,,,,,8,,,57,0
26855,note_on,95,0,9,,,,,,,,10,,,45,0
26855,note_on,95,0,2,,,,,,,,2,,,57,0
26856,note_on,96,0,3,,,,,,,,3,,,57,0
26880,note_on,25,0,8,,,,,,,,8,,,62,95
26880,note_on,25,0,2,,,,,,,,2,,,62,95
26880,note_on,25,0,9,,,,,,,,10,,,50,95
26880,note_on,24,0,3,,,,,,,,3,,,66,95
26975,note_on,95,0,9,,,,,,,,10,,,50,0
26975,note_on,95,0,8,,,,,,,,8,,,62,0
26975,note_on,95,0,2,,,,,,,,2,,,62,0
26976,note_on,96,0,3,,,,,,,,3,,,66,0
27000,note_on,25,0,8,,,,,,,,8,,,61,95
27000,note_on,25,0,9,,,,,,,,10,,,49,95
27000,note_on,24,0,3,,,,,,,,3,,,64,95
27000,note_on,25,0,2,,,,,,,,2,,,61,95
27047,note_on,47,0,9,,,,,,,,10,,,49,0
27047,note_on,47,0,8,,,,,,,,8,,,61,0
27047,note_on,47,0,2,,,,,,,,2,,,61,0
27048,note_on,48,0,3,,,,,,,,3,,,64,0
27060,note_on,13,0,2,,,,,,,,2,,,59,95
27060,note_on,12,0,3,,,,,,,,3,,,62,95
27060,note_on,13,0,8,,,,,,,,8,,,59,95
27060,note_on,13,0,9,,,,,,,,10,,,47,95
27107,note_on,47,0,8,,,,,,,,8,,,59,0
27107,note_on,47,0,9,,,,,,,,10,,,47,0
27107,note_on,47,0,2,,,,,,,,2,,,59,0
27108,note_on,48,0,3,,,,,,,,3,,,62,0
27120,note_on,12,0,3,,,,,,,,3,,,64,95
27120,note_on,13,0,9,,,,,,,,10,,,49,95
27120,note_on,13,0,8,,,,,,,,8,,,61,95
27120,note_on,13,0,2,,,,,,,,2,,,61,95
27215,note_on,95,0,2,,,,,,,,2,,,61,0
27215,note_on,95,0,8,,,,,,,,8,,,61,0
27215,note_on,95,0,9,,,,,,,,10,,,49,0
27216,note_on,96,0,3,,,,,,,,3,,,64,0
27240,note_on,25,0,2,,,,,,,,2,,,57,95
27240,note_on,25,0,9,,,,,,,,10,,,45,95
27240,note_on,24,0,3,,,,,,,,3,,,57,95
27240,note_on,25,0,8,,,,,,,,8,,,57,95
27335,note_on,95,0,2,,,,,,,,2,,,57,0
27335,note_on,95,0,9,,,,,,,,10,,,45,0
27335,note_on,95,0,8,,,,,,,,8,,,57,0
27336,note_on,96,0,3,,,,,,,,3,,,57,0
27360,note_on,24,0,3,,,,,,,,3,,,66,95
27360,note_on,25,0,8,,,,,,,,8,,,62,95
27360,note_on,25,0,2,,,,,,,,2,,,62,95
27360,note_on,25,0,9,,,,,,,,10,,,50,95
27455,note_on,95,0,8,,,,,,,,8,,,62,0
27455,note_on,95,0,2,,,,,,,,2,,,62,0
27455,note_on,95,0,9,,,,,,,,10,,,50,0
27456,note_on,96,0,3,,,,,,,,3,,,69,0
27480,note_on,25,0,2,,,,,,,,2,,,59,95
27480,note_on,25,0,9,,,,,,,,10,,,47,95
27480,note_on,24,0,3,,,,,,,,3,,,71,95
27480,note_on,25,0,8,,,,,,,,8,,,59,95
27504,note_on,24,0,3,,,,,,,,3,,,66,0
27540,note_on,36,0,3,,,,,,,,3,,,66,95
27575,note_on,95,0,8,,,,,,,,8,,,59,0
27575,note_on,95,0,2,,,,,,,,2,,,59,0
27575,note_on,95,0,9,,,,,,,,10,,,47,0
27576,note_on,36,0,3,,,,,,,,3,,,71,0
27588,note_on,12,0,3,,,,,,,,3,,,66,0
27600,note_on,25,0,9,,,,,,,,10,,,52,95
27600,note_on,25,0,8,,,,,,,,8,,,64,95
27600,note_on,0,0,3,,,,,,,,3,,,68,95
27600,note_on,12,0,3,,,,,,,,3,,,64,95
27600,note_on,25,0,2,,,,,,,,2,,,64,95
27695,note_on,95,0,2,,,,,,,,2,,,64,0
27695,note_on,95,0,9,,,,,,,,10,,,52,0
27695,note_on,95,0,8,,,,,,,,8,,,64,0
27720,note_on,25,0,8,,,,,,,,8,,,52,95
27720,note_on,25,0,2,,,,,,,,2,,,52,95
27720,note_on,25,0,9,,,,,,,,10,,,40,95
27744,note_on,144,0,3,,,,,,,,3,,,68,0
27744,note_on,0,0,3,,,,,,,,3,,,64,0
27780,note_on,36,0,3,,,,,,,,3,,,64,95
27780,note_on,0,0,3,,,,,,,,3,,,69,95
27815,note_on,95,0,9,,,,,,,,10,,,40,0
27815,note_on,95,0,2,,,,,,,,2,,,52,0
27815,note_on,95,0,8,,,,,,,,8,,,52,0
27828,note_on,48,0,3,,,,,,,,3,,,69,0
27828,note_on,0,0,3,,,,,,,,3,,,64,0
27840,note_on,25,0,9,,,,,,,,10,,,45,95
27840,note_on,0,0,3,,,,,,,,3,,,69,95
27840,note_on,25,0,8,,,,,,,,8,,,57,95
27840,note_on,12,0,3,,,,,,,,3,,,64,95
27840,note_on,25,0,2,,,,,,,,2,,,57,95
27935,note_on,95,0,9,,,,,,,,10,,,45,0
27935,note_on,95,0,8,,,,,,,,8,,,57,0
27935,note_on,95,0,2,,,,,,,,2,,,57,0
27960,note_on,25,0,9,,,,,,,,10,,,40,95
27960,note_on,25,0,8,,,,,,,,8,,,52,95
27960,note_on,25,0,2,,,,,,,,2,,,52,95
28032,note_on,192,0,3,,,,,,,,3,,,69,0
28032,note_on,0,0,3,,,,,,,,3,,,64,0
28055,note_on,95,0,9,,,,,,,,10,,,40,0
28055,note_on,95,0,8,,,,,,,,8,,,52,0
28055,note_on,95,0,2,,,,,,,,2,,,52,0
28080,note_on,25,0,2,,,,,,,,2,,,49,95
28080,note_on,25,0,9,,,,,,,,10,,,37,95
28080,note_on,25,0,8,,,,,,,,8,,,49,95
28175,note_on,95,0,2,,,,,,,,2,,,49,0
28175,note_on,95,0,9,,,,,,,,10,,,37,0
28175,note_on,95,0,8,,,,,,,,8,,,49,0
28200,note_on,1825,0,6,,,,,,,,6,,,69,95
28200,note_on,1825,0,7,,,,,,,,7,,,69,95
28200,note_on,25,0,2,,,,,,,,2,,,45,95
28200,note_on,25,0,9,,,,,,,,10,,,33,95
28200,note_on,2088,0,1,,,,,,,,1,,,69,95
28200,note_on,2088,0,4,,,,,,,,4,,,76,95
28200,note_on,0,0,4,,,,,,,,4,,,81,95
28200,note_on,25,0,8,,,,,,,,8,,,45,95
28200,note_on,1825,0,5,,,,,,,,5,,,69,95
28295,note_on,95,0,7,,,,,,,,7,,,69,0
28295,note_on,95,0,1,,,,,,,,1,,,69,0
28295,note_on,95,0,5,,,,,,,,5,,,69,0
28295,note_on,95,0,9,,,,,,,,10,,,33,0
28295,note_on,95,0,6,,,,,,,,6,,,69,0
28295,note_on,95,0,2,,,,,,,,2,,,45,0
28295,note_on,95,0,8,,,,,,,,8,,,45,0
28296,note_on,0,0,4,,,,,,,,4,,,76,0
28296,note_on,96,0,4,,,,,,,,4,,,81,0
28320,note_on,25,0,6,,,,,,,,6,,,73,95
28320,note_on,25,0,1,,,,,,,,1,,,73,95
28320,note_on,24,0,4,,,,,,,,4,,,69,95
28320,note_on,25,0,5,,,,,,,,5,,,73,95
28320,note_on,25,0,7,,,,,,,,7,,,73,95
28320,note_on,0,0,4,,,,,,,,4,,,76,95
28368,note_on,48,0,4,,,,,,,,4,,,76,0
28380,note_on,12,0,4,,,,,,,,4,,,78,95
28415,note_on,95,0,7,,,,,,,,7,,,73,0
28415,note_on,95,0,1,,,,,,,,1,,,73,0
28415,note_on,95,0,6,,,,,,,,6,,,73,0
28415,note_on,95,0,5,,,,,,,,5,,,73,0
28416,note_on,36,0,4,,,,,,,,4,,,69,0
28428,note_on,12,0,4,,,,,,,,4,,,78,0
28440,note_on,12,0,4,,,,,,,,4,,,69,95
28440,note_on,0,0,4,,,,,,,,4,,,76,95
28440,note_on,25,0,6,,,,,,,,6,,,69,95
28440,note_on,25,0,1,,,,,,,,1,,,69,95
28440,note_on,25,0,7,,,,,,,,7,,,69,95
28440,note_on,25,0,5,,,,,,,,5,,,69,95
28488,note_on,48,0,4,,,,,,,,4,,,76,0
28500,note_on,12,0,4,,,,,,,,4,,,78,95
28535,note_on,95,0,7,,,,,,,,7,,,69,0
28535,note_on,95,0,5,,,,,,,,5,,,69,0
28535,note_on,95,0,1,,,,,,,,1,,,69,0
28535,note_on,95,0,6,,,,,,,,6,,,69,0
28536,note_on,36,0,4,,,,,,,,4,,,69,0
28548,note_on,12,0,4,,,,,,,,4,,,78,0
28560,note_on,25,0,1,,,,,,,,1,,,67,95
28560,note_on,25,0,6,,,,,,,,6,,,67,95
28560,note_on,25,0,5,,,,,,,,5,,,67,95
28560,note_on,0,0,4,,,,,,,,4,,,76,95
28560,note_on,12,0,4,,,,,,,,4,,,69,95
28560,note_on,25,0,7,,,,,,,,7,,,67,95
28608,note_on,48,0,4,,,,,,,,4,,,76,0
28620,note_on,12,0,4,,,,,,,,4,,,78,95
28655,note_on,95,0,7,,,,,,,,7,,,67,0
28655,note_on,95,0,1,,,,,,,,1,,,67,0
28655,note_on,95,0,6,,,,,,,,6,,,67,0
28655,note_on,95,0,5,,,,,,,,5,,,67,0
28656,note_on,36,0,4,,,,,,,,4,,,69,0
28668,note_on,12,0,4,,,,,,,,4,,,78,0
28680,note_on,25,0,1,,,,,,,,1,,,66,95
28680,note_on,25,0,7,,,,,,,,7,,,66,95
28680,note_on,12,0,4,,,,,,,,4,,,74,95
28680,note_on,0,0,4,,,,,,,,4,,,76,95
28680,note_on,25,0,6,,,,,,,,6,,,66,95
28680,note_on,25,0,5,,,,,,,,5,,,66,95
28728,note_on,48,0,4,,,,,,,,4,,,76,0
28740,note_on,12,0,4,,,,,,,,4,,,78,95
28775,note_on,95,0,1,,,,,,,,1,,,66,0
28775,note_on,95,0,5,,,,,,,,5,,,66,0
28775,note_on,95,0,7,,,,,,,,7,,,66,0
28775,note_on,95,0,6,,,,,,,,6,,,66,0
28776,note_on,36,0,4,,,,,,,,4,,,74,0
28788,note_on,12,0,4,,,,,,,,4,,,78,0
28800,note_on,25,0,7,,,,,,,,7,,,64,95
28800,note_on,25,0,1,,,,,,,,1,,,64,95
28800,note_on,25,0,6,,,,,,,,6,,,64,95
28800,note_on,12,0,4,,,,,,,,4,,,76,95
28800,note_on,0,0,4,,,,,,,,4,,,79,95
28800,note_on,25,0,5,,,,,,,,5,,,64,95
28848,note_on,0,0,4,,,,,,,,4,,,76,0
28848,note_on,48,0,4,,,,,,,,4,,,79,0
28860,note_on,0,0,4,,,,,,,,4,,,81,95
28860,note_on,12,0,4,,,,,,,,4,,,78,95
28895,note_on,95,0,7,,,,,,,,7,,,64,0
28895,note_on,95,0,5,,,,,,,,5,,,64,0
28895,note_on,95,0,1,,,,,,,,1,,,64,0
28895,note_on,95,0,6,,,,,,,,6,,,64,0
28908,note_on,0,0,4,,,,,,,,4,,,78,0
28908,note_on,48,0,4,,,,,,,,4,,,81,0
28920,note_on,25,0,6,,,,,,,,6,,,66,95
28920,note_on,12,0,4,,,,,,,,4,,,76,95
28920,note_on,25,0,5,,,,,,,,5,,,66,95
28920,note_on,0,0,4,,,,,,,,4,,,79,95
28920,note_on,25,0,7,,,,,,,,7,,,66,95
28920,note_on,25,0,1,,,,,,,,1,,,66,95
28968,note_on,48,0,4,,,,,,,,4,,,79,0
28968,note_on,0,0,4,,,,,,,,4,,,76,0
28980,note_on,0,0,4,,,,,,,,4,,,81,95
28980,note_on,12,0,4,,,,,,,,4,,,78,95
29015,note_on,95,0,6,,,,,,,,6,,,66,0
29015,note_on,95,0,7,,,,,,,,7,,,66,0
29015,note_on,95,0,1,,,,,,,,1,,,66,0
29015,note_on,95,0,5,,,,,,,,5,,,66,0
29028,note_on,0,0,4,,,,,,,,4,,,78,0
29028,note_on,48,0,4,,,,,,,,4,,,81,0
29040,note_on,25,0,6,,,,,,,,6,,,67,95
29040,note_on,25,0,1,,,,,,,,1,,,67,95
29040,note_on,25,0,5,,,,,,,,5,,,67,95
29040,note_on,25,0,7,,,,,,,,7,,,67,95
29040,note_on,0,0,4,,,,,,,,4,,,79,95
29040,note_on,12,0,4,,,,,,,,4,,,76,95
29088,note_on,48,0,4,,,,,,,,4,,,79,0
29088,note_on,0,0,4,,,,,,,,4,,,76,0
29100,note_on,12,0,4,,,,,,,,4,,,78,95
29100,note_on,0,0,4,,,,,,,,4,,,81,95
29135,note_on,95,0,1,,,,,,,,1,,,67,0
29135,note_on,95,0,6,,,,,,,,6,,,67,0
29135,note_on,95,0,7,,,,,,,,7,,,67,0
29135,note_on,95,0,5,,,,,,,,5,,,67,0
29148,note_on,0,0,4,,,,,,,,4,,,78,0
29148,note_on,48,0,4,,,,,,,,4,,,81,0
29160,note_on,25,0,1,,,,,,,,1,,,64,95
29160,note_on,25,0,5,,,,,,,,5,,,64,95
29160,note_on,25,0,7,,,,,,,,7,,,64,95
29160,note_on,25,0,6,,,,,,,,6,,,64,95
29160,note_on,0,0,4,,,,,,,,4,,,79,95
29160,note_on,12,0,4,,,,,,,,4,,,76,95
29208,note_on,48,0,4,,,,,,,,4,,,79,0
29208,note_on,0,0,4,,,,,,,,4,,,76,0
29220,note_on,0,0,4,,,,,,,,4,,,81,95
29220,note_on,12,0,4,,,,,,,,4,,,78,95
29255,note_on,95,0,6,,,,,,,,6,,,64,0
29255,note_on,95,0,7,,,,,,,,7,,,64,0
29255,note_on,95,0,5,,,,,,,,5,,,64,0
29255,note_on,95,0,1,,,,,,,,1,,,64,0
29268,note_on,48,0,4,,,,,,,,4,,,81,0
29268,note_on,0,0,4,,,,,,,,4,,,78,0
29280,note_on,25,0,7,,,,,,,,7,,,71,95
29280,note_on,25,0,6,,,,,,,,6,,,71,95
29280,note_on,25,0,1,,,,,,,,1,,,71,95
29280,note_on,12,0,4,,,,,,,,4,,,74,95
29280,note_on,0,0,4,,,,,,,,4,,,78,95
29280,note_on,25,0,5,,,,,,,,5,,,71,95
29328,note_on,0,0,4,,,,,,,,4,,,74,0
29328,note_on,48,0,4,,,,,,,,4,,,78,0
29340,note_on,0,0,4,,,,,,,,4,,,79,95
29340,note_on,12,0,4,,,,,,,,4,,,76,95
29375,note_on,95,0,1,,,,,,,,1,,,71,0
29375,note_on,95,0,7,,,,,,,,7,,,71,0
29375,note_on,95,0,5,,,,,,,,5,,,71,0
29375,note_on,95,0,6,,,,,,,,6,,,71,0
29388,note_on,48,0,4,,,,,,,,4,,,79,0
29388,note_on,0,0,4,,,,,,,,4,,,76,0
29400,note_on,25,0,7,,,,,,,,7,,,71,95
29400,note_on,25,0,1,,,,,,,,1,,,71,95
29400,note_on,25,0,5,,,,,,,,5,,,71,95
29400,note_on,0,0,4,,,,,,,,4,,,78,95
29400,note_on,12,0,4,,,,,,,,4,,,74,95
29400,note_on,25,0,6,,,,,,,,6,,,71,95
29448,note_on,48,0,4,,,,,,,,4,,,78,0
29448,note_on,0,0,4,,,,,,,,4,,,74,0
29460,note_on,12,0,4,,,,,,,,4,,,76,95
29460,note_on,0,0,4,,,,,,,,4,,,79,95
29495,note_on,95,0,7,,,,,,,,7,,,71,0
29495,note_on,95,0,6,,,,,,,,6,,,71,0
29495,note_on,95,0,5,,,,,,,,5,,,71,0
29495,note_on,95,0,1,,,,,,,,1,,,71,0
29508,note_on,48,0,4,,,,,,,,4,,,79,0
29508,note_on,0,0,4,,,,,,,,4,,,76,0
29520,note_on,12,0,4,,,,,,,,4,,,74,95
29520,note_on,0,0,4,,,,,,,,4,,,78,95
29520,note_on,25,0,7,,,,,,,,7,,,69,95
29520,note_on,25,0,1,,,,,,,,1,,,69,95
29520,note_on,25,0,6,,,,,,,,6,,,69,95
29520,note_on,25,0,5,,,,,,,,5,,,69,95
29568,note_on,0,0,4,,,,,,,,4,,,74,0
29568,note_on,48,0,4,,,,,,,,4,,,78,0
29580,note_on,12,0,4,,,,,,,,4,,,76,95
29580,note_on,0,0,4,,,,,,,,4,,,79,95
29615,note_on,95,0,7,,,,,,,,7,,,69,0
29615,note_on,95,0,6,,,,,,,,6,,,69,0
29615,note_on,95,0,1,,,,,,,,1,,,69,0
29615,note_on,95,0,5,,,,,,,,5,,,69,0
29628,note_on,48,0,4,,,,,,,,4,,,79,0
29628,note_on,0,0,4,,,,,,,,4,,,76,0
29640,note_on,25,0,6,,,,,,,,6,,,67,95
29640,note_on,25,0,5,,,,,,,,5,,,67,95
29640,note_on,25,0,1,,,,,,,,1,,,67,95
29640,note_on,25,0,7,,,,,,,,7,,,67,95
29640,note_on,0,0,4,,,,,,,,4,,,78,95
29640,note_on,12,0,4,,,,,,,,4,,,74,95
29688,note_on,0,0,4,,,,,,,,4,,,74,0
29688,note_on,48,0,4,,,,,,,,4,,,78,0
29700,note_on,12,0,4,,,,,,,,4,,,76,95
29700,note_on,0,0,4,,,,,,,,4,,,79,95
29735,note_on,95,0,5,,,,,,,,5,,,67,0
29735,note_on,95,0,1,,,,,,,,1,,,67,0
29735,note_on,95,0,6,,,,,,,,6,,,67,0
29735,note_on,95,0,7,,,,,,,,7,,,67,0
29748,note_on,48,0,4,,,,,,,,4,,,79,0
29748,note_on,0,0,4,,,,,,,,4,,,76,0
29760,note_on,25,0,5,,,,,,,,5,,,66,95
29760,note_on,25,0,7,,,,,,,,7,,,66,95
29760,note_on,0,0,4,,,,,,,,4,,,81,95
29760,note_on,25,0,6,,,,,,,,6,,,66,95
29760,note_on,25,0,1,,,,,,,,1,,,66,95
29760,note_on,12,0,4,,,,,,,,4,,,78,95
29855,note_on,95,0,1,,,,,,,,1,,,66,0
29855,note_on,95,0,6,,,,,,,,6,,,66,0
29855,note_on,95,0,5,,,,,,,,5,,,66,0
29855,note_on,95,0,7,,,,,,,,7,,,66,0
29880,note_on,25,0,1,,,,,,,,1,,,62,95
29880,note_on,25,0,6,,,,,,,,6,,,62,95
29880,note_on,25,0,7,,,,,,,,7,,,62,95
29880,note_on,25,0,5,,,,,,,,5,,,62,95
29975,note_on,95,0,1,,,,,,,,1,,,62,0
29975,note_on,95,0,5,,,,,,,,5,,,62,0
29975,note_on,95,0,7,,,,,,,,7,,,62,0
29975,note_on,95,0,6,,,,,,,,6,,,62,0
30000,note_on,25,0,5,,,,,,,,5,,,66,95
30000,note_on,25,0,7,,,,,,,,7,,,66,95
30000,note_on,25,0,1,,,,,,,,1,,,66,95
30000,note_on,25,0,6,,,,,,,,6,,,66,95
30095,note_on,95,0,5,,,,,,,,5,,,66,0
30095,note_on,95,0,7,,,,,,,,7,,,66,0
30095,note_on,95,0,6,,,,,,,,6,,,66,0
30095,note_on,95,0,1,,,,,,,,1,,,66,0
30120,note_on,25,0,6,,,,,,,,6,,,69,95
30120,note_on,25,0,1,,,,,,,,1,,,69,95
30120,note_on,25,0,7,,,,,,,,7,,,69,95
30120,note_on,25,0,5,,,,,,,,5,,,69,95
30215,note_on,95,0,7,,,,,,,,7,,,69,0
30215,note_on,95,0,5,,,,,,,,5,,,69,0
30215,note_on,95,0,1,,,,,,,,1,,,69,0
30215,note_on,95,0,6,,,,,,,,6,,,69,0
30240,note_on,25,0,6,,,,,,,,6,,,74,95
30240,note_on,25,0,5,,,,,,,,5,,,74,95
30240,note_on,25,0,1,,,,,,,,1,,,74,95
30240,note_on,25,0,7,,,,,,,,7,,,74,95
30335,note_on,95,0,5,,,,,,,,5,,,74,0
30335,note_on,95,0,6,,,,,,,,6,,,74,0
30335,note_on,95,0,1,,,,,,,,1,,,74,0
30335,note_on,95,0,7,,,,,,,,7,,,74,0
30336,note_on,0,0,4,,,,,,,,4,,,78,0
30336,note_on,576,0,4,,,,,,,,4,,,81,0
30360,note_on,24,0,4,,,,,,,,4,,,78,95
30360,note_on,25,0,6,,,,,,,,6,,,62,95
30360,note_on,0,0,4,,,,,,,,4,,,81,95
30360,note_on,25,0,7,,,,,,,,7,,,62,95
30360,note_on,25,0,5,,,,,,,,5,,,62,95
30360,note_on,25,0,1,,,,,,,,1,,,62,95
30455,note_on,95,0,5,,,,,,,,5,,,62,0
30455,note_on,95,0,7,,,,,,,,7,,,62,0
30455,note_on,95,0,1,,,,,,,,1,,,62,0
30455,note_on,95,0,6,,,,,,,,6,,,62,0
30456,note_on,0,0,4,,,,,,,,4,,,78,0
30456,note_on,96,0,4,,,,,,,,4,,,81,0
30480,note_on,0,0,4,,,,,,,,4,,,81,95
30480,note_on,24,0,4,,,,,,,,4,,,78,95
30480,note_on,25,0,1,,,,,,,,1,,,66,95
30480,note_on,25,0,5,,,,,,,,5,,,66,95
30480,note_on,25,0,7,,,,,,,,7,,,66,95
30480,note_on,25,0,6,,,,,,,,6,,,66,95
30575,note_on,95,0,5,,,,,,,,5,,,66,0
30575,note_on,95,0,1,,,,,,,,1,,,66,0
30575,note_on,95,0,7,,,,,,,,7,,,66,0
30575,note_on,95,0,6,,,,,,,,6,,,66,0
30576,note_on,96,0,4,,,,,,,,4,,,81,0
30576,note_on,0,0,4,,,,,,,,4,,,78,0
30600,note_on,0,0,4,,,,,,,,4,,,81,95
30600,note_on,25,0,6,,,,,,,,6,,,69,95
30600,note_on,25,0,1,,,,,,,,1,,,69,95
30600,note_on,25,0,7,,,,,,,,7,,,69,95
30600,note_on,25,0,5,,,,,,,,5,,,69,95
30600,note_on,24,0,4,,,,,,,,4,,,78,95
30695,note_on,95,0,6,,,,,,,,6,,,69,0
30695,note_on,95,0,5,,,,,,,,5,,,69,0
30695,note_on,95,0,1,,,,,,,,1,,,69,0
30695,note_on,95,0,7,,,,,,,,7,,,69,0
30696,note_on,0,0,4,,,,,,,,4,,,78,0
30696,note_on,96,0,4,,,,,,,,4,,,81,0
30720,note_on,0,0,4,,,,,,,,4,,,81,95
30720,note_on,24,0,4,,,,,,,,4,,,78,95
30720,note_on,25,0,5,,,,,,,,5,,,74,95
30720,note_on,25,0,1,,,,,,,,1,,,74,95
30720,note_on,25,0,7,,,,,,,,7,,,74,95
30720,note_on,25,0,6,,,,,,,,6,,,74,95
30815,note_on,95,0,5,,,,,,,,5,,,74,0
30815,note_on,95,0,1,,,,,,,,1,,,74,0
30815,note_on,95,0,7,,,,,,,,7,,,74,0
30815,note_on,95,0,6,,,,,,,,6,,,74,0
30840,note_on,25,0,1,,,,,,,,1,,,62,95
30840,note_on,25,0,5,,,,,,,,5,,,62,95
30840,note_on,25,0,6,,,,,,,,6,,,62,95
30840,note_on,25,0,7,,,,,,,,7,,,62,95
30935,note_on,95,0,7,,,,,,,,7,,,62,0
30935,note_on,95,0,1,,,,,,,,1,,,62,0
30935,note_on,95,0,6,,,,,,,,6,,,62,0
30935,note_on,95,0,5,,,,,,,,5,,,62,0
30960,note_on,25,0,7,,,,,,,,7,,,66,95
30960,note_on,25,0,6,,,,,,,,6,,,66,95
30960,note_on,25,0,1,,,,,,,,1,,,66,95
30960,note_on,25,0,5,,,,,,,,5,,,66,95
31008,note_on,288,0,4,,,,,,,,4,,,81,0
31008,note_on,0,0,4,,,,,,,,4,,,78,0
31055,note_on,95,0,5,,,,,,,,5,,,66,0
31055,note_on,95,0,6,,,,,,,,6,,,66,0
31055,note_on,95,0,1,,,,,,,,1,,,66,0
31055,note_on,95,0,7,,,,,,,,7,,,66,0
31080,note_on,25,0,1,,,,,,,,1,,,67,95
31080,note_on,72,0,4,,,,,,,,4,,,74,95
31080,note_on,25,0,6,,,,,,,,6,,,67,95
31080,note_on,25,0,7,,,,,,,,7,,,67,95
31080,note_on,0,0,4,,,,,,,,4,,,79,95
31080,note_on,25,0,5,,,,,,,,5,,,67,95
31128,note_on,48,0,4,,,,,,,,4,,,79,0
31140,note_on,12,0,4,,,,,,,,4,,,78,95
31175,note_on,95,0,1,,,,,,,,1,,,67,0
31175,note_on,95,0,6,,,,,,,,6,,,67,0
31175,note_on,95,0,5,,,,,,,,5,,,67,0
31175,note_on,95,0,7,,,,,,,,7,,,67,0
31176,note_on,36,0,4,,,,,,,,4,,,74,0
31188,note_on,12,0,4,,,,,,,,4,,,78,0
31200,note_on,25,0,6,,,,,,,,6,,,69,95
31200,note_on,25,0,5,,,,,,,,5,,,69,95
31200,note_on,25,0,7,,,,,,,,7,,,69,95
31200,note_on,25,0,1,,,,,,,,1,,,69,95
31200,note_on,0,0,4,,,,,,,,4,,,76,95
31200,note_on,12,0,4,,,,,,,,4,,,69,95
31295,note_on,95,0,5,,,,,,,,5,,,69,0
31295,note_on,95,0,1,,,,,,,,1,,,69,0
31295,note_on,95,0,7,,,,,,,,7,,,69,0
31295,note_on,95,0,6,,,,,,,,6,,,69,0
31296,note_on,0,0,4,,,,,,,,4,,,69,0
31296,note_on,96,0,4,,,,,,,,4,,,76,0
31320,note_on,25,0,1,,,,,,,,1,,,74,95
31320,note_on,0,0,4,,,,,,,,4,,,78,95
31320,note_on,25,0,6,,,,,,,,6,,,74,95
31320,note_on,25,0,7,,,,,,,,7,,,74,95
31320,note_on,24,0,4,,,,,,,,4,,,62,95
31320,note_on,25,0,5,,,,,,,,5,,,74,95
31368,note_on,48,0,4,,,,,,,,4,,,78,0
31380,note_on,12,0,4,,,,,,,,4,,,79,95
31415,note_on,95,0,6,,,,,,,,6,,,74,0
31415,note_on,95,0,1,,,,,,,,1,,,74,0
31415,note_on,95,0,5,,,,,,,,5,,,74,0
31415,note_on,95,0,7,,,,,,,,7,,,74,0
31416,note_on,36,0,4,,,,,,,,4,,,62,0
31428,note_on,12,0,4,,,,,,,,4,,,79,0
31440,note_on,12,0,4,,,,,,,,4,,,69,95
31440,note_on,0,0,4,,,,,,,,4,,,76,95
31440,note_on,25,0,5,,,,,,,,5,,,69,95
31440,note_on,25,0,6,,,,,,,,6,,,69,95
31440,note_on,25,0,7,,,,,,,,7,,,69,95
31440,note_on,25,0,1,,,,,,,,1,,,73,95
31535,note_on,95,0,5,,,,,,,,5,,,69,0
31535,note_on,95,0,7,,,,,,,,7,,,69,0
31535,note_on,95,0,6,,,,,,,,6,,,69,0
31536,note_on,96,0,4,,,,,,,,4,,,69,0
31560,note_on,25,0,5,,,,,,,,5,,,57,95
31560,note_on,25,0,6,,,,,,,,6,,,57,95
31560,note_on,24,0,4,,,,,,,,4,,,69,95
31560,note_on,25,0,7,,,,,,,,7,,,57,95
31584,note_on,24,0,4,,,,,,,,4,,,76,0
31584,note_on,144,0,1,,,,,,,,1,,,73,0
31620,note_on,36,0,1,,,,,,,,1,,,74,95
31620,note_on,36,0,4,,,,,,,,4,,,74,95
31655,note_on,95,0,6,,,,,,,,6,,,57,0
31655,note_on,95,0,5,,,,,,,,5,,,57,0
31655,note_on,95,0,7,,,,,,,,7,,,57,0
31656,note_on,36,0,4,,,,,,,,4,,,69,0
31668,note_on,12,0,4,,,,,,,,4,,,74,0
31668,note_on,48,0,1,,,,,,,,1,,,74,0
31680,note_on,25,0,7,,,,,,,,7,,,62,95
31680,note_on,12,0,1,,,,,,,,1,,,74,95
31680,note_on,12,0,4,,,,,,,,4,,,66,95
31680,note_on,25,0,5,,,,,,,,5,,,62,95
31680,note_on,0,0,4,,,,,,,,4,,,74,95
31680,note_on,25,0,6,,,,,,,,6,,,62,95
31800,note_on,3505,0,2,,,,,,,,2,,,50,95
31800,note_on,3505,0,9,,,,,,,,10,,,38,95
31800,note_on,3505,0,8,,,,,,,,8,,,50,95
31870,note_on,190,0,7,,,,,,,,7,,,62,0
31870,note_on,190,0,6,,,,,,,,6,,,62,0
31870,note_on,190,0,5,,,,,,,,5,,,62,0
31870,note_on,190,0,1,,,,,,,,1,,,74,0
31872,note_on,192,0,4,,,,,,,,4,,,74,0
31872,note_on,0,0,4,,,,,,,,4,,,66,0
31895,note_on,95,0,8,,,,,,,,8,,,50,0
31895,note_on,95,0,9,,,,,,,,10,,,38,0
31895,note_on,95,0,2,,,,,,,,2,,,50,0
31920,note_on,25,0,9,,,,,,,,10,,,50,95
31920,note_on,25,0,2,,,,,,,,2,,,62,95
31920,note_on,25,0,8,,,,,,,,8,,,62,95
32015,note_on,95,0,2,,,,,,,,2,,,62,0
32015,note_on,95,0,9,,,,,,,,10,,,50,0
32015,note_on,95,0,8,,,,,,,,8,,,62,0
32040,note_on,25,0,2,,,,,,,,2,,,61,95
32040,note_on,0,0,3,,,,,,,,3,,,69,95
32040,note_on,4008,0,3,,,,,,,,3,,,64,95
32040,note_on,25,0,8,,,,,,,,8,,,61,95
32040,note_on,25,0,9,,,,,,,,10,,,49,95
32087,note_on,47,0,2,,,,,,,,2,,,61,0
32087,note_on,47,0,8,,,,,,,,8,,,61,0
32087,note_on,47,0,9,,,,,,,,10,,,49,0
32100,note_on,13,0,8,,,,,,,,8,,,59,95
32100,note_on,13,0,9,,,,,,,,10,,,47,95
32100,note_on,13,0,2,,,,,,,,2,,,59,95
32136,note_on,96,0,3,,,,,,,,3,,,69,0
32136,note_on,0,0,3,,,,,,,,3,,,64,0
32147,note_on,47,0,9,,,,,,,,10,,,47,0
32147,note_on,47,0,2,,,,,,,,2,,,59,0
32147,note_on,47,0,8,,,,,,,,8,,,59,0
32160,note_on,0,0,3,,,,,,,,3,,,64,95
32160,note_on,13,0,8,,,,,,,,8,,,61,95
32160,note_on,13,0,9,,,,,,,,10,,,49,95
32160,note_on,13,0,2,,,,,,,,2,,,61,95
32160,note_on,24,0,3,,,,,,,,3,,,57,95
32208,note_on,48,0,3,,,,,,,,3,,,64,0
32220,note_on,12,0,3,,,,,,,,3,,,66,95
32255,note_on,95,0,9,,,,,,,,10,,,49,0
32255,note_on,95,0,8,,,,,,,,8,,,61,0
32255,note_on,95,0,2,,,,,,,,2,,,61,0
32256,note_on,36,0,3,,,,,,,,3,,,57,0
32268,note_on,12,0,3,,,,,,,,3,,,66,0
32280,note_on,25,0,2,,,,,,,,2,,,57,95
32280,note_on,25,0,8,,,,,,,,8,,,57,95
32280,note_on,12,0,3,,,,,,,,3,,,57,95
32280,note_on,25,0,9,,,,,,,,10,,,45,95
32280,note_on,0,0,3,,,,,,,,3,,,64,95
32328,note_on,48,0,3,,,,,,,,3,,,64,0
32340,note_on,12,0,3,,,,,,,,3,,,66,95
32375,note_on,95,0,8,,,,,,,,8,,,57,0
32375,note_on,95,0,2,,,,,,,,2,,,57,0
32375,note_on,95,0,9,,,,,,,,10,,,45,0
32376,note_on,36,0,3,,,,,,,,3,,,57,0
32388,note_on,12,0,3,,,,,,,,3,,,66,0
32400,note_on,25,0,2,,,,,,,,2,,,55,95
32400,note_on,12,0,3,,,,,,,,3,,,57,95
32400,note_on,0,0,3,,,,,,,,3,,,64,95
32400,note_on,25,0,8,,,,,,,,8,,,55,95
32400,note_on,25,0,9,,,,,,,,10,,,43,95
32448,note_on,48,0,3,,,,,,,,3,,,64,0
32460,note_on,12,0,3,,,,,,,,3,,,66,95
32495,note_on,95,0,2,,,,,,,,2,,,55,0
32495,note_on,95,0,8,,,,,,,,8,,,55,0
32495,note_on,95,0,9,,,,,,,,10,,,43,0
32496,note_on,36,0,3,,,,,,,,3,,,57,0
32508,note_on,12,0,3,,,,,,,,3,,,66,0
32520,note_on,25,0,2,,,,,,,,2,,,54,95
32520,note_on,25,0,9,,,,,,,,10,,,42,95
32520,note_on,25,0,8,,,,,,,,8,,,54,95
32520,note_on,12,0,3,,,,,,,,3,,,62,95
32520,note_on,0,0,3,,,,,,,,3,,,64,95
32568,note_on,48,0,3,,,,,,,,3,,,64,0
32580,note_on,12,0,3,,,,,,,,3,,,66,95
32615,note_on,95,0,9,,,,,,,,10,,,42,0
32615,note_on,95,0,2,,,,,,,,2,,,54,0
32615,note_on,95,0,8,,,,,,,,8,,,54,0
32616,note_on,36,0,3,,,,,,,,3,,,62,0
32628,note_on,12,0,3,,,,,,,,3,,,66,0
32640,note_on,25,0,2,,,,,,,,2,,,52,95
32640,note_on,25,0,8,,,,,,,,8,,,52,95
32640,note_on,0,0,3,,,,,,,,3,,,67,95
32640,note_on,12,0,3,,,,,,,,3,,,64,95
32640,note_on,25,0,9,,,,,,,,10,,,40,95
32688,note_on,48,0,3,,,,,,,,3,,,67,0
32688,note_on,0,0,3,,,,,,,,3,,,64,0
32700,note_on,12,0,3,,,,,,,,3,,,66,95
32700,note_on,0,0,3,,,,,,,,3,,,69,95
32735,note_on,95,0,2,,,,,,,,2,,,52,0
32735,note_on,95,0,8,,,,,,,,8,,,52,0
32735,note_on,95,0,9,,,,,,,,10,,,40,0
32748,note_on,0,0,3,,,,,,,,3,,,66,0
32748,note_on,48,0,3,,,,,,,,3,,,69,0
32760,note_on,0,0,3,,,,,,,,3,,,67,95
32760,note_on,12,0,3,,,,,,,,3,,,64,95
32760,note_on,25,0,2,,,,,,,,2,,,54,95
32760,note_on,25,0,8,,,,,,,,8,,,54,95
32760,note_on,25,0,9,,,,,,,,10,,,42,95
32808,note_on,48,0,3,,,,,,,,3,,,67,0
32808,note_on,0,0,3,,,,,,,,3,,,64,0
32820,note_on,12,0,3,,,,,,,,3,,,66,95
32820,note_on,0,0,3,,,,,,,,3,,,69,95
32855,note_on,95,0,9,,,,,,,,10,,,42,0
32855,note_on,95,0,8,,,,,,,,8,,,54,0
32855,note_on,95,0,2,,,,,,,,2,,,54,0
32868,note_on,48,0,3,,,,,,,,3,,,69,0
32868,note_on,0,0,3,,,,,,,,3,,,66,0
32880,note_on,25,0,9,,,,,,,,10,,,43,95
32880,note_on,25,0,8,,,,,,,,8,,,55,95
32880,note_on,25,0,2,,,,,,,,2,,,55,95
32880,note_on,12,0,3,,,,,,,,3,,,64,95
32880,note_on,0,0,3,,,,,,,,3,,,67,95
32928,note_on,48,0,3,,,,,,,,3,,,67,0
32928,note_on,0,0,3,,,,,,,,3,,,64,0
32940,note_on,12,0,3,,,,,,,,3,,,66,95
32940,note_on,0,0,3,,,,,,,,3,,,69,95
32975,note_on,95,0,2,,,,,,,,2,,,55,0
32975,note_on,95,0,8,,,,,,,,8,,,55,0
32975,note_on,95,0,9,,,,,,,,10,,,43,0
32988,note_on,0,0,3,,,,,,,,3,,,66,0
32988,note_on,48,0,3,,,,,,,,3,,,69,0
33000,note_on,25,0,2,,,,,,,,2,,,52,95
33000,note_on,25,0,8,,,,,,,,8,,,52,95
33000,note_on,25,0,9,,,,,,,,10,,,40,95
33000,note_on,0,0,3,,,,,,,,3,,,67,95
33000,note_on,12,0,3,,,,,,,,3,,,64,95
33048,note_on,0,0,3,,,,,,,,3,,,64,0
33048,note_on,48,0,3,,,,,,,,3,,,67,0
33060,note_on,0,0,3,,,,,,,,3,,,69,95
33060,note_on,12,0,3,,,,,,,,3,,,66,95
33095,note_on,95,0,8,,,,,,,,8,,,52,0
33095,note_on,95,0,2,,,,,,,,2,,,52,0
33095,note_on,95,0,9,,,,,,,,10,,,40,0
33108,note_on,0,0,3,,,,,,,,3,,,66,0
33108,note_on,48,0,3,,,,,,,,3,,,69,0
33120,note_on,25,0,8,,,,,,,,8,,,59,95
33120,note_on,25,0,9,,,,,,,,10,,,47,95
33120,note_on,12,0,3,,,,,,,,3,,,62,95
33120,note_on,25,0,2,,,,,,,,2,,,59,95
33120,note_on,0,0,3,,,,,,,,3,,,66,95
33168,note_on,48,0,3,,,,,,,,3,,,66,0
33168,note_on,0,0,3,,,,,,,,3,,,62,0
33180,note_on,0,0,3,,,,,,,,3,,,67,95
33180,note_on,12,0,3,,,,,,,,3,,,64,95
33215,note_on,95,0,2,,,,,,,,2,,,59,0
33215,note_on,95,0,9,,,,,,,,10,,,47,0
33215,note_on,95,0,8,,,,,,,,8,,,59,0
33228,note_on,48,0,3,,,,,,,,3,,,67,0
33228,note_on,0,0,3,,,,,,,,3,,,64,0
33240,note_on,12,0,3,,,,,,,,3,,,62,95
33240,note_on,25,0,2,,,,,,,,2,,,59,95
33240,note_on,25,0,9,,,,,,,,10,,,47,95
33240,note_on,25,0,8,,,,,,,,8,,,59,95
33240,note_on,0,0,3,,,,,,,,3,,,66,95
33288,note_on,48,0,3,,,,,,,,3,,,66,0
33288,note_on,0,0,3,,,,,,,,3,,,62,0
33300,note_on,0,0,3,,,,,,,,3,,,67,95
33300,note_on,12,0,3,,,,,,,,3,,,64,95
33335,note_on,95,0,9,,,,,,,,10,,,47,0
33335,note_on,95,0,8,,,,,,,,8,,,59,0
33335,note_on,95,0,2,,,,,,,,2,,,59,0
33348,note_on,0,0,3,,,,,,,,3,,,64,0
33348,note_on,48,0,3,,,,,,,,3,,,67,0
33360,note_on,0,0,3,,,,,,,,3,,,66,95
33360,note_on,25,0,2,,,,,,,,2,,,57,95
33360,note_on,25,0,9,,,,,,,,10,,,45,95
33360,note_on,25,0,8,,,,,,,,8,,,57,95
33360,note_on,12,0,3,,,,,,,,3,,,62,95
33408,note_on,0,0,3,,,,,,,,3,,,62,0
33408,note_on,48,0,3,,,,,,,,3,,,66,0
33420,note_on,12,0,3,,,,,,,,3,,,64,95
33420,note_on,0,0,3,,,,,,,,3,,,67,95
33455,note_on,95,0,2,,,,,,,,2,,,57,0
33455,note_on,95,0,9,,,,,,,,10,,,45,0
33455,note_on,95,0,8,,,,,,,,8,,,57,0
33468,note_on,0,0,3,,,,,,,,3,,,64,0
33468,note_on,48,0,3,,,,,,,,3,,,67,0
33480,note_on,25,0,8,,,,,,,,8,,,55,95
33480,note_on,25,0,9,,,,,,,,10,,,43,95
33480,note_on,0,0,3,,,,,,,,3,,,66,95
33480,note_on,25,0,2,,,,,,,,2,,,55,95
33480,note_on,12,0,3,,,,,,,,3,,,62,95
33528,note_on,0,0,3,,,,,,,,3,,,62,0
33528,note_on,48,0,3,,,,,,,,3,,,66,0
33540,note_on,12,0,3,,,,,,,,3,,,64,95
33540,note_on,0,0,3,,,,,,,,3,,,67,95
33575,note_on,95,0,9,,,,,,,,10,,,43,0
33575,note_on,95,0,8,,,,,,,,8,,,55,0
33575,note_on,95,0,2,,,,,,,,2,,,55,0
33588,note_on,48,0,3,,,,,,,,3,,,67,0
33588,note_on,0,0,3,,,,,,,,3,,,64,0
33600,note_on,12,0,3,,,,,,,,3,,,66,95
33600,note_on,0,0,3,,,,,,,,3,,,69,95
33600,note_on,25,0,9,,,,,,,,10,,,42,95
33600,note_on,25,0,8,,,,,,,,8,,,54,95
33600,note_on,25,0,2,,,,,,,,2,,,54,95
33695,note_on,95,0,2,,,,,,,,2,,,54,0
33695,note_on,95,0,9,,,,,,,,10,,,42,0
33695,note_on,95,0,8,,,,,,,,8,,,54,0
33720,note_on,25,0,2,,,,,,,,2,,,50,95
33720,note_on,25,0,9,,,,,,,,10,,,38,95
33720,note_on,25,0,8,,,,,,,,8,,,50,95
33815,note_on,95,0,2,,,,,,,,2,,,50,0
33815,note_on,95,0,8,,,,,,,,8,,,50,0
33815,note_on,95,0,9,,,,,,,,10,,,38,0
33840,note_on,25,0,9,,,,,,,,10,,,42,95
33840,note_on,25,0,8,,,,,,,,8,,,54,95
33840,note_on,25,0,2,,,,,,,,2,,,54,95
33935,note_on,95,0,9,,,,,,,,10,,,42,0
33935,note_on,95,0,8,,,,,,,,8,,,54,0
33935,note_on,95,0,2,,,,,,,,2,,,54,0
33960,note_on,25,0,9,,,,,,,,10,,,45,95
33960,note_on,25,0,8,,,,,,,,8,,,57,95
33960,note_on,25,0,2,,,,,,,,2,,,57,95
34055,note_on,95,0,2,,,,,,,,2,,,57,0
34055,note_on,95,0,9,,,,,,,,10,,,45,0
34055,note_on,95,0,8,,,,,,,,8,,,57,0
34080,note_on,25,0,8,,,,,,,,8,,,62,95
34080,note_on,25,0,9,,,,,,,,10,,,50,95
34080,note_on,25,0,2,,,,,,,,2,,,62,95
34175,note_on,95,0,2,,,,,,,,2,,,62,0
34175,note_on,95,0,8,,,,,,,,8,,,62,0
34175,note_on,95,0,9,,,,,,,,10,,,50,0
34176,note_on,576,0,3,,,,,,,,3,,,69,0
34176,note_on,0,0,3,,,,,,,,3,,,66,0
34200,note_on,25,0,9,,,,,,,,10,,,38,95
34200,note_on,25,0,8,,,,,,,,8,,,50,95
34200,note_on,0,0,3,,,,,,,,3,,,69,95
34200,note_on,24,0,3,,,,,,,,3,,,66,95
34200,note_on,25,0,2,,,,,,,,2,,,50,95
34295,note_on,95,0,9,,,,,,,,10,,,38,0
34295,note_on,95,0,8,,,,,,,,8,,,50,0
34295,note_on,95,0,2,,,,,,,,2,,,50,0
34296,note_on,96,0,3,,,,,,,,3,,,69,0
34296,note_on,0,0,3,,,,,,,,3,,,66,0
34320,note_on,25,0,8,,,,,,,,8,,,54,95
34320,note_on,25,0,9,,,,,,,,10,,,42,95
34320,note_on,25,0,2,,,,,,,,2,,,54,95
34320,note_on,24,0,3,,,,,,,,3,,,66,95
34320,note_on,0,0,3,,,,,,,,3,,,69,95
34415,note_on,95,0,9,,,,,,,,10,,,42,0
34415,note_on,95,0,8,,,,,,,,8,,,54,0
34415,note_on,95,0,2,,,,,,,,2,,,54,0
34416,note_on,96,0,3,,,,,,,,3,,,69,0
34416,note_on,0,0,3,,,,,,,,3,,,66,0
34440,note_on,25,0,8,,,,,,,,8,,,57,95
34440,note_on,25,0,2,,,,,,,,2,,,57,95
34440,note_on,24,0,3,,,,,,,,3,,,66,95
34440,note_on,25,0,9,,,,,,,,10,,,45,95
34440,note_on,0,0,3,,,,,,,,3,,,69,95
34535,note_on,95,0,9,,,,,,,,10,,,45,0
34535,note_on,95,0,2,,,,,,,,2,,,57,0
34535,note_on,95,0,8,,,,,,,,8,,,57,0
34536,note_on,0,0,3,,,,,,,,3,,,66,0
34536,note_on,96,0,3,,,,,,,,3,,,69,0
34560,note_on,25,0,8,,,,,,,,8,,,62,95
34560,note_on,25,0,2,,,,,,,,2,,,62,95
34560,note_on,25,0,9,,,,,,,,10,,,50,95
34560,note_on,24,0,3,,,,,,,,3,,,69,95
34560,note_on,0,0,3,,,,,,,,3,,,66,95
34655,note_on,95,0,8,,,,,,,,8,,,62,0
34655,note_on,95,0,2,,,,,,,,2,,,62,0
34655,note_on,95,0,9,,,,,,,,10,,,50,0
34680,note_on,25,0,2,,,,,,,,2,,,50,95
34680,note_on,25,0,8,,,,,,,,8,,,50,95
34680,note_on,25,0,9,,,,,,,,10,,,38,95
34775,note_on,95,0,2,,,,,,,,2,,,50,0
34775,note_on,95,0,9,,,,,,,,10,,,38,0
34775,note_on,95,0,8,,,,,,,,8,,,50,0
34800,note_on,25,0,8,,,,,,,,8,,,54,95
34800,note_on,25,0,2,,,,,,,,2,,,54,95
34800,note_on,25,0,9,,,,,,,,10,,,42,95
34848,note_on,0,0,3,,,,,,,,3,,,69,0
34848,note_on,288,0,3,,,,,,,,3,,,66,0
34895,note_on,95,0,8,,,,,,,,8,,,54,0
34895,note_on,95,0,2,,,,,,,,2,,,54,0
34895,note_on,95,0,9,,,,,,,,10,,,42,0
34920,note_on,25,0,8,,,,,,,,8,,,55,95
34920,note_on,72,0,3,,,,,,,,3,,,67,95
34920,note_on,0,0,3,,,,,,,,3,,,62,95
34920,note_on,25,0,2,,,,,,,,2,,,55,95
34920,note_on,25,0,9,,,,,,,,10,,,43,95
34968,note_on,48,0,3,,,,,,,,3,,,67,0
34980,note_on,12,0,3,,,,,,,,3,,,66,95
35015,note_on,95,0,9,,,,,,,,10,,,43,0
35015,note_on,95,0,2,,,,,,,,2,,,55,0
35015,note_on,95,0,8,,,,,,,,8,,,55,0
35016,note_on,36,0,3,,,,,,,,3,,,62,0
35028,note_on,12,0,3,,,,,,,,3,,,66,0
35040,note_on,25,0,8,,,,,,,,8,,,57,95
35040,note_on,25,0,2,,,,,,,,2,,,57,95
35040,note_on,25,0,9,,,,,,,,10,,,45,95
35040,note_on,12,0,3,,,,,,,,3,,,64,95
35040,note_on,0,0,3,,,,,,,,3,,,57,95
35135,note_on,95,0,9,,,,,,,,10,,,45,0
35135,note_on,95,0,2,,,,,,,,2,,,57,0
35135,note_on,95,0,8,,,,,,,,8,,,57,0
35136,note_on,96,0,3,,,,,,,,3,,,57,0
35136,note_on,0,0,3,,,,,,,,3,,,64,0
35160,note_on,24,0,3,,,,,,,,3,,,66,95
35160,note_on,25,0,9,,,,,,,,10,,,38,95
35160,note_on,0,0,3,,,,,,,,3,,,50,95
35160,note_on,25,0,8,,,,,,,,8,,,50,95
35160,note_on,25,0,2,,,,,,,,2,,,62,95
35208,note_on,48,0,3,,,,,,,,3,,,66,0
35220,note_on,12,0,3,,,,,,,,3,,,67,95
35255,note_on,95,0,8,,,,,,,,8,,,50,0
35255,note_on,95,0,9,,,,,,,,10,,,38,0
35256,note_on,96,0,2,,,,,,,,2,,,62,0
35256,note_on,36,0,3,,,,,,,,3,,,50,0
35268,note_on,12,0,3,,,,,,,,3,,,67,0
35280,note_on,0,0,3,,,,,,,,3,,,57,95
35280,note_on,24,0,2,,,,,,,,2,,,61,95
35280,note_on,25,0,8,,,,,,,,8,,,57,95
35280,note_on,25,0,9,,,,,,,,10,,,45,95
35280,note_on,12,0,3,,,,,,,,3,,,64,95
35375,note_on,95,0,9,,,,,,,,10,,,45,0
35375,note_on,95,0,8,,,,,,,,8,,,57,0
35376,note_on,96,0,3,,,,,,,,3,,,57,0
35400,note_on,25,0,8,,,,,,,,8,,,45,95
35400,note_on,24,0,3,,,,,,,,3,,,57,95
35400,note_on,25,0,9,,,,,,,,10,,,33,95
35424,note_on,144,0,2,,,,,,,,2,,,61,0
35424,note_on,24,0,3,,,,,,,,3,,,64,0
35460,note_on,36,0,2,,,,,,,,2,,,62,95
35460,note_on,36,0,3,,,,,,,,3,,,62,95
35495,note_on,95,0,8,,,,,,,,8,,,45,0
35495,note_on,95,0,9,,,,,,,,10,,,33,0
35496,note_on,36,0,3,,,,,,,,3,,,57,0
35508,note_on,48,0,2,,,,,,,,2,,,62,0
35508,note_on,12,0,3,,,,,,,,3,,,62,0
35520,note_on,25,0,9,,,,,,,,10,,,38,95
35520,note_on,12,0,2,,,,,,,,2,,,62,95
35520,note_on,12,0,3,,,,,,,,3,,,54,95
35520,note_on,0,0,3,,,,,,,,3,,,62,95
35520,note_on,25,0,8,,,,,,,,8,,,50,95
35710,note_on,190,0,8,,,,,,,,8,,,50,0
35710,note_on,190,0,9,,,,,,,,10,,,38,0
35710,note_on,190,0,2,,,,,,,,2,,,62,0
35712,note_on,192,0,3,,,,,,,,3,,,62,0
35712,note_on,0,0,3,,,,,,,,3,,,54,0
35880,note_on,168,0,3,,,,,,,,3,,,62,95
35880,note_on,170,0,9,,,,,,,,10,,,38,95
35880,note_on,0,0,4,,,,,,,,4,,,78,95
35880,note_on,4008,0,4,,,,,,,,4,,,74,95
35880,note_on,4010,0,5,,,,,,,,5,,,81,95
35880,note_on,0,0,1,,,,,,,,1,,,78,95
35880,note_on,4010,0,1,,,,,,,,1,,,74,95
35880,note_on,0,0,3,,,,,,,,3,,,66,95
35880,note_on,170,0,8,,,,,,,,8,,,50,95
35880,note_on,4010,0,6,,,,,,,,6,,,66,95
35880,note_on,170,0,2,,,,,,,,2,,,50,95
35880,note_on,4010,0,7,,,,,,,,7,,,62,95
35975,note_on,95,0,6,,,,,,,,6,,,66,0
35975,note_on,95,0,8,,,,,,,,8,,,50,0
35975,note_on,95,0,2,,,,,,,,2,,,50,0
35975,note_on,95,0,7,,,,,,,,7,,,62,0
35975,note_on,95,0,9,,,,,,,,10,,,38,0
35975,note_on,95,0,5,,,,,,,,5,,,81,0
35976,note_on,0,0,4,,,,,,,,4,,,74,0
35976,note_on,0,0,1,,,,,,,,1,,,74,0
35976,note_on,96,0,1,,,,,,,,1,,,78,0
35976,note_on,96,0,3,,,,,,,,3,,,66,0
35976,note_on,96,0,4,,,,,,,,4,,,78,0
35976,note_on,0,0,3,,,,,,,,3,,,62,0
36000,note_on,25,0,7,,,,,,,,7,,,66,95
36000,note_on,0,0,1,,,,,,,,1,,,81,95
36000,note_on,25,0,5,,,,,,,,5,,,86,95
36000,note_on,0,0,4,,,,,,,,4,,,81,95
36000,note_on,24,0,1,,,,,,,,1,,,78,95
36000,note_on,25,0,2,,,,,,,,2,,,62,95
36000,note_on,25,0,9,,,,,,,,10,,,50,95
36000,note_on,25,0,8,,,,,,,,8,,,62,95
36000,note_on,0,0,3,,,,,,,,3,,,69,95
36000,note_on,24,0,3,,,,,,,,3,,,66,95
36000,note_on,25,0,6,,,,,,,,6,,,69,95
36000,note_on,24,0,4,,,,,,,,4,,,78,95
36095,note_on,95,0,9,,,,,,,,10,,,50,0
36095,note_on,95,0,8,,,,,,,,8,,,62,0
36095,note_on,95,0,5,,,,,,,,5,,,86,0
36095,note_on,95,0,2,,,,,,,,2,,,62,0
36120,note_on,25,0,8,,,,,,,,8,,,50,95
36120,note_on,25,0,2,,,,,,,,2,,,50,95
36120,note_on,25,0,5,,,,,,,,5,,,85,95
36120,note_on,25,0,9,,,,,,,,10,,,38,95
36167,note_on,47,0,5,,,,,,,,5,,,85,0
36180,note_on,13,0,5,,,,,,,,5,,,83,95
36190,note_on,190,0,7,,,,,,,,7,,,66,0
36190,note_on,190,0,6,,,,,,,,6,,,69,0
36192,note_on,0,0,1,,,,,,,,1,,,78,0
36192,note_on,192,0,1,,,,,,,,1,,,81,0
36192,note_on,192,0,4,,,,,,,,4,,,81,0
36192,note_on,192,0,3,,,,,,,,3,,,69,0
36192,note_on,0,0,3,,,,,,,,3,,,66,0
36192,note_on,0,0,4,,,,,,,,4,,,78,0
36215,note_on,95,0,8,,,,,,,,8,,,50,0
36215,note_on,95,0,2,,,,,,,,2,,,50,0
36215,note_on,95,0,9,,,,,,,,10,,,38,0
36227,note_on,47,0,5,,,,,,,,5,,,83,0
36240,note_on,50,0,7,,,,,,,,7,,,66,95
36240,note_on,25,0,8,,,,,,,,8,,,54,95
36240,note_on,50,0,6,,,,,,,,6,,,69,95
36240,note_on,0,0,3,,,,,,,,3,,,69,95
36240,note_on,48,0,3,,,,,,,,3,,,66,95
36240,note_on,25,0,9,,,,,,,,10,,,42,95
36240,note_on,48,0,1,,,,,,,,1,,,78,95
36240,note_on,0,0,1,,,,,,,,1,,,81,95
36240,note_on,13,0,5,,,,,,,,5,,,81,95
36240,note_on,48,0,4,,,,,,,,4,,,78,95
36240,note_on,25,0,2,,,,,,,,2,,,54,95
36240,note_on,0,0,4,,,,,,,,4,,,81,95
36287,note_on,47,0,5,,,,,,,,5,,,81,0
36300,note_on,13,0,5,,,,,,,,5,,,79,95
36335,note_on,95,0,9,,,,,,,,10,,,42,0
36335,note_on,95,0,8,,,,,,,,8,,,54,0
36335,note_on,95,0,2,,,,,,,,2,,,54,0
36347,note_on,47,0,5,,,,,,,,5,,,79,0
36360,note_on,13,0,5,,,,,,,,5,,,78,95
36360,note_on,25,0,9,,,,,,,,10,,,45,95
36360,note_on,25,0,8,,,,,,,,8,,,57,95
36360,note_on,25,0,2,,,,,,,,2,,,57,95
36407,note_on,47,0,5,,,,,,,,5,,,78,0
36420,note_on,13,0,5,,,,,,,,5,,,76,95
36430,note_on,190,0,6,,,,,,,,6,,,69,0
36430,note_on,190,0,7,,,,,,,,7,,,66,0
36432,note_on,192,0,1,,,,,,,,1,,,81,0
36432,note_on,0,0,1,,,,,,,,1,,,78,0
36432,note_on,0,0,4,,,,,,,,4,,,78,0
36432,note_on,192,0,4,,,,,,,,4,,,81,0
36432,note_on,0,0,3,,,,,,,,3,,,66,0
36432,note_on,192,0,3,,,,,,,,3,,,69,0
36455,note_on,95,0,2,,,,,,,,2,,,57,0
36455,note_on,95,0,9,,,,,,,,10,,,45,0
36455,note_on,95,0,8,,,,,,,,8,,,57,0
36467,note_on,47,0,5,,,,,,,,5,,,76,0
36480,note_on,50,0,6,,,,,,,,6,,,69,95
36480,note_on,48,0,1,,,,,,,,1,,,78,95
36480,note_on,13,0,5,,,,,,,,5,,,74,95
36480,note_on,0,0,1,,,,,,,,1,,,81,95
36480,note_on,48,0,4,,,,,,,,4,,,78,95
36480,note_on,25,0,9,,,,,,,,10,,,50,95
36480,note_on,48,0,3,,,,,,,,3,,,66,95
36480,note_on,0,0,3,,,,,,,,3,,,69,95
36480,note_on,50,0,7,,,,,,,,7,,,66,95
36480,note_on,25,0,2,,,,,,,,2,,,62,95
36480,note_on,0,0,4,,,,,,,,4,,,81,95
36480,note_on,25,0,8,,,,,,,,8,,,62,95
36575,note_on,95,0,9,,,,,,,,10,,,50,0
36575,note_on,95,0,2,,,,,,,,2,,,62,0
36575,note_on,95,0,5,,,,,,,,5,,,74,0
36575,note_on,95,0,8,,,,,,,,8,,,62,0
36600,note_on,25,0,9,,,,,,,,10,,,45,95
36600,note_on,25,0,2,,,,,,,,2,,,57,95
36600,note_on,25,0,8,,,,,,,,8,,,57,95
36600,note_on,25,0,5,,,,,,,,5,,,69,95
36695,note_on,95,0,5,,,,,,,,5,,,69,0
36695,note_on,95,0,8,,,,,,,,8,,,57,0
36695,note_on,95,0,2,,,,,,,,2,,,57,0
36695,note_on,95,0,9,,,,,,,,10,,,45,0
36720,note_on,25,0,2,,,,,,,,2,,,54,95
36720,note_on,25,0,5,,,,,,,,5,,,66,95
36720,note_on,25,0,9,,,,,,,,10,,,42,95
36720,note_on,25,0,8,,,,,,,,8,,,54,95
36767,note_on,287,0,6,,,,,,,,6,,,69,0
36767,note_on,287,0,7,,,,,,,,7,,,66,0
36768,note_on,0,0,4,,,,,,,,4,,,78,0
36768,note_on,288,0,1,,,,,,,,1,,,81,0
36768,note_on,0,0,1,,,,,,,,1,,,78,0
36768,note_on,288,0,3,,,,,,,,3,,,69,0
36768,note_on,288,0,4,,,,,,,,4,,,81,0
36768,note_on,0,0,3,,,,,,,,3,,,66,0
36815,note_on,95,0,9,,,,,,,,10,,,42,0
36815,note_on,95,0,8,,,,,,,,8,,,54,0
36815,note_on,95,0,5,,,,,,,,5,,,66,0
36815,note_on,95,0,2,,,,,,,,2,,,54,0
36840,note_on,72,0,3,,,,,,,,3,,,67,95
36840,note_on,73,0,7,,,,,,,,7,,,67,95
36840,note_on,0,0,3,,,,,,,,3,,,71,95
36840,note_on,25,0,8,,,,,,,,8,,,50,95
36840,note_on,0,0,4,,,,,,,,4,,,83,95
36840,note_on,72,0,4,,,,,,,,4,,,79,95
36840,note_on,25,0,5,,,,,,,,5,,,62,95
36840,note_on,72,0,1,,,,,,,,1,,,79,95
36840,note_on,0,0,1,,,,,,,,1,,,83,95
36840,note_on,25,0,9,,,,,,,,10,,,38,95
36840,note_on,73,0,6,,,,,,,,6,,,71,95
36840,note_on,25,0,2,,,,,,,,2,,,50,95
36935,note_on,95,0,2,,,,,,,,2,,,50,0
36935,note_on,95,0,7,,,,,,,,7,,,67,0
36935,note_on,95,0,8,,,,,,,,8,,,50,0
36935,note_on,95,0,9,,,,,,,,10,,,38,0
36935,note_on,95,0,6,,,,,,,,6,,,71,0
36935,note_on,95,0,5,,,,,,,,5,,,62,0
36936,note_on,0,0,4,,,,,,,,4,,,79,0
36936,note_on,96,0,3,,,,,,,,3,,,71,0
36936,note_on,96,0,1,,,,,,,,1,,,83,0
36936,note_on,0,0,1,,,,,,,,1,,,79,0
36936,note_on,0,0,3,,,,,,,,3,,,67,0
36936,note_on,96,0,4,,,,,,,,4,,,83,0
36960,note_on,25,0,9,,,,,,,,10,,,52,95
36960,note_on,24,0,3,,,,,,,,3,,,64,95
36960,note_on,0,0,4,,,,,,,,4,,,79,95
36960,note_on,25,0,8,,,,,,,,8,,,64,95
36960,note_on,25,0,6,,,,,,,,6,,,67,95
36960,note_on,0,0,3,,,,,,,,3,,,67,95
36960,note_on,24,0,4,,,,,,,,4,,,76,95
36960,note_on,25,0,7,,,,,,,,7,,,64,95
36960,note_on,0,0,1,,,,,,,,1,,,79,95
36960,note_on,24,0,1,,,,,,,,1,,,76,95
36960,note_on,25,0,2,,,,,,,,2,,,64,95
36960,note_on,25,0,5,,,,,,,,5,,,76,95
37055,note_on,95,0,8,,,,,,,,8,,,64,0
37055,note_on,95,0,9,,,,,,,,10,,,52,0
37055,note_on,95,0,5,,,,,,,,5,,,76,0
37055,note_on,95,0,2,,,,,,,,2,,,64,0
37080,note_on,25,0,2,,,,,,,,2,,,62,95
37080,note_on,25,0,8,,,,,,,,8,,,62,95
37080,note_on,25,0,5,,,,,,,,5,,,74,95
37080,note_on,25,0,9,,,,,,,,10,,,50,95
37127,note_on,47,0,8,,,,,,,,8,,,62,0
37127,note_on,47,0,9,,,,,,,,10,,,50,0
37127,note_on,47,0,2,,,,,,,,2,,,62,0
37127,note_on,47,0,5,,,,,,,,5,,,74,0
37140,note_on,13,0,8,,,,,,,,8,,,61,95
37140,note_on,13,0,5,,,,,,,,5,,,73,95
37140,note_on,13,0,2,,,,,,,,2,,,61,95
37140,note_on,13,0,9,,,,,,,,10,,,49,95
37150,note_on,190,0,6,,,,,,,,6,,,67,0
37150,note_on,190,0,7,,,,,,,,7,,,64,0
37152,note_on,192,0,1,,,,,,,,1,,,79,0
37152,note_on,0,0,3,,,,,,,,3,,,64,0
37152,note_on,0,0,4,,,,,,,,4,,,76,0
37152,note_on,192,0,4,,,,,,,,4,,,79,0
37152,note_on,192,0,3,,,,,,,,3,,,67,0
37152,note_on,0,0,1,,,,,,,,1,,,76,0
37187,note_on,47,0,8,,,,,,,,8,,,61,0
37187,note_on,47,0,2,,,,,,,,2,,,61,0
37187,note_on,47,0,5,,,,,,,,5,,,73,0
37187,note_on,47,0,9,,,,,,,,10,,,49,0
37200,note_on,13,0,2,,,,,,,,2,,,59,95
37200,note_on,13,0,5,,,,,,,,5,,,71,95
37200,note_on,50,0,7,,,,,,,,7,,,64,95
37200,note_on,48,0,1,,,,,,,,1,,,76,95
37200,note_on,0,0,1,,,,,,,,1,,,79,95
37200,note_on,13,0,8,,,,,,,,8,,,59,95
37200,note_on,50,0,6,,,,,,,,6,,,67,95
37200,note_on,0,0,3,,,,,,,,3,,,67,95
37200,note_on,48,0,3,,,,,,,,3,,,64,95
37200,note_on,48,0,4,,,,,,,,4,,,76,95
37200,note_on,0,0,4,,,,,,,,4,,,79,95
37200,note_on,13,0,9,,,,,,,,10,,,47,95
37247,note_on,47,0,9,,,,,,,,10,,,47,0
37247,note_on,47,0,5,,,,,,,,5,,,71,0
37247,note_on,47,0,2,,,,,,,,2,,,59,0
37247,note_on,47,0,8,,,,,,,,8,,,59,0
37260,note_on,13,0,5,,,,,,,,5,,,69,95
37260,note_on,13,0,2,,,,,,,,2,,,57,95
37260,note_on,13,0,9,,,,,,,,10,,,45,95
37260,note_on,13,0,8,,,,,,,,8,,,57,95
37307,note_on,47,0,9,,,,,,,,10,,,45,0
37307,note_on,47,0,5,,,,,,,,5,,,69,0
37307,note_on,47,0,8,,,,,,,,8,,,57,0
37307,note_on,47,0,2,,,,,,,,2,,,57,0
37320,note_on,13,0,8,,,,,,,,8,,,55,95
37320,note_on,13,0,5,,,,,,,,5,,,67,95
37320,note_on,13,0,9,,,,,,,,10,,,43,95
37320,note_on,13,0,2,,,,,,,,2,,,55,95
37367,note_on,47,0,2,,,,,,,,2,,,55,0
37367,note_on,47,0,8,,,,,,,,8,,,55,0
37367,note_on,47,0,9,,,,,,,,10,,,43,0
37367,note_on,47,0,5,,,,,,,,5,,,67,0
37380,note_on,13,0,2,,,,,,,,2,,,54,95
37380,note_on,13,0,5,,,,,,,,5,,,66,95
37380,note_on,13,0,9,,,,,,,,10,,,42,95
37380,note_on,13,0,8,,,,,,,,8,,,54,95
37390,note_on,190,0,6,,,,,,,,6,,,67,0
37390,note_on,190,0,7,,,,,,,,7,,,64,0
37392,note_on,0,0,1,,,,,,,,1,,,76,0
37392,note_on,192,0,3,,,,,,,,3,,,67,0
37392,note_on,0,0,3,,,,,,,,3,,,64,0
37392,note_on,192,0,1,,,,,,,,1,,,79,0
37392,note_on,192,0,4,,,,,,,,4,,,79,0
37392,note_on,0,0,4,,,,,,,,4,,,76,0
37427,note_on,47,0,9,,,,,,,,10,,,42,0
37427,note_on,47,0,2,,,,,,,,2,,,54,0
37427,note_on,47,0,8,,,,,,,,8,,,54,0
37427,note_on,47,0,5,,,,,,,,5,,,66,0
37440,note_on,50,0,6,,,,,,,,6,,,67,95
37440,note_on,48,0,3,,,,,,,,3,,,64,95
37440,note_on,48,0,1,,,,,,,,1,,,76,95
37440,note_on,13,0,2,,,,,,,,2,,,52,95
37440,note_on,48,0,4,,,,,,,,4,,,76,95
37440,note_on,0,0,4,,,,,,,,4,,,79,95
37440,note_on,13,0,8,,,,,,,,8,,,52,95
37440,note_on,0,0,3,,,,,,,,3,,,67,95
37440,note_on,0,0,1,,,,,,,,1,,,79,95
37440,note_on,50,0,7,,,,,,,,7,,,64,95
37440,note_on,13,0,5,,,,,,,,5,,,64,95
37440,note_on,13,0,9,,,,,,,,10,,,40,95
37535,note_on,95,0,2,,,,,,,,2,,,52,0
37535,note_on,95,0,5,,,,,,,,5,,,64,0
37535,note_on,95,0,9,,,,,,,,10,,,40,0
37535,note_on,95,0,8,,,,,,,,8,,,52,0
37560,note_on,25,0,2,,,,,,,,2,,,64,95
37560,note_on,25,0,9,,,,,,,,10,,,52,95
37560,note_on,25,0,5,,,,,,,,5,,,76,95
37560,note_on,25,0,8,,,,,,,,8,,,64,95
37655,note_on,95,0,2,,,,,,,,2,,,64,0
37655,note_on,95,0,9,,,,,,,,10,,,52,0
37655,note_on,95,0,8,,,,,,,,8,,,64,0
37655,note_on,95,0,5,,,,,,,,5,,,76,0
37680,note_on,25,0,2,,,,,,,,2,,,61,95
37680,note_on,25,0,8,,,,,,,,8,,,61,95
37680,note_on,25,0,9,,,,,,,,10,,,49,95
37680,note_on,25,0,5,,,,,,,,5,,,73,95
37727,note_on,287,0,7,,,,,,,,7,,,64,0
37727,note_on,287,0,6,,,,,,,,6,,,67,0
37728,note_on,0,0,4,,,,,,,,4,,,76,0
37728,note_on,288,0,1,,,,,,,,1,,,79,0
37728,note_on,0,0,1,,,,,,,,1,,,76,0
37728,note_on,0,0,3,,,,,,,,3,,,64,0
37728,note_on,288,0,3,,,,,,,,3,,,67,0
37728,note_on,288,0,4,,,,,,,,4,,,79,0
37775,note_on,95,0,8,,,,,,,,8,,,61,0
37775,note_on,95,0,9,,,,,,,,10,,,49,0
37775,note_on,95,0,2,,,,,,,,2,,,61,0
37775,note_on,95,0,5,,,,,,,,5,,,73,0
37800,note_on,73,0,6,,,,,,,,6,,,69,95
37800,note_on,73,0,7,,,,,,,,7,,,66,95
37800,note_on,25,0,2,,,,,,,,2,,,57,95
37800,note_on,25,0,5,,,,,,,,5,,,69,95
37800,note_on,25,0,9,,,,,,,,10,,,45,95
37800,note_on,0,0,3,,,,,,,,3,,,69,95
37800,note_on,72,0,3,,,,,,,,3,,,66,95
37800,note_on,72,0,4,,,,,,,,4,,,78,95
37800,note_on,25,0,8,,,,,,,,8,,,57,95
37800,note_on,72,0,1,,,,,,,,1,,,78,95
37800,note_on,0,0,1,,,,,,,,1,,,81,95
37800,note_on,0,0,4,,,,,,,,4,,,81,95
37895,note_on,95,0,6,,,,,,,,6,,,69,0
37895,note_on,95,0,9,,,,,,,,10,,,45,0
37895,note_on,95,0,2,,,,,,,,2,,,57,0
37895,note_on,95,0,5,,,,,,,,5,,,69,0
37895,note_on,95,0,7,,,,,,,,7,,,66,0
37895,note_on,95,0,8,,,,,,,,8,,,57,0
37896,note_on,96,0,4,,,,,,,,4,,,81,0
37896,note_on,0,0,1,,,,,,,,1,,,78,0
37896,note_on,96,0,1,,,,,,,,1,,,81,0
37896,note_on,96,0,3,,,,,,,,3,,,69,0
37896,note_on,0,0,3,,,,,,,,3,,,66,0
37896,note_on,0,0,4,,,,,,,,4,,,78,0
37920,note_on,25,0,8,,,,,,,,8,,,62,95
37920,note_on,0,0,1,,,,,,,,1,,,78,95
37920,note_on,24,0,1,,,,,,,,1,,,74,95
37920,note_on,25,0,6,,,,,,,,6,,,66,95
37920,note_on,25,0,5,,,,,,,,5,,,86,95
37920,note_on,0,0,3,,,,,,,,3,,,66,95
37920,note_on,24,0,3,,,,,,,,3,,,62,95
37920,note_on,0,0,4,,,,,,,,4,,,78,95
37920,note_on,25,0,7,,,,,,,,7,,,62,95
37920,note_on,24,0,4,,,,,,,,4,,,74,95
37920,note_on,25,0,9,,,,,,,,10,,,50,95
37920,note_on,25,0,2,,,,,,,,2,,,62,95
38015,note_on,95,0,8,,,,,,,,8,,,62,0
38015,note_on,95,0,9,,,,,,,,10,,,50,0
38015,note_on,95,0,2,,,,,,,,2,,,62,0
38015,note_on,95,0,5,,,,,,,,5,,,86,0
38040,note_on,25,0,9,,,,,,,,10,,,49,95
38040,note_on,25,0,5,,,,,,,,5,,,85,95
38040,note_on,25,0,2,,,,,,,,2,,,61,95
38040,note_on,25,0,8,,,,,,,,8,,,61,95
38087,note_on,47,0,5,,,,,,,,5,,,85,0
38087,note_on,47,0,2,,,,,,,,2,,,61,0
38087,note_on,47,0,9,,,,,,,,10,,,49,0
38087,note_on,47,0,8,,,,,,,,8,,,61,0
38100,note_on,13,0,5,,,,,,,,5,,,83,95
38100,note_on,13,0,2,,,,,,,,2,,,59,95
38100,note_on,13,0,8,,,,,,,,8,,,59,95
38100,note_on,13,0,9,,,,,,,,10,,,47,95
38110,note_on,190,0,6,,,,,,,,6,,,66,0
38110,note_on,190,0,7,,,,,,,,7,,,62,0
38112,note_on,192,0,4,,,,,,,,4,,,78,0
38112,note_on,0,0,4,,,,,,,,4,,,74,0
38112,note_on,0,0,3,,,,,,,,3,,,62,0
38112,note_on,0,0,1,,,,,,,,1,,,74,0
38112,note_on,192,0,1,,,,,,,,1,,,78,0
38112,note_on,192,0,3,,,,,,,,3,,,66,0
38147,note_on,47,0,9,,,,,,,,10,,,47,0
38147,note_on,47,0,2,,,,,,,,2,,,59,0
38147,note_on,47,0,5,,,,,,,,5,,,83,0
38147,note_on,47,0,8,,,,,,,,8,,,59,0
38160,note_on,13,0,5,,,,,,,,5,,,81,95
38160,note_on,13,0,9,,,,,,,,10,,,45,95
38160,note_on,0,0,1,,,,,,,,1,,,78,95
38160,note_on,48,0,1,,,,,,,,1,,,74,95
38160,note_on,50,0,7,,,,,,,,7,,,62,95
38160,note_on,0,0,4,,,,,,,,4,,,78,95
38160,note_on,13,0,8,,,,,,,,8,,,57,95
38160,note_on,48,0,4,,,,,,,,4,,,74,95
38160,note_on,50,0,6,,,,,,,,6,,,66,95
38160,note_on,13,0,2,,,,,,,,2,,,57,95
38160,note_on,0,0,3,,,,,,,,3,,,66,95
38160,note_on,48,0,3,,,,,,,,3,,,62,95
38207,note_on,47,0,9,,,,,,,,10,,,45,0
38207,note_on,47,0,5,,,,,,,,5,,,81,0
38207,note_on,47,0,2,,,,,,,,2,,,57,0
38207,note_on,47,0,8,,,,,,,,8,,,57,0
38220,note_on,13,0,9,,,,,,,,10,,,43,95
38220,note_on,13,0,5,,,,,,,,5,,,79,95
38220,note_on,13,0,8,,,,,,,,8,,,55,95
38220,note_on,13,0,2,,,,,,,,2,,,55,95
38267,note_on,47,0,5,,,,,,,,5,,,79,0
38267,note_on,47,0,2,,,,,,,,2,,,55,0
38267,note_on,47,0,9,,,,,,,,10,,,43,0
38267,note_on,47,0,8,,,,,,,,8,,,55,0
38280,note_on,13,0,9,,,,,,,,10,,,42,95
38280,note_on,13,0,2,,,,,,,,2,,,54,95
38280,note_on,13,0,5,,,,,,,,5,,,78,95
38280,note_on,13,0,8,,,,,,,,8,,,54,95
38327,note_on,47,0,8,,,,,,,,8,,,54,0
38327,note_on,47,0,9,,,,,,,,10,,,42,0
38327,note_on,47,0,5,,,,,,,,5,,,78,0
38327,note_on,47,0,2,,,,,,,,2,,,54,0
38340,note_on,13,0,8,,,,,,,,8,,,52,95
38340,note_on,13,0,2,,,,,,,,2,,,52,95
38340,note_on,13,0,5,,,,,,,,5,,,76,95
38340,note_on,13,0,9,,,,,,,,10,,,40,95
38350,note_on,190,0,6,,,,,,,,6,,,66,0
38350,note_on,190,0,7,,,,,,,,7,,,62,0
38352,note_on,0,0,3,,,,,,,,3,,,62,0
38352,note_on,192,0,4,,,,,,,,4,,,78,0
38352,note_on,0,0,4,,,,,,,,4,,,74,0
38352,note_on,192,0,3,,,,,,,,3,,,66,0
38352,note_on,0,0,1,,,,,,,,1,,,74,0
38352,note_on,192,0,1,,,,,,,,1,,,78,0
38387,note_on,47,0,2,,,,,,,,2,,,52,0
38387,note_on,47,0,8,,,,,,,,8,,,52,0
38387,note_on,47,0,5,,,,,,,,5,,,76,0
38387,note_on,47,0,9,,,,,,,,10,,,40,0
38400,note_on,48,0,3,,,,,,,,3,,,62,95
38400,note_on,50,0,6,,,,,,,,6,,,66,95
38400,note_on,0,0,3,,,,,,,,3,,,66,95
38400,note_on,48,0,1,,,,,,,,1,,,74,95
38400,note_on,0,0,1,,,,,,,,1,,,78,95
38400,note_on,13,0,9,,,,,,,,10,,,38,95
38400,note_on,13,0,8,,,,,,,,8,,,50,95
38400,note_on,13,0,2,,,,,,,,2,,,50,95
38400,note_on,50,0,7,,,,,,,,7,,,62,95
38400,note_on,48,0,4,,,,,,,,4,,,78,95
38400,note_on,0,0,4,,,,,,,,4,,,74,95
38400,note_on,13,0,5,,,,,,,,5,,,74,95
38495,note_on,95,0,5,,,,,,,,5,,,74,0
38495,note_on,95,0,8,,,,,,,,8,,,50,0
38495,note_on,95,0,2,,,,,,,,2,,,50,0
38495,note_on,95,0,9,,,,,,,,10,,,38,0
38520,note_on,25,0,5,,,,,,,,5,,,73,95
38520,note_on,25,0,9,,,,,,,,10,,,37,95
38520,note_on,25,0,8,,,,,,,,8,,,49,95
38520,note_on,25,0,2,,,,,,,,2,,,49,95
38567,note_on,47,0,2,,,,,,,,2,,,49,0
38567,note_on,47,0,8,,,,,,,,8,,,49,0
38567,note_on,47,0,9,,,,,,,,10,,,37,0
38567,note_on,47,0,5,,,,,,,,5,,,73,0
38580,note_on,13,0,2,,,,,,,,2,,,47,95
38580,note_on,13,0,8,,,,,,,,8,,,47,95
38580,note_on,13,0,5,,,,,,,,5,,,71,95
38580,note_on,13,0,9,,,,,,,,10,,,35,95
38627,note_on,47,0,2,,,,,,,,2,,,47,0
38627,note_on,47,0,8,,,,,,,,8,,,47,0
38627,note_on,47,0,9,,,,,,,,10,,,35,0
38627,note_on,47,0,5,,,,,,,,5,,,71,0
38640,note_on,13,0,8,,,,,,,,8,,,45,95
38640,note_on,13,0,2,,,,,,,,2,,,45,95
38640,note_on,13,0,9,,,,,,,,10,,,33,95
38640,note_on,13,0,5,,,,,,,,5,,,69,95
38687,note_on,47,0,5,,,,,,,,5,,,69,0
38687,note_on,47,0,8,,,,,,,,8,,,45,0
38687,note_on,47,0,2,,,,,,,,2,,,45,0
38687,note_on,47,0,9,,,,,,,,10,,,33,0
38687,note_on,287,0,7,,,,,,,,7,,,62,0
38687,note_on,287,0,6,,,,,,,,6,,,66,0
38688,note_on,288,0,3,,,,,,,,3,,,66,0
38688,note_on,0,0,1,,,,,,,,1,,,74,0
38688,note_on,288,0,1,,,,,,,,1,,,78,0
38688,note_on,288,0,4,,,,,,,,4,,,74,0
38688,note_on,0,0,4,,,,,,,,4,,,78,0
38688,note_on,0,0,3,,,,,,,,3,,,62,0
38700,note_on,13,0,9,,,,,,,,10,,,31,95
38700,note_on,13,0,8,,,,,,,,8,,,43,95
38700,note_on,13,0,2,,,,,,,,2,,,43,95
38700,note_on,13,0,5,,,,,,,,5,,,67,95
38747,note_on,47,0,9,,,,,,,,10,,,31,0
38747,note_on,47,0,8,,,,,,,,8,,,43,0
38747,note_on,47,0,5,,,,,,,,5,,,67,0
38747,note_on,47,0,2,,,,,,,,2,,,43,0
38760,note_on,72,0,4,,,,,,,,4,,,79,95
38760,note_on,73,0,6,,,,,,,,6,,,67,95
38760,note_on,13,0,9,,,,,,,,10,,,30,95
38760,note_on,13,0,5,,,,,,,,5,,,66,95
38760,note_on,13,0,2,,,,,,,,2,,,42,95
38760,note_on,72,0,1,,,,,,,,1,,,76,95
38760,note_on,0,0,1,,,,,,,,1,,,79,95
38760,note_on,72,0,3,,,,,,,,3,,,64,95
38760,note_on,0,0,4,,,,,,,,4,,,76,95
38760,note_on,13,0,8,,,,,,,,8,,,42,95
38760,note_on,73,0,7,,,,,,,,7,,,64,95
38760,note_on,0,0,3,,,,,,,,3,,,67,95
38807,note_on,47,0,2,,,,,,,,2,,,42,0
38807,note_on,47,0,9,,,,,,,,10,,,30,0
38807,note_on,47,0,8,,,,,,,,8,,,42,0
38807,note_on,47,0,5,,,,,,,,5,,,66,0
38820,note_on,13,0,2,,,,,,,,2,,,40,95
38820,note_on,13,0,8,,,,,,,,8,,,40,95
38820,note_on,13,0,9,,,,,,,,10,,,28,95
38820,note_on,13,0,5,,,,,,,,5,,,64,95
38855,note_on,95,0,7,,,,,,,,7,,,64,0
38855,note_on,95,0,6,,,,,,,,6,,,67,0
38856,note_on,96,0,1,,,,,,,,1,,,79,0
38856,note_on,0,0,3,,,,,,,,3,,,64,0
38856,note_on,0,0,4,,,,,,,,4,,,79,0
38856,note_on,96,0,4,,,,,,,,4,,,76,0
38856,note_on,96,0,3,,,,,,,,3,,,67,0
38856,note_on,0,0,1,,,,,,,,1,,,76,0
38867,note_on,47,0,2,,,,,,,,2,,,40,0
38867,note_on,47,0,9,,,,,,,,10,,,28,0
38867,note_on,47,0,8,,,,,,,,8,,,40,0
38867,note_on,47,0,5,,,,,,,,5,,,64,0
38880,note_on,24,0,3,,,,,,,,3,,,66,95
38880,note_on,13,0,2,,,,,,,,2,,,38,95
38880,note_on,25,0,7,,,,,,,,7,,,66,95
38880,note_on,0,0,1,,,,,,,,1,,,81,95
38880,note_on,24,0,1,,,,,,,,1,,,78,95
38880,note_on,25,0,6,,,,,,,,6,,,69,95
38880,note_on,0,0,3,,,,,,,,3,,,69,95
38880,note_on,24,0,4,,,,,,,,4,,,81,95
38880,note_on,13,0,8,,,,,,,,8,,,38,95
38880,note_on,13,0,5,,,,,,,,5,,,62,95
38880,note_on,13,0,9,,,,,,,,10,,,26,95
38880,note_on,0,0,4,,,,,,,,4,,,78,95
38975,note_on,95,0,5,,,,,,,,5,,,62,0
38975,note_on,95,0,8,,,,,,,,8,,,38,0
38975,note_on,95,0,7,,,,,,,,7,,,66,0
38975,note_on,95,0,9,,,,,,,,10,,,26,0
38975,note_on,95,0,2,,,,,,,,2,,,38,0
38975,note_on,95,0,6,,,,,,,,6,,,69,0
38976,note_on,96,0,4,,,,,,,,4,,,78,0
38976,note_on,0,0,4,,,,,,,,4,,,81,0
38976,note_on,96,0,3,,,,,,,,3,,,69,0
38976,note_on,0,0,3,,,,,,,,3,,,66,0
38976,note_on,96,0,1,,,,,,,,1,,,81,0
38976,note_on,0,0,1,,,,,,,,1,,,78,0
39000,note_on,25,0,6,,,,,,,,6,,,67,95
39000,note_on,24,0,3,,,,,,,,3,,,64,95
39000,note_on,25,0,2,,,,,,,,2,,,43,95
39000,note_on,25,0,5,,,,,,,,5,,,86,95
39000,note_on,25,0,8,,,,,,,,8,,,43,95
39000,note_on,0,0,1,,,,,,,,1,,,79,95
39000,note_on,25,0,9,,,,,,,,10,,,31,95
39000,note_on,0,0,3,,,,,,,,3,,,67,95
39000,note_on,24,0,1,,,,,,,,1,,,76,95
39000,note_on,25,0,7,,,,,,,,7,,,64,95
39000,note_on,0,0,4,,,,,,,,4,,,76,95
39000,note_on,24,0,4,,,,,,,,4,,,79,95
39047,note_on,47,0,6,,,,,,,,6,,,67,0
39047,note_on,47,0,7,,,,,,,,7,,,64,0
39048,note_on,48,0,1,,,,,,,,1,,,79,0
39048,note_on,48,0,4,,,,,,,,4,,,76,0
39048,note_on,48,0,3,,,,,,,,3,,,67,0
39048,note_on,0,0,1,,,,,,,,1,,,76,0
39048,note_on,0,0,3,,,,,,,,3,,,64,0
39048,note_on,0,0,4,,,,,,,,4,,,79,0
39060,note_on,12,0,1,,,,,,,,1,,,74,95
39060,note_on,0,0,1,,,,,,,,1,,,78,95
39060,note_on,12,0,4,,,,,,,,4,,,78,95
39060,note_on,12,0,3,,,,,,,,3,,,62,95
39060,note_on,13,0,6,,,,,,,,6,,,66,95
39060,note_on,0,0,4,,,,,,,,4,,,74,95
39060,note_on,0,0,3,,,,,,,,3,,,66,95
39060,note_on,13,0,7,,,,,,,,7,,,62,95
39095,note_on,95,0,8,,,,,,,,8,,,43,0
39095,note_on,95,0,9,,,,,,,,10,,,31,0
39095,note_on,95,0,5,,,,,,,,5,,,86,0
39095,note_on,95,0,2,,,,,,,,2,,,43,0
39107,note_on,47,0,7,,,,,,,,7,,,62,0
39107,note_on,47,0,6,,,,,,,,6,,,66,0
39108,note_on,48,0,1,,,,,,,,1,,,78,0
39108,note_on,0,0,1,,,,,,,,1,,,74,0
39108,note_on,48,0,4,,,,,,,,4,,,74,0
39108,note_on,0,0,4,,,,,,,,4,,,78,0
39108,note_on,48,0,3,,,,,,,,3,,,66,0
39108,note_on,0,0,3,,,,,,,,3,,,62,0
39120,note_on,13,0,7,,,,,,,,7,,,69,95
39120,note_on,25,0,8,,,,,,,,8,,,45,95
39120,note_on,25,0,9,,,,,,,,10,,,33,95
39120,note_on,12,0,4,,,,,,,,4,,,76,95
39120,note_on,0,0,4,,,,,,,,4,,,69,95
39120,note_on,13,0,6,,,,,,,,6,,,64,95
39120,note_on,0,0,1,,,,,,,,1,,,76,95
39120,note_on,12,0,1,,,,,,,,1,,,73,95
39120,note_on,25,0,2,,,,,,,,2,,,45,95
39120,note_on,0,0,3,,,,,,,,3,,,64,95
39120,note_on,12,0,3,,,,,,,,3,,,57,95
39120,note_on,25,0,5,,,,,,,,5,,,85,95
39215,note_on,95,0,7,,,,,,,,7,,,69,0
39215,note_on,95,0,8,,,,,,,,8,,,45,0
39215,note_on,95,0,2,,,,,,,,2,,,45,0
39215,note_on,95,0,9,,,,,,,,10,,,33,0
39216,note_on,96,0,4,,,,,,,,4,,,69,0
39216,note_on,96,0,3,,,,,,,,3,,,57,0
39240,note_on,25,0,7,,,,,,,,7,,,69,95
39240,note_on,25,0,9,,,,,,,,10,,,33,95
39240,note_on,24,0,4,,,,,,,,4,,,69,95
39240,note_on,25,0,8,,,,,,,,8,,,45,95
39240,note_on,25,0,2,,,,,,,,2,,,45,95
39240,note_on,24,0,3,,,,,,,,3,,,57,95
39264,note_on,24,0,4,,,,,,,,4,,,76,0
39264,note_on,24,0,3,,,,,,,,3,,,64,0
39264,note_on,0,0,1,,,,,,,,1,,,73,0
39264,note_on,144,0,1,,,,,,,,1,,,76,0
39265,note_on,145,0,6,,,,,,,,6,,,64,0
39265,note_on,145,0,5,,,,,,,,5,,,85,0
39300,note_on,35,0,5,,,,,,,,5,,,86,95
39300,note_on,35,0,6,,,,,,,,6,,,62,95
39300,note_on,36,0,4,,,,,,,,4,,,74,95
39300,note_on,36,0,3,,,,,,,,3,,,62,95
39300,note_on,36,0,1,,,,,,,,1,,,74,95
39300,note_on,0,0,1,,,,,,,,1,,,74,95
39335,note_on,95,0,9,,,,,,,,10,,,33,0
39335,note_on,95,0,2,,,,,,,,2,,,45,0
39335,note_on,95,0,7,,,,,,,,7,,,69,0
39335,note_on,95,0,8,,,,,,,,8,,,45,0
39336,note_on,36,0,4,,,,,,,,4,,,69,0
39336,note_on,36,0,3,,,,,,,,3,,,57,0
39347,note_on,47,0,6,,,,,,,,6,,,62,0
39347,note_on,47,0,5,,,,,,,,5,,,86,0
39348,note_on,12,0,4,,,,,,,,4,,,74,0
39348,note_on,0,0,1,,,,,,,,1,,,74,0
39348,note_on,48,0,1,,,,,,,,1,,,74,0
39348,note_on,12,0,3,,,,,,,,3,,,62,0
39360,note_on,25,0,2,,,,,,,,2,,,38,95
39360,note_on,0,0,3,,,,,,,,3,,,62,95
39360,note_on,13,0,5,,,,,,,,5,,,86,95
39360,note_on,13,0,6,,,,,,,,6,,,62,95
39360,note_on,12,0,3,,,,,,,,3,,,54,95
39360,note_on,12,0,1,,,,,,,,1,,,74,95
39360,note_on,25,0,9,,,,,,,,10,,,26,95
39360,note_on,12,0,4,,,,,,,,4,,,66,95
39360,note_on,0,0,4,,,,,,,,4,,,74,95
39360,note_on,0,0,1,,,,,,,,1,,,74,95
39360,note_on,25,0,8,,,,,,,,8,,,38,95
39360,note_on,25,0,7,,,,,,,,7,,,66,95
39455,note_on,95,0,5,,,,,,,,5,,,86,0
39480,note_on,25,0,5,,,,,,,,5,,,81,95
39550,note_on,190,0,6,,,,,,,,6,,,62,0
39550,note_on,190,0,9,,,,,,,,10,,,26,0
39550,note_on,190,0,2,,,,,,,,2,,,38,0
39550,note_on,190,0,7,,,,,,,,7,,,66,0
39550,note_on,190,0,8,,,,,,,,8,,,38,0
39552,note_on,192,0,1,,,,,,,,1,,,74,0
39552,note_on,0,0,1,,,,,,,,1,,,74,0
39575,note_on,95,0,5,,,,,,,,5,,,81,0
39600,note_on,25,0,5,,,,,,,,5,,,78,95
39648,note_on,288,0,3,,,,,,,,3,,,62,0
39648,note_on,0,0,3,,,,,,,,3,,,54,0
39648,note_on,288,0,4,,,,,,,,4,,,74,0
39648,note_on,0,0,4,,,,,,,,4,,,66,0
39660,note_on,12,0,4,,,,,,,,4,,,76,95
39660,note_on,12,0,3,,,,,,,,3,,,64,95
39695,note_on,95,0,5,,,,,,,,5,,,78,0
39708,note_on,48,0,4,,,,,,,,4,,,76,0
39708,note_on,48,0,3,,,,,,,,3,,,64,0
39720,note_on,170,0,9,,,,,,,,10,,,38,95
39720,note_on,25,0,5,,,,,,,,5,,,81,95
39720,note_on,168,0,1,,,,,,,,1,,,74,95
39720,note_on,170,0,2,,,,,,,,2,,,50,95
39720,note_on,170,0,7,,,,,,,,7,,,66,95
39720,note_on,0,0,4,,,,,,,,4,,,78,95
39720,note_on,170,0,8,,,,,,,,8,,,50,95
39720,note_on,12,0,3,,,,,,,,3,,,62,95
39720,note_on,12,0,4,,,,,,,,4,,,74,95
39720,note_on,0,0,3,,,,,,,,3,,,66,95
39720,note_on,0,0,1,,,,,,,,1,,,78,95
39720,note_on,170,0,6,,,,,,,,6,,,66,95
39768,note_on,48,0,3,,,,,,,,3,,,66,0
39768,note_on,48,0,4,,,,,,,,4,,,78,0
39780,note_on,12,0,3,,,,,,,,3,,,67,95
39780,note_on,12,0,4,,,,,,,,4,,,79,95
39815,note_on,95,0,9,,,,,,,,10,,,38,0
39815,note_on,95,0,5,,,,,,,,5,,,81,0
39815,note_on,95,0,7,,,,,,,,7,,,66,0
39815,note_on,95,0,8,,,,,,,,8,,,50,0
39815,note_on,95,0,6,,,,,,,,6,,,66,0
39815,note_on,95,0,2,,,,,,,,2,,,50,0
39816,note_on,0,0,1,,,,,,,,1,,,74,0
39816,note_on,36,0,4,,,,,,,,4,,,74,0
39816,note_on,96,0,1,,,,,,,,1,,,78,0
39816,note_on,36,0,3,,,,,,,,3,,,62,0
39828,note_on,12,0,3,,,,,,,,3,,,67,0
39828,note_on,12,0,4,,,,,,,,4,,,79,0
39840,note_on,25,0,2,,,,,,,,2,,,62,95
39840,note_on,0,0,4,,,,,,,,4,,,81,95
39840,note_on,12,0,4,,,,,,,,4,,,78,95
39840,note_on,25,0,7,,,,,,,,7,,,66,95
39840,note_on,25,0,5,,,,,,,,5,,,86,95
39840,note_on,24,0,1,,,,,,,,1,,,78,95
39840,note_on,0,0,1,,,,,,,,1,,,81,95
39840,note_on,0,0,3,,,,,,,,3,,,69,95
39840,note_on,12,0,3,,,,,,,,3,,,66,95
39840,note_on,25,0,8,,,,,,,,8,,,62,95
39840,note_on,25,0,6,,,,,,,,6,,,69,95
39840,note_on,25,0,9,,,,,,,,10,,,50,95
39935,note_on,95,0,5,,,,,,,,5,,,86,0
39935,note_on,95,0,8,,,,,,,,8,,,62,0
39935,note_on,95,0,2,,,,,,,,2,,,62,0
39935,note_on,95,0,9,,,,,,,,10,,,50,0
39935,note_on,95,0,7,,,,,,,,7,,,66,0
39935,note_on,95,0,6,,,,,,,,6,,,69,0
39936,note_on,0,0,4,,,,,,,,4,,,78,0
39936,note_on,96,0,4,,,,,,,,4,,,81,0
39936,note_on,96,0,3,,,,,,,,3,,,69,0
39936,note_on,0,0,1,,,,,,,,1,,,78,0
39936,note_on,96,0,1,,,,,,,,1,,,81,0
39936,note_on,0,0,3,,,,,,,,3,,,66,0
39960,note_on,25,0,2,,,,,,,,2,,,50,95
39960,note_on,25,0,6,,,,,,,,6,,,69,95
39960,note_on,25,0,9,,,,,,,,10,,,38,95
39960,note_on,25,0,8,,,,,,,,8,,,50,95
39960,note_on,0,0,3,,,,,,,,3,,,69,95
39960,note_on,25,0,5,,,,,,,,5,,,85,95
39960,note_on,24,0,4,,,,,,,,4,,,78,95
39960,note_on,0,0,4,,,,,,,,4,,,81,95
39960,note_on,24,0,1,,,,,,,,1,,,78,95
39960,note_on,0,0,1,,,,,,,,1,,,81,95
39960,note_on,24,0,3,,,,,,,,3,,,66,95
39960,note_on,25,0,7,,,,,,,,7,,,66,95
40007,note_on,47,0,5,,,,,,,,5,,,85,0
40020,note_on,13,0,5,,,,,,,,5,,,83,95
40055,note_on,95,0,7,,,,,,,,7,,,66,0
40055,note_on,95,0,9,,,,,,,,10,,,38,0
40055,note_on,95,0,2,,,,,,,,2,,,50,0
40055,note_on,95,0,8,,,,,,,,8,,,50,0
40055,note_on,95,0,6,,,,,,,,6,,,69,0
40056,note_on,0,0,3,,,,,,,,3,,,66,0
40056,note_on,96,0,3,,,,,,,,3,,,69,0
40056,note_on,0,0,1,,,,,,,,1,,,78,0
40056,note_on,96,0,1,,,,,,,,1,,,81,0
40056,note_on,96,0,4,,,,,,,,4,,,81,0
40056,note_on,0,0,4,,,,,,,,4,,,78,0
40067,note_on,47,0,5,,,,,,,,5,,,83,0
40080,note_on,13,0,5,,,,,,,,5,,,81,95
40080,note_on,0,0,3,,,,,,,,3,,,69,95
40080,note_on,24,0,1,,,,,,,,1,,,78,95
40080,note_on,0,0,1,,,,,,,,1,,,81,95
40080,note_on,25,0,6,,,,,,,,6,,,69,95
40080,note_on,25,0,8,,,,,,,,8,,,54,95
40080,note_on,25,0,7,,,,,,,,7,,,66,95
40080,note_on,24,0,3,,,,,,,,3,,,66,95
40080,note_on,25,0,9,,,,,,,,10,,,42,95
40080,note_on,25,0,2,,,,,,,,2,,,54,95
40080,note_on,24,0,4,,,,,,,,4,,,78,95
40080,note_on,0,0,4,,,,,,,,4,,,81,95
40127,note_on,47,0,5,,,,,,,,5,,,81,0
40140,note_on,13,0,5,,,,,,,,5,,,79,95
40175,note_on,95,0,8,,,,,,,,8,,,54,0
40175,note_on,95,0,7,,,,,,,,7,,,66,0
40175,note_on,95,0,2,,,,,,,,2,,,54,0
40175,note_on,95,0,6,,,,,,,,6,,,69,0
40175,note_on,95,0,9,,,,,,,,10,,,42,0
40176,note_on,96,0,3,,,,,,,,3,,,69,0
40176,note_on,0,0,3,,,,,,,,3,,,66,0
40176,note_on,96,0,1,,,,,,,,1,,,81,0
40176,note_on,0,0,1,,,,,,,,1,,,78,0
40176,note_on,96,0,4,,,,,,,,4,,,81,0
40176,note_on,0,0,4,,,,,,,,4,,,78,0
40187,note_on,47,0,5,,,,,,,,5,,,79,0
40200,note_on,0,0,4,,,,,,,,4,,,81,95
40200,note_on,25,0,2,,,,,,,,2,,,57,95
40200,note_on,24,0,4,,,,,,,,4,,,78,95
40200,note_on,25,0,8,,,,,,,,8,,,57,95
40200,note_on,24,0,1,,,,,,,,1,,,78,95
40200,note_on,25,0,7,,,,,,,,7,,,66,95
40200,note_on,0,0,1,,,,,,,,1,,,81,95
40200,note_on,24,0,3,,,,,,,,3,,,66,95
40200,note_on,0,0,3,,,,,,,,3,,,69,95
40200,note_on,25,0,9,,,,,,,,10,,,45,95
40200,note_on,13,0,5,,,,,,,,5,,,78,95
40200,note_on,25,0,6,,,,,,,,6,,,69,95
40247,note_on,47,0,5,,,,,,,,5,,,78,0
40260,note_on,13,0,5,,,,,,,,5,,,76,95
40295,note_on,95,0,8,,,,,,,,8,,,57,0
40295,note_on,95,0,7,,,,,,,,7,,,66,0
40295,note_on,95,0,9,,,,,,,,10,,,45,0
40295,note_on,95,0,6,,,,,,,,6,,,69,0
40295,note_on,95,0,2,,,,,,,,2,,,57,0
40296,note_on,0,0,1,,,,,,,,1,,,78,0
40296,note_on,96,0,4,,,,,,,,4,,,81,0
40296,note_on,0,0,4,,,,,,,,4,,,78,0
40296,note_on,96,0,1,,,,,,,,1,,,81,0
40296,note_on,96,0,3,,,,,,,,3,,,69,0
40296,note_on,0,0,3,,,,,,,,3,,,66,0
40307,note_on,47,0,5,,,,,,,,5,,,76,0
40320,note_on,24,0,1,,,,,,,,1,,,78,95
40320,note_on,0,0,4,,,,,,,,4,,,78,95
40320,note_on,25,0,8,,,,,,,,8,,,62,95
40320,note_on,13,0,5,,,,,,,,5,,,74,95
40320,note_on,0,0,1,,,,,,,,1,,,81,95
40320,note_on,24,0,4,,,,,,,,4,,,81,95
40320,note_on,25,0,2,,,,,,,,2,,,62,95
40320,note_on,25,0,9,,,,,,,,10,,,50,95
40320,note_on,0,0,3,,,,,,,,3,,,69,95
40320,note_on,24,0,3,,,,,,,,3,,,66,95
40320,note_on,25,0,6,,,,,,,,6,,,69,95
40320,note_on,25,0,7,,,,,,,,7,,,66,95
40415,note_on,95,0,5,,,,,,,,5,,,74,0
40415,note_on,95,0,2,,,,,,,,2,,,62,0
40415,note_on,95,0,8,,,,,,,,8,,,62,0
40415,note_on,95,0,9,,,,,,,,10,,,50,0
40440,note_on,25,0,9,,,,,,,,10,,,45,95
40440,note_on,25,0,2,,,,,,,,2,,,57,95
40440,note_on,25,0,8,,,,,,,,8,,,57,95
40440,note_on,25,0,5,,,,,,,,5,,,69,95
40535,note_on,95,0,2,,,,,,,,2,,,57,0
40535,note_on,95,0,8,,,,,,,,8,,,57,0
40535,note_on,95,0,9,,,,,,,,10,,,45,0
40535,note_on,95,0,5,,,,,,,,5,,,69,0
40560,note_on,25,0,8,,,,,,,,8,,,54,95
40560,note_on,25,0,2,,,,,,,,2,,,54,95
40560,note_on,25,0,9,,,,,,,,10,,,42,95
40560,note_on,25,0,5,,,,,,,,5,,,66,95
40607,note_on,287,0,6,,,,,,,,6,,,69,0
40607,note_on,287,0,7,,,,,,,,7,,,66,0
40608,note_on,288,0,1,,,,,,,,1,,,81,0
40608,note_on,0,0,1,,,,,,,,1,,,78,0
40608,note_on,288,0,3,,,,,,,,3,,,69,0
40608,note_on,288,0,4,,,,,,,,4,,,78,0
40608,note_on,0,0,4,,,,,,,,4,,,81,0
40608,note_on,0,0,3,,,,,,,,3,,,66,0
40655,note_on,95,0,5,,,,,,,,5,,,66,0
40655,note_on,95,0,9,,,,,,,,10,,,42,0
40655,note_on,95,0,2,,,,,,,,2,,,54,0
40655,note_on,95,0,8,,,,,,,,8,,,54,0
40680,note_on,73,0,7,,,,,,,,7,,,67,95
40680,note_on,25,0,8,,,,,,,,8,,,50,95
40680,note_on,25,0,2,,,,,,,,2,,,50,95
40680,note_on,0,0,3,,,,,,,,3,,,71,95
40680,note_on,25,0,5,,,,,,,,5,,,62,95
40680,note_on,25,0,9,,,,,,,,10,,,38,95
40680,note_on,73,0,6,,,,,,,,6,,,71,95
40680,note_on,0,0,4,,,,,,,,4,,,79,95
40680,note_on,0,0,1,,,,,,,,1,,,83,95
40680,note_on,72,0,1,,,,,,,,1,,,79,95
40680,note_on,72,0,4,,,,,,,,4,,,83,95
40680,note_on,72,0,3,,,,,,,,3,,,67,95
40775,note_on,95,0,9,,,,,,,,10,,,38,0
40775,note_on,95,0,6,,,,,,,,6,,,71,0
40775,note_on,95,0,8,,,,,,,,8,,,50,0
40775,note_on,95,0,2,,,,,,,,2,,,50,0
40775,note_on,95,0,7,,,,,,,,7,,,67,0
40775,note_on,95,0,5,,,,,,,,5,,,62,0
40776,note_on,96,0,3,,,,,,,,3,,,71,0
40776,note_on,0,0,4,,,,,,,,4,,,83,0
40776,note_on,0,0,1,,,,,,,,1,,,79,0
40776,note_on,96,0,1,,,,,,,,1,,,83,0
40776,note_on,0,0,3,,,,,,,,3,,,67,0
40776,note_on,96,0,4,,,,,,,,4,,,79,0
40800,note_on,24,0,4,,,,,,,,4,,,79,95
40800,note_on,0,0,1,,,,,,,,1,,,79,95
40800,note_on,24,0,1,,,,,,,,1,,,76,95
40800,note_on,0,0,4,,,,,,,,4,,,76,95
40800,note_on,25,0,9,,,,,,,,10,,,52,95
40800,note_on,25,0,6,,,,,,,,6,,,67,95
40800,note_on,25,0,5,,,,,,,,5,,,76,95
40800,note_on,25,0,2,,,,,,,,2,,,64,95
40800,note_on,25,0,7,,,,,,,,7,,,64,95
40800,note_on,0,0,3,,,,,,,,3,,,67,95
40800,note_on,24,0,3,,,,,,,,3,,,64,95
40800,note_on,25,0,8,,,,,,,,8,,,64,95
40895,note_on,95,0,6,,,,,,,,6,,,67,0
40895,note_on,95,0,5,,,,,,,,5,,,76,0
40895,note_on,95,0,2,,,,,,,,2,,,64,0
40895,note_on,95,0,8,,,,,,,,8,,,64,0
40895,note_on,95,0,7,,,,,,,,7,,,64,0
40895,note_on,95,0,9,,,,,,,,10,,,52,0
40896,note_on,96,0,1,,,,,,,,1,,,79,0
40896,note_on,0,0,3,,,,,,,,3,,,64,0
40896,note_on,96,0,3,,,,,,,,3,,,67,0
40896,note_on,0,0,1,,,,,,,,1,,,76,0
40896,note_on,96,0,4,,,,,,,,4,,,76,0
40896,note_on,0,0,4,,,,,,,,4,,,79,0
40920,note_on,0,0,3,,,,,,,,3,,,67,95
40920,note_on,25,0,7,,,,,,,,7,,,64,95
40920,note_on,25,0,6,,,,,,,,6,,,67,95
40920,note_on,25,0,2,,,,,,,,2,,,62,95
40920,note_on,24,0,3,,,,,,,,3,,,64,95
40920,note_on,25,0,8,,,,,,,,8,,,62,95
40920,note_on,25,0,9,,,,,,,,10,,,50,95
40920,note_on,0,0,1,,,,,,,,1,,,79,95
40920,note_on,24,0,1,,,,,,,,1,,,76,95
40920,note_on,24,0,4,,,,,,,,4,,,79,95
40920,note_on,0,0,4,,,,,,,,4,,,76,95
40920,note_on,25,0,5,,,,,,,,5,,,74,95
40967,note_on,47,0,5,,,,,,,,5,,,74,0
40967,note_on,47,0,2,,,,,,,,2,,,62,0
40967,note_on,47,0,8,,,,,,,,8,,,62,0
40967,note_on,47,0,9,,,,,,,,10,,,50,0
40980,note_on,13,0,8,,,,,,,,8,,,61,95
40980,note_on,13,0,2,,,,,,,,2,,,61,95
40980,note_on,13,0,5,,,,,,,,5,,,73,95
40980,note_on,13,0,9,,,,,,,,10,,,49,95
41015,note_on,95,0,7,,,,,,,,7,,,64,0
41015,note_on,95,0,6,,,,,,,,6,,,67,0
41016,note_on,0,0,3,,,,,,,,3,,,64,0
41016,note_on,0,0,1,,,,,,,,1,,,76,0
41016,note_on,96,0,4,,,,,,,,4,,,76,0
41016,note_on,0,0,4,,,,,,,,4,,,79,0
41016,note_on,96,0,3,,,,,,,,3,,,67,0
41016,note_on,96,0,1,,,,,,,,1,,,79,0
41027,note_on,47,0,9,,,,,,,,10,,,49,0
41027,note_on,47,0,8,,,,,,,,8,,,61,0
41027,note_on,47,0,5,,,,,,,,5,,,73,0
41027,note_on,47,0,2,,,,,,,,2,,,61,0
41040,note_on,13,0,5,,,,,,,,5,,,71,95
41040,note_on,24,0,3,,,,,,,,3,,,64,95
41040,note_on,13,0,8,,,,,,,,8,,,59,95
41040,note_on,25,0,7,,,,,,,,7,,,64,95
41040,note_on,0,0,4,,,,,,,,4,,,76,95
41040,note_on,13,0,2,,,,,,,,2,,,59,95
41040,note_on,0,0,3,,,,,,,,3,,,67,95
41040,note_on,0,0,1,,,,,,,,1,,,79,95
41040,note_on,24,0,1,,,,,,,,1,,,76,95
41040,note_on,13,0,9,,,,,,,,10,,,47,95
41040,note_on,24,0,4,,,,,,,,4,,,79,95
41040,note_on,25,0,6,,,,,,,,6,,,67,95
41087,note_on,47,0,5,,,,,,,,5,,,71,0
41087,note_on,47,0,8,,,,,,,,8,,,59,0
41087,note_on,47,0,9,,,,,,,,10,,,47,0
41087,note_on,47,0,2,,,,,,,,2,,,59,0
41100,note_on,13,0,9,,,,,,,,10,,,45,95
41100,note_on,13,0,2,,,,,,,,2,,,57,95
41100,note_on,13,0,5,,,,,,,,5,,,69,95
41100,note_on,13,0,8,,,,,,,,8,,,57,95
41135,note_on,95,0,6,,,,,,,,6,,,67,0
41135,note_on,95,0,7,,,,,,,,7,,,64,0
41136,note_on,0,0,4,,,,,,,,4,,,79,0
41136,note_on,96,0,4,,,,,,,,4,,,76,0
41136,note_on,0,0,3,,,,,,,,3,,,64,0
41136,note_on,96,0,3,,,,,,,,3,,,67,0
41136,note_on,0,0,1,,,,,,,,1,,,76,0
41136,note_on,96,0,1,,,,,,,,1,,,79,0
41147,note_on,47,0,2,,,,,,,,2,,,57,0
41147,note_on,47,0,5,,,,,,,,5,,,69,0
41147,note_on,47,0,9,,,,,,,,10,,,45,0
41147,note_on,47,0,8,,,,,,,,8,,,57,0
41160,note_on,13,0,8,,,,,,,,8,,,55,95
41160,note_on,25,0,7,,,,,,,,7,,,64,95
41160,note_on,25,0,6,,,,,,,,6,,,67,95
41160,note_on,13,0,9,,,,,,,,10,,,43,95
41160,note_on,24,0,3,,,,,,,,3,,,64,95
41160,note_on,0,0,3,,,,,,,,3,,,67,95
41160,note_on,0,0,4,,,,,,,,4,,,76,95
41160,note_on,13,0,5,,,,,,,,5,,,67,95
41160,note_on,0,0,1,,,,,,,,1,,,79,95
41160,note_on,13,0,2,,,,,,,,2,,,55,95
41160,note_on,24,0,1,,,,,,,,1,,,76,95
41160,note_on,24,0,4,,,,,,,,4,,,79,95
41207,note_on,47,0,9,,,,,,,,10,,,43,0
41207,note_on,47,0,5,,,,,,,,5,,,67,0
41207,note_on,47,0,8,,,,,,,,8,,,55,0
41207,note_on,47,0,2,,,,,,,,2,,,55,0
41220,note_on,13,0,8,,,,,,,,8,,,54,95
41220,note_on,13,0,2,,,,,,,,2,,,54,95
41220,note_on,13,0,9,,,,,,,,10,,,42,95
41220,note_on,13,0,5,,,,,,,,5,,,66,95
41255,note_on,95,0,6,,,,,,,,6,,,67,0
41255,note_on,95,0,7,,,,,,,,7,,,64,0
41256,note_on,96,0,1,,,,,,,,1,,,79,0
41256,note_on,0,0,1,,,,,,,,1,,,76,0
41256,note_on,0,0,4,,,,,,,,4,,,79,0
41256,note_on,96,0,3,,,,,,,,3,,,67,0
41256,note_on,96,0,4,,,,,,,,4,,,76,0
41256,note_on,0,0,3,,,,,,,,3,,,64,0
41267,note_on,47,0,2,,,,,,,,2,,,54,0
41267,note_on,47,0,9,,,,,,,,10,,,42,0
41267,note_on,47,0,5,,,,,,,,5,,,66,0
41267,note_on,47,0,8,,,,,,,,8,,,54,0
41280,note_on,24,0,1,,,,,,,,1,,,76,95
41280,note_on,13,0,9,,,,,,,,10,,,40,95
41280,note_on,24,0,3,,,,,,,,3,,,67,95
41280,note_on,25,0,7,,,,,,,,7,,,64,95
41280,note_on,0,0,3,,,,,,,,3,,,64,95
41280,note_on,24,0,4,,,,,,,,4,,,76,95
41280,note_on,0,0,1,,,,,,,,1,,,79,95
41280,note_on,13,0,8,,,,,,,,8,,,52,95
41280,note_on,0,0,4,,,,,,,,4,,,79,95
41280,note_on,13,0,2,,,,,,,,2,,,52,95
41280,note_on,13,0,5,,,,,,,,5,,,64,95
41280,note_on,25,0,6,,,,,,,,6,,,67,95
41375,note_on,95,0,9,,,,,,,,10,,,40,0
41375,note_on,95,0,5,,,,,,,,5,,,64,0
41375,note_on,95,0,2,,,,,,,,2,,,52,0
41375,note_on,95,0,8,,,,,,,,8,,,52,0
41400,note_on,25,0,2,,,,,,,,2,,,64,95
41400,note_on,25,0,8,,,,,,,,8,,,64,95
41400,note_on,25,0,5,,,,,,,,5,,,76,95
41400,note_on,25,0,9,,,,,,,,10,,,52,95
41495,note_on,95,0,9,,,,,,,,10,,,52,0
41495,note_on,95,0,5,,,,,,,,5,,,76,0
41495,note_on,95,0,8,,,,,,,,8,,,64,0
41495,note_on,95,0,2,,,,,,,,2,,,64,0
41520,note_on,25,0,2,,,,,,,,2,,,61,95
41520,note_on,25,0,8,,,,,,,,8,,,61,95
41520,note_on,25,0,5,,,,,,,,5,,,73,95
41520,note_on,25,0,9,,,,,,,,10,,,49,95
41567,note_on,287,0,6,,,,,,,,6,,,67,0
41567,note_on,287,0,7,,,,,,,,7,,,64,0
41568,note_on,288,0,1,,,,,,,,1,,,79,0
41568,note_on,288,0,3,,,,,,,,3,,,64,0
41568,note_on,0,0,3,,,,,,,,3,,,67,0
41568,note_on,288,0,4,,,,,,,,4,,,79,0
41568,note_on,0,0,4,,,,,,,,4,,,76,0
41568,note_on,0,0,1,,,,,,,,1,,,76,0
41615,note_on,95,0,2,,,,,,,,2,,,61,0
41615,note_on,95,0,5,,,,,,,,5,,,73,0
41615,note_on,95,0,9,,,,,,,,10,,,49,0
41615,note_on,95,0,8,,,,,,,,8,,,61,0
41640,note_on,25,0,5,,,,,,,,5,,,69,95
41640,note_on,73,0,7,,,,,,,,7,,,66,95
41640,note_on,72,0,4,,,,,,,,4,,,78,95
41640,note_on,0,0,4,,,,,,,,4,,,81,95
41640,note_on,72,0,1,,,,,,,,1,,,78,95
41640,note_on,0,0,1,,,,,,,,1,,,81,95
41640,note_on,73,0,6,,,,,,,,6,,,69,95
41640,note_on,25,0,2,,,,,,,,2,,,57,95
41640,note_on,25,0,8,,,,,,,,8,,,57,95
41640,note_on,25,0,9,,,,,,,,10,,,45,95
41640,note_on,0,0,3,,,,,,,,3,,,66,95
41640,note_on,72,0,3,,,,,,,,3,,,69,95
41735,note_on,95,0,6,,,,,,,,6,,,69,0
41735,note_on,95,0,2,,,,,,,,2,,,57,0
41735,note_on,95,0,9,,,,,,,,10,,,45,0
41735,note_on,95,0,8,,,,,,,,8,,,57,0
41735,note_on,95,0,7,,,,,,,,7,,,66,0
41735,note_on,95,0,5,,,,,,,,5,,,69,0
41736,note_on,0,0,1,,,,,,,,1,,,78,0
41736,note_on,96,0,1,,,,,,,,1,,,81,0
41736,note_on,0,0,3,,,,,,,,3,,,69,0
41736,note_on,96,0,4,,,,,,,,4,,,81,0
41736,note_on,96,0,3,,,,,,,,3,,,66,0
41736,note_on,0,0,4,,,,,,,,4,,,78,0
41760,note_on,25,0,5,,,,,,,,5,,,86,95
41760,note_on,25,0,2,,,,,,,,2,,,62,95
41760,note_on,25,0,8,,,,,,,,8,,,62,95
41760,note_on,25,0,7,,,,,,,,7,,,62,95
41760,note_on,24,0,3,,,,,,,,3,,,66,95
41760,note_on,0,0,3,,,,,,,,3,,,62,95
41760,note_on,24,0,4,,,,,,,,4,,,74,95
41760,note_on,0,0,4,,,,,,,,4,,,78,95
41760,note_on,0,0,1,,,,,,,,1,,,78,95
41760,note_on,25,0,9,,,,,,,,10,,,50,95
41760,note_on,25,0,6,,,,,,,,6,,,66,95
41760,note_on,24,0,1,,,,,,,,1,,,74,95
41855,note_on,95,0,9,,,,,,,,10,,,50,0
41855,note_on,95,0,5,,,,,,,,5,,,86,0
41855,note_on,95,0,2,,,,,,,,2,,,62,0
41855,note_on,95,0,7,,,,,,,,7,,,62,0
41855,note_on,95,0,6,,,,,,,,6,,,66,0
41855,note_on,95,0,8,,,,,,,,8,,,62,0
41856,note_on,0,0,1,,,,,,,,1,,,74,0
41856,note_on,96,0,1,,,,,,,,1,,,78,0
41856,note_on,0,0,4,,,,,,,,4,,,74,0
41856,note_on,96,0,4,,,,,,,,4,,,78,0
41856,note_on,0,0,3,,,,,,,,3,,,66,0
41856,note_on,96,0,3,,,,,,,,3,,,62,0
41880,note_on,0,0,4,,,,,,,,4,,,78,95
41880,note_on,0,0,1,,,,,,,,1,,,78,95
41880,note_on,25,0,8,,,,,,,,8,,,61,95
41880,note_on,24,0,1,,,,,,,,1,,,74,95
41880,note_on,25,0,6,,,,,,,,6,,,66,95
41880,note_on,25,0,2,,,,,,,,2,,,61,95
41880,note_on,25,0,9,,,,,,,,10,,,49,95
41880,note_on,24,0,3,,,,,,,,3,,,66,95
41880,note_on,0,0,3,,,,,,,,3,,,62,95
41880,note_on,24,0,4,,,,,,,,4,,,74,95
41880,note_on,25,0,7,,,,,,,,7,,,62,95
41880,note_on,25,0,5,,,,,,,,5,,,85,95
41927,note_on,47,0,8,,,,,,,,8,,,61,0
41927,note_on,47,0,2,,,,,,,,2,,,61,0
41927,note_on,47,0,9,,,,,,,,10,,,49,0
41927,note_on,47,0,5,,,,,,,,5,,,85,0
41940,note_on,13,0,9,,,,,,,,10,,,47,95
41940,note_on,13,0,2,,,,,,,,2,,,59,95
41940,note_on,13,0,8,,,,,,,,8,,,59,95
41940,note_on,13,0,5,,,,,,,,5,,,83,95
41975,note_on,95,0,6,,,,,,,,6,,,66,0
41975,note_on,95,0,7,,,,,,,,7,,,62,0
41976,note_on,0,0,1,,,,,,,,1,,,74,0
41976,note_on,96,0,3,,,,,,,,3,,,62,0
41976,note_on,0,0,3,,,,,,,,3,,,66,0
41976,note_on,96,0,4,,,,,,,,4,,,78,0
41976,note_on,0,0,4,,,,,,,,4,,,74,0
41976,note_on,96,0,1,,,,,,,,1,,,78,0
41987,note_on,47,0,2,,,,,,,,2,,,59,0
41987,note_on,47,0,8,,,,,,,,8,,,59,0
41987,note_on,47,0,5,,,,,,,,5,,,83,0
41987,note_on,47,0,9,,,,,,,,10,,,47,0
42000,note_on,24,0,4,,,,,,,,4,,,74,95
42000,note_on,0,0,4,,,,,,,,4,,,78,95
42000,note_on,24,0,3,,,,,,,,3,,,66,95
42000,note_on,13,0,5,,,,,,,,5,,,81,95
42000,note_on,13,0,2,,,,,,,,2,,,57,95
42000,note_on,25,0,7,,,,,,,,7,,,62,95
42000,note_on,13,0,9,,,,,,,,10,,,45,95
42000,note_on,0,0,1,,,,,,,,1,,,78,95
42000,note_on,0,0,3,,,,,,,,3,,,62,95
42000,note_on,25,0,6,,,,,,,,6,,,66,95
42000,note_on,24,0,1,,,,,,,,1,,,74,95
42000,note_on,13,0,8,,,,,,,,8,,,57,95
42047,note_on,47,0,9,,,,,,,,10,,,45,0
42047,note_on,47,0,2,,,,,,,,2,,,57,0
42047,note_on,47,0,5,,,,,,,,5,,,81,0
42047,note_on,47,0,8,,,,,,,,8,,,57,0
42060,note_on,13,0,5,,,,,,,,5,,,79,95
42060,note_on,13,0,2,,,,,,,,2,,,55,95
42060,note_on,13,0,9,,,,,,,,10,,,43,95
42060,note_on,13,0,8,,,,,,,,8,,,55,95
42095,note_on,95,0,6,,,,,,,,6,,,66,0
42095,note_on,95,0,7,,,,,,,,7,,,62,0
42096,note_on,0,0,1,,,,,,,,1,,,74,0
42096,note_on,0,0,3,,,,,,,,3,,,66,0
42096,note_on,0,0,4,,,,,,,,4,,,74,0
42096,note_on,96,0,4,,,,,,,,4,,,78,0
42096,note_on,96,0,3,,,,,,,,3,,,62,0
42096,note_on,96,0,1,,,,,,,,1,,,78,0
42107,note_on,47,0,9,,,,,,,,10,,,43,0
42107,note_on,47,0,2,,,,,,,,2,,,55,0
42107,note_on,47,0,8,,,,,,,,8,,,55,0
42107,note_on,47,0,5,,,,,,,,5,,,79,0
42120,note_on,0,0,1,,,,,,,,1,,,78,95
42120,note_on,13,0,2,,,,,,,,2,,,54,95
42120,note_on,24,0,3,,,,,,,,3,,,66,95
42120,note_on,13,0,8,,,,,,,,8,,,54,95
42120,note_on,13,0,9,,,,,,,,10,,,42,95
42120,note_on,25,0,7,,,,,,,,7,,,62,95
42120,note_on,24,0,4,,,,,,,,4,,,74,95
42120,note_on,0,0,4,,,,,,,,4,,,78,95
42120,note_on,0,0,3,,,,,,,,3,,,62,95
42120,note_on,24,0,1,,,,,,,,1,,,74,95
42120,note_on,13,0,5,,,,,,,,5,,,78,95
42120,note_on,25,0,6,,,,,,,,6,,,66,95
42167,note_on,47,0,8,,,,,,,,8,,,54,0
42167,note_on,47,0,2,,,,,,,,2,,,54,0
42167,note_on,47,0,5,,,,,,,,5,,,78,0
42167,note_on,47,0,9,,,,,,,,10,,,42,0
42180,note_on,13,0,2,,,,,,,,2,,,52,95
42180,note_on,13,0,9,,,,,,,,10,,,40,95
42180,note_on,13,0,8,,,,,,,,8,,,52,95
42180,note_on,13,0,5,,,,,,,,5,,,76,95
42215,note_on,95,0,6,,,,,,,,6,,,66,0
42215,note_on,95,0,7,,,,,,,,7,,,62,0
42216,note_on,96,0,4,,,,,,,,4,,,78,0
42216,note_on,0,0,4,,,,,,,,4,,,74,0
42216,note_on,0,0,1,,,,,,,,1,,,74,0
42216,note_on,96,0,1,,,,,,,,1,,,78,0
42216,note_on,96,0,3,,,,,,,,3,,,62,0
42216,note_on,0,0,3,,,,,,,,3,,,66,0
42227,note_on,47,0,9,,,,,,,,10,,,40,0
42227,note_on,47,0,2,,,,,,,,2,,,52,0
42227,note_on,47,0,8,,,,,,,,8,,,52,0
42227,note_on,47,0,5,,,,,,,,5,,,76,0
42240,note_on,13,0,8,,,,,,,,8,,,50,95
42240,note_on,24,0,4,,,,,,,,4,,,78,95
42240,note_on,0,0,4,,,,,,,,4,,,74,95
42240,note_on,13,0,9,,,,,,,,10,,,38,95
42240,note_on,24,0,3,,,,,,,,3,,,62,95
42240,note_on,0,0,3,,,,,,,,3,,,66,95
42240,note_on,13,0,5,,,,,,,,5,,,74,95
42240,note_on,24,0,1,,,,,,,,1,,,74,95
42240,note_on,25,0,6,,,,,,,,6,,,66,95
42240,note_on,25,0,7,,,,,,,,7,,,62,95
42240,note_on,0,0,1,,,,,,,,1,,,78,95
42240,note_on,13,0,2,,,,,,,,2,,,50,95
42335,note_on,95,0,5,,,,,,,,5,,,74,0
42335,note_on,95,0,2,,,,,,,,2,,,50,0
42335,note_on,95,0,8,,,,,,,,8,,,50,0
42335,note_on,95,0,9,,,,,,,,10,,,38,0
42360,note_on,25,0,2,,,,,,,,2,,,49,95
42360,note_on,25,0,5,,,,,,,,5,,,73,95
42360,note_on,25,0,8,,,,,,,,8,,,49,95
42360,note_on,25,0,9,,,,,,,,10,,,37,95
42407,note_on,47,0,8,,,,,,,,8,,,49,0
42407,note_on,47,0,5,,,,,,,,5,,,73,0
42407,note_on,47,0,2,,,,,,,,2,,,49,0
42407,note_on,47,0,9,,,,,,,,10,,,37,0
42420,note_on,13,0,8,,,,,,,,8,,,47,95
42420,note_on,13,0,2,,,,,,,,2,,,47,95
42420,note_on,13,0,5,,,,,,,,5,,,71,95
42420,note_on,13,0,9,,,,,,,,10,,,35,95
42467,note_on,47,0,5,,,,,,,,5,,,71,0
42467,note_on,47,0,2,,,,,,,,2,,,47,0
42467,note_on,47,0,9,,,,,,,,10,,,35,0
42467,note_on,47,0,8,,,,,,,,8,,,47,0
42480,note_on,13,0,5,,,,,,,,5,,,69,95
42480,note_on,13,0,2,,,,,,,,2,,,45,95
42480,note_on,13,0,9,,,,,,,,10,,,33,95
42480,note_on,13,0,8,,,,,,,,8,,,45,95
42527,note_on,47,0,5,,,,,,,,5,,,69,0
42527,note_on,47,0,2,,,,,,,,2,,,45,0
42527,note_on,287,0,6,,,,,,,,6,,,66,0
42527,note_on,47,0,9,,,,,,,,10,,,33,0
42527,note_on,287,0,7,,,,,,,,7,,,62,0
42527,note_on,47,0,8,,,,,,,,8,,,45,0
42528,note_on,288,0,1,,,,,,,,1,,,78,0
42528,note_on,0,0,1,,,,,,,,1,,,74,0
42528,note_on,0,0,3,,,,,,,,3,,,62,0
42528,note_on,288,0,4,,,,,,,,4,,,74,0
42528,note_on,288,0,3,,,,,,,,3,,,66,0
42528,note_on,0,0,4,,,,,,,,4,,,78,0
42540,note_on,13,0,8,,,,,,,,8,,,43,95
42540,note_on,13,0,2,,,,,,,,2,,,43,95
42540,note_on,13,0,9,,,,,,,,10,,,31,95
42540,note_on,13,0,5,,,,,,,,5,,,67,95
42587,note_on,47,0,8,,,,,,,,8,,,43,0
42587,note_on,47,0,2,,,,,,,,2,,,43,0
42587,note_on,47,0,5,,,,,,,,5,,,67,0
42587,note_on,47,0,9,,,,,,,,10,,,31,0
42600,note_on,0,0,1,,,,,,,,1,,,79,95
42600,note_on,13,0,9,,,,,,,,10,,,30,95
42600,note_on,72,0,1,,,,,,,,1,,,76,95
42600,note_on,73,0,7,,,,,,,,7,,,64,95
42600,note_on,13,0,2,,,,,,,,2,,,42,95
42600,note_on,72,0,3,,,,,,,,3,,,64,95
42600,note_on,72,0,4,,,,,,,,4,,,79,95
42600,note_on,13,0,5,,,,,,,,5,,,66,95
42600,note_on,13,0,8,,,,,,,,8,,,42,95
42600,note_on,0,0,4,,,,,,,,4,,,76,95
42600,note_on,73,0,6,,,,,,,,6,,,67,95
42600,note_on,0,0,3,,,,,,,,3,,,67,95
42647,note_on,47,0,5,,,,,,,,5,,,66,0
42647,note_on,47,0,8,,,,,,,,8,,,42,0
42647,note_on,47,0,2,,,,,,,,2,,,42,0
42647,note_on,47,0,9,,,,,,,,10,,,30,0
42660,note_on,13,0,8,,,,,,,,8,,,40,95
42660,note_on,13,0,2,,,,,,,,2,,,40,95
42660,note_on,13,0,9,,,,,,,,10,,,28,95
42660,note_on,13,0,5,,,,,,,,5,,,64,95
42695,note_on,95,0,7,,,,,,,,7,,,64,0
42695,note_on,95,0,6,,,,,,,,6,,,67,0
42696,note_on,0,0,1,,,,,,,,1,,,76,0
42696,note_on,96,0,1,,,,,,,,1,,,79,0
42696,note_on,0,0,3,,,,,,,,3,,,64,0
42696,note_on,96,0,3,,,,,,,,3,,,67,0
42696,note_on,0,0,4,,,,,,,,4,,,79,0
42696,note_on,96,0,4,,,,,,,,4,,,76,0
42707,note_on,47,0,9,,,,,,,,10,,,28,0
42707,note_on,47,0,5,,,,,,,,5,,,64,0
42707,note_on,47,0,8,,,,,,,,8,,,40,0
42707,note_on,47,0,2,,,,,,,,2,,,40,0
42720,note_on,0,0,3,,,,,,,,3,,,69,95
42720,note_on,13,0,8,,,,,,,,8,,,38,95
42720,note_on,0,0,1,,,,,,,,1,,,81,95
42720,note_on,24,0,1,,,,,,,,1,,,78,95
42720,note_on,0,0,4,,,,,,,,4,,,78,95
42720,note_on,24,0,4,,,,,,,,4,,,81,95
42720,note_on,24,0,3,,,,,,,,3,,,66,95
42720,note_on,13,0,9,,,,,,,,10,,,26,95
42720,note_on,25,0,7,,,,,,,,7,,,66,95
42720,note_on,13,0,2,,,,,,,,2,,,38,95
42720,note_on,25,0,6,,,,,,,,6,,,69,95
42720,note_on,13,0,5,,,,,,,,5,,,62,95
42815,note_on,95,0,7,,,,,,,,7,,,66,0
42815,note_on,95,0,6,,,,,,,,6,,,69,0
42815,note_on,95,0,9,,,,,,,,10,,,26,0
42815,note_on,95,0,5,,,,,,,,5,,,62,0
42815,note_on,95,0,8,,,,,,,,8,,,38,0
42815,note_on,95,0,2,,,,,,,,2,,,38,0
42816,note_on,0,0,3,,,,,,,,3,,,66,0
42816,note_on,96,0,3,,,,,,,,3,,,69,0
42816,note_on,0,0,1,,,,,,,,1,,,78,0
42816,note_on,96,0,1,,,,,,,,1,,,81,0
42816,note_on,96,0,4,,,,,,,,4,,,78,0
42816,note_on,0,0,4,,,,,,,,4,,,81,0
42840,note_on,24,0,1,,,,,,,,1,,,76,95
42840,note_on,25,0,9,,,,,,,,10,,,30,95
42840,note_on,0,0,1,,,,,,,,1,,,79,95
42840,note_on,25,0,7,,,,,,,,7,,,62,95
42840,note_on,24,0,3,,,,,,,,3,,,62,95
42840,note_on,25,0,8,,,,,,,,8,,,42,95
42840,note_on,25,0,6,,,,,,,,6,,,67,95
42840,note_on,0,0,3,,,,,,,,3,,,67,95
42840,note_on,0,0,4,,,,,,,,4,,,74,95
42840,note_on,24,0,4,,,,,,,,4,,,79,95
42840,note_on,25,0,2,,,,,,,,2,,,42,95
42840,note_on,25,0,5,,,,,,,,5,,,86,95
42887,note_on,47,0,6,,,,,,,,6,,,67,0
42888,note_on,0,0,1,,,,,,,,1,,,76,0
42888,note_on,48,0,4,,,,,,,,4,,,79,0
42888,note_on,48,0,1,,,,,,,,1,,,79,0
42888,note_on,48,0,3,,,,,,,,3,,,67,0
42900,note_on,12,0,4,,,,,,,,4,,,78,95
42900,note_on,0,0,1,,,,,,,,1,,,78,95
42900,note_on,12,0,1,,,,,,,,1,,,74,95
42900,note_on,12,0,3,,,,,,,,3,,,66,95
42900,note_on,13,0,6,,,,,,,,6,,,66,95
42935,note_on,95,0,2,,,,,,,,2,,,42,0
42935,note_on,95,0,8,,,,,,,,8,,,42,0
42935,note_on,95,0,5,,,,,,,,5,,,86,0
42935,note_on,95,0,9,,,,,,,,10,,,30,0
42935,note_on,95,0,7,,,,,,,,7,,,62,0
42936,note_on,36,0,4,,,,,,,,4,,,74,0
42936,note_on,36,0,3,,,,,,,,3,,,62,0
42947,note_on,47,0,6,,,,,,,,6,,,66,0
42948,note_on,48,0,1,,,,,,,,1,,,78,0
42948,note_on,0,0,1,,,,,,,,1,,,74,0
42948,note_on,12,0,3,,,,,,,,3,,,66,0
42948,note_on,12,0,4,,,,,,,,4,,,78,0
42960,note_on,13,0,6,,,,,,,,6,,,64,95
42960,note_on,25,0,8,,,,,,,,8,,,43,95
42960,note_on,0,0,4,,,,,,,,4,,,69,95
42960,note_on,12,0,3,,,,,,,,3,,,57,95
42960,note_on,12,0,4,,,,,,,,4,,,76,95
42960,note_on,25,0,7,,,,,,,,7,,,69,95
42960,note_on,25,0,5,,,,,,,,5,,,85,95
42960,note_on,25,0,2,,,,,,,,2,,,43,95
42960,note_on,0,0,1,,,,,,,,1,,,76,95
42960,note_on,12,0,1,,,,,,,,1,,,73,95
42960,note_on,0,0,3,,,,,,,,3,,,64,95
42960,note_on,25,0,9,,,,,,,,10,,,31,95
43055,note_on,95,0,2,,,,,,,,2,,,43,0
43055,note_on,95,0,9,,,,,,,,10,,,31,0
43055,note_on,95,0,7,,,,,,,,7,,,69,0
43055,note_on,95,0,8,,,,,,,,8,,,43,0
43056,note_on,96,0,3,,,,,,,,3,,,57,0
43056,note_on,96,0,4,,,,,,,,4,,,69,0
43080,note_on,25,0,8,,,,,,,,8,,,43,95
43080,note_on,25,0,2,,,,,,,,2,,,43,95
43080,note_on,25,0,7,,,,,,,,7,,,69,95
43080,note_on,24,0,4,,,,,,,,4,,,69,95
43080,note_on,24,0,3,,,,,,,,3,,,57,95
43080,note_on,25,0,9,,,,,,,,10,,,31,95
43104,note_on,24,0,3,,,,,,,,3,,,64,0
43104,note_on,24,0,4,,,,,,,,4,,,76,0
43104,note_on,144,0,1,,,,,,,,1,,,76,0
43104,note_on,0,0,1,,,,,,,,1,,,73,0
43105,note_on,145,0,5,,,,,,,,5,,,85,0
43105,note_on,145,0,6,,,,,,,,6,,,64,0
43140,note_on,35,0,6,,,,,,,,6,,,62,95
43140,note_on,0,0,1,,,,,,,,1,,,74,95
43140,note_on,36,0,3,,,,,,,,3,,,62,95
43140,note_on,35,0,5,,,,,,,,5,,,86,95
43140,note_on,36,0,1,,,,,,,,1,,,74,95
43140,note_on,36,0,4,,,,,,,,4,,,74,95
43175,note_on,95,0,9,,,,,,,,10,,,31,0
43175,note_on,95,0,7,,,,,,,,7,,,69,0
43175,note_on,95,0,2,,,,,,,,2,,,43,0
43175,note_on,95,0,8,,,,,,,,8,,,43,0
43176,note_on,36,0,4,,,,,,,,4,,,69,0
43176,note_on,36,0,3,,,,,,,,3,,,57,0
43187,note_on,47,0,5,,,,,,,,5,,,86,0
43187,note_on,47,0,6,,,,,,,,6,,,62,0
43188,note_on,48,0,1,,,,,,,,1,,,74,0
43188,note_on,0,0,1,,,,,,,,1,,,74,0
43188,note_on,12,0,4,,,,,,,,4,,,74,0
43188,note_on,12,0,3,,,,,,,,3,,,62,0
43200,note_on,0,0,1,,,,,,,,1,,,74,95
43200,note_on,25,0,8,,,,,,,,8,,,50,95
43200,note_on,12,0,3,,,,,,,,3,,,54,95
43200,note_on,0,0,3,,,,,,,,3,,,62,95
43200,note_on,12,0,1,,,,,,,,1,,,66,95
43200,note_on,25,0,2,,,,,,,,2,,,50,95
43200,note_on,25,0,9,,,,,,,,10,,,38,95
43200,note_on,25,0,7,,,,,,,,7,,,66,95
43200,note_on,13,0,5,,,,,,,,5,,,86,95
43200,note_on,12,0,4,,,,,,,,4,,,66,95
43200,note_on,0,0,4,,,,,,,,4,,,74,95
43200,note_on,13,0,6,,,,,,,,6,,,62,95
43390,note_on,190,0,5,,,,,,,,5,,,86,0
43390,note_on,190,0,2,,,,,,,,2,,,50,0
43390,note_on,190,0,6,,,,,,,,6,,,62,0
43390,note_on,190,0,7,,,,,,,,7,,,66,0
43390,note_on,190,0,8,,,,,,,,8,,,50,0
43390,note_on,190,0,9,,,,,,,,10,,,38,0
43392,note_on,192,0,3,,,,,,,,3,,,62,0
43392,note_on,192,0,1,,,,,,,,1,,,74,0
43392,note_on,0,0,1,,,,,,,,1,,,66,0
43392,note_on,192,0,4,,,,,,,,4,,,74,0
43392,note_on,0,0,3,,,,,,,,3,,,54,0
43392,note_on,0,0,4,,,,,,,,4,,,66,0
43680,note_on,290,0,6,,,,,,,,6,,,73,95
43680,note_on,0,0,3,,,,,,,,3,,,64,95
43680,note_on,290,0,9,,,,,,,,10,,,45,95
43680,note_on,288,0,3,,,,,,,,3,,,57,95
43680,note_on,290,0,8,,,,,,,,8,,,57,95
43680,note_on,290,0,2,,,,,,,,2,,,57,95
43680,note_on,290,0,5,,,,,,,,5,,,76,95
43680,note_on,0,0,4,,,,,,,,4,,,76,95
43680,note_on,288,0,4,,,,,,,,4,,,69,95
43680,note_on,288,0,1,,,,,,,,1,,,73,95
43680,note_on,0,0,1,,,,,,,,1,,,76,95
43680,note_on,290,0,7,,,,,,,,7,,,69,95
43870,note_on,190,0,2,,,,,,,,2,,,57,0
43870,note_on,190,0,5,,,,,,,,5,,,76,0
43870,note_on,190,0,8,,,,,,,,8,,,57,0
43870,note_on,190,0,7,,,,,,,,7,,,69,0
43870,note_on,190,0,9,,,,,,,,10,,,45,0
43870,note_on,190,0,6,,,,,,,,6,,,73,0
43872,note_on,192,0,3,,,,,,,,3,,,64,0
43872,note_on,0,0,3,,,,,,,,3,,,57,0
43872,note_on,192,0,4,,,,,,,,4,,,76,0
43872,note_on,0,0,4,,,,,,,,4,,,69,0
43872,note_on,192,0,1,,,,,,,,1,,,76,0
43872,note_on,0,0,1,,,,,,,,1,,,73,0
44160,note_on,288,0,1,,,,,,,,1,,,78,95
44160,note_on,0,0,4,,,,,,,,4,,,74,95
44160,note_on,290,0,8,,,,,,,,8,,,62,95
44160,note_on,0,0,1,,,,,,,,1,,,74,95
44160,note_on,290,0,9,,,,,,,,10,,,50,95
44160,note_on,288,0,4,,,,,,,,4,,,78,95
44160,note_on,290,0,7,,,,,,,,7,,,69,95
44160,note_on,288,0,3,,,,,,,,3,,,66,95
44160,note_on,290,0,2,,,,,,,,2,,,62,95
44160,note_on,290,0,5,,,,,,,,5,,,78,95
44160,note_on,0,0,3,,,,,,,,3,,,62,95
44160,note_on,290,0,6,,,,,,,,6,,,74,95
44350,note_on,190,0,6,,,,,,,,6,,,74,0
44350,note_on,190,0,2,,,,,,,,2,,,62,0
44350,note_on,190,0,9,,,,,,,,10,,,50,0
44350,note_on,190,0,5,,,,,,,,5,,,78,0
44350,note_on,190,0,8,,,,,,,,8,,,62,0
44350,note_on,190,0,7,,,,,,,,7,,,69,0
44352,note_on,0,0,1,,,,,,,,1,,,78,0
44352,note_on,192,0,1,,,,,,,,1,,,74,0
44352,note_on,192,0,4,,,,,,,,4,,,74,0
44352,note_on,192,0,3,,,,,,,,3,,,62,0
44352,note_on,0,0,3,,,,,,,,3,,,66,0
44352,note_on,0,0,4,,,,,,,,4,,,78,0
44640,note_on,290,0,7,,,,,,,,7,,,69,95
44640,note_on,290,0,9,,,,,,,,10,,,45,95
44640,note_on,0,0,3,,,,,,,,3,,,57,95
44640,note_on,288,0,3,,,,,,,,3,,,64,95
44640,note_on,290,0,8,,,,,,,,8,,,57,95
44640,note_on,288,0,1,,,,,,,,1,,,76,95
44640,note_on,288,0,4,,,,,,,,4,,,76,95
44640,note_on,0,0,4,,,,,,,,4,,,69,95
44640,note_on,290,0,2,,,,,,,,2,,,57,95
44640,note_on,290,0,5,,,,,,,,5,,,85,95
44640,note_on,0,0,1,,,,,,,,1,,,73,95
44640,note_on,290,0,6,,,,,,,,6,,,76,95
44830,note_on,190,0,5,,,,,,,,5,,,85,0
44830,note_on,190,0,9,,,,,,,,10,,,45,0
44830,note_on,190,0,6,,,,,,,,6,,,76,0
44830,note_on,190,0,2,,,,,,,,2,,,57,0
44830,note_on,190,0,8,,,,,,,,8,,,57,0
44830,note_on,190,0,7,,,,,,,,7,,,69,0
44832,note_on,0,0,1,,,,,,,,1,,,76,0
44832,note_on,192,0,1,,,,,,,,1,,,73,0
44832,note_on,0,0,4,,,,,,,,4,,,76,0
44832,note_on,0,0,3,,,,,,,,3,,,64,0
44832,note_on,192,0,3,,,,,,,,3,,,57,0
44832,note_on,192,0,4,,,,,,,,4,,,69,0
45120,note_on,290,0,2,,,,,,,,2,,,50,95
45120,note_on,290,0,9,,,,,,,,10,,,38,95
45120,note_on,288,0,1,,,,,,,,1,,,74,95
45120,note_on,0,0,1,,,,,,,,1,,,74,95
45120,note_on,288,0,4,,,,,,,,4,,,74,95
45120,note_on,0,0,3,,,,,,,,3,,,54,95
45120,note_on,290,0,8,,,,,,,,8,,,50,95
45120,note_on,288,0,3,,,,,,,,3,,,62,95
45120,note_on,290,0,6,,,,,,,,6,,,78,95
45120,note_on,290,0,5,,,,,,,,5,,,86,95
45120,note_on,290,0,7,,,,,,,,7,,,69,95
45120,note_on,0,0,4,,,,,,,,4,,,66,95
45310,note_on,190,0,8,,,,,,,,8,,,50,0
45310,note_on,190,0,6,,,,,,,,6,,,78,0
45310,note_on,190,0,5,,,,,,,,5,,,86,0
45310,note_on,190,0,7,,,,,,,,7,,,69,0
45310,note_on,190,0,9,,,,,,,,10,,,38,0
45310,note_on,190,0,2,,,,,,,,2,,,50,0
45310,end_of_track,0,1,2,,,,,,,,,,,,
45312,end_of_track,0,1,3,,,,,,,,,,,,
45312,note_on,0,0,1,,,,,,,,1,,,74,0
45312,note_on,192,0,1,,,,,,,,1,,,74,0
45312,note_on,0,0,3,,,,,,,,3,,,62,0
45312,note_on,192,0,3,,,,,,,,3,,,54,0
45312,note_on,192,0,4,,,,,,,,4,,,66,0
45312,end_of_track,0,1,4,,,,,,,,,,,,
45312,note_on,0,0,4,,,,,,,,4,,,74,0
45312,end_of_track,0,1,1,,,,,,,,,,,,
46080,note_on,770,0,8,,,,,,,,8,,,49,95
46080,note_on,770,0,9,,,,,,,,10,,,37,95
46080,note_on,770,0,7,,,,,,,,7,,,61,95
46080,end_of_track,0,1,0,,,,,,,,,,,,
46080,note_on,770,0,5,,,,,,,,5,,,70,95
46080,set_tempo,45120,1,0,,,,,,1500000,,,,,,
46080,note_on,770,0,6,,,,,,,,6,,,64,95
46270,note_on,190,0,8,,,,,,,,8,,,49,0
46270,note_on,190,0,9,,,,,,,,10,,,37,0
46270,note_on,190,0,7,,,,,,,,7,,,61,0
46270,note_on,190,0,6,,,,,,,,6,,,64,0
46270,note_on,190,0,5,,,,,,,,5,,,70,0
46560,note_on,290,0,5,,,,,,,,5,,,71,95
46560,note_on,290,0,7,,,,,,,,7,,,66,95
46560,note_on,290,0,8,,,,,,,,8,,,47,95
46560,note_on,290,0,9,,,,,,,,10,,,35,95
46560,note_on,290,0,6,,,,,,,,6,,,62,95
46750,note_on,190,0,6,,,,,,,,6,,,62,0
46750,note_on,190,0,9,,,,,,,,10,,,35,0
46750,note_on,190,0,7,,,,,,,,7,,,66,0
46750,note_on,190,0,5,,,,,,,,5,,,71,0
46750,note_on,190,0,8,,,,,,,,8,,,47,0
47040,note_on,290,0,7,,,,,,,,7,,,59,95
47040,note_on,290,0,6,,,,,,,,6,,,66,95
47040,note_on,290,0,8,,,,,,,,8,,,45,95
47040,note_on,290,0,5,,,,,,,,5,,,75,95
47040,note_on,290,0,9,,,,,,,,10,,,33,95
47230,note_on,190,0,7,,,,,,,,7,,,59,0
47230,note_on,190,0,5,,,,,,,,5,,,75,0
47230,note_on,190,0,6,,,,,,,,6,,,66,0
47230,note_on,190,0,8,,,,,,,,8,,,45,0
47230,note_on,190,0,9,,,,,,,,10,,,33,0
47520,note_on,290,0,9,,,,,,,,10,,,31,95
47520,note_on,290,0,8,,,,,,,,8,,,43,95
47520,note_on,290,0,5,,,,,,,,5,,,76,95
47520,note_on,290,0,6,,,,,,,,6,,,71,95
47520,note_on,290,0,7,,,,,,,,7,,,59,95
47710,note_on,190,0,6,,,,,,,,6,,,71,0
47710,note_on,190,0,8,,,,,,,,8,,,43,0
47710,note_on,190,0,9,,,,,,,,10,,,31,0
47710,note_on,190,0,5,,,,,,,,5,,,76,0
47710,note_on,190,0,7,,,,,,,,7,,,59,0
48000,note_on,290,0,8,,,,,,,,8,,,55,95
48000,note_on,290,0,9,,,,,,,,10,,,43,95
48000,note_on,290,0,6,,,,,,,,6,,,76,95
48000,note_on,290,0,7,,,,,,,,7,,,67,95
48000,note_on,290,0,5,,,,,,,,5,,,71,95
48287,note_on,287,0,6,,,,,,,,6,,,76,0
48287,note_on,287,0,5,,,,,,,,5,,,71,0
48287,note_on,287,0,8,,,,,,,,8,,,55,0
48287,note_on,287,0,9,,,,,,,,10,,,43,0
48360,note_on,73,0,8,,,,,,,,8,,,54,95
48360,note_on,73,0,6,,,,,,,,6,,,78,95
48360,note_on,73,0,5,,,,,,,,5,,,70,95
48360,note_on,73,0,9,,,,,,,,10,,,42,95
48385,note_on,385,0,7,,,,,,,,7,,,67,0
48455,note_on,95,0,9,,,,,,,,10,,,42,0
48455,note_on,95,0,8,,,,,,,,8,,,54,0
48455,note_on,95,0,6,,,,,,,,6,,,78,0
48455,note_on,95,0,5,,,,,,,,5,,,70,0
48480,note_on,25,0,8,,,,,,,,8,,,54,95
48480,note_on,95,0,7,,,,,,,,7,,,61,95
48480,note_on,25,0,5,,,,,,,,5,,,70,95
48480,note_on,25,0,9,,,,,,,,10,,,42,95
48480,note_on,25,0,6,,,,,,,,6,,,78,95
48865,end_of_track,0,1,9,,,,,,,,,,,,
48865,note_on,385,0,5,,,,,,,,5,,,70,0
48865,note_on,385,0,7,,,,,,,,7,,,61,0
48865,end_of_track,0,1,5,,,,,,,,,,,,
48865,end_of_track,0,1,8,,,,,,,,,,,,
48865,end_of_track,0,1,7,,,,,,,,,,,,
48865,note_on,385,0,6,,,,,,,,6,,,78,0
48865,end_of_track,0,1,6,,,,,,,,,,,,
48865,note_on,385,0,9,,,,,,,,10,,,42,0
48865,note_on,385,0,8,,,,,,,,8,,,54,0
