tick,type,numerator,denominator,clocks_per_click,notated_32nd_notes_per_beat,time,meta,track,key,tempo,port,program,channel,control,value,note,velocity
0,time_signature,4,4,24,8,0,1,0,,,,,,,,,
0,program_change,,,,,0,0,7,,,,43,6,,,,
0,track_name,,,,,0,1,7,,,,,,,,,
0,midi_port,,,,,0,1,7,,,0,,,,,,
0,control_change,,,,,0,0,6,,,,,5,10,40,,
0,control_change,,,,,0,0,6,,,,,5,7,90,,
0,program_change,,,,,0,0,6,,,,41,5,,,,
0,track_name,,,,,0,1,6,,,,,,,,,
0,midi_port,,,,,0,1,6,,,0,,,,,,
0,control_change,,,,,0,0,5,,,,,4,10,98,,
0,control_change,,,,,0,0,5,,,,,4,7,90,,
0,program_change,,,,,0,0,5,,,,40,4,,,,
0,track_name,,,,,0,1,5,,,,,,,,,
0,midi_port,,,,,0,1,5,,,0,,,,,,
0,track_name,,,,,0,1,2,,,,,,,,,
0,control_change,,,,,0,0,4,,,,,3,10,20,,
0,control_change,,,,,0,0,4,,,,,3,7,90,,
0,program_change,,,,,0,0,4,,,,40,3,,,,
0,track_name,,,,,0,1,4,,,,,,,,,
0,midi_port,,,,,0,1,4,,,0,,,,,,
0,control_change,,,,,0,0,3,,,,,2,10,50,,
0,control_change,,,,,0,0,3,,,,,2,7,88,,
0,program_change,,,,,0,0,3,,,,70,2,,,,
0,track_name,,,,,0,1,3,,,,,,,,,
0,midi_port,,,,,0,1,3,,,0,,,,,,
0,control_change,,,,,0,0,2,,,,,1,10,85,,
0,control_change,,,,,0,0,2,,,,,1,7,75,,
0,program_change,,,,,0,0,2,,,,68,1,,,,
0,control_change,,,,,0,0,7,,,,,6,7,115,,
0,control_change,,,,,0,0,7,,,,,6,10,90,,
0,midi_port,,,,,0,1,2,,,0,,,,,,
0,key_signature,,,,,0,1,0,F,,,,,,,,
0,set_tempo,,,,,0,1,0,,535714,,,,,,,
0,control_change,,,,,0,0,1,,,,,0,10,45,,
0,program_change,,,,,0,0,1,,,,68,0,,,,
0,track_name,,,,,0,1,1,,,,,,,,,
0,midi_port,,,,,0,1,1,,,0,,,,,,
0,control_change,,,,,0,0,1,,,,,0,7,120,,
0,marker,,,,,0,1,0,,,,,,,,,
768,note_on,,,,,768,0,3,,,,,2,,,50,110
800,note_on,,,,,32,0,3,,,,,2,,,50,0
864,note_on,,,,,64,0,3,,,,,2,,,50,110
864,note_on,,,,,864,0,1,,,,,0,,,69,110
864,note_on,,,,,864,0,2,,,,,1,,,65,110
896,note_on,,,,,32,0,2,,,,,1,,,65,0
896,note_on,,,,,32,0,3,,,,,2,,,50,0
896,note_on,,,,,32,0,1,,,,,0,,,69,0
960,note_on,,,,,64,0,2,,,,,1,,,69,110
960,note_on,,,,,64,0,3,,,,,2,,,53,110
960,note_on,,,,,64,0,1,,,,,0,,,74,110
992,note_on,,,,,32,0,1,,,,,0,,,74,0
992,note_on,,,,,32,0,3,,,,,2,,,53,0
992,note_on,,,,,32,0,2,,,,,1,,,69,0
1056,note_on,,,,,64,0,3,,,,,2,,,50,110
1056,note_on,,,,,64,0,2,,,,,1,,,65,110
1056,note_on,,,,,64,0,1,,,,,0,,,74,110
1088,note_on,,,,,32,0,3,,,,,2,,,50,0
1088,note_on,,,,,32,0,2,,,,,1,,,65,0
1088,note_on,,,,,32,0,1,,,,,0,,,74,0
1152,note_on,,,,,64,0,2,,,,,1,,,64,110
1152,note_on,,,,,64,0,1,,,,,0,,,74,110
1152,note_on,,,,,64,0,3,,,,,2,,,55,110
1184,note_on,,,,,32,0,1,,,,,0,,,74,0
1184,note_on,,,,,32,0,3,,,,,2,,,55,0
1200,note_on,,,,,48,0,2,,,,,1,,,64,0
1248,note_on,,,,,64,0,1,,,,,0,,,76,110
1248,note_on,,,,,64,0,3,,,,,2,,,52,110
1280,note_on,,,,,32,0,3,,,,,2,,,52,0
1280,note_on,,,,,32,0,1,,,,,0,,,76,0
1296,note_on,,,,,16,0,1,,,,,0,,,74,110
1328,note_on,,,,,32,0,1,,,,,0,,,74,0
1344,note_on,,,,,64,0,3,,,,,2,,,57,110
1344,note_on,,,,,16,0,1,,,,,0,,,73,110
1344,note_on,,,,,144,0,2,,,,,1,,,64,110
1376,note_on,,,,,32,0,1,,,,,0,,,73,0
1376,note_on,,,,,32,0,3,,,,,2,,,57,0
1392,note_on,,,,,48,0,2,,,,,1,,,64,0
1392,note_on,,,,,16,0,1,,,,,0,,,74,110
1424,note_on,,,,,32,0,1,,,,,0,,,74,0
1440,note_on,,,,,16,0,1,,,,,0,,,76,110
1440,note_on,,,,,64,0,3,,,,,2,,,55,110
1472,note_on,,,,,32,0,1,,,,,0,,,76,0
1472,note_on,,,,,32,0,3,,,,,2,,,55,0
1488,note_on,,,,,16,0,1,,,,,0,,,73,110
1520,note_on,,,,,32,0,1,,,,,0,,,73,0
1536,note_on,,,,,64,0,3,,,,,2,,,53,110
1536,note_on,,,,,16,0,1,,,,,0,,,69,110
1568,note_on,,,,,32,0,3,,,,,2,,,53,0
1568,note_on,,,,,32,0,1,,,,,0,,,69,0
1632,note_on,,,,,240,0,2,,,,,1,,,65,110
1632,note_on,,,,,64,0,1,,,,,0,,,69,110
1632,note_on,,,,,64,0,3,,,,,2,,,50,110
1664,note_on,,,,,32,0,1,,,,,0,,,69,0
1664,note_on,,,,,32,0,3,,,,,2,,,50,0
1664,note_on,,,,,32,0,2,,,,,1,,,65,0
1728,note_on,,,,,64,0,2,,,,,1,,,69,110
1728,note_on,,,,,64,0,1,,,,,0,,,77,110
1728,note_on,,,,,64,0,3,,,,,2,,,62,110
1760,note_on,,,,,32,0,1,,,,,0,,,77,0
1760,note_on,,,,,32,0,3,,,,,2,,,62,0
1760,note_on,,,,,32,0,2,,,,,1,,,69,0
1824,note_on,,,,,64,0,3,,,,,2,,,62,110
1824,note_on,,,,,64,0,1,,,,,0,,,77,110
1824,note_on,,,,,64,0,2,,,,,1,,,69,110
1856,note_on,,,,,32,0,1,,,,,0,,,77,0
1856,note_on,,,,,32,0,2,,,,,1,,,69,0
1856,note_on,,,,,32,0,3,,,,,2,,,62,0
1920,note_on,,,,,64,0,1,,,,,0,,,77,110
1920,note_on,,,,,64,0,3,,,,,2,,,62,110
1920,note_on,,,,,64,0,2,,,,,1,,,69,110
1952,note_on,,,,,32,0,3,,,,,2,,,62,0
1968,note_on,,,,,48,0,2,,,,,1,,,69,0
1968,note_on,,,,,48,0,1,,,,,0,,,77,0
2016,note_on,,,,,64,0,3,,,,,2,,,64,110
2048,note_on,,,,,32,0,3,,,,,2,,,64,0
2064,note_on,,,,,16,0,3,,,,,2,,,62,110
2096,note_on,,,,,32,0,3,,,,,2,,,62,0
2112,note_on,,,,,16,0,3,,,,,2,,,61,110
2112,note_on,,,,,144,0,2,,,,,1,,,69,110
2112,note_on,,,,,144,0,1,,,,,0,,,76,110
2144,note_on,,,,,32,0,3,,,,,2,,,61,0
2160,note_on,,,,,16,0,3,,,,,2,,,62,110
2160,note_on,,,,,48,0,2,,,,,1,,,69,0
2160,note_on,,,,,48,0,1,,,,,0,,,76,0
2192,note_on,,,,,32,0,3,,,,,2,,,62,0
2208,note_on,,,,,16,0,3,,,,,2,,,64,110
2240,note_on,,,,,32,0,3,,,,,2,,,64,0
2256,note_on,,,,,16,0,3,,,,,2,,,61,110
2288,note_on,,,,,32,0,3,,,,,2,,,61,0
2304,note_on,,,,,16,0,3,,,,,2,,,57,110
2336,note_on,,,,,32,0,3,,,,,2,,,57,0
2400,note_on,,,,,240,0,2,,,,,1,,,74,110
2400,note_on,,,,,240,0,1,,,,,0,,,69,110
2400,note_on,,,,,64,0,3,,,,,2,,,53,110
2432,note_on,,,,,32,0,1,,,,,0,,,69,0
2432,note_on,,,,,32,0,3,,,,,2,,,53,0
2432,note_on,,,,,32,0,2,,,,,1,,,74,0
2496,note_on,,,,,64,0,2,,,,,1,,,74,110
2496,note_on,,,,,64,0,1,,,,,0,,,81,110
2496,note_on,,,,,64,0,3,,,,,2,,,65,110
2528,note_on,,,,,32,0,1,,,,,0,,,81,0
2528,note_on,,,,,32,0,2,,,,,1,,,74,0
2528,note_on,,,,,32,0,3,,,,,2,,,65,0
2592,note_on,,,,,64,0,2,,,,,1,,,77,110
2592,note_on,,,,,64,0,3,,,,,2,,,62,110
2592,note_on,,,,,64,0,1,,,,,0,,,81,110
2624,note_on,,,,,32,0,2,,,,,1,,,77,0
2624,note_on,,,,,32,0,3,,,,,2,,,62,0
2624,note_on,,,,,32,0,1,,,,,0,,,81,0
2688,note_on,,,,,64,0,2,,,,,1,,,74,110
2688,note_on,,,,,64,0,3,,,,,2,,,58,110
2688,note_on,,,,,64,0,1,,,,,0,,,81,110
2720,note_on,,,,,32,0,2,,,,,1,,,74,0
2720,note_on,,,,,32,0,3,,,,,2,,,58,0
2720,note_on,,,,,32,0,1,,,,,0,,,81,0
2784,note_on,,,,,64,0,3,,,,,2,,,55,110
2784,note_on,,,,,64,0,1,,,,,0,,,82,110
2784,note_on,,,,,64,0,2,,,,,1,,,70,110
2816,note_on,,,,,32,0,3,,,,,2,,,55,0
2816,note_on,,,,,32,0,1,,,,,0,,,82,0
2816,note_on,,,,,32,0,2,,,,,1,,,70,0
2832,note_on,,,,,16,0,1,,,,,0,,,81,110
2864,note_on,,,,,32,0,1,,,,,0,,,81,0
2880,note_on,,,,,64,0,3,,,,,2,,,64,110
2880,note_on,,,,,16,0,1,,,,,0,,,79,110
2912,note_on,,,,,32,0,3,,,,,2,,,64,0
2912,note_on,,,,,32,0,1,,,,,0,,,79,0
2928,note_on,,,,,16,0,1,,,,,0,,,81,110
2960,note_on,,,,,32,0,1,,,,,0,,,81,0
2976,note_on,,,,,160,0,2,,,,,1,,,79,110
2976,note_on,,,,,64,0,3,,,,,2,,,64,110
2976,note_on,,,,,16,0,1,,,,,0,,,82,110
3008,note_on,,,,,32,0,3,,,,,2,,,64,0
3008,note_on,,,,,32,0,1,,,,,0,,,82,0
3024,note_on,,,,,16,0,1,,,,,0,,,79,110
3056,note_on,,,,,32,0,1,,,,,0,,,79,0
3072,note_on,,,,,64,0,3,,,,,2,,,53,110
3072,note_on,,,,,16,0,1,,,,,0,,,69,110
3104,note_on,,,,,32,0,1,,,,,0,,,69,0
3104,note_on,,,,,32,0,3,,,,,2,,,53,0
3104,note_on,,,,,128,0,2,,,,,1,,,79,0
3168,note_on,,,,,64,0,2,,,,,1,,,77,110
3168,note_on,,,,,64,0,3,,,,,2,,,53,110
3168,note_on,,,,,64,0,1,,,,,0,,,81,110
3200,note_on,,,,,32,0,2,,,,,1,,,77,0
3200,note_on,,,,,32,0,1,,,,,0,,,81,0
3200,note_on,,,,,32,0,3,,,,,2,,,53,0
3264,note_on,,,,,64,0,1,,,,,0,,,77,110
3264,note_on,,,,,64,0,3,,,,,2,,,62,110
3296,note_on,,,,,32,0,1,,,,,0,,,77,0
3296,note_on,,,,,32,0,3,,,,,2,,,62,0
3360,note_on,,,,,160,0,2,,,,,1,,,70,110
3360,note_on,,,,,64,0,1,,,,,0,,,76,110
3360,note_on,,,,,64,0,3,,,,,2,,,55,110
3392,note_on,,,,,32,0,2,,,,,1,,,70,0
3392,note_on,,,,,32,0,1,,,,,0,,,76,0
3392,note_on,,,,,32,0,3,,,,,2,,,55,0
3456,note_on,,,,,64,0,2,,,,,1,,,69,110
3456,note_on,,,,,64,0,1,,,,,0,,,77,110
3456,note_on,,,,,64,0,3,,,,,2,,,57,110
3488,note_on,,,,,32,0,2,,,,,1,,,69,0
3488,note_on,,,,,32,0,3,,,,,2,,,57,0
3504,note_on,,,,,48,0,1,,,,,0,,,77,0
3552,note_on,,,,,64,0,2,,,,,1,,,74,110
3552,note_on,,,,,64,0,3,,,,,2,,,55,110
3584,note_on,,,,,32,0,2,,,,,1,,,74,0
3584,note_on,,,,,32,0,3,,,,,2,,,55,0
3648,note_on,,,,,64,0,3,,,,,2,,,57,110
3648,note_on,,,,,64,0,2,,,,,1,,,73,110
3648,note_on,,,,,144,0,1,,,,,0,,,76,110
3664,note_on,,,,,16,0,1,,,,,0,,,76,0
3664,note_on,,,,,16,0,2,,,,,1,,,73,0
3672,note_on,,,,,8,0,2,,,,,1,,,74,110
3672,note_on,,,,,8,0,1,,,,,0,,,77,110
3680,note_on,,,,,32,0,3,,,,,2,,,57,0
3688,note_on,,,,,16,0,2,,,,,1,,,74,0
3688,note_on,,,,,16,0,1,,,,,0,,,77,0
3696,note_on,,,,,8,0,1,,,,,0,,,76,110
3696,note_on,,,,,8,0,2,,,,,1,,,73,110
3712,note_on,,,,,16,0,1,,,,,0,,,76,0
3712,note_on,,,,,16,0,2,,,,,1,,,73,0
3720,note_on,,,,,8,0,1,,,,,0,,,77,110
3720,note_on,,,,,8,0,2,,,,,1,,,74,110
3736,note_on,,,,,16,0,1,,,,,0,,,77,0
3736,note_on,,,,,16,0,2,,,,,1,,,74,0
3744,note_on,,,,,64,0,3,,,,,2,,,45,110
3744,note_on,,,,,8,0,1,,,,,0,,,76,110
3744,note_on,,,,,8,0,2,,,,,1,,,73,110
3760,note_on,,,,,16,0,2,,,,,1,,,73,0
3760,note_on,,,,,16,0,1,,,,,0,,,76,0
3768,note_on,,,,,8,0,1,,,,,0,,,77,110
3776,note_on,,,,,32,0,3,,,,,2,,,45,0
3784,note_on,,,,,16,0,1,,,,,0,,,77,0
3792,note_on,,,,,32,0,2,,,,,1,,,74,110
3792,note_on,,,,,8,0,1,,,,,0,,,74,110
3824,note_on,,,,,32,0,2,,,,,1,,,74,0
3824,note_on,,,,,32,0,1,,,,,0,,,74,0
3840,note_on,,,,,64,0,3,,,,,2,,,50,110
3840,note_on,,,,,16,0,2,,,,,1,,,74,110
3840,note_on,,,,,16,0,1,,,,,0,,,74,110
3872,note_on,,,,,32,0,3,,,,,2,,,50,0
3872,note_on,,,,,32,0,1,,,,,0,,,74,0
3888,note_on,,,,,48,0,2,,,,,1,,,74,0
3936,note_on,,,,,64,0,1,,,,,0,,,77,110
3936,note_on,,,,,64,0,3,,,,,2,,,62,110
3968,note_on,,,,,32,0,1,,,,,0,,,77,0
3968,note_on,,,,,32,0,3,,,,,2,,,62,0
4032,note_on,,,,,64,0,3,,,,,2,,,57,110
4032,note_on,,,,,64,0,1,,,,,0,,,77,110
4064,note_on,,,,,32,0,1,,,,,0,,,77,0
4064,note_on,,,,,32,0,3,,,,,2,,,57,0
4128,note_on,,,,,64,0,1,,,,,0,,,77,110
4128,note_on,,,,,64,0,3,,,,,2,,,53,110
4128,note_on,,,,,240,0,2,,,,,1,,,69,110
4160,note_on,,,,,32,0,2,,,,,1,,,69,0
4160,note_on,,,,,32,0,3,,,,,2,,,53,0
4160,note_on,,,,,32,0,1,,,,,0,,,77,0
4224,note_on,,,,,64,0,2,,,,,1,,,67,110
4224,note_on,,,,,64,0,3,,,,,2,,,58,110
4224,note_on,,,,,64,0,1,,,,,0,,,77,110
4256,note_on,,,,,32,0,3,,,,,2,,,58,0
4256,note_on,,,,,32,0,1,,,,,0,,,77,0
4272,note_on,,,,,48,0,2,,,,,1,,,67,0
4320,note_on,,,,,64,0,1,,,,,0,,,79,110
4320,note_on,,,,,64,0,3,,,,,2,,,55,110
4352,note_on,,,,,32,0,3,,,,,2,,,55,0
4352,note_on,,,,,32,0,1,,,,,0,,,79,0
4368,note_on,,,,,16,0,1,,,,,0,,,77,110
4400,note_on,,,,,32,0,1,,,,,0,,,77,0
4416,note_on,,,,,16,0,1,,,,,0,,,76,110
4416,note_on,,,,,64,0,3,,,,,2,,,60,110
4448,note_on,,,,,32,0,3,,,,,2,,,60,0
4448,note_on,,,,,32,0,1,,,,,0,,,76,0
4464,note_on,,,,,16,0,1,,,,,0,,,74,110
4496,note_on,,,,,32,0,1,,,,,0,,,74,0
4512,note_on,,,,,240,0,2,,,,,1,,,79,110
4512,note_on,,,,,64,0,3,,,,,2,,,48,110
4512,note_on,,,,,16,0,1,,,,,0,,,72,110
4544,note_on,,,,,32,0,2,,,,,1,,,79,0
4544,note_on,,,,,32,0,1,,,,,0,,,72,0
4544,note_on,,,,,32,0,3,,,,,2,,,48,0
4560,note_on,,,,,16,0,1,,,,,0,,,70,110
4592,note_on,,,,,32,0,1,,,,,0,,,70,0
4608,note_on,,,,,64,0,2,,,,,1,,,79,110
4608,note_on,,,,,16,0,1,,,,,0,,,69,110
4608,note_on,,,,,64,0,3,,,,,2,,,53,110
4640,note_on,,,,,32,0,1,,,,,0,,,69,0
4640,note_on,,,,,32,0,2,,,,,1,,,79,0
4640,note_on,,,,,32,0,3,,,,,2,,,53,0
4704,note_on,,,,,64,0,2,,,,,1,,,72,110
4704,note_on,,,,,64,0,3,,,,,2,,,55,110
4704,note_on,,,,,64,0,1,,,,,0,,,81,110
4736,note_on,,,,,32,0,1,,,,,0,,,81,0
4736,note_on,,,,,32,0,2,,,,,1,,,72,0
4736,note_on,,,,,32,0,3,,,,,2,,,55,0
4800,note_on,,,,,64,0,3,,,,,2,,,57,110
4800,note_on,,,,,64,0,1,,,,,0,,,81,110
4800,note_on,,,,,64,0,2,,,,,1,,,77,110
4832,note_on,,,,,32,0,2,,,,,1,,,77,0
4832,note_on,,,,,32,0,1,,,,,0,,,81,0
4832,note_on,,,,,32,0,3,,,,,2,,,57,0
4896,note_on,,,,,64,0,3,,,,,2,,,53,110
4896,note_on,,,,,64,0,2,,,,,1,,,69,110
4896,note_on,,,,,64,0,1,,,,,0,,,81,110
4928,note_on,,,,,32,0,3,,,,,2,,,53,0
4928,note_on,,,,,32,0,2,,,,,1,,,69,0
4928,note_on,,,,,32,0,1,,,,,0,,,81,0
4992,note_on,,,,,64,0,3,,,,,2,,,55,110
4992,note_on,,,,,64,0,2,,,,,1,,,70,110
4992,note_on,,,,,64,0,1,,,,,0,,,81,110
5024,note_on,,,,,32,0,3,,,,,2,,,55,0
5024,note_on,,,,,32,0,1,,,,,0,,,81,0
5040,note_on,,,,,48,0,2,,,,,1,,,70,0
5088,note_on,,,,,64,0,1,,,,,0,,,82,110
5088,note_on,,,,,64,0,3,,,,,2,,,57,110
5120,note_on,,,,,32,0,3,,,,,2,,,57,0
5120,note_on,,,,,32,0,1,,,,,0,,,82,0
5136,note_on,,,,,16,0,1,,,,,0,,,81,110
5168,note_on,,,,,32,0,1,,,,,0,,,81,0
5184,note_on,,,,,64,0,3,,,,,2,,,58,110
5184,note_on,,,,,16,0,1,,,,,0,,,79,110
5216,note_on,,,,,32,0,1,,,,,0,,,79,0
5216,note_on,,,,,32,0,3,,,,,2,,,58,0
5232,note_on,,,,,16,0,1,,,,,0,,,77,110
5264,note_on,,,,,32,0,1,,,,,0,,,77,0
5280,note_on,,,,,64,0,3,,,,,2,,,55,110
5280,note_on,,,,,16,0,1,,,,,0,,,76,110
5280,note_on,,,,,240,0,2,,,,,1,,,70,110
5312,note_on,,,,,32,0,3,,,,,2,,,55,0
5312,note_on,,,,,32,0,1,,,,,0,,,76,0
5328,note_on,,,,,16,0,1,,,,,0,,,74,110
5360,note_on,,,,,32,0,1,,,,,0,,,74,0
5376,note_on,,,,,64,0,3,,,,,2,,,57,110
5376,note_on,,,,,16,0,1,,,,,0,,,72,110
5408,note_on,,,,,128,0,2,,,,,1,,,70,0
5408,note_on,,,,,32,0,1,,,,,0,,,72,0
5408,note_on,,,,,32,0,3,,,,,2,,,57,0
5472,note_on,,,,,64,0,1,,,,,0,,,72,110
5472,note_on,,,,,64,0,3,,,,,2,,,58,110
5472,note_on,,,,,64,0,2,,,,,1,,,69,110
5504,note_on,,,,,32,0,3,,,,,2,,,58,0
5504,note_on,,,,,32,0,1,,,,,0,,,72,0
5504,note_on,,,,,32,0,2,,,,,1,,,69,0
5520,note_on,,,,,16,0,2,,,,,1,,,67,110
5552,note_on,,,,,32,0,2,,,,,1,,,67,0
5568,note_on,,,,,64,0,3,,,,,2,,,60,110
5568,note_on,,,,,64,0,1,,,,,0,,,72,110
5568,note_on,,,,,16,0,2,,,,,1,,,69,110
5600,note_on,,,,,32,0,2,,,,,1,,,69,0
5600,note_on,,,,,32,0,3,,,,,2,,,60,0
5600,note_on,,,,,32,0,1,,,,,0,,,72,0
5616,note_on,,,,,16,0,2,,,,,1,,,67,110
5648,note_on,,,,,32,0,2,,,,,1,,,67,0
5664,note_on,,,,,16,0,2,,,,,1,,,65,110
5664,note_on,,,,,64,0,1,,,,,0,,,72,110
5664,note_on,,,,,64,0,3,,,,,2,,,57,110
5696,note_on,,,,,32,0,1,,,,,0,,,72,0
5696,note_on,,,,,32,0,3,,,,,2,,,57,0
5696,note_on,,,,,32,0,2,,,,,1,,,65,0
5712,note_on,,,,,16,0,2,,,,,1,,,64,110
5744,note_on,,,,,32,0,2,,,,,1,,,64,0
5760,note_on,,,,,16,0,2,,,,,1,,,62,110
5760,note_on,,,,,64,0,3,,,,,2,,,58,110
5760,note_on,,,,,64,0,1,,,,,0,,,72,110
5792,note_on,,,,,32,0,2,,,,,1,,,62,0
5792,note_on,,,,,32,0,1,,,,,0,,,72,0
5792,note_on,,,,,32,0,3,,,,,2,,,58,0
5856,note_on,,,,,64,0,3,,,,,2,,,60,110
5856,note_on,,,,,64,0,2,,,,,1,,,69,110
5856,note_on,,,,,64,0,1,,,,,0,,,74,110
5888,note_on,,,,,32,0,1,,,,,0,,,74,0
5888,note_on,,,,,32,0,3,,,,,2,,,60,0
5888,note_on,,,,,32,0,2,,,,,1,,,69,0
5904,note_on,,,,,16,0,1,,,,,0,,,72,110
5936,note_on,,,,,32,0,1,,,,,0,,,72,0
5952,note_on,,,,,64,0,3,,,,,2,,,62,110
5952,note_on,,,,,16,0,1,,,,,0,,,70,110
5952,note_on,,,,,64,0,2,,,,,1,,,70,110
5984,note_on,,,,,32,0,3,,,,,2,,,62,0
5984,note_on,,,,,32,0,1,,,,,0,,,70,0
6000,note_on,,,,,16,0,1,,,,,0,,,69,110
6032,note_on,,,,,32,0,1,,,,,0,,,69,0
6048,note_on,,,,,64,0,3,,,,,2,,,58,110
6048,note_on,,,,,16,0,1,,,,,0,,,67,110
6080,note_on,,,,,32,0,1,,,,,0,,,67,0
6080,note_on,,,,,32,0,3,,,,,2,,,58,0
6096,note_on,,,,,16,0,1,,,,,0,,,65,110
6128,note_on,,,,,32,0,1,,,,,0,,,65,0
6144,note_on,,,,,16,0,1,,,,,0,,,64,110
6144,note_on,,,,,64,0,3,,,,,2,,,60,110
6176,note_on,,,,,32,0,1,,,,,0,,,64,0
6176,note_on,,,,,32,0,3,,,,,2,,,60,0
6176,note_on,,,,,224,0,2,,,,,1,,,70,0
6240,note_on,,,,,64,0,1,,,,,0,,,76,110
6240,note_on,,,,,64,0,3,,,,,2,,,48,110
6240,note_on,,,,,64,0,2,,,,,1,,,70,110
6272,note_on,,,,,32,0,1,,,,,0,,,76,0
6272,note_on,,,,,32,0,2,,,,,1,,,70,0
6272,note_on,,,,,32,0,3,,,,,2,,,48,0
6336,note_on,,,,,64,0,1,,,,,0,,,77,110
6336,note_on,,,,,64,0,3,,,,,2,,,50,110
6336,note_on,,,,,64,0,2,,,,,1,,,69,110
6368,note_on,,,,,32,0,1,,,,,0,,,77,0
6368,note_on,,,,,32,0,2,,,,,1,,,69,0
6368,note_on,,,,,32,0,3,,,,,2,,,50,0
6432,note_on,,,,,64,0,1,,,,,0,,,70,110
6432,note_on,,,,,64,0,2,,,,,1,,,67,110
6432,note_on,,,,,64,0,3,,,,,2,,,46,110
6464,note_on,,,,,32,0,1,,,,,0,,,70,0
6464,note_on,,,,,32,0,2,,,,,1,,,67,0
6464,note_on,,,,,32,0,3,,,,,2,,,46,0
6528,note_on,,,,,64,0,1,,,,,0,,,69,110
6528,note_on,,,,,64,0,2,,,,,1,,,67,110
6528,note_on,,,,,64,0,3,,,,,2,,,48,110
6560,note_on,,,,,32,0,2,,,,,1,,,67,0
6560,note_on,,,,,32,0,3,,,,,2,,,48,0
6576,note_on,,,,,48,0,1,,,,,0,,,69,0
6624,note_on,,,,,64,0,2,,,,,1,,,65,110
6624,note_on,,,,,64,0,3,,,,,2,,,46,110
6656,note_on,,,,,32,0,2,,,,,1,,,65,0
6656,note_on,,,,,32,0,3,,,,,2,,,46,0
6672,note_on,,,,,96,0,1,,,,,0,,,67,110
6704,note_on,,,,,32,0,1,,,,,0,,,67,0
6720,note_on,,,,,16,0,1,,,,,0,,,67,110
6720,note_on,,,,,64,0,2,,,,,1,,,65,110
6720,note_on,,,,,64,0,3,,,,,2,,,48,110
6752,note_on,,,,,32,0,2,,,,,1,,,65,0
6752,note_on,,,,,32,0,3,,,,,2,,,48,0
6768,note_on,,,,,48,0,1,,,,,0,,,67,0
6816,note_on,,,,,64,0,2,,,,,1,,,64,110
6816,note_on,,,,,64,0,3,,,,,2,,,36,110
6848,note_on,,,,,32,0,3,,,,,2,,,36,0
6848,note_on,,,,,32,0,2,,,,,1,,,64,0
6864,note_on,,,,,96,0,1,,,,,0,,,65,110
6896,note_on,,,,,32,0,1,,,,,0,,,65,0
6912,note_on,,,,,16,0,1,,,,,0,,,65,110
6912,note_on,,,,,64,0,2,,,,,1,,,65,110
6912,note_on,,,,,64,0,3,,,,,2,,,41,110
6960,note_on,,,,,48,0,1,,,,,0,,,65,0
6960,note_on,,,,,48,0,2,,,,,1,,,65,0
6960,note_on,,,,,48,0,3,,,,,2,,,41,0
7008,note_on,,,,,7008,0,7,,,,,6,,,50,110
7008,note_on,,,,,7008,0,6,,,,,5,,,62,110
7008,note_on,,,,,7008,0,4,,,,,3,,,69,110
7008,note_on,,,,,7008,0,5,,,,,4,,,65,110
7040,note_on,,,,,32,0,6,,,,,5,,,62,0
7040,note_on,,,,,32,0,4,,,,,3,,,69,0
7040,note_on,,,,,32,0,5,,,,,4,,,65,0
7040,note_on,,,,,32,0,7,,,,,6,,,50,0
7104,note_on,,,,,144,0,2,,,,,1,,,81,110
7104,note_on,,,,,144,0,1,,,,,0,,,81,110
7104,note_on,,,,,64,0,4,,,,,3,,,74,110
7104,note_on,,,,,144,0,3,,,,,2,,,69,110
7104,note_on,,,,,64,0,5,,,,,4,,,69,110
7104,note_on,,,,,64,0,7,,,,,6,,,53,110
7104,note_on,,,,,64,0,6,,,,,5,,,57,110
7136,note_on,,,,,32,0,4,,,,,3,,,74,0
7136,note_on,,,,,32,0,7,,,,,6,,,53,0
7136,note_on,,,,,32,0,5,,,,,4,,,69,0
7136,note_on,,,,,32,0,6,,,,,5,,,57,0
7152,note_on,,,,,48,0,1,,,,,0,,,81,0
7152,note_on,,,,,48,0,2,,,,,1,,,81,0
7200,note_on,,,,,64,0,5,,,,,4,,,65,110
7200,note_on,,,,,64,0,7,,,,,6,,,50,110
7200,note_on,,,,,64,0,4,,,,,3,,,74,110
7200,note_on,,,,,64,0,6,,,,,5,,,57,110
7232,note_on,,,,,32,0,4,,,,,3,,,74,0
7232,note_on,,,,,32,0,6,,,,,5,,,57,0
7232,note_on,,,,,32,0,7,,,,,6,,,50,0
7232,note_on,,,,,32,0,5,,,,,4,,,65,0
7296,note_on,,,,,144,0,1,,,,,0,,,81,110
7296,note_on,,,,,64,0,7,,,,,6,,,57,110
7296,note_on,,,,,64,0,6,,,,,5,,,69,110
7296,note_on,,,,,64,0,5,,,,,4,,,65,110
7296,note_on,,,,,64,0,4,,,,,3,,,74,110
7296,note_on,,,,,144,0,2,,,,,1,,,81,110
7328,note_on,,,,,32,0,4,,,,,3,,,74,0
7328,note_on,,,,,32,0,7,,,,,6,,,57,0
7344,note_on,,,,,240,0,3,,,,,2,,,69,0
7344,note_on,,,,,48,0,6,,,,,5,,,69,0
7344,note_on,,,,,48,0,5,,,,,4,,,65,0
7392,note_on,,,,,64,0,4,,,,,3,,,76,110
7392,note_on,,,,,64,0,7,,,,,6,,,45,110
7424,note_on,,,,,32,0,4,,,,,3,,,76,0
7424,note_on,,,,,32,0,7,,,,,6,,,45,0
7440,note_on,,,,,16,0,4,,,,,3,,,74,110
7472,note_on,,,,,32,0,4,,,,,3,,,74,0
7488,note_on,,,,,144,0,5,,,,,4,,,64,110
7488,note_on,,,,,144,0,3,,,,,2,,,67,110
7488,note_on,,,,,64,0,7,,,,,6,,,57,110
7488,note_on,,,,,144,0,6,,,,,5,,,57,110
7488,note_on,,,,,16,0,4,,,,,3,,,73,110
7520,note_on,,,,,32,0,4,,,,,3,,,73,0
7520,note_on,,,,,32,0,7,,,,,6,,,57,0
7536,note_on,,,,,48,0,5,,,,,4,,,64,0
7536,note_on,,,,,16,0,4,,,,,3,,,74,110
7536,note_on,,,,,48,0,6,,,,,5,,,57,0
7568,note_on,,,,,32,0,4,,,,,3,,,74,0
7584,note_on,,,,,64,0,7,,,,,6,,,55,110
7584,note_on,,,,,16,0,4,,,,,3,,,76,110
7616,note_on,,,,,32,0,4,,,,,3,,,76,0
7616,note_on,,,,,32,0,7,,,,,6,,,55,0
7632,note_on,,,,,16,0,4,,,,,3,,,73,110
7664,note_on,,,,,32,0,4,,,,,3,,,73,0
7680,note_on,,,,,16,0,4,,,,,3,,,69,110
7680,note_on,,,,,64,0,7,,,,,6,,,53,110
7712,note_on,,,,,32,0,7,,,,,6,,,53,0
7712,note_on,,,,,32,0,4,,,,,3,,,69,0
7728,note_on,,,,,240,0,3,,,,,2,,,67,0
7776,note_on,,,,,240,0,6,,,,,5,,,61,110
7776,note_on,,,,,240,0,5,,,,,4,,,69,110
7776,note_on,,,,,64,0,4,,,,,3,,,69,110
7776,note_on,,,,,64,0,7,,,,,6,,,52,110
7808,note_on,,,,,32,0,5,,,,,4,,,69,0
7808,note_on,,,,,32,0,6,,,,,5,,,61,0
7808,note_on,,,,,32,0,7,,,,,6,,,52,0
7808,note_on,,,,,32,0,4,,,,,3,,,69,0
7872,note_on,,,,,64,0,7,,,,,6,,,53,110
7872,note_on,,,,,144,0,3,,,,,2,,,65,110
7872,note_on,,,,,64,0,5,,,,,4,,,74,110
7872,note_on,,,,,64,0,4,,,,,3,,,77,110
7872,note_on,,,,,64,0,6,,,,,5,,,69,110
7904,note_on,,,,,32,0,7,,,,,6,,,53,0
7904,note_on,,,,,32,0,4,,,,,3,,,77,0
7904,note_on,,,,,32,0,5,,,,,4,,,74,0
7904,note_on,,,,,32,0,6,,,,,5,,,69,0
7920,note_on,,,,,48,0,3,,,,,2,,,65,0
7968,note_on,,,,,64,0,4,,,,,3,,,77,110
7968,note_on,,,,,64,0,6,,,,,5,,,69,110
7968,note_on,,,,,64,0,7,,,,,6,,,50,110
7968,note_on,,,,,64,0,5,,,,,4,,,74,110
8000,note_on,,,,,32,0,7,,,,,6,,,50,0
8000,note_on,,,,,32,0,5,,,,,4,,,74,0
8000,note_on,,,,,32,0,4,,,,,3,,,77,0
8000,note_on,,,,,32,0,6,,,,,5,,,69,0
8064,note_on,,,,,64,0,5,,,,,4,,,74,110
8064,note_on,,,,,64,0,7,,,,,6,,,57,110
8064,note_on,,,,,64,0,4,,,,,3,,,77,110
8064,note_on,,,,,144,0,3,,,,,2,,,57,110
8064,note_on,,,,,64,0,6,,,,,5,,,69,110
8096,note_on,,,,,32,0,5,,,,,4,,,74,0
8096,note_on,,,,,32,0,7,,,,,6,,,57,0
8112,note_on,,,,,48,0,6,,,,,5,,,69,0
8112,note_on,,,,,48,0,4,,,,,3,,,77,0
8136,note_on,,,,,72,0,3,,,,,2,,,57,0
8160,note_on,,,,,64,0,5,,,,,4,,,76,110
8160,note_on,,,,,64,0,7,,,,,6,,,45,110
8192,note_on,,,,,32,0,7,,,,,6,,,45,0
8192,note_on,,,,,32,0,5,,,,,4,,,76,0
8208,note_on,,,,,16,0,5,,,,,4,,,74,110
8240,note_on,,,,,32,0,5,,,,,4,,,74,0
8256,note_on,,,,,64,0,7,,,,,6,,,57,110
8256,note_on,,,,,144,0,6,,,,,5,,,57,110
8256,note_on,,,,,16,0,5,,,,,4,,,73,110
8256,note_on,,,,,144,0,4,,,,,3,,,76,110
8288,note_on,,,,,32,0,7,,,,,6,,,57,0
8288,note_on,,,,,32,0,5,,,,,4,,,73,0
8304,note_on,,,,,48,0,6,,,,,5,,,57,0
8304,note_on,,,,,16,0,5,,,,,4,,,74,110
8304,note_on,,,,,48,0,4,,,,,3,,,76,0
8336,note_on,,,,,32,0,5,,,,,4,,,74,0
8352,note_on,,,,,216,0,3,,,,,2,,,55,110
8352,note_on,,,,,64,0,7,,,,,6,,,55,110
8352,note_on,,,,,16,0,5,,,,,4,,,76,110
8384,note_on,,,,,32,0,7,,,,,6,,,55,0
8384,note_on,,,,,32,0,5,,,,,4,,,76,0
8384,note_on,,,,,32,0,3,,,,,2,,,55,0
8400,note_on,,,,,16,0,5,,,,,4,,,73,110
8432,note_on,,,,,32,0,5,,,,,4,,,73,0
8448,note_on,,,,,64,0,3,,,,,2,,,53,110
8448,note_on,,,,,64,0,7,,,,,6,,,53,110
8448,note_on,,,,,16,0,5,,,,,4,,,69,110
8480,note_on,,,,,32,0,5,,,,,4,,,69,0
8480,note_on,,,,,32,0,7,,,,,6,,,53,0
8480,note_on,,,,,32,0,3,,,,,2,,,53,0
8480,note_on,,,,,1184,0,2,,,,,1,,,81,0
8544,note_on,,,,,64,0,7,,,,,6,,,52,110
8544,note_on,,,,,64,0,3,,,,,2,,,52,110
8544,note_on,,,,,64,0,2,,,,,1,,,73,110
8544,note_on,,,,,240,0,4,,,,,3,,,69,110
8544,note_on,,,,,64,0,5,,,,,4,,,69,110
8544,note_on,,,,,240,0,6,,,,,5,,,73,110
8576,note_on,,,,,32,0,4,,,,,3,,,69,0
8576,note_on,,,,,32,0,3,,,,,2,,,52,0
8576,note_on,,,,,32,0,2,,,,,1,,,73,0
8576,note_on,,,,,32,0,6,,,,,5,,,73,0
8576,note_on,,,,,32,0,7,,,,,6,,,52,0
8576,note_on,,,,,32,0,5,,,,,4,,,69,0
8640,note_on,,,,,64,0,3,,,,,2,,,53,110
8640,note_on,,,,,64,0,4,,,,,3,,,81,110
8640,note_on,,,,,64,0,6,,,,,5,,,74,110
8640,note_on,,,,,64,0,7,,,,,6,,,53,110
8640,note_on,,,,,64,0,2,,,,,1,,,74,110
8640,note_on,,,,,64,0,5,,,,,4,,,77,110
8672,note_on,,,,,32,0,2,,,,,1,,,74,0
8672,note_on,,,,,32,0,5,,,,,4,,,77,0
8672,note_on,,,,,32,0,7,,,,,6,,,53,0
8672,note_on,,,,,32,0,6,,,,,5,,,74,0
8672,note_on,,,,,32,0,3,,,,,2,,,53,0
8672,note_on,,,,,32,0,4,,,,,3,,,81,0
8736,note_on,,,,,64,0,3,,,,,2,,,50,110
8736,note_on,,,,,64,0,2,,,,,1,,,69,110
8736,note_on,,,,,64,0,7,,,,,6,,,50,110
8736,note_on,,,,,64,0,6,,,,,5,,,69,110
8736,note_on,,,,,64,0,5,,,,,4,,,77,110
8736,note_on,,,,,64,0,4,,,,,3,,,81,110
8768,note_on,,,,,32,0,7,,,,,6,,,50,0
8768,note_on,,,,,32,0,6,,,,,5,,,69,0
8768,note_on,,,,,32,0,5,,,,,4,,,77,0
8768,note_on,,,,,32,0,4,,,,,3,,,81,0
8768,note_on,,,,,32,0,2,,,,,1,,,69,0
8768,note_on,,,,,32,0,3,,,,,2,,,50,0
8832,note_on,,,,,64,0,4,,,,,3,,,81,110
8832,note_on,,,,,64,0,7,,,,,6,,,55,110
8832,note_on,,,,,64,0,3,,,,,2,,,55,110
8832,note_on,,,,,64,0,5,,,,,4,,,77,110
8832,note_on,,,,,64,0,2,,,,,1,,,70,110
8832,note_on,,,,,64,0,6,,,,,5,,,70,110
8864,note_on,,,,,32,0,4,,,,,3,,,81,0
8864,note_on,,,,,1568,0,1,,,,,0,,,81,0
8864,note_on,,,,,32,0,3,,,,,2,,,55,0
8864,note_on,,,,,32,0,7,,,,,6,,,55,0
8880,note_on,,,,,48,0,5,,,,,4,,,77,0
8904,note_on,,,,,72,0,6,,,,,5,,,70,0
8928,note_on,,,,,64,0,3,,,,,2,,,57,110
8928,note_on,,,,,64,0,4,,,,,3,,,82,110
8928,note_on,,,,,64,0,7,,,,,6,,,57,110
8928,note_on,,,,,64,0,1,,,,,0,,,74,110
8928,note_on,,,,,96,0,2,,,,,1,,,70,0
8960,note_on,,,,,32,0,7,,,,,6,,,57,0
8960,note_on,,,,,32,0,1,,,,,0,,,74,0
8960,note_on,,,,,32,0,4,,,,,3,,,82,0
8960,note_on,,,,,32,0,3,,,,,2,,,57,0
8976,note_on,,,,,16,0,4,,,,,3,,,81,110
9008,note_on,,,,,32,0,4,,,,,3,,,81,0
9024,note_on,,,,,16,0,4,,,,,3,,,79,110
9024,note_on,,,,,64,0,1,,,,,0,,,79,110
9024,note_on,,,,,64,0,3,,,,,2,,,58,110
9024,note_on,,,,,64,0,7,,,,,6,,,58,110
9024,note_on,,,,,144,0,5,,,,,4,,,76,110
9056,note_on,,,,,32,0,7,,,,,6,,,58,0
9056,note_on,,,,,32,0,4,,,,,3,,,79,0
9056,note_on,,,,,32,0,3,,,,,2,,,58,0
9072,note_on,,,,,16,0,4,,,,,3,,,81,110
9072,note_on,,,,,48,0,5,,,,,4,,,76,0
9104,note_on,,,,,32,0,4,,,,,3,,,81,0
9120,note_on,,,,,16,0,4,,,,,3,,,82,110
9120,note_on,,,,,64,0,3,,,,,2,,,55,110
9120,note_on,,,,,216,0,6,,,,,5,,,70,110
9120,note_on,,,,,64,0,7,,,,,6,,,55,110
9152,note_on,,,,,32,0,6,,,,,5,,,70,0
9152,note_on,,,,,32,0,4,,,,,3,,,82,0
9152,note_on,,,,,32,0,7,,,,,6,,,55,0
9152,note_on,,,,,32,0,3,,,,,2,,,55,0
9168,note_on,,,,,16,0,4,,,,,3,,,79,110
9200,note_on,,,,,32,0,4,,,,,3,,,79,0
9216,note_on,,,,,16,0,4,,,,,3,,,73,110
9216,note_on,,,,,64,0,3,,,,,2,,,57,110
9216,note_on,,,,,64,0,7,,,,,6,,,57,110
9216,note_on,,,,,144,0,5,,,,,4,,,64,110
9216,note_on,,,,,288,0,2,,,,,1,,,69,110
9216,note_on,,,,,64,0,6,,,,,5,,,69,110
9248,note_on,,,,,32,0,7,,,,,6,,,57,0
9248,note_on,,,,,224,0,1,,,,,0,,,79,0
9248,note_on,,,,,32,0,5,,,,,4,,,64,0
9248,note_on,,,,,32,0,6,,,,,5,,,69,0
9248,note_on,,,,,32,0,2,,,,,1,,,69,0
9248,note_on,,,,,32,0,3,,,,,2,,,57,0
9248,note_on,,,,,32,0,4,,,,,3,,,73,0
9312,note_on,,,,,64,0,4,,,,,3,,,69,110
9312,note_on,,,,,64,0,5,,,,,4,,,61,110
9312,note_on,,,,,64,0,2,,,,,1,,,76,110
9312,note_on,,,,,64,0,6,,,,,5,,,64,110
9312,note_on,,,,,64,0,7,,,,,6,,,45,110
9312,note_on,,,,,64,0,1,,,,,0,,,81,110
9312,note_on,,,,,64,0,3,,,,,2,,,61,110
9344,note_on,,,,,32,0,2,,,,,1,,,76,0
9344,note_on,,,,,32,0,5,,,,,4,,,61,0
9344,note_on,,,,,32,0,4,,,,,3,,,69,0
9344,note_on,,,,,32,0,6,,,,,5,,,64,0
9344,note_on,,,,,32,0,7,,,,,6,,,45,0
9344,note_on,,,,,32,0,1,,,,,0,,,81,0
9344,note_on,,,,,32,0,3,,,,,2,,,61,0
9408,note_on,,,,,64,0,1,,,,,0,,,77,110
9408,note_on,,,,,64,0,2,,,,,1,,,74,110
9408,note_on,,,,,64,0,3,,,,,2,,,62,110
9440,note_on,,,,,32,0,3,,,,,2,,,62,0
9440,note_on,,,,,32,0,1,,,,,0,,,77,0
9456,note_on,,,,,48,0,2,,,,,1,,,74,0
9504,note_on,,,,,64,0,3,,,,,2,,,55,110
9504,note_on,,,,,64,0,1,,,,,0,,,76,110
9536,note_on,,,,,32,0,3,,,,,2,,,55,0
9536,note_on,,,,,32,0,1,,,,,0,,,76,0
9600,note_on,,,,,64,0,3,,,,,2,,,57,110
9600,note_on,,,,,64,0,1,,,,,0,,,77,110
9600,note_on,,,,,144,0,2,,,,,1,,,74,110
9632,note_on,,,,,32,0,3,,,,,2,,,57,0
9648,note_on,,,,,48,0,2,,,,,1,,,74,0
9648,note_on,,,,,48,0,1,,,,,0,,,77,0
9696,note_on,,,,,64,0,3,,,,,2,,,55,110
9728,note_on,,,,,32,0,3,,,,,2,,,55,0
9744,note_on,,,,,96,0,1,,,,,0,,,76,110
9776,note_on,,,,,32,0,1,,,,,0,,,76,0
9792,note_on,,,,,16,0,1,,,,,0,,,76,110
9792,note_on,,,,,64,0,3,,,,,2,,,57,110
9792,note_on,,,,,144,0,2,,,,,1,,,73,110
9808,note_on,,,,,16,0,1,,,,,0,,,76,0
9816,note_on,,,,,8,0,1,,,,,0,,,77,110
9824,note_on,,,,,32,0,3,,,,,2,,,57,0
9832,note_on,,,,,16,0,1,,,,,0,,,77,0
9840,note_on,,,,,48,0,2,,,,,1,,,73,0
9840,note_on,,,,,8,0,1,,,,,0,,,76,110
9856,note_on,,,,,16,0,1,,,,,0,,,76,0
9864,note_on,,,,,8,0,1,,,,,0,,,77,110
9880,note_on,,,,,16,0,1,,,,,0,,,77,0
9888,note_on,,,,,8,0,1,,,,,0,,,76,110
9888,note_on,,,,,64,0,3,,,,,2,,,45,110
9904,note_on,,,,,16,0,1,,,,,0,,,76,0
9912,note_on,,,,,8,0,1,,,,,0,,,77,110
9920,note_on,,,,,32,0,3,,,,,2,,,45,0
9928,note_on,,,,,16,0,1,,,,,0,,,77,0
9936,note_on,,,,,8,0,1,,,,,0,,,74,110
9968,note_on,,,,,32,0,1,,,,,0,,,74,0
9984,note_on,,,,,144,0,2,,,,,1,,,74,110
9984,note_on,,,,,64,0,3,,,,,2,,,38,110
9984,note_on,,,,,16,0,1,,,,,0,,,74,110
10032,note_on,,,,,48,0,1,,,,,0,,,74,0
10032,note_on,,,,,48,0,2,,,,,1,,,74,0
10032,note_on,,,,,48,0,3,,,,,2,,,38,0
10080,note_on,,,,,736,0,7,,,,,6,,,50,110
10080,note_on,,,,,736,0,6,,,,,5,,,69,110
10080,note_on,,,,,736,0,5,,,,,4,,,77,110
10080,note_on,,,,,736,0,4,,,,,3,,,81,110
10112,note_on,,,,,32,0,4,,,,,3,,,81,0
10112,note_on,,,,,32,0,7,,,,,6,,,50,0
10112,note_on,,,,,32,0,5,,,,,4,,,77,0
10112,note_on,,,,,32,0,6,,,,,5,,,69,0
10176,note_on,,,,,64,0,7,,,,,6,,,53,110
10176,note_on,,,,,64,0,4,,,,,3,,,86,110
10176,note_on,,,,,64,0,6,,,,,5,,,69,110
10176,note_on,,,,,64,0,5,,,,,4,,,81,110
10208,note_on,,,,,32,0,6,,,,,5,,,69,0
10208,note_on,,,,,32,0,7,,,,,6,,,53,0
10208,note_on,,,,,32,0,4,,,,,3,,,86,0
10208,note_on,,,,,32,0,5,,,,,4,,,81,0
10272,note_on,,,,,64,0,5,,,,,4,,,77,110
10272,note_on,,,,,64,0,4,,,,,3,,,86,110
10272,note_on,,,,,64,0,6,,,,,5,,,69,110
10272,note_on,,,,,64,0,7,,,,,6,,,50,110
10304,note_on,,,,,32,0,4,,,,,3,,,86,0
10304,note_on,,,,,32,0,6,,,,,5,,,69,0
10304,note_on,,,,,32,0,7,,,,,6,,,50,0
10304,note_on,,,,,32,0,5,,,,,4,,,77,0
10368,note_on,,,,,64,0,5,,,,,4,,,76,110
10368,note_on,,,,,64,0,6,,,,,5,,,69,110
10368,note_on,,,,,64,0,7,,,,,6,,,57,110
10368,note_on,,,,,64,0,4,,,,,3,,,86,110
10400,note_on,,,,,32,0,5,,,,,4,,,76,0
10400,note_on,,,,,32,0,6,,,,,5,,,69,0
10400,note_on,,,,,32,0,7,,,,,6,,,57,0
10464,note_on,,,,,64,0,6,,,,,5,,,69,110
10464,note_on,,,,,64,0,7,,,,,6,,,58,110
10464,note_on,,,,,64,0,5,,,,,4,,,76,110
10464,note_on,,,,,96,0,4,,,,,3,,,86,0
10464,note_on,,,,,0,0,4,,,,,3,,,84,110
10496,note_on,,,,,32,0,7,,,,,6,,,58,0
10496,note_on,,,,,32,0,6,,,,,5,,,69,0
10496,note_on,,,,,32,0,4,,,,,3,,,84,0
10496,note_on,,,,,32,0,5,,,,,4,,,76,0
10512,note_on,,,,,16,0,4,,,,,3,,,82,110
10544,note_on,,,,,32,0,4,,,,,3,,,82,0
10560,note_on,,,,,64,0,6,,,,,5,,,69,110
10560,note_on,,,,,64,0,5,,,,,4,,,76,110
10560,note_on,,,,,16,0,4,,,,,3,,,81,110
10560,note_on,,,,,64,0,7,,,,,6,,,60,110
10592,note_on,,,,,32,0,4,,,,,3,,,81,0
10592,note_on,,,,,32,0,6,,,,,5,,,69,0
10592,note_on,,,,,32,0,5,,,,,4,,,76,0
10592,note_on,,,,,32,0,7,,,,,6,,,60,0
10608,note_on,,,,,16,0,4,,,,,3,,,79,110
10640,note_on,,,,,32,0,4,,,,,3,,,79,0
10656,note_on,,,,,64,0,6,,,,,5,,,69,110
10656,note_on,,,,,16,0,4,,,,,3,,,77,110
10656,note_on,,,,,64,0,7,,,,,6,,,57,110
10656,note_on,,,,,64,0,5,,,,,4,,,72,110
10688,note_on,,,,,32,0,6,,,,,5,,,69,0
10688,note_on,,,,,32,0,5,,,,,4,,,72,0
10688,note_on,,,,,32,0,4,,,,,3,,,77,0
10688,note_on,,,,,32,0,7,,,,,6,,,57,0
10704,note_on,,,,,16,0,4,,,,,3,,,76,110
10736,note_on,,,,,32,0,4,,,,,3,,,76,0
10752,note_on,,,,,64,0,7,,,,,6,,,58,110
10752,note_on,,,,,64,0,5,,,,,4,,,72,110
10752,note_on,,,,,64,0,6,,,,,5,,,65,110
10752,note_on,,,,,16,0,4,,,,,3,,,74,110
10784,note_on,,,,,32,0,5,,,,,4,,,72,0
10784,note_on,,,,,32,0,6,,,,,5,,,65,0
10784,note_on,,,,,32,0,4,,,,,3,,,74,0
10784,note_on,,,,,32,0,7,,,,,6,,,58,0
10848,note_on,,,,,64,0,5,,,,,4,,,70,110
10848,note_on,,,,,64,0,7,,,,,6,,,46,110
10848,note_on,,,,,64,0,6,,,,,5,,,65,110
10848,note_on,,,,,64,0,4,,,,,3,,,82,110
10880,note_on,,,,,32,0,4,,,,,3,,,82,0
10880,note_on,,,,,32,0,5,,,,,4,,,70,0
10880,note_on,,,,,32,0,6,,,,,5,,,65,0
10880,note_on,,,,,32,0,7,,,,,6,,,46,0
10944,note_on,,,,,64,0,6,,,,,5,,,65,110
10944,note_on,,,,,64,0,4,,,,,3,,,82,110
10944,note_on,,,,,64,0,7,,,,,6,,,50,110
10944,note_on,,,,,64,0,5,,,,,4,,,77,110
10976,note_on,,,,,32,0,6,,,,,5,,,65,0
10976,note_on,,,,,32,0,4,,,,,3,,,82,0
10976,note_on,,,,,32,0,7,,,,,6,,,50,0
10976,note_on,,,,,32,0,5,,,,,4,,,77,0
11040,note_on,,,,,64,0,6,,,,,5,,,65,110
11040,note_on,,,,,64,0,4,,,,,3,,,82,110
11040,note_on,,,,,64,0,7,,,,,6,,,52,110
11040,note_on,,,,,64,0,5,,,,,4,,,74,110
11072,note_on,,,,,32,0,4,,,,,3,,,82,0
11072,note_on,,,,,32,0,7,,,,,6,,,52,0
11072,note_on,,,,,32,0,6,,,,,5,,,65,0
11072,note_on,,,,,32,0,5,,,,,4,,,74,0
11136,note_on,,,,,64,0,5,,,,,4,,,72,110
11136,note_on,,,,,64,0,6,,,,,5,,,65,110
11136,note_on,,,,,64,0,4,,,,,3,,,82,110
11136,note_on,,,,,64,0,7,,,,,6,,,53,110
11168,note_on,,,,,32,0,5,,,,,4,,,72,0
11168,note_on,,,,,32,0,7,,,,,6,,,53,0
11168,note_on,,,,,32,0,6,,,,,5,,,65,0
11232,note_on,,,,,64,0,7,,,,,6,,,55,110
11232,note_on,,,,,64,0,6,,,,,5,,,65,110
11232,note_on,,,,,0,0,4,,,,,3,,,81,110
11232,note_on,,,,,96,0,4,,,,,3,,,82,0
11232,note_on,,,,,64,0,5,,,,,4,,,72,110
11264,note_on,,,,,32,0,7,,,,,6,,,55,0
11264,note_on,,,,,32,0,6,,,,,5,,,65,0
11264,note_on,,,,,32,0,5,,,,,4,,,72,0
11264,note_on,,,,,32,0,4,,,,,3,,,81,0
11280,note_on,,,,,16,0,4,,,,,3,,,79,110
11312,note_on,,,,,32,0,4,,,,,3,,,79,0
11328,note_on,,,,,64,0,7,,,,,6,,,57,110
11328,note_on,,,,,64,0,6,,,,,5,,,65,110
11328,note_on,,,,,64,0,5,,,,,4,,,72,110
11328,note_on,,,,,16,0,4,,,,,3,,,77,110
11360,note_on,,,,,32,0,5,,,,,4,,,72,0
11360,note_on,,,,,32,0,4,,,,,3,,,77,0
11360,note_on,,,,,32,0,7,,,,,6,,,57,0
11360,note_on,,,,,32,0,6,,,,,5,,,65,0
11376,note_on,,,,,16,0,4,,,,,3,,,76,110
11408,note_on,,,,,32,0,4,,,,,3,,,76,0
11424,note_on,,,,,64,0,6,,,,,5,,,65,110
11424,note_on,,,,,64,0,5,,,,,4,,,69,110
11424,note_on,,,,,64,0,7,,,,,6,,,53,110
11424,note_on,,,,,16,0,4,,,,,3,,,74,110
11456,note_on,,,,,32,0,4,,,,,3,,,74,0
11456,note_on,,,,,32,0,6,,,,,5,,,65,0
11456,note_on,,,,,32,0,5,,,,,4,,,69,0
11456,note_on,,,,,32,0,7,,,,,6,,,53,0
11472,note_on,,,,,16,0,4,,,,,3,,,72,110
11504,note_on,,,,,32,0,4,,,,,3,,,72,0
11520,note_on,,,,,16,0,4,,,,,3,,,70,110
11520,note_on,,,,,64,0,5,,,,,4,,,69,110
11520,note_on,,,,,64,0,6,,,,,5,,,62,110
11520,note_on,,,,,64,0,7,,,,,6,,,55,110
11552,note_on,,,,,32,0,7,,,,,6,,,55,0
11552,note_on,,,,,32,0,5,,,,,4,,,69,0
11552,note_on,,,,,32,0,4,,,,,3,,,70,0
11552,note_on,,,,,32,0,6,,,,,5,,,62,0
11616,note_on,,,,,64,0,4,,,,,3,,,79,110
11616,note_on,,,,,64,0,7,,,,,6,,,43,110
11616,note_on,,,,,64,0,5,,,,,4,,,67,110
11616,note_on,,,,,64,0,6,,,,,5,,,62,110
11648,note_on,,,,,32,0,7,,,,,6,,,43,0
11648,note_on,,,,,32,0,5,,,,,4,,,67,0
11648,note_on,,,,,32,0,6,,,,,5,,,62,0
11648,note_on,,,,,32,0,4,,,,,3,,,79,0
11712,note_on,,,,,64,0,6,,,,,5,,,62,110
11712,note_on,,,,,64,0,7,,,,,6,,,46,110
11712,note_on,,,,,64,0,5,,,,,4,,,74,110
11712,note_on,,,,,64,0,4,,,,,3,,,79,110
11744,note_on,,,,,32,0,6,,,,,5,,,62,0
11744,note_on,,,,,32,0,5,,,,,4,,,74,0
11744,note_on,,,,,32,0,7,,,,,6,,,46,0
11744,note_on,,,,,32,0,4,,,,,3,,,79,0
11808,note_on,,,,,64,0,6,,,,,5,,,62,110
11808,note_on,,,,,64,0,5,,,,,4,,,70,110
11808,note_on,,,,,64,0,7,,,,,6,,,48,110
11808,note_on,,,,,64,0,4,,,,,3,,,79,110
11840,note_on,,,,,32,0,5,,,,,4,,,70,0
11840,note_on,,,,,32,0,4,,,,,3,,,79,0
11840,note_on,,,,,32,0,7,,,,,6,,,48,0
11840,note_on,,,,,32,0,6,,,,,5,,,62,0
11904,note_on,,,,,64,0,5,,,,,4,,,69,110
11904,note_on,,,,,64,0,7,,,,,6,,,50,110
11904,note_on,,,,,64,0,4,,,,,3,,,79,110
11904,note_on,,,,,64,0,6,,,,,5,,,62,110
11936,note_on,,,,,32,0,7,,,,,6,,,50,0
11936,note_on,,,,,32,0,5,,,,,4,,,69,0
11936,note_on,,,,,32,0,6,,,,,5,,,62,0
12000,note_on,,,,,64,0,5,,,,,4,,,69,110
12000,note_on,,,,,64,0,7,,,,,6,,,52,110
12000,note_on,,,,,64,0,6,,,,,5,,,62,110
12000,note_on,,,,,0,0,4,,,,,3,,,77,110
12000,note_on,,,,,96,0,4,,,,,3,,,79,0
12032,note_on,,,,,32,0,5,,,,,4,,,69,0
12032,note_on,,,,,32,0,7,,,,,6,,,52,0
12032,note_on,,,,,32,0,6,,,,,5,,,62,0
12032,note_on,,,,,32,0,4,,,,,3,,,77,0
12048,note_on,,,,,16,0,4,,,,,3,,,76,110
12080,note_on,,,,,32,0,4,,,,,3,,,76,0
12096,note_on,,,,,64,0,5,,,,,4,,,69,110
12096,note_on,,,,,16,0,4,,,,,3,,,74,110
12096,note_on,,,,,64,0,6,,,,,5,,,62,110
12096,note_on,,,,,64,0,7,,,,,6,,,53,110
12128,note_on,,,,,32,0,4,,,,,3,,,74,0
12128,note_on,,,,,32,0,5,,,,,4,,,69,0
12128,note_on,,,,,32,0,6,,,,,5,,,62,0
12128,note_on,,,,,32,0,7,,,,,6,,,53,0
12144,note_on,,,,,16,0,4,,,,,3,,,72,110
12176,note_on,,,,,32,0,4,,,,,3,,,72,0
12192,note_on,,,,,16,0,4,,,,,3,,,70,110
12192,note_on,,,,,64,0,5,,,,,4,,,65,110
12192,note_on,,,,,64,0,7,,,,,6,,,50,110
12192,note_on,,,,,64,0,6,,,,,5,,,62,110
12224,note_on,,,,,32,0,4,,,,,3,,,70,0
12224,note_on,,,,,32,0,7,,,,,6,,,50,0
12224,note_on,,,,,32,0,5,,,,,4,,,65,0
12224,note_on,,,,,32,0,6,,,,,5,,,62,0
12240,note_on,,,,,16,0,4,,,,,3,,,69,110
12272,note_on,,,,,32,0,4,,,,,3,,,69,0
12288,note_on,,,,,64,0,5,,,,,4,,,64,110
12288,note_on,,,,,64,0,6,,,,,5,,,58,110
12288,note_on,,,,,64,0,7,,,,,6,,,52,110
12288,note_on,,,,,16,0,4,,,,,3,,,67,110
12320,note_on,,,,,32,0,4,,,,,3,,,67,0
12320,note_on,,,,,32,0,5,,,,,4,,,64,0
12320,note_on,,,,,32,0,6,,,,,5,,,58,0
12320,note_on,,,,,32,0,7,,,,,6,,,52,0
12384,note_on,,,,,64,0,4,,,,,3,,,76,110
12384,note_on,,,,,64,0,5,,,,,4,,,67,110
12384,note_on,,,,,64,0,7,,,,,6,,,50,110
12384,note_on,,,,,64,0,6,,,,,5,,,58,110
12416,note_on,,,,,32,0,7,,,,,6,,,50,0
12416,note_on,,,,,32,0,6,,,,,5,,,58,0
12416,note_on,,,,,32,0,5,,,,,4,,,67,0
12416,note_on,,,,,32,0,4,,,,,3,,,76,0
12480,note_on,,,,,64,0,5,,,,,4,,,67,110
12480,note_on,,,,,64,0,6,,,,,5,,,57,110
12480,note_on,,,,,64,0,7,,,,,6,,,49,110
12480,note_on,,,,,64,0,4,,,,,3,,,76,110
12512,note_on,,,,,32,0,7,,,,,6,,,49,0
12512,note_on,,,,,32,0,5,,,,,4,,,67,0
12512,note_on,,,,,32,0,6,,,,,5,,,57,0
12512,note_on,,,,,32,0,4,,,,,3,,,76,0
12576,note_on,,,,,64,0,5,,,,,4,,,67,110
12576,note_on,,,,,64,0,6,,,,,5,,,57,110
12576,note_on,,,,,64,0,7,,,,,6,,,45,110
12576,note_on,,,,,64,0,4,,,,,3,,,76,110
12608,note_on,,,,,32,0,5,,,,,4,,,67,0
12608,note_on,,,,,32,0,4,,,,,3,,,76,0
12608,note_on,,,,,32,0,7,,,,,6,,,45,0
12608,note_on,,,,,32,0,6,,,,,5,,,57,0
12672,note_on,,,,,64,0,4,,,,,3,,,65,110
12672,note_on,,,,,64,0,5,,,,,4,,,65,110
12672,note_on,,,,,64,0,7,,,,,6,,,50,110
12672,note_on,,,,,64,0,6,,,,,5,,,57,110
12704,note_on,,,,,32,0,5,,,,,4,,,65,0
12704,note_on,,,,,32,0,7,,,,,6,,,50,0
12704,note_on,,,,,32,0,4,,,,,3,,,65,0
12704,note_on,,,,,32,0,6,,,,,5,,,57,0
12768,note_on,,,,,64,0,6,,,,,5,,,57,110
12768,note_on,,,,,64,0,7,,,,,6,,,48,110
12768,note_on,,,,,64,0,5,,,,,4,,,65,110
12768,note_on,,,,,64,0,4,,,,,3,,,74,110
12800,note_on,,,,,32,0,4,,,,,3,,,74,0
12800,note_on,,,,,32,0,5,,,,,4,,,65,0
12800,note_on,,,,,32,0,6,,,,,5,,,57,0
12800,note_on,,,,,32,0,7,,,,,6,,,48,0
12864,note_on,,,,,64,0,6,,,,,5,,,59,110
12864,note_on,,,,,64,0,7,,,,,6,,,47,110
12864,note_on,,,,,64,0,5,,,,,4,,,65,110
12864,note_on,,,,,64,0,4,,,,,3,,,74,110
12896,note_on,,,,,32,0,7,,,,,6,,,47,0
12896,note_on,,,,,32,0,5,,,,,4,,,65,0
12896,note_on,,,,,32,0,6,,,,,5,,,59,0
12896,note_on,,,,,32,0,4,,,,,3,,,74,0
12960,note_on,,,,,64,0,6,,,,,5,,,59,110
12960,note_on,,,,,64,0,7,,,,,6,,,45,110
12960,note_on,,,,,64,0,4,,,,,3,,,74,110
12960,note_on,,,,,64,0,5,,,,,4,,,65,110
12992,note_on,,,,,32,0,4,,,,,3,,,74,0
12992,note_on,,,,,32,0,5,,,,,4,,,65,0
12992,note_on,,,,,32,0,7,,,,,6,,,45,0
12992,note_on,,,,,32,0,6,,,,,5,,,59,0
13056,note_on,,,,,64,0,4,,,,,3,,,64,110
13056,note_on,,,,,64,0,6,,,,,5,,,59,110
13056,note_on,,,,,64,0,7,,,,,6,,,44,110
13056,note_on,,,,,64,0,5,,,,,4,,,64,110
13088,note_on,,,,,32,0,6,,,,,5,,,59,0
13088,note_on,,,,,32,0,7,,,,,6,,,44,0
13088,note_on,,,,,32,0,5,,,,,4,,,64,0
13088,note_on,,,,,32,0,4,,,,,3,,,64,0
13152,note_on,,,,,64,0,7,,,,,6,,,52,110
13152,note_on,,,,,64,0,6,,,,,5,,,59,110
13152,note_on,,,,,64,0,5,,,,,4,,,64,110
13152,note_on,,,,,64,0,4,,,,,3,,,72,110
13184,note_on,,,,,32,0,7,,,,,6,,,52,0
13184,note_on,,,,,32,0,6,,,,,5,,,59,0
13184,note_on,,,,,32,0,4,,,,,3,,,72,0
13184,note_on,,,,,32,0,5,,,,,4,,,64,0
13248,note_on,,,,,64,0,5,,,,,4,,,64,110
13248,note_on,,,,,64,0,6,,,,,5,,,57,110
13248,note_on,,,,,64,0,7,,,,,6,,,57,110
13248,note_on,,,,,64,0,4,,,,,3,,,72,110
13280,note_on,,,,,32,0,6,,,,,5,,,57,0
13280,note_on,,,,,32,0,5,,,,,4,,,64,0
13280,note_on,,,,,32,0,7,,,,,6,,,57,0
13280,note_on,,,,,32,0,4,,,,,3,,,72,0
13344,note_on,,,,,64,0,7,,,,,6,,,45,110
13344,note_on,,,,,64,0,6,,,,,5,,,57,110
13344,note_on,,,,,64,0,4,,,,,3,,,72,110
13344,note_on,,,,,64,0,5,,,,,4,,,64,110
13376,note_on,,,,,32,0,7,,,,,6,,,45,0
13376,note_on,,,,,32,0,6,,,,,5,,,57,0
13376,note_on,,,,,32,0,5,,,,,4,,,64,0
13376,note_on,,,,,32,0,4,,,,,3,,,72,0
13440,note_on,,,,,64,0,6,,,,,5,,,57,110
13440,note_on,,,,,64,0,7,,,,,6,,,53,110
13440,note_on,,,,,64,0,5,,,,,4,,,62,110
13440,note_on,,,,,64,0,4,,,,,3,,,62,110
13472,note_on,,,,,32,0,6,,,,,5,,,57,0
13472,note_on,,,,,32,0,7,,,,,6,,,53,0
13472,note_on,,,,,32,0,4,,,,,3,,,62,0
13472,note_on,,,,,32,0,5,,,,,4,,,62,0
13536,note_on,,,,,64,0,4,,,,,3,,,77,110
13536,note_on,,,,,64,0,7,,,,,6,,,57,110
13536,note_on,,,,,64,0,5,,,,,4,,,62,110
13536,note_on,,,,,64,0,6,,,,,5,,,57,110
13568,note_on,,,,,32,0,5,,,,,4,,,62,0
13568,note_on,,,,,32,0,7,,,,,6,,,57,0
13568,note_on,,,,,32,0,6,,,,,5,,,57,0
13568,note_on,,,,,32,0,4,,,,,3,,,77,0
13584,note_on,,,,,16,0,4,,,,,3,,,76,110
13616,note_on,,,,,32,0,4,,,,,3,,,76,0
13632,note_on,,,,,64,0,5,,,,,4,,,62,110
13632,note_on,,,,,16,0,4,,,,,3,,,74,110
13632,note_on,,,,,64,0,6,,,,,5,,,57,110
13632,note_on,,,,,64,0,7,,,,,6,,,53,110
13664,note_on,,,,,32,0,7,,,,,6,,,53,0
13664,note_on,,,,,32,0,4,,,,,3,,,74,0
13664,note_on,,,,,32,0,6,,,,,5,,,57,0
13664,note_on,,,,,32,0,5,,,,,4,,,62,0
13680,note_on,,,,,16,0,4,,,,,3,,,72,110
13712,note_on,,,,,32,0,4,,,,,3,,,72,0
13728,note_on,,,,,64,0,6,,,,,5,,,65,110
13728,note_on,,,,,64,0,7,,,,,6,,,50,110
13728,note_on,,,,,64,0,5,,,,,4,,,62,110
13728,note_on,,,,,16,0,4,,,,,3,,,71,110
13760,note_on,,,,,32,0,7,,,,,6,,,50,0
13760,note_on,,,,,32,0,6,,,,,5,,,65,0
13760,note_on,,,,,32,0,5,,,,,4,,,62,0
13760,note_on,,,,,32,0,4,,,,,3,,,71,0
13776,note_on,,,,,16,0,4,,,,,3,,,69,110
13808,note_on,,,,,32,0,4,,,,,3,,,69,0
13824,note_on,,,,,64,0,6,,,,,5,,,64,110
13824,note_on,,,,,16,0,4,,,,,3,,,68,110
13824,note_on,,,,,64,0,7,,,,,6,,,52,110
13824,note_on,,,,,64,0,5,,,,,4,,,59,110
13856,note_on,,,,,32,0,5,,,,,4,,,59,0
13856,note_on,,,,,32,0,7,,,,,6,,,52,0
13856,note_on,,,,,32,0,4,,,,,3,,,68,0
13856,note_on,,,,,32,0,6,,,,,5,,,64,0
13920,note_on,,,,,64,0,7,,,,,6,,,52,110
13920,note_on,,,,,64,0,6,,,,,5,,,64,110
13920,note_on,,,,,64,0,5,,,,,4,,,68,110
13920,note_on,,,,,64,0,4,,,,,3,,,76,110
13952,note_on,,,,,32,0,7,,,,,6,,,52,0
13952,note_on,,,,,32,0,6,,,,,5,,,64,0
13952,note_on,,,,,32,0,5,,,,,4,,,68,0
13952,note_on,,,,,32,0,4,,,,,3,,,76,0
14016,note_on,,,,,64,0,7,,,,,6,,,48,110
14016,note_on,,,,,64,0,6,,,,,5,,,64,110
14016,note_on,,,,,64,0,5,,,,,4,,,76,110
14016,note_on,,,,,64,0,4,,,,,3,,,81,110
14048,note_on,,,,,32,0,5,,,,,4,,,76,0
14048,note_on,,,,,32,0,7,,,,,6,,,48,0
14048,note_on,,,,,32,0,6,,,,,5,,,64,0
14048,note_on,,,,,32,0,4,,,,,3,,,81,0
14112,note_on,,,,,64,0,7,,,,,6,,,45,110
14112,note_on,,,,,64,0,6,,,,,5,,,64,110
14112,note_on,,,,,64,0,5,,,,,4,,,72,110
14112,note_on,,,,,64,0,4,,,,,3,,,81,110
14144,note_on,,,,,32,0,4,,,,,3,,,81,0
14144,note_on,,,,,32,0,5,,,,,4,,,72,0
14144,note_on,,,,,32,0,7,,,,,6,,,45,0
14144,note_on,,,,,32,0,6,,,,,5,,,64,0
14208,note_on,,,,,64,0,4,,,,,3,,,81,110
14208,note_on,,,,,64,0,6,,,,,5,,,64,110
14208,note_on,,,,,64,0,5,,,,,4,,,71,110
14208,note_on,,,,,64,0,7,,,,,6,,,52,110
14240,note_on,,,,,32,0,4,,,,,3,,,81,0
14256,note_on,,,,,48,0,6,,,,,5,,,64,0
14256,note_on,,,,,48,0,7,,,,,6,,,52,0
14256,note_on,,,,,48,0,5,,,,,4,,,71,0
14304,note_on,,,,,64,0,4,,,,,3,,,83,110
14304,note_on,,,,,4272,0,2,,,,,1,,,64,110
14304,note_on,,,,,4272,0,3,,,,,2,,,52,110
14304,note_on,,,,,4272,0,1,,,,,0,,,64,110
14336,note_on,,,,,32,0,1,,,,,0,,,64,0
14336,note_on,,,,,32,0,2,,,,,1,,,64,0
14336,note_on,,,,,32,0,4,,,,,3,,,83,0
14336,note_on,,,,,32,0,3,,,,,2,,,52,0
14352,note_on,,,,,16,0,4,,,,,3,,,81,110
14384,note_on,,,,,32,0,4,,,,,3,,,81,0
14400,note_on,,,,,64,0,1,,,,,0,,,71,110
14400,note_on,,,,,64,0,2,,,,,1,,,71,110
14400,note_on,,,,,144,0,7,,,,,6,,,40,110
14400,note_on,,,,,64,0,3,,,,,2,,,64,110
14400,note_on,,,,,144,0,6,,,,,5,,,59,110
14400,note_on,,,,,16,0,4,,,,,3,,,80,110
14400,note_on,,,,,144,0,5,,,,,4,,,64,110
14432,note_on,,,,,32,0,4,,,,,3,,,80,0
14432,note_on,,,,,32,0,3,,,,,2,,,64,0
14432,note_on,,,,,32,0,1,,,,,0,,,71,0
14432,note_on,,,,,32,0,2,,,,,1,,,71,0
14448,note_on,,,,,16,0,4,,,,,3,,,81,110
14448,note_on,,,,,48,0,5,,,,,4,,,64,0
14448,note_on,,,,,48,0,6,,,,,5,,,59,0
14448,note_on,,,,,48,0,7,,,,,6,,,40,0
14480,note_on,,,,,32,0,4,,,,,3,,,81,0
14496,note_on,,,,,16,0,4,,,,,3,,,83,110
14496,note_on,,,,,64,0,2,,,,,1,,,71,110
14496,note_on,,,,,64,0,1,,,,,0,,,71,110
14496,note_on,,,,,64,0,3,,,,,2,,,62,110
14528,note_on,,,,,32,0,4,,,,,3,,,83,0
14528,note_on,,,,,32,0,2,,,,,1,,,71,0
14528,note_on,,,,,32,0,1,,,,,0,,,71,0
14528,note_on,,,,,32,0,3,,,,,2,,,62,0
14544,note_on,,,,,16,0,4,,,,,3,,,80,110
14576,note_on,,,,,32,0,4,,,,,3,,,80,0
14592,note_on,,,,,16,0,4,,,,,3,,,76,110
14592,note_on,,,,,64,0,2,,,,,1,,,71,110
14592,note_on,,,,,64,0,1,,,,,0,,,71,110
14592,note_on,,,,,64,0,3,,,,,2,,,60,110
14624,note_on,,,,,32,0,1,,,,,0,,,71,0
14624,note_on,,,,,32,0,4,,,,,3,,,76,0
14624,note_on,,,,,32,0,2,,,,,1,,,71,0
14664,note_on,,,,,72,0,3,,,,,2,,,60,0
14688,note_on,,,,,64,0,1,,,,,0,,,72,110
14688,note_on,,,,,240,0,7,,,,,6,,,45,110
14688,note_on,,,,,64,0,4,,,,,3,,,76,110
14688,note_on,,,,,240,0,6,,,,,5,,,69,110
14688,note_on,,,,,64,0,2,,,,,1,,,72,110
14688,note_on,,,,,240,0,5,,,,,4,,,72,110
14720,note_on,,,,,32,0,1,,,,,0,,,72,0
14720,note_on,,,,,32,0,2,,,,,1,,,72,0
14720,note_on,,,,,32,0,4,,,,,3,,,76,0
14720,note_on,,,,,32,0,7,,,,,6,,,45,0
14720,note_on,,,,,32,0,5,,,,,4,,,72,0
14720,note_on,,,,,32,0,6,,,,,5,,,69,0
14736,note_on,,,,,16,0,2,,,,,1,,,71,110
14736,note_on,,,,,16,0,1,,,,,0,,,71,110
14768,note_on,,,,,32,0,2,,,,,1,,,71,0
14768,note_on,,,,,32,0,1,,,,,0,,,71,0
14784,note_on,,,,,16,0,1,,,,,0,,,69,110
14784,note_on,,,,,64,0,7,,,,,6,,,57,110
14784,note_on,,,,,16,0,2,,,,,1,,,69,110
14784,note_on,,,,,64,0,5,,,,,4,,,76,110
14784,note_on,,,,,64,0,6,,,,,5,,,69,110
14784,note_on,,,,,64,0,4,,,,,3,,,84,110
14816,note_on,,,,,32,0,5,,,,,4,,,76,0
14816,note_on,,,,,32,0,6,,,,,5,,,69,0
14816,note_on,,,,,32,0,7,,,,,6,,,57,0
14816,note_on,,,,,32,0,2,,,,,1,,,69,0
14816,note_on,,,,,32,0,1,,,,,0,,,69,0
14816,note_on,,,,,32,0,4,,,,,3,,,84,0
14832,note_on,,,,,16,0,2,,,,,1,,,71,110
14832,note_on,,,,,16,0,1,,,,,0,,,71,110
14864,note_on,,,,,32,0,2,,,,,1,,,71,0
14864,note_on,,,,,32,0,1,,,,,0,,,71,0
14880,note_on,,,,,64,0,4,,,,,3,,,84,110
14880,note_on,,,,,216,0,3,,,,,2,,,57,110
14880,note_on,,,,,64,0,6,,,,,5,,,69,110
14880,note_on,,,,,64,0,5,,,,,4,,,76,110
14880,note_on,,,,,64,0,7,,,,,6,,,57,110
14880,note_on,,,,,16,0,2,,,,,1,,,72,110
14880,note_on,,,,,16,0,1,,,,,0,,,72,110
14912,note_on,,,,,32,0,7,,,,,6,,,57,0
14912,note_on,,,,,32,0,2,,,,,1,,,72,0
14912,note_on,,,,,32,0,5,,,,,4,,,76,0
14912,note_on,,,,,32,0,4,,,,,3,,,84,0
14912,note_on,,,,,32,0,6,,,,,5,,,69,0
14912,note_on,,,,,32,0,3,,,,,2,,,57,0
14912,note_on,,,,,32,0,1,,,,,0,,,72,0
14928,note_on,,,,,16,0,1,,,,,0,,,69,110
14928,note_on,,,,,16,0,2,,,,,1,,,69,110
14960,note_on,,,,,32,0,1,,,,,0,,,69,0
14960,note_on,,,,,32,0,2,,,,,1,,,69,0
14976,note_on,,,,,64,0,6,,,,,5,,,69,110
14976,note_on,,,,,16,0,1,,,,,0,,,65,110
14976,note_on,,,,,16,0,2,,,,,1,,,65,110
14976,note_on,,,,,64,0,5,,,,,4,,,74,110
14976,note_on,,,,,64,0,4,,,,,3,,,84,110
14976,note_on,,,,,64,0,3,,,,,2,,,50,110
14976,note_on,,,,,64,0,7,,,,,6,,,50,110
15008,note_on,,,,,32,0,2,,,,,1,,,65,0
15008,note_on,,,,,32,0,3,,,,,2,,,50,0
15008,note_on,,,,,32,0,7,,,,,6,,,50,0
15008,note_on,,,,,32,0,1,,,,,0,,,65,0
15024,note_on,,,,,48,0,5,,,,,4,,,74,0
15024,note_on,,,,,48,0,6,,,,,5,,,69,0
15024,note_on,,,,,48,0,4,,,,,3,,,84,0
15072,note_on,,,,,64,0,3,,,,,2,,,62,110
15072,note_on,,,,,64,0,7,,,,,6,,,50,110
15072,note_on,,,,,64,0,1,,,,,0,,,65,110
15072,note_on,,,,,64,0,2,,,,,1,,,65,110
15104,note_on,,,,,32,0,7,,,,,6,,,50,0
15104,note_on,,,,,32,0,1,,,,,0,,,65,0
15104,note_on,,,,,32,0,2,,,,,1,,,65,0
15104,note_on,,,,,32,0,3,,,,,2,,,62,0
15168,note_on,,,,,144,0,4,,,,,3,,,83,110
15168,note_on,,,,,64,0,7,,,,,6,,,53,110
15168,note_on,,,,,64,0,1,,,,,0,,,74,110
15168,note_on,,,,,144,0,5,,,,,4,,,62,110
15168,note_on,,,,,144,0,6,,,,,5,,,69,110
15168,note_on,,,,,64,0,2,,,,,1,,,74,110
15168,note_on,,,,,64,0,3,,,,,2,,,65,110
15200,note_on,,,,,32,0,7,,,,,6,,,53,0
15200,note_on,,,,,32,0,1,,,,,0,,,74,0
15200,note_on,,,,,32,0,2,,,,,1,,,74,0
15200,note_on,,,,,32,0,3,,,,,2,,,65,0
15216,note_on,,,,,48,0,4,,,,,3,,,83,0
15216,note_on,,,,,48,0,6,,,,,5,,,69,0
15216,note_on,,,,,48,0,5,,,,,4,,,62,0
15264,note_on,,,,,64,0,7,,,,,6,,,53,110
15264,note_on,,,,,64,0,2,,,,,1,,,74,110
15264,note_on,,,,,64,0,3,,,,,2,,,65,110
15264,note_on,,,,,64,0,1,,,,,0,,,74,110
15296,note_on,,,,,32,0,2,,,,,1,,,74,0
15296,note_on,,,,,32,0,1,,,,,0,,,74,0
15296,note_on,,,,,32,0,3,,,,,2,,,65,0
15296,note_on,,,,,32,0,7,,,,,6,,,53,0
15360,note_on,,,,,64,0,7,,,,,6,,,44,110
15360,note_on,,,,,64,0,2,,,,,1,,,74,110
15360,note_on,,,,,64,0,3,,,,,2,,,56,110
15360,note_on,,,,,64,0,1,,,,,0,,,74,110
15392,note_on,,,,,32,0,7,,,,,6,,,44,0
15392,note_on,,,,,32,0,3,,,,,2,,,56,0
15408,note_on,,,,,48,0,1,,,,,0,,,74,0
15408,note_on,,,,,48,0,2,,,,,1,,,74,0
15456,note_on,,,,,240,0,4,,,,,3,,,64,110
15456,note_on,,,,,240,0,6,,,,,5,,,68,110
15456,note_on,,,,,64,0,3,,,,,2,,,52,110
15456,note_on,,,,,64,0,7,,,,,6,,,52,110
15456,note_on,,,,,240,0,5,,,,,4,,,71,110
15488,note_on,,,,,32,0,7,,,,,6,,,52,0
15488,note_on,,,,,32,0,5,,,,,4,,,71,0
15488,note_on,,,,,32,0,4,,,,,3,,,64,0
15488,note_on,,,,,32,0,3,,,,,2,,,52,0
15488,note_on,,,,,32,0,6,,,,,5,,,68,0
15552,note_on,,,,,64,0,7,,,,,6,,,57,110
15552,note_on,,,,,64,0,6,,,,,5,,,69,110
15552,note_on,,,,,144,0,2,,,,,1,,,72,110
15552,note_on,,,,,64,0,3,,,,,2,,,57,110
15552,note_on,,,,,64,0,4,,,,,3,,,76,110
15552,note_on,,,,,64,0,5,,,,,4,,,72,110
15552,note_on,,,,,144,0,1,,,,,0,,,72,110
15584,note_on,,,,,32,0,5,,,,,4,,,72,0
15584,note_on,,,,,32,0,7,,,,,6,,,57,0
15584,note_on,,,,,32,0,6,,,,,5,,,69,0
15584,note_on,,,,,32,0,3,,,,,2,,,57,0
15584,note_on,,,,,32,0,4,,,,,3,,,76,0
15600,note_on,,,,,48,0,2,,,,,1,,,72,0
15600,note_on,,,,,48,0,1,,,,,0,,,72,0
15648,note_on,,,,,64,0,5,,,,,4,,,64,110
15648,note_on,,,,,64,0,7,,,,,6,,,55,110
15648,note_on,,,,,64,0,6,,,,,5,,,71,110
15648,note_on,,,,,64,0,4,,,,,3,,,76,110
15648,note_on,,,,,64,0,3,,,,,2,,,55,110
15680,note_on,,,,,32,0,7,,,,,6,,,55,0
15680,note_on,,,,,32,0,4,,,,,3,,,76,0
15680,note_on,,,,,32,0,3,,,,,2,,,55,0
15680,note_on,,,,,32,0,5,,,,,4,,,64,0
15680,note_on,,,,,32,0,6,,,,,5,,,71,0
15744,note_on,,,,,64,0,3,,,,,2,,,53,110
15744,note_on,,,,,64,0,5,,,,,4,,,69,110
15744,note_on,,,,,64,0,4,,,,,3,,,76,110
15744,note_on,,,,,64,0,7,,,,,6,,,53,110
15744,note_on,,,,,64,0,6,,,,,5,,,72,110
15776,note_on,,,,,32,0,3,,,,,2,,,53,0
15776,note_on,,,,,32,0,6,,,,,5,,,72,0
15776,note_on,,,,,32,0,7,,,,,6,,,53,0
15776,note_on,,,,,32,0,4,,,,,3,,,76,0
15776,note_on,,,,,32,0,5,,,,,4,,,69,0
15840,note_on,,,,,240,0,2,,,,,1,,,69,110
15840,note_on,,,,,64,0,5,,,,,4,,,69,110
15840,note_on,,,,,240,0,1,,,,,0,,,69,110
15840,note_on,,,,,64,0,6,,,,,5,,,60,110
15840,note_on,,,,,64,0,3,,,,,2,,,52,110
15840,note_on,,,,,64,0,7,,,,,6,,,52,110
15840,note_on,,,,,64,0,4,,,,,3,,,77,110
15872,note_on,,,,,32,0,6,,,,,5,,,60,0
15872,note_on,,,,,32,0,5,,,,,4,,,69,0
15872,note_on,,,,,32,0,3,,,,,2,,,52,0
15872,note_on,,,,,32,0,2,,,,,1,,,69,0
15872,note_on,,,,,32,0,4,,,,,3,,,77,0
15872,note_on,,,,,32,0,1,,,,,0,,,69,0
15872,note_on,,,,,32,0,7,,,,,6,,,52,0
15888,note_on,,,,,16,0,4,,,,,3,,,76,110
15920,note_on,,,,,32,0,4,,,,,3,,,76,0
15936,note_on,,,,,64,0,6,,,,,5,,,62,110
15936,note_on,,,,,64,0,7,,,,,6,,,53,110
15936,note_on,,,,,64,0,2,,,,,1,,,77,110
15936,note_on,,,,,64,0,5,,,,,4,,,69,110
15936,note_on,,,,,64,0,1,,,,,0,,,77,110
15936,note_on,,,,,64,0,3,,,,,2,,,53,110
15936,note_on,,,,,16,0,4,,,,,3,,,74,110
15968,note_on,,,,,32,0,7,,,,,6,,,53,0
15968,note_on,,,,,32,0,5,,,,,4,,,69,0
15968,note_on,,,,,32,0,1,,,,,0,,,77,0
15968,note_on,,,,,32,0,6,,,,,5,,,62,0
15968,note_on,,,,,32,0,3,,,,,2,,,53,0
15968,note_on,,,,,32,0,4,,,,,3,,,74,0
15968,note_on,,,,,32,0,2,,,,,1,,,77,0
15984,note_on,,,,,16,0,4,,,,,3,,,76,110
16016,note_on,,,,,32,0,4,,,,,3,,,76,0
16032,note_on,,,,,64,0,5,,,,,4,,,69,110
16032,note_on,,,,,64,0,6,,,,,5,,,62,110
16032,note_on,,,,,64,0,7,,,,,6,,,50,110
16032,note_on,,,,,64,0,1,,,,,0,,,77,110
16032,note_on,,,,,16,0,4,,,,,3,,,77,110
16032,note_on,,,,,64,0,3,,,,,2,,,50,110
16032,note_on,,,,,64,0,2,,,,,1,,,77,110
16064,note_on,,,,,32,0,2,,,,,1,,,77,0
16064,note_on,,,,,32,0,5,,,,,4,,,69,0
16064,note_on,,,,,32,0,6,,,,,5,,,62,0
16064,note_on,,,,,32,0,3,,,,,2,,,50,0
16064,note_on,,,,,32,0,1,,,,,0,,,77,0
16064,note_on,,,,,32,0,4,,,,,3,,,77,0
16064,note_on,,,,,32,0,7,,,,,6,,,50,0
16080,note_on,,,,,16,0,4,,,,,3,,,74,110
16112,note_on,,,,,32,0,4,,,,,3,,,74,0
16128,note_on,,,,,64,0,7,,,,,6,,,52,110
16128,note_on,,,,,64,0,5,,,,,4,,,64,110
16128,note_on,,,,,64,0,2,,,,,1,,,71,110
16128,note_on,,,,,64,0,6,,,,,5,,,59,110
16128,note_on,,,,,64,0,1,,,,,0,,,71,110
16128,note_on,,,,,16,0,4,,,,,3,,,68,110
16128,note_on,,,,,64,0,3,,,,,2,,,52,110
16160,note_on,,,,,32,0,6,,,,,5,,,59,0
16160,note_on,,,,,32,0,7,,,,,6,,,52,0
16160,note_on,,,,,32,0,2,,,,,1,,,71,0
16160,note_on,,,,,32,0,4,,,,,3,,,68,0
16160,note_on,,,,,32,0,3,,,,,2,,,52,0
16160,note_on,,,,,32,0,5,,,,,4,,,64,0
16160,note_on,,,,,32,0,1,,,,,0,,,71,0
16224,note_on,,,,,64,0,4,,,,,3,,,64,110
16224,note_on,,,,,64,0,7,,,,,6,,,48,110
16224,note_on,,,,,64,0,5,,,,,4,,,64,110
16224,note_on,,,,,64,0,3,,,,,2,,,48,110
16224,note_on,,,,,64,0,1,,,,,0,,,76,110
16224,note_on,,,,,64,0,6,,,,,5,,,60,110
16224,note_on,,,,,64,0,2,,,,,1,,,76,110
16256,note_on,,,,,32,0,7,,,,,6,,,48,0
16256,note_on,,,,,32,0,5,,,,,4,,,64,0
16256,note_on,,,,,32,0,6,,,,,5,,,60,0
16256,note_on,,,,,32,0,4,,,,,3,,,64,0
16256,note_on,,,,,32,0,2,,,,,1,,,76,0
16256,note_on,,,,,32,0,3,,,,,2,,,48,0
16256,note_on,,,,,32,0,1,,,,,0,,,76,0
16320,note_on,,,,,64,0,1,,,,,0,,,69,110
16320,note_on,,,,,64,0,2,,,,,1,,,69,110
16320,note_on,,,,,64,0,5,,,,,4,,,62,110
16320,note_on,,,,,64,0,7,,,,,6,,,53,110
16320,note_on,,,,,64,0,4,,,,,3,,,81,110
16320,note_on,,,,,64,0,3,,,,,2,,,53,110
16320,note_on,,,,,64,0,6,,,,,5,,,62,110
16352,note_on,,,,,32,0,6,,,,,5,,,62,0
16352,note_on,,,,,32,0,1,,,,,0,,,69,0
16352,note_on,,,,,32,0,7,,,,,6,,,53,0
16352,note_on,,,,,32,0,5,,,,,4,,,62,0
16352,note_on,,,,,32,0,3,,,,,2,,,53,0
16352,note_on,,,,,32,0,2,,,,,1,,,69,0
16416,note_on,,,,,64,0,7,,,,,6,,,50,110
16416,note_on,,,,,64,0,3,,,,,2,,,50,110
16416,note_on,,,,,64,0,5,,,,,4,,,65,110
16416,note_on,,,,,64,0,1,,,,,0,,,74,110
16416,note_on,,,,,64,0,2,,,,,1,,,74,110
16416,note_on,,,,,64,0,6,,,,,5,,,59,110
16448,note_on,,,,,32,0,5,,,,,4,,,65,0
16448,note_on,,,,,32,0,3,,,,,2,,,50,0
16448,note_on,,,,,32,0,6,,,,,5,,,59,0
16448,note_on,,,,,32,0,2,,,,,1,,,74,0
16448,note_on,,,,,32,0,7,,,,,6,,,50,0
16448,note_on,,,,,32,0,1,,,,,0,,,74,0
16512,note_on,,,,,64,0,2,,,,,1,,,72,110
16512,note_on,,,,,64,0,6,,,,,5,,,60,110
16512,note_on,,,,,64,0,3,,,,,2,,,52,110
16512,note_on,,,,,64,0,7,,,,,6,,,52,110
16512,note_on,,,,,64,0,5,,,,,4,,,64,110
16512,note_on,,,,,64,0,1,,,,,0,,,72,110
16544,note_on,,,,,32,0,7,,,,,6,,,52,0
16544,note_on,,,,,32,0,6,,,,,5,,,60,0
16544,note_on,,,,,32,0,3,,,,,2,,,52,0
16544,note_on,,,,,224,0,4,,,,,3,,,81,0
16560,note_on,,,,,48,0,2,,,,,1,,,72,0
16560,note_on,,,,,48,0,1,,,,,0,,,72,0
16584,note_on,,,,,72,0,5,,,,,4,,,64,0
16608,note_on,,,,,64,0,6,,,,,5,,,65,110
16608,note_on,,,,,64,0,3,,,,,2,,,50,110
16608,note_on,,,,,64,0,4,,,,,3,,,83,110
16608,note_on,,,,,64,0,7,,,,,6,,,50,110
16640,note_on,,,,,32,0,3,,,,,2,,,50,0
16640,note_on,,,,,32,0,7,,,,,6,,,50,0
16640,note_on,,,,,32,0,4,,,,,3,,,83,0
16640,note_on,,,,,32,0,6,,,,,5,,,65,0
16704,note_on,,,,,64,0,6,,,,,5,,,59,110
16704,note_on,,,,,64,0,3,,,,,2,,,52,110
16704,note_on,,,,,64,0,4,,,,,3,,,80,110
16704,note_on,,,,,64,0,7,,,,,6,,,52,110
16704,note_on,,,,,144,0,2,,,,,1,,,71,110
16704,note_on,,,,,144,0,1,,,,,0,,,71,110
16720,note_on,,,,,16,0,4,,,,,3,,,80,0
16720,note_on,,,,,16,0,1,,,,,0,,,71,0
16728,note_on,,,,,24,0,2,,,,,1,,,71,0
16728,note_on,,,,,0,0,2,,,,,1,,,72,110
16728,note_on,,,,,8,0,1,,,,,0,,,72,110
16728,note_on,,,,,8,0,4,,,,,3,,,81,110
16736,note_on,,,,,32,0,7,,,,,6,,,52,0
16736,note_on,,,,,32,0,6,,,,,5,,,59,0
16736,note_on,,,,,32,0,3,,,,,2,,,52,0
16744,note_on,,,,,16,0,4,,,,,3,,,81,0
16744,note_on,,,,,16,0,1,,,,,0,,,72,0
16752,note_on,,,,,8,0,1,,,,,0,,,71,110
16752,note_on,,,,,0,0,2,,,,,1,,,71,110
16752,note_on,,,,,24,0,2,,,,,1,,,72,0
16752,note_on,,,,,8,0,4,,,,,3,,,80,110
16768,note_on,,,,,16,0,1,,,,,0,,,71,0
16768,note_on,,,,,16,0,4,,,,,3,,,80,0
16776,note_on,,,,,24,0,2,,,,,1,,,71,0
16776,note_on,,,,,8,0,4,,,,,3,,,81,110
16776,note_on,,,,,0,0,2,,,,,1,,,72,110
16776,note_on,,,,,8,0,1,,,,,0,,,72,110
16792,note_on,,,,,16,0,4,,,,,3,,,81,0
16792,note_on,,,,,16,0,1,,,,,0,,,72,0
16800,note_on,,,,,216,0,5,,,,,4,,,76,110
16800,note_on,,,,,64,0,6,,,,,5,,,64,110
16800,note_on,,,,,24,0,2,,,,,1,,,72,0
16800,note_on,,,,,0,0,2,,,,,1,,,71,110
16800,note_on,,,,,64,0,7,,,,,6,,,40,110
16800,note_on,,,,,8,0,4,,,,,3,,,80,110
16800,note_on,,,,,64,0,3,,,,,2,,,40,110
16800,note_on,,,,,8,0,1,,,,,0,,,71,110
16816,note_on,,,,,16,0,1,,,,,0,,,71,0
16816,note_on,,,,,16,0,4,,,,,3,,,80,0
16824,note_on,,,,,0,0,2,,,,,1,,,72,110
16824,note_on,,,,,24,0,2,,,,,1,,,71,0
16824,note_on,,,,,8,0,1,,,,,0,,,72,110
16832,note_on,,,,,32,0,6,,,,,5,,,64,0
16832,note_on,,,,,32,0,3,,,,,2,,,40,0
16832,note_on,,,,,32,0,7,,,,,6,,,40,0
16832,note_on,,,,,32,0,5,,,,,4,,,76,0
16840,note_on,,,,,16,0,1,,,,,0,,,72,0
16848,note_on,,,,,8,0,1,,,,,0,,,69,110
16848,note_on,,,,,32,0,4,,,,,3,,,81,110
16848,note_on,,,,,0,0,2,,,,,1,,,69,110
16848,note_on,,,,,24,0,2,,,,,1,,,72,0
16880,note_on,,,,,32,0,2,,,,,1,,,69,0
16880,note_on,,,,,32,0,4,,,,,3,,,81,0
16880,note_on,,,,,32,0,1,,,,,0,,,69,0
16896,note_on,,,,,64,0,6,,,,,5,,,64,110
16896,note_on,,,,,64,0,7,,,,,6,,,45,110
16896,note_on,,,,,64,0,3,,,,,2,,,45,110
16896,note_on,,,,,16,0,1,,,,,0,,,69,110
16896,note_on,,,,,64,0,5,,,,,4,,,72,110
16896,note_on,,,,,16,0,2,,,,,1,,,69,110
16896,note_on,,,,,16,0,4,,,,,3,,,81,110
16928,note_on,,,,,32,0,1,,,,,0,,,69,0
16928,note_on,,,,,32,0,2,,,,,1,,,69,0
16928,note_on,,,,,32,0,3,,,,,2,,,45,0
16944,note_on,,,,,48,0,5,,,,,4,,,72,0
16944,note_on,,,,,48,0,6,,,,,5,,,64,0
16944,note_on,,,,,48,0,4,,,,,3,,,81,0
16944,note_on,,,,,48,0,7,,,,,6,,,45,0
16992,note_on,,,,,64,0,3,,,,,2,,,45,110
16992,note_on,,,,,64,0,1,,,,,0,,,81,110
16992,note_on,,,,,64,0,2,,,,,1,,,69,110
17024,note_on,,,,,32,0,2,,,,,1,,,69,0
17024,note_on,,,,,32,0,1,,,,,0,,,81,0
17024,note_on,,,,,32,0,3,,,,,2,,,45,0
17088,note_on,,,,,64,0,1,,,,,0,,,72,110
17088,note_on,,,,,64,0,2,,,,,1,,,69,110
17088,note_on,,,,,64,0,3,,,,,2,,,57,110
17120,note_on,,,,,32,0,2,,,,,1,,,69,0
17120,note_on,,,,,32,0,1,,,,,0,,,72,0
17120,note_on,,,,,32,0,3,,,,,2,,,57,0
17184,note_on,,,,,64,0,2,,,,,1,,,69,110
17184,note_on,,,,,64,0,3,,,,,2,,,55,110
17184,note_on,,,,,64,0,1,,,,,0,,,72,110
17216,note_on,,,,,32,0,3,,,,,2,,,55,0
17216,note_on,,,,,32,0,1,,,,,0,,,72,0
17216,note_on,,,,,32,0,2,,,,,1,,,69,0
17280,note_on,,,,,64,0,3,,,,,2,,,54,110
17280,note_on,,,,,64,0,1,,,,,0,,,72,110
17280,note_on,,,,,64,0,2,,,,,1,,,69,110
17312,note_on,,,,,32,0,2,,,,,1,,,69,0
17312,note_on,,,,,32,0,1,,,,,0,,,72,0
17312,note_on,,,,,32,0,3,,,,,2,,,54,0
17376,note_on,,,,,64,0,1,,,,,0,,,70,110
17376,note_on,,,,,64,0,2,,,,,1,,,67,110
17376,note_on,,,,,64,0,3,,,,,2,,,55,110
17408,note_on,,,,,32,0,3,,,,,2,,,55,0
17408,note_on,,,,,32,0,2,,,,,1,,,67,0
17408,note_on,,,,,32,0,1,,,,,0,,,70,0
17472,note_on,,,,,64,0,1,,,,,0,,,69,110
17472,note_on,,,,,64,0,3,,,,,2,,,48,110
17472,note_on,,,,,64,0,2,,,,,1,,,67,110
17504,note_on,,,,,32,0,1,,,,,0,,,69,0
17504,note_on,,,,,32,0,3,,,,,2,,,48,0
17504,note_on,,,,,32,0,2,,,,,1,,,67,0
17520,note_on,,,,,16,0,1,,,,,0,,,70,110
17552,note_on,,,,,32,0,1,,,,,0,,,70,0
17568,note_on,,,,,64,0,3,,,,,2,,,50,110
17568,note_on,,,,,16,0,1,,,,,0,,,72,110
17568,note_on,,,,,64,0,2,,,,,1,,,66,110
17600,note_on,,,,,32,0,3,,,,,2,,,50,0
17600,note_on,,,,,32,0,2,,,,,1,,,66,0
17600,note_on,,,,,32,0,1,,,,,0,,,72,0
17616,note_on,,,,,16,0,1,,,,,0,,,69,110
17648,note_on,,,,,32,0,1,,,,,0,,,69,0
17664,note_on,,,,,16,0,1,,,,,0,,,70,127
17664,note_on,,,,,64,0,3,,,,,2,,,43,127
17664,note_on,,,,,64,0,2,,,,,1,,,67,127
17712,note_on,,,,,48,0,3,,,,,2,,,43,0
17712,note_on,,,,,48,0,1,,,,,0,,,70,0
17712,note_on,,,,,48,0,2,,,,,1,,,67,0
17760,note_on,,,,,816,0,4,,,,,3,,,79,110
17760,note_on,,,,,816,0,7,,,,,6,,,43,110
17760,note_on,,,,,816,0,6,,,,,5,,,67,110
17760,note_on,,,,,816,0,5,,,,,4,,,70,110
17792,note_on,,,,,32,0,4,,,,,3,,,79,0
17792,note_on,,,,,32,0,5,,,,,4,,,70,0
17792,note_on,,,,,32,0,6,,,,,5,,,67,0
17792,note_on,,,,,32,0,7,,,,,6,,,43,0
17856,note_on,,,,,64,0,4,,,,,3,,,70,110
17856,note_on,,,,,64,0,6,,,,,5,,,62,110
17856,note_on,,,,,64,0,5,,,,,4,,,67,110
17856,note_on,,,,,64,0,7,,,,,6,,,55,110
17888,note_on,,,,,32,0,5,,,,,4,,,67,0
17888,note_on,,,,,32,0,4,,,,,3,,,70,0
17888,note_on,,,,,32,0,6,,,,,5,,,62,0
17888,note_on,,,,,32,0,7,,,,,6,,,55,0
17952,note_on,,,,,64,0,7,,,,,6,,,53,110
17952,note_on,,,,,64,0,4,,,,,3,,,70,110
17952,note_on,,,,,64,0,6,,,,,5,,,62,110
17952,note_on,,,,,64,0,5,,,,,4,,,67,110
17984,note_on,,,,,32,0,7,,,,,6,,,53,0
17984,note_on,,,,,32,0,6,,,,,5,,,62,0
17984,note_on,,,,,32,0,4,,,,,3,,,70,0
17984,note_on,,,,,32,0,5,,,,,4,,,67,0
18048,note_on,,,,,64,0,5,,,,,4,,,67,110
18048,note_on,,,,,64,0,4,,,,,3,,,70,110
18048,note_on,,,,,64,0,7,,,,,6,,,52,110
18048,note_on,,,,,64,0,6,,,,,5,,,60,110
18080,note_on,,,,,32,0,5,,,,,4,,,67,0
18080,note_on,,,,,32,0,7,,,,,6,,,52,0
18080,note_on,,,,,32,0,6,,,,,5,,,60,0
18080,note_on,,,,,32,0,4,,,,,3,,,70,0
18144,note_on,,,,,64,0,6,,,,,5,,,60,110
18144,note_on,,,,,64,0,4,,,,,3,,,69,110
18144,note_on,,,,,64,0,5,,,,,4,,,65,110
18144,note_on,,,,,64,0,7,,,,,6,,,53,110
18176,note_on,,,,,32,0,6,,,,,5,,,60,0
18176,note_on,,,,,32,0,5,,,,,4,,,65,0
18176,note_on,,,,,32,0,7,,,,,6,,,53,0
18176,note_on,,,,,32,0,4,,,,,3,,,69,0
18240,note_on,,,,,64,0,7,,,,,6,,,46,110
18240,note_on,,,,,64,0,4,,,,,3,,,67,110
18240,note_on,,,,,64,0,6,,,,,5,,,62,110
18240,note_on,,,,,64,0,5,,,,,4,,,65,110
18272,note_on,,,,,32,0,7,,,,,6,,,46,0
18272,note_on,,,,,32,0,6,,,,,5,,,62,0
18272,note_on,,,,,32,0,4,,,,,3,,,67,0
18272,note_on,,,,,32,0,5,,,,,4,,,65,0
18288,note_on,,,,,16,0,4,,,,,3,,,69,110
18320,note_on,,,,,32,0,4,,,,,3,,,69,0
18336,note_on,,,,,64,0,7,,,,,6,,,48,110
18336,note_on,,,,,64,0,6,,,,,5,,,60,110
18336,note_on,,,,,16,0,4,,,,,3,,,70,110
18336,note_on,,,,,64,0,5,,,,,4,,,64,110
18368,note_on,,,,,32,0,6,,,,,5,,,60,0
18368,note_on,,,,,32,0,4,,,,,3,,,70,0
18368,note_on,,,,,32,0,5,,,,,4,,,64,0
18368,note_on,,,,,32,0,7,,,,,6,,,48,0
18384,note_on,,,,,16,0,4,,,,,3,,,67,110
18416,note_on,,,,,32,0,4,,,,,3,,,67,0
18432,note_on,,,,,64,0,6,,,,,5,,,60,110
18432,note_on,,,,,64,0,5,,,,,4,,,65,110
18432,note_on,,,,,64,0,7,,,,,6,,,41,110
18432,note_on,,,,,16,0,4,,,,,3,,,69,110
18480,note_on,,,,,48,0,6,,,,,5,,,60,0
18480,note_on,,,,,48,0,5,,,,,4,,,65,0
18480,note_on,,,,,48,0,4,,,,,3,,,69,0
18480,note_on,,,,,48,0,7,,,,,6,,,41,0
18528,note_on,,,,,816,0,2,,,,,1,,,69,110
18528,note_on,,,,,816,0,1,,,,,0,,,69,110
18528,note_on,,,,,816,0,3,,,,,2,,,53,110
18560,note_on,,,,,32,0,2,,,,,1,,,69,0
18560,note_on,,,,,32,0,3,,,,,2,,,53,0
18560,note_on,,,,,32,0,1,,,,,0,,,69,0
18576,note_on,,,,,16,0,3,,,,,2,,,52,110
18576,note_on,,,,,16,0,2,,,,,1,,,67,110
18608,note_on,,,,,32,0,3,,,,,2,,,52,0
18608,note_on,,,,,32,0,2,,,,,1,,,67,0
18624,note_on,,,,,64,0,1,,,,,0,,,74,110
18624,note_on,,,,,16,0,2,,,,,1,,,65,110
18624,note_on,,,,,16,0,3,,,,,2,,,50,110
18656,note_on,,,,,32,0,3,,,,,2,,,50,0
18656,note_on,,,,,32,0,1,,,,,0,,,74,0
18656,note_on,,,,,32,0,2,,,,,1,,,65,0
18672,note_on,,,,,16,0,3,,,,,2,,,52,110
18672,note_on,,,,,16,0,2,,,,,1,,,67,110
18704,note_on,,,,,32,0,2,,,,,1,,,67,0
18704,note_on,,,,,32,0,3,,,,,2,,,52,0
18720,note_on,,,,,16,0,2,,,,,1,,,69,110
18720,note_on,,,,,16,0,3,,,,,2,,,53,110
18720,note_on,,,,,64,0,1,,,,,0,,,74,110
18752,note_on,,,,,32,0,3,,,,,2,,,53,0
18752,note_on,,,,,32,0,1,,,,,0,,,74,0
18752,note_on,,,,,32,0,2,,,,,1,,,69,0
18768,note_on,,,,,16,0,3,,,,,2,,,50,110
18768,note_on,,,,,16,0,2,,,,,1,,,65,110
18800,note_on,,,,,32,0,3,,,,,2,,,50,0
18800,note_on,,,,,32,0,2,,,,,1,,,65,0
18816,note_on,,,,,64,0,1,,,,,0,,,67,110
18816,note_on,,,,,16,0,3,,,,,2,,,52,110
18816,note_on,,,,,16,0,2,,,,,1,,,67,110
18848,note_on,,,,,32,0,3,,,,,2,,,52,0
18848,note_on,,,,,32,0,2,,,,,1,,,67,0
18848,note_on,,,,,32,0,1,,,,,0,,,67,0
18912,note_on,,,,,64,0,2,,,,,1,,,67,110
18912,note_on,,,,,64,0,3,,,,,2,,,52,110
18912,note_on,,,,,64,0,1,,,,,0,,,67,110
18944,note_on,,,,,32,0,2,,,,,1,,,67,0
18944,note_on,,,,,32,0,3,,,,,2,,,52,0
18944,note_on,,,,,32,0,1,,,,,0,,,67,0
18960,note_on,,,,,16,0,2,,,,,1,,,65,110
18960,note_on,,,,,16,0,3,,,,,2,,,50,110
18992,note_on,,,,,32,0,3,,,,,2,,,50,0
18992,note_on,,,,,32,0,2,,,,,1,,,65,0
19008,note_on,,,,,16,0,2,,,,,1,,,64,110
19008,note_on,,,,,16,0,3,,,,,2,,,48,110
19008,note_on,,,,,64,0,1,,,,,0,,,72,110
19040,note_on,,,,,32,0,3,,,,,2,,,48,0
19040,note_on,,,,,32,0,1,,,,,0,,,72,0
19040,note_on,,,,,32,0,2,,,,,1,,,64,0
19056,note_on,,,,,16,0,2,,,,,1,,,65,110
19056,note_on,,,,,16,0,3,,,,,2,,,50,110
19088,note_on,,,,,32,0,3,,,,,2,,,50,0
19088,note_on,,,,,32,0,2,,,,,1,,,65,0
19104,note_on,,,,,16,0,3,,,,,2,,,52,110
19104,note_on,,,,,16,0,2,,,,,1,,,67,110
19104,note_on,,,,,64,0,1,,,,,0,,,72,110
19136,note_on,,,,,32,0,2,,,,,1,,,67,0
19136,note_on,,,,,32,0,1,,,,,0,,,72,0
19136,note_on,,,,,32,0,3,,,,,2,,,52,0
19152,note_on,,,,,16,0,3,,,,,2,,,48,110
19152,note_on,,,,,16,0,2,,,,,1,,,64,110
19184,note_on,,,,,32,0,3,,,,,2,,,48,0
19184,note_on,,,,,32,0,2,,,,,1,,,64,0
19200,note_on,,,,,16,0,3,,,,,2,,,53,110
19200,note_on,,,,,16,0,2,,,,,1,,,69,110
19200,note_on,,,,,64,0,1,,,,,0,,,72,110
19232,note_on,,,,,32,0,1,,,,,0,,,72,0
19232,note_on,,,,,32,0,2,,,,,1,,,69,0
19232,note_on,,,,,32,0,3,,,,,2,,,53,0
19296,note_on,,,,,64,0,2,,,,,1,,,65,110
19296,note_on,,,,,64,0,1,,,,,0,,,74,110
19296,note_on,,,,,64,0,3,,,,,2,,,50,110
19328,note_on,,,,,32,0,3,,,,,2,,,50,0
19328,note_on,,,,,32,0,2,,,,,1,,,65,0
19328,note_on,,,,,32,0,1,,,,,0,,,74,0
19344,note_on,,,,,16,0,1,,,,,0,,,72,110
19376,note_on,,,,,32,0,1,,,,,0,,,72,0
19392,note_on,,,,,64,0,3,,,,,2,,,55,110
19392,note_on,,,,,16,0,1,,,,,0,,,71,110
19392,note_on,,,,,64,0,2,,,,,1,,,62,110
19424,note_on,,,,,32,0,3,,,,,2,,,55,0
19424,note_on,,,,,32,0,1,,,,,0,,,71,0
19424,note_on,,,,,32,0,2,,,,,1,,,62,0
19440,note_on,,,,,16,0,1,,,,,0,,,72,110
19472,note_on,,,,,32,0,1,,,,,0,,,72,0
19488,note_on,,,,,16,0,1,,,,,0,,,74,110
19488,note_on,,,,,64,0,2,,,,,1,,,71,110
19488,note_on,,,,,64,0,3,,,,,2,,,43,110
19520,note_on,,,,,32,0,2,,,,,1,,,71,0
19520,note_on,,,,,32,0,3,,,,,2,,,43,0
19520,note_on,,,,,32,0,1,,,,,0,,,74,0
19536,note_on,,,,,16,0,1,,,,,0,,,71,110
19568,note_on,,,,,32,0,1,,,,,0,,,71,0
19584,note_on,,,,,64,0,3,,,,,2,,,48,110
19584,note_on,,,,,64,0,2,,,,,1,,,72,110
19584,note_on,,,,,16,0,1,,,,,0,,,76,110
19616,note_on,,,,,32,0,2,,,,,1,,,72,0
19616,note_on,,,,,32,0,3,,,,,2,,,48,0
19616,note_on,,,,,32,0,1,,,,,0,,,76,0
19680,note_on,,,,,64,0,3,,,,,2,,,57,110
19680,note_on,,,,,64,0,2,,,,,1,,,72,110
19680,note_on,,,,,64,0,1,,,,,0,,,72,110
19712,note_on,,,,,32,0,2,,,,,1,,,72,0
19712,note_on,,,,,32,0,1,,,,,0,,,72,0
19712,note_on,,,,,32,0,3,,,,,2,,,57,0
19728,note_on,,,,,16,0,2,,,,,1,,,70,110
19760,note_on,,,,,32,0,2,,,,,1,,,70,0
19776,note_on,,,,,64,0,1,,,,,0,,,77,110
19776,note_on,,,,,16,0,2,,,,,1,,,69,110
19776,note_on,,,,,64,0,3,,,,,2,,,62,110
19808,note_on,,,,,32,0,3,,,,,2,,,62,0
19808,note_on,,,,,32,0,1,,,,,0,,,77,0
19808,note_on,,,,,32,0,2,,,,,1,,,69,0
19824,note_on,,,,,16,0,2,,,,,1,,,70,110
19856,note_on,,,,,32,0,2,,,,,1,,,70,0
19872,note_on,,,,,64,0,1,,,,,0,,,77,110
19872,note_on,,,,,16,0,2,,,,,1,,,72,110
19872,note_on,,,,,64,0,3,,,,,2,,,57,110
19904,note_on,,,,,32,0,1,,,,,0,,,77,0
19904,note_on,,,,,32,0,2,,,,,1,,,72,0
19904,note_on,,,,,32,0,3,,,,,2,,,57,0
19920,note_on,,,,,16,0,2,,,,,1,,,69,110
19952,note_on,,,,,32,0,2,,,,,1,,,69,0
19968,note_on,,,,,64,0,1,,,,,0,,,77,110
19968,note_on,,,,,64,0,3,,,,,2,,,58,110
19968,note_on,,,,,16,0,2,,,,,1,,,74,110
20000,note_on,,,,,32,0,1,,,,,0,,,77,0
20000,note_on,,,,,32,0,3,,,,,2,,,58,0
20000,note_on,,,,,32,0,2,,,,,1,,,74,0
20064,note_on,,,,,64,0,1,,,,,0,,,79,110
20064,note_on,,,,,64,0,2,,,,,1,,,70,110
20064,note_on,,,,,64,0,3,,,,,2,,,55,110
20096,note_on,,,,,32,0,3,,,,,2,,,55,0
20096,note_on,,,,,32,0,1,,,,,0,,,79,0
20096,note_on,,,,,32,0,2,,,,,1,,,70,0
20112,note_on,,,,,16,0,1,,,,,0,,,77,110
20144,note_on,,,,,32,0,1,,,,,0,,,77,0
20160,note_on,,,,,64,0,2,,,,,1,,,67,110
20160,note_on,,,,,64,0,3,,,,,2,,,60,110
20160,note_on,,,,,16,0,1,,,,,0,,,76,110
20192,note_on,,,,,32,0,3,,,,,2,,,60,0
20192,note_on,,,,,32,0,2,,,,,1,,,67,0
20192,note_on,,,,,32,0,1,,,,,0,,,76,0
20208,note_on,,,,,16,0,1,,,,,0,,,77,110
20240,note_on,,,,,32,0,1,,,,,0,,,77,0
20256,note_on,,,,,64,0,2,,,,,1,,,76,110
20256,note_on,,,,,64,0,3,,,,,2,,,48,110
20256,note_on,,,,,16,0,1,,,,,0,,,79,110
20288,note_on,,,,,32,0,3,,,,,2,,,48,0
20288,note_on,,,,,32,0,1,,,,,0,,,79,0
20288,note_on,,,,,32,0,2,,,,,1,,,76,0
20304,note_on,,,,,16,0,1,,,,,0,,,76,110
20336,note_on,,,,,32,0,1,,,,,0,,,76,0
20352,note_on,,,,,64,0,2,,,,,1,,,77,110
20352,note_on,,,,,16,0,1,,,,,0,,,81,110
20352,note_on,,,,,64,0,3,,,,,2,,,53,110
20384,note_on,,,,,32,0,3,,,,,2,,,53,0
20384,note_on,,,,,32,0,1,,,,,0,,,81,0
20384,note_on,,,,,32,0,2,,,,,1,,,77,0
20448,note_on,,,,,64,0,2,,,,,1,,,77,110
20448,note_on,,,,,64,0,1,,,,,0,,,77,110
20448,note_on,,,,,64,0,3,,,,,2,,,50,110
20480,note_on,,,,,32,0,3,,,,,2,,,50,0
20480,note_on,,,,,32,0,1,,,,,0,,,77,0
20480,note_on,,,,,32,0,2,,,,,1,,,77,0
20496,note_on,,,,,16,0,2,,,,,1,,,76,110
20528,note_on,,,,,32,0,2,,,,,1,,,76,0
20544,note_on,,,,,64,0,3,,,,,2,,,55,110
20544,note_on,,,,,16,0,2,,,,,1,,,74,110
20544,note_on,,,,,64,0,1,,,,,0,,,82,110
20576,note_on,,,,,32,0,3,,,,,2,,,55,0
20576,note_on,,,,,32,0,2,,,,,1,,,74,0
20576,note_on,,,,,32,0,1,,,,,0,,,82,0
20592,note_on,,,,,16,0,2,,,,,1,,,76,110
20624,note_on,,,,,32,0,2,,,,,1,,,76,0
20640,note_on,,,,,64,0,1,,,,,0,,,82,110
20640,note_on,,,,,64,0,3,,,,,2,,,53,110
20640,note_on,,,,,16,0,2,,,,,1,,,77,110
20672,note_on,,,,,32,0,1,,,,,0,,,82,0
20672,note_on,,,,,32,0,3,,,,,2,,,53,0
20672,note_on,,,,,32,0,2,,,,,1,,,77,0
20688,note_on,,,,,16,0,2,,,,,1,,,74,110
20720,note_on,,,,,32,0,2,,,,,1,,,74,0
20736,note_on,,,,,64,0,1,,,,,0,,,82,110
20736,note_on,,,,,64,0,3,,,,,2,,,52,110
20736,note_on,,,,,16,0,2,,,,,1,,,72,110
20768,note_on,,,,,32,0,2,,,,,1,,,72,0
20768,note_on,,,,,32,0,1,,,,,0,,,82,0
20832,note_on,,,,,96,0,3,,,,,2,,,52,0
20832,note_on,,,,,0,0,3,,,,,2,,,48,110
20832,note_on,,,,,64,0,1,,,,,0,,,81,110
20832,note_on,,,,,64,0,2,,,,,1,,,72,110
20864,note_on,,,,,32,0,1,,,,,0,,,81,0
20864,note_on,,,,,32,0,3,,,,,2,,,48,0
20864,note_on,,,,,32,0,2,,,,,1,,,72,0
20928,note_on,,,,,64,0,2,,,,,1,,,72,110
20928,note_on,,,,,64,0,1,,,,,0,,,81,110
20928,note_on,,,,,64,0,3,,,,,2,,,53,110
20960,note_on,,,,,32,0,1,,,,,0,,,81,0
20960,note_on,,,,,32,0,3,,,,,2,,,53,0
20960,note_on,,,,,32,0,2,,,,,1,,,72,0
21024,note_on,,,,,64,0,2,,,,,1,,,72,110
21024,note_on,,,,,64,0,1,,,,,0,,,81,110
21024,note_on,,,,,64,0,3,,,,,2,,,41,110
21056,note_on,,,,,32,0,2,,,,,1,,,72,0
21056,note_on,,,,,32,0,1,,,,,0,,,81,0
21056,note_on,,,,,32,0,3,,,,,2,,,41,0
21120,note_on,,,,,64,0,3,,,,,2,,,46,110
21120,note_on,,,,,64,0,2,,,,,1,,,74,110
21120,note_on,,,,,64,0,1,,,,,0,,,81,110
21152,note_on,,,,,32,0,1,,,,,0,,,81,0
21152,note_on,,,,,32,0,2,,,,,1,,,74,0
21152,note_on,,,,,32,0,3,,,,,2,,,46,0
21216,note_on,,,,,64,0,1,,,,,0,,,82,110
21216,note_on,,,,,64,0,2,,,,,1,,,72,110
21216,note_on,,,,,64,0,3,,,,,2,,,48,110
21248,note_on,,,,,32,0,3,,,,,2,,,48,0
21248,note_on,,,,,32,0,1,,,,,0,,,82,0
21248,note_on,,,,,32,0,2,,,,,1,,,72,0
21264,note_on,,,,,16,0,1,,,,,0,,,81,110
21296,note_on,,,,,32,0,1,,,,,0,,,81,0
21312,note_on,,,,,16,0,1,,,,,0,,,79,110
21312,note_on,,,,,64,0,3,,,,,2,,,50,110
21312,note_on,,,,,64,0,2,,,,,1,,,70,110
21344,note_on,,,,,32,0,2,,,,,1,,,70,0
21344,note_on,,,,,32,0,3,,,,,2,,,50,0
21344,note_on,,,,,32,0,1,,,,,0,,,79,0
21360,note_on,,,,,16,0,1,,,,,0,,,77,110
21392,note_on,,,,,32,0,1,,,,,0,,,77,0
21408,note_on,,,,,16,0,1,,,,,0,,,76,110
21408,note_on,,,,,64,0,3,,,,,2,,,46,110
21408,note_on,,,,,64,0,2,,,,,1,,,65,110
21440,note_on,,,,,32,0,1,,,,,0,,,76,0
21440,note_on,,,,,32,0,3,,,,,2,,,46,0
21440,note_on,,,,,32,0,2,,,,,1,,,65,0
21456,note_on,,,,,16,0,1,,,,,0,,,74,110
21488,note_on,,,,,32,0,1,,,,,0,,,74,0
21504,note_on,,,,,16,0,1,,,,,0,,,72,110
21504,note_on,,,,,64,0,3,,,,,2,,,48,110
21504,note_on,,,,,64,0,2,,,,,1,,,72,110
21536,note_on,,,,,32,0,3,,,,,2,,,48,0
21600,note_on,,,,,64,0,3,,,,,2,,,60,110
21600,note_on,,,,,3120,0,4,,,,,3,,,72,110
21600,note_on,,,,,3120,0,5,,,,,4,,,64,110
21600,note_on,,,,,3120,0,7,,,,,6,,,60,110
21600,note_on,,,,,3120,0,6,,,,,5,,,67,110
21632,note_on,,,,,32,0,5,,,,,4,,,64,0
21632,note_on,,,,,32,0,7,,,,,6,,,60,0
21632,note_on,,,,,32,0,4,,,,,3,,,72,0
21632,note_on,,,,,32,0,3,,,,,2,,,60,0
21632,note_on,,,,,32,0,6,,,,,5,,,67,0
21696,note_on,,,,,64,0,6,,,,,5,,,65,110
21696,note_on,,,,,64,0,4,,,,,3,,,77,110
21696,note_on,,,,,64,0,7,,,,,6,,,57,110
21696,note_on,,,,,64,0,5,,,,,4,,,72,110
21696,note_on,,,,,64,0,3,,,,,2,,,57,110
21728,note_on,,,,,32,0,4,,,,,3,,,77,0
21728,note_on,,,,,32,0,5,,,,,4,,,72,0
21728,note_on,,,,,32,0,3,,,,,2,,,57,0
21728,note_on,,,,,32,0,7,,,,,6,,,57,0
21728,note_on,,,,,32,0,6,,,,,5,,,65,0
21792,note_on,,,,,64,0,6,,,,,5,,,72,110
21792,note_on,,,,,64,0,4,,,,,3,,,77,110
21792,note_on,,,,,64,0,5,,,,,4,,,69,110
21792,note_on,,,,,64,0,7,,,,,6,,,53,110
21792,note_on,,,,,64,0,3,,,,,2,,,53,110
21824,note_on,,,,,32,0,7,,,,,6,,,53,0
21824,note_on,,,,,32,0,5,,,,,4,,,69,0
21824,note_on,,,,,32,0,3,,,,,2,,,53,0
21824,note_on,,,,,32,0,6,,,,,5,,,72,0
21824,note_on,,,,,32,0,4,,,,,3,,,77,0
21888,note_on,,,,,64,0,6,,,,,5,,,72,110
21888,note_on,,,,,64,0,3,,,,,2,,,60,110
21888,note_on,,,,,64,0,4,,,,,3,,,77,110
21888,note_on,,,,,64,0,5,,,,,4,,,67,110
21888,note_on,,,,,64,0,7,,,,,6,,,60,110
21920,note_on,,,,,32,0,5,,,,,4,,,67,0
21920,note_on,,,,,32,0,7,,,,,6,,,60,0
21920,note_on,,,,,32,0,6,,,,,5,,,72,0
21920,note_on,,,,,32,0,4,,,,,3,,,77,0
21920,note_on,,,,,32,0,3,,,,,2,,,60,0
21984,note_on,,,,,64,0,5,,,,,4,,,67,110
21984,note_on,,,,,64,0,4,,,,,3,,,79,110
21984,note_on,,,,,64,0,6,,,,,5,,,72,110
21984,note_on,,,,,64,0,7,,,,,6,,,48,110
21984,note_on,,,,,64,0,3,,,,,2,,,48,110
22016,note_on,,,,,32,0,3,,,,,2,,,48,0
22016,note_on,,,,,32,0,5,,,,,4,,,67,0
22016,note_on,,,,,32,0,4,,,,,3,,,79,0
22016,note_on,,,,,32,0,6,,,,,5,,,72,0
22016,note_on,,,,,32,0,7,,,,,6,,,48,0
22032,note_on,,,,,16,0,4,,,,,3,,,77,110
22064,note_on,,,,,32,0,4,,,,,3,,,77,0
22080,note_on,,,,,16,0,4,,,,,3,,,76,110
22080,note_on,,,,,64,0,6,,,,,5,,,67,110
22080,note_on,,,,,64,0,7,,,,,6,,,60,110
22080,note_on,,,,,64,0,3,,,,,2,,,60,110
22080,note_on,,,,,64,0,5,,,,,4,,,72,110
22112,note_on,,,,,32,0,4,,,,,3,,,76,0
22112,note_on,,,,,32,0,5,,,,,4,,,72,0
22112,note_on,,,,,32,0,3,,,,,2,,,60,0
22112,note_on,,,,,32,0,6,,,,,5,,,67,0
22112,note_on,,,,,32,0,7,,,,,6,,,60,0
22128,note_on,,,,,16,0,4,,,,,3,,,77,110
22160,note_on,,,,,32,0,4,,,,,3,,,77,0
22176,note_on,,,,,16,0,4,,,,,3,,,79,110
22176,note_on,,,,,64,0,3,,,,,2,,,58,110
22176,note_on,,,,,64,0,6,,,,,5,,,67,110
22176,note_on,,,,,64,0,7,,,,,6,,,58,110
22176,note_on,,,,,64,0,5,,,,,4,,,64,110
22208,note_on,,,,,32,0,5,,,,,4,,,64,0
22208,note_on,,,,,32,0,7,,,,,6,,,58,0
22208,note_on,,,,,32,0,3,,,,,2,,,58,0
22208,note_on,,,,,32,0,4,,,,,3,,,79,0
22208,note_on,,,,,32,0,6,,,,,5,,,67,0
22224,note_on,,,,,16,0,4,,,,,3,,,76,110
22256,note_on,,,,,32,0,4,,,,,3,,,76,0
22272,note_on,,,,,64,0,3,,,,,2,,,57,110
22272,note_on,,,,,64,0,5,,,,,4,,,65,110
22272,note_on,,,,,16,0,4,,,,,3,,,72,110
22272,note_on,,,,,64,0,7,,,,,6,,,57,110
22272,note_on,,,,,64,0,6,,,,,5,,,69,110
22304,note_on,,,,,32,0,4,,,,,3,,,72,0
22304,note_on,,,,,32,0,3,,,,,2,,,57,0
22304,note_on,,,,,32,0,5,,,,,4,,,65,0
22304,note_on,,,,,32,0,7,,,,,6,,,57,0
22304,note_on,,,,,32,0,6,,,,,5,,,69,0
22368,note_on,,,,,64,0,5,,,,,4,,,72,110
22368,note_on,,,,,64,0,7,,,,,6,,,53,110
22368,note_on,,,,,64,0,6,,,,,5,,,69,110
22368,note_on,,,,,64,0,3,,,,,2,,,53,110
22368,note_on,,,,,64,0,4,,,,,3,,,72,110
22400,note_on,,,,,32,0,7,,,,,6,,,53,0
22400,note_on,,,,,32,0,6,,,,,5,,,69,0
22400,note_on,,,,,32,0,3,,,,,2,,,53,0
22400,note_on,,,,,32,0,4,,,,,3,,,72,0
22400,note_on,,,,,32,0,5,,,,,4,,,72,0
22464,note_on,,,,,64,0,7,,,,,6,,,57,110
22464,note_on,,,,,64,0,5,,,,,4,,,77,110
22464,note_on,,,,,64,0,6,,,,,5,,,72,110
22464,note_on,,,,,960,0,1,,,,,0,,,72,0
22464,note_on,,,,,64,0,3,,,,,2,,,57,110
22464,note_on,,,,,64,0,4,,,,,3,,,81,110
22496,note_on,,,,,32,0,7,,,,,6,,,57,0
22496,note_on,,,,,32,0,3,,,,,2,,,57,0
22496,note_on,,,,,32,0,5,,,,,4,,,77,0
22496,note_on,,,,,32,0,6,,,,,5,,,72,0
22496,note_on,,,,,32,0,4,,,,,3,,,81,0
22560,note_on,,,,,64,0,3,,,,,2,,,58,110
22560,note_on,,,,,64,0,6,,,,,5,,,72,110
22560,note_on,,,,,64,0,5,,,,,4,,,77,110
22560,note_on,,,,,64,0,7,,,,,6,,,58,110
22560,note_on,,,,,64,0,4,,,,,3,,,81,110
22592,note_on,,,,,32,0,6,,,,,5,,,72,0
22592,note_on,,,,,32,0,4,,,,,3,,,81,0
22592,note_on,,,,,32,0,5,,,,,4,,,77,0
22592,note_on,,,,,32,0,7,,,,,6,,,58,0
22592,note_on,,,,,32,0,3,,,,,2,,,58,0
22656,note_on,,,,,64,0,3,,,,,2,,,60,110
22656,note_on,,,,,64,0,5,,,,,4,,,77,110
22656,note_on,,,,,64,0,6,,,,,5,,,72,110
22656,note_on,,,,,64,0,7,,,,,6,,,60,110
22656,note_on,,,,,64,0,4,,,,,3,,,81,110
22688,note_on,,,,,32,0,3,,,,,2,,,60,0
22688,note_on,,,,,32,0,5,,,,,4,,,77,0
22688,note_on,,,,,32,0,7,,,,,6,,,60,0
22704,note_on,,,,,48,0,4,,,,,3,,,81,0
22704,note_on,,,,,48,0,6,,,,,5,,,72,0
22752,note_on,,,,,64,0,3,,,,,2,,,48,110
22752,note_on,,,,,64,0,7,,,,,6,,,48,110
22752,note_on,,,,,64,0,5,,,,,4,,,79,110
22784,note_on,,,,,32,0,3,,,,,2,,,48,0
22784,note_on,,,,,32,0,7,,,,,6,,,48,0
22784,note_on,,,,,32,0,5,,,,,4,,,79,0
22800,note_on,,,,,16,0,5,,,,,4,,,77,110
22832,note_on,,,,,32,0,5,,,,,4,,,77,0
22848,note_on,,,,,64,0,3,,,,,2,,,60,110
22848,note_on,,,,,144,0,6,,,,,5,,,67,110
22848,note_on,,,,,16,0,5,,,,,4,,,76,110
22848,note_on,,,,,64,0,7,,,,,6,,,60,110
22848,note_on,,,,,144,0,4,,,,,3,,,79,110
22880,note_on,,,,,32,0,7,,,,,6,,,60,0
22880,note_on,,,,,32,0,3,,,,,2,,,60,0
22880,note_on,,,,,32,0,5,,,,,4,,,76,0
22896,note_on,,,,,48,0,6,,,,,5,,,67,0
22896,note_on,,,,,48,0,4,,,,,3,,,79,0
22896,note_on,,,,,16,0,5,,,,,4,,,77,110
22928,note_on,,,,,32,0,5,,,,,4,,,77,0
22944,note_on,,,,,64,0,3,,,,,2,,,58,110
22944,note_on,,,,,64,0,7,,,,,6,,,58,110
22944,note_on,,,,,16,0,5,,,,,4,,,79,110
22976,note_on,,,,,32,0,7,,,,,6,,,58,0
22976,note_on,,,,,32,0,3,,,,,2,,,58,0
22976,note_on,,,,,32,0,5,,,,,4,,,79,0
22992,note_on,,,,,16,0,5,,,,,4,,,76,110
23024,note_on,,,,,32,0,5,,,,,4,,,76,0
23040,note_on,,,,,64,0,3,,,,,2,,,57,110
23040,note_on,,,,,144,0,4,,,,,3,,,84,110
23040,note_on,,,,,64,0,7,,,,,6,,,57,110
23040,note_on,,,,,16,0,5,,,,,4,,,72,110
23040,note_on,,,,,144,0,6,,,,,5,,,69,110
23072,note_on,,,,,32,0,5,,,,,4,,,72,0
23072,note_on,,,,,32,0,3,,,,,2,,,57,0
23072,note_on,,,,,32,0,7,,,,,6,,,57,0
23112,note_on,,,,,72,0,6,,,,,5,,,69,0
23136,note_on,,,,,64,0,5,,,,,4,,,72,110
23136,note_on,,,,,64,0,7,,,,,6,,,53,110
23136,note_on,,,,,64,0,3,,,,,2,,,53,110
23136,note_on,,,,,1632,0,2,,,,,1,,,72,0
23136,note_on,,,,,672,0,1,,,,,0,,,72,110
23168,note_on,,,,,32,0,7,,,,,6,,,53,0
23168,note_on,,,,,32,0,3,,,,,2,,,53,0
23168,note_on,,,,,32,0,1,,,,,0,,,72,0
23168,note_on,,,,,32,0,5,,,,,4,,,72,0
23232,note_on,,,,,64,0,7,,,,,6,,,57,110
23232,note_on,,,,,64,0,3,,,,,2,,,57,110
23232,note_on,,,,,64,0,5,,,,,4,,,81,110
23232,note_on,,,,,64,0,1,,,,,0,,,77,110
23264,note_on,,,,,32,0,7,,,,,6,,,57,0
23264,note_on,,,,,32,0,5,,,,,4,,,81,0
23264,note_on,,,,,32,0,3,,,,,2,,,57,0
23264,note_on,,,,,32,0,1,,,,,0,,,77,0
23328,note_on,,,,,216,0,6,,,,,5,,,65,110
23328,note_on,,,,,64,0,1,,,,,0,,,77,110
23328,note_on,,,,,64,0,7,,,,,6,,,58,110
23328,note_on,,,,,64,0,3,,,,,2,,,58,110
23328,note_on,,,,,64,0,5,,,,,4,,,81,110
23360,note_on,,,,,32,0,3,,,,,2,,,58,0
23360,note_on,,,,,32,0,6,,,,,5,,,65,0
23360,note_on,,,,,32,0,5,,,,,4,,,81,0
23360,note_on,,,,,32,0,7,,,,,6,,,58,0
23360,note_on,,,,,32,0,1,,,,,0,,,77,0
23424,note_on,,,,,64,0,7,,,,,6,,,60,110
23424,note_on,,,,,64,0,5,,,,,4,,,81,110
23424,note_on,,,,,64,0,3,,,,,2,,,60,110
23424,note_on,,,,,64,0,1,,,,,0,,,77,110
23424,note_on,,,,,64,0,6,,,,,5,,,60,110
23456,note_on,,,,,32,0,3,,,,,2,,,60,0
23456,note_on,,,,,32,0,6,,,,,5,,,60,0
23456,note_on,,,,,32,0,1,,,,,0,,,77,0
23456,note_on,,,,,32,0,7,,,,,6,,,60,0
23472,note_on,,,,,48,0,5,,,,,4,,,81,0
23520,note_on,,,,,64,0,6,,,,,5,,,72,110
23520,note_on,,,,,64,0,3,,,,,2,,,48,110
23520,note_on,,,,,64,0,1,,,,,0,,,79,110
23520,note_on,,,,,64,0,7,,,,,6,,,48,110
23552,note_on,,,,,32,0,3,,,,,2,,,48,0
23552,note_on,,,,,32,0,7,,,,,6,,,48,0
23552,note_on,,,,,32,0,6,,,,,5,,,72,0
23552,note_on,,,,,32,0,1,,,,,0,,,79,0
23568,note_on,,,,,16,0,1,,,,,0,,,77,110
23600,note_on,,,,,32,0,1,,,,,0,,,77,0
23616,note_on,,,,,16,0,1,,,,,0,,,76,110
23616,note_on,,,,,64,0,3,,,,,2,,,48,110
23616,note_on,,,,,64,0,6,,,,,5,,,64,110
23616,note_on,,,,,144,0,5,,,,,4,,,79,110
23616,note_on,,,,,64,0,7,,,,,6,,,48,110
23648,note_on,,,,,32,0,1,,,,,0,,,76,0
23648,note_on,,,,,32,0,6,,,,,5,,,64,0
23648,note_on,,,,,32,0,7,,,,,6,,,48,0
23648,note_on,,,,,32,0,3,,,,,2,,,48,0
23664,note_on,,,,,16,0,1,,,,,0,,,77,110
23696,note_on,,,,,32,0,1,,,,,0,,,77,0
23712,note_on,,,,,16,0,1,,,,,0,,,79,110
23712,note_on,,,,,64,0,3,,,,,2,,,48,110
23712,note_on,,,,,64,0,7,,,,,6,,,48,110
23712,note_on,,,,,64,0,6,,,,,5,,,72,110
23744,note_on,,,,,32,0,7,,,,,6,,,48,0
23744,note_on,,,,,32,0,3,,,,,2,,,48,0
23744,note_on,,,,,32,0,1,,,,,0,,,79,0
23744,note_on,,,,,32,0,6,,,,,5,,,72,0
23760,note_on,,,,,16,0,1,,,,,0,,,76,110
23792,note_on,,,,,32,0,1,,,,,0,,,76,0
23808,note_on,,,,,16,0,1,,,,,0,,,72,110
23808,note_on,,,,,64,0,3,,,,,2,,,45,110
23808,note_on,,,,,64,0,6,,,,,5,,,60,110
23808,note_on,,,,,64,0,7,,,,,6,,,45,110
23840,note_on,,,,,32,0,1,,,,,0,,,72,0
23840,note_on,,,,,32,0,6,,,,,5,,,60,0
23840,note_on,,,,,32,0,3,,,,,2,,,45,0
23840,note_on,,,,,32,0,7,,,,,6,,,45,0
23856,note_on,,,,,240,0,5,,,,,4,,,79,0
23904,note_on,,,,,64,0,6,,,,,5,,,69,110
23904,note_on,,,,,64,0,1,,,,,0,,,72,110
23904,note_on,,,,,768,0,2,,,,,1,,,72,110
23904,note_on,,,,,64,0,7,,,,,6,,,41,110
23904,note_on,,,,,64,0,3,,,,,2,,,41,110
23936,note_on,,,,,32,0,3,,,,,2,,,41,0
23936,note_on,,,,,32,0,7,,,,,6,,,41,0
23936,note_on,,,,,32,0,6,,,,,5,,,69,0
23936,note_on,,,,,32,0,1,,,,,0,,,72,0
23936,note_on,,,,,32,0,2,,,,,1,,,72,0
24000,note_on,,,,,64,0,6,,,,,5,,,60,110
24000,note_on,,,,,64,0,3,,,,,2,,,45,110
24000,note_on,,,,,64,0,1,,,,,0,,,81,110
24000,note_on,,,,,144,0,5,,,,,4,,,77,110
24000,note_on,,,,,64,0,2,,,,,1,,,77,110
24000,note_on,,,,,64,0,7,,,,,6,,,45,110
24032,note_on,,,,,32,0,2,,,,,1,,,77,0
24032,note_on,,,,,32,0,3,,,,,2,,,45,0
24032,note_on,,,,,32,0,1,,,,,0,,,81,0
24032,note_on,,,,,32,0,7,,,,,6,,,45,0
24032,note_on,,,,,32,0,6,,,,,5,,,60,0
24096,note_on,,,,,64,0,3,,,,,2,,,46,110
24096,note_on,,,,,64,0,2,,,,,1,,,77,110
24096,note_on,,,,,64,0,7,,,,,6,,,46,110
24096,note_on,,,,,64,0,1,,,,,0,,,81,110
24096,note_on,,,,,64,0,6,,,,,5,,,69,110
24128,note_on,,,,,32,0,1,,,,,0,,,81,0
24128,note_on,,,,,32,0,7,,,,,6,,,46,0
24128,note_on,,,,,32,0,3,,,,,2,,,46,0
24128,note_on,,,,,32,0,6,,,,,5,,,69,0
24128,note_on,,,,,32,0,2,,,,,1,,,77,0
24192,note_on,,,,,64,0,3,,,,,2,,,48,110
24192,note_on,,,,,64,0,7,,,,,6,,,48,110
24192,note_on,,,,,64,0,6,,,,,5,,,69,110
24192,note_on,,,,,64,0,1,,,,,0,,,81,110
24192,note_on,,,,,64,0,2,,,,,1,,,77,110
24208,note_on,,,,,16,0,1,,,,,0,,,81,0
24216,note_on,,,,,8,0,1,,,,,0,,,82,110
24224,note_on,,,,,32,0,2,,,,,1,,,77,0
24224,note_on,,,,,32,0,6,,,,,5,,,69,0
24224,note_on,,,,,224,0,5,,,,,4,,,77,0
24232,note_on,,,,,16,0,1,,,,,0,,,82,0
24240,note_on,,,,,48,0,3,,,,,2,,,48,0
24240,note_on,,,,,8,0,1,,,,,0,,,81,110
24240,note_on,,,,,48,0,7,,,,,6,,,48,0
24256,note_on,,,,,16,0,1,,,,,0,,,81,0
24264,note_on,,,,,8,0,1,,,,,0,,,82,110
24264,note_on,,,,,1224,0,4,,,,,3,,,84,0
24280,note_on,,,,,16,0,1,,,,,0,,,82,0
24288,note_on,,,,,64,0,2,,,,,1,,,79,110
24288,note_on,,,,,8,0,1,,,,,0,,,81,110
24288,note_on,,,,,64,0,5,,,,,4,,,76,110
24288,note_on,,,,,64,0,6,,,,,5,,,60,110
24304,note_on,,,,,16,0,1,,,,,0,,,81,0
24312,note_on,,,,,8,0,1,,,,,0,,,82,110
24320,note_on,,,,,32,0,5,,,,,4,,,76,0
24320,note_on,,,,,32,0,6,,,,,5,,,60,0
24320,note_on,,,,,32,0,2,,,,,1,,,79,0
24328,note_on,,,,,16,0,1,,,,,0,,,82,0
24336,note_on,,,,,16,0,2,,,,,1,,,77,110
24336,note_on,,,,,8,0,1,,,,,0,,,81,110
24336,note_on,,,,,16,0,5,,,,,4,,,77,110
24352,note_on,,,,,16,0,1,,,,,0,,,81,0
24360,note_on,,,,,8,0,1,,,,,0,,,82,110
24368,note_on,,,,,32,0,2,,,,,1,,,77,0
24368,note_on,,,,,32,0,5,,,,,4,,,77,0
24376,note_on,,,,,16,0,1,,,,,0,,,82,0
24384,note_on,,,,,16,0,5,,,,,4,,,79,110
24384,note_on,,,,,144,0,7,,,,,6,,,36,110
24384,note_on,,,,,16,0,2,,,,,1,,,76,110
24384,note_on,,,,,64,0,6,,,,,5,,,60,110
24384,note_on,,,,,8,0,1,,,,,0,,,79,110
24416,note_on,,,,,32,0,6,,,,,5,,,60,0
24416,note_on,,,,,32,0,5,,,,,4,,,79,0
24416,note_on,,,,,32,0,2,,,,,1,,,76,0
24432,note_on,,,,,16,0,2,,,,,1,,,77,110
24432,note_on,,,,,48,0,7,,,,,6,,,36,0
24464,note_on,,,,,32,0,2,,,,,1,,,77,0
24480,note_on,,,,,64,0,6,,,,,5,,,64,110
24480,note_on,,,,,216,0,4,,,,,3,,,82,110
24480,note_on,,,,,64,0,5,,,,,4,,,67,110
24480,note_on,,,,,240,0,3,,,,,2,,,64,110
24480,note_on,,,,,16,0,2,,,,,1,,,79,110
24512,note_on,,,,,32,0,4,,,,,3,,,82,0
24512,note_on,,,,,32,0,2,,,,,1,,,79,0
24512,note_on,,,,,32,0,6,,,,,5,,,64,0
24512,note_on,,,,,32,0,5,,,,,4,,,67,0
24512,note_on,,,,,32,0,3,,,,,2,,,64,0
24528,note_on,,,,,16,0,2,,,,,1,,,76,110
24560,note_on,,,,,32,0,2,,,,,1,,,76,0
24576,note_on,,,,,64,0,5,,,,,4,,,65,110
24576,note_on,,,,,64,0,3,,,,,2,,,65,110
24576,note_on,,,,,64,0,4,,,,,3,,,81,110
24576,note_on,,,,,16,0,2,,,,,1,,,72,110
24576,note_on,,,,,64,0,6,,,,,5,,,65,110
24608,note_on,,,,,32,0,2,,,,,1,,,72,0
24608,note_on,,,,,32,0,5,,,,,4,,,65,0
24608,note_on,,,,,32,0,3,,,,,2,,,65,0
24608,note_on,,,,,32,0,6,,,,,5,,,65,0
24608,note_on,,,,,224,0,1,,,,,0,,,79,0
24624,note_on,,,,,48,0,4,,,,,3,,,81,0
24672,note_on,,,,,64,0,2,,,,,1,,,74,110
24672,note_on,,,,,64,0,6,,,,,5,,,62,110
24672,note_on,,,,,64,0,5,,,,,4,,,62,110
24672,note_on,,,,,64,0,3,,,,,2,,,62,110
24672,note_on,,,,,64,0,1,,,,,0,,,77,110
24704,note_on,,,,,32,0,3,,,,,2,,,62,0
24704,note_on,,,,,32,0,5,,,,,4,,,62,0
24704,note_on,,,,,32,0,6,,,,,5,,,62,0
24704,note_on,,,,,32,0,1,,,,,0,,,77,0
24720,note_on,,,,,16,0,1,,,,,0,,,76,110
24752,note_on,,,,,32,0,1,,,,,0,,,76,0
24768,note_on,,,,,64,0,3,,,,,2,,,55,110
24768,note_on,,,,,64,0,6,,,,,5,,,55,110
24768,note_on,,,,,144,0,4,,,,,3,,,82,110
24768,note_on,,,,,16,0,1,,,,,0,,,77,110
24768,note_on,,,,,64,0,5,,,,,4,,,55,110
24800,note_on,,,,,32,0,3,,,,,2,,,55,0
24800,note_on,,,,,32,0,6,,,,,5,,,55,0
24800,note_on,,,,,32,0,1,,,,,0,,,77,0
24800,note_on,,,,,32,0,5,,,,,4,,,55,0
24800,note_on,,,,,128,0,2,,,,,1,,,74,0
24864,note_on,,,,,64,0,6,,,,,5,,,58,110
24864,note_on,,,,,64,0,1,,,,,0,,,74,110
24864,note_on,,,,,64,0,3,,,,,2,,,58,110
24864,note_on,,,,,64,0,2,,,,,1,,,70,110
24864,note_on,,,,,64,0,5,,,,,4,,,58,110
24896,note_on,,,,,32,0,1,,,,,0,,,74,0
24896,note_on,,,,,32,0,3,,,,,2,,,58,0
24896,note_on,,,,,32,0,6,,,,,5,,,58,0
24896,note_on,,,,,32,0,5,,,,,4,,,58,0
24896,note_on,,,,,32,0,2,,,,,1,,,70,0
24960,note_on,,,,,64,0,6,,,,,5,,,60,110
24960,note_on,,,,,64,0,5,,,,,4,,,60,110
24960,note_on,,,,,64,0,3,,,,,2,,,60,110
24960,note_on,,,,,64,0,2,,,,,1,,,67,110
24960,note_on,,,,,64,0,1,,,,,0,,,76,110
24992,note_on,,,,,224,0,4,,,,,3,,,82,0
24992,note_on,,,,,32,0,5,,,,,4,,,60,0
24992,note_on,,,,,32,0,1,,,,,0,,,76,0
24992,note_on,,,,,32,0,3,,,,,2,,,60,0
25008,note_on,,,,,48,0,6,,,,,5,,,60,0
25008,note_on,,,,,48,0,2,,,,,1,,,67,0
25056,note_on,,,,,624,0,7,,,,,6,,,48,110
25056,note_on,,,,,64,0,4,,,,,3,,,84,110
25056,note_on,,,,,64,0,1,,,,,0,,,72,110
25056,note_on,,,,,64,0,3,,,,,2,,,48,110
25056,note_on,,,,,64,0,5,,,,,4,,,76,110
25088,note_on,,,,,32,0,4,,,,,3,,,84,0
25088,note_on,,,,,32,0,7,,,,,6,,,48,0
25088,note_on,,,,,32,0,3,,,,,2,,,48,0
25088,note_on,,,,,32,0,5,,,,,4,,,76,0
25088,note_on,,,,,32,0,1,,,,,0,,,72,0
25152,note_on,,,,,64,0,4,,,,,3,,,81,110
25152,note_on,,,,,64,0,3,,,,,2,,,53,110
25152,note_on,,,,,64,0,5,,,,,4,,,77,110
25152,note_on,,,,,144,0,2,,,,,1,,,69,110
25152,note_on,,,,,64,0,1,,,,,0,,,72,110
25152,note_on,,,,,64,0,7,,,,,6,,,53,110
25184,note_on,,,,,32,0,3,,,,,2,,,53,0
25184,note_on,,,,,32,0,5,,,,,4,,,77,0
25184,note_on,,,,,32,0,7,,,,,6,,,53,0
25184,note_on,,,,,32,0,2,,,,,1,,,69,0
25200,note_on,,,,,48,0,1,,,,,0,,,72,0
25200,note_on,,,,,48,0,4,,,,,3,,,81,0
25248,note_on,,,,,64,0,5,,,,,4,,,69,110
25248,note_on,,,,,64,0,3,,,,,2,,,53,110
25248,note_on,,,,,64,0,2,,,,,1,,,65,110
25248,note_on,,,,,64,0,7,,,,,6,,,53,110
25248,note_on,,,,,240,0,6,,,,,5,,,60,110
25280,note_on,,,,,32,0,5,,,,,4,,,69,0
25280,note_on,,,,,32,0,3,,,,,2,,,53,0
25280,note_on,,,,,32,0,6,,,,,5,,,60,0
25280,note_on,,,,,32,0,7,,,,,6,,,53,0
25280,note_on,,,,,32,0,2,,,,,1,,,65,0
25296,note_on,,,,,96,0,4,,,,,3,,,79,110
25328,note_on,,,,,32,0,4,,,,,3,,,79,0
25344,note_on,,,,,16,0,4,,,,,3,,,79,110
25344,note_on,,,,,64,0,2,,,,,1,,,72,110
25344,note_on,,,,,64,0,3,,,,,2,,,53,110
25344,note_on,,,,,64,0,6,,,,,5,,,60,110
25344,note_on,,,,,64,0,5,,,,,4,,,72,110
25344,note_on,,,,,64,0,7,,,,,6,,,53,110
25376,note_on,,,,,32,0,7,,,,,6,,,53,0
25376,note_on,,,,,32,0,3,,,,,2,,,53,0
25376,note_on,,,,,32,0,4,,,,,3,,,79,0
25392,note_on,,,,,48,0,6,,,,,5,,,60,0
25392,note_on,,,,,48,0,5,,,,,4,,,72,0
25392,note_on,,,,,48,0,2,,,,,1,,,72,0
25440,note_on,,,,,64,0,7,,,,,6,,,55,110
25440,note_on,,,,,240,0,1,,,,,0,,,72,110
25440,note_on,,,,,64,0,4,,,,,3,,,72,110
25440,note_on,,,,,64,0,3,,,,,2,,,55,110
25472,note_on,,,,,32,0,1,,,,,0,,,72,0
25472,note_on,,,,,32,0,3,,,,,2,,,55,0
25472,note_on,,,,,32,0,7,,,,,6,,,55,0
25472,note_on,,,,,32,0,4,,,,,3,,,72,0
25488,note_on,,,,,16,0,7,,,,,6,,,53,110
25488,note_on,,,,,16,0,3,,,,,2,,,53,110
25520,note_on,,,,,32,0,3,,,,,2,,,53,0
25520,note_on,,,,,32,0,7,,,,,6,,,53,0
25536,note_on,,,,,16,0,3,,,,,2,,,52,110
25536,note_on,,,,,64,0,1,,,,,0,,,79,110
25536,note_on,,,,,64,0,4,,,,,3,,,79,110
25536,note_on,,,,,16,0,7,,,,,6,,,52,110
25568,note_on,,,,,32,0,7,,,,,6,,,52,0
25568,note_on,,,,,32,0,3,,,,,2,,,52,0
25568,note_on,,,,,32,0,1,,,,,0,,,79,0
25568,note_on,,,,,32,0,4,,,,,3,,,79,0
25584,note_on,,,,,16,0,7,,,,,6,,,53,110
25584,note_on,,,,,16,0,3,,,,,2,,,53,110
25616,note_on,,,,,32,0,3,,,,,2,,,53,0
25616,note_on,,,,,32,0,7,,,,,6,,,53,0
25632,note_on,,,,,16,0,3,,,,,2,,,55,110
25632,note_on,,,,,16,0,7,,,,,6,,,55,110
25632,note_on,,,,,240,0,6,,,,,5,,,60,110
25632,note_on,,,,,240,0,5,,,,,4,,,72,110
25632,note_on,,,,,240,0,2,,,,,1,,,72,110
25632,note_on,,,,,64,0,1,,,,,0,,,79,110
25632,note_on,,,,,64,0,4,,,,,3,,,79,110
25664,note_on,,,,,32,0,2,,,,,1,,,72,0
25664,note_on,,,,,32,0,3,,,,,2,,,55,0
25664,note_on,,,,,32,0,7,,,,,6,,,55,0
25664,note_on,,,,,32,0,6,,,,,5,,,60,0
25664,note_on,,,,,32,0,4,,,,,3,,,79,0
25664,note_on,,,,,32,0,5,,,,,4,,,72,0
25664,note_on,,,,,32,0,1,,,,,0,,,79,0
25680,note_on,,,,,16,0,3,,,,,2,,,52,110
25680,note_on,,,,,16,0,7,,,,,6,,,52,110
25712,note_on,,,,,32,0,7,,,,,6,,,52,0
25712,note_on,,,,,32,0,3,,,,,2,,,52,0
25728,note_on,,,,,64,0,5,,,,,4,,,69,110
25728,note_on,,,,,16,0,3,,,,,2,,,48,110
25728,note_on,,,,,64,0,4,,,,,3,,,79,110
25728,note_on,,,,,64,0,1,,,,,0,,,79,110
25728,note_on,,,,,64,0,6,,,,,5,,,60,110
25728,note_on,,,,,16,0,7,,,,,6,,,48,110
25728,note_on,,,,,64,0,2,,,,,1,,,69,110
25760,note_on,,,,,32,0,4,,,,,3,,,79,0
25760,note_on,,,,,32,0,1,,,,,0,,,79,0
25760,note_on,,,,,32,0,3,,,,,2,,,48,0
25760,note_on,,,,,32,0,7,,,,,6,,,48,0
25776,note_on,,,,,48,0,6,,,,,5,,,60,0
25776,note_on,,,,,48,0,2,,,,,1,,,69,0
25776,note_on,,,,,48,0,5,,,,,4,,,69,0
25824,note_on,,,,,64,0,4,,,,,3,,,81,110
25824,note_on,,,,,64,0,1,,,,,0,,,81,110
25824,note_on,,,,,64,0,3,,,,,2,,,48,110
25824,note_on,,,,,64,0,7,,,,,6,,,48,110
25856,note_on,,,,,32,0,7,,,,,6,,,48,0
25856,note_on,,,,,32,0,4,,,,,3,,,81,0
25856,note_on,,,,,32,0,1,,,,,0,,,81,0
25856,note_on,,,,,32,0,3,,,,,2,,,48,0
25872,note_on,,,,,16,0,1,,,,,0,,,79,110
25872,note_on,,,,,16,0,4,,,,,3,,,79,110
25904,note_on,,,,,32,0,1,,,,,0,,,79,0
25904,note_on,,,,,32,0,4,,,,,3,,,79,0
25920,note_on,,,,,16,0,1,,,,,0,,,77,110
25920,note_on,,,,,64,0,3,,,,,2,,,57,110
25920,note_on,,,,,64,0,7,,,,,6,,,57,110
25920,note_on,,,,,16,0,4,,,,,3,,,77,110
25952,note_on,,,,,32,0,1,,,,,0,,,77,0
25952,note_on,,,,,32,0,7,,,,,6,,,57,0
25952,note_on,,,,,32,0,3,,,,,2,,,57,0
25952,note_on,,,,,32,0,4,,,,,3,,,77,0
25968,note_on,,,,,16,0,4,,,,,3,,,79,110
25968,note_on,,,,,16,0,1,,,,,0,,,79,110
26000,note_on,,,,,32,0,4,,,,,3,,,79,0
26000,note_on,,,,,32,0,1,,,,,0,,,79,0
26016,note_on,,,,,240,0,6,,,,,5,,,60,110
26016,note_on,,,,,64,0,3,,,,,2,,,57,110
26016,note_on,,,,,64,0,7,,,,,6,,,57,110
26016,note_on,,,,,240,0,5,,,,,4,,,72,110
26016,note_on,,,,,16,0,1,,,,,0,,,81,110
26016,note_on,,,,,16,0,4,,,,,3,,,81,110
26016,note_on,,,,,240,0,2,,,,,1,,,72,110
26048,note_on,,,,,32,0,4,,,,,3,,,81,0
26048,note_on,,,,,32,0,1,,,,,0,,,81,0
26048,note_on,,,,,32,0,6,,,,,5,,,60,0
26048,note_on,,,,,32,0,5,,,,,4,,,72,0
26048,note_on,,,,,32,0,2,,,,,1,,,72,0
26048,note_on,,,,,32,0,7,,,,,6,,,57,0
26048,note_on,,,,,32,0,3,,,,,2,,,57,0
26064,note_on,,,,,16,0,4,,,,,3,,,77,110
26064,note_on,,,,,16,0,1,,,,,0,,,77,110
26096,note_on,,,,,32,0,1,,,,,0,,,77,0
26096,note_on,,,,,32,0,4,,,,,3,,,77,0
26112,note_on,,,,,16,0,1,,,,,0,,,74,110
26112,note_on,,,,,64,0,5,,,,,4,,,65,110
26112,note_on,,,,,16,0,4,,,,,3,,,74,110
26112,note_on,,,,,64,0,7,,,,,6,,,57,110
26112,note_on,,,,,64,0,6,,,,,5,,,58,110
26112,note_on,,,,,64,0,3,,,,,2,,,57,110
26112,note_on,,,,,64,0,2,,,,,1,,,65,110
26144,note_on,,,,,32,0,4,,,,,3,,,74,0
26144,note_on,,,,,32,0,2,,,,,1,,,65,0
26144,note_on,,,,,32,0,6,,,,,5,,,58,0
26144,note_on,,,,,32,0,3,,,,,2,,,57,0
26144,note_on,,,,,32,0,7,,,,,6,,,57,0
26144,note_on,,,,,32,0,5,,,,,4,,,65,0
26160,note_on,,,,,48,0,1,,,,,0,,,74,0
26208,note_on,,,,,64,0,7,,,,,6,,,58,110
26208,note_on,,,,,64,0,4,,,,,3,,,62,110
26208,note_on,,,,,64,0,3,,,,,2,,,58,110
26208,note_on,,,,,64,0,5,,,,,4,,,65,110
26208,note_on,,,,,64,0,6,,,,,5,,,58,110
26208,note_on,,,,,64,0,2,,,,,1,,,65,110
26240,note_on,,,,,32,0,7,,,,,6,,,58,0
26240,note_on,,,,,32,0,5,,,,,4,,,65,0
26240,note_on,,,,,32,0,2,,,,,1,,,65,0
26240,note_on,,,,,32,0,6,,,,,5,,,58,0
26240,note_on,,,,,32,0,4,,,,,3,,,62,0
26240,note_on,,,,,32,0,3,,,,,2,,,58,0
26256,note_on,,,,,16,0,7,,,,,6,,,57,110
26256,note_on,,,,,16,0,3,,,,,2,,,57,110
26288,note_on,,,,,32,0,7,,,,,6,,,57,0
26288,note_on,,,,,32,0,3,,,,,2,,,57,0
26304,note_on,,,,,16,0,3,,,,,2,,,55,110
26304,note_on,,,,,64,0,6,,,,,5,,,58,110
26304,note_on,,,,,144,0,1,,,,,0,,,70,110
26304,note_on,,,,,64,0,4,,,,,3,,,70,110
26304,note_on,,,,,16,0,7,,,,,6,,,55,110
26304,note_on,,,,,64,0,5,,,,,4,,,62,110
26304,note_on,,,,,64,0,2,,,,,1,,,62,110
26336,note_on,,,,,32,0,4,,,,,3,,,70,0
26336,note_on,,,,,32,0,3,,,,,2,,,55,0
26336,note_on,,,,,32,0,7,,,,,6,,,55,0
26336,note_on,,,,,32,0,5,,,,,4,,,62,0
26336,note_on,,,,,32,0,6,,,,,5,,,58,0
26336,note_on,,,,,32,0,2,,,,,1,,,62,0
26352,note_on,,,,,16,0,7,,,,,6,,,57,110
26352,note_on,,,,,16,0,3,,,,,2,,,57,110
26384,note_on,,,,,32,0,3,,,,,2,,,57,0
26384,note_on,,,,,32,0,7,,,,,6,,,57,0
26400,note_on,,,,,64,0,2,,,,,1,,,62,110
26400,note_on,,,,,16,0,3,,,,,2,,,58,110
26400,note_on,,,,,64,0,5,,,,,4,,,62,110
26400,note_on,,,,,64,0,6,,,,,5,,,67,110
26400,note_on,,,,,64,0,4,,,,,3,,,70,110
26400,note_on,,,,,16,0,7,,,,,6,,,58,110
26432,note_on,,,,,32,0,2,,,,,1,,,62,0
26432,note_on,,,,,32,0,5,,,,,4,,,62,0
26432,note_on,,,,,32,0,4,,,,,3,,,70,0
26432,note_on,,,,,32,0,3,,,,,2,,,58,0
26432,note_on,,,,,32,0,7,,,,,6,,,58,0
26432,note_on,,,,,32,0,6,,,,,5,,,67,0
26448,note_on,,,,,16,0,3,,,,,2,,,55,110
26448,note_on,,,,,16,0,7,,,,,6,,,55,110
26480,note_on,,,,,32,0,7,,,,,6,,,55,0
26480,note_on,,,,,32,0,3,,,,,2,,,55,0
26496,note_on,,,,,64,0,2,,,,,1,,,67,110
26496,note_on,,,,,64,0,6,,,,,5,,,60,110
26496,note_on,,,,,16,0,3,,,,,2,,,52,110
26496,note_on,,,,,64,0,4,,,,,3,,,70,110
26496,note_on,,,,,16,0,7,,,,,6,,,52,110
26496,note_on,,,,,64,0,5,,,,,4,,,67,110
26528,note_on,,,,,32,0,2,,,,,1,,,67,0
26528,note_on,,,,,32,0,5,,,,,4,,,67,0
26528,note_on,,,,,32,0,3,,,,,2,,,52,0
26528,note_on,,,,,32,0,4,,,,,3,,,70,0
26528,note_on,,,,,224,0,1,,,,,0,,,70,0
26528,note_on,,,,,32,0,7,,,,,6,,,52,0
26544,note_on,,,,,48,0,6,,,,,5,,,60,0
26592,note_on,,,,,64,0,4,,,,,3,,,72,110
26592,note_on,,,,,64,0,5,,,,,4,,,64,110
26592,note_on,,,,,64,0,1,,,,,0,,,72,110
26592,note_on,,,,,64,0,2,,,,,1,,,64,110
26592,note_on,,,,,64,0,3,,,,,2,,,48,110
26592,note_on,,,,,64,0,7,,,,,6,,,48,110
26624,note_on,,,,,32,0,1,,,,,0,,,72,0
26624,note_on,,,,,32,0,3,,,,,2,,,48,0
26624,note_on,,,,,32,0,7,,,,,6,,,48,0
26624,note_on,,,,,32,0,4,,,,,3,,,72,0
26624,note_on,,,,,32,0,5,,,,,4,,,64,0
26624,note_on,,,,,32,0,2,,,,,1,,,64,0
26640,note_on,,,,,16,0,4,,,,,3,,,70,110
26640,note_on,,,,,16,0,1,,,,,0,,,70,110
26672,note_on,,,,,32,0,4,,,,,3,,,70,0
26672,note_on,,,,,32,0,1,,,,,0,,,70,0
26688,note_on,,,,,144,0,6,,,,,5,,,60,110
26688,note_on,,,,,16,0,4,,,,,3,,,69,110
26688,note_on,,,,,64,0,5,,,,,4,,,65,110
26688,note_on,,,,,64,0,7,,,,,6,,,53,110
26688,note_on,,,,,16,0,1,,,,,0,,,69,110
26688,note_on,,,,,64,0,3,,,,,2,,,53,110
26688,note_on,,,,,64,0,2,,,,,1,,,65,110
26720,note_on,,,,,32,0,7,,,,,6,,,53,0
26720,note_on,,,,,32,0,1,,,,,0,,,69,0
26720,note_on,,,,,32,0,3,,,,,2,,,53,0
26720,note_on,,,,,32,0,4,,,,,3,,,69,0
26736,note_on,,,,,16,0,1,,,,,0,,,70,110
26736,note_on,,,,,48,0,6,,,,,5,,,60,0
26736,note_on,,,,,48,0,2,,,,,1,,,65,0
26736,note_on,,,,,16,0,4,,,,,3,,,70,110
26736,note_on,,,,,48,0,5,,,,,4,,,65,0
26768,note_on,,,,,32,0,4,,,,,3,,,70,0
26768,note_on,,,,,32,0,1,,,,,0,,,70,0
26784,note_on,,,,,16,0,4,,,,,3,,,72,110
26784,note_on,,,,,16,0,1,,,,,0,,,72,110
26784,note_on,,,,,64,0,7,,,,,6,,,45,110
26784,note_on,,,,,64,0,3,,,,,2,,,45,110
26816,note_on,,,,,32,0,7,,,,,6,,,45,0
26816,note_on,,,,,32,0,3,,,,,2,,,45,0
26816,note_on,,,,,32,0,4,,,,,3,,,72,0
26816,note_on,,,,,32,0,1,,,,,0,,,72,0
26832,note_on,,,,,16,0,4,,,,,3,,,69,110
26832,note_on,,,,,16,0,1,,,,,0,,,69,110
26864,note_on,,,,,32,0,1,,,,,0,,,69,0
26864,note_on,,,,,32,0,4,,,,,3,,,69,0
26880,note_on,,,,,16,0,4,,,,,3,,,62,110
26880,note_on,,,,,16,0,1,,,,,0,,,62,110
26880,note_on,,,,,64,0,3,,,,,2,,,46,110
26880,note_on,,,,,64,0,7,,,,,6,,,46,110
26912,note_on,,,,,32,0,1,,,,,0,,,62,0
26912,note_on,,,,,32,0,4,,,,,3,,,62,0
26912,note_on,,,,,32,0,3,,,,,2,,,46,0
26912,note_on,,,,,32,0,7,,,,,6,,,46,0
26976,note_on,,,,,64,0,1,,,,,0,,,64,110
26976,note_on,,,,,64,0,7,,,,,6,,,48,110
26976,note_on,,,,,64,0,4,,,,,3,,,64,110
26976,note_on,,,,,64,0,3,,,,,2,,,48,110
27008,note_on,,,,,32,0,1,,,,,0,,,64,0
27008,note_on,,,,,32,0,3,,,,,2,,,48,0
27008,note_on,,,,,32,0,4,,,,,3,,,64,0
27008,note_on,,,,,32,0,7,,,,,6,,,48,0
27072,note_on,,,,,64,0,7,,,,,6,,,50,110
27072,note_on,,,,,64,0,1,,,,,0,,,65,110
27072,note_on,,,,,64,0,4,,,,,3,,,65,110
27072,note_on,,,,,64,0,3,,,,,2,,,50,110
27104,note_on,,,,,32,0,7,,,,,6,,,50,0
27104,note_on,,,,,32,0,3,,,,,2,,,50,0
27168,note_on,,,,,64,0,7,,,,,6,,,45,110
27168,note_on,,,,,432,0,2,,,,,1,,,72,110
27168,note_on,,,,,432,0,6,,,,,5,,,60,110
27168,note_on,,,,,432,0,5,,,,,4,,,72,110
27168,note_on,,,,,64,0,3,,,,,2,,,45,110
27200,note_on,,,,,32,0,6,,,,,5,,,60,0
27200,note_on,,,,,32,0,5,,,,,4,,,72,0
27200,note_on,,,,,32,0,3,,,,,2,,,45,0
27200,note_on,,,,,32,0,7,,,,,6,,,45,0
27200,note_on,,,,,32,0,2,,,,,1,,,72,0
27264,note_on,,,,,64,0,3,,,,,2,,,46,110
27264,note_on,,,,,64,0,7,,,,,6,,,46,110
27264,note_on,,,,,64,0,5,,,,,4,,,74,110
27264,note_on,,,,,64,0,2,,,,,1,,,74,110
27264,note_on,,,,,64,0,6,,,,,5,,,58,110
27296,note_on,,,,,32,0,3,,,,,2,,,46,0
27296,note_on,,,,,32,0,2,,,,,1,,,74,0
27296,note_on,,,,,32,0,7,,,,,6,,,46,0
27296,note_on,,,,,32,0,6,,,,,5,,,58,0
27312,note_on,,,,,240,0,4,,,,,3,,,65,0
27312,note_on,,,,,240,0,1,,,,,0,,,65,0
27360,note_on,,,,,64,0,3,,,,,2,,,43,110
27360,note_on,,,,,0,0,5,,,,,4,,,70,110
27360,note_on,,,,,96,0,5,,,,,4,,,74,0
27360,note_on,,,,,64,0,7,,,,,6,,,43,110
27360,note_on,,,,,64,0,6,,,,,5,,,62,110
27360,note_on,,,,,64,0,2,,,,,1,,,70,110
27392,note_on,,,,,32,0,6,,,,,5,,,62,0
27392,note_on,,,,,32,0,5,,,,,4,,,70,0
27392,note_on,,,,,32,0,2,,,,,1,,,70,0
27392,note_on,,,,,32,0,3,,,,,2,,,43,0
27392,note_on,,,,,32,0,7,,,,,6,,,43,0
27456,note_on,,,,,144,0,1,,,,,0,,,64,110
27456,note_on,,,,,64,0,2,,,,,1,,,67,110
27456,note_on,,,,,64,0,7,,,,,6,,,48,110
27456,note_on,,,,,64,0,5,,,,,4,,,67,110
27456,note_on,,,,,144,0,4,,,,,3,,,64,110
27456,note_on,,,,,64,0,6,,,,,5,,,64,110
27488,note_on,,,,,32,0,2,,,,,1,,,67,0
27488,note_on,,,,,32,0,6,,,,,5,,,64,0
27488,note_on,,,,,32,0,7,,,,,6,,,48,0
27488,note_on,,,,,32,0,5,,,,,4,,,67,0
27504,note_on,,,,,48,0,4,,,,,3,,,64,0
27504,note_on,,,,,48,0,1,,,,,0,,,64,0
27552,note_on,,,,,160,0,3,,,,,2,,,60,110
27552,note_on,,,,,64,0,5,,,,,4,,,72,110
27552,note_on,,,,,64,0,2,,,,,1,,,72,110
27552,note_on,,,,,64,0,7,,,,,6,,,36,110
27552,note_on,,,,,64,0,6,,,,,5,,,60,110
27584,note_on,,,,,32,0,2,,,,,1,,,72,0
27584,note_on,,,,,32,0,6,,,,,5,,,60,0
27584,note_on,,,,,32,0,3,,,,,2,,,60,0
27584,note_on,,,,,32,0,7,,,,,6,,,36,0
27584,note_on,,,,,32,0,5,,,,,4,,,72,0
27648,note_on,,,,,64,0,6,,,,,5,,,60,110
27648,note_on,,,,,144,0,1,,,,,0,,,65,110
27648,note_on,,,,,64,0,7,,,,,6,,,41,110
27648,note_on,,,,,64,0,5,,,,,4,,,69,110
27648,note_on,,,,,64,0,3,,,,,2,,,65,110
27648,note_on,,,,,64,0,2,,,,,1,,,69,110
27680,note_on,,,,,32,0,5,,,,,4,,,69,0
27680,note_on,,,,,32,0,6,,,,,5,,,60,0
27680,note_on,,,,,32,0,7,,,,,6,,,41,0
27696,note_on,,,,,48,0,2,,,,,1,,,69,0
27696,note_on,,,,,48,0,1,,,,,0,,,65,0
27744,note_on,,,,,64,0,6,,,,,5,,,57,110
27744,note_on,,,,,64,0,5,,,,,4,,,65,110
27744,note_on,,,,,240,0,4,,,,,3,,,65,110
27744,note_on,,,,,64,0,7,,,,,6,,,53,110
27776,note_on,,,,,32,0,4,,,,,3,,,65,0
27776,note_on,,,,,32,0,6,,,,,5,,,57,0
27776,note_on,,,,,32,0,7,,,,,6,,,53,0
27776,note_on,,,,,32,0,5,,,,,4,,,65,0
27840,note_on,,,,,64,0,5,,,,,4,,,65,110
27840,note_on,,,,,64,0,6,,,,,5,,,53,110
27840,note_on,,,,,64,0,4,,,,,3,,,70,110
27840,note_on,,,,,64,0,7,,,,,6,,,50,110
27872,note_on,,,,,32,0,5,,,,,4,,,65,0
27872,note_on,,,,,32,0,6,,,,,5,,,53,0
27872,note_on,,,,,32,0,4,,,,,3,,,70,0
27872,note_on,,,,,32,0,7,,,,,6,,,50,0
27936,note_on,,,,,64,0,4,,,,,3,,,70,110
27936,note_on,,,,,64,0,6,,,,,5,,,65,110
27936,note_on,,,,,64,0,5,,,,,4,,,62,110
27936,note_on,,,,,64,0,7,,,,,6,,,46,110
27968,note_on,,,,,32,0,4,,,,,3,,,70,0
27968,note_on,,,,,32,0,6,,,,,5,,,65,0
27968,note_on,,,,,32,0,7,,,,,6,,,46,0
27968,note_on,,,,,32,0,5,,,,,4,,,62,0
28032,note_on,,,,,64,0,6,,,,,5,,,65,110
28032,note_on,,,,,64,0,7,,,,,6,,,53,110
28032,note_on,,,,,64,0,4,,,,,3,,,70,110
28032,note_on,,,,,64,0,5,,,,,4,,,60,110
28064,note_on,,,,,32,0,4,,,,,3,,,70,0
28064,note_on,,,,,32,0,7,,,,,6,,,53,0
28064,note_on,,,,,32,0,6,,,,,5,,,65,0
28064,note_on,,,,,32,0,5,,,,,4,,,60,0
28128,note_on,,,,,64,0,7,,,,,6,,,41,110
28128,note_on,,,,,64,0,6,,,,,5,,,65,110
28128,note_on,,,,,64,0,4,,,,,3,,,72,110
28128,note_on,,,,,432,0,2,,,,,1,,,65,110
28128,note_on,,,,,432,0,1,,,,,0,,,65,110
28128,note_on,,,,,64,0,5,,,,,4,,,60,110
28160,note_on,,,,,32,0,2,,,,,1,,,65,0
28160,note_on,,,,,32,0,4,,,,,3,,,72,0
28160,note_on,,,,,32,0,6,,,,,5,,,65,0
28160,note_on,,,,,32,0,7,,,,,6,,,41,0
28160,note_on,,,,,32,0,1,,,,,0,,,65,0
28160,note_on,,,,,32,0,5,,,,,4,,,60,0
28176,note_on,,,,,16,0,4,,,,,3,,,70,110
28208,note_on,,,,,32,0,4,,,,,3,,,70,0
28224,note_on,,,,,64,0,5,,,,,4,,,60,110
28224,note_on,,,,,64,0,1,,,,,0,,,72,110
28224,note_on,,,,,64,0,7,,,,,6,,,53,110
28224,note_on,,,,,64,0,6,,,,,5,,,65,110
28224,note_on,,,,,64,0,2,,,,,1,,,72,110
28224,note_on,,,,,16,0,4,,,,,3,,,69,110
28256,note_on,,,,,32,0,7,,,,,6,,,53,0
28256,note_on,,,,,32,0,5,,,,,4,,,60,0
28256,note_on,,,,,32,0,6,,,,,5,,,65,0
28256,note_on,,,,,32,0,1,,,,,0,,,72,0
28256,note_on,,,,,32,0,4,,,,,3,,,69,0
28256,note_on,,,,,32,0,2,,,,,1,,,72,0
28272,note_on,,,,,16,0,4,,,,,3,,,70,110
28304,note_on,,,,,32,0,4,,,,,3,,,70,0
28320,note_on,,,,,64,0,7,,,,,6,,,51,110
28320,note_on,,,,,64,0,2,,,,,1,,,72,110
28320,note_on,,,,,16,0,4,,,,,3,,,72,110
28320,note_on,,,,,64,0,1,,,,,0,,,72,110
28320,note_on,,,,,64,0,6,,,,,5,,,65,110
28320,note_on,,,,,64,0,5,,,,,4,,,60,110
28352,note_on,,,,,32,0,1,,,,,0,,,72,0
28352,note_on,,,,,32,0,7,,,,,6,,,51,0
28352,note_on,,,,,32,0,6,,,,,5,,,65,0
28352,note_on,,,,,32,0,5,,,,,4,,,60,0
28352,note_on,,,,,32,0,2,,,,,1,,,72,0
28352,note_on,,,,,32,0,4,,,,,3,,,72,0
28368,note_on,,,,,16,0,4,,,,,3,,,69,110
28400,note_on,,,,,32,0,4,,,,,3,,,69,0
28416,note_on,,,,,64,0,2,,,,,1,,,72,110
28416,note_on,,,,,64,0,6,,,,,5,,,65,110
28416,note_on,,,,,16,0,4,,,,,3,,,65,110
28416,note_on,,,,,64,0,5,,,,,4,,,62,110
28416,note_on,,,,,64,0,7,,,,,6,,,50,110
28416,note_on,,,,,64,0,1,,,,,0,,,72,110
28448,note_on,,,,,32,0,5,,,,,4,,,62,0
28448,note_on,,,,,32,0,7,,,,,6,,,50,0
28448,note_on,,,,,32,0,2,,,,,1,,,72,0
28448,note_on,,,,,32,0,4,,,,,3,,,65,0
28448,note_on,,,,,32,0,1,,,,,0,,,72,0
28512,note_on,,,,,96,0,6,,,,,5,,,65,0
28512,note_on,,,,,64,0,1,,,,,0,,,74,110
28512,note_on,,,,,64,0,4,,,,,3,,,65,110
28512,note_on,,,,,64,0,7,,,,,6,,,48,110
28512,note_on,,,,,64,0,5,,,,,4,,,62,110
28512,note_on,,,,,64,0,2,,,,,1,,,74,110
28544,note_on,,,,,32,0,2,,,,,1,,,74,0
28544,note_on,,,,,32,0,5,,,,,4,,,62,0
28544,note_on,,,,,32,0,1,,,,,0,,,74,0
28544,note_on,,,,,32,0,4,,,,,3,,,65,0
28544,note_on,,,,,32,0,7,,,,,6,,,48,0
28560,note_on,,,,,16,0,1,,,,,0,,,72,110
28560,note_on,,,,,16,0,2,,,,,1,,,72,110
28592,note_on,,,,,32,0,1,,,,,0,,,72,0
28592,note_on,,,,,32,0,2,,,,,1,,,72,0
28608,note_on,,,,,64,0,4,,,,,3,,,74,110
28608,note_on,,,,,64,0,7,,,,,6,,,50,110
28608,note_on,,,,,64,0,5,,,,,4,,,65,110
28608,note_on,,,,,16,0,2,,,,,1,,,70,110
28608,note_on,,,,,16,0,1,,,,,0,,,70,110
28640,note_on,,,,,32,0,5,,,,,4,,,65,0
28640,note_on,,,,,32,0,4,,,,,3,,,74,0
28640,note_on,,,,,32,0,7,,,,,6,,,50,0
28640,note_on,,,,,32,0,2,,,,,1,,,70,0
28640,note_on,,,,,32,0,1,,,,,0,,,70,0
28656,note_on,,,,,16,0,1,,,,,0,,,72,110
28656,note_on,,,,,16,0,2,,,,,1,,,72,110
28688,note_on,,,,,32,0,2,,,,,1,,,72,0
28688,note_on,,,,,32,0,1,,,,,0,,,72,0
28704,note_on,,,,,64,0,7,,,,,6,,,46,110
28704,note_on,,,,,16,0,1,,,,,0,,,74,110
28704,note_on,,,,,64,0,4,,,,,3,,,74,110
28704,note_on,,,,,64,0,5,,,,,4,,,65,110
28704,note_on,,,,,16,0,2,,,,,1,,,74,110
28736,note_on,,,,,32,0,7,,,,,6,,,46,0
28736,note_on,,,,,32,0,1,,,,,0,,,74,0
28736,note_on,,,,,32,0,4,,,,,3,,,74,0
28736,note_on,,,,,32,0,2,,,,,1,,,74,0
28736,note_on,,,,,32,0,5,,,,,4,,,65,0
28752,note_on,,,,,16,0,1,,,,,0,,,70,110
28752,note_on,,,,,16,0,2,,,,,1,,,70,110
28784,note_on,,,,,32,0,2,,,,,1,,,70,0
28784,note_on,,,,,32,0,1,,,,,0,,,70,0
28800,note_on,,,,,64,0,7,,,,,6,,,51,110
28800,note_on,,,,,64,0,5,,,,,4,,,58,110
28800,note_on,,,,,16,0,1,,,,,0,,,67,110
28800,note_on,,,,,288,0,6,,,,,5,,,67,110
28800,note_on,,,,,64,0,4,,,,,3,,,74,110
28800,note_on,,,,,16,0,2,,,,,1,,,67,110
28832,note_on,,,,,32,0,1,,,,,0,,,67,0
28832,note_on,,,,,32,0,7,,,,,6,,,51,0
28832,note_on,,,,,32,0,2,,,,,1,,,67,0
28848,note_on,,,,,48,0,6,,,,,5,,,67,0
28848,note_on,,,,,48,0,4,,,,,3,,,74,0
28848,note_on,,,,,48,0,5,,,,,4,,,58,0
28848,note_on,,,,,1200,0,3,,,,,2,,,65,0
28896,note_on,,,,,64,0,7,,,,,6,,,50,110
28896,note_on,,,,,64,0,2,,,,,1,,,67,110
28896,note_on,,,,,64,0,1,,,,,0,,,67,110
28928,note_on,,,,,32,0,1,,,,,0,,,67,0
28928,note_on,,,,,32,0,2,,,,,1,,,67,0
28928,note_on,,,,,32,0,7,,,,,6,,,50,0
28992,note_on,,,,,144,0,3,,,,,2,,,63,110
28992,note_on,,,,,144,0,5,,,,,4,,,63,110
28992,note_on,,,,,144,0,4,,,,,3,,,72,110
28992,note_on,,,,,144,0,6,,,,,5,,,60,110
28992,note_on,,,,,64,0,7,,,,,6,,,51,110
28992,note_on,,,,,64,0,2,,,,,1,,,75,110
28992,note_on,,,,,64,0,1,,,,,0,,,75,110
29024,note_on,,,,,32,0,7,,,,,6,,,51,0
29024,note_on,,,,,32,0,1,,,,,0,,,75,0
29024,note_on,,,,,32,0,2,,,,,1,,,75,0
29040,note_on,,,,,48,0,6,,,,,5,,,60,0
29040,note_on,,,,,48,0,4,,,,,3,,,72,0
29040,note_on,,,,,48,0,3,,,,,2,,,63,0
29040,note_on,,,,,48,0,5,,,,,4,,,63,0
29088,note_on,,,,,64,0,7,,,,,6,,,48,110
29088,note_on,,,,,64,0,2,,,,,1,,,75,110
29088,note_on,,,,,64,0,1,,,,,0,,,75,110
29120,note_on,,,,,32,0,1,,,,,0,,,75,0
29120,note_on,,,,,32,0,2,,,,,1,,,75,0
29120,note_on,,,,,32,0,7,,,,,6,,,48,0
29184,note_on,,,,,64,0,2,,,,,1,,,75,110
29184,note_on,,,,,144,0,3,,,,,2,,,53,110
29184,note_on,,,,,64,0,7,,,,,6,,,53,110
29184,note_on,,,,,64,0,1,,,,,0,,,75,110
29216,note_on,,,,,32,0,7,,,,,6,,,53,0
29232,note_on,,,,,48,0,1,,,,,0,,,75,0
29232,note_on,,,,,48,0,2,,,,,1,,,75,0
29280,note_on,,,,,96,0,3,,,,,2,,,53,0
29280,note_on,,,,,240,0,4,,,,,3,,,69,110
29280,note_on,,,,,240,0,6,,,,,5,,,60,110
29280,note_on,,,,,240,0,5,,,,,4,,,60,110
29280,note_on,,,,,64,0,7,,,,,6,,,51,110
29312,note_on,,,,,32,0,4,,,,,3,,,69,0
29312,note_on,,,,,32,0,7,,,,,6,,,51,0
29312,note_on,,,,,32,0,5,,,,,4,,,60,0
29312,note_on,,,,,32,0,6,,,,,5,,,60,0
29376,note_on,,,,,144,0,1,,,,,0,,,74,110
29376,note_on,,,,,64,0,7,,,,,6,,,53,110
29376,note_on,,,,,64,0,5,,,,,4,,,69,110
29376,note_on,,,,,64,0,4,,,,,3,,,77,110
29376,note_on,,,,,64,0,6,,,,,5,,,62,110
29376,note_on,,,,,144,0,2,,,,,1,,,74,110
29408,note_on,,,,,32,0,6,,,,,5,,,62,0
29408,note_on,,,,,32,0,5,,,,,4,,,69,0
29408,note_on,,,,,32,0,4,,,,,3,,,77,0
29408,note_on,,,,,32,0,7,,,,,6,,,53,0
29424,note_on,,,,,48,0,2,,,,,1,,,74,0
29424,note_on,,,,,48,0,1,,,,,0,,,74,0
29472,note_on,,,,,64,0,4,,,,,3,,,77,110
29472,note_on,,,,,64,0,7,,,,,6,,,50,110
29472,note_on,,,,,64,0,5,,,,,4,,,69,110
29472,note_on,,,,,64,0,6,,,,,5,,,62,110
29504,note_on,,,,,32,0,4,,,,,3,,,77,0
29504,note_on,,,,,32,0,6,,,,,5,,,62,0
29504,note_on,,,,,32,0,5,,,,,4,,,69,0
29504,note_on,,,,,32,0,7,,,,,6,,,50,0
29568,note_on,,,,,64,0,6,,,,,5,,,62,110
29568,note_on,,,,,64,0,7,,,,,6,,,55,110
29568,note_on,,,,,64,0,5,,,,,4,,,67,110
29568,note_on,,,,,64,0,4,,,,,3,,,77,110
29600,note_on,,,,,32,0,4,,,,,3,,,77,0
29600,note_on,,,,,32,0,7,,,,,6,,,55,0
29616,note_on,,,,,48,0,6,,,,,5,,,62,0
29640,note_on,,,,,72,0,5,,,,,4,,,67,0
29664,note_on,,,,,384,0,3,,,,,2,,,43,110
29664,note_on,,,,,240,0,1,,,,,0,,,70,110
29664,note_on,,,,,64,0,7,,,,,6,,,43,110
29664,note_on,,,,,240,0,2,,,,,1,,,70,110
29664,note_on,,,,,64,0,4,,,,,3,,,75,110
29696,note_on,,,,,32,0,2,,,,,1,,,70,0
29696,note_on,,,,,32,0,7,,,,,6,,,43,0
29696,note_on,,,,,32,0,4,,,,,3,,,75,0
29696,note_on,,,,,32,0,1,,,,,0,,,70,0
29696,note_on,,,,,32,0,3,,,,,2,,,43,0
29712,note_on,,,,,16,0,4,,,,,3,,,74,110
29744,note_on,,,,,32,0,4,,,,,3,,,74,0
29760,note_on,,,,,16,0,4,,,,,3,,,75,110
29760,note_on,,,,,64,0,3,,,,,2,,,55,110
29760,note_on,,,,,64,0,2,,,,,1,,,79,110
29760,note_on,,,,,64,0,7,,,,,6,,,55,110
29760,note_on,,,,,64,0,1,,,,,0,,,79,110
29760,note_on,,,,,144,0,6,,,,,5,,,67,110
29792,note_on,,,,,32,0,7,,,,,6,,,55,0
29792,note_on,,,,,32,0,2,,,,,1,,,79,0
29792,note_on,,,,,32,0,3,,,,,2,,,55,0
29792,note_on,,,,,32,0,1,,,,,0,,,79,0
29808,note_on,,,,,48,0,6,,,,,5,,,67,0
29856,note_on,,,,,64,0,2,,,,,1,,,79,110
29856,note_on,,,,,64,0,3,,,,,2,,,51,110
29856,note_on,,,,,64,0,1,,,,,0,,,79,110
29856,note_on,,,,,64,0,7,,,,,6,,,51,110
29856,note_on,,,,,216,0,5,,,,,4,,,72,110
29888,note_on,,,,,32,0,3,,,,,2,,,51,0
29888,note_on,,,,,32,0,7,,,,,6,,,51,0
29888,note_on,,,,,32,0,1,,,,,0,,,79,0
29888,note_on,,,,,32,0,5,,,,,4,,,72,0
29888,note_on,,,,,32,0,2,,,,,1,,,79,0
29952,note_on,,,,,64,0,2,,,,,1,,,81,110
29952,note_on,,,,,64,0,3,,,,,2,,,53,110
29952,note_on,,,,,144,0,6,,,,,5,,,60,110
29952,note_on,,,,,64,0,5,,,,,4,,,69,110
29952,note_on,,,,,64,0,7,,,,,6,,,53,110
29952,note_on,,,,,64,0,1,,,,,0,,,81,110
29984,note_on,,,,,32,0,1,,,,,0,,,81,0
29984,note_on,,,,,32,0,2,,,,,1,,,81,0
29984,note_on,,,,,32,0,6,,,,,5,,,60,0
29984,note_on,,,,,32,0,5,,,,,4,,,69,0
29984,note_on,,,,,32,0,7,,,,,6,,,53,0
29984,note_on,,,,,32,0,3,,,,,2,,,53,0
30048,note_on,,,,,64,0,2,,,,,1,,,77,110
30048,note_on,,,,,64,0,7,,,,,6,,,46,110
30048,note_on,,,,,64,0,3,,,,,2,,,46,110
30048,note_on,,,,,64,0,5,,,,,4,,,70,110
30048,note_on,,,,,64,0,1,,,,,0,,,77,110
30048,note_on,,,,,64,0,6,,,,,5,,,62,110
30048,note_on,,,,,288,0,4,,,,,3,,,74,110
30080,note_on,,,,,32,0,6,,,,,5,,,62,0
30080,note_on,,,,,32,0,7,,,,,6,,,46,0
30080,note_on,,,,,32,0,5,,,,,4,,,70,0
30080,note_on,,,,,32,0,2,,,,,1,,,77,0
30080,note_on,,,,,32,0,1,,,,,0,,,77,0
30080,note_on,,,,,32,0,4,,,,,3,,,74,0
30080,note_on,,,,,32,0,3,,,,,2,,,46,0
30144,note_on,,,,,64,0,3,,,,,2,,,58,110
30144,note_on,,,,,64,0,4,,,,,3,,,82,110
30144,note_on,,,,,64,0,2,,,,,1,,,74,110
30144,note_on,,,,,64,0,6,,,,,5,,,62,110
30144,note_on,,,,,64,0,1,,,,,0,,,74,110
30144,note_on,,,,,64,0,7,,,,,6,,,58,110
30144,note_on,,,,,64,0,5,,,,,4,,,65,110
30176,note_on,,,,,32,0,5,,,,,4,,,65,0
30176,note_on,,,,,32,0,1,,,,,0,,,74,0
30176,note_on,,,,,32,0,2,,,,,1,,,74,0
30176,note_on,,,,,32,0,6,,,,,5,,,62,0
30176,note_on,,,,,32,0,3,,,,,2,,,58,0
30176,note_on,,,,,32,0,7,,,,,6,,,58,0
30192,note_on,,,,,16,0,1,,,,,0,,,75,110
30192,note_on,,,,,16,0,2,,,,,1,,,75,110
30216,note_on,,,,,72,0,4,,,,,3,,,82,0
30224,note_on,,,,,32,0,2,,,,,1,,,75,0
30224,note_on,,,,,32,0,1,,,,,0,,,75,0
30240,note_on,,,,,64,0,5,,,,,4,,,77,110
30240,note_on,,,,,16,0,2,,,,,1,,,77,110
30240,note_on,,,,,16,0,1,,,,,0,,,77,110
30240,note_on,,,,,64,0,6,,,,,5,,,70,110
30240,note_on,,,,,64,0,7,,,,,6,,,50,110
30240,note_on,,,,,64,0,3,,,,,2,,,50,110
30272,note_on,,,,,32,0,7,,,,,6,,,50,0
30272,note_on,,,,,32,0,6,,,,,5,,,70,0
30272,note_on,,,,,32,0,3,,,,,2,,,50,0
30272,note_on,,,,,32,0,2,,,,,1,,,77,0
30272,note_on,,,,,32,0,1,,,,,0,,,77,0
30272,note_on,,,,,32,0,5,,,,,4,,,77,0
30288,note_on,,,,,16,0,1,,,,,0,,,74,110
30288,note_on,,,,,16,0,2,,,,,1,,,74,110
30320,note_on,,,,,32,0,2,,,,,1,,,74,0
30320,note_on,,,,,32,0,1,,,,,0,,,74,0
30336,note_on,,,,,16,0,2,,,,,1,,,72,110
30336,note_on,,,,,64,0,7,,,,,6,,,53,110
30336,note_on,,,,,64,0,5,,,,,4,,,77,110
30336,note_on,,,,,64,0,6,,,,,5,,,65,110
30336,note_on,,,,,64,0,3,,,,,2,,,53,110
30336,note_on,,,,,16,0,1,,,,,0,,,72,110
30368,note_on,,,,,32,0,7,,,,,6,,,53,0
30368,note_on,,,,,32,0,1,,,,,0,,,72,0
30368,note_on,,,,,32,0,3,,,,,2,,,53,0
30368,note_on,,,,,32,0,2,,,,,1,,,72,0
30384,note_on,,,,,48,0,6,,,,,5,,,65,0
30384,note_on,,,,,48,0,5,,,,,4,,,77,0
30432,note_on,,,,,64,0,3,,,,,2,,,55,110
30432,note_on,,,,,64,0,1,,,,,0,,,72,110
30432,note_on,,,,,64,0,7,,,,,6,,,55,110
30432,note_on,,,,,64,0,2,,,,,1,,,72,110
30432,note_on,,,,,216,0,4,,,,,3,,,84,110
30464,note_on,,,,,32,0,3,,,,,2,,,55,0
30464,note_on,,,,,32,0,7,,,,,6,,,55,0
30464,note_on,,,,,32,0,1,,,,,0,,,72,0
30464,note_on,,,,,32,0,2,,,,,1,,,72,0
30464,note_on,,,,,32,0,4,,,,,3,,,84,0
30480,note_on,,,,,16,0,4,,,,,3,,,82,110
30512,note_on,,,,,32,0,4,,,,,3,,,82,0
30528,note_on,,,,,16,0,4,,,,,3,,,81,110
30528,note_on,,,,,64,0,1,,,,,0,,,77,110
30528,note_on,,,,,64,0,2,,,,,1,,,77,110
30528,note_on,,,,,64,0,7,,,,,6,,,57,110
30528,note_on,,,,,144,0,5,,,,,4,,,72,110
30528,note_on,,,,,64,0,3,,,,,2,,,57,110
30528,note_on,,,,,144,0,6,,,,,5,,,65,110
30560,note_on,,,,,32,0,3,,,,,2,,,57,0
30560,note_on,,,,,32,0,1,,,,,0,,,77,0
30560,note_on,,,,,32,0,2,,,,,1,,,77,0
30560,note_on,,,,,32,0,4,,,,,3,,,81,0
30560,note_on,,,,,32,0,7,,,,,6,,,57,0
30576,note_on,,,,,16,0,4,,,,,3,,,82,110
30576,note_on,,,,,48,0,5,,,,,4,,,72,0
30576,note_on,,,,,48,0,6,,,,,5,,,65,0
30608,note_on,,,,,32,0,4,,,,,3,,,82,0
30624,note_on,,,,,64,0,2,,,,,1,,,77,110
30624,note_on,,,,,64,0,3,,,,,2,,,58,110
30624,note_on,,,,,64,0,7,,,,,6,,,58,110
30624,note_on,,,,,64,0,1,,,,,0,,,77,110
30624,note_on,,,,,16,0,4,,,,,3,,,84,110
30656,note_on,,,,,32,0,2,,,,,1,,,77,0
30656,note_on,,,,,32,0,3,,,,,2,,,58,0
30656,note_on,,,,,32,0,4,,,,,3,,,84,0
30656,note_on,,,,,32,0,7,,,,,6,,,58,0
30656,note_on,,,,,32,0,1,,,,,0,,,77,0
30672,note_on,,,,,16,0,4,,,,,3,,,81,110
30704,note_on,,,,,32,0,4,,,,,3,,,81,0
30720,note_on,,,,,64,0,2,,,,,1,,,77,110
30720,note_on,,,,,64,0,7,,,,,6,,,60,110
30720,note_on,,,,,16,0,4,,,,,3,,,79,110
30720,note_on,,,,,144,0,5,,,,,4,,,72,110
30720,note_on,,,,,64,0,1,,,,,0,,,77,110
30720,note_on,,,,,144,0,6,,,,,5,,,72,110
30720,note_on,,,,,64,0,3,,,,,2,,,60,110
30752,note_on,,,,,32,0,7,,,,,6,,,60,0
30752,note_on,,,,,32,0,4,,,,,3,,,79,0
30752,note_on,,,,,32,0,3,,,,,2,,,60,0
30752,note_on,,,,,32,0,1,,,,,0,,,77,0
30752,note_on,,,,,32,0,2,,,,,1,,,77,0
30768,note_on,,,,,48,0,6,,,,,5,,,72,0
30792,note_on,,,,,72,0,5,,,,,4,,,72,0
30816,note_on,,,,,64,0,4,,,,,3,,,79,110
30816,note_on,,,,,64,0,2,,,,,1,,,79,110
30816,note_on,,,,,64,0,1,,,,,0,,,79,110
30816,note_on,,,,,64,0,7,,,,,6,,,48,110
30816,note_on,,,,,64,0,3,,,,,2,,,48,110
30848,note_on,,,,,32,0,7,,,,,6,,,48,0
30848,note_on,,,,,32,0,2,,,,,1,,,79,0
30848,note_on,,,,,32,0,4,,,,,3,,,79,0
30848,note_on,,,,,32,0,3,,,,,2,,,48,0
30848,note_on,,,,,32,0,1,,,,,0,,,79,0
30864,note_on,,,,,16,0,2,,,,,1,,,77,110
30864,note_on,,,,,16,0,1,,,,,0,,,77,110
30896,note_on,,,,,32,0,2,,,,,1,,,77,0
30896,note_on,,,,,32,0,1,,,,,0,,,77,0
30912,note_on,,,,,16,0,2,,,,,1,,,75,110
30912,note_on,,,,,144,0,6,,,,,5,,,67,110
30912,note_on,,,,,64,0,3,,,,,2,,,51,110
30912,note_on,,,,,16,0,1,,,,,0,,,75,110
30912,note_on,,,,,64,0,7,,,,,6,,,51,110
30912,note_on,,,,,64,0,4,,,,,3,,,84,110
30944,note_on,,,,,32,0,7,,,,,6,,,51,0
30944,note_on,,,,,32,0,4,,,,,3,,,84,0
30944,note_on,,,,,32,0,1,,,,,0,,,75,0
30944,note_on,,,,,32,0,2,,,,,1,,,75,0
30944,note_on,,,,,32,0,3,,,,,2,,,51,0
30960,note_on,,,,,16,0,2,,,,,1,,,77,110
30960,note_on,,,,,48,0,6,,,,,5,,,67,0
30960,note_on,,,,,16,0,1,,,,,0,,,77,110
30992,note_on,,,,,32,0,1,,,,,0,,,77,0
30992,note_on,,,,,32,0,2,,,,,1,,,77,0
31008,note_on,,,,,16,0,2,,,,,1,,,79,110
31008,note_on,,,,,16,0,1,,,,,0,,,79,110
31008,note_on,,,,,64,0,3,,,,,2,,,48,110
31008,note_on,,,,,216,0,5,,,,,4,,,75,110
31008,note_on,,,,,64,0,7,,,,,6,,,48,110
31008,note_on,,,,,64,0,4,,,,,3,,,84,110
31040,note_on,,,,,32,0,4,,,,,3,,,84,0
31040,note_on,,,,,32,0,5,,,,,4,,,75,0
31040,note_on,,,,,32,0,7,,,,,6,,,48,0
31040,note_on,,,,,32,0,3,,,,,2,,,48,0
31040,note_on,,,,,32,0,2,,,,,1,,,79,0
31040,note_on,,,,,32,0,1,,,,,0,,,79,0
31056,note_on,,,,,16,0,2,,,,,1,,,75,110
31056,note_on,,,,,16,0,1,,,,,0,,,75,110
31088,note_on,,,,,32,0,1,,,,,0,,,75,0
31088,note_on,,,,,32,0,2,,,,,1,,,75,0
31104,note_on,,,,,64,0,5,,,,,4,,,67,110
31104,note_on,,,,,64,0,7,,,,,6,,,55,110
31104,note_on,,,,,64,0,3,,,,,2,,,55,110
31104,note_on,,,,,144,0,6,,,,,5,,,67,110
31104,note_on,,,,,16,0,1,,,,,0,,,74,110
31104,note_on,,,,,16,0,2,,,,,1,,,74,110
31104,note_on,,,,,64,0,4,,,,,3,,,84,110
31136,note_on,,,,,32,0,4,,,,,3,,,84,0
31136,note_on,,,,,32,0,1,,,,,0,,,74,0
31136,note_on,,,,,32,0,2,,,,,1,,,74,0
31136,note_on,,,,,32,0,7,,,,,6,,,55,0
31136,note_on,,,,,32,0,3,,,,,2,,,55,0
31152,note_on,,,,,48,0,5,,,,,4,,,67,0
31176,note_on,,,,,72,0,6,,,,,5,,,67,0
31200,note_on,,,,,64,0,2,,,,,1,,,74,110
31200,note_on,,,,,64,0,7,,,,,6,,,57,110
31200,note_on,,,,,64,0,1,,,,,0,,,74,110
31200,note_on,,,,,64,0,4,,,,,3,,,86,110
31200,note_on,,,,,64,0,3,,,,,2,,,57,110
31232,note_on,,,,,32,0,4,,,,,3,,,86,0
31232,note_on,,,,,32,0,3,,,,,2,,,57,0
31232,note_on,,,,,32,0,2,,,,,1,,,74,0
31232,note_on,,,,,32,0,1,,,,,0,,,74,0
31232,note_on,,,,,32,0,7,,,,,6,,,57,0
31248,note_on,,,,,16,0,4,,,,,3,,,84,110
31280,note_on,,,,,32,0,4,,,,,3,,,84,0
31296,note_on,,,,,64,0,2,,,,,1,,,79,110
31296,note_on,,,,,64,0,3,,,,,2,,,58,110
31296,note_on,,,,,16,0,4,,,,,3,,,82,110
31296,note_on,,,,,144,0,5,,,,,4,,,74,110
31296,note_on,,,,,64,0,1,,,,,0,,,79,110
31296,note_on,,,,,64,0,7,,,,,6,,,58,110
31328,note_on,,,,,32,0,4,,,,,3,,,82,0
31328,note_on,,,,,32,0,1,,,,,0,,,79,0
31328,note_on,,,,,32,0,3,,,,,2,,,58,0
31328,note_on,,,,,32,0,2,,,,,1,,,79,0
31328,note_on,,,,,32,0,7,,,,,6,,,58,0
31344,note_on,,,,,16,0,4,,,,,3,,,84,110
31344,note_on,,,,,48,0,5,,,,,4,,,74,0
31376,note_on,,,,,32,0,4,,,,,3,,,84,0
31392,note_on,,,,,64,0,2,,,,,1,,,79,110
31392,note_on,,,,,16,0,4,,,,,3,,,86,110
31392,note_on,,,,,216,0,6,,,,,5,,,62,110
31392,note_on,,,,,64,0,3,,,,,2,,,55,110
31392,note_on,,,,,64,0,7,,,,,6,,,55,110
31392,note_on,,,,,64,0,1,,,,,0,,,79,110
31424,note_on,,,,,32,0,6,,,,,5,,,62,0
31424,note_on,,,,,32,0,2,,,,,1,,,79,0
31424,note_on,,,,,32,0,3,,,,,2,,,55,0
31424,note_on,,,,,32,0,4,,,,,3,,,86,0
31424,note_on,,,,,32,0,7,,,,,6,,,55,0
31424,note_on,,,,,32,0,1,,,,,0,,,79,0
31440,note_on,,,,,16,0,4,,,,,3,,,82,110
31472,note_on,,,,,32,0,4,,,,,3,,,82,0
31488,note_on,,,,,64,0,7,,,,,6,,,62,110
31488,note_on,,,,,64,0,6,,,,,5,,,66,110
31488,note_on,,,,,64,0,3,,,,,2,,,62,110
31488,note_on,,,,,64,0,1,,,,,0,,,78,110
31488,note_on,,,,,144,0,5,,,,,4,,,74,110
31488,note_on,,,,,16,0,4,,,,,3,,,81,110
31488,note_on,,,,,64,0,2,,,,,1,,,78,110
31520,note_on,,,,,32,0,2,,,,,1,,,78,0
31520,note_on,,,,,32,0,1,,,,,0,,,78,0
31536,note_on,,,,,48,0,4,,,,,3,,,81,0
31536,note_on,,,,,48,0,5,,,,,4,,,74,0
31536,note_on,,,,,48,0,6,,,,,5,,,66,0
31584,note_on,,,,,64,0,2,,,,,1,,,74,110
31584,note_on,,,,,64,0,1,,,,,0,,,74,110
31616,note_on,,,,,32,0,2,,,,,1,,,74,0
31616,note_on,,,,,32,0,1,,,,,0,,,74,0
31680,note_on,,,,,64,0,1,,,,,0,,,79,110
31680,note_on,,,,,64,0,2,,,,,1,,,70,110
31712,note_on,,,,,32,0,1,,,,,0,,,79,0
31712,note_on,,,,,32,0,2,,,,,1,,,70,0
31776,note_on,,,,,64,0,1,,,,,0,,,79,110
31776,note_on,,,,,64,0,2,,,,,1,,,67,110
31808,note_on,,,,,32,0,1,,,,,0,,,79,0
31808,note_on,,,,,32,0,2,,,,,1,,,67,0
31872,note_on,,,,,64,0,1,,,,,0,,,79,110
31872,note_on,,,,,64,0,2,,,,,1,,,69,110
31904,note_on,,,,,32,0,2,,,,,1,,,69,0
31904,note_on,,,,,32,0,1,,,,,0,,,79,0
31968,note_on,,,,,64,0,1,,,,,0,,,81,110
31968,note_on,,,,,64,0,2,,,,,1,,,62,110
32000,note_on,,,,,32,0,2,,,,,1,,,62,0
32000,note_on,,,,,32,0,1,,,,,0,,,81,0
32016,note_on,,,,,16,0,1,,,,,0,,,79,110
32048,note_on,,,,,32,0,1,,,,,0,,,79,0
32064,note_on,,,,,64,0,2,,,,,1,,,74,110
32064,note_on,,,,,16,0,1,,,,,0,,,78,110
32096,note_on,,,,,32,0,2,,,,,1,,,74,0
32096,note_on,,,,,32,0,1,,,,,0,,,78,0
32112,note_on,,,,,16,0,1,,,,,0,,,79,110
32144,note_on,,,,,32,0,1,,,,,0,,,79,0
32160,note_on,,,,,64,0,2,,,,,1,,,72,110
32160,note_on,,,,,16,0,1,,,,,0,,,81,110
32192,note_on,,,,,32,0,1,,,,,0,,,81,0
32192,note_on,,,,,32,0,2,,,,,1,,,72,0
32208,note_on,,,,,16,0,1,,,,,0,,,78,110
32240,note_on,,,,,32,0,1,,,,,0,,,78,0
32256,note_on,,,,,64,0,2,,,,,1,,,70,110
32256,note_on,,,,,16,0,1,,,,,0,,,74,110
32288,note_on,,,,,32,0,1,,,,,0,,,74,0
32288,note_on,,,,,32,0,2,,,,,1,,,70,0
32352,note_on,,,,,64,0,1,,,,,0,,,74,110
32352,note_on,,,,,64,0,2,,,,,1,,,67,110
32352,note_on,,,,,816,0,4,,,,,3,,,62,110
32352,note_on,,,,,816,0,5,,,,,4,,,62,110
32352,note_on,,,,,816,0,6,,,,,5,,,62,110
32384,note_on,,,,,32,0,5,,,,,4,,,62,0
32384,note_on,,,,,32,0,4,,,,,3,,,62,0
32384,note_on,,,,,32,0,2,,,,,1,,,67,0
32384,note_on,,,,,32,0,1,,,,,0,,,74,0
32384,note_on,,,,,32,0,6,,,,,5,,,62,0
32448,note_on,,,,,64,0,6,,,,,5,,,62,110
32448,note_on,,,,,64,0,2,,,,,1,,,74,110
32448,note_on,,,,,64,0,4,,,,,3,,,67,110
32448,note_on,,,,,64,0,5,,,,,4,,,62,110
32448,note_on,,,,,64,0,1,,,,,0,,,82,110
32480,note_on,,,,,32,0,6,,,,,5,,,62,0
32480,note_on,,,,,32,0,2,,,,,1,,,74,0
32480,note_on,,,,,32,0,1,,,,,0,,,82,0
32480,note_on,,,,,32,0,4,,,,,3,,,67,0
32480,note_on,,,,,32,0,5,,,,,4,,,62,0
32544,note_on,,,,,64,0,6,,,,,5,,,62,110
32544,note_on,,,,,64,0,1,,,,,0,,,82,110
32544,note_on,,,,,64,0,5,,,,,4,,,62,110
32544,note_on,,,,,64,0,4,,,,,3,,,67,110
32544,note_on,,,,,64,0,2,,,,,1,,,79,110
32576,note_on,,,,,32,0,4,,,,,3,,,67,0
32576,note_on,,,,,32,0,5,,,,,4,,,62,0
32576,note_on,,,,,32,0,1,,,,,0,,,82,0
32576,note_on,,,,,32,0,6,,,,,5,,,62,0
32576,note_on,,,,,32,0,2,,,,,1,,,79,0
32640,note_on,,,,,64,0,4,,,,,3,,,67,110
32640,note_on,,,,,64,0,2,,,,,1,,,70,110
32640,note_on,,,,,64,0,6,,,,,5,,,62,110
32640,note_on,,,,,64,0,5,,,,,4,,,74,110
32640,note_on,,,,,64,0,1,,,,,0,,,82,110
32672,note_on,,,,,32,0,5,,,,,4,,,74,0
32672,note_on,,,,,32,0,4,,,,,3,,,67,0
32672,note_on,,,,,32,0,2,,,,,1,,,70,0
32688,note_on,,,,,48,0,1,,,,,0,,,82,0
32688,note_on,,,,,48,0,6,,,,,5,,,62,0
32736,note_on,,,,,64,0,2,,,,,1,,,67,110
32736,note_on,,,,,64,0,5,,,,,4,,,62,110
32736,note_on,,,,,64,0,4,,,,,3,,,69,110
32768,note_on,,,,,32,0,2,,,,,1,,,67,0
32768,note_on,,,,,32,0,5,,,,,4,,,62,0
32768,note_on,,,,,32,0,4,,,,,3,,,69,0
32784,note_on,,,,,16,0,4,,,,,3,,,67,110
32816,note_on,,,,,32,0,4,,,,,3,,,67,0
32832,note_on,,,,,144,0,1,,,,,0,,,81,110
32832,note_on,,,,,64,0,5,,,,,4,,,62,110
32832,note_on,,,,,64,0,2,,,,,1,,,74,110
32832,note_on,,,,,16,0,4,,,,,3,,,66,110
32864,note_on,,,,,32,0,5,,,,,4,,,62,0
32864,note_on,,,,,32,0,4,,,,,3,,,66,0
32880,note_on,,,,,48,0,2,,,,,1,,,74,0
32880,note_on,,,,,16,0,4,,,,,3,,,67,110
32880,note_on,,,,,48,0,1,,,,,0,,,81,0
32912,note_on,,,,,32,0,4,,,,,3,,,67,0
32928,note_on,,,,,64,0,5,,,,,4,,,60,110
32928,note_on,,,,,16,0,4,,,,,3,,,69,110
32960,note_on,,,,,32,0,5,,,,,4,,,60,0
32960,note_on,,,,,32,0,4,,,,,3,,,69,0
32976,note_on,,,,,16,0,4,,,,,3,,,66,110
33008,note_on,,,,,32,0,4,,,,,3,,,66,0
33024,note_on,,,,,16,0,4,,,,,3,,,62,110
33024,note_on,,,,,64,0,5,,,,,4,,,58,110
33056,note_on,,,,,32,0,5,,,,,4,,,58,0
33056,note_on,,,,,32,0,4,,,,,3,,,62,0
33120,note_on,,,,,240,0,2,,,,,1,,,62,110
33120,note_on,,,,,64,0,5,,,,,4,,,55,110
33120,note_on,,,,,432,0,6,,,,,5,,,62,110
33120,note_on,,,,,240,0,1,,,,,0,,,62,110
33120,note_on,,,,,64,0,4,,,,,3,,,62,110
33152,note_on,,,,,32,0,6,,,,,5,,,62,0
33152,note_on,,,,,32,0,1,,,,,0,,,62,0
33152,note_on,,,,,32,0,2,,,,,1,,,62,0
33152,note_on,,,,,32,0,5,,,,,4,,,55,0
33152,note_on,,,,,32,0,4,,,,,3,,,62,0
33216,note_on,,,,,64,0,5,,,,,4,,,62,110
33216,note_on,,,,,64,0,2,,,,,1,,,67,110
33216,note_on,,,,,64,0,6,,,,,5,,,62,110
33216,note_on,,,,,64,0,4,,,,,3,,,70,110
33216,note_on,,,,,64,0,1,,,,,0,,,67,110
33248,note_on,,,,,32,0,2,,,,,1,,,67,0
33248,note_on,,,,,32,0,1,,,,,0,,,67,0
33248,note_on,,,,,32,0,4,,,,,3,,,70,0
33248,note_on,,,,,32,0,6,,,,,5,,,62,0
33248,note_on,,,,,32,0,5,,,,,4,,,62,0
33312,note_on,,,,,64,0,5,,,,,4,,,67,110
33312,note_on,,,,,64,0,6,,,,,5,,,62,110
33312,note_on,,,,,64,0,4,,,,,3,,,70,110
33312,note_on,,,,,64,0,1,,,,,0,,,67,110
33312,note_on,,,,,64,0,2,,,,,1,,,67,110
33344,note_on,,,,,32,0,4,,,,,3,,,70,0
33344,note_on,,,,,32,0,6,,,,,5,,,62,0
33344,note_on,,,,,32,0,2,,,,,1,,,67,0
33344,note_on,,,,,32,0,1,,,,,0,,,67,0
33344,note_on,,,,,32,0,5,,,,,4,,,67,0
33408,note_on,,,,,64,0,4,,,,,3,,,70,110
33408,note_on,,,,,64,0,5,,,,,4,,,74,110
33408,note_on,,,,,64,0,6,,,,,5,,,62,110
33408,note_on,,,,,64,0,2,,,,,1,,,67,110
33408,note_on,,,,,64,0,1,,,,,0,,,67,110
33440,note_on,,,,,32,0,2,,,,,1,,,67,0
33440,note_on,,,,,32,0,1,,,,,0,,,67,0
33456,note_on,,,,,48,0,5,,,,,4,,,74,0
33456,note_on,,,,,48,0,6,,,,,5,,,62,0
33456,note_on,,,,,48,0,4,,,,,3,,,70,0
33504,note_on,,,,,64,0,1,,,,,0,,,69,110
33504,note_on,,,,,64,0,2,,,,,1,,,69,110
33536,note_on,,,,,32,0,1,,,,,0,,,69,0
33536,note_on,,,,,32,0,2,,,,,1,,,69,0
33552,note_on,,,,,16,0,1,,,,,0,,,67,110
33552,note_on,,,,,16,0,2,,,,,1,,,67,110
33584,note_on,,,,,32,0,1,,,,,0,,,67,0
33584,note_on,,,,,32,0,2,,,,,1,,,67,0
33600,note_on,,,,,16,0,1,,,,,0,,,66,110
33600,note_on,,,,,144,0,5,,,,,4,,,62,110
33600,note_on,,,,,16,0,2,,,,,1,,,66,110
33600,note_on,,,,,144,0,4,,,,,3,,,69,110
33632,note_on,,,,,32,0,1,,,,,0,,,66,0
33632,note_on,,,,,32,0,2,,,,,1,,,66,0
33648,note_on,,,,,16,0,2,,,,,1,,,67,110
33648,note_on,,,,,16,0,1,,,,,0,,,67,110
33648,note_on,,,,,48,0,5,,,,,4,,,62,0
33648,note_on,,,,,48,0,4,,,,,3,,,69,0
33680,note_on,,,,,32,0,1,,,,,0,,,67,0
33680,note_on,,,,,32,0,2,,,,,1,,,67,0
33696,note_on,,,,,16,0,1,,,,,0,,,69,110
33696,note_on,,,,,16,0,2,,,,,1,,,69,110
33728,note_on,,,,,32,0,1,,,,,0,,,69,0
33728,note_on,,,,,32,0,2,,,,,1,,,69,0
33744,note_on,,,,,16,0,1,,,,,0,,,66,110
33744,note_on,,,,,16,0,2,,,,,1,,,66,110
33776,note_on,,,,,32,0,1,,,,,0,,,66,0
33776,note_on,,,,,32,0,2,,,,,1,,,66,0
33792,note_on,,,,,16,0,1,,,,,0,,,62,110
33792,note_on,,,,,16,0,2,,,,,1,,,62,110
33824,note_on,,,,,32,0,1,,,,,0,,,62,0
33824,note_on,,,,,32,0,2,,,,,1,,,62,0
33888,note_on,,,,,240,0,5,,,,,4,,,70,110
33888,note_on,,,,,432,0,6,,,,,5,,,62,110
33888,note_on,,,,,240,0,4,,,,,3,,,74,110
33888,note_on,,,,,64,0,1,,,,,0,,,62,110
33888,note_on,,,,,64,0,2,,,,,1,,,62,110
33920,note_on,,,,,32,0,2,,,,,1,,,62,0
33920,note_on,,,,,32,0,6,,,,,5,,,62,0
33920,note_on,,,,,32,0,1,,,,,0,,,62,0
33920,note_on,,,,,32,0,5,,,,,4,,,70,0
33920,note_on,,,,,32,0,4,,,,,3,,,74,0
33984,note_on,,,,,64,0,5,,,,,4,,,74,110
33984,note_on,,,,,64,0,6,,,,,5,,,62,110
33984,note_on,,,,,64,0,1,,,,,0,,,70,110
33984,note_on,,,,,64,0,2,,,,,1,,,70,110
33984,note_on,,,,,64,0,4,,,,,3,,,79,110
34016,note_on,,,,,32,0,6,,,,,5,,,62,0
34016,note_on,,,,,32,0,1,,,,,0,,,70,0
34016,note_on,,,,,32,0,2,,,,,1,,,70,0
34016,note_on,,,,,32,0,5,,,,,4,,,74,0
34016,note_on,,,,,32,0,4,,,,,3,,,79,0
34080,note_on,,,,,64,0,6,,,,,5,,,62,110
34080,note_on,,,,,64,0,4,,,,,3,,,79,110
34080,note_on,,,,,64,0,1,,,,,0,,,70,110
34080,note_on,,,,,64,0,2,,,,,1,,,70,110
34080,note_on,,,,,64,0,5,,,,,4,,,74,110
34112,note_on,,,,,32,0,6,,,,,5,,,62,0
34112,note_on,,,,,32,0,4,,,,,3,,,79,0
34112,note_on,,,,,32,0,1,,,,,0,,,70,0
34112,note_on,,,,,32,0,2,,,,,1,,,70,0
34112,note_on,,,,,32,0,5,,,,,4,,,74,0
34176,note_on,,,,,64,0,2,,,,,1,,,70,110
34176,note_on,,,,,64,0,4,,,,,3,,,79,110
34176,note_on,,,,,64,0,1,,,,,0,,,70,110
34176,note_on,,,,,64,0,6,,,,,5,,,62,110
34176,note_on,,,,,64,0,5,,,,,4,,,74,110
34208,note_on,,,,,32,0,4,,,,,3,,,79,0
34208,note_on,,,,,32,0,5,,,,,4,,,74,0
34224,note_on,,,,,48,0,2,,,,,1,,,70,0
34224,note_on,,,,,48,0,1,,,,,0,,,70,0
34224,note_on,,,,,48,0,6,,,,,5,,,62,0
34272,note_on,,,,,64,0,4,,,,,3,,,81,110
34272,note_on,,,,,64,0,5,,,,,4,,,62,110
34304,note_on,,,,,32,0,5,,,,,4,,,62,0
34304,note_on,,,,,32,0,4,,,,,3,,,81,0
34320,note_on,,,,,16,0,4,,,,,3,,,79,110
34352,note_on,,,,,32,0,4,,,,,3,,,79,0
34368,note_on,,,,,144,0,2,,,,,1,,,69,110
34368,note_on,,,,,16,0,4,,,,,3,,,78,110
34368,note_on,,,,,64,0,5,,,,,4,,,74,110
34368,note_on,,,,,144,0,1,,,,,0,,,69,110
34400,note_on,,,,,32,0,5,,,,,4,,,74,0
34400,note_on,,,,,32,0,4,,,,,3,,,78,0
34416,note_on,,,,,48,0,2,,,,,1,,,69,0
34416,note_on,,,,,16,0,4,,,,,3,,,79,110
34416,note_on,,,,,48,0,1,,,,,0,,,69,0
34448,note_on,,,,,32,0,4,,,,,3,,,79,0
34464,note_on,,,,,64,0,5,,,,,4,,,72,110
34464,note_on,,,,,16,0,4,,,,,3,,,81,110
34496,note_on,,,,,32,0,4,,,,,3,,,81,0
34496,note_on,,,,,32,0,5,,,,,4,,,72,0
34512,note_on,,,,,16,0,4,,,,,3,,,78,110
34544,note_on,,,,,32,0,4,,,,,3,,,78,0
34560,note_on,,,,,16,0,4,,,,,3,,,74,110
34560,note_on,,,,,64,0,5,,,,,4,,,70,110
34592,note_on,,,,,32,0,5,,,,,4,,,70,0
34592,note_on,,,,,32,0,4,,,,,3,,,74,0
34656,note_on,,,,,64,0,4,,,,,3,,,74,110
34656,note_on,,,,,64,0,5,,,,,4,,,74,110
34656,note_on,,,,,432,0,6,,,,,5,,,62,110
34688,note_on,,,,,32,0,4,,,,,3,,,74,0
34688,note_on,,,,,32,0,5,,,,,4,,,74,0
34688,note_on,,,,,32,0,6,,,,,5,,,62,0
34752,note_on,,,,,64,0,6,,,,,5,,,62,110
34752,note_on,,,,,64,0,5,,,,,4,,,79,110
34752,note_on,,,,,64,0,4,,,,,3,,,82,110
34784,note_on,,,,,32,0,6,,,,,5,,,62,0
34784,note_on,,,,,32,0,5,,,,,4,,,79,0
34784,note_on,,,,,32,0,4,,,,,3,,,82,0
34848,note_on,,,,,64,0,4,,,,,3,,,82,110
34848,note_on,,,,,64,0,6,,,,,5,,,62,110
34848,note_on,,,,,64,0,5,,,,,4,,,79,110
34880,note_on,,,,,32,0,5,,,,,4,,,79,0
34880,note_on,,,,,32,0,4,,,,,3,,,82,0
34880,note_on,,,,,32,0,6,,,,,5,,,62,0
34944,note_on,,,,,64,0,4,,,,,3,,,82,110
34944,note_on,,,,,64,0,6,,,,,5,,,62,110
34944,note_on,,,,,64,0,5,,,,,4,,,79,110
34976,note_on,,,,,32,0,5,,,,,4,,,79,0
34976,note_on,,,,,32,0,6,,,,,5,,,62,0
34992,note_on,,,,,48,0,4,,,,,3,,,82,0
35040,note_on,,,,,64,0,5,,,,,4,,,81,110
35040,note_on,,,,,64,0,6,,,,,5,,,62,110
35072,note_on,,,,,32,0,5,,,,,4,,,81,0
35072,note_on,,,,,32,0,6,,,,,5,,,62,0
35088,note_on,,,,,16,0,5,,,,,4,,,79,110
35120,note_on,,,,,32,0,5,,,,,4,,,79,0
35136,note_on,,,,,16,0,5,,,,,4,,,78,110
35136,note_on,,,,,144,0,4,,,,,3,,,81,110
35136,note_on,,,,,64,0,6,,,,,5,,,69,110
35168,note_on,,,,,32,0,5,,,,,4,,,78,0
35168,note_on,,,,,32,0,6,,,,,5,,,69,0
35184,note_on,,,,,3696,0,3,,,,,2,,,62,0
35184,note_on,,,,,16,0,5,,,,,4,,,79,110
35184,note_on,,,,,3696,0,7,,,,,6,,,62,0
35184,note_on,,,,,48,0,4,,,,,3,,,81,0
35216,note_on,,,,,32,0,5,,,,,4,,,79,0
35232,note_on,,,,,64,0,6,,,,,5,,,69,110
35232,note_on,,,,,16,0,5,,,,,4,,,81,110
35264,note_on,,,,,32,0,5,,,,,4,,,81,0
35264,note_on,,,,,32,0,6,,,,,5,,,69,0
35280,note_on,,,,,16,0,5,,,,,4,,,78,110
35312,note_on,,,,,32,0,5,,,,,4,,,78,0
35328,note_on,,,,,16,0,5,,,,,4,,,74,110
35328,note_on,,,,,64,0,6,,,,,5,,,66,110
35328,note_on,,,,,144,0,4,,,,,3,,,86,110
35360,note_on,,,,,32,0,6,,,,,5,,,66,0
35360,note_on,,,,,32,0,5,,,,,4,,,74,0
35424,note_on,,,,,240,0,3,,,,,2,,,50,110
35424,note_on,,,,,64,0,6,,,,,5,,,66,110
35424,note_on,,,,,64,0,5,,,,,4,,,81,110
35424,note_on,,,,,240,0,7,,,,,6,,,50,110
35424,note_on,,,,,1008,0,1,,,,,0,,,78,110
35456,note_on,,,,,32,0,1,,,,,0,,,78,0
35456,note_on,,,,,32,0,7,,,,,6,,,50,0
35456,note_on,,,,,32,0,3,,,,,2,,,50,0
35456,note_on,,,,,32,0,6,,,,,5,,,66,0
35456,note_on,,,,,32,0,5,,,,,4,,,81,0
35520,note_on,,,,,64,0,6,,,,,5,,,62,110
35520,note_on,,,,,64,0,1,,,,,0,,,79,110
35520,note_on,,,,,64,0,7,,,,,6,,,55,110
35520,note_on,,,,,64,0,3,,,,,2,,,55,110
35520,note_on,,,,,64,0,5,,,,,4,,,82,110
35552,note_on,,,,,32,0,5,,,,,4,,,82,0
35552,note_on,,,,,32,0,1,,,,,0,,,79,0
35552,note_on,,,,,32,0,6,,,,,5,,,62,0
35552,note_on,,,,,32,0,3,,,,,2,,,55,0
35552,note_on,,,,,32,0,7,,,,,6,,,55,0
35616,note_on,,,,,64,0,7,,,,,6,,,55,110
35616,note_on,,,,,64,0,1,,,,,0,,,79,110
35616,note_on,,,,,64,0,6,,,,,5,,,62,110
35616,note_on,,,,,64,0,3,,,,,2,,,55,110
35616,note_on,,,,,64,0,5,,,,,4,,,82,110
35648,note_on,,,,,32,0,1,,,,,0,,,79,0
35648,note_on,,,,,32,0,6,,,,,5,,,62,0
35648,note_on,,,,,32,0,5,,,,,4,,,82,0
35648,note_on,,,,,32,0,3,,,,,2,,,55,0
35648,note_on,,,,,32,0,7,,,,,6,,,55,0
35712,note_on,,,,,64,0,5,,,,,4,,,82,110
35712,note_on,,,,,64,0,3,,,,,2,,,55,110
35712,note_on,,,,,64,0,7,,,,,6,,,55,110
35712,note_on,,,,,64,0,1,,,,,0,,,74,110
35712,note_on,,,,,64,0,6,,,,,5,,,67,110
35744,note_on,,,,,32,0,1,,,,,0,,,74,0
35744,note_on,,,,,32,0,7,,,,,6,,,55,0
35744,note_on,,,,,32,0,3,,,,,2,,,55,0
35760,note_on,,,,,48,0,5,,,,,4,,,82,0
35760,note_on,,,,,48,0,6,,,,,5,,,67,0
35808,note_on,,,,,64,0,7,,,,,6,,,57,110
35808,note_on,,,,,64,0,3,,,,,2,,,57,110
35808,note_on,,,,,64,0,1,,,,,0,,,74,110
35840,note_on,,,,,32,0,3,,,,,2,,,57,0
35840,note_on,,,,,32,0,1,,,,,0,,,74,0
35840,note_on,,,,,32,0,7,,,,,6,,,57,0
35856,note_on,,,,,16,0,3,,,,,2,,,55,110
35856,note_on,,,,,16,0,7,,,,,6,,,55,110
35888,note_on,,,,,32,0,3,,,,,2,,,55,0
35888,note_on,,,,,32,0,7,,,,,6,,,55,0
35904,note_on,,,,,144,0,5,,,,,4,,,81,110
35904,note_on,,,,,64,0,1,,,,,0,,,81,110
35904,note_on,,,,,16,0,7,,,,,6,,,54,110
35904,note_on,,,,,144,0,6,,,,,5,,,69,110
35904,note_on,,,,,16,0,3,,,,,2,,,54,110
35936,note_on,,,,,32,0,7,,,,,6,,,54,0
35936,note_on,,,,,32,0,1,,,,,0,,,81,0
35936,note_on,,,,,32,0,3,,,,,2,,,54,0
35952,note_on,,,,,48,0,6,,,,,5,,,69,0
35952,note_on,,,,,48,0,5,,,,,4,,,81,0
35952,note_on,,,,,16,0,7,,,,,6,,,55,110
35952,note_on,,,,,16,0,3,,,,,2,,,55,110
35984,note_on,,,,,32,0,3,,,,,2,,,55,0
35984,note_on,,,,,32,0,7,,,,,6,,,55,0
36000,note_on,,,,,16,0,7,,,,,6,,,57,110
36000,note_on,,,,,16,0,3,,,,,2,,,57,110
36000,note_on,,,,,64,0,1,,,,,0,,,81,110
36032,note_on,,,,,32,0,3,,,,,2,,,57,0
36032,note_on,,,,,32,0,7,,,,,6,,,57,0
36032,note_on,,,,,32,0,1,,,,,0,,,81,0
36048,note_on,,,,,16,0,7,,,,,6,,,54,110
36048,note_on,,,,,16,0,3,,,,,2,,,54,110
36080,note_on,,,,,32,0,3,,,,,2,,,54,0
36080,note_on,,,,,32,0,7,,,,,6,,,54,0
36096,note_on,,,,,16,0,7,,,,,6,,,50,110
36096,note_on,,,,,1680,0,2,,,,,1,,,69,110
36096,note_on,,,,,64,0,1,,,,,0,,,78,110
36096,note_on,,,,,16,0,3,,,,,2,,,50,110
36128,note_on,,,,,32,0,3,,,,,2,,,50,0
36128,note_on,,,,,32,0,1,,,,,0,,,78,0
36128,note_on,,,,,32,0,7,,,,,6,,,50,0
36144,note_on,,,,,48,0,2,,,,,1,,,69,0
36168,note_on,,,,,840,0,4,,,,,3,,,86,0
36192,note_on,,,,,64,0,1,,,,,0,,,74,110
36192,note_on,,,,,64,0,7,,,,,6,,,50,110
36192,note_on,,,,,64,0,3,,,,,2,,,50,110
36192,note_on,,,,,240,0,6,,,,,5,,,66,110
36192,note_on,,,,,240,0,5,,,,,4,,,69,110
36224,note_on,,,,,32,0,7,,,,,6,,,50,0
36224,note_on,,,,,32,0,3,,,,,2,,,50,0
36224,note_on,,,,,32,0,6,,,,,5,,,66,0
36224,note_on,,,,,32,0,5,,,,,4,,,69,0
36224,note_on,,,,,32,0,1,,,,,0,,,74,0
36288,note_on,,,,,64,0,1,,,,,0,,,79,110
36288,note_on,,,,,144,0,2,,,,,1,,,67,110
36288,note_on,,,,,64,0,5,,,,,4,,,67,110
36288,note_on,,,,,64,0,6,,,,,5,,,62,110
36288,note_on,,,,,64,0,3,,,,,2,,,58,110
36288,note_on,,,,,64,0,7,,,,,6,,,58,110
36320,note_on,,,,,32,0,6,,,,,5,,,62,0
36320,note_on,,,,,32,0,3,,,,,2,,,58,0
36320,note_on,,,,,32,0,7,,,,,6,,,58,0
36320,note_on,,,,,32,0,5,,,,,4,,,67,0
36336,note_on,,,,,48,0,1,,,,,0,,,79,0
36336,note_on,,,,,48,0,2,,,,,1,,,67,0
36384,note_on,,,,,64,0,6,,,,,5,,,67,110
36384,note_on,,,,,64,0,3,,,,,2,,,58,110
36384,note_on,,,,,64,0,7,,,,,6,,,58,110
36384,note_on,,,,,216,0,4,,,,,3,,,86,110
36384,note_on,,,,,64,0,5,,,,,4,,,70,110
36416,note_on,,,,,32,0,3,,,,,2,,,58,0
36416,note_on,,,,,32,0,6,,,,,5,,,67,0
36416,note_on,,,,,32,0,5,,,,,4,,,70,0
36416,note_on,,,,,32,0,4,,,,,3,,,86,0
36416,note_on,,,,,32,0,7,,,,,6,,,58,0
36480,note_on,,,,,64,0,7,,,,,6,,,58,110
36480,note_on,,,,,64,0,6,,,,,5,,,67,110
36480,note_on,,,,,64,0,5,,,,,4,,,72,110
36480,note_on,,,,,64,0,4,,,,,3,,,75,110
36480,note_on,,,,,64,0,3,,,,,2,,,58,110
36512,note_on,,,,,32,0,3,,,,,2,,,58,0
36512,note_on,,,,,32,0,7,,,,,6,,,58,0
36528,note_on,,,,,48,0,5,,,,,4,,,72,0
36528,note_on,,,,,48,0,6,,,,,5,,,67,0
36528,note_on,,,,,48,0,4,,,,,3,,,75,0
36576,note_on,,,,,64,0,3,,,,,2,,,60,110
36576,note_on,,,,,64,0,7,,,,,6,,,60,110
36576,note_on,,,,,240,0,2,,,,,1,,,67,110
36576,note_on,,,,,240,0,1,,,,,0,,,72,110
36608,note_on,,,,,32,0,2,,,,,1,,,67,0
36608,note_on,,,,,32,0,7,,,,,6,,,60,0
36608,note_on,,,,,32,0,1,,,,,0,,,72,0
36624,note_on,,,,,48,0,3,,,,,2,,,60,0
36624,note_on,,,,,0,0,3,,,,,2,,,58,110
36624,note_on,,,,,16,0,7,,,,,6,,,58,110
36656,note_on,,,,,32,0,7,,,,,6,,,58,0
36656,note_on,,,,,32,0,3,,,,,2,,,58,0
36672,note_on,,,,,16,0,3,,,,,2,,,57,110
36672,note_on,,,,,144,0,4,,,,,3,,,84,110
36672,note_on,,,,,64,0,1,,,,,0,,,75,110
36672,note_on,,,,,64,0,2,,,,,1,,,72,110
36672,note_on,,,,,16,0,7,,,,,6,,,57,110
36704,note_on,,,,,32,0,1,,,,,0,,,75,0
36704,note_on,,,,,32,0,3,,,,,2,,,57,0
36704,note_on,,,,,32,0,7,,,,,6,,,57,0
36704,note_on,,,,,32,0,2,,,,,1,,,72,0
36720,note_on,,,,,16,0,7,,,,,6,,,58,110
36720,note_on,,,,,48,0,4,,,,,3,,,84,0
36720,note_on,,,,,16,0,3,,,,,2,,,58,110
36752,note_on,,,,,32,0,3,,,,,2,,,58,0
36752,note_on,,,,,32,0,7,,,,,6,,,58,0
36768,note_on,,,,,16,0,3,,,,,2,,,60,110
36768,note_on,,,,,64,0,2,,,,,1,,,72,110
36768,note_on,,,,,240,0,5,,,,,4,,,75,110
36768,note_on,,,,,16,0,7,,,,,6,,,60,110
36768,note_on,,,,,64,0,1,,,,,0,,,75,110
36768,note_on,,,,,240,0,6,,,,,5,,,69,110
36800,note_on,,,,,32,0,2,,,,,1,,,72,0
36800,note_on,,,,,32,0,6,,,,,5,,,69,0
36800,note_on,,,,,32,0,1,,,,,0,,,75,0
36800,note_on,,,,,32,0,5,,,,,4,,,75,0
36800,note_on,,,,,32,0,7,,,,,6,,,60,0
36800,note_on,,,,,32,0,3,,,,,2,,,60,0
36816,note_on,,,,,16,0,3,,,,,2,,,57,110
36816,note_on,,,,,16,0,7,,,,,6,,,57,110
36848,note_on,,,,,32,0,3,,,,,2,,,57,0
36848,note_on,,,,,32,0,7,,,,,6,,,57,0
36864,note_on,,,,,64,0,1,,,,,0,,,74,110
36864,note_on,,,,,64,0,2,,,,,1,,,72,110
36864,note_on,,,,,64,0,6,,,,,5,,,69,110
36864,note_on,,,,,144,0,4,,,,,3,,,74,110
36864,note_on,,,,,16,0,7,,,,,6,,,54,110
36864,note_on,,,,,16,0,3,,,,,2,,,54,110
36864,note_on,,,,,64,0,5,,,,,4,,,74,110
36896,note_on,,,,,32,0,3,,,,,2,,,54,0
36896,note_on,,,,,32,0,6,,,,,5,,,69,0
36896,note_on,,,,,32,0,2,,,,,1,,,72,0
36896,note_on,,,,,32,0,1,,,,,0,,,74,0
36896,note_on,,,,,32,0,4,,,,,3,,,74,0
36896,note_on,,,,,32,0,5,,,,,4,,,74,0
36896,note_on,,,,,32,0,7,,,,,6,,,54,0
36960,note_on,,,,,64,0,5,,,,,4,,,78,110
36960,note_on,,,,,64,0,6,,,,,5,,,66,110
36960,note_on,,,,,64,0,3,,,,,2,,,50,110
36960,note_on,,,,,64,0,2,,,,,1,,,72,110
36960,note_on,,,,,64,0,1,,,,,0,,,81,110
36960,note_on,,,,,64,0,4,,,,,3,,,81,110
36960,note_on,,,,,64,0,7,,,,,6,,,50,110
36992,note_on,,,,,32,0,4,,,,,3,,,81,0
36992,note_on,,,,,32,0,6,,,,,5,,,66,0
36992,note_on,,,,,32,0,3,,,,,2,,,50,0
36992,note_on,,,,,32,0,2,,,,,1,,,72,0
36992,note_on,,,,,32,0,1,,,,,0,,,81,0
36992,note_on,,,,,32,0,7,,,,,6,,,50,0
36992,note_on,,,,,32,0,5,,,,,4,,,78,0
37056,note_on,,,,,64,0,1,,,,,0,,,82,110
37056,note_on,,,,,64,0,3,,,,,2,,,55,110
37056,note_on,,,,,64,0,5,,,,,4,,,79,110
37056,note_on,,,,,64,0,4,,,,,3,,,82,110
37056,note_on,,,,,64,0,6,,,,,5,,,62,110
37056,note_on,,,,,64,0,7,,,,,6,,,55,110
37056,note_on,,,,,64,0,2,,,,,1,,,70,110
37088,note_on,,,,,32,0,7,,,,,6,,,55,0
37088,note_on,,,,,32,0,3,,,,,2,,,55,0
37088,note_on,,,,,32,0,2,,,,,1,,,70,0
37088,note_on,,,,,32,0,5,,,,,4,,,79,0
37088,note_on,,,,,32,0,6,,,,,5,,,62,0
37104,note_on,,,,,48,0,1,,,,,0,,,82,0
37104,note_on,,,,,16,0,3,,,,,2,,,57,110
37104,note_on,,,,,16,0,2,,,,,1,,,72,110
37104,note_on,,,,,48,0,4,,,,,3,,,82,0
37104,note_on,,,,,16,0,7,,,,,6,,,57,110
37136,note_on,,,,,32,0,3,,,,,2,,,57,0
37136,note_on,,,,,32,0,7,,,,,6,,,57,0
37136,note_on,,,,,32,0,2,,,,,1,,,72,0
37152,note_on,,,,,64,0,5,,,,,4,,,74,110
37152,note_on,,,,,16,0,2,,,,,1,,,74,110
37152,note_on,,,,,16,0,3,,,,,2,,,58,110
37152,note_on,,,,,64,0,6,,,,,5,,,67,110
37152,note_on,,,,,16,0,7,,,,,6,,,58,110
37184,note_on,,,,,32,0,2,,,,,1,,,74,0
37184,note_on,,,,,32,0,7,,,,,6,,,58,0
37184,note_on,,,,,32,0,5,,,,,4,,,74,0
37184,note_on,,,,,32,0,6,,,,,5,,,67,0
37184,note_on,,,,,32,0,3,,,,,2,,,58,0
37200,note_on,,,,,16,0,2,,,,,1,,,70,110
37200,note_on,,,,,16,0,7,,,,,6,,,55,110
37200,note_on,,,,,16,0,3,,,,,2,,,55,110
37232,note_on,,,,,32,0,2,,,,,1,,,70,0
37232,note_on,,,,,32,0,3,,,,,2,,,55,0
37232,note_on,,,,,32,0,7,,,,,6,,,55,0
37248,note_on,,,,,16,0,2,,,,,1,,,67,110
37248,note_on,,,,,144,0,4,,,,,3,,,72,110
37248,note_on,,,,,16,0,3,,,,,2,,,51,110
37248,note_on,,,,,64,0,6,,,,,5,,,60,110
37248,note_on,,,,,144,0,1,,,,,0,,,72,110
37248,note_on,,,,,16,0,7,,,,,6,,,51,110
37248,note_on,,,,,64,0,5,,,,,4,,,67,110
37280,note_on,,,,,32,0,5,,,,,4,,,67,0
37280,note_on,,,,,32,0,2,,,,,1,,,67,0
37280,note_on,,,,,32,0,1,,,,,0,,,72,0
37280,note_on,,,,,32,0,7,,,,,6,,,51,0
37280,note_on,,,,,32,0,6,,,,,5,,,60,0
37280,note_on,,,,,32,0,4,,,,,3,,,72,0
37280,note_on,,,,,32,0,3,,,,,2,,,51,0
37344,note_on,,,,,64,0,2,,,,,1,,,72,110
37344,note_on,,,,,64,0,3,,,,,2,,,48,110
37344,note_on,,,,,64,0,7,,,,,6,,,48,110
37344,note_on,,,,,64,0,6,,,,,5,,,63,110
37344,note_on,,,,,64,0,5,,,,,4,,,72,110
37344,note_on,,,,,64,0,4,,,,,3,,,79,110
37344,note_on,,,,,64,0,1,,,,,0,,,79,110
37376,note_on,,,,,32,0,2,,,,,1,,,72,0
37376,note_on,,,,,32,0,7,,,,,6,,,48,0
37376,note_on,,,,,32,0,6,,,,,5,,,63,0
37376,note_on,,,,,32,0,4,,,,,3,,,79,0
37376,note_on,,,,,32,0,5,,,,,4,,,72,0
37376,note_on,,,,,32,0,3,,,,,2,,,48,0
37376,note_on,,,,,32,0,1,,,,,0,,,79,0
37440,note_on,,,,,64,0,4,,,,,3,,,81,110
37440,note_on,,,,,64,0,3,,,,,2,,,53,110
37440,note_on,,,,,64,0,6,,,,,5,,,65,110
37440,note_on,,,,,64,0,5,,,,,4,,,69,110
37440,note_on,,,,,64,0,7,,,,,6,,,53,110
37440,note_on,,,,,64,0,2,,,,,1,,,69,110
37440,note_on,,,,,64,0,1,,,,,0,,,81,110
37472,note_on,,,,,32,0,7,,,,,6,,,53,0
37472,note_on,,,,,32,0,3,,,,,2,,,53,0
37472,note_on,,,,,32,0,2,,,,,1,,,69,0
37472,note_on,,,,,32,0,5,,,,,4,,,69,0
37488,note_on,,,,,48,0,6,,,,,5,,,65,0
37488,note_on,,,,,16,0,7,,,,,6,,,55,110
37488,note_on,,,,,16,0,3,,,,,2,,,55,110
37488,note_on,,,,,48,0,4,,,,,3,,,81,0
37488,note_on,,,,,16,0,5,,,,,4,,,70,110
37488,note_on,,,,,16,0,2,,,,,1,,,70,110
37488,note_on,,,,,48,0,1,,,,,0,,,81,0
37520,note_on,,,,,32,0,5,,,,,4,,,70,0
37520,note_on,,,,,32,0,7,,,,,6,,,55,0
37520,note_on,,,,,32,0,3,,,,,2,,,55,0
37520,note_on,,,,,32,0,2,,,,,1,,,70,0
37536,note_on,,,,,16,0,7,,,,,6,,,57,110
37536,note_on,,,,,16,0,3,,,,,2,,,57,110
37536,note_on,,,,,16,0,5,,,,,4,,,72,110
37536,note_on,,,,,16,0,2,,,,,1,,,72,110
37568,note_on,,,,,32,0,3,,,,,2,,,57,0
37568,note_on,,,,,32,0,2,,,,,1,,,72,0
37568,note_on,,,,,32,0,7,,,,,6,,,57,0
37568,note_on,,,,,32,0,5,,,,,4,,,72,0
37584,note_on,,,,,16,0,5,,,,,4,,,69,110
37584,note_on,,,,,16,0,2,,,,,1,,,69,110
37584,note_on,,,,,16,0,7,,,,,6,,,53,110
37584,note_on,,,,,16,0,3,,,,,2,,,53,110
37616,note_on,,,,,32,0,3,,,,,2,,,53,0
37616,note_on,,,,,32,0,5,,,,,4,,,69,0
37616,note_on,,,,,32,0,2,,,,,1,,,69,0
37616,note_on,,,,,32,0,7,,,,,6,,,53,0
37632,note_on,,,,,144,0,1,,,,,0,,,70,110
37632,note_on,,,,,16,0,3,,,,,2,,,50,110
37632,note_on,,,,,16,0,5,,,,,4,,,65,110
37632,note_on,,,,,144,0,4,,,,,3,,,70,110
37632,note_on,,,,,16,0,2,,,,,1,,,65,110
37632,note_on,,,,,16,0,7,,,,,6,,,50,110
37632,note_on,,,,,144,0,6,,,,,5,,,65,110
37664,note_on,,,,,32,0,2,,,,,1,,,65,0
37664,note_on,,,,,32,0,3,,,,,2,,,50,0
37664,note_on,,,,,32,0,4,,,,,3,,,70,0
37664,note_on,,,,,32,0,6,,,,,5,,,65,0
37664,note_on,,,,,32,0,7,,,,,6,,,50,0
37664,note_on,,,,,32,0,5,,,,,4,,,65,0
37664,note_on,,,,,32,0,1,,,,,0,,,70,0
37728,note_on,,,,,64,0,7,,,,,6,,,46,110
37728,note_on,,,,,64,0,4,,,,,3,,,74,110
37728,note_on,,,,,64,0,6,,,,,5,,,65,110
37728,note_on,,,,,64,0,3,,,,,2,,,46,110
37728,note_on,,,,,64,0,5,,,,,4,,,70,110
37728,note_on,,,,,64,0,1,,,,,0,,,74,110
37728,note_on,,,,,64,0,2,,,,,1,,,70,110
37760,note_on,,,,,32,0,2,,,,,1,,,70,0
37760,note_on,,,,,32,0,7,,,,,6,,,46,0
37760,note_on,,,,,32,0,3,,,,,2,,,46,0
37760,note_on,,,,,32,0,5,,,,,4,,,70,0
37760,note_on,,,,,32,0,1,,,,,0,,,74,0
37760,note_on,,,,,32,0,6,,,,,5,,,65,0
37760,note_on,,,,,32,0,4,,,,,3,,,74,0
37824,note_on,,,,,64,0,2,,,,,1,,,67,110
37824,note_on,,,,,64,0,7,,,,,6,,,51,110
37824,note_on,,,,,64,0,5,,,,,4,,,67,110
37824,note_on,,,,,64,0,4,,,,,3,,,79,110
37824,note_on,,,,,64,0,6,,,,,5,,,63,110
37824,note_on,,,,,64,0,3,,,,,2,,,51,110
37824,note_on,,,,,64,0,1,,,,,0,,,79,110
37856,note_on,,,,,32,0,2,,,,,1,,,67,0
37856,note_on,,,,,32,0,5,,,,,4,,,67,0
37856,note_on,,,,,32,0,6,,,,,5,,,63,0
37856,note_on,,,,,32,0,7,,,,,6,,,51,0
37856,note_on,,,,,32,0,4,,,,,3,,,79,0
37856,note_on,,,,,32,0,3,,,,,2,,,51,0
37856,note_on,,,,,32,0,1,,,,,0,,,79,0
37872,note_on,,,,,16,0,3,,,,,2,,,53,110
37872,note_on,,,,,16,0,7,,,,,6,,,53,110
37904,note_on,,,,,32,0,7,,,,,6,,,53,0
37904,note_on,,,,,32,0,3,,,,,2,,,53,0
37920,note_on,,,,,64,0,1,,,,,0,,,70,110
37920,note_on,,,,,64,0,5,,,,,4,,,67,110
37920,note_on,,,,,64,0,4,,,,,3,,,70,110
37920,note_on,,,,,64,0,6,,,,,5,,,63,110
37920,note_on,,,,,16,0,7,,,,,6,,,55,110
37920,note_on,,,,,16,0,3,,,,,2,,,55,110
37920,note_on,,,,,64,0,2,,,,,1,,,67,110
37952,note_on,,,,,32,0,4,,,,,3,,,70,0
37952,note_on,,,,,32,0,5,,,,,4,,,67,0
37952,note_on,,,,,32,0,2,,,,,1,,,67,0
37952,note_on,,,,,32,0,3,,,,,2,,,55,0
37952,note_on,,,,,32,0,7,,,,,6,,,55,0
37952,note_on,,,,,32,0,1,,,,,0,,,70,0
37952,note_on,,,,,32,0,6,,,,,5,,,63,0
37968,note_on,,,,,16,0,3,,,,,2,,,51,110
37968,note_on,,,,,16,0,7,,,,,6,,,51,110
38000,note_on,,,,,32,0,3,,,,,2,,,51,0
38000,note_on,,,,,32,0,7,,,,,6,,,51,0
38016,note_on,,,,,64,0,6,,,,,5,,,63,110
38016,note_on,,,,,16,0,3,,,,,2,,,48,110
38016,note_on,,,,,16,0,7,,,,,6,,,48,110
38016,note_on,,,,,64,0,1,,,,,0,,,69,110
38016,note_on,,,,,64,0,4,,,,,3,,,69,110
38016,note_on,,,,,64,0,5,,,,,4,,,63,110
38016,note_on,,,,,64,0,2,,,,,1,,,63,110
38048,note_on,,,,,32,0,6,,,,,5,,,63,0
38048,note_on,,,,,32,0,5,,,,,4,,,63,0
38048,note_on,,,,,32,0,4,,,,,3,,,69,0
38048,note_on,,,,,32,0,7,,,,,6,,,48,0
38048,note_on,,,,,32,0,1,,,,,0,,,69,0
38048,note_on,,,,,32,0,3,,,,,2,,,48,0
38048,note_on,,,,,32,0,2,,,,,1,,,63,0
38112,note_on,,,,,64,0,2,,,,,1,,,75,110
38112,note_on,,,,,64,0,6,,,,,5,,,60,110
38112,note_on,,,,,64,0,7,,,,,6,,,45,110
38112,note_on,,,,,64,0,4,,,,,3,,,79,110
38112,note_on,,,,,64,0,3,,,,,2,,,45,110
38112,note_on,,,,,64,0,1,,,,,0,,,79,110
38112,note_on,,,,,64,0,5,,,,,4,,,75,110
38144,note_on,,,,,32,0,6,,,,,5,,,60,0
38144,note_on,,,,,32,0,1,,,,,0,,,79,0
38144,note_on,,,,,32,0,7,,,,,6,,,45,0
38144,note_on,,,,,32,0,2,,,,,1,,,75,0
38144,note_on,,,,,32,0,4,,,,,3,,,79,0
38144,note_on,,,,,32,0,5,,,,,4,,,75,0
38144,note_on,,,,,32,0,3,,,,,2,,,45,0
38208,note_on,,,,,64,0,4,,,,,3,,,78,110
38208,note_on,,,,,64,0,1,,,,,0,,,78,110
38208,note_on,,,,,64,0,3,,,,,2,,,50,110
38208,note_on,,,,,64,0,6,,,,,5,,,62,110
38208,note_on,,,,,64,0,2,,,,,1,,,74,110
38208,note_on,,,,,64,0,5,,,,,4,,,74,110
38208,note_on,,,,,64,0,7,,,,,6,,,50,110
38224,note_on,,,,,16,0,4,,,,,3,,,78,0
38232,note_on,,,,,8,0,4,,,,,3,,,79,110
38240,note_on,,,,,32,0,3,,,,,2,,,50,0
38240,note_on,,,,,32,0,2,,,,,1,,,74,0
38240,note_on,,,,,32,0,6,,,,,5,,,62,0
38240,note_on,,,,,32,0,7,,,,,6,,,50,0
38240,note_on,,,,,32,0,5,,,,,4,,,74,0
38248,note_on,,,,,16,0,4,,,,,3,,,79,0
38256,note_on,,,,,8,0,4,,,,,3,,,78,110
38256,note_on,,,,,48,0,1,,,,,0,,,78,0
38272,note_on,,,,,16,0,4,,,,,3,,,78,0
38280,note_on,,,,,8,0,4,,,,,3,,,79,110
38296,note_on,,,,,16,0,4,,,,,3,,,79,0
38304,note_on,,,,,64,0,3,,,,,2,,,38,110
38304,note_on,,,,,64,0,2,,,,,1,,,72,110
38304,note_on,,,,,8,0,4,,,,,3,,,78,110
38304,note_on,,,,,64,0,6,,,,,5,,,62,110
38304,note_on,,,,,64,0,5,,,,,4,,,72,110
38304,note_on,,,,,64,0,7,,,,,6,,,38,110
38320,note_on,,,,,16,0,4,,,,,3,,,78,0
38328,note_on,,,,,8,0,4,,,,,3,,,79,110
38336,note_on,,,,,32,0,6,,,,,5,,,62,0
38336,note_on,,,,,32,0,3,,,,,2,,,38,0
38336,note_on,,,,,32,0,2,,,,,1,,,72,0
38336,note_on,,,,,32,0,7,,,,,6,,,38,0
38336,note_on,,,,,32,0,5,,,,,4,,,72,0
38344,note_on,,,,,16,0,4,,,,,3,,,79,0
38352,note_on,,,,,96,0,1,,,,,0,,,79,110
38352,note_on,,,,,8,0,4,,,,,3,,,79,110
38384,note_on,,,,,32,0,1,,,,,0,,,79,0
38384,note_on,,,,,32,0,4,,,,,3,,,79,0
38400,note_on,,,,,16,0,4,,,,,3,,,79,110
38400,note_on,,,,,16,0,1,,,,,0,,,79,110
38400,note_on,,,,,64,0,6,,,,,5,,,62,110
38400,note_on,,,,,64,0,2,,,,,1,,,70,110
38400,note_on,,,,,64,0,7,,,,,6,,,43,110
38400,note_on,,,,,64,0,5,,,,,4,,,70,110
38400,note_on,,,,,64,0,3,,,,,2,,,43,110
38432,note_on,,,,,32,0,7,,,,,6,,,43,0
38432,note_on,,,,,32,0,4,,,,,3,,,79,0
38432,note_on,,,,,32,0,5,,,,,4,,,70,0
38432,note_on,,,,,32,0,6,,,,,5,,,62,0
38448,note_on,,,,,48,0,3,,,,,2,,,43,0
38448,note_on,,,,,48,0,1,,,,,0,,,79,0
38448,note_on,,,,,48,0,2,,,,,1,,,70,0
38496,note_on,,,,,64,0,4,,,,,3,,,82,110
38496,note_on,,,,,64,0,5,,,,,4,,,74,110
38496,note_on,,,,,64,0,6,,,,,5,,,74,110
38496,note_on,,,,,64,0,7,,,,,6,,,62,110
38528,note_on,,,,,32,0,4,,,,,3,,,82,0
38528,note_on,,,,,32,0,6,,,,,5,,,74,0
38528,note_on,,,,,32,0,7,,,,,6,,,62,0
38528,note_on,,,,,32,0,5,,,,,4,,,74,0
38544,note_on,,,,,16,0,7,,,,,6,,,60,110
38576,note_on,,,,,32,0,7,,,,,6,,,60,0
38592,note_on,,,,,64,0,6,,,,,5,,,74,110
38592,note_on,,,,,64,0,5,,,,,4,,,79,110
38592,note_on,,,,,16,0,7,,,,,6,,,58,110
38592,note_on,,,,,64,0,4,,,,,3,,,82,110
38624,note_on,,,,,32,0,7,,,,,6,,,58,0
38640,note_on,,,,,48,0,6,,,,,5,,,74,0
38640,note_on,,,,,48,0,4,,,,,3,,,82,0
38640,note_on,,,,,16,0,7,,,,,6,,,57,110
38640,note_on,,,,,48,0,5,,,,,4,,,79,0
38672,note_on,,,,,32,0,7,,,,,6,,,57,0
38688,note_on,,,,,240,0,1,,,,,0,,,70,110
38688,note_on,,,,,16,0,7,,,,,6,,,55,110
38688,note_on,,,,,240,0,2,,,,,1,,,67,110
38720,note_on,,,,,32,0,7,,,,,6,,,55,0
38720,note_on,,,,,32,0,2,,,,,1,,,67,0
38720,note_on,,,,,32,0,1,,,,,0,,,70,0
38736,note_on,,,,,16,0,7,,,,,6,,,53,110
38768,note_on,,,,,32,0,7,,,,,6,,,53,0
38784,note_on,,,,,64,0,1,,,,,0,,,70,110
38784,note_on,,,,,16,0,7,,,,,6,,,52,110
38784,note_on,,,,,64,0,2,,,,,1,,,67,110
38816,note_on,,,,,32,0,2,,,,,1,,,67,0
38816,note_on,,,,,32,0,1,,,,,0,,,70,0
38832,note_on,,,,,48,0,7,,,,,6,,,52,0
38880,note_on,,,,,432,0,3,,,,,2,,,60,110
38880,note_on,,,,,64,0,1,,,,,0,,,79,110
38880,note_on,,,,,64,0,2,,,,,1,,,79,110
38912,note_on,,,,,32,0,3,,,,,2,,,60,0
38912,note_on,,,,,32,0,2,,,,,1,,,79,0
38912,note_on,,,,,32,0,1,,,,,0,,,79,0
38928,note_on,,,,,16,0,2,,,,,1,,,77,110
38928,note_on,,,,,16,0,1,,,,,0,,,77,110
38960,note_on,,,,,32,0,2,,,,,1,,,77,0
38960,note_on,,,,,32,0,1,,,,,0,,,77,0
38976,note_on,,,,,64,0,3,,,,,2,,,60,110
38976,note_on,,,,,16,0,2,,,,,1,,,76,110
38976,note_on,,,,,16,0,1,,,,,0,,,76,110
39008,note_on,,,,,32,0,2,,,,,1,,,76,0
39008,note_on,,,,,32,0,1,,,,,0,,,76,0
39024,note_on,,,,,16,0,1,,,,,0,,,74,110
39024,note_on,,,,,16,0,2,,,,,1,,,74,110
39056,note_on,,,,,32,0,2,,,,,1,,,74,0
39056,note_on,,,,,32,0,1,,,,,0,,,74,0
39072,note_on,,,,,16,0,2,,,,,1,,,72,110
39072,note_on,,,,,240,0,7,,,,,6,,,52,110
39072,note_on,,,,,16,0,1,,,,,0,,,72,110
39104,note_on,,,,,32,0,1,,,,,0,,,72,0
39104,note_on,,,,,32,0,2,,,,,1,,,72,0
39104,note_on,,,,,32,0,7,,,,,6,,,52,0
39120,note_on,,,,,16,0,2,,,,,1,,,70,110
39120,note_on,,,,,16,0,1,,,,,0,,,70,110
39152,note_on,,,,,32,0,1,,,,,0,,,70,0
39152,note_on,,,,,32,0,2,,,,,1,,,70,0
39168,note_on,,,,,64,0,7,,,,,6,,,53,110
39168,note_on,,,,,16,0,1,,,,,0,,,69,110
39168,note_on,,,,,16,0,2,,,,,1,,,69,110
39200,note_on,,,,,32,0,7,,,,,6,,,53,0
39216,note_on,,,,,48,0,2,,,,,1,,,69,0
39216,note_on,,,,,240,0,3,,,,,2,,,60,0
39216,note_on,,,,,48,0,1,,,,,0,,,69,0
39264,note_on,,,,,624,0,4,,,,,3,,,81,110
39264,note_on,,,,,624,0,6,,,,,5,,,69,110
39264,note_on,,,,,64,0,7,,,,,6,,,60,110
39264,note_on,,,,,624,0,5,,,,,4,,,72,110
39296,note_on,,,,,32,0,7,,,,,6,,,60,0
39296,note_on,,,,,32,0,4,,,,,3,,,81,0
39296,note_on,,,,,32,0,5,,,,,4,,,72,0
39296,note_on,,,,,32,0,6,,,,,5,,,69,0
39312,note_on,,,,,16,0,7,,,,,6,,,58,110
39344,note_on,,,,,32,0,7,,,,,6,,,58,0
39360,note_on,,,,,64,0,6,,,,,5,,,72,110
39360,note_on,,,,,64,0,4,,,,,3,,,81,110
39360,note_on,,,,,64,0,5,,,,,4,,,77,110
39360,note_on,,,,,16,0,7,,,,,6,,,57,110
39392,note_on,,,,,32,0,7,,,,,6,,,57,0
39408,note_on,,,,,16,0,7,,,,,6,,,55,110
39408,note_on,,,,,48,0,6,,,,,5,,,72,0
39408,note_on,,,,,48,0,4,,,,,3,,,81,0
39408,note_on,,,,,48,0,5,,,,,4,,,77,0
39440,note_on,,,,,32,0,7,,,,,6,,,55,0
39456,note_on,,,,,240,0,2,,,,,1,,,69,110
39456,note_on,,,,,16,0,7,,,,,6,,,53,110
39456,note_on,,,,,240,0,1,,,,,0,,,69,110
39488,note_on,,,,,32,0,2,,,,,1,,,69,0
39488,note_on,,,,,32,0,7,,,,,6,,,53,0
39488,note_on,,,,,32,0,1,,,,,0,,,69,0
39504,note_on,,,,,16,0,7,,,,,6,,,52,110
39536,note_on,,,,,32,0,7,,,,,6,,,52,0
39552,note_on,,,,,64,0,2,,,,,1,,,69,110
39552,note_on,,,,,16,0,7,,,,,6,,,50,110
39552,note_on,,,,,64,0,1,,,,,0,,,69,110
39584,note_on,,,,,32,0,2,,,,,1,,,69,0
39584,note_on,,,,,32,0,1,,,,,0,,,69,0
39600,note_on,,,,,48,0,7,,,,,6,,,50,0
39648,note_on,,,,,64,0,1,,,,,0,,,77,110
39648,note_on,,,,,432,0,3,,,,,2,,,58,110
39648,note_on,,,,,64,0,2,,,,,1,,,77,110
39680,note_on,,,,,32,0,1,,,,,0,,,77,0
39680,note_on,,,,,32,0,2,,,,,1,,,77,0
39680,note_on,,,,,32,0,3,,,,,2,,,58,0
39696,note_on,,,,,16,0,1,,,,,0,,,76,110
39696,note_on,,,,,16,0,2,,,,,1,,,76,110
39728,note_on,,,,,32,0,1,,,,,0,,,76,0
39728,note_on,,,,,32,0,2,,,,,1,,,76,0
39744,note_on,,,,,16,0,2,,,,,1,,,74,110
39744,note_on,,,,,64,0,3,,,,,2,,,58,110
39744,note_on,,,,,16,0,1,,,,,0,,,74,110
39776,note_on,,,,,32,0,1,,,,,0,,,74,0
39776,note_on,,,,,32,0,2,,,,,1,,,74,0
39792,note_on,,,,,16,0,2,,,,,1,,,72,110
39792,note_on,,,,,16,0,1,,,,,0,,,72,110
39824,note_on,,,,,32,0,1,,,,,0,,,72,0
39824,note_on,,,,,32,0,2,,,,,1,,,72,0
39840,note_on,,,,,16,0,2,,,,,1,,,70,110
39840,note_on,,,,,16,0,1,,,,,0,,,70,110
39840,note_on,,,,,240,0,7,,,,,6,,,50,110
39872,note_on,,,,,32,0,7,,,,,6,,,50,0
39872,note_on,,,,,32,0,1,,,,,0,,,70,0
39872,note_on,,,,,32,0,2,,,,,1,,,70,0
39888,note_on,,,,,16,0,1,,,,,0,,,69,110
39888,note_on,,,,,16,0,2,,,,,1,,,69,110
39920,note_on,,,,,32,0,1,,,,,0,,,69,0
39920,note_on,,,,,32,0,2,,,,,1,,,69,0
39936,note_on,,,,,16,0,1,,,,,0,,,67,110
39936,note_on,,,,,64,0,7,,,,,6,,,52,110
39936,note_on,,,,,16,0,2,,,,,1,,,67,110
39968,note_on,,,,,32,0,7,,,,,6,,,52,0
39984,note_on,,,,,48,0,2,,,,,1,,,67,0
39984,note_on,,,,,48,0,1,,,,,0,,,67,0
39984,note_on,,,,,240,0,3,,,,,2,,,58,0
40032,note_on,,,,,64,0,7,,,,,6,,,58,110
40032,note_on,,,,,624,0,6,,,,,5,,,67,110
40032,note_on,,,,,624,0,4,,,,,3,,,79,110
40032,note_on,,,,,624,0,5,,,,,4,,,67,110
40064,note_on,,,,,32,0,7,,,,,6,,,58,0
40064,note_on,,,,,32,0,6,,,,,5,,,67,0
40064,note_on,,,,,32,0,5,,,,,4,,,67,0
40064,note_on,,,,,32,0,4,,,,,3,,,79,0
40080,note_on,,,,,16,0,7,,,,,6,,,57,110
40112,note_on,,,,,32,0,7,,,,,6,,,57,0
40128,note_on,,,,,64,0,5,,,,,4,,,76,110
40128,note_on,,,,,64,0,4,,,,,3,,,79,110
40128,note_on,,,,,64,0,6,,,,,5,,,70,110
40128,note_on,,,,,16,0,7,,,,,6,,,55,110
40160,note_on,,,,,32,0,7,,,,,6,,,55,0
40176,note_on,,,,,48,0,5,,,,,4,,,76,0
40176,note_on,,,,,16,0,7,,,,,6,,,53,110
40176,note_on,,,,,48,0,6,,,,,5,,,70,0
40176,note_on,,,,,48,0,4,,,,,3,,,79,0
40208,note_on,,,,,32,0,7,,,,,6,,,53,0
40224,note_on,,,,,240,0,1,,,,,0,,,67,110
40224,note_on,,,,,240,0,2,,,,,1,,,67,110
40224,note_on,,,,,16,0,7,,,,,6,,,52,110
40256,note_on,,,,,32,0,7,,,,,6,,,52,0
40256,note_on,,,,,32,0,1,,,,,0,,,67,0
40256,note_on,,,,,32,0,2,,,,,1,,,67,0
40272,note_on,,,,,16,0,7,,,,,6,,,50,110
40304,note_on,,,,,32,0,7,,,,,6,,,50,0
40320,note_on,,,,,64,0,2,,,,,1,,,67,110
40320,note_on,,,,,64,0,1,,,,,0,,,67,110
40320,note_on,,,,,16,0,7,,,,,6,,,49,110
40352,note_on,,,,,32,0,2,,,,,1,,,67,0
40352,note_on,,,,,32,0,1,,,,,0,,,67,0
40368,note_on,,,,,48,0,7,,,,,6,,,49,0
40416,note_on,,,,,64,0,2,,,,,1,,,76,110
40416,note_on,,,,,432,0,3,,,,,2,,,57,110
40416,note_on,,,,,64,0,1,,,,,0,,,76,110
40448,note_on,,,,,32,0,3,,,,,2,,,57,0
40448,note_on,,,,,32,0,2,,,,,1,,,76,0
40448,note_on,,,,,32,0,1,,,,,0,,,76,0
40464,note_on,,,,,16,0,2,,,,,1,,,74,110
40464,note_on,,,,,16,0,1,,,,,0,,,74,110
40496,note_on,,,,,32,0,2,,,,,1,,,74,0
40496,note_on,,,,,32,0,1,,,,,0,,,74,0
40512,note_on,,,,,64,0,3,,,,,2,,,57,110
40512,note_on,,,,,16,0,2,,,,,1,,,73,110
40512,note_on,,,,,16,0,1,,,,,0,,,73,110
40544,note_on,,,,,32,0,2,,,,,1,,,73,0
40544,note_on,,,,,32,0,1,,,,,0,,,73,0
40560,note_on,,,,,16,0,1,,,,,0,,,71,110
40560,note_on,,,,,16,0,2,,,,,1,,,71,110
40592,note_on,,,,,32,0,1,,,,,0,,,71,0
40592,note_on,,,,,32,0,2,,,,,1,,,71,0
40608,note_on,,,,,16,0,2,,,,,1,,,69,110
40608,note_on,,,,,16,0,1,,,,,0,,,69,110
40608,note_on,,,,,240,0,7,,,,,6,,,49,110
40640,note_on,,,,,32,0,1,,,,,0,,,69,0
40640,note_on,,,,,32,0,2,,,,,1,,,69,0
40640,note_on,,,,,32,0,7,,,,,6,,,49,0
40656,note_on,,,,,16,0,2,,,,,1,,,67,110
40656,note_on,,,,,16,0,1,,,,,0,,,67,110
40688,note_on,,,,,32,0,2,,,,,1,,,67,0
40688,note_on,,,,,32,0,1,,,,,0,,,67,0
40704,note_on,,,,,16,0,2,,,,,1,,,65,110
40704,note_on,,,,,64,0,7,,,,,6,,,50,110
40704,note_on,,,,,16,0,1,,,,,0,,,65,110
40736,note_on,,,,,32,0,1,,,,,0,,,65,0
40736,note_on,,,,,32,0,2,,,,,1,,,65,0
40736,note_on,,,,,224,0,3,,,,,2,,,57,0
40736,note_on,,,,,32,0,7,,,,,6,,,50,0
40800,note_on,,,,,624,0,4,,,,,3,,,81,110
40800,note_on,,,,,64,0,3,,,,,2,,,62,110
40800,note_on,,,,,624,0,5,,,,,4,,,77,110
40800,note_on,,,,,64,0,1,,,,,0,,,77,110
40800,note_on,,,,,64,0,2,,,,,1,,,69,110
40800,note_on,,,,,624,0,6,,,,,5,,,69,110
40800,note_on,,,,,64,0,7,,,,,6,,,62,110
40832,note_on,,,,,32,0,7,,,,,6,,,62,0
40832,note_on,,,,,32,0,4,,,,,3,,,81,0
40832,note_on,,,,,32,0,5,,,,,4,,,77,0
40832,note_on,,,,,32,0,1,,,,,0,,,77,0
40832,note_on,,,,,32,0,6,,,,,5,,,69,0
40832,note_on,,,,,32,0,2,,,,,1,,,69,0
40832,note_on,,,,,32,0,3,,,,,2,,,62,0
40848,note_on,,,,,16,0,5,,,,,4,,,76,110
40848,note_on,,,,,16,0,4,,,,,3,,,79,110
40880,note_on,,,,,32,0,4,,,,,3,,,79,0
40880,note_on,,,,,32,0,5,,,,,4,,,76,0
40896,note_on,,,,,64,0,6,,,,,5,,,69,110
40896,note_on,,,,,16,0,4,,,,,3,,,77,110
40896,note_on,,,,,64,0,7,,,,,6,,,62,110
40896,note_on,,,,,64,0,2,,,,,1,,,69,110
40896,note_on,,,,,64,0,3,,,,,2,,,62,110
40896,note_on,,,,,64,0,1,,,,,0,,,77,110
40896,note_on,,,,,16,0,5,,,,,4,,,74,110
40928,note_on,,,,,32,0,5,,,,,4,,,74,0
40928,note_on,,,,,32,0,4,,,,,3,,,77,0
40944,note_on,,,,,48,0,7,,,,,6,,,62,0
40944,note_on,,,,,48,0,2,,,,,1,,,69,0
40944,note_on,,,,,48,0,3,,,,,2,,,62,0
40944,note_on,,,,,16,0,4,,,,,3,,,76,110
40944,note_on,,,,,16,0,5,,,,,4,,,72,110
40944,note_on,,,,,48,0,6,,,,,5,,,69,0
40944,note_on,,,,,48,0,1,,,,,0,,,77,0
40976,note_on,,,,,32,0,5,,,,,4,,,72,0
40976,note_on,,,,,32,0,4,,,,,3,,,76,0
40992,note_on,,,,,16,0,4,,,,,3,,,74,110
40992,note_on,,,,,16,0,5,,,,,4,,,70,110
41024,note_on,,,,,32,0,5,,,,,4,,,70,0
41024,note_on,,,,,32,0,4,,,,,3,,,74,0
41040,note_on,,,,,16,0,5,,,,,4,,,69,110
41040,note_on,,,,,16,0,4,,,,,3,,,72,110
41072,note_on,,,,,32,0,5,,,,,4,,,69,0
41072,note_on,,,,,32,0,4,,,,,3,,,72,0
41088,note_on,,,,,16,0,5,,,,,4,,,67,110
41088,note_on,,,,,16,0,4,,,,,3,,,70,110
41120,note_on,,,,,32,0,5,,,,,4,,,67,0
41120,note_on,,,,,32,0,4,,,,,3,,,70,0
41184,note_on,,,,,240,0,2,,,,,1,,,70,110
41184,note_on,,,,,240,0,1,,,,,0,,,76,110
41184,note_on,,,,,240,0,7,,,,,6,,,55,110
41184,note_on,,,,,64,0,4,,,,,3,,,82,110
41184,note_on,,,,,240,0,3,,,,,2,,,55,110
41184,note_on,,,,,240,0,6,,,,,5,,,70,110
41184,note_on,,,,,64,0,5,,,,,4,,,74,110
41216,note_on,,,,,32,0,2,,,,,1,,,70,0
41216,note_on,,,,,32,0,3,,,,,2,,,55,0
41216,note_on,,,,,32,0,5,,,,,4,,,74,0
41216,note_on,,,,,32,0,7,,,,,6,,,55,0
41216,note_on,,,,,32,0,4,,,,,3,,,82,0
41216,note_on,,,,,32,0,6,,,,,5,,,70,0
41216,note_on,,,,,32,0,1,,,,,0,,,76,0
41232,note_on,,,,,16,0,4,,,,,3,,,81,110
41232,note_on,,,,,16,0,5,,,,,4,,,72,110
41264,note_on,,,,,32,0,4,,,,,3,,,81,0
41264,note_on,,,,,32,0,5,,,,,4,,,72,0
41280,note_on,,,,,64,0,6,,,,,5,,,70,110
41280,note_on,,,,,64,0,7,,,,,6,,,55,110
41280,note_on,,,,,16,0,5,,,,,4,,,70,110
41280,note_on,,,,,64,0,2,,,,,1,,,70,110
41280,note_on,,,,,16,0,4,,,,,3,,,79,110
41280,note_on,,,,,64,0,3,,,,,2,,,55,110
41280,note_on,,,,,64,0,1,,,,,0,,,76,110
41312,note_on,,,,,32,0,5,,,,,4,,,70,0
41312,note_on,,,,,32,0,4,,,,,3,,,79,0
41328,note_on,,,,,16,0,4,,,,,3,,,77,110
41328,note_on,,,,,48,0,2,,,,,1,,,70,0
41328,note_on,,,,,48,0,3,,,,,2,,,55,0
41328,note_on,,,,,16,0,5,,,,,4,,,69,110
41328,note_on,,,,,48,0,7,,,,,6,,,55,0
41328,note_on,,,,,48,0,6,,,,,5,,,70,0
41328,note_on,,,,,48,0,1,,,,,0,,,76,0
41360,note_on,,,,,32,0,4,,,,,3,,,77,0
41360,note_on,,,,,32,0,5,,,,,4,,,69,0
41376,note_on,,,,,16,0,4,,,,,3,,,76,110
41376,note_on,,,,,16,0,5,,,,,4,,,67,110
41408,note_on,,,,,32,0,4,,,,,3,,,76,0
41408,note_on,,,,,32,0,5,,,,,4,,,67,0
41424,note_on,,,,,16,0,5,,,,,4,,,65,110
41424,note_on,,,,,16,0,4,,,,,3,,,74,110
41456,note_on,,,,,32,0,4,,,,,3,,,74,0
41456,note_on,,,,,32,0,5,,,,,4,,,65,0
41472,note_on,,,,,144,0,7,,,,,6,,,57,110
41472,note_on,,,,,16,0,4,,,,,3,,,73,110
41472,note_on,,,,,144,0,6,,,,,5,,,69,110
41472,note_on,,,,,16,0,5,,,,,4,,,64,110
41520,note_on,,,,,48,0,4,,,,,3,,,73,0
41520,note_on,,,,,48,0,5,,,,,4,,,64,0
41520,note_on,,,,,48,0,6,,,,,5,,,69,0
41520,note_on,,,,,48,0,7,,,,,6,,,57,0
41568,note_on,,,,,240,0,3,,,,,2,,,57,110
41568,note_on,,,,,240,0,2,,,,,1,,,69,110
41568,note_on,,,,,240,0,1,,,,,0,,,76,110
41600,note_on,,,,,32,0,3,,,,,2,,,57,0
41600,note_on,,,,,32,0,1,,,,,0,,,76,0
41600,note_on,,,,,32,0,2,,,,,1,,,69,0
41664,note_on,,,,,64,0,2,,,,,1,,,76,110
41664,note_on,,,,,64,0,1,,,,,0,,,81,110
41664,note_on,,,,,64,0,3,,,,,2,,,61,110
41696,note_on,,,,,32,0,2,,,,,1,,,76,0
41696,note_on,,,,,32,0,3,,,,,2,,,61,0
41696,note_on,,,,,32,0,1,,,,,0,,,81,0
41760,note_on,,,,,64,0,3,,,,,2,,,57,110
41760,note_on,,,,,64,0,2,,,,,1,,,73,110
41760,note_on,,,,,64,0,1,,,,,0,,,81,110
41792,note_on,,,,,32,0,1,,,,,0,,,81,0
41792,note_on,,,,,32,0,3,,,,,2,,,57,0
41792,note_on,,,,,32,0,2,,,,,1,,,73,0
41856,note_on,,,,,64,0,3,,,,,2,,,62,110
41856,note_on,,,,,64,0,1,,,,,0,,,77,110
41856,note_on,,,,,64,0,2,,,,,1,,,74,110
41904,note_on,,,,,48,0,3,,,,,2,,,62,0
41904,note_on,,,,,48,0,1,,,,,0,,,77,0
41904,note_on,,,,,48,0,2,,,,,1,,,74,0
41952,note_on,,,,,432,0,4,,,,,3,,,81,110
41952,note_on,,,,,432,0,5,,,,,4,,,77,110
41952,note_on,,,,,432,0,6,,,,,5,,,69,110
41952,note_on,,,,,432,0,7,,,,,6,,,50,110
41984,note_on,,,,,32,0,4,,,,,3,,,81,0
41984,note_on,,,,,32,0,7,,,,,6,,,50,0
41984,note_on,,,,,32,0,6,,,,,5,,,69,0
41984,note_on,,,,,32,0,5,,,,,4,,,77,0
42048,note_on,,,,,64,0,7,,,,,6,,,53,110
42048,note_on,,,,,64,0,5,,,,,4,,,81,110
42048,note_on,,,,,64,0,4,,,,,3,,,86,110
42048,note_on,,,,,64,0,6,,,,,5,,,69,110
42080,note_on,,,,,32,0,7,,,,,6,,,53,0
42080,note_on,,,,,32,0,6,,,,,5,,,69,0
42080,note_on,,,,,32,0,4,,,,,3,,,86,0
42080,note_on,,,,,32,0,5,,,,,4,,,81,0
42144,note_on,,,,,64,0,6,,,,,5,,,69,110
42144,note_on,,,,,64,0,4,,,,,3,,,86,110
42144,note_on,,,,,64,0,7,,,,,6,,,50,110
42144,note_on,,,,,64,0,5,,,,,4,,,77,110
42176,note_on,,,,,32,0,6,,,,,5,,,69,0
42176,note_on,,,,,32,0,4,,,,,3,,,86,0
42176,note_on,,,,,32,0,7,,,,,6,,,50,0
42176,note_on,,,,,32,0,5,,,,,4,,,77,0
42240,note_on,,,,,64,0,6,,,,,5,,,69,110
42240,note_on,,,,,64,0,7,,,,,6,,,57,110
42240,note_on,,,,,64,0,5,,,,,4,,,76,110
42240,note_on,,,,,64,0,4,,,,,3,,,85,110
42288,note_on,,,,,48,0,7,,,,,6,,,57,0
42288,note_on,,,,,48,0,5,,,,,4,,,76,0
42288,note_on,,,,,48,0,6,,,,,5,,,69,0
42288,note_on,,,,,48,0,4,,,,,3,,,85,0
42336,note_on,,,,,432,0,1,,,,,0,,,76,110
42336,note_on,,,,,432,0,3,,,,,2,,,57,110
42336,note_on,,,,,432,0,2,,,,,1,,,73,110
42368,note_on,,,,,32,0,2,,,,,1,,,73,0
42368,note_on,,,,,32,0,1,,,,,0,,,76,0
42368,note_on,,,,,32,0,3,,,,,2,,,57,0
42432,note_on,,,,,64,0,3,,,,,2,,,61,110
42432,note_on,,,,,64,0,2,,,,,1,,,76,110
42432,note_on,,,,,64,0,1,,,,,0,,,81,110
42464,note_on,,,,,32,0,2,,,,,1,,,76,0
42464,note_on,,,,,32,0,1,,,,,0,,,81,0
42464,note_on,,,,,32,0,3,,,,,2,,,61,0
42528,note_on,,,,,64,0,2,,,,,1,,,73,110
42528,note_on,,,,,64,0,1,,,,,0,,,81,110
42528,note_on,,,,,64,0,3,,,,,2,,,57,110
42560,note_on,,,,,32,0,3,,,,,2,,,57,0
42560,note_on,,,,,32,0,2,,,,,1,,,73,0
42560,note_on,,,,,32,0,1,,,,,0,,,81,0
42624,note_on,,,,,64,0,2,,,,,1,,,74,110
42624,note_on,,,,,64,0,3,,,,,2,,,62,110
42624,note_on,,,,,64,0,1,,,,,0,,,77,110
42672,note_on,,,,,48,0,3,,,,,2,,,62,0
42672,note_on,,,,,48,0,2,,,,,1,,,74,0
42672,note_on,,,,,48,0,1,,,,,0,,,77,0
42720,note_on,,,,,432,0,4,,,,,3,,,69,110
42720,note_on,,,,,432,0,7,,,,,6,,,50,110
42720,note_on,,,,,432,0,6,,,,,5,,,57,110
42720,note_on,,,,,432,0,5,,,,,4,,,65,110
42752,note_on,,,,,32,0,4,,,,,3,,,69,0
42752,note_on,,,,,32,0,7,,,,,6,,,50,0
42752,note_on,,,,,32,0,6,,,,,5,,,57,0
42752,note_on,,,,,32,0,5,,,,,4,,,65,0
42816,note_on,,,,,64,0,7,,,,,6,,,53,110
42816,note_on,,,,,64,0,4,,,,,3,,,74,110
42816,note_on,,,,,64,0,6,,,,,5,,,57,110
42816,note_on,,,,,64,0,5,,,,,4,,,69,110
42848,note_on,,,,,32,0,5,,,,,4,,,69,0
42848,note_on,,,,,32,0,7,,,,,6,,,53,0
42848,note_on,,,,,32,0,4,,,,,3,,,74,0
42848,note_on,,,,,32,0,6,,,,,5,,,57,0
42912,note_on,,,,,64,0,6,,,,,5,,,57,110
42912,note_on,,,,,64,0,5,,,,,4,,,65,110
42912,note_on,,,,,64,0,4,,,,,3,,,74,110
42912,note_on,,,,,64,0,7,,,,,6,,,50,110
42944,note_on,,,,,32,0,4,,,,,3,,,74,0
42944,note_on,,,,,32,0,7,,,,,6,,,50,0
42944,note_on,,,,,32,0,6,,,,,5,,,57,0
42944,note_on,,,,,32,0,5,,,,,4,,,65,0
43008,note_on,,,,,64,0,4,,,,,3,,,70,110
43008,note_on,,,,,64,0,5,,,,,4,,,62,110
43008,note_on,,,,,64,0,7,,,,,6,,,55,110
43008,note_on,,,,,64,0,6,,,,,5,,,58,110
43056,note_on,,,,,48,0,4,,,,,3,,,70,0
43056,note_on,,,,,48,0,6,,,,,5,,,58,0
43056,note_on,,,,,48,0,5,,,,,4,,,62,0
43056,note_on,,,,,48,0,7,,,,,6,,,55,0
43104,note_on,,,,,432,0,1,,,,,0,,,74,110
43104,note_on,,,,,432,0,3,,,,,2,,,55,110
43104,note_on,,,,,432,0,2,,,,,1,,,70,110
43136,note_on,,,,,32,0,1,,,,,0,,,74,0
43136,note_on,,,,,32,0,2,,,,,1,,,70,0
43136,note_on,,,,,32,0,3,,,,,2,,,55,0
43200,note_on,,,,,64,0,1,,,,,0,,,79,110
43200,note_on,,,,,64,0,2,,,,,1,,,74,110
43200,note_on,,,,,64,0,3,,,,,2,,,58,110
43232,note_on,,,,,32,0,3,,,,,2,,,58,0
43232,note_on,,,,,32,0,1,,,,,0,,,79,0
43232,note_on,,,,,32,0,2,,,,,1,,,74,0
43296,note_on,,,,,64,0,3,,,,,2,,,55,110
43296,note_on,,,,,64,0,1,,,,,0,,,79,110
43296,note_on,,,,,64,0,2,,,,,1,,,70,110
43328,note_on,,,,,32,0,3,,,,,2,,,55,0
43328,note_on,,,,,32,0,2,,,,,1,,,70,0
43328,note_on,,,,,32,0,1,,,,,0,,,79,0
43392,note_on,,,,,64,0,1,,,,,0,,,76,110
43392,note_on,,,,,64,0,2,,,,,1,,,67,110
43392,note_on,,,,,64,0,3,,,,,2,,,60,110
43440,note_on,,,,,48,0,3,,,,,2,,,60,0
43440,note_on,,,,,48,0,2,,,,,1,,,67,0
43440,note_on,,,,,48,0,1,,,,,0,,,76,0
43488,note_on,,,,,432,0,5,,,,,4,,,76,110
43488,note_on,,,,,432,0,6,,,,,5,,,67,110
43488,note_on,,,,,432,0,4,,,,,3,,,79,110
43488,note_on,,,,,432,0,7,,,,,6,,,48,110
43520,note_on,,,,,32,0,5,,,,,4,,,76,0
43520,note_on,,,,,32,0,4,,,,,3,,,79,0
43520,note_on,,,,,32,0,6,,,,,5,,,67,0
43520,note_on,,,,,32,0,7,,,,,6,,,48,0
43584,note_on,,,,,64,0,7,,,,,6,,,52,110
43584,note_on,,,,,64,0,4,,,,,3,,,84,110
43584,note_on,,,,,64,0,6,,,,,5,,,67,110
43584,note_on,,,,,64,0,5,,,,,4,,,79,110
43616,note_on,,,,,32,0,4,,,,,3,,,84,0
43616,note_on,,,,,32,0,7,,,,,6,,,52,0
43616,note_on,,,,,32,0,6,,,,,5,,,67,0
43616,note_on,,,,,32,0,5,,,,,4,,,79,0
43680,note_on,,,,,64,0,6,,,,,5,,,67,110
43680,note_on,,,,,64,0,7,,,,,6,,,48,110
43680,note_on,,,,,64,0,4,,,,,3,,,84,110
43680,note_on,,,,,64,0,5,,,,,4,,,76,110
43712,note_on,,,,,32,0,6,,,,,5,,,67,0
43712,note_on,,,,,32,0,5,,,,,4,,,76,0
43712,note_on,,,,,32,0,7,,,,,6,,,48,0
43712,note_on,,,,,32,0,4,,,,,3,,,84,0
43776,note_on,,,,,64,0,5,,,,,4,,,77,110
43776,note_on,,,,,64,0,4,,,,,3,,,81,110
43776,note_on,,,,,64,0,6,,,,,5,,,69,110
43776,note_on,,,,,64,0,7,,,,,6,,,53,110
43824,note_on,,,,,48,0,4,,,,,3,,,81,0
43824,note_on,,,,,48,0,5,,,,,4,,,77,0
43824,note_on,,,,,48,0,6,,,,,5,,,69,0
43824,note_on,,,,,48,0,7,,,,,6,,,53,0
43872,note_on,,,,,432,0,2,,,,,1,,,65,110
43872,note_on,,,,,432,0,1,,,,,0,,,69,110
43872,note_on,,,,,432,0,3,,,,,2,,,50,110
43904,note_on,,,,,32,0,1,,,,,0,,,69,0
43904,note_on,,,,,32,0,2,,,,,1,,,65,0
43904,note_on,,,,,32,0,3,,,,,2,,,50,0
43968,note_on,,,,,64,0,3,,,,,2,,,53,110
43968,note_on,,,,,64,0,2,,,,,1,,,69,110
43968,note_on,,,,,64,0,1,,,,,0,,,74,110
44000,note_on,,,,,32,0,2,,,,,1,,,69,0
44000,note_on,,,,,32,0,1,,,,,0,,,74,0
44000,note_on,,,,,32,0,3,,,,,2,,,53,0
44064,note_on,,,,,64,0,2,,,,,1,,,65,110
44064,note_on,,,,,64,0,1,,,,,0,,,74,110
44064,note_on,,,,,64,0,3,,,,,2,,,50,110
44096,note_on,,,,,32,0,1,,,,,0,,,74,0
44096,note_on,,,,,32,0,2,,,,,1,,,65,0
44096,note_on,,,,,32,0,3,,,,,2,,,50,0
44160,note_on,,,,,64,0,1,,,,,0,,,74,110
44160,note_on,,,,,336,0,6,,,,,5,,,57,110
44160,note_on,,,,,336,0,5,,,,,4,,,64,110
44160,note_on,,,,,336,0,7,,,,,6,,,57,110
44160,note_on,,,,,336,0,4,,,,,3,,,69,110
44160,note_on,,,,,64,0,2,,,,,1,,,64,110
44160,note_on,,,,,64,0,3,,,,,2,,,57,110
44192,note_on,,,,,32,0,3,,,,,2,,,57,0
44192,note_on,,,,,32,0,1,,,,,0,,,74,0
44208,note_on,,,,,48,0,4,,,,,3,,,69,0
44208,note_on,,,,,48,0,2,,,,,1,,,64,0
44208,note_on,,,,,48,0,6,,,,,5,,,57,0
44208,note_on,,,,,48,0,5,,,,,4,,,64,0
44208,note_on,,,,,48,0,7,,,,,6,,,57,0
44256,note_on,,,,,64,0,3,,,,,2,,,45,110
44256,note_on,,,,,64,0,1,,,,,0,,,76,110
44288,note_on,,,,,32,0,1,,,,,0,,,76,0
44288,note_on,,,,,32,0,3,,,,,2,,,45,0
44304,note_on,,,,,16,0,1,,,,,0,,,74,110
44336,note_on,,,,,32,0,1,,,,,0,,,74,0
44352,note_on,,,,,16,0,1,,,,,0,,,73,110
44352,note_on,,,,,64,0,3,,,,,2,,,57,110
44384,note_on,,,,,32,0,1,,,,,0,,,73,0
44384,note_on,,,,,32,0,3,,,,,2,,,57,0
44400,note_on,,,,,16,0,1,,,,,0,,,74,110
44432,note_on,,,,,32,0,1,,,,,0,,,74,0
44448,note_on,,,,,16,0,1,,,,,0,,,76,110
44448,note_on,,,,,64,0,3,,,,,2,,,55,110
44480,note_on,,,,,32,0,3,,,,,2,,,55,0
44480,note_on,,,,,32,0,1,,,,,0,,,76,0
44496,note_on,,,,,16,0,1,,,,,0,,,73,110
44528,note_on,,,,,32,0,1,,,,,0,,,73,0
44544,note_on,,,,,16,0,1,,,,,0,,,69,110
44544,note_on,,,,,336,0,4,,,,,3,,,86,110
44544,note_on,,,,,64,0,3,,,,,2,,,53,110
44544,note_on,,,,,336,0,5,,,,,4,,,81,110
44544,note_on,,,,,336,0,7,,,,,6,,,53,110
44544,note_on,,,,,336,0,6,,,,,5,,,69,110
44576,note_on,,,,,32,0,3,,,,,2,,,53,0
44576,note_on,,,,,32,0,1,,,,,0,,,69,0
44592,note_on,,,,,48,0,7,,,,,6,,,53,0
44592,note_on,,,,,48,0,5,,,,,4,,,81,0
44592,note_on,,,,,48,0,6,,,,,5,,,69,0
44592,note_on,,,,,48,0,4,,,,,3,,,86,0
44640,note_on,,,,,432,0,2,,,,,1,,,69,110
44640,note_on,,,,,64,0,1,,,,,0,,,69,110
44640,note_on,,,,,64,0,3,,,,,2,,,52,110
44672,note_on,,,,,32,0,2,,,,,1,,,69,0
44672,note_on,,,,,32,0,3,,,,,2,,,52,0
44672,note_on,,,,,32,0,1,,,,,0,,,69,0
44736,note_on,,,,,64,0,1,,,,,0,,,77,110
44736,note_on,,,,,64,0,2,,,,,1,,,74,110
44736,note_on,,,,,64,0,3,,,,,2,,,53,110
44768,note_on,,,,,32,0,1,,,,,0,,,77,0
44768,note_on,,,,,32,0,2,,,,,1,,,74,0
44768,note_on,,,,,32,0,3,,,,,2,,,53,0
44832,note_on,,,,,64,0,2,,,,,1,,,74,110
44832,note_on,,,,,64,0,1,,,,,0,,,77,110
44832,note_on,,,,,64,0,3,,,,,2,,,55,110
44864,note_on,,,,,32,0,2,,,,,1,,,74,0
44864,note_on,,,,,32,0,3,,,,,2,,,55,0
44864,note_on,,,,,32,0,1,,,,,0,,,77,0
44928,note_on,,,,,336,0,7,,,,,6,,,57,110
44928,note_on,,,,,336,0,6,,,,,5,,,69,110
44928,note_on,,,,,64,0,3,,,,,2,,,57,110
44928,note_on,,,,,64,0,1,,,,,0,,,77,110
44928,note_on,,,,,64,0,2,,,,,1,,,74,110
44928,note_on,,,,,336,0,4,,,,,3,,,81,110
44928,note_on,,,,,336,0,5,,,,,4,,,69,110
44960,note_on,,,,,32,0,2,,,,,1,,,74,0
44960,note_on,,,,,32,0,3,,,,,2,,,57,0
44976,note_on,,,,,48,0,4,,,,,3,,,81,0
44976,note_on,,,,,48,0,7,,,,,6,,,57,0
44976,note_on,,,,,48,0,6,,,,,5,,,69,0
44976,note_on,,,,,48,0,5,,,,,4,,,69,0
44976,note_on,,,,,48,0,1,,,,,0,,,77,0
45024,note_on,,,,,64,0,2,,,,,1,,,76,110
45024,note_on,,,,,64,0,3,,,,,2,,,45,110
45056,note_on,,,,,32,0,2,,,,,1,,,76,0
45056,note_on,,,,,32,0,3,,,,,2,,,45,0
45072,note_on,,,,,16,0,2,,,,,1,,,74,110
45104,note_on,,,,,32,0,2,,,,,1,,,74,0
45120,note_on,,,,,16,0,2,,,,,1,,,73,110
45120,note_on,,,,,64,0,3,,,,,2,,,57,110
45120,note_on,,,,,144,0,1,,,,,0,,,76,110
45152,note_on,,,,,32,0,2,,,,,1,,,73,0
45152,note_on,,,,,32,0,3,,,,,2,,,57,0
45168,note_on,,,,,16,0,2,,,,,1,,,74,110
45168,note_on,,,,,48,0,1,,,,,0,,,76,0
45200,note_on,,,,,32,0,2,,,,,1,,,74,0
45216,note_on,,,,,64,0,3,,,,,2,,,55,110
45216,note_on,,,,,16,0,2,,,,,1,,,76,110
45248,note_on,,,,,32,0,3,,,,,2,,,55,0
45248,note_on,,,,,32,0,2,,,,,1,,,76,0
45264,note_on,,,,,16,0,2,,,,,1,,,73,110
45296,note_on,,,,,32,0,2,,,,,1,,,73,0
45312,note_on,,,,,144,0,1,,,,,0,,,81,110
45312,note_on,,,,,16,0,2,,,,,1,,,69,110
45312,note_on,,,,,64,0,3,,,,,2,,,53,110
45328,note_on,,,,,16,0,1,,,,,0,,,81,0
45336,note_on,,,,,8,0,1,,,,,0,,,82,110
45344,note_on,,,,,32,0,3,,,,,2,,,53,0
45344,note_on,,,,,32,0,2,,,,,1,,,69,0
45352,note_on,,,,,16,0,1,,,,,0,,,82,0
45360,note_on,,,,,8,0,1,,,,,0,,,81,110
45376,note_on,,,,,16,0,1,,,,,0,,,81,0
45384,note_on,,,,,8,0,1,,,,,0,,,82,110
45400,note_on,,,,,16,0,1,,,,,0,,,82,0
45408,note_on,,,,,432,0,6,,,,,5,,,64,110
45408,note_on,,,,,64,0,3,,,,,2,,,57,110
45408,note_on,,,,,432,0,5,,,,,4,,,61,110
45408,note_on,,,,,432,0,4,,,,,3,,,69,110
45408,note_on,,,,,64,0,2,,,,,1,,,76,110
45408,note_on,,,,,432,0,7,,,,,6,,,57,110
45408,note_on,,,,,8,0,1,,,,,0,,,81,110
45424,note_on,,,,,16,0,1,,,,,0,,,81,0
45432,note_on,,,,,8,0,1,,,,,0,,,82,110
45440,note_on,,,,,32,0,7,,,,,6,,,57,0
45440,note_on,,,,,32,0,2,,,,,1,,,76,0
45440,note_on,,,,,32,0,6,,,,,5,,,64,0
45440,note_on,,,,,32,0,5,,,,,4,,,61,0
45440,note_on,,,,,32,0,3,,,,,2,,,57,0
45440,note_on,,,,,32,0,4,,,,,3,,,69,0
45448,note_on,,,,,16,0,1,,,,,0,,,82,0
45456,note_on,,,,,8,0,1,,,,,0,,,81,110
45472,note_on,,,,,16,0,1,,,,,0,,,81,0
45480,note_on,,,,,8,0,1,,,,,0,,,82,110
45496,note_on,,,,,16,0,1,,,,,0,,,82,0
45504,note_on,,,,,64,0,4,,,,,3,,,74,110
45504,note_on,,,,,64,0,2,,,,,1,,,77,110
45504,note_on,,,,,64,0,5,,,,,4,,,69,110
45504,note_on,,,,,8,0,1,,,,,0,,,81,110
45504,note_on,,,,,64,0,7,,,,,6,,,53,110
45504,note_on,,,,,64,0,3,,,,,2,,,53,110
45504,note_on,,,,,64,0,6,,,,,5,,,62,110
45520,note_on,,,,,16,0,1,,,,,0,,,81,0
45528,note_on,,,,,8,0,1,,,,,0,,,82,110
45536,note_on,,,,,32,0,3,,,,,2,,,53,0
45536,note_on,,,,,32,0,7,,,,,6,,,53,0
45536,note_on,,,,,32,0,4,,,,,3,,,74,0
45536,note_on,,,,,32,0,2,,,,,1,,,77,0
45544,note_on,,,,,16,0,1,,,,,0,,,82,0
45552,note_on,,,,,48,0,6,,,,,5,,,62,0
45552,note_on,,,,,8,0,1,,,,,0,,,81,110
45552,note_on,,,,,48,0,5,,,,,4,,,69,0
45568,note_on,,,,,16,0,1,,,,,0,,,81,0
45576,note_on,,,,,8,0,1,,,,,0,,,82,110
45592,note_on,,,,,16,0,1,,,,,0,,,82,0
45600,note_on,,,,,64,0,3,,,,,2,,,50,110
45600,note_on,,,,,64,0,2,,,,,1,,,77,110
45600,note_on,,,,,64,0,7,,,,,6,,,50,110
45600,note_on,,,,,8,0,1,,,,,0,,,81,110
45600,note_on,,,,,64,0,4,,,,,3,,,74,110
45616,note_on,,,,,16,0,1,,,,,0,,,81,0
45624,note_on,,,,,8,0,1,,,,,0,,,82,110
45632,note_on,,,,,32,0,2,,,,,1,,,77,0
45632,note_on,,,,,32,0,4,,,,,3,,,74,0
45632,note_on,,,,,32,0,7,,,,,6,,,50,0
45632,note_on,,,,,32,0,3,,,,,2,,,50,0
45640,note_on,,,,,16,0,1,,,,,0,,,82,0
45648,note_on,,,,,8,0,1,,,,,0,,,81,110
45664,note_on,,,,,16,0,1,,,,,0,,,81,0
45672,note_on,,,,,8,0,1,,,,,0,,,82,110
45688,note_on,,,,,16,0,1,,,,,0,,,82,0
45696,note_on,,,,,64,0,4,,,,,3,,,74,110
45696,note_on,,,,,64,0,7,,,,,6,,,57,110
45696,note_on,,,,,8,0,1,,,,,0,,,81,110
45696,note_on,,,,,64,0,2,,,,,1,,,77,110
45712,note_on,,,,,16,0,1,,,,,0,,,81,0
45720,note_on,,,,,8,0,1,,,,,0,,,82,110
45728,note_on,,,,,32,0,4,,,,,3,,,74,0
45728,note_on,,,,,32,0,7,,,,,6,,,57,0
45736,note_on,,,,,16,0,1,,,,,0,,,82,0
45744,note_on,,,,,48,0,2,,,,,1,,,77,0
45744,note_on,,,,,8,0,1,,,,,0,,,81,110
45760,note_on,,,,,16,0,1,,,,,0,,,81,0
45768,note_on,,,,,8,0,1,,,,,0,,,82,110
45784,note_on,,,,,16,0,1,,,,,0,,,82,0
45792,note_on,,,,,160,0,3,,,,,2,,,57,110
45792,note_on,,,,,64,0,4,,,,,3,,,76,110
45792,note_on,,,,,240,0,6,,,,,5,,,65,110
45792,note_on,,,,,8,0,1,,,,,0,,,81,110
45792,note_on,,,,,64,0,7,,,,,6,,,45,110
45792,note_on,,,,,240,0,5,,,,,4,,,57,110
45808,note_on,,,,,16,0,1,,,,,0,,,81,0
45816,note_on,,,,,8,0,1,,,,,0,,,82,110
45824,note_on,,,,,32,0,3,,,,,2,,,57,0
45824,note_on,,,,,32,0,6,,,,,5,,,65,0
45824,note_on,,,,,32,0,5,,,,,4,,,57,0
45824,note_on,,,,,32,0,7,,,,,6,,,45,0
45824,note_on,,,,,32,0,4,,,,,3,,,76,0
45832,note_on,,,,,16,0,1,,,,,0,,,82,0
45840,note_on,,,,,16,0,4,,,,,3,,,74,110
45840,note_on,,,,,8,0,1,,,,,0,,,81,110
45856,note_on,,,,,16,0,1,,,,,0,,,81,0
45864,note_on,,,,,8,0,1,,,,,0,,,82,110
45872,note_on,,,,,32,0,4,,,,,3,,,74,0
45880,note_on,,,,,16,0,1,,,,,0,,,82,0
45888,note_on,,,,,64,0,3,,,,,2,,,64,110
45888,note_on,,,,,16,0,4,,,,,3,,,73,110
45888,note_on,,,,,64,0,7,,,,,6,,,57,110
45888,note_on,,,,,144,0,2,,,,,1,,,76,110
45888,note_on,,,,,64,0,6,,,,,5,,,69,110
45888,note_on,,,,,8,0,1,,,,,0,,,81,110
45888,note_on,,,,,64,0,5,,,,,4,,,64,110
45904,note_on,,,,,16,0,1,,,,,0,,,81,0
45912,note_on,,,,,8,0,1,,,,,0,,,82,110
45920,note_on,,,,,32,0,7,,,,,6,,,57,0
45920,note_on,,,,,32,0,6,,,,,5,,,69,0
45920,note_on,,,,,32,0,4,,,,,3,,,73,0
45920,note_on,,,,,32,0,3,,,,,2,,,64,0
45920,note_on,,,,,32,0,5,,,,,4,,,64,0
45928,note_on,,,,,16,0,1,,,,,0,,,82,0
45936,note_on,,,,,48,0,2,,,,,1,,,76,0
45936,note_on,,,,,16,0,4,,,,,3,,,74,110
45936,note_on,,,,,8,0,1,,,,,0,,,81,110
45952,note_on,,,,,16,0,1,,,,,0,,,81,0
45960,note_on,,,,,8,0,1,,,,,0,,,82,110
45968,note_on,,,,,32,0,4,,,,,3,,,74,0
45976,note_on,,,,,16,0,1,,,,,0,,,82,0
45984,note_on,,,,,64,0,3,,,,,2,,,64,110
45984,note_on,,,,,16,0,4,,,,,3,,,76,110
45984,note_on,,,,,64,0,7,,,,,6,,,55,110
45984,note_on,,,,,64,0,6,,,,,5,,,69,110
45984,note_on,,,,,64,0,5,,,,,4,,,64,110
45984,note_on,,,,,8,0,1,,,,,0,,,81,110
46000,note_on,,,,,16,0,1,,,,,0,,,81,0
46008,note_on,,,,,8,0,1,,,,,0,,,82,110
46016,note_on,,,,,32,0,3,,,,,2,,,64,0
46016,note_on,,,,,32,0,7,,,,,6,,,55,0
46016,note_on,,,,,32,0,4,,,,,3,,,76,0
46016,note_on,,,,,32,0,6,,,,,5,,,69,0
46016,note_on,,,,,32,0,5,,,,,4,,,64,0
46024,note_on,,,,,16,0,1,,,,,0,,,82,0
46032,note_on,,,,,8,0,1,,,,,0,,,81,110
46032,note_on,,,,,16,0,4,,,,,3,,,73,110
46048,note_on,,,,,16,0,1,,,,,0,,,81,0
46056,note_on,,,,,8,0,1,,,,,0,,,82,110
46064,note_on,,,,,32,0,4,,,,,3,,,73,0
46072,note_on,,,,,16,0,1,,,,,0,,,82,0
46080,note_on,,,,,64,0,3,,,,,2,,,64,110
46080,note_on,,,,,8,0,1,,,,,0,,,81,110
46080,note_on,,,,,16,0,4,,,,,3,,,69,110
46080,note_on,,,,,64,0,6,,,,,5,,,69,110
46080,note_on,,,,,64,0,7,,,,,6,,,53,110
46080,note_on,,,,,64,0,5,,,,,4,,,64,110
46112,note_on,,,,,32,0,1,,,,,0,,,81,0
46112,note_on,,,,,32,0,7,,,,,6,,,53,0
46112,note_on,,,,,32,0,4,,,,,3,,,69,0
46112,note_on,,,,,32,0,3,,,,,2,,,64,0
46112,note_on,,,,,32,0,5,,,,,4,,,64,0
46112,note_on,,,,,32,0,6,,,,,5,,,69,0
46176,note_on,,,,,64,0,7,,,,,6,,,57,110
46176,note_on,,,,,64,0,5,,,,,4,,,65,110
46176,note_on,,,,,64,0,4,,,,,3,,,69,110
46176,note_on,,,,,64,0,1,,,,,0,,,69,110
46176,note_on,,,,,64,0,6,,,,,5,,,69,110
46176,note_on,,,,,64,0,3,,,,,2,,,65,110
46176,note_on,,,,,240,0,2,,,,,1,,,73,110
46208,note_on,,,,,32,0,4,,,,,3,,,69,0
46208,note_on,,,,,32,0,6,,,,,5,,,69,0
46208,note_on,,,,,32,0,2,,,,,1,,,73,0
46208,note_on,,,,,32,0,7,,,,,6,,,57,0
46208,note_on,,,,,32,0,1,,,,,0,,,69,0
46208,note_on,,,,,32,0,3,,,,,2,,,65,0
46208,note_on,,,,,32,0,5,,,,,4,,,65,0
46224,note_on,,,,,16,0,5,,,,,4,,,64,110
46224,note_on,,,,,16,0,3,,,,,2,,,64,110
46256,note_on,,,,,32,0,5,,,,,4,,,64,0
46256,note_on,,,,,32,0,3,,,,,2,,,64,0
46272,note_on,,,,,16,0,5,,,,,4,,,62,110
46272,note_on,,,,,64,0,2,,,,,1,,,74,110
46272,note_on,,,,,64,0,7,,,,,6,,,50,110
46272,note_on,,,,,64,0,4,,,,,3,,,77,110
46272,note_on,,,,,64,0,6,,,,,5,,,69,110
46272,note_on,,,,,16,0,3,,,,,2,,,62,110
46272,note_on,,,,,64,0,1,,,,,0,,,77,110
46304,note_on,,,,,32,0,2,,,,,1,,,74,0
46304,note_on,,,,,32,0,3,,,,,2,,,62,0
46304,note_on,,,,,32,0,7,,,,,6,,,50,0
46304,note_on,,,,,32,0,4,,,,,3,,,77,0
46304,note_on,,,,,32,0,6,,,,,5,,,69,0
46304,note_on,,,,,32,0,5,,,,,4,,,62,0
46304,note_on,,,,,32,0,1,,,,,0,,,77,0
46320,note_on,,,,,16,0,3,,,,,2,,,64,110
46320,note_on,,,,,16,0,5,,,,,4,,,64,110
46352,note_on,,,,,32,0,5,,,,,4,,,64,0
46352,note_on,,,,,32,0,3,,,,,2,,,64,0
46368,note_on,,,,,64,0,4,,,,,3,,,77,110
46368,note_on,,,,,16,0,3,,,,,2,,,65,110
46368,note_on,,,,,64,0,7,,,,,6,,,62,110
46368,note_on,,,,,64,0,1,,,,,0,,,77,110
46368,note_on,,,,,16,0,5,,,,,4,,,65,110
46368,note_on,,,,,64,0,2,,,,,1,,,69,110
46368,note_on,,,,,64,0,6,,,,,5,,,69,110
46400,note_on,,,,,32,0,1,,,,,0,,,77,0
46400,note_on,,,,,32,0,2,,,,,1,,,69,0
46400,note_on,,,,,32,0,7,,,,,6,,,62,0
46400,note_on,,,,,32,0,6,,,,,5,,,69,0
46400,note_on,,,,,32,0,5,,,,,4,,,65,0
46400,note_on,,,,,32,0,4,,,,,3,,,77,0
46400,note_on,,,,,32,0,3,,,,,2,,,65,0
46416,note_on,,,,,16,0,3,,,,,2,,,62,110
46416,note_on,,,,,16,0,5,,,,,4,,,62,110
46448,note_on,,,,,32,0,5,,,,,4,,,62,0
46448,note_on,,,,,32,0,3,,,,,2,,,62,0
46464,note_on,,,,,16,0,3,,,,,2,,,58,110
46464,note_on,,,,,16,0,5,,,,,4,,,58,110
46464,note_on,,,,,64,0,4,,,,,3,,,77,110
46464,note_on,,,,,64,0,7,,,,,6,,,55,110
46464,note_on,,,,,64,0,2,,,,,1,,,70,110
46464,note_on,,,,,64,0,1,,,,,0,,,77,110
46464,note_on,,,,,64,0,6,,,,,5,,,67,110
46496,note_on,,,,,32,0,5,,,,,4,,,58,0
46496,note_on,,,,,32,0,6,,,,,5,,,67,0
46496,note_on,,,,,32,0,7,,,,,6,,,55,0
46496,note_on,,,,,32,0,4,,,,,3,,,77,0
46496,note_on,,,,,32,0,2,,,,,1,,,70,0
46496,note_on,,,,,32,0,3,,,,,2,,,58,0
46496,note_on,,,,,32,0,1,,,,,0,,,77,0
46560,note_on,,,,,64,0,6,,,,,5,,,67,110
46560,note_on,,,,,64,0,3,,,,,2,,,55,110
46560,note_on,,,,,64,0,2,,,,,1,,,70,110
46560,note_on,,,,,64,0,4,,,,,3,,,79,110
46560,note_on,,,,,64,0,7,,,,,6,,,55,110
46560,note_on,,,,,64,0,1,,,,,0,,,79,110
46560,note_on,,,,,64,0,5,,,,,4,,,70,110
46592,note_on,,,,,32,0,6,,,,,5,,,67,0
46592,note_on,,,,,32,0,1,,,,,0,,,79,0
46592,note_on,,,,,32,0,4,,,,,3,,,79,0
46592,note_on,,,,,32,0,7,,,,,6,,,55,0
46592,note_on,,,,,32,0,5,,,,,4,,,70,0
46592,note_on,,,,,32,0,2,,,,,1,,,70,0
46592,note_on,,,,,32,0,3,,,,,2,,,55,0
46608,note_on,,,,,16,0,4,,,,,3,,,77,110
46608,note_on,,,,,16,0,1,,,,,0,,,77,110
46640,note_on,,,,,32,0,1,,,,,0,,,77,0
46640,note_on,,,,,32,0,4,,,,,3,,,77,0
46656,note_on,,,,,64,0,3,,,,,2,,,58,110
46656,note_on,,,,,64,0,7,,,,,6,,,58,110
46656,note_on,,,,,16,0,1,,,,,0,,,76,110
46656,note_on,,,,,64,0,2,,,,,1,,,70,110
46656,note_on,,,,,16,0,4,,,,,3,,,76,110
46656,note_on,,,,,64,0,5,,,,,4,,,70,110
46656,note_on,,,,,64,0,6,,,,,5,,,67,110
46688,note_on,,,,,32,0,6,,,,,5,,,67,0
46688,note_on,,,,,32,0,3,,,,,2,,,58,0
46688,note_on,,,,,32,0,7,,,,,6,,,58,0
46688,note_on,,,,,32,0,5,,,,,4,,,70,0
46688,note_on,,,,,32,0,1,,,,,0,,,76,0
46688,note_on,,,,,32,0,2,,,,,1,,,70,0
46688,note_on,,,,,32,0,4,,,,,3,,,76,0
46704,note_on,,,,,16,0,1,,,,,0,,,77,110
46704,note_on,,,,,16,0,4,,,,,3,,,77,110
46736,note_on,,,,,32,0,4,,,,,3,,,77,0
46736,note_on,,,,,32,0,1,,,,,0,,,77,0
46752,note_on,,,,,16,0,1,,,,,0,,,79,110
46752,note_on,,,,,64,0,6,,,,,5,,,67,110
46752,note_on,,,,,64,0,7,,,,,6,,,55,110
46752,note_on,,,,,64,0,5,,,,,4,,,70,110
46752,note_on,,,,,64,0,3,,,,,2,,,55,110
46752,note_on,,,,,64,0,2,,,,,1,,,70,110
46752,note_on,,,,,16,0,4,,,,,3,,,79,110
46784,note_on,,,,,32,0,7,,,,,6,,,55,0
46784,note_on,,,,,32,0,2,,,,,1,,,70,0
46784,note_on,,,,,32,0,3,,,,,2,,,55,0
46784,note_on,,,,,32,0,6,,,,,5,,,67,0
46784,note_on,,,,,32,0,1,,,,,0,,,79,0
46784,note_on,,,,,32,0,5,,,,,4,,,70,0
46784,note_on,,,,,32,0,4,,,,,3,,,79,0
46800,note_on,,,,,16,0,4,,,,,3,,,76,110
46800,note_on,,,,,16,0,1,,,,,0,,,76,110
46832,note_on,,,,,32,0,4,,,,,3,,,76,0
46832,note_on,,,,,32,0,1,,,,,0,,,76,0
46848,note_on,,,,,64,0,2,,,,,1,,,69,110
46848,note_on,,,,,64,0,6,,,,,5,,,64,110
46848,note_on,,,,,64,0,7,,,,,6,,,57,110
46848,note_on,,,,,16,0,4,,,,,3,,,73,110
46848,note_on,,,,,64,0,5,,,,,4,,,69,110
46848,note_on,,,,,64,0,3,,,,,2,,,57,110
46848,note_on,,,,,16,0,1,,,,,0,,,73,110
46880,note_on,,,,,32,0,1,,,,,0,,,73,0
46880,note_on,,,,,32,0,2,,,,,1,,,69,0
46880,note_on,,,,,32,0,3,,,,,2,,,57,0
46880,note_on,,,,,32,0,4,,,,,3,,,73,0
46880,note_on,,,,,32,0,5,,,,,4,,,69,0
46880,note_on,,,,,32,0,6,,,,,5,,,64,0
46880,note_on,,,,,32,0,7,,,,,6,,,57,0
46944,note_on,,,,,64,0,1,,,,,0,,,69,110
46944,note_on,,,,,64,0,4,,,,,3,,,69,110
46944,note_on,,,,,64,0,2,,,,,1,,,76,110
46944,note_on,,,,,64,0,5,,,,,4,,,76,110
46944,note_on,,,,,64,0,3,,,,,2,,,57,110
46944,note_on,,,,,64,0,6,,,,,5,,,64,110
46944,note_on,,,,,64,0,7,,,,,6,,,57,110
46976,note_on,,,,,32,0,7,,,,,6,,,57,0
46976,note_on,,,,,32,0,2,,,,,1,,,76,0
46976,note_on,,,,,32,0,5,,,,,4,,,76,0
46976,note_on,,,,,32,0,4,,,,,3,,,69,0
46976,note_on,,,,,32,0,1,,,,,0,,,69,0
46976,note_on,,,,,32,0,3,,,,,2,,,57,0
46976,note_on,,,,,32,0,6,,,,,5,,,64,0
46992,note_on,,,,,16,0,3,,,,,2,,,55,110
46992,note_on,,,,,16,0,7,,,,,6,,,55,110
47024,note_on,,,,,32,0,7,,,,,6,,,55,0
47024,note_on,,,,,32,0,3,,,,,2,,,55,0
47040,note_on,,,,,16,0,7,,,,,6,,,53,110
47040,note_on,,,,,64,0,4,,,,,3,,,81,110
47040,note_on,,,,,64,0,6,,,,,5,,,62,110
47040,note_on,,,,,64,0,2,,,,,1,,,77,110
47040,note_on,,,,,16,0,3,,,,,2,,,53,110
47040,note_on,,,,,64,0,1,,,,,0,,,81,110
47040,note_on,,,,,64,0,5,,,,,4,,,77,110
47072,note_on,,,,,32,0,4,,,,,3,,,81,0
47072,note_on,,,,,32,0,5,,,,,4,,,77,0
47072,note_on,,,,,32,0,3,,,,,2,,,53,0
47072,note_on,,,,,32,0,1,,,,,0,,,81,0
47072,note_on,,,,,32,0,2,,,,,1,,,77,0
47072,note_on,,,,,32,0,7,,,,,6,,,53,0
47072,note_on,,,,,32,0,6,,,,,5,,,62,0
47088,note_on,,,,,16,0,3,,,,,2,,,55,110
47088,note_on,,,,,16,0,7,,,,,6,,,55,110
47120,note_on,,,,,32,0,7,,,,,6,,,55,0
47120,note_on,,,,,32,0,3,,,,,2,,,55,0
47136,note_on,,,,,64,0,5,,,,,4,,,73,110
47136,note_on,,,,,64,0,2,,,,,1,,,73,110
47136,note_on,,,,,16,0,3,,,,,2,,,57,110
47136,note_on,,,,,16,0,7,,,,,6,,,57,110
47136,note_on,,,,,64,0,6,,,,,5,,,69,110
47136,note_on,,,,,64,0,1,,,,,0,,,81,110
47136,note_on,,,,,64,0,4,,,,,3,,,81,110
47168,note_on,,,,,32,0,6,,,,,5,,,69,0
47168,note_on,,,,,32,0,1,,,,,0,,,81,0
47168,note_on,,,,,32,0,5,,,,,4,,,73,0
47168,note_on,,,,,32,0,3,,,,,2,,,57,0
47168,note_on,,,,,32,0,2,,,,,1,,,73,0
47168,note_on,,,,,32,0,7,,,,,6,,,57,0
47168,note_on,,,,,32,0,4,,,,,3,,,81,0
47184,note_on,,,,,16,0,7,,,,,6,,,53,110
47184,note_on,,,,,16,0,3,,,,,2,,,53,110
47216,note_on,,,,,32,0,7,,,,,6,,,53,0
47216,note_on,,,,,32,0,3,,,,,2,,,53,0
47232,note_on,,,,,16,0,7,,,,,6,,,58,110
47232,note_on,,,,,64,0,5,,,,,4,,,74,110
47232,note_on,,,,,64,0,1,,,,,0,,,74,110
47232,note_on,,,,,64,0,6,,,,,5,,,65,110
47232,note_on,,,,,16,0,3,,,,,2,,,58,110
47232,note_on,,,,,64,0,2,,,,,1,,,74,110
47232,note_on,,,,,64,0,4,,,,,3,,,74,110
47264,note_on,,,,,32,0,1,,,,,0,,,74,0
47264,note_on,,,,,32,0,6,,,,,5,,,65,0
47264,note_on,,,,,32,0,4,,,,,3,,,74,0
47264,note_on,,,,,32,0,5,,,,,4,,,74,0
47264,note_on,,,,,32,0,7,,,,,6,,,58,0
47264,note_on,,,,,32,0,2,,,,,1,,,74,0
47264,note_on,,,,,32,0,3,,,,,2,,,58,0
47328,note_on,,,,,64,0,4,,,,,3,,,74,110
47328,note_on,,,,,64,0,3,,,,,2,,,55,110
47328,note_on,,,,,64,0,2,,,,,1,,,70,110
47328,note_on,,,,,64,0,1,,,,,0,,,74,110
47328,note_on,,,,,64,0,5,,,,,4,,,70,110
47328,note_on,,,,,64,0,6,,,,,5,,,67,110
47328,note_on,,,,,64,0,7,,,,,6,,,55,110
47360,note_on,,,,,32,0,6,,,,,5,,,67,0
47360,note_on,,,,,32,0,2,,,,,1,,,70,0
47360,note_on,,,,,32,0,5,,,,,4,,,70,0
47360,note_on,,,,,32,0,1,,,,,0,,,74,0
47360,note_on,,,,,32,0,4,,,,,3,,,74,0
47360,note_on,,,,,32,0,7,,,,,6,,,55,0
47360,note_on,,,,,32,0,3,,,,,2,,,55,0
47376,note_on,,,,,16,0,7,,,,,6,,,53,110
47376,note_on,,,,,16,0,3,,,,,2,,,53,110
47408,note_on,,,,,32,0,7,,,,,6,,,53,0
47408,note_on,,,,,32,0,3,,,,,2,,,53,0
47424,note_on,,,,,16,0,7,,,,,6,,,52,110
47424,note_on,,,,,64,0,1,,,,,0,,,79,110
47424,note_on,,,,,64,0,5,,,,,4,,,67,110
47424,note_on,,,,,64,0,4,,,,,3,,,79,110
47424,note_on,,,,,64,0,6,,,,,5,,,70,110
47424,note_on,,,,,16,0,3,,,,,2,,,52,110
47424,note_on,,,,,64,0,2,,,,,1,,,67,110
47456,note_on,,,,,32,0,3,,,,,2,,,52,0
47456,note_on,,,,,32,0,2,,,,,1,,,67,0
47456,note_on,,,,,32,0,1,,,,,0,,,79,0
47456,note_on,,,,,32,0,7,,,,,6,,,52,0
47456,note_on,,,,,32,0,4,,,,,3,,,79,0
47456,note_on,,,,,32,0,6,,,,,5,,,70,0
47456,note_on,,,,,32,0,5,,,,,4,,,67,0
47472,note_on,,,,,16,0,7,,,,,6,,,53,110
47472,note_on,,,,,16,0,3,,,,,2,,,53,110
47504,note_on,,,,,32,0,7,,,,,6,,,53,0
47504,note_on,,,,,32,0,3,,,,,2,,,53,0
47520,note_on,,,,,16,0,3,,,,,2,,,55,110
47520,note_on,,,,,64,0,5,,,,,4,,,64,110
47520,note_on,,,,,64,0,6,,,,,5,,,70,110
47520,note_on,,,,,16,0,7,,,,,6,,,55,110
47520,note_on,,,,,64,0,2,,,,,1,,,64,110
47520,note_on,,,,,64,0,4,,,,,3,,,79,110
47520,note_on,,,,,64,0,1,,,,,0,,,79,110
47552,note_on,,,,,32,0,5,,,,,4,,,64,0
47552,note_on,,,,,32,0,6,,,,,5,,,70,0
47552,note_on,,,,,32,0,4,,,,,3,,,79,0
47552,note_on,,,,,32,0,2,,,,,1,,,64,0
47552,note_on,,,,,32,0,1,,,,,0,,,79,0
47552,note_on,,,,,32,0,3,,,,,2,,,55,0
47552,note_on,,,,,32,0,7,,,,,6,,,55,0
47568,note_on,,,,,16,0,7,,,,,6,,,52,110
47568,note_on,,,,,16,0,3,,,,,2,,,52,110
47600,note_on,,,,,32,0,3,,,,,2,,,52,0
47600,note_on,,,,,32,0,7,,,,,6,,,52,0
47616,note_on,,,,,64,0,1,,,,,0,,,79,110
47616,note_on,,,,,64,0,5,,,,,4,,,73,110
47616,note_on,,,,,16,0,7,,,,,6,,,57,110
47616,note_on,,,,,64,0,4,,,,,3,,,79,110
47616,note_on,,,,,16,0,3,,,,,2,,,57,110
47616,note_on,,,,,64,0,2,,,,,1,,,73,110
47616,note_on,,,,,64,0,6,,,,,5,,,69,110
47648,note_on,,,,,32,0,6,,,,,5,,,69,0
47648,note_on,,,,,32,0,4,,,,,3,,,79,0
47648,note_on,,,,,32,0,2,,,,,1,,,73,0
47648,note_on,,,,,32,0,5,,,,,4,,,73,0
47648,note_on,,,,,32,0,7,,,,,6,,,57,0
47648,note_on,,,,,32,0,3,,,,,2,,,57,0
47648,note_on,,,,,32,0,1,,,,,0,,,79,0
47712,note_on,,,,,64,0,6,,,,,5,,,64,110
47712,note_on,,,,,64,0,5,,,,,4,,,69,110
47712,note_on,,,,,64,0,7,,,,,6,,,49,110
47712,note_on,,,,,64,0,4,,,,,3,,,81,110
47712,note_on,,,,,64,0,3,,,,,2,,,49,110
47712,note_on,,,,,64,0,1,,,,,0,,,81,110
47712,note_on,,,,,64,0,2,,,,,1,,,69,110
47744,note_on,,,,,32,0,3,,,,,2,,,49,0
47744,note_on,,,,,32,0,6,,,,,5,,,64,0
47744,note_on,,,,,32,0,4,,,,,3,,,81,0
47744,note_on,,,,,32,0,2,,,,,1,,,69,0
47744,note_on,,,,,32,0,1,,,,,0,,,81,0
47744,note_on,,,,,32,0,5,,,,,4,,,69,0
47744,note_on,,,,,32,0,7,,,,,6,,,49,0
47808,note_on,,,,,64,0,2,,,,,1,,,74,110
47808,note_on,,,,,64,0,3,,,,,2,,,50,110
47808,note_on,,,,,64,0,1,,,,,0,,,77,110
47808,note_on,,,,,64,0,4,,,,,3,,,77,110
47808,note_on,,,,,64,0,5,,,,,4,,,74,110
47808,note_on,,,,,64,0,7,,,,,6,,,50,110
47808,note_on,,,,,64,0,6,,,,,5,,,65,110
47840,note_on,,,,,32,0,6,,,,,5,,,65,0
47840,note_on,,,,,32,0,1,,,,,0,,,77,0
47840,note_on,,,,,32,0,7,,,,,6,,,50,0
47840,note_on,,,,,32,0,3,,,,,2,,,50,0
47840,note_on,,,,,32,0,5,,,,,4,,,74,0
47840,note_on,,,,,32,0,2,,,,,1,,,74,0
47840,note_on,,,,,32,0,4,,,,,3,,,77,0
47904,note_on,,,,,64,0,2,,,,,1,,,74,110
47904,note_on,,,,,64,0,1,,,,,0,,,76,110
47904,note_on,,,,,64,0,6,,,,,5,,,70,110
47904,note_on,,,,,64,0,5,,,,,4,,,74,110
47904,note_on,,,,,64,0,3,,,,,2,,,43,110
47904,note_on,,,,,64,0,7,,,,,6,,,43,110
47904,note_on,,,,,64,0,4,,,,,3,,,76,110
47936,note_on,,,,,32,0,6,,,,,5,,,70,0
47936,note_on,,,,,32,0,1,,,,,0,,,76,0
47936,note_on,,,,,32,0,5,,,,,4,,,74,0
47936,note_on,,,,,32,0,3,,,,,2,,,43,0
47936,note_on,,,,,32,0,2,,,,,1,,,74,0
47936,note_on,,,,,32,0,7,,,,,6,,,43,0
47936,note_on,,,,,32,0,4,,,,,3,,,76,0
48000,note_on,,,,,64,0,3,,,,,2,,,45,110
48000,note_on,,,,,64,0,7,,,,,6,,,45,110
48000,note_on,,,,,64,0,6,,,,,5,,,69,110
48000,note_on,,,,,64,0,2,,,,,1,,,74,110
48000,note_on,,,,,64,0,5,,,,,4,,,74,110
48000,note_on,,,,,64,0,4,,,,,3,,,77,110
48000,note_on,,,,,64,0,1,,,,,0,,,77,110
48032,note_on,,,,,32,0,7,,,,,6,,,45,0
48032,note_on,,,,,32,0,3,,,,,2,,,45,0
48048,note_on,,,,,48,0,1,,,,,0,,,77,0
48048,note_on,,,,,48,0,6,,,,,5,,,69,0
48048,note_on,,,,,48,0,5,,,,,4,,,74,0
48048,note_on,,,,,48,0,4,,,,,3,,,77,0
48048,note_on,,,,,48,0,2,,,,,1,,,74,0
48096,note_on,,,,,64,0,3,,,,,2,,,55,110
48096,note_on,,,,,64,0,7,,,,,6,,,55,110
48128,note_on,,,,,32,0,3,,,,,2,,,55,0
48128,note_on,,,,,32,0,7,,,,,6,,,55,0
48192,note_on,,,,,64,0,7,,,,,6,,,57,110
48192,note_on,,,,,144,0,1,,,,,0,,,76,110
48192,note_on,,,,,64,0,3,,,,,2,,,57,110
48192,note_on,,,,,144,0,5,,,,,4,,,73,110
48192,note_on,,,,,144,0,6,,,,,5,,,69,110
48192,note_on,,,,,144,0,4,,,,,3,,,76,110
48192,note_on,,,,,144,0,2,,,,,1,,,73,110
48208,note_on,,,,,16,0,4,,,,,3,,,76,0
48208,note_on,,,,,16,0,1,,,,,0,,,76,0
48216,note_on,,,,,8,0,4,,,,,3,,,77,110
48216,note_on,,,,,8,0,1,,,,,0,,,77,110
48224,note_on,,,,,32,0,7,,,,,6,,,57,0
48224,note_on,,,,,32,0,3,,,,,2,,,57,0
48232,note_on,,,,,16,0,4,,,,,3,,,77,0
48232,note_on,,,,,16,0,1,,,,,0,,,77,0
48240,note_on,,,,,48,0,5,,,,,4,,,73,0
48240,note_on,,,,,48,0,2,,,,,1,,,73,0
48240,note_on,,,,,8,0,4,,,,,3,,,76,110
48240,note_on,,,,,8,0,1,,,,,0,,,76,110
48240,note_on,,,,,48,0,6,,,,,5,,,69,0
48256,note_on,,,,,16,0,4,,,,,3,,,76,0
48256,note_on,,,,,16,0,1,,,,,0,,,76,0
48264,note_on,,,,,8,0,1,,,,,0,,,77,110
48264,note_on,,,,,8,0,4,,,,,3,,,77,110
48280,note_on,,,,,16,0,4,,,,,3,,,77,0
48280,note_on,,,,,16,0,1,,,,,0,,,77,0
48288,note_on,,,,,8,0,4,,,,,3,,,76,110
48288,note_on,,,,,64,0,3,,,,,2,,,45,110
48288,note_on,,,,,8,0,1,,,,,0,,,76,110
48288,note_on,,,,,64,0,7,,,,,6,,,45,110
48304,note_on,,,,,16,0,1,,,,,0,,,76,0
48304,note_on,,,,,16,0,4,,,,,3,,,76,0
48312,note_on,,,,,8,0,1,,,,,0,,,77,110
48312,note_on,,,,,8,0,4,,,,,3,,,77,110
48320,note_on,,,,,32,0,7,,,,,6,,,45,0
48320,note_on,,,,,32,0,3,,,,,2,,,45,0
48328,note_on,,,,,16,0,4,,,,,3,,,77,0
48328,note_on,,,,,16,0,1,,,,,0,,,77,0
48336,note_on,,,,,8,0,1,,,,,0,,,74,110
48336,note_on,,,,,8,0,4,,,,,3,,,74,110
48368,note_on,,,,,32,0,1,,,,,0,,,74,0
48368,note_on,,,,,32,0,4,,,,,3,,,74,0
48384,note_on,,,,,144,0,5,,,,,4,,,74,110
48384,note_on,,,,,64,0,7,,,,,6,,,50,110
48384,note_on,,,,,16,0,4,,,,,3,,,74,110
48384,note_on,,,,,144,0,6,,,,,5,,,65,110
48384,note_on,,,,,64,0,3,,,,,2,,,50,110
48384,note_on,,,,,144,0,2,,,,,1,,,74,110
48384,note_on,,,,,16,0,1,,,,,0,,,74,110
48416,note_on,,,,,32,0,7,,,,,6,,,50,0
48416,note_on,,,,,32,0,4,,,,,3,,,74,0
48416,note_on,,,,,32,0,5,,,,,4,,,74,0
48416,note_on,,,,,32,0,6,,,,,5,,,65,0
48432,note_on,,,,,48,0,2,,,,,1,,,74,0
48432,note_on,,,,,48,0,1,,,,,0,,,74,0
48432,note_on,,,,,48,0,3,,,,,2,,,50,0
48480,note_on,,,,,64,0,4,,,,,3,,,81,110
48480,note_on,,,,,64,0,7,,,,,6,,,50,110
48480,note_on,,,,,64,0,5,,,,,4,,,77,110
48480,note_on,,,,,64,0,6,,,,,5,,,69,110
48512,note_on,,,,,32,0,5,,,,,4,,,77,0
48512,note_on,,,,,32,0,6,,,,,5,,,69,0
48512,note_on,,,,,32,0,4,,,,,3,,,81,0
48512,note_on,,,,,32,0,7,,,,,6,,,50,0
48576,note_on,,,,,64,0,4,,,,,3,,,86,110
48576,note_on,,,,,64,0,6,,,,,5,,,69,110
48576,note_on,,,,,64,0,7,,,,,6,,,53,110
48576,note_on,,,,,64,0,5,,,,,4,,,81,110
48608,note_on,,,,,32,0,7,,,,,6,,,53,0
48608,note_on,,,,,32,0,4,,,,,3,,,86,0
48608,note_on,,,,,32,0,6,,,,,5,,,69,0
48608,note_on,,,,,32,0,5,,,,,4,,,81,0
48672,note_on,,,,,64,0,6,,,,,5,,,69,110
48672,note_on,,,,,64,0,4,,,,,3,,,86,110
48672,note_on,,,,,64,0,7,,,,,6,,,50,110
48672,note_on,,,,,64,0,5,,,,,4,,,77,110
48704,note_on,,,,,32,0,6,,,,,5,,,69,0
48704,note_on,,,,,32,0,5,,,,,4,,,77,0
48704,note_on,,,,,32,0,7,,,,,6,,,50,0
48704,note_on,,,,,32,0,4,,,,,3,,,86,0
48768,note_on,,,,,64,0,5,,,,,4,,,76,110
48768,note_on,,,,,64,0,7,,,,,6,,,57,110
48768,note_on,,,,,64,0,4,,,,,3,,,85,110
48768,note_on,,,,,64,0,6,,,,,5,,,69,110
48816,note_on,,,,,48,0,4,,,,,3,,,85,0
48816,note_on,,,,,48,0,6,,,,,5,,,69,0
48816,note_on,,,,,48,0,5,,,,,4,,,76,0
48816,note_on,,,,,48,0,7,,,,,6,,,57,0
48864,note_on,,,,,432,0,2,,,,,1,,,69,110
48864,note_on,,,,,432,0,1,,,,,0,,,69,110
48864,note_on,,,,,432,0,3,,,,,2,,,57,110
48896,note_on,,,,,32,0,3,,,,,2,,,57,0
48896,note_on,,,,,32,0,1,,,,,0,,,69,0
48896,note_on,,,,,32,0,2,,,,,1,,,69,0
48960,note_on,,,,,64,0,3,,,,,2,,,53,110
48960,note_on,,,,,64,0,1,,,,,0,,,74,110
48960,note_on,,,,,64,0,2,,,,,1,,,69,110
48992,note_on,,,,,32,0,3,,,,,2,,,53,0
48992,note_on,,,,,32,0,1,,,,,0,,,74,0
48992,note_on,,,,,32,0,2,,,,,1,,,69,0
49056,note_on,,,,,64,0,3,,,,,2,,,50,110
49056,note_on,,,,,64,0,1,,,,,0,,,74,110
49056,note_on,,,,,64,0,2,,,,,1,,,65,110
49088,note_on,,,,,32,0,2,,,,,1,,,65,0
49088,note_on,,,,,32,0,3,,,,,2,,,50,0
49088,note_on,,,,,32,0,1,,,,,0,,,74,0
49152,note_on,,,,,64,0,1,,,,,0,,,73,110
49152,note_on,,,,,64,0,3,,,,,2,,,57,110
49152,note_on,,,,,64,0,2,,,,,1,,,64,110
49200,note_on,,,,,48,0,2,,,,,1,,,64,0
49200,note_on,,,,,48,0,1,,,,,0,,,73,0
49200,note_on,,,,,48,0,3,,,,,2,,,57,0
49248,note_on,,,,,432,0,4,,,,,3,,,81,110
49248,note_on,,,,,432,0,6,,,,,5,,,69,110
49248,note_on,,,,,432,0,5,,,,,4,,,73,110
49248,note_on,,,,,432,0,7,,,,,6,,,57,110
49280,note_on,,,,,32,0,4,,,,,3,,,81,0
49280,note_on,,,,,32,0,6,,,,,5,,,69,0
49280,note_on,,,,,32,0,5,,,,,4,,,73,0
49280,note_on,,,,,32,0,7,,,,,6,,,57,0
49344,note_on,,,,,64,0,6,,,,,5,,,69,110
49344,note_on,,,,,64,0,5,,,,,4,,,81,110
49344,note_on,,,,,64,0,7,,,,,6,,,53,110
49344,note_on,,,,,64,0,4,,,,,3,,,86,110
49376,note_on,,,,,32,0,7,,,,,6,,,53,0
49376,note_on,,,,,32,0,4,,,,,3,,,86,0
49376,note_on,,,,,32,0,6,,,,,5,,,69,0
49376,note_on,,,,,32,0,5,,,,,4,,,81,0
49440,note_on,,,,,64,0,7,,,,,6,,,50,110
49440,note_on,,,,,64,0,4,,,,,3,,,86,110
49440,note_on,,,,,64,0,6,,,,,5,,,69,110
49440,note_on,,,,,64,0,5,,,,,4,,,77,110
49472,note_on,,,,,32,0,4,,,,,3,,,86,0
49472,note_on,,,,,32,0,7,,,,,6,,,50,0
49472,note_on,,,,,32,0,6,,,,,5,,,69,0
49472,note_on,,,,,32,0,5,,,,,4,,,77,0
49536,note_on,,,,,64,0,4,,,,,3,,,85,110
49536,note_on,,,,,64,0,6,,,,,5,,,69,110
49536,note_on,,,,,64,0,5,,,,,4,,,76,110
49536,note_on,,,,,64,0,7,,,,,6,,,57,110
49568,note_on,,,,,32,0,5,,,,,4,,,76,0
49568,note_on,,,,,32,0,7,,,,,6,,,57,0
49568,note_on,,,,,32,0,6,,,,,5,,,69,0
49568,note_on,,,,,32,0,4,,,,,3,,,85,0
49632,note_on,,,,,64,0,7,,,,,6,,,57,110
49632,note_on,,,,,432,0,2,,,,,1,,,64,110
49632,note_on,,,,,64,0,6,,,,,5,,,69,110
49632,note_on,,,,,64,0,4,,,,,3,,,76,110
49632,note_on,,,,,64,0,5,,,,,4,,,73,110
49632,note_on,,,,,432,0,3,,,,,2,,,57,110
49632,note_on,,,,,432,0,1,,,,,0,,,69,110
49664,note_on,,,,,32,0,2,,,,,1,,,64,0
49664,note_on,,,,,32,0,6,,,,,5,,,69,0
49664,note_on,,,,,32,0,5,,,,,4,,,73,0
49664,note_on,,,,,32,0,7,,,,,6,,,57,0
49664,note_on,,,,,32,0,1,,,,,0,,,69,0
49664,note_on,,,,,32,0,3,,,,,2,,,57,0
49664,note_on,,,,,32,0,4,,,,,3,,,76,0
49728,note_on,,,,,64,0,3,,,,,2,,,53,110
49728,note_on,,,,,64,0,6,,,,,5,,,69,110
49728,note_on,,,,,64,0,4,,,,,3,,,77,110
49728,note_on,,,,,64,0,7,,,,,6,,,53,110
49728,note_on,,,,,64,0,2,,,,,1,,,65,110
49728,note_on,,,,,64,0,1,,,,,0,,,74,110
49728,note_on,,,,,64,0,5,,,,,4,,,74,110
49760,note_on,,,,,32,0,3,,,,,2,,,53,0
49760,note_on,,,,,32,0,7,,,,,6,,,53,0
49760,note_on,,,,,32,0,2,,,,,1,,,65,0
49760,note_on,,,,,32,0,4,,,,,3,,,77,0
49760,note_on,,,,,32,0,6,,,,,5,,,69,0
49760,note_on,,,,,32,0,5,,,,,4,,,74,0
49760,note_on,,,,,32,0,1,,,,,0,,,74,0
49824,note_on,,,,,64,0,5,,,,,4,,,74,110
49824,note_on,,,,,64,0,6,,,,,5,,,69,110
49824,note_on,,,,,64,0,1,,,,,0,,,74,110
49824,note_on,,,,,64,0,7,,,,,6,,,50,110
49824,note_on,,,,,64,0,3,,,,,2,,,50,110
49824,note_on,,,,,64,0,4,,,,,3,,,77,110
49824,note_on,,,,,64,0,2,,,,,1,,,65,110
49856,note_on,,,,,32,0,5,,,,,4,,,74,0
49856,note_on,,,,,32,0,6,,,,,5,,,69,0
49856,note_on,,,,,32,0,3,,,,,2,,,50,0
49856,note_on,,,,,32,0,2,,,,,1,,,65,0
49856,note_on,,,,,32,0,7,,,,,6,,,50,0
49856,note_on,,,,,32,0,1,,,,,0,,,74,0
49856,note_on,,,,,32,0,4,,,,,3,,,77,0
49920,note_on,,,,,64,0,3,,,,,2,,,57,110
49920,note_on,,,,,64,0,4,,,,,3,,,76,110
49920,note_on,,,,,64,0,2,,,,,1,,,64,110
49920,note_on,,,,,64,0,5,,,,,4,,,73,110
49920,note_on,,,,,64,0,6,,,,,5,,,69,110
49920,note_on,,,,,64,0,7,,,,,6,,,57,110
49920,note_on,,,,,64,0,1,,,,,0,,,73,110
49968,note_on,,,,,48,0,1,,,,,0,,,73,0
49968,note_on,,,,,48,0,5,,,,,4,,,73,0
49968,note_on,,,,,48,0,6,,,,,5,,,69,0
49968,note_on,,,,,48,0,3,,,,,2,,,57,0
49968,note_on,,,,,48,0,7,,,,,6,,,57,0
49968,note_on,,,,,48,0,4,,,,,3,,,76,0
49968,note_on,,,,,48,0,2,,,,,1,,,64,0
50880,set_tempo,,,,,50880,1,0,,1363636,,,,,,,
50880,note_on,,,,,912,0,2,,,,,1,,,65,127
50880,note_on,,,,,912,0,1,,,,,0,,,74,127
50880,note_on,,,,,912,0,5,,,,,4,,,65,127
50880,note_on,,,,,912,0,4,,,,,3,,,74,127
50880,note_on,,,,,912,0,6,,,,,5,,,57,127
50880,note_on,,,,,912,0,7,,,,,6,,,44,127
50880,end_of_track,,,,,0,1,0,,,,,,,,,
50880,note_on,,,,,912,0,3,,,,,2,,,44,110
50976,note_on,,,,,96,0,5,,,,,4,,,65,0
50976,note_on,,,,,0,0,5,,,,,4,,,62,110
51072,note_on,,,,,96,0,5,,,,,4,,,62,0
51072,note_on,,,,,0,0,5,,,,,4,,,62,127
51072,note_on,,,,,0,0,4,,,,,3,,,65,127
51072,note_on,,,,,192,0,3,,,,,2,,,44,0
51072,note_on,,,,,192,0,2,,,,,1,,,65,0
51072,note_on,,,,,0,0,2,,,,,1,,,65,127
51072,note_on,,,,,192,0,6,,,,,5,,,57,0
51072,note_on,,,,,0,0,1,,,,,0,,,65,127
51072,note_on,,,,,192,0,1,,,,,0,,,74,0
51072,note_on,,,,,192,0,7,,,,,6,,,44,0
51072,note_on,,,,,0,0,7,,,,,6,,,45,127
51072,note_on,,,,,0,0,3,,,,,2,,,45,110
51072,note_on,,,,,192,0,4,,,,,3,,,74,0
51072,note_on,,,,,0,0,6,,,,,5,,,57,127
51264,note_on,,,,,192,0,4,,,,,3,,,65,0
51264,note_on,,,,,0,0,5,,,,,4,,,61,127
51264,note_on,,,,,192,0,5,,,,,4,,,62,0
51264,note_on,,,,,192,0,1,,,,,0,,,65,0
51264,note_on,,,,,0,0,1,,,,,0,,,64,110
51264,note_on,,,,,0,0,4,,,,,3,,,64,110
51264,note_on,,,,,192,0,2,,,,,1,,,65,0
51264,note_on,,,,,0,0,2,,,,,1,,,64,110
51276,note_on,,,,,0,0,4,,,,,3,,,65,110
51276,note_on,,,,,12,0,4,,,,,3,,,64,0
51276,note_on,,,,,0,0,2,,,,,1,,,65,110
51276,note_on,,,,,0,0,1,,,,,0,,,65,110
51276,note_on,,,,,12,0,1,,,,,0,,,64,0
51276,note_on,,,,,12,0,2,,,,,1,,,64,0
51288,note_on,,,,,12,0,2,,,,,1,,,65,0
51288,note_on,,,,,0,0,1,,,,,0,,,64,110
51288,note_on,,,,,12,0,4,,,,,3,,,65,0
51288,note_on,,,,,0,0,4,,,,,3,,,64,110
51288,note_on,,,,,0,0,2,,,,,1,,,64,110
51288,note_on,,,,,12,0,1,,,,,0,,,65,0
51300,note_on,,,,,0,0,2,,,,,1,,,65,110
51300,note_on,,,,,12,0,2,,,,,1,,,64,0
51300,note_on,,,,,12,0,1,,,,,0,,,64,0
51300,note_on,,,,,0,0,1,,,,,0,,,65,110
51300,note_on,,,,,12,0,4,,,,,3,,,64,0
51300,note_on,,,,,0,0,4,,,,,3,,,65,110
51312,note_on,,,,,12,0,1,,,,,0,,,65,0
51312,note_on,,,,,0,0,1,,,,,0,,,64,110
51312,note_on,,,,,0,0,4,,,,,3,,,64,110
51312,note_on,,,,,0,0,2,,,,,1,,,64,110
51312,note_on,,,,,12,0,2,,,,,1,,,65,0
51312,note_on,,,,,12,0,4,,,,,3,,,65,0
51324,note_on,,,,,0,0,4,,,,,3,,,65,110
51324,note_on,,,,,12,0,4,,,,,3,,,64,0
51324,note_on,,,,,12,0,1,,,,,0,,,64,0
51324,note_on,,,,,0,0,1,,,,,0,,,65,110
51324,note_on,,,,,12,0,2,,,,,1,,,64,0
51324,note_on,,,,,0,0,2,,,,,1,,,65,110
51336,note_on,,,,,12,0,2,,,,,1,,,65,0
51336,note_on,,,,,0,0,2,,,,,1,,,64,110
51336,note_on,,,,,12,0,1,,,,,0,,,65,0
51336,note_on,,,,,0,0,1,,,,,0,,,64,110
51336,note_on,,,,,12,0,4,,,,,3,,,65,0
51336,note_on,,,,,0,0,4,,,,,3,,,64,110
51348,note_on,,,,,12,0,2,,,,,1,,,64,0
51348,note_on,,,,,0,0,2,,,,,1,,,65,110
51348,note_on,,,,,12,0,1,,,,,0,,,64,0
51348,note_on,,,,,0,0,1,,,,,0,,,65,110
51348,note_on,,,,,0,0,4,,,,,3,,,65,110
51348,note_on,,,,,12,0,4,,,,,3,,,64,0
51360,note_on,,,,,0,0,6,,,,,5,,,55,127
51360,note_on,,,,,0,0,4,,,,,3,,,64,110
51360,note_on,,,,,12,0,4,,,,,3,,,65,0
51360,note_on,,,,,12,0,1,,,,,0,,,65,0
51360,note_on,,,,,12,0,2,,,,,1,,,65,0
51360,note_on,,,,,288,0,6,,,,,5,,,57,0
51360,note_on,,,,,0,0,1,,,,,0,,,64,110
51360,note_on,,,,,0,0,2,,,,,1,,,64,110
51372,note_on,,,,,12,0,4,,,,,3,,,64,0
51372,note_on,,,,,0,0,4,,,,,3,,,65,110
51372,note_on,,,,,0,0,1,,,,,0,,,65,110
51372,note_on,,,,,12,0,1,,,,,0,,,64,0
51372,note_on,,,,,12,0,2,,,,,1,,,64,0
51372,note_on,,,,,0,0,2,,,,,1,,,65,110
51384,note_on,,,,,0,0,2,,,,,1,,,64,110
51384,note_on,,,,,0,0,4,,,,,3,,,64,110
51384,note_on,,,,,12,0,4,,,,,3,,,65,0
51384,note_on,,,,,12,0,1,,,,,0,,,65,0
51384,note_on,,,,,0,0,1,,,,,0,,,64,110
51384,note_on,,,,,12,0,2,,,,,1,,,65,0
51396,note_on,,,,,12,0,4,,,,,3,,,64,0
51396,note_on,,,,,12,0,1,,,,,0,,,64,0
51396,note_on,,,,,0,0,1,,,,,0,,,65,110
51396,note_on,,,,,12,0,2,,,,,1,,,64,0
51396,note_on,,,,,0,0,2,,,,,1,,,65,110
51396,note_on,,,,,0,0,4,,,,,3,,,65,110
51408,note_on,,,,,0,0,2,,,,,1,,,62,110
51408,note_on,,,,,12,0,1,,,,,0,,,65,0
51408,note_on,,,,,12,0,2,,,,,1,,,65,0
51408,note_on,,,,,12,0,4,,,,,3,,,65,0
51408,note_on,,,,,0,0,1,,,,,0,,,62,110
51408,note_on,,,,,0,0,4,,,,,3,,,62,110
51456,note_on,,,,,0,0,5,,,,,4,,,62,127
51456,note_on,,,,,0,0,2,,,,,1,,,62,127
51456,note_on,,,,,0,0,1,,,,,0,,,62,127
51456,note_on,,,,,48,0,1,,,,,0,,,62,0
51456,note_on,,,,,48,0,2,,,,,1,,,62,0
51456,note_on,,,,,384,0,3,,,,,2,,,45,0
51456,note_on,,,,,0,0,3,,,,,2,,,38,127
51456,note_on,,,,,96,0,6,,,,,5,,,55,0
51456,note_on,,,,,0,0,6,,,,,5,,,53,127
51456,note_on,,,,,0,0,7,,,,,6,,,38,127
51456,note_on,,,,,384,0,7,,,,,6,,,45,0
51456,note_on,,,,,0,0,4,,,,,3,,,62,127
51456,note_on,,,,,192,0,5,,,,,4,,,61,0
51456,note_on,,,,,48,0,4,,,,,3,,,62,0
51840,note_on,,,,,384,0,5,,,,,4,,,62,0
51840,end_of_track,,,,,0,1,1,,,,,,,,,
51840,note_on,,,,,384,0,2,,,,,1,,,62,0
51840,end_of_track,,,,,0,1,2,,,,,,,,,
51840,end_of_track,,,,,0,1,5,,,,,,,,,
51840,note_on,,,,,384,0,3,,,,,2,,,38,0
51840,end_of_track,,,,,0,1,3,,,,,,,,,
51840,note_on,,,,,384,0,7,,,,,6,,,38,0
51840,note_on,,,,,384,0,4,,,,,3,,,62,0
51840,end_of_track,,,,,0,1,6,,,,,,,,,
51840,note_on,,,,,384,0,6,,,,,5,,,53,0
51840,note_on,,,,,384,0,1,,,,,0,,,62,0
51840,end_of_track,,,,,0,1,7,,,,,,,,,
95295,note_on,,,,,43455,0,4,,,,,3,,,75,0
95295,end_of_track,,,,,0,1,4,,,,,,,,,
