tick,type,numerator,denominator,clocks_per_click,notated_32nd_notes_per_beat,time,meta,track,tempo,program,channel,control,value,note,velocity
0,time_signature,3,4,24,8,0,1,0,,,,,,,
0,track_name,,,,,0,1,7,,,,,,,
0,control_change,,,,,0,0,6,,,6,121,0,,
0,program_change,,,,,0,0,6,,48,6,,,,
0,track_name,,,,,0,1,6,,,,,,,
0,control_change,,,,,0,0,5,,,5,121,0,,
0,program_change,,,,,0,0,5,,48,5,,,,
0,track_name,,,,,0,1,5,,,,,,,
0,track_name,,,,,0,1,15,,,,,,,
0,control_change,,,,,0,0,4,,,4,121,0,,
0,program_change,,,,,0,0,4,,56,4,,,,
0,track_name,,,,,0,1,4,,,,,,,
0,control_change,,,,,0,0,3,,,3,121,0,,
0,program_change,,,,,0,0,3,,60,3,,,,
0,track_name,,,,,0,1,3,,,,,,,
0,control_change,,,,,0,0,2,,,2,121,0,,
0,program_change,,,,,0,0,7,,48,7,,,,
0,program_change,,,,,0,0,2,,70,2,,,,
0,control_change,,,,,0,0,7,,,7,121,0,,
0,program_change,,,,,0,0,8,,48,8,,,,
0,end_of_track,,,,,0,1,14,,,,,,,
0,track_name,,,,,0,1,14,,,,,,,
0,end_of_track,,,,,0,1,13,,,,,,,
0,track_name,,,,,0,1,13,,,,,,,
0,end_of_track,,,,,0,1,12,,,,,,,
0,track_name,,,,,0,1,12,,,,,,,
0,end_of_track,,,,,0,1,11,,,,,,,
0,track_name,,,,,0,1,11,,,,,,,
0,control_change,,,,,0,0,10,,,11,121,0,,
0,program_change,,,,,0,0,10,,48,11,,,,
0,track_name,,,,,0,1,10,,,,,,,
0,control_change,,,,,0,0,9,,,10,121,0,,
0,program_change,,,,,0,0,9,,48,10,,,,
0,track_name,,,,,0,1,9,,,,,,,
0,control_change,,,,,0,0,8,,,8,121,0,,
0,track_name,,,,,0,1,8,,,,,,,
0,track_name,,,,,0,1,2,,,,,,,
0,end_of_track,,,,,0,1,15,,,,,,,
0,set_tempo,,,,,0,1,0,697674,,,,,,
0,track_name,,,,,0,1,1,,,,,,,
0,program_change,,,,,0,0,1,,68,1,,,,
0,control_change,,,,,0,0,1,,,1,121,0,,
240,control_change,,,,,240,0,7,,,7,0,56,,
240,control_change,,,,,0,0,3,,,3,32,0,,
240,control_change,,,,,240,0,3,,,3,0,56,,
240,control_change,,,,,0,0,7,,,7,32,0,,
240,control_change,,,,,240,0,9,,,10,0,56,,
240,control_change,,,,,0,0,9,,,10,32,0,,
240,control_change,,,,,0,0,8,,,8,32,0,,
240,control_change,,,,,240,0,8,,,8,0,56,,
240,control_change,,,,,0,0,2,,,2,32,0,,
240,control_change,,,,,240,0,2,,,2,0,56,,
240,control_change,,,,,0,0,1,,,1,32,0,,
240,control_change,,,,,240,0,1,,,1,0,56,,
240,control_change,,,,,240,0,10,,,11,0,56,,
240,control_change,,,,,0,0,10,,,11,32,0,,
240,control_change,,,,,240,0,5,,,5,0,56,,
240,control_change,,,,,0,0,5,,,5,32,0,,
240,control_change,,,,,0,0,6,,,6,32,0,,
240,control_change,,,,,240,0,6,,,6,0,56,,
240,control_change,,,,,240,0,4,,,4,0,56,,
240,control_change,,,,,0,0,4,,,4,32,0,,
480,program_change,,,,,240,0,10,,48,11,,,,
480,program_change,,,,,240,0,2,,70,2,,,,
480,program_change,,,,,240,0,5,,48,5,,,,
480,program_change,,,,,240,0,6,,48,6,,,,
480,program_change,,,,,240,0,8,,48,8,,,,
480,program_change,,,,,240,0,7,,48,7,,,,
480,program_change,,,,,240,0,3,,60,3,,,,
480,program_change,,,,,240,0,4,,56,4,,,,
480,program_change,,,,,240,0,1,,68,1,,,,
480,program_change,,,,,240,0,9,,48,10,,,,
481,control_change,,,,,1,0,4,,,4,91,68,,
481,control_change,,,,,1,0,2,,,2,91,68,,
481,control_change,,,,,0,0,2,,,2,93,27,,
481,control_change,,,,,0,0,2,,,2,10,75,,
481,control_change,,,,,0,0,2,,,2,7,110,,
481,control_change,,,,,0,0,1,,,1,7,95,,
481,control_change,,,,,1,0,9,,,10,91,68,,
481,control_change,,,,,1,0,1,,,1,91,68,,
481,control_change,,,,,1,0,8,,,8,91,68,,
481,control_change,,,,,0,0,8,,,8,93,27,,
481,control_change,,,,,0,0,1,,,1,93,27,,
481,control_change,,,,,0,0,8,,,8,7,110,,
481,control_change,,,,,0,0,1,,,1,10,71,,
481,control_change,,,,,1,0,3,,,3,91,68,,
481,control_change,,,,,0,0,3,,,3,93,27,,
481,control_change,,,,,0,0,9,,,10,93,27,,
481,control_change,,,,,0,0,3,,,3,10,84,,
481,control_change,,,,,0,0,9,,,10,10,126,,
481,control_change,,,,,1,0,10,,,11,91,68,,
481,control_change,,,,,1,0,6,,,6,91,68,,
481,control_change,,,,,0,0,6,,,6,93,27,,
481,control_change,,,,,0,0,6,,,6,10,28,,
481,control_change,,,,,0,0,6,,,6,7,110,,
481,control_change,,,,,1,0,7,,,7,91,68,,
481,control_change,,,,,0,0,7,,,7,93,27,,
481,control_change,,,,,0,0,7,,,7,10,50,,
481,control_change,,,,,0,0,7,,,7,7,110,,
481,control_change,,,,,0,0,5,,,5,7,110,,
481,control_change,,,,,0,0,5,,,5,10,0,,
481,control_change,,,,,0,0,5,,,5,93,27,,
481,control_change,,,,,1,0,5,,,5,91,68,,
481,control_change,,,,,0,0,10,,,11,7,110,,
481,control_change,,,,,0,0,10,,,11,10,97,,
481,control_change,,,,,0,0,10,,,11,93,27,,
481,control_change,,,,,0,0,9,,,10,7,110,,
481,control_change,,,,,0,0,3,,,3,7,100,,
481,control_change,,,,,0,0,8,,,8,10,63,,
481,control_change,,,,,0,0,4,,,4,93,27,,
481,control_change,,,,,0,0,4,,,4,10,45,,
481,control_change,,,,,0,0,4,,,4,7,127,,
720,note_on,,,,,239,0,9,,,10,,,50,95
720,note_on,,,,,239,0,8,,,8,,,69,95
720,note_on,,,,,239,0,7,,,7,,,74,95
720,note_on,,,,,0,0,4,,,4,,,78,95
720,note_on,,,,,239,0,5,,,5,,,78,95
720,note_on,,,,,239,0,10,,,11,,,38,95
720,marker,,,,,720,1,0,,,,,,,
720,note_on,,,,,239,0,4,,,4,,,74,95
720,note_on,,,,,239,0,6,,,6,,,78,95
910,note_off,,,,,190,0,8,,,8,,,69,64
910,note_off,,,,,190,0,7,,,7,,,74,64
910,note_off,,,,,190,0,4,,,4,,,78,64
910,note_off,,,,,0,0,4,,,4,,,74,64
910,note_off,,,,,190,0,5,,,5,,,78,64
910,note_off,,,,,190,0,10,,,11,,,38,64
910,note_off,,,,,190,0,6,,,6,,,78,64
910,note_off,,,,,190,0,9,,,10,,,50,64
960,note_on,,,,,50,0,5,,,5,,,78,95
960,note_on,,,,,50,0,6,,,6,,,78,95
960,note_on,,,,,50,0,7,,,7,,,74,95
960,note_on,,,,,0,0,4,,,4,,,78,95
960,note_on,,,,,50,0,8,,,8,,,69,95
960,note_on,,,,,50,0,10,,,11,,,50,95
960,note_on,,,,,50,0,4,,,4,,,74,95
960,note_on,,,,,50,0,9,,,10,,,62,95
1150,note_off,,,,,190,0,9,,,10,,,62,64
1150,note_off,,,,,190,0,8,,,8,,,69,64
1150,note_off,,,,,190,0,7,,,7,,,74,64
1150,note_off,,,,,190,0,10,,,11,,,50,64
1150,note_off,,,,,190,0,5,,,5,,,78,64
1150,note_off,,,,,190,0,6,,,6,,,78,64
1150,note_off,,,,,0,0,4,,,4,,,74,64
1150,note_off,,,,,190,0,4,,,4,,,78,64
1200,note_on,,,,,50,0,6,,,6,,,78,95
1200,note_on,,,,,50,0,9,,,10,,,61,95
1200,note_on,,,,,50,0,8,,,8,,,69,95
1200,note_on,,,,,0,0,4,,,4,,,78,95
1200,note_on,,,,,50,0,7,,,7,,,74,95
1200,note_on,,,,,50,0,10,,,11,,,49,95
1200,note_on,,,,,50,0,4,,,4,,,74,95
1200,note_on,,,,,50,0,5,,,5,,,78,95
1390,note_off,,,,,190,0,4,,,4,,,78,64
1390,note_off,,,,,0,0,4,,,4,,,74,64
1390,note_off,,,,,190,0,9,,,10,,,61,64
1390,note_off,,,,,190,0,10,,,11,,,49,64
1390,note_off,,,,,190,0,5,,,5,,,78,64
1390,note_off,,,,,190,0,8,,,8,,,69,64
1390,note_off,,,,,190,0,6,,,6,,,78,64
1390,note_off,,,,,190,0,7,,,7,,,74,64
1440,note_on,,,,,0,0,4,,,4,,,78,95
1440,note_on,,,,,50,0,8,,,8,,,69,95
1440,note_on,,,,,50,0,5,,,5,,,78,95
1440,note_on,,,,,50,0,9,,,10,,,62,95
1440,note_on,,,,,50,0,4,,,4,,,74,95
1440,note_on,,,,,50,0,6,,,6,,,78,95
1440,note_on,,,,,50,0,7,,,7,,,74,95
1440,note_on,,,,,50,0,10,,,11,,,50,95
1630,note_off,,,,,190,0,10,,,11,,,50,64
1630,note_off,,,,,190,0,6,,,6,,,78,64
1630,note_off,,,,,190,0,5,,,5,,,78,64
1630,note_off,,,,,190,0,7,,,7,,,74,64
1630,note_off,,,,,190,0,4,,,4,,,78,64
1630,note_off,,,,,190,0,9,,,10,,,62,64
1630,note_off,,,,,0,0,4,,,4,,,74,64
1630,note_off,,,,,190,0,8,,,8,,,69,64
1680,note_on,,,,,50,0,8,,,8,,,69,95
1680,note_on,,,,,50,0,10,,,11,,,45,95
1680,note_on,,,,,50,0,9,,,10,,,57,95
1680,note_on,,,,,50,0,5,,,5,,,78,95
1680,note_on,,,,,50,0,7,,,7,,,74,95
1680,note_on,,,,,50,0,4,,,4,,,74,95
1680,note_on,,,,,0,0,4,,,4,,,78,95
1680,note_on,,,,,50,0,6,,,6,,,78,95
1775,note_off,,,,,95,0,5,,,5,,,78,64
1775,note_off,,,,,95,0,7,,,7,,,74,64
1775,note_off,,,,,95,0,6,,,6,,,78,64
1775,note_off,,,,,95,0,4,,,4,,,78,64
1775,note_off,,,,,0,0,4,,,4,,,74,64
1800,note_on,,,,,25,0,7,,,7,,,76,95
1800,note_on,,,,,25,0,4,,,4,,,76,95
1800,note_on,,,,,0,0,4,,,4,,,79,95
1800,note_on,,,,,25,0,6,,,6,,,79,95
1800,note_on,,,,,25,0,5,,,5,,,79,95
1870,note_off,,,,,190,0,10,,,11,,,45,64
1870,note_off,,,,,190,0,9,,,10,,,57,64
1870,note_off,,,,,190,0,8,,,8,,,69,64
1895,note_off,,,,,95,0,5,,,5,,,79,64
1895,note_off,,,,,95,0,6,,,6,,,79,64
1895,note_off,,,,,95,0,4,,,4,,,79,64
1895,note_off,,,,,0,0,4,,,4,,,76,64
1895,note_off,,,,,95,0,7,,,7,,,76,64
1920,note_on,,,,,25,0,5,,,5,,,78,95
1920,note_on,,,,,25,0,6,,,6,,,78,95
1920,note_on,,,,,50,0,10,,,11,,,47,95
1920,note_on,,,,,25,0,7,,,7,,,74,95
1920,note_on,,,,,50,0,8,,,8,,,62,95
1920,note_on,,,,,50,0,9,,,10,,,59,95
1920,note_on,,,,,25,0,4,,,4,,,74,95
1920,note_on,,,,,0,0,4,,,4,,,78,95
2015,note_off,,,,,95,0,6,,,6,,,78,64
2015,note_off,,,,,95,0,7,,,7,,,74,64
2015,note_off,,,,,95,0,5,,,5,,,78,64
2015,note_off,,,,,0,0,4,,,4,,,74,64
2015,note_off,,,,,95,0,4,,,4,,,78,64
2040,note_on,,,,,0,0,4,,,4,,,79,95
2040,note_on,,,,,25,0,4,,,4,,,76,95
2040,note_on,,,,,25,0,7,,,7,,,76,95
2040,note_on,,,,,25,0,5,,,5,,,79,95
2040,note_on,,,,,25,0,6,,,6,,,79,95
2110,note_off,,,,,190,0,8,,,8,,,62,64
2110,note_off,,,,,190,0,9,,,10,,,59,64
2110,note_off,,,,,190,0,10,,,11,,,47,64
2135,note_off,,,,,95,0,7,,,7,,,76,64
2135,note_off,,,,,95,0,4,,,4,,,79,64
2135,note_off,,,,,95,0,5,,,5,,,79,64
2135,note_off,,,,,0,0,4,,,4,,,76,64
2135,note_off,,,,,95,0,6,,,6,,,79,64
2160,note_on,,,,,25,0,5,,,5,,,81,95
2160,note_on,,,,,25,0,6,,,6,,,81,95
2160,note_on,,,,,50,0,9,,,10,,,54,95
2160,note_on,,,,,50,0,8,,,8,,,62,95
2160,note_on,,,,,25,0,7,,,7,,,78,95
2160,note_on,,,,,25,0,4,,,4,,,78,95
2160,note_on,,,,,50,0,10,,,11,,,42,95
2160,note_on,,,,,0,0,4,,,4,,,81,95
2350,note_off,,,,,190,0,9,,,10,,,54,64
2350,note_off,,,,,0,0,4,,,4,,,78,64
2350,note_off,,,,,190,0,10,,,11,,,42,64
2350,note_off,,,,,190,0,7,,,7,,,78,64
2350,note_off,,,,,190,0,5,,,5,,,81,64
2350,note_off,,,,,190,0,8,,,8,,,62,64
2350,note_off,,,,,190,0,6,,,6,,,81,64
2350,note_off,,,,,190,0,4,,,4,,,81,64
2400,note_on,,,,,50,0,8,,,8,,,62,95
2400,note_on,,,,,50,0,10,,,11,,,42,95
2400,note_on,,,,,0,0,4,,,4,,,81,95
2400,note_on,,,,,50,0,4,,,4,,,78,95
2400,note_on,,,,,50,0,7,,,7,,,78,95
2400,note_on,,,,,50,0,9,,,10,,,54,95
2400,note_on,,,,,50,0,6,,,6,,,81,95
2400,note_on,,,,,50,0,5,,,5,,,81,95
2590,note_off,,,,,190,0,9,,,10,,,54,64
2590,note_off,,,,,190,0,8,,,8,,,62,64
2590,note_off,,,,,190,0,4,,,4,,,81,64
2590,note_off,,,,,0,0,4,,,4,,,78,64
2590,note_off,,,,,190,0,10,,,11,,,42,64
2590,note_off,,,,,190,0,5,,,5,,,81,64
2590,note_off,,,,,190,0,7,,,7,,,78,64
2590,note_off,,,,,190,0,6,,,6,,,81,64
2640,note_on,,,,,50,0,6,,,6,,,81,95
2640,note_on,,,,,50,0,9,,,10,,,54,95
2640,note_on,,,,,50,0,5,,,5,,,81,95
2640,note_on,,,,,50,0,8,,,8,,,62,95
2640,note_on,,,,,50,0,10,,,11,,,42,95
2640,note_on,,,,,50,0,7,,,7,,,78,95
2640,note_on,,,,,50,0,4,,,4,,,78,95
2640,note_on,,,,,0,0,4,,,4,,,81,95
2830,note_off,,,,,190,0,8,,,8,,,62,64
2830,note_off,,,,,190,0,4,,,4,,,81,64
2830,note_off,,,,,0,0,4,,,4,,,78,64
2830,note_off,,,,,190,0,9,,,10,,,54,64
2830,note_off,,,,,190,0,5,,,5,,,81,64
2830,note_off,,,,,190,0,10,,,11,,,42,64
2830,note_off,,,,,190,0,6,,,6,,,81,64
2830,note_off,,,,,190,0,7,,,7,,,78,64
2880,note_on,,,,,0,0,4,,,4,,,81,95
2880,note_on,,,,,50,0,7,,,7,,,78,95
2880,note_on,,,,,50,0,5,,,5,,,81,95
2880,note_on,,,,,50,0,10,,,11,,,35,95
2880,note_on,,,,,50,0,8,,,8,,,62,95
2880,note_on,,,,,50,0,4,,,4,,,78,95
2880,note_on,,,,,50,0,9,,,10,,,47,95
2880,note_on,,,,,50,0,6,,,6,,,81,95
2904,note_off,,,,,24,0,7,,,7,,,78,64
2904,note_off,,,,,0,0,4,,,4,,,78,64
2904,note_off,,,,,24,0,4,,,4,,,81,64
2904,note_off,,,,,24,0,6,,,6,,,81,64
2904,note_off,,,,,24,0,5,,,5,,,81,64
2910,note_on,,,,,0,0,4,,,4,,,83,95
2910,note_on,,,,,6,0,6,,,6,,,83,95
2910,note_on,,,,,6,0,4,,,4,,,79,95
2910,note_on,,,,,6,0,5,,,5,,,83,95
2910,note_on,,,,,6,0,7,,,7,,,79,95
2934,note_off,,,,,24,0,5,,,5,,,83,64
2934,note_off,,,,,24,0,7,,,7,,,79,64
2934,note_off,,,,,24,0,6,,,6,,,83,64
2934,note_off,,,,,24,0,4,,,4,,,83,64
2934,note_off,,,,,0,0,4,,,4,,,79,64
2940,note_on,,,,,6,0,5,,,5,,,81,95
2940,note_on,,,,,0,0,4,,,4,,,81,95
2940,note_on,,,,,6,0,6,,,6,,,81,95
2940,note_on,,,,,6,0,4,,,4,,,78,95
2940,note_on,,,,,6,0,7,,,7,,,78,95
2964,note_off,,,,,24,0,5,,,5,,,81,64
2964,note_off,,,,,24,0,7,,,7,,,78,64
2964,note_off,,,,,24,0,4,,,4,,,81,64
2964,note_off,,,,,24,0,6,,,6,,,81,64
2964,note_off,,,,,0,0,4,,,4,,,78,64
2970,note_on,,,,,6,0,7,,,7,,,79,95
2970,note_on,,,,,0,0,4,,,4,,,83,95
2970,note_on,,,,,6,0,4,,,4,,,79,95
2970,note_on,,,,,6,0,5,,,5,,,83,95
2970,note_on,,,,,6,0,6,,,6,,,83,95
2994,note_off,,,,,24,0,4,,,4,,,83,64
2994,note_off,,,,,0,0,4,,,4,,,79,64
2994,note_off,,,,,24,0,6,,,6,,,83,64
2994,note_off,,,,,24,0,7,,,7,,,79,64
2994,note_off,,,,,24,0,5,,,5,,,83,64
3000,note_on,,,,,6,0,4,,,4,,,78,95
3000,note_on,,,,,6,0,6,,,6,,,81,95
3000,note_on,,,,,0,0,4,,,4,,,81,95
3000,note_on,,,,,6,0,5,,,5,,,81,95
3000,note_on,,,,,6,0,7,,,7,,,78,95
3024,note_off,,,,,0,0,4,,,4,,,78,64
3024,note_off,,,,,24,0,5,,,5,,,81,64
3024,note_off,,,,,24,0,6,,,6,,,81,64
3024,note_off,,,,,24,0,7,,,7,,,78,64
3024,note_off,,,,,24,0,4,,,4,,,81,64
3030,note_on,,,,,6,0,5,,,5,,,83,95
3030,note_on,,,,,6,0,6,,,6,,,83,95
3030,note_on,,,,,6,0,7,,,7,,,79,95
3030,note_on,,,,,6,0,4,,,4,,,79,95
3030,note_on,,,,,0,0,4,,,4,,,83,95
3054,note_off,,,,,24,0,4,,,4,,,83,64
3054,note_off,,,,,0,0,4,,,4,,,79,64
3054,note_off,,,,,24,0,5,,,5,,,83,64
3054,note_off,,,,,24,0,6,,,6,,,83,64
3054,note_off,,,,,24,0,7,,,7,,,79,64
3060,note_on,,,,,6,0,7,,,7,,,76,95
3060,note_on,,,,,6,0,6,,,6,,,79,95
3060,note_on,,,,,6,0,4,,,4,,,76,95
3060,note_on,,,,,0,0,4,,,4,,,79,95
3060,note_on,,,,,6,0,5,,,5,,,79,95
3084,note_off,,,,,0,0,4,,,4,,,76,64
3084,note_off,,,,,24,0,5,,,5,,,79,64
3084,note_off,,,,,24,0,7,,,7,,,76,64
3084,note_off,,,,,24,0,6,,,6,,,79,64
3084,note_off,,,,,24,0,4,,,4,,,79,64
3090,note_on,,,,,6,0,4,,,4,,,78,95
3090,note_on,,,,,6,0,6,,,6,,,81,95
3090,note_on,,,,,6,0,7,,,7,,,78,95
3090,note_on,,,,,0,0,4,,,4,,,81,95
3090,note_on,,,,,6,0,5,,,5,,,81,95
3216,note_off,,,,,126,0,7,,,7,,,78,64
3216,note_off,,,,,0,0,4,,,4,,,78,64
3216,note_off,,,,,126,0,6,,,6,,,81,64
3216,note_off,,,,,126,0,4,,,4,,,81,64
3216,note_off,,,,,126,0,5,,,5,,,81,64
3240,note_on,,,,,24,0,4,,,4,,,76,95
3240,note_on,,,,,24,0,7,,,7,,,76,95
3240,note_on,,,,,24,0,6,,,6,,,79,95
3240,note_on,,,,,0,0,4,,,4,,,79,95
3240,note_on,,,,,24,0,5,,,5,,,79,95
3288,note_off,,,,,48,0,5,,,5,,,79,64
3288,note_off,,,,,48,0,6,,,6,,,79,64
3288,note_off,,,,,48,0,4,,,4,,,79,64
3288,note_off,,,,,0,0,4,,,4,,,76,64
3288,note_off,,,,,48,0,7,,,7,,,76,64
3300,note_on,,,,,12,0,5,,,5,,,81,95
3300,note_on,,,,,12,0,7,,,7,,,78,95
3300,note_on,,,,,12,0,6,,,6,,,81,95
3300,note_on,,,,,12,0,4,,,4,,,78,95
3300,note_on,,,,,0,0,4,,,4,,,81,95
3348,note_off,,,,,48,0,7,,,7,,,78,64
3348,note_off,,,,,48,0,4,,,4,,,81,64
3348,note_off,,,,,48,0,5,,,5,,,81,64
3348,note_off,,,,,48,0,6,,,6,,,81,64
3348,note_off,,,,,0,0,4,,,4,,,78,64
3360,note_on,,,,,12,0,5,,,5,,,83,95
3360,note_on,,,,,12,0,4,,,4,,,79,95
3360,note_on,,,,,0,0,4,,,4,,,83,95
3360,note_on,,,,,12,0,6,,,6,,,83,95
3360,note_on,,,,,12,0,7,,,7,,,79,95
3455,note_off,,,,,575,0,10,,,11,,,35,64
3455,note_off,,,,,575,0,9,,,10,,,47,64
3455,note_off,,,,,575,0,8,,,8,,,62,64
3552,note_off,,,,,192,0,6,,,6,,,83,64
3552,note_off,,,,,192,0,5,,,5,,,83,64
3552,note_off,,,,,192,0,7,,,7,,,79,64
3552,note_off,,,,,192,0,4,,,4,,,83,64
3552,note_off,,,,,0,0,4,,,4,,,79,64
3600,note_on,,,,,145,0,8,,,8,,,71,95
3600,note_on,,,,,48,0,5,,,5,,,79,95
3600,note_on,,,,,48,0,6,,,6,,,79,95
3600,note_on,,,,,0,0,4,,,4,,,79,95
3600,note_on,,,,,48,0,4,,,4,,,76,95
3600,note_on,,,,,145,0,10,,,11,,,40,95
3600,note_on,,,,,48,0,7,,,7,,,76,95
3600,note_on,,,,,145,0,9,,,10,,,52,95
3790,note_off,,,,,190,0,8,,,8,,,71,64
3790,note_off,,,,,190,0,5,,,5,,,79,64
3790,note_off,,,,,190,0,10,,,11,,,40,64
3790,note_off,,,,,0,0,4,,,4,,,76,64
3790,note_off,,,,,190,0,9,,,10,,,52,64
3790,note_off,,,,,190,0,7,,,7,,,76,64
3790,note_off,,,,,190,0,6,,,6,,,79,64
3790,note_off,,,,,190,0,4,,,4,,,79,64
3840,note_on,,,,,50,0,7,,,7,,,76,95
3840,note_on,,,,,0,0,4,,,4,,,79,95
3840,note_on,,,,,50,0,4,,,4,,,76,95
3840,note_on,,,,,50,0,10,,,11,,,43,95
3840,note_on,,,,,50,0,5,,,5,,,79,95
3840,note_on,,,,,50,0,6,,,6,,,79,95
3840,note_on,,,,,50,0,9,,,10,,,55,95
3840,note_on,,,,,50,0,8,,,8,,,71,95
4030,note_off,,,,,190,0,10,,,11,,,43,64
4030,note_off,,,,,0,0,4,,,4,,,76,64
4030,note_off,,,,,190,0,6,,,6,,,79,64
4030,note_off,,,,,190,0,4,,,4,,,79,64
4030,note_off,,,,,190,0,5,,,5,,,79,64
4030,note_off,,,,,190,0,7,,,7,,,76,64
4030,note_off,,,,,190,0,8,,,8,,,71,64
4030,note_off,,,,,190,0,9,,,10,,,55,64
4080,note_on,,,,,50,0,10,,,11,,,40,95
4080,note_on,,,,,0,0,4,,,4,,,79,95
4080,note_on,,,,,50,0,4,,,4,,,76,95
4080,note_on,,,,,50,0,5,,,5,,,79,95
4080,note_on,,,,,50,0,8,,,8,,,71,95
4080,note_on,,,,,50,0,7,,,7,,,76,95
4080,note_on,,,,,50,0,9,,,10,,,52,95
4080,note_on,,,,,50,0,6,,,6,,,79,95
4270,note_off,,,,,190,0,4,,,4,,,79,64
4270,note_off,,,,,190,0,7,,,7,,,76,64
4270,note_off,,,,,190,0,6,,,6,,,79,64
4270,note_off,,,,,190,0,9,,,10,,,52,64
4270,note_off,,,,,190,0,8,,,8,,,71,64
4270,note_off,,,,,0,0,4,,,4,,,76,64
4270,note_off,,,,,190,0,5,,,5,,,79,64
4270,note_off,,,,,190,0,10,,,11,,,40,64
4320,note_on,,,,,50,0,5,,,5,,,79,95
4320,note_on,,,,,50,0,6,,,6,,,79,95
4320,note_on,,,,,50,0,7,,,7,,,76,95
4320,note_on,,,,,50,0,8,,,8,,,73,95
4320,note_on,,,,,0,0,4,,,4,,,79,95
4320,note_on,,,,,50,0,10,,,11,,,45,95
4320,note_on,,,,,50,0,9,,,10,,,57,95
4320,note_on,,,,,50,0,4,,,4,,,76,95
4344,note_off,,,,,0,0,4,,,4,,,76,64
4344,note_off,,,,,24,0,4,,,4,,,79,64
4344,note_off,,,,,24,0,5,,,5,,,79,64
4344,note_off,,,,,24,0,6,,,6,,,79,64
4344,note_off,,,,,24,0,7,,,7,,,76,64
4350,note_on,,,,,6,0,5,,,5,,,81,95
4350,note_on,,,,,6,0,7,,,7,,,78,95
4350,note_on,,,,,6,0,4,,,4,,,78,95
4350,note_on,,,,,0,0,4,,,4,,,81,95
4350,note_on,,,,,6,0,6,,,6,,,81,95
4374,note_off,,,,,24,0,6,,,6,,,81,64
4374,note_off,,,,,24,0,5,,,5,,,81,64
4374,note_off,,,,,24,0,7,,,7,,,78,64
4374,note_off,,,,,24,0,4,,,4,,,81,64
4374,note_off,,,,,0,0,4,,,4,,,78,64
4380,note_on,,,,,6,0,7,,,7,,,76,95
4380,note_on,,,,,6,0,5,,,5,,,79,95
4380,note_on,,,,,6,0,6,,,6,,,79,95
4380,note_on,,,,,6,0,4,,,4,,,76,95
4380,note_on,,,,,0,0,4,,,4,,,79,95
4404,note_off,,,,,24,0,7,,,7,,,76,64
4404,note_off,,,,,24,0,5,,,5,,,79,64
4404,note_off,,,,,24,0,6,,,6,,,79,64
4404,note_off,,,,,0,0,4,,,4,,,76,64
4404,note_off,,,,,24,0,4,,,4,,,79,64
4410,note_on,,,,,6,0,4,,,4,,,78,95
4410,note_on,,,,,6,0,5,,,5,,,81,95
4410,note_on,,,,,0,0,4,,,4,,,81,95
4410,note_on,,,,,6,0,6,,,6,,,81,95
4410,note_on,,,,,6,0,7,,,7,,,78,95
4434,note_off,,,,,24,0,6,,,6,,,81,64
4434,note_off,,,,,24,0,4,,,4,,,81,64
4434,note_off,,,,,0,0,4,,,4,,,78,64
4434,note_off,,,,,24,0,7,,,7,,,78,64
4434,note_off,,,,,24,0,5,,,5,,,81,64
4440,note_on,,,,,6,0,5,,,5,,,79,95
4440,note_on,,,,,6,0,4,,,4,,,76,95
4440,note_on,,,,,6,0,7,,,7,,,76,95
4440,note_on,,,,,6,0,6,,,6,,,79,95
4440,note_on,,,,,0,0,4,,,4,,,79,95
4464,note_off,,,,,24,0,7,,,7,,,76,64
4464,note_off,,,,,0,0,4,,,4,,,76,64
4464,note_off,,,,,24,0,4,,,4,,,79,64
4464,note_off,,,,,24,0,6,,,6,,,79,64
4464,note_off,,,,,24,0,5,,,5,,,79,64
4470,note_on,,,,,6,0,5,,,5,,,81,95
4470,note_on,,,,,6,0,7,,,7,,,78,95
4470,note_on,,,,,6,0,6,,,6,,,81,95
4470,note_on,,,,,6,0,4,,,4,,,78,95
4470,note_on,,,,,0,0,4,,,4,,,81,95
4494,note_off,,,,,24,0,5,,,5,,,81,64
4494,note_off,,,,,24,0,6,,,6,,,81,64
4494,note_off,,,,,24,0,7,,,7,,,78,64
4494,note_off,,,,,0,0,4,,,4,,,78,64
4494,note_off,,,,,24,0,4,,,4,,,81,64
4500,note_on,,,,,6,0,7,,,7,,,74,95
4500,note_on,,,,,6,0,5,,,5,,,78,95
4500,note_on,,,,,6,0,4,,,4,,,74,95
4500,note_on,,,,,0,0,4,,,4,,,78,95
4500,note_on,,,,,6,0,6,,,6,,,78,95
4510,note_off,,,,,190,0,9,,,10,,,57,64
4510,note_off,,,,,190,0,10,,,11,,,45,64
4510,note_off,,,,,190,0,8,,,8,,,73,64
4524,note_off,,,,,24,0,4,,,4,,,78,64
4524,note_off,,,,,0,0,4,,,4,,,74,64
4524,note_off,,,,,24,0,5,,,5,,,78,64
4524,note_off,,,,,24,0,6,,,6,,,78,64
4524,note_off,,,,,24,0,7,,,7,,,74,64
4530,note_on,,,,,6,0,4,,,4,,,76,95
4530,note_on,,,,,6,0,5,,,5,,,79,95
4530,note_on,,,,,6,0,6,,,6,,,79,95
4530,note_on,,,,,0,0,4,,,4,,,79,95
4530,note_on,,,,,6,0,7,,,7,,,76,95
4560,note_on,,,,,50,0,8,,,8,,,69,95
4560,note_on,,,,,50,0,9,,,10,,,49,95
4560,note_on,,,,,50,0,10,,,11,,,37,95
4656,note_off,,,,,0,0,4,,,4,,,76,64
4656,note_off,,,,,126,0,5,,,5,,,79,64
4656,note_off,,,,,126,0,7,,,7,,,76,64
4656,note_off,,,,,126,0,6,,,6,,,79,64
4656,note_off,,,,,126,0,4,,,4,,,79,64
4680,note_on,,,,,24,0,4,,,4,,,74,95
4680,note_on,,,,,24,0,5,,,5,,,78,95
4680,note_on,,,,,24,0,6,,,6,,,78,95
4680,note_on,,,,,24,0,7,,,7,,,74,95
4680,note_on,,,,,0,0,4,,,4,,,78,95
4728,note_off,,,,,48,0,7,,,7,,,74,64
4728,note_off,,,,,48,0,6,,,6,,,78,64
4728,note_off,,,,,0,0,4,,,4,,,74,64
4728,note_off,,,,,48,0,5,,,5,,,78,64
4728,note_off,,,,,48,0,4,,,4,,,78,64
4740,note_on,,,,,12,0,5,,,5,,,79,95
4740,note_on,,,,,0,0,4,,,4,,,79,95
4740,note_on,,,,,12,0,4,,,4,,,76,95
4740,note_on,,,,,12,0,6,,,6,,,79,95
4740,note_on,,,,,12,0,7,,,7,,,76,95
4750,note_off,,,,,190,0,9,,,10,,,49,64
4750,note_off,,,,,190,0,10,,,11,,,37,64
4750,note_off,,,,,190,0,8,,,8,,,69,64
4788,note_off,,,,,48,0,4,,,4,,,79,64
4788,note_off,,,,,0,0,4,,,4,,,76,64
4788,note_off,,,,,48,0,6,,,6,,,79,64
4788,note_off,,,,,48,0,5,,,5,,,79,64
4788,note_off,,,,,48,0,7,,,7,,,76,64
4800,note_on,,,,,12,0,7,,,7,,,78,95
4800,note_on,,,,,50,0,10,,,11,,,33,95
4800,note_on,,,,,50,0,9,,,10,,,45,95
4800,note_on,,,,,12,0,4,,,4,,,78,95
4800,note_on,,,,,50,0,8,,,8,,,69,95
4800,note_on,,,,,12,0,6,,,6,,,81,95
4800,note_on,,,,,12,0,5,,,5,,,81,95
4800,note_on,,,,,0,0,4,,,4,,,81,95
4990,note_off,,,,,190,0,8,,,8,,,69,64
4990,note_off,,,,,190,0,9,,,10,,,45,64
4990,note_off,,,,,190,0,10,,,11,,,33,64
4992,note_off,,,,,192,0,4,,,4,,,81,64
4992,note_off,,,,,0,0,4,,,4,,,78,64
4992,note_off,,,,,192,0,6,,,6,,,81,64
4992,note_off,,,,,192,0,5,,,5,,,81,64
4992,note_off,,,,,192,0,7,,,7,,,78,64
5040,note_on,,,,,50,0,10,,,11,,,38,95
5040,note_on,,,,,48,0,4,,,4,,,74,95
5040,note_on,,,,,50,0,8,,,8,,,69,95
5040,note_on,,,,,48,0,5,,,5,,,78,95
5040,note_on,,,,,50,0,9,,,10,,,50,95
5040,note_on,,,,,48,0,6,,,6,,,78,95
5040,note_on,,,,,0,0,4,,,4,,,78,95
5040,note_on,,,,,48,0,7,,,7,,,74,95
5230,note_off,,,,,190,0,6,,,6,,,78,64
5230,note_off,,,,,190,0,10,,,11,,,38,64
5230,note_off,,,,,190,0,8,,,8,,,69,64
5230,note_off,,,,,190,0,7,,,7,,,74,64
5230,note_off,,,,,190,0,9,,,10,,,50,64
5230,note_off,,,,,190,0,5,,,5,,,78,64
5230,note_off,,,,,0,0,4,,,4,,,74,64
5230,note_off,,,,,190,0,4,,,4,,,78,64
5280,note_on,,,,,50,0,10,,,11,,,38,95
5280,note_on,,,,,50,0,7,,,7,,,74,95
5280,note_on,,,,,50,0,9,,,10,,,50,95
5280,note_on,,,,,50,0,8,,,8,,,69,95
5280,note_on,,,,,50,0,6,,,6,,,78,95
5280,note_on,,,,,0,0,4,,,4,,,78,95
5280,note_on,,,,,50,0,4,,,4,,,74,95
5280,note_on,,,,,50,0,5,,,5,,,78,95
5375,note_off,,,,,95,0,8,,,8,,,69,64
5375,note_off,,,,,95,0,6,,,6,,,78,64
5375,note_off,,,,,95,0,9,,,10,,,50,64
5375,note_off,,,,,95,0,10,,,11,,,38,64
5375,note_off,,,,,95,0,5,,,5,,,78,64
5375,note_off,,,,,95,0,7,,,7,,,74,64
5375,note_off,,,,,95,0,4,,,4,,,78,64
5375,note_off,,,,,0,0,4,,,4,,,74,64
5400,note_on,,,,,25,0,6,,,6,,,78,95
5400,note_on,,,,,25,0,9,,,10,,,50,95
5400,note_on,,,,,25,0,8,,,8,,,69,95
5400,note_on,,,,,0,0,4,,,4,,,78,95
5400,note_on,,,,,25,0,4,,,4,,,74,95
5400,note_on,,,,,25,0,7,,,7,,,74,95
5400,note_on,,,,,25,0,5,,,5,,,78,95
5400,note_on,,,,,25,0,10,,,11,,,38,95
5495,note_off,,,,,95,0,8,,,8,,,69,64
5495,note_off,,,,,95,0,9,,,10,,,50,64
5495,note_off,,,,,95,0,6,,,6,,,78,64
5495,note_off,,,,,95,0,5,,,5,,,78,64
5495,note_off,,,,,95,0,7,,,7,,,74,64
5495,note_off,,,,,95,0,10,,,11,,,38,64
5495,note_off,,,,,95,0,4,,,4,,,78,64
5495,note_off,,,,,0,0,4,,,4,,,74,64
5520,note_on,,,,,25,0,4,,,4,,,74,95
5520,note_on,,,,,25,0,7,,,7,,,74,95
5520,note_on,,,,,25,0,8,,,8,,,69,95
5520,note_on,,,,,25,0,5,,,5,,,78,95
5520,note_on,,,,,0,0,4,,,4,,,78,95
5520,note_on,,,,,25,0,10,,,11,,,38,95
5520,note_on,,,,,25,0,6,,,6,,,78,95
5520,note_on,,,,,25,0,9,,,10,,,50,95
5615,note_off,,,,,95,0,8,,,8,,,69,64
5615,note_off,,,,,95,0,9,,,10,,,50,64
5615,note_off,,,,,95,0,4,,,4,,,78,64
5615,note_off,,,,,95,0,10,,,11,,,38,64
5615,note_off,,,,,0,0,4,,,4,,,74,64
5615,note_off,,,,,95,0,6,,,6,,,78,64
5615,note_off,,,,,95,0,5,,,5,,,78,64
5615,note_off,,,,,95,0,7,,,7,,,74,64
5640,note_on,,,,,25,0,9,,,10,,,50,95
5640,note_on,,,,,25,0,7,,,7,,,74,95
5640,note_on,,,,,25,0,10,,,11,,,38,95
5640,note_on,,,,,25,0,5,,,5,,,78,95
5640,note_on,,,,,25,0,8,,,8,,,69,95
5640,note_on,,,,,25,0,6,,,6,,,78,95
5640,note_on,,,,,25,0,4,,,4,,,74,95
5640,note_on,,,,,0,0,4,,,4,,,78,95
5735,note_off,,,,,95,0,7,,,7,,,74,64
5735,note_off,,,,,95,0,9,,,10,,,50,64
5735,note_off,,,,,95,0,8,,,8,,,69,64
5735,note_off,,,,,0,0,4,,,4,,,74,64
5735,note_off,,,,,95,0,6,,,6,,,78,64
5735,note_off,,,,,95,0,10,,,11,,,38,64
5735,note_off,,,,,95,0,4,,,4,,,78,64
5735,note_off,,,,,95,0,5,,,5,,,78,64
5760,note_on,,,,,25,0,10,,,11,,,38,95
5760,note_on,,,,,25,0,8,,,8,,,69,95
5760,note_on,,,,,25,0,4,,,4,,,74,95
5760,note_on,,,,,25,0,7,,,7,,,74,95
5760,note_on,,,,,25,0,5,,,5,,,78,95
5760,note_on,,,,,0,0,4,,,4,,,78,95
5760,note_on,,,,,25,0,9,,,10,,,50,95
5760,note_on,,,,,25,0,6,,,6,,,78,95
5950,note_off,,,,,190,0,9,,,10,,,50,64
5950,note_off,,,,,190,0,10,,,11,,,38,64
6000,note_on,,,,,50,0,9,,,10,,,54,95
6000,note_on,,,,,50,0,10,,,11,,,42,95
6190,note_off,,,,,190,0,9,,,10,,,54,64
6190,note_off,,,,,190,0,10,,,11,,,42,64
6240,note_on,,,,,50,0,9,,,10,,,57,95
6240,note_on,,,,,50,0,10,,,11,,,45,95
6335,note_off,,,,,575,0,5,,,5,,,78,64
6335,note_off,,,,,575,0,4,,,4,,,78,64
6335,note_off,,,,,575,0,8,,,8,,,69,64
6335,note_off,,,,,575,0,7,,,7,,,74,64
6335,note_off,,,,,575,0,6,,,6,,,78,64
6335,note_off,,,,,0,0,4,,,4,,,74,64
6430,note_off,,,,,190,0,9,,,10,,,57,64
6430,note_off,,,,,190,0,10,,,11,,,45,64
6480,note_on,,,,,145,0,8,,,8,,,66,95
6480,note_on,,,,,50,0,9,,,10,,,62,95
6480,note_on,,,,,145,0,6,,,6,,,81,95
6480,note_on,,,,,145,0,5,,,5,,,81,95
6480,note_on,,,,,50,0,10,,,11,,,50,95
6480,note_on,,,,,145,0,7,,,7,,,66,95
6670,note_off,,,,,190,0,6,,,6,,,81,64
6670,note_off,,,,,190,0,10,,,11,,,50,64
6670,note_off,,,,,190,0,8,,,8,,,66,64
6670,note_off,,,,,190,0,5,,,5,,,81,64
6670,note_off,,,,,190,0,9,,,10,,,62,64
6670,note_off,,,,,190,0,7,,,7,,,66,64
6720,note_on,,,,,50,0,10,,,11,,,38,95
6720,note_on,,,,,50,0,6,,,6,,,81,95
6720,note_on,,,,,50,0,9,,,10,,,50,95
6720,note_on,,,,,50,0,7,,,7,,,66,95
6720,note_on,,,,,50,0,5,,,5,,,81,95
6720,note_on,,,,,50,0,8,,,8,,,66,95
6910,note_off,,,,,190,0,10,,,11,,,38,64
6910,note_off,,,,,190,0,5,,,5,,,81,64
6910,note_off,,,,,190,0,9,,,10,,,50,64
6910,note_off,,,,,190,0,8,,,8,,,66,64
6910,note_off,,,,,190,0,6,,,6,,,81,64
6910,note_off,,,,,190,0,7,,,7,,,66,64
6960,note_on,,,,,50,0,9,,,10,,,62,95
6960,note_on,,,,,50,0,6,,,6,,,81,95
6960,note_on,,,,,50,0,10,,,11,,,50,95
6960,note_on,,,,,50,0,8,,,8,,,66,95
6960,note_on,,,,,50,0,7,,,7,,,66,95
6960,note_on,,,,,50,0,5,,,5,,,81,95
7150,note_off,,,,,190,0,6,,,6,,,81,64
7150,note_off,,,,,190,0,8,,,8,,,66,64
7150,note_off,,,,,190,0,5,,,5,,,81,64
7150,note_off,,,,,190,0,10,,,11,,,50,64
7150,note_off,,,,,190,0,9,,,10,,,62,64
7150,note_off,,,,,190,0,7,,,7,,,66,64
7200,note_on,,,,,50,0,7,,,7,,,64,95
7200,note_on,,,,,50,0,6,,,6,,,81,95
7200,note_on,,,,,50,0,5,,,5,,,81,95
7200,note_on,,,,,50,0,10,,,11,,,49,95
7200,note_on,,,,,50,0,8,,,8,,,64,95
7200,note_on,,,,,50,0,9,,,10,,,61,95
7390,note_off,,,,,190,0,5,,,5,,,81,64
7390,note_off,,,,,190,0,6,,,6,,,81,64
7390,note_off,,,,,190,0,9,,,10,,,61,64
7390,note_off,,,,,190,0,8,,,8,,,64,64
7390,note_off,,,,,190,0,10,,,11,,,49,64
7390,note_off,,,,,190,0,7,,,7,,,64,64
7440,note_on,,,,,50,0,9,,,10,,,49,95
7440,note_on,,,,,50,0,6,,,6,,,83,95
7440,note_on,,,,,50,0,10,,,11,,,37,95
7440,note_on,,,,,50,0,7,,,7,,,64,95
7440,note_on,,,,,50,0,5,,,5,,,83,95
7440,note_on,,,,,50,0,8,,,8,,,64,95
7630,note_off,,,,,190,0,7,,,7,,,64,64
7630,note_off,,,,,190,0,8,,,8,,,64,64
7630,note_off,,,,,190,0,9,,,10,,,49,64
7630,note_off,,,,,190,0,5,,,5,,,83,64
7630,note_off,,,,,190,0,10,,,11,,,37,64
7630,note_off,,,,,190,0,6,,,6,,,83,64
7680,note_on,,,,,50,0,10,,,11,,,49,95
7680,note_on,,,,,50,0,6,,,6,,,85,95
7680,note_on,,,,,50,0,7,,,7,,,69,95
7680,note_on,,,,,50,0,8,,,8,,,64,95
7680,note_on,,,,,50,0,9,,,10,,,61,95
7680,note_on,,,,,50,0,5,,,5,,,85,95
7870,note_off,,,,,190,0,8,,,8,,,64,64
7870,note_off,,,,,190,0,10,,,11,,,49,64
7870,note_off,,,,,190,0,7,,,7,,,69,64
7870,note_off,,,,,190,0,5,,,5,,,85,64
7870,note_off,,,,,190,0,9,,,10,,,61,64
7870,note_off,,,,,190,0,6,,,6,,,85,64
7920,note_on,,,,,50,0,10,,,11,,,47,95
7920,note_on,,,,,50,0,7,,,7,,,66,95
7920,note_on,,,,,50,0,6,,,6,,,86,95
7920,note_on,,,,,50,0,5,,,5,,,86,95
7920,note_on,,,,,50,0,8,,,8,,,66,95
7920,note_on,,,,,50,0,9,,,10,,,59,95
8110,note_off,,,,,190,0,5,,,5,,,86,64
8110,note_off,,,,,190,0,9,,,10,,,59,64
8110,note_off,,,,,190,0,6,,,6,,,86,64
8110,note_off,,,,,190,0,10,,,11,,,47,64
8110,note_off,,,,,190,0,8,,,8,,,66,64
8110,note_off,,,,,190,0,7,,,7,,,66,64
8160,note_on,,,,,50,0,5,,,5,,,86,95
8160,note_on,,,,,50,0,8,,,8,,,66,95
8160,note_on,,,,,50,0,7,,,7,,,66,95
8160,note_on,,,,,50,0,6,,,6,,,86,95
8160,note_on,,,,,50,0,9,,,10,,,59,95
8160,note_on,,,,,50,0,10,,,11,,,47,95
8255,note_off,,,,,95,0,8,,,8,,,66,64
8255,note_off,,,,,95,0,7,,,7,,,66,64
8255,note_off,,,,,95,0,5,,,5,,,86,64
8255,note_off,,,,,95,0,6,,,6,,,86,64
8280,note_on,,,,,25,0,7,,,7,,,66,95
8280,note_on,,,,,25,0,6,,,6,,,86,95
8280,note_on,,,,,25,0,5,,,5,,,86,95
8280,note_on,,,,,25,0,8,,,8,,,66,95
8350,note_off,,,,,190,0,9,,,10,,,59,64
8350,note_off,,,,,190,0,10,,,11,,,47,64
8375,note_off,,,,,95,0,6,,,6,,,86,64
8375,note_off,,,,,95,0,7,,,7,,,66,64
8375,note_off,,,,,95,0,5,,,5,,,86,64
8375,note_off,,,,,95,0,8,,,8,,,66,64
8400,note_on,,,,,25,0,6,,,6,,,86,95
8400,note_on,,,,,50,0,10,,,11,,,47,95
8400,note_on,,,,,25,0,8,,,8,,,66,95
8400,note_on,,,,,25,0,7,,,7,,,66,95
8400,note_on,,,,,50,0,9,,,10,,,59,95
8400,note_on,,,,,25,0,5,,,5,,,86,95
8495,note_off,,,,,95,0,8,,,8,,,66,64
8495,note_off,,,,,95,0,5,,,5,,,86,64
8495,note_off,,,,,95,0,7,,,7,,,66,64
8495,note_off,,,,,95,0,6,,,6,,,86,64
8520,note_on,,,,,25,0,5,,,5,,,86,95
8520,note_on,,,,,25,0,7,,,7,,,67,95
8520,note_on,,,,,25,0,8,,,8,,,67,95
8520,note_on,,,,,25,0,6,,,6,,,86,95
8590,note_off,,,,,190,0,10,,,11,,,47,64
8590,note_off,,,,,190,0,9,,,10,,,59,64
8615,note_off,,,,,95,0,5,,,5,,,86,64
8615,note_off,,,,,95,0,6,,,6,,,86,64
8615,note_off,,,,,95,0,8,,,8,,,67,64
8615,note_off,,,,,95,0,7,,,7,,,67,64
8640,note_on,,,,,50,0,10,,,11,,,42,95
8640,note_on,,,,,25,0,6,,,6,,,86,95
8640,note_on,,,,,25,0,8,,,8,,,69,95
8640,note_on,,,,,50,0,9,,,10,,,54,95
8640,note_on,,,,,25,0,7,,,7,,,69,95
8640,note_on,,,,,25,0,5,,,5,,,86,95
9025,note_off,,,,,385,0,5,,,5,,,86,64
9025,note_off,,,,,385,0,8,,,8,,,69,64
9025,note_off,,,,,385,0,9,,,10,,,54,64
9025,note_off,,,,,385,0,10,,,11,,,42,64
9025,note_off,,,,,385,0,6,,,6,,,86,64
9025,note_off,,,,,385,0,7,,,7,,,69,64
9120,note_on,,,,,95,0,5,,,5,,,81,95
9120,note_on,,,,,2785,0,4,,,4,,,78,95
9120,note_on,,,,,95,0,9,,,10,,,50,95
9120,note_on,,,,,95,0,6,,,6,,,81,95
9120,note_on,,,,,95,0,8,,,8,,,62,95
9120,note_on,,,,,95,0,7,,,7,,,78,95
9120,note_on,,,,,0,0,4,,,4,,,81,95
9120,note_on,,,,,95,0,10,,,11,,,38,95
9310,note_off,,,,,190,0,8,,,8,,,62,64
9310,note_off,,,,,190,0,7,,,7,,,78,64
9310,note_off,,,,,190,0,5,,,5,,,81,64
9310,note_off,,,,,190,0,6,,,6,,,81,64
9310,note_off,,,,,190,0,9,,,10,,,50,64
9310,note_off,,,,,190,0,10,,,11,,,38,64
9312,note_off,,,,,192,0,4,,,4,,,81,64
9312,note_off,,,,,0,0,4,,,4,,,78,64
9360,note_on,,,,,50,0,5,,,5,,,83,95
9360,note_on,,,,,50,0,8,,,8,,,62,95
9360,note_on,,,,,50,0,10,,,11,,,43,95
9360,note_on,,,,,0,0,4,,,4,,,83,95
9360,note_on,,,,,50,0,7,,,7,,,79,95
9360,note_on,,,,,48,0,4,,,4,,,79,95
9360,note_on,,,,,50,0,9,,,10,,,55,95
9360,note_on,,,,,50,0,6,,,6,,,83,95
9550,note_off,,,,,190,0,4,,,4,,,83,64
9550,note_off,,,,,190,0,7,,,7,,,79,64
9550,note_off,,,,,190,0,5,,,5,,,83,64
9550,note_off,,,,,190,0,10,,,11,,,43,64
9550,note_off,,,,,190,0,9,,,10,,,55,64
9550,note_off,,,,,0,0,4,,,4,,,79,64
9550,note_off,,,,,190,0,6,,,6,,,83,64
9600,note_on,,,,,50,0,5,,,5,,,81,95
9600,note_on,,,,,0,0,4,,,4,,,81,95
9600,note_on,,,,,50,0,9,,,10,,,47,95
9600,note_on,,,,,50,0,6,,,6,,,81,95
9600,note_on,,,,,50,0,10,,,11,,,35,95
9600,note_on,,,,,50,0,4,,,4,,,78,95
9600,note_on,,,,,50,0,7,,,7,,,78,95
9745,note_off,,,,,385,0,8,,,8,,,62,64
9790,note_off,,,,,190,0,6,,,6,,,81,64
9790,note_off,,,,,190,0,10,,,11,,,35,64
9790,note_off,,,,,0,0,4,,,4,,,78,64
9790,note_off,,,,,190,0,4,,,4,,,81,64
9790,note_off,,,,,190,0,9,,,10,,,47,64
9790,note_off,,,,,190,0,5,,,5,,,81,64
9790,note_off,,,,,190,0,7,,,7,,,78,64
9840,note_on,,,,,50,0,5,,,5,,,79,95
9840,note_on,,,,,50,0,4,,,4,,,76,95
9840,note_on,,,,,0,0,4,,,4,,,79,95
9840,note_on,,,,,50,0,9,,,10,,,49,95
9840,note_on,,,,,50,0,10,,,11,,,37,95
9840,note_on,,,,,50,0,7,,,7,,,76,95
9840,note_on,,,,,95,0,8,,,8,,,64,95
9840,note_on,,,,,50,0,6,,,6,,,79,95
10030,note_off,,,,,190,0,8,,,8,,,64,64
10030,note_off,,,,,190,0,9,,,10,,,49,64
10030,note_off,,,,,190,0,6,,,6,,,79,64
10030,note_off,,,,,190,0,4,,,4,,,79,64
10030,note_off,,,,,190,0,5,,,5,,,79,64
10030,note_off,,,,,190,0,7,,,7,,,76,64
10030,note_off,,,,,0,0,4,,,4,,,76,64
10030,note_off,,,,,190,0,10,,,11,,,37,64
10080,note_on,,,,,50,0,7,,,7,,,74,95
10080,note_on,,,,,50,0,8,,,8,,,66,95
10080,note_on,,,,,0,0,4,,,4,,,78,95
10080,note_on,,,,,50,0,4,,,4,,,74,95
10080,note_on,,,,,50,0,5,,,5,,,78,95
10080,note_on,,,,,50,0,6,,,6,,,78,95
10080,note_on,,,,,50,0,10,,,11,,,38,95
10080,note_on,,,,,50,0,9,,,10,,,50,95
10270,note_off,,,,,0,0,4,,,4,,,74,64
10270,note_off,,,,,190,0,4,,,4,,,78,64
10270,note_off,,,,,190,0,6,,,6,,,78,64
10270,note_off,,,,,190,0,8,,,8,,,66,64
10270,note_off,,,,,190,0,9,,,10,,,50,64
10270,note_off,,,,,190,0,5,,,5,,,78,64
10270,note_off,,,,,190,0,7,,,7,,,74,64
10270,note_off,,,,,190,0,10,,,11,,,38,64
10320,note_on,,,,,50,0,10,,,11,,,42,95
10320,note_on,,,,,50,0,8,,,8,,,69,95
10320,note_on,,,,,0,0,4,,,4,,,76,95
10320,note_on,,,,,50,0,4,,,4,,,69,95
10320,note_on,,,,,50,0,7,,,7,,,73,95
10320,note_on,,,,,50,0,6,,,6,,,76,95
10320,note_on,,,,,50,0,9,,,10,,,54,95
10320,note_on,,,,,50,0,5,,,5,,,76,95
10510,note_off,,,,,190,0,8,,,8,,,69,64
10510,note_off,,,,,0,0,4,,,4,,,69,64
10510,note_off,,,,,190,0,4,,,4,,,76,64
10510,note_off,,,,,190,0,9,,,10,,,54,64
10510,note_off,,,,,190,0,5,,,5,,,76,64
10510,note_off,,,,,190,0,10,,,11,,,42,64
10510,note_off,,,,,190,0,6,,,6,,,76,64
10510,note_off,,,,,190,0,7,,,7,,,73,64
10560,note_on,,,,,50,0,5,,,5,,,74,95
10560,note_on,,,,,0,0,4,,,4,,,74,95
10560,note_on,,,,,50,0,4,,,4,,,66,95
10560,note_on,,,,,50,0,9,,,10,,,59,95
10560,note_on,,,,,50,0,10,,,11,,,47,95
10560,note_on,,,,,50,0,7,,,7,,,71,95
10560,note_on,,,,,50,0,8,,,8,,,71,95
10560,note_on,,,,,50,0,6,,,6,,,74,95
10750,note_off,,,,,0,0,4,,,4,,,66,64
10750,note_off,,,,,190,0,4,,,4,,,74,64
10750,note_off,,,,,190,0,9,,,10,,,59,64
10750,note_off,,,,,190,0,8,,,8,,,71,64
10750,note_off,,,,,190,0,10,,,11,,,47,64
10750,note_off,,,,,190,0,7,,,7,,,71,64
10750,note_off,,,,,190,0,6,,,6,,,74,64
10750,note_off,,,,,190,0,5,,,5,,,74,64
10800,note_on,,,,,50,0,6,,,6,,,76,95
10800,note_on,,,,,50,0,9,,,10,,,57,95
10800,note_on,,,,,50,0,10,,,11,,,45,95
10800,note_on,,,,,50,0,5,,,5,,,76,95
10800,note_on,,,,,50,0,7,,,7,,,73,95
10800,note_on,,,,,50,0,4,,,4,,,69,95
10800,note_on,,,,,0,0,4,,,4,,,76,95
10800,note_on,,,,,50,0,8,,,8,,,64,95
10990,note_off,,,,,190,0,5,,,5,,,76,64
10990,note_off,,,,,190,0,4,,,4,,,76,64
10990,note_off,,,,,0,0,4,,,4,,,69,64
10990,note_off,,,,,190,0,7,,,7,,,73,64
10990,note_off,,,,,190,0,10,,,11,,,45,64
10990,note_off,,,,,190,0,6,,,6,,,76,64
10990,note_off,,,,,190,0,9,,,10,,,57,64
10990,note_off,,,,,190,0,8,,,8,,,64,64
11040,note_on,,,,,0,0,4,,,4,,,69,95
11040,note_on,,,,,50,0,4,,,4,,,69,95
11040,note_on,,,,,50,0,7,,,7,,,73,95
11040,note_on,,,,,50,0,10,,,11,,,45,95
11040,note_on,,,,,50,0,6,,,6,,,69,95
11040,note_on,,,,,50,0,5,,,5,,,69,95
11040,note_on,,,,,50,0,9,,,10,,,57,95
11040,note_on,,,,,50,0,8,,,8,,,61,95
11135,note_off,,,,,95,0,5,,,5,,,69,64
11135,note_off,,,,,95,0,10,,,11,,,45,64
11135,note_off,,,,,95,0,6,,,6,,,69,64
11135,note_off,,,,,0,0,4,,,4,,,69,64
11135,note_off,,,,,95,0,7,,,7,,,73,64
11135,note_off,,,,,95,0,4,,,4,,,69,64
11135,note_off,,,,,95,0,8,,,8,,,61,64
11135,note_off,,,,,95,0,9,,,10,,,57,64
11160,note_on,,,,,25,0,10,,,11,,,45,95
11160,note_on,,,,,25,0,7,,,7,,,73,95
11160,note_on,,,,,25,0,5,,,5,,,69,95
11160,note_on,,,,,25,0,4,,,4,,,69,95
11160,note_on,,,,,25,0,8,,,8,,,61,95
11160,note_on,,,,,25,0,9,,,10,,,57,95
11160,note_on,,,,,25,0,6,,,6,,,69,95
11160,note_on,,,,,0,0,4,,,4,,,69,95
11255,note_off,,,,,95,0,5,,,5,,,69,64
11255,note_off,,,,,95,0,6,,,6,,,69,64
11255,note_off,,,,,95,0,10,,,11,,,45,64
11255,note_off,,,,,95,0,7,,,7,,,73,64
11255,note_off,,,,,0,0,4,,,4,,,69,64
11255,note_off,,,,,95,0,4,,,4,,,69,64
11255,note_off,,,,,95,0,8,,,8,,,61,64
11255,note_off,,,,,95,0,9,,,10,,,57,64
11280,note_on,,,,,25,0,9,,,10,,,57,95
11280,note_on,,,,,25,0,4,,,4,,,69,95
11280,note_on,,,,,25,0,10,,,11,,,45,95
11280,note_on,,,,,0,0,4,,,4,,,69,95
11280,note_on,,,,,25,0,6,,,6,,,69,95
11280,note_on,,,,,25,0,8,,,8,,,61,95
11280,note_on,,,,,25,0,5,,,5,,,69,95
11280,note_on,,,,,25,0,7,,,7,,,73,95
11375,note_off,,,,,95,0,4,,,4,,,69,64
11375,note_off,,,,,0,0,4,,,4,,,69,64
11375,note_off,,,,,95,0,5,,,5,,,69,64
11375,note_off,,,,,95,0,6,,,6,,,69,64
11375,note_off,,,,,95,0,8,,,8,,,61,64
11375,note_off,,,,,95,0,10,,,11,,,45,64
11375,note_off,,,,,95,0,7,,,7,,,73,64
11375,note_off,,,,,95,0,9,,,10,,,57,64
11400,note_on,,,,,25,0,5,,,5,,,69,95
11400,note_on,,,,,25,0,8,,,8,,,61,95
11400,note_on,,,,,25,0,9,,,10,,,57,95
11400,note_on,,,,,0,0,4,,,4,,,69,95
11400,note_on,,,,,25,0,7,,,7,,,73,95
11400,note_on,,,,,25,0,10,,,11,,,45,95
11400,note_on,,,,,25,0,6,,,6,,,69,95
11400,note_on,,,,,25,0,4,,,4,,,69,95
11495,note_off,,,,,0,0,4,,,4,,,69,64
11495,note_off,,,,,95,0,4,,,4,,,69,64
11495,note_off,,,,,95,0,8,,,8,,,61,64
11495,note_off,,,,,95,0,7,,,7,,,73,64
11495,note_off,,,,,95,0,6,,,6,,,69,64
11495,note_off,,,,,95,0,5,,,5,,,69,64
11495,note_off,,,,,95,0,9,,,10,,,57,64
11495,note_off,,,,,95,0,10,,,11,,,45,64
11520,note_on,,,,,25,0,9,,,10,,,57,95
11520,note_on,,,,,25,0,10,,,11,,,45,95
11520,note_on,,,,,25,0,6,,,6,,,69,95
11520,note_on,,,,,0,0,4,,,4,,,69,95
11520,note_on,,,,,25,0,4,,,4,,,69,95
11520,note_on,,,,,25,0,7,,,7,,,73,95
11520,note_on,,,,,25,0,5,,,5,,,69,95
11520,note_on,,,,,25,0,8,,,8,,,61,95
11710,note_off,,,,,190,0,9,,,10,,,57,64
11710,note_off,,,,,190,0,10,,,11,,,45,64
11760,note_on,,,,,50,0,10,,,11,,,49,95
11760,note_on,,,,,50,0,9,,,10,,,61,95
11950,note_off,,,,,190,0,10,,,11,,,49,64
11950,note_off,,,,,190,0,9,,,10,,,61,64
12000,note_on,,,,,50,0,9,,,10,,,57,95
12000,note_on,,,,,50,0,10,,,11,,,45,95
12095,note_off,,,,,575,0,8,,,8,,,61,64
12095,note_off,,,,,575,0,5,,,5,,,69,64
12095,note_off,,,,,0,0,4,,,4,,,69,64
12095,note_off,,,,,575,0,4,,,4,,,69,64
12095,note_off,,,,,575,0,6,,,6,,,69,64
12095,note_off,,,,,575,0,7,,,7,,,73,64
12190,note_off,,,,,190,0,10,,,11,,,45,64
12190,note_off,,,,,190,0,9,,,10,,,57,64
12240,note_on,,,,,50,0,10,,,11,,,50,95
12240,note_on,,,,,0,0,4,,,4,,,78,95
12240,note_on,,,,,145,0,5,,,5,,,78,95
12240,note_on,,,,,50,0,9,,,10,,,62,95
12240,note_on,,,,,145,0,4,,,4,,,74,95
12240,note_on,,,,,145,0,8,,,8,,,69,95
12240,note_on,,,,,145,0,7,,,7,,,74,95
12240,note_on,,,,,145,0,6,,,6,,,78,95
12335,note_off,,,,,95,0,5,,,5,,,78,64
12335,note_off,,,,,95,0,7,,,7,,,74,64
12335,note_off,,,,,95,0,6,,,6,,,78,64
12335,note_off,,,,,0,0,4,,,4,,,74,64
12335,note_off,,,,,95,0,4,,,4,,,78,64
12360,note_on,,,,,25,0,6,,,6,,,79,95
12360,note_on,,,,,0,0,4,,,4,,,79,95
12360,note_on,,,,,25,0,4,,,4,,,76,95
12360,note_on,,,,,25,0,7,,,7,,,76,95
12360,note_on,,,,,25,0,5,,,5,,,79,95
12430,note_off,,,,,190,0,9,,,10,,,62,64
12430,note_off,,,,,190,0,10,,,11,,,50,64
12430,note_off,,,,,190,0,8,,,8,,,69,64
12455,note_off,,,,,95,0,4,,,4,,,79,64
12455,note_off,,,,,95,0,7,,,7,,,76,64
12455,note_off,,,,,95,0,6,,,6,,,79,64
12455,note_off,,,,,95,0,5,,,5,,,79,64
12455,note_off,,,,,0,0,4,,,4,,,76,64
12480,note_on,,,,,25,0,4,,,4,,,78,95
12480,note_on,,,,,0,0,4,,,4,,,81,95
12480,note_on,,,,,25,0,7,,,7,,,78,95
12480,note_on,,,,,50,0,10,,,11,,,38,95
12480,note_on,,,,,50,0,9,,,10,,,50,95
12480,note_on,,,,,25,0,6,,,6,,,81,95
12480,note_on,,,,,25,0,5,,,5,,,81,95
12480,note_on,,,,,50,0,8,,,8,,,57,95
12670,note_off,,,,,190,0,8,,,8,,,57,64
12670,note_off,,,,,0,0,4,,,4,,,78,64
12670,note_off,,,,,190,0,10,,,11,,,38,64
12670,note_off,,,,,190,0,7,,,7,,,78,64
12670,note_off,,,,,190,0,9,,,10,,,50,64
12670,note_off,,,,,190,0,6,,,6,,,81,64
12670,note_off,,,,,190,0,5,,,5,,,81,64
12670,note_off,,,,,190,0,4,,,4,,,81,64
12720,note_on,,,,,50,0,7,,,7,,,76,95
12720,note_on,,,,,50,0,10,,,11,,,42,95
12720,note_on,,,,,50,0,6,,,6,,,79,95
12720,note_on,,,,,50,0,8,,,8,,,57,95
12720,note_on,,,,,0,0,4,,,4,,,79,95
12720,note_on,,,,,50,0,4,,,4,,,76,95
12720,note_on,,,,,50,0,5,,,5,,,79,95
12720,note_on,,,,,50,0,9,,,10,,,54,95
12815,note_off,,,,,0,0,4,,,4,,,76,64
12815,note_off,,,,,95,0,4,,,4,,,79,64
12815,note_off,,,,,95,0,7,,,7,,,76,64
12815,note_off,,,,,95,0,5,,,5,,,79,64
12815,note_off,,,,,95,0,6,,,6,,,79,64
12840,note_on,,,,,0,0,4,,,4,,,78,95
12840,note_on,,,,,25,0,7,,,7,,,74,95
12840,note_on,,,,,25,0,5,,,5,,,78,95
12840,note_on,,,,,25,0,6,,,6,,,78,95
12840,note_on,,,,,25,0,4,,,4,,,74,95
12910,note_off,,,,,190,0,9,,,10,,,54,64
12910,note_off,,,,,190,0,8,,,8,,,57,64
12910,note_off,,,,,190,0,10,,,11,,,42,64
12935,note_off,,,,,95,0,4,,,4,,,78,64
12935,note_off,,,,,0,0,4,,,4,,,74,64
12935,note_off,,,,,95,0,7,,,7,,,74,64
12935,note_off,,,,,95,0,5,,,5,,,78,64
12935,note_off,,,,,95,0,6,,,6,,,78,64
12960,note_on,,,,,50,0,10,,,11,,,45,95
12960,note_on,,,,,50,0,8,,,8,,,61,95
12960,note_on,,,,,25,0,7,,,7,,,73,95
12960,note_on,,,,,50,0,9,,,10,,,57,95
12960,note_on,,,,,25,0,4,,,4,,,69,95
12960,note_on,,,,,25,0,6,,,6,,,76,95
12960,note_on,,,,,0,0,4,,,4,,,76,95
12960,note_on,,,,,25,0,5,,,5,,,76,95
13055,note_off,,,,,95,0,5,,,5,,,76,64
13055,note_off,,,,,95,0,6,,,6,,,76,64
13055,note_off,,,,,95,0,4,,,4,,,76,64
13055,note_off,,,,,95,0,7,,,7,,,73,64
13080,note_on,,,,,25,0,4,,,4,,,78,95
13080,note_on,,,,,25,0,7,,,7,,,74,95
13080,note_on,,,,,25,0,5,,,5,,,78,95
13080,note_on,,,,,25,0,6,,,6,,,78,95
13150,note_off,,,,,190,0,9,,,10,,,57,64
13150,note_off,,,,,190,0,10,,,11,,,45,64
13150,note_off,,,,,190,0,8,,,8,,,61,64
13152,note_off,,,,,72,0,4,,,4,,,69,64
13175,note_off,,,,,95,0,6,,,6,,,78,64
13175,note_off,,,,,23,0,4,,,4,,,78,64
13175,note_off,,,,,95,0,7,,,7,,,74,64
13175,note_off,,,,,95,0,5,,,5,,,78,64
13200,note_on,,,,,0,0,4,,,4,,,79,95
13200,note_on,,,,,25,0,4,,,4,,,76,95
13200,note_on,,,,,50,0,9,,,10,,,45,95
13200,note_on,,,,,25,0,5,,,5,,,79,95
13200,note_on,,,,,25,0,7,,,7,,,76,95
13200,note_on,,,,,50,0,8,,,8,,,61,95
13200,note_on,,,,,25,0,6,,,6,,,79,95
13200,note_on,,,,,50,0,10,,,11,,,33,95
13390,note_off,,,,,190,0,8,,,8,,,61,64
13390,note_off,,,,,190,0,5,,,5,,,79,64
13390,note_off,,,,,190,0,6,,,6,,,79,64
13390,note_off,,,,,190,0,4,,,4,,,79,64
13390,note_off,,,,,190,0,7,,,7,,,76,64
13392,note_off,,,,,2,0,4,,,4,,,76,64
13440,note_on,,,,,50,0,5,,,5,,,78,95
13440,note_on,,,,,50,0,6,,,6,,,78,95
13440,note_on,,,,,0,0,4,,,4,,,78,95
13440,note_on,,,,,48,0,4,,,4,,,69,95
13440,note_on,,,,,50,0,7,,,7,,,74,95
13440,note_on,,,,,50,0,8,,,8,,,61,95
13535,note_off,,,,,95,0,7,,,7,,,74,64
13535,note_off,,,,,95,0,6,,,6,,,78,64
13535,note_off,,,,,95,0,4,,,4,,,78,64
13535,note_off,,,,,95,0,5,,,5,,,78,64
13560,note_on,,,,,25,0,6,,,6,,,76,95
13560,note_on,,,,,25,0,4,,,4,,,76,95
13560,note_on,,,,,25,0,5,,,5,,,76,95
13560,note_on,,,,,25,0,7,,,7,,,73,95
13585,note_off,,,,,385,0,10,,,11,,,33,64
13585,note_off,,,,,385,0,9,,,10,,,45,64
13630,note_off,,,,,190,0,8,,,8,,,61,64
13632,note_off,,,,,72,0,4,,,4,,,69,64
13655,note_off,,,,,95,0,7,,,7,,,73,64
13655,note_off,,,,,23,0,4,,,4,,,76,64
13655,note_off,,,,,95,0,5,,,5,,,76,64
13655,note_off,,,,,95,0,6,,,6,,,76,64
13680,note_on,,,,,25,0,6,,,6,,,78,95
13680,note_on,,,,,25,0,7,,,7,,,74,95
13680,note_on,,,,,95,0,10,,,11,,,50,95
13680,note_on,,,,,25,0,5,,,5,,,78,95
13680,note_on,,,,,50,0,8,,,8,,,62,95
13680,note_on,,,,,25,0,4,,,4,,,74,95
13680,note_on,,,,,0,0,4,,,4,,,78,95
13680,note_on,,,,,95,0,9,,,10,,,62,95
13775,note_off,,,,,0,0,4,,,4,,,74,64
13775,note_off,,,,,95,0,6,,,6,,,78,64
13775,note_off,,,,,95,0,7,,,7,,,74,64
13775,note_off,,,,,95,0,5,,,5,,,78,64
13775,note_off,,,,,95,0,4,,,4,,,78,64
13800,note_on,,,,,25,0,5,,,5,,,79,95
13800,note_on,,,,,0,0,4,,,4,,,79,95
13800,note_on,,,,,25,0,6,,,6,,,79,95
13800,note_on,,,,,25,0,7,,,7,,,76,95
13800,note_on,,,,,25,0,4,,,4,,,76,95
13870,note_off,,,,,190,0,10,,,11,,,50,64
13870,note_off,,,,,190,0,8,,,8,,,62,64
13870,note_off,,,,,190,0,9,,,10,,,62,64
13895,note_off,,,,,95,0,4,,,4,,,79,64
13895,note_off,,,,,0,0,4,,,4,,,76,64
13895,note_off,,,,,95,0,6,,,6,,,79,64
13895,note_off,,,,,95,0,5,,,5,,,79,64
13895,note_off,,,,,95,0,7,,,7,,,76,64
13920,note_on,,,,,25,0,6,,,6,,,81,95
13920,note_on,,,,,25,0,7,,,7,,,78,95
13920,note_on,,,,,50,0,8,,,8,,,57,95
13920,note_on,,,,,25,0,5,,,5,,,81,95
13920,note_on,,,,,50,0,9,,,10,,,50,95
13920,note_on,,,,,0,0,4,,,4,,,81,95
13920,note_on,,,,,25,0,4,,,4,,,78,95
13920,note_on,,,,,50,0,10,,,11,,,38,95
14110,note_off,,,,,190,0,8,,,8,,,57,64
14110,note_off,,,,,190,0,6,,,6,,,81,64
14110,note_off,,,,,190,0,4,,,4,,,81,64
14110,note_off,,,,,190,0,7,,,7,,,78,64
14110,note_off,,,,,190,0,10,,,11,,,38,64
14110,note_off,,,,,190,0,9,,,10,,,50,64
14110,note_off,,,,,0,0,4,,,4,,,78,64
14110,note_off,,,,,190,0,5,,,5,,,81,64
14160,note_on,,,,,50,0,9,,,10,,,54,95
14160,note_on,,,,,50,0,8,,,8,,,57,95
14160,note_on,,,,,50,0,6,,,6,,,79,95
14160,note_on,,,,,50,0,10,,,11,,,42,95
14160,note_on,,,,,0,0,4,,,4,,,79,95
14160,note_on,,,,,50,0,7,,,7,,,76,95
14160,note_on,,,,,50,0,5,,,5,,,79,95
14160,note_on,,,,,50,0,4,,,4,,,74,95
14255,note_off,,,,,95,0,4,,,4,,,79,64
14255,note_off,,,,,95,0,7,,,7,,,76,64
14255,note_off,,,,,95,0,5,,,5,,,79,64
14255,note_off,,,,,95,0,6,,,6,,,79,64
14280,note_on,,,,,25,0,4,,,4,,,78,95
14280,note_on,,,,,25,0,6,,,6,,,78,95
14280,note_on,,,,,25,0,7,,,7,,,74,95
14280,note_on,,,,,25,0,5,,,5,,,78,95
14350,note_off,,,,,190,0,9,,,10,,,54,64
14350,note_off,,,,,190,0,8,,,8,,,57,64
14350,note_off,,,,,190,0,10,,,11,,,42,64
14352,note_off,,,,,72,0,4,,,4,,,74,64
14375,note_off,,,,,95,0,7,,,7,,,74,64
14375,note_off,,,,,95,0,5,,,5,,,78,64
14375,note_off,,,,,95,0,6,,,6,,,78,64
14375,note_off,,,,,23,0,4,,,4,,,78,64
14400,note_on,,,,,25,0,6,,,6,,,76,95
14400,note_on,,,,,25,0,7,,,7,,,73,95
14400,note_on,,,,,0,0,4,,,4,,,76,95
14400,note_on,,,,,25,0,4,,,4,,,69,95
14400,note_on,,,,,50,0,10,,,11,,,45,95
14400,note_on,,,,,50,0,8,,,8,,,61,95
14400,note_on,,,,,50,0,9,,,10,,,57,95
14400,note_on,,,,,25,0,5,,,5,,,76,95
14495,note_off,,,,,95,0,7,,,7,,,73,64
14495,note_off,,,,,95,0,4,,,4,,,76,64
14495,note_off,,,,,95,0,5,,,5,,,76,64
14495,note_off,,,,,95,0,6,,,6,,,76,64
14520,note_on,,,,,25,0,4,,,4,,,78,95
14520,note_on,,,,,25,0,5,,,5,,,78,95
14520,note_on,,,,,25,0,6,,,6,,,78,95
14520,note_on,,,,,25,0,7,,,7,,,74,95
14590,note_off,,,,,190,0,9,,,10,,,57,64
14590,note_off,,,,,190,0,8,,,8,,,61,64
14590,note_off,,,,,190,0,10,,,11,,,45,64
14592,note_off,,,,,72,0,4,,,4,,,69,64
14615,note_off,,,,,95,0,7,,,7,,,74,64
14615,note_off,,,,,95,0,6,,,6,,,78,64
14615,note_off,,,,,95,0,5,,,5,,,78,64
14615,note_off,,,,,23,0,4,,,4,,,78,64
14640,note_on,,,,,25,0,6,,,6,,,79,95
14640,note_on,,,,,0,0,4,,,4,,,79,95
14640,note_on,,,,,25,0,7,,,7,,,76,95
14640,note_on,,,,,25,0,5,,,5,,,79,95
14640,note_on,,,,,25,0,4,,,4,,,76,95
14640,note_on,,,,,50,0,10,,,11,,,33,95
14640,note_on,,,,,50,0,8,,,8,,,61,95
14640,note_on,,,,,50,0,9,,,10,,,45,95
14830,note_off,,,,,190,0,8,,,8,,,61,64
14830,note_off,,,,,190,0,6,,,6,,,79,64
14830,note_off,,,,,190,0,5,,,5,,,79,64
14830,note_off,,,,,190,0,7,,,7,,,76,64
14830,note_off,,,,,190,0,4,,,4,,,79,64
14832,note_off,,,,,2,0,4,,,4,,,76,64
14880,note_on,,,,,48,0,4,,,4,,,69,95
14880,note_on,,,,,50,0,5,,,5,,,78,95
14880,note_on,,,,,50,0,6,,,6,,,78,95
14880,note_on,,,,,0,0,4,,,4,,,78,95
14880,note_on,,,,,50,0,7,,,7,,,74,95
14880,note_on,,,,,50,0,8,,,8,,,61,95
14975,note_off,,,,,95,0,5,,,5,,,78,64
14975,note_off,,,,,95,0,7,,,7,,,74,64
14975,note_off,,,,,95,0,4,,,4,,,78,64
14975,note_off,,,,,95,0,6,,,6,,,78,64
15000,note_on,,,,,25,0,4,,,4,,,76,95
15000,note_on,,,,,25,0,5,,,5,,,76,95
15000,note_on,,,,,25,0,7,,,7,,,73,95
15000,note_on,,,,,25,0,6,,,6,,,76,95
15025,note_off,,,,,385,0,9,,,10,,,45,64
15025,note_off,,,,,385,0,10,,,11,,,33,64
15070,note_off,,,,,190,0,8,,,8,,,61,64
15072,note_off,,,,,72,0,4,,,4,,,69,64
15095,note_off,,,,,23,0,4,,,4,,,76,64
15095,note_off,,,,,95,0,5,,,5,,,76,64
15095,note_off,,,,,95,0,6,,,6,,,76,64
15095,note_off,,,,,95,0,7,,,7,,,73,64
15120,note_on,,,,,25,0,6,,,6,,,78,95
15120,note_on,,,,,95,0,10,,,11,,,50,95
15120,note_on,,,,,25,0,5,,,5,,,78,95
15120,note_on,,,,,95,0,9,,,10,,,62,95
15120,note_on,,,,,50,0,8,,,8,,,69,95
15120,note_on,,,,,25,0,7,,,7,,,74,95
15120,note_on,,,,,0,0,4,,,4,,,78,95
15120,note_on,,,,,25,0,4,,,4,,,74,95
15215,note_off,,,,,95,0,5,,,5,,,78,64
15215,note_off,,,,,95,0,7,,,7,,,74,64
15215,note_off,,,,,95,0,6,,,6,,,78,64
15215,note_off,,,,,0,0,4,,,4,,,74,64
15215,note_off,,,,,95,0,4,,,4,,,78,64
15240,note_on,,,,,25,0,6,,,6,,,79,95
15240,note_on,,,,,25,0,4,,,4,,,76,95
15240,note_on,,,,,25,0,7,,,7,,,76,95
15240,note_on,,,,,25,0,5,,,5,,,79,95
15240,note_on,,,,,0,0,4,,,4,,,79,95
15310,note_off,,,,,190,0,10,,,11,,,50,64
15310,note_off,,,,,190,0,9,,,10,,,62,64
15310,note_off,,,,,190,0,8,,,8,,,69,64
15335,note_off,,,,,95,0,4,,,4,,,79,64
15335,note_off,,,,,0,0,4,,,4,,,76,64
15335,note_off,,,,,95,0,6,,,6,,,79,64
15335,note_off,,,,,95,0,7,,,7,,,76,64
15335,note_off,,,,,95,0,5,,,5,,,79,64
15360,note_on,,,,,50,0,9,,,10,,,50,95
15360,note_on,,,,,25,0,6,,,6,,,81,95
15360,note_on,,,,,50,0,10,,,11,,,38,95
15360,note_on,,,,,25,0,5,,,5,,,81,95
15360,note_on,,,,,50,0,8,,,8,,,66,95
15360,note_on,,,,,0,0,4,,,4,,,81,95
15360,note_on,,,,,25,0,4,,,4,,,78,95
15360,note_on,,,,,25,0,7,,,7,,,78,95
15550,note_off,,,,,0,0,4,,,4,,,78,64
15550,note_off,,,,,190,0,10,,,11,,,38,64
15550,note_off,,,,,190,0,9,,,10,,,50,64
15550,note_off,,,,,190,0,4,,,4,,,81,64
15550,note_off,,,,,190,0,6,,,6,,,81,64
15550,note_off,,,,,190,0,8,,,8,,,66,64
15550,note_off,,,,,190,0,7,,,7,,,78,64
15550,note_off,,,,,190,0,5,,,5,,,81,64
15600,note_on,,,,,50,0,5,,,5,,,79,95
15600,note_on,,,,,50,0,6,,,6,,,79,95
15600,note_on,,,,,50,0,8,,,8,,,61,95
15600,note_on,,,,,50,0,7,,,7,,,76,95
15600,note_on,,,,,50,0,4,,,4,,,76,95
15600,note_on,,,,,0,0,4,,,4,,,79,95
15600,note_on,,,,,50,0,10,,,11,,,42,95
15600,note_on,,,,,50,0,9,,,10,,,54,95
15790,note_off,,,,,190,0,9,,,10,,,54,64
15790,note_off,,,,,190,0,5,,,5,,,79,64
15790,note_off,,,,,190,0,6,,,6,,,79,64
15790,note_off,,,,,0,0,4,,,4,,,76,64
15790,note_off,,,,,190,0,4,,,4,,,79,64
15790,note_off,,,,,190,0,7,,,7,,,76,64
15790,note_off,,,,,190,0,10,,,11,,,42,64
15790,note_off,,,,,190,0,8,,,8,,,61,64
15840,note_on,,,,,50,0,6,,,6,,,78,95
15840,note_on,,,,,50,0,5,,,5,,,78,95
15840,note_on,,,,,50,0,9,,,10,,,62,95
15840,note_on,,,,,50,0,8,,,8,,,62,95
15840,note_on,,,,,50,0,10,,,11,,,50,95
15840,note_on,,,,,50,0,7,,,7,,,74,95
15840,note_on,,,,,50,0,4,,,4,,,74,95
15840,note_on,,,,,0,0,4,,,4,,,78,95
16030,note_off,,,,,190,0,7,,,7,,,74,64
16030,note_off,,,,,190,0,5,,,5,,,78,64
16030,note_off,,,,,190,0,9,,,10,,,62,64
16030,note_off,,,,,190,0,8,,,8,,,62,64
16030,note_off,,,,,190,0,6,,,6,,,78,64
16030,note_off,,,,,190,0,4,,,4,,,78,64
16030,note_off,,,,,190,0,10,,,11,,,50,64
16030,note_off,,,,,0,0,4,,,4,,,74,64
16080,note_on,,,,,50,0,5,,,5,,,79,95
16080,note_on,,,,,50,0,6,,,6,,,79,95
16080,note_on,,,,,50,0,7,,,7,,,69,95
16080,note_on,,,,,50,0,9,,,10,,,50,95
16080,note_on,,,,,0,0,4,,,4,,,79,95
16080,note_on,,,,,50,0,4,,,4,,,62,95
16080,note_on,,,,,50,0,8,,,8,,,62,95
16080,note_on,,,,,50,0,10,,,11,,,38,95
16175,note_off,,,,,95,0,5,,,5,,,79,64
16175,note_off,,,,,95,0,4,,,4,,,79,64
16175,note_off,,,,,95,0,6,,,6,,,79,64
16200,note_on,,,,,25,0,5,,,5,,,78,95
16200,note_on,,,,,25,0,6,,,6,,,78,95
16200,note_on,,,,,25,0,4,,,4,,,78,95
16270,note_off,,,,,70,0,4,,,4,,,62,64
16270,note_off,,,,,190,0,10,,,11,,,38,64
16270,note_off,,,,,190,0,7,,,7,,,69,64
16270,note_off,,,,,190,0,8,,,8,,,62,64
16270,note_off,,,,,190,0,9,,,10,,,50,64
16295,note_off,,,,,95,0,5,,,5,,,78,64
16295,note_off,,,,,95,0,6,,,6,,,78,64
16295,note_off,,,,,25,0,4,,,4,,,78,64
16320,note_on,,,,,50,0,7,,,7,,,69,95
16320,note_on,,,,,50,0,9,,,10,,,54,95
16320,note_on,,,,,0,0,4,,,4,,,76,95
16320,note_on,,,,,25,0,5,,,5,,,76,95
16320,note_on,,,,,25,0,4,,,4,,,69,95
16320,note_on,,,,,25,0,6,,,6,,,76,95
16320,note_on,,,,,50,0,8,,,8,,,64,95
16320,note_on,,,,,50,0,10,,,11,,,42,95
16415,note_off,,,,,95,0,6,,,6,,,76,64
16415,note_off,,,,,95,0,5,,,5,,,76,64
16415,note_off,,,,,95,0,4,,,4,,,76,64
16440,note_on,,,,,25,0,4,,,4,,,78,95
16440,note_on,,,,,25,0,6,,,6,,,78,95
16440,note_on,,,,,25,0,5,,,5,,,78,95
16510,note_off,,,,,70,0,4,,,4,,,69,64
16510,note_off,,,,,190,0,7,,,7,,,69,64
16510,note_off,,,,,190,0,8,,,8,,,64,64
16510,note_off,,,,,190,0,9,,,10,,,54,64
16510,note_off,,,,,190,0,10,,,11,,,42,64
16535,note_off,,,,,25,0,4,,,4,,,78,64
16535,note_off,,,,,95,0,5,,,5,,,78,64
16535,note_off,,,,,95,0,6,,,6,,,78,64
16560,note_on,,,,,50,0,8,,,8,,,66,95
16560,note_on,,,,,25,0,6,,,6,,,74,95
16560,note_on,,,,,0,0,4,,,4,,,74,95
16560,note_on,,,,,25,0,4,,,4,,,66,95
16560,note_on,,,,,50,0,7,,,7,,,69,95
16560,note_on,,,,,50,0,9,,,10,,,50,95
16560,note_on,,,,,25,0,5,,,5,,,74,95
16560,note_on,,,,,50,0,10,,,11,,,38,95
16750,note_off,,,,,190,0,6,,,6,,,74,64
16750,note_off,,,,,190,0,5,,,5,,,74,64
16750,note_off,,,,,0,0,4,,,4,,,66,64
16750,note_off,,,,,190,0,7,,,7,,,69,64
16750,note_off,,,,,190,0,9,,,10,,,50,64
16750,note_off,,,,,190,0,4,,,4,,,74,64
16750,note_off,,,,,190,0,8,,,8,,,66,64
16750,note_off,,,,,190,0,10,,,11,,,38,64
16800,note_on,,,,,50,0,4,,,4,,,66,95
16800,note_on,,,,,0,0,4,,,4,,,74,95
16800,note_on,,,,,50,0,6,,,6,,,74,95
16800,note_on,,,,,50,0,8,,,8,,,66,95
16800,note_on,,,,,50,0,7,,,7,,,69,95
16800,note_on,,,,,50,0,9,,,10,,,50,95
16800,note_on,,,,,50,0,5,,,5,,,74,95
16800,note_on,,,,,50,0,10,,,11,,,38,95
16895,note_off,,,,,95,0,5,,,5,,,74,64
16895,note_off,,,,,95,0,6,,,6,,,74,64
16895,note_off,,,,,95,0,8,,,8,,,66,64
16895,note_off,,,,,95,0,9,,,10,,,50,64
16895,note_off,,,,,95,0,7,,,7,,,69,64
16895,note_off,,,,,0,0,4,,,4,,,66,64
16895,note_off,,,,,95,0,4,,,4,,,74,64
16895,note_off,,,,,95,0,10,,,11,,,38,64
16920,note_on,,,,,25,0,6,,,6,,,74,95
16920,note_on,,,,,25,0,8,,,8,,,66,95
16920,note_on,,,,,0,0,4,,,4,,,74,95
16920,note_on,,,,,25,0,9,,,10,,,50,95
16920,note_on,,,,,25,0,4,,,4,,,66,95
16920,note_on,,,,,25,0,10,,,11,,,38,95
16920,note_on,,,,,25,0,5,,,5,,,74,95
16920,note_on,,,,,25,0,7,,,7,,,69,95
17015,note_off,,,,,95,0,4,,,4,,,74,64
17015,note_off,,,,,95,0,9,,,10,,,50,64
17015,note_off,,,,,95,0,6,,,6,,,74,64
17015,note_off,,,,,95,0,10,,,11,,,38,64
17015,note_off,,,,,95,0,8,,,8,,,66,64
17015,note_off,,,,,95,0,7,,,7,,,69,64
17015,note_off,,,,,95,0,5,,,5,,,74,64
17015,note_off,,,,,0,0,4,,,4,,,66,64
17040,note_on,,,,,0,0,4,,,4,,,74,95
17040,note_on,,,,,25,0,5,,,5,,,74,95
17040,note_on,,,,,25,0,8,,,8,,,66,95
17040,note_on,,,,,25,0,4,,,4,,,66,95
17040,note_on,,,,,25,0,7,,,7,,,69,95
17040,note_on,,,,,25,0,10,,,11,,,38,95
17040,note_on,,,,,25,0,6,,,6,,,74,95
17040,note_on,,,,,25,0,9,,,10,,,50,95
17135,note_off,,,,,95,0,10,,,11,,,38,64
17135,note_off,,,,,95,0,8,,,8,,,66,64
17135,note_off,,,,,0,0,4,,,4,,,66,64
17135,note_off,,,,,95,0,4,,,4,,,74,64
17135,note_off,,,,,95,0,5,,,5,,,74,64
17135,note_off,,,,,95,0,6,,,6,,,74,64
17135,note_off,,,,,95,0,9,,,10,,,50,64
17135,note_off,,,,,95,0,7,,,7,,,69,64
17160,note_on,,,,,0,0,4,,,4,,,74,95
17160,note_on,,,,,25,0,9,,,10,,,50,95
17160,note_on,,,,,25,0,7,,,7,,,69,95
17160,note_on,,,,,25,0,4,,,4,,,66,95
17160,note_on,,,,,25,0,5,,,5,,,74,95
17160,note_on,,,,,25,0,8,,,8,,,66,95
17160,note_on,,,,,25,0,6,,,6,,,74,95
17160,note_on,,,,,25,0,10,,,11,,,38,95
17255,note_off,,,,,95,0,6,,,6,,,74,64
17255,note_off,,,,,95,0,9,,,10,,,50,64
17255,note_off,,,,,95,0,5,,,5,,,74,64
17255,note_off,,,,,95,0,10,,,11,,,38,64
17255,note_off,,,,,95,0,8,,,8,,,66,64
17255,note_off,,,,,95,0,7,,,7,,,69,64
17255,note_off,,,,,0,0,4,,,4,,,66,64
17255,note_off,,,,,95,0,4,,,4,,,74,64
17280,note_on,,,,,25,0,8,,,8,,,66,95
17280,note_on,,,,,25,0,6,,,6,,,74,95
17280,note_on,,,,,25,0,9,,,10,,,50,95
17280,note_on,,,,,0,0,7,,,7,,,66,95
17280,note_on,,,,,25,0,7,,,7,,,69,95
17280,note_on,,,,,0,0,4,,,4,,,74,95
17280,note_on,,,,,0,0,8,,,8,,,69,95
17280,note_on,,,,,25,0,10,,,11,,,38,95
17280,note_on,,,,,25,0,4,,,4,,,66,95
17280,note_on,,,,,25,0,5,,,5,,,74,95
17855,note_off,,,,,575,0,6,,,6,,,74,64
17855,note_off,,,,,575,0,9,,,10,,,50,64
17855,note_off,,,,,575,0,5,,,5,,,74,64
17855,note_off,,,,,575,0,4,,,4,,,74,64
17855,note_off,,,,,0,0,8,,,8,,,66,64
17855,note_off,,,,,575,0,8,,,8,,,69,64
17855,note_off,,,,,575,0,7,,,7,,,66,64
17855,note_off,,,,,575,0,10,,,11,,,38,64
17855,note_off,,,,,0,0,4,,,4,,,66,64
17855,note_off,,,,,0,0,7,,,7,,,69,64
18000,note_on,,,,,0,0,3,,,3,,,66,95
18000,note_on,,,,,17519,0,3,,,3,,,62,95
18000,note_on,,,,,0,0,1,,,1,,,78,95
18000,note_on,,,,,17519,0,2,,,2,,,50,95
18000,marker,,,,,17280,1,0,,,,,,,
18000,note_on,,,,,17519,0,1,,,1,,,74,95
18190,note_off,,,,,0,0,1,,,1,,,74,64
18190,note_off,,,,,190,0,2,,,2,,,50,64
18190,note_off,,,,,190,0,1,,,1,,,78,64
18192,note_off,,,,,192,0,3,,,3,,,66,64
18192,note_off,,,,,0,0,3,,,3,,,62,64
18240,note_on,,,,,50,0,2,,,2,,,62,95
18240,note_on,,,,,50,0,1,,,1,,,74,95
18240,note_on,,,,,0,0,1,,,1,,,78,95
18240,note_on,,,,,48,0,3,,,3,,,62,95
18240,note_on,,,,,0,0,3,,,3,,,66,95
18430,note_off,,,,,190,0,2,,,2,,,62,64
18430,note_off,,,,,190,0,1,,,1,,,78,64
18430,note_off,,,,,0,0,1,,,1,,,74,64
18432,note_off,,,,,0,0,3,,,3,,,62,64
18432,note_off,,,,,192,0,3,,,3,,,66,64
18480,note_on,,,,,0,0,3,,,3,,,66,95
18480,note_on,,,,,48,0,3,,,3,,,62,95
18480,note_on,,,,,50,0,1,,,1,,,74,95
18480,note_on,,,,,50,0,2,,,2,,,61,95
18480,note_on,,,,,0,0,1,,,1,,,78,95
18670,note_off,,,,,0,0,1,,,1,,,74,64
18670,note_off,,,,,190,0,2,,,2,,,61,64
18670,note_off,,,,,190,0,1,,,1,,,78,64
18672,note_off,,,,,192,0,3,,,3,,,66,64
18672,note_off,,,,,0,0,3,,,3,,,62,64
18720,note_on,,,,,0,0,1,,,1,,,78,95
18720,note_on,,,,,0,0,3,,,3,,,66,95
18720,note_on,,,,,50,0,1,,,1,,,74,95
18720,note_on,,,,,50,0,2,,,2,,,62,95
18720,note_on,,,,,48,0,3,,,3,,,62,95
18910,note_off,,,,,0,0,1,,,1,,,74,64
18910,note_off,,,,,190,0,2,,,2,,,62,64
18910,note_off,,,,,190,0,1,,,1,,,78,64
18912,note_off,,,,,192,0,3,,,3,,,66,64
18912,note_off,,,,,0,0,3,,,3,,,62,64
18960,note_on,,,,,48,0,3,,,3,,,62,95
18960,note_on,,,,,0,0,1,,,1,,,78,95
18960,note_on,,,,,50,0,1,,,1,,,74,95
18960,note_on,,,,,50,0,2,,,2,,,57,95
18960,note_on,,,,,0,0,3,,,3,,,66,95
19055,note_off,,,,,95,0,1,,,1,,,78,64
19055,note_off,,,,,0,0,1,,,1,,,74,64
19056,note_off,,,,,96,0,3,,,3,,,66,64
19056,note_off,,,,,0,0,3,,,3,,,62,64
19080,note_on,,,,,24,0,3,,,3,,,64,95
19080,note_on,,,,,0,0,3,,,3,,,67,95
19080,note_on,,,,,25,0,1,,,1,,,76,95
19080,note_on,,,,,0,0,1,,,1,,,79,95
19150,note_off,,,,,190,0,2,,,2,,,57,64
19175,note_off,,,,,95,0,1,,,1,,,79,64
19175,note_off,,,,,0,0,1,,,1,,,76,64
19176,note_off,,,,,96,0,3,,,3,,,67,64
19176,note_off,,,,,0,0,3,,,3,,,64,64
19200,note_on,,,,,24,0,3,,,3,,,62,95
19200,note_on,,,,,0,0,3,,,3,,,66,95
19200,note_on,,,,,0,0,1,,,1,,,78,95
19200,note_on,,,,,50,0,2,,,2,,,59,95
19200,note_on,,,,,25,0,1,,,1,,,74,95
19295,note_off,,,,,95,0,1,,,1,,,78,64
19295,note_off,,,,,0,0,1,,,1,,,74,64
19296,note_off,,,,,96,0,3,,,3,,,66,64
19296,note_off,,,,,0,0,3,,,3,,,62,64
19320,note_on,,,,,24,0,3,,,3,,,64,95
19320,note_on,,,,,0,0,3,,,3,,,67,95
19320,note_on,,,,,0,0,1,,,1,,,79,95
19320,note_on,,,,,25,0,1,,,1,,,76,95
19390,note_off,,,,,190,0,2,,,2,,,59,64
19415,note_off,,,,,95,0,1,,,1,,,79,64
19415,note_off,,,,,0,0,1,,,1,,,76,64
19416,note_off,,,,,96,0,3,,,3,,,67,64
19416,note_off,,,,,0,0,3,,,3,,,64,64
19440,note_on,,,,,0,0,1,,,1,,,81,95
19440,note_on,,,,,50,0,2,,,2,,,54,95
19440,note_on,,,,,25,0,1,,,1,,,78,95
19440,note_on,,,,,24,0,3,,,3,,,66,95
19440,note_on,,,,,0,0,3,,,3,,,69,95
19630,note_off,,,,,190,0,1,,,1,,,81,64
19630,note_off,,,,,0,0,1,,,1,,,78,64
19630,note_off,,,,,190,0,2,,,2,,,54,64
19632,note_off,,,,,0,0,3,,,3,,,66,64
19632,note_off,,,,,192,0,3,,,3,,,69,64
19680,note_on,,,,,50,0,1,,,1,,,78,95
19680,note_on,,,,,0,0,1,,,1,,,81,95
19680,note_on,,,,,48,0,3,,,3,,,66,95
19680,note_on,,,,,50,0,2,,,2,,,54,95
19680,note_on,,,,,0,0,3,,,3,,,69,95
19870,note_off,,,,,0,0,1,,,1,,,78,64
19870,note_off,,,,,190,0,1,,,1,,,81,64
19870,note_off,,,,,190,0,2,,,2,,,54,64
19872,note_off,,,,,0,0,3,,,3,,,66,64
19872,note_off,,,,,192,0,3,,,3,,,69,64
19920,note_on,,,,,0,0,3,,,3,,,69,95
19920,note_on,,,,,50,0,2,,,2,,,54,95
19920,note_on,,,,,0,0,1,,,1,,,81,95
19920,note_on,,,,,50,0,1,,,1,,,78,95
19920,note_on,,,,,48,0,3,,,3,,,66,95
20110,note_off,,,,,190,0,2,,,2,,,54,64
20110,note_off,,,,,0,0,1,,,1,,,78,64
20110,note_off,,,,,190,0,1,,,1,,,81,64
20112,note_off,,,,,192,0,3,,,3,,,69,64
20112,note_off,,,,,0,0,3,,,3,,,66,64
20160,note_on,,,,,0,0,1,,,1,,,81,95
20160,note_on,,,,,50,0,1,,,1,,,78,95
20160,note_on,,,,,0,0,3,,,3,,,69,95
20160,note_on,,,,,50,0,2,,,2,,,47,95
20160,note_on,,,,,48,0,3,,,3,,,66,95
20184,note_off,,,,,0,0,1,,,1,,,78,64
20184,note_off,,,,,24,0,3,,,3,,,69,64
20184,note_off,,,,,0,0,3,,,3,,,66,64
20184,note_off,,,,,24,0,1,,,1,,,81,64
20190,note_on,,,,,0,0,1,,,1,,,83,95
20190,note_on,,,,,6,0,1,,,1,,,79,95
20190,note_on,,,,,0,0,3,,,3,,,71,95
20190,note_on,,,,,6,0,3,,,3,,,67,95
20214,note_off,,,,,0,0,1,,,1,,,79,64
20214,note_off,,,,,24,0,3,,,3,,,71,64
20214,note_off,,,,,24,0,1,,,1,,,83,64
20214,note_off,,,,,0,0,3,,,3,,,67,64
20220,note_on,,,,,6,0,3,,,3,,,66,95
20220,note_on,,,,,0,0,3,,,3,,,69,95
20220,note_on,,,,,6,0,1,,,1,,,78,95
20220,note_on,,,,,0,0,1,,,1,,,81,95
20244,note_off,,,,,0,0,1,,,1,,,78,64
20244,note_off,,,,,24,0,1,,,1,,,81,64
20244,note_off,,,,,24,0,3,,,3,,,69,64
20244,note_off,,,,,0,0,3,,,3,,,66,64
20250,note_on,,,,,0,0,1,,,1,,,83,95
20250,note_on,,,,,6,0,1,,,1,,,79,95
20250,note_on,,,,,0,0,3,,,3,,,71,95
20250,note_on,,,,,6,0,3,,,3,,,67,95
20274,note_off,,,,,24,0,3,,,3,,,71,64
20274,note_off,,,,,0,0,3,,,3,,,67,64
20274,note_off,,,,,24,0,1,,,1,,,83,64
20274,note_off,,,,,0,0,1,,,1,,,79,64
20280,note_on,,,,,0,0,1,,,1,,,81,95
20280,note_on,,,,,6,0,3,,,3,,,66,95
20280,note_on,,,,,0,0,3,,,3,,,69,95
20280,note_on,,,,,6,0,1,,,1,,,78,95
20304,note_off,,,,,24,0,1,,,1,,,81,64
20304,note_off,,,,,0,0,1,,,1,,,78,64
20304,note_off,,,,,24,0,3,,,3,,,69,64
20304,note_off,,,,,0,0,3,,,3,,,66,64
20310,note_on,,,,,6,0,3,,,3,,,67,95
20310,note_on,,,,,0,0,3,,,3,,,71,95
20310,note_on,,,,,0,0,1,,,1,,,83,95
20310,note_on,,,,,6,0,1,,,1,,,79,95
20334,note_off,,,,,0,0,3,,,3,,,67,64
20334,note_off,,,,,0,0,1,,,1,,,79,64
20334,note_off,,,,,24,0,3,,,3,,,71,64
20334,note_off,,,,,24,0,1,,,1,,,83,64
20340,note_on,,,,,0,0,3,,,3,,,67,95
20340,note_on,,,,,6,0,3,,,3,,,64,95
20340,note_on,,,,,0,0,1,,,1,,,79,95
20340,note_on,,,,,6,0,1,,,1,,,76,95
20364,note_off,,,,,24,0,3,,,3,,,67,64
20364,note_off,,,,,0,0,3,,,3,,,64,64
20364,note_off,,,,,0,0,1,,,1,,,76,64
20364,note_off,,,,,24,0,1,,,1,,,79,64
20370,note_on,,,,,6,0,1,,,1,,,78,95
20370,note_on,,,,,0,0,1,,,1,,,81,95
20370,note_on,,,,,0,0,3,,,3,,,69,95
20370,note_on,,,,,6,0,3,,,3,,,66,95
20490,note_off,,,,,120,0,1,,,1,,,78,64
20496,note_off,,,,,126,0,3,,,3,,,69,64
20496,note_off,,,,,6,0,1,,,1,,,81,64
20496,note_off,,,,,0,0,3,,,3,,,66,64
20520,note_on,,,,,0,0,3,,,3,,,67,95
20520,note_on,,,,,24,0,1,,,1,,,76,95
20520,note_on,,,,,24,0,3,,,3,,,64,95
20520,note_on,,,,,0,0,1,,,1,,,79,95
20568,note_off,,,,,48,0,3,,,3,,,67,64
20568,note_off,,,,,0,0,3,,,3,,,64,64
20568,note_off,,,,,48,0,1,,,1,,,79,64
20568,note_off,,,,,0,0,1,,,1,,,76,64
20580,note_on,,,,,12,0,3,,,3,,,66,95
20580,note_on,,,,,0,0,3,,,3,,,69,95
20580,note_on,,,,,12,0,1,,,1,,,78,95
20580,note_on,,,,,0,0,1,,,1,,,81,95
20628,note_off,,,,,48,0,1,,,1,,,81,64
20628,note_off,,,,,48,0,3,,,3,,,69,64
20628,note_off,,,,,0,0,3,,,3,,,66,64
20628,note_off,,,,,0,0,1,,,1,,,78,64
20640,note_on,,,,,0,0,3,,,3,,,71,95
20640,note_on,,,,,0,0,1,,,1,,,83,95
20640,note_on,,,,,12,0,3,,,3,,,67,95
20640,note_on,,,,,12,0,1,,,1,,,79,95
20735,note_off,,,,,575,0,2,,,2,,,47,64
20832,note_off,,,,,192,0,1,,,1,,,83,64
20832,note_off,,,,,0,0,1,,,1,,,79,64
20832,note_off,,,,,0,0,3,,,3,,,67,64
20832,note_off,,,,,192,0,3,,,3,,,71,64
20880,note_on,,,,,48,0,1,,,1,,,76,95
20880,note_on,,,,,0,0,1,,,1,,,79,95
20880,note_on,,,,,145,0,2,,,2,,,52,95
20880,note_on,,,,,48,0,3,,,3,,,64,95
20880,note_on,,,,,0,0,3,,,3,,,67,95
21070,note_off,,,,,190,0,2,,,2,,,52,64
21070,note_off,,,,,0,0,1,,,1,,,76,64
21070,note_off,,,,,190,0,1,,,1,,,79,64
21072,note_off,,,,,0,0,3,,,3,,,64,64
21072,note_off,,,,,192,0,3,,,3,,,67,64
21120,note_on,,,,,50,0,2,,,2,,,55,95
21120,note_on,,,,,50,0,1,,,1,,,76,95
21120,note_on,,,,,48,0,3,,,3,,,64,95
21120,note_on,,,,,0,0,3,,,3,,,67,95
21120,note_on,,,,,0,0,1,,,1,,,79,95
21310,note_off,,,,,190,0,1,,,1,,,79,64
21310,note_off,,,,,0,0,1,,,1,,,76,64
21310,note_off,,,,,190,0,2,,,2,,,55,64
21312,note_off,,,,,192,0,3,,,3,,,67,64
21312,note_off,,,,,0,0,3,,,3,,,64,64
21360,note_on,,,,,50,0,1,,,1,,,76,95
21360,note_on,,,,,48,0,3,,,3,,,64,95
21360,note_on,,,,,0,0,3,,,3,,,67,95
21360,note_on,,,,,0,0,1,,,1,,,79,95
21360,note_on,,,,,50,0,2,,,2,,,52,95
21550,note_off,,,,,190,0,2,,,2,,,52,64
21550,note_off,,,,,0,0,1,,,1,,,76,64
21550,note_off,,,,,190,0,1,,,1,,,79,64
21552,note_off,,,,,192,0,3,,,3,,,67,64
21552,note_off,,,,,0,0,3,,,3,,,64,64
21600,note_on,,,,,50,0,1,,,1,,,76,95
21600,note_on,,,,,0,0,1,,,1,,,79,95
21600,note_on,,,,,48,0,3,,,3,,,64,95
21600,note_on,,,,,0,0,3,,,3,,,67,95
21600,note_on,,,,,50,0,2,,,2,,,57,95
21624,note_off,,,,,24,0,3,,,3,,,67,64
21624,note_off,,,,,0,0,1,,,1,,,76,64
21624,note_off,,,,,24,0,1,,,1,,,79,64
21624,note_off,,,,,0,0,3,,,3,,,64,64
21630,note_on,,,,,0,0,1,,,1,,,81,95
21630,note_on,,,,,6,0,3,,,3,,,66,95
21630,note_on,,,,,6,0,1,,,1,,,78,95
21630,note_on,,,,,0,0,3,,,3,,,69,95
21654,note_off,,,,,24,0,1,,,1,,,81,64
21654,note_off,,,,,24,0,3,,,3,,,69,64
21654,note_off,,,,,0,0,3,,,3,,,66,64
21654,note_off,,,,,0,0,1,,,1,,,78,64
21660,note_on,,,,,6,0,3,,,3,,,64,95
21660,note_on,,,,,0,0,3,,,3,,,67,95
21660,note_on,,,,,0,0,1,,,1,,,79,95
21660,note_on,,,,,6,0,1,,,1,,,76,95
21684,note_off,,,,,0,0,3,,,3,,,64,64
21684,note_off,,,,,0,0,1,,,1,,,76,64
21684,note_off,,,,,24,0,3,,,3,,,67,64
21684,note_off,,,,,24,0,1,,,1,,,79,64
21690,note_on,,,,,0,0,1,,,1,,,81,95
21690,note_on,,,,,0,0,3,,,3,,,69,95
21690,note_on,,,,,6,0,3,,,3,,,66,95
21690,note_on,,,,,6,0,1,,,1,,,78,95
21714,note_off,,,,,24,0,1,,,1,,,81,64
21714,note_off,,,,,0,0,1,,,1,,,78,64
21714,note_off,,,,,24,0,3,,,3,,,69,64
21714,note_off,,,,,0,0,3,,,3,,,66,64
21720,note_on,,,,,6,0,1,,,1,,,76,95
21720,note_on,,,,,6,0,3,,,3,,,64,95
21720,note_on,,,,,0,0,3,,,3,,,67,95
21720,note_on,,,,,0,0,1,,,1,,,79,95
21744,note_off,,,,,0,0,1,,,1,,,76,64
21744,note_off,,,,,24,0,1,,,1,,,79,64
21744,note_off,,,,,24,0,3,,,3,,,67,64
21744,note_off,,,,,0,0,3,,,3,,,64,64
21750,note_on,,,,,6,0,3,,,3,,,66,95
21750,note_on,,,,,6,0,1,,,1,,,78,95
21750,note_on,,,,,0,0,1,,,1,,,81,95
21750,note_on,,,,,0,0,3,,,3,,,69,95
21774,note_off,,,,,0,0,1,,,1,,,78,64
21774,note_off,,,,,24,0,3,,,3,,,69,64
21774,note_off,,,,,24,0,1,,,1,,,81,64
21774,note_off,,,,,0,0,3,,,3,,,66,64
21780,note_on,,,,,0,0,3,,,3,,,66,95
21780,note_on,,,,,6,0,3,,,3,,,62,95
21780,note_on,,,,,6,0,1,,,1,,,74,95
21780,note_on,,,,,0,0,1,,,1,,,78,95
21790,note_off,,,,,190,0,2,,,2,,,57,64
21804,note_off,,,,,24,0,1,,,1,,,78,64
21804,note_off,,,,,0,0,1,,,1,,,74,64
21804,note_off,,,,,24,0,3,,,3,,,66,64
21804,note_off,,,,,0,0,3,,,3,,,62,64
21810,note_on,,,,,6,0,1,,,1,,,76,95
21810,note_on,,,,,0,0,1,,,1,,,79,95
21810,note_on,,,,,6,0,3,,,3,,,64,95
21810,note_on,,,,,0,0,3,,,3,,,67,95
21840,note_on,,,,,50,0,2,,,2,,,49,95
21930,note_off,,,,,120,0,1,,,1,,,76,64
21936,note_off,,,,,126,0,3,,,3,,,67,64
21936,note_off,,,,,0,0,3,,,3,,,64,64
21936,note_off,,,,,6,0,1,,,1,,,79,64
21960,note_on,,,,,24,0,1,,,1,,,74,95
21960,note_on,,,,,0,0,1,,,1,,,78,95
21960,note_on,,,,,24,0,3,,,3,,,62,95
21960,note_on,,,,,0,0,3,,,3,,,66,95
22008,note_off,,,,,48,0,1,,,1,,,78,64
22008,note_off,,,,,0,0,1,,,1,,,74,64
22008,note_off,,,,,48,0,3,,,3,,,66,64
22008,note_off,,,,,0,0,3,,,3,,,62,64
22020,note_on,,,,,12,0,1,,,1,,,76,95
22020,note_on,,,,,12,0,3,,,3,,,64,95
22020,note_on,,,,,0,0,3,,,3,,,67,95
22020,note_on,,,,,0,0,1,,,1,,,79,95
22030,note_off,,,,,190,0,2,,,2,,,49,64
22068,note_off,,,,,48,0,3,,,3,,,67,64
22068,note_off,,,,,0,0,1,,,1,,,76,64
22068,note_off,,,,,48,0,1,,,1,,,79,64
22068,note_off,,,,,0,0,3,,,3,,,64,64
22080,note_on,,,,,0,0,1,,,1,,,81,95
22080,note_on,,,,,12,0,1,,,1,,,78,95
22080,note_on,,,,,0,0,3,,,3,,,69,95
22080,note_on,,,,,12,0,3,,,3,,,66,95
22080,note_on,,,,,50,0,2,,,2,,,45,95
22270,note_off,,,,,190,0,2,,,2,,,45,64
22272,note_off,,,,,0,0,3,,,3,,,66,64
22272,note_off,,,,,192,0,3,,,3,,,69,64
22272,note_off,,,,,0,0,1,,,1,,,78,64
22272,note_off,,,,,192,0,1,,,1,,,81,64
22320,note_on,,,,,0,0,1,,,1,,,78,95
22320,note_on,,,,,48,0,1,,,1,,,74,95
22320,note_on,,,,,48,0,3,,,3,,,62,95
22320,note_on,,,,,50,0,2,,,2,,,50,95
22320,note_on,,,,,0,0,3,,,3,,,66,95
22510,note_off,,,,,0,0,1,,,1,,,74,64
22510,note_off,,,,,190,0,1,,,1,,,78,64
22510,note_off,,,,,190,0,2,,,2,,,50,64
22512,note_off,,,,,192,0,3,,,3,,,66,64
22512,note_off,,,,,0,0,3,,,3,,,62,64
22560,note_on,,,,,48,0,3,,,3,,,62,95
22560,note_on,,,,,50,0,1,,,1,,,74,95
22560,note_on,,,,,0,0,3,,,3,,,66,95
22560,note_on,,,,,0,0,1,,,1,,,78,95
22560,note_on,,,,,50,0,2,,,2,,,50,95
22655,note_off,,,,,95,0,1,,,1,,,78,64
22655,note_off,,,,,0,0,1,,,1,,,74,64
22655,note_off,,,,,95,0,2,,,2,,,50,64
22656,note_off,,,,,0,0,3,,,3,,,62,64
22656,note_off,,,,,96,0,3,,,3,,,66,64
22680,note_on,,,,,25,0,1,,,1,,,74,95
22680,note_on,,,,,25,0,2,,,2,,,50,95
22680,note_on,,,,,0,0,3,,,3,,,66,95
22680,note_on,,,,,24,0,3,,,3,,,62,95
22680,note_on,,,,,0,0,1,,,1,,,78,95
22775,note_off,,,,,0,0,1,,,1,,,74,64
22775,note_off,,,,,95,0,2,,,2,,,50,64
22775,note_off,,,,,95,0,1,,,1,,,78,64
22776,note_off,,,,,96,0,3,,,3,,,66,64
22776,note_off,,,,,0,0,3,,,3,,,62,64
22800,note_on,,,,,25,0,2,,,2,,,50,95
22800,note_on,,,,,0,0,3,,,3,,,66,95
22800,note_on,,,,,25,0,1,,,1,,,74,95
22800,note_on,,,,,0,0,1,,,1,,,78,95
22800,note_on,,,,,24,0,3,,,3,,,62,95
22895,note_off,,,,,95,0,1,,,1,,,78,64
22895,note_off,,,,,0,0,1,,,1,,,74,64
22895,note_off,,,,,95,0,2,,,2,,,50,64
22896,note_off,,,,,0,0,3,,,3,,,62,64
22896,note_off,,,,,96,0,3,,,3,,,66,64
22920,note_on,,,,,24,0,3,,,3,,,62,95
22920,note_on,,,,,0,0,3,,,3,,,66,95
22920,note_on,,,,,0,0,1,,,1,,,78,95
22920,note_on,,,,,25,0,1,,,1,,,74,95
22920,note_on,,,,,25,0,2,,,2,,,50,95
23015,note_off,,,,,95,0,2,,,2,,,50,64
23015,note_off,,,,,95,0,1,,,1,,,78,64
23015,note_off,,,,,0,0,1,,,1,,,74,64
23016,note_off,,,,,96,0,3,,,3,,,66,64
23016,note_off,,,,,0,0,3,,,3,,,62,64
23040,note_on,,,,,25,0,1,,,1,,,74,95
23040,note_on,,,,,0,0,1,,,1,,,78,95
23040,note_on,,,,,25,0,2,,,2,,,50,95
23040,note_on,,,,,0,0,3,,,3,,,66,95
23040,note_on,,,,,24,0,3,,,3,,,62,95
23230,note_off,,,,,190,0,2,,,2,,,50,64
23280,note_on,,,,,50,0,2,,,2,,,54,95
23470,note_off,,,,,190,0,2,,,2,,,54,64
23520,note_on,,,,,50,0,2,,,2,,,57,95
23615,note_off,,,,,575,0,1,,,1,,,78,64
23615,note_off,,,,,0,0,1,,,1,,,74,64
23616,note_off,,,,,576,0,3,,,3,,,66,64
23616,note_off,,,,,0,0,3,,,3,,,62,64
23710,note_off,,,,,190,0,2,,,2,,,57,64
23760,note_on,,,,,0,0,1,,,1,,,69,95
23760,note_on,,,,,50,0,2,,,2,,,62,95
23760,note_on,,,,,145,0,1,,,1,,,66,95
23950,note_off,,,,,0,0,1,,,1,,,66,64
23950,note_off,,,,,190,0,1,,,1,,,69,64
23950,note_off,,,,,190,0,2,,,2,,,62,64
24000,note_on,,,,,0,0,1,,,1,,,69,95
24000,note_on,,,,,50,0,1,,,1,,,66,95
24000,note_on,,,,,50,0,2,,,2,,,50,95
24190,note_off,,,,,0,0,1,,,1,,,66,64
24190,note_off,,,,,190,0,1,,,1,,,69,64
24190,note_off,,,,,190,0,2,,,2,,,50,64
24240,note_on,,,,,0,0,1,,,1,,,69,95
24240,note_on,,,,,50,0,1,,,1,,,66,95
24240,note_on,,,,,50,0,2,,,2,,,62,95
24430,note_off,,,,,190,0,2,,,2,,,62,64
24430,note_off,,,,,190,0,1,,,1,,,69,64
24430,note_off,,,,,0,0,1,,,1,,,66,64
24480,note_on,,,,,50,0,2,,,2,,,61,95
24480,note_on,,,,,50,0,1,,,1,,,64,95
24480,note_on,,,,,0,0,1,,,1,,,69,95
24670,note_off,,,,,0,0,1,,,1,,,64,64
24670,note_off,,,,,190,0,2,,,2,,,61,64
24670,note_off,,,,,190,0,1,,,1,,,69,64
24720,note_on,,,,,50,0,2,,,2,,,49,95
24720,note_on,,,,,0,0,1,,,1,,,71,95
24720,note_on,,,,,50,0,1,,,1,,,64,95
24910,note_off,,,,,190,0,2,,,2,,,49,64
24910,note_off,,,,,190,0,1,,,1,,,71,64
24910,note_off,,,,,0,0,1,,,1,,,64,64
24960,note_on,,,,,0,0,1,,,1,,,73,95
24960,note_on,,,,,50,0,1,,,1,,,69,95
24960,note_on,,,,,50,0,2,,,2,,,61,95
25150,note_off,,,,,190,0,1,,,1,,,73,64
25150,note_off,,,,,0,0,1,,,1,,,69,64
25150,note_off,,,,,190,0,2,,,2,,,61,64
25200,note_on,,,,,50,0,1,,,1,,,66,95
25200,note_on,,,,,0,0,1,,,1,,,74,95
25200,note_on,,,,,50,0,2,,,2,,,59,95
25390,note_off,,,,,190,0,2,,,2,,,59,64
25390,note_off,,,,,190,0,1,,,1,,,74,64
25390,note_off,,,,,0,0,1,,,1,,,66,64
25440,note_on,,,,,50,0,2,,,2,,,59,95
25440,note_on,,,,,0,0,1,,,1,,,74,95
25440,note_on,,,,,50,0,1,,,1,,,66,95
25535,note_off,,,,,0,0,1,,,1,,,66,64
25535,note_off,,,,,95,0,1,,,1,,,74,64
25560,note_on,,,,,0,0,1,,,1,,,74,95
25560,note_on,,,,,25,0,1,,,1,,,66,95
25630,note_off,,,,,190,0,2,,,2,,,59,64
25655,note_off,,,,,95,0,1,,,1,,,74,64
25655,note_off,,,,,0,0,1,,,1,,,66,64
25680,note_on,,,,,0,0,1,,,1,,,74,95
25680,note_on,,,,,50,0,2,,,2,,,59,95
25680,note_on,,,,,25,0,1,,,1,,,66,95
25775,note_off,,,,,0,0,1,,,1,,,66,64
25775,note_off,,,,,95,0,1,,,1,,,74,64
25800,note_on,,,,,25,0,1,,,1,,,67,95
25800,note_on,,,,,0,0,1,,,1,,,74,95
25870,note_off,,,,,190,0,2,,,2,,,59,64
25895,note_off,,,,,95,0,1,,,1,,,74,64
25895,note_off,,,,,0,0,1,,,1,,,67,64
25920,note_on,,,,,50,0,2,,,2,,,54,95
25920,note_on,,,,,0,0,1,,,1,,,74,95
25920,note_on,,,,,25,0,1,,,1,,,69,95
26160,note_on,,,,,240,0,1,,,1,,,81,95
26305,note_off,,,,,385,0,2,,,2,,,54,64
26305,note_off,,,,,145,0,1,,,1,,,69,64
26350,note_off,,,,,45,0,1,,,1,,,81,64
26370,note_off,,,,,20,0,1,,,1,,,74,64
26400,note_on,,,,,2784,0,3,,,3,,,66,95
26400,note_on,,,,,0,0,3,,,3,,,69,95
26400,note_on,,,,,30,0,1,,,1,,,78,95
26400,note_on,,,,,95,0,2,,,2,,,50,95
26590,note_off,,,,,190,0,2,,,2,,,50,64
26590,note_off,,,,,190,0,1,,,1,,,78,64
26592,note_off,,,,,192,0,3,,,3,,,69,64
26592,note_off,,,,,0,0,3,,,3,,,66,64
26640,note_on,,,,,50,0,1,,,1,,,79,95
26640,note_on,,,,,0,0,1,,,1,,,83,95
26640,note_on,,,,,0,0,3,,,3,,,71,95
26640,note_on,,,,,48,0,3,,,3,,,67,95
26640,note_on,,,,,50,0,2,,,2,,,55,95
26830,note_off,,,,,190,0,2,,,2,,,55,64
26830,note_off,,,,,190,0,1,,,1,,,83,64
26830,note_off,,,,,0,0,1,,,1,,,79,64
26832,note_off,,,,,0,0,3,,,3,,,67,64
26832,note_off,,,,,192,0,3,,,3,,,71,64
26880,note_on,,,,,50,0,2,,,2,,,47,95
26880,note_on,,,,,50,0,1,,,1,,,78,95
26880,note_on,,,,,0,0,1,,,1,,,81,95
26880,note_on,,,,,0,0,3,,,3,,,69,95
26880,note_on,,,,,48,0,3,,,3,,,66,95
27070,note_off,,,,,0,0,1,,,1,,,78,64
27070,note_off,,,,,190,0,1,,,1,,,81,64
27070,note_off,,,,,190,0,2,,,2,,,47,64
27072,note_off,,,,,192,0,3,,,3,,,69,64
27072,note_off,,,,,0,0,3,,,3,,,66,64
27120,note_on,,,,,0,0,3,,,3,,,67,95
27120,note_on,,,,,50,0,1,,,1,,,76,95
27120,note_on,,,,,50,0,2,,,2,,,49,95
27120,note_on,,,,,0,0,1,,,1,,,79,95
27120,note_on,,,,,48,0,3,,,3,,,64,95
27310,note_off,,,,,190,0,2,,,2,,,49,64
27310,note_off,,,,,0,0,1,,,1,,,76,64
27310,note_off,,,,,190,0,1,,,1,,,79,64
27312,note_off,,,,,192,0,3,,,3,,,67,64
27312,note_off,,,,,0,0,3,,,3,,,64,64
27360,note_on,,,,,50,0,2,,,2,,,50,95
27360,note_on,,,,,50,0,1,,,1,,,74,95
27360,note_on,,,,,48,0,3,,,3,,,62,95
27360,note_on,,,,,0,0,1,,,1,,,78,95
27360,note_on,,,,,0,0,3,,,3,,,66,95
27550,note_off,,,,,190,0,2,,,2,,,50,64
27550,note_off,,,,,190,0,1,,,1,,,78,64
27550,note_off,,,,,0,0,1,,,1,,,74,64
27552,note_off,,,,,0,0,3,,,3,,,62,64
27552,note_off,,,,,192,0,3,,,3,,,66,64
27600,note_on,,,,,50,0,1,,,1,,,73,95
27600,note_on,,,,,0,0,1,,,1,,,76,95
27600,note_on,,,,,50,0,2,,,2,,,54,95
27600,note_on,,,,,0,0,3,,,3,,,64,95
27600,note_on,,,,,48,0,3,,,3,,,57,95
27790,note_off,,,,,190,0,1,,,1,,,76,64
27790,note_off,,,,,0,0,1,,,1,,,73,64
27790,note_off,,,,,190,0,2,,,2,,,54,64
27792,note_off,,,,,192,0,3,,,3,,,64,64
27792,note_off,,,,,0,0,3,,,3,,,57,64
27840,note_on,,,,,50,0,2,,,2,,,59,95
27840,note_on,,,,,48,0,3,,,3,,,54,95
27840,note_on,,,,,0,0,3,,,3,,,62,95
27840,note_on,,,,,50,0,1,,,1,,,71,95
27840,note_on,,,,,0,0,1,,,1,,,74,95
28030,note_off,,,,,0,0,1,,,1,,,71,64
28030,note_off,,,,,190,0,1,,,1,,,74,64
28030,note_off,,,,,190,0,2,,,2,,,59,64
28032,note_off,,,,,192,0,3,,,3,,,62,64
28032,note_off,,,,,0,0,3,,,3,,,54,64
28080,note_on,,,,,48,0,3,,,3,,,57,95
28080,note_on,,,,,50,0,2,,,2,,,57,95
28080,note_on,,,,,0,0,1,,,1,,,76,95
28080,note_on,,,,,0,0,3,,,3,,,64,95
28080,note_on,,,,,50,0,1,,,1,,,73,95
28270,note_off,,,,,0,0,1,,,1,,,73,64
28270,note_off,,,,,190,0,2,,,2,,,57,64
28270,note_off,,,,,190,0,1,,,1,,,76,64
28272,note_off,,,,,0,0,3,,,3,,,57,64
28272,note_off,,,,,192,0,3,,,3,,,64,64
28320,note_on,,,,,0,0,3,,,3,,,57,95
28320,note_on,,,,,0,0,1,,,1,,,69,95
28320,note_on,,,,,50,0,1,,,1,,,73,95
28320,note_on,,,,,50,0,2,,,2,,,57,95
28320,note_on,,,,,48,0,3,,,3,,,57,95
28415,note_off,,,,,95,0,1,,,1,,,69,64
28415,note_off,,,,,0,0,1,,,1,,,73,64
28415,note_off,,,,,95,0,2,,,2,,,57,64
28416,note_off,,,,,96,0,3,,,3,,,57,64
28416,note_off,,,,,0,0,3,,,3,,,57,64
28440,note_on,,,,,0,0,3,,,3,,,57,95
28440,note_on,,,,,24,0,3,,,3,,,57,95
28440,note_on,,,,,25,0,1,,,1,,,73,95
28440,note_on,,,,,0,0,1,,,1,,,69,95
28440,note_on,,,,,25,0,2,,,2,,,57,95
28535,note_off,,,,,95,0,1,,,1,,,69,64
28535,note_off,,,,,0,0,1,,,1,,,73,64
28535,note_off,,,,,95,0,2,,,2,,,57,64
28536,note_off,,,,,0,0,3,,,3,,,57,64
28536,note_off,,,,,96,0,3,,,3,,,57,64
28560,note_on,,,,,25,0,2,,,2,,,57,95
28560,note_on,,,,,25,0,1,,,1,,,73,95
28560,note_on,,,,,24,0,3,,,3,,,57,95
28560,note_on,,,,,0,0,3,,,3,,,57,95
28560,note_on,,,,,0,0,1,,,1,,,69,95
28655,note_off,,,,,95,0,1,,,1,,,69,64
28655,note_off,,,,,0,0,1,,,1,,,73,64
28655,note_off,,,,,95,0,2,,,2,,,57,64
28656,note_off,,,,,96,0,3,,,3,,,57,64
28656,note_off,,,,,0,0,3,,,3,,,57,64
28680,note_on,,,,,24,0,3,,,3,,,57,95
28680,note_on,,,,,0,0,3,,,3,,,57,95
28680,note_on,,,,,25,0,1,,,1,,,73,95
28680,note_on,,,,,0,0,1,,,1,,,69,95
28680,note_on,,,,,25,0,2,,,2,,,57,95
28775,note_off,,,,,0,0,1,,,1,,,73,64
28775,note_off,,,,,95,0,2,,,2,,,57,64
28775,note_off,,,,,95,0,1,,,1,,,69,64
28776,note_off,,,,,96,0,3,,,3,,,57,64
28776,note_off,,,,,0,0,3,,,3,,,57,64
28800,note_on,,,,,25,0,1,,,1,,,73,95
28800,note_on,,,,,24,0,3,,,3,,,57,95
28800,note_on,,,,,25,0,2,,,2,,,57,95
28800,note_on,,,,,0,0,3,,,3,,,57,95
28800,note_on,,,,,0,0,1,,,1,,,69,95
28990,note_off,,,,,190,0,2,,,2,,,57,64
29040,note_on,,,,,50,0,2,,,2,,,61,95
29230,note_off,,,,,190,0,2,,,2,,,61,64
29280,note_on,,,,,50,0,2,,,2,,,57,95
29375,note_off,,,,,0,0,1,,,1,,,73,64
29375,note_off,,,,,575,0,1,,,1,,,69,64
29376,note_off,,,,,0,0,3,,,3,,,57,64
29376,note_off,,,,,576,0,3,,,3,,,57,64
29470,note_off,,,,,190,0,2,,,2,,,57,64
29520,note_on,,,,,50,0,2,,,2,,,62,95
29520,note_on,,,,,0,0,3,,,3,,,66,95
29520,note_on,,,,,144,0,3,,,3,,,62,95
29520,note_on,,,,,145,0,1,,,1,,,74,95
29520,note_on,,,,,0,0,1,,,1,,,78,95
29615,note_off,,,,,95,0,1,,,1,,,78,64
29615,note_off,,,,,0,0,1,,,1,,,74,64
29616,note_off,,,,,0,0,3,,,3,,,62,64
29616,note_off,,,,,96,0,3,,,3,,,66,64
29640,note_on,,,,,25,0,1,,,1,,,76,95
29640,note_on,,,,,0,0,1,,,1,,,79,95
29640,note_on,,,,,0,0,3,,,3,,,67,95
29640,note_on,,,,,24,0,3,,,3,,,64,95
29710,note_off,,,,,190,0,2,,,2,,,62,64
29735,note_off,,,,,0,0,1,,,1,,,76,64
29735,note_off,,,,,95,0,1,,,1,,,79,64
29736,note_off,,,,,0,0,3,,,3,,,64,64
29736,note_off,,,,,96,0,3,,,3,,,67,64
29760,note_on,,,,,50,0,2,,,2,,,50,95
29760,note_on,,,,,0,0,3,,,3,,,69,95
29760,note_on,,,,,0,0,1,,,1,,,81,95
29760,note_on,,,,,25,0,1,,,1,,,78,95
29760,note_on,,,,,24,0,3,,,3,,,66,95
29950,note_off,,,,,0,0,1,,,1,,,78,64
29950,note_off,,,,,190,0,1,,,1,,,81,64
29950,note_off,,,,,190,0,2,,,2,,,50,64
29952,note_off,,,,,192,0,3,,,3,,,69,64
29952,note_off,,,,,0,0,3,,,3,,,66,64
30000,note_on,,,,,0,0,3,,,3,,,67,95
30000,note_on,,,,,50,0,1,,,1,,,76,95
30000,note_on,,,,,0,0,1,,,1,,,79,95
30000,note_on,,,,,50,0,2,,,2,,,54,95
30000,note_on,,,,,48,0,3,,,3,,,64,95
30095,note_off,,,,,95,0,1,,,1,,,79,64
30095,note_off,,,,,0,0,1,,,1,,,76,64
30096,note_off,,,,,0,0,3,,,3,,,64,64
30096,note_off,,,,,96,0,3,,,3,,,67,64
30120,note_on,,,,,0,0,1,,,1,,,78,95
30120,note_on,,,,,24,0,3,,,3,,,62,95
30120,note_on,,,,,0,0,3,,,3,,,66,95
30120,note_on,,,,,25,0,1,,,1,,,74,95
30190,note_off,,,,,190,0,2,,,2,,,54,64
30215,note_off,,,,,95,0,1,,,1,,,78,64
30215,note_off,,,,,0,0,1,,,1,,,74,64
30216,note_off,,,,,0,0,3,,,3,,,62,64
30216,note_off,,,,,96,0,3,,,3,,,66,64
30240,note_on,,,,,25,0,1,,,1,,,73,95
30240,note_on,,,,,0,0,1,,,1,,,76,95
30240,note_on,,,,,0,0,3,,,3,,,64,95
30240,note_on,,,,,24,0,3,,,3,,,57,95
30240,note_on,,,,,50,0,2,,,2,,,57,95
30335,note_off,,,,,0,0,1,,,1,,,73,64
30335,note_off,,,,,95,0,1,,,1,,,76,64
30336,note_off,,,,,96,0,3,,,3,,,64,64
30360,note_on,,,,,0,0,1,,,1,,,78,95
30360,note_on,,,,,25,0,1,,,1,,,74,95
30360,note_on,,,,,24,0,3,,,3,,,66,95
30430,note_off,,,,,190,0,2,,,2,,,57,64
30432,note_off,,,,,72,0,3,,,3,,,57,64
30455,note_off,,,,,0,0,1,,,1,,,74,64
30455,note_off,,,,,95,0,1,,,1,,,78,64
30456,note_off,,,,,24,0,3,,,3,,,66,64
30480,note_on,,,,,25,0,1,,,1,,,76,95
30480,note_on,,,,,50,0,2,,,2,,,45,95
30480,note_on,,,,,24,0,3,,,3,,,64,95
30480,note_on,,,,,0,0,3,,,3,,,67,95
30480,note_on,,,,,0,0,1,,,1,,,79,95
30670,note_off,,,,,190,0,1,,,1,,,79,64
30670,note_off,,,,,0,0,1,,,1,,,76,64
30672,note_off,,,,,192,0,3,,,3,,,67,64
30672,note_off,,,,,0,0,3,,,3,,,64,64
30720,note_on,,,,,0,0,1,,,1,,,78,95
30720,note_on,,,,,50,0,1,,,1,,,74,95
30720,note_on,,,,,48,0,3,,,3,,,57,95
30720,note_on,,,,,0,0,3,,,3,,,66,95
30815,note_off,,,,,0,0,1,,,1,,,74,64
30815,note_off,,,,,95,0,1,,,1,,,78,64
30816,note_off,,,,,96,0,3,,,3,,,66,64
30840,note_on,,,,,0,0,1,,,1,,,76,95
30840,note_on,,,,,25,0,1,,,1,,,73,95
30840,note_on,,,,,24,0,3,,,3,,,64,95
30865,note_off,,,,,385,0,2,,,2,,,45,64
30912,note_off,,,,,72,0,3,,,3,,,57,64
30935,note_off,,,,,95,0,1,,,1,,,76,64
30935,note_off,,,,,0,0,1,,,1,,,73,64
30936,note_off,,,,,24,0,3,,,3,,,64,64
30960,note_on,,,,,0,0,1,,,1,,,78,95
30960,note_on,,,,,95,0,2,,,2,,,62,95
30960,note_on,,,,,0,0,3,,,3,,,66,95
30960,note_on,,,,,24,0,3,,,3,,,62,95
30960,note_on,,,,,25,0,1,,,1,,,74,95
31055,note_off,,,,,95,0,1,,,1,,,78,64
31055,note_off,,,,,0,0,1,,,1,,,74,64
31056,note_off,,,,,96,0,3,,,3,,,66,64
31056,note_off,,,,,0,0,3,,,3,,,62,64
31080,note_on,,,,,25,0,1,,,1,,,76,95
31080,note_on,,,,,0,0,1,,,1,,,79,95
31080,note_on,,,,,24,0,3,,,3,,,64,95
31080,note_on,,,,,0,0,3,,,3,,,67,95
31150,note_off,,,,,190,0,2,,,2,,,62,64
31175,note_off,,,,,95,0,1,,,1,,,79,64
31175,note_off,,,,,0,0,1,,,1,,,76,64
31176,note_off,,,,,96,0,3,,,3,,,67,64
31176,note_off,,,,,0,0,3,,,3,,,64,64
31200,note_on,,,,,0,0,1,,,1,,,81,95
31200,note_on,,,,,25,0,1,,,1,,,78,95
31200,note_on,,,,,50,0,2,,,2,,,50,95
31200,note_on,,,,,0,0,3,,,3,,,69,95
31200,note_on,,,,,24,0,3,,,3,,,66,95
31390,note_off,,,,,0,0,1,,,1,,,78,64
31390,note_off,,,,,190,0,1,,,1,,,81,64
31390,note_off,,,,,190,0,2,,,2,,,50,64
31392,note_off,,,,,0,0,3,,,3,,,66,64
31392,note_off,,,,,192,0,3,,,3,,,69,64
31440,note_on,,,,,0,0,3,,,3,,,67,95
31440,note_on,,,,,50,0,2,,,2,,,54,95
31440,note_on,,,,,0,0,1,,,1,,,79,95
31440,note_on,,,,,48,0,3,,,3,,,62,95
31440,note_on,,,,,50,0,1,,,1,,,76,95
31535,note_off,,,,,95,0,1,,,1,,,79,64
31535,note_off,,,,,0,0,1,,,1,,,76,64
31536,note_off,,,,,96,0,3,,,3,,,67,64
31560,note_on,,,,,24,0,3,,,3,,,66,95
31560,note_on,,,,,0,0,1,,,1,,,78,95
31560,note_on,,,,,25,0,1,,,1,,,74,95
31630,note_off,,,,,190,0,2,,,2,,,54,64
31632,note_off,,,,,72,0,3,,,3,,,62,64
31655,note_off,,,,,0,0,1,,,1,,,74,64
31655,note_off,,,,,95,0,1,,,1,,,78,64
31656,note_off,,,,,24,0,3,,,3,,,66,64
31680,note_on,,,,,24,0,3,,,3,,,57,95
31680,note_on,,,,,0,0,3,,,3,,,64,95
31680,note_on,,,,,50,0,2,,,2,,,57,95
31680,note_on,,,,,0,0,1,,,1,,,76,95
31680,note_on,,,,,25,0,1,,,1,,,73,95
31775,note_off,,,,,0,0,1,,,1,,,73,64
31775,note_off,,,,,95,0,1,,,1,,,76,64
31776,note_off,,,,,96,0,3,,,3,,,64,64
31800,note_on,,,,,24,0,3,,,3,,,66,95
31800,note_on,,,,,0,0,1,,,1,,,78,95
31800,note_on,,,,,25,0,1,,,1,,,74,95
31870,note_off,,,,,190,0,2,,,2,,,57,64
31872,note_off,,,,,72,0,3,,,3,,,57,64
31895,note_off,,,,,95,0,1,,,1,,,78,64
31895,note_off,,,,,0,0,1,,,1,,,74,64
31896,note_off,,,,,24,0,3,,,3,,,66,64
31920,note_on,,,,,24,0,3,,,3,,,64,95
31920,note_on,,,,,25,0,1,,,1,,,76,95
31920,note_on,,,,,0,0,1,,,1,,,79,95
31920,note_on,,,,,0,0,3,,,3,,,67,95
31920,note_on,,,,,50,0,2,,,2,,,45,95
32110,note_off,,,,,190,0,1,,,1,,,79,64
32110,note_off,,,,,0,0,1,,,1,,,76,64
32112,note_off,,,,,0,0,3,,,3,,,64,64
32112,note_off,,,,,192,0,3,,,3,,,67,64
32160,note_on,,,,,0,0,3,,,3,,,66,95
32160,note_on,,,,,48,0,3,,,3,,,57,95
32160,note_on,,,,,50,0,1,,,1,,,74,95
32160,note_on,,,,,0,0,1,,,1,,,78,95
32255,note_off,,,,,0,0,1,,,1,,,74,64
32255,note_off,,,,,95,0,1,,,1,,,78,64
32256,note_off,,,,,96,0,3,,,3,,,66,64
32280,note_on,,,,,0,0,1,,,1,,,76,95
32280,note_on,,,,,24,0,3,,,3,,,64,95
32280,note_on,,,,,25,0,1,,,1,,,73,95
32305,note_off,,,,,385,0,2,,,2,,,45,64
32352,note_off,,,,,72,0,3,,,3,,,57,64
32375,note_off,,,,,95,0,1,,,1,,,76,64
32375,note_off,,,,,0,0,1,,,1,,,73,64
32376,note_off,,,,,24,0,3,,,3,,,64,64
32400,note_on,,,,,95,0,2,,,2,,,62,95
32400,note_on,,,,,0,0,1,,,1,,,78,95
32400,note_on,,,,,25,0,1,,,1,,,74,95
32400,note_on,,,,,24,0,3,,,3,,,62,95
32400,note_on,,,,,0,0,3,,,3,,,66,95
32495,note_off,,,,,0,0,1,,,1,,,74,64
32495,note_off,,,,,95,0,1,,,1,,,78,64
32496,note_off,,,,,96,0,3,,,3,,,66,64
32496,note_off,,,,,0,0,3,,,3,,,62,64
32520,note_on,,,,,25,0,1,,,1,,,76,95
32520,note_on,,,,,0,0,3,,,3,,,67,95
32520,note_on,,,,,0,0,1,,,1,,,79,95
32520,note_on,,,,,24,0,3,,,3,,,64,95
32590,note_off,,,,,190,0,2,,,2,,,62,64
32615,note_off,,,,,0,0,1,,,1,,,76,64
32615,note_off,,,,,95,0,1,,,1,,,79,64
32616,note_off,,,,,96,0,3,,,3,,,67,64
32616,note_off,,,,,0,0,3,,,3,,,64,64
32640,note_on,,,,,24,0,3,,,3,,,66,95
32640,note_on,,,,,0,0,1,,,1,,,81,95
32640,note_on,,,,,25,0,1,,,1,,,78,95
32640,note_on,,,,,50,0,2,,,2,,,50,95
32640,note_on,,,,,0,0,3,,,3,,,69,95
32830,note_off,,,,,0,0,1,,,1,,,78,64
32830,note_off,,,,,190,0,1,,,1,,,81,64
32830,note_off,,,,,190,0,2,,,2,,,50,64
32832,note_off,,,,,192,0,3,,,3,,,69,64
32832,note_off,,,,,0,0,3,,,3,,,66,64
32880,note_on,,,,,0,0,1,,,1,,,79,95
32880,note_on,,,,,50,0,2,,,2,,,54,95
32880,note_on,,,,,50,0,1,,,1,,,76,95
32880,note_on,,,,,0,0,3,,,3,,,67,95
32880,note_on,,,,,48,0,3,,,3,,,64,95
33070,note_off,,,,,190,0,2,,,2,,,54,64
33070,note_off,,,,,0,0,1,,,1,,,76,64
33070,note_off,,,,,190,0,1,,,1,,,79,64
33072,note_off,,,,,192,0,3,,,3,,,67,64
33072,note_off,,,,,0,0,3,,,3,,,64,64
33120,note_on,,,,,48,0,3,,,3,,,62,95
33120,note_on,,,,,0,0,3,,,3,,,66,95
33120,note_on,,,,,50,0,2,,,2,,,62,95
33120,note_on,,,,,0,0,1,,,1,,,78,95
33120,note_on,,,,,50,0,1,,,1,,,74,95
33310,note_off,,,,,0,0,1,,,1,,,74,64
33310,note_off,,,,,190,0,1,,,1,,,78,64
33310,note_off,,,,,190,0,2,,,2,,,62,64
33312,note_off,,,,,0,0,3,,,3,,,62,64
33312,note_off,,,,,192,0,3,,,3,,,66,64
33360,note_on,,,,,48,0,3,,,3,,,50,95
33360,note_on,,,,,50,0,2,,,2,,,50,95
33360,note_on,,,,,0,0,1,,,1,,,79,95
33360,note_on,,,,,50,0,1,,,1,,,69,95
33360,note_on,,,,,0,0,3,,,3,,,67,95
33455,note_off,,,,,95,0,1,,,1,,,79,64
33456,note_off,,,,,96,0,3,,,3,,,67,64
33480,note_on,,,,,24,0,3,,,3,,,66,95
33480,note_on,,,,,25,0,1,,,1,,,78,95
33550,note_off,,,,,70,0,1,,,1,,,69,64
33550,note_off,,,,,190,0,2,,,2,,,50,64
33552,note_off,,,,,72,0,3,,,3,,,50,64
33575,note_off,,,,,25,0,1,,,1,,,78,64
33576,note_off,,,,,24,0,3,,,3,,,66,64
33600,note_on,,,,,0,0,1,,,1,,,76,95
33600,note_on,,,,,0,0,3,,,3,,,64,95
33600,note_on,,,,,25,0,1,,,1,,,69,95
33600,note_on,,,,,50,0,2,,,2,,,54,95
33600,note_on,,,,,24,0,3,,,3,,,57,95
33695,note_off,,,,,95,0,1,,,1,,,76,64
33696,note_off,,,,,96,0,3,,,3,,,64,64
33720,note_on,,,,,25,0,1,,,1,,,78,95
33720,note_on,,,,,24,0,3,,,3,,,66,95
33790,note_off,,,,,190,0,2,,,2,,,54,64
33790,note_off,,,,,70,0,1,,,1,,,69,64
33792,note_off,,,,,72,0,3,,,3,,,57,64
33815,note_off,,,,,25,0,1,,,1,,,78,64
33816,note_off,,,,,24,0,3,,,3,,,66,64
33840,note_on,,,,,0,0,3,,,3,,,62,95
33840,note_on,,,,,24,0,3,,,3,,,54,95
33840,note_on,,,,,50,0,2,,,2,,,50,95
33840,note_on,,,,,25,0,1,,,1,,,69,95
33840,note_on,,,,,0,0,1,,,1,,,74,95
34030,note_off,,,,,0,0,1,,,1,,,69,64
34030,note_off,,,,,190,0,2,,,2,,,50,64
34030,note_off,,,,,190,0,1,,,1,,,74,64
34032,note_off,,,,,192,0,3,,,3,,,62,64
34032,note_off,,,,,0,0,3,,,3,,,54,64
34080,note_on,,,,,50,0,1,,,1,,,69,95
34080,note_on,,,,,50,0,2,,,2,,,50,95
34080,note_on,,,,,0,0,1,,,1,,,74,95
34080,note_on,,,,,48,0,3,,,3,,,54,95
34080,note_on,,,,,0,0,3,,,3,,,62,95
34175,note_off,,,,,95,0,1,,,1,,,74,64
34175,note_off,,,,,95,0,2,,,2,,,50,64
34175,note_off,,,,,0,0,1,,,1,,,69,64
34176,note_off,,,,,0,0,3,,,3,,,54,64
34176,note_off,,,,,96,0,3,,,3,,,62,64
34200,note_on,,,,,24,0,3,,,3,,,54,95
34200,note_on,,,,,0,0,1,,,1,,,74,95
34200,note_on,,,,,25,0,1,,,1,,,69,95
34200,note_on,,,,,25,0,2,,,2,,,50,95
34200,note_on,,,,,0,0,3,,,3,,,62,95
34295,note_off,,,,,0,0,1,,,1,,,69,64
34295,note_off,,,,,95,0,1,,,1,,,74,64
34295,note_off,,,,,95,0,2,,,2,,,50,64
34296,note_off,,,,,96,0,3,,,3,,,62,64
34296,note_off,,,,,0,0,3,,,3,,,54,64
34320,note_on,,,,,0,0,1,,,1,,,74,95
34320,note_on,,,,,25,0,1,,,1,,,69,95
34320,note_on,,,,,24,0,3,,,3,,,54,95
34320,note_on,,,,,25,0,2,,,2,,,50,95
34320,note_on,,,,,0,0,3,,,3,,,62,95
34415,note_off,,,,,95,0,2,,,2,,,50,64
34415,note_off,,,,,95,0,1,,,1,,,74,64
34415,note_off,,,,,0,0,1,,,1,,,69,64
34416,note_off,,,,,96,0,3,,,3,,,62,64
34416,note_off,,,,,0,0,3,,,3,,,54,64
34440,note_on,,,,,25,0,2,,,2,,,50,95
34440,note_on,,,,,24,0,3,,,3,,,54,95
34440,note_on,,,,,0,0,3,,,3,,,62,95
34440,note_on,,,,,0,0,1,,,1,,,74,95
34440,note_on,,,,,25,0,1,,,1,,,69,95
34535,note_off,,,,,95,0,1,,,1,,,74,64
34535,note_off,,,,,0,0,1,,,1,,,69,64
34535,note_off,,,,,95,0,2,,,2,,,50,64
34536,note_off,,,,,0,0,3,,,3,,,54,64
34536,note_off,,,,,96,0,3,,,3,,,62,64
34560,note_on,,,,,0,0,1,,,1,,,74,95
34560,note_on,,,,,0,0,1,,,1,,,69,95
34560,note_on,,,,,0,0,3,,,3,,,62,95
34560,note_on,,,,,24,0,3,,,3,,,54,95
34560,note_on,,,,,25,0,1,,,1,,,66,95
34560,note_on,,,,,25,0,2,,,2,,,50,95
35135,note_off,,,,,0,0,1,,,1,,,66,64
35135,note_off,,,,,575,0,1,,,1,,,74,64
35135,note_off,,,,,0,0,1,,,1,,,69,64
35135,note_off,,,,,575,0,2,,,2,,,50,64
35136,note_off,,,,,0,0,3,,,3,,,54,64
35136,note_off,,,,,576,0,3,,,3,,,62,64
35280,end_of_track,,,,,0,1,0,,,,,,,
35280,note_on,,,,,0,0,1,,,1,,,78,95
35280,note_on,,,,,145,0,2,,,2,,,50,95
35280,note_on,,,,,17425,0,7,,,7,,,74,95
35280,note_on,,,,,17425,0,6,,,6,,,78,95
35280,note_on,,,,,17425,0,8,,,8,,,69,95
35280,marker,,,,,17280,1,0,,,,,,,
35280,note_on,,,,,144,0,3,,,3,,,62,95
35280,note_on,,,,,0,0,3,,,3,,,66,95
35280,note_on,,,,,17425,0,9,,,10,,,50,95
35280,note_on,,,,,17425,0,5,,,5,,,78,95
35280,note_on,,,,,17425,0,10,,,11,,,38,95
35280,note_on,,,,,145,0,1,,,1,,,74,95
35280,note_on,,,,,0,0,4,,,4,,,78,95
35280,note_on,,,,,17425,0,4,,,4,,,74,95
35470,note_off,,,,,190,0,8,,,8,,,69,64
35470,note_off,,,,,190,0,7,,,7,,,74,64
35470,note_off,,,,,190,0,9,,,10,,,50,64
35470,note_off,,,,,190,0,1,,,1,,,78,64
35470,note_off,,,,,190,0,10,,,11,,,38,64
35470,note_off,,,,,190,0,2,,,2,,,50,64
35470,note_off,,,,,190,0,4,,,4,,,78,64
35470,note_off,,,,,0,0,4,,,4,,,74,64
35470,note_off,,,,,190,0,6,,,6,,,78,64
35470,note_off,,,,,190,0,5,,,5,,,78,64
35470,note_off,,,,,0,0,1,,,1,,,74,64
35472,note_off,,,,,192,0,3,,,3,,,66,64
35472,note_off,,,,,0,0,3,,,3,,,62,64
35520,note_on,,,,,50,0,7,,,7,,,74,95
35520,note_on,,,,,50,0,4,,,4,,,74,95
35520,note_on,,,,,0,0,4,,,4,,,78,95
35520,note_on,,,,,50,0,9,,,10,,,62,95
35520,note_on,,,,,48,0,3,,,3,,,62,95
35520,note_on,,,,,50,0,10,,,11,,,50,95
35520,note_on,,,,,0,0,3,,,3,,,66,95
35520,note_on,,,,,50,0,1,,,1,,,74,95
35520,note_on,,,,,50,0,8,,,8,,,69,95
35520,note_on,,,,,50,0,2,,,2,,,62,95
35520,note_on,,,,,50,0,6,,,6,,,78,95
35520,note_on,,,,,0,0,1,,,1,,,78,95
35520,note_on,,,,,50,0,5,,,5,,,78,95
35710,note_off,,,,,190,0,9,,,10,,,62,64
35710,note_off,,,,,0,0,1,,,1,,,74,64
35710,note_off,,,,,190,0,10,,,11,,,50,64
35710,note_off,,,,,190,0,8,,,8,,,69,64
35710,note_off,,,,,190,0,7,,,7,,,74,64
35710,note_off,,,,,0,0,4,,,4,,,74,64
35710,note_off,,,,,190,0,6,,,6,,,78,64
35710,note_off,,,,,190,0,1,,,1,,,78,64
35710,note_off,,,,,190,0,4,,,4,,,78,64
35710,note_off,,,,,190,0,5,,,5,,,78,64
35710,note_off,,,,,190,0,2,,,2,,,62,64
35712,note_off,,,,,0,0,3,,,3,,,62,64
35712,note_off,,,,,192,0,3,,,3,,,66,64
35760,note_on,,,,,50,0,6,,,6,,,78,95
35760,note_on,,,,,50,0,2,,,2,,,61,95
35760,note_on,,,,,50,0,4,,,4,,,74,95
35760,note_on,,,,,50,0,10,,,11,,,49,95
35760,note_on,,,,,50,0,7,,,7,,,74,95
35760,note_on,,,,,48,0,3,,,3,,,62,95
35760,note_on,,,,,0,0,3,,,3,,,66,95
35760,note_on,,,,,50,0,1,,,1,,,74,95
35760,note_on,,,,,0,0,1,,,1,,,78,95
35760,note_on,,,,,50,0,9,,,10,,,61,95
35760,note_on,,,,,0,0,4,,,4,,,78,95
35760,note_on,,,,,50,0,5,,,5,,,78,95
35760,note_on,,,,,50,0,8,,,8,,,69,95
35950,note_off,,,,,190,0,9,,,10,,,61,64
35950,note_off,,,,,190,0,6,,,6,,,78,64
35950,note_off,,,,,190,0,5,,,5,,,78,64
35950,note_off,,,,,190,0,4,,,4,,,78,64
35950,note_off,,,,,0,0,4,,,4,,,74,64
35950,note_off,,,,,190,0,8,,,8,,,69,64
35950,note_off,,,,,190,0,10,,,11,,,49,64
35950,note_off,,,,,190,0,2,,,2,,,61,64
35950,note_off,,,,,190,0,1,,,1,,,78,64
35950,note_off,,,,,190,0,7,,,7,,,74,64
35950,note_off,,,,,0,0,1,,,1,,,74,64
35952,note_off,,,,,192,0,3,,,3,,,66,64
35952,note_off,,,,,0,0,3,,,3,,,62,64
36000,note_on,,,,,50,0,8,,,8,,,69,95
36000,note_on,,,,,50,0,4,,,4,,,74,95
36000,note_on,,,,,0,0,4,,,4,,,78,95
36000,note_on,,,,,50,0,6,,,6,,,78,95
36000,note_on,,,,,48,0,3,,,3,,,62,95
36000,note_on,,,,,50,0,1,,,1,,,74,95
36000,note_on,,,,,50,0,5,,,5,,,78,95
36000,note_on,,,,,50,0,2,,,2,,,62,95
36000,note_on,,,,,50,0,10,,,11,,,50,95
36000,note_on,,,,,0,0,1,,,1,,,78,95
36000,note_on,,,,,0,0,3,,,3,,,66,95
36000,note_on,,,,,50,0,7,,,7,,,74,95
36000,note_on,,,,,50,0,9,,,10,,,62,95
36190,note_off,,,,,190,0,10,,,11,,,50,64
36190,note_off,,,,,190,0,5,,,5,,,78,64
36190,note_off,,,,,190,0,7,,,7,,,74,64
36190,note_off,,,,,0,0,4,,,4,,,74,64
36190,note_off,,,,,190,0,4,,,4,,,78,64
36190,note_off,,,,,190,0,6,,,6,,,78,64
36190,note_off,,,,,0,0,1,,,1,,,74,64
36190,note_off,,,,,190,0,1,,,1,,,78,64
36190,note_off,,,,,190,0,2,,,2,,,62,64
36190,note_off,,,,,190,0,9,,,10,,,62,64
36190,note_off,,,,,190,0,8,,,8,,,69,64
36192,note_off,,,,,192,0,3,,,3,,,66,64
36192,note_off,,,,,0,0,3,,,3,,,62,64
36240,note_on,,,,,50,0,8,,,8,,,69,95
36240,note_on,,,,,50,0,1,,,1,,,74,95
36240,note_on,,,,,0,0,1,,,1,,,78,95
36240,note_on,,,,,50,0,6,,,6,,,78,95
36240,note_on,,,,,48,0,3,,,3,,,62,95
36240,note_on,,,,,50,0,10,,,11,,,45,95
36240,note_on,,,,,50,0,7,,,7,,,74,95
36240,note_on,,,,,0,0,4,,,4,,,78,95
36240,note_on,,,,,50,0,5,,,5,,,78,95
36240,note_on,,,,,50,0,4,,,4,,,74,95
36240,note_on,,,,,50,0,2,,,2,,,57,95
36240,note_on,,,,,0,0,3,,,3,,,66,95
36240,note_on,,,,,50,0,9,,,10,,,57,95
36335,note_off,,,,,95,0,1,,,1,,,78,64
36335,note_off,,,,,95,0,6,,,6,,,78,64
36335,note_off,,,,,95,0,4,,,4,,,78,64
36335,note_off,,,,,95,0,7,,,7,,,74,64
36335,note_off,,,,,0,0,4,,,4,,,74,64
36335,note_off,,,,,0,0,1,,,1,,,74,64
36335,note_off,,,,,95,0,5,,,5,,,78,64
36336,note_off,,,,,0,0,3,,,3,,,62,64
36336,note_off,,,,,96,0,3,,,3,,,66,64
36360,note_on,,,,,0,0,4,,,4,,,79,95
36360,note_on,,,,,25,0,4,,,4,,,76,95
36360,note_on,,,,,0,0,1,,,1,,,79,95
36360,note_on,,,,,25,0,7,,,7,,,76,95
36360,note_on,,,,,0,0,3,,,3,,,67,95
36360,note_on,,,,,24,0,3,,,3,,,64,95
36360,note_on,,,,,25,0,1,,,1,,,76,95
36360,note_on,,,,,25,0,5,,,5,,,79,95
36360,note_on,,,,,25,0,6,,,6,,,79,95
36430,note_off,,,,,190,0,2,,,2,,,57,64
36430,note_off,,,,,190,0,8,,,8,,,69,64
36430,note_off,,,,,190,0,9,,,10,,,57,64
36430,note_off,,,,,190,0,10,,,11,,,45,64
36455,note_off,,,,,95,0,7,,,7,,,76,64
36455,note_off,,,,,95,0,5,,,5,,,79,64
36455,note_off,,,,,95,0,4,,,4,,,79,64
36455,note_off,,,,,0,0,1,,,1,,,76,64
36455,note_off,,,,,95,0,1,,,1,,,79,64
36455,note_off,,,,,0,0,4,,,4,,,76,64
36455,note_off,,,,,95,0,6,,,6,,,79,64
36456,note_off,,,,,96,0,3,,,3,,,67,64
36456,note_off,,,,,0,0,3,,,3,,,64,64
36480,note_on,,,,,25,0,6,,,6,,,78,95
36480,note_on,,,,,0,0,1,,,1,,,78,95
36480,note_on,,,,,50,0,8,,,8,,,62,95
36480,note_on,,,,,50,0,2,,,2,,,59,95
36480,note_on,,,,,25,0,1,,,1,,,74,95
36480,note_on,,,,,25,0,7,,,7,,,74,95
36480,note_on,,,,,50,0,10,,,11,,,47,95
36480,note_on,,,,,25,0,5,,,5,,,78,95
36480,note_on,,,,,50,0,9,,,10,,,59,95
36480,note_on,,,,,24,0,3,,,3,,,62,95
36480,note_on,,,,,0,0,4,,,4,,,78,95
36480,note_on,,,,,0,0,3,,,3,,,66,95
36480,note_on,,,,,25,0,4,,,4,,,74,95
36575,note_off,,,,,0,0,4,,,4,,,74,64
36575,note_off,,,,,0,0,1,,,1,,,74,64
36575,note_off,,,,,95,0,1,,,1,,,78,64
36575,note_off,,,,,95,0,4,,,4,,,78,64
36575,note_off,,,,,95,0,5,,,5,,,78,64
36575,note_off,,,,,95,0,6,,,6,,,78,64
36575,note_off,,,,,95,0,7,,,7,,,74,64
36576,note_off,,,,,96,0,3,,,3,,,66,64
36576,note_off,,,,,0,0,3,,,3,,,62,64
36600,note_on,,,,,0,0,4,,,4,,,79,95
36600,note_on,,,,,25,0,4,,,4,,,76,95
36600,note_on,,,,,25,0,6,,,6,,,79,95
36600,note_on,,,,,24,0,3,,,3,,,64,95
36600,note_on,,,,,0,0,3,,,3,,,67,95
36600,note_on,,,,,0,0,1,,,1,,,79,95
36600,note_on,,,,,25,0,7,,,7,,,76,95
36600,note_on,,,,,25,0,1,,,1,,,76,95
36600,note_on,,,,,25,0,5,,,5,,,79,95
36670,note_off,,,,,190,0,10,,,11,,,47,64
36670,note_off,,,,,190,0,9,,,10,,,59,64
36670,note_off,,,,,190,0,8,,,8,,,62,64
36670,note_off,,,,,190,0,2,,,2,,,59,64
36695,note_off,,,,,95,0,6,,,6,,,79,64
36695,note_off,,,,,95,0,4,,,4,,,79,64
36695,note_off,,,,,0,0,4,,,4,,,76,64
36695,note_off,,,,,95,0,5,,,5,,,79,64
36695,note_off,,,,,95,0,7,,,7,,,76,64
36695,note_off,,,,,0,0,1,,,1,,,76,64
36695,note_off,,,,,95,0,1,,,1,,,79,64
36696,note_off,,,,,96,0,3,,,3,,,67,64
36696,note_off,,,,,0,0,3,,,3,,,64,64
36720,note_on,,,,,50,0,10,,,11,,,42,95
36720,note_on,,,,,24,0,3,,,3,,,66,95
36720,note_on,,,,,0,0,3,,,3,,,69,95
36720,note_on,,,,,50,0,2,,,2,,,54,95
36720,note_on,,,,,50,0,9,,,10,,,54,95
36720,note_on,,,,,25,0,4,,,4,,,78,95
36720,note_on,,,,,25,0,7,,,7,,,78,95
36720,note_on,,,,,25,0,6,,,6,,,81,95
36720,note_on,,,,,0,0,1,,,1,,,81,95
36720,note_on,,,,,0,0,4,,,4,,,81,95
36720,note_on,,,,,25,0,1,,,1,,,78,95
36720,note_on,,,,,50,0,8,,,8,,,62,95
36720,note_on,,,,,25,0,5,,,5,,,81,95
36910,note_off,,,,,190,0,7,,,7,,,78,64
36910,note_off,,,,,190,0,10,,,11,,,42,64
36910,note_off,,,,,190,0,9,,,10,,,54,64
36910,note_off,,,,,190,0,8,,,8,,,62,64
36910,note_off,,,,,0,0,4,,,4,,,78,64
36910,note_off,,,,,190,0,2,,,2,,,54,64
36910,note_off,,,,,190,0,1,,,1,,,81,64
36910,note_off,,,,,190,0,5,,,5,,,81,64
36910,note_off,,,,,190,0,6,,,6,,,81,64
36910,note_off,,,,,0,0,1,,,1,,,78,64
36910,note_off,,,,,190,0,4,,,4,,,81,64
36912,note_off,,,,,0,0,3,,,3,,,66,64
36912,note_off,,,,,192,0,3,,,3,,,69,64
36960,note_on,,,,,48,0,3,,,3,,,66,95
36960,note_on,,,,,50,0,4,,,4,,,78,95
36960,note_on,,,,,50,0,7,,,7,,,78,95
36960,note_on,,,,,50,0,9,,,10,,,54,95
36960,note_on,,,,,50,0,6,,,6,,,81,95
36960,note_on,,,,,50,0,10,,,11,,,42,95
36960,note_on,,,,,0,0,3,,,3,,,69,95
36960,note_on,,,,,50,0,8,,,8,,,62,95
36960,note_on,,,,,50,0,1,,,1,,,78,95
36960,note_on,,,,,0,0,1,,,1,,,81,95
36960,note_on,,,,,50,0,2,,,2,,,54,95
36960,note_on,,,,,0,0,4,,,4,,,81,95
36960,note_on,,,,,50,0,5,,,5,,,81,95
37150,note_off,,,,,190,0,9,,,10,,,54,64
37150,note_off,,,,,190,0,4,,,4,,,81,64
37150,note_off,,,,,190,0,2,,,2,,,54,64
37150,note_off,,,,,0,0,4,,,4,,,78,64
37150,note_off,,,,,190,0,10,,,11,,,42,64
37150,note_off,,,,,0,0,1,,,1,,,78,64
37150,note_off,,,,,190,0,1,,,1,,,81,64
37150,note_off,,,,,190,0,6,,,6,,,81,64
37150,note_off,,,,,190,0,5,,,5,,,81,64
37150,note_off,,,,,190,0,8,,,8,,,62,64
37150,note_off,,,,,190,0,7,,,7,,,78,64
37152,note_off,,,,,192,0,3,,,3,,,69,64
37152,note_off,,,,,0,0,3,,,3,,,66,64
37200,note_on,,,,,50,0,1,,,1,,,78,95
37200,note_on,,,,,0,0,1,,,1,,,81,95
37200,note_on,,,,,50,0,9,,,10,,,54,95
37200,note_on,,,,,50,0,2,,,2,,,54,95
37200,note_on,,,,,50,0,5,,,5,,,81,95
37200,note_on,,,,,50,0,6,,,6,,,81,95
37200,note_on,,,,,50,0,7,,,7,,,78,95
37200,note_on,,,,,0,0,4,,,4,,,81,95
37200,note_on,,,,,50,0,10,,,11,,,42,95
37200,note_on,,,,,50,0,4,,,4,,,78,95
37200,note_on,,,,,48,0,3,,,3,,,66,95
37200,note_on,,,,,0,0,3,,,3,,,69,95
37200,note_on,,,,,50,0,8,,,8,,,62,95
37390,note_off,,,,,190,0,4,,,4,,,81,64
37390,note_off,,,,,190,0,6,,,6,,,81,64
37390,note_off,,,,,190,0,10,,,11,,,42,64
37390,note_off,,,,,190,0,9,,,10,,,54,64
37390,note_off,,,,,190,0,7,,,7,,,78,64
37390,note_off,,,,,190,0,5,,,5,,,81,64
37390,note_off,,,,,190,0,8,,,8,,,62,64
37390,note_off,,,,,190,0,1,,,1,,,81,64
37390,note_off,,,,,190,0,2,,,2,,,54,64
37390,note_off,,,,,0,0,4,,,4,,,78,64
37390,note_off,,,,,0,0,1,,,1,,,78,64
37392,note_off,,,,,192,0,3,,,3,,,69,64
37392,note_off,,,,,0,0,3,,,3,,,66,64
37440,note_on,,,,,50,0,1,,,1,,,78,95
37440,note_on,,,,,50,0,5,,,5,,,81,95
37440,note_on,,,,,50,0,4,,,4,,,78,95
37440,note_on,,,,,0,0,4,,,4,,,81,95
37440,note_on,,,,,50,0,7,,,7,,,78,95
37440,note_on,,,,,50,0,9,,,10,,,47,95
37440,note_on,,,,,50,0,10,,,11,,,35,95
37440,note_on,,,,,50,0,8,,,8,,,62,95
37440,note_on,,,,,48,0,3,,,3,,,66,95
37440,note_on,,,,,50,0,2,,,2,,,47,95
37440,note_on,,,,,50,0,6,,,6,,,81,95
37440,note_on,,,,,0,0,1,,,1,,,81,95
37440,note_on,,,,,0,0,3,,,3,,,69,95
37464,note_off,,,,,0,0,1,,,1,,,78,64
37464,note_off,,,,,24,0,5,,,5,,,81,64
37464,note_off,,,,,24,0,6,,,6,,,81,64
37464,note_off,,,,,24,0,7,,,7,,,78,64
37464,note_off,,,,,0,0,4,,,4,,,78,64
37464,note_off,,,,,24,0,1,,,1,,,81,64
37464,note_off,,,,,24,0,4,,,4,,,81,64
37464,note_off,,,,,24,0,3,,,3,,,69,64
37464,note_off,,,,,0,0,3,,,3,,,66,64
37470,note_on,,,,,6,0,5,,,5,,,83,95
37470,note_on,,,,,6,0,6,,,6,,,83,95
37470,note_on,,,,,6,0,3,,,3,,,67,95
37470,note_on,,,,,6,0,7,,,7,,,79,95
37470,note_on,,,,,6,0,1,,,1,,,79,95
37470,note_on,,,,,0,0,3,,,3,,,71,95
37470,note_on,,,,,6,0,4,,,4,,,79,95
37470,note_on,,,,,0,0,4,,,4,,,83,95
37470,note_on,,,,,0,0,1,,,1,,,83,95
37494,note_off,,,,,24,0,1,,,1,,,83,64
37494,note_off,,,,,24,0,7,,,7,,,79,64
37494,note_off,,,,,0,0,3,,,3,,,67,64
37494,note_off,,,,,0,0,1,,,1,,,79,64
37494,note_off,,,,,24,0,3,,,3,,,71,64
37494,note_off,,,,,24,0,5,,,5,,,83,64
37494,note_off,,,,,24,0,6,,,6,,,83,64
37494,note_off,,,,,0,0,4,,,4,,,79,64
37494,note_off,,,,,24,0,4,,,4,,,83,64
37500,note_on,,,,,6,0,5,,,5,,,81,95
37500,note_on,,,,,6,0,4,,,4,,,78,95
37500,note_on,,,,,0,0,1,,,1,,,81,95
37500,note_on,,,,,6,0,7,,,7,,,78,95
37500,note_on,,,,,0,0,4,,,4,,,81,95
37500,note_on,,,,,6,0,3,,,3,,,66,95
37500,note_on,,,,,0,0,3,,,3,,,69,95
37500,note_on,,,,,6,0,1,,,1,,,78,95
37500,note_on,,,,,6,0,6,,,6,,,81,95
37524,note_off,,,,,24,0,5,,,5,,,81,64
37524,note_off,,,,,24,0,7,,,7,,,78,64
37524,note_off,,,,,0,0,4,,,4,,,78,64
37524,note_off,,,,,24,0,4,,,4,,,81,64
37524,note_off,,,,,24,0,3,,,3,,,69,64
37524,note_off,,,,,24,0,6,,,6,,,81,64
37524,note_off,,,,,0,0,3,,,3,,,66,64
37524,note_off,,,,,24,0,1,,,1,,,81,64
37524,note_off,,,,,0,0,1,,,1,,,78,64
37530,note_on,,,,,0,0,3,,,3,,,71,95
37530,note_on,,,,,6,0,3,,,3,,,67,95
37530,note_on,,,,,6,0,6,,,6,,,83,95
37530,note_on,,,,,6,0,5,,,5,,,83,95
37530,note_on,,,,,0,0,4,,,4,,,83,95
37530,note_on,,,,,6,0,4,,,4,,,79,95
37530,note_on,,,,,6,0,1,,,1,,,79,95
37530,note_on,,,,,6,0,7,,,7,,,79,95
37530,note_on,,,,,0,0,1,,,1,,,83,95
37554,note_off,,,,,0,0,4,,,4,,,79,64
37554,note_off,,,,,24,0,1,,,1,,,83,64
37554,note_off,,,,,0,0,1,,,1,,,79,64
37554,note_off,,,,,24,0,7,,,7,,,79,64
37554,note_off,,,,,0,0,3,,,3,,,67,64
37554,note_off,,,,,24,0,4,,,4,,,83,64
37554,note_off,,,,,24,0,3,,,3,,,71,64
37554,note_off,,,,,24,0,5,,,5,,,83,64
37554,note_off,,,,,24,0,6,,,6,,,83,64
37560,note_on,,,,,6,0,6,,,6,,,81,95
37560,note_on,,,,,0,0,3,,,3,,,69,95
37560,note_on,,,,,6,0,3,,,3,,,66,95
37560,note_on,,,,,0,0,4,,,4,,,81,95
37560,note_on,,,,,6,0,5,,,5,,,81,95
37560,note_on,,,,,6,0,7,,,7,,,78,95
37560,note_on,,,,,6,0,4,,,4,,,78,95
37560,note_on,,,,,0,0,1,,,1,,,81,95
37560,note_on,,,,,6,0,1,,,1,,,78,95
37584,note_off,,,,,0,0,4,,,4,,,78,64
37584,note_off,,,,,24,0,7,,,7,,,78,64
37584,note_off,,,,,24,0,5,,,5,,,81,64
37584,note_off,,,,,24,0,6,,,6,,,81,64
37584,note_off,,,,,24,0,4,,,4,,,81,64
37584,note_off,,,,,24,0,1,,,1,,,81,64
37584,note_off,,,,,0,0,1,,,1,,,78,64
37584,note_off,,,,,24,0,3,,,3,,,69,64
37584,note_off,,,,,0,0,3,,,3,,,66,64
37590,note_on,,,,,0,0,4,,,4,,,83,95
37590,note_on,,,,,0,0,1,,,1,,,83,95
37590,note_on,,,,,6,0,6,,,6,,,83,95
37590,note_on,,,,,6,0,5,,,5,,,83,95
37590,note_on,,,,,6,0,1,,,1,,,79,95
37590,note_on,,,,,6,0,7,,,7,,,79,95
37590,note_on,,,,,6,0,4,,,4,,,79,95
37590,note_on,,,,,0,0,3,,,3,,,71,95
37590,note_on,,,,,6,0,3,,,3,,,67,95
37614,note_off,,,,,24,0,5,,,5,,,83,64
37614,note_off,,,,,24,0,4,,,4,,,83,64
37614,note_off,,,,,0,0,4,,,4,,,79,64
37614,note_off,,,,,0,0,1,,,1,,,79,64
37614,note_off,,,,,24,0,7,,,7,,,79,64
37614,note_off,,,,,24,0,1,,,1,,,83,64
37614,note_off,,,,,24,0,3,,,3,,,71,64
37614,note_off,,,,,0,0,3,,,3,,,67,64
37614,note_off,,,,,24,0,6,,,6,,,83,64
37620,note_on,,,,,6,0,3,,,3,,,64,95
37620,note_on,,,,,0,0,3,,,3,,,67,95
37620,note_on,,,,,6,0,6,,,6,,,79,95
37620,note_on,,,,,6,0,7,,,7,,,76,95
37620,note_on,,,,,6,0,5,,,5,,,79,95
37620,note_on,,,,,0,0,1,,,1,,,79,95
37620,note_on,,,,,6,0,1,,,1,,,76,95
37620,note_on,,,,,6,0,4,,,4,,,76,95
37620,note_on,,,,,0,0,4,,,4,,,79,95
37644,note_off,,,,,0,0,4,,,4,,,76,64
37644,note_off,,,,,24,0,6,,,6,,,79,64
37644,note_off,,,,,24,0,4,,,4,,,79,64
37644,note_off,,,,,24,0,3,,,3,,,67,64
37644,note_off,,,,,0,0,3,,,3,,,64,64
37644,note_off,,,,,24,0,5,,,5,,,79,64
37644,note_off,,,,,24,0,7,,,7,,,76,64
37644,note_off,,,,,24,0,1,,,1,,,79,64
37644,note_off,,,,,0,0,1,,,1,,,76,64
37650,note_on,,,,,6,0,4,,,4,,,78,95
37650,note_on,,,,,0,0,4,,,4,,,81,95
37650,note_on,,,,,6,0,7,,,7,,,78,95
37650,note_on,,,,,6,0,1,,,1,,,78,95
37650,note_on,,,,,0,0,1,,,1,,,81,95
37650,note_on,,,,,6,0,5,,,5,,,81,95
37650,note_on,,,,,6,0,6,,,6,,,81,95
37650,note_on,,,,,6,0,3,,,3,,,66,95
37650,note_on,,,,,0,0,3,,,3,,,69,95
37770,note_off,,,,,120,0,1,,,1,,,78,64
37776,note_off,,,,,6,0,1,,,1,,,81,64
37776,note_off,,,,,0,0,3,,,3,,,66,64
37776,note_off,,,,,126,0,4,,,4,,,81,64
37776,note_off,,,,,0,0,4,,,4,,,78,64
37776,note_off,,,,,126,0,5,,,5,,,81,64
37776,note_off,,,,,126,0,6,,,6,,,81,64
37776,note_off,,,,,126,0,7,,,7,,,78,64
37776,note_off,,,,,126,0,3,,,3,,,69,64
37800,note_on,,,,,24,0,5,,,5,,,79,95
37800,note_on,,,,,24,0,4,,,4,,,76,95
37800,note_on,,,,,0,0,4,,,4,,,79,95
37800,note_on,,,,,24,0,7,,,7,,,76,95
37800,note_on,,,,,0,0,3,,,3,,,67,95
37800,note_on,,,,,24,0,6,,,6,,,79,95
37800,note_on,,,,,0,0,1,,,1,,,79,95
37800,note_on,,,,,24,0,1,,,1,,,76,95
37800,note_on,,,,,24,0,3,,,3,,,64,95
37848,note_off,,,,,48,0,6,,,6,,,79,64
37848,note_off,,,,,0,0,4,,,4,,,76,64
37848,note_off,,,,,48,0,4,,,4,,,79,64
37848,note_off,,,,,0,0,1,,,1,,,76,64
37848,note_off,,,,,48,0,1,,,1,,,79,64
37848,note_off,,,,,0,0,3,,,3,,,64,64
37848,note_off,,,,,48,0,7,,,7,,,76,64
37848,note_off,,,,,48,0,5,,,5,,,79,64
37848,note_off,,,,,48,0,3,,,3,,,67,64
37860,note_on,,,,,12,0,6,,,6,,,81,95
37860,note_on,,,,,12,0,1,,,1,,,78,95
37860,note_on,,,,,0,0,1,,,1,,,81,95
37860,note_on,,,,,12,0,5,,,5,,,81,95
37860,note_on,,,,,12,0,4,,,4,,,78,95
37860,note_on,,,,,0,0,4,,,4,,,81,95
37860,note_on,,,,,12,0,7,,,7,,,78,95
37860,note_on,,,,,12,0,3,,,3,,,66,95
37860,note_on,,,,,0,0,3,,,3,,,69,95
37908,note_off,,,,,48,0,4,,,4,,,81,64
37908,note_off,,,,,0,0,4,,,4,,,78,64
37908,note_off,,,,,0,0,1,,,1,,,78,64
37908,note_off,,,,,0,0,3,,,3,,,66,64
37908,note_off,,,,,48,0,7,,,7,,,78,64
37908,note_off,,,,,48,0,1,,,1,,,81,64
37908,note_off,,,,,48,0,3,,,3,,,69,64
37908,note_off,,,,,48,0,6,,,6,,,81,64
37908,note_off,,,,,48,0,5,,,5,,,81,64
37920,note_on,,,,,12,0,3,,,3,,,67,95
37920,note_on,,,,,12,0,7,,,7,,,79,95
37920,note_on,,,,,0,0,1,,,1,,,83,95
37920,note_on,,,,,12,0,1,,,1,,,79,95
37920,note_on,,,,,12,0,5,,,5,,,83,95
37920,note_on,,,,,0,0,3,,,3,,,71,95
37920,note_on,,,,,12,0,4,,,4,,,79,95
37920,note_on,,,,,12,0,6,,,6,,,83,95
37920,note_on,,,,,0,0,4,,,4,,,83,95
38015,note_off,,,,,575,0,8,,,8,,,62,64
38015,note_off,,,,,575,0,9,,,10,,,47,64
38015,note_off,,,,,575,0,10,,,11,,,35,64
38015,note_off,,,,,575,0,2,,,2,,,47,64
38112,note_off,,,,,192,0,4,,,4,,,83,64
38112,note_off,,,,,192,0,6,,,6,,,83,64
38112,note_off,,,,,192,0,7,,,7,,,79,64
38112,note_off,,,,,192,0,3,,,3,,,71,64
38112,note_off,,,,,0,0,1,,,1,,,79,64
38112,note_off,,,,,192,0,1,,,1,,,83,64
38112,note_off,,,,,0,0,3,,,3,,,67,64
38112,note_off,,,,,192,0,5,,,5,,,83,64
38112,note_off,,,,,0,0,4,,,4,,,79,64
38160,note_on,,,,,48,0,6,,,6,,,79,95
38160,note_on,,,,,0,0,3,,,3,,,67,95
38160,note_on,,,,,48,0,3,,,3,,,64,95
38160,note_on,,,,,48,0,5,,,5,,,79,95
38160,note_on,,,,,0,0,1,,,1,,,79,95
38160,note_on,,,,,48,0,1,,,1,,,76,95
38160,note_on,,,,,145,0,9,,,10,,,52,95
38160,note_on,,,,,48,0,4,,,4,,,76,95
38160,note_on,,,,,48,0,7,,,7,,,76,95
38160,note_on,,,,,0,0,4,,,4,,,79,95
38160,note_on,,,,,145,0,10,,,11,,,40,95
38160,note_on,,,,,145,0,2,,,2,,,52,95
38160,note_on,,,,,145,0,8,,,8,,,71,95
38350,note_off,,,,,190,0,9,,,10,,,52,64
38350,note_off,,,,,190,0,6,,,6,,,79,64
38350,note_off,,,,,190,0,10,,,11,,,40,64
38350,note_off,,,,,190,0,2,,,2,,,52,64
38350,note_off,,,,,190,0,4,,,4,,,79,64
38350,note_off,,,,,0,0,4,,,4,,,76,64
38350,note_off,,,,,190,0,8,,,8,,,71,64
38350,note_off,,,,,190,0,7,,,7,,,76,64
38350,note_off,,,,,190,0,5,,,5,,,79,64
38350,note_off,,,,,0,0,1,,,1,,,76,64
38350,note_off,,,,,190,0,1,,,1,,,79,64
38352,note_off,,,,,192,0,3,,,3,,,67,64
38352,note_off,,,,,0,0,3,,,3,,,64,64
38400,note_on,,,,,50,0,4,,,4,,,76,95
38400,note_on,,,,,0,0,4,,,4,,,79,95
38400,note_on,,,,,50,0,7,,,7,,,76,95
38400,note_on,,,,,50,0,5,,,5,,,79,95
38400,note_on,,,,,50,0,9,,,10,,,55,95
38400,note_on,,,,,50,0,10,,,11,,,43,95
38400,note_on,,,,,0,0,3,,,3,,,67,95
38400,note_on,,,,,50,0,1,,,1,,,76,95
38400,note_on,,,,,0,0,1,,,1,,,79,95
38400,note_on,,,,,50,0,6,,,6,,,79,95
38400,note_on,,,,,50,0,2,,,2,,,55,95
38400,note_on,,,,,50,0,8,,,8,,,71,95
38400,note_on,,,,,48,0,3,,,3,,,64,95
38590,note_off,,,,,190,0,5,,,5,,,79,64
38590,note_off,,,,,190,0,1,,,1,,,79,64
38590,note_off,,,,,0,0,1,,,1,,,76,64
38590,note_off,,,,,190,0,10,,,11,,,43,64
38590,note_off,,,,,190,0,7,,,7,,,76,64
38590,note_off,,,,,190,0,4,,,4,,,79,64
38590,note_off,,,,,190,0,8,,,8,,,71,64
38590,note_off,,,,,190,0,2,,,2,,,55,64
38590,note_off,,,,,190,0,9,,,10,,,55,64
38590,note_off,,,,,190,0,6,,,6,,,79,64
38590,note_off,,,,,0,0,4,,,4,,,76,64
38592,note_off,,,,,0,0,3,,,3,,,64,64
38592,note_off,,,,,192,0,3,,,3,,,67,64
38640,note_on,,,,,50,0,6,,,6,,,79,95
38640,note_on,,,,,50,0,7,,,7,,,76,95
38640,note_on,,,,,50,0,8,,,8,,,71,95
38640,note_on,,,,,50,0,4,,,4,,,76,95
38640,note_on,,,,,0,0,4,,,4,,,79,95
38640,note_on,,,,,50,0,5,,,5,,,79,95
38640,note_on,,,,,50,0,1,,,1,,,76,95
38640,note_on,,,,,48,0,3,,,3,,,64,95
38640,note_on,,,,,0,0,1,,,1,,,79,95
38640,note_on,,,,,50,0,9,,,10,,,52,95
38640,note_on,,,,,50,0,10,,,11,,,40,95
38640,note_on,,,,,50,0,2,,,2,,,52,95
38640,note_on,,,,,0,0,3,,,3,,,67,95
38830,note_off,,,,,190,0,1,,,1,,,79,64
38830,note_off,,,,,190,0,7,,,7,,,76,64
38830,note_off,,,,,190,0,5,,,5,,,79,64
38830,note_off,,,,,190,0,8,,,8,,,71,64
38830,note_off,,,,,190,0,2,,,2,,,52,64
38830,note_off,,,,,190,0,6,,,6,,,79,64
38830,note_off,,,,,190,0,9,,,10,,,52,64
38830,note_off,,,,,0,0,1,,,1,,,76,64
38830,note_off,,,,,190,0,10,,,11,,,40,64
38830,note_off,,,,,190,0,4,,,4,,,79,64
38830,note_off,,,,,0,0,4,,,4,,,76,64
38832,note_off,,,,,0,0,3,,,3,,,64,64
38832,note_off,,,,,192,0,3,,,3,,,67,64
38880,note_on,,,,,50,0,1,,,1,,,76,95
38880,note_on,,,,,0,0,4,,,4,,,79,95
38880,note_on,,,,,48,0,3,,,3,,,64,95
38880,note_on,,,,,50,0,4,,,4,,,76,95
38880,note_on,,,,,50,0,5,,,5,,,79,95
38880,note_on,,,,,50,0,7,,,7,,,76,95
38880,note_on,,,,,50,0,9,,,10,,,57,95
38880,note_on,,,,,50,0,10,,,11,,,45,95
38880,note_on,,,,,0,0,3,,,3,,,67,95
38880,note_on,,,,,50,0,2,,,2,,,57,95
38880,note_on,,,,,50,0,6,,,6,,,79,95
38880,note_on,,,,,0,0,1,,,1,,,79,95
38880,note_on,,,,,50,0,8,,,8,,,73,95
38904,note_off,,,,,24,0,7,,,7,,,76,64
38904,note_off,,,,,24,0,4,,,4,,,79,64
38904,note_off,,,,,24,0,1,,,1,,,79,64
38904,note_off,,,,,0,0,4,,,4,,,76,64
38904,note_off,,,,,24,0,5,,,5,,,79,64
38904,note_off,,,,,24,0,3,,,3,,,67,64
38904,note_off,,,,,0,0,3,,,3,,,64,64
38904,note_off,,,,,24,0,6,,,6,,,79,64
38904,note_off,,,,,0,0,1,,,1,,,76,64
38910,note_on,,,,,0,0,3,,,3,,,69,95
38910,note_on,,,,,6,0,7,,,7,,,78,95
38910,note_on,,,,,6,0,3,,,3,,,66,95
38910,note_on,,,,,6,0,5,,,5,,,81,95
38910,note_on,,,,,0,0,1,,,1,,,81,95
38910,note_on,,,,,6,0,1,,,1,,,78,95
38910,note_on,,,,,6,0,6,,,6,,,81,95
38910,note_on,,,,,6,0,4,,,4,,,78,95
38910,note_on,,,,,0,0,4,,,4,,,81,95
38934,note_off,,,,,0,0,1,,,1,,,78,64
38934,note_off,,,,,24,0,1,,,1,,,81,64
38934,note_off,,,,,0,0,3,,,3,,,66,64
38934,note_off,,,,,24,0,3,,,3,,,69,64
38934,note_off,,,,,24,0,6,,,6,,,81,64
38934,note_off,,,,,24,0,7,,,7,,,78,64
38934,note_off,,,,,24,0,5,,,5,,,81,64
38934,note_off,,,,,24,0,4,,,4,,,81,64
38934,note_off,,,,,0,0,4,,,4,,,78,64
38940,note_on,,,,,6,0,7,,,7,,,76,95
38940,note_on,,,,,6,0,6,,,6,,,79,95
38940,note_on,,,,,6,0,3,,,3,,,64,95
38940,note_on,,,,,6,0,4,,,4,,,76,95
38940,note_on,,,,,0,0,3,,,3,,,67,95
38940,note_on,,,,,0,0,4,,,4,,,79,95
38940,note_on,,,,,0,0,1,,,1,,,79,95
38940,note_on,,,,,6,0,1,,,1,,,76,95
38940,note_on,,,,,6,0,5,,,5,,,79,95
38964,note_off,,,,,0,0,4,,,4,,,76,64
38964,note_off,,,,,0,0,1,,,1,,,76,64
38964,note_off,,,,,24,0,5,,,5,,,79,64
38964,note_off,,,,,24,0,7,,,7,,,76,64
38964,note_off,,,,,0,0,3,,,3,,,64,64
38964,note_off,,,,,24,0,3,,,3,,,67,64
38964,note_off,,,,,24,0,6,,,6,,,79,64
38964,note_off,,,,,24,0,1,,,1,,,79,64
38964,note_off,,,,,24,0,4,,,4,,,79,64
38970,note_on,,,,,6,0,5,,,5,,,81,95
38970,note_on,,,,,6,0,7,,,7,,,78,95
38970,note_on,,,,,6,0,1,,,1,,,78,95
38970,note_on,,,,,0,0,1,,,1,,,81,95
38970,note_on,,,,,6,0,6,,,6,,,81,95
38970,note_on,,,,,6,0,4,,,4,,,78,95
38970,note_on,,,,,0,0,4,,,4,,,81,95
38970,note_on,,,,,6,0,3,,,3,,,66,95
38970,note_on,,,,,0,0,3,,,3,,,69,95
38994,note_off,,,,,24,0,3,,,3,,,69,64
38994,note_off,,,,,0,0,1,,,1,,,78,64
38994,note_off,,,,,24,0,1,,,1,,,81,64
38994,note_off,,,,,24,0,7,,,7,,,78,64
38994,note_off,,,,,24,0,6,,,6,,,81,64
38994,note_off,,,,,24,0,5,,,5,,,81,64
38994,note_off,,,,,0,0,4,,,4,,,78,64
38994,note_off,,,,,24,0,4,,,4,,,81,64
38994,note_off,,,,,0,0,3,,,3,,,66,64
39000,note_on,,,,,0,0,4,,,4,,,79,95
39000,note_on,,,,,6,0,4,,,4,,,76,95
39000,note_on,,,,,6,0,1,,,1,,,76,95
39000,note_on,,,,,0,0,1,,,1,,,79,95
39000,note_on,,,,,6,0,7,,,7,,,76,95
39000,note_on,,,,,6,0,5,,,5,,,79,95
39000,note_on,,,,,6,0,3,,,3,,,64,95
39000,note_on,,,,,0,0,3,,,3,,,67,95
39000,note_on,,,,,6,0,6,,,6,,,79,95
39024,note_off,,,,,0,0,4,,,4,,,76,64
39024,note_off,,,,,24,0,6,,,6,,,79,64
39024,note_off,,,,,24,0,5,,,5,,,79,64
39024,note_off,,,,,24,0,7,,,7,,,76,64
39024,note_off,,,,,0,0,1,,,1,,,76,64
39024,note_off,,,,,24,0,1,,,1,,,79,64
39024,note_off,,,,,24,0,3,,,3,,,67,64
39024,note_off,,,,,0,0,3,,,3,,,64,64
39024,note_off,,,,,24,0,4,,,4,,,79,64
39030,note_on,,,,,6,0,6,,,6,,,81,95
39030,note_on,,,,,6,0,7,,,7,,,78,95
39030,note_on,,,,,0,0,4,,,4,,,81,95
39030,note_on,,,,,6,0,4,,,4,,,78,95
39030,note_on,,,,,6,0,3,,,3,,,66,95
39030,note_on,,,,,6,0,1,,,1,,,78,95
39030,note_on,,,,,6,0,5,,,5,,,81,95
39030,note_on,,,,,0,0,1,,,1,,,81,95
39030,note_on,,,,,0,0,3,,,3,,,69,95
39054,note_off,,,,,24,0,3,,,3,,,69,64
39054,note_off,,,,,24,0,6,,,6,,,81,64
39054,note_off,,,,,24,0,5,,,5,,,81,64
39054,note_off,,,,,0,0,1,,,1,,,78,64
39054,note_off,,,,,24,0,7,,,7,,,78,64
39054,note_off,,,,,24,0,4,,,4,,,81,64
39054,note_off,,,,,0,0,3,,,3,,,66,64
39054,note_off,,,,,24,0,1,,,1,,,81,64
39054,note_off,,,,,0,0,4,,,4,,,78,64
39060,note_on,,,,,6,0,5,,,5,,,78,95
39060,note_on,,,,,6,0,3,,,3,,,62,95
39060,note_on,,,,,0,0,4,,,4,,,78,95
39060,note_on,,,,,0,0,3,,,3,,,66,95
39060,note_on,,,,,6,0,4,,,4,,,74,95
39060,note_on,,,,,6,0,7,,,7,,,74,95
39060,note_on,,,,,0,0,1,,,1,,,78,95
39060,note_on,,,,,6,0,1,,,1,,,74,95
39060,note_on,,,,,6,0,6,,,6,,,78,95
39070,note_off,,,,,190,0,10,,,11,,,45,64
39070,note_off,,,,,190,0,2,,,2,,,57,64
39070,note_off,,,,,190,0,9,,,10,,,57,64
39070,note_off,,,,,190,0,8,,,8,,,73,64
39084,note_off,,,,,24,0,7,,,7,,,74,64
39084,note_off,,,,,24,0,4,,,4,,,78,64
39084,note_off,,,,,24,0,6,,,6,,,78,64
39084,note_off,,,,,24,0,1,,,1,,,78,64
39084,note_off,,,,,24,0,5,,,5,,,78,64
39084,note_off,,,,,0,0,4,,,4,,,74,64
39084,note_off,,,,,0,0,1,,,1,,,74,64
39084,note_off,,,,,0,0,3,,,3,,,62,64
39084,note_off,,,,,24,0,3,,,3,,,66,64
39090,note_on,,,,,0,0,1,,,1,,,79,95
39090,note_on,,,,,6,0,4,,,4,,,76,95
39090,note_on,,,,,0,0,4,,,4,,,79,95
39090,note_on,,,,,6,0,6,,,6,,,79,95
39090,note_on,,,,,0,0,3,,,3,,,67,95
39090,note_on,,,,,6,0,3,,,3,,,64,95
39090,note_on,,,,,6,0,1,,,1,,,76,95
39090,note_on,,,,,6,0,5,,,5,,,79,95
39090,note_on,,,,,6,0,7,,,7,,,76,95
39120,note_on,,,,,50,0,10,,,11,,,37,95
39120,note_on,,,,,50,0,2,,,2,,,49,95
39120,note_on,,,,,50,0,8,,,8,,,69,95
39120,note_on,,,,,50,0,9,,,10,,,49,95
39210,note_off,,,,,120,0,1,,,1,,,76,64
39216,note_off,,,,,126,0,3,,,3,,,67,64
39216,note_off,,,,,0,0,3,,,3,,,64,64
39216,note_off,,,,,6,0,1,,,1,,,79,64
39216,note_off,,,,,126,0,6,,,6,,,79,64
39216,note_off,,,,,126,0,5,,,5,,,79,64
39216,note_off,,,,,126,0,4,,,4,,,79,64
39216,note_off,,,,,0,0,4,,,4,,,76,64
39216,note_off,,,,,126,0,7,,,7,,,76,64
39240,note_on,,,,,24,0,7,,,7,,,74,95
39240,note_on,,,,,24,0,6,,,6,,,78,95
39240,note_on,,,,,24,0,5,,,5,,,78,95
39240,note_on,,,,,24,0,1,,,1,,,74,95
39240,note_on,,,,,0,0,1,,,1,,,78,95
39240,note_on,,,,,0,0,3,,,3,,,66,95
39240,note_on,,,,,24,0,3,,,3,,,62,95
39240,note_on,,,,,24,0,4,,,4,,,74,95
39240,note_on,,,,,0,0,4,,,4,,,78,95
39288,note_off,,,,,0,0,3,,,3,,,62,64
39288,note_off,,,,,48,0,3,,,3,,,66,64
39288,note_off,,,,,48,0,7,,,7,,,74,64
39288,note_off,,,,,0,0,4,,,4,,,74,64
39288,note_off,,,,,0,0,1,,,1,,,74,64
39288,note_off,,,,,48,0,1,,,1,,,78,64
39288,note_off,,,,,48,0,6,,,6,,,78,64
39288,note_off,,,,,48,0,4,,,4,,,78,64
39288,note_off,,,,,48,0,5,,,5,,,78,64
39300,note_on,,,,,0,0,1,,,1,,,79,95
39300,note_on,,,,,12,0,1,,,1,,,76,95
39300,note_on,,,,,12,0,7,,,7,,,76,95
39300,note_on,,,,,12,0,3,,,3,,,64,95
39300,note_on,,,,,0,0,3,,,3,,,67,95
39300,note_on,,,,,12,0,6,,,6,,,79,95
39300,note_on,,,,,12,0,4,,,4,,,76,95
39300,note_on,,,,,0,0,4,,,4,,,79,95
39300,note_on,,,,,12,0,5,,,5,,,79,95
39310,note_off,,,,,190,0,10,,,11,,,37,64
39310,note_off,,,,,190,0,8,,,8,,,69,64
39310,note_off,,,,,190,0,2,,,2,,,49,64
39310,note_off,,,,,190,0,9,,,10,,,49,64
39348,note_off,,,,,48,0,5,,,5,,,79,64
39348,note_off,,,,,0,0,1,,,1,,,76,64
39348,note_off,,,,,48,0,4,,,4,,,79,64
39348,note_off,,,,,0,0,4,,,4,,,76,64
39348,note_off,,,,,0,0,3,,,3,,,64,64
39348,note_off,,,,,48,0,7,,,7,,,76,64
39348,note_off,,,,,48,0,6,,,6,,,79,64
39348,note_off,,,,,48,0,3,,,3,,,67,64
39348,note_off,,,,,48,0,1,,,1,,,79,64
39360,note_on,,,,,12,0,3,,,3,,,66,95
39360,note_on,,,,,0,0,1,,,1,,,81,95
39360,note_on,,,,,12,0,1,,,1,,,78,95
39360,note_on,,,,,0,0,3,,,3,,,69,95
39360,note_on,,,,,50,0,9,,,10,,,45,95
39360,note_on,,,,,50,0,8,,,8,,,69,95
39360,note_on,,,,,50,0,10,,,11,,,33,95
39360,note_on,,,,,12,0,4,,,4,,,78,95
39360,note_on,,,,,50,0,2,,,2,,,45,95
39360,note_on,,,,,12,0,7,,,7,,,78,95
39360,note_on,,,,,12,0,6,,,6,,,81,95
39360,note_on,,,,,0,0,4,,,4,,,81,95
39360,note_on,,,,,12,0,5,,,5,,,81,95
39550,note_off,,,,,190,0,10,,,11,,,33,64
39550,note_off,,,,,190,0,9,,,10,,,45,64
39550,note_off,,,,,190,0,2,,,2,,,45,64
39550,note_off,,,,,190,0,8,,,8,,,69,64
39552,note_off,,,,,192,0,1,,,1,,,81,64
39552,note_off,,,,,192,0,6,,,6,,,81,64
39552,note_off,,,,,192,0,3,,,3,,,69,64
39552,note_off,,,,,192,0,5,,,5,,,81,64
39552,note_off,,,,,0,0,3,,,3,,,66,64
39552,note_off,,,,,192,0,4,,,4,,,81,64
39552,note_off,,,,,192,0,7,,,7,,,78,64
39552,note_off,,,,,0,0,1,,,1,,,78,64
39552,note_off,,,,,0,0,4,,,4,,,78,64
39600,note_on,,,,,0,0,3,,,3,,,66,95
39600,note_on,,,,,50,0,2,,,2,,,50,95
39600,note_on,,,,,48,0,3,,,3,,,62,95
39600,note_on,,,,,50,0,9,,,10,,,50,95
39600,note_on,,,,,50,0,8,,,8,,,69,95
39600,note_on,,,,,0,0,4,,,4,,,78,95
39600,note_on,,,,,50,0,10,,,11,,,38,95
39600,note_on,,,,,48,0,4,,,4,,,74,95
39600,note_on,,,,,48,0,5,,,5,,,78,95
39600,note_on,,,,,0,0,1,,,1,,,78,95
39600,note_on,,,,,48,0,1,,,1,,,74,95
39600,note_on,,,,,48,0,6,,,6,,,78,95
39600,note_on,,,,,48,0,7,,,7,,,74,95
39790,note_off,,,,,190,0,4,,,4,,,78,64
39790,note_off,,,,,190,0,5,,,5,,,78,64
39790,note_off,,,,,0,0,4,,,4,,,74,64
39790,note_off,,,,,190,0,2,,,2,,,50,64
39790,note_off,,,,,190,0,9,,,10,,,50,64
39790,note_off,,,,,190,0,8,,,8,,,69,64
39790,note_off,,,,,190,0,10,,,11,,,38,64
39790,note_off,,,,,0,0,1,,,1,,,74,64
39790,note_off,,,,,190,0,1,,,1,,,78,64
39790,note_off,,,,,190,0,7,,,7,,,74,64
39790,note_off,,,,,190,0,6,,,6,,,78,64
39792,note_off,,,,,0,0,3,,,3,,,62,64
39792,note_off,,,,,192,0,3,,,3,,,66,64
39840,note_on,,,,,50,0,6,,,6,,,78,95
39840,note_on,,,,,0,0,3,,,3,,,66,95
39840,note_on,,,,,0,0,4,,,4,,,78,95
39840,note_on,,,,,50,0,4,,,4,,,74,95
39840,note_on,,,,,50,0,9,,,10,,,50,95
39840,note_on,,,,,50,0,2,,,2,,,50,95
39840,note_on,,,,,50,0,10,,,11,,,38,95
39840,note_on,,,,,50,0,7,,,7,,,74,95
39840,note_on,,,,,50,0,8,,,8,,,69,95
39840,note_on,,,,,0,0,1,,,1,,,78,95
39840,note_on,,,,,50,0,1,,,1,,,74,95
39840,note_on,,,,,50,0,5,,,5,,,78,95
39840,note_on,,,,,48,0,3,,,3,,,62,95
39935,note_off,,,,,0,0,1,,,1,,,74,64
39935,note_off,,,,,95,0,1,,,1,,,78,64
39935,note_off,,,,,95,0,9,,,10,,,50,64
39935,note_off,,,,,95,0,6,,,6,,,78,64
39935,note_off,,,,,95,0,10,,,11,,,38,64
39935,note_off,,,,,95,0,7,,,7,,,74,64
39935,note_off,,,,,95,0,5,,,5,,,78,64
39935,note_off,,,,,0,0,4,,,4,,,74,64
39935,note_off,,,,,95,0,4,,,4,,,78,64
39935,note_off,,,,,95,0,2,,,2,,,50,64
39935,note_off,,,,,95,0,8,,,8,,,69,64
39936,note_off,,,,,96,0,3,,,3,,,66,64
39936,note_off,,,,,0,0,3,,,3,,,62,64
39960,note_on,,,,,25,0,6,,,6,,,78,95
39960,note_on,,,,,24,0,3,,,3,,,62,95
39960,note_on,,,,,0,0,3,,,3,,,66,95
39960,note_on,,,,,25,0,8,,,8,,,69,95
39960,note_on,,,,,25,0,1,,,1,,,74,95
39960,note_on,,,,,0,0,1,,,1,,,78,95
39960,note_on,,,,,0,0,4,,,4,,,78,95
39960,note_on,,,,,25,0,10,,,11,,,38,95
39960,note_on,,,,,25,0,2,,,2,,,50,95
39960,note_on,,,,,25,0,9,,,10,,,50,95
39960,note_on,,,,,25,0,5,,,5,,,78,95
39960,note_on,,,,,25,0,7,,,7,,,74,95
39960,note_on,,,,,25,0,4,,,4,,,74,95
40055,note_off,,,,,95,0,8,,,8,,,69,64
40055,note_off,,,,,95,0,9,,,10,,,50,64
40055,note_off,,,,,95,0,6,,,6,,,78,64
40055,note_off,,,,,95,0,7,,,7,,,74,64
40055,note_off,,,,,95,0,10,,,11,,,38,64
40055,note_off,,,,,0,0,4,,,4,,,74,64
40055,note_off,,,,,95,0,2,,,2,,,50,64
40055,note_off,,,,,95,0,1,,,1,,,78,64
40055,note_off,,,,,95,0,4,,,4,,,78,64
40055,note_off,,,,,95,0,5,,,5,,,78,64
40055,note_off,,,,,0,0,1,,,1,,,74,64
40056,note_off,,,,,96,0,3,,,3,,,66,64
40056,note_off,,,,,0,0,3,,,3,,,62,64
40080,note_on,,,,,25,0,2,,,2,,,50,95
40080,note_on,,,,,0,0,4,,,4,,,78,95
40080,note_on,,,,,25,0,4,,,4,,,74,95
40080,note_on,,,,,0,0,3,,,3,,,66,95
40080,note_on,,,,,25,0,10,,,11,,,38,95
40080,note_on,,,,,25,0,8,,,8,,,69,95
40080,note_on,,,,,0,0,1,,,1,,,78,95
40080,note_on,,,,,24,0,3,,,3,,,62,95
40080,note_on,,,,,25,0,5,,,5,,,78,95
40080,note_on,,,,,25,0,7,,,7,,,74,95
40080,note_on,,,,,25,0,6,,,6,,,78,95
40080,note_on,,,,,25,0,9,,,10,,,50,95
40080,note_on,,,,,25,0,1,,,1,,,74,95
40175,note_off,,,,,95,0,4,,,4,,,78,64
40175,note_off,,,,,95,0,2,,,2,,,50,64
40175,note_off,,,,,95,0,9,,,10,,,50,64
40175,note_off,,,,,95,0,7,,,7,,,74,64
40175,note_off,,,,,95,0,8,,,8,,,69,64
40175,note_off,,,,,95,0,10,,,11,,,38,64
40175,note_off,,,,,95,0,5,,,5,,,78,64
40175,note_off,,,,,95,0,1,,,1,,,78,64
40175,note_off,,,,,0,0,1,,,1,,,74,64
40175,note_off,,,,,95,0,6,,,6,,,78,64
40175,note_off,,,,,0,0,4,,,4,,,74,64
40176,note_off,,,,,0,0,3,,,3,,,62,64
40176,note_off,,,,,96,0,3,,,3,,,66,64
40200,note_on,,,,,25,0,4,,,4,,,74,95
40200,note_on,,,,,0,0,4,,,4,,,78,95
40200,note_on,,,,,25,0,9,,,10,,,50,95
40200,note_on,,,,,24,0,3,,,3,,,62,95
40200,note_on,,,,,25,0,7,,,7,,,74,95
40200,note_on,,,,,25,0,1,,,1,,,74,95
40200,note_on,,,,,0,0,3,,,3,,,66,95
40200,note_on,,,,,25,0,2,,,2,,,50,95
40200,note_on,,,,,25,0,8,,,8,,,69,95
40200,note_on,,,,,25,0,10,,,11,,,38,95
40200,note_on,,,,,25,0,5,,,5,,,78,95
40200,note_on,,,,,25,0,6,,,6,,,78,95
40200,note_on,,,,,0,0,1,,,1,,,78,95
40295,note_off,,,,,95,0,10,,,11,,,38,64
40295,note_off,,,,,95,0,4,,,4,,,78,64
40295,note_off,,,,,0,0,4,,,4,,,74,64
40295,note_off,,,,,95,0,1,,,1,,,78,64
40295,note_off,,,,,95,0,5,,,5,,,78,64
40295,note_off,,,,,95,0,9,,,10,,,50,64
40295,note_off,,,,,95,0,2,,,2,,,50,64
40295,note_off,,,,,0,0,1,,,1,,,74,64
40295,note_off,,,,,95,0,6,,,6,,,78,64
40295,note_off,,,,,95,0,7,,,7,,,74,64
40295,note_off,,,,,95,0,8,,,8,,,69,64
40296,note_off,,,,,0,0,3,,,3,,,62,64
40296,note_off,,,,,96,0,3,,,3,,,66,64
40320,note_on,,,,,0,0,4,,,4,,,78,95
40320,note_on,,,,,0,0,3,,,3,,,66,95
40320,note_on,,,,,24,0,3,,,3,,,62,95
40320,note_on,,,,,25,0,2,,,2,,,50,95
40320,note_on,,,,,25,0,4,,,4,,,74,95
40320,note_on,,,,,25,0,10,,,11,,,38,95
40320,note_on,,,,,25,0,7,,,7,,,74,95
40320,note_on,,,,,25,0,1,,,1,,,74,95
40320,note_on,,,,,0,0,1,,,1,,,78,95
40320,note_on,,,,,25,0,6,,,6,,,78,95
40320,note_on,,,,,25,0,9,,,10,,,50,95
40320,note_on,,,,,25,0,8,,,8,,,69,95
40320,note_on,,,,,25,0,5,,,5,,,78,95
40510,note_off,,,,,190,0,10,,,11,,,38,64
40510,note_off,,,,,190,0,2,,,2,,,50,64
40510,note_off,,,,,190,0,9,,,10,,,50,64
40560,note_on,,,,,50,0,2,,,2,,,54,95
40560,note_on,,,,,50,0,9,,,10,,,54,95
40560,note_on,,,,,50,0,10,,,11,,,42,95
40750,note_off,,,,,190,0,9,,,10,,,54,64
40750,note_off,,,,,190,0,10,,,11,,,42,64
40750,note_off,,,,,190,0,2,,,2,,,54,64
40800,note_on,,,,,50,0,2,,,2,,,57,95
40800,note_on,,,,,50,0,10,,,11,,,45,95
40800,note_on,,,,,50,0,9,,,10,,,57,95
40895,note_off,,,,,0,0,1,,,1,,,74,64
40895,note_off,,,,,575,0,4,,,4,,,78,64
40895,note_off,,,,,575,0,6,,,6,,,78,64
40895,note_off,,,,,575,0,5,,,5,,,78,64
40895,note_off,,,,,0,0,4,,,4,,,74,64
40895,note_off,,,,,575,0,7,,,7,,,74,64
40895,note_off,,,,,575,0,1,,,1,,,78,64
40895,note_off,,,,,575,0,8,,,8,,,69,64
40896,note_off,,,,,0,0,3,,,3,,,62,64
40896,note_off,,,,,576,0,3,,,3,,,66,64
40990,note_off,,,,,190,0,10,,,11,,,45,64
40990,note_off,,,,,190,0,2,,,2,,,57,64
40990,note_off,,,,,190,0,9,,,10,,,57,64
41040,note_on,,,,,145,0,6,,,6,,,81,95
41040,note_on,,,,,50,0,2,,,2,,,62,95
41040,note_on,,,,,145,0,8,,,8,,,66,95
41040,note_on,,,,,50,0,10,,,11,,,50,95
41040,note_on,,,,,50,0,9,,,10,,,62,95
41040,note_on,,,,,145,0,7,,,7,,,66,95
41040,note_on,,,,,145,0,1,,,1,,,66,95
41040,note_on,,,,,0,0,1,,,1,,,69,95
41040,note_on,,,,,145,0,5,,,5,,,81,95
41230,note_off,,,,,190,0,9,,,10,,,62,64
41230,note_off,,,,,190,0,7,,,7,,,66,64
41230,note_off,,,,,190,0,6,,,6,,,81,64
41230,note_off,,,,,190,0,2,,,2,,,62,64
41230,note_off,,,,,0,0,1,,,1,,,66,64
41230,note_off,,,,,190,0,1,,,1,,,69,64
41230,note_off,,,,,190,0,5,,,5,,,81,64
41230,note_off,,,,,190,0,10,,,11,,,50,64
41230,note_off,,,,,190,0,8,,,8,,,66,64
41280,note_on,,,,,50,0,1,,,1,,,66,95
41280,note_on,,,,,50,0,8,,,8,,,66,95
41280,note_on,,,,,50,0,7,,,7,,,66,95
41280,note_on,,,,,50,0,10,,,11,,,38,95
41280,note_on,,,,,50,0,6,,,6,,,81,95
41280,note_on,,,,,50,0,2,,,2,,,50,95
41280,note_on,,,,,50,0,9,,,10,,,50,95
41280,note_on,,,,,0,0,1,,,1,,,69,95
41280,note_on,,,,,50,0,5,,,5,,,81,95
41470,note_off,,,,,190,0,7,,,7,,,66,64
41470,note_off,,,,,190,0,9,,,10,,,50,64
41470,note_off,,,,,190,0,8,,,8,,,66,64
41470,note_off,,,,,190,0,5,,,5,,,81,64
41470,note_off,,,,,190,0,2,,,2,,,50,64
41470,note_off,,,,,190,0,10,,,11,,,38,64
41470,note_off,,,,,190,0,1,,,1,,,69,64
41470,note_off,,,,,0,0,1,,,1,,,66,64
41470,note_off,,,,,190,0,6,,,6,,,81,64
41520,note_on,,,,,50,0,10,,,11,,,50,95
41520,note_on,,,,,50,0,7,,,7,,,66,95
41520,note_on,,,,,50,0,5,,,5,,,81,95
41520,note_on,,,,,50,0,2,,,2,,,62,95
41520,note_on,,,,,0,0,1,,,1,,,69,95
41520,note_on,,,,,50,0,9,,,10,,,62,95
41520,note_on,,,,,50,0,1,,,1,,,66,95
41520,note_on,,,,,50,0,6,,,6,,,81,95
41520,note_on,,,,,50,0,8,,,8,,,66,95
41710,note_off,,,,,190,0,7,,,7,,,66,64
41710,note_off,,,,,190,0,5,,,5,,,81,64
41710,note_off,,,,,190,0,8,,,8,,,66,64
41710,note_off,,,,,190,0,1,,,1,,,69,64
41710,note_off,,,,,190,0,2,,,2,,,62,64
41710,note_off,,,,,190,0,9,,,10,,,62,64
41710,note_off,,,,,0,0,1,,,1,,,66,64
41710,note_off,,,,,190,0,6,,,6,,,81,64
41710,note_off,,,,,190,0,10,,,11,,,50,64
41760,note_on,,,,,50,0,8,,,8,,,64,95
41760,note_on,,,,,50,0,6,,,6,,,81,95
41760,note_on,,,,,0,0,1,,,1,,,69,95
41760,note_on,,,,,50,0,10,,,11,,,49,95
41760,note_on,,,,,50,0,7,,,7,,,64,95
41760,note_on,,,,,50,0,2,,,2,,,61,95
41760,note_on,,,,,50,0,1,,,1,,,64,95
41760,note_on,,,,,50,0,5,,,5,,,81,95
41760,note_on,,,,,50,0,9,,,10,,,61,95
41950,note_off,,,,,190,0,7,,,7,,,64,64
41950,note_off,,,,,190,0,8,,,8,,,64,64
41950,note_off,,,,,190,0,5,,,5,,,81,64
41950,note_off,,,,,190,0,9,,,10,,,61,64
41950,note_off,,,,,190,0,1,,,1,,,69,64
41950,note_off,,,,,0,0,1,,,1,,,64,64
41950,note_off,,,,,190,0,2,,,2,,,61,64
41950,note_off,,,,,190,0,10,,,11,,,49,64
41950,note_off,,,,,190,0,6,,,6,,,81,64
42000,note_on,,,,,50,0,2,,,2,,,49,95
42000,note_on,,,,,50,0,6,,,6,,,83,95
42000,note_on,,,,,50,0,7,,,7,,,64,95
42000,note_on,,,,,50,0,8,,,8,,,64,95
42000,note_on,,,,,50,0,10,,,11,,,37,95
42000,note_on,,,,,50,0,5,,,5,,,83,95
42000,note_on,,,,,50,0,9,,,10,,,49,95
42000,note_on,,,,,50,0,1,,,1,,,64,95
42000,note_on,,,,,0,0,1,,,1,,,71,95
42190,note_off,,,,,190,0,10,,,11,,,37,64
42190,note_off,,,,,190,0,8,,,8,,,64,64
42190,note_off,,,,,190,0,5,,,5,,,83,64
42190,note_off,,,,,190,0,6,,,6,,,83,64
42190,note_off,,,,,190,0,9,,,10,,,49,64
42190,note_off,,,,,190,0,1,,,1,,,71,64
42190,note_off,,,,,190,0,2,,,2,,,49,64
42190,note_off,,,,,0,0,1,,,1,,,64,64
42190,note_off,,,,,190,0,7,,,7,,,64,64
42240,note_on,,,,,50,0,6,,,6,,,85,95
42240,note_on,,,,,50,0,1,,,1,,,69,95
42240,note_on,,,,,50,0,2,,,2,,,61,95
42240,note_on,,,,,50,0,7,,,7,,,69,95
42240,note_on,,,,,50,0,10,,,11,,,49,95
42240,note_on,,,,,0,0,1,,,1,,,73,95
42240,note_on,,,,,50,0,5,,,5,,,85,95
42240,note_on,,,,,50,0,8,,,8,,,64,95
42240,note_on,,,,,50,0,9,,,10,,,61,95
42430,note_off,,,,,190,0,2,,,2,,,61,64
42430,note_off,,,,,190,0,5,,,5,,,85,64
42430,note_off,,,,,190,0,8,,,8,,,64,64
42430,note_off,,,,,190,0,9,,,10,,,61,64
42430,note_off,,,,,190,0,7,,,7,,,69,64
42430,note_off,,,,,190,0,10,,,11,,,49,64
42430,note_off,,,,,190,0,1,,,1,,,73,64
42430,note_off,,,,,190,0,6,,,6,,,85,64
42430,note_off,,,,,0,0,1,,,1,,,69,64
42480,note_on,,,,,50,0,6,,,6,,,86,95
42480,note_on,,,,,0,0,1,,,1,,,74,95
42480,note_on,,,,,50,0,1,,,1,,,66,95
42480,note_on,,,,,50,0,8,,,8,,,66,95
42480,note_on,,,,,50,0,5,,,5,,,86,95
42480,note_on,,,,,50,0,7,,,7,,,66,95
42480,note_on,,,,,50,0,10,,,11,,,47,95
42480,note_on,,,,,50,0,2,,,2,,,59,95
42480,note_on,,,,,50,0,9,,,10,,,59,95
42670,note_off,,,,,190,0,1,,,1,,,74,64
42670,note_off,,,,,190,0,5,,,5,,,86,64
42670,note_off,,,,,0,0,1,,,1,,,66,64
42670,note_off,,,,,190,0,10,,,11,,,47,64
42670,note_off,,,,,190,0,8,,,8,,,66,64
42670,note_off,,,,,190,0,2,,,2,,,59,64
42670,note_off,,,,,190,0,7,,,7,,,66,64
42670,note_off,,,,,190,0,9,,,10,,,59,64
42670,note_off,,,,,190,0,6,,,6,,,86,64
42720,note_on,,,,,50,0,5,,,5,,,86,95
42720,note_on,,,,,50,0,2,,,2,,,59,95
42720,note_on,,,,,0,0,1,,,1,,,74,95
42720,note_on,,,,,50,0,1,,,1,,,66,95
42720,note_on,,,,,50,0,10,,,11,,,47,95
42720,note_on,,,,,50,0,9,,,10,,,59,95
42720,note_on,,,,,50,0,7,,,7,,,66,95
42720,note_on,,,,,50,0,8,,,8,,,66,95
42720,note_on,,,,,50,0,6,,,6,,,86,95
42815,note_off,,,,,0,0,1,,,1,,,66,64
42815,note_off,,,,,95,0,1,,,1,,,74,64
42815,note_off,,,,,95,0,6,,,6,,,86,64
42815,note_off,,,,,95,0,8,,,8,,,66,64
42815,note_off,,,,,95,0,5,,,5,,,86,64
42815,note_off,,,,,95,0,7,,,7,,,66,64
42840,note_on,,,,,25,0,8,,,8,,,66,95
42840,note_on,,,,,25,0,5,,,5,,,86,95
42840,note_on,,,,,25,0,7,,,7,,,66,95
42840,note_on,,,,,25,0,1,,,1,,,66,95
42840,note_on,,,,,25,0,6,,,6,,,86,95
42840,note_on,,,,,0,0,1,,,1,,,74,95
42910,note_off,,,,,190,0,10,,,11,,,47,64
42910,note_off,,,,,190,0,2,,,2,,,59,64
42910,note_off,,,,,190,0,9,,,10,,,59,64
42935,note_off,,,,,95,0,6,,,6,,,86,64
42935,note_off,,,,,95,0,8,,,8,,,66,64
42935,note_off,,,,,95,0,7,,,7,,,66,64
42935,note_off,,,,,95,0,1,,,1,,,74,64
42935,note_off,,,,,0,0,1,,,1,,,66,64
42935,note_off,,,,,95,0,5,,,5,,,86,64
42960,note_on,,,,,25,0,7,,,7,,,66,95
42960,note_on,,,,,25,0,1,,,1,,,66,95
42960,note_on,,,,,25,0,8,,,8,,,66,95
42960,note_on,,,,,50,0,9,,,10,,,59,95
42960,note_on,,,,,25,0,5,,,5,,,86,95
42960,note_on,,,,,50,0,2,,,2,,,59,95
42960,note_on,,,,,50,0,10,,,11,,,47,95
42960,note_on,,,,,25,0,6,,,6,,,86,95
42960,note_on,,,,,0,0,1,,,1,,,74,95
43055,note_off,,,,,95,0,8,,,8,,,66,64
43055,note_off,,,,,95,0,5,,,5,,,86,64
43055,note_off,,,,,95,0,6,,,6,,,86,64
43055,note_off,,,,,95,0,1,,,1,,,74,64
43055,note_off,,,,,0,0,1,,,1,,,66,64
43055,note_off,,,,,95,0,7,,,7,,,66,64
43080,note_on,,,,,25,0,8,,,8,,,67,95
43080,note_on,,,,,25,0,7,,,7,,,67,95
43080,note_on,,,,,25,0,1,,,1,,,67,95
43080,note_on,,,,,0,0,1,,,1,,,74,95
43080,note_on,,,,,25,0,5,,,5,,,86,95
43080,note_on,,,,,25,0,6,,,6,,,86,95
43150,note_off,,,,,190,0,2,,,2,,,59,64
43150,note_off,,,,,190,0,10,,,11,,,47,64
43150,note_off,,,,,190,0,9,,,10,,,59,64
43175,note_off,,,,,95,0,8,,,8,,,67,64
43175,note_off,,,,,95,0,6,,,6,,,86,64
43175,note_off,,,,,95,0,5,,,5,,,86,64
43175,note_off,,,,,95,0,7,,,7,,,67,64
43175,note_off,,,,,0,0,1,,,1,,,67,64
43175,note_off,,,,,95,0,1,,,1,,,74,64
43200,note_on,,,,,50,0,10,,,11,,,42,95
43200,note_on,,,,,50,0,2,,,2,,,54,95
43200,note_on,,,,,25,0,1,,,1,,,69,95
43200,note_on,,,,,50,0,9,,,10,,,54,95
43200,note_on,,,,,25,0,5,,,5,,,86,95
43200,note_on,,,,,0,0,1,,,1,,,74,95
43200,note_on,,,,,25,0,7,,,7,,,69,95
43200,note_on,,,,,25,0,8,,,8,,,69,95
43200,note_on,,,,,25,0,6,,,6,,,86,95
43440,note_on,,,,,240,0,1,,,1,,,81,95
43585,note_off,,,,,385,0,8,,,8,,,69,64
43585,note_off,,,,,385,0,9,,,10,,,54,64
43585,note_off,,,,,385,0,10,,,11,,,42,64
43585,note_off,,,,,145,0,1,,,1,,,69,64
43585,note_off,,,,,385,0,5,,,5,,,86,64
43585,note_off,,,,,385,0,6,,,6,,,86,64
43585,note_off,,,,,385,0,2,,,2,,,54,64
43585,note_off,,,,,385,0,7,,,7,,,69,64
43630,note_off,,,,,45,0,1,,,1,,,81,64
43650,note_off,,,,,20,0,1,,,1,,,74,64
43680,note_on,,,,,95,0,6,,,6,,,81,95
43680,note_on,,,,,2785,0,4,,,4,,,78,95
43680,note_on,,,,,95,0,2,,,2,,,50,95
43680,note_on,,,,,30,0,1,,,1,,,78,95
43680,note_on,,,,,95,0,8,,,8,,,62,95
43680,note_on,,,,,95,0,10,,,11,,,38,95
43680,note_on,,,,,95,0,7,,,7,,,78,95
43680,note_on,,,,,0,0,4,,,4,,,81,95
43680,note_on,,,,,95,0,9,,,10,,,50,95
43680,note_on,,,,,2784,0,3,,,3,,,66,95
43680,note_on,,,,,0,0,3,,,3,,,69,95
43680,note_on,,,,,95,0,5,,,5,,,81,95
43870,note_off,,,,,190,0,6,,,6,,,81,64
43870,note_off,,,,,190,0,1,,,1,,,78,64
43870,note_off,,,,,190,0,5,,,5,,,81,64
43870,note_off,,,,,190,0,10,,,11,,,38,64
43870,note_off,,,,,190,0,8,,,8,,,62,64
43870,note_off,,,,,190,0,9,,,10,,,50,64
43870,note_off,,,,,190,0,2,,,2,,,50,64
43870,note_off,,,,,190,0,7,,,7,,,78,64
43872,note_off,,,,,0,0,3,,,3,,,66,64
43872,note_off,,,,,192,0,4,,,4,,,81,64
43872,note_off,,,,,0,0,4,,,4,,,78,64
43872,note_off,,,,,192,0,3,,,3,,,69,64
43920,note_on,,,,,0,0,3,,,3,,,71,95
43920,note_on,,,,,48,0,3,,,3,,,67,95
43920,note_on,,,,,50,0,6,,,6,,,83,95
43920,note_on,,,,,50,0,5,,,5,,,83,95
43920,note_on,,,,,50,0,2,,,2,,,55,95
43920,note_on,,,,,0,0,4,,,4,,,83,95
43920,note_on,,,,,48,0,4,,,4,,,79,95
43920,note_on,,,,,50,0,7,,,7,,,79,95
43920,note_on,,,,,50,0,10,,,11,,,43,95
43920,note_on,,,,,0,0,1,,,1,,,83,95
43920,note_on,,,,,50,0,1,,,1,,,79,95
43920,note_on,,,,,50,0,9,,,10,,,55,95
43920,note_on,,,,,50,0,8,,,8,,,62,95
44110,note_off,,,,,0,0,4,,,4,,,79,64
44110,note_off,,,,,190,0,7,,,7,,,79,64
44110,note_off,,,,,190,0,4,,,4,,,83,64
44110,note_off,,,,,190,0,9,,,10,,,55,64
44110,note_off,,,,,190,0,5,,,5,,,83,64
44110,note_off,,,,,190,0,2,,,2,,,55,64
44110,note_off,,,,,190,0,6,,,6,,,83,64
44110,note_off,,,,,0,0,1,,,1,,,79,64
44110,note_off,,,,,190,0,1,,,1,,,83,64
44110,note_off,,,,,190,0,10,,,11,,,43,64
44112,note_off,,,,,192,0,3,,,3,,,71,64
44112,note_off,,,,,0,0,3,,,3,,,67,64
44160,note_on,,,,,50,0,5,,,5,,,81,95
44160,note_on,,,,,50,0,2,,,2,,,47,95
44160,note_on,,,,,0,0,1,,,1,,,81,95
44160,note_on,,,,,50,0,1,,,1,,,78,95
44160,note_on,,,,,50,0,9,,,10,,,47,95
44160,note_on,,,,,48,0,3,,,3,,,66,95
44160,note_on,,,,,50,0,10,,,11,,,35,95
44160,note_on,,,,,50,0,7,,,7,,,78,95
44160,note_on,,,,,0,0,4,,,4,,,81,95
44160,note_on,,,,,50,0,4,,,4,,,78,95
44160,note_on,,,,,50,0,6,,,6,,,81,95
44160,note_on,,,,,0,0,3,,,3,,,69,95
44305,note_off,,,,,385,0,8,,,8,,,62,64
44350,note_off,,,,,190,0,9,,,10,,,47,64
44350,note_off,,,,,190,0,5,,,5,,,81,64
44350,note_off,,,,,0,0,4,,,4,,,78,64
44350,note_off,,,,,190,0,4,,,4,,,81,64
44350,note_off,,,,,190,0,2,,,2,,,47,64
44350,note_off,,,,,190,0,1,,,1,,,81,64
44350,note_off,,,,,190,0,6,,,6,,,81,64
44350,note_off,,,,,190,0,7,,,7,,,78,64
44350,note_off,,,,,190,0,10,,,11,,,35,64
44350,note_off,,,,,0,0,1,,,1,,,78,64
44352,note_off,,,,,192,0,3,,,3,,,69,64
44352,note_off,,,,,0,0,3,,,3,,,66,64
44400,note_on,,,,,50,0,6,,,6,,,79,95
44400,note_on,,,,,50,0,1,,,1,,,76,95
44400,note_on,,,,,50,0,7,,,7,,,76,95
44400,note_on,,,,,0,0,1,,,1,,,79,95
44400,note_on,,,,,50,0,9,,,10,,,49,95
44400,note_on,,,,,50,0,10,,,11,,,37,95
44400,note_on,,,,,0,0,4,,,4,,,79,95
44400,note_on,,,,,48,0,3,,,3,,,64,95
44400,note_on,,,,,0,0,3,,,3,,,67,95
44400,note_on,,,,,50,0,5,,,5,,,79,95
44400,note_on,,,,,50,0,4,,,4,,,76,95
44400,note_on,,,,,50,0,2,,,2,,,49,95
44400,note_on,,,,,95,0,8,,,8,,,64,95
44590,note_off,,,,,0,0,4,,,4,,,76,64
44590,note_off,,,,,190,0,1,,,1,,,79,64
44590,note_off,,,,,190,0,2,,,2,,,49,64
44590,note_off,,,,,190,0,8,,,8,,,64,64
44590,note_off,,,,,190,0,7,,,7,,,76,64
44590,note_off,,,,,0,0,1,,,1,,,76,64
44590,note_off,,,,,190,0,10,,,11,,,37,64
44590,note_off,,,,,190,0,5,,,5,,,79,64
44590,note_off,,,,,190,0,4,,,4,,,79,64
44590,note_off,,,,,190,0,9,,,10,,,49,64
44590,note_off,,,,,190,0,6,,,6,,,79,64
44592,note_off,,,,,192,0,3,,,3,,,67,64
44592,note_off,,,,,0,0,3,,,3,,,64,64
44640,note_on,,,,,50,0,5,,,5,,,78,95
44640,note_on,,,,,48,0,3,,,3,,,62,95
44640,note_on,,,,,50,0,2,,,2,,,50,95
44640,note_on,,,,,50,0,4,,,4,,,74,95
44640,note_on,,,,,0,0,3,,,3,,,66,95
44640,note_on,,,,,50,0,9,,,10,,,50,95
44640,note_on,,,,,50,0,8,,,8,,,66,95
44640,note_on,,,,,0,0,1,,,1,,,78,95
44640,note_on,,,,,50,0,6,,,6,,,78,95
44640,note_on,,,,,50,0,7,,,7,,,74,95
44640,note_on,,,,,50,0,1,,,1,,,74,95
44640,note_on,,,,,50,0,10,,,11,,,38,95
44640,note_on,,,,,0,0,4,,,4,,,78,95
44830,note_off,,,,,190,0,8,,,8,,,66,64
44830,note_off,,,,,190,0,7,,,7,,,74,64
44830,note_off,,,,,190,0,10,,,11,,,38,64
44830,note_off,,,,,190,0,6,,,6,,,78,64
44830,note_off,,,,,190,0,2,,,2,,,50,64
44830,note_off,,,,,190,0,1,,,1,,,78,64
44830,note_off,,,,,0,0,1,,,1,,,74,64
44830,note_off,,,,,190,0,4,,,4,,,78,64
44830,note_off,,,,,190,0,5,,,5,,,78,64
44830,note_off,,,,,0,0,4,,,4,,,74,64
44830,note_off,,,,,190,0,9,,,10,,,50,64
44832,note_off,,,,,0,0,3,,,3,,,62,64
44832,note_off,,,,,192,0,3,,,3,,,66,64
44880,note_on,,,,,48,0,3,,,3,,,57,95
44880,note_on,,,,,50,0,8,,,8,,,69,95
44880,note_on,,,,,50,0,7,,,7,,,73,95
44880,note_on,,,,,50,0,2,,,2,,,54,95
44880,note_on,,,,,50,0,10,,,11,,,42,95
44880,note_on,,,,,0,0,4,,,4,,,76,95
44880,note_on,,,,,50,0,4,,,4,,,69,95
44880,note_on,,,,,50,0,9,,,10,,,54,95
44880,note_on,,,,,50,0,6,,,6,,,76,95
44880,note_on,,,,,50,0,1,,,1,,,73,95
44880,note_on,,,,,0,0,1,,,1,,,76,95
44880,note_on,,,,,50,0,5,,,5,,,76,95
44880,note_on,,,,,0,0,3,,,3,,,64,95
45070,note_off,,,,,190,0,6,,,6,,,76,64
45070,note_off,,,,,190,0,5,,,5,,,76,64
45070,note_off,,,,,190,0,8,,,8,,,69,64
45070,note_off,,,,,190,0,2,,,2,,,54,64
45070,note_off,,,,,190,0,9,,,10,,,54,64
45070,note_off,,,,,190,0,10,,,11,,,42,64
45070,note_off,,,,,0,0,1,,,1,,,73,64
45070,note_off,,,,,0,0,4,,,4,,,69,64
45070,note_off,,,,,190,0,4,,,4,,,76,64
45070,note_off,,,,,190,0,1,,,1,,,76,64
45070,note_off,,,,,190,0,7,,,7,,,73,64
45072,note_off,,,,,0,0,3,,,3,,,57,64
45072,note_off,,,,,192,0,3,,,3,,,64,64
45120,note_on,,,,,48,0,3,,,3,,,54,95
45120,note_on,,,,,50,0,7,,,7,,,71,95
45120,note_on,,,,,0,0,4,,,4,,,74,95
45120,note_on,,,,,50,0,9,,,10,,,59,95
45120,note_on,,,,,50,0,2,,,2,,,59,95
45120,note_on,,,,,50,0,6,,,6,,,74,95
45120,note_on,,,,,50,0,5,,,5,,,74,95
45120,note_on,,,,,50,0,1,,,1,,,71,95
45120,note_on,,,,,0,0,1,,,1,,,74,95
45120,note_on,,,,,50,0,8,,,8,,,71,95
45120,note_on,,,,,50,0,10,,,11,,,47,95
45120,note_on,,,,,0,0,3,,,3,,,62,95
45120,note_on,,,,,50,0,4,,,4,,,66,95
45310,note_off,,,,,190,0,9,,,10,,,59,64
45310,note_off,,,,,190,0,8,,,8,,,71,64
45310,note_off,,,,,190,0,6,,,6,,,74,64
45310,note_off,,,,,190,0,5,,,5,,,74,64
45310,note_off,,,,,190,0,10,,,11,,,47,64
45310,note_off,,,,,190,0,7,,,7,,,71,64
45310,note_off,,,,,0,0,4,,,4,,,66,64
45310,note_off,,,,,190,0,4,,,4,,,74,64
45310,note_off,,,,,190,0,2,,,2,,,59,64
45310,note_off,,,,,190,0,1,,,1,,,74,64
45310,note_off,,,,,0,0,1,,,1,,,71,64
45312,note_off,,,,,192,0,3,,,3,,,62,64
45312,note_off,,,,,0,0,3,,,3,,,54,64
45360,note_on,,,,,48,0,3,,,3,,,57,95
45360,note_on,,,,,50,0,2,,,2,,,57,95
45360,note_on,,,,,50,0,8,,,8,,,64,95
45360,note_on,,,,,50,0,1,,,1,,,73,95
45360,note_on,,,,,0,0,1,,,1,,,76,95
45360,note_on,,,,,50,0,9,,,10,,,57,95
45360,note_on,,,,,50,0,10,,,11,,,45,95
45360,note_on,,,,,0,0,3,,,3,,,64,95
45360,note_on,,,,,50,0,5,,,5,,,76,95
45360,note_on,,,,,0,0,4,,,4,,,76,95
45360,note_on,,,,,50,0,7,,,7,,,73,95
45360,note_on,,,,,50,0,6,,,6,,,76,95
45360,note_on,,,,,50,0,4,,,4,,,69,95
45550,note_off,,,,,0,0,4,,,4,,,69,64
45550,note_off,,,,,190,0,4,,,4,,,76,64
45550,note_off,,,,,190,0,7,,,7,,,73,64
45550,note_off,,,,,190,0,9,,,10,,,57,64
45550,note_off,,,,,190,0,1,,,1,,,76,64
45550,note_off,,,,,0,0,1,,,1,,,73,64
45550,note_off,,,,,190,0,2,,,2,,,57,64
45550,note_off,,,,,190,0,6,,,6,,,76,64
45550,note_off,,,,,190,0,10,,,11,,,45,64
45550,note_off,,,,,190,0,8,,,8,,,64,64
45550,note_off,,,,,190,0,5,,,5,,,76,64
45552,note_off,,,,,0,0,3,,,3,,,57,64
45552,note_off,,,,,192,0,3,,,3,,,64,64
45600,note_on,,,,,50,0,4,,,4,,,69,95
45600,note_on,,,,,0,0,3,,,3,,,57,95
45600,note_on,,,,,48,0,3,,,3,,,57,95
45600,note_on,,,,,50,0,6,,,6,,,69,95
45600,note_on,,,,,50,0,10,,,11,,,45,95
45600,note_on,,,,,0,0,4,,,4,,,69,95
45600,note_on,,,,,50,0,9,,,10,,,57,95
45600,note_on,,,,,50,0,2,,,2,,,57,95
45600,note_on,,,,,50,0,8,,,8,,,61,95
45600,note_on,,,,,50,0,1,,,1,,,73,95
45600,note_on,,,,,50,0,7,,,7,,,73,95
45600,note_on,,,,,50,0,5,,,5,,,69,95
45600,note_on,,,,,0,0,1,,,1,,,69,95
45695,note_off,,,,,95,0,4,,,4,,,69,64
45695,note_off,,,,,95,0,2,,,2,,,57,64
45695,note_off,,,,,0,0,4,,,4,,,69,64
45695,note_off,,,,,95,0,1,,,1,,,69,64
45695,note_off,,,,,0,0,1,,,1,,,73,64
45695,note_off,,,,,95,0,7,,,7,,,73,64
45695,note_off,,,,,95,0,8,,,8,,,61,64
45695,note_off,,,,,95,0,9,,,10,,,57,64
45695,note_off,,,,,95,0,10,,,11,,,45,64
45695,note_off,,,,,95,0,6,,,6,,,69,64
45695,note_off,,,,,95,0,5,,,5,,,69,64
45696,note_off,,,,,0,0,3,,,3,,,57,64
45696,note_off,,,,,96,0,3,,,3,,,57,64
45720,note_on,,,,,25,0,7,,,7,,,73,95
45720,note_on,,,,,25,0,9,,,10,,,57,95
45720,note_on,,,,,25,0,8,,,8,,,61,95
45720,note_on,,,,,25,0,10,,,11,,,45,95
45720,note_on,,,,,25,0,2,,,2,,,57,95
45720,note_on,,,,,25,0,5,,,5,,,69,95
45720,note_on,,,,,0,0,1,,,1,,,69,95
45720,note_on,,,,,25,0,1,,,1,,,73,95
45720,note_on,,,,,0,0,4,,,4,,,69,95
45720,note_on,,,,,25,0,6,,,6,,,69,95
45720,note_on,,,,,25,0,4,,,4,,,69,95
45720,note_on,,,,,24,0,3,,,3,,,57,95
45720,note_on,,,,,0,0,3,,,3,,,57,95
45815,note_off,,,,,95,0,6,,,6,,,69,64
45815,note_off,,,,,0,0,1,,,1,,,73,64
45815,note_off,,,,,95,0,1,,,1,,,69,64
45815,note_off,,,,,95,0,9,,,10,,,57,64
45815,note_off,,,,,95,0,4,,,4,,,69,64
45815,note_off,,,,,95,0,2,,,2,,,57,64
45815,note_off,,,,,95,0,5,,,5,,,69,64
45815,note_off,,,,,95,0,8,,,8,,,61,64
45815,note_off,,,,,95,0,10,,,11,,,45,64
45815,note_off,,,,,0,0,4,,,4,,,69,64
45815,note_off,,,,,95,0,7,,,7,,,73,64
45816,note_off,,,,,96,0,3,,,3,,,57,64
45816,note_off,,,,,0,0,3,,,3,,,57,64
45840,note_on,,,,,25,0,8,,,8,,,61,95
45840,note_on,,,,,25,0,4,,,4,,,69,95
45840,note_on,,,,,25,0,1,,,1,,,73,95
45840,note_on,,,,,0,0,3,,,3,,,57,95
45840,note_on,,,,,25,0,2,,,2,,,57,95
45840,note_on,,,,,0,0,4,,,4,,,69,95
45840,note_on,,,,,24,0,3,,,3,,,57,95
45840,note_on,,,,,0,0,1,,,1,,,69,95
45840,note_on,,,,,25,0,5,,,5,,,69,95
45840,note_on,,,,,25,0,6,,,6,,,69,95
45840,note_on,,,,,25,0,10,,,11,,,45,95
45840,note_on,,,,,25,0,7,,,7,,,73,95
45840,note_on,,,,,25,0,9,,,10,,,57,95
45935,note_off,,,,,95,0,2,,,2,,,57,64
45935,note_off,,,,,95,0,9,,,10,,,57,64
45935,note_off,,,,,95,0,6,,,6,,,69,64
45935,note_off,,,,,95,0,5,,,5,,,69,64
45935,note_off,,,,,95,0,10,,,11,,,45,64
45935,note_off,,,,,0,0,4,,,4,,,69,64
45935,note_off,,,,,95,0,4,,,4,,,69,64
45935,note_off,,,,,95,0,7,,,7,,,73,64
45935,note_off,,,,,95,0,1,,,1,,,69,64
45935,note_off,,,,,0,0,1,,,1,,,73,64
45935,note_off,,,,,95,0,8,,,8,,,61,64
45936,note_off,,,,,96,0,3,,,3,,,57,64
45936,note_off,,,,,0,0,3,,,3,,,57,64
45960,note_on,,,,,25,0,6,,,6,,,69,95
45960,note_on,,,,,25,0,9,,,10,,,57,95
45960,note_on,,,,,25,0,5,,,5,,,69,95
45960,note_on,,,,,25,0,8,,,8,,,61,95
45960,note_on,,,,,0,0,4,,,4,,,69,95
45960,note_on,,,,,25,0,4,,,4,,,69,95
45960,note_on,,,,,0,0,3,,,3,,,57,95
45960,note_on,,,,,25,0,10,,,11,,,45,95
45960,note_on,,,,,0,0,1,,,1,,,69,95
45960,note_on,,,,,25,0,1,,,1,,,73,95
45960,note_on,,,,,25,0,2,,,2,,,57,95
45960,note_on,,,,,25,0,7,,,7,,,73,95
45960,note_on,,,,,24,0,3,,,3,,,57,95
46055,note_off,,,,,95,0,6,,,6,,,69,64
46055,note_off,,,,,0,0,1,,,1,,,73,64
46055,note_off,,,,,95,0,4,,,4,,,69,64
46055,note_off,,,,,0,0,4,,,4,,,69,64
46055,note_off,,,,,95,0,8,,,8,,,61,64
46055,note_off,,,,,95,0,1,,,1,,,69,64
46055,note_off,,,,,95,0,9,,,10,,,57,64
46055,note_off,,,,,95,0,7,,,7,,,73,64
46055,note_off,,,,,95,0,5,,,5,,,69,64
46055,note_off,,,,,95,0,2,,,2,,,57,64
46055,note_off,,,,,95,0,10,,,11,,,45,64
46056,note_off,,,,,96,0,3,,,3,,,57,64
46056,note_off,,,,,0,0,3,,,3,,,57,64
46080,note_on,,,,,25,0,4,,,4,,,69,95
46080,note_on,,,,,0,0,4,,,4,,,69,95
46080,note_on,,,,,0,0,3,,,3,,,57,95
46080,note_on,,,,,24,0,3,,,3,,,57,95
46080,note_on,,,,,25,0,9,,,10,,,57,95
46080,note_on,,,,,25,0,8,,,8,,,61,95
46080,note_on,,,,,25,0,10,,,11,,,45,95
46080,note_on,,,,,0,0,1,,,1,,,69,95
46080,note_on,,,,,25,0,6,,,6,,,69,95
46080,note_on,,,,,25,0,1,,,1,,,73,95
46080,note_on,,,,,25,0,2,,,2,,,57,95
46080,note_on,,,,,25,0,7,,,7,,,73,95
46080,note_on,,,,,25,0,5,,,5,,,69,95
46270,note_off,,,,,190,0,9,,,10,,,57,64
46270,note_off,,,,,190,0,2,,,2,,,57,64
46270,note_off,,,,,190,0,10,,,11,,,45,64
46320,note_on,,,,,50,0,2,,,2,,,61,95
46320,note_on,,,,,50,0,9,,,10,,,61,95
46320,note_on,,,,,50,0,10,,,11,,,49,95
46510,note_off,,,,,190,0,2,,,2,,,61,64
46510,note_off,,,,,190,0,9,,,10,,,61,64
46510,note_off,,,,,190,0,10,,,11,,,49,64
46560,note_on,,,,,50,0,9,,,10,,,57,95
46560,note_on,,,,,50,0,10,,,11,,,45,95
46560,note_on,,,,,50,0,2,,,2,,,57,95
46655,note_off,,,,,575,0,7,,,7,,,73,64
46655,note_off,,,,,575,0,4,,,4,,,69,64
46655,note_off,,,,,0,0,4,,,4,,,69,64
46655,note_off,,,,,575,0,8,,,8,,,61,64
46655,note_off,,,,,0,0,1,,,1,,,73,64
46655,note_off,,,,,575,0,1,,,1,,,69,64
46655,note_off,,,,,575,0,6,,,6,,,69,64
46655,note_off,,,,,575,0,5,,,5,,,69,64
46656,note_off,,,,,0,0,3,,,3,,,57,64
46656,note_off,,,,,576,0,3,,,3,,,57,64
46750,note_off,,,,,190,0,10,,,11,,,45,64
46750,note_off,,,,,190,0,2,,,2,,,57,64
46750,note_off,,,,,190,0,9,,,10,,,57,64
46800,note_on,,,,,50,0,2,,,2,,,62,95
46800,note_on,,,,,0,0,1,,,1,,,78,95
46800,note_on,,,,,145,0,1,,,1,,,74,95
46800,note_on,,,,,145,0,8,,,8,,,69,95
46800,note_on,,,,,145,0,7,,,7,,,74,95
46800,note_on,,,,,0,0,4,,,4,,,78,95
46800,note_on,,,,,50,0,10,,,11,,,50,95
46800,note_on,,,,,50,0,9,,,10,,,62,95
46800,note_on,,,,,145,0,6,,,6,,,78,95
46800,note_on,,,,,144,0,3,,,3,,,62,95
46800,note_on,,,,,145,0,5,,,5,,,78,95
46800,note_on,,,,,0,0,3,,,3,,,66,95
46800,note_on,,,,,145,0,4,,,4,,,74,95
46895,note_off,,,,,0,0,4,,,4,,,74,64
46895,note_off,,,,,95,0,4,,,4,,,78,64
46895,note_off,,,,,95,0,5,,,5,,,78,64
46895,note_off,,,,,95,0,7,,,7,,,74,64
46895,note_off,,,,,95,0,1,,,1,,,78,64
46895,note_off,,,,,0,0,1,,,1,,,74,64
46895,note_off,,,,,95,0,6,,,6,,,78,64
46896,note_off,,,,,96,0,3,,,3,,,66,64
46896,note_off,,,,,0,0,3,,,3,,,62,64
46920,note_on,,,,,25,0,7,,,7,,,76,95
46920,note_on,,,,,0,0,1,,,1,,,79,95
46920,note_on,,,,,25,0,1,,,1,,,76,95
46920,note_on,,,,,25,0,4,,,4,,,76,95
46920,note_on,,,,,25,0,5,,,5,,,79,95
46920,note_on,,,,,25,0,6,,,6,,,79,95
46920,note_on,,,,,24,0,3,,,3,,,64,95
46920,note_on,,,,,0,0,4,,,4,,,79,95
46920,note_on,,,,,0,0,3,,,3,,,67,95
46990,note_off,,,,,190,0,10,,,11,,,50,64
46990,note_off,,,,,190,0,9,,,10,,,62,64
46990,note_off,,,,,190,0,2,,,2,,,62,64
46990,note_off,,,,,190,0,8,,,8,,,69,64
47015,note_off,,,,,95,0,1,,,1,,,79,64
47015,note_off,,,,,95,0,4,,,4,,,79,64
47015,note_off,,,,,0,0,4,,,4,,,76,64
47015,note_off,,,,,95,0,5,,,5,,,79,64
47015,note_off,,,,,95,0,6,,,6,,,79,64
47015,note_off,,,,,0,0,1,,,1,,,76,64
47015,note_off,,,,,95,0,7,,,7,,,76,64
47016,note_off,,,,,96,0,3,,,3,,,67,64
47016,note_off,,,,,0,0,3,,,3,,,64,64
47040,note_on,,,,,25,0,5,,,5,,,81,95
47040,note_on,,,,,50,0,2,,,2,,,50,95
47040,note_on,,,,,50,0,8,,,8,,,57,95
47040,note_on,,,,,25,0,6,,,6,,,81,95
47040,note_on,,,,,25,0,1,,,1,,,78,95
47040,note_on,,,,,0,0,1,,,1,,,81,95
47040,note_on,,,,,50,0,10,,,11,,,38,95
47040,note_on,,,,,0,0,4,,,4,,,81,95
47040,note_on,,,,,25,0,4,,,4,,,78,95
47040,note_on,,,,,25,0,7,,,7,,,78,95
47040,note_on,,,,,24,0,3,,,3,,,66,95
47040,note_on,,,,,50,0,9,,,10,,,50,95
47040,note_on,,,,,0,0,3,,,3,,,69,95
47230,note_off,,,,,190,0,9,,,10,,,50,64
47230,note_off,,,,,190,0,6,,,6,,,81,64
47230,note_off,,,,,190,0,2,,,2,,,50,64
47230,note_off,,,,,190,0,10,,,11,,,38,64
47230,note_off,,,,,190,0,8,,,8,,,57,64
47230,note_off,,,,,190,0,7,,,7,,,78,64
47230,note_off,,,,,190,0,4,,,4,,,81,64
47230,note_off,,,,,190,0,5,,,5,,,81,64
47230,note_off,,,,,0,0,1,,,1,,,78,64
47230,note_off,,,,,190,0,1,,,1,,,81,64
47230,note_off,,,,,0,0,4,,,4,,,78,64
47232,note_off,,,,,0,0,3,,,3,,,66,64
47232,note_off,,,,,192,0,3,,,3,,,69,64
47280,note_on,,,,,50,0,9,,,10,,,54,95
47280,note_on,,,,,48,0,3,,,3,,,64,95
47280,note_on,,,,,0,0,3,,,3,,,67,95
47280,note_on,,,,,0,0,1,,,1,,,79,95
47280,note_on,,,,,0,0,4,,,4,,,79,95
47280,note_on,,,,,50,0,5,,,5,,,79,95
47280,note_on,,,,,50,0,4,,,4,,,76,95
47280,note_on,,,,,50,0,7,,,7,,,76,95
47280,note_on,,,,,50,0,2,,,2,,,54,95
47280,note_on,,,,,50,0,8,,,8,,,57,95
47280,note_on,,,,,50,0,6,,,6,,,79,95
47280,note_on,,,,,50,0,1,,,1,,,76,95
47280,note_on,,,,,50,0,10,,,11,,,42,95
47375,note_off,,,,,95,0,4,,,4,,,79,64
47375,note_off,,,,,0,0,4,,,4,,,76,64
47375,note_off,,,,,95,0,5,,,5,,,79,64
47375,note_off,,,,,95,0,6,,,6,,,79,64
47375,note_off,,,,,95,0,7,,,7,,,76,64
47375,note_off,,,,,95,0,1,,,1,,,79,64
47375,note_off,,,,,0,0,1,,,1,,,76,64
47376,note_off,,,,,0,0,3,,,3,,,64,64
47376,note_off,,,,,96,0,3,,,3,,,67,64
47400,note_on,,,,,0,0,1,,,1,,,78,95
47400,note_on,,,,,25,0,1,,,1,,,74,95
47400,note_on,,,,,25,0,4,,,4,,,74,95
47400,note_on,,,,,25,0,5,,,5,,,78,95
47400,note_on,,,,,25,0,7,,,7,,,74,95
47400,note_on,,,,,25,0,6,,,6,,,78,95
47400,note_on,,,,,0,0,3,,,3,,,66,95
47400,note_on,,,,,24,0,3,,,3,,,62,95
47400,note_on,,,,,0,0,4,,,4,,,78,95
47470,note_off,,,,,190,0,8,,,8,,,57,64
47470,note_off,,,,,190,0,9,,,10,,,54,64
47470,note_off,,,,,190,0,2,,,2,,,54,64
47470,note_off,,,,,190,0,10,,,11,,,42,64
47495,note_off,,,,,95,0,5,,,5,,,78,64
47495,note_off,,,,,95,0,6,,,6,,,78,64
47495,note_off,,,,,95,0,1,,,1,,,78,64
47495,note_off,,,,,0,0,1,,,1,,,74,64
47495,note_off,,,,,0,0,4,,,4,,,74,64
47495,note_off,,,,,95,0,4,,,4,,,78,64
47495,note_off,,,,,95,0,7,,,7,,,74,64
47496,note_off,,,,,96,0,3,,,3,,,66,64
47496,note_off,,,,,0,0,3,,,3,,,62,64
47520,note_on,,,,,50,0,8,,,8,,,61,95
47520,note_on,,,,,25,0,4,,,4,,,69,95
47520,note_on,,,,,0,0,4,,,4,,,76,95
47520,note_on,,,,,50,0,10,,,11,,,45,95
47520,note_on,,,,,25,0,1,,,1,,,73,95
47520,note_on,,,,,24,0,3,,,3,,,57,95
47520,note_on,,,,,50,0,2,,,2,,,57,95
47520,note_on,,,,,0,0,3,,,3,,,64,95
47520,note_on,,,,,25,0,6,,,6,,,76,95
47520,note_on,,,,,50,0,9,,,10,,,57,95
47520,note_on,,,,,25,0,7,,,7,,,73,95
47520,note_on,,,,,0,0,1,,,1,,,76,95
47520,note_on,,,,,25,0,5,,,5,,,76,95
47615,note_off,,,,,95,0,1,,,1,,,76,64
47615,note_off,,,,,0,0,1,,,1,,,73,64
47615,note_off,,,,,95,0,7,,,7,,,73,64
47615,note_off,,,,,95,0,4,,,4,,,76,64
47615,note_off,,,,,95,0,5,,,5,,,76,64
47615,note_off,,,,,95,0,6,,,6,,,76,64
47616,note_off,,,,,96,0,3,,,3,,,64,64
47640,note_on,,,,,25,0,5,,,5,,,78,95
47640,note_on,,,,,25,0,7,,,7,,,74,95
47640,note_on,,,,,25,0,1,,,1,,,74,95
47640,note_on,,,,,0,0,1,,,1,,,78,95
47640,note_on,,,,,25,0,6,,,6,,,78,95
47640,note_on,,,,,25,0,4,,,4,,,78,95
47640,note_on,,,,,24,0,3,,,3,,,66,95
47710,note_off,,,,,190,0,8,,,8,,,61,64
47710,note_off,,,,,190,0,2,,,2,,,57,64
47710,note_off,,,,,190,0,9,,,10,,,57,64
47710,note_off,,,,,190,0,10,,,11,,,45,64
47712,note_off,,,,,72,0,4,,,4,,,69,64
47712,note_off,,,,,72,0,3,,,3,,,57,64
47735,note_off,,,,,95,0,6,,,6,,,78,64
47735,note_off,,,,,95,0,5,,,5,,,78,64
47735,note_off,,,,,95,0,1,,,1,,,78,64
47735,note_off,,,,,0,0,1,,,1,,,74,64
47735,note_off,,,,,95,0,7,,,7,,,74,64
47735,note_off,,,,,23,0,4,,,4,,,78,64
47736,note_off,,,,,24,0,3,,,3,,,66,64
47760,note_on,,,,,25,0,6,,,6,,,79,95
47760,note_on,,,,,50,0,2,,,2,,,45,95
47760,note_on,,,,,25,0,7,,,7,,,76,95
47760,note_on,,,,,50,0,9,,,10,,,45,95
47760,note_on,,,,,50,0,10,,,11,,,33,95
47760,note_on,,,,,25,0,1,,,1,,,76,95
47760,note_on,,,,,0,0,1,,,1,,,79,95
47760,note_on,,,,,50,0,8,,,8,,,61,95
47760,note_on,,,,,25,0,5,,,5,,,79,95
47760,note_on,,,,,0,0,3,,,3,,,67,95
47760,note_on,,,,,24,0,3,,,3,,,64,95
47760,note_on,,,,,0,0,4,,,4,,,79,95
47760,note_on,,,,,25,0,4,,,4,,,76,95
47950,note_off,,,,,190,0,6,,,6,,,79,64
47950,note_off,,,,,190,0,1,,,1,,,79,64
47950,note_off,,,,,0,0,1,,,1,,,76,64
47950,note_off,,,,,190,0,7,,,7,,,76,64
47950,note_off,,,,,190,0,5,,,5,,,79,64
47950,note_off,,,,,190,0,4,,,4,,,79,64
47950,note_off,,,,,190,0,8,,,8,,,61,64
47952,note_off,,,,,2,0,4,,,4,,,76,64
47952,note_off,,,,,192,0,3,,,3,,,67,64
47952,note_off,,,,,0,0,3,,,3,,,64,64
48000,note_on,,,,,48,0,3,,,3,,,57,95
48000,note_on,,,,,0,0,3,,,3,,,66,95
48000,note_on,,,,,50,0,8,,,8,,,61,95
48000,note_on,,,,,48,0,4,,,4,,,69,95
48000,note_on,,,,,50,0,1,,,1,,,74,95
48000,note_on,,,,,0,0,1,,,1,,,78,95
48000,note_on,,,,,50,0,7,,,7,,,74,95
48000,note_on,,,,,50,0,6,,,6,,,78,95
48000,note_on,,,,,50,0,5,,,5,,,78,95
48000,note_on,,,,,0,0,4,,,4,,,78,95
48095,note_off,,,,,95,0,4,,,4,,,78,64
48095,note_off,,,,,95,0,5,,,5,,,78,64
48095,note_off,,,,,95,0,1,,,1,,,78,64
48095,note_off,,,,,0,0,1,,,1,,,74,64
48095,note_off,,,,,95,0,6,,,6,,,78,64
48095,note_off,,,,,95,0,7,,,7,,,74,64
48096,note_off,,,,,96,0,3,,,3,,,66,64
48120,note_on,,,,,25,0,1,,,1,,,73,95
48120,note_on,,,,,25,0,7,,,7,,,73,95
48120,note_on,,,,,25,0,6,,,6,,,76,95
48120,note_on,,,,,25,0,4,,,4,,,76,95
48120,note_on,,,,,24,0,3,,,3,,,64,95
48120,note_on,,,,,0,0,1,,,1,,,76,95
48120,note_on,,,,,25,0,5,,,5,,,76,95
48145,note_off,,,,,385,0,9,,,10,,,45,64
48145,note_off,,,,,385,0,10,,,11,,,33,64
48145,note_off,,,,,385,0,2,,,2,,,45,64
48190,note_off,,,,,190,0,8,,,8,,,61,64
48192,note_off,,,,,72,0,4,,,4,,,69,64
48192,note_off,,,,,72,0,3,,,3,,,57,64
48215,note_off,,,,,95,0,7,,,7,,,73,64
48215,note_off,,,,,95,0,6,,,6,,,76,64
48215,note_off,,,,,0,0,1,,,1,,,73,64
48215,note_off,,,,,23,0,4,,,4,,,76,64
48215,note_off,,,,,95,0,1,,,1,,,76,64
48215,note_off,,,,,95,0,5,,,5,,,76,64
48216,note_off,,,,,24,0,3,,,3,,,64,64
48240,note_on,,,,,25,0,6,,,6,,,78,95
48240,note_on,,,,,25,0,1,,,1,,,74,95
48240,note_on,,,,,0,0,1,,,1,,,78,95
48240,note_on,,,,,95,0,9,,,10,,,62,95
48240,note_on,,,,,95,0,2,,,2,,,62,95
48240,note_on,,,,,25,0,5,,,5,,,78,95
48240,note_on,,,,,0,0,4,,,4,,,78,95
48240,note_on,,,,,25,0,4,,,4,,,74,95
48240,note_on,,,,,50,0,8,,,8,,,62,95
48240,note_on,,,,,24,0,3,,,3,,,62,95
48240,note_on,,,,,0,0,3,,,3,,,66,95
48240,note_on,,,,,25,0,7,,,7,,,74,95
48240,note_on,,,,,95,0,10,,,11,,,50,95
48335,note_off,,,,,95,0,6,,,6,,,78,64
48335,note_off,,,,,0,0,1,,,1,,,74,64
48335,note_off,,,,,95,0,7,,,7,,,74,64
48335,note_off,,,,,95,0,5,,,5,,,78,64
48335,note_off,,,,,0,0,4,,,4,,,74,64
48335,note_off,,,,,95,0,1,,,1,,,78,64
48335,note_off,,,,,95,0,4,,,4,,,78,64
48336,note_off,,,,,0,0,3,,,3,,,62,64
48336,note_off,,,,,96,0,3,,,3,,,66,64
48360,note_on,,,,,0,0,4,,,4,,,79,95
48360,note_on,,,,,0,0,1,,,1,,,79,95
48360,note_on,,,,,25,0,1,,,1,,,76,95
48360,note_on,,,,,25,0,4,,,4,,,76,95
48360,note_on,,,,,0,0,3,,,3,,,67,95
48360,note_on,,,,,25,0,7,,,7,,,76,95
48360,note_on,,,,,25,0,6,,,6,,,79,95
48360,note_on,,,,,24,0,3,,,3,,,64,95
48360,note_on,,,,,25,0,5,,,5,,,79,95
48430,note_off,,,,,190,0,9,,,10,,,62,64
48430,note_off,,,,,190,0,8,,,8,,,62,64
48430,note_off,,,,,190,0,10,,,11,,,50,64
48430,note_off,,,,,190,0,2,,,2,,,62,64
48455,note_off,,,,,95,0,6,,,6,,,79,64
48455,note_off,,,,,95,0,4,,,4,,,79,64
48455,note_off,,,,,0,0,4,,,4,,,76,64
48455,note_off,,,,,95,0,1,,,1,,,79,64
48455,note_off,,,,,95,0,5,,,5,,,79,64
48455,note_off,,,,,0,0,1,,,1,,,76,64
48455,note_off,,,,,95,0,7,,,7,,,76,64
48456,note_off,,,,,96,0,3,,,3,,,67,64
48456,note_off,,,,,0,0,3,,,3,,,64,64
48480,note_on,,,,,25,0,6,,,6,,,81,95
48480,note_on,,,,,25,0,5,,,5,,,81,95
48480,note_on,,,,,50,0,8,,,8,,,57,95
48480,note_on,,,,,24,0,3,,,3,,,66,95
48480,note_on,,,,,0,0,3,,,3,,,69,95
48480,note_on,,,,,50,0,10,,,11,,,38,95
48480,note_on,,,,,50,0,2,,,2,,,50,95
48480,note_on,,,,,0,0,1,,,1,,,81,95
48480,note_on,,,,,25,0,1,,,1,,,78,95
48480,note_on,,,,,50,0,9,,,10,,,50,95
48480,note_on,,,,,25,0,4,,,4,,,78,95
48480,note_on,,,,,0,0,4,,,4,,,81,95
48480,note_on,,,,,25,0,7,,,7,,,78,95
48670,note_off,,,,,190,0,1,,,1,,,81,64
48670,note_off,,,,,0,0,1,,,1,,,78,64
48670,note_off,,,,,190,0,4,,,4,,,81,64
48670,note_off,,,,,190,0,5,,,5,,,81,64
48670,note_off,,,,,0,0,4,,,4,,,78,64
48670,note_off,,,,,190,0,2,,,2,,,50,64
48670,note_off,,,,,190,0,6,,,6,,,81,64
48670,note_off,,,,,190,0,9,,,10,,,50,64
48670,note_off,,,,,190,0,7,,,7,,,78,64
48670,note_off,,,,,190,0,10,,,11,,,38,64
48670,note_off,,,,,190,0,8,,,8,,,57,64
48672,note_off,,,,,0,0,3,,,3,,,66,64
48672,note_off,,,,,192,0,3,,,3,,,69,64
48720,note_on,,,,,50,0,5,,,5,,,79,95
48720,note_on,,,,,50,0,6,,,6,,,79,95
48720,note_on,,,,,50,0,9,,,10,,,54,95
48720,note_on,,,,,0,0,3,,,3,,,67,95
48720,note_on,,,,,48,0,3,,,3,,,62,95
48720,note_on,,,,,50,0,8,,,8,,,57,95
48720,note_on,,,,,50,0,4,,,4,,,74,95
48720,note_on,,,,,50,0,1,,,1,,,76,95
48720,note_on,,,,,0,0,1,,,1,,,79,95
48720,note_on,,,,,50,0,7,,,7,,,76,95
48720,note_on,,,,,50,0,10,,,11,,,42,95
48720,note_on,,,,,50,0,2,,,2,,,54,95
48720,note_on,,,,,0,0,4,,,4,,,79,95
48815,note_off,,,,,95,0,6,,,6,,,79,64
48815,note_off,,,,,95,0,7,,,7,,,76,64
48815,note_off,,,,,95,0,5,,,5,,,79,64
48815,note_off,,,,,95,0,4,,,4,,,79,64
48815,note_off,,,,,0,0,1,,,1,,,76,64
48815,note_off,,,,,95,0,1,,,1,,,79,64
48816,note_off,,,,,96,0,3,,,3,,,67,64
48840,note_on,,,,,25,0,6,,,6,,,78,95
48840,note_on,,,,,25,0,5,,,5,,,78,95
48840,note_on,,,,,24,0,3,,,3,,,66,95
48840,note_on,,,,,25,0,7,,,7,,,74,95
48840,note_on,,,,,25,0,1,,,1,,,74,95
48840,note_on,,,,,25,0,4,,,4,,,78,95
48840,note_on,,,,,0,0,1,,,1,,,78,95
48910,note_off,,,,,190,0,10,,,11,,,42,64
48910,note_off,,,,,190,0,9,,,10,,,54,64
48910,note_off,,,,,190,0,2,,,2,,,54,64
48910,note_off,,,,,190,0,8,,,8,,,57,64
48912,note_off,,,,,72,0,4,,,4,,,74,64
48912,note_off,,,,,72,0,3,,,3,,,62,64
48935,note_off,,,,,95,0,1,,,1,,,78,64
48935,note_off,,,,,95,0,7,,,7,,,74,64
48935,note_off,,,,,0,0,1,,,1,,,74,64
48935,note_off,,,,,95,0,6,,,6,,,78,64
48935,note_off,,,,,23,0,4,,,4,,,78,64
48935,note_off,,,,,95,0,5,,,5,,,78,64
48936,note_off,,,,,24,0,3,,,3,,,66,64
48960,note_on,,,,,25,0,7,,,7,,,73,95
48960,note_on,,,,,50,0,9,,,10,,,57,95
48960,note_on,,,,,24,0,3,,,3,,,57,95
48960,note_on,,,,,0,0,3,,,3,,,64,95
48960,note_on,,,,,50,0,2,,,2,,,57,95
48960,note_on,,,,,25,0,1,,,1,,,73,95
48960,note_on,,,,,0,0,1,,,1,,,76,95
48960,note_on,,,,,50,0,10,,,11,,,45,95
48960,note_on,,,,,0,0,4,,,4,,,76,95
48960,note_on,,,,,25,0,4,,,4,,,69,95
48960,note_on,,,,,50,0,8,,,8,,,61,95
48960,note_on,,,,,25,0,5,,,5,,,76,95
48960,note_on,,,,,25,0,6,,,6,,,76,95
49055,note_off,,,,,95,0,4,,,4,,,76,64
49055,note_off,,,,,95,0,7,,,7,,,73,64
49055,note_off,,,,,95,0,1,,,1,,,76,64
49055,note_off,,,,,0,0,1,,,1,,,73,64
49055,note_off,,,,,95,0,5,,,5,,,76,64
49055,note_off,,,,,95,0,6,,,6,,,76,64
49056,note_off,,,,,96,0,3,,,3,,,64,64
49080,note_on,,,,,25,0,5,,,5,,,78,95
49080,note_on,,,,,25,0,4,,,4,,,78,95
49080,note_on,,,,,25,0,1,,,1,,,74,95
49080,note_on,,,,,0,0,1,,,1,,,78,95
49080,note_on,,,,,24,0,3,,,3,,,66,95
49080,note_on,,,,,25,0,7,,,7,,,74,95
49080,note_on,,,,,25,0,6,,,6,,,78,95
49150,note_off,,,,,190,0,10,,,11,,,45,64
49150,note_off,,,,,190,0,8,,,8,,,61,64
49150,note_off,,,,,190,0,2,,,2,,,57,64
49150,note_off,,,,,190,0,9,,,10,,,57,64
49152,note_off,,,,,72,0,4,,,4,,,69,64
49152,note_off,,,,,72,0,3,,,3,,,57,64
49175,note_off,,,,,95,0,7,,,7,,,74,64
49175,note_off,,,,,23,0,4,,,4,,,78,64
49175,note_off,,,,,95,0,1,,,1,,,78,64
49175,note_off,,,,,95,0,6,,,6,,,78,64
49175,note_off,,,,,0,0,1,,,1,,,74,64
49175,note_off,,,,,95,0,5,,,5,,,78,64
49176,note_off,,,,,24,0,3,,,3,,,66,64
49200,note_on,,,,,0,0,4,,,4,,,79,95
49200,note_on,,,,,0,0,1,,,1,,,79,95
49200,note_on,,,,,50,0,9,,,10,,,45,95
49200,note_on,,,,,24,0,3,,,3,,,64,95
49200,note_on,,,,,0,0,3,,,3,,,67,95
49200,note_on,,,,,25,0,5,,,5,,,79,95
49200,note_on,,,,,25,0,7,,,7,,,76,95
49200,note_on,,,,,25,0,1,,,1,,,76,95
49200,note_on,,,,,50,0,10,,,11,,,33,95
49200,note_on,,,,,25,0,4,,,4,,,76,95
49200,note_on,,,,,25,0,6,,,6,,,79,95
49200,note_on,,,,,50,0,2,,,2,,,45,95
49200,note_on,,,,,50,0,8,,,8,,,61,95
49390,note_off,,,,,190,0,6,,,6,,,79,64
49390,note_off,,,,,0,0,1,,,1,,,76,64
49390,note_off,,,,,190,0,1,,,1,,,79,64
49390,note_off,,,,,190,0,5,,,5,,,79,64
49390,note_off,,,,,190,0,8,,,8,,,61,64
49390,note_off,,,,,190,0,4,,,4,,,79,64
49390,note_off,,,,,190,0,7,,,7,,,76,64
49392,note_off,,,,,0,0,3,,,3,,,64,64
49392,note_off,,,,,2,0,4,,,4,,,76,64
49392,note_off,,,,,192,0,3,,,3,,,67,64
49440,note_on,,,,,48,0,3,,,3,,,57,95
49440,note_on,,,,,50,0,8,,,8,,,61,95
49440,note_on,,,,,0,0,1,,,1,,,78,95
49440,note_on,,,,,0,0,3,,,3,,,66,95
49440,note_on,,,,,50,0,1,,,1,,,74,95
49440,note_on,,,,,50,0,6,,,6,,,78,95
49440,note_on,,,,,50,0,5,,,5,,,78,95
49440,note_on,,,,,50,0,7,,,7,,,74,95
49440,note_on,,,,,0,0,4,,,4,,,78,95
49440,note_on,,,,,48,0,4,,,4,,,69,95
49535,note_off,,,,,95,0,1,,,1,,,78,64
49535,note_off,,,,,95,0,6,,,6,,,78,64
49535,note_off,,,,,95,0,5,,,5,,,78,64
49535,note_off,,,,,95,0,7,,,7,,,74,64
49535,note_off,,,,,95,0,4,,,4,,,78,64
49535,note_off,,,,,0,0,1,,,1,,,74,64
49536,note_off,,,,,96,0,3,,,3,,,66,64
49560,note_on,,,,,24,0,3,,,3,,,64,95
49560,note_on,,,,,25,0,6,,,6,,,76,95
49560,note_on,,,,,25,0,4,,,4,,,76,95
49560,note_on,,,,,25,0,5,,,5,,,76,95
49560,note_on,,,,,25,0,7,,,7,,,73,95
49560,note_on,,,,,0,0,1,,,1,,,76,95
49560,note_on,,,,,25,0,1,,,1,,,73,95
49585,note_off,,,,,385,0,10,,,11,,,33,64
49585,note_off,,,,,385,0,2,,,2,,,45,64
49585,note_off,,,,,385,0,9,,,10,,,45,64
49630,note_off,,,,,190,0,8,,,8,,,61,64
49632,note_off,,,,,72,0,4,,,4,,,69,64
49632,note_off,,,,,72,0,3,,,3,,,57,64
49655,note_off,,,,,95,0,1,,,1,,,76,64
49655,note_off,,,,,0,0,1,,,1,,,73,64
49655,note_off,,,,,95,0,5,,,5,,,76,64
49655,note_off,,,,,95,0,6,,,6,,,76,64
49655,note_off,,,,,23,0,4,,,4,,,76,64
49655,note_off,,,,,95,0,7,,,7,,,73,64
49656,note_off,,,,,24,0,3,,,3,,,64,64
49680,note_on,,,,,0,0,1,,,1,,,78,95
49680,note_on,,,,,95,0,9,,,10,,,62,95
49680,note_on,,,,,25,0,1,,,1,,,74,95
49680,note_on,,,,,25,0,6,,,6,,,78,95
49680,note_on,,,,,0,0,3,,,3,,,66,95
49680,note_on,,,,,25,0,4,,,4,,,74,95
49680,note_on,,,,,25,0,5,,,5,,,78,95
49680,note_on,,,,,50,0,8,,,8,,,69,95
49680,note_on,,,,,95,0,10,,,11,,,50,95
49680,note_on,,,,,25,0,7,,,7,,,74,95
49680,note_on,,,,,95,0,2,,,2,,,62,95
49680,note_on,,,,,24,0,3,,,3,,,62,95
49680,note_on,,,,,0,0,4,,,4,,,78,95
49775,note_off,,,,,0,0,4,,,4,,,74,64
49775,note_off,,,,,95,0,4,,,4,,,78,64
49775,note_off,,,,,95,0,7,,,7,,,74,64
49775,note_off,,,,,95,0,1,,,1,,,78,64
49775,note_off,,,,,95,0,6,,,6,,,78,64
49775,note_off,,,,,0,0,1,,,1,,,74,64
49775,note_off,,,,,95,0,5,,,5,,,78,64
49776,note_off,,,,,0,0,3,,,3,,,62,64
49776,note_off,,,,,96,0,3,,,3,,,66,64
49800,note_on,,,,,0,0,3,,,3,,,67,95
49800,note_on,,,,,25,0,4,,,4,,,76,95
49800,note_on,,,,,0,0,4,,,4,,,79,95
49800,note_on,,,,,25,0,7,,,7,,,76,95
49800,note_on,,,,,24,0,3,,,3,,,64,95
49800,note_on,,,,,25,0,6,,,6,,,79,95
49800,note_on,,,,,25,0,5,,,5,,,79,95
49800,note_on,,,,,25,0,1,,,1,,,76,95
49800,note_on,,,,,0,0,1,,,1,,,79,95
49870,note_off,,,,,190,0,2,,,2,,,62,64
49870,note_off,,,,,190,0,9,,,10,,,62,64
49870,note_off,,,,,190,0,10,,,11,,,50,64
49870,note_off,,,,,190,0,8,,,8,,,69,64
49895,note_off,,,,,95,0,5,,,5,,,79,64
49895,note_off,,,,,95,0,1,,,1,,,79,64
49895,note_off,,,,,0,0,1,,,1,,,76,64
49895,note_off,,,,,95,0,7,,,7,,,76,64
49895,note_off,,,,,95,0,4,,,4,,,79,64
49895,note_off,,,,,0,0,4,,,4,,,76,64
49895,note_off,,,,,95,0,6,,,6,,,79,64
49896,note_off,,,,,0,0,3,,,3,,,64,64
49896,note_off,,,,,96,0,3,,,3,,,67,64
49920,note_on,,,,,25,0,7,,,7,,,78,95
49920,note_on,,,,,50,0,8,,,8,,,66,95
49920,note_on,,,,,50,0,10,,,11,,,38,95
49920,note_on,,,,,25,0,4,,,4,,,78,95
49920,note_on,,,,,25,0,1,,,1,,,78,95
49920,note_on,,,,,50,0,2,,,2,,,50,95
49920,note_on,,,,,25,0,5,,,5,,,81,95
49920,note_on,,,,,0,0,4,,,4,,,81,95
49920,note_on,,,,,0,0,1,,,1,,,81,95
49920,note_on,,,,,0,0,3,,,3,,,69,95
49920,note_on,,,,,24,0,3,,,3,,,66,95
49920,note_on,,,,,25,0,6,,,6,,,81,95
49920,note_on,,,,,50,0,9,,,10,,,50,95
50110,note_off,,,,,190,0,8,,,8,,,66,64
50110,note_off,,,,,190,0,2,,,2,,,50,64
50110,note_off,,,,,190,0,7,,,7,,,78,64
50110,note_off,,,,,190,0,9,,,10,,,50,64
50110,note_off,,,,,190,0,1,,,1,,,81,64
50110,note_off,,,,,0,0,4,,,4,,,78,64
50110,note_off,,,,,190,0,10,,,11,,,38,64
50110,note_off,,,,,190,0,4,,,4,,,81,64
50110,note_off,,,,,190,0,6,,,6,,,81,64
50110,note_off,,,,,0,0,1,,,1,,,78,64
50110,note_off,,,,,190,0,5,,,5,,,81,64
50112,note_off,,,,,192,0,3,,,3,,,69,64
50112,note_off,,,,,0,0,3,,,3,,,66,64
50160,note_on,,,,,50,0,9,,,10,,,54,95
50160,note_on,,,,,0,0,1,,,1,,,79,95
50160,note_on,,,,,50,0,6,,,6,,,79,95
50160,note_on,,,,,50,0,4,,,4,,,76,95
50160,note_on,,,,,0,0,4,,,4,,,79,95
50160,note_on,,,,,0,0,3,,,3,,,67,95
50160,note_on,,,,,50,0,1,,,1,,,76,95
50160,note_on,,,,,48,0,3,,,3,,,64,95
50160,note_on,,,,,50,0,2,,,2,,,54,95
50160,note_on,,,,,50,0,5,,,5,,,79,95
50160,note_on,,,,,50,0,10,,,11,,,42,95
50160,note_on,,,,,50,0,7,,,7,,,76,95
50160,note_on,,,,,50,0,8,,,8,,,61,95
50350,note_off,,,,,190,0,8,,,8,,,61,64
50350,note_off,,,,,190,0,5,,,5,,,79,64
50350,note_off,,,,,190,0,6,,,6,,,79,64
50350,note_off,,,,,190,0,10,,,11,,,42,64
50350,note_off,,,,,190,0,9,,,10,,,54,64
50350,note_off,,,,,190,0,7,,,7,,,76,64
50350,note_off,,,,,0,0,1,,,1,,,76,64
50350,note_off,,,,,190,0,1,,,1,,,79,64
50350,note_off,,,,,190,0,4,,,4,,,79,64
50350,note_off,,,,,190,0,2,,,2,,,54,64
50350,note_off,,,,,0,0,4,,,4,,,76,64
50352,note_off,,,,,0,0,3,,,3,,,64,64
50352,note_off,,,,,192,0,3,,,3,,,67,64
50400,note_on,,,,,50,0,2,,,2,,,62,95
50400,note_on,,,,,50,0,6,,,6,,,78,95
50400,note_on,,,,,0,0,3,,,3,,,66,95
50400,note_on,,,,,48,0,3,,,3,,,62,95
50400,note_on,,,,,50,0,10,,,11,,,50,95
50400,note_on,,,,,50,0,9,,,10,,,62,95
50400,note_on,,,,,0,0,4,,,4,,,78,95
50400,note_on,,,,,50,0,8,,,8,,,62,95
50400,note_on,,,,,50,0,7,,,7,,,74,95
50400,note_on,,,,,50,0,1,,,1,,,74,95
50400,note_on,,,,,0,0,1,,,1,,,78,95
50400,note_on,,,,,50,0,4,,,4,,,74,95
50400,note_on,,,,,50,0,5,,,5,,,78,95
50590,note_off,,,,,0,0,4,,,4,,,74,64
50590,note_off,,,,,190,0,4,,,4,,,78,64
50590,note_off,,,,,0,0,1,,,1,,,74,64
50590,note_off,,,,,190,0,1,,,1,,,78,64
50590,note_off,,,,,190,0,10,,,11,,,50,64
50590,note_off,,,,,190,0,8,,,8,,,62,64
50590,note_off,,,,,190,0,9,,,10,,,62,64
50590,note_off,,,,,190,0,2,,,2,,,62,64
50590,note_off,,,,,190,0,6,,,6,,,78,64
50590,note_off,,,,,190,0,7,,,7,,,74,64
50590,note_off,,,,,190,0,5,,,5,,,78,64
50592,note_off,,,,,192,0,3,,,3,,,66,64
50592,note_off,,,,,0,0,3,,,3,,,62,64
50640,note_on,,,,,50,0,4,,,4,,,62,95
50640,note_on,,,,,50,0,10,,,11,,,38,95
50640,note_on,,,,,50,0,2,,,2,,,50,95
50640,note_on,,,,,0,0,4,,,4,,,79,95
50640,note_on,,,,,50,0,7,,,7,,,69,95
50640,note_on,,,,,0,0,1,,,1,,,79,95
50640,note_on,,,,,0,0,3,,,3,,,67,95
50640,note_on,,,,,48,0,3,,,3,,,50,95
50640,note_on,,,,,50,0,6,,,6,,,79,95
50640,note_on,,,,,50,0,9,,,10,,,50,95
50640,note_on,,,,,50,0,5,,,5,,,79,95
50640,note_on,,,,,50,0,1,,,1,,,69,95
50640,note_on,,,,,50,0,8,,,8,,,62,95
50735,note_off,,,,,95,0,1,,,1,,,79,64
50735,note_off,,,,,95,0,5,,,5,,,79,64
50735,note_off,,,,,95,0,6,,,6,,,79,64
50735,note_off,,,,,95,0,4,,,4,,,79,64
50736,note_off,,,,,96,0,3,,,3,,,67,64
50760,note_on,,,,,25,0,5,,,5,,,78,95
50760,note_on,,,,,24,0,3,,,3,,,66,95
50760,note_on,,,,,25,0,4,,,4,,,78,95
50760,note_on,,,,,25,0,6,,,6,,,78,95
50760,note_on,,,,,25,0,1,,,1,,,78,95
50830,note_off,,,,,190,0,10,,,11,,,38,64
50830,note_off,,,,,190,0,2,,,2,,,50,64
50830,note_off,,,,,70,0,4,,,4,,,62,64
50830,note_off,,,,,190,0,7,,,7,,,69,64
50830,note_off,,,,,190,0,9,,,10,,,50,64
50830,note_off,,,,,190,0,8,,,8,,,62,64
50830,note_off,,,,,70,0,1,,,1,,,69,64
50832,note_off,,,,,72,0,3,,,3,,,50,64
50855,note_off,,,,,25,0,4,,,4,,,78,64
50855,note_off,,,,,25,0,1,,,1,,,78,64
50855,note_off,,,,,95,0,6,,,6,,,78,64
50855,note_off,,,,,95,0,5,,,5,,,78,64
50856,note_off,,,,,24,0,3,,,3,,,66,64
50880,note_on,,,,,25,0,5,,,5,,,76,95
50880,note_on,,,,,50,0,2,,,2,,,54,95
50880,note_on,,,,,25,0,6,,,6,,,76,95
50880,note_on,,,,,50,0,7,,,7,,,69,95
50880,note_on,,,,,25,0,1,,,1,,,69,95
50880,note_on,,,,,0,0,4,,,4,,,76,95
50880,note_on,,,,,50,0,9,,,10,,,54,95
50880,note_on,,,,,25,0,4,,,4,,,69,95
50880,note_on,,,,,24,0,3,,,3,,,57,95
50880,note_on,,,,,0,0,3,,,3,,,64,95
50880,note_on,,,,,50,0,10,,,11,,,42,95
50880,note_on,,,,,0,0,1,,,1,,,76,95
50880,note_on,,,,,50,0,8,,,8,,,64,95
50975,note_off,,,,,95,0,5,,,5,,,76,64
50975,note_off,,,,,95,0,6,,,6,,,76,64
50975,note_off,,,,,95,0,4,,,4,,,76,64
50975,note_off,,,,,95,0,1,,,1,,,76,64
50976,note_off,,,,,96,0,3,,,3,,,64,64
51000,note_on,,,,,25,0,6,,,6,,,78,95
51000,note_on,,,,,25,0,4,,,4,,,78,95
51000,note_on,,,,,25,0,5,,,5,,,78,95
51000,note_on,,,,,24,0,3,,,3,,,66,95
51000,note_on,,,,,25,0,1,,,1,,,78,95
51070,note_off,,,,,70,0,1,,,1,,,69,64
51070,note_off,,,,,190,0,10,,,11,,,42,64
51070,note_off,,,,,190,0,9,,,10,,,54,64
51070,note_off,,,,,190,0,7,,,7,,,69,64
51070,note_off,,,,,190,0,8,,,8,,,64,64
51070,note_off,,,,,190,0,2,,,2,,,54,64
51070,note_off,,,,,70,0,4,,,4,,,69,64
51072,note_off,,,,,72,0,3,,,3,,,57,64
51095,note_off,,,,,25,0,1,,,1,,,78,64
51095,note_off,,,,,95,0,6,,,6,,,78,64
51095,note_off,,,,,95,0,5,,,5,,,78,64
51095,note_off,,,,,25,0,4,,,4,,,78,64
51096,note_off,,,,,24,0,3,,,3,,,66,64
51120,note_on,,,,,25,0,5,,,5,,,74,95
51120,note_on,,,,,0,0,3,,,3,,,62,95
51120,note_on,,,,,25,0,1,,,1,,,69,95
51120,note_on,,,,,0,0,1,,,1,,,74,95
51120,note_on,,,,,25,0,6,,,6,,,74,95
51120,note_on,,,,,0,0,4,,,4,,,74,95
51120,note_on,,,,,50,0,8,,,8,,,66,95
51120,note_on,,,,,24,0,3,,,3,,,54,95
51120,note_on,,,,,50,0,2,,,2,,,50,95
51120,note_on,,,,,25,0,4,,,4,,,66,95
51120,note_on,,,,,50,0,9,,,10,,,50,95
51120,note_on,,,,,50,0,10,,,11,,,38,95
51120,note_on,,,,,50,0,7,,,7,,,69,95
51310,note_off,,,,,190,0,1,,,1,,,74,64
51310,note_off,,,,,190,0,6,,,6,,,74,64
51310,note_off,,,,,190,0,8,,,8,,,66,64
51310,note_off,,,,,190,0,9,,,10,,,50,64
51310,note_off,,,,,0,0,1,,,1,,,69,64
51310,note_off,,,,,190,0,7,,,7,,,69,64
51310,note_off,,,,,0,0,4,,,4,,,66,64
51310,note_off,,,,,190,0,4,,,4,,,74,64
51310,note_off,,,,,190,0,2,,,2,,,50,64
51310,note_off,,,,,190,0,10,,,11,,,38,64
51310,note_off,,,,,190,0,5,,,5,,,74,64
51312,note_off,,,,,0,0,3,,,3,,,54,64
51312,note_off,,,,,192,0,3,,,3,,,62,64
51360,note_on,,,,,50,0,1,,,1,,,69,95
51360,note_on,,,,,50,0,9,,,10,,,50,95
51360,note_on,,,,,50,0,8,,,8,,,66,95
51360,note_on,,,,,0,0,4,,,4,,,74,95
51360,note_on,,,,,50,0,4,,,4,,,66,95
51360,note_on,,,,,50,0,10,,,11,,,38,95
51360,note_on,,,,,0,0,1,,,1,,,74,95
51360,note_on,,,,,50,0,6,,,6,,,74,95
51360,note_on,,,,,50,0,2,,,2,,,50,95
51360,note_on,,,,,48,0,3,,,3,,,54,95
51360,note_on,,,,,0,0,3,,,3,,,62,95
51360,note_on,,,,,50,0,5,,,5,,,74,95
51360,note_on,,,,,50,0,7,,,7,,,69,95
51455,note_off,,,,,95,0,6,,,6,,,74,64
51455,note_off,,,,,95,0,10,,,11,,,38,64
51455,note_off,,,,,95,0,2,,,2,,,50,64
51455,note_off,,,,,95,0,4,,,4,,,74,64
51455,note_off,,,,,95,0,7,,,7,,,69,64
51455,note_off,,,,,95,0,5,,,5,,,74,64
51455,note_off,,,,,95,0,9,,,10,,,50,64
51455,note_off,,,,,0,0,1,,,1,,,69,64
51455,note_off,,,,,95,0,1,,,1,,,74,64
51455,note_off,,,,,95,0,8,,,8,,,66,64
51455,note_off,,,,,0,0,4,,,4,,,66,64
51456,note_off,,,,,96,0,3,,,3,,,62,64
51456,note_off,,,,,0,0,3,,,3,,,54,64
51480,note_on,,,,,0,0,4,,,4,,,74,95
51480,note_on,,,,,25,0,9,,,10,,,50,95
51480,note_on,,,,,25,0,10,,,11,,,38,95
51480,note_on,,,,,25,0,2,,,2,,,50,95
51480,note_on,,,,,25,0,7,,,7,,,69,95
51480,note_on,,,,,25,0,8,,,8,,,66,95
51480,note_on,,,,,25,0,4,,,4,,,66,95
51480,note_on,,,,,0,0,3,,,3,,,62,95
51480,note_on,,,,,25,0,1,,,1,,,69,95
51480,note_on,,,,,25,0,6,,,6,,,74,95
51480,note_on,,,,,25,0,5,,,5,,,74,95
51480,note_on,,,,,24,0,3,,,3,,,54,95
51480,note_on,,,,,0,0,1,,,1,,,74,95
51575,note_off,,,,,95,0,9,,,10,,,50,64
51575,note_off,,,,,95,0,6,,,6,,,74,64
51575,note_off,,,,,95,0,1,,,1,,,74,64
51575,note_off,,,,,0,0,1,,,1,,,69,64
51575,note_off,,,,,95,0,7,,,7,,,69,64
51575,note_off,,,,,95,0,2,,,2,,,50,64
51575,note_off,,,,,0,0,4,,,4,,,66,64
51575,note_off,,,,,95,0,4,,,4,,,74,64
51575,note_off,,,,,95,0,8,,,8,,,66,64
51575,note_off,,,,,95,0,5,,,5,,,74,64
51575,note_off,,,,,95,0,10,,,11,,,38,64
51576,note_off,,,,,0,0,3,,,3,,,54,64
51576,note_off,,,,,96,0,3,,,3,,,62,64
51600,note_on,,,,,0,0,3,,,3,,,62,95
51600,note_on,,,,,25,0,2,,,2,,,50,95
51600,note_on,,,,,25,0,10,,,11,,,38,95
51600,note_on,,,,,25,0,8,,,8,,,66,95
51600,note_on,,,,,24,0,3,,,3,,,54,95
51600,note_on,,,,,25,0,7,,,7,,,69,95
51600,note_on,,,,,25,0,6,,,6,,,74,95
51600,note_on,,,,,0,0,1,,,1,,,74,95
51600,note_on,,,,,25,0,9,,,10,,,50,95
51600,note_on,,,,,25,0,5,,,5,,,74,95
51600,note_on,,,,,25,0,4,,,4,,,66,95
51600,note_on,,,,,0,0,4,,,4,,,74,95
51600,note_on,,,,,25,0,1,,,1,,,69,95
51695,note_off,,,,,95,0,1,,,1,,,74,64
51695,note_off,,,,,0,0,1,,,1,,,69,64
51695,note_off,,,,,95,0,9,,,10,,,50,64
51695,note_off,,,,,95,0,5,,,5,,,74,64
51695,note_off,,,,,95,0,8,,,8,,,66,64
51695,note_off,,,,,95,0,4,,,4,,,74,64
51695,note_off,,,,,95,0,10,,,11,,,38,64
51695,note_off,,,,,95,0,2,,,2,,,50,64
51695,note_off,,,,,95,0,7,,,7,,,69,64
51695,note_off,,,,,0,0,4,,,4,,,66,64
51695,note_off,,,,,95,0,6,,,6,,,74,64
51696,note_off,,,,,96,0,3,,,3,,,62,64
51696,note_off,,,,,0,0,3,,,3,,,54,64
51720,note_on,,,,,25,0,4,,,4,,,66,95
51720,note_on,,,,,0,0,4,,,4,,,74,95
51720,note_on,,,,,24,0,3,,,3,,,54,95
51720,note_on,,,,,25,0,9,,,10,,,50,95
51720,note_on,,,,,25,0,6,,,6,,,74,95
51720,note_on,,,,,0,0,3,,,3,,,62,95
51720,note_on,,,,,25,0,5,,,5,,,74,95
51720,note_on,,,,,25,0,1,,,1,,,69,95
51720,note_on,,,,,25,0,7,,,7,,,69,95
51720,note_on,,,,,25,0,2,,,2,,,50,95
51720,note_on,,,,,25,0,8,,,8,,,66,95
51720,note_on,,,,,25,0,10,,,11,,,38,95
51720,note_on,,,,,0,0,1,,,1,,,74,95
51815,note_off,,,,,0,0,1,,,1,,,69,64
51815,note_off,,,,,95,0,6,,,6,,,74,64
51815,note_off,,,,,95,0,2,,,2,,,50,64
51815,note_off,,,,,95,0,7,,,7,,,69,64
51815,note_off,,,,,95,0,1,,,1,,,74,64
51815,note_off,,,,,95,0,4,,,4,,,74,64
51815,note_off,,,,,0,0,4,,,4,,,66,64
51815,note_off,,,,,95,0,9,,,10,,,50,64
51815,note_off,,,,,95,0,8,,,8,,,66,64
51815,note_off,,,,,95,0,5,,,5,,,74,64
51815,note_off,,,,,95,0,10,,,11,,,38,64
51816,note_off,,,,,0,0,3,,,3,,,54,64
51816,note_off,,,,,96,0,3,,,3,,,62,64
51840,note_on,,,,,0,0,7,,,7,,,66,95
51840,note_on,,,,,25,0,7,,,7,,,69,95
51840,note_on,,,,,25,0,5,,,5,,,74,95
51840,note_on,,,,,25,0,9,,,10,,,50,95
51840,note_on,,,,,0,0,3,,,3,,,62,95
51840,note_on,,,,,0,0,1,,,1,,,69,95
51840,note_on,,,,,0,0,4,,,4,,,74,95
51840,note_on,,,,,25,0,4,,,4,,,66,95
51840,note_on,,,,,25,0,6,,,6,,,74,95
51840,note_on,,,,,25,0,8,,,8,,,66,95
51840,note_on,,,,,0,0,8,,,8,,,69,95
51840,note_on,,,,,25,0,1,,,1,,,66,95
51840,note_on,,,,,25,0,10,,,11,,,38,95
51840,note_on,,,,,25,0,2,,,2,,,50,95
51840,note_on,,,,,0,0,1,,,1,,,74,95
51840,note_on,,,,,24,0,3,,,3,,,54,95
52415,note_off,,,,,575,0,10,,,11,,,38,64
52415,end_of_track,,,,,0,1,10,,,,,,,
52415,note_off,,,,,575,0,9,,,10,,,50,64
52415,note_off,,,,,0,0,7,,,7,,,69,64
52415,end_of_track,,,,,0,1,4,,,,,,,
52415,note_off,,,,,0,0,4,,,4,,,66,64
52415,note_off,,,,,575,0,4,,,4,,,74,64
52415,end_of_track,,,,,0,1,6,,,,,,,
52415,note_off,,,,,575,0,6,,,6,,,74,64
52415,note_off,,,,,575,0,1,,,1,,,74,64
52415,note_off,,,,,0,0,1,,,1,,,69,64
52415,note_off,,,,,0,0,1,,,1,,,66,64
52415,end_of_track,,,,,0,1,1,,,,,,,
52415,note_off,,,,,575,0,7,,,7,,,66,64
52415,end_of_track,,,,,0,1,9,,,,,,,
52415,end_of_track,,,,,0,1,2,,,,,,,
52415,end_of_track,,,,,0,1,8,,,,,,,
52415,note_off,,,,,0,0,8,,,8,,,66,64
52415,note_off,,,,,575,0,8,,,8,,,69,64
52415,end_of_track,,,,,0,1,5,,,,,,,
52415,end_of_track,,,,,0,1,7,,,,,,,
52415,note_off,,,,,575,0,2,,,2,,,50,64
52415,note_off,,,,,575,0,5,,,5,,,74,64
52416,note_off,,,,,576,0,3,,,3,,,62,64
52416,note_off,,,,,0,0,3,,,3,,,54,64
52416,end_of_track,,,,,0,1,3,,,,,,,
