tick,type,time,meta,track,tempo,note,velocity,channel
0,text,0,1,0,,,,
0,note_on,0,0,1,,60,64,0
0,note_on,0,0,1,,57,64,0
0,set_tempo,0,1,0,833333,,,
0,copyright,0,1,0,,,,
0,track_name,0,1,0,,,,
0,track_name,0,1,0,,,,
0,text,0,1,0,,,,
0,note_on,0,0,2,,69,64,0
0,text,0,1,0,,,,
0,text,0,1,0,,,,
0,text,0,1,0,,,,
0,text,0,1,0,,,,
0,text,0,1,0,,,,
0,text,0,1,0,,,,
0,text,0,1,0,,,,
10,set_tempo,10,1,0,833333,,,
30,note_on,0,0,2,,76,64,0
30,note_off,30,0,2,,69,64,0
60,note_on,0,0,2,,72,64,0
60,note_off,30,0,2,,76,64,0
90,note_on,0,0,2,,69,64,0
90,note_off,30,0,2,,72,64,0
120,note_on,0,0,1,,59,64,0
120,note_off,0,0,1,,60,64,0
120,note_off,120,0,1,,57,64,0
120,note_on,0,0,2,,68,64,0
120,note_off,30,0,2,,69,64,0
120,note_on,0,0,1,,62,64,0
150,note_off,0,0,1,,62,64,0
150,note_on,0,0,2,,77,64,0
150,note_off,30,0,2,,68,64,0
150,note_off,30,0,1,,59,64,0
180,note_on,0,0,2,,69,64,0
180,note_off,30,0,2,,77,64,0
180,note_on,0,0,1,,60,64,0
180,note_on,30,0,1,,57,64,0
210,note_on,0,0,2,,76,64,0
210,note_off,30,0,2,,69,64,0
210,note_off,30,0,1,,57,64,0
210,note_off,0,0,1,,60,64,0
240,note_on,30,0,1,,56,64,0
240,note_on,0,0,1,,59,64,0
240,note_off,30,0,2,,76,64,0
240,note_on,0,0,2,,64,64,0
255,note_off,15,0,2,,64,64,0
270,note_on,15,0,2,,83,64,0
300,note_off,30,0,2,,83,64,0
300,note_on,0,0,2,,77,64,0
330,note_on,0,0,2,,76,64,0
330,note_off,30,0,2,,77,64,0
360,note_on,0,0,1,,54,64,0
360,note_off,0,0,1,,59,64,0
360,note_on,0,0,2,,75,64,0
360,note_off,30,0,2,,76,64,0
360,note_on,0,0,1,,57,64,0
360,note_off,120,0,1,,56,64,0
390,note_off,30,0,1,,54,64,0
390,note_on,0,0,2,,84,64,0
390,note_off,0,0,1,,57,64,0
390,note_off,30,0,2,,75,64,0
420,note_on,0,0,2,,76,64,0
420,note_off,30,0,2,,84,64,0
420,note_on,30,0,1,,56,64,0
420,note_on,0,0,1,,59,64,0
450,note_off,30,0,1,,56,64,0
450,note_off,0,0,1,,59,64,0
450,note_off,30,0,2,,76,64,0
450,note_on,0,0,2,,83,64,0
480,note_on,0,0,2,,69,64,0
480,note_on,30,0,1,,57,64,0
480,note_on,0,0,1,,60,64,0
480,note_off,30,0,2,,83,64,0
510,note_on,0,0,2,,72,64,0
510,note_off,30,0,2,,69,64,0
540,note_on,0,0,2,,75,64,0
540,note_off,30,0,2,,72,64,0
570,note_off,30,0,2,,75,64,0
570,note_on,0,0,2,,76,64,0
600,note_off,120,0,1,,57,64,0
600,note_off,0,0,1,,60,64,0
600,note_on,0,0,1,,53,64,0
600,note_on,0,0,1,,62,64,0
600,note_on,0,0,2,,81,64,0
600,note_off,30,0,2,,76,64,0
630,note_off,30,0,2,,81,64,0
630,note_on,0,0,2,,79,64,0
660,note_on,0,0,2,,77,64,0
660,note_off,30,0,2,,79,64,0
690,note_on,0,0,2,,76,64,0
690,note_off,30,0,2,,77,64,0
720,note_on,0,0,1,,55,64,0
720,note_off,30,0,2,,76,64,0
720,note_on,0,0,2,,74,64,0
720,note_off,120,0,1,,53,64,0
720,note_off,0,0,1,,62,64,0
720,note_on,0,0,1,,59,64,0
750,note_off,30,0,2,,74,64,0
750,note_on,0,0,2,,72,64,0
780,note_off,30,0,2,,72,64,0
780,note_on,0,0,2,,71,64,0
810,note_off,30,0,2,,71,64,0
810,note_on,0,0,2,,69,64,0
840,note_off,30,0,2,,69,64,0
840,note_on,0,0,2,,67,64,0
870,note_on,0,0,2,,66,64,0
870,note_off,30,0,2,,67,64,0
900,note_off,30,0,2,,66,64,0
900,note_on,0,0,2,,65,64,0
930,note_off,30,0,2,,65,64,0
930,note_on,0,0,2,,64,64,0
960,note_off,30,0,2,,64,64,0
960,note_off,240,0,1,,55,64,0
960,note_off,0,0,1,,59,64,0
960,note_on,0,0,1,,59,64,0
960,note_on,0,0,1,,62,64,0
990,note_on,30,0,2,,67,64,0
1020,note_on,0,0,2,,81,64,0
1020,note_off,30,0,2,,67,64,0
1050,note_on,0,0,2,,79,64,0
1050,note_off,30,0,2,,81,64,0
1080,note_off,30,0,2,,79,64,0
1080,note_on,0,0,1,,57,64,0
1080,note_off,0,0,1,,62,64,0
1080,note_off,120,0,1,,59,64,0
1080,note_on,0,0,2,,78,64,0
1080,note_on,0,0,1,,60,64,0
1110,note_off,30,0,2,,78,64,0
1110,note_on,0,0,2,,67,64,0
1110,note_off,0,0,1,,60,64,0
1110,note_off,30,0,1,,57,64,0
1140,note_on,0,0,1,,62,64,0
1140,note_on,30,0,1,,59,64,0
1140,note_off,30,0,2,,67,64,0
1140,note_on,0,0,2,,77,64,0
1170,note_off,30,0,1,,59,64,0
1170,note_off,30,0,2,,77,64,0
1170,note_on,0,0,2,,68,64,0
1170,note_off,0,0,1,,62,64,0
1200,note_on,0,0,1,,64,64,0
1200,note_off,30,0,2,,68,64,0
1200,note_on,0,0,2,,67,64,0
1200,note_on,0,0,2,,67,64,0
1200,note_on,30,0,1,,60,64,0
1230,note_off,30,0,2,,67,64,0
1230,note_on,0,0,2,,76,64,0
1260,note_off,30,0,2,,76,64,0
1260,note_on,0,0,2,,72,64,0
1290,note_off,30,0,2,,67,64,0
1290,note_off,0,0,2,,72,64,0
1290,note_on,0,0,2,,68,64,0
1290,note_on,0,0,2,,68,64,0
1320,note_off,30,0,2,,68,64,0
1320,note_on,0,0,2,,69,64,0
1320,note_off,120,0,1,,60,64,0
1320,note_off,0,0,2,,68,64,0
1320,note_off,0,0,1,,64,64,0
1320,note_on,0,0,1,,60,64,0
1320,note_on,0,0,1,,57,64,0
1350,note_off,30,0,2,,69,64,0
1350,note_on,0,0,2,,72,64,0
1380,note_on,0,0,2,,76,64,0
1380,note_off,30,0,2,,72,64,0
1410,note_off,30,0,2,,76,64,0
1410,note_on,0,0,2,,81,64,0
1440,note_on,0,0,1,,59,64,0
1440,note_on,0,0,1,,52,64,0
1440,note_off,30,0,2,,81,64,0
1440,note_on,0,0,2,,89,64,0
1440,note_off,0,0,1,,60,64,0
1440,note_on,0,0,1,,57,64,0
1440,note_off,120,0,1,,57,64,0
1470,note_off,30,0,2,,89,64,0
1470,note_on,0,0,2,,74,64,0
1500,note_off,30,0,2,,74,64,0
1500,note_on,0,0,2,,87,64,0
1530,note_off,30,0,2,,87,64,0
1530,note_on,0,0,2,,77,64,0
1560,note_off,120,0,1,,57,64,0
1560,note_on,0,0,1,,56,64,0
1560,note_on,0,0,2,,88,64,0
1560,note_off,30,0,2,,77,64,0
1590,note_on,0,0,2,,76,64,0
1590,note_off,30,0,2,,88,64,0
1620,note_on,0,0,2,,76,64,0
1620,note_off,30,0,2,,76,64,0
1650,note_on,0,0,2,,74,64,0
1650,note_off,30,0,2,,76,64,0
1680,note_off,30,0,2,,74,64,0
1680,note_on,0,0,2,,74,64,0
1680,note_on,0,0,1,,57,64,0
1680,note_on,0,0,1,,52,64,0
1680,note_on,0,0,1,,45,64,0
1680,note_off,0,0,1,,56,64,0
1680,note_off,0,0,1,,59,64,0
1680,note_off,120,0,1,,52,64,0
1710,note_on,0,0,2,,76,64,0
1710,note_off,30,0,2,,74,64,0
1740,note_on,0,0,2,,72,64,0
1740,note_off,30,0,2,,76,64,0
1770,note_off,30,0,2,,72,64,0
1770,note_on,0,0,2,,76,64,0
1800,note_off,0,0,1,,52,64,0
1800,note_off,0,0,1,,57,64,0
1800,note_off,30,0,2,,76,64,0
1800,note_off,120,0,1,,45,64,0
1800,note_on,0,0,2,,71,64,0
1830,note_off,30,0,2,,71,64,0
1830,note_on,0,0,2,,76,64,0
1860,note_on,0,0,2,,69,64,0
1860,note_off,30,0,2,,76,64,0
1890,note_on,0,0,2,,76,64,0
1890,note_off,30,0,2,,69,64,0
1920,note_on,120,0,1,,57,64,0
1920,note_on,0,0,1,,60,64,0
1920,note_off,30,0,2,,76,64,0
1920,note_on,0,0,2,,69,64,0
1950,note_off,30,0,2,,69,64,0
1950,note_on,0,0,2,,76,64,0
1980,note_off,30,0,2,,76,64,0
1980,note_on,0,0,2,,72,64,0
2010,note_on,0,0,2,,69,64,0
2010,note_off,30,0,2,,72,64,0
2040,note_on,0,0,1,,59,64,0
2040,note_off,30,0,2,,69,64,0
2040,note_on,0,0,2,,68,64,0
2040,note_off,120,0,1,,57,64,0
2040,note_on,0,0,1,,62,64,0
2040,note_off,0,0,1,,60,64,0
2070,note_off,30,0,2,,68,64,0
2070,note_on,0,0,2,,77,64,0
2070,note_off,30,0,1,,59,64,0
2070,note_off,0,0,1,,62,64,0
2100,note_on,0,0,1,,60,64,0
2100,note_on,30,0,1,,57,64,0
2100,note_on,0,0,2,,69,64,0
2100,note_off,30,0,2,,77,64,0
2130,note_on,0,0,2,,76,64,0
2130,note_off,0,0,1,,60,64,0
2130,note_off,30,0,1,,57,64,0
2130,note_off,30,0,2,,69,64,0
2160,note_off,30,0,2,,76,64,0
2160,note_on,30,0,1,,56,64,0
2160,note_on,0,0,1,,59,64,0
2160,note_on,0,0,2,,64,64,0
2175,note_off,15,0,2,,64,64,0
2190,note_on,15,0,2,,83,64,0
2220,note_off,30,0,2,,83,64,0
2220,note_on,0,0,2,,77,64,0
2250,note_off,30,0,2,,77,64,0
2250,note_on,0,0,2,,76,64,0
2280,note_on,0,0,1,,54,64,0
2280,note_on,0,0,2,,75,64,0
2280,note_off,30,0,2,,76,64,0
2280,note_off,120,0,1,,56,64,0
2280,note_on,0,0,1,,57,64,0
2280,note_off,0,0,1,,59,64,0
2310,note_off,30,0,1,,54,64,0
2310,note_off,0,0,1,,57,64,0
2310,note_off,30,0,2,,75,64,0
2310,note_on,0,0,2,,84,64,0
2340,note_on,30,0,1,,56,64,0
2340,note_on,0,0,1,,59,64,0
2340,note_off,30,0,2,,84,64,0
2340,note_on,0,0,2,,76,64,0
2370,note_off,30,0,2,,76,64,0
2370,note_off,30,0,1,,56,64,0
2370,note_off,0,0,1,,59,64,0
2370,note_on,0,0,2,,83,64,0
2400,note_on,30,0,1,,57,64,0
2400,note_on,0,0,1,,60,64,0
2400,note_on,0,0,2,,69,64,0
2400,note_off,30,0,2,,83,64,0
2430,note_on,0,0,2,,72,64,0
2430,note_off,30,0,2,,69,64,0
2460,note_off,30,0,2,,72,64,0
2460,note_on,0,0,2,,75,64,0
2490,note_off,30,0,2,,75,64,0
2490,note_on,0,0,2,,76,64,0
2520,note_off,120,0,1,,57,64,0
2520,note_off,0,0,1,,60,64,0
2520,note_off,30,0,2,,76,64,0
2520,note_on,0,0,1,,62,64,0
2520,note_on,0,0,2,,81,64,0
2520,note_on,0,0,1,,53,64,0
2550,note_on,0,0,2,,79,64,0
2550,note_off,30,0,2,,81,64,0
2580,note_on,0,0,2,,77,64,0
2580,note_off,30,0,2,,79,64,0
2610,note_on,0,0,2,,76,64,0
2610,note_off,30,0,2,,77,64,0
2640,note_off,30,0,2,,76,64,0
2640,note_off,0,0,1,,62,64,0
2640,note_on,0,0,1,,55,64,0
2640,note_on,0,0,2,,74,64,0
2640,note_on,0,0,1,,59,64,0
2640,note_off,120,0,1,,53,64,0
2670,note_on,0,0,2,,72,64,0
2670,note_off,30,0,2,,74,64,0
2700,note_on,0,0,2,,71,64,0
2700,note_off,30,0,2,,72,64,0
2730,note_on,0,0,2,,69,64,0
2730,note_off,30,0,2,,71,64,0
2760,note_on,0,0,2,,67,64,0
2760,note_off,30,0,2,,69,64,0
2790,note_on,0,0,2,,66,64,0
2790,note_off,30,0,2,,67,64,0
2820,note_on,0,0,2,,65,64,0
2820,note_off,30,0,2,,66,64,0
2850,note_off,30,0,2,,65,64,0
2850,note_on,0,0,2,,64,64,0
2880,note_on,0,0,1,,59,64,0
2880,note_off,240,0,1,,55,64,0
2880,note_off,0,0,1,,59,64,0
2880,note_off,30,0,2,,64,64,0
2880,note_on,0,0,1,,62,64,0
2910,note_on,30,0,2,,67,64,0
2940,note_on,0,0,2,,81,64,0
2940,note_off,30,0,2,,67,64,0
2970,note_off,30,0,2,,81,64,0
2970,note_on,0,0,2,,79,64,0
3000,note_off,30,0,2,,79,64,0
3000,note_on,0,0,2,,78,64,0
3000,note_on,0,0,1,,57,64,0
3000,note_on,0,0,1,,60,64,0
3000,note_off,0,0,1,,62,64,0
3000,note_off,120,0,1,,59,64,0
3030,note_off,0,0,1,,60,64,0
3030,note_on,0,0,2,,67,64,0
3030,note_off,30,0,2,,78,64,0
3030,note_off,30,0,1,,57,64,0
3060,note_off,30,0,2,,67,64,0
3060,note_on,0,0,2,,77,64,0
3060,note_on,30,0,1,,59,64,0
3060,note_on,0,0,1,,62,64,0
3090,note_off,0,0,1,,62,64,0
3090,note_off,30,0,1,,59,64,0
3090,note_off,30,0,2,,77,64,0
3090,note_on,0,0,2,,68,64,0
3120,note_on,0,0,2,,67,64,0
3120,note_off,30,0,2,,68,64,0
3120,note_on,0,0,2,,67,64,0
3120,note_on,0,0,1,,64,64,0
3120,note_on,30,0,1,,60,64,0
3150,note_off,30,0,2,,67,64,0
3150,note_on,0,0,2,,76,64,0
3180,note_off,30,0,2,,76,64,0
3180,note_on,0,0,2,,72,64,0
3210,note_on,0,0,2,,68,64,0
3210,note_off,30,0,2,,67,64,0
3210,note_on,0,0,2,,68,64,0
3210,note_off,0,0,2,,72,64,0
3240,note_off,0,0,1,,64,64,0
3240,note_on,0,0,1,,57,64,0
3240,note_on,0,0,2,,69,64,0
3240,note_off,0,0,2,,68,64,0
3240,note_off,30,0,2,,68,64,0
3240,note_on,0,0,1,,60,64,0
3240,note_off,120,0,1,,60,64,0
3270,note_on,0,0,2,,72,64,0
3270,note_off,30,0,2,,69,64,0
3300,note_off,30,0,2,,72,64,0
3300,note_on,0,0,2,,76,64,0
3330,note_on,0,0,2,,81,64,0
3330,note_off,30,0,2,,76,64,0
3360,note_off,30,0,2,,81,64,0
3360,note_on,0,0,2,,89,64,0
3360,note_on,0,0,1,,59,64,0
3360,note_on,0,0,1,,52,64,0
3360,note_off,0,0,1,,60,64,0
3360,note_off,120,0,1,,57,64,0
3360,note_on,0,0,1,,57,64,0
3390,note_on,0,0,2,,74,64,0
3390,note_off,30,0,2,,89,64,0
3420,note_off,30,0,2,,74,64,0
3420,note_on,0,0,2,,87,64,0
3450,note_on,0,0,2,,77,64,0
3450,note_off,30,0,2,,87,64,0
3480,note_on,0,0,2,,88,64,0
3480,note_off,30,0,2,,77,64,0
3480,note_off,120,0,1,,57,64,0
3480,note_on,0,0,1,,56,64,0
3510,note_on,0,0,2,,76,64,0
3510,note_off,30,0,2,,88,64,0
3540,note_on,0,0,2,,76,64,0
3540,note_off,30,0,2,,76,64,0
3570,note_on,0,0,2,,74,64,0
3570,note_off,30,0,2,,76,64,0
3600,note_off,120,0,1,,52,64,0
3600,note_on,0,0,1,,52,64,0
3600,note_on,0,0,1,,45,64,0
3600,note_off,0,0,1,,56,64,0
3600,note_off,0,0,1,,59,64,0
3600,note_on,0,0,1,,57,64,0
3600,note_on,0,0,2,,74,64,0
3600,note_off,30,0,2,,74,64,0
3630,note_on,0,0,2,,76,64,0
3630,note_off,30,0,2,,74,64,0
3660,note_off,30,0,2,,76,64,0
3660,note_on,0,0,2,,72,64,0
3690,note_off,30,0,2,,72,64,0
3690,note_on,0,0,2,,76,64,0
3720,note_off,120,0,1,,45,64,0
3720,note_on,0,0,2,,71,64,0
3720,note_off,0,0,1,,57,64,0
3720,note_off,0,0,1,,52,64,0
3720,note_off,30,0,2,,76,64,0
3750,note_on,0,0,2,,76,64,0
3750,note_off,30,0,2,,71,64,0
3780,note_off,30,0,2,,76,64,0
3780,note_on,0,0,2,,69,64,0
3810,note_off,30,0,2,,69,64,0
3810,note_on,0,0,2,,76,64,0
3840,note_on,0,0,1,,61,64,0
3840,note_off,30,0,2,,76,64,0
3840,note_on,0,0,2,,69,64,0
3840,note_on,120,0,1,,57,64,0
3870,note_off,30,0,2,,69,64,0
3870,note_on,0,0,2,,76,64,0
3900,note_off,30,0,2,,76,64,0
3900,note_on,0,0,2,,73,64,0
3930,note_off,30,0,2,,73,64,0
3930,note_on,0,0,2,,69,64,0
3960,note_on,0,0,1,,62,64,0
3960,note_on,0,0,1,,59,64,0
3960,note_off,30,0,2,,69,64,0
3960,note_off,0,0,1,,61,64,0
3960,note_on,0,0,2,,68,64,0
3960,note_off,120,0,1,,57,64,0
3990,note_off,30,0,2,,68,64,0
3990,note_on,0,0,2,,77,64,0
3990,note_off,0,0,1,,62,64,0
3990,note_off,30,0,1,,59,64,0
4020,note_off,30,0,2,,77,64,0
4020,note_on,0,0,2,,67,64,0
4020,note_on,0,0,1,,64,64,0
4020,note_on,30,0,1,,61,64,0
4050,note_off,30,0,1,,61,64,0
4050,note_off,0,0,1,,64,64,0
4050,note_on,0,0,2,,81,64,0
4050,note_off,30,0,2,,67,64,0
4080,note_off,30,0,2,,81,64,0
4080,note_on,0,0,2,,65,64,0
4080,note_on,30,0,1,,62,64,0
4080,note_on,0,0,1,,65,64,0
4110,note_on,0,0,2,,81,64,0
4110,note_off,30,0,2,,65,64,0
4140,note_on,0,0,2,,80,64,0
4140,note_off,30,0,2,,81,64,0
4170,note_on,0,0,2,,81,64,0
4170,note_off,30,0,2,,80,64,0
4200,note_off,120,0,1,,62,64,0
4200,note_off,0,0,1,,65,64,0
4200,note_on,0,0,1,,64,64,0
4200,note_on,0,0,1,,60,64,0
4200,note_off,30,0,2,,81,64,0
4200,note_on,0,0,2,,82,64,0
4230,note_off,30,0,2,,82,64,0
4230,note_on,0,0,2,,90,64,0
4260,note_off,30,0,2,,90,64,0
4260,note_on,0,0,2,,90,64,0
4275,note_off,15,0,2,,90,64,0
4290,note_on,15,0,2,,90,64,0
4305,note_off,15,0,2,,90,64,0
4320,note_on,15,0,2,,71,64,0
4320,note_on,0,0,1,,63,64,0
4320,note_on,0,0,1,,59,64,0
4320,note_off,0,0,1,,64,64,0
4320,note_off,120,0,1,,60,64,0
4350,note_off,30,0,2,,71,64,0
4350,note_on,0,0,2,,78,64,0
4380,note_off,30,0,2,,78,64,0
4380,note_on,0,0,2,,75,64,0
4410,note_on,0,0,2,,71,64,0
4410,note_off,30,0,2,,75,64,0
4440,note_on,0,0,1,,64,64,0
4440,note_on,0,0,2,,70,64,0
4440,note_off,30,0,2,,71,64,0
4440,note_off,0,0,1,,63,64,0
4440,note_off,120,0,1,,59,64,0
4440,note_on,0,0,1,,61,64,0
4470,note_on,0,0,2,,79,64,0
4470,note_off,0,0,1,,64,64,0
4470,note_off,30,0,1,,61,64,0
4470,note_off,30,0,2,,70,64,0
4500,note_on,0,0,1,,66,64,0
4500,note_on,30,0,1,,63,64,0
4500,note_off,30,0,2,,79,64,0
4500,note_on,0,0,2,,69,64,0
4530,note_off,30,0,2,,69,64,0
4530,note_off,30,0,1,,63,64,0
4530,note_off,0,0,1,,66,64,0
4530,note_on,0,0,2,,83,64,0
4560,note_off,30,0,2,,83,64,0
4560,note_on,30,0,1,,64,64,0
4560,note_on,0,0,1,,68,64,0
4590,note_on,30,0,2,,83,64,0
4620,note_off,30,0,2,,83,64,0
4620,note_on,0,0,2,,80,64,0
4650,note_off,30,0,2,,80,64,0
4650,note_on,0,0,2,,75,64,0
4680,note_on,0,0,2,,76,64,0
4680,note_off,120,0,1,,64,64,0
4680,note_off,0,0,1,,68,64,0
4680,note_on,0,0,1,,64,64,0
4680,note_on,0,0,1,,67,64,0
4680,note_off,30,0,2,,75,64,0
4710,note_on,0,0,2,,91,64,0
4710,note_off,30,0,2,,76,64,0
4740,note_on,0,0,1,,65,64,0
4740,note_on,0,0,1,,71,64,0
4740,note_off,30,0,2,,91,64,0
4740,note_on,0,0,2,,91,64,0
4740,note_off,60,0,1,,64,64,0
4740,note_off,0,0,1,,67,64,0
4755,note_off,15,0,2,,91,64,0
4770,note_on,15,0,2,,91,64,0
4785,note_off,15,0,2,,91,64,0
4800,note_on,15,0,2,,91,64,0
4800,note_on,0,0,1,,64,64,0
4800,note_on,0,0,1,,67,64,0
4800,note_off,0,0,1,,71,64,0
4800,note_on,0,0,1,,72,64,0
4800,note_off,60,0,1,,65,64,0
4830,note_off,30,0,2,,91,64,0
4830,note_on,0,0,2,,79,64,0
4860,note_off,30,0,2,,79,64,0
4860,note_on,0,0,2,,81,64,0
4890,note_off,30,0,2,,81,64,0
4890,note_on,0,0,2,,82,64,0
4920,note_off,30,0,2,,82,64,0
4920,note_on,0,0,1,,69,64,0
4920,note_on,0,0,2,,81,64,0
4920,note_on,0,0,1,,64,64,0
4920,note_off,0,0,1,,72,64,0
4920,note_off,0,0,1,,67,64,0
4920,note_off,120,0,1,,64,64,0
4920,note_on,0,0,1,,73,64,0
4950,note_off,30,0,2,,81,64,0
4950,note_on,0,0,2,,80,64,0
4980,note_on,0,0,1,,73,64,0
4980,note_on,0,0,1,,70,64,0
4980,note_off,30,0,2,,80,64,0
4980,note_off,0,0,1,,73,64,0
4980,note_off,0,0,1,,69,64,0
4980,note_off,60,0,1,,64,64,0
4980,note_on,0,0,2,,79,64,0
4980,note_on,0,0,1,,64,64,0
5010,note_off,30,0,2,,79,64,0
5010,note_on,0,0,2,,76,64,0
5040,note_off,30,0,2,,76,64,0
5040,note_on,0,0,2,,74,64,0
5040,note_on,0,0,1,,74,64,0
5040,note_on,0,0,1,,69,64,0
5040,note_on,0,0,1,,66,64,0
5040,note_off,0,0,1,,73,64,0
5040,note_off,0,0,1,,70,64,0
5040,note_off,60,0,1,,64,64,0
5070,note_on,0,0,2,,81,64,0
5070,note_off,30,0,2,,74,64,0
5100,note_on,0,0,2,,86,64,0
5100,note_off,30,0,2,,81,64,0
5130,note_on,0,0,2,,84,64,0
5130,note_off,30,0,2,,86,64,0
5160,note_on,0,0,1,,65,64,0
5160,note_on,0,0,1,,75,64,0
5160,note_off,0,0,1,,74,64,0
5160,note_on,0,0,1,,71,64,0
5160,note_off,30,0,2,,84,64,0
5160,note_off,0,0,1,,69,64,0
5160,note_on,0,0,2,,84,64,0
5160,note_off,120,0,1,,66,64,0
5190,note_on,0,0,2,,83,64,0
5190,note_off,30,0,2,,84,64,0
5220,note_off,30,0,2,,83,64,0
5220,note_on,0,0,2,,83,64,0
5220,note_off,0,0,1,,71,64,0
5220,note_off,0,0,1,,75,64,0
5220,note_off,60,0,1,,65,64,0
5220,note_on,0,0,1,,74,64,0
5220,note_on,0,0,1,,72,64,0
5220,note_on,0,0,1,,65,64,0
5250,note_on,0,0,2,,81,64,0
5250,note_off,30,0,2,,83,64,0
5280,note_on,0,0,1,,76,64,0
5280,note_on,0,0,1,,64,64,0
5280,note_off,0,0,1,,74,64,0
5280,note_off,0,0,1,,72,64,0
5280,note_off,60,0,1,,65,64,0
5280,note_on,0,0,1,,69,64,0
5280,note_off,30,0,2,,81,64,0
5280,note_on,0,0,2,,81,64,0
5280,note_on,0,0,1,,72,64,0
5310,note_on,0,0,2,,96,64,0
5310,note_off,30,0,2,,81,64,0
5340,note_on,0,0,2,,95,64,0
5340,note_off,30,0,2,,96,64,0
5370,note_on,0,0,2,,93,64,0
5370,note_off,30,0,2,,95,64,0
5400,note_off,0,0,1,,76,64,0
5400,note_off,0,0,1,,69,64,0
5400,note_off,0,0,1,,72,64,0
5400,note_on,0,0,1,,71,64,0
5400,note_on,0,0,1,,74,64,0
5400,note_on,0,0,1,,77,64,0
5400,note_on,0,0,2,,92,64,0
5400,note_off,30,0,2,,93,64,0
5400,note_off,120,0,1,,64,64,0
5400,note_on,0,0,1,,62,64,0
5430,note_on,0,0,2,,89,64,0
5430,note_off,30,0,2,,92,64,0
5460,note_off,60,0,1,,62,64,0
5460,note_off,0,0,1,,77,64,0
5460,note_on,0,0,1,,64,64,0
5460,note_on,0,0,1,,76,64,0
5460,note_on,0,0,2,,86,64,0
5460,note_off,30,0,2,,89,64,0
5490,note_on,0,0,2,,83,64,0
5490,note_off,30,0,2,,86,64,0
5520,note_off,60,0,1,,71,64,0
5520,note_on,0,0,2,,81,64,0
5520,note_off,30,0,2,,83,64,0
5520,note_off,0,0,1,,74,64,0
5520,note_off,0,0,1,,64,64,0
5520,note_off,0,0,1,,76,64,0
5520,note_on,0,0,1,,69,64,0
5520,note_on,0,0,1,,72,64,0
5520,note_on,0,0,1,,76,64,0
5550,note_on,0,0,2,,83,64,0
5550,note_off,30,0,2,,81,64,0
5580,note_off,30,0,2,,83,64,0
5580,note_on,0,0,2,,84,64,0
5610,note_on,0,0,2,,80,64,0
5610,note_off,30,0,2,,84,64,0
5640,note_off,30,0,2,,80,64,0
5640,note_off,120,0,1,,69,64,0
5640,note_off,0,0,1,,72,64,0
5640,note_on,0,0,2,,81,64,0
5640,note_off,0,0,1,,76,64,0
5670,note_on,0,0,2,,76,64,0
5670,note_off,30,0,2,,81,64,0
5700,note_on,0,0,2,,72,64,0
5700,note_off,30,0,2,,76,64,0
5730,note_off,30,0,2,,72,64,0
5730,note_on,0,0,2,,69,64,0
5760,note_on,120,0,1,,57,64,0
5760,note_on,0,0,2,,69,64,0
5760,note_off,30,0,2,,69,64,0
5760,note_on,0,0,1,,61,64,0
5790,note_on,0,0,2,,76,64,0
5790,note_off,30,0,2,,69,64,0
5820,note_on,0,0,2,,73,64,0
5820,note_off,30,0,2,,76,64,0
5850,note_on,0,0,2,,69,64,0
5850,note_off,30,0,2,,73,64,0
5880,note_on,0,0,1,,59,64,0
5880,note_off,0,0,1,,61,64,0
5880,note_off,120,0,1,,57,64,0
5880,note_on,0,0,2,,68,64,0
5880,note_on,0,0,1,,62,64,0
5880,note_off,30,0,2,,69,64,0
5910,note_on,0,0,2,,77,64,0
5910,note_off,30,0,2,,68,64,0
5910,note_off,0,0,1,,62,64,0
5910,note_off,30,0,1,,59,64,0
5940,note_on,30,0,1,,61,64,0
5940,note_on,0,0,1,,64,64,0
5940,note_off,30,0,2,,77,64,0
5940,note_on,0,0,2,,67,64,0
5970,note_off,30,0,2,,67,64,0
5970,note_on,0,0,2,,81,64,0
5970,note_off,30,0,1,,61,64,0
5970,note_off,0,0,1,,64,64,0
6000,note_on,0,0,2,,65,64,0
6000,note_on,0,0,1,,65,64,0
6000,note_on,30,0,1,,62,64,0
6000,note_off,30,0,2,,81,64,0
6030,note_off,30,0,2,,65,64,0
6030,note_on,0,0,2,,81,64,0
6060,note_off,30,0,2,,81,64,0
6060,note_on,0,0,2,,80,64,0
6090,note_off,30,0,2,,80,64,0
6090,note_on,0,0,2,,81,64,0
6120,note_on,0,0,1,,60,64,0
6120,note_on,0,0,1,,64,64,0
6120,note_off,0,0,1,,65,64,0
6120,note_off,120,0,1,,62,64,0
6120,note_off,30,0,2,,81,64,0
6120,note_on,0,0,2,,82,64,0
6150,note_on,0,0,2,,90,64,0
6150,note_off,30,0,2,,82,64,0
6180,note_on,0,0,2,,90,64,0
6180,note_off,30,0,2,,90,64,0
6195,note_off,15,0,2,,90,64,0
6210,note_on,15,0,2,,90,64,0
6225,note_off,15,0,2,,90,64,0
6240,note_on,15,0,2,,71,64,0
6240,note_off,120,0,1,,60,64,0
6240,note_off,0,0,1,,64,64,0
6240,note_on,0,0,1,,59,64,0
6240,note_on,0,0,1,,63,64,0
6270,note_on,0,0,2,,78,64,0
6270,note_off,30,0,2,,71,64,0
6300,note_on,0,0,2,,75,64,0
6300,note_off,30,0,2,,78,64,0
6330,note_off,30,0,2,,75,64,0
6330,note_on,0,0,2,,71,64,0
6360,note_off,0,0,1,,63,64,0
6360,note_off,120,0,1,,59,64,0
6360,note_on,0,0,2,,70,64,0
6360,note_on,0,0,1,,61,64,0
6360,note_off,30,0,2,,71,64,0
6360,note_on,0,0,1,,64,64,0
6390,note_off,30,0,1,,61,64,0
6390,note_on,0,0,2,,79,64,0
6390,note_off,30,0,2,,70,64,0
6390,note_off,0,0,1,,64,64,0
6420,note_on,30,0,1,,63,64,0
6420,note_on,0,0,1,,66,64,0
6420,note_on,0,0,2,,69,64,0
6420,note_off,30,0,2,,79,64,0
6450,note_off,30,0,1,,63,64,0
6450,note_off,0,0,1,,66,64,0
6450,note_off,30,0,2,,69,64,0
6450,note_on,0,0,2,,83,64,0
6480,note_off,30,0,2,,83,64,0
6480,note_on,30,0,1,,64,64,0
6480,note_on,0,0,1,,68,64,0
6510,note_on,30,0,2,,83,64,0
6540,note_on,0,0,2,,80,64,0
6540,note_off,30,0,2,,83,64,0
6570,note_on,0,0,2,,75,64,0
6570,note_off,30,0,2,,80,64,0
6600,note_off,30,0,2,,75,64,0
6600,note_off,0,0,1,,68,64,0
6600,note_on,0,0,1,,67,64,0
6600,note_on,0,0,1,,64,64,0
6600,note_on,0,0,2,,76,64,0
6600,note_off,120,0,1,,64,64,0
6630,note_on,0,0,2,,91,64,0
6630,note_off,30,0,2,,76,64,0
6660,note_on,0,0,1,,71,64,0
6660,note_on,0,0,1,,65,64,0
6660,note_off,0,0,1,,67,64,0
6660,note_off,60,0,1,,64,64,0
6660,note_on,0,0,2,,91,64,0
6660,note_off,30,0,2,,91,64,0
6675,note_off,15,0,2,,91,64,0
6690,note_on,15,0,2,,91,64,0
6705,note_off,15,0,2,,91,64,0
6720,note_off,0,0,1,,71,64,0
6720,note_on,0,0,1,,72,64,0
6720,note_on,0,0,1,,67,64,0
6720,note_on,0,0,1,,64,64,0
6720,note_on,15,0,2,,91,64,0
6720,note_off,60,0,1,,65,64,0
6750,note_off,30,0,2,,91,64,0
6750,note_on,0,0,2,,79,64,0
6780,note_on,0,0,2,,81,64,0
6780,note_off,30,0,2,,79,64,0
6810,note_on,0,0,2,,82,64,0
6810,note_off,30,0,2,,81,64,0
6840,note_on,0,0,2,,81,64,0
6840,note_off,120,0,1,,64,64,0
6840,note_off,0,0,1,,67,64,0
6840,note_off,0,0,1,,72,64,0
6840,note_on,0,0,1,,64,64,0
6840,note_on,0,0,1,,69,64,0
6840,note_on,0,0,1,,73,64,0
6840,note_off,30,0,2,,82,64,0
6870,note_off,30,0,2,,81,64,0
6870,note_on,0,0,2,,80,64,0
6900,note_off,60,0,1,,64,64,0
6900,note_off,0,0,1,,73,64,0
6900,note_on,0,0,1,,64,64,0
6900,note_on,0,0,1,,70,64,0
6900,note_on,0,0,1,,73,64,0
6900,note_off,30,0,2,,80,64,0
6900,note_off,0,0,1,,69,64,0
6900,note_on,0,0,2,,79,64,0
6930,note_off,30,0,2,,79,64,0
6930,note_on,0,0,2,,76,64,0
6960,note_on,0,0,2,,74,64,0
6960,note_on,0,0,1,,66,64,0
6960,note_off,0,0,1,,73,64,0
6960,note_off,0,0,1,,70,64,0
6960,note_off,60,0,1,,64,64,0
6960,note_on,0,0,1,,74,64,0
6960,note_on,0,0,1,,69,64,0
6960,note_off,30,0,2,,76,64,0
6990,note_on,0,0,2,,81,64,0
6990,note_off,30,0,2,,74,64,0
7020,note_off,30,0,2,,81,64,0
7020,note_on,0,0,2,,86,64,0
7050,note_off,30,0,2,,86,64,0
7050,note_on,0,0,2,,84,64,0
7080,note_on,0,0,1,,75,64,0
7080,note_off,0,0,1,,69,64,0
7080,note_off,0,0,1,,74,64,0
7080,note_on,0,0,1,,65,64,0
7080,note_on,0,0,1,,71,64,0
7080,note_off,30,0,2,,84,64,0
7080,note_on,0,0,2,,84,64,0
7080,note_off,120,0,1,,66,64,0
7110,note_off,30,0,2,,84,64,0
7110,note_on,0,0,2,,83,64,0
7140,note_on,0,0,2,,83,64,0
7140,note_off,30,0,2,,83,64,0
7140,note_off,0,0,1,,75,64,0
7140,note_on,0,0,1,,65,64,0
7140,note_off,0,0,1,,71,64,0
7140,note_on,0,0,1,,72,64,0
7140,note_on,0,0,1,,74,64,0
7140,note_off,60,0,1,,65,64,0
7170,note_on,0,0,2,,81,64,0
7170,note_off,30,0,2,,83,64,0
7200,note_off,0,0,1,,74,64,0
7200,note_on,0,0,2,,81,64,0
7200,note_off,30,0,2,,81,64,0
7200,note_off,60,0,1,,65,64,0
7200,note_off,0,0,1,,72,64,0
7200,note_on,0,0,1,,64,64,0
7200,note_on,0,0,1,,69,64,0
7200,note_on,0,0,1,,76,64,0
7200,note_on,0,0,1,,72,64,0
7230,note_off,30,0,2,,81,64,0
7230,note_on,0,0,2,,96,64,0
7260,note_off,30,0,2,,96,64,0
7260,note_on,0,0,2,,95,64,0
7290,note_off,30,0,2,,95,64,0
7290,note_on,0,0,2,,93,64,0
7320,note_off,30,0,2,,93,64,0
7320,note_on,0,0,2,,92,64,0
7320,note_off,120,0,1,,64,64,0
7320,note_off,0,0,1,,72,64,0
7320,note_off,0,0,1,,76,64,0
7320,note_on,0,0,1,,71,64,0
7320,note_on,0,0,1,,74,64,0
7320,note_on,0,0,1,,62,64,0
7320,note_on,0,0,1,,77,64,0
7320,note_off,0,0,1,,69,64,0
7350,note_on,0,0,2,,89,64,0
7350,note_off,30,0,2,,92,64,0
7380,note_off,0,0,1,,77,64,0
7380,note_off,30,0,2,,89,64,0
7380,note_on,0,0,1,,64,64,0
7380,note_on,0,0,1,,76,64,0
7380,note_off,60,0,1,,62,64,0
7380,note_on,0,0,2,,86,64,0
7410,note_on,0,0,2,,83,64,0
7410,note_off,30,0,2,,86,64,0
7440,note_on,0,0,1,,72,64,0
7440,note_on,0,0,1,,76,64,0
7440,note_off,30,0,2,,83,64,0
7440,note_on,0,0,2,,81,64,0
7440,note_on,0,0,1,,69,64,0
7440,note_off,0,0,1,,76,64,0
7440,note_off,0,0,1,,64,64,0
7440,note_off,0,0,1,,74,64,0
7440,note_off,60,0,1,,71,64,0
7470,note_on,0,0,2,,83,64,0
7470,note_off,30,0,2,,81,64,0
7500,note_on,0,0,2,,84,64,0
7500,note_off,30,0,2,,83,64,0
7530,note_off,30,0,2,,84,64,0
7530,note_on,0,0,2,,80,64,0
7560,note_off,0,0,1,,76,64,0
7560,note_on,0,0,2,,81,64,0
7560,note_off,30,0,2,,80,64,0
7560,note_off,120,0,1,,69,64,0
7560,note_off,0,0,1,,72,64,0
7590,note_off,30,0,2,,81,64,0
7590,note_on,0,0,2,,76,64,0
7620,note_on,0,0,2,,72,64,0
7620,note_off,30,0,2,,76,64,0
7650,note_off,30,0,2,,72,64,0
7650,note_on,0,0,2,,69,64,0
7680,note_off,30,0,2,,69,64,0
7680,end_of_track,7670,1,0,,,,
7680,end_of_track,120,1,1,,,,
7680,end_of_track,0,1,2,,,,
