tick,type,time,meta,track,frame_rate,hours,minutes,seconds,frames,sub_frames,port,data,numerator,denominator,clocks_per_click,notated_32nd_notes_per_beat,key,tempo,program,channel,control,value,note,velocity
0,track_name,0,1,0,,,,,,,,,,,,,,,,,,,,
0,track_name,0,1,2,,,,,,,,,,,,,,,,,,,,
0,track_name,0,1,1,,,,,,,,,,,,,,,,,,,,
0,midi_port,0,1,1,,,,,,,0,,,,,,,,,,,,,
0,end_of_track,0,1,0,,,,,,,,,,,,,,,,,,,,
0,marker,0,1,0,,,,,,,,,,,,,,,,,,,,
0,set_tempo,0,1,0,,,,,,,,,,,,,,600000,,,,,,
0,key_signature,0,1,0,,,,,,,,,,,,,C,,,,,,,
0,midi_port,0,1,2,,,,,,,0,,,,,,,,,,,,,
0,sysex,0,0,0,,,,,,,,"(126, 127, 9, 1)",,,,,,,,,,,,
0,time_signature,0,1,0,,,,,,,,,4,4,24,8,,,,,,,,
0,copyright,0,1,0,,,,,,,,,,,,,,,,,,,,
0,track_name,0,1,0,,,,,,,,,,,,,,,,,,,,
0,midi_port,0,1,0,,,,,,,0,,,,,,,,,,,,,
0,smpte_offset,0,1,0,25,32,0,3,0,0,,,,,,,,,,,,,,
0,midi_port,0,1,0,,,,,,,0,,,,,,,,,,,,,
122,program_change,122,0,2,,,,,,,,,,,,,,,0,0,,,,
122,program_change,122,0,1,,,,,,,,,,,,,,,0,0,,,,
123,control_change,1,0,1,,,,,,,,,,,,,,,,0,7,125,,
123,control_change,1,0,2,,,,,,,,,,,,,,,,0,7,125,,
571,note_on,448,0,1,,,,,,,,,,,,,,,,0,,,46,44
572,note_on,1,0,1,,,,,,,,,,,,,,,,0,,,34,39
572,note_on,0,0,1,,,,,,,,,,,,,,,,0,,,41,44
586,control_change,14,0,1,,,,,,,,,,,,,,,,0,64,127,,
631,note_on,45,0,1,,,,,,,,,,,,,,,,0,,,62,40
633,note_on,2,0,1,,,,,,,,,,,,,,,,0,,,65,54
641,note_on,8,0,1,,,,,,,,,,,,,,,,0,,,46,0
645,note_on,4,0,1,,,,,,,,,,,,,,,,0,,,34,0
685,note_on,40,0,1,,,,,,,,,,,,,,,,0,,,70,69
706,note_on,21,0,1,,,,,,,,,,,,,,,,0,,,41,0
743,note_on,37,0,1,,,,,,,,,,,,,,,,0,,,74,51
746,note_on,3,0,1,,,,,,,,,,,,,,,,0,,,65,43
770,note_on,24,0,1,,,,,,,,,,,,,,,,0,,,62,0
786,note_on,16,0,1,,,,,,,,,,,,,,,,0,,,65,0
799,note_on,13,0,1,,,,,,,,,,,,,,,,0,,,70,50
825,note_on,26,0,1,,,,,,,,,,,,,,,,0,,,70,0
834,note_on,9,0,1,,,,,,,,,,,,,,,,0,,,74,0
836,note_on,2,0,1,,,,,,,,,,,,,,,,0,,,65,0
860,note_on,24,0,1,,,,,,,,,,,,,,,,0,,,65,54
866,note_on,6,0,1,,,,,,,,,,,,,,,,0,,,70,0
868,note_on,2,0,1,,,,,,,,,,,,,,,,0,,,65,0
913,note_on,45,0,1,,,,,,,,,,,,,,,,0,,,34,56
916,note_on,3,0,1,,,,,,,,,,,,,,,,0,,,46,48
918,note_on,2,0,1,,,,,,,,,,,,,,,,0,,,41,51
943,control_change,25,0,1,,,,,,,,,,,,,,,,0,64,0,,
976,note_on,33,0,1,,,,,,,,,,,,,,,,0,,,62,47
978,note_on,2,0,1,,,,,,,,,,,,,,,,0,,,65,56
980,control_change,2,0,1,,,,,,,,,,,,,,,,0,64,127,,
993,note_on,13,0,1,,,,,,,,,,,,,,,,0,,,34,0
994,note_on,1,0,1,,,,,,,,,,,,,,,,0,,,46,0
1028,note_on,34,0,1,,,,,,,,,,,,,,,,0,,,70,59
1061,note_on,33,0,1,,,,,,,,,,,,,,,,0,,,41,0
1084,note_on,23,0,1,,,,,,,,,,,,,,,,0,,,74,50
1089,note_on,5,0,1,,,,,,,,,,,,,,,,0,,,65,27
1112,note_on,989,0,2,,,,,,,,,,,,,,,,0,,,56,11
1112,note_on,23,0,1,,,,,,,,,,,,,,,,0,,,62,0
1123,note_on,11,0,1,,,,,,,,,,,,,,,,0,,,65,0
1132,note_on,9,0,1,,,,,,,,,,,,,,,,0,,,70,0
1136,note_on,4,0,1,,,,,,,,,,,,,,,,0,,,74,0
1137,note_on,25,0,2,,,,,,,,,,,,,,,,0,,,56,0
1145,note_on,9,0,1,,,,,,,,,,,,,,,,0,,,70,61
1200,note_on,55,0,1,,,,,,,,,,,,,,,,0,,,62,51
1203,note_on,3,0,1,,,,,,,,,,,,,,,,0,,,65,67
1207,note_on,4,0,1,,,,,,,,,,,,,,,,0,,,65,0
1209,note_on,2,0,1,,,,,,,,,,,,,,,,0,,,70,0
1213,note_on,4,0,1,,,,,,,,,,,,,,,,0,,,62,0
1217,note_on,4,0,1,,,,,,,,,,,,,,,,0,,,65,0
1260,note_on,43,0,1,,,,,,,,,,,,,,,,0,,,34,62
1263,note_on,3,0,1,,,,,,,,,,,,,,,,0,,,46,47
1265,note_on,2,0,1,,,,,,,,,,,,,,,,0,,,41,56
1283,control_change,18,0,1,,,,,,,,,,,,,,,,0,64,0,,
1318,control_change,35,0,1,,,,,,,,,,,,,,,,0,64,127,,
1319,note_on,1,0,1,,,,,,,,,,,,,,,,0,,,70,71
1320,note_on,1,0,1,,,,,,,,,,,,,,,,0,,,65,61
1336,note_on,16,0,1,,,,,,,,,,,,,,,,0,,,34,0
1345,note_on,9,0,1,,,,,,,,,,,,,,,,0,,,46,0
1373,note_on,28,0,1,,,,,,,,,,,,,,,,0,,,74,58
1374,note_on,1,0,1,,,,,,,,,,,,,,,,0,,,65,44
1389,note_on,15,0,1,,,,,,,,,,,,,,,,0,,,41,0
1404,note_on,15,0,1,,,,,,,,,,,,,,,,0,,,70,0
1428,note_on,24,0,1,,,,,,,,,,,,,,,,0,,,70,66
1432,note_on,4,0,1,,,,,,,,,,,,,,,,0,,,77,56
1468,note_on,36,0,1,,,,,,,,,,,,,,,,0,,,65,0
1485,note_on,17,0,1,,,,,,,,,,,,,,,,0,,,74,0
1490,note_on,5,0,1,,,,,,,,,,,,,,,,0,,,74,45
1533,note_on,43,0,1,,,,,,,,,,,,,,,,0,,,65,0
1538,note_on,5,0,1,,,,,,,,,,,,,,,,0,,,70,0
1542,note_on,4,0,1,,,,,,,,,,,,,,,,0,,,77,0
1547,note_on,5,0,1,,,,,,,,,,,,,,,,0,,,70,59
1549,note_on,2,0,1,,,,,,,,,,,,,,,,0,,,65,34
1554,note_on,5,0,1,,,,,,,,,,,,,,,,0,,,74,0
1555,note_on,1,0,1,,,,,,,,,,,,,,,,0,,,70,0
1559,note_on,4,0,1,,,,,,,,,,,,,,,,0,,,65,0
1600,note_on,41,0,1,,,,,,,,,,,,,,,,0,,,34,62
1601,note_on,1,0,1,,,,,,,,,,,,,,,,0,,,46,57
1604,note_on,3,0,1,,,,,,,,,,,,,,,,0,,,41,51
1662,note_on,58,0,1,,,,,,,,,,,,,,,,0,,,68,61
1663,note_on,1,0,1,,,,,,,,,,,,,,,,0,,,74,69
1682,note_on,19,0,1,,,,,,,,,,,,,,,,0,,,34,0
1691,note_on,9,0,1,,,,,,,,,,,,,,,,0,,,46,0
1713,note_on,22,0,1,,,,,,,,,,,,,,,,0,,,68,54
1717,note_on,4,0,1,,,,,,,,,,,,,,,,0,,,77,54
1740,note_on,23,0,1,,,,,,,,,,,,,,,,0,,,41,0
1752,note_on,12,0,1,,,,,,,,,,,,,,,,0,,,68,0
1773,note_on,21,0,1,,,,,,,,,,,,,,,,0,,,80,52
1775,note_on,2,0,1,,,,,,,,,,,,,,,,0,,,74,58
1782,note_on,7,0,1,,,,,,,,,,,,,,,,0,,,68,28
1807,note_on,25,0,1,,,,,,,,,,,,,,,,0,,,74,0
1827,note_on,20,0,1,,,,,,,,,,,,,,,,0,,,68,0
1830,note_on,3,0,1,,,,,,,,,,,,,,,,0,,,77,0
1835,note_on,5,0,1,,,,,,,,,,,,,,,,0,,,77,43
1847,note_on,12,0,1,,,,,,,,,,,,,,,,0,,,80,0
1852,note_on,5,0,1,,,,,,,,,,,,,,,,0,,,74,0
1854,note_on,2,0,1,,,,,,,,,,,,,,,,0,,,68,0
1889,note_on,35,0,1,,,,,,,,,,,,,,,,0,,,74,60
1890,note_on,1,0,1,,,,,,,,,,,,,,,,0,,,77,0
1891,note_on,1,0,1,,,,,,,,,,,,,,,,0,,,68,28
1896,note_on,5,0,1,,,,,,,,,,,,,,,,0,,,74,0
1911,note_on,15,0,1,,,,,,,,,,,,,,,,0,,,68,0
1942,note_on,31,0,1,,,,,,,,,,,,,,,,0,,,34,61
1943,note_on,1,0,1,,,,,,,,,,,,,,,,0,,,46,56
1945,note_on,2,0,1,,,,,,,,,,,,,,,,0,,,41,55
1955,control_change,10,0,1,,,,,,,,,,,,,,,,0,64,0,,
1994,control_change,39,0,1,,,,,,,,,,,,,,,,0,64,127,,
2001,note_on,7,0,1,,,,,,,,,,,,,,,,0,,,70,62
2005,note_on,4,0,1,,,,,,,,,,,,,,,,0,,,67,34
2017,note_on,12,0,1,,,,,,,,,,,,,,,,0,,,34,0
2023,note_on,6,0,1,,,,,,,,,,,,,,,,0,,,46,0
2055,note_on,32,0,1,,,,,,,,,,,,,,,,0,,,70,57
2057,note_on,2,0,1,,,,,,,,,,,,,,,,0,,,75,60
2058,note_on,1,0,1,,,,,,,,,,,,,,,,0,,,67,45
2065,note_on,0,0,1,,,,,,,,,,,,,,,,0,,,41,0
2065,note_on,7,0,1,,,,,,,,,,,,,,,,0,,,70,0
2070,note_on,5,0,1,,,,,,,,,,,,,,,,0,,,67,0
2114,note_on,0,0,1,,,,,,,,,,,,,,,,0,,,67,46
2114,note_on,44,0,1,,,,,,,,,,,,,,,,0,,,79,47
2115,note_on,1,0,1,,,,,,,,,,,,,,,,0,,,75,42
2130,note_on,15,0,1,,,,,,,,,,,,,,,,0,,,70,0
2131,note_on,1,0,1,,,,,,,,,,,,,,,,0,,,75,0
2133,note_on,2,0,1,,,,,,,,,,,,,,,,0,,,67,0
2174,note_on,41,0,1,,,,,,,,,,,,,,,,0,,,75,51
2225,note_on,51,0,1,,,,,,,,,,,,,,,,0,,,79,0
2232,note_on,7,0,1,,,,,,,,,,,,,,,,0,,,70,52
2234,note_on,2,0,1,,,,,,,,,,,,,,,,0,,,67,0
2236,note_on,2,0,1,,,,,,,,,,,,,,,,0,,,75,0
2249,note_on,13,0,1,,,,,,,,,,,,,,,,0,,,75,0
2249,note_on,0,0,1,,,,,,,,,,,,,,,,0,,,70,0
2289,note_on,40,0,1,,,,,,,,,,,,,,,,0,,,34,56
2290,note_on,1,0,1,,,,,,,,,,,,,,,,0,,,46,51
2292,note_on,2,0,1,,,,,,,,,,,,,,,,0,,,41,40
2310,control_change,18,0,1,,,,,,,,,,,,,,,,0,64,0,,
2342,control_change,32,0,1,,,,,,,,,,,,,,,,0,64,127,,
2350,note_on,8,0,1,,,,,,,,,,,,,,,,0,,,66,50
2353,note_on,3,0,1,,,,,,,,,,,,,,,,0,,,69,53
2359,note_on,6,0,1,,,,,,,,,,,,,,,,0,,,34,0
2360,note_on,1,0,1,,,,,,,,,,,,,,,,0,,,46,0
2405,note_on,45,0,1,,,,,,,,,,,,,,,,0,,,75,63
2430,note_on,25,0,1,,,,,,,,,,,,,,,,0,,,41,0
2464,note_on,34,0,1,,,,,,,,,,,,,,,,0,,,78,42
2470,note_on,6,0,1,,,,,,,,,,,,,,,,0,,,75,28
2478,note_on,8,0,1,,,,,,,,,,,,,,,,0,,,66,0
2520,note_on,42,0,1,,,,,,,,,,,,,,,,0,,,69,0
2521,note_on,1,0,1,,,,,,,,,,,,,,,,0,,,75,57
2563,note_on,42,0,1,,,,,,,,,,,,,,,,0,,,75,0
2570,note_on,7,0,1,,,,,,,,,,,,,,,,0,,,78,0
2571,note_on,1,0,1,,,,,,,,,,,,,,,,0,,,75,0
2583,note_on,12,0,1,,,,,,,,,,,,,,,,0,,,69,51
2586,note_on,3,0,1,,,,,,,,,,,,,,,,0,,,75,0
2589,note_on,3,0,1,,,,,,,,,,,,,,,,0,,,69,0
2631,note_on,42,0,1,,,,,,,,,,,,,,,,0,,,34,57
2633,note_on,2,0,1,,,,,,,,,,,,,,,,0,,,41,51
2634,note_on,1,0,1,,,,,,,,,,,,,,,,0,,,46,45
2655,control_change,21,0,1,,,,,,,,,,,,,,,,0,64,0,,
2691,note_on,36,0,1,,,,,,,,,,,,,,,,0,,,65,58
2692,note_on,1,0,1,,,,,,,,,,,,,,,,0,,,70,57
2698,control_change,6,0,1,,,,,,,,,,,,,,,,0,64,127,,
2712,note_on,14,0,1,,,,,,,,,,,,,,,,0,,,34,0
2716,note_on,4,0,1,,,,,,,,,,,,,,,,0,,,41,0
2750,note_on,34,0,1,,,,,,,,,,,,,,,,0,,,74,47
2751,note_on,1,0,1,,,,,,,,,,,,,,,,0,,,70,33
2752,note_on,1,0,1,,,,,,,,,,,,,,,,0,,,65,24
2765,note_on,13,0,1,,,,,,,,,,,,,,,,0,,,46,0
2771,note_on,6,0,1,,,,,,,,,,,,,,,,0,,,65,0
2782,note_on,11,0,1,,,,,,,,,,,,,,,,0,,,70,0
2804,note_on,22,0,1,,,,,,,,,,,,,,,,0,,,70,53
2808,note_on,4,0,1,,,,,,,,,,,,,,,,0,,,77,42
2809,note_on,1,0,1,,,,,,,,,,,,,,,,0,,,65,43
2832,note_on,23,0,1,,,,,,,,,,,,,,,,0,,,74,0
2861,note_on,29,0,1,,,,,,,,,,,,,,,,0,,,70,0
2868,note_on,7,0,1,,,,,,,,,,,,,,,,0,,,74,44
2877,note_on,9,0,1,,,,,,,,,,,,,,,,0,,,65,0
2897,note_on,20,0,1,,,,,,,,,,,,,,,,0,,,70,0
2911,note_on,14,0,1,,,,,,,,,,,,,,,,0,,,77,0
2913,note_on,2,0,1,,,,,,,,,,,,,,,,0,,,65,0
2918,note_on,5,0,1,,,,,,,,,,,,,,,,0,,,70,57
2922,note_on,4,0,1,,,,,,,,,,,,,,,,0,,,65,41
2923,note_on,1,0,1,,,,,,,,,,,,,,,,0,,,74,0
2933,note_on,10,0,1,,,,,,,,,,,,,,,,0,,,70,0
2938,note_on,5,0,1,,,,,,,,,,,,,,,,0,,,65,0
2970,note_on,32,0,1,,,,,,,,,,,,,,,,0,,,34,53
2971,note_on,1,0,1,,,,,,,,,,,,,,,,0,,,46,47
2971,note_on,0,0,1,,,,,,,,,,,,,,,,0,,,41,48
2989,control_change,18,0,1,,,,,,,,,,,,,,,,0,64,0,,
2997,control_change,8,0,1,,,,,,,,,,,,,,,,0,64,127,,
3033,note_on,36,0,1,,,,,,,,,,,,,,,,0,,,65,51
3034,note_on,1,0,1,,,,,,,,,,,,,,,,0,,,62,24
3042,note_on,8,0,1,,,,,,,,,,,,,,,,0,,,34,0
3045,note_on,3,0,1,,,,,,,,,,,,,,,,0,,,46,0
3084,note_on,39,0,1,,,,,,,,,,,,,,,,0,,,70,54
3086,note_on,2,0,1,,,,,,,,,,,,,,,,0,,,65,37
3095,note_on,9,0,1,,,,,,,,,,,,,,,,0,,,41,0
3113,note_on,18,0,1,,,,,,,,,,,,,,,,0,,,65,0
3141,note_on,28,0,1,,,,,,,,,,,,,,,,0,,,74,24
3142,note_on,1,0,1,,,,,,,,,,,,,,,,0,,,65,44
3156,note_on,14,0,1,,,,,,,,,,,,,,,,0,,,62,0
3165,note_on,9,0,1,,,,,,,,,,,,,,,,0,,,70,0
3187,note_on,22,0,1,,,,,,,,,,,,,,,,0,,,65,0
3188,note_on,1,0,1,,,,,,,,,,,,,,,,0,,,74,0
3188,note_on,0,0,1,,,,,,,,,,,,,,,,0,,,65,0
3200,note_on,12,0,1,,,,,,,,,,,,,,,,0,,,70,45
3257,note_on,57,0,1,,,,,,,,,,,,,,,,0,,,62,46
3260,note_on,3,0,1,,,,,,,,,,,,,,,,0,,,65,57
3261,note_on,1,0,1,,,,,,,,,,,,,,,,0,,,70,0
3263,note_on,2,0,1,,,,,,,,,,,,,,,,0,,,62,0
3266,note_on,3,0,1,,,,,,,,,,,,,,,,0,,,65,0
3311,note_on,2174,0,2,,,,,,,,,,,,,,,,0,,,70,92
3314,note_on,48,0,1,,,,,,,,,,,,,,,,0,,,34,62
3316,note_on,2,0,1,,,,,,,,,,,,,,,,0,,,46,54
3320,note_on,4,0,1,,,,,,,,,,,,,,,,0,,,41,54
3337,control_change,17,0,1,,,,,,,,,,,,,,,,0,64,0,,
3376,control_change,39,0,1,,,,,,,,,,,,,,,,0,64,127,,
3377,note_on,1,0,1,,,,,,,,,,,,,,,,0,,,65,58
3377,note_on,0,0,1,,,,,,,,,,,,,,,,0,,,62,50
3390,note_on,13,0,1,,,,,,,,,,,,,,,,0,,,34,0
3394,note_on,4,0,1,,,,,,,,,,,,,,,,0,,,46,0
3433,note_on,39,0,1,,,,,,,,,,,,,,,,0,,,70,52
3452,note_on,19,0,1,,,,,,,,,,,,,,,,0,,,41,0
3490,note_on,38,0,1,,,,,,,,,,,,,,,,0,,,74,69
3495,note_on,5,0,1,,,,,,,,,,,,,,,,0,,,62,30
3535,note_on,40,0,1,,,,,,,,,,,,,,,,0,,,65,0
3540,note_on,5,0,1,,,,,,,,,,,,,,,,0,,,70,59
3554,note_on,14,0,1,,,,,,,,,,,,,,,,0,,,62,0
3560,note_on,6,0,1,,,,,,,,,,,,,,,,0,,,70,0
3567,note_on,7,0,1,,,,,,,,,,,,,,,,0,,,74,0
3573,note_on,6,0,1,,,,,,,,,,,,,,,,0,,,62,0
3587,note_on,14,0,1,,,,,,,,,,,,,,,,0,,,70,0
3600,note_on,13,0,1,,,,,,,,,,,,,,,,0,,,65,59
3608,note_on,8,0,1,,,,,,,,,,,,,,,,0,,,65,0
3659,note_on,51,0,1,,,,,,,,,,,,,,,,0,,,31,67
3660,note_on,1,0,1,,,,,,,,,,,,,,,,0,,,43,63
3670,control_change,10,0,1,,,,,,,,,,,,,,,,0,64,0,,
3708,control_change,38,0,1,,,,,,,,,,,,,,,,0,64,127,,
3719,note_on,11,0,1,,,,,,,,,,,,,,,,0,,,64,72
3721,note_on,2,0,1,,,,,,,,,,,,,,,,0,,,62,46
3725,note_on,4,0,1,,,,,,,,,,,,,,,,0,,,31,0
3727,note_on,2,0,1,,,,,,,,,,,,,,,,0,,,43,0
3775,note_on,48,0,1,,,,,,,,,,,,,,,,0,,,70,61
3778,note_on,3,0,1,,,,,,,,,,,,,,,,0,,,62,45
3787,note_on,9,0,1,,,,,,,,,,,,,,,,0,,,64,0
3799,note_on,12,0,1,,,,,,,,,,,,,,,,0,,,62,0
3836,note_on,37,0,1,,,,,,,,,,,,,,,,0,,,62,49
3837,note_on,1,0,1,,,,,,,,,,,,,,,,0,,,74,49
3856,note_on,545,0,2,,,,,,,,,,,,,,,,0,,,69,105
3858,note_on,2,0,2,,,,,,,,,,,,,,,,0,,,70,0
3861,note_on,24,0,1,,,,,,,,,,,,,,,,0,,,70,0
3874,note_on,13,0,1,,,,,,,,,,,,,,,,0,,,62,0
3892,note_on,18,0,1,,,,,,,,,,,,,,,,0,,,70,51
3920,note_on,28,0,1,,,,,,,,,,,,,,,,0,,,62,0
3930,note_on,10,0,1,,,,,,,,,,,,,,,,0,,,74,0
3931,note_on,73,0,2,,,,,,,,,,,,,,,,0,,,69,0
3941,note_on,10,0,2,,,,,,,,,,,,,,,,0,,,70,106
3952,note_on,22,0,1,,,,,,,,,,,,,,,,0,,,70,0
3953,note_on,1,0,1,,,,,,,,,,,,,,,,0,,,62,35
3961,note_on,8,0,1,,,,,,,,,,,,,,,,0,,,62,0
4007,note_on,46,0,1,,,,,,,,,,,,,,,,0,,,29,63
4007,note_on,66,0,2,,,,,,,,,,,,,,,,0,,,70,0
4011,note_on,4,0,1,,,,,,,,,,,,,,,,0,,,41,46
4016,note_on,9,0,2,,,,,,,,,,,,,,,,0,,,74,108
4028,control_change,17,0,1,,,,,,,,,,,,,,,,0,64,0,,
4067,control_change,39,0,1,,,,,,,,,,,,,,,,0,64,127,,
4073,note_on,6,0,1,,,,,,,,,,,,,,,,0,,,62,43
4073,note_on,0,0,1,,,,,,,,,,,,,,,,0,,,65,55
4083,note_on,10,0,1,,,,,,,,,,,,,,,,0,,,29,0
4086,note_on,3,0,1,,,,,,,,,,,,,,,,0,,,41,0
4123,note_on,37,0,1,,,,,,,,,,,,,,,,0,,,70,57
4162,note_on,39,0,1,,,,,,,,,,,,,,,,0,,,62,0
4183,note_on,21,0,1,,,,,,,,,,,,,,,,0,,,65,55
4184,note_on,1,0,1,,,,,,,,,,,,,,,,0,,,74,49
4210,note_on,26,0,1,,,,,,,,,,,,,,,,0,,,65,0
4232,note_on,22,0,1,,,,,,,,,,,,,,,,0,,,70,0
4239,note_on,7,0,1,,,,,,,,,,,,,,,,0,,,70,62
4294,note_on,55,0,1,,,,,,,,,,,,,,,,0,,,62,49
4295,note_on,1,0,1,,,,,,,,,,,,,,,,0,,,65,63
4308,note_on,0,0,1,,,,,,,,,,,,,,,,0,,,74,0
4308,note_on,13,0,1,,,,,,,,,,,,,,,,0,,,65,0
4311,note_on,3,0,1,,,,,,,,,,,,,,,,0,,,62,0
4311,note_on,0,0,1,,,,,,,,,,,,,,,,0,,,70,0
4314,note_on,3,0,1,,,,,,,,,,,,,,,,0,,,65,0
4354,note_on,40,0,1,,,,,,,,,,,,,,,,0,,,29,60
4356,note_on,2,0,1,,,,,,,,,,,,,,,,0,,,41,57
4373,control_change,17,0,1,,,,,,,,,,,,,,,,0,64,0,,
4409,control_change,36,0,1,,,,,,,,,,,,,,,,0,64,127,,
4414,note_on,5,0,1,,,,,,,,,,,,,,,,0,,,63,58
4416,note_on,2,0,1,,,,,,,,,,,,,,,,0,,,69,62
4448,note_on,32,0,1,,,,,,,,,,,,,,,,0,,,29,0
4453,note_on,5,0,1,,,,,,,,,,,,,,,,0,,,41,0
4471,note_on,18,0,1,,,,,,,,,,,,,,,,0,,,72,44
4477,note_on,6,0,1,,,,,,,,,,,,,,,,0,,,63,0
4526,note_on,49,0,1,,,,,,,,,,,,,,,,0,,,75,61
4542,note_on,16,0,1,,,,,,,,,,,,,,,,0,,,69,0
4553,note_on,11,0,1,,,,,,,,,,,,,,,,0,,,72,0
4567,note_on,551,0,2,,,,,,,,,,,,,,,,0,,,74,0
4574,note_on,7,0,2,,,,,,,,,,,,,,,,0,,,72,96
4589,note_on,36,0,1,,,,,,,,,,,,,,,,0,,,75,31
4614,note_on,25,0,1,,,,,,,,,,,,,,,,0,,,75,0
4637,note_on,23,0,1,,,,,,,,,,,,,,,,0,,,75,0
4677,note_on,103,0,2,,,,,,,,,,,,,,,,0,,,70,100
4683,note_on,6,0,2,,,,,,,,,,,,,,,,0,,,72,0
4702,note_on,65,0,1,,,,,,,,,,,,,,,,0,,,31,62
4705,note_on,3,0,1,,,,,,,,,,,,,,,,0,,,43,34
4716,control_change,11,0,1,,,,,,,,,,,,,,,,0,64,0,,
4752,control_change,36,0,1,,,,,,,,,,,,,,,,0,64,127,,
4764,note_on,0,0,1,,,,,,,,,,,,,,,,0,,,62,50
4764,note_on,12,0,1,,,,,,,,,,,,,,,,0,,,67,61
4784,note_on,20,0,1,,,,,,,,,,,,,,,,0,,,31,0
4786,note_on,2,0,1,,,,,,,,,,,,,,,,0,,,43,0
4819,note_on,33,0,1,,,,,,,,,,,,,,,,0,,,70,54
4820,note_on,1,0,1,,,,,,,,,,,,,,,,0,,,62,40
4840,note_on,20,0,1,,,,,,,,,,,,,,,,0,,,67,0
4858,note_on,18,0,1,,,,,,,,,,,,,,,,0,,,62,0
4875,note_on,17,0,1,,,,,,,,,,,,,,,,0,,,67,60
4876,note_on,0,0,1,,,,,,,,,,,,,,,,0,,,74,59
4876,note_on,1,0,1,,,,,,,,,,,,,,,,0,,,62,58
4927,note_on,51,0,1,,,,,,,,,,,,,,,,0,,,70,0
4931,note_on,4,0,1,,,,,,,,,,,,,,,,0,,,70,68
4944,note_on,13,0,1,,,,,,,,,,,,,,,,0,,,62,0
4982,note_on,38,0,1,,,,,,,,,,,,,,,,0,,,62,54
4984,note_on,2,0,1,,,,,,,,,,,,,,,,0,,,67,53
4985,note_on,1,0,1,,,,,,,,,,,,,,,,0,,,67,0
4993,note_on,8,0,1,,,,,,,,,,,,,,,,0,,,62,0
5036,note_on,43,0,1,,,,,,,,,,,,,,,,0,,,74,0
5037,note_on,1,0,1,,,,,,,,,,,,,,,,0,,,70,0
5038,note_on,1,0,1,,,,,,,,,,,,,,,,0,,,43,63
5038,note_on,0,0,1,,,,,,,,,,,,,,,,0,,,31,69
5047,note_on,9,0,1,,,,,,,,,,,,,,,,0,,,67,0
5047,note_on,0,0,1,,,,,,,,,,,,,,,,0,,,62,0
5095,note_on,48,0,1,,,,,,,,,,,,,,,,0,,,67,59
5095,note_on,0,0,1,,,,,,,,,,,,,,,,0,,,62,54
5128,note_on,33,0,1,,,,,,,,,,,,,,,,0,,,43,0
5152,note_on,24,0,1,,,,,,,,,,,,,,,,0,,,70,61
5169,note_on,17,0,1,,,,,,,,,,,,,,,,0,,,31,0
5202,note_on,33,0,1,,,,,,,,,,,,,,,,0,,,67,0
5206,note_on,4,0,1,,,,,,,,,,,,,,,,0,,,62,57
5207,note_on,0,0,1,,,,,,,,,,,,,,,,0,,,74,55
5207,note_on,1,0,1,,,,,,,,,,,,,,,,0,,,67,58
5248,note_on,41,0,1,,,,,,,,,,,,,,,,0,,,62,0
5258,note_on,10,0,1,,,,,,,,,,,,,,,,0,,,70,0
5260,note_on,2,0,1,,,,,,,,,,,,,,,,0,,,62,0
5261,note_on,1,0,1,,,,,,,,,,,,,,,,0,,,70,58
5324,note_on,63,0,1,,,,,,,,,,,,,,,,0,,,67,56
5331,note_on,7,0,1,,,,,,,,,,,,,,,,0,,,67,0
5332,note_on,1,0,1,,,,,,,,,,,,,,,,0,,,74,0
5334,note_on,2,0,1,,,,,,,,,,,,,,,,0,,,70,0
5340,note_on,6,0,1,,,,,,,,,,,,,,,,0,,,67,0
5375,note_on,692,0,2,,,,,,,,,,,,,,,,0,,,72,95
5377,note_on,2,0,2,,,,,,,,,,,,,,,,0,,,70,0
5379,note_on,39,0,1,,,,,,,,,,,,,,,,0,,,27,71
5381,note_on,2,0,1,,,,,,,,,,,,,,,,0,,,39,75
5397,control_change,16,0,1,,,,,,,,,,,,,,,,0,64,0,,
5436,control_change,39,0,1,,,,,,,,,,,,,,,,0,64,127,,
5436,note_on,0,0,1,,,,,,,,,,,,,,,,0,,,63,68
5437,note_on,1,0,1,,,,,,,,,,,,,,,,0,,,67,68
5469,note_on,32,0,1,,,,,,,,,,,,,,,,0,,,27,0
5473,note_on,4,0,1,,,,,,,,,,,,,,,,0,,,39,0
5488,note_on,15,0,1,,,,,,,,,,,,,,,,0,,,63,62
5489,note_on,1,0,1,,,,,,,,,,,,,,,,0,,,72,68
5513,note_on,24,0,1,,,,,,,,,,,,,,,,0,,,63,0
5523,note_on,10,0,1,,,,,,,,,,,,,,,,0,,,67,0
5544,note_on,21,0,1,,,,,,,,,,,,,,,,0,,,75,63
5549,note_on,5,0,1,,,,,,,,,,,,,,,,0,,,67,52
5591,note_on,42,0,1,,,,,,,,,,,,,,,,0,,,63,0
5604,note_on,13,0,1,,,,,,,,,,,,,,,,0,,,72,61
5612,note_on,8,0,1,,,,,,,,,,,,,,,,0,,,72,0
5656,note_on,44,0,1,,,,,,,,,,,,,,,,0,,,75,0
5660,note_on,4,0,1,,,,,,,,,,,,,,,,0,,,67,0
5662,note_on,2,0,1,,,,,,,,,,,,,,,,0,,,67,48
5665,note_on,288,0,2,,,,,,,,,,,,,,,,0,,,72,0
5674,note_on,9,0,2,,,,,,,,,,,,,,,,0,,,74,84
5689,note_on,27,0,1,,,,,,,,,,,,,,,,0,,,72,0
5690,note_on,1,0,1,,,,,,,,,,,,,,,,0,,,67,0
5692,note_on,2,0,1,,,,,,,,,,,,,,,,0,,,63,1
5695,note_on,21,0,2,,,,,,,,,,,,,,,,0,,,72,90
5703,note_on,8,0,2,,,,,,,,,,,,,,,,0,,,74,0
5708,note_on,16,0,1,,,,,,,,,,,,,,,,0,,,63,0
5713,note_on,5,0,1,,,,,,,,,,,,,,,,0,,,29,62
5715,note_on,2,0,1,,,,,,,,,,,,,,,,0,,,41,58
5718,note_on,15,0,2,,,,,,,,,,,,,,,,0,,,72,0
5720,note_on,2,0,2,,,,,,,,,,,,,,,,0,,,70,107
5736,control_change,21,0,1,,,,,,,,,,,,,,,,0,64,0,,
5770,control_change,34,0,1,,,,,,,,,,,,,,,,0,64,127,,
5773,note_on,3,0,1,,,,,,,,,,,,,,,,0,,,65,72
5799,note_on,79,0,2,,,,,,,,,,,,,,,,0,,,70,0
5801,note_on,2,0,2,,,,,,,,,,,,,,,,0,,,69,98
5804,note_on,31,0,1,,,,,,,,,,,,,,,,0,,,29,0
5835,note_on,31,0,1,,,,,,,,,,,,,,,,0,,,72,48
5842,note_on,7,0,1,,,,,,,,,,,,,,,,0,,,41,0
5877,note_on,76,0,2,,,,,,,,,,,,,,,,0,,,69,0
5881,note_on,4,0,2,,,,,,,,,,,,,,,,0,,,67,87
5889,note_on,47,0,1,,,,,,,,,,,,,,,,0,,,75,62
5893,note_on,4,0,1,,,,,,,,,,,,,,,,0,,,79,42
5895,note_on,2,0,1,,,,,,,,,,,,,,,,0,,,65,0
5934,note_on,39,0,1,,,,,,,,,,,,,,,,0,,,72,0
5954,note_on,20,0,1,,,,,,,,,,,,,,,,0,,,72,50
5962,note_on,8,0,1,,,,,,,,,,,,,,,,0,,,75,0
5974,note_on,93,0,2,,,,,,,,,,,,,,,,0,,,69,88
5975,note_on,13,0,1,,,,,,,,,,,,,,,,0,,,79,0
5978,note_on,4,0,2,,,,,,,,,,,,,,,,0,,,67,0
6009,note_on,34,0,1,,,,,,,,,,,,,,,,0,,,72,0
6010,note_on,1,0,1,,,,,,,,,,,,,,,,0,,,69,54
6020,note_on,10,0,1,,,,,,,,,,,,,,,,0,,,69,0
6052,note_on,74,0,2,,,,,,,,,,,,,,,,0,,,70,92
6056,note_on,4,0,2,,,,,,,,,,,,,,,,0,,,69,0
6066,note_on,46,0,1,,,,,,,,,,,,,,,,0,,,34,54
6067,note_on,1,0,1,,,,,,,,,,,,,,,,0,,,46,50
6069,note_on,2,0,1,,,,,,,,,,,,,,,,0,,,41,54
6082,control_change,13,0,1,,,,,,,,,,,,,,,,0,64,0,,
6123,control_change,41,0,1,,,,,,,,,,,,,,,,0,64,127,,
6126,note_on,3,0,1,,,,,,,,,,,,,,,,0,,,65,64
6178,note_on,52,0,1,,,,,,,,,,,,,,,,0,,,70,56
6200,note_on,22,0,1,,,,,,,,,,,,,,,,0,,,34,0
6232,note_on,32,0,1,,,,,,,,,,,,,,,,0,,,46,0
6233,note_on,1,0,1,,,,,,,,,,,,,,,,0,,,74,61
6233,note_on,0,0,1,,,,,,,,,,,,,,,,0,,,65,67
6291,note_on,58,0,1,,,,,,,,,,,,,,,,0,,,70,61
6298,note_on,7,0,1,,,,,,,,,,,,,,,,0,,,41,0
6331,note_on,33,0,1,,,,,,,,,,,,,,,,0,,,70,0
6331,note_on,0,0,1,,,,,,,,,,,,,,,,0,,,65,0
6336,note_on,5,0,1,,,,,,,,,,,,,,,,0,,,74,0
6346,note_on,10,0,1,,,,,,,,,,,,,,,,0,,,65,61
6347,note_on,1,0,1,,,,,,,,,,,,,,,,0,,,65,0
6357,note_on,10,0,1,,,,,,,,,,,,,,,,0,,,70,0
6362,note_on,5,0,1,,,,,,,,,,,,,,,,0,,,65,0
6397,note_on,35,0,1,,,,,,,,,,,,,,,,0,,,34,56
6398,note_on,1,0,1,,,,,,,,,,,,,,,,0,,,46,49
6399,note_on,1,0,1,,,,,,,,,,,,,,,,0,,,41,50
6458,note_on,0,0,1,,,,,,,,,,,,,,,,0,,,62,40
6458,note_on,59,0,1,,,,,,,,,,,,,,,,0,,,65,62
6481,note_on,23,0,1,,,,,,,,,,,,,,,,0,,,34,0
6486,note_on,5,0,1,,,,,,,,,,,,,,,,0,,,46,0
6507,note_on,21,0,1,,,,,,,,,,,,,,,,0,,,70,62
6538,note_on,31,0,1,,,,,,,,,,,,,,,,0,,,41,0
6557,note_on,501,0,2,,,,,,,,,,,,,,,,0,,,74,97
6561,note_on,4,0,2,,,,,,,,,,,,,,,,0,,,70,0
6562,note_on,24,0,1,,,,,,,,,,,,,,,,0,,,74,76
6562,note_on,0,0,1,,,,,,,,,,,,,,,,0,,,65,71
6564,note_on,2,0,1,,,,,,,,,,,,,,,,0,,,62,44
6616,note_on,52,0,1,,,,,,,,,,,,,,,,0,,,65,0
6617,note_on,1,0,1,,,,,,,,,,,,,,,,0,,,70,68
6668,note_on,51,0,1,,,,,,,,,,,,,,,,0,,,65,63
6683,note_on,15,0,1,,,,,,,,,,,,,,,,0,,,62,0
6691,note_on,8,0,1,,,,,,,,,,,,,,,,0,,,70,0
6694,note_on,3,0,1,,,,,,,,,,,,,,,,0,,,74,0
6705,note_on,144,0,2,,,,,,,,,,,,,,,,0,,,74,0
6716,note_on,22,0,1,,,,,,,,,,,,,,,,0,,,65,0
6721,note_on,16,0,2,,,,,,,,,,,,,,,,0,,,74,110
6727,note_on,11,0,1,,,,,,,,,,,,,,,,0,,,46,88
6728,note_on,1,0,1,,,,,,,,,,,,,,,,0,,,34,87
6732,note_on,4,0,1,,,,,,,,,,,,,,,,0,,,62,0
6734,note_on,2,0,1,,,,,,,,,,,,,,,,0,,,70,0
6749,control_change,15,0,1,,,,,,,,,,,,,,,,0,64,0,,
6763,note_on,14,0,1,,,,,,,,,,,,,,,,0,,,65,0
6783,note_on,20,0,1,,,,,,,,,,,,,,,,0,,,66,76
6786,control_change,3,0,1,,,,,,,,,,,,,,,,0,64,127,,
6787,note_on,1,0,1,,,,,,,,,,,,,,,,0,,,62,56
6811,note_on,24,0,1,,,,,,,,,,,,,,,,0,,,46,0
6817,note_on,6,0,1,,,,,,,,,,,,,,,,0,,,34,0
6838,note_on,21,0,1,,,,,,,,,,,,,,,,0,,,70,81
6840,note_on,2,0,1,,,,,,,,,,,,,,,,0,,,62,56
6857,note_on,17,0,1,,,,,,,,,,,,,,,,0,,,66,0
6876,note_on,19,0,1,,,,,,,,,,,,,,,,0,,,62,0
6892,note_on,16,0,1,,,,,,,,,,,,,,,,0,,,66,85
6894,note_on,2,0,1,,,,,,,,,,,,,,,,0,,,74,73
6935,note_on,41,0,1,,,,,,,,,,,,,,,,0,,,70,0
6943,note_on,8,0,1,,,,,,,,,,,,,,,,0,,,70,69
6995,note_on,52,0,1,,,,,,,,,,,,,,,,0,,,66,59
7009,note_on,288,0,2,,,,,,,,,,,,,,,,0,,,74,0
7009,note_on,0,0,2,,,,,,,,,,,,,,,,0,,,72,89
7016,note_on,21,0,1,,,,,,,,,,,,,,,,0,,,62,0
7018,note_on,2,0,1,,,,,,,,,,,,,,,,0,,,66,0
7029,note_on,20,0,2,,,,,,,,,,,,,,,,0,,,70,104
7031,note_on,2,0,2,,,,,,,,,,,,,,,,0,,,72,0
7053,note_on,35,0,1,,,,,,,,,,,,,,,,0,,,74,0
7054,note_on,23,0,2,,,,,,,,,,,,,,,,0,,,69,117
7056,note_on,3,0,1,,,,,,,,,,,,,,,,0,,,46,87
7057,note_on,3,0,2,,,,,,,,,,,,,,,,0,,,70,0
7057,note_on,1,0,1,,,,,,,,,,,,,,,,0,,,34,86
7062,note_on,5,0,1,,,,,,,,,,,,,,,,0,,,70,0
7066,note_on,4,0,1,,,,,,,,,,,,,,,,0,,,66,0
7075,control_change,9,0,1,,,,,,,,,,,,,,,,0,64,0,,
7111,control_change,36,0,1,,,,,,,,,,,,,,,,0,64,127,,
7137,note_on,80,0,2,,,,,,,,,,,,,,,,0,,,69,0
7139,note_on,2,0,2,,,,,,,,,,,,,,,,0,,,67,104
7154,note_on,43,0,1,,,,,,,,,,,,,,,,0,,,70,70
7178,note_on,24,0,1,,,,,,,,,,,,,,,,0,,,46,0
7212,note_on,34,0,1,,,,,,,,,,,,,,,,0,,,66,79
7214,note_on,2,0,1,,,,,,,,,,,,,,,,0,,,74,76
7215,note_on,1,0,1,,,,,,,,,,,,,,,,0,,,62,61
7222,note_on,83,0,2,,,,,,,,,,,,,,,,0,,,74,100
7230,note_on,8,0,2,,,,,,,,,,,,,,,,0,,,67,0
7266,note_on,51,0,1,,,,,,,,,,,,,,,,0,,,70,61
7269,note_on,3,0,1,,,,,,,,,,,,,,,,0,,,34,0
7288,note_on,19,0,1,,,,,,,,,,,,,,,,0,,,70,0
7303,note_on,15,0,1,,,,,,,,,,,,,,,,0,,,66,0
7313,note_on,83,0,2,,,,,,,,,,,,,,,,0,,,76,86
7316,note_on,3,0,2,,,,,,,,,,,,,,,,0,,,74,0
7317,note_on,14,0,1,,,,,,,,,,,,,,,,0,,,74,0
7320,note_on,3,0,1,,,,,,,,,,,,,,,,0,,,66,61
7333,note_on,13,0,1,,,,,,,,,,,,,,,,0,,,62,0
7333,note_on,0,0,1,,,,,,,,,,,,,,,,0,,,70,0
7338,note_on,5,0,1,,,,,,,,,,,,,,,,0,,,66,0
7368,note_on,30,0,1,,,,,,,,,,,,,,,,0,,,33,76
7369,note_on,1,0,1,,,,,,,,,,,,,,,,0,,,45,83
7381,control_change,12,0,1,,,,,,,,,,,,,,,,0,64,0,,
7382,note_on,66,0,2,,,,,,,,,,,,,,,,0,,,76,0
7382,note_on,0,0,2,,,,,,,,,,,,,,,,0,,,74,92
7419,control_change,38,0,1,,,,,,,,,,,,,,,,0,64,127,,
7427,note_on,0,0,1,,,,,,,,,,,,,,,,0,,,64,54
7427,note_on,8,0,1,,,,,,,,,,,,,,,,0,,,67,61
7444,note_on,17,0,1,,,,,,,,,,,,,,,,0,,,33,0
7448,note_on,4,0,1,,,,,,,,,,,,,,,,0,,,45,0
7479,note_on,31,0,1,,,,,,,,,,,,,,,,0,,,70,58
7485,note_on,6,0,1,,,,,,,,,,,,,,,,0,,,64,42
7493,note_on,8,0,1,,,,,,,,,,,,,,,,0,,,67,0
7510,note_on,17,0,1,,,,,,,,,,,,,,,,0,,,64,0
7535,note_on,25,0,1,,,,,,,,,,,,,,,,0,,,67,66
7536,note_on,1,0,1,,,,,,,,,,,,,,,,0,,,74,67
7578,note_on,42,0,1,,,,,,,,,,,,,,,,0,,,70,0
7589,note_on,11,0,1,,,,,,,,,,,,,,,,0,,,70,59
7645,note_on,56,0,1,,,,,,,,,,,,,,,,0,,,67,49
7647,note_on,2,0,1,,,,,,,,,,,,,,,,0,,,64,46
7654,note_on,7,0,1,,,,,,,,,,,,,,,,0,,,64,0
7659,note_on,5,0,1,,,,,,,,,,,,,,,,0,,,67,0
7675,note_on,16,0,1,,,,,,,,,,,,,,,,0,,,74,0
7681,note_on,299,0,2,,,,,,,,,,,,,,,,0,,,74,0
7688,note_on,7,0,2,,,,,,,,,,,,,,,,0,,,73,97
7690,note_on,15,0,1,,,,,,,,,,,,,,,,0,,,70,0
7693,note_on,3,0,1,,,,,,,,,,,,,,,,0,,,67,0
7694,note_on,1,0,1,,,,,,,,,,,,,,,,0,,,64,0
7698,note_on,0,0,1,,,,,,,,,,,,,,,,0,,,45,63
7698,note_on,4,0,1,,,,,,,,,,,,,,,,0,,,33,65
7754,note_on,56,0,1,,,,,,,,,,,,,,,,0,,,67,68
7756,note_on,2,0,1,,,,,,,,,,,,,,,,0,,,64,62
7778,note_on,22,0,1,,,,,,,,,,,,,,,,0,,,33,0
7785,note_on,7,0,1,,,,,,,,,,,,,,,,0,,,45,0
7811,note_on,26,0,1,,,,,,,,,,,,,,,,0,,,69,60
7826,note_on,15,0,1,,,,,,,,,,,,,,,,0,,,67,0
7864,note_on,38,0,1,,,,,,,,,,,,,,,,0,,,64,49
7865,note_on,1,0,1,,,,,,,,,,,,,,,,0,,,73,48
7873,note_on,8,0,1,,,,,,,,,,,,,,,,0,,,69,24
7879,note_on,6,0,1,,,,,,,,,,,,,,,,0,,,64,0
7886,note_on,7,0,1,,,,,,,,,,,,,,,,0,,,69,0
7893,note_on,7,0,1,,,,,,,,,,,,,,,,0,,,64,0
7907,note_on,14,0,1,,,,,,,,,,,,,,,,0,,,73,0
7918,note_on,11,0,1,,,,,,,,,,,,,,,,0,,,69,0
7924,note_on,6,0,1,,,,,,,,,,,,,,,,0,,,69,56
7967,note_on,279,0,2,,,,,,,,,,,,,,,,0,,,69,100
7970,note_on,3,0,2,,,,,,,,,,,,,,,,0,,,73,0
7978,note_on,54,0,1,,,,,,,,,,,,,,,,0,,,67,51
7985,note_on,7,0,1,,,,,,,,,,,,,,,,0,,,67,0
7985,note_on,0,0,1,,,,,,,,,,,,,,,,0,,,69,0
8027,note_on,57,0,2,,,,,,,,,,,,,,,,0,,,72,98
8028,note_on,1,0,2,,,,,,,,,,,,,,,,0,,,69,0
8031,note_on,46,0,1,,,,,,,,,,,,,,,,0,,,42,67
8032,note_on,1,0,1,,,,,,,,,,,,,,,,0,,,30,70
8052,control_change,20,0,1,,,,,,,,,,,,,,,,0,64,0,,
8085,note_on,33,0,1,,,,,,,,,,,,,,,,0,,,63,68
8086,note_on,1,0,1,,,,,,,,,,,,,,,,0,,,69,71
8091,control_change,5,0,1,,,,,,,,,,,,,,,,0,64,127,,
8130,note_on,39,0,1,,,,,,,,,,,,,,,,0,,,42,0
8140,note_on,10,0,1,,,,,,,,,,,,,,,,0,,,69,21
8141,note_on,1,0,1,,,,,,,,,,,,,,,,0,,,72,63
8144,note_on,3,0,1,,,,,,,,,,,,,,,,0,,,30,0
8147,note_on,3,0,1,,,,,,,,,,,,,,,,0,,,63,0
8148,note_on,1,0,1,,,,,,,,,,,,,,,,0,,,69,0
8194,note_on,46,0,1,,,,,,,,,,,,,,,,0,,,75,58
8201,note_on,7,0,1,,,,,,,,,,,,,,,,0,,,69,58
8211,note_on,10,0,1,,,,,,,,,,,,,,,,0,,,69,0
8259,note_on,48,0,1,,,,,,,,,,,,,,,,0,,,72,55
8301,note_on,273,0,2,,,,,,,,,,,,,,,,0,,,70,86
8302,note_on,1,0,2,,,,,,,,,,,,,,,,0,,,72,0
8319,note_on,60,0,1,,,,,,,,,,,,,,,,0,,,72,0
8319,note_on,0,0,1,,,,,,,,,,,,,,,,0,,,69,41
8322,note_on,3,0,1,,,,,,,,,,,,,,,,0,,,75,0
8325,note_on,3,0,1,,,,,,,,,,,,,,,,0,,,69,0
8326,note_on,1,0,1,,,,,,,,,,,,,,,,0,,,72,0
8338,note_on,12,0,1,,,,,,,,,,,,,,,,0,,,69,0
8357,note_on,55,0,2,,,,,,,,,,,,,,,,0,,,70,0
8363,note_on,6,0,2,,,,,,,,,,,,,,,,0,,,69,97
8371,note_on,33,0,1,,,,,,,,,,,,,,,,0,,,42,79
8371,note_on,0,0,1,,,,,,,,,,,,,,,,0,,,30,75
8421,note_on,58,0,2,,,,,,,,,,,,,,,,0,,,72,87
8424,note_on,53,0,1,,,,,,,,,,,,,,,,0,,,69,74
8429,note_on,5,0,1,,,,,,,,,,,,,,,,0,,,63,45
8436,note_on,7,0,1,,,,,,,,,,,,,,,,0,,,42,0
8464,note_on,28,0,1,,,,,,,,,,,,,,,,0,,,30,0
8468,note_on,47,0,2,,,,,,,,,,,,,,,,0,,,69,0
8474,note_on,6,0,2,,,,,,,,,,,,,,,,0,,,74,84
8477,note_on,13,0,1,,,,,,,,,,,,,,,,0,,,72,60
8482,note_on,5,0,1,,,,,,,,,,,,,,,,0,,,69,0
8501,note_on,27,0,2,,,,,,,,,,,,,,,,0,,,72,0
8521,note_on,20,0,2,,,,,,,,,,,,,,,,0,,,74,0
8528,note_on,7,0,2,,,,,,,,,,,,,,,,0,,,75,94
8530,note_on,48,0,1,,,,,,,,,,,,,,,,0,,,75,70
8532,note_on,2,0,1,,,,,,,,,,,,,,,,0,,,79,60
8538,note_on,6,0,1,,,,,,,,,,,,,,,,0,,,63,0
8542,note_on,4,0,1,,,,,,,,,,,,,,,,0,,,72,0
8578,note_on,0,0,2,,,,,,,,,,,,,,,,0,,,72,81
8578,note_on,50,0,2,,,,,,,,,,,,,,,,0,,,75,0
8590,note_on,48,0,1,,,,,,,,,,,,,,,,0,,,72,60
8623,note_on,33,0,1,,,,,,,,,,,,,,,,0,,,75,0
8628,note_on,5,0,1,,,,,,,,,,,,,,,,0,,,79,0
8631,note_on,53,0,2,,,,,,,,,,,,,,,,0,,,72,0
8633,note_on,2,0,2,,,,,,,,,,,,,,,,0,,,69,84
8634,note_on,6,0,1,,,,,,,,,,,,,,,,0,,,72,0
8644,note_on,10,0,1,,,,,,,,,,,,,,,,0,,,69,55
8650,note_on,6,0,1,,,,,,,,,,,,,,,,0,,,69,0
8687,note_on,54,0,2,,,,,,,,,,,,,,,,0,,,70,107
8688,note_on,1,0,2,,,,,,,,,,,,,,,,0,,,69,0
8690,note_on,40,0,1,,,,,,,,,,,,,,,,0,,,31,81
8692,note_on,2,0,1,,,,,,,,,,,,,,,,0,,,43,74
8714,control_change,22,0,1,,,,,,,,,,,,,,,,0,64,0,,
8749,note_on,35,0,1,,,,,,,,,,,,,,,,0,,,62,55
8752,control_change,3,0,1,,,,,,,,,,,,,,,,0,64,127,,
8752,note_on,0,0,1,,,,,,,,,,,,,,,,0,,,67,65
8768,note_on,16,0,1,,,,,,,,,,,,,,,,0,,,31,0
8781,note_on,13,0,1,,,,,,,,,,,,,,,,0,,,43,0
8805,note_on,24,0,1,,,,,,,,,,,,,,,,0,,,67,65
8824,note_on,19,0,1,,,,,,,,,,,,,,,,0,,,62,0
8857,note_on,33,0,1,,,,,,,,,,,,,,,,0,,,74,72
8857,note_on,0,0,1,,,,,,,,,,,,,,,,0,,,62,66
8858,note_on,1,0,1,,,,,,,,,,,,,,,,0,,,67,66
8909,note_on,51,0,1,,,,,,,,,,,,,,,,0,,,67,0
8913,note_on,4,0,1,,,,,,,,,,,,,,,,0,,,70,67
8972,note_on,59,0,1,,,,,,,,,,,,,,,,0,,,67,65
8979,note_on,7,0,1,,,,,,,,,,,,,,,,0,,,67,0
8979,note_on,0,0,1,,,,,,,,,,,,,,,,0,,,74,0
8991,note_on,12,0,1,,,,,,,,,,,,,,,,0,,,62,0
8992,note_on,1,0,1,,,,,,,,,,,,,,,,0,,,67,0
9009,note_on,17,0,1,,,,,,,,,,,,,,,,0,,,70,0
9012,note_on,3,0,1,,,,,,,,,,,,,,,,0,,,67,0
9022,note_on,10,0,1,,,,,,,,,,,,,,,,0,,,43,77
9023,note_on,1,0,1,,,,,,,,,,,,,,,,0,,,31,80
9079,note_on,56,0,1,,,,,,,,,,,,,,,,0,,,64,69
9082,note_on,3,0,1,,,,,,,,,,,,,,,,0,,,62,54
9089,note_on,7,0,1,,,,,,,,,,,,,,,,0,,,43,0
9097,note_on,8,0,1,,,,,,,,,,,,,,,,0,,,31,0
9133,note_on,36,0,1,,,,,,,,,,,,,,,,0,,,70,75
9136,note_on,3,0,1,,,,,,,,,,,,,,,,0,,,62,49
9146,note_on,10,0,1,,,,,,,,,,,,,,,,0,,,64,0
9169,note_on,23,0,1,,,,,,,,,,,,,,,,0,,,62,0
9182,note_on,13,0,1,,,,,,,,,,,,,,,,0,,,62,72
9184,note_on,2,0,1,,,,,,,,,,,,,,,,0,,,74,71
9218,note_on,34,0,1,,,,,,,,,,,,,,,,0,,,70,0
9223,note_on,5,0,1,,,,,,,,,,,,,,,,0,,,62,0
9223,note_on,535,0,2,,,,,,,,,,,,,,,,0,,,70,0
9230,note_on,7,0,2,,,,,,,,,,,,,,,,0,,,74,108
9235,note_on,12,0,1,,,,,,,,,,,,,,,,0,,,70,67
9249,note_on,14,0,1,,,,,,,,,,,,,,,,0,,,62,0
9264,note_on,34,0,2,,,,,,,,,,,,,,,,0,,,74,0
9278,note_on,14,0,2,,,,,,,,,,,,,,,,0,,,72,88
9292,note_on,43,0,1,,,,,,,,,,,,,,,,0,,,74,0
9298,note_on,6,0,1,,,,,,,,,,,,,,,,0,,,70,0
9319,note_on,41,0,2,,,,,,,,,,,,,,,,0,,,72,0
9334,note_on,15,0,2,,,,,,,,,,,,,,,,0,,,72,101
9344,note_on,46,0,1,,,,,,,,,,,,,,,,0,,,33,67
9345,note_on,1,0,1,,,,,,,,,,,,,,,,0,,,45,76
9365,control_change,20,0,1,,,,,,,,,,,,,,,,0,64,0,,
9402,note_on,37,0,1,,,,,,,,,,,,,,,,0,,,65,72
9405,control_change,0,0,1,,,,,,,,,,,,,,,,0,64,127,,
9405,note_on,3,0,1,,,,,,,,,,,,,,,,0,,,60,48
9422,note_on,17,0,1,,,,,,,,,,,,,,,,0,,,33,0
9431,note_on,9,0,1,,,,,,,,,,,,,,,,0,,,45,0
9457,note_on,26,0,1,,,,,,,,,,,,,,,,0,,,69,55
9478,note_on,21,0,1,,,,,,,,,,,,,,,,0,,,65,0
9508,note_on,30,0,1,,,,,,,,,,,,,,,,0,,,65,69
9509,note_on,1,0,1,,,,,,,,,,,,,,,,0,,,60,66
9510,note_on,1,0,1,,,,,,,,,,,,,,,,0,,,72,66
9565,note_on,55,0,1,,,,,,,,,,,,,,,,0,,,60,0
9567,note_on,2,0,1,,,,,,,,,,,,,,,,0,,,69,0
9568,note_on,1,0,1,,,,,,,,,,,,,,,,0,,,69,62
9570,note_on,2,0,1,,,,,,,,,,,,,,,,0,,,68,21
9578,note_on,8,0,1,,,,,,,,,,,,,,,,0,,,60,0
9578,note_on,0,0,1,,,,,,,,,,,,,,,,0,,,65,0
9614,note_on,280,0,2,,,,,,,,,,,,,,,,0,,,69,80
9620,note_on,42,0,1,,,,,,,,,,,,,,,,0,,,65,66
9626,note_on,6,0,1,,,,,,,,,,,,,,,,0,,,72,0
9627,note_on,1,0,1,,,,,,,,,,,,,,,,0,,,69,0
9627,note_on,0,0,1,,,,,,,,,,,,,,,,0,,,68,0
9632,note_on,5,0,1,,,,,,,,,,,,,,,,0,,,65,0
9660,note_on,46,0,2,,,,,,,,,,,,,,,,0,,,72,0
9663,note_on,3,0,2,,,,,,,,,,,,,,,,0,,,69,0
9667,note_on,4,0,2,,,,,,,,,,,,,,,,0,,,67,102
9671,note_on,0,0,1,,,,,,,,,,,,,,,,0,,,38,76
9671,note_on,39,0,1,,,,,,,,,,,,,,,,0,,,50,90
9694,control_change,23,0,1,,,,,,,,,,,,,,,,0,64,0,,
9718,note_on,51,0,2,,,,,,,,,,,,,,,,0,,,71,98
9726,note_on,8,0,2,,,,,,,,,,,,,,,,0,,,67,0
9728,note_on,34,0,1,,,,,,,,,,,,,,,,0,,,65,74
9728,note_on,0,0,1,,,,,,,,,,,,,,,,0,,,67,67
9730,control_change,2,0,1,,,,,,,,,,,,,,,,0,64,127,,
9734,note_on,0,0,1,,,,,,,,,,,,,,,,0,,,50,0
9734,note_on,4,0,1,,,,,,,,,,,,,,,,0,,,38,0
9769,note_on,43,0,2,,,,,,,,,,,,,,,,0,,,71,0
9771,note_on,2,0,2,,,,,,,,,,,,,,,,0,,,74,93
9782,note_on,48,0,1,,,,,,,,,,,,,,,,0,,,71,71
9788,note_on,6,0,1,,,,,,,,,,,,,,,,0,,,65,0
9820,note_on,49,0,2,,,,,,,,,,,,,,,,0,,,74,0
9827,note_on,7,0,2,,,,,,,,,,,,,,,,0,,,77,105
9836,note_on,48,0,1,,,,,,,,,,,,,,,,0,,,67,67
9837,note_on,1,0,1,,,,,,,,,,,,,,,,0,,,71,72
9837,note_on,0,0,1,,,,,,,,,,,,,,,,0,,,77,57
9875,note_on,38,0,1,,,,,,,,,,,,,,,,0,,,67,0
9885,note_on,58,0,2,,,,,,,,,,,,,,,,0,,,77,0
9885,note_on,0,0,2,,,,,,,,,,,,,,,,0,,,74,89
9888,note_on,13,0,1,,,,,,,,,,,,,,,,0,,,71,0
9890,note_on,2,0,1,,,,,,,,,,,,,,,,0,,,67,0
9896,note_on,6,0,1,,,,,,,,,,,,,,,,0,,,74,60
9938,note_on,53,0,2,,,,,,,,,,,,,,,,0,,,71,83
9940,note_on,2,0,2,,,,,,,,,,,,,,,,0,,,74,0
9948,note_on,52,0,1,,,,,,,,,,,,,,,,0,,,71,0
9949,note_on,0,0,1,,,,,,,,,,,,,,,,0,,,71,57
9949,note_on,0,0,1,,,,,,,,,,,,,,,,0,,,77,0
9949,note_on,1,0,1,,,,,,,,,,,,,,,,0,,,74,0
9955,note_on,6,0,1,,,,,,,,,,,,,,,,0,,,71,0
9993,note_on,53,0,2,,,,,,,,,,,,,,,,0,,,72,90
9994,note_on,1,0,2,,,,,,,,,,,,,,,,0,,,71,0
10001,note_on,46,0,1,,,,,,,,,,,,,,,,0,,,36,71
10002,note_on,1,0,1,,,,,,,,,,,,,,,,0,,,48,82
10019,control_change,17,0,1,,,,,,,,,,,,,,,,0,64,0,,
10055,control_change,36,0,1,,,,,,,,,,,,,,,,0,64,127,,
10059,note_on,4,0,1,,,,,,,,,,,,,,,,0,,,69,58
10090,note_on,31,0,1,,,,,,,,,,,,,,,,0,,,36,0
10114,note_on,24,0,1,,,,,,,,,,,,,,,,0,,,72,57
10122,note_on,8,0,1,,,,,,,,,,,,,,,,0,,,48,0
10169,note_on,47,0,1,,,,,,,,,,,,,,,,0,,,77,61
10221,note_on,52,0,1,,,,,,,,,,,,,,,,0,,,69,0
10224,note_on,3,0,1,,,,,,,,,,,,,,,,0,,,72,47
10276,note_on,52,0,1,,,,,,,,,,,,,,,,0,,,69,55
10281,note_on,5,0,1,,,,,,,,,,,,,,,,0,,,72,0
10283,note_on,2,0,1,,,,,,,,,,,,,,,,0,,,77,0
10285,note_on,2,0,1,,,,,,,,,,,,,,,,0,,,72,0
10300,note_on,15,0,1,,,,,,,,,,,,,,,,0,,,69,0
10332,note_on,32,0,1,,,,,,,,,,,,,,,,0,,,48,67
10333,note_on,1,0,1,,,,,,,,,,,,,,,,0,,,36,57
10354,control_change,21,0,1,,,,,,,,,,,,,,,,0,64,0,,
10374,note_on,380,0,2,,,,,,,,,,,,,,,,0,,,72,0
10378,note_on,4,0,2,,,,,,,,,,,,,,,,0,,,67,72
10379,control_change,25,0,1,,,,,,,,,,,,,,,,0,64,127,,
10386,note_on,7,0,1,,,,,,,,,,,,,,,,0,,,70,62
10388,note_on,2,0,1,,,,,,,,,,,,,,,,0,,,64,49
10414,note_on,26,0,1,,,,,,,,,,,,,,,,0,,,48,0
10419,note_on,5,0,1,,,,,,,,,,,,,,,,0,,,36,0
10420,note_on,42,0,2,,,,,,,,,,,,,,,,0,,,67,0
10424,note_on,4,0,2,,,,,,,,,,,,,,,,0,,,69,72
10439,note_on,20,0,1,,,,,,,,,,,,,,,,0,,,70,59
10442,note_on,3,0,1,,,,,,,,,,,,,,,,0,,,72,47
10449,note_on,7,0,1,,,,,,,,,,,,,,,,0,,,70,0
10450,note_on,1,0,1,,,,,,,,,,,,,,,,0,,,64,0
10456,note_on,32,0,2,,,,,,,,,,,,,,,,0,,,69,0
10472,note_on,16,0,2,,,,,,,,,,,,,,,,0,,,70,91
10500,note_on,0,0,1,,,,,,,,,,,,,,,,0,,,72,55
10500,note_on,50,0,1,,,,,,,,,,,,,,,,0,,,76,50
10518,note_on,46,0,2,,,,,,,,,,,,,,,,0,,,70,0
10522,note_on,4,0,2,,,,,,,,,,,,,,,,0,,,72,94
10526,note_on,26,0,1,,,,,,,,,,,,,,,,0,,,70,0
10538,note_on,12,0,1,,,,,,,,,,,,,,,,0,,,72,0
10539,note_on,17,0,2,,,,,,,,,,,,,,,,0,,,70,97
10540,note_on,1,0,2,,,,,,,,,,,,,,,,0,,,72,0
10555,note_on,17,0,1,,,,,,,,,,,,,,,,0,,,72,37
10556,note_on,1,0,1,,,,,,,,,,,,,,,,0,,,76,0
10573,note_on,33,0,2,,,,,,,,,,,,,,,,0,,,69,92
10576,note_on,3,0,2,,,,,,,,,,,,,,,,0,,,70,0
10614,note_on,58,0,1,,,,,,,,,,,,,,,,0,,,70,52
10622,note_on,46,0,2,,,,,,,,,,,,,,,,0,,,69,0
10624,note_on,10,0,1,,,,,,,,,,,,,,,,0,,,72,0
10626,note_on,4,0,2,,,,,,,,,,,,,,,,0,,,67,69
10626,note_on,2,0,1,,,,,,,,,,,,,,,,0,,,72,0
10628,note_on,2,0,1,,,,,,,,,,,,,,,,0,,,70,0
10666,note_on,40,0,2,,,,,,,,,,,,,,,,0,,,67,0
10669,note_on,3,0,2,,,,,,,,,,,,,,,,0,,,65,77
10670,note_on,42,0,1,,,,,,,,,,,,,,,,0,,,48,63
10671,note_on,1,0,1,,,,,,,,,,,,,,,,0,,,53,64
10672,note_on,1,0,1,,,,,,,,,,,,,,,,0,,,41,54
10694,control_change,22,0,1,,,,,,,,,,,,,,,,0,64,0,,
10729,note_on,35,0,1,,,,,,,,,,,,,,,,0,,,69,61
10731,control_change,2,0,1,,,,,,,,,,,,,,,,0,64,127,,
10757,note_on,26,0,1,,,,,,,,,,,,,,,,0,,,48,0
10781,note_on,24,0,1,,,,,,,,,,,,,,,,0,,,72,59
10784,note_on,3,0,1,,,,,,,,,,,,,,,,0,,,69,45
10791,note_on,7,0,1,,,,,,,,,,,,,,,,0,,,53,0
10801,note_on,10,0,1,,,,,,,,,,,,,,,,0,,,41,0
10832,note_on,31,0,1,,,,,,,,,,,,,,,,0,,,69,73
10832,note_on,0,0,1,,,,,,,,,,,,,,,,0,,,77,69
10892,note_on,60,0,1,,,,,,,,,,,,,,,,0,,,69,0
10892,note_on,0,0,1,,,,,,,,,,,,,,,,0,,,72,63
10932,note_on,40,0,1,,,,,,,,,,,,,,,,0,,,72,0
10934,note_on,2,0,1,,,,,,,,,,,,,,,,0,,,69,0
10939,note_on,5,0,1,,,,,,,,,,,,,,,,0,,,69,0
10939,note_on,0,0,1,,,,,,,,,,,,,,,,0,,,77,0
10942,note_on,3,0,1,,,,,,,,,,,,,,,,0,,,69,63
10945,note_on,3,0,1,,,,,,,,,,,,,,,,0,,,72,0
10956,note_on,11,0,1,,,,,,,,,,,,,,,,0,,,69,0
10996,note_on,40,0,1,,,,,,,,,,,,,,,,0,,,41,54
10997,note_on,1,0,1,,,,,,,,,,,,,,,,0,,,48,57
10998,note_on,1,0,1,,,,,,,,,,,,,,,,0,,,53,46
11049,note_on,51,0,1,,,,,,,,,,,,,,,,0,,,65,74
11052,note_on,3,0,1,,,,,,,,,,,,,,,,0,,,69,66
11066,note_on,14,0,1,,,,,,,,,,,,,,,,0,,,41,0
11068,note_on,2,0,1,,,,,,,,,,,,,,,,0,,,48,0
11103,note_on,35,0,1,,,,,,,,,,,,,,,,0,,,72,67
11104,note_on,435,0,2,,,,,,,,,,,,,,,,0,,,65,0
11107,note_on,4,0,1,,,,,,,,,,,,,,,,0,,,65,37
11112,note_on,5,0,1,,,,,,,,,,,,,,,,0,,,53,0
11131,note_on,19,0,1,,,,,,,,,,,,,,,,0,,,65,0
11155,note_on,24,0,1,,,,,,,,,,,,,,,,0,,,77,57
11156,note_on,1,0,1,,,,,,,,,,,,,,,,0,,,69,58
11156,note_on,52,0,2,,,,,,,,,,,,,,,,0,,,65,101
11200,note_on,44,0,1,,,,,,,,,,,,,,,,0,,,69,0
11211,note_on,11,0,1,,,,,,,,,,,,,,,,0,,,72,0
11214,note_on,3,0,1,,,,,,,,,,,,,,,,0,,,72,60
11216,note_on,2,0,1,,,,,,,,,,,,,,,,0,,,65,50
11231,note_on,75,0,2,,,,,,,,,,,,,,,,0,,,65,0
11232,note_on,16,0,1,,,,,,,,,,,,,,,,0,,,65,0
11255,note_on,24,0,2,,,,,,,,,,,,,,,,0,,,65,92
11267,note_on,35,0,1,,,,,,,,,,,,,,,,0,,,65,58
11269,note_on,2,0,1,,,,,,,,,,,,,,,,0,,,77,0
11269,note_on,0,0,1,,,,,,,,,,,,,,,,0,,,69,64
11273,note_on,4,0,1,,,,,,,,,,,,,,,,0,,,69,0
11274,note_on,1,0,1,,,,,,,,,,,,,,,,0,,,72,0
11296,note_on,22,0,1,,,,,,,,,,,,,,,,0,,,65,0
11298,note_on,43,0,2,,,,,,,,,,,,,,,,0,,,65,0
11300,note_on,4,0,1,,,,,,,,,,,,,,,,0,,,65,0
11301,note_on,1,0,1,,,,,,,,,,,,,,,,0,,,69,0
11308,note_on,10,0,2,,,,,,,,,,,,,,,,0,,,72,102
11318,note_on,17,0,1,,,,,,,,,,,,,,,,0,,,41,67
11319,note_on,1,0,1,,,,,,,,,,,,,,,,0,,,48,77
11321,note_on,2,0,1,,,,,,,,,,,,,,,,0,,,53,78
11357,control_change,36,0,1,,,,,,,,,,,,,,,,0,64,0,,
11374,note_on,17,0,1,,,,,,,,,,,,,,,,0,,,63,89
11376,note_on,2,0,1,,,,,,,,,,,,,,,,0,,,69,82
11387,control_change,11,0,1,,,,,,,,,,,,,,,,0,64,127,,
11398,note_on,11,0,1,,,,,,,,,,,,,,,,0,,,41,0
11407,note_on,9,0,1,,,,,,,,,,,,,,,,0,,,48,0
11428,note_on,21,0,1,,,,,,,,,,,,,,,,0,,,72,75
11463,note_on,35,0,1,,,,,,,,,,,,,,,,0,,,53,0
11479,note_on,16,0,1,,,,,,,,,,,,,,,,0,,,69,88
11480,note_on,1,0,1,,,,,,,,,,,,,,,,0,,,77,81
11516,note_on,36,0,1,,,,,,,,,,,,,,,,0,,,63,0
11529,note_on,13,0,1,,,,,,,,,,,,,,,,0,,,69,0
11536,note_on,7,0,1,,,,,,,,,,,,,,,,0,,,72,73
11562,note_on,254,0,2,,,,,,,,,,,,,,,,0,,,72,0
11578,note_on,16,0,2,,,,,,,,,,,,,,,,0,,,72,101
11592,note_on,56,0,1,,,,,,,,,,,,,,,,0,,,63,67
11595,note_on,3,0,1,,,,,,,,,,,,,,,,0,,,69,67
11599,note_on,4,0,1,,,,,,,,,,,,,,,,0,,,72,0
11605,note_on,6,0,1,,,,,,,,,,,,,,,,0,,,69,0
11605,note_on,0,0,1,,,,,,,,,,,,,,,,0,,,77,0
11623,note_on,45,0,2,,,,,,,,,,,,,,,,0,,,72,0
11641,note_on,18,0,2,,,,,,,,,,,,,,,,0,,,72,96
11646,note_on,41,0,1,,,,,,,,,,,,,,,,0,,,48,77
11648,note_on,0,0,1,,,,,,,,,,,,,,,,0,,,41,70
11648,note_on,2,0,1,,,,,,,,,,,,,,,,0,,,53,77
11670,control_change,22,0,1,,,,,,,,,,,,,,,,0,64,0,,
11671,note_on,0,0,1,,,,,,,,,,,,,,,,0,,,63,0
11671,note_on,1,0,1,,,,,,,,,,,,,,,,0,,,72,0
11702,control_change,31,0,1,,,,,,,,,,,,,,,,0,64,127,,
11703,note_on,1,0,1,,,,,,,,,,,,,,,,0,,,63,59
11705,note_on,2,0,1,,,,,,,,,,,,,,,,0,,,69,72
11712,note_on,7,0,1,,,,,,,,,,,,,,,,0,,,69,0
11733,note_on,92,0,2,,,,,,,,,,,,,,,,0,,,72,0
11735,note_on,23,0,1,,,,,,,,,,,,,,,,0,,,48,0
11737,note_on,2,0,1,,,,,,,,,,,,,,,,0,,,53,0
11744,note_on,11,0,2,,,,,,,,,,,,,,,,0,,,71,96
11757,note_on,20,0,1,,,,,,,,,,,,,,,,0,,,72,63
11793,note_on,49,0,2,,,,,,,,,,,,,,,,0,,,71,0
11795,note_on,38,0,1,,,,,,,,,,,,,,,,0,,,41,0
11805,note_on,12,0,2,,,,,,,,,,,,,,,,0,,,72,101
11807,note_on,12,0,1,,,,,,,,,,,,,,,,0,,,77,73
11812,note_on,5,0,1,,,,,,,,,,,,,,,,0,,,69,65
11832,note_on,20,0,1,,,,,,,,,,,,,,,,0,,,63,0
11834,note_on,2,0,1,,,,,,,,,,,,,,,,0,,,69,0
11845,note_on,11,0,1,,,,,,,,,,,,,,,,0,,,72,0
11847,note_on,2,0,1,,,,,,,,,,,,,,,,0,,,77,0
11848,note_on,1,0,1,,,,,,,,,,,,,,,,0,,,69,0
11864,note_on,16,0,1,,,,,,,,,,,,,,,,0,,,72,63
11908,note_on,103,0,2,,,,,,,,,,,,,,,,0,,,72,0
11912,note_on,4,0,2,,,,,,,,,,,,,,,,0,,,74,100
11922,note_on,58,0,1,,,,,,,,,,,,,,,,0,,,63,47
11925,note_on,3,0,1,,,,,,,,,,,,,,,,0,,,69,50
11934,note_on,9,0,1,,,,,,,,,,,,,,,,0,,,72,0
11937,note_on,3,0,1,,,,,,,,,,,,,,,,0,,,63,0
11941,note_on,4,0,1,,,,,,,,,,,,,,,,0,,,69,0
11958,note_on,46,0,2,,,,,,,,,,,,,,,,0,,,74,0
11967,note_on,9,0,2,,,,,,,,,,,,,,,,0,,,72,91
11973,note_on,32,0,1,,,,,,,,,,,,,,,,0,,,41,62
11976,note_on,3,0,1,,,,,,,,,,,,,,,,0,,,53,70
12005,control_change,29,0,1,,,,,,,,,,,,,,,,0,64,0,,
12036,note_on,31,0,1,,,,,,,,,,,,,,,,0,,,70,83
12045,control_change,9,0,1,,,,,,,,,,,,,,,,0,64,127,,
12054,note_on,9,0,1,,,,,,,,,,,,,,,,0,,,41,0
12066,note_on,99,0,2,,,,,,,,,,,,,,,,0,,,72,0
12073,note_on,7,0,2,,,,,,,,,,,,,,,,0,,,74,79
12089,note_on,35,0,1,,,,,,,,,,,,,,,,0,,,74,73
12099,note_on,10,0,1,,,,,,,,,,,,,,,,0,,,53,0
12124,note_on,51,0,2,,,,,,,,,,,,,,,,0,,,74,0
12132,note_on,8,0,2,,,,,,,,,,,,,,,,0,,,70,89
12142,note_on,43,0,1,,,,,,,,,,,,,,,,0,,,70,41
12145,note_on,3,0,1,,,,,,,,,,,,,,,,0,,,77,24
12147,note_on,2,0,1,,,,,,,,,,,,,,,,0,,,65,19
12173,note_on,26,0,1,,,,,,,,,,,,,,,,0,,,70,0
12197,note_on,24,0,1,,,,,,,,,,,,,,,,0,,,74,0
12204,note_on,7,0,1,,,,,,,,,,,,,,,,0,,,74,53
12254,note_on,50,0,1,,,,,,,,,,,,,,,,0,,,70,42
12255,note_on,1,0,1,,,,,,,,,,,,,,,,0,,,70,0
12265,note_on,10,0,1,,,,,,,,,,,,,,,,0,,,77,0
12268,note_on,3,0,1,,,,,,,,,,,,,,,,0,,,65,0
12310,note_on,42,0,1,,,,,,,,,,,,,,,,0,,,53,55
12311,note_on,1,0,1,,,,,,,,,,,,,,,,0,,,48,58
12312,note_on,1,0,1,,,,,,,,,,,,,,,,0,,,74,0
12313,note_on,1,0,1,,,,,,,,,,,,,,,,0,,,41,43
12322,note_on,9,0,1,,,,,,,,,,,,,,,,0,,,70,0
12366,note_on,44,0,1,,,,,,,,,,,,,,,,0,,,70,57
12369,note_on,3,0,1,,,,,,,,,,,,,,,,0,,,65,37
12394,note_on,262,0,2,,,,,,,,,,,,,,,,0,,,70,0
12423,note_on,54,0,1,,,,,,,,,,,,,,,,0,,,74,56
12475,note_on,52,0,1,,,,,,,,,,,,,,,,0,,,53,0
12479,note_on,4,0,1,,,,,,,,,,,,,,,,0,,,77,48
12520,note_on,126,0,2,,,,,,,,,,,,,,,,0,,,70,97
12534,note_on,55,0,1,,,,,,,,,,,,,,,,0,,,48,0
12539,note_on,5,0,1,,,,,,,,,,,,,,,,0,,,41,0
12540,note_on,1,0,1,,,,,,,,,,,,,,,,0,,,74,37
12541,note_on,1,0,1,,,,,,,,,,,,,,,,0,,,70,0
12543,note_on,2,0,1,,,,,,,,,,,,,,,,0,,,65,0
12591,note_on,48,0,1,,,,,,,,,,,,,,,,0,,,70,44
12592,note_on,1,0,1,,,,,,,,,,,,,,,,0,,,74,0
12603,note_on,11,0,1,,,,,,,,,,,,,,,,0,,,77,0
12608,note_on,5,0,1,,,,,,,,,,,,,,,,0,,,74,0
12615,note_on,95,0,2,,,,,,,,,,,,,,,,0,,,70,0
12616,note_on,8,0,1,,,,,,,,,,,,,,,,0,,,70,0
12628,note_on,13,0,2,,,,,,,,,,,,,,,,0,,,72,101
12645,note_on,29,0,1,,,,,,,,,,,,,,,,0,,,41,47
12648,note_on,3,0,1,,,,,,,,,,,,,,,,0,,,53,50
12670,control_change,22,0,1,,,,,,,,,,,,,,,,0,64,0,,
12702,control_change,32,0,1,,,,,,,,,,,,,,,,0,64,127,,
12705,note_on,3,0,1,,,,,,,,,,,,,,,,0,,,63,45
12709,note_on,4,0,1,,,,,,,,,,,,,,,,0,,,69,48
12740,note_on,31,0,1,,,,,,,,,,,,,,,,0,,,41,0
12749,note_on,9,0,1,,,,,,,,,,,,,,,,0,,,53,0
12811,note_on,0,0,1,,,,,,,,,,,,,,,,0,,,77,50
12811,note_on,62,0,1,,,,,,,,,,,,,,,,0,,,72,62
12826,note_on,15,0,1,,,,,,,,,,,,,,,,0,,,63,0
12843,note_on,215,0,2,,,,,,,,,,,,,,,,0,,,72,0
12863,note_on,37,0,1,,,,,,,,,,,,,,,,0,,,69,0
12873,note_on,10,0,1,,,,,,,,,,,,,,,,0,,,72,48
12909,note_on,66,0,2,,,,,,,,,,,,,,,,0,,,72,85
12920,note_on,47,0,1,,,,,,,,,,,,,,,,0,,,72,0
12927,note_on,7,0,1,,,,,,,,,,,,,,,,0,,,69,36
12929,note_on,2,0,1,,,,,,,,,,,,,,,,0,,,77,0
12932,note_on,3,0,1,,,,,,,,,,,,,,,,0,,,72,0
12933,note_on,1,0,1,,,,,,,,,,,,,,,,0,,,69,0
12936,note_on,27,0,2,,,,,,,,,,,,,,,,0,,,72,0
12968,note_on,32,0,2,,,,,,,,,,,,,,,,0,,,72,104
12972,note_on,39,0,1,,,,,,,,,,,,,,,,0,,,41,49
12973,note_on,1,0,1,,,,,,,,,,,,,,,,0,,,53,56
12974,note_on,1,0,1,,,,,,,,,,,,,,,,0,,,48,55
13017,note_on,49,0,2,,,,,,,,,,,,,,,,0,,,72,0
13019,note_on,2,0,2,,,,,,,,,,,,,,,,0,,,71,91
13023,note_on,49,0,1,,,,,,,,,,,,,,,,0,,,63,60
13029,note_on,6,0,1,,,,,,,,,,,,,,,,0,,,69,59
13043,note_on,14,0,1,,,,,,,,,,,,,,,,0,,,41,0
13052,note_on,9,0,1,,,,,,,,,,,,,,,,0,,,53,0
13068,note_on,49,0,2,,,,,,,,,,,,,,,,0,,,71,0
13072,note_on,4,0,2,,,,,,,,,,,,,,,,0,,,72,89
13119,note_on,47,0,2,,,,,,,,,,,,,,,,0,,,72,0
13124,note_on,5,0,2,,,,,,,,,,,,,,,,0,,,75,95
13130,note_on,78,0,1,,,,,,,,,,,,,,,,0,,,77,64
13131,note_on,1,0,1,,,,,,,,,,,,,,,,0,,,69,72
13174,note_on,50,0,2,,,,,,,,,,,,,,,,0,,,75,0
13178,note_on,4,0,2,,,,,,,,,,,,,,,,0,,,74,87
13179,note_on,48,0,1,,,,,,,,,,,,,,,,0,,,48,0
13187,note_on,8,0,1,,,,,,,,,,,,,,,,0,,,72,63
13210,note_on,23,0,1,,,,,,,,,,,,,,,,0,,,63,0
13214,note_on,4,0,1,,,,,,,,,,,,,,,,0,,,69,0
13231,note_on,17,0,1,,,,,,,,,,,,,,,,0,,,77,0
13231,note_on,53,0,2,,,,,,,,,,,,,,,,0,,,72,88
13232,note_on,1,0,2,,,,,,,,,,,,,,,,0,,,74,0
13236,note_on,5,0,1,,,,,,,,,,,,,,,,0,,,72,0
13236,note_on,0,0,1,,,,,,,,,,,,,,,,0,,,69,0
13236,note_on,0,0,1,,,,,,,,,,,,,,,,0,,,69,70
13249,note_on,13,0,1,,,,,,,,,,,,,,,,0,,,69,0
13280,note_on,0,0,2,,,,,,,,,,,,,,,,0,,,70,95
13280,note_on,48,0,2,,,,,,,,,,,,,,,,0,,,72,0
13286,note_on,37,0,1,,,,,,,,,,,,,,,,0,,,55,74
13287,note_on,1,0,1,,,,,,,,,,,,,,,,0,,,43,70
13303,control_change,16,0,1,,,,,,,,,,,,,,,,0,64,0,,
13337,control_change,34,0,1,,,,,,,,,,,,,,,,0,64,127,,
13344,note_on,7,0,1,,,,,,,,,,,,,,,,0,,,62,47
13346,note_on,2,0,1,,,,,,,,,,,,,,,,0,,,67,53
13399,note_on,53,0,1,,,,,,,,,,,,,,,,0,,,70,52
13410,note_on,11,0,1,,,,,,,,,,,,,,,,0,,,55,0
13415,note_on,5,0,1,,,,,,,,,,,,,,,,0,,,43,0
13441,note_on,26,0,1,,,,,,,,,,,,,,,,0,,,62,0
13450,note_on,9,0,1,,,,,,,,,,,,,,,,0,,,62,66
13452,note_on,0,0,1,,,,,,,,,,,,,,,,0,,,67,59
13452,note_on,2,0,1,,,,,,,,,,,,,,,,0,,,74,65
13503,note_on,51,0,1,,,,,,,,,,,,,,,,0,,,67,0
13506,note_on,3,0,1,,,,,,,,,,,,,,,,0,,,70,59
13519,note_on,13,0,1,,,,,,,,,,,,,,,,0,,,70,0
13560,note_on,41,0,1,,,,,,,,,,,,,,,,0,,,62,44
13563,note_on,3,0,1,,,,,,,,,,,,,,,,0,,,67,55
13569,note_on,6,0,1,,,,,,,,,,,,,,,,0,,,62,0
13578,note_on,9,0,1,,,,,,,,,,,,,,,,0,,,74,0
13608,note_on,30,0,1,,,,,,,,,,,,,,,,0,,,67,0
13609,note_on,1,0,1,,,,,,,,,,,,,,,,0,,,70,0
13610,note_on,1,0,1,,,,,,,,,,,,,,,,0,,,67,0
13610,note_on,0,0,1,,,,,,,,,,,,,,,,0,,,62,0
13612,note_on,2,0,1,,,,,,,,,,,,,,,,0,,,55,72
13612,note_on,0,0,1,,,,,,,,,,,,,,,,0,,,43,66
13666,note_on,54,0,1,,,,,,,,,,,,,,,,0,,,62,69
13681,note_on,401,0,2,,,,,,,,,,,,,,,,0,,,70,0
13719,note_on,53,0,1,,,,,,,,,,,,,,,,0,,,67,62
13725,note_on,6,0,1,,,,,,,,,,,,,,,,0,,,55,0
13736,note_on,11,0,1,,,,,,,,,,,,,,,,0,,,43,0
13746,note_on,10,0,1,,,,,,,,,,,,,,,,0,,,62,0
13760,note_on,79,0,2,,,,,,,,,,,,,,,,0,,,70,97
13769,note_on,23,0,1,,,,,,,,,,,,,,,,0,,,67,77
13770,note_on,1,0,1,,,,,,,,,,,,,,,,0,,,70,84
13770,note_on,0,0,1,,,,,,,,,,,,,,,,0,,,62,62
13772,note_on,2,0,1,,,,,,,,,,,,,,,,0,,,55,74
13789,note_on,17,0,1,,,,,,,,,,,,,,,,0,,,67,0
13799,note_on,10,0,1,,,,,,,,,,,,,,,,0,,,67,0
13800,note_on,1,0,1,,,,,,,,,,,,,,,,0,,,70,0
13820,note_on,20,0,1,,,,,,,,,,,,,,,,0,,,62,0
13829,note_on,9,0,1,,,,,,,,,,,,,,,,0,,,67,59
13879,note_on,50,0,1,,,,,,,,,,,,,,,,0,,,55,0
13883,note_on,4,0,1,,,,,,,,,,,,,,,,0,,,62,64
13898,note_on,138,0,2,,,,,,,,,,,,,,,,0,,,70,0
13905,note_on,22,0,1,,,,,,,,,,,,,,,,0,,,67,0
13909,note_on,11,0,2,,,,,,,,,,,,,,,,0,,,72,103
13916,note_on,11,0,1,,,,,,,,,,,,,,,,0,,,62,0
13932,note_on,16,0,1,,,,,,,,,,,,,,,,0,,,41,64
13935,note_on,3,0,1,,,,,,,,,,,,,,,,0,,,53,69
13936,note_on,1,0,1,,,,,,,,,,,,,,,,0,,,48,71
13954,control_change,18,0,1,,,,,,,,,,,,,,,,0,64,0,,
13988,note_on,34,0,1,,,,,,,,,,,,,,,,0,,,60,61
13991,control_change,0,0,1,,,,,,,,,,,,,,,,0,64,127,,
13991,note_on,3,0,1,,,,,,,,,,,,,,,,0,,,65,76
14013,note_on,22,0,1,,,,,,,,,,,,,,,,0,,,41,0
14039,note_on,26,0,1,,,,,,,,,,,,,,,,0,,,60,36
14043,note_on,4,0,1,,,,,,,,,,,,,,,,0,,,69,62
14045,note_on,2,0,1,,,,,,,,,,,,,,,,0,,,53,0
14061,note_on,16,0,1,,,,,,,,,,,,,,,,0,,,48,0
14090,note_on,29,0,1,,,,,,,,,,,,,,,,0,,,65,76
14091,note_on,1,0,1,,,,,,,,,,,,,,,,0,,,60,0
14091,note_on,0,0,1,,,,,,,,,,,,,,,,0,,,60,61
14093,note_on,2,0,1,,,,,,,,,,,,,,,,0,,,72,67
14112,note_on,203,0,2,,,,,,,,,,,,,,,,0,,,72,0
14148,note_on,55,0,1,,,,,,,,,,,,,,,,0,,,65,0
14148,note_on,0,0,1,,,,,,,,,,,,,,,,0,,,69,67
14156,note_on,8,0,1,,,,,,,,,,,,,,,,0,,,60,0
14159,note_on,3,0,1,,,,,,,,,,,,,,,,0,,,69,0
14170,note_on,11,0,1,,,,,,,,,,,,,,,,0,,,65,0
14173,note_on,3,0,1,,,,,,,,,,,,,,,,0,,,60,0
14192,note_on,80,0,2,,,,,,,,,,,,,,,,0,,,72,102
14198,note_on,25,0,1,,,,,,,,,,,,,,,,0,,,65,67
14202,note_on,4,0,1,,,,,,,,,,,,,,,,0,,,60,51
14209,note_on,7,0,1,,,,,,,,,,,,,,,,0,,,72,0
14210,note_on,1,0,1,,,,,,,,,,,,,,,,0,,,69,0
14219,note_on,9,0,1,,,,,,,,,,,,,,,,0,,,65,0
14235,note_on,16,0,1,,,,,,,,,,,,,,,,0,,,60,0
14236,note_on,44,0,2,,,,,,,,,,,,,,,,0,,,72,0
14249,note_on,13,0,2,,,,,,,,,,,,,,,,0,,,74,107
14252,note_on,17,0,1,,,,,,,,,,,,,,,,0,,,38,66
14252,note_on,0,0,1,,,,,,,,,,,,,,,,0,,,50,86
14279,control_change,27,0,1,,,,,,,,,,,,,,,,0,64,0,,
14305,note_on,26,0,1,,,,,,,,,,,,,,,,0,,,66,77
14307,note_on,2,0,1,,,,,,,,,,,,,,,,0,,,62,67
14310,control_change,3,0,1,,,,,,,,,,,,,,,,0,64,127,,
14331,note_on,82,0,2,,,,,,,,,,,,,,,,0,,,74,0
14336,note_on,26,0,1,,,,,,,,,,,,,,,,0,,,38,0
14347,note_on,11,0,1,,,,,,,,,,,,,,,,0,,,50,0
14351,note_on,20,0,2,,,,,,,,,,,,,,,,0,,,74,101
14360,note_on,13,0,1,,,,,,,,,,,,,,,,0,,,62,63
14361,note_on,1,0,1,,,,,,,,,,,,,,,,0,,,69,65
14372,note_on,21,0,2,,,,,,,,,,,,,,,,0,,,74,0
14386,note_on,25,0,1,,,,,,,,,,,,,,,,0,,,66,0
14399,note_on,13,0,1,,,,,,,,,,,,,,,,0,,,62,0
14402,note_on,30,0,2,,,,,,,,,,,,,,,,0,,,74,115
14409,note_on,10,0,1,,,,,,,,,,,,,,,,0,,,66,70
14410,note_on,1,0,1,,,,,,,,,,,,,,,,0,,,74,69
14411,note_on,1,0,1,,,,,,,,,,,,,,,,0,,,62,68
14438,note_on,27,0,1,,,,,,,,,,,,,,,,0,,,62,0
14449,note_on,47,0,2,,,,,,,,,,,,,,,,0,,,74,0
14455,note_on,6,0,2,,,,,,,,,,,,,,,,0,,,72,96
14455,note_on,17,0,1,,,,,,,,,,,,,,,,0,,,69,0
14469,note_on,14,0,1,,,,,,,,,,,,,,,,0,,,69,71
14470,note_on,1,0,1,,,,,,,,,,,,,,,,0,,,66,0
14472,note_on,2,0,1,,,,,,,,,,,,,,,,0,,,68,34
14501,note_on,46,0,2,,,,,,,,,,,,,,,,0,,,72,0
14507,note_on,6,0,2,,,,,,,,,,,,,,,,0,,,74,81
14521,note_on,49,0,1,,,,,,,,,,,,,,,,0,,,66,66
14528,note_on,7,0,1,,,,,,,,,,,,,,,,0,,,74,0
14529,note_on,1,0,1,,,,,,,,,,,,,,,,0,,,62,0
14532,note_on,3,0,1,,,,,,,,,,,,,,,,0,,,69,0
14535,note_on,3,0,1,,,,,,,,,,,,,,,,0,,,68,0
14537,note_on,2,0,1,,,,,,,,,,,,,,,,0,,,66,0
14553,note_on,46,0,2,,,,,,,,,,,,,,,,0,,,74,0
14560,note_on,7,0,2,,,,,,,,,,,,,,,,0,,,77,91
14566,note_on,29,0,1,,,,,,,,,,,,,,,,0,,,36,71
14567,note_on,1,0,1,,,,,,,,,,,,,,,,0,,,48,85
14590,control_change,23,0,1,,,,,,,,,,,,,,,,0,64,0,,
14621,note_on,31,0,1,,,,,,,,,,,,,,,,0,,,63,81
14622,note_on,1,0,1,,,,,,,,,,,,,,,,0,,,67,77
14626,control_change,4,0,1,,,,,,,,,,,,,,,,0,64,127,,
14656,note_on,96,0,2,,,,,,,,,,,,,,,,0,,,75,87
14660,note_on,4,0,2,,,,,,,,,,,,,,,,0,,,77,0
14674,note_on,48,0,1,,,,,,,,,,,,,,,,0,,,72,72
14682,note_on,8,0,1,,,,,,,,,,,,,,,,0,,,36,0
14695,note_on,13,0,1,,,,,,,,,,,,,,,,0,,,48,0
14700,note_on,40,0,2,,,,,,,,,,,,,,,,0,,,75,0
14712,note_on,17,0,1,,,,,,,,,,,,,,,,0,,,63,0
14721,note_on,21,0,2,,,,,,,,,,,,,,,,0,,,75,97
14725,note_on,13,0,1,,,,,,,,,,,,,,,,0,,,63,86
14725,note_on,0,0,1,,,,,,,,,,,,,,,,0,,,67,71
14726,note_on,1,0,1,,,,,,,,,,,,,,,,0,,,75,76
14788,note_on,62,0,1,,,,,,,,,,,,,,,,0,,,72,71
14795,note_on,7,0,1,,,,,,,,,,,,,,,,0,,,67,0
14806,note_on,11,0,1,,,,,,,,,,,,,,,,0,,,72,0
14811,note_on,5,0,1,,,,,,,,,,,,,,,,0,,,63,0
14841,note_on,30,0,1,,,,,,,,,,,,,,,,0,,,63,62
14841,note_on,0,0,1,,,,,,,,,,,,,,,,0,,,67,62
14849,note_on,8,0,1,,,,,,,,,,,,,,,,0,,,67,0
14857,note_on,8,0,1,,,,,,,,,,,,,,,,0,,,75,0
14887,note_on,30,0,1,,,,,,,,,,,,,,,,0,,,72,0
14890,note_on,3,0,1,,,,,,,,,,,,,,,,0,,,63,0
14890,note_on,0,0,1,,,,,,,,,,,,,,,,0,,,36,63
14890,note_on,0,0,1,,,,,,,,,,,,,,,,0,,,48,65
14935,note_on,45,0,1,,,,,,,,,,,,,,,,0,,,67,0
14943,note_on,8,0,1,,,,,,,,,,,,,,,,0,,,67,55
14945,note_on,2,0,1,,,,,,,,,,,,,,,,0,,,63,42
14993,note_on,48,0,1,,,,,,,,,,,,,,,,0,,,72,62
15021,note_on,28,0,1,,,,,,,,,,,,,,,,0,,,48,0
15037,note_on,16,0,1,,,,,,,,,,,,,,,,0,,,36,0
15039,note_on,318,0,2,,,,,,,,,,,,,,,,0,,,75,0
15048,note_on,11,0,1,,,,,,,,,,,,,,,,0,,,75,67
15053,note_on,5,0,1,,,,,,,,,,,,,,,,0,,,48,60
15065,note_on,12,0,1,,,,,,,,,,,,,,,,0,,,67,0
15069,note_on,4,0,1,,,,,,,,,,,,,,,,0,,,63,0
15097,note_on,58,0,2,,,,,,,,,,,,,,,,0,,,67,90
15101,note_on,32,0,1,,,,,,,,,,,,,,,,0,,,72,61
15107,note_on,6,0,1,,,,,,,,,,,,,,,,0,,,72,0
15108,note_on,1,0,1,,,,,,,,,,,,,,,,0,,,75,0
15122,note_on,25,0,2,,,,,,,,,,,,,,,,0,,,67,0
15147,note_on,25,0,2,,,,,,,,,,,,,,,,0,,,67,85
15155,note_on,47,0,1,,,,,,,,,,,,,,,,0,,,67,53
15156,note_on,1,0,1,,,,,,,,,,,,,,,,0,,,48,0
15161,note_on,5,0,1,,,,,,,,,,,,,,,,0,,,72,0
15168,note_on,7,0,1,,,,,,,,,,,,,,,,0,,,67,0
15184,note_on,37,0,2,,,,,,,,,,,,,,,,0,,,67,0
15190,note_on,6,0,2,,,,,,,,,,,,,,,,0,,,74,94
15197,note_on,7,0,2,,,,,,,,,,,,,,,,0,,,72,92
15205,note_on,37,0,1,,,,,,,,,,,,,,,,0,,,39,59
15207,note_on,2,0,1,,,,,,,,,,,,,,,,0,,,51,59
15209,note_on,12,0,2,,,,,,,,,,,,,,,,0,,,74,0
15210,note_on,3,0,1,,,,,,,,,,,,,,,,0,,,46,54
15224,control_change,14,0,1,,,,,,,,,,,,,,,,0,64,0,,
15261,note_on,37,0,1,,,,,,,,,,,,,,,,0,,,63,54
15265,note_on,4,0,1,,,,,,,,,,,,,,,,0,,,60,18
15265,control_change,0,0,1,,,,,,,,,,,,,,,,0,64,127,,
15312,note_on,47,0,1,,,,,,,,,,,,,,,,0,,,39,0
15316,note_on,4,0,1,,,,,,,,,,,,,,,,0,,,67,45
15317,note_on,1,0,1,,,,,,,,,,,,,,,,0,,,51,0
15322,note_on,5,0,1,,,,,,,,,,,,,,,,0,,,46,0
15366,note_on,44,0,1,,,,,,,,,,,,,,,,0,,,72,58
15420,note_on,54,0,1,,,,,,,,,,,,,,,,0,,,67,65
15450,note_on,241,0,2,,,,,,,,,,,,,,,,0,,,72,0
15463,note_on,43,0,1,,,,,,,,,,,,,,,,0,,,63,0
15471,note_on,21,0,2,,,,,,,,,,,,,,,,0,,,72,101
15473,note_on,10,0,1,,,,,,,,,,,,,,,,0,,,60,0
15478,note_on,5,0,1,,,,,,,,,,,,,,,,0,,,63,62
15483,note_on,0,0,1,,,,,,,,,,,,,,,,0,,,67,0
15483,note_on,5,0,1,,,,,,,,,,,,,,,,0,,,72,0
15485,note_on,2,0,1,,,,,,,,,,,,,,,,0,,,67,0
15493,note_on,8,0,1,,,,,,,,,,,,,,,,0,,,63,0
15513,note_on,42,0,2,,,,,,,,,,,,,,,,0,,,72,0
15521,note_on,8,0,2,,,,,,,,,,,,,,,,0,,,70,103
15534,note_on,41,0,1,,,,,,,,,,,,,,,,0,,,55,76
15536,note_on,2,0,1,,,,,,,,,,,,,,,,0,,,43,69
15562,control_change,26,0,1,,,,,,,,,,,,,,,,0,64,0,,
15576,note_on,55,0,2,,,,,,,,,,,,,,,,0,,,69,100
15577,note_on,1,0,2,,,,,,,,,,,,,,,,0,,,70,0
15592,note_on,30,0,1,,,,,,,,,,,,,,,,0,,,64,63
15595,note_on,3,0,1,,,,,,,,,,,,,,,,0,,,61,28
15597,control_change,2,0,1,,,,,,,,,,,,,,,,0,64,127,,
15624,note_on,47,0,2,,,,,,,,,,,,,,,,0,,,69,0
15629,note_on,5,0,2,,,,,,,,,,,,,,,,0,,,70,90
15635,note_on,38,0,1,,,,,,,,,,,,,,,,0,,,55,0
15637,note_on,2,0,1,,,,,,,,,,,,,,,,0,,,43,0
15638,note_on,1,0,1,,,,,,,,,,,,,,,,0,,,70,65
15650,note_on,12,0,1,,,,,,,,,,,,,,,,0,,,64,0
15675,note_on,46,0,2,,,,,,,,,,,,,,,,0,,,70,0
15682,note_on,7,0,2,,,,,,,,,,,,,,,,0,,,73,104
15693,note_on,43,0,1,,,,,,,,,,,,,,,,0,,,73,62
15700,note_on,7,0,1,,,,,,,,,,,,,,,,0,,,64,35
15720,note_on,38,0,2,,,,,,,,,,,,,,,,0,,,73,0
15723,note_on,23,0,1,,,,,,,,,,,,,,,,0,,,61,0
15734,note_on,14,0,2,,,,,,,,,,,,,,,,0,,,72,87
15737,note_on,14,0,1,,,,,,,,,,,,,,,,0,,,70,0
15745,note_on,8,0,1,,,,,,,,,,,,,,,,0,,,73,0
15751,note_on,6,0,1,,,,,,,,,,,,,,,,0,,,70,36
15767,note_on,16,0,1,,,,,,,,,,,,,,,,0,,,64,0
15785,note_on,51,0,2,,,,,,,,,,,,,,,,0,,,72,0
15787,note_on,2,0,2,,,,,,,,,,,,,,,,0,,,70,97
15806,note_on,39,0,1,,,,,,,,,,,,,,,,0,,,67,37
15814,note_on,8,0,1,,,,,,,,,,,,,,,,0,,,70,0
15815,note_on,1,0,1,,,,,,,,,,,,,,,,0,,,67,0
15842,note_on,55,0,2,,,,,,,,,,,,,,,,0,,,70,0
15845,note_on,3,0,2,,,,,,,,,,,,,,,,0,,,72,95
15862,note_on,47,0,1,,,,,,,,,,,,,,,,0,,,41,54
15864,note_on,2,0,1,,,,,,,,,,,,,,,,0,,,53,55
15866,note_on,2,0,1,,,,,,,,,,,,,,,,0,,,48,53
15888,control_change,22,0,1,,,,,,,,,,,,,,,,0,64,0,,
15921,note_on,33,0,1,,,,,,,,,,,,,,,,0,,,60,49
15922,note_on,1,0,1,,,,,,,,,,,,,,,,0,,,65,64
15926,control_change,4,0,1,,,,,,,,,,,,,,,,0,64,127,,
15947,note_on,21,0,1,,,,,,,,,,,,,,,,0,,,41,0
15959,note_on,12,0,1,,,,,,,,,,,,,,,,0,,,53,0
15971,note_on,12,0,1,,,,,,,,,,,,,,,,0,,,60,36
15973,note_on,2,0,1,,,,,,,,,,,,,,,,0,,,69,63
15988,note_on,15,0,1,,,,,,,,,,,,,,,,0,,,48,0
16008,note_on,20,0,1,,,,,,,,,,,,,,,,0,,,60,0
16025,note_on,17,0,1,,,,,,,,,,,,,,,,0,,,65,67
16027,note_on,2,0,1,,,,,,,,,,,,,,,,0,,,72,66
16027,note_on,0,0,1,,,,,,,,,,,,,,,,0,,,60,60
16080,note_on,53,0,1,,,,,,,,,,,,,,,,0,,,65,0
16083,note_on,3,0,1,,,,,,,,,,,,,,,,0,,,69,62
16092,note_on,9,0,1,,,,,,,,,,,,,,,,0,,,60,0
16114,note_on,22,0,1,,,,,,,,,,,,,,,,0,,,69,0
16117,note_on,3,0,1,,,,,,,,,,,,,,,,0,,,65,0
16121,note_on,4,0,1,,,,,,,,,,,,,,,,0,,,72,0
16133,note_on,12,0,1,,,,,,,,,,,,,,,,0,,,65,58
16133,note_on,0,0,1,,,,,,,,,,,,,,,,0,,,60,48
16152,note_on,19,0,1,,,,,,,,,,,,,,,,0,,,60,0
16164,note_on,12,0,1,,,,,,,,,,,,,,,,0,,,69,0
16166,note_on,2,0,1,,,,,,,,,,,,,,,,0,,,65,0
16175,note_on,9,0,1,,,,,,,,,,,,,,,,0,,,60,0
16185,note_on,10,0,1,,,,,,,,,,,,,,,,0,,,41,51
16186,note_on,1,0,1,,,,,,,,,,,,,,,,0,,,53,52
16187,note_on,1,0,1,,,,,,,,,,,,,,,,0,,,48,51
16238,note_on,51,0,1,,,,,,,,,,,,,,,,0,,,65,65
16239,note_on,1,0,1,,,,,,,,,,,,,,,,0,,,63,47
16292,note_on,53,0,1,,,,,,,,,,,,,,,,0,,,69,52
16343,note_on,51,0,1,,,,,,,,,,,,,,,,0,,,72,51
16344,note_on,1,0,1,,,,,,,,,,,,,,,,0,,,41,0
16345,note_on,1,0,1,,,,,,,,,,,,,,,,0,,,53,0
16347,note_on,2,0,1,,,,,,,,,,,,,,,,0,,,48,0
16352,note_on,5,0,1,,,,,,,,,,,,,,,,0,,,65,0
16400,note_on,48,0,1,,,,,,,,,,,,,,,,0,,,69,49
16404,note_on,4,0,1,,,,,,,,,,,,,,,,0,,,63,0
16451,note_on,47,0,1,,,,,,,,,,,,,,,,0,,,69,0
16455,note_on,4,0,1,,,,,,,,,,,,,,,,0,,,72,0
16461,note_on,6,0,1,,,,,,,,,,,,,,,,0,,,65,52
16466,note_on,5,0,1,,,,,,,,,,,,,,,,0,,,69,0
16519,note_on,53,0,1,,,,,,,,,,,,,,,,0,,,34,60
16520,note_on,1,0,1,,,,,,,,,,,,,,,,0,,,46,52
16522,note_on,2,0,1,,,,,,,,,,,,,,,,0,,,41,53
16527,note_on,5,0,1,,,,,,,,,,,,,,,,0,,,65,0
16534,control_change,7,0,1,,,,,,,,,,,,,,,,0,64,0,,
16536,note_on,691,0,2,,,,,,,,,,,,,,,,0,,,70,81
16540,note_on,4,0,2,,,,,,,,,,,,,,,,0,,,72,0
16578,note_on,0,0,1,,,,,,,,,,,,,,,,0,,,65,61
16578,control_change,44,0,1,,,,,,,,,,,,,,,,0,64,127,,
16581,note_on,3,0,1,,,,,,,,,,,,,,,,0,,,62,35
16601,note_on,20,0,1,,,,,,,,,,,,,,,,0,,,34,0
16613,note_on,12,0,1,,,,,,,,,,,,,,,,0,,,46,0
16629,note_on,16,0,1,,,,,,,,,,,,,,,,0,,,70,70
16668,note_on,39,0,1,,,,,,,,,,,,,,,,0,,,41,0
16681,note_on,0,0,1,,,,,,,,,,,,,,,,0,,,65,82
16681,note_on,13,0,1,,,,,,,,,,,,,,,,0,,,62,67
16682,note_on,1,0,1,,,,,,,,,,,,,,,,0,,,74,76
16735,note_on,0,0,1,,,,,,,,,,,,,,,,0,,,70,74
16735,note_on,53,0,1,,,,,,,,,,,,,,,,0,,,65,0
16757,note_on,22,0,1,,,,,,,,,,,,,,,,0,,,62,0
16767,note_on,10,0,1,,,,,,,,,,,,,,,,0,,,70,0
16779,note_on,12,0,1,,,,,,,,,,,,,,,,0,,,62,0
16789,note_on,10,0,1,,,,,,,,,,,,,,,,0,,,65,77
16800,note_on,11,0,1,,,,,,,,,,,,,,,,0,,,65,0
16809,note_on,9,0,1,,,,,,,,,,,,,,,,0,,,74,0
16810,note_on,1,0,1,,,,,,,,,,,,,,,,0,,,70,0
16835,note_on,25,0,1,,,,,,,,,,,,,,,,0,,,65,0
16837,note_on,2,0,1,,,,,,,,,,,,,,,,0,,,31,82
16838,note_on,1,0,1,,,,,,,,,,,,,,,,0,,,43,88
16869,control_change,31,0,1,,,,,,,,,,,,,,,,0,64,0,,
16895,note_on,26,0,1,,,,,,,,,,,,,,,,0,,,62,63
16895,note_on,0,0,1,,,,,,,,,,,,,,,,0,,,64,67
16903,control_change,8,0,1,,,,,,,,,,,,,,,,0,64,127,,
16910,note_on,7,0,1,,,,,,,,,,,,,,,,0,,,31,0
16912,note_on,2,0,1,,,,,,,,,,,,,,,,0,,,43,0
16948,note_on,36,0,1,,,,,,,,,,,,,,,,0,,,70,65
16970,note_on,22,0,1,,,,,,,,,,,,,,,,0,,,62,0
16999,note_on,29,0,1,,,,,,,,,,,,,,,,0,,,62,77
16999,note_on,0,0,1,,,,,,,,,,,,,,,,0,,,74,83
17028,note_on,0,0,1,,,,,,,,,,,,,,,,0,,,64,0
17028,note_on,29,0,1,,,,,,,,,,,,,,,,0,,,70,0
17038,note_on,498,0,2,,,,,,,,,,,,,,,,0,,,69,110
17041,note_on,3,0,2,,,,,,,,,,,,,,,,0,,,70,0
17055,note_on,27,0,1,,,,,,,,,,,,,,,,0,,,70,71
17080,note_on,25,0,1,,,,,,,,,,,,,,,,0,,,62,0
17098,note_on,18,0,1,,,,,,,,,,,,,,,,0,,,74,0
17108,note_on,10,0,1,,,,,,,,,,,,,,,,0,,,65,65
17109,note_on,68,0,2,,,,,,,,,,,,,,,,0,,,69,0
17111,note_on,2,0,2,,,,,,,,,,,,,,,,0,,,70,102
17128,note_on,20,0,1,,,,,,,,,,,,,,,,0,,,65,0
17128,note_on,0,0,1,,,,,,,,,,,,,,,,0,,,70,0
17158,note_on,30,0,1,,,,,,,,,,,,,,,,0,,,29,74
17160,note_on,2,0,1,,,,,,,,,,,,,,,,0,,,41,74
17168,note_on,57,0,2,,,,,,,,,,,,,,,,0,,,70,0
17169,note_on,1,0,2,,,,,,,,,,,,,,,,0,,,74,105
17192,control_change,32,0,1,,,,,,,,,,,,,,,,0,64,0,,
17216,note_on,24,0,1,,,,,,,,,,,,,,,,0,,,65,69
17217,note_on,1,0,1,,,,,,,,,,,,,,,,0,,,62,59
17233,control_change,16,0,1,,,,,,,,,,,,,,,,0,64,127,,
17238,note_on,5,0,1,,,,,,,,,,,,,,,,0,,,29,0
17246,note_on,8,0,1,,,,,,,,,,,,,,,,0,,,41,0
17268,note_on,22,0,1,,,,,,,,,,,,,,,,0,,,70,66
17272,note_on,4,0,1,,,,,,,,,,,,,,,,0,,,62,28
17289,note_on,17,0,1,,,,,,,,,,,,,,,,0,,,65,0
17306,note_on,17,0,1,,,,,,,,,,,,,,,,0,,,62,0
17321,note_on,15,0,1,,,,,,,,,,,,,,,,0,,,62,50
17323,note_on,2,0,1,,,,,,,,,,,,,,,,0,,,74,46
17324,note_on,1,0,1,,,,,,,,,,,,,,,,0,,,65,60
17366,note_on,42,0,1,,,,,,,,,,,,,,,,0,,,70,0
17373,note_on,7,0,1,,,,,,,,,,,,,,,,0,,,70,66
17386,note_on,13,0,1,,,,,,,,,,,,,,,,0,,,62,0
17427,note_on,41,0,1,,,,,,,,,,,,,,,,0,,,62,36
17429,note_on,2,0,1,,,,,,,,,,,,,,,,0,,,65,60
17431,note_on,2,0,1,,,,,,,,,,,,,,,,0,,,62,0
17442,note_on,11,0,1,,,,,,,,,,,,,,,,0,,,65,0
17442,note_on,0,0,1,,,,,,,,,,,,,,,,0,,,74,0
17444,note_on,2,0,1,,,,,,,,,,,,,,,,0,,,62,0
17444,note_on,0,0,1,,,,,,,,,,,,,,,,0,,,70,0
17446,note_on,2,0,1,,,,,,,,,,,,,,,,0,,,65,0
17482,note_on,36,0,1,,,,,,,,,,,,,,,,0,,,29,52
17483,note_on,1,0,1,,,,,,,,,,,,,,,,0,,,41,49
17540,note_on,57,0,1,,,,,,,,,,,,,,,,0,,,65,58
17600,note_on,60,0,1,,,,,,,,,,,,,,,,0,,,69,36
17622,note_on,22,0,1,,,,,,,,,,,,,,,,0,,,29,0
17623,note_on,1,0,1,,,,,,,,,,,,,,,,0,,,41,0
17642,note_on,19,0,1,,,,,,,,,,,,,,,,0,,,65,0
17653,note_on,11,0,1,,,,,,,,,,,,,,,,0,,,72,38
17706,note_on,53,0,1,,,,,,,,,,,,,,,,0,,,69,0
17707,note_on,538,0,2,,,,,,,,,,,,,,,,0,,,72,87
17710,note_on,3,0,2,,,,,,,,,,,,,,,,0,,,74,0
17712,note_on,6,0,1,,,,,,,,,,,,,,,,0,,,69,49
17748,note_on,36,0,1,,,,,,,,,,,,,,,,0,,,72,0
17766,note_on,18,0,1,,,,,,,,,,,,,,,,0,,,65,57
17770,note_on,4,0,1,,,,,,,,,,,,,,,,0,,,69,0
17786,note_on,16,0,1,,,,,,,,,,,,,,,,0,,,65,0
17818,note_on,32,0,1,,,,,,,,,,,,,,,,0,,,34,51
17820,note_on,2,0,1,,,,,,,,,,,,,,,,0,,,46,48
17822,note_on,2,0,1,,,,,,,,,,,,,,,,0,,,41,54
17824,note_on,114,0,2,,,,,,,,,,,,,,,,0,,,70,92
17829,note_on,5,0,2,,,,,,,,,,,,,,,,0,,,72,0
17844,control_change,22,0,1,,,,,,,,,,,,,,,,0,64,0,,
17881,note_on,37,0,1,,,,,,,,,,,,,,,,0,,,62,37
17881,note_on,0,0,1,,,,,,,,,,,,,,,,0,,,65,53
17885,control_change,4,0,1,,,,,,,,,,,,,,,,0,64,127,,
17906,note_on,21,0,1,,,,,,,,,,,,,,,,0,,,34,0
17915,note_on,9,0,1,,,,,,,,,,,,,,,,0,,,46,0
17929,note_on,14,0,1,,,,,,,,,,,,,,,,0,,,70,60
17934,note_on,5,0,1,,,,,,,,,,,,,,,,0,,,62,8
17950,note_on,16,0,1,,,,,,,,,,,,,,,,0,,,41,0
17967,note_on,17,0,1,,,,,,,,,,,,,,,,0,,,62,0
17980,note_on,13,0,1,,,,,,,,,,,,,,,,0,,,74,48
17982,note_on,2,0,1,,,,,,,,,,,,,,,,0,,,62,24
17982,note_on,0,0,1,,,,,,,,,,,,,,,,0,,,65,59
18024,note_on,42,0,1,,,,,,,,,,,,,,,,0,,,65,0
18034,note_on,10,0,1,,,,,,,,,,,,,,,,0,,,70,59
18048,note_on,14,0,1,,,,,,,,,,,,,,,,0,,,70,0
18068,note_on,20,0,1,,,,,,,,,,,,,,,,0,,,62,0
18075,note_on,7,0,1,,,,,,,,,,,,,,,,0,,,74,0
18086,note_on,11,0,1,,,,,,,,,,,,,,,,0,,,62,0
18093,note_on,7,0,1,,,,,,,,,,,,,,,,0,,,62,12
18095,note_on,2,0,1,,,,,,,,,,,,,,,,0,,,65,42
18124,note_on,29,0,1,,,,,,,,,,,,,,,,0,,,65,0
18132,note_on,8,0,1,,,,,,,,,,,,,,,,0,,,70,0
18136,note_on,4,0,1,,,,,,,,,,,,,,,,0,,,62,0
18145,note_on,9,0,1,,,,,,,,,,,,,,,,0,,,65,0
18146,note_on,1,0,1,,,,,,,,,,,,,,,,0,,,34,62
18148,note_on,2,0,1,,,,,,,,,,,,,,,,0,,,46,52
18150,note_on,2,0,1,,,,,,,,,,,,,,,,0,,,41,46
18183,note_on,33,0,1,,,,,,,,,,,,,,,,0,,,34,0
18184,note_on,1,0,1,,,,,,,,,,,,,,,,0,,,46,0
18187,note_on,3,0,1,,,,,,,,,,,,,,,,0,,,41,0
18201,note_on,14,0,1,,,,,,,,,,,,,,,,0,,,62,43
18205,note_on,4,0,1,,,,,,,,,,,,,,,,0,,,65,61
18220,note_on,15,0,1,,,,,,,,,,,,,,,,0,,,62,0
18226,note_on,6,0,1,,,,,,,,,,,,,,,,0,,,65,0
18254,note_on,28,0,1,,,,,,,,,,,,,,,,0,,,70,53
18259,note_on,5,0,1,,,,,,,,,,,,,,,,0,,,62,18
18260,note_on,1,0,1,,,,,,,,,,,,,,,,0,,,65,18
18309,note_on,49,0,1,,,,,,,,,,,,,,,,0,,,74,61
18312,note_on,3,0,1,,,,,,,,,,,,,,,,0,,,70,0
18340,note_on,28,0,1,,,,,,,,,,,,,,,,0,,,62,0
18355,note_on,15,0,1,,,,,,,,,,,,,,,,0,,,70,60
18410,note_on,55,0,1,,,,,,,,,,,,,,,,0,,,65,0
18412,note_on,2,0,1,,,,,,,,,,,,,,,,0,,,65,51
18461,note_on,49,0,1,,,,,,,,,,,,,,,,0,,,74,0
18466,note_on,5,0,1,,,,,,,,,,,,,,,,0,,,62,48
18473,note_on,7,0,1,,,,,,,,,,,,,,,,0,,,70,0
18523,note_on,50,0,1,,,,,,,,,,,,,,,,0,,,70,74
18530,note_on,7,0,1,,,,,,,,,,,,,,,,0,,,65,0
18538,note_on,8,0,1,,,,,,,,,,,,,,,,0,,,62,0
18559,note_on,21,0,1,,,,,,,,,,,,,,,,0,,,70,0
18568,note_on,9,0,1,,,,,,,,,,,,,,,,0,,,74,71
18578,note_on,10,0,1,,,,,,,,,,,,,,,,0,,,74,0
18623,note_on,45,0,1,,,,,,,,,,,,,,,,0,,,77,60
18627,note_on,4,0,1,,,,,,,,,,,,,,,,0,,,74,24
18633,note_on,6,0,1,,,,,,,,,,,,,,,,0,,,77,0
18678,note_on,45,0,1,,,,,,,,,,,,,,,,0,,,74,74
18686,note_on,8,0,1,,,,,,,,,,,,,,,,0,,,74,0
18732,note_on,46,0,1,,,,,,,,,,,,,,,,0,,,70,71
18766,note_on,34,0,1,,,,,,,,,,,,,,,,0,,,74,0
18785,note_on,19,0,1,,,,,,,,,,,,,,,,0,,,34,74
18786,note_on,1,0,1,,,,,,,,,,,,,,,,0,,,46,76
18788,note_on,2,0,1,,,,,,,,,,,,,,,,0,,,41,69
18842,note_on,54,0,1,,,,,,,,,,,,,,,,0,,,74,73
18893,note_on,51,0,1,,,,,,,,,,,,,,,,0,,,77,47
18894,note_on,1,0,1,,,,,,,,,,,,,,,,0,,,70,0
18899,note_on,5,0,1,,,,,,,,,,,,,,,,0,,,34,0
18900,note_on,1,0,1,,,,,,,,,,,,,,,,0,,,46,0
18911,note_on,11,0,1,,,,,,,,,,,,,,,,0,,,70,21
18917,note_on,6,0,1,,,,,,,,,,,,,,,,0,,,41,0
18921,note_on,4,0,1,,,,,,,,,,,,,,,,0,,,74,0
18922,note_on,1,0,1,,,,,,,,,,,,,,,,0,,,77,0
18923,note_on,1,0,1,,,,,,,,,,,,,,,,0,,,70,0
18947,note_on,24,0,1,,,,,,,,,,,,,,,,0,,,34,68
18947,note_on,0,0,1,,,,,,,,,,,,,,,,0,,,70,71
18948,note_on,0,0,1,,,,,,,,,,,,,,,,0,,,46,53
18948,note_on,1,0,1,,,,,,,,,,,,,,,,0,,,80,72
18950,note_on,2,0,1,,,,,,,,,,,,,,,,0,,,41,58
18951,note_on,1,0,1,,,,,,,,,,,,,,,,0,,,74,71
18966,note_on,15,0,1,,,,,,,,,,,,,,,,0,,,34,0
18972,note_on,6,0,1,,,,,,,,,,,,,,,,0,,,70,0
18973,note_on,1,0,1,,,,,,,,,,,,,,,,0,,,80,0
19013,note_on,40,0,1,,,,,,,,,,,,,,,,0,,,46,0
19017,note_on,4,0,1,,,,,,,,,,,,,,,,0,,,77,54
19062,note_on,45,0,1,,,,,,,,,,,,,,,,0,,,41,0
19067,note_on,5,0,1,,,,,,,,,,,,,,,,0,,,74,0
19069,note_on,2,0,1,,,,,,,,,,,,,,,,0,,,74,45
19075,note_on,6,0,1,,,,,,,,,,,,,,,,0,,,77,0
19081,note_on,6,0,1,,,,,,,,,,,,,,,,0,,,74,0
19116,note_on,35,0,1,,,,,,,,,,,,,,,,0,,,46,79
19116,note_on,0,0,1,,,,,,,,,,,,,,,,0,,,34,76
19138,control_change,22,0,1,,,,,,,,,,,,,,,,0,64,0,,
19172,control_change,34,0,1,,,,,,,,,,,,,,,,0,64,127,,
19174,note_on,2,0,1,,,,,,,,,,,,,,,,0,,,70,71
19176,note_on,2,0,1,,,,,,,,,,,,,,,,0,,,67,50
19197,note_on,21,0,1,,,,,,,,,,,,,,,,0,,,34,0
19197,note_on,0,0,1,,,,,,,,,,,,,,,,0,,,46,0
19227,note_on,30,0,1,,,,,,,,,,,,,,,,0,,,75,63
19231,note_on,4,0,1,,,,,,,,,,,,,,,,0,,,67,36
19245,note_on,14,0,1,,,,,,,,,,,,,,,,0,,,70,0
19273,note_on,28,0,1,,,,,,,,,,,,,,,,0,,,67,0
19282,note_on,9,0,1,,,,,,,,,,,,,,,,0,,,67,59
19284,note_on,2,0,1,,,,,,,,,,,,,,,,0,,,79,56
19337,note_on,53,0,1,,,,,,,,,,,,,,,,0,,,75,57
19344,note_on,7,0,1,,,,,,,,,,,,,,,,0,,,75,0
19394,note_on,50,0,1,,,,,,,,,,,,,,,,0,,,67,42
19396,note_on,2,0,1,,,,,,,,,,,,,,,,0,,,67,0
19400,note_on,4,0,1,,,,,,,,,,,,,,,,0,,,79,0
19400,note_on,0,0,1,,,,,,,,,,,,,,,,0,,,67,0
19408,note_on,8,0,1,,,,,,,,,,,,,,,,0,,,75,0
19420,note_on,12,0,1,,,,,,,,,,,,,,,,0,,,67,0
19444,note_on,24,0,1,,,,,,,,,,,,,,,,0,,,34,60
19446,note_on,2,0,1,,,,,,,,,,,,,,,,0,,,46,48
19450,note_on,4,0,1,,,,,,,,,,,,,,,,0,,,41,53
19502,note_on,52,0,1,,,,,,,,,,,,,,,,0,,,66,51
19504,note_on,2,0,1,,,,,,,,,,,,,,,,0,,,69,58
19510,note_on,6,0,1,,,,,,,,,,,,,,,,0,,,34,0
19515,note_on,5,0,1,,,,,,,,,,,,,,,,0,,,46,0
19558,note_on,43,0,1,,,,,,,,,,,,,,,,0,,,75,59
19565,note_on,7,0,1,,,,,,,,,,,,,,,,0,,,41,0
19616,note_on,51,0,1,,,,,,,,,,,,,,,,0,,,78,57
19617,note_on,1,0,1,,,,,,,,,,,,,,,,0,,,75,53
19655,note_on,38,0,1,,,,,,,,,,,,,,,,0,,,66,0
19664,note_on,9,0,1,,,,,,,,,,,,,,,,0,,,69,0
19673,note_on,9,0,1,,,,,,,,,,,,,,,,0,,,75,57
19727,note_on,54,0,1,,,,,,,,,,,,,,,,0,,,75,0
19728,note_on,1,0,1,,,,,,,,,,,,,,,,0,,,69,50
19730,note_on,2,0,1,,,,,,,,,,,,,,,,0,,,78,0
19737,note_on,7,0,1,,,,,,,,,,,,,,,,0,,,75,0
19741,note_on,4,0,1,,,,,,,,,,,,,,,,0,,,75,0
19748,note_on,7,0,1,,,,,,,,,,,,,,,,0,,,69,0
19781,note_on,33,0,1,,,,,,,,,,,,,,,,0,,,34,59
19782,note_on,1,0,1,,,,,,,,,,,,,,,,0,,,46,53
19786,note_on,4,0,1,,,,,,,,,,,,,,,,0,,,41,41
19814,control_change,28,0,1,,,,,,,,,,,,,,,,0,64,0,,
19842,note_on,28,0,1,,,,,,,,,,,,,,,,0,,,70,57
19845,note_on,3,0,1,,,,,,,,,,,,,,,,0,,,65,42
19850,control_change,5,0,1,,,,,,,,,,,,,,,,0,64,127,,
19867,note_on,17,0,1,,,,,,,,,,,,,,,,0,,,34,0
19880,note_on,13,0,1,,,,,,,,,,,,,,,,0,,,46,0
19898,note_on,18,0,1,,,,,,,,,,,,,,,,0,,,74,45
19926,note_on,28,0,1,,,,,,,,,,,,,,,,0,,,41,0
19947,note_on,21,0,1,,,,,,,,,,,,,,,,0,,,70,59
19953,note_on,6,0,1,,,,,,,,,,,,,,,,0,,,77,24
19992,note_on,39,0,1,,,,,,,,,,,,,,,,0,,,70,0
19996,note_on,4,0,1,,,,,,,,,,,,,,,,0,,,65,0
20003,note_on,7,0,1,,,,,,,,,,,,,,,,0,,,65,16
20009,note_on,6,0,1,,,,,,,,,,,,,,,,0,,,74,38
20029,note_on,20,0,1,,,,,,,,,,,,,,,,0,,,74,0
20042,note_on,13,0,1,,,,,,,,,,,,,,,,0,,,70,0
20043,note_on,1,0,1,,,,,,,,,,,,,,,,0,,,77,0
20056,note_on,13,0,1,,,,,,,,,,,,,,,,0,,,65,0
20058,note_on,2,0,1,,,,,,,,,,,,,,,,0,,,70,57
20075,note_on,17,0,1,,,,,,,,,,,,,,,,0,,,74,0
20076,note_on,1,0,1,,,,,,,,,,,,,,,,0,,,70,0
20109,note_on,33,0,1,,,,,,,,,,,,,,,,0,,,34,51
20111,note_on,2,0,1,,,,,,,,,,,,,,,,0,,,46,42
20114,note_on,3,0,1,,,,,,,,,,,,,,,,0,,,41,48
20167,note_on,53,0,1,,,,,,,,,,,,,,,,0,,,65,64
20185,note_on,18,0,1,,,,,,,,,,,,,,,,0,,,34,0
20221,note_on,36,0,1,,,,,,,,,,,,,,,,0,,,70,58
20232,note_on,11,0,1,,,,,,,,,,,,,,,,0,,,46,0
20277,note_on,45,0,1,,,,,,,,,,,,,,,,0,,,74,49
20279,note_on,2,0,1,,,,,,,,,,,,,,,,0,,,65,40
20284,note_on,5,0,1,,,,,,,,,,,,,,,,0,,,62,28
20295,note_on,11,0,1,,,,,,,,,,,,,,,,0,,,41,0
20298,note_on,3,0,1,,,,,,,,,,,,,,,,0,,,65,0
20311,note_on,13,0,1,,,,,,,,,,,,,,,,0,,,70,0
20336,note_on,25,0,1,,,,,,,,,,,,,,,,0,,,70,50
20367,note_on,31,0,1,,,,,,,,,,,,,,,,0,,,74,0
20377,note_on,10,0,1,,,,,,,,,,,,,,,,0,,,65,0
20380,note_on,3,0,1,,,,,,,,,,,,,,,,0,,,62,0
20395,note_on,15,0,1,,,,,,,,,,,,,,,,0,,,65,54
20412,note_on,17,0,1,,,,,,,,,,,,,,,,0,,,70,0
20414,note_on,2,0,1,,,,,,,,,,,,,,,,0,,,65,0
20443,note_on,29,0,1,,,,,,,,,,,,,,,,0,,,34,69
20444,note_on,1,0,1,,,,,,,,,,,,,,,,0,,,46,62
20444,note_on,2615,0,2,,,,,,,,,,,,,,,,0,,,70,0
20446,note_on,2,0,1,,,,,,,,,,,,,,,,0,,,41,62
20471,control_change,25,0,1,,,,,,,,,,,,,,,,0,64,0,,
20471,note_on,27,0,2,,,,,,,,,,,,,,,,0,,,70,96
20503,note_on,32,0,1,,,,,,,,,,,,,,,,0,,,62,47
20508,control_change,5,0,1,,,,,,,,,,,,,,,,0,64,127,,
20533,note_on,25,0,1,,,,,,,,,,,,,,,,0,,,34,0
20558,note_on,25,0,1,,,,,,,,,,,,,,,,0,,,70,63
20560,note_on,2,0,1,,,,,,,,,,,,,,,,0,,,65,48
20566,note_on,6,0,1,,,,,,,,,,,,,,,,0,,,46,0
20571,note_on,5,0,1,,,,,,,,,,,,,,,,0,,,41,0
20611,note_on,40,0,1,,,,,,,,,,,,,,,,0,,,74,77
20614,note_on,3,0,1,,,,,,,,,,,,,,,,0,,,62,43
20615,note_on,1,0,1,,,,,,,,,,,,,,,,0,,,65,41
20649,note_on,34,0,1,,,,,,,,,,,,,,,,0,,,62,0
20653,note_on,4,0,1,,,,,,,,,,,,,,,,0,,,70,0
20658,note_on,5,0,1,,,,,,,,,,,,,,,,0,,,65,0
20666,note_on,8,0,1,,,,,,,,,,,,,,,,0,,,70,61
20673,note_on,7,0,1,,,,,,,,,,,,,,,,0,,,74,0
20718,note_on,45,0,1,,,,,,,,,,,,,,,,0,,,65,67
20730,note_on,12,0,1,,,,,,,,,,,,,,,,0,,,62,0
20731,note_on,1,0,1,,,,,,,,,,,,,,,,0,,,65,0
20734,note_on,3,0,1,,,,,,,,,,,,,,,,0,,,70,0
20736,note_on,2,0,1,,,,,,,,,,,,,,,,0,,,65,0
20771,note_on,35,0,1,,,,,,,,,,,,,,,,0,,,31,76
20773,note_on,2,0,1,,,,,,,,,,,,,,,,0,,,43,80
20797,control_change,24,0,1,,,,,,,,,,,,,,,,0,64,0,,
20828,control_change,31,0,1,,,,,,,,,,,,,,,,0,64,127,,
20829,note_on,1,0,1,,,,,,,,,,,,,,,,0,,,64,63
20832,note_on,3,0,1,,,,,,,,,,,,,,,,0,,,62,32
20836,note_on,4,0,1,,,,,,,,,,,,,,,,0,,,31,0
20838,note_on,2,0,1,,,,,,,,,,,,,,,,0,,,43,0
20884,note_on,46,0,1,,,,,,,,,,,,,,,,0,,,70,70
20890,note_on,6,0,1,,,,,,,,,,,,,,,,0,,,62,29
20896,note_on,6,0,1,,,,,,,,,,,,,,,,0,,,64,0
20908,note_on,12,0,1,,,,,,,,,,,,,,,,0,,,62,0
20936,note_on,28,0,1,,,,,,,,,,,,,,,,0,,,62,71
20937,note_on,1,0,1,,,,,,,,,,,,,,,,0,,,74,76
20942,note_on,471,0,2,,,,,,,,,,,,,,,,0,,,69,110
20946,note_on,4,0,2,,,,,,,,,,,,,,,,0,,,70,0
20974,note_on,37,0,1,,,,,,,,,,,,,,,,0,,,70,0
20978,note_on,4,0,1,,,,,,,,,,,,,,,,0,,,62,0
20992,note_on,14,0,1,,,,,,,,,,,,,,,,0,,,70,63
21036,note_on,44,0,1,,,,,,,,,,,,,,,,0,,,62,0
21042,note_on,6,0,1,,,,,,,,,,,,,,,,0,,,65,60
21051,note_on,105,0,2,,,,,,,,,,,,,,,,0,,,70,106
21052,note_on,1,0,2,,,,,,,,,,,,,,,,0,,,69,0
21054,note_on,12,0,1,,,,,,,,,,,,,,,,0,,,74,0
21062,note_on,8,0,1,,,,,,,,,,,,,,,,0,,,70,0
21078,note_on,16,0,1,,,,,,,,,,,,,,,,0,,,65,0
21091,note_on,13,0,1,,,,,,,,,,,,,,,,0,,,29,70
21094,note_on,3,0,1,,,,,,,,,,,,,,,,0,,,41,68
21109,note_on,57,0,2,,,,,,,,,,,,,,,,0,,,70,0
21115,note_on,6,0,2,,,,,,,,,,,,,,,,0,,,74,105
21135,control_change,41,0,1,,,,,,,,,,,,,,,,0,64,0,,
21155,note_on,20,0,1,,,,,,,,,,,,,,,,0,,,65,63
21156,note_on,1,0,1,,,,,,,,,,,,,,,,0,,,62,41
21171,control_change,15,0,1,,,,,,,,,,,,,,,,0,64,127,,
21190,note_on,19,0,1,,,,,,,,,,,,,,,,0,,,29,0
21207,note_on,17,0,1,,,,,,,,,,,,,,,,0,,,70,66
21229,note_on,22,0,1,,,,,,,,,,,,,,,,0,,,41,0
21262,note_on,33,0,1,,,,,,,,,,,,,,,,0,,,62,30
21263,note_on,1,0,1,,,,,,,,,,,,,,,,0,,,74,51
21263,note_on,0,0,1,,,,,,,,,,,,,,,,0,,,65,59
21264,note_on,1,0,1,,,,,,,,,,,,,,,,0,,,65,0
21314,note_on,50,0,1,,,,,,,,,,,,,,,,0,,,62,0
21317,note_on,3,0,1,,,,,,,,,,,,,,,,0,,,70,60
21372,note_on,55,0,1,,,,,,,,,,,,,,,,0,,,70,0
21374,note_on,2,0,1,,,,,,,,,,,,,,,,0,,,65,45
21375,note_on,1,0,1,,,,,,,,,,,,,,,,0,,,62,0
21395,note_on,20,0,1,,,,,,,,,,,,,,,,0,,,65,0
21395,note_on,0,0,1,,,,,,,,,,,,,,,,0,,,74,0
21402,note_on,7,0,1,,,,,,,,,,,,,,,,0,,,70,0
21407,note_on,5,0,1,,,,,,,,,,,,,,,,0,,,65,0
21431,note_on,24,0,1,,,,,,,,,,,,,,,,0,,,41,57
21485,note_on,54,0,1,,,,,,,,,,,,,,,,0,,,63,57
21486,note_on,1,0,1,,,,,,,,,,,,,,,,0,,,69,65
21539,note_on,53,0,1,,,,,,,,,,,,,,,,0,,,72,58
21544,note_on,5,0,1,,,,,,,,,,,,,,,,0,,,41,0
21546,note_on,2,0,1,,,,,,,,,,,,,,,,0,,,63,0
21547,note_on,1,0,1,,,,,,,,,,,,,,,,0,,,69,0
21591,note_on,44,0,1,,,,,,,,,,,,,,,,0,,,75,62
21592,note_on,1,0,1,,,,,,,,,,,,,,,,0,,,63,50
21595,note_on,3,0,1,,,,,,,,,,,,,,,,0,,,69,56
21611,note_on,16,0,1,,,,,,,,,,,,,,,,0,,,72,0
21649,note_on,534,0,2,,,,,,,,,,,,,,,,0,,,72,88
21651,note_on,40,0,1,,,,,,,,,,,,,,,,0,,,75,0
21655,note_on,4,0,1,,,,,,,,,,,,,,,,0,,,72,54
21655,note_on,6,0,2,,,,,,,,,,,,,,,,0,,,74,0
21705,note_on,50,0,1,,,,,,,,,,,,,,,,0,,,63,0
21710,note_on,5,0,1,,,,,,,,,,,,,,,,0,,,69,60
21717,note_on,7,0,1,,,,,,,,,,,,,,,,0,,,69,0
21719,note_on,2,0,1,,,,,,,,,,,,,,,,0,,,72,0
21730,note_on,11,0,1,,,,,,,,,,,,,,,,0,,,69,0
21757,note_on,102,0,2,,,,,,,,,,,,,,,,0,,,70,93
21759,note_on,29,0,1,,,,,,,,,,,,,,,,0,,,31,78
21760,note_on,1,0,1,,,,,,,,,,,,,,,,0,,,43,71
21762,note_on,5,0,2,,,,,,,,,,,,,,,,0,,,72,0
21791,control_change,31,0,1,,,,,,,,,,,,,,,,0,64,0,,
21816,note_on,25,0,1,,,,,,,,,,,,,,,,0,,,67,72
21817,note_on,1,0,1,,,,,,,,,,,,,,,,0,,,62,63
21826,control_change,9,0,1,,,,,,,,,,,,,,,,0,64,127,,
21841,note_on,15,0,1,,,,,,,,,,,,,,,,0,,,31,0
21854,note_on,13,0,1,,,,,,,,,,,,,,,,0,,,43,0
21869,note_on,15,0,1,,,,,,,,,,,,,,,,0,,,70,68
21876,note_on,7,0,1,,,,,,,,,,,,,,,,0,,,62,39
21885,note_on,9,0,1,,,,,,,,,,,,,,,,0,,,67,0
21920,note_on,35,0,1,,,,,,,,,,,,,,,,0,,,62,0
21925,note_on,5,0,1,,,,,,,,,,,,,,,,0,,,67,55
21926,note_on,1,0,1,,,,,,,,,,,,,,,,0,,,62,54
21928,note_on,2,0,1,,,,,,,,,,,,,,,,0,,,74,45
21982,note_on,54,0,1,,,,,,,,,,,,,,,,0,,,70,0
21985,note_on,3,0,1,,,,,,,,,,,,,,,,0,,,70,60
22000,note_on,15,0,1,,,,,,,,,,,,,,,,0,,,62,0
22034,note_on,34,0,1,,,,,,,,,,,,,,,,0,,,62,48
22041,note_on,7,0,1,,,,,,,,,,,,,,,,0,,,67,56
22047,note_on,6,0,1,,,,,,,,,,,,,,,,0,,,67,0
22057,note_on,10,0,1,,,,,,,,,,,,,,,,0,,,62,0
22082,note_on,25,0,1,,,,,,,,,,,,,,,,0,,,74,0
22092,note_on,10,0,1,,,,,,,,,,,,,,,,0,,,70,0
22092,note_on,0,0,1,,,,,,,,,,,,,,,,0,,,43,66
22092,note_on,0,0,1,,,,,,,,,,,,,,,,0,,,31,69
22103,note_on,11,0,1,,,,,,,,,,,,,,,,0,,,62,0
22107,note_on,4,0,1,,,,,,,,,,,,,,,,0,,,67,0
22145,note_on,38,0,1,,,,,,,,,,,,,,,,0,,,62,48
22146,note_on,1,0,1,,,,,,,,,,,,,,,,0,,,67,61
22186,note_on,40,0,1,,,,,,,,,,,,,,,,0,,,43,0
22200,note_on,14,0,1,,,,,,,,,,,,,,,,0,,,70,65
22232,note_on,32,0,1,,,,,,,,,,,,,,,,0,,,31,0
22254,note_on,22,0,1,,,,,,,,,,,,,,,,0,,,62,19
22257,note_on,3,0,1,,,,,,,,,,,,,,,,0,,,74,54
22265,note_on,8,0,1,,,,,,,,,,,,,,,,0,,,62,0
22281,note_on,16,0,1,,,,,,,,,,,,,,,,0,,,67,0
22290,note_on,9,0,1,,,,,,,,,,,,,,,,0,,,70,0
22312,note_on,22,0,1,,,,,,,,,,,,,,,,0,,,70,58
22369,note_on,57,0,1,,,,,,,,,,,,,,,,0,,,67,51
22386,note_on,17,0,1,,,,,,,,,,,,,,,,0,,,62,0
22392,note_on,0,0,1,,,,,,,,,,,,,,,,0,,,70,0
22392,note_on,6,0,1,,,,,,,,,,,,,,,,0,,,74,0
22401,note_on,9,0,1,,,,,,,,,,,,,,,,0,,,67,0
22419,note_on,18,0,1,,,,,,,,,,,,,,,,0,,,29,71
22419,note_on,657,0,2,,,,,,,,,,,,,,,,0,,,72,95
22420,note_on,1,0,1,,,,,,,,,,,,,,,,0,,,41,70
22425,note_on,6,0,2,,,,,,,,,,,,,,,,0,,,70,0
22439,control_change,19,0,1,,,,,,,,,,,,,,,,0,64,0,,
22479,note_on,40,0,1,,,,,,,,,,,,,,,,0,,,67,75
22480,note_on,1,0,1,,,,,,,,,,,,,,,,0,,,63,74
22482,control_change,2,0,1,,,,,,,,,,,,,,,,0,64,127,,
22509,note_on,27,0,1,,,,,,,,,,,,,,,,0,,,29,0
22517,note_on,8,0,1,,,,,,,,,,,,,,,,0,,,41,0
22529,note_on,12,0,1,,,,,,,,,,,,,,,,0,,,63,71
22531,note_on,2,0,1,,,,,,,,,,,,,,,,0,,,72,74
22558,note_on,27,0,1,,,,,,,,,,,,,,,,0,,,67,0
22567,note_on,9,0,1,,,,,,,,,,,,,,,,0,,,63,0
22585,note_on,18,0,1,,,,,,,,,,,,,,,,0,,,75,72
22586,note_on,1,0,1,,,,,,,,,,,,,,,,0,,,67,69
22639,note_on,53,0,1,,,,,,,,,,,,,,,,0,,,63,0
22642,note_on,3,0,1,,,,,,,,,,,,,,,,0,,,72,67
22645,note_on,3,0,1,,,,,,,,,,,,,,,,0,,,63,51
22658,note_on,13,0,1,,,,,,,,,,,,,,,,0,,,72,0
22668,note_on,10,0,1,,,,,,,,,,,,,,,,0,,,75,0
22689,note_on,21,0,1,,,,,,,,,,,,,,,,0,,,67,0
22699,note_on,10,0,1,,,,,,,,,,,,,,,,0,,,67,55
22700,note_on,1,0,1,,,,,,,,,,,,,,,,0,,,63,56
22702,note_on,2,0,1,,,,,,,,,,,,,,,,0,,,72,0
22741,note_on,316,0,2,,,,,,,,,,,,,,,,0,,,72,0
22750,note_on,9,0,2,,,,,,,,,,,,,,,,0,,,74,85
22750,note_on,48,0,1,,,,,,,,,,,,,,,,0,,,29,66
22751,note_on,1,0,1,,,,,,,,,,,,,,,,0,,,41,66
22752,note_on,1,0,1,,,,,,,,,,,,,,,,0,,,63,0
22755,control_change,3,0,1,,,,,,,,,,,,,,,,0,64,0,,
22758,note_on,3,0,1,,,,,,,,,,,,,,,,0,,,67,0
22763,note_on,13,0,2,,,,,,,,,,,,,,,,0,,,72,89
22773,note_on,10,0,2,,,,,,,,,,,,,,,,0,,,74,0
22778,note_on,5,0,2,,,,,,,,,,,,,,,,0,,,70,97
22781,control_change,23,0,1,,,,,,,,,,,,,,,,0,64,127,,
22783,note_on,5,0,2,,,,,,,,,,,,,,,,0,,,72,0
22789,note_on,8,0,1,,,,,,,,,,,,,,,,0,,,63,0
22807,note_on,18,0,1,,,,,,,,,,,,,,,,0,,,65,77
22810,note_on,3,0,1,,,,,,,,,,,,,,,,0,,,63,41
22826,note_on,16,0,1,,,,,,,,,,,,,,,,0,,,29,0
22841,note_on,58,0,2,,,,,,,,,,,,,,,,0,,,70,0
22843,note_on,17,0,1,,,,,,,,,,,,,,,,0,,,41,0
22847,note_on,6,0,2,,,,,,,,,,,,,,,,0,,,69,102
22863,note_on,20,0,1,,,,,,,,,,,,,,,,0,,,69,59
22865,note_on,2,0,1,,,,,,,,,,,,,,,,0,,,63,31
22882,note_on,17,0,1,,,,,,,,,,,,,,,,0,,,65,0
22902,note_on,20,0,1,,,,,,,,,,,,,,,,0,,,63,0
22909,note_on,0,0,1,,,,,,,,,,,,,,,,0,,,63,0
22909,note_on,7,0,1,,,,,,,,,,,,,,,,0,,,69,0
22913,note_on,4,0,1,,,,,,,,,,,,,,,,0,,,63,34
22915,note_on,2,0,1,,,,,,,,,,,,,,,,0,,,65,66
22916,note_on,1,0,1,,,,,,,,,,,,,,,,0,,,72,51
22924,note_on,77,0,2,,,,,,,,,,,,,,,,0,,,69,0
22929,note_on,5,0,2,,,,,,,,,,,,,,,,0,,,67,96
22971,note_on,55,0,1,,,,,,,,,,,,,,,,0,,,63,0
22976,note_on,5,0,1,,,,,,,,,,,,,,,,0,,,65,0
22977,note_on,1,0,1,,,,,,,,,,,,,,,,0,,,69,41
23003,note_on,0,0,2,,,,,,,,,,,,,,,,0,,,69,92
23003,note_on,74,0,2,,,,,,,,,,,,,,,,0,,,67,0
23018,note_on,41,0,1,,,,,,,,,,,,,,,,0,,,72,0
23033,note_on,15,0,1,,,,,,,,,,,,,,,,0,,,65,57
23037,note_on,4,0,1,,,,,,,,,,,,,,,,0,,,69,0
23043,note_on,6,0,1,,,,,,,,,,,,,,,,0,,,65,0
23078,note_on,75,0,2,,,,,,,,,,,,,,,,0,,,70,91
23081,note_on,3,0,2,,,,,,,,,,,,,,,,0,,,69,0
23085,note_on,42,0,1,,,,,,,,,,,,,,,,0,,,34,63
23087,note_on,2,0,1,,,,,,,,,,,,,,,,0,,,46,63
23090,note_on,3,0,1,,,,,,,,,,,,,,,,0,,,41,60
23108,control_change,18,0,1,,,,,,,,,,,,,,,,0,64,0,,
23144,control_change,36,0,1,,,,,,,,,,,,,,,,0,64,127,,
23147,note_on,3,0,1,,,,,,,,,,,,,,,,0,,,65,66
23149,note_on,2,0,1,,,,,,,,,,,,,,,,0,,,62,44
23171,note_on,22,0,1,,,,,,,,,,,,,,,,0,,,34,0
23173,note_on,2,0,1,,,,,,,,,,,,,,,,0,,,46,0
23198,note_on,25,0,1,,,,,,,,,,,,,,,,0,,,70,68
23205,note_on,7,0,1,,,,,,,,,,,,,,,,0,,,62,21
23215,note_on,10,0,1,,,,,,,,,,,,,,,,0,,,41,0
23230,note_on,15,0,1,,,,,,,,,,,,,,,,0,,,65,0
23251,note_on,21,0,1,,,,,,,,,,,,,,,,0,,,74,65
23254,note_on,3,0,1,,,,,,,,,,,,,,,,0,,,65,59
23258,note_on,4,0,1,,,,,,,,,,,,,,,,0,,,62,32
23272,note_on,14,0,1,,,,,,,,,,,,,,,,0,,,62,0
23281,note_on,9,0,1,,,,,,,,,,,,,,,,0,,,70,0
23311,note_on,30,0,1,,,,,,,,,,,,,,,,0,,,70,53
23345,note_on,34,0,1,,,,,,,,,,,,,,,,0,,,62,0
23357,note_on,12,0,1,,,,,,,,,,,,,,,,0,,,74,0
23368,note_on,11,0,1,,,,,,,,,,,,,,,,0,,,65,0
23369,note_on,1,0,1,,,,,,,,,,,,,,,,0,,,62,0
23370,note_on,1,0,1,,,,,,,,,,,,,,,,0,,,65,46
23376,note_on,6,0,1,,,,,,,,,,,,,,,,0,,,70,0
23378,note_on,2,0,1,,,,,,,,,,,,,,,,0,,,65,0
23423,note_on,45,0,1,,,,,,,,,,,,,,,,0,,,46,57
23423,note_on,0,0,1,,,,,,,,,,,,,,,,0,,,34,59
23426,note_on,3,0,1,,,,,,,,,,,,,,,,0,,,41,55
23453,control_change,27,0,1,,,,,,,,,,,,,,,,0,64,0,,
23462,control_change,9,0,1,,,,,,,,,,,,,,,,0,64,127,,
23482,note_on,20,0,1,,,,,,,,,,,,,,,,0,,,62,48
23482,note_on,0,0,1,,,,,,,,,,,,,,,,0,,,65,59
23490,note_on,8,0,1,,,,,,,,,,,,,,,,0,,,46,0
23492,note_on,2,0,1,,,,,,,,,,,,,,,,0,,,34,0
23528,note_on,36,0,1,,,,,,,,,,,,,,,,0,,,70,71
23531,note_on,3,0,1,,,,,,,,,,,,,,,,0,,,62,38
23549,note_on,18,0,1,,,,,,,,,,,,,,,,0,,,41,0
23566,note_on,17,0,1,,,,,,,,,,,,,,,,0,,,62,0
23582,note_on,16,0,1,,,,,,,,,,,,,,,,0,,,74,69
23582,note_on,0,0,1,,,,,,,,,,,,,,,,0,,,62,63
23584,note_on,2,0,1,,,,,,,,,,,,,,,,0,,,65,73
23611,note_on,27,0,1,,,,,,,,,,,,,,,,0,,,65,0
23620,note_on,9,0,1,,,,,,,,,,,,,,,,0,,,70,0
23621,note_on,540,0,2,,,,,,,,,,,,,,,,0,,,70,0
23626,note_on,5,0,2,,,,,,,,,,,,,,,,0,,,74,105
23638,note_on,18,0,1,,,,,,,,,,,,,,,,0,,,70,70
23680,note_on,42,0,1,,,,,,,,,,,,,,,,0,,,62,0
23689,note_on,9,0,1,,,,,,,,,,,,,,,,0,,,74,0
23692,note_on,3,0,1,,,,,,,,,,,,,,,,0,,,65,67
23696,note_on,4,0,1,,,,,,,,,,,,,,,,0,,,62,37
23700,note_on,4,0,1,,,,,,,,,,,,,,,,0,,,62,0
23706,note_on,6,0,1,,,,,,,,,,,,,,,,0,,,65,0
23711,note_on,5,0,1,,,,,,,,,,,,,,,,0,,,70,0
23722,note_on,11,0,1,,,,,,,,,,,,,,,,0,,,65,0
23727,note_on,101,0,2,,,,,,,,,,,,,,,,0,,,74,0
23742,note_on,15,0,2,,,,,,,,,,,,,,,,0,,,74,110
23748,note_on,26,0,1,,,,,,,,,,,,,,,,0,,,46,90
23749,note_on,1,0,1,,,,,,,,,,,,,,,,0,,,34,89
23752,note_on,3,0,1,,,,,,,,,,,,,,,,0,,,62,0
23773,control_change,21,0,1,,,,,,,,,,,,,,,,0,64,0,,
23806,note_on,33,0,1,,,,,,,,,,,,,,,,0,,,66,77
23808,note_on,2,0,1,,,,,,,,,,,,,,,,0,,,62,60
23810,control_change,2,0,1,,,,,,,,,,,,,,,,0,64,127,,
23825,note_on,15,0,1,,,,,,,,,,,,,,,,0,,,46,0
23843,note_on,18,0,1,,,,,,,,,,,,,,,,0,,,34,0
23857,note_on,14,0,1,,,,,,,,,,,,,,,,0,,,70,70
23861,note_on,4,0,1,,,,,,,,,,,,,,,,0,,,62,41
23875,note_on,14,0,1,,,,,,,,,,,,,,,,0,,,66,0
23887,note_on,12,0,1,,,,,,,,,,,,,,,,0,,,62,0
23910,note_on,23,0,1,,,,,,,,,,,,,,,,0,,,66,84
23912,note_on,2,0,1,,,,,,,,,,,,,,,,0,,,74,77
23912,note_on,0,0,1,,,,,,,,,,,,,,,,0,,,62,70
23966,note_on,54,0,1,,,,,,,,,,,,,,,,0,,,70,0
23968,note_on,2,0,1,,,,,,,,,,,,,,,,0,,,70,80
24002,note_on,260,0,2,,,,,,,,,,,,,,,,0,,,74,0
24008,note_on,6,0,2,,,,,,,,,,,,,,,,0,,,72,92
24009,note_on,41,0,1,,,,,,,,,,,,,,,,0,,,62,0
24011,note_on,2,0,1,,,,,,,,,,,,,,,,0,,,66,0
24018,note_on,7,0,1,,,,,,,,,,,,,,,,0,,,66,79
24024,note_on,0,0,1,,,,,,,,,,,,,,,,0,,,62,0
24024,note_on,6,0,1,,,,,,,,,,,,,,,,0,,,74,0
24031,note_on,23,0,2,,,,,,,,,,,,,,,,0,,,70,108
24032,note_on,1,0,2,,,,,,,,,,,,,,,,0,,,72,0
24032,note_on,8,0,1,,,,,,,,,,,,,,,,0,,,70,0
24034,note_on,2,0,1,,,,,,,,,,,,,,,,0,,,66,0
24058,note_on,26,0,2,,,,,,,,,,,,,,,,0,,,69,124
24064,note_on,6,0,2,,,,,,,,,,,,,,,,0,,,70,0
24069,note_on,35,0,1,,,,,,,,,,,,,,,,0,,,46,98
24070,note_on,1,0,1,,,,,,,,,,,,,,,,0,,,34,96
24099,control_change,29,0,1,,,,,,,,,,,,,,,,0,64,0,,
24126,note_on,27,0,1,,,,,,,,,,,,,,,,0,,,66,84
24127,note_on,1,0,1,,,,,,,,,,,,,,,,0,,,62,70
24131,control_change,4,0,1,,,,,,,,,,,,,,,,0,64,127,,
24142,note_on,78,0,2,,,,,,,,,,,,,,,,0,,,69,0
24143,note_on,12,0,1,,,,,,,,,,,,,,,,0,,,46,0
24146,note_on,4,0,2,,,,,,,,,,,,,,,,0,,,67,101
24162,note_on,19,0,1,,,,,,,,,,,,,,,,0,,,34,0
24178,note_on,16,0,1,,,,,,,,,,,,,,,,0,,,70,80
24180,note_on,2,0,1,,,,,,,,,,,,,,,,0,,,62,36
24197,note_on,17,0,1,,,,,,,,,,,,,,,,0,,,66,0
24197,note_on,0,0,1,,,,,,,,,,,,,,,,0,,,62,0
24198,note_on,1,0,1,,,,,,,,,,,,,,,,0,,,70,0
24214,note_on,16,0,1,,,,,,,,,,,,,,,,0,,,62,0
24223,note_on,77,0,2,,,,,,,,,,,,,,,,0,,,74,102
24226,note_on,12,0,1,,,,,,,,,,,,,,,,0,,,66,86
24227,note_on,1,0,1,,,,,,,,,,,,,,,,0,,,62,81
24228,note_on,1,0,1,,,,,,,,,,,,,,,,0,,,74,82
24228,note_on,5,0,2,,,,,,,,,,,,,,,,0,,,67,0
24252,note_on,24,0,1,,,,,,,,,,,,,,,,0,,,66,0
24261,note_on,9,0,1,,,,,,,,,,,,,,,,0,,,62,0
24283,note_on,22,0,1,,,,,,,,,,,,,,,,0,,,74,0
24285,note_on,2,0,1,,,,,,,,,,,,,,,,0,,,70,76
24290,note_on,62,0,2,,,,,,,,,,,,,,,,0,,,74,0
24302,note_on,12,0,2,,,,,,,,,,,,,,,,0,,,76,103
24334,note_on,49,0,1,,,,,,,,,,,,,,,,0,,,66,84
24336,note_on,2,0,1,,,,,,,,,,,,,,,,0,,,62,66
24344,note_on,8,0,1,,,,,,,,,,,,,,,,0,,,70,0
24350,note_on,6,0,1,,,,,,,,,,,,,,,,0,,,66,0
24351,note_on,1,0,1,,,,,,,,,,,,,,,,0,,,62,0
24372,note_on,70,0,2,,,,,,,,,,,,,,,,0,,,76,0
24382,note_on,10,0,2,,,,,,,,,,,,,,,,0,,,74,107
24389,note_on,38,0,1,,,,,,,,,,,,,,,,0,,,45,90
24390,note_on,1,0,1,,,,,,,,,,,,,,,,0,,,33,84
24394,note_on,4,0,1,,,,,,,,,,,,,,,,0,,,43,45
24400,note_on,6,0,1,,,,,,,,,,,,,,,,0,,,45,0
24407,control_change,7,0,1,,,,,,,,,,,,,,,,0,64,0,,
24448,note_on,41,0,1,,,,,,,,,,,,,,,,0,,,67,71
24448,note_on,0,0,1,,,,,,,,,,,,,,,,0,,,64,71
24451,control_change,3,0,1,,,,,,,,,,,,,,,,0,64,127,,
24470,note_on,19,0,1,,,,,,,,,,,,,,,,0,,,33,0
24475,note_on,5,0,1,,,,,,,,,,,,,,,,0,,,43,0
24498,note_on,23,0,1,,,,,,,,,,,,,,,,0,,,70,72
24535,note_on,37,0,1,,,,,,,,,,,,,,,,0,,,67,0
24552,note_on,17,0,1,,,,,,,,,,,,,,,,0,,,64,64
24553,note_on,0,0,1,,,,,,,,,,,,,,,,0,,,67,58
24553,note_on,1,0,1,,,,,,,,,,,,,,,,0,,,74,63
24606,note_on,53,0,1,,,,,,,,,,,,,,,,0,,,64,0
24612,note_on,6,0,1,,,,,,,,,,,,,,,,0,,,70,65
24620,note_on,238,0,2,,,,,,,,,,,,,,,,0,,,74,0
24649,note_on,29,0,2,,,,,,,,,,,,,,,,0,,,74,105
24667,note_on,55,0,1,,,,,,,,,,,,,,,,0,,,67,58
24674,note_on,7,0,1,,,,,,,,,,,,,,,,0,,,70,0
24678,note_on,4,0,1,,,,,,,,,,,,,,,,0,,,64,0
24699,note_on,50,0,2,,,,,,,,,,,,,,,,0,,,74,0
24710,note_on,11,0,2,,,,,,,,,,,,,,,,0,,,73,102
24716,note_on,38,0,1,,,,,,,,,,,,,,,,0,,,33,77
24717,note_on,1,0,1,,,,,,,,,,,,,,,,0,,,45,78
24729,control_change,12,0,1,,,,,,,,,,,,,,,,0,64,0,,
24740,note_on,11,0,1,,,,,,,,,,,,,,,,0,,,74,0
24743,note_on,3,0,1,,,,,,,,,,,,,,,,0,,,67,0
24750,note_on,7,0,1,,,,,,,,,,,,,,,,0,,,70,0
24767,control_change,17,0,1,,,,,,,,,,,,,,,,0,64,127,,
24769,note_on,2,0,1,,,,,,,,,,,,,,,,0,,,67,0
24772,note_on,3,0,1,,,,,,,,,,,,,,,,0,,,67,60
24776,note_on,4,0,1,,,,,,,,,,,,,,,,0,,,64,48
24794,note_on,18,0,1,,,,,,,,,,,,,,,,0,,,33,0
24808,note_on,14,0,1,,,,,,,,,,,,,,,,0,,,45,0
24827,note_on,19,0,1,,,,,,,,,,,,,,,,0,,,69,57
24844,note_on,17,0,1,,,,,,,,,,,,,,,,0,,,67,0
24883,note_on,39,0,1,,,,,,,,,,,,,,,,0,,,73,45
24886,note_on,3,0,1,,,,,,,,,,,,,,,,0,,,64,24
24891,note_on,5,0,1,,,,,,,,,,,,,,,,0,,,67,14
24912,note_on,21,0,1,,,,,,,,,,,,,,,,0,,,64,0
24917,note_on,5,0,1,,,,,,,,,,,,,,,,0,,,69,0
24929,note_on,12,0,1,,,,,,,,,,,,,,,,0,,,73,0
24930,note_on,1,0,1,,,,,,,,,,,,,,,,0,,,64,0
24938,note_on,8,0,1,,,,,,,,,,,,,,,,0,,,67,0
24944,note_on,6,0,1,,,,,,,,,,,,,,,,0,,,69,40
24982,note_on,272,0,2,,,,,,,,,,,,,,,,0,,,69,94
24986,note_on,4,0,2,,,,,,,,,,,,,,,,0,,,73,0
24999,note_on,55,0,1,,,,,,,,,,,,,,,,0,,,67,51
25010,note_on,11,0,1,,,,,,,,,,,,,,,,0,,,67,0
25010,note_on,0,0,1,,,,,,,,,,,,,,,,0,,,69,0
25038,note_on,52,0,2,,,,,,,,,,,,,,,,0,,,69,0
25041,note_on,3,0,2,,,,,,,,,,,,,,,,0,,,72,94
25050,note_on,40,0,1,,,,,,,,,,,,,,,,0,,,42,59
25050,note_on,0,0,1,,,,,,,,,,,,,,,,0,,,30,65
25092,control_change,42,0,1,,,,,,,,,,,,,,,,0,64,0,,
25107,note_on,15,0,1,,,,,,,,,,,,,,,,0,,,69,71
25107,note_on,0,0,1,,,,,,,,,,,,,,,,0,,,63,59
25130,control_change,23,0,1,,,,,,,,,,,,,,,,0,64,127,,
25143,note_on,0,0,1,,,,,,,,,,,,,,,,0,,,42,0
25143,note_on,13,0,1,,,,,,,,,,,,,,,,0,,,30,0
25156,note_on,13,0,1,,,,,,,,,,,,,,,,0,,,63,30
25158,note_on,2,0,1,,,,,,,,,,,,,,,,0,,,69,50
25160,note_on,2,0,1,,,,,,,,,,,,,,,,0,,,72,67
25166,note_on,6,0,1,,,,,,,,,,,,,,,,0,,,69,0
25166,note_on,0,0,1,,,,,,,,,,,,,,,,0,,,63,0
25171,note_on,5,0,1,,,,,,,,,,,,,,,,0,,,63,0
25212,note_on,41,0,1,,,,,,,,,,,,,,,,0,,,75,74
25214,note_on,2,0,1,,,,,,,,,,,,,,,,0,,,69,77
25216,note_on,2,0,1,,,,,,,,,,,,,,,,0,,,63,62
25270,note_on,54,0,1,,,,,,,,,,,,,,,,0,,,72,76
25276,note_on,6,0,1,,,,,,,,,,,,,,,,0,,,69,0
25286,note_on,10,0,1,,,,,,,,,,,,,,,,0,,,72,0
25292,note_on,6,0,1,,,,,,,,,,,,,,,,0,,,75,0
25300,note_on,8,0,1,,,,,,,,,,,,,,,,0,,,69,0
25304,note_on,263,0,2,,,,,,,,,,,,,,,,0,,,70,89
25307,note_on,3,0,2,,,,,,,,,,,,,,,,0,,,72,0
25319,note_on,19,0,1,,,,,,,,,,,,,,,,0,,,63,42
25323,note_on,0,0,1,,,,,,,,,,,,,,,,0,,,69,73
25323,note_on,4,0,1,,,,,,,,,,,,,,,,0,,,63,0
25327,note_on,4,0,1,,,,,,,,,,,,,,,,0,,,63,0
25327,note_on,0,0,1,,,,,,,,,,,,,,,,0,,,72,0
25329,note_on,2,0,1,,,,,,,,,,,,,,,,0,,,69,0
25366,note_on,59,0,2,,,,,,,,,,,,,,,,0,,,70,0
25368,note_on,2,0,2,,,,,,,,,,,,,,,,0,,,69,105
25377,note_on,48,0,1,,,,,,,,,,,,,,,,0,,,30,76
25378,note_on,1,0,1,,,,,,,,,,,,,,,,0,,,42,70
25411,control_change,33,0,1,,,,,,,,,,,,,,,,0,64,0,,
25422,note_on,54,0,2,,,,,,,,,,,,,,,,0,,,72,84
25435,note_on,24,0,1,,,,,,,,,,,,,,,,0,,,69,80
25436,note_on,1,0,1,,,,,,,,,,,,,,,,0,,,63,74
25442,note_on,20,0,2,,,,,,,,,,,,,,,,0,,,69,0
25445,control_change,9,0,1,,,,,,,,,,,,,,,,0,64,127,,
25458,note_on,13,0,1,,,,,,,,,,,,,,,,0,,,30,0
25475,note_on,33,0,2,,,,,,,,,,,,,,,,0,,,74,83
25476,note_on,18,0,1,,,,,,,,,,,,,,,,0,,,42,0
25481,note_on,6,0,2,,,,,,,,,,,,,,,,0,,,72,0
25483,note_on,7,0,1,,,,,,,,,,,,,,,,0,,,72,74
25484,note_on,1,0,1,,,,,,,,,,,,,,,,0,,,63,57
25510,note_on,26,0,1,,,,,,,,,,,,,,,,0,,,69,0
25518,note_on,8,0,1,,,,,,,,,,,,,,,,0,,,63,0
25520,note_on,39,0,2,,,,,,,,,,,,,,,,0,,,74,0
25522,note_on,4,0,1,,,,,,,,,,,,,,,,0,,,72,0
25530,note_on,10,0,2,,,,,,,,,,,,,,,,0,,,75,99
25533,note_on,11,0,1,,,,,,,,,,,,,,,,0,,,63,51
25536,note_on,3,0,1,,,,,,,,,,,,,,,,0,,,69,74
25537,note_on,1,0,1,,,,,,,,,,,,,,,,0,,,75,75
25540,note_on,3,0,1,,,,,,,,,,,,,,,,0,,,63,0
25582,note_on,52,0,2,,,,,,,,,,,,,,,,0,,,75,0
25587,note_on,5,0,2,,,,,,,,,,,,,,,,0,,,72,73
25595,note_on,55,0,1,,,,,,,,,,,,,,,,0,,,72,64
25596,note_on,1,0,1,,,,,,,,,,,,,,,,0,,,63,0
25615,note_on,19,0,1,,,,,,,,,,,,,,,,0,,,69,0
25638,note_on,51,0,2,,,,,,,,,,,,,,,,0,,,72,0
25639,note_on,1,0,2,,,,,,,,,,,,,,,,0,,,69,91
25644,note_on,29,0,1,,,,,,,,,,,,,,,,0,,,63,65
25648,note_on,4,0,1,,,,,,,,,,,,,,,,0,,,69,68
25649,note_on,1,0,1,,,,,,,,,,,,,,,,0,,,75,0
25651,note_on,0,0,1,,,,,,,,,,,,,,,,0,,,63,0
25651,note_on,2,0,1,,,,,,,,,,,,,,,,0,,,72,0
25654,note_on,3,0,1,,,,,,,,,,,,,,,,0,,,69,0
25693,note_on,54,0,2,,,,,,,,,,,,,,,,0,,,70,111
25694,note_on,40,0,1,,,,,,,,,,,,,,,,0,,,31,76
25696,note_on,2,0,1,,,,,,,,,,,,,,,,0,,,43,77
25696,note_on,3,0,2,,,,,,,,,,,,,,,,0,,,69,0
25727,control_change,31,0,1,,,,,,,,,,,,,,,,0,64,0,,
25751,note_on,24,0,1,,,,,,,,,,,,,,,,0,,,62,63
25752,note_on,1,0,1,,,,,,,,,,,,,,,,0,,,67,68
25762,control_change,10,0,1,,,,,,,,,,,,,,,,0,64,127,,
25782,note_on,20,0,1,,,,,,,,,,,,,,,,0,,,31,0
25789,note_on,7,0,1,,,,,,,,,,,,,,,,0,,,43,0
25805,note_on,16,0,1,,,,,,,,,,,,,,,,0,,,70,76
25810,note_on,5,0,1,,,,,,,,,,,,,,,,0,,,62,36
25822,note_on,12,0,1,,,,,,,,,,,,,,,,0,,,62,0
25853,note_on,31,0,1,,,,,,,,,,,,,,,,0,,,67,0
25856,note_on,3,0,1,,,,,,,,,,,,,,,,0,,,67,62
25859,note_on,3,0,1,,,,,,,,,,,,,,,,0,,,74,42
25903,note_on,44,0,1,,,,,,,,,,,,,,,,0,,,70,0
25910,note_on,7,0,1,,,,,,,,,,,,,,,,0,,,70,61
25973,note_on,0,0,1,,,,,,,,,,,,,,,,0,,,67,58
25973,note_on,63,0,1,,,,,,,,,,,,,,,,0,,,62,0
25974,note_on,1,0,1,,,,,,,,,,,,,,,,0,,,62,27
25978,note_on,4,0,1,,,,,,,,,,,,,,,,0,,,67,0
25988,note_on,10,0,1,,,,,,,,,,,,,,,,0,,,74,0
25989,note_on,1,0,1,,,,,,,,,,,,,,,,0,,,70,0
25990,note_on,1,0,1,,,,,,,,,,,,,,,,0,,,67,0
26003,note_on,13,0,1,,,,,,,,,,,,,,,,0,,,62,0
26023,note_on,20,0,1,,,,,,,,,,,,,,,,0,,,31,74
26025,note_on,2,0,1,,,,,,,,,,,,,,,,0,,,43,70
26080,note_on,55,0,1,,,,,,,,,,,,,,,,0,,,64,71
26082,note_on,2,0,1,,,,,,,,,,,,,,,,0,,,62,54
26093,note_on,11,0,1,,,,,,,,,,,,,,,,0,,,31,0
26102,note_on,9,0,1,,,,,,,,,,,,,,,,0,,,43,0
26132,note_on,30,0,1,,,,,,,,,,,,,,,,0,,,70,65
26138,note_on,6,0,1,,,,,,,,,,,,,,,,0,,,62,33
26148,note_on,10,0,1,,,,,,,,,,,,,,,,0,,,64,0
26167,note_on,19,0,1,,,,,,,,,,,,,,,,0,,,62,0
26182,note_on,486,0,2,,,,,,,,,,,,,,,,0,,,70,0
26186,note_on,4,0,2,,,,,,,,,,,,,,,,0,,,74,102
26187,note_on,20,0,1,,,,,,,,,,,,,,,,0,,,62,61
26187,note_on,0,0,1,,,,,,,,,,,,,,,,0,,,74,64
26222,note_on,35,0,1,,,,,,,,,,,,,,,,0,,,70,0
26234,note_on,12,0,1,,,,,,,,,,,,,,,,0,,,62,0
26241,note_on,7,0,1,,,,,,,,,,,,,,,,0,,,70,66
26248,note_on,62,0,2,,,,,,,,,,,,,,,,0,,,74,0
26254,note_on,13,0,1,,,,,,,,,,,,,,,,0,,,62,0
26256,note_on,8,0,2,,,,,,,,,,,,,,,,0,,,72,94
26292,note_on,38,0,1,,,,,,,,,,,,,,,,0,,,65,61
26302,note_on,10,0,1,,,,,,,,,,,,,,,,0,,,74,0
26303,note_on,1,0,1,,,,,,,,,,,,,,,,0,,,70,0
26304,note_on,1,0,1,,,,,,,,,,,,,,,,0,,,65,0
26319,note_on,63,0,2,,,,,,,,,,,,,,,,0,,,72,0
26342,note_on,23,0,2,,,,,,,,,,,,,,,,0,,,72,104
26343,note_on,39,0,1,,,,,,,,,,,,,,,,0,,,33,71
26344,note_on,1,0,1,,,,,,,,,,,,,,,,0,,,45,76
26372,control_change,28,0,1,,,,,,,,,,,,,,,,0,64,0,,
26402,note_on,30,0,1,,,,,,,,,,,,,,,,0,,,65,70
26405,note_on,3,0,1,,,,,,,,,,,,,,,,0,,,60,46
26408,control_change,3,0,1,,,,,,,,,,,,,,,,0,64,127,,
26422,note_on,14,0,1,,,,,,,,,,,,,,,,0,,,33,0
26431,note_on,9,0,1,,,,,,,,,,,,,,,,0,,,45,0
26456,note_on,25,0,1,,,,,,,,,,,,,,,,0,,,69,57
26499,note_on,43,0,1,,,,,,,,,,,,,,,,0,,,65,0
26506,note_on,7,0,1,,,,,,,,,,,,,,,,0,,,60,54
26507,note_on,0,0,1,,,,,,,,,,,,,,,,0,,,65,68
26507,note_on,1,0,1,,,,,,,,,,,,,,,,0,,,72,67
26532,note_on,25,0,1,,,,,,,,,,,,,,,,0,,,60,0
26534,note_on,2,0,1,,,,,,,,,,,,,,,,0,,,69,0
26564,note_on,30,0,1,,,,,,,,,,,,,,,,0,,,60,0
26567,note_on,3,0,1,,,,,,,,,,,,,,,,0,,,69,60
26609,note_on,42,0,1,,,,,,,,,,,,,,,,0,,,72,0
26615,note_on,6,0,1,,,,,,,,,,,,,,,,0,,,65,74
26621,note_on,6,0,1,,,,,,,,,,,,,,,,0,,,65,0
26622,note_on,280,0,2,,,,,,,,,,,,,,,,0,,,69,76
26622,note_on,1,0,1,,,,,,,,,,,,,,,,0,,,69,0
26628,note_on,6,0,2,,,,,,,,,,,,,,,,0,,,72,0
26630,note_on,8,0,1,,,,,,,,,,,,,,,,0,,,65,0
26662,note_on,34,0,2,,,,,,,,,,,,,,,,0,,,69,0
26664,note_on,0,0,1,,,,,,,,,,,,,,,,0,,,50,94
26664,note_on,34,0,1,,,,,,,,,,,,,,,,0,,,38,75
26668,note_on,6,0,2,,,,,,,,,,,,,,,,0,,,67,94
26680,control_change,16,0,1,,,,,,,,,,,,,,,,0,64,0,,
26713,note_on,45,0,2,,,,,,,,,,,,,,,,0,,,67,0
26716,note_on,3,0,2,,,,,,,,,,,,,,,,0,,,71,103
26717,control_change,37,0,1,,,,,,,,,,,,,,,,0,64,127,,
26719,note_on,2,0,1,,,,,,,,,,,,,,,,0,,,67,77
26720,note_on,1,0,1,,,,,,,,,,,,,,,,0,,,65,71
26734,note_on,14,0,1,,,,,,,,,,,,,,,,0,,,38,0
26748,note_on,14,0,1,,,,,,,,,,,,,,,,0,,,50,0
26755,note_on,39,0,2,,,,,,,,,,,,,,,,0,,,71,0
26764,note_on,9,0,2,,,,,,,,,,,,,,,,0,,,74,97
26770,note_on,22,0,1,,,,,,,,,,,,,,,,0,,,71,77
26776,note_on,6,0,1,,,,,,,,,,,,,,,,0,,,67,0
26808,note_on,44,0,2,,,,,,,,,,,,,,,,0,,,74,0
26815,note_on,7,0,2,,,,,,,,,,,,,,,,0,,,77,100
26825,note_on,49,0,1,,,,,,,,,,,,,,,,0,,,77,76
26825,note_on,0,0,1,,,,,,,,,,,,,,,,0,,,71,74
26826,note_on,1,0,1,,,,,,,,,,,,,,,,0,,,67,67
26865,note_on,50,0,2,,,,,,,,,,,,,,,,0,,,77,0
26870,note_on,5,0,2,,,,,,,,,,,,,,,,0,,,74,92
26876,note_on,50,0,1,,,,,,,,,,,,,,,,0,,,65,0
26885,note_on,9,0,1,,,,,,,,,,,,,,,,0,,,74,67
26924,note_on,54,0,2,,,,,,,,,,,,,,,,0,,,71,85
26927,note_on,3,0,2,,,,,,,,,,,,,,,,0,,,74,0
26928,note_on,43,0,1,,,,,,,,,,,,,,,,0,,,71,0
26930,note_on,2,0,1,,,,,,,,,,,,,,,,0,,,77,0
26936,note_on,6,0,1,,,,,,,,,,,,,,,,0,,,71,65
26938,note_on,2,0,1,,,,,,,,,,,,,,,,0,,,71,0
26939,note_on,1,0,1,,,,,,,,,,,,,,,,0,,,67,0
26939,note_on,0,0,1,,,,,,,,,,,,,,,,0,,,74,0
26942,note_on,3,0,1,,,,,,,,,,,,,,,,0,,,71,0
26980,note_on,53,0,2,,,,,,,,,,,,,,,,0,,,72,88
26981,note_on,1,0,2,,,,,,,,,,,,,,,,0,,,71,0
26986,note_on,44,0,1,,,,,,,,,,,,,,,,0,,,48,82
26987,note_on,1,0,1,,,,,,,,,,,,,,,,0,,,36,73
27008,control_change,21,0,1,,,,,,,,,,,,,,,,0,64,0,,
27044,note_on,36,0,1,,,,,,,,,,,,,,,,0,,,69,76
27045,note_on,1,0,1,,,,,,,,,,,,,,,,0,,,65,67
27047,control_change,2,0,1,,,,,,,,,,,,,,,,0,64,127,,
27062,note_on,15,0,1,,,,,,,,,,,,,,,,0,,,48,0
27068,note_on,6,0,1,,,,,,,,,,,,,,,,0,,,36,0
27096,note_on,28,0,1,,,,,,,,,,,,,,,,0,,,72,67
27129,note_on,33,0,1,,,,,,,,,,,,,,,,0,,,69,0
27147,note_on,18,0,1,,,,,,,,,,,,,,,,0,,,69,71
27147,note_on,0,0,1,,,,,,,,,,,,,,,,0,,,77,52
27205,note_on,58,0,1,,,,,,,,,,,,,,,,0,,,65,0
27207,note_on,2,0,1,,,,,,,,,,,,,,,,0,,,72,58
27260,note_on,53,0,1,,,,,,,,,,,,,,,,0,,,69,59
27261,note_on,1,0,1,,,,,,,,,,,,,,,,0,,,72,0
27270,note_on,9,0,1,,,,,,,,,,,,,,,,0,,,69,0
27274,note_on,4,0,1,,,,,,,,,,,,,,,,0,,,77,0
27277,note_on,3,0,1,,,,,,,,,,,,,,,,0,,,72,0
27284,note_on,7,0,1,,,,,,,,,,,,,,,,0,,,69,0
27314,note_on,30,0,1,,,,,,,,,,,,,,,,0,,,48,74
27315,note_on,1,0,1,,,,,,,,,,,,,,,,0,,,36,67
27345,control_change,30,0,1,,,,,,,,,,,,,,,,0,64,0,,
27367,note_on,22,0,1,,,,,,,,,,,,,,,,0,,,70,62
27368,note_on,1,0,1,,,,,,,,,,,,,,,,0,,,64,58
27382,control_change,14,0,1,,,,,,,,,,,,,,,,0,64,127,,
27384,note_on,403,0,2,,,,,,,,,,,,,,,,0,,,72,0
27395,note_on,13,0,1,,,,,,,,,,,,,,,,0,,,48,0
27403,note_on,19,0,2,,,,,,,,,,,,,,,,0,,,67,92
27406,note_on,11,0,1,,,,,,,,,,,,,,,,0,,,36,0
27424,note_on,18,0,1,,,,,,,,,,,,,,,,0,,,72,54
27437,note_on,34,0,2,,,,,,,,,,,,,,,,0,,,67,0
27438,note_on,1,0,2,,,,,,,,,,,,,,,,0,,,69,97
27441,note_on,17,0,1,,,,,,,,,,,,,,,,0,,,70,0
27458,note_on,20,0,2,,,,,,,,,,,,,,,,0,,,69,0
27469,note_on,11,0,2,,,,,,,,,,,,,,,,0,,,70,102
27481,note_on,0,0,1,,,,,,,,,,,,,,,,0,,,76,51
27481,note_on,40,0,1,,,,,,,,,,,,,,,,0,,,64,49
27484,note_on,3,0,1,,,,,,,,,,,,,,,,0,,,70,47
27502,note_on,33,0,2,,,,,,,,,,,,,,,,0,,,70,0
27504,note_on,20,0,1,,,,,,,,,,,,,,,,0,,,64,0
27505,note_on,3,0,2,,,,,,,,,,,,,,,,0,,,72,97
27511,note_on,7,0,1,,,,,,,,,,,,,,,,0,,,72,0
27515,note_on,4,0,1,,,,,,,,,,,,,,,,0,,,64,0
27520,note_on,15,0,2,,,,,,,,,,,,,,,,0,,,70,99
27525,note_on,5,0,2,,,,,,,,,,,,,,,,0,,,72,0
27538,note_on,13,0,2,,,,,,,,,,,,,,,,0,,,69,100
27539,note_on,24,0,1,,,,,,,,,,,,,,,,0,,,72,45
27544,note_on,6,0,2,,,,,,,,,,,,,,,,0,,,70,0
27590,note_on,0,0,1,,,,,,,,,,,,,,,,0,,,70,62
27590,note_on,51,0,1,,,,,,,,,,,,,,,,0,,,76,0
27592,note_on,48,0,2,,,,,,,,,,,,,,,,0,,,69,0
27592,note_on,2,0,1,,,,,,,,,,,,,,,,0,,,70,0
27594,note_on,2,0,2,,,,,,,,,,,,,,,,0,,,67,81
27597,note_on,5,0,1,,,,,,,,,,,,,,,,0,,,72,0
27602,note_on,5,0,1,,,,,,,,,,,,,,,,0,,,70,0
27642,note_on,40,0,1,,,,,,,,,,,,,,,,0,,,41,62
27644,note_on,50,0,2,,,,,,,,,,,,,,,,0,,,67,0
27644,note_on,2,0,1,,,,,,,,,,,,,,,,0,,,53,68
27645,note_on,1,0,2,,,,,,,,,,,,,,,,0,,,65,83
27646,note_on,2,0,1,,,,,,,,,,,,,,,,0,,,48,61
27670,control_change,24,0,1,,,,,,,,,,,,,,,,0,64,0,,
27702,note_on,32,0,1,,,,,,,,,,,,,,,,0,,,65,57
27704,note_on,2,0,1,,,,,,,,,,,,,,,,0,,,69,61
27706,control_change,2,0,1,,,,,,,,,,,,,,,,0,64,127,,
27713,note_on,7,0,1,,,,,,,,,,,,,,,,0,,,41,0
27721,note_on,8,0,1,,,,,,,,,,,,,,,,0,,,53,0
27758,note_on,37,0,1,,,,,,,,,,,,,,,,0,,,72,59
27764,note_on,6,0,1,,,,,,,,,,,,,,,,0,,,69,40
27773,note_on,9,0,1,,,,,,,,,,,,,,,,0,,,48,0
27783,note_on,10,0,1,,,,,,,,,,,,,,,,0,,,65,0
27809,note_on,26,0,1,,,,,,,,,,,,,,,,0,,,77,52
27813,note_on,4,0,1,,,,,,,,,,,,,,,,0,,,69,36
27840,note_on,27,0,1,,,,,,,,,,,,,,,,0,,,69,0
27862,note_on,22,0,1,,,,,,,,,,,,,,,,0,,,72,0
27862,note_on,0,0,1,,,,,,,,,,,,,,,,0,,,72,60
27921,note_on,59,0,1,,,,,,,,,,,,,,,,0,,,69,54
27922,note_on,1,0,1,,,,,,,,,,,,,,,,0,,,69,0
27922,note_on,0,0,1,,,,,,,,,,,,,,,,0,,,65,43
27925,note_on,3,0,1,,,,,,,,,,,,,,,,0,,,77,0
27928,note_on,3,0,1,,,,,,,,,,,,,,,,0,,,69,0
27963,note_on,35,0,1,,,,,,,,,,,,,,,,0,,,72,0
27975,note_on,0,0,1,,,,,,,,,,,,,,,,0,,,53,58
27975,note_on,12,0,1,,,,,,,,,,,,,,,,0,,,41,50
27977,note_on,2,0,1,,,,,,,,,,,,,,,,0,,,69,0
27978,note_on,1,0,1,,,,,,,,,,,,,,,,0,,,48,46
27984,note_on,6,0,1,,,,,,,,,,,,,,,,0,,,65,0
28028,note_on,44,0,1,,,,,,,,,,,,,,,,0,,,65,49
28030,note_on,2,0,1,,,,,,,,,,,,,,,,0,,,69,54
28049,note_on,19,0,1,,,,,,,,,,,,,,,,0,,,41,0
28051,note_on,2,0,1,,,,,,,,,,,,,,,,0,,,53,0
28080,note_on,29,0,1,,,,,,,,,,,,,,,,0,,,72,58
28094,note_on,449,0,2,,,,,,,,,,,,,,,,0,,,65,0
28112,note_on,32,0,1,,,,,,,,,,,,,,,,0,,,48,0
28131,note_on,37,0,2,,,,,,,,,,,,,,,,0,,,65,97
28131,note_on,19,0,1,,,,,,,,,,,,,,,,0,,,77,46
28133,note_on,2,0,1,,,,,,,,,,,,,,,,0,,,69,59
28172,note_on,39,0,1,,,,,,,,,,,,,,,,0,,,65,0
28187,note_on,15,0,1,,,,,,,,,,,,,,,,0,,,72,56
28193,note_on,6,0,1,,,,,,,,,,,,,,,,0,,,69,0
28225,note_on,32,0,1,,,,,,,,,,,,,,,,0,,,72,0
28228,note_on,3,0,1,,,,,,,,,,,,,,,,0,,,77,0
28236,note_on,8,0,1,,,,,,,,,,,,,,,,0,,,69,0
28241,note_on,5,0,1,,,,,,,,,,,,,,,,0,,,69,61
28241,note_on,0,0,1,,,,,,,,,,,,,,,,0,,,65,40
28283,note_on,152,0,2,,,,,,,,,,,,,,,,0,,,72,92
28291,note_on,8,0,2,,,,,,,,,,,,,,,,0,,,65,0
28292,note_on,51,0,1,,,,,,,,,,,,,,,,0,,,53,81
28293,note_on,1,0,1,,,,,,,,,,,,,,,,0,,,41,74
28295,note_on,2,0,1,,,,,,,,,,,,,,,,0,,,48,75
28313,note_on,18,0,1,,,,,,,,,,,,,,,,0,,,72,0
28317,note_on,4,0,1,,,,,,,,,,,,,,,,0,,,69,0
28324,note_on,7,0,1,,,,,,,,,,,,,,,,0,,,65,0
28330,control_change,6,0,1,,,,,,,,,,,,,,,,0,64,127,,
28353,note_on,23,0,1,,,,,,,,,,,,,,,,0,,,69,69
28355,note_on,2,0,1,,,,,,,,,,,,,,,,0,,,63,66
28391,note_on,36,0,1,,,,,,,,,,,,,,,,0,,,53,0
28392,note_on,1,0,1,,,,,,,,,,,,,,,,0,,,41,0
28406,note_on,14,0,1,,,,,,,,,,,,,,,,0,,,72,69
28442,note_on,36,0,1,,,,,,,,,,,,,,,,0,,,48,0
28459,note_on,17,0,1,,,,,,,,,,,,,,,,0,,,77,74
28459,note_on,0,0,1,,,,,,,,,,,,,,,,0,,,69,78
28484,note_on,25,0,1,,,,,,,,,,,,,,,,0,,,69,0
28498,note_on,14,0,1,,,,,,,,,,,,,,,,0,,,63,0
28514,note_on,16,0,1,,,,,,,,,,,,,,,,0,,,72,71
28541,note_on,250,0,2,,,,,,,,,,,,,,,,0,,,72,0
28560,note_on,19,0,2,,,,,,,,,,,,,,,,0,,,72,96
28570,note_on,56,0,1,,,,,,,,,,,,,,,,0,,,63,56
28571,note_on,1,0,1,,,,,,,,,,,,,,,,0,,,69,61
28579,note_on,8,0,1,,,,,,,,,,,,,,,,0,,,72,0
28585,note_on,6,0,1,,,,,,,,,,,,,,,,0,,,77,0
28587,note_on,2,0,1,,,,,,,,,,,,,,,,0,,,69,0
28591,note_on,31,0,2,,,,,,,,,,,,,,,,0,,,72,0
28613,note_on,22,0,2,,,,,,,,,,,,,,,,0,,,72,102
28624,note_on,37,0,1,,,,,,,,,,,,,,,,0,,,41,69
28625,note_on,1,0,1,,,,,,,,,,,,,,,,0,,,53,71
28626,note_on,1,0,1,,,,,,,,,,,,,,,,0,,,48,66
28636,note_on,10,0,1,,,,,,,,,,,,,,,,0,,,72,0
28646,note_on,10,0,1,,,,,,,,,,,,,,,,0,,,63,0
28653,note_on,7,0,1,,,,,,,,,,,,,,,,0,,,69,0
28680,note_on,0,0,1,,,,,,,,,,,,,,,,0,,,63,57
28680,note_on,27,0,1,,,,,,,,,,,,,,,,0,,,69,70
28699,note_on,86,0,2,,,,,,,,,,,,,,,,0,,,72,0
28705,note_on,25,0,1,,,,,,,,,,,,,,,,0,,,41,0
28710,note_on,11,0,2,,,,,,,,,,,,,,,,0,,,71,97
28714,note_on,9,0,1,,,,,,,,,,,,,,,,0,,,53,0
28730,note_on,16,0,1,,,,,,,,,,,,,,,,0,,,72,59
28742,note_on,12,0,1,,,,,,,,,,,,,,,,0,,,48,0
28762,note_on,52,0,2,,,,,,,,,,,,,,,,0,,,71,0
28766,note_on,24,0,1,,,,,,,,,,,,,,,,0,,,69,0
28772,note_on,10,0,2,,,,,,,,,,,,,,,,0,,,72,102
28781,note_on,15,0,1,,,,,,,,,,,,,,,,0,,,77,61
28781,note_on,0,0,1,,,,,,,,,,,,,,,,0,,,53,64
28782,note_on,1,0,1,,,,,,,,,,,,,,,,0,,,69,73
28805,note_on,23,0,1,,,,,,,,,,,,,,,,0,,,63,0
28821,note_on,16,0,1,,,,,,,,,,,,,,,,0,,,72,0
28838,note_on,17,0,1,,,,,,,,,,,,,,,,0,,,72,69
28854,note_on,82,0,2,,,,,,,,,,,,,,,,0,,,72,0
28865,note_on,11,0,2,,,,,,,,,,,,,,,,0,,,74,88
28884,note_on,46,0,1,,,,,,,,,,,,,,,,0,,,77,0
28891,note_on,7,0,1,,,,,,,,,,,,,,,,0,,,53,0
28893,note_on,2,0,1,,,,,,,,,,,,,,,,0,,,63,63
28896,note_on,3,0,1,,,,,,,,,,,,,,,,0,,,69,63
28898,note_on,2,0,1,,,,,,,,,,,,,,,,0,,,69,0
28902,note_on,4,0,1,,,,,,,,,,,,,,,,0,,,72,0
28911,note_on,9,0,1,,,,,,,,,,,,,,,,0,,,63,0
28930,note_on,65,0,2,,,,,,,,,,,,,,,,0,,,74,0
28939,note_on,9,0,2,,,,,,,,,,,,,,,,0,,,72,87
28946,note_on,35,0,1,,,,,,,,,,,,,,,,0,,,41,72
28947,note_on,0,0,1,,,,,,,,,,,,,,,,0,,,48,77
28947,note_on,1,0,1,,,,,,,,,,,,,,,,0,,,53,81
28959,note_on,12,0,1,,,,,,,,,,,,,,,,0,,,69,0
28972,control_change,13,0,1,,,,,,,,,,,,,,,,0,64,0,,
29003,note_on,31,0,1,,,,,,,,,,,,,,,,0,,,70,68
29004,note_on,1,0,1,,,,,,,,,,,,,,,,0,,,65,54
29007,control_change,3,0,1,,,,,,,,,,,,,,,,0,64,127,,
29020,note_on,13,0,1,,,,,,,,,,,,,,,,0,,,41,0
29025,note_on,86,0,2,,,,,,,,,,,,,,,,0,,,72,0
29036,note_on,16,0,1,,,,,,,,,,,,,,,,0,,,53,0
29036,note_on,11,0,2,,,,,,,,,,,,,,,,0,,,74,91
29054,note_on,18,0,1,,,,,,,,,,,,,,,,0,,,74,71
29057,note_on,3,0,1,,,,,,,,,,,,,,,,0,,,65,55
29074,note_on,17,0,1,,,,,,,,,,,,,,,,0,,,48,0
29091,note_on,55,0,2,,,,,,,,,,,,,,,,0,,,70,99
29093,note_on,2,0,2,,,,,,,,,,,,,,,,0,,,74,0
29099,note_on,25,0,1,,,,,,,,,,,,,,,,0,,,70,0
29109,note_on,10,0,1,,,,,,,,,,,,,,,,0,,,70,76
29112,note_on,0,0,1,,,,,,,,,,,,,,,,0,,,65,67
29112,note_on,3,0,1,,,,,,,,,,,,,,,,0,,,77,65
29167,note_on,55,0,1,,,,,,,,,,,,,,,,0,,,65,0
29169,note_on,2,0,1,,,,,,,,,,,,,,,,0,,,74,62
29189,note_on,20,0,1,,,,,,,,,,,,,,,,0,,,74,0
29219,note_on,30,0,1,,,,,,,,,,,,,,,,0,,,70,66
29222,note_on,3,0,1,,,,,,,,,,,,,,,,0,,,65,0
29234,note_on,12,0,1,,,,,,,,,,,,,,,,0,,,70,0
29267,note_on,33,0,1,,,,,,,,,,,,,,,,0,,,77,0
29271,note_on,4,0,1,,,,,,,,,,,,,,,,0,,,65,0
29274,note_on,3,0,1,,,,,,,,,,,,,,,,0,,,74,0
29275,note_on,1,0,1,,,,,,,,,,,,,,,,0,,,41,69
29276,note_on,1,0,1,,,,,,,,,,,,,,,,0,,,53,82
29279,note_on,3,0,1,,,,,,,,,,,,,,,,0,,,70,0
29331,note_on,52,0,1,,,,,,,,,,,,,,,,0,,,62,67
29331,note_on,0,0,1,,,,,,,,,,,,,,,,0,,,70,74
29359,note_on,28,0,1,,,,,,,,,,,,,,,,0,,,41,0
29361,note_on,2,0,1,,,,,,,,,,,,,,,,0,,,53,0
29382,note_on,21,0,1,,,,,,,,,,,,,,,,0,,,70,76
29389,note_on,7,0,1,,,,,,,,,,,,,,,,0,,,74,37
29395,note_on,6,0,1,,,,,,,,,,,,,,,,0,,,62,0
29397,note_on,2,0,1,,,,,,,,,,,,,,,,0,,,70,0
29439,note_on,0,0,1,,,,,,,,,,,,,,,,0,,,70,68
29439,note_on,42,0,1,,,,,,,,,,,,,,,,0,,,77,57
29467,note_on,374,0,2,,,,,,,,,,,,,,,,0,,,70,0
29473,note_on,34,0,1,,,,,,,,,,,,,,,,0,,,70,0
29494,note_on,27,0,2,,,,,,,,,,,,,,,,0,,,70,102
29496,note_on,23,0,1,,,,,,,,,,,,,,,,0,,,74,59
29548,note_on,52,0,1,,,,,,,,,,,,,,,,0,,,70,66
29552,note_on,4,0,1,,,,,,,,,,,,,,,,0,,,74,0
29553,note_on,1,0,1,,,,,,,,,,,,,,,,0,,,77,0
29555,note_on,2,0,1,,,,,,,,,,,,,,,,0,,,70,0
29559,note_on,4,0,1,,,,,,,,,,,,,,,,0,,,74,0
29563,note_on,4,0,1,,,,,,,,,,,,,,,,0,,,70,0
29582,note_on,88,0,2,,,,,,,,,,,,,,,,0,,,70,0
29597,note_on,15,0,2,,,,,,,,,,,,,,,,0,,,72,108
29600,note_on,37,0,1,,,,,,,,,,,,,,,,0,,,41,60
29601,note_on,1,0,1,,,,,,,,,,,,,,,,0,,,53,71
29632,control_change,31,0,1,,,,,,,,,,,,,,,,0,64,0,,
29652,control_change,20,0,1,,,,,,,,,,,,,,,,0,64,127,,
29655,note_on,3,0,1,,,,,,,,,,,,,,,,0,,,63,70
29656,note_on,1,0,1,,,,,,,,,,,,,,,,0,,,69,69
29678,note_on,22,0,1,,,,,,,,,,,,,,,,0,,,53,0
29678,note_on,0,0,1,,,,,,,,,,,,,,,,0,,,41,0
29709,note_on,31,0,1,,,,,,,,,,,,,,,,0,,,72,64
29711,note_on,2,0,1,,,,,,,,,,,,,,,,0,,,69,56
29717,note_on,6,0,1,,,,,,,,,,,,,,,,0,,,63,0
29719,note_on,2,0,1,,,,,,,,,,,,,,,,0,,,69,0
29763,note_on,44,0,1,,,,,,,,,,,,,,,,0,,,72,74
29764,note_on,1,0,1,,,,,,,,,,,,,,,,0,,,77,66
29781,note_on,17,0,1,,,,,,,,,,,,,,,,0,,,72,0
29818,note_on,37,0,1,,,,,,,,,,,,,,,,0,,,72,57
29820,note_on,2,0,1,,,,,,,,,,,,,,,,0,,,69,0
29821,note_on,1,0,1,,,,,,,,,,,,,,,,0,,,69,46
29826,note_on,5,0,1,,,,,,,,,,,,,,,,0,,,72,0
29828,note_on,2,0,1,,,,,,,,,,,,,,,,0,,,77,0
29839,note_on,242,0,2,,,,,,,,,,,,,,,,0,,,72,0
29860,note_on,21,0,2,,,,,,,,,,,,,,,,0,,,72,97
29873,note_on,45,0,1,,,,,,,,,,,,,,,,0,,,69,67
29881,note_on,8,0,1,,,,,,,,,,,,,,,,0,,,72,0
29886,note_on,5,0,1,,,,,,,,,,,,,,,,0,,,69,0
29890,note_on,30,0,2,,,,,,,,,,,,,,,,0,,,72,0
29892,note_on,6,0,1,,,,,,,,,,,,,,,,0,,,69,0
29912,note_on,22,0,2,,,,,,,,,,,,,,,,0,,,72,98
29927,note_on,35,0,1,,,,,,,,,,,,,,,,0,,,41,54
29927,note_on,0,0,1,,,,,,,,,,,,,,,,0,,,48,63
29928,note_on,1,0,1,,,,,,,,,,,,,,,,0,,,53,62
29962,note_on,50,0,2,,,,,,,,,,,,,,,,0,,,72,0
29968,note_on,6,0,2,,,,,,,,,,,,,,,,0,,,71,90
29982,note_on,54,0,1,,,,,,,,,,,,,,,,0,,,63,68
30009,note_on,27,0,1,,,,,,,,,,,,,,,,0,,,41,0
30020,note_on,52,0,2,,,,,,,,,,,,,,,,0,,,72,93
30027,note_on,7,0,2,,,,,,,,,,,,,,,,0,,,71,0
30036,note_on,27,0,1,,,,,,,,,,,,,,,,0,,,72,67
30038,note_on,11,0,2,,,,,,,,,,,,,,,,0,,,72,0
30043,note_on,7,0,1,,,,,,,,,,,,,,,,0,,,69,32
30049,note_on,6,0,1,,,,,,,,,,,,,,,,0,,,48,0
30051,note_on,2,0,1,,,,,,,,,,,,,,,,0,,,53,0
30080,note_on,42,0,2,,,,,,,,,,,,,,,,0,,,75,88
30094,note_on,43,0,1,,,,,,,,,,,,,,,,0,,,77,49
30096,note_on,2,0,1,,,,,,,,,,,,,,,,0,,,72,44
30116,note_on,20,0,1,,,,,,,,,,,,,,,,0,,,63,0
30135,note_on,55,0,2,,,,,,,,,,,,,,,,0,,,74,97
30138,note_on,3,0,2,,,,,,,,,,,,,,,,0,,,75,0
30153,note_on,37,0,1,,,,,,,,,,,,,,,,0,,,72,47
30164,note_on,11,0,1,,,,,,,,,,,,,,,,0,,,72,0
30166,note_on,2,0,1,,,,,,,,,,,,,,,,0,,,69,0
30186,note_on,48,0,2,,,,,,,,,,,,,,,,0,,,72,95
30188,note_on,22,0,1,,,,,,,,,,,,,,,,0,,,77,0
30191,note_on,5,0,2,,,,,,,,,,,,,,,,0,,,74,0
30203,note_on,15,0,1,,,,,,,,,,,,,,,,0,,,72,0
30203,note_on,0,0,1,,,,,,,,,,,,,,,,0,,,69,51
30209,note_on,6,0,1,,,,,,,,,,,,,,,,0,,,69,0
30209,note_on,0,0,1,,,,,,,,,,,,,,,,0,,,72,0
30241,note_on,0,0,2,,,,,,,,,,,,,,,,0,,,70,91
30241,note_on,50,0,2,,,,,,,,,,,,,,,,0,,,72,0
30254,note_on,45,0,1,,,,,,,,,,,,,,,,0,,,55,67
30257,note_on,3,0,1,,,,,,,,,,,,,,,,0,,,43,59
30289,control_change,32,0,1,,,,,,,,,,,,,,,,0,64,0,,
30315,note_on,26,0,1,,,,,,,,,,,,,,,,0,,,67,59
30318,note_on,3,0,1,,,,,,,,,,,,,,,,0,,,62,38
30320,control_change,2,0,1,,,,,,,,,,,,,,,,0,64,127,,
30330,note_on,10,0,1,,,,,,,,,,,,,,,,0,,,55,0
30338,note_on,8,0,1,,,,,,,,,,,,,,,,0,,,43,0
30363,note_on,25,0,1,,,,,,,,,,,,,,,,0,,,70,62
30369,note_on,6,0,1,,,,,,,,,,,,,,,,0,,,62,35
30379,note_on,10,0,1,,,,,,,,,,,,,,,,0,,,67,0
30404,note_on,25,0,1,,,,,,,,,,,,,,,,0,,,62,0
30420,note_on,16,0,1,,,,,,,,,,,,,,,,0,,,62,33
30421,note_on,1,0,1,,,,,,,,,,,,,,,,0,,,67,47
30421,note_on,0,0,1,,,,,,,,,,,,,,,,0,,,74,45
30471,note_on,50,0,1,,,,,,,,,,,,,,,,0,,,70,0
30476,note_on,5,0,1,,,,,,,,,,,,,,,,0,,,70,49
30497,note_on,21,0,1,,,,,,,,,,,,,,,,0,,,62,0
30528,note_on,31,0,1,,,,,,,,,,,,,,,,0,,,62,45
30531,note_on,3,0,1,,,,,,,,,,,,,,,,0,,,67,54
30536,note_on,5,0,1,,,,,,,,,,,,,,,,0,,,62,0
30539,note_on,3,0,1,,,,,,,,,,,,,,,,0,,,67,0
30586,note_on,0,0,1,,,,,,,,,,,,,,,,0,,,55,67
30586,note_on,47,0,1,,,,,,,,,,,,,,,,0,,,74,0
30587,note_on,1,0,1,,,,,,,,,,,,,,,,0,,,43,60
30593,note_on,6,0,1,,,,,,,,,,,,,,,,0,,,62,0
30593,note_on,0,0,1,,,,,,,,,,,,,,,,0,,,70,0
30597,note_on,4,0,1,,,,,,,,,,,,,,,,0,,,67,0
30640,note_on,43,0,1,,,,,,,,,,,,,,,,0,,,62,67
30675,note_on,35,0,1,,,,,,,,,,,,,,,,0,,,55,0
30695,note_on,20,0,1,,,,,,,,,,,,,,,,0,,,67,62
30703,note_on,8,0,1,,,,,,,,,,,,,,,,0,,,43,0
30711,note_on,8,0,1,,,,,,,,,,,,,,,,0,,,62,0
30744,note_on,33,0,1,,,,,,,,,,,,,,,,0,,,70,79
30745,note_on,1,0,1,,,,,,,,,,,,,,,,0,,,62,66
30745,note_on,0,0,1,,,,,,,,,,,,,,,,0,,,55,69
30762,note_on,17,0,1,,,,,,,,,,,,,,,,0,,,67,0
30768,note_on,6,0,1,,,,,,,,,,,,,,,,0,,,70,0
30796,note_on,28,0,1,,,,,,,,,,,,,,,,0,,,62,0
30804,note_on,563,0,2,,,,,,,,,,,,,,,,0,,,70,0
30804,note_on,8,0,1,,,,,,,,,,,,,,,,0,,,67,64
30840,note_on,36,0,2,,,,,,,,,,,,,,,,0,,,70,97
30852,note_on,48,0,1,,,,,,,,,,,,,,,,0,,,55,0
30855,note_on,3,0,1,,,,,,,,,,,,,,,,0,,,62,63
30882,note_on,42,0,2,,,,,,,,,,,,,,,,0,,,70,0
30884,note_on,29,0,1,,,,,,,,,,,,,,,,0,,,67,0
30902,note_on,20,0,2,,,,,,,,,,,,,,,,0,,,72,92
30905,note_on,21,0,1,,,,,,,,,,,,,,,,0,,,62,0
30906,note_on,1,0,1,,,,,,,,,,,,,,,,0,,,53,72
30906,note_on,0,0,1,,,,,,,,,,,,,,,,0,,,41,63
30910,note_on,4,0,1,,,,,,,,,,,,,,,,0,,,48,61
30929,control_change,19,0,1,,,,,,,,,,,,,,,,0,64,0,,
30963,note_on,34,0,1,,,,,,,,,,,,,,,,0,,,65,72
30964,note_on,1,0,1,,,,,,,,,,,,,,,,0,,,60,54
30967,control_change,3,0,1,,,,,,,,,,,,,,,,0,64,127,,
30986,note_on,19,0,1,,,,,,,,,,,,,,,,0,,,53,0
30997,note_on,11,0,1,,,,,,,,,,,,,,,,0,,,41,0
31018,note_on,21,0,1,,,,,,,,,,,,,,,,0,,,69,63
31060,note_on,42,0,1,,,,,,,,,,,,,,,,0,,,48,0
31068,note_on,8,0,1,,,,,,,,,,,,,,,,0,,,65,69
31069,note_on,1,0,1,,,,,,,,,,,,,,,,0,,,72,67
31069,note_on,0,0,1,,,,,,,,,,,,,,,,0,,,60,56
31082,note_on,13,0,1,,,,,,,,,,,,,,,,0,,,65,0
31091,note_on,9,0,1,,,,,,,,,,,,,,,,0,,,60,0
31092,note_on,1,0,1,,,,,,,,,,,,,,,,0,,,69,0
31125,note_on,33,0,1,,,,,,,,,,,,,,,,0,,,65,0
31127,note_on,2,0,1,,,,,,,,,,,,,,,,0,,,69,58
31132,note_on,230,0,2,,,,,,,,,,,,,,,,0,,,72,0
31141,note_on,14,0,1,,,,,,,,,,,,,,,,0,,,72,0
31163,note_on,31,0,2,,,,,,,,,,,,,,,,0,,,72,98
31177,note_on,36,0,1,,,,,,,,,,,,,,,,0,,,65,71
31178,note_on,1,0,1,,,,,,,,,,,,,,,,0,,,60,54
31194,note_on,16,0,1,,,,,,,,,,,,,,,,0,,,60,0
31196,note_on,2,0,1,,,,,,,,,,,,,,,,0,,,69,0
31215,note_on,52,0,2,,,,,,,,,,,,,,,,0,,,72,0
31223,note_on,27,0,1,,,,,,,,,,,,,,,,0,,,65,0
31227,note_on,4,0,1,,,,,,,,,,,,,,,,0,,,38,71
31227,note_on,12,0,2,,,,,,,,,,,,,,,,0,,,74,104
31229,note_on,2,0,1,,,,,,,,,,,,,,,,0,,,50,85
31247,note_on,18,0,1,,,,,,,,,,,,,,,,0,,,60,0
31249,control_change,2,0,1,,,,,,,,,,,,,,,,0,64,0,,
31281,note_on,32,0,1,,,,,,,,,,,,,,,,0,,,66,77
31283,note_on,2,0,1,,,,,,,,,,,,,,,,0,,,62,62
31287,control_change,4,0,1,,,,,,,,,,,,,,,,0,64,127,,
31304,note_on,17,0,1,,,,,,,,,,,,,,,,0,,,38,0
31320,note_on,16,0,1,,,,,,,,,,,,,,,,0,,,50,0
31334,note_on,107,0,2,,,,,,,,,,,,,,,,0,,,74,0
31338,note_on,18,0,1,,,,,,,,,,,,,,,,0,,,62,58
31339,note_on,1,0,1,,,,,,,,,,,,,,,,0,,,69,69
31347,note_on,13,0,2,,,,,,,,,,,,,,,,0,,,74,94
31353,note_on,14,0,1,,,,,,,,,,,,,,,,0,,,66,0
31367,note_on,20,0,2,,,,,,,,,,,,,,,,0,,,74,0
31371,note_on,18,0,1,,,,,,,,,,,,,,,,0,,,62,0
31385,note_on,18,0,2,,,,,,,,,,,,,,,,0,,,74,105
31387,note_on,16,0,1,,,,,,,,,,,,,,,,0,,,66,74
31388,note_on,1,0,1,,,,,,,,,,,,,,,,0,,,74,75
31389,note_on,1,0,1,,,,,,,,,,,,,,,,0,,,62,64
31409,note_on,20,0,1,,,,,,,,,,,,,,,,0,,,62,0
31413,note_on,4,0,1,,,,,,,,,,,,,,,,0,,,69,0
31429,note_on,44,0,2,,,,,,,,,,,,,,,,0,,,74,0
31433,note_on,4,0,2,,,,,,,,,,,,,,,,0,,,72,101
31445,note_on,32,0,1,,,,,,,,,,,,,,,,0,,,66,0
31448,note_on,3,0,1,,,,,,,,,,,,,,,,0,,,69,57
31466,note_on,18,0,1,,,,,,,,,,,,,,,,0,,,74,0
31478,note_on,45,0,2,,,,,,,,,,,,,,,,0,,,72,0
31482,note_on,4,0,2,,,,,,,,,,,,,,,,0,,,74,95
31496,note_on,0,0,1,,,,,,,,,,,,,,,,0,,,66,77
31496,note_on,30,0,1,,,,,,,,,,,,,,,,0,,,62,71
31505,note_on,9,0,1,,,,,,,,,,,,,,,,0,,,69,0
31505,note_on,0,0,1,,,,,,,,,,,,,,,,0,,,62,0
31508,note_on,3,0,1,,,,,,,,,,,,,,,,0,,,62,0
31513,note_on,5,0,1,,,,,,,,,,,,,,,,0,,,66,0
31522,note_on,40,0,2,,,,,,,,,,,,,,,,0,,,74,0
31524,note_on,2,0,2,,,,,,,,,,,,,,,,0,,,77,92
31530,note_on,6,0,2,,,,,,,,,,,,,,,,0,,,75,91
31538,note_on,8,0,2,,,,,,,,,,,,,,,,0,,,77,0
31548,note_on,35,0,1,,,,,,,,,,,,,,,,0,,,36,76
31548,note_on,0,0,1,,,,,,,,,,,,,,,,0,,,48,93
31576,control_change,28,0,1,,,,,,,,,,,,,,,,0,64,0,,
31604,note_on,28,0,1,,,,,,,,,,,,,,,,0,,,67,77
31605,note_on,1,0,1,,,,,,,,,,,,,,,,0,,,63,83
31615,control_change,10,0,1,,,,,,,,,,,,,,,,0,64,127,,
31650,note_on,35,0,1,,,,,,,,,,,,,,,,0,,,36,0
31656,note_on,6,0,1,,,,,,,,,,,,,,,,0,,,72,67
31676,note_on,20,0,1,,,,,,,,,,,,,,,,0,,,48,0
31680,note_on,4,0,1,,,,,,,,,,,,,,,,0,,,67,0
31691,note_on,153,0,2,,,,,,,,,,,,,,,,0,,,75,0
31698,note_on,18,0,1,,,,,,,,,,,,,,,,0,,,63,0
31709,note_on,11,0,1,,,,,,,,,,,,,,,,0,,,75,79
31710,note_on,1,0,1,,,,,,,,,,,,,,,,0,,,63,81
31710,note_on,0,0,1,,,,,,,,,,,,,,,,0,,,67,70
31710,note_on,19,0,2,,,,,,,,,,,,,,,,0,,,75,97
31729,note_on,19,0,1,,,,,,,,,,,,,,,,0,,,72,0
31741,note_on,12,0,1,,,,,,,,,,,,,,,,0,,,75,0
31771,note_on,30,0,1,,,,,,,,,,,,,,,,0,,,72,71
31777,note_on,6,0,1,,,,,,,,,,,,,,,,0,,,63,0
31781,note_on,4,0,1,,,,,,,,,,,,,,,,0,,,67,0
31824,note_on,43,0,1,,,,,,,,,,,,,,,,0,,,67,66
31824,note_on,0,0,1,,,,,,,,,,,,,,,,0,,,63,71
31871,note_on,47,0,1,,,,,,,,,,,,,,,,0,,,36,73
31872,note_on,1,0,1,,,,,,,,,,,,,,,,0,,,48,82
31884,control_change,12,0,1,,,,,,,,,,,,,,,,0,64,0,,
31892,note_on,8,0,1,,,,,,,,,,,,,,,,0,,,72,0
31902,note_on,10,0,1,,,,,,,,,,,,,,,,0,,,67,0
31906,control_change,4,0,1,,,,,,,,,,,,,,,,0,64,127,,
31928,note_on,22,0,1,,,,,,,,,,,,,,,,0,,,67,58
31929,note_on,1,0,1,,,,,,,,,,,,,,,,0,,,63,56
31933,note_on,4,0,1,,,,,,,,,,,,,,,,0,,,63,0
31983,note_on,50,0,1,,,,,,,,,,,,,,,,0,,,72,61
31989,note_on,6,0,1,,,,,,,,,,,,,,,,0,,,36,0
31993,note_on,4,0,1,,,,,,,,,,,,,,,,0,,,48,0
32003,note_on,10,0,1,,,,,,,,,,,,,,,,0,,,67,0
32024,note_on,21,0,1,,,,,,,,,,,,,,,,0,,,63,0
32028,note_on,318,0,2,,,,,,,,,,,,,,,,0,,,75,0
32033,note_on,9,0,1,,,,,,,,,,,,,,,,0,,,75,70
32036,note_on,3,0,1,,,,,,,,,,,,,,,,0,,,63,61
32037,note_on,1,0,1,,,,,,,,,,,,,,,,0,,,67,55
32053,note_on,16,0,1,,,,,,,,,,,,,,,,0,,,72,0
32057,note_on,4,0,1,,,,,,,,,,,,,,,,0,,,75,0
32092,note_on,35,0,1,,,,,,,,,,,,,,,,0,,,63,0
32092,note_on,0,0,1,,,,,,,,,,,,,,,,0,,,72,66
32101,note_on,9,0,1,,,,,,,,,,,,,,,,0,,,67,0
32114,note_on,86,0,2,,,,,,,,,,,,,,,,0,,,67,81
32139,note_on,38,0,1,,,,,,,,,,,,,,,,0,,,63,59
32140,note_on,1,0,1,,,,,,,,,,,,,,,,0,,,67,56
32145,note_on,5,0,1,,,,,,,,,,,,,,,,0,,,72,0
32152,note_on,7,0,1,,,,,,,,,,,,,,,,0,,,63,0
32155,note_on,3,0,1,,,,,,,,,,,,,,,,0,,,67,0
32175,note_on,61,0,2,,,,,,,,,,,,,,,,0,,,67,0
32177,note_on,2,0,2,,,,,,,,,,,,,,,,0,,,74,105
32188,note_on,33,0,1,,,,,,,,,,,,,,,,0,,,39,74
32190,note_on,2,0,1,,,,,,,,,,,,,,,,0,,,51,78
32192,note_on,2,0,1,,,,,,,,,,,,,,,,0,,,46,71
32194,note_on,17,0,2,,,,,,,,,,,,,,,,0,,,72,91
32196,note_on,2,0,2,,,,,,,,,,,,,,,,0,,,74,0
32214,control_change,22,0,1,,,,,,,,,,,,,,,,0,64,0,,
32247,note_on,33,0,1,,,,,,,,,,,,,,,,0,,,60,61
32247,note_on,0,0,1,,,,,,,,,,,,,,,,0,,,63,67
32250,control_change,3,0,1,,,,,,,,,,,,,,,,0,64,127,,
32268,note_on,18,0,1,,,,,,,,,,,,,,,,0,,,39,0
32284,note_on,16,0,1,,,,,,,,,,,,,,,,0,,,51,0
32301,note_on,17,0,1,,,,,,,,,,,,,,,,0,,,67,63
32304,note_on,3,0,1,,,,,,,,,,,,,,,,0,,,60,30
32310,note_on,6,0,1,,,,,,,,,,,,,,,,0,,,46,0
32337,note_on,27,0,1,,,,,,,,,,,,,,,,0,,,60,0
32352,note_on,15,0,1,,,,,,,,,,,,,,,,0,,,72,52
32372,note_on,20,0,1,,,,,,,,,,,,,,,,0,,,63,0
32413,note_on,41,0,1,,,,,,,,,,,,,,,,0,,,67,48
32424,note_on,228,0,2,,,,,,,,,,,,,,,,0,,,72,0
32442,note_on,29,0,1,,,,,,,,,,,,,,,,0,,,67,0
32443,note_on,1,0,1,,,,,,,,,,,,,,,,0,,,60,0
32446,note_on,22,0,2,,,,,,,,,,,,,,,,0,,,72,101
32447,note_on,4,0,1,,,,,,,,,,,,,,,,0,,,72,0
32465,note_on,18,0,1,,,,,,,,,,,,,,,,0,,,63,56
32468,note_on,3,0,1,,,,,,,,,,,,,,,,0,,,60,29
32476,note_on,8,0,1,,,,,,,,,,,,,,,,0,,,67,0
32483,note_on,7,0,1,,,,,,,,,,,,,,,,0,,,63,0
32488,note_on,5,0,1,,,,,,,,,,,,,,,,0,,,60,0
32502,note_on,56,0,2,,,,,,,,,,,,,,,,0,,,72,0
32509,note_on,7,0,2,,,,,,,,,,,,,,,,0,,,70,105
32521,note_on,33,0,1,,,,,,,,,,,,,,,,0,,,55,75
32521,note_on,0,0,1,,,,,,,,,,,,,,,,0,,,43,63
32551,control_change,30,0,1,,,,,,,,,,,,,,,,0,64,0,,
32561,note_on,52,0,2,,,,,,,,,,,,,,,,0,,,70,0
32567,note_on,6,0,2,,,,,,,,,,,,,,,,0,,,69,112
32576,note_on,25,0,1,,,,,,,,,,,,,,,,0,,,64,80
32576,note_on,0,0,1,,,,,,,,,,,,,,,,0,,,61,62
32582,note_on,6,0,1,,,,,,,,,,,,,,,,0,,,43,0
32582,note_on,0,0,1,,,,,,,,,,,,,,,,0,,,55,0
32585,control_change,3,0,1,,,,,,,,,,,,,,,,0,64,127,,
32607,note_on,40,0,2,,,,,,,,,,,,,,,,0,,,69,0
32615,note_on,8,0,2,,,,,,,,,,,,,,,,0,,,70,103
32629,note_on,44,0,1,,,,,,,,,,,,,,,,0,,,70,77
32653,note_on,24,0,1,,,,,,,,,,,,,,,,0,,,64,0
32664,note_on,49,0,2,,,,,,,,,,,,,,,,0,,,70,0
32666,note_on,2,0,2,,,,,,,,,,,,,,,,0,,,73,100
32684,note_on,31,0,1,,,,,,,,,,,,,,,,0,,,61,59
32705,note_on,39,0,2,,,,,,,,,,,,,,,,0,,,73,0
32711,note_on,27,0,1,,,,,,,,,,,,,,,,0,,,61,0
32719,note_on,14,0,2,,,,,,,,,,,,,,,,0,,,72,87
32738,note_on,27,0,1,,,,,,,,,,,,,,,,0,,,70,58
32755,note_on,17,0,1,,,,,,,,,,,,,,,,0,,,70,0
32766,note_on,11,0,1,,,,,,,,,,,,,,,,0,,,61,0
32772,note_on,53,0,2,,,,,,,,,,,,,,,,0,,,72,0
32776,note_on,10,0,1,,,,,,,,,,,,,,,,0,,,70,0
32776,note_on,4,0,2,,,,,,,,,,,,,,,,0,,,70,97
32792,note_on,16,0,1,,,,,,,,,,,,,,,,0,,,64,54
32799,note_on,7,0,1,,,,,,,,,,,,,,,,0,,,64,0
32836,note_on,60,0,2,,,,,,,,,,,,,,,,0,,,72,95
32839,note_on,3,0,2,,,,,,,,,,,,,,,,0,,,70,0
32848,note_on,49,0,1,,,,,,,,,,,,,,,,0,,,41,64
32849,note_on,1,0,1,,,,,,,,,,,,,,,,0,,,53,66
32852,note_on,3,0,1,,,,,,,,,,,,,,,,0,,,48,64
32882,control_change,30,0,1,,,,,,,,,,,,,,,,0,64,0,,
32907,note_on,25,0,1,,,,,,,,,,,,,,,,0,,,65,62
32908,note_on,1,0,1,,,,,,,,,,,,,,,,0,,,60,40
32918,note_on,10,0,1,,,,,,,,,,,,,,,,0,,,41,0
32923,control_change,5,0,1,,,,,,,,,,,,,,,,0,64,127,,
32941,note_on,18,0,1,,,,,,,,,,,,,,,,0,,,53,0
32962,note_on,21,0,1,,,,,,,,,,,,,,,,0,,,69,52
32964,note_on,2,0,1,,,,,,,,,,,,,,,,0,,,68,24
33009,note_on,45,0,1,,,,,,,,,,,,,,,,0,,,48,0
33010,note_on,1,0,1,,,,,,,,,,,,,,,,0,,,65,0
33013,note_on,3,0,1,,,,,,,,,,,,,,,,0,,,60,50
33016,note_on,3,0,1,,,,,,,,,,,,,,,,0,,,72,54
33017,note_on,1,0,1,,,,,,,,,,,,,,,,0,,,65,64
33064,note_on,47,0,1,,,,,,,,,,,,,,,,0,,,60,0
33069,note_on,5,0,1,,,,,,,,,,,,,,,,0,,,69,51
33071,note_on,2,0,1,,,,,,,,,,,,,,,,0,,,68,18
33077,note_on,6,0,1,,,,,,,,,,,,,,,,0,,,69,0
33104,note_on,27,0,1,,,,,,,,,,,,,,,,0,,,68,0
33107,note_on,3,0,1,,,,,,,,,,,,,,,,0,,,60,0
33109,note_on,2,0,1,,,,,,,,,,,,,,,,0,,,72,0
33122,note_on,13,0,1,,,,,,,,,,,,,,,,0,,,65,0
33124,note_on,2,0,1,,,,,,,,,,,,,,,,0,,,60,14
33125,note_on,1,0,1,,,,,,,,,,,,,,,,0,,,65,56
33144,note_on,19,0,1,,,,,,,,,,,,,,,,0,,,69,0
33149,note_on,5,0,1,,,,,,,,,,,,,,,,0,,,68,0
33172,note_on,23,0,1,,,,,,,,,,,,,,,,0,,,60,0
33176,note_on,4,0,1,,,,,,,,,,,,,,,,0,,,65,0
33179,note_on,3,0,1,,,,,,,,,,,,,,,,0,,,41,56
33180,note_on,1,0,1,,,,,,,,,,,,,,,,0,,,53,63
33180,note_on,0,0,1,,,,,,,,,,,,,,,,0,,,48,57
33236,note_on,56,0,1,,,,,,,,,,,,,,,,0,,,63,51
33236,note_on,0,0,1,,,,,,,,,,,,,,,,0,,,65,67
33292,note_on,56,0,1,,,,,,,,,,,,,,,,0,,,69,55
33347,note_on,55,0,1,,,,,,,,,,,,,,,,0,,,72,46
33350,note_on,3,0,1,,,,,,,,,,,,,,,,0,,,41,0
33352,note_on,2,0,1,,,,,,,,,,,,,,,,0,,,53,0
33355,note_on,3,0,1,,,,,,,,,,,,,,,,0,,,48,0
33358,note_on,3,0,1,,,,,,,,,,,,,,,,0,,,63,0
33408,note_on,50,0,1,,,,,,,,,,,,,,,,0,,,69,59
33414,note_on,6,0,1,,,,,,,,,,,,,,,,0,,,65,0
33460,note_on,46,0,1,,,,,,,,,,,,,,,,0,,,65,61
33462,note_on,2,0,1,,,,,,,,,,,,,,,,0,,,69,0
33463,note_on,1,0,1,,,,,,,,,,,,,,,,0,,,72,0
33465,note_on,2,0,1,,,,,,,,,,,,,,,,0,,,69,0
33472,note_on,7,0,1,,,,,,,,,,,,,,,,0,,,65,0
33516,note_on,44,0,1,,,,,,,,,,,,,,,,0,,,34,62
33520,note_on,4,0,1,,,,,,,,,,,,,,,,0,,,46,49
33521,note_on,682,0,2,,,,,,,,,,,,,,,,0,,,70,97
33522,note_on,2,0,1,,,,,,,,,,,,,,,,0,,,41,53
33526,note_on,5,0,2,,,,,,,,,,,,,,,,0,,,72,0
33536,control_change,14,0,1,,,,,,,,,,,,,,,,0,64,0,,
33582,note_on,46,0,1,,,,,,,,,,,,,,,,0,,,62,53
33584,control_change,2,0,1,,,,,,,,,,,,,,,,0,64,127,,
33617,note_on,33,0,1,,,,,,,,,,,,,,,,0,,,34,0
33635,note_on,18,0,1,,,,,,,,,,,,,,,,0,,,65,60
33641,note_on,6,0,1,,,,,,,,,,,,,,,,0,,,46,0
33688,note_on,47,0,1,,,,,,,,,,,,,,,,0,,,62,48
33689,note_on,1,0,1,,,,,,,,,,,,,,,,0,,,74,53
33742,note_on,53,0,1,,,,,,,,,,,,,,,,0,,,70,58
33757,note_on,15,0,1,,,,,,,,,,,,,,,,0,,,41,0
33778,note_on,21,0,1,,,,,,,,,,,,,,,,0,,,62,0
33783,note_on,5,0,1,,,,,,,,,,,,,,,,0,,,65,0
33795,note_on,12,0,1,,,,,,,,,,,,,,,,0,,,62,0
33798,note_on,3,0,1,,,,,,,,,,,,,,,,0,,,65,52
33823,note_on,25,0,1,,,,,,,,,,,,,,,,0,,,74,0
33828,note_on,5,0,1,,,,,,,,,,,,,,,,0,,,65,0
33828,note_on,0,0,1,,,,,,,,,,,,,,,,0,,,70,0
33853,note_on,25,0,1,,,,,,,,,,,,,,,,0,,,31,69
33854,note_on,1,0,1,,,,,,,,,,,,,,,,0,,,43,64
33890,control_change,36,0,1,,,,,,,,,,,,,,,,0,64,0,,
33912,note_on,22,0,1,,,,,,,,,,,,,,,,0,,,64,66
33915,note_on,3,0,1,,,,,,,,,,,,,,,,0,,,62,46
33920,control_change,5,0,1,,,,,,,,,,,,,,,,0,64,127,,
33933,note_on,0,0,1,,,,,,,,,,,,,,,,0,,,31,0
33933,note_on,13,0,1,,,,,,,,,,,,,,,,0,,,43,0
33965,note_on,32,0,1,,,,,,,,,,,,,,,,0,,,70,69
34020,note_on,0,0,1,,,,,,,,,,,,,,,,0,,,62,59
34020,note_on,55,0,1,,,,,,,,,,,,,,,,0,,,64,0
34021,note_on,1,0,1,,,,,,,,,,,,,,,,0,,,74,62
34047,note_on,521,0,2,,,,,,,,,,,,,,,,0,,,70,0
34056,note_on,9,0,2,,,,,,,,,,,,,,,,0,,,69,105
34074,note_on,53,0,1,,,,,,,,,,,,,,,,0,,,70,60
34080,note_on,6,0,1,,,,,,,,,,,,,,,,0,,,62,0
34084,note_on,4,0,1,,,,,,,,,,,,,,,,0,,,70,0
34098,note_on,14,0,1,,,,,,,,,,,,,,,,0,,,62,0
34109,note_on,53,0,2,,,,,,,,,,,,,,,,0,,,69,0
34120,note_on,11,0,2,,,,,,,,,,,,,,,,0,,,70,103
34131,note_on,33,0,1,,,,,,,,,,,,,,,,0,,,65,49
34173,note_on,53,0,2,,,,,,,,,,,,,,,,0,,,70,0
34179,note_on,6,0,2,,,,,,,,,,,,,,,,0,,,74,105
34186,note_on,55,0,1,,,,,,,,,,,,,,,,0,,,29,66
34187,note_on,1,0,1,,,,,,,,,,,,,,,,0,,,41,58
34193,note_on,6,0,1,,,,,,,,,,,,,,,,0,,,74,0
34197,note_on,4,0,1,,,,,,,,,,,,,,,,0,,,70,0
34207,note_on,10,0,1,,,,,,,,,,,,,,,,0,,,65,0
34249,note_on,42,0,1,,,,,,,,,,,,,,,,0,,,62,48
34250,note_on,1,0,1,,,,,,,,,,,,,,,,0,,,65,61
34256,control_change,6,0,1,,,,,,,,,,,,,,,,0,64,127,,
34280,note_on,24,0,1,,,,,,,,,,,,,,,,0,,,29,0
34283,note_on,3,0,1,,,,,,,,,,,,,,,,0,,,41,0
34301,note_on,18,0,1,,,,,,,,,,,,,,,,0,,,70,67
34339,note_on,38,0,1,,,,,,,,,,,,,,,,0,,,62,0
34353,note_on,14,0,1,,,,,,,,,,,,,,,,0,,,65,54
34354,note_on,1,0,1,,,,,,,,,,,,,,,,0,,,74,48
34359,note_on,5,0,1,,,,,,,,,,,,,,,,0,,,62,18
34378,note_on,19,0,1,,,,,,,,,,,,,,,,0,,,65,0
34396,note_on,18,0,1,,,,,,,,,,,,,,,,0,,,70,0
34409,note_on,13,0,1,,,,,,,,,,,,,,,,0,,,70,57
34463,note_on,54,0,1,,,,,,,,,,,,,,,,0,,,65,0
34464,note_on,1,0,1,,,,,,,,,,,,,,,,0,,,74,0
34470,note_on,6,0,1,,,,,,,,,,,,,,,,0,,,62,30
34470,note_on,0,0,1,,,,,,,,,,,,,,,,0,,,65,53
34506,note_on,36,0,1,,,,,,,,,,,,,,,,0,,,62,0
34518,note_on,12,0,1,,,,,,,,,,,,,,,,0,,,70,0
34527,note_on,9,0,1,,,,,,,,,,,,,,,,0,,,29,56
34528,note_on,1,0,1,,,,,,,,,,,,,,,,0,,,41,54
34540,note_on,12,0,1,,,,,,,,,,,,,,,,0,,,62,0
34544,control_change,4,0,1,,,,,,,,,,,,,,,,0,64,0,,
34546,note_on,2,0,1,,,,,,,,,,,,,,,,0,,,65,0
34561,control_change,15,0,1,,,,,,,,,,,,,,,,0,64,127,,
34585,note_on,24,0,1,,,,,,,,,,,,,,,,0,,,29,0
34587,note_on,2,0,1,,,,,,,,,,,,,,,,0,,,63,41
34589,note_on,2,0,1,,,,,,,,,,,,,,,,0,,,65,73
34619,note_on,30,0,1,,,,,,,,,,,,,,,,0,,,41,0
34632,note_on,13,0,1,,,,,,,,,,,,,,,,0,,,63,10
34639,note_on,7,0,1,,,,,,,,,,,,,,,,0,,,69,50
34681,note_on,502,0,2,,,,,,,,,,,,,,,,0,,,72,87
34685,note_on,4,0,2,,,,,,,,,,,,,,,,0,,,74,0
34693,note_on,54,0,1,,,,,,,,,,,,,,,,0,,,72,56
34752,note_on,59,0,1,,,,,,,,,,,,,,,,0,,,63,0
34754,note_on,2,0,1,,,,,,,,,,,,,,,,0,,,69,56
34771,note_on,17,0,1,,,,,,,,,,,,,,,,0,,,65,0
34783,note_on,12,0,1,,,,,,,,,,,,,,,,0,,,63,0
34803,note_on,20,0,1,,,,,,,,,,,,,,,,0,,,69,0
34811,note_on,8,0,1,,,,,,,,,,,,,,,,0,,,65,66
34813,note_on,2,0,1,,,,,,,,,,,,,,,,0,,,72,0
34831,note_on,18,0,1,,,,,,,,,,,,,,,,0,,,69,0
34853,note_on,168,0,2,,,,,,,,,,,,,,,,0,,,70,99
34856,note_on,3,0,2,,,,,,,,,,,,,,,,0,,,72,0
34856,note_on,25,0,1,,,,,,,,,,,,,,,,0,,,65,0
34863,note_on,0,0,1,,,,,,,,,,,,,,,,0,,,34,65
34863,note_on,7,0,1,,,,,,,,,,,,,,,,0,,,46,62
34865,note_on,2,0,1,,,,,,,,,,,,,,,,0,,,41,60
34883,control_change,18,0,1,,,,,,,,,,,,,,,,0,64,0,,
34923,note_on,40,0,1,,,,,,,,,,,,,,,,0,,,65,63
34924,note_on,1,0,1,,,,,,,,,,,,,,,,0,,,62,42
34926,control_change,2,0,1,,,,,,,,,,,,,,,,0,64,127,,
34946,note_on,20,0,1,,,,,,,,,,,,,,,,0,,,46,0
34951,note_on,5,0,1,,,,,,,,,,,,,,,,0,,,34,0
34976,note_on,25,0,1,,,,,,,,,,,,,,,,0,,,70,63
35015,note_on,39,0,1,,,,,,,,,,,,,,,,0,,,41,0
35031,note_on,16,0,1,,,,,,,,,,,,,,,,0,,,74,53
35035,note_on,4,0,1,,,,,,,,,,,,,,,,0,,,65,51
35038,note_on,3,0,1,,,,,,,,,,,,,,,,0,,,62,9
35082,note_on,44,0,1,,,,,,,,,,,,,,,,0,,,65,0
35088,note_on,6,0,1,,,,,,,,,,,,,,,,0,,,70,56
35100,note_on,12,0,1,,,,,,,,,,,,,,,,0,,,62,0
35130,note_on,30,0,1,,,,,,,,,,,,,,,,0,,,70,0
35131,note_on,1,0,1,,,,,,,,,,,,,,,,0,,,74,0
35142,note_on,11,0,1,,,,,,,,,,,,,,,,0,,,65,0
35142,note_on,0,0,1,,,,,,,,,,,,,,,,0,,,65,50
35146,note_on,4,0,1,,,,,,,,,,,,,,,,0,,,62,21
35192,note_on,46,0,1,,,,,,,,,,,,,,,,0,,,62,0
35194,note_on,2,0,1,,,,,,,,,,,,,,,,0,,,70,0
35195,note_on,1,0,1,,,,,,,,,,,,,,,,0,,,34,52
35196,note_on,1,0,1,,,,,,,,,,,,,,,,0,,,65,0
35197,note_on,1,0,1,,,,,,,,,,,,,,,,0,,,46,36
35198,note_on,1,0,1,,,,,,,,,,,,,,,,0,,,41,46
35209,note_on,11,0,1,,,,,,,,,,,,,,,,0,,,62,0
35254,note_on,0,0,1,,,,,,,,,,,,,,,,0,,,62,45
35254,note_on,45,0,1,,,,,,,,,,,,,,,,0,,,65,54
35273,note_on,19,0,1,,,,,,,,,,,,,,,,0,,,34,0
35279,note_on,6,0,1,,,,,,,,,,,,,,,,0,,,46,0
35304,note_on,25,0,1,,,,,,,,,,,,,,,,0,,,70,58
35354,note_on,50,0,1,,,,,,,,,,,,,,,,0,,,41,0
35360,note_on,6,0,1,,,,,,,,,,,,,,,,0,,,74,46
35360,note_on,0,0,1,,,,,,,,,,,,,,,,0,,,65,40
35365,note_on,5,0,1,,,,,,,,,,,,,,,,0,,,62,12
35413,note_on,48,0,1,,,,,,,,,,,,,,,,0,,,65,0
35416,note_on,3,0,1,,,,,,,,,,,,,,,,0,,,70,58
35454,note_on,38,0,1,,,,,,,,,,,,,,,,0,,,62,0
35461,note_on,7,0,1,,,,,,,,,,,,,,,,0,,,70,0
35465,note_on,4,0,1,,,,,,,,,,,,,,,,0,,,74,0
35469,note_on,4,0,1,,,,,,,,,,,,,,,,0,,,65,60
35470,note_on,1,0,1,,,,,,,,,,,,,,,,0,,,65,0
35481,note_on,11,0,1,,,,,,,,,,,,,,,,0,,,62,0
35487,note_on,6,0,1,,,,,,,,,,,,,,,,0,,,70,0
35491,note_on,4,0,1,,,,,,,,,,,,,,,,0,,,65,0
35522,note_on,31,0,1,,,,,,,,,,,,,,,,0,,,34,62
35523,note_on,1,0,1,,,,,,,,,,,,,,,,0,,,41,60
35524,note_on,1,0,1,,,,,,,,,,,,,,,,0,,,46,56
35560,control_change,36,0,1,,,,,,,,,,,,,,,,0,64,0,,
35570,control_change,10,0,1,,,,,,,,,,,,,,,,0,64,127,,
35581,note_on,11,0,1,,,,,,,,,,,,,,,,0,,,70,66
35582,note_on,1,0,1,,,,,,,,,,,,,,,,0,,,65,56
35602,note_on,20,0,1,,,,,,,,,,,,,,,,0,,,34,0
35620,note_on,18,0,1,,,,,,,,,,,,,,,,0,,,41,0
35636,note_on,16,0,1,,,,,,,,,,,,,,,,0,,,74,66
35667,note_on,31,0,1,,,,,,,,,,,,,,,,0,,,46,0
35687,note_on,20,0,1,,,,,,,,,,,,,,,,0,,,70,76
35687,note_on,0,0,1,,,,,,,,,,,,,,,,0,,,77,61
35746,note_on,59,0,1,,,,,,,,,,,,,,,,0,,,70,0
35746,note_on,0,0,1,,,,,,,,,,,,,,,,0,,,74,55
35801,note_on,55,0,1,,,,,,,,,,,,,,,,0,,,65,0
35801,note_on,0,0,1,,,,,,,,,,,,,,,,0,,,70,60
35802,note_on,1,0,1,,,,,,,,,,,,,,,,0,,,74,0
35804,note_on,2,0,1,,,,,,,,,,,,,,,,0,,,70,0
35804,note_on,0,0,1,,,,,,,,,,,,,,,,0,,,65,52
35852,note_on,48,0,1,,,,,,,,,,,,,,,,0,,,77,0
35852,note_on,0,0,1,,,,,,,,,,,,,,,,0,,,34,57
35854,note_on,2,0,1,,,,,,,,,,,,,,,,0,,,46,52
35854,note_on,0,0,1,,,,,,,,,,,,,,,,0,,,41,52
35858,note_on,4,0,1,,,,,,,,,,,,,,,,0,,,74,0
35860,note_on,2,0,1,,,,,,,,,,,,,,,,0,,,65,0
35860,note_on,0,0,1,,,,,,,,,,,,,,,,0,,,70,0
35919,note_on,59,0,1,,,,,,,,,,,,,,,,0,,,68,47
35919,note_on,0,0,1,,,,,,,,,,,,,,,,0,,,74,69
35948,note_on,29,0,1,,,,,,,,,,,,,,,,0,,,34,0
35954,note_on,6,0,1,,,,,,,,,,,,,,,,0,,,46,0
35973,note_on,19,0,1,,,,,,,,,,,,,,,,0,,,68,47
35974,note_on,1,0,1,,,,,,,,,,,,,,,,0,,,77,57
35995,note_on,0,0,1,,,,,,,,,,,,,,,,0,,,68,0
35995,note_on,21,0,1,,,,,,,,,,,,,,,,0,,,41,0
36022,note_on,27,0,1,,,,,,,,,,,,,,,,0,,,74,0
36030,note_on,8,0,1,,,,,,,,,,,,,,,,0,,,80,49
36031,note_on,1,0,1,,,,,,,,,,,,,,,,0,,,74,61
36032,note_on,1,0,1,,,,,,,,,,,,,,,,0,,,68,24
36052,note_on,20,0,1,,,,,,,,,,,,,,,,0,,,68,0
36053,note_on,1,0,1,,,,,,,,,,,,,,,,0,,,77,0
36090,note_on,37,0,1,,,,,,,,,,,,,,,,0,,,77,49
36094,note_on,4,0,1,,,,,,,,,,,,,,,,0,,,80,0
36102,note_on,8,0,1,,,,,,,,,,,,,,,,0,,,74,0
36142,note_on,40,0,1,,,,,,,,,,,,,,,,0,,,68,52
36146,note_on,4,0,1,,,,,,,,,,,,,,,,0,,,74,61
36151,note_on,5,0,1,,,,,,,,,,,,,,,,0,,,68,0
36152,note_on,1,0,1,,,,,,,,,,,,,,,,0,,,77,0
36153,note_on,1,0,1,,,,,,,,,,,,,,,,0,,,68,0
36153,note_on,0,0,1,,,,,,,,,,,,,,,,0,,,74,0
36194,note_on,41,0,1,,,,,,,,,,,,,,,,0,,,39,52
36195,note_on,1,0,1,,,,,,,,,,,,,,,,0,,,46,49
36197,note_on,2,0,1,,,,,,,,,,,,,,,,0,,,51,53
36226,control_change,29,0,1,,,,,,,,,,,,,,,,0,64,0,,
36255,note_on,29,0,1,,,,,,,,,,,,,,,,0,,,70,60
36256,note_on,1,0,1,,,,,,,,,,,,,,,,0,,,67,47
36259,control_change,3,0,1,,,,,,,,,,,,,,,,0,64,127,,
36275,note_on,16,0,1,,,,,,,,,,,,,,,,0,,,39,0
36284,note_on,9,0,1,,,,,,,,,,,,,,,,0,,,46,0
36311,note_on,27,0,1,,,,,,,,,,,,,,,,0,,,75,54
36326,note_on,15,0,1,,,,,,,,,,,,,,,,0,,,51,0
36367,note_on,41,0,1,,,,,,,,,,,,,,,,0,,,79,60
36372,note_on,5,0,1,,,,,,,,,,,,,,,,0,,,67,21
36411,note_on,39,0,1,,,,,,,,,,,,,,,,0,,,70,0
36423,note_on,12,0,1,,,,,,,,,,,,,,,,0,,,75,56
36432,note_on,9,0,1,,,,,,,,,,,,,,,,0,,,67,0
36483,note_on,51,0,1,,,,,,,,,,,,,,,,0,,,67,37
36495,note_on,12,0,1,,,,,,,,,,,,,,,,0,,,79,0
36495,note_on,0,0,1,,,,,,,,,,,,,,,,0,,,75,0
36497,note_on,2,0,1,,,,,,,,,,,,,,,,0,,,67,0
36511,note_on,14,0,1,,,,,,,,,,,,,,,,0,,,75,0
36525,note_on,14,0,1,,,,,,,,,,,,,,,,0,,,67,0
36541,note_on,16,0,1,,,,,,,,,,,,,,,,0,,,51,49
36541,note_on,0,0,1,,,,,,,,,,,,,,,,0,,,46,49
36542,note_on,1,0,1,,,,,,,,,,,,,,,,0,,,39,42
36601,note_on,59,0,1,,,,,,,,,,,,,,,,0,,,66,36
36662,note_on,61,0,1,,,,,,,,,,,,,,,,0,,,70,44
36664,note_on,2,0,1,,,,,,,,,,,,,,,,0,,,51,0
36671,note_on,7,0,1,,,,,,,,,,,,,,,,0,,,46,0
36714,note_on,43,0,1,,,,,,,,,,,,,,,,0,,,39,0
36716,note_on,2,0,1,,,,,,,,,,,,,,,,0,,,51,51
36718,note_on,2,0,1,,,,,,,,,,,,,,,,0,,,78,48
36737,note_on,19,0,1,,,,,,,,,,,,,,,,0,,,66,0
36750,note_on,13,0,1,,,,,,,,,,,,,,,,0,,,70,0
36757,note_on,7,0,1,,,,,,,,,,,,,,,,0,,,51,0
36779,note_on,22,0,1,,,,,,,,,,,,,,,,0,,,73,35
36837,note_on,58,0,1,,,,,,,,,,,,,,,,0,,,70,42
36843,note_on,6,0,1,,,,,,,,,,,,,,,,0,,,78,0
36845,note_on,2,0,1,,,,,,,,,,,,,,,,0,,,73,0
36855,note_on,10,0,1,,,,,,,,,,,,,,,,0,,,70,0
36887,note_on,32,0,1,,,,,,,,,,,,,,,,0,,,34,56
36889,note_on,2,0,1,,,,,,,,,,,,,,,,0,,,46,47
36891,note_on,2,0,1,,,,,,,,,,,,,,,,0,,,41,54
36909,control_change,18,0,1,,,,,,,,,,,,,,,,0,64,0,,
36944,control_change,35,0,1,,,,,,,,,,,,,,,,0,64,127,,
36947,note_on,3,0,1,,,,,,,,,,,,,,,,0,,,70,51
36950,note_on,3,0,1,,,,,,,,,,,,,,,,0,,,65,31
36976,note_on,26,0,1,,,,,,,,,,,,,,,,0,,,34,0
37008,note_on,32,0,1,,,,,,,,,,,,,,,,0,,,74,40
37012,note_on,4,0,1,,,,,,,,,,,,,,,,0,,,46,0
37013,note_on,1,0,1,,,,,,,,,,,,,,,,0,,,41,0
37014,note_on,1,0,1,,,,,,,,,,,,,,,,0,,,70,0
37023,note_on,9,0,1,,,,,,,,,,,,,,,,0,,,65,0
37035,note_on,12,0,1,,,,,,,,,,,,,,,,0,,,74,0
37060,note_on,25,0,1,,,,,,,,,,,,,,,,0,,,77,45
37061,note_on,1,0,1,,,,,,,,,,,,,,,,0,,,65,32
37065,note_on,4,0,1,,,,,,,,,,,,,,,,0,,,70,49
37112,note_on,47,0,1,,,,,,,,,,,,,,,,0,,,77,0
37122,note_on,10,0,1,,,,,,,,,,,,,,,,0,,,74,39
37131,note_on,9,0,1,,,,,,,,,,,,,,,,0,,,65,0
37152,note_on,21,0,1,,,,,,,,,,,,,,,,0,,,70,0
37175,note_on,23,0,1,,,,,,,,,,,,,,,,0,,,70,21
37234,note_on,59,0,1,,,,,,,,,,,,,,,,0,,,74,0
37236,note_on,2,0,1,,,,,,,,,,,,,,,,0,,,70,0
37237,note_on,1,0,1,,,,,,,,,,,,,,,,0,,,65,48
37252,note_on,15,0,1,,,,,,,,,,,,,,,,0,,,65,0
37288,note_on,36,0,1,,,,,,,,,,,,,,,,0,,,65,61
37342,note_on,54,0,1,,,,,,,,,,,,,,,,0,,,70,53
37394,note_on,52,0,1,,,,,,,,,,,,,,,,0,,,74,65
37401,note_on,7,0,1,,,,,,,,,,,,,,,,0,,,65,0
37409,note_on,2553,0,2,,,,,,,,,,,,,,,,0,,,70,0
37452,note_on,51,0,1,,,,,,,,,,,,,,,,0,,,70,62
37457,note_on,5,0,1,,,,,,,,,,,,,,,,0,,,70,0
37504,note_on,47,0,1,,,,,,,,,,,,,,,,0,,,74,0
37507,note_on,3,0,1,,,,,,,,,,,,,,,,0,,,65,52
37519,note_on,12,0,1,,,,,,,,,,,,,,,,0,,,70,0
37525,note_on,6,0,1,,,,,,,,,,,,,,,,0,,,65,0
37555,note_on,30,0,1,,,,,,,,,,,,,,,,0,,,34,59
37556,note_on,1,0,1,,,,,,,,,,,,,,,,0,,,46,53
37558,note_on,2,0,1,,,,,,,,,,,,,,,,0,,,41,48
37588,note_on,179,0,2,,,,,,,,,,,,,,,,0,,,70,94
37588,note_on,0,0,2,,,,,,,,,,,,,,,,0,,,82,94
37589,control_change,31,0,1,,,,,,,,,,,,,,,,0,64,0,,
37615,note_on,26,0,1,,,,,,,,,,,,,,,,0,,,62,45
37616,note_on,1,0,1,,,,,,,,,,,,,,,,0,,,65,66
37626,control_change,10,0,1,,,,,,,,,,,,,,,,0,64,127,,
37646,note_on,20,0,1,,,,,,,,,,,,,,,,0,,,34,0
37669,note_on,23,0,1,,,,,,,,,,,,,,,,0,,,70,65
37689,note_on,20,0,1,,,,,,,,,,,,,,,,0,,,46,0
37712,note_on,23,0,1,,,,,,,,,,,,,,,,0,,,41,0
37724,note_on,12,0,1,,,,,,,,,,,,,,,,0,,,62,58
37727,note_on,3,0,1,,,,,,,,,,,,,,,,0,,,65,66
37727,note_on,0,0,1,,,,,,,,,,,,,,,,0,,,74,36
37730,note_on,3,0,1,,,,,,,,,,,,,,,,0,,,72,40
37756,note_on,26,0,1,,,,,,,,,,,,,,,,0,,,62,0
37778,note_on,0,0,1,,,,,,,,,,,,,,,,0,,,70,65
37778,note_on,22,0,1,,,,,,,,,,,,,,,,0,,,65,0
37798,note_on,20,0,1,,,,,,,,,,,,,,,,0,,,70,0
37804,note_on,6,0,1,,,,,,,,,,,,,,,,0,,,62,0
37820,note_on,16,0,1,,,,,,,,,,,,,,,,0,,,65,0
37834,note_on,14,0,1,,,,,,,,,,,,,,,,0,,,65,68
37847,note_on,13,0,1,,,,,,,,,,,,,,,,0,,,74,0
37853,note_on,6,0,1,,,,,,,,,,,,,,,,0,,,72,0
37855,note_on,2,0,1,,,,,,,,,,,,,,,,0,,,70,0
37862,note_on,7,0,1,,,,,,,,,,,,,,,,0,,,65,0
37888,note_on,26,0,1,,,,,,,,,,,,,,,,0,,,31,77
37891,note_on,3,0,1,,,,,,,,,,,,,,,,0,,,43,68
37923,control_change,32,0,1,,,,,,,,,,,,,,,,0,64,0,,
37945,note_on,22,0,1,,,,,,,,,,,,,,,,0,,,64,72
37946,note_on,1,0,1,,,,,,,,,,,,,,,,0,,,62,63
37954,control_change,8,0,1,,,,,,,,,,,,,,,,0,64,127,,
37955,note_on,0,0,2,,,,,,,,,,,,,,,,0,,,70,0
37955,note_on,367,0,2,,,,,,,,,,,,,,,,0,,,82,0
37972,note_on,18,0,1,,,,,,,,,,,,,,,,0,,,43,0
37972,note_on,0,0,1,,,,,,,,,,,,,,,,0,,,31,0
37997,note_on,25,0,1,,,,,,,,,,,,,,,,0,,,70,68
38025,note_on,28,0,1,,,,,,,,,,,,,,,,0,,,64,0
38049,note_on,94,0,2,,,,,,,,,,,,,,,,0,,,69,98
38049,note_on,0,0,2,,,,,,,,,,,,,,,,0,,,81,98
38051,note_on,26,0,1,,,,,,,,,,,,,,,,0,,,62,64
38053,note_on,2,0,1,,,,,,,,,,,,,,,,0,,,74,60
38088,note_on,35,0,1,,,,,,,,,,,,,,,,0,,,62,0
38095,note_on,7,0,1,,,,,,,,,,,,,,,,0,,,70,0
38102,note_on,7,0,1,,,,,,,,,,,,,,,,0,,,70,66
38152,note_on,50,0,1,,,,,,,,,,,,,,,,0,,,65,61
38161,note_on,112,0,2,,,,,,,,,,,,,,,,0,,,70,115
38161,note_on,0,0,2,,,,,,,,,,,,,,,,0,,,82,115
38167,note_on,6,0,2,,,,,,,,,,,,,,,,0,,,81,0
38167,note_on,0,0,2,,,,,,,,,,,,,,,,0,,,69,0
38205,note_on,53,0,1,,,,,,,,,,,,,,,,0,,,29,67
38208,note_on,3,0,1,,,,,,,,,,,,,,,,0,,,41,63
38211,note_on,44,0,2,,,,,,,,,,,,,,,,0,,,74,101
38211,note_on,0,0,2,,,,,,,,,,,,,,,,0,,,86,101
38214,note_on,3,0,2,,,,,,,,,,,,,,,,0,,,70,0
38214,note_on,0,0,2,,,,,,,,,,,,,,,,0,,,82,0
38220,note_on,12,0,1,,,,,,,,,,,,,,,,0,,,62,0
38232,note_on,12,0,1,,,,,,,,,,,,,,,,0,,,74,0
38246,note_on,14,0,1,,,,,,,,,,,,,,,,0,,,70,0
38265,note_on,19,0,1,,,,,,,,,,,,,,,,0,,,65,60
38268,control_change,3,0,1,,,,,,,,,,,,,,,,0,64,127,,
38288,note_on,20,0,1,,,,,,,,,,,,,,,,0,,,65,0
38315,note_on,27,0,1,,,,,,,,,,,,,,,,0,,,70,48
38319,note_on,4,0,1,,,,,,,,,,,,,,,,0,,,29,0
38353,note_on,34,0,1,,,,,,,,,,,,,,,,0,,,41,0
38369,note_on,16,0,1,,,,,,,,,,,,,,,,0,,,74,42
38373,note_on,4,0,1,,,,,,,,,,,,,,,,0,,,65,32
38417,note_on,44,0,1,,,,,,,,,,,,,,,,0,,,65,0
38424,note_on,7,0,1,,,,,,,,,,,,,,,,0,,,70,56
38470,note_on,46,0,1,,,,,,,,,,,,,,,,0,,,70,0
38470,note_on,0,0,1,,,,,,,,,,,,,,,,0,,,74,0
38481,note_on,11,0,1,,,,,,,,,,,,,,,,0,,,65,45
38485,note_on,4,0,1,,,,,,,,,,,,,,,,0,,,62,1
38531,note_on,46,0,1,,,,,,,,,,,,,,,,0,,,65,0
38533,note_on,2,0,1,,,,,,,,,,,,,,,,0,,,70,0
38534,note_on,1,0,1,,,,,,,,,,,,,,,,0,,,41,48
38535,note_on,1,0,1,,,,,,,,,,,,,,,,0,,,29,53
38540,note_on,5,0,1,,,,,,,,,,,,,,,,0,,,65,0
38542,note_on,2,0,1,,,,,,,,,,,,,,,,0,,,62,0
38592,note_on,50,0,1,,,,,,,,,,,,,,,,0,,,63,50
38595,note_on,3,0,1,,,,,,,,,,,,,,,,0,,,69,60
38647,note_on,52,0,1,,,,,,,,,,,,,,,,0,,,72,56
38649,note_on,2,0,1,,,,,,,,,,,,,,,,0,,,41,0
38655,note_on,6,0,1,,,,,,,,,,,,,,,,0,,,29,0
38657,note_on,2,0,1,,,,,,,,,,,,,,,,0,,,63,0
38700,note_on,43,0,1,,,,,,,,,,,,,,,,0,,,63,47
38703,note_on,3,0,1,,,,,,,,,,,,,,,,0,,,75,35
38704,note_on,1,0,1,,,,,,,,,,,,,,,,0,,,69,51
38714,note_on,10,0,1,,,,,,,,,,,,,,,,0,,,69,0
38722,note_on,8,0,1,,,,,,,,,,,,,,,,0,,,72,0
38735,note_on,0,0,2,,,,,,,,,,,,,,,,0,,,86,0
38735,note_on,521,0,2,,,,,,,,,,,,,,,,0,,,74,0
38742,note_on,0,0,2,,,,,,,,,,,,,,,,0,,,84,90
38742,note_on,7,0,2,,,,,,,,,,,,,,,,0,,,72,90
38751,note_on,29,0,1,,,,,,,,,,,,,,,,0,,,63,0
38761,note_on,10,0,1,,,,,,,,,,,,,,,,0,,,72,42
38816,note_on,55,0,1,,,,,,,,,,,,,,,,0,,,75,0
38819,note_on,3,0,1,,,,,,,,,,,,,,,,0,,,69,50
38838,note_on,19,0,1,,,,,,,,,,,,,,,,0,,,69,0
38840,note_on,2,0,1,,,,,,,,,,,,,,,,0,,,72,0
38845,note_on,5,0,1,,,,,,,,,,,,,,,,0,,,69,0
38860,note_on,118,0,2,,,,,,,,,,,,,,,,0,,,70,92
38860,note_on,0,0,2,,,,,,,,,,,,,,,,0,,,82,92
38863,note_on,3,0,2,,,,,,,,,,,,,,,,0,,,84,0
38863,note_on,0,0,2,,,,,,,,,,,,,,,,0,,,72,0
38864,note_on,19,0,1,,,,,,,,,,,,,,,,0,,,31,73
38865,note_on,1,0,1,,,,,,,,,,,,,,,,0,,,43,69
38895,control_change,30,0,1,,,,,,,,,,,,,,,,0,64,0,,
38921,note_on,26,0,1,,,,,,,,,,,,,,,,0,,,62,50
38922,note_on,1,0,1,,,,,,,,,,,,,,,,0,,,67,62
38932,control_change,10,0,1,,,,,,,,,,,,,,,,0,64,127,,
38957,note_on,25,0,1,,,,,,,,,,,,,,,,0,,,31,0
38958,note_on,1,0,1,,,,,,,,,,,,,,,,0,,,43,0
38973,note_on,15,0,1,,,,,,,,,,,,,,,,0,,,70,65
38978,note_on,5,0,1,,,,,,,,,,,,,,,,0,,,62,8
38992,note_on,14,0,1,,,,,,,,,,,,,,,,0,,,62,0
39010,note_on,18,0,1,,,,,,,,,,,,,,,,0,,,67,0
39028,note_on,18,0,1,,,,,,,,,,,,,,,,0,,,62,62
39028,note_on,0,0,1,,,,,,,,,,,,,,,,0,,,67,60
39029,note_on,1,0,1,,,,,,,,,,,,,,,,0,,,74,62
39082,note_on,53,0,1,,,,,,,,,,,,,,,,0,,,70,0
39085,note_on,3,0,1,,,,,,,,,,,,,,,,0,,,70,62
39102,note_on,17,0,1,,,,,,,,,,,,,,,,0,,,62,0
39132,note_on,30,0,1,,,,,,,,,,,,,,,,0,,,62,0
39136,note_on,4,0,1,,,,,,,,,,,,,,,,0,,,62,66
39139,note_on,3,0,1,,,,,,,,,,,,,,,,0,,,67,58
39145,note_on,6,0,1,,,,,,,,,,,,,,,,0,,,67,0
39188,note_on,43,0,1,,,,,,,,,,,,,,,,0,,,74,0
39191,note_on,0,0,1,,,,,,,,,,,,,,,,0,,,31,75
39191,note_on,3,0,1,,,,,,,,,,,,,,,,0,,,43,77
39209,note_on,18,0,1,,,,,,,,,,,,,,,,0,,,70,0
39248,note_on,39,0,1,,,,,,,,,,,,,,,,0,,,62,66
39253,note_on,5,0,1,,,,,,,,,,,,,,,,0,,,62,0
39272,note_on,19,0,1,,,,,,,,,,,,,,,,0,,,67,0
39300,note_on,28,0,1,,,,,,,,,,,,,,,,0,,,67,66
39309,note_on,9,0,1,,,,,,,,,,,,,,,,0,,,43,0
39321,note_on,12,0,1,,,,,,,,,,,,,,,,0,,,31,0
39353,note_on,32,0,1,,,,,,,,,,,,,,,,0,,,62,67
39353,note_on,0,0,1,,,,,,,,,,,,,,,,0,,,67,63
39355,note_on,2,0,1,,,,,,,,,,,,,,,,0,,,74,64
39385,note_on,30,0,1,,,,,,,,,,,,,,,,0,,,62,0
39396,note_on,11,0,1,,,,,,,,,,,,,,,,0,,,67,0
39412,note_on,16,0,1,,,,,,,,,,,,,,,,0,,,62,0
39412,note_on,0,0,1,,,,,,,,,,,,,,,,0,,,70,52
39465,note_on,53,0,1,,,,,,,,,,,,,,,,0,,,67,58
39473,note_on,8,0,1,,,,,,,,,,,,,,,,0,,,67,0
39474,note_on,1,0,1,,,,,,,,,,,,,,,,0,,,74,0
39483,note_on,9,0,1,,,,,,,,,,,,,,,,0,,,70,0
39483,note_on,0,0,1,,,,,,,,,,,,,,,,0,,,67,0
39505,note_on,0,0,2,,,,,,,,,,,,,,,,0,,,82,0
39505,note_on,642,0,2,,,,,,,,,,,,,,,,0,,,70,0
39512,note_on,7,0,2,,,,,,,,,,,,,,,,0,,,72,102
39512,note_on,0,0,2,,,,,,,,,,,,,,,,0,,,84,102
39515,note_on,32,0,1,,,,,,,,,,,,,,,,0,,,27,70
39516,note_on,1,0,1,,,,,,,,,,,,,,,,0,,,39,69
39553,control_change,37,0,1,,,,,,,,,,,,,,,,0,64,0,,
39571,note_on,18,0,1,,,,,,,,,,,,,,,,0,,,63,68
39573,note_on,2,0,1,,,,,,,,,,,,,,,,0,,,67,64
39595,control_change,22,0,1,,,,,,,,,,,,,,,,0,64,127,,
39627,note_on,32,0,1,,,,,,,,,,,,,,,,0,,,72,66
39634,note_on,7,0,1,,,,,,,,,,,,,,,,0,,,27,0
39644,note_on,10,0,1,,,,,,,,,,,,,,,,0,,,39,0
39659,note_on,15,0,1,,,,,,,,,,,,,,,,0,,,63,0
39677,note_on,18,0,1,,,,,,,,,,,,,,,,0,,,75,65
39680,note_on,3,0,1,,,,,,,,,,,,,,,,0,,,67,65
39726,note_on,46,0,1,,,,,,,,,,,,,,,,0,,,67,0
39732,note_on,6,0,1,,,,,,,,,,,,,,,,0,,,72,61
39739,note_on,7,0,1,,,,,,,,,,,,,,,,0,,,72,0
39756,note_on,17,0,1,,,,,,,,,,,,,,,,0,,,75,0
39761,note_on,5,0,1,,,,,,,,,,,,,,,,0,,,67,0
39790,note_on,278,0,2,,,,,,,,,,,,,,,,0,,,84,0
39790,note_on,0,0,2,,,,,,,,,,,,,,,,0,,,72,0
39791,note_on,30,0,1,,,,,,,,,,,,,,,,0,,,67,49
39795,note_on,5,0,2,,,,,,,,,,,,,,,,0,,,74,81
39795,note_on,0,0,2,,,,,,,,,,,,,,,,0,,,86,81
39803,note_on,12,0,1,,,,,,,,,,,,,,,,0,,,72,0
39808,note_on,13,0,2,,,,,,,,,,,,,,,,0,,,72,89
39808,note_on,0,0,2,,,,,,,,,,,,,,,,0,,,84,89
39811,note_on,8,0,1,,,,,,,,,,,,,,,,0,,,67,0
39818,note_on,10,0,2,,,,,,,,,,,,,,,,0,,,86,0
39818,note_on,0,0,2,,,,,,,,,,,,,,,,0,,,74,0
39824,note_on,6,0,2,,,,,,,,,,,,,,,,0,,,70,96
39824,note_on,0,0,2,,,,,,,,,,,,,,,,0,,,82,96
39829,note_on,5,0,2,,,,,,,,,,,,,,,,0,,,72,0
39829,note_on,0,0,2,,,,,,,,,,,,,,,,0,,,84,0
39846,note_on,35,0,1,,,,,,,,,,,,,,,,0,,,29,54
39849,note_on,3,0,1,,,,,,,,,,,,,,,,0,,,41,50
39892,control_change,43,0,1,,,,,,,,,,,,,,,,0,64,0,,
39902,note_on,10,0,1,,,,,,,,,,,,,,,,0,,,65,69
39903,note_on,1,0,1,,,,,,,,,,,,,,,,0,,,63,44
39919,note_on,90,0,2,,,,,,,,,,,,,,,,0,,,70,0
39919,note_on,0,0,2,,,,,,,,,,,,,,,,0,,,82,0
39924,note_on,5,0,2,,,,,,,,,,,,,,,,0,,,69,92
39924,note_on,0,0,2,,,,,,,,,,,,,,,,0,,,81,92
39929,control_change,26,0,1,,,,,,,,,,,,,,,,0,64,127,,
39933,note_on,4,0,1,,,,,,,,,,,,,,,,0,,,29,0
39949,note_on,16,0,1,,,,,,,,,,,,,,,,0,,,63,9
39958,note_on,9,0,1,,,,,,,,,,,,,,,,0,,,69,55
40003,note_on,79,0,2,,,,,,,,,,,,,,,,0,,,81,0
40003,note_on,0,0,2,,,,,,,,,,,,,,,,0,,,69,0
40005,note_on,47,0,1,,,,,,,,,,,,,,,,0,,,41,0
40006,note_on,3,0,2,,,,,,,,,,,,,,,,0,,,67,95
40006,note_on,0,0,2,,,,,,,,,,,,,,,,0,,,79,95
40011,note_on,6,0,1,,,,,,,,,,,,,,,,0,,,72,49
40015,note_on,4,0,1,,,,,,,,,,,,,,,,0,,,65,0
40018,note_on,3,0,1,,,,,,,,,,,,,,,,0,,,63,0
40071,note_on,53,0,1,,,,,,,,,,,,,,,,0,,,63,0
40073,note_on,2,0,1,,,,,,,,,,,,,,,,0,,,69,40
40084,note_on,0,0,2,,,,,,,,,,,,,,,,0,,,81,103
40084,note_on,78,0,2,,,,,,,,,,,,,,,,0,,,69,103
40090,note_on,0,0,2,,,,,,,,,,,,,,,,0,,,67,0
40090,note_on,6,0,2,,,,,,,,,,,,,,,,0,,,79,0
40115,note_on,42,0,1,,,,,,,,,,,,,,,,0,,,69,0
40120,note_on,5,0,1,,,,,,,,,,,,,,,,0,,,72,0
40129,note_on,9,0,1,,,,,,,,,,,,,,,,0,,,69,0
40169,note_on,0,0,2,,,,,,,,,,,,,,,,0,,,82,97
40169,note_on,79,0,2,,,,,,,,,,,,,,,,0,,,70,97
40174,note_on,5,0,2,,,,,,,,,,,,,,,,0,,,69,0
40174,note_on,0,0,2,,,,,,,,,,,,,,,,0,,,81,0
40182,note_on,53,0,1,,,,,,,,,,,,,,,,0,,,34,60
40186,note_on,4,0,1,,,,,,,,,,,,,,,,0,,,46,41
40189,note_on,3,0,1,,,,,,,,,,,,,,,,0,,,41,41
40214,control_change,25,0,1,,,,,,,,,,,,,,,,0,64,0,,
40241,note_on,27,0,1,,,,,,,,,,,,,,,,0,,,65,67
40243,note_on,2,0,1,,,,,,,,,,,,,,,,0,,,62,40
40255,control_change,12,0,1,,,,,,,,,,,,,,,,0,64,127,,
40264,note_on,9,0,1,,,,,,,,,,,,,,,,0,,,34,0
40267,note_on,3,0,1,,,,,,,,,,,,,,,,0,,,46,0
40293,note_on,26,0,1,,,,,,,,,,,,,,,,0,,,70,59
40322,note_on,29,0,1,,,,,,,,,,,,,,,,0,,,41,0
40348,note_on,26,0,1,,,,,,,,,,,,,,,,0,,,70,59
40351,note_on,3,0,1,,,,,,,,,,,,,,,,0,,,74,51
40368,note_on,17,0,1,,,,,,,,,,,,,,,,0,,,65,0
40372,note_on,4,0,1,,,,,,,,,,,,,,,,0,,,62,0
40400,note_on,28,0,1,,,,,,,,,,,,,,,,0,,,70,53
40462,note_on,0,0,1,,,,,,,,,,,,,,,,0,,,62,24
40462,note_on,62,0,1,,,,,,,,,,,,,,,,0,,,70,0
40463,note_on,1,0,1,,,,,,,,,,,,,,,,0,,,65,51
40465,note_on,2,0,1,,,,,,,,,,,,,,,,0,,,70,0
40467,note_on,2,0,1,,,,,,,,,,,,,,,,0,,,74,0
40498,note_on,31,0,1,,,,,,,,,,,,,,,,0,,,70,0
40502,note_on,4,0,1,,,,,,,,,,,,,,,,0,,,62,0
40506,note_on,4,0,1,,,,,,,,,,,,,,,,0,,,65,0
40516,note_on,10,0,1,,,,,,,,,,,,,,,,0,,,34,53
40519,note_on,3,0,1,,,,,,,,,,,,,,,,0,,,46,43
40520,note_on,1,0,1,,,,,,,,,,,,,,,,0,,,41,49
40576,note_on,56,0,1,,,,,,,,,,,,,,,,0,,,65,51
40594,note_on,18,0,1,,,,,,,,,,,,,,,,0,,,34,0
40626,note_on,32,0,1,,,,,,,,,,,,,,,,0,,,70,59
40635,note_on,9,0,1,,,,,,,,,,,,,,,,0,,,46,0
40665,note_on,30,0,1,,,,,,,,,,,,,,,,0,,,41,0
40677,note_on,12,0,1,,,,,,,,,,,,,,,,0,,,74,65
40681,note_on,0,0,1,,,,,,,,,,,,,,,,0,,,65,53
40681,note_on,4,0,1,,,,,,,,,,,,,,,,0,,,46,52
40683,note_on,2,0,1,,,,,,,,,,,,,,,,0,,,62,24
40707,note_on,533,0,2,,,,,,,,,,,,,,,,0,,,70,0
40707,note_on,0,0,2,,,,,,,,,,,,,,,,0,,,82,0
40710,note_on,27,0,1,,,,,,,,,,,,,,,,0,,,65,0
40715,note_on,0,0,2,,,,,,,,,,,,,,,,0,,,86,101
40715,note_on,8,0,2,,,,,,,,,,,,,,,,0,,,74,101
40725,note_on,15,0,1,,,,,,,,,,,,,,,,0,,,70,0
40734,note_on,9,0,1,,,,,,,,,,,,,,,,0,,,74,0
40735,note_on,1,0,1,,,,,,,,,,,,,,,,0,,,70,62
40761,note_on,26,0,1,,,,,,,,,,,,,,,,0,,,46,0
40762,note_on,1,0,1,,,,,,,,,,,,,,,,0,,,65,0
40786,note_on,24,0,1,,,,,,,,,,,,,,,,0,,,65,62
40807,note_on,21,0,1,,,,,,,,,,,,,,,,0,,,62,0
40816,note_on,9,0,1,,,,,,,,,,,,,,,,0,,,70,0
40829,note_on,0,0,2,,,,,,,,,,,,,,,,0,,,74,0
40829,note_on,114,0,2,,,,,,,,,,,,,,,,0,,,86,0
40829,note_on,13,0,1,,,,,,,,,,,,,,,,0,,,65,0
40841,note_on,12,0,1,,,,,,,,,,,,,,,,0,,,46,85
40842,note_on,1,0,1,,,,,,,,,,,,,,,,0,,,34,81
40848,note_on,0,0,2,,,,,,,,,,,,,,,,0,,,86,110
40848,note_on,19,0,2,,,,,,,,,,,,,,,,0,,,74,110
40869,control_change,27,0,1,,,,,,,,,,,,,,,,0,64,0,,
40897,note_on,28,0,1,,,,,,,,,,,,,,,,0,,,66,84
40901,note_on,4,0,1,,,,,,,,,,,,,,,,0,,,62,60
40906,control_change,5,0,1,,,,,,,,,,,,,,,,0,64,127,,
40909,note_on,3,0,1,,,,,,,,,,,,,,,,0,,,46,0
40925,note_on,16,0,1,,,,,,,,,,,,,,,,0,,,34,0
40952,note_on,27,0,1,,,,,,,,,,,,,,,,0,,,70,85
40954,note_on,2,0,1,,,,,,,,,,,,,,,,0,,,62,61
40966,note_on,12,0,1,,,,,,,,,,,,,,,,0,,,66,0
40983,note_on,17,0,1,,,,,,,,,,,,,,,,0,,,62,0
41002,note_on,19,0,1,,,,,,,,,,,,,,,,0,,,66,81
41005,note_on,3,0,1,,,,,,,,,,,,,,,,0,,,74,64
41048,note_on,43,0,1,,,,,,,,,,,,,,,,0,,,70,0
41058,note_on,10,0,1,,,,,,,,,,,,,,,,0,,,70,63
41110,note_on,52,0,1,,,,,,,,,,,,,,,,0,,,66,56
41115,note_on,0,0,2,,,,,,,,,,,,,,,,0,,,74,0
41115,note_on,267,0,2,,,,,,,,,,,,,,,,0,,,86,0
41117,note_on,7,0,1,,,,,,,,,,,,,,,,0,,,62,31
41120,note_on,0,0,2,,,,,,,,,,,,,,,,0,,,84,92
41120,note_on,5,0,2,,,,,,,,,,,,,,,,0,,,72,92
41121,note_on,4,0,1,,,,,,,,,,,,,,,,0,,,62,0
41128,note_on,7,0,1,,,,,,,,,,,,,,,,0,,,66,0
41137,note_on,0,0,2,,,,,,,,,,,,,,,,0,,,82,102
41137,note_on,17,0,2,,,,,,,,,,,,,,,,0,,,70,102
41142,note_on,0,0,2,,,,,,,,,,,,,,,,0,,,72,0
41142,note_on,5,0,2,,,,,,,,,,,,,,,,0,,,84,0
41143,note_on,15,0,1,,,,,,,,,,,,,,,,0,,,74,0
41162,note_on,19,0,1,,,,,,,,,,,,,,,,0,,,70,0
41163,note_on,21,0,2,,,,,,,,,,,,,,,,0,,,69,121
41163,note_on,0,0,2,,,,,,,,,,,,,,,,0,,,81,121
41164,note_on,2,0,1,,,,,,,,,,,,,,,,0,,,46,74
41165,note_on,1,0,1,,,,,,,,,,,,,,,,0,,,34,74
41169,note_on,6,0,2,,,,,,,,,,,,,,,,0,,,70,0
41169,note_on,0,0,2,,,,,,,,,,,,,,,,0,,,82,0
41174,note_on,9,0,1,,,,,,,,,,,,,,,,0,,,66,0
41189,note_on,15,0,1,,,,,,,,,,,,,,,,0,,,62,0
41222,note_on,33,0,1,,,,,,,,,,,,,,,,0,,,67,67
41223,note_on,1,0,1,,,,,,,,,,,,,,,,0,,,62,58
41238,note_on,15,0,1,,,,,,,,,,,,,,,,0,,,46,0
41246,note_on,77,0,2,,,,,,,,,,,,,,,,0,,,69,0
41246,note_on,8,0,1,,,,,,,,,,,,,,,,0,,,34,0
41246,note_on,0,0,2,,,,,,,,,,,,,,,,0,,,81,0
41248,note_on,2,0,2,,,,,,,,,,,,,,,,0,,,67,98
41248,note_on,0,0,2,,,,,,,,,,,,,,,,0,,,79,98
41275,note_on,29,0,1,,,,,,,,,,,,,,,,0,,,70,72
41277,note_on,2,0,1,,,,,,,,,,,,,,,,0,,,62,52
41292,note_on,15,0,1,,,,,,,,,,,,,,,,0,,,67,0
41300,note_on,0,0,2,,,,,,,,,,,,,,,,0,,,67,0
41300,note_on,52,0,2,,,,,,,,,,,,,,,,0,,,79,0
41312,note_on,20,0,1,,,,,,,,,,,,,,,,0,,,62,0
41315,note_on,0,0,2,,,,,,,,,,,,,,,,0,,,86,104
41315,note_on,15,0,2,,,,,,,,,,,,,,,,0,,,74,104
41328,note_on,16,0,1,,,,,,,,,,,,,,,,0,,,67,67
41328,note_on,0,0,1,,,,,,,,,,,,,,,,0,,,74,72
41329,note_on,1,0,1,,,,,,,,,,,,,,,,0,,,62,65
41383,note_on,54,0,1,,,,,,,,,,,,,,,,0,,,70,0
41383,note_on,0,0,1,,,,,,,,,,,,,,,,0,,,70,72
41384,note_on,1,0,1,,,,,,,,,,,,,,,,0,,,62,0
41390,note_on,75,0,2,,,,,,,,,,,,,,,,0,,,86,0
41390,note_on,0,0,2,,,,,,,,,,,,,,,,0,,,74,0
41395,note_on,5,0,2,,,,,,,,,,,,,,,,0,,,76,98
41395,note_on,0,0,2,,,,,,,,,,,,,,,,0,,,88,98
41412,note_on,28,0,1,,,,,,,,,,,,,,,,0,,,74,0
41412,note_on,0,0,1,,,,,,,,,,,,,,,,0,,,67,0
41435,note_on,23,0,1,,,,,,,,,,,,,,,,0,,,62,57
41436,note_on,1,0,1,,,,,,,,,,,,,,,,0,,,67,79
41440,note_on,4,0,1,,,,,,,,,,,,,,,,0,,,62,0
41441,note_on,1,0,1,,,,,,,,,,,,,,,,0,,,70,0
41448,note_on,0,0,1,,,,,,,,,,,,,,,,0,,,67,0
41448,note_on,7,0,1,,,,,,,,,,,,,,,,0,,,62,0
41476,note_on,0,0,2,,,,,,,,,,,,,,,,0,,,76,0
41476,note_on,81,0,2,,,,,,,,,,,,,,,,0,,,88,0
41476,note_on,0,0,2,,,,,,,,,,,,,,,,0,,,86,93
41476,note_on,0,0,2,,,,,,,,,,,,,,,,0,,,74,93
41486,note_on,38,0,1,,,,,,,,,,,,,,,,0,,,45,91
41486,note_on,0,0,1,,,,,,,,,,,,,,,,0,,,33,81
41523,control_change,37,0,1,,,,,,,,,,,,,,,,0,64,0,,
41544,note_on,21,0,1,,,,,,,,,,,,,,,,0,,,67,74
41544,note_on,0,0,1,,,,,,,,,,,,,,,,0,,,64,77
41562,control_change,18,0,1,,,,,,,,,,,,,,,,0,64,127,,
41565,note_on,3,0,1,,,,,,,,,,,,,,,,0,,,45,0
41573,note_on,8,0,1,,,,,,,,,,,,,,,,0,,,33,0
41598,note_on,25,0,1,,,,,,,,,,,,,,,,0,,,70,68
41602,note_on,4,0,1,,,,,,,,,,,,,,,,0,,,64,35
41610,note_on,8,0,1,,,,,,,,,,,,,,,,0,,,67,0
41625,note_on,15,0,1,,,,,,,,,,,,,,,,0,,,64,0
41654,note_on,29,0,1,,,,,,,,,,,,,,,,0,,,64,65
41654,note_on,0,0,1,,,,,,,,,,,,,,,,0,,,67,63
41655,note_on,1,0,1,,,,,,,,,,,,,,,,0,,,74,66
41705,note_on,50,0,1,,,,,,,,,,,,,,,,0,,,70,0
41710,note_on,5,0,1,,,,,,,,,,,,,,,,0,,,70,62
41728,note_on,18,0,1,,,,,,,,,,,,,,,,0,,,64,0
41757,note_on,29,0,1,,,,,,,,,,,,,,,,0,,,64,0
41763,note_on,6,0,1,,,,,,,,,,,,,,,,0,,,67,57
41766,note_on,3,0,1,,,,,,,,,,,,,,,,0,,,67,0
41766,note_on,0,0,1,,,,,,,,,,,,,,,,0,,,64,40
41797,note_on,321,0,2,,,,,,,,,,,,,,,,0,,,86,0
41797,note_on,0,0,2,,,,,,,,,,,,,,,,0,,,74,0
41809,note_on,12,0,2,,,,,,,,,,,,,,,,0,,,73,90
41809,note_on,0,0,2,,,,,,,,,,,,,,,,0,,,85,90
41815,note_on,49,0,1,,,,,,,,,,,,,,,,0,,,45,75
41816,note_on,1,0,1,,,,,,,,,,,,,,,,0,,,33,77
41837,note_on,21,0,1,,,,,,,,,,,,,,,,0,,,74,0
41839,note_on,0,0,1,,,,,,,,,,,,,,,,0,,,70,0
41839,note_on,2,0,1,,,,,,,,,,,,,,,,0,,,67,0
41842,note_on,3,0,1,,,,,,,,,,,,,,,,0,,,64,0
41869,note_on,27,0,1,,,,,,,,,,,,,,,,0,,,67,64
41875,note_on,6,0,1,,,,,,,,,,,,,,,,0,,,64,47
41883,note_on,8,0,1,,,,,,,,,,,,,,,,0,,,45,0
41901,note_on,18,0,1,,,,,,,,,,,,,,,,0,,,33,0
41924,note_on,23,0,1,,,,,,,,,,,,,,,,0,,,64,59
41925,note_on,1,0,1,,,,,,,,,,,,,,,,0,,,69,69
41939,note_on,14,0,1,,,,,,,,,,,,,,,,0,,,67,0
41949,note_on,10,0,1,,,,,,,,,,,,,,,,0,,,64,0
41975,note_on,26,0,1,,,,,,,,,,,,,,,,0,,,73,63
41979,note_on,4,0,1,,,,,,,,,,,,,,,,0,,,64,39
41980,note_on,1,0,1,,,,,,,,,,,,,,,,0,,,67,41
42003,note_on,23,0,1,,,,,,,,,,,,,,,,0,,,64,0
42010,note_on,7,0,1,,,,,,,,,,,,,,,,0,,,69,0
42011,note_on,1,0,1,,,,,,,,,,,,,,,,0,,,73,0
42012,note_on,1,0,1,,,,,,,,,,,,,,,,0,,,64,0
42014,note_on,2,0,1,,,,,,,,,,,,,,,,0,,,67,0
42039,note_on,25,0,1,,,,,,,,,,,,,,,,0,,,69,59
42084,note_on,0,0,2,,,,,,,,,,,,,,,,0,,,81,96
42084,note_on,275,0,2,,,,,,,,,,,,,,,,0,,,69,96
42085,note_on,1,0,2,,,,,,,,,,,,,,,,0,,,85,0
42085,note_on,0,0,2,,,,,,,,,,,,,,,,0,,,73,0
42092,note_on,53,0,1,,,,,,,,,,,,,,,,0,,,67,56
42097,note_on,5,0,1,,,,,,,,,,,,,,,,0,,,69,0
42098,note_on,1,0,1,,,,,,,,,,,,,,,,0,,,67,0
42141,note_on,56,0,2,,,,,,,,,,,,,,,,0,,,72,104
42141,note_on,0,0,2,,,,,,,,,,,,,,,,0,,,84,104
42142,note_on,44,0,1,,,,,,,,,,,,,,,,0,,,42,67
42144,note_on,2,0,1,,,,,,,,,,,,,,,,0,,,30,67
42144,note_on,3,0,2,,,,,,,,,,,,,,,,0,,,69,0
42144,note_on,0,0,2,,,,,,,,,,,,,,,,0,,,81,0
42189,control_change,45,0,1,,,,,,,,,,,,,,,,0,64,0,,
42204,note_on,0,0,1,,,,,,,,,,,,,,,,0,,,63,58
42204,note_on,15,0,1,,,,,,,,,,,,,,,,0,,,69,70
42230,control_change,26,0,1,,,,,,,,,,,,,,,,0,64,127,,
42231,note_on,1,0,1,,,,,,,,,,,,,,,,0,,,42,0
42244,note_on,13,0,1,,,,,,,,,,,,,,,,0,,,30,0
42256,note_on,12,0,1,,,,,,,,,,,,,,,,0,,,63,48
42257,note_on,1,0,1,,,,,,,,,,,,,,,,0,,,72,69
42263,note_on,6,0,1,,,,,,,,,,,,,,,,0,,,69,0
42276,note_on,13,0,1,,,,,,,,,,,,,,,,0,,,63,0
42311,note_on,35,0,1,,,,,,,,,,,,,,,,0,,,75,67
42313,note_on,2,0,1,,,,,,,,,,,,,,,,0,,,63,57
42314,note_on,1,0,1,,,,,,,,,,,,,,,,0,,,69,68
42367,note_on,53,0,1,,,,,,,,,,,,,,,,0,,,63,0
42371,note_on,4,0,1,,,,,,,,,,,,,,,,0,,,72,53
42393,note_on,22,0,1,,,,,,,,,,,,,,,,0,,,72,0
42398,note_on,5,0,1,,,,,,,,,,,,,,,,0,,,75,0
42400,note_on,2,0,1,,,,,,,,,,,,,,,,0,,,63,0
42406,note_on,0,0,2,,,,,,,,,,,,,,,,0,,,84,0
42406,note_on,262,0,2,,,,,,,,,,,,,,,,0,,,72,0
42406,note_on,0,0,2,,,,,,,,,,,,,,,,0,,,82,97
42406,note_on,0,0,2,,,,,,,,,,,,,,,,0,,,70,97
42422,note_on,22,0,1,,,,,,,,,,,,,,,,0,,,63,43
42425,note_on,3,0,1,,,,,,,,,,,,,,,,0,,,69,47
42463,note_on,57,0,2,,,,,,,,,,,,,,,,0,,,82,0
42463,note_on,0,0,2,,,,,,,,,,,,,,,,0,,,70,0
42464,note_on,1,0,2,,,,,,,,,,,,,,,,0,,,69,91
42464,note_on,0,0,2,,,,,,,,,,,,,,,,0,,,81,91
42476,note_on,51,0,1,,,,,,,,,,,,,,,,0,,,42,77
42477,note_on,1,0,1,,,,,,,,,,,,,,,,0,,,30,79
42503,note_on,26,0,1,,,,,,,,,,,,,,,,0,,,72,0
42503,note_on,0,0,1,,,,,,,,,,,,,,,,0,,,69,0
42516,note_on,13,0,1,,,,,,,,,,,,,,,,0,,,63,0
42518,note_on,54,0,2,,,,,,,,,,,,,,,,0,,,72,87
42518,note_on,0,0,2,,,,,,,,,,,,,,,,0,,,84,87
42530,note_on,14,0,1,,,,,,,,,,,,,,,,0,,,69,0
42534,note_on,4,0,1,,,,,,,,,,,,,,,,0,,,69,75
42535,control_change,1,0,1,,,,,,,,,,,,,,,,0,64,127,,
42538,note_on,3,0,1,,,,,,,,,,,,,,,,0,,,63,45
42539,note_on,0,0,2,,,,,,,,,,,,,,,,0,,,69,0
42539,note_on,21,0,2,,,,,,,,,,,,,,,,0,,,81,0
42551,note_on,13,0,1,,,,,,,,,,,,,,,,0,,,42,0
42572,note_on,21,0,1,,,,,,,,,,,,,,,,0,,,30,0
42572,note_on,33,0,2,,,,,,,,,,,,,,,,0,,,74,83
42572,note_on,0,0,2,,,,,,,,,,,,,,,,0,,,86,83
42578,note_on,6,0,2,,,,,,,,,,,,,,,,0,,,72,0
42578,note_on,0,0,2,,,,,,,,,,,,,,,,0,,,84,0
42587,note_on,15,0,1,,,,,,,,,,,,,,,,0,,,72,69
42587,note_on,0,0,1,,,,,,,,,,,,,,,,0,,,63,57
42603,note_on,16,0,1,,,,,,,,,,,,,,,,0,,,69,0
42619,note_on,0,0,2,,,,,,,,,,,,,,,,0,,,86,0
42619,note_on,41,0,2,,,,,,,,,,,,,,,,0,,,74,0
42620,note_on,17,0,1,,,,,,,,,,,,,,,,0,,,63,0
42627,note_on,0,0,2,,,,,,,,,,,,,,,,0,,,87,97
42627,note_on,8,0,2,,,,,,,,,,,,,,,,0,,,75,97
42643,note_on,23,0,1,,,,,,,,,,,,,,,,0,,,75,67
42643,note_on,0,0,1,,,,,,,,,,,,,,,,0,,,63,58
42645,note_on,2,0,1,,,,,,,,,,,,,,,,0,,,69,64
42678,note_on,51,0,2,,,,,,,,,,,,,,,,0,,,72,81
42678,note_on,0,0,2,,,,,,,,,,,,,,,,0,,,84,81
42680,note_on,2,0,2,,,,,,,,,,,,,,,,0,,,87,0
42680,note_on,0,0,2,,,,,,,,,,,,,,,,0,,,75,0
42703,note_on,58,0,1,,,,,,,,,,,,,,,,0,,,72,0
42703,note_on,0,0,1,,,,,,,,,,,,,,,,0,,,72,54
42713,note_on,10,0,1,,,,,,,,,,,,,,,,0,,,63,0
42713,note_on,0,0,1,,,,,,,,,,,,,,,,0,,,75,0
42734,note_on,0,0,2,,,,,,,,,,,,,,,,0,,,69,82
42734,note_on,0,0,2,,,,,,,,,,,,,,,,0,,,81,82
42734,note_on,0,0,2,,,,,,,,,,,,,,,,0,,,84,0
42734,note_on,54,0,2,,,,,,,,,,,,,,,,0,,,72,0
42758,note_on,45,0,1,,,,,,,,,,,,,,,,0,,,69,61
42760,note_on,2,0,1,,,,,,,,,,,,,,,,0,,,63,0
42761,note_on,1,0,1,,,,,,,,,,,,,,,,0,,,69,0
42764,note_on,3,0,1,,,,,,,,,,,,,,,,0,,,72,0
42764,note_on,0,0,1,,,,,,,,,,,,,,,,0,,,69,0
42786,note_on,0,0,2,,,,,,,,,,,,,,,,0,,,82,110
42786,note_on,52,0,2,,,,,,,,,,,,,,,,0,,,70,110
42791,note_on,5,0,2,,,,,,,,,,,,,,,,0,,,81,0
42791,note_on,0,0,2,,,,,,,,,,,,,,,,0,,,69,0
42806,note_on,0,0,1,,,,,,,,,,,,,,,,0,,,31,63
42806,note_on,42,0,1,,,,,,,,,,,,,,,,0,,,43,63
42837,control_change,31,0,1,,,,,,,,,,,,,,,,0,64,0,,
42866,note_on,29,0,1,,,,,,,,,,,,,,,,0,,,62,42
42867,note_on,1,0,1,,,,,,,,,,,,,,,,0,,,67,55
42875,control_change,8,0,1,,,,,,,,,,,,,,,,0,64,127,,
42897,note_on,22,0,1,,,,,,,,,,,,,,,,0,,,43,0
42905,note_on,8,0,1,,,,,,,,,,,,,,,,0,,,31,0
42917,note_on,12,0,1,,,,,,,,,,,,,,,,0,,,70,62
42921,note_on,4,0,1,,,,,,,,,,,,,,,,0,,,62,12
42931,note_on,10,0,1,,,,,,,,,,,,,,,,0,,,62,0
42944,note_on,13,0,1,,,,,,,,,,,,,,,,0,,,67,0
42970,note_on,26,0,1,,,,,,,,,,,,,,,,0,,,62,56
42971,note_on,1,0,1,,,,,,,,,,,,,,,,0,,,67,52
42972,note_on,1,0,1,,,,,,,,,,,,,,,,0,,,74,58
43028,note_on,56,0,1,,,,,,,,,,,,,,,,0,,,70,0
43029,note_on,1,0,1,,,,,,,,,,,,,,,,0,,,70,52
43053,note_on,24,0,1,,,,,,,,,,,,,,,,0,,,62,0
43085,note_on,32,0,1,,,,,,,,,,,,,,,,0,,,62,0
43086,note_on,1,0,1,,,,,,,,,,,,,,,,0,,,67,57
43090,note_on,4,0,1,,,,,,,,,,,,,,,,0,,,67,0
43092,note_on,2,0,1,,,,,,,,,,,,,,,,0,,,74,0
43093,note_on,1,0,1,,,,,,,,,,,,,,,,0,,,70,0
43099,note_on,6,0,1,,,,,,,,,,,,,,,,0,,,67,0
43135,note_on,36,0,1,,,,,,,,,,,,,,,,0,,,31,77
43136,note_on,1,0,1,,,,,,,,,,,,,,,,0,,,43,73
43157,control_change,21,0,1,,,,,,,,,,,,,,,,0,64,0,,
43182,control_change,25,0,1,,,,,,,,,,,,,,,,0,64,127,,
43194,note_on,12,0,1,,,,,,,,,,,,,,,,0,,,64,70
43197,note_on,3,0,1,,,,,,,,,,,,,,,,0,,,62,39
43204,note_on,7,0,1,,,,,,,,,,,,,,,,0,,,31,0
43209,note_on,5,0,1,,,,,,,,,,,,,,,,0,,,43,0
43246,note_on,37,0,1,,,,,,,,,,,,,,,,0,,,70,74
43261,note_on,15,0,1,,,,,,,,,,,,,,,,0,,,64,0
43299,note_on,38,0,1,,,,,,,,,,,,,,,,0,,,62,73
43300,note_on,1,0,1,,,,,,,,,,,,,,,,0,,,74,74
43354,note_on,54,0,1,,,,,,,,,,,,,,,,0,,,70,66
43357,note_on,3,0,1,,,,,,,,,,,,,,,,0,,,62,0
43358,note_on,0,0,2,,,,,,,,,,,,,,,,0,,,82,0
43358,note_on,567,0,2,,,,,,,,,,,,,,,,0,,,70,0
43361,note_on,4,0,1,,,,,,,,,,,,,,,,0,,,70,0
43364,note_on,0,0,2,,,,,,,,,,,,,,,,0,,,86,100
43364,note_on,6,0,2,,,,,,,,,,,,,,,,0,,,74,100
43382,note_on,21,0,1,,,,,,,,,,,,,,,,0,,,62,0
43393,note_on,0,0,2,,,,,,,,,,,,,,,,0,,,84,92
43393,note_on,29,0,2,,,,,,,,,,,,,,,,0,,,72,92
43399,note_on,6,0,2,,,,,,,,,,,,,,,,0,,,86,0
43399,note_on,0,0,2,,,,,,,,,,,,,,,,0,,,74,0
43406,note_on,24,0,1,,,,,,,,,,,,,,,,0,,,65,59
43413,note_on,7,0,1,,,,,,,,,,,,,,,,0,,,74,0
43414,note_on,1,0,1,,,,,,,,,,,,,,,,0,,,70,0
43417,note_on,3,0,1,,,,,,,,,,,,,,,,0,,,65,0
43434,note_on,35,0,2,,,,,,,,,,,,,,,,0,,,72,0
43434,note_on,0,0,2,,,,,,,,,,,,,,,,0,,,84,0
43450,note_on,0,0,2,,,,,,,,,,,,,,,,0,,,84,110
43450,note_on,16,0,2,,,,,,,,,,,,,,,,0,,,72,110
43461,note_on,44,0,1,,,,,,,,,,,,,,,,0,,,33,76
43462,note_on,1,0,1,,,,,,,,,,,,,,,,0,,,45,81
43492,control_change,30,0,1,,,,,,,,,,,,,,,,0,64,0,,
43522,note_on,30,0,1,,,,,,,,,,,,,,,,0,,,65,67
43525,note_on,3,0,1,,,,,,,,,,,,,,,,0,,,60,42
43531,control_change,6,0,1,,,,,,,,,,,,,,,,0,64,127,,
43542,note_on,11,0,1,,,,,,,,,,,,,,,,0,,,33,0
43551,note_on,9,0,1,,,,,,,,,,,,,,,,0,,,45,0
43577,note_on,26,0,1,,,,,,,,,,,,,,,,0,,,69,63
43606,note_on,29,0,1,,,,,,,,,,,,,,,,0,,,65,0
43627,note_on,21,0,1,,,,,,,,,,,,,,,,0,,,65,68
43628,note_on,1,0,1,,,,,,,,,,,,,,,,0,,,72,68
43628,note_on,0,0,1,,,,,,,,,,,,,,,,0,,,60,62
43654,note_on,26,0,1,,,,,,,,,,,,,,,,0,,,60,0
43658,note_on,4,0,1,,,,,,,,,,,,,,,,0,,,69,0
43683,note_on,25,0,1,,,,,,,,,,,,,,,,0,,,65,0
43689,note_on,6,0,1,,,,,,,,,,,,,,,,0,,,69,59
43700,note_on,11,0,1,,,,,,,,,,,,,,,,0,,,72,0
43722,note_on,0,0,2,,,,,,,,,,,,,,,,0,,,81,100
43722,note_on,272,0,2,,,,,,,,,,,,,,,,0,,,69,100
43725,note_on,0,0,2,,,,,,,,,,,,,,,,0,,,72,0
43725,note_on,3,0,2,,,,,,,,,,,,,,,,0,,,84,0
43739,note_on,39,0,1,,,,,,,,,,,,,,,,0,,,65,66
43745,note_on,6,0,1,,,,,,,,,,,,,,,,0,,,69,0
43745,note_on,0,0,1,,,,,,,,,,,,,,,,0,,,60,0
43748,note_on,3,0,1,,,,,,,,,,,,,,,,0,,,65,0
43780,note_on,55,0,2,,,,,,,,,,,,,,,,0,,,69,0
43780,note_on,0,0,2,,,,,,,,,,,,,,,,0,,,81,0
43783,note_on,0,0,2,,,,,,,,,,,,,,,,0,,,79,96
43783,note_on,3,0,2,,,,,,,,,,,,,,,,0,,,67,96
43789,note_on,41,0,1,,,,,,,,,,,,,,,,0,,,38,71
43790,note_on,1,0,1,,,,,,,,,,,,,,,,0,,,50,88
43813,control_change,23,0,1,,,,,,,,,,,,,,,,0,64,0,,
43835,note_on,52,0,2,,,,,,,,,,,,,,,,0,,,71,102
43835,note_on,0,0,2,,,,,,,,,,,,,,,,0,,,83,102
43847,note_on,34,0,1,,,,,,,,,,,,,,,,0,,,67,76
43847,note_on,0,0,2,,,,,,,,,,,,,,,,0,,,67,0
43847,note_on,12,0,2,,,,,,,,,,,,,,,,0,,,79,0
43850,note_on,3,0,1,,,,,,,,,,,,,,,,0,,,65,67
43853,control_change,3,0,1,,,,,,,,,,,,,,,,0,64,127,,
43857,note_on,4,0,1,,,,,,,,,,,,,,,,0,,,38,0
43876,note_on,19,0,1,,,,,,,,,,,,,,,,0,,,50,0
43889,note_on,0,0,2,,,,,,,,,,,,,,,,0,,,83,0
43889,note_on,42,0,2,,,,,,,,,,,,,,,,0,,,71,0
43890,note_on,0,0,2,,,,,,,,,,,,,,,,0,,,86,85
43890,note_on,1,0,2,,,,,,,,,,,,,,,,0,,,74,85
43898,note_on,22,0,1,,,,,,,,,,,,,,,,0,,,65,56
43898,note_on,0,0,1,,,,,,,,,,,,,,,,0,,,71,69
43904,note_on,6,0,1,,,,,,,,,,,,,,,,0,,,67,0
43904,note_on,0,0,1,,,,,,,,,,,,,,,,0,,,65,0
43941,note_on,0,0,2,,,,,,,,,,,,,,,,0,,,74,0
43941,note_on,51,0,2,,,,,,,,,,,,,,,,0,,,86,0
43943,note_on,0,0,2,,,,,,,,,,,,,,,,0,,,89,103
43943,note_on,2,0,2,,,,,,,,,,,,,,,,0,,,77,103
43951,note_on,47,0,1,,,,,,,,,,,,,,,,0,,,67,73
43951,note_on,0,0,1,,,,,,,,,,,,,,,,0,,,77,74
43952,note_on,1,0,1,,,,,,,,,,,,,,,,0,,,71,71
43980,note_on,28,0,1,,,,,,,,,,,,,,,,0,,,65,0
43991,note_on,11,0,1,,,,,,,,,,,,,,,,0,,,71,0
43997,note_on,0,0,2,,,,,,,,,,,,,,,,0,,,74,79
43997,note_on,0,0,2,,,,,,,,,,,,,,,,0,,,77,0
43997,note_on,0,0,2,,,,,,,,,,,,,,,,0,,,86,79
43997,note_on,54,0,2,,,,,,,,,,,,,,,,0,,,89,0
44004,note_on,13,0,1,,,,,,,,,,,,,,,,0,,,67,0
44011,note_on,7,0,1,,,,,,,,,,,,,,,,0,,,74,62
44048,note_on,51,0,2,,,,,,,,,,,,,,,,0,,,71,88
44048,note_on,0,0,2,,,,,,,,,,,,,,,,0,,,83,88
44052,note_on,4,0,2,,,,,,,,,,,,,,,,0,,,86,0
44052,note_on,0,0,2,,,,,,,,,,,,,,,,0,,,74,0
44061,note_on,50,0,1,,,,,,,,,,,,,,,,0,,,71,66
44062,note_on,1,0,1,,,,,,,,,,,,,,,,0,,,77,0
44063,note_on,1,0,1,,,,,,,,,,,,,,,,0,,,71,0
44064,note_on,1,0,1,,,,,,,,,,,,,,,,0,,,74,0
44067,note_on,3,0,1,,,,,,,,,,,,,,,,0,,,71,0
44099,note_on,0,0,2,,,,,,,,,,,,,,,,0,,,83,0
44099,note_on,47,0,2,,,,,,,,,,,,,,,,0,,,71,0
44105,note_on,0,0,2,,,,,,,,,,,,,,,,0,,,84,92
44105,note_on,6,0,2,,,,,,,,,,,,,,,,0,,,72,92
44111,note_on,44,0,1,,,,,,,,,,,,,,,,0,,,36,69
44112,note_on,1,0,1,,,,,,,,,,,,,,,,0,,,48,83
44136,control_change,24,0,1,,,,,,,,,,,,,,,,0,64,0,,
44169,note_on,33,0,1,,,,,,,,,,,,,,,,0,,,69,73
44171,note_on,2,0,1,,,,,,,,,,,,,,,,0,,,65,63
44174,control_change,3,0,1,,,,,,,,,,,,,,,,0,64,127,,
44178,note_on,4,0,1,,,,,,,,,,,,,,,,0,,,36,0
44199,note_on,21,0,1,,,,,,,,,,,,,,,,0,,,48,0
44225,note_on,26,0,1,,,,,,,,,,,,,,,,0,,,72,62
44263,note_on,38,0,1,,,,,,,,,,,,,,,,0,,,69,0
44276,note_on,13,0,1,,,,,,,,,,,,,,,,0,,,77,54
44278,note_on,2,0,1,,,,,,,,,,,,,,,,0,,,69,64
44330,note_on,52,0,1,,,,,,,,,,,,,,,,0,,,65,0
44336,note_on,6,0,1,,,,,,,,,,,,,,,,0,,,72,57
44373,note_on,37,0,1,,,,,,,,,,,,,,,,0,,,72,0
44386,note_on,0,0,1,,,,,,,,,,,,,,,,0,,,69,60
44386,note_on,13,0,1,,,,,,,,,,,,,,,,0,,,77,0
44390,note_on,0,0,1,,,,,,,,,,,,,,,,0,,,65,15
44390,note_on,4,0,1,,,,,,,,,,,,,,,,0,,,69,0
44397,note_on,7,0,1,,,,,,,,,,,,,,,,0,,,72,0
44402,note_on,5,0,1,,,,,,,,,,,,,,,,0,,,69,0
44406,note_on,4,0,1,,,,,,,,,,,,,,,,0,,,65,0
44436,note_on,30,0,1,,,,,,,,,,,,,,,,0,,,48,73
44437,note_on,1,0,1,,,,,,,,,,,,,,,,0,,,36,62
44471,control_change,34,0,1,,,,,,,,,,,,,,,,0,64,0,,
44475,note_on,370,0,2,,,,,,,,,,,,,,,,0,,,67,79
44475,note_on,0,0,2,,,,,,,,,,,,,,,,0,,,79,79
44476,note_on,0,0,2,,,,,,,,,,,,,,,,0,,,72,0
44476,note_on,1,0,2,,,,,,,,,,,,,,,,0,,,84,0
44493,note_on,22,0,1,,,,,,,,,,,,,,,,0,,,70,68
44493,note_on,0,0,1,,,,,,,,,,,,,,,,0,,,64,58
44508,control_change,15,0,1,,,,,,,,,,,,,,,,0,64,127,,
44524,note_on,0,0,2,,,,,,,,,,,,,,,,0,,,81,84
44524,note_on,48,0,2,,,,,,,,,,,,,,,,0,,,69,84
44525,note_on,17,0,1,,,,,,,,,,,,,,,,0,,,48,0
44535,note_on,0,0,2,,,,,,,,,,,,,,,,0,,,79,0
44535,note_on,11,0,2,,,,,,,,,,,,,,,,0,,,67,0
44548,note_on,23,0,1,,,,,,,,,,,,,,,,0,,,72,56
44552,note_on,4,0,1,,,,,,,,,,,,,,,,0,,,36,0
44555,note_on,3,0,1,,,,,,,,,,,,,,,,0,,,70,0
44571,note_on,0,0,2,,,,,,,,,,,,,,,,0,,,81,0
44571,note_on,36,0,2,,,,,,,,,,,,,,,,0,,,69,0
44580,note_on,9,0,2,,,,,,,,,,,,,,,,0,,,70,94
44580,note_on,0,0,2,,,,,,,,,,,,,,,,0,,,82,94
44602,note_on,47,0,1,,,,,,,,,,,,,,,,0,,,70,54
44605,note_on,3,0,1,,,,,,,,,,,,,,,,0,,,64,41
44605,note_on,0,0,1,,,,,,,,,,,,,,,,0,,,76,33
44620,note_on,15,0,1,,,,,,,,,,,,,,,,0,,,64,0
44622,note_on,0,0,2,,,,,,,,,,,,,,,,0,,,70,0
44622,note_on,42,0,2,,,,,,,,,,,,,,,,0,,,82,0
44625,note_on,0,0,2,,,,,,,,,,,,,,,,0,,,84,96
44625,note_on,3,0,2,,,,,,,,,,,,,,,,0,,,72,96
44636,note_on,16,0,1,,,,,,,,,,,,,,,,0,,,72,0
44639,note_on,14,0,2,,,,,,,,,,,,,,,,0,,,70,90
44639,note_on,0,0,2,,,,,,,,,,,,,,,,0,,,82,90
44643,note_on,4,0,2,,,,,,,,,,,,,,,,0,,,84,0
44643,note_on,0,0,2,,,,,,,,,,,,,,,,0,,,72,0
44662,note_on,19,0,2,,,,,,,,,,,,,,,,0,,,69,96
44662,note_on,0,0,2,,,,,,,,,,,,,,,,0,,,81,96
44663,note_on,0,0,2,,,,,,,,,,,,,,,,0,,,82,0
44663,note_on,1,0,2,,,,,,,,,,,,,,,,0,,,70,0
44664,note_on,28,0,1,,,,,,,,,,,,,,,,0,,,70,0
44665,note_on,1,0,1,,,,,,,,,,,,,,,,0,,,72,49
44696,note_on,31,0,1,,,,,,,,,,,,,,,,0,,,64,0
44714,note_on,0,0,2,,,,,,,,,,,,,,,,0,,,81,0
44714,note_on,51,0,2,,,,,,,,,,,,,,,,0,,,69,0
44716,note_on,20,0,1,,,,,,,,,,,,,,,,0,,,70,62
44717,note_on,0,0,2,,,,,,,,,,,,,,,,0,,,79,80
44717,note_on,3,0,2,,,,,,,,,,,,,,,,0,,,67,80
44722,note_on,6,0,1,,,,,,,,,,,,,,,,0,,,76,0
44734,note_on,12,0,1,,,,,,,,,,,,,,,,0,,,72,0
44739,note_on,5,0,1,,,,,,,,,,,,,,,,0,,,70,0
44769,note_on,30,0,1,,,,,,,,,,,,,,,,0,,,41,56
44769,note_on,0,0,1,,,,,,,,,,,,,,,,0,,,29,63
44774,note_on,57,0,2,,,,,,,,,,,,,,,,0,,,79,0
44774,note_on,0,0,2,,,,,,,,,,,,,,,,0,,,67,0
44775,note_on,1,0,2,,,,,,,,,,,,,,,,0,,,65,81
44775,note_on,0,0,2,,,,,,,,,,,,,,,,0,,,77,81
44788,control_change,19,0,1,,,,,,,,,,,,,,,,0,64,0,,
44823,control_change,35,0,1,,,,,,,,,,,,,,,,0,64,127,,
44827,note_on,4,0,1,,,,,,,,,,,,,,,,0,,,69,61
44828,note_on,1,0,1,,,,,,,,,,,,,,,,0,,,65,52
44850,note_on,22,0,1,,,,,,,,,,,,,,,,0,,,41,0
44857,note_on,7,0,1,,,,,,,,,,,,,,,,0,,,29,0
44883,note_on,26,0,1,,,,,,,,,,,,,,,,0,,,65,61
44885,note_on,2,0,1,,,,,,,,,,,,,,,,0,,,72,64
44903,note_on,18,0,1,,,,,,,,,,,,,,,,0,,,69,0
44922,note_on,19,0,1,,,,,,,,,,,,,,,,0,,,65,0
44935,note_on,13,0,1,,,,,,,,,,,,,,,,0,,,77,69
44935,note_on,0,0,1,,,,,,,,,,,,,,,,0,,,69,74
44986,note_on,51,0,1,,,,,,,,,,,,,,,,0,,,65,0
44996,note_on,10,0,1,,,,,,,,,,,,,,,,0,,,72,54
45040,note_on,44,0,1,,,,,,,,,,,,,,,,0,,,72,0
45047,note_on,7,0,1,,,,,,,,,,,,,,,,0,,,77,0
45050,note_on,3,0,1,,,,,,,,,,,,,,,,0,,,69,59
45053,note_on,3,0,1,,,,,,,,,,,,,,,,0,,,65,36
45072,note_on,19,0,1,,,,,,,,,,,,,,,,0,,,69,0
45094,note_on,22,0,1,,,,,,,,,,,,,,,,0,,,72,0
45099,note_on,5,0,1,,,,,,,,,,,,,,,,0,,,29,53
45100,note_on,1,0,1,,,,,,,,,,,,,,,,0,,,41,43
45110,note_on,10,0,1,,,,,,,,,,,,,,,,0,,,69,0
45136,note_on,26,0,1,,,,,,,,,,,,,,,,0,,,65,0
45157,note_on,21,0,1,,,,,,,,,,,,,,,,0,,,65,57
45159,note_on,2,0,1,,,,,,,,,,,,,,,,0,,,69,51
45180,note_on,21,0,1,,,,,,,,,,,,,,,,0,,,29,0
45187,note_on,7,0,1,,,,,,,,,,,,,,,,0,,,41,0
45209,note_on,22,0,1,,,,,,,,,,,,,,,,0,,,72,55
45226,note_on,451,0,2,,,,,,,,,,,,,,,,0,,,77,0
45226,note_on,0,0,2,,,,,,,,,,,,,,,,0,,,65,0
45244,note_on,35,0,1,,,,,,,,,,,,,,,,0,,,65,0
45259,note_on,15,0,1,,,,,,,,,,,,,,,,0,,,69,56
45259,note_on,0,0,1,,,,,,,,,,,,,,,,0,,,77,27
45304,note_on,78,0,2,,,,,,,,,,,,,,,,0,,,65,92
45304,note_on,0,0,2,,,,,,,,,,,,,,,,0,,,77,92
45310,note_on,51,0,1,,,,,,,,,,,,,,,,0,,,65,1
45313,note_on,3,0,1,,,,,,,,,,,,,,,,0,,,69,0
45318,note_on,5,0,1,,,,,,,,,,,,,,,,0,,,72,48
45338,note_on,34,0,2,,,,,,,,,,,,,,,,0,,,77,0
45338,note_on,0,0,2,,,,,,,,,,,,,,,,0,,,65,0
45358,note_on,20,0,2,,,,,,,,,,,,,,,,0,,,65,81
45358,note_on,0,0,2,,,,,,,,,,,,,,,,0,,,77,81
45360,note_on,42,0,1,,,,,,,,,,,,,,,,0,,,72,0
45370,note_on,10,0,1,,,,,,,,,,,,,,,,0,,,69,60
45371,note_on,1,0,1,,,,,,,,,,,,,,,,0,,,69,0
45373,note_on,2,0,1,,,,,,,,,,,,,,,,0,,,77,0
45374,note_on,1,0,1,,,,,,,,,,,,,,,,0,,,65,0
45374,note_on,0,0,1,,,,,,,,,,,,,,,,0,,,72,0
45376,note_on,2,0,1,,,,,,,,,,,,,,,,0,,,69,0
45409,note_on,0,0,2,,,,,,,,,,,,,,,,0,,,84,102
45409,note_on,51,0,2,,,,,,,,,,,,,,,,0,,,77,0
45409,note_on,0,0,2,,,,,,,,,,,,,,,,0,,,72,102
45409,note_on,0,0,2,,,,,,,,,,,,,,,,0,,,65,0
45417,note_on,41,0,1,,,,,,,,,,,,,,,,0,,,29,66
45419,note_on,2,0,1,,,,,,,,,,,,,,,,0,,,41,64
45470,control_change,51,0,1,,,,,,,,,,,,,,,,0,64,0,,
45477,note_on,0,0,1,,,,,,,,,,,,,,,,0,,,69,74
45477,note_on,7,0,1,,,,,,,,,,,,,,,,0,,,63,70
45496,note_on,19,0,1,,,,,,,,,,,,,,,,0,,,29,0
45499,control_change,3,0,1,,,,,,,,,,,,,,,,0,64,127,,
45509,note_on,10,0,1,,,,,,,,,,,,,,,,0,,,41,0
45531,note_on,22,0,1,,,,,,,,,,,,,,,,0,,,72,68
45537,note_on,6,0,1,,,,,,,,,,,,,,,,0,,,63,0
45588,note_on,51,0,1,,,,,,,,,,,,,,,,0,,,72,61
45592,note_on,4,0,1,,,,,,,,,,,,,,,,0,,,77,39
45611,note_on,19,0,1,,,,,,,,,,,,,,,,0,,,69,0
45614,note_on,3,0,1,,,,,,,,,,,,,,,,0,,,72,0
45646,note_on,32,0,1,,,,,,,,,,,,,,,,0,,,72,60
45674,note_on,265,0,2,,,,,,,,,,,,,,,,0,,,84,0
45674,note_on,0,0,2,,,,,,,,,,,,,,,,0,,,72,0
45693,note_on,19,0,2,,,,,,,,,,,,,,,,0,,,72,103
45693,note_on,0,0,2,,,,,,,,,,,,,,,,0,,,84,103
45693,note_on,47,0,1,,,,,,,,,,,,,,,,0,,,72,0
45697,note_on,4,0,1,,,,,,,,,,,,,,,,0,,,77,0
45698,note_on,1,0,1,,,,,,,,,,,,,,,,0,,,69,68
45708,note_on,10,0,1,,,,,,,,,,,,,,,,0,,,72,0
45711,note_on,3,0,1,,,,,,,,,,,,,,,,0,,,69,0
45736,note_on,43,0,2,,,,,,,,,,,,,,,,0,,,84,0
45736,note_on,0,0,2,,,,,,,,,,,,,,,,0,,,72,0
45748,note_on,37,0,1,,,,,,,,,,,,,,,,0,,,29,73
45749,note_on,1,0,1,,,,,,,,,,,,,,,,0,,,41,82
45749,note_on,13,0,2,,,,,,,,,,,,,,,,0,,,72,101
45749,note_on,0,0,2,,,,,,,,,,,,,,,,0,,,84,101
45804,note_on,55,0,1,,,,,,,,,,,,,,,,0,,,69,82
45805,note_on,1,0,1,,,,,,,,,,,,,,,,0,,,63,77
45823,note_on,18,0,1,,,,,,,,,,,,,,,,0,,,29,0
45834,note_on,85,0,2,,,,,,,,,,,,,,,,0,,,84,0
45834,note_on,0,0,2,,,,,,,,,,,,,,,,0,,,72,0
45836,note_on,13,0,1,,,,,,,,,,,,,,,,0,,,41,0
45842,note_on,8,0,2,,,,,,,,,,,,,,,,0,,,71,98
45842,note_on,0,0,2,,,,,,,,,,,,,,,,0,,,83,98
45853,note_on,17,0,1,,,,,,,,,,,,,,,,0,,,72,38
45859,note_on,6,0,1,,,,,,,,,,,,,,,,0,,,69,0
45890,note_on,0,0,2,,,,,,,,,,,,,,,,0,,,71,0
45890,note_on,48,0,2,,,,,,,,,,,,,,,,0,,,83,0
45902,note_on,12,0,2,,,,,,,,,,,,,,,,0,,,72,105
45902,note_on,0,0,2,,,,,,,,,,,,,,,,0,,,84,105
45909,note_on,50,0,1,,,,,,,,,,,,,,,,0,,,69,80
45909,note_on,0,0,1,,,,,,,,,,,,,,,,0,,,72,81
45910,note_on,1,0,1,,,,,,,,,,,,,,,,0,,,77,66
45925,note_on,15,0,1,,,,,,,,,,,,,,,,0,,,72,0
45925,note_on,0,0,1,,,,,,,,,,,,,,,,0,,,63,0
45928,note_on,3,0,1,,,,,,,,,,,,,,,,0,,,69,0
45969,note_on,41,0,1,,,,,,,,,,,,,,,,0,,,72,59
45987,note_on,85,0,2,,,,,,,,,,,,,,,,0,,,84,0
45987,note_on,0,0,2,,,,,,,,,,,,,,,,0,,,72,0
46002,note_on,0,0,2,,,,,,,,,,,,,,,,0,,,86,97
46002,note_on,15,0,2,,,,,,,,,,,,,,,,0,,,74,97
46016,note_on,47,0,1,,,,,,,,,,,,,,,,0,,,72,0
46018,note_on,2,0,1,,,,,,,,,,,,,,,,0,,,77,0
46022,note_on,4,0,1,,,,,,,,,,,,,,,,0,,,69,56
46028,note_on,6,0,1,,,,,,,,,,,,,,,,0,,,72,0
46031,note_on,3,0,1,,,,,,,,,,,,,,,,0,,,69,0
46064,note_on,62,0,2,,,,,,,,,,,,,,,,0,,,72,87
46064,note_on,0,0,2,,,,,,,,,,,,,,,,0,,,84,87
46067,note_on,3,0,2,,,,,,,,,,,,,,,,0,,,86,0
46067,note_on,0,0,2,,,,,,,,,,,,,,,,0,,,74,0
46074,note_on,43,0,1,,,,,,,,,,,,,,,,0,,,29,76
46075,note_on,1,0,1,,,,,,,,,,,,,,,,0,,,41,74
46102,control_change,27,0,1,,,,,,,,,,,,,,,,0,64,0,,
46132,note_on,30,0,1,,,,,,,,,,,,,,,,0,,,62,69
46133,note_on,1,0,1,,,,,,,,,,,,,,,,0,,,70,70
46142,control_change,9,0,1,,,,,,,,,,,,,,,,0,64,127,,
46151,note_on,0,0,2,,,,,,,,,,,,,,,,0,,,84,0
46151,note_on,84,0,2,,,,,,,,,,,,,,,,0,,,72,0
46161,note_on,19,0,1,,,,,,,,,,,,,,,,0,,,41,0
46161,note_on,0,0,1,,,,,,,,,,,,,,,,0,,,29,0
46168,note_on,17,0,2,,,,,,,,,,,,,,,,0,,,74,101
46168,note_on,0,0,2,,,,,,,,,,,,,,,,0,,,86,101
46186,note_on,25,0,1,,,,,,,,,,,,,,,,0,,,74,57
46211,note_on,25,0,1,,,,,,,,,,,,,,,,0,,,62,0
46226,note_on,58,0,2,,,,,,,,,,,,,,,,0,,,86,0
46226,note_on,0,0,2,,,,,,,,,,,,,,,,0,,,74,0
46227,note_on,0,0,2,,,,,,,,,,,,,,,,0,,,82,96
46227,note_on,1,0,2,,,,,,,,,,,,,,,,0,,,70,96
46239,note_on,28,0,1,,,,,,,,,,,,,,,,0,,,62,74
46240,note_on,1,0,1,,,,,,,,,,,,,,,,0,,,77,81
46292,note_on,52,0,1,,,,,,,,,,,,,,,,0,,,70,61
46318,note_on,26,0,1,,,,,,,,,,,,,,,,0,,,70,0
46348,note_on,30,0,1,,,,,,,,,,,,,,,,0,,,62,18
46354,note_on,6,0,1,,,,,,,,,,,,,,,,0,,,74,0
46355,note_on,1,0,1,,,,,,,,,,,,,,,,0,,,65,49
46361,note_on,6,0,1,,,,,,,,,,,,,,,,0,,,62,0
46407,note_on,46,0,1,,,,,,,,,,,,,,,,0,,,41,69
46407,note_on,0,0,1,,,,,,,,,,,,,,,,0,,,29,76
46415,note_on,8,0,1,,,,,,,,,,,,,,,,0,,,77,0
46418,note_on,3,0,1,,,,,,,,,,,,,,,,0,,,70,0
46419,note_on,1,0,1,,,,,,,,,,,,,,,,0,,,62,0
46424,note_on,5,0,1,,,,,,,,,,,,,,,,0,,,65,0
46461,note_on,37,0,1,,,,,,,,,,,,,,,,0,,,70,61
46462,note_on,1,0,1,,,,,,,,,,,,,,,,0,,,62,55
46476,note_on,14,0,1,,,,,,,,,,,,,,,,0,,,41,0
46485,note_on,9,0,1,,,,,,,,,,,,,,,,0,,,29,0
46519,note_on,34,0,1,,,,,,,,,,,,,,,,0,,,74,55
46533,note_on,0,0,2,,,,,,,,,,,,,,,,0,,,70,0
46533,note_on,306,0,2,,,,,,,,,,,,,,,,0,,,82,0
46534,note_on,15,0,1,,,,,,,,,,,,,,,,0,,,70,0
46559,note_on,26,0,2,,,,,,,,,,,,,,,,0,,,70,99
46559,note_on,0,0,2,,,,,,,,,,,,,,,,0,,,82,99
46568,note_on,0,0,1,,,,,,,,,,,,,,,,0,,,77,81
46568,note_on,34,0,1,,,,,,,,,,,,,,,,0,,,65,69
46569,note_on,1,0,1,,,,,,,,,,,,,,,,0,,,62,66
46620,note_on,51,0,1,,,,,,,,,,,,,,,,0,,,62,0
46623,note_on,3,0,1,,,,,,,,,,,,,,,,0,,,70,61
46633,note_on,10,0,1,,,,,,,,,,,,,,,,0,,,74,0
46644,note_on,11,0,1,,,,,,,,,,,,,,,,0,,,65,0
46680,note_on,36,0,1,,,,,,,,,,,,,,,,0,,,65,61
46685,note_on,5,0,1,,,,,,,,,,,,,,,,0,,,77,0
46690,note_on,5,0,1,,,,,,,,,,,,,,,,0,,,62,0
46693,note_on,3,0,1,,,,,,,,,,,,,,,,0,,,70,0
46693,note_on,0,0,1,,,,,,,,,,,,,,,,0,,,65,0
46701,note_on,142,0,2,,,,,,,,,,,,,,,,0,,,82,0
46701,note_on,0,0,2,,,,,,,,,,,,,,,,0,,,70,0
46720,note_on,19,0,2,,,,,,,,,,,,,,,,0,,,72,101
46720,note_on,0,0,2,,,,,,,,,,,,,,,,0,,,84,101
46735,note_on,42,0,1,,,,,,,,,,,,,,,,0,,,41,67
46736,note_on,1,0,1,,,,,,,,,,,,,,,,0,,,48,72
46738,note_on,2,0,1,,,,,,,,,,,,,,,,0,,,53,62
46774,control_change,36,0,1,,,,,,,,,,,,,,,,0,64,0,,
46792,note_on,18,0,1,,,,,,,,,,,,,,,,0,,,65,69
46796,note_on,4,0,1,,,,,,,,,,,,,,,,0,,,60,31
46806,note_on,10,0,1,,,,,,,,,,,,,,,,0,,,41,0
46813,control_change,7,0,1,,,,,,,,,,,,,,,,0,64,127,,
46827,note_on,14,0,1,,,,,,,,,,,,,,,,0,,,48,0
46850,note_on,23,0,1,,,,,,,,,,,,,,,,0,,,69,39
46856,note_on,6,0,1,,,,,,,,,,,,,,,,0,,,53,0
46899,note_on,43,0,1,,,,,,,,,,,,,,,,0,,,77,60
46956,note_on,57,0,1,,,,,,,,,,,,,,,,0,,,72,63
46985,note_on,265,0,2,,,,,,,,,,,,,,,,0,,,84,0
46985,note_on,0,0,2,,,,,,,,,,,,,,,,0,,,72,0
47003,note_on,0,0,2,,,,,,,,,,,,,,,,0,,,84,92
47003,note_on,18,0,2,,,,,,,,,,,,,,,,0,,,72,92
47009,note_on,53,0,1,,,,,,,,,,,,,,,,0,,,65,0
47010,note_on,1,0,1,,,,,,,,,,,,,,,,0,,,60,0
47011,note_on,1,0,1,,,,,,,,,,,,,,,,0,,,69,49
47015,note_on,4,0,1,,,,,,,,,,,,,,,,0,,,69,0
47016,note_on,1,0,1,,,,,,,,,,,,,,,,0,,,77,0
47018,note_on,2,0,1,,,,,,,,,,,,,,,,0,,,72,0
47018,note_on,0,0,1,,,,,,,,,,,,,,,,0,,,69,0
47032,note_on,0,0,2,,,,,,,,,,,,,,,,0,,,72,0
47032,note_on,29,0,2,,,,,,,,,,,,,,,,0,,,84,0
47055,note_on,0,0,2,,,,,,,,,,,,,,,,0,,,84,98
47055,note_on,23,0,2,,,,,,,,,,,,,,,,0,,,72,98
47064,note_on,46,0,1,,,,,,,,,,,,,,,,0,,,41,67
47065,note_on,1,0,1,,,,,,,,,,,,,,,,0,,,53,78
47066,note_on,1,0,1,,,,,,,,,,,,,,,,0,,,48,71
47110,note_on,55,0,2,,,,,,,,,,,,,,,,0,,,71,92
47110,note_on,0,0,2,,,,,,,,,,,,,,,,0,,,83,92
47114,note_on,0,0,2,,,,,,,,,,,,,,,,0,,,72,0
47114,note_on,4,0,2,,,,,,,,,,,,,,,,0,,,84,0
47119,note_on,53,0,1,,,,,,,,,,,,,,,,0,,,69,75
47120,note_on,1,0,1,,,,,,,,,,,,,,,,0,,,63,72
47134,control_change,14,0,1,,,,,,,,,,,,,,,,0,64,0,,
47152,note_on,18,0,1,,,,,,,,,,,,,,,,0,,,41,0
47159,note_on,45,0,2,,,,,,,,,,,,,,,,0,,,72,92
47159,note_on,0,0,2,,,,,,,,,,,,,,,,0,,,84,92
47164,note_on,12,0,1,,,,,,,,,,,,,,,,0,,,53,0
47165,note_on,0,0,2,,,,,,,,,,,,,,,,0,,,83,0
47165,note_on,6,0,2,,,,,,,,,,,,,,,,0,,,71,0
47173,control_change,9,0,1,,,,,,,,,,,,,,,,0,64,127,,
47176,note_on,3,0,1,,,,,,,,,,,,,,,,0,,,72,67
47178,note_on,2,0,1,,,,,,,,,,,,,,,,0,,,63,38
47182,note_on,4,0,1,,,,,,,,,,,,,,,,0,,,48,0
47183,note_on,0,0,2,,,,,,,,,,,,,,,,0,,,84,0
47183,note_on,18,0,2,,,,,,,,,,,,,,,,0,,,72,0
47184,note_on,2,0,1,,,,,,,,,,,,,,,,0,,,69,0
47221,note_on,0,0,2,,,,,,,,,,,,,,,,0,,,87,97
47221,note_on,38,0,2,,,,,,,,,,,,,,,,0,,,75,97
47228,note_on,0,0,1,,,,,,,,,,,,,,,,0,,,77,61
47228,note_on,44,0,1,,,,,,,,,,,,,,,,0,,,72,71
47254,note_on,26,0,1,,,,,,,,,,,,,,,,0,,,63,0
47277,note_on,0,0,2,,,,,,,,,,,,,,,,0,,,86,98
47277,note_on,56,0,2,,,,,,,,,,,,,,,,0,,,74,98
47281,note_on,0,0,2,,,,,,,,,,,,,,,,0,,,75,0
47281,note_on,4,0,2,,,,,,,,,,,,,,,,0,,,87,0
47284,note_on,30,0,1,,,,,,,,,,,,,,,,0,,,72,60
47299,note_on,15,0,1,,,,,,,,,,,,,,,,0,,,72,0
47300,note_on,1,0,1,,,,,,,,,,,,,,,,0,,,63,0
47309,note_on,9,0,1,,,,,,,,,,,,,,,,0,,,72,0
47327,note_on,0,0,2,,,,,,,,,,,,,,,,0,,,86,0
47327,note_on,46,0,2,,,,,,,,,,,,,,,,0,,,74,0
47328,note_on,1,0,2,,,,,,,,,,,,,,,,0,,,72,94
47328,note_on,0,0,2,,,,,,,,,,,,,,,,0,,,84,94
47334,note_on,25,0,1,,,,,,,,,,,,,,,,0,,,77,0
47337,note_on,3,0,1,,,,,,,,,,,,,,,,0,,,69,66
47345,note_on,8,0,1,,,,,,,,,,,,,,,,0,,,72,0
47346,note_on,1,0,1,,,,,,,,,,,,,,,,0,,,69,0
47382,note_on,0,0,2,,,,,,,,,,,,,,,,0,,,72,0
47382,note_on,54,0,2,,,,,,,,,,,,,,,,0,,,84,0
47384,note_on,2,0,2,,,,,,,,,,,,,,,,0,,,70,97
47384,note_on,0,0,2,,,,,,,,,,,,,,,,0,,,82,97
47390,note_on,44,0,1,,,,,,,,,,,,,,,,0,,,55,79
47390,note_on,0,0,1,,,,,,,,,,,,,,,,0,,,43,69
47429,control_change,39,0,1,,,,,,,,,,,,,,,,0,64,0,,
47447,note_on,18,0,1,,,,,,,,,,,,,,,,0,,,62,48
47448,note_on,1,0,1,,,,,,,,,,,,,,,,0,,,67,60
47463,control_change,15,0,1,,,,,,,,,,,,,,,,0,64,127,,
47470,note_on,7,0,1,,,,,,,,,,,,,,,,0,,,55,0
47479,note_on,9,0,1,,,,,,,,,,,,,,,,0,,,43,0
47501,note_on,22,0,1,,,,,,,,,,,,,,,,0,,,70,67
47505,note_on,4,0,1,,,,,,,,,,,,,,,,0,,,62,40
47521,note_on,16,0,1,,,,,,,,,,,,,,,,0,,,62,0
47544,note_on,23,0,1,,,,,,,,,,,,,,,,0,,,67,0
47555,note_on,11,0,1,,,,,,,,,,,,,,,,0,,,74,67
47555,note_on,0,0,1,,,,,,,,,,,,,,,,0,,,62,54
47556,note_on,1,0,1,,,,,,,,,,,,,,,,0,,,67,61
47608,note_on,52,0,1,,,,,,,,,,,,,,,,0,,,70,0
47612,note_on,4,0,1,,,,,,,,,,,,,,,,0,,,70,57
47630,note_on,18,0,1,,,,,,,,,,,,,,,,0,,,62,0
47668,note_on,38,0,1,,,,,,,,,,,,,,,,0,,,74,0
47668,note_on,0,0,1,,,,,,,,,,,,,,,,0,,,62,46
47669,note_on,1,0,1,,,,,,,,,,,,,,,,0,,,67,49
47672,note_on,3,0,1,,,,,,,,,,,,,,,,0,,,62,0
47724,note_on,52,0,1,,,,,,,,,,,,,,,,0,,,55,61
47726,note_on,2,0,1,,,,,,,,,,,,,,,,0,,,43,51
47730,note_on,4,0,1,,,,,,,,,,,,,,,,0,,,67,0
47741,note_on,11,0,1,,,,,,,,,,,,,,,,0,,,70,0
47742,note_on,1,0,1,,,,,,,,,,,,,,,,0,,,62,0
47754,note_on,12,0,1,,,,,,,,,,,,,,,,0,,,67,0
47779,note_on,25,0,1,,,,,,,,,,,,,,,,0,,,62,59
47835,note_on,56,0,1,,,,,,,,,,,,,,,,0,,,67,49
47852,note_on,17,0,1,,,,,,,,,,,,,,,,0,,,55,0
47861,note_on,9,0,1,,,,,,,,,,,,,,,,0,,,43,0
47889,note_on,28,0,1,,,,,,,,,,,,,,,,0,,,50,55
47890,note_on,1,0,1,,,,,,,,,,,,,,,,0,,,74,33
47893,note_on,3,0,1,,,,,,,,,,,,,,,,0,,,76,18
47899,note_on,6,0,1,,,,,,,,,,,,,,,,0,,,62,0
47906,note_on,0,0,1,,,,,,,,,,,,,,,,0,,,50,0
47906,note_on,7,0,1,,,,,,,,,,,,,,,,0,,,67,0
47909,note_on,3,0,1,,,,,,,,,,,,,,,,0,,,62,1
47912,note_on,0,0,2,,,,,,,,,,,,,,,,0,,,70,0
47912,note_on,528,0,2,,,,,,,,,,,,,,,,0,,,82,0
47940,note_on,0,0,2,,,,,,,,,,,,,,,,0,,,82,96
47940,note_on,28,0,2,,,,,,,,,,,,,,,,0,,,70,96
47947,note_on,38,0,1,,,,,,,,,,,,,,,,0,,,70,69
47948,note_on,1,0,1,,,,,,,,,,,,,,,,0,,,74,0
48002,note_on,54,0,1,,,,,,,,,,,,,,,,0,,,67,54
48010,note_on,8,0,1,,,,,,,,,,,,,,,,0,,,76,0
48015,note_on,5,0,1,,,,,,,,,,,,,,,,0,,,62,0
48019,note_on,4,0,1,,,,,,,,,,,,,,,,0,,,70,0
48021,note_on,2,0,1,,,,,,,,,,,,,,,,0,,,67,0
48039,note_on,0,0,2,,,,,,,,,,,,,,,,0,,,70,0
48039,note_on,99,0,2,,,,,,,,,,,,,,,,0,,,82,0
48049,note_on,0,0,2,,,,,,,,,,,,,,,,0,,,84,100
48049,note_on,10,0,2,,,,,,,,,,,,,,,,0,,,72,100
48055,note_on,34,0,1,,,,,,,,,,,,,,,,0,,,53,68
48056,note_on,1,0,1,,,,,,,,,,,,,,,,0,,,41,57
48058,note_on,2,0,1,,,,,,,,,,,,,,,,0,,,48,60
48093,control_change,35,0,1,,,,,,,,,,,,,,,,0,64,0,,
48110,note_on,17,0,1,,,,,,,,,,,,,,,,0,,,65,67
48112,note_on,2,0,1,,,,,,,,,,,,,,,,0,,,60,40
48132,control_change,20,0,1,,,,,,,,,,,,,,,,0,64,127,,
48140,note_on,8,0,1,,,,,,,,,,,,,,,,0,,,53,0
48166,note_on,26,0,1,,,,,,,,,,,,,,,,0,,,69,49
48178,note_on,12,0,1,,,,,,,,,,,,,,,,0,,,41,0
48206,note_on,28,0,1,,,,,,,,,,,,,,,,0,,,48,0
48217,note_on,11,0,1,,,,,,,,,,,,,,,,0,,,65,70
48218,note_on,1,0,1,,,,,,,,,,,,,,,,0,,,72,67
48219,note_on,1,0,1,,,,,,,,,,,,,,,,0,,,60,64
48256,note_on,0,0,2,,,,,,,,,,,,,,,,0,,,72,0
48256,note_on,207,0,2,,,,,,,,,,,,,,,,0,,,84,0
48264,note_on,45,0,1,,,,,,,,,,,,,,,,0,,,65,0
48271,note_on,7,0,1,,,,,,,,,,,,,,,,0,,,60,0
48273,note_on,2,0,1,,,,,,,,,,,,,,,,0,,,69,68
48276,note_on,3,0,1,,,,,,,,,,,,,,,,0,,,69,0
48279,note_on,3,0,1,,,,,,,,,,,,,,,,0,,,65,0
48318,note_on,62,0,2,,,,,,,,,,,,,,,,0,,,72,100
48318,note_on,0,0,2,,,,,,,,,,,,,,,,0,,,84,100
48327,note_on,48,0,1,,,,,,,,,,,,,,,,0,,,65,71
48344,note_on,17,0,1,,,,,,,,,,,,,,,,0,,,72,0
48367,note_on,0,0,2,,,,,,,,,,,,,,,,0,,,72,0
48367,note_on,49,0,2,,,,,,,,,,,,,,,,0,,,84,0
48380,note_on,36,0,1,,,,,,,,,,,,,,,,0,,,60,0
48380,note_on,0,0,2,,,,,,,,,,,,,,,,0,,,86,103
48380,note_on,13,0,2,,,,,,,,,,,,,,,,0,,,74,103
48381,note_on,1,0,1,,,,,,,,,,,,,,,,0,,,38,72
48381,note_on,0,0,1,,,,,,,,,,,,,,,,0,,,50,92
48384,note_on,3,0,1,,,,,,,,,,,,,,,,0,,,69,0
48400,note_on,16,0,1,,,,,,,,,,,,,,,,0,,,65,0
48413,control_change,13,0,1,,,,,,,,,,,,,,,,0,64,0,,
48438,note_on,25,0,1,,,,,,,,,,,,,,,,0,,,66,77
48438,note_on,0,0,1,,,,,,,,,,,,,,,,0,,,62,63
48453,control_change,15,0,1,,,,,,,,,,,,,,,,0,64,127,,
48454,note_on,74,0,2,,,,,,,,,,,,,,,,0,,,86,0
48454,note_on,0,0,2,,,,,,,,,,,,,,,,0,,,74,0
48463,note_on,10,0,1,,,,,,,,,,,,,,,,0,,,38,0
48471,note_on,17,0,2,,,,,,,,,,,,,,,,0,,,74,98
48471,note_on,0,0,2,,,,,,,,,,,,,,,,0,,,86,98
48478,note_on,15,0,1,,,,,,,,,,,,,,,,0,,,50,0
48491,note_on,0,0,1,,,,,,,,,,,,,,,,0,,,62,57
48491,note_on,13,0,1,,,,,,,,,,,,,,,,0,,,69,72
48499,note_on,0,0,2,,,,,,,,,,,,,,,,0,,,74,0
48499,note_on,28,0,2,,,,,,,,,,,,,,,,0,,,86,0
48507,note_on,16,0,1,,,,,,,,,,,,,,,,0,,,66,0
48524,note_on,17,0,1,,,,,,,,,,,,,,,,0,,,62,0
48529,note_on,0,0,2,,,,,,,,,,,,,,,,0,,,86,112
48529,note_on,30,0,2,,,,,,,,,,,,,,,,0,,,74,112
48539,note_on,0,0,1,,,,,,,,,,,,,,,,0,,,74,77
48539,note_on,15,0,1,,,,,,,,,,,,,,,,0,,,66,76
48540,note_on,1,0,1,,,,,,,,,,,,,,,,0,,,62,71
48567,note_on,27,0,1,,,,,,,,,,,,,,,,0,,,69,0
48576,note_on,9,0,1,,,,,,,,,,,,,,,,0,,,62,0
48586,note_on,57,0,2,,,,,,,,,,,,,,,,0,,,86,0
48586,note_on,0,0,2,,,,,,,,,,,,,,,,0,,,74,0
48587,note_on,1,0,2,,,,,,,,,,,,,,,,0,,,72,100
48587,note_on,0,0,2,,,,,,,,,,,,,,,,0,,,84,100
48598,note_on,22,0,1,,,,,,,,,,,,,,,,0,,,69,63
48599,note_on,1,0,1,,,,,,,,,,,,,,,,0,,,66,0
48639,note_on,52,0,2,,,,,,,,,,,,,,,,0,,,74,88
48639,note_on,0,0,2,,,,,,,,,,,,,,,,0,,,86,88
48651,note_on,12,0,2,,,,,,,,,,,,,,,,0,,,84,0
48651,note_on,0,0,2,,,,,,,,,,,,,,,,0,,,72,0
48652,note_on,53,0,1,,,,,,,,,,,,,,,,0,,,66,61
48659,note_on,7,0,1,,,,,,,,,,,,,,,,0,,,74,0
48661,note_on,2,0,1,,,,,,,,,,,,,,,,0,,,62,0
48665,note_on,4,0,1,,,,,,,,,,,,,,,,0,,,69,0
48667,note_on,2,0,1,,,,,,,,,,,,,,,,0,,,66,0
48679,note_on,28,0,2,,,,,,,,,,,,,,,,0,,,74,0
48679,note_on,0,0,2,,,,,,,,,,,,,,,,0,,,86,0
48683,note_on,4,0,2,,,,,,,,,,,,,,,,0,,,77,87
48683,note_on,0,0,2,,,,,,,,,,,,,,,,0,,,89,87
48684,note_on,0,0,2,,,,,,,,,,,,,,,,0,,,87,96
48684,note_on,1,0,2,,,,,,,,,,,,,,,,0,,,75,96
48689,note_on,0,0,2,,,,,,,,,,,,,,,,0,,,77,0
48689,note_on,5,0,2,,,,,,,,,,,,,,,,0,,,89,0
48704,note_on,37,0,1,,,,,,,,,,,,,,,,0,,,36,77
48704,note_on,0,0,1,,,,,,,,,,,,,,,,0,,,48,93
48738,control_change,34,0,1,,,,,,,,,,,,,,,,0,64,0,,
48759,note_on,21,0,1,,,,,,,,,,,,,,,,0,,,67,74
48760,note_on,1,0,1,,,,,,,,,,,,,,,,0,,,63,80
48780,control_change,20,0,1,,,,,,,,,,,,,,,,0,64,127,,
48812,note_on,32,0,1,,,,,,,,,,,,,,,,0,,,72,72
48828,note_on,16,0,1,,,,,,,,,,,,,,,,0,,,36,0
48835,note_on,7,0,1,,,,,,,,,,,,,,,,0,,,48,0
48848,note_on,159,0,2,,,,,,,,,,,,,,,,0,,,75,0
48848,note_on,0,0,2,,,,,,,,,,,,,,,,0,,,87,0
48865,note_on,17,0,2,,,,,,,,,,,,,,,,0,,,75,107
48865,note_on,0,0,2,,,,,,,,,,,,,,,,0,,,87,107
48865,note_on,30,0,1,,,,,,,,,,,,,,,,0,,,75,84
48865,note_on,0,0,1,,,,,,,,,,,,,,,,0,,,63,87
48867,note_on,2,0,1,,,,,,,,,,,,,,,,0,,,67,70
48868,note_on,1,0,1,,,,,,,,,,,,,,,,0,,,67,0
48926,note_on,58,0,1,,,,,,,,,,,,,,,,0,,,72,69
48929,note_on,3,0,1,,,,,,,,,,,,,,,,0,,,63,0
48934,note_on,5,0,1,,,,,,,,,,,,,,,,0,,,72,0
48968,note_on,34,0,1,,,,,,,,,,,,,,,,0,,,75,0
48975,note_on,7,0,1,,,,,,,,,,,,,,,,0,,,67,56
48985,note_on,10,0,1,,,,,,,,,,,,,,,,0,,,63,0
48991,note_on,6,0,1,,,,,,,,,,,,,,,,0,,,67,0
49030,note_on,39,0,1,,,,,,,,,,,,,,,,0,,,48,64
49031,note_on,1,0,1,,,,,,,,,,,,,,,,0,,,36,64
49034,note_on,3,0,1,,,,,,,,,,,,,,,,0,,,72,0
49053,note_on,19,0,1,,,,,,,,,,,,,,,,0,,,67,0
49084,note_on,31,0,1,,,,,,,,,,,,,,,,0,,,67,56
49085,note_on,1,0,1,,,,,,,,,,,,,,,,0,,,63,50
49133,note_on,48,0,1,,,,,,,,,,,,,,,,0,,,48,0
49136,note_on,3,0,1,,,,,,,,,,,,,,,,0,,,72,53
49184,note_on,48,0,1,,,,,,,,,,,,,,,,0,,,36,0
49188,note_on,0,0,1,,,,,,,,,,,,,,,,0,,,48,59
49188,note_on,4,0,1,,,,,,,,,,,,,,,,0,,,75,54
49205,note_on,17,0,1,,,,,,,,,,,,,,,,0,,,67,0
49206,note_on,1,0,1,,,,,,,,,,,,,,,,0,,,63,0
49227,note_on,0,0,2,,,,,,,,,,,,,,,,0,,,75,0
49227,note_on,362,0,2,,,,,,,,,,,,,,,,0,,,87,0
49227,note_on,0,0,2,,,,,,,,,,,,,,,,0,,,67,84
49227,note_on,0,0,2,,,,,,,,,,,,,,,,0,,,79,84
49237,note_on,0,0,2,,,,,,,,,,,,,,,,0,,,67,0
49237,note_on,10,0,2,,,,,,,,,,,,,,,,0,,,79,0
49247,note_on,41,0,1,,,,,,,,,,,,,,,,0,,,72,54
49251,note_on,4,0,1,,,,,,,,,,,,,,,,0,,,72,0
49254,note_on,3,0,1,,,,,,,,,,,,,,,,0,,,75,0
49280,note_on,0,0,2,,,,,,,,,,,,,,,,0,,,79,89
49280,note_on,43,0,2,,,,,,,,,,,,,,,,0,,,67,89
49300,note_on,46,0,1,,,,,,,,,,,,,,,,0,,,48,0
49301,note_on,1,0,1,,,,,,,,,,,,,,,,0,,,67,42
49312,note_on,11,0,1,,,,,,,,,,,,,,,,0,,,72,0
49324,note_on,12,0,1,,,,,,,,,,,,,,,,0,,,67,0
49325,note_on,45,0,2,,,,,,,,,,,,,,,,0,,,86,93
49330,note_on,5,0,2,,,,,,,,,,,,,,,,0,,,79,0
49330,note_on,0,0,2,,,,,,,,,,,,,,,,0,,,67,0
49337,note_on,7,0,2,,,,,,,,,,,,,,,,0,,,72,96
49337,note_on,0,0,2,,,,,,,,,,,,,,,,0,,,84,96
49343,note_on,6,0,2,,,,,,,,,,,,,,,,0,,,86,0
49349,note_on,25,0,1,,,,,,,,,,,,,,,,0,,,39,52
49354,note_on,5,0,1,,,,,,,,,,,,,,,,0,,,51,47
49356,note_on,2,0,1,,,,,,,,,,,,,,,,0,,,46,49
49383,control_change,27,0,1,,,,,,,,,,,,,,,,0,64,0,,
49405,note_on,22,0,1,,,,,,,,,,,,,,,,0,,,63,52
49407,note_on,2,0,1,,,,,,,,,,,,,,,,0,,,60,31
49420,control_change,13,0,1,,,,,,,,,,,,,,,,0,64,127,,
49462,note_on,42,0,1,,,,,,,,,,,,,,,,0,,,39,0
49464,note_on,2,0,1,,,,,,,,,,,,,,,,0,,,67,51
49466,note_on,2,0,1,,,,,,,,,,,,,,,,0,,,51,0
49471,note_on,5,0,1,,,,,,,,,,,,,,,,0,,,46,0
49516,note_on,45,0,1,,,,,,,,,,,,,,,,0,,,72,48
49556,note_on,0,0,2,,,,,,,,,,,,,,,,0,,,72,0
49556,note_on,213,0,2,,,,,,,,,,,,,,,,0,,,84,0
49573,note_on,57,0,1,,,,,,,,,,,,,,,,0,,,67,54
49596,note_on,23,0,1,,,,,,,,,,,,,,,,0,,,63,0
49596,note_on,0,0,1,,,,,,,,,,,,,,,,0,,,60,0
49602,note_on,6,0,1,,,,,,,,,,,,,,,,0,,,67,0
49620,note_on,64,0,2,,,,,,,,,,,,,,,,0,,,72,86
49620,note_on,0,0,2,,,,,,,,,,,,,,,,0,,,84,86
49628,note_on,26,0,1,,,,,,,,,,,,,,,,0,,,63,48
49633,note_on,5,0,1,,,,,,,,,,,,,,,,0,,,72,0
49670,note_on,0,0,2,,,,,,,,,,,,,,,,0,,,72,0
49670,note_on,50,0,2,,,,,,,,,,,,,,,,0,,,84,0
49675,note_on,0,0,2,,,,,,,,,,,,,,,,0,,,82,102
49675,note_on,5,0,2,,,,,,,,,,,,,,,,0,,,70,102
49679,note_on,46,0,1,,,,,,,,,,,,,,,,0,,,67,0
49686,note_on,7,0,1,,,,,,,,,,,,,,,,0,,,63,0
49686,note_on,0,0,1,,,,,,,,,,,,,,,,0,,,43,61
49688,note_on,2,0,1,,,,,,,,,,,,,,,,0,,,55,66
49722,control_change,34,0,1,,,,,,,,,,,,,,,,0,64,0,,
49731,note_on,56,0,2,,,,,,,,,,,,,,,,0,,,82,0
49731,note_on,0,0,2,,,,,,,,,,,,,,,,0,,,70,0
49732,note_on,0,0,2,,,,,,,,,,,,,,,,0,,,81,101
49732,note_on,1,0,2,,,,,,,,,,,,,,,,0,,,69,101
49745,note_on,23,0,1,,,,,,,,,,,,,,,,0,,,61,51
49746,note_on,1,0,1,,,,,,,,,,,,,,,,0,,,64,66
49760,control_change,14,0,1,,,,,,,,,,,,,,,,0,64,127,,
49773,note_on,13,0,1,,,,,,,,,,,,,,,,0,,,43,0
49778,note_on,46,0,2,,,,,,,,,,,,,,,,0,,,81,0
49778,note_on,0,0,2,,,,,,,,,,,,,,,,0,,,69,0
49785,note_on,7,0,2,,,,,,,,,,,,,,,,0,,,70,98
49785,note_on,0,0,2,,,,,,,,,,,,,,,,0,,,82,98
49792,note_on,19,0,1,,,,,,,,,,,,,,,,0,,,70,62
49798,note_on,6,0,1,,,,,,,,,,,,,,,,0,,,55,0
49801,note_on,3,0,1,,,,,,,,,,,,,,,,0,,,61,0
49839,note_on,0,0,2,,,,,,,,,,,,,,,,0,,,85,94
49839,note_on,54,0,2,,,,,,,,,,,,,,,,0,,,73,94
49847,note_on,46,0,1,,,,,,,,,,,,,,,,0,,,73,66
49849,note_on,2,0,1,,,,,,,,,,,,,,,,0,,,61,56
49849,note_on,0,0,2,,,,,,,,,,,,,,,,0,,,70,0
49849,note_on,10,0,2,,,,,,,,,,,,,,,,0,,,82,0
49861,note_on,12,0,1,,,,,,,,,,,,,,,,0,,,64,0
49872,note_on,11,0,1,,,,,,,,,,,,,,,,0,,,70,0
49879,note_on,0,0,2,,,,,,,,,,,,,,,,0,,,85,0
49879,note_on,30,0,2,,,,,,,,,,,,,,,,0,,,73,0
49892,note_on,0,0,2,,,,,,,,,,,,,,,,0,,,84,87
49892,note_on,13,0,2,,,,,,,,,,,,,,,,0,,,72,87
49903,note_on,31,0,1,,,,,,,,,,,,,,,,0,,,70,50
49916,note_on,13,0,1,,,,,,,,,,,,,,,,0,,,73,0
49923,note_on,7,0,1,,,,,,,,,,,,,,,,0,,,61,0
49938,note_on,46,0,2,,,,,,,,,,,,,,,,0,,,84,0
49938,note_on,0,0,2,,,,,,,,,,,,,,,,0,,,72,0
49943,note_on,0,0,2,,,,,,,,,,,,,,,,0,,,82,98
49943,note_on,5,0,2,,,,,,,,,,,,,,,,0,,,70,98
49955,note_on,32,0,1,,,,,,,,,,,,,,,,0,,,64,45
49965,note_on,10,0,1,,,,,,,,,,,,,,,,0,,,64,0
49965,note_on,0,0,1,,,,,,,,,,,,,,,,0,,,70,0
49996,note_on,0,0,2,,,,,,,,,,,,,,,,0,,,70,0
49996,note_on,53,0,2,,,,,,,,,,,,,,,,0,,,82,0
50000,note_on,0,0,2,,,,,,,,,,,,,,,,0,,,84,104
50000,note_on,4,0,2,,,,,,,,,,,,,,,,0,,,72,104
50008,note_on,43,0,1,,,,,,,,,,,,,,,,0,,,41,57
50010,note_on,0,0,1,,,,,,,,,,,,,,,,0,,,53,56
50010,note_on,2,0,1,,,,,,,,,,,,,,,,0,,,48,58
50046,control_change,36,0,1,,,,,,,,,,,,,,,,0,64,0,,
50071,note_on,25,0,1,,,,,,,,,,,,,,,,0,,,65,59
50073,note_on,2,0,1,,,,,,,,,,,,,,,,0,,,60,38
50084,control_change,11,0,1,,,,,,,,,,,,,,,,0,64,127,,
50094,note_on,10,0,1,,,,,,,,,,,,,,,,0,,,41,0
50127,note_on,33,0,1,,,,,,,,,,,,,,,,0,,,69,37
50135,note_on,8,0,1,,,,,,,,,,,,,,,,0,,,48,0
50176,note_on,41,0,1,,,,,,,,,,,,,,,,0,,,53,0
50178,note_on,2,0,1,,,,,,,,,,,,,,,,0,,,60,1
50180,note_on,2,0,1,,,,,,,,,,,,,,,,0,,,72,60
50180,note_on,0,0,1,,,,,,,,,,,,,,,,0,,,65,45
50230,note_on,50,0,1,,,,,,,,,,,,,,,,0,,,65,0
50235,note_on,5,0,1,,,,,,,,,,,,,,,,0,,,69,45
50254,note_on,19,0,1,,,,,,,,,,,,,,,,0,,,60,0
50280,note_on,26,0,1,,,,,,,,,,,,,,,,0,,,69,0
50287,note_on,7,0,1,,,,,,,,,,,,,,,,0,,,60,0
50289,note_on,2,0,1,,,,,,,,,,,,,,,,0,,,65,54
50291,note_on,2,0,1,,,,,,,,,,,,,,,,0,,,60,34
50292,note_on,1,0,1,,,,,,,,,,,,,,,,0,,,72,0
50305,note_on,13,0,1,,,,,,,,,,,,,,,,0,,,65,0
50312,note_on,7,0,1,,,,,,,,,,,,,,,,0,,,69,0
50325,note_on,13,0,1,,,,,,,,,,,,,,,,0,,,65,0
50333,note_on,8,0,1,,,,,,,,,,,,,,,,0,,,60,0
50346,note_on,13,0,1,,,,,,,,,,,,,,,,0,,,53,45
50347,note_on,1,0,1,,,,,,,,,,,,,,,,0,,,41,51
50349,note_on,2,0,1,,,,,,,,,,,,,,,,0,,,48,42
50400,note_on,51,0,1,,,,,,,,,,,,,,,,0,,,63,51
50402,note_on,2,0,1,,,,,,,,,,,,,,,,0,,,65,63
50456,note_on,54,0,1,,,,,,,,,,,,,,,,0,,,69,46
50486,note_on,30,0,1,,,,,,,,,,,,,,,,0,,,53,0
50500,note_on,14,0,1,,,,,,,,,,,,,,,,0,,,41,0
50509,note_on,9,0,1,,,,,,,,,,,,,,,,0,,,72,35
50546,note_on,37,0,1,,,,,,,,,,,,,,,,0,,,48,0
50547,note_on,1,0,1,,,,,,,,,,,,,,,,0,,,63,0
50558,note_on,0,0,2,,,,,,,,,,,,,,,,0,,,72,0
50558,note_on,558,0,2,,,,,,,,,,,,,,,,0,,,84,0
50570,note_on,23,0,1,,,,,,,,,,,,,,,,0,,,65,0
50573,note_on,3,0,1,,,,,,,,,,,,,,,,0,,,69,40
50622,note_on,49,0,1,,,,,,,,,,,,,,,,0,,,69,0
50628,note_on,6,0,1,,,,,,,,,,,,,,,,0,,,65,52
50637,note_on,9,0,1,,,,,,,,,,,,,,,,0,,,72,0
50643,note_on,6,0,1,,,,,,,,,,,,,,,,0,,,69,0
50683,note_on,40,0,1,,,,,,,,,,,,,,,,0,,,65,0
50685,note_on,2,0,1,,,,,,,,,,,,,,,,0,,,34,56
50688,note_on,3,0,1,,,,,,,,,,,,,,,,0,,,46,34
50691,note_on,3,0,1,,,,,,,,,,,,,,,,0,,,41,48
50703,note_on,145,0,2,,,,,,,,,,,,,,,,0,,,70,91
50713,control_change,22,0,1,,,,,,,,,,,,,,,,0,64,0,,
50752,note_on,39,0,1,,,,,,,,,,,,,,,,0,,,62,19
50762,control_change,10,0,1,,,,,,,,,,,,,,,,0,64,127,,
50803,note_on,41,0,1,,,,,,,,,,,,,,,,0,,,65,45
50821,note_on,18,0,1,,,,,,,,,,,,,,,,0,,,34,0
50834,note_on,13,0,1,,,,,,,,,,,,,,,,0,,,46,0
50862,note_on,28,0,1,,,,,,,,,,,,,,,,0,,,70,58
50922,note_on,60,0,1,,,,,,,,,,,,,,,,0,,,65,42
50981,note_on,59,0,1,,,,,,,,,,,,,,,,0,,,41,0
50982,note_on,1,0,1,,,,,,,,,,,,,,,,0,,,62,36
50986,note_on,4,0,1,,,,,,,,,,,,,,,,0,,,62,0
50991,note_on,5,0,1,,,,,,,,,,,,,,,,0,,,65,0
51091,note_on,100,0,1,,,,,,,,,,,,,,,,0,,,31,78
51094,note_on,3,0,1,,,,,,,,,,,,,,,,0,,,43,65
51101,note_on,7,0,1,,,,,,,,,,,,,,,,0,,,70,0
51105,note_on,4,0,1,,,,,,,,,,,,,,,,0,,,65,0
51124,note_on,19,0,1,,,,,,,,,,,,,,,,0,,,62,0
51148,note_on,24,0,1,,,,,,,,,,,,,,,,0,,,62,64
51203,note_on,55,0,1,,,,,,,,,,,,,,,,0,,,70,56
51212,note_on,9,0,1,,,,,,,,,,,,,,,,0,,,31,0
51219,note_on,7,0,1,,,,,,,,,,,,,,,,0,,,43,0
51258,note_on,39,0,1,,,,,,,,,,,,,,,,0,,,62,0
51258,note_on,0,0,1,,,,,,,,,,,,,,,,0,,,62,55
51260,note_on,2,0,1,,,,,,,,,,,,,,,,0,,,74,44
51262,note_on,2,0,1,,,,,,,,,,,,,,,,0,,,43,63
51280,note_on,577,0,2,,,,,,,,,,,,,,,,0,,,70,0
51281,note_on,1,0,2,,,,,,,,,,,,,,,,0,,,69,112
51284,note_on,22,0,1,,,,,,,,,,,,,,,,0,,,70,0
51285,note_on,1,0,1,,,,,,,,,,,,,,,,0,,,62,0
51317,note_on,32,0,1,,,,,,,,,,,,,,,,0,,,70,50
51334,note_on,17,0,1,,,,,,,,,,,,,,,,0,,,74,0
51360,note_on,79,0,2,,,,,,,,,,,,,,,,0,,,69,0
51371,note_on,11,0,2,,,,,,,,,,,,,,,,0,,,70,104
51377,note_on,43,0,1,,,,,,,,,,,,,,,,0,,,62,46
51401,note_on,24,0,1,,,,,,,,,,,,,,,,0,,,43,0
51434,note_on,33,0,1,,,,,,,,,,,,,,,,0,,,29,65
51436,note_on,2,0,1,,,,,,,,,,,,,,,,0,,,41,59
51437,note_on,1,0,1,,,,,,,,,,,,,,,,0,,,70,0
51446,control_change,9,0,1,,,,,,,,,,,,,,,,0,64,0,,
51448,note_on,77,0,2,,,,,,,,,,,,,,,,0,,,70,0
51450,note_on,2,0,2,,,,,,,,,,,,,,,,0,,,74,98
51465,note_on,19,0,1,,,,,,,,,,,,,,,,0,,,62,0
51479,control_change,14,0,1,,,,,,,,,,,,,,,,0,64,127,,
51496,note_on,17,0,1,,,,,,,,,,,,,,,,0,,,65,49
51496,note_on,0,0,1,,,,,,,,,,,,,,,,0,,,62,43
51547,note_on,51,0,1,,,,,,,,,,,,,,,,0,,,29,0
51549,note_on,2,0,1,,,,,,,,,,,,,,,,0,,,70,54
51558,note_on,9,0,1,,,,,,,,,,,,,,,,0,,,41,0
51566,note_on,8,0,1,,,,,,,,,,,,,,,,0,,,65,0
51607,note_on,41,0,1,,,,,,,,,,,,,,,,0,,,62,52
51610,note_on,3,0,1,,,,,,,,,,,,,,,,0,,,74,44
51669,note_on,59,0,1,,,,,,,,,,,,,,,,0,,,70,43
51679,note_on,10,0,1,,,,,,,,,,,,,,,,0,,,62,0
51725,note_on,46,0,1,,,,,,,,,,,,,,,,0,,,62,41
51729,note_on,4,0,1,,,,,,,,,,,,,,,,0,,,70,0
51735,note_on,6,0,1,,,,,,,,,,,,,,,,0,,,62,0
51766,note_on,31,0,1,,,,,,,,,,,,,,,,0,,,74,0
51779,note_on,13,0,1,,,,,,,,,,,,,,,,0,,,70,0
51782,note_on,3,0,1,,,,,,,,,,,,,,,,0,,,29,56
51783,note_on,1,0,1,,,,,,,,,,,,,,,,0,,,41,49
51789,note_on,6,0,1,,,,,,,,,,,,,,,,0,,,62,0
51839,note_on,50,0,1,,,,,,,,,,,,,,,,0,,,65,77
51841,note_on,2,0,1,,,,,,,,,,,,,,,,0,,,63,45
51842,control_change,1,0,1,,,,,,,,,,,,,,,,0,64,0,,
51880,control_change,38,0,1,,,,,,,,,,,,,,,,0,64,127,,
51894,note_on,14,0,1,,,,,,,,,,,,,,,,0,,,69,66
51936,note_on,486,0,2,,,,,,,,,,,,,,,,0,,,72,89
51943,note_on,7,0,2,,,,,,,,,,,,,,,,0,,,74,0
51946,note_on,52,0,1,,,,,,,,,,,,,,,,0,,,72,54
51953,note_on,7,0,1,,,,,,,,,,,,,,,,0,,,29,0
51991,note_on,38,0,1,,,,,,,,,,,,,,,,0,,,41,0
52004,note_on,13,0,1,,,,,,,,,,,,,,,,0,,,65,0
52011,note_on,7,0,1,,,,,,,,,,,,,,,,0,,,63,0
52013,note_on,2,0,1,,,,,,,,,,,,,,,,0,,,69,57
52060,note_on,47,0,1,,,,,,,,,,,,,,,,0,,,69,0
52065,note_on,5,0,1,,,,,,,,,,,,,,,,0,,,72,0
52071,note_on,6,0,1,,,,,,,,,,,,,,,,0,,,65,58
52073,note_on,2,0,1,,,,,,,,,,,,,,,,0,,,69,0
52117,note_on,44,0,1,,,,,,,,,,,,,,,,0,,,65,0
52124,note_on,7,0,1,,,,,,,,,,,,,,,,0,,,46,59
52125,note_on,1,0,1,,,,,,,,,,,,,,,,0,,,34,62
52127,note_on,2,0,1,,,,,,,,,,,,,,,,0,,,41,62
52132,control_change,5,0,1,,,,,,,,,,,,,,,,0,64,0,,
52156,note_on,213,0,2,,,,,,,,,,,,,,,,0,,,70,95
52161,note_on,5,0,2,,,,,,,,,,,,,,,,0,,,72,0
52162,control_change,30,0,1,,,,,,,,,,,,,,,,0,64,127,,
52174,note_on,12,0,1,,,,,,,,,,,,,,,,0,,,46,0
52175,note_on,1,0,1,,,,,,,,,,,,,,,,0,,,34,0
52176,note_on,1,0,1,,,,,,,,,,,,,,,,0,,,41,0
52185,note_on,0,0,1,,,,,,,,,,,,,,,,0,,,62,35
52185,note_on,9,0,1,,,,,,,,,,,,,,,,0,,,65,57
52241,note_on,56,0,1,,,,,,,,,,,,,,,,0,,,70,51
52251,note_on,10,0,1,,,,,,,,,,,,,,,,0,,,65,0
52260,note_on,9,0,1,,,,,,,,,,,,,,,,0,,,62,0
52265,note_on,5,0,1,,,,,,,,,,,,,,,,0,,,70,0
52291,note_on,26,0,1,,,,,,,,,,,,,,,,0,,,74,67
52296,note_on,5,0,1,,,,,,,,,,,,,,,,0,,,62,45
52345,note_on,49,0,1,,,,,,,,,,,,,,,,0,,,70,60
52385,note_on,40,0,1,,,,,,,,,,,,,,,,0,,,74,0
52406,note_on,21,0,1,,,,,,,,,,,,,,,,0,,,65,46
52416,note_on,10,0,1,,,,,,,,,,,,,,,,0,,,62,0
52445,note_on,29,0,1,,,,,,,,,,,,,,,,0,,,70,0
52459,note_on,14,0,1,,,,,,,,,,,,,,,,0,,,62,38
52521,note_on,62,0,1,,,,,,,,,,,,,,,,0,,,65,58
52544,note_on,23,0,1,,,,,,,,,,,,,,,,0,,,65,0
52575,note_on,31,0,1,,,,,,,,,,,,,,,,0,,,70,57
52582,note_on,7,0,1,,,,,,,,,,,,,,,,0,,,62,0
52629,note_on,47,0,1,,,,,,,,,,,,,,,,0,,,74,62
52637,note_on,8,0,1,,,,,,,,,,,,,,,,0,,,65,0
52686,note_on,49,0,1,,,,,,,,,,,,,,,,0,,,70,62
52738,note_on,52,0,1,,,,,,,,,,,,,,,,0,,,65,53
52746,note_on,8,0,1,,,,,,,,,,,,,,,,0,,,70,0
52754,note_on,8,0,1,,,,,,,,,,,,,,,,0,,,74,0
52756,note_on,2,0,1,,,,,,,,,,,,,,,,0,,,70,0
52758,note_on,2,0,1,,,,,,,,,,,,,,,,0,,,65,0
52792,note_on,0,0,1,,,,,,,,,,,,,,,,0,,,46,67
52792,note_on,34,0,1,,,,,,,,,,,,,,,,0,,,34,69
52794,note_on,2,0,1,,,,,,,,,,,,,,,,0,,,41,66
52827,control_change,33,0,1,,,,,,,,,,,,,,,,0,64,0,,
52852,note_on,25,0,1,,,,,,,,,,,,,,,,0,,,74,68
52852,note_on,0,0,1,,,,,,,,,,,,,,,,0,,,77,76
52865,control_change,13,0,1,,,,,,,,,,,,,,,,0,64,127,,
52885,note_on,20,0,1,,,,,,,,,,,,,,,,0,,,34,0
52891,note_on,6,0,1,,,,,,,,,,,,,,,,0,,,46,0
52905,note_on,14,0,1,,,,,,,,,,,,,,,,0,,,70,67
52918,note_on,13,0,1,,,,,,,,,,,,,,,,0,,,41,0
52960,note_on,42,0,1,,,,,,,,,,,,,,,,0,,,70,79
52961,note_on,0,0,1,,,,,,,,,,,,,,,,0,,,80,76
52961,note_on,1,0,1,,,,,,,,,,,,,,,,0,,,74,81
53020,note_on,59,0,1,,,,,,,,,,,,,,,,0,,,74,0
53024,note_on,4,0,1,,,,,,,,,,,,,,,,0,,,77,61
53032,note_on,8,0,1,,,,,,,,,,,,,,,,0,,,77,0
53069,note_on,37,0,1,,,,,,,,,,,,,,,,0,,,70,0
53075,note_on,6,0,1,,,,,,,,,,,,,,,,0,,,70,0
53077,note_on,2,0,1,,,,,,,,,,,,,,,,0,,,74,64
53079,note_on,2,0,1,,,,,,,,,,,,,,,,0,,,70,35
53080,note_on,1,0,1,,,,,,,,,,,,,,,,0,,,74,0
53129,note_on,49,0,1,,,,,,,,,,,,,,,,0,,,34,57
53130,note_on,1,0,1,,,,,,,,,,,,,,,,0,,,46,48
53132,note_on,2,0,1,,,,,,,,,,,,,,,,0,,,41,52
53134,note_on,2,0,1,,,,,,,,,,,,,,,,0,,,80,0
53135,note_on,0,0,1,,,,,,,,,,,,,,,,0,,,77,0
53135,note_on,1,0,1,,,,,,,,,,,,,,,,0,,,74,0
53150,note_on,15,0,1,,,,,,,,,,,,,,,,0,,,70,0
53187,note_on,37,0,1,,,,,,,,,,,,,,,,0,,,74,65
53190,note_on,3,0,1,,,,,,,,,,,,,,,,0,,,70,35
53244,note_on,54,0,1,,,,,,,,,,,,,,,,0,,,77,48
53294,note_on,50,0,1,,,,,,,,,,,,,,,,0,,,34,0
53298,note_on,4,0,1,,,,,,,,,,,,,,,,0,,,80,48
53305,note_on,7,0,1,,,,,,,,,,,,,,,,0,,,46,0
53307,note_on,2,0,1,,,,,,,,,,,,,,,,0,,,41,0
53312,note_on,5,0,1,,,,,,,,,,,,,,,,0,,,74,0
53357,note_on,45,0,1,,,,,,,,,,,,,,,,0,,,70,0
53359,note_on,2,0,1,,,,,,,,,,,,,,,,0,,,77,41
53420,note_on,61,0,1,,,,,,,,,,,,,,,,0,,,74,49
53422,note_on,2,0,1,,,,,,,,,,,,,,,,0,,,77,0
53432,note_on,10,0,1,,,,,,,,,,,,,,,,0,,,80,0
53434,note_on,2,0,1,,,,,,,,,,,,,,,,0,,,77,0
53450,note_on,16,0,1,,,,,,,,,,,,,,,,0,,,74,0
53472,note_on,22,0,1,,,,,,,,,,,,,,,,0,,,39,58
53475,note_on,3,0,1,,,,,,,,,,,,,,,,0,,,46,56
53475,note_on,0,0,1,,,,,,,,,,,,,,,,0,,,51,57
53513,control_change,38,0,1,,,,,,,,,,,,,,,,0,64,0,,
53529,note_on,16,0,1,,,,,,,,,,,,,,,,0,,,70,65
53533,note_on,4,0,1,,,,,,,,,,,,,,,,0,,,67,28
53548,control_change,15,0,1,,,,,,,,,,,,,,,,0,64,127,,
53552,note_on,4,0,1,,,,,,,,,,,,,,,,0,,,39,0
53561,note_on,9,0,1,,,,,,,,,,,,,,,,0,,,46,0
53586,note_on,25,0,1,,,,,,,,,,,,,,,,0,,,75,59
53587,note_on,1,0,1,,,,,,,,,,,,,,,,0,,,67,29
53609,note_on,22,0,1,,,,,,,,,,,,,,,,0,,,51,0
53629,note_on,20,0,1,,,,,,,,,,,,,,,,0,,,70,0
53638,note_on,9,0,1,,,,,,,,,,,,,,,,0,,,79,64
53639,note_on,1,0,1,,,,,,,,,,,,,,,,0,,,67,60
53699,note_on,60,0,1,,,,,,,,,,,,,,,,0,,,67,0
53700,note_on,1,0,1,,,,,,,,,,,,,,,,0,,,75,52
53730,note_on,30,0,1,,,,,,,,,,,,,,,,0,,,75,0
53739,note_on,9,0,1,,,,,,,,,,,,,,,,0,,,67,0
53762,note_on,23,0,1,,,,,,,,,,,,,,,,0,,,67,49
53768,note_on,6,0,1,,,,,,,,,,,,,,,,0,,,79,0
53770,note_on,2,0,1,,,,,,,,,,,,,,,,0,,,67,0
53775,note_on,5,0,1,,,,,,,,,,,,,,,,0,,,75,0
53776,note_on,1,0,1,,,,,,,,,,,,,,,,0,,,67,0
53819,note_on,43,0,1,,,,,,,,,,,,,,,,0,,,39,53
53822,note_on,3,0,1,,,,,,,,,,,,,,,,0,,,46,51
53823,note_on,1,0,1,,,,,,,,,,,,,,,,0,,,51,50
53861,control_change,38,0,1,,,,,,,,,,,,,,,,0,64,0,,
53879,note_on,18,0,1,,,,,,,,,,,,,,,,0,,,69,63
53880,note_on,1,0,1,,,,,,,,,,,,,,,,0,,,66,42
53895,control_change,0,0,1,,,,,,,,,,,,,,,,0,64,127,,
53895,note_on,15,0,1,,,,,,,,,,,,,,,,0,,,39,0
53906,note_on,11,0,1,,,,,,,,,,,,,,,,0,,,46,0
53935,note_on,29,0,1,,,,,,,,,,,,,,,,0,,,75,36
53946,note_on,11,0,1,,,,,,,,,,,,,,,,0,,,51,0
53997,note_on,51,0,1,,,,,,,,,,,,,,,,0,,,78,58
53999,note_on,2,0,1,,,,,,,,,,,,,,,,0,,,68,24
54004,note_on,5,0,1,,,,,,,,,,,,,,,,0,,,75,39
54015,note_on,11,0,1,,,,,,,,,,,,,,,,0,,,69,0
54019,note_on,4,0,1,,,,,,,,,,,,,,,,0,,,66,0
54021,note_on,2,0,1,,,,,,,,,,,,,,,,0,,,75,0
54058,note_on,0,0,1,,,,,,,,,,,,,,,,0,,,75,45
54058,note_on,37,0,1,,,,,,,,,,,,,,,,0,,,78,0
54071,note_on,13,0,1,,,,,,,,,,,,,,,,0,,,68,0
54080,note_on,9,0,1,,,,,,,,,,,,,,,,0,,,75,0
54120,note_on,40,0,1,,,,,,,,,,,,,,,,0,,,69,46
54130,note_on,10,0,1,,,,,,,,,,,,,,,,0,,,75,0
54140,note_on,10,0,1,,,,,,,,,,,,,,,,0,,,69,0
54178,note_on,38,0,1,,,,,,,,,,,,,,,,0,,,34,53
54181,note_on,3,0,1,,,,,,,,,,,,,,,,0,,,46,41
54184,note_on,3,0,1,,,,,,,,,,,,,,,,0,,,41,49
54204,control_change,20,0,1,,,,,,,,,,,,,,,,0,64,0,,
54239,note_on,35,0,1,,,,,,,,,,,,,,,,0,,,70,52
54239,note_on,0,0,1,,,,,,,,,,,,,,,,0,,,65,43
54244,control_change,5,0,1,,,,,,,,,,,,,,,,0,64,127,,
54297,note_on,53,0,1,,,,,,,,,,,,,,,,0,,,74,43
54316,note_on,19,0,1,,,,,,,,,,,,,,,,0,,,34,0
54329,note_on,13,0,1,,,,,,,,,,,,,,,,0,,,46,0
54350,note_on,21,0,1,,,,,,,,,,,,,,,,0,,,77,51
54402,note_on,52,0,1,,,,,,,,,,,,,,,,0,,,41,0
54411,note_on,0,0,1,,,,,,,,,,,,,,,,0,,,74,39
54411,note_on,9,0,1,,,,,,,,,,,,,,,,0,,,70,0
54418,note_on,7,0,1,,,,,,,,,,,,,,,,0,,,65,0
54425,note_on,7,0,1,,,,,,,,,,,,,,,,0,,,74,0
54464,note_on,39,0,1,,,,,,,,,,,,,,,,0,,,70,49
54466,note_on,2,0,1,,,,,,,,,,,,,,,,0,,,77,0
54472,note_on,6,0,1,,,,,,,,,,,,,,,,0,,,74,0
54481,note_on,9,0,1,,,,,,,,,,,,,,,,0,,,70,0
54517,note_on,36,0,1,,,,,,,,,,,,,,,,0,,,34,47
54519,note_on,2,0,1,,,,,,,,,,,,,,,,0,,,46,36
54521,note_on,2,0,1,,,,,,,,,,,,,,,,0,,,41,44
54579,note_on,58,0,1,,,,,,,,,,,,,,,,0,,,65,45
54599,note_on,20,0,1,,,,,,,,,,,,,,,,0,,,34,0
54634,note_on,35,0,1,,,,,,,,,,,,,,,,0,,,70,62
54660,note_on,26,0,1,,,,,,,,,,,,,,,,0,,,46,0
54692,note_on,32,0,1,,,,,,,,,,,,,,,,0,,,70,50
54694,note_on,2,0,1,,,,,,,,,,,,,,,,0,,,74,54
54727,note_on,33,0,1,,,,,,,,,,,,,,,,0,,,41,0
54729,note_on,2,0,1,,,,,,,,,,,,,,,,0,,,65,0
54762,note_on,33,0,1,,,,,,,,,,,,,,,,0,,,70,28
54796,note_on,34,0,1,,,,,,,,,,,,,,,,0,,,70,0
54797,note_on,1,0,1,,,,,,,,,,,,,,,,0,,,70,0
54799,note_on,2,0,1,,,,,,,,,,,,,,,,0,,,74,0
54825,note_on,26,0,1,,,,,,,,,,,,,,,,0,,,65,56
54830,note_on,5,0,1,,,,,,,,,,,,,,,,0,,,70,0
54831,note_on,1,0,1,,,,,,,,,,,,,,,,0,,,65,0
54880,note_on,49,0,1,,,,,,,,,,,,,,,,0,,,34,63
54882,note_on,2,0,1,,,,,,,,,,,,,,,,0,,,46,57
54884,note_on,2,0,1,,,,,,,,,,,,,,,,0,,,41,60
54906,control_change,22,0,1,,,,,,,,,,,,,,,,0,64,0,,
54941,note_on,35,0,1,,,,,,,,,,,,,,,,0,,,58,61
54942,control_change,1,0,1,,,,,,,,,,,,,,,,0,64,127,,
54943,note_on,1,0,1,,,,,,,,,,,,,,,,0,,,62,62
54966,note_on,23,0,1,,,,,,,,,,,,,,,,0,,,34,0
54980,note_on,14,0,1,,,,,,,,,,,,,,,,0,,,46,0
54995,note_on,15,0,1,,,,,,,,,,,,,,,,0,,,65,55
55001,note_on,6,0,1,,,,,,,,,,,,,,,,0,,,41,0
55051,note_on,50,0,1,,,,,,,,,,,,,,,,0,,,65,66
55055,note_on,4,0,1,,,,,,,,,,,,,,,,0,,,70,57
55075,note_on,20,0,1,,,,,,,,,,,,,,,,0,,,58,0
55115,note_on,40,0,1,,,,,,,,,,,,,,,,0,,,65,57
55174,note_on,59,0,1,,,,,,,,,,,,,,,,0,,,62,32
55176,note_on,2,0,1,,,,,,,,,,,,,,,,0,,,62,0
55182,note_on,6,0,1,,,,,,,,,,,,,,,,0,,,65,0
55183,note_on,1,0,1,,,,,,,,,,,,,,,,0,,,65,0
55193,note_on,10,0,1,,,,,,,,,,,,,,,,0,,,70,0
55231,note_on,38,0,1,,,,,,,,,,,,,,,,0,,,46,48
55288,note_on,57,0,1,,,,,,,,,,,,,,,,0,,,58,66
55292,note_on,4,0,1,,,,,,,,,,,,,,,,0,,,53,40
55346,note_on,54,0,1,,,,,,,,,,,,,,,,0,,,62,54
55399,note_on,53,0,1,,,,,,,,,,,,,,,,0,,,65,0
55403,note_on,4,0,1,,,,,,,,,,,,,,,,0,,,65,59
55447,note_on,44,0,1,,,,,,,,,,,,,,,,0,,,62,0
55452,note_on,5,0,1,,,,,,,,,,,,,,,,0,,,46,0
55456,note_on,4,0,1,,,,,,,,,,,,,,,,0,,,58,0
55462,note_on,6,0,1,,,,,,,,,,,,,,,,0,,,62,53
55469,note_on,7,0,1,,,,,,,,,,,,,,,,0,,,53,0
55517,note_on,48,0,1,,,,,,,,,,,,,,,,0,,,58,53
55527,note_on,10,0,1,,,,,,,,,,,,,,,,0,,,62,0
55527,note_on,0,0,1,,,,,,,,,,,,,,,,0,,,65,0
55533,note_on,6,0,1,,,,,,,,,,,,,,,,0,,,62,0
55540,note_on,7,0,1,,,,,,,,,,,,,,,,0,,,58,0
55570,note_on,30,0,1,,,,,,,,,,,,,,,,0,,,34,70
55576,note_on,6,0,1,,,,,,,,,,,,,,,,0,,,46,39
55580,note_on,4,0,1,,,,,,,,,,,,,,,,0,,,41,50
55610,control_change,30,0,1,,,,,,,,,,,,,,,,0,64,0,,
55633,note_on,23,0,1,,,,,,,,,,,,,,,,0,,,50,67
55646,control_change,13,0,1,,,,,,,,,,,,,,,,0,64,127,,
55674,note_on,28,0,1,,,,,,,,,,,,,,,,0,,,34,0
55689,note_on,15,0,1,,,,,,,,,,,,,,,,0,,,58,76
55699,note_on,10,0,1,,,,,,,,,,,,,,,,0,,,46,0
55748,note_on,49,0,1,,,,,,,,,,,,,,,,0,,,62,63
55749,note_on,1,0,1,,,,,,,,,,,,,,,,0,,,58,76
55766,note_on,17,0,1,,,,,,,,,,,,,,,,0,,,41,0
55799,end_of_track,0,1,2,,,,,,,,,,,,,,,,,,,,
55799,note_on,3638,0,2,,,,,,,,,,,,,,,,0,,,70,0
55809,note_on,43,0,1,,,,,,,,,,,,,,,,0,,,58,68
55810,note_on,1,0,1,,,,,,,,,,,,,,,,0,,,50,0
55814,note_on,4,0,1,,,,,,,,,,,,,,,,0,,,53,45
55821,note_on,7,0,1,,,,,,,,,,,,,,,,0,,,62,0
55821,note_on,0,0,1,,,,,,,,,,,,,,,,0,,,58,0
55875,note_on,54,0,1,,,,,,,,,,,,,,,,0,,,50,62
55877,note_on,2,0,1,,,,,,,,,,,,,,,,0,,,53,63
55883,note_on,6,0,1,,,,,,,,,,,,,,,,0,,,58,0
55884,note_on,1,0,1,,,,,,,,,,,,,,,,0,,,58,0
55898,note_on,14,0,1,,,,,,,,,,,,,,,,0,,,53,0
55904,note_on,6,0,1,,,,,,,,,,,,,,,,0,,,50,0
55904,note_on,0,0,1,,,,,,,,,,,,,,,,0,,,53,0
55943,note_on,0,0,1,,,,,,,,,,,,,,,,0,,,46,70
55943,note_on,39,0,1,,,,,,,,,,,,,,,,0,,,34,70
55965,control_change,22,0,1,,,,,,,,,,,,,,,,0,64,0,,
55987,control_change,22,0,1,,,,,,,,,,,,,,,,0,64,127,,
56011,note_on,24,0,1,,,,,,,,,,,,,,,,0,,,50,59
56014,note_on,3,0,1,,,,,,,,,,,,,,,,0,,,53,62
56022,note_on,8,0,1,,,,,,,,,,,,,,,,0,,,34,0
56027,note_on,5,0,1,,,,,,,,,,,,,,,,0,,,46,0
56077,note_on,50,0,1,,,,,,,,,,,,,,,,0,,,58,74
56085,note_on,8,0,1,,,,,,,,,,,,,,,,0,,,50,0
56149,note_on,64,0,1,,,,,,,,,,,,,,,,0,,,58,71
56149,note_on,0,0,1,,,,,,,,,,,,,,,,0,,,62,60
56155,note_on,0,0,1,,,,,,,,,,,,,,,,0,,,53,0
56155,note_on,6,0,1,,,,,,,,,,,,,,,,0,,,58,0
56223,note_on,68,0,1,,,,,,,,,,,,,,,,0,,,53,52
56225,note_on,2,0,1,,,,,,,,,,,,,,,,0,,,58,53
56237,note_on,12,0,1,,,,,,,,,,,,,,,,0,,,58,0
56239,note_on,2,0,1,,,,,,,,,,,,,,,,0,,,62,0
56248,note_on,9,0,1,,,,,,,,,,,,,,,,0,,,53,0
56333,note_on,85,0,1,,,,,,,,,,,,,,,,0,,,53,48
56339,note_on,6,0,1,,,,,,,,,,,,,,,,0,,,58,0
56343,note_on,4,0,1,,,,,,,,,,,,,,,,0,,,53,0
56542,note_on,199,0,1,,,,,,,,,,,,,,,,0,,,22,57
56543,note_on,1,0,1,,,,,,,,,,,,,,,,0,,,34,50
56545,note_on,2,0,1,,,,,,,,,,,,,,,,0,,,58,60
56545,note_on,0,0,1,,,,,,,,,,,,,,,,0,,,65,45
56546,note_on,1,0,1,,,,,,,,,,,,,,,,0,,,53,40
56546,note_on,0,0,1,,,,,,,,,,,,,,,,0,,,62,61
56558,control_change,12,0,1,,,,,,,,,,,,,,,,0,64,0,,
56989,control_change,431,0,1,,,,,,,,,,,,,,,,0,64,127,,
57272,note_on,283,0,1,,,,,,,,,,,,,,,,0,,,22,0
57275,note_on,3,0,1,,,,,,,,,,,,,,,,0,,,34,0
57297,note_on,22,0,1,,,,,,,,,,,,,,,,0,,,58,0
57302,note_on,5,0,1,,,,,,,,,,,,,,,,0,,,65,0
57302,note_on,0,0,1,,,,,,,,,,,,,,,,0,,,53,0
57373,note_on,71,0,1,,,,,,,,,,,,,,,,0,,,62,0
57882,control_change,509,0,1,,,,,,,,,,,,,,,,0,64,0,,
57882,end_of_track,0,1,1,,,,,,,,,,,,,,,,,,,,
