tick,type,time,meta,track,numerator,denominator,clocks_per_click,notated_32nd_notes_per_beat,key,tempo,control,value,channel,program,note,velocity
0,track_name,0,1,0,,,,,,,,,,,,
0,control_change,0,0,1,,,,,,,7,127,0,,,
0,control_change,0,0,1,,,,,,,0,0,0,,,
0,control_change,0,0,1,,,,,,,32,0,0,,,
0,track_name,0,1,1,,,,,,,,,,,,
0,program_change,0,0,1,,,,,,,,,0,40,,
0,note_on,0,0,1,,,,,,,,,0,,81,117
0,control_change,0,0,3,,,,,,,7,117,2,,,
0,control_change,0,0,3,,,,,,,10,84,2,,,
0,control_change,0,0,1,,,,,,,10,16,0,,,
0,control_change,0,0,3,,,,,,,91,76,2,,,
0,track_name,0,1,4,,,,,,,,,,,,
0,note_on,0,0,2,,,,,,,,,1,,69,115
0,program_change,0,0,2,,,,,,,,,1,40,,
0,control_change,0,0,2,,,,,,,32,0,1,,,
0,control_change,0,0,2,,,,,,,0,0,1,,,
0,track_name,0,1,2,,,,,,,,,,,,
0,control_change,0,0,2,,,,,,,7,118,1,,,
0,control_change,0,0,2,,,,,,,10,44,1,,,
0,control_change,0,0,3,,,,,,,121,0,2,,,
0,control_change,0,0,2,,,,,,,91,60,1,,,
0,control_change,0,0,1,,,,,,,91,60,0,,,
0,track_name,0,1,3,,,,,,,,,,,,
0,text,0,1,0,,,,,,,,,,,,
0,copyright,0,1,0,,,,,,,,,,,,
0,time_signature,0,1,0,4,4,24,8,,,,,,,,
0,key_signature,0,1,0,,,,,F,,,,,,,
0,time_signature,0,1,0,3,4,24,8,,,,,,,,
0,set_tempo,0,1,0,,,,,,214285,,,,,,
0,control_change,0,0,4,,,,,,,7,115,3,,,
0,control_change,0,0,4,,,,,,,10,108,3,,,
0,control_change,0,0,1,,,,,,,121,0,0,,,
0,control_change,0,0,4,,,,,,,91,76,3,,,
0,control_change,0,0,4,,,,,,,121,0,3,,,
0,control_change,0,0,2,,,,,,,121,0,1,,,
256,control_change,0,0,4,,,,,,,0,0,3,,,
256,control_change,0,0,4,,,,,,,32,0,3,,,
256,time_signature,256,1,2,3,4,24,8,,,,,,,,
256,program_change,0,0,4,,,,,,,,,3,42,,
256,note_on,0,0,4,,,,,,,,,3,,50,113
256,note_on,0,0,3,,,,,,,,,2,,53,112
256,program_change,0,0,3,,,,,,,,,2,41,,
256,control_change,0,0,3,,,,,,,32,0,2,,,
256,control_change,0,0,3,,,,,,,0,0,2,,,
256,time_signature,256,1,3,3,4,24,8,,,,,,,,
256,time_signature,256,1,4,3,4,24,8,,,,,,,,
256,time_signature,256,1,1,3,4,24,8,,,,,,,,
487,note_on,231,0,2,,,,,,,,,1,,69,0
487,note_on,231,0,1,,,,,,,,,0,,81,0
512,note_on,25,0,2,,,,,,,,,1,,65,90
512,note_on,25,0,1,,,,,,,,,0,,77,86
627,note_on,115,0,2,,,,,,,,,1,,65,0
627,note_on,115,0,1,,,,,,,,,0,,77,0
768,note_on,141,0,2,,,,,,,,,1,,67,104
768,note_on,141,0,1,,,,,,,,,0,,79,100
883,note_on,115,0,2,,,,,,,,,1,,67,0
883,note_on,115,0,1,,,,,,,,,0,,79,0
948,note_on,692,0,3,,,,,,,,,2,,53,0
948,note_on,692,0,4,,,,,,,,,3,,50,0
1024,note_on,141,0,2,,,,,,,,,1,,69,102
1024,note_on,141,0,1,,,,,,,,,0,,81,103
1024,note_on,76,0,4,,,,,,,,,3,,49,121
1024,note_on,76,0,3,,,,,,,,,2,,52,119
1370,note_on,346,0,1,,,,,,,,,0,,81,0
1370,note_on,346,0,2,,,,,,,,,1,,69,0
1408,note_on,38,0,1,,,,,,,,,0,,81,94
1408,note_on,38,0,2,,,,,,,,,1,,69,101
1524,note_on,116,0,1,,,,,,,,,0,,81,0
1524,note_on,116,0,2,,,,,,,,,1,,69,0
1536,note_on,12,0,1,,,,,,,,,0,,81,122
1536,note_on,12,0,2,,,,,,,,,1,,69,121
1716,note_on,692,0,4,,,,,,,,,3,,49,0
1716,note_on,692,0,3,,,,,,,,,2,,52,0
1792,note_on,76,0,3,,,,,,,,,2,,50,118
1792,note_on,76,0,4,,,,,,,,,3,,46,118
2023,note_on,487,0,1,,,,,,,,,0,,81,0
2023,note_on,487,0,2,,,,,,,,,1,,69,0
2048,note_on,25,0,1,,,,,,,,,0,,65,69
2048,note_on,25,0,2,,,,,,,,,1,,65,87
2163,note_on,115,0,2,,,,,,,,,1,,65,0
2163,note_on,115,0,1,,,,,,,,,0,,65,0
2304,note_on,141,0,1,,,,,,,,,0,,67,98
2304,note_on,141,0,2,,,,,,,,,1,,55,80
2419,note_on,115,0,2,,,,,,,,,1,,55,0
2419,note_on,115,0,1,,,,,,,,,0,,67,0
2484,note_on,692,0,3,,,,,,,,,2,,50,0
2484,note_on,692,0,4,,,,,,,,,3,,46,0
2560,note_on,76,0,4,,,,,,,,,3,,45,114
2560,note_on,141,0,2,,,,,,,,,1,,57,100
2560,note_on,141,0,1,,,,,,,,,0,,69,103
2560,note_on,76,0,3,,,,,,,,,2,,49,119
3021,note_on,461,0,2,,,,,,,,,1,,57,0
3021,note_on,461,0,4,,,,,,,,,3,,45,0
3021,note_on,461,0,1,,,,,,,,,0,,69,0
3021,note_on,461,0,3,,,,,,,,,2,,49,0
3072,note_on,51,0,1,,,,,,,,,0,,86,127
3072,note_on,51,0,2,,,,,,,,,1,,74,127
3328,note_on,307,0,3,,,,,,,,,2,,55,113
3328,note_on,0,0,3,,,,,,,,,2,,62,113
3328,note_on,0,0,4,,,,,,,,,3,,58,112
3328,note_on,307,0,4,,,,,,,,,3,,50,112
3559,note_on,487,0,2,,,,,,,,,1,,74,0
3559,note_on,487,0,1,,,,,,,,,0,,86,0
3584,note_on,25,0,2,,,,,,,,,1,,70,85
3584,note_on,25,0,1,,,,,,,,,0,,82,88
3699,note_on,115,0,2,,,,,,,,,1,,70,0
3699,note_on,115,0,1,,,,,,,,,0,,82,0
3840,note_on,141,0,1,,,,,,,,,0,,84,104
3840,note_on,141,0,2,,,,,,,,,1,,72,102
3955,note_on,115,0,2,,,,,,,,,1,,72,0
3955,note_on,115,0,1,,,,,,,,,0,,84,0
4020,note_on,0,0,3,,,,,,,,,2,,62,0
4020,note_on,692,0,3,,,,,,,,,2,,55,0
4020,note_on,692,0,4,,,,,,,,,3,,50,0
4020,note_on,0,0,4,,,,,,,,,3,,58,0
4096,note_on,141,0,1,,,,,,,,,0,,86,105
4096,note_on,141,0,2,,,,,,,,,1,,74,97
4096,note_on,0,0,3,,,,,,,,,2,,62,120
4096,note_on,0,0,4,,,,,,,,,3,,57,97
4096,note_on,76,0,4,,,,,,,,,3,,50,97
4096,note_on,76,0,3,,,,,,,,,2,,53,120
4442,note_on,0,0,4,,,,,,,,,3,,57,0
4442,note_on,346,0,2,,,,,,,,,1,,74,0
4442,note_on,346,0,4,,,,,,,,,3,,50,0
4442,note_on,346,0,1,,,,,,,,,0,,86,0
4442,note_on,0,0,3,,,,,,,,,2,,62,0
4442,note_on,346,0,3,,,,,,,,,2,,53,0
4480,note_on,38,0,1,,,,,,,,,0,,88,102
4480,note_on,38,0,4,,,,,,,,,3,,49,106
4480,note_on,38,0,2,,,,,,,,,1,,76,106
4480,note_on,38,0,3,,,,,,,,,2,,57,102
4537,note_on,57,0,4,,,,,,,,,3,,49,0
4537,note_on,57,0,1,,,,,,,,,0,,88,0
4537,note_on,57,0,2,,,,,,,,,1,,76,0
4537,note_on,57,0,3,,,,,,,,,2,,57,0
4608,note_on,71,0,3,,,,,,,,,2,,57,105
4608,note_on,71,0,1,,,,,,,,,0,,89,105
4608,note_on,71,0,4,,,,,,,,,3,,50,109
4608,note_on,71,0,2,,,,,,,,,1,,77,109
4723,note_on,115,0,2,,,,,,,,,1,,77,0
4723,note_on,115,0,3,,,,,,,,,2,,57,0
4723,note_on,115,0,4,,,,,,,,,3,,50,0
4723,note_on,115,0,1,,,,,,,,,0,,89,0
4864,note_on,141,0,2,,,,,,,,,1,,78,115
4864,note_on,141,0,3,,,,,,,,,2,,50,110
4864,note_on,141,0,1,,,,,,,,,0,,90,111
4864,note_on,141,0,4,,,,,,,,,3,,48,115
4979,note_on,115,0,1,,,,,,,,,0,,90,0
4979,note_on,115,0,4,,,,,,,,,3,,48,0
4979,note_on,115,0,2,,,,,,,,,1,,78,0
4979,note_on,115,0,3,,,,,,,,,2,,50,0
5120,note_on,141,0,4,,,,,,,,,3,,47,120
5120,note_on,141,0,2,,,,,,,,,1,,79,120
5120,note_on,141,0,1,,,,,,,,,0,,91,117
5120,note_on,141,0,3,,,,,,,,,2,,50,116
5235,note_on,115,0,4,,,,,,,,,3,,47,0
5235,note_on,115,0,2,,,,,,,,,1,,79,0
5235,note_on,115,0,1,,,,,,,,,0,,91,0
5235,note_on,115,0,3,,,,,,,,,2,,50,0
5376,note_on,141,0,4,,,,,,,,,3,,46,123
5376,note_on,141,0,2,,,,,,,,,1,,80,126
5376,note_on,141,0,1,,,,,,,,,0,,92,123
5376,note_on,141,0,3,,,,,,,,,2,,50,122
5491,note_on,115,0,4,,,,,,,,,3,,46,0
5491,note_on,115,0,2,,,,,,,,,1,,80,0
5491,note_on,115,0,3,,,,,,,,,2,,50,0
5491,note_on,115,0,1,,,,,,,,,0,,92,0
5632,note_on,141,0,4,,,,,,,,,3,,45,120
5632,note_on,141,0,1,,,,,,,,,0,,93,126
5632,note_on,141,0,3,,,,,,,,,2,,49,117
5632,note_on,141,0,2,,,,,,,,,1,,81,125
6093,note_on,461,0,1,,,,,,,,,0,,93,0
6093,note_on,461,0,4,,,,,,,,,3,,45,0
6093,note_on,461,0,2,,,,,,,,,1,,81,0
6093,note_on,461,0,3,,,,,,,,,2,,49,0
6144,note_on,51,0,2,,,,,,,,,1,,69,77
6400,note_on,307,0,1,,,,,,,,,0,,74,67
6400,note_on,307,0,3,,,,,,,,,2,,62,64
6400,note_on,307,0,4,,,,,,,,,3,,58,54
6631,note_on,487,0,2,,,,,,,,,1,,69,0
6656,note_on,25,0,2,,,,,,,,,1,,65,62
6771,note_on,115,0,2,,,,,,,,,1,,65,0
6912,note_on,141,0,2,,,,,,,,,1,,67,71
7027,note_on,115,0,2,,,,,,,,,1,,67,0
7168,note_on,768,0,4,,,,,,,,,3,,58,0
7168,note_on,768,0,3,,,,,,,,,2,,62,0
7168,note_on,0,0,4,,,,,,,,,3,,57,56
7168,note_on,141,0,2,,,,,,,,,1,,69,81
7168,note_on,0,0,3,,,,,,,,,2,,64,74
7514,note_on,346,0,2,,,,,,,,,1,,69,0
7552,note_on,38,0,2,,,,,,,,,1,,69,72
7668,note_on,116,0,2,,,,,,,,,1,,69,0
7680,note_on,1280,0,1,,,,,,,,,0,,73,69
7680,note_on,12,0,2,,,,,,,,,1,,69,93
7705,note_on,25,0,1,,,,,,,,,0,,74,0
7782,note_on,77,0,1,,,,,,,,,0,,73,0
7817,note_on,649,0,3,,,,,,,,,2,,64,0
7817,note_on,649,0,4,,,,,,,,,3,,57,0
7936,note_on,119,0,3,,,,,,,,,2,,63,67
7936,note_on,119,0,4,,,,,,,,,3,,50,53
7936,note_on,154,0,1,,,,,,,,,0,,72,60
8167,note_on,487,0,2,,,,,,,,,1,,69,0
8192,note_on,25,0,2,,,,,,,,,1,,66,68
8307,note_on,115,0,2,,,,,,,,,1,,66,0
8448,note_on,141,0,2,,,,,,,,,1,,67,75
8563,note_on,115,0,2,,,,,,,,,1,,67,0
8628,note_on,692,0,4,,,,,,,,,3,,50,0
8704,note_on,76,0,4,,,,,,,,,3,,55,62
8704,note_on,141,0,2,,,,,,,,,1,,69,74
8704,note_on,0,0,3,,,,,,,,,2,,62,66
8704,note_on,768,0,3,,,,,,,,,2,,63,0
9050,note_on,346,0,4,,,,,,,,,3,,55,0
9088,note_on,38,0,4,,,,,,,,,3,,55,61
9204,note_on,116,0,4,,,,,,,,,3,,55,0
9216,note_on,12,0,4,,,,,,,,,3,,55,59
9216,note_on,512,0,2,,,,,,,,,1,,67,66
9216,note_on,1280,0,1,,,,,,,,,0,,70,65
9241,note_on,25,0,2,,,,,,,,,1,,69,0
9241,note_on,25,0,1,,,,,,,,,0,,72,0
9318,note_on,77,0,2,,,,,,,,,1,,67,0
9318,note_on,77,0,1,,,,,,,,,0,,70,0
9353,note_on,649,0,3,,,,,,,,,2,,62,0
9447,note_on,231,0,4,,,,,,,,,3,,55,0
9472,note_on,25,0,4,,,,,,,,,3,,49,56
9472,note_on,154,0,1,,,,,,,,,0,,76,64
9472,note_on,119,0,3,,,,,,,,,2,,55,64
9553,note_on,81,0,1,,,,,,,,,0,,76,0
9553,note_on,0,0,1,,,,,,,,,0,,82,101
9587,note_on,115,0,3,,,,,,,,,2,,55,0
9618,note_on,65,0,1,,,,,,,,,0,,82,0
9728,note_on,110,0,1,,,,,,,,,0,,81,72
9728,note_on,141,0,3,,,,,,,,,2,,52,64
9843,note_on,115,0,1,,,,,,,,,0,,81,0
9843,note_on,115,0,3,,,,,,,,,2,,52,0
9984,note_on,141,0,1,,,,,,,,,0,,79,67
9984,note_on,141,0,3,,,,,,,,,2,,57,96
10099,note_on,115,0,1,,,,,,,,,0,,79,0
10164,note_on,692,0,4,,,,,,,,,3,,49,0
10240,note_on,141,0,1,,,,,,,,,0,,79,68
10240,note_on,76,0,4,,,,,,,,,3,,50,64
10313,note_on,73,0,1,,,,,,,,,0,,79,0
10313,note_on,0,0,1,,,,,,,,,0,,77,91
10355,note_on,115,0,4,,,,,,,,,3,,50,0
10381,note_on,68,0,1,,,,,,,,,0,,77,0
10496,note_on,141,0,4,,,,,,,,,3,,52,62
10496,note_on,115,0,1,,,,,,,,,0,,76,60
10586,note_on,602,0,3,,,,,,,,,2,,57,0
10611,note_on,115,0,4,,,,,,,,,3,,52,0
10611,note_on,115,0,1,,,,,,,,,0,,76,0
10624,note_on,38,0,3,,,,,,,,,2,,57,69
10740,note_on,116,0,3,,,,,,,,,2,,57,0
10752,note_on,12,0,3,,,,,,,,,2,,57,70
10752,note_on,141,0,4,,,,,,,,,3,,53,59
10752,note_on,141,0,1,,,,,,,,,0,,74,65
10867,note_on,115,0,1,,,,,,,,,0,,74,0
10867,note_on,115,0,4,,,,,,,,,3,,53,0
10983,note_on,231,0,3,,,,,,,,,2,,57,0
11008,note_on,1690,0,2,,,,,,,,,1,,62,61
11008,note_on,141,0,4,,,,,,,,,3,,56,66
11008,note_on,141,0,1,,,,,,,,,0,,71,68
11076,note_on,0,0,1,,,,,,,,,0,,77,105
11076,note_on,68,0,1,,,,,,,,,0,,71,0
11123,note_on,115,0,2,,,,,,,,,1,,62,0
11148,note_on,72,0,1,,,,,,,,,0,,77,0
11264,note_on,116,0,1,,,,,,,,,0,,76,65
11264,note_on,141,0,2,,,,,,,,,1,,59,67
11379,note_on,115,0,1,,,,,,,,,0,,76,0
11379,note_on,115,0,2,,,,,,,,,1,,59,0
11520,note_on,141,0,2,,,,,,,,,1,,64,77
11520,note_on,141,0,1,,,,,,,,,0,,74,63
11635,note_on,115,0,1,,,,,,,,,0,,74,0
11700,note_on,692,0,4,,,,,,,,,3,,56,0
11776,note_on,141,0,1,,,,,,,,,0,,74,71
11776,note_on,76,0,4,,,,,,,,,3,,57,62
11844,note_on,68,0,1,,,,,,,,,0,,74,0
11844,note_on,0,0,1,,,,,,,,,0,,72,92
11891,note_on,115,0,4,,,,,,,,,3,,57,0
11916,note_on,72,0,1,,,,,,,,,0,,72,0
12032,note_on,141,0,4,,,,,,,,,3,,59,62
12032,note_on,116,0,1,,,,,,,,,0,,71,65
12122,note_on,602,0,2,,,,,,,,,1,,64,0
12147,note_on,115,0,1,,,,,,,,,0,,71,0
12147,note_on,115,0,4,,,,,,,,,3,,59,0
12160,note_on,38,0,2,,,,,,,,,1,,64,72
12276,note_on,116,0,2,,,,,,,,,1,,64,0
12288,note_on,141,0,1,,,,,,,,,0,,69,62
12288,note_on,12,0,2,,,,,,,,,1,,64,68
12288,note_on,141,0,4,,,,,,,,,3,,60,60
12403,note_on,115,0,1,,,,,,,,,0,,69,0
12403,note_on,115,0,4,,,,,,,,,3,,60,0
12519,note_on,231,0,2,,,,,,,,,1,,64,0
12544,note_on,1561,0,3,,,,,,,,,2,,57,87
12544,note_on,141,0,1,,,,,,,,,0,,69,101
12544,note_on,25,0,2,,,,,,,,,1,,69,114
12544,note_on,141,0,4,,,,,,,,,3,,57,94
12604,note_on,60,0,2,,,,,,,,,1,,69,0
12604,note_on,0,0,2,,,,,,,,,1,,74,127
12608,note_on,0,0,1,,,,,,,,,0,,74,127
12608,note_on,64,0,1,,,,,,,,,0,,69,0
12612,note_on,68,0,4,,,,,,,,,3,,57,0
12612,note_on,0,0,4,,,,,,,,,3,,62,127
12612,note_on,0,0,3,,,,,,,,,2,,62,127
12612,note_on,68,0,3,,,,,,,,,2,,57,0
12679,note_on,75,0,2,,,,,,,,,1,,74,0
12681,note_on,73,0,1,,,,,,,,,0,,74,0
12684,note_on,72,0,3,,,,,,,,,2,,62,0
12684,note_on,72,0,4,,,,,,,,,3,,62,0
12800,note_on,119,0,1,,,,,,,,,0,,72,93
12800,note_on,116,0,4,,,,,,,,,3,,60,93
12800,note_on,121,0,2,,,,,,,,,1,,72,94
12800,note_on,116,0,3,,,,,,,,,2,,60,89
12915,note_on,115,0,2,,,,,,,,,1,,72,0
12915,note_on,115,0,1,,,,,,,,,0,,72,0
12915,note_on,115,0,3,,,,,,,,,2,,60,0
12915,note_on,115,0,4,,,,,,,,,3,,60,0
13056,note_on,141,0,2,,,,,,,,,1,,71,92
13056,note_on,141,0,4,,,,,,,,,3,,59,98
13056,note_on,141,0,3,,,,,,,,,2,,59,91
13056,note_on,141,0,1,,,,,,,,,0,,71,91
13171,note_on,115,0,1,,,,,,,,,0,,71,0
13171,note_on,115,0,2,,,,,,,,,1,,71,0
13171,note_on,115,0,3,,,,,,,,,2,,59,0
13171,note_on,115,0,4,,,,,,,,,3,,59,0
13312,note_on,141,0,4,,,,,,,,,3,,59,98
13312,note_on,141,0,1,,,,,,,,,0,,71,95
13312,note_on,141,0,2,,,,,,,,,1,,71,95
13312,note_on,141,0,3,,,,,,,,,2,,59,101
13367,note_on,55,0,1,,,,,,,,,0,,71,0
13367,note_on,0,0,1,,,,,,,,,0,,69,117
13367,note_on,55,0,2,,,,,,,,,1,,71,0
13367,note_on,0,0,2,,,,,,,,,1,,69,120
13367,note_on,55,0,3,,,,,,,,,2,,59,0
13367,note_on,0,0,3,,,,,,,,,2,,57,121
13372,note_on,60,0,4,,,,,,,,,3,,59,0
13372,note_on,0,0,4,,,,,,,,,3,,57,119
13443,note_on,76,0,2,,,,,,,,,1,,69,0
13443,note_on,76,0,1,,,,,,,,,0,,69,0
13443,note_on,76,0,3,,,,,,,,,2,,57,0
13447,note_on,75,0,4,,,,,,,,,3,,57,0
13568,note_on,121,0,4,,,,,,,,,3,,55,96
13568,note_on,125,0,1,,,,,,,,,0,,67,92
13568,note_on,125,0,2,,,,,,,,,1,,67,90
13568,note_on,125,0,3,,,,,,,,,2,,55,92
13683,note_on,115,0,2,,,,,,,,,1,,67,0
13683,note_on,115,0,1,,,,,,,,,0,,67,0
13683,note_on,115,0,4,,,,,,,,,3,,55,0
13683,note_on,115,0,3,,,,,,,,,2,,55,0
13824,note_on,141,0,3,,,,,,,,,2,,53,96
13824,note_on,141,0,2,,,,,,,,,1,,65,93
13824,note_on,141,0,1,,,,,,,,,0,,65,89
13824,note_on,141,0,4,,,,,,,,,3,,53,94
13939,note_on,115,0,2,,,,,,,,,1,,65,0
13939,note_on,115,0,4,,,,,,,,,3,,53,0
13939,note_on,115,0,1,,,,,,,,,0,,65,0
13939,note_on,115,0,3,,,,,,,,,2,,53,0
14080,note_on,0,0,2,,,,,,,,,1,,69,127
14080,note_on,141,0,2,,,,,,,,,1,,60,127
14080,note_on,141,0,3,,,,,,,,,2,,52,117
14080,note_on,0,0,1,,,,,,,,,0,,72,127
14080,note_on,141,0,1,,,,,,,,,0,,64,127
14080,note_on,141,0,4,,,,,,,,,3,,52,122
14772,note_on,692,0,2,,,,,,,,,1,,60,0
14772,note_on,692,0,3,,,,,,,,,2,,52,0
14772,note_on,0,0,2,,,,,,,,,1,,69,0
14772,note_on,692,0,4,,,,,,,,,3,,52,0
14772,note_on,0,0,1,,,,,,,,,0,,72,0
14772,note_on,692,0,1,,,,,,,,,0,,64,0
14848,note_on,0,0,2,,,,,,,,,1,,68,121
14848,note_on,76,0,3,,,,,,,,,2,,52,124
14848,note_on,76,0,4,,,,,,,,,3,,52,122
14848,note_on,76,0,2,,,,,,,,,1,,59,121
14848,note_on,0,0,1,,,,,,,,,0,,71,117
14848,note_on,76,0,1,,,,,,,,,0,,64,117
15540,note_on,692,0,4,,,,,,,,,3,,52,0
15540,note_on,692,0,2,,,,,,,,,1,,59,0
15540,note_on,0,0,2,,,,,,,,,1,,68,0
15540,note_on,0,0,1,,,,,,,,,0,,71,0
15540,note_on,692,0,1,,,,,,,,,0,,64,0
15540,note_on,692,0,3,,,,,,,,,2,,52,0
15616,note_on,0,0,2,,,,,,,,,1,,69,98
15616,note_on,76,0,3,,,,,,,,,2,,64,122
15616,note_on,76,0,2,,,,,,,,,1,,60,98
15616,note_on,76,0,1,,,,,,,,,0,,60,95
15616,note_on,76,0,4,,,,,,,,,3,,45,92
15616,note_on,0,0,1,,,,,,,,,0,,69,95
15731,note_on,115,0,3,,,,,,,,,2,,64,0
15731,note_on,115,0,1,,,,,,,,,0,,60,0
15731,note_on,115,0,4,,,,,,,,,3,,45,0
15731,note_on,0,0,1,,,,,,,,,0,,69,0
15731,note_on,115,0,2,,,,,,,,,1,,60,0
15731,note_on,0,0,2,,,,,,,,,1,,69,0
15872,note_on,141,0,3,,,,,,,,,2,,60,93
15872,note_on,141,0,2,,,,,,,,,1,,64,79
15872,note_on,141,0,1,,,,,,,,,0,,64,85
15872,note_on,141,0,4,,,,,,,,,3,,48,102
15987,note_on,115,0,4,,,,,,,,,3,,48,0
15987,note_on,115,0,3,,,,,,,,,2,,60,0
15987,note_on,115,0,1,,,,,,,,,0,,64,0
15987,note_on,115,0,2,,,,,,,,,1,,64,0
16128,note_on,141,0,4,,,,,,,,,3,,52,100
16128,note_on,141,0,1,,,,,,,,,0,,68,108
16128,note_on,141,0,3,,,,,,,,,2,,59,91
16128,note_on,141,0,2,,,,,,,,,1,,62,87
16243,note_on,115,0,3,,,,,,,,,2,,59,0
16243,note_on,115,0,4,,,,,,,,,3,,52,0
16243,note_on,115,0,1,,,,,,,,,0,,68,0
16243,note_on,115,0,2,,,,,,,,,1,,62,0
16384,note_on,141,0,3,,,,,,,,,2,,57,95
16384,note_on,141,0,1,,,,,,,,,0,,69,102
16384,note_on,141,0,4,,,,,,,,,3,,45,89
16384,note_on,141,0,2,,,,,,,,,1,,60,88
16845,note_on,461,0,1,,,,,,,,,0,,69,0
16845,note_on,461,0,4,,,,,,,,,3,,45,0
16845,note_on,461,0,3,,,,,,,,,2,,57,0
16845,note_on,461,0,2,,,,,,,,,1,,60,0
16896,time_signature,51,1,1,3,4,24,8,,,,,,,,
16896,note_on,0,0,1,,,,,,,,,0,,81,127
16896,time_signature,51,1,4,3,4,24,8,,,,,,,,
16896,time_signature,51,1,3,3,4,24,8,,,,,,,,
16896,set_tempo,0,1,0,,,,,,214285,,,,,,
16896,time_signature,16896,1,0,3,4,24,8,,,,,,,,
16896,note_on,0,0,2,,,,,,,,,1,,69,127
16896,time_signature,51,1,2,3,4,24,8,,,,,,,,
17152,note_on,0,0,3,,,,,,,,,2,,53,111
17152,time_signature,256,1,1,3,4,24,8,,,,,,,,
17152,time_signature,256,1,3,3,4,24,8,,,,,,,,
17152,time_signature,256,1,2,3,4,24,8,,,,,,,,
17152,note_on,0,0,4,,,,,,,,,3,,50,111
17152,time_signature,256,1,4,3,4,24,8,,,,,,,,
17383,note_on,231,0,1,,,,,,,,,0,,81,0
17383,note_on,231,0,2,,,,,,,,,1,,69,0
17408,note_on,25,0,1,,,,,,,,,0,,77,89
17408,note_on,25,0,2,,,,,,,,,1,,65,85
17523,note_on,115,0,1,,,,,,,,,0,,77,0
17523,note_on,115,0,2,,,,,,,,,1,,65,0
17664,note_on,141,0,2,,,,,,,,,1,,67,102
17664,note_on,141,0,1,,,,,,,,,0,,79,102
17779,note_on,115,0,2,,,,,,,,,1,,67,0
17779,note_on,115,0,1,,,,,,,,,0,,79,0
17844,note_on,692,0,4,,,,,,,,,3,,50,0
17844,note_on,692,0,3,,,,,,,,,2,,53,0
17920,note_on,76,0,3,,,,,,,,,2,,52,117
17920,note_on,141,0,2,,,,,,,,,1,,69,104
17920,note_on,141,0,1,,,,,,,,,0,,81,105
17920,note_on,76,0,4,,,,,,,,,3,,49,122
18266,note_on,346,0,1,,,,,,,,,0,,81,0
18266,note_on,346,0,2,,,,,,,,,1,,69,0
18304,note_on,38,0,1,,,,,,,,,0,,81,98
18304,note_on,38,0,2,,,,,,,,,1,,69,97
18420,note_on,116,0,2,,,,,,,,,1,,69,0
18420,note_on,116,0,1,,,,,,,,,0,,81,0
18432,note_on,12,0,1,,,,,,,,,0,,81,119
18432,note_on,12,0,2,,,,,,,,,1,,69,125
18612,note_on,692,0,4,,,,,,,,,3,,49,0
18612,note_on,692,0,3,,,,,,,,,2,,52,0
18688,note_on,76,0,4,,,,,,,,,3,,46,124
18688,note_on,76,0,3,,,,,,,,,2,,50,116
18919,note_on,487,0,1,,,,,,,,,0,,81,0
18919,note_on,487,0,2,,,,,,,,,1,,69,0
18944,note_on,25,0,2,,,,,,,,,1,,65,86
18944,note_on,25,0,1,,,,,,,,,0,,65,70
19059,note_on,115,0,1,,,,,,,,,0,,65,0
19059,note_on,115,0,2,,,,,,,,,1,,65,0
19200,note_on,141,0,2,,,,,,,,,1,,55,82
19200,note_on,141,0,1,,,,,,,,,0,,67,103
19315,note_on,115,0,1,,,,,,,,,0,,67,0
19315,note_on,115,0,2,,,,,,,,,1,,55,0
19380,note_on,692,0,3,,,,,,,,,2,,50,0
19380,note_on,692,0,4,,,,,,,,,3,,46,0
19456,note_on,141,0,2,,,,,,,,,1,,57,93
19456,note_on,76,0,3,,,,,,,,,2,,49,123
19456,note_on,141,0,1,,,,,,,,,0,,69,105
19456,note_on,76,0,4,,,,,,,,,3,,45,122
19917,note_on,461,0,2,,,,,,,,,1,,57,0
19917,note_on,461,0,3,,,,,,,,,2,,49,0
19917,note_on,461,0,4,,,,,,,,,3,,45,0
19917,note_on,461,0,1,,,,,,,,,0,,69,0
19968,note_on,51,0,1,,,,,,,,,0,,86,127
19968,note_on,51,0,2,,,,,,,,,1,,74,127
20224,note_on,0,0,4,,,,,,,,,3,,58,115
20224,note_on,307,0,3,,,,,,,,,2,,55,111
20224,note_on,0,0,3,,,,,,,,,2,,62,111
20224,note_on,307,0,4,,,,,,,,,3,,50,115
20455,note_on,487,0,1,,,,,,,,,0,,86,0
20455,note_on,487,0,2,,,,,,,,,1,,74,0
20480,note_on,25,0,1,,,,,,,,,0,,82,86
20480,note_on,25,0,2,,,,,,,,,1,,70,86
20595,note_on,115,0,1,,,,,,,,,0,,82,0
20595,note_on,115,0,2,,,,,,,,,1,,70,0
20736,note_on,141,0,1,,,,,,,,,0,,84,97
20736,note_on,141,0,2,,,,,,,,,1,,72,103
20851,note_on,115,0,1,,,,,,,,,0,,84,0
20851,note_on,115,0,2,,,,,,,,,1,,72,0
20916,note_on,692,0,4,,,,,,,,,3,,50,0
20916,note_on,0,0,3,,,,,,,,,2,,62,0
20916,note_on,692,0,3,,,,,,,,,2,,55,0
20916,note_on,0,0,4,,,,,,,,,3,,58,0
20992,note_on,76,0,4,,,,,,,,,3,,50,97
20992,note_on,0,0,4,,,,,,,,,3,,57,97
20992,note_on,76,0,3,,,,,,,,,2,,53,119
20992,note_on,141,0,2,,,,,,,,,1,,74,97
20992,note_on,141,0,1,,,,,,,,,0,,86,104
20992,note_on,0,0,3,,,,,,,,,2,,62,119
21338,note_on,346,0,3,,,,,,,,,2,,53,0
21338,note_on,346,0,2,,,,,,,,,1,,74,0
21338,note_on,0,0,4,,,,,,,,,3,,57,0
21338,note_on,0,0,3,,,,,,,,,2,,62,0
21338,note_on,346,0,4,,,,,,,,,3,,50,0
21338,note_on,346,0,1,,,,,,,,,0,,86,0
21376,note_on,38,0,3,,,,,,,,,2,,57,102
21376,note_on,38,0,4,,,,,,,,,3,,49,106
21376,note_on,38,0,1,,,,,,,,,0,,88,102
21376,note_on,38,0,2,,,,,,,,,1,,76,106
21433,note_on,57,0,3,,,,,,,,,2,,57,0
21433,note_on,57,0,4,,,,,,,,,3,,49,0
21433,note_on,57,0,1,,,,,,,,,0,,88,0
21433,note_on,57,0,2,,,,,,,,,1,,76,0
21504,note_on,71,0,1,,,,,,,,,0,,89,105
21504,note_on,71,0,2,,,,,,,,,1,,77,109
21504,note_on,71,0,3,,,,,,,,,2,,57,105
21504,note_on,71,0,4,,,,,,,,,3,,50,109
21619,note_on,115,0,2,,,,,,,,,1,,77,0
21619,note_on,115,0,1,,,,,,,,,0,,89,0
21619,note_on,115,0,4,,,,,,,,,3,,50,0
21619,note_on,115,0,3,,,,,,,,,2,,57,0
21760,note_on,141,0,3,,,,,,,,,2,,50,110
21760,note_on,141,0,1,,,,,,,,,0,,90,111
21760,note_on,141,0,4,,,,,,,,,3,,48,115
21760,note_on,141,0,2,,,,,,,,,1,,78,115
21875,note_on,115,0,2,,,,,,,,,1,,78,0
21875,note_on,115,0,1,,,,,,,,,0,,90,0
21875,note_on,115,0,4,,,,,,,,,3,,48,0
21875,note_on,115,0,3,,,,,,,,,2,,50,0
22016,note_on,141,0,4,,,,,,,,,3,,47,120
22016,note_on,141,0,3,,,,,,,,,2,,50,116
22016,note_on,141,0,2,,,,,,,,,1,,79,120
22016,note_on,141,0,1,,,,,,,,,0,,91,117
22131,note_on,115,0,4,,,,,,,,,3,,47,0
22131,note_on,115,0,3,,,,,,,,,2,,50,0
22131,note_on,115,0,2,,,,,,,,,1,,79,0
22131,note_on,115,0,1,,,,,,,,,0,,91,0
22272,note_on,141,0,4,,,,,,,,,3,,46,121
22272,note_on,141,0,1,,,,,,,,,0,,92,123
22272,note_on,141,0,2,,,,,,,,,1,,80,124
22272,note_on,141,0,3,,,,,,,,,2,,50,122
22387,note_on,115,0,2,,,,,,,,,1,,80,0
22387,note_on,115,0,1,,,,,,,,,0,,92,0
22387,note_on,115,0,4,,,,,,,,,3,,46,0
22387,note_on,115,0,3,,,,,,,,,2,,50,0
22528,note_on,141,0,4,,,,,,,,,3,,45,117
22528,note_on,141,0,3,,,,,,,,,2,,49,126
22528,note_on,141,0,2,,,,,,,,,1,,81,126
22528,note_on,141,0,1,,,,,,,,,0,,93,126
22989,note_on,461,0,4,,,,,,,,,3,,45,0
22989,note_on,461,0,2,,,,,,,,,1,,81,0
22989,note_on,461,0,3,,,,,,,,,2,,49,0
22989,note_on,461,0,1,,,,,,,,,0,,93,0
23040,note_on,51,0,2,,,,,,,,,1,,69,76
23296,note_on,307,0,1,,,,,,,,,0,,74,67
23296,note_on,307,0,4,,,,,,,,,3,,58,53
23296,note_on,307,0,3,,,,,,,,,2,,62,65
23527,note_on,487,0,2,,,,,,,,,1,,69,0
23552,note_on,25,0,2,,,,,,,,,1,,65,60
23667,note_on,115,0,2,,,,,,,,,1,,65,0
23808,note_on,141,0,2,,,,,,,,,1,,67,78
23923,note_on,115,0,2,,,,,,,,,1,,67,0
24064,note_on,0,0,3,,,,,,,,,2,,64,72
24064,note_on,141,0,2,,,,,,,,,1,,69,72
24064,note_on,768,0,4,,,,,,,,,3,,58,0
24064,note_on,768,0,3,,,,,,,,,2,,62,0
24064,note_on,0,0,4,,,,,,,,,3,,57,61
24410,note_on,346,0,2,,,,,,,,,1,,69,0
24448,note_on,38,0,2,,,,,,,,,1,,69,74
24564,note_on,116,0,2,,,,,,,,,1,,69,0
24576,note_on,12,0,2,,,,,,,,,1,,69,94
24576,note_on,1280,0,1,,,,,,,,,0,,73,65
24601,note_on,25,0,1,,,,,,,,,0,,74,0
24678,note_on,77,0,1,,,,,,,,,0,,73,0
24713,note_on,649,0,4,,,,,,,,,3,,57,0
24713,note_on,649,0,3,,,,,,,,,2,,64,0
24832,note_on,154,0,1,,,,,,,,,0,,72,64
24832,note_on,119,0,3,,,,,,,,,2,,63,67
24832,note_on,119,0,4,,,,,,,,,3,,50,56
25063,note_on,487,0,2,,,,,,,,,1,,69,0
25088,note_on,25,0,2,,,,,,,,,1,,66,67
25203,note_on,115,0,2,,,,,,,,,1,,66,0
25344,note_on,141,0,2,,,,,,,,,1,,67,70
25459,note_on,115,0,2,,,,,,,,,1,,67,0
25524,note_on,692,0,4,,,,,,,,,3,,50,0
25600,note_on,76,0,4,,,,,,,,,3,,55,59
25600,note_on,141,0,2,,,,,,,,,1,,69,78
25600,note_on,768,0,3,,,,,,,,,2,,63,0
25600,note_on,0,0,3,,,,,,,,,2,,62,70
25946,note_on,346,0,4,,,,,,,,,3,,55,0
25984,note_on,38,0,4,,,,,,,,,3,,55,59
26100,note_on,116,0,4,,,,,,,,,3,,55,0
26112,note_on,12,0,4,,,,,,,,,3,,55,61
26112,note_on,1280,0,1,,,,,,,,,0,,70,65
26112,note_on,512,0,2,,,,,,,,,1,,67,66
26137,note_on,25,0,1,,,,,,,,,0,,72,0
26137,note_on,25,0,2,,,,,,,,,1,,69,0
26214,note_on,77,0,1,,,,,,,,,0,,70,0
26214,note_on,77,0,2,,,,,,,,,1,,67,0
26249,note_on,649,0,3,,,,,,,,,2,,62,0
26343,note_on,231,0,4,,,,,,,,,3,,55,0
26368,note_on,25,0,4,,,,,,,,,3,,49,57
26368,note_on,119,0,3,,,,,,,,,2,,55,63
26368,note_on,154,0,1,,,,,,,,,0,,76,65
26449,note_on,81,0,1,,,,,,,,,0,,76,0
26449,note_on,0,0,1,,,,,,,,,0,,82,103
26483,note_on,115,0,3,,,,,,,,,2,,55,0
26514,note_on,65,0,1,,,,,,,,,0,,82,0
26624,note_on,141,0,3,,,,,,,,,2,,52,66
26624,note_on,110,0,1,,,,,,,,,0,,81,70
26739,note_on,115,0,1,,,,,,,,,0,,81,0
26739,note_on,115,0,3,,,,,,,,,2,,52,0
26880,note_on,141,0,1,,,,,,,,,0,,79,68
26880,note_on,141,0,3,,,,,,,,,2,,57,97
26995,note_on,115,0,1,,,,,,,,,0,,79,0
27060,note_on,692,0,4,,,,,,,,,3,,49,0
27136,note_on,141,0,1,,,,,,,,,0,,79,69
27136,note_on,76,0,4,,,,,,,,,3,,50,65
27209,note_on,0,0,1,,,,,,,,,0,,77,92
27209,note_on,73,0,1,,,,,,,,,0,,79,0
27251,note_on,115,0,4,,,,,,,,,3,,50,0
27277,note_on,68,0,1,,,,,,,,,0,,77,0
27392,note_on,141,0,4,,,,,,,,,3,,52,62
27392,note_on,115,0,1,,,,,,,,,0,,76,65
27482,note_on,602,0,3,,,,,,,,,2,,57,0
27507,note_on,115,0,1,,,,,,,,,0,,76,0
27507,note_on,115,0,4,,,,,,,,,3,,52,0
27520,note_on,38,0,3,,,,,,,,,2,,57,72
27636,note_on,116,0,3,,,,,,,,,2,,57,0
27648,note_on,141,0,1,,,,,,,,,0,,74,66
27648,note_on,12,0,3,,,,,,,,,2,,57,72
27648,note_on,141,0,4,,,,,,,,,3,,53,63
27763,note_on,115,0,1,,,,,,,,,0,,74,0
27763,note_on,115,0,4,,,,,,,,,3,,53,0
27879,note_on,231,0,3,,,,,,,,,2,,57,0
27904,note_on,141,0,4,,,,,,,,,3,,56,59
27904,note_on,1690,0,2,,,,,,,,,1,,62,69
27904,note_on,141,0,1,,,,,,,,,0,,71,65
27972,note_on,68,0,1,,,,,,,,,0,,71,0
27972,note_on,0,0,1,,,,,,,,,0,,77,104
28019,note_on,115,0,2,,,,,,,,,1,,62,0
28044,note_on,72,0,1,,,,,,,,,0,,77,0
28160,note_on,141,0,2,,,,,,,,,1,,59,68
28160,note_on,116,0,1,,,,,,,,,0,,76,67
28275,note_on,115,0,1,,,,,,,,,0,,76,0
28275,note_on,115,0,2,,,,,,,,,1,,59,0
28416,note_on,141,0,2,,,,,,,,,1,,64,81
28416,note_on,141,0,1,,,,,,,,,0,,74,67
28531,note_on,115,0,1,,,,,,,,,0,,74,0
28596,note_on,692,0,4,,,,,,,,,3,,56,0
28672,note_on,141,0,1,,,,,,,,,0,,74,68
28672,note_on,76,0,4,,,,,,,,,3,,57,61
28740,note_on,68,0,1,,,,,,,,,0,,74,0
28740,note_on,0,0,1,,,,,,,,,0,,72,93
28787,note_on,115,0,4,,,,,,,,,3,,57,0
28812,note_on,72,0,1,,,,,,,,,0,,72,0
28928,note_on,116,0,1,,,,,,,,,0,,71,64
28928,note_on,141,0,4,,,,,,,,,3,,59,66
29018,note_on,602,0,2,,,,,,,,,1,,64,0
29043,note_on,115,0,4,,,,,,,,,3,,59,0
29043,note_on,115,0,1,,,,,,,,,0,,71,0
29056,note_on,38,0,2,,,,,,,,,1,,64,70
29172,note_on,116,0,2,,,,,,,,,1,,64,0
29184,note_on,12,0,2,,,,,,,,,1,,64,76
29184,note_on,141,0,4,,,,,,,,,3,,60,63
29184,note_on,141,0,1,,,,,,,,,0,,69,68
29299,note_on,115,0,1,,,,,,,,,0,,69,0
29299,note_on,115,0,4,,,,,,,,,3,,60,0
29415,note_on,231,0,2,,,,,,,,,1,,64,0
29440,note_on,25,0,2,,,,,,,,,1,,69,113
29440,note_on,141,0,1,,,,,,,,,0,,69,93
29440,note_on,1561,0,3,,,,,,,,,2,,57,90
29440,note_on,141,0,4,,,,,,,,,3,,57,100
29500,note_on,0,0,2,,,,,,,,,1,,74,127
29500,note_on,60,0,2,,,,,,,,,1,,69,0
29504,note_on,0,0,1,,,,,,,,,0,,74,127
29504,note_on,64,0,1,,,,,,,,,0,,69,0
29508,note_on,68,0,4,,,,,,,,,3,,57,0
29508,note_on,0,0,3,,,,,,,,,2,,62,127
29508,note_on,68,0,3,,,,,,,,,2,,57,0
29508,note_on,0,0,4,,,,,,,,,3,,62,127
29575,note_on,75,0,2,,,,,,,,,1,,74,0
29577,note_on,73,0,1,,,,,,,,,0,,74,0
29580,note_on,72,0,3,,,,,,,,,2,,62,0
29580,note_on,72,0,4,,,,,,,,,3,,62,0
29696,note_on,116,0,3,,,,,,,,,2,,60,91
29696,note_on,121,0,2,,,,,,,,,1,,72,93
29696,note_on,119,0,1,,,,,,,,,0,,72,92
29696,note_on,116,0,4,,,,,,,,,3,,60,95
29811,note_on,115,0,1,,,,,,,,,0,,72,0
29811,note_on,115,0,2,,,,,,,,,1,,72,0
29811,note_on,115,0,4,,,,,,,,,3,,60,0
29811,note_on,115,0,3,,,,,,,,,2,,60,0
29952,note_on,141,0,2,,,,,,,,,1,,71,92
29952,note_on,141,0,3,,,,,,,,,2,,59,92
29952,note_on,141,0,4,,,,,,,,,3,,59,95
29952,note_on,141,0,1,,,,,,,,,0,,71,93
30067,note_on,115,0,1,,,,,,,,,0,,71,0
30067,note_on,115,0,3,,,,,,,,,2,,59,0
30067,note_on,115,0,4,,,,,,,,,3,,59,0
30067,note_on,115,0,2,,,,,,,,,1,,71,0
30208,note_on,141,0,1,,,,,,,,,0,,71,93
30208,note_on,141,0,3,,,,,,,,,2,,59,98
30208,note_on,141,0,4,,,,,,,,,3,,59,98
30208,note_on,141,0,2,,,,,,,,,1,,71,94
30263,note_on,55,0,3,,,,,,,,,2,,59,0
30263,note_on,0,0,1,,,,,,,,,0,,69,115
30263,note_on,55,0,1,,,,,,,,,0,,71,0
30263,note_on,55,0,2,,,,,,,,,1,,71,0
30263,note_on,0,0,3,,,,,,,,,2,,57,117
30263,note_on,0,0,2,,,,,,,,,1,,69,116
30268,note_on,0,0,4,,,,,,,,,3,,57,121
30268,note_on,60,0,4,,,,,,,,,3,,59,0
30339,note_on,76,0,1,,,,,,,,,0,,69,0
30339,note_on,76,0,3,,,,,,,,,2,,57,0
30339,note_on,76,0,2,,,,,,,,,1,,69,0
30343,note_on,75,0,4,,,,,,,,,3,,57,0
30464,note_on,121,0,4,,,,,,,,,3,,55,96
30464,note_on,125,0,1,,,,,,,,,0,,67,91
30464,note_on,125,0,2,,,,,,,,,1,,67,92
30464,note_on,125,0,3,,,,,,,,,2,,55,93
30579,note_on,115,0,2,,,,,,,,,1,,67,0
30579,note_on,115,0,1,,,,,,,,,0,,67,0
30579,note_on,115,0,4,,,,,,,,,3,,55,0
30579,note_on,115,0,3,,,,,,,,,2,,55,0
30720,note_on,141,0,1,,,,,,,,,0,,65,93
30720,note_on,141,0,4,,,,,,,,,3,,53,93
30720,note_on,141,0,3,,,,,,,,,2,,53,96
30720,note_on,141,0,2,,,,,,,,,1,,65,87
30835,note_on,115,0,4,,,,,,,,,3,,53,0
30835,note_on,115,0,2,,,,,,,,,1,,65,0
30835,note_on,115,0,1,,,,,,,,,0,,65,0
30835,note_on,115,0,3,,,,,,,,,2,,53,0
30976,note_on,141,0,3,,,,,,,,,2,,52,121
30976,note_on,141,0,2,,,,,,,,,1,,60,127
30976,note_on,0,0,1,,,,,,,,,0,,72,127
30976,note_on,141,0,1,,,,,,,,,0,,64,127
30976,note_on,141,0,4,,,,,,,,,3,,52,119
30976,note_on,0,0,2,,,,,,,,,1,,69,127
31668,note_on,692,0,2,,,,,,,,,1,,60,0
31668,note_on,0,0,2,,,,,,,,,1,,69,0
31668,note_on,0,0,1,,,,,,,,,0,,72,0
31668,note_on,692,0,4,,,,,,,,,3,,52,0
31668,note_on,692,0,3,,,,,,,,,2,,52,0
31668,note_on,692,0,1,,,,,,,,,0,,64,0
31744,note_on,76,0,3,,,,,,,,,2,,52,125
31744,note_on,0,0,2,,,,,,,,,1,,68,124
31744,note_on,76,0,4,,,,,,,,,3,,52,124
31744,note_on,0,0,1,,,,,,,,,0,,71,126
31744,note_on,76,0,2,,,,,,,,,1,,59,124
31744,note_on,76,0,1,,,,,,,,,0,,64,126
32436,note_on,692,0,4,,,,,,,,,3,,52,0
32436,note_on,692,0,2,,,,,,,,,1,,59,0
32436,note_on,692,0,1,,,,,,,,,0,,64,0
32436,note_on,0,0,1,,,,,,,,,0,,71,0
32436,note_on,692,0,3,,,,,,,,,2,,52,0
32436,note_on,0,0,2,,,,,,,,,1,,68,0
32512,note_on,76,0,3,,,,,,,,,2,,64,122
32512,note_on,76,0,2,,,,,,,,,1,,60,103
32512,note_on,76,0,4,,,,,,,,,3,,45,89
32512,note_on,0,0,2,,,,,,,,,1,,69,103
32512,note_on,76,0,1,,,,,,,,,0,,60,86
32512,note_on,0,0,1,,,,,,,,,0,,69,86
32627,note_on,115,0,2,,,,,,,,,1,,60,0
32627,note_on,115,0,3,,,,,,,,,2,,64,0
32627,note_on,115,0,1,,,,,,,,,0,,60,0
32627,note_on,0,0,1,,,,,,,,,0,,69,0
32627,note_on,115,0,4,,,,,,,,,3,,45,0
32627,note_on,0,0,2,,,,,,,,,1,,69,0
32768,note_on,141,0,2,,,,,,,,,1,,64,84
32768,note_on,141,0,3,,,,,,,,,2,,60,95
32768,note_on,141,0,1,,,,,,,,,0,,64,82
32768,note_on,141,0,4,,,,,,,,,3,,48,103
32883,note_on,115,0,2,,,,,,,,,1,,64,0
32883,note_on,115,0,4,,,,,,,,,3,,48,0
32883,note_on,115,0,3,,,,,,,,,2,,60,0
32883,note_on,115,0,1,,,,,,,,,0,,64,0
33024,note_on,141,0,3,,,,,,,,,2,,59,93
33024,note_on,141,0,2,,,,,,,,,1,,62,94
33024,note_on,141,0,1,,,,,,,,,0,,68,104
33024,note_on,141,0,4,,,,,,,,,3,,52,101
33139,note_on,115,0,3,,,,,,,,,2,,59,0
33139,note_on,115,0,2,,,,,,,,,1,,62,0
33139,note_on,115,0,1,,,,,,,,,0,,68,0
33139,note_on,115,0,4,,,,,,,,,3,,52,0
33280,note_on,141,0,4,,,,,,,,,3,,45,91
33280,note_on,141,0,1,,,,,,,,,0,,69,105
33280,note_on,141,0,2,,,,,,,,,1,,60,85
33280,note_on,141,0,3,,,,,,,,,2,,57,93
33741,note_on,461,0,3,,,,,,,,,2,,57,0
33741,note_on,461,0,1,,,,,,,,,0,,69,0
33741,note_on,461,0,2,,,,,,,,,1,,60,0
33741,note_on,461,0,4,,,,,,,,,3,,45,0
33792,time_signature,51,1,1,3,4,24,8,,,,,,,,
33792,time_signature,51,1,4,3,4,24,8,,,,,,,,
33792,time_signature,51,1,3,3,4,24,8,,,,,,,,
33792,note_on,0,0,3,,,,,,,,,2,,57,119
33792,time_signature,51,1,2,3,4,24,8,,,,,,,,
33792,note_on,0,0,4,,,,,,,,,3,,45,121
34048,time_signature,256,1,2,3,4,24,8,,,,,,,,
34048,time_signature,256,1,1,3,4,24,8,,,,,,,,
34048,note_on,0,0,1,,,,,,,,,0,,69,109
34048,note_on,0,0,1,,,,,,,,,0,,77,109
34048,time_signature,256,1,4,3,4,24,8,,,,,,,,
34048,note_on,0,0,2,,,,,,,,,1,,74,112
34048,time_signature,256,1,3,3,4,24,8,,,,,,,,
34048,note_on,0,0,2,,,,,,,,,1,,65,112
34279,note_on,231,0,4,,,,,,,,,3,,45,0
34279,note_on,231,0,3,,,,,,,,,2,,57,0
34304,note_on,25,0,4,,,,,,,,,3,,41,88
34304,note_on,25,0,3,,,,,,,,,2,,53,95
34419,note_on,115,0,4,,,,,,,,,3,,41,0
34419,note_on,115,0,3,,,,,,,,,2,,53,0
34560,note_on,141,0,3,,,,,,,,,2,,55,103
34560,note_on,141,0,4,,,,,,,,,3,,43,100
34675,note_on,115,0,3,,,,,,,,,2,,55,0
34675,note_on,115,0,4,,,,,,,,,3,,43,0
34740,note_on,0,0,2,,,,,,,,,1,,74,0
34740,note_on,692,0,2,,,,,,,,,1,,65,0
34740,note_on,0,0,1,,,,,,,,,0,,77,0
34740,note_on,692,0,1,,,,,,,,,0,,69,0
34816,note_on,0,0,2,,,,,,,,,1,,64,127
34816,note_on,76,0,2,,,,,,,,,1,,74,123
34816,note_on,141,0,3,,,,,,,,,2,,57,105
34816,note_on,76,0,1,,,,,,,,,0,,69,119
34816,note_on,0,0,1,,,,,,,,,0,,76,119
34816,note_on,141,0,4,,,,,,,,,3,,45,100
35162,note_on,346,0,4,,,,,,,,,3,,45,0
35162,note_on,346,0,3,,,,,,,,,2,,57,0
35200,note_on,38,0,4,,,,,,,,,3,,45,92
35200,note_on,38,0,3,,,,,,,,,2,,57,93
35316,note_on,116,0,4,,,,,,,,,3,,45,0
35316,note_on,116,0,3,,,,,,,,,2,,57,0
35328,note_on,512,0,2,,,,,,,,,1,,73,93
35328,note_on,12,0,3,,,,,,,,,2,,57,121
35328,note_on,12,0,4,,,,,,,,,3,,45,118
35353,note_on,25,0,2,,,,,,,,,1,,74,0
35465,note_on,112,0,2,,,,,,,,,1,,64,0
35508,note_on,0,0,1,,,,,,,,,0,,76,0
35508,note_on,692,0,1,,,,,,,,,0,,69,0
35532,note_on,67,0,2,,,,,,,,,1,,73,0
35584,note_on,76,0,1,,,,,,,,,0,,66,113
35584,note_on,0,0,1,,,,,,,,,0,,75,113
35584,note_on,52,0,2,,,,,,,,,1,,69,120
35584,note_on,0,0,2,,,,,,,,,1,,72,120
35815,note_on,487,0,3,,,,,,,,,2,,57,0
35815,note_on,487,0,4,,,,,,,,,3,,45,0
35840,note_on,25,0,3,,,,,,,,,2,,54,92
35840,note_on,25,0,4,,,,,,,,,3,,42,95
35955,note_on,115,0,3,,,,,,,,,2,,54,0
35955,note_on,115,0,4,,,,,,,,,3,,42,0
36096,note_on,141,0,3,,,,,,,,,2,,50,89
36096,note_on,141,0,4,,,,,,,,,3,,38,91
36211,note_on,115,0,3,,,,,,,,,2,,50,0
36211,note_on,115,0,4,,,,,,,,,3,,38,0
36276,note_on,692,0,2,,,,,,,,,1,,69,0
36276,note_on,0,0,2,,,,,,,,,1,,72,0
36276,note_on,692,0,1,,,,,,,,,0,,66,0
36276,note_on,0,0,1,,,,,,,,,0,,75,0
36352,note_on,141,0,4,,,,,,,,,3,,43,100
36352,note_on,76,0,2,,,,,,,,,1,,72,120
36352,note_on,0,0,2,,,,,,,,,1,,67,127
36352,note_on,141,0,3,,,,,,,,,2,,55,105
36352,note_on,76,0,1,,,,,,,,,0,,67,117
36352,note_on,0,0,1,,,,,,,,,0,,74,117
36698,note_on,346,0,4,,,,,,,,,3,,43,0
36698,note_on,346,0,3,,,,,,,,,2,,55,0
36736,note_on,38,0,3,,,,,,,,,2,,55,97
36736,note_on,38,0,4,,,,,,,,,3,,43,105
36813,note_on,461,0,2,,,,,,,,,1,,72,0
36852,note_on,116,0,4,,,,,,,,,3,,43,0
36852,note_on,116,0,3,,,,,,,,,2,,55,0
36864,note_on,12,0,4,,,,,,,,,3,,43,120
36864,note_on,12,0,3,,,,,,,,,2,,55,122
36864,note_on,51,0,2,,,,,,,,,1,,71,91
37044,note_on,0,0,1,,,,,,,,,0,,74,0
37044,note_on,180,0,2,,,,,,,,,1,,67,0
37044,note_on,692,0,1,,,,,,,,,0,,67,0
37095,note_on,51,0,2,,,,,,,,,1,,71,0
37120,note_on,25,0,2,,,,,,,,,1,,67,121
37120,note_on,0,0,1,,,,,,,,,0,,73,115
37120,note_on,76,0,1,,,,,,,,,0,,64,115
37120,note_on,0,0,2,,,,,,,,,1,,70,121
37351,note_on,487,0,4,,,,,,,,,3,,43,0
37351,note_on,487,0,3,,,,,,,,,2,,55,0
37376,note_on,25,0,3,,,,,,,,,2,,52,98
37376,note_on,25,0,4,,,,,,,,,3,,40,91
37491,note_on,115,0,3,,,,,,,,,2,,52,0
37491,note_on,115,0,4,,,,,,,,,3,,40,0
37632,note_on,141,0,3,,,,,,,,,2,,48,94
37632,note_on,141,0,4,,,,,,,,,3,,36,93
37747,note_on,115,0,4,,,,,,,,,3,,36,0
37747,note_on,115,0,3,,,,,,,,,2,,48,0
37812,note_on,692,0,1,,,,,,,,,0,,64,0
37812,note_on,692,0,2,,,,,,,,,1,,67,0
37812,note_on,0,0,2,,,,,,,,,1,,70,0
37812,note_on,0,0,1,,,,,,,,,0,,73,0
37888,note_on,0,0,1,,,,,,,,,0,,72,116
37888,note_on,141,0,4,,,,,,,,,3,,41,127
37888,note_on,76,0,2,,,,,,,,,1,,70,122
37888,note_on,141,0,3,,,,,,,,,2,,53,127
37888,note_on,76,0,1,,,,,,,,,0,,65,116
37888,note_on,0,0,2,,,,,,,,,1,,65,127
38144,note_on,256,0,2,,,,,,,,,1,,69,91
38156,note_on,12,0,2,,,,,,,,,1,,70,0
38348,note_on,192,0,2,,,,,,,,,1,,69,0
38349,note_on,461,0,4,,,,,,,,,3,,41,0
38349,note_on,0,0,1,,,,,,,,,0,,72,0
38349,note_on,461,0,1,,,,,,,,,0,,65,0
38349,note_on,461,0,3,,,,,,,,,2,,53,0
38400,note_on,52,0,2,,,,,,,,,1,,67,92
38400,note_on,0,0,1,,,,,,,,,0,,70,91
38400,note_on,51,0,1,,,,,,,,,0,,62,91
38400,note_on,51,0,4,,,,,,,,,3,,43,100
38400,note_on,51,0,3,,,,,,,,,2,,55,100
38537,note_on,137,0,2,,,,,,,,,1,,65,0
38631,note_on,231,0,4,,,,,,,,,3,,43,0
38631,note_on,231,0,3,,,,,,,,,2,,55,0
38631,note_on,94,0,2,,,,,,,,,1,,67,0
38631,note_on,231,0,1,,,,,,,,,0,,62,0
38631,note_on,0,0,1,,,,,,,,,0,,70,0
38656,note_on,0,0,1,,,,,,,,,0,,69,112
38656,note_on,25,0,3,,,,,,,,,2,,57,125
38656,note_on,25,0,4,,,,,,,,,3,,45,126
38656,note_on,25,0,1,,,,,,,,,0,,62,112
38656,note_on,25,0,2,,,,,,,,,1,,67,120
39002,note_on,346,0,4,,,,,,,,,3,,45,0
39002,note_on,346,0,3,,,,,,,,,2,,57,0
39040,note_on,38,0,4,,,,,,,,,3,,45,97
39040,note_on,38,0,3,,,,,,,,,2,,57,96
39117,note_on,461,0,2,,,,,,,,,1,,67,0
39156,note_on,116,0,4,,,,,,,,,3,,45,0
39156,note_on,116,0,3,,,,,,,,,2,,57,0
39168,note_on,51,0,2,,,,,,,,,1,,65,91
39168,note_on,12,0,4,,,,,,,,,3,,45,99
39168,note_on,12,0,3,,,,,,,,,2,,57,97
39348,note_on,0,0,1,,,,,,,,,0,,69,0
39348,note_on,692,0,1,,,,,,,,,0,,62,0
39399,note_on,231,0,4,,,,,,,,,3,,45,0
39399,note_on,231,0,3,,,,,,,,,2,,57,0
39399,note_on,231,0,2,,,,,,,,,1,,65,0
39424,note_on,76,0,1,,,,,,,,,0,,67,89
39424,note_on,25,0,3,,,,,,,,,2,,58,124
39424,note_on,25,0,2,,,,,,,,,1,,65,127
39424,note_on,0,0,2,,,,,,,,,1,,62,127
39424,note_on,25,0,4,,,,,,,,,3,,46,126
39770,note_on,346,0,3,,,,,,,,,2,,58,0
39770,note_on,346,0,4,,,,,,,,,3,,46,0
39808,note_on,38,0,3,,,,,,,,,2,,58,96
39808,note_on,38,0,4,,,,,,,,,3,,46,98
39885,note_on,461,0,2,,,,,,,,,1,,65,0
39924,note_on,116,0,3,,,,,,,,,2,,58,0
39924,note_on,116,0,4,,,,,,,,,3,,46,0
39936,note_on,12,0,4,,,,,,,,,3,,46,98
39936,note_on,12,0,3,,,,,,,,,2,,58,96
39936,note_on,51,0,2,,,,,,,,,1,,64,96
40116,note_on,692,0,1,,,,,,,,,0,,67,0
40116,note_on,180,0,2,,,,,,,,,1,,62,0
40167,note_on,231,0,3,,,,,,,,,2,,58,0
40167,note_on,231,0,4,,,,,,,,,3,,46,0
40167,note_on,51,0,2,,,,,,,,,1,,64,0
40192,note_on,25,0,3,,,,,,,,,2,,57,100
40192,note_on,0,0,2,,,,,,,,,1,,64,96
40192,note_on,25,0,2,,,,,,,,,1,,62,96
40192,note_on,76,0,1,,,,,,,,,0,,69,103
40192,note_on,25,0,4,,,,,,,,,3,,45,94
40307,note_on,115,0,2,,,,,,,,,1,,62,0
40307,note_on,0,0,2,,,,,,,,,1,,64,0
40307,note_on,115,0,4,,,,,,,,,3,,45,0
40307,note_on,115,0,1,,,,,,,,,0,,69,0
40307,note_on,115,0,3,,,,,,,,,2,,57,0
40448,note_on,141,0,1,,,,,,,,,0,,64,89
40448,note_on,0,0,2,,,,,,,,,1,,64,98
40448,note_on,141,0,3,,,,,,,,,2,,57,95
40448,note_on,141,0,2,,,,,,,,,1,,61,98
40448,note_on,141,0,4,,,,,,,,,3,,45,95
40563,note_on,115,0,1,,,,,,,,,0,,64,0
40563,note_on,115,0,2,,,,,,,,,1,,61,0
40563,note_on,0,0,2,,,,,,,,,1,,64,0
40563,note_on,115,0,4,,,,,,,,,3,,45,0
40563,note_on,115,0,3,,,,,,,,,2,,57,0
40704,note_on,141,0,2,,,,,,,,,1,,62,92
40704,note_on,0,0,2,,,,,,,,,1,,64,92
40704,note_on,141,0,4,,,,,,,,,3,,45,96
40704,note_on,0,0,1,,,,,,,,,0,,68,105
40704,note_on,141,0,1,,,,,,,,,0,,59,105
40704,note_on,141,0,3,,,,,,,,,2,,57,94
40819,note_on,0,0,1,,,,,,,,,0,,68,0
40819,note_on,0,0,2,,,,,,,,,1,,64,0
40819,note_on,115,0,2,,,,,,,,,1,,62,0
40819,note_on,115,0,1,,,,,,,,,0,,59,0
40819,note_on,115,0,4,,,,,,,,,3,,45,0
40819,note_on,115,0,3,,,,,,,,,2,,57,0
40960,note_on,0,0,2,,,,,,,,,1,,64,97
40960,note_on,141,0,3,,,,,,,,,2,,57,99
40960,note_on,141,0,1,,,,,,,,,0,,57,97
40960,note_on,0,0,1,,,,,,,,,0,,69,97
40960,note_on,141,0,2,,,,,,,,,1,,61,97
40960,note_on,141,0,4,,,,,,,,,3,,45,99
41421,note_on,0,0,1,,,,,,,,,0,,69,0
41421,note_on,461,0,3,,,,,,,,,2,,57,0
41421,note_on,461,0,4,,,,,,,,,3,,45,0
41421,note_on,461,0,1,,,,,,,,,0,,57,0
41421,note_on,461,0,2,,,,,,,,,1,,61,0
41421,note_on,0,0,2,,,,,,,,,1,,64,0
41472,note_on,51,0,2,,,,,,,,,1,,69,70
41703,note_on,231,0,2,,,,,,,,,1,,69,0
41728,note_on,307,0,3,,,,,,,,,2,,60,62
41728,note_on,307,0,4,,,,,,,,,3,,54,64
41728,note_on,25,0,2,,,,,,,,,1,,69,72
41830,note_on,102,0,2,,,,,,,,,1,,69,0
41830,note_on,0,0,2,,,,,,,,,1,,75,105
41843,note_on,115,0,3,,,,,,,,,2,,60,0
41886,note_on,56,0,2,,,,,,,,,1,,75,0
41984,note_on,141,0,3,,,,,,,,,2,,57,64
41984,note_on,98,0,2,,,,,,,,,1,,74,64
42099,note_on,115,0,3,,,,,,,,,2,,57,0
42099,note_on,115,0,2,,,,,,,,,1,,74,0
42240,note_on,141,0,3,,,,,,,,,2,,62,106
42240,note_on,141,0,2,,,,,,,,,1,,72,72
42355,note_on,115,0,2,,,,,,,,,1,,72,0
42420,note_on,692,0,4,,,,,,,,,3,,54,0
42496,note_on,76,0,4,,,,,,,,,3,,55,75
42496,note_on,141,0,2,,,,,,,,,1,,72,72
42564,note_on,68,0,2,,,,,,,,,1,,72,0
42564,note_on,0,0,2,,,,,,,,,1,,70,92
42611,note_on,115,0,4,,,,,,,,,3,,55,0
42636,note_on,72,0,2,,,,,,,,,1,,70,0
42752,note_on,141,0,4,,,,,,,,,3,,57,75
42752,note_on,116,0,2,,,,,,,,,1,,69,67
42842,note_on,602,0,3,,,,,,,,,2,,62,0
42867,note_on,115,0,4,,,,,,,,,3,,57,0
42867,note_on,115,0,2,,,,,,,,,1,,69,0
42880,note_on,38,0,3,,,,,,,,,2,,62,66
42996,note_on,116,0,3,,,,,,,,,2,,62,0
43008,note_on,12,0,3,,,,,,,,,2,,62,68
43008,note_on,141,0,4,,,,,,,,,3,,58,73
43008,note_on,141,0,2,,,,,,,,,1,,67,64
43123,note_on,115,0,4,,,,,,,,,3,,58,0
43123,note_on,115,0,2,,,,,,,,,1,,67,0
43239,note_on,231,0,3,,,,,,,,,2,,62,0
43264,note_on,1843,0,1,,,,,,,,,0,,76,62
43264,note_on,25,0,3,,,,,,,,,2,,55,64
43264,note_on,141,0,4,,,,,,,,,3,,49,65
43341,note_on,77,0,1,,,,,,,,,0,,76,0
43341,note_on,0,0,1,,,,,,,,,0,,82,103
43379,note_on,115,0,3,,,,,,,,,2,,55,0
43408,note_on,67,0,1,,,,,,,,,0,,82,0
43520,note_on,141,0,3,,,,,,,,,2,,52,67
43520,note_on,112,0,1,,,,,,,,,0,,81,70
43635,note_on,115,0,1,,,,,,,,,0,,81,0
43635,note_on,115,0,3,,,,,,,,,2,,52,0
43776,note_on,141,0,3,,,,,,,,,2,,57,97
43776,note_on,141,0,1,,,,,,,,,0,,79,65
43891,note_on,115,0,1,,,,,,,,,0,,79,0
43956,note_on,692,0,4,,,,,,,,,3,,49,0
44032,note_on,76,0,4,,,,,,,,,3,,50,73
44032,note_on,141,0,1,,,,,,,,,0,,79,71
44096,note_on,64,0,1,,,,,,,,,0,,79,0
44096,note_on,0,0,1,,,,,,,,,0,,77,68
44147,note_on,115,0,4,,,,,,,,,3,,50,0
44169,note_on,73,0,1,,,,,,,,,0,,77,0
44288,note_on,141,0,4,,,,,,,,,3,,52,68
44288,note_on,119,0,1,,,,,,,,,0,,76,65
44378,note_on,602,0,3,,,,,,,,,2,,57,0
44403,note_on,115,0,1,,,,,,,,,0,,76,0
44403,note_on,115,0,4,,,,,,,,,3,,52,0
44416,note_on,38,0,3,,,,,,,,,2,,57,66
44532,note_on,116,0,3,,,,,,,,,2,,57,0
44544,note_on,141,0,1,,,,,,,,,0,,74,65
44544,note_on,12,0,3,,,,,,,,,2,,57,72
44544,note_on,141,0,4,,,,,,,,,3,,53,71
44659,note_on,115,0,1,,,,,,,,,0,,74,0
44659,note_on,115,0,4,,,,,,,,,3,,53,0
44775,note_on,231,0,3,,,,,,,,,2,,57,0
44800,note_on,141,0,1,,,,,,,,,0,,62,49
44800,note_on,25,0,3,,,,,,,,,2,,62,76
44800,note_on,141,0,4,,,,,,,,,3,,50,71
44800,note_on,1677,0,2,,,,,,,,,1,,62,65
44877,note_on,0,0,2,,,,,,,,,1,,67,100
44877,note_on,77,0,2,,,,,,,,,1,,62,0
44881,note_on,0,0,1,,,,,,,,,0,,67,97
44881,note_on,81,0,3,,,,,,,,,2,,62,0
44881,note_on,0,0,3,,,,,,,,,2,,67,106
44881,note_on,81,0,1,,,,,,,,,0,,62,0
44894,note_on,0,0,4,,,,,,,,,3,,55,97
44894,note_on,94,0,4,,,,,,,,,3,,50,0
44944,note_on,67,0,2,,,,,,,,,1,,67,0
44946,note_on,65,0,1,,,,,,,,,0,,67,0
44946,note_on,65,0,3,,,,,,,,,2,,67,0
44954,note_on,60,0,4,,,,,,,,,3,,55,0
45056,note_on,110,0,1,,,,,,,,,0,,65,69
45056,note_on,110,0,3,,,,,,,,,2,,65,68
45056,note_on,102,0,4,,,,,,,,,3,,53,72
45056,note_on,112,0,2,,,,,,,,,1,,65,65
45171,note_on,115,0,3,,,,,,,,,2,,65,0
45171,note_on,115,0,2,,,,,,,,,1,,65,0
45171,note_on,115,0,4,,,,,,,,,3,,53,0
45171,note_on,115,0,1,,,,,,,,,0,,65,0
45312,note_on,141,0,4,,,,,,,,,3,,52,71
45312,note_on,141,0,1,,,,,,,,,0,,64,64
45312,note_on,141,0,2,,,,,,,,,1,,64,62
45312,note_on,141,0,3,,,,,,,,,2,,64,67
45427,note_on,115,0,1,,,,,,,,,0,,64,0
45427,note_on,115,0,2,,,,,,,,,1,,64,0
45427,note_on,115,0,3,,,,,,,,,2,,64,0
45427,note_on,115,0,4,,,,,,,,,3,,52,0
45568,note_on,141,0,2,,,,,,,,,1,,64,72
45568,note_on,141,0,1,,,,,,,,,0,,64,73
45568,note_on,141,0,4,,,,,,,,,3,,52,71
45568,note_on,141,0,3,,,,,,,,,2,,64,70
45636,note_on,68,0,2,,,,,,,,,1,,64,0
45636,note_on,0,0,2,,,,,,,,,1,,62,91
45645,note_on,0,0,3,,,,,,,,,2,,62,88
45645,note_on,77,0,3,,,,,,,,,2,,64,0
45649,note_on,81,0,1,,,,,,,,,0,,64,0
45649,note_on,0,0,1,,,,,,,,,0,,62,91
45649,note_on,0,0,4,,,,,,,,,3,,50,89
45649,note_on,81,0,4,,,,,,,,,3,,52,0
45708,note_on,72,0,2,,,,,,,,,1,,62,0
45712,note_on,67,0,3,,,,,,,,,2,,62,0
45714,note_on,65,0,1,,,,,,,,,0,,62,0
45714,note_on,65,0,4,,,,,,,,,3,,50,0
45824,note_on,110,0,4,,,,,,,,,3,,48,68
45824,note_on,110,0,1,,,,,,,,,0,,60,61
45824,note_on,116,0,2,,,,,,,,,1,,60,67
45824,note_on,112,0,3,,,,,,,,,2,,60,68
45939,note_on,115,0,1,,,,,,,,,0,,60,0
45939,note_on,115,0,4,,,,,,,,,3,,48,0
45939,note_on,115,0,2,,,,,,,,,1,,60,0
45939,note_on,115,0,3,,,,,,,,,2,,60,0
46080,note_on,141,0,3,,,,,,,,,2,,58,72
46080,note_on,141,0,1,,,,,,,,,0,,58,73
46080,note_on,141,0,4,,,,,,,,,3,,46,67
46080,note_on,141,0,2,,,,,,,,,1,,58,69
46195,note_on,115,0,4,,,,,,,,,3,,46,0
46195,note_on,115,0,3,,,,,,,,,2,,58,0
46195,note_on,115,0,2,,,,,,,,,1,,58,0
46195,note_on,115,0,1,,,,,,,,,0,,58,0
46336,note_on,141,0,2,,,,,,,,,1,,62,101
46336,note_on,141,0,3,,,,,,,,,2,,53,93
46336,note_on,141,0,1,,,,,,,,,0,,57,111
46336,note_on,0,0,1,,,,,,,,,0,,65,111
46336,note_on,141,0,4,,,,,,,,,3,,45,93
46336,note_on,0,0,3,,,,,,,,,2,,57,93
47028,note_on,692,0,3,,,,,,,,,2,,53,0
47028,note_on,0,0,3,,,,,,,,,2,,57,0
47028,note_on,692,0,2,,,,,,,,,1,,62,0
47028,note_on,692,0,4,,,,,,,,,3,,45,0
47028,note_on,692,0,1,,,,,,,,,0,,57,0
47028,note_on,0,0,1,,,,,,,,,0,,65,0
47104,note_on,76,0,1,,,,,,,,,0,,57,95
47104,note_on,0,0,1,,,,,,,,,0,,64,95
47104,note_on,76,0,2,,,,,,,,,1,,61,94
47104,note_on,76,0,3,,,,,,,,,2,,57,97
47104,note_on,76,0,4,,,,,,,,,3,,45,92
47796,note_on,692,0,2,,,,,,,,,1,,61,0
47796,note_on,0,0,1,,,,,,,,,0,,64,0
47796,note_on,692,0,1,,,,,,,,,0,,57,0
47796,note_on,692,0,4,,,,,,,,,3,,45,0
47796,note_on,692,0,3,,,,,,,,,2,,57,0
47872,note_on,76,0,2,,,,,,,,,1,,57,90
47872,note_on,76,0,1,,,,,,,,,0,,62,90
47872,note_on,76,0,4,,,,,,,,,3,,50,103
47872,note_on,76,0,3,,,,,,,,,2,,53,93
48333,note_on,461,0,4,,,,,,,,,3,,50,0
48333,note_on,461,0,1,,,,,,,,,0,,62,0
48333,note_on,461,0,2,,,,,,,,,1,,57,0
48333,note_on,461,0,3,,,,,,,,,2,,53,0
48384,note_on,51,0,1,,,,,,,,,0,,86,114
48384,note_on,51,0,2,,,,,,,,,1,,74,118
48640,note_on,0,0,4,,,,,,,,,3,,58,105
48640,note_on,307,0,3,,,,,,,,,2,,55,104
48640,note_on,307,0,4,,,,,,,,,3,,50,105
48640,note_on,0,0,3,,,,,,,,,2,,62,104
48871,note_on,487,0,1,,,,,,,,,0,,86,0
48871,note_on,487,0,2,,,,,,,,,1,,74,0
48896,note_on,25,0,2,,,,,,,,,1,,70,75
48896,note_on,25,0,1,,,,,,,,,0,,82,80
49011,note_on,115,0,2,,,,,,,,,1,,70,0
49011,note_on,115,0,1,,,,,,,,,0,,82,0
49152,note_on,141,0,2,,,,,,,,,1,,72,85
49152,note_on,141,0,1,,,,,,,,,0,,84,93
49267,note_on,115,0,2,,,,,,,,,1,,72,0
49267,note_on,115,0,1,,,,,,,,,0,,84,0
49332,note_on,0,0,4,,,,,,,,,3,,58,0
49332,note_on,692,0,3,,,,,,,,,2,,55,0
49332,note_on,0,0,3,,,,,,,,,2,,62,0
49332,note_on,692,0,4,,,,,,,,,3,,50,0
49408,note_on,141,0,1,,,,,,,,,0,,86,91
49408,note_on,76,0,4,,,,,,,,,3,,50,107
49408,note_on,76,0,3,,,,,,,,,2,,53,109
49408,note_on,141,0,2,,,,,,,,,1,,74,86
49408,note_on,0,0,3,,,,,,,,,2,,62,109
49408,note_on,0,0,4,,,,,,,,,3,,57,107
49754,note_on,346,0,1,,,,,,,,,0,,86,0
49754,note_on,346,0,2,,,,,,,,,1,,74,0
49792,note_on,38,0,1,,,,,,,,,0,,86,86
49792,note_on,38,0,2,,,,,,,,,1,,74,86
49908,note_on,116,0,2,,,,,,,,,1,,74,0
49908,note_on,116,0,1,,,,,,,,,0,,86,0
49920,note_on,12,0,1,,,,,,,,,0,,86,106
49920,note_on,12,0,2,,,,,,,,,1,,74,105
50100,note_on,0,0,3,,,,,,,,,2,,62,0
50100,note_on,692,0,3,,,,,,,,,2,,53,0
50100,note_on,692,0,4,,,,,,,,,3,,50,0
50100,note_on,0,0,4,,,,,,,,,3,,57,0
50176,note_on,76,0,3,,,,,,,,,2,,55,107
50176,note_on,0,0,3,,,,,,,,,2,,62,107
50176,note_on,0,0,4,,,,,,,,,3,,58,112
50176,note_on,76,0,4,,,,,,,,,3,,50,112
50407,note_on,487,0,2,,,,,,,,,1,,74,0
50407,note_on,487,0,1,,,,,,,,,0,,86,0
50432,note_on,25,0,2,,,,,,,,,1,,70,72
50432,note_on,25,0,1,,,,,,,,,0,,82,75
50547,note_on,115,0,2,,,,,,,,,1,,70,0
50547,note_on,115,0,1,,,,,,,,,0,,82,0
50688,note_on,141,0,1,,,,,,,,,0,,84,89
50688,note_on,141,0,2,,,,,,,,,1,,72,86
50803,note_on,115,0,2,,,,,,,,,1,,72,0
50803,note_on,115,0,1,,,,,,,,,0,,84,0
50868,note_on,692,0,4,,,,,,,,,3,,50,0
50868,note_on,0,0,4,,,,,,,,,3,,58,0
50868,note_on,0,0,3,,,,,,,,,2,,62,0
50868,note_on,692,0,3,,,,,,,,,2,,55,0
50944,note_on,0,0,3,,,,,,,,,2,,62,106
50944,note_on,76,0,3,,,,,,,,,2,,53,106
50944,note_on,76,0,4,,,,,,,,,3,,50,106
50944,note_on,0,0,4,,,,,,,,,3,,57,106
50944,note_on,141,0,1,,,,,,,,,0,,86,111
50944,note_on,141,0,2,,,,,,,,,1,,74,115
51405,note_on,0,0,4,,,,,,,,,3,,57,0
51405,note_on,461,0,1,,,,,,,,,0,,86,0
51405,note_on,461,0,2,,,,,,,,,1,,74,0
51405,note_on,461,0,3,,,,,,,,,2,,53,0
51405,note_on,0,0,3,,,,,,,,,2,,62,0
51405,note_on,461,0,4,,,,,,,,,3,,50,0
51456,note_on,51,0,4,,,,,,,,,3,,46,99
51456,note_on,51,0,3,,,,,,,,,2,,58,103
51712,note_on,0,0,2,,,,,,,,,1,,75,102
51712,note_on,307,0,1,,,,,,,,,0,,70,96
51712,note_on,307,0,2,,,,,,,,,1,,67,102
51712,note_on,0,0,1,,,,,,,,,0,,79,96
51943,note_on,487,0,3,,,,,,,,,2,,58,0
51943,note_on,487,0,4,,,,,,,,,3,,46,0
51968,note_on,25,0,3,,,,,,,,,2,,55,77
51968,note_on,25,0,4,,,,,,,,,3,,43,82
52083,note_on,115,0,3,,,,,,,,,2,,55,0
52083,note_on,115,0,4,,,,,,,,,3,,43,0
52224,note_on,141,0,4,,,,,,,,,3,,45,84
52224,note_on,141,0,3,,,,,,,,,2,,57,86
52339,note_on,115,0,4,,,,,,,,,3,,45,0
52339,note_on,115,0,3,,,,,,,,,2,,57,0
52404,note_on,692,0,2,,,,,,,,,1,,67,0
52404,note_on,692,0,1,,,,,,,,,0,,70,0
52404,note_on,0,0,1,,,,,,,,,0,,79,0
52404,note_on,0,0,2,,,,,,,,,1,,75,0
52480,note_on,141,0,3,,,,,,,,,2,,58,82
52480,note_on,141,0,4,,,,,,,,,3,,46,81
52480,note_on,76,0,1,,,,,,,,,0,,70,103
52480,note_on,0,0,1,,,,,,,,,0,,77,103
52480,note_on,76,0,2,,,,,,,,,1,,65,104
52480,note_on,0,0,2,,,,,,,,,1,,74,104
52826,note_on,346,0,4,,,,,,,,,3,,46,0
52826,note_on,346,0,3,,,,,,,,,2,,58,0
52864,note_on,38,0,4,,,,,,,,,3,,46,81
52864,note_on,38,0,3,,,,,,,,,2,,58,85
52980,note_on,116,0,4,,,,,,,,,3,,46,0
52980,note_on,116,0,3,,,,,,,,,2,,58,0
52992,note_on,12,0,3,,,,,,,,,2,,58,109
52992,note_on,12,0,4,,,,,,,,,3,,46,107
53172,note_on,0,0,2,,,,,,,,,1,,74,0
53172,note_on,0,0,1,,,,,,,,,0,,77,0
53172,note_on,692,0,1,,,,,,,,,0,,70,0
53172,note_on,692,0,2,,,,,,,,,1,,65,0
53248,note_on,76,0,2,,,,,,,,,1,,67,107
53248,note_on,0,0,2,,,,,,,,,1,,75,107
53248,note_on,76,0,1,,,,,,,,,0,,70,109
53248,note_on,0,0,1,,,,,,,,,0,,79,109
53479,note_on,487,0,4,,,,,,,,,3,,46,0
53479,note_on,487,0,3,,,,,,,,,2,,58,0
53504,note_on,25,0,4,,,,,,,,,3,,43,78
53504,note_on,25,0,3,,,,,,,,,2,,55,75
53619,note_on,115,0,3,,,,,,,,,2,,55,0
53619,note_on,115,0,4,,,,,,,,,3,,43,0
53760,note_on,141,0,4,,,,,,,,,3,,45,84
53760,note_on,141,0,3,,,,,,,,,2,,57,89
53875,note_on,115,0,3,,,,,,,,,2,,57,0
53875,note_on,115,0,4,,,,,,,,,3,,45,0
53940,note_on,692,0,1,,,,,,,,,0,,70,0
53940,note_on,0,0,1,,,,,,,,,0,,79,0
53940,note_on,0,0,2,,,,,,,,,1,,75,0
53940,note_on,692,0,2,,,,,,,,,1,,67,0
54016,note_on,0,0,2,,,,,,,,,1,,74,77
54016,note_on,76,0,2,,,,,,,,,1,,65,77
54016,note_on,76,0,1,,,,,,,,,0,,70,80
54016,note_on,0,0,1,,,,,,,,,0,,77,80
54016,note_on,141,0,4,,,,,,,,,3,,46,85
54016,note_on,141,0,3,,,,,,,,,2,,58,87
54131,note_on,115,0,4,,,,,,,,,3,,46,0
54131,note_on,115,0,2,,,,,,,,,1,,65,0
54131,note_on,0,0,1,,,,,,,,,0,,77,0
54131,note_on,115,0,1,,,,,,,,,0,,70,0
54131,note_on,115,0,3,,,,,,,,,2,,58,0
54131,note_on,0,0,2,,,,,,,,,1,,74,0
54272,note_on,141,0,1,,,,,,,,,0,,76,66
54272,note_on,141,0,4,,,,,,,,,3,,58,82
54272,note_on,141,0,3,,,,,,,,,2,,67,81
54272,note_on,141,0,2,,,,,,,,,1,,73,69
54387,note_on,115,0,2,,,,,,,,,1,,73,0
54387,note_on,115,0,1,,,,,,,,,0,,76,0
54387,note_on,115,0,4,,,,,,,,,3,,58,0
54387,note_on,115,0,3,,,,,,,,,2,,67,0
54528,note_on,141,0,2,,,,,,,,,1,,74,76
54528,note_on,141,0,4,,,,,,,,,3,,58,70
54528,note_on,141,0,3,,,,,,,,,2,,68,75
54528,note_on,141,0,1,,,,,,,,,0,,77,78
54643,note_on,115,0,3,,,,,,,,,2,,68,0
54643,note_on,115,0,1,,,,,,,,,0,,77,0
54643,note_on,115,0,2,,,,,,,,,1,,74,0
54643,note_on,115,0,4,,,,,,,,,3,,58,0
54784,note_on,141,0,1,,,,,,,,,0,,76,69
54784,note_on,141,0,2,,,,,,,,,1,,73,71
54784,note_on,141,0,3,,,,,,,,,2,,67,69
54784,note_on,141,0,4,,,,,,,,,3,,58,71
54899,note_on,115,0,4,,,,,,,,,3,,58,0
54899,note_on,115,0,2,,,,,,,,,1,,73,0
54899,note_on,115,0,1,,,,,,,,,0,,76,0
54899,note_on,115,0,3,,,,,,,,,2,,67,0
55040,note_on,141,0,4,,,,,,,,,3,,58,69
55040,note_on,141,0,1,,,,,,,,,0,,77,76
55040,note_on,141,0,2,,,,,,,,,1,,74,74
55040,note_on,141,0,3,,,,,,,,,2,,68,77
55155,note_on,115,0,3,,,,,,,,,2,,68,0
55155,note_on,115,0,1,,,,,,,,,0,,77,0
55155,note_on,115,0,4,,,,,,,,,3,,58,0
55155,note_on,115,0,2,,,,,,,,,1,,74,0
55296,note_on,141,0,1,,,,,,,,,0,,74,68
55296,note_on,141,0,2,,,,,,,,,1,,65,55
55296,note_on,141,0,4,,,,,,,,,3,,58,69
55296,note_on,141,0,3,,,,,,,,,2,,68,71
55411,note_on,115,0,1,,,,,,,,,0,,74,0
55411,note_on,115,0,4,,,,,,,,,3,,58,0
55411,note_on,115,0,2,,,,,,,,,1,,65,0
55411,note_on,115,0,3,,,,,,,,,2,,68,0
55552,note_on,141,0,3,,,,,,,,,2,,69,71
55552,note_on,141,0,4,,,,,,,,,3,,57,71
55552,note_on,141,0,1,,,,,,,,,0,,77,71
55552,note_on,141,0,2,,,,,,,,,1,,74,71
55667,note_on,115,0,1,,,,,,,,,0,,77,0
55667,note_on,115,0,2,,,,,,,,,1,,74,0
55667,note_on,115,0,4,,,,,,,,,3,,57,0
55667,note_on,115,0,3,,,,,,,,,2,,69,0
55808,note_on,141,0,1,,,,,,,,,0,,81,83
55808,note_on,141,0,2,,,,,,,,,1,,77,83
55808,note_on,141,0,4,,,,,,,,,3,,45,83
55808,note_on,141,0,3,,,,,,,,,2,,74,83
55923,note_on,115,0,1,,,,,,,,,0,,81,0
55923,note_on,115,0,4,,,,,,,,,3,,45,0
55923,note_on,115,0,2,,,,,,,,,1,,77,0
55923,note_on,115,0,3,,,,,,,,,2,,74,0
56064,note_on,141,0,4,,,,,,,,,3,,45,96
56064,note_on,141,0,2,,,,,,,,,1,,79,96
56064,note_on,141,0,3,,,,,,,,,2,,76,96
56064,note_on,141,0,1,,,,,,,,,0,,85,96
56179,note_on,115,0,4,,,,,,,,,3,,45,0
56179,note_on,115,0,2,,,,,,,,,1,,79,0
56179,note_on,115,0,1,,,,,,,,,0,,85,0
56179,note_on,115,0,3,,,,,,,,,2,,76,0
56320,note_on,141,0,1,,,,,,,,,0,,86,102
56320,note_on,141,0,2,,,,,,,,,1,,77,91
56320,note_on,141,0,4,,,,,,,,,3,,50,103
56320,note_on,141,0,3,,,,,,,,,2,,74,89
56551,note_on,231,0,2,,,,,,,,,1,,77,0
56551,note_on,231,0,4,,,,,,,,,3,,50,0
56551,note_on,231,0,3,,,,,,,,,2,,74,0
56551,note_on,231,0,1,,,,,,,,,0,,86,0
56832,note_on,281,0,2,,,,,,,,,1,,74,88
56832,note_on,281,0,1,,,,,,,,,0,,77,89
57088,note_on,537,0,3,,,,,,,,,2,,67,86
57088,note_on,0,0,3,,,,,,,,,2,,70,86
57088,note_on,537,0,4,,,,,,,,,3,,62,91
57319,note_on,487,0,2,,,,,,,,,1,,74,0
57319,note_on,487,0,1,,,,,,,,,0,,77,0
57344,note_on,25,0,2,,,,,,,,,1,,70,77
57344,note_on,25,0,1,,,,,,,,,0,,74,78
57459,note_on,115,0,1,,,,,,,,,0,,74,0
57459,note_on,115,0,2,,,,,,,,,1,,70,0
57600,note_on,141,0,1,,,,,,,,,0,,76,88
57600,note_on,141,0,2,,,,,,,,,1,,73,92
57715,note_on,115,0,1,,,,,,,,,0,,76,0
57715,note_on,115,0,2,,,,,,,,,1,,73,0
57780,note_on,0,0,3,,,,,,,,,2,,70,0
57780,note_on,692,0,3,,,,,,,,,2,,67,0
57780,note_on,692,0,4,,,,,,,,,3,,62,0
57856,note_on,0,0,3,,,,,,,,,2,,69,88
57856,note_on,141,0,2,,,,,,,,,1,,74,86
57856,note_on,76,0,3,,,,,,,,,2,,65,88
57856,note_on,141,0,1,,,,,,,,,0,,77,87
57856,note_on,76,0,4,,,,,,,,,3,,62,95
58202,note_on,346,0,1,,,,,,,,,0,,77,0
58202,note_on,346,0,2,,,,,,,,,1,,74,0
58240,note_on,38,0,1,,,,,,,,,0,,77,84
58240,note_on,38,0,2,,,,,,,,,1,,74,85
58356,note_on,116,0,1,,,,,,,,,0,,77,0
58356,note_on,116,0,2,,,,,,,,,1,,74,0
58368,note_on,12,0,1,,,,,,,,,0,,77,112
58368,note_on,12,0,2,,,,,,,,,1,,74,107
58548,note_on,692,0,3,,,,,,,,,2,,65,0
58548,note_on,0,0,3,,,,,,,,,2,,69,0
58548,note_on,692,0,4,,,,,,,,,3,,62,0
58624,note_on,76,0,3,,,,,,,,,2,,67,100
58624,note_on,0,0,3,,,,,,,,,2,,70,100
58624,note_on,76,0,4,,,,,,,,,3,,62,97
58855,note_on,487,0,1,,,,,,,,,0,,77,0
58855,note_on,487,0,2,,,,,,,,,1,,74,0
58880,note_on,25,0,1,,,,,,,,,0,,74,75
58880,note_on,25,0,2,,,,,,,,,1,,70,70
58995,note_on,115,0,2,,,,,,,,,1,,70,0
58995,note_on,115,0,1,,,,,,,,,0,,74,0
59136,note_on,141,0,2,,,,,,,,,1,,73,88
59136,note_on,141,0,1,,,,,,,,,0,,76,88
59251,note_on,115,0,2,,,,,,,,,1,,73,0
59251,note_on,115,0,1,,,,,,,,,0,,76,0
59316,note_on,0,0,3,,,,,,,,,2,,70,0
59316,note_on,692,0,3,,,,,,,,,2,,67,0
59316,note_on,692,0,4,,,,,,,,,3,,62,0
59392,note_on,141,0,2,,,,,,,,,1,,74,89
59392,note_on,0,0,3,,,,,,,,,2,,69,90
59392,note_on,141,0,1,,,,,,,,,0,,77,91
59392,note_on,76,0,3,,,,,,,,,2,,65,90
59392,note_on,76,0,4,,,,,,,,,3,,62,95
59853,note_on,461,0,3,,,,,,,,,2,,65,0
59853,note_on,461,0,2,,,,,,,,,1,,74,0
59853,note_on,461,0,1,,,,,,,,,0,,77,0
59853,note_on,0,0,3,,,,,,,,,2,,69,0
59853,note_on,461,0,4,,,,,,,,,3,,62,0
59904,note_on,51,0,3,,,,,,,,,2,,62,90
59904,note_on,51,0,4,,,,,,,,,3,,58,103
60160,note_on,307,0,2,,,,,,,,,1,,70,99
60160,note_on,307,0,1,,,,,,,,,0,,79,100
60391,note_on,487,0,4,,,,,,,,,3,,58,0
60391,note_on,487,0,3,,,,,,,,,2,,62,0
60416,note_on,25,0,4,,,,,,,,,3,,55,78
60416,note_on,25,0,3,,,,,,,,,2,,63,88
60531,note_on,115,0,4,,,,,,,,,3,,55,0
60531,note_on,115,0,3,,,,,,,,,2,,63,0
60672,note_on,141,0,3,,,,,,,,,2,,61,80
60672,note_on,141,0,4,,,,,,,,,3,,57,85
60787,note_on,115,0,3,,,,,,,,,2,,61,0
60787,note_on,115,0,4,,,,,,,,,3,,57,0
60852,note_on,692,0,2,,,,,,,,,1,,70,0
60852,note_on,692,0,1,,,,,,,,,0,,79,0
60928,note_on,76,0,1,,,,,,,,,0,,77,100
60928,note_on,141,0,3,,,,,,,,,2,,62,90
60928,note_on,76,0,2,,,,,,,,,1,,70,103
60928,note_on,141,0,4,,,,,,,,,3,,58,87
61274,note_on,346,0,4,,,,,,,,,3,,58,0
61274,note_on,346,0,3,,,,,,,,,2,,62,0
61312,note_on,38,0,3,,,,,,,,,2,,62,84
61312,note_on,38,0,4,,,,,,,,,3,,58,82
61428,note_on,116,0,3,,,,,,,,,2,,62,0
61428,note_on,116,0,4,,,,,,,,,3,,58,0
61440,note_on,12,0,3,,,,,,,,,2,,62,107
61440,note_on,12,0,4,,,,,,,,,3,,58,110
61620,note_on,692,0,2,,,,,,,,,1,,70,0
61620,note_on,692,0,1,,,,,,,,,0,,77,0
61696,note_on,76,0,1,,,,,,,,,0,,79,115
61696,note_on,76,0,2,,,,,,,,,1,,70,107
61927,note_on,487,0,4,,,,,,,,,3,,58,0
61927,note_on,487,0,3,,,,,,,,,2,,62,0
61952,note_on,25,0,4,,,,,,,,,3,,55,79
61952,note_on,25,0,3,,,,,,,,,2,,63,90
62067,note_on,115,0,3,,,,,,,,,2,,63,0
62067,note_on,115,0,4,,,,,,,,,3,,55,0
62208,note_on,141,0,3,,,,,,,,,2,,61,77
62208,note_on,141,0,4,,,,,,,,,3,,57,89
62323,note_on,115,0,3,,,,,,,,,2,,61,0
62323,note_on,115,0,4,,,,,,,,,3,,57,0
62388,note_on,692,0,1,,,,,,,,,0,,79,0
62388,note_on,692,0,2,,,,,,,,,1,,70,0
62464,note_on,141,0,4,,,,,,,,,3,,58,88
62464,note_on,76,0,1,,,,,,,,,0,,77,102
62464,note_on,76,0,2,,,,,,,,,1,,70,115
62464,note_on,141,0,3,,,,,,,,,2,,62,85
62810,note_on,346,0,3,,,,,,,,,2,,62,0
62810,note_on,346,0,4,,,,,,,,,3,,58,0
62848,note_on,38,0,3,,,,,,,,,2,,62,87
62848,note_on,38,0,4,,,,,,,,,3,,58,83
62964,note_on,116,0,3,,,,,,,,,2,,62,0
62964,note_on,116,0,4,,,,,,,,,3,,58,0
62976,note_on,12,0,3,,,,,,,,,2,,62,82
62976,note_on,12,0,4,,,,,,,,,3,,58,82
63156,note_on,692,0,1,,,,,,,,,0,,77,0
63156,note_on,692,0,2,,,,,,,,,1,,70,0
63207,note_on,231,0,3,,,,,,,,,2,,62,0
63207,note_on,231,0,4,,,,,,,,,3,,58,0
63232,note_on,76,0,1,,,,,,,,,0,,76,83
63232,note_on,25,0,3,,,,,,,,,2,,67,83
63232,note_on,25,0,4,,,,,,,,,3,,58,83
63232,note_on,76,0,2,,,,,,,,,1,,73,83
63347,note_on,115,0,3,,,,,,,,,2,,67,0
63347,note_on,115,0,4,,,,,,,,,3,,58,0
63347,note_on,115,0,2,,,,,,,,,1,,73,0
63347,note_on,115,0,1,,,,,,,,,0,,76,0
63488,note_on,141,0,2,,,,,,,,,1,,74,88
63488,note_on,141,0,1,,,,,,,,,0,,77,88
63488,note_on,141,0,4,,,,,,,,,3,,58,88
63488,note_on,141,0,3,,,,,,,,,2,,68,88
63603,note_on,115,0,3,,,,,,,,,2,,68,0
63603,note_on,115,0,2,,,,,,,,,1,,74,0
63603,note_on,115,0,4,,,,,,,,,3,,58,0
63603,note_on,115,0,1,,,,,,,,,0,,77,0
63744,note_on,141,0,3,,,,,,,,,2,,67,93
63744,note_on,141,0,2,,,,,,,,,1,,73,93
63744,note_on,141,0,1,,,,,,,,,0,,76,93
63744,note_on,141,0,4,,,,,,,,,3,,58,93
63859,note_on,115,0,3,,,,,,,,,2,,67,0
63859,note_on,115,0,1,,,,,,,,,0,,76,0
63859,note_on,115,0,2,,,,,,,,,1,,73,0
63859,note_on,115,0,4,,,,,,,,,3,,58,0
64000,note_on,141,0,1,,,,,,,,,0,,77,99
64000,note_on,141,0,2,,,,,,,,,1,,74,99
64000,note_on,141,0,4,,,,,,,,,3,,58,98
64000,note_on,141,0,3,,,,,,,,,2,,68,99
64115,note_on,115,0,1,,,,,,,,,0,,77,0
64115,note_on,115,0,4,,,,,,,,,3,,58,0
64115,note_on,115,0,2,,,,,,,,,1,,74,0
64115,note_on,115,0,3,,,,,,,,,2,,68,0
64256,note_on,141,0,3,,,,,,,,,2,,67,104
64256,note_on,141,0,4,,,,,,,,,3,,58,102
64256,note_on,141,0,1,,,,,,,,,0,,76,104
64256,note_on,141,0,2,,,,,,,,,1,,73,104
64371,note_on,115,0,3,,,,,,,,,2,,67,0
64371,note_on,115,0,4,,,,,,,,,3,,58,0
64371,note_on,115,0,1,,,,,,,,,0,,76,0
64371,note_on,115,0,2,,,,,,,,,1,,73,0
64512,note_on,141,0,3,,,,,,,,,2,,68,109
64512,note_on,141,0,1,,,,,,,,,0,,77,109
64512,note_on,141,0,2,,,,,,,,,1,,74,109
64512,note_on,141,0,4,,,,,,,,,3,,58,107
64627,note_on,115,0,1,,,,,,,,,0,,77,0
64627,note_on,115,0,4,,,,,,,,,3,,58,0
64627,note_on,115,0,2,,,,,,,,,1,,74,0
64627,note_on,115,0,3,,,,,,,,,2,,68,0
64768,note_on,141,0,1,,,,,,,,,0,,77,115
64768,note_on,141,0,2,,,,,,,,,1,,74,115
64768,note_on,141,0,4,,,,,,,,,3,,57,105
64768,note_on,141,0,3,,,,,,,,,2,,69,119
64883,note_on,115,0,2,,,,,,,,,1,,74,0
64883,note_on,115,0,3,,,,,,,,,2,,69,0
64883,note_on,115,0,4,,,,,,,,,3,,57,0
64883,note_on,115,0,1,,,,,,,,,0,,77,0
65024,note_on,141,0,4,,,,,,,,,3,,45,100
65024,note_on,141,0,2,,,,,,,,,1,,69,126
65024,note_on,141,0,1,,,,,,,,,0,,81,126
65024,note_on,0,0,2,,,,,,,,,1,,77,126
65024,note_on,141,0,3,,,,,,,,,2,,74,124
65139,note_on,115,0,3,,,,,,,,,2,,74,0
65139,note_on,115,0,2,,,,,,,,,1,,69,0
65139,note_on,0,0,2,,,,,,,,,1,,77,0
65139,note_on,115,0,1,,,,,,,,,0,,81,0
65139,note_on,115,0,4,,,,,,,,,3,,45,0
65280,note_on,141,0,3,,,,,,,,,2,,76,123
65280,note_on,141,0,2,,,,,,,,,1,,69,118
65280,note_on,0,0,2,,,,,,,,,1,,79,118
65280,note_on,141,0,1,,,,,,,,,0,,85,126
65280,note_on,141,0,4,,,,,,,,,3,,45,113
65395,note_on,115,0,3,,,,,,,,,2,,76,0
65395,note_on,115,0,4,,,,,,,,,3,,45,0
65395,note_on,115,0,2,,,,,,,,,1,,69,0
65395,note_on,0,0,2,,,,,,,,,1,,79,0
65395,note_on,115,0,1,,,,,,,,,0,,85,0
65536,note_on,141,0,1,,,,,,,,,0,,86,117
65536,note_on,0,0,2,,,,,,,,,1,,77,107
65536,note_on,141,0,2,,,,,,,,,1,,69,107
65536,note_on,141,0,3,,,,,,,,,2,,74,106
65536,note_on,141,0,4,,,,,,,,,3,,38,102
65651,note_on,115,0,3,,,,,,,,,2,,74,0
65651,note_on,115,0,2,,,,,,,,,1,,69,0
65651,note_on,0,0,2,,,,,,,,,1,,77,0
65651,note_on,115,0,1,,,,,,,,,0,,86,0
65651,note_on,115,0,4,,,,,,,,,3,,38,0
65792,note_on,141,0,4,,,,,,,,,3,,45,118
65792,note_on,141,0,2,,,,,,,,,1,,57,93
65792,note_on,141,0,1,,,,,,,,,0,,57,99
65792,note_on,141,0,3,,,,,,,,,2,,57,96
65907,note_on,115,0,2,,,,,,,,,1,,57,0
65907,note_on,115,0,3,,,,,,,,,2,,57,0
65907,note_on,115,0,4,,,,,,,,,3,,45,0
65907,note_on,115,0,1,,,,,,,,,0,,57,0
66048,note_on,141,0,3,,,,,,,,,2,,61,122
66048,note_on,141,0,4,,,,,,,,,3,,49,115
66048,note_on,141,0,2,,,,,,,,,1,,61,126
66048,note_on,141,0,1,,,,,,,,,0,,61,123
66163,note_on,115,0,3,,,,,,,,,2,,61,0
66163,note_on,115,0,2,,,,,,,,,1,,61,0
66163,note_on,115,0,1,,,,,,,,,0,,61,0
66163,note_on,115,0,4,,,,,,,,,3,,49,0
66304,note_on,141,0,2,,,,,,,,,1,,62,127
66304,note_on,141,0,1,,,,,,,,,0,,62,127
66304,note_on,141,0,4,,,,,,,,,3,,50,127
66304,note_on,141,0,3,,,,,,,,,2,,62,127
66419,note_on,115,0,4,,,,,,,,,3,,50,0
66419,note_on,115,0,1,,,,,,,,,0,,62,0
66419,note_on,115,0,3,,,,,,,,,2,,62,0
66419,note_on,115,0,2,,,,,,,,,1,,62,0
66560,note_on,141,0,4,,,,,,,,,3,,45,105
66560,note_on,141,0,1,,,,,,,,,0,,57,102
66560,note_on,141,0,2,,,,,,,,,1,,57,101
66560,note_on,141,0,3,,,,,,,,,2,,57,106
66675,note_on,115,0,1,,,,,,,,,0,,57,0
66675,note_on,115,0,2,,,,,,,,,1,,57,0
66675,note_on,115,0,4,,,,,,,,,3,,45,0
66675,note_on,115,0,3,,,,,,,,,2,,57,0
66816,note_on,141,0,2,,,,,,,,,1,,61,126
66816,note_on,141,0,3,,,,,,,,,2,,61,123
66816,note_on,141,0,1,,,,,,,,,0,,61,126
66816,note_on,141,0,4,,,,,,,,,3,,49,116
66931,note_on,115,0,2,,,,,,,,,1,,61,0
66931,note_on,115,0,3,,,,,,,,,2,,61,0
66931,note_on,115,0,4,,,,,,,,,3,,49,0
66931,note_on,115,0,1,,,,,,,,,0,,61,0
67072,note_on,141,0,3,,,,,,,,,2,,62,127
67072,note_on,141,0,4,,,,,,,,,3,,50,127
67072,note_on,141,0,2,,,,,,,,,1,,62,127
67072,note_on,141,0,1,,,,,,,,,0,,62,127
67187,note_on,115,0,4,,,,,,,,,3,,50,0
67187,note_on,115,0,2,,,,,,,,,1,,62,0
67187,note_on,115,0,3,,,,,,,,,2,,62,0
67187,note_on,115,0,1,,,,,,,,,0,,62,0
67328,note_on,141,0,2,,,,,,,,,1,,57,103
67328,note_on,141,0,3,,,,,,,,,2,,57,108
67328,note_on,141,0,4,,,,,,,,,3,,45,107
67328,note_on,141,0,1,,,,,,,,,0,,57,108
67443,note_on,115,0,1,,,,,,,,,0,,57,0
67443,note_on,115,0,3,,,,,,,,,2,,57,0
67443,note_on,115,0,4,,,,,,,,,3,,45,0
67443,note_on,115,0,2,,,,,,,,,1,,57,0
67584,note_on,141,0,2,,,,,,,,,1,,61,118
67584,note_on,141,0,4,,,,,,,,,3,,49,118
67584,note_on,141,0,3,,,,,,,,,2,,61,122
67584,note_on,141,0,1,,,,,,,,,0,,61,126
67699,note_on,115,0,2,,,,,,,,,1,,61,0
67699,note_on,115,0,1,,,,,,,,,0,,61,0
67699,note_on,115,0,4,,,,,,,,,3,,49,0
67699,note_on,115,0,3,,,,,,,,,2,,61,0
67840,note_on,0,0,1,,,,,,,,,0,,62,111
67840,note_on,141,0,1,,,,,,,,,0,,62,127
67840,note_on,141,0,3,,,,,,,,,2,,62,127
67840,note_on,0,0,3,,,,,,,,,2,,62,116
67840,note_on,0,0,2,,,,,,,,,1,,62,121
67840,note_on,141,0,4,,,,,,,,,3,,50,127
67840,note_on,141,0,2,,,,,,,,,1,,62,127
68186,note_on,346,0,2,,,,,,,,,1,,62,0
68186,note_on,346,0,1,,,,,,,,,0,,62,0
68186,note_on,346,0,4,,,,,,,,,3,,50,0
68186,note_on,0,0,1,,,,,,,,,0,,62,0
68186,note_on,346,0,3,,,,,,,,,2,,62,0
68186,note_on,0,0,3,,,,,,,,,2,,62,0
68186,note_on,0,0,2,,,,,,,,,1,,62,0
68224,note_on,0,0,3,,,,,,,,,2,,62,124
68224,note_on,38,0,3,,,,,,,,,2,,62,112
68224,note_on,0,0,1,,,,,,,,,0,,62,122
68224,note_on,38,0,4,,,,,,,,,3,,50,111
68224,note_on,38,0,2,,,,,,,,,1,,62,114
68224,note_on,0,0,2,,,,,,,,,1,,62,126
68224,note_on,38,0,1,,,,,,,,,0,,62,115
68340,note_on,0,0,1,,,,,,,,,0,,62,0
68340,note_on,116,0,3,,,,,,,,,2,,62,0
68340,note_on,0,0,2,,,,,,,,,1,,62,0
68340,note_on,116,0,2,,,,,,,,,1,,62,0
68340,note_on,0,0,3,,,,,,,,,2,,62,0
68340,note_on,116,0,1,,,,,,,,,0,,62,0
68340,note_on,116,0,4,,,,,,,,,3,,50,0
68352,note_on,12,0,1,,,,,,,,,0,,62,112
68352,note_on,12,0,2,,,,,,,,,1,,62,117
68352,note_on,0,0,2,,,,,,,,,1,,62,126
68352,note_on,0,0,3,,,,,,,,,2,,62,126
68352,note_on,0,0,1,,,,,,,,,0,,62,123
68352,note_on,12,0,3,,,,,,,,,2,,62,115
68352,note_on,12,0,4,,,,,,,,,3,,50,114
68583,note_on,231,0,4,,,,,,,,,3,,50,0
68583,note_on,231,0,3,,,,,,,,,2,,62,0
68583,note_on,0,0,3,,,,,,,,,2,,62,0
68583,note_on,0,0,1,,,,,,,,,0,,62,0
68583,note_on,231,0,1,,,,,,,,,0,,62,0
68583,note_on,0,0,2,,,,,,,,,1,,62,0
68583,note_on,231,0,2,,,,,,,,,1,,62,0
69120,note_on,0,0,4,,,,,,,,,3,,45,113
69120,time_signature,537,1,4,3,4,24,8,,,,,,,,
69120,note_on,0,0,3,,,,,,,,,2,,57,110
69120,time_signature,537,1,2,3,4,24,8,,,,,,,,
69120,time_signature,537,1,1,3,4,24,8,,,,,,,,
69120,time_signature,537,1,3,3,4,24,8,,,,,,,,
69120,key_signature,52224,1,0,,,,,D,,,,,,,
69376,time_signature,256,1,3,3,4,24,8,,,,,,,,
69376,note_on,0,0,1,,,,,,,,,0,,77,111
69376,note_on,0,0,1,,,,,,,,,0,,69,111
69376,time_signature,256,1,1,3,4,24,8,,,,,,,,
69376,time_signature,256,1,2,3,4,24,8,,,,,,,,
69376,time_signature,256,1,4,3,4,24,8,,,,,,,,
69376,note_on,0,0,2,,,,,,,,,1,,74,110
69376,note_on,0,0,2,,,,,,,,,1,,65,110
69607,note_on,231,0,3,,,,,,,,,2,,57,0
69607,note_on,231,0,4,,,,,,,,,3,,45,0
69632,note_on,25,0,3,,,,,,,,,2,,53,90
69632,note_on,25,0,4,,,,,,,,,3,,41,92
69747,note_on,115,0,4,,,,,,,,,3,,41,0
69747,note_on,115,0,3,,,,,,,,,2,,53,0
69888,note_on,141,0,3,,,,,,,,,2,,55,98
69888,note_on,141,0,4,,,,,,,,,3,,43,96
70003,note_on,115,0,4,,,,,,,,,3,,43,0
70003,note_on,115,0,3,,,,,,,,,2,,55,0
70068,note_on,0,0,2,,,,,,,,,1,,74,0
70068,note_on,0,0,1,,,,,,,,,0,,77,0
70068,note_on,692,0,2,,,,,,,,,1,,65,0
70068,note_on,692,0,1,,,,,,,,,0,,69,0
70144,note_on,76,0,1,,,,,,,,,0,,69,122
70144,note_on,0,0,1,,,,,,,,,0,,76,122
70144,note_on,141,0,3,,,,,,,,,2,,57,102
70144,note_on,141,0,4,,,,,,,,,3,,45,100
70144,note_on,0,0,2,,,,,,,,,1,,64,127
70144,note_on,76,0,2,,,,,,,,,1,,74,119
70490,note_on,346,0,4,,,,,,,,,3,,45,0
70490,note_on,346,0,3,,,,,,,,,2,,57,0
70528,note_on,38,0,3,,,,,,,,,2,,57,91
70528,note_on,38,0,4,,,,,,,,,3,,45,94
70644,note_on,116,0,4,,,,,,,,,3,,45,0
70644,note_on,116,0,3,,,,,,,,,2,,57,0
70656,note_on,12,0,4,,,,,,,,,3,,45,126
70656,note_on,12,0,3,,,,,,,,,2,,57,119
70656,note_on,512,0,2,,,,,,,,,1,,73,91
70681,note_on,25,0,2,,,,,,,,,1,,74,0
70793,note_on,112,0,2,,,,,,,,,1,,64,0
70836,note_on,692,0,1,,,,,,,,,0,,69,0
70836,note_on,0,0,1,,,,,,,,,0,,76,0
70860,note_on,67,0,2,,,,,,,,,1,,73,0
70912,note_on,52,0,2,,,,,,,,,1,,69,122
70912,note_on,0,0,2,,,,,,,,,1,,72,122
70912,note_on,0,0,1,,,,,,,,,0,,75,117
70912,note_on,76,0,1,,,,,,,,,0,,66,117
71143,note_on,487,0,3,,,,,,,,,2,,57,0
71143,note_on,487,0,4,,,,,,,,,3,,45,0
71168,note_on,25,0,4,,,,,,,,,3,,42,93
71168,note_on,25,0,3,,,,,,,,,2,,54,93
71283,note_on,115,0,4,,,,,,,,,3,,42,0
71283,note_on,115,0,3,,,,,,,,,2,,54,0
71424,note_on,141,0,3,,,,,,,,,2,,50,90
71424,note_on,141,0,4,,,,,,,,,3,,38,91
71539,note_on,115,0,4,,,,,,,,,3,,38,0
71539,note_on,115,0,3,,,,,,,,,2,,50,0
71604,note_on,692,0,2,,,,,,,,,1,,69,0
71604,note_on,0,0,1,,,,,,,,,0,,75,0
71604,note_on,692,0,1,,,,,,,,,0,,66,0
71604,note_on,0,0,2,,,,,,,,,1,,72,0
71680,note_on,0,0,2,,,,,,,,,1,,67,127
71680,note_on,76,0,1,,,,,,,,,0,,67,117
71680,note_on,0,0,1,,,,,,,,,0,,74,117
71680,note_on,141,0,3,,,,,,,,,2,,55,106
71680,note_on,141,0,4,,,,,,,,,3,,43,107
71680,note_on,76,0,2,,,,,,,,,1,,72,121
72026,note_on,346,0,3,,,,,,,,,2,,55,0
72026,note_on,346,0,4,,,,,,,,,3,,43,0
72064,note_on,38,0,3,,,,,,,,,2,,55,99
72064,note_on,38,0,4,,,,,,,,,3,,43,100
72141,note_on,461,0,2,,,,,,,,,1,,72,0
72180,note_on,116,0,3,,,,,,,,,2,,55,0
72180,note_on,116,0,4,,,,,,,,,3,,43,0
72192,note_on,51,0,2,,,,,,,,,1,,71,92
72192,note_on,12,0,3,,,,,,,,,2,,55,122
72192,note_on,12,0,4,,,,,,,,,3,,43,117
72372,note_on,180,0,2,,,,,,,,,1,,67,0
72372,note_on,0,0,1,,,,,,,,,0,,74,0
72372,note_on,692,0,1,,,,,,,,,0,,67,0
72423,note_on,51,0,2,,,,,,,,,1,,71,0
72448,note_on,0,0,1,,,,,,,,,0,,73,114
72448,note_on,76,0,1,,,,,,,,,0,,64,114
72448,note_on,0,0,2,,,,,,,,,1,,70,114
72448,note_on,25,0,2,,,,,,,,,1,,67,114
72679,note_on,487,0,3,,,,,,,,,2,,55,0
72679,note_on,487,0,4,,,,,,,,,3,,43,0
72704,note_on,25,0,4,,,,,,,,,3,,40,93
72704,note_on,25,0,3,,,,,,,,,2,,52,86
72819,note_on,115,0,4,,,,,,,,,3,,40,0
72819,note_on,115,0,3,,,,,,,,,2,,52,0
72960,note_on,141,0,3,,,,,,,,,2,,48,93
72960,note_on,141,0,4,,,,,,,,,3,,36,88
73075,note_on,115,0,4,,,,,,,,,3,,36,0
73075,note_on,115,0,3,,,,,,,,,2,,48,0
73140,note_on,692,0,1,,,,,,,,,0,,64,0
73140,note_on,0,0,1,,,,,,,,,0,,73,0
73140,note_on,692,0,2,,,,,,,,,1,,67,0
73140,note_on,0,0,2,,,,,,,,,1,,70,0
73216,note_on,0,0,1,,,,,,,,,0,,72,118
73216,note_on,76,0,2,,,,,,,,,1,,70,120
73216,note_on,141,0,4,,,,,,,,,3,,41,126
73216,note_on,0,0,2,,,,,,,,,1,,65,127
73216,note_on,76,0,1,,,,,,,,,0,,65,118
73216,note_on,141,0,3,,,,,,,,,2,,53,127
73472,note_on,256,0,2,,,,,,,,,1,,69,92
73484,note_on,12,0,2,,,,,,,,,1,,70,0
73676,note_on,192,0,2,,,,,,,,,1,,69,0
73677,note_on,461,0,4,,,,,,,,,3,,41,0
73677,note_on,461,0,1,,,,,,,,,0,,65,0
73677,note_on,0,0,1,,,,,,,,,0,,72,0
73677,note_on,461,0,3,,,,,,,,,2,,53,0
73728,note_on,51,0,3,,,,,,,,,2,,55,102
73728,note_on,51,0,1,,,,,,,,,0,,62,90
73728,note_on,51,0,4,,,,,,,,,3,,43,99
73728,note_on,0,0,1,,,,,,,,,0,,70,90
73728,note_on,52,0,2,,,,,,,,,1,,67,94
73865,note_on,137,0,2,,,,,,,,,1,,65,0
73959,note_on,0,0,1,,,,,,,,,0,,70,0
73959,note_on,231,0,1,,,,,,,,,0,,62,0
73959,note_on,94,0,2,,,,,,,,,1,,67,0
73959,note_on,231,0,3,,,,,,,,,2,,55,0
73959,note_on,231,0,4,,,,,,,,,3,,43,0
73984,note_on,0,0,1,,,,,,,,,0,,69,115
73984,note_on,25,0,3,,,,,,,,,2,,57,125
73984,note_on,25,0,2,,,,,,,,,1,,67,119
73984,note_on,25,0,4,,,,,,,,,3,,45,124
73984,note_on,25,0,1,,,,,,,,,0,,62,115
74330,note_on,346,0,3,,,,,,,,,2,,57,0
74330,note_on,346,0,4,,,,,,,,,3,,45,0
74368,note_on,38,0,4,,,,,,,,,3,,45,98
74368,note_on,38,0,3,,,,,,,,,2,,57,97
74445,note_on,461,0,2,,,,,,,,,1,,67,0
74484,note_on,116,0,3,,,,,,,,,2,,57,0
74484,note_on,116,0,4,,,,,,,,,3,,45,0
74496,note_on,12,0,3,,,,,,,,,2,,57,97
74496,note_on,51,0,2,,,,,,,,,1,,65,91
74496,note_on,12,0,4,,,,,,,,,3,,45,101
74676,note_on,692,0,1,,,,,,,,,0,,62,0
74676,note_on,0,0,1,,,,,,,,,0,,69,0
74727,note_on,231,0,2,,,,,,,,,1,,65,0
74727,note_on,231,0,3,,,,,,,,,2,,57,0
74727,note_on,231,0,4,,,,,,,,,3,,45,0
74752,note_on,0,0,2,,,,,,,,,1,,62,127
74752,note_on,25,0,2,,,,,,,,,1,,65,122
74752,note_on,76,0,1,,,,,,,,,0,,67,90
74752,note_on,25,0,4,,,,,,,,,3,,46,127
74752,note_on,25,0,3,,,,,,,,,2,,58,121
75098,note_on,346,0,4,,,,,,,,,3,,46,0
75098,note_on,346,0,3,,,,,,,,,2,,58,0
75136,note_on,38,0,4,,,,,,,,,3,,46,95
75136,note_on,38,0,3,,,,,,,,,2,,58,100
75213,note_on,461,0,2,,,,,,,,,1,,65,0
75252,note_on,116,0,3,,,,,,,,,2,,58,0
75252,note_on,116,0,4,,,,,,,,,3,,46,0
75264,note_on,12,0,4,,,,,,,,,3,,46,99
75264,note_on,12,0,3,,,,,,,,,2,,58,95
75264,note_on,51,0,2,,,,,,,,,1,,64,91
75444,note_on,180,0,2,,,,,,,,,1,,62,0
75444,note_on,692,0,1,,,,,,,,,0,,67,0
75495,note_on,51,0,2,,,,,,,,,1,,64,0
75495,note_on,231,0,3,,,,,,,,,2,,58,0
75495,note_on,231,0,4,,,,,,,,,3,,46,0
75520,note_on,0,0,2,,,,,,,,,1,,64,101
75520,note_on,25,0,2,,,,,,,,,1,,62,101
75520,note_on,25,0,4,,,,,,,,,3,,45,94
75520,note_on,25,0,3,,,,,,,,,2,,57,92
75520,note_on,76,0,1,,,,,,,,,0,,69,102
75635,note_on,115,0,1,,,,,,,,,0,,69,0
75635,note_on,115,0,4,,,,,,,,,3,,45,0
75635,note_on,115,0,2,,,,,,,,,1,,62,0
75635,note_on,0,0,2,,,,,,,,,1,,64,0
75635,note_on,115,0,3,,,,,,,,,2,,57,0
75776,note_on,141,0,1,,,,,,,,,0,,64,85
75776,note_on,141,0,2,,,,,,,,,1,,61,98
75776,note_on,141,0,3,,,,,,,,,2,,57,98
75776,note_on,0,0,2,,,,,,,,,1,,64,98
75776,note_on,141,0,4,,,,,,,,,3,,45,101
75891,note_on,115,0,2,,,,,,,,,1,,61,0
75891,note_on,0,0,2,,,,,,,,,1,,64,0
75891,note_on,115,0,4,,,,,,,,,3,,45,0
75891,note_on,115,0,1,,,,,,,,,0,,64,0
75891,note_on,115,0,3,,,,,,,,,2,,57,0
76032,note_on,141,0,1,,,,,,,,,0,,59,106
76032,note_on,141,0,4,,,,,,,,,3,,45,93
76032,note_on,141,0,3,,,,,,,,,2,,57,95
76032,note_on,141,0,2,,,,,,,,,1,,62,95
76032,note_on,0,0,1,,,,,,,,,0,,68,106
76032,note_on,0,0,2,,,,,,,,,1,,64,95
76147,note_on,115,0,2,,,,,,,,,1,,62,0
76147,note_on,115,0,1,,,,,,,,,0,,59,0
76147,note_on,115,0,3,,,,,,,,,2,,57,0
76147,note_on,0,0,1,,,,,,,,,0,,68,0
76147,note_on,115,0,4,,,,,,,,,3,,45,0
76147,note_on,0,0,2,,,,,,,,,1,,64,0
76288,note_on,0,0,1,,,,,,,,,0,,69,100
76288,note_on,141,0,4,,,,,,,,,3,,45,95
76288,note_on,141,0,1,,,,,,,,,0,,57,100
76288,note_on,141,0,3,,,,,,,,,2,,57,98
76288,note_on,141,0,2,,,,,,,,,1,,61,98
76288,note_on,0,0,2,,,,,,,,,1,,64,98
76749,note_on,461,0,1,,,,,,,,,0,,57,0
76749,note_on,461,0,4,,,,,,,,,3,,45,0
76749,note_on,461,0,2,,,,,,,,,1,,61,0
76749,note_on,0,0,2,,,,,,,,,1,,64,0
76749,note_on,461,0,3,,,,,,,,,2,,57,0
76749,note_on,0,0,1,,,,,,,,,0,,69,0
76800,note_on,51,0,2,,,,,,,,,1,,69,65
77031,note_on,231,0,2,,,,,,,,,1,,69,0
77056,note_on,25,0,2,,,,,,,,,1,,69,72
77056,note_on,307,0,3,,,,,,,,,2,,60,64
77056,note_on,307,0,4,,,,,,,,,3,,54,65
77158,note_on,102,0,2,,,,,,,,,1,,69,0
77158,note_on,0,0,2,,,,,,,,,1,,75,107
77171,note_on,115,0,3,,,,,,,,,2,,60,0
77214,note_on,56,0,2,,,,,,,,,1,,75,0
77312,note_on,98,0,2,,,,,,,,,1,,74,72
77312,note_on,141,0,3,,,,,,,,,2,,57,64
77427,note_on,115,0,2,,,,,,,,,1,,74,0
77427,note_on,115,0,3,,,,,,,,,2,,57,0
77568,note_on,141,0,3,,,,,,,,,2,,62,105
77568,note_on,141,0,2,,,,,,,,,1,,72,71
77683,note_on,115,0,2,,,,,,,,,1,,72,0
77748,note_on,692,0,4,,,,,,,,,3,,54,0
77824,note_on,76,0,4,,,,,,,,,3,,55,71
77824,note_on,141,0,2,,,,,,,,,1,,72,70
77892,note_on,68,0,2,,,,,,,,,1,,72,0
77892,note_on,0,0,2,,,,,,,,,1,,70,99
77939,note_on,115,0,4,,,,,,,,,3,,55,0
77964,note_on,72,0,2,,,,,,,,,1,,70,0
78080,note_on,141,0,4,,,,,,,,,3,,57,73
78080,note_on,116,0,2,,,,,,,,,1,,69,70
78170,note_on,602,0,3,,,,,,,,,2,,62,0
78195,note_on,115,0,2,,,,,,,,,1,,69,0
78195,note_on,115,0,4,,,,,,,,,3,,57,0
78208,note_on,38,0,3,,,,,,,,,2,,62,74
78324,note_on,116,0,3,,,,,,,,,2,,62,0
78336,note_on,12,0,3,,,,,,,,,2,,62,74
78336,note_on,141,0,2,,,,,,,,,1,,67,67
78336,note_on,141,0,4,,,,,,,,,3,,58,76
78451,note_on,115,0,2,,,,,,,,,1,,67,0
78451,note_on,115,0,4,,,,,,,,,3,,58,0
78567,note_on,231,0,3,,,,,,,,,2,,62,0
78592,note_on,1843,0,1,,,,,,,,,0,,76,65
78592,note_on,141,0,4,,,,,,,,,3,,49,64
78592,note_on,25,0,3,,,,,,,,,2,,55,69
78669,note_on,77,0,1,,,,,,,,,0,,76,0
78669,note_on,0,0,1,,,,,,,,,0,,82,109
78707,note_on,115,0,3,,,,,,,,,2,,55,0
78736,note_on,67,0,1,,,,,,,,,0,,82,0
78848,note_on,141,0,3,,,,,,,,,2,,52,70
78848,note_on,112,0,1,,,,,,,,,0,,81,67
78963,note_on,115,0,1,,,,,,,,,0,,81,0
78963,note_on,115,0,3,,,,,,,,,2,,52,0
79104,note_on,141,0,1,,,,,,,,,0,,79,62
79104,note_on,141,0,3,,,,,,,,,2,,57,104
79219,note_on,115,0,1,,,,,,,,,0,,79,0
79284,note_on,692,0,4,,,,,,,,,3,,49,0
79360,note_on,141,0,1,,,,,,,,,0,,79,70
79360,note_on,76,0,4,,,,,,,,,3,,50,71
79424,note_on,64,0,1,,,,,,,,,0,,79,0
79424,note_on,0,0,1,,,,,,,,,0,,77,66
79475,note_on,115,0,4,,,,,,,,,3,,50,0
79497,note_on,73,0,1,,,,,,,,,0,,77,0
79616,note_on,119,0,1,,,,,,,,,0,,76,64
79616,note_on,141,0,4,,,,,,,,,3,,52,76
79706,note_on,602,0,3,,,,,,,,,2,,57,0
79731,note_on,115,0,4,,,,,,,,,3,,52,0
79731,note_on,115,0,1,,,,,,,,,0,,76,0
79744,note_on,38,0,3,,,,,,,,,2,,57,67
79860,note_on,116,0,3,,,,,,,,,2,,57,0
79872,note_on,12,0,3,,,,,,,,,2,,57,69
79872,note_on,141,0,1,,,,,,,,,0,,74,66
79872,note_on,141,0,4,,,,,,,,,3,,53,66
79987,note_on,115,0,1,,,,,,,,,0,,74,0
79987,note_on,115,0,4,,,,,,,,,3,,53,0
80103,note_on,231,0,3,,,,,,,,,2,,57,0
80128,note_on,25,0,3,,,,,,,,,2,,62,78
80128,note_on,141,0,4,,,,,,,,,3,,50,69
80128,note_on,1677,0,2,,,,,,,,,1,,62,59
80128,note_on,141,0,1,,,,,,,,,0,,62,54
80205,note_on,0,0,2,,,,,,,,,1,,67,106
80205,note_on,77,0,2,,,,,,,,,1,,62,0
80209,note_on,0,0,1,,,,,,,,,0,,67,100
80209,note_on,81,0,3,,,,,,,,,2,,62,0
80209,note_on,0,0,3,,,,,,,,,2,,67,108
80209,note_on,81,0,1,,,,,,,,,0,,62,0
80222,note_on,94,0,4,,,,,,,,,3,,50,0
80222,note_on,0,0,4,,,,,,,,,3,,55,98
80272,note_on,67,0,2,,,,,,,,,1,,67,0
80274,note_on,65,0,1,,,,,,,,,0,,67,0
80274,note_on,65,0,3,,,,,,,,,2,,67,0
80282,note_on,60,0,4,,,,,,,,,3,,55,0
80384,note_on,102,0,4,,,,,,,,,3,,53,69
80384,note_on,110,0,3,,,,,,,,,2,,65,66
80384,note_on,112,0,2,,,,,,,,,1,,65,68
80384,note_on,110,0,1,,,,,,,,,0,,65,65
80499,note_on,115,0,3,,,,,,,,,2,,65,0
80499,note_on,115,0,2,,,,,,,,,1,,65,0
80499,note_on,115,0,4,,,,,,,,,3,,53,0
80499,note_on,115,0,1,,,,,,,,,0,,65,0
80640,note_on,141,0,1,,,,,,,,,0,,64,62
80640,note_on,141,0,2,,,,,,,,,1,,64,63
80640,note_on,141,0,4,,,,,,,,,3,,52,74
80640,note_on,141,0,3,,,,,,,,,2,,64,70
80755,note_on,115,0,1,,,,,,,,,0,,64,0
80755,note_on,115,0,4,,,,,,,,,3,,52,0
80755,note_on,115,0,3,,,,,,,,,2,,64,0
80755,note_on,115,0,2,,,,,,,,,1,,64,0
80896,note_on,141,0,4,,,,,,,,,3,,52,70
80896,note_on,141,0,1,,,,,,,,,0,,64,66
80896,note_on,141,0,3,,,,,,,,,2,,64,69
80896,note_on,141,0,2,,,,,,,,,1,,64,70
80964,note_on,0,0,2,,,,,,,,,1,,62,91
80964,note_on,68,0,2,,,,,,,,,1,,64,0
80973,note_on,77,0,3,,,,,,,,,2,,64,0
80973,note_on,0,0,3,,,,,,,,,2,,62,94
80977,note_on,0,0,4,,,,,,,,,3,,50,93
80977,note_on,81,0,1,,,,,,,,,0,,64,0
80977,note_on,0,0,1,,,,,,,,,0,,62,89
80977,note_on,81,0,4,,,,,,,,,3,,52,0
81036,note_on,72,0,2,,,,,,,,,1,,62,0
81040,note_on,67,0,3,,,,,,,,,2,,62,0
81042,note_on,65,0,4,,,,,,,,,3,,50,0
81042,note_on,65,0,1,,,,,,,,,0,,62,0
81152,note_on,112,0,3,,,,,,,,,2,,60,67
81152,note_on,116,0,2,,,,,,,,,1,,60,70
81152,note_on,110,0,1,,,,,,,,,0,,60,65
81152,note_on,110,0,4,,,,,,,,,3,,48,67
81267,note_on,115,0,3,,,,,,,,,2,,60,0
81267,note_on,115,0,2,,,,,,,,,1,,60,0
81267,note_on,115,0,4,,,,,,,,,3,,48,0
81267,note_on,115,0,1,,,,,,,,,0,,60,0
81408,note_on,141,0,4,,,,,,,,,3,,46,69
81408,note_on,141,0,2,,,,,,,,,1,,58,68
81408,note_on,141,0,1,,,,,,,,,0,,58,67
81408,note_on,141,0,3,,,,,,,,,2,,58,69
81523,note_on,115,0,3,,,,,,,,,2,,58,0
81523,note_on,115,0,4,,,,,,,,,3,,46,0
81523,note_on,115,0,2,,,,,,,,,1,,58,0
81523,note_on,115,0,1,,,,,,,,,0,,58,0
81664,note_on,141,0,4,,,,,,,,,3,,45,95
81664,note_on,0,0,3,,,,,,,,,2,,57,94
81664,note_on,0,0,1,,,,,,,,,0,,65,106
81664,note_on,141,0,2,,,,,,,,,1,,62,100
81664,note_on,141,0,3,,,,,,,,,2,,53,94
81664,note_on,141,0,1,,,,,,,,,0,,57,106
82356,note_on,692,0,4,,,,,,,,,3,,45,0
82356,note_on,692,0,1,,,,,,,,,0,,57,0
82356,note_on,0,0,1,,,,,,,,,0,,65,0
82356,note_on,692,0,3,,,,,,,,,2,,53,0
82356,note_on,692,0,2,,,,,,,,,1,,62,0
82356,note_on,0,0,3,,,,,,,,,2,,57,0
82432,note_on,76,0,4,,,,,,,,,3,,45,97
82432,note_on,0,0,1,,,,,,,,,0,,64,92
82432,note_on,76,0,2,,,,,,,,,1,,61,93
82432,note_on,76,0,3,,,,,,,,,2,,57,92
82432,note_on,76,0,1,,,,,,,,,0,,57,92
83124,note_on,692,0,2,,,,,,,,,1,,61,0
83124,note_on,692,0,1,,,,,,,,,0,,57,0
83124,note_on,0,0,1,,,,,,,,,0,,64,0
83124,note_on,692,0,4,,,,,,,,,3,,45,0
83124,note_on,692,0,3,,,,,,,,,2,,57,0
83200,note_on,76,0,4,,,,,,,,,3,,50,100
83200,note_on,76,0,1,,,,,,,,,0,,62,91
83200,note_on,76,0,2,,,,,,,,,1,,57,90
83200,note_on,76,0,3,,,,,,,,,2,,53,94
83661,note_on,461,0,1,,,,,,,,,0,,62,0
83661,note_on,461,0,3,,,,,,,,,2,,53,0
83661,note_on,461,0,4,,,,,,,,,3,,50,0
83661,note_on,461,0,2,,,,,,,,,1,,57,0
83712,note_on,51,0,1,,,,,,,,,0,,86,118
83712,note_on,51,0,2,,,,,,,,,1,,74,116
83968,note_on,307,0,3,,,,,,,,,2,,55,95
83968,note_on,0,0,3,,,,,,,,,2,,62,95
83968,note_on,0,0,4,,,,,,,,,3,,58,101
83968,note_on,307,0,4,,,,,,,,,3,,50,101
84199,note_on,487,0,1,,,,,,,,,0,,86,0
84199,note_on,487,0,2,,,,,,,,,1,,74,0
84224,note_on,25,0,2,,,,,,,,,1,,70,74
84224,note_on,25,0,1,,,,,,,,,0,,82,77
84339,note_on,115,0,1,,,,,,,,,0,,82,0
84339,note_on,115,0,2,,,,,,,,,1,,70,0
84480,note_on,141,0,1,,,,,,,,,0,,84,87
84480,note_on,141,0,2,,,,,,,,,1,,72,87
84595,note_on,115,0,2,,,,,,,,,1,,72,0
84595,note_on,115,0,1,,,,,,,,,0,,84,0
84660,note_on,692,0,3,,,,,,,,,2,,55,0
84660,note_on,692,0,4,,,,,,,,,3,,50,0
84660,note_on,0,0,4,,,,,,,,,3,,58,0
84660,note_on,0,0,3,,,,,,,,,2,,62,0
84736,note_on,0,0,4,,,,,,,,,3,,57,104
84736,note_on,76,0,4,,,,,,,,,3,,50,104
84736,note_on,76,0,3,,,,,,,,,2,,53,106
84736,note_on,141,0,1,,,,,,,,,0,,86,91
84736,note_on,141,0,2,,,,,,,,,1,,74,89
84736,note_on,0,0,3,,,,,,,,,2,,62,106
85082,note_on,346,0,2,,,,,,,,,1,,74,0
85082,note_on,346,0,1,,,,,,,,,0,,86,0
85120,note_on,38,0,2,,,,,,,,,1,,74,83
85120,note_on,38,0,1,,,,,,,,,0,,86,81
85236,note_on,116,0,1,,,,,,,,,0,,86,0
85236,note_on,116,0,2,,,,,,,,,1,,74,0
85248,note_on,12,0,1,,,,,,,,,0,,86,107
85248,note_on,12,0,2,,,,,,,,,1,,74,106
85428,note_on,0,0,4,,,,,,,,,3,,57,0
85428,note_on,0,0,3,,,,,,,,,2,,62,0
85428,note_on,692,0,3,,,,,,,,,2,,53,0
85428,note_on,692,0,4,,,,,,,,,3,,50,0
85504,note_on,0,0,3,,,,,,,,,2,,62,108
85504,note_on,76,0,3,,,,,,,,,2,,55,108
85504,note_on,0,0,4,,,,,,,,,3,,58,111
85504,note_on,76,0,4,,,,,,,,,3,,50,111
85735,note_on,487,0,1,,,,,,,,,0,,86,0
85735,note_on,487,0,2,,,,,,,,,1,,74,0
85760,note_on,25,0,1,,,,,,,,,0,,82,71
85760,note_on,25,0,2,,,,,,,,,1,,70,70
85875,note_on,115,0,1,,,,,,,,,0,,82,0
85875,note_on,115,0,2,,,,,,,,,1,,70,0
86016,note_on,141,0,2,,,,,,,,,1,,72,88
86016,note_on,141,0,1,,,,,,,,,0,,84,95
86131,note_on,115,0,2,,,,,,,,,1,,72,0
86131,note_on,115,0,1,,,,,,,,,0,,84,0
86196,note_on,0,0,3,,,,,,,,,2,,62,0
86196,note_on,692,0,3,,,,,,,,,2,,55,0
86196,note_on,692,0,4,,,,,,,,,3,,50,0
86196,note_on,0,0,4,,,,,,,,,3,,58,0
86272,note_on,76,0,4,,,,,,,,,3,,50,109
86272,note_on,0,0,4,,,,,,,,,3,,57,109
86272,note_on,141,0,2,,,,,,,,,1,,74,113
86272,note_on,0,0,3,,,,,,,,,2,,62,110
86272,note_on,76,0,3,,,,,,,,,2,,53,110
86272,note_on,141,0,1,,,,,,,,,0,,86,112
86733,note_on,0,0,3,,,,,,,,,2,,62,0
86733,note_on,461,0,2,,,,,,,,,1,,74,0
86733,note_on,461,0,4,,,,,,,,,3,,50,0
86733,note_on,0,0,4,,,,,,,,,3,,57,0
86733,note_on,461,0,1,,,,,,,,,0,,86,0
86733,note_on,461,0,3,,,,,,,,,2,,53,0
86784,note_on,51,0,4,,,,,,,,,3,,46,100
86784,note_on,51,0,3,,,,,,,,,2,,58,104
87040,note_on,307,0,2,,,,,,,,,1,,67,97
87040,note_on,0,0,2,,,,,,,,,1,,75,97
87040,note_on,307,0,1,,,,,,,,,0,,70,97
87040,note_on,0,0,1,,,,,,,,,0,,79,97
87271,note_on,487,0,4,,,,,,,,,3,,46,0
87271,note_on,487,0,3,,,,,,,,,2,,58,0
87296,note_on,25,0,3,,,,,,,,,2,,55,76
87296,note_on,25,0,4,,,,,,,,,3,,43,84
87411,note_on,115,0,3,,,,,,,,,2,,55,0
87411,note_on,115,0,4,,,,,,,,,3,,43,0
87552,note_on,141,0,3,,,,,,,,,2,,57,82
87552,note_on,141,0,4,,,,,,,,,3,,45,85
87667,note_on,115,0,3,,,,,,,,,2,,57,0
87667,note_on,115,0,4,,,,,,,,,3,,45,0
87732,note_on,692,0,2,,,,,,,,,1,,67,0
87732,note_on,0,0,2,,,,,,,,,1,,75,0
87732,note_on,0,0,1,,,,,,,,,0,,79,0
87732,note_on,692,0,1,,,,,,,,,0,,70,0
87808,note_on,76,0,2,,,,,,,,,1,,65,107
87808,note_on,0,0,2,,,,,,,,,1,,74,107
87808,note_on,141,0,3,,,,,,,,,2,,58,85
87808,note_on,141,0,4,,,,,,,,,3,,46,89
87808,note_on,0,0,1,,,,,,,,,0,,77,100
87808,note_on,76,0,1,,,,,,,,,0,,70,100
88154,note_on,346,0,4,,,,,,,,,3,,46,0
88154,note_on,346,0,3,,,,,,,,,2,,58,0
88192,note_on,38,0,3,,,,,,,,,2,,58,83
88192,note_on,38,0,4,,,,,,,,,3,,46,88
88308,note_on,116,0,3,,,,,,,,,2,,58,0
88308,note_on,116,0,4,,,,,,,,,3,,46,0
88320,note_on,12,0,3,,,,,,,,,2,,58,108
88320,note_on,12,0,4,,,,,,,,,3,,46,105
88500,note_on,692,0,2,,,,,,,,,1,,65,0
88500,note_on,0,0,2,,,,,,,,,1,,74,0
88500,note_on,692,0,1,,,,,,,,,0,,70,0
88500,note_on,0,0,1,,,,,,,,,0,,77,0
88576,note_on,76,0,2,,,,,,,,,1,,67,114
88576,note_on,0,0,2,,,,,,,,,1,,75,114
88576,note_on,0,0,1,,,,,,,,,0,,79,111
88576,note_on,76,0,1,,,,,,,,,0,,70,111
88807,note_on,487,0,4,,,,,,,,,3,,46,0
88807,note_on,487,0,3,,,,,,,,,2,,58,0
88832,note_on,25,0,4,,,,,,,,,3,,43,85
88832,note_on,25,0,3,,,,,,,,,2,,55,78
88947,note_on,115,0,4,,,,,,,,,3,,43,0
88947,note_on,115,0,3,,,,,,,,,2,,55,0
89088,note_on,141,0,4,,,,,,,,,3,,45,90
89088,note_on,141,0,3,,,,,,,,,2,,57,84
89203,note_on,115,0,4,,,,,,,,,3,,45,0
89203,note_on,115,0,3,,,,,,,,,2,,57,0
89268,note_on,692,0,1,,,,,,,,,0,,70,0
89268,note_on,0,0,1,,,,,,,,,0,,79,0
89268,note_on,692,0,2,,,,,,,,,1,,67,0
89268,note_on,0,0,2,,,,,,,,,1,,75,0
89344,note_on,141,0,3,,,,,,,,,2,,58,87
89344,note_on,0,0,1,,,,,,,,,0,,77,76
89344,note_on,76,0,1,,,,,,,,,0,,70,76
89344,note_on,141,0,4,,,,,,,,,3,,46,85
89344,note_on,76,0,2,,,,,,,,,1,,65,78
89344,note_on,0,0,2,,,,,,,,,1,,74,78
89459,note_on,115,0,1,,,,,,,,,0,,70,0
89459,note_on,115,0,2,,,,,,,,,1,,65,0
89459,note_on,0,0,2,,,,,,,,,1,,74,0
89459,note_on,115,0,4,,,,,,,,,3,,46,0
89459,note_on,0,0,1,,,,,,,,,0,,77,0
89459,note_on,115,0,3,,,,,,,,,2,,58,0
89600,note_on,141,0,4,,,,,,,,,3,,58,79
89600,note_on,141,0,1,,,,,,,,,0,,76,67
89600,note_on,141,0,2,,,,,,,,,1,,73,70
89600,note_on,141,0,3,,,,,,,,,2,,67,85
89715,note_on,115,0,3,,,,,,,,,2,,67,0
89715,note_on,115,0,2,,,,,,,,,1,,73,0
89715,note_on,115,0,1,,,,,,,,,0,,76,0
89715,note_on,115,0,4,,,,,,,,,3,,58,0
89856,note_on,141,0,2,,,,,,,,,1,,74,73
89856,note_on,141,0,1,,,,,,,,,0,,77,78
89856,note_on,141,0,3,,,,,,,,,2,,68,74
89856,note_on,141,0,4,,,,,,,,,3,,58,71
89971,note_on,115,0,1,,,,,,,,,0,,77,0
89971,note_on,115,0,4,,,,,,,,,3,,58,0
89971,note_on,115,0,2,,,,,,,,,1,,74,0
89971,note_on,115,0,3,,,,,,,,,2,,68,0
90112,note_on,141,0,4,,,,,,,,,3,,58,70
90112,note_on,141,0,2,,,,,,,,,1,,73,67
90112,note_on,141,0,3,,,,,,,,,2,,67,69
90112,note_on,141,0,1,,,,,,,,,0,,76,65
90227,note_on,115,0,2,,,,,,,,,1,,73,0
90227,note_on,115,0,4,,,,,,,,,3,,58,0
90227,note_on,115,0,3,,,,,,,,,2,,67,0
90227,note_on,115,0,1,,,,,,,,,0,,76,0
90368,note_on,141,0,2,,,,,,,,,1,,74,72
90368,note_on,141,0,3,,,,,,,,,2,,68,75
90368,note_on,141,0,4,,,,,,,,,3,,58,71
90368,note_on,141,0,1,,,,,,,,,0,,77,73
90483,note_on,115,0,2,,,,,,,,,1,,74,0
90483,note_on,115,0,3,,,,,,,,,2,,68,0
90483,note_on,115,0,4,,,,,,,,,3,,58,0
90483,note_on,115,0,1,,,,,,,,,0,,77,0
90624,note_on,141,0,4,,,,,,,,,3,,58,74
90624,note_on,141,0,3,,,,,,,,,2,,68,71
90624,note_on,141,0,1,,,,,,,,,0,,74,65
90624,note_on,141,0,2,,,,,,,,,1,,65,55
90739,note_on,115,0,1,,,,,,,,,0,,74,0
90739,note_on,115,0,4,,,,,,,,,3,,58,0
90739,note_on,115,0,2,,,,,,,,,1,,65,0
90739,note_on,115,0,3,,,,,,,,,2,,68,0
90880,note_on,141,0,2,,,,,,,,,1,,74,71
90880,note_on,141,0,3,,,,,,,,,2,,69,71
90880,note_on,141,0,1,,,,,,,,,0,,77,71
90880,note_on,141,0,4,,,,,,,,,3,,57,71
90995,note_on,115,0,1,,,,,,,,,0,,77,0
90995,note_on,115,0,3,,,,,,,,,2,,69,0
90995,note_on,115,0,4,,,,,,,,,3,,57,0
90995,note_on,115,0,2,,,,,,,,,1,,74,0
91136,note_on,141,0,4,,,,,,,,,3,,45,83
91136,note_on,141,0,3,,,,,,,,,2,,74,83
91136,note_on,141,0,1,,,,,,,,,0,,81,83
91136,note_on,141,0,2,,,,,,,,,1,,77,83
91251,note_on,115,0,1,,,,,,,,,0,,81,0
91251,note_on,115,0,4,,,,,,,,,3,,45,0
91251,note_on,115,0,3,,,,,,,,,2,,74,0
91251,note_on,115,0,2,,,,,,,,,1,,77,0
91392,note_on,141,0,2,,,,,,,,,1,,79,96
91392,note_on,141,0,3,,,,,,,,,2,,76,96
91392,note_on,141,0,1,,,,,,,,,0,,85,96
91392,note_on,141,0,4,,,,,,,,,3,,45,96
91507,note_on,115,0,4,,,,,,,,,3,,45,0
91507,note_on,115,0,3,,,,,,,,,2,,76,0
91507,note_on,115,0,1,,,,,,,,,0,,85,0
91507,note_on,115,0,2,,,,,,,,,1,,79,0
91648,note_on,141,0,3,,,,,,,,,2,,74,91
91648,note_on,141,0,1,,,,,,,,,0,,86,106
91648,note_on,141,0,4,,,,,,,,,3,,50,103
91648,note_on,141,0,2,,,,,,,,,1,,77,91
91879,note_on,231,0,2,,,,,,,,,1,,77,0
91879,note_on,231,0,3,,,,,,,,,2,,74,0
91879,note_on,231,0,4,,,,,,,,,3,,50,0
91879,note_on,231,0,1,,,,,,,,,0,,86,0
92160,note_on,281,0,2,,,,,,,,,1,,74,93
92160,note_on,281,0,1,,,,,,,,,0,,77,89
92416,note_on,537,0,4,,,,,,,,,3,,62,88
92416,note_on,0,0,3,,,,,,,,,2,,70,89
92416,note_on,537,0,3,,,,,,,,,2,,67,89
92647,note_on,487,0,2,,,,,,,,,1,,74,0
92647,note_on,487,0,1,,,,,,,,,0,,77,0
92672,note_on,25,0,2,,,,,,,,,1,,70,73
92672,note_on,25,0,1,,,,,,,,,0,,74,79
92787,note_on,115,0,2,,,,,,,,,1,,70,0
92787,note_on,115,0,1,,,,,,,,,0,,74,0
92928,note_on,141,0,1,,,,,,,,,0,,76,84
92928,note_on,141,0,2,,,,,,,,,1,,73,90
93043,note_on,115,0,1,,,,,,,,,0,,76,0
93043,note_on,115,0,2,,,,,,,,,1,,73,0
93108,note_on,0,0,3,,,,,,,,,2,,70,0
93108,note_on,692,0,4,,,,,,,,,3,,62,0
93108,note_on,692,0,3,,,,,,,,,2,,67,0
93184,note_on,141,0,2,,,,,,,,,1,,74,84
93184,note_on,141,0,1,,,,,,,,,0,,77,91
93184,note_on,76,0,3,,,,,,,,,2,,65,90
93184,note_on,0,0,3,,,,,,,,,2,,69,90
93184,note_on,76,0,4,,,,,,,,,3,,62,93
93530,note_on,346,0,2,,,,,,,,,1,,74,0
93530,note_on,346,0,1,,,,,,,,,0,,77,0
93568,note_on,38,0,2,,,,,,,,,1,,74,87
93568,note_on,38,0,1,,,,,,,,,0,,77,82
93684,note_on,116,0,1,,,,,,,,,0,,77,0
93684,note_on,116,0,2,,,,,,,,,1,,74,0
93696,note_on,12,0,1,,,,,,,,,0,,77,104
93696,note_on,12,0,2,,,,,,,,,1,,74,111
93876,note_on,0,0,3,,,,,,,,,2,,69,0
93876,note_on,692,0,3,,,,,,,,,2,,65,0
93876,note_on,692,0,4,,,,,,,,,3,,62,0
93952,note_on,0,0,3,,,,,,,,,2,,70,101
93952,note_on,76,0,4,,,,,,,,,3,,62,98
93952,note_on,76,0,3,,,,,,,,,2,,67,101
94183,note_on,487,0,1,,,,,,,,,0,,77,0
94183,note_on,487,0,2,,,,,,,,,1,,74,0
94208,note_on,25,0,1,,,,,,,,,0,,74,71
94208,note_on,25,0,2,,,,,,,,,1,,70,77
94323,note_on,115,0,2,,,,,,,,,1,,70,0
94323,note_on,115,0,1,,,,,,,,,0,,74,0
94464,note_on,141,0,2,,,,,,,,,1,,73,89
94464,note_on,141,0,1,,,,,,,,,0,,76,87
94579,note_on,115,0,1,,,,,,,,,0,,76,0
94579,note_on,115,0,2,,,,,,,,,1,,73,0
94644,note_on,692,0,4,,,,,,,,,3,,62,0
94644,note_on,692,0,3,,,,,,,,,2,,67,0
94644,note_on,0,0,3,,,,,,,,,2,,70,0
94720,note_on,141,0,2,,,,,,,,,1,,74,88
94720,note_on,0,0,3,,,,,,,,,2,,69,93
94720,note_on,76,0,3,,,,,,,,,2,,65,93
94720,note_on,141,0,1,,,,,,,,,0,,77,91
94720,note_on,76,0,4,,,,,,,,,3,,62,96
95181,note_on,461,0,4,,,,,,,,,3,,62,0
95181,note_on,0,0,3,,,,,,,,,2,,69,0
95181,note_on,461,0,3,,,,,,,,,2,,65,0
95181,note_on,461,0,1,,,,,,,,,0,,77,0
95181,note_on,461,0,2,,,,,,,,,1,,74,0
95232,note_on,51,0,3,,,,,,,,,2,,62,90
95232,note_on,51,0,4,,,,,,,,,3,,58,100
95488,note_on,307,0,2,,,,,,,,,1,,70,100
95488,note_on,307,0,1,,,,,,,,,0,,79,98
95719,note_on,487,0,3,,,,,,,,,2,,62,0
95719,note_on,487,0,4,,,,,,,,,3,,58,0
95744,note_on,25,0,3,,,,,,,,,2,,63,91
95744,note_on,25,0,4,,,,,,,,,3,,55,81
95859,note_on,115,0,3,,,,,,,,,2,,63,0
95859,note_on,115,0,4,,,,,,,,,3,,55,0
96000,note_on,141,0,4,,,,,,,,,3,,57,84
96000,note_on,141,0,3,,,,,,,,,2,,61,76
96115,note_on,115,0,3,,,,,,,,,2,,61,0
96115,note_on,115,0,4,,,,,,,,,3,,57,0
96180,note_on,692,0,1,,,,,,,,,0,,79,0
96180,note_on,692,0,2,,,,,,,,,1,,70,0
96256,note_on,76,0,1,,,,,,,,,0,,77,105
96256,note_on,141,0,3,,,,,,,,,2,,62,84
96256,note_on,76,0,2,,,,,,,,,1,,70,109
96256,note_on,141,0,4,,,,,,,,,3,,58,86
96602,note_on,346,0,4,,,,,,,,,3,,58,0
96602,note_on,346,0,3,,,,,,,,,2,,62,0
96640,note_on,38,0,3,,,,,,,,,2,,62,80
96640,note_on,38,0,4,,,,,,,,,3,,58,81
96756,note_on,116,0,3,,,,,,,,,2,,62,0
96756,note_on,116,0,4,,,,,,,,,3,,58,0
96768,note_on,12,0,4,,,,,,,,,3,,58,107
96768,note_on,12,0,3,,,,,,,,,2,,62,108
96948,note_on,692,0,2,,,,,,,,,1,,70,0
96948,note_on,692,0,1,,,,,,,,,0,,77,0
97024,note_on,76,0,2,,,,,,,,,1,,70,108
97024,note_on,76,0,1,,,,,,,,,0,,79,114
97255,note_on,487,0,3,,,,,,,,,2,,62,0
97255,note_on,487,0,4,,,,,,,,,3,,58,0
97280,note_on,25,0,4,,,,,,,,,3,,55,83
97280,note_on,25,0,3,,,,,,,,,2,,63,88
97395,note_on,115,0,3,,,,,,,,,2,,63,0
97395,note_on,115,0,4,,,,,,,,,3,,55,0
97536,note_on,141,0,3,,,,,,,,,2,,61,81
97536,note_on,141,0,4,,,,,,,,,3,,57,87
97651,note_on,115,0,3,,,,,,,,,2,,61,0
97651,note_on,115,0,4,,,,,,,,,3,,57,0
97716,note_on,692,0,2,,,,,,,,,1,,70,0
97716,note_on,692,0,1,,,,,,,,,0,,79,0
97792,note_on,141,0,4,,,,,,,,,3,,58,84
97792,note_on,76,0,2,,,,,,,,,1,,70,110
97792,note_on,141,0,3,,,,,,,,,2,,62,89
97792,note_on,76,0,1,,,,,,,,,0,,77,106
98138,note_on,346,0,4,,,,,,,,,3,,58,0
98138,note_on,346,0,3,,,,,,,,,2,,62,0
98176,note_on,38,0,4,,,,,,,,,3,,58,85
98176,note_on,38,0,3,,,,,,,,,2,,62,86
98292,note_on,116,0,4,,,,,,,,,3,,58,0
98292,note_on,116,0,3,,,,,,,,,2,,62,0
98304,note_on,12,0,4,,,,,,,,,3,,58,85
98304,note_on,12,0,3,,,,,,,,,2,,62,84
98484,note_on,692,0,1,,,,,,,,,0,,77,0
98484,note_on,692,0,2,,,,,,,,,1,,70,0
98535,note_on,231,0,4,,,,,,,,,3,,58,0
98535,note_on,231,0,3,,,,,,,,,2,,62,0
98560,note_on,76,0,1,,,,,,,,,0,,76,83
98560,note_on,76,0,2,,,,,,,,,1,,73,83
98560,note_on,25,0,4,,,,,,,,,3,,58,83
98560,note_on,25,0,3,,,,,,,,,2,,67,83
98675,note_on,115,0,1,,,,,,,,,0,,76,0
98675,note_on,115,0,3,,,,,,,,,2,,67,0
98675,note_on,115,0,2,,,,,,,,,1,,73,0
98675,note_on,115,0,4,,,,,,,,,3,,58,0
98816,note_on,141,0,1,,,,,,,,,0,,77,88
98816,note_on,141,0,3,,,,,,,,,2,,68,88
98816,note_on,141,0,4,,,,,,,,,3,,58,88
98816,note_on,141,0,2,,,,,,,,,1,,74,88
98931,note_on,115,0,1,,,,,,,,,0,,77,0
98931,note_on,115,0,4,,,,,,,,,3,,58,0
98931,note_on,115,0,2,,,,,,,,,1,,74,0
98931,note_on,115,0,3,,,,,,,,,2,,68,0
99072,note_on,141,0,1,,,,,,,,,0,,76,93
99072,note_on,141,0,4,,,,,,,,,3,,58,93
99072,note_on,141,0,2,,,,,,,,,1,,73,93
99072,note_on,141,0,3,,,,,,,,,2,,67,93
99187,note_on,115,0,1,,,,,,,,,0,,76,0
99187,note_on,115,0,3,,,,,,,,,2,,67,0
99187,note_on,115,0,4,,,,,,,,,3,,58,0
99187,note_on,115,0,2,,,,,,,,,1,,73,0
99328,note_on,141,0,3,,,,,,,,,2,,68,99
99328,note_on,141,0,4,,,,,,,,,3,,58,98
99328,note_on,141,0,1,,,,,,,,,0,,77,99
99328,note_on,141,0,2,,,,,,,,,1,,74,99
99443,note_on,115,0,4,,,,,,,,,3,,58,0
99443,note_on,115,0,3,,,,,,,,,2,,68,0
99443,note_on,115,0,1,,,,,,,,,0,,77,0
99443,note_on,115,0,2,,,,,,,,,1,,74,0
99584,note_on,141,0,1,,,,,,,,,0,,76,104
99584,note_on,141,0,2,,,,,,,,,1,,73,104
99584,note_on,141,0,3,,,,,,,,,2,,67,104
99584,note_on,141,0,4,,,,,,,,,3,,58,102
99699,note_on,115,0,3,,,,,,,,,2,,67,0
99699,note_on,115,0,2,,,,,,,,,1,,73,0
99699,note_on,115,0,1,,,,,,,,,0,,76,0
99699,note_on,115,0,4,,,,,,,,,3,,58,0
99840,note_on,141,0,4,,,,,,,,,3,,58,107
99840,note_on,141,0,2,,,,,,,,,1,,74,109
99840,note_on,141,0,1,,,,,,,,,0,,77,109
99840,note_on,141,0,3,,,,,,,,,2,,68,109
99955,note_on,115,0,4,,,,,,,,,3,,58,0
99955,note_on,115,0,3,,,,,,,,,2,,68,0
99955,note_on,115,0,1,,,,,,,,,0,,77,0
99955,note_on,115,0,2,,,,,,,,,1,,74,0
100096,note_on,141,0,2,,,,,,,,,1,,74,120
100096,note_on,141,0,1,,,,,,,,,0,,77,111
100096,note_on,141,0,3,,,,,,,,,2,,69,116
100096,note_on,141,0,4,,,,,,,,,3,,57,110
100211,note_on,115,0,2,,,,,,,,,1,,74,0
100211,note_on,115,0,1,,,,,,,,,0,,77,0
100211,note_on,115,0,3,,,,,,,,,2,,69,0
100211,note_on,115,0,4,,,,,,,,,3,,57,0
100352,note_on,0,0,2,,,,,,,,,1,,77,122
100352,note_on,141,0,2,,,,,,,,,1,,69,122
100352,note_on,141,0,4,,,,,,,,,3,,45,99
100352,note_on,141,0,1,,,,,,,,,0,,81,124
100352,note_on,141,0,3,,,,,,,,,2,,74,125
100467,note_on,0,0,2,,,,,,,,,1,,77,0
100467,note_on,115,0,4,,,,,,,,,3,,45,0
100467,note_on,115,0,1,,,,,,,,,0,,81,0
100467,note_on,115,0,2,,,,,,,,,1,,69,0
100467,note_on,115,0,3,,,,,,,,,2,,74,0
100608,note_on,141,0,1,,,,,,,,,0,,85,126
100608,note_on,141,0,4,,,,,,,,,3,,45,108
100608,note_on,0,0,2,,,,,,,,,1,,79,120
100608,note_on,141,0,2,,,,,,,,,1,,69,120
100608,note_on,141,0,3,,,,,,,,,2,,76,122
100723,note_on,115,0,4,,,,,,,,,3,,45,0
100723,note_on,0,0,2,,,,,,,,,1,,79,0
100723,note_on,115,0,2,,,,,,,,,1,,69,0
100723,note_on,115,0,1,,,,,,,,,0,,85,0
100723,note_on,115,0,3,,,,,,,,,2,,76,0
100864,note_on,0,0,2,,,,,,,,,1,,77,104
100864,note_on,141,0,4,,,,,,,,,3,,38,104
100864,note_on,141,0,1,,,,,,,,,0,,86,122
100864,note_on,141,0,2,,,,,,,,,1,,69,104
100864,note_on,141,0,3,,,,,,,,,2,,74,108
100979,note_on,115,0,3,,,,,,,,,2,,74,0
100979,note_on,115,0,4,,,,,,,,,3,,38,0
100979,note_on,115,0,1,,,,,,,,,0,,86,0
100979,note_on,115,0,2,,,,,,,,,1,,69,0
100979,note_on,0,0,2,,,,,,,,,1,,77,0
101120,note_on,141,0,3,,,,,,,,,2,,57,97
101120,note_on,141,0,2,,,,,,,,,1,,57,97
101120,note_on,141,0,1,,,,,,,,,0,,57,96
101120,note_on,141,0,4,,,,,,,,,3,,45,119
101235,note_on,115,0,3,,,,,,,,,2,,57,0
101235,note_on,115,0,2,,,,,,,,,1,,57,0
101235,note_on,115,0,4,,,,,,,,,3,,45,0
101235,note_on,115,0,1,,,,,,,,,0,,57,0
101376,note_on,141,0,3,,,,,,,,,2,,61,121
101376,note_on,141,0,2,,,,,,,,,1,,61,120
101376,note_on,141,0,1,,,,,,,,,0,,61,124
101376,note_on,141,0,4,,,,,,,,,3,,49,120
101491,note_on,115,0,4,,,,,,,,,3,,49,0
101491,note_on,115,0,2,,,,,,,,,1,,61,0
101491,note_on,115,0,3,,,,,,,,,2,,61,0
101491,note_on,115,0,1,,,,,,,,,0,,61,0
101632,note_on,141,0,2,,,,,,,,,1,,62,127
101632,note_on,141,0,4,,,,,,,,,3,,50,127
101632,note_on,141,0,1,,,,,,,,,0,,62,127
101632,note_on,141,0,3,,,,,,,,,2,,62,127
101747,note_on,115,0,3,,,,,,,,,2,,62,0
101747,note_on,115,0,4,,,,,,,,,3,,50,0
101747,note_on,115,0,2,,,,,,,,,1,,62,0
101747,note_on,115,0,1,,,,,,,,,0,,62,0
101888,note_on,141,0,3,,,,,,,,,2,,57,109
101888,note_on,141,0,4,,,,,,,,,3,,45,107
101888,note_on,141,0,2,,,,,,,,,1,,57,104
101888,note_on,141,0,1,,,,,,,,,0,,57,105
102003,note_on,115,0,4,,,,,,,,,3,,45,0
102003,note_on,115,0,3,,,,,,,,,2,,57,0
102003,note_on,115,0,1,,,,,,,,,0,,57,0
102003,note_on,115,0,2,,,,,,,,,1,,57,0
102144,note_on,141,0,2,,,,,,,,,1,,61,125
102144,note_on,141,0,4,,,,,,,,,3,,49,120
102144,note_on,141,0,1,,,,,,,,,0,,61,126
102144,note_on,141,0,3,,,,,,,,,2,,61,121
102259,note_on,115,0,2,,,,,,,,,1,,61,0
102259,note_on,115,0,4,,,,,,,,,3,,49,0
102259,note_on,115,0,1,,,,,,,,,0,,61,0
102259,note_on,115,0,3,,,,,,,,,2,,61,0
102400,note_on,141,0,2,,,,,,,,,1,,62,127
102400,note_on,141,0,3,,,,,,,,,2,,62,127
102400,note_on,141,0,1,,,,,,,,,0,,62,127
102400,note_on,141,0,4,,,,,,,,,3,,50,127
102515,note_on,115,0,3,,,,,,,,,2,,62,0
102515,note_on,115,0,4,,,,,,,,,3,,50,0
102515,note_on,115,0,1,,,,,,,,,0,,62,0
102515,note_on,115,0,2,,,,,,,,,1,,62,0
102656,note_on,141,0,4,,,,,,,,,3,,45,101
102656,note_on,141,0,2,,,,,,,,,1,,57,106
102656,note_on,141,0,3,,,,,,,,,2,,57,106
102656,note_on,141,0,1,,,,,,,,,0,,57,103
102771,note_on,115,0,1,,,,,,,,,0,,57,0
102771,note_on,115,0,3,,,,,,,,,2,,57,0
102771,note_on,115,0,4,,,,,,,,,3,,45,0
102771,note_on,115,0,2,,,,,,,,,1,,57,0
102912,note_on,141,0,4,,,,,,,,,3,,49,120
102912,note_on,141,0,1,,,,,,,,,0,,61,126
102912,note_on,141,0,3,,,,,,,,,2,,61,121
102912,note_on,141,0,2,,,,,,,,,1,,61,125
103027,note_on,115,0,4,,,,,,,,,3,,49,0
103027,note_on,115,0,2,,,,,,,,,1,,61,0
103027,note_on,115,0,1,,,,,,,,,0,,61,0
103027,note_on,115,0,3,,,,,,,,,2,,61,0
103168,note_on,141,0,2,,,,,,,,,1,,62,127
103168,note_on,0,0,2,,,,,,,,,1,,62,122
103168,note_on,0,0,1,,,,,,,,,0,,62,126
103168,note_on,141,0,4,,,,,,,,,3,,50,127
103168,note_on,141,0,1,,,,,,,,,0,,62,127
103168,note_on,141,0,3,,,,,,,,,2,,62,127
103168,note_on,0,0,3,,,,,,,,,2,,62,126
103514,note_on,346,0,1,,,,,,,,,0,,62,0
103514,note_on,0,0,1,,,,,,,,,0,,62,0
103514,note_on,346,0,4,,,,,,,,,3,,50,0
103514,note_on,0,0,2,,,,,,,,,1,,62,0
103514,note_on,0,0,3,,,,,,,,,2,,62,0
103514,note_on,346,0,3,,,,,,,,,2,,62,0
103514,note_on,346,0,2,,,,,,,,,1,,62,0
103552,note_on,38,0,4,,,,,,,,,3,,50,111
103552,note_on,0,0,2,,,,,,,,,1,,62,124
103552,note_on,38,0,2,,,,,,,,,1,,62,113
103552,note_on,0,0,1,,,,,,,,,0,,62,126
103552,note_on,38,0,1,,,,,,,,,0,,62,118
103552,note_on,38,0,3,,,,,,,,,2,,62,115
103552,note_on,0,0,3,,,,,,,,,2,,62,125
103668,note_on,116,0,3,,,,,,,,,2,,62,0
103668,note_on,0,0,1,,,,,,,,,0,,62,0
103668,note_on,116,0,4,,,,,,,,,3,,50,0
103668,note_on,0,0,3,,,,,,,,,2,,62,0
103668,note_on,116,0,2,,,,,,,,,1,,62,0
103668,note_on,0,0,2,,,,,,,,,1,,62,0
103668,note_on,116,0,1,,,,,,,,,0,,62,0
103680,note_on,12,0,1,,,,,,,,,0,,62,110
103680,note_on,12,0,3,,,,,,,,,2,,62,113
103680,note_on,12,0,4,,,,,,,,,3,,50,116
103680,note_on,12,0,2,,,,,,,,,1,,62,113
103680,note_on,0,0,3,,,,,,,,,2,,62,126
103680,note_on,0,0,1,,,,,,,,,0,,62,126
103680,note_on,0,0,2,,,,,,,,,1,,62,126
103911,note_on,231,0,1,,,,,,,,,0,,62,0
103911,note_on,0,0,3,,,,,,,,,2,,62,0
103911,note_on,0,0,2,,,,,,,,,1,,62,0
103911,note_on,231,0,2,,,,,,,,,1,,62,0
103911,note_on,231,0,3,,,,,,,,,2,,62,0
103911,note_on,231,0,4,,,,,,,,,3,,50,0
103911,note_on,0,0,1,,,,,,,,,0,,62,0
104448,time_signature,537,1,1,3,4,24,8,,,,,,,,
104448,note_on,0,0,1,,,,,,,,,0,,69,46
104448,time_signature,537,1,2,3,4,24,8,,,,,,,,
104448,key_signature,35328,1,0,,,,,D,,,,,,,
104448,set_tempo,0,1,0,,,,,,250000,,,,,,
104448,time_signature,537,1,4,3,4,24,8,,,,,,,,
104448,time_signature,537,1,3,3,4,24,8,,,,,,,,
104679,note_on,231,0,1,,,,,,,,,0,,69,0
104704,note_on,0,0,2,,,,,,,,,1,,69,39
104704,time_signature,256,1,2,3,4,24,8,,,,,,,,
104704,note_on,0,0,3,,,,,,,,,2,,66,39
104704,time_signature,256,1,3,3,4,24,8,,,,,,,,
104704,note_on,0,0,4,,,,,,,,,3,,62,45
104704,time_signature,256,1,4,3,4,24,8,,,,,,,,
104704,time_signature,25,1,1,3,4,24,8,,,,,,,,
104704,note_on,0,0,1,,,,,,,,,0,,78,62
104904,note_on,200,0,2,,,,,,,,,1,,69,0
105088,note_on,184,0,2,,,,,,,,,1,,69,47
105154,note_on,66,0,2,,,,,,,,,1,,69,0
105216,note_on,62,0,2,,,,,,,,,1,,69,50
105317,note_on,101,0,2,,,,,,,,,1,,69,0
105472,note_on,155,0,2,,,,,,,,,1,,69,50
105728,note_on,1024,0,1,,,,,,,,,0,,76,48
105728,note_on,1024,0,3,,,,,,,,,2,,64,45
105728,note_on,1024,0,4,,,,,,,,,3,,61,49
105740,note_on,12,0,3,,,,,,,,,2,,66,0
105740,note_on,12,0,4,,,,,,,,,3,,62,0
105740,note_on,12,0,1,,,,,,,,,0,,78,0
105984,note_on,244,0,4,,,,,,,,,3,,59,42
105984,note_on,244,0,1,,,,,,,,,0,,74,47
105984,note_on,244,0,3,,,,,,,,,2,,62,43
105996,note_on,12,0,1,,,,,,,,,0,,76,0
105996,note_on,12,0,4,,,,,,,,,3,,61,0
105996,note_on,12,0,3,,,,,,,,,2,,64,0
106164,note_on,692,0,2,,,,,,,,,1,,69,0
106188,note_on,192,0,3,,,,,,,,,2,,62,0
106188,note_on,192,0,4,,,,,,,,,3,,59,0
106188,note_on,192,0,1,,,,,,,,,0,,74,0
106240,note_on,52,0,4,,,,,,,,,3,,61,52
106240,note_on,76,0,2,,,,,,,,,1,,69,48
106240,note_on,52,0,1,,,,,,,,,0,,76,53
106240,note_on,52,0,3,,,,,,,,,2,,64,51
106440,note_on,200,0,2,,,,,,,,,1,,69,0
106624,note_on,184,0,2,,,,,,,,,1,,69,51
106690,note_on,66,0,2,,,,,,,,,1,,69,0
106752,note_on,62,0,2,,,,,,,,,1,,69,47
106853,note_on,101,0,2,,,,,,,,,1,,69,0
107008,note_on,155,0,2,,,,,,,,,1,,69,50
107264,note_on,1024,0,3,,,,,,,,,2,,62,47
107264,note_on,1024,0,4,,,,,,,,,3,,59,45
107264,note_on,1024,0,1,,,,,,,,,0,,74,45
107276,note_on,12,0,1,,,,,,,,,0,,76,0
107276,note_on,12,0,3,,,,,,,,,2,,64,0
107276,note_on,12,0,4,,,,,,,,,3,,61,0
107520,note_on,244,0,1,,,,,,,,,0,,73,49
107520,note_on,244,0,3,,,,,,,,,2,,61,46
107520,note_on,244,0,4,,,,,,,,,3,,57,49
107532,note_on,12,0,1,,,,,,,,,0,,74,0
107532,note_on,12,0,3,,,,,,,,,2,,62,0
107532,note_on,12,0,4,,,,,,,,,3,,59,0
107700,note_on,692,0,2,,,,,,,,,1,,69,0
107724,note_on,192,0,1,,,,,,,,,0,,73,0
107724,note_on,192,0,3,,,,,,,,,2,,61,0
107724,note_on,192,0,4,,,,,,,,,3,,57,0
107776,note_on,52,0,4,,,,,,,,,3,,59,51
107776,note_on,52,0,3,,,,,,,,,2,,62,55
107776,note_on,76,0,2,,,,,,,,,1,,69,51
107776,note_on,52,0,1,,,,,,,,,0,,74,57
108007,note_on,231,0,2,,,,,,,,,1,,69,0
108032,note_on,25,0,2,,,,,,,,,1,,68,53
108263,note_on,231,0,2,,,,,,,,,1,,68,0
108288,note_on,25,0,2,,,,,,,,,1,,66,50
108468,note_on,692,0,3,,,,,,,,,2,,62,0
108468,note_on,692,0,4,,,,,,,,,3,,59,0
108519,note_on,231,0,2,,,,,,,,,1,,66,0
108544,note_on,25,0,2,,,,,,,,,1,,68,55
108544,note_on,76,0,4,,,,,,,,,3,,52,46
108544,note_on,76,0,3,,,,,,,,,2,,59,50
108775,note_on,999,0,1,,,,,,,,,0,,74,0
108800,note_on,25,0,1,,,,,,,,,0,,78,51
109005,note_on,461,0,3,,,,,,,,,2,,59,0
109031,note_on,231,0,1,,,,,,,,,0,,78,0
109056,note_on,51,0,3,,,,,,,,,2,,64,56
109056,note_on,25,0,1,,,,,,,,,0,,76,47
109236,note_on,692,0,2,,,,,,,,,1,,68,0
109236,note_on,692,0,4,,,,,,,,,3,,52,0
109287,note_on,231,0,1,,,,,,,,,0,,76,0
109287,note_on,231,0,3,,,,,,,,,2,,64,0
109312,note_on,76,0,4,,,,,,,,,3,,57,52
109312,note_on,76,0,2,,,,,,,,,1,,68,48
109312,note_on,25,0,3,,,,,,,,,2,,64,53
109312,note_on,25,0,1,,,,,,,,,0,,74,49
110004,note_on,692,0,2,,,,,,,,,1,,68,0
110004,note_on,692,0,1,,,,,,,,,0,,74,0
110080,note_on,76,0,1,,,,,,,,,0,,73,47
110080,note_on,76,0,2,,,,,,,,,1,,69,54
110311,note_on,231,0,1,,,,,,,,,0,,73,0
110311,note_on,999,0,4,,,,,,,,,3,,57,0
110336,note_on,25,0,1,,,,,,,,,0,,76,57
110336,note_on,25,0,4,,,,,,,,,3,,61,56
110541,note_on,461,0,2,,,,,,,,,1,,69,0
110541,note_on,1229,0,3,,,,,,,,,2,,64,0
110567,note_on,231,0,1,,,,,,,,,0,,76,0
110567,note_on,231,0,4,,,,,,,,,3,,61,0
110592,note_on,25,0,4,,,,,,,,,3,,67,60
110592,note_on,25,0,1,,,,,,,,,0,,81,55
110592,note_on,51,0,3,,,,,,,,,2,,69,55
110592,note_on,51,0,2,,,,,,,,,1,,73,53
110823,note_on,231,0,2,,,,,,,,,1,,73,0
110823,note_on,231,0,3,,,,,,,,,2,,69,0
110823,note_on,231,0,1,,,,,,,,,0,,81,0
110823,note_on,231,0,4,,,,,,,,,3,,67,0
110848,note_on,25,0,4,,,,,,,,,3,,66,44
110848,note_on,25,0,3,,,,,,,,,2,,69,50
110848,note_on,25,0,1,,,,,,,,,0,,81,52
110848,note_on,25,0,2,,,,,,,,,1,,74,53
111020,note_on,172,0,2,,,,,,,,,1,,74,0
111232,note_on,212,0,2,,,,,,,,,1,,74,48
111289,note_on,57,0,2,,,,,,,,,1,,74,0
111360,note_on,71,0,2,,,,,,,,,1,,74,52
111475,note_on,115,0,2,,,,,,,,,1,,74,0
111616,note_on,141,0,2,,,,,,,,,1,,74,45
111872,note_on,1024,0,1,,,,,,,,,0,,83,56
111872,note_on,1024,0,3,,,,,,,,,2,,71,50
111872,note_on,1024,0,4,,,,,,,,,3,,67,58
111884,note_on,12,0,3,,,,,,,,,2,,69,0
111884,note_on,12,0,4,,,,,,,,,3,,66,0
111884,note_on,12,0,1,,,,,,,,,0,,81,0
112128,note_on,244,0,4,,,,,,,,,3,,66,46
112128,note_on,244,0,1,,,,,,,,,0,,81,48
112128,note_on,244,0,3,,,,,,,,,2,,69,47
112140,note_on,12,0,4,,,,,,,,,3,,67,0
112140,note_on,12,0,1,,,,,,,,,0,,83,0
112140,note_on,12,0,3,,,,,,,,,2,,71,0
112308,note_on,692,0,2,,,,,,,,,1,,74,0
112332,note_on,192,0,1,,,,,,,,,0,,81,0
112332,note_on,192,0,3,,,,,,,,,2,,69,0
112332,note_on,192,0,4,,,,,,,,,3,,66,0
112384,note_on,52,0,4,,,,,,,,,3,,65,49
112384,note_on,52,0,1,,,,,,,,,0,,80,50
112384,note_on,76,0,2,,,,,,,,,1,,74,46
112384,note_on,52,0,3,,,,,,,,,2,,68,46
112584,note_on,200,0,2,,,,,,,,,1,,74,0
112768,note_on,184,0,2,,,,,,,,,1,,74,46
112834,note_on,66,0,2,,,,,,,,,1,,74,0
112896,note_on,62,0,2,,,,,,,,,1,,74,49
112997,note_on,101,0,2,,,,,,,,,1,,74,0
113076,note_on,692,0,1,,,,,,,,,0,,80,0
113076,note_on,692,0,4,,,,,,,,,3,,65,0
113076,note_on,692,0,3,,,,,,,,,2,,68,0
113152,note_on,155,0,2,,,,,,,,,1,,73,45
113152,note_on,76,0,4,,,,,,,,,3,,64,45
113152,note_on,76,0,1,,,,,,,,,0,,79,46
113152,note_on,76,0,3,,,,,,,,,2,,67,52
113152,note_on,0,0,3,,,,,,,,,2,,70,52
113352,note_on,200,0,3,,,,,,,,,2,,67,0
113352,note_on,200,0,2,,,,,,,,,1,,73,0
113352,note_on,200,0,4,,,,,,,,,3,,64,0
113352,note_on,0,0,3,,,,,,,,,2,,70,0
113352,note_on,200,0,1,,,,,,,,,0,,79,0
113536,note_on,184,0,2,,,,,,,,,1,,73,47
113536,note_on,184,0,4,,,,,,,,,3,,64,47
113536,note_on,184,0,1,,,,,,,,,0,,79,49
113536,note_on,184,0,3,,,,,,,,,2,,67,48
113536,note_on,0,0,3,,,,,,,,,2,,70,48
113602,note_on,66,0,1,,,,,,,,,0,,79,0
113602,note_on,66,0,2,,,,,,,,,1,,73,0
113602,note_on,66,0,3,,,,,,,,,2,,67,0
113602,note_on,0,0,3,,,,,,,,,2,,70,0
113602,note_on,66,0,4,,,,,,,,,3,,64,0
113664,note_on,62,0,2,,,,,,,,,1,,73,53
113664,note_on,62,0,3,,,,,,,,,2,,67,49
113664,note_on,62,0,4,,,,,,,,,3,,64,49
113664,note_on,62,0,1,,,,,,,,,0,,79,47
113664,note_on,0,0,3,,,,,,,,,2,,70,49
113765,note_on,101,0,3,,,,,,,,,2,,67,0
113765,note_on,101,0,4,,,,,,,,,3,,64,0
113765,note_on,0,0,3,,,,,,,,,2,,70,0
113765,note_on,101,0,1,,,,,,,,,0,,79,0
113765,note_on,101,0,2,,,,,,,,,1,,73,0
113920,note_on,0,0,3,,,,,,,,,2,,70,49
113920,note_on,155,0,4,,,,,,,,,3,,62,46
113920,note_on,155,0,3,,,,,,,,,2,,67,49
113920,note_on,155,0,2,,,,,,,,,1,,74,57
113920,note_on,155,0,1,,,,,,,,,0,,79,50
114120,note_on,200,0,1,,,,,,,,,0,,79,0
114120,note_on,200,0,4,,,,,,,,,3,,62,0
114120,note_on,200,0,2,,,,,,,,,1,,74,0
114120,note_on,0,0,3,,,,,,,,,2,,70,0
114120,note_on,200,0,3,,,,,,,,,2,,67,0
114304,note_on,184,0,3,,,,,,,,,2,,67,52
114304,note_on,0,0,3,,,,,,,,,2,,70,52
114304,note_on,184,0,1,,,,,,,,,0,,79,50
114304,note_on,184,0,4,,,,,,,,,3,,62,52
114304,note_on,184,0,2,,,,,,,,,1,,74,53
114370,note_on,66,0,2,,,,,,,,,1,,74,0
114370,note_on,66,0,4,,,,,,,,,3,,62,0
114370,note_on,66,0,3,,,,,,,,,2,,67,0
114370,note_on,0,0,3,,,,,,,,,2,,70,0
114370,note_on,66,0,1,,,,,,,,,0,,79,0
114432,note_on,62,0,2,,,,,,,,,1,,74,54
114432,note_on,0,0,3,,,,,,,,,2,,70,52
114432,note_on,62,0,4,,,,,,,,,3,,62,49
114432,note_on,62,0,1,,,,,,,,,0,,79,51
114432,note_on,62,0,3,,,,,,,,,2,,67,52
114533,note_on,101,0,1,,,,,,,,,0,,79,0
114533,note_on,101,0,3,,,,,,,,,2,,67,0
114533,note_on,101,0,4,,,,,,,,,3,,62,0
114533,note_on,101,0,2,,,,,,,,,1,,74,0
114533,note_on,0,0,3,,,,,,,,,2,,70,0
114688,note_on,155,0,3,,,,,,,,,2,,67,48
114688,note_on,155,0,4,,,,,,,,,3,,61,43
114688,note_on,155,0,2,,,,,,,,,1,,76,56
114688,note_on,155,0,1,,,,,,,,,0,,79,48
114688,note_on,0,0,3,,,,,,,,,2,,69,48
114888,note_on,200,0,2,,,,,,,,,1,,76,0
114888,note_on,200,0,4,,,,,,,,,3,,61,0
114888,note_on,200,0,3,,,,,,,,,2,,67,0
114888,note_on,200,0,1,,,,,,,,,0,,79,0
114888,note_on,0,0,3,,,,,,,,,2,,69,0
115072,note_on,184,0,4,,,,,,,,,3,,61,47
115072,note_on,184,0,2,,,,,,,,,1,,76,50
115072,note_on,184,0,1,,,,,,,,,0,,79,49
115072,note_on,184,0,3,,,,,,,,,2,,67,51
115072,note_on,0,0,3,,,,,,,,,2,,69,51
115138,note_on,66,0,2,,,,,,,,,1,,76,0
115138,note_on,66,0,3,,,,,,,,,2,,67,0
115138,note_on,66,0,1,,,,,,,,,0,,79,0
115138,note_on,0,0,3,,,,,,,,,2,,69,0
115138,note_on,66,0,4,,,,,,,,,3,,61,0
115200,note_on,62,0,1,,,,,,,,,0,,79,53
115200,note_on,62,0,3,,,,,,,,,2,,69,49
115200,note_on,62,0,2,,,,,,,,,1,,76,53
115200,note_on,0,0,3,,,,,,,,,2,,67,71
115200,note_on,62,0,4,,,,,,,,,3,,61,54
115301,note_on,101,0,2,,,,,,,,,1,,76,0
115301,note_on,101,0,4,,,,,,,,,3,,61,0
115456,note_on,155,0,4,,,,,,,,,3,,62,55
115456,note_on,155,0,2,,,,,,,,,1,,74,48
115687,note_on,487,0,3,,,,,,,,,2,,67,0
115712,note_on,25,0,3,,,,,,,,,2,,66,61
115712,note_on,512,0,1,,,,,,,,,0,,78,54
115724,note_on,12,0,1,,,,,,,,,0,,79,0
115916,note_on,192,0,1,,,,,,,,,0,,78,0
115917,note_on,205,0,3,,,,,,,,,2,,69,0
115917,note_on,461,0,2,,,,,,,,,1,,74,0
115917,note_on,461,0,4,,,,,,,,,3,,62,0
115943,note_on,26,0,3,,,,,,,,,2,,66,0
115968,note_on,51,0,4,,,,,,,,,3,,57,47
115968,note_on,52,0,1,,,,,,,,,0,,76,47
115968,note_on,25,0,3,,,,,,,,,2,,67,44
115968,note_on,51,0,2,,,,,,,,,1,,73,48
116199,note_on,231,0,4,,,,,,,,,3,,57,0
116199,note_on,231,0,1,,,,,,,,,0,,76,0
116199,note_on,231,0,2,,,,,,,,,1,,73,0
116199,note_on,231,0,3,,,,,,,,,2,,67,0
116224,note_on,25,0,4,,,,,,,,,3,,62,59
116224,note_on,25,0,3,,,,,,,,,2,,66,43
116224,note_on,25,0,1,,,,,,,,,0,,74,49
116224,note_on,25,0,2,,,,,,,,,1,,74,56
116685,note_on,461,0,1,,,,,,,,,0,,74,0
116685,note_on,461,0,3,,,,,,,,,2,,66,0
116685,note_on,461,0,2,,,,,,,,,1,,74,0
116685,note_on,461,0,4,,,,,,,,,3,,62,0
116736,note_on,51,0,3,,,,,,,,,2,,57,56
116967,note_on,231,0,3,,,,,,,,,2,,57,0
116992,note_on,307,0,2,,,,,,,,,1,,69,53
116992,note_on,307,0,4,,,,,,,,,3,,62,55
116992,note_on,25,0,3,,,,,,,,,2,,66,72
117192,note_on,200,0,2,,,,,,,,,1,,69,0
117248,note_on,563,0,1,,,,,,,,,0,,66,54
117305,note_on,57,0,1,,,,,,,,,0,,66,0
117376,note_on,184,0,2,,,,,,,,,1,,69,59
117376,note_on,71,0,1,,,,,,,,,0,,69,61
117433,note_on,57,0,1,,,,,,,,,0,,69,0
117442,note_on,66,0,2,,,,,,,,,1,,69,0
117504,note_on,62,0,2,,,,,,,,,1,,69,63
117504,note_on,71,0,1,,,,,,,,,0,,74,68
117561,note_on,57,0,1,,,,,,,,,0,,74,0
117605,note_on,101,0,2,,,,,,,,,1,,69,0
117632,note_on,71,0,1,,,,,,,,,0,,78,65
117689,note_on,57,0,1,,,,,,,,,0,,78,0
117760,note_on,71,0,1,,,,,,,,,0,,81,65
117760,note_on,155,0,2,,,,,,,,,1,,69,59
117817,note_on,57,0,1,,,,,,,,,0,,81,0
117888,note_on,71,0,1,,,,,,,,,0,,81,65
117945,note_on,57,0,1,,,,,,,,,0,,81,0
118016,note_on,1024,0,4,,,,,,,,,3,,61,59
118016,note_on,71,0,1,,,,,,,,,0,,81,59
118016,note_on,1024,0,3,,,,,,,,,2,,64,55
118028,note_on,12,0,4,,,,,,,,,3,,62,0
118028,note_on,12,0,3,,,,,,,,,2,,66,0
118073,note_on,57,0,1,,,,,,,,,0,,81,0
118144,note_on,71,0,1,,,,,,,,,0,,81,60
118201,note_on,57,0,1,,,,,,,,,0,,81,0
118272,note_on,244,0,4,,,,,,,,,3,,59,61
118272,note_on,71,0,1,,,,,,,,,0,,81,57
118272,note_on,244,0,3,,,,,,,,,2,,62,52
118284,note_on,12,0,4,,,,,,,,,3,,61,0
118284,note_on,12,0,3,,,,,,,,,2,,64,0
118329,note_on,57,0,1,,,,,,,,,0,,81,0
118400,note_on,71,0,1,,,,,,,,,0,,81,67
118452,note_on,692,0,2,,,,,,,,,1,,69,0
118457,note_on,57,0,1,,,,,,,,,0,,81,0
118476,note_on,192,0,4,,,,,,,,,3,,59,0
118476,note_on,192,0,3,,,,,,,,,2,,62,0
118528,note_on,52,0,3,,,,,,,,,2,,64,63
118528,note_on,71,0,1,,,,,,,,,0,,81,59
118528,note_on,52,0,4,,,,,,,,,3,,61,66
118528,note_on,76,0,2,,,,,,,,,1,,69,61
118728,note_on,200,0,2,,,,,,,,,1,,69,0
118759,note_on,231,0,1,,,,,,,,,0,,81,0
118784,note_on,25,0,1,,,,,,,,,0,,76,55
118841,note_on,57,0,1,,,,,,,,,0,,76,0
118912,note_on,71,0,1,,,,,,,,,0,,81,64
118912,note_on,184,0,2,,,,,,,,,1,,69,65
118969,note_on,57,0,1,,,,,,,,,0,,81,0
118978,note_on,66,0,2,,,,,,,,,1,,69,0
119040,note_on,62,0,2,,,,,,,,,1,,69,65
119040,note_on,71,0,1,,,,,,,,,0,,85,70
119097,note_on,57,0,1,,,,,,,,,0,,85,0
119141,note_on,101,0,2,,,,,,,,,1,,69,0
119168,note_on,71,0,1,,,,,,,,,0,,88,66
119225,note_on,57,0,1,,,,,,,,,0,,88,0
119296,note_on,155,0,2,,,,,,,,,1,,69,61
119296,note_on,71,0,1,,,,,,,,,0,,93,70
119353,note_on,57,0,1,,,,,,,,,0,,93,0
119424,note_on,71,0,1,,,,,,,,,0,,93,62
119481,note_on,57,0,1,,,,,,,,,0,,93,0
119552,note_on,1024,0,3,,,,,,,,,2,,62,54
119552,note_on,71,0,1,,,,,,,,,0,,93,58
119552,note_on,1024,0,4,,,,,,,,,3,,59,55
119564,note_on,12,0,4,,,,,,,,,3,,61,0
119564,note_on,12,0,3,,,,,,,,,2,,64,0
119609,note_on,57,0,1,,,,,,,,,0,,93,0
119680,note_on,71,0,1,,,,,,,,,0,,93,58
119737,note_on,57,0,1,,,,,,,,,0,,93,0
119808,note_on,71,0,1,,,,,,,,,0,,93,60
119808,note_on,244,0,3,,,,,,,,,2,,61,55
119808,note_on,244,0,4,,,,,,,,,3,,57,56
119820,note_on,12,0,4,,,,,,,,,3,,59,0
119820,note_on,12,0,3,,,,,,,,,2,,62,0
119865,note_on,57,0,1,,,,,,,,,0,,93,0
119936,note_on,71,0,1,,,,,,,,,0,,93,63
119988,note_on,692,0,2,,,,,,,,,1,,69,0
119993,note_on,57,0,1,,,,,,,,,0,,93,0
120012,note_on,192,0,3,,,,,,,,,2,,61,0
120012,note_on,192,0,4,,,,,,,,,3,,57,0
120064,note_on,52,0,3,,,,,,,,,2,,62,67
120064,note_on,52,0,4,,,,,,,,,3,,59,63
120064,note_on,71,0,1,,,,,,,,,0,,88,50
120064,note_on,76,0,2,,,,,,,,,1,,69,63
120192,note_on,128,0,1,,,,,,,,,0,,90,65
120198,note_on,6,0,1,,,,,,,,,0,,88,0
120294,note_on,96,0,1,,,,,,,,,0,,90,0
120320,note_on,26,0,1,,,,,,,,,0,,88,54
120320,note_on,256,0,2,,,,,,,,,1,,68,58
120332,note_on,12,0,2,,,,,,,,,1,,69,0
120377,note_on,57,0,1,,,,,,,,,0,,88,0
120448,note_on,71,0,1,,,,,,,,,0,,88,60
120505,note_on,57,0,1,,,,,,,,,0,,88,0
120576,note_on,244,0,2,,,,,,,,,1,,66,61
120576,note_on,71,0,1,,,,,,,,,0,,88,57
120588,note_on,12,0,2,,,,,,,,,1,,68,0
120633,note_on,57,0,1,,,,,,,,,0,,88,0
120704,note_on,71,0,1,,,,,,,,,0,,88,60
120761,note_on,57,0,1,,,,,,,,,0,,88,0
120780,note_on,192,0,2,,,,,,,,,1,,66,0
120832,note_on,52,0,2,,,,,,,,,1,,68,65
120832,note_on,71,0,1,,,,,,,,,0,,88,61
120889,note_on,57,0,1,,,,,,,,,0,,88,0
120960,note_on,71,0,1,,,,,,,,,0,,88,58
121017,note_on,57,0,1,,,,,,,,,0,,88,0
121088,note_on,1024,0,3,,,,,,,,,2,,66,67
121088,note_on,71,0,1,,,,,,,,,0,,88,62
121100,note_on,12,0,3,,,,,,,,,2,,62,0
121145,note_on,57,0,1,,,,,,,,,0,,88,0
121216,note_on,71,0,1,,,,,,,,,0,,88,58
121273,note_on,57,0,1,,,,,,,,,0,,88,0
121344,note_on,71,0,1,,,,,,,,,0,,88,62
121344,note_on,244,0,3,,,,,,,,,2,,64,56
121356,note_on,12,0,3,,,,,,,,,2,,66,0
121401,note_on,57,0,1,,,,,,,,,0,,88,0
121472,note_on,71,0,1,,,,,,,,,0,,88,59
121524,note_on,692,0,2,,,,,,,,,1,,68,0
121524,note_on,1460,0,4,,,,,,,,,3,,59,0
121529,note_on,57,0,1,,,,,,,,,0,,88,0
121548,note_on,192,0,3,,,,,,,,,2,,64,0
121600,note_on,71,0,1,,,,,,,,,0,,88,63
121600,note_on,76,0,2,,,,,,,,,1,,68,61
121600,note_on,76,0,4,,,,,,,,,3,,57,62
121600,note_on,52,0,3,,,,,,,,,2,,62,58
122368,note_on,768,0,1,,,,,,,,,0,,88,0
122368,note_on,0,0,2,,,,,,,,,1,,69,69
122368,note_on,768,0,2,,,,,,,,,1,,68,0
122368,note_on,0,0,3,,,,,,,,,2,,61,57
122368,note_on,0,0,1,,,,,,,,,0,,81,48
122368,note_on,768,0,3,,,,,,,,,2,,62,0
122572,note_on,204,0,1,,,,,,,,,0,,81,0
122624,note_on,1024,0,4,,,,,,,,,3,,61,68
122624,note_on,256,0,3,,,,,,,,,2,,64,67
122636,note_on,12,0,4,,,,,,,,,3,,57,0
122636,note_on,12,0,3,,,,,,,,,2,,61,0
122880,note_on,244,0,4,,,,,,,,,3,,67,69
122880,note_on,244,0,3,,,,,,,,,2,,69,67
122880,note_on,512,0,2,,,,,,,,,1,,73,69
122892,note_on,12,0,4,,,,,,,,,3,,61,0
122892,note_on,12,0,3,,,,,,,,,2,,64,0
122905,note_on,25,0,2,,,,,,,,,1,,69,0
123084,note_on,192,0,4,,,,,,,,,3,,67,0
123084,note_on,179,0,2,,,,,,,,,1,,73,0
123084,note_on,192,0,3,,,,,,,,,2,,69,0
123136,note_on,52,0,3,,,,,,,,,2,,69,60
123136,note_on,52,0,2,,,,,,,,,1,,74,64
123136,note_on,52,0,4,,,,,,,,,3,,66,59
123336,note_on,200,0,2,,,,,,,,,1,,74,0
123392,note_on,820,0,1,,,,,,,,,0,,62,54
123449,note_on,57,0,1,,,,,,,,,0,,62,0
123520,note_on,184,0,2,,,,,,,,,1,,74,63
123520,note_on,71,0,1,,,,,,,,,0,,74,77
123577,note_on,57,0,1,,,,,,,,,0,,74,0
123586,note_on,66,0,2,,,,,,,,,1,,74,0
123648,note_on,71,0,1,,,,,,,,,0,,78,71
123648,note_on,62,0,2,,,,,,,,,1,,74,54
123705,note_on,57,0,1,,,,,,,,,0,,78,0
123749,note_on,101,0,2,,,,,,,,,1,,74,0
123776,note_on,71,0,1,,,,,,,,,0,,81,69
123833,note_on,57,0,1,,,,,,,,,0,,81,0
123904,note_on,71,0,1,,,,,,,,,0,,86,66
123904,note_on,155,0,2,,,,,,,,,1,,74,61
123961,note_on,57,0,1,,,,,,,,,0,,86,0
124032,note_on,71,0,1,,,,,,,,,0,,86,60
124089,note_on,57,0,1,,,,,,,,,0,,86,0
124160,note_on,1024,0,3,,,,,,,,,2,,71,66
124160,note_on,1024,0,4,,,,,,,,,3,,67,67
124160,note_on,71,0,1,,,,,,,,,0,,86,62
124172,note_on,12,0,4,,,,,,,,,3,,66,0
124172,note_on,12,0,3,,,,,,,,,2,,69,0
124217,note_on,57,0,1,,,,,,,,,0,,86,0
124288,note_on,71,0,1,,,,,,,,,0,,86,58
124345,note_on,57,0,1,,,,,,,,,0,,86,0
124416,note_on,244,0,4,,,,,,,,,3,,66,59
124416,note_on,71,0,1,,,,,,,,,0,,86,59
124416,note_on,244,0,3,,,,,,,,,2,,69,62
124428,note_on,12,0,4,,,,,,,,,3,,67,0
124428,note_on,12,0,3,,,,,,,,,2,,71,0
124473,note_on,57,0,1,,,,,,,,,0,,86,0
124544,note_on,71,0,1,,,,,,,,,0,,86,61
124601,note_on,57,0,1,,,,,,,,,0,,86,0
124620,note_on,192,0,4,,,,,,,,,3,,66,0
124620,note_on,192,0,3,,,,,,,,,2,,69,0
124672,note_on,52,0,4,,,,,,,,,3,,65,59
124672,note_on,52,0,3,,,,,,,,,2,,68,57
124928,note_on,327,0,1,,,,,,,,,0,,83,57
125018,note_on,1114,0,2,,,,,,,,,1,,74,0
125056,note_on,38,0,2,,,,,,,,,1,,74,58
125056,note_on,128,0,1,,,,,,,,,0,,85,62
125062,note_on,6,0,1,,,,,,,,,0,,83,0
125113,note_on,57,0,2,,,,,,,,,1,,74,0
125158,note_on,96,0,1,,,,,,,,,0,,85,0
125184,note_on,26,0,1,,,,,,,,,0,,83,57
125184,note_on,71,0,2,,,,,,,,,1,,74,56
125241,note_on,57,0,1,,,,,,,,,0,,83,0
125299,note_on,115,0,2,,,,,,,,,1,,74,0
125312,note_on,71,0,1,,,,,,,,,0,,83,64
125364,note_on,692,0,4,,,,,,,,,3,,65,0
125369,note_on,57,0,1,,,,,,,,,0,,83,0
125440,note_on,141,0,2,,,,,,,,,1,,79,70
125440,note_on,0,0,3,,,,,,,,,2,,67,67
125440,note_on,0,0,3,,,,,,,,,2,,70,67
125440,note_on,76,0,4,,,,,,,,,3,,64,58
125440,note_on,768,0,3,,,,,,,,,2,,68,0
125696,note_on,327,0,1,,,,,,,,,0,,85,55
125747,note_on,0,0,3,,,,,,,,,2,,70,0
125747,note_on,307,0,3,,,,,,,,,2,,67,0
125786,note_on,346,0,4,,,,,,,,,3,,64,0
125786,note_on,346,0,2,,,,,,,,,1,,79,0
125824,note_on,38,0,2,,,,,,,,,1,,79,65
125824,note_on,77,0,3,,,,,,,,,2,,67,60
125824,note_on,0,0,3,,,,,,,,,2,,70,60
125824,note_on,128,0,1,,,,,,,,,0,,86,61
125824,note_on,38,0,4,,,,,,,,,3,,64,61
125830,note_on,6,0,1,,,,,,,,,0,,85,0
125926,note_on,96,0,1,,,,,,,,,0,,86,0
125940,note_on,116,0,2,,,,,,,,,1,,79,0
125940,note_on,0,0,3,,,,,,,,,2,,70,0
125940,note_on,116,0,3,,,,,,,,,2,,67,0
125940,note_on,116,0,4,,,,,,,,,3,,64,0
125952,note_on,12,0,2,,,,,,,,,1,,79,61
125952,note_on,12,0,4,,,,,,,,,3,,64,56
125952,note_on,12,0,3,,,,,,,,,2,,67,59
125952,note_on,0,0,3,,,,,,,,,2,,70,59
125952,note_on,26,0,1,,,,,,,,,0,,85,56
126009,note_on,57,0,1,,,,,,,,,0,,85,0
126080,note_on,71,0,1,,,,,,,,,0,,85,63
126137,note_on,57,0,1,,,,,,,,,0,,85,0
126183,note_on,231,0,4,,,,,,,,,3,,64,0
126183,note_on,231,0,3,,,,,,,,,2,,67,0
126183,note_on,231,0,2,,,,,,,,,1,,79,0
126183,note_on,0,0,3,,,,,,,,,2,,70,0
126208,note_on,25,0,4,,,,,,,,,3,,62,60
126208,note_on,25,0,2,,,,,,,,,1,,79,60
126208,note_on,25,0,3,,,,,,,,,2,,67,61
126208,note_on,0,0,3,,,,,,,,,2,,70,61
126464,note_on,327,0,1,,,,,,,,,0,,86,55
126554,note_on,346,0,4,,,,,,,,,3,,62,0
126554,note_on,346,0,2,,,,,,,,,1,,79,0
126554,note_on,346,0,3,,,,,,,,,2,,67,0
126554,note_on,0,0,3,,,,,,,,,2,,70,0
126592,note_on,128,0,1,,,,,,,,,0,,88,64
126592,note_on,38,0,3,,,,,,,,,2,,67,55
126592,note_on,0,0,3,,,,,,,,,2,,70,55
126592,note_on,38,0,4,,,,,,,,,3,,62,64
126592,note_on,38,0,2,,,,,,,,,1,,79,63
126598,note_on,6,0,1,,,,,,,,,0,,86,0
126694,note_on,96,0,1,,,,,,,,,0,,88,0
126708,note_on,116,0,3,,,,,,,,,2,,67,0
126708,note_on,0,0,3,,,,,,,,,2,,70,0
126708,note_on,116,0,2,,,,,,,,,1,,79,0
126708,note_on,116,0,4,,,,,,,,,3,,62,0
126720,note_on,26,0,1,,,,,,,,,0,,86,59
126720,note_on,0,0,3,,,,,,,,,2,,70,61
126720,note_on,12,0,3,,,,,,,,,2,,67,61
126720,note_on,12,0,2,,,,,,,,,1,,79,63
126720,note_on,12,0,4,,,,,,,,,3,,62,62
126777,note_on,57,0,1,,,,,,,,,0,,86,0
126848,note_on,71,0,1,,,,,,,,,0,,86,61
126905,note_on,57,0,1,,,,,,,,,0,,86,0
126951,note_on,231,0,2,,,,,,,,,1,,79,0
126951,note_on,231,0,3,,,,,,,,,2,,67,0
126951,note_on,0,0,3,,,,,,,,,2,,70,0
126951,note_on,231,0,4,,,,,,,,,3,,62,0
126976,note_on,25,0,4,,,,,,,,,3,,61,58
126976,note_on,25,0,2,,,,,,,,,1,,79,64
126976,note_on,0,0,3,,,,,,,,,2,,69,54
126976,note_on,25,0,3,,,,,,,,,2,,67,54
127232,note_on,327,0,1,,,,,,,,,0,,88,53
127322,note_on,0,0,3,,,,,,,,,2,,69,0
127322,note_on,346,0,3,,,,,,,,,2,,67,0
127322,note_on,346,0,4,,,,,,,,,3,,61,0
127322,note_on,346,0,2,,,,,,,,,1,,79,0
127360,note_on,38,0,4,,,,,,,,,3,,61,58
127360,note_on,38,0,3,,,,,,,,,2,,67,59
127360,note_on,0,0,3,,,,,,,,,2,,69,59
127360,note_on,38,0,2,,,,,,,,,1,,79,60
127360,note_on,128,0,1,,,,,,,,,0,,90,60
127366,note_on,6,0,1,,,,,,,,,0,,88,0
127462,note_on,96,0,1,,,,,,,,,0,,90,0
127476,note_on,116,0,3,,,,,,,,,2,,67,0
127476,note_on,0,0,3,,,,,,,,,2,,69,0
127476,note_on,116,0,4,,,,,,,,,3,,61,0
127476,note_on,116,0,2,,,,,,,,,1,,79,0
127488,note_on,26,0,1,,,,,,,,,0,,88,56
127488,note_on,12,0,3,,,,,,,,,2,,69,60
127488,note_on,12,0,4,,,,,,,,,3,,61,63
127488,note_on,0,0,3,,,,,,,,,2,,67,70
127488,note_on,12,0,2,,,,,,,,,1,,79,59
127545,note_on,57,0,1,,,,,,,,,0,,88,0
127616,note_on,71,0,1,,,,,,,,,0,,88,60
127673,note_on,57,0,1,,,,,,,,,0,,88,0
127719,note_on,231,0,4,,,,,,,,,3,,61,0
127744,note_on,71,0,1,,,,,,,,,0,,90,61
127744,note_on,25,0,4,,,,,,,,,3,,62,65
127872,note_on,128,0,1,,,,,,,,,0,,91,62
127878,note_on,6,0,1,,,,,,,,,0,,90,0
127974,note_on,96,0,1,,,,,,,,,0,,91,0
127975,note_on,487,0,3,,,,,,,,,2,,67,0
127975,note_on,487,0,2,,,,,,,,,1,,79,0
128000,note_on,25,0,3,,,,,,,,,2,,66,58
128000,note_on,26,0,1,,,,,,,,,0,,93,64
128000,note_on,25,0,2,,,,,,,,,1,,78,63
128057,note_on,57,0,1,,,,,,,,,0,,93,0
128128,note_on,71,0,1,,,,,,,,,0,,93,59
128185,note_on,57,0,1,,,,,,,,,0,,93,0
128205,note_on,205,0,3,,,,,,,,,2,,69,0
128205,note_on,461,0,4,,,,,,,,,3,,62,0
128231,note_on,26,0,3,,,,,,,,,2,,66,0
128231,note_on,231,0,2,,,,,,,,,1,,78,0
128256,note_on,71,0,1,,,,,,,,,0,,93,62
128256,note_on,25,0,3,,,,,,,,,2,,67,58
128256,note_on,51,0,4,,,,,,,,,3,,57,59
128256,note_on,25,0,2,,,,,,,,,1,,73,57
128256,note_on,0,0,2,,,,,,,,,1,,76,57
128313,note_on,57,0,1,,,,,,,,,0,,93,0
128384,note_on,71,0,1,,,,,,,,,0,,93,60
128441,note_on,57,0,1,,,,,,,,,0,,93,0
128487,note_on,231,0,3,,,,,,,,,2,,67,0
128487,note_on,231,0,4,,,,,,,,,3,,57,0
128487,note_on,0,0,2,,,,,,,,,1,,76,0
128487,note_on,231,0,2,,,,,,,,,1,,73,0
128512,note_on,25,0,2,,,,,,,,,1,,74,55
128512,note_on,25,0,3,,,,,,,,,2,,66,62
128512,note_on,71,0,1,,,,,,,,,0,,98,69
128512,note_on,25,0,4,,,,,,,,,3,,50,56
128743,note_on,231,0,1,,,,,,,,,0,,98,0
128973,note_on,461,0,2,,,,,,,,,1,,74,0
128973,note_on,461,0,3,,,,,,,,,2,,66,0
128973,note_on,461,0,4,,,,,,,,,3,,50,0
129024,note_on,281,0,1,,,,,,,,,0,,69,55
129255,note_on,231,0,1,,,,,,,,,0,,69,0
129280,note_on,307,0,3,,,,,,,,,2,,57,55
129280,note_on,0,0,2,,,,,,,,,1,,69,51
129280,note_on,307,0,2,,,,,,,,,1,,67,51
129280,note_on,25,0,1,,,,,,,,,0,,76,69
129280,note_on,307,0,4,,,,,,,,,3,,61,45
129626,note_on,0,0,2,,,,,,,,,1,,69,0
129626,note_on,346,0,2,,,,,,,,,1,,67,0
129664,note_on,0,0,2,,,,,,,,,1,,69,57
129664,note_on,38,0,2,,,,,,,,,1,,67,57
129780,note_on,0,0,2,,,,,,,,,1,,69,0
129780,note_on,116,0,2,,,,,,,,,1,,67,0
129792,note_on,0,0,2,,,,,,,,,1,,69,64
129792,note_on,12,0,2,,,,,,,,,1,,67,64
129972,note_on,692,0,3,,,,,,,,,2,,57,0
130023,note_on,0,0,2,,,,,,,,,1,,69,0
130023,note_on,231,0,2,,,,,,,,,1,,67,0
130048,note_on,0,0,2,,,,,,,,,1,,69,60
130048,note_on,25,0,2,,,,,,,,,1,,67,60
130048,note_on,76,0,3,,,,,,,,,2,,57,60
130304,note_on,1024,0,4,,,,,,,,,3,,59,49
130304,note_on,1024,0,1,,,,,,,,,0,,74,54
130316,note_on,12,0,4,,,,,,,,,3,,61,0
130316,note_on,12,0,1,,,,,,,,,0,,76,0
130560,note_on,244,0,4,,,,,,,,,3,,57,52
130560,note_on,244,0,1,,,,,,,,,0,,73,56
130572,note_on,12,0,1,,,,,,,,,0,,74,0
130572,note_on,12,0,4,,,,,,,,,3,,59,0
130740,note_on,0,0,2,,,,,,,,,1,,69,0
130740,note_on,692,0,3,,,,,,,,,2,,57,0
130740,note_on,692,0,2,,,,,,,,,1,,67,0
130764,note_on,192,0,4,,,,,,,,,3,,57,0
130764,note_on,192,0,1,,,,,,,,,0,,73,0
130816,note_on,52,0,4,,,,,,,,,3,,62,58
130816,note_on,0,0,2,,,,,,,,,1,,69,59
130816,note_on,76,0,2,,,,,,,,,1,,66,59
130816,note_on,76,0,3,,,,,,,,,2,,57,58
130816,note_on,52,0,1,,,,,,,,,0,,78,63
131162,note_on,0,0,2,,,,,,,,,1,,69,0
131162,note_on,346,0,2,,,,,,,,,1,,66,0
131200,note_on,0,0,2,,,,,,,,,1,,69,53
131200,note_on,38,0,2,,,,,,,,,1,,66,53
131316,note_on,0,0,2,,,,,,,,,1,,69,0
131316,note_on,116,0,2,,,,,,,,,1,,66,0
131328,note_on,0,0,2,,,,,,,,,1,,69,60
131328,note_on,12,0,2,,,,,,,,,1,,66,60
131508,note_on,692,0,3,,,,,,,,,2,,57,0
131559,note_on,0,0,2,,,,,,,,,1,,69,0
131559,note_on,231,0,2,,,,,,,,,1,,66,0
131584,note_on,0,0,2,,,,,,,,,1,,66,68
131584,note_on,25,0,2,,,,,,,,,1,,69,63
131584,note_on,76,0,3,,,,,,,,,2,,57,60
131840,note_on,1024,0,4,,,,,,,,,3,,61,47
131840,note_on,256,0,2,,,,,,,,,1,,67,65
131840,note_on,1024,0,1,,,,,,,,,0,,76,57
131852,note_on,12,0,1,,,,,,,,,0,,78,0
131852,note_on,12,0,2,,,,,,,,,1,,66,0
131852,note_on,12,0,4,,,,,,,,,3,,62,0
132096,note_on,244,0,1,,,,,,,,,0,,74,52
132096,note_on,244,0,4,,,,,,,,,3,,62,52
132096,note_on,244,0,2,,,,,,,,,1,,66,58
132108,note_on,12,0,1,,,,,,,,,0,,76,0
132108,note_on,12,0,4,,,,,,,,,3,,61,0
132108,note_on,12,0,2,,,,,,,,,1,,67,0
132250,note_on,142,0,2,,,,,,,,,1,,69,0
132276,note_on,692,0,3,,,,,,,,,2,,57,0
132300,note_on,192,0,4,,,,,,,,,3,,62,0
132300,note_on,50,0,2,,,,,,,,,1,,66,0
132300,note_on,192,0,1,,,,,,,,,0,,74,0
132352,note_on,52,0,2,,,,,,,,,1,,73,65
132352,note_on,52,0,4,,,,,,,,,3,,64,54
132352,note_on,76,0,3,,,,,,,,,2,,57,58
132352,note_on,0,0,1,,,,,,,,,0,,79,71
132352,note_on,52,0,1,,,,,,,,,0,,69,71
132698,note_on,346,0,3,,,,,,,,,2,,57,0
132698,note_on,0,0,1,,,,,,,,,0,,79,0
132698,note_on,346,0,1,,,,,,,,,0,,69,0
132698,note_on,346,0,4,,,,,,,,,3,,64,0
132698,note_on,346,0,2,,,,,,,,,1,,73,0
132736,note_on,38,0,3,,,,,,,,,2,,57,59
132736,note_on,38,0,4,,,,,,,,,3,,64,50
132736,note_on,38,0,2,,,,,,,,,1,,73,56
132736,note_on,38,0,1,,,,,,,,,0,,69,62
132736,note_on,0,0,1,,,,,,,,,0,,79,62
132852,note_on,116,0,4,,,,,,,,,3,,64,0
132852,note_on,116,0,1,,,,,,,,,0,,69,0
132852,note_on,0,0,1,,,,,,,,,0,,79,0
132852,note_on,116,0,3,,,,,,,,,2,,57,0
132852,note_on,116,0,2,,,,,,,,,1,,73,0
132864,note_on,0,0,1,,,,,,,,,0,,79,65
132864,note_on,12,0,3,,,,,,,,,2,,57,58
132864,note_on,12,0,2,,,,,,,,,1,,73,64
132864,note_on,12,0,4,,,,,,,,,3,,64,48
132864,note_on,12,0,1,,,,,,,,,0,,69,65
133095,note_on,231,0,3,,,,,,,,,2,,57,0
133095,note_on,231,0,1,,,,,,,,,0,,69,0
133095,note_on,0,0,1,,,,,,,,,0,,79,0
133095,note_on,231,0,2,,,,,,,,,1,,73,0
133095,note_on,231,0,4,,,,,,,,,3,,64,0
133120,note_on,25,0,3,,,,,,,,,2,,57,59
133120,note_on,25,0,2,,,,,,,,,1,,74,56
133120,note_on,25,0,4,,,,,,,,,3,,65,56
133120,note_on,25,0,1,,,,,,,,,0,,71,62
133120,note_on,0,0,1,,,,,,,,,0,,80,62
133466,note_on,346,0,3,,,,,,,,,2,,57,0
133466,note_on,346,0,2,,,,,,,,,1,,74,0
133466,note_on,346,0,1,,,,,,,,,0,,71,0
133466,note_on,0,0,1,,,,,,,,,0,,80,0
133466,note_on,346,0,4,,,,,,,,,3,,65,0
133504,note_on,38,0,3,,,,,,,,,2,,57,59
133504,note_on,38,0,2,,,,,,,,,1,,74,62
133504,note_on,0,0,1,,,,,,,,,0,,80,64
133504,note_on,38,0,1,,,,,,,,,0,,71,64
133504,note_on,38,0,4,,,,,,,,,3,,65,50
133620,note_on,116,0,1,,,,,,,,,0,,71,0
133620,note_on,116,0,3,,,,,,,,,2,,57,0
133620,note_on,116,0,4,,,,,,,,,3,,65,0
133620,note_on,116,0,2,,,,,,,,,1,,74,0
133620,note_on,0,0,1,,,,,,,,,0,,80,0
133632,note_on,12,0,2,,,,,,,,,1,,74,59
133632,note_on,12,0,4,,,,,,,,,3,,65,52
133632,note_on,12,0,1,,,,,,,,,0,,71,60
133632,note_on,0,0,1,,,,,,,,,0,,80,60
133632,note_on,12,0,3,,,,,,,,,2,,57,63
133863,note_on,231,0,1,,,,,,,,,0,,71,0
133863,note_on,231,0,2,,,,,,,,,1,,74,0
133863,note_on,0,0,1,,,,,,,,,0,,80,0
133863,note_on,231,0,3,,,,,,,,,2,,57,0
133863,note_on,231,0,4,,,,,,,,,3,,65,0
133888,note_on,25,0,2,,,,,,,,,1,,68,60
133888,note_on,0,0,2,,,,,,,,,1,,76,60
133888,note_on,0,0,1,,,,,,,,,0,,83,60
133888,note_on,25,0,4,,,,,,,,,3,,64,50
133888,note_on,25,0,1,,,,,,,,,0,,74,60
133888,note_on,25,0,3,,,,,,,,,2,,57,60
134656,note_on,768,0,2,,,,,,,,,1,,68,0
134656,note_on,0,0,1,,,,,,,,,0,,83,0
134656,note_on,0,0,1,,,,,,,,,0,,73,35
134656,note_on,0,0,1,,,,,,,,,0,,81,35
134656,note_on,0,0,2,,,,,,,,,1,,76,0
134656,note_on,0,0,2,,,,,,,,,1,,69,35
134656,note_on,0,0,2,,,,,,,,,1,,76,35
134656,note_on,768,0,1,,,,,,,,,0,,74,0
134836,note_on,180,0,2,,,,,,,,,1,,69,0
134836,note_on,0,0,1,,,,,,,,,0,,81,0
134836,note_on,180,0,1,,,,,,,,,0,,73,0
134836,note_on,0,0,2,,,,,,,,,1,,76,0
134887,note_on,999,0,4,,,,,,,,,3,,64,0
134887,note_on,999,0,3,,,,,,,,,2,,57,0
135168,note_on,332,0,1,,,,,,,,,0,,69,49
135399,note_on,231,0,1,,,,,,,,,0,,69,0
135424,note_on,588,0,2,,,,,,,,,1,,67,45
135424,note_on,0,0,2,,,,,,,,,1,,69,45
135424,note_on,537,0,3,,,,,,,,,2,,57,44
135424,note_on,25,0,1,,,,,,,,,0,,76,60
135424,note_on,537,0,4,,,,,,,,,3,,61,44
135770,note_on,346,0,2,,,,,,,,,1,,67,0
135770,note_on,0,0,2,,,,,,,,,1,,69,0
135808,note_on,38,0,2,,,,,,,,,1,,67,54
135808,note_on,0,0,2,,,,,,,,,1,,69,54
135924,note_on,116,0,2,,,,,,,,,1,,67,0
135924,note_on,0,0,2,,,,,,,,,1,,69,0
135936,note_on,12,0,2,,,,,,,,,1,,67,53
135936,note_on,0,0,2,,,,,,,,,1,,69,53
136167,note_on,0,0,2,,,,,,,,,1,,69,0
136167,note_on,231,0,2,,,,,,,,,1,,67,0
136192,note_on,0,0,2,,,,,,,,,1,,69,48
136192,note_on,25,0,2,,,,,,,,,1,,67,48
136448,note_on,1024,0,4,,,,,,,,,3,,59,47
136448,note_on,1024,0,1,,,,,,,,,0,,74,44
136460,note_on,12,0,4,,,,,,,,,3,,61,0
136460,note_on,12,0,1,,,,,,,,,0,,76,0
136704,note_on,244,0,1,,,,,,,,,0,,73,46
136704,note_on,244,0,4,,,,,,,,,3,,57,52
136716,note_on,12,0,4,,,,,,,,,3,,59,0
136716,note_on,12,0,1,,,,,,,,,0,,74,0
136884,note_on,0,0,2,,,,,,,,,1,,69,0
136884,note_on,1460,0,3,,,,,,,,,2,,57,0
136884,note_on,692,0,2,,,,,,,,,1,,67,0
136908,note_on,192,0,1,,,,,,,,,0,,73,0
136908,note_on,192,0,4,,,,,,,,,3,,57,0
136960,note_on,76,0,2,,,,,,,,,1,,65,52
136960,note_on,0,0,2,,,,,,,,,1,,69,52
136960,note_on,52,0,1,,,,,,,,,0,,77,51
136960,note_on,52,0,4,,,,,,,,,3,,62,58
136960,note_on,76,0,3,,,,,,,,,2,,57,54
137306,note_on,346,0,2,,,,,,,,,1,,65,0
137306,note_on,0,0,2,,,,,,,,,1,,69,0
137344,note_on,38,0,2,,,,,,,,,1,,65,47
137344,note_on,0,0,2,,,,,,,,,1,,69,47
137460,note_on,116,0,2,,,,,,,,,1,,65,0
137460,note_on,0,0,2,,,,,,,,,1,,69,0
137472,note_on,0,0,2,,,,,,,,,1,,69,53
137472,note_on,12,0,2,,,,,,,,,1,,65,53
137703,note_on,231,0,2,,,,,,,,,1,,65,0
137703,note_on,0,0,2,,,,,,,,,1,,69,0
137728,note_on,0,0,2,,,,,,,,,1,,65,31
137728,note_on,25,0,2,,,,,,,,,1,,69,52
137984,note_on,1024,0,4,,,,,,,,,3,,61,49
137984,note_on,1024,0,1,,,,,,,,,0,,76,50
137984,note_on,256,0,2,,,,,,,,,1,,67,34
137996,note_on,12,0,4,,,,,,,,,3,,62,0
137996,note_on,12,0,1,,,,,,,,,0,,77,0
137996,note_on,12,0,2,,,,,,,,,1,,65,0
138240,note_on,244,0,1,,,,,,,,,0,,74,50
138240,note_on,244,0,2,,,,,,,,,1,,65,35
138240,note_on,244,0,4,,,,,,,,,3,,62,54
138252,note_on,12,0,1,,,,,,,,,0,,76,0
138252,note_on,12,0,2,,,,,,,,,1,,67,0
138252,note_on,12,0,4,,,,,,,,,3,,61,0
138394,note_on,142,0,2,,,,,,,,,1,,69,0
138420,note_on,1460,0,3,,,,,,,,,2,,57,0
138444,note_on,50,0,2,,,,,,,,,1,,65,0
138444,note_on,192,0,1,,,,,,,,,0,,74,0
138444,note_on,192,0,4,,,,,,,,,3,,62,0
138496,note_on,52,0,4,,,,,,,,,3,,58,50
138496,note_on,52,0,2,,,,,,,,,1,,65,50
138496,note_on,76,0,3,,,,,,,,,2,,62,50
138496,note_on,52,0,1,,,,,,,,,0,,77,50
138842,note_on,346,0,2,,,,,,,,,1,,65,0
138842,note_on,346,0,4,,,,,,,,,3,,58,0
138842,note_on,346,0,1,,,,,,,,,0,,77,0
138842,note_on,346,0,3,,,,,,,,,2,,62,0
138880,note_on,38,0,4,,,,,,,,,3,,58,63
138880,note_on,38,0,2,,,,,,,,,1,,65,66
138880,note_on,38,0,3,,,,,,,,,2,,62,63
138880,note_on,38,0,1,,,,,,,,,0,,77,63
138996,note_on,116,0,2,,,,,,,,,1,,65,0
138996,note_on,116,0,4,,,,,,,,,3,,58,0
138996,note_on,116,0,3,,,,,,,,,2,,62,0
138996,note_on,116,0,1,,,,,,,,,0,,77,0
139008,note_on,12,0,4,,,,,,,,,3,,58,67
139008,note_on,12,0,1,,,,,,,,,0,,77,67
139008,note_on,12,0,2,,,,,,,,,1,,65,71
139008,note_on,12,0,3,,,,,,,,,2,,62,67
139239,note_on,231,0,2,,,,,,,,,1,,65,0
139239,note_on,231,0,3,,,,,,,,,2,,62,0
139239,note_on,231,0,4,,,,,,,,,3,,58,0
139239,note_on,231,0,1,,,,,,,,,0,,77,0
139264,note_on,25,0,3,,,,,,,,,2,,62,76
139264,note_on,25,0,1,,,,,,,,,0,,77,76
139264,note_on,25,0,2,,,,,,,,,1,,65,76
139264,note_on,25,0,4,,,,,,,,,3,,58,76
139520,note_on,256,0,1,,,,,,,,,0,,81,65
139520,note_on,256,0,2,,,,,,,,,1,,69,63
139520,note_on,256,0,3,,,,,,,,,2,,65,63
139532,note_on,12,0,1,,,,,,,,,0,,77,0
139532,note_on,12,0,3,,,,,,,,,2,,62,0
139532,note_on,12,0,2,,,,,,,,,1,,65,0
139776,note_on,244,0,1,,,,,,,,,0,,79,54
139776,note_on,244,0,3,,,,,,,,,2,,64,50
139776,note_on,244,0,2,,,,,,,,,1,,67,50
139788,note_on,12,0,2,,,,,,,,,1,,69,0
139788,note_on,12,0,3,,,,,,,,,2,,65,0
139788,note_on,12,0,1,,,,,,,,,0,,81,0
139956,note_on,692,0,4,,,,,,,,,3,,58,0
139980,note_on,192,0,2,,,,,,,,,1,,67,0
139980,note_on,192,0,3,,,,,,,,,2,,64,0
139980,note_on,192,0,1,,,,,,,,,0,,79,0
140032,note_on,52,0,2,,,,,,,,,1,,65,47
140032,note_on,52,0,3,,,,,,,,,2,,62,47
140032,note_on,52,0,1,,,,,,,,,0,,77,47
140032,note_on,76,0,4,,,,,,,,,3,,57,47
140800,note_on,768,0,1,,,,,,,,,0,,77,0
140800,note_on,0,0,1,,,,,,,,,0,,76,45
140800,note_on,0,0,2,,,,,,,,,1,,64,45
140800,note_on,768,0,3,,,,,,,,,2,,62,0
140800,note_on,0,0,3,,,,,,,,,2,,61,45
140800,note_on,768,0,2,,,,,,,,,1,,65,0
141004,note_on,204,0,3,,,,,,,,,2,,61,0
141004,note_on,204,0,1,,,,,,,,,0,,76,0
141004,note_on,204,0,2,,,,,,,,,1,,64,0
141031,note_on,999,0,4,,,,,,,,,3,,57,0
141312,note_on,308,0,1,,,,,,,,,0,,69,39
141543,note_on,231,0,1,,,,,,,,,0,,69,0
141568,note_on,537,0,4,,,,,,,,,3,,62,45
141568,note_on,564,0,3,,,,,,,,,2,,66,45
141568,note_on,25,0,1,,,,,,,,,0,,78,60
141568,note_on,564,0,2,,,,,,,,,1,,69,46
141914,note_on,346,0,2,,,,,,,,,1,,69,0
141952,note_on,38,0,2,,,,,,,,,1,,69,49
142068,note_on,116,0,2,,,,,,,,,1,,69,0
142080,note_on,12,0,2,,,,,,,,,1,,69,53
142311,note_on,231,0,2,,,,,,,,,1,,69,0
142336,note_on,25,0,2,,,,,,,,,1,,69,49
142592,note_on,1024,0,4,,,,,,,,,3,,61,47
142592,note_on,1024,0,3,,,,,,,,,2,,64,42
142592,note_on,1024,0,1,,,,,,,,,0,,76,51
142604,note_on,12,0,4,,,,,,,,,3,,62,0
142604,note_on,12,0,3,,,,,,,,,2,,66,0
142604,note_on,12,0,1,,,,,,,,,0,,78,0
142848,note_on,244,0,4,,,,,,,,,3,,59,51
142848,note_on,244,0,1,,,,,,,,,0,,74,51
142848,note_on,244,0,3,,,,,,,,,2,,62,41
142860,note_on,12,0,3,,,,,,,,,2,,64,0
142860,note_on,12,0,1,,,,,,,,,0,,76,0
142860,note_on,12,0,4,,,,,,,,,3,,61,0
143028,note_on,692,0,2,,,,,,,,,1,,69,0
143052,note_on,192,0,4,,,,,,,,,3,,59,0
143052,note_on,192,0,1,,,,,,,,,0,,74,0
143052,note_on,192,0,3,,,,,,,,,2,,62,0
143104,note_on,76,0,2,,,,,,,,,1,,69,52
143104,note_on,52,0,4,,,,,,,,,3,,61,51
143104,note_on,52,0,3,,,,,,,,,2,,64,51
143104,note_on,52,0,1,,,,,,,,,0,,76,51
143450,note_on,346,0,2,,,,,,,,,1,,69,0
143488,note_on,38,0,2,,,,,,,,,1,,69,49
143604,note_on,116,0,2,,,,,,,,,1,,69,0
143616,note_on,12,0,2,,,,,,,,,1,,69,50
143847,note_on,231,0,2,,,,,,,,,1,,69,0
143872,note_on,25,0,2,,,,,,,,,1,,69,52
144128,note_on,1024,0,1,,,,,,,,,0,,78,55
144128,note_on,1024,0,3,,,,,,,,,2,,66,58
144128,note_on,1024,0,4,,,,,,,,,3,,62,50
144140,note_on,12,0,3,,,,,,,,,2,,64,0
144140,note_on,12,0,1,,,,,,,,,0,,76,0
144140,note_on,12,0,4,,,,,,,,,3,,61,0
144384,note_on,244,0,1,,,,,,,,,0,,79,55
144384,note_on,244,0,4,,,,,,,,,3,,64,56
144384,note_on,244,0,3,,,,,,,,,2,,67,50
144396,note_on,12,0,1,,,,,,,,,0,,78,0
144396,note_on,12,0,4,,,,,,,,,3,,62,0
144396,note_on,12,0,3,,,,,,,,,2,,66,0
144564,note_on,692,0,2,,,,,,,,,1,,69,0
144588,note_on,192,0,3,,,,,,,,,2,,67,0
144588,note_on,192,0,4,,,,,,,,,3,,64,0
144588,note_on,192,0,1,,,,,,,,,0,,79,0
144640,note_on,76,0,2,,,,,,,,,1,,74,50
144640,note_on,52,0,4,,,,,,,,,3,,66,50
144640,note_on,52,0,3,,,,,,,,,2,,69,50
144640,note_on,52,0,1,,,,,,,,,0,,81,50
144986,note_on,346,0,2,,,,,,,,,1,,74,0
145024,note_on,38,0,2,,,,,,,,,1,,74,63
145140,note_on,116,0,2,,,,,,,,,1,,74,0
145152,note_on,12,0,2,,,,,,,,,1,,74,67
145383,note_on,231,0,2,,,,,,,,,1,,74,0
145408,note_on,25,0,2,,,,,,,,,1,,74,76
145664,note_on,1024,0,1,,,,,,,,,0,,83,63
145664,note_on,1024,0,4,,,,,,,,,3,,67,63
145664,note_on,1024,0,3,,,,,,,,,2,,71,63
145676,note_on,12,0,4,,,,,,,,,3,,66,0
145676,note_on,12,0,1,,,,,,,,,0,,81,0
145676,note_on,12,0,3,,,,,,,,,2,,69,0
145920,note_on,244,0,3,,,,,,,,,2,,67,50
145920,note_on,244,0,1,,,,,,,,,0,,79,50
145920,note_on,244,0,4,,,,,,,,,3,,64,50
145932,note_on,12,0,3,,,,,,,,,2,,71,0
145932,note_on,12,0,1,,,,,,,,,0,,83,0
145932,note_on,12,0,4,,,,,,,,,3,,67,0
146100,note_on,692,0,2,,,,,,,,,1,,74,0
146124,note_on,192,0,1,,,,,,,,,0,,79,0
146124,note_on,192,0,4,,,,,,,,,3,,64,0
146124,note_on,192,0,3,,,,,,,,,2,,67,0
146176,note_on,52,0,3,,,,,,,,,2,,69,53
146176,note_on,76,0,2,,,,,,,,,1,,74,50
146176,note_on,52,0,1,,,,,,,,,0,,81,51
146176,note_on,52,0,4,,,,,,,,,3,,66,56
146522,note_on,346,0,2,,,,,,,,,1,,74,0
146560,note_on,38,0,2,,,,,,,,,1,,74,49
146676,note_on,116,0,2,,,,,,,,,1,,74,0
146688,note_on,12,0,2,,,,,,,,,1,,74,48
146919,note_on,231,0,2,,,,,,,,,1,,74,0
146944,note_on,25,0,2,,,,,,,,,1,,74,48
147200,note_on,1024,0,3,,,,,,,,,2,,67,44
147200,note_on,1024,0,1,,,,,,,,,0,,79,48
147200,note_on,1024,0,4,,,,,,,,,3,,64,48
147212,note_on,12,0,1,,,,,,,,,0,,81,0
147212,note_on,12,0,3,,,,,,,,,2,,69,0
147212,note_on,12,0,4,,,,,,,,,3,,66,0
147456,note_on,244,0,4,,,,,,,,,3,,62,46
147456,note_on,244,0,3,,,,,,,,,2,,66,44
147456,note_on,244,0,1,,,,,,,,,0,,78,47
147468,note_on,12,0,3,,,,,,,,,2,,67,0
147468,note_on,12,0,4,,,,,,,,,3,,64,0
147468,note_on,12,0,1,,,,,,,,,0,,79,0
147636,note_on,692,0,2,,,,,,,,,1,,74,0
147660,note_on,192,0,1,,,,,,,,,0,,78,0
147660,note_on,192,0,4,,,,,,,,,3,,62,0
147660,note_on,192,0,3,,,,,,,,,2,,66,0
147712,note_on,52,0,1,,,,,,,,,0,,76,44
147712,note_on,52,0,4,,,,,,,,,3,,61,45
147712,note_on,52,0,3,,,,,,,,,2,,64,46
147712,note_on,76,0,2,,,,,,,,,1,,69,46
148058,note_on,346,0,1,,,,,,,,,0,,76,0
148058,note_on,346,0,2,,,,,,,,,1,,69,0
148096,note_on,38,0,2,,,,,,,,,1,,69,49
148096,note_on,38,0,1,,,,,,,,,0,,76,49
148212,note_on,116,0,1,,,,,,,,,0,,76,0
148212,note_on,116,0,2,,,,,,,,,1,,69,0
148224,note_on,12,0,2,,,,,,,,,1,,69,51
148224,note_on,12,0,1,,,,,,,,,0,,76,52
148455,note_on,231,0,1,,,,,,,,,0,,76,0
148455,note_on,231,0,2,,,,,,,,,1,,69,0
148480,note_on,25,0,2,,,,,,,,,1,,70,51
148480,note_on,25,0,1,,,,,,,,,0,,78,55
148826,note_on,1114,0,3,,,,,,,,,2,,64,0
148826,note_on,1114,0,4,,,,,,,,,3,,61,0
148864,note_on,38,0,3,,,,,,,,,2,,64,49
148864,note_on,38,0,4,,,,,,,,,3,,61,52
148980,note_on,116,0,4,,,,,,,,,3,,61,0
148980,note_on,116,0,3,,,,,,,,,2,,64,0
148992,note_on,12,0,3,,,,,,,,,2,,64,51
148992,note_on,12,0,4,,,,,,,,,3,,61,49
149172,note_on,692,0,1,,,,,,,,,0,,78,0
149172,note_on,692,0,2,,,,,,,,,1,,70,0
149223,note_on,231,0,4,,,,,,,,,3,,61,0
149223,note_on,231,0,3,,,,,,,,,2,,64,0
149248,note_on,76,0,1,,,,,,,,,0,,74,44
149248,note_on,25,0,4,,,,,,,,,3,,59,48
149248,note_on,25,0,3,,,,,,,,,2,,62,52
149248,note_on,76,0,2,,,,,,,,,1,,67,48
149594,note_on,346,0,2,,,,,,,,,1,,67,0
149594,note_on,346,0,1,,,,,,,,,0,,74,0
149632,note_on,38,0,1,,,,,,,,,0,,74,47
149632,note_on,38,0,2,,,,,,,,,1,,67,47
149748,note_on,116,0,1,,,,,,,,,0,,74,0
149748,note_on,116,0,2,,,,,,,,,1,,67,0
149760,note_on,12,0,2,,,,,,,,,1,,67,54
149760,note_on,12,0,1,,,,,,,,,0,,74,50
149991,note_on,231,0,2,,,,,,,,,1,,67,0
149991,note_on,231,0,1,,,,,,,,,0,,74,0
150016,note_on,25,0,2,,,,,,,,,1,,68,49
150016,note_on,25,0,1,,,,,,,,,0,,76,54
150362,note_on,1114,0,3,,,,,,,,,2,,62,0
150362,note_on,1114,0,4,,,,,,,,,3,,59,0
150400,note_on,38,0,4,,,,,,,,,3,,59,51
150400,note_on,38,0,3,,,,,,,,,2,,62,55
150516,note_on,116,0,4,,,,,,,,,3,,59,0
150516,note_on,116,0,3,,,,,,,,,2,,62,0
150528,note_on,12,0,4,,,,,,,,,3,,59,48
150528,note_on,12,0,3,,,,,,,,,2,,62,54
150708,note_on,692,0,2,,,,,,,,,1,,68,0
150708,note_on,692,0,1,,,,,,,,,0,,76,0
150759,note_on,231,0,4,,,,,,,,,3,,59,0
150759,note_on,231,0,3,,,,,,,,,2,,62,0
150784,note_on,25,0,4,,,,,,,,,3,,57,50
150784,note_on,76,0,1,,,,,,,,,0,,73,46
150784,note_on,25,0,3,,,,,,,,,2,,64,55
150784,note_on,76,0,2,,,,,,,,,1,,67,47
151130,note_on,346,0,1,,,,,,,,,0,,73,0
151168,note_on,38,0,1,,,,,,,,,0,,73,44
151284,note_on,116,0,1,,,,,,,,,0,,73,0
151296,note_on,12,0,1,,,,,,,,,0,,73,49
151527,note_on,231,0,1,,,,,,,,,0,,73,0
151552,note_on,768,0,2,,,,,,,,,1,,67,0
151552,note_on,0,0,3,,,,,,,,,2,,59,51
151552,note_on,768,0,3,,,,,,,,,2,,64,0
151552,note_on,0,0,2,,,,,,,,,1,,65,49
151552,note_on,25,0,1,,,,,,,,,0,,74,53
151552,note_on,0,0,4,,,,,,,,,3,,56,53
151552,note_on,768,0,4,,,,,,,,,3,,57,0
151592,note_on,0,0,1,,,,,,,,,0,,76,53
151592,note_on,40,0,1,,,,,,,,,0,,74,0
151673,note_on,0,0,1,,,,,,,,,0,,77,77
151673,note_on,81,0,1,,,,,,,,,0,,76,0
151850,note_on,177,0,1,,,,,,,,,0,,77,0
151936,note_on,86,0,1,,,,,,,,,0,,77,51
152052,note_on,116,0,1,,,,,,,,,0,,77,0
152064,note_on,12,0,1,,,,,,,,,0,,77,47
152218,note_on,666,0,2,,,,,,,,,1,,65,0
152218,note_on,666,0,4,,,,,,,,,3,,56,0
152218,note_on,666,0,3,,,,,,,,,2,,59,0
152295,note_on,231,0,1,,,,,,,,,0,,77,0
152320,note_on,25,0,1,,,,,,,,,0,,64,35
152320,note_on,102,0,2,,,,,,,,,1,,61,72
152320,note_on,102,0,4,,,,,,,,,3,,45,67
152320,note_on,102,0,3,,,,,,,,,2,,55,72
152361,note_on,41,0,1,,,,,,,,,0,,64,0
152361,note_on,0,0,1,,,,,,,,,0,,66,52
152416,note_on,55,0,1,,,,,,,,,0,,66,0
152416,note_on,0,0,1,,,,,,,,,0,,68,54
152456,note_on,40,0,1,,,,,,,,,0,,68,0
152456,note_on,0,0,1,,,,,,,,,0,,69,83
152642,note_on,186,0,1,,,,,,,,,0,,69,0
152666,note_on,346,0,4,,,,,,,,,3,,45,0
152666,note_on,346,0,2,,,,,,,,,1,,61,0
152666,note_on,346,0,3,,,,,,,,,2,,55,0
152704,note_on,62,0,1,,,,,,,,,0,,69,47
152704,note_on,38,0,4,,,,,,,,,3,,45,49
152704,note_on,38,0,2,,,,,,,,,1,,61,51
152704,note_on,38,0,3,,,,,,,,,2,,55,50
152820,note_on,116,0,4,,,,,,,,,3,,45,0
152820,note_on,116,0,3,,,,,,,,,2,,55,0
152820,note_on,116,0,1,,,,,,,,,0,,69,0
152820,note_on,116,0,2,,,,,,,,,1,,61,0
152832,note_on,12,0,2,,,,,,,,,1,,61,50
152832,note_on,12,0,1,,,,,,,,,0,,69,50
152832,note_on,12,0,4,,,,,,,,,3,,45,44
152832,note_on,12,0,3,,,,,,,,,2,,55,51
153063,note_on,231,0,1,,,,,,,,,0,,69,0
153063,note_on,231,0,3,,,,,,,,,2,,55,0
153063,note_on,231,0,2,,,,,,,,,1,,61,0
153063,note_on,231,0,4,,,,,,,,,3,,45,0
153088,note_on,25,0,1,,,,,,,,,0,,62,45
153088,note_on,25,0,3,,,,,,,,,2,,54,48
153088,note_on,25,0,2,,,,,,,,,1,,62,55
153088,note_on,25,0,4,,,,,,,,,3,,50,47
153319,note_on,231,0,2,,,,,,,,,1,,62,0
153319,note_on,231,0,4,,,,,,,,,3,,50,0
153319,note_on,231,0,1,,,,,,,,,0,,62,0
153319,note_on,231,0,3,,,,,,,,,2,,54,0
153600,note_on,281,0,3,,,,,,,,,2,,57,51
153831,note_on,231,0,3,,,,,,,,,2,,57,0
153856,note_on,25,0,3,,,,,,,,,2,,64,69
153856,note_on,537,0,4,,,,,,,,,3,,61,54
153856,note_on,537,0,1,,,,,,,,,0,,57,53
153856,note_on,0,0,2,,,,,,,,,1,,69,55
153856,note_on,537,0,2,,,,,,,,,1,,67,55
153913,note_on,57,0,1,,,,,,,,,0,,57,0
153984,note_on,71,0,1,,,,,,,,,0,,61,63
154041,note_on,57,0,1,,,,,,,,,0,,61,0
154112,note_on,71,0,1,,,,,,,,,0,,64,66
154169,note_on,57,0,1,,,,,,,,,0,,64,0
154202,note_on,0,0,2,,,,,,,,,1,,69,0
154202,note_on,346,0,2,,,,,,,,,1,,67,0
154240,note_on,0,0,2,,,,,,,,,1,,69,60
154240,note_on,71,0,1,,,,,,,,,0,,69,73
154240,note_on,38,0,2,,,,,,,,,1,,67,60
154297,note_on,57,0,1,,,,,,,,,0,,69,0
154356,note_on,116,0,2,,,,,,,,,1,,67,0
154356,note_on,0,0,2,,,,,,,,,1,,69,0
154368,note_on,71,0,1,,,,,,,,,0,,73,67
154368,note_on,12,0,2,,,,,,,,,1,,67,62
154368,note_on,0,0,2,,,,,,,,,1,,69,62
154425,note_on,57,0,1,,,,,,,,,0,,73,0
154496,note_on,71,0,1,,,,,,,,,0,,76,64
154553,note_on,57,0,1,,,,,,,,,0,,76,0
154599,note_on,0,0,2,,,,,,,,,1,,69,0
154599,note_on,231,0,2,,,,,,,,,1,,67,0
154624,note_on,71,0,1,,,,,,,,,0,,81,71
154624,note_on,0,0,2,,,,,,,,,1,,69,58
154624,note_on,25,0,2,,,,,,,,,1,,67,58
154681,note_on,57,0,1,,,,,,,,,0,,81,0
154752,note_on,71,0,1,,,,,,,,,0,,81,65
154809,note_on,57,0,1,,,,,,,,,0,,81,0
154880,note_on,1024,0,3,,,,,,,,,2,,62,56
154880,note_on,1024,0,4,,,,,,,,,3,,59,63
154880,note_on,71,0,1,,,,,,,,,0,,81,61
154892,note_on,12,0,4,,,,,,,,,3,,61,0
154892,note_on,12,0,3,,,,,,,,,2,,64,0
154937,note_on,57,0,1,,,,,,,,,0,,81,0
155008,note_on,71,0,1,,,,,,,,,0,,81,62
155065,note_on,57,0,1,,,,,,,,,0,,81,0
155136,note_on,244,0,4,,,,,,,,,3,,57,61
155136,note_on,244,0,3,,,,,,,,,2,,61,58
155136,note_on,71,0,1,,,,,,,,,0,,81,56
155148,note_on,12,0,4,,,,,,,,,3,,59,0
155148,note_on,12,0,3,,,,,,,,,2,,62,0
155193,note_on,57,0,1,,,,,,,,,0,,81,0
155264,note_on,71,0,1,,,,,,,,,0,,81,58
155316,note_on,0,0,2,,,,,,,,,1,,69,0
155316,note_on,692,0,2,,,,,,,,,1,,67,0
155321,note_on,57,0,1,,,,,,,,,0,,81,0
155340,note_on,192,0,4,,,,,,,,,3,,57,0
155340,note_on,192,0,3,,,,,,,,,2,,61,0
155392,note_on,52,0,3,,,,,,,,,2,,66,64
155392,note_on,76,0,2,,,,,,,,,1,,66,63
155392,note_on,0,0,2,,,,,,,,,1,,69,63
155392,note_on,71,0,1,,,,,,,,,0,,57,56
155392,note_on,52,0,4,,,,,,,,,3,,62,68
155449,note_on,57,0,1,,,,,,,,,0,,57,0
155520,note_on,71,0,1,,,,,,,,,0,,62,70
155577,note_on,57,0,1,,,,,,,,,0,,62,0
155648,note_on,71,0,1,,,,,,,,,0,,66,67
155705,note_on,57,0,1,,,,,,,,,0,,66,0
155738,note_on,346,0,2,,,,,,,,,1,,66,0
155738,note_on,0,0,2,,,,,,,,,1,,69,0
155776,note_on,38,0,2,,,,,,,,,1,,66,60
155776,note_on,0,0,2,,,,,,,,,1,,69,60
155776,note_on,71,0,1,,,,,,,,,0,,69,68
155833,note_on,57,0,1,,,,,,,,,0,,69,0
155892,note_on,116,0,2,,,,,,,,,1,,66,0
155892,note_on,0,0,2,,,,,,,,,1,,69,0
155904,note_on,71,0,1,,,,,,,,,0,,74,68
155904,note_on,12,0,2,,,,,,,,,1,,66,61
155904,note_on,0,0,2,,,,,,,,,1,,69,61
155961,note_on,57,0,1,,,,,,,,,0,,74,0
156032,note_on,71,0,1,,,,,,,,,0,,78,70
156089,note_on,57,0,1,,,,,,,,,0,,78,0
156135,note_on,231,0,2,,,,,,,,,1,,66,0
156135,note_on,0,0,2,,,,,,,,,1,,69,0
156160,note_on,71,0,1,,,,,,,,,0,,81,70
156160,note_on,0,0,2,,,,,,,,,1,,66,37
156160,note_on,25,0,2,,,,,,,,,1,,69,63
156217,note_on,57,0,1,,,,,,,,,0,,81,0
156288,note_on,71,0,1,,,,,,,,,0,,81,62
156345,note_on,57,0,1,,,,,,,,,0,,81,0
156416,note_on,256,0,2,,,,,,,,,1,,67,37
156416,note_on,71,0,1,,,,,,,,,0,,81,62
156416,note_on,1024,0,3,,,,,,,,,2,,64,58
156416,note_on,1024,0,4,,,,,,,,,3,,61,57
156428,note_on,12,0,3,,,,,,,,,2,,66,0
156428,note_on,12,0,2,,,,,,,,,1,,66,0
156428,note_on,12,0,4,,,,,,,,,3,,62,0
156473,note_on,57,0,1,,,,,,,,,0,,81,0
156544,note_on,71,0,1,,,,,,,,,0,,81,67
156601,note_on,57,0,1,,,,,,,,,0,,81,0
156672,note_on,244,0,4,,,,,,,,,3,,62,64
156672,note_on,71,0,1,,,,,,,,,0,,81,58
156672,note_on,244,0,3,,,,,,,,,2,,62,56
156672,note_on,244,0,2,,,,,,,,,1,,66,34
156684,note_on,12,0,3,,,,,,,,,2,,64,0
156684,note_on,12,0,2,,,,,,,,,1,,67,0
156684,note_on,12,0,4,,,,,,,,,3,,61,0
156729,note_on,57,0,1,,,,,,,,,0,,81,0
156800,note_on,71,0,1,,,,,,,,,0,,81,61
156826,note_on,142,0,2,,,,,,,,,1,,69,0
156857,note_on,57,0,1,,,,,,,,,0,,81,0
156876,note_on,192,0,3,,,,,,,,,2,,62,0
156876,note_on,192,0,4,,,,,,,,,3,,62,0
156876,note_on,50,0,2,,,,,,,,,1,,66,0
156928,note_on,0,0,3,,,,,,,,,2,,64,60
156928,note_on,52,0,3,,,,,,,,,2,,61,60
156928,note_on,52,0,4,,,,,,,,,3,,57,60
156928,note_on,52,0,2,,,,,,,,,1,,67,55
157184,note_on,327,0,1,,,,,,,,,0,,80,60
157241,note_on,57,0,1,,,,,,,,,0,,80,0
157274,note_on,346,0,2,,,,,,,,,1,,67,0
157274,note_on,346,0,4,,,,,,,,,3,,57,0
157274,note_on,0,0,3,,,,,,,,,2,,64,0
157274,note_on,346,0,3,,,,,,,,,2,,61,0
157312,note_on,38,0,3,,,,,,,,,2,,61,68
157312,note_on,71,0,1,,,,,,,,,0,,81,63
157312,note_on,38,0,2,,,,,,,,,1,,67,66
157312,note_on,38,0,4,,,,,,,,,3,,57,68
157312,note_on,0,0,3,,,,,,,,,2,,64,68
157369,note_on,57,0,1,,,,,,,,,0,,81,0
157428,note_on,116,0,2,,,,,,,,,1,,67,0
157428,note_on,0,0,3,,,,,,,,,2,,64,0
157428,note_on,116,0,4,,,,,,,,,3,,57,0
157428,note_on,116,0,3,,,,,,,,,2,,61,0
157440,note_on,71,0,1,,,,,,,,,0,,83,66
157440,note_on,12,0,2,,,,,,,,,1,,67,68
157440,note_on,0,0,3,,,,,,,,,2,,64,71
157440,note_on,12,0,3,,,,,,,,,2,,61,71
157440,note_on,12,0,4,,,,,,,,,3,,57,71
157497,note_on,57,0,1,,,,,,,,,0,,83,0
157568,note_on,71,0,1,,,,,,,,,0,,85,68
157625,note_on,57,0,1,,,,,,,,,0,,85,0
157671,note_on,231,0,2,,,,,,,,,1,,67,0
157671,note_on,231,0,4,,,,,,,,,3,,57,0
157671,note_on,0,0,3,,,,,,,,,2,,64,0
157671,note_on,231,0,3,,,,,,,,,2,,61,0
157696,note_on,0,0,3,,,,,,,,,2,,65,76
157696,note_on,25,0,3,,,,,,,,,2,,62,76
157696,note_on,25,0,4,,,,,,,,,3,,57,76
157696,note_on,25,0,2,,,,,,,,,1,,68,73
157952,note_on,327,0,1,,,,,,,,,0,,82,76
158009,note_on,57,0,1,,,,,,,,,0,,82,0
158042,note_on,0,0,3,,,,,,,,,2,,65,0
158042,note_on,346,0,2,,,,,,,,,1,,68,0
158042,note_on,346,0,3,,,,,,,,,2,,62,0
158042,note_on,346,0,4,,,,,,,,,3,,57,0
158080,note_on,71,0,1,,,,,,,,,0,,83,78
158080,note_on,38,0,2,,,,,,,,,1,,68,81
158080,note_on,38,0,4,,,,,,,,,3,,57,83
158080,note_on,38,0,3,,,,,,,,,2,,62,83
158080,note_on,0,0,3,,,,,,,,,2,,65,83
158137,note_on,57,0,1,,,,,,,,,0,,83,0
158196,note_on,116,0,4,,,,,,,,,3,,57,0
158196,note_on,116,0,3,,,,,,,,,2,,62,0
158196,note_on,116,0,2,,,,,,,,,1,,68,0
158196,note_on,0,0,3,,,,,,,,,2,,65,0
158208,note_on,12,0,4,,,,,,,,,3,,57,86
158208,note_on,12,0,3,,,,,,,,,2,,62,86
158208,note_on,71,0,1,,,,,,,,,0,,85,81
158208,note_on,0,0,3,,,,,,,,,2,,65,86
158208,note_on,12,0,2,,,,,,,,,1,,68,83
158265,note_on,57,0,1,,,,,,,,,0,,85,0
158336,note_on,71,0,1,,,,,,,,,0,,86,83
158393,note_on,57,0,1,,,,,,,,,0,,86,0
158439,note_on,231,0,2,,,,,,,,,1,,68,0
158439,note_on,0,0,3,,,,,,,,,2,,65,0
158439,note_on,231,0,4,,,,,,,,,3,,57,0
158439,note_on,231,0,3,,,,,,,,,2,,62,0
158464,note_on,25,0,4,,,,,,,,,3,,57,106
158464,note_on,25,0,3,,,,,,,,,2,,62,116
158464,note_on,0,0,3,,,,,,,,,2,,68,116
158464,note_on,25,0,2,,,,,,,,,1,,64,111
158464,note_on,0,0,2,,,,,,,,,1,,71,111
158464,note_on,71,0,1,,,,,,,,,0,,88,86
158592,note_on,128,0,1,,,,,,,,,0,,90,86
158598,note_on,6,0,1,,,,,,,,,0,,88,0
158694,note_on,96,0,1,,,,,,,,,0,,90,0
158720,note_on,26,0,1,,,,,,,,,0,,88,80
158777,note_on,57,0,1,,,,,,,,,0,,88,0
158848,note_on,71,0,1,,,,,,,,,0,,88,73
158905,note_on,57,0,1,,,,,,,,,0,,88,0
158976,note_on,71,0,1,,,,,,,,,0,,88,67
159033,note_on,57,0,1,,,,,,,,,0,,88,0
159104,note_on,71,0,1,,,,,,,,,0,,88,61
159156,note_on,0,0,3,,,,,,,,,2,,68,0
159156,note_on,692,0,3,,,,,,,,,2,,62,0
159156,note_on,692,0,2,,,,,,,,,1,,64,0
159156,note_on,692,0,4,,,,,,,,,3,,57,0
159156,note_on,0,0,2,,,,,,,,,1,,71,0
159161,note_on,57,0,1,,,,,,,,,0,,88,0
159232,note_on,76,0,2,,,,,,,,,1,,64,57
159232,note_on,0,0,2,,,,,,,,,1,,69,57
159232,note_on,71,0,1,,,,,,,,,0,,93,81
159232,note_on,76,0,3,,,,,,,,,2,,61,64
159232,note_on,0,0,3,,,,,,,,,2,,69,64
159232,note_on,76,0,4,,,,,,,,,3,,57,59
159463,note_on,231,0,4,,,,,,,,,3,,57,0
159463,note_on,231,0,3,,,,,,,,,2,,61,0
159463,note_on,231,0,2,,,,,,,,,1,,64,0
159463,note_on,0,0,2,,,,,,,,,1,,69,0
159463,note_on,0,0,3,,,,,,,,,2,,69,0
159693,note_on,461,0,1,,,,,,,,,0,,93,0
159744,note_on,281,0,2,,,,,,,,,1,,69,46
159975,note_on,231,0,2,,,,,,,,,1,,69,0
160000,note_on,25,0,2,,,,,,,,,1,,76,61
160000,note_on,537,0,3,,,,,,,,,2,,67,45
160000,note_on,0,0,3,,,,,,,,,2,,69,45
160000,note_on,537,0,4,,,,,,,,,3,,61,43
160256,note_on,563,0,1,,,,,,,,,0,,81,50
160313,note_on,57,0,1,,,,,,,,,0,,81,0
160346,note_on,346,0,3,,,,,,,,,2,,67,0
160346,note_on,0,0,3,,,,,,,,,2,,69,0
160384,note_on,38,0,3,,,,,,,,,2,,67,53
160384,note_on,0,0,3,,,,,,,,,2,,69,53
160384,note_on,71,0,1,,,,,,,,,0,,76,59
160441,note_on,57,0,1,,,,,,,,,0,,76,0
160500,note_on,116,0,3,,,,,,,,,2,,67,0
160500,note_on,0,0,3,,,,,,,,,2,,69,0
160512,note_on,0,0,3,,,,,,,,,2,,69,49
160512,note_on,71,0,1,,,,,,,,,0,,73,67
160512,note_on,12,0,3,,,,,,,,,2,,67,49
160569,note_on,57,0,1,,,,,,,,,0,,73,0
160640,note_on,71,0,1,,,,,,,,,0,,69,76
160697,note_on,57,0,1,,,,,,,,,0,,69,0
160743,note_on,231,0,3,,,,,,,,,2,,67,0
160743,note_on,0,0,3,,,,,,,,,2,,69,0
160768,note_on,71,0,1,,,,,,,,,0,,57,63
160768,note_on,0,0,3,,,,,,,,,2,,69,51
160768,note_on,25,0,3,,,,,,,,,2,,67,51
160825,note_on,57,0,1,,,,,,,,,0,,57,0
160896,note_on,71,0,1,,,,,,,,,0,,57,73
160953,note_on,57,0,1,,,,,,,,,0,,57,0
161024,note_on,1024,0,4,,,,,,,,,3,,59,51
161024,note_on,71,0,1,,,,,,,,,0,,57,73
161024,note_on,1024,0,2,,,,,,,,,1,,74,48
161036,note_on,12,0,4,,,,,,,,,3,,61,0
161036,note_on,12,0,2,,,,,,,,,1,,76,0
161081,note_on,57,0,1,,,,,,,,,0,,57,0
161152,note_on,71,0,1,,,,,,,,,0,,57,76
161209,note_on,57,0,1,,,,,,,,,0,,57,0
161280,note_on,71,0,1,,,,,,,,,0,,57,75
161280,note_on,244,0,2,,,,,,,,,1,,73,46
161280,note_on,244,0,4,,,,,,,,,3,,57,51
161292,note_on,12,0,2,,,,,,,,,1,,74,0
161292,note_on,12,0,4,,,,,,,,,3,,59,0
161337,note_on,57,0,1,,,,,,,,,0,,57,0
161408,note_on,71,0,1,,,,,,,,,0,,57,74
161460,note_on,0,0,3,,,,,,,,,2,,69,0
161460,note_on,692,0,3,,,,,,,,,2,,67,0
161465,note_on,57,0,1,,,,,,,,,0,,57,0
161484,note_on,192,0,4,,,,,,,,,3,,57,0
161484,note_on,192,0,2,,,,,,,,,1,,73,0
161536,note_on,0,0,3,,,,,,,,,2,,69,51
161536,note_on,76,0,3,,,,,,,,,2,,65,51
161536,note_on,52,0,2,,,,,,,,,1,,77,52
161536,note_on,52,0,4,,,,,,,,,3,,62,51
161792,note_on,327,0,1,,,,,,,,,0,,81,69
161849,note_on,57,0,1,,,,,,,,,0,,81,0
161882,note_on,346,0,3,,,,,,,,,2,,65,0
161882,note_on,0,0,3,,,,,,,,,2,,69,0
161920,note_on,38,0,3,,,,,,,,,2,,65,51
161920,note_on,0,0,3,,,,,,,,,2,,69,51
161920,note_on,71,0,1,,,,,,,,,0,,77,62
161977,note_on,57,0,3,,,,,,,,,2,,65,0
161977,note_on,57,0,1,,,,,,,,,0,,77,0
161977,note_on,0,0,3,,,,,,,,,2,,69,0
162048,note_on,71,0,1,,,,,,,,,0,,74,71
162048,note_on,71,0,3,,,,,,,,,2,,65,48
162048,note_on,0,0,3,,,,,,,,,2,,69,48
162105,note_on,57,0,1,,,,,,,,,0,,74,0
162163,note_on,0,0,3,,,,,,,,,2,,69,0
162163,note_on,115,0,3,,,,,,,,,2,,65,0
162176,note_on,71,0,1,,,,,,,,,0,,69,59
162233,note_on,57,0,1,,,,,,,,,0,,69,0
162304,note_on,71,0,1,,,,,,,,,0,,57,65
162304,note_on,141,0,3,,,,,,,,,2,,69,53
162304,note_on,0,0,3,,,,,,,,,2,,65,33
162361,note_on,57,0,1,,,,,,,,,0,,57,0
162432,note_on,71,0,1,,,,,,,,,0,,57,75
162489,note_on,57,0,1,,,,,,,,,0,,57,0
162560,note_on,71,0,1,,,,,,,,,0,,57,74
162560,note_on,256,0,3,,,,,,,,,2,,67,34
162560,note_on,1024,0,2,,,,,,,,,1,,76,47
162560,note_on,1024,0,4,,,,,,,,,3,,61,47
162572,note_on,12,0,4,,,,,,,,,3,,62,0
162572,note_on,12,0,3,,,,,,,,,2,,65,0
162572,note_on,12,0,2,,,,,,,,,1,,77,0
162617,note_on,57,0,1,,,,,,,,,0,,57,0
162688,note_on,71,0,1,,,,,,,,,0,,57,76
162745,note_on,57,0,1,,,,,,,,,0,,57,0
162816,note_on,244,0,2,,,,,,,,,1,,74,45
162816,note_on,244,0,4,,,,,,,,,3,,62,49
162816,note_on,244,0,3,,,,,,,,,2,,65,33
162816,note_on,71,0,1,,,,,,,,,0,,57,74
162828,note_on,12,0,2,,,,,,,,,1,,76,0
162828,note_on,12,0,3,,,,,,,,,2,,67,0
162828,note_on,12,0,4,,,,,,,,,3,,61,0
162873,note_on,57,0,1,,,,,,,,,0,,57,0
162944,note_on,71,0,1,,,,,,,,,0,,57,75
162970,note_on,142,0,3,,,,,,,,,2,,69,0
163001,note_on,57,0,1,,,,,,,,,0,,57,0
163020,note_on,192,0,2,,,,,,,,,1,,74,0
163020,note_on,192,0,4,,,,,,,,,3,,62,0
163020,note_on,50,0,3,,,,,,,,,2,,65,0
163072,note_on,0,0,3,,,,,,,,,2,,65,50
163072,note_on,52,0,2,,,,,,,,,1,,77,50
163072,note_on,52,0,4,,,,,,,,,3,,62,50
163072,note_on,52,0,3,,,,,,,,,2,,58,50
163328,note_on,327,0,1,,,,,,,,,0,,62,76
163385,note_on,57,0,1,,,,,,,,,0,,62,0
163418,note_on,346,0,4,,,,,,,,,3,,62,0
163418,note_on,346,0,3,,,,,,,,,2,,58,0
163418,note_on,0,0,3,,,,,,,,,2,,65,0
163418,note_on,346,0,2,,,,,,,,,1,,77,0
163456,note_on,71,0,1,,,,,,,,,0,,65,84
163456,note_on,0,0,3,,,,,,,,,2,,65,64
163456,note_on,38,0,2,,,,,,,,,1,,77,69
163456,note_on,38,0,3,,,,,,,,,2,,58,64
163456,note_on,38,0,4,,,,,,,,,3,,62,69
163513,note_on,57,0,1,,,,,,,,,0,,65,0
163572,note_on,0,0,3,,,,,,,,,2,,65,0
163572,note_on,116,0,3,,,,,,,,,2,,58,0
163572,note_on,116,0,4,,,,,,,,,3,,62,0
163572,note_on,116,0,2,,,,,,,,,1,,77,0
163584,note_on,12,0,4,,,,,,,,,3,,62,76
163584,note_on,12,0,3,,,,,,,,,2,,58,70
163584,note_on,0,0,3,,,,,,,,,2,,65,70
163584,note_on,12,0,2,,,,,,,,,1,,77,76
163584,note_on,71,0,1,,,,,,,,,0,,70,93
163641,note_on,57,0,1,,,,,,,,,0,,70,0
163712,note_on,71,0,1,,,,,,,,,0,,73,101
163769,note_on,57,0,1,,,,,,,,,0,,73,0
163815,note_on,231,0,2,,,,,,,,,1,,77,0
163815,note_on,231,0,3,,,,,,,,,2,,58,0
163815,note_on,0,0,3,,,,,,,,,2,,65,0
163815,note_on,231,0,4,,,,,,,,,3,,62,0
163840,note_on,25,0,3,,,,,,,,,2,,65,76
163840,note_on,25,0,2,,,,,,,,,1,,77,76
163840,note_on,0,0,3,,,,,,,,,2,,58,53
163840,note_on,25,0,4,,,,,,,,,3,,62,76
163840,note_on,71,0,1,,,,,,,,,0,,74,101
163897,note_on,57,0,1,,,,,,,,,0,,74,0
163968,note_on,71,0,1,,,,,,,,,0,,76,96
164025,note_on,57,0,1,,,,,,,,,0,,76,0
164071,note_on,231,0,2,,,,,,,,,1,,77,0
164096,note_on,256,0,4,,,,,,,,,3,,65,66
164096,note_on,256,0,3,,,,,,,,,2,,69,66
164096,note_on,71,0,1,,,,,,,,,0,,77,91
164096,note_on,25,0,2,,,,,,,,,1,,81,66
164108,note_on,12,0,4,,,,,,,,,3,,62,0
164108,note_on,12,0,3,,,,,,,,,2,,65,0
164153,note_on,57,0,1,,,,,,,,,0,,77,0
164224,note_on,71,0,1,,,,,,,,,0,,79,86
164281,note_on,57,0,1,,,,,,,,,0,,79,0
164327,note_on,231,0,2,,,,,,,,,1,,81,0
164352,note_on,244,0,3,,,,,,,,,2,,67,55
164352,note_on,244,0,4,,,,,,,,,3,,64,55
164352,note_on,25,0,2,,,,,,,,,1,,79,55
164352,note_on,71,0,1,,,,,,,,,0,,81,81
164364,note_on,12,0,4,,,,,,,,,3,,65,0
164364,note_on,12,0,3,,,,,,,,,2,,69,0
164409,note_on,57,0,1,,,,,,,,,0,,81,0
164480,note_on,71,0,1,,,,,,,,,0,,82,76
164506,note_on,142,0,3,,,,,,,,,2,,58,0
164537,note_on,57,0,1,,,,,,,,,0,,82,0
164556,note_on,192,0,4,,,,,,,,,3,,64,0
164556,note_on,50,0,3,,,,,,,,,2,,67,0
164583,note_on,231,0,2,,,,,,,,,1,,79,0
164608,note_on,71,0,1,,,,,,,,,0,,82,80
164608,note_on,25,0,2,,,,,,,,,1,,77,44
164608,note_on,52,0,4,,,,,,,,,3,,62,43
164608,note_on,52,0,3,,,,,,,,,2,,57,51
164608,note_on,0,0,3,,,,,,,,,2,,65,51
164736,note_on,128,0,1,,,,,,,,,0,,81,73
164742,note_on,6,0,1,,,,,,,,,0,,82,0
164838,note_on,96,0,1,,,,,,,,,0,,81,0
164864,note_on,26,0,1,,,,,,,,,0,,81,76
164992,note_on,128,0,1,,,,,,,,,0,,80,69
164998,note_on,6,0,1,,,,,,,,,0,,81,0
165094,note_on,96,0,1,,,,,,,,,0,,80,0
165120,note_on,26,0,1,,,,,,,,,0,,80,76
165248,note_on,128,0,1,,,,,,,,,0,,81,80
165254,note_on,6,0,1,,,,,,,,,0,,80,0
165350,note_on,96,0,1,,,,,,,,,0,,81,0
165376,note_on,768,0,4,,,,,,,,,3,,62,0
165376,note_on,0,0,4,,,,,,,,,3,,61,48
165376,note_on,0,0,3,,,,,,,,,2,,64,49
165376,note_on,768,0,3,,,,,,,,,2,,65,0
165376,note_on,768,0,2,,,,,,,,,1,,77,0
165376,note_on,26,0,1,,,,,,,,,0,,81,75
165376,note_on,0,0,2,,,,,,,,,1,,76,46
165433,note_on,57,0,1,,,,,,,,,0,,81,0
165504,note_on,71,0,1,,,,,,,,,0,,83,79
165561,note_on,57,0,1,,,,,,,,,0,,83,0
165580,note_on,0,0,3,,,,,,,,,2,,64,0
165580,note_on,204,0,3,,,,,,,,,2,,57,0
165580,note_on,204,0,2,,,,,,,,,1,,76,0
165580,note_on,204,0,4,,,,,,,,,3,,61,0
165632,note_on,71,0,1,,,,,,,,,0,,85,76
165689,note_on,57,0,1,,,,,,,,,0,,85,0
165760,note_on,71,0,1,,,,,,,,,0,,86,83
165817,note_on,57,0,1,,,,,,,,,0,,86,0
165888,note_on,71,0,1,,,,,,,,,0,,88,81
165888,note_on,308,0,2,,,,,,,,,1,,69,45
165945,note_on,57,0,1,,,,,,,,,0,,88,0
166016,note_on,71,0,1,,,,,,,,,0,,90,79
166073,note_on,57,0,1,,,,,,,,,0,,90,0
166119,note_on,231,0,2,,,,,,,,,1,,69,0
166144,note_on,564,0,4,,,,,,,,,3,,62,42
166144,note_on,71,0,1,,,,,,,,,0,,86,68
166144,note_on,25,0,2,,,,,,,,,1,,78,58
166144,note_on,564,0,3,,,,,,,,,2,,69,47
166375,note_on,231,0,1,,,,,,,,,0,,86,0
166400,note_on,25,0,1,,,,,,,,,0,,66,53
166457,note_on,57,0,1,,,,,,,,,0,,66,0
166490,note_on,346,0,3,,,,,,,,,2,,69,0
166528,note_on,38,0,3,,,,,,,,,2,,69,53
166528,note_on,71,0,1,,,,,,,,,0,,69,78
166585,note_on,57,0,1,,,,,,,,,0,,69,0
166585,note_on,57,0,3,,,,,,,,,2,,69,0
166656,note_on,71,0,3,,,,,,,,,2,,69,42
166656,note_on,71,0,1,,,,,,,,,0,,74,86
166713,note_on,57,0,1,,,,,,,,,0,,74,0
166771,note_on,115,0,3,,,,,,,,,2,,69,0
166784,note_on,71,0,1,,,,,,,,,0,,78,91
166841,note_on,57,0,1,,,,,,,,,0,,78,0
166912,note_on,71,0,1,,,,,,,,,0,,81,83
166912,note_on,141,0,3,,,,,,,,,2,,69,50
166969,note_on,57,0,1,,,,,,,,,0,,81,0
167040,note_on,71,0,1,,,,,,,,,0,,81,78
167097,note_on,57,0,1,,,,,,,,,0,,81,0
167168,note_on,1024,0,2,,,,,,,,,1,,76,54
167168,note_on,1024,0,4,,,,,,,,,3,,61,45
167168,note_on,71,0,1,,,,,,,,,0,,81,76
167180,note_on,12,0,4,,,,,,,,,3,,62,0
167180,note_on,12,0,2,,,,,,,,,1,,78,0
167225,note_on,57,0,1,,,,,,,,,0,,81,0
167296,note_on,71,0,1,,,,,,,,,0,,81,80
167353,note_on,57,0,1,,,,,,,,,0,,81,0
167424,note_on,244,0,4,,,,,,,,,3,,59,46
167424,note_on,71,0,1,,,,,,,,,0,,81,76
167424,note_on,244,0,2,,,,,,,,,1,,74,47
167436,note_on,12,0,2,,,,,,,,,1,,76,0
167436,note_on,12,0,4,,,,,,,,,3,,61,0
167481,note_on,57,0,1,,,,,,,,,0,,81,0
167552,note_on,71,0,1,,,,,,,,,0,,81,77
167604,note_on,692,0,3,,,,,,,,,2,,69,0
167609,note_on,57,0,1,,,,,,,,,0,,81,0
167628,note_on,192,0,2,,,,,,,,,1,,74,0
167628,note_on,192,0,4,,,,,,,,,3,,59,0
167680,note_on,52,0,2,,,,,,,,,1,,76,52
167680,note_on,76,0,3,,,,,,,,,2,,69,49
167680,note_on,52,0,4,,,,,,,,,3,,61,54
167936,note_on,327,0,1,,,,,,,,,0,,76,72
167993,note_on,57,0,1,,,,,,,,,0,,76,0
168026,note_on,346,0,3,,,,,,,,,2,,69,0
168064,note_on,71,0,1,,,,,,,,,0,,81,81
168064,note_on,38,0,3,,,,,,,,,2,,69,54
168121,note_on,57,0,1,,,,,,,,,0,,81,0
168180,note_on,116,0,3,,,,,,,,,2,,69,0
168192,note_on,71,0,1,,,,,,,,,0,,85,90
168192,note_on,12,0,3,,,,,,,,,2,,69,50
168249,note_on,57,0,1,,,,,,,,,0,,85,0
168320,note_on,71,0,1,,,,,,,,,0,,88,82
168377,note_on,57,0,1,,,,,,,,,0,,88,0
168423,note_on,231,0,3,,,,,,,,,2,,69,0
168448,note_on,71,0,1,,,,,,,,,0,,93,85
168448,note_on,25,0,3,,,,,,,,,2,,69,57
168505,note_on,57,0,1,,,,,,,,,0,,93,0
168576,note_on,71,0,1,,,,,,,,,0,,93,82
168633,note_on,57,0,1,,,,,,,,,0,,93,0
168704,note_on,1024,0,2,,,,,,,,,1,,78,57
168704,note_on,71,0,1,,,,,,,,,0,,93,77
168704,note_on,1024,0,4,,,,,,,,,3,,62,56
168716,note_on,12,0,4,,,,,,,,,3,,61,0
168716,note_on,12,0,2,,,,,,,,,1,,76,0
168761,note_on,57,0,1,,,,,,,,,0,,93,0
168832,note_on,71,0,1,,,,,,,,,0,,93,78
168889,note_on,57,0,1,,,,,,,,,0,,93,0
168960,note_on,244,0,2,,,,,,,,,1,,79,54
168960,note_on,244,0,4,,,,,,,,,3,,64,53
168960,note_on,71,0,1,,,,,,,,,0,,93,78
168972,note_on,12,0,2,,,,,,,,,1,,78,0
168972,note_on,12,0,4,,,,,,,,,3,,62,0
169017,note_on,57,0,1,,,,,,,,,0,,93,0
169088,note_on,71,0,1,,,,,,,,,0,,93,76
169140,note_on,692,0,3,,,,,,,,,2,,69,0
169145,note_on,57,0,1,,,,,,,,,0,,93,0
169164,note_on,192,0,4,,,,,,,,,3,,64,0
169164,note_on,192,0,2,,,,,,,,,1,,79,0
169216,note_on,52,0,2,,,,,,,,,1,,81,54
169216,note_on,52,0,4,,,,,,,,,3,,66,50
169216,note_on,76,0,3,,,,,,,,,2,,74,51
169472,note_on,327,0,1,,,,,,,,,0,,62,66
169529,note_on,57,0,1,,,,,,,,,0,,62,0
169562,note_on,346,0,3,,,,,,,,,2,,74,0
169600,note_on,38,0,3,,,,,,,,,2,,74,68
169600,note_on,71,0,1,,,,,,,,,0,,74,76
169657,note_on,57,0,1,,,,,,,,,0,,74,0
169716,note_on,116,0,3,,,,,,,,,2,,74,0
169728,note_on,71,0,1,,,,,,,,,0,,78,84
169728,note_on,12,0,3,,,,,,,,,2,,74,76
169785,note_on,57,0,1,,,,,,,,,0,,78,0
169856,note_on,71,0,1,,,,,,,,,0,,81,93
169913,note_on,57,0,1,,,,,,,,,0,,81,0
169959,note_on,231,0,3,,,,,,,,,2,,74,0
169984,note_on,71,0,1,,,,,,,,,0,,86,101
169984,note_on,25,0,3,,,,,,,,,2,,74,76
170041,note_on,57,0,1,,,,,,,,,0,,86,0
170112,note_on,71,0,1,,,,,,,,,0,,86,96
170169,note_on,57,0,1,,,,,,,,,0,,86,0
170240,note_on,1024,0,4,,,,,,,,,3,,67,66
170240,note_on,71,0,1,,,,,,,,,0,,86,91
170240,note_on,1024,0,2,,,,,,,,,1,,83,66
170252,note_on,12,0,4,,,,,,,,,3,,66,0
170252,note_on,12,0,2,,,,,,,,,1,,81,0
170297,note_on,57,0,1,,,,,,,,,0,,86,0
170368,note_on,71,0,1,,,,,,,,,0,,86,86
170425,note_on,57,0,1,,,,,,,,,0,,86,0
170496,note_on,71,0,1,,,,,,,,,0,,86,81
170496,note_on,244,0,4,,,,,,,,,3,,64,55
170496,note_on,244,0,2,,,,,,,,,1,,79,55
170508,note_on,12,0,4,,,,,,,,,3,,67,0
170508,note_on,12,0,2,,,,,,,,,1,,83,0
170553,note_on,57,0,1,,,,,,,,,0,,86,0
170624,note_on,71,0,1,,,,,,,,,0,,86,76
170676,note_on,692,0,3,,,,,,,,,2,,74,0
170681,note_on,57,0,1,,,,,,,,,0,,86,0
170700,note_on,192,0,2,,,,,,,,,1,,79,0
170700,note_on,192,0,4,,,,,,,,,3,,64,0
170752,note_on,52,0,4,,,,,,,,,3,,66,55
170752,note_on,52,0,2,,,,,,,,,1,,81,51
170752,note_on,76,0,3,,,,,,,,,2,,74,53
171008,note_on,327,0,1,,,,,,,,,0,,62,67
171065,note_on,57,0,1,,,,,,,,,0,,62,0
171098,note_on,346,0,3,,,,,,,,,2,,74,0
171136,note_on,71,0,1,,,,,,,,,0,,74,97
171136,note_on,38,0,3,,,,,,,,,2,,74,51
171193,note_on,57,0,1,,,,,,,,,0,,74,0
171252,note_on,116,0,3,,,,,,,,,2,,74,0
171264,note_on,71,0,1,,,,,,,,,0,,78,83
171264,note_on,12,0,3,,,,,,,,,2,,74,54
171321,note_on,57,0,1,,,,,,,,,0,,78,0
171392,note_on,71,0,1,,,,,,,,,0,,81,86
171449,note_on,57,0,1,,,,,,,,,0,,81,0
171495,note_on,231,0,3,,,,,,,,,2,,74,0
171520,note_on,71,0,1,,,,,,,,,0,,86,88
171520,note_on,25,0,3,,,,,,,,,2,,74,52
171577,note_on,57,0,1,,,,,,,,,0,,86,0
171648,note_on,71,0,1,,,,,,,,,0,,86,79
171705,note_on,57,0,1,,,,,,,,,0,,86,0
171776,note_on,71,0,1,,,,,,,,,0,,86,80
171776,note_on,1024,0,4,,,,,,,,,3,,64,44
171776,note_on,1024,0,2,,,,,,,,,1,,79,49
171788,note_on,12,0,2,,,,,,,,,1,,81,0
171788,note_on,12,0,4,,,,,,,,,3,,66,0
171833,note_on,57,0,1,,,,,,,,,0,,86,0
171904,note_on,71,0,1,,,,,,,,,0,,86,78
171961,note_on,57,0,1,,,,,,,,,0,,86,0
172032,note_on,244,0,2,,,,,,,,,1,,78,47
172032,note_on,244,0,4,,,,,,,,,3,,62,49
172032,note_on,71,0,1,,,,,,,,,0,,86,70
172044,note_on,12,0,4,,,,,,,,,3,,64,0
172044,note_on,12,0,2,,,,,,,,,1,,79,0
172089,note_on,57,0,1,,,,,,,,,0,,86,0
172160,note_on,71,0,1,,,,,,,,,0,,86,73
172212,note_on,692,0,3,,,,,,,,,2,,74,0
172217,note_on,57,0,1,,,,,,,,,0,,86,0
172236,note_on,192,0,2,,,,,,,,,1,,78,0
172236,note_on,192,0,4,,,,,,,,,3,,62,0
172288,note_on,52,0,2,,,,,,,,,1,,76,48
172288,note_on,52,0,4,,,,,,,,,3,,61,48
172288,note_on,76,0,3,,,,,,,,,2,,64,40
172544,note_on,327,0,1,,,,,,,,,0,,69,44
172601,note_on,57,0,1,,,,,,,,,0,,69,0
172634,note_on,346,0,2,,,,,,,,,1,,76,0
172672,note_on,71,0,1,,,,,,,,,0,,73,53
172672,note_on,38,0,2,,,,,,,,,1,,76,47
172729,note_on,57,0,1,,,,,,,,,0,,73,0
172788,note_on,116,0,2,,,,,,,,,1,,76,0
172800,note_on,71,0,1,,,,,,,,,0,,76,54
172800,note_on,12,0,2,,,,,,,,,1,,76,49
172857,note_on,57,0,1,,,,,,,,,0,,76,0
172928,note_on,71,0,1,,,,,,,,,0,,81,61
172985,note_on,57,0,1,,,,,,,,,0,,81,0
173031,note_on,231,0,2,,,,,,,,,1,,76,0
173056,note_on,25,0,2,,,,,,,,,1,,78,52
173145,note_on,160,0,1,,,,,,,,,0,,82,47
173216,note_on,71,0,1,,,,,,,,,0,,82,0
173230,note_on,14,0,1,,,,,,,,,0,,83,43
173298,note_on,68,0,1,,,,,,,,,0,,83,0
173311,note_on,13,0,1,,,,,,,,,0,,82,40
173375,note_on,64,0,1,,,,,,,,,0,,82,0
173388,note_on,13,0,1,,,,,,,,,0,,83,37
173402,note_on,1114,0,3,,,,,,,,,2,,64,0
173402,note_on,1114,0,4,,,,,,,,,3,,61,0
173440,note_on,38,0,3,,,,,,,,,2,,64,51
173440,note_on,38,0,4,,,,,,,,,3,,61,47
173449,note_on,61,0,1,,,,,,,,,0,,83,0
173467,note_on,18,0,1,,,,,,,,,0,,82,34
173530,note_on,63,0,1,,,,,,,,,0,,82,0
173550,note_on,20,0,1,,,,,,,,,0,,83,31
173556,note_on,116,0,4,,,,,,,,,3,,61,0
173556,note_on,116,0,3,,,,,,,,,2,,64,0
173568,note_on,12,0,3,,,,,,,,,2,,64,48
173568,note_on,12,0,4,,,,,,,,,3,,61,49
173616,note_on,66,0,1,,,,,,,,,0,,83,0
173637,note_on,21,0,1,,,,,,,,,0,,82,27
173706,note_on,69,0,1,,,,,,,,,0,,82,0
173728,note_on,22,0,1,,,,,,,,,0,,83,24
173748,note_on,692,0,2,,,,,,,,,1,,78,0
173754,note_on,26,0,1,,,,,,,,,0,,80,55
173799,note_on,231,0,3,,,,,,,,,2,,64,0
173799,note_on,231,0,4,,,,,,,,,3,,61,0
173800,note_on,46,0,1,,,,,,,,,0,,83,0
173806,note_on,0,0,1,,,,,,,,,0,,82,46
173806,note_on,6,0,1,,,,,,,,,0,,80,0
173820,note_on,14,0,1,,,,,,,,,0,,82,0
173820,note_on,0,0,1,,,,,,,,,0,,83,43
173823,note_on,3,0,1,,,,,,,,,0,,83,0
173824,note_on,1,0,1,,,,,,,,,0,,83,64
173824,note_on,25,0,3,,,,,,,,,2,,62,45
173824,note_on,76,0,2,,,,,,,,,1,,74,45
173824,note_on,25,0,4,,,,,,,,,3,,59,46
173940,note_on,116,0,1,,,,,,,,,0,,83,0
174080,note_on,140,0,1,,,,,,,,,0,,67,50
174137,note_on,57,0,1,,,,,,,,,0,,67,0
174170,note_on,346,0,2,,,,,,,,,1,,74,0
174208,note_on,71,0,1,,,,,,,,,0,,71,65
174208,note_on,38,0,2,,,,,,,,,1,,74,49
174265,note_on,57,0,1,,,,,,,,,0,,71,0
174265,note_on,57,0,2,,,,,,,,,1,,74,0
174336,note_on,71,0,2,,,,,,,,,1,,74,51
174336,note_on,71,0,1,,,,,,,,,0,,74,63
174393,note_on,57,0,1,,,,,,,,,0,,74,0
174451,note_on,115,0,2,,,,,,,,,1,,74,0
174464,note_on,71,0,1,,,,,,,,,0,,79,63
174521,note_on,57,0,1,,,,,,,,,0,,79,0
174592,note_on,141,0,2,,,,,,,,,1,,76,54
174679,note_on,158,0,1,,,,,,,,,0,,81,57
174748,note_on,69,0,1,,,,,,,,,0,,81,0
174762,note_on,14,0,1,,,,,,,,,0,,80,54
174828,note_on,66,0,1,,,,,,,,,0,,80,0
174841,note_on,13,0,1,,,,,,,,,0,,81,51
174904,note_on,63,0,1,,,,,,,,,0,,81,0
174916,note_on,12,0,1,,,,,,,,,0,,80,48
174938,note_on,1114,0,3,,,,,,,,,2,,62,0
174938,note_on,1114,0,4,,,,,,,,,3,,59,0
174976,note_on,38,0,3,,,,,,,,,2,,62,53
174976,note_on,38,0,4,,,,,,,,,3,,59,49
174976,note_on,60,0,1,,,,,,,,,0,,80,0
174992,note_on,16,0,1,,,,,,,,,0,,81,45
175052,note_on,60,0,1,,,,,,,,,0,,81,0
175072,note_on,20,0,1,,,,,,,,,0,,80,41
175092,note_on,116,0,4,,,,,,,,,3,,59,0
175092,note_on,116,0,3,,,,,,,,,2,,62,0
175104,note_on,12,0,4,,,,,,,,,3,,59,52
175104,note_on,12,0,3,,,,,,,,,2,,62,46
175136,note_on,64,0,1,,,,,,,,,0,,80,0
175156,note_on,20,0,1,,,,,,,,,0,,81,38
175202,set_tempo,70754,1,0,,,,,,256410,,,,,,
175223,note_on,67,0,1,,,,,,,,,0,,81,0
175244,note_on,21,0,1,,,,,,,,,0,,80,35
175253,note_on,9,0,1,,,,,,,,,0,,78,40
175284,note_on,692,0,2,,,,,,,,,1,,76,0
175314,note_on,61,0,1,,,,,,,,,0,,80,0
175317,note_on,3,0,1,,,,,,,,,0,,78,0
175317,note_on,0,0,1,,,,,,,,,0,,80,45
175335,note_on,231,0,4,,,,,,,,,3,,59,0
175335,note_on,231,0,3,,,,,,,,,2,,62,0
175356,note_on,39,0,1,,,,,,,,,0,,80,0
175356,note_on,0,0,1,,,,,,,,,0,,81,44
175360,note_on,25,0,3,,,,,,,,,2,,67,59
175360,note_on,25,0,4,,,,,,,,,3,,57,49
175360,note_on,76,0,2,,,,,,,,,1,,76,53
175360,note_on,4,0,1,,,,,,,,,0,,81,0
175360,note_on,0,0,1,,,,,,,,,0,,81,62
175409,note_on,0,0,1,,,,,,,,,0,,83,64
175409,note_on,49,0,1,,,,,,,,,0,,81,0
175465,note_on,0,0,1,,,,,,,,,0,,85,70
175465,note_on,56,0,1,,,,,,,,,0,,83,0
175469,note_on,4,0,1,,,,,,,,,0,,85,0
175488,note_on,19,0,1,,,,,,,,,0,,85,61
175545,note_on,57,0,1,,,,,,,,,0,,85,0
175616,note_on,71,0,1,,,,,,,,,0,,85,64
175673,note_on,57,0,1,,,,,,,,,0,,85,0
175744,note_on,71,0,1,,,,,,,,,0,,85,63
175801,note_on,57,0,1,,,,,,,,,0,,85,0
175872,note_on,71,0,1,,,,,,,,,0,,85,60
175872,set_tempo,670,1,0,,,,,,263157,,,,,,
176103,note_on,231,0,1,,,,,,,,,0,,85,0
176128,note_on,768,0,4,,,,,,,,,3,,57,0
176128,note_on,0,0,4,,,,,,,,,3,,56,50
176128,note_on,0,0,3,,,,,,,,,2,,65,46
176128,note_on,0,0,2,,,,,,,,,1,,71,45
176128,note_on,768,0,2,,,,,,,,,1,,76,0
176128,note_on,768,0,3,,,,,,,,,2,,67,0
176128,note_on,25,0,1,,,,,,,,,0,,86,61
176166,note_on,0,0,1,,,,,,,,,0,,88,67
176166,note_on,38,0,1,,,,,,,,,0,,86,0
176247,note_on,81,0,1,,,,,,,,,0,,88,0
176247,note_on,0,0,1,,,,,,,,,0,,89,66
176256,note_on,9,0,1,,,,,,,,,0,,89,61
176259,note_on,3,0,1,,,,,,,,,0,,89,0
176313,note_on,54,0,1,,,,,,,,,0,,89,0
176384,note_on,71,0,1,,,,,,,,,0,,89,61
176441,note_on,57,0,1,,,,,,,,,0,,89,0
176512,note_on,71,0,1,,,,,,,,,0,,89,62
176569,note_on,57,0,1,,,,,,,,,0,,89,0
176640,note_on,71,0,1,,,,,,,,,0,,89,59
176640,set_tempo,768,1,0,,,,,,270270,,,,,,
176802,note_on,674,0,4,,,,,,,,,3,,56,0
176802,note_on,674,0,3,,,,,,,,,2,,65,0
176802,note_on,674,0,2,,,,,,,,,1,,71,0
176871,note_on,231,0,1,,,,,,,,,0,,89,0
176896,note_on,0,0,2,,,,,,,,,1,,69,73
176896,note_on,25,0,1,,,,,,,,,0,,64,60
176896,note_on,94,0,3,,,,,,,,,2,,55,69
176896,note_on,94,0,4,,,,,,,,,3,,45,69
176896,note_on,94,0,2,,,,,,,,,1,,61,73
176936,note_on,40,0,1,,,,,,,,,0,,64,0
176936,note_on,0,0,1,,,,,,,,,0,,66,62
176985,note_on,0,0,1,,,,,,,,,0,,68,64
176985,note_on,49,0,1,,,,,,,,,0,,66,0
177018,note_on,33,0,1,,,,,,,,,0,,68,0
177018,note_on,0,0,1,,,,,,,,,0,,69,65
177024,note_on,6,0,1,,,,,,,,,0,,73,66
177030,note_on,6,0,1,,,,,,,,,0,,69,0
177081,note_on,51,0,1,,,,,,,,,0,,73,0
177152,note_on,71,0,1,,,,,,,,,0,,76,71
177152,set_tempo,512,1,0,,,,,,275229,,,,,,
177209,note_on,57,0,1,,,,,,,,,0,,76,0
177242,note_on,346,0,3,,,,,,,,,2,,55,0
177242,note_on,0,0,2,,,,,,,,,1,,69,0
177242,note_on,346,0,4,,,,,,,,,3,,45,0
177242,note_on,346,0,2,,,,,,,,,1,,61,0
177280,note_on,0,0,2,,,,,,,,,1,,69,50
177280,note_on,38,0,2,,,,,,,,,1,,61,50
177280,note_on,38,0,3,,,,,,,,,2,,55,51
177280,note_on,71,0,1,,,,,,,,,0,,81,76
177280,note_on,38,0,4,,,,,,,,,3,,45,50
177337,note_on,57,0,1,,,,,,,,,0,,81,0
177396,note_on,0,0,2,,,,,,,,,1,,69,0
177396,note_on,116,0,2,,,,,,,,,1,,61,0
177396,note_on,116,0,4,,,,,,,,,3,,45,0
177396,note_on,116,0,3,,,,,,,,,2,,55,0
177408,note_on,12,0,2,,,,,,,,,1,,61,50
177408,note_on,0,0,2,,,,,,,,,1,,69,50
177408,note_on,71,0,1,,,,,,,,,0,,85,81
177408,note_on,12,0,4,,,,,,,,,3,,45,55
177408,note_on,12,0,3,,,,,,,,,2,,55,49
177408,set_tempo,256,1,0,,,,,,300000,,,,,,
177465,note_on,57,0,1,,,,,,,,,0,,85,0
177536,note_on,71,0,1,,,,,,,,,0,,93,86
177593,note_on,57,0,1,,,,,,,,,0,,93,0
177639,note_on,231,0,2,,,,,,,,,1,,61,0
177639,note_on,231,0,4,,,,,,,,,3,,45,0
177639,note_on,0,0,2,,,,,,,,,1,,69,0
177639,note_on,231,0,3,,,,,,,,,2,,55,0
177664,note_on,25,0,3,,,,,,,,,2,,54,50
177664,note_on,25,0,4,,,,,,,,,3,,50,56
177664,set_tempo,256,1,0,,,,,,400000,,,,,,
177664,note_on,25,0,2,,,,,,,,,1,,62,43
177664,note_on,71,0,1,,,,,,,,,0,,86,49
177895,note_on,231,0,4,,,,,,,,,3,,50,0
177895,note_on,231,0,1,,,,,,,,,0,,86,0
177895,note_on,231,0,3,,,,,,,,,2,,54,0
177895,note_on,231,0,2,,,,,,,,,1,,62,0
177920,set_tempo,256,1,0,,,,,,750000,,,,,,
178176,note_on,0,0,2,,,,,,,,,1,,69,113
178176,set_tempo,256,1,0,,,,,,214285,,,,,,
178176,time_signature,281,1,4,3,4,24,8,,,,,,,,
178176,note_on,0,0,1,,,,,,,,,0,,81,109
178176,time_signature,281,1,3,3,4,24,8,,,,,,,,
178176,time_signature,281,1,1,3,4,24,8,,,,,,,,
178176,time_signature,281,1,2,3,4,24,8,,,,,,,,
178177,end_of_track,1,1,0,,,,,,,,,,,,
178432,time_signature,256,1,1,3,4,24,8,,,,,,,,
178432,time_signature,256,1,4,3,4,24,8,,,,,,,,
178432,time_signature,256,1,2,3,4,24,8,,,,,,,,
178432,note_on,0,0,3,,,,,,,,,2,,53,110
178432,time_signature,256,1,3,3,4,24,8,,,,,,,,
178432,note_on,0,0,4,,,,,,,,,3,,50,110
178663,note_on,231,0,2,,,,,,,,,1,,69,0
178663,note_on,231,0,1,,,,,,,,,0,,81,0
178688,note_on,25,0,2,,,,,,,,,1,,65,87
178688,note_on,25,0,1,,,,,,,,,0,,77,89
178803,note_on,115,0,1,,,,,,,,,0,,77,0
178803,note_on,115,0,2,,,,,,,,,1,,65,0
178944,note_on,141,0,1,,,,,,,,,0,,79,102
178944,note_on,141,0,2,,,,,,,,,1,,67,106
179059,note_on,115,0,1,,,,,,,,,0,,79,0
179059,note_on,115,0,2,,,,,,,,,1,,67,0
179124,note_on,692,0,4,,,,,,,,,3,,50,0
179124,note_on,692,0,3,,,,,,,,,2,,53,0
179200,note_on,76,0,4,,,,,,,,,3,,49,118
179200,note_on,141,0,1,,,,,,,,,0,,81,106
179200,note_on,76,0,3,,,,,,,,,2,,52,116
179200,note_on,141,0,2,,,,,,,,,1,,69,100
179546,note_on,346,0,1,,,,,,,,,0,,81,0
179546,note_on,346,0,2,,,,,,,,,1,,69,0
179584,note_on,38,0,1,,,,,,,,,0,,81,100
179584,note_on,38,0,2,,,,,,,,,1,,69,104
179700,note_on,116,0,2,,,,,,,,,1,,69,0
179700,note_on,116,0,1,,,,,,,,,0,,81,0
179712,note_on,12,0,2,,,,,,,,,1,,69,118
179712,note_on,12,0,1,,,,,,,,,0,,81,125
179892,note_on,692,0,3,,,,,,,,,2,,52,0
179892,note_on,692,0,4,,,,,,,,,3,,49,0
179968,note_on,76,0,3,,,,,,,,,2,,50,123
179968,note_on,76,0,4,,,,,,,,,3,,46,119
180199,note_on,487,0,2,,,,,,,,,1,,69,0
180199,note_on,487,0,1,,,,,,,,,0,,81,0
180224,note_on,25,0,2,,,,,,,,,1,,65,84
180224,note_on,25,0,1,,,,,,,,,0,,65,69
180339,note_on,115,0,2,,,,,,,,,1,,65,0
180339,note_on,115,0,1,,,,,,,,,0,,65,0
180480,note_on,141,0,1,,,,,,,,,0,,67,103
180480,note_on,141,0,2,,,,,,,,,1,,55,82
180595,note_on,115,0,1,,,,,,,,,0,,67,0
180595,note_on,115,0,2,,,,,,,,,1,,55,0
180660,note_on,692,0,4,,,,,,,,,3,,46,0
180660,note_on,692,0,3,,,,,,,,,2,,50,0
180736,note_on,141,0,1,,,,,,,,,0,,69,100
180736,note_on,141,0,2,,,,,,,,,1,,57,94
180736,note_on,76,0,4,,,,,,,,,3,,45,121
180736,note_on,76,0,3,,,,,,,,,2,,49,122
181197,note_on,461,0,1,,,,,,,,,0,,69,0
181197,note_on,461,0,3,,,,,,,,,2,,49,0
181197,note_on,461,0,4,,,,,,,,,3,,45,0
181197,note_on,461,0,2,,,,,,,,,1,,57,0
181248,note_on,51,0,2,,,,,,,,,1,,74,127
181248,note_on,51,0,1,,,,,,,,,0,,86,127
181504,note_on,307,0,3,,,,,,,,,2,,55,113
181504,note_on,307,0,4,,,,,,,,,3,,50,107
181504,note_on,0,0,3,,,,,,,,,2,,62,113
181504,note_on,0,0,4,,,,,,,,,3,,58,107
181735,note_on,487,0,1,,,,,,,,,0,,86,0
181735,note_on,487,0,2,,,,,,,,,1,,74,0
181760,note_on,25,0,2,,,,,,,,,1,,70,89
181760,note_on,25,0,1,,,,,,,,,0,,82,86
181875,note_on,115,0,2,,,,,,,,,1,,70,0
181875,note_on,115,0,1,,,,,,,,,0,,82,0
182016,note_on,141,0,1,,,,,,,,,0,,84,97
182016,note_on,141,0,2,,,,,,,,,1,,72,103
182131,note_on,115,0,2,,,,,,,,,1,,72,0
182131,note_on,115,0,1,,,,,,,,,0,,84,0
182196,note_on,0,0,3,,,,,,,,,2,,62,0
182196,note_on,692,0,3,,,,,,,,,2,,55,0
182196,note_on,0,0,4,,,,,,,,,3,,58,0
182196,note_on,692,0,4,,,,,,,,,3,,50,0
182272,note_on,76,0,4,,,,,,,,,3,,50,97
182272,note_on,76,0,3,,,,,,,,,2,,53,120
182272,note_on,141,0,2,,,,,,,,,1,,74,97
182272,note_on,0,0,3,,,,,,,,,2,,62,120
182272,note_on,141,0,1,,,,,,,,,0,,86,98
182272,note_on,0,0,4,,,,,,,,,3,,57,97
182618,note_on,346,0,1,,,,,,,,,0,,86,0
182618,note_on,346,0,3,,,,,,,,,2,,53,0
182618,note_on,0,0,4,,,,,,,,,3,,57,0
182618,note_on,346,0,2,,,,,,,,,1,,74,0
182618,note_on,0,0,3,,,,,,,,,2,,62,0
182618,note_on,346,0,4,,,,,,,,,3,,50,0
182656,note_on,38,0,4,,,,,,,,,3,,49,106
182656,note_on,38,0,2,,,,,,,,,1,,76,106
182656,note_on,38,0,1,,,,,,,,,0,,88,102
182656,note_on,38,0,3,,,,,,,,,2,,57,102
182713,note_on,57,0,2,,,,,,,,,1,,76,0
182713,note_on,57,0,3,,,,,,,,,2,,57,0
182713,note_on,57,0,1,,,,,,,,,0,,88,0
182713,note_on,57,0,4,,,,,,,,,3,,49,0
182784,note_on,71,0,3,,,,,,,,,2,,57,105
182784,note_on,71,0,4,,,,,,,,,3,,50,109
182784,note_on,71,0,1,,,,,,,,,0,,89,105
182784,note_on,71,0,2,,,,,,,,,1,,77,109
182899,note_on,115,0,4,,,,,,,,,3,,50,0
182899,note_on,115,0,3,,,,,,,,,2,,57,0
182899,note_on,115,0,1,,,,,,,,,0,,89,0
182899,note_on,115,0,2,,,,,,,,,1,,77,0
183040,note_on,141,0,1,,,,,,,,,0,,90,111
183040,note_on,141,0,2,,,,,,,,,1,,78,115
183040,note_on,141,0,4,,,,,,,,,3,,48,115
183040,note_on,141,0,3,,,,,,,,,2,,50,110
183155,note_on,115,0,1,,,,,,,,,0,,90,0
183155,note_on,115,0,2,,,,,,,,,1,,78,0
183155,note_on,115,0,4,,,,,,,,,3,,48,0
183155,note_on,115,0,3,,,,,,,,,2,,50,0
183296,note_on,141,0,3,,,,,,,,,2,,50,116
183296,note_on,141,0,1,,,,,,,,,0,,91,117
183296,note_on,141,0,2,,,,,,,,,1,,79,120
183296,note_on,141,0,4,,,,,,,,,3,,47,120
183411,note_on,115,0,1,,,,,,,,,0,,91,0
183411,note_on,115,0,3,,,,,,,,,2,,50,0
183411,note_on,115,0,4,,,,,,,,,3,,47,0
183411,note_on,115,0,2,,,,,,,,,1,,79,0
183552,note_on,141,0,1,,,,,,,,,0,,92,123
183552,note_on,141,0,4,,,,,,,,,3,,46,121
183552,note_on,141,0,3,,,,,,,,,2,,50,122
183552,note_on,141,0,2,,,,,,,,,1,,80,126
183667,note_on,115,0,4,,,,,,,,,3,,46,0
183667,note_on,115,0,2,,,,,,,,,1,,80,0
183667,note_on,115,0,1,,,,,,,,,0,,92,0
183667,note_on,115,0,3,,,,,,,,,2,,50,0
183808,note_on,141,0,2,,,,,,,,,1,,81,126
183808,note_on,141,0,4,,,,,,,,,3,,45,121
183808,note_on,141,0,1,,,,,,,,,0,,93,126
183808,note_on,141,0,3,,,,,,,,,2,,49,117
184269,note_on,461,0,2,,,,,,,,,1,,81,0
184269,note_on,461,0,4,,,,,,,,,3,,45,0
184269,note_on,461,0,1,,,,,,,,,0,,93,0
184269,note_on,461,0,3,,,,,,,,,2,,49,0
184320,note_on,51,0,2,,,,,,,,,1,,69,82
184576,note_on,307,0,4,,,,,,,,,3,,58,55
184576,note_on,307,0,1,,,,,,,,,0,,74,67
184576,note_on,307,0,3,,,,,,,,,2,,62,63
184807,note_on,487,0,2,,,,,,,,,1,,69,0
184832,note_on,25,0,2,,,,,,,,,1,,65,57
184947,note_on,115,0,2,,,,,,,,,1,,65,0
185088,note_on,141,0,2,,,,,,,,,1,,67,75
185203,note_on,115,0,2,,,,,,,,,1,,67,0
185344,note_on,0,0,3,,,,,,,,,2,,64,74
185344,note_on,141,0,2,,,,,,,,,1,,69,76
185344,note_on,0,0,4,,,,,,,,,3,,57,60
185344,note_on,768,0,4,,,,,,,,,3,,58,0
185344,note_on,768,0,3,,,,,,,,,2,,62,0
185690,note_on,346,0,2,,,,,,,,,1,,69,0
185728,note_on,38,0,2,,,,,,,,,1,,69,70
185844,note_on,116,0,2,,,,,,,,,1,,69,0
185856,note_on,12,0,2,,,,,,,,,1,,69,101
185856,note_on,1280,0,1,,,,,,,,,0,,73,65
185881,note_on,25,0,1,,,,,,,,,0,,74,0
185958,note_on,77,0,1,,,,,,,,,0,,73,0
185993,note_on,649,0,3,,,,,,,,,2,,64,0
185993,note_on,649,0,4,,,,,,,,,3,,57,0
186112,note_on,119,0,4,,,,,,,,,3,,50,52
186112,note_on,154,0,1,,,,,,,,,0,,72,59
186112,note_on,119,0,3,,,,,,,,,2,,63,64
186343,note_on,487,0,2,,,,,,,,,1,,69,0
186368,note_on,25,0,2,,,,,,,,,1,,66,66
186483,note_on,115,0,2,,,,,,,,,1,,66,0
186624,note_on,141,0,2,,,,,,,,,1,,67,73
186739,note_on,115,0,2,,,,,,,,,1,,67,0
186804,note_on,692,0,4,,,,,,,,,3,,50,0
186880,note_on,0,0,3,,,,,,,,,2,,62,67
186880,note_on,768,0,3,,,,,,,,,2,,63,0
186880,note_on,141,0,2,,,,,,,,,1,,69,75
186880,note_on,76,0,4,,,,,,,,,3,,55,69
187226,note_on,346,0,4,,,,,,,,,3,,55,0
187264,note_on,38,0,4,,,,,,,,,3,,55,62
187380,note_on,116,0,4,,,,,,,,,3,,55,0
187392,note_on,1280,0,1,,,,,,,,,0,,70,68
187392,note_on,512,0,2,,,,,,,,,1,,67,66
187392,note_on,12,0,4,,,,,,,,,3,,55,61
187417,note_on,25,0,1,,,,,,,,,0,,72,0
187417,note_on,25,0,2,,,,,,,,,1,,69,0
187494,note_on,77,0,1,,,,,,,,,0,,70,0
187494,note_on,77,0,2,,,,,,,,,1,,67,0
187529,note_on,649,0,3,,,,,,,,,2,,62,0
187623,note_on,231,0,4,,,,,,,,,3,,55,0
187648,note_on,119,0,3,,,,,,,,,2,,55,61
187648,note_on,154,0,1,,,,,,,,,0,,76,57
187648,note_on,25,0,4,,,,,,,,,3,,49,60
187742,note_on,94,0,1,,,,,,,,,0,,76,0
187742,note_on,0,0,1,,,,,,,,,0,,82,106
187763,note_on,115,0,3,,,,,,,,,2,,55,0
187802,note_on,60,0,1,,,,,,,,,0,,82,0
187904,note_on,141,0,3,,,,,,,,,2,,52,62
187904,note_on,102,0,1,,,,,,,,,0,,81,69
188019,note_on,115,0,3,,,,,,,,,2,,52,0
188019,note_on,115,0,1,,,,,,,,,0,,81,0
188160,note_on,141,0,1,,,,,,,,,0,,79,67
188160,note_on,141,0,3,,,,,,,,,2,,57,97
188275,note_on,115,0,1,,,,,,,,,0,,79,0
188340,note_on,692,0,4,,,,,,,,,3,,49,0
188416,note_on,76,0,4,,,,,,,,,3,,50,64
188416,note_on,141,0,1,,,,,,,,,0,,79,68
188506,note_on,0,0,1,,,,,,,,,0,,77,96
188506,note_on,90,0,1,,,,,,,,,0,,79,0
188531,note_on,115,0,4,,,,,,,,,3,,50,0
188567,note_on,61,0,1,,,,,,,,,0,,77,0
188672,note_on,141,0,4,,,,,,,,,3,,52,66
188672,note_on,105,0,1,,,,,,,,,0,,76,62
188762,note_on,602,0,3,,,,,,,,,2,,57,0
188787,note_on,115,0,4,,,,,,,,,3,,52,0
188787,note_on,115,0,1,,,,,,,,,0,,76,0
188800,note_on,38,0,3,,,,,,,,,2,,57,71
188916,note_on,116,0,3,,,,,,,,,2,,57,0
188928,note_on,141,0,4,,,,,,,,,3,,53,64
188928,note_on,141,0,1,,,,,,,,,0,,74,67
188928,note_on,12,0,3,,,,,,,,,2,,57,68
189043,note_on,115,0,1,,,,,,,,,0,,74,0
189043,note_on,115,0,4,,,,,,,,,3,,53,0
189159,note_on,231,0,3,,,,,,,,,2,,57,0
189184,note_on,1690,0,2,,,,,,,,,1,,62,60
189184,note_on,141,0,1,,,,,,,,,0,,71,63
189184,note_on,141,0,4,,,,,,,,,3,,56,61
189278,note_on,94,0,1,,,,,,,,,0,,71,0
189278,note_on,0,0,1,,,,,,,,,0,,77,106
189299,note_on,115,0,2,,,,,,,,,1,,62,0
189338,note_on,60,0,1,,,,,,,,,0,,77,0
189440,note_on,141,0,2,,,,,,,,,1,,59,68
189440,note_on,102,0,1,,,,,,,,,0,,76,67
189555,note_on,115,0,1,,,,,,,,,0,,76,0
189555,note_on,115,0,2,,,,,,,,,1,,59,0
189696,note_on,141,0,2,,,,,,,,,1,,64,76
189696,note_on,141,0,1,,,,,,,,,0,,74,66
189811,note_on,115,0,1,,,,,,,,,0,,74,0
189876,note_on,692,0,4,,,,,,,,,3,,56,0
189952,note_on,141,0,1,,,,,,,,,0,,74,69
189952,note_on,76,0,4,,,,,,,,,3,,57,60
190046,note_on,0,0,1,,,,,,,,,0,,72,88
190046,note_on,94,0,1,,,,,,,,,0,,74,0
190067,note_on,115,0,4,,,,,,,,,3,,57,0
190106,note_on,60,0,1,,,,,,,,,0,,72,0
190208,note_on,141,0,4,,,,,,,,,3,,59,63
190208,note_on,102,0,1,,,,,,,,,0,,71,67
190298,note_on,602,0,2,,,,,,,,,1,,64,0
190323,note_on,115,0,1,,,,,,,,,0,,71,0
190323,note_on,115,0,4,,,,,,,,,3,,59,0
190336,note_on,38,0,2,,,,,,,,,1,,64,71
190452,note_on,116,0,2,,,,,,,,,1,,64,0
190464,note_on,12,0,2,,,,,,,,,1,,64,70
190464,note_on,141,0,1,,,,,,,,,0,,69,63
190464,note_on,141,0,4,,,,,,,,,3,,60,63
190579,note_on,115,0,4,,,,,,,,,3,,60,0
190579,note_on,115,0,1,,,,,,,,,0,,69,0
190695,note_on,231,0,2,,,,,,,,,1,,64,0
190720,note_on,1561,0,3,,,,,,,,,2,,57,87
190720,note_on,141,0,4,,,,,,,,,3,,57,93
190720,note_on,141,0,1,,,,,,,,,0,,69,97
190720,note_on,25,0,2,,,,,,,,,1,,69,107
190788,note_on,68,0,1,,,,,,,,,0,,69,0
190788,note_on,0,0,1,,,,,,,,,0,,74,127
190797,note_on,0,0,4,,,,,,,,,3,,62,127
190797,note_on,77,0,4,,,,,,,,,3,,57,0
190797,note_on,77,0,2,,,,,,,,,1,,69,0
190797,note_on,0,0,2,,,,,,,,,1,,74,127
190801,note_on,0,0,3,,,,,,,,,2,,62,127
190801,note_on,81,0,3,,,,,,,,,2,,57,0
190860,note_on,72,0,1,,,,,,,,,0,,74,0
190864,note_on,67,0,4,,,,,,,,,3,,62,0
190864,note_on,67,0,2,,,,,,,,,1,,74,0
190866,note_on,65,0,3,,,,,,,,,2,,62,0
190976,note_on,112,0,2,,,,,,,,,1,,72,95
190976,note_on,112,0,4,,,,,,,,,3,,60,93
190976,note_on,110,0,3,,,,,,,,,2,,60,91
190976,note_on,116,0,1,,,,,,,,,0,,72,95
191091,note_on,115,0,2,,,,,,,,,1,,72,0
191091,note_on,115,0,4,,,,,,,,,3,,60,0
191091,note_on,115,0,3,,,,,,,,,2,,60,0
191091,note_on,115,0,1,,,,,,,,,0,,72,0
191232,note_on,141,0,2,,,,,,,,,1,,71,91
191232,note_on,141,0,3,,,,,,,,,2,,59,98
191232,note_on,141,0,1,,,,,,,,,0,,71,92
191232,note_on,141,0,4,,,,,,,,,3,,59,93
191347,note_on,115,0,3,,,,,,,,,2,,59,0
191347,note_on,115,0,4,,,,,,,,,3,,59,0
191347,note_on,115,0,1,,,,,,,,,0,,71,0
191347,note_on,115,0,2,,,,,,,,,1,,71,0
191488,note_on,141,0,4,,,,,,,,,3,,59,98
191488,note_on,141,0,1,,,,,,,,,0,,71,92
191488,note_on,141,0,2,,,,,,,,,1,,71,92
191488,note_on,141,0,3,,,,,,,,,2,,59,100
191543,note_on,0,0,4,,,,,,,,,3,,57,119
191543,note_on,55,0,4,,,,,,,,,3,,59,0
191543,note_on,55,0,1,,,,,,,,,0,,71,0
191543,note_on,0,0,1,,,,,,,,,0,,69,116
191548,note_on,60,0,2,,,,,,,,,1,,71,0
191548,note_on,0,0,2,,,,,,,,,1,,69,119
191552,note_on,0,0,3,,,,,,,,,2,,57,118
191552,note_on,64,0,3,,,,,,,,,2,,59,0
191619,note_on,76,0,1,,,,,,,,,0,,69,0
191619,note_on,76,0,4,,,,,,,,,3,,57,0
191623,note_on,75,0,2,,,,,,,,,1,,69,0
191625,note_on,73,0,3,,,,,,,,,2,,57,0
191744,note_on,119,0,3,,,,,,,,,2,,55,96
191744,note_on,125,0,4,,,,,,,,,3,,55,95
191744,note_on,121,0,2,,,,,,,,,1,,67,89
191744,note_on,125,0,1,,,,,,,,,0,,67,91
191859,note_on,115,0,4,,,,,,,,,3,,55,0
191859,note_on,115,0,3,,,,,,,,,2,,55,0
191859,note_on,115,0,1,,,,,,,,,0,,67,0
191859,note_on,115,0,2,,,,,,,,,1,,67,0
192000,note_on,141,0,3,,,,,,,,,2,,53,97
192000,note_on,141,0,1,,,,,,,,,0,,65,90
192000,note_on,141,0,4,,,,,,,,,3,,53,98
192000,note_on,141,0,2,,,,,,,,,1,,65,88
192115,note_on,115,0,2,,,,,,,,,1,,65,0
192115,note_on,115,0,1,,,,,,,,,0,,65,0
192115,note_on,115,0,3,,,,,,,,,2,,53,0
192115,note_on,115,0,4,,,,,,,,,3,,53,0
192256,note_on,141,0,1,,,,,,,,,0,,64,127
192256,note_on,0,0,1,,,,,,,,,0,,72,127
192256,note_on,141,0,4,,,,,,,,,3,,52,123
192256,note_on,0,0,2,,,,,,,,,1,,69,127
192256,note_on,141,0,3,,,,,,,,,2,,52,120
192256,note_on,141,0,2,,,,,,,,,1,,60,127
192948,note_on,692,0,4,,,,,,,,,3,,52,0
192948,note_on,0,0,1,,,,,,,,,0,,72,0
192948,note_on,692,0,1,,,,,,,,,0,,64,0
192948,note_on,692,0,2,,,,,,,,,1,,60,0
192948,note_on,692,0,3,,,,,,,,,2,,52,0
192948,note_on,0,0,2,,,,,,,,,1,,69,0
193024,note_on,76,0,4,,,,,,,,,3,,52,119
193024,note_on,0,0,2,,,,,,,,,1,,68,118
193024,note_on,76,0,2,,,,,,,,,1,,59,118
193024,note_on,0,0,1,,,,,,,,,0,,71,123
193024,note_on,76,0,1,,,,,,,,,0,,64,123
193024,note_on,76,0,3,,,,,,,,,2,,52,121
193716,note_on,692,0,3,,,,,,,,,2,,52,0
193716,note_on,0,0,2,,,,,,,,,1,,68,0
193716,note_on,692,0,2,,,,,,,,,1,,59,0
193716,note_on,0,0,1,,,,,,,,,0,,71,0
193716,note_on,692,0,1,,,,,,,,,0,,64,0
193716,note_on,692,0,4,,,,,,,,,3,,52,0
193792,note_on,0,0,2,,,,,,,,,1,,69,100
193792,note_on,76,0,2,,,,,,,,,1,,60,100
193792,note_on,76,0,4,,,,,,,,,3,,45,89
193792,note_on,76,0,1,,,,,,,,,0,,60,97
193792,note_on,0,0,1,,,,,,,,,0,,69,97
193792,note_on,76,0,3,,,,,,,,,2,,64,123
193907,note_on,115,0,3,,,,,,,,,2,,64,0
193907,note_on,0,0,2,,,,,,,,,1,,69,0
193907,note_on,115,0,2,,,,,,,,,1,,60,0
193907,note_on,115,0,4,,,,,,,,,3,,45,0
193907,note_on,115,0,1,,,,,,,,,0,,60,0
193907,note_on,0,0,1,,,,,,,,,0,,69,0
194048,note_on,141,0,2,,,,,,,,,1,,64,86
194048,note_on,141,0,4,,,,,,,,,3,,48,103
194048,note_on,141,0,1,,,,,,,,,0,,64,85
194048,note_on,141,0,3,,,,,,,,,2,,60,93
194163,note_on,115,0,3,,,,,,,,,2,,60,0
194163,note_on,115,0,1,,,,,,,,,0,,64,0
194163,note_on,115,0,4,,,,,,,,,3,,48,0
194163,note_on,115,0,2,,,,,,,,,1,,64,0
194304,note_on,141,0,4,,,,,,,,,3,,52,102
194304,note_on,141,0,3,,,,,,,,,2,,59,95
194304,note_on,141,0,2,,,,,,,,,1,,62,86
194304,note_on,141,0,1,,,,,,,,,0,,68,109
194419,note_on,115,0,1,,,,,,,,,0,,68,0
194419,note_on,115,0,3,,,,,,,,,2,,59,0
194419,note_on,115,0,4,,,,,,,,,3,,52,0
194419,note_on,115,0,2,,,,,,,,,1,,62,0
194560,note_on,141,0,2,,,,,,,,,1,,60,89
194560,note_on,141,0,3,,,,,,,,,2,,57,96
194560,note_on,141,0,4,,,,,,,,,3,,45,88
194560,note_on,141,0,1,,,,,,,,,0,,69,105
195021,note_on,461,0,2,,,,,,,,,1,,60,0
195021,note_on,461,0,3,,,,,,,,,2,,57,0
195021,note_on,461,0,4,,,,,,,,,3,,45,0
195021,note_on,461,0,1,,,,,,,,,0,,69,0
195072,time_signature,51,1,3,3,4,24,8,,,,,,,,
195072,note_on,0,0,3,,,,,,,,,2,,57,122
195072,time_signature,51,1,1,3,4,24,8,,,,,,,,
195072,time_signature,51,1,4,3,4,24,8,,,,,,,,
195072,time_signature,51,1,2,3,4,24,8,,,,,,,,
195072,note_on,0,0,4,,,,,,,,,3,,45,122
195328,time_signature,256,1,3,3,4,24,8,,,,,,,,
195328,time_signature,256,1,1,3,4,24,8,,,,,,,,
195328,note_on,0,0,1,,,,,,,,,0,,69,110
195328,time_signature,256,1,2,3,4,24,8,,,,,,,,
195328,note_on,0,0,2,,,,,,,,,1,,65,114
195328,note_on,0,0,2,,,,,,,,,1,,74,114
195328,time_signature,256,1,4,3,4,24,8,,,,,,,,
195328,note_on,0,0,1,,,,,,,,,0,,77,110
195559,note_on,231,0,3,,,,,,,,,2,,57,0
195559,note_on,231,0,4,,,,,,,,,3,,45,0
195584,note_on,25,0,3,,,,,,,,,2,,53,90
195584,note_on,25,0,4,,,,,,,,,3,,41,91
195699,note_on,115,0,3,,,,,,,,,2,,53,0
195699,note_on,115,0,4,,,,,,,,,3,,41,0
195840,note_on,141,0,4,,,,,,,,,3,,43,98
195840,note_on,141,0,3,,,,,,,,,2,,55,99
195955,note_on,115,0,3,,,,,,,,,2,,55,0
195955,note_on,115,0,4,,,,,,,,,3,,43,0
196020,note_on,0,0,2,,,,,,,,,1,,74,0
196020,note_on,692,0,2,,,,,,,,,1,,65,0
196020,note_on,692,0,1,,,,,,,,,0,,69,0
196020,note_on,0,0,1,,,,,,,,,0,,77,0
196096,note_on,76,0,1,,,,,,,,,0,,69,115
196096,note_on,0,0,1,,,,,,,,,0,,76,115
196096,note_on,0,0,2,,,,,,,,,1,,64,79
196096,note_on,76,0,2,,,,,,,,,1,,74,123
196096,note_on,141,0,4,,,,,,,,,3,,45,100
196096,note_on,141,0,3,,,,,,,,,2,,57,105
196442,note_on,346,0,3,,,,,,,,,2,,57,0
196442,note_on,346,0,4,,,,,,,,,3,,45,0
196480,note_on,38,0,4,,,,,,,,,3,,45,93
196480,note_on,38,0,3,,,,,,,,,2,,57,95
196596,note_on,116,0,3,,,,,,,,,2,,57,0
196596,note_on,116,0,4,,,,,,,,,3,,45,0
196608,note_on,512,0,2,,,,,,,,,1,,73,95
196608,note_on,12,0,4,,,,,,,,,3,,45,120
196608,note_on,12,0,3,,,,,,,,,2,,57,121
196633,note_on,25,0,2,,,,,,,,,1,,74,0
196745,note_on,112,0,2,,,,,,,,,1,,64,0
196788,note_on,692,0,1,,,,,,,,,0,,69,0
196788,note_on,0,0,1,,,,,,,,,0,,76,0
196812,note_on,67,0,2,,,,,,,,,1,,73,0
196864,note_on,0,0,1,,,,,,,,,0,,75,120
196864,note_on,76,0,1,,,,,,,,,0,,66,120
196864,note_on,52,0,2,,,,,,,,,1,,69,115
196864,note_on,0,0,2,,,,,,,,,1,,72,115
197095,note_on,487,0,3,,,,,,,,,2,,57,0
197095,note_on,487,0,4,,,,,,,,,3,,45,0
197120,note_on,25,0,3,,,,,,,,,2,,54,91
197120,note_on,25,0,4,,,,,,,,,3,,42,93
197235,note_on,115,0,4,,,,,,,,,3,,42,0
197235,note_on,115,0,3,,,,,,,,,2,,54,0
197376,note_on,141,0,3,,,,,,,,,2,,50,97
197376,note_on,141,0,4,,,,,,,,,3,,38,87
197491,note_on,115,0,3,,,,,,,,,2,,50,0
197491,note_on,115,0,4,,,,,,,,,3,,38,0
197556,note_on,0,0,1,,,,,,,,,0,,75,0
197556,note_on,0,0,2,,,,,,,,,1,,72,0
197556,note_on,692,0,1,,,,,,,,,0,,66,0
197556,note_on,692,0,2,,,,,,,,,1,,69,0
197632,note_on,76,0,1,,,,,,,,,0,,67,117
197632,note_on,141,0,3,,,,,,,,,2,,55,104
197632,note_on,76,0,2,,,,,,,,,1,,72,121
197632,note_on,141,0,4,,,,,,,,,3,,43,94
197632,note_on,0,0,2,,,,,,,,,1,,67,92
197632,note_on,0,0,1,,,,,,,,,0,,74,117
197978,note_on,346,0,3,,,,,,,,,2,,55,0
197978,note_on,346,0,4,,,,,,,,,3,,43,0
198016,note_on,38,0,3,,,,,,,,,2,,55,98
198016,note_on,38,0,4,,,,,,,,,3,,43,98
198093,note_on,461,0,2,,,,,,,,,1,,72,0
198132,note_on,116,0,4,,,,,,,,,3,,43,0
198132,note_on,116,0,3,,,,,,,,,2,,55,0
198144,note_on,12,0,4,,,,,,,,,3,,43,122
198144,note_on,51,0,2,,,,,,,,,1,,71,94
198144,note_on,12,0,3,,,,,,,,,2,,55,122
198324,note_on,0,0,1,,,,,,,,,0,,74,0
198324,note_on,180,0,2,,,,,,,,,1,,67,0
198324,note_on,692,0,1,,,,,,,,,0,,67,0
198375,note_on,51,0,2,,,,,,,,,1,,71,0
198400,note_on,76,0,1,,,,,,,,,0,,64,113
198400,note_on,25,0,2,,,,,,,,,1,,67,121
198400,note_on,0,0,2,,,,,,,,,1,,70,121
198400,note_on,0,0,1,,,,,,,,,0,,73,113
198631,note_on,487,0,4,,,,,,,,,3,,43,0
198631,note_on,487,0,3,,,,,,,,,2,,55,0
198656,note_on,25,0,3,,,,,,,,,2,,52,96
198656,note_on,25,0,4,,,,,,,,,3,,40,92
198771,note_on,115,0,3,,,,,,,,,2,,52,0
198771,note_on,115,0,4,,,,,,,,,3,,40,0
198912,note_on,141,0,3,,,,,,,,,2,,48,94
198912,note_on,141,0,4,,,,,,,,,3,,36,94
199027,note_on,115,0,3,,,,,,,,,2,,48,0
199027,note_on,115,0,4,,,,,,,,,3,,36,0
199092,note_on,692,0,2,,,,,,,,,1,,67,0
199092,note_on,0,0,2,,,,,,,,,1,,70,0
199092,note_on,0,0,1,,,,,,,,,0,,73,0
199092,note_on,692,0,1,,,,,,,,,0,,64,0
199168,note_on,76,0,2,,,,,,,,,1,,70,122
199168,note_on,0,0,2,,,,,,,,,1,,65,81
199168,note_on,141,0,4,,,,,,,,,3,,41,127
199168,note_on,76,0,1,,,,,,,,,0,,65,117
199168,note_on,0,0,1,,,,,,,,,0,,72,117
199168,note_on,141,0,3,,,,,,,,,2,,53,126
199424,note_on,256,0,2,,,,,,,,,1,,69,92
199436,note_on,12,0,2,,,,,,,,,1,,70,0
199628,note_on,192,0,2,,,,,,,,,1,,69,0
199629,note_on,461,0,4,,,,,,,,,3,,41,0
199629,note_on,0,0,1,,,,,,,,,0,,72,0
199629,note_on,461,0,3,,,,,,,,,2,,53,0
199629,note_on,461,0,1,,,,,,,,,0,,65,0
199680,note_on,51,0,3,,,,,,,,,2,,55,102
199680,note_on,51,0,1,,,,,,,,,0,,62,93
199680,note_on,0,0,1,,,,,,,,,0,,70,93
199680,note_on,52,0,2,,,,,,,,,1,,67,90
199680,note_on,51,0,4,,,,,,,,,3,,43,101
199817,note_on,137,0,2,,,,,,,,,1,,65,0
199911,note_on,231,0,4,,,,,,,,,3,,43,0
199911,note_on,231,0,3,,,,,,,,,2,,55,0
199911,note_on,231,0,1,,,,,,,,,0,,62,0
199911,note_on,0,0,1,,,,,,,,,0,,70,0
199911,note_on,94,0,2,,,,,,,,,1,,67,0
199936,note_on,25,0,4,,,,,,,,,3,,45,127
199936,note_on,25,0,3,,,,,,,,,2,,57,125
199936,note_on,25,0,1,,,,,,,,,0,,62,118
199936,note_on,0,0,1,,,,,,,,,0,,69,118
199936,note_on,25,0,2,,,,,,,,,1,,67,125
200282,note_on,346,0,4,,,,,,,,,3,,45,0
200282,note_on,346,0,3,,,,,,,,,2,,57,0
200320,note_on,38,0,4,,,,,,,,,3,,45,96
200320,note_on,38,0,3,,,,,,,,,2,,57,98
200397,note_on,461,0,2,,,,,,,,,1,,67,0
200436,note_on,116,0,3,,,,,,,,,2,,57,0
200436,note_on,116,0,4,,,,,,,,,3,,45,0
200448,note_on,51,0,2,,,,,,,,,1,,65,96
200448,note_on,12,0,3,,,,,,,,,2,,57,91
200448,note_on,12,0,4,,,,,,,,,3,,45,96
200628,note_on,0,0,1,,,,,,,,,0,,69,0
200628,note_on,692,0,1,,,,,,,,,0,,62,0
200679,note_on,231,0,4,,,,,,,,,3,,45,0
200679,note_on,231,0,3,,,,,,,,,2,,57,0
200679,note_on,231,0,2,,,,,,,,,1,,65,0
200704,note_on,25,0,4,,,,,,,,,3,,46,127
200704,note_on,76,0,1,,,,,,,,,0,,67,91
200704,note_on,0,0,2,,,,,,,,,1,,62,83
200704,note_on,25,0,3,,,,,,,,,2,,58,121
200704,note_on,25,0,2,,,,,,,,,1,,65,117
201050,note_on,346,0,4,,,,,,,,,3,,46,0
201050,note_on,346,0,3,,,,,,,,,2,,58,0
201088,note_on,38,0,3,,,,,,,,,2,,58,97
201088,note_on,38,0,4,,,,,,,,,3,,46,96
201165,note_on,461,0,2,,,,,,,,,1,,65,0
201204,note_on,116,0,3,,,,,,,,,2,,58,0
201204,note_on,116,0,4,,,,,,,,,3,,46,0
201216,note_on,12,0,4,,,,,,,,,3,,46,98
201216,note_on,12,0,3,,,,,,,,,2,,58,92
201216,note_on,51,0,2,,,,,,,,,1,,64,90
201396,note_on,180,0,2,,,,,,,,,1,,62,0
201396,note_on,692,0,1,,,,,,,,,0,,67,0
201447,note_on,231,0,4,,,,,,,,,3,,46,0
201447,note_on,231,0,3,,,,,,,,,2,,58,0
201447,note_on,51,0,2,,,,,,,,,1,,64,0
201472,note_on,25,0,4,,,,,,,,,3,,45,97
201472,note_on,25,0,3,,,,,,,,,2,,57,94
201472,note_on,25,0,2,,,,,,,,,1,,62,95
201472,note_on,0,0,2,,,,,,,,,1,,64,95
201472,note_on,76,0,1,,,,,,,,,0,,69,106
201587,note_on,0,0,2,,,,,,,,,1,,64,0
201587,note_on,115,0,2,,,,,,,,,1,,62,0
201587,note_on,115,0,3,,,,,,,,,2,,57,0
201587,note_on,115,0,1,,,,,,,,,0,,69,0
201587,note_on,115,0,4,,,,,,,,,3,,45,0
201728,note_on,0,0,2,,,,,,,,,1,,64,93
201728,note_on,141,0,2,,,,,,,,,1,,61,93
201728,note_on,141,0,3,,,,,,,,,2,,57,94
201728,note_on,141,0,1,,,,,,,,,0,,64,90
201728,note_on,141,0,4,,,,,,,,,3,,45,94
201843,note_on,115,0,4,,,,,,,,,3,,45,0
201843,note_on,115,0,2,,,,,,,,,1,,61,0
201843,note_on,0,0,2,,,,,,,,,1,,64,0
201843,note_on,115,0,1,,,,,,,,,0,,64,0
201843,note_on,115,0,3,,,,,,,,,2,,57,0
201984,note_on,0,0,1,,,,,,,,,0,,68,110
201984,note_on,141,0,4,,,,,,,,,3,,45,93
201984,note_on,141,0,2,,,,,,,,,1,,62,92
201984,note_on,0,0,2,,,,,,,,,1,,64,92
201984,note_on,141,0,3,,,,,,,,,2,,57,98
201984,note_on,141,0,1,,,,,,,,,0,,59,110
202099,note_on,115,0,3,,,,,,,,,2,,57,0
202099,note_on,115,0,4,,,,,,,,,3,,45,0
202099,note_on,0,0,1,,,,,,,,,0,,68,0
202099,note_on,115,0,1,,,,,,,,,0,,59,0
202099,note_on,115,0,2,,,,,,,,,1,,62,0
202099,note_on,0,0,2,,,,,,,,,1,,64,0
202240,note_on,141,0,3,,,,,,,,,2,,57,100
202240,note_on,0,0,1,,,,,,,,,0,,69,103
202240,note_on,141,0,1,,,,,,,,,0,,57,103
202240,note_on,141,0,4,,,,,,,,,3,,45,99
202240,note_on,0,0,2,,,,,,,,,1,,64,99
202240,note_on,141,0,2,,,,,,,,,1,,61,99
202701,note_on,461,0,2,,,,,,,,,1,,61,0
202701,note_on,461,0,4,,,,,,,,,3,,45,0
202701,note_on,0,0,2,,,,,,,,,1,,64,0
202701,note_on,461,0,3,,,,,,,,,2,,57,0
202701,note_on,461,0,1,,,,,,,,,0,,57,0
202701,note_on,0,0,1,,,,,,,,,0,,69,0
202752,note_on,51,0,2,,,,,,,,,1,,69,68
202983,note_on,231,0,2,,,,,,,,,1,,69,0
203008,note_on,25,0,2,,,,,,,,,1,,69,75
203008,note_on,307,0,3,,,,,,,,,2,,60,64
203008,note_on,307,0,4,,,,,,,,,3,,54,60
203106,note_on,0,0,2,,,,,,,,,1,,75,106
203106,note_on,98,0,2,,,,,,,,,1,,69,0
203123,note_on,115,0,3,,,,,,,,,2,,60,0
203164,note_on,58,0,2,,,,,,,,,1,,75,0
203264,note_on,141,0,3,,,,,,,,,2,,57,63
203264,note_on,100,0,2,,,,,,,,,1,,74,68
203379,note_on,115,0,3,,,,,,,,,2,,57,0
203379,note_on,115,0,2,,,,,,,,,1,,74,0
203520,note_on,141,0,3,,,,,,,,,2,,62,102
203520,note_on,141,0,2,,,,,,,,,1,,72,66
203635,note_on,115,0,2,,,,,,,,,1,,72,0
203700,note_on,692,0,4,,,,,,,,,3,,54,0
203776,note_on,141,0,2,,,,,,,,,1,,72,71
203776,note_on,76,0,4,,,,,,,,,3,,55,71
203879,note_on,103,0,2,,,,,,,,,1,,72,0
203879,note_on,0,0,2,,,,,,,,,1,,70,91
203891,note_on,115,0,4,,,,,,,,,3,,55,0
203935,note_on,56,0,2,,,,,,,,,1,,70,0
204032,note_on,141,0,4,,,,,,,,,3,,57,72
204032,note_on,97,0,2,,,,,,,,,1,,69,66
204122,note_on,602,0,3,,,,,,,,,2,,62,0
204147,note_on,115,0,2,,,,,,,,,1,,69,0
204147,note_on,115,0,4,,,,,,,,,3,,57,0
204160,note_on,38,0,3,,,,,,,,,2,,62,73
204276,note_on,116,0,3,,,,,,,,,2,,62,0
204288,note_on,141,0,2,,,,,,,,,1,,67,65
204288,note_on,141,0,4,,,,,,,,,3,,58,73
204288,note_on,12,0,3,,,,,,,,,2,,62,71
204403,note_on,115,0,4,,,,,,,,,3,,58,0
204403,note_on,115,0,2,,,,,,,,,1,,67,0
204519,note_on,231,0,3,,,,,,,,,2,,62,0
204544,note_on,141,0,4,,,,,,,,,3,,49,63
204544,note_on,25,0,3,,,,,,,,,2,,55,61
204544,note_on,1843,0,1,,,,,,,,,0,,76,59
204655,note_on,111,0,1,,,,,,,,,0,,76,0
204655,note_on,0,0,1,,,,,,,,,0,,82,109
204659,note_on,115,0,3,,,,,,,,,2,,55,0
204707,note_on,52,0,1,,,,,,,,,0,,82,0
204800,note_on,93,0,1,,,,,,,,,0,,81,68
204800,note_on,141,0,3,,,,,,,,,2,,52,68
204915,note_on,115,0,1,,,,,,,,,0,,81,0
204915,note_on,115,0,3,,,,,,,,,2,,52,0
205056,note_on,141,0,1,,,,,,,,,0,,79,69
205056,note_on,141,0,3,,,,,,,,,2,,57,101
205171,note_on,115,0,1,,,,,,,,,0,,79,0
205236,note_on,692,0,4,,,,,,,,,3,,49,0
205312,note_on,141,0,1,,,,,,,,,0,,79,69
205312,note_on,76,0,4,,,,,,,,,3,,50,71
205406,note_on,0,0,1,,,,,,,,,0,,77,69
205406,note_on,94,0,1,,,,,,,,,0,,79,0
205427,note_on,115,0,4,,,,,,,,,3,,50,0
205466,note_on,60,0,1,,,,,,,,,0,,77,0
205568,note_on,102,0,1,,,,,,,,,0,,76,71
205568,note_on,141,0,4,,,,,,,,,3,,52,73
205658,note_on,602,0,3,,,,,,,,,2,,57,0
205683,note_on,115,0,4,,,,,,,,,3,,52,0
205683,note_on,115,0,1,,,,,,,,,0,,76,0
205696,note_on,38,0,3,,,,,,,,,2,,57,73
205812,note_on,116,0,3,,,,,,,,,2,,57,0
205824,note_on,141,0,4,,,,,,,,,3,,53,70
205824,note_on,141,0,1,,,,,,,,,0,,74,68
205824,note_on,12,0,3,,,,,,,,,2,,57,71
205939,note_on,115,0,4,,,,,,,,,3,,53,0
205939,note_on,115,0,1,,,,,,,,,0,,74,0
206055,note_on,231,0,3,,,,,,,,,2,,57,0
206080,note_on,25,0,3,,,,,,,,,2,,62,81
206080,note_on,1677,0,2,,,,,,,,,1,,62,60
206080,note_on,141,0,4,,,,,,,,,3,,50,67
206080,note_on,141,0,1,,,,,,,,,0,,62,49
206148,note_on,68,0,2,,,,,,,,,1,,62,0
206148,note_on,0,0,2,,,,,,,,,1,,67,104
206157,note_on,77,0,4,,,,,,,,,3,,50,0
206157,note_on,0,0,4,,,,,,,,,3,,55,97
206157,note_on,77,0,3,,,,,,,,,2,,62,0
206157,note_on,0,0,3,,,,,,,,,2,,67,111
206166,note_on,86,0,1,,,,,,,,,0,,62,0
206166,note_on,0,0,1,,,,,,,,,0,,67,103
206220,note_on,72,0,2,,,,,,,,,1,,67,0
206224,note_on,67,0,4,,,,,,,,,3,,55,0
206224,note_on,67,0,3,,,,,,,,,2,,67,0
206230,note_on,64,0,1,,,,,,,,,0,,67,0
206336,note_on,106,0,1,,,,,,,,,0,,65,68
206336,note_on,116,0,2,,,,,,,,,1,,65,68
206336,note_on,112,0,4,,,,,,,,,3,,53,64
206336,note_on,112,0,3,,,,,,,,,2,,65,68
206451,note_on,115,0,4,,,,,,,,,3,,53,0
206451,note_on,115,0,1,,,,,,,,,0,,65,0
206451,note_on,115,0,3,,,,,,,,,2,,65,0
206451,note_on,115,0,2,,,,,,,,,1,,65,0
206592,note_on,141,0,1,,,,,,,,,0,,64,68
206592,note_on,141,0,4,,,,,,,,,3,,52,72
206592,note_on,141,0,3,,,,,,,,,2,,64,68
206592,note_on,141,0,2,,,,,,,,,1,,64,67
206707,note_on,115,0,3,,,,,,,,,2,,64,0
206707,note_on,115,0,1,,,,,,,,,0,,64,0
206707,note_on,115,0,4,,,,,,,,,3,,52,0
206707,note_on,115,0,2,,,,,,,,,1,,64,0
206848,note_on,141,0,3,,,,,,,,,2,,64,75
206848,note_on,141,0,1,,,,,,,,,0,,64,70
206848,note_on,141,0,4,,,,,,,,,3,,52,72
206848,note_on,141,0,2,,,,,,,,,1,,64,70
206912,note_on,0,0,1,,,,,,,,,0,,62,95
206912,note_on,64,0,4,,,,,,,,,3,,52,0
206912,note_on,64,0,1,,,,,,,,,0,,64,0
206912,note_on,0,0,4,,,,,,,,,3,,50,91
206916,note_on,68,0,3,,,,,,,,,2,,64,0
206916,note_on,68,0,2,,,,,,,,,1,,64,0
206916,note_on,0,0,2,,,,,,,,,1,,62,94
206916,note_on,0,0,3,,,,,,,,,2,,62,94
206985,note_on,73,0,4,,,,,,,,,3,,50,0
206985,note_on,73,0,1,,,,,,,,,0,,62,0
206988,note_on,72,0,2,,,,,,,,,1,,62,0
206988,note_on,72,0,3,,,,,,,,,2,,62,0
207104,note_on,119,0,1,,,,,,,,,0,,60,66
207104,note_on,116,0,2,,,,,,,,,1,,60,70
207104,note_on,119,0,4,,,,,,,,,3,,48,68
207104,note_on,116,0,3,,,,,,,,,2,,60,64
207219,note_on,115,0,4,,,,,,,,,3,,48,0
207219,note_on,115,0,1,,,,,,,,,0,,60,0
207219,note_on,115,0,3,,,,,,,,,2,,60,0
207219,note_on,115,0,2,,,,,,,,,1,,60,0
207360,note_on,141,0,2,,,,,,,,,1,,58,65
207360,note_on,141,0,1,,,,,,,,,0,,58,72
207360,note_on,141,0,3,,,,,,,,,2,,58,62
207360,note_on,141,0,4,,,,,,,,,3,,46,67
207475,note_on,115,0,3,,,,,,,,,2,,58,0
207475,note_on,115,0,1,,,,,,,,,0,,58,0
207475,note_on,115,0,4,,,,,,,,,3,,46,0
207475,note_on,115,0,2,,,,,,,,,1,,58,0
207616,note_on,141,0,4,,,,,,,,,3,,45,91
207616,note_on,0,0,1,,,,,,,,,0,,65,111
207616,note_on,141,0,1,,,,,,,,,0,,57,111
207616,note_on,141,0,2,,,,,,,,,1,,62,101
207616,note_on,141,0,3,,,,,,,,,2,,53,95
207616,note_on,0,0,3,,,,,,,,,2,,57,95
208308,note_on,692,0,1,,,,,,,,,0,,57,0
208308,note_on,0,0,1,,,,,,,,,0,,65,0
208308,note_on,0,0,3,,,,,,,,,2,,57,0
208308,note_on,692,0,2,,,,,,,,,1,,62,0
208308,note_on,692,0,4,,,,,,,,,3,,45,0
208308,note_on,692,0,3,,,,,,,,,2,,53,0
208384,note_on,76,0,3,,,,,,,,,2,,57,99
208384,note_on,76,0,2,,,,,,,,,1,,61,93
208384,note_on,0,0,1,,,,,,,,,0,,64,99
208384,note_on,76,0,4,,,,,,,,,3,,45,90
208384,note_on,76,0,1,,,,,,,,,0,,57,99
209076,note_on,692,0,3,,,,,,,,,2,,57,0
209076,note_on,692,0,1,,,,,,,,,0,,57,0
209076,note_on,0,0,1,,,,,,,,,0,,64,0
209076,note_on,692,0,2,,,,,,,,,1,,61,0
209076,note_on,692,0,4,,,,,,,,,3,,45,0
209152,note_on,76,0,4,,,,,,,,,3,,50,97
209152,note_on,76,0,2,,,,,,,,,1,,57,93
209152,note_on,76,0,3,,,,,,,,,2,,53,92
209152,note_on,76,0,1,,,,,,,,,0,,62,91
209613,note_on,461,0,2,,,,,,,,,1,,57,0
209613,note_on,461,0,4,,,,,,,,,3,,50,0
209613,note_on,461,0,1,,,,,,,,,0,,62,0
209613,note_on,461,0,3,,,,,,,,,2,,53,0
209664,note_on,51,0,2,,,,,,,,,1,,74,110
209664,note_on,51,0,1,,,,,,,,,0,,86,112
209920,note_on,0,0,3,,,,,,,,,2,,62,94
209920,note_on,0,0,4,,,,,,,,,3,,58,105
209920,note_on,307,0,4,,,,,,,,,3,,50,105
209920,note_on,307,0,3,,,,,,,,,2,,55,94
210151,note_on,487,0,1,,,,,,,,,0,,86,0
210151,note_on,487,0,2,,,,,,,,,1,,74,0
210176,note_on,25,0,2,,,,,,,,,1,,70,80
210176,note_on,25,0,1,,,,,,,,,0,,82,75
210291,note_on,115,0,2,,,,,,,,,1,,70,0
210291,note_on,115,0,1,,,,,,,,,0,,82,0
210432,note_on,141,0,1,,,,,,,,,0,,84,88
210432,note_on,141,0,2,,,,,,,,,1,,72,92
210547,note_on,115,0,2,,,,,,,,,1,,72,0
210547,note_on,115,0,1,,,,,,,,,0,,84,0
210612,note_on,692,0,4,,,,,,,,,3,,50,0
210612,note_on,0,0,4,,,,,,,,,3,,58,0
210612,note_on,692,0,3,,,,,,,,,2,,55,0
210612,note_on,0,0,3,,,,,,,,,2,,62,0
210688,note_on,0,0,4,,,,,,,,,3,,57,108
210688,note_on,141,0,2,,,,,,,,,1,,74,85
210688,note_on,76,0,4,,,,,,,,,3,,50,108
210688,note_on,141,0,1,,,,,,,,,0,,86,91
210688,note_on,76,0,3,,,,,,,,,2,,53,108
210688,note_on,0,0,3,,,,,,,,,2,,62,108
211034,note_on,346,0,2,,,,,,,,,1,,74,0
211034,note_on,346,0,1,,,,,,,,,0,,86,0
211072,note_on,38,0,1,,,,,,,,,0,,86,82
211072,note_on,38,0,2,,,,,,,,,1,,74,86
211188,note_on,116,0,2,,,,,,,,,1,,74,0
211188,note_on,116,0,1,,,,,,,,,0,,86,0
211200,note_on,12,0,1,,,,,,,,,0,,86,105
211200,note_on,12,0,2,,,,,,,,,1,,74,106
211380,note_on,0,0,3,,,,,,,,,2,,62,0
211380,note_on,0,0,4,,,,,,,,,3,,57,0
211380,note_on,692,0,4,,,,,,,,,3,,50,0
211380,note_on,692,0,3,,,,,,,,,2,,53,0
211456,note_on,76,0,3,,,,,,,,,2,,55,108
211456,note_on,76,0,4,,,,,,,,,3,,50,110
211456,note_on,0,0,3,,,,,,,,,2,,62,108
211456,note_on,0,0,4,,,,,,,,,3,,58,110
211687,note_on,487,0,1,,,,,,,,,0,,86,0
211687,note_on,487,0,2,,,,,,,,,1,,74,0
211712,note_on,25,0,1,,,,,,,,,0,,82,75
211712,note_on,25,0,2,,,,,,,,,1,,70,71
211827,note_on,115,0,1,,,,,,,,,0,,82,0
211827,note_on,115,0,2,,,,,,,,,1,,70,0
211968,note_on,141,0,1,,,,,,,,,0,,84,87
211968,note_on,141,0,2,,,,,,,,,1,,72,88
212083,note_on,115,0,2,,,,,,,,,1,,72,0
212083,note_on,115,0,1,,,,,,,,,0,,84,0
212148,note_on,692,0,4,,,,,,,,,3,,50,0
212148,note_on,0,0,4,,,,,,,,,3,,58,0
212148,note_on,692,0,3,,,,,,,,,2,,55,0
212148,note_on,0,0,3,,,,,,,,,2,,62,0
212224,note_on,141,0,2,,,,,,,,,1,,74,110
212224,note_on,76,0,4,,,,,,,,,3,,50,109
212224,note_on,0,0,3,,,,,,,,,2,,62,111
212224,note_on,0,0,4,,,,,,,,,3,,57,109
212224,note_on,141,0,1,,,,,,,,,0,,86,113
212224,note_on,76,0,3,,,,,,,,,2,,53,111
212685,note_on,461,0,3,,,,,,,,,2,,53,0
212685,note_on,0,0,3,,,,,,,,,2,,62,0
212685,note_on,461,0,1,,,,,,,,,0,,86,0
212685,note_on,461,0,2,,,,,,,,,1,,74,0
212685,note_on,461,0,4,,,,,,,,,3,,50,0
212685,note_on,0,0,4,,,,,,,,,3,,57,0
212736,note_on,51,0,3,,,,,,,,,2,,58,107
212736,note_on,51,0,4,,,,,,,,,3,,46,100
212992,note_on,307,0,1,,,,,,,,,0,,70,99
212992,note_on,0,0,1,,,,,,,,,0,,79,99
212992,note_on,0,0,2,,,,,,,,,1,,75,101
212992,note_on,307,0,2,,,,,,,,,1,,67,101
213223,note_on,487,0,4,,,,,,,,,3,,46,0
213223,note_on,487,0,3,,,,,,,,,2,,58,0
213248,note_on,25,0,3,,,,,,,,,2,,55,81
213248,note_on,25,0,4,,,,,,,,,3,,43,83
213363,note_on,115,0,4,,,,,,,,,3,,43,0
213363,note_on,115,0,3,,,,,,,,,2,,55,0
213504,note_on,141,0,4,,,,,,,,,3,,45,85
213504,note_on,141,0,3,,,,,,,,,2,,57,86
213619,note_on,115,0,4,,,,,,,,,3,,45,0
213619,note_on,115,0,3,,,,,,,,,2,,57,0
213684,note_on,692,0,1,,,,,,,,,0,,70,0
213684,note_on,692,0,2,,,,,,,,,1,,67,0
213684,note_on,0,0,1,,,,,,,,,0,,79,0
213684,note_on,0,0,2,,,,,,,,,1,,75,0
213760,note_on,0,0,2,,,,,,,,,1,,74,101
213760,note_on,141,0,3,,,,,,,,,2,,58,90
213760,note_on,0,0,1,,,,,,,,,0,,77,106
213760,note_on,141,0,4,,,,,,,,,3,,46,80
213760,note_on,76,0,2,,,,,,,,,1,,65,101
213760,note_on,76,0,1,,,,,,,,,0,,70,106
214106,note_on,346,0,4,,,,,,,,,3,,46,0
214106,note_on,346,0,3,,,,,,,,,2,,58,0
214144,note_on,38,0,4,,,,,,,,,3,,46,84
214144,note_on,38,0,3,,,,,,,,,2,,58,79
214260,note_on,116,0,4,,,,,,,,,3,,46,0
214260,note_on,116,0,3,,,,,,,,,2,,58,0
214272,note_on,12,0,4,,,,,,,,,3,,46,108
214272,note_on,12,0,3,,,,,,,,,2,,58,108
214452,note_on,0,0,1,,,,,,,,,0,,77,0
214452,note_on,692,0,2,,,,,,,,,1,,65,0
214452,note_on,0,0,2,,,,,,,,,1,,74,0
214452,note_on,692,0,1,,,,,,,,,0,,70,0
214528,note_on,0,0,1,,,,,,,,,0,,79,115
214528,note_on,76,0,1,,,,,,,,,0,,70,115
214528,note_on,76,0,2,,,,,,,,,1,,67,110
214528,note_on,0,0,2,,,,,,,,,1,,75,110
214759,note_on,487,0,4,,,,,,,,,3,,46,0
214759,note_on,487,0,3,,,,,,,,,2,,58,0
214784,note_on,25,0,3,,,,,,,,,2,,55,81
214784,note_on,25,0,4,,,,,,,,,3,,43,84
214899,note_on,115,0,3,,,,,,,,,2,,55,0
214899,note_on,115,0,4,,,,,,,,,3,,43,0
215040,note_on,141,0,3,,,,,,,,,2,,57,87
215040,note_on,141,0,4,,,,,,,,,3,,45,85
215155,note_on,115,0,3,,,,,,,,,2,,57,0
215155,note_on,115,0,4,,,,,,,,,3,,45,0
215220,note_on,692,0,2,,,,,,,,,1,,67,0
215220,note_on,0,0,2,,,,,,,,,1,,75,0
215220,note_on,692,0,1,,,,,,,,,0,,70,0
215220,note_on,0,0,1,,,,,,,,,0,,79,0
215296,note_on,76,0,1,,,,,,,,,0,,70,78
215296,note_on,0,0,1,,,,,,,,,0,,77,78
215296,note_on,141,0,4,,,,,,,,,3,,46,89
215296,note_on,76,0,2,,,,,,,,,1,,65,83
215296,note_on,141,0,3,,,,,,,,,2,,58,85
215296,note_on,0,0,2,,,,,,,,,1,,74,83
215411,note_on,0,0,2,,,,,,,,,1,,74,0
215411,note_on,115,0,3,,,,,,,,,2,,58,0
215411,note_on,0,0,1,,,,,,,,,0,,77,0
215411,note_on,115,0,1,,,,,,,,,0,,70,0
215411,note_on,115,0,2,,,,,,,,,1,,65,0
215411,note_on,115,0,4,,,,,,,,,3,,46,0
215552,note_on,141,0,1,,,,,,,,,0,,76,66
215552,note_on,141,0,4,,,,,,,,,3,,58,78
215552,note_on,141,0,2,,,,,,,,,1,,73,62
215552,note_on,141,0,3,,,,,,,,,2,,67,85
215667,note_on,115,0,1,,,,,,,,,0,,76,0
215667,note_on,115,0,3,,,,,,,,,2,,67,0
215667,note_on,115,0,2,,,,,,,,,1,,73,0
215667,note_on,115,0,4,,,,,,,,,3,,58,0
215808,note_on,141,0,1,,,,,,,,,0,,77,72
215808,note_on,141,0,3,,,,,,,,,2,,68,80
215808,note_on,141,0,2,,,,,,,,,1,,74,76
215808,note_on,141,0,4,,,,,,,,,3,,58,71
215923,note_on,115,0,1,,,,,,,,,0,,77,0
215923,note_on,115,0,4,,,,,,,,,3,,58,0
215923,note_on,115,0,2,,,,,,,,,1,,74,0
215923,note_on,115,0,3,,,,,,,,,2,,68,0
216064,note_on,141,0,4,,,,,,,,,3,,58,68
216064,note_on,141,0,3,,,,,,,,,2,,67,67
216064,note_on,141,0,1,,,,,,,,,0,,76,70
216064,note_on,141,0,2,,,,,,,,,1,,73,68
216179,note_on,115,0,3,,,,,,,,,2,,67,0
216179,note_on,115,0,1,,,,,,,,,0,,76,0
216179,note_on,115,0,4,,,,,,,,,3,,58,0
216179,note_on,115,0,2,,,,,,,,,1,,73,0
216320,note_on,141,0,2,,,,,,,,,1,,74,73
216320,note_on,141,0,1,,,,,,,,,0,,77,76
216320,note_on,141,0,4,,,,,,,,,3,,58,69
216320,note_on,141,0,3,,,,,,,,,2,,68,72
216435,note_on,115,0,2,,,,,,,,,1,,74,0
216435,note_on,115,0,4,,,,,,,,,3,,58,0
216435,note_on,115,0,1,,,,,,,,,0,,77,0
216435,note_on,115,0,3,,,,,,,,,2,,68,0
216576,note_on,141,0,1,,,,,,,,,0,,74,60
216576,note_on,141,0,2,,,,,,,,,1,,65,54
216576,note_on,141,0,4,,,,,,,,,3,,58,68
216576,note_on,141,0,3,,,,,,,,,2,,68,74
216691,note_on,115,0,4,,,,,,,,,3,,58,0
216691,note_on,115,0,1,,,,,,,,,0,,74,0
216691,note_on,115,0,2,,,,,,,,,1,,65,0
216691,note_on,115,0,3,,,,,,,,,2,,68,0
216832,note_on,141,0,4,,,,,,,,,3,,57,71
216832,note_on,141,0,1,,,,,,,,,0,,77,71
216832,note_on,141,0,3,,,,,,,,,2,,69,71
216832,note_on,141,0,2,,,,,,,,,1,,74,71
216947,note_on,115,0,3,,,,,,,,,2,,69,0
216947,note_on,115,0,2,,,,,,,,,1,,74,0
216947,note_on,115,0,4,,,,,,,,,3,,57,0
216947,note_on,115,0,1,,,,,,,,,0,,77,0
217088,note_on,141,0,1,,,,,,,,,0,,81,83
217088,note_on,141,0,2,,,,,,,,,1,,77,83
217088,note_on,141,0,3,,,,,,,,,2,,74,83
217088,note_on,141,0,4,,,,,,,,,3,,45,83
217203,note_on,115,0,4,,,,,,,,,3,,45,0
217203,note_on,115,0,2,,,,,,,,,1,,77,0
217203,note_on,115,0,1,,,,,,,,,0,,81,0
217203,note_on,115,0,3,,,,,,,,,2,,74,0
217344,note_on,141,0,4,,,,,,,,,3,,45,96
217344,note_on,141,0,3,,,,,,,,,2,,76,96
217344,note_on,141,0,2,,,,,,,,,1,,79,96
217344,note_on,141,0,1,,,,,,,,,0,,85,96
217459,note_on,115,0,1,,,,,,,,,0,,85,0
217459,note_on,115,0,3,,,,,,,,,2,,76,0
217459,note_on,115,0,4,,,,,,,,,3,,45,0
217459,note_on,115,0,2,,,,,,,,,1,,79,0
217600,note_on,141,0,3,,,,,,,,,2,,74,93
217600,note_on,141,0,4,,,,,,,,,3,,50,104
217600,note_on,141,0,1,,,,,,,,,0,,86,104
217600,note_on,141,0,2,,,,,,,,,1,,77,92
217831,note_on,231,0,3,,,,,,,,,2,,74,0
217831,note_on,231,0,4,,,,,,,,,3,,50,0
217831,note_on,231,0,1,,,,,,,,,0,,86,0
217831,note_on,231,0,2,,,,,,,,,1,,77,0
218112,note_on,281,0,2,,,,,,,,,1,,74,90
218112,note_on,281,0,1,,,,,,,,,0,,77,92
218368,note_on,537,0,3,,,,,,,,,2,,67,94
218368,note_on,537,0,4,,,,,,,,,3,,62,86
218368,note_on,0,0,3,,,,,,,,,2,,70,94
218599,note_on,487,0,1,,,,,,,,,0,,77,0
218599,note_on,487,0,2,,,,,,,,,1,,74,0
218624,note_on,25,0,1,,,,,,,,,0,,74,83
218624,note_on,25,0,2,,,,,,,,,1,,70,75
218739,note_on,115,0,2,,,,,,,,,1,,70,0
218739,note_on,115,0,1,,,,,,,,,0,,74,0
218880,note_on,141,0,2,,,,,,,,,1,,73,89
218880,note_on,141,0,1,,,,,,,,,0,,76,86
218995,note_on,115,0,2,,,,,,,,,1,,73,0
218995,note_on,115,0,1,,,,,,,,,0,,76,0
219060,note_on,692,0,4,,,,,,,,,3,,62,0
219060,note_on,692,0,3,,,,,,,,,2,,67,0
219060,note_on,0,0,3,,,,,,,,,2,,70,0
219136,note_on,0,0,3,,,,,,,,,2,,69,88
219136,note_on,76,0,4,,,,,,,,,3,,62,94
219136,note_on,76,0,3,,,,,,,,,2,,65,88
219136,note_on,141,0,2,,,,,,,,,1,,74,85
219136,note_on,141,0,1,,,,,,,,,0,,77,89
219482,note_on,346,0,1,,,,,,,,,0,,77,0
219482,note_on,346,0,2,,,,,,,,,1,,74,0
219520,note_on,38,0,2,,,,,,,,,1,,74,87
219520,note_on,38,0,1,,,,,,,,,0,,77,89
219636,note_on,116,0,2,,,,,,,,,1,,74,0
219636,note_on,116,0,1,,,,,,,,,0,,77,0
219648,note_on,12,0,1,,,,,,,,,0,,77,109
219648,note_on,12,0,2,,,,,,,,,1,,74,108
219828,note_on,692,0,3,,,,,,,,,2,,65,0
219828,note_on,692,0,4,,,,,,,,,3,,62,0
219828,note_on,0,0,3,,,,,,,,,2,,69,0
219904,note_on,76,0,4,,,,,,,,,3,,62,89
219904,note_on,76,0,3,,,,,,,,,2,,67,99
219904,note_on,0,0,3,,,,,,,,,2,,70,99
220135,note_on,487,0,2,,,,,,,,,1,,74,0
220135,note_on,487,0,1,,,,,,,,,0,,77,0
220160,note_on,25,0,2,,,,,,,,,1,,70,73
220160,note_on,25,0,1,,,,,,,,,0,,74,71
220275,note_on,115,0,2,,,,,,,,,1,,70,0
220275,note_on,115,0,1,,,,,,,,,0,,74,0
220416,note_on,141,0,2,,,,,,,,,1,,73,88
220416,note_on,141,0,1,,,,,,,,,0,,76,84
220531,note_on,115,0,2,,,,,,,,,1,,73,0
220531,note_on,115,0,1,,,,,,,,,0,,76,0
220596,note_on,692,0,3,,,,,,,,,2,,67,0
220596,note_on,0,0,3,,,,,,,,,2,,70,0
220596,note_on,692,0,4,,,,,,,,,3,,62,0
220672,note_on,76,0,3,,,,,,,,,2,,65,90
220672,note_on,0,0,3,,,,,,,,,2,,69,90
220672,note_on,76,0,4,,,,,,,,,3,,62,96
220672,note_on,141,0,2,,,,,,,,,1,,74,86
220672,note_on,141,0,1,,,,,,,,,0,,77,86
221133,note_on,461,0,1,,,,,,,,,0,,77,0
221133,note_on,0,0,3,,,,,,,,,2,,69,0
221133,note_on,461,0,3,,,,,,,,,2,,65,0
221133,note_on,461,0,4,,,,,,,,,3,,62,0
221133,note_on,461,0,2,,,,,,,,,1,,74,0
221184,note_on,51,0,3,,,,,,,,,2,,62,96
221184,note_on,51,0,4,,,,,,,,,3,,58,103
221440,note_on,307,0,2,,,,,,,,,1,,70,100
221440,note_on,307,0,1,,,,,,,,,0,,79,101
221671,note_on,487,0,3,,,,,,,,,2,,62,0
221671,note_on,487,0,4,,,,,,,,,3,,58,0
221696,note_on,25,0,3,,,,,,,,,2,,63,86
221696,note_on,25,0,4,,,,,,,,,3,,55,82
221811,note_on,115,0,4,,,,,,,,,3,,55,0
221811,note_on,115,0,3,,,,,,,,,2,,63,0
221952,note_on,141,0,4,,,,,,,,,3,,57,91
221952,note_on,141,0,3,,,,,,,,,2,,61,80
222067,note_on,115,0,4,,,,,,,,,3,,57,0
222067,note_on,115,0,3,,,,,,,,,2,,61,0
222132,note_on,692,0,2,,,,,,,,,1,,70,0
222132,note_on,692,0,1,,,,,,,,,0,,79,0
222208,note_on,141,0,4,,,,,,,,,3,,58,89
222208,note_on,76,0,2,,,,,,,,,1,,70,108
222208,note_on,76,0,1,,,,,,,,,0,,77,103
222208,note_on,141,0,3,,,,,,,,,2,,62,85
222554,note_on,346,0,3,,,,,,,,,2,,62,0
222554,note_on,346,0,4,,,,,,,,,3,,58,0
222592,note_on,38,0,4,,,,,,,,,3,,58,82
222592,note_on,38,0,3,,,,,,,,,2,,62,81
222708,note_on,116,0,3,,,,,,,,,2,,62,0
222708,note_on,116,0,4,,,,,,,,,3,,58,0
222720,note_on,12,0,4,,,,,,,,,3,,58,108
222720,note_on,12,0,3,,,,,,,,,2,,62,105
222900,note_on,692,0,1,,,,,,,,,0,,77,0
222900,note_on,692,0,2,,,,,,,,,1,,70,0
222976,note_on,76,0,1,,,,,,,,,0,,79,118
222976,note_on,76,0,2,,,,,,,,,1,,70,111
223207,note_on,487,0,4,,,,,,,,,3,,58,0
223207,note_on,487,0,3,,,,,,,,,2,,62,0
223232,note_on,25,0,3,,,,,,,,,2,,63,86
223232,note_on,25,0,4,,,,,,,,,3,,55,81
223347,note_on,115,0,4,,,,,,,,,3,,55,0
223347,note_on,115,0,3,,,,,,,,,2,,63,0
223488,note_on,141,0,4,,,,,,,,,3,,57,84
223488,note_on,141,0,3,,,,,,,,,2,,61,74
223603,note_on,115,0,3,,,,,,,,,2,,61,0
223603,note_on,115,0,4,,,,,,,,,3,,57,0
223668,note_on,692,0,1,,,,,,,,,0,,79,0
223668,note_on,692,0,2,,,,,,,,,1,,70,0
223744,note_on,141,0,3,,,,,,,,,2,,62,86
223744,note_on,141,0,4,,,,,,,,,3,,58,83
223744,note_on,76,0,2,,,,,,,,,1,,70,111
223744,note_on,76,0,1,,,,,,,,,0,,77,104
224090,note_on,346,0,3,,,,,,,,,2,,62,0
224090,note_on,346,0,4,,,,,,,,,3,,58,0
224128,note_on,38,0,3,,,,,,,,,2,,62,82
224128,note_on,38,0,4,,,,,,,,,3,,58,79
224244,note_on,116,0,4,,,,,,,,,3,,58,0
224244,note_on,116,0,3,,,,,,,,,2,,62,0
224256,note_on,12,0,3,,,,,,,,,2,,62,83
224256,note_on,12,0,4,,,,,,,,,3,,58,85
224436,note_on,692,0,2,,,,,,,,,1,,70,0
224436,note_on,692,0,1,,,,,,,,,0,,77,0
224487,note_on,231,0,3,,,,,,,,,2,,62,0
224487,note_on,231,0,4,,,,,,,,,3,,58,0
224512,note_on,76,0,1,,,,,,,,,0,,76,83
224512,note_on,76,0,2,,,,,,,,,1,,73,83
224512,note_on,25,0,4,,,,,,,,,3,,58,83
224512,note_on,25,0,3,,,,,,,,,2,,67,83
224627,note_on,115,0,4,,,,,,,,,3,,58,0
224627,note_on,115,0,3,,,,,,,,,2,,67,0
224627,note_on,115,0,2,,,,,,,,,1,,73,0
224627,note_on,115,0,1,,,,,,,,,0,,76,0
224768,note_on,141,0,4,,,,,,,,,3,,58,88
224768,note_on,141,0,2,,,,,,,,,1,,74,88
224768,note_on,141,0,1,,,,,,,,,0,,77,88
224768,note_on,141,0,3,,,,,,,,,2,,68,88
224883,note_on,115,0,4,,,,,,,,,3,,58,0
224883,note_on,115,0,3,,,,,,,,,2,,68,0
224883,note_on,115,0,1,,,,,,,,,0,,77,0
224883,note_on,115,0,2,,,,,,,,,1,,74,0
225024,note_on,141,0,4,,,,,,,,,3,,58,93
225024,note_on,141,0,2,,,,,,,,,1,,73,93
225024,note_on,141,0,3,,,,,,,,,2,,67,93
225024,note_on,141,0,1,,,,,,,,,0,,76,93
225139,note_on,115,0,4,,,,,,,,,3,,58,0
225139,note_on,115,0,2,,,,,,,,,1,,73,0
225139,note_on,115,0,3,,,,,,,,,2,,67,0
225139,note_on,115,0,1,,,,,,,,,0,,76,0
225280,note_on,141,0,4,,,,,,,,,3,,58,98
225280,note_on,141,0,2,,,,,,,,,1,,74,99
225280,note_on,141,0,3,,,,,,,,,2,,68,99
225280,note_on,141,0,1,,,,,,,,,0,,77,99
225395,note_on,115,0,4,,,,,,,,,3,,58,0
225395,note_on,115,0,2,,,,,,,,,1,,74,0
225395,note_on,115,0,3,,,,,,,,,2,,68,0
225395,note_on,115,0,1,,,,,,,,,0,,77,0
225536,note_on,141,0,4,,,,,,,,,3,,58,102
225536,note_on,141,0,3,,,,,,,,,2,,67,104
225536,note_on,141,0,1,,,,,,,,,0,,76,104
225536,note_on,141,0,2,,,,,,,,,1,,73,104
225651,note_on,115,0,4,,,,,,,,,3,,58,0
225651,note_on,115,0,1,,,,,,,,,0,,76,0
225651,note_on,115,0,3,,,,,,,,,2,,67,0
225651,note_on,115,0,2,,,,,,,,,1,,73,0
225792,note_on,141,0,2,,,,,,,,,1,,74,109
225792,note_on,141,0,4,,,,,,,,,3,,58,107
225792,note_on,141,0,1,,,,,,,,,0,,77,109
225792,note_on,141,0,3,,,,,,,,,2,,68,109
225907,note_on,115,0,3,,,,,,,,,2,,68,0
225907,note_on,115,0,2,,,,,,,,,1,,74,0
225907,note_on,115,0,1,,,,,,,,,0,,77,0
225907,note_on,115,0,4,,,,,,,,,3,,58,0
226048,note_on,141,0,1,,,,,,,,,0,,77,110
226048,note_on,141,0,2,,,,,,,,,1,,74,118
226048,note_on,141,0,4,,,,,,,,,3,,57,108
226048,note_on,141,0,3,,,,,,,,,2,,69,118
226163,note_on,115,0,3,,,,,,,,,2,,69,0
226163,note_on,115,0,1,,,,,,,,,0,,77,0
226163,note_on,115,0,2,,,,,,,,,1,,74,0
226163,note_on,115,0,4,,,,,,,,,3,,57,0
226304,note_on,141,0,2,,,,,,,,,1,,69,117
226304,note_on,141,0,3,,,,,,,,,2,,74,126
226304,note_on,141,0,4,,,,,,,,,3,,45,105
226304,note_on,0,0,2,,,,,,,,,1,,77,117
226304,note_on,141,0,1,,,,,,,,,0,,81,126
226419,note_on,0,0,2,,,,,,,,,1,,77,0
226419,note_on,115,0,2,,,,,,,,,1,,69,0
226419,note_on,115,0,1,,,,,,,,,0,,81,0
226419,note_on,115,0,3,,,,,,,,,2,,74,0
226419,note_on,115,0,4,,,,,,,,,3,,45,0
226560,note_on,141,0,2,,,,,,,,,1,,69,123
226560,note_on,141,0,1,,,,,,,,,0,,85,126
226560,note_on,141,0,3,,,,,,,,,2,,76,125
226560,note_on,141,0,4,,,,,,,,,3,,45,106
226560,note_on,0,0,2,,,,,,,,,1,,79,123
226675,note_on,115,0,3,,,,,,,,,2,,76,0
226675,note_on,115,0,4,,,,,,,,,3,,45,0
226675,note_on,115,0,1,,,,,,,,,0,,85,0
226675,note_on,0,0,2,,,,,,,,,1,,79,0
226675,note_on,115,0,2,,,,,,,,,1,,69,0
226816,note_on,141,0,4,,,,,,,,,3,,38,102
226816,note_on,0,0,2,,,,,,,,,1,,77,111
226816,note_on,141,0,3,,,,,,,,,2,,74,104
226816,note_on,141,0,2,,,,,,,,,1,,69,111
226816,note_on,141,0,1,,,,,,,,,0,,86,121
226931,note_on,115,0,3,,,,,,,,,2,,74,0
226931,note_on,115,0,1,,,,,,,,,0,,86,0
226931,note_on,115,0,2,,,,,,,,,1,,69,0
226931,note_on,0,0,2,,,,,,,,,1,,77,0
226931,note_on,115,0,4,,,,,,,,,3,,38,0
227072,note_on,141,0,2,,,,,,,,,1,,57,99
227072,note_on,141,0,4,,,,,,,,,3,,45,115
227072,note_on,141,0,1,,,,,,,,,0,,57,97
227072,note_on,141,0,3,,,,,,,,,2,,57,93
227187,note_on,115,0,1,,,,,,,,,0,,57,0
227187,note_on,115,0,4,,,,,,,,,3,,45,0
227187,note_on,115,0,2,,,,,,,,,1,,57,0
227187,note_on,115,0,3,,,,,,,,,2,,57,0
227328,note_on,141,0,3,,,,,,,,,2,,61,122
227328,note_on,141,0,4,,,,,,,,,3,,49,118
227328,note_on,141,0,1,,,,,,,,,0,,61,119
227328,note_on,141,0,2,,,,,,,,,1,,61,122
227443,note_on,115,0,3,,,,,,,,,2,,61,0
227443,note_on,115,0,1,,,,,,,,,0,,61,0
227443,note_on,115,0,2,,,,,,,,,1,,61,0
227443,note_on,115,0,4,,,,,,,,,3,,49,0
227584,note_on,141,0,4,,,,,,,,,3,,50,127
227584,note_on,141,0,2,,,,,,,,,1,,62,127
227584,note_on,141,0,1,,,,,,,,,0,,62,127
227584,note_on,141,0,3,,,,,,,,,2,,62,127
227699,note_on,115,0,4,,,,,,,,,3,,50,0
227699,note_on,115,0,1,,,,,,,,,0,,62,0
227699,note_on,115,0,2,,,,,,,,,1,,62,0
227699,note_on,115,0,3,,,,,,,,,2,,62,0
227840,note_on,141,0,4,,,,,,,,,3,,45,105
227840,note_on,141,0,3,,,,,,,,,2,,57,107
227840,note_on,141,0,1,,,,,,,,,0,,57,106
227840,note_on,141,0,2,,,,,,,,,1,,57,106
227955,note_on,115,0,4,,,,,,,,,3,,45,0
227955,note_on,115,0,1,,,,,,,,,0,,57,0
227955,note_on,115,0,2,,,,,,,,,1,,57,0
227955,note_on,115,0,3,,,,,,,,,2,,57,0
228096,note_on,141,0,3,,,,,,,,,2,,61,123
228096,note_on,141,0,4,,,,,,,,,3,,49,117
228096,note_on,141,0,1,,,,,,,,,0,,61,123
228096,note_on,141,0,2,,,,,,,,,1,,61,124
228211,note_on,115,0,3,,,,,,,,,2,,61,0
228211,note_on,115,0,1,,,,,,,,,0,,61,0
228211,note_on,115,0,2,,,,,,,,,1,,61,0
228211,note_on,115,0,4,,,,,,,,,3,,49,0
228352,note_on,141,0,4,,,,,,,,,3,,50,127
228352,note_on,141,0,2,,,,,,,,,1,,62,127
228352,note_on,141,0,3,,,,,,,,,2,,62,127
228352,note_on,141,0,1,,,,,,,,,0,,62,127
228467,note_on,115,0,4,,,,,,,,,3,,50,0
228467,note_on,115,0,1,,,,,,,,,0,,62,0
228467,note_on,115,0,3,,,,,,,,,2,,62,0
228467,note_on,115,0,2,,,,,,,,,1,,62,0
228608,note_on,141,0,4,,,,,,,,,3,,45,110
228608,note_on,141,0,1,,,,,,,,,0,,57,109
228608,note_on,141,0,3,,,,,,,,,2,,57,101
228608,note_on,141,0,2,,,,,,,,,1,,57,103
228723,note_on,115,0,4,,,,,,,,,3,,45,0
228723,note_on,115,0,1,,,,,,,,,0,,57,0
228723,note_on,115,0,3,,,,,,,,,2,,57,0
228723,note_on,115,0,2,,,,,,,,,1,,57,0
228864,note_on,141,0,4,,,,,,,,,3,,49,114
228864,note_on,141,0,2,,,,,,,,,1,,61,125
228864,note_on,141,0,1,,,,,,,,,0,,61,119
228864,note_on,141,0,3,,,,,,,,,2,,61,125
228979,note_on,115,0,2,,,,,,,,,1,,61,0
228979,note_on,115,0,1,,,,,,,,,0,,61,0
228979,note_on,115,0,4,,,,,,,,,3,,49,0
228979,note_on,115,0,3,,,,,,,,,2,,61,0
229120,note_on,141,0,2,,,,,,,,,1,,62,127
229120,note_on,0,0,2,,,,,,,,,1,,62,105
229120,note_on,0,0,3,,,,,,,,,2,,62,121
229120,note_on,141,0,1,,,,,,,,,0,,62,127
229120,note_on,0,0,1,,,,,,,,,0,,62,93
229120,note_on,141,0,4,,,,,,,,,3,,50,127
229120,note_on,141,0,3,,,,,,,,,2,,62,127
229466,note_on,346,0,1,,,,,,,,,0,,62,0
229466,note_on,0,0,1,,,,,,,,,0,,62,0
229466,note_on,346,0,2,,,,,,,,,1,,62,0
229466,note_on,346,0,3,,,,,,,,,2,,62,0
229466,note_on,0,0,3,,,,,,,,,2,,62,0
229466,note_on,346,0,4,,,,,,,,,3,,50,0
229466,note_on,0,0,2,,,,,,,,,1,,62,0
229504,note_on,0,0,2,,,,,,,,,1,,62,107
229504,note_on,38,0,2,,,,,,,,,1,,62,114
229504,note_on,0,0,1,,,,,,,,,0,,62,119
229504,note_on,38,0,1,,,,,,,,,0,,62,113
229504,note_on,38,0,3,,,,,,,,,2,,62,117
229504,note_on,0,0,3,,,,,,,,,2,,62,111
229504,note_on,38,0,4,,,,,,,,,3,,50,114
229620,note_on,0,0,2,,,,,,,,,1,,62,0
229620,note_on,116,0,4,,,,,,,,,3,,50,0
229620,note_on,116,0,2,,,,,,,,,1,,62,0
229620,note_on,0,0,1,,,,,,,,,0,,62,0
229620,note_on,116,0,1,,,,,,,,,0,,62,0
229620,note_on,116,0,3,,,,,,,,,2,,62,0
229620,note_on,0,0,3,,,,,,,,,2,,62,0
229632,note_on,12,0,1,,,,,,,,,0,,62,115
229632,note_on,12,0,4,,,,,,,,,3,,50,111
229632,note_on,12,0,2,,,,,,,,,1,,62,111
229632,note_on,0,0,2,,,,,,,,,1,,62,107
229632,note_on,12,0,3,,,,,,,,,2,,62,110
229632,note_on,0,0,1,,,,,,,,,0,,62,126
229632,note_on,0,0,3,,,,,,,,,2,,62,112
229863,note_on,0,0,3,,,,,,,,,2,,62,0
229863,note_on,0,0,1,,,,,,,,,0,,62,0
229863,note_on,231,0,4,,,,,,,,,3,,50,0
229863,note_on,231,0,2,,,,,,,,,1,,62,0
229863,note_on,0,0,2,,,,,,,,,1,,62,0
229863,note_on,231,0,3,,,,,,,,,2,,62,0
229863,note_on,231,0,1,,,,,,,,,0,,62,0
229864,end_of_track,1,1,1,,,,,,,,,,,,
229864,end_of_track,1,1,3,,,,,,,,,,,,
229864,end_of_track,1,1,2,,,,,,,,,,,,
229864,end_of_track,1,1,4,,,,,,,,,,,,
