tick,type,time,meta,track,frame_rate,hours,minutes,seconds,frames,sub_frames,tempo,numerator,denominator,clocks_per_click,notated_32nd_notes_per_beat,key,program,channel,control,value,note,velocity
0,track_name,0,1,0,,,,,,,,,,,,,,,,,,
0,instrument_name,0,1,3,,,,,,,,,,,,,,,,,,
0,program_change,0,0,3,,,,,,,,,,,,,71,2,,,,
0,instrument_name,0,1,4,,,,,,,,,,,,,,,,,,
0,program_change,0,0,4,,,,,,,,,,,,,68,3,,,,
0,instrument_name,0,1,5,,,,,,,,,,,,,,,,,,
0,program_change,0,0,5,,,,,,,,,,,,,65,4,,,,
0,program_change,0,0,2,,,,,,,,,,,,,0,1,,,,
0,program_change,0,0,1,,,,,,,,,,,,,0,0,,,,
0,instrument_name,0,1,1,,,,,,,,,,,,,,,,,,
0,instrument_name,0,1,2,,,,,,,,,,,,,,,,,,
0,smpte_offset,0,1,0,25,32,0,0,0,0,,,,,,,,,,,,
0,key_signature,0,1,0,,,,,,,,,,,,Gm,,,,,,
0,time_signature,0,1,0,,,,,,,,4,4,24,8,,,,,,,
0,set_tempo,0,1,0,,,,,,,394736,,,,,,,,,,,
30,control_change,30,0,2,,,,,,,,,,,,,,1,7,110,,
30,control_change,30,0,1,,,,,,,,,,,,,,0,7,110,,
40,control_change,40,0,3,,,,,,,,,,,,,,2,11,114,,
40,control_change,40,0,4,,,,,,,,,,,,,,3,11,114,,
50,control_change,20,0,2,,,,,,,,,,,,,,1,11,112,,
180,control_change,150,0,1,,,,,,,,,,,,,,0,11,90,,
200,control_change,20,0,1,,,,,,,,,,,,,,0,91,114,,
200,control_change,160,0,3,,,,,,,,,,,,,,2,91,114,,
200,control_change,150,0,2,,,,,,,,,,,,,,1,91,114,,
200,control_change,200,0,5,,,,,,,,,,,,,,4,91,114,,
200,control_change,160,0,4,,,,,,,,,,,,,,3,91,114,,
280,control_change,80,0,5,,,,,,,,,,,,,,4,7,112,,
280,control_change,80,0,3,,,,,,,,,,,,,,2,7,112,,
370,control_change,90,0,5,,,,,,,,,,,,,,4,11,100,,
380,control_change,180,0,4,,,,,,,,,,,,,,3,7,108,,
1920,note_on,0,0,1,,,,,,,,,,,,,,0,,,67,90
1920,note_on,1720,0,1,,,,,,,,,,,,,,0,,,55,90
2060,note_off,0,0,1,,,,,,,,,,,,,,0,,,67,64
2060,note_off,140,0,1,,,,,,,,,,,,,,0,,,55,64
2080,note_on,20,0,1,,,,,,,,,,,,,,0,,,67,90
2080,note_on,0,0,1,,,,,,,,,,,,,,0,,,55,90
2220,note_off,0,0,1,,,,,,,,,,,,,,0,,,55,64
2220,note_off,140,0,1,,,,,,,,,,,,,,0,,,67,64
2240,note_on,0,0,1,,,,,,,,,,,,,,0,,,55,90
2240,note_on,20,0,1,,,,,,,,,,,,,,0,,,67,90
2380,note_off,0,0,1,,,,,,,,,,,,,,0,,,55,64
2380,note_off,140,0,1,,,,,,,,,,,,,,0,,,67,64
2400,note_on,20,0,1,,,,,,,,,,,,,,0,,,55,90
2400,note_on,0,0,1,,,,,,,,,,,,,,0,,,67,90
2540,note_off,140,0,1,,,,,,,,,,,,,,0,,,55,64
2540,note_off,0,0,1,,,,,,,,,,,,,,0,,,67,64
2560,note_on,20,0,1,,,,,,,,,,,,,,0,,,55,90
2560,note_on,0,0,1,,,,,,,,,,,,,,0,,,67,90
2700,note_off,0,0,1,,,,,,,,,,,,,,0,,,67,64
2700,note_off,140,0,1,,,,,,,,,,,,,,0,,,55,64
2720,note_on,0,0,1,,,,,,,,,,,,,,0,,,67,90
2720,note_on,20,0,1,,,,,,,,,,,,,,0,,,55,90
2860,note_off,0,0,1,,,,,,,,,,,,,,0,,,67,64
2860,note_off,140,0,1,,,,,,,,,,,,,,0,,,55,64
2880,note_on,20,0,1,,,,,,,,,,,,,,0,,,55,90
2880,note_on,0,0,1,,,,,,,,,,,,,,0,,,67,90
3020,note_off,140,0,1,,,,,,,,,,,,,,0,,,55,64
3020,note_off,0,0,1,,,,,,,,,,,,,,0,,,67,64
3040,note_on,20,0,1,,,,,,,,,,,,,,0,,,67,90
3040,note_on,0,0,1,,,,,,,,,,,,,,0,,,55,90
3180,note_off,140,0,1,,,,,,,,,,,,,,0,,,67,64
3180,note_off,0,0,1,,,,,,,,,,,,,,0,,,55,64
3200,note_on,20,0,1,,,,,,,,,,,,,,0,,,67,90
3200,note_on,0,0,1,,,,,,,,,,,,,,0,,,55,90
3340,note_off,140,0,1,,,,,,,,,,,,,,0,,,67,64
3340,note_off,0,0,1,,,,,,,,,,,,,,0,,,55,64
3360,note_on,20,0,1,,,,,,,,,,,,,,0,,,55,90
3360,note_on,0,0,1,,,,,,,,,,,,,,0,,,67,90
3500,note_off,0,0,1,,,,,,,,,,,,,,0,,,67,64
3500,note_off,140,0,1,,,,,,,,,,,,,,0,,,55,64
3520,note_on,20,0,1,,,,,,,,,,,,,,0,,,55,90
3520,note_on,0,0,1,,,,,,,,,,,,,,0,,,67,90
3660,note_off,0,0,1,,,,,,,,,,,,,,0,,,67,64
3660,note_off,140,0,1,,,,,,,,,,,,,,0,,,55,64
3680,note_on,0,0,1,,,,,,,,,,,,,,0,,,67,90
3680,note_on,20,0,1,,,,,,,,,,,,,,0,,,55,90
3820,note_off,0,0,1,,,,,,,,,,,,,,0,,,67,64
3820,note_off,140,0,1,,,,,,,,,,,,,,0,,,55,64
3840,note_on,3640,0,2,,,,,,,,,,,,,,1,,,43,90
3840,note_on,0,0,1,,,,,,,,,,,,,,0,,,67,90
3840,note_on,20,0,1,,,,,,,,,,,,,,0,,,55,90
3980,note_off,0,0,1,,,,,,,,,,,,,,0,,,67,64
3980,note_off,140,0,1,,,,,,,,,,,,,,0,,,55,64
4000,note_on,0,0,1,,,,,,,,,,,,,,0,,,55,90
4000,note_on,20,0,1,,,,,,,,,,,,,,0,,,67,90
4000,note_off,160,0,2,,,,,,,,,,,,,,1,,,43,64
4000,note_on,0,0,2,,,,,,,,,,,,,,1,,,45,90
4140,note_off,0,0,1,,,,,,,,,,,,,,0,,,55,64
4140,note_off,140,0,1,,,,,,,,,,,,,,0,,,67,64
4160,note_off,160,0,2,,,,,,,,,,,,,,1,,,45,64
4160,note_on,0,0,2,,,,,,,,,,,,,,1,,,46,90
4160,note_on,20,0,1,,,,,,,,,,,,,,0,,,67,90
4160,note_on,0,0,1,,,,,,,,,,,,,,0,,,55,90
4300,note_off,140,0,1,,,,,,,,,,,,,,0,,,67,64
4300,note_off,0,0,1,,,,,,,,,,,,,,0,,,55,64
4320,note_off,160,0,2,,,,,,,,,,,,,,1,,,46,64
4320,note_on,0,0,2,,,,,,,,,,,,,,1,,,48,90
4320,note_on,0,0,1,,,,,,,,,,,,,,0,,,67,90
4320,note_on,20,0,1,,,,,,,,,,,,,,0,,,55,90
4460,note_off,0,0,1,,,,,,,,,,,,,,0,,,67,64
4460,note_off,140,0,1,,,,,,,,,,,,,,0,,,55,64
4480,note_on,0,0,1,,,,,,,,,,,,,,0,,,67,90
4480,note_on,0,0,2,,,,,,,,,,,,,,1,,,50,90
4480,note_off,160,0,2,,,,,,,,,,,,,,1,,,48,64
4480,note_on,20,0,1,,,,,,,,,,,,,,0,,,55,90
4620,note_off,140,0,1,,,,,,,,,,,,,,0,,,55,64
4620,note_off,0,0,1,,,,,,,,,,,,,,0,,,67,64
4640,note_on,20,0,1,,,,,,,,,,,,,,0,,,55,90
4640,note_off,160,0,2,,,,,,,,,,,,,,1,,,50,64
4640,note_on,0,0,2,,,,,,,,,,,,,,1,,,51,90
4640,note_on,0,0,1,,,,,,,,,,,,,,0,,,67,90
4780,note_off,0,0,1,,,,,,,,,,,,,,0,,,67,64
4780,note_off,140,0,1,,,,,,,,,,,,,,0,,,55,64
4800,note_off,160,0,2,,,,,,,,,,,,,,1,,,51,64
4800,note_on,20,0,1,,,,,,,,,,,,,,0,,,55,90
4800,note_on,0,0,1,,,,,,,,,,,,,,0,,,67,90
4800,note_on,0,0,2,,,,,,,,,,,,,,1,,,50,90
4940,note_off,140,0,1,,,,,,,,,,,,,,0,,,55,64
4940,note_off,0,0,1,,,,,,,,,,,,,,0,,,67,64
4960,note_on,20,0,1,,,,,,,,,,,,,,0,,,67,90
4960,note_on,0,0,1,,,,,,,,,,,,,,0,,,55,90
5030,note_off,230,0,2,,,,,,,,,,,,,,1,,,50,64
5100,note_off,140,0,1,,,,,,,,,,,,,,0,,,67,64
5100,note_off,0,0,1,,,,,,,,,,,,,,0,,,55,64
5120,note_on,20,0,1,,,,,,,,,,,,,,0,,,67,90
5120,note_on,0,0,1,,,,,,,,,,,,,,0,,,55,90
5260,note_off,0,0,1,,,,,,,,,,,,,,0,,,55,64
5260,note_off,140,0,1,,,,,,,,,,,,,,0,,,67,64
5280,note_on,20,0,1,,,,,,,,,,,,,,0,,,55,90
5280,note_on,0,0,1,,,,,,,,,,,,,,0,,,67,90
5280,note_on,250,0,2,,,,,,,,,,,,,,1,,,46,90
5420,note_off,140,0,1,,,,,,,,,,,,,,0,,,55,64
5420,note_off,0,0,1,,,,,,,,,,,,,,0,,,67,64
5440,note_on,20,0,1,,,,,,,,,,,,,,0,,,55,90
5440,note_on,0,0,1,,,,,,,,,,,,,,0,,,67,90
5510,note_off,230,0,2,,,,,,,,,,,,,,1,,,46,64
5580,note_off,140,0,1,,,,,,,,,,,,,,0,,,55,64
5580,note_off,0,0,1,,,,,,,,,,,,,,0,,,67,64
5600,note_on,20,0,1,,,,,,,,,,,,,,0,,,55,90
5600,note_on,0,0,1,,,,,,,,,,,,,,0,,,67,90
5740,note_off,0,0,1,,,,,,,,,,,,,,0,,,67,64
5740,note_off,140,0,1,,,,,,,,,,,,,,0,,,55,64
5760,note_on,250,0,2,,,,,,,,,,,,,,1,,,43,90
5760,note_on,20,0,1,,,,,,,,,,,,,,0,,,55,90
5760,note_on,0,0,1,,,,,,,,,,,,,,0,,,67,90
5900,note_off,140,0,1,,,,,,,,,,,,,,0,,,55,64
5900,note_off,0,0,1,,,,,,,,,,,,,,0,,,67,64
5920,note_on,0,0,1,,,,,,,,,,,,,,0,,,55,90
5920,note_on,20,0,1,,,,,,,,,,,,,,0,,,67,90
6060,note_off,0,0,1,,,,,,,,,,,,,,0,,,55,64
6060,note_off,140,0,1,,,,,,,,,,,,,,0,,,67,64
6080,note_on,20,0,1,,,,,,,,,,,,,,0,,,67,90
6080,note_on,0,0,1,,,,,,,,,,,,,,0,,,55,90
6090,note_off,330,0,2,,,,,,,,,,,,,,1,,,43,64
6220,note_off,140,0,1,,,,,,,,,,,,,,0,,,67,64
6220,note_off,0,0,1,,,,,,,,,,,,,,0,,,55,64
6240,note_on,0,0,1,,,,,,,,,,,,,,0,,,67,90
6240,note_on,20,0,1,,,,,,,,,,,,,,0,,,55,90
6380,note_off,140,0,1,,,,,,,,,,,,,,0,,,55,64
6380,note_off,0,0,1,,,,,,,,,,,,,,0,,,67,64
6400,note_on,20,0,1,,,,,,,,,,,,,,0,,,55,90
6400,note_on,0,0,1,,,,,,,,,,,,,,0,,,67,90
6540,note_off,140,0,1,,,,,,,,,,,,,,0,,,55,64
6540,note_off,0,0,1,,,,,,,,,,,,,,0,,,67,64
6560,note_on,0,0,1,,,,,,,,,,,,,,0,,,67,90
6560,note_on,20,0,1,,,,,,,,,,,,,,0,,,55,90
6700,note_off,140,0,1,,,,,,,,,,,,,,0,,,55,64
6700,note_off,0,0,1,,,,,,,,,,,,,,0,,,67,64
6720,note_on,0,0,1,,,,,,,,,,,,,,0,,,67,90
6720,note_on,20,0,1,,,,,,,,,,,,,,0,,,55,90
6860,note_off,140,0,1,,,,,,,,,,,,,,0,,,55,64
6860,note_off,0,0,1,,,,,,,,,,,,,,0,,,67,64
6880,note_on,20,0,1,,,,,,,,,,,,,,0,,,67,90
6880,note_on,0,0,1,,,,,,,,,,,,,,0,,,55,90
7020,note_off,0,0,1,,,,,,,,,,,,,,0,,,55,64
7020,note_off,140,0,1,,,,,,,,,,,,,,0,,,67,64
7040,note_on,20,0,1,,,,,,,,,,,,,,0,,,67,90
7040,note_on,0,0,1,,,,,,,,,,,,,,0,,,55,90
7180,note_off,0,0,1,,,,,,,,,,,,,,0,,,55,64
7180,note_off,140,0,1,,,,,,,,,,,,,,0,,,67,64
7200,note_on,20,0,1,,,,,,,,,,,,,,0,,,55,90
7200,note_on,0,0,1,,,,,,,,,,,,,,0,,,67,90
7340,note_off,140,0,1,,,,,,,,,,,,,,0,,,55,64
7340,note_off,0,0,1,,,,,,,,,,,,,,0,,,67,64
7360,note_on,20,0,1,,,,,,,,,,,,,,0,,,55,90
7360,note_on,0,0,1,,,,,,,,,,,,,,0,,,67,90
7500,note_off,140,0,1,,,,,,,,,,,,,,0,,,55,64
7500,note_off,0,0,1,,,,,,,,,,,,,,0,,,67,64
7520,note_on,20,0,1,,,,,,,,,,,,,,0,,,55,90
7520,note_on,0,0,1,,,,,,,,,,,,,,0,,,67,90
7660,note_off,0,0,1,,,,,,,,,,,,,,0,,,67,64
7660,note_off,140,0,1,,,,,,,,,,,,,,0,,,55,64
7680,note_on,0,0,1,,,,,,,,,,,,,,0,,,67,90
7680,note_on,1590,0,2,,,,,,,,,,,,,,1,,,43,90
7680,note_on,20,0,1,,,,,,,,,,,,,,0,,,55,90
7820,note_off,0,0,1,,,,,,,,,,,,,,0,,,67,64
7820,note_off,140,0,1,,,,,,,,,,,,,,0,,,55,64
7840,note_on,0,0,2,,,,,,,,,,,,,,1,,,45,90
7840,note_off,160,0,2,,,,,,,,,,,,,,1,,,43,64
7840,note_on,0,0,1,,,,,,,,,,,,,,0,,,55,90
7840,note_on,20,0,1,,,,,,,,,,,,,,0,,,67,90
7980,note_off,0,0,1,,,,,,,,,,,,,,0,,,55,64
7980,note_off,140,0,1,,,,,,,,,,,,,,0,,,67,64
8000,note_on,20,0,1,,,,,,,,,,,,,,0,,,67,90
8000,note_on,0,0,2,,,,,,,,,,,,,,1,,,46,90
8000,note_off,160,0,2,,,,,,,,,,,,,,1,,,45,64
8000,note_on,0,0,1,,,,,,,,,,,,,,0,,,55,90
8140,note_off,140,0,1,,,,,,,,,,,,,,0,,,67,64
8140,note_off,0,0,1,,,,,,,,,,,,,,0,,,55,64
8160,note_off,160,0,2,,,,,,,,,,,,,,1,,,46,64
8160,note_on,0,0,1,,,,,,,,,,,,,,0,,,67,90
8160,note_on,20,0,1,,,,,,,,,,,,,,0,,,55,90
8160,note_on,0,0,2,,,,,,,,,,,,,,1,,,48,90
8300,note_off,140,0,1,,,,,,,,,,,,,,0,,,55,64
8300,note_off,0,0,1,,,,,,,,,,,,,,0,,,67,64
8320,note_on,0,0,2,,,,,,,,,,,,,,1,,,50,90
8320,note_off,160,0,2,,,,,,,,,,,,,,1,,,48,64
8320,note_on,0,0,1,,,,,,,,,,,,,,0,,,67,90
8320,note_on,20,0,1,,,,,,,,,,,,,,0,,,55,90
8460,note_off,140,0,1,,,,,,,,,,,,,,0,,,55,64
8460,note_off,0,0,1,,,,,,,,,,,,,,0,,,67,64
8480,note_on,0,0,1,,,,,,,,,,,,,,0,,,67,90
8480,note_off,160,0,2,,,,,,,,,,,,,,1,,,50,64
8480,note_on,20,0,1,,,,,,,,,,,,,,0,,,55,90
8480,note_on,0,0,2,,,,,,,,,,,,,,1,,,51,90
8620,note_off,0,0,1,,,,,,,,,,,,,,0,,,67,64
8620,note_off,140,0,1,,,,,,,,,,,,,,0,,,55,64
8640,note_on,0,0,1,,,,,,,,,,,,,,0,,,67,90
8640,note_on,20,0,1,,,,,,,,,,,,,,0,,,55,90
8640,note_off,160,0,2,,,,,,,,,,,,,,1,,,51,64
8640,note_on,0,0,2,,,,,,,,,,,,,,1,,,50,90
8780,note_off,0,0,1,,,,,,,,,,,,,,0,,,67,64
8780,note_off,140,0,1,,,,,,,,,,,,,,0,,,55,64
8800,note_on,20,0,1,,,,,,,,,,,,,,0,,,67,90
8800,note_on,0,0,1,,,,,,,,,,,,,,0,,,55,90
8870,note_off,230,0,2,,,,,,,,,,,,,,1,,,50,64
8940,note_off,140,0,1,,,,,,,,,,,,,,0,,,67,64
8940,note_off,0,0,1,,,,,,,,,,,,,,0,,,55,64
8960,note_on,20,0,1,,,,,,,,,,,,,,0,,,67,90
8960,note_on,0,0,1,,,,,,,,,,,,,,0,,,55,90
9100,note_off,140,0,1,,,,,,,,,,,,,,0,,,67,64
9100,note_off,0,0,1,,,,,,,,,,,,,,0,,,55,64
9120,note_on,20,0,1,,,,,,,,,,,,,,0,,,55,90
9120,note_on,0,0,1,,,,,,,,,,,,,,0,,,67,90
9120,note_on,250,0,2,,,,,,,,,,,,,,1,,,46,90
9260,note_off,140,0,1,,,,,,,,,,,,,,0,,,55,64
9260,note_off,0,0,1,,,,,,,,,,,,,,0,,,67,64
9280,note_on,20,0,1,,,,,,,,,,,,,,0,,,55,90
9280,note_on,0,0,1,,,,,,,,,,,,,,0,,,67,90
9350,note_off,230,0,2,,,,,,,,,,,,,,1,,,46,64
9420,note_off,140,0,1,,,,,,,,,,,,,,0,,,55,64
9420,note_off,0,0,1,,,,,,,,,,,,,,0,,,67,64
9440,note_on,20,0,1,,,,,,,,,,,,,,0,,,55,90
9440,note_on,0,0,1,,,,,,,,,,,,,,0,,,67,90
9580,note_off,0,0,1,,,,,,,,,,,,,,0,,,67,64
9580,note_off,140,0,1,,,,,,,,,,,,,,0,,,55,64
9600,note_on,250,0,2,,,,,,,,,,,,,,1,,,43,90
9600,note_on,20,0,1,,,,,,,,,,,,,,0,,,55,90
9600,note_on,0,0,1,,,,,,,,,,,,,,0,,,67,90
9740,note_off,140,0,1,,,,,,,,,,,,,,0,,,55,64
9740,note_off,0,0,1,,,,,,,,,,,,,,0,,,67,64
9760,note_on,20,0,1,,,,,,,,,,,,,,0,,,67,90
9760,note_on,0,0,1,,,,,,,,,,,,,,0,,,55,90
9900,note_off,140,0,1,,,,,,,,,,,,,,0,,,67,64
9900,note_off,0,0,1,,,,,,,,,,,,,,0,,,55,64
9920,note_on,20,0,1,,,,,,,,,,,,,,0,,,67,90
9920,note_on,0,0,1,,,,,,,,,,,,,,0,,,55,90
9930,note_off,330,0,2,,,,,,,,,,,,,,1,,,43,64
10060,note_off,0,0,1,,,,,,,,,,,,,,0,,,55,64
10060,note_off,140,0,1,,,,,,,,,,,,,,0,,,67,64
10080,note_on,20,0,1,,,,,,,,,,,,,,0,,,55,90
10080,note_on,0,0,1,,,,,,,,,,,,,,0,,,67,90
10220,note_off,140,0,1,,,,,,,,,,,,,,0,,,55,64
10220,note_off,0,0,1,,,,,,,,,,,,,,0,,,67,64
10240,note_on,20,0,1,,,,,,,,,,,,,,0,,,55,90
10240,note_on,0,0,1,,,,,,,,,,,,,,0,,,67,90
10380,note_off,140,0,1,,,,,,,,,,,,,,0,,,55,64
10380,note_off,0,0,1,,,,,,,,,,,,,,0,,,67,64
10400,note_on,0,0,1,,,,,,,,,,,,,,0,,,67,90
10400,note_on,20,0,1,,,,,,,,,,,,,,0,,,55,90
10540,note_off,0,0,1,,,,,,,,,,,,,,0,,,67,64
10540,note_off,140,0,1,,,,,,,,,,,,,,0,,,55,64
10560,note_on,20,0,1,,,,,,,,,,,,,,0,,,55,90
10560,note_on,0,0,1,,,,,,,,,,,,,,0,,,67,90
10700,note_off,0,0,1,,,,,,,,,,,,,,0,,,67,64
10700,note_off,140,0,1,,,,,,,,,,,,,,0,,,55,64
10720,note_on,20,0,1,,,,,,,,,,,,,,0,,,67,90
10720,note_on,0,0,1,,,,,,,,,,,,,,0,,,55,90
10860,note_off,140,0,1,,,,,,,,,,,,,,0,,,67,64
10860,note_off,0,0,1,,,,,,,,,,,,,,0,,,55,64
10880,note_on,20,0,1,,,,,,,,,,,,,,0,,,67,90
10880,note_on,0,0,1,,,,,,,,,,,,,,0,,,55,90
11020,note_off,0,0,1,,,,,,,,,,,,,,0,,,55,64
11020,note_off,140,0,1,,,,,,,,,,,,,,0,,,67,64
11040,note_on,0,0,1,,,,,,,,,,,,,,0,,,67,90
11040,note_on,20,0,1,,,,,,,,,,,,,,0,,,55,90
11180,note_off,0,0,1,,,,,,,,,,,,,,0,,,67,64
11180,note_off,140,0,1,,,,,,,,,,,,,,0,,,55,64
11200,note_on,0,0,1,,,,,,,,,,,,,,0,,,67,90
11200,note_on,20,0,1,,,,,,,,,,,,,,0,,,55,90
11340,note_off,140,0,1,,,,,,,,,,,,,,0,,,55,64
11340,note_off,0,0,1,,,,,,,,,,,,,,0,,,67,64
11360,note_on,0,0,1,,,,,,,,,,,,,,0,,,67,90
11360,note_on,20,0,1,,,,,,,,,,,,,,0,,,55,90
11500,note_off,0,0,1,,,,,,,,,,,,,,0,,,67,64
11500,note_off,140,0,1,,,,,,,,,,,,,,0,,,55,64
11520,note_on,0,0,2,,,,,,,,,,,,,,1,,,36,90
11520,note_on,1590,0,2,,,,,,,,,,,,,,1,,,48,90
11520,note_on,20,0,1,,,,,,,,,,,,,,0,,,57,90
11520,note_on,0,0,1,,,,,,,,,,,,,,0,,,69,90
11520,note_on,0,0,1,,,,,,,,,,,,,,0,,,67,90
11660,note_off,140,0,1,,,,,,,,,,,,,,0,,,57,64
11660,note_off,0,0,1,,,,,,,,,,,,,,0,,,67,64
11660,note_off,0,0,1,,,,,,,,,,,,,,0,,,69,64
11680,note_on,20,0,1,,,,,,,,,,,,,,0,,,69,90
11680,note_on,0,0,1,,,,,,,,,,,,,,0,,,57,90
11680,note_on,0,0,1,,,,,,,,,,,,,,0,,,67,90
11820,note_off,140,0,1,,,,,,,,,,,,,,0,,,69,64
11820,note_off,0,0,1,,,,,,,,,,,,,,0,,,57,64
11820,note_off,0,0,1,,,,,,,,,,,,,,0,,,67,64
11840,note_on,20,0,1,,,,,,,,,,,,,,0,,,69,90
11840,note_on,0,0,1,,,,,,,,,,,,,,0,,,57,90
11840,note_on,0,0,1,,,,,,,,,,,,,,0,,,67,90
11980,note_off,140,0,1,,,,,,,,,,,,,,0,,,69,64
11980,note_off,0,0,1,,,,,,,,,,,,,,0,,,57,64
11980,note_off,0,0,1,,,,,,,,,,,,,,0,,,67,64
12000,control_change,20,0,1,,,,,,,,,,,,,,0,11,92,,
12000,note_on,0,0,1,,,,,,,,,,,,,,0,,,57,90
12000,note_on,0,0,1,,,,,,,,,,,,,,0,,,69,90
12000,note_on,0,0,1,,,,,,,,,,,,,,0,,,67,90
12058,control_change,58,0,1,,,,,,,,,,,,,,0,11,92,,
12117,control_change,59,0,1,,,,,,,,,,,,,,0,11,93,,
12140,note_off,23,0,1,,,,,,,,,,,,,,0,,,57,64
12140,note_off,0,0,1,,,,,,,,,,,,,,0,,,69,64
12140,note_off,0,0,1,,,,,,,,,,,,,,0,,,67,64
12160,note_on,20,0,1,,,,,,,,,,,,,,0,,,57,90
12160,note_on,0,0,1,,,,,,,,,,,,,,0,,,69,90
12160,note_on,0,0,1,,,,,,,,,,,,,,0,,,67,90
12176,control_change,16,0,1,,,,,,,,,,,,,,0,11,94,,
12235,control_change,59,0,1,,,,,,,,,,,,,,0,11,95,,
12293,control_change,58,0,1,,,,,,,,,,,,,,0,11,96,,
12300,note_off,7,0,1,,,,,,,,,,,,,,0,,,57,64
12300,note_off,0,0,1,,,,,,,,,,,,,,0,,,69,64
12300,note_off,0,0,1,,,,,,,,,,,,,,0,,,67,64
12320,note_on,0,0,1,,,,,,,,,,,,,,0,,,67,90
12320,note_on,20,0,1,,,,,,,,,,,,,,0,,,57,90
12320,note_on,0,0,1,,,,,,,,,,,,,,0,,,69,90
12352,control_change,32,0,1,,,,,,,,,,,,,,0,11,97,,
12411,control_change,59,0,1,,,,,,,,,,,,,,0,11,98,,
12460,note_off,0,0,1,,,,,,,,,,,,,,0,,,67,64
12460,note_off,0,0,1,,,,,,,,,,,,,,0,,,69,64
12460,note_off,49,0,1,,,,,,,,,,,,,,0,,,57,64
12470,control_change,10,0,1,,,,,,,,,,,,,,0,11,99,,
12480,note_on,0,0,1,,,,,,,,,,,,,,0,,,67,90
12480,note_on,0,0,1,,,,,,,,,,,,,,0,,,69,90
12480,note_on,10,0,1,,,,,,,,,,,,,,0,,,57,90
12528,control_change,48,0,1,,,,,,,,,,,,,,0,11,100,,
12587,control_change,59,0,1,,,,,,,,,,,,,,0,11,101,,
12620,note_off,0,0,1,,,,,,,,,,,,,,0,,,69,64
12620,note_off,33,0,1,,,,,,,,,,,,,,0,,,57,64
12620,note_off,0,0,1,,,,,,,,,,,,,,0,,,67,64
12640,note_on,20,0,1,,,,,,,,,,,,,,0,,,69,90
12640,note_on,0,0,1,,,,,,,,,,,,,,0,,,57,90
12640,note_on,0,0,1,,,,,,,,,,,,,,0,,,67,90
12646,control_change,6,0,1,,,,,,,,,,,,,,0,11,102,,
12705,control_change,59,0,1,,,,,,,,,,,,,,0,11,103,,
12763,control_change,58,0,1,,,,,,,,,,,,,,0,11,104,,
12780,note_off,17,0,1,,,,,,,,,,,,,,0,,,69,64
12780,note_off,0,0,1,,,,,,,,,,,,,,0,,,57,64
12780,note_off,0,0,1,,,,,,,,,,,,,,0,,,67,64
12800,note_on,20,0,1,,,,,,,,,,,,,,0,,,69,90
12800,note_on,0,0,1,,,,,,,,,,,,,,0,,,57,90
12800,note_on,0,0,1,,,,,,,,,,,,,,0,,,67,90
12822,control_change,22,0,1,,,,,,,,,,,,,,0,11,105,,
12881,control_change,59,0,1,,,,,,,,,,,,,,0,11,106,,
12940,control_change,0,0,1,,,,,,,,,,,,,,0,11,107,,
12940,note_off,59,0,1,,,,,,,,,,,,,,0,,,69,64
12940,note_off,0,0,1,,,,,,,,,,,,,,0,,,57,64
12940,note_off,0,0,1,,,,,,,,,,,,,,0,,,67,64
12960,note_on,0,0,2,,,,,,,,,,,,,,1,,,37,90
12960,note_on,0,0,2,,,,,,,,,,,,,,1,,,49,90
12960,note_off,0,0,2,,,,,,,,,,,,,,1,,,36,64
12960,note_off,1440,0,2,,,,,,,,,,,,,,1,,,48,64
12960,note_on,0,0,1,,,,,,,,,,,,,,0,,,67,90
12960,note_on,20,0,1,,,,,,,,,,,,,,0,,,57,90
12960,note_on,0,0,1,,,,,,,,,,,,,,0,,,69,90
12998,control_change,38,0,1,,,,,,,,,,,,,,0,11,108,,
13057,control_change,59,0,1,,,,,,,,,,,,,,0,11,109,,
13100,note_off,43,0,1,,,,,,,,,,,,,,0,,,57,64
13100,note_off,0,0,1,,,,,,,,,,,,,,0,,,69,64
13100,note_off,0,0,1,,,,,,,,,,,,,,0,,,67,64
13116,control_change,16,0,1,,,,,,,,,,,,,,0,11,110,,
13120,note_on,4,0,1,,,,,,,,,,,,,,0,,,57,90
13120,note_on,0,0,1,,,,,,,,,,,,,,0,,,69,90
13120,note_on,0,0,1,,,,,,,,,,,,,,0,,,67,90
13175,control_change,55,0,1,,,,,,,,,,,,,,0,11,111,,
13233,control_change,58,0,1,,,,,,,,,,,,,,0,11,112,,
13260,note_off,0,0,1,,,,,,,,,,,,,,0,,,67,64
13260,note_off,0,0,1,,,,,,,,,,,,,,0,,,69,64
13260,note_off,27,0,1,,,,,,,,,,,,,,0,,,57,64
13280,note_on,20,0,1,,,,,,,,,,,,,,0,,,57,90
13280,note_on,0,0,1,,,,,,,,,,,,,,0,,,69,90
13280,note_on,0,0,1,,,,,,,,,,,,,,0,,,67,90
13292,control_change,12,0,1,,,,,,,,,,,,,,0,11,113,,
13351,control_change,59,0,1,,,,,,,,,,,,,,0,11,114,,
13409,control_change,58,0,1,,,,,,,,,,,,,,0,11,116,,
13410,control_change,1,0,1,,,,,,,,,,,,,,0,11,116,,
13420,note_off,10,0,1,,,,,,,,,,,,,,0,,,57,64
13420,note_off,0,0,1,,,,,,,,,,,,,,0,,,69,64
13420,note_off,0,0,1,,,,,,,,,,,,,,0,,,67,64
13440,note_on,0,0,1,,,,,,,,,,,,,,0,,,67,90
13440,note_on,0,0,2,,,,,,,,,,,,,,1,,,38,90
13440,note_on,0,0,2,,,,,,,,,,,,,,1,,,50,90
13440,note_off,0,0,2,,,,,,,,,,,,,,1,,,37,64
13440,note_off,480,0,2,,,,,,,,,,,,,,1,,,49,64
13440,note_on,20,0,1,,,,,,,,,,,,,,0,,,58,90
13440,note_on,0,0,1,,,,,,,,,,,,,,0,,,70,90
13483,control_change,43,0,1,,,,,,,,,,,,,,0,11,115,,
13556,control_change,73,0,1,,,,,,,,,,,,,,0,11,114,,
13580,note_off,0,0,1,,,,,,,,,,,,,,0,,,67,64
13580,note_off,0,0,1,,,,,,,,,,,,,,0,,,70,64
13580,note_off,24,0,1,,,,,,,,,,,,,,0,,,58,64
13600,note_on,0,0,1,,,,,,,,,,,,,,0,,,67,90
13600,note_on,0,0,1,,,,,,,,,,,,,,0,,,58,90
13600,note_on,20,0,1,,,,,,,,,,,,,,0,,,70,90
13629,control_change,29,0,1,,,,,,,,,,,,,,0,11,113,,
13702,control_change,73,0,1,,,,,,,,,,,,,,0,11,112,,
13740,note_off,38,0,1,,,,,,,,,,,,,,0,,,70,64
13740,note_off,0,0,1,,,,,,,,,,,,,,0,,,58,64
13740,note_off,0,0,1,,,,,,,,,,,,,,0,,,67,64
13760,note_on,0,0,1,,,,,,,,,,,,,,0,,,67,90
13760,note_on,20,0,1,,,,,,,,,,,,,,0,,,70,90
13760,note_on,0,0,1,,,,,,,,,,,,,,0,,,58,90
13775,control_change,15,0,1,,,,,,,,,,,,,,0,11,111,,
13848,control_change,73,0,1,,,,,,,,,,,,,,0,11,110,,
13900,note_off,52,0,1,,,,,,,,,,,,,,0,,,70,64
13900,note_off,0,0,1,,,,,,,,,,,,,,0,,,58,64
13900,note_off,0,0,1,,,,,,,,,,,,,,0,,,67,64
13920,note_on,20,0,1,,,,,,,,,,,,,,0,,,58,90
13920,note_on,0,0,1,,,,,,,,,,,,,,0,,,70,90
13920,note_on,0,0,1,,,,,,,,,,,,,,0,,,67,90
13921,control_change,1,0,1,,,,,,,,,,,,,,0,11,109,,
13994,control_change,73,0,1,,,,,,,,,,,,,,0,11,108,,
14060,note_off,0,0,1,,,,,,,,,,,,,,0,,,67,64
14060,note_off,0,0,1,,,,,,,,,,,,,,0,,,70,64
14060,note_off,66,0,1,,,,,,,,,,,,,,0,,,58,64
14067,control_change,7,0,1,,,,,,,,,,,,,,0,11,107,,
14080,note_on,0,0,1,,,,,,,,,,,,,,0,,,67,90
14080,note_on,13,0,1,,,,,,,,,,,,,,0,,,58,90
14080,note_on,0,0,1,,,,,,,,,,,,,,0,,,70,90
14140,control_change,60,0,1,,,,,,,,,,,,,,0,11,106,,
14213,control_change,73,0,1,,,,,,,,,,,,,,0,11,105,,
14220,note_off,7,0,1,,,,,,,,,,,,,,0,,,58,64
14220,note_off,0,0,1,,,,,,,,,,,,,,0,,,70,64
14220,note_off,0,0,1,,,,,,,,,,,,,,0,,,67,64
14240,note_on,20,0,1,,,,,,,,,,,,,,0,,,58,90
14240,note_on,0,0,1,,,,,,,,,,,,,,0,,,70,90
14240,note_on,0,0,1,,,,,,,,,,,,,,0,,,67,90
14286,control_change,46,0,1,,,,,,,,,,,,,,0,11,104,,
14360,control_change,74,0,1,,,,,,,,,,,,,,0,11,103,,
14380,note_off,0,0,1,,,,,,,,,,,,,,0,,,67,64
14380,note_off,20,0,1,,,,,,,,,,,,,,0,,,58,64
14380,note_off,0,0,1,,,,,,,,,,,,,,0,,,70,64
14400,note_on,20,0,1,,,,,,,,,,,,,,0,,,57,90
14400,note_on,0,0,1,,,,,,,,,,,,,,0,,,69,90
14400,note_on,0,0,1,,,,,,,,,,,,,,0,,,66,90
14433,control_change,33,0,1,,,,,,,,,,,,,,0,11,102,,
14506,control_change,73,0,1,,,,,,,,,,,,,,0,11,101,,
14540,note_off,0,0,1,,,,,,,,,,,,,,0,,,66,64
14540,note_off,0,0,1,,,,,,,,,,,,,,0,,,69,64
14540,note_off,34,0,1,,,,,,,,,,,,,,0,,,57,64
14560,note_on,20,0,1,,,,,,,,,,,,,,0,,,69,90
14560,note_on,0,0,1,,,,,,,,,,,,,,0,,,66,90
14560,note_on,0,0,1,,,,,,,,,,,,,,0,,,57,90
14579,control_change,19,0,1,,,,,,,,,,,,,,0,11,100,,
14652,control_change,73,0,1,,,,,,,,,,,,,,0,11,99,,
14700,note_off,0,0,1,,,,,,,,,,,,,,0,,,57,64
14700,note_off,48,0,1,,,,,,,,,,,,,,0,,,69,64
14700,note_off,0,0,1,,,,,,,,,,,,,,0,,,66,64
14720,note_on,0,0,1,,,,,,,,,,,,,,0,,,57,90
14720,note_on,0,0,1,,,,,,,,,,,,,,0,,,66,90
14720,note_on,20,0,1,,,,,,,,,,,,,,0,,,69,90
14725,control_change,5,0,1,,,,,,,,,,,,,,0,11,98,,
14798,control_change,73,0,1,,,,,,,,,,,,,,0,11,97,,
14860,note_off,0,0,1,,,,,,,,,,,,,,0,,,57,64
14860,note_off,62,0,1,,,,,,,,,,,,,,0,,,69,64
14860,note_off,0,0,1,,,,,,,,,,,,,,0,,,66,64
14871,control_change,11,0,1,,,,,,,,,,,,,,0,11,96,,
14880,note_on,0,0,1,,,,,,,,,,,,,,0,,,66,90
14880,note_on,0,0,1,,,,,,,,,,,,,,0,,,69,90
14880,note_on,9,0,1,,,,,,,,,,,,,,0,,,57,90
14944,control_change,64,0,1,,,,,,,,,,,,,,0,11,95,,
15017,control_change,73,0,1,,,,,,,,,,,,,,0,11,94,,
15020,note_off,3,0,1,,,,,,,,,,,,,,0,,,57,64
15020,note_off,0,0,1,,,,,,,,,,,,,,0,,,69,64
15020,note_off,0,0,1,,,,,,,,,,,,,,0,,,66,64
15040,note_on,0,0,1,,,,,,,,,,,,,,0,,,69,90
15040,note_on,0,0,1,,,,,,,,,,,,,,0,,,66,90
15040,note_on,20,0,1,,,,,,,,,,,,,,0,,,57,90
15090,control_change,50,0,1,,,,,,,,,,,,,,0,11,93,,
15163,control_change,73,0,1,,,,,,,,,,,,,,0,11,92,,
15180,note_off,0,0,1,,,,,,,,,,,,,,0,,,66,64
15180,note_off,17,0,1,,,,,,,,,,,,,,0,,,57,64
15180,note_off,0,0,1,,,,,,,,,,,,,,0,,,69,64
15200,note_on,20,0,1,,,,,,,,,,,,,,0,,,57,90
15200,note_on,0,0,1,,,,,,,,,,,,,,0,,,69,90
15200,note_on,0,0,1,,,,,,,,,,,,,,0,,,66,90
15236,control_change,36,0,1,,,,,,,,,,,,,,0,11,91,,
15309,control_change,73,0,1,,,,,,,,,,,,,,0,11,90,,
15340,note_off,0,0,1,,,,,,,,,,,,,,0,,,66,64
15340,note_off,31,0,1,,,,,,,,,,,,,,0,,,57,64
15340,note_off,0,0,1,,,,,,,,,,,,,,0,,,69,64
15360,note_on,20,0,1,,,,,,,,,,,,,,0,,,55,90
15360,note_on,0,0,2,,,,,,,,,,,,,,1,,,43,90
15360,note_on,0,0,1,,,,,,,,,,,,,,0,,,67,90
15360,note_off,0,0,2,,,,,,,,,,,,,,1,,,38,64
15360,note_off,1920,0,2,,,,,,,,,,,,,,1,,,50,64
15500,note_off,0,0,1,,,,,,,,,,,,,,0,,,67,64
15500,note_off,140,0,1,,,,,,,,,,,,,,0,,,55,64
15520,note_on,0,0,1,,,,,,,,,,,,,,0,,,55,90
15520,note_on,20,0,1,,,,,,,,,,,,,,0,,,67,90
15660,note_off,140,0,1,,,,,,,,,,,,,,0,,,67,64
15660,note_off,0,0,1,,,,,,,,,,,,,,0,,,55,64
15680,note_on,20,0,1,,,,,,,,,,,,,,0,,,67,90
15680,note_on,0,0,1,,,,,,,,,,,,,,0,,,55,90
15760,note_off,400,0,2,,,,,,,,,,,,,,1,,,43,64
15820,note_off,0,0,1,,,,,,,,,,,,,,0,,,55,64
15820,note_off,140,0,1,,,,,,,,,,,,,,0,,,67,64
15840,note_on,0,0,1,,,,,,,,,,,,,,0,,,67,90
15840,note_on,20,0,1,,,,,,,,,,,,,,0,,,55,90
15980,note_off,140,0,1,,,,,,,,,,,,,,0,,,55,64
15980,note_off,0,0,1,,,,,,,,,,,,,,0,,,67,64
16000,note_on,0,0,1,,,,,,,,,,,,,,0,,,67,90
16000,note_on,20,0,1,,,,,,,,,,,,,,0,,,55,90
16140,note_off,0,0,1,,,,,,,,,,,,,,0,,,67,64
16140,note_off,140,0,1,,,,,,,,,,,,,,0,,,55,64
16160,note_on,0,0,1,,,,,,,,,,,,,,0,,,67,90
16160,note_on,20,0,1,,,,,,,,,,,,,,0,,,55,90
16300,note_off,140,0,1,,,,,,,,,,,,,,0,,,55,64
16300,note_off,0,0,1,,,,,,,,,,,,,,0,,,67,64
16320,note_on,0,0,1,,,,,,,,,,,,,,0,,,67,90
16320,note_on,20,0,1,,,,,,,,,,,,,,0,,,55,90
16460,note_off,140,0,1,,,,,,,,,,,,,,0,,,55,64
16460,note_off,0,0,1,,,,,,,,,,,,,,0,,,67,64
16480,note_on,20,0,1,,,,,,,,,,,,,,0,,,67,90
16480,note_on,0,0,1,,,,,,,,,,,,,,0,,,55,90
16620,note_off,140,0,1,,,,,,,,,,,,,,0,,,67,64
16620,note_off,0,0,1,,,,,,,,,,,,,,0,,,55,64
16640,note_on,20,0,1,,,,,,,,,,,,,,0,,,67,90
16640,note_on,0,0,1,,,,,,,,,,,,,,0,,,55,90
16780,note_off,140,0,1,,,,,,,,,,,,,,0,,,67,64
16780,note_off,0,0,1,,,,,,,,,,,,,,0,,,55,64
16800,note_on,0,0,1,,,,,,,,,,,,,,0,,,67,90
16800,note_on,20,0,1,,,,,,,,,,,,,,0,,,55,90
16940,note_off,140,0,1,,,,,,,,,,,,,,0,,,55,64
16940,note_off,0,0,1,,,,,,,,,,,,,,0,,,67,64
16960,note_on,20,0,1,,,,,,,,,,,,,,0,,,55,90
16960,note_on,0,0,1,,,,,,,,,,,,,,0,,,67,90
17100,note_off,140,0,1,,,,,,,,,,,,,,0,,,55,64
17100,note_off,0,0,1,,,,,,,,,,,,,,0,,,67,64
17120,note_on,20,0,1,,,,,,,,,,,,,,0,,,55,90
17120,note_on,0,0,1,,,,,,,,,,,,,,0,,,67,90
17260,note_off,0,0,1,,,,,,,,,,,,,,0,,,67,64
17260,note_off,140,0,1,,,,,,,,,,,,,,0,,,55,64
17280,note_on,1520,0,2,,,,,,,,,,,,,,1,,,43,90
17280,note_on,0,0,1,,,,,,,,,,,,,,0,,,67,90
17280,note_on,20,0,1,,,,,,,,,,,,,,0,,,55,90
17420,note_off,140,0,1,,,,,,,,,,,,,,0,,,55,64
17420,note_off,0,0,1,,,,,,,,,,,,,,0,,,67,64
17440,note_on,0,0,2,,,,,,,,,,,,,,1,,,45,90
17440,note_off,160,0,2,,,,,,,,,,,,,,1,,,43,64
17440,note_on,20,0,1,,,,,,,,,,,,,,0,,,67,90
17440,note_on,0,0,1,,,,,,,,,,,,,,0,,,55,90
17580,note_off,140,0,1,,,,,,,,,,,,,,0,,,67,64
17580,note_off,0,0,1,,,,,,,,,,,,,,0,,,55,64
17600,note_off,160,0,2,,,,,,,,,,,,,,1,,,45,64
17600,note_on,20,0,1,,,,,,,,,,,,,,0,,,67,90
17600,note_on,0,0,1,,,,,,,,,,,,,,0,,,55,90
17600,note_on,0,0,2,,,,,,,,,,,,,,1,,,46,90
17740,note_off,140,0,1,,,,,,,,,,,,,,0,,,67,64
17740,note_off,0,0,1,,,,,,,,,,,,,,0,,,55,64
17760,note_off,160,0,2,,,,,,,,,,,,,,1,,,46,64
17760,note_on,0,0,2,,,,,,,,,,,,,,1,,,48,90
17760,note_on,20,0,1,,,,,,,,,,,,,,0,,,55,90
17760,note_on,0,0,1,,,,,,,,,,,,,,0,,,67,90
17900,note_off,140,0,1,,,,,,,,,,,,,,0,,,55,64
17900,note_off,0,0,1,,,,,,,,,,,,,,0,,,67,64
17920,note_on,0,0,1,,,,,,,,,,,,,,0,,,67,90
17920,note_on,20,0,1,,,,,,,,,,,,,,0,,,55,90
17920,note_off,160,0,2,,,,,,,,,,,,,,1,,,48,64
17920,note_on,0,0,2,,,,,,,,,,,,,,1,,,50,90
18060,note_off,140,0,1,,,,,,,,,,,,,,0,,,55,64
18060,note_off,0,0,1,,,,,,,,,,,,,,0,,,67,64
18080,note_on,0,0,2,,,,,,,,,,,,,,1,,,51,90
18080,note_on,20,0,1,,,,,,,,,,,,,,0,,,55,90
18080,note_on,0,0,1,,,,,,,,,,,,,,0,,,67,90
18080,note_off,160,0,2,,,,,,,,,,,,,,1,,,50,64
18220,note_off,140,0,1,,,,,,,,,,,,,,0,,,55,64
18220,note_off,0,0,1,,,,,,,,,,,,,,0,,,67,64
18240,note_off,160,0,2,,,,,,,,,,,,,,1,,,51,64
18240,note_on,0,0,2,,,,,,,,,,,,,,1,,,50,90
18240,note_on,20,0,1,,,,,,,,,,,,,,0,,,55,90
18240,note_on,0,0,1,,,,,,,,,,,,,,0,,,67,90
18380,note_off,140,0,1,,,,,,,,,,,,,,0,,,55,64
18380,note_off,0,0,1,,,,,,,,,,,,,,0,,,67,64
18400,note_on,20,0,1,,,,,,,,,,,,,,0,,,67,90
18400,note_on,0,0,1,,,,,,,,,,,,,,0,,,55,90
18440,note_off,200,0,2,,,,,,,,,,,,,,1,,,50,64
18540,note_off,0,0,1,,,,,,,,,,,,,,0,,,55,64
18540,note_off,140,0,1,,,,,,,,,,,,,,0,,,67,64
18560,note_on,20,0,1,,,,,,,,,,,,,,0,,,67,90
18560,note_on,0,0,1,,,,,,,,,,,,,,0,,,55,90
18700,note_off,0,0,1,,,,,,,,,,,,,,0,,,55,64
18700,note_off,140,0,1,,,,,,,,,,,,,,0,,,67,64
18720,note_on,20,0,1,,,,,,,,,,,,,,0,,,55,90
18720,note_on,0,0,1,,,,,,,,,,,,,,0,,,67,90
18720,note_on,280,0,2,,,,,,,,,,,,,,1,,,46,90
18860,note_off,140,0,1,,,,,,,,,,,,,,0,,,55,64
18860,note_off,0,0,1,,,,,,,,,,,,,,0,,,67,64
18880,note_on,20,0,1,,,,,,,,,,,,,,0,,,55,90
18880,note_on,0,0,1,,,,,,,,,,,,,,0,,,67,90
18920,note_off,200,0,2,,,,,,,,,,,,,,1,,,46,64
19020,note_off,140,0,1,,,,,,,,,,,,,,0,,,55,64
19020,note_off,0,0,1,,,,,,,,,,,,,,0,,,67,64
19040,note_on,0,0,1,,,,,,,,,,,,,,0,,,67,90
19040,note_on,20,0,1,,,,,,,,,,,,,,0,,,55,90
19180,note_off,0,0,1,,,,,,,,,,,,,,0,,,67,64
19180,note_off,140,0,1,,,,,,,,,,,,,,0,,,55,64
19200,note_on,20,0,1,,,,,,,,,,,,,,0,,,55,90
19200,note_on,0,0,1,,,,,,,,,,,,,,0,,,67,90
19200,note_on,280,0,2,,,,,,,,,,,,,,1,,,43,90
19340,note_off,0,0,1,,,,,,,,,,,,,,0,,,67,64
19340,note_off,140,0,1,,,,,,,,,,,,,,0,,,55,64
19360,note_on,0,0,1,,,,,,,,,,,,,,0,,,55,90
19360,note_on,20,0,1,,,,,,,,,,,,,,0,,,67,90
19500,note_off,0,0,1,,,,,,,,,,,,,,0,,,55,64
19500,note_off,140,0,1,,,,,,,,,,,,,,0,,,67,64
19520,note_on,0,0,1,,,,,,,,,,,,,,0,,,55,90
19520,note_on,20,0,1,,,,,,,,,,,,,,0,,,67,90
19540,note_off,340,0,2,,,,,,,,,,,,,,1,,,43,64
19660,note_off,140,0,1,,,,,,,,,,,,,,0,,,67,64
19660,note_off,0,0,1,,,,,,,,,,,,,,0,,,55,64
19680,note_on,0,0,1,,,,,,,,,,,,,,0,,,67,90
19680,note_on,20,0,1,,,,,,,,,,,,,,0,,,55,90
19820,note_off,140,0,1,,,,,,,,,,,,,,0,,,55,64
19820,note_off,0,0,1,,,,,,,,,,,,,,0,,,67,64
19840,note_on,0,0,1,,,,,,,,,,,,,,0,,,67,90
19840,note_on,20,0,1,,,,,,,,,,,,,,0,,,55,90
19980,note_off,0,0,1,,,,,,,,,,,,,,0,,,67,64
19980,note_off,140,0,1,,,,,,,,,,,,,,0,,,55,64
20000,note_on,0,0,1,,,,,,,,,,,,,,0,,,67,90
20000,note_on,20,0,1,,,,,,,,,,,,,,0,,,55,90
20140,note_off,140,0,1,,,,,,,,,,,,,,0,,,55,64
20140,note_off,0,0,1,,,,,,,,,,,,,,0,,,67,64
20160,note_on,0,0,1,,,,,,,,,,,,,,0,,,67,90
20160,note_on,20,0,1,,,,,,,,,,,,,,0,,,55,90
20300,note_off,140,0,1,,,,,,,,,,,,,,0,,,55,64
20300,note_off,0,0,1,,,,,,,,,,,,,,0,,,67,64
20320,note_on,20,0,1,,,,,,,,,,,,,,0,,,67,90
20320,note_on,0,0,1,,,,,,,,,,,,,,0,,,55,90
20460,note_off,0,0,1,,,,,,,,,,,,,,0,,,55,64
20460,note_off,140,0,1,,,,,,,,,,,,,,0,,,67,64
20480,note_on,20,0,1,,,,,,,,,,,,,,0,,,67,90
20480,note_on,0,0,1,,,,,,,,,,,,,,0,,,55,90
20620,note_off,140,0,1,,,,,,,,,,,,,,0,,,67,64
20620,note_off,0,0,1,,,,,,,,,,,,,,0,,,55,64
20640,note_on,20,0,1,,,,,,,,,,,,,,0,,,55,90
20640,note_on,0,0,1,,,,,,,,,,,,,,0,,,67,90
20780,note_off,0,0,1,,,,,,,,,,,,,,0,,,67,64
20780,note_off,140,0,1,,,,,,,,,,,,,,0,,,55,64
20800,note_on,0,0,1,,,,,,,,,,,,,,0,,,67,90
20800,note_on,20,0,1,,,,,,,,,,,,,,0,,,55,90
20940,note_off,140,0,1,,,,,,,,,,,,,,0,,,55,64
20940,note_off,0,0,1,,,,,,,,,,,,,,0,,,67,64
20960,note_on,20,0,1,,,,,,,,,,,,,,0,,,55,90
20960,note_on,0,0,1,,,,,,,,,,,,,,0,,,67,90
21100,note_off,140,0,1,,,,,,,,,,,,,,0,,,55,64
21100,note_off,0,0,1,,,,,,,,,,,,,,0,,,67,64
21120,note_on,20,0,1,,,,,,,,,,,,,,0,,,55,90
21120,note_on,1580,0,2,,,,,,,,,,,,,,1,,,43,90
21120,note_on,0,0,1,,,,,,,,,,,,,,0,,,67,90
21260,note_off,0,0,1,,,,,,,,,,,,,,0,,,67,64
21260,note_off,140,0,1,,,,,,,,,,,,,,0,,,55,64
21280,note_off,160,0,2,,,,,,,,,,,,,,1,,,43,64
21280,note_on,20,0,1,,,,,,,,,,,,,,0,,,67,90
21280,note_on,0,0,1,,,,,,,,,,,,,,0,,,55,90
21280,note_on,0,0,2,,,,,,,,,,,,,,1,,,45,90
21420,note_off,0,0,1,,,,,,,,,,,,,,0,,,55,64
21420,note_off,140,0,1,,,,,,,,,,,,,,0,,,67,64
21440,note_off,160,0,2,,,,,,,,,,,,,,1,,,45,64
21440,note_on,0,0,2,,,,,,,,,,,,,,1,,,46,90
21440,note_on,0,0,1,,,,,,,,,,,,,,0,,,55,90
21440,note_on,20,0,1,,,,,,,,,,,,,,0,,,67,90
21580,note_off,0,0,1,,,,,,,,,,,,,,0,,,55,64
21580,note_off,140,0,1,,,,,,,,,,,,,,0,,,67,64
21600,note_off,160,0,2,,,,,,,,,,,,,,1,,,46,64
21600,note_on,0,0,2,,,,,,,,,,,,,,1,,,48,90
21600,note_on,20,0,1,,,,,,,,,,,,,,0,,,55,90
21600,note_on,0,0,1,,,,,,,,,,,,,,0,,,67,90
21740,note_off,140,0,1,,,,,,,,,,,,,,0,,,55,64
21740,note_off,0,0,1,,,,,,,,,,,,,,0,,,67,64
21760,note_on,0,0,1,,,,,,,,,,,,,,0,,,67,90
21760,note_on,20,0,1,,,,,,,,,,,,,,0,,,55,90
21760,note_off,160,0,2,,,,,,,,,,,,,,1,,,48,64
21760,note_on,0,0,2,,,,,,,,,,,,,,1,,,50,90
21900,note_off,140,0,1,,,,,,,,,,,,,,0,,,55,64
21900,note_off,0,0,1,,,,,,,,,,,,,,0,,,67,64
21920,note_on,0,0,1,,,,,,,,,,,,,,0,,,67,90
21920,note_on,20,0,1,,,,,,,,,,,,,,0,,,55,90
21920,note_off,160,0,2,,,,,,,,,,,,,,1,,,50,64
21920,note_on,0,0,2,,,,,,,,,,,,,,1,,,51,90
22060,note_off,0,0,1,,,,,,,,,,,,,,0,,,67,64
22060,note_off,140,0,1,,,,,,,,,,,,,,0,,,55,64
22080,note_on,0,0,1,,,,,,,,,,,,,,0,,,67,90
22080,note_on,0,0,2,,,,,,,,,,,,,,1,,,50,90
22080,note_off,160,0,2,,,,,,,,,,,,,,1,,,51,64
22080,note_on,20,0,1,,,,,,,,,,,,,,0,,,55,90
22220,note_off,140,0,1,,,,,,,,,,,,,,0,,,55,64
22220,note_off,0,0,1,,,,,,,,,,,,,,0,,,67,64
22240,note_on,20,0,1,,,,,,,,,,,,,,0,,,67,90
22240,note_on,0,0,1,,,,,,,,,,,,,,0,,,55,90
22330,note_off,250,0,2,,,,,,,,,,,,,,1,,,50,64
22380,note_off,140,0,1,,,,,,,,,,,,,,0,,,67,64
22380,note_off,0,0,1,,,,,,,,,,,,,,0,,,55,64
22400,note_on,0,0,1,,,,,,,,,,,,,,0,,,55,90
22400,note_on,20,0,1,,,,,,,,,,,,,,0,,,67,90
22540,note_off,140,0,1,,,,,,,,,,,,,,0,,,67,64
22540,note_off,0,0,1,,,,,,,,,,,,,,0,,,55,64
22560,note_on,230,0,2,,,,,,,,,,,,,,1,,,46,90
22560,note_on,20,0,1,,,,,,,,,,,,,,0,,,55,90
22560,note_on,0,0,1,,,,,,,,,,,,,,0,,,67,90
22700,note_off,140,0,1,,,,,,,,,,,,,,0,,,55,64
22700,note_off,0,0,1,,,,,,,,,,,,,,0,,,67,64
22720,note_on,0,0,1,,,,,,,,,,,,,,0,,,67,90
22720,note_on,20,0,1,,,,,,,,,,,,,,0,,,55,90
22810,note_off,250,0,2,,,,,,,,,,,,,,1,,,46,64
22860,note_off,0,0,1,,,,,,,,,,,,,,0,,,67,64
22860,note_off,140,0,1,,,,,,,,,,,,,,0,,,55,64
22880,note_on,20,0,1,,,,,,,,,,,,,,0,,,55,90
22880,note_on,0,0,1,,,,,,,,,,,,,,0,,,67,90
23020,note_off,140,0,1,,,,,,,,,,,,,,0,,,55,64
23020,note_off,0,0,1,,,,,,,,,,,,,,0,,,67,64
23040,note_on,20,0,1,,,,,,,,,,,,,,0,,,55,90
23040,note_on,0,0,1,,,,,,,,,,,,,,0,,,67,90
23040,note_on,230,0,2,,,,,,,,,,,,,,1,,,43,90
23180,note_off,140,0,1,,,,,,,,,,,,,,0,,,55,64
23180,note_off,0,0,1,,,,,,,,,,,,,,0,,,67,64
23200,note_on,0,0,1,,,,,,,,,,,,,,0,,,55,90
23200,note_on,20,0,1,,,,,,,,,,,,,,0,,,67,90
23340,note_off,140,0,1,,,,,,,,,,,,,,0,,,67,64
23340,note_off,0,0,1,,,,,,,,,,,,,,0,,,55,64
23360,note_on,20,0,1,,,,,,,,,,,,,,0,,,67,90
23360,note_on,0,0,1,,,,,,,,,,,,,,0,,,55,90
23410,note_off,370,0,2,,,,,,,,,,,,,,1,,,43,64
23500,note_off,140,0,1,,,,,,,,,,,,,,0,,,67,64
23500,note_off,0,0,1,,,,,,,,,,,,,,0,,,55,64
23520,note_on,20,0,1,,,,,,,,,,,,,,0,,,55,90
23520,note_on,0,0,1,,,,,,,,,,,,,,0,,,67,90
23660,note_off,140,0,1,,,,,,,,,,,,,,0,,,55,64
23660,note_off,0,0,1,,,,,,,,,,,,,,0,,,67,64
23680,note_on,20,0,1,,,,,,,,,,,,,,0,,,55,90
23680,note_on,0,0,1,,,,,,,,,,,,,,0,,,67,90
23820,note_off,0,0,1,,,,,,,,,,,,,,0,,,67,64
23820,note_off,140,0,1,,,,,,,,,,,,,,0,,,55,64
23840,note_on,20,0,1,,,,,,,,,,,,,,0,,,55,90
23840,note_on,0,0,1,,,,,,,,,,,,,,0,,,67,90
23980,note_off,140,0,1,,,,,,,,,,,,,,0,,,55,64
23980,note_off,0,0,1,,,,,,,,,,,,,,0,,,67,64
24000,note_on,20,0,1,,,,,,,,,,,,,,0,,,55,90
24000,note_on,0,0,1,,,,,,,,,,,,,,0,,,67,90
24140,note_off,140,0,1,,,,,,,,,,,,,,0,,,55,64
24140,note_off,0,0,1,,,,,,,,,,,,,,0,,,67,64
24160,note_on,0,0,1,,,,,,,,,,,,,,0,,,55,90
24160,note_on,20,0,1,,,,,,,,,,,,,,0,,,67,90
24300,note_off,140,0,1,,,,,,,,,,,,,,0,,,67,64
24300,note_off,0,0,1,,,,,,,,,,,,,,0,,,55,64
24320,note_on,20,0,1,,,,,,,,,,,,,,0,,,67,90
24320,note_on,0,0,1,,,,,,,,,,,,,,0,,,55,90
24460,note_off,140,0,1,,,,,,,,,,,,,,0,,,67,64
24460,note_off,0,0,1,,,,,,,,,,,,,,0,,,55,64
24480,note_on,20,0,1,,,,,,,,,,,,,,0,,,55,90
24480,note_on,0,0,1,,,,,,,,,,,,,,0,,,67,90
24620,note_off,0,0,1,,,,,,,,,,,,,,0,,,67,64
24620,note_off,140,0,1,,,,,,,,,,,,,,0,,,55,64
24640,note_on,20,0,1,,,,,,,,,,,,,,0,,,55,90
24640,note_on,0,0,1,,,,,,,,,,,,,,0,,,67,90
24780,note_off,0,0,1,,,,,,,,,,,,,,0,,,67,64
24780,note_off,140,0,1,,,,,,,,,,,,,,0,,,55,64
24800,note_on,0,0,1,,,,,,,,,,,,,,0,,,67,90
24800,note_on,20,0,1,,,,,,,,,,,,,,0,,,55,90
24860,control_change,1450,0,2,,,,,,,,,,,,,,1,11,88,,
24940,control_change,140,0,1,,,,,,,,,,,,,,0,11,90,,
24940,note_off,0,0,1,,,,,,,,,,,,,,0,,,55,64
24940,note_off,0,0,1,,,,,,,,,,,,,,0,,,67,64
24960,note_on,100,0,2,,,,,,,,,,,,,,1,,,48,90
24960,note_on,0,0,2,,,,,,,,,,,,,,1,,,36,90
24960,note_on,20,0,1,,,,,,,,,,,,,,0,,,57,90
24960,note_on,0,0,1,,,,,,,,,,,,,,0,,,69,90
24960,note_on,0,0,1,,,,,,,,,,,,,,0,,,67,90
24975,control_change,15,0,1,,,,,,,,,,,,,,0,11,89,,
25010,control_change,35,0,1,,,,,,,,,,,,,,0,11,88,,
25046,control_change,36,0,1,,,,,,,,,,,,,,0,11,87,,
25081,control_change,35,0,1,,,,,,,,,,,,,,0,11,86,,
25100,note_off,19,0,1,,,,,,,,,,,,,,0,,,57,64
25100,note_off,0,0,1,,,,,,,,,,,,,,0,,,69,64
25100,note_off,0,0,1,,,,,,,,,,,,,,0,,,67,64
25116,control_change,16,0,1,,,,,,,,,,,,,,0,11,85,,
25120,note_on,4,0,1,,,,,,,,,,,,,,0,,,69,90
25120,note_on,0,0,1,,,,,,,,,,,,,,0,,,57,90
25120,note_on,0,0,1,,,,,,,,,,,,,,0,,,67,90
25152,control_change,32,0,1,,,,,,,,,,,,,,0,11,84,,
25187,control_change,35,0,1,,,,,,,,,,,,,,0,11,83,,
25223,control_change,36,0,1,,,,,,,,,,,,,,0,11,82,,
25258,control_change,35,0,1,,,,,,,,,,,,,,0,11,81,,
25260,note_off,2,0,1,,,,,,,,,,,,,,0,,,69,64
25260,note_off,0,0,1,,,,,,,,,,,,,,0,,,57,64
25260,note_off,0,0,1,,,,,,,,,,,,,,0,,,67,64
25280,note_on,0,0,1,,,,,,,,,,,,,,0,,,57,90
25280,note_on,0,0,1,,,,,,,,,,,,,,0,,,67,90
25280,note_on,20,0,1,,,,,,,,,,,,,,0,,,69,90
25293,control_change,13,0,1,,,,,,,,,,,,,,0,11,80,,
25329,control_change,36,0,1,,,,,,,,,,,,,,0,11,79,,
25364,control_change,35,0,1,,,,,,,,,,,,,,0,11,78,,
25400,control_change,36,0,1,,,,,,,,,,,,,,0,11,77,,
25420,note_off,20,0,1,,,,,,,,,,,,,,0,,,69,64
25420,note_off,0,0,1,,,,,,,,,,,,,,0,,,57,64
25420,note_off,0,0,1,,,,,,,,,,,,,,0,,,67,64
25435,control_change,15,0,1,,,,,,,,,,,,,,0,11,76,,
25440,note_on,0,0,1,,,,,,,,,,,,,,0,,,67,90
25440,note_on,0,0,1,,,,,,,,,,,,,,0,,,69,90
25440,note_on,5,0,1,,,,,,,,,,,,,,0,,,57,90
25470,control_change,30,0,1,,,,,,,,,,,,,,0,11,75,,
25506,control_change,36,0,1,,,,,,,,,,,,,,0,11,74,,
25541,control_change,35,0,1,,,,,,,,,,,,,,0,11,73,,
25576,control_change,35,0,1,,,,,,,,,,,,,,0,11,72,,
25580,note_off,4,0,1,,,,,,,,,,,,,,0,,,57,64
25580,note_off,0,0,1,,,,,,,,,,,,,,0,,,69,64
25580,note_off,0,0,1,,,,,,,,,,,,,,0,,,67,64
25600,note_on,0,0,1,,,,,,,,,,,,,,0,,,67,90
25600,note_on,0,0,1,,,,,,,,,,,,,,0,,,69,90
25600,note_on,20,0,1,,,,,,,,,,,,,,0,,,57,90
25612,control_change,12,0,1,,,,,,,,,,,,,,0,11,71,,
25647,control_change,35,0,1,,,,,,,,,,,,,,0,11,70,,
25683,control_change,36,0,1,,,,,,,,,,,,,,0,11,69,,
25718,control_change,35,0,1,,,,,,,,,,,,,,0,11,68,,
25740,note_off,22,0,1,,,,,,,,,,,,,,0,,,57,64
25740,note_off,0,0,1,,,,,,,,,,,,,,0,,,69,64
25740,note_off,0,0,1,,,,,,,,,,,,,,0,,,67,64
25753,control_change,13,0,1,,,,,,,,,,,,,,0,11,67,,
25760,note_on,7,0,1,,,,,,,,,,,,,,0,,,57,90
25760,note_on,0,0,1,,,,,,,,,,,,,,0,,,69,90
25760,note_on,0,0,1,,,,,,,,,,,,,,0,,,67,90
25789,control_change,29,0,1,,,,,,,,,,,,,,0,11,66,,
25824,control_change,35,0,1,,,,,,,,,,,,,,0,11,65,,
25859,control_change,35,0,1,,,,,,,,,,,,,,0,11,64,,
25900,note_off,41,0,1,,,,,,,,,,,,,,0,,,57,64
25900,note_off,0,0,1,,,,,,,,,,,,,,0,,,69,64
25900,note_off,0,0,1,,,,,,,,,,,,,,0,,,67,64
25920,note_on,0,0,1,,,,,,,,,,,,,,0,,,67,90
25920,note_on,20,0,1,,,,,,,,,,,,,,0,,,57,90
25920,note_on,0,0,1,,,,,,,,,,,,,,0,,,69,90
26060,note_off,140,0,1,,,,,,,,,,,,,,0,,,57,64
26060,note_off,0,0,1,,,,,,,,,,,,,,0,,,69,64
26060,note_off,0,0,1,,,,,,,,,,,,,,0,,,67,64
26080,note_on,0,0,1,,,,,,,,,,,,,,0,,,57,90
26080,note_on,0,0,1,,,,,,,,,,,,,,0,,,67,90
26080,note_on,20,0,1,,,,,,,,,,,,,,0,,,69,90
26220,note_off,0,0,1,,,,,,,,,,,,,,0,,,57,64
26220,note_off,140,0,1,,,,,,,,,,,,,,0,,,69,64
26220,note_off,0,0,1,,,,,,,,,,,,,,0,,,67,64
26240,note_on,20,0,1,,,,,,,,,,,,,,0,,,69,90
26240,note_on,0,0,1,,,,,,,,,,,,,,0,,,57,90
26240,note_on,0,0,1,,,,,,,,,,,,,,0,,,67,90
26380,note_off,0,0,1,,,,,,,,,,,,,,0,,,67,64
26380,note_off,0,0,1,,,,,,,,,,,,,,0,,,57,64
26380,note_off,140,0,1,,,,,,,,,,,,,,0,,,69,64
26400,note_on,20,0,1,,,,,,,,,,,,,,0,,,57,90
26400,note_on,0,0,1,,,,,,,,,,,,,,0,,,69,90
26400,note_on,0,0,1,,,,,,,,,,,,,,0,,,67,90
26540,note_off,140,0,1,,,,,,,,,,,,,,0,,,57,64
26540,note_off,0,0,1,,,,,,,,,,,,,,0,,,69,64
26540,note_off,0,0,1,,,,,,,,,,,,,,0,,,67,64
26560,note_on,0,0,1,,,,,,,,,,,,,,0,,,67,90
26560,note_on,0,0,1,,,,,,,,,,,,,,0,,,69,90
26560,note_on,20,0,1,,,,,,,,,,,,,,0,,,57,90
26700,note_off,0,0,1,,,,,,,,,,,,,,0,,,69,64
26700,note_off,0,0,1,,,,,,,,,,,,,,0,,,67,64
26700,note_off,140,0,1,,,,,,,,,,,,,,0,,,57,64
26720,note_on,0,0,1,,,,,,,,,,,,,,0,,,67,90
26720,note_on,0,0,1,,,,,,,,,,,,,,0,,,69,90
26720,note_on,20,0,1,,,,,,,,,,,,,,0,,,57,90
26860,note_off,140,0,1,,,,,,,,,,,,,,0,,,57,64
26860,note_off,0,0,1,,,,,,,,,,,,,,0,,,69,64
26860,note_off,0,0,1,,,,,,,,,,,,,,0,,,67,64
26880,note_off,1920,0,2,,,,,,,,,,,,,,1,,,48,64
26880,note_on,0,0,2,,,,,,,,,,,,,,1,,,37,90
26880,note_on,0,0,2,,,,,,,,,,,,,,1,,,49,90
26880,note_off,0,0,2,,,,,,,,,,,,,,1,,,36,64
26880,note_on,20,0,1,,,,,,,,,,,,,,0,,,58,90
26880,note_on,0,0,1,,,,,,,,,,,,,,0,,,70,90
26880,note_on,0,0,1,,,,,,,,,,,,,,0,,,67,90
27020,note_off,140,0,1,,,,,,,,,,,,,,0,,,58,64
27020,note_off,0,0,1,,,,,,,,,,,,,,0,,,70,64
27020,note_off,0,0,1,,,,,,,,,,,,,,0,,,67,64
27040,note_on,0,0,1,,,,,,,,,,,,,,0,,,67,90
27040,note_on,0,0,1,,,,,,,,,,,,,,0,,,58,90
27040,note_on,20,0,1,,,,,,,,,,,,,,0,,,70,90
27180,note_off,0,0,1,,,,,,,,,,,,,,0,,,67,64
27180,note_off,140,0,1,,,,,,,,,,,,,,0,,,70,64
27180,note_off,0,0,1,,,,,,,,,,,,,,0,,,58,64
27200,note_on,0,0,1,,,,,,,,,,,,,,0,,,58,90
27200,note_on,0,0,1,,,,,,,,,,,,,,0,,,67,90
27200,note_on,20,0,1,,,,,,,,,,,,,,0,,,70,90
27340,note_off,140,0,1,,,,,,,,,,,,,,0,,,70,64
27340,note_off,0,0,1,,,,,,,,,,,,,,0,,,58,64
27340,note_off,0,0,1,,,,,,,,,,,,,,0,,,67,64
27360,note_on,0,0,1,,,,,,,,,,,,,,0,,,67,90
27360,note_on,20,0,1,,,,,,,,,,,,,,0,,,58,90
27360,note_on,0,0,1,,,,,,,,,,,,,,0,,,70,90
27500,note_off,0,0,1,,,,,,,,,,,,,,0,,,67,64
27500,note_off,0,0,1,,,,,,,,,,,,,,0,,,70,64
27500,note_off,140,0,1,,,,,,,,,,,,,,0,,,58,64
27520,note_on,0,0,1,,,,,,,,,,,,,,0,,,67,90
27520,note_on,0,0,1,,,,,,,,,,,,,,0,,,70,90
27520,note_on,20,0,1,,,,,,,,,,,,,,0,,,58,90
27660,note_off,0,0,1,,,,,,,,,,,,,,0,,,67,64
27660,note_off,0,0,1,,,,,,,,,,,,,,0,,,70,64
27660,note_off,140,0,1,,,,,,,,,,,,,,0,,,58,64
27680,note_on,20,0,1,,,,,,,,,,,,,,0,,,58,90
27680,note_on,0,0,1,,,,,,,,,,,,,,0,,,70,90
27680,note_on,0,0,1,,,,,,,,,,,,,,0,,,67,90
27820,note_off,140,0,1,,,,,,,,,,,,,,0,,,58,64
27820,note_off,0,0,1,,,,,,,,,,,,,,0,,,70,64
27820,note_off,0,0,1,,,,,,,,,,,,,,0,,,67,64
27840,note_on,20,0,1,,,,,,,,,,,,,,0,,,58,90
27840,note_on,0,0,1,,,,,,,,,,,,,,0,,,70,90
27840,note_on,0,0,1,,,,,,,,,,,,,,0,,,67,90
27980,note_off,140,0,1,,,,,,,,,,,,,,0,,,58,64
27980,note_off,0,0,1,,,,,,,,,,,,,,0,,,70,64
27980,note_off,0,0,1,,,,,,,,,,,,,,0,,,67,64
28000,note_on,0,0,1,,,,,,,,,,,,,,0,,,67,90
28000,note_on,20,0,1,,,,,,,,,,,,,,0,,,70,90
28000,note_on,0,0,1,,,,,,,,,,,,,,0,,,58,90
28140,note_off,0,0,1,,,,,,,,,,,,,,0,,,67,64
28140,note_off,0,0,1,,,,,,,,,,,,,,0,,,58,64
28140,note_off,140,0,1,,,,,,,,,,,,,,0,,,70,64
28160,note_on,20,0,1,,,,,,,,,,,,,,0,,,70,90
28160,note_on,0,0,1,,,,,,,,,,,,,,0,,,58,90
28160,note_on,0,0,1,,,,,,,,,,,,,,0,,,67,90
28300,note_off,140,0,1,,,,,,,,,,,,,,0,,,70,64
28300,note_off,0,0,1,,,,,,,,,,,,,,0,,,58,64
28300,note_off,0,0,1,,,,,,,,,,,,,,0,,,67,64
28320,note_on,0,0,1,,,,,,,,,,,,,,0,,,67,90
28320,note_on,20,0,1,,,,,,,,,,,,,,0,,,58,90
28320,note_on,0,0,1,,,,,,,,,,,,,,0,,,64,90
28460,note_off,140,0,1,,,,,,,,,,,,,,0,,,58,64
28460,note_off,0,0,1,,,,,,,,,,,,,,0,,,67,64
28460,note_off,0,0,1,,,,,,,,,,,,,,0,,,64,64
28480,note_on,0,0,1,,,,,,,,,,,,,,0,,,64,90
28480,note_on,0,0,1,,,,,,,,,,,,,,0,,,67,90
28480,note_on,20,0,1,,,,,,,,,,,,,,0,,,58,90
28620,note_off,140,0,1,,,,,,,,,,,,,,0,,,58,64
28620,note_off,0,0,1,,,,,,,,,,,,,,0,,,67,64
28620,note_off,0,0,1,,,,,,,,,,,,,,0,,,64,64
28640,note_on,20,0,1,,,,,,,,,,,,,,0,,,58,90
28640,note_on,0,0,1,,,,,,,,,,,,,,0,,,67,90
28640,note_on,0,0,1,,,,,,,,,,,,,,0,,,64,90
28780,note_off,140,0,1,,,,,,,,,,,,,,0,,,58,64
28780,note_off,0,0,1,,,,,,,,,,,,,,0,,,67,64
28780,note_off,0,0,1,,,,,,,,,,,,,,0,,,64,64
28800,note_on,20,0,1,,,,,,,,,,,,,,0,,,57,90
28800,note_off,1920,0,2,,,,,,,,,,,,,,1,,,49,64
28800,note_on,0,0,1,,,,,,,,,,,,,,0,,,62,90
28800,note_on,0,0,2,,,,,,,,,,,,,,1,,,38,90
28800,note_off,0,0,2,,,,,,,,,,,,,,1,,,37,64
28800,note_on,0,0,1,,,,,,,,,,,,,,0,,,66,90
28940,note_off,140,0,1,,,,,,,,,,,,,,0,,,57,64
28940,note_off,0,0,1,,,,,,,,,,,,,,0,,,66,64
28940,note_off,0,0,1,,,,,,,,,,,,,,0,,,62,64
28960,note_on,0,0,1,,,,,,,,,,,,,,0,,,62,90
28960,note_on,0,0,1,,,,,,,,,,,,,,0,,,57,90
28960,note_on,20,0,1,,,,,,,,,,,,,,0,,,66,90
28960,note_off,160,0,2,,,,,,,,,,,,,,1,,,38,64
28960,note_on,0,0,2,,,,,,,,,,,,,,1,,,42,90
29100,note_off,0,0,1,,,,,,,,,,,,,,0,,,57,64
29100,note_off,0,0,1,,,,,,,,,,,,,,0,,,62,64
29100,note_off,140,0,1,,,,,,,,,,,,,,0,,,66,64
29120,note_on,0,0,1,,,,,,,,,,,,,,0,,,57,90
29120,note_on,20,0,1,,,,,,,,,,,,,,0,,,66,90
29120,note_on,0,0,1,,,,,,,,,,,,,,0,,,62,90
29120,note_on,0,0,2,,,,,,,,,,,,,,1,,,43,90
29120,note_off,160,0,2,,,,,,,,,,,,,,1,,,42,64
29260,note_off,140,0,1,,,,,,,,,,,,,,0,,,66,64
29260,note_off,0,0,1,,,,,,,,,,,,,,0,,,57,64
29260,note_off,0,0,1,,,,,,,,,,,,,,0,,,62,64
29280,note_on,20,0,1,,,,,,,,,,,,,,0,,,57,90
29280,note_on,0,0,1,,,,,,,,,,,,,,0,,,62,90
29280,note_on,0,0,2,,,,,,,,,,,,,,1,,,45,90
29280,note_off,160,0,2,,,,,,,,,,,,,,1,,,43,64
29280,note_on,0,0,1,,,,,,,,,,,,,,0,,,66,90
29420,note_off,140,0,1,,,,,,,,,,,,,,0,,,57,64
29420,note_off,0,0,1,,,,,,,,,,,,,,0,,,66,64
29420,note_off,0,0,1,,,,,,,,,,,,,,0,,,62,64
29440,note_on,0,0,2,,,,,,,,,,,,,,1,,,47,90
29440,note_off,160,0,2,,,,,,,,,,,,,,1,,,45,64
29440,note_on,20,0,1,,,,,,,,,,,,,,0,,,57,90
29440,note_on,0,0,1,,,,,,,,,,,,,,0,,,66,90
29440,note_on,0,0,1,,,,,,,,,,,,,,0,,,62,90
29470,control_change,29190,0,3,,,,,,,,,,,,,,2,11,98,,
29470,control_change,29090,0,4,,,,,,,,,,,,,,3,11,98,,
29580,note_off,140,0,1,,,,,,,,,,,,,,0,,,57,64
29580,note_off,0,0,1,,,,,,,,,,,,,,0,,,62,64
29580,note_off,0,0,1,,,,,,,,,,,,,,0,,,66,64
29600,note_on,0,0,1,,,,,,,,,,,,,,0,,,62,90
29600,note_on,0,0,1,,,,,,,,,,,,,,0,,,66,90
29600,note_on,20,0,1,,,,,,,,,,,,,,0,,,57,90
29600,note_off,160,0,2,,,,,,,,,,,,,,1,,,47,64
29600,note_on,0,0,2,,,,,,,,,,,,,,1,,,49,90
29740,note_off,0,0,1,,,,,,,,,,,,,,0,,,62,64
29740,note_off,140,0,1,,,,,,,,,,,,,,0,,,57,64
29740,note_off,0,0,1,,,,,,,,,,,,,,0,,,66,64
29760,note_off,160,0,2,,,,,,,,,,,,,,1,,,49,64
29760,note_on,20,0,1,,,,,,,,,,,,,,0,,,57,90
29760,note_on,0,0,1,,,,,,,,,,,,,,0,,,66,90
29760,note_on,0,0,2,,,,,,,,,,,,,,1,,,50,90
29760,note_on,0,0,1,,,,,,,,,,,,,,0,,,62,90
29900,note_off,0,0,1,,,,,,,,,,,,,,0,,,62,64
29900,note_off,0,0,1,,,,,,,,,,,,,,0,,,66,64
29900,note_off,140,0,1,,,,,,,,,,,,,,0,,,57,64
29920,note_on,20,0,1,,,,,,,,,,,,,,0,,,66,90
29920,note_on,0,0,1,,,,,,,,,,,,,,0,,,57,90
29920,note_on,0,0,1,,,,,,,,,,,,,,0,,,62,90
30060,note_off,140,0,1,,,,,,,,,,,,,,0,,,66,64
30060,note_off,0,0,1,,,,,,,,,,,,,,0,,,57,64
30060,note_off,0,0,1,,,,,,,,,,,,,,0,,,62,64
30080,note_on,20,0,1,,,,,,,,,,,,,,0,,,66,90
30080,note_on,0,0,1,,,,,,,,,,,,,,0,,,57,90
30080,note_on,0,0,1,,,,,,,,,,,,,,0,,,62,90
30220,note_off,0,0,1,,,,,,,,,,,,,,0,,,62,64
30220,note_off,140,0,1,,,,,,,,,,,,,,0,,,66,64
30220,note_off,0,0,1,,,,,,,,,,,,,,0,,,57,64
30240,note_on,20,0,1,,,,,,,,,,,,,,0,,,57,90
30240,note_on,0,0,1,,,,,,,,,,,,,,0,,,62,90
30240,note_on,0,0,1,,,,,,,,,,,,,,0,,,66,90
30240,note_on,770,0,3,,,,,,,,,,,,,,2,,,69,90
30380,note_off,140,0,1,,,,,,,,,,,,,,0,,,57,64
30380,note_off,0,0,1,,,,,,,,,,,,,,0,,,62,64
30380,note_off,0,0,1,,,,,,,,,,,,,,0,,,66,64
30400,note_on,20,0,1,,,,,,,,,,,,,,0,,,57,90
30400,note_on,0,0,1,,,,,,,,,,,,,,0,,,62,90
30400,note_on,0,0,1,,,,,,,,,,,,,,0,,,66,90
30540,note_off,140,0,1,,,,,,,,,,,,,,0,,,57,64
30540,note_off,0,0,1,,,,,,,,,,,,,,0,,,66,64
30540,note_off,0,0,1,,,,,,,,,,,,,,0,,,62,64
30560,note_on,20,0,1,,,,,,,,,,,,,,0,,,57,90
30560,note_on,0,0,1,,,,,,,,,,,,,,0,,,62,90
30560,note_on,0,0,1,,,,,,,,,,,,,,0,,,66,90
30700,note_off,140,0,1,,,,,,,,,,,,,,0,,,57,64
30700,note_off,0,0,1,,,,,,,,,,,,,,0,,,62,64
30700,note_off,0,0,1,,,,,,,,,,,,,,0,,,66,64
30720,note_off,480,0,3,,,,,,,,,,,,,,2,,,69,64
30720,note_on,0,0,3,,,,,,,,,,,,,,2,,,70,90
30720,note_on,0,0,1,,,,,,,,,,,,,,0,,,67,90
30720,note_on,0,0,1,,,,,,,,,,,,,,0,,,62,90
30720,note_on,20,0,1,,,,,,,,,,,,,,0,,,58,90
30860,note_off,0,0,1,,,,,,,,,,,,,,0,,,62,64
30860,note_off,140,0,1,,,,,,,,,,,,,,0,,,58,64
30860,note_off,0,0,1,,,,,,,,,,,,,,0,,,67,64
30880,note_on,0,0,1,,,,,,,,,,,,,,0,,,58,90
30880,note_on,0,0,1,,,,,,,,,,,,,,0,,,62,90
30880,note_on,20,0,1,,,,,,,,,,,,,,0,,,67,90
31020,note_off,140,0,1,,,,,,,,,,,,,,0,,,67,64
31020,note_off,0,0,1,,,,,,,,,,,,,,0,,,58,64
31020,note_off,0,0,1,,,,,,,,,,,,,,0,,,62,64
31040,note_on,20,0,1,,,,,,,,,,,,,,0,,,67,90
31040,note_on,0,0,1,,,,,,,,,,,,,,0,,,58,90
31040,note_on,0,0,1,,,,,,,,,,,,,,0,,,62,90
31180,note_off,0,0,1,,,,,,,,,,,,,,0,,,58,64
31180,note_off,140,0,1,,,,,,,,,,,,,,0,,,67,64
31180,note_off,0,0,1,,,,,,,,,,,,,,0,,,62,64
31200,note_on,20,0,1,,,,,,,,,,,,,,0,,,58,90
31200,note_on,0,0,1,,,,,,,,,,,,,,0,,,67,90
31200,note_on,0,0,1,,,,,,,,,,,,,,0,,,62,90
31340,note_off,140,0,1,,,,,,,,,,,,,,0,,,58,64
31340,note_off,0,0,1,,,,,,,,,,,,,,0,,,67,64
31340,note_off,0,0,1,,,,,,,,,,,,,,0,,,62,64
31360,note_on,20,0,1,,,,,,,,,,,,,,0,,,58,90
31360,note_on,0,0,1,,,,,,,,,,,,,,0,,,67,90
31360,note_on,0,0,1,,,,,,,,,,,,,,0,,,62,90
31500,note_off,0,0,1,,,,,,,,,,,,,,0,,,67,64
31500,note_off,0,0,1,,,,,,,,,,,,,,0,,,62,64
31500,note_off,140,0,1,,,,,,,,,,,,,,0,,,58,64
31520,note_on,0,0,1,,,,,,,,,,,,,,0,,,67,90
31520,note_on,20,0,1,,,,,,,,,,,,,,0,,,58,90
31520,note_on,0,0,1,,,,,,,,,,,,,,0,,,62,90
31660,note_off,140,0,1,,,,,,,,,,,,,,0,,,58,64
31660,note_off,0,0,1,,,,,,,,,,,,,,0,,,67,64
31660,note_off,0,0,1,,,,,,,,,,,,,,0,,,62,64
31680,note_on,0,0,1,,,,,,,,,,,,,,0,,,67,90
31680,note_on,0,0,3,,,,,,,,,,,,,,2,,,70,90
31680,note_on,20,0,1,,,,,,,,,,,,,,0,,,58,90
31680,note_off,960,0,3,,,,,,,,,,,,,,2,,,70,64
31680,note_on,0,0,1,,,,,,,,,,,,,,0,,,62,90
31820,note_off,140,0,1,,,,,,,,,,,,,,0,,,58,64
31820,note_off,0,0,1,,,,,,,,,,,,,,0,,,67,64
31820,note_off,0,0,1,,,,,,,,,,,,,,0,,,62,64
31840,note_on,0,0,1,,,,,,,,,,,,,,0,,,62,90
31840,note_on,0,0,1,,,,,,,,,,,,,,0,,,58,90
31840,note_on,20,0,1,,,,,,,,,,,,,,0,,,67,90
31980,note_off,140,0,1,,,,,,,,,,,,,,0,,,67,64
31980,note_off,0,0,1,,,,,,,,,,,,,,0,,,62,64
31980,note_off,0,0,1,,,,,,,,,,,,,,0,,,58,64
32000,note_on,0,0,1,,,,,,,,,,,,,,0,,,62,90
32000,note_on,20,0,1,,,,,,,,,,,,,,0,,,67,90
32000,note_on,0,0,1,,,,,,,,,,,,,,0,,,58,90
32140,note_off,140,0,1,,,,,,,,,,,,,,0,,,67,64
32140,note_off,0,0,1,,,,,,,,,,,,,,0,,,58,64
32140,note_off,0,0,1,,,,,,,,,,,,,,0,,,62,64
32160,note_off,480,0,3,,,,,,,,,,,,,,2,,,70,64
32160,note_on,0,0,3,,,,,,,,,,,,,,2,,,67,90
32160,note_on,20,0,1,,,,,,,,,,,,,,0,,,58,90
32160,note_on,0,0,1,,,,,,,,,,,,,,0,,,67,90
32160,note_on,0,0,1,,,,,,,,,,,,,,0,,,62,90
32300,note_off,0,0,1,,,,,,,,,,,,,,0,,,62,64
32300,note_off,140,0,1,,,,,,,,,,,,,,0,,,58,64
32300,note_off,0,0,1,,,,,,,,,,,,,,0,,,67,64
32320,note_on,20,0,1,,,,,,,,,,,,,,0,,,58,90
32320,note_on,0,0,1,,,,,,,,,,,,,,0,,,62,90
32320,note_on,0,0,1,,,,,,,,,,,,,,0,,,67,90
32460,note_off,140,0,1,,,,,,,,,,,,,,0,,,58,64
32460,note_off,0,0,1,,,,,,,,,,,,,,0,,,62,64
32460,note_off,0,0,1,,,,,,,,,,,,,,0,,,67,64
32480,note_on,20,0,1,,,,,,,,,,,,,,0,,,58,90
32480,note_on,0,0,1,,,,,,,,,,,,,,0,,,62,90
32480,note_on,0,0,1,,,,,,,,,,,,,,0,,,67,90
32620,note_off,140,0,1,,,,,,,,,,,,,,0,,,58,64
32620,note_off,0,0,1,,,,,,,,,,,,,,0,,,62,64
32620,note_off,0,0,1,,,,,,,,,,,,,,0,,,67,64
32640,note_off,480,0,3,,,,,,,,,,,,,,2,,,67,64
32640,note_on,0,0,2,,,,,,,,,,,,,,1,,,38,90
32640,note_off,2880,0,2,,,,,,,,,,,,,,1,,,50,64
32640,note_on,0,0,1,,,,,,,,,,,,,,0,,,62,90
32640,note_on,0,0,1,,,,,,,,,,,,,,0,,,66,90
32640,note_on,0,0,3,,,,,,,,,,,,,,2,,,69,90
32640,note_on,20,0,1,,,,,,,,,,,,,,0,,,57,90
32780,note_off,140,0,1,,,,,,,,,,,,,,0,,,57,64
32780,note_off,0,0,1,,,,,,,,,,,,,,0,,,66,64
32780,note_off,0,0,1,,,,,,,,,,,,,,0,,,62,64
32800,note_on,0,0,1,,,,,,,,,,,,,,0,,,57,90
32800,note_off,160,0,2,,,,,,,,,,,,,,1,,,38,64
32800,note_on,0,0,2,,,,,,,,,,,,,,1,,,42,90
32800,note_on,20,0,1,,,,,,,,,,,,,,0,,,66,90
32800,note_on,0,0,1,,,,,,,,,,,,,,0,,,62,90
32940,note_off,140,0,1,,,,,,,,,,,,,,0,,,66,64
32940,note_off,0,0,1,,,,,,,,,,,,,,0,,,57,64
32940,note_off,0,0,1,,,,,,,,,,,,,,0,,,62,64
32960,note_on,20,0,1,,,,,,,,,,,,,,0,,,66,90
32960,note_on,0,0,1,,,,,,,,,,,,,,0,,,62,90
32960,note_on,0,0,1,,,,,,,,,,,,,,0,,,57,90
32960,note_off,160,0,2,,,,,,,,,,,,,,1,,,42,64
32960,note_on,0,0,2,,,,,,,,,,,,,,1,,,43,90
33100,note_off,140,0,1,,,,,,,,,,,,,,0,,,66,64
33100,note_off,0,0,1,,,,,,,,,,,,,,0,,,57,64
33100,note_off,0,0,1,,,,,,,,,,,,,,0,,,62,64
33120,note_on,0,0,1,,,,,,,,,,,,,,0,,,62,90
33120,note_on,0,0,2,,,,,,,,,,,,,,1,,,45,90
33120,note_off,160,0,2,,,,,,,,,,,,,,1,,,43,64
33120,note_on,20,0,1,,,,,,,,,,,,,,0,,,57,90
33120,note_on,0,0,1,,,,,,,,,,,,,,0,,,66,90
33260,note_off,0,0,1,,,,,,,,,,,,,,0,,,62,64
33260,note_off,140,0,1,,,,,,,,,,,,,,0,,,57,64
33260,note_off,0,0,1,,,,,,,,,,,,,,0,,,66,64
33280,note_off,160,0,2,,,,,,,,,,,,,,1,,,45,64
33280,note_on,20,0,1,,,,,,,,,,,,,,0,,,57,90
33280,note_on,0,0,2,,,,,,,,,,,,,,1,,,47,90
33280,note_on,0,0,1,,,,,,,,,,,,,,0,,,66,90
33280,note_on,0,0,1,,,,,,,,,,,,,,0,,,62,90
33420,note_off,0,0,1,,,,,,,,,,,,,,0,,,62,64
33420,note_off,140,0,1,,,,,,,,,,,,,,0,,,57,64
33420,note_off,0,0,1,,,,,,,,,,,,,,0,,,66,64
33440,note_on,20,0,1,,,,,,,,,,,,,,0,,,57,90
33440,note_on,0,0,2,,,,,,,,,,,,,,1,,,49,90
33440,note_off,160,0,2,,,,,,,,,,,,,,1,,,47,64
33440,note_on,0,0,1,,,,,,,,,,,,,,0,,,62,90
33440,note_on,0,0,1,,,,,,,,,,,,,,0,,,66,90
33580,note_off,140,0,1,,,,,,,,,,,,,,0,,,57,64
33580,note_off,0,0,1,,,,,,,,,,,,,,0,,,66,64
33580,note_off,0,0,1,,,,,,,,,,,,,,0,,,62,64
33600,note_off,160,0,2,,,,,,,,,,,,,,1,,,49,64
33600,note_on,20,0,1,,,,,,,,,,,,,,0,,,57,90
33600,note_on,0,0,1,,,,,,,,,,,,,,0,,,66,90
33600,note_on,0,0,1,,,,,,,,,,,,,,0,,,62,90
33600,note_on,0,0,2,,,,,,,,,,,,,,1,,,50,90
33740,note_off,140,0,1,,,,,,,,,,,,,,0,,,57,64
33740,note_off,0,0,1,,,,,,,,,,,,,,0,,,66,64
33740,note_off,0,0,1,,,,,,,,,,,,,,0,,,62,64
33760,note_on,20,0,1,,,,,,,,,,,,,,0,,,66,90
33760,note_on,0,0,1,,,,,,,,,,,,,,0,,,57,90
33760,note_on,0,0,1,,,,,,,,,,,,,,0,,,62,90
33860,note_off,1220,0,3,,,,,,,,,,,,,,2,,,69,64
33900,note_off,0,0,1,,,,,,,,,,,,,,0,,,62,64
33900,note_off,0,0,1,,,,,,,,,,,,,,0,,,57,64
33900,note_off,140,0,1,,,,,,,,,,,,,,0,,,66,64
33920,note_on,20,0,1,,,,,,,,,,,,,,0,,,66,90
33920,note_on,0,0,1,,,,,,,,,,,,,,0,,,57,90
33920,note_on,0,0,1,,,,,,,,,,,,,,0,,,62,90
34060,note_off,140,0,1,,,,,,,,,,,,,,0,,,66,64
34060,note_off,0,0,1,,,,,,,,,,,,,,0,,,57,64
34060,note_off,0,0,1,,,,,,,,,,,,,,0,,,62,64
34080,note_on,20,0,1,,,,,,,,,,,,,,0,,,57,90
34080,note_on,0,0,1,,,,,,,,,,,,,,0,,,62,90
34080,note_on,0,0,1,,,,,,,,,,,,,,0,,,66,90
34080,note_on,220,0,3,,,,,,,,,,,,,,2,,,69,90
34220,note_off,140,0,1,,,,,,,,,,,,,,0,,,57,64
34220,note_off,0,0,1,,,,,,,,,,,,,,0,,,62,64
34220,note_off,0,0,1,,,,,,,,,,,,,,0,,,66,64
34240,note_on,0,0,1,,,,,,,,,,,,,,0,,,66,90
34240,note_on,0,0,1,,,,,,,,,,,,,,0,,,62,90
34240,note_on,20,0,1,,,,,,,,,,,,,,0,,,57,90
34380,note_off,0,0,1,,,,,,,,,,,,,,0,,,62,64
34380,note_off,0,0,1,,,,,,,,,,,,,,0,,,66,64
34380,note_off,140,0,1,,,,,,,,,,,,,,0,,,57,64
34400,note_on,20,0,1,,,,,,,,,,,,,,0,,,57,90
34400,note_on,0,0,1,,,,,,,,,,,,,,0,,,62,90
34400,note_on,0,0,1,,,,,,,,,,,,,,0,,,66,90
34540,note_off,140,0,1,,,,,,,,,,,,,,0,,,57,64
34540,note_off,0,0,1,,,,,,,,,,,,,,0,,,66,64
34540,note_off,0,0,1,,,,,,,,,,,,,,0,,,62,64
34560,note_on,0,0,1,,,,,,,,,,,,,,0,,,67,90
34560,note_on,0,0,1,,,,,,,,,,,,,,0,,,62,90
34560,note_on,0,0,3,,,,,,,,,,,,,,2,,,70,90
34560,note_off,480,0,3,,,,,,,,,,,,,,2,,,69,64
34560,note_on,20,0,1,,,,,,,,,,,,,,0,,,58,90
34700,note_off,0,0,1,,,,,,,,,,,,,,0,,,62,64
34700,note_off,0,0,1,,,,,,,,,,,,,,0,,,67,64
34700,note_off,140,0,1,,,,,,,,,,,,,,0,,,58,64
34720,note_on,0,0,1,,,,,,,,,,,,,,0,,,58,90
34720,note_on,20,0,1,,,,,,,,,,,,,,0,,,67,90
34720,note_on,0,0,1,,,,,,,,,,,,,,0,,,62,90
34860,note_off,140,0,1,,,,,,,,,,,,,,0,,,67,64
34860,note_off,0,0,1,,,,,,,,,,,,,,0,,,62,64
34860,note_off,0,0,1,,,,,,,,,,,,,,0,,,58,64
34880,note_on,20,0,1,,,,,,,,,,,,,,0,,,67,90
34880,note_on,0,0,1,,,,,,,,,,,,,,0,,,58,90
34880,note_on,0,0,1,,,,,,,,,,,,,,0,,,62,90
35020,note_off,140,0,1,,,,,,,,,,,,,,0,,,67,64
35020,note_off,0,0,1,,,,,,,,,,,,,,0,,,58,64
35020,note_off,0,0,1,,,,,,,,,,,,,,0,,,62,64
35040,note_on,20,0,1,,,,,,,,,,,,,,0,,,58,90
35040,note_on,0,0,1,,,,,,,,,,,,,,0,,,67,90
35040,note_on,0,0,1,,,,,,,,,,,,,,0,,,62,90
35180,note_off,140,0,1,,,,,,,,,,,,,,0,,,58,64
35180,note_off,0,0,1,,,,,,,,,,,,,,0,,,67,64
35180,note_off,0,0,1,,,,,,,,,,,,,,0,,,62,64
35200,note_on,0,0,1,,,,,,,,,,,,,,0,,,62,90
35200,note_on,0,0,1,,,,,,,,,,,,,,0,,,67,90
35200,note_on,20,0,1,,,,,,,,,,,,,,0,,,58,90
35340,note_off,140,0,1,,,,,,,,,,,,,,0,,,58,64
35340,note_off,0,0,1,,,,,,,,,,,,,,0,,,62,64
35340,note_off,0,0,1,,,,,,,,,,,,,,0,,,67,64
35360,note_on,20,0,1,,,,,,,,,,,,,,0,,,58,90
35360,note_on,0,0,1,,,,,,,,,,,,,,0,,,62,90
35360,note_on,0,0,1,,,,,,,,,,,,,,0,,,67,90
35500,note_off,0,0,1,,,,,,,,,,,,,,0,,,67,64
35500,note_off,140,0,1,,,,,,,,,,,,,,0,,,58,64
35500,note_off,0,0,1,,,,,,,,,,,,,,0,,,62,64
35520,note_on,20,0,1,,,,,,,,,,,,,,0,,,58,90
35520,note_on,0,0,1,,,,,,,,,,,,,,0,,,67,90
35520,note_on,0,0,1,,,,,,,,,,,,,,0,,,62,90
35520,note_on,0,0,3,,,,,,,,,,,,,,2,,,67,90
35520,note_off,960,0,3,,,,,,,,,,,,,,2,,,70,64
35660,note_off,140,0,1,,,,,,,,,,,,,,0,,,58,64
35660,note_off,0,0,1,,,,,,,,,,,,,,0,,,62,64
35660,note_off,0,0,1,,,,,,,,,,,,,,0,,,67,64
35680,note_on,20,0,1,,,,,,,,,,,,,,0,,,67,90
35680,note_on,0,0,1,,,,,,,,,,,,,,0,,,58,90
35680,note_on,0,0,1,,,,,,,,,,,,,,0,,,62,90
35820,note_off,140,0,1,,,,,,,,,,,,,,0,,,67,64
35820,note_off,0,0,1,,,,,,,,,,,,,,0,,,58,64
35820,note_off,0,0,1,,,,,,,,,,,,,,0,,,62,64
35840,note_on,0,0,1,,,,,,,,,,,,,,0,,,58,90
35840,note_on,0,0,1,,,,,,,,,,,,,,0,,,62,90
35840,note_on,20,0,1,,,,,,,,,,,,,,0,,,67,90
35980,note_off,0,0,1,,,,,,,,,,,,,,0,,,58,64
35980,note_off,0,0,1,,,,,,,,,,,,,,0,,,62,64
35980,note_off,140,0,1,,,,,,,,,,,,,,0,,,67,64
36000,note_on,20,0,1,,,,,,,,,,,,,,0,,,58,90
36000,note_on,0,0,1,,,,,,,,,,,,,,0,,,67,90
36000,note_on,0,0,1,,,,,,,,,,,,,,0,,,62,90
36140,note_off,140,0,1,,,,,,,,,,,,,,0,,,58,64
36140,note_off,0,0,1,,,,,,,,,,,,,,0,,,62,64
36140,note_off,0,0,1,,,,,,,,,,,,,,0,,,67,64
36160,note_on,0,0,1,,,,,,,,,,,,,,0,,,67,90
36160,note_on,20,0,1,,,,,,,,,,,,,,0,,,58,90
36160,note_on,0,0,1,,,,,,,,,,,,,,0,,,62,90
36300,note_off,0,0,1,,,,,,,,,,,,,,0,,,62,64
36300,note_off,140,0,1,,,,,,,,,,,,,,0,,,58,64
36300,note_off,0,0,1,,,,,,,,,,,,,,0,,,67,64
36320,note_on,20,0,1,,,,,,,,,,,,,,0,,,58,90
36320,note_on,0,0,1,,,,,,,,,,,,,,0,,,62,90
36320,note_on,0,0,1,,,,,,,,,,,,,,0,,,67,90
36460,note_off,140,0,1,,,,,,,,,,,,,,0,,,58,64
36460,note_off,0,0,1,,,,,,,,,,,,,,0,,,62,64
36460,note_off,0,0,1,,,,,,,,,,,,,,0,,,67,64
36480,note_on,0,0,1,,,,,,,,,,,,,,0,,,66,90
36480,note_on,20,0,1,,,,,,,,,,,,,,0,,,57,90
36480,note_on,0,0,3,,,,,,,,,,,,,,2,,,74,90
36480,note_on,0,0,2,,,,,,,,,,,,,,1,,,38,90
36480,note_off,2880,0,2,,,,,,,,,,,,,,1,,,50,64
36480,note_on,0,0,1,,,,,,,,,,,,,,0,,,62,90
36480,note_off,960,0,3,,,,,,,,,,,,,,2,,,67,64
36620,note_off,0,0,1,,,,,,,,,,,,,,0,,,66,64
36620,note_off,0,0,1,,,,,,,,,,,,,,0,,,62,64
36620,note_off,140,0,1,,,,,,,,,,,,,,0,,,57,64
36640,note_on,20,0,1,,,,,,,,,,,,,,0,,,66,90
36640,note_on,0,0,2,,,,,,,,,,,,,,1,,,42,90
36640,note_off,160,0,2,,,,,,,,,,,,,,1,,,38,64
36640,note_on,0,0,1,,,,,,,,,,,,,,0,,,57,90
36640,note_on,0,0,1,,,,,,,,,,,,,,0,,,62,90
36780,note_off,140,0,1,,,,,,,,,,,,,,0,,,66,64
36780,note_off,0,0,1,,,,,,,,,,,,,,0,,,57,64
36780,note_off,0,0,1,,,,,,,,,,,,,,0,,,62,64
36800,note_off,160,0,2,,,,,,,,,,,,,,1,,,42,64
36800,note_on,0,0,1,,,,,,,,,,,,,,0,,,62,90
36800,note_on,0,0,2,,,,,,,,,,,,,,1,,,43,90
36800,note_on,20,0,1,,,,,,,,,,,,,,0,,,66,90
36800,note_on,0,0,1,,,,,,,,,,,,,,0,,,57,90
36940,note_off,140,0,1,,,,,,,,,,,,,,0,,,66,64
36940,note_off,0,0,1,,,,,,,,,,,,,,0,,,57,64
36940,note_off,0,0,1,,,,,,,,,,,,,,0,,,62,64
36960,note_off,160,0,2,,,,,,,,,,,,,,1,,,43,64
36960,note_on,0,0,1,,,,,,,,,,,,,,0,,,66,90
36960,note_on,0,0,1,,,,,,,,,,,,,,0,,,62,90
36960,note_on,0,0,2,,,,,,,,,,,,,,1,,,45,90
36960,note_on,20,0,1,,,,,,,,,,,,,,0,,,57,90
37100,note_off,140,0,1,,,,,,,,,,,,,,0,,,57,64
37100,note_off,0,0,1,,,,,,,,,,,,,,0,,,66,64
37100,note_off,0,0,1,,,,,,,,,,,,,,0,,,62,64
37120,note_off,160,0,2,,,,,,,,,,,,,,1,,,45,64
37120,note_on,20,0,1,,,,,,,,,,,,,,0,,,57,90
37120,note_on,0,0,1,,,,,,,,,,,,,,0,,,66,90
37120,note_on,0,0,1,,,,,,,,,,,,,,0,,,62,90
37120,note_on,0,0,2,,,,,,,,,,,,,,1,,,47,90
37260,note_off,0,0,1,,,,,,,,,,,,,,0,,,66,64
37260,note_off,140,0,1,,,,,,,,,,,,,,0,,,57,64
37260,note_off,0,0,1,,,,,,,,,,,,,,0,,,62,64
37280,note_on,0,0,1,,,,,,,,,,,,,,0,,,62,90
37280,note_on,0,0,1,,,,,,,,,,,,,,0,,,66,90
37280,note_on,20,0,1,,,,,,,,,,,,,,0,,,57,90
37280,note_on,0,0,2,,,,,,,,,,,,,,1,,,49,90
37280,note_off,160,0,2,,,,,,,,,,,,,,1,,,47,64
37420,note_off,0,0,1,,,,,,,,,,,,,,0,,,66,64
37420,note_off,0,0,1,,,,,,,,,,,,,,0,,,62,64
37420,note_off,140,0,1,,,,,,,,,,,,,,0,,,57,64
37440,note_on,20,0,1,,,,,,,,,,,,,,0,,,57,90
37440,note_on,0,0,1,,,,,,,,,,,,,,0,,,62,90
37440,note_on,0,0,2,,,,,,,,,,,,,,1,,,50,90
37440,note_off,160,0,2,,,,,,,,,,,,,,1,,,49,64
37440,note_on,0,0,1,,,,,,,,,,,,,,0,,,66,90
37580,note_off,0,0,1,,,,,,,,,,,,,,0,,,66,64
37580,note_off,140,0,1,,,,,,,,,,,,,,0,,,57,64
37580,note_off,0,0,1,,,,,,,,,,,,,,0,,,62,64
37600,note_on,20,0,1,,,,,,,,,,,,,,0,,,66,90
37600,note_on,0,0,1,,,,,,,,,,,,,,0,,,57,90
37600,note_on,0,0,1,,,,,,,,,,,,,,0,,,62,90
37740,note_off,140,0,1,,,,,,,,,,,,,,0,,,66,64
37740,note_off,0,0,1,,,,,,,,,,,,,,0,,,57,64
37740,note_off,0,0,1,,,,,,,,,,,,,,0,,,62,64
37760,note_on,20,0,1,,,,,,,,,,,,,,0,,,66,90
37760,note_on,0,0,1,,,,,,,,,,,,,,0,,,57,90
37760,note_on,0,0,1,,,,,,,,,,,,,,0,,,62,90
37900,note_off,0,0,1,,,,,,,,,,,,,,0,,,62,64
37900,note_off,0,0,1,,,,,,,,,,,,,,0,,,57,64
37900,note_off,140,0,1,,,,,,,,,,,,,,0,,,66,64
37920,note_on,20,0,1,,,,,,,,,,,,,,0,,,57,90
37920,note_on,0,0,1,,,,,,,,,,,,,,0,,,62,90
37920,note_on,0,0,1,,,,,,,,,,,,,,0,,,66,90
38060,note_off,140,0,1,,,,,,,,,,,,,,0,,,57,64
38060,note_off,0,0,1,,,,,,,,,,,,,,0,,,62,64
38060,note_off,0,0,1,,,,,,,,,,,,,,0,,,66,64
38080,note_on,20,0,1,,,,,,,,,,,,,,0,,,57,90
38080,note_on,0,0,1,,,,,,,,,,,,,,0,,,62,90
38080,note_on,0,0,1,,,,,,,,,,,,,,0,,,66,90
38170,note_off,1690,0,3,,,,,,,,,,,,,,2,,,74,64
38220,note_off,140,0,1,,,,,,,,,,,,,,0,,,57,64
38220,note_off,0,0,1,,,,,,,,,,,,,,0,,,62,64
38220,note_off,0,0,1,,,,,,,,,,,,,,0,,,66,64
38240,note_on,20,0,1,,,,,,,,,,,,,,0,,,57,90
38240,note_on,0,0,1,,,,,,,,,,,,,,0,,,62,90
38240,note_on,0,0,1,,,,,,,,,,,,,,0,,,66,90
38380,note_off,140,0,1,,,,,,,,,,,,,,0,,,57,64
38380,note_off,0,0,1,,,,,,,,,,,,,,0,,,62,64
38380,note_off,0,0,1,,,,,,,,,,,,,,0,,,66,64
38400,note_on,20,0,1,,,,,,,,,,,,,,0,,,57,90
38400,note_on,0,0,1,,,,,,,,,,,,,,0,,,62,90
38400,note_on,0,0,1,,,,,,,,,,,,,,0,,,66,90
38540,note_off,140,0,1,,,,,,,,,,,,,,0,,,57,64
38540,note_off,0,0,1,,,,,,,,,,,,,,0,,,62,64
38540,note_off,0,0,1,,,,,,,,,,,,,,0,,,66,64
38560,note_on,0,0,1,,,,,,,,,,,,,,0,,,57,90
38560,note_on,20,0,1,,,,,,,,,,,,,,0,,,66,90
38560,note_on,0,0,1,,,,,,,,,,,,,,0,,,62,90
38700,note_off,140,0,1,,,,,,,,,,,,,,0,,,66,64
38700,note_off,0,0,1,,,,,,,,,,,,,,0,,,57,64
38700,note_off,0,0,1,,,,,,,,,,,,,,0,,,62,64
38720,note_on,0,0,1,,,,,,,,,,,,,,0,,,62,90
38720,note_on,0,0,1,,,,,,,,,,,,,,0,,,57,90
38720,note_on,20,0,1,,,,,,,,,,,,,,0,,,66,90
38730,control_change,9260,0,4,,,,,,,,,,,,,,3,11,110,,
38730,control_change,560,0,3,,,,,,,,,,,,,,2,11,110,,
38860,note_off,140,0,1,,,,,,,,,,,,,,0,,,66,64
38860,note_off,0,0,1,,,,,,,,,,,,,,0,,,57,64
38860,note_off,0,0,1,,,,,,,,,,,,,,0,,,62,64
38880,note_on,20,0,1,,,,,,,,,,,,,,0,,,57,90
38880,note_on,0,0,1,,,,,,,,,,,,,,0,,,66,90
38880,note_on,0,0,1,,,,,,,,,,,,,,0,,,62,90
39020,note_off,140,0,1,,,,,,,,,,,,,,0,,,57,64
39020,note_off,0,0,1,,,,,,,,,,,,,,0,,,66,64
39020,note_off,0,0,1,,,,,,,,,,,,,,0,,,62,64
39040,note_on,20,0,1,,,,,,,,,,,,,,0,,,57,90
39040,note_on,0,0,1,,,,,,,,,,,,,,0,,,66,90
39040,note_on,0,0,1,,,,,,,,,,,,,,0,,,62,90
39180,note_off,0,0,1,,,,,,,,,,,,,,0,,,62,64
39180,note_off,140,0,1,,,,,,,,,,,,,,0,,,57,64
39180,note_off,0,0,1,,,,,,,,,,,,,,0,,,66,64
39200,note_on,20,0,1,,,,,,,,,,,,,,0,,,57,90
39200,note_on,0,0,1,,,,,,,,,,,,,,0,,,66,90
39200,note_on,0,0,1,,,,,,,,,,,,,,0,,,62,90
39340,note_off,140,0,1,,,,,,,,,,,,,,0,,,57,64
39340,note_off,0,0,1,,,,,,,,,,,,,,0,,,66,64
39340,note_off,0,0,1,,,,,,,,,,,,,,0,,,62,64
39360,note_on,20,0,1,,,,,,,,,,,,,,0,,,57,90
39360,note_on,0,0,1,,,,,,,,,,,,,,0,,,66,90
39360,note_on,0,0,1,,,,,,,,,,,,,,0,,,62,90
39500,note_off,140,0,1,,,,,,,,,,,,,,0,,,57,64
39500,note_off,0,0,1,,,,,,,,,,,,,,0,,,66,64
39500,note_off,0,0,1,,,,,,,,,,,,,,0,,,62,64
39520,note_on,0,0,1,,,,,,,,,,,,,,0,,,62,90
39520,note_on,20,0,1,,,,,,,,,,,,,,0,,,66,90
39520,note_on,0,0,1,,,,,,,,,,,,,,0,,,57,90
39660,note_off,140,0,1,,,,,,,,,,,,,,0,,,66,64
39660,note_off,0,0,1,,,,,,,,,,,,,,0,,,57,64
39660,note_off,0,0,1,,,,,,,,,,,,,,0,,,62,64
39680,note_on,20,0,1,,,,,,,,,,,,,,0,,,66,90
39680,note_on,0,0,1,,,,,,,,,,,,,,0,,,57,90
39680,note_on,0,0,1,,,,,,,,,,,,,,0,,,62,90
39820,note_off,140,0,1,,,,,,,,,,,,,,0,,,66,64
39820,note_off,0,0,1,,,,,,,,,,,,,,0,,,57,64
39820,note_off,0,0,1,,,,,,,,,,,,,,0,,,62,64
39840,note_on,20,0,1,,,,,,,,,,,,,,0,,,57,90
39840,note_on,0,0,1,,,,,,,,,,,,,,0,,,62,90
39840,note_on,0,0,1,,,,,,,,,,,,,,0,,,66,90
39840,note_on,1110,0,3,,,,,,,,,,,,,,2,,,74,90
39980,note_off,0,0,1,,,,,,,,,,,,,,0,,,66,64
39980,note_off,140,0,1,,,,,,,,,,,,,,0,,,57,64
39980,note_off,0,0,1,,,,,,,,,,,,,,0,,,62,64
40000,note_on,20,0,1,,,,,,,,,,,,,,0,,,57,90
40000,note_on,0,0,1,,,,,,,,,,,,,,0,,,62,90
40000,note_on,0,0,1,,,,,,,,,,,,,,0,,,66,90
40140,note_off,140,0,1,,,,,,,,,,,,,,0,,,57,64
40140,note_off,0,0,1,,,,,,,,,,,,,,0,,,62,64
40140,note_off,0,0,1,,,,,,,,,,,,,,0,,,66,64
40160,note_on,0,0,1,,,,,,,,,,,,,,0,,,62,90
40160,note_on,0,0,1,,,,,,,,,,,,,,0,,,66,90
40160,note_on,20,0,1,,,,,,,,,,,,,,0,,,57,90
40300,note_off,140,0,1,,,,,,,,,,,,,,0,,,57,64
40300,note_off,0,0,1,,,,,,,,,,,,,,0,,,62,64
40300,note_off,0,0,1,,,,,,,,,,,,,,0,,,66,64
40320,note_on,0,0,3,,,,,,,,,,,,,,2,,,74,90
40320,note_off,480,0,3,,,,,,,,,,,,,,2,,,74,64
40320,note_on,0,0,2,,,,,,,,,,,,,,1,,,31,90
40320,note_off,2880,0,2,,,,,,,,,,,,,,1,,,50,64
40320,note_on,0,0,2,,,,,,,,,,,,,,1,,,43,90
40320,note_on,0,0,1,,,,,,,,,,,,,,0,,,62,90
40320,note_on,0,0,1,,,,,,,,,,,,,,0,,,65,90
40320,note_on,20,0,1,,,,,,,,,,,,,,0,,,59,90
40320,note_on,0,0,1,,,,,,,,,,,,,,0,,,67,90
40460,note_off,140,0,1,,,,,,,,,,,,,,0,,,59,64
40460,note_off,0,0,1,,,,,,,,,,,,,,0,,,62,64
40460,note_off,0,0,1,,,,,,,,,,,,,,0,,,65,64
40460,note_off,0,0,1,,,,,,,,,,,,,,0,,,67,64
40480,note_on,0,0,1,,,,,,,,,,,,,,0,,,67,90
40480,note_on,0,0,1,,,,,,,,,,,,,,0,,,62,90
40480,note_on,0,0,1,,,,,,,,,,,,,,0,,,59,90
40480,note_on,20,0,1,,,,,,,,,,,,,,0,,,65,90
40620,note_off,140,0,1,,,,,,,,,,,,,,0,,,65,64
40620,note_off,0,0,1,,,,,,,,,,,,,,0,,,62,64
40620,note_off,0,0,1,,,,,,,,,,,,,,0,,,67,64
40620,note_off,0,0,1,,,,,,,,,,,,,,0,,,59,64
40640,note_on,20,0,1,,,,,,,,,,,,,,0,,,65,90
40640,note_on,0,0,1,,,,,,,,,,,,,,0,,,62,90
40640,note_on,0,0,1,,,,,,,,,,,,,,0,,,59,90
40640,note_on,0,0,1,,,,,,,,,,,,,,0,,,67,90
40780,note_off,140,0,1,,,,,,,,,,,,,,0,,,65,64
40780,note_off,0,0,1,,,,,,,,,,,,,,0,,,59,64
40780,note_off,0,0,1,,,,,,,,,,,,,,0,,,62,64
40780,note_off,0,0,1,,,,,,,,,,,,,,0,,,67,64
40800,note_on,0,0,1,,,,,,,,,,,,,,0,,,67,90
40800,note_on,20,0,1,,,,,,,,,,,,,,0,,,59,90
40800,note_on,0,0,1,,,,,,,,,,,,,,0,,,65,90
40800,note_on,0,0,1,,,,,,,,,,,,,,0,,,62,90
40940,note_off,140,0,1,,,,,,,,,,,,,,0,,,59,64
40940,note_off,0,0,1,,,,,,,,,,,,,,0,,,62,64
40940,note_off,0,0,1,,,,,,,,,,,,,,0,,,65,64
40940,note_off,0,0,1,,,,,,,,,,,,,,0,,,67,64
40960,note_on,20,0,1,,,,,,,,,,,,,,0,,,59,90
40960,note_on,0,0,1,,,,,,,,,,,,,,0,,,67,90
40960,note_on,0,0,1,,,,,,,,,,,,,,0,,,62,90
40960,note_on,0,0,1,,,,,,,,,,,,,,0,,,65,90
41100,note_off,0,0,1,,,,,,,,,,,,,,0,,,62,64
41100,note_off,0,0,1,,,,,,,,,,,,,,0,,,67,64
41100,note_off,140,0,1,,,,,,,,,,,,,,0,,,59,64
41100,note_off,0,0,1,,,,,,,,,,,,,,0,,,65,64
41120,note_on,0,0,1,,,,,,,,,,,,,,0,,,62,90
41120,note_on,0,0,1,,,,,,,,,,,,,,0,,,65,90
41120,note_on,20,0,1,,,,,,,,,,,,,,0,,,59,90
41120,note_on,0,0,1,,,,,,,,,,,,,,0,,,67,90
41260,note_off,140,0,1,,,,,,,,,,,,,,0,,,59,64
41260,note_off,0,0,1,,,,,,,,,,,,,,0,,,67,64
41260,note_off,0,0,1,,,,,,,,,,,,,,0,,,62,64
41260,note_off,0,0,1,,,,,,,,,,,,,,0,,,65,64
41280,note_on,0,0,1,,,,,,,,,,,,,,0,,,65,90
41280,note_on,20,0,1,,,,,,,,,,,,,,0,,,59,90
41280,note_on,0,0,1,,,,,,,,,,,,,,0,,,67,90
41280,note_on,0,0,1,,,,,,,,,,,,,,0,,,62,90
41420,note_off,140,0,1,,,,,,,,,,,,,,0,,,59,64
41420,note_off,0,0,1,,,,,,,,,,,,,,0,,,62,64
41420,note_off,0,0,1,,,,,,,,,,,,,,0,,,67,64
41420,note_off,0,0,1,,,,,,,,,,,,,,0,,,65,64
41440,note_on,20,0,1,,,,,,,,,,,,,,0,,,65,90
41440,note_on,0,0,1,,,,,,,,,,,,,,0,,,59,90
41440,note_on,0,0,1,,,,,,,,,,,,,,0,,,62,90
41440,note_on,0,0,1,,,,,,,,,,,,,,0,,,67,90
41580,note_off,140,0,1,,,,,,,,,,,,,,0,,,65,64
41580,note_off,0,0,1,,,,,,,,,,,,,,0,,,59,64
41580,note_off,0,0,1,,,,,,,,,,,,,,0,,,67,64
41580,note_off,0,0,1,,,,,,,,,,,,,,0,,,62,64
41600,note_on,0,0,1,,,,,,,,,,,,,,0,,,67,90
41600,note_on,0,0,1,,,,,,,,,,,,,,0,,,62,90
41600,note_on,0,0,1,,,,,,,,,,,,,,0,,,59,90
41600,note_on,20,0,1,,,,,,,,,,,,,,0,,,65,90
41740,note_off,0,0,1,,,,,,,,,,,,,,0,,,67,64
41740,note_off,0,0,1,,,,,,,,,,,,,,0,,,62,64
41740,note_off,0,0,1,,,,,,,,,,,,,,0,,,59,64
41740,note_off,140,0,1,,,,,,,,,,,,,,0,,,65,64
41760,note_on,0,0,1,,,,,,,,,,,,,,0,,,67,90
41760,note_on,0,0,1,,,,,,,,,,,,,,0,,,65,90
41760,note_on,0,0,1,,,,,,,,,,,,,,0,,,62,90
41760,note_on,20,0,1,,,,,,,,,,,,,,0,,,59,90
41760,note_on,0,0,3,,,,,,,,,,,,,,2,,,79,90
41760,note_off,1440,0,3,,,,,,,,,,,,,,2,,,74,64
41900,note_off,140,0,1,,,,,,,,,,,,,,0,,,59,64
41900,note_off,0,0,1,,,,,,,,,,,,,,0,,,62,64
41900,note_off,0,0,1,,,,,,,,,,,,,,0,,,65,64
41900,note_off,0,0,1,,,,,,,,,,,,,,0,,,67,64
41920,note_on,20,0,1,,,,,,,,,,,,,,0,,,59,90
41920,note_on,0,0,1,,,,,,,,,,,,,,0,,,65,90
41920,note_on,0,0,1,,,,,,,,,,,,,,0,,,67,90
41920,note_on,0,0,1,,,,,,,,,,,,,,0,,,62,90
42060,note_off,140,0,1,,,,,,,,,,,,,,0,,,59,64
42060,note_off,0,0,1,,,,,,,,,,,,,,0,,,62,64
42060,note_off,0,0,1,,,,,,,,,,,,,,0,,,65,64
42060,note_off,0,0,1,,,,,,,,,,,,,,0,,,67,64
42080,note_on,20,0,1,,,,,,,,,,,,,,0,,,59,90
42080,note_on,0,0,1,,,,,,,,,,,,,,0,,,62,90
42080,note_on,0,0,1,,,,,,,,,,,,,,0,,,67,90
42080,note_on,0,0,1,,,,,,,,,,,,,,0,,,65,90
42220,note_off,140,0,1,,,,,,,,,,,,,,0,,,59,64
42220,note_off,0,0,1,,,,,,,,,,,,,,0,,,62,64
42220,note_off,0,0,1,,,,,,,,,,,,,,0,,,67,64
42220,note_off,0,0,1,,,,,,,,,,,,,,0,,,65,64
42240,note_off,1920,0,2,,,,,,,,,,,,,,1,,,43,64
42240,note_on,20,0,1,,,,,,,,,,,,,,0,,,60,90
42240,note_on,0,0,1,,,,,,,,,,,,,,0,,,67,90
42240,note_on,0,0,1,,,,,,,,,,,,,,0,,,63,90
42240,note_off,0,0,2,,,,,,,,,,,,,,1,,,31,64
42240,note_on,0,0,3,,,,,,,,,,,,,,2,,,79,90
42240,note_off,480,0,3,,,,,,,,,,,,,,2,,,79,64
42240,note_on,0,0,2,,,,,,,,,,,,,,1,,,36,90
42380,note_off,0,0,1,,,,,,,,,,,,,,0,,,67,64
42380,note_off,140,0,1,,,,,,,,,,,,,,0,,,60,64
42380,note_off,0,0,1,,,,,,,,,,,,,,0,,,63,64
42400,note_on,0,0,1,,,,,,,,,,,,,,0,,,63,90
42400,note_on,20,0,1,,,,,,,,,,,,,,0,,,67,90
42400,note_on,0,0,1,,,,,,,,,,,,,,0,,,60,90
42540,note_off,0,0,1,,,,,,,,,,,,,,0,,,60,64
42540,note_off,140,0,1,,,,,,,,,,,,,,0,,,67,64
42540,note_off,0,0,1,,,,,,,,,,,,,,0,,,63,64
42560,note_on,0,0,1,,,,,,,,,,,,,,0,,,63,90
42560,note_on,0,0,1,,,,,,,,,,,,,,0,,,60,90
42560,note_on,20,0,1,,,,,,,,,,,,,,0,,,67,90
42700,note_off,140,0,1,,,,,,,,,,,,,,0,,,67,64
42700,note_off,0,0,1,,,,,,,,,,,,,,0,,,60,64
42700,note_off,0,0,1,,,,,,,,,,,,,,0,,,63,64
42720,note_on,20,0,1,,,,,,,,,,,,,,0,,,60,90
42720,note_on,0,0,1,,,,,,,,,,,,,,0,,,67,90
42720,note_on,0,0,1,,,,,,,,,,,,,,0,,,63,90
42860,note_off,0,0,1,,,,,,,,,,,,,,0,,,63,64
42860,note_off,140,0,1,,,,,,,,,,,,,,0,,,60,64
42860,note_off,0,0,1,,,,,,,,,,,,,,0,,,67,64
42880,note_on,20,0,1,,,,,,,,,,,,,,0,,,60,90
42880,note_on,0,0,1,,,,,,,,,,,,,,0,,,67,90
42880,note_on,0,0,1,,,,,,,,,,,,,,0,,,63,90
43020,note_off,0,0,1,,,,,,,,,,,,,,0,,,63,64
43020,note_off,0,0,1,,,,,,,,,,,,,,0,,,67,64
43020,note_off,140,0,1,,,,,,,,,,,,,,0,,,60,64
43040,note_on,20,0,1,,,,,,,,,,,,,,0,,,60,90
43040,note_on,0,0,1,,,,,,,,,,,,,,0,,,67,90
43040,note_on,0,0,1,,,,,,,,,,,,,,0,,,63,90
43180,note_off,140,0,1,,,,,,,,,,,,,,0,,,60,64
43180,note_off,0,0,1,,,,,,,,,,,,,,0,,,63,64
43180,note_off,0,0,1,,,,,,,,,,,,,,0,,,67,64
43200,note_on,20,0,1,,,,,,,,,,,,,,0,,,60,90
43200,note_on,0,0,1,,,,,,,,,,,,,,0,,,63,90
43200,note_on,0,0,1,,,,,,,,,,,,,,0,,,67,90
43200,note_off,960,0,3,,,,,,,,,,,,,,2,,,79,64
43200,note_on,0,0,3,,,,,,,,,,,,,,2,,,75,90
43340,note_off,140,0,1,,,,,,,,,,,,,,0,,,60,64
43340,note_off,0,0,1,,,,,,,,,,,,,,0,,,67,64
43340,note_off,0,0,1,,,,,,,,,,,,,,0,,,63,64
43360,note_on,0,0,1,,,,,,,,,,,,,,0,,,63,90
43360,note_on,20,0,1,,,,,,,,,,,,,,0,,,67,90
43360,note_on,0,0,1,,,,,,,,,,,,,,0,,,60,90
43500,note_off,0,0,1,,,,,,,,,,,,,,0,,,63,64
43500,note_off,0,0,1,,,,,,,,,,,,,,0,,,60,64
43500,note_off,140,0,1,,,,,,,,,,,,,,0,,,67,64
43520,note_on,20,0,1,,,,,,,,,,,,,,0,,,67,90
43520,note_on,0,0,1,,,,,,,,,,,,,,0,,,60,90
43520,note_on,0,0,1,,,,,,,,,,,,,,0,,,63,90
43660,note_off,140,0,1,,,,,,,,,,,,,,0,,,67,64
43660,note_off,0,0,1,,,,,,,,,,,,,,0,,,60,64
43660,note_off,0,0,1,,,,,,,,,,,,,,0,,,63,64
43680,note_on,0,0,2,,,,,,,,,,,,,,1,,,39,90
43680,note_on,20,0,1,,,,,,,,,,,,,,0,,,72,90
43680,note_on,0,0,1,,,,,,,,,,,,,,0,,,60,90
43680,note_off,1440,0,2,,,,,,,,,,,,,,1,,,36,64
43680,note_on,0,0,1,,,,,,,,,,,,,,0,,,67,90
43680,note_on,0,0,1,,,,,,,,,,,,,,0,,,63,90
43680,note_off,480,0,3,,,,,,,,,,,,,,2,,,75,64
43680,note_on,0,0,3,,,,,,,,,,,,,,2,,,72,90
43820,note_off,0,0,1,,,,,,,,,,,,,,0,,,60,64
43820,note_off,140,0,1,,,,,,,,,,,,,,0,,,72,64
43820,note_off,0,0,1,,,,,,,,,,,,,,0,,,67,64
43820,note_off,0,0,1,,,,,,,,,,,,,,0,,,63,64
43840,note_on,0,0,1,,,,,,,,,,,,,,0,,,63,90
43840,note_on,0,0,1,,,,,,,,,,,,,,0,,,72,90
43840,note_on,20,0,1,,,,,,,,,,,,,,0,,,60,90
43840,note_on,0,0,1,,,,,,,,,,,,,,0,,,67,90
43980,note_off,0,0,1,,,,,,,,,,,,,,0,,,67,64
43980,note_off,0,0,1,,,,,,,,,,,,,,0,,,72,64
43980,note_off,140,0,1,,,,,,,,,,,,,,0,,,60,64
43980,note_off,0,0,1,,,,,,,,,,,,,,0,,,63,64
44000,note_on,0,0,1,,,,,,,,,,,,,,0,,,63,90
44000,note_on,0,0,1,,,,,,,,,,,,,,0,,,67,90
44000,note_on,0,0,1,,,,,,,,,,,,,,0,,,72,90
44000,note_on,20,0,1,,,,,,,,,,,,,,0,,,60,90
44140,note_off,0,0,1,,,,,,,,,,,,,,0,,,72,64
44140,note_off,0,0,1,,,,,,,,,,,,,,0,,,67,64
44140,note_off,140,0,1,,,,,,,,,,,,,,0,,,60,64
44140,note_off,0,0,1,,,,,,,,,,,,,,0,,,63,64
44160,note_off,480,0,3,,,,,,,,,,,,,,2,,,72,64
44160,note_on,0,0,1,,,,,,,,,,,,,,0,,,65,90
44160,note_on,20,0,1,,,,,,,,,,,,,,0,,,62,90
44160,note_on,0,0,1,,,,,,,,,,,,,,0,,,70,90
44160,note_off,480,0,2,,,,,,,,,,,,,,1,,,39,64
44160,note_on,0,0,3,,,,,,,,,,,,,,2,,,77,90
44160,note_on,0,0,2,,,,,,,,,,,,,,1,,,41,90
44300,note_off,140,0,1,,,,,,,,,,,,,,0,,,62,64
44300,note_off,0,0,1,,,,,,,,,,,,,,0,,,70,64
44300,note_off,0,0,1,,,,,,,,,,,,,,0,,,65,64
44320,note_on,20,0,1,,,,,,,,,,,,,,0,,,70,90
44320,note_on,0,0,1,,,,,,,,,,,,,,0,,,62,90
44320,note_on,0,0,1,,,,,,,,,,,,,,0,,,65,90
44460,note_off,0,0,1,,,,,,,,,,,,,,0,,,62,64
44460,note_off,140,0,1,,,,,,,,,,,,,,0,,,70,64
44460,note_off,0,0,1,,,,,,,,,,,,,,0,,,65,64
44480,note_on,20,0,1,,,,,,,,,,,,,,0,,,70,90
44480,note_on,0,0,1,,,,,,,,,,,,,,0,,,65,90
44480,note_on,0,0,1,,,,,,,,,,,,,,0,,,62,90
44620,note_off,0,0,1,,,,,,,,,,,,,,0,,,62,64
44620,note_off,140,0,1,,,,,,,,,,,,,,0,,,70,64
44620,note_off,0,0,1,,,,,,,,,,,,,,0,,,65,64
44640,note_on,20,0,1,,,,,,,,,,,,,,0,,,62,90
44640,note_on,0,0,1,,,,,,,,,,,,,,0,,,65,90
44640,note_on,0,0,1,,,,,,,,,,,,,,0,,,70,90
44770,note_off,610,0,2,,,,,,,,,,,,,,1,,,41,64
44780,note_off,0,0,1,,,,,,,,,,,,,,0,,,65,64
44780,note_off,140,0,1,,,,,,,,,,,,,,0,,,62,64
44780,note_off,0,0,1,,,,,,,,,,,,,,0,,,70,64
44800,note_on,20,0,1,,,,,,,,,,,,,,0,,,62,90
44800,note_on,0,0,1,,,,,,,,,,,,,,0,,,70,90
44800,note_on,0,0,1,,,,,,,,,,,,,,0,,,65,90
44940,note_off,140,0,1,,,,,,,,,,,,,,0,,,62,64
44940,note_off,0,0,1,,,,,,,,,,,,,,0,,,70,64
44940,note_off,0,0,1,,,,,,,,,,,,,,0,,,65,64
44960,note_on,20,0,1,,,,,,,,,,,,,,0,,,62,90
44960,note_on,0,0,1,,,,,,,,,,,,,,0,,,70,90
44960,note_on,0,0,1,,,,,,,,,,,,,,0,,,65,90
45100,note_off,140,0,1,,,,,,,,,,,,,,0,,,62,64
45100,note_off,0,0,1,,,,,,,,,,,,,,0,,,70,64
45100,note_off,0,0,1,,,,,,,,,,,,,,0,,,65,64
45120,note_on,0,0,1,,,,,,,,,,,,,,0,,,65,90
45120,note_on,20,0,1,,,,,,,,,,,,,,0,,,60,90
45120,note_on,0,0,1,,,,,,,,,,,,,,0,,,69,90
45120,note_on,0,0,1,,,,,,,,,,,,,,0,,,63,90
45130,note_on,360,0,2,,,,,,,,,,,,,,1,,,29,90
45260,note_off,140,0,1,,,,,,,,,,,,,,0,,,60,64
45260,note_off,0,0,1,,,,,,,,,,,,,,0,,,63,64
45260,note_off,0,0,1,,,,,,,,,,,,,,0,,,65,64
45260,note_off,0,0,1,,,,,,,,,,,,,,0,,,69,64
45280,note_on,20,0,1,,,,,,,,,,,,,,0,,,69,90
45280,note_on,0,0,1,,,,,,,,,,,,,,0,,,60,90
45280,note_on,0,0,1,,,,,,,,,,,,,,0,,,63,90
45280,note_on,0,0,1,,,,,,,,,,,,,,0,,,65,90
45420,note_off,140,0,1,,,,,,,,,,,,,,0,,,69,64
45420,note_off,0,0,1,,,,,,,,,,,,,,0,,,63,64
45420,note_off,0,0,1,,,,,,,,,,,,,,0,,,65,64
45420,note_off,0,0,1,,,,,,,,,,,,,,0,,,60,64
45440,note_on,20,0,1,,,,,,,,,,,,,,0,,,69,90
45440,note_on,0,0,1,,,,,,,,,,,,,,0,,,60,90
45440,note_on,0,0,1,,,,,,,,,,,,,,0,,,63,90
45440,note_on,0,0,1,,,,,,,,,,,,,,0,,,65,90
45580,note_off,140,0,1,,,,,,,,,,,,,,0,,,69,64
45580,note_off,0,0,1,,,,,,,,,,,,,,0,,,60,64
45580,note_off,0,0,1,,,,,,,,,,,,,,0,,,65,64
45580,note_off,0,0,1,,,,,,,,,,,,,,0,,,63,64
45600,note_on,20,0,1,,,,,,,,,,,,,,0,,,60,90
45600,note_on,0,0,1,,,,,,,,,,,,,,0,,,63,90
45600,note_on,0,0,1,,,,,,,,,,,,,,0,,,69,90
45600,note_on,0,0,1,,,,,,,,,,,,,,0,,,65,90
45600,note_off,1440,0,3,,,,,,,,,,,,,,2,,,77,64
45600,note_on,0,0,3,,,,,,,,,,,,,,2,,,69,90
45710,note_off,580,0,2,,,,,,,,,,,,,,1,,,29,64
45740,note_off,140,0,1,,,,,,,,,,,,,,0,,,60,64
45740,note_off,0,0,1,,,,,,,,,,,,,,0,,,63,64
45740,note_off,0,0,1,,,,,,,,,,,,,,0,,,65,64
45740,note_off,0,0,1,,,,,,,,,,,,,,0,,,69,64
45760,note_on,20,0,1,,,,,,,,,,,,,,0,,,60,90
45760,note_on,0,0,1,,,,,,,,,,,,,,0,,,63,90
45760,note_on,0,0,1,,,,,,,,,,,,,,0,,,69,90
45760,note_on,0,0,1,,,,,,,,,,,,,,0,,,65,90
45900,note_off,0,0,1,,,,,,,,,,,,,,0,,,65,64
45900,note_off,140,0,1,,,,,,,,,,,,,,0,,,60,64
45900,note_off,0,0,1,,,,,,,,,,,,,,0,,,69,64
45900,note_off,0,0,1,,,,,,,,,,,,,,0,,,63,64
45920,note_on,20,0,1,,,,,,,,,,,,,,0,,,60,90
45920,note_on,0,0,1,,,,,,,,,,,,,,0,,,65,90
45920,note_on,0,0,1,,,,,,,,,,,,,,0,,,69,90
45920,note_on,0,0,1,,,,,,,,,,,,,,0,,,63,90
46060,note_off,0,0,1,,,,,,,,,,,,,,0,,,63,64
46060,note_off,0,0,1,,,,,,,,,,,,,,0,,,69,64
46060,note_off,0,0,1,,,,,,,,,,,,,,0,,,65,64
46060,note_off,140,0,1,,,,,,,,,,,,,,0,,,60,64
46080,note_on,0,0,1,,,,,,,,,,,,,,0,,,65,90
46080,note_on,0,0,1,,,,,,,,,,,,,,0,,,62,90
46080,note_off,480,0,3,,,,,,,,,,,,,,2,,,69,64
46080,note_on,0,0,3,,,,,,,,,,,,,,2,,,70,90
46080,note_on,370,0,2,,,,,,,,,,,,,,1,,,46,90
46080,note_on,20,0,1,,,,,,,,,,,,,,0,,,70,90
46220,note_off,140,0,1,,,,,,,,,,,,,,0,,,70,64
46220,note_off,0,0,1,,,,,,,,,,,,,,0,,,65,64
46220,note_off,0,0,1,,,,,,,,,,,,,,0,,,62,64
46240,note_on,0,0,2,,,,,,,,,,,,,,1,,,48,90
46240,note_on,0,0,1,,,,,,,,,,,,,,0,,,62,90
46240,note_off,160,0,2,,,,,,,,,,,,,,1,,,46,64
46240,note_on,0,0,1,,,,,,,,,,,,,,0,,,65,90
46240,note_on,20,0,1,,,,,,,,,,,,,,0,,,70,90
46380,note_off,140,0,1,,,,,,,,,,,,,,0,,,70,64
46380,note_off,0,0,1,,,,,,,,,,,,,,0,,,65,64
46380,note_off,0,0,1,,,,,,,,,,,,,,0,,,62,64
46400,note_off,160,0,2,,,,,,,,,,,,,,1,,,48,64
46400,note_on,0,0,2,,,,,,,,,,,,,,1,,,50,90
46400,note_on,0,0,1,,,,,,,,,,,,,,0,,,62,90
46400,note_on,0,0,1,,,,,,,,,,,,,,0,,,65,90
46400,note_on,20,0,1,,,,,,,,,,,,,,0,,,70,90
46540,note_off,0,0,1,,,,,,,,,,,,,,0,,,65,64
46540,note_off,0,0,1,,,,,,,,,,,,,,0,,,62,64
46540,note_off,140,0,1,,,,,,,,,,,,,,0,,,70,64
46560,note_on,20,0,1,,,,,,,,,,,,,,0,,,70,90
46560,note_on,0,0,1,,,,,,,,,,,,,,0,,,65,90
46560,note_on,0,0,1,,,,,,,,,,,,,,0,,,62,90
46560,note_off,160,0,2,,,,,,,,,,,,,,1,,,50,64
46560,note_on,0,0,2,,,,,,,,,,,,,,1,,,51,90
46700,note_off,140,0,1,,,,,,,,,,,,,,0,,,70,64
46700,note_off,0,0,1,,,,,,,,,,,,,,0,,,62,64
46700,note_off,0,0,1,,,,,,,,,,,,,,0,,,65,64
46720,note_on,0,0,1,,,,,,,,,,,,,,0,,,62,90
46720,note_on,0,0,1,,,,,,,,,,,,,,0,,,65,90
46720,note_on,20,0,1,,,,,,,,,,,,,,0,,,70,90
46720,note_on,0,0,2,,,,,,,,,,,,,,1,,,53,90
46720,note_off,160,0,2,,,,,,,,,,,,,,1,,,51,64
46860,note_off,0,0,1,,,,,,,,,,,,,,0,,,62,64
46860,note_off,0,0,1,,,,,,,,,,,,,,0,,,65,64
46860,note_off,140,0,1,,,,,,,,,,,,,,0,,,70,64
46880,note_on,0,0,1,,,,,,,,,,,,,,0,,,62,90
46880,note_on,20,0,1,,,,,,,,,,,,,,0,,,70,90
46880,note_on,0,0,1,,,,,,,,,,,,,,0,,,65,90
46880,note_on,0,0,2,,,,,,,,,,,,,,1,,,54,90
46880,note_off,160,0,2,,,,,,,,,,,,,,1,,,53,64
47020,note_off,0,0,1,,,,,,,,,,,,,,0,,,65,64
47020,note_off,140,0,1,,,,,,,,,,,,,,0,,,70,64
47020,note_off,0,0,1,,,,,,,,,,,,,,0,,,62,64
47040,note_off,960,0,3,,,,,,,,,,,,,,2,,,70,64
47040,note_on,0,0,2,,,,,,,,,,,,,,1,,,53,90
47040,note_off,160,0,2,,,,,,,,,,,,,,1,,,54,64
47040,note_on,20,0,1,,,,,,,,,,,,,,0,,,70,90
47040,note_on,0,0,1,,,,,,,,,,,,,,0,,,65,90
47040,note_on,0,0,1,,,,,,,,,,,,,,0,,,62,90
47180,note_off,0,0,1,,,,,,,,,,,,,,0,,,62,64
47180,note_off,0,0,1,,,,,,,,,,,,,,0,,,65,64
47180,note_off,140,0,1,,,,,,,,,,,,,,0,,,70,64
47200,note_on,0,0,1,,,,,,,,,,,,,,0,,,65,90
47200,note_on,20,0,1,,,,,,,,,,,,,,0,,,70,90
47200,note_on,0,0,1,,,,,,,,,,,,,,0,,,62,90
47270,note_off,230,0,2,,,,,,,,,,,,,,1,,,53,64
47340,note_off,140,0,1,,,,,,,,,,,,,,0,,,70,64
47340,note_off,0,0,1,,,,,,,,,,,,,,0,,,62,64
47340,note_off,0,0,1,,,,,,,,,,,,,,0,,,65,64
47360,note_on,20,0,1,,,,,,,,,,,,,,0,,,70,90
47360,note_on,0,0,1,,,,,,,,,,,,,,0,,,65,90
47360,note_on,0,0,1,,,,,,,,,,,,,,0,,,62,90
47500,note_off,140,0,1,,,,,,,,,,,,,,0,,,70,64
47500,note_off,0,0,1,,,,,,,,,,,,,,0,,,65,64
47500,note_off,0,0,1,,,,,,,,,,,,,,0,,,62,64
47520,note_on,250,0,2,,,,,,,,,,,,,,1,,,50,90
47520,note_on,480,0,3,,,,,,,,,,,,,,2,,,70,90
47520,note_on,20,0,1,,,,,,,,,,,,,,0,,,70,90
47520,note_on,0,0,1,,,,,,,,,,,,,,0,,,62,90
47520,note_on,0,0,1,,,,,,,,,,,,,,0,,,65,90
47660,note_off,0,0,1,,,,,,,,,,,,,,0,,,62,64
47660,note_off,0,0,1,,,,,,,,,,,,,,0,,,65,64
47660,note_off,140,0,1,,,,,,,,,,,,,,0,,,70,64
47680,note_on,0,0,1,,,,,,,,,,,,,,0,,,62,90
47680,note_on,0,0,1,,,,,,,,,,,,,,0,,,65,90
47680,note_on,20,0,1,,,,,,,,,,,,,,0,,,70,90
47750,note_off,230,0,2,,,,,,,,,,,,,,1,,,50,64
47820,note_off,0,0,1,,,,,,,,,,,,,,0,,,65,64
47820,note_off,0,0,1,,,,,,,,,,,,,,0,,,62,64
47820,note_off,140,0,1,,,,,,,,,,,,,,0,,,70,64
47840,note_on,20,0,1,,,,,,,,,,,,,,0,,,70,90
47840,note_on,0,0,1,,,,,,,,,,,,,,0,,,62,90
47840,note_on,0,0,1,,,,,,,,,,,,,,0,,,65,90
47980,note_off,140,0,1,,,,,,,,,,,,,,0,,,70,64
47980,note_off,0,0,1,,,,,,,,,,,,,,0,,,65,64
47980,note_off,0,0,1,,,,,,,,,,,,,,0,,,62,64
48000,note_off,480,0,3,,,,,,,,,,,,,,2,,,70,64
48000,note_on,0,0,3,,,,,,,,,,,,,,2,,,75,90
48000,note_on,250,0,2,,,,,,,,,,,,,,1,,,34,90
48000,note_on,0,0,1,,,,,,,,,,,,,,0,,,63,90
48000,note_on,20,0,1,,,,,,,,,,,,,,0,,,69,90
48000,note_on,0,0,1,,,,,,,,,,,,,,0,,,60,90
48000,note_on,0,0,1,,,,,,,,,,,,,,0,,,66,90
48140,note_off,140,0,1,,,,,,,,,,,,,,0,,,69,64
48140,note_off,0,0,1,,,,,,,,,,,,,,0,,,60,64
48140,note_off,0,0,1,,,,,,,,,,,,,,0,,,63,64
48140,note_off,0,0,1,,,,,,,,,,,,,,0,,,66,64
48160,note_on,20,0,1,,,,,,,,,,,,,,0,,,69,90
48160,note_on,0,0,1,,,,,,,,,,,,,,0,,,60,90
48160,note_on,0,0,1,,,,,,,,,,,,,,0,,,63,90
48160,note_on,0,0,1,,,,,,,,,,,,,,0,,,66,90
48300,note_off,0,0,1,,,,,,,,,,,,,,0,,,63,64
48300,note_off,0,0,1,,,,,,,,,,,,,,0,,,60,64
48300,note_off,0,0,1,,,,,,,,,,,,,,0,,,66,64
48300,note_off,140,0,1,,,,,,,,,,,,,,0,,,69,64
48320,note_on,0,0,1,,,,,,,,,,,,,,0,,,66,90
48320,note_on,0,0,1,,,,,,,,,,,,,,0,,,63,90
48320,note_on,20,0,1,,,,,,,,,,,,,,0,,,69,90
48320,note_on,0,0,1,,,,,,,,,,,,,,0,,,60,90
48460,note_off,140,0,1,,,,,,,,,,,,,,0,,,69,64
48460,note_off,0,0,1,,,,,,,,,,,,,,0,,,60,64
48460,note_off,0,0,1,,,,,,,,,,,,,,0,,,63,64
48460,note_off,0,0,1,,,,,,,,,,,,,,0,,,66,64
48480,note_on,20,0,1,,,,,,,,,,,,,,0,,,69,90
48480,note_on,0,0,1,,,,,,,,,,,,,,0,,,60,90
48480,note_on,0,0,1,,,,,,,,,,,,,,0,,,63,90
48480,note_on,0,0,1,,,,,,,,,,,,,,0,,,66,90
48620,note_off,0,0,1,,,,,,,,,,,,,,0,,,66,64
48620,note_off,0,0,1,,,,,,,,,,,,,,0,,,60,64
48620,note_off,140,0,1,,,,,,,,,,,,,,0,,,69,64
48620,note_off,0,0,1,,,,,,,,,,,,,,0,,,63,64
48640,note_on,0,0,1,,,,,,,,,,,,,,0,,,63,90
48640,note_on,0,0,1,,,,,,,,,,,,,,0,,,66,90
48640,note_on,20,0,1,,,,,,,,,,,,,,0,,,69,90
48640,note_on,0,0,1,,,,,,,,,,,,,,0,,,60,90
48780,note_off,140,0,1,,,,,,,,,,,,,,0,,,69,64
48780,note_off,0,0,1,,,,,,,,,,,,,,0,,,60,64
48780,note_off,0,0,1,,,,,,,,,,,,,,0,,,63,64
48780,note_off,0,0,1,,,,,,,,,,,,,,0,,,66,64
48800,note_on,20,0,1,,,,,,,,,,,,,,0,,,69,90
48800,note_on,0,0,1,,,,,,,,,,,,,,0,,,60,90
48800,note_on,0,0,1,,,,,,,,,,,,,,0,,,63,90
48800,note_on,0,0,1,,,,,,,,,,,,,,0,,,66,90
48940,note_off,140,0,1,,,,,,,,,,,,,,0,,,69,64
48940,note_off,0,0,1,,,,,,,,,,,,,,0,,,60,64
48940,note_off,0,0,1,,,,,,,,,,,,,,0,,,63,64
48940,note_off,0,0,1,,,,,,,,,,,,,,0,,,66,64
48960,note_on,0,0,1,,,,,,,,,,,,,,0,,,60,90
48960,note_on,0,0,1,,,,,,,,,,,,,,0,,,66,90
48960,note_on,0,0,1,,,,,,,,,,,,,,0,,,63,90
48960,note_on,20,0,1,,,,,,,,,,,,,,0,,,69,90
49100,note_off,140,0,1,,,,,,,,,,,,,,0,,,69,64
49100,note_off,0,0,1,,,,,,,,,,,,,,0,,,60,64
49100,note_off,0,0,1,,,,,,,,,,,,,,0,,,63,64
49100,note_off,0,0,1,,,,,,,,,,,,,,0,,,66,64
49120,note_on,20,0,1,,,,,,,,,,,,,,0,,,69,90
49120,note_on,0,0,1,,,,,,,,,,,,,,0,,,60,90
49120,note_on,0,0,1,,,,,,,,,,,,,,0,,,63,90
49120,note_on,0,0,1,,,,,,,,,,,,,,0,,,66,90
49260,note_off,0,0,1,,,,,,,,,,,,,,0,,,66,64
49260,note_off,140,0,1,,,,,,,,,,,,,,0,,,69,64
49260,note_off,0,0,1,,,,,,,,,,,,,,0,,,60,64
49260,note_off,0,0,1,,,,,,,,,,,,,,0,,,63,64
49280,note_on,0,0,1,,,,,,,,,,,,,,0,,,63,90
49280,note_on,0,0,1,,,,,,,,,,,,,,0,,,66,90
49280,note_on,20,0,1,,,,,,,,,,,,,,0,,,69,90
49280,note_on,0,0,1,,,,,,,,,,,,,,0,,,60,90
49420,note_off,0,0,1,,,,,,,,,,,,,,0,,,63,64
49420,note_off,140,0,1,,,,,,,,,,,,,,0,,,69,64
49420,note_off,0,0,1,,,,,,,,,,,,,,0,,,60,64
49420,note_off,0,0,1,,,,,,,,,,,,,,0,,,66,64
49440,note_on,0,0,3,,,,,,,,,,,,,,2,,,69,90
49440,note_on,0,0,1,,,,,,,,,,,,,,0,,,66,90
49440,note_on,0,0,1,,,,,,,,,,,,,,0,,,63,90
49440,note_on,0,0,1,,,,,,,,,,,,,,0,,,60,90
49440,note_on,20,0,1,,,,,,,,,,,,,,0,,,69,90
49440,note_off,1440,0,3,,,,,,,,,,,,,,2,,,75,64
49580,note_off,140,0,1,,,,,,,,,,,,,,0,,,69,64
49580,note_off,0,0,1,,,,,,,,,,,,,,0,,,60,64
49580,note_off,0,0,1,,,,,,,,,,,,,,0,,,63,64
49580,note_off,0,0,1,,,,,,,,,,,,,,0,,,66,64
49600,note_on,20,0,1,,,,,,,,,,,,,,0,,,69,90
49600,note_on,0,0,1,,,,,,,,,,,,,,0,,,60,90
49600,note_on,0,0,1,,,,,,,,,,,,,,0,,,63,90
49600,note_on,0,0,1,,,,,,,,,,,,,,0,,,66,90
49740,note_off,0,0,1,,,,,,,,,,,,,,0,,,63,64
49740,note_off,140,0,1,,,,,,,,,,,,,,0,,,69,64
49740,note_off,0,0,1,,,,,,,,,,,,,,0,,,60,64
49740,note_off,0,0,1,,,,,,,,,,,,,,0,,,66,64
49760,note_on,0,0,1,,,,,,,,,,,,,,0,,,66,90
49760,note_on,0,0,1,,,,,,,,,,,,,,0,,,63,90
49760,note_on,20,0,1,,,,,,,,,,,,,,0,,,69,90
49760,note_on,0,0,1,,,,,,,,,,,,,,0,,,60,90
49900,note_off,0,0,1,,,,,,,,,,,,,,0,,,66,64
49900,note_off,140,0,1,,,,,,,,,,,,,,0,,,69,64
49900,note_off,0,0,1,,,,,,,,,,,,,,0,,,60,64
49900,note_off,0,0,1,,,,,,,,,,,,,,0,,,63,64
49920,note_off,480,0,3,,,,,,,,,,,,,,2,,,69,64
49920,note_on,0,0,1,,,,,,,,,,,,,,0,,,62,90
49920,note_on,20,0,1,,,,,,,,,,,,,,0,,,70,90
49920,note_on,0,0,1,,,,,,,,,,,,,,0,,,65,90
49920,note_on,0,0,3,,,,,,,,,,,,,,2,,,72,90
49920,note_off,1920,0,2,,,,,,,,,,,,,,1,,,34,64
49920,note_on,0,0,2,,,,,,,,,,,,,,1,,,46,90
50060,note_off,140,0,1,,,,,,,,,,,,,,0,,,70,64
50060,note_off,0,0,1,,,,,,,,,,,,,,0,,,65,64
50060,note_off,0,0,1,,,,,,,,,,,,,,0,,,62,64
50080,note_on,0,0,2,,,,,,,,,,,,,,1,,,48,90
50080,note_off,160,0,2,,,,,,,,,,,,,,1,,,46,64
50080,note_on,20,0,1,,,,,,,,,,,,,,0,,,70,90
50080,note_on,0,0,1,,,,,,,,,,,,,,0,,,65,90
50080,note_on,0,0,1,,,,,,,,,,,,,,0,,,62,90
50220,note_off,0,0,1,,,,,,,,,,,,,,0,,,62,64
50220,note_off,0,0,1,,,,,,,,,,,,,,0,,,65,64
50220,note_off,140,0,1,,,,,,,,,,,,,,0,,,70,64
50240,note_off,160,0,2,,,,,,,,,,,,,,1,,,48,64
50240,note_on,0,0,2,,,,,,,,,,,,,,1,,,50,90
50240,note_on,20,0,1,,,,,,,,,,,,,,0,,,70,90
50240,note_on,0,0,1,,,,,,,,,,,,,,0,,,62,90
50240,note_on,0,0,1,,,,,,,,,,,,,,0,,,65,90
50380,note_off,0,0,1,,,,,,,,,,,,,,0,,,62,64
50380,note_off,140,0,1,,,,,,,,,,,,,,0,,,70,64
50380,note_off,0,0,1,,,,,,,,,,,,,,0,,,65,64
50400,note_on,20,0,1,,,,,,,,,,,,,,0,,,70,90
50400,note_on,0,0,1,,,,,,,,,,,,,,0,,,62,90
50400,note_on,0,0,1,,,,,,,,,,,,,,0,,,65,90
50400,note_on,0,0,2,,,,,,,,,,,,,,1,,,51,90
50400,note_off,160,0,2,,,,,,,,,,,,,,1,,,50,64
50540,note_off,0,0,1,,,,,,,,,,,,,,0,,,62,64
50540,note_off,140,0,1,,,,,,,,,,,,,,0,,,70,64
50540,note_off,0,0,1,,,,,,,,,,,,,,0,,,65,64
50560,note_on,20,0,1,,,,,,,,,,,,,,0,,,70,90
50560,note_on,0,0,1,,,,,,,,,,,,,,0,,,65,90
50560,note_on,0,0,1,,,,,,,,,,,,,,0,,,62,90
50560,note_off,160,0,2,,,,,,,,,,,,,,1,,,51,64
50560,note_on,0,0,2,,,,,,,,,,,,,,1,,,53,90
50700,note_off,140,0,1,,,,,,,,,,,,,,0,,,70,64
50700,note_off,0,0,1,,,,,,,,,,,,,,0,,,65,64
50700,note_off,0,0,1,,,,,,,,,,,,,,0,,,62,64
50720,note_off,160,0,2,,,,,,,,,,,,,,1,,,53,64
50720,note_on,0,0,2,,,,,,,,,,,,,,1,,,54,90
50720,note_on,20,0,1,,,,,,,,,,,,,,0,,,70,90
50720,note_on,0,0,1,,,,,,,,,,,,,,0,,,65,90
50720,note_on,0,0,1,,,,,,,,,,,,,,0,,,62,90
50860,note_off,140,0,1,,,,,,,,,,,,,,0,,,70,64
50860,note_off,0,0,1,,,,,,,,,,,,,,0,,,62,64
50860,note_off,0,0,1,,,,,,,,,,,,,,0,,,65,64
50880,note_on,0,0,3,,,,,,,,,,,,,,2,,,70,90
50880,note_on,20,0,1,,,,,,,,,,,,,,0,,,70,90
50880,note_on,0,0,1,,,,,,,,,,,,,,0,,,65,90
50880,note_on,0,0,1,,,,,,,,,,,,,,0,,,62,90
50880,note_on,0,0,2,,,,,,,,,,,,,,1,,,53,90
50880,note_off,160,0,2,,,,,,,,,,,,,,1,,,54,64
50880,note_off,960,0,3,,,,,,,,,,,,,,2,,,72,64
51020,note_off,0,0,1,,,,,,,,,,,,,,0,,,62,64
51020,note_off,0,0,1,,,,,,,,,,,,,,0,,,65,64
51020,note_off,140,0,1,,,,,,,,,,,,,,0,,,70,64
51040,note_on,20,0,1,,,,,,,,,,,,,,0,,,70,90
51040,note_on,0,0,1,,,,,,,,,,,,,,0,,,65,90
51040,note_on,0,0,1,,,,,,,,,,,,,,0,,,62,90
51120,note_off,240,0,2,,,,,,,,,,,,,,1,,,53,64
51180,note_off,0,0,1,,,,,,,,,,,,,,0,,,65,64
51180,note_off,140,0,1,,,,,,,,,,,,,,0,,,70,64
51180,note_off,0,0,1,,,,,,,,,,,,,,0,,,62,64
51200,note_on,20,0,1,,,,,,,,,,,,,,0,,,70,90
51200,note_on,0,0,1,,,,,,,,,,,,,,0,,,65,90
51200,note_on,0,0,1,,,,,,,,,,,,,,0,,,62,90
51340,note_off,140,0,1,,,,,,,,,,,,,,0,,,70,64
51340,note_off,0,0,1,,,,,,,,,,,,,,0,,,65,64
51340,note_off,0,0,1,,,,,,,,,,,,,,0,,,62,64
51360,note_on,240,0,2,,,,,,,,,,,,,,1,,,50,90
51360,note_on,20,0,1,,,,,,,,,,,,,,0,,,70,90
51360,note_on,0,0,1,,,,,,,,,,,,,,0,,,65,90
51360,note_on,0,0,1,,,,,,,,,,,,,,0,,,62,90
51500,note_off,0,0,1,,,,,,,,,,,,,,0,,,65,64
51500,note_off,140,0,1,,,,,,,,,,,,,,0,,,70,64
51500,note_off,0,0,1,,,,,,,,,,,,,,0,,,62,64
51520,note_on,0,0,1,,,,,,,,,,,,,,0,,,65,90
51520,note_on,20,0,1,,,,,,,,,,,,,,0,,,70,90
51520,note_on,0,0,1,,,,,,,,,,,,,,0,,,62,90
51600,note_off,240,0,2,,,,,,,,,,,,,,1,,,50,64
51660,note_off,140,0,1,,,,,,,,,,,,,,0,,,70,64
51660,note_off,0,0,1,,,,,,,,,,,,,,0,,,65,64
51660,note_off,0,0,1,,,,,,,,,,,,,,0,,,62,64
51680,note_on,20,0,1,,,,,,,,,,,,,,0,,,70,90
51680,note_on,0,0,1,,,,,,,,,,,,,,0,,,65,90
51680,note_on,0,0,1,,,,,,,,,,,,,,0,,,62,90
51820,note_off,140,0,1,,,,,,,,,,,,,,0,,,70,64
51820,note_off,0,0,1,,,,,,,,,,,,,,0,,,65,64
51820,note_off,0,0,1,,,,,,,,,,,,,,0,,,62,64
51840,note_on,240,0,2,,,,,,,,,,,,,,1,,,34,90
51840,note_on,0,0,1,,,,,,,,,,,,,,0,,,63,90
51840,note_on,0,0,1,,,,,,,,,,,,,,0,,,66,90
51840,note_on,20,0,1,,,,,,,,,,,,,,0,,,69,90
51840,note_on,0,0,3,,,,,,,,,,,,,,2,,,75,90
51840,note_on,0,0,1,,,,,,,,,,,,,,0,,,60,90
51840,note_off,960,0,3,,,,,,,,,,,,,,2,,,70,64
51980,note_off,140,0,1,,,,,,,,,,,,,,0,,,69,64
51980,note_off,0,0,1,,,,,,,,,,,,,,0,,,60,64
51980,note_off,0,0,1,,,,,,,,,,,,,,0,,,63,64
51980,note_off,0,0,1,,,,,,,,,,,,,,0,,,66,64
52000,note_on,20,0,1,,,,,,,,,,,,,,0,,,69,90
52000,note_on,0,0,1,,,,,,,,,,,,,,0,,,60,90
52000,note_on,0,0,1,,,,,,,,,,,,,,0,,,63,90
52000,note_on,0,0,1,,,,,,,,,,,,,,0,,,66,90
52140,note_off,140,0,1,,,,,,,,,,,,,,0,,,69,64
52140,note_off,0,0,1,,,,,,,,,,,,,,0,,,60,64
52140,note_off,0,0,1,,,,,,,,,,,,,,0,,,63,64
52140,note_off,0,0,1,,,,,,,,,,,,,,0,,,66,64
52160,note_on,0,0,1,,,,,,,,,,,,,,0,,,66,90
52160,note_on,0,0,1,,,,,,,,,,,,,,0,,,60,90
52160,note_on,20,0,1,,,,,,,,,,,,,,0,,,69,90
52160,note_on,0,0,1,,,,,,,,,,,,,,0,,,63,90
52300,note_off,140,0,1,,,,,,,,,,,,,,0,,,69,64
52300,note_off,0,0,1,,,,,,,,,,,,,,0,,,60,64
52300,note_off,0,0,1,,,,,,,,,,,,,,0,,,63,64
52300,note_off,0,0,1,,,,,,,,,,,,,,0,,,66,64
52320,note_on,20,0,1,,,,,,,,,,,,,,0,,,69,90
52320,note_on,0,0,1,,,,,,,,,,,,,,0,,,60,90
52320,note_on,0,0,1,,,,,,,,,,,,,,0,,,63,90
52320,note_on,0,0,1,,,,,,,,,,,,,,0,,,66,90
52460,note_off,0,0,1,,,,,,,,,,,,,,0,,,63,64
52460,note_off,0,0,1,,,,,,,,,,,,,,0,,,66,64
52460,note_off,0,0,1,,,,,,,,,,,,,,0,,,60,64
52460,note_off,140,0,1,,,,,,,,,,,,,,0,,,69,64
52480,note_on,20,0,1,,,,,,,,,,,,,,0,,,69,90
52480,note_on,0,0,1,,,,,,,,,,,,,,0,,,60,90
52480,note_on,0,0,1,,,,,,,,,,,,,,0,,,63,90
52480,note_on,0,0,1,,,,,,,,,,,,,,0,,,66,90
52620,note_off,0,0,1,,,,,,,,,,,,,,0,,,66,64
52620,note_off,0,0,1,,,,,,,,,,,,,,0,,,60,64
52620,note_off,0,0,1,,,,,,,,,,,,,,0,,,63,64
52620,note_off,140,0,1,,,,,,,,,,,,,,0,,,69,64
52640,note_on,20,0,1,,,,,,,,,,,,,,0,,,69,90
52640,note_on,0,0,1,,,,,,,,,,,,,,0,,,60,90
52640,note_on,0,0,1,,,,,,,,,,,,,,0,,,63,90
52640,note_on,0,0,1,,,,,,,,,,,,,,0,,,66,90
52780,note_off,0,0,1,,,,,,,,,,,,,,0,,,63,64
52780,note_off,0,0,1,,,,,,,,,,,,,,0,,,66,64
52780,note_off,0,0,1,,,,,,,,,,,,,,0,,,60,64
52780,note_off,140,0,1,,,,,,,,,,,,,,0,,,69,64
52800,note_on,0,0,1,,,,,,,,,,,,,,0,,,66,90
52800,note_on,0,0,1,,,,,,,,,,,,,,0,,,63,90
52800,note_on,20,0,1,,,,,,,,,,,,,,0,,,69,90
52800,note_on,0,0,1,,,,,,,,,,,,,,0,,,60,90
52800,note_on,0,0,3,,,,,,,,,,,,,,2,,,69,90
52800,note_off,960,0,3,,,,,,,,,,,,,,2,,,75,64
52940,note_off,0,0,1,,,,,,,,,,,,,,0,,,66,64
52940,note_off,0,0,1,,,,,,,,,,,,,,0,,,63,64
52940,note_off,140,0,1,,,,,,,,,,,,,,0,,,69,64
52940,note_off,0,0,1,,,,,,,,,,,,,,0,,,60,64
52960,note_on,0,0,1,,,,,,,,,,,,,,0,,,63,90
52960,note_on,0,0,1,,,,,,,,,,,,,,0,,,60,90
52960,note_on,20,0,1,,,,,,,,,,,,,,0,,,69,90
52960,note_on,0,0,1,,,,,,,,,,,,,,0,,,66,90
53100,note_off,140,0,1,,,,,,,,,,,,,,0,,,69,64
53100,note_off,0,0,1,,,,,,,,,,,,,,0,,,60,64
53100,note_off,0,0,1,,,,,,,,,,,,,,0,,,63,64
53100,note_off,0,0,1,,,,,,,,,,,,,,0,,,66,64
53120,note_on,20,0,1,,,,,,,,,,,,,,0,,,69,90
53120,note_on,0,0,1,,,,,,,,,,,,,,0,,,60,90
53120,note_on,0,0,1,,,,,,,,,,,,,,0,,,63,90
53120,note_on,0,0,1,,,,,,,,,,,,,,0,,,66,90
53260,note_off,0,0,1,,,,,,,,,,,,,,0,,,66,64
53260,note_off,0,0,1,,,,,,,,,,,,,,0,,,63,64
53260,note_off,140,0,1,,,,,,,,,,,,,,0,,,69,64
53260,note_off,0,0,1,,,,,,,,,,,,,,0,,,60,64
53280,note_on,20,0,1,,,,,,,,,,,,,,0,,,69,90
53280,note_on,0,0,1,,,,,,,,,,,,,,0,,,60,90
53280,note_on,0,0,1,,,,,,,,,,,,,,0,,,63,90
53280,note_on,0,0,1,,,,,,,,,,,,,,0,,,66,90
53420,note_off,0,0,1,,,,,,,,,,,,,,0,,,66,64
53420,note_off,140,0,1,,,,,,,,,,,,,,0,,,69,64
53420,note_off,0,0,1,,,,,,,,,,,,,,0,,,60,64
53420,note_off,0,0,1,,,,,,,,,,,,,,0,,,63,64
53440,note_on,0,0,1,,,,,,,,,,,,,,0,,,63,90
53440,note_on,0,0,1,,,,,,,,,,,,,,0,,,60,90
53440,note_on,0,0,1,,,,,,,,,,,,,,0,,,66,90
53440,note_on,20,0,1,,,,,,,,,,,,,,0,,,69,90
53520,note_off,720,0,3,,,,,,,,,,,,,,2,,,69,64
53520,note_on,0,0,3,,,,,,,,,,,,,,2,,,69,90
53580,note_off,140,0,1,,,,,,,,,,,,,,0,,,69,64
53580,note_off,0,0,1,,,,,,,,,,,,,,0,,,60,64
53580,note_off,0,0,1,,,,,,,,,,,,,,0,,,63,64
53580,note_off,0,0,1,,,,,,,,,,,,,,0,,,66,64
53600,note_on,20,0,1,,,,,,,,,,,,,,0,,,69,90
53600,note_on,0,0,1,,,,,,,,,,,,,,0,,,60,90
53600,note_on,0,0,1,,,,,,,,,,,,,,0,,,63,90
53600,note_on,0,0,1,,,,,,,,,,,,,,0,,,66,90
53740,note_off,0,0,1,,,,,,,,,,,,,,0,,,66,64
53740,note_off,0,0,1,,,,,,,,,,,,,,0,,,63,64
53740,note_off,0,0,1,,,,,,,,,,,,,,0,,,60,64
53740,note_off,140,0,1,,,,,,,,,,,,,,0,,,69,64
53760,note_on,0,0,1,,,,,,,,,,,,,,0,,,62,90
53760,note_on,0,0,1,,,,,,,,,,,,,,0,,,65,90
53760,note_on,20,0,1,,,,,,,,,,,,,,0,,,70,90
53760,note_on,0,0,3,,,,,,,,,,,,,,2,,,72,90
53760,note_on,0,0,2,,,,,,,,,,,,,,1,,,46,90
53760,note_off,1920,0,2,,,,,,,,,,,,,,1,,,34,64
53760,note_off,240,0,3,,,,,,,,,,,,,,2,,,69,64
53900,note_off,140,0,1,,,,,,,,,,,,,,0,,,70,64
53900,note_off,0,0,1,,,,,,,,,,,,,,0,,,65,64
53900,note_off,0,0,1,,,,,,,,,,,,,,0,,,62,64
53920,note_on,0,0,2,,,,,,,,,,,,,,1,,,48,90
53920,note_on,0,0,1,,,,,,,,,,,,,,0,,,62,90
53920,note_on,0,0,1,,,,,,,,,,,,,,0,,,65,90
53920,note_on,20,0,1,,,,,,,,,,,,,,0,,,70,90
53920,note_off,160,0,2,,,,,,,,,,,,,,1,,,46,64
54060,note_off,140,0,1,,,,,,,,,,,,,,0,,,70,64
54060,note_off,0,0,1,,,,,,,,,,,,,,0,,,65,64
54060,note_off,0,0,1,,,,,,,,,,,,,,0,,,62,64
54080,note_on,0,0,2,,,,,,,,,,,,,,1,,,50,90
54080,note_on,20,0,1,,,,,,,,,,,,,,0,,,70,90
54080,note_off,160,0,2,,,,,,,,,,,,,,1,,,48,64
54080,note_on,0,0,1,,,,,,,,,,,,,,0,,,62,90
54080,note_on,0,0,1,,,,,,,,,,,,,,0,,,65,90
54220,note_off,140,0,1,,,,,,,,,,,,,,0,,,70,64
54220,note_off,0,0,1,,,,,,,,,,,,,,0,,,65,64
54220,note_off,0,0,1,,,,,,,,,,,,,,0,,,62,64
54240,note_on,20,0,1,,,,,,,,,,,,,,0,,,70,90
54240,note_on,0,0,1,,,,,,,,,,,,,,0,,,65,90
54240,note_on,0,0,1,,,,,,,,,,,,,,0,,,62,90
54240,note_off,160,0,2,,,,,,,,,,,,,,1,,,50,64
54240,note_on,0,0,3,,,,,,,,,,,,,,2,,,70,90
54240,note_off,480,0,3,,,,,,,,,,,,,,2,,,72,64
54240,note_on,0,0,2,,,,,,,,,,,,,,1,,,51,90
54380,note_off,140,0,1,,,,,,,,,,,,,,0,,,70,64
54380,note_off,0,0,1,,,,,,,,,,,,,,0,,,65,64
54380,note_off,0,0,1,,,,,,,,,,,,,,0,,,62,64
54400,note_on,0,0,2,,,,,,,,,,,,,,1,,,53,90
54400,note_off,160,0,2,,,,,,,,,,,,,,1,,,51,64
54400,note_on,0,0,1,,,,,,,,,,,,,,0,,,62,90
54400,note_on,0,0,1,,,,,,,,,,,,,,0,,,65,90
54400,note_on,20,0,1,,,,,,,,,,,,,,0,,,70,90
54540,note_off,0,0,1,,,,,,,,,,,,,,0,,,62,64
54540,note_off,0,0,1,,,,,,,,,,,,,,0,,,65,64
54540,note_off,140,0,1,,,,,,,,,,,,,,0,,,70,64
54560,note_on,0,0,1,,,,,,,,,,,,,,0,,,62,90
54560,note_off,160,0,2,,,,,,,,,,,,,,1,,,53,64
54560,note_on,0,0,2,,,,,,,,,,,,,,1,,,54,90
54560,note_on,0,0,1,,,,,,,,,,,,,,0,,,65,90
54560,note_on,20,0,1,,,,,,,,,,,,,,0,,,70,90
54700,note_off,0,0,1,,,,,,,,,,,,,,0,,,62,64
54700,note_off,140,0,1,,,,,,,,,,,,,,0,,,70,64
54700,note_off,0,0,1,,,,,,,,,,,,,,0,,,65,64
54720,note_off,160,0,2,,,,,,,,,,,,,,1,,,54,64
54720,note_on,0,0,2,,,,,,,,,,,,,,1,,,53,90
54720,note_on,0,0,1,,,,,,,,,,,,,,0,,,62,90
54720,note_on,20,0,1,,,,,,,,,,,,,,0,,,70,90
54720,note_on,0,0,1,,,,,,,,,,,,,,0,,,65,90
54720,note_off,480,0,3,,,,,,,,,,,,,,2,,,70,64
54860,note_off,0,0,1,,,,,,,,,,,,,,0,,,62,64
54860,note_off,0,0,1,,,,,,,,,,,,,,0,,,65,64
54860,note_off,140,0,1,,,,,,,,,,,,,,0,,,70,64
54880,note_on,0,0,1,,,,,,,,,,,,,,0,,,65,90
54880,note_on,0,0,1,,,,,,,,,,,,,,0,,,62,90
54880,note_on,20,0,1,,,,,,,,,,,,,,0,,,70,90
54960,note_off,240,0,2,,,,,,,,,,,,,,1,,,53,64
55020,note_off,0,0,1,,,,,,,,,,,,,,0,,,62,64
55020,note_off,0,0,1,,,,,,,,,,,,,,0,,,65,64
55020,note_off,140,0,1,,,,,,,,,,,,,,0,,,70,64
55040,note_on,0,0,1,,,,,,,,,,,,,,0,,,65,90
55040,note_on,20,0,1,,,,,,,,,,,,,,0,,,70,90
55040,note_on,0,0,1,,,,,,,,,,,,,,0,,,62,90
55180,note_off,0,0,1,,,,,,,,,,,,,,0,,,65,64
55180,note_off,0,0,1,,,,,,,,,,,,,,0,,,62,64
55180,note_off,140,0,1,,,,,,,,,,,,,,0,,,70,64
55200,note_on,240,0,2,,,,,,,,,,,,,,1,,,50,90
55200,note_on,20,0,1,,,,,,,,,,,,,,0,,,70,90
55200,note_on,0,0,1,,,,,,,,,,,,,,0,,,65,90
55200,note_on,0,0,1,,,,,,,,,,,,,,0,,,62,90
55200,note_on,480,0,3,,,,,,,,,,,,,,2,,,70,90
55340,note_off,0,0,1,,,,,,,,,,,,,,0,,,62,64
55340,note_off,140,0,1,,,,,,,,,,,,,,0,,,70,64
55340,note_off,0,0,1,,,,,,,,,,,,,,0,,,65,64
55360,note_on,0,0,1,,,,,,,,,,,,,,0,,,62,90
55360,note_on,0,0,1,,,,,,,,,,,,,,0,,,65,90
55360,note_on,20,0,1,,,,,,,,,,,,,,0,,,70,90
55440,note_off,240,0,2,,,,,,,,,,,,,,1,,,50,64
55500,note_off,140,0,1,,,,,,,,,,,,,,0,,,70,64
55500,note_off,0,0,1,,,,,,,,,,,,,,0,,,65,64
55500,note_off,0,0,1,,,,,,,,,,,,,,0,,,62,64
55520,note_on,20,0,1,,,,,,,,,,,,,,0,,,70,90
55520,note_on,0,0,1,,,,,,,,,,,,,,0,,,65,90
55520,note_on,0,0,1,,,,,,,,,,,,,,0,,,62,90
55660,note_off,140,0,1,,,,,,,,,,,,,,0,,,70,64
55660,note_off,0,0,1,,,,,,,,,,,,,,0,,,62,64
55660,note_off,0,0,1,,,,,,,,,,,,,,0,,,65,64
55680,note_on,0,0,1,,,,,,,,,,,,,,0,,,60,90
55680,note_on,240,0,2,,,,,,,,,,,,,,1,,,42,90
55680,note_on,0,0,3,,,,,,,,,,,,,,2,,,74,90
55680,note_on,20,0,1,,,,,,,,,,,,,,0,,,69,90
55680,note_off,480,0,3,,,,,,,,,,,,,,2,,,70,64
55680,note_on,0,0,1,,,,,,,,,,,,,,0,,,62,90
55820,note_off,0,0,1,,,,,,,,,,,,,,0,,,62,64
55820,note_off,140,0,1,,,,,,,,,,,,,,0,,,69,64
55820,note_off,0,0,1,,,,,,,,,,,,,,0,,,60,64
55840,note_on,0,0,1,,,,,,,,,,,,,,0,,,62,90
55840,note_on,0,0,1,,,,,,,,,,,,,,0,,,60,90
55840,note_on,20,0,1,,,,,,,,,,,,,,0,,,69,90
55980,note_off,0,0,1,,,,,,,,,,,,,,0,,,62,64
55980,note_off,0,0,1,,,,,,,,,,,,,,0,,,60,64
55980,note_off,140,0,1,,,,,,,,,,,,,,0,,,69,64
56000,note_on,0,0,1,,,,,,,,,,,,,,0,,,62,90
56000,note_on,0,0,1,,,,,,,,,,,,,,0,,,60,90
56000,note_on,20,0,1,,,,,,,,,,,,,,0,,,69,90
56140,note_off,0,0,1,,,,,,,,,,,,,,0,,,62,64
56140,note_off,0,0,1,,,,,,,,,,,,,,0,,,60,64
56140,note_off,140,0,1,,,,,,,,,,,,,,0,,,69,64
56160,note_on,0,0,1,,,,,,,,,,,,,,0,,,60,90
56160,note_on,20,0,1,,,,,,,,,,,,,,0,,,69,90
56160,note_on,0,0,1,,,,,,,,,,,,,,0,,,62,90
56300,note_off,0,0,1,,,,,,,,,,,,,,0,,,60,64
56300,note_off,0,0,1,,,,,,,,,,,,,,0,,,62,64
56300,note_off,140,0,1,,,,,,,,,,,,,,0,,,69,64
56320,note_on,20,0,1,,,,,,,,,,,,,,0,,,69,90
56320,note_on,0,0,1,,,,,,,,,,,,,,0,,,60,90
56320,note_on,0,0,1,,,,,,,,,,,,,,0,,,62,90
56460,note_off,140,0,1,,,,,,,,,,,,,,0,,,69,64
56460,note_off,0,0,1,,,,,,,,,,,,,,0,,,60,64
56460,note_off,0,0,1,,,,,,,,,,,,,,0,,,62,64
56480,note_on,0,0,1,,,,,,,,,,,,,,0,,,62,90
56480,note_on,20,0,1,,,,,,,,,,,,,,0,,,69,90
56480,note_on,0,0,1,,,,,,,,,,,,,,0,,,60,90
56620,note_off,140,0,1,,,,,,,,,,,,,,0,,,69,64
56620,note_off,0,0,1,,,,,,,,,,,,,,0,,,62,64
56620,note_off,0,0,1,,,,,,,,,,,,,,0,,,60,64
56640,note_on,20,0,1,,,,,,,,,,,,,,0,,,69,90
56640,note_on,0,0,1,,,,,,,,,,,,,,0,,,60,90
56640,note_on,0,0,1,,,,,,,,,,,,,,0,,,62,90
56780,note_off,140,0,1,,,,,,,,,,,,,,0,,,69,64
56780,note_off,0,0,1,,,,,,,,,,,,,,0,,,60,64
56780,note_off,0,0,1,,,,,,,,,,,,,,0,,,62,64
56800,note_on,20,0,1,,,,,,,,,,,,,,0,,,69,90
56800,note_on,0,0,1,,,,,,,,,,,,,,0,,,60,90
56800,note_on,0,0,1,,,,,,,,,,,,,,0,,,62,90
56940,note_off,0,0,1,,,,,,,,,,,,,,0,,,60,64
56940,note_off,0,0,1,,,,,,,,,,,,,,0,,,62,64
56940,note_off,140,0,1,,,,,,,,,,,,,,0,,,69,64
56960,note_on,20,0,1,,,,,,,,,,,,,,0,,,69,90
56960,note_on,0,0,1,,,,,,,,,,,,,,0,,,60,90
56960,note_on,0,0,1,,,,,,,,,,,,,,0,,,62,90
57100,note_off,140,0,1,,,,,,,,,,,,,,0,,,69,64
57100,note_off,0,0,1,,,,,,,,,,,,,,0,,,60,64
57100,note_off,0,0,1,,,,,,,,,,,,,,0,,,62,64
57120,note_on,20,0,1,,,,,,,,,,,,,,0,,,69,90
57120,note_on,0,0,1,,,,,,,,,,,,,,0,,,60,90
57120,note_on,0,0,1,,,,,,,,,,,,,,0,,,62,90
57120,note_off,1440,0,3,,,,,,,,,,,,,,2,,,74,64
57120,note_on,0,0,3,,,,,,,,,,,,,,2,,,69,90
57260,note_off,140,0,1,,,,,,,,,,,,,,0,,,69,64
57260,note_off,0,0,1,,,,,,,,,,,,,,0,,,60,64
57260,note_off,0,0,1,,,,,,,,,,,,,,0,,,62,64
57280,note_on,20,0,1,,,,,,,,,,,,,,0,,,69,90
57280,note_on,0,0,1,,,,,,,,,,,,,,0,,,60,90
57280,note_on,0,0,1,,,,,,,,,,,,,,0,,,62,90
57420,note_off,140,0,1,,,,,,,,,,,,,,0,,,69,64
57420,note_off,0,0,1,,,,,,,,,,,,,,0,,,60,64
57420,note_off,0,0,1,,,,,,,,,,,,,,0,,,62,64
57440,note_on,0,0,1,,,,,,,,,,,,,,0,,,60,90
57440,note_on,20,0,1,,,,,,,,,,,,,,0,,,69,90
57440,note_on,0,0,1,,,,,,,,,,,,,,0,,,62,90
57580,note_off,0,0,1,,,,,,,,,,,,,,0,,,62,64
57580,note_off,0,0,1,,,,,,,,,,,,,,0,,,60,64
57580,note_off,140,0,1,,,,,,,,,,,,,,0,,,69,64
57600,note_on,0,0,2,,,,,,,,,,,,,,1,,,43,90
57600,note_off,480,0,3,,,,,,,,,,,,,,2,,,69,64
57600,note_on,20,0,1,,,,,,,,,,,,,,0,,,67,90
57600,note_on,0,0,1,,,,,,,,,,,,,,0,,,58,90
57600,note_on,0,0,1,,,,,,,,,,,,,,0,,,62,90
57600,note_on,0,0,3,,,,,,,,,,,,,,2,,,74,90
57600,note_off,1920,0,2,,,,,,,,,,,,,,1,,,42,64
57740,note_off,0,0,1,,,,,,,,,,,,,,0,,,62,64
57740,note_off,140,0,1,,,,,,,,,,,,,,0,,,67,64
57740,note_off,0,0,1,,,,,,,,,,,,,,0,,,58,64
57760,note_on,0,0,1,,,,,,,,,,,,,,0,,,58,90
57760,note_on,0,0,1,,,,,,,,,,,,,,0,,,62,90
57760,note_on,20,0,1,,,,,,,,,,,,,,0,,,67,90
57900,note_off,140,0,1,,,,,,,,,,,,,,0,,,67,64
57900,note_off,0,0,1,,,,,,,,,,,,,,0,,,58,64
57900,note_off,0,0,1,,,,,,,,,,,,,,0,,,62,64
57920,note_on,20,0,1,,,,,,,,,,,,,,0,,,67,90
57920,note_on,0,0,1,,,,,,,,,,,,,,0,,,58,90
57920,note_on,0,0,1,,,,,,,,,,,,,,0,,,62,90
58060,note_off,140,0,1,,,,,,,,,,,,,,0,,,67,64
58060,note_off,0,0,1,,,,,,,,,,,,,,0,,,58,64
58060,note_off,0,0,1,,,,,,,,,,,,,,0,,,62,64
58080,note_on,0,0,3,,,,,,,,,,,,,,2,,,70,90
58080,note_off,480,0,3,,,,,,,,,,,,,,2,,,74,64
58080,note_on,20,0,1,,,,,,,,,,,,,,0,,,67,90
58080,note_on,0,0,1,,,,,,,,,,,,,,0,,,62,90
58080,note_on,0,0,1,,,,,,,,,,,,,,0,,,58,90
58080,note_off,480,0,2,,,,,,,,,,,,,,1,,,43,64
58220,note_off,140,0,1,,,,,,,,,,,,,,0,,,67,64
58220,note_off,0,0,1,,,,,,,,,,,,,,0,,,62,64
58220,note_off,0,0,1,,,,,,,,,,,,,,0,,,58,64
58240,note_on,20,0,1,,,,,,,,,,,,,,0,,,67,90
58240,note_on,0,0,1,,,,,,,,,,,,,,0,,,58,90
58240,note_on,0,0,1,,,,,,,,,,,,,,0,,,62,90
58380,note_off,140,0,1,,,,,,,,,,,,,,0,,,67,64
58380,note_off,0,0,1,,,,,,,,,,,,,,0,,,58,64
58380,note_off,0,0,1,,,,,,,,,,,,,,0,,,62,64
58400,note_on,20,0,1,,,,,,,,,,,,,,0,,,67,90
58400,note_on,0,0,1,,,,,,,,,,,,,,0,,,58,90
58400,note_on,0,0,1,,,,,,,,,,,,,,0,,,62,90
58540,note_off,140,0,1,,,,,,,,,,,,,,0,,,67,64
58540,note_off,0,0,1,,,,,,,,,,,,,,0,,,62,64
58540,note_off,0,0,1,,,,,,,,,,,,,,0,,,58,64
58560,note_on,480,0,2,,,,,,,,,,,,,,1,,,39,90
58560,note_on,20,0,1,,,,,,,,,,,,,,0,,,67,90
58560,note_on,0,0,1,,,,,,,,,,,,,,0,,,58,90
58560,note_on,0,0,1,,,,,,,,,,,,,,0,,,63,90
58560,note_off,480,0,3,,,,,,,,,,,,,,2,,,70,64
58700,note_off,140,0,1,,,,,,,,,,,,,,0,,,67,64
58700,note_off,0,0,1,,,,,,,,,,,,,,0,,,58,64
58700,note_off,0,0,1,,,,,,,,,,,,,,0,,,63,64
58720,note_on,0,0,1,,,,,,,,,,,,,,0,,,63,90
58720,note_on,0,0,1,,,,,,,,,,,,,,0,,,58,90
58720,note_on,20,0,1,,,,,,,,,,,,,,0,,,67,90
58860,note_off,0,0,1,,,,,,,,,,,,,,0,,,63,64
58860,note_off,0,0,1,,,,,,,,,,,,,,0,,,58,64
58860,note_off,140,0,1,,,,,,,,,,,,,,0,,,67,64
58880,note_on,0,0,1,,,,,,,,,,,,,,0,,,58,90
58880,note_on,0,0,1,,,,,,,,,,,,,,0,,,63,90
58880,note_on,20,0,1,,,,,,,,,,,,,,0,,,67,90
59020,note_off,0,0,1,,,,,,,,,,,,,,0,,,58,64
59020,note_off,0,0,1,,,,,,,,,,,,,,0,,,63,64
59020,note_off,140,0,1,,,,,,,,,,,,,,0,,,67,64
59040,note_on,480,0,3,,,,,,,,,,,,,,2,,,67,90
59040,note_on,20,0,1,,,,,,,,,,,,,,0,,,67,90
59040,note_on,0,0,1,,,,,,,,,,,,,,0,,,58,90
59040,note_on,0,0,1,,,,,,,,,,,,,,0,,,63,90
59040,note_off,480,0,2,,,,,,,,,,,,,,1,,,39,64
59180,note_off,140,0,1,,,,,,,,,,,,,,0,,,67,64
59180,note_off,0,0,1,,,,,,,,,,,,,,0,,,58,64
59180,note_off,0,0,1,,,,,,,,,,,,,,0,,,63,64
59200,note_on,0,0,1,,,,,,,,,,,,,,0,,,63,90
59200,note_on,0,0,1,,,,,,,,,,,,,,0,,,58,90
59200,note_on,20,0,1,,,,,,,,,,,,,,0,,,67,90
59340,note_off,0,0,1,,,,,,,,,,,,,,0,,,58,64
59340,note_off,0,0,1,,,,,,,,,,,,,,0,,,63,64
59340,note_off,140,0,1,,,,,,,,,,,,,,0,,,67,64
59360,note_on,20,0,1,,,,,,,,,,,,,,0,,,67,90
59360,note_on,0,0,1,,,,,,,,,,,,,,0,,,63,90
59360,note_on,0,0,1,,,,,,,,,,,,,,0,,,58,90
59500,note_off,140,0,1,,,,,,,,,,,,,,0,,,67,64
59500,note_off,0,0,1,,,,,,,,,,,,,,0,,,58,64
59500,note_off,0,0,1,,,,,,,,,,,,,,0,,,63,64
59520,note_on,20,0,1,,,,,,,,,,,,,,0,,,67,90
59520,note_on,0,0,1,,,,,,,,,,,,,,0,,,63,90
59520,note_on,480,0,2,,,,,,,,,,,,,,1,,,36,90
59520,note_on,0,0,3,,,,,,,,,,,,,,2,,,69,90
59520,note_off,480,0,3,,,,,,,,,,,,,,2,,,67,64
59520,note_on,0,0,1,,,,,,,,,,,,,,0,,,57,90
59660,note_off,140,0,1,,,,,,,,,,,,,,0,,,67,64
59660,note_off,0,0,1,,,,,,,,,,,,,,0,,,57,64
59660,note_off,0,0,1,,,,,,,,,,,,,,0,,,63,64
59680,note_on,20,0,1,,,,,,,,,,,,,,0,,,67,90
59680,note_on,0,0,1,,,,,,,,,,,,,,0,,,57,90
59680,note_on,0,0,1,,,,,,,,,,,,,,0,,,63,90
59820,note_off,0,0,1,,,,,,,,,,,,,,0,,,63,64
59820,note_off,140,0,1,,,,,,,,,,,,,,0,,,67,64
59820,note_off,0,0,1,,,,,,,,,,,,,,0,,,57,64
59840,note_on,0,0,1,,,,,,,,,,,,,,0,,,57,90
59840,note_on,0,0,1,,,,,,,,,,,,,,0,,,63,90
59840,note_on,20,0,1,,,,,,,,,,,,,,0,,,67,90
59980,note_off,140,0,1,,,,,,,,,,,,,,0,,,67,64
59980,note_off,0,0,1,,,,,,,,,,,,,,0,,,57,64
59980,note_off,0,0,1,,,,,,,,,,,,,,0,,,63,64
60000,note_on,0,0,1,,,,,,,,,,,,,,0,,,63,90
60000,note_off,480,0,2,,,,,,,,,,,,,,1,,,36,64
60000,note_on,20,0,1,,,,,,,,,,,,,,0,,,67,90
60000,note_on,0,0,1,,,,,,,,,,,,,,0,,,57,90
60140,note_off,0,0,1,,,,,,,,,,,,,,0,,,57,64
60140,note_off,0,0,1,,,,,,,,,,,,,,0,,,63,64
60140,note_off,140,0,1,,,,,,,,,,,,,,0,,,67,64
60160,note_on,0,0,1,,,,,,,,,,,,,,0,,,57,90
60160,note_on,20,0,1,,,,,,,,,,,,,,0,,,67,90
60160,note_on,0,0,1,,,,,,,,,,,,,,0,,,63,90
60200,note_off,680,0,3,,,,,,,,,,,,,,2,,,69,64
60300,note_off,0,0,1,,,,,,,,,,,,,,0,,,57,64
60300,note_off,0,0,1,,,,,,,,,,,,,,0,,,63,64
60300,note_off,140,0,1,,,,,,,,,,,,,,0,,,67,64
60320,note_on,20,0,1,,,,,,,,,,,,,,0,,,67,90
60320,note_on,0,0,1,,,,,,,,,,,,,,0,,,57,90
60320,note_on,0,0,1,,,,,,,,,,,,,,0,,,63,90
60460,note_off,140,0,1,,,,,,,,,,,,,,0,,,67,64
60460,note_off,0,0,1,,,,,,,,,,,,,,0,,,57,64
60460,note_off,0,0,1,,,,,,,,,,,,,,0,,,63,64
60480,note_on,480,0,2,,,,,,,,,,,,,,1,,,38,90
60480,note_on,20,0,1,,,,,,,,,,,,,,0,,,66,90
60480,note_on,0,0,1,,,,,,,,,,,,,,0,,,57,90
60480,note_on,0,0,1,,,,,,,,,,,,,,0,,,62,90
60480,note_on,280,0,3,,,,,,,,,,,,,,2,,,66,90
60620,note_off,140,0,1,,,,,,,,,,,,,,0,,,66,64
60620,note_off,0,0,1,,,,,,,,,,,,,,0,,,57,64
60620,note_off,0,0,1,,,,,,,,,,,,,,0,,,62,64
60640,note_on,0,0,1,,,,,,,,,,,,,,0,,,57,90
60640,note_on,0,0,1,,,,,,,,,,,,,,0,,,62,90
60640,note_on,20,0,1,,,,,,,,,,,,,,0,,,66,90
60780,note_off,140,0,1,,,,,,,,,,,,,,0,,,66,64
60780,note_off,0,0,1,,,,,,,,,,,,,,0,,,57,64
60780,note_off,0,0,1,,,,,,,,,,,,,,0,,,62,64
60800,note_on,0,0,1,,,,,,,,,,,,,,0,,,62,90
60800,note_on,20,0,1,,,,,,,,,,,,,,0,,,66,90
60800,note_on,0,0,1,,,,,,,,,,,,,,0,,,57,90
60940,note_off,140,0,1,,,,,,,,,,,,,,0,,,66,64
60940,note_off,0,0,1,,,,,,,,,,,,,,0,,,57,64
60940,note_off,0,0,1,,,,,,,,,,,,,,0,,,62,64
60960,note_off,480,0,2,,,,,,,,,,,,,,1,,,38,64
60960,note_on,0,0,1,,,,,,,,,,,,,,0,,,62,90
60960,note_on,0,0,1,,,,,,,,,,,,,,0,,,57,90
60960,note_on,20,0,1,,,,,,,,,,,,,,0,,,66,90
61100,note_off,0,0,1,,,,,,,,,,,,,,0,,,62,64
61100,note_off,140,0,1,,,,,,,,,,,,,,0,,,66,64
61100,note_off,0,0,1,,,,,,,,,,,,,,0,,,57,64
61120,note_on,20,0,1,,,,,,,,,,,,,,0,,,66,90
61120,note_on,0,0,1,,,,,,,,,,,,,,0,,,57,90
61120,note_on,0,0,1,,,,,,,,,,,,,,0,,,62,90
61160,note_off,680,0,3,,,,,,,,,,,,,,2,,,66,64
61260,note_off,0,0,1,,,,,,,,,,,,,,0,,,62,64
61260,note_off,0,0,1,,,,,,,,,,,,,,0,,,57,64
61260,note_off,140,0,1,,,,,,,,,,,,,,0,,,66,64
61280,note_on,20,0,1,,,,,,,,,,,,,,0,,,66,90
61280,note_on,0,0,1,,,,,,,,,,,,,,0,,,57,90
61280,note_on,0,0,1,,,,,,,,,,,,,,0,,,62,90
61400,control_change,440,0,2,,,,,,,,,,,,,,1,11,108,,
61410,control_change,130,0,1,,,,,,,,,,,,,,0,11,94,,
61420,note_off,10,0,1,,,,,,,,,,,,,,0,,,66,64
61420,note_off,0,0,1,,,,,,,,,,,,,,0,,,57,64
61420,note_off,0,0,1,,,,,,,,,,,,,,0,,,62,64
61440,note_on,280,0,3,,,,,,,,,,,,,,2,,,67,90
61440,note_on,20,0,1,,,,,,,,,,,,,,0,,,55,90
61440,note_on,0,0,1,,,,,,,,,,,,,,0,,,67,90
61440,note_on,40,0,2,,,,,,,,,,,,,,1,,,31,90
61580,note_off,140,0,1,,,,,,,,,,,,,,0,,,55,64
61580,note_off,0,0,1,,,,,,,,,,,,,,0,,,67,64
61600,note_on,0,0,1,,,,,,,,,,,,,,0,,,55,90
61600,note_on,20,0,1,,,,,,,,,,,,,,0,,,67,90
61740,note_off,140,0,1,,,,,,,,,,,,,,0,,,67,64
61740,note_off,0,0,1,,,,,,,,,,,,,,0,,,55,64
61760,note_on,20,0,1,,,,,,,,,,,,,,0,,,67,90
61760,note_on,0,0,1,,,,,,,,,,,,,,0,,,55,90
61900,note_off,0,0,1,,,,,,,,,,,,,,0,,,55,64
61900,note_off,140,0,1,,,,,,,,,,,,,,0,,,67,64
61920,note_on,20,0,1,,,,,,,,,,,,,,0,,,55,90
61920,note_on,0,0,1,,,,,,,,,,,,,,0,,,67,90
62040,note_off,600,0,2,,,,,,,,,,,,,,1,,,31,64
62060,note_off,0,0,1,,,,,,,,,,,,,,0,,,67,64
62060,note_off,140,0,1,,,,,,,,,,,,,,0,,,55,64
62080,note_on,20,0,1,,,,,,,,,,,,,,0,,,55,90
62080,note_on,0,0,1,,,,,,,,,,,,,,0,,,67,90
62220,note_off,140,0,1,,,,,,,,,,,,,,0,,,55,64
62220,note_off,0,0,1,,,,,,,,,,,,,,0,,,67,64
62240,note_on,0,0,1,,,,,,,,,,,,,,0,,,67,90
62240,note_on,20,0,1,,,,,,,,,,,,,,0,,,55,90
62380,note_off,0,0,1,,,,,,,,,,,,,,0,,,67,64
62380,note_off,140,0,1,,,,,,,,,,,,,,0,,,55,64
62400,note_on,20,0,1,,,,,,,,,,,,,,0,,,55,90
62400,note_on,0,0,1,,,,,,,,,,,,,,0,,,67,90
62540,note_off,0,0,1,,,,,,,,,,,,,,0,,,67,64
62540,note_off,140,0,1,,,,,,,,,,,,,,0,,,55,64
62560,note_on,20,0,1,,,,,,,,,,,,,,0,,,67,90
62560,note_on,0,0,1,,,,,,,,,,,,,,0,,,55,90
62640,note_off,1200,0,3,,,,,,,,,,,,,,2,,,67,64
62700,note_off,140,0,1,,,,,,,,,,,,,,0,,,67,64
62700,note_off,0,0,1,,,,,,,,,,,,,,0,,,55,64
62720,note_on,20,0,1,,,,,,,,,,,,,,0,,,67,90
62720,note_on,0,0,1,,,,,,,,,,,,,,0,,,55,90
62860,note_off,140,0,1,,,,,,,,,,,,,,0,,,67,64
62860,note_off,0,0,1,,,,,,,,,,,,,,0,,,55,64
62880,note_on,20,0,1,,,,,,,,,,,,,,0,,,55,90
62880,note_on,0,0,1,,,,,,,,,,,,,,0,,,67,90
63020,note_off,140,0,1,,,,,,,,,,,,,,0,,,55,64
63020,note_off,0,0,1,,,,,,,,,,,,,,0,,,67,64
63040,note_on,0,0,1,,,,,,,,,,,,,,0,,,67,90
63040,note_on,20,0,1,,,,,,,,,,,,,,0,,,55,90
63180,note_off,140,0,1,,,,,,,,,,,,,,0,,,55,64
63180,note_off,0,0,1,,,,,,,,,,,,,,0,,,67,64
63200,note_on,20,0,1,,,,,,,,,,,,,,0,,,55,90
63200,note_on,0,0,1,,,,,,,,,,,,,,0,,,67,90
63340,note_off,140,0,1,,,,,,,,,,,,,,0,,,55,64
63340,note_off,0,0,1,,,,,,,,,,,,,,0,,,67,64
63360,note_on,1320,0,2,,,,,,,,,,,,,,1,,,43,90
63360,note_on,20,0,1,,,,,,,,,,,,,,0,,,55,90
63360,note_on,0,0,1,,,,,,,,,,,,,,0,,,67,90
63500,note_off,140,0,1,,,,,,,,,,,,,,0,,,55,64
63500,note_off,0,0,1,,,,,,,,,,,,,,0,,,67,64
63520,note_on,20,0,1,,,,,,,,,,,,,,0,,,67,90
63520,note_on,0,0,2,,,,,,,,,,,,,,1,,,45,90
63520,note_off,160,0,2,,,,,,,,,,,,,,1,,,43,64
63520,note_on,0,0,1,,,,,,,,,,,,,,0,,,55,90
63660,note_off,0,0,1,,,,,,,,,,,,,,0,,,55,64
63660,note_off,140,0,1,,,,,,,,,,,,,,0,,,67,64
63680,note_on,0,0,1,,,,,,,,,,,,,,0,,,55,90
63680,note_on,20,0,1,,,,,,,,,,,,,,0,,,67,90
63680,note_on,0,0,2,,,,,,,,,,,,,,1,,,46,90
63680,note_off,160,0,2,,,,,,,,,,,,,,1,,,45,64
63820,note_off,140,0,1,,,,,,,,,,,,,,0,,,67,64
63820,note_off,0,0,1,,,,,,,,,,,,,,0,,,55,64
63840,note_off,160,0,2,,,,,,,,,,,,,,1,,,46,64
63840,note_on,20,0,1,,,,,,,,,,,,,,0,,,55,90
63840,note_on,0,0,1,,,,,,,,,,,,,,0,,,67,90
63840,note_on,0,0,2,,,,,,,,,,,,,,1,,,48,90
63980,note_off,140,0,1,,,,,,,,,,,,,,0,,,55,64
63980,note_off,0,0,1,,,,,,,,,,,,,,0,,,67,64
64000,note_on,0,0,1,,,,,,,,,,,,,,0,,,67,90
64000,note_on,0,0,2,,,,,,,,,,,,,,1,,,50,90
64000,note_off,160,0,2,,,,,,,,,,,,,,1,,,48,64
64000,note_on,20,0,1,,,,,,,,,,,,,,0,,,55,90
64140,note_off,140,0,1,,,,,,,,,,,,,,0,,,55,64
64140,note_off,0,0,1,,,,,,,,,,,,,,0,,,67,64
64160,note_on,0,0,2,,,,,,,,,,,,,,1,,,51,90
64160,note_on,20,0,1,,,,,,,,,,,,,,0,,,55,90
64160,note_on,0,0,1,,,,,,,,,,,,,,0,,,67,90
64160,note_off,160,0,2,,,,,,,,,,,,,,1,,,50,64
64300,note_off,140,0,1,,,,,,,,,,,,,,0,,,55,64
64300,note_off,0,0,1,,,,,,,,,,,,,,0,,,67,64
64320,note_on,0,0,1,,,,,,,,,,,,,,0,,,67,90
64320,note_off,160,0,2,,,,,,,,,,,,,,1,,,51,64
64320,note_on,20,0,1,,,,,,,,,,,,,,0,,,55,90
64320,note_on,0,0,2,,,,,,,,,,,,,,1,,,50,90
64460,note_off,140,0,1,,,,,,,,,,,,,,0,,,55,64
64460,note_off,0,0,1,,,,,,,,,,,,,,0,,,67,64
64480,note_on,20,0,1,,,,,,,,,,,,,,0,,,67,90
64480,note_on,0,0,1,,,,,,,,,,,,,,0,,,55,90
64550,note_off,230,0,2,,,,,,,,,,,,,,1,,,50,64
64620,note_off,140,0,1,,,,,,,,,,,,,,0,,,67,64
64620,note_off,0,0,1,,,,,,,,,,,,,,0,,,55,64
64640,note_on,20,0,1,,,,,,,,,,,,,,0,,,67,90
64640,note_on,0,0,1,,,,,,,,,,,,,,0,,,55,90
64780,note_off,0,0,1,,,,,,,,,,,,,,0,,,55,64
64780,note_off,140,0,1,,,,,,,,,,,,,,0,,,67,64
64800,note_on,20,0,1,,,,,,,,,,,,,,0,,,55,90
64800,note_on,0,0,1,,,,,,,,,,,,,,0,,,67,90
64800,note_on,250,0,2,,,,,,,,,,,,,,1,,,46,90
64940,note_off,140,0,1,,,,,,,,,,,,,,0,,,55,64
64940,note_off,0,0,1,,,,,,,,,,,,,,0,,,67,64
64960,note_on,20,0,1,,,,,,,,,,,,,,0,,,55,90
64960,note_on,0,0,1,,,,,,,,,,,,,,0,,,67,90
65030,note_off,230,0,2,,,,,,,,,,,,,,1,,,46,64
65100,note_off,140,0,1,,,,,,,,,,,,,,0,,,55,64
65100,note_off,0,0,1,,,,,,,,,,,,,,0,,,67,64
65120,note_on,20,0,1,,,,,,,,,,,,,,0,,,55,90
65120,note_on,0,0,1,,,,,,,,,,,,,,0,,,67,90
65260,note_off,140,0,1,,,,,,,,,,,,,,0,,,55,64
65260,note_off,0,0,1,,,,,,,,,,,,,,0,,,67,64
65280,note_on,20,0,1,,,,,,,,,,,,,,0,,,55,90
65280,note_on,250,0,2,,,,,,,,,,,,,,1,,,43,90
65280,note_on,0,0,1,,,,,,,,,,,,,,0,,,67,90
65420,note_off,140,0,1,,,,,,,,,,,,,,0,,,55,64
65420,note_off,0,0,1,,,,,,,,,,,,,,0,,,67,64
65440,note_on,20,0,1,,,,,,,,,,,,,,0,,,67,90
65440,note_on,0,0,1,,,,,,,,,,,,,,0,,,55,90
65580,note_off,0,0,1,,,,,,,,,,,,,,0,,,55,64
65580,note_off,140,0,1,,,,,,,,,,,,,,0,,,67,64
65600,note_on,0,0,1,,,,,,,,,,,,,,0,,,55,90
65600,note_on,20,0,1,,,,,,,,,,,,,,0,,,67,90
65740,note_off,140,0,1,,,,,,,,,,,,,,0,,,67,64
65740,note_off,0,0,1,,,,,,,,,,,,,,0,,,55,64
65750,note_off,470,0,2,,,,,,,,,,,,,,1,,,43,64
65760,note_on,0,0,1,,,,,,,,,,,,,,0,,,67,90
65760,note_on,20,0,1,,,,,,,,,,,,,,0,,,55,90
65900,note_off,140,0,1,,,,,,,,,,,,,,0,,,55,64
65900,note_off,0,0,1,,,,,,,,,,,,,,0,,,67,64
65920,note_on,0,0,1,,,,,,,,,,,,,,0,,,67,90
65920,note_on,20,0,1,,,,,,,,,,,,,,0,,,55,90
66060,note_off,140,0,1,,,,,,,,,,,,,,0,,,55,64
66060,note_off,0,0,1,,,,,,,,,,,,,,0,,,67,64
66080,note_on,20,0,1,,,,,,,,,,,,,,0,,,55,90
66080,note_on,0,0,1,,,,,,,,,,,,,,0,,,67,90
66220,note_off,140,0,1,,,,,,,,,,,,,,0,,,55,64
66220,note_off,0,0,1,,,,,,,,,,,,,,0,,,67,64
66240,note_on,0,0,1,,,,,,,,,,,,,,0,,,67,90
66240,note_on,20,0,1,,,,,,,,,,,,,,0,,,55,90
66380,note_off,0,0,1,,,,,,,,,,,,,,0,,,67,64
66380,note_off,140,0,1,,,,,,,,,,,,,,0,,,55,64
66400,note_on,0,0,1,,,,,,,,,,,,,,0,,,55,90
66400,note_on,20,0,1,,,,,,,,,,,,,,0,,,67,90
66540,note_off,140,0,1,,,,,,,,,,,,,,0,,,67,64
66540,note_off,0,0,1,,,,,,,,,,,,,,0,,,55,64
66560,note_on,0,0,1,,,,,,,,,,,,,,0,,,55,90
66560,note_on,20,0,1,,,,,,,,,,,,,,0,,,67,90
66700,note_off,0,0,1,,,,,,,,,,,,,,0,,,55,64
66700,note_off,140,0,1,,,,,,,,,,,,,,0,,,67,64
66720,note_on,20,0,1,,,,,,,,,,,,,,0,,,55,90
66720,note_on,0,0,1,,,,,,,,,,,,,,0,,,67,90
66860,note_off,140,0,1,,,,,,,,,,,,,,0,,,55,64
66860,note_off,0,0,1,,,,,,,,,,,,,,0,,,67,64
66880,note_on,20,0,1,,,,,,,,,,,,,,0,,,55,90
66880,note_on,0,0,1,,,,,,,,,,,,,,0,,,67,90
67020,note_off,140,0,1,,,,,,,,,,,,,,0,,,55,64
67020,note_off,0,0,1,,,,,,,,,,,,,,0,,,67,64
67040,note_on,20,0,1,,,,,,,,,,,,,,0,,,55,90
67040,note_on,0,0,1,,,,,,,,,,,,,,0,,,67,90
67120,control_change,1370,0,2,,,,,,,,,,,,,,1,11,88,,
67180,note_off,140,0,1,,,,,,,,,,,,,,0,,,55,64
67180,note_off,0,0,1,,,,,,,,,,,,,,0,,,67,64
67200,control_change,20,0,1,,,,,,,,,,,,,,0,11,90,,
67200,note_on,0,0,1,,,,,,,,,,,,,,0,,,67,90
67200,note_on,0,0,1,,,,,,,,,,,,,,0,,,55,90
67200,note_on,80,0,2,,,,,,,,,,,,,,1,,,43,90
67235,control_change,35,0,1,,,,,,,,,,,,,,0,11,89,,
67270,control_change,35,0,1,,,,,,,,,,,,,,0,11,88,,
67306,control_change,36,0,1,,,,,,,,,,,,,,0,11,87,,
67340,note_off,0,0,1,,,,,,,,,,,,,,0,,,67,64
67340,note_off,34,0,1,,,,,,,,,,,,,,0,,,55,64
67341,control_change,1,0,1,,,,,,,,,,,,,,0,11,86,,
67360,note_on,19,0,1,,,,,,,,,,,,,,0,,,67,90
67360,note_on,0,0,1,,,,,,,,,,,,,,0,,,55,90
67360,note_off,160,0,2,,,,,,,,,,,,,,1,,,43,64
67360,note_on,0,0,2,,,,,,,,,,,,,,1,,,45,90
67376,control_change,16,0,1,,,,,,,,,,,,,,0,11,85,,
67412,control_change,36,0,1,,,,,,,,,,,,,,0,11,84,,
67447,control_change,35,0,1,,,,,,,,,,,,,,0,11,83,,
67483,control_change,36,0,1,,,,,,,,,,,,,,0,11,82,,
67500,note_off,17,0,1,,,,,,,,,,,,,,0,,,67,64
67500,note_off,0,0,1,,,,,,,,,,,,,,0,,,55,64
67518,control_change,18,0,1,,,,,,,,,,,,,,0,11,81,,
67520,note_on,2,0,1,,,,,,,,,,,,,,0,,,67,90
67520,note_on,0,0,1,,,,,,,,,,,,,,0,,,55,90
67520,note_on,0,0,2,,,,,,,,,,,,,,1,,,46,90
67520,note_off,160,0,2,,,,,,,,,,,,,,1,,,45,64
67553,control_change,33,0,1,,,,,,,,,,,,,,0,11,80,,
67589,control_change,36,0,1,,,,,,,,,,,,,,0,11,79,,
67624,control_change,35,0,1,,,,,,,,,,,,,,0,11,78,,
67660,control_change,0,0,1,,,,,,,,,,,,,,0,11,77,,
67660,note_off,36,0,1,,,,,,,,,,,,,,0,,,67,64
67660,note_off,0,0,1,,,,,,,,,,,,,,0,,,55,64
67680,note_off,160,0,2,,,,,,,,,,,,,,1,,,46,64
67680,note_on,20,0,1,,,,,,,,,,,,,,0,,,55,90
67680,note_on,0,0,1,,,,,,,,,,,,,,0,,,67,90
67680,note_on,0,0,2,,,,,,,,,,,,,,1,,,48,90
67695,control_change,15,0,1,,,,,,,,,,,,,,0,11,76,,
67730,control_change,35,0,1,,,,,,,,,,,,,,0,11,75,,
67766,control_change,36,0,1,,,,,,,,,,,,,,0,11,74,,
67801,control_change,35,0,1,,,,,,,,,,,,,,0,11,73,,
67820,note_off,19,0,1,,,,,,,,,,,,,,0,,,55,64
67820,note_off,0,0,1,,,,,,,,,,,,,,0,,,67,64
67836,control_change,16,0,1,,,,,,,,,,,,,,0,11,72,,
67840,note_on,0,0,2,,,,,,,,,,,,,,1,,,50,90
67840,note_on,4,0,1,,,,,,,,,,,,,,0,,,55,90
67840,note_on,0,0,1,,,,,,,,,,,,,,0,,,67,90
67840,note_off,160,0,2,,,,,,,,,,,,,,1,,,48,64
67872,control_change,32,0,1,,,,,,,,,,,,,,0,11,71,,
67907,control_change,35,0,1,,,,,,,,,,,,,,0,11,70,,
67943,control_change,36,0,1,,,,,,,,,,,,,,0,11,69,,
67978,control_change,35,0,1,,,,,,,,,,,,,,0,11,68,,
67980,note_off,2,0,1,,,,,,,,,,,,,,0,,,55,64
67980,note_off,0,0,1,,,,,,,,,,,,,,0,,,67,64
68000,note_off,160,0,2,,,,,,,,,,,,,,1,,,50,64
68000,note_on,20,0,1,,,,,,,,,,,,,,0,,,55,90
68000,note_on,0,0,1,,,,,,,,,,,,,,0,,,67,90
68000,note_on,0,0,2,,,,,,,,,,,,,,1,,,51,90
68013,control_change,13,0,1,,,,,,,,,,,,,,0,11,67,,
68049,control_change,36,0,1,,,,,,,,,,,,,,0,11,66,,
68084,control_change,35,0,1,,,,,,,,,,,,,,0,11,65,,
68119,control_change,35,0,1,,,,,,,,,,,,,,0,11,64,,
68140,note_off,21,0,1,,,,,,,,,,,,,,0,,,55,64
68140,note_off,0,0,1,,,,,,,,,,,,,,0,,,67,64
68160,note_on,20,0,1,,,,,,,,,,,,,,0,,,55,90
68160,note_on,0,0,1,,,,,,,,,,,,,,0,,,67,90
68160,note_off,160,0,2,,,,,,,,,,,,,,1,,,51,64
68160,note_on,0,0,2,,,,,,,,,,,,,,1,,,50,90
68300,note_off,0,0,1,,,,,,,,,,,,,,0,,,67,64
68300,note_off,140,0,1,,,,,,,,,,,,,,0,,,55,64
68320,note_on,20,0,1,,,,,,,,,,,,,,0,,,67,90
68320,note_on,0,0,1,,,,,,,,,,,,,,0,,,55,90
68390,note_off,230,0,2,,,,,,,,,,,,,,1,,,50,64
68460,note_off,140,0,1,,,,,,,,,,,,,,0,,,67,64
68460,note_off,0,0,1,,,,,,,,,,,,,,0,,,55,64
68480,note_on,20,0,1,,,,,,,,,,,,,,0,,,67,90
68480,note_on,0,0,1,,,,,,,,,,,,,,0,,,55,90
68620,note_off,0,0,1,,,,,,,,,,,,,,0,,,55,64
68620,note_off,140,0,1,,,,,,,,,,,,,,0,,,67,64
68640,note_on,250,0,2,,,,,,,,,,,,,,1,,,46,90
68640,note_on,20,0,1,,,,,,,,,,,,,,0,,,55,90
68640,note_on,0,0,1,,,,,,,,,,,,,,0,,,67,90
68780,note_off,0,0,1,,,,,,,,,,,,,,0,,,67,64
68780,note_off,140,0,1,,,,,,,,,,,,,,0,,,55,64
68800,note_on,20,0,1,,,,,,,,,,,,,,0,,,55,90
68800,note_on,0,0,1,,,,,,,,,,,,,,0,,,67,90
68870,note_off,230,0,2,,,,,,,,,,,,,,1,,,46,64
68940,note_off,0,0,1,,,,,,,,,,,,,,0,,,67,64
68940,note_off,140,0,1,,,,,,,,,,,,,,0,,,55,64
68960,note_on,20,0,1,,,,,,,,,,,,,,0,,,55,90
68960,note_on,0,0,1,,,,,,,,,,,,,,0,,,67,90
69100,note_off,0,0,1,,,,,,,,,,,,,,0,,,67,64
69100,note_off,140,0,1,,,,,,,,,,,,,,0,,,55,64
69120,note_on,0,0,1,,,,,,,,,,,,,,0,,,67,90
69120,note_on,20,0,1,,,,,,,,,,,,,,0,,,55,90
69120,note_on,250,0,2,,,,,,,,,,,,,,1,,,43,90
69260,note_off,140,0,1,,,,,,,,,,,,,,0,,,55,64
69260,note_off,0,0,1,,,,,,,,,,,,,,0,,,67,64
69280,note_on,20,0,1,,,,,,,,,,,,,,0,,,67,90
69280,note_on,0,0,1,,,,,,,,,,,,,,0,,,55,90
69420,note_off,0,0,1,,,,,,,,,,,,,,0,,,55,64
69420,note_off,140,0,1,,,,,,,,,,,,,,0,,,67,64
69440,note_on,0,0,1,,,,,,,,,,,,,,0,,,55,90
69440,control_change,6800,0,3,,,,,,,,,,,,,,2,11,88,,
69440,note_on,20,0,1,,,,,,,,,,,,,,0,,,67,90
69580,note_off,140,0,1,,,,,,,,,,,,,,0,,,67,64
69580,note_off,0,0,1,,,,,,,,,,,,,,0,,,55,64
69600,note_on,20,0,1,,,,,,,,,,,,,,0,,,55,90
69600,note_off,480,0,2,,,,,,,,,,,,,,1,,,43,64
69600,note_on,0,0,1,,,,,,,,,,,,,,0,,,67,90
69740,note_off,140,0,1,,,,,,,,,,,,,,0,,,55,64
69740,note_off,0,0,1,,,,,,,,,,,,,,0,,,67,64
69760,note_on,20,0,1,,,,,,,,,,,,,,0,,,55,90
69760,note_on,0,0,1,,,,,,,,,,,,,,0,,,67,90
69900,note_off,0,0,1,,,,,,,,,,,,,,0,,,67,64
69900,note_off,140,0,1,,,,,,,,,,,,,,0,,,55,64
69920,note_on,20,0,1,,,,,,,,,,,,,,0,,,55,90
69920,note_on,0,0,1,,,,,,,,,,,,,,0,,,67,90
70060,note_off,140,0,1,,,,,,,,,,,,,,0,,,55,64
70060,note_off,0,0,1,,,,,,,,,,,,,,0,,,67,64
70080,note_on,0,0,1,,,,,,,,,,,,,,0,,,67,90
70080,note_on,20,0,1,,,,,,,,,,,,,,0,,,55,90
70220,note_off,0,0,1,,,,,,,,,,,,,,0,,,67,64
70220,note_off,140,0,1,,,,,,,,,,,,,,0,,,55,64
70240,note_on,20,0,1,,,,,,,,,,,,,,0,,,67,90
70240,note_on,0,0,1,,,,,,,,,,,,,,0,,,55,90
70380,note_off,0,0,1,,,,,,,,,,,,,,0,,,55,64
70380,note_off,140,0,1,,,,,,,,,,,,,,0,,,67,64
70400,note_on,20,0,1,,,,,,,,,,,,,,0,,,67,90
70400,note_on,0,0,1,,,,,,,,,,,,,,0,,,55,90
70540,note_off,140,0,1,,,,,,,,,,,,,,0,,,67,64
70540,note_off,0,0,1,,,,,,,,,,,,,,0,,,55,64
70560,note_on,1120,0,3,,,,,,,,,,,,,,2,,,62,90
70560,note_on,0,0,1,,,,,,,,,,,,,,0,,,67,90
70560,note_on,20,0,1,,,,,,,,,,,,,,0,,,55,90
70700,note_off,0,0,1,,,,,,,,,,,,,,0,,,67,64
70700,note_off,140,0,1,,,,,,,,,,,,,,0,,,55,64
70720,note_on,0,0,1,,,,,,,,,,,,,,0,,,67,90
70720,note_on,20,0,1,,,,,,,,,,,,,,0,,,55,90
70860,note_off,0,0,1,,,,,,,,,,,,,,0,,,67,64
70860,note_off,140,0,1,,,,,,,,,,,,,,0,,,55,64
70880,note_on,20,0,1,,,,,,,,,,,,,,0,,,55,90
70880,note_on,0,0,1,,,,,,,,,,,,,,0,,,67,90
71020,note_off,0,0,1,,,,,,,,,,,,,,0,,,67,64
71020,note_off,140,0,1,,,,,,,,,,,,,,0,,,55,64
71040,note_on,0,0,1,,,,,,,,,,,,,,0,,,67,90
71040,note_on,20,0,1,,,,,,,,,,,,,,0,,,55,90
71040,note_on,0,0,3,,,,,,,,,,,,,,2,,,67,90
71040,note_off,480,0,3,,,,,,,,,,,,,,2,,,62,64
71180,note_off,140,0,1,,,,,,,,,,,,,,0,,,55,64
71180,note_off,0,0,1,,,,,,,,,,,,,,0,,,67,64
71200,note_on,0,0,1,,,,,,,,,,,,,,0,,,55,90
71200,note_on,20,0,1,,,,,,,,,,,,,,0,,,67,90
71340,note_off,0,0,1,,,,,,,,,,,,,,0,,,55,64
71340,note_off,140,0,1,,,,,,,,,,,,,,0,,,67,64
71360,note_on,20,0,1,,,,,,,,,,,,,,0,,,67,90
71360,note_on,0,0,1,,,,,,,,,,,,,,0,,,55,90
71500,note_off,140,0,1,,,,,,,,,,,,,,0,,,67,64
71500,note_off,0,0,1,,,,,,,,,,,,,,0,,,55,64
71520,note_on,0,0,1,,,,,,,,,,,,,,0,,,67,90
71520,note_on,20,0,1,,,,,,,,,,,,,,0,,,55,90
71660,note_off,0,0,1,,,,,,,,,,,,,,0,,,67,64
71660,note_off,140,0,1,,,,,,,,,,,,,,0,,,55,64
71680,note_on,20,0,1,,,,,,,,,,,,,,0,,,55,90
71680,note_on,0,0,1,,,,,,,,,,,,,,0,,,67,90
71820,note_off,140,0,1,,,,,,,,,,,,,,0,,,55,64
71820,note_off,0,0,1,,,,,,,,,,,,,,0,,,67,64
71840,note_on,20,0,1,,,,,,,,,,,,,,0,,,55,90
71840,note_on,0,0,1,,,,,,,,,,,,,,0,,,67,90
71980,note_off,140,0,1,,,,,,,,,,,,,,0,,,55,64
71980,note_off,0,0,1,,,,,,,,,,,,,,0,,,67,64
72000,note_on,20,0,1,,,,,,,,,,,,,,0,,,55,90
72000,note_on,0,0,1,,,,,,,,,,,,,,0,,,67,90
72000,note_off,960,0,3,,,,,,,,,,,,,,2,,,67,64
72140,note_off,0,0,1,,,,,,,,,,,,,,0,,,67,64
72140,note_off,140,0,1,,,,,,,,,,,,,,0,,,55,64
72160,note_on,20,0,1,,,,,,,,,,,,,,0,,,67,90
72160,note_on,0,0,1,,,,,,,,,,,,,,0,,,55,90
72300,note_off,140,0,1,,,,,,,,,,,,,,0,,,67,64
72300,note_off,0,0,1,,,,,,,,,,,,,,0,,,55,64
72320,note_on,0,0,1,,,,,,,,,,,,,,0,,,55,90
72320,note_on,20,0,1,,,,,,,,,,,,,,0,,,67,90
72460,note_off,140,0,1,,,,,,,,,,,,,,0,,,67,64
72460,note_off,0,0,1,,,,,,,,,,,,,,0,,,55,64
72480,note_on,480,0,3,,,,,,,,,,,,,,2,,,62,90
72480,note_on,20,0,1,,,,,,,,,,,,,,0,,,55,90
72480,note_on,0,0,1,,,,,,,,,,,,,,0,,,67,90
72620,note_off,140,0,1,,,,,,,,,,,,,,0,,,55,64
72620,note_off,0,0,1,,,,,,,,,,,,,,0,,,67,64
72640,note_on,0,0,1,,,,,,,,,,,,,,0,,,67,90
72640,note_on,20,0,1,,,,,,,,,,,,,,0,,,55,90
72780,note_off,140,0,1,,,,,,,,,,,,,,0,,,55,64
72780,note_off,0,0,1,,,,,,,,,,,,,,0,,,67,64
72800,note_on,20,0,1,,,,,,,,,,,,,,0,,,55,90
72800,note_on,0,0,1,,,,,,,,,,,,,,0,,,67,90
72940,note_off,0,0,1,,,,,,,,,,,,,,0,,,67,64
72940,note_off,140,0,1,,,,,,,,,,,,,,0,,,55,64
72960,note_on,0,0,1,,,,,,,,,,,,,,0,,,67,90
72960,note_off,480,0,3,,,,,,,,,,,,,,2,,,62,64
72960,note_on,0,0,3,,,,,,,,,,,,,,2,,,67,90
72960,note_on,20,0,1,,,,,,,,,,,,,,0,,,55,90
73100,note_off,140,0,1,,,,,,,,,,,,,,0,,,55,64
73100,note_off,0,0,1,,,,,,,,,,,,,,0,,,67,64
73120,note_on,0,0,1,,,,,,,,,,,,,,0,,,55,90
73120,note_on,20,0,1,,,,,,,,,,,,,,0,,,67,90
73260,note_off,140,0,1,,,,,,,,,,,,,,0,,,67,64
73260,note_off,0,0,1,,,,,,,,,,,,,,0,,,55,64
73280,note_on,20,0,1,,,,,,,,,,,,,,0,,,67,90
73280,note_on,0,0,1,,,,,,,,,,,,,,0,,,55,90
73420,note_off,0,0,1,,,,,,,,,,,,,,0,,,55,64
73420,note_off,140,0,1,,,,,,,,,,,,,,0,,,67,64
73440,note_on,20,0,1,,,,,,,,,,,,,,0,,,55,90
73440,note_on,0,0,1,,,,,,,,,,,,,,0,,,67,90
73580,note_off,140,0,1,,,,,,,,,,,,,,0,,,55,64
73580,note_off,0,0,1,,,,,,,,,,,,,,0,,,67,64
73600,note_on,0,0,1,,,,,,,,,,,,,,0,,,67,90
73600,note_on,20,0,1,,,,,,,,,,,,,,0,,,55,90
73740,note_off,0,0,1,,,,,,,,,,,,,,0,,,67,64
73740,note_off,140,0,1,,,,,,,,,,,,,,0,,,55,64
73760,note_on,20,0,1,,,,,,,,,,,,,,0,,,55,90
73760,note_on,0,0,1,,,,,,,,,,,,,,0,,,67,90
73900,note_off,140,0,1,,,,,,,,,,,,,,0,,,55,64
73900,note_off,0,0,1,,,,,,,,,,,,,,0,,,67,64
73920,note_on,20,0,1,,,,,,,,,,,,,,0,,,57,90
73920,note_off,960,0,3,,,,,,,,,,,,,,2,,,67,64
73920,note_on,0,0,3,,,,,,,,,,,,,,2,,,69,90
73920,note_on,0,0,1,,,,,,,,,,,,,,0,,,69,90
73920,note_on,0,0,1,,,,,,,,,,,,,,0,,,67,90
74060,note_off,140,0,1,,,,,,,,,,,,,,0,,,57,64
74060,note_off,0,0,1,,,,,,,,,,,,,,0,,,67,64
74060,note_off,0,0,1,,,,,,,,,,,,,,0,,,69,64
74080,note_on,20,0,1,,,,,,,,,,,,,,0,,,69,90
74080,note_on,0,0,1,,,,,,,,,,,,,,0,,,57,90
74080,note_on,0,0,1,,,,,,,,,,,,,,0,,,67,90
74220,note_off,0,0,1,,,,,,,,,,,,,,0,,,57,64
74220,note_off,0,0,1,,,,,,,,,,,,,,0,,,67,64
74220,note_off,140,0,1,,,,,,,,,,,,,,0,,,69,64
74240,note_on,20,0,1,,,,,,,,,,,,,,0,,,69,90
74240,note_on,0,0,1,,,,,,,,,,,,,,0,,,57,90
74240,note_on,0,0,1,,,,,,,,,,,,,,0,,,67,90
74380,note_off,0,0,1,,,,,,,,,,,,,,0,,,67,64
74380,note_off,0,0,1,,,,,,,,,,,,,,0,,,57,64
74380,note_off,140,0,1,,,,,,,,,,,,,,0,,,69,64
74400,note_on,0,0,1,,,,,,,,,,,,,,0,,,69,90
74400,note_on,20,0,1,,,,,,,,,,,,,,0,,,57,90
74400,note_on,0,0,1,,,,,,,,,,,,,,0,,,67,90
74540,note_off,140,0,1,,,,,,,,,,,,,,0,,,57,64
74540,note_off,0,0,1,,,,,,,,,,,,,,0,,,67,64
74540,note_off,0,0,1,,,,,,,,,,,,,,0,,,69,64
74560,note_on,0,0,1,,,,,,,,,,,,,,0,,,69,90
74560,note_on,20,0,1,,,,,,,,,,,,,,0,,,57,90
74560,note_on,0,0,1,,,,,,,,,,,,,,0,,,67,90
74640,note_on,0,0,3,,,,,,,,,,,,,,2,,,69,90
74640,note_off,720,0,3,,,,,,,,,,,,,,2,,,69,64
74700,note_off,0,0,1,,,,,,,,,,,,,,0,,,69,64
74700,note_off,140,0,1,,,,,,,,,,,,,,0,,,57,64
74700,note_off,0,0,1,,,,,,,,,,,,,,0,,,67,64
74720,note_on,20,0,1,,,,,,,,,,,,,,0,,,57,90
74720,note_on,0,0,1,,,,,,,,,,,,,,0,,,69,90
74720,note_on,0,0,1,,,,,,,,,,,,,,0,,,67,90
74860,note_off,0,0,1,,,,,,,,,,,,,,0,,,67,64
74860,note_off,0,0,1,,,,,,,,,,,,,,0,,,69,64
74860,note_off,140,0,1,,,,,,,,,,,,,,0,,,57,64
74880,note_on,0,0,1,,,,,,,,,,,,,,0,,,67,90
74880,note_on,0,0,3,,,,,,,,,,,,,,2,,,70,90
74880,note_on,20,0,1,,,,,,,,,,,,,,0,,,58,90
74880,note_off,240,0,3,,,,,,,,,,,,,,2,,,69,64
74880,note_on,0,0,1,,,,,,,,,,,,,,0,,,70,90
75020,note_off,140,0,1,,,,,,,,,,,,,,0,,,58,64
75020,note_off,0,0,1,,,,,,,,,,,,,,0,,,67,64
75020,note_off,0,0,1,,,,,,,,,,,,,,0,,,70,64
75040,note_on,0,0,1,,,,,,,,,,,,,,0,,,67,90
75040,note_on,0,0,1,,,,,,,,,,,,,,0,,,58,90
75040,note_on,20,0,1,,,,,,,,,,,,,,0,,,70,90
75180,note_off,0,0,1,,,,,,,,,,,,,,0,,,67,64
75180,note_off,0,0,1,,,,,,,,,,,,,,0,,,58,64
75180,note_off,140,0,1,,,,,,,,,,,,,,0,,,70,64
75200,note_on,0,0,1,,,,,,,,,,,,,,0,,,58,90
75200,note_on,20,0,1,,,,,,,,,,,,,,0,,,70,90
75200,note_on,0,0,1,,,,,,,,,,,,,,0,,,67,90
75340,note_off,0,0,1,,,,,,,,,,,,,,0,,,67,64
75340,note_off,140,0,1,,,,,,,,,,,,,,0,,,70,64
75340,note_off,0,0,1,,,,,,,,,,,,,,0,,,58,64
75360,note_on,20,0,1,,,,,,,,,,,,,,0,,,58,90
75360,note_on,0,0,1,,,,,,,,,,,,,,0,,,70,90
75360,note_on,0,0,1,,,,,,,,,,,,,,0,,,67,90
75500,note_off,140,0,1,,,,,,,,,,,,,,0,,,58,64
75500,note_off,0,0,1,,,,,,,,,,,,,,0,,,70,64
75500,note_off,0,0,1,,,,,,,,,,,,,,0,,,67,64
75520,note_on,20,0,1,,,,,,,,,,,,,,0,,,58,90
75520,note_on,0,0,1,,,,,,,,,,,,,,0,,,67,90
75520,note_on,0,0,1,,,,,,,,,,,,,,0,,,70,90
75660,note_off,0,0,1,,,,,,,,,,,,,,0,,,67,64
75660,note_off,0,0,1,,,,,,,,,,,,,,0,,,70,64
75660,note_off,140,0,1,,,,,,,,,,,,,,0,,,58,64
75680,note_on,0,0,1,,,,,,,,,,,,,,0,,,70,90
75680,note_on,20,0,1,,,,,,,,,,,,,,0,,,58,90
75680,note_on,0,0,1,,,,,,,,,,,,,,0,,,67,90
75820,note_off,140,0,1,,,,,,,,,,,,,,0,,,58,64
75820,note_off,0,0,1,,,,,,,,,,,,,,0,,,67,64
75820,note_off,0,0,1,,,,,,,,,,,,,,0,,,70,64
75840,note_off,960,0,3,,,,,,,,,,,,,,2,,,70,64
75840,note_on,0,0,3,,,,,,,,,,,,,,2,,,71,90
75840,note_on,6240,0,2,,,,,,,,,,,,,,1,,,43,90
75840,note_on,20,0,1,,,,,,,,,,,,,,0,,,65,90
75840,note_on,0,0,1,,,,,,,,,,,,,,0,,,71,90
75840,note_on,0,0,1,,,,,,,,,,,,,,0,,,68,90
75840,note_on,0,0,1,,,,,,,,,,,,,,0,,,59,90
75840,note_on,0,0,1,,,,,,,,,,,,,,0,,,62,90
75980,note_off,0,0,1,,,,,,,,,,,,,,0,,,62,64
75980,note_off,140,0,1,,,,,,,,,,,,,,0,,,65,64
75980,note_off,0,0,1,,,,,,,,,,,,,,0,,,71,64
75980,note_off,0,0,1,,,,,,,,,,,,,,0,,,59,64
75980,note_off,0,0,1,,,,,,,,,,,,,,0,,,68,64
76000,note_on,0,0,1,,,,,,,,,,,,,,0,,,65,90
76000,note_on,20,0,1,,,,,,,,,,,,,,0,,,71,90
76000,note_on,0,0,1,,,,,,,,,,,,,,0,,,68,90
76000,note_on,0,0,1,,,,,,,,,,,,,,0,,,59,90
76000,note_on,0,0,1,,,,,,,,,,,,,,0,,,62,90
76140,note_off,0,0,1,,,,,,,,,,,,,,0,,,68,64
76140,note_off,0,0,1,,,,,,,,,,,,,,0,,,59,64
76140,note_off,140,0,1,,,,,,,,,,,,,,0,,,71,64
76140,note_off,0,0,1,,,,,,,,,,,,,,0,,,65,64
76140,note_off,0,0,1,,,,,,,,,,,,,,0,,,62,64
76160,note_on,20,0,1,,,,,,,,,,,,,,0,,,71,90
76160,note_on,0,0,1,,,,,,,,,,,,,,0,,,65,90
76160,note_on,0,0,1,,,,,,,,,,,,,,0,,,59,90
76160,note_on,0,0,1,,,,,,,,,,,,,,0,,,62,90
76160,note_on,0,0,1,,,,,,,,,,,,,,0,,,68,90
76300,note_off,0,0,1,,,,,,,,,,,,,,0,,,59,64
76300,note_off,0,0,1,,,,,,,,,,,,,,0,,,68,64
76300,note_off,140,0,1,,,,,,,,,,,,,,0,,,71,64
76300,note_off,0,0,1,,,,,,,,,,,,,,0,,,65,64
76300,note_off,0,0,1,,,,,,,,,,,,,,0,,,62,64
76320,note_on,0,0,1,,,,,,,,,,,,,,0,,,62,90
76320,note_on,0,0,1,,,,,,,,,,,,,,0,,,59,90
76320,note_on,0,0,1,,,,,,,,,,,,,,0,,,68,90
76320,note_on,0,0,1,,,,,,,,,,,,,,0,,,71,90
76320,note_on,20,0,1,,,,,,,,,,,,,,0,,,65,90
76460,note_off,0,0,1,,,,,,,,,,,,,,0,,,68,64
76460,note_off,0,0,1,,,,,,,,,,,,,,0,,,59,64
76460,note_off,140,0,1,,,,,,,,,,,,,,0,,,65,64
76460,note_off,0,0,1,,,,,,,,,,,,,,0,,,62,64
76460,note_off,0,0,1,,,,,,,,,,,,,,0,,,71,64
76480,note_on,0,0,1,,,,,,,,,,,,,,0,,,62,90
76480,note_on,0,0,1,,,,,,,,,,,,,,0,,,59,90
76480,note_on,0,0,1,,,,,,,,,,,,,,0,,,71,90
76480,note_on,20,0,1,,,,,,,,,,,,,,0,,,65,90
76480,note_on,0,0,1,,,,,,,,,,,,,,0,,,68,90
76560,note_off,720,0,3,,,,,,,,,,,,,,2,,,71,64
76560,note_on,0,0,3,,,,,,,,,,,,,,2,,,71,90
76620,note_off,140,0,1,,,,,,,,,,,,,,0,,,65,64
76620,note_off,0,0,1,,,,,,,,,,,,,,0,,,71,64
76620,note_off,0,0,1,,,,,,,,,,,,,,0,,,68,64
76620,note_off,0,0,1,,,,,,,,,,,,,,0,,,59,64
76620,note_off,0,0,1,,,,,,,,,,,,,,0,,,62,64
76640,note_on,0,0,1,,,,,,,,,,,,,,0,,,62,90
76640,note_on,0,0,1,,,,,,,,,,,,,,0,,,71,90
76640,note_on,0,0,1,,,,,,,,,,,,,,0,,,59,90
76640,note_on,20,0,1,,,,,,,,,,,,,,0,,,65,90
76640,note_on,0,0,1,,,,,,,,,,,,,,0,,,68,90
76780,note_off,0,0,1,,,,,,,,,,,,,,0,,,68,64
76780,note_off,0,0,1,,,,,,,,,,,,,,0,,,59,64
76780,note_off,0,0,1,,,,,,,,,,,,,,0,,,62,64
76780,note_off,140,0,1,,,,,,,,,,,,,,0,,,65,64
76780,note_off,0,0,1,,,,,,,,,,,,,,0,,,71,64
76800,note_off,240,0,3,,,,,,,,,,,,,,2,,,71,64
76800,note_off,960,0,2,,,,,,,,,,,,,,1,,,43,64
76800,note_on,0,0,2,,,,,,,,,,,,,,1,,,36,90
76800,note_on,0,0,3,,,,,,,,,,,,,,2,,,72,90
76800,note_on,20,0,1,,,,,,,,,,,,,,0,,,67,90
76800,note_on,0,0,1,,,,,,,,,,,,,,0,,,72,90
76800,note_on,0,0,1,,,,,,,,,,,,,,0,,,60,90
76800,note_on,0,0,1,,,,,,,,,,,,,,0,,,63,90
76940,note_off,0,0,1,,,,,,,,,,,,,,0,,,60,64
76940,note_off,0,0,1,,,,,,,,,,,,,,0,,,72,64
76940,note_off,0,0,1,,,,,,,,,,,,,,0,,,63,64
76940,note_off,140,0,1,,,,,,,,,,,,,,0,,,67,64
76960,note_on,0,0,2,,,,,,,,,,,,,,1,,,39,90
76960,note_on,0,0,1,,,,,,,,,,,,,,0,,,63,90
76960,note_on,0,0,1,,,,,,,,,,,,,,0,,,60,90
76960,note_off,160,0,2,,,,,,,,,,,,,,1,,,36,64
76960,note_on,20,0,1,,,,,,,,,,,,,,0,,,72,90
76960,note_on,0,0,1,,,,,,,,,,,,,,0,,,67,90
77100,note_off,140,0,1,,,,,,,,,,,,,,0,,,72,64
77100,note_off,0,0,1,,,,,,,,,,,,,,0,,,60,64
77100,note_off,0,0,1,,,,,,,,,,,,,,0,,,63,64
77100,note_off,0,0,1,,,,,,,,,,,,,,0,,,67,64
77120,note_on,0,0,2,,,,,,,,,,,,,,1,,,41,90
77120,note_off,160,0,2,,,,,,,,,,,,,,1,,,39,64
77120,note_on,20,0,1,,,,,,,,,,,,,,0,,,72,90
77120,note_on,0,0,1,,,,,,,,,,,,,,0,,,67,90
77120,note_on,0,0,1,,,,,,,,,,,,,,0,,,60,90
77120,note_on,0,0,1,,,,,,,,,,,,,,0,,,63,90
77260,note_off,0,0,1,,,,,,,,,,,,,,0,,,63,64
77260,note_off,0,0,1,,,,,,,,,,,,,,0,,,60,64
77260,note_off,140,0,1,,,,,,,,,,,,,,0,,,72,64
77260,note_off,0,0,1,,,,,,,,,,,,,,0,,,67,64
77280,note_on,0,0,1,,,,,,,,,,,,,,0,,,63,90
77280,note_on,0,0,2,,,,,,,,,,,,,,1,,,43,90
77280,note_off,160,0,2,,,,,,,,,,,,,,1,,,41,64
77280,note_on,20,0,1,,,,,,,,,,,,,,0,,,67,90
77280,note_on,0,0,1,,,,,,,,,,,,,,0,,,72,90
77280,note_on,0,0,1,,,,,,,,,,,,,,0,,,60,90
77420,note_off,0,0,1,,,,,,,,,,,,,,0,,,63,64
77420,note_off,140,0,1,,,,,,,,,,,,,,0,,,67,64
77420,note_off,0,0,1,,,,,,,,,,,,,,0,,,72,64
77420,note_off,0,0,1,,,,,,,,,,,,,,0,,,60,64
77440,note_on,0,0,1,,,,,,,,,,,,,,0,,,72,90
77440,note_on,20,0,1,,,,,,,,,,,,,,0,,,67,90
77440,note_on,0,0,1,,,,,,,,,,,,,,0,,,60,90
77440,note_off,160,0,2,,,,,,,,,,,,,,1,,,43,64
77440,note_on,0,0,2,,,,,,,,,,,,,,1,,,45,90
77440,note_on,0,0,1,,,,,,,,,,,,,,0,,,63,90
77580,note_off,0,0,1,,,,,,,,,,,,,,0,,,60,64
77580,note_off,0,0,1,,,,,,,,,,,,,,0,,,72,64
77580,note_off,140,0,1,,,,,,,,,,,,,,0,,,67,64
77580,note_off,0,0,1,,,,,,,,,,,,,,0,,,63,64
77600,note_off,160,0,2,,,,,,,,,,,,,,1,,,45,64
77600,note_on,20,0,1,,,,,,,,,,,,,,0,,,67,90
77600,note_on,0,0,1,,,,,,,,,,,,,,0,,,72,90
77600,note_on,0,0,1,,,,,,,,,,,,,,0,,,60,90
77600,note_on,0,0,1,,,,,,,,,,,,,,0,,,63,90
77600,note_on,0,0,2,,,,,,,,,,,,,,1,,,47,90
77740,note_off,140,0,1,,,,,,,,,,,,,,0,,,67,64
77740,note_off,0,0,1,,,,,,,,,,,,,,0,,,72,64
77740,note_off,0,0,1,,,,,,,,,,,,,,0,,,60,64
77740,note_off,0,0,1,,,,,,,,,,,,,,0,,,63,64
77760,note_off,160,0,2,,,,,,,,,,,,,,1,,,47,64
77760,note_on,0,0,2,,,,,,,,,,,,,,1,,,48,90
77760,note_on,0,0,1,,,,,,,,,,,,,,0,,,60,90
77760,note_on,0,0,1,,,,,,,,,,,,,,0,,,63,90
77760,note_on,0,0,1,,,,,,,,,,,,,,0,,,72,90
77760,note_on,20,0,1,,,,,,,,,,,,,,0,,,67,90
77900,note_off,140,0,1,,,,,,,,,,,,,,0,,,67,64
77900,note_off,0,0,1,,,,,,,,,,,,,,0,,,63,64
77900,note_off,0,0,1,,,,,,,,,,,,,,0,,,60,64
77900,note_off,0,0,1,,,,,,,,,,,,,,0,,,72,64
77920,note_on,0,0,1,,,,,,,,,,,,,,0,,,63,90
77920,note_on,0,0,1,,,,,,,,,,,,,,0,,,60,90
77920,note_on,0,0,1,,,,,,,,,,,,,,0,,,67,90
77920,note_on,20,0,1,,,,,,,,,,,,,,0,,,72,90
78060,note_off,0,0,1,,,,,,,,,,,,,,0,,,63,64
78060,note_off,0,0,1,,,,,,,,,,,,,,0,,,60,64
78060,note_off,140,0,1,,,,,,,,,,,,,,0,,,72,64
78060,note_off,0,0,1,,,,,,,,,,,,,,0,,,67,64
78080,note_on,0,0,1,,,,,,,,,,,,,,0,,,63,90
78080,note_on,0,0,1,,,,,,,,,,,,,,0,,,60,90
78080,note_on,0,0,1,,,,,,,,,,,,,,0,,,67,90
78080,note_on,20,0,1,,,,,,,,,,,,,,0,,,72,90
78170,note_off,1370,0,3,,,,,,,,,,,,,,2,,,72,64
78220,note_off,0,0,1,,,,,,,,,,,,,,0,,,63,64
78220,note_off,0,0,1,,,,,,,,,,,,,,0,,,67,64
78220,note_off,140,0,1,,,,,,,,,,,,,,0,,,72,64
78220,note_off,0,0,1,,,,,,,,,,,,,,0,,,60,64
78240,note_on,20,0,1,,,,,,,,,,,,,,0,,,67,90
78240,note_on,0,0,1,,,,,,,,,,,,,,0,,,60,90
78240,note_on,0,0,1,,,,,,,,,,,,,,0,,,72,90
78240,note_on,0,0,1,,,,,,,,,,,,,,0,,,63,90
78380,note_off,0,0,1,,,,,,,,,,,,,,0,,,63,64
78380,note_off,0,0,1,,,,,,,,,,,,,,0,,,60,64
78380,note_off,0,0,1,,,,,,,,,,,,,,0,,,72,64
78380,note_off,140,0,1,,,,,,,,,,,,,,0,,,67,64
78400,note_on,0,0,1,,,,,,,,,,,,,,0,,,72,90
78400,note_on,20,0,1,,,,,,,,,,,,,,0,,,67,90
78400,note_on,0,0,1,,,,,,,,,,,,,,0,,,60,90
78400,note_on,0,0,1,,,,,,,,,,,,,,0,,,63,90
78540,note_off,0,0,1,,,,,,,,,,,,,,0,,,72,64
78540,note_off,0,0,1,,,,,,,,,,,,,,0,,,60,64
78540,note_off,0,0,1,,,,,,,,,,,,,,0,,,63,64
78540,note_off,140,0,1,,,,,,,,,,,,,,0,,,67,64
78560,note_on,0,0,1,,,,,,,,,,,,,,0,,,63,90
78560,note_on,0,0,1,,,,,,,,,,,,,,0,,,60,90
78560,note_on,20,0,1,,,,,,,,,,,,,,0,,,67,90
78560,note_on,0,0,1,,,,,,,,,,,,,,0,,,72,90
78700,note_off,0,0,1,,,,,,,,,,,,,,0,,,63,64
78700,note_off,0,0,1,,,,,,,,,,,,,,0,,,72,64
78700,note_off,140,0,1,,,,,,,,,,,,,,0,,,67,64
78700,note_off,0,0,1,,,,,,,,,,,,,,0,,,60,64
78710,note_off,950,0,2,,,,,,,,,,,,,,1,,,48,64
78720,note_on,10,0,2,,,,,,,,,,,,,,1,,,36,90
78720,note_on,20,0,1,,,,,,,,,,,,,,0,,,67,90
78720,note_on,0,0,1,,,,,,,,,,,,,,0,,,60,90
78720,note_on,0,0,1,,,,,,,,,,,,,,0,,,63,90
78720,note_on,0,0,1,,,,,,,,,,,,,,0,,,72,90
78860,note_off,140,0,1,,,,,,,,,,,,,,0,,,67,64
78860,note_off,0,0,1,,,,,,,,,,,,,,0,,,72,64
78860,note_off,0,0,1,,,,,,,,,,,,,,0,,,63,64
78860,note_off,0,0,1,,,,,,,,,,,,,,0,,,60,64
78880,note_off,160,0,2,,,,,,,,,,,,,,1,,,36,64
78880,note_on,0,0,2,,,,,,,,,,,,,,1,,,39,90
78880,note_on,0,0,1,,,,,,,,,,,,,,0,,,63,90
78880,note_on,0,0,1,,,,,,,,,,,,,,0,,,60,90
78880,note_on,0,0,1,,,,,,,,,,,,,,0,,,67,90
78880,note_on,20,0,1,,,,,,,,,,,,,,0,,,72,90
79020,note_off,0,0,1,,,,,,,,,,,,,,0,,,60,64
79020,note_off,0,0,1,,,,,,,,,,,,,,0,,,63,64
79020,note_off,0,0,1,,,,,,,,,,,,,,0,,,67,64
79020,note_off,140,0,1,,,,,,,,,,,,,,0,,,72,64
79040,note_on,0,0,1,,,,,,,,,,,,,,0,,,63,90
79040,note_on,0,0,1,,,,,,,,,,,,,,0,,,60,90
79040,note_on,20,0,1,,,,,,,,,,,,,,0,,,72,90
79040,note_on,0,0,1,,,,,,,,,,,,,,0,,,67,90
79040,note_on,0,0,2,,,,,,,,,,,,,,1,,,41,90
79040,note_off,160,0,2,,,,,,,,,,,,,,1,,,39,64
79180,note_off,0,0,1,,,,,,,,,,,,,,0,,,67,64
79180,note_off,0,0,1,,,,,,,,,,,,,,0,,,63,64
79180,note_off,0,0,1,,,,,,,,,,,,,,0,,,60,64
79180,note_off,140,0,1,,,,,,,,,,,,,,0,,,72,64
79200,note_on,0,0,1,,,,,,,,,,,,,,0,,,60,90
79200,note_on,0,0,1,,,,,,,,,,,,,,0,,,63,90
79200,note_on,0,0,1,,,,,,,,,,,,,,0,,,72,90
79200,note_off,160,0,2,,,,,,,,,,,,,,1,,,41,64
79200,note_on,0,0,2,,,,,,,,,,,,,,1,,,43,90
79200,note_on,20,0,1,,,,,,,,,,,,,,0,,,67,90
79230,control_change,40500,0,4,,,,,,,,,,,,,,3,11,98,,
79340,note_off,0,0,1,,,,,,,,,,,,,,0,,,72,64
79340,note_off,0,0,1,,,,,,,,,,,,,,0,,,60,64
79340,note_off,0,0,1,,,,,,,,,,,,,,0,,,63,64
79340,note_off,140,0,1,,,,,,,,,,,,,,0,,,67,64
79360,note_on,0,0,1,,,,,,,,,,,,,,0,,,63,90
79360,note_on,0,0,1,,,,,,,,,,,,,,0,,,60,90
79360,note_on,20,0,1,,,,,,,,,,,,,,0,,,67,90
79360,note_off,160,0,2,,,,,,,,,,,,,,1,,,43,64
79360,note_on,0,0,2,,,,,,,,,,,,,,1,,,45,90
79360,note_on,0,0,1,,,,,,,,,,,,,,0,,,72,90
79500,note_off,0,0,1,,,,,,,,,,,,,,0,,,72,64
79500,note_off,140,0,1,,,,,,,,,,,,,,0,,,67,64
79500,note_off,0,0,1,,,,,,,,,,,,,,0,,,63,64
79500,note_off,0,0,1,,,,,,,,,,,,,,0,,,60,64
79520,note_on,0,0,1,,,,,,,,,,,,,,0,,,72,90
79520,note_on,0,0,2,,,,,,,,,,,,,,1,,,47,90
79520,note_on,0,0,1,,,,,,,,,,,,,,0,,,63,90
79520,note_on,0,0,1,,,,,,,,,,,,,,0,,,60,90
79520,note_off,160,0,2,,,,,,,,,,,,,,1,,,45,64
79520,note_on,20,0,1,,,,,,,,,,,,,,0,,,67,90
79660,note_off,140,0,1,,,,,,,,,,,,,,0,,,67,64
79660,note_off,0,0,1,,,,,,,,,,,,,,0,,,72,64
79660,note_off,0,0,1,,,,,,,,,,,,,,0,,,60,64
79660,note_off,0,0,1,,,,,,,,,,,,,,0,,,63,64
79680,note_on,0,0,1,,,,,,,,,,,,,,0,,,60,90
79680,note_on,0,0,1,,,,,,,,,,,,,,0,,,63,90
79680,note_on,0,0,1,,,,,,,,,,,,,,0,,,72,90
79680,note_off,160,0,2,,,,,,,,,,,,,,1,,,47,64
79680,note_on,0,0,2,,,,,,,,,,,,,,1,,,48,90
79680,note_on,20,0,1,,,,,,,,,,,,,,0,,,67,90
79820,note_off,140,0,1,,,,,,,,,,,,,,0,,,67,64
79820,note_off,0,0,1,,,,,,,,,,,,,,0,,,72,64
79820,note_off,0,0,1,,,,,,,,,,,,,,0,,,60,64
79820,note_off,0,0,1,,,,,,,,,,,,,,0,,,63,64
79840,note_on,0,0,1,,,,,,,,,,,,,,0,,,63,90
79840,note_on,20,0,1,,,,,,,,,,,,,,0,,,72,90
79840,note_on,0,0,1,,,,,,,,,,,,,,0,,,67,90
79840,note_on,0,0,1,,,,,,,,,,,,,,0,,,60,90
79980,note_off,0,0,1,,,,,,,,,,,,,,0,,,60,64
79980,note_off,0,0,1,,,,,,,,,,,,,,0,,,63,64
79980,note_off,140,0,1,,,,,,,,,,,,,,0,,,72,64
79980,note_off,0,0,1,,,,,,,,,,,,,,0,,,67,64
80000,note_on,0,0,1,,,,,,,,,,,,,,0,,,63,90
80000,note_on,0,0,1,,,,,,,,,,,,,,0,,,60,90
80000,note_on,0,0,1,,,,,,,,,,,,,,0,,,67,90
80000,note_on,20,0,1,,,,,,,,,,,,,,0,,,72,90
80140,note_off,0,0,1,,,,,,,,,,,,,,0,,,63,64
80140,note_off,0,0,1,,,,,,,,,,,,,,0,,,60,64
80140,note_off,0,0,1,,,,,,,,,,,,,,0,,,67,64
80140,note_off,140,0,1,,,,,,,,,,,,,,0,,,72,64
80160,note_on,930,0,4,,,,,,,,,,,,,,3,,,72,90
80160,note_on,0,0,1,,,,,,,,,,,,,,0,,,63,90
80160,note_on,0,0,1,,,,,,,,,,,,,,0,,,60,90
80160,note_on,0,0,1,,,,,,,,,,,,,,0,,,72,90
80160,note_on,20,0,1,,,,,,,,,,,,,,0,,,67,90
80300,note_off,0,0,1,,,,,,,,,,,,,,0,,,72,64
80300,note_off,0,0,1,,,,,,,,,,,,,,0,,,60,64
80300,note_off,0,0,1,,,,,,,,,,,,,,0,,,63,64
80300,note_off,140,0,1,,,,,,,,,,,,,,0,,,67,64
80320,note_on,20,0,1,,,,,,,,,,,,,,0,,,67,90
80320,note_on,0,0,1,,,,,,,,,,,,,,0,,,72,90
80320,note_on,0,0,1,,,,,,,,,,,,,,0,,,60,90
80320,note_on,0,0,1,,,,,,,,,,,,,,0,,,63,90
80460,note_off,0,0,1,,,,,,,,,,,,,,0,,,60,64
80460,note_off,0,0,1,,,,,,,,,,,,,,0,,,63,64
80460,note_off,0,0,1,,,,,,,,,,,,,,0,,,72,64
80460,note_off,140,0,1,,,,,,,,,,,,,,0,,,67,64
80480,note_on,0,0,1,,,,,,,,,,,,,,0,,,63,90
80480,note_on,20,0,1,,,,,,,,,,,,,,0,,,67,90
80480,note_on,0,0,1,,,,,,,,,,,,,,0,,,72,90
80480,note_on,0,0,1,,,,,,,,,,,,,,0,,,60,90
80620,note_off,0,0,1,,,,,,,,,,,,,,0,,,63,64
80620,note_off,140,0,1,,,,,,,,,,,,,,0,,,67,64
80620,note_off,0,0,1,,,,,,,,,,,,,,0,,,72,64
80620,note_off,0,0,1,,,,,,,,,,,,,,0,,,60,64
80640,note_on,20,0,1,,,,,,,,,,,,,,0,,,68,90
80640,note_on,0,0,1,,,,,,,,,,,,,,0,,,71,90
80640,note_on,0,0,1,,,,,,,,,,,,,,0,,,62,90
80640,note_on,0,0,1,,,,,,,,,,,,,,0,,,65,90
80640,note_on,0,0,4,,,,,,,,,,,,,,3,,,74,90
80640,note_off,480,0,4,,,,,,,,,,,,,,3,,,72,64
80780,note_off,140,0,1,,,,,,,,,,,,,,0,,,68,64
80780,note_off,0,0,1,,,,,,,,,,,,,,0,,,62,64
80780,note_off,0,0,1,,,,,,,,,,,,,,0,,,65,64
80780,note_off,0,0,1,,,,,,,,,,,,,,0,,,71,64
80800,note_on,20,0,1,,,,,,,,,,,,,,0,,,71,90
80800,note_on,0,0,1,,,,,,,,,,,,,,0,,,68,90
80800,note_on,0,0,1,,,,,,,,,,,,,,0,,,62,90
80800,note_on,0,0,1,,,,,,,,,,,,,,0,,,65,90
80940,note_off,0,0,1,,,,,,,,,,,,,,0,,,65,64
80940,note_off,0,0,1,,,,,,,,,,,,,,0,,,62,64
80940,note_off,140,0,1,,,,,,,,,,,,,,0,,,71,64
80940,note_off,0,0,1,,,,,,,,,,,,,,0,,,68,64
80960,note_on,20,0,1,,,,,,,,,,,,,,0,,,71,90
80960,note_on,0,0,1,,,,,,,,,,,,,,0,,,68,90
80960,note_on,0,0,1,,,,,,,,,,,,,,0,,,62,90
80960,note_on,0,0,1,,,,,,,,,,,,,,0,,,65,90
81100,note_off,0,0,1,,,,,,,,,,,,,,0,,,62,64
81100,note_off,0,0,1,,,,,,,,,,,,,,0,,,65,64
81100,note_off,140,0,1,,,,,,,,,,,,,,0,,,71,64
81100,note_off,0,0,1,,,,,,,,,,,,,,0,,,68,64
81120,note_on,20,0,1,,,,,,,,,,,,,,0,,,68,90
81120,note_on,0,0,1,,,,,,,,,,,,,,0,,,71,90
81120,note_on,0,0,1,,,,,,,,,,,,,,0,,,62,90
81120,note_on,0,0,1,,,,,,,,,,,,,,0,,,65,90
81260,note_off,0,0,1,,,,,,,,,,,,,,0,,,62,64
81260,note_off,0,0,1,,,,,,,,,,,,,,0,,,65,64
81260,note_off,0,0,1,,,,,,,,,,,,,,0,,,71,64
81260,note_off,140,0,1,,,,,,,,,,,,,,0,,,68,64
81280,note_on,0,0,1,,,,,,,,,,,,,,0,,,71,90
81280,note_on,0,0,1,,,,,,,,,,,,,,0,,,62,90
81280,note_on,0,0,1,,,,,,,,,,,,,,0,,,65,90
81280,note_on,20,0,1,,,,,,,,,,,,,,0,,,68,90
81420,note_off,0,0,1,,,,,,,,,,,,,,0,,,62,64
81420,note_off,0,0,1,,,,,,,,,,,,,,0,,,65,64
81420,note_off,140,0,1,,,,,,,,,,,,,,0,,,68,64
81420,note_off,0,0,1,,,,,,,,,,,,,,0,,,71,64
81440,note_on,0,0,1,,,,,,,,,,,,,,0,,,71,90
81440,note_on,20,0,1,,,,,,,,,,,,,,0,,,68,90
81440,note_on,0,0,1,,,,,,,,,,,,,,0,,,62,90
81440,note_on,0,0,1,,,,,,,,,,,,,,0,,,65,90
81580,note_off,0,0,1,,,,,,,,,,,,,,0,,,65,64
81580,note_off,140,0,1,,,,,,,,,,,,,,0,,,68,64
81580,note_off,0,0,1,,,,,,,,,,,,,,0,,,62,64
81580,note_off,0,0,1,,,,,,,,,,,,,,0,,,71,64
81600,note_on,0,0,1,,,,,,,,,,,,,,0,,,62,90
81600,note_on,0,0,1,,,,,,,,,,,,,,0,,,71,90
81600,note_on,20,0,1,,,,,,,,,,,,,,0,,,68,90
81600,note_on,0,0,1,,,,,,,,,,,,,,0,,,65,90
81740,note_off,140,0,1,,,,,,,,,,,,,,0,,,68,64
81740,note_off,0,0,1,,,,,,,,,,,,,,0,,,71,64
81740,note_off,0,0,1,,,,,,,,,,,,,,0,,,62,64
81740,note_off,0,0,1,,,,,,,,,,,,,,0,,,65,64
81760,note_on,20,0,1,,,,,,,,,,,,,,0,,,71,90
81760,note_on,0,0,1,,,,,,,,,,,,,,0,,,62,90
81760,note_on,0,0,1,,,,,,,,,,,,,,0,,,65,90
81760,note_on,0,0,1,,,,,,,,,,,,,,0,,,68,90
81900,note_off,140,0,1,,,,,,,,,,,,,,0,,,71,64
81900,note_off,0,0,1,,,,,,,,,,,,,,0,,,68,64
81900,note_off,0,0,1,,,,,,,,,,,,,,0,,,62,64
81900,note_off,0,0,1,,,,,,,,,,,,,,0,,,65,64
81920,note_on,0,0,1,,,,,,,,,,,,,,0,,,65,90
81920,note_on,0,0,1,,,,,,,,,,,,,,0,,,62,90
81920,note_on,20,0,1,,,,,,,,,,,,,,0,,,71,90
81920,note_on,0,0,1,,,,,,,,,,,,,,0,,,68,90
82060,note_off,0,0,1,,,,,,,,,,,,,,0,,,68,64
82060,note_off,140,0,1,,,,,,,,,,,,,,0,,,71,64
82060,note_off,0,0,1,,,,,,,,,,,,,,0,,,62,64
82060,note_off,0,0,1,,,,,,,,,,,,,,0,,,65,64
82080,note_on,0,0,1,,,,,,,,,,,,,,0,,,65,90
82080,note_on,0,0,1,,,,,,,,,,,,,,0,,,71,90
82080,note_on,20,0,1,,,,,,,,,,,,,,0,,,68,90
82080,note_off,1440,0,4,,,,,,,,,,,,,,3,,,74,64
82080,note_on,0,0,1,,,,,,,,,,,,,,0,,,62,90
82080,note_on,0,0,4,,,,,,,,,,,,,,3,,,67,90
82220,note_off,140,0,1,,,,,,,,,,,,,,0,,,68,64
82220,note_off,0,0,1,,,,,,,,,,,,,,0,,,71,64
82220,note_off,0,0,1,,,,,,,,,,,,,,0,,,62,64
82220,note_off,0,0,1,,,,,,,,,,,,,,0,,,65,64
82240,note_on,0,0,1,,,,,,,,,,,,,,0,,,71,90
82240,note_on,0,0,1,,,,,,,,,,,,,,0,,,65,90
82240,note_on,0,0,1,,,,,,,,,,,,,,0,,,62,90
82240,note_on,20,0,1,,,,,,,,,,,,,,0,,,68,90
82380,note_off,0,0,1,,,,,,,,,,,,,,0,,,65,64
82380,note_off,0,0,1,,,,,,,,,,,,,,0,,,71,64
82380,note_off,0,0,1,,,,,,,,,,,,,,0,,,62,64
82380,note_off,140,0,1,,,,,,,,,,,,,,0,,,68,64
82400,note_on,0,0,1,,,,,,,,,,,,,,0,,,65,90
82400,note_on,20,0,1,,,,,,,,,,,,,,0,,,68,90
82400,note_on,0,0,1,,,,,,,,,,,,,,0,,,62,90
82400,note_on,0,0,1,,,,,,,,,,,,,,0,,,71,90
82540,note_off,0,0,1,,,,,,,,,,,,,,0,,,65,64
82540,note_off,0,0,1,,,,,,,,,,,,,,0,,,62,64
82540,note_off,0,0,1,,,,,,,,,,,,,,0,,,71,64
82540,note_off,140,0,1,,,,,,,,,,,,,,0,,,68,64
82550,note_off,2870,0,2,,,,,,,,,,,,,,1,,,48,64
82560,note_on,0,0,1,,,,,,,,,,,,,,0,,,60,90
82560,note_on,10,0,2,,,,,,,,,,,,,,1,,,36,90
82560,note_on,0,0,1,,,,,,,,,,,,,,0,,,72,90
82560,note_on,20,0,1,,,,,,,,,,,,,,0,,,67,90
82560,note_on,0,0,1,,,,,,,,,,,,,,0,,,63,90
82560,note_on,0,0,4,,,,,,,,,,,,,,3,,,75,90
82560,note_off,480,0,4,,,,,,,,,,,,,,3,,,67,64
82700,note_off,0,0,1,,,,,,,,,,,,,,0,,,72,64
82700,note_off,140,0,1,,,,,,,,,,,,,,0,,,67,64
82700,note_off,0,0,1,,,,,,,,,,,,,,0,,,63,64
82700,note_off,0,0,1,,,,,,,,,,,,,,0,,,60,64
82720,note_on,20,0,1,,,,,,,,,,,,,,0,,,72,90
82720,note_on,0,0,1,,,,,,,,,,,,,,0,,,67,90
82720,note_on,0,0,1,,,,,,,,,,,,,,0,,,60,90
82720,note_on,0,0,1,,,,,,,,,,,,,,0,,,63,90
82720,note_on,0,0,2,,,,,,,,,,,,,,1,,,39,90
82720,note_off,160,0,2,,,,,,,,,,,,,,1,,,36,64
82860,note_off,140,0,1,,,,,,,,,,,,,,0,,,72,64
82860,note_off,0,0,1,,,,,,,,,,,,,,0,,,67,64
82860,note_off,0,0,1,,,,,,,,,,,,,,0,,,60,64
82860,note_off,0,0,1,,,,,,,,,,,,,,0,,,63,64
82880,note_on,0,0,1,,,,,,,,,,,,,,0,,,63,90
82880,note_off,160,0,2,,,,,,,,,,,,,,1,,,39,64
82880,note_on,0,0,1,,,,,,,,,,,,,,0,,,60,90
82880,note_on,0,0,2,,,,,,,,,,,,,,1,,,41,90
82880,note_on,20,0,1,,,,,,,,,,,,,,0,,,72,90
82880,note_on,0,0,1,,,,,,,,,,,,,,0,,,67,90
83020,note_off,0,0,1,,,,,,,,,,,,,,0,,,67,64
83020,note_off,140,0,1,,,,,,,,,,,,,,0,,,72,64
83020,note_off,0,0,1,,,,,,,,,,,,,,0,,,60,64
83020,note_off,0,0,1,,,,,,,,,,,,,,0,,,63,64
83040,note_off,160,0,2,,,,,,,,,,,,,,1,,,41,64
83040,note_on,20,0,1,,,,,,,,,,,,,,0,,,67,90
83040,note_on,0,0,1,,,,,,,,,,,,,,0,,,72,90
83040,note_on,0,0,1,,,,,,,,,,,,,,0,,,60,90
83040,note_on,0,0,1,,,,,,,,,,,,,,0,,,63,90
83040,note_on,0,0,2,,,,,,,,,,,,,,1,,,43,90
83180,note_off,0,0,1,,,,,,,,,,,,,,0,,,63,64
83180,note_off,0,0,1,,,,,,,,,,,,,,0,,,60,64
83180,note_off,0,0,1,,,,,,,,,,,,,,0,,,72,64
83180,note_off,140,0,1,,,,,,,,,,,,,,0,,,67,64
83200,note_on,0,0,1,,,,,,,,,,,,,,0,,,72,90
83200,note_on,0,0,1,,,,,,,,,,,,,,0,,,60,90
83200,note_on,0,0,1,,,,,,,,,,,,,,0,,,63,90
83200,note_off,160,0,2,,,,,,,,,,,,,,1,,,43,64
83200,note_on,0,0,2,,,,,,,,,,,,,,1,,,45,90
83200,note_on,20,0,1,,,,,,,,,,,,,,0,,,67,90
83340,note_off,140,0,1,,,,,,,,,,,,,,0,,,67,64
83340,note_off,0,0,1,,,,,,,,,,,,,,0,,,72,64
83340,note_off,0,0,1,,,,,,,,,,,,,,0,,,60,64
83340,note_off,0,0,1,,,,,,,,,,,,,,0,,,63,64
83360,note_off,160,0,2,,,,,,,,,,,,,,1,,,45,64
83360,note_on,0,0,2,,,,,,,,,,,,,,1,,,47,90
83360,note_on,0,0,1,,,,,,,,,,,,,,0,,,60,90
83360,note_on,20,0,1,,,,,,,,,,,,,,0,,,67,90
83360,note_on,0,0,1,,,,,,,,,,,,,,0,,,72,90
83360,note_on,0,0,1,,,,,,,,,,,,,,0,,,63,90
83500,note_off,140,0,1,,,,,,,,,,,,,,0,,,67,64
83500,note_off,0,0,1,,,,,,,,,,,,,,0,,,72,64
83500,note_off,0,0,1,,,,,,,,,,,,,,0,,,60,64
83500,note_off,0,0,1,,,,,,,,,,,,,,0,,,63,64
83520,note_on,0,0,1,,,,,,,,,,,,,,0,,,72,90
83520,note_on,0,0,1,,,,,,,,,,,,,,0,,,60,90
83520,note_on,0,0,1,,,,,,,,,,,,,,0,,,63,90
83520,note_on,0,0,2,,,,,,,,,,,,,,1,,,48,90
83520,note_on,20,0,1,,,,,,,,,,,,,,0,,,67,90
83520,note_off,160,0,2,,,,,,,,,,,,,,1,,,47,64
83660,note_off,0,0,1,,,,,,,,,,,,,,0,,,63,64
83660,note_off,0,0,1,,,,,,,,,,,,,,0,,,60,64
83660,note_off,0,0,1,,,,,,,,,,,,,,0,,,72,64
83660,note_off,140,0,1,,,,,,,,,,,,,,0,,,67,64
83680,note_on,0,0,1,,,,,,,,,,,,,,0,,,67,90
83680,note_on,20,0,1,,,,,,,,,,,,,,0,,,72,90
83680,note_on,0,0,1,,,,,,,,,,,,,,0,,,60,90
83680,note_on,0,0,1,,,,,,,,,,,,,,0,,,63,90
83700,note_off,1140,0,4,,,,,,,,,,,,,,3,,,75,64
83820,note_off,140,0,1,,,,,,,,,,,,,,0,,,72,64
83820,note_off,0,0,1,,,,,,,,,,,,,,0,,,67,64
83820,note_off,0,0,1,,,,,,,,,,,,,,0,,,60,64
83820,note_off,0,0,1,,,,,,,,,,,,,,0,,,63,64
83840,note_on,20,0,1,,,,,,,,,,,,,,0,,,72,90
83840,note_on,0,0,1,,,,,,,,,,,,,,0,,,67,90
83840,note_on,0,0,1,,,,,,,,,,,,,,0,,,60,90
83840,note_on,0,0,1,,,,,,,,,,,,,,0,,,63,90
83980,note_off,0,0,1,,,,,,,,,,,,,,0,,,63,64
83980,note_off,140,0,1,,,,,,,,,,,,,,0,,,72,64
83980,note_off,0,0,1,,,,,,,,,,,,,,0,,,67,64
83980,note_off,0,0,1,,,,,,,,,,,,,,0,,,60,64
84000,note_on,300,0,4,,,,,,,,,,,,,,3,,,72,90
84000,note_on,0,0,1,,,,,,,,,,,,,,0,,,63,90
84000,note_on,0,0,1,,,,,,,,,,,,,,0,,,60,90
84000,note_on,0,0,1,,,,,,,,,,,,,,0,,,72,90
84000,note_on,20,0,1,,,,,,,,,,,,,,0,,,67,90
84140,note_off,0,0,1,,,,,,,,,,,,,,0,,,63,64
84140,note_off,0,0,1,,,,,,,,,,,,,,0,,,60,64
84140,note_off,0,0,1,,,,,,,,,,,,,,0,,,72,64
84140,note_off,140,0,1,,,,,,,,,,,,,,0,,,67,64
84160,note_on,0,0,1,,,,,,,,,,,,,,0,,,72,90
84160,note_on,20,0,1,,,,,,,,,,,,,,0,,,67,90
84160,note_on,0,0,1,,,,,,,,,,,,,,0,,,60,90
84160,note_on,0,0,1,,,,,,,,,,,,,,0,,,63,90
84300,note_off,140,0,1,,,,,,,,,,,,,,0,,,67,64
84300,note_off,0,0,1,,,,,,,,,,,,,,0,,,72,64
84300,note_off,0,0,1,,,,,,,,,,,,,,0,,,60,64
84300,note_off,0,0,1,,,,,,,,,,,,,,0,,,63,64
84320,note_on,20,0,1,,,,,,,,,,,,,,0,,,67,90
84320,note_on,0,0,1,,,,,,,,,,,,,,0,,,72,90
84320,note_on,0,0,1,,,,,,,,,,,,,,0,,,60,90
84320,note_on,0,0,1,,,,,,,,,,,,,,0,,,63,90
84460,note_off,0,0,1,,,,,,,,,,,,,,0,,,63,64
84460,note_off,0,0,1,,,,,,,,,,,,,,0,,,60,64
84460,note_off,0,0,1,,,,,,,,,,,,,,0,,,72,64
84460,note_off,140,0,1,,,,,,,,,,,,,,0,,,67,64
84480,note_on,0,0,1,,,,,,,,,,,,,,0,,,71,90
84480,note_off,480,0,4,,,,,,,,,,,,,,3,,,72,64
84480,note_on,20,0,1,,,,,,,,,,,,,,0,,,68,90
84480,note_on,0,0,4,,,,,,,,,,,,,,3,,,74,90
84480,note_on,0,0,1,,,,,,,,,,,,,,0,,,62,90
84480,note_on,0,0,1,,,,,,,,,,,,,,0,,,65,90
84620,note_off,140,0,1,,,,,,,,,,,,,,0,,,68,64
84620,note_off,0,0,1,,,,,,,,,,,,,,0,,,71,64
84620,note_off,0,0,1,,,,,,,,,,,,,,0,,,62,64
84620,note_off,0,0,1,,,,,,,,,,,,,,0,,,65,64
84640,note_on,0,0,1,,,,,,,,,,,,,,0,,,65,90
84640,note_on,0,0,1,,,,,,,,,,,,,,0,,,68,90
84640,note_on,20,0,1,,,,,,,,,,,,,,0,,,71,90
84640,note_on,0,0,1,,,,,,,,,,,,,,0,,,62,90
84780,note_off,140,0,1,,,,,,,,,,,,,,0,,,71,64
84780,note_off,0,0,1,,,,,,,,,,,,,,0,,,68,64
84780,note_off,0,0,1,,,,,,,,,,,,,,0,,,62,64
84780,note_off,0,0,1,,,,,,,,,,,,,,0,,,65,64
84800,note_on,0,0,1,,,,,,,,,,,,,,0,,,62,90
84800,note_on,0,0,1,,,,,,,,,,,,,,0,,,65,90
84800,note_on,0,0,1,,,,,,,,,,,,,,0,,,68,90
84800,note_on,20,0,1,,,,,,,,,,,,,,0,,,71,90
84940,note_off,140,0,1,,,,,,,,,,,,,,0,,,71,64
84940,note_off,0,0,1,,,,,,,,,,,,,,0,,,68,64
84940,note_off,0,0,1,,,,,,,,,,,,,,0,,,62,64
84940,note_off,0,0,1,,,,,,,,,,,,,,0,,,65,64
84960,note_on,20,0,1,,,,,,,,,,,,,,0,,,68,90
84960,note_on,0,0,1,,,,,,,,,,,,,,0,,,71,90
84960,note_on,0,0,1,,,,,,,,,,,,,,0,,,62,90
84960,note_on,0,0,1,,,,,,,,,,,,,,0,,,65,90
85100,note_off,0,0,1,,,,,,,,,,,,,,0,,,62,64
85100,note_off,0,0,1,,,,,,,,,,,,,,0,,,65,64
85100,note_off,0,0,1,,,,,,,,,,,,,,0,,,71,64
85100,note_off,140,0,1,,,,,,,,,,,,,,0,,,68,64
85120,note_on,20,0,1,,,,,,,,,,,,,,0,,,68,90
85120,note_on,0,0,1,,,,,,,,,,,,,,0,,,71,90
85120,note_on,0,0,1,,,,,,,,,,,,,,0,,,62,90
85120,note_on,0,0,1,,,,,,,,,,,,,,0,,,65,90
85260,note_off,0,0,1,,,,,,,,,,,,,,0,,,71,64
85260,note_off,0,0,1,,,,,,,,,,,,,,0,,,62,64
85260,note_off,0,0,1,,,,,,,,,,,,,,0,,,65,64
85260,note_off,140,0,1,,,,,,,,,,,,,,0,,,68,64
85280,note_on,20,0,1,,,,,,,,,,,,,,0,,,68,90
85280,note_on,0,0,1,,,,,,,,,,,,,,0,,,71,90
85280,note_on,0,0,1,,,,,,,,,,,,,,0,,,62,90
85280,note_on,0,0,1,,,,,,,,,,,,,,0,,,65,90
85420,note_off,0,0,1,,,,,,,,,,,,,,0,,,65,64
85420,note_off,140,0,1,,,,,,,,,,,,,,0,,,68,64
85420,note_off,0,0,1,,,,,,,,,,,,,,0,,,71,64
85420,note_off,0,0,1,,,,,,,,,,,,,,0,,,62,64
85440,note_on,0,0,1,,,,,,,,,,,,,,0,,,62,90
85440,note_off,960,0,4,,,,,,,,,,,,,,3,,,74,64
85440,note_on,20,0,1,,,,,,,,,,,,,,0,,,68,90
85440,note_on,0,0,1,,,,,,,,,,,,,,0,,,71,90
85440,note_on,0,0,1,,,,,,,,,,,,,,0,,,65,90
85440,note_on,0,0,4,,,,,,,,,,,,,,3,,,74,90
85580,note_off,0,0,1,,,,,,,,,,,,,,0,,,71,64
85580,note_off,0,0,1,,,,,,,,,,,,,,0,,,62,64
85580,note_off,0,0,1,,,,,,,,,,,,,,0,,,65,64
85580,note_off,140,0,1,,,,,,,,,,,,,,0,,,68,64
85600,note_on,20,0,1,,,,,,,,,,,,,,0,,,71,90
85600,note_on,0,0,1,,,,,,,,,,,,,,0,,,68,90
85600,note_on,0,0,1,,,,,,,,,,,,,,0,,,62,90
85600,note_on,0,0,1,,,,,,,,,,,,,,0,,,65,90
85740,note_off,0,0,1,,,,,,,,,,,,,,0,,,65,64
85740,note_off,0,0,1,,,,,,,,,,,,,,0,,,62,64
85740,note_off,140,0,1,,,,,,,,,,,,,,0,,,71,64
85740,note_off,0,0,1,,,,,,,,,,,,,,0,,,68,64
85760,note_on,20,0,1,,,,,,,,,,,,,,0,,,71,90
85760,note_on,0,0,1,,,,,,,,,,,,,,0,,,68,90
85760,note_on,0,0,1,,,,,,,,,,,,,,0,,,62,90
85760,note_on,0,0,1,,,,,,,,,,,,,,0,,,65,90
85900,note_off,140,0,1,,,,,,,,,,,,,,0,,,71,64
85900,note_off,0,0,1,,,,,,,,,,,,,,0,,,65,64
85900,note_off,0,0,1,,,,,,,,,,,,,,0,,,62,64
85900,note_off,0,0,1,,,,,,,,,,,,,,0,,,68,64
85920,note_off,480,0,4,,,,,,,,,,,,,,3,,,74,64
85920,note_on,0,0,4,,,,,,,,,,,,,,3,,,67,90
85920,note_on,20,0,1,,,,,,,,,,,,,,0,,,67,90
85920,note_on,0,0,1,,,,,,,,,,,,,,0,,,71,90
85920,note_on,0,0,1,,,,,,,,,,,,,,0,,,62,90
85920,note_on,0,0,1,,,,,,,,,,,,,,0,,,65,90
86060,note_off,0,0,1,,,,,,,,,,,,,,0,,,71,64
86060,note_off,140,0,1,,,,,,,,,,,,,,0,,,67,64
86060,note_off,0,0,1,,,,,,,,,,,,,,0,,,62,64
86060,note_off,0,0,1,,,,,,,,,,,,,,0,,,65,64
86080,note_on,20,0,1,,,,,,,,,,,,,,0,,,67,90
86080,note_on,0,0,1,,,,,,,,,,,,,,0,,,71,90
86080,note_on,0,0,1,,,,,,,,,,,,,,0,,,62,90
86080,note_on,0,0,1,,,,,,,,,,,,,,0,,,65,90
86220,note_off,0,0,1,,,,,,,,,,,,,,0,,,71,64
86220,note_off,140,0,1,,,,,,,,,,,,,,0,,,67,64
86220,note_off,0,0,1,,,,,,,,,,,,,,0,,,62,64
86220,note_off,0,0,1,,,,,,,,,,,,,,0,,,65,64
86240,note_on,20,0,1,,,,,,,,,,,,,,0,,,67,90
86240,note_on,0,0,1,,,,,,,,,,,,,,0,,,71,90
86240,note_on,0,0,1,,,,,,,,,,,,,,0,,,62,90
86240,note_on,0,0,1,,,,,,,,,,,,,,0,,,65,90
86380,note_off,0,0,1,,,,,,,,,,,,,,0,,,65,64
86380,note_off,140,0,1,,,,,,,,,,,,,,0,,,67,64
86380,note_off,0,0,1,,,,,,,,,,,,,,0,,,71,64
86380,note_off,0,0,1,,,,,,,,,,,,,,0,,,62,64
86390,note_off,2870,0,2,,,,,,,,,,,,,,1,,,48,64
86400,note_on,20,0,1,,,,,,,,,,,,,,0,,,67,90
86400,note_on,0,0,1,,,,,,,,,,,,,,0,,,72,90
86400,note_on,0,0,4,,,,,,,,,,,,,,3,,,75,90
86400,note_on,0,0,1,,,,,,,,,,,,,,0,,,63,90
86400,note_off,480,0,4,,,,,,,,,,,,,,3,,,67,64
86400,note_on,10,0,2,,,,,,,,,,,,,,1,,,36,90
86400,note_on,0,0,1,,,,,,,,,,,,,,0,,,60,90
86540,note_off,140,0,1,,,,,,,,,,,,,,0,,,67,64
86540,note_off,0,0,1,,,,,,,,,,,,,,0,,,72,64
86540,note_off,0,0,1,,,,,,,,,,,,,,0,,,60,64
86540,note_off,0,0,1,,,,,,,,,,,,,,0,,,63,64
86560,note_on,0,0,1,,,,,,,,,,,,,,0,,,67,90
86560,note_on,0,0,2,,,,,,,,,,,,,,1,,,39,90
86560,note_off,160,0,2,,,,,,,,,,,,,,1,,,36,64
86560,note_on,20,0,1,,,,,,,,,,,,,,0,,,72,90
86560,note_on,0,0,1,,,,,,,,,,,,,,0,,,63,90
86560,note_on,0,0,1,,,,,,,,,,,,,,0,,,60,90
86700,note_off,0,0,1,,,,,,,,,,,,,,0,,,63,64
86700,note_off,0,0,1,,,,,,,,,,,,,,0,,,60,64
86700,note_off,0,0,1,,,,,,,,,,,,,,0,,,67,64
86700,note_off,140,0,1,,,,,,,,,,,,,,0,,,72,64
86720,note_on,20,0,1,,,,,,,,,,,,,,0,,,72,90
86720,note_off,160,0,2,,,,,,,,,,,,,,1,,,39,64
86720,note_on,0,0,2,,,,,,,,,,,,,,1,,,41,90
86720,note_on,0,0,1,,,,,,,,,,,,,,0,,,63,90
86720,note_on,0,0,1,,,,,,,,,,,,,,0,,,67,90
86720,note_on,0,0,1,,,,,,,,,,,,,,0,,,60,90
86860,note_off,0,0,1,,,,,,,,,,,,,,0,,,63,64
86860,note_off,0,0,1,,,,,,,,,,,,,,0,,,60,64
86860,note_off,0,0,1,,,,,,,,,,,,,,0,,,67,64
86860,note_off,140,0,1,,,,,,,,,,,,,,0,,,72,64
86880,note_on,0,0,1,,,,,,,,,,,,,,0,,,63,90
86880,note_on,0,0,1,,,,,,,,,,,,,,0,,,60,90
86880,note_on,0,0,1,,,,,,,,,,,,,,0,,,72,90
86880,note_on,0,0,2,,,,,,,,,,,,,,1,,,43,90
86880,note_off,160,0,2,,,,,,,,,,,,,,1,,,41,64
86880,note_on,20,0,1,,,,,,,,,,,,,,0,,,67,90
87020,note_off,0,0,1,,,,,,,,,,,,,,0,,,60,64
87020,note_off,0,0,1,,,,,,,,,,,,,,0,,,72,64
87020,note_off,140,0,1,,,,,,,,,,,,,,0,,,67,64
87020,note_off,0,0,1,,,,,,,,,,,,,,0,,,63,64
87040,note_on,0,0,2,,,,,,,,,,,,,,1,,,45,90
87040,note_off,160,0,2,,,,,,,,,,,,,,1,,,43,64
87040,note_on,0,0,1,,,,,,,,,,,,,,0,,,63,90
87040,note_on,0,0,1,,,,,,,,,,,,,,0,,,60,90
87040,note_on,0,0,1,,,,,,,,,,,,,,0,,,72,90
87040,note_on,20,0,1,,,,,,,,,,,,,,0,,,67,90
87180,note_off,0,0,1,,,,,,,,,,,,,,0,,,72,64
87180,note_off,0,0,1,,,,,,,,,,,,,,0,,,60,64
87180,note_off,0,0,1,,,,,,,,,,,,,,0,,,63,64
87180,note_off,140,0,1,,,,,,,,,,,,,,0,,,67,64
87200,note_on,0,0,2,,,,,,,,,,,,,,1,,,47,90
87200,note_off,160,0,2,,,,,,,,,,,,,,1,,,45,64
87200,note_on,20,0,1,,,,,,,,,,,,,,0,,,67,90
87200,note_on,0,0,1,,,,,,,,,,,,,,0,,,72,90
87200,note_on,0,0,1,,,,,,,,,,,,,,0,,,60,90
87200,note_on,0,0,1,,,,,,,,,,,,,,0,,,63,90
87340,note_off,140,0,1,,,,,,,,,,,,,,0,,,67,64
87340,note_off,0,0,1,,,,,,,,,,,,,,0,,,60,64
87340,note_off,0,0,1,,,,,,,,,,,,,,0,,,72,64
87340,note_off,0,0,1,,,,,,,,,,,,,,0,,,63,64
87360,note_on,0,0,2,,,,,,,,,,,,,,1,,,48,90
87360,note_on,20,0,1,,,,,,,,,,,,,,0,,,67,90
87360,note_off,160,0,2,,,,,,,,,,,,,,1,,,47,64
87360,note_on,0,0,1,,,,,,,,,,,,,,0,,,72,90
87360,note_on,0,0,1,,,,,,,,,,,,,,0,,,60,90
87360,note_on,0,0,1,,,,,,,,,,,,,,0,,,63,90
87500,note_off,0,0,1,,,,,,,,,,,,,,0,,,63,64
87500,note_off,140,0,1,,,,,,,,,,,,,,0,,,67,64
87500,note_off,0,0,1,,,,,,,,,,,,,,0,,,72,64
87500,note_off,0,0,1,,,,,,,,,,,,,,0,,,60,64
87520,note_on,0,0,1,,,,,,,,,,,,,,0,,,67,90
87520,note_on,0,0,1,,,,,,,,,,,,,,0,,,60,90
87520,note_on,0,0,1,,,,,,,,,,,,,,0,,,63,90
87520,note_on,20,0,1,,,,,,,,,,,,,,0,,,72,90
87660,note_off,0,0,1,,,,,,,,,,,,,,0,,,63,64
87660,note_off,0,0,1,,,,,,,,,,,,,,0,,,60,64
87660,note_off,0,0,1,,,,,,,,,,,,,,0,,,67,64
87660,note_off,140,0,1,,,,,,,,,,,,,,0,,,72,64
87680,note_on,20,0,1,,,,,,,,,,,,,,0,,,72,90
87680,note_on,0,0,1,,,,,,,,,,,,,,0,,,60,90
87680,note_on,0,0,1,,,,,,,,,,,,,,0,,,63,90
87680,note_on,0,0,1,,,,,,,,,,,,,,0,,,67,90
87710,note_off,1310,0,4,,,,,,,,,,,,,,3,,,75,64
87820,note_off,0,0,1,,,,,,,,,,,,,,0,,,67,64
87820,note_off,0,0,1,,,,,,,,,,,,,,0,,,63,64
87820,note_off,0,0,1,,,,,,,,,,,,,,0,,,60,64
87820,note_off,140,0,1,,,,,,,,,,,,,,0,,,72,64
87840,note_on,0,0,1,,,,,,,,,,,,,,0,,,63,90
87840,note_on,0,0,1,,,,,,,,,,,,,,0,,,60,90
87840,note_on,0,0,1,,,,,,,,,,,,,,0,,,72,90
87840,note_on,20,0,1,,,,,,,,,,,,,,0,,,66,90
87980,note_off,0,0,1,,,,,,,,,,,,,,0,,,72,64
87980,note_off,0,0,1,,,,,,,,,,,,,,0,,,63,64
87980,note_off,0,0,1,,,,,,,,,,,,,,0,,,60,64
87980,note_off,140,0,1,,,,,,,,,,,,,,0,,,66,64
88000,note_on,0,0,1,,,,,,,,,,,,,,0,,,60,90
88000,note_on,0,0,1,,,,,,,,,,,,,,0,,,72,90
88000,note_on,20,0,1,,,,,,,,,,,,,,0,,,66,90
88000,note_on,0,0,1,,,,,,,,,,,,,,0,,,63,90
88140,note_off,0,0,1,,,,,,,,,,,,,,0,,,63,64
88140,note_off,0,0,1,,,,,,,,,,,,,,0,,,60,64
88140,note_off,140,0,1,,,,,,,,,,,,,,0,,,66,64
88140,note_off,0,0,1,,,,,,,,,,,,,,0,,,72,64
88160,note_on,0,0,1,,,,,,,,,,,,,,0,,,63,90
88160,note_on,20,0,1,,,,,,,,,,,,,,0,,,66,90
88160,note_on,0,0,1,,,,,,,,,,,,,,0,,,72,90
88160,note_on,0,0,1,,,,,,,,,,,,,,0,,,60,90
88300,note_off,0,0,1,,,,,,,,,,,,,,0,,,63,64
88300,note_off,0,0,1,,,,,,,,,,,,,,0,,,60,64
88300,note_off,0,0,1,,,,,,,,,,,,,,0,,,72,64
88300,note_off,140,0,1,,,,,,,,,,,,,,0,,,66,64
88310,note_off,950,0,2,,,,,,,,,,,,,,1,,,48,64
88320,note_on,0,0,1,,,,,,,,,,,,,,0,,,60,90
88320,note_on,0,0,1,,,,,,,,,,,,,,0,,,57,90
88320,note_on,20,0,1,,,,,,,,,,,,,,0,,,65,90
88320,note_on,0,0,1,,,,,,,,,,,,,,0,,,63,90
88320,note_on,10,0,2,,,,,,,,,,,,,,1,,,41,90
88460,note_off,0,0,1,,,,,,,,,,,,,,0,,,63,64
88460,note_off,0,0,1,,,,,,,,,,,,,,0,,,60,64
88460,note_off,140,0,1,,,,,,,,,,,,,,0,,,65,64
88460,note_off,0,0,1,,,,,,,,,,,,,,0,,,57,64
88480,note_on,20,0,1,,,,,,,,,,,,,,0,,,57,90
88480,note_on,0,0,1,,,,,,,,,,,,,,0,,,60,90
88480,note_on,0,0,1,,,,,,,,,,,,,,0,,,63,90
88480,note_on,0,0,1,,,,,,,,,,,,,,0,,,65,90
88480,note_on,0,0,2,,,,,,,,,,,,,,1,,,45,90
88480,note_off,160,0,2,,,,,,,,,,,,,,1,,,41,64
88620,note_off,0,0,1,,,,,,,,,,,,,,0,,,63,64
88620,note_off,140,0,1,,,,,,,,,,,,,,0,,,57,64
88620,note_off,0,0,1,,,,,,,,,,,,,,0,,,65,64
88620,note_off,0,0,1,,,,,,,,,,,,,,0,,,60,64
88640,note_off,160,0,2,,,,,,,,,,,,,,1,,,45,64
88640,note_on,20,0,1,,,,,,,,,,,,,,0,,,57,90
88640,note_on,0,0,1,,,,,,,,,,,,,,0,,,65,90
88640,note_on,0,0,1,,,,,,,,,,,,,,0,,,60,90
88640,note_on,0,0,1,,,,,,,,,,,,,,0,,,63,90
88640,note_on,0,0,2,,,,,,,,,,,,,,1,,,46,90
88780,note_off,0,0,1,,,,,,,,,,,,,,0,,,60,64
88780,note_off,0,0,1,,,,,,,,,,,,,,0,,,65,64
88780,note_off,140,0,1,,,,,,,,,,,,,,0,,,57,64
88780,note_off,0,0,1,,,,,,,,,,,,,,0,,,63,64
88800,note_on,0,0,1,,,,,,,,,,,,,,0,,,63,90
88800,note_on,0,0,1,,,,,,,,,,,,,,0,,,60,90
88800,note_off,160,0,2,,,,,,,,,,,,,,1,,,46,64
88800,note_on,20,0,1,,,,,,,,,,,,,,0,,,65,90
88800,note_on,0,0,2,,,,,,,,,,,,,,1,,,48,90
88800,note_on,0,0,1,,,,,,,,,,,,,,0,,,57,90
88940,note_off,140,0,1,,,,,,,,,,,,,,0,,,65,64
88940,note_off,0,0,1,,,,,,,,,,,,,,0,,,57,64
88940,note_off,0,0,1,,,,,,,,,,,,,,0,,,60,64
88940,note_off,0,0,1,,,,,,,,,,,,,,0,,,63,64
88960,note_on,0,0,1,,,,,,,,,,,,,,0,,,63,90
88960,note_on,0,0,1,,,,,,,,,,,,,,0,,,60,90
88960,note_on,0,0,1,,,,,,,,,,,,,,0,,,57,90
88960,note_on,0,0,2,,,,,,,,,,,,,,1,,,50,90
88960,note_off,160,0,2,,,,,,,,,,,,,,1,,,48,64
88960,note_on,20,0,1,,,,,,,,,,,,,,0,,,65,90
89100,note_off,140,0,1,,,,,,,,,,,,,,0,,,65,64
89100,note_off,0,0,1,,,,,,,,,,,,,,0,,,57,64
89100,note_off,0,0,1,,,,,,,,,,,,,,0,,,60,64
89100,note_off,0,0,1,,,,,,,,,,,,,,0,,,63,64
89120,note_off,160,0,2,,,,,,,,,,,,,,1,,,50,64
89120,note_on,0,0,2,,,,,,,,,,,,,,1,,,52,90
89120,note_on,0,0,1,,,,,,,,,,,,,,0,,,57,90
89120,note_on,0,0,1,,,,,,,,,,,,,,0,,,63,90
89120,note_on,20,0,1,,,,,,,,,,,,,,0,,,65,90
89120,note_on,0,0,1,,,,,,,,,,,,,,0,,,60,90
89260,note_off,0,0,1,,,,,,,,,,,,,,0,,,57,64
89260,note_off,140,0,1,,,,,,,,,,,,,,0,,,65,64
89260,note_off,0,0,1,,,,,,,,,,,,,,0,,,63,64
89260,note_off,0,0,1,,,,,,,,,,,,,,0,,,60,64
89280,note_on,0,0,1,,,,,,,,,,,,,,0,,,63,90
89280,note_on,0,0,1,,,,,,,,,,,,,,0,,,57,90
89280,note_off,160,0,2,,,,,,,,,,,,,,1,,,52,64
89280,note_on,0,0,2,,,,,,,,,,,,,,1,,,53,90
89280,note_on,20,0,1,,,,,,,,,,,,,,0,,,65,90
89280,note_on,0,0,1,,,,,,,,,,,,,,0,,,60,90
89420,note_off,140,0,1,,,,,,,,,,,,,,0,,,65,64
89420,note_off,0,0,1,,,,,,,,,,,,,,0,,,60,64
89420,note_off,0,0,1,,,,,,,,,,,,,,0,,,63,64
89420,note_off,0,0,1,,,,,,,,,,,,,,0,,,57,64
89440,note_on,0,0,1,,,,,,,,,,,,,,0,,,63,90
89440,note_on,20,0,1,,,,,,,,,,,,,,0,,,57,90
89440,note_on,0,0,1,,,,,,,,,,,,,,0,,,65,90
89440,note_on,0,0,1,,,,,,,,,,,,,,0,,,60,90
89580,note_off,0,0,1,,,,,,,,,,,,,,0,,,60,64
89580,note_off,140,0,1,,,,,,,,,,,,,,0,,,57,64
89580,note_off,0,0,1,,,,,,,,,,,,,,0,,,65,64
89580,note_off,0,0,1,,,,,,,,,,,,,,0,,,63,64
89600,note_on,20,0,1,,,,,,,,,,,,,,0,,,57,90
89600,note_on,0,0,1,,,,,,,,,,,,,,0,,,63,90
89600,note_on,0,0,1,,,,,,,,,,,,,,0,,,60,90
89600,note_on,0,0,1,,,,,,,,,,,,,,0,,,65,90
89740,note_off,0,0,1,,,,,,,,,,,,,,0,,,60,64
89740,note_off,0,0,1,,,,,,,,,,,,,,0,,,65,64
89740,note_off,140,0,1,,,,,,,,,,,,,,0,,,57,64
89740,note_off,0,0,1,,,,,,,,,,,,,,0,,,63,64
89760,note_on,20,0,1,,,,,,,,,,,,,,0,,,65,90
89760,note_on,0,0,1,,,,,,,,,,,,,,0,,,60,90
89760,note_on,0,0,1,,,,,,,,,,,,,,0,,,63,90
89760,note_on,2050,0,4,,,,,,,,,,,,,,3,,,72,90
89760,note_on,0,0,1,,,,,,,,,,,,,,0,,,57,90
89900,note_off,0,0,1,,,,,,,,,,,,,,0,,,57,64
89900,note_off,0,0,1,,,,,,,,,,,,,,0,,,60,64
89900,note_off,0,0,1,,,,,,,,,,,,,,0,,,63,64
89900,note_off,140,0,1,,,,,,,,,,,,,,0,,,65,64
89920,note_on,0,0,1,,,,,,,,,,,,,,0,,,60,90
89920,note_on,20,0,1,,,,,,,,,,,,,,0,,,65,90
89920,note_on,0,0,1,,,,,,,,,,,,,,0,,,57,90
89920,note_on,0,0,1,,,,,,,,,,,,,,0,,,63,90
90060,note_off,140,0,1,,,,,,,,,,,,,,0,,,65,64
90060,note_off,0,0,1,,,,,,,,,,,,,,0,,,57,64
90060,note_off,0,0,1,,,,,,,,,,,,,,0,,,60,64
90060,note_off,0,0,1,,,,,,,,,,,,,,0,,,63,64
90080,note_on,20,0,1,,,,,,,,,,,,,,0,,,65,90
90080,note_on,0,0,1,,,,,,,,,,,,,,0,,,57,90
90080,note_on,0,0,1,,,,,,,,,,,,,,0,,,60,90
90080,note_on,0,0,1,,,,,,,,,,,,,,0,,,63,90
90220,note_off,0,0,1,,,,,,,,,,,,,,0,,,57,64
90220,note_off,140,0,1,,,,,,,,,,,,,,0,,,65,64
90220,note_off,0,0,1,,,,,,,,,,,,,,0,,,63,64
90220,note_off,0,0,1,,,,,,,,,,,,,,0,,,60,64
90240,note_on,0,0,1,,,,,,,,,,,,,,0,,,55,90
90240,note_on,0,0,1,,,,,,,,,,,,,,0,,,55,90
90240,note_on,0,0,1,,,,,,,,,,,,,,0,,,58,90
90240,note_on,0,0,1,,,,,,,,,,,,,,0,,,58,90
90240,note_on,0,0,1,,,,,,,,,,,,,,0,,,61,90
90240,note_on,0,0,1,,,,,,,,,,,,,,0,,,61,90
90240,note_on,0,0,1,,,,,,,,,,,,,,0,,,64,90
90240,note_off,480,0,4,,,,,,,,,,,,,,3,,,72,64
90240,note_on,0,0,4,,,,,,,,,,,,,,3,,,73,90
90240,note_on,20,0,1,,,,,,,,,,,,,,0,,,64,90
90380,note_off,0,0,1,,,,,,,,,,,,,,0,,,64,64
90380,note_off,0,0,1,,,,,,,,,,,,,,0,,,55,64
90380,note_off,0,0,1,,,,,,,,,,,,,,0,,,55,64
90380,note_off,0,0,1,,,,,,,,,,,,,,0,,,58,64
90380,note_off,0,0,1,,,,,,,,,,,,,,0,,,58,64
90380,note_off,0,0,1,,,,,,,,,,,,,,0,,,61,64
90380,note_off,140,0,1,,,,,,,,,,,,,,0,,,64,64
90380,note_off,0,0,1,,,,,,,,,,,,,,0,,,61,64
90400,note_on,0,0,1,,,,,,,,,,,,,,0,,,58,90
90400,note_on,0,0,1,,,,,,,,,,,,,,0,,,64,90
90400,note_on,0,0,1,,,,,,,,,,,,,,0,,,64,90
90400,note_on,0,0,1,,,,,,,,,,,,,,0,,,58,90
90400,note_on,0,0,1,,,,,,,,,,,,,,0,,,61,90
90400,note_on,0,0,1,,,,,,,,,,,,,,0,,,61,90
90400,note_on,0,0,1,,,,,,,,,,,,,,0,,,55,90
90400,note_on,20,0,1,,,,,,,,,,,,,,0,,,55,90
90540,note_off,0,0,1,,,,,,,,,,,,,,0,,,61,64
90540,note_off,0,0,1,,,,,,,,,,,,,,0,,,55,64
90540,note_off,0,0,1,,,,,,,,,,,,,,0,,,61,64
90540,note_off,0,0,1,,,,,,,,,,,,,,0,,,58,64
90540,note_off,0,0,1,,,,,,,,,,,,,,0,,,64,64
90540,note_off,0,0,1,,,,,,,,,,,,,,0,,,64,64
90540,note_off,140,0,1,,,,,,,,,,,,,,0,,,55,64
90540,note_off,0,0,1,,,,,,,,,,,,,,0,,,58,64
90560,note_on,0,0,1,,,,,,,,,,,,,,0,,,61,90
90560,note_on,0,0,1,,,,,,,,,,,,,,0,,,55,90
90560,note_on,0,0,1,,,,,,,,,,,,,,0,,,61,90
90560,note_on,0,0,1,,,,,,,,,,,,,,0,,,58,90
90560,note_on,0,0,1,,,,,,,,,,,,,,0,,,64,90
90560,note_on,0,0,1,,,,,,,,,,,,,,0,,,64,90
90560,note_on,20,0,1,,,,,,,,,,,,,,0,,,55,90
90560,note_on,0,0,1,,,,,,,,,,,,,,0,,,58,90
90700,note_off,0,0,1,,,,,,,,,,,,,,0,,,55,64
90700,note_off,0,0,1,,,,,,,,,,,,,,0,,,61,64
90700,note_off,0,0,1,,,,,,,,,,,,,,0,,,58,64
90700,note_off,0,0,1,,,,,,,,,,,,,,0,,,61,64
90700,note_off,0,0,1,,,,,,,,,,,,,,0,,,64,64
90700,note_off,0,0,1,,,,,,,,,,,,,,0,,,64,64
90700,note_off,140,0,1,,,,,,,,,,,,,,0,,,55,64
90700,note_off,0,0,1,,,,,,,,,,,,,,0,,,58,64
90720,note_on,0,0,1,,,,,,,,,,,,,,0,,,61,90
90720,note_on,0,0,1,,,,,,,,,,,,,,0,,,64,90
90720,note_on,0,0,1,,,,,,,,,,,,,,0,,,61,90
90720,note_on,0,0,1,,,,,,,,,,,,,,0,,,58,90
90720,note_on,0,0,1,,,,,,,,,,,,,,0,,,55,90
90720,note_on,0,0,1,,,,,,,,,,,,,,0,,,55,90
90720,note_on,20,0,1,,,,,,,,,,,,,,0,,,64,90
90720,note_on,0,0,1,,,,,,,,,,,,,,0,,,58,90
90860,note_off,0,0,1,,,,,,,,,,,,,,0,,,64,64
90860,note_off,0,0,1,,,,,,,,,,,,,,0,,,61,64
90860,note_off,0,0,1,,,,,,,,,,,,,,0,,,58,64
90860,note_off,0,0,1,,,,,,,,,,,,,,0,,,61,64
90860,note_off,0,0,1,,,,,,,,,,,,,,0,,,55,64
90860,note_off,0,0,1,,,,,,,,,,,,,,0,,,55,64
90860,note_off,140,0,1,,,,,,,,,,,,,,0,,,64,64
90860,note_off,0,0,1,,,,,,,,,,,,,,0,,,58,64
90880,note_on,0,0,1,,,,,,,,,,,,,,0,,,61,90
90880,note_on,20,0,1,,,,,,,,,,,,,,0,,,64,90
90880,note_on,0,0,1,,,,,,,,,,,,,,0,,,55,90
90880,note_on,0,0,1,,,,,,,,,,,,,,0,,,55,90
90880,note_on,0,0,1,,,,,,,,,,,,,,0,,,58,90
90880,note_on,0,0,1,,,,,,,,,,,,,,0,,,58,90
90880,note_on,0,0,1,,,,,,,,,,,,,,0,,,61,90
90880,note_on,0,0,1,,,,,,,,,,,,,,0,,,64,90
91020,note_off,0,0,1,,,,,,,,,,,,,,0,,,64,64
91020,note_off,0,0,1,,,,,,,,,,,,,,0,,,61,64
91020,note_off,0,0,1,,,,,,,,,,,,,,0,,,58,64
91020,note_off,0,0,1,,,,,,,,,,,,,,0,,,61,64
91020,note_off,0,0,1,,,,,,,,,,,,,,0,,,55,64
91020,note_off,0,0,1,,,,,,,,,,,,,,0,,,55,64
91020,note_off,140,0,1,,,,,,,,,,,,,,0,,,64,64
91020,note_off,0,0,1,,,,,,,,,,,,,,0,,,58,64
91040,note_on,0,0,1,,,,,,,,,,,,,,0,,,61,90
91040,note_on,0,0,1,,,,,,,,,,,,,,0,,,64,90
91040,note_on,0,0,1,,,,,,,,,,,,,,0,,,61,90
91040,note_on,0,0,1,,,,,,,,,,,,,,0,,,58,90
91040,note_on,0,0,1,,,,,,,,,,,,,,0,,,55,90
91040,note_on,0,0,1,,,,,,,,,,,,,,0,,,55,90
91040,note_on,20,0,1,,,,,,,,,,,,,,0,,,64,90
91040,note_on,0,0,1,,,,,,,,,,,,,,0,,,58,90
91180,note_off,0,0,1,,,,,,,,,,,,,,0,,,64,64
91180,note_off,0,0,1,,,,,,,,,,,,,,0,,,61,64
91180,note_off,0,0,1,,,,,,,,,,,,,,0,,,58,64
91180,note_off,0,0,1,,,,,,,,,,,,,,0,,,61,64
91180,note_off,0,0,1,,,,,,,,,,,,,,0,,,55,64
91180,note_off,0,0,1,,,,,,,,,,,,,,0,,,55,64
91180,note_off,140,0,1,,,,,,,,,,,,,,0,,,64,64
91180,note_off,0,0,1,,,,,,,,,,,,,,0,,,58,64
91200,note_on,0,0,1,,,,,,,,,,,,,,0,,,61,90
91200,note_on,20,0,1,,,,,,,,,,,,,,0,,,64,90
91200,note_on,0,0,1,,,,,,,,,,,,,,0,,,55,90
91200,note_on,0,0,1,,,,,,,,,,,,,,0,,,55,90
91200,note_on,0,0,1,,,,,,,,,,,,,,0,,,58,90
91200,note_on,0,0,1,,,,,,,,,,,,,,0,,,58,90
91200,note_on,0,0,1,,,,,,,,,,,,,,0,,,61,90
91200,note_on,0,0,1,,,,,,,,,,,,,,0,,,64,90
91340,note_off,0,0,1,,,,,,,,,,,,,,0,,,64,64
91340,note_off,0,0,1,,,,,,,,,,,,,,0,,,61,64
91340,note_off,0,0,1,,,,,,,,,,,,,,0,,,58,64
91340,note_off,0,0,1,,,,,,,,,,,,,,0,,,61,64
91340,note_off,0,0,1,,,,,,,,,,,,,,0,,,55,64
91340,note_off,0,0,1,,,,,,,,,,,,,,0,,,55,64
91340,note_off,140,0,1,,,,,,,,,,,,,,0,,,64,64
91340,note_off,0,0,1,,,,,,,,,,,,,,0,,,58,64
91360,note_on,0,0,1,,,,,,,,,,,,,,0,,,61,90
91360,note_on,20,0,1,,,,,,,,,,,,,,0,,,55,90
91360,note_on,0,0,1,,,,,,,,,,,,,,0,,,64,90
91360,note_on,0,0,1,,,,,,,,,,,,,,0,,,64,90
91360,note_on,0,0,1,,,,,,,,,,,,,,0,,,58,90
91360,note_on,0,0,1,,,,,,,,,,,,,,0,,,58,90
91360,note_on,0,0,1,,,,,,,,,,,,,,0,,,61,90
91360,note_on,0,0,1,,,,,,,,,,,,,,0,,,55,90
91500,note_off,0,0,1,,,,,,,,,,,,,,0,,,55,64
91500,note_off,0,0,1,,,,,,,,,,,,,,0,,,61,64
91500,note_off,0,0,1,,,,,,,,,,,,,,0,,,61,64
91500,note_off,0,0,1,,,,,,,,,,,,,,0,,,58,64
91500,note_off,0,0,1,,,,,,,,,,,,,,0,,,64,64
91500,note_off,0,0,1,,,,,,,,,,,,,,0,,,64,64
91500,note_off,140,0,1,,,,,,,,,,,,,,0,,,55,64
91500,note_off,0,0,1,,,,,,,,,,,,,,0,,,58,64
91520,note_on,0,0,1,,,,,,,,,,,,,,0,,,58,90
91520,note_on,0,0,1,,,,,,,,,,,,,,0,,,61,90
91520,note_on,0,0,1,,,,,,,,,,,,,,0,,,58,90
91520,note_on,0,0,1,,,,,,,,,,,,,,0,,,55,90
91520,note_on,0,0,1,,,,,,,,,,,,,,0,,,64,90
91520,note_on,20,0,1,,,,,,,,,,,,,,0,,,55,90
91520,note_on,0,0,1,,,,,,,,,,,,,,0,,,61,90
91520,note_on,0,0,1,,,,,,,,,,,,,,0,,,64,90
91660,note_off,0,0,1,,,,,,,,,,,,,,0,,,61,64
91660,note_off,0,0,1,,,,,,,,,,,,,,0,,,55,64
91660,note_off,0,0,1,,,,,,,,,,,,,,0,,,61,64
91660,note_off,0,0,1,,,,,,,,,,,,,,0,,,58,64
91660,note_off,0,0,1,,,,,,,,,,,,,,0,,,64,64
91660,note_off,0,0,1,,,,,,,,,,,,,,0,,,64,64
91660,note_off,140,0,1,,,,,,,,,,,,,,0,,,55,64
91660,note_off,0,0,1,,,,,,,,,,,,,,0,,,58,64
91680,note_on,0,0,1,,,,,,,,,,,,,,0,,,64,90
91680,note_on,0,0,1,,,,,,,,,,,,,,0,,,61,90
91680,note_on,0,0,1,,,,,,,,,,,,,,0,,,61,90
91680,note_on,0,0,1,,,,,,,,,,,,,,0,,,58,90
91680,note_off,1440,0,4,,,,,,,,,,,,,,3,,,73,64
91680,note_on,0,0,1,,,,,,,,,,,,,,0,,,55,90
91680,note_on,0,0,1,,,,,,,,,,,,,,0,,,55,90
91680,note_on,20,0,1,,,,,,,,,,,,,,0,,,64,90
91680,note_on,0,0,4,,,,,,,,,,,,,,3,,,70,90
91680,note_on,0,0,1,,,,,,,,,,,,,,0,,,58,90
91820,note_off,140,0,1,,,,,,,,,,,,,,0,,,64,64
91820,note_off,0,0,1,,,,,,,,,,,,,,0,,,55,64
91820,note_off,0,0,1,,,,,,,,,,,,,,0,,,55,64
91820,note_off,0,0,1,,,,,,,,,,,,,,0,,,58,64
91820,note_off,0,0,1,,,,,,,,,,,,,,0,,,58,64
91820,note_off,0,0,1,,,,,,,,,,,,,,0,,,61,64
91820,note_off,0,0,1,,,,,,,,,,,,,,0,,,61,64
91820,note_off,0,0,1,,,,,,,,,,,,,,0,,,64,64
91840,note_on,0,0,1,,,,,,,,,,,,,,0,,,64,90
91840,note_on,0,0,1,,,,,,,,,,,,,,0,,,61,90
91840,note_on,0,0,1,,,,,,,,,,,,,,0,,,61,90
91840,note_on,0,0,1,,,,,,,,,,,,,,0,,,58,90
91840,note_on,0,0,1,,,,,,,,,,,,,,0,,,55,90
91840,note_on,0,0,1,,,,,,,,,,,,,,0,,,55,90
91840,note_on,20,0,1,,,,,,,,,,,,,,0,,,64,90
91840,note_on,0,0,1,,,,,,,,,,,,,,0,,,58,90
91980,note_off,140,0,1,,,,,,,,,,,,,,0,,,64,64
91980,note_off,0,0,1,,,,,,,,,,,,,,0,,,55,64
91980,note_off,0,0,1,,,,,,,,,,,,,,0,,,55,64
91980,note_off,0,0,1,,,,,,,,,,,,,,0,,,58,64
91980,note_off,0,0,1,,,,,,,,,,,,,,0,,,58,64
91980,note_off,0,0,1,,,,,,,,,,,,,,0,,,61,64
91980,note_off,0,0,1,,,,,,,,,,,,,,0,,,61,64
91980,note_off,0,0,1,,,,,,,,,,,,,,0,,,64,64
92000,note_on,0,0,1,,,,,,,,,,,,,,0,,,61,90
92000,note_on,0,0,1,,,,,,,,,,,,,,0,,,64,90
92000,note_on,0,0,1,,,,,,,,,,,,,,0,,,61,90
92000,note_on,0,0,1,,,,,,,,,,,,,,0,,,55,90
92000,note_on,0,0,1,,,,,,,,,,,,,,0,,,58,90
92000,note_on,0,0,1,,,,,,,,,,,,,,0,,,55,90
92000,note_on,20,0,1,,,,,,,,,,,,,,0,,,64,90
92000,note_on,0,0,1,,,,,,,,,,,,,,0,,,58,90
92140,note_off,140,0,1,,,,,,,,,,,,,,0,,,64,64
92140,note_off,0,0,1,,,,,,,,,,,,,,0,,,55,64
92140,note_off,0,0,1,,,,,,,,,,,,,,0,,,55,64
92140,note_off,0,0,1,,,,,,,,,,,,,,0,,,58,64
92140,note_off,0,0,1,,,,,,,,,,,,,,0,,,58,64
92140,note_off,0,0,1,,,,,,,,,,,,,,0,,,61,64
92140,note_off,0,0,1,,,,,,,,,,,,,,0,,,61,64
92140,note_off,0,0,1,,,,,,,,,,,,,,0,,,64,64
92160,note_on,0,0,2,,,,,,,,,,,,,,1,,,41,90
92160,note_off,2880,0,2,,,,,,,,,,,,,,1,,,53,64
92160,note_on,0,0,4,,,,,,,,,,,,,,3,,,69,90
92160,note_off,480,0,4,,,,,,,,,,,,,,3,,,70,64
92160,note_on,0,0,1,,,,,,,,,,,,,,0,,,60,90
92160,note_on,0,0,1,,,,,,,,,,,,,,0,,,57,90
92160,note_on,20,0,1,,,,,,,,,,,,,,0,,,65,90
92300,note_off,0,0,1,,,,,,,,,,,,,,0,,,57,64
92300,note_off,140,0,1,,,,,,,,,,,,,,0,,,65,64
92300,note_off,0,0,1,,,,,,,,,,,,,,0,,,60,64
92320,note_on,20,0,1,,,,,,,,,,,,,,0,,,57,90
92320,note_on,0,0,1,,,,,,,,,,,,,,0,,,65,90
92320,note_on,0,0,1,,,,,,,,,,,,,,0,,,60,90
92320,note_off,160,0,2,,,,,,,,,,,,,,1,,,41,64
92320,note_on,0,0,2,,,,,,,,,,,,,,1,,,45,90
92460,note_off,0,0,1,,,,,,,,,,,,,,0,,,60,64
92460,note_off,0,0,1,,,,,,,,,,,,,,0,,,65,64
92460,note_off,140,0,1,,,,,,,,,,,,,,0,,,57,64
92480,note_on,0,0,2,,,,,,,,,,,,,,1,,,46,90
92480,note_off,160,0,2,,,,,,,,,,,,,,1,,,45,64
92480,note_on,0,0,1,,,,,,,,,,,,,,0,,,60,90
92480,note_on,0,0,1,,,,,,,,,,,,,,0,,,65,90
92480,note_on,20,0,1,,,,,,,,,,,,,,0,,,57,90
92620,note_off,0,0,1,,,,,,,,,,,,,,0,,,60,64
92620,note_off,140,0,1,,,,,,,,,,,,,,0,,,57,64
92620,note_off,0,0,1,,,,,,,,,,,,,,0,,,65,64
92640,note_on,0,0,4,,,,,,,,,,,,,,3,,,65,90
92640,note_off,480,0,4,,,,,,,,,,,,,,3,,,69,64
92640,note_on,0,0,2,,,,,,,,,,,,,,1,,,48,90
92640,note_off,160,0,2,,,,,,,,,,,,,,1,,,46,64
92640,note_on,20,0,1,,,,,,,,,,,,,,0,,,65,90
92640,note_on,0,0,1,,,,,,,,,,,,,,0,,,60,90
92640,note_on,0,0,1,,,,,,,,,,,,,,0,,,57,90
92780,note_off,0,0,1,,,,,,,,,,,,,,0,,,60,64
92780,note_off,0,0,1,,,,,,,,,,,,,,0,,,57,64
92780,note_off,140,0,1,,,,,,,,,,,,,,0,,,65,64
92800,note_off,160,0,2,,,,,,,,,,,,,,1,,,48,64
92800,note_on,0,0,2,,,,,,,,,,,,,,1,,,50,90
92800,note_on,0,0,1,,,,,,,,,,,,,,0,,,60,90
92800,note_on,0,0,1,,,,,,,,,,,,,,0,,,57,90
92800,note_on,20,0,1,,,,,,,,,,,,,,0,,,65,90
92940,note_off,0,0,1,,,,,,,,,,,,,,0,,,60,64
92940,note_off,0,0,1,,,,,,,,,,,,,,0,,,57,64
92940,note_off,140,0,1,,,,,,,,,,,,,,0,,,65,64
92960,note_off,160,0,2,,,,,,,,,,,,,,1,,,50,64
92960,note_on,0,0,2,,,,,,,,,,,,,,1,,,52,90
92960,note_on,0,0,1,,,,,,,,,,,,,,0,,,57,90
92960,note_on,0,0,1,,,,,,,,,,,,,,0,,,60,90
92960,note_on,20,0,1,,,,,,,,,,,,,,0,,,65,90
93100,note_off,0,0,1,,,,,,,,,,,,,,0,,,57,64
93100,note_off,140,0,1,,,,,,,,,,,,,,0,,,65,64
93100,note_off,0,0,1,,,,,,,,,,,,,,0,,,60,64
93120,note_off,480,0,4,,,,,,,,,,,,,,3,,,65,64
93120,note_on,0,0,2,,,,,,,,,,,,,,1,,,53,90
93120,note_on,0,0,1,,,,,,,,,,,,,,0,,,60,90
93120,note_on,0,0,1,,,,,,,,,,,,,,0,,,57,90
93120,note_on,20,0,1,,,,,,,,,,,,,,0,,,65,90
93120,note_off,160,0,2,,,,,,,,,,,,,,1,,,52,64
93260,note_off,0,0,1,,,,,,,,,,,,,,0,,,60,64
93260,note_off,0,0,1,,,,,,,,,,,,,,0,,,57,64
93260,note_off,140,0,1,,,,,,,,,,,,,,0,,,65,64
93280,note_on,0,0,1,,,,,,,,,,,,,,0,,,60,90
93280,note_on,0,0,1,,,,,,,,,,,,,,0,,,65,90
93280,note_on,20,0,1,,,,,,,,,,,,,,0,,,57,90
93420,note_off,0,0,1,,,,,,,,,,,,,,0,,,60,64
93420,note_off,0,0,1,,,,,,,,,,,,,,0,,,65,64
93420,note_off,140,0,1,,,,,,,,,,,,,,0,,,57,64
93440,note_on,20,0,1,,,,,,,,,,,,,,0,,,57,90
93440,note_on,0,0,1,,,,,,,,,,,,,,0,,,65,90
93440,note_on,0,0,1,,,,,,,,,,,,,,0,,,60,90
93580,note_off,140,0,1,,,,,,,,,,,,,,0,,,57,64
93580,note_off,0,0,1,,,,,,,,,,,,,,0,,,65,64
93580,note_off,0,0,1,,,,,,,,,,,,,,0,,,60,64
93600,note_on,20,0,1,,,,,,,,,,,,,,0,,,65,90
93600,note_on,0,0,1,,,,,,,,,,,,,,0,,,57,90
93600,note_on,0,0,1,,,,,,,,,,,,,,0,,,60,90
93600,note_on,480,0,4,,,,,,,,,,,,,,3,,,72,90
93740,note_off,140,0,1,,,,,,,,,,,,,,0,,,65,64
93740,note_off,0,0,1,,,,,,,,,,,,,,0,,,57,64
93740,note_off,0,0,1,,,,,,,,,,,,,,0,,,60,64
93760,note_on,0,0,1,,,,,,,,,,,,,,0,,,57,90
93760,note_on,0,0,1,,,,,,,,,,,,,,0,,,60,90
93760,note_on,20,0,1,,,,,,,,,,,,,,0,,,65,90
93900,note_off,0,0,1,,,,,,,,,,,,,,0,,,57,64
93900,note_off,0,0,1,,,,,,,,,,,,,,0,,,60,64
93900,note_off,140,0,1,,,,,,,,,,,,,,0,,,65,64
93920,note_on,0,0,1,,,,,,,,,,,,,,0,,,57,90
93920,note_on,0,0,1,,,,,,,,,,,,,,0,,,60,90
93920,note_on,20,0,1,,,,,,,,,,,,,,0,,,65,90
94060,note_off,140,0,1,,,,,,,,,,,,,,0,,,65,64
94060,note_off,0,0,1,,,,,,,,,,,,,,0,,,60,64
94060,note_off,0,0,1,,,,,,,,,,,,,,0,,,57,64
94080,note_on,20,0,1,,,,,,,,,,,,,,0,,,64,90
94080,note_on,0,0,1,,,,,,,,,,,,,,0,,,55,90
94080,note_on,0,0,1,,,,,,,,,,,,,,0,,,58,90
94080,note_on,0,0,1,,,,,,,,,,,,,,0,,,58,90
94080,note_on,0,0,1,,,,,,,,,,,,,,0,,,61,90
94080,note_on,0,0,4,,,,,,,,,,,,,,3,,,73,90
94080,note_on,0,0,1,,,,,,,,,,,,,,0,,,55,90
94080,note_on,0,0,1,,,,,,,,,,,,,,0,,,61,90
94080,note_on,0,0,1,,,,,,,,,,,,,,0,,,64,90
94080,note_off,480,0,4,,,,,,,,,,,,,,3,,,72,64
94220,note_off,0,0,1,,,,,,,,,,,,,,0,,,61,64
94220,note_off,140,0,1,,,,,,,,,,,,,,0,,,64,64
94220,note_off,0,0,1,,,,,,,,,,,,,,0,,,55,64
94220,note_off,0,0,1,,,,,,,,,,,,,,0,,,55,64
94220,note_off,0,0,1,,,,,,,,,,,,,,0,,,58,64
94220,note_off,0,0,1,,,,,,,,,,,,,,0,,,58,64
94220,note_off,0,0,1,,,,,,,,,,,,,,0,,,64,64
94220,note_off,0,0,1,,,,,,,,,,,,,,0,,,61,64
94240,note_on,0,0,1,,,,,,,,,,,,,,0,,,64,90
94240,note_on,0,0,1,,,,,,,,,,,,,,0,,,58,90
94240,note_on,20,0,1,,,,,,,,,,,,,,0,,,55,90
94240,note_on,0,0,1,,,,,,,,,,,,,,0,,,64,90
94240,note_on,0,0,1,,,,,,,,,,,,,,0,,,58,90
94240,note_on,0,0,1,,,,,,,,,,,,,,0,,,61,90
94240,note_on,0,0,1,,,,,,,,,,,,,,0,,,61,90
94240,note_on,0,0,1,,,,,,,,,,,,,,0,,,55,90
94380,note_off,140,0,1,,,,,,,,,,,,,,0,,,55,64
94380,note_off,0,0,1,,,,,,,,,,,,,,0,,,64,64
94380,note_off,0,0,1,,,,,,,,,,,,,,0,,,64,64
94380,note_off,0,0,1,,,,,,,,,,,,,,0,,,58,64
94380,note_off,0,0,1,,,,,,,,,,,,,,0,,,61,64
94380,note_off,0,0,1,,,,,,,,,,,,,,0,,,61,64
94380,note_off,0,0,1,,,,,,,,,,,,,,0,,,55,64
94380,note_off,0,0,1,,,,,,,,,,,,,,0,,,58,64
94400,note_on,0,0,1,,,,,,,,,,,,,,0,,,58,90
94400,note_on,0,0,1,,,,,,,,,,,,,,0,,,61,90
94400,note_on,0,0,1,,,,,,,,,,,,,,0,,,55,90
94400,note_on,0,0,1,,,,,,,,,,,,,,0,,,58,90
94400,note_on,0,0,1,,,,,,,,,,,,,,0,,,64,90
94400,note_on,0,0,1,,,,,,,,,,,,,,0,,,61,90
94400,note_on,20,0,1,,,,,,,,,,,,,,0,,,55,90
94400,note_on,0,0,1,,,,,,,,,,,,,,0,,,64,90
94540,note_off,140,0,1,,,,,,,,,,,,,,0,,,55,64
94540,note_off,0,0,1,,,,,,,,,,,,,,0,,,55,64
94540,note_off,0,0,1,,,,,,,,,,,,,,0,,,61,64
94540,note_off,0,0,1,,,,,,,,,,,,,,0,,,61,64
94540,note_off,0,0,1,,,,,,,,,,,,,,0,,,58,64
94540,note_off,0,0,1,,,,,,,,,,,,,,0,,,58,64
94540,note_off,0,0,1,,,,,,,,,,,,,,0,,,64,64
94540,note_off,0,0,1,,,,,,,,,,,,,,0,,,64,64
94560,note_on,0,0,1,,,,,,,,,,,,,,0,,,58,90
94560,note_on,0,0,1,,,,,,,,,,,,,,0,,,61,90
94560,note_on,0,0,1,,,,,,,,,,,,,,0,,,64,90
94560,note_on,0,0,1,,,,,,,,,,,,,,0,,,58,90
94560,note_on,20,0,1,,,,,,,,,,,,,,0,,,64,90
94560,note_on,0,0,1,,,,,,,,,,,,,,0,,,55,90
94560,note_on,0,0,1,,,,,,,,,,,,,,0,,,55,90
94560,note_on,0,0,1,,,,,,,,,,,,,,0,,,61,90
94700,note_off,140,0,1,,,,,,,,,,,,,,0,,,64,64
94700,note_off,0,0,1,,,,,,,,,,,,,,0,,,55,64
94700,note_off,0,0,1,,,,,,,,,,,,,,0,,,55,64
94700,note_off,0,0,1,,,,,,,,,,,,,,0,,,58,64
94700,note_off,0,0,1,,,,,,,,,,,,,,0,,,58,64
94700,note_off,0,0,1,,,,,,,,,,,,,,0,,,61,64
94700,note_off,0,0,1,,,,,,,,,,,,,,0,,,61,64
94700,note_off,0,0,1,,,,,,,,,,,,,,0,,,64,64
94720,note_on,0,0,1,,,,,,,,,,,,,,0,,,64,90
94720,note_on,0,0,1,,,,,,,,,,,,,,0,,,58,90
94720,note_on,0,0,1,,,,,,,,,,,,,,0,,,61,90
94720,note_on,0,0,1,,,,,,,,,,,,,,0,,,61,90
94720,note_on,20,0,1,,,,,,,,,,,,,,0,,,64,90
94720,note_on,0,0,1,,,,,,,,,,,,,,0,,,55,90
94720,note_on,0,0,1,,,,,,,,,,,,,,0,,,55,90
94720,note_on,0,0,1,,,,,,,,,,,,,,0,,,58,90
94860,note_off,0,0,1,,,,,,,,,,,,,,0,,,64,64
94860,note_off,0,0,1,,,,,,,,,,,,,,0,,,61,64
94860,note_off,0,0,1,,,,,,,,,,,,,,0,,,58,64
94860,note_off,0,0,1,,,,,,,,,,,,,,0,,,58,64
94860,note_off,140,0,1,,,,,,,,,,,,,,0,,,64,64
94860,note_off,0,0,1,,,,,,,,,,,,,,0,,,55,64
94860,note_off,0,0,1,,,,,,,,,,,,,,0,,,55,64
94860,note_off,0,0,1,,,,,,,,,,,,,,0,,,61,64
94880,note_on,20,0,1,,,,,,,,,,,,,,0,,,64,90
94880,note_on,0,0,1,,,,,,,,,,,,,,0,,,55,90
94880,note_on,0,0,1,,,,,,,,,,,,,,0,,,55,90
94880,note_on,0,0,1,,,,,,,,,,,,,,0,,,58,90
94880,note_on,0,0,1,,,,,,,,,,,,,,0,,,58,90
94880,note_on,0,0,1,,,,,,,,,,,,,,0,,,61,90
94880,note_on,0,0,1,,,,,,,,,,,,,,0,,,61,90
94880,note_on,0,0,1,,,,,,,,,,,,,,0,,,64,90
95020,note_off,0,0,1,,,,,,,,,,,,,,0,,,61,64
95020,note_off,0,0,1,,,,,,,,,,,,,,0,,,64,64
95020,note_off,0,0,1,,,,,,,,,,,,,,0,,,58,64
95020,note_off,0,0,1,,,,,,,,,,,,,,0,,,58,64
95020,note_off,140,0,1,,,,,,,,,,,,,,0,,,64,64
95020,note_off,0,0,1,,,,,,,,,,,,,,0,,,55,64
95020,note_off,0,0,1,,,,,,,,,,,,,,0,,,55,64
95020,note_off,0,0,1,,,,,,,,,,,,,,0,,,61,64
95040,note_on,0,0,1,,,,,,,,,,,,,,0,,,61,90
95040,note_on,0,0,1,,,,,,,,,,,,,,0,,,64,90
95040,note_on,0,0,1,,,,,,,,,,,,,,0,,,58,90
95040,note_on,0,0,1,,,,,,,,,,,,,,0,,,58,90
95040,note_on,0,0,1,,,,,,,,,,,,,,0,,,55,90
95040,note_on,0,0,1,,,,,,,,,,,,,,0,,,55,90
95040,note_on,20,0,1,,,,,,,,,,,,,,0,,,64,90
95040,note_on,0,0,1,,,,,,,,,,,,,,0,,,61,90
95180,note_off,140,0,1,,,,,,,,,,,,,,0,,,64,64
95180,note_off,0,0,1,,,,,,,,,,,,,,0,,,58,64
95180,note_off,0,0,1,,,,,,,,,,,,,,0,,,55,64
95180,note_off,0,0,1,,,,,,,,,,,,,,0,,,58,64
95180,note_off,0,0,1,,,,,,,,,,,,,,0,,,61,64
95180,note_off,0,0,1,,,,,,,,,,,,,,0,,,55,64
95180,note_off,0,0,1,,,,,,,,,,,,,,0,,,64,64
95180,note_off,0,0,1,,,,,,,,,,,,,,0,,,61,64
95200,note_on,20,0,1,,,,,,,,,,,,,,0,,,55,90
95200,note_on,0,0,1,,,,,,,,,,,,,,0,,,64,90
95200,note_on,0,0,1,,,,,,,,,,,,,,0,,,64,90
95200,note_on,0,0,1,,,,,,,,,,,,,,0,,,58,90
95200,note_on,0,0,1,,,,,,,,,,,,,,0,,,58,90
95200,note_on,0,0,1,,,,,,,,,,,,,,0,,,61,90
95200,note_on,0,0,1,,,,,,,,,,,,,,0,,,61,90
95200,note_on,0,0,1,,,,,,,,,,,,,,0,,,55,90
95340,note_off,0,0,1,,,,,,,,,,,,,,0,,,55,64
95340,note_off,0,0,1,,,,,,,,,,,,,,0,,,61,64
95340,note_off,0,0,1,,,,,,,,,,,,,,0,,,58,64
95340,note_off,0,0,1,,,,,,,,,,,,,,0,,,61,64
95340,note_off,0,0,1,,,,,,,,,,,,,,0,,,64,64
95340,note_off,0,0,1,,,,,,,,,,,,,,0,,,64,64
95340,note_off,140,0,1,,,,,,,,,,,,,,0,,,55,64
95340,note_off,0,0,1,,,,,,,,,,,,,,0,,,58,64
95360,note_on,20,0,1,,,,,,,,,,,,,,0,,,55,90
95360,note_on,0,0,1,,,,,,,,,,,,,,0,,,64,90
95360,note_on,0,0,1,,,,,,,,,,,,,,0,,,64,90
95360,note_on,0,0,1,,,,,,,,,,,,,,0,,,58,90
95360,note_on,0,0,1,,,,,,,,,,,,,,0,,,58,90
95360,note_on,0,0,1,,,,,,,,,,,,,,0,,,61,90
95360,note_on,0,0,1,,,,,,,,,,,,,,0,,,61,90
95360,note_on,0,0,1,,,,,,,,,,,,,,0,,,55,90
95500,note_off,0,0,1,,,,,,,,,,,,,,0,,,61,64
95500,note_off,0,0,1,,,,,,,,,,,,,,0,,,55,64
95500,note_off,0,0,1,,,,,,,,,,,,,,0,,,61,64
95500,note_off,0,0,1,,,,,,,,,,,,,,0,,,58,64
95500,note_off,0,0,1,,,,,,,,,,,,,,0,,,64,64
95500,note_off,0,0,1,,,,,,,,,,,,,,0,,,64,64
95500,note_off,140,0,1,,,,,,,,,,,,,,0,,,55,64
95500,note_off,0,0,1,,,,,,,,,,,,,,0,,,58,64
95520,note_on,0,0,1,,,,,,,,,,,,,,0,,,61,90
95520,note_on,0,0,1,,,,,,,,,,,,,,0,,,64,90
95520,note_off,1440,0,4,,,,,,,,,,,,,,3,,,73,64
95520,note_on,0,0,4,,,,,,,,,,,,,,3,,,70,90
95520,note_on,0,0,1,,,,,,,,,,,,,,0,,,55,90
95520,note_on,0,0,1,,,,,,,,,,,,,,0,,,58,90
95520,note_on,20,0,1,,,,,,,,,,,,,,0,,,64,90
95520,note_on,0,0,1,,,,,,,,,,,,,,0,,,55,90
95520,note_on,0,0,1,,,,,,,,,,,,,,0,,,58,90
95520,note_on,0,0,1,,,,,,,,,,,,,,0,,,61,90
95660,note_off,140,0,1,,,,,,,,,,,,,,0,,,64,64
95660,note_off,0,0,1,,,,,,,,,,,,,,0,,,55,64
95660,note_off,0,0,1,,,,,,,,,,,,,,0,,,55,64
95660,note_off,0,0,1,,,,,,,,,,,,,,0,,,58,64
95660,note_off,0,0,1,,,,,,,,,,,,,,0,,,58,64
95660,note_off,0,0,1,,,,,,,,,,,,,,0,,,61,64
95660,note_off,0,0,1,,,,,,,,,,,,,,0,,,61,64
95660,note_off,0,0,1,,,,,,,,,,,,,,0,,,64,64
95680,note_on,20,0,1,,,,,,,,,,,,,,0,,,64,90
95680,note_on,0,0,1,,,,,,,,,,,,,,0,,,55,90
95680,note_on,0,0,1,,,,,,,,,,,,,,0,,,55,90
95680,note_on,0,0,1,,,,,,,,,,,,,,0,,,58,90
95680,note_on,0,0,1,,,,,,,,,,,,,,0,,,61,90
95680,note_on,0,0,1,,,,,,,,,,,,,,0,,,64,90
95680,note_on,0,0,1,,,,,,,,,,,,,,0,,,58,90
95680,note_on,0,0,1,,,,,,,,,,,,,,0,,,61,90
95820,note_off,140,0,1,,,,,,,,,,,,,,0,,,64,64
95820,note_off,0,0,1,,,,,,,,,,,,,,0,,,55,64
95820,note_off,0,0,1,,,,,,,,,,,,,,0,,,55,64
95820,note_off,0,0,1,,,,,,,,,,,,,,0,,,58,64
95820,note_off,0,0,1,,,,,,,,,,,,,,0,,,58,64
95820,note_off,0,0,1,,,,,,,,,,,,,,0,,,61,64
95820,note_off,0,0,1,,,,,,,,,,,,,,0,,,61,64
95820,note_off,0,0,1,,,,,,,,,,,,,,0,,,64,64
95840,note_on,0,0,1,,,,,,,,,,,,,,0,,,61,90
95840,note_on,0,0,1,,,,,,,,,,,,,,0,,,64,90
95840,note_on,20,0,1,,,,,,,,,,,,,,0,,,64,90
95840,note_on,0,0,1,,,,,,,,,,,,,,0,,,55,90
95840,note_on,0,0,1,,,,,,,,,,,,,,0,,,55,90
95840,note_on,0,0,1,,,,,,,,,,,,,,0,,,58,90
95840,note_on,0,0,1,,,,,,,,,,,,,,0,,,58,90
95840,note_on,0,0,1,,,,,,,,,,,,,,0,,,61,90
95980,note_off,0,0,1,,,,,,,,,,,,,,0,,,64,64
95980,note_off,0,0,1,,,,,,,,,,,,,,0,,,61,64
95980,note_off,0,0,1,,,,,,,,,,,,,,0,,,58,64
95980,note_off,0,0,1,,,,,,,,,,,,,,0,,,55,64
95980,note_off,0,0,1,,,,,,,,,,,,,,0,,,61,64
95980,note_off,0,0,1,,,,,,,,,,,,,,0,,,58,64
95980,note_off,140,0,1,,,,,,,,,,,,,,0,,,64,64
95980,note_off,0,0,1,,,,,,,,,,,,,,0,,,55,64
96000,note_on,0,0,1,,,,,,,,,,,,,,0,,,53,90
96000,note_on,20,0,1,,,,,,,,,,,,,,0,,,65,90
96000,note_on,0,0,1,,,,,,,,,,,,,,0,,,57,90
96000,note_on,0,0,4,,,,,,,,,,,,,,3,,,77,90
96000,note_off,480,0,4,,,,,,,,,,,,,,3,,,70,64
96000,note_off,2880,0,2,,,,,,,,,,,,,,1,,,53,64
96000,note_on,0,0,2,,,,,,,,,,,,,,1,,,29,90
96000,note_on,0,0,1,,,,,,,,,,,,,,0,,,60,90
96140,note_off,140,0,1,,,,,,,,,,,,,,0,,,65,64
96140,note_off,0,0,1,,,,,,,,,,,,,,0,,,53,64
96140,note_off,0,0,1,,,,,,,,,,,,,,0,,,57,64
96140,note_off,0,0,1,,,,,,,,,,,,,,0,,,60,64
96160,note_on,20,0,1,,,,,,,,,,,,,,0,,,53,90
96160,note_on,0,0,1,,,,,,,,,,,,,,0,,,65,90
96160,note_off,160,0,2,,,,,,,,,,,,,,1,,,29,64
96160,note_on,0,0,2,,,,,,,,,,,,,,1,,,33,90
96300,note_off,0,0,1,,,,,,,,,,,,,,0,,,65,64
96300,note_off,140,0,1,,,,,,,,,,,,,,0,,,53,64
96320,note_on,20,0,1,,,,,,,,,,,,,,0,,,53,90
96320,note_on,0,0,1,,,,,,,,,,,,,,0,,,65,90
96320,note_off,160,0,2,,,,,,,,,,,,,,1,,,33,64
96320,note_on,0,0,2,,,,,,,,,,,,,,1,,,34,90
96460,note_off,140,0,1,,,,,,,,,,,,,,0,,,53,64
96460,note_off,0,0,1,,,,,,,,,,,,,,0,,,65,64
96480,note_on,20,0,1,,,,,,,,,,,,,,0,,,65,90
96480,note_on,0,0,1,,,,,,,,,,,,,,0,,,53,90
96480,note_on,0,0,2,,,,,,,,,,,,,,1,,,36,90
96480,note_off,160,0,2,,,,,,,,,,,,,,1,,,34,64
96620,note_off,0,0,1,,,,,,,,,,,,,,0,,,53,64
96620,note_off,140,0,1,,,,,,,,,,,,,,0,,,65,64
96640,note_on,0,0,1,,,,,,,,,,,,,,0,,,53,90
96640,note_on,20,0,1,,,,,,,,,,,,,,0,,,65,90
96640,note_off,160,0,2,,,,,,,,,,,,,,1,,,36,64
96640,note_on,0,0,2,,,,,,,,,,,,,,1,,,38,90
96780,note_off,0,0,1,,,,,,,,,,,,,,0,,,53,64
96780,note_off,140,0,1,,,,,,,,,,,,,,0,,,65,64
96800,note_on,0,0,1,,,,,,,,,,,,,,0,,,53,90
96800,note_on,20,0,1,,,,,,,,,,,,,,0,,,65,90
96800,note_on,0,0,2,,,,,,,,,,,,,,1,,,40,90
96800,note_off,160,0,2,,,,,,,,,,,,,,1,,,38,64
96940,note_off,0,0,1,,,,,,,,,,,,,,0,,,53,64
96940,note_off,140,0,1,,,,,,,,,,,,,,0,,,65,64
96960,note_on,0,0,2,,,,,,,,,,,,,,1,,,41,90
96960,note_on,0,0,1,,,,,,,,,,,,,,0,,,53,90
96960,note_off,160,0,2,,,,,,,,,,,,,,1,,,40,64
96960,note_on,20,0,1,,,,,,,,,,,,,,0,,,65,90
97100,note_off,140,0,1,,,,,,,,,,,,,,0,,,65,64
97100,note_off,0,0,1,,,,,,,,,,,,,,0,,,53,64
97120,note_on,0,0,1,,,,,,,,,,,,,,0,,,65,90
97120,note_on,20,0,1,,,,,,,,,,,,,,0,,,53,90
97260,note_off,0,0,1,,,,,,,,,,,,,,0,,,65,64
97260,note_off,140,0,1,,,,,,,,,,,,,,0,,,53,64
97280,note_on,0,0,1,,,,,,,,,,,,,,0,,,65,90
97280,note_on,20,0,1,,,,,,,,,,,,,,0,,,53,90
97420,note_off,0,0,1,,,,,,,,,,,,,,0,,,65,64
97420,note_off,140,0,1,,,,,,,,,,,,,,0,,,53,64
97440,note_on,20,0,1,,,,,,,,,,,,,,0,,,65,90
97440,note_off,1440,0,4,,,,,,,,,,,,,,3,,,77,64
97440,note_on,0,0,1,,,,,,,,,,,,,,0,,,53,90
97560,control_change,19390,0,3,,,,,,,,,,,,,,2,11,110,,
97580,note_off,0,0,1,,,,,,,,,,,,,,0,,,53,64
97580,note_off,140,0,1,,,,,,,,,,,,,,0,,,65,64
97600,note_on,0,0,1,,,,,,,,,,,,,,0,,,53,90
97600,note_on,20,0,1,,,,,,,,,,,,,,0,,,65,90
97630,control_change,190,0,4,,,,,,,,,,,,,,3,11,112,,
97740,note_off,140,0,1,,,,,,,,,,,,,,0,,,65,64
97740,note_off,0,0,1,,,,,,,,,,,,,,0,,,53,64
97760,note_on,20,0,1,,,,,,,,,,,,,,0,,,65,90
97760,note_on,0,0,1,,,,,,,,,,,,,,0,,,53,90
97900,note_off,0,0,1,,,,,,,,,,,,,,0,,,53,64
97900,note_off,140,0,1,,,,,,,,,,,,,,0,,,65,64
97920,note_on,0,0,1,,,,,,,,,,,,,,0,,,53,90
97920,note_on,20,0,1,,,,,,,,,,,,,,0,,,65,90
98060,note_off,140,0,1,,,,,,,,,,,,,,0,,,65,64
98060,note_off,0,0,1,,,,,,,,,,,,,,0,,,53,64
98080,note_on,20,0,1,,,,,,,,,,,,,,0,,,53,90
98080,note_on,0,0,1,,,,,,,,,,,,,,0,,,65,90
98220,note_off,0,0,1,,,,,,,,,,,,,,0,,,65,64
98220,note_off,140,0,1,,,,,,,,,,,,,,0,,,53,64
98240,note_on,0,0,1,,,,,,,,,,,,,,0,,,65,90
98240,note_on,20,0,1,,,,,,,,,,,,,,0,,,53,90
98380,note_off,0,0,1,,,,,,,,,,,,,,0,,,65,64
98380,note_off,140,0,1,,,,,,,,,,,,,,0,,,53,64
98400,note_on,20,0,1,,,,,,,,,,,,,,0,,,65,90
98400,note_on,0,0,1,,,,,,,,,,,,,,0,,,53,90
98540,note_off,140,0,1,,,,,,,,,,,,,,0,,,65,64
98540,note_off,0,0,1,,,,,,,,,,,,,,0,,,53,64
98560,note_on,0,0,1,,,,,,,,,,,,,,0,,,53,90
98560,note_on,20,0,1,,,,,,,,,,,,,,0,,,65,90
98700,note_off,140,0,1,,,,,,,,,,,,,,0,,,65,64
98700,note_off,0,0,1,,,,,,,,,,,,,,0,,,53,64
98720,note_on,0,0,1,,,,,,,,,,,,,,0,,,53,90
98720,note_on,20,0,1,,,,,,,,,,,,,,0,,,65,90
98860,note_off,140,0,1,,,,,,,,,,,,,,0,,,65,64
98860,note_off,0,0,1,,,,,,,,,,,,,,0,,,53,64
98880,note_on,20,0,1,,,,,,,,,,,,,,0,,,65,90
98880,note_on,0,0,1,,,,,,,,,,,,,,0,,,53,90
99020,note_off,140,0,1,,,,,,,,,,,,,,0,,,65,64
99020,note_off,0,0,1,,,,,,,,,,,,,,0,,,53,64
99040,note_on,0,0,1,,,,,,,,,,,,,,0,,,65,90
99040,note_on,20,0,1,,,,,,,,,,,,,,0,,,53,90
99180,note_off,140,0,1,,,,,,,,,,,,,,0,,,53,64
99180,note_off,0,0,1,,,,,,,,,,,,,,0,,,65,64
99200,note_on,20,0,1,,,,,,,,,,,,,,0,,,53,90
99200,note_on,0,0,1,,,,,,,,,,,,,,0,,,65,90
99340,note_off,140,0,1,,,,,,,,,,,,,,0,,,53,64
99340,note_off,0,0,1,,,,,,,,,,,,,,0,,,65,64
99360,note_on,1800,0,3,,,,,,,,,,,,,,2,,,60,90
99360,note_on,20,0,1,,,,,,,,,,,,,,0,,,65,90
99360,note_on,0,0,1,,,,,,,,,,,,,,0,,,53,90
99500,note_off,140,0,1,,,,,,,,,,,,,,0,,,65,64
99500,note_off,0,0,1,,,,,,,,,,,,,,0,,,53,64
99520,note_on,20,0,1,,,,,,,,,,,,,,0,,,65,90
99520,note_on,0,0,1,,,,,,,,,,,,,,0,,,53,90
99660,note_off,0,0,1,,,,,,,,,,,,,,0,,,53,64
99660,note_off,140,0,1,,,,,,,,,,,,,,0,,,65,64
99680,note_on,20,0,1,,,,,,,,,,,,,,0,,,65,90
99680,note_on,0,0,1,,,,,,,,,,,,,,0,,,53,90
99820,note_off,140,0,1,,,,,,,,,,,,,,0,,,65,64
99820,note_off,0,0,1,,,,,,,,,,,,,,0,,,53,64
99840,note_off,480,0,3,,,,,,,,,,,,,,2,,,60,64
99840,note_on,0,0,3,,,,,,,,,,,,,,2,,,63,90
99840,note_off,2880,0,2,,,,,,,,,,,,,,1,,,41,64
99840,note_on,20,0,1,,,,,,,,,,,,,,0,,,65,90
99840,note_on,0,0,1,,,,,,,,,,,,,,0,,,53,90
99980,note_off,140,0,1,,,,,,,,,,,,,,0,,,65,64
99980,note_off,0,0,1,,,,,,,,,,,,,,0,,,53,64
100000,note_on,20,0,1,,,,,,,,,,,,,,0,,,53,90
100000,note_on,0,0,1,,,,,,,,,,,,,,0,,,65,90
100140,note_off,0,0,1,,,,,,,,,,,,,,0,,,65,64
100140,note_off,140,0,1,,,,,,,,,,,,,,0,,,53,64
100160,note_on,0,0,1,,,,,,,,,,,,,,0,,,65,90
100160,note_on,20,0,1,,,,,,,,,,,,,,0,,,53,90
100300,note_off,140,0,1,,,,,,,,,,,,,,0,,,53,64
100300,note_off,0,0,1,,,,,,,,,,,,,,0,,,65,64
100320,note_on,20,0,1,,,,,,,,,,,,,,0,,,65,90
100320,note_on,0,0,1,,,,,,,,,,,,,,0,,,53,90
100460,note_off,140,0,1,,,,,,,,,,,,,,0,,,65,64
100460,note_off,0,0,1,,,,,,,,,,,,,,0,,,53,64
100480,note_on,0,0,1,,,,,,,,,,,,,,0,,,53,90
100480,note_on,20,0,1,,,,,,,,,,,,,,0,,,65,90
100620,note_off,0,0,1,,,,,,,,,,,,,,0,,,53,64
100620,note_off,140,0,1,,,,,,,,,,,,,,0,,,65,64
100640,note_on,0,0,1,,,,,,,,,,,,,,0,,,53,90
100640,note_on,20,0,1,,,,,,,,,,,,,,0,,,65,90
100780,note_off,140,0,1,,,,,,,,,,,,,,0,,,65,64
100780,note_off,0,0,1,,,,,,,,,,,,,,0,,,53,64
100800,note_on,20,0,1,,,,,,,,,,,,,,0,,,65,90
100800,note_on,0,0,1,,,,,,,,,,,,,,0,,,53,90
100940,note_off,140,0,1,,,,,,,,,,,,,,0,,,65,64
100940,note_off,0,0,1,,,,,,,,,,,,,,0,,,53,64
100960,note_on,20,0,1,,,,,,,,,,,,,,0,,,53,90
100960,note_on,0,0,1,,,,,,,,,,,,,,0,,,65,90
101100,note_off,140,0,1,,,,,,,,,,,,,,0,,,53,64
101100,note_off,0,0,1,,,,,,,,,,,,,,0,,,65,64
101120,note_on,20,0,1,,,,,,,,,,,,,,0,,,53,90
101120,note_on,0,0,1,,,,,,,,,,,,,,0,,,65,90
101260,note_off,140,0,1,,,,,,,,,,,,,,0,,,53,64
101260,note_off,0,0,1,,,,,,,,,,,,,,0,,,65,64
101280,note_on,0,0,3,,,,,,,,,,,,,,2,,,63,90
101280,note_on,0,0,1,,,,,,,,,,,,,,0,,,53,90
101280,note_on,20,0,1,,,,,,,,,,,,,,0,,,65,90
101280,note_off,1440,0,3,,,,,,,,,,,,,,2,,,63,64
101420,note_off,140,0,1,,,,,,,,,,,,,,0,,,65,64
101420,note_off,0,0,1,,,,,,,,,,,,,,0,,,53,64
101440,note_on,20,0,1,,,,,,,,,,,,,,0,,,65,90
101440,note_on,0,0,1,,,,,,,,,,,,,,0,,,53,90
101580,note_off,140,0,1,,,,,,,,,,,,,,0,,,65,64
101580,note_off,0,0,1,,,,,,,,,,,,,,0,,,53,64
101600,note_on,20,0,1,,,,,,,,,,,,,,0,,,65,90
101600,note_on,0,0,1,,,,,,,,,,,,,,0,,,53,90
101740,note_off,140,0,1,,,,,,,,,,,,,,0,,,65,64
101740,note_off,0,0,1,,,,,,,,,,,,,,0,,,53,64
101760,note_on,0,0,1,,,,,,,,,,,,,,0,,,53,90
101760,note_on,20,0,1,,,,,,,,,,,,,,0,,,65,90
101760,note_on,0,0,3,,,,,,,,,,,,,,2,,,65,90
101760,note_off,480,0,3,,,,,,,,,,,,,,2,,,63,64
101900,note_off,140,0,1,,,,,,,,,,,,,,0,,,65,64
101900,note_off,0,0,1,,,,,,,,,,,,,,0,,,53,64
101920,note_on,0,0,1,,,,,,,,,,,,,,0,,,65,90
101920,note_on,20,0,1,,,,,,,,,,,,,,0,,,53,90
102060,note_off,140,0,1,,,,,,,,,,,,,,0,,,53,64
102060,note_off,0,0,1,,,,,,,,,,,,,,0,,,65,64
102080,note_on,20,0,1,,,,,,,,,,,,,,0,,,53,90
102080,note_on,0,0,1,,,,,,,,,,,,,,0,,,65,90
102220,note_off,140,0,1,,,,,,,,,,,,,,0,,,53,64
102220,note_off,0,0,1,,,,,,,,,,,,,,0,,,65,64
102240,note_on,20,0,1,,,,,,,,,,,,,,0,,,65,90
102240,note_on,0,0,1,,,,,,,,,,,,,,0,,,53,90
102380,note_off,0,0,1,,,,,,,,,,,,,,0,,,53,64
102380,note_off,140,0,1,,,,,,,,,,,,,,0,,,65,64
102400,note_on,20,0,1,,,,,,,,,,,,,,0,,,65,90
102400,note_on,0,0,1,,,,,,,,,,,,,,0,,,53,90
102540,note_off,140,0,1,,,,,,,,,,,,,,0,,,65,64
102540,note_off,0,0,1,,,,,,,,,,,,,,0,,,53,64
102560,note_on,0,0,1,,,,,,,,,,,,,,0,,,53,90
102560,note_on,20,0,1,,,,,,,,,,,,,,0,,,65,90
102700,note_off,0,0,1,,,,,,,,,,,,,,0,,,53,64
102700,note_off,140,0,1,,,,,,,,,,,,,,0,,,65,64
102720,note_on,20,0,1,,,,,,,,,,,,,,0,,,65,90
102720,note_on,0,0,1,,,,,,,,,,,,,,0,,,53,90
102860,note_off,140,0,1,,,,,,,,,,,,,,0,,,65,64
102860,note_off,0,0,1,,,,,,,,,,,,,,0,,,53,64
102880,note_on,20,0,1,,,,,,,,,,,,,,0,,,53,90
102880,note_on,0,0,1,,,,,,,,,,,,,,0,,,65,90
103020,note_off,140,0,1,,,,,,,,,,,,,,0,,,53,64
103020,note_off,0,0,1,,,,,,,,,,,,,,0,,,65,64
103040,note_on,0,0,1,,,,,,,,,,,,,,0,,,65,90
103040,note_on,20,0,1,,,,,,,,,,,,,,0,,,53,90
103180,note_off,140,0,1,,,,,,,,,,,,,,0,,,53,64
103180,note_off,0,0,1,,,,,,,,,,,,,,0,,,65,64
103200,note_on,0,0,3,,,,,,,,,,,,,,2,,,60,90
103200,note_off,1440,0,3,,,,,,,,,,,,,,2,,,65,64
103200,note_on,0,0,1,,,,,,,,,,,,,,0,,,53,90
103200,note_on,20,0,1,,,,,,,,,,,,,,0,,,65,90
103340,note_off,140,0,1,,,,,,,,,,,,,,0,,,65,64
103340,note_off,0,0,1,,,,,,,,,,,,,,0,,,53,64
103360,note_on,20,0,1,,,,,,,,,,,,,,0,,,65,90
103360,note_on,0,0,1,,,,,,,,,,,,,,0,,,53,90
103500,note_off,140,0,1,,,,,,,,,,,,,,0,,,65,64
103500,note_off,0,0,1,,,,,,,,,,,,,,0,,,53,64
103520,note_on,20,0,1,,,,,,,,,,,,,,0,,,65,90
103520,note_on,0,0,1,,,,,,,,,,,,,,0,,,53,90
103660,note_off,140,0,1,,,,,,,,,,,,,,0,,,65,64
103660,note_off,0,0,1,,,,,,,,,,,,,,0,,,53,64
103680,note_off,480,0,3,,,,,,,,,,,,,,2,,,60,64
103680,note_on,3840,0,2,,,,,,,,,,,,,,1,,,46,90
103680,note_on,0,0,3,,,,,,,,,,,,,,2,,,63,90
103680,note_on,20,0,1,,,,,,,,,,,,,,0,,,62,90
103680,note_on,0,0,1,,,,,,,,,,,,,,0,,,53,90
103680,note_on,0,0,1,,,,,,,,,,,,,,0,,,65,90
103820,note_off,140,0,1,,,,,,,,,,,,,,0,,,62,64
103820,note_off,0,0,1,,,,,,,,,,,,,,0,,,53,64
103820,note_off,0,0,1,,,,,,,,,,,,,,0,,,65,64
103840,note_on,0,0,1,,,,,,,,,,,,,,0,,,65,90
103840,note_on,20,0,1,,,,,,,,,,,,,,0,,,53,90
103840,note_on,0,0,1,,,,,,,,,,,,,,0,,,62,90
103980,note_off,140,0,1,,,,,,,,,,,,,,0,,,53,64
103980,note_off,0,0,1,,,,,,,,,,,,,,0,,,65,64
103980,note_off,0,0,1,,,,,,,,,,,,,,0,,,62,64
104000,note_on,0,0,1,,,,,,,,,,,,,,0,,,65,90
104000,note_on,0,0,1,,,,,,,,,,,,,,0,,,62,90
104000,note_on,20,0,1,,,,,,,,,,,,,,0,,,53,90
104140,note_off,140,0,1,,,,,,,,,,,,,,0,,,53,64
104140,note_off,0,0,1,,,,,,,,,,,,,,0,,,65,64
104140,note_off,0,0,1,,,,,,,,,,,,,,0,,,62,64
104160,note_on,0,0,1,,,,,,,,,,,,,,0,,,53,90
104160,note_on,20,0,1,,,,,,,,,,,,,,0,,,62,90
104160,note_on,0,0,1,,,,,,,,,,,,,,0,,,65,90
104300,note_off,0,0,1,,,,,,,,,,,,,,0,,,65,64
104300,note_off,0,0,1,,,,,,,,,,,,,,0,,,53,64
104300,note_off,140,0,1,,,,,,,,,,,,,,0,,,62,64
104320,note_on,0,0,1,,,,,,,,,,,,,,0,,,53,90
104320,note_on,20,0,1,,,,,,,,,,,,,,0,,,62,90
104320,note_on,0,0,1,,,,,,,,,,,,,,0,,,65,90
104400,note_off,720,0,3,,,,,,,,,,,,,,2,,,63,64
104400,note_on,0,0,3,,,,,,,,,,,,,,2,,,62,90
104460,note_off,0,0,1,,,,,,,,,,,,,,0,,,65,64
104460,note_off,0,0,1,,,,,,,,,,,,,,0,,,53,64
104460,note_off,140,0,1,,,,,,,,,,,,,,0,,,62,64
104480,note_on,0,0,1,,,,,,,,,,,,,,0,,,65,90
104480,note_on,0,0,1,,,,,,,,,,,,,,0,,,53,90
104480,note_on,20,0,1,,,,,,,,,,,,,,0,,,62,90
104620,note_off,0,0,1,,,,,,,,,,,,,,0,,,65,64
104620,note_off,140,0,1,,,,,,,,,,,,,,0,,,62,64
104620,note_off,0,0,1,,,,,,,,,,,,,,0,,,53,64
104640,note_off,240,0,3,,,,,,,,,,,,,,2,,,62,64
104640,note_on,0,0,3,,,,,,,,,,,,,,2,,,62,90
104640,note_on,0,0,1,,,,,,,,,,,,,,0,,,53,90
104640,note_on,20,0,1,,,,,,,,,,,,,,0,,,62,90
104640,note_on,0,0,1,,,,,,,,,,,,,,0,,,65,90
104780,note_off,0,0,1,,,,,,,,,,,,,,0,,,65,64
104780,note_off,0,0,1,,,,,,,,,,,,,,0,,,53,64
104780,note_off,140,0,1,,,,,,,,,,,,,,0,,,62,64
104800,note_on,0,0,1,,,,,,,,,,,,,,0,,,65,90
104800,note_on,0,0,1,,,,,,,,,,,,,,0,,,62,90
104800,note_on,20,0,1,,,,,,,,,,,,,,0,,,53,90
104940,note_off,0,0,1,,,,,,,,,,,,,,0,,,65,64
104940,note_off,0,0,1,,,,,,,,,,,,,,0,,,62,64
104940,note_off,140,0,1,,,,,,,,,,,,,,0,,,53,64
104960,note_on,0,0,1,,,,,,,,,,,,,,0,,,65,90
104960,note_on,0,0,1,,,,,,,,,,,,,,0,,,62,90
104960,note_on,20,0,1,,,,,,,,,,,,,,0,,,53,90
105100,note_off,0,0,1,,,,,,,,,,,,,,0,,,65,64
105100,note_off,0,0,1,,,,,,,,,,,,,,0,,,62,64
105100,note_off,140,0,1,,,,,,,,,,,,,,0,,,53,64
105120,note_on,0,0,1,,,,,,,,,,,,,,0,,,53,90
105120,note_on,20,0,1,,,,,,,,,,,,,,0,,,62,90
105120,note_on,0,0,1,,,,,,,,,,,,,,0,,,65,90
105260,note_off,140,0,1,,,,,,,,,,,,,,0,,,62,64
105260,note_off,0,0,1,,,,,,,,,,,,,,0,,,53,64
105260,note_off,0,0,1,,,,,,,,,,,,,,0,,,65,64
105280,note_on,0,0,1,,,,,,,,,,,,,,0,,,53,90
105280,note_on,0,0,1,,,,,,,,,,,,,,0,,,65,90
105280,note_on,20,0,1,,,,,,,,,,,,,,0,,,62,90
105420,note_off,0,0,1,,,,,,,,,,,,,,0,,,53,64
105420,note_off,140,0,1,,,,,,,,,,,,,,0,,,62,64
105420,note_off,0,0,1,,,,,,,,,,,,,,0,,,65,64
105440,note_on,0,0,1,,,,,,,,,,,,,,0,,,53,90
105440,note_on,0,0,1,,,,,,,,,,,,,,0,,,65,90
105440,note_on,20,0,1,,,,,,,,,,,,,,0,,,62,90
105580,note_off,0,0,1,,,,,,,,,,,,,,0,,,53,64
105580,note_off,140,0,1,,,,,,,,,,,,,,0,,,62,64
105580,note_off,0,0,1,,,,,,,,,,,,,,0,,,65,64
105600,note_off,1920,0,2,,,,,,,,,,,,,,1,,,46,64
105600,note_off,960,0,3,,,,,,,,,,,,,,2,,,62,64
105600,note_on,20,0,1,,,,,,,,,,,,,,0,,,62,90
105600,note_on,0,0,1,,,,,,,,,,,,,,0,,,53,90
105600,note_on,0,0,1,,,,,,,,,,,,,,0,,,65,90
105740,note_off,140,0,1,,,,,,,,,,,,,,0,,,62,64
105740,note_off,0,0,1,,,,,,,,,,,,,,0,,,53,64
105740,note_off,0,0,1,,,,,,,,,,,,,,0,,,65,64
105760,note_on,0,0,1,,,,,,,,,,,,,,0,,,65,90
105760,note_on,20,0,1,,,,,,,,,,,,,,0,,,53,90
105760,note_on,0,0,1,,,,,,,,,,,,,,0,,,62,90
105900,note_off,0,0,1,,,,,,,,,,,,,,0,,,65,64
105900,note_off,0,0,1,,,,,,,,,,,,,,0,,,62,64
105900,note_off,140,0,1,,,,,,,,,,,,,,0,,,53,64
105920,note_on,20,0,1,,,,,,,,,,,,,,0,,,53,90
105920,note_on,0,0,1,,,,,,,,,,,,,,0,,,62,90
105920,note_on,0,0,1,,,,,,,,,,,,,,0,,,65,90
106060,note_off,0,0,1,,,,,,,,,,,,,,0,,,62,64
106060,note_off,140,0,1,,,,,,,,,,,,,,0,,,53,64
106060,note_off,0,0,1,,,,,,,,,,,,,,0,,,65,64
106080,note_on,0,0,1,,,,,,,,,,,,,,0,,,53,90
106080,note_on,480,0,2,,,,,,,,,,,,,,1,,,46,90
106080,note_on,0,0,1,,,,,,,,,,,,,,0,,,65,90
106080,note_on,20,0,1,,,,,,,,,,,,,,0,,,62,90
106220,note_off,0,0,1,,,,,,,,,,,,,,0,,,65,64
106220,note_off,0,0,1,,,,,,,,,,,,,,0,,,53,64
106220,note_off,140,0,1,,,,,,,,,,,,,,0,,,62,64
106240,note_on,20,0,1,,,,,,,,,,,,,,0,,,62,90
106240,note_on,0,0,1,,,,,,,,,,,,,,0,,,53,90
106240,note_on,0,0,1,,,,,,,,,,,,,,0,,,65,90
106320,note_off,240,0,2,,,,,,,,,,,,,,1,,,46,64
106380,note_off,140,0,1,,,,,,,,,,,,,,0,,,62,64
106380,note_off,0,0,1,,,,,,,,,,,,,,0,,,53,64
106380,note_off,0,0,1,,,,,,,,,,,,,,0,,,65,64
106400,note_on,20,0,1,,,,,,,,,,,,,,0,,,62,90
106400,note_on,0,0,1,,,,,,,,,,,,,,0,,,53,90
106400,note_on,0,0,1,,,,,,,,,,,,,,0,,,65,90
106540,note_off,0,0,1,,,,,,,,,,,,,,0,,,65,64
106540,note_off,0,0,1,,,,,,,,,,,,,,0,,,53,64
106540,note_off,140,0,1,,,,,,,,,,,,,,0,,,62,64
106560,note_on,20,0,1,,,,,,,,,,,,,,0,,,62,90
106560,note_on,0,0,1,,,,,,,,,,,,,,0,,,53,90
106560,note_on,240,0,2,,,,,,,,,,,,,,1,,,41,90
106560,note_on,0,0,1,,,,,,,,,,,,,,0,,,65,90
106700,note_off,140,0,1,,,,,,,,,,,,,,0,,,62,64
106700,note_off,0,0,1,,,,,,,,,,,,,,0,,,53,64
106700,note_off,0,0,1,,,,,,,,,,,,,,0,,,65,64
106720,note_on,20,0,1,,,,,,,,,,,,,,0,,,53,90
106720,note_on,0,0,1,,,,,,,,,,,,,,0,,,62,90
106720,note_on,0,0,1,,,,,,,,,,,,,,0,,,65,90
106800,note_off,240,0,2,,,,,,,,,,,,,,1,,,41,64
106860,note_off,140,0,1,,,,,,,,,,,,,,0,,,53,64
106860,note_off,0,0,1,,,,,,,,,,,,,,0,,,65,64
106860,note_off,0,0,1,,,,,,,,,,,,,,0,,,62,64
106880,note_on,20,0,1,,,,,,,,,,,,,,0,,,53,90
106880,note_on,0,0,1,,,,,,,,,,,,,,0,,,62,90
106880,note_on,0,0,1,,,,,,,,,,,,,,0,,,65,90
107020,note_off,140,0,1,,,,,,,,,,,,,,0,,,53,64
107020,note_off,0,0,1,,,,,,,,,,,,,,0,,,62,64
107020,note_off,0,0,1,,,,,,,,,,,,,,0,,,65,64
107040,note_on,20,0,1,,,,,,,,,,,,,,0,,,62,90
107040,note_on,0,0,1,,,,,,,,,,,,,,0,,,53,90
107040,note_on,0,0,1,,,,,,,,,,,,,,0,,,65,90
107040,note_on,240,0,2,,,,,,,,,,,,,,1,,,38,90
107180,note_off,140,0,1,,,,,,,,,,,,,,0,,,62,64
107180,note_off,0,0,1,,,,,,,,,,,,,,0,,,53,64
107180,note_off,0,0,1,,,,,,,,,,,,,,0,,,65,64
107200,note_on,0,0,1,,,,,,,,,,,,,,0,,,65,90
107200,note_on,0,0,1,,,,,,,,,,,,,,0,,,53,90
107200,note_on,20,0,1,,,,,,,,,,,,,,0,,,62,90
107280,note_off,240,0,2,,,,,,,,,,,,,,1,,,38,64
107340,note_off,0,0,1,,,,,,,,,,,,,,0,,,65,64
107340,note_off,140,0,1,,,,,,,,,,,,,,0,,,62,64
107340,note_off,0,0,1,,,,,,,,,,,,,,0,,,53,64
107360,note_on,20,0,1,,,,,,,,,,,,,,0,,,62,90
107360,note_on,0,0,1,,,,,,,,,,,,,,0,,,53,90
107360,note_on,0,0,1,,,,,,,,,,,,,,0,,,65,90
107500,note_off,140,0,1,,,,,,,,,,,,,,0,,,62,64
107500,note_off,0,0,1,,,,,,,,,,,,,,0,,,53,64
107500,note_off,0,0,1,,,,,,,,,,,,,,0,,,65,64
107520,note_on,240,0,2,,,,,,,,,,,,,,1,,,39,90
107520,note_on,20,0,1,,,,,,,,,,,,,,0,,,60,90
107520,note_on,0,0,1,,,,,,,,,,,,,,0,,,55,90
107520,note_on,0,0,1,,,,,,,,,,,,,,0,,,63,90
107660,note_off,140,0,1,,,,,,,,,,,,,,0,,,60,64
107660,note_off,0,0,1,,,,,,,,,,,,,,0,,,55,64
107660,note_off,0,0,1,,,,,,,,,,,,,,0,,,63,64
107680,note_on,20,0,1,,,,,,,,,,,,,,0,,,55,90
107680,note_on,0,0,1,,,,,,,,,,,,,,0,,,60,90
107680,note_on,0,0,1,,,,,,,,,,,,,,0,,,63,90
107760,note_off,240,0,2,,,,,,,,,,,,,,1,,,39,64
107820,note_off,140,0,1,,,,,,,,,,,,,,0,,,55,64
107820,note_off,0,0,1,,,,,,,,,,,,,,0,,,60,64
107820,note_off,0,0,1,,,,,,,,,,,,,,0,,,63,64
107840,note_on,0,0,1,,,,,,,,,,,,,,0,,,60,90
107840,note_on,20,0,1,,,,,,,,,,,,,,0,,,55,90
107840,note_on,0,0,1,,,,,,,,,,,,,,0,,,63,90
107980,note_off,140,0,1,,,,,,,,,,,,,,0,,,55,64
107980,note_off,0,0,1,,,,,,,,,,,,,,0,,,60,64
107980,note_off,0,0,1,,,,,,,,,,,,,,0,,,63,64
108000,note_on,0,0,1,,,,,,,,,,,,,,0,,,63,90
108000,note_on,0,0,1,,,,,,,,,,,,,,0,,,55,90
108000,note_on,20,0,1,,,,,,,,,,,,,,0,,,60,90
108140,note_off,0,0,1,,,,,,,,,,,,,,0,,,55,64
108140,note_off,0,0,1,,,,,,,,,,,,,,0,,,63,64
108140,note_off,140,0,1,,,,,,,,,,,,,,0,,,60,64
108160,note_on,0,0,1,,,,,,,,,,,,,,0,,,63,90
108160,note_on,0,0,1,,,,,,,,,,,,,,0,,,55,90
108160,note_on,20,0,1,,,,,,,,,,,,,,0,,,60,90
108300,note_off,0,0,1,,,,,,,,,,,,,,0,,,63,64
108300,note_off,0,0,1,,,,,,,,,,,,,,0,,,55,64
108300,note_off,140,0,1,,,,,,,,,,,,,,0,,,60,64
108320,note_on,0,0,1,,,,,,,,,,,,,,0,,,63,90
108320,note_on,0,0,1,,,,,,,,,,,,,,0,,,55,90
108320,note_on,20,0,1,,,,,,,,,,,,,,0,,,60,90
108460,note_off,0,0,1,,,,,,,,,,,,,,0,,,63,64
108460,note_off,0,0,1,,,,,,,,,,,,,,0,,,55,64
108460,note_off,140,0,1,,,,,,,,,,,,,,0,,,60,64
108480,note_on,720,0,2,,,,,,,,,,,,,,1,,,36,90
108480,note_on,0,0,1,,,,,,,,,,,,,,0,,,55,90
108480,note_on,0,0,1,,,,,,,,,,,,,,0,,,63,90
108480,note_on,20,0,1,,,,,,,,,,,,,,0,,,60,90
108620,note_off,0,0,1,,,,,,,,,,,,,,0,,,55,64
108620,note_off,140,0,1,,,,,,,,,,,,,,0,,,60,64
108620,note_off,0,0,1,,,,,,,,,,,,,,0,,,63,64
108640,note_on,20,0,1,,,,,,,,,,,,,,0,,,55,90
108640,note_on,0,0,1,,,,,,,,,,,,,,0,,,60,90
108640,note_on,0,0,1,,,,,,,,,,,,,,0,,,63,90
108720,note_off,240,0,2,,,,,,,,,,,,,,1,,,36,64
108780,note_off,140,0,1,,,,,,,,,,,,,,0,,,55,64
108780,note_off,0,0,1,,,,,,,,,,,,,,0,,,60,64
108780,note_off,0,0,1,,,,,,,,,,,,,,0,,,63,64
108800,note_on,0,0,1,,,,,,,,,,,,,,0,,,60,90
108800,note_on,0,0,1,,,,,,,,,,,,,,0,,,63,90
108800,note_on,20,0,1,,,,,,,,,,,,,,0,,,55,90
108940,note_off,140,0,1,,,,,,,,,,,,,,0,,,55,64
108940,note_off,0,0,1,,,,,,,,,,,,,,0,,,63,64
108940,note_off,0,0,1,,,,,,,,,,,,,,0,,,60,64
108960,note_on,0,0,1,,,,,,,,,,,,,,0,,,55,90
108960,note_on,0,0,1,,,,,,,,,,,,,,0,,,63,90
108960,note_on,20,0,1,,,,,,,,,,,,,,0,,,60,90
109100,note_off,140,0,1,,,,,,,,,,,,,,0,,,60,64
109100,note_off,0,0,1,,,,,,,,,,,,,,0,,,55,64
109100,note_off,0,0,1,,,,,,,,,,,,,,0,,,63,64
109120,note_on,20,0,1,,,,,,,,,,,,,,0,,,60,90
109120,note_on,0,0,1,,,,,,,,,,,,,,0,,,55,90
109120,note_on,0,0,1,,,,,,,,,,,,,,0,,,63,90
109260,note_off,0,0,1,,,,,,,,,,,,,,0,,,55,64
109260,note_off,0,0,1,,,,,,,,,,,,,,0,,,63,64
109260,note_off,140,0,1,,,,,,,,,,,,,,0,,,60,64
109280,note_on,0,0,1,,,,,,,,,,,,,,0,,,63,90
109280,note_on,0,0,1,,,,,,,,,,,,,,0,,,55,90
109280,note_on,20,0,1,,,,,,,,,,,,,,0,,,60,90
109310,control_change,108940,0,5,,,,,,,,,,,,,,4,11,80,,
109420,note_off,0,0,1,,,,,,,,,,,,,,0,,,63,64
109420,note_off,140,0,1,,,,,,,,,,,,,,0,,,60,64
109420,note_off,0,0,1,,,,,,,,,,,,,,0,,,55,64
109440,note_on,20,0,1,,,,,,,,,,,,,,0,,,58,90
109440,note_on,0,0,1,,,,,,,,,,,,,,0,,,53,90
109440,note_on,720,0,2,,,,,,,,,,,,,,1,,,41,90
109440,note_on,0,0,1,,,,,,,,,,,,,,0,,,62,90
109560,control_change,120,0,1,,,,,,,,,,,,,,0,11,64,,
109580,note_off,20,0,1,,,,,,,,,,,,,,0,,,58,64
109580,note_off,0,0,1,,,,,,,,,,,,,,0,,,53,64
109580,note_off,0,0,1,,,,,,,,,,,,,,0,,,62,64
109600,note_on,20,0,1,,,,,,,,,,,,,,0,,,53,90
109600,note_on,0,0,1,,,,,,,,,,,,,,0,,,58,90
109600,note_on,0,0,1,,,,,,,,,,,,,,0,,,62,90
109661,control_change,61,0,1,,,,,,,,,,,,,,0,11,63,,
109680,note_off,240,0,2,,,,,,,,,,,,,,1,,,41,64
109740,note_off,0,0,1,,,,,,,,,,,,,,0,,,58,64
109740,note_off,0,0,1,,,,,,,,,,,,,,0,,,62,64
109740,note_off,79,0,1,,,,,,,,,,,,,,0,,,53,64
109760,note_on,0,0,1,,,,,,,,,,,,,,0,,,62,90
109760,note_on,0,0,1,,,,,,,,,,,,,,0,,,58,90
109760,note_on,20,0,1,,,,,,,,,,,,,,0,,,53,90
109762,control_change,2,0,1,,,,,,,,,,,,,,0,11,62,,
109863,control_change,101,0,1,,,,,,,,,,,,,,0,11,61,,
109900,note_off,0,0,1,,,,,,,,,,,,,,0,,,62,64
109900,note_off,37,0,1,,,,,,,,,,,,,,0,,,53,64
109900,note_off,0,0,1,,,,,,,,,,,,,,0,,,58,64
109920,note_on,0,0,1,,,,,,,,,,,,,,0,,,62,90
109920,note_on,0,0,1,,,,,,,,,,,,,,0,,,53,90
109920,note_on,20,0,1,,,,,,,,,,,,,,0,,,58,90
109964,control_change,44,0,1,,,,,,,,,,,,,,0,11,60,,
110060,note_off,0,0,1,,,,,,,,,,,,,,0,,,62,64
110060,note_off,96,0,1,,,,,,,,,,,,,,0,,,58,64
110060,note_off,0,0,1,,,,,,,,,,,,,,0,,,53,64
110065,control_change,5,0,1,,,,,,,,,,,,,,0,11,59,,
110080,note_on,0,0,1,,,,,,,,,,,,,,0,,,53,90
110080,note_on,15,0,1,,,,,,,,,,,,,,0,,,58,90
110080,note_on,0,0,1,,,,,,,,,,,,,,0,,,62,90
110166,control_change,86,0,1,,,,,,,,,,,,,,0,11,58,,
110220,note_off,0,0,1,,,,,,,,,,,,,,0,,,53,64
110220,note_off,0,0,1,,,,,,,,,,,,,,0,,,62,64
110220,note_off,54,0,1,,,,,,,,,,,,,,0,,,58,64
110240,note_on,20,0,1,,,,,,,,,,,,,,0,,,58,90
110240,note_on,0,0,1,,,,,,,,,,,,,,0,,,53,90
110240,note_on,0,0,1,,,,,,,,,,,,,,0,,,62,90
110267,control_change,27,0,1,,,,,,,,,,,,,,0,11,57,,
110368,control_change,101,0,1,,,,,,,,,,,,,,0,11,56,,
110380,note_off,0,0,1,,,,,,,,,,,,,,0,,,53,64
110380,note_off,0,0,1,,,,,,,,,,,,,,0,,,62,64
110380,note_off,12,0,1,,,,,,,,,,,,,,0,,,58,64
110400,note_on,0,0,1,,,,,,,,,,,,,,0,,,53,90
110400,note_on,0,0,1,,,,,,,,,,,,,,0,,,60,90
110400,note_on,20,0,1,,,,,,,,,,,,,,0,,,57,90
110400,note_on,720,0,2,,,,,,,,,,,,,,1,,,41,90
110470,control_change,70,0,1,,,,,,,,,,,,,,0,11,55,,
110540,note_off,70,0,1,,,,,,,,,,,,,,0,,,57,64
110540,note_off,0,0,1,,,,,,,,,,,,,,0,,,60,64
110540,note_off,0,0,1,,,,,,,,,,,,,,0,,,53,64
110560,note_on,20,0,1,,,,,,,,,,,,,,0,,,53,90
110560,note_on,0,0,1,,,,,,,,,,,,,,0,,,57,90
110560,note_on,0,0,1,,,,,,,,,,,,,,0,,,60,90
110640,note_off,240,0,2,,,,,,,,,,,,,,1,,,41,64
110700,note_off,140,0,1,,,,,,,,,,,,,,0,,,53,64
110700,note_off,0,0,1,,,,,,,,,,,,,,0,,,57,64
110700,note_off,0,0,1,,,,,,,,,,,,,,0,,,60,64
110720,note_on,20,0,1,,,,,,,,,,,,,,0,,,53,90
110720,note_on,0,0,1,,,,,,,,,,,,,,0,,,57,90
110720,note_on,0,0,1,,,,,,,,,,,,,,0,,,60,90
110860,note_off,0,0,1,,,,,,,,,,,,,,0,,,60,64
110860,note_off,0,0,1,,,,,,,,,,,,,,0,,,57,64
110860,note_off,140,0,1,,,,,,,,,,,,,,0,,,53,64
110880,note_on,20,0,1,,,,,,,,,,,,,,0,,,57,90
110880,note_on,1570,0,5,,,,,,,,,,,,,,4,,,72,90
110880,note_on,0,0,1,,,,,,,,,,,,,,0,,,53,90
110880,note_on,0,0,1,,,,,,,,,,,,,,0,,,60,90
110970,control_change,330,0,2,,,,,,,,,,,,,,1,11,72,,
111020,note_off,140,0,1,,,,,,,,,,,,,,0,,,57,64
111020,note_off,0,0,1,,,,,,,,,,,,,,0,,,53,64
111020,note_off,0,0,1,,,,,,,,,,,,,,0,,,60,64
111040,note_on,0,0,1,,,,,,,,,,,,,,0,,,60,90
111040,note_on,20,0,1,,,,,,,,,,,,,,0,,,57,90
111040,note_on,0,0,1,,,,,,,,,,,,,,0,,,53,90
111180,note_off,0,0,1,,,,,,,,,,,,,,0,,,53,64
111180,note_off,0,0,1,,,,,,,,,,,,,,0,,,60,64
111180,note_off,140,0,1,,,,,,,,,,,,,,0,,,57,64
111200,note_on,20,0,1,,,,,,,,,,,,,,0,,,57,90
111200,note_on,0,0,1,,,,,,,,,,,,,,0,,,53,90
111200,note_on,0,0,1,,,,,,,,,,,,,,0,,,60,90
111340,note_off,140,0,1,,,,,,,,,,,,,,0,,,57,64
111340,note_off,0,0,1,,,,,,,,,,,,,,0,,,53,64
111340,note_off,0,0,1,,,,,,,,,,,,,,0,,,60,64
111360,note_on,0,0,2,,,,,,,,,,,,,,1,,,46,90
111360,note_on,0,0,5,,,,,,,,,,,,,,4,,,74,90
111360,note_off,480,0,5,,,,,,,,,,,,,,4,,,72,64
111360,note_on,390,0,2,,,,,,,,,,,,,,1,,,34,90
111520,note_on,0,0,1,,,,,,,,,,,,,,0,,,58,90
111520,note_on,0,0,1,,,,,,,,,,,,,,0,,,62,90
111520,note_on,0,0,1,,,,,,,,,,,,,,0,,,53,90
111520,note_on,180,0,1,,,,,,,,,,,,,,0,,,65,90
111600,note_off,0,0,2,,,,,,,,,,,,,,1,,,46,64
111600,note_off,240,0,2,,,,,,,,,,,,,,1,,,34,64
111660,note_off,0,0,1,,,,,,,,,,,,,,0,,,53,64
111660,note_off,0,0,1,,,,,,,,,,,,,,0,,,62,64
111660,note_off,0,0,1,,,,,,,,,,,,,,0,,,58,64
111660,note_off,140,0,1,,,,,,,,,,,,,,0,,,65,64
111680,note_on,0,0,1,,,,,,,,,,,,,,0,,,62,90
111680,note_on,0,0,1,,,,,,,,,,,,,,0,,,53,90
111680,note_on,20,0,1,,,,,,,,,,,,,,0,,,65,90
111680,note_on,0,0,1,,,,,,,,,,,,,,0,,,58,90
111820,note_off,0,0,1,,,,,,,,,,,,,,0,,,58,64
111820,note_off,140,0,1,,,,,,,,,,,,,,0,,,65,64
111820,note_off,0,0,1,,,,,,,,,,,,,,0,,,53,64
111820,note_off,0,0,1,,,,,,,,,,,,,,0,,,62,64
111840,note_on,0,0,2,,,,,,,,,,,,,,1,,,46,90
111840,note_on,240,0,2,,,,,,,,,,,,,,1,,,34,90
112000,note_on,180,0,1,,,,,,,,,,,,,,0,,,58,90
112000,note_on,0,0,1,,,,,,,,,,,,,,0,,,65,90
112000,note_on,0,0,1,,,,,,,,,,,,,,0,,,62,90
112000,note_on,0,0,1,,,,,,,,,,,,,,0,,,53,90
112080,note_off,0,0,2,,,,,,,,,,,,,,1,,,46,64
112080,note_off,240,0,2,,,,,,,,,,,,,,1,,,34,64
112140,note_off,0,0,1,,,,,,,,,,,,,,0,,,65,64
112140,note_off,140,0,1,,,,,,,,,,,,,,0,,,58,64
112140,note_off,0,0,1,,,,,,,,,,,,,,0,,,53,64
112140,note_off,0,0,1,,,,,,,,,,,,,,0,,,62,64
112160,note_on,0,0,1,,,,,,,,,,,,,,0,,,62,90
112160,note_on,0,0,1,,,,,,,,,,,,,,0,,,65,90
112160,note_on,20,0,1,,,,,,,,,,,,,,0,,,58,90
112160,note_on,0,0,1,,,,,,,,,,,,,,0,,,53,90
112300,note_off,140,0,1,,,,,,,,,,,,,,0,,,58,64
112300,note_off,0,0,1,,,,,,,,,,,,,,0,,,65,64
112300,note_off,0,0,1,,,,,,,,,,,,,,0,,,62,64
112300,note_off,0,0,1,,,,,,,,,,,,,,0,,,53,64
112320,note_on,0,0,2,,,,,,,,,,,,,,1,,,46,90
112320,note_on,240,0,2,,,,,,,,,,,,,,1,,,34,90
112480,note_on,0,0,1,,,,,,,,,,,,,,0,,,58,90
112480,note_on,180,0,1,,,,,,,,,,,,,,0,,,65,90
112480,note_on,0,0,1,,,,,,,,,,,,,,0,,,53,90
112480,note_on,0,0,1,,,,,,,,,,,,,,0,,,62,90
112560,note_off,0,0,2,,,,,,,,,,,,,,1,,,46,64
112560,note_off,240,0,2,,,,,,,,,,,,,,1,,,34,64
112620,note_off,0,0,1,,,,,,,,,,,,,,0,,,53,64
112620,note_off,0,0,1,,,,,,,,,,,,,,0,,,62,64
112620,note_off,0,0,1,,,,,,,,,,,,,,0,,,58,64
112620,note_off,140,0,1,,,,,,,,,,,,,,0,,,65,64
112640,note_on,0,0,1,,,,,,,,,,,,,,0,,,53,90
112640,note_on,0,0,1,,,,,,,,,,,,,,0,,,58,90
112640,note_on,20,0,1,,,,,,,,,,,,,,0,,,65,90
112640,note_on,0,0,1,,,,,,,,,,,,,,0,,,62,90
112780,note_off,0,0,1,,,,,,,,,,,,,,0,,,58,64
112780,note_off,0,0,1,,,,,,,,,,,,,,0,,,53,64
112780,note_off,0,0,1,,,,,,,,,,,,,,0,,,62,64
112780,note_off,140,0,1,,,,,,,,,,,,,,0,,,65,64
112800,note_on,0,0,5,,,,,,,,,,,,,,4,,,70,90
112800,note_on,240,0,2,,,,,,,,,,,,,,1,,,34,90
112800,note_on,0,0,2,,,,,,,,,,,,,,1,,,46,90
112800,note_off,1440,0,5,,,,,,,,,,,,,,4,,,74,64
112960,note_on,0,0,1,,,,,,,,,,,,,,0,,,62,90
112960,note_on,0,0,1,,,,,,,,,,,,,,0,,,65,90
112960,note_on,180,0,1,,,,,,,,,,,,,,0,,,58,90
112960,note_on,0,0,1,,,,,,,,,,,,,,0,,,53,90
113040,note_off,240,0,2,,,,,,,,,,,,,,1,,,34,64
113040,note_off,0,0,2,,,,,,,,,,,,,,1,,,46,64
113100,note_off,0,0,1,,,,,,,,,,,,,,0,,,53,64
113100,note_off,140,0,1,,,,,,,,,,,,,,0,,,58,64
113100,note_off,0,0,1,,,,,,,,,,,,,,0,,,62,64
113100,note_off,0,0,1,,,,,,,,,,,,,,0,,,65,64
113120,note_on,20,0,1,,,,,,,,,,,,,,0,,,58,90
113120,note_on,0,0,1,,,,,,,,,,,,,,0,,,62,90
113120,note_on,0,0,1,,,,,,,,,,,,,,0,,,53,90
113120,note_on,0,0,1,,,,,,,,,,,,,,0,,,65,90
113260,note_off,140,0,1,,,,,,,,,,,,,,0,,,58,64
113260,note_off,0,0,1,,,,,,,,,,,,,,0,,,65,64
113260,note_off,0,0,1,,,,,,,,,,,,,,0,,,62,64
113260,note_off,0,0,1,,,,,,,,,,,,,,0,,,53,64
113280,note_on,0,0,2,,,,,,,,,,,,,,1,,,46,90
113280,note_off,480,0,5,,,,,,,,,,,,,,4,,,70,64
113280,note_on,0,0,5,,,,,,,,,,,,,,4,,,65,90
113280,note_on,240,0,2,,,,,,,,,,,,,,1,,,34,90
113440,note_on,0,0,1,,,,,,,,,,,,,,0,,,53,90
113440,note_on,180,0,1,,,,,,,,,,,,,,0,,,65,90
113440,note_on,0,0,1,,,,,,,,,,,,,,0,,,63,90
113440,note_on,0,0,1,,,,,,,,,,,,,,0,,,57,90
113520,note_off,240,0,2,,,,,,,,,,,,,,1,,,34,64
113520,note_off,0,0,2,,,,,,,,,,,,,,1,,,46,64
113580,note_off,0,0,1,,,,,,,,,,,,,,0,,,53,64
113580,note_off,0,0,1,,,,,,,,,,,,,,0,,,63,64
113580,note_off,140,0,1,,,,,,,,,,,,,,0,,,65,64
113580,note_off,0,0,1,,,,,,,,,,,,,,0,,,57,64
113600,note_on,0,0,1,,,,,,,,,,,,,,0,,,63,90
113600,note_on,0,0,1,,,,,,,,,,,,,,0,,,57,90
113600,note_on,20,0,1,,,,,,,,,,,,,,0,,,65,90
113600,note_on,0,0,1,,,,,,,,,,,,,,0,,,53,90
113740,note_off,140,0,1,,,,,,,,,,,,,,0,,,65,64
113740,note_off,0,0,1,,,,,,,,,,,,,,0,,,57,64
113740,note_off,0,0,1,,,,,,,,,,,,,,0,,,63,64
113740,note_off,0,0,1,,,,,,,,,,,,,,0,,,53,64
113760,note_on,0,0,2,,,,,,,,,,,,,,1,,,46,90
113760,note_on,240,0,2,,,,,,,,,,,,,,1,,,34,90
113920,note_on,180,0,1,,,,,,,,,,,,,,0,,,57,90
113920,note_on,0,0,1,,,,,,,,,,,,,,0,,,53,90
113920,note_on,0,0,1,,,,,,,,,,,,,,0,,,63,90
113920,note_on,0,0,1,,,,,,,,,,,,,,0,,,65,90
114000,note_off,240,0,2,,,,,,,,,,,,,,1,,,34,64
114000,note_off,0,0,2,,,,,,,,,,,,,,1,,,46,64
114060,note_off,0,0,1,,,,,,,,,,,,,,0,,,65,64
114060,note_off,0,0,1,,,,,,,,,,,,,,0,,,63,64
114060,note_off,0,0,1,,,,,,,,,,,,,,0,,,53,64
114060,note_off,140,0,1,,,,,,,,,,,,,,0,,,57,64
114080,note_on,20,0,1,,,,,,,,,,,,,,0,,,57,90
114080,note_on,0,0,1,,,,,,,,,,,,,,0,,,65,90
114080,note_on,0,0,1,,,,,,,,,,,,,,0,,,63,90
114080,note_on,0,0,1,,,,,,,,,,,,,,0,,,53,90
114220,note_off,0,0,1,,,,,,,,,,,,,,0,,,53,64
114220,note_off,140,0,1,,,,,,,,,,,,,,0,,,57,64
114220,note_off,0,0,1,,,,,,,,,,,,,,0,,,65,64
114220,note_off,0,0,1,,,,,,,,,,,,,,0,,,63,64
114240,note_on,240,0,2,,,,,,,,,,,,,,1,,,34,90
114240,note_on,0,0,2,,,,,,,,,,,,,,1,,,46,90
114240,note_off,960,0,5,,,,,,,,,,,,,,4,,,65,64
114400,note_on,0,0,1,,,,,,,,,,,,,,0,,,63,90
114400,note_on,0,0,1,,,,,,,,,,,,,,0,,,57,90
114400,note_on,0,0,1,,,,,,,,,,,,,,0,,,53,90
114400,note_on,180,0,1,,,,,,,,,,,,,,0,,,65,90
114480,note_off,0,0,2,,,,,,,,,,,,,,1,,,46,64
114480,note_off,240,0,2,,,,,,,,,,,,,,1,,,34,64
114540,note_off,0,0,1,,,,,,,,,,,,,,0,,,63,64
114540,note_off,140,0,1,,,,,,,,,,,,,,0,,,65,64
114540,note_off,0,0,1,,,,,,,,,,,,,,0,,,53,64
114540,note_off,0,0,1,,,,,,,,,,,,,,0,,,57,64
114560,note_on,20,0,1,,,,,,,,,,,,,,0,,,65,90
114560,note_on,0,0,1,,,,,,,,,,,,,,0,,,53,90
114560,note_on,0,0,1,,,,,,,,,,,,,,0,,,57,90
114560,note_on,0,0,1,,,,,,,,,,,,,,0,,,63,90
114700,note_off,0,0,1,,,,,,,,,,,,,,0,,,63,64
114700,note_off,0,0,1,,,,,,,,,,,,,,0,,,57,64
114700,note_off,140,0,1,,,,,,,,,,,,,,0,,,65,64
114700,note_off,0,0,1,,,,,,,,,,,,,,0,,,53,64
114720,note_on,480,0,5,,,,,,,,,,,,,,4,,,72,90
114720,note_on,0,0,2,,,,,,,,,,,,,,1,,,46,90
114720,note_on,240,0,2,,,,,,,,,,,,,,1,,,34,90
114880,note_on,180,0,1,,,,,,,,,,,,,,0,,,57,90
114880,note_on,0,0,1,,,,,,,,,,,,,,0,,,65,90
114880,note_on,0,0,1,,,,,,,,,,,,,,0,,,63,90
114880,note_on,0,0,1,,,,,,,,,,,,,,0,,,53,90
114960,note_off,0,0,2,,,,,,,,,,,,,,1,,,46,64
114960,note_off,240,0,2,,,,,,,,,,,,,,1,,,34,64
115020,note_off,140,0,1,,,,,,,,,,,,,,0,,,57,64
115020,note_off,0,0,1,,,,,,,,,,,,,,0,,,65,64
115020,note_off,0,0,1,,,,,,,,,,,,,,0,,,63,64
115020,note_off,0,0,1,,,,,,,,,,,,,,0,,,53,64
115040,note_on,0,0,1,,,,,,,,,,,,,,0,,,65,90
115040,note_on,0,0,1,,,,,,,,,,,,,,0,,,53,90
115040,note_on,0,0,1,,,,,,,,,,,,,,0,,,63,90
115040,note_on,20,0,1,,,,,,,,,,,,,,0,,,57,90
115180,note_off,0,0,1,,,,,,,,,,,,,,0,,,65,64
115180,note_off,0,0,1,,,,,,,,,,,,,,0,,,63,64
115180,note_off,0,0,1,,,,,,,,,,,,,,0,,,53,64
115180,note_off,140,0,1,,,,,,,,,,,,,,0,,,57,64
115200,note_on,0,0,2,,,,,,,,,,,,,,1,,,46,90
115200,note_on,240,0,2,,,,,,,,,,,,,,1,,,34,90
115200,note_off,480,0,5,,,,,,,,,,,,,,4,,,72,64
115200,note_on,0,0,5,,,,,,,,,,,,,,4,,,74,90
115360,note_on,180,0,1,,,,,,,,,,,,,,0,,,65,90
115360,note_on,0,0,1,,,,,,,,,,,,,,0,,,58,90
115360,note_on,0,0,1,,,,,,,,,,,,,,0,,,62,90
115360,note_on,0,0,1,,,,,,,,,,,,,,0,,,53,90
115440,note_off,240,0,2,,,,,,,,,,,,,,1,,,34,64
115440,note_off,0,0,2,,,,,,,,,,,,,,1,,,46,64
115500,note_off,0,0,1,,,,,,,,,,,,,,0,,,53,64
115500,note_off,140,0,1,,,,,,,,,,,,,,0,,,65,64
115500,note_off,0,0,1,,,,,,,,,,,,,,0,,,58,64
115500,note_off,0,0,1,,,,,,,,,,,,,,0,,,62,64
115520,note_on,20,0,1,,,,,,,,,,,,,,0,,,65,90
115520,note_on,0,0,1,,,,,,,,,,,,,,0,,,53,90
115520,note_on,0,0,1,,,,,,,,,,,,,,0,,,62,90
115520,note_on,0,0,1,,,,,,,,,,,,,,0,,,58,90
115660,note_off,0,0,1,,,,,,,,,,,,,,0,,,53,64
115660,note_off,0,0,1,,,,,,,,,,,,,,0,,,62,64
115660,note_off,0,0,1,,,,,,,,,,,,,,0,,,58,64
115660,note_off,140,0,1,,,,,,,,,,,,,,0,,,65,64
115680,note_on,0,0,2,,,,,,,,,,,,,,1,,,46,90
115680,note_on,240,0,2,,,,,,,,,,,,,,1,,,34,90
115840,note_on,0,0,1,,,,,,,,,,,,,,0,,,65,90
115840,note_on,180,0,1,,,,,,,,,,,,,,0,,,58,90
115840,note_on,0,0,1,,,,,,,,,,,,,,0,,,53,90
115840,note_on,0,0,1,,,,,,,,,,,,,,0,,,62,90
115920,note_off,0,0,2,,,,,,,,,,,,,,1,,,46,64
115920,note_off,240,0,2,,,,,,,,,,,,,,1,,,34,64
115980,note_off,0,0,1,,,,,,,,,,,,,,0,,,62,64
115980,note_off,140,0,1,,,,,,,,,,,,,,0,,,58,64
115980,note_off,0,0,1,,,,,,,,,,,,,,0,,,53,64
115980,note_off,0,0,1,,,,,,,,,,,,,,0,,,65,64
116000,note_on,20,0,1,,,,,,,,,,,,,,0,,,58,90
116000,note_on,0,0,1,,,,,,,,,,,,,,0,,,65,90
116000,note_on,0,0,1,,,,,,,,,,,,,,0,,,62,90
116000,note_on,0,0,1,,,,,,,,,,,,,,0,,,53,90
116140,note_off,140,0,1,,,,,,,,,,,,,,0,,,58,64
116140,note_off,0,0,1,,,,,,,,,,,,,,0,,,65,64
116140,note_off,0,0,1,,,,,,,,,,,,,,0,,,62,64
116140,note_off,0,0,1,,,,,,,,,,,,,,0,,,53,64
116160,note_on,240,0,2,,,,,,,,,,,,,,1,,,34,90
116160,note_on,0,0,2,,,,,,,,,,,,,,1,,,46,90
116320,note_on,180,0,1,,,,,,,,,,,,,,0,,,65,90
116320,note_on,0,0,1,,,,,,,,,,,,,,0,,,58,90
116320,note_on,0,0,1,,,,,,,,,,,,,,0,,,53,90
116320,note_on,0,0,1,,,,,,,,,,,,,,0,,,62,90
116400,note_off,240,0,2,,,,,,,,,,,,,,1,,,34,64
116400,note_off,0,0,2,,,,,,,,,,,,,,1,,,46,64
116460,note_off,0,0,1,,,,,,,,,,,,,,0,,,58,64
116460,note_off,0,0,1,,,,,,,,,,,,,,0,,,62,64
116460,note_off,0,0,1,,,,,,,,,,,,,,0,,,53,64
116460,note_off,140,0,1,,,,,,,,,,,,,,0,,,65,64
116480,note_on,20,0,1,,,,,,,,,,,,,,0,,,65,90
116480,note_on,0,0,1,,,,,,,,,,,,,,0,,,58,90
116480,note_on,0,0,1,,,,,,,,,,,,,,0,,,62,90
116480,note_on,0,0,1,,,,,,,,,,,,,,0,,,53,90
116620,note_off,0,0,1,,,,,,,,,,,,,,0,,,53,64
116620,note_off,0,0,1,,,,,,,,,,,,,,0,,,58,64
116620,note_off,140,0,1,,,,,,,,,,,,,,0,,,65,64
116620,note_off,0,0,1,,,,,,,,,,,,,,0,,,62,64
116640,note_on,0,0,2,,,,,,,,,,,,,,1,,,46,90
116640,note_on,240,0,2,,,,,,,,,,,,,,1,,,34,90
116640,note_on,0,0,5,,,,,,,,,,,,,,4,,,70,90
116640,note_off,1440,0,5,,,,,,,,,,,,,,4,,,74,64
116800,note_on,180,0,1,,,,,,,,,,,,,,0,,,58,90
116800,note_on,0,0,1,,,,,,,,,,,,,,0,,,65,90
116800,note_on,0,0,1,,,,,,,,,,,,,,0,,,62,90
116800,note_on,0,0,1,,,,,,,,,,,,,,0,,,53,90
116880,note_off,240,0,2,,,,,,,,,,,,,,1,,,34,64
116880,note_off,0,0,2,,,,,,,,,,,,,,1,,,46,64
116940,note_off,0,0,1,,,,,,,,,,,,,,0,,,62,64
116940,note_off,0,0,1,,,,,,,,,,,,,,0,,,65,64
116940,note_off,140,0,1,,,,,,,,,,,,,,0,,,58,64
116940,note_off,0,0,1,,,,,,,,,,,,,,0,,,53,64
116960,note_on,20,0,1,,,,,,,,,,,,,,0,,,58,90
116960,note_on,0,0,1,,,,,,,,,,,,,,0,,,65,90
116960,note_on,0,0,1,,,,,,,,,,,,,,0,,,62,90
116960,note_on,0,0,1,,,,,,,,,,,,,,0,,,53,90
117100,note_off,0,0,1,,,,,,,,,,,,,,0,,,53,64
117100,note_off,0,0,1,,,,,,,,,,,,,,0,,,62,64
117100,note_off,0,0,1,,,,,,,,,,,,,,0,,,65,64
117100,note_off,140,0,1,,,,,,,,,,,,,,0,,,58,64
117120,note_off,480,0,5,,,,,,,,,,,,,,4,,,70,64
117120,note_on,0,0,2,,,,,,,,,,,,,,1,,,46,90
117120,note_on,240,0,2,,,,,,,,,,,,,,1,,,34,90
117120,note_on,0,0,5,,,,,,,,,,,,,,4,,,65,90
117280,note_on,180,0,1,,,,,,,,,,,,,,0,,,65,90
117280,note_on,0,0,1,,,,,,,,,,,,,,0,,,53,90
117280,note_on,0,0,1,,,,,,,,,,,,,,0,,,63,90
117280,note_on,0,0,1,,,,,,,,,,,,,,0,,,57,90
117360,note_off,0,0,2,,,,,,,,,,,,,,1,,,46,64
117360,note_off,240,0,2,,,,,,,,,,,,,,1,,,34,64
117420,note_off,140,0,1,,,,,,,,,,,,,,0,,,65,64
117420,note_off,0,0,1,,,,,,,,,,,,,,0,,,57,64
117420,note_off,0,0,1,,,,,,,,,,,,,,0,,,63,64
117420,note_off,0,0,1,,,,,,,,,,,,,,0,,,53,64
117440,note_on,20,0,1,,,,,,,,,,,,,,0,,,65,90
117440,note_on,0,0,1,,,,,,,,,,,,,,0,,,57,90
117440,note_on,0,0,1,,,,,,,,,,,,,,0,,,63,90
117440,note_on,0,0,1,,,,,,,,,,,,,,0,,,53,90
117580,note_off,140,0,1,,,,,,,,,,,,,,0,,,65,64
117580,note_off,0,0,1,,,,,,,,,,,,,,0,,,63,64
117580,note_off,0,0,1,,,,,,,,,,,,,,0,,,53,64
117580,note_off,0,0,1,,,,,,,,,,,,,,0,,,57,64
117600,note_on,240,0,2,,,,,,,,,,,,,,1,,,34,90
117600,note_on,0,0,2,,,,,,,,,,,,,,1,,,46,90
117760,note_on,180,0,1,,,,,,,,,,,,,,0,,,57,90
117760,note_on,0,0,1,,,,,,,,,,,,,,0,,,65,90
117760,note_on,0,0,1,,,,,,,,,,,,,,0,,,63,90
117760,note_on,0,0,1,,,,,,,,,,,,,,0,,,53,90
117840,note_off,240,0,2,,,,,,,,,,,,,,1,,,34,64
117840,note_off,0,0,2,,,,,,,,,,,,,,1,,,46,64
117900,note_off,140,0,1,,,,,,,,,,,,,,0,,,57,64
117900,note_off,0,0,1,,,,,,,,,,,,,,0,,,65,64
117900,note_off,0,0,1,,,,,,,,,,,,,,0,,,63,64
117900,note_off,0,0,1,,,,,,,,,,,,,,0,,,53,64
117920,note_on,20,0,1,,,,,,,,,,,,,,0,,,57,90
117920,note_on,0,0,1,,,,,,,,,,,,,,0,,,65,90
117920,note_on,0,0,1,,,,,,,,,,,,,,0,,,63,90
117920,note_on,0,0,1,,,,,,,,,,,,,,0,,,53,90
118060,note_off,140,0,1,,,,,,,,,,,,,,0,,,57,64
118060,note_off,0,0,1,,,,,,,,,,,,,,0,,,65,64
118060,note_off,0,0,1,,,,,,,,,,,,,,0,,,63,64
118060,note_off,0,0,1,,,,,,,,,,,,,,0,,,53,64
118080,note_off,960,0,5,,,,,,,,,,,,,,4,,,65,64
118080,note_on,240,0,2,,,,,,,,,,,,,,1,,,34,90
118080,note_on,0,0,2,,,,,,,,,,,,,,1,,,46,90
118240,note_on,0,0,1,,,,,,,,,,,,,,0,,,53,90
118240,note_on,0,0,1,,,,,,,,,,,,,,0,,,63,90
118240,note_on,0,0,1,,,,,,,,,,,,,,0,,,57,90
118240,note_on,180,0,1,,,,,,,,,,,,,,0,,,65,90
118320,note_off,240,0,2,,,,,,,,,,,,,,1,,,34,64
118320,note_off,0,0,2,,,,,,,,,,,,,,1,,,46,64
118380,note_off,0,0,1,,,,,,,,,,,,,,0,,,53,64
118380,note_off,0,0,1,,,,,,,,,,,,,,0,,,63,64
118380,note_off,0,0,1,,,,,,,,,,,,,,0,,,57,64
118380,note_off,140,0,1,,,,,,,,,,,,,,0,,,65,64
118400,note_on,0,0,1,,,,,,,,,,,,,,0,,,63,90
118400,note_on,0,0,1,,,,,,,,,,,,,,0,,,53,90
118400,note_on,0,0,1,,,,,,,,,,,,,,0,,,57,90
118400,note_on,20,0,1,,,,,,,,,,,,,,0,,,65,90
118540,note_off,0,0,1,,,,,,,,,,,,,,0,,,57,64
118540,note_off,0,0,1,,,,,,,,,,,,,,0,,,53,64
118540,note_off,0,0,1,,,,,,,,,,,,,,0,,,63,64
118540,note_off,140,0,1,,,,,,,,,,,,,,0,,,65,64
118560,note_on,480,0,5,,,,,,,,,,,,,,4,,,72,90
118560,note_on,240,0,2,,,,,,,,,,,,,,1,,,34,90
118560,note_on,0,0,2,,,,,,,,,,,,,,1,,,46,90
118720,note_on,0,0,1,,,,,,,,,,,,,,0,,,53,90
118720,note_on,0,0,1,,,,,,,,,,,,,,0,,,63,90
118720,note_on,0,0,1,,,,,,,,,,,,,,0,,,65,90
118720,note_on,180,0,1,,,,,,,,,,,,,,0,,,57,90
118800,note_off,240,0,2,,,,,,,,,,,,,,1,,,34,64
118800,note_off,0,0,2,,,,,,,,,,,,,,1,,,46,64
118860,note_off,0,0,1,,,,,,,,,,,,,,0,,,53,64
118860,note_off,0,0,1,,,,,,,,,,,,,,0,,,63,64
118860,note_off,0,0,1,,,,,,,,,,,,,,0,,,65,64
118860,note_off,140,0,1,,,,,,,,,,,,,,0,,,57,64
118880,note_on,0,0,1,,,,,,,,,,,,,,0,,,53,90
118880,note_on,0,0,1,,,,,,,,,,,,,,0,,,63,90
118880,note_on,0,0,1,,,,,,,,,,,,,,0,,,65,90
118880,note_on,20,0,1,,,,,,,,,,,,,,0,,,57,90
119020,note_off,140,0,1,,,,,,,,,,,,,,0,,,57,64
119020,note_off,0,0,1,,,,,,,,,,,,,,0,,,65,64
119020,note_off,0,0,1,,,,,,,,,,,,,,0,,,53,64
119020,note_off,0,0,1,,,,,,,,,,,,,,0,,,63,64
119040,note_on,0,0,2,,,,,,,,,,,,,,1,,,46,90
119040,note_on,240,0,2,,,,,,,,,,,,,,1,,,34,90
119040,note_off,480,0,5,,,,,,,,,,,,,,4,,,72,64
119040,note_on,0,0,5,,,,,,,,,,,,,,4,,,74,90
119200,note_on,0,0,1,,,,,,,,,,,,,,0,,,53,90
119200,note_on,180,0,1,,,,,,,,,,,,,,0,,,65,90
119200,note_on,0,0,1,,,,,,,,,,,,,,0,,,62,90
119200,note_on,0,0,1,,,,,,,,,,,,,,0,,,58,90
119280,note_off,240,0,2,,,,,,,,,,,,,,1,,,34,64
119280,note_off,0,0,2,,,,,,,,,,,,,,1,,,46,64
119340,note_off,0,0,1,,,,,,,,,,,,,,0,,,62,64
119340,note_off,0,0,1,,,,,,,,,,,,,,0,,,53,64
119340,note_off,140,0,1,,,,,,,,,,,,,,0,,,65,64
119340,note_off,0,0,1,,,,,,,,,,,,,,0,,,58,64
119360,note_on,20,0,1,,,,,,,,,,,,,,0,,,65,90
119360,note_on,0,0,1,,,,,,,,,,,,,,0,,,53,90
119360,note_on,0,0,1,,,,,,,,,,,,,,0,,,62,90
119360,note_on,0,0,1,,,,,,,,,,,,,,0,,,58,90
119500,note_off,140,0,1,,,,,,,,,,,,,,0,,,65,64
119500,note_off,0,0,1,,,,,,,,,,,,,,0,,,58,64
119500,note_off,0,0,1,,,,,,,,,,,,,,0,,,62,64
119500,note_off,0,0,1,,,,,,,,,,,,,,0,,,53,64
119520,note_on,240,0,2,,,,,,,,,,,,,,1,,,34,90
119520,note_on,0,0,2,,,,,,,,,,,,,,1,,,46,90
119680,note_on,180,0,1,,,,,,,,,,,,,,0,,,58,90
119680,note_on,0,0,1,,,,,,,,,,,,,,0,,,65,90
119680,note_on,0,0,1,,,,,,,,,,,,,,0,,,62,90
119680,note_on,0,0,1,,,,,,,,,,,,,,0,,,53,90
119760,note_off,0,0,2,,,,,,,,,,,,,,1,,,46,64
119760,note_off,240,0,2,,,,,,,,,,,,,,1,,,34,64
119820,note_off,140,0,1,,,,,,,,,,,,,,0,,,58,64
119820,note_off,0,0,1,,,,,,,,,,,,,,0,,,65,64
119820,note_off,0,0,1,,,,,,,,,,,,,,0,,,62,64
119820,note_off,0,0,1,,,,,,,,,,,,,,0,,,53,64
119840,note_on,20,0,1,,,,,,,,,,,,,,0,,,58,90
119840,note_on,0,0,1,,,,,,,,,,,,,,0,,,62,90
119840,note_on,0,0,1,,,,,,,,,,,,,,0,,,65,90
119840,note_on,0,0,1,,,,,,,,,,,,,,0,,,53,90
119980,note_off,140,0,1,,,,,,,,,,,,,,0,,,58,64
119980,note_off,0,0,1,,,,,,,,,,,,,,0,,,65,64
119980,note_off,0,0,1,,,,,,,,,,,,,,0,,,62,64
119980,note_off,0,0,1,,,,,,,,,,,,,,0,,,53,64
120000,note_on,240,0,2,,,,,,,,,,,,,,1,,,34,90
120000,note_on,0,0,2,,,,,,,,,,,,,,1,,,46,90
120160,note_on,0,0,1,,,,,,,,,,,,,,0,,,62,90
120160,note_on,180,0,1,,,,,,,,,,,,,,0,,,65,90
120160,note_on,0,0,1,,,,,,,,,,,,,,0,,,58,90
120160,note_on,0,0,1,,,,,,,,,,,,,,0,,,53,90
120240,note_off,240,0,2,,,,,,,,,,,,,,1,,,34,64
120240,note_off,0,0,2,,,,,,,,,,,,,,1,,,46,64
120300,note_off,0,0,1,,,,,,,,,,,,,,0,,,62,64
120300,note_off,0,0,1,,,,,,,,,,,,,,0,,,53,64
120300,note_off,0,0,1,,,,,,,,,,,,,,0,,,58,64
120300,note_off,140,0,1,,,,,,,,,,,,,,0,,,65,64
120320,note_on,20,0,1,,,,,,,,,,,,,,0,,,65,90
120320,note_on,0,0,1,,,,,,,,,,,,,,0,,,58,90
120320,note_on,0,0,1,,,,,,,,,,,,,,0,,,62,90
120320,note_on,0,0,1,,,,,,,,,,,,,,0,,,53,90
120460,note_off,0,0,1,,,,,,,,,,,,,,0,,,53,64
120460,note_off,0,0,1,,,,,,,,,,,,,,0,,,62,64
120460,note_off,0,0,1,,,,,,,,,,,,,,0,,,58,64
120460,note_off,140,0,1,,,,,,,,,,,,,,0,,,65,64
120480,note_on,0,0,2,,,,,,,,,,,,,,1,,,46,90
120480,note_on,240,0,2,,,,,,,,,,,,,,1,,,34,90
120480,note_on,0,0,5,,,,,,,,,,,,,,4,,,70,90
120480,note_off,1440,0,5,,,,,,,,,,,,,,4,,,74,64
120640,note_on,0,0,1,,,,,,,,,,,,,,0,,,53,90
120640,note_on,0,0,1,,,,,,,,,,,,,,0,,,62,90
120640,note_on,0,0,1,,,,,,,,,,,,,,0,,,65,90
120640,note_on,180,0,1,,,,,,,,,,,,,,0,,,58,90
120720,note_off,240,0,2,,,,,,,,,,,,,,1,,,34,64
120720,note_off,0,0,2,,,,,,,,,,,,,,1,,,46,64
120780,note_off,0,0,1,,,,,,,,,,,,,,0,,,53,64
120780,note_off,0,0,1,,,,,,,,,,,,,,0,,,62,64
120780,note_off,0,0,1,,,,,,,,,,,,,,0,,,65,64
120780,note_off,140,0,1,,,,,,,,,,,,,,0,,,58,64
120800,note_on,0,0,1,,,,,,,,,,,,,,0,,,53,90
120800,note_on,20,0,1,,,,,,,,,,,,,,0,,,58,90
120800,note_on,0,0,1,,,,,,,,,,,,,,0,,,62,90
120800,note_on,0,0,1,,,,,,,,,,,,,,0,,,65,90
120940,note_off,0,0,1,,,,,,,,,,,,,,0,,,53,64
120940,note_off,0,0,1,,,,,,,,,,,,,,0,,,62,64
120940,note_off,0,0,1,,,,,,,,,,,,,,0,,,65,64
120940,note_off,140,0,1,,,,,,,,,,,,,,0,,,58,64
120960,note_on,240,0,2,,,,,,,,,,,,,,1,,,36,90
120960,note_on,0,0,5,,,,,,,,,,,,,,4,,,77,90
120960,note_off,480,0,5,,,,,,,,,,,,,,4,,,70,64
120960,note_on,0,0,2,,,,,,,,,,,,,,1,,,48,90
121120,note_on,0,0,1,,,,,,,,,,,,,,0,,,60,90
121120,note_on,0,0,1,,,,,,,,,,,,,,0,,,57,90
121120,note_on,180,0,1,,,,,,,,,,,,,,0,,,65,90
121200,note_off,0,0,2,,,,,,,,,,,,,,1,,,48,64
121200,note_off,240,0,2,,,,,,,,,,,,,,1,,,36,64
121260,note_off,0,0,1,,,,,,,,,,,,,,0,,,57,64
121260,note_off,140,0,1,,,,,,,,,,,,,,0,,,65,64
121260,note_off,0,0,1,,,,,,,,,,,,,,0,,,60,64
121280,note_on,0,0,1,,,,,,,,,,,,,,0,,,60,90
121280,note_on,0,0,1,,,,,,,,,,,,,,0,,,57,90
121280,note_on,20,0,1,,,,,,,,,,,,,,0,,,65,90
121420,note_off,0,0,1,,,,,,,,,,,,,,0,,,60,64
121420,note_off,140,0,1,,,,,,,,,,,,,,0,,,65,64
121420,note_off,0,0,1,,,,,,,,,,,,,,0,,,57,64
121440,note_on,0,0,2,,,,,,,,,,,,,,1,,,48,90
121440,note_on,240,0,2,,,,,,,,,,,,,,1,,,36,90
121600,note_on,0,0,1,,,,,,,,,,,,,,0,,,60,90
121600,note_on,0,0,1,,,,,,,,,,,,,,0,,,65,90
121600,note_on,180,0,1,,,,,,,,,,,,,,0,,,57,90
121680,note_off,240,0,2,,,,,,,,,,,,,,1,,,36,64
121680,note_off,0,0,2,,,,,,,,,,,,,,1,,,48,64
121740,note_off,0,0,1,,,,,,,,,,,,,,0,,,60,64
121740,note_off,0,0,1,,,,,,,,,,,,,,0,,,65,64
121740,note_off,140,0,1,,,,,,,,,,,,,,0,,,57,64
121760,note_on,0,0,1,,,,,,,,,,,,,,0,,,65,90
121760,note_on,20,0,1,,,,,,,,,,,,,,0,,,57,90
121760,note_on,0,0,1,,,,,,,,,,,,,,0,,,60,90
121900,note_off,0,0,1,,,,,,,,,,,,,,0,,,60,64
121900,note_off,140,0,1,,,,,,,,,,,,,,0,,,57,64
121900,note_off,0,0,1,,,,,,,,,,,,,,0,,,65,64
121920,note_on,0,0,2,,,,,,,,,,,,,,1,,,48,90
121920,note_off,960,0,5,,,,,,,,,,,,,,4,,,77,64
121920,note_on,0,0,5,,,,,,,,,,,,,,4,,,72,90
121920,note_on,240,0,2,,,,,,,,,,,,,,1,,,36,90
122080,note_on,180,0,1,,,,,,,,,,,,,,0,,,65,90
122080,note_on,0,0,1,,,,,,,,,,,,,,0,,,57,90
122080,note_on,0,0,1,,,,,,,,,,,,,,0,,,60,90
122160,note_off,240,0,2,,,,,,,,,,,,,,1,,,36,64
122160,note_off,0,0,2,,,,,,,,,,,,,,1,,,48,64
122220,note_off,0,0,1,,,,,,,,,,,,,,0,,,57,64
122220,note_off,0,0,1,,,,,,,,,,,,,,0,,,60,64
122220,note_off,140,0,1,,,,,,,,,,,,,,0,,,65,64
122240,note_on,20,0,1,,,,,,,,,,,,,,0,,,65,90
122240,note_on,0,0,1,,,,,,,,,,,,,,0,,,57,90
122240,note_on,0,0,1,,,,,,,,,,,,,,0,,,60,90
122380,note_off,140,0,1,,,,,,,,,,,,,,0,,,65,64
122380,note_off,0,0,1,,,,,,,,,,,,,,0,,,57,64
122380,note_off,0,0,1,,,,,,,,,,,,,,0,,,60,64
122400,note_on,240,0,2,,,,,,,,,,,,,,1,,,36,90
122400,note_on,0,0,2,,,,,,,,,,,,,,1,,,48,90
122560,note_on,180,0,1,,,,,,,,,,,,,,0,,,57,90
122560,note_on,0,0,1,,,,,,,,,,,,,,0,,,65,90
122560,note_on,0,0,1,,,,,,,,,,,,,,0,,,60,90
122640,note_off,0,0,2,,,,,,,,,,,,,,1,,,48,64
122640,note_off,240,0,2,,,,,,,,,,,,,,1,,,36,64
122700,note_off,140,0,1,,,,,,,,,,,,,,0,,,57,64
122700,note_off,0,0,1,,,,,,,,,,,,,,0,,,65,64
122700,note_off,0,0,1,,,,,,,,,,,,,,0,,,60,64
122720,note_on,20,0,1,,,,,,,,,,,,,,0,,,57,90
122720,note_on,0,0,1,,,,,,,,,,,,,,0,,,65,90
122720,note_on,0,0,1,,,,,,,,,,,,,,0,,,60,90
122860,note_off,140,0,1,,,,,,,,,,,,,,0,,,57,64
122860,note_off,0,0,1,,,,,,,,,,,,,,0,,,65,64
122860,note_off,0,0,1,,,,,,,,,,,,,,0,,,60,64
122880,note_on,240,0,2,,,,,,,,,,,,,,1,,,36,90
122880,note_on,0,0,2,,,,,,,,,,,,,,1,,,48,90
122880,note_on,0,0,5,,,,,,,,,,,,,,4,,,72,90
122880,note_off,960,0,5,,,,,,,,,,,,,,4,,,72,64
123040,note_on,0,0,1,,,,,,,,,,,,,,0,,,55,90
123040,note_on,0,0,1,,,,,,,,,,,,,,0,,,58,90
123040,note_on,0,0,1,,,,,,,,,,,,,,0,,,60,90
123040,note_on,180,0,1,,,,,,,,,,,,,,0,,,64,90
123120,note_off,240,0,2,,,,,,,,,,,,,,1,,,36,64
123120,note_off,0,0,2,,,,,,,,,,,,,,1,,,48,64
123180,note_off,140,0,1,,,,,,,,,,,,,,0,,,64,64
123180,note_off,0,0,1,,,,,,,,,,,,,,0,,,60,64
123180,note_off,0,0,1,,,,,,,,,,,,,,0,,,58,64
123180,note_off,0,0,1,,,,,,,,,,,,,,0,,,55,64
123200,note_on,0,0,1,,,,,,,,,,,,,,0,,,60,90
123200,note_on,0,0,1,,,,,,,,,,,,,,0,,,58,90
123200,note_on,0,0,1,,,,,,,,,,,,,,0,,,55,90
123200,note_on,20,0,1,,,,,,,,,,,,,,0,,,64,90
123340,note_off,0,0,1,,,,,,,,,,,,,,0,,,55,64
123340,note_off,140,0,1,,,,,,,,,,,,,,0,,,64,64
123340,note_off,0,0,1,,,,,,,,,,,,,,0,,,60,64
123340,note_off,0,0,1,,,,,,,,,,,,,,0,,,58,64
123360,note_on,0,0,2,,,,,,,,,,,,,,1,,,48,90
123360,note_on,240,0,2,,,,,,,,,,,,,,1,,,36,90
123360,note_on,0,0,5,,,,,,,,,,,,,,4,,,71,90
123360,note_off,480,0,5,,,,,,,,,,,,,,4,,,72,64
123520,note_on,180,0,1,,,,,,,,,,,,,,0,,,55,90
123520,note_on,0,0,1,,,,,,,,,,,,,,0,,,64,90
123520,note_on,0,0,1,,,,,,,,,,,,,,0,,,58,90
123520,note_on,0,0,1,,,,,,,,,,,,,,0,,,60,90
123520,note_off,160,0,5,,,,,,,,,,,,,,4,,,71,64
123520,note_on,0,0,5,,,,,,,,,,,,,,4,,,72,90
123600,note_off,240,0,2,,,,,,,,,,,,,,1,,,36,64
123600,note_off,0,0,2,,,,,,,,,,,,,,1,,,48,64
123660,note_off,0,0,1,,,,,,,,,,,,,,0,,,58,64
123660,note_off,0,0,1,,,,,,,,,,,,,,0,,,60,64
123660,note_off,140,0,1,,,,,,,,,,,,,,0,,,55,64
123660,note_off,0,0,1,,,,,,,,,,,,,,0,,,64,64
123680,note_on,0,0,5,,,,,,,,,,,,,,4,,,74,90
123680,note_on,0,0,1,,,,,,,,,,,,,,0,,,58,90
123680,note_off,160,0,5,,,,,,,,,,,,,,4,,,72,64
123680,note_on,0,0,1,,,,,,,,,,,,,,0,,,60,90
123680,note_on,0,0,1,,,,,,,,,,,,,,0,,,64,90
123680,note_on,20,0,1,,,,,,,,,,,,,,0,,,55,90
123820,note_off,0,0,1,,,,,,,,,,,,,,0,,,60,64
123820,note_off,0,0,1,,,,,,,,,,,,,,0,,,58,64
123820,note_off,140,0,1,,,,,,,,,,,,,,0,,,55,64
123820,note_off,0,0,1,,,,,,,,,,,,,,0,,,64,64
123840,note_on,0,0,2,,,,,,,,,,,,,,1,,,48,90
123840,note_on,240,0,2,,,,,,,,,,,,,,1,,,36,90
123840,note_on,0,0,5,,,,,,,,,,,,,,4,,,72,90
123840,note_off,160,0,5,,,,,,,,,,,,,,4,,,74,64
124000,note_on,0,0,1,,,,,,,,,,,,,,0,,,60,90
124000,note_on,180,0,1,,,,,,,,,,,,,,0,,,64,90
124000,note_on,0,0,1,,,,,,,,,,,,,,0,,,55,90
124000,note_on,0,0,1,,,,,,,,,,,,,,0,,,58,90
124080,note_off,240,0,2,,,,,,,,,,,,,,1,,,36,64
124080,note_off,0,0,2,,,,,,,,,,,,,,1,,,48,64
124140,note_off,0,0,1,,,,,,,,,,,,,,0,,,60,64
124140,note_off,0,0,1,,,,,,,,,,,,,,0,,,58,64
124140,note_off,0,0,1,,,,,,,,,,,,,,0,,,55,64
124140,note_off,140,0,1,,,,,,,,,,,,,,0,,,64,64
124160,note_on,0,0,1,,,,,,,,,,,,,,0,,,55,90
124160,note_on,20,0,1,,,,,,,,,,,,,,0,,,64,90
124160,note_on,0,0,1,,,,,,,,,,,,,,0,,,60,90
124160,note_on,0,0,1,,,,,,,,,,,,,,0,,,58,90
124300,note_off,140,0,1,,,,,,,,,,,,,,0,,,64,64
124300,note_off,0,0,1,,,,,,,,,,,,,,0,,,55,64
124300,note_off,0,0,1,,,,,,,,,,,,,,0,,,58,64
124300,note_off,0,0,1,,,,,,,,,,,,,,0,,,60,64
124320,note_on,0,0,2,,,,,,,,,,,,,,1,,,48,90
124320,note_off,480,0,5,,,,,,,,,,,,,,4,,,72,64
124320,note_on,0,0,5,,,,,,,,,,,,,,4,,,64,90
124320,note_on,240,0,2,,,,,,,,,,,,,,1,,,36,90
124480,note_on,180,0,1,,,,,,,,,,,,,,0,,,55,90
124480,note_on,0,0,1,,,,,,,,,,,,,,0,,,64,90
124480,note_on,0,0,1,,,,,,,,,,,,,,0,,,58,90
124480,note_on,0,0,1,,,,,,,,,,,,,,0,,,60,90
124560,note_off,240,0,2,,,,,,,,,,,,,,1,,,36,64
124560,note_off,0,0,2,,,,,,,,,,,,,,1,,,48,64
124620,note_off,0,0,1,,,,,,,,,,,,,,0,,,58,64
124620,note_off,0,0,1,,,,,,,,,,,,,,0,,,64,64
124620,note_off,140,0,1,,,,,,,,,,,,,,0,,,55,64
124620,note_off,0,0,1,,,,,,,,,,,,,,0,,,60,64
124640,note_on,0,0,1,,,,,,,,,,,,,,0,,,64,90
124640,note_on,0,0,1,,,,,,,,,,,,,,0,,,58,90
124640,note_on,20,0,1,,,,,,,,,,,,,,0,,,55,90
124640,note_on,0,0,1,,,,,,,,,,,,,,0,,,60,90
124780,note_off,140,0,1,,,,,,,,,,,,,,0,,,55,64
124780,note_off,0,0,1,,,,,,,,,,,,,,0,,,60,64
124780,note_off,0,0,1,,,,,,,,,,,,,,0,,,58,64
124780,note_off,0,0,1,,,,,,,,,,,,,,0,,,64,64
124800,note_on,0,0,5,,,,,,,,,,,,,,4,,,65,90
124800,note_on,0,0,2,,,,,,,,,,,,,,1,,,41,90
124800,note_off,480,0,5,,,,,,,,,,,,,,4,,,64,64
124800,note_on,240,0,2,,,,,,,,,,,,,,1,,,29,90
124960,note_on,180,0,1,,,,,,,,,,,,,,0,,,65,90
124960,note_on,0,0,1,,,,,,,,,,,,,,0,,,60,90
124960,note_on,0,0,1,,,,,,,,,,,,,,0,,,53,90
124960,note_on,0,0,1,,,,,,,,,,,,,,0,,,57,90
125040,note_off,240,0,2,,,,,,,,,,,,,,1,,,29,64
125040,note_off,0,0,2,,,,,,,,,,,,,,1,,,41,64
125100,note_off,0,0,1,,,,,,,,,,,,,,0,,,53,64
125100,note_off,140,0,1,,,,,,,,,,,,,,0,,,65,64
125100,note_off,0,0,1,,,,,,,,,,,,,,0,,,57,64
125100,note_off,0,0,1,,,,,,,,,,,,,,0,,,60,64
125120,note_on,20,0,1,,,,,,,,,,,,,,0,,,65,90
125120,note_on,0,0,1,,,,,,,,,,,,,,0,,,53,90
125120,note_on,0,0,1,,,,,,,,,,,,,,0,,,57,90
125120,note_on,0,0,1,,,,,,,,,,,,,,0,,,60,90
125260,note_off,140,0,1,,,,,,,,,,,,,,0,,,65,64
125260,note_off,0,0,1,,,,,,,,,,,,,,0,,,57,64
125260,note_off,0,0,1,,,,,,,,,,,,,,0,,,60,64
125260,note_off,0,0,1,,,,,,,,,,,,,,0,,,53,64
125280,note_on,0,0,2,,,,,,,,,,,,,,1,,,41,90
125280,note_on,240,0,2,,,,,,,,,,,,,,1,,,29,90
125440,note_on,180,0,1,,,,,,,,,,,,,,0,,,57,90
125440,note_on,0,0,1,,,,,,,,,,,,,,0,,,53,90
125440,note_on,0,0,1,,,,,,,,,,,,,,0,,,60,90
125440,note_on,0,0,1,,,,,,,,,,,,,,0,,,65,90
125520,note_off,0,0,2,,,,,,,,,,,,,,1,,,41,64
125520,note_off,240,0,2,,,,,,,,,,,,,,1,,,29,64
125580,note_off,140,0,1,,,,,,,,,,,,,,0,,,57,64
125580,note_off,0,0,1,,,,,,,,,,,,,,0,,,60,64
125580,note_off,0,0,1,,,,,,,,,,,,,,0,,,65,64
125580,note_off,0,0,1,,,,,,,,,,,,,,0,,,53,64
125600,note_on,20,0,1,,,,,,,,,,,,,,0,,,57,90
125600,note_on,0,0,1,,,,,,,,,,,,,,0,,,65,90
125600,note_on,0,0,1,,,,,,,,,,,,,,0,,,60,90
125600,note_on,0,0,1,,,,,,,,,,,,,,0,,,53,90
125740,note_off,0,0,1,,,,,,,,,,,,,,0,,,53,64
125740,note_off,140,0,1,,,,,,,,,,,,,,0,,,57,64
125740,note_off,0,0,1,,,,,,,,,,,,,,0,,,65,64
125740,note_off,0,0,1,,,,,,,,,,,,,,0,,,60,64
125750,note_off,950,0,5,,,,,,,,,,,,,,4,,,65,64
125760,note_on,240,0,2,,,,,,,,,,,,,,1,,,29,90
125760,note_on,0,0,2,,,,,,,,,,,,,,1,,,41,90
125920,note_on,180,0,1,,,,,,,,,,,,,,0,,,65,90
125920,note_on,0,0,1,,,,,,,,,,,,,,0,,,57,90
125920,note_on,0,0,1,,,,,,,,,,,,,,0,,,60,90
125920,note_on,0,0,1,,,,,,,,,,,,,,0,,,53,90
126000,note_off,0,0,2,,,,,,,,,,,,,,1,,,41,64
126000,note_off,240,0,2,,,,,,,,,,,,,,1,,,29,64
126060,note_off,0,0,1,,,,,,,,,,,,,,0,,,53,64
126060,note_off,0,0,1,,,,,,,,,,,,,,0,,,60,64
126060,note_off,140,0,1,,,,,,,,,,,,,,0,,,65,64
126060,note_off,0,0,1,,,,,,,,,,,,,,0,,,57,64
126080,note_on,0,0,1,,,,,,,,,,,,,,0,,,57,90
126080,note_on,0,0,1,,,,,,,,,,,,,,0,,,60,90
126080,note_on,0,0,1,,,,,,,,,,,,,,0,,,53,90
126080,note_on,20,0,1,,,,,,,,,,,,,,0,,,65,90
126220,note_off,140,0,1,,,,,,,,,,,,,,0,,,65,64
126220,note_off,0,0,1,,,,,,,,,,,,,,0,,,57,64
126220,note_off,0,0,1,,,,,,,,,,,,,,0,,,53,64
126220,note_off,0,0,1,,,,,,,,,,,,,,0,,,60,64
126240,note_on,240,0,2,,,,,,,,,,,,,,1,,,29,90
126240,note_on,0,0,2,,,,,,,,,,,,,,1,,,41,90
126240,note_on,490,0,5,,,,,,,,,,,,,,4,,,65,90
126400,note_on,0,0,1,,,,,,,,,,,,,,0,,,65,90
126400,note_on,0,0,1,,,,,,,,,,,,,,0,,,60,90
126400,note_on,0,0,1,,,,,,,,,,,,,,0,,,53,90
126400,note_on,180,0,1,,,,,,,,,,,,,,0,,,57,90
126480,note_off,240,0,2,,,,,,,,,,,,,,1,,,29,64
126480,note_off,0,0,2,,,,,,,,,,,,,,1,,,41,64
126540,note_off,140,0,1,,,,,,,,,,,,,,0,,,57,64
126540,note_off,0,0,1,,,,,,,,,,,,,,0,,,60,64
126540,note_off,0,0,1,,,,,,,,,,,,,,0,,,53,64
126540,note_off,0,0,1,,,,,,,,,,,,,,0,,,65,64
126560,note_on,0,0,1,,,,,,,,,,,,,,0,,,65,90
126560,note_on,0,0,1,,,,,,,,,,,,,,0,,,53,90
126560,note_on,20,0,1,,,,,,,,,,,,,,0,,,57,90
126560,note_on,0,0,1,,,,,,,,,,,,,,0,,,60,90
126700,note_off,140,0,1,,,,,,,,,,,,,,0,,,57,64
126700,note_off,0,0,1,,,,,,,,,,,,,,0,,,65,64
126700,note_off,0,0,1,,,,,,,,,,,,,,0,,,53,64
126700,note_off,0,0,1,,,,,,,,,,,,,,0,,,60,64
126720,note_on,240,0,2,,,,,,,,,,,,,,1,,,29,90
126720,note_on,0,0,2,,,,,,,,,,,,,,1,,,41,90
126720,note_off,480,0,5,,,,,,,,,,,,,,4,,,65,64
126720,note_on,0,0,5,,,,,,,,,,,,,,4,,,72,90
126880,note_on,180,0,1,,,,,,,,,,,,,,0,,,65,90
126880,note_on,0,0,1,,,,,,,,,,,,,,0,,,63,90
126880,note_on,0,0,1,,,,,,,,,,,,,,0,,,57,90
126880,note_on,0,0,1,,,,,,,,,,,,,,0,,,53,90
126960,note_off,240,0,2,,,,,,,,,,,,,,1,,,29,64
126960,note_off,0,0,2,,,,,,,,,,,,,,1,,,41,64
127020,note_off,0,0,1,,,,,,,,,,,,,,0,,,63,64
127020,note_off,0,0,1,,,,,,,,,,,,,,0,,,57,64
127020,note_off,0,0,1,,,,,,,,,,,,,,0,,,53,64
127020,note_off,140,0,1,,,,,,,,,,,,,,0,,,65,64
127040,note_on,20,0,1,,,,,,,,,,,,,,0,,,65,90
127040,note_on,0,0,1,,,,,,,,,,,,,,0,,,57,90
127040,note_on,0,0,1,,,,,,,,,,,,,,0,,,63,90
127040,note_on,0,0,1,,,,,,,,,,,,,,0,,,53,90
127180,note_off,0,0,1,,,,,,,,,,,,,,0,,,57,64
127180,note_off,0,0,1,,,,,,,,,,,,,,0,,,63,64
127180,note_off,140,0,1,,,,,,,,,,,,,,0,,,65,64
127180,note_off,0,0,1,,,,,,,,,,,,,,0,,,53,64
127200,note_on,240,0,2,,,,,,,,,,,,,,1,,,29,90
127200,note_on,0,0,2,,,,,,,,,,,,,,1,,,41,90
127360,note_on,0,0,1,,,,,,,,,,,,,,0,,,63,90
127360,note_on,0,0,1,,,,,,,,,,,,,,0,,,65,90
127360,note_on,180,0,1,,,,,,,,,,,,,,0,,,57,90
127360,note_on,0,0,1,,,,,,,,,,,,,,0,,,53,90
127440,note_off,0,0,2,,,,,,,,,,,,,,1,,,41,64
127440,note_off,240,0,2,,,,,,,,,,,,,,1,,,29,64
127500,note_off,0,0,1,,,,,,,,,,,,,,0,,,53,64
127500,note_off,0,0,1,,,,,,,,,,,,,,0,,,63,64
127500,note_off,0,0,1,,,,,,,,,,,,,,0,,,65,64
127500,note_off,140,0,1,,,,,,,,,,,,,,0,,,57,64
127520,note_on,0,0,1,,,,,,,,,,,,,,0,,,53,90
127520,note_on,0,0,1,,,,,,,,,,,,,,0,,,63,90
127520,note_on,0,0,1,,,,,,,,,,,,,,0,,,65,90
127520,note_on,20,0,1,,,,,,,,,,,,,,0,,,57,90
127660,note_off,0,0,1,,,,,,,,,,,,,,0,,,53,64
127660,note_off,0,0,1,,,,,,,,,,,,,,0,,,63,64
127660,note_off,0,0,1,,,,,,,,,,,,,,0,,,65,64
127660,note_off,140,0,1,,,,,,,,,,,,,,0,,,57,64
127680,note_on,0,0,2,,,,,,,,,,,,,,1,,,41,90
127680,note_on,240,0,2,,,,,,,,,,,,,,1,,,29,90
127840,note_on,0,0,1,,,,,,,,,,,,,,0,,,53,90
127840,note_on,180,0,1,,,,,,,,,,,,,,0,,,65,90
127840,note_on,0,0,1,,,,,,,,,,,,,,0,,,57,90
127840,note_on,0,0,1,,,,,,,,,,,,,,0,,,63,90
127920,note_off,240,0,2,,,,,,,,,,,,,,1,,,29,64
127920,note_off,0,0,2,,,,,,,,,,,,,,1,,,41,64
127980,note_off,140,0,1,,,,,,,,,,,,,,0,,,65,64
127980,note_off,0,0,1,,,,,,,,,,,,,,0,,,57,64
127980,note_off,0,0,1,,,,,,,,,,,,,,0,,,63,64
127980,note_off,0,0,1,,,,,,,,,,,,,,0,,,53,64
128000,note_on,20,0,1,,,,,,,,,,,,,,0,,,65,90
128000,note_on,0,0,1,,,,,,,,,,,,,,0,,,57,90
128000,note_on,0,0,1,,,,,,,,,,,,,,0,,,63,90
128000,note_on,0,0,1,,,,,,,,,,,,,,0,,,53,90
128140,note_off,0,0,1,,,,,,,,,,,,,,0,,,53,64
128140,note_off,140,0,1,,,,,,,,,,,,,,0,,,65,64
128140,note_off,0,0,1,,,,,,,,,,,,,,0,,,57,64
128140,note_off,0,0,1,,,,,,,,,,,,,,0,,,63,64
128160,note_on,0,0,2,,,,,,,,,,,,,,1,,,41,90
128160,note_on,0,0,5,,,,,,,,,,,,,,4,,,73,90
128160,note_off,1440,0,5,,,,,,,,,,,,,,4,,,72,64
128160,note_on,240,0,2,,,,,,,,,,,,,,1,,,29,90
128320,note_on,180,0,1,,,,,,,,,,,,,,0,,,57,90
128320,note_on,0,0,1,,,,,,,,,,,,,,0,,,65,90
128320,note_on,0,0,1,,,,,,,,,,,,,,0,,,63,90
128320,note_on,0,0,1,,,,,,,,,,,,,,0,,,53,90
128400,note_off,240,0,2,,,,,,,,,,,,,,1,,,29,64
128400,note_off,0,0,2,,,,,,,,,,,,,,1,,,41,64
128460,note_off,140,0,1,,,,,,,,,,,,,,0,,,57,64
128460,note_off,0,0,1,,,,,,,,,,,,,,0,,,65,64
128460,note_off,0,0,1,,,,,,,,,,,,,,0,,,63,64
128460,note_off,0,0,1,,,,,,,,,,,,,,0,,,53,64
128480,note_on,0,0,1,,,,,,,,,,,,,,0,,,53,90
128480,note_on,0,0,1,,,,,,,,,,,,,,0,,,65,90
128480,note_on,20,0,1,,,,,,,,,,,,,,0,,,57,90
128480,note_on,0,0,1,,,,,,,,,,,,,,0,,,63,90
128620,note_off,0,0,1,,,,,,,,,,,,,,0,,,65,64
128620,note_off,140,0,1,,,,,,,,,,,,,,0,,,57,64
128620,note_off,0,0,1,,,,,,,,,,,,,,0,,,53,64
128620,note_off,0,0,1,,,,,,,,,,,,,,0,,,63,64
128640,note_on,240,0,2,,,,,,,,,,,,,,1,,,34,90
128640,note_on,0,0,2,,,,,,,,,,,,,,1,,,46,90
128640,note_on,0,0,5,,,,,,,,,,,,,,4,,,74,90
128640,note_off,480,0,5,,,,,,,,,,,,,,4,,,73,64
128800,note_on,0,0,1,,,,,,,,,,,,,,0,,,62,90
128800,note_on,0,0,1,,,,,,,,,,,,,,0,,,53,90
128800,note_on,180,0,1,,,,,,,,,,,,,,0,,,65,90
128800,note_on,0,0,1,,,,,,,,,,,,,,0,,,58,90
128880,note_off,0,0,2,,,,,,,,,,,,,,1,,,46,64
128880,note_off,240,0,2,,,,,,,,,,,,,,1,,,34,64
128940,note_off,0,0,1,,,,,,,,,,,,,,0,,,53,64
128940,note_off,0,0,1,,,,,,,,,,,,,,0,,,62,64
128940,note_off,140,0,1,,,,,,,,,,,,,,0,,,65,64
128940,note_off,0,0,1,,,,,,,,,,,,,,0,,,58,64
128960,note_on,0,0,1,,,,,,,,,,,,,,0,,,62,90
128960,note_on,20,0,1,,,,,,,,,,,,,,0,,,65,90
128960,note_on,0,0,1,,,,,,,,,,,,,,0,,,58,90
128960,note_on,0,0,1,,,,,,,,,,,,,,0,,,53,90
129100,note_off,140,0,1,,,,,,,,,,,,,,0,,,65,64
129100,note_off,0,0,1,,,,,,,,,,,,,,0,,,58,64
129100,note_off,0,0,1,,,,,,,,,,,,,,0,,,62,64
129100,note_off,0,0,1,,,,,,,,,,,,,,0,,,53,64
129120,note_on,0,0,2,,,,,,,,,,,,,,1,,,46,90
129120,note_on,240,0,2,,,,,,,,,,,,,,1,,,34,90
129280,note_on,0,0,1,,,,,,,,,,,,,,0,,,62,90
129280,note_on,0,0,1,,,,,,,,,,,,,,0,,,53,90
129280,note_on,180,0,1,,,,,,,,,,,,,,0,,,58,90
129280,note_on,0,0,1,,,,,,,,,,,,,,0,,,65,90
129360,note_off,0,0,2,,,,,,,,,,,,,,1,,,46,64
129360,note_off,240,0,2,,,,,,,,,,,,,,1,,,34,64
129420,note_off,0,0,1,,,,,,,,,,,,,,0,,,62,64
129420,note_off,0,0,1,,,,,,,,,,,,,,0,,,65,64
129420,note_off,140,0,1,,,,,,,,,,,,,,0,,,58,64
129420,note_off,0,0,1,,,,,,,,,,,,,,0,,,53,64
129440,note_on,20,0,1,,,,,,,,,,,,,,0,,,58,90
129440,note_on,0,0,1,,,,,,,,,,,,,,0,,,65,90
129440,note_on,0,0,1,,,,,,,,,,,,,,0,,,62,90
129440,note_on,0,0,1,,,,,,,,,,,,,,0,,,53,90
129580,note_off,140,0,1,,,,,,,,,,,,,,0,,,58,64
129580,note_off,0,0,1,,,,,,,,,,,,,,0,,,65,64
129580,note_off,0,0,1,,,,,,,,,,,,,,0,,,62,64
129580,note_off,0,0,1,,,,,,,,,,,,,,0,,,53,64
129600,note_on,0,0,2,,,,,,,,,,,,,,1,,,46,90
129600,note_on,240,0,2,,,,,,,,,,,,,,1,,,34,90
129600,note_off,960,0,5,,,,,,,,,,,,,,4,,,74,64
129600,note_on,0,0,5,,,,,,,,,,,,,,4,,,70,90
129760,note_on,0,0,1,,,,,,,,,,,,,,0,,,53,90
129760,note_on,0,0,1,,,,,,,,,,,,,,0,,,62,90
129760,note_on,0,0,1,,,,,,,,,,,,,,0,,,58,90
129760,note_on,180,0,1,,,,,,,,,,,,,,0,,,65,90
129840,note_off,240,0,2,,,,,,,,,,,,,,1,,,34,64
129840,note_off,0,0,2,,,,,,,,,,,,,,1,,,46,64
129900,note_off,0,0,1,,,,,,,,,,,,,,0,,,53,64
129900,note_off,0,0,1,,,,,,,,,,,,,,0,,,58,64
129900,note_off,0,0,1,,,,,,,,,,,,,,0,,,62,64
129900,note_off,140,0,1,,,,,,,,,,,,,,0,,,65,64
129920,note_on,20,0,1,,,,,,,,,,,,,,0,,,65,90
129920,note_on,0,0,1,,,,,,,,,,,,,,0,,,58,90
129920,note_on,0,0,1,,,,,,,,,,,,,,0,,,62,90
129920,note_on,0,0,1,,,,,,,,,,,,,,0,,,53,90
130060,note_off,460,0,5,,,,,,,,,,,,,,4,,,70,64
130060,note_off,0,0,1,,,,,,,,,,,,,,0,,,62,64
130060,note_off,140,0,1,,,,,,,,,,,,,,0,,,65,64
130060,note_off,0,0,1,,,,,,,,,,,,,,0,,,58,64
130060,note_off,0,0,1,,,,,,,,,,,,,,0,,,53,64
130080,note_on,20,0,5,,,,,,,,,,,,,,4,,,70,90
130080,note_on,240,0,2,,,,,,,,,,,,,,1,,,34,90
130080,note_on,0,0,2,,,,,,,,,,,,,,1,,,46,90
130240,note_on,180,0,1,,,,,,,,,,,,,,0,,,58,90
130240,note_on,0,0,1,,,,,,,,,,,,,,0,,,65,90
130240,note_on,0,0,1,,,,,,,,,,,,,,0,,,62,90
130240,note_on,0,0,1,,,,,,,,,,,,,,0,,,53,90
130320,note_off,240,0,5,,,,,,,,,,,,,,4,,,70,64
130320,note_off,0,0,2,,,,,,,,,,,,,,1,,,46,64
130320,note_off,240,0,2,,,,,,,,,,,,,,1,,,34,64
130320,note_on,0,0,5,,,,,,,,,,,,,,4,,,71,90
130380,note_off,0,0,1,,,,,,,,,,,,,,0,,,62,64
130380,note_off,0,0,1,,,,,,,,,,,,,,0,,,65,64
130380,note_off,140,0,1,,,,,,,,,,,,,,0,,,58,64
130380,note_off,0,0,1,,,,,,,,,,,,,,0,,,53,64
130400,note_on,0,0,1,,,,,,,,,,,,,,0,,,65,90
130400,note_on,0,0,1,,,,,,,,,,,,,,0,,,62,90
130400,note_on,0,0,1,,,,,,,,,,,,,,0,,,53,90
130400,note_on,20,0,1,,,,,,,,,,,,,,0,,,58,90
130540,note_off,0,0,1,,,,,,,,,,,,,,0,,,65,64
130540,note_off,140,0,1,,,,,,,,,,,,,,0,,,58,64
130540,note_off,0,0,1,,,,,,,,,,,,,,0,,,53,64
130540,note_off,0,0,1,,,,,,,,,,,,,,0,,,62,64
130560,note_on,240,0,2,,,,,,,,,,,,,,1,,,29,90
130560,note_on,0,0,2,,,,,,,,,,,,,,1,,,41,90
130560,note_off,240,0,5,,,,,,,,,,,,,,4,,,71,64
130560,note_on,0,0,5,,,,,,,,,,,,,,4,,,72,90
130720,note_on,0,0,1,,,,,,,,,,,,,,0,,,53,90
130720,note_on,0,0,1,,,,,,,,,,,,,,0,,,63,90
130720,note_on,0,0,1,,,,,,,,,,,,,,0,,,57,90
130720,note_on,180,0,1,,,,,,,,,,,,,,0,,,65,90
130800,note_off,240,0,2,,,,,,,,,,,,,,1,,,29,64
130800,note_off,0,0,2,,,,,,,,,,,,,,1,,,41,64
130860,note_off,0,0,1,,,,,,,,,,,,,,0,,,63,64
130860,note_off,0,0,1,,,,,,,,,,,,,,0,,,57,64
130860,note_off,140,0,1,,,,,,,,,,,,,,0,,,65,64
130860,note_off,0,0,1,,,,,,,,,,,,,,0,,,53,64
130880,note_on,0,0,1,,,,,,,,,,,,,,0,,,63,90
130880,note_on,0,0,1,,,,,,,,,,,,,,0,,,57,90
130880,note_on,0,0,1,,,,,,,,,,,,,,0,,,53,90
130880,note_on,20,0,1,,,,,,,,,,,,,,0,,,65,90
131020,note_off,140,0,1,,,,,,,,,,,,,,0,,,65,64
131020,note_off,0,0,1,,,,,,,,,,,,,,0,,,53,64
131020,note_off,0,0,1,,,,,,,,,,,,,,0,,,63,64
131020,note_off,0,0,1,,,,,,,,,,,,,,0,,,57,64
131040,note_on,240,0,2,,,,,,,,,,,,,,1,,,29,90
131040,note_on,0,0,2,,,,,,,,,,,,,,1,,,41,90
131200,note_on,0,0,1,,,,,,,,,,,,,,0,,,65,90
131200,note_on,0,0,1,,,,,,,,,,,,,,0,,,63,90
131200,note_on,0,0,1,,,,,,,,,,,,,,0,,,53,90
131200,note_on,180,0,1,,,,,,,,,,,,,,0,,,57,90
131280,note_off,0,0,2,,,,,,,,,,,,,,1,,,41,64
131280,note_off,240,0,2,,,,,,,,,,,,,,1,,,29,64
131340,note_off,0,0,1,,,,,,,,,,,,,,0,,,65,64
131340,note_off,0,0,1,,,,,,,,,,,,,,0,,,63,64
131340,note_off,140,0,1,,,,,,,,,,,,,,0,,,57,64
131340,note_off,0,0,1,,,,,,,,,,,,,,0,,,53,64
131360,note_on,20,0,1,,,,,,,,,,,,,,0,,,57,90
131360,note_on,0,0,1,,,,,,,,,,,,,,0,,,65,90
131360,note_on,0,0,1,,,,,,,,,,,,,,0,,,63,90
131360,note_on,0,0,1,,,,,,,,,,,,,,0,,,53,90
131500,note_off,140,0,1,,,,,,,,,,,,,,0,,,57,64
131500,note_off,0,0,1,,,,,,,,,,,,,,0,,,65,64
131500,note_off,0,0,1,,,,,,,,,,,,,,0,,,53,64
131500,note_off,0,0,1,,,,,,,,,,,,,,0,,,63,64
131520,note_on,0,0,2,,,,,,,,,,,,,,1,,,41,90
131520,note_on,240,0,2,,,,,,,,,,,,,,1,,,29,90
131680,note_on,0,0,1,,,,,,,,,,,,,,0,,,53,90
131680,note_on,0,0,1,,,,,,,,,,,,,,0,,,63,90
131680,note_on,0,0,1,,,,,,,,,,,,,,0,,,57,90
131680,note_on,180,0,1,,,,,,,,,,,,,,0,,,65,90
131760,note_off,0,0,2,,,,,,,,,,,,,,1,,,41,64
131760,note_off,240,0,2,,,,,,,,,,,,,,1,,,29,64
131820,note_off,0,0,1,,,,,,,,,,,,,,0,,,57,64
131820,note_off,0,0,1,,,,,,,,,,,,,,0,,,63,64
131820,note_off,0,0,1,,,,,,,,,,,,,,0,,,53,64
131820,note_off,140,0,1,,,,,,,,,,,,,,0,,,65,64
131840,note_on,20,0,1,,,,,,,,,,,,,,0,,,65,90
131840,note_on,0,0,1,,,,,,,,,,,,,,0,,,53,90
131840,note_on,0,0,1,,,,,,,,,,,,,,0,,,63,90
131840,note_on,0,0,1,,,,,,,,,,,,,,0,,,57,90
131980,note_off,140,0,1,,,,,,,,,,,,,,0,,,65,64
131980,note_off,0,0,1,,,,,,,,,,,,,,0,,,57,64
131980,note_off,0,0,1,,,,,,,,,,,,,,0,,,63,64
131980,note_off,0,0,1,,,,,,,,,,,,,,0,,,53,64
132000,note_off,1440,0,5,,,,,,,,,,,,,,4,,,72,64
132000,note_on,240,0,2,,,,,,,,,,,,,,1,,,29,90
132000,note_on,0,0,2,,,,,,,,,,,,,,1,,,41,90
132000,note_on,0,0,5,,,,,,,,,,,,,,4,,,65,90
132160,note_on,0,0,1,,,,,,,,,,,,,,0,,,65,90
132160,note_on,0,0,1,,,,,,,,,,,,,,0,,,63,90
132160,note_on,0,0,1,,,,,,,,,,,,,,0,,,53,90
132160,note_on,180,0,1,,,,,,,,,,,,,,0,,,57,90
132240,note_off,240,0,2,,,,,,,,,,,,,,1,,,29,64
132240,note_off,0,0,2,,,,,,,,,,,,,,1,,,41,64
132300,note_off,0,0,1,,,,,,,,,,,,,,0,,,65,64
132300,note_off,0,0,1,,,,,,,,,,,,,,0,,,63,64
132300,note_off,0,0,1,,,,,,,,,,,,,,0,,,53,64
132300,note_off,140,0,1,,,,,,,,,,,,,,0,,,57,64
132320,note_on,20,0,1,,,,,,,,,,,,,,0,,,57,90
132320,note_on,0,0,1,,,,,,,,,,,,,,0,,,65,90
132320,note_on,0,0,1,,,,,,,,,,,,,,0,,,63,90
132320,note_on,0,0,1,,,,,,,,,,,,,,0,,,53,90
132460,note_off,0,0,1,,,,,,,,,,,,,,0,,,53,64
132460,note_off,0,0,1,,,,,,,,,,,,,,0,,,63,64
132460,note_off,140,0,1,,,,,,,,,,,,,,0,,,57,64
132460,note_off,0,0,1,,,,,,,,,,,,,,0,,,65,64
132480,note_on,0,0,5,,,,,,,,,,,,,,4,,,74,90
132480,note_on,0,0,2,,,,,,,,,,,,,,1,,,46,90
132480,note_on,240,0,2,,,,,,,,,,,,,,1,,,34,90
132480,note_off,480,0,5,,,,,,,,,,,,,,4,,,65,64
132640,note_on,0,0,1,,,,,,,,,,,,,,0,,,53,90
132640,note_on,0,0,1,,,,,,,,,,,,,,0,,,62,90
132640,note_on,0,0,1,,,,,,,,,,,,,,0,,,58,90
132640,note_on,180,0,1,,,,,,,,,,,,,,0,,,65,90
132720,note_off,240,0,2,,,,,,,,,,,,,,1,,,34,64
132720,note_off,0,0,2,,,,,,,,,,,,,,1,,,46,64
132780,note_off,0,0,1,,,,,,,,,,,,,,0,,,58,64
132780,note_off,0,0,1,,,,,,,,,,,,,,0,,,62,64
132780,note_off,0,0,1,,,,,,,,,,,,,,0,,,53,64
132780,note_off,140,0,1,,,,,,,,,,,,,,0,,,65,64
132800,note_on,20,0,1,,,,,,,,,,,,,,0,,,65,90
132800,note_on,0,0,1,,,,,,,,,,,,,,0,,,58,90
132800,note_on,0,0,1,,,,,,,,,,,,,,0,,,62,90
132800,note_on,0,0,1,,,,,,,,,,,,,,0,,,53,90
132940,note_off,0,0,1,,,,,,,,,,,,,,0,,,58,64
132940,note_off,140,0,1,,,,,,,,,,,,,,0,,,65,64
132940,note_off,0,0,1,,,,,,,,,,,,,,0,,,53,64
132940,note_off,0,0,1,,,,,,,,,,,,,,0,,,62,64
132960,note_on,0,0,2,,,,,,,,,,,,,,1,,,46,90
132960,note_on,240,0,2,,,,,,,,,,,,,,1,,,34,90
133120,note_on,180,0,1,,,,,,,,,,,,,,0,,,58,90
133120,note_on,0,0,1,,,,,,,,,,,,,,0,,,65,90
133120,note_on,0,0,1,,,,,,,,,,,,,,0,,,62,90
133120,note_on,0,0,1,,,,,,,,,,,,,,0,,,53,90
133200,note_off,0,0,2,,,,,,,,,,,,,,1,,,46,64
133200,note_off,240,0,2,,,,,,,,,,,,,,1,,,34,64
133260,note_off,0,0,1,,,,,,,,,,,,,,0,,,53,64
133260,note_off,0,0,1,,,,,,,,,,,,,,0,,,62,64
133260,note_off,0,0,1,,,,,,,,,,,,,,0,,,65,64
133260,note_off,140,0,1,,,,,,,,,,,,,,0,,,58,64
133280,note_on,20,0,1,,,,,,,,,,,,,,0,,,58,90
133280,note_on,0,0,1,,,,,,,,,,,,,,0,,,62,90
133280,note_on,0,0,1,,,,,,,,,,,,,,0,,,53,90
133280,note_on,0,0,1,,,,,,,,,,,,,,0,,,65,90
133410,note_off,930,0,5,,,,,,,,,,,,,,4,,,74,64
133420,note_off,140,0,1,,,,,,,,,,,,,,0,,,58,64
133420,note_off,0,0,1,,,,,,,,,,,,,,0,,,62,64
133420,note_off,0,0,1,,,,,,,,,,,,,,0,,,53,64
133420,note_off,0,0,1,,,,,,,,,,,,,,0,,,65,64
133440,note_on,0,0,2,,,,,,,,,,,,,,1,,,46,90
133440,note_on,240,0,2,,,,,,,,,,,,,,1,,,34,90
133600,note_on,180,0,1,,,,,,,,,,,,,,0,,,65,90
133600,note_on,0,0,1,,,,,,,,,,,,,,0,,,58,90
133600,note_on,0,0,1,,,,,,,,,,,,,,0,,,53,90
133600,note_on,0,0,1,,,,,,,,,,,,,,0,,,62,90
133680,note_off,240,0,2,,,,,,,,,,,,,,1,,,34,64
133680,note_off,0,0,2,,,,,,,,,,,,,,1,,,46,64
133740,note_off,0,0,1,,,,,,,,,,,,,,0,,,58,64
133740,note_off,0,0,1,,,,,,,,,,,,,,0,,,62,64
133740,note_off,0,0,1,,,,,,,,,,,,,,0,,,53,64
133740,note_off,140,0,1,,,,,,,,,,,,,,0,,,65,64
133760,note_on,20,0,1,,,,,,,,,,,,,,0,,,65,90
133760,note_on,0,0,1,,,,,,,,,,,,,,0,,,58,90
133760,note_on,0,0,1,,,,,,,,,,,,,,0,,,53,90
133760,note_on,0,0,1,,,,,,,,,,,,,,0,,,62,90
133900,note_off,0,0,1,,,,,,,,,,,,,,0,,,62,64
133900,note_off,0,0,1,,,,,,,,,,,,,,0,,,53,64
133900,note_off,140,0,1,,,,,,,,,,,,,,0,,,65,64
133900,note_off,0,0,1,,,,,,,,,,,,,,0,,,58,64
133920,note_on,0,0,2,,,,,,,,,,,,,,1,,,46,90
133920,note_on,240,0,2,,,,,,,,,,,,,,1,,,34,90
133920,note_on,510,0,5,,,,,,,,,,,,,,4,,,74,90
134080,note_on,180,0,1,,,,,,,,,,,,,,0,,,58,90
134080,note_on,0,0,1,,,,,,,,,,,,,,0,,,65,90
134080,note_on,0,0,1,,,,,,,,,,,,,,0,,,62,90
134080,note_on,0,0,1,,,,,,,,,,,,,,0,,,53,90
134160,note_off,240,0,2,,,,,,,,,,,,,,1,,,34,64
134160,note_on,0,0,5,,,,,,,,,,,,,,4,,,74,90
134160,note_off,240,0,5,,,,,,,,,,,,,,4,,,74,64
134160,note_off,0,0,2,,,,,,,,,,,,,,1,,,46,64
134220,note_off,0,0,1,,,,,,,,,,,,,,0,,,53,64
134220,note_off,0,0,1,,,,,,,,,,,,,,0,,,62,64
134220,note_off,0,0,1,,,,,,,,,,,,,,0,,,65,64
134220,note_off,140,0,1,,,,,,,,,,,,,,0,,,58,64
134240,note_on,0,0,1,,,,,,,,,,,,,,0,,,53,90
134240,note_on,0,0,1,,,,,,,,,,,,,,0,,,62,90
134240,note_on,0,0,1,,,,,,,,,,,,,,0,,,65,90
134240,note_on,20,0,1,,,,,,,,,,,,,,0,,,58,90
134380,note_off,0,0,1,,,,,,,,,,,,,,0,,,62,64
134380,note_off,0,0,1,,,,,,,,,,,,,,0,,,53,64
134380,note_off,0,0,1,,,,,,,,,,,,,,0,,,65,64
134380,note_off,140,0,1,,,,,,,,,,,,,,0,,,58,64
134400,note_on,0,0,2,,,,,,,,,,,,,,1,,,43,90
134400,note_off,240,0,5,,,,,,,,,,,,,,4,,,74,64
134400,note_on,0,0,5,,,,,,,,,,,,,,4,,,79,90
134400,note_on,240,0,2,,,,,,,,,,,,,,1,,,31,90
134560,note_on,0,0,1,,,,,,,,,,,,,,0,,,62,90
134560,note_on,180,0,1,,,,,,,,,,,,,,0,,,65,90
134560,note_on,0,0,1,,,,,,,,,,,,,,0,,,59,90
134560,note_on,0,0,1,,,,,,,,,,,,,,0,,,55,90
134640,note_off,0,0,2,,,,,,,,,,,,,,1,,,43,64
134640,note_off,240,0,2,,,,,,,,,,,,,,1,,,31,64
134700,note_off,0,0,1,,,,,,,,,,,,,,0,,,55,64
134700,note_off,0,0,1,,,,,,,,,,,,,,0,,,62,64
134700,note_off,0,0,1,,,,,,,,,,,,,,0,,,59,64
134700,note_off,140,0,1,,,,,,,,,,,,,,0,,,65,64
134720,note_on,20,0,1,,,,,,,,,,,,,,0,,,65,90
134720,note_on,0,0,1,,,,,,,,,,,,,,0,,,62,90
134720,note_on,0,0,1,,,,,,,,,,,,,,0,,,55,90
134720,note_on,0,0,1,,,,,,,,,,,,,,0,,,59,90
134860,note_off,140,0,1,,,,,,,,,,,,,,0,,,65,64
134860,note_off,0,0,1,,,,,,,,,,,,,,0,,,55,64
134860,note_off,0,0,1,,,,,,,,,,,,,,0,,,59,64
134860,note_off,0,0,1,,,,,,,,,,,,,,0,,,62,64
134880,note_on,0,0,2,,,,,,,,,,,,,,1,,,43,90
134880,note_on,240,0,2,,,,,,,,,,,,,,1,,,31,90
135040,note_on,180,0,1,,,,,,,,,,,,,,0,,,59,90
135040,note_on,0,0,1,,,,,,,,,,,,,,0,,,65,90
135040,note_on,0,0,1,,,,,,,,,,,,,,0,,,62,90
135040,note_on,0,0,1,,,,,,,,,,,,,,0,,,55,90
135120,note_off,0,0,2,,,,,,,,,,,,,,1,,,43,64
135120,note_off,240,0,2,,,,,,,,,,,,,,1,,,31,64
135120,note_off,720,0,5,,,,,,,,,,,,,,4,,,79,64
135120,note_on,0,0,5,,,,,,,,,,,,,,4,,,77,90
135180,note_off,140,0,1,,,,,,,,,,,,,,0,,,59,64
135180,note_off,0,0,1,,,,,,,,,,,,,,0,,,65,64
135180,note_off,0,0,1,,,,,,,,,,,,,,0,,,62,64
135180,note_off,0,0,1,,,,,,,,,,,,,,0,,,55,64
135200,note_on,0,0,1,,,,,,,,,,,,,,0,,,55,90
135200,note_on,20,0,1,,,,,,,,,,,,,,0,,,59,90
135200,note_on,0,0,1,,,,,,,,,,,,,,0,,,65,90
135200,note_on,0,0,1,,,,,,,,,,,,,,0,,,62,90
135340,note_off,0,0,1,,,,,,,,,,,,,,0,,,55,64
135340,note_off,0,0,1,,,,,,,,,,,,,,0,,,65,64
135340,note_off,140,0,1,,,,,,,,,,,,,,0,,,59,64
135340,note_off,0,0,1,,,,,,,,,,,,,,0,,,62,64
135360,note_on,0,0,5,,,,,,,,,,,,,,4,,,77,90
135360,note_off,240,0,5,,,,,,,,,,,,,,4,,,77,64
135360,note_on,240,0,2,,,,,,,,,,,,,,1,,,36,90
135360,note_on,0,0,2,,,,,,,,,,,,,,1,,,48,90
135520,note_on,180,0,1,,,,,,,,,,,,,,0,,,60,90
135520,note_on,0,0,1,,,,,,,,,,,,,,0,,,63,90
135520,note_on,0,0,1,,,,,,,,,,,,,,0,,,55,90
135600,note_on,0,0,5,,,,,,,,,,,,,,4,,,75,90
135600,note_off,0,0,2,,,,,,,,,,,,,,1,,,48,64
135600,note_off,240,0,5,,,,,,,,,,,,,,4,,,77,64
135600,note_off,240,0,2,,,,,,,,,,,,,,1,,,36,64
135660,note_off,0,0,1,,,,,,,,,,,,,,0,,,55,64
135660,note_off,0,0,1,,,,,,,,,,,,,,0,,,63,64
135660,note_off,140,0,1,,,,,,,,,,,,,,0,,,60,64
135680,note_on,0,0,1,,,,,,,,,,,,,,0,,,63,90
135680,note_on,20,0,1,,,,,,,,,,,,,,0,,,60,90
135680,note_on,0,0,1,,,,,,,,,,,,,,0,,,55,90
135820,note_off,0,0,1,,,,,,,,,,,,,,0,,,55,64
135820,note_off,0,0,1,,,,,,,,,,,,,,0,,,63,64
135820,note_off,140,0,1,,,,,,,,,,,,,,0,,,60,64
135840,note_on,0,0,5,,,,,,,,,,,,,,4,,,74,90
135840,note_on,240,0,2,,,,,,,,,,,,,,1,,,36,90
135840,note_on,0,0,2,,,,,,,,,,,,,,1,,,48,90
135840,note_off,240,0,5,,,,,,,,,,,,,,4,,,75,64
136000,note_on,0,0,1,,,,,,,,,,,,,,0,,,55,90
136000,note_on,0,0,1,,,,,,,,,,,,,,0,,,63,90
136000,note_on,180,0,1,,,,,,,,,,,,,,0,,,60,90
136080,note_off,240,0,5,,,,,,,,,,,,,,4,,,74,64
136080,note_off,0,0,2,,,,,,,,,,,,,,1,,,48,64
136080,note_off,240,0,2,,,,,,,,,,,,,,1,,,36,64
136080,note_on,0,0,5,,,,,,,,,,,,,,4,,,72,90
136140,note_off,140,0,1,,,,,,,,,,,,,,0,,,60,64
136140,note_off,0,0,1,,,,,,,,,,,,,,0,,,63,64
136140,note_off,0,0,1,,,,,,,,,,,,,,0,,,55,64
136160,note_on,20,0,1,,,,,,,,,,,,,,0,,,60,90
136160,note_on,0,0,1,,,,,,,,,,,,,,0,,,63,90
136160,note_on,0,0,1,,,,,,,,,,,,,,0,,,55,90
136300,note_off,140,0,1,,,,,,,,,,,,,,0,,,60,64
136300,note_off,0,0,1,,,,,,,,,,,,,,0,,,55,64
136300,note_off,0,0,1,,,,,,,,,,,,,,0,,,63,64
136320,note_off,240,0,5,,,,,,,,,,,,,,4,,,72,64
136320,note_on,0,0,5,,,,,,,,,,,,,,4,,,70,90
136320,note_on,240,0,2,,,,,,,,,,,,,,1,,,41,90
136480,note_on,180,0,1,,,,,,,,,,,,,,0,,,58,90
136480,note_on,0,0,1,,,,,,,,,,,,,,0,,,53,90
136480,note_on,0,0,1,,,,,,,,,,,,,,0,,,62,90
136560,note_off,240,0,2,,,,,,,,,,,,,,1,,,41,64
136620,note_off,140,0,1,,,,,,,,,,,,,,0,,,58,64
136620,note_off,0,0,1,,,,,,,,,,,,,,0,,,53,64
136620,note_off,0,0,1,,,,,,,,,,,,,,0,,,62,64
136640,note_on,0,0,1,,,,,,,,,,,,,,0,,,62,90
136640,note_on,20,0,1,,,,,,,,,,,,,,0,,,58,90
136640,note_on,0,0,1,,,,,,,,,,,,,,0,,,53,90
136780,note_off,140,0,1,,,,,,,,,,,,,,0,,,58,64
136780,note_off,0,0,1,,,,,,,,,,,,,,0,,,53,64
136780,note_off,0,0,1,,,,,,,,,,,,,,0,,,62,64
136800,note_on,240,0,2,,,,,,,,,,,,,,1,,,41,90
136960,note_on,0,0,1,,,,,,,,,,,,,,0,,,58,90
136960,note_on,180,0,1,,,,,,,,,,,,,,0,,,53,90
136960,note_on,0,0,1,,,,,,,,,,,,,,0,,,62,90
137040,note_off,240,0,2,,,,,,,,,,,,,,1,,,41,64
137100,note_off,140,0,1,,,,,,,,,,,,,,0,,,53,64
137100,note_off,0,0,1,,,,,,,,,,,,,,0,,,58,64
137100,note_off,0,0,1,,,,,,,,,,,,,,0,,,62,64
137120,note_on,0,0,1,,,,,,,,,,,,,,0,,,62,90
137120,note_on,0,0,1,,,,,,,,,,,,,,0,,,58,90
137120,note_on,20,0,1,,,,,,,,,,,,,,0,,,53,90
137260,note_off,0,0,1,,,,,,,,,,,,,,0,,,58,64
137260,note_off,140,0,1,,,,,,,,,,,,,,0,,,53,64
137260,note_off,0,0,1,,,,,,,,,,,,,,0,,,62,64
137280,note_on,240,0,2,,,,,,,,,,,,,,1,,,41,90
137440,note_on,180,0,1,,,,,,,,,,,,,,0,,,57,90
137440,note_on,0,0,1,,,,,,,,,,,,,,0,,,51,90
137440,note_on,0,0,1,,,,,,,,,,,,,,0,,,60,90
137440,note_on,0,0,1,,,,,,,,,,,,,,0,,,53,90
137520,note_off,240,0,2,,,,,,,,,,,,,,1,,,41,64
137580,note_off,0,0,1,,,,,,,,,,,,,,0,,,53,64
137580,note_off,0,0,1,,,,,,,,,,,,,,0,,,60,64
137580,note_off,140,0,1,,,,,,,,,,,,,,0,,,57,64
137580,note_off,0,0,1,,,,,,,,,,,,,,0,,,51,64
137600,note_on,0,0,1,,,,,,,,,,,,,,0,,,53,90
137600,note_on,0,0,1,,,,,,,,,,,,,,0,,,60,90
137600,note_on,0,0,1,,,,,,,,,,,,,,0,,,51,90
137600,note_on,20,0,1,,,,,,,,,,,,,,0,,,57,90
137740,note_off,1420,0,5,,,,,,,,,,,,,,4,,,70,64
137740,note_off,140,0,1,,,,,,,,,,,,,,0,,,57,64
137740,note_off,0,0,1,,,,,,,,,,,,,,0,,,51,64
137740,note_off,0,0,1,,,,,,,,,,,,,,0,,,60,64
137740,note_off,0,0,1,,,,,,,,,,,,,,0,,,53,64
137760,note_on,240,0,2,,,,,,,,,,,,,,1,,,41,90
137760,note_on,20,0,5,,,,,,,,,,,,,,4,,,74,90
137920,note_on,180,0,1,,,,,,,,,,,,,,0,,,51,90
137920,note_on,0,0,1,,,,,,,,,,,,,,0,,,57,90
137920,note_on,0,0,1,,,,,,,,,,,,,,0,,,60,90
137920,note_on,0,0,1,,,,,,,,,,,,,,0,,,53,90
138000,note_on,0,0,5,,,,,,,,,,,,,,4,,,72,90
138000,note_off,240,0,5,,,,,,,,,,,,,,4,,,74,64
138000,note_off,240,0,2,,,,,,,,,,,,,,1,,,41,64
138060,note_off,0,0,1,,,,,,,,,,,,,,0,,,53,64
138060,note_off,140,0,1,,,,,,,,,,,,,,0,,,51,64
138060,note_off,0,0,1,,,,,,,,,,,,,,0,,,60,64
138060,note_off,0,0,1,,,,,,,,,,,,,,0,,,57,64
138080,note_on,20,0,1,,,,,,,,,,,,,,0,,,51,90
138080,note_on,0,0,1,,,,,,,,,,,,,,0,,,57,90
138080,note_on,0,0,1,,,,,,,,,,,,,,0,,,60,90
138080,note_on,0,0,1,,,,,,,,,,,,,,0,,,53,90
138220,note_off,0,0,1,,,,,,,,,,,,,,0,,,57,64
138220,note_off,140,0,1,,,,,,,,,,,,,,0,,,51,64
138220,note_off,0,0,1,,,,,,,,,,,,,,0,,,60,64
138220,note_off,0,0,1,,,,,,,,,,,,,,0,,,53,64
138240,note_on,0,0,1,,,,,,,,,,,,,,0,,,53,90
138240,note_on,240,0,2,,,,,,,,,,,,,,1,,,46,90
138240,note_on,0,0,2,,,,,,,,,,,,,,1,,,34,90
138240,note_off,240,0,5,,,,,,,,,,,,,,4,,,72,64
138240,note_on,20,0,1,,,,,,,,,,,,,,0,,,58,90
138240,note_on,0,0,5,,,,,,,,,,,,,,4,,,70,90
138240,note_on,0,0,1,,,,,,,,,,,,,,0,,,50,90
138380,note_off,0,0,1,,,,,,,,,,,,,,0,,,50,64
138380,note_off,0,0,1,,,,,,,,,,,,,,0,,,53,64
138380,note_off,140,0,1,,,,,,,,,,,,,,0,,,58,64
138390,control_change,10,0,1,,,,,,,,,,,,,,0,11,98,,
138400,note_on,0,0,1,,,,,,,,,,,,,,0,,,74,90
138400,note_on,10,0,1,,,,,,,,,,,,,,0,,,62,90
138470,note_off,0,0,2,,,,,,,,,,,,,,1,,,34,64
138470,note_off,230,0,2,,,,,,,,,,,,,,1,,,46,64
138520,control_change,40890,0,4,,,,,,,,,,,,,,3,11,122,,
138540,note_off,0,0,1,,,,,,,,,,,,,,0,,,74,64
138540,note_off,140,0,1,,,,,,,,,,,,,,0,,,62,64
138560,note_on,0,0,1,,,,,,,,,,,,,,0,,,62,90
138560,note_on,20,0,1,,,,,,,,,,,,,,0,,,74,90
138700,note_off,140,0,1,,,,,,,,,,,,,,0,,,74,64
138700,note_off,0,0,1,,,,,,,,,,,,,,0,,,62,64
138710,note_off,470,0,5,,,,,,,,,,,,,,4,,,70,64
138720,note_on,20,0,1,,,,,,,,,,,,,,0,,,62,90
138720,note_on,0,0,1,,,,,,,,,,,,,,0,,,74,90
138760,control_change,290,0,2,,,,,,,,,,,,,,1,11,100,,
138860,note_off,140,0,1,,,,,,,,,,,,,,0,,,62,64
138860,note_off,0,0,1,,,,,,,,,,,,,,0,,,74,64
138880,note_on,20,0,1,,,,,,,,,,,,,,0,,,74,90
138880,note_on,0,0,1,,,,,,,,,,,,,,0,,,62,90
139020,note_off,140,0,1,,,,,,,,,,,,,,0,,,74,64
139020,note_off,0,0,1,,,,,,,,,,,,,,0,,,62,64
139040,note_on,20,0,1,,,,,,,,,,,,,,0,,,62,90
139040,note_on,0,0,1,,,,,,,,,,,,,,0,,,74,90
139180,note_off,140,0,1,,,,,,,,,,,,,,0,,,62,64
139180,note_off,0,0,1,,,,,,,,,,,,,,0,,,74,64
139200,note_on,20,0,1,,,,,,,,,,,,,,0,,,74,90
139200,note_on,0,0,1,,,,,,,,,,,,,,0,,,62,90
139340,note_off,140,0,1,,,,,,,,,,,,,,0,,,74,64
139340,note_off,0,0,1,,,,,,,,,,,,,,0,,,62,64
139360,note_on,20,0,1,,,,,,,,,,,,,,0,,,62,90
139360,note_on,0,0,1,,,,,,,,,,,,,,0,,,74,90
139500,note_off,140,0,1,,,,,,,,,,,,,,0,,,62,64
139500,note_off,0,0,1,,,,,,,,,,,,,,0,,,74,64
139520,note_on,20,0,1,,,,,,,,,,,,,,0,,,74,90
139520,note_on,0,0,1,,,,,,,,,,,,,,0,,,62,90
139660,note_off,0,0,1,,,,,,,,,,,,,,0,,,62,64
139660,note_off,140,0,1,,,,,,,,,,,,,,0,,,74,64
139680,note_on,920,0,2,,,,,,,,,,,,,,1,,,59,100
139680,note_on,0,0,2,,,,,,,,,,,,,,1,,,47,100
139680,note_on,0,0,1,,,,,,,,,,,,,,0,,,74,90
139680,note_on,20,0,1,,,,,,,,,,,,,,0,,,62,90
139680,note_on,1160,0,4,,,,,,,,,,,,,,3,,,74,90
139820,note_off,0,0,1,,,,,,,,,,,,,,0,,,74,64
139820,note_off,140,0,1,,,,,,,,,,,,,,0,,,62,64
139840,note_on,20,0,1,,,,,,,,,,,,,,0,,,74,90
139840,note_on,0,0,1,,,,,,,,,,,,,,0,,,62,90
139980,note_off,140,0,1,,,,,,,,,,,,,,0,,,74,64
139980,note_off,0,0,1,,,,,,,,,,,,,,0,,,62,64
140000,note_on,20,0,1,,,,,,,,,,,,,,0,,,62,90
140000,note_on,0,0,1,,,,,,,,,,,,,,0,,,74,90
140140,note_off,140,0,1,,,,,,,,,,,,,,0,,,62,64
140140,note_off,0,0,1,,,,,,,,,,,,,,0,,,74,64
140150,control_change,10,0,1,,,,,,,,,,,,,,0,11,82,,
140160,note_on,0,0,1,,,,,,,,,,,,,,0,,,74,90
140160,note_off,480,0,4,,,,,,,,,,,,,,3,,,74,64
140160,note_on,0,0,4,,,,,,,,,,,,,,3,,,75,90
140160,note_on,0,0,2,,,,,,,,,,,,,,1,,,48,100
140160,note_on,0,0,2,,,,,,,,,,,,,,1,,,60,100
140160,note_off,0,0,2,,,,,,,,,,,,,,1,,,47,64
140160,note_off,480,0,2,,,,,,,,,,,,,,1,,,59,64
140160,note_on,10,0,1,,,,,,,,,,,,,,0,,,62,90
140300,note_off,0,0,1,,,,,,,,,,,,,,0,,,74,64
140300,note_off,140,0,1,,,,,,,,,,,,,,0,,,62,64
140320,note_on,0,0,1,,,,,,,,,,,,,,0,,,62,90
140320,note_on,20,0,1,,,,,,,,,,,,,,0,,,74,90
140460,note_off,0,0,1,,,,,,,,,,,,,,0,,,62,64
140460,note_off,140,0,1,,,,,,,,,,,,,,0,,,74,64
140480,note_on,0,0,1,,,,,,,,,,,,,,0,,,74,90
140480,note_on,20,0,1,,,,,,,,,,,,,,0,,,62,90
140620,note_off,0,0,1,,,,,,,,,,,,,,0,,,74,64
140620,note_off,140,0,1,,,,,,,,,,,,,,0,,,62,64
140640,note_on,0,0,1,,,,,,,,,,,,,,0,,,62,90
140640,note_on,20,0,1,,,,,,,,,,,,,,0,,,74,90
140780,note_off,0,0,1,,,,,,,,,,,,,,0,,,62,64
140780,note_off,140,0,1,,,,,,,,,,,,,,0,,,74,64
140800,note_on,0,0,1,,,,,,,,,,,,,,0,,,74,90
140800,note_on,20,0,1,,,,,,,,,,,,,,0,,,62,90
140940,note_off,0,0,1,,,,,,,,,,,,,,0,,,74,64
140940,note_off,140,0,1,,,,,,,,,,,,,,0,,,62,64
140960,note_on,0,0,1,,,,,,,,,,,,,,0,,,62,90
140960,note_on,20,0,1,,,,,,,,,,,,,,0,,,74,90
141100,note_off,140,0,1,,,,,,,,,,,,,,0,,,74,64
141100,note_off,0,0,1,,,,,,,,,,,,,,0,,,62,64
141120,note_off,960,0,2,,,,,,,,,,,,,,1,,,60,64
141120,note_on,0,0,2,,,,,,,,,,,,,,1,,,57,100
141120,note_on,20,0,1,,,,,,,,,,,,,,0,,,62,90
141120,note_on,0,0,1,,,,,,,,,,,,,,0,,,74,90
141120,note_off,0,0,2,,,,,,,,,,,,,,1,,,48,64
141120,note_off,960,0,4,,,,,,,,,,,,,,3,,,75,64
141120,note_on,0,0,4,,,,,,,,,,,,,,3,,,75,90
141120,note_on,0,0,2,,,,,,,,,,,,,,1,,,45,100
141260,note_off,140,0,1,,,,,,,,,,,,,,0,,,62,64
141260,note_off,0,0,1,,,,,,,,,,,,,,0,,,74,64
141280,note_on,20,0,1,,,,,,,,,,,,,,0,,,74,90
141280,note_on,0,0,1,,,,,,,,,,,,,,0,,,62,90
141420,note_off,140,0,1,,,,,,,,,,,,,,0,,,74,64
141420,note_off,0,0,1,,,,,,,,,,,,,,0,,,62,64
141440,note_on,20,0,1,,,,,,,,,,,,,,0,,,62,90
141440,note_on,0,0,1,,,,,,,,,,,,,,0,,,74,90
141580,note_off,140,0,1,,,,,,,,,,,,,,0,,,62,64
141580,note_off,0,0,1,,,,,,,,,,,,,,0,,,74,64
141600,note_on,20,0,1,,,,,,,,,,,,,,0,,,74,90
141600,note_on,0,0,1,,,,,,,,,,,,,,0,,,62,90
141740,note_off,140,0,1,,,,,,,,,,,,,,0,,,74,64
141740,note_off,0,0,1,,,,,,,,,,,,,,0,,,62,64
141760,note_on,20,0,1,,,,,,,,,,,,,,0,,,62,90
141760,note_on,0,0,1,,,,,,,,,,,,,,0,,,74,90
141840,note_on,0,0,4,,,,,,,,,,,,,,3,,,75,90
141840,note_off,720,0,4,,,,,,,,,,,,,,3,,,75,64
141900,note_off,140,0,1,,,,,,,,,,,,,,0,,,62,64
141900,note_off,0,0,1,,,,,,,,,,,,,,0,,,74,64
141920,note_on,20,0,1,,,,,,,,,,,,,,0,,,62,90
141920,note_on,0,0,1,,,,,,,,,,,,,,0,,,74,90
142060,note_off,0,0,1,,,,,,,,,,,,,,0,,,74,64
142060,note_off,140,0,1,,,,,,,,,,,,,,0,,,62,64
142080,note_off,240,0,4,,,,,,,,,,,,,,3,,,75,64
142080,note_on,20,0,1,,,,,,,,,,,,,,0,,,62,90
142080,note_off,960,0,2,,,,,,,,,,,,,,1,,,45,64
142080,note_off,0,0,2,,,,,,,,,,,,,,1,,,57,64
142080,note_on,0,0,2,,,,,,,,,,,,,,1,,,54,100
142080,note_on,0,0,2,,,,,,,,,,,,,,1,,,42,100
142080,note_on,0,0,1,,,,,,,,,,,,,,0,,,74,90
142080,note_on,0,0,4,,,,,,,,,,,,,,3,,,75,90
142220,note_off,140,0,1,,,,,,,,,,,,,,0,,,62,64
142220,note_off,0,0,1,,,,,,,,,,,,,,0,,,74,64
142240,note_on,0,0,1,,,,,,,,,,,,,,0,,,62,90
142240,note_on,20,0,1,,,,,,,,,,,,,,0,,,74,90
142320,note_on,0,0,4,,,,,,,,,,,,,,3,,,74,90
142320,note_off,240,0,4,,,,,,,,,,,,,,3,,,75,64
142380,note_off,0,0,1,,,,,,,,,,,,,,0,,,62,64
142380,note_off,140,0,1,,,,,,,,,,,,,,0,,,74,64
142400,note_on,20,0,1,,,,,,,,,,,,,,0,,,62,90
142400,note_on,0,0,1,,,,,,,,,,,,,,0,,,74,90
142540,note_off,140,0,1,,,,,,,,,,,,,,0,,,62,64
142540,note_off,0,0,1,,,,,,,,,,,,,,0,,,74,64
142560,note_on,0,0,1,,,,,,,,,,,,,,0,,,62,90
142560,note_on,20,0,1,,,,,,,,,,,,,,0,,,74,90
142700,note_off,140,0,1,,,,,,,,,,,,,,0,,,74,64
142700,note_off,0,0,1,,,,,,,,,,,,,,0,,,62,64
142720,note_on,20,0,1,,,,,,,,,,,,,,0,,,62,90
142720,note_on,0,0,1,,,,,,,,,,,,,,0,,,74,90
142860,note_off,0,0,1,,,,,,,,,,,,,,0,,,74,64
142860,note_off,140,0,1,,,,,,,,,,,,,,0,,,62,64
142880,note_on,0,0,1,,,,,,,,,,,,,,0,,,62,90
142880,note_on,20,0,1,,,,,,,,,,,,,,0,,,74,90
143020,note_off,140,0,1,,,,,,,,,,,,,,0,,,74,64
143020,note_off,0,0,1,,,,,,,,,,,,,,0,,,62,64
143040,note_off,0,0,2,,,,,,,,,,,,,,1,,,42,64
143040,note_on,20,0,1,,,,,,,,,,,,,,0,,,62,90
143040,note_on,0,0,1,,,,,,,,,,,,,,0,,,74,90
143040,note_off,960,0,2,,,,,,,,,,,,,,1,,,54,64
143040,note_off,720,0,4,,,,,,,,,,,,,,3,,,74,64
143180,note_off,0,0,1,,,,,,,,,,,,,,0,,,74,64
143180,note_off,140,0,1,,,,,,,,,,,,,,0,,,62,64
143200,note_on,0,0,1,,,,,,,,,,,,,,0,,,62,90
143200,note_on,20,0,1,,,,,,,,,,,,,,0,,,74,90
143340,note_off,0,0,1,,,,,,,,,,,,,,0,,,62,64
143340,note_off,140,0,1,,,,,,,,,,,,,,0,,,74,64
143360,note_on,20,0,1,,,,,,,,,,,,,,0,,,62,90
143360,note_on,0,0,1,,,,,,,,,,,,,,0,,,74,90
143500,note_off,140,0,1,,,,,,,,,,,,,,0,,,62,64
143500,note_off,0,0,1,,,,,,,,,,,,,,0,,,74,64
143520,note_on,0,0,2,,,,,,,,,,,,,,1,,,47,100
143520,note_on,480,0,2,,,,,,,,,,,,,,1,,,59,100
143520,note_on,480,0,4,,,,,,,,,,,,,,3,,,74,90
143520,note_on,20,0,1,,,,,,,,,,,,,,0,,,74,90
143520,note_on,0,0,1,,,,,,,,,,,,,,0,,,62,90
143660,note_off,140,0,1,,,,,,,,,,,,,,0,,,74,64
143660,note_off,0,0,1,,,,,,,,,,,,,,0,,,62,64
143680,note_on,0,0,1,,,,,,,,,,,,,,0,,,74,90
143680,note_on,20,0,1,,,,,,,,,,,,,,0,,,62,90
143820,note_off,140,0,1,,,,,,,,,,,,,,0,,,62,64
143820,note_off,0,0,1,,,,,,,,,,,,,,0,,,74,64
143840,note_on,0,0,1,,,,,,,,,,,,,,0,,,74,90
143840,note_on,20,0,1,,,,,,,,,,,,,,0,,,62,90
143980,note_off,0,0,1,,,,,,,,,,,,,,0,,,74,64
143980,note_off,140,0,1,,,,,,,,,,,,,,0,,,62,64
144000,note_off,480,0,2,,,,,,,,,,,,,,1,,,59,64
144000,note_on,0,0,4,,,,,,,,,,,,,,3,,,75,90
144000,note_off,480,0,4,,,,,,,,,,,,,,3,,,74,64
144000,note_off,0,0,2,,,,,,,,,,,,,,1,,,47,64
144000,note_on,0,0,1,,,,,,,,,,,,,,0,,,74,90
144000,note_on,20,0,1,,,,,,,,,,,,,,0,,,62,90
144000,note_on,0,0,2,,,,,,,,,,,,,,1,,,60,100
144000,note_on,0,0,2,,,,,,,,,,,,,,1,,,48,100
144140,note_off,140,0,1,,,,,,,,,,,,,,0,,,62,64
144140,note_off,0,0,1,,,,,,,,,,,,,,0,,,74,64
144160,note_on,20,0,1,,,,,,,,,,,,,,0,,,74,90
144160,note_on,0,0,1,,,,,,,,,,,,,,0,,,62,90
144300,note_off,140,0,1,,,,,,,,,,,,,,0,,,74,64
144300,note_off,0,0,1,,,,,,,,,,,,,,0,,,62,64
144320,note_on,20,0,1,,,,,,,,,,,,,,0,,,62,90
144320,note_on,0,0,1,,,,,,,,,,,,,,0,,,74,90
144460,note_off,140,0,1,,,,,,,,,,,,,,0,,,62,64
144460,note_off,0,0,1,,,,,,,,,,,,,,0,,,74,64
144480,note_on,0,0,1,,,,,,,,,,,,,,0,,,62,90
144480,note_on,20,0,1,,,,,,,,,,,,,,0,,,74,90
144620,note_off,0,0,1,,,,,,,,,,,,,,0,,,62,64
144620,note_off,140,0,1,,,,,,,,,,,,,,0,,,74,64
144640,note_on,20,0,1,,,,,,,,,,,,,,0,,,62,90
144640,note_on,0,0,1,,,,,,,,,,,,,,0,,,74,90
144780,note_off,140,0,1,,,,,,,,,,,,,,0,,,62,64
144780,note_off,0,0,1,,,,,,,,,,,,,,0,,,74,64
144800,note_on,20,0,1,,,,,,,,,,,,,,0,,,74,90
144800,note_on,0,0,1,,,,,,,,,,,,,,0,,,62,90
144940,note_off,140,0,1,,,,,,,,,,,,,,0,,,74,64
144940,note_off,0,0,1,,,,,,,,,,,,,,0,,,62,64
144960,note_off,960,0,4,,,,,,,,,,,,,,3,,,75,64
144960,note_on,20,0,1,,,,,,,,,,,,,,0,,,62,90
144960,note_off,960,0,2,,,,,,,,,,,,,,1,,,60,64
144960,note_off,0,0,2,,,,,,,,,,,,,,1,,,48,64
144960,note_on,0,0,2,,,,,,,,,,,,,,1,,,45,100
144960,note_on,0,0,2,,,,,,,,,,,,,,1,,,57,100
144960,note_on,0,0,1,,,,,,,,,,,,,,0,,,74,90
144960,note_on,0,0,4,,,,,,,,,,,,,,3,,,75,90
145100,note_off,0,0,1,,,,,,,,,,,,,,0,,,74,64
145100,note_off,140,0,1,,,,,,,,,,,,,,0,,,62,64
145120,note_on,20,0,1,,,,,,,,,,,,,,0,,,74,90
145120,note_on,0,0,1,,,,,,,,,,,,,,0,,,62,90
145260,note_off,140,0,1,,,,,,,,,,,,,,0,,,74,64
145260,note_off,0,0,1,,,,,,,,,,,,,,0,,,62,64
145280,note_on,20,0,1,,,,,,,,,,,,,,0,,,62,90
145280,note_on,0,0,1,,,,,,,,,,,,,,0,,,74,90
145420,note_off,140,0,1,,,,,,,,,,,,,,0,,,62,64
145420,note_off,0,0,1,,,,,,,,,,,,,,0,,,74,64
145440,note_on,20,0,1,,,,,,,,,,,,,,0,,,74,90
145440,note_on,0,0,1,,,,,,,,,,,,,,0,,,62,90
145580,note_off,140,0,1,,,,,,,,,,,,,,0,,,74,64
145580,note_off,0,0,1,,,,,,,,,,,,,,0,,,62,64
145600,note_on,0,0,1,,,,,,,,,,,,,,0,,,74,90
145600,note_on,20,0,1,,,,,,,,,,,,,,0,,,62,90
145680,note_off,720,0,4,,,,,,,,,,,,,,3,,,75,64
145680,note_on,0,0,4,,,,,,,,,,,,,,3,,,75,90
145740,note_off,140,0,1,,,,,,,,,,,,,,0,,,62,64
145740,note_off,0,0,1,,,,,,,,,,,,,,0,,,74,64
145760,note_on,20,0,1,,,,,,,,,,,,,,0,,,62,90
145760,note_on,0,0,1,,,,,,,,,,,,,,0,,,74,90
145900,note_off,140,0,1,,,,,,,,,,,,,,0,,,62,64
145900,note_off,0,0,1,,,,,,,,,,,,,,0,,,74,64
145920,note_on,0,0,1,,,,,,,,,,,,,,0,,,74,90
145920,note_on,20,0,1,,,,,,,,,,,,,,0,,,62,90
145920,note_on,0,0,4,,,,,,,,,,,,,,3,,,74,90
145920,note_off,240,0,4,,,,,,,,,,,,,,3,,,75,64
145920,note_off,960,0,2,,,,,,,,,,,,,,1,,,45,64
145920,note_off,0,0,2,,,,,,,,,,,,,,1,,,57,64
145920,note_on,0,0,2,,,,,,,,,,,,,,1,,,54,100
145920,note_on,0,0,2,,,,,,,,,,,,,,1,,,42,100
146060,note_off,140,0,1,,,,,,,,,,,,,,0,,,62,64
146060,note_off,0,0,1,,,,,,,,,,,,,,0,,,74,64
146080,note_on,0,0,1,,,,,,,,,,,,,,0,,,62,90
146080,note_on,20,0,1,,,,,,,,,,,,,,0,,,74,90
146220,note_off,0,0,1,,,,,,,,,,,,,,0,,,62,64
146220,note_off,140,0,1,,,,,,,,,,,,,,0,,,74,64
146240,note_on,0,0,1,,,,,,,,,,,,,,0,,,74,90
146240,note_on,20,0,1,,,,,,,,,,,,,,0,,,62,90
146380,note_off,0,0,1,,,,,,,,,,,,,,0,,,74,64
146380,note_off,140,0,1,,,,,,,,,,,,,,0,,,62,64
146400,note_on,20,0,1,,,,,,,,,,,,,,0,,,74,90
146400,note_on,0,0,1,,,,,,,,,,,,,,0,,,62,90
146540,note_off,140,0,1,,,,,,,,,,,,,,0,,,74,64
146540,note_off,0,0,1,,,,,,,,,,,,,,0,,,62,64
146560,note_on,20,0,1,,,,,,,,,,,,,,0,,,62,90
146560,note_on,0,0,1,,,,,,,,,,,,,,0,,,74,90
146700,note_off,140,0,1,,,,,,,,,,,,,,0,,,62,64
146700,note_off,0,0,1,,,,,,,,,,,,,,0,,,74,64
146720,note_on,20,0,1,,,,,,,,,,,,,,0,,,74,90
146720,note_on,0,0,1,,,,,,,,,,,,,,0,,,62,90
146860,note_off,140,0,1,,,,,,,,,,,,,,0,,,74,64
146860,note_off,0,0,1,,,,,,,,,,,,,,0,,,62,64
146880,note_off,960,0,4,,,,,,,,,,,,,,3,,,74,64
146880,note_on,20,0,1,,,,,,,,,,,,,,0,,,62,90
146880,note_on,0,0,1,,,,,,,,,,,,,,0,,,74,90
146880,note_off,960,0,2,,,,,,,,,,,,,,1,,,54,64
146880,note_off,0,0,2,,,,,,,,,,,,,,1,,,42,64
147020,note_off,0,0,1,,,,,,,,,,,,,,0,,,74,64
147020,note_off,140,0,1,,,,,,,,,,,,,,0,,,62,64
147040,note_on,20,0,1,,,,,,,,,,,,,,0,,,74,90
147040,note_on,0,0,1,,,,,,,,,,,,,,0,,,62,90
147180,note_off,140,0,1,,,,,,,,,,,,,,0,,,74,64
147180,note_off,0,0,1,,,,,,,,,,,,,,0,,,62,64
147200,note_on,20,0,1,,,,,,,,,,,,,,0,,,62,90
147200,note_on,0,0,1,,,,,,,,,,,,,,0,,,74,90
147340,note_off,140,0,1,,,,,,,,,,,,,,0,,,62,64
147340,note_off,0,0,1,,,,,,,,,,,,,,0,,,74,64
147360,note_on,20,0,1,,,,,,,,,,,,,,0,,,74,90
147360,note_on,0,0,1,,,,,,,,,,,,,,0,,,62,90
147360,note_on,480,0,2,,,,,,,,,,,,,,1,,,54,90
147360,note_on,480,0,4,,,,,,,,,,,,,,3,,,69,90
147500,note_off,140,0,1,,,,,,,,,,,,,,0,,,74,64
147500,note_off,0,0,1,,,,,,,,,,,,,,0,,,62,64
147520,note_on,20,0,1,,,,,,,,,,,,,,0,,,62,90
147520,note_on,0,0,1,,,,,,,,,,,,,,0,,,74,90
147660,note_off,0,0,1,,,,,,,,,,,,,,0,,,74,64
147660,note_off,140,0,1,,,,,,,,,,,,,,0,,,62,64
147680,note_on,20,0,1,,,,,,,,,,,,,,0,,,62,90
147680,note_on,0,0,1,,,,,,,,,,,,,,0,,,74,90
147820,note_off,140,0,1,,,,,,,,,,,,,,0,,,62,64
147820,note_off,0,0,1,,,,,,,,,,,,,,0,,,74,64
147840,note_off,480,0,4,,,,,,,,,,,,,,3,,,69,64
147840,note_on,20,0,1,,,,,,,,,,,,,,0,,,62,90
147840,note_off,480,0,2,,,,,,,,,,,,,,1,,,54,64
147840,note_on,0,0,2,,,,,,,,,,,,,,1,,,55,90
147840,note_on,0,0,1,,,,,,,,,,,,,,0,,,74,90
147840,note_on,0,0,4,,,,,,,,,,,,,,3,,,70,90
147980,note_off,140,0,1,,,,,,,,,,,,,,0,,,62,64
147980,note_off,0,0,1,,,,,,,,,,,,,,0,,,74,64
148000,note_on,0,0,1,,,,,,,,,,,,,,0,,,62,90
148000,note_on,20,0,1,,,,,,,,,,,,,,0,,,74,90
148140,note_off,140,0,1,,,,,,,,,,,,,,0,,,74,64
148140,note_off,0,0,1,,,,,,,,,,,,,,0,,,62,64
148160,note_on,20,0,1,,,,,,,,,,,,,,0,,,62,90
148160,note_on,0,0,1,,,,,,,,,,,,,,0,,,74,90
148300,note_off,140,0,1,,,,,,,,,,,,,,0,,,62,64
148300,note_off,0,0,1,,,,,,,,,,,,,,0,,,74,64
148320,note_on,0,0,1,,,,,,,,,,,,,,0,,,62,90
148320,note_on,0,0,2,,,,,,,,,,,,,,1,,,54,90
148320,note_off,480,0,2,,,,,,,,,,,,,,1,,,55,64
148320,note_on,0,0,4,,,,,,,,,,,,,,3,,,69,90
148320,note_off,480,0,4,,,,,,,,,,,,,,3,,,70,64
148320,note_on,20,0,1,,,,,,,,,,,,,,0,,,74,90
148460,note_off,0,0,1,,,,,,,,,,,,,,0,,,62,64
148460,note_off,140,0,1,,,,,,,,,,,,,,0,,,74,64
148480,note_on,20,0,1,,,,,,,,,,,,,,0,,,62,90
148480,note_on,0,0,1,,,,,,,,,,,,,,0,,,74,90
148620,note_off,0,0,1,,,,,,,,,,,,,,0,,,74,64
148620,note_off,140,0,1,,,,,,,,,,,,,,0,,,62,64
148640,note_on,0,0,1,,,,,,,,,,,,,,0,,,62,90
148640,note_on,20,0,1,,,,,,,,,,,,,,0,,,74,90
148780,note_off,0,0,1,,,,,,,,,,,,,,0,,,62,64
148780,note_off,140,0,1,,,,,,,,,,,,,,0,,,74,64
148800,note_on,20,0,1,,,,,,,,,,,,,,0,,,62,90
148800,note_on,0,0,1,,,,,,,,,,,,,,0,,,74,90
148800,note_on,0,0,2,,,,,,,,,,,,,,1,,,55,90
148800,note_off,480,0,2,,,,,,,,,,,,,,1,,,54,64
148800,note_off,480,0,4,,,,,,,,,,,,,,3,,,69,64
148800,note_on,0,0,4,,,,,,,,,,,,,,3,,,70,90
148940,note_off,0,0,1,,,,,,,,,,,,,,0,,,74,64
148940,note_off,140,0,1,,,,,,,,,,,,,,0,,,62,64
148960,note_on,20,0,1,,,,,,,,,,,,,,0,,,74,90
148960,note_on,0,0,1,,,,,,,,,,,,,,0,,,62,90
149100,note_off,140,0,1,,,,,,,,,,,,,,0,,,74,64
149100,note_off,0,0,1,,,,,,,,,,,,,,0,,,62,64
149120,note_on,20,0,1,,,,,,,,,,,,,,0,,,62,90
149120,note_on,0,0,1,,,,,,,,,,,,,,0,,,74,90
149260,note_off,140,0,1,,,,,,,,,,,,,,0,,,62,64
149260,note_off,0,0,1,,,,,,,,,,,,,,0,,,74,64
149280,note_off,480,0,2,,,,,,,,,,,,,,1,,,55,64
149280,note_on,0,0,2,,,,,,,,,,,,,,1,,,56,90
149280,note_on,0,0,1,,,,,,,,,,,,,,0,,,62,90
149280,note_off,480,0,4,,,,,,,,,,,,,,3,,,70,64
149280,note_on,0,0,4,,,,,,,,,,,,,,3,,,71,90
149280,note_on,20,0,1,,,,,,,,,,,,,,0,,,74,90
149420,note_off,140,0,1,,,,,,,,,,,,,,0,,,74,64
149420,note_off,0,0,1,,,,,,,,,,,,,,0,,,62,64
149440,note_on,20,0,1,,,,,,,,,,,,,,0,,,62,90
149440,note_on,0,0,1,,,,,,,,,,,,,,0,,,74,90
149520,note_on,0,0,4,,,,,,,,,,,,,,3,,,71,90
149520,note_off,240,0,4,,,,,,,,,,,,,,3,,,71,64
149580,note_off,0,0,1,,,,,,,,,,,,,,0,,,74,64
149580,note_off,140,0,1,,,,,,,,,,,,,,0,,,62,64
149600,note_on,0,0,1,,,,,,,,,,,,,,0,,,74,90
149600,note_on,20,0,1,,,,,,,,,,,,,,0,,,62,90
149740,note_off,0,0,1,,,,,,,,,,,,,,0,,,74,64
149740,note_off,140,0,1,,,,,,,,,,,,,,0,,,62,64
149760,note_on,0,0,2,,,,,,,,,,,,,,1,,,57,90
149760,note_off,480,0,2,,,,,,,,,,,,,,1,,,56,64
149760,note_on,20,0,1,,,,,,,,,,,,,,0,,,62,90
149760,note_on,0,0,1,,,,,,,,,,,,,,0,,,74,90
149760,note_on,0,0,4,,,,,,,,,,,,,,3,,,72,90
149760,note_off,240,0,4,,,,,,,,,,,,,,3,,,71,64
149900,note_off,140,0,1,,,,,,,,,,,,,,0,,,62,64
149900,note_off,0,0,1,,,,,,,,,,,,,,0,,,74,64
149920,note_on,0,0,1,,,,,,,,,,,,,,0,,,62,90
149920,note_on,20,0,1,,,,,,,,,,,,,,0,,,74,90
150060,note_off,0,0,1,,,,,,,,,,,,,,0,,,62,64
150060,note_off,140,0,1,,,,,,,,,,,,,,0,,,74,64
150080,note_on,20,0,1,,,,,,,,,,,,,,0,,,62,90
150080,note_on,0,0,1,,,,,,,,,,,,,,0,,,74,90
150220,note_off,140,0,1,,,,,,,,,,,,,,0,,,62,64
150220,note_off,0,0,1,,,,,,,,,,,,,,0,,,74,64
150240,note_off,480,0,2,,,,,,,,,,,,,,1,,,57,64
150240,note_on,20,0,1,,,,,,,,,,,,,,0,,,74,90
150240,note_on,0,0,1,,,,,,,,,,,,,,0,,,62,90
150380,note_off,140,0,1,,,,,,,,,,,,,,0,,,74,64
150380,note_off,0,0,1,,,,,,,,,,,,,,0,,,62,64
150400,note_on,20,0,1,,,,,,,,,,,,,,0,,,62,90
150400,note_on,0,0,1,,,,,,,,,,,,,,0,,,74,90
150540,note_off,140,0,1,,,,,,,,,,,,,,0,,,62,64
150540,note_off,0,0,1,,,,,,,,,,,,,,0,,,74,64
150560,note_on,0,0,1,,,,,,,,,,,,,,0,,,62,90
150560,note_on,20,0,1,,,,,,,,,,,,,,0,,,74,90
150700,note_off,140,0,1,,,,,,,,,,,,,,0,,,74,64
150700,note_off,0,0,1,,,,,,,,,,,,,,0,,,62,64
150720,note_off,960,0,4,,,,,,,,,,,,,,3,,,72,64
150720,note_on,0,0,4,,,,,,,,,,,,,,3,,,73,90
150720,note_on,0,0,1,,,,,,,,,,,,,,0,,,74,90
150720,note_on,20,0,1,,,,,,,,,,,,,,0,,,62,90
150720,note_on,480,0,2,,,,,,,,,,,,,,1,,,58,90
150860,note_off,0,0,1,,,,,,,,,,,,,,0,,,74,64
150860,note_off,140,0,1,,,,,,,,,,,,,,0,,,62,64
150880,note_on,0,0,1,,,,,,,,,,,,,,0,,,62,90
150880,note_on,20,0,1,,,,,,,,,,,,,,0,,,74,90
151020,note_off,0,0,1,,,,,,,,,,,,,,0,,,62,64
151020,note_off,140,0,1,,,,,,,,,,,,,,0,,,74,64
151040,note_on,0,0,1,,,,,,,,,,,,,,0,,,74,90
151040,note_on,20,0,1,,,,,,,,,,,,,,0,,,62,90
151180,note_off,140,0,1,,,,,,,,,,,,,,0,,,62,64
151180,note_off,0,0,1,,,,,,,,,,,,,,0,,,74,64
151200,note_on,20,0,1,,,,,,,,,,,,,,0,,,74,90
151200,note_off,480,0,2,,,,,,,,,,,,,,1,,,58,64
151200,note_on,0,0,1,,,,,,,,,,,,,,0,,,62,90
151340,note_off,140,0,1,,,,,,,,,,,,,,0,,,74,64
151340,note_off,0,0,1,,,,,,,,,,,,,,0,,,62,64
151360,note_on,0,0,1,,,,,,,,,,,,,,0,,,74,90
151360,note_on,20,0,1,,,,,,,,,,,,,,0,,,62,90
151440,note_on,0,0,4,,,,,,,,,,,,,,3,,,73,90
151440,note_off,720,0,4,,,,,,,,,,,,,,3,,,73,64
151500,note_off,140,0,1,,,,,,,,,,,,,,0,,,62,64
151500,note_off,0,0,1,,,,,,,,,,,,,,0,,,74,64
151520,note_on,0,0,1,,,,,,,,,,,,,,0,,,74,90
151520,note_on,20,0,1,,,,,,,,,,,,,,0,,,62,90
151660,note_off,0,0,1,,,,,,,,,,,,,,0,,,74,64
151660,note_off,140,0,1,,,,,,,,,,,,,,0,,,62,64
151680,note_on,20,0,1,,,,,,,,,,,,,,0,,,62,90
151680,note_on,0,0,1,,,,,,,,,,,,,,0,,,74,90
151680,note_off,240,0,4,,,,,,,,,,,,,,3,,,73,64
151680,note_on,0,0,4,,,,,,,,,,,,,,3,,,74,90
151680,note_on,480,0,2,,,,,,,,,,,,,,1,,,59,90
151820,note_off,140,0,1,,,,,,,,,,,,,,0,,,62,64
151820,note_off,0,0,1,,,,,,,,,,,,,,0,,,74,64
151840,note_on,0,0,1,,,,,,,,,,,,,,0,,,62,90
151840,note_on,20,0,1,,,,,,,,,,,,,,0,,,74,90
151980,note_off,0,0,1,,,,,,,,,,,,,,0,,,62,64
151980,note_off,140,0,1,,,,,,,,,,,,,,0,,,74,64
152000,note_on,0,0,1,,,,,,,,,,,,,,0,,,74,90
152000,note_on,20,0,1,,,,,,,,,,,,,,0,,,62,90
152140,note_off,140,0,1,,,,,,,,,,,,,,0,,,62,64
152140,note_off,0,0,1,,,,,,,,,,,,,,0,,,74,64
152160,note_on,0,0,1,,,,,,,,,,,,,,0,,,62,90
152160,note_on,20,0,1,,,,,,,,,,,,,,0,,,74,90
152300,note_off,0,0,1,,,,,,,,,,,,,,0,,,62,64
152300,note_off,140,0,1,,,,,,,,,,,,,,0,,,74,64
152320,note_on,0,0,1,,,,,,,,,,,,,,0,,,74,90
152320,note_on,20,0,1,,,,,,,,,,,,,,0,,,62,90
152460,note_off,0,0,1,,,,,,,,,,,,,,0,,,74,64
152460,note_off,140,0,1,,,,,,,,,,,,,,0,,,62,64
152480,note_on,20,0,1,,,,,,,,,,,,,,0,,,74,90
152480,note_on,0,0,1,,,,,,,,,,,,,,0,,,62,90
152620,note_off,140,0,1,,,,,,,,,,,,,,0,,,74,64
152620,note_off,0,0,1,,,,,,,,,,,,,,0,,,62,64
152640,note_on,0,0,1,,,,,,,,,,,,,,0,,,74,90
152640,note_on,20,0,1,,,,,,,,,,,,,,0,,,62,90
152780,note_off,140,0,1,,,,,,,,,,,,,,0,,,62,64
152780,note_off,0,0,1,,,,,,,,,,,,,,0,,,74,64
152800,note_on,20,0,1,,,,,,,,,,,,,,0,,,74,90
152800,note_on,0,0,1,,,,,,,,,,,,,,0,,,62,90
152940,note_off,140,0,1,,,,,,,,,,,,,,0,,,74,64
152940,note_off,0,0,1,,,,,,,,,,,,,,0,,,62,64
152960,note_on,20,0,1,,,,,,,,,,,,,,0,,,62,90
152960,note_on,0,0,1,,,,,,,,,,,,,,0,,,74,90
153100,note_off,140,0,1,,,,,,,,,,,,,,0,,,62,64
153100,note_off,0,0,1,,,,,,,,,,,,,,0,,,74,64
153120,note_on,20,0,1,,,,,,,,,,,,,,0,,,74,90
153120,note_on,0,0,1,,,,,,,,,,,,,,0,,,62,90
153260,note_off,0,0,1,,,,,,,,,,,,,,0,,,62,64
153260,note_off,140,0,1,,,,,,,,,,,,,,0,,,74,64
153280,note_on,20,0,1,,,,,,,,,,,,,,0,,,62,90
153280,note_on,0,0,1,,,,,,,,,,,,,,0,,,74,90
153420,note_off,140,0,1,,,,,,,,,,,,,,0,,,62,64
153420,note_off,0,0,1,,,,,,,,,,,,,,0,,,74,64
153440,note_on,0,0,1,,,,,,,,,,,,,,0,,,74,90
153440,note_on,20,0,1,,,,,,,,,,,,,,0,,,62,90
153580,note_off,140,0,1,,,,,,,,,,,,,,0,,,62,64
153580,note_off,0,0,1,,,,,,,,,,,,,,0,,,74,64
153600,note_off,1920,0,4,,,,,,,,,,,,,,3,,,74,64
153600,note_on,20,0,1,,,,,,,,,,,,,,0,,,62,90
153600,note_on,0,0,1,,,,,,,,,,,,,,0,,,74,90
153740,note_off,140,0,1,,,,,,,,,,,,,,0,,,62,64
153740,note_off,0,0,1,,,,,,,,,,,,,,0,,,74,64
153760,note_on,0,0,1,,,,,,,,,,,,,,0,,,62,90
153760,note_on,20,0,1,,,,,,,,,,,,,,0,,,74,90
153900,note_off,140,0,1,,,,,,,,,,,,,,0,,,74,64
153900,note_off,0,0,1,,,,,,,,,,,,,,0,,,62,64
153920,note_on,20,0,1,,,,,,,,,,,,,,0,,,62,90
153920,note_on,0,0,1,,,,,,,,,,,,,,0,,,74,90
153940,control_change,20,0,1,,,,,,,,,,,,,,0,11,82,,
153999,control_change,59,0,1,,,,,,,,,,,,,,0,11,81,,
154059,control_change,60,0,1,,,,,,,,,,,,,,0,11,80,,
154060,note_off,1,0,1,,,,,,,,,,,,,,0,,,62,64
154060,note_off,0,0,1,,,,,,,,,,,,,,0,,,74,64
154080,note_on,0,0,1,,,,,,,,,,,,,,0,,,73,90
154080,note_on,0,0,2,,,,,,,,,,,,,,1,,,52,90
154080,note_on,20,0,1,,,,,,,,,,,,,,0,,,64,90
154080,note_off,2400,0,2,,,,,,,,,,,,,,1,,,59,64
154080,note_on,0,0,1,,,,,,,,,,,,,,0,,,67,90
154118,control_change,38,0,1,,,,,,,,,,,,,,0,11,79,,
154178,control_change,60,0,1,,,,,,,,,,,,,,0,11,78,,
154220,note_off,0,0,1,,,,,,,,,,,,,,0,,,73,64
154220,note_off,42,0,1,,,,,,,,,,,,,,0,,,64,64
154220,note_off,0,0,1,,,,,,,,,,,,,,0,,,67,64
154237,control_change,17,0,1,,,,,,,,,,,,,,0,11,77,,
154240,note_on,3,0,1,,,,,,,,,,,,,,0,,,67,90
154240,note_on,0,0,1,,,,,,,,,,,,,,0,,,64,90
154240,note_on,0,0,1,,,,,,,,,,,,,,0,,,73,90
154297,control_change,57,0,1,,,,,,,,,,,,,,0,11,76,,
154357,control_change,60,0,1,,,,,,,,,,,,,,0,11,75,,
154380,note_off,23,0,1,,,,,,,,,,,,,,0,,,67,64
154380,note_off,0,0,1,,,,,,,,,,,,,,0,,,64,64
154380,note_off,0,0,1,,,,,,,,,,,,,,0,,,73,64
154400,note_on,20,0,1,,,,,,,,,,,,,,0,,,64,90
154400,note_on,0,0,1,,,,,,,,,,,,,,0,,,67,90
154400,note_on,0,0,1,,,,,,,,,,,,,,0,,,73,90
154416,control_change,16,0,1,,,,,,,,,,,,,,0,11,74,,
154440,note_off,360,0,2,,,,,,,,,,,,,,1,,,52,64
154476,control_change,60,0,1,,,,,,,,,,,,,,0,11,73,,
154535,control_change,59,0,1,,,,,,,,,,,,,,0,11,72,,
154540,note_off,5,0,1,,,,,,,,,,,,,,0,,,64,64
154540,note_off,0,0,1,,,,,,,,,,,,,,0,,,67,64
154540,note_off,0,0,1,,,,,,,,,,,,,,0,,,73,64
154560,note_on,20,0,1,,,,,,,,,,,,,,0,,,62,90
154560,note_on,0,0,1,,,,,,,,,,,,,,0,,,66,90
154560,note_on,0,0,1,,,,,,,,,,,,,,0,,,71,90
154560,note_on,120,0,2,,,,,,,,,,,,,,1,,,54,90
154595,control_change,35,0,1,,,,,,,,,,,,,,0,11,71,,
154620,control_change,49020,0,3,,,,,,,,,,,,,,2,11,94,,
154655,control_change,60,0,1,,,,,,,,,,,,,,0,11,70,,
154700,note_off,0,0,1,,,,,,,,,,,,,,0,,,66,64
154700,note_off,45,0,1,,,,,,,,,,,,,,0,,,62,64
154700,note_off,0,0,1,,,,,,,,,,,,,,0,,,71,64
154714,control_change,14,0,1,,,,,,,,,,,,,,0,11,69,,
154720,note_on,0,0,1,,,,,,,,,,,,,,0,,,62,90
154720,note_on,0,0,1,,,,,,,,,,,,,,0,,,71,90
154720,note_on,6,0,1,,,,,,,,,,,,,,0,,,66,90
154774,control_change,54,0,1,,,,,,,,,,,,,,0,11,68,,
154833,control_change,59,0,1,,,,,,,,,,,,,,0,11,67,,
154860,note_off,0,0,1,,,,,,,,,,,,,,0,,,62,64
154860,note_off,27,0,1,,,,,,,,,,,,,,0,,,66,64
154860,note_off,0,0,1,,,,,,,,,,,,,,0,,,71,64
154880,note_on,20,0,1,,,,,,,,,,,,,,0,,,62,90
154880,note_on,0,0,1,,,,,,,,,,,,,,0,,,66,90
154880,note_on,0,0,1,,,,,,,,,,,,,,0,,,71,90
154893,control_change,13,0,1,,,,,,,,,,,,,,0,11,66,,
154920,note_off,360,0,2,,,,,,,,,,,,,,1,,,54,64
154952,control_change,59,0,1,,,,,,,,,,,,,,0,11,65,,
155012,control_change,60,0,1,,,,,,,,,,,,,,0,11,64,,
155020,note_off,8,0,1,,,,,,,,,,,,,,0,,,62,64
155020,note_off,0,0,1,,,,,,,,,,,,,,0,,,66,64
155020,note_off,0,0,1,,,,,,,,,,,,,,0,,,71,64
155040,note_on,420,0,3,,,,,,,,,,,,,,2,,,66,90
155040,note_on,120,0,2,,,,,,,,,,,,,,1,,,54,90
155040,note_on,0,0,1,,,,,,,,,,,,,,0,,,70,90
155040,note_on,0,0,1,,,,,,,,,,,,,,0,,,66,90
155040,note_on,20,0,1,,,,,,,,,,,,,,0,,,61,90
155072,control_change,32,0,1,,,,,,,,,,,,,,0,11,63,,
155131,control_change,59,0,1,,,,,,,,,,,,,,0,11,62,,
155180,note_off,0,0,1,,,,,,,,,,,,,,0,,,66,64
155180,note_off,49,0,1,,,,,,,,,,,,,,0,,,61,64
155180,note_off,0,0,1,,,,,,,,,,,,,,0,,,70,64
155191,control_change,11,0,1,,,,,,,,,,,,,,0,11,61,,
155200,note_on,9,0,1,,,,,,,,,,,,,,0,,,66,90
155200,note_on,0,0,1,,,,,,,,,,,,,,0,,,61,90
155200,note_on,0,0,1,,,,,,,,,,,,,,0,,,70,90
155250,control_change,50,0,1,,,,,,,,,,,,,,0,11,60,,
155310,control_change,60,0,1,,,,,,,,,,,,,,0,11,59,,
155340,note_off,0,0,1,,,,,,,,,,,,,,0,,,70,64
155340,note_off,0,0,1,,,,,,,,,,,,,,0,,,61,64
155340,note_off,30,0,1,,,,,,,,,,,,,,0,,,66,64
155360,note_on,0,0,1,,,,,,,,,,,,,,0,,,70,90
155360,note_on,0,0,1,,,,,,,,,,,,,,0,,,66,90
155360,note_on,20,0,1,,,,,,,,,,,,,,0,,,61,90
155369,control_change,9,0,1,,,,,,,,,,,,,,0,11,58,,
155400,note_off,360,0,2,,,,,,,,,,,,,,1,,,54,64
155500,note_off,131,0,1,,,,,,,,,,,,,,0,,,61,64
155500,note_off,0,0,1,,,,,,,,,,,,,,0,,,66,64
155500,note_off,0,0,1,,,,,,,,,,,,,,0,,,70,64
155520,note_on,20,0,1,,,,,,,,,,,,,,0,,,62,90
155520,note_on,0,0,1,,,,,,,,,,,,,,0,,,66,90
155520,note_on,0,0,1,,,,,,,,,,,,,,0,,,71,90
155520,note_on,0,0,3,,,,,,,,,,,,,,2,,,71,90
155520,note_off,480,0,3,,,,,,,,,,,,,,2,,,66,64
155520,note_on,120,0,2,,,,,,,,,,,,,,1,,,47,90
155660,note_off,140,0,1,,,,,,,,,,,,,,0,,,62,64
155660,note_off,0,0,1,,,,,,,,,,,,,,0,,,71,64
155660,note_off,0,0,1,,,,,,,,,,,,,,0,,,66,64
155680,note_on,0,0,1,,,,,,,,,,,,,,0,,,62,90
155680,note_on,0,0,1,,,,,,,,,,,,,,0,,,71,90
155680,note_on,20,0,1,,,,,,,,,,,,,,0,,,66,90
155820,note_off,140,0,1,,,,,,,,,,,,,,0,,,66,64
155820,note_off,0,0,1,,,,,,,,,,,,,,0,,,62,64
155820,note_off,0,0,1,,,,,,,,,,,,,,0,,,71,64
155840,note_on,0,0,1,,,,,,,,,,,,,,0,,,71,90
155840,note_on,0,0,1,,,,,,,,,,,,,,0,,,66,90
155840,note_on,20,0,1,,,,,,,,,,,,,,0,,,62,90
155980,note_off,0,0,1,,,,,,,,,,,,,,0,,,66,64
155980,note_off,140,0,1,,,,,,,,,,,,,,0,,,62,64
155980,note_off,0,0,1,,,,,,,,,,,,,,0,,,71,64
156000,note_off,480,0,3,,,,,,,,,,,,,,2,,,71,64
156000,note_on,0,0,3,,,,,,,,,,,,,,2,,,71,90
156000,note_on,0,0,1,,,,,,,,,,,,,,0,,,71,90
156000,note_on,0,0,1,,,,,,,,,,,,,,0,,,66,90
156000,note_on,20,0,1,,,,,,,,,,,,,,0,,,62,90
156140,note_off,0,0,1,,,,,,,,,,,,,,0,,,71,64
156140,note_off,0,0,1,,,,,,,,,,,,,,0,,,66,64
156140,note_off,140,0,1,,,,,,,,,,,,,,0,,,62,64
156160,note_on,0,0,1,,,,,,,,,,,,,,0,,,71,90
156160,note_on,0,0,1,,,,,,,,,,,,,,0,,,62,90
156160,note_on,20,0,1,,,,,,,,,,,,,,0,,,66,90
156300,note_off,0,0,1,,,,,,,,,,,,,,0,,,62,64
156300,note_off,140,0,1,,,,,,,,,,,,,,0,,,66,64
156300,note_off,0,0,1,,,,,,,,,,,,,,0,,,71,64
156320,note_on,0,0,1,,,,,,,,,,,,,,0,,,71,90
156320,note_on,0,0,1,,,,,,,,,,,,,,0,,,66,90
156320,note_on,20,0,1,,,,,,,,,,,,,,0,,,62,90
156460,note_off,0,0,1,,,,,,,,,,,,,,0,,,71,64
156460,note_off,0,0,1,,,,,,,,,,,,,,0,,,66,64
156460,note_off,140,0,1,,,,,,,,,,,,,,0,,,62,64
156480,note_on,20,0,1,,,,,,,,,,,,,,0,,,62,90
156480,note_on,0,0,1,,,,,,,,,,,,,,0,,,71,90
156480,note_off,480,0,3,,,,,,,,,,,,,,2,,,71,64
156480,note_on,0,0,1,,,,,,,,,,,,,,0,,,66,90
156620,note_off,140,0,1,,,,,,,,,,,,,,0,,,62,64
156620,note_off,0,0,1,,,,,,,,,,,,,,0,,,66,64
156620,note_off,0,0,1,,,,,,,,,,,,,,0,,,71,64
156640,note_on,20,0,1,,,,,,,,,,,,,,0,,,66,90
156640,note_on,0,0,1,,,,,,,,,,,,,,0,,,62,90
156640,note_on,0,0,1,,,,,,,,,,,,,,0,,,71,90
156780,note_off,140,0,1,,,,,,,,,,,,,,0,,,66,64
156780,note_off,0,0,1,,,,,,,,,,,,,,0,,,62,64
156780,note_off,0,0,1,,,,,,,,,,,,,,0,,,71,64
156800,note_on,20,0,1,,,,,,,,,,,,,,0,,,62,90
156800,note_on,0,0,1,,,,,,,,,,,,,,0,,,66,90
156800,note_on,0,0,1,,,,,,,,,,,,,,0,,,71,90
156940,note_off,140,0,1,,,,,,,,,,,,,,0,,,62,64
156940,note_off,0,0,1,,,,,,,,,,,,,,0,,,71,64
156940,note_off,0,0,1,,,,,,,,,,,,,,0,,,66,64
156960,note_on,0,0,1,,,,,,,,,,,,,,0,,,69,90
156960,note_on,480,0,3,,,,,,,,,,,,,,2,,,66,90
156960,note_on,20,0,1,,,,,,,,,,,,,,0,,,63,90
156960,note_on,0,0,1,,,,,,,,,,,,,,0,,,66,90
157100,note_off,0,0,1,,,,,,,,,,,,,,0,,,69,64
157100,note_off,0,0,1,,,,,,,,,,,,,,0,,,66,64
157100,note_off,140,0,1,,,,,,,,,,,,,,0,,,63,64
157120,note_on,0,0,1,,,,,,,,,,,,,,0,,,63,90
157120,note_on,0,0,1,,,,,,,,,,,,,,0,,,69,90
157120,note_on,20,0,1,,,,,,,,,,,,,,0,,,66,90
157200,note_off,240,0,3,,,,,,,,,,,,,,2,,,66,64
157200,note_on,0,0,3,,,,,,,,,,,,,,2,,,66,90
157260,note_off,140,0,1,,,,,,,,,,,,,,0,,,66,64
157260,note_off,0,0,1,,,,,,,,,,,,,,0,,,63,64
157260,note_off,0,0,1,,,,,,,,,,,,,,0,,,69,64
157280,note_on,0,0,1,,,,,,,,,,,,,,0,,,69,90
157280,note_on,0,0,1,,,,,,,,,,,,,,0,,,66,90
157280,note_on,20,0,1,,,,,,,,,,,,,,0,,,63,90
157420,note_off,0,0,1,,,,,,,,,,,,,,0,,,66,64
157420,note_off,140,0,1,,,,,,,,,,,,,,0,,,63,64
157420,note_off,0,0,1,,,,,,,,,,,,,,0,,,69,64
157440,note_on,0,0,2,,,,,,,,,,,,,,1,,,40,90
157440,note_on,0,0,3,,,,,,,,,,,,,,2,,,69,90
157440,note_off,240,0,3,,,,,,,,,,,,,,2,,,66,64
157440,note_on,20,0,1,,,,,,,,,,,,,,0,,,59,90
157440,note_on,0,0,1,,,,,,,,,,,,,,0,,,64,90
157440,note_on,0,0,1,,,,,,,,,,,,,,0,,,67,90
157440,note_off,1920,0,2,,,,,,,,,,,,,,1,,,47,64
157580,note_off,140,0,1,,,,,,,,,,,,,,0,,,59,64
157580,note_off,0,0,1,,,,,,,,,,,,,,0,,,64,64
157580,note_off,0,0,1,,,,,,,,,,,,,,0,,,67,64
157600,note_on,20,0,1,,,,,,,,,,,,,,0,,,64,90
157600,note_on,0,0,1,,,,,,,,,,,,,,0,,,59,90
157600,note_on,0,0,1,,,,,,,,,,,,,,0,,,67,90
157740,note_off,140,0,1,,,,,,,,,,,,,,0,,,64,64
157740,note_off,0,0,1,,,,,,,,,,,,,,0,,,59,64
157740,note_off,0,0,1,,,,,,,,,,,,,,0,,,67,64
157760,note_on,0,0,1,,,,,,,,,,,,,,0,,,67,90
157760,note_on,0,0,1,,,,,,,,,,,,,,0,,,64,90
157760,note_on,20,0,1,,,,,,,,,,,,,,0,,,59,90
157900,note_off,0,0,1,,,,,,,,,,,,,,0,,,67,64
157900,note_off,0,0,1,,,,,,,,,,,,,,0,,,64,64
157900,note_off,140,0,1,,,,,,,,,,,,,,0,,,59,64
157920,note_on,0,0,3,,,,,,,,,,,,,,2,,,67,90
157920,note_off,480,0,3,,,,,,,,,,,,,,2,,,69,64
157920,note_on,0,0,1,,,,,,,,,,,,,,0,,,67,90
157920,note_on,0,0,1,,,,,,,,,,,,,,0,,,64,90
157920,note_on,20,0,1,,,,,,,,,,,,,,0,,,59,90
158060,note_off,0,0,1,,,,,,,,,,,,,,0,,,64,64
158060,note_off,140,0,1,,,,,,,,,,,,,,0,,,59,64
158060,note_off,0,0,1,,,,,,,,,,,,,,0,,,67,64
158080,note_on,20,0,1,,,,,,,,,,,,,,0,,,64,90
158080,note_on,0,0,1,,,,,,,,,,,,,,0,,,59,90
158080,note_on,0,0,1,,,,,,,,,,,,,,0,,,67,90
158160,note_on,0,0,3,,,,,,,,,,,,,,2,,,66,90
158160,note_off,240,0,3,,,,,,,,,,,,,,2,,,67,64
158220,note_off,0,0,1,,,,,,,,,,,,,,0,,,67,64
158220,note_off,140,0,1,,,,,,,,,,,,,,0,,,64,64
158220,note_off,0,0,1,,,,,,,,,,,,,,0,,,59,64
158240,note_on,20,0,1,,,,,,,,,,,,,,0,,,59,90
158240,note_on,0,0,1,,,,,,,,,,,,,,0,,,64,90
158240,note_on,0,0,1,,,,,,,,,,,,,,0,,,67,90
158380,note_off,0,0,1,,,,,,,,,,,,,,0,,,64,64
158380,note_off,0,0,1,,,,,,,,,,,,,,0,,,67,64
158380,note_off,140,0,1,,,,,,,,,,,,,,0,,,59,64
158400,note_on,0,0,1,,,,,,,,,,,,,,0,,,67,90
158400,note_on,0,0,1,,,,,,,,,,,,,,0,,,64,90
158400,note_off,240,0,3,,,,,,,,,,,,,,2,,,66,64
158400,note_on,0,0,3,,,,,,,,,,,,,,2,,,67,90
158400,note_on,20,0,1,,,,,,,,,,,,,,0,,,59,90
158540,note_off,0,0,1,,,,,,,,,,,,,,0,,,67,64
158540,note_off,140,0,1,,,,,,,,,,,,,,0,,,59,64
158540,note_off,0,0,1,,,,,,,,,,,,,,0,,,64,64
158560,note_on,0,0,1,,,,,,,,,,,,,,0,,,67,90
158560,note_on,0,0,1,,,,,,,,,,,,,,0,,,59,90
158560,note_on,20,0,1,,,,,,,,,,,,,,0,,,64,90
158700,note_off,0,0,1,,,,,,,,,,,,,,0,,,67,64
158700,note_off,0,0,1,,,,,,,,,,,,,,0,,,59,64
158700,note_off,140,0,1,,,,,,,,,,,,,,0,,,64,64
158720,note_on,0,0,1,,,,,,,,,,,,,,0,,,67,90
158720,note_on,0,0,1,,,,,,,,,,,,,,0,,,64,90
158720,note_on,20,0,1,,,,,,,,,,,,,,0,,,59,90
158860,note_off,0,0,1,,,,,,,,,,,,,,0,,,67,64
158860,note_off,0,0,1,,,,,,,,,,,,,,0,,,64,64
158860,note_off,140,0,1,,,,,,,,,,,,,,0,,,59,64
158880,note_on,20,0,1,,,,,,,,,,,,,,0,,,59,90
158880,note_on,0,0,1,,,,,,,,,,,,,,0,,,64,90
158880,note_on,0,0,1,,,,,,,,,,,,,,0,,,67,90
159020,note_off,140,0,1,,,,,,,,,,,,,,0,,,59,64
159020,note_off,0,0,1,,,,,,,,,,,,,,0,,,64,64
159020,note_off,0,0,1,,,,,,,,,,,,,,0,,,67,64
159040,note_on,0,0,1,,,,,,,,,,,,,,0,,,59,90
159040,note_on,20,0,1,,,,,,,,,,,,,,0,,,64,90
159040,note_on,0,0,1,,,,,,,,,,,,,,0,,,67,90
159180,note_off,140,0,1,,,,,,,,,,,,,,0,,,64,64
159180,note_off,0,0,1,,,,,,,,,,,,,,0,,,59,64
159180,note_off,0,0,1,,,,,,,,,,,,,,0,,,67,64
159200,note_on,20,0,1,,,,,,,,,,,,,,0,,,59,90
159200,note_on,0,0,1,,,,,,,,,,,,,,0,,,64,90
159200,note_on,0,0,1,,,,,,,,,,,,,,0,,,67,90
159340,note_off,140,0,1,,,,,,,,,,,,,,0,,,59,64
159340,note_off,0,0,1,,,,,,,,,,,,,,0,,,64,64
159340,note_off,0,0,1,,,,,,,,,,,,,,0,,,67,64
159360,note_off,960,0,3,,,,,,,,,,,,,,2,,,67,64
159360,note_on,20,0,1,,,,,,,,,,,,,,0,,,59,90
159360,note_on,0,0,1,,,,,,,,,,,,,,0,,,64,90
159360,note_on,0,0,1,,,,,,,,,,,,,,0,,,67,90
159500,note_off,0,0,1,,,,,,,,,,,,,,0,,,67,64
159500,note_off,0,0,1,,,,,,,,,,,,,,0,,,64,64
159500,note_off,140,0,1,,,,,,,,,,,,,,0,,,59,64
159520,note_on,0,0,1,,,,,,,,,,,,,,0,,,67,90
159520,note_on,0,0,1,,,,,,,,,,,,,,0,,,59,90
159520,note_on,20,0,1,,,,,,,,,,,,,,0,,,64,90
159660,note_off,0,0,1,,,,,,,,,,,,,,0,,,59,64
159660,note_off,0,0,1,,,,,,,,,,,,,,0,,,67,64
159660,note_off,140,0,1,,,,,,,,,,,,,,0,,,64,64
159680,note_on,20,0,1,,,,,,,,,,,,,,0,,,59,90
159680,note_on,0,0,1,,,,,,,,,,,,,,0,,,67,90
159680,note_on,0,0,1,,,,,,,,,,,,,,0,,,64,90
159820,note_off,0,0,1,,,,,,,,,,,,,,0,,,64,64
159820,note_off,140,0,1,,,,,,,,,,,,,,0,,,59,64
159820,note_off,0,0,1,,,,,,,,,,,,,,0,,,67,64
159840,note_off,2400,0,2,,,,,,,,,,,,,,1,,,40,64
159840,note_on,0,0,2,,,,,,,,,,,,,,1,,,40,90
159840,note_on,20,0,1,,,,,,,,,,,,,,0,,,59,90
159840,note_on,0,0,1,,,,,,,,,,,,,,0,,,64,90
159840,note_on,0,0,1,,,,,,,,,,,,,,0,,,67,90
159840,note_on,480,0,3,,,,,,,,,,,,,,2,,,67,90
159980,note_off,0,0,1,,,,,,,,,,,,,,0,,,64,64
159980,note_off,140,0,1,,,,,,,,,,,,,,0,,,59,64
159980,note_off,0,0,1,,,,,,,,,,,,,,0,,,67,64
160000,note_on,20,0,1,,,,,,,,,,,,,,0,,,64,90
160000,note_on,0,0,1,,,,,,,,,,,,,,0,,,59,90
160000,note_on,0,0,1,,,,,,,,,,,,,,0,,,67,90
160140,note_off,0,0,1,,,,,,,,,,,,,,0,,,67,64
160140,note_off,140,0,1,,,,,,,,,,,,,,0,,,64,64
160140,note_off,0,0,1,,,,,,,,,,,,,,0,,,59,64
160160,note_on,20,0,1,,,,,,,,,,,,,,0,,,59,90
160160,note_on,0,0,1,,,,,,,,,,,,,,0,,,67,90
160160,note_on,0,0,1,,,,,,,,,,,,,,0,,,64,90
160300,note_off,0,0,1,,,,,,,,,,,,,,0,,,64,64
160300,note_off,140,0,1,,,,,,,,,,,,,,0,,,59,64
160300,note_off,0,0,1,,,,,,,,,,,,,,0,,,67,64
160320,note_off,480,0,3,,,,,,,,,,,,,,2,,,67,64
160320,note_on,20,0,1,,,,,,,,,,,,,,0,,,60,90
160320,note_on,0,0,1,,,,,,,,,,,,,,0,,,64,90
160320,note_on,0,0,1,,,,,,,,,,,,,,0,,,69,90
160320,note_on,0,0,3,,,,,,,,,,,,,,2,,,69,90
160320,note_off,480,0,2,,,,,,,,,,,,,,1,,,40,64
160320,note_on,0,0,2,,,,,,,,,,,,,,1,,,36,90
160460,note_off,140,0,1,,,,,,,,,,,,,,0,,,60,64
160460,note_off,0,0,1,,,,,,,,,,,,,,0,,,64,64
160460,note_off,0,0,1,,,,,,,,,,,,,,0,,,69,64
160480,note_on,0,0,1,,,,,,,,,,,,,,0,,,69,90
160480,note_on,0,0,1,,,,,,,,,,,,,,0,,,60,90
160480,note_on,20,0,1,,,,,,,,,,,,,,0,,,64,90
160620,note_off,0,0,1,,,,,,,,,,,,,,0,,,69,64
160620,note_off,0,0,1,,,,,,,,,,,,,,0,,,60,64
160620,note_off,140,0,1,,,,,,,,,,,,,,0,,,64,64
160640,note_on,20,0,1,,,,,,,,,,,,,,0,,,60,90
160640,note_on,0,0,1,,,,,,,,,,,,,,0,,,64,90
160640,note_on,0,0,1,,,,,,,,,,,,,,0,,,69,90
160780,note_off,0,0,1,,,,,,,,,,,,,,0,,,69,64
160780,note_off,140,0,1,,,,,,,,,,,,,,0,,,60,64
160780,note_off,0,0,1,,,,,,,,,,,,,,0,,,64,64
160800,note_on,0,0,1,,,,,,,,,,,,,,0,,,64,90
160800,note_on,0,0,1,,,,,,,,,,,,,,0,,,69,90
160800,note_on,0,0,2,,,,,,,,,,,,,,1,,,36,90
160800,note_off,480,0,2,,,,,,,,,,,,,,1,,,36,64
160800,note_off,480,0,3,,,,,,,,,,,,,,2,,,69,64
160800,note_on,20,0,1,,,,,,,,,,,,,,0,,,60,90
160800,note_on,0,0,3,,,,,,,,,,,,,,2,,,69,90
160940,note_off,0,0,1,,,,,,,,,,,,,,0,,,69,64
160940,note_off,0,0,1,,,,,,,,,,,,,,0,,,64,64
160940,note_off,140,0,1,,,,,,,,,,,,,,0,,,60,64
160960,note_on,0,0,1,,,,,,,,,,,,,,0,,,69,90
160960,note_on,0,0,1,,,,,,,,,,,,,,0,,,60,90
160960,note_on,20,0,1,,,,,,,,,,,,,,0,,,64,90
161100,note_off,140,0,1,,,,,,,,,,,,,,0,,,64,64
161100,note_off,0,0,1,,,,,,,,,,,,,,0,,,60,64
161100,note_off,0,0,1,,,,,,,,,,,,,,0,,,69,64
161120,note_on,0,0,1,,,,,,,,,,,,,,0,,,69,90
161120,note_on,20,0,1,,,,,,,,,,,,,,0,,,60,90
161120,note_on,0,0,1,,,,,,,,,,,,,,0,,,64,90
161260,note_off,140,0,1,,,,,,,,,,,,,,0,,,60,64
161260,note_off,0,0,1,,,,,,,,,,,,,,0,,,64,64
161260,note_off,0,0,1,,,,,,,,,,,,,,0,,,69,64
161280,note_off,480,0,2,,,,,,,,,,,,,,1,,,36,64
161280,note_off,480,0,3,,,,,,,,,,,,,,2,,,69,64
161280,note_on,0,0,1,,,,,,,,,,,,,,0,,,67,90
161280,note_on,0,0,1,,,,,,,,,,,,,,0,,,62,90
161280,note_on,20,0,1,,,,,,,,,,,,,,0,,,59,90
161280,note_on,0,0,3,,,,,,,,,,,,,,2,,,71,90
161280,note_on,0,0,2,,,,,,,,,,,,,,1,,,38,90
161420,note_off,140,0,1,,,,,,,,,,,,,,0,,,59,64
161420,note_off,0,0,1,,,,,,,,,,,,,,0,,,62,64
161420,note_off,0,0,1,,,,,,,,,,,,,,0,,,67,64
161440,note_on,20,0,1,,,,,,,,,,,,,,0,,,62,90
161440,note_on,0,0,1,,,,,,,,,,,,,,0,,,59,90
161440,note_on,0,0,1,,,,,,,,,,,,,,0,,,67,90
161580,note_off,140,0,1,,,,,,,,,,,,,,0,,,62,64
161580,note_off,0,0,1,,,,,,,,,,,,,,0,,,67,64
161580,note_off,0,0,1,,,,,,,,,,,,,,0,,,59,64
161600,note_on,0,0,1,,,,,,,,,,,,,,0,,,62,90
161600,note_on,20,0,1,,,,,,,,,,,,,,0,,,59,90
161600,note_on,0,0,1,,,,,,,,,,,,,,0,,,67,90
161740,note_off,0,0,1,,,,,,,,,,,,,,0,,,62,64
161740,note_off,0,0,1,,,,,,,,,,,,,,0,,,67,64
161740,note_off,140,0,1,,,,,,,,,,,,,,0,,,59,64
161760,note_on,20,0,1,,,,,,,,,,,,,,0,,,59,90
161760,note_on,0,0,1,,,,,,,,,,,,,,0,,,62,90
161760,note_on,0,0,1,,,,,,,,,,,,,,0,,,67,90
161760,note_on,0,0,3,,,,,,,,,,,,,,2,,,67,90
161760,note_off,480,0,3,,,,,,,,,,,,,,2,,,71,64
161760,note_off,480,0,2,,,,,,,,,,,,,,1,,,38,64
161900,note_off,140,0,1,,,,,,,,,,,,,,0,,,59,64
161900,note_off,0,0,1,,,,,,,,,,,,,,0,,,62,64
161900,note_off,0,0,1,,,,,,,,,,,,,,0,,,67,64
161920,note_on,0,0,1,,,,,,,,,,,,,,0,,,59,90
161920,note_on,0,0,1,,,,,,,,,,,,,,0,,,67,90
161920,note_on,20,0,1,,,,,,,,,,,,,,0,,,62,90
162060,note_off,0,0,1,,,,,,,,,,,,,,0,,,67,64
162060,note_off,0,0,1,,,,,,,,,,,,,,0,,,59,64
162060,note_off,140,0,1,,,,,,,,,,,,,,0,,,62,64
162080,note_on,0,0,1,,,,,,,,,,,,,,0,,,67,90
162080,note_on,0,0,1,,,,,,,,,,,,,,0,,,62,90
162080,note_on,20,0,1,,,,,,,,,,,,,,0,,,59,90
162220,note_off,140,0,1,,,,,,,,,,,,,,0,,,59,64
162220,note_off,0,0,1,,,,,,,,,,,,,,0,,,67,64
162220,note_off,0,0,1,,,,,,,,,,,,,,0,,,62,64
162240,note_on,0,0,1,,,,,,,,,,,,,,0,,,66,90
162240,note_on,0,0,1,,,,,,,,,,,,,,0,,,62,90
162240,note_on,20,0,1,,,,,,,,,,,,,,0,,,60,90
162240,note_on,0,0,3,,,,,,,,,,,,,,2,,,62,90
162240,note_off,480,0,3,,,,,,,,,,,,,,2,,,67,64
162240,note_on,480,0,2,,,,,,,,,,,,,,1,,,38,90
162380,note_off,0,0,1,,,,,,,,,,,,,,0,,,62,64
162380,note_off,0,0,1,,,,,,,,,,,,,,0,,,66,64
162380,note_off,140,0,1,,,,,,,,,,,,,,0,,,60,64
162400,note_on,20,0,1,,,,,,,,,,,,,,0,,,62,90
162400,note_on,0,0,1,,,,,,,,,,,,,,0,,,60,90
162400,note_on,0,0,1,,,,,,,,,,,,,,0,,,66,90
162540,note_off,140,0,1,,,,,,,,,,,,,,0,,,62,64
162540,note_off,0,0,1,,,,,,,,,,,,,,0,,,60,64
162540,note_off,0,0,1,,,,,,,,,,,,,,0,,,66,64
162560,note_on,20,0,1,,,,,,,,,,,,,,0,,,60,90
162560,note_on,0,0,1,,,,,,,,,,,,,,0,,,62,90
162560,note_on,0,0,1,,,,,,,,,,,,,,0,,,66,90
162700,note_off,140,0,1,,,,,,,,,,,,,,0,,,60,64
162700,note_off,0,0,1,,,,,,,,,,,,,,0,,,62,64
162700,note_off,0,0,1,,,,,,,,,,,,,,0,,,66,64
162720,note_on,0,0,1,,,,,,,,,,,,,,0,,,62,90
162720,note_on,0,0,3,,,,,,,,,,,,,,2,,,64,90
162720,note_off,480,0,3,,,,,,,,,,,,,,2,,,62,64
162720,note_off,480,0,2,,,,,,,,,,,,,,1,,,38,64
162720,note_on,20,0,1,,,,,,,,,,,,,,0,,,60,90
162720,note_on,0,0,1,,,,,,,,,,,,,,0,,,66,90
162860,note_off,0,0,1,,,,,,,,,,,,,,0,,,66,64
162860,note_off,0,0,1,,,,,,,,,,,,,,0,,,62,64
162860,note_off,140,0,1,,,,,,,,,,,,,,0,,,60,64
162880,note_on,20,0,1,,,,,,,,,,,,,,0,,,62,90
162880,note_on,0,0,1,,,,,,,,,,,,,,0,,,60,90
162880,note_on,0,0,1,,,,,,,,,,,,,,0,,,66,90
162960,note_off,240,0,3,,,,,,,,,,,,,,2,,,64,64
162960,note_on,0,0,3,,,,,,,,,,,,,,2,,,66,90
163020,note_off,0,0,1,,,,,,,,,,,,,,0,,,66,64
163020,note_off,0,0,1,,,,,,,,,,,,,,0,,,60,64
163020,note_off,140,0,1,,,,,,,,,,,,,,0,,,62,64
163040,note_on,0,0,1,,,,,,,,,,,,,,0,,,66,90
163040,note_on,0,0,1,,,,,,,,,,,,,,0,,,62,90
163040,note_on,20,0,1,,,,,,,,,,,,,,0,,,60,90
163180,note_off,0,0,1,,,,,,,,,,,,,,0,,,66,64
163180,note_off,0,0,1,,,,,,,,,,,,,,0,,,62,64
163180,note_off,140,0,1,,,,,,,,,,,,,,0,,,60,64
163200,note_on,0,0,3,,,,,,,,,,,,,,2,,,67,90
163200,note_off,240,0,3,,,,,,,,,,,,,,2,,,66,64
163200,note_on,480,0,2,,,,,,,,,,,,,,1,,,43,90
163200,note_on,20,0,1,,,,,,,,,,,,,,0,,,59,90
163200,note_on,0,0,1,,,,,,,,,,,,,,0,,,62,90
163200,note_on,0,0,1,,,,,,,,,,,,,,0,,,67,90
163220,control_change,20,0,1,,,,,,,,,,,,,,0,11,60,,
163295,control_change,75,0,1,,,,,,,,,,,,,,0,11,60,,
163340,note_off,0,0,1,,,,,,,,,,,,,,0,,,62,64
163340,note_off,0,0,1,,,,,,,,,,,,,,0,,,67,64
163340,note_off,45,0,1,,,,,,,,,,,,,,0,,,59,64
163360,note_on,20,0,1,,,,,,,,,,,,,,0,,,62,90
163360,note_on,0,0,1,,,,,,,,,,,,,,0,,,59,90
163360,note_on,0,0,1,,,,,,,,,,,,,,0,,,67,90
163371,control_change,11,0,1,,,,,,,,,,,,,,0,11,61,,
163447,control_change,76,0,1,,,,,,,,,,,,,,0,11,62,,
163500,note_off,53,0,1,,,,,,,,,,,,,,0,,,62,64
163500,note_off,0,0,1,,,,,,,,,,,,,,0,,,59,64
163500,note_off,0,0,1,,,,,,,,,,,,,,0,,,67,64
163520,note_on,0,0,1,,,,,,,,,,,,,,0,,,67,90
163520,note_on,0,0,1,,,,,,,,,,,,,,0,,,62,90
163520,note_on,20,0,1,,,,,,,,,,,,,,0,,,59,90
163523,control_change,3,0,1,,,,,,,,,,,,,,0,11,63,,
163599,control_change,76,0,1,,,,,,,,,,,,,,0,11,64,,
163660,note_off,61,0,1,,,,,,,,,,,,,,0,,,59,64
163660,note_off,0,0,1,,,,,,,,,,,,,,0,,,62,64
163660,note_off,0,0,1,,,,,,,,,,,,,,0,,,67,64
163675,control_change,15,0,1,,,,,,,,,,,,,,0,11,65,,
163680,note_on,5,0,1,,,,,,,,,,,,,,0,,,59,90
163680,note_on,0,0,1,,,,,,,,,,,,,,0,,,62,90
163680,note_on,0,0,1,,,,,,,,,,,,,,0,,,67,90
163750,control_change,70,0,1,,,,,,,,,,,,,,0,11,66,,
163820,note_off,0,0,1,,,,,,,,,,,,,,0,,,67,64
163820,note_off,70,0,1,,,,,,,,,,,,,,0,,,59,64
163820,note_off,0,0,1,,,,,,,,,,,,,,0,,,62,64
163826,control_change,6,0,1,,,,,,,,,,,,,,0,11,67,,
163840,note_on,0,0,1,,,,,,,,,,,,,,0,,,67,90
163840,note_on,0,0,1,,,,,,,,,,,,,,0,,,59,90
163840,note_on,14,0,1,,,,,,,,,,,,,,0,,,62,90
163902,control_change,62,0,1,,,,,,,,,,,,,,0,11,68,,
163978,control_change,76,0,1,,,,,,,,,,,,,,0,11,69,,
163980,note_off,2,0,1,,,,,,,,,,,,,,0,,,62,64
163980,note_off,0,0,1,,,,,,,,,,,,,,0,,,67,64
163980,note_off,0,0,1,,,,,,,,,,,,,,0,,,59,64
164000,note_on,0,0,1,,,,,,,,,,,,,,0,,,67,90
164000,note_on,0,0,1,,,,,,,,,,,,,,0,,,62,90
164000,note_on,20,0,1,,,,,,,,,,,,,,0,,,59,90
164054,control_change,54,0,1,,,,,,,,,,,,,,0,11,70,,
164130,control_change,76,0,1,,,,,,,,,,,,,,0,11,71,,
164140,note_off,0,0,1,,,,,,,,,,,,,,0,,,62,64
164140,note_off,10,0,1,,,,,,,,,,,,,,0,,,59,64
164140,note_off,0,0,1,,,,,,,,,,,,,,0,,,67,64
164160,note_off,960,0,3,,,,,,,,,,,,,,2,,,67,64
164160,note_off,960,0,2,,,,,,,,,,,,,,1,,,43,64
164160,note_on,0,0,2,,,,,,,,,,,,,,1,,,38,90
164160,note_on,20,0,1,,,,,,,,,,,,,,0,,,59,90
164160,note_on,0,0,1,,,,,,,,,,,,,,0,,,67,90
164160,note_on,0,0,1,,,,,,,,,,,,,,0,,,62,90
164205,control_change,45,0,1,,,,,,,,,,,,,,0,11,72,,
164281,control_change,76,0,1,,,,,,,,,,,,,,0,11,73,,
164300,note_off,0,0,1,,,,,,,,,,,,,,0,,,67,64
164300,note_off,0,0,1,,,,,,,,,,,,,,0,,,62,64
164300,note_off,19,0,1,,,,,,,,,,,,,,0,,,59,64
164320,note_on,0,0,1,,,,,,,,,,,,,,0,,,59,90
164320,note_on,20,0,1,,,,,,,,,,,,,,0,,,62,90
164320,note_on,0,0,1,,,,,,,,,,,,,,0,,,67,90
164357,control_change,37,0,1,,,,,,,,,,,,,,0,11,74,,
164433,control_change,76,0,1,,,,,,,,,,,,,,0,11,75,,
164460,note_off,0,0,1,,,,,,,,,,,,,,0,,,67,64
164460,note_off,0,0,1,,,,,,,,,,,,,,0,,,59,64
164460,note_off,27,0,1,,,,,,,,,,,,,,0,,,62,64
164480,note_on,0,0,1,,,,,,,,,,,,,,0,,,67,90
164480,note_on,0,0,1,,,,,,,,,,,,,,0,,,62,90
164480,note_on,20,0,1,,,,,,,,,,,,,,0,,,59,90
164509,control_change,29,0,1,,,,,,,,,,,,,,0,11,76,,
164585,control_change,76,0,1,,,,,,,,,,,,,,0,11,77,,
164620,note_off,35,0,1,,,,,,,,,,,,,,0,,,59,64
164620,note_off,0,0,1,,,,,,,,,,,,,,0,,,62,64
164620,note_off,0,0,1,,,,,,,,,,,,,,0,,,67,64
164640,note_off,480,0,2,,,,,,,,,,,,,,1,,,38,64
164640,note_on,20,0,1,,,,,,,,,,,,,,0,,,59,90
164640,note_on,0,0,1,,,,,,,,,,,,,,0,,,62,90
164640,note_on,0,0,1,,,,,,,,,,,,,,0,,,67,90
164640,note_on,0,0,2,,,,,,,,,,,,,,1,,,35,90
164660,control_change,20,0,1,,,,,,,,,,,,,,0,11,78,,
164780,note_off,0,0,1,,,,,,,,,,,,,,0,,,67,64
164780,note_off,120,0,1,,,,,,,,,,,,,,0,,,59,64
164780,note_off,0,0,1,,,,,,,,,,,,,,0,,,62,64
164800,note_on,20,0,1,,,,,,,,,,,,,,0,,,62,90
164800,note_on,0,0,1,,,,,,,,,,,,,,0,,,59,90
164800,note_on,0,0,1,,,,,,,,,,,,,,0,,,67,90
164940,note_off,0,0,1,,,,,,,,,,,,,,0,,,67,64
164940,note_off,0,0,1,,,,,,,,,,,,,,0,,,59,64
164940,note_off,140,0,1,,,,,,,,,,,,,,0,,,62,64
164960,note_on,0,0,1,,,,,,,,,,,,,,0,,,62,90
164960,note_on,0,0,1,,,,,,,,,,,,,,0,,,67,90
164960,note_on,20,0,1,,,,,,,,,,,,,,0,,,59,90
165100,note_off,0,0,1,,,,,,,,,,,,,,0,,,62,64
165100,note_off,0,0,1,,,,,,,,,,,,,,0,,,67,64
165100,note_off,140,0,1,,,,,,,,,,,,,,0,,,59,64
165120,note_on,20,0,1,,,,,,,,,,,,,,0,,,59,90
165120,note_on,0,0,1,,,,,,,,,,,,,,0,,,67,90
165120,note_on,0,0,1,,,,,,,,,,,,,,0,,,65,90
165120,note_off,480,0,2,,,,,,,,,,,,,,1,,,35,64
165120,note_on,0,0,2,,,,,,,,,,,,,,1,,,31,90
165180,control_change,60,0,2,,,,,,,,,,,,,,1,11,100,,
165225,control_change,45,0,2,,,,,,,,,,,,,,1,11,99,,
165260,note_off,140,0,1,,,,,,,,,,,,,,0,,,59,64
165260,note_off,0,0,1,,,,,,,,,,,,,,0,,,65,64
165260,note_off,0,0,1,,,,,,,,,,,,,,0,,,67,64
165271,control_change,46,0,2,,,,,,,,,,,,,,1,11,98,,
165280,note_on,0,0,1,,,,,,,,,,,,,,0,,,67,90
165280,note_on,20,0,1,,,,,,,,,,,,,,0,,,65,90
165280,note_on,0,0,1,,,,,,,,,,,,,,0,,,59,90
165316,control_change,45,0,2,,,,,,,,,,,,,,1,11,97,,
165362,control_change,46,0,2,,,,,,,,,,,,,,1,11,96,,
165407,control_change,45,0,2,,,,,,,,,,,,,,1,11,95,,
165420,note_off,140,0,1,,,,,,,,,,,,,,0,,,65,64
165420,note_off,0,0,1,,,,,,,,,,,,,,0,,,59,64
165420,note_off,0,0,1,,,,,,,,,,,,,,0,,,67,64
165440,note_on,0,0,1,,,,,,,,,,,,,,0,,,67,90
165440,note_on,0,0,1,,,,,,,,,,,,,,0,,,65,90
165440,note_on,20,0,1,,,,,,,,,,,,,,0,,,59,90
165452,control_change,45,0,2,,,,,,,,,,,,,,1,11,94,,
165494,control_change,54,0,1,,,,,,,,,,,,,,0,11,77,,
165498,control_change,46,0,2,,,,,,,,,,,,,,1,11,93,,
165543,control_change,45,0,2,,,,,,,,,,,,,,1,11,92,,
165557,control_change,63,0,1,,,,,,,,,,,,,,0,11,76,,
165580,note_off,0,0,1,,,,,,,,,,,,,,0,,,67,64
165580,note_off,0,0,1,,,,,,,,,,,,,,0,,,65,64
165580,note_off,23,0,1,,,,,,,,,,,,,,0,,,59,64
165589,control_change,46,0,2,,,,,,,,,,,,,,1,11,91,,
165600,note_on,0,0,1,,,,,,,,,,,,,,0,,,67,90
165600,note_on,0,0,1,,,,,,,,,,,,,,0,,,65,90
165600,note_on,20,0,1,,,,,,,,,,,,,,0,,,59,90
165621,control_change,21,0,1,,,,,,,,,,,,,,0,11,75,,
165634,control_change,45,0,2,,,,,,,,,,,,,,1,11,90,,
165680,control_change,46,0,2,,,,,,,,,,,,,,1,11,89,,
165684,control_change,63,0,1,,,,,,,,,,,,,,0,11,74,,
165725,control_change,45,0,2,,,,,,,,,,,,,,1,11,88,,
165740,note_off,56,0,1,,,,,,,,,,,,,,0,,,59,64
165740,note_off,0,0,1,,,,,,,,,,,,,,0,,,65,64
165740,note_off,0,0,1,,,,,,,,,,,,,,0,,,67,64
165748,control_change,8,0,1,,,,,,,,,,,,,,0,11,73,,
165760,note_on,0,0,1,,,,,,,,,,,,,,0,,,67,90
165760,note_on,0,0,1,,,,,,,,,,,,,,0,,,59,90
165760,note_on,12,0,1,,,,,,,,,,,,,,0,,,65,90
165771,control_change,46,0,2,,,,,,,,,,,,,,1,11,87,,
165811,control_change,51,0,1,,,,,,,,,,,,,,0,11,72,,
165816,control_change,45,0,2,,,,,,,,,,,,,,1,11,86,,
165862,control_change,46,0,2,,,,,,,,,,,,,,1,11,85,,
165875,control_change,64,0,1,,,,,,,,,,,,,,0,11,71,,
165900,note_off,25,0,1,,,,,,,,,,,,,,0,,,65,64
165900,note_off,0,0,1,,,,,,,,,,,,,,0,,,67,64
165900,note_off,0,0,1,,,,,,,,,,,,,,0,,,59,64
165907,control_change,45,0,2,,,,,,,,,,,,,,1,11,84,,
165920,note_on,0,0,1,,,,,,,,,,,,,,0,,,67,90
165920,note_on,20,0,1,,,,,,,,,,,,,,0,,,59,90
165920,note_on,0,0,1,,,,,,,,,,,,,,0,,,65,90
165938,control_change,18,0,1,,,,,,,,,,,,,,0,11,70,,
165953,control_change,46,0,2,,,,,,,,,,,,,,1,11,83,,
165998,control_change,45,0,2,,,,,,,,,,,,,,1,11,82,,
166001,control_change,63,0,1,,,,,,,,,,,,,,0,11,69,,
166044,control_change,46,0,2,,,,,,,,,,,,,,1,11,81,,
166060,note_off,0,0,1,,,,,,,,,,,,,,0,,,65,64
166060,note_off,0,0,1,,,,,,,,,,,,,,0,,,67,64
166060,note_off,59,0,1,,,,,,,,,,,,,,0,,,59,64
166065,control_change,5,0,1,,,,,,,,,,,,,,0,11,68,,
166080,note_on,0,0,2,,,,,,,,,,,,,,1,,,33,90
166080,note_on,15,0,1,,,,,,,,,,,,,,0,,,60,90
166080,note_on,0,0,1,,,,,,,,,,,,,,0,,,65,90
166080,note_on,0,0,1,,,,,,,,,,,,,,0,,,67,90
166080,note_off,36,0,2,,,,,,,,,,,,,,1,,,31,64
166089,control_change,9,0,2,,,,,,,,,,,,,,1,11,80,,
166128,control_change,48,0,1,,,,,,,,,,,,,,0,11,67,,
166135,control_change,46,0,2,,,,,,,,,,,,,,1,11,79,,
166180,control_change,45,0,2,,,,,,,,,,,,,,1,11,78,,
166192,control_change,64,0,1,,,,,,,,,,,,,,0,11,66,,
166220,note_off,28,0,1,,,,,,,,,,,,,,0,,,60,64
166220,note_off,0,0,1,,,,,,,,,,,,,,0,,,65,64
166220,note_off,0,0,1,,,,,,,,,,,,,,0,,,67,64
166226,control_change,46,0,2,,,,,,,,,,,,,,1,11,77,,
166240,note_on,0,0,1,,,,,,,,,,,,,,0,,,67,90
166240,note_on,20,0,1,,,,,,,,,,,,,,0,,,65,90
166240,note_on,0,0,1,,,,,,,,,,,,,,0,,,60,90
166271,control_change,45,0,2,,,,,,,,,,,,,,1,11,76,,
166316,control_change,45,0,2,,,,,,,,,,,,,,1,11,75,,
166362,control_change,46,0,2,,,,,,,,,,,,,,1,11,74,,
166380,note_off,0,0,1,,,,,,,,,,,,,,0,,,67,64
166380,note_off,0,0,1,,,,,,,,,,,,,,0,,,60,64
166380,note_off,140,0,1,,,,,,,,,,,,,,0,,,65,64
166400,note_on,0,0,1,,,,,,,,,,,,,,0,,,67,90
166400,note_on,0,0,1,,,,,,,,,,,,,,0,,,65,90
166400,note_on,20,0,1,,,,,,,,,,,,,,0,,,60,90
166407,control_change,45,0,2,,,,,,,,,,,,,,1,11,73,,
166453,control_change,46,0,2,,,,,,,,,,,,,,1,11,72,,
166498,control_change,45,0,2,,,,,,,,,,,,,,1,11,71,,
166540,note_off,0,0,1,,,,,,,,,,,,,,0,,,67,64
166540,note_off,0,0,1,,,,,,,,,,,,,,0,,,65,64
166540,note_off,140,0,1,,,,,,,,,,,,,,0,,,60,64
166544,control_change,46,0,2,,,,,,,,,,,,,,1,11,70,,
166560,note_off,16,0,2,,,,,,,,,,,,,,1,,,33,64
166560,note_on,0,0,2,,,,,,,,,,,,,,1,,,35,90
166560,note_on,27850,0,5,,,,,,,,,,,,,,4,,,67,90
166560,note_on,0,0,1,,,,,,,,,,,,,,0,,,65,90
166560,note_on,0,0,1,,,,,,,,,,,,,,0,,,67,90
166560,note_on,20,0,1,,,,,,,,,,,,,,0,,,62,90
166589,control_change,29,0,2,,,,,,,,,,,,,,1,11,69,,
166635,control_change,46,0,2,,,,,,,,,,,,,,1,11,68,,
166680,control_change,45,0,2,,,,,,,,,,,,,,1,11,67,,
166700,note_off,140,0,1,,,,,,,,,,,,,,0,,,62,64
166700,note_off,0,0,1,,,,,,,,,,,,,,0,,,65,64
166700,note_off,0,0,1,,,,,,,,,,,,,,0,,,67,64
166720,note_on,20,0,1,,,,,,,,,,,,,,0,,,65,90
166720,note_on,0,0,1,,,,,,,,,,,,,,0,,,62,90
166720,note_on,0,0,1,,,,,,,,,,,,,,0,,,67,90
166726,control_change,46,0,2,,,,,,,,,,,,,,1,11,66,,
166771,control_change,45,0,2,,,,,,,,,,,,,,1,11,65,,
166817,control_change,46,0,2,,,,,,,,,,,,,,1,11,64,,
166860,note_off,0,0,1,,,,,,,,,,,,,,0,,,67,64
166860,note_off,0,0,1,,,,,,,,,,,,,,0,,,62,64
166860,note_off,140,0,1,,,,,,,,,,,,,,0,,,65,64
166862,control_change,45,0,2,,,,,,,,,,,,,,1,11,63,,
166880,note_on,0,0,1,,,,,,,,,,,,,,0,,,67,90
166880,note_on,0,0,1,,,,,,,,,,,,,,0,,,65,90
166880,note_on,20,0,1,,,,,,,,,,,,,,0,,,62,90
166908,control_change,46,0,2,,,,,,,,,,,,,,1,11,62,,
166953,control_change,45,0,2,,,,,,,,,,,,,,1,11,61,,
167020,note_off,0,0,1,,,,,,,,,,,,,,0,,,65,64
167020,note_off,0,0,1,,,,,,,,,,,,,,0,,,67,64
167020,note_off,140,0,1,,,,,,,,,,,,,,0,,,62,64
167040,note_on,0,0,5,,,,,,,,,,,,,,4,,,67,90
167040,note_on,0,0,2,,,,,,,,,,,,,,1,,,48,90
167040,note_on,0,0,2,,,,,,,,,,,,,,1,,,36,90
167040,note_off,87,0,2,,,,,,,,,,,,,,1,,,35,64
167040,note_off,480,0,5,,,,,,,,,,,,,,4,,,67,64
167040,note_on,20,0,1,,,,,,,,,,,,,,0,,,55,90
167200,note_off,160,0,1,,,,,,,,,,,,,,0,,,55,64
167200,note_on,0,0,1,,,,,,,,,,,,,,0,,,60,90
167280,note_off,240,0,2,,,,,,,,,,,,,,1,,,36,64
167280,note_off,0,0,2,,,,,,,,,,,,,,1,,,48,64
167360,note_on,0,0,1,,,,,,,,,,,,,,0,,,64,90
167360,note_off,160,0,1,,,,,,,,,,,,,,0,,,60,64
167520,note_on,0,0,1,,,,,,,,,,,,,,0,,,67,90
167520,note_on,240,0,2,,,,,,,,,,,,,,1,,,36,90
167520,note_off,160,0,1,,,,,,,,,,,,,,0,,,64,64
167520,note_on,0,0,2,,,,,,,,,,,,,,1,,,48,90
167520,note_off,480,0,5,,,,,,,,,,,,,,4,,,67,64
167520,note_on,0,0,5,,,,,,,,,,,,,,4,,,69,90
167680,note_on,0,0,1,,,,,,,,,,,,,,0,,,64,90
167680,note_off,160,0,1,,,,,,,,,,,,,,0,,,67,64
167760,note_off,0,0,2,,,,,,,,,,,,,,1,,,48,64
167760,note_off,240,0,2,,,,,,,,,,,,,,1,,,36,64
167760,note_off,240,0,5,,,,,,,,,,,,,,4,,,69,64
167760,note_on,0,0,5,,,,,,,,,,,,,,4,,,71,90
167840,note_off,160,0,1,,,,,,,,,,,,,,0,,,64,64
167840,note_on,0,0,1,,,,,,,,,,,,,,0,,,60,90
168000,note_on,0,0,2,,,,,,,,,,,,,,1,,,48,90
168000,note_on,240,0,2,,,,,,,,,,,,,,1,,,36,90
168000,note_on,0,0,5,,,,,,,,,,,,,,4,,,72,90
168000,note_off,240,0,5,,,,,,,,,,,,,,4,,,71,64
168000,note_off,160,0,1,,,,,,,,,,,,,,0,,,60,64
168000,note_on,0,0,1,,,,,,,,,,,,,,0,,,55,90
168160,note_off,160,0,1,,,,,,,,,,,,,,0,,,55,64
168160,note_on,0,0,1,,,,,,,,,,,,,,0,,,60,90
168240,note_off,240,0,2,,,,,,,,,,,,,,1,,,36,64
168240,note_off,0,0,2,,,,,,,,,,,,,,1,,,48,64
168320,note_on,0,0,1,,,,,,,,,,,,,,0,,,64,90
168320,note_off,160,0,1,,,,,,,,,,,,,,0,,,60,64
168480,note_on,0,0,5,,,,,,,,,,,,,,4,,,72,90
168480,note_off,480,0,5,,,,,,,,,,,,,,4,,,72,64
168480,note_on,0,0,2,,,,,,,,,,,,,,1,,,48,90
168480,note_off,160,0,1,,,,,,,,,,,,,,0,,,64,64
168480,note_on,0,0,1,,,,,,,,,,,,,,0,,,67,90
168480,note_on,240,0,2,,,,,,,,,,,,,,1,,,36,90
168640,note_off,160,0,1,,,,,,,,,,,,,,0,,,67,64
168640,note_on,0,0,1,,,,,,,,,,,,,,0,,,64,90
168720,note_off,0,0,2,,,,,,,,,,,,,,1,,,48,64
168720,note_off,240,0,5,,,,,,,,,,,,,,4,,,72,64
168720,note_on,0,0,5,,,,,,,,,,,,,,4,,,73,90
168720,note_off,240,0,2,,,,,,,,,,,,,,1,,,36,64
168800,note_on,0,0,1,,,,,,,,,,,,,,0,,,60,90
168800,note_off,160,0,1,,,,,,,,,,,,,,0,,,64,64
168960,note_on,0,0,1,,,,,,,,,,,,,,0,,,55,90
168960,note_on,0,0,2,,,,,,,,,,,,,,1,,,48,90
168960,note_off,160,0,1,,,,,,,,,,,,,,0,,,60,64
168960,note_on,0,0,5,,,,,,,,,,,,,,4,,,74,90
168960,note_off,240,0,5,,,,,,,,,,,,,,4,,,73,64
168960,note_on,240,0,2,,,,,,,,,,,,,,1,,,36,90
169120,note_off,160,0,1,,,,,,,,,,,,,,0,,,55,64
169120,note_on,0,0,1,,,,,,,,,,,,,,0,,,60,90
169200,note_off,0,0,2,,,,,,,,,,,,,,1,,,48,64
169200,note_off,240,0,2,,,,,,,,,,,,,,1,,,36,64
169280,note_on,0,0,1,,,,,,,,,,,,,,0,,,65,90
169280,note_off,160,0,1,,,,,,,,,,,,,,0,,,60,64
169440,note_on,0,0,5,,,,,,,,,,,,,,4,,,67,90
169440,note_off,160,0,1,,,,,,,,,,,,,,0,,,65,64
169440,note_on,0,0,2,,,,,,,,,,,,,,1,,,48,90
169440,note_off,480,0,5,,,,,,,,,,,,,,4,,,74,64
169440,note_on,240,0,2,,,,,,,,,,,,,,1,,,36,90
169440,note_on,0,0,1,,,,,,,,,,,,,,0,,,67,90
169600,note_off,160,0,1,,,,,,,,,,,,,,0,,,67,64
169600,note_on,0,0,1,,,,,,,,,,,,,,0,,,65,90
169680,note_off,0,0,2,,,,,,,,,,,,,,1,,,48,64
169680,note_off,240,0,2,,,,,,,,,,,,,,1,,,36,64
169760,note_off,160,0,1,,,,,,,,,,,,,,0,,,65,64
169760,note_on,0,0,1,,,,,,,,,,,,,,0,,,60,90
169920,note_on,0,0,2,,,,,,,,,,,,,,1,,,48,90
169920,note_on,240,0,2,,,,,,,,,,,,,,1,,,36,90
169920,note_off,480,0,5,,,,,,,,,,,,,,4,,,67,64
169920,note_on,0,0,5,,,,,,,,,,,,,,4,,,76,90
169920,note_off,160,0,1,,,,,,,,,,,,,,0,,,60,64
169920,note_on,0,0,1,,,,,,,,,,,,,,0,,,55,90
170080,note_off,160,0,1,,,,,,,,,,,,,,0,,,55,64
170080,note_on,0,0,1,,,,,,,,,,,,,,0,,,60,90
170160,note_off,0,0,2,,,,,,,,,,,,,,1,,,48,64
170160,note_off,240,0,2,,,,,,,,,,,,,,1,,,36,64
170240,note_on,0,0,1,,,,,,,,,,,,,,0,,,64,90
170240,note_off,160,0,1,,,,,,,,,,,,,,0,,,60,64
170400,note_on,0,0,5,,,,,,,,,,,,,,4,,,74,90
170400,note_off,160,0,1,,,,,,,,,,,,,,0,,,64,64
170400,note_on,0,0,2,,,,,,,,,,,,,,1,,,48,90
170400,note_on,240,0,2,,,,,,,,,,,,,,1,,,36,90
170400,note_on,0,0,1,,,,,,,,,,,,,,0,,,67,90
170400,note_off,480,0,5,,,,,,,,,,,,,,4,,,76,64
170560,note_off,160,0,1,,,,,,,,,,,,,,0,,,67,64
170560,note_on,0,0,1,,,,,,,,,,,,,,0,,,64,90
170640,note_off,240,0,5,,,,,,,,,,,,,,4,,,74,64
170640,note_on,0,0,5,,,,,,,,,,,,,,4,,,72,90
170640,note_off,240,0,2,,,,,,,,,,,,,,1,,,36,64
170640,note_off,0,0,2,,,,,,,,,,,,,,1,,,48,64
170720,note_on,0,0,1,,,,,,,,,,,,,,0,,,60,90
170720,note_off,160,0,1,,,,,,,,,,,,,,0,,,64,64
170880,note_off,160,0,1,,,,,,,,,,,,,,0,,,60,64
170880,note_on,0,0,1,,,,,,,,,,,,,,0,,,59,90
170880,note_on,240,0,2,,,,,,,,,,,,,,1,,,40,90
170880,note_on,0,0,2,,,,,,,,,,,,,,1,,,52,90
170880,note_off,240,0,5,,,,,,,,,,,,,,4,,,72,64
170880,note_on,0,0,5,,,,,,,,,,,,,,4,,,71,90
171040,note_off,160,0,1,,,,,,,,,,,,,,0,,,59,64
171040,note_on,0,0,1,,,,,,,,,,,,,,0,,,62,90
171120,note_off,240,0,2,,,,,,,,,,,,,,1,,,40,64
171120,note_off,0,0,2,,,,,,,,,,,,,,1,,,52,64
171200,note_off,160,0,1,,,,,,,,,,,,,,0,,,62,64
171200,note_on,0,0,1,,,,,,,,,,,,,,0,,,64,90
171360,note_off,160,0,1,,,,,,,,,,,,,,0,,,64,64
171360,note_on,0,0,5,,,,,,,,,,,,,,4,,,64,90
171360,note_off,480,0,5,,,,,,,,,,,,,,4,,,71,64
171360,note_on,240,0,2,,,,,,,,,,,,,,1,,,52,90
171360,note_on,0,0,2,,,,,,,,,,,,,,1,,,40,90
171360,note_on,0,0,1,,,,,,,,,,,,,,0,,,68,90
171520,note_on,0,0,1,,,,,,,,,,,,,,0,,,64,90
171520,note_off,160,0,1,,,,,,,,,,,,,,0,,,68,64
171600,note_off,0,0,2,,,,,,,,,,,,,,1,,,40,64
171600,note_off,240,0,2,,,,,,,,,,,,,,1,,,52,64
171680,note_on,0,0,1,,,,,,,,,,,,,,0,,,62,90
171680,note_off,160,0,1,,,,,,,,,,,,,,0,,,64,64
171840,note_off,480,0,5,,,,,,,,,,,,,,4,,,64,64
171840,note_on,0,0,5,,,,,,,,,,,,,,4,,,72,90
171840,note_on,240,0,2,,,,,,,,,,,,,,1,,,45,104
171840,note_off,160,0,1,,,,,,,,,,,,,,0,,,62,64
171840,note_on,0,0,1,,,,,,,,,,,,,,0,,,57,90
172000,note_off,160,0,1,,,,,,,,,,,,,,0,,,57,64
172000,note_on,0,0,1,,,,,,,,,,,,,,0,,,60,90
172080,note_off,240,0,2,,,,,,,,,,,,,,1,,,45,64
172160,note_off,160,0,1,,,,,,,,,,,,,,0,,,60,64
172160,note_on,0,0,1,,,,,,,,,,,,,,0,,,64,90
172320,note_on,0,0,1,,,,,,,,,,,,,,0,,,69,90
172320,note_on,0,0,5,,,,,,,,,,,,,,4,,,69,90
172320,note_off,160,0,1,,,,,,,,,,,,,,0,,,64,64
172320,note_off,480,0,5,,,,,,,,,,,,,,4,,,72,64
172320,note_on,240,0,2,,,,,,,,,,,,,,1,,,45,104
172480,note_off,160,0,1,,,,,,,,,,,,,,0,,,69,64
172480,note_on,0,0,1,,,,,,,,,,,,,,0,,,64,90
172560,note_off,240,0,5,,,,,,,,,,,,,,4,,,69,64
172560,note_on,0,0,5,,,,,,,,,,,,,,4,,,69,90
172560,note_off,240,0,2,,,,,,,,,,,,,,1,,,45,64
172640,note_off,160,0,1,,,,,,,,,,,,,,0,,,64,64
172640,note_on,0,0,1,,,,,,,,,,,,,,0,,,60,90
172800,note_on,0,0,2,,,,,,,,,,,,,,1,,,52,90
172800,note_on,0,0,1,,,,,,,,,,,,,,0,,,59,90
172800,note_off,160,0,1,,,,,,,,,,,,,,0,,,60,64
172800,note_on,240,0,2,,,,,,,,,,,,,,1,,,40,90
172800,note_off,240,0,5,,,,,,,,,,,,,,4,,,69,64
172800,note_on,0,0,5,,,,,,,,,,,,,,4,,,71,90
172960,note_off,160,0,1,,,,,,,,,,,,,,0,,,59,64
172960,note_on,0,0,1,,,,,,,,,,,,,,0,,,62,90
173040,note_off,240,0,2,,,,,,,,,,,,,,1,,,40,64
173040,note_off,0,0,2,,,,,,,,,,,,,,1,,,52,64
173120,note_off,160,0,1,,,,,,,,,,,,,,0,,,62,64
173120,note_on,0,0,1,,,,,,,,,,,,,,0,,,64,90
173280,note_on,0,0,2,,,,,,,,,,,,,,1,,,40,90
173280,note_on,240,0,2,,,,,,,,,,,,,,1,,,52,90
173280,note_off,480,0,5,,,,,,,,,,,,,,4,,,71,64
173280,note_off,160,0,1,,,,,,,,,,,,,,0,,,64,64
173280,note_on,0,0,5,,,,,,,,,,,,,,4,,,64,90
173280,note_on,0,0,1,,,,,,,,,,,,,,0,,,68,90
173440,note_off,160,0,1,,,,,,,,,,,,,,0,,,68,64
173440,note_on,0,0,1,,,,,,,,,,,,,,0,,,64,90
173520,note_off,240,0,2,,,,,,,,,,,,,,1,,,52,64
173520,note_off,0,0,2,,,,,,,,,,,,,,1,,,40,64
173600,note_off,160,0,1,,,,,,,,,,,,,,0,,,64,64
173600,note_on,0,0,1,,,,,,,,,,,,,,0,,,62,90
173760,note_off,160,0,1,,,,,,,,,,,,,,0,,,62,64
173760,note_on,0,0,1,,,,,,,,,,,,,,0,,,57,90
173760,note_on,240,0,2,,,,,,,,,,,,,,1,,,45,104
173760,note_on,0,0,5,,,,,,,,,,,,,,4,,,72,90
173760,note_off,480,0,5,,,,,,,,,,,,,,4,,,64,64
173920,note_off,160,0,1,,,,,,,,,,,,,,0,,,57,64
173920,note_on,0,0,1,,,,,,,,,,,,,,0,,,60,90
174000,note_off,240,0,2,,,,,,,,,,,,,,1,,,45,64
174080,note_on,0,0,1,,,,,,,,,,,,,,0,,,64,90
174080,note_off,160,0,1,,,,,,,,,,,,,,0,,,60,64
174240,note_on,240,0,2,,,,,,,,,,,,,,1,,,45,104
174240,note_off,160,0,1,,,,,,,,,,,,,,0,,,64,64
174240,note_off,480,0,5,,,,,,,,,,,,,,4,,,72,64
174240,note_on,0,0,5,,,,,,,,,,,,,,4,,,69,90
174240,note_on,0,0,1,,,,,,,,,,,,,,0,,,69,90
174400,note_off,160,0,1,,,,,,,,,,,,,,0,,,69,64
174400,note_on,0,0,1,,,,,,,,,,,,,,0,,,64,90
174480,note_off,240,0,2,,,,,,,,,,,,,,1,,,45,64
174480,note_on,0,0,5,,,,,,,,,,,,,,4,,,69,90
174480,note_off,240,0,5,,,,,,,,,,,,,,4,,,69,64
174560,note_off,160,0,1,,,,,,,,,,,,,,0,,,64,64
174560,note_on,0,0,1,,,,,,,,,,,,,,0,,,60,90
174720,note_off,160,0,1,,,,,,,,,,,,,,0,,,60,64
174720,note_on,0,0,2,,,,,,,,,,,,,,1,,,50,90
174720,note_on,0,0,5,,,,,,,,,,,,,,4,,,69,90
174720,note_off,240,0,5,,,,,,,,,,,,,,4,,,69,64
174720,note_on,240,0,2,,,,,,,,,,,,,,1,,,38,90
174720,note_on,0,0,1,,,,,,,,,,,,,,0,,,57,90
174880,note_off,160,0,1,,,,,,,,,,,,,,0,,,57,64
174880,note_on,0,0,1,,,,,,,,,,,,,,0,,,60,90
174960,note_off,0,0,2,,,,,,,,,,,,,,1,,,50,64
174960,note_off,240,0,2,,,,,,,,,,,,,,1,,,38,64
175040,note_on,0,0,1,,,,,,,,,,,,,,0,,,62,90
175040,note_off,160,0,1,,,,,,,,,,,,,,0,,,60,64
175200,note_on,240,0,2,,,,,,,,,,,,,,1,,,50,90
175200,note_off,160,0,1,,,,,,,,,,,,,,0,,,62,64
175200,note_on,0,0,1,,,,,,,,,,,,,,0,,,66,90
175200,note_on,0,0,5,,,,,,,,,,,,,,4,,,68,90
175200,note_off,480,0,5,,,,,,,,,,,,,,4,,,69,64
175200,note_on,0,0,2,,,,,,,,,,,,,,1,,,38,90
175360,note_on,0,0,1,,,,,,,,,,,,,,0,,,62,90
175360,note_off,160,0,1,,,,,,,,,,,,,,0,,,66,64
175440,note_on,0,0,5,,,,,,,,,,,,,,4,,,69,90
175440,note_off,240,0,5,,,,,,,,,,,,,,4,,,68,64
175440,note_off,0,0,2,,,,,,,,,,,,,,1,,,38,64
175440,note_off,240,0,2,,,,,,,,,,,,,,1,,,50,64
175520,note_off,160,0,1,,,,,,,,,,,,,,0,,,62,64
175520,note_on,0,0,1,,,,,,,,,,,,,,0,,,60,90
175680,note_on,0,0,1,,,,,,,,,,,,,,0,,,55,90
175680,note_off,160,0,1,,,,,,,,,,,,,,0,,,60,64
175680,note_on,0,0,5,,,,,,,,,,,,,,4,,,71,90
175680,note_off,240,0,5,,,,,,,,,,,,,,4,,,69,64
175680,note_on,240,0,2,,,,,,,,,,,,,,1,,,43,104
175840,note_off,160,0,1,,,,,,,,,,,,,,0,,,55,64
175840,note_on,0,0,1,,,,,,,,,,,,,,0,,,59,90
175920,note_off,240,0,2,,,,,,,,,,,,,,1,,,43,64
176000,note_off,160,0,1,,,,,,,,,,,,,,0,,,59,64
176000,note_on,0,0,1,,,,,,,,,,,,,,0,,,62,90
176160,note_on,0,0,5,,,,,,,,,,,,,,4,,,67,90
176160,note_off,480,0,5,,,,,,,,,,,,,,4,,,71,64
176160,note_on,240,0,2,,,,,,,,,,,,,,1,,,43,104
176160,note_off,160,0,1,,,,,,,,,,,,,,0,,,62,64
176160,note_on,0,0,1,,,,,,,,,,,,,,0,,,67,90
176320,note_off,160,0,1,,,,,,,,,,,,,,0,,,67,64
176320,note_on,0,0,1,,,,,,,,,,,,,,0,,,62,90
176400,note_off,240,0,5,,,,,,,,,,,,,,4,,,67,64
176400,note_off,240,0,2,,,,,,,,,,,,,,1,,,43,64
176400,note_on,0,0,5,,,,,,,,,,,,,,4,,,67,90
176480,note_off,160,0,1,,,,,,,,,,,,,,0,,,62,64
176480,note_on,0,0,1,,,,,,,,,,,,,,0,,,59,90
176640,note_off,160,0,1,,,,,,,,,,,,,,0,,,59,64
176640,note_on,0,0,1,,,,,,,,,,,,,,0,,,57,90
176640,note_on,0,0,2,,,,,,,,,,,,,,1,,,50,90
176640,note_on,240,0,2,,,,,,,,,,,,,,1,,,38,90
176640,note_off,240,0,5,,,,,,,,,,,,,,4,,,67,64
176640,note_on,0,0,5,,,,,,,,,,,,,,4,,,69,90
176800,note_off,160,0,1,,,,,,,,,,,,,,0,,,57,64
176800,note_on,0,0,1,,,,,,,,,,,,,,0,,,60,90
176880,note_off,0,0,2,,,,,,,,,,,,,,1,,,50,64
176880,note_off,240,0,2,,,,,,,,,,,,,,1,,,38,64
176960,note_off,160,0,1,,,,,,,,,,,,,,0,,,60,64
176960,note_on,0,0,1,,,,,,,,,,,,,,0,,,62,90
177120,note_on,0,0,5,,,,,,,,,,,,,,4,,,62,90
177120,note_on,0,0,2,,,,,,,,,,,,,,1,,,38,90
177120,note_on,240,0,2,,,,,,,,,,,,,,1,,,50,90
177120,note_on,0,0,1,,,,,,,,,,,,,,0,,,66,90
177120,note_off,160,0,1,,,,,,,,,,,,,,0,,,62,64
177120,note_off,480,0,5,,,,,,,,,,,,,,4,,,69,64
177280,note_off,160,0,1,,,,,,,,,,,,,,0,,,66,64
177280,note_on,0,0,1,,,,,,,,,,,,,,0,,,62,90
177360,note_on,0,0,5,,,,,,,,,,,,,,4,,,62,90
177360,note_off,0,0,2,,,,,,,,,,,,,,1,,,38,64
177360,note_off,240,0,2,,,,,,,,,,,,,,1,,,50,64
177360,note_off,240,0,5,,,,,,,,,,,,,,4,,,62,64
177440,note_off,160,0,1,,,,,,,,,,,,,,0,,,62,64
177440,note_on,0,0,1,,,,,,,,,,,,,,0,,,60,90
177600,note_off,240,0,5,,,,,,,,,,,,,,4,,,62,64
177600,note_on,0,0,5,,,,,,,,,,,,,,4,,,71,90
177600,note_on,240,0,2,,,,,,,,,,,,,,1,,,43,104
177600,note_off,160,0,1,,,,,,,,,,,,,,0,,,60,64
177600,note_on,0,0,1,,,,,,,,,,,,,,0,,,55,90
177760,note_on,0,0,1,,,,,,,,,,,,,,0,,,59,90
177760,note_off,160,0,1,,,,,,,,,,,,,,0,,,55,64
177840,note_off,240,0,2,,,,,,,,,,,,,,1,,,43,64
177920,note_on,0,0,1,,,,,,,,,,,,,,0,,,62,90
177920,note_off,160,0,1,,,,,,,,,,,,,,0,,,59,64
178080,note_off,160,0,1,,,,,,,,,,,,,,0,,,62,64
178080,note_on,240,0,2,,,,,,,,,,,,,,1,,,43,104
178080,note_off,480,0,5,,,,,,,,,,,,,,4,,,71,64
178080,note_on,0,0,1,,,,,,,,,,,,,,0,,,67,90
178240,note_on,0,0,1,,,,,,,,,,,,,,0,,,62,90
178240,note_off,160,0,1,,,,,,,,,,,,,,0,,,67,64
178320,note_on,240,0,5,,,,,,,,,,,,,,4,,,67,90
178320,note_off,240,0,2,,,,,,,,,,,,,,1,,,43,64
178400,note_on,0,0,1,,,,,,,,,,,,,,0,,,59,90
178400,note_off,160,0,1,,,,,,,,,,,,,,0,,,62,64
178560,note_on,0,0,2,,,,,,,,,,,,,,1,,,31,90
178560,note_on,240,0,2,,,,,,,,,,,,,,1,,,43,90
178560,note_on,0,0,5,,,,,,,,,,,,,,4,,,67,90
178560,note_off,240,0,5,,,,,,,,,,,,,,4,,,67,64
178560,note_on,0,0,1,,,,,,,,,,,,,,0,,,55,90
178560,note_off,160,0,1,,,,,,,,,,,,,,0,,,59,64
178720,note_off,160,0,1,,,,,,,,,,,,,,0,,,55,64
178720,note_on,0,0,1,,,,,,,,,,,,,,0,,,59,90
178880,note_on,0,0,1,,,,,,,,,,,,,,0,,,65,90
178880,note_off,160,0,1,,,,,,,,,,,,,,0,,,59,64
179040,note_off,160,0,1,,,,,,,,,,,,,,0,,,65,64
179040,note_off,480,0,2,,,,,,,,,,,,,,1,,,43,64
179040,note_off,0,0,2,,,,,,,,,,,,,,1,,,31,64
179040,note_off,480,0,5,,,,,,,,,,,,,,4,,,67,64
179040,note_on,0,0,5,,,,,,,,,,,,,,4,,,69,90
179040,note_on,0,0,1,,,,,,,,,,,,,,0,,,67,90
179200,note_on,0,0,1,,,,,,,,,,,,,,0,,,65,90
179200,note_off,160,0,1,,,,,,,,,,,,,,0,,,67,64
179280,note_off,240,0,5,,,,,,,,,,,,,,4,,,69,64
179280,note_on,0,0,5,,,,,,,,,,,,,,4,,,71,90
179280,note_on,0,0,2,,,,,,,,,,,,,,1,,,31,90
179280,note_on,240,0,2,,,,,,,,,,,,,,1,,,43,90
179360,note_on,0,0,1,,,,,,,,,,,,,,0,,,62,90
179360,note_off,160,0,1,,,,,,,,,,,,,,0,,,65,64
179520,note_on,0,0,1,,,,,,,,,,,,,,0,,,55,90
179520,note_off,160,0,1,,,,,,,,,,,,,,0,,,62,64
179520,note_off,240,0,5,,,,,,,,,,,,,,4,,,71,64
179520,note_on,0,0,5,,,,,,,,,,,,,,4,,,72,90
179520,note_on,0,0,2,,,,,,,,,,,,,,1,,,31,90
179520,note_on,0,0,2,,,,,,,,,,,,,,1,,,43,90
179520,note_off,0,0,2,,,,,,,,,,,,,,1,,,31,64
179520,note_off,240,0,2,,,,,,,,,,,,,,1,,,43,64
179680,note_off,160,0,1,,,,,,,,,,,,,,0,,,55,64
179680,note_on,0,0,1,,,,,,,,,,,,,,0,,,60,90
179840,note_off,160,0,1,,,,,,,,,,,,,,0,,,60,64
179840,note_on,0,0,1,,,,,,,,,,,,,,0,,,64,90
180000,note_off,480,0,2,,,,,,,,,,,,,,1,,,43,64
180000,note_off,480,0,5,,,,,,,,,,,,,,4,,,72,64
180000,note_on,0,0,1,,,,,,,,,,,,,,0,,,67,90
180000,note_off,160,0,1,,,,,,,,,,,,,,0,,,64,64
180000,note_off,0,0,2,,,,,,,,,,,,,,1,,,31,64
180000,note_on,0,0,5,,,,,,,,,,,,,,4,,,74,90
180160,note_on,0,0,1,,,,,,,,,,,,,,0,,,64,90
180160,note_off,160,0,1,,,,,,,,,,,,,,0,,,67,64
180240,note_off,240,0,5,,,,,,,,,,,,,,4,,,74,64
180240,note_on,0,0,2,,,,,,,,,,,,,,1,,,31,90
180240,note_on,240,0,2,,,,,,,,,,,,,,1,,,43,90
180240,note_on,0,0,5,,,,,,,,,,,,,,4,,,76,90
180320,note_off,160,0,1,,,,,,,,,,,,,,0,,,64,64
180320,note_on,0,0,1,,,,,,,,,,,,,,0,,,60,90
180480,note_off,240,0,2,,,,,,,,,,,,,,1,,,43,64
180480,note_on,0,0,5,,,,,,,,,,,,,,4,,,77,90
180480,note_off,160,0,1,,,,,,,,,,,,,,0,,,60,64
180480,note_on,0,0,1,,,,,,,,,,,,,,0,,,55,90
180480,note_on,0,0,2,,,,,,,,,,,,,,1,,,43,90
180480,note_on,0,0,2,,,,,,,,,,,,,,1,,,31,90
180480,note_off,0,0,2,,,,,,,,,,,,,,1,,,31,64
180480,note_off,240,0,5,,,,,,,,,,,,,,4,,,76,64
180640,note_off,160,0,1,,,,,,,,,,,,,,0,,,55,64
180640,note_on,0,0,1,,,,,,,,,,,,,,0,,,62,90
180800,note_off,160,0,1,,,,,,,,,,,,,,0,,,62,64
180800,note_on,0,0,1,,,,,,,,,,,,,,0,,,65,90
180960,note_off,480,0,5,,,,,,,,,,,,,,4,,,77,64
180960,note_on,0,0,5,,,,,,,,,,,,,,4,,,74,90
180960,note_off,0,0,2,,,,,,,,,,,,,,1,,,31,64
180960,note_on,0,0,1,,,,,,,,,,,,,,0,,,67,90
180960,note_off,160,0,1,,,,,,,,,,,,,,0,,,65,64
180960,note_off,480,0,2,,,,,,,,,,,,,,1,,,43,64
181120,note_on,0,0,1,,,,,,,,,,,,,,0,,,65,90
181120,note_off,160,0,1,,,,,,,,,,,,,,0,,,67,64
181200,note_off,240,0,5,,,,,,,,,,,,,,4,,,74,64
181200,note_on,0,0,5,,,,,,,,,,,,,,4,,,71,90
181200,note_on,240,0,2,,,,,,,,,,,,,,1,,,43,90
181200,note_on,0,0,2,,,,,,,,,,,,,,1,,,31,90
181280,note_on,0,0,1,,,,,,,,,,,,,,0,,,62,90
181280,note_off,160,0,1,,,,,,,,,,,,,,0,,,65,64
181440,note_off,240,0,5,,,,,,,,,,,,,,4,,,71,64
181440,note_on,0,0,5,,,,,,,,,,,,,,4,,,72,90
181440,note_off,240,0,2,,,,,,,,,,,,,,1,,,43,64
181440,note_off,0,0,2,,,,,,,,,,,,,,1,,,31,64
181440,note_on,0,0,2,,,,,,,,,,,,,,1,,,36,112
181440,note_on,0,0,1,,,,,,,,,,,,,,0,,,55,90
181440,note_off,160,0,1,,,,,,,,,,,,,,0,,,62,64
181600,note_off,160,0,1,,,,,,,,,,,,,,0,,,55,64
181600,note_on,0,0,1,,,,,,,,,,,,,,0,,,60,90
181760,note_off,160,0,1,,,,,,,,,,,,,,0,,,60,64
181760,note_on,0,0,1,,,,,,,,,,,,,,0,,,64,90
181920,note_on,0,0,1,,,,,,,,,,,,,,0,,,67,90
181920,note_off,480,0,2,,,,,,,,,,,,,,1,,,36,64
181920,note_off,160,0,1,,,,,,,,,,,,,,0,,,64,64
181940,note_off,500,0,5,,,,,,,,,,,,,,4,,,72,64
182080,note_off,160,0,1,,,,,,,,,,,,,,0,,,67,64
182080,note_on,0,0,1,,,,,,,,,,,,,,0,,,64,90
182160,note_on,0,0,2,,,,,,,,,,,,,,1,,,31,90
182160,note_on,240,0,2,,,,,,,,,,,,,,1,,,43,90
182160,note_on,220,0,5,,,,,,,,,,,,,,4,,,67,90
182240,note_on,0,0,1,,,,,,,,,,,,,,0,,,60,90
182240,note_off,160,0,1,,,,,,,,,,,,,,0,,,64,64
182400,note_off,0,0,2,,,,,,,,,,,,,,1,,,31,64
182400,note_off,240,0,2,,,,,,,,,,,,,,1,,,43,64
182400,note_on,0,0,1,,,,,,,,,,,,,,0,,,55,90
182400,note_on,0,0,5,,,,,,,,,,,,,,4,,,67,90
182400,note_on,0,0,2,,,,,,,,,,,,,,1,,,31,90
182400,note_on,0,0,2,,,,,,,,,,,,,,1,,,43,90
182400,note_off,160,0,1,,,,,,,,,,,,,,0,,,60,64
182400,note_off,240,0,5,,,,,,,,,,,,,,4,,,67,64
182560,note_on,0,0,1,,,,,,,,,,,,,,0,,,59,90
182560,note_off,160,0,1,,,,,,,,,,,,,,0,,,55,64
182720,note_off,160,0,1,,,,,,,,,,,,,,0,,,59,64
182720,note_on,0,0,1,,,,,,,,,,,,,,0,,,65,90
182880,note_off,480,0,5,,,,,,,,,,,,,,4,,,67,64
182880,note_off,0,0,2,,,,,,,,,,,,,,1,,,31,64
182880,note_on,0,0,5,,,,,,,,,,,,,,4,,,69,90
182880,note_off,160,0,1,,,,,,,,,,,,,,0,,,65,64
182880,note_on,0,0,1,,,,,,,,,,,,,,0,,,67,90
182880,note_off,480,0,2,,,,,,,,,,,,,,1,,,43,64
183040,note_on,0,0,1,,,,,,,,,,,,,,0,,,65,90
183040,note_off,160,0,1,,,,,,,,,,,,,,0,,,67,64
183120,note_on,240,0,2,,,,,,,,,,,,,,1,,,43,90
183120,note_off,240,0,5,,,,,,,,,,,,,,4,,,69,64
183120,note_on,0,0,5,,,,,,,,,,,,,,4,,,71,90
183120,note_on,0,0,2,,,,,,,,,,,,,,1,,,31,90
183200,note_off,160,0,1,,,,,,,,,,,,,,0,,,65,64
183200,note_on,0,0,1,,,,,,,,,,,,,,0,,,62,90
183360,note_off,160,0,1,,,,,,,,,,,,,,0,,,62,64
183360,note_on,0,0,1,,,,,,,,,,,,,,0,,,55,90
183360,note_off,240,0,5,,,,,,,,,,,,,,4,,,71,64
183360,note_on,0,0,5,,,,,,,,,,,,,,4,,,72,90
183360,note_off,240,0,2,,,,,,,,,,,,,,1,,,43,64
183360,note_off,0,0,2,,,,,,,,,,,,,,1,,,31,64
183360,note_on,0,0,2,,,,,,,,,,,,,,1,,,43,90
183360,note_on,0,0,2,,,,,,,,,,,,,,1,,,31,90
183520,note_off,160,0,1,,,,,,,,,,,,,,0,,,55,64
183520,note_on,0,0,1,,,,,,,,,,,,,,0,,,60,90
183680,note_off,160,0,1,,,,,,,,,,,,,,0,,,60,64
183680,note_on,0,0,1,,,,,,,,,,,,,,0,,,64,90
183840,note_off,480,0,2,,,,,,,,,,,,,,1,,,43,64
183840,note_off,0,0,2,,,,,,,,,,,,,,1,,,31,64
183840,note_off,480,0,5,,,,,,,,,,,,,,4,,,72,64
183840,note_on,0,0,5,,,,,,,,,,,,,,4,,,74,90
183840,note_on,0,0,1,,,,,,,,,,,,,,0,,,67,90
183840,note_off,160,0,1,,,,,,,,,,,,,,0,,,64,64
184000,note_off,160,0,1,,,,,,,,,,,,,,0,,,67,64
184000,note_on,0,0,1,,,,,,,,,,,,,,0,,,64,90
184080,note_on,240,0,2,,,,,,,,,,,,,,1,,,43,90
184080,note_on,0,0,5,,,,,,,,,,,,,,4,,,76,90
184080,note_off,240,0,5,,,,,,,,,,,,,,4,,,74,64
184080,note_on,0,0,2,,,,,,,,,,,,,,1,,,31,90
184160,note_off,160,0,1,,,,,,,,,,,,,,0,,,64,64
184160,note_on,0,0,1,,,,,,,,,,,,,,0,,,60,90
184320,note_off,240,0,5,,,,,,,,,,,,,,4,,,76,64
184320,note_off,240,0,2,,,,,,,,,,,,,,1,,,43,64
184320,note_on,0,0,1,,,,,,,,,,,,,,0,,,55,90
184320,note_on,0,0,2,,,,,,,,,,,,,,1,,,31,90
184320,note_on,0,0,2,,,,,,,,,,,,,,1,,,43,90
184320,note_off,160,0,1,,,,,,,,,,,,,,0,,,60,64
184320,note_on,0,0,5,,,,,,,,,,,,,,4,,,79,90
184320,note_off,0,0,2,,,,,,,,,,,,,,1,,,31,64
184480,note_on,0,0,1,,,,,,,,,,,,,,0,,,62,90
184480,note_off,160,0,1,,,,,,,,,,,,,,0,,,55,64
184560,note_on,0,0,5,,,,,,,,,,,,,,4,,,77,90
184560,note_off,240,0,5,,,,,,,,,,,,,,4,,,79,64
184640,note_on,0,0,1,,,,,,,,,,,,,,0,,,65,90
184640,note_off,160,0,1,,,,,,,,,,,,,,0,,,62,64
184790,note_off,230,0,5,,,,,,,,,,,,,,4,,,77,64
184800,note_off,160,0,1,,,,,,,,,,,,,,0,,,65,64
184800,note_on,10,0,5,,,,,,,,,,,,,,4,,,74,90
184800,note_on,0,0,1,,,,,,,,,,,,,,0,,,67,90
184800,note_off,0,0,2,,,,,,,,,,,,,,1,,,31,64
184800,note_off,480,0,2,,,,,,,,,,,,,,1,,,43,64
184960,note_off,160,0,1,,,,,,,,,,,,,,0,,,67,64
184960,note_on,0,0,1,,,,,,,,,,,,,,0,,,65,90
185040,note_on,0,0,5,,,,,,,,,,,,,,4,,,71,90
185040,note_on,0,0,2,,,,,,,,,,,,,,1,,,31,90
185040,note_off,240,0,5,,,,,,,,,,,,,,4,,,74,64
185040,note_on,240,0,2,,,,,,,,,,,,,,1,,,43,90
185120,note_on,0,0,1,,,,,,,,,,,,,,0,,,62,90
185120,note_off,160,0,1,,,,,,,,,,,,,,0,,,65,64
185280,note_on,0,0,2,,,,,,,,,,,,,,1,,,36,104
185280,note_on,0,0,2,,,,,,,,,,,,,,1,,,48,104
185280,note_off,160,0,1,,,,,,,,,,,,,,0,,,62,64
185280,note_on,0,0,1,,,,,,,,,,,,,,0,,,60,90
185280,note_on,0,0,5,,,,,,,,,,,,,,4,,,72,90
185280,note_off,240,0,5,,,,,,,,,,,,,,4,,,71,64
185280,note_off,240,0,2,,,,,,,,,,,,,,1,,,43,64
185280,note_off,0,0,2,,,,,,,,,,,,,,1,,,31,64
185380,note_off,100,0,1,,,,,,,,,,,,,,0,,,60,64
185400,control_change,20,0,1,,,,,,,,,,,,,,0,11,103,,
185440,note_on,40,0,1,,,,,,,,,,,,,,0,,,76,90
185440,note_on,0,0,1,,,,,,,,,,,,,,0,,,64,90
185580,note_off,140,0,1,,,,,,,,,,,,,,0,,,76,64
185580,note_off,0,0,1,,,,,,,,,,,,,,0,,,64,64
185600,note_on,0,0,1,,,,,,,,,,,,,,0,,,76,90
185600,note_on,20,0,1,,,,,,,,,,,,,,0,,,64,90
185740,note_off,140,0,1,,,,,,,,,,,,,,0,,,64,64
185740,note_off,0,0,1,,,,,,,,,,,,,,0,,,76,64
185740,note_off,460,0,5,,,,,,,,,,,,,,4,,,72,64
185760,note_on,20,0,1,,,,,,,,,,,,,,0,,,76,90
185760,note_on,0,0,1,,,,,,,,,,,,,,0,,,64,90
185760,note_off,0,0,2,,,,,,,,,,,,,,1,,,48,64
185760,note_off,480,0,2,,,,,,,,,,,,,,1,,,36,64
185900,note_off,140,0,1,,,,,,,,,,,,,,0,,,76,64
185900,note_off,0,0,1,,,,,,,,,,,,,,0,,,64,64
185920,note_on,0,0,1,,,,,,,,,,,,,,0,,,76,90
185920,note_on,20,0,1,,,,,,,,,,,,,,0,,,64,90
186060,note_off,0,0,1,,,,,,,,,,,,,,0,,,76,64
186060,note_off,140,0,1,,,,,,,,,,,,,,0,,,64,64
186080,note_on,20,0,1,,,,,,,,,,,,,,0,,,76,90
186080,note_on,0,0,1,,,,,,,,,,,,,,0,,,64,90
186220,note_off,0,0,1,,,,,,,,,,,,,,0,,,64,64
186220,note_off,140,0,1,,,,,,,,,,,,,,0,,,76,64
186240,note_on,0,0,1,,,,,,,,,,,,,,0,,,64,90
186240,note_on,20,0,1,,,,,,,,,,,,,,0,,,76,90
186380,note_off,0,0,1,,,,,,,,,,,,,,0,,,64,64
186380,note_off,140,0,1,,,,,,,,,,,,,,0,,,76,64
186400,note_on,20,0,1,,,,,,,,,,,,,,0,,,64,90
186400,note_on,0,0,1,,,,,,,,,,,,,,0,,,76,90
186540,note_off,140,0,1,,,,,,,,,,,,,,0,,,64,64
186540,note_off,0,0,1,,,,,,,,,,,,,,0,,,76,64
186560,note_on,0,0,1,,,,,,,,,,,,,,0,,,64,90
186560,note_on,20,0,1,,,,,,,,,,,,,,0,,,76,90
186700,note_off,0,0,1,,,,,,,,,,,,,,0,,,64,64
186700,note_off,140,0,1,,,,,,,,,,,,,,0,,,76,64
186720,note_on,0,0,1,,,,,,,,,,,,,,0,,,64,90
186720,note_on,20,0,1,,,,,,,,,,,,,,0,,,76,90
186813,control_change,1053,0,2,,,,,,,,,,,,,,1,11,110,,
186860,note_off,140,0,1,,,,,,,,,,,,,,0,,,76,64
186860,note_off,0,0,1,,,,,,,,,,,,,,0,,,64,64
186880,note_on,20,0,1,,,,,,,,,,,,,,0,,,64,90
186880,note_on,0,0,1,,,,,,,,,,,,,,0,,,76,90
187020,note_off,0,0,1,,,,,,,,,,,,,,0,,,76,64
187020,note_off,140,0,1,,,,,,,,,,,,,,0,,,64,64
187040,note_on,0,0,1,,,,,,,,,,,,,,0,,,64,90
187040,note_on,20,0,1,,,,,,,,,,,,,,0,,,76,90
187164,control_change,351,0,2,,,,,,,,,,,,,,1,11,110,,
187180,note_off,0,0,1,,,,,,,,,,,,,,0,,,64,64
187180,note_off,140,0,1,,,,,,,,,,,,,,0,,,76,64
187200,note_on,0,0,1,,,,,,,,,,,,,,0,,,64,90
187200,note_on,20,0,1,,,,,,,,,,,,,,0,,,76,90
187340,note_off,140,0,1,,,,,,,,,,,,,,0,,,76,64
187340,note_off,0,0,1,,,,,,,,,,,,,,0,,,64,64
187360,note_on,0,0,1,,,,,,,,,,,,,,0,,,76,90
187360,note_on,20,0,1,,,,,,,,,,,,,,0,,,64,90
187500,note_off,140,0,1,,,,,,,,,,,,,,0,,,64,64
187500,note_off,0,0,1,,,,,,,,,,,,,,0,,,76,64
187520,note_on,20,0,1,,,,,,,,,,,,,,0,,,76,90
187520,note_on,0,0,1,,,,,,,,,,,,,,0,,,64,90
187583,control_change,63,0,1,,,,,,,,,,,,,,0,11,102,,
187621,control_change,38,0,1,,,,,,,,,,,,,,0,11,100,,
187660,note_off,39,0,1,,,,,,,,,,,,,,0,,,76,64
187660,control_change,0,0,1,,,,,,,,,,,,,,0,11,99,,
187660,note_off,0,0,1,,,,,,,,,,,,,,0,,,64,64
187680,note_on,0,0,2,,,,,,,,,,,,,,1,,,61,90
187680,note_on,20,0,1,,,,,,,,,,,,,,0,,,76,90
187680,note_on,0,0,1,,,,,,,,,,,,,,0,,,64,90
187680,note_on,34080,0,4,,,,,,,,,,,,,,3,,,76,90
187680,note_on,516,0,2,,,,,,,,,,,,,,1,,,49,90
187698,control_change,18,0,1,,,,,,,,,,,,,,0,11,97,,
187737,control_change,39,0,1,,,,,,,,,,,,,,0,11,96,,
187775,control_change,38,0,1,,,,,,,,,,,,,,0,11,94,,
187814,control_change,39,0,1,,,,,,,,,,,,,,0,11,93,,
187820,note_off,6,0,1,,,,,,,,,,,,,,0,,,76,64
187820,note_off,0,0,1,,,,,,,,,,,,,,0,,,64,64
187840,note_on,0,0,1,,,,,,,,,,,,,,0,,,76,90
187840,note_on,20,0,1,,,,,,,,,,,,,,0,,,64,90
187852,control_change,12,0,1,,,,,,,,,,,,,,0,11,91,,
187891,control_change,39,0,1,,,,,,,,,,,,,,0,11,90,,
187929,control_change,38,0,1,,,,,,,,,,,,,,0,11,88,,
187968,control_change,39,0,1,,,,,,,,,,,,,,0,11,87,,
187980,note_off,12,0,1,,,,,,,,,,,,,,0,,,64,64
187980,note_off,0,0,1,,,,,,,,,,,,,,0,,,76,64
188000,note_on,0,0,1,,,,,,,,,,,,,,0,,,64,90
188000,note_on,20,0,1,,,,,,,,,,,,,,0,,,76,90
188006,control_change,6,0,1,,,,,,,,,,,,,,0,11,85,,
188044,control_change,38,0,1,,,,,,,,,,,,,,0,11,84,,
188140,note_off,96,0,1,,,,,,,,,,,,,,0,,,76,64
188140,note_off,0,0,1,,,,,,,,,,,,,,0,,,64,64
188160,note_off,480,0,4,,,,,,,,,,,,,,3,,,76,64
188160,note_on,0,0,2,,,,,,,,,,,,,,1,,,62,90
188160,note_on,0,0,4,,,,,,,,,,,,,,3,,,77,90
188160,note_on,20,0,1,,,,,,,,,,,,,,0,,,76,90
188160,note_on,480,0,2,,,,,,,,,,,,,,1,,,50,90
188160,note_on,0,0,1,,,,,,,,,,,,,,0,,,64,90
188170,note_off,0,0,2,,,,,,,,,,,,,,1,,,61,64
188170,note_off,10,0,2,,,,,,,,,,,,,,1,,,49,64
188300,note_off,140,0,1,,,,,,,,,,,,,,0,,,76,64
188300,note_off,0,0,1,,,,,,,,,,,,,,0,,,64,64
188320,note_on,0,0,1,,,,,,,,,,,,,,0,,,76,90
188320,note_on,20,0,1,,,,,,,,,,,,,,0,,,64,90
188460,note_off,140,0,1,,,,,,,,,,,,,,0,,,64,64
188460,note_off,0,0,1,,,,,,,,,,,,,,0,,,76,64
188480,note_on,20,0,1,,,,,,,,,,,,,,0,,,76,90
188480,note_on,0,0,1,,,,,,,,,,,,,,0,,,64,90
188620,note_off,140,0,1,,,,,,,,,,,,,,0,,,76,64
188620,note_off,0,0,1,,,,,,,,,,,,,,0,,,64,64
188640,note_on,0,0,1,,,,,,,,,,,,,,0,,,64,90
188640,note_on,20,0,1,,,,,,,,,,,,,,0,,,76,90
188780,note_off,0,0,1,,,,,,,,,,,,,,0,,,64,64
188780,note_off,140,0,1,,,,,,,,,,,,,,0,,,76,64
188800,note_on,20,0,1,,,,,,,,,,,,,,0,,,64,90
188800,note_on,0,0,1,,,,,,,,,,,,,,0,,,76,90
188940,note_off,140,0,1,,,,,,,,,,,,,,0,,,64,64
188940,note_off,0,0,1,,,,,,,,,,,,,,0,,,76,64
188960,note_on,20,0,1,,,,,,,,,,,,,,0,,,76,90
188960,note_on,0,0,1,,,,,,,,,,,,,,0,,,64,90
189100,note_off,140,0,1,,,,,,,,,,,,,,0,,,76,64
189100,note_off,0,0,1,,,,,,,,,,,,,,0,,,64,64
189120,note_off,950,0,2,,,,,,,,,,,,,,1,,,50,64
189120,note_on,0,0,2,,,,,,,,,,,,,,1,,,47,90
189120,note_on,0,0,2,,,,,,,,,,,,,,1,,,59,90
189120,note_off,960,0,4,,,,,,,,,,,,,,3,,,77,64
189120,note_on,0,0,4,,,,,,,,,,,,,,3,,,77,90
189120,note_on,20,0,1,,,,,,,,,,,,,,0,,,76,90
189120,note_on,0,0,1,,,,,,,,,,,,,,0,,,64,90
189120,note_off,0,0,2,,,,,,,,,,,,,,1,,,62,64
189260,note_off,0,0,1,,,,,,,,,,,,,,0,,,64,64
189260,note_off,140,0,1,,,,,,,,,,,,,,0,,,76,64
189280,note_on,0,0,1,,,,,,,,,,,,,,0,,,76,90
189280,note_on,20,0,1,,,,,,,,,,,,,,0,,,64,90
189420,note_off,140,0,1,,,,,,,,,,,,,,0,,,64,64
189420,note_off,0,0,1,,,,,,,,,,,,,,0,,,76,64
189440,note_on,0,0,1,,,,,,,,,,,,,,0,,,64,90
189440,note_on,20,0,1,,,,,,,,,,,,,,0,,,76,90
189580,note_off,140,0,1,,,,,,,,,,,,,,0,,,76,64
189580,note_off,0,0,1,,,,,,,,,,,,,,0,,,64,64
189600,note_on,20,0,1,,,,,,,,,,,,,,0,,,76,90
189600,note_on,0,0,1,,,,,,,,,,,,,,0,,,64,90
189740,note_off,140,0,1,,,,,,,,,,,,,,0,,,76,64
189740,note_off,0,0,1,,,,,,,,,,,,,,0,,,64,64
189760,note_on,20,0,1,,,,,,,,,,,,,,0,,,64,90
189760,note_on,0,0,1,,,,,,,,,,,,,,0,,,76,90
189840,note_off,720,0,4,,,,,,,,,,,,,,3,,,77,64
189840,note_on,0,0,4,,,,,,,,,,,,,,3,,,77,90
189900,note_off,0,0,1,,,,,,,,,,,,,,0,,,76,64
189900,note_off,140,0,1,,,,,,,,,,,,,,0,,,64,64
189920,note_on,20,0,1,,,,,,,,,,,,,,0,,,76,90
189920,note_on,0,0,1,,,,,,,,,,,,,,0,,,64,90
190060,note_off,140,0,1,,,,,,,,,,,,,,0,,,76,64
190060,note_off,0,0,1,,,,,,,,,,,,,,0,,,64,64
190080,note_on,0,0,4,,,,,,,,,,,,,,3,,,77,90
190080,note_off,240,0,4,,,,,,,,,,,,,,3,,,77,64
190080,note_on,0,0,1,,,,,,,,,,,,,,0,,,64,90
190080,note_off,960,0,2,,,,,,,,,,,,,,1,,,47,64
190080,note_off,0,0,2,,,,,,,,,,,,,,1,,,59,64
190080,note_on,20,0,1,,,,,,,,,,,,,,0,,,76,90
190080,note_on,0,0,2,,,,,,,,,,,,,,1,,,44,90
190080,note_on,0,0,2,,,,,,,,,,,,,,1,,,56,90
190220,note_off,0,0,1,,,,,,,,,,,,,,0,,,64,64
190220,note_off,140,0,1,,,,,,,,,,,,,,0,,,76,64
190240,note_on,0,0,1,,,,,,,,,,,,,,0,,,76,90
190240,note_on,20,0,1,,,,,,,,,,,,,,0,,,64,90
190320,note_on,0,0,4,,,,,,,,,,,,,,3,,,76,90
190320,note_off,240,0,4,,,,,,,,,,,,,,3,,,77,64
190380,note_off,0,0,1,,,,,,,,,,,,,,0,,,76,64
190380,note_off,140,0,1,,,,,,,,,,,,,,0,,,64,64
190400,note_on,20,0,1,,,,,,,,,,,,,,0,,,76,90
190400,note_on,0,0,1,,,,,,,,,,,,,,0,,,64,90
190540,note_off,140,0,1,,,,,,,,,,,,,,0,,,76,64
190540,note_off,0,0,1,,,,,,,,,,,,,,0,,,64,64
190560,note_on,20,0,1,,,,,,,,,,,,,,0,,,76,90
190560,note_on,0,0,1,,,,,,,,,,,,,,0,,,64,90
190560,note_off,240,0,4,,,,,,,,,,,,,,3,,,76,64
190560,note_on,0,0,4,,,,,,,,,,,,,,3,,,76,90
190700,note_off,140,0,1,,,,,,,,,,,,,,0,,,76,64
190700,note_off,0,0,1,,,,,,,,,,,,,,0,,,64,64
190720,note_on,0,0,1,,,,,,,,,,,,,,0,,,76,90
190720,note_on,20,0,1,,,,,,,,,,,,,,0,,,64,90
190860,note_off,140,0,1,,,,,,,,,,,,,,0,,,64,64
190860,note_off,0,0,1,,,,,,,,,,,,,,0,,,76,64
190880,note_on,0,0,1,,,,,,,,,,,,,,0,,,64,90
190880,note_on,20,0,1,,,,,,,,,,,,,,0,,,76,90
191020,note_off,0,0,1,,,,,,,,,,,,,,0,,,64,64
191020,note_off,140,0,1,,,,,,,,,,,,,,0,,,76,64
191040,note_off,480,0,4,,,,,,,,,,,,,,3,,,76,64
191040,note_off,0,0,2,,,,,,,,,,,,,,1,,,56,64
191040,note_on,0,0,1,,,,,,,,,,,,,,0,,,64,90
191040,note_on,20,0,1,,,,,,,,,,,,,,0,,,76,90
191040,note_off,960,0,2,,,,,,,,,,,,,,1,,,44,64
191180,note_off,0,0,1,,,,,,,,,,,,,,0,,,64,64
191180,note_off,140,0,1,,,,,,,,,,,,,,0,,,76,64
191200,note_on,0,0,1,,,,,,,,,,,,,,0,,,76,90
191200,note_on,20,0,1,,,,,,,,,,,,,,0,,,64,90
191340,note_off,0,0,1,,,,,,,,,,,,,,0,,,76,64
191340,note_off,140,0,1,,,,,,,,,,,,,,0,,,64,64
191360,note_on,0,0,1,,,,,,,,,,,,,,0,,,64,90
191360,note_on,20,0,1,,,,,,,,,,,,,,0,,,76,90
191500,note_off,0,0,1,,,,,,,,,,,,,,0,,,64,64
191500,note_off,140,0,1,,,,,,,,,,,,,,0,,,76,64
191520,note_on,0,0,2,,,,,,,,,,,,,,1,,,61,90
191520,note_on,480,0,4,,,,,,,,,,,,,,3,,,76,90
191520,note_on,0,0,1,,,,,,,,,,,,,,0,,,64,90
191520,note_on,20,0,1,,,,,,,,,,,,,,0,,,76,90
191520,note_on,480,0,2,,,,,,,,,,,,,,1,,,49,90
191660,note_off,140,0,1,,,,,,,,,,,,,,0,,,76,64
191660,note_off,0,0,1,,,,,,,,,,,,,,0,,,64,64
191680,note_on,0,0,1,,,,,,,,,,,,,,0,,,76,90
191680,note_on,20,0,1,,,,,,,,,,,,,,0,,,64,90
191820,note_off,140,0,1,,,,,,,,,,,,,,0,,,64,64
191820,note_off,0,0,1,,,,,,,,,,,,,,0,,,76,64
191840,note_on,20,0,1,,,,,,,,,,,,,,0,,,76,90
191840,note_on,0,0,1,,,,,,,,,,,,,,0,,,64,90
191980,note_off,140,0,1,,,,,,,,,,,,,,0,,,76,64
191980,note_off,0,0,1,,,,,,,,,,,,,,0,,,64,64
192000,note_on,0,0,2,,,,,,,,,,,,,,1,,,62,90
192000,note_off,480,0,4,,,,,,,,,,,,,,3,,,76,64
192000,note_on,480,0,2,,,,,,,,,,,,,,1,,,50,90
192000,note_on,20,0,1,,,,,,,,,,,,,,0,,,76,90
192000,note_on,0,0,1,,,,,,,,,,,,,,0,,,64,90
192000,note_on,0,0,4,,,,,,,,,,,,,,3,,,77,90
192010,note_off,0,0,2,,,,,,,,,,,,,,1,,,61,64
192010,note_off,10,0,2,,,,,,,,,,,,,,1,,,49,64
192140,note_off,0,0,1,,,,,,,,,,,,,,0,,,64,64
192140,note_off,140,0,1,,,,,,,,,,,,,,0,,,76,64
192160,note_on,20,0,1,,,,,,,,,,,,,,0,,,64,90
192160,note_on,0,0,1,,,,,,,,,,,,,,0,,,76,90
192300,note_off,140,0,1,,,,,,,,,,,,,,0,,,64,64
192300,note_off,0,0,1,,,,,,,,,,,,,,0,,,76,64
192320,note_on,20,0,1,,,,,,,,,,,,,,0,,,76,90
192320,note_on,0,0,1,,,,,,,,,,,,,,0,,,64,90
192460,note_off,140,0,1,,,,,,,,,,,,,,0,,,76,64
192460,note_off,0,0,1,,,,,,,,,,,,,,0,,,64,64
192480,note_on,20,0,1,,,,,,,,,,,,,,0,,,76,90
192480,note_on,0,0,1,,,,,,,,,,,,,,0,,,64,90
192620,note_off,0,0,1,,,,,,,,,,,,,,0,,,64,64
192620,note_off,140,0,1,,,,,,,,,,,,,,0,,,76,64
192640,note_on,0,0,1,,,,,,,,,,,,,,0,,,76,90
192640,note_on,20,0,1,,,,,,,,,,,,,,0,,,64,90
192780,note_off,0,0,1,,,,,,,,,,,,,,0,,,76,64
192780,note_off,140,0,1,,,,,,,,,,,,,,0,,,64,64
192800,note_on,20,0,1,,,,,,,,,,,,,,0,,,76,90
192800,note_on,0,0,1,,,,,,,,,,,,,,0,,,64,90
192940,note_off,140,0,1,,,,,,,,,,,,,,0,,,76,64
192940,note_off,0,0,1,,,,,,,,,,,,,,0,,,64,64
192960,note_on,20,0,1,,,,,,,,,,,,,,0,,,76,90
192960,note_on,0,0,4,,,,,,,,,,,,,,3,,,77,90
192960,note_off,950,0,2,,,,,,,,,,,,,,1,,,50,64
192960,note_off,960,0,4,,,,,,,,,,,,,,3,,,77,64
192960,note_on,0,0,2,,,,,,,,,,,,,,1,,,47,90
192960,note_off,0,0,2,,,,,,,,,,,,,,1,,,62,64
192960,note_on,0,0,1,,,,,,,,,,,,,,0,,,64,90
192960,note_on,0,0,2,,,,,,,,,,,,,,1,,,59,90
193100,note_off,0,0,1,,,,,,,,,,,,,,0,,,64,64
193100,note_off,140,0,1,,,,,,,,,,,,,,0,,,76,64
193120,note_on,20,0,1,,,,,,,,,,,,,,0,,,64,90
193120,note_on,0,0,1,,,,,,,,,,,,,,0,,,76,90
193260,note_off,140,0,1,,,,,,,,,,,,,,0,,,64,64
193260,note_off,0,0,1,,,,,,,,,,,,,,0,,,76,64
193280,note_on,20,0,1,,,,,,,,,,,,,,0,,,76,90
193280,note_on,0,0,1,,,,,,,,,,,,,,0,,,64,90
193420,note_off,140,0,1,,,,,,,,,,,,,,0,,,76,64
193420,note_off,0,0,1,,,,,,,,,,,,,,0,,,64,64
193440,note_on,20,0,1,,,,,,,,,,,,,,0,,,76,90
193440,note_on,0,0,1,,,,,,,,,,,,,,0,,,64,90
193580,note_off,0,0,1,,,,,,,,,,,,,,0,,,64,64
193580,note_off,140,0,1,,,,,,,,,,,,,,0,,,76,64
193600,note_on,0,0,1,,,,,,,,,,,,,,0,,,76,90
193600,note_on,20,0,1,,,,,,,,,,,,,,0,,,64,90
193680,note_on,0,0,4,,,,,,,,,,,,,,3,,,77,90
193680,note_off,720,0,4,,,,,,,,,,,,,,3,,,77,64
193740,note_off,0,0,1,,,,,,,,,,,,,,0,,,76,64
193740,note_off,140,0,1,,,,,,,,,,,,,,0,,,64,64
193760,note_on,0,0,1,,,,,,,,,,,,,,0,,,64,90
193760,note_on,20,0,1,,,,,,,,,,,,,,0,,,76,90
193900,note_off,140,0,1,,,,,,,,,,,,,,0,,,76,64
193900,note_off,0,0,1,,,,,,,,,,,,,,0,,,64,64
193920,note_on,0,0,4,,,,,,,,,,,,,,3,,,76,90
193920,note_on,0,0,1,,,,,,,,,,,,,,0,,,64,90
193920,note_off,240,0,4,,,,,,,,,,,,,,3,,,77,64
193920,note_on,20,0,1,,,,,,,,,,,,,,0,,,76,90
193920,note_off,0,0,2,,,,,,,,,,,,,,1,,,59,64
193920,note_on,0,0,2,,,,,,,,,,,,,,1,,,44,90
193920,note_on,0,0,2,,,,,,,,,,,,,,1,,,56,90
193920,note_off,960,0,2,,,,,,,,,,,,,,1,,,47,64
194060,note_off,0,0,1,,,,,,,,,,,,,,0,,,64,64
194060,note_off,140,0,1,,,,,,,,,,,,,,0,,,76,64
194080,note_on,0,0,1,,,,,,,,,,,,,,0,,,76,90
194080,note_on,20,0,1,,,,,,,,,,,,,,0,,,64,90
194220,note_off,0,0,1,,,,,,,,,,,,,,0,,,76,64
194220,note_off,140,0,1,,,,,,,,,,,,,,0,,,64,64
194240,note_on,0,0,1,,,,,,,,,,,,,,0,,,64,90
194240,note_on,20,0,1,,,,,,,,,,,,,,0,,,76,90
194380,note_off,140,0,1,,,,,,,,,,,,,,0,,,76,64
194380,note_off,0,0,1,,,,,,,,,,,,,,0,,,64,64
194400,note_on,20,0,1,,,,,,,,,,,,,,0,,,76,90
194400,note_on,0,0,1,,,,,,,,,,,,,,0,,,64,90
194540,note_off,140,0,1,,,,,,,,,,,,,,0,,,76,64
194540,note_off,0,0,1,,,,,,,,,,,,,,0,,,64,64
194560,note_on,20,0,1,,,,,,,,,,,,,,0,,,64,90
194560,note_on,0,0,1,,,,,,,,,,,,,,0,,,76,90
194700,note_off,0,0,1,,,,,,,,,,,,,,0,,,76,64
194700,note_off,140,0,1,,,,,,,,,,,,,,0,,,64,64
194720,note_on,20,0,1,,,,,,,,,,,,,,0,,,76,90
194720,note_on,0,0,1,,,,,,,,,,,,,,0,,,64,90
194860,note_off,140,0,1,,,,,,,,,,,,,,0,,,76,64
194860,note_off,0,0,1,,,,,,,,,,,,,,0,,,64,64
194880,note_off,0,0,2,,,,,,,,,,,,,,1,,,56,64
194880,note_off,960,0,2,,,,,,,,,,,,,,1,,,44,64
194880,note_off,960,0,4,,,,,,,,,,,,,,3,,,76,64
194880,note_on,0,0,1,,,,,,,,,,,,,,0,,,64,90
194880,note_on,20,0,1,,,,,,,,,,,,,,0,,,76,90
195020,note_off,0,0,1,,,,,,,,,,,,,,0,,,64,64
195020,note_off,140,0,1,,,,,,,,,,,,,,0,,,76,64
195040,note_on,20,0,1,,,,,,,,,,,,,,0,,,64,90
195040,note_on,0,0,1,,,,,,,,,,,,,,0,,,76,90
195180,note_off,140,0,1,,,,,,,,,,,,,,0,,,64,64
195180,note_off,0,0,1,,,,,,,,,,,,,,0,,,76,64
195200,note_on,20,0,1,,,,,,,,,,,,,,0,,,76,90
195200,note_on,0,0,1,,,,,,,,,,,,,,0,,,64,90
195340,note_off,140,0,1,,,,,,,,,,,,,,0,,,76,64
195340,note_off,0,0,1,,,,,,,,,,,,,,0,,,64,64
195360,note_on,480,0,4,,,,,,,,,,,,,,3,,,71,90
195360,note_on,0,0,1,,,,,,,,,,,,,,0,,,64,90
195360,note_on,20,0,1,,,,,,,,,,,,,,0,,,76,90
195370,note_on,490,0,2,,,,,,,,,,,,,,1,,,56,90
195500,note_off,140,0,1,,,,,,,,,,,,,,0,,,76,64
195500,note_off,0,0,1,,,,,,,,,,,,,,0,,,64,64
195520,note_on,20,0,1,,,,,,,,,,,,,,0,,,64,90
195520,note_on,0,0,1,,,,,,,,,,,,,,0,,,76,90
195660,note_off,140,0,1,,,,,,,,,,,,,,0,,,64,64
195660,note_off,0,0,1,,,,,,,,,,,,,,0,,,76,64
195680,note_on,20,0,1,,,,,,,,,,,,,,0,,,76,90
195680,note_on,0,0,1,,,,,,,,,,,,,,0,,,64,90
195820,note_off,0,0,1,,,,,,,,,,,,,,0,,,64,64
195820,note_off,140,0,1,,,,,,,,,,,,,,0,,,76,64
195840,note_on,0,0,4,,,,,,,,,,,,,,3,,,72,90
195840,note_off,480,0,4,,,,,,,,,,,,,,3,,,71,64
195840,note_on,470,0,2,,,,,,,,,,,,,,1,,,57,90
195840,note_on,0,0,1,,,,,,,,,,,,,,0,,,64,90
195840,note_on,20,0,1,,,,,,,,,,,,,,0,,,76,90
195850,note_off,10,0,2,,,,,,,,,,,,,,1,,,56,64
195980,note_off,0,0,1,,,,,,,,,,,,,,0,,,64,64
195980,note_off,140,0,1,,,,,,,,,,,,,,0,,,76,64
196000,note_on,20,0,1,,,,,,,,,,,,,,0,,,64,90
196000,note_on,0,0,1,,,,,,,,,,,,,,0,,,76,90
196140,note_off,140,0,1,,,,,,,,,,,,,,0,,,64,64
196140,note_off,0,0,1,,,,,,,,,,,,,,0,,,76,64
196160,note_on,20,0,1,,,,,,,,,,,,,,0,,,76,90
196160,note_on,0,0,1,,,,,,,,,,,,,,0,,,64,90
196300,note_off,0,0,1,,,,,,,,,,,,,,0,,,64,64
196300,note_off,140,0,1,,,,,,,,,,,,,,0,,,76,64
196310,note_on,460,0,2,,,,,,,,,,,,,,1,,,56,90
196320,note_on,20,0,1,,,,,,,,,,,,,,0,,,76,90
196320,note_on,0,0,1,,,,,,,,,,,,,,0,,,64,90
196320,note_on,0,0,4,,,,,,,,,,,,,,3,,,71,90
196320,note_off,10,0,2,,,,,,,,,,,,,,1,,,57,64
196320,note_off,480,0,4,,,,,,,,,,,,,,3,,,72,64
196460,note_off,140,0,1,,,,,,,,,,,,,,0,,,76,64
196460,note_off,0,0,1,,,,,,,,,,,,,,0,,,64,64
196480,note_on,20,0,1,,,,,,,,,,,,,,0,,,64,90
196480,note_on,0,0,1,,,,,,,,,,,,,,0,,,76,90
196620,note_off,0,0,1,,,,,,,,,,,,,,0,,,76,64
196620,note_off,140,0,1,,,,,,,,,,,,,,0,,,64,64
196640,note_on,0,0,1,,,,,,,,,,,,,,0,,,64,90
196640,note_on,20,0,1,,,,,,,,,,,,,,0,,,76,90
196780,note_off,140,0,1,,,,,,,,,,,,,,0,,,76,64
196780,note_off,0,0,1,,,,,,,,,,,,,,0,,,64,64
196790,note_off,470,0,2,,,,,,,,,,,,,,1,,,56,64
196790,note_on,0,0,2,,,,,,,,,,,,,,1,,,57,90
196800,note_off,480,0,4,,,,,,,,,,,,,,3,,,71,64
196800,note_on,20,0,1,,,,,,,,,,,,,,0,,,76,90
196800,note_on,0,0,1,,,,,,,,,,,,,,0,,,64,90
196800,note_on,0,0,4,,,,,,,,,,,,,,3,,,72,90
196940,note_off,140,0,1,,,,,,,,,,,,,,0,,,76,64
196940,note_off,0,0,1,,,,,,,,,,,,,,0,,,64,64
196960,note_on,20,0,1,,,,,,,,,,,,,,0,,,64,90
196960,note_on,0,0,1,,,,,,,,,,,,,,0,,,76,90
197100,note_off,140,0,1,,,,,,,,,,,,,,0,,,64,64
197100,note_off,0,0,1,,,,,,,,,,,,,,0,,,76,64
197120,note_on,0,0,1,,,,,,,,,,,,,,0,,,64,90
197120,note_on,20,0,1,,,,,,,,,,,,,,0,,,76,90
197260,note_off,140,0,1,,,,,,,,,,,,,,0,,,76,64
197260,note_off,0,0,1,,,,,,,,,,,,,,0,,,64,64
197270,note_off,480,0,2,,,,,,,,,,,,,,1,,,57,64
197280,note_on,20,0,1,,,,,,,,,,,,,,0,,,76,90
197280,note_on,0,0,1,,,,,,,,,,,,,,0,,,64,90
197280,note_on,10,0,2,,,,,,,,,,,,,,1,,,58,90
197280,note_off,480,0,4,,,,,,,,,,,,,,3,,,72,64
197280,note_on,0,0,4,,,,,,,,,,,,,,3,,,73,90
197420,note_off,140,0,1,,,,,,,,,,,,,,0,,,76,64
197420,note_off,0,0,1,,,,,,,,,,,,,,0,,,64,64
197440,note_on,20,0,1,,,,,,,,,,,,,,0,,,64,90
197440,note_on,0,0,1,,,,,,,,,,,,,,0,,,76,90
197520,note_off,240,0,4,,,,,,,,,,,,,,3,,,73,64
197520,note_on,0,0,4,,,,,,,,,,,,,,3,,,73,90
197580,note_off,0,0,1,,,,,,,,,,,,,,0,,,76,64
197580,note_off,140,0,1,,,,,,,,,,,,,,0,,,64,64
197600,note_on,20,0,1,,,,,,,,,,,,,,0,,,76,90
197600,note_on,0,0,1,,,,,,,,,,,,,,0,,,64,90
197740,note_off,140,0,1,,,,,,,,,,,,,,0,,,76,64
197740,note_off,0,0,1,,,,,,,,,,,,,,0,,,64,64
197760,note_on,20,0,1,,,,,,,,,,,,,,0,,,76,90
197760,note_off,480,0,2,,,,,,,,,,,,,,1,,,58,64
197760,note_on,0,0,4,,,,,,,,,,,,,,3,,,74,90
197760,note_off,240,0,4,,,,,,,,,,,,,,3,,,73,64
197760,note_on,0,0,1,,,,,,,,,,,,,,0,,,64,90
197770,note_on,10,0,2,,,,,,,,,,,,,,1,,,59,90
197802,control_change,42,0,1,,,,,,,,,,,,,,0,11,84,,
197900,note_off,0,0,1,,,,,,,,,,,,,,0,,,64,64
197900,note_off,98,0,1,,,,,,,,,,,,,,0,,,76,64
197920,note_on,0,0,1,,,,,,,,,,,,,,0,,,76,90
197920,note_on,20,0,1,,,,,,,,,,,,,,0,,,64,90
197997,control_change,77,0,1,,,,,,,,,,,,,,0,11,83,,
198060,note_off,0,0,1,,,,,,,,,,,,,,0,,,76,64
198060,note_off,63,0,1,,,,,,,,,,,,,,0,,,64,64
198080,note_on,20,0,1,,,,,,,,,,,,,,0,,,76,90
198080,note_on,0,0,1,,,,,,,,,,,,,,0,,,64,90
198193,control_change,113,0,1,,,,,,,,,,,,,,0,11,82,,
198220,note_off,27,0,1,,,,,,,,,,,,,,0,,,76,64
198220,note_off,0,0,1,,,,,,,,,,,,,,0,,,64,64
198240,note_on,20,0,1,,,,,,,,,,,,,,0,,,76,90
198240,note_on,0,0,1,,,,,,,,,,,,,,0,,,64,90
198380,note_off,0,0,1,,,,,,,,,,,,,,0,,,64,64
198380,note_off,140,0,1,,,,,,,,,,,,,,0,,,76,64
198388,control_change,8,0,1,,,,,,,,,,,,,,0,11,81,,
198400,note_on,12,0,1,,,,,,,,,,,,,,0,,,64,90
198400,note_on,0,0,1,,,,,,,,,,,,,,0,,,76,90
198540,note_off,140,0,1,,,,,,,,,,,,,,0,,,64,64
198540,note_off,0,0,1,,,,,,,,,,,,,,0,,,76,64
198560,note_on,0,0,1,,,,,,,,,,,,,,0,,,64,90
198560,note_on,20,0,1,,,,,,,,,,,,,,0,,,76,90
198584,control_change,24,0,1,,,,,,,,,,,,,,0,11,80,,
198700,note_off,0,0,1,,,,,,,,,,,,,,0,,,64,64
198700,note_off,116,0,1,,,,,,,,,,,,,,0,,,76,64
198720,note_on,950,0,2,,,,,,,,,,,,,,1,,,60,90
198720,note_on,0,0,4,,,,,,,,,,,,,,3,,,75,90
198720,note_off,960,0,4,,,,,,,,,,,,,,3,,,74,64
198720,note_on,0,0,1,,,,,,,,,,,,,,0,,,64,90
198720,note_on,20,0,1,,,,,,,,,,,,,,0,,,76,90
198730,note_off,10,0,2,,,,,,,,,,,,,,1,,,59,64
198779,control_change,59,0,1,,,,,,,,,,,,,,0,11,79,,
198860,note_off,81,0,1,,,,,,,,,,,,,,0,,,76,64
198860,note_off,0,0,1,,,,,,,,,,,,,,0,,,64,64
198880,note_on,0,0,1,,,,,,,,,,,,,,0,,,76,90
198880,note_on,20,0,1,,,,,,,,,,,,,,0,,,64,90
198975,control_change,95,0,1,,,,,,,,,,,,,,0,11,78,,
199020,note_off,0,0,1,,,,,,,,,,,,,,0,,,76,64
199020,note_off,45,0,1,,,,,,,,,,,,,,0,,,64,64
199040,note_on,0,0,1,,,,,,,,,,,,,,0,,,64,90
199040,note_on,20,0,1,,,,,,,,,,,,,,0,,,76,90
199170,control_change,130,0,1,,,,,,,,,,,,,,0,11,77,,
199180,note_off,10,0,1,,,,,,,,,,,,,,0,,,76,64
199180,note_off,0,0,1,,,,,,,,,,,,,,0,,,64,64
199200,note_on,0,0,1,,,,,,,,,,,,,,0,,,64,90
199200,note_on,20,0,1,,,,,,,,,,,,,,0,,,76,90
199340,note_off,0,0,1,,,,,,,,,,,,,,0,,,64,64
199340,note_off,140,0,1,,,,,,,,,,,,,,0,,,76,64
199360,note_on,0,0,1,,,,,,,,,,,,,,0,,,76,90
199360,note_on,20,0,1,,,,,,,,,,,,,,0,,,64,90
199366,control_change,6,0,1,,,,,,,,,,,,,,0,11,76,,
199500,note_off,134,0,1,,,,,,,,,,,,,,0,,,64,64
199500,note_off,0,0,1,,,,,,,,,,,,,,0,,,76,64
199520,note_on,20,0,1,,,,,,,,,,,,,,0,,,76,90
199520,note_on,0,0,1,,,,,,,,,,,,,,0,,,64,90
199562,control_change,42,0,1,,,,,,,,,,,,,,0,11,75,,
199660,note_off,0,0,1,,,,,,,,,,,,,,0,,,64,64
199660,note_off,98,0,1,,,,,,,,,,,,,,0,,,76,64
199680,note_off,960,0,4,,,,,,,,,,,,,,3,,,75,64
199680,note_on,20,0,1,,,,,,,,,,,,,,0,,,76,90
199680,note_on,0,0,1,,,,,,,,,,,,,,0,,,64,90
199680,note_on,0,0,4,,,,,,,,,,,,,,3,,,76,90
199680,note_off,950,0,2,,,,,,,,,,,,,,1,,,60,64
199680,note_on,0,0,2,,,,,,,,,,,,,,1,,,61,90
199757,control_change,77,0,1,,,,,,,,,,,,,,0,11,74,,
199820,note_off,63,0,1,,,,,,,,,,,,,,0,,,76,64
199820,note_off,0,0,1,,,,,,,,,,,,,,0,,,64,64
199840,note_on,20,0,1,,,,,,,,,,,,,,0,,,64,90
199840,note_on,0,0,1,,,,,,,,,,,,,,0,,,76,90
199953,control_change,113,0,1,,,,,,,,,,,,,,0,11,73,,
199980,note_off,27,0,1,,,,,,,,,,,,,,0,,,64,64
199980,note_off,0,0,1,,,,,,,,,,,,,,0,,,76,64
200000,note_on,0,0,1,,,,,,,,,,,,,,0,,,64,90
200000,note_on,20,0,1,,,,,,,,,,,,,,0,,,76,90
200140,note_off,140,0,1,,,,,,,,,,,,,,0,,,76,64
200140,note_off,0,0,1,,,,,,,,,,,,,,0,,,64,64
200148,control_change,8,0,1,,,,,,,,,,,,,,0,11,72,,
200160,note_on,0,0,1,,,,,,,,,,,,,,0,,,64,90
200160,note_on,12,0,1,,,,,,,,,,,,,,0,,,76,90
200300,note_off,0,0,1,,,,,,,,,,,,,,0,,,64,64
200300,note_off,140,0,1,,,,,,,,,,,,,,0,,,76,64
200320,note_on,0,0,1,,,,,,,,,,,,,,0,,,76,90
200320,note_on,20,0,1,,,,,,,,,,,,,,0,,,64,90
200344,control_change,24,0,1,,,,,,,,,,,,,,0,11,71,,
200460,note_off,116,0,1,,,,,,,,,,,,,,0,,,64,64
200460,note_off,0,0,1,,,,,,,,,,,,,,0,,,76,64
200480,note_on,0,0,1,,,,,,,,,,,,,,0,,,64,90
200480,note_on,20,0,1,,,,,,,,,,,,,,0,,,76,90
200539,control_change,59,0,1,,,,,,,,,,,,,,0,11,70,,
200620,note_off,81,0,1,,,,,,,,,,,,,,0,,,76,64
200620,note_off,0,0,1,,,,,,,,,,,,,,0,,,64,64
200640,note_on,20,0,1,,,,,,,,,,,,,,0,,,76,90
200640,note_off,960,0,4,,,,,,,,,,,,,,3,,,76,64
200640,note_on,0,0,1,,,,,,,,,,,,,,0,,,64,90
200735,control_change,95,0,1,,,,,,,,,,,,,,0,11,69,,
200780,note_off,0,0,1,,,,,,,,,,,,,,0,,,64,64
200780,note_off,45,0,1,,,,,,,,,,,,,,0,,,76,64
200800,note_on,0,0,1,,,,,,,,,,,,,,0,,,76,90
200800,note_on,20,0,1,,,,,,,,,,,,,,0,,,64,90
200930,control_change,130,0,1,,,,,,,,,,,,,,0,11,68,,
200940,note_off,0,0,1,,,,,,,,,,,,,,0,,,76,64
200940,note_off,10,0,1,,,,,,,,,,,,,,0,,,64,64
200960,note_on,20,0,1,,,,,,,,,,,,,,0,,,76,90
200960,note_on,0,0,1,,,,,,,,,,,,,,0,,,64,90
201100,note_off,140,0,1,,,,,,,,,,,,,,0,,,76,64
201100,note_off,0,0,1,,,,,,,,,,,,,,0,,,64,64
201120,note_on,20,0,1,,,,,,,,,,,,,,0,,,76,90
201120,note_on,0,0,1,,,,,,,,,,,,,,0,,,64,90
201126,control_change,6,0,1,,,,,,,,,,,,,,0,11,67,,
201260,note_off,0,0,1,,,,,,,,,,,,,,0,,,64,64
201260,note_off,134,0,1,,,,,,,,,,,,,,0,,,76,64
201280,note_on,0,0,1,,,,,,,,,,,,,,0,,,76,90
201280,note_on,20,0,1,,,,,,,,,,,,,,0,,,64,90
201321,control_change,41,0,1,,,,,,,,,,,,,,0,11,66,,
201420,note_off,99,0,1,,,,,,,,,,,,,,0,,,64,64
201420,note_off,0,0,1,,,,,,,,,,,,,,0,,,76,64
201440,note_on,0,0,1,,,,,,,,,,,,,,0,,,64,90
201440,note_on,20,0,1,,,,,,,,,,,,,,0,,,76,90
201580,note_off,140,0,1,,,,,,,,,,,,,,0,,,76,64
201580,note_off,0,0,1,,,,,,,,,,,,,,0,,,64,64
201600,note_on,20,0,1,,,,,,,,,,,,,,0,,,76,90
201600,note_on,0,0,1,,,,,,,,,,,,,,0,,,64,90
201740,note_off,0,0,1,,,,,,,,,,,,,,0,,,64,64
201740,note_off,140,0,1,,,,,,,,,,,,,,0,,,76,64
201760,note_on,20,0,1,,,,,,,,,,,,,,0,,,64,90
201760,note_on,0,0,1,,,,,,,,,,,,,,0,,,76,90
201900,note_off,140,0,1,,,,,,,,,,,,,,0,,,64,64
201900,note_off,0,0,1,,,,,,,,,,,,,,0,,,76,64
201920,note_on,20,0,1,,,,,,,,,,,,,,0,,,76,90
201920,note_on,0,0,1,,,,,,,,,,,,,,0,,,64,90
202060,note_off,140,0,1,,,,,,,,,,,,,,0,,,76,64
202060,note_off,0,0,1,,,,,,,,,,,,,,0,,,64,64
202080,note_off,2400,0,2,,,,,,,,,,,,,,1,,,61,64
202080,note_on,0,0,2,,,,,,,,,,,,,,1,,,54,90
202081,note_on,21,0,1,,,,,,,,,,,,,,0,,,69,90
202081,note_on,0,0,1,,,,,,,,,,,,,,0,,,66,90
202081,note_on,0,0,1,,,,,,,,,,,,,,0,,,75,90
202221,note_off,140,0,1,,,,,,,,,,,,,,0,,,69,64
202221,note_off,0,0,1,,,,,,,,,,,,,,0,,,66,64
202221,note_off,0,0,1,,,,,,,,,,,,,,0,,,75,64
202241,note_on,20,0,1,,,,,,,,,,,,,,0,,,66,90
202241,note_on,0,0,1,,,,,,,,,,,,,,0,,,69,90
202241,note_on,0,0,1,,,,,,,,,,,,,,0,,,75,90
202345,control_change,38185,0,3,,,,,,,,,,,,,,2,11,110,,
202381,note_off,140,0,1,,,,,,,,,,,,,,0,,,66,64
202381,note_off,0,0,1,,,,,,,,,,,,,,0,,,69,64
202381,note_off,0,0,1,,,,,,,,,,,,,,0,,,75,64
202401,note_on,20,0,1,,,,,,,,,,,,,,0,,,69,90
202401,note_on,0,0,1,,,,,,,,,,,,,,0,,,66,90
202401,note_on,0,0,1,,,,,,,,,,,,,,0,,,75,90
202541,note_off,140,0,1,,,,,,,,,,,,,,0,,,69,64
202541,note_off,0,0,1,,,,,,,,,,,,,,0,,,66,64
202541,note_off,0,0,1,,,,,,,,,,,,,,0,,,75,64
202560,note_on,0,0,2,,,,,,,,,,,,,,1,,,56,90
202560,note_off,480,0,2,,,,,,,,,,,,,,1,,,54,64
202565,note_on,0,0,1,,,,,,,,,,,,,,0,,,73,90
202565,note_on,24,0,1,,,,,,,,,,,,,,0,,,68,90
202565,note_on,0,0,1,,,,,,,,,,,,,,0,,,64,90
202705,note_off,140,0,1,,,,,,,,,,,,,,0,,,68,64
202705,note_off,0,0,1,,,,,,,,,,,,,,0,,,64,64
202705,note_off,0,0,1,,,,,,,,,,,,,,0,,,73,64
202725,note_on,0,0,1,,,,,,,,,,,,,,0,,,68,90
202725,note_on,0,0,1,,,,,,,,,,,,,,0,,,73,90
202725,note_on,20,0,1,,,,,,,,,,,,,,0,,,64,90
202865,note_off,140,0,1,,,,,,,,,,,,,,0,,,64,64
202865,note_off,0,0,1,,,,,,,,,,,,,,0,,,68,64
202865,note_off,0,0,1,,,,,,,,,,,,,,0,,,73,64
202885,note_on,0,0,1,,,,,,,,,,,,,,0,,,73,90
202885,note_on,20,0,1,,,,,,,,,,,,,,0,,,68,90
202885,note_on,0,0,1,,,,,,,,,,,,,,0,,,64,90
203025,note_off,0,0,1,,,,,,,,,,,,,,0,,,64,64
203025,note_off,0,0,1,,,,,,,,,,,,,,0,,,73,64
203025,note_off,140,0,1,,,,,,,,,,,,,,0,,,68,64
203038,note_on,0,0,1,,,,,,,,,,,,,,0,,,72,90
203038,note_on,0,0,1,,,,,,,,,,,,,,0,,,63,90
203038,note_on,13,0,1,,,,,,,,,,,,,,0,,,68,90
203040,note_on,0,0,2,,,,,,,,,,,,,,1,,,56,90
203040,note_on,695,0,3,,,,,,,,,,,,,,2,,,68,90
203040,note_off,480,0,2,,,,,,,,,,,,,,1,,,56,64
203178,note_off,0,0,1,,,,,,,,,,,,,,0,,,72,64
203178,note_off,0,0,1,,,,,,,,,,,,,,0,,,63,64
203178,note_off,140,0,1,,,,,,,,,,,,,,0,,,68,64
203198,note_on,0,0,1,,,,,,,,,,,,,,0,,,72,90
203198,note_on,0,0,1,,,,,,,,,,,,,,0,,,68,90
203198,note_on,20,0,1,,,,,,,,,,,,,,0,,,63,90
203338,note_off,0,0,1,,,,,,,,,,,,,,0,,,68,64
203338,note_off,140,0,1,,,,,,,,,,,,,,0,,,63,64
203338,note_off,0,0,1,,,,,,,,,,,,,,0,,,72,64
203358,note_on,0,0,1,,,,,,,,,,,,,,0,,,72,90
203358,note_on,0,0,1,,,,,,,,,,,,,,0,,,63,90
203358,note_on,20,0,1,,,,,,,,,,,,,,0,,,68,90
203498,note_off,0,0,1,,,,,,,,,,,,,,0,,,72,64
203498,note_off,0,0,1,,,,,,,,,,,,,,0,,,63,64
203498,note_off,140,0,1,,,,,,,,,,,,,,0,,,68,64
203520,note_on,0,0,2,,,,,,,,,,,,,,1,,,49,90
203520,note_on,0,0,1,,,,,,,,,,,,,,0,,,61,102
203520,note_on,22,0,1,,,,,,,,,,,,,,0,,,73,102
203520,note_on,0,0,3,,,,,,,,,,,,,,2,,,73,90
203520,note_off,480,0,3,,,,,,,,,,,,,,2,,,68,64
203520,note_off,480,0,2,,,,,,,,,,,,,,1,,,56,64
203660,note_off,0,0,1,,,,,,,,,,,,,,0,,,61,64
203660,note_off,140,0,1,,,,,,,,,,,,,,0,,,73,64
203680,note_on,0,0,1,,,,,,,,,,,,,,0,,,73,102
203680,note_on,20,0,1,,,,,,,,,,,,,,0,,,61,102
203820,note_off,0,0,1,,,,,,,,,,,,,,0,,,73,64
203820,note_off,140,0,1,,,,,,,,,,,,,,0,,,61,64
203840,note_on,20,0,1,,,,,,,,,,,,,,0,,,73,102
203840,note_on,0,0,1,,,,,,,,,,,,,,0,,,61,102
203980,note_off,140,0,1,,,,,,,,,,,,,,0,,,73,64
203980,note_off,0,0,1,,,,,,,,,,,,,,0,,,61,64
204000,note_on,20,0,1,,,,,,,,,,,,,,0,,,73,102
204000,note_on,0,0,1,,,,,,,,,,,,,,0,,,61,102
204140,note_off,140,0,1,,,,,,,,,,,,,,0,,,73,64
204140,note_off,0,0,1,,,,,,,,,,,,,,0,,,61,64
204160,note_on,0,0,1,,,,,,,,,,,,,,0,,,73,102
204160,note_on,20,0,1,,,,,,,,,,,,,,0,,,61,102
204300,note_off,140,0,1,,,,,,,,,,,,,,0,,,61,64
204300,note_off,0,0,1,,,,,,,,,,,,,,0,,,73,64
204320,note_on,0,0,1,,,,,,,,,,,,,,0,,,61,102
204320,note_on,20,0,1,,,,,,,,,,,,,,0,,,73,102
204460,note_off,0,0,1,,,,,,,,,,,,,,0,,,61,64
204460,note_off,140,0,1,,,,,,,,,,,,,,0,,,73,64
204480,note_on,0,0,1,,,,,,,,,,,,,,0,,,61,102
204480,note_on,20,0,1,,,,,,,,,,,,,,0,,,73,102
204480,note_off,960,0,2,,,,,,,,,,,,,,1,,,49,64
204480,note_off,960,0,3,,,,,,,,,,,,,,2,,,73,64
204620,note_off,140,0,1,,,,,,,,,,,,,,0,,,73,64
204620,note_off,0,0,1,,,,,,,,,,,,,,0,,,61,64
204640,note_on,20,0,1,,,,,,,,,,,,,,0,,,61,102
204640,note_on,0,0,1,,,,,,,,,,,,,,0,,,73,102
204780,note_off,0,0,1,,,,,,,,,,,,,,0,,,73,64
204780,note_off,140,0,1,,,,,,,,,,,,,,0,,,61,64
204800,note_on,0,0,1,,,,,,,,,,,,,,0,,,61,102
204800,note_on,20,0,1,,,,,,,,,,,,,,0,,,73,102
204940,note_off,140,0,1,,,,,,,,,,,,,,0,,,73,64
204940,note_off,0,0,1,,,,,,,,,,,,,,0,,,61,64
204960,note_on,0,0,1,,,,,,,,,,,,,,0,,,61,102
204960,note_on,20,0,1,,,,,,,,,,,,,,0,,,73,102
204960,note_on,480,0,3,,,,,,,,,,,,,,2,,,68,90
205100,note_off,0,0,1,,,,,,,,,,,,,,0,,,61,64
205100,note_off,140,0,1,,,,,,,,,,,,,,0,,,73,64
205120,note_on,20,0,1,,,,,,,,,,,,,,0,,,61,102
205120,note_on,0,0,1,,,,,,,,,,,,,,0,,,73,102
205260,note_off,140,0,1,,,,,,,,,,,,,,0,,,61,64
205260,note_off,0,0,1,,,,,,,,,,,,,,0,,,73,64
205280,note_on,20,0,1,,,,,,,,,,,,,,0,,,73,102
205280,note_on,0,0,1,,,,,,,,,,,,,,0,,,61,102
205420,note_off,0,0,1,,,,,,,,,,,,,,0,,,61,64
205420,note_off,140,0,1,,,,,,,,,,,,,,0,,,73,64
205440,note_on,20,0,1,,,,,,,,,,,,,,0,,,73,102
205440,note_on,0,0,1,,,,,,,,,,,,,,0,,,61,102
205440,note_off,480,0,3,,,,,,,,,,,,,,2,,,68,64
205440,note_on,0,0,3,,,,,,,,,,,,,,2,,,69,90
205580,note_off,140,0,1,,,,,,,,,,,,,,0,,,73,64
205580,note_off,0,0,1,,,,,,,,,,,,,,0,,,61,64
205600,note_on,20,0,1,,,,,,,,,,,,,,0,,,61,102
205600,note_on,0,0,1,,,,,,,,,,,,,,0,,,73,102
205740,note_off,140,0,1,,,,,,,,,,,,,,0,,,61,64
205740,note_off,0,0,1,,,,,,,,,,,,,,0,,,73,64
205760,note_on,20,0,1,,,,,,,,,,,,,,0,,,73,102
205760,note_on,0,0,1,,,,,,,,,,,,,,0,,,61,102
205900,note_off,0,0,1,,,,,,,,,,,,,,0,,,61,64
205900,note_off,140,0,1,,,,,,,,,,,,,,0,,,73,64
205920,note_on,0,0,1,,,,,,,,,,,,,,0,,,61,102
205920,note_on,20,0,1,,,,,,,,,,,,,,0,,,73,102
206060,note_off,0,0,1,,,,,,,,,,,,,,0,,,61,64
206060,note_off,140,0,1,,,,,,,,,,,,,,0,,,73,64
206080,note_on,0,0,1,,,,,,,,,,,,,,0,,,73,102
206080,note_on,20,0,1,,,,,,,,,,,,,,0,,,61,102
206220,note_off,140,0,1,,,,,,,,,,,,,,0,,,61,64
206220,note_off,0,0,1,,,,,,,,,,,,,,0,,,73,64
206240,note_on,0,0,1,,,,,,,,,,,,,,0,,,61,102
206240,note_on,20,0,1,,,,,,,,,,,,,,0,,,73,102
206380,note_off,140,0,1,,,,,,,,,,,,,,0,,,73,64
206380,note_off,0,0,1,,,,,,,,,,,,,,0,,,61,64
206400,note_off,960,0,3,,,,,,,,,,,,,,2,,,69,64
206400,note_on,20,0,1,,,,,,,,,,,,,,0,,,73,102
206400,note_on,0,0,1,,,,,,,,,,,,,,0,,,61,102
206540,note_off,0,0,1,,,,,,,,,,,,,,0,,,61,64
206540,note_off,140,0,1,,,,,,,,,,,,,,0,,,73,64
206560,note_on,20,0,1,,,,,,,,,,,,,,0,,,61,102
206560,note_on,0,0,1,,,,,,,,,,,,,,0,,,73,102
206700,note_off,0,0,1,,,,,,,,,,,,,,0,,,73,64
206700,note_off,140,0,1,,,,,,,,,,,,,,0,,,61,64
206720,note_on,20,0,1,,,,,,,,,,,,,,0,,,73,102
206720,note_on,0,0,1,,,,,,,,,,,,,,0,,,61,102
206860,note_off,140,0,1,,,,,,,,,,,,,,0,,,73,64
206860,note_off,0,0,1,,,,,,,,,,,,,,0,,,61,64
206880,note_on,0,0,1,,,,,,,,,,,,,,0,,,61,102
206880,note_on,480,0,3,,,,,,,,,,,,,,2,,,69,90
206880,note_on,20,0,1,,,,,,,,,,,,,,0,,,73,102
207020,note_off,0,0,1,,,,,,,,,,,,,,0,,,61,64
207020,note_off,140,0,1,,,,,,,,,,,,,,0,,,73,64
207040,note_on,20,0,1,,,,,,,,,,,,,,0,,,61,102
207040,note_on,0,0,1,,,,,,,,,,,,,,0,,,73,102
207180,note_off,140,0,1,,,,,,,,,,,,,,0,,,61,64
207180,note_off,0,0,1,,,,,,,,,,,,,,0,,,73,64
207200,note_on,0,0,1,,,,,,,,,,,,,,0,,,61,102
207200,note_on,20,0,1,,,,,,,,,,,,,,0,,,73,102
207340,note_off,0,0,1,,,,,,,,,,,,,,0,,,61,64
207340,note_off,140,0,1,,,,,,,,,,,,,,0,,,73,64
207360,note_on,20,0,1,,,,,,,,,,,,,,0,,,73,90
207360,note_on,0,0,1,,,,,,,,,,,,,,0,,,69,90
207360,note_on,0,0,1,,,,,,,,,,,,,,0,,,67,90
207360,note_off,480,0,3,,,,,,,,,,,,,,2,,,69,64
207360,note_on,0,0,1,,,,,,,,,,,,,,0,,,64,90
207360,note_on,2880,0,2,,,,,,,,,,,,,,1,,,45,92
207360,note_on,0,0,2,,,,,,,,,,,,,,1,,,57,92
207360,note_on,0,0,3,,,,,,,,,,,,,,2,,,69,90
207500,note_off,0,0,1,,,,,,,,,,,,,,0,,,67,64
207500,note_off,0,0,1,,,,,,,,,,,,,,0,,,69,64
207500,note_off,0,0,1,,,,,,,,,,,,,,0,,,64,64
207500,note_off,140,0,1,,,,,,,,,,,,,,0,,,73,64
207520,note_on,0,0,1,,,,,,,,,,,,,,0,,,64,90
207520,note_on,0,0,1,,,,,,,,,,,,,,0,,,69,90
207520,note_on,0,0,1,,,,,,,,,,,,,,0,,,73,90
207520,note_on,20,0,1,,,,,,,,,,,,,,0,,,67,90
207660,note_off,0,0,1,,,,,,,,,,,,,,0,,,69,64
207660,note_off,0,0,1,,,,,,,,,,,,,,0,,,73,64
207660,note_off,140,0,1,,,,,,,,,,,,,,0,,,67,64
207660,note_off,0,0,1,,,,,,,,,,,,,,0,,,64,64
207680,note_on,0,0,1,,,,,,,,,,,,,,0,,,69,90
207680,note_on,0,0,1,,,,,,,,,,,,,,0,,,67,90
207680,note_on,20,0,1,,,,,,,,,,,,,,0,,,73,90
207680,note_on,0,0,1,,,,,,,,,,,,,,0,,,64,90
207820,note_off,140,0,1,,,,,,,,,,,,,,0,,,73,64
207820,note_off,0,0,1,,,,,,,,,,,,,,0,,,67,64
207820,note_off,0,0,1,,,,,,,,,,,,,,0,,,69,64
207820,note_off,0,0,1,,,,,,,,,,,,,,0,,,64,64
207840,note_on,20,0,1,,,,,,,,,,,,,,0,,,73,90
207840,note_on,0,0,1,,,,,,,,,,,,,,0,,,69,90
207840,note_on,0,0,1,,,,,,,,,,,,,,0,,,67,90
207840,note_on,0,0,1,,,,,,,,,,,,,,0,,,64,90
207980,note_off,140,0,1,,,,,,,,,,,,,,0,,,73,64
207980,note_off,0,0,1,,,,,,,,,,,,,,0,,,67,64
207980,note_off,0,0,1,,,,,,,,,,,,,,0,,,69,64
207980,note_off,0,0,1,,,,,,,,,,,,,,0,,,64,64
208000,note_on,20,0,1,,,,,,,,,,,,,,0,,,67,90
208000,note_on,0,0,1,,,,,,,,,,,,,,0,,,73,90
208000,note_on,0,0,1,,,,,,,,,,,,,,0,,,69,90
208000,note_on,0,0,1,,,,,,,,,,,,,,0,,,64,90
208140,note_off,140,0,1,,,,,,,,,,,,,,0,,,67,64
208140,note_off,0,0,1,,,,,,,,,,,,,,0,,,73,64
208140,note_off,0,0,1,,,,,,,,,,,,,,0,,,69,64
208140,note_off,0,0,1,,,,,,,,,,,,,,0,,,64,64
208160,note_on,0,0,1,,,,,,,,,,,,,,0,,,64,90
208160,note_on,0,0,1,,,,,,,,,,,,,,0,,,67,90
208160,note_on,20,0,1,,,,,,,,,,,,,,0,,,73,90
208160,note_on,0,0,1,,,,,,,,,,,,,,0,,,69,90
208300,note_off,140,0,1,,,,,,,,,,,,,,0,,,73,64
208300,note_off,0,0,1,,,,,,,,,,,,,,0,,,67,64
208300,note_off,0,0,1,,,,,,,,,,,,,,0,,,69,64
208300,note_off,0,0,1,,,,,,,,,,,,,,0,,,64,64
208320,note_on,20,0,1,,,,,,,,,,,,,,0,,,73,90
208320,note_on,0,0,1,,,,,,,,,,,,,,0,,,67,90
208320,note_on,0,0,1,,,,,,,,,,,,,,0,,,69,90
208320,note_on,0,0,1,,,,,,,,,,,,,,0,,,64,90
208320,note_on,0,0,3,,,,,,,,,,,,,,2,,,69,90
208320,note_off,960,0,3,,,,,,,,,,,,,,2,,,69,64
208460,note_off,0,0,1,,,,,,,,,,,,,,0,,,64,64
208460,note_off,0,0,1,,,,,,,,,,,,,,0,,,69,64
208460,note_off,140,0,1,,,,,,,,,,,,,,0,,,73,64
208460,note_off,0,0,1,,,,,,,,,,,,,,0,,,67,64
208480,note_on,20,0,1,,,,,,,,,,,,,,0,,,67,90
208480,note_on,0,0,1,,,,,,,,,,,,,,0,,,73,90
208480,note_on,0,0,1,,,,,,,,,,,,,,0,,,69,90
208480,note_on,0,0,1,,,,,,,,,,,,,,0,,,64,90
208620,note_off,140,0,1,,,,,,,,,,,,,,0,,,67,64
208620,note_off,0,0,1,,,,,,,,,,,,,,0,,,73,64
208620,note_off,0,0,1,,,,,,,,,,,,,,0,,,69,64
208620,note_off,0,0,1,,,,,,,,,,,,,,0,,,64,64
208640,note_on,20,0,1,,,,,,,,,,,,,,0,,,73,90
208640,note_on,0,0,1,,,,,,,,,,,,,,0,,,67,90
208640,note_on,0,0,1,,,,,,,,,,,,,,0,,,69,90
208640,note_on,0,0,1,,,,,,,,,,,,,,0,,,64,90
208780,note_off,0,0,1,,,,,,,,,,,,,,0,,,64,64
208780,note_off,140,0,1,,,,,,,,,,,,,,0,,,73,64
208780,note_off,0,0,1,,,,,,,,,,,,,,0,,,69,64
208780,note_off,0,0,1,,,,,,,,,,,,,,0,,,67,64
208800,note_on,20,0,1,,,,,,,,,,,,,,0,,,73,90
208800,note_on,0,0,1,,,,,,,,,,,,,,0,,,67,90
208800,note_on,0,0,1,,,,,,,,,,,,,,0,,,69,90
208800,note_on,0,0,1,,,,,,,,,,,,,,0,,,64,90
208940,note_off,140,0,1,,,,,,,,,,,,,,0,,,73,64
208940,note_off,0,0,1,,,,,,,,,,,,,,0,,,67,64
208940,note_off,0,0,1,,,,,,,,,,,,,,0,,,69,64
208940,note_off,0,0,1,,,,,,,,,,,,,,0,,,64,64
208960,note_on,0,0,1,,,,,,,,,,,,,,0,,,73,90
208960,note_on,0,0,1,,,,,,,,,,,,,,0,,,64,90
208960,note_on,0,0,1,,,,,,,,,,,,,,0,,,69,90
208960,note_on,20,0,1,,,,,,,,,,,,,,0,,,67,90
209040,note_off,720,0,3,,,,,,,,,,,,,,2,,,69,64
209040,note_on,0,0,3,,,,,,,,,,,,,,2,,,69,90
209100,note_off,140,0,1,,,,,,,,,,,,,,0,,,67,64
209100,note_off,0,0,1,,,,,,,,,,,,,,0,,,64,64
209100,note_off,0,0,1,,,,,,,,,,,,,,0,,,69,64
209100,note_off,0,0,1,,,,,,,,,,,,,,0,,,73,64
209120,note_on,0,0,1,,,,,,,,,,,,,,0,,,69,90
209120,note_on,0,0,1,,,,,,,,,,,,,,0,,,64,90
209120,note_on,20,0,1,,,,,,,,,,,,,,0,,,73,90
209120,note_on,0,0,1,,,,,,,,,,,,,,0,,,67,90
209260,note_off,140,0,1,,,,,,,,,,,,,,0,,,73,64
209260,note_off,0,0,1,,,,,,,,,,,,,,0,,,67,64
209260,note_off,0,0,1,,,,,,,,,,,,,,0,,,64,64
209260,note_off,0,0,1,,,,,,,,,,,,,,0,,,69,64
209275,control_change,15,0,1,,,,,,,,,,,,,,0,11,68,,
209280,note_off,1920,0,2,,,,,,,,,,,,,,1,,,45,64
209280,note_off,240,0,3,,,,,,,,,,,,,,2,,,69,64
209280,note_on,0,0,2,,,,,,,,,,,,,,1,,,50,92
209280,note_off,0,0,2,,,,,,,,,,,,,,1,,,57,64
209280,note_on,0,0,3,,,,,,,,,,,,,,2,,,74,90
209280,note_on,5,0,1,,,,,,,,,,,,,,0,,,69,90
209280,note_on,0,0,1,,,,,,,,,,,,,,0,,,74,90
209280,note_on,0,0,1,,,,,,,,,,,,,,0,,,65,90
209355,control_change,75,0,1,,,,,,,,,,,,,,0,11,68,,
209420,note_off,65,0,1,,,,,,,,,,,,,,0,,,69,64
209420,note_off,0,0,1,,,,,,,,,,,,,,0,,,74,64
209420,note_off,0,0,1,,,,,,,,,,,,,,0,,,65,64
209436,control_change,16,0,1,,,,,,,,,,,,,,0,11,69,,
209440,note_on,0,0,1,,,,,,,,,,,,,,0,,,65,90
209440,note_on,4,0,1,,,,,,,,,,,,,,0,,,69,90
209440,note_on,0,0,1,,,,,,,,,,,,,,0,,,74,90
209517,control_change,77,0,1,,,,,,,,,,,,,,0,11,70,,
209580,note_off,0,0,1,,,,,,,,,,,,,,0,,,74,64
209580,note_off,63,0,1,,,,,,,,,,,,,,0,,,69,64
209580,note_off,0,0,1,,,,,,,,,,,,,,0,,,65,64
209597,control_change,17,0,1,,,,,,,,,,,,,,0,11,71,,
209600,note_on,3,0,1,,,,,,,,,,,,,,0,,,69,90
209600,note_on,0,0,1,,,,,,,,,,,,,,0,,,74,90
209600,note_on,0,0,1,,,,,,,,,,,,,,0,,,65,90
209678,control_change,78,0,1,,,,,,,,,,,,,,0,11,72,,
209740,note_off,62,0,1,,,,,,,,,,,,,,0,,,69,64
209740,note_off,0,0,1,,,,,,,,,,,,,,0,,,74,64
209740,note_off,0,0,1,,,,,,,,,,,,,,0,,,65,64
209759,control_change,19,0,1,,,,,,,,,,,,,,0,11,73,,
209760,note_on,0,0,1,,,,,,,,,,,,,,0,,,65,90
209760,note_on,1,0,1,,,,,,,,,,,,,,0,,,69,90
209760,note_on,0,0,1,,,,,,,,,,,,,,0,,,74,90
209839,control_change,79,0,1,,,,,,,,,,,,,,0,11,74,,
209900,note_off,0,0,1,,,,,,,,,,,,,,0,,,74,64
209900,note_off,61,0,1,,,,,,,,,,,,,,0,,,69,64
209900,note_off,0,0,1,,,,,,,,,,,,,,0,,,65,64
209920,note_on,0,0,1,,,,,,,,,,,,,,0,,,65,90
209920,note_on,20,0,1,,,,,,,,,,,,,,0,,,69,90
209920,note_on,0,0,1,,,,,,,,,,,,,,0,,,74,90
209920,control_change,0,0,1,,,,,,,,,,,,,,0,11,75,,
210001,control_change,81,0,1,,,,,,,,,,,,,,0,11,76,,
210060,note_off,59,0,1,,,,,,,,,,,,,,0,,,69,64
210060,note_off,0,0,1,,,,,,,,,,,,,,0,,,74,64
210060,note_off,0,0,1,,,,,,,,,,,,,,0,,,65,64
210080,note_on,0,0,1,,,,,,,,,,,,,,0,,,65,90
210080,note_on,20,0,1,,,,,,,,,,,,,,0,,,69,90
210080,note_on,0,0,1,,,,,,,,,,,,,,0,,,74,90
210081,control_change,1,0,1,,,,,,,,,,,,,,0,11,77,,
210162,control_change,81,0,1,,,,,,,,,,,,,,0,11,78,,
210220,note_off,0,0,1,,,,,,,,,,,,,,0,,,65,64
210220,note_off,0,0,1,,,,,,,,,,,,,,0,,,74,64
210220,note_off,58,0,1,,,,,,,,,,,,,,0,,,69,64
210240,note_on,0,0,1,,,,,,,,,,,,,,0,,,65,90
210240,note_on,0,0,1,,,,,,,,,,,,,,0,,,74,90
210240,note_on,20,0,1,,,,,,,,,,,,,,0,,,69,90
210240,note_off,960,0,2,,,,,,,,,,,,,,1,,,50,64
210240,note_off,960,0,3,,,,,,,,,,,,,,2,,,74,64
210380,note_off,0,0,1,,,,,,,,,,,,,,0,,,65,64
210380,note_off,140,0,1,,,,,,,,,,,,,,0,,,69,64
210380,note_off,0,0,1,,,,,,,,,,,,,,0,,,74,64
210400,note_on,0,0,1,,,,,,,,,,,,,,0,,,65,90
210400,note_on,0,0,1,,,,,,,,,,,,,,0,,,74,90
210400,note_on,20,0,1,,,,,,,,,,,,,,0,,,69,90
210540,note_off,0,0,1,,,,,,,,,,,,,,0,,,65,64
210540,note_off,0,0,1,,,,,,,,,,,,,,0,,,74,64
210540,note_off,140,0,1,,,,,,,,,,,,,,0,,,69,64
210560,note_on,0,0,1,,,,,,,,,,,,,,0,,,65,90
210560,note_on,0,0,1,,,,,,,,,,,,,,0,,,74,90
210560,note_on,20,0,1,,,,,,,,,,,,,,0,,,69,90
210700,note_off,140,0,1,,,,,,,,,,,,,,0,,,69,64
210700,note_off,0,0,1,,,,,,,,,,,,,,0,,,65,64
210700,note_off,0,0,1,,,,,,,,,,,,,,0,,,74,64
210720,note_on,0,0,1,,,,,,,,,,,,,,0,,,65,90
210720,note_on,0,0,1,,,,,,,,,,,,,,0,,,74,90
210720,note_on,20,0,1,,,,,,,,,,,,,,0,,,69,90
210720,note_on,480,0,3,,,,,,,,,,,,,,2,,,74,90
210860,note_off,0,0,1,,,,,,,,,,,,,,0,,,65,64
210860,note_off,0,0,1,,,,,,,,,,,,,,0,,,74,64
210860,note_off,140,0,1,,,,,,,,,,,,,,0,,,69,64
210880,note_on,0,0,1,,,,,,,,,,,,,,0,,,65,90
210880,note_on,20,0,1,,,,,,,,,,,,,,0,,,69,90
210880,note_on,0,0,1,,,,,,,,,,,,,,0,,,74,90
211020,note_off,140,0,1,,,,,,,,,,,,,,0,,,69,64
211020,note_off,0,0,1,,,,,,,,,,,,,,0,,,74,64
211020,note_off,0,0,1,,,,,,,,,,,,,,0,,,65,64
211040,note_on,0,0,1,,,,,,,,,,,,,,0,,,65,90
211040,note_on,0,0,1,,,,,,,,,,,,,,0,,,74,90
211040,note_on,20,0,1,,,,,,,,,,,,,,0,,,69,90
211180,note_off,0,0,1,,,,,,,,,,,,,,0,,,65,64
211180,note_off,0,0,1,,,,,,,,,,,,,,0,,,74,64
211180,note_off,140,0,1,,,,,,,,,,,,,,0,,,69,64
211200,note_on,0,0,1,,,,,,,,,,,,,,0,,,64,90
211200,note_off,480,0,3,,,,,,,,,,,,,,2,,,74,64
211200,note_on,0,0,2,,,,,,,,,,,,,,1,,,55,90
211200,note_on,960,0,2,,,,,,,,,,,,,,1,,,43,90
211200,note_on,20,0,1,,,,,,,,,,,,,,0,,,70,90
211200,note_on,0,0,1,,,,,,,,,,,,,,0,,,74,90
211200,note_on,0,0,3,,,,,,,,,,,,,,2,,,74,90
211340,note_off,0,0,1,,,,,,,,,,,,,,0,,,64,64
211340,note_off,0,0,1,,,,,,,,,,,,,,0,,,74,64
211340,note_off,140,0,1,,,,,,,,,,,,,,0,,,70,64
211360,note_on,0,0,1,,,,,,,,,,,,,,0,,,64,90
211360,note_on,20,0,1,,,,,,,,,,,,,,0,,,70,90
211360,note_on,0,0,1,,,,,,,,,,,,,,0,,,74,90
211500,note_off,140,0,1,,,,,,,,,,,,,,0,,,70,64
211500,note_off,0,0,1,,,,,,,,,,,,,,0,,,74,64
211500,note_off,0,0,1,,,,,,,,,,,,,,0,,,64,64
211520,note_on,20,0,1,,,,,,,,,,,,,,0,,,70,90
211520,note_on,0,0,1,,,,,,,,,,,,,,0,,,74,90
211520,note_on,0,0,1,,,,,,,,,,,,,,0,,,64,90
211660,note_off,140,0,1,,,,,,,,,,,,,,0,,,70,64
211660,note_off,0,0,1,,,,,,,,,,,,,,0,,,74,64
211660,note_off,0,0,1,,,,,,,,,,,,,,0,,,64,64
211680,note_off,480,0,3,,,,,,,,,,,,,,2,,,74,64
211680,note_on,0,0,3,,,,,,,,,,,,,,2,,,70,90
211680,note_on,0,0,1,,,,,,,,,,,,,,0,,,74,90
211680,note_on,0,0,1,,,,,,,,,,,,,,0,,,64,90
211680,note_on,20,0,1,,,,,,,,,,,,,,0,,,70,90
211820,note_off,0,0,1,,,,,,,,,,,,,,0,,,74,64
211820,note_off,0,0,1,,,,,,,,,,,,,,0,,,64,64
211820,note_off,140,0,1,,,,,,,,,,,,,,0,,,70,64
211840,note_on,20,0,1,,,,,,,,,,,,,,0,,,70,90
211840,note_on,0,0,1,,,,,,,,,,,,,,0,,,64,90
211840,note_on,0,0,1,,,,,,,,,,,,,,0,,,74,90
211920,note_off,240,0,3,,,,,,,,,,,,,,2,,,70,64
211920,note_on,0,0,3,,,,,,,,,,,,,,2,,,67,90
211980,note_off,0,0,1,,,,,,,,,,,,,,0,,,64,64
211980,note_off,0,0,1,,,,,,,,,,,,,,0,,,74,64
211980,note_off,140,0,1,,,,,,,,,,,,,,0,,,70,64
212000,note_on,0,0,1,,,,,,,,,,,,,,0,,,64,90
212000,note_on,0,0,1,,,,,,,,,,,,,,0,,,74,90
212000,note_on,20,0,1,,,,,,,,,,,,,,0,,,70,90
212140,note_off,0,0,1,,,,,,,,,,,,,,0,,,64,64
212140,note_off,0,0,1,,,,,,,,,,,,,,0,,,74,64
212140,note_off,140,0,1,,,,,,,,,,,,,,0,,,70,64
212160,note_on,0,0,3,,,,,,,,,,,,,,2,,,64,90
212160,note_off,240,0,3,,,,,,,,,,,,,,2,,,67,64
212160,note_on,20,0,1,,,,,,,,,,,,,,0,,,70,90
212160,note_on,0,0,1,,,,,,,,,,,,,,0,,,74,90
212160,note_on,0,0,1,,,,,,,,,,,,,,0,,,64,90
212300,note_off,140,0,1,,,,,,,,,,,,,,0,,,70,64
212300,note_off,0,0,1,,,,,,,,,,,,,,0,,,74,64
212300,note_off,0,0,1,,,,,,,,,,,,,,0,,,64,64
212320,note_on,0,0,1,,,,,,,,,,,,,,0,,,64,90
212320,note_on,0,0,1,,,,,,,,,,,,,,0,,,74,90
212320,note_on,20,0,1,,,,,,,,,,,,,,0,,,70,90
212460,note_off,140,0,1,,,,,,,,,,,,,,0,,,70,64
212460,note_off,0,0,1,,,,,,,,,,,,,,0,,,74,64
212460,note_off,0,0,1,,,,,,,,,,,,,,0,,,64,64
212480,note_on,20,0,1,,,,,,,,,,,,,,0,,,70,90
212480,note_on,0,0,1,,,,,,,,,,,,,,0,,,74,90
212480,note_on,0,0,1,,,,,,,,,,,,,,0,,,64,90
212620,note_off,140,0,1,,,,,,,,,,,,,,0,,,70,64
212620,note_off,0,0,1,,,,,,,,,,,,,,0,,,64,64
212620,note_off,0,0,1,,,,,,,,,,,,,,0,,,74,64
212640,note_off,480,0,3,,,,,,,,,,,,,,2,,,64,64
212640,note_on,0,0,1,,,,,,,,,,,,,,0,,,74,90
212640,note_on,0,0,1,,,,,,,,,,,,,,0,,,64,90
212640,note_on,0,0,3,,,,,,,,,,,,,,2,,,70,90
212640,note_on,20,0,1,,,,,,,,,,,,,,0,,,70,90
212780,note_off,140,0,1,,,,,,,,,,,,,,0,,,70,64
212780,note_off,0,0,1,,,,,,,,,,,,,,0,,,74,64
212780,note_off,0,0,1,,,,,,,,,,,,,,0,,,64,64
212800,note_on,20,0,1,,,,,,,,,,,,,,0,,,70,90
212800,note_on,0,0,1,,,,,,,,,,,,,,0,,,74,90
212800,note_on,0,0,1,,,,,,,,,,,,,,0,,,64,90
212940,note_off,140,0,1,,,,,,,,,,,,,,0,,,70,64
212940,note_off,0,0,1,,,,,,,,,,,,,,0,,,74,64
212940,note_off,0,0,1,,,,,,,,,,,,,,0,,,64,64
212960,note_on,0,0,1,,,,,,,,,,,,,,0,,,64,90
212960,note_on,20,0,1,,,,,,,,,,,,,,0,,,70,90
212960,note_on,0,0,1,,,,,,,,,,,,,,0,,,74,90
213100,note_off,140,0,1,,,,,,,,,,,,,,0,,,70,64
213100,note_off,0,0,1,,,,,,,,,,,,,,0,,,74,64
213100,note_off,0,0,1,,,,,,,,,,,,,,0,,,64,64
213120,note_off,480,0,3,,,,,,,,,,,,,,2,,,70,64
213120,note_on,0,0,3,,,,,,,,,,,,,,2,,,69,90
213120,note_on,0,0,2,,,,,,,,,,,,,,1,,,45,90
213120,note_on,0,0,2,,,,,,,,,,,,,,1,,,57,90
213120,note_off,0,0,2,,,,,,,,,,,,,,1,,,55,64
213120,note_off,1920,0,2,,,,,,,,,,,,,,1,,,43,64
213120,note_on,0,0,1,,,,,,,,,,,,,,0,,,65,90
213120,note_on,0,0,1,,,,,,,,,,,,,,0,,,74,90
213120,note_on,20,0,1,,,,,,,,,,,,,,0,,,69,90
213260,note_off,140,0,1,,,,,,,,,,,,,,0,,,69,64
213260,note_off,0,0,1,,,,,,,,,,,,,,0,,,65,64
213260,note_off,0,0,1,,,,,,,,,,,,,,0,,,74,64
213280,note_on,0,0,1,,,,,,,,,,,,,,0,,,74,90
213280,note_on,20,0,1,,,,,,,,,,,,,,0,,,69,90
213280,note_on,0,0,1,,,,,,,,,,,,,,0,,,65,90
213420,note_off,0,0,1,,,,,,,,,,,,,,0,,,74,64
213420,note_off,140,0,1,,,,,,,,,,,,,,0,,,69,64
213420,note_off,0,0,1,,,,,,,,,,,,,,0,,,65,64
213440,note_on,20,0,1,,,,,,,,,,,,,,0,,,69,90
213440,note_on,0,0,1,,,,,,,,,,,,,,0,,,65,90
213440,note_on,0,0,1,,,,,,,,,,,,,,0,,,74,90
213580,note_off,140,0,1,,,,,,,,,,,,,,0,,,69,64
213580,note_off,0,0,1,,,,,,,,,,,,,,0,,,65,64
213580,note_off,0,0,1,,,,,,,,,,,,,,0,,,74,64
213600,note_on,0,0,1,,,,,,,,,,,,,,0,,,65,90
213600,note_on,0,0,1,,,,,,,,,,,,,,0,,,74,90
213600,note_on,20,0,1,,,,,,,,,,,,,,0,,,69,90
213740,note_off,0,0,1,,,,,,,,,,,,,,0,,,65,64
213740,note_off,140,0,1,,,,,,,,,,,,,,0,,,69,64
213740,note_off,0,0,1,,,,,,,,,,,,,,0,,,74,64
213760,note_on,0,0,1,,,,,,,,,,,,,,0,,,74,90
213760,note_on,0,0,1,,,,,,,,,,,,,,0,,,65,90
213760,note_on,20,0,1,,,,,,,,,,,,,,0,,,69,90
213900,note_off,140,0,1,,,,,,,,,,,,,,0,,,69,64
213900,note_off,0,0,1,,,,,,,,,,,,,,0,,,65,64
213900,note_off,0,0,1,,,,,,,,,,,,,,0,,,74,64
213920,note_on,0,0,1,,,,,,,,,,,,,,0,,,65,90
213920,note_on,20,0,1,,,,,,,,,,,,,,0,,,69,90
213920,note_on,0,0,1,,,,,,,,,,,,,,0,,,74,90
214060,note_off,0,0,1,,,,,,,,,,,,,,0,,,65,64
214060,note_off,140,0,1,,,,,,,,,,,,,,0,,,69,64
214060,note_off,0,0,1,,,,,,,,,,,,,,0,,,74,64
214080,note_off,960,0,3,,,,,,,,,,,,,,2,,,69,64
214080,note_on,0,0,3,,,,,,,,,,,,,,2,,,69,90
214080,note_on,0,0,2,,,,,,,,,,,,,,1,,,45,90
214080,note_on,0,0,2,,,,,,,,,,,,,,1,,,57,90
214080,note_off,0,0,2,,,,,,,,,,,,,,1,,,45,64
214080,note_off,960,0,2,,,,,,,,,,,,,,1,,,57,64
214080,note_on,0,0,1,,,,,,,,,,,,,,0,,,73,90
214080,note_on,20,0,1,,,,,,,,,,,,,,0,,,69,90
214080,note_on,0,0,1,,,,,,,,,,,,,,0,,,64,90
214220,note_off,140,0,1,,,,,,,,,,,,,,0,,,69,64
214220,note_off,0,0,1,,,,,,,,,,,,,,0,,,64,64
214220,note_off,0,0,1,,,,,,,,,,,,,,0,,,73,64
214240,note_on,0,0,1,,,,,,,,,,,,,,0,,,64,90
214240,note_on,0,0,1,,,,,,,,,,,,,,0,,,73,90
214240,note_on,20,0,1,,,,,,,,,,,,,,0,,,69,90
214380,note_off,0,0,1,,,,,,,,,,,,,,0,,,73,64
214380,note_off,140,0,1,,,,,,,,,,,,,,0,,,69,64
214380,note_off,0,0,1,,,,,,,,,,,,,,0,,,64,64
214400,note_on,0,0,1,,,,,,,,,,,,,,0,,,64,90
214400,note_on,20,0,1,,,,,,,,,,,,,,0,,,69,90
214400,note_on,0,0,1,,,,,,,,,,,,,,0,,,73,90
214540,note_off,0,0,1,,,,,,,,,,,,,,0,,,64,64
214540,note_off,0,0,1,,,,,,,,,,,,,,0,,,73,64
214540,note_off,140,0,1,,,,,,,,,,,,,,0,,,69,64
214560,note_off,480,0,3,,,,,,,,,,,,,,2,,,69,64
214560,note_on,0,0,3,,,,,,,,,,,,,,2,,,69,90
214560,note_on,0,0,1,,,,,,,,,,,,,,0,,,64,90
214560,note_on,0,0,1,,,,,,,,,,,,,,0,,,73,90
214560,note_on,20,0,1,,,,,,,,,,,,,,0,,,69,90
214700,note_off,0,0,1,,,,,,,,,,,,,,0,,,64,64
214700,note_off,140,0,1,,,,,,,,,,,,,,0,,,69,64
214700,note_off,0,0,1,,,,,,,,,,,,,,0,,,73,64
214720,note_on,20,0,1,,,,,,,,,,,,,,0,,,69,90
214720,note_on,0,0,1,,,,,,,,,,,,,,0,,,73,90
214720,note_on,0,0,1,,,,,,,,,,,,,,0,,,64,90
214860,note_off,140,0,1,,,,,,,,,,,,,,0,,,69,64
214860,note_off,0,0,1,,,,,,,,,,,,,,0,,,64,64
214860,note_off,0,0,1,,,,,,,,,,,,,,0,,,73,64
214880,note_on,0,0,1,,,,,,,,,,,,,,0,,,73,90
214880,note_on,20,0,1,,,,,,,,,,,,,,0,,,69,90
214880,note_on,0,0,1,,,,,,,,,,,,,,0,,,64,90
215020,note_off,0,0,1,,,,,,,,,,,,,,0,,,64,64
215020,note_off,0,0,1,,,,,,,,,,,,,,0,,,73,64
215020,note_off,140,0,1,,,,,,,,,,,,,,0,,,69,64
215040,note_on,0,0,2,,,,,,,,,,,,,,1,,,50,90
215040,note_on,0,0,2,,,,,,,,,,,,,,1,,,38,90
215040,note_off,0,0,2,,,,,,,,,,,,,,1,,,45,64
215040,note_off,960,0,2,,,,,,,,,,,,,,1,,,57,64
215040,note_off,480,0,3,,,,,,,,,,,,,,2,,,69,64
215040,note_on,0,0,3,,,,,,,,,,,,,,2,,,62,90
215040,note_on,0,0,1,,,,,,,,,,,,,,0,,,74,90
215040,note_on,0,0,1,,,,,,,,,,,,,,0,,,65,90
215040,note_on,20,0,1,,,,,,,,,,,,,,0,,,69,90
215180,note_off,140,0,1,,,,,,,,,,,,,,0,,,69,64
215180,note_off,0,0,1,,,,,,,,,,,,,,0,,,74,64
215180,note_off,0,0,1,,,,,,,,,,,,,,0,,,65,64
215182,control_change,2,0,1,,,,,,,,,,,,,,0,11,108,,
215200,note_on,0,0,1,,,,,,,,,,,,,,0,,,62,90
215200,note_on,18,0,1,,,,,,,,,,,,,,0,,,74,90
215340,note_off,140,0,1,,,,,,,,,,,,,,0,,,74,64
215340,note_off,0,0,1,,,,,,,,,,,,,,0,,,62,64
215360,note_on,20,0,1,,,,,,,,,,,,,,0,,,62,90
215360,note_on,0,0,1,,,,,,,,,,,,,,0,,,74,90
215500,note_off,140,0,1,,,,,,,,,,,,,,0,,,62,64
215500,note_off,0,0,1,,,,,,,,,,,,,,0,,,74,64
215520,note_off,480,0,2,,,,,,,,,,,,,,1,,,38,64
215520,note_on,20,0,1,,,,,,,,,,,,,,0,,,74,90
215520,note_off,0,0,2,,,,,,,,,,,,,,1,,,50,64
215520,note_on,0,0,1,,,,,,,,,,,,,,0,,,62,90
215660,note_off,140,0,1,,,,,,,,,,,,,,0,,,74,64
215660,note_off,0,0,1,,,,,,,,,,,,,,0,,,62,64
215680,note_on,20,0,1,,,,,,,,,,,,,,0,,,62,90
215680,note_on,0,0,1,,,,,,,,,,,,,,0,,,74,90
215820,note_off,140,0,1,,,,,,,,,,,,,,0,,,62,64
215820,note_off,0,0,1,,,,,,,,,,,,,,0,,,74,64
215840,note_on,0,0,1,,,,,,,,,,,,,,0,,,62,90
215840,note_on,20,0,1,,,,,,,,,,,,,,0,,,74,90
215980,note_off,0,0,1,,,,,,,,,,,,,,0,,,62,64
215980,note_off,140,0,1,,,,,,,,,,,,,,0,,,74,64
216000,note_on,0,0,1,,,,,,,,,,,,,,0,,,62,90
216000,note_off,960,0,3,,,,,,,,,,,,,,2,,,62,64
216000,note_on,20,0,1,,,,,,,,,,,,,,0,,,74,90
216140,note_off,140,0,1,,,,,,,,,,,,,,0,,,74,64
216140,note_off,0,0,1,,,,,,,,,,,,,,0,,,62,64
216160,note_on,20,0,1,,,,,,,,,,,,,,0,,,62,90
216160,note_on,0,0,1,,,,,,,,,,,,,,0,,,74,90
216300,note_off,140,0,1,,,,,,,,,,,,,,0,,,62,64
216300,note_off,0,0,1,,,,,,,,,,,,,,0,,,74,64
216320,note_on,20,0,1,,,,,,,,,,,,,,0,,,74,90
216320,note_on,0,0,1,,,,,,,,,,,,,,0,,,62,90
216359,control_change,839,0,2,,,,,,,,,,,,,,1,11,122,,
216460,note_off,140,0,1,,,,,,,,,,,,,,0,,,74,64
216460,note_off,0,0,1,,,,,,,,,,,,,,0,,,62,64
216480,note_on,0,0,1,,,,,,,,,,,,,,0,,,62,90
216480,note_on,20,0,1,,,,,,,,,,,,,,0,,,74,90
216620,note_off,140,0,1,,,,,,,,,,,,,,0,,,74,64
216620,note_off,0,0,1,,,,,,,,,,,,,,0,,,62,64
216640,note_on,20,0,1,,,,,,,,,,,,,,0,,,62,90
216640,note_on,0,0,1,,,,,,,,,,,,,,0,,,74,90
216780,note_off,140,0,1,,,,,,,,,,,,,,0,,,62,64
216780,note_off,0,0,1,,,,,,,,,,,,,,0,,,74,64
216800,note_on,20,0,1,,,,,,,,,,,,,,0,,,74,90
216800,note_on,0,0,1,,,,,,,,,,,,,,0,,,62,90
216940,note_off,140,0,1,,,,,,,,,,,,,,0,,,74,64
216940,note_off,0,0,1,,,,,,,,,,,,,,0,,,62,64
216960,note_on,20,0,1,,,,,,,,,,,,,,0,,,74,90
216960,note_on,601,0,2,,,,,,,,,,,,,,1,,,50,90
216960,note_on,0,0,1,,,,,,,,,,,,,,0,,,62,90
217100,note_off,140,0,1,,,,,,,,,,,,,,0,,,74,64
217100,note_off,0,0,1,,,,,,,,,,,,,,0,,,62,64
217120,note_on,0,0,1,,,,,,,,,,,,,,0,,,74,90
217120,note_on,20,0,1,,,,,,,,,,,,,,0,,,62,90
217120,note_on,0,0,2,,,,,,,,,,,,,,1,,,52,90
217120,note_off,160,0,2,,,,,,,,,,,,,,1,,,50,64
217260,note_off,0,0,1,,,,,,,,,,,,,,0,,,74,64
217260,note_off,140,0,1,,,,,,,,,,,,,,0,,,62,64
217280,note_on,0,0,2,,,,,,,,,,,,,,1,,,53,90
217280,note_off,160,0,2,,,,,,,,,,,,,,1,,,52,64
217280,note_on,0,0,1,,,,,,,,,,,,,,0,,,62,90
217280,note_on,20,0,1,,,,,,,,,,,,,,0,,,74,90
217420,note_off,0,0,1,,,,,,,,,,,,,,0,,,62,64
217420,note_off,140,0,1,,,,,,,,,,,,,,0,,,74,64
217440,note_on,0,0,1,,,,,,,,,,,,,,0,,,74,90
217440,note_off,160,0,2,,,,,,,,,,,,,,1,,,53,64
217440,note_on,0,0,2,,,,,,,,,,,,,,1,,,55,90
217440,note_on,20,0,1,,,,,,,,,,,,,,0,,,62,90
217580,note_off,0,0,1,,,,,,,,,,,,,,0,,,74,64
217580,note_off,140,0,1,,,,,,,,,,,,,,0,,,62,64
217600,note_off,160,0,2,,,,,,,,,,,,,,1,,,55,64
217600,note_on,20,0,1,,,,,,,,,,,,,,0,,,74,90
217600,note_on,0,0,1,,,,,,,,,,,,,,0,,,62,90
217600,note_on,0,0,2,,,,,,,,,,,,,,1,,,57,90
217740,note_off,0,0,1,,,,,,,,,,,,,,0,,,62,64
217740,note_off,140,0,1,,,,,,,,,,,,,,0,,,74,64
217760,note_off,160,0,2,,,,,,,,,,,,,,1,,,57,64
217760,note_on,0,0,2,,,,,,,,,,,,,,1,,,58,90
217760,note_on,20,0,1,,,,,,,,,,,,,,0,,,74,90
217760,note_on,0,0,1,,,,,,,,,,,,,,0,,,62,90
217900,note_off,140,0,1,,,,,,,,,,,,,,0,,,74,64
217900,note_off,0,0,1,,,,,,,,,,,,,,0,,,62,64
217920,note_on,20,0,1,,,,,,,,,,,,,,0,,,62,90
217920,note_on,0,0,2,,,,,,,,,,,,,,1,,,57,90
217920,note_off,160,0,2,,,,,,,,,,,,,,1,,,58,64
217920,note_on,0,0,1,,,,,,,,,,,,,,0,,,74,90
218060,note_off,140,0,1,,,,,,,,,,,,,,0,,,62,64
218060,note_off,0,0,1,,,,,,,,,,,,,,0,,,74,64
218080,note_on,20,0,1,,,,,,,,,,,,,,0,,,74,90
218080,note_on,0,0,1,,,,,,,,,,,,,,0,,,62,90
218150,note_off,230,0,2,,,,,,,,,,,,,,1,,,57,64
218220,note_off,140,0,1,,,,,,,,,,,,,,0,,,74,64
218220,note_off,0,0,1,,,,,,,,,,,,,,0,,,62,64
218240,note_on,0,0,1,,,,,,,,,,,,,,0,,,62,90
218240,note_on,20,0,1,,,,,,,,,,,,,,0,,,74,90
218380,note_off,0,0,1,,,,,,,,,,,,,,0,,,62,64
218380,note_off,140,0,1,,,,,,,,,,,,,,0,,,74,64
218400,note_on,250,0,2,,,,,,,,,,,,,,1,,,53,90
218400,note_on,20,0,1,,,,,,,,,,,,,,0,,,62,90
218400,note_on,0,0,1,,,,,,,,,,,,,,0,,,74,90
218540,note_off,0,0,1,,,,,,,,,,,,,,0,,,74,64
218540,note_off,140,0,1,,,,,,,,,,,,,,0,,,62,64
218560,note_on,0,0,1,,,,,,,,,,,,,,0,,,62,90
218560,note_on,20,0,1,,,,,,,,,,,,,,0,,,74,90
218630,note_off,230,0,2,,,,,,,,,,,,,,1,,,53,64
218700,note_off,0,0,1,,,,,,,,,,,,,,0,,,62,64
218700,note_off,140,0,1,,,,,,,,,,,,,,0,,,74,64
218720,note_on,20,0,1,,,,,,,,,,,,,,0,,,74,90
218720,note_on,0,0,1,,,,,,,,,,,,,,0,,,62,90
218860,note_off,0,0,1,,,,,,,,,,,,,,0,,,62,64
218860,note_off,140,0,1,,,,,,,,,,,,,,0,,,74,64
218880,note_on,0,0,1,,,,,,,,,,,,,,0,,,62,90
218880,note_on,20,0,1,,,,,,,,,,,,,,0,,,74,90
218880,note_on,250,0,2,,,,,,,,,,,,,,1,,,50,90
219020,note_off,0,0,1,,,,,,,,,,,,,,0,,,62,64
219020,note_off,140,0,1,,,,,,,,,,,,,,0,,,74,64
219040,note_on,0,0,1,,,,,,,,,,,,,,0,,,62,90
219040,note_on,20,0,1,,,,,,,,,,,,,,0,,,74,90
219180,note_off,140,0,1,,,,,,,,,,,,,,0,,,74,64
219180,note_off,0,0,1,,,,,,,,,,,,,,0,,,62,64
219200,note_on,20,0,1,,,,,,,,,,,,,,0,,,62,90
219200,note_on,0,0,1,,,,,,,,,,,,,,0,,,74,90
219210,note_off,330,0,2,,,,,,,,,,,,,,1,,,50,64
219329,control_change,129,0,1,,,,,,,,,,,,,,0,11,106,,
219340,note_off,11,0,1,,,,,,,,,,,,,,0,,,62,64
219340,note_off,0,0,1,,,,,,,,,,,,,,0,,,74,64
219360,note_on,20,0,1,,,,,,,,,,,,,,0,,,74,90
219360,note_on,0,0,1,,,,,,,,,,,,,,0,,,62,90
219371,control_change,11,0,1,,,,,,,,,,,,,,0,11,101,,
219414,control_change,43,0,1,,,,,,,,,,,,,,0,11,96,,
219456,control_change,42,0,1,,,,,,,,,,,,,,0,11,91,,
219499,control_change,43,0,1,,,,,,,,,,,,,,0,11,87,,
219500,note_off,1,0,1,,,,,,,,,,,,,,0,,,74,64
219500,note_off,0,0,1,,,,,,,,,,,,,,0,,,62,64
219520,note_on,20,0,1,,,,,,,,,,,,,,0,,,62,90
219520,note_on,0,0,1,,,,,,,,,,,,,,0,,,74,90
219527,control_change,317,0,2,,,,,,,,,,,,,,1,11,96,,
219542,control_change,22,0,1,,,,,,,,,,,,,,0,11,82,,
219660,note_off,118,0,1,,,,,,,,,,,,,,0,,,62,64
219660,note_off,0,0,1,,,,,,,,,,,,,,0,,,74,64
219680,note_on,20,0,1,,,,,,,,,,,,,,0,,,74,90
219680,note_on,0,0,1,,,,,,,,,,,,,,0,,,62,90
219820,note_off,140,0,1,,,,,,,,,,,,,,0,,,74,64
219820,note_off,0,0,1,,,,,,,,,,,,,,0,,,62,64
219840,note_on,20,0,1,,,,,,,,,,,,,,0,,,74,90
219840,note_on,0,0,1,,,,,,,,,,,,,,0,,,62,90
219980,note_off,140,0,1,,,,,,,,,,,,,,0,,,74,64
219980,note_off,0,0,1,,,,,,,,,,,,,,0,,,62,64
220000,note_on,20,0,1,,,,,,,,,,,,,,0,,,62,90
220000,note_on,0,0,1,,,,,,,,,,,,,,0,,,74,90
220140,note_off,140,0,1,,,,,,,,,,,,,,0,,,62,64
220140,note_off,0,0,1,,,,,,,,,,,,,,0,,,74,64
220160,note_on,20,0,1,,,,,,,,,,,,,,0,,,74,90
220160,note_on,0,0,1,,,,,,,,,,,,,,0,,,62,90
220300,note_off,0,0,1,,,,,,,,,,,,,,0,,,62,64
220300,note_off,140,0,1,,,,,,,,,,,,,,0,,,74,64
220320,note_on,20,0,1,,,,,,,,,,,,,,0,,,74,90
220320,note_on,0,0,1,,,,,,,,,,,,,,0,,,62,90
220460,note_off,0,0,1,,,,,,,,,,,,,,0,,,62,64
220460,note_off,140,0,1,,,,,,,,,,,,,,0,,,74,64
220480,note_on,20,0,1,,,,,,,,,,,,,,0,,,62,90
220480,note_on,0,0,1,,,,,,,,,,,,,,0,,,74,90
220620,note_off,140,0,1,,,,,,,,,,,,,,0,,,62,64
220620,note_off,0,0,1,,,,,,,,,,,,,,0,,,74,64
220640,note_on,20,0,1,,,,,,,,,,,,,,0,,,74,90
220640,note_on,0,0,1,,,,,,,,,,,,,,0,,,62,90
220780,note_off,140,0,1,,,,,,,,,,,,,,0,,,74,64
220780,note_off,0,0,1,,,,,,,,,,,,,,0,,,62,64
220800,note_on,20,0,1,,,,,,,,,,,,,,0,,,74,90
220800,note_on,0,0,1,,,,,,,,,,,,,,0,,,62,90
220800,note_on,1273,0,2,,,,,,,,,,,,,,1,,,50,90
220940,note_off,0,0,1,,,,,,,,,,,,,,0,,,62,64
220940,note_off,140,0,1,,,,,,,,,,,,,,0,,,74,64
220960,note_off,160,0,2,,,,,,,,,,,,,,1,,,50,64
220960,note_on,0,0,2,,,,,,,,,,,,,,1,,,52,90
220960,note_on,20,0,1,,,,,,,,,,,,,,0,,,62,90
220960,note_on,0,0,1,,,,,,,,,,,,,,0,,,74,90
221100,note_off,140,0,1,,,,,,,,,,,,,,0,,,62,64
221100,note_off,0,0,1,,,,,,,,,,,,,,0,,,74,64
221120,note_on,20,0,1,,,,,,,,,,,,,,0,,,74,90
221120,note_off,160,0,2,,,,,,,,,,,,,,1,,,52,64
221120,note_on,0,0,2,,,,,,,,,,,,,,1,,,53,90
221120,note_on,0,0,1,,,,,,,,,,,,,,0,,,62,90
221260,note_off,140,0,1,,,,,,,,,,,,,,0,,,74,64
221260,note_off,0,0,1,,,,,,,,,,,,,,0,,,62,64
221280,note_on,0,0,2,,,,,,,,,,,,,,1,,,55,90
221280,note_on,20,0,1,,,,,,,,,,,,,,0,,,62,90
221280,note_on,0,0,1,,,,,,,,,,,,,,0,,,74,90
221280,note_off,160,0,2,,,,,,,,,,,,,,1,,,53,64
221420,note_off,140,0,1,,,,,,,,,,,,,,0,,,62,64
221420,note_off,0,0,1,,,,,,,,,,,,,,0,,,74,64
221440,note_off,160,0,2,,,,,,,,,,,,,,1,,,55,64
221440,note_on,0,0,2,,,,,,,,,,,,,,1,,,57,90
221440,note_on,20,0,1,,,,,,,,,,,,,,0,,,74,90
221440,note_on,0,0,1,,,,,,,,,,,,,,0,,,62,90
221580,note_off,0,0,1,,,,,,,,,,,,,,0,,,62,64
221580,note_off,140,0,1,,,,,,,,,,,,,,0,,,74,64
221600,note_on,20,0,1,,,,,,,,,,,,,,0,,,74,90
221600,note_on,0,0,2,,,,,,,,,,,,,,1,,,58,90
221600,note_on,0,0,1,,,,,,,,,,,,,,0,,,62,90
221600,note_off,160,0,2,,,,,,,,,,,,,,1,,,57,64
221740,note_off,140,0,1,,,,,,,,,,,,,,0,,,74,64
221740,note_off,0,0,1,,,,,,,,,,,,,,0,,,62,64
221760,note_on,20,0,1,,,,,,,,,,,,,,0,,,62,90
221760,note_on,0,0,1,,,,,,,,,,,,,,0,,,74,90
221760,note_off,160,0,2,,,,,,,,,,,,,,1,,,58,64
221760,note_on,0,0,2,,,,,,,,,,,,,,1,,,57,90
221900,note_off,140,0,1,,,,,,,,,,,,,,0,,,62,64
221900,note_off,0,0,1,,,,,,,,,,,,,,0,,,74,64
221920,note_on,0,0,1,,,,,,,,,,,,,,0,,,62,90
221920,note_on,20,0,1,,,,,,,,,,,,,,0,,,74,90
221990,note_off,230,0,2,,,,,,,,,,,,,,1,,,57,64
222060,note_off,0,0,1,,,,,,,,,,,,,,0,,,62,64
222060,note_off,140,0,1,,,,,,,,,,,,,,0,,,74,64
222080,note_on,20,0,1,,,,,,,,,,,,,,0,,,74,90
222080,note_on,0,0,1,,,,,,,,,,,,,,0,,,62,90
222220,note_off,0,0,1,,,,,,,,,,,,,,0,,,62,64
222220,note_off,140,0,1,,,,,,,,,,,,,,0,,,74,64
222240,note_on,20,0,1,,,,,,,,,,,,,,0,,,62,90
222240,note_on,0,0,1,,,,,,,,,,,,,,0,,,74,90
222240,note_on,250,0,2,,,,,,,,,,,,,,1,,,53,90
222380,note_off,140,0,1,,,,,,,,,,,,,,0,,,62,64
222380,note_off,0,0,1,,,,,,,,,,,,,,0,,,74,64
222400,note_on,20,0,1,,,,,,,,,,,,,,0,,,74,90
222400,note_on,0,0,1,,,,,,,,,,,,,,0,,,62,90
222470,note_off,230,0,2,,,,,,,,,,,,,,1,,,53,64
222540,note_off,140,0,1,,,,,,,,,,,,,,0,,,74,64
222540,note_off,0,0,1,,,,,,,,,,,,,,0,,,62,64
222560,note_on,0,0,1,,,,,,,,,,,,,,0,,,62,90
222560,note_on,20,0,1,,,,,,,,,,,,,,0,,,74,90
222700,note_off,140,0,1,,,,,,,,,,,,,,0,,,74,64
222700,note_off,0,0,1,,,,,,,,,,,,,,0,,,62,64
222720,note_on,20,0,1,,,,,,,,,,,,,,0,,,74,90
222720,note_on,0,0,1,,,,,,,,,,,,,,0,,,62,90
222720,note_on,250,0,2,,,,,,,,,,,,,,1,,,50,90
222860,note_off,140,0,1,,,,,,,,,,,,,,0,,,74,64
222860,note_off,0,0,1,,,,,,,,,,,,,,0,,,62,64
222880,note_on,20,0,1,,,,,,,,,,,,,,0,,,62,90
222880,note_on,0,0,1,,,,,,,,,,,,,,0,,,74,90
223020,note_off,140,0,1,,,,,,,,,,,,,,0,,,62,64
223020,note_off,0,0,1,,,,,,,,,,,,,,0,,,74,64
223040,note_on,20,0,1,,,,,,,,,,,,,,0,,,74,90
223040,note_on,0,0,1,,,,,,,,,,,,,,0,,,62,90
223050,note_off,330,0,2,,,,,,,,,,,,,,1,,,50,64
223180,note_off,140,0,1,,,,,,,,,,,,,,0,,,74,64
223180,note_off,0,0,1,,,,,,,,,,,,,,0,,,62,64
223200,note_on,20,0,1,,,,,,,,,,,,,,0,,,62,90
223200,note_on,0,0,1,,,,,,,,,,,,,,0,,,74,90
223340,note_off,140,0,1,,,,,,,,,,,,,,0,,,62,64
223340,note_off,0,0,1,,,,,,,,,,,,,,0,,,74,64
223360,note_on,0,0,1,,,,,,,,,,,,,,0,,,62,90
223360,note_on,20,0,1,,,,,,,,,,,,,,0,,,74,90
223500,note_off,0,0,1,,,,,,,,,,,,,,0,,,62,64
223500,note_off,140,0,1,,,,,,,,,,,,,,0,,,74,64
223509,control_change,37769,0,5,,,,,,,,,,,,,,4,11,102,,
223520,note_on,0,0,1,,,,,,,,,,,,,,0,,,62,90
223520,note_on,20,0,1,,,,,,,,,,,,,,0,,,74,90
223660,note_off,140,0,1,,,,,,,,,,,,,,0,,,74,64
223660,note_off,0,0,1,,,,,,,,,,,,,,0,,,62,64
223680,note_on,20,0,1,,,,,,,,,,,,,,0,,,62,90
223680,note_on,0,0,1,,,,,,,,,,,,,,0,,,74,90
223820,note_off,140,0,1,,,,,,,,,,,,,,0,,,62,64
223820,note_off,0,0,1,,,,,,,,,,,,,,0,,,74,64
223840,note_on,20,0,1,,,,,,,,,,,,,,0,,,74,90
223840,note_on,0,0,1,,,,,,,,,,,,,,0,,,62,90
223980,note_off,140,0,1,,,,,,,,,,,,,,0,,,74,64
223980,note_off,0,0,1,,,,,,,,,,,,,,0,,,62,64
224000,note_on,20,0,1,,,,,,,,,,,,,,0,,,74,90
224000,note_on,0,0,1,,,,,,,,,,,,,,0,,,62,90
224140,note_off,140,0,1,,,,,,,,,,,,,,0,,,74,64
224140,note_off,0,0,1,,,,,,,,,,,,,,0,,,62,64
224160,note_on,20,0,1,,,,,,,,,,,,,,0,,,62,90
224160,note_on,0,0,1,,,,,,,,,,,,,,0,,,74,90
224160,note_on,651,0,5,,,,,,,,,,,,,,4,,,74,90
224300,note_off,140,0,1,,,,,,,,,,,,,,0,,,62,64
224300,note_off,0,0,1,,,,,,,,,,,,,,0,,,74,64
224320,note_on,20,0,1,,,,,,,,,,,,,,0,,,74,90
224320,note_on,0,0,1,,,,,,,,,,,,,,0,,,62,90
224389,control_change,1339,0,2,,,,,,,,,,,,,,1,11,80,,
224460,note_off,140,0,1,,,,,,,,,,,,,,0,,,74,64
224460,note_off,0,0,1,,,,,,,,,,,,,,0,,,62,64
224480,note_on,20,0,1,,,,,,,,,,,,,,0,,,74,90
224480,note_on,0,0,1,,,,,,,,,,,,,,0,,,62,90
224620,control_change,140,0,1,,,,,,,,,,,,,,0,11,64,,
224620,note_off,0,0,1,,,,,,,,,,,,,,0,,,74,64
224620,note_off,0,0,1,,,,,,,,,,,,,,0,,,62,64
224640,note_off,480,0,5,,,,,,,,,,,,,,4,,,74,64
224640,note_on,0,0,5,,,,,,,,,,,,,,4,,,75,90
224640,note_on,0,0,2,,,,,,,,,,,,,,1,,,39,90
224640,note_on,251,0,2,,,,,,,,,,,,,,1,,,51,90
224640,note_on,20,0,1,,,,,,,,,,,,,,0,,,70,90
224640,note_on,0,0,1,,,,,,,,,,,,,,0,,,67,90
224640,note_on,0,0,1,,,,,,,,,,,,,,0,,,75,90
224780,note_off,0,0,1,,,,,,,,,,,,,,0,,,75,64
224780,note_off,0,0,1,,,,,,,,,,,,,,0,,,67,64
224780,note_off,140,0,1,,,,,,,,,,,,,,0,,,70,64
224800,note_on,0,0,1,,,,,,,,,,,,,,0,,,70,90
224800,note_on,0,0,1,,,,,,,,,,,,,,0,,,75,90
224800,note_on,20,0,1,,,,,,,,,,,,,,0,,,67,90
224940,note_off,0,0,1,,,,,,,,,,,,,,0,,,75,64
224940,note_off,140,0,1,,,,,,,,,,,,,,0,,,67,64
224940,note_off,0,0,1,,,,,,,,,,,,,,0,,,70,64
224960,note_on,20,0,1,,,,,,,,,,,,,,0,,,70,90
224960,note_on,0,0,1,,,,,,,,,,,,,,0,,,67,90
224960,note_on,0,0,1,,,,,,,,,,,,,,0,,,75,90
225100,note_off,0,0,1,,,,,,,,,,,,,,0,,,67,64
225100,note_off,140,0,1,,,,,,,,,,,,,,0,,,70,64
225100,note_off,0,0,1,,,,,,,,,,,,,,0,,,75,64
225120,note_on,20,0,1,,,,,,,,,,,,,,0,,,67,90
225120,note_on,0,0,1,,,,,,,,,,,,,,0,,,70,90
225120,note_on,0,0,1,,,,,,,,,,,,,,0,,,75,90
225260,note_off,0,0,1,,,,,,,,,,,,,,0,,,75,64
225260,note_off,140,0,1,,,,,,,,,,,,,,0,,,67,64
225260,note_off,0,0,1,,,,,,,,,,,,,,0,,,70,64
225280,note_on,0,0,1,,,,,,,,,,,,,,0,,,75,90
225280,note_on,20,0,1,,,,,,,,,,,,,,0,,,70,90
225280,note_on,0,0,1,,,,,,,,,,,,,,0,,,67,90
225360,note_on,0,0,5,,,,,,,,,,,,,,4,,,70,90
225360,note_off,720,0,5,,,,,,,,,,,,,,4,,,75,64
225420,note_off,0,0,1,,,,,,,,,,,,,,0,,,67,64
225420,note_off,140,0,1,,,,,,,,,,,,,,0,,,70,64
225420,note_off,0,0,1,,,,,,,,,,,,,,0,,,75,64
225440,note_on,0,0,1,,,,,,,,,,,,,,0,,,75,90
225440,note_on,0,0,1,,,,,,,,,,,,,,0,,,67,90
225440,note_on,20,0,1,,,,,,,,,,,,,,0,,,70,90
225580,note_off,140,0,1,,,,,,,,,,,,,,0,,,70,64
225580,note_off,0,0,1,,,,,,,,,,,,,,0,,,67,64
225580,note_off,0,0,1,,,,,,,,,,,,,,0,,,75,64
225600,note_on,20,0,1,,,,,,,,,,,,,,0,,,67,90
225600,note_on,0,0,1,,,,,,,,,,,,,,0,,,70,90
225600,note_on,0,0,1,,,,,,,,,,,,,,0,,,75,90
225600,note_on,0,0,5,,,,,,,,,,,,,,4,,,70,90
225600,note_off,240,0,5,,,,,,,,,,,,,,4,,,70,64
225740,note_off,140,0,1,,,,,,,,,,,,,,0,,,67,64
225740,note_off,0,0,1,,,,,,,,,,,,,,0,,,70,64
225740,note_off,0,0,1,,,,,,,,,,,,,,0,,,75,64
225760,note_on,20,0,1,,,,,,,,,,,,,,0,,,70,90
225760,note_on,0,0,1,,,,,,,,,,,,,,0,,,67,90
225760,note_on,0,0,1,,,,,,,,,,,,,,0,,,75,90
225900,note_off,0,0,1,,,,,,,,,,,,,,0,,,75,64
225900,note_off,140,0,1,,,,,,,,,,,,,,0,,,70,64
225900,note_off,0,0,1,,,,,,,,,,,,,,0,,,67,64
225920,note_on,20,0,1,,,,,,,,,,,,,,0,,,70,90
225920,note_on,0,0,1,,,,,,,,,,,,,,0,,,67,90
225920,note_on,0,0,1,,,,,,,,,,,,,,0,,,75,90
226060,note_off,140,0,1,,,,,,,,,,,,,,0,,,70,64
226060,note_off,0,0,1,,,,,,,,,,,,,,0,,,67,64
226060,note_off,0,0,1,,,,,,,,,,,,,,0,,,75,64
226080,note_on,0,0,5,,,,,,,,,,,,,,4,,,75,90
226080,note_off,480,0,5,,,,,,,,,,,,,,4,,,70,64
226080,note_on,20,0,1,,,,,,,,,,,,,,0,,,67,90
226080,note_on,0,0,1,,,,,,,,,,,,,,0,,,70,90
226080,note_on,0,0,1,,,,,,,,,,,,,,0,,,75,90
226220,note_off,0,0,1,,,,,,,,,,,,,,0,,,70,64
226220,note_off,140,0,1,,,,,,,,,,,,,,0,,,67,64
226220,note_off,0,0,1,,,,,,,,,,,,,,0,,,75,64
226240,note_on,0,0,1,,,,,,,,,,,,,,0,,,75,90
226240,note_on,0,0,1,,,,,,,,,,,,,,0,,,67,90
226240,note_on,20,0,1,,,,,,,,,,,,,,0,,,70,90
226380,note_off,140,0,1,,,,,,,,,,,,,,0,,,70,64
226380,note_off,0,0,1,,,,,,,,,,,,,,0,,,67,64
226380,note_off,0,0,1,,,,,,,,,,,,,,0,,,75,64
226400,note_on,20,0,1,,,,,,,,,,,,,,0,,,70,90
226400,note_on,0,0,1,,,,,,,,,,,,,,0,,,67,90
226400,note_on,0,0,1,,,,,,,,,,,,,,0,,,75,90
226540,note_off,0,0,1,,,,,,,,,,,,,,0,,,75,64
226540,note_off,140,0,1,,,,,,,,,,,,,,0,,,70,64
226540,note_off,0,0,1,,,,,,,,,,,,,,0,,,67,64
226556,note_on,16,0,1,,,,,,,,,,,,,,0,,,68,90
226556,note_on,0,0,1,,,,,,,,,,,,,,0,,,71,90
226556,note_on,0,0,1,,,,,,,,,,,,,,0,,,65,90
226556,note_on,0,0,1,,,,,,,,,,,,,,0,,,74,90
226560,note_off,1920,0,2,,,,,,,,,,,,,,1,,,51,64
226560,note_off,480,0,5,,,,,,,,,,,,,,4,,,75,64
226560,note_on,0,0,5,,,,,,,,,,,,,,4,,,74,90
226560,note_off,0,0,2,,,,,,,,,,,,,,1,,,39,64
226560,note_on,0,0,2,,,,,,,,,,,,,,1,,,51,90
226560,note_on,0,0,2,,,,,,,,,,,,,,1,,,39,90
226696,note_off,140,0,1,,,,,,,,,,,,,,0,,,68,64
226696,note_off,0,0,1,,,,,,,,,,,,,,0,,,71,64
226696,note_off,0,0,1,,,,,,,,,,,,,,0,,,74,64
226696,note_off,0,0,1,,,,,,,,,,,,,,0,,,65,64
226716,note_on,20,0,1,,,,,,,,,,,,,,0,,,71,90
226716,note_on,0,0,1,,,,,,,,,,,,,,0,,,68,90
226716,note_on,0,0,1,,,,,,,,,,,,,,0,,,74,90
226716,note_on,0,0,1,,,,,,,,,,,,,,0,,,65,90
226856,note_off,0,0,1,,,,,,,,,,,,,,0,,,74,64
226856,note_off,140,0,1,,,,,,,,,,,,,,0,,,71,64
226856,note_off,0,0,1,,,,,,,,,,,,,,0,,,68,64
226856,note_off,0,0,1,,,,,,,,,,,,,,0,,,65,64
226876,note_on,0,0,1,,,,,,,,,,,,,,0,,,65,90
226876,note_on,0,0,1,,,,,,,,,,,,,,0,,,71,90
226876,note_on,0,0,1,,,,,,,,,,,,,,0,,,74,90
226876,note_on,20,0,1,,,,,,,,,,,,,,0,,,68,90
227016,note_off,140,0,1,,,,,,,,,,,,,,0,,,68,64
227016,note_off,0,0,1,,,,,,,,,,,,,,0,,,71,64
227016,note_off,0,0,1,,,,,,,,,,,,,,0,,,74,64
227016,note_off,0,0,1,,,,,,,,,,,,,,0,,,65,64
227036,note_on,0,0,1,,,,,,,,,,,,,,0,,,65,90
227036,note_on,0,0,1,,,,,,,,,,,,,,0,,,68,90
227036,note_on,20,0,1,,,,,,,,,,,,,,0,,,71,90
227036,note_on,0,0,1,,,,,,,,,,,,,,0,,,74,90
227040,note_on,0,0,5,,,,,,,,,,,,,,4,,,74,90
227040,note_off,480,0,5,,,,,,,,,,,,,,4,,,74,64
227176,note_off,140,0,1,,,,,,,,,,,,,,0,,,71,64
227176,note_off,0,0,1,,,,,,,,,,,,,,0,,,68,64
227176,note_off,0,0,1,,,,,,,,,,,,,,0,,,74,64
227176,note_off,0,0,1,,,,,,,,,,,,,,0,,,65,64
227196,note_on,20,0,1,,,,,,,,,,,,,,0,,,68,90
227196,note_on,0,0,1,,,,,,,,,,,,,,0,,,71,90
227196,note_on,0,0,1,,,,,,,,,,,,,,0,,,65,90
227196,note_on,0,0,1,,,,,,,,,,,,,,0,,,74,90
227280,note_on,0,0,5,,,,,,,,,,,,,,4,,,75,90
227280,note_off,240,0,5,,,,,,,,,,,,,,4,,,74,64
227336,note_off,0,0,1,,,,,,,,,,,,,,0,,,71,64
227336,note_off,0,0,1,,,,,,,,,,,,,,0,,,74,64
227336,note_off,0,0,1,,,,,,,,,,,,,,0,,,65,64
227336,note_off,140,0,1,,,,,,,,,,,,,,0,,,68,64
227356,note_on,20,0,1,,,,,,,,,,,,,,0,,,68,90
227356,note_on,0,0,1,,,,,,,,,,,,,,0,,,71,90
227356,note_on,0,0,1,,,,,,,,,,,,,,0,,,74,90
227356,note_on,0,0,1,,,,,,,,,,,,,,0,,,65,90
227496,note_off,140,0,1,,,,,,,,,,,,,,0,,,68,64
227496,note_off,0,0,1,,,,,,,,,,,,,,0,,,71,64
227496,note_off,0,0,1,,,,,,,,,,,,,,0,,,74,64
227496,note_off,0,0,1,,,,,,,,,,,,,,0,,,65,64
227516,note_on,0,0,1,,,,,,,,,,,,,,0,,,65,90
227516,note_on,0,0,1,,,,,,,,,,,,,,0,,,74,90
227516,note_on,20,0,1,,,,,,,,,,,,,,0,,,71,90
227516,note_on,0,0,1,,,,,,,,,,,,,,0,,,68,90
227520,note_off,240,0,5,,,,,,,,,,,,,,4,,,75,64
227520,note_on,0,0,5,,,,,,,,,,,,,,4,,,77,90
227656,note_off,140,0,1,,,,,,,,,,,,,,0,,,71,64
227656,note_off,0,0,1,,,,,,,,,,,,,,0,,,65,64
227656,note_off,0,0,1,,,,,,,,,,,,,,0,,,74,64
227656,note_off,0,0,1,,,,,,,,,,,,,,0,,,68,64
227676,note_on,0,0,1,,,,,,,,,,,,,,0,,,74,90
227676,note_on,0,0,1,,,,,,,,,,,,,,0,,,65,90
227676,note_on,20,0,1,,,,,,,,,,,,,,0,,,68,90
227676,note_on,0,0,1,,,,,,,,,,,,,,0,,,71,90
227816,note_off,0,0,1,,,,,,,,,,,,,,0,,,71,64
227816,note_off,0,0,1,,,,,,,,,,,,,,0,,,74,64
227816,note_off,0,0,1,,,,,,,,,,,,,,0,,,65,64
227816,note_off,140,0,1,,,,,,,,,,,,,,0,,,68,64
227836,note_on,0,0,1,,,,,,,,,,,,,,0,,,65,90
227836,note_on,0,0,1,,,,,,,,,,,,,,0,,,74,90
227836,note_on,0,0,1,,,,,,,,,,,,,,0,,,71,90
227836,note_on,20,0,1,,,,,,,,,,,,,,0,,,68,90
227976,note_off,0,0,1,,,,,,,,,,,,,,0,,,71,64
227976,note_off,0,0,1,,,,,,,,,,,,,,0,,,74,64
227976,note_off,0,0,1,,,,,,,,,,,,,,0,,,65,64
227976,note_off,140,0,1,,,,,,,,,,,,,,0,,,68,64
227996,note_on,0,0,1,,,,,,,,,,,,,,0,,,74,90
227996,note_on,0,0,1,,,,,,,,,,,,,,0,,,65,90
227996,note_on,0,0,1,,,,,,,,,,,,,,0,,,68,90
227996,note_on,20,0,1,,,,,,,,,,,,,,0,,,71,90
228000,note_on,0,0,5,,,,,,,,,,,,,,4,,,75,90
228000,note_off,480,0,5,,,,,,,,,,,,,,4,,,77,64
228136,note_off,140,0,1,,,,,,,,,,,,,,0,,,71,64
228136,note_off,0,0,1,,,,,,,,,,,,,,0,,,68,64
228136,note_off,0,0,1,,,,,,,,,,,,,,0,,,74,64
228136,note_off,0,0,1,,,,,,,,,,,,,,0,,,65,64
228156,note_on,20,0,1,,,,,,,,,,,,,,0,,,68,90
228156,note_on,0,0,1,,,,,,,,,,,,,,0,,,71,90
228156,note_on,0,0,1,,,,,,,,,,,,,,0,,,74,90
228156,note_on,0,0,1,,,,,,,,,,,,,,0,,,65,90
228240,note_off,240,0,5,,,,,,,,,,,,,,4,,,75,64
228240,note_on,0,0,5,,,,,,,,,,,,,,4,,,74,90
228296,note_off,0,0,1,,,,,,,,,,,,,,0,,,74,64
228296,note_off,0,0,1,,,,,,,,,,,,,,0,,,65,64
228296,note_off,140,0,1,,,,,,,,,,,,,,0,,,68,64
228296,note_off,0,0,1,,,,,,,,,,,,,,0,,,71,64
228316,note_on,0,0,1,,,,,,,,,,,,,,0,,,71,90
228316,note_on,0,0,1,,,,,,,,,,,,,,0,,,65,90
228316,note_on,20,0,1,,,,,,,,,,,,,,0,,,68,90
228316,note_on,0,0,1,,,,,,,,,,,,,,0,,,74,90
228456,note_off,0,0,1,,,,,,,,,,,,,,0,,,65,64
228456,note_off,0,0,1,,,,,,,,,,,,,,0,,,74,64
228456,note_off,0,0,1,,,,,,,,,,,,,,0,,,71,64
228456,note_off,140,0,1,,,,,,,,,,,,,,0,,,68,64
228480,note_on,24,0,1,,,,,,,,,,,,,,0,,,70,90
228480,note_on,0,0,2,,,,,,,,,,,,,,1,,,51,90
228480,note_on,0,0,2,,,,,,,,,,,,,,1,,,39,90
228480,note_off,1920,0,2,,,,,,,,,,,,,,1,,,51,64
228480,note_off,240,0,5,,,,,,,,,,,,,,4,,,74,64
228480,note_on,0,0,1,,,,,,,,,,,,,,0,,,75,90
228480,note_off,0,0,2,,,,,,,,,,,,,,1,,,39,64
228480,note_on,0,0,5,,,,,,,,,,,,,,4,,,75,90
228480,note_on,0,0,1,,,,,,,,,,,,,,0,,,67,90
228620,note_off,0,0,1,,,,,,,,,,,,,,0,,,75,64
228620,note_off,140,0,1,,,,,,,,,,,,,,0,,,70,64
228620,note_off,0,0,1,,,,,,,,,,,,,,0,,,67,64
228640,note_on,0,0,1,,,,,,,,,,,,,,0,,,75,90
228640,note_on,0,0,1,,,,,,,,,,,,,,0,,,70,90
228640,note_on,20,0,1,,,,,,,,,,,,,,0,,,67,90
228780,note_off,0,0,1,,,,,,,,,,,,,,0,,,70,64
228780,note_off,140,0,1,,,,,,,,,,,,,,0,,,67,64
228780,note_off,0,0,1,,,,,,,,,,,,,,0,,,75,64
228800,note_on,0,0,1,,,,,,,,,,,,,,0,,,75,90
228800,note_on,0,0,1,,,,,,,,,,,,,,0,,,67,90
228800,note_on,20,0,1,,,,,,,,,,,,,,0,,,70,90
228940,note_off,0,0,1,,,,,,,,,,,,,,0,,,67,64
228940,note_off,0,0,1,,,,,,,,,,,,,,0,,,75,64
228940,note_off,140,0,1,,,,,,,,,,,,,,0,,,70,64
228960,note_on,20,0,1,,,,,,,,,,,,,,0,,,67,90
228960,note_on,0,0,1,,,,,,,,,,,,,,0,,,70,90
228960,note_on,0,0,1,,,,,,,,,,,,,,0,,,75,90
229100,note_off,0,0,1,,,,,,,,,,,,,,0,,,70,64
229100,note_off,0,0,1,,,,,,,,,,,,,,0,,,75,64
229100,note_off,140,0,1,,,,,,,,,,,,,,0,,,67,64
229120,note_on,20,0,1,,,,,,,,,,,,,,0,,,70,90
229120,note_on,0,0,1,,,,,,,,,,,,,,0,,,67,90
229120,note_on,0,0,1,,,,,,,,,,,,,,0,,,75,90
229260,note_off,0,0,1,,,,,,,,,,,,,,0,,,67,64
229260,note_off,140,0,1,,,,,,,,,,,,,,0,,,70,64
229260,note_off,0,0,1,,,,,,,,,,,,,,0,,,75,64
229280,note_on,0,0,1,,,,,,,,,,,,,,0,,,75,90
229280,note_on,0,0,1,,,,,,,,,,,,,,0,,,67,90
229280,note_on,20,0,1,,,,,,,,,,,,,,0,,,70,90
229420,note_off,0,0,1,,,,,,,,,,,,,,0,,,75,64
229420,note_off,0,0,1,,,,,,,,,,,,,,0,,,67,64
229420,note_off,140,0,1,,,,,,,,,,,,,,0,,,70,64
229440,note_on,20,0,1,,,,,,,,,,,,,,0,,,67,90
229440,note_on,0,0,1,,,,,,,,,,,,,,0,,,75,90
229440,note_off,960,0,5,,,,,,,,,,,,,,4,,,75,64
229440,note_on,0,0,1,,,,,,,,,,,,,,0,,,70,90
229580,note_off,140,0,1,,,,,,,,,,,,,,0,,,67,64
229580,note_off,0,0,1,,,,,,,,,,,,,,0,,,70,64
229580,note_off,0,0,1,,,,,,,,,,,,,,0,,,75,64
229600,note_on,20,0,1,,,,,,,,,,,,,,0,,,70,90
229600,note_on,0,0,1,,,,,,,,,,,,,,0,,,67,90
229600,note_on,0,0,1,,,,,,,,,,,,,,0,,,75,90
229740,note_off,140,0,1,,,,,,,,,,,,,,0,,,70,64
229740,note_off,0,0,1,,,,,,,,,,,,,,0,,,67,64
229740,note_off,0,0,1,,,,,,,,,,,,,,0,,,75,64
229760,note_on,0,0,1,,,,,,,,,,,,,,0,,,75,90
229760,note_on,0,0,1,,,,,,,,,,,,,,0,,,67,90
229760,note_on,20,0,1,,,,,,,,,,,,,,0,,,70,90
229900,note_off,140,0,1,,,,,,,,,,,,,,0,,,70,64
229900,note_off,0,0,1,,,,,,,,,,,,,,0,,,67,64
229900,note_off,0,0,1,,,,,,,,,,,,,,0,,,75,64
229920,note_on,480,0,5,,,,,,,,,,,,,,4,,,74,90
229920,note_on,20,0,1,,,,,,,,,,,,,,0,,,67,90
229920,note_on,0,0,1,,,,,,,,,,,,,,0,,,70,90
229920,note_on,0,0,1,,,,,,,,,,,,,,0,,,75,90
230060,note_off,140,0,1,,,,,,,,,,,,,,0,,,67,64
230060,note_off,0,0,1,,,,,,,,,,,,,,0,,,70,64
230060,note_off,0,0,1,,,,,,,,,,,,,,0,,,75,64
230080,note_on,20,0,1,,,,,,,,,,,,,,0,,,70,90
230080,note_on,0,0,1,,,,,,,,,,,,,,0,,,75,90
230080,note_on,0,0,1,,,,,,,,,,,,,,0,,,67,90
230220,note_off,140,0,1,,,,,,,,,,,,,,0,,,70,64
230220,note_off,0,0,1,,,,,,,,,,,,,,0,,,75,64
230220,note_off,0,0,1,,,,,,,,,,,,,,0,,,67,64
230240,note_on,0,0,1,,,,,,,,,,,,,,0,,,67,90
230240,note_on,20,0,1,,,,,,,,,,,,,,0,,,70,90
230240,note_on,0,0,1,,,,,,,,,,,,,,0,,,75,90
230380,note_off,140,0,1,,,,,,,,,,,,,,0,,,70,64
230380,note_off,0,0,1,,,,,,,,,,,,,,0,,,67,64
230380,note_off,0,0,1,,,,,,,,,,,,,,0,,,75,64
230400,note_off,1920,0,2,,,,,,,,,,,,,,1,,,51,64
230400,note_on,0,0,2,,,,,,,,,,,,,,1,,,43,90
230400,note_on,0,0,1,,,,,,,,,,,,,,0,,,64,90
230400,note_off,480,0,5,,,,,,,,,,,,,,4,,,74,64
230400,note_on,0,0,5,,,,,,,,,,,,,,4,,,73,90
230400,note_on,20,0,1,,,,,,,,,,,,,,0,,,70,90
230400,note_on,0,0,2,,,,,,,,,,,,,,1,,,55,90
230400,note_off,0,0,2,,,,,,,,,,,,,,1,,,39,64
230400,note_on,0,0,1,,,,,,,,,,,,,,0,,,73,90
230540,note_off,0,0,1,,,,,,,,,,,,,,0,,,73,64
230540,note_off,0,0,1,,,,,,,,,,,,,,0,,,64,64
230540,note_off,140,0,1,,,,,,,,,,,,,,0,,,70,64
230560,note_on,20,0,1,,,,,,,,,,,,,,0,,,64,90
230560,note_on,0,0,1,,,,,,,,,,,,,,0,,,73,90
230560,note_on,0,0,1,,,,,,,,,,,,,,0,,,70,90
230700,note_off,140,0,1,,,,,,,,,,,,,,0,,,64,64
230700,note_off,0,0,1,,,,,,,,,,,,,,0,,,70,64
230700,note_off,0,0,1,,,,,,,,,,,,,,0,,,73,64
230720,note_on,20,0,1,,,,,,,,,,,,,,0,,,70,90
230720,note_on,0,0,1,,,,,,,,,,,,,,0,,,64,90
230720,note_on,0,0,1,,,,,,,,,,,,,,0,,,73,90
230860,note_off,0,0,1,,,,,,,,,,,,,,0,,,64,64
230860,note_off,0,0,1,,,,,,,,,,,,,,0,,,73,64
230860,note_off,140,0,1,,,,,,,,,,,,,,0,,,70,64
230880,note_on,0,0,1,,,,,,,,,,,,,,0,,,73,90
230880,note_on,0,0,1,,,,,,,,,,,,,,0,,,70,90
230880,note_on,20,0,1,,,,,,,,,,,,,,0,,,64,90
231020,note_off,0,0,1,,,,,,,,,,,,,,0,,,70,64
231020,note_off,140,0,1,,,,,,,,,,,,,,0,,,64,64
231020,note_off,0,0,1,,,,,,,,,,,,,,0,,,73,64
231040,note_on,20,0,1,,,,,,,,,,,,,,0,,,70,90
231040,note_on,0,0,1,,,,,,,,,,,,,,0,,,64,90
231040,note_on,0,0,1,,,,,,,,,,,,,,0,,,73,90
231180,note_off,140,0,1,,,,,,,,,,,,,,0,,,70,64
231180,note_off,0,0,1,,,,,,,,,,,,,,0,,,64,64
231180,note_off,0,0,1,,,,,,,,,,,,,,0,,,73,64
231200,note_on,0,0,1,,,,,,,,,,,,,,0,,,64,90
231200,note_on,20,0,1,,,,,,,,,,,,,,0,,,70,90
231200,note_on,0,0,1,,,,,,,,,,,,,,0,,,73,90
231340,note_off,0,0,1,,,,,,,,,,,,,,0,,,64,64
231340,note_off,0,0,1,,,,,,,,,,,,,,0,,,73,64
231340,note_off,140,0,1,,,,,,,,,,,,,,0,,,70,64
231360,note_on,0,0,5,,,,,,,,,,,,,,4,,,73,90
231360,note_off,960,0,5,,,,,,,,,,,,,,4,,,73,64
231360,note_on,20,0,1,,,,,,,,,,,,,,0,,,64,90
231360,note_on,0,0,1,,,,,,,,,,,,,,0,,,70,90
231360,note_on,0,0,1,,,,,,,,,,,,,,0,,,73,90
231500,note_off,0,0,1,,,,,,,,,,,,,,0,,,70,64
231500,note_off,140,0,1,,,,,,,,,,,,,,0,,,64,64
231500,note_off,0,0,1,,,,,,,,,,,,,,0,,,73,64
231520,note_on,0,0,1,,,,,,,,,,,,,,0,,,73,90
231520,note_on,20,0,1,,,,,,,,,,,,,,0,,,70,90
231520,note_on,0,0,1,,,,,,,,,,,,,,0,,,64,90
231660,note_off,0,0,1,,,,,,,,,,,,,,0,,,73,64
231660,note_off,0,0,1,,,,,,,,,,,,,,0,,,64,64
231660,note_off,140,0,1,,,,,,,,,,,,,,0,,,70,64
231680,note_on,20,0,1,,,,,,,,,,,,,,0,,,70,90
231680,note_on,0,0,1,,,,,,,,,,,,,,0,,,64,90
231680,note_on,0,0,1,,,,,,,,,,,,,,0,,,73,90
231820,note_off,0,0,1,,,,,,,,,,,,,,0,,,64,64
231820,note_off,0,0,1,,,,,,,,,,,,,,0,,,73,64
231820,note_off,140,0,1,,,,,,,,,,,,,,0,,,70,64
231840,note_on,20,0,1,,,,,,,,,,,,,,0,,,64,90
231840,note_on,0,0,1,,,,,,,,,,,,,,0,,,70,90
231840,note_off,480,0,5,,,,,,,,,,,,,,4,,,73,64
231840,note_on,0,0,5,,,,,,,,,,,,,,4,,,73,90
231840,note_on,0,0,1,,,,,,,,,,,,,,0,,,73,90
231980,note_off,140,0,1,,,,,,,,,,,,,,0,,,64,64
231980,note_off,0,0,1,,,,,,,,,,,,,,0,,,70,64
231980,note_off,0,0,1,,,,,,,,,,,,,,0,,,73,64
232000,note_on,20,0,1,,,,,,,,,,,,,,0,,,70,90
232000,note_on,0,0,1,,,,,,,,,,,,,,0,,,73,90
232000,note_on,0,0,1,,,,,,,,,,,,,,0,,,64,90
232140,note_off,0,0,1,,,,,,,,,,,,,,0,,,64,64
232140,note_off,0,0,1,,,,,,,,,,,,,,0,,,73,64
232140,note_off,140,0,1,,,,,,,,,,,,,,0,,,70,64
232160,note_on,0,0,1,,,,,,,,,,,,,,0,,,73,90
232160,note_on,20,0,1,,,,,,,,,,,,,,0,,,70,90
232160,note_on,0,0,1,,,,,,,,,,,,,,0,,,64,90
232300,note_off,0,0,1,,,,,,,,,,,,,,0,,,73,64
232300,note_off,0,0,1,,,,,,,,,,,,,,0,,,64,64
232300,note_off,140,0,1,,,,,,,,,,,,,,0,,,70,64
232320,note_on,0,0,1,,,,,,,,,,,,,,0,,,74,90
232320,note_on,0,0,1,,,,,,,,,,,,,,0,,,65,90
232320,note_on,20,0,1,,,,,,,,,,,,,,0,,,71,90
232320,note_off,1920,0,2,,,,,,,,,,,,,,1,,,55,64
232320,note_on,0,0,2,,,,,,,,,,,,,,1,,,56,90
232320,note_off,0,0,2,,,,,,,,,,,,,,1,,,43,64
232320,note_off,480,0,5,,,,,,,,,,,,,,4,,,73,64
232320,note_on,0,0,5,,,,,,,,,,,,,,4,,,74,90
232320,note_on,0,0,2,,,,,,,,,,,,,,1,,,44,90
232460,note_off,140,0,1,,,,,,,,,,,,,,0,,,71,64
232460,note_off,0,0,1,,,,,,,,,,,,,,0,,,65,64
232460,note_off,0,0,1,,,,,,,,,,,,,,0,,,74,64
232480,note_on,20,0,1,,,,,,,,,,,,,,0,,,65,90
232480,note_on,0,0,1,,,,,,,,,,,,,,0,,,71,90
232480,note_on,0,0,1,,,,,,,,,,,,,,0,,,74,90
232620,note_off,140,0,1,,,,,,,,,,,,,,0,,,65,64
232620,note_off,0,0,1,,,,,,,,,,,,,,0,,,71,64
232620,note_off,0,0,1,,,,,,,,,,,,,,0,,,74,64
232640,note_on,0,0,1,,,,,,,,,,,,,,0,,,65,90
232640,note_on,20,0,1,,,,,,,,,,,,,,0,,,71,90
232640,note_on,0,0,1,,,,,,,,,,,,,,0,,,74,90
232780,note_off,140,0,1,,,,,,,,,,,,,,0,,,71,64
232780,note_off,0,0,1,,,,,,,,,,,,,,0,,,65,64
232780,note_off,0,0,1,,,,,,,,,,,,,,0,,,74,64
232800,note_on,20,0,1,,,,,,,,,,,,,,0,,,65,90
232800,note_on,0,0,1,,,,,,,,,,,,,,0,,,71,90
232800,note_on,0,0,1,,,,,,,,,,,,,,0,,,74,90
232940,note_off,140,0,1,,,,,,,,,,,,,,0,,,65,64
232940,note_off,0,0,1,,,,,,,,,,,,,,0,,,71,64
232940,note_off,0,0,1,,,,,,,,,,,,,,0,,,74,64
232960,note_on,0,0,1,,,,,,,,,,,,,,0,,,65,90
232960,note_on,0,0,1,,,,,,,,,,,,,,0,,,74,90
232960,note_on,20,0,1,,,,,,,,,,,,,,0,,,71,90
233100,note_off,140,0,1,,,,,,,,,,,,,,0,,,71,64
233100,note_off,0,0,1,,,,,,,,,,,,,,0,,,74,64
233100,note_off,0,0,1,,,,,,,,,,,,,,0,,,65,64
233120,note_on,20,0,1,,,,,,,,,,,,,,0,,,71,90
233120,note_on,0,0,1,,,,,,,,,,,,,,0,,,65,90
233120,note_on,0,0,1,,,,,,,,,,,,,,0,,,74,90
233260,note_off,140,0,1,,,,,,,,,,,,,,0,,,71,64
233260,note_off,0,0,1,,,,,,,,,,,,,,0,,,65,64
233260,note_off,0,0,1,,,,,,,,,,,,,,0,,,74,64
233280,note_on,0,0,1,,,,,,,,,,,,,,0,,,74,90
233280,note_off,960,0,5,,,,,,,,,,,,,,4,,,74,64
233280,note_on,0,0,5,,,,,,,,,,,,,,4,,,74,90
233280,note_on,20,0,1,,,,,,,,,,,,,,0,,,65,90
233280,note_on,0,0,1,,,,,,,,,,,,,,0,,,71,90
233420,note_off,0,0,1,,,,,,,,,,,,,,0,,,71,64
233420,note_off,140,0,1,,,,,,,,,,,,,,0,,,65,64
233420,note_off,0,0,1,,,,,,,,,,,,,,0,,,74,64
233440,note_on,20,0,1,,,,,,,,,,,,,,0,,,71,90
233440,note_on,0,0,1,,,,,,,,,,,,,,0,,,65,90
233440,note_on,0,0,1,,,,,,,,,,,,,,0,,,74,90
233580,note_off,140,0,1,,,,,,,,,,,,,,0,,,71,64
233580,note_off,0,0,1,,,,,,,,,,,,,,0,,,74,64
233580,note_off,0,0,1,,,,,,,,,,,,,,0,,,65,64
233600,note_on,20,0,1,,,,,,,,,,,,,,0,,,71,90
233600,note_on,0,0,1,,,,,,,,,,,,,,0,,,74,90
233600,note_on,0,0,1,,,,,,,,,,,,,,0,,,65,90
233740,note_off,0,0,1,,,,,,,,,,,,,,0,,,74,64
233740,note_off,140,0,1,,,,,,,,,,,,,,0,,,71,64
233740,note_off,0,0,1,,,,,,,,,,,,,,0,,,65,64
233760,note_on,20,0,1,,,,,,,,,,,,,,0,,,65,90
233760,note_on,0,0,1,,,,,,,,,,,,,,0,,,71,90
233760,note_on,0,0,1,,,,,,,,,,,,,,0,,,74,90
233900,note_off,140,0,1,,,,,,,,,,,,,,0,,,65,64
233900,note_off,0,0,1,,,,,,,,,,,,,,0,,,71,64
233900,note_off,0,0,1,,,,,,,,,,,,,,0,,,74,64
233920,note_on,20,0,1,,,,,,,,,,,,,,0,,,71,90
233920,note_on,0,0,1,,,,,,,,,,,,,,0,,,74,90
233920,note_on,0,0,1,,,,,,,,,,,,,,0,,,65,90
234000,note_on,0,0,5,,,,,,,,,,,,,,4,,,68,90
234000,note_off,720,0,5,,,,,,,,,,,,,,4,,,74,64
234060,note_off,140,0,1,,,,,,,,,,,,,,0,,,71,64
234060,note_off,0,0,1,,,,,,,,,,,,,,0,,,65,64
234060,note_off,0,0,1,,,,,,,,,,,,,,0,,,74,64
234080,note_on,20,0,1,,,,,,,,,,,,,,0,,,71,90
234080,note_on,0,0,1,,,,,,,,,,,,,,0,,,65,90
234080,note_on,0,0,1,,,,,,,,,,,,,,0,,,74,90
234220,note_off,140,0,1,,,,,,,,,,,,,,0,,,71,64
234220,note_off,0,0,1,,,,,,,,,,,,,,0,,,74,64
234220,note_off,0,0,1,,,,,,,,,,,,,,0,,,65,64
234240,note_off,1920,0,2,,,,,,,,,,,,,,1,,,56,64
234240,note_on,0,0,1,,,,,,,,,,,,,,0,,,74,90
234240,note_on,20,0,1,,,,,,,,,,,,,,0,,,69,90
234240,note_on,0,0,5,,,,,,,,,,,,,,4,,,69,90
234240,note_off,240,0,5,,,,,,,,,,,,,,4,,,68,64
234240,note_on,0,0,1,,,,,,,,,,,,,,0,,,65,90
234240,note_on,0,0,2,,,,,,,,,,,,,,1,,,45,90
234240,note_off,0,0,2,,,,,,,,,,,,,,1,,,44,64
234240,note_on,0,0,2,,,,,,,,,,,,,,1,,,57,90
234380,note_off,0,0,1,,,,,,,,,,,,,,0,,,65,64
234380,note_off,0,0,1,,,,,,,,,,,,,,0,,,74,64
234380,note_off,140,0,1,,,,,,,,,,,,,,0,,,69,64
234400,note_on,0,0,1,,,,,,,,,,,,,,0,,,74,90
234400,note_on,20,0,1,,,,,,,,,,,,,,0,,,65,90
234400,note_on,0,0,1,,,,,,,,,,,,,,0,,,69,90
234540,note_off,0,0,1,,,,,,,,,,,,,,0,,,74,64
234540,note_off,0,0,1,,,,,,,,,,,,,,0,,,69,64
234540,note_off,140,0,1,,,,,,,,,,,,,,0,,,65,64
234560,note_on,0,0,1,,,,,,,,,,,,,,0,,,74,90
234560,note_on,20,0,1,,,,,,,,,,,,,,0,,,69,90
234560,note_on,0,0,1,,,,,,,,,,,,,,0,,,65,90
234700,note_off,0,0,1,,,,,,,,,,,,,,0,,,65,64
234700,note_off,0,0,1,,,,,,,,,,,,,,0,,,74,64
234700,note_off,140,0,1,,,,,,,,,,,,,,0,,,69,64
234720,note_on,20,0,1,,,,,,,,,,,,,,0,,,65,90
234720,note_on,0,0,1,,,,,,,,,,,,,,0,,,69,90
234720,note_on,0,0,1,,,,,,,,,,,,,,0,,,74,90
234860,note_off,140,0,1,,,,,,,,,,,,,,0,,,65,64
234860,note_off,0,0,1,,,,,,,,,,,,,,0,,,74,64
234860,note_off,0,0,1,,,,,,,,,,,,,,0,,,69,64
234880,note_on,20,0,1,,,,,,,,,,,,,,0,,,69,90
234880,note_on,0,0,1,,,,,,,,,,,,,,0,,,65,90
234880,note_on,0,0,1,,,,,,,,,,,,,,0,,,74,90
235020,note_off,140,0,1,,,,,,,,,,,,,,0,,,69,64
235020,note_off,0,0,1,,,,,,,,,,,,,,0,,,65,64
235020,note_off,0,0,1,,,,,,,,,,,,,,0,,,74,64
235040,note_on,20,0,1,,,,,,,,,,,,,,0,,,69,90
235040,note_on,0,0,1,,,,,,,,,,,,,,0,,,65,90
235040,note_on,0,0,1,,,,,,,,,,,,,,0,,,74,90
235180,note_off,140,0,1,,,,,,,,,,,,,,0,,,69,64
235180,note_off,0,0,1,,,,,,,,,,,,,,0,,,65,64
235180,note_off,0,0,1,,,,,,,,,,,,,,0,,,74,64
235200,note_on,0,0,1,,,,,,,,,,,,,,0,,,73,90
235200,note_on,20,0,1,,,,,,,,,,,,,,0,,,64,90
235200,note_on,0,0,1,,,,,,,,,,,,,,0,,,69,90
235200,note_on,0,0,2,,,,,,,,,,,,,,1,,,45,90
235200,note_on,0,0,5,,,,,,,,,,,,,,4,,,69,90
235200,note_off,960,0,5,,,,,,,,,,,,,,4,,,69,64
235200,note_on,0,0,2,,,,,,,,,,,,,,1,,,57,90
235200,note_off,0,0,2,,,,,,,,,,,,,,1,,,45,64
235200,note_off,960,0,2,,,,,,,,,,,,,,1,,,57,64
235340,note_off,140,0,1,,,,,,,,,,,,,,0,,,64,64
235340,note_off,0,0,1,,,,,,,,,,,,,,0,,,73,64
235340,note_off,0,0,1,,,,,,,,,,,,,,0,,,69,64
235360,note_on,0,0,1,,,,,,,,,,,,,,0,,,73,90
235360,note_on,0,0,1,,,,,,,,,,,,,,0,,,64,90
235360,note_on,20,0,1,,,,,,,,,,,,,,0,,,69,90
235500,note_off,0,0,1,,,,,,,,,,,,,,0,,,64,64
235500,note_off,140,0,1,,,,,,,,,,,,,,0,,,69,64
235500,note_off,0,0,1,,,,,,,,,,,,,,0,,,73,64
235520,note_on,20,0,1,,,,,,,,,,,,,,0,,,69,90
235520,note_on,0,0,1,,,,,,,,,,,,,,0,,,64,90
235520,note_on,0,0,1,,,,,,,,,,,,,,0,,,73,90
235660,note_off,140,0,1,,,,,,,,,,,,,,0,,,69,64
235660,note_off,0,0,1,,,,,,,,,,,,,,0,,,64,64
235660,note_off,0,0,1,,,,,,,,,,,,,,0,,,73,64
235680,note_on,0,0,1,,,,,,,,,,,,,,0,,,69,90
235680,note_on,0,0,1,,,,,,,,,,,,,,0,,,73,90
235680,note_on,20,0,1,,,,,,,,,,,,,,0,,,64,90
235820,note_off,140,0,1,,,,,,,,,,,,,,0,,,64,64
235820,note_off,0,0,1,,,,,,,,,,,,,,0,,,69,64
235820,note_off,0,0,1,,,,,,,,,,,,,,0,,,73,64
235840,note_on,0,0,1,,,,,,,,,,,,,,0,,,64,90
235840,note_on,0,0,1,,,,,,,,,,,,,,0,,,73,90
235840,note_on,20,0,1,,,,,,,,,,,,,,0,,,69,90
235920,note_off,720,0,5,,,,,,,,,,,,,,4,,,69,64
235920,note_on,0,0,5,,,,,,,,,,,,,,4,,,69,90
235980,note_off,140,0,1,,,,,,,,,,,,,,0,,,69,64
235980,note_off,0,0,1,,,,,,,,,,,,,,0,,,64,64
235980,note_off,0,0,1,,,,,,,,,,,,,,0,,,73,64
236000,note_on,20,0,1,,,,,,,,,,,,,,0,,,69,90
236000,note_on,0,0,1,,,,,,,,,,,,,,0,,,64,90
236000,note_on,0,0,1,,,,,,,,,,,,,,0,,,73,90
236137,control_change,137,0,1,,,,,,,,,,,,,,0,11,110,,
236140,note_off,0,0,1,,,,,,,,,,,,,,0,,,73,64
236140,note_off,0,0,1,,,,,,,,,,,,,,0,,,64,64
236140,note_off,3,0,1,,,,,,,,,,,,,,0,,,69,64
236159,note_on,19,0,1,,,,,,,,,,,,,,0,,,69,90
236159,note_on,0,0,1,,,,,,,,,,,,,,0,,,74,90
236159,control_change,959,0,2,,,,,,,,,,,,,,1,11,98,,
236159,note_on,0,0,1,,,,,,,,,,,,,,0,,,65,90
236160,note_on,0,0,2,,,,,,,,,,,,,,1,,,50,90
236160,note_on,0,0,2,,,,,,,,,,,,,,1,,,38,90
236160,note_off,240,0,5,,,,,,,,,,,,,,4,,,69,64
236160,note_on,0,0,5,,,,,,,,,,,,,,4,,,62,90
236160,note_off,1,0,2,,,,,,,,,,,,,,1,,,57,64
236160,note_off,0,0,2,,,,,,,,,,,,,,1,,,45,64
236299,note_off,140,0,1,,,,,,,,,,,,,,0,,,69,64
236299,note_off,0,0,1,,,,,,,,,,,,,,0,,,74,64
236299,note_off,0,0,1,,,,,,,,,,,,,,0,,,65,64
236319,note_on,20,0,1,,,,,,,,,,,,,,0,,,77,90
236319,note_on,0,0,1,,,,,,,,,,,,,,0,,,65,90
236459,note_off,140,0,1,,,,,,,,,,,,,,0,,,77,64
236459,note_off,0,0,1,,,,,,,,,,,,,,0,,,65,64
236479,note_on,20,0,1,,,,,,,,,,,,,,0,,,65,90
236479,note_on,0,0,1,,,,,,,,,,,,,,0,,,77,90
236619,note_off,140,0,1,,,,,,,,,,,,,,0,,,65,64
236619,note_off,0,0,1,,,,,,,,,,,,,,0,,,77,64
236639,note_on,20,0,1,,,,,,,,,,,,,,0,,,77,90
236639,note_on,0,0,1,,,,,,,,,,,,,,0,,,65,90
236698,control_change,59,0,1,,,,,,,,,,,,,,0,11,110,,
236738,control_change,40,0,1,,,,,,,,,,,,,,0,11,109,,
236778,control_change,40,0,1,,,,,,,,,,,,,,0,11,108,,
236779,note_off,1,0,1,,,,,,,,,,,,,,0,,,77,64
236779,note_off,0,0,1,,,,,,,,,,,,,,0,,,65,64
236799,note_on,20,0,1,,,,,,,,,,,,,,0,,,65,90
236799,note_on,0,0,1,,,,,,,,,,,,,,0,,,77,90
236819,control_change,20,0,1,,,,,,,,,,,,,,0,11,107,,
236859,control_change,40,0,1,,,,,,,,,,,,,,0,11,106,,
236899,control_change,40,0,1,,,,,,,,,,,,,,0,11,105,,
236939,note_off,40,0,1,,,,,,,,,,,,,,0,,,65,64
236939,note_off,0,0,1,,,,,,,,,,,,,,0,,,77,64
236940,control_change,1,0,1,,,,,,,,,,,,,,0,11,104,,
236960,note_on,20,0,1,,,,,,,,,,,,,,0,,,77,90
236960,note_on,0,0,1,,,,,,,,,,,,,,0,,,65,90
236980,control_change,20,0,1,,,,,,,,,,,,,,0,11,103,,
237020,control_change,40,0,1,,,,,,,,,,,,,,0,11,102,,
237061,control_change,41,0,1,,,,,,,,,,,,,,0,11,101,,
237100,note_off,39,0,1,,,,,,,,,,,,,,0,,,77,64
237100,note_off,0,0,1,,,,,,,,,,,,,,0,,,65,64
237101,control_change,1,0,1,,,,,,,,,,,,,,0,11,100,,
237120,note_on,19,0,1,,,,,,,,,,,,,,0,,,77,90
237120,note_off,960,0,5,,,,,,,,,,,,,,4,,,62,64
237120,note_off,0,0,2,,,,,,,,,,,,,,1,,,38,64
237120,note_on,0,0,1,,,,,,,,,,,,,,0,,,65,90
237120,note_off,960,0,2,,,,,,,,,,,,,,1,,,50,64
237141,control_change,21,0,1,,,,,,,,,,,,,,0,11,99,,
237182,control_change,41,0,1,,,,,,,,,,,,,,0,11,98,,
237204,control_change,84,0,2,,,,,,,,,,,,,,1,11,108,,
237222,control_change,40,0,1,,,,,,,,,,,,,,0,11,97,,
237260,note_off,38,0,1,,,,,,,,,,,,,,0,,,77,64
237260,note_off,0,0,1,,,,,,,,,,,,,,0,,,65,64
237262,control_change,2,0,1,,,,,,,,,,,,,,0,11,96,,
237280,note_on,18,0,1,,,,,,,,,,,,,,0,,,65,90
237280,note_on,0,0,1,,,,,,,,,,,,,,0,,,77,90
237303,control_change,23,0,1,,,,,,,,,,,,,,0,11,95,,
237343,control_change,40,0,1,,,,,,,,,,,,,,0,11,94,,
237383,control_change,40,0,1,,,,,,,,,,,,,,0,11,93,,
237420,note_off,37,0,1,,,,,,,,,,,,,,0,,,65,64
237420,note_off,0,0,1,,,,,,,,,,,,,,0,,,77,64
237424,control_change,4,0,1,,,,,,,,,,,,,,0,11,92,,
237440,note_on,0,0,1,,,,,,,,,,,,,,0,,,65,90
237440,note_on,16,0,1,,,,,,,,,,,,,,0,,,77,90
237580,note_off,0,0,1,,,,,,,,,,,,,,0,,,65,64
237580,note_off,140,0,1,,,,,,,,,,,,,,0,,,77,64
237600,note_on,20,0,1,,,,,,,,,,,,,,0,,,77,90
237600,note_on,0,0,2,,,,,,,,,,,,,,1,,,62,90
237600,note_on,396,0,2,,,,,,,,,,,,,,1,,,50,90
237600,note_on,0,0,1,,,,,,,,,,,,,,0,,,65,90
237600,note_on,36960,0,4,,,,,,,,,,,,,,3,,,77,90
237740,note_off,0,0,1,,,,,,,,,,,,,,0,,,65,64
237740,note_off,140,0,1,,,,,,,,,,,,,,0,,,77,64
237760,note_on,20,0,1,,,,,,,,,,,,,,0,,,65,90
237760,note_on,0,0,1,,,,,,,,,,,,,,0,,,77,90
237900,note_off,140,0,1,,,,,,,,,,,,,,0,,,65,64
237900,note_off,0,0,1,,,,,,,,,,,,,,0,,,77,64
237920,note_on,20,0,1,,,,,,,,,,,,,,0,,,77,90
237920,note_on,0,0,1,,,,,,,,,,,,,,0,,,65,90
238060,note_off,140,0,1,,,,,,,,,,,,,,0,,,77,64
238060,note_off,0,0,1,,,,,,,,,,,,,,0,,,65,64
238080,note_on,0,0,1,,,,,,,,,,,,,,0,,,65,90
238080,note_on,20,0,1,,,,,,,,,,,,,,0,,,77,90
238080,note_on,0,0,4,,,,,,,,,,,,,,3,,,78,90
238080,note_off,0,0,2,,,,,,,,,,,,,,1,,,62,64
238080,note_on,0,0,2,,,,,,,,,,,,,,1,,,51,90
238080,note_off,480,0,4,,,,,,,,,,,,,,3,,,77,64
238080,note_on,0,0,2,,,,,,,,,,,,,,1,,,63,90
238080,note_off,480,0,2,,,,,,,,,,,,,,1,,,50,64
238220,note_off,140,0,1,,,,,,,,,,,,,,0,,,77,64
238220,note_off,0,0,1,,,,,,,,,,,,,,0,,,65,64
238240,note_on,20,0,1,,,,,,,,,,,,,,0,,,65,90
238240,note_on,0,0,1,,,,,,,,,,,,,,0,,,77,90
238380,note_off,140,0,1,,,,,,,,,,,,,,0,,,65,64
238380,note_off,0,0,1,,,,,,,,,,,,,,0,,,77,64
238400,note_on,20,0,1,,,,,,,,,,,,,,0,,,77,90
238400,note_on,0,0,1,,,,,,,,,,,,,,0,,,65,90
238540,note_off,140,0,1,,,,,,,,,,,,,,0,,,77,64
238540,note_off,0,0,1,,,,,,,,,,,,,,0,,,65,64
238560,note_on,20,0,1,,,,,,,,,,,,,,0,,,65,90
238560,note_on,0,0,1,,,,,,,,,,,,,,0,,,77,90
238700,note_off,140,0,1,,,,,,,,,,,,,,0,,,65,64
238700,note_off,0,0,1,,,,,,,,,,,,,,0,,,77,64
238720,note_on,0,0,1,,,,,,,,,,,,,,0,,,65,90
238720,note_on,20,0,1,,,,,,,,,,,,,,0,,,77,90
238860,note_off,0,0,1,,,,,,,,,,,,,,0,,,65,64
238860,note_off,140,0,1,,,,,,,,,,,,,,0,,,77,64
238880,note_on,0,0,1,,,,,,,,,,,,,,0,,,65,90
238880,note_on,20,0,1,,,,,,,,,,,,,,0,,,77,90
239020,note_off,0,0,1,,,,,,,,,,,,,,0,,,65,64
239020,note_off,140,0,1,,,,,,,,,,,,,,0,,,77,64
239040,note_on,0,0,4,,,,,,,,,,,,,,3,,,78,90
239040,note_off,960,0,4,,,,,,,,,,,,,,3,,,78,64
239040,note_on,0,0,1,,,,,,,,,,,,,,0,,,77,90
239040,note_off,960,0,2,,,,,,,,,,,,,,1,,,51,64
239040,note_off,0,0,2,,,,,,,,,,,,,,1,,,63,64
239040,note_on,0,0,2,,,,,,,,,,,,,,1,,,48,90
239040,note_on,0,0,2,,,,,,,,,,,,,,1,,,60,90
239040,note_on,20,0,1,,,,,,,,,,,,,,0,,,65,90
239180,note_off,0,0,1,,,,,,,,,,,,,,0,,,77,64
239180,note_off,140,0,1,,,,,,,,,,,,,,0,,,65,64
239200,note_on,0,0,1,,,,,,,,,,,,,,0,,,65,90
239200,note_on,20,0,1,,,,,,,,,,,,,,0,,,77,90
239340,note_off,140,0,1,,,,,,,,,,,,,,0,,,77,64
239340,note_off,0,0,1,,,,,,,,,,,,,,0,,,65,64
239360,note_on,20,0,1,,,,,,,,,,,,,,0,,,77,90
239360,note_on,0,0,1,,,,,,,,,,,,,,0,,,65,90
239500,note_off,140,0,1,,,,,,,,,,,,,,0,,,77,64
239500,note_off,0,0,1,,,,,,,,,,,,,,0,,,65,64
239520,note_on,20,0,1,,,,,,,,,,,,,,0,,,65,90
239520,note_on,0,0,1,,,,,,,,,,,,,,0,,,77,90
239660,note_off,140,0,1,,,,,,,,,,,,,,0,,,65,64
239660,note_off,0,0,1,,,,,,,,,,,,,,0,,,77,64
239680,note_on,0,0,1,,,,,,,,,,,,,,0,,,65,90
239680,note_on,20,0,1,,,,,,,,,,,,,,0,,,77,90
239760,note_off,720,0,4,,,,,,,,,,,,,,3,,,78,64
239760,note_on,0,0,4,,,,,,,,,,,,,,3,,,78,90
239820,note_off,140,0,1,,,,,,,,,,,,,,0,,,77,64
239820,note_off,0,0,1,,,,,,,,,,,,,,0,,,65,64
239840,note_on,20,0,1,,,,,,,,,,,,,,0,,,77,90
239840,note_on,0,0,1,,,,,,,,,,,,,,0,,,65,90
239980,note_off,0,0,1,,,,,,,,,,,,,,0,,,65,64
239980,note_off,140,0,1,,,,,,,,,,,,,,0,,,77,64
240000,note_on,0,0,2,,,,,,,,,,,,,,1,,,57,90
240000,note_on,0,0,2,,,,,,,,,,,,,,1,,,45,90
240000,note_off,0,0,2,,,,,,,,,,,,,,1,,,60,64
240000,note_off,960,0,2,,,,,,,,,,,,,,1,,,48,64
240000,note_on,0,0,1,,,,,,,,,,,,,,0,,,65,90
240000,note_on,20,0,1,,,,,,,,,,,,,,0,,,77,90
240000,note_off,240,0,4,,,,,,,,,,,,,,3,,,78,64
240000,note_on,0,0,4,,,,,,,,,,,,,,3,,,78,90
240140,note_off,0,0,1,,,,,,,,,,,,,,0,,,65,64
240140,note_off,140,0,1,,,,,,,,,,,,,,0,,,77,64
240160,note_on,0,0,1,,,,,,,,,,,,,,0,,,77,90
240160,note_on,20,0,1,,,,,,,,,,,,,,0,,,65,90
240240,note_off,240,0,4,,,,,,,,,,,,,,3,,,78,64
240240,note_on,0,0,4,,,,,,,,,,,,,,3,,,77,90
240300,note_off,140,0,1,,,,,,,,,,,,,,0,,,65,64
240300,note_off,0,0,1,,,,,,,,,,,,,,0,,,77,64
240320,note_on,0,0,1,,,,,,,,,,,,,,0,,,65,90
240320,note_on,20,0,1,,,,,,,,,,,,,,0,,,77,90
240460,note_off,0,0,1,,,,,,,,,,,,,,0,,,65,64
240460,note_off,140,0,1,,,,,,,,,,,,,,0,,,77,64
240480,note_on,0,0,1,,,,,,,,,,,,,,0,,,77,90
240480,note_on,20,0,1,,,,,,,,,,,,,,0,,,65,90
240480,note_on,0,0,4,,,,,,,,,,,,,,3,,,77,90
240480,note_off,240,0,4,,,,,,,,,,,,,,3,,,77,64
240620,note_off,140,0,1,,,,,,,,,,,,,,0,,,65,64
240620,note_off,0,0,1,,,,,,,,,,,,,,0,,,77,64
240640,note_on,20,0,1,,,,,,,,,,,,,,0,,,77,90
240640,note_on,0,0,1,,,,,,,,,,,,,,0,,,65,90
240780,note_off,0,0,1,,,,,,,,,,,,,,0,,,65,64
240780,note_off,140,0,1,,,,,,,,,,,,,,0,,,77,64
240800,note_on,0,0,1,,,,,,,,,,,,,,0,,,65,90
240800,note_on,20,0,1,,,,,,,,,,,,,,0,,,77,90
240940,note_off,140,0,1,,,,,,,,,,,,,,0,,,77,64
240940,note_off,0,0,1,,,,,,,,,,,,,,0,,,65,64
240960,note_off,960,0,2,,,,,,,,,,,,,,1,,,45,64
240960,note_off,0,0,2,,,,,,,,,,,,,,1,,,57,64
240960,note_on,20,0,1,,,,,,,,,,,,,,0,,,65,90
240960,note_on,0,0,1,,,,,,,,,,,,,,0,,,77,90
240960,note_off,480,0,4,,,,,,,,,,,,,,3,,,77,64
241100,note_off,140,0,1,,,,,,,,,,,,,,0,,,65,64
241100,note_off,0,0,1,,,,,,,,,,,,,,0,,,77,64
241120,note_on,20,0,1,,,,,,,,,,,,,,0,,,77,90
241120,note_on,0,0,1,,,,,,,,,,,,,,0,,,65,90
241260,note_off,0,0,1,,,,,,,,,,,,,,0,,,65,64
241260,note_off,140,0,1,,,,,,,,,,,,,,0,,,77,64
241280,note_on,20,0,1,,,,,,,,,,,,,,0,,,77,90
241280,note_on,0,0,1,,,,,,,,,,,,,,0,,,65,90
241420,note_off,140,0,1,,,,,,,,,,,,,,0,,,77,64
241420,note_off,0,0,1,,,,,,,,,,,,,,0,,,65,64
241440,note_on,480,0,2,,,,,,,,,,,,,,1,,,62,90
241440,note_on,0,0,2,,,,,,,,,,,,,,1,,,50,90
241440,note_on,480,0,4,,,,,,,,,,,,,,3,,,77,90
241440,note_on,0,0,1,,,,,,,,,,,,,,0,,,77,90
241440,note_on,20,0,1,,,,,,,,,,,,,,0,,,65,90
241580,note_off,0,0,1,,,,,,,,,,,,,,0,,,77,64
241580,note_off,140,0,1,,,,,,,,,,,,,,0,,,65,64
241600,note_on,20,0,1,,,,,,,,,,,,,,0,,,77,90
241600,note_on,0,0,1,,,,,,,,,,,,,,0,,,65,90
241740,note_off,140,0,1,,,,,,,,,,,,,,0,,,77,64
241740,note_off,0,0,1,,,,,,,,,,,,,,0,,,65,64
241760,note_on,20,0,1,,,,,,,,,,,,,,0,,,77,90
241760,note_on,0,0,1,,,,,,,,,,,,,,0,,,65,90
241900,note_off,140,0,1,,,,,,,,,,,,,,0,,,77,64
241900,note_off,0,0,1,,,,,,,,,,,,,,0,,,65,64
241920,note_on,0,0,4,,,,,,,,,,,,,,3,,,78,90
241920,note_off,480,0,2,,,,,,,,,,,,,,1,,,62,64
241920,note_off,0,0,2,,,,,,,,,,,,,,1,,,50,64
241920,note_on,0,0,2,,,,,,,,,,,,,,1,,,51,90
241920,note_on,0,0,2,,,,,,,,,,,,,,1,,,63,90
241920,note_off,480,0,4,,,,,,,,,,,,,,3,,,77,64
241920,note_on,0,0,1,,,,,,,,,,,,,,0,,,65,90
241920,note_on,20,0,1,,,,,,,,,,,,,,0,,,77,90
242060,note_off,0,0,1,,,,,,,,,,,,,,0,,,65,64
242060,note_off,140,0,1,,,,,,,,,,,,,,0,,,77,64
242080,note_on,0,0,1,,,,,,,,,,,,,,0,,,77,90
242080,note_on,20,0,1,,,,,,,,,,,,,,0,,,65,90
242220,note_off,0,0,1,,,,,,,,,,,,,,0,,,77,64
242220,note_off,140,0,1,,,,,,,,,,,,,,0,,,65,64
242240,note_on,20,0,1,,,,,,,,,,,,,,0,,,77,90
242240,note_on,0,0,1,,,,,,,,,,,,,,0,,,65,90
242380,note_off,140,0,1,,,,,,,,,,,,,,0,,,77,64
242380,note_off,0,0,1,,,,,,,,,,,,,,0,,,65,64
242400,note_on,0,0,1,,,,,,,,,,,,,,0,,,77,90
242400,note_on,20,0,1,,,,,,,,,,,,,,0,,,65,90
242540,note_off,0,0,1,,,,,,,,,,,,,,0,,,77,64
242540,note_off,140,0,1,,,,,,,,,,,,,,0,,,65,64
242560,note_on,0,0,1,,,,,,,,,,,,,,0,,,65,90
242560,note_on,20,0,1,,,,,,,,,,,,,,0,,,77,90
242700,note_off,140,0,1,,,,,,,,,,,,,,0,,,77,64
242700,note_off,0,0,1,,,,,,,,,,,,,,0,,,65,64
242720,note_on,20,0,1,,,,,,,,,,,,,,0,,,77,90
242720,note_on,0,0,1,,,,,,,,,,,,,,0,,,65,90
242860,note_off,140,0,1,,,,,,,,,,,,,,0,,,77,64
242860,note_off,0,0,1,,,,,,,,,,,,,,0,,,65,64
242873,note_off,953,0,4,,,,,,,,,,,,,,3,,,78,64
242880,note_off,0,0,2,,,,,,,,,,,,,,1,,,63,64
242880,note_on,7,0,4,,,,,,,,,,,,,,3,,,78,90
242880,note_on,0,0,2,,,,,,,,,,,,,,1,,,48,90
242880,note_off,960,0,2,,,,,,,,,,,,,,1,,,51,64
242880,note_on,0,0,2,,,,,,,,,,,,,,1,,,60,90
242880,note_on,0,0,1,,,,,,,,,,,,,,0,,,77,90
242880,note_on,20,0,1,,,,,,,,,,,,,,0,,,65,90
243020,note_off,140,0,1,,,,,,,,,,,,,,0,,,65,64
243020,note_off,0,0,1,,,,,,,,,,,,,,0,,,77,64
243040,note_on,20,0,1,,,,,,,,,,,,,,0,,,77,90
243040,note_on,0,0,1,,,,,,,,,,,,,,0,,,65,90
243180,note_off,140,0,1,,,,,,,,,,,,,,0,,,77,64
243180,note_off,0,0,1,,,,,,,,,,,,,,0,,,65,64
243200,note_on,20,0,1,,,,,,,,,,,,,,0,,,77,90
243200,note_on,0,0,1,,,,,,,,,,,,,,0,,,65,90
243340,note_off,0,0,1,,,,,,,,,,,,,,0,,,65,64
243340,note_off,140,0,1,,,,,,,,,,,,,,0,,,77,64
243360,note_on,0,0,1,,,,,,,,,,,,,,0,,,77,90
243360,note_on,20,0,1,,,,,,,,,,,,,,0,,,65,90
243500,note_off,0,0,1,,,,,,,,,,,,,,0,,,77,64
243500,note_off,140,0,1,,,,,,,,,,,,,,0,,,65,64
243520,note_on,0,0,1,,,,,,,,,,,,,,0,,,65,90
243520,note_on,20,0,1,,,,,,,,,,,,,,0,,,77,90
243600,note_on,0,0,4,,,,,,,,,,,,,,3,,,78,90
243600,note_off,720,0,4,,,,,,,,,,,,,,3,,,78,64
243660,note_off,0,0,1,,,,,,,,,,,,,,0,,,65,64
243660,note_off,140,0,1,,,,,,,,,,,,,,0,,,77,64
243680,note_on,0,0,1,,,,,,,,,,,,,,0,,,65,90
243680,note_on,20,0,1,,,,,,,,,,,,,,0,,,77,90
243820,note_off,0,0,1,,,,,,,,,,,,,,0,,,65,64
243820,note_off,140,0,1,,,,,,,,,,,,,,0,,,77,64
243840,note_on,0,0,2,,,,,,,,,,,,,,1,,,57,90
243840,note_on,0,0,2,,,,,,,,,,,,,,1,,,45,90
243840,note_off,0,0,2,,,,,,,,,,,,,,1,,,60,64
243840,note_off,960,0,2,,,,,,,,,,,,,,1,,,48,64
243840,note_on,20,0,1,,,,,,,,,,,,,,0,,,77,90
243840,note_on,0,0,1,,,,,,,,,,,,,,0,,,65,90
243840,note_off,240,0,4,,,,,,,,,,,,,,3,,,78,64
243840,note_on,0,0,4,,,,,,,,,,,,,,3,,,77,90
243980,note_off,140,0,1,,,,,,,,,,,,,,0,,,77,64
243980,note_off,0,0,1,,,,,,,,,,,,,,0,,,65,64
244000,note_on,20,0,1,,,,,,,,,,,,,,0,,,65,90
244000,note_on,0,0,1,,,,,,,,,,,,,,0,,,77,90
244140,note_off,140,0,1,,,,,,,,,,,,,,0,,,65,64
244140,note_off,0,0,1,,,,,,,,,,,,,,0,,,77,64
244160,note_on,20,0,1,,,,,,,,,,,,,,0,,,77,90
244160,note_on,0,0,1,,,,,,,,,,,,,,0,,,65,90
244300,note_off,140,0,1,,,,,,,,,,,,,,0,,,77,64
244300,note_off,0,0,1,,,,,,,,,,,,,,0,,,65,64
244320,note_on,0,0,1,,,,,,,,,,,,,,0,,,77,90
244320,note_on,20,0,1,,,,,,,,,,,,,,0,,,65,90
244460,note_off,140,0,1,,,,,,,,,,,,,,0,,,65,64
244460,note_off,0,0,1,,,,,,,,,,,,,,0,,,77,64
244480,note_on,20,0,1,,,,,,,,,,,,,,0,,,77,90
244480,note_on,0,0,1,,,,,,,,,,,,,,0,,,65,90
244620,note_off,140,0,1,,,,,,,,,,,,,,0,,,77,64
244620,note_off,0,0,1,,,,,,,,,,,,,,0,,,65,64
244640,note_on,20,0,1,,,,,,,,,,,,,,0,,,77,90
244640,note_on,0,0,1,,,,,,,,,,,,,,0,,,65,90
244780,note_off,0,0,1,,,,,,,,,,,,,,0,,,65,64
244780,note_off,140,0,1,,,,,,,,,,,,,,0,,,77,64
244800,note_off,960,0,2,,,,,,,,,,,,,,1,,,45,64
244800,note_off,0,0,2,,,,,,,,,,,,,,1,,,57,64
244800,note_on,20,0,1,,,,,,,,,,,,,,0,,,65,90
244800,note_on,0,0,1,,,,,,,,,,,,,,0,,,77,90
244800,note_off,960,0,4,,,,,,,,,,,,,,3,,,77,64
244940,note_off,140,0,1,,,,,,,,,,,,,,0,,,65,64
244940,note_off,0,0,1,,,,,,,,,,,,,,0,,,77,64
244960,note_on,20,0,1,,,,,,,,,,,,,,0,,,77,90
244960,note_on,0,0,1,,,,,,,,,,,,,,0,,,65,90
245100,note_off,140,0,1,,,,,,,,,,,,,,0,,,77,64
245100,note_off,0,0,1,,,,,,,,,,,,,,0,,,65,64
245120,note_on,0,0,1,,,,,,,,,,,,,,0,,,65,90
245120,note_on,20,0,1,,,,,,,,,,,,,,0,,,77,90
245260,note_off,140,0,1,,,,,,,,,,,,,,0,,,77,64
245260,note_off,0,0,1,,,,,,,,,,,,,,0,,,65,64
245280,note_on,0,0,1,,,,,,,,,,,,,,0,,,77,90
245280,note_on,20,0,1,,,,,,,,,,,,,,0,,,65,90
245420,note_off,0,0,1,,,,,,,,,,,,,,0,,,77,64
245420,note_off,140,0,1,,,,,,,,,,,,,,0,,,65,64
245440,note_on,20,0,1,,,,,,,,,,,,,,0,,,77,90
245440,note_on,0,0,1,,,,,,,,,,,,,,0,,,65,90
245580,note_off,140,0,1,,,,,,,,,,,,,,0,,,77,64
245580,note_off,0,0,1,,,,,,,,,,,,,,0,,,65,64
245600,note_on,20,0,1,,,,,,,,,,,,,,0,,,77,90
245600,note_on,0,0,1,,,,,,,,,,,,,,0,,,65,90
245740,note_off,0,0,1,,,,,,,,,,,,,,0,,,65,64
245740,note_off,140,0,1,,,,,,,,,,,,,,0,,,77,64
245760,note_on,0,0,2,,,,,,,,,,,,,,1,,,59,90
245760,note_on,960,0,2,,,,,,,,,,,,,,1,,,62,90
245760,note_on,960,0,4,,,,,,,,,,,,,,3,,,77,90
245760,note_on,0,0,1,,,,,,,,,,,,,,0,,,65,90
245760,note_on,20,0,1,,,,,,,,,,,,,,0,,,77,90
245900,note_off,140,0,1,,,,,,,,,,,,,,0,,,77,64
245900,note_off,0,0,1,,,,,,,,,,,,,,0,,,65,64
245920,note_on,0,0,1,,,,,,,,,,,,,,0,,,77,90
245920,note_on,20,0,1,,,,,,,,,,,,,,0,,,65,90
246060,note_off,0,0,1,,,,,,,,,,,,,,0,,,77,64
246060,note_off,140,0,1,,,,,,,,,,,,,,0,,,65,64
246080,note_on,0,0,1,,,,,,,,,,,,,,0,,,65,90
246080,note_on,20,0,1,,,,,,,,,,,,,,0,,,77,90
246220,note_off,0,0,1,,,,,,,,,,,,,,0,,,65,64
246220,note_off,140,0,1,,,,,,,,,,,,,,0,,,77,64
246240,note_on,0,0,1,,,,,,,,,,,,,,0,,,77,90
246240,note_on,20,0,1,,,,,,,,,,,,,,0,,,65,90
246380,note_off,0,0,1,,,,,,,,,,,,,,0,,,77,64
246380,note_off,140,0,1,,,,,,,,,,,,,,0,,,65,64
246400,note_on,20,0,1,,,,,,,,,,,,,,0,,,77,90
246400,note_on,0,0,1,,,,,,,,,,,,,,0,,,65,90
246540,note_off,140,0,1,,,,,,,,,,,,,,0,,,77,64
246540,note_off,0,0,1,,,,,,,,,,,,,,0,,,65,64
246560,note_on,20,0,1,,,,,,,,,,,,,,0,,,77,90
246560,note_on,0,0,1,,,,,,,,,,,,,,0,,,65,90
246700,note_off,140,0,1,,,,,,,,,,,,,,0,,,77,64
246700,note_off,0,0,1,,,,,,,,,,,,,,0,,,65,64
246720,note_off,0,0,2,,,,,,,,,,,,,,1,,,59,64
246720,note_off,960,0,4,,,,,,,,,,,,,,3,,,77,64
246720,note_on,0,0,1,,,,,,,,,,,,,,0,,,78,90
246720,note_off,960,0,2,,,,,,,,,,,,,,1,,,62,64
246720,note_on,0,0,2,,,,,,,,,,,,,,1,,,60,90
246720,note_on,20,0,1,,,,,,,,,,,,,,0,,,66,90
246720,note_on,0,0,2,,,,,,,,,,,,,,1,,,62,90
246720,note_on,0,0,4,,,,,,,,,,,,,,3,,,78,90
246860,note_off,0,0,1,,,,,,,,,,,,,,0,,,78,64
246860,note_off,140,0,1,,,,,,,,,,,,,,0,,,66,64
246880,note_on,0,0,1,,,,,,,,,,,,,,0,,,66,90
246880,note_on,20,0,1,,,,,,,,,,,,,,0,,,78,90
247020,note_off,140,0,1,,,,,,,,,,,,,,0,,,78,64
247020,note_off,0,0,1,,,,,,,,,,,,,,0,,,66,64
247040,note_on,0,0,1,,,,,,,,,,,,,,0,,,66,90
247040,note_on,20,0,1,,,,,,,,,,,,,,0,,,78,90
247180,note_off,140,0,1,,,,,,,,,,,,,,0,,,78,64
247180,note_off,0,0,1,,,,,,,,,,,,,,0,,,66,64
247200,note_on,20,0,1,,,,,,,,,,,,,,0,,,66,90
247200,note_on,0,0,1,,,,,,,,,,,,,,0,,,78,90
247340,note_off,140,0,1,,,,,,,,,,,,,,0,,,66,64
247340,note_off,0,0,1,,,,,,,,,,,,,,0,,,78,64
247360,note_on,0,0,1,,,,,,,,,,,,,,0,,,66,90
247360,note_on,20,0,1,,,,,,,,,,,,,,0,,,78,90
247440,note_off,720,0,4,,,,,,,,,,,,,,3,,,78,64
247440,note_on,0,0,4,,,,,,,,,,,,,,3,,,78,90
247500,note_off,140,0,1,,,,,,,,,,,,,,0,,,78,64
247500,note_off,0,0,1,,,,,,,,,,,,,,0,,,66,64
247520,note_on,0,0,1,,,,,,,,,,,,,,0,,,66,90
247520,note_on,20,0,1,,,,,,,,,,,,,,0,,,78,90
247660,note_off,140,0,1,,,,,,,,,,,,,,0,,,78,64
247660,note_off,0,0,1,,,,,,,,,,,,,,0,,,66,64
247680,note_on,0,0,2,,,,,,,,,,,,,,1,,,58,90
247680,note_off,240,0,4,,,,,,,,,,,,,,3,,,78,64
247680,note_on,0,0,4,,,,,,,,,,,,,,3,,,79,90
247680,note_off,0,0,2,,,,,,,,,,,,,,1,,,62,64
247680,note_off,960,0,2,,,,,,,,,,,,,,1,,,60,64
247680,note_on,20,0,1,,,,,,,,,,,,,,0,,,79,90
247680,note_on,0,0,1,,,,,,,,,,,,,,0,,,67,90
247680,note_on,0,0,2,,,,,,,,,,,,,,1,,,62,90
247820,note_off,0,0,1,,,,,,,,,,,,,,0,,,67,64
247820,note_off,140,0,1,,,,,,,,,,,,,,0,,,79,64
247840,note_on,0,0,1,,,,,,,,,,,,,,0,,,79,90
247840,note_on,20,0,1,,,,,,,,,,,,,,0,,,67,90
247980,note_off,140,0,1,,,,,,,,,,,,,,0,,,67,64
247980,note_off,0,0,1,,,,,,,,,,,,,,0,,,79,64
248000,note_on,20,0,1,,,,,,,,,,,,,,0,,,79,90
248000,note_on,0,0,1,,,,,,,,,,,,,,0,,,67,90
248140,note_off,140,0,1,,,,,,,,,,,,,,0,,,79,64
248140,note_off,0,0,1,,,,,,,,,,,,,,0,,,67,64
248160,note_on,0,0,1,,,,,,,,,,,,,,0,,,79,90
248160,note_on,20,0,1,,,,,,,,,,,,,,0,,,67,90
248300,note_off,140,0,1,,,,,,,,,,,,,,0,,,67,64
248300,note_off,0,0,1,,,,,,,,,,,,,,0,,,79,64
248320,note_on,20,0,1,,,,,,,,,,,,,,0,,,79,90
248320,note_on,0,0,1,,,,,,,,,,,,,,0,,,67,90
248460,note_off,140,0,1,,,,,,,,,,,,,,0,,,79,64
248460,note_off,0,0,1,,,,,,,,,,,,,,0,,,67,64
248480,note_on,20,0,1,,,,,,,,,,,,,,0,,,79,90
248480,note_on,0,0,1,,,,,,,,,,,,,,0,,,67,90
248620,note_off,140,0,1,,,,,,,,,,,,,,0,,,79,64
248620,note_off,0,0,1,,,,,,,,,,,,,,0,,,67,64
248640,note_off,0,0,2,,,,,,,,,,,,,,1,,,62,64
248640,note_off,960,0,4,,,,,,,,,,,,,,3,,,79,64
248640,note_on,20,0,1,,,,,,,,,,,,,,0,,,69,90
248640,note_off,960,0,2,,,,,,,,,,,,,,1,,,58,64
248640,note_on,0,0,1,,,,,,,,,,,,,,0,,,75,90
248640,note_on,0,0,4,,,,,,,,,,,,,,3,,,75,90
248640,note_on,0,0,2,,,,,,,,,,,,,,1,,,60,90
248640,note_on,0,0,2,,,,,,,,,,,,,,1,,,48,90
248640,note_on,0,0,1,,,,,,,,,,,,,,0,,,67,90
248780,note_off,140,0,1,,,,,,,,,,,,,,0,,,69,64
248780,note_off,0,0,1,,,,,,,,,,,,,,0,,,75,64
248780,note_off,0,0,1,,,,,,,,,,,,,,0,,,67,64
248800,note_on,20,0,1,,,,,,,,,,,,,,0,,,75,90
248800,note_on,0,0,1,,,,,,,,,,,,,,0,,,69,90
248800,note_on,0,0,1,,,,,,,,,,,,,,0,,,67,90
248940,note_off,140,0,1,,,,,,,,,,,,,,0,,,75,64
248940,note_off,0,0,1,,,,,,,,,,,,,,0,,,69,64
248940,note_off,0,0,1,,,,,,,,,,,,,,0,,,67,64
248960,note_on,20,0,1,,,,,,,,,,,,,,0,,,75,90
248960,note_on,0,0,1,,,,,,,,,,,,,,0,,,69,90
248960,note_on,0,0,1,,,,,,,,,,,,,,0,,,67,90
249100,note_off,0,0,1,,,,,,,,,,,,,,0,,,69,64
249100,note_off,0,0,1,,,,,,,,,,,,,,0,,,67,64
249100,note_off,140,0,1,,,,,,,,,,,,,,0,,,75,64
249120,note_on,0,0,1,,,,,,,,,,,,,,0,,,67,90
249120,note_on,0,0,1,,,,,,,,,,,,,,0,,,75,90
249120,note_on,20,0,1,,,,,,,,,,,,,,0,,,69,90
249260,note_off,0,0,1,,,,,,,,,,,,,,0,,,67,64
249260,note_off,0,0,1,,,,,,,,,,,,,,0,,,75,64
249260,note_off,140,0,1,,,,,,,,,,,,,,0,,,69,64
249280,note_on,0,0,1,,,,,,,,,,,,,,0,,,69,90
249280,note_on,0,0,1,,,,,,,,,,,,,,0,,,67,90
249280,note_on,20,0,1,,,,,,,,,,,,,,0,,,75,90
249360,note_off,720,0,4,,,,,,,,,,,,,,3,,,75,64
249360,note_on,0,0,4,,,,,,,,,,,,,,3,,,75,90
249420,note_off,140,0,1,,,,,,,,,,,,,,0,,,75,64
249420,note_off,0,0,1,,,,,,,,,,,,,,0,,,69,64
249420,note_off,0,0,1,,,,,,,,,,,,,,0,,,67,64
249440,note_on,20,0,1,,,,,,,,,,,,,,0,,,75,90
249440,note_on,0,0,1,,,,,,,,,,,,,,0,,,69,90
249440,note_on,0,0,1,,,,,,,,,,,,,,0,,,67,90
249580,note_off,140,0,1,,,,,,,,,,,,,,0,,,75,64
249580,note_off,0,0,1,,,,,,,,,,,,,,0,,,69,64
249580,note_off,0,0,1,,,,,,,,,,,,,,0,,,67,64
249600,note_on,0,0,4,,,,,,,,,,,,,,3,,,74,90
249600,note_off,240,0,4,,,,,,,,,,,,,,3,,,75,64
249600,note_on,0,0,2,,,,,,,,,,,,,,1,,,50,90
249600,note_on,0,0,1,,,,,,,,,,,,,,0,,,74,90
249600,note_on,0,0,1,,,,,,,,,,,,,,0,,,67,90
249600,note_on,20,0,1,,,,,,,,,,,,,,0,,,70,90
249600,note_on,0,0,2,,,,,,,,,,,,,,1,,,62,90
249600,note_off,960,0,2,,,,,,,,,,,,,,1,,,60,64
249600,note_off,0,0,2,,,,,,,,,,,,,,1,,,48,64
249740,note_off,140,0,1,,,,,,,,,,,,,,0,,,70,64
249740,note_off,0,0,1,,,,,,,,,,,,,,0,,,67,64
249740,note_off,0,0,1,,,,,,,,,,,,,,0,,,74,64
249760,note_on,0,0,1,,,,,,,,,,,,,,0,,,70,90
249760,note_on,20,0,1,,,,,,,,,,,,,,0,,,67,90
249760,note_on,0,0,1,,,,,,,,,,,,,,0,,,74,90
249900,note_off,140,0,1,,,,,,,,,,,,,,0,,,67,64
249900,note_off,0,0,1,,,,,,,,,,,,,,0,,,74,64
249900,note_off,0,0,1,,,,,,,,,,,,,,0,,,70,64
249920,note_on,0,0,1,,,,,,,,,,,,,,0,,,74,90
249920,note_on,0,0,1,,,,,,,,,,,,,,0,,,67,90
249920,note_on,20,0,1,,,,,,,,,,,,,,0,,,70,90
250060,note_off,0,0,1,,,,,,,,,,,,,,0,,,74,64
250060,note_off,0,0,1,,,,,,,,,,,,,,0,,,67,64
250060,note_off,140,0,1,,,,,,,,,,,,,,0,,,70,64
250080,note_on,0,0,1,,,,,,,,,,,,,,0,,,74,90
250080,note_on,0,0,1,,,,,,,,,,,,,,0,,,70,90
250080,note_on,20,0,1,,,,,,,,,,,,,,0,,,67,90
250220,note_off,0,0,1,,,,,,,,,,,,,,0,,,74,64
250220,note_off,0,0,1,,,,,,,,,,,,,,0,,,70,64
250220,note_off,140,0,1,,,,,,,,,,,,,,0,,,67,64
250240,note_on,0,0,1,,,,,,,,,,,,,,0,,,74,90
250240,note_on,20,0,1,,,,,,,,,,,,,,0,,,70,90
250240,note_on,0,0,1,,,,,,,,,,,,,,0,,,67,90
250380,note_off,0,0,1,,,,,,,,,,,,,,0,,,67,64
250380,note_off,140,0,1,,,,,,,,,,,,,,0,,,70,64
250380,note_off,0,0,1,,,,,,,,,,,,,,0,,,74,64
250400,note_on,20,0,1,,,,,,,,,,,,,,0,,,70,90
250400,note_on,0,0,1,,,,,,,,,,,,,,0,,,67,90
250400,note_on,0,0,1,,,,,,,,,,,,,,0,,,74,90
250540,note_off,140,0,1,,,,,,,,,,,,,,0,,,70,64
250540,note_off,0,0,1,,,,,,,,,,,,,,0,,,67,64
250540,note_off,0,0,1,,,,,,,,,,,,,,0,,,74,64
250560,note_on,0,0,1,,,,,,,,,,,,,,0,,,74,90
250560,note_off,960,0,2,,,,,,,,,,,,,,1,,,50,64
250560,note_off,0,0,2,,,,,,,,,,,,,,1,,,62,64
250560,note_on,0,0,1,,,,,,,,,,,,,,0,,,69,90
250560,note_on,0,0,2,,,,,,,,,,,,,,1,,,50,90
250560,note_on,20,0,1,,,,,,,,,,,,,,0,,,66,90
250560,note_on,0,0,2,,,,,,,,,,,,,,1,,,62,90
250700,note_off,140,0,1,,,,,,,,,,,,,,0,,,66,64
250700,note_off,0,0,1,,,,,,,,,,,,,,0,,,69,64
250700,note_off,0,0,1,,,,,,,,,,,,,,0,,,74,64
250720,note_on,20,0,1,,,,,,,,,,,,,,0,,,69,90
250720,note_on,0,0,1,,,,,,,,,,,,,,0,,,74,90
250720,note_on,0,0,1,,,,,,,,,,,,,,0,,,66,90
250860,note_off,140,0,1,,,,,,,,,,,,,,0,,,69,64
250860,note_off,0,0,1,,,,,,,,,,,,,,0,,,66,64
250860,note_off,0,0,1,,,,,,,,,,,,,,0,,,74,64
250880,note_on,20,0,1,,,,,,,,,,,,,,0,,,69,90
250880,note_on,0,0,1,,,,,,,,,,,,,,0,,,66,90
250880,note_on,0,0,1,,,,,,,,,,,,,,0,,,74,90
251020,note_off,0,0,1,,,,,,,,,,,,,,0,,,66,64
251020,note_off,140,0,1,,,,,,,,,,,,,,0,,,69,64
251020,note_off,0,0,1,,,,,,,,,,,,,,0,,,74,64
251040,note_on,20,0,1,,,,,,,,,,,,,,0,,,66,90
251040,note_off,1440,0,4,,,,,,,,,,,,,,3,,,74,64
251040,note_on,0,0,1,,,,,,,,,,,,,,0,,,74,90
251040,note_on,0,0,4,,,,,,,,,,,,,,3,,,74,90
251040,note_on,0,0,1,,,,,,,,,,,,,,0,,,69,90
251180,note_off,0,0,1,,,,,,,,,,,,,,0,,,74,64
251180,note_off,0,0,1,,,,,,,,,,,,,,0,,,69,64
251180,note_off,140,0,1,,,,,,,,,,,,,,0,,,66,64
251200,note_on,0,0,1,,,,,,,,,,,,,,0,,,74,90
251200,note_on,0,0,1,,,,,,,,,,,,,,0,,,66,90
251200,note_on,20,0,1,,,,,,,,,,,,,,0,,,69,90
251340,note_off,0,0,1,,,,,,,,,,,,,,0,,,74,64
251340,note_off,140,0,1,,,,,,,,,,,,,,0,,,69,64
251340,note_off,0,0,1,,,,,,,,,,,,,,0,,,66,64
251360,note_on,0,0,1,,,,,,,,,,,,,,0,,,66,90
251360,note_on,20,0,1,,,,,,,,,,,,,,0,,,69,90
251360,note_on,0,0,1,,,,,,,,,,,,,,0,,,74,90
251500,note_off,140,0,1,,,,,,,,,,,,,,0,,,69,64
251500,note_off,0,0,1,,,,,,,,,,,,,,0,,,66,64
251500,note_off,0,0,1,,,,,,,,,,,,,,0,,,74,64
251515,note_on,15,0,1,,,,,,,,,,,,,,0,,,67,90
251515,note_on,0,0,1,,,,,,,,,,,,,,0,,,55,90
251515,note_on,955,0,2,,,,,,,,,,,,,,1,,,43,90
251520,note_on,0,0,4,,,,,,,,,,,,,,3,,,67,90
251520,note_off,5,0,2,,,,,,,,,,,,,,1,,,50,64
251520,note_off,480,0,4,,,,,,,,,,,,,,3,,,74,64
251520,note_off,0,0,2,,,,,,,,,,,,,,1,,,62,64
251655,note_off,135,0,2,,,,,,,,,,,,,,1,,,43,64
251655,note_off,140,0,1,,,,,,,,,,,,,,0,,,67,64
251655,note_off,0,0,1,,,,,,,,,,,,,,0,,,55,64
251675,note_on,20,0,2,,,,,,,,,,,,,,1,,,43,90
251675,note_on,0,0,1,,,,,,,,,,,,,,0,,,67,90
251675,note_on,20,0,1,,,,,,,,,,,,,,0,,,55,90
251815,note_off,140,0,2,,,,,,,,,,,,,,1,,,43,64
251815,note_off,140,0,1,,,,,,,,,,,,,,0,,,55,64
251815,note_off,0,0,1,,,,,,,,,,,,,,0,,,67,64
251835,note_on,20,0,1,,,,,,,,,,,,,,0,,,67,90
251835,note_on,20,0,2,,,,,,,,,,,,,,1,,,43,90
251835,note_on,0,0,1,,,,,,,,,,,,,,0,,,55,90
251975,note_off,140,0,2,,,,,,,,,,,,,,1,,,43,64
251975,note_off,140,0,1,,,,,,,,,,,,,,0,,,67,64
251975,note_off,0,0,1,,,,,,,,,,,,,,0,,,55,64
251995,note_on,20,0,1,,,,,,,,,,,,,,0,,,55,90
251995,note_on,20,0,2,,,,,,,,,,,,,,1,,,43,90
251995,note_on,0,0,1,,,,,,,,,,,,,,0,,,67,90
252135,note_off,0,0,1,,,,,,,,,,,,,,0,,,67,64
252135,note_off,140,0,2,,,,,,,,,,,,,,1,,,43,64
252135,note_off,140,0,1,,,,,,,,,,,,,,0,,,55,64
252155,note_on,20,0,1,,,,,,,,,,,,,,0,,,67,90
252155,note_on,20,0,2,,,,,,,,,,,,,,1,,,43,90
252155,note_on,0,0,1,,,,,,,,,,,,,,0,,,55,90
252295,note_off,0,0,1,,,,,,,,,,,,,,0,,,55,64
252295,note_off,140,0,1,,,,,,,,,,,,,,0,,,67,64
252295,note_off,140,0,2,,,,,,,,,,,,,,1,,,43,64
252315,note_on,20,0,2,,,,,,,,,,,,,,1,,,43,90
252315,note_on,0,0,1,,,,,,,,,,,,,,0,,,55,90
252315,note_on,20,0,1,,,,,,,,,,,,,,0,,,67,90
252455,note_off,140,0,2,,,,,,,,,,,,,,1,,,43,64
252455,note_off,0,0,1,,,,,,,,,,,,,,0,,,55,64
252455,note_off,140,0,1,,,,,,,,,,,,,,0,,,67,64
252475,note_on,20,0,1,,,,,,,,,,,,,,0,,,55,90
252475,note_on,20,0,2,,,,,,,,,,,,,,1,,,43,90
252475,note_on,0,0,1,,,,,,,,,,,,,,0,,,67,90
252480,note_off,960,0,4,,,,,,,,,,,,,,3,,,67,64
252615,note_off,140,0,2,,,,,,,,,,,,,,1,,,43,64
252615,note_off,0,0,1,,,,,,,,,,,,,,0,,,67,64
252615,note_off,140,0,1,,,,,,,,,,,,,,0,,,55,64
252635,note_on,20,0,2,,,,,,,,,,,,,,1,,,43,90
252635,note_on,20,0,1,,,,,,,,,,,,,,0,,,67,90
252635,note_on,0,0,1,,,,,,,,,,,,,,0,,,55,90
252775,note_off,140,0,2,,,,,,,,,,,,,,1,,,43,64
252775,note_off,140,0,1,,,,,,,,,,,,,,0,,,67,64
252775,note_off,0,0,1,,,,,,,,,,,,,,0,,,55,64
252795,note_on,0,0,1,,,,,,,,,,,,,,0,,,55,90
252795,note_on,20,0,2,,,,,,,,,,,,,,1,,,43,90
252795,note_on,20,0,1,,,,,,,,,,,,,,0,,,67,90
252935,note_off,0,0,1,,,,,,,,,,,,,,0,,,55,64
252935,note_off,140,0,2,,,,,,,,,,,,,,1,,,43,64
252935,note_off,140,0,1,,,,,,,,,,,,,,0,,,67,64
252955,note_on,20,0,2,,,,,,,,,,,,,,1,,,43,90
252955,note_on,20,0,1,,,,,,,,,,,,,,0,,,55,90
252955,note_on,0,0,1,,,,,,,,,,,,,,0,,,67,90
253095,note_off,0,0,1,,,,,,,,,,,,,,0,,,67,64
253095,note_off,140,0,1,,,,,,,,,,,,,,0,,,55,64
253095,note_off,140,0,2,,,,,,,,,,,,,,1,,,43,64
253115,note_on,20,0,1,,,,,,,,,,,,,,0,,,67,90
253115,note_on,0,0,1,,,,,,,,,,,,,,0,,,55,90
253115,note_on,20,0,2,,,,,,,,,,,,,,1,,,43,90
253176,control_change,37176,0,3,,,,,,,,,,,,,,2,11,122,,
253255,note_off,140,0,2,,,,,,,,,,,,,,1,,,43,64
253255,note_off,140,0,1,,,,,,,,,,,,,,0,,,67,64
253255,note_off,0,0,1,,,,,,,,,,,,,,0,,,55,64
253275,note_on,20,0,1,,,,,,,,,,,,,,0,,,67,90
253275,note_on,20,0,2,,,,,,,,,,,,,,1,,,43,90
253275,note_on,0,0,1,,,,,,,,,,,,,,0,,,55,90
253415,note_off,140,0,2,,,,,,,,,,,,,,1,,,43,64
253415,note_off,0,0,1,,,,,,,,,,,,,,0,,,55,64
253415,note_off,140,0,1,,,,,,,,,,,,,,0,,,67,64
253440,note_on,0,0,1,,,,,,,,,,,,,,0,,,55,90
253440,note_on,25,0,2,,,,,,,,,,,,,,1,,,43,90
253440,note_on,25,0,1,,,,,,,,,,,,,,0,,,67,90
253580,note_off,140,0,1,,,,,,,,,,,,,,0,,,67,64
253580,note_off,0,0,1,,,,,,,,,,,,,,0,,,55,64
253600,note_on,20,0,1,,,,,,,,,,,,,,0,,,55,90
253600,note_on,0,0,2,,,,,,,,,,,,,,1,,,45,90
253600,note_off,160,0,2,,,,,,,,,,,,,,1,,,43,64
253600,note_on,0,0,1,,,,,,,,,,,,,,0,,,67,90
253740,note_off,0,0,1,,,,,,,,,,,,,,0,,,67,64
253740,note_off,140,0,1,,,,,,,,,,,,,,0,,,55,64
253760,note_on,0,0,1,,,,,,,,,,,,,,0,,,55,90
253760,note_on,20,0,1,,,,,,,,,,,,,,0,,,67,90
253760,note_off,160,0,2,,,,,,,,,,,,,,1,,,45,64
253760,note_on,0,0,2,,,,,,,,,,,,,,1,,,46,90
253900,note_off,140,0,1,,,,,,,,,,,,,,0,,,67,64
253900,note_off,0,0,1,,,,,,,,,,,,,,0,,,55,64
253920,note_on,20,0,1,,,,,,,,,,,,,,0,,,55,90
253920,note_off,160,0,2,,,,,,,,,,,,,,1,,,46,64
253920,note_on,0,0,2,,,,,,,,,,,,,,1,,,48,90
253920,note_on,0,0,1,,,,,,,,,,,,,,0,,,67,90
254060,note_off,0,0,1,,,,,,,,,,,,,,0,,,67,64
254060,note_off,140,0,1,,,,,,,,,,,,,,0,,,55,64
254080,note_on,0,0,2,,,,,,,,,,,,,,1,,,50,90
254080,note_on,20,0,1,,,,,,,,,,,,,,0,,,67,90
254080,note_on,0,0,1,,,,,,,,,,,,,,0,,,55,90
254080,note_off,160,0,2,,,,,,,,,,,,,,1,,,48,64
254220,note_off,140,0,1,,,,,,,,,,,,,,0,,,67,64
254220,note_off,0,0,1,,,,,,,,,,,,,,0,,,55,64
254240,note_on,20,0,1,,,,,,,,,,,,,,0,,,67,90
254240,note_on,0,0,1,,,,,,,,,,,,,,0,,,55,90
254240,note_on,0,0,2,,,,,,,,,,,,,,1,,,51,90
254240,note_off,160,0,2,,,,,,,,,,,,,,1,,,50,64
254380,note_off,0,0,1,,,,,,,,,,,,,,0,,,55,64
254380,note_off,140,0,1,,,,,,,,,,,,,,0,,,67,64
254400,note_on,0,0,1,,,,,,,,,,,,,,0,,,67,90
254400,note_on,20,0,1,,,,,,,,,,,,,,0,,,55,90
254400,note_off,160,0,2,,,,,,,,,,,,,,1,,,51,64
254400,note_on,0,0,2,,,,,,,,,,,,,,1,,,50,90
254540,note_off,140,0,1,,,,,,,,,,,,,,0,,,55,64
254540,note_off,0,0,1,,,,,,,,,,,,,,0,,,67,64
254560,note_on,0,0,1,,,,,,,,,,,,,,0,,,55,90
254560,note_on,20,0,1,,,,,,,,,,,,,,0,,,67,90
254630,note_off,230,0,2,,,,,,,,,,,,,,1,,,50,64
254700,note_off,0,0,1,,,,,,,,,,,,,,0,,,55,64
254700,note_off,140,0,1,,,,,,,,,,,,,,0,,,67,64
254720,note_on,20,0,1,,,,,,,,,,,,,,0,,,67,90
254720,note_on,0,0,1,,,,,,,,,,,,,,0,,,55,90
254860,note_off,140,0,1,,,,,,,,,,,,,,0,,,67,64
254860,note_off,0,0,1,,,,,,,,,,,,,,0,,,55,64
254880,note_on,1704,0,3,,,,,,,,,,,,,,2,,,62,90
254880,note_on,250,0,2,,,,,,,,,,,,,,1,,,46,90
254880,note_on,20,0,1,,,,,,,,,,,,,,0,,,55,90
254880,note_on,0,0,1,,,,,,,,,,,,,,0,,,67,90
255020,note_off,140,0,1,,,,,,,,,,,,,,0,,,55,64
255020,note_off,0,0,1,,,,,,,,,,,,,,0,,,67,64
255040,note_on,0,0,1,,,,,,,,,,,,,,0,,,55,90
255040,note_on,20,0,1,,,,,,,,,,,,,,0,,,67,90
255110,note_off,230,0,2,,,,,,,,,,,,,,1,,,46,64
255180,note_off,0,0,1,,,,,,,,,,,,,,0,,,55,64
255180,note_off,140,0,1,,,,,,,,,,,,,,0,,,67,64
255200,note_on,0,0,1,,,,,,,,,,,,,,0,,,55,90
255200,note_on,20,0,1,,,,,,,,,,,,,,0,,,67,90
255340,note_off,0,0,1,,,,,,,,,,,,,,0,,,55,64
255340,note_off,140,0,1,,,,,,,,,,,,,,0,,,67,64
255360,note_on,20,0,1,,,,,,,,,,,,,,0,,,67,90
255360,note_on,0,0,1,,,,,,,,,,,,,,0,,,55,90
255360,note_on,250,0,2,,,,,,,,,,,,,,1,,,43,90
255360,note_on,0,0,3,,,,,,,,,,,,,,2,,,62,90
255360,note_off,480,0,3,,,,,,,,,,,,,,2,,,62,64
255500,note_off,140,0,2,,,,,,,,,,,,,,1,,,43,64
255500,note_off,140,0,1,,,,,,,,,,,,,,0,,,67,64
255500,note_off,0,0,1,,,,,,,,,,,,,,0,,,55,64
255520,note_on,20,0,2,,,,,,,,,,,,,,1,,,43,90
255520,note_on,20,0,1,,,,,,,,,,,,,,0,,,55,90
255520,note_on,0,0,1,,,,,,,,,,,,,,0,,,67,90
255660,note_off,140,0,2,,,,,,,,,,,,,,1,,,43,64
255660,note_off,140,0,1,,,,,,,,,,,,,,0,,,55,64
255660,note_off,0,0,1,,,,,,,,,,,,,,0,,,67,64
255680,note_on,20,0,2,,,,,,,,,,,,,,1,,,43,90
255680,note_on,0,0,1,,,,,,,,,,,,,,0,,,55,90
255680,note_on,20,0,1,,,,,,,,,,,,,,0,,,67,90
255820,note_off,0,0,1,,,,,,,,,,,,,,0,,,55,64
255820,note_off,140,0,1,,,,,,,,,,,,,,0,,,67,64
255820,note_off,140,0,2,,,,,,,,,,,,,,1,,,43,64
255840,note_on,0,0,1,,,,,,,,,,,,,,0,,,67,90
255840,note_on,20,0,1,,,,,,,,,,,,,,0,,,55,90
255840,note_on,20,0,2,,,,,,,,,,,,,,1,,,43,90
255980,note_off,0,0,1,,,,,,,,,,,,,,0,,,67,64
255980,note_off,140,0,1,,,,,,,,,,,,,,0,,,55,64
255980,note_off,140,0,2,,,,,,,,,,,,,,1,,,43,64
256000,note_on,20,0,2,,,,,,,,,,,,,,1,,,43,90
256000,note_on,0,0,1,,,,,,,,,,,,,,0,,,55,90
256000,note_on,20,0,1,,,,,,,,,,,,,,0,,,67,90
256140,note_off,0,0,1,,,,,,,,,,,,,,0,,,55,64
256140,note_off,140,0,2,,,,,,,,,,,,,,1,,,43,64
256140,note_off,140,0,1,,,,,,,,,,,,,,0,,,67,64
256160,note_on,20,0,1,,,,,,,,,,,,,,0,,,67,90
256160,note_on,20,0,2,,,,,,,,,,,,,,1,,,43,90
256160,note_on,0,0,1,,,,,,,,,,,,,,0,,,55,90
256300,note_off,0,0,1,,,,,,,,,,,,,,0,,,55,64
256300,note_off,140,0,2,,,,,,,,,,,,,,1,,,43,64
256300,note_off,140,0,1,,,,,,,,,,,,,,0,,,67,64
256320,note_on,20,0,2,,,,,,,,,,,,,,1,,,43,90
256320,note_on,20,0,1,,,,,,,,,,,,,,0,,,55,90
256320,note_on,0,0,1,,,,,,,,,,,,,,0,,,67,90
256460,note_off,140,0,1,,,,,,,,,,,,,,0,,,55,64
256460,note_off,0,0,1,,,,,,,,,,,,,,0,,,67,64
256460,note_off,140,0,2,,,,,,,,,,,,,,1,,,43,64
256480,note_on,20,0,2,,,,,,,,,,,,,,1,,,43,90
256480,note_on,0,0,1,,,,,,,,,,,,,,0,,,55,90
256480,note_on,20,0,1,,,,,,,,,,,,,,0,,,67,90
256620,note_off,0,0,1,,,,,,,,,,,,,,0,,,55,64
256620,note_off,140,0,1,,,,,,,,,,,,,,0,,,67,64
256620,note_off,140,0,2,,,,,,,,,,,,,,1,,,43,64
256640,note_on,0,0,1,,,,,,,,,,,,,,0,,,55,90
256640,note_on,20,0,1,,,,,,,,,,,,,,0,,,67,90
256640,note_on,20,0,2,,,,,,,,,,,,,,1,,,43,90
256780,note_off,0,0,1,,,,,,,,,,,,,,0,,,55,64
256780,note_off,140,0,1,,,,,,,,,,,,,,0,,,67,64
256780,note_off,140,0,2,,,,,,,,,,,,,,1,,,43,64
256800,note_on,20,0,1,,,,,,,,,,,,,,0,,,55,90
256800,note_on,0,0,3,,,,,,,,,,,,,,2,,,62,90
256800,note_off,1440,0,3,,,,,,,,,,,,,,2,,,62,64
256800,note_on,0,0,1,,,,,,,,,,,,,,0,,,67,90
256800,note_on,20,0,2,,,,,,,,,,,,,,1,,,43,90
256940,note_off,140,0,1,,,,,,,,,,,,,,0,,,55,64
256940,note_off,0,0,1,,,,,,,,,,,,,,0,,,67,64
256940,note_off,140,0,2,,,,,,,,,,,,,,1,,,43,64
256960,note_on,20,0,2,,,,,,,,,,,,,,1,,,43,90
256960,note_on,20,0,1,,,,,,,,,,,,,,0,,,67,90
256960,note_on,0,0,1,,,,,,,,,,,,,,0,,,55,90
257100,note_off,140,0,2,,,,,,,,,,,,,,1,,,43,64
257100,note_off,140,0,1,,,,,,,,,,,,,,0,,,67,64
257100,note_off,0,0,1,,,,,,,,,,,,,,0,,,55,64
257120,note_on,20,0,2,,,,,,,,,,,,,,1,,,43,90
257120,note_on,20,0,1,,,,,,,,,,,,,,0,,,67,90
257120,note_on,0,0,1,,,,,,,,,,,,,,0,,,55,90
257260,note_off,140,0,2,,,,,,,,,,,,,,1,,,43,64
257260,note_off,0,0,1,,,,,,,,,,,,,,0,,,55,64
257260,note_off,140,0,1,,,,,,,,,,,,,,0,,,67,64
257280,note_off,480,0,3,,,,,,,,,,,,,,2,,,62,64
257280,note_on,0,0,3,,,,,,,,,,,,,,2,,,69,90
257280,note_on,20,0,2,,,,,,,,,,,,,,1,,,43,90
257280,note_on,0,0,1,,,,,,,,,,,,,,0,,,55,90
257280,note_on,20,0,1,,,,,,,,,,,,,,0,,,67,90
257420,note_off,140,0,1,,,,,,,,,,,,,,0,,,67,64
257420,note_off,0,0,1,,,,,,,,,,,,,,0,,,55,64
257440,note_off,160,0,2,,,,,,,,,,,,,,1,,,43,64
257440,note_on,20,0,1,,,,,,,,,,,,,,0,,,55,90
257440,note_on,0,0,1,,,,,,,,,,,,,,0,,,67,90
257440,note_on,0,0,2,,,,,,,,,,,,,,1,,,45,90
257580,note_off,140,0,1,,,,,,,,,,,,,,0,,,55,64
257580,note_off,0,0,1,,,,,,,,,,,,,,0,,,67,64
257600,note_on,0,0,2,,,,,,,,,,,,,,1,,,46,90
257600,note_on,20,0,1,,,,,,,,,,,,,,0,,,67,90
257600,note_on,0,0,1,,,,,,,,,,,,,,0,,,55,90
257600,note_off,160,0,2,,,,,,,,,,,,,,1,,,45,64
257740,note_off,0,0,1,,,,,,,,,,,,,,0,,,55,64
257740,note_off,140,0,1,,,,,,,,,,,,,,0,,,67,64
257760,note_on,0,0,2,,,,,,,,,,,,,,1,,,48,90
257760,note_off,480,0,3,,,,,,,,,,,,,,2,,,69,64
257760,note_on,0,0,3,,,,,,,,,,,,,,2,,,67,90
257760,note_off,160,0,2,,,,,,,,,,,,,,1,,,46,64
257760,note_on,0,0,1,,,,,,,,,,,,,,0,,,67,90
257760,note_on,20,0,1,,,,,,,,,,,,,,0,,,55,90
257895,set_tempo,257895,1,0,,,,,,,389610,,,,,,,,,,,
257900,note_off,140,0,1,,,,,,,,,,,,,,0,,,55,64
257900,note_off,0,0,1,,,,,,,,,,,,,,0,,,67,64
257920,note_on,20,0,1,,,,,,,,,,,,,,0,,,67,90
257920,note_off,160,0,2,,,,,,,,,,,,,,1,,,48,64
257920,note_on,0,0,1,,,,,,,,,,,,,,0,,,55,90
257920,note_on,0,0,2,,,,,,,,,,,,,,1,,,50,90
258060,note_off,140,0,1,,,,,,,,,,,,,,0,,,67,64
258060,note_off,0,0,1,,,,,,,,,,,,,,0,,,55,64
258080,note_on,0,0,2,,,,,,,,,,,,,,1,,,51,90
258080,note_off,160,0,2,,,,,,,,,,,,,,1,,,50,64
258080,note_on,0,0,1,,,,,,,,,,,,,,0,,,55,90
258080,note_on,20,0,1,,,,,,,,,,,,,,0,,,67,90
258220,note_off,0,0,1,,,,,,,,,,,,,,0,,,55,64
258220,note_off,140,0,1,,,,,,,,,,,,,,0,,,67,64
258240,note_off,480,0,3,,,,,,,,,,,,,,2,,,67,64
258240,note_off,160,0,2,,,,,,,,,,,,,,1,,,51,64
258240,note_on,0,0,2,,,,,,,,,,,,,,1,,,50,90
258240,note_on,0,0,1,,,,,,,,,,,,,,0,,,67,90
258240,note_on,20,0,1,,,,,,,,,,,,,,0,,,55,90
258380,note_off,0,0,1,,,,,,,,,,,,,,0,,,67,64
258380,note_off,140,0,1,,,,,,,,,,,,,,0,,,55,64
258400,note_on,0,0,1,,,,,,,,,,,,,,0,,,55,90
258400,note_on,20,0,1,,,,,,,,,,,,,,0,,,67,90
258470,note_off,230,0,2,,,,,,,,,,,,,,1,,,50,64
258540,note_off,0,0,1,,,,,,,,,,,,,,0,,,55,64
258540,note_off,140,0,1,,,,,,,,,,,,,,0,,,67,64
258560,note_on,0,0,1,,,,,,,,,,,,,,0,,,55,90
258560,note_on,20,0,1,,,,,,,,,,,,,,0,,,67,90
258700,note_off,140,0,1,,,,,,,,,,,,,,0,,,67,64
258700,note_off,0,0,1,,,,,,,,,,,,,,0,,,55,64
258720,note_on,250,0,2,,,,,,,,,,,,,,1,,,46,90
258720,note_on,480,0,3,,,,,,,,,,,,,,2,,,67,90
258720,note_on,20,0,1,,,,,,,,,,,,,,0,,,55,90
258720,note_on,0,0,1,,,,,,,,,,,,,,0,,,67,90
258860,note_off,140,0,1,,,,,,,,,,,,,,0,,,55,64
258860,note_off,0,0,1,,,,,,,,,,,,,,0,,,67,64
258880,note_on,20,0,1,,,,,,,,,,,,,,0,,,67,90
258880,note_on,0,0,1,,,,,,,,,,,,,,0,,,55,90
258950,note_off,230,0,2,,,,,,,,,,,,,,1,,,46,64
259020,note_off,0,0,1,,,,,,,,,,,,,,0,,,55,64
259020,note_off,140,0,1,,,,,,,,,,,,,,0,,,67,64
259040,note_on,20,0,1,,,,,,,,,,,,,,0,,,67,90
259040,note_on,0,0,1,,,,,,,,,,,,,,0,,,55,90
259180,note_off,0,0,1,,,,,,,,,,,,,,0,,,55,64
259180,note_off,140,0,1,,,,,,,,,,,,,,0,,,67,64
259200,note_on,0,0,1,,,,,,,,,,,,,,0,,,55,90
259200,note_off,480,0,3,,,,,,,,,,,,,,2,,,67,64
259200,note_on,250,0,2,,,,,,,,,,,,,,1,,,43,90
259200,note_on,20,0,1,,,,,,,,,,,,,,0,,,67,90
259200,note_on,0,0,3,,,,,,,,,,,,,,2,,,67,90
259340,note_off,140,0,1,,,,,,,,,,,,,,0,,,67,64
259340,note_off,140,0,2,,,,,,,,,,,,,,1,,,43,64
259340,note_off,0,0,1,,,,,,,,,,,,,,0,,,55,64
259360,note_on,20,0,2,,,,,,,,,,,,,,1,,,43,90
259360,note_on,0,0,1,,,,,,,,,,,,,,0,,,67,90
259360,note_on,20,0,1,,,,,,,,,,,,,,0,,,55,90
259500,note_off,140,0,2,,,,,,,,,,,,,,1,,,43,64
259500,note_off,140,0,1,,,,,,,,,,,,,,0,,,55,64
259500,note_off,0,0,1,,,,,,,,,,,,,,0,,,67,64
259520,note_on,20,0,1,,,,,,,,,,,,,,0,,,67,90
259520,note_on,0,0,1,,,,,,,,,,,,,,0,,,55,90
259520,note_on,20,0,2,,,,,,,,,,,,,,1,,,43,90
259660,note_off,140,0,2,,,,,,,,,,,,,,1,,,43,64
259660,note_off,140,0,1,,,,,,,,,,,,,,0,,,67,64
259660,note_off,0,0,1,,,,,,,,,,,,,,0,,,55,64
259680,note_on,20,0,1,,,,,,,,,,,,,,0,,,55,90
259680,note_on,0,0,1,,,,,,,,,,,,,,0,,,67,90
259680,note_on,20,0,2,,,,,,,,,,,,,,1,,,43,90
259809,set_tempo,1914,1,0,,,,,,,384615,,,,,,,,,,,
259820,note_off,140,0,1,,,,,,,,,,,,,,0,,,55,64
259820,note_off,0,0,1,,,,,,,,,,,,,,0,,,67,64
259820,note_off,140,0,2,,,,,,,,,,,,,,1,,,43,64
259840,note_on,20,0,2,,,,,,,,,,,,,,1,,,43,90
259840,note_on,0,0,1,,,,,,,,,,,,,,0,,,55,90
259840,note_on,20,0,1,,,,,,,,,,,,,,0,,,67,90
259980,note_off,0,0,1,,,,,,,,,,,,,,0,,,55,64
259980,note_off,140,0,2,,,,,,,,,,,,,,1,,,43,64
259980,note_off,140,0,1,,,,,,,,,,,,,,0,,,67,64
260000,note_on,0,0,1,,,,,,,,,,,,,,0,,,55,90
260000,note_on,20,0,2,,,,,,,,,,,,,,1,,,43,90
260000,note_on,20,0,1,,,,,,,,,,,,,,0,,,67,90
260140,note_off,140,0,2,,,,,,,,,,,,,,1,,,43,64
260140,note_off,0,0,1,,,,,,,,,,,,,,0,,,55,64
260140,note_off,140,0,1,,,,,,,,,,,,,,0,,,67,64
260160,note_on,20,0,1,,,,,,,,,,,,,,0,,,57,90
260160,note_off,960,0,3,,,,,,,,,,,,,,2,,,67,64
260160,note_on,0,0,1,,,,,,,,,,,,,,0,,,69,90
260160,note_on,0,0,1,,,,,,,,,,,,,,0,,,67,90
260160,note_on,20,0,2,,,,,,,,,,,,,,1,,,43,90
260160,note_on,0,0,3,,,,,,,,,,,,,,2,,,69,90
260300,note_off,140,0,1,,,,,,,,,,,,,,0,,,57,64
260300,note_off,0,0,1,,,,,,,,,,,,,,0,,,69,64
260300,note_off,0,0,1,,,,,,,,,,,,,,0,,,67,64
260300,note_off,140,0,2,,,,,,,,,,,,,,1,,,43,64
260320,note_on,0,0,1,,,,,,,,,,,,,,0,,,67,90
260320,note_on,0,0,1,,,,,,,,,,,,,,0,,,57,90
260320,note_on,20,0,1,,,,,,,,,,,,,,0,,,69,90
260320,note_on,20,0,2,,,,,,,,,,,,,,1,,,43,90
260460,note_off,140,0,2,,,,,,,,,,,,,,1,,,43,64
260460,note_off,140,0,1,,,,,,,,,,,,,,0,,,69,64
260460,note_off,0,0,1,,,,,,,,,,,,,,0,,,57,64
260460,note_off,0,0,1,,,,,,,,,,,,,,0,,,67,64
260480,note_on,20,0,2,,,,,,,,,,,,,,1,,,43,90
260480,note_on,20,0,1,,,,,,,,,,,,,,0,,,69,90
260480,note_on,0,0,1,,,,,,,,,,,,,,0,,,57,90
260480,note_on,0,0,1,,,,,,,,,,,,,,0,,,67,90
260620,note_off,140,0,1,,,,,,,,,,,,,,0,,,69,64
260620,note_off,0,0,1,,,,,,,,,,,,,,0,,,57,64
260620,note_off,0,0,1,,,,,,,,,,,,,,0,,,67,64
260620,note_off,140,0,2,,,,,,,,,,,,,,1,,,43,64
260640,note_on,0,0,1,,,,,,,,,,,,,,0,,,67,90
260640,note_on,0,0,1,,,,,,,,,,,,,,0,,,69,90
260640,note_on,20,0,1,,,,,,,,,,,,,,0,,,57,90
260640,note_on,20,0,2,,,,,,,,,,,,,,1,,,43,90
260780,note_off,140,0,1,,,,,,,,,,,,,,0,,,57,64
260780,note_off,140,0,2,,,,,,,,,,,,,,1,,,43,64
260780,note_off,0,0,1,,,,,,,,,,,,,,0,,,67,64
260780,note_off,0,0,1,,,,,,,,,,,,,,0,,,69,64
260800,note_on,20,0,1,,,,,,,,,,,,,,0,,,69,90
260800,note_on,0,0,1,,,,,,,,,,,,,,0,,,57,90
260800,note_on,0,0,1,,,,,,,,,,,,,,0,,,67,90
260800,note_on,20,0,2,,,,,,,,,,,,,,1,,,43,90
260880,note_off,720,0,3,,,,,,,,,,,,,,2,,,69,64
260880,note_on,0,0,3,,,,,,,,,,,,,,2,,,69,90
260940,note_off,140,0,2,,,,,,,,,,,,,,1,,,43,64
260940,note_off,0,0,1,,,,,,,,,,,,,,0,,,67,64
260940,note_off,140,0,1,,,,,,,,,,,,,,0,,,69,64
260940,note_off,0,0,1,,,,,,,,,,,,,,0,,,57,64
260960,note_on,20,0,1,,,,,,,,,,,,,,0,,,69,90
260960,note_on,0,0,1,,,,,,,,,,,,,,0,,,57,90
260960,note_on,0,0,1,,,,,,,,,,,,,,0,,,67,90
260960,note_on,20,0,2,,,,,,,,,,,,,,1,,,43,90
261100,note_off,0,0,1,,,,,,,,,,,,,,0,,,67,64
261100,note_off,140,0,2,,,,,,,,,,,,,,1,,,43,64
261100,note_off,140,0,1,,,,,,,,,,,,,,0,,,69,64
261100,note_off,0,0,1,,,,,,,,,,,,,,0,,,57,64
261120,note_on,20,0,2,,,,,,,,,,,,,,1,,,43,90
261120,note_on,0,0,3,,,,,,,,,,,,,,2,,,70,90
261120,note_on,0,0,1,,,,,,,,,,,,,,0,,,58,90
261120,note_on,0,0,1,,,,,,,,,,,,,,0,,,67,90
261120,note_off,240,0,3,,,,,,,,,,,,,,2,,,69,64
261120,note_on,20,0,1,,,,,,,,,,,,,,0,,,70,90
261260,note_off,0,0,1,,,,,,,,,,,,,,0,,,58,64
261260,note_off,0,0,1,,,,,,,,,,,,,,0,,,67,64
261260,note_off,140,0,1,,,,,,,,,,,,,,0,,,70,64
261280,note_on,0,0,1,,,,,,,,,,,,,,0,,,67,90
261280,note_on,0,0,1,,,,,,,,,,,,,,0,,,70,90
261280,note_on,20,0,1,,,,,,,,,,,,,,0,,,58,90
261280,note_on,0,0,2,,,,,,,,,,,,,,1,,,45,90
261280,note_off,160,0,2,,,,,,,,,,,,,,1,,,43,64
261420,note_off,0,0,1,,,,,,,,,,,,,,0,,,67,64
261420,note_off,0,0,1,,,,,,,,,,,,,,0,,,70,64
261420,note_off,140,0,1,,,,,,,,,,,,,,0,,,58,64
261440,note_on,0,0,2,,,,,,,,,,,,,,1,,,46,90
261440,note_off,160,0,2,,,,,,,,,,,,,,1,,,45,64
261440,note_on,0,0,1,,,,,,,,,,,,,,0,,,58,90
261440,note_on,20,0,1,,,,,,,,,,,,,,0,,,70,90
261440,note_on,0,0,1,,,,,,,,,,,,,,0,,,67,90
261580,note_off,0,0,1,,,,,,,,,,,,,,0,,,67,64
261580,note_off,0,0,1,,,,,,,,,,,,,,0,,,58,64
261580,note_off,140,0,1,,,,,,,,,,,,,,0,,,70,64
261600,note_on,0,0,1,,,,,,,,,,,,,,0,,,67,90
261600,note_on,0,0,1,,,,,,,,,,,,,,0,,,70,90
261600,note_off,160,0,2,,,,,,,,,,,,,,1,,,46,64
261600,note_on,0,0,2,,,,,,,,,,,,,,1,,,48,90
261600,note_on,20,0,1,,,,,,,,,,,,,,0,,,58,90
261740,note_off,140,0,1,,,,,,,,,,,,,,0,,,58,64
261740,note_off,0,0,1,,,,,,,,,,,,,,0,,,67,64
261740,note_off,0,0,1,,,,,,,,,,,,,,0,,,70,64
261760,note_off,160,0,2,,,,,,,,,,,,,,1,,,48,64
261760,note_on,0,0,2,,,,,,,,,,,,,,1,,,50,90
261760,note_on,20,0,1,,,,,,,,,,,,,,0,,,70,90
261760,note_on,0,0,1,,,,,,,,,,,,,,0,,,58,90
261760,note_on,0,0,1,,,,,,,,,,,,,,0,,,67,90
261778,set_tempo,1969,1,0,,,,,,,379746,,,,,,,,,,,
261900,note_off,140,0,1,,,,,,,,,,,,,,0,,,70,64
261900,note_off,0,0,1,,,,,,,,,,,,,,0,,,58,64
261900,note_off,0,0,1,,,,,,,,,,,,,,0,,,67,64
261920,note_off,160,0,2,,,,,,,,,,,,,,1,,,50,64
261920,note_on,0,0,1,,,,,,,,,,,,,,0,,,67,90
261920,note_on,20,0,1,,,,,,,,,,,,,,0,,,70,90
261920,note_on,0,0,2,,,,,,,,,,,,,,1,,,51,90
261920,note_on,0,0,1,,,,,,,,,,,,,,0,,,58,90
262060,note_off,0,0,1,,,,,,,,,,,,,,0,,,58,64
262060,note_off,140,0,1,,,,,,,,,,,,,,0,,,70,64
262060,note_off,0,0,1,,,,,,,,,,,,,,0,,,67,64
262080,note_on,20,0,1,,,,,,,,,,,,,,0,,,58,90
262080,note_on,0,0,1,,,,,,,,,,,,,,0,,,70,90
262080,note_on,0,0,1,,,,,,,,,,,,,,0,,,67,90
262080,note_on,0,0,2,,,,,,,,,,,,,,1,,,50,90
262080,note_off,160,0,2,,,,,,,,,,,,,,1,,,51,64
262080,note_off,960,0,3,,,,,,,,,,,,,,2,,,70,64
262220,note_off,0,0,1,,,,,,,,,,,,,,0,,,67,64
262220,note_off,140,0,1,,,,,,,,,,,,,,0,,,58,64
262220,note_off,0,0,1,,,,,,,,,,,,,,0,,,70,64
262240,note_on,20,0,1,,,,,,,,,,,,,,0,,,70,90
262240,note_on,0,0,1,,,,,,,,,,,,,,0,,,58,90
262240,note_on,0,0,1,,,,,,,,,,,,,,0,,,67,90
262310,note_off,230,0,2,,,,,,,,,,,,,,1,,,50,64
262380,note_off,140,0,1,,,,,,,,,,,,,,0,,,70,64
262380,note_off,0,0,1,,,,,,,,,,,,,,0,,,58,64
262380,note_off,0,0,1,,,,,,,,,,,,,,0,,,67,64
262400,note_on,20,0,1,,,,,,,,,,,,,,0,,,70,90
262400,note_on,0,0,1,,,,,,,,,,,,,,0,,,67,90
262400,note_on,0,0,1,,,,,,,,,,,,,,0,,,58,90
262540,note_off,0,0,1,,,,,,,,,,,,,,0,,,67,64
262540,note_off,140,0,1,,,,,,,,,,,,,,0,,,70,64
262540,note_off,0,0,1,,,,,,,,,,,,,,0,,,58,64
262560,note_on,20,0,1,,,,,,,,,,,,,,0,,,58,90
262560,note_on,0,0,1,,,,,,,,,,,,,,0,,,70,90
262560,note_on,250,0,2,,,,,,,,,,,,,,1,,,46,90
262560,note_on,480,0,3,,,,,,,,,,,,,,2,,,70,90
262560,note_on,0,0,1,,,,,,,,,,,,,,0,,,67,90
262700,note_off,140,0,1,,,,,,,,,,,,,,0,,,58,64
262700,note_off,0,0,1,,,,,,,,,,,,,,0,,,70,64
262700,note_off,0,0,1,,,,,,,,,,,,,,0,,,67,64
262720,note_on,20,0,1,,,,,,,,,,,,,,0,,,70,90
262720,note_on,0,0,1,,,,,,,,,,,,,,0,,,67,90
262720,note_on,0,0,1,,,,,,,,,,,,,,0,,,58,90
262790,note_off,230,0,2,,,,,,,,,,,,,,1,,,46,64
262860,note_off,0,0,1,,,,,,,,,,,,,,0,,,58,64
262860,note_off,140,0,1,,,,,,,,,,,,,,0,,,70,64
262860,note_off,0,0,1,,,,,,,,,,,,,,0,,,67,64
262880,note_on,20,0,1,,,,,,,,,,,,,,0,,,70,90
262880,note_on,0,0,1,,,,,,,,,,,,,,0,,,67,90
262880,note_on,0,0,1,,,,,,,,,,,,,,0,,,58,90
263020,note_off,0,0,1,,,,,,,,,,,,,,0,,,67,64
263020,note_off,0,0,1,,,,,,,,,,,,,,0,,,58,64
263020,note_off,140,0,1,,,,,,,,,,,,,,0,,,70,64
263040,note_on,0,0,3,,,,,,,,,,,,,,2,,,70,90
263040,note_off,480,0,3,,,,,,,,,,,,,,2,,,70,64
263040,note_on,250,0,2,,,,,,,,,,,,,,1,,,43,90
263043,note_on,0,0,1,,,,,,,,,,,,,,0,,,67,90
263043,note_on,0,0,1,,,,,,,,,,,,,,0,,,58,90
263043,note_on,23,0,1,,,,,,,,,,,,,,0,,,70,90
263180,note_off,140,0,2,,,,,,,,,,,,,,1,,,43,64
263183,note_off,140,0,1,,,,,,,,,,,,,,0,,,70,64
263183,note_off,0,0,1,,,,,,,,,,,,,,0,,,58,64
263183,note_off,0,0,1,,,,,,,,,,,,,,0,,,67,64
263200,note_on,20,0,2,,,,,,,,,,,,,,1,,,43,90
263203,note_on,20,0,1,,,,,,,,,,,,,,0,,,58,90
263203,note_on,0,0,1,,,,,,,,,,,,,,0,,,70,90
263203,note_on,0,0,1,,,,,,,,,,,,,,0,,,67,90
263340,note_off,140,0,2,,,,,,,,,,,,,,1,,,43,64
263343,note_off,140,0,1,,,,,,,,,,,,,,0,,,58,64
263343,note_off,0,0,1,,,,,,,,,,,,,,0,,,70,64
263343,note_off,0,0,1,,,,,,,,,,,,,,0,,,67,64
263360,note_on,20,0,2,,,,,,,,,,,,,,1,,,43,90
263363,note_on,0,0,1,,,,,,,,,,,,,,0,,,67,90
263363,note_on,0,0,1,,,,,,,,,,,,,,0,,,58,90
263363,note_on,20,0,1,,,,,,,,,,,,,,0,,,70,90
263500,note_off,140,0,2,,,,,,,,,,,,,,1,,,43,64
263503,note_off,0,0,1,,,,,,,,,,,,,,0,,,67,64
263503,note_off,140,0,1,,,,,,,,,,,,,,0,,,70,64
263503,note_off,0,0,1,,,,,,,,,,,,,,0,,,58,64
263520,note_on,20,0,2,,,,,,,,,,,,,,1,,,43,90
263523,note_on,0,0,1,,,,,,,,,,,,,,0,,,70,90
263523,note_on,0,0,1,,,,,,,,,,,,,,0,,,67,90
263523,note_on,20,0,1,,,,,,,,,,,,,,0,,,58,90
263660,note_off,140,0,2,,,,,,,,,,,,,,1,,,43,64
263663,note_off,140,0,1,,,,,,,,,,,,,,0,,,58,64
263663,note_off,0,0,1,,,,,,,,,,,,,,0,,,70,64
263663,note_off,0,0,1,,,,,,,,,,,,,,0,,,67,64
263680,note_on,20,0,2,,,,,,,,,,,,,,1,,,43,90
263683,note_on,20,0,1,,,,,,,,,,,,,,0,,,70,90
263683,note_on,0,0,1,,,,,,,,,,,,,,0,,,58,90
263683,note_on,0,0,1,,,,,,,,,,,,,,0,,,67,90
263820,note_off,140,0,2,,,,,,,,,,,,,,1,,,43,64
263823,note_off,0,0,1,,,,,,,,,,,,,,0,,,67,64
263823,note_off,140,0,1,,,,,,,,,,,,,,0,,,70,64
263823,note_off,0,0,1,,,,,,,,,,,,,,0,,,58,64
263840,note_on,20,0,2,,,,,,,,,,,,,,1,,,43,90
263843,note_on,0,0,1,,,,,,,,,,,,,,0,,,67,90
263843,note_on,20,0,1,,,,,,,,,,,,,,0,,,70,90
263843,note_on,0,0,1,,,,,,,,,,,,,,0,,,58,90
263980,note_off,140,0,2,,,,,,,,,,,,,,1,,,43,64
263983,note_off,0,0,1,,,,,,,,,,,,,,0,,,67,64
263983,note_off,0,0,1,,,,,,,,,,,,,,0,,,58,64
263983,note_off,140,0,1,,,,,,,,,,,,,,0,,,70,64
264000,note_on,20,0,2,,,,,,,,,,,,,,1,,,43,90
264000,note_off,960,0,3,,,,,,,,,,,,,,2,,,70,64
264000,note_on,0,0,3,,,,,,,,,,,,,,2,,,72,90
264003,note_on,0,0,1,,,,,,,,,,,,,,0,,,69,90
264003,note_on,0,0,1,,,,,,,,,,,,,,0,,,72,90
264003,note_on,20,0,1,,,,,,,,,,,,,,0,,,60,90
264055,set_tempo,2277,1,0,,,,,,,375000,,,,,,,,,,,
264140,note_off,140,0,2,,,,,,,,,,,,,,1,,,43,64
264143,note_off,140,0,1,,,,,,,,,,,,,,0,,,60,64
264143,note_off,0,0,1,,,,,,,,,,,,,,0,,,72,64
264143,note_off,0,0,1,,,,,,,,,,,,,,0,,,69,64
264160,note_on,20,0,2,,,,,,,,,,,,,,1,,,43,90
264163,note_on,20,0,1,,,,,,,,,,,,,,0,,,72,90
264163,note_on,0,0,1,,,,,,,,,,,,,,0,,,60,90
264163,note_on,0,0,1,,,,,,,,,,,,,,0,,,69,90
264300,note_off,140,0,2,,,,,,,,,,,,,,1,,,43,64
264303,note_off,140,0,1,,,,,,,,,,,,,,0,,,72,64
264303,note_off,0,0,1,,,,,,,,,,,,,,0,,,60,64
264303,note_off,0,0,1,,,,,,,,,,,,,,0,,,69,64
264320,note_on,20,0,2,,,,,,,,,,,,,,1,,,43,90
264323,note_on,20,0,1,,,,,,,,,,,,,,0,,,72,90
264323,note_on,0,0,1,,,,,,,,,,,,,,0,,,60,90
264323,note_on,0,0,1,,,,,,,,,,,,,,0,,,69,90
264460,note_off,140,0,2,,,,,,,,,,,,,,1,,,43,64
264463,note_off,140,0,1,,,,,,,,,,,,,,0,,,72,64
264463,note_off,0,0,1,,,,,,,,,,,,,,0,,,60,64
264463,note_off,0,0,1,,,,,,,,,,,,,,0,,,69,64
264480,note_on,20,0,2,,,,,,,,,,,,,,1,,,43,90
264483,note_on,20,0,1,,,,,,,,,,,,,,0,,,60,90
264483,note_on,0,0,1,,,,,,,,,,,,,,0,,,72,90
264483,note_on,0,0,1,,,,,,,,,,,,,,0,,,69,90
264620,note_off,140,0,2,,,,,,,,,,,,,,1,,,43,64
264623,note_off,0,0,1,,,,,,,,,,,,,,0,,,69,64
264623,note_off,140,0,1,,,,,,,,,,,,,,0,,,60,64
264623,note_off,0,0,1,,,,,,,,,,,,,,0,,,72,64
264640,note_on,20,0,2,,,,,,,,,,,,,,1,,,43,90
264643,note_on,0,0,1,,,,,,,,,,,,,,0,,,60,90
264643,note_on,0,0,1,,,,,,,,,,,,,,0,,,69,90
264643,note_on,20,0,1,,,,,,,,,,,,,,0,,,72,90
264780,note_off,140,0,2,,,,,,,,,,,,,,1,,,43,64
264783,note_off,0,0,1,,,,,,,,,,,,,,0,,,60,64
264783,note_off,0,0,1,,,,,,,,,,,,,,0,,,69,64
264783,note_off,140,0,1,,,,,,,,,,,,,,0,,,72,64
264800,note_on,20,0,2,,,,,,,,,,,,,,1,,,43,90
264803,note_on,20,0,1,,,,,,,,,,,,,,0,,,72,90
264803,note_on,0,0,1,,,,,,,,,,,,,,0,,,69,90
264803,note_on,0,0,1,,,,,,,,,,,,,,0,,,60,90
264940,note_off,140,0,2,,,,,,,,,,,,,,1,,,43,64
264943,note_off,0,0,1,,,,,,,,,,,,,,0,,,60,64
264943,note_off,140,0,1,,,,,,,,,,,,,,0,,,72,64
264943,note_off,0,0,1,,,,,,,,,,,,,,0,,,69,64
264957,note_on,0,0,1,,,,,,,,,,,,,,0,,,62,90
264957,note_on,0,0,1,,,,,,,,,,,,,,0,,,70,90
264957,note_on,14,0,1,,,,,,,,,,,,,,0,,,74,90
264960,note_on,20,0,2,,,,,,,,,,,,,,1,,,43,90
264960,note_off,960,0,3,,,,,,,,,,,,,,2,,,72,64
264960,note_on,0,0,3,,,,,,,,,,,,,,2,,,75,90
265097,note_off,140,0,1,,,,,,,,,,,,,,0,,,74,64
265097,note_off,0,0,1,,,,,,,,,,,,,,0,,,62,64
265097,note_off,0,0,1,,,,,,,,,,,,,,0,,,70,64
265117,note_on,0,0,1,,,,,,,,,,,,,,0,,,70,90
265117,note_on,0,0,1,,,,,,,,,,,,,,0,,,74,90
265117,note_on,20,0,1,,,,,,,,,,,,,,0,,,62,90
265120,note_on,0,0,2,,,,,,,,,,,,,,1,,,45,90
265120,note_off,160,0,2,,,,,,,,,,,,,,1,,,43,64
265257,note_off,0,0,1,,,,,,,,,,,,,,0,,,70,64
265257,note_off,0,0,1,,,,,,,,,,,,,,0,,,74,64
265257,note_off,140,0,1,,,,,,,,,,,,,,0,,,62,64
265277,note_on,20,0,1,,,,,,,,,,,,,,0,,,74,90
265277,note_on,0,0,1,,,,,,,,,,,,,,0,,,62,90
265277,note_on,0,0,1,,,,,,,,,,,,,,0,,,70,90
265280,note_off,160,0,2,,,,,,,,,,,,,,1,,,45,64
265280,note_on,0,0,2,,,,,,,,,,,,,,1,,,46,90
265417,note_off,140,0,1,,,,,,,,,,,,,,0,,,74,64
265417,note_off,0,0,1,,,,,,,,,,,,,,0,,,62,64
265417,note_off,0,0,1,,,,,,,,,,,,,,0,,,70,64
265437,note_on,0,0,1,,,,,,,,,,,,,,0,,,74,90
265437,note_on,0,0,1,,,,,,,,,,,,,,0,,,70,90
265437,note_on,20,0,1,,,,,,,,,,,,,,0,,,62,90
265440,note_off,160,0,2,,,,,,,,,,,,,,1,,,46,64
265440,note_off,480,0,3,,,,,,,,,,,,,,2,,,75,64
265440,note_on,0,0,3,,,,,,,,,,,,,,2,,,74,90
265440,note_on,0,0,2,,,,,,,,,,,,,,1,,,48,90
265577,note_off,0,0,1,,,,,,,,,,,,,,0,,,70,64
265577,note_off,0,0,1,,,,,,,,,,,,,,0,,,74,64
265577,note_off,140,0,1,,,,,,,,,,,,,,0,,,62,64
265597,note_on,20,0,1,,,,,,,,,,,,,,0,,,74,90
265597,note_on,0,0,1,,,,,,,,,,,,,,0,,,62,90
265597,note_on,0,0,1,,,,,,,,,,,,,,0,,,70,90
265600,note_off,160,0,2,,,,,,,,,,,,,,1,,,48,64
265600,note_on,0,0,2,,,,,,,,,,,,,,1,,,50,90
265737,note_off,140,0,1,,,,,,,,,,,,,,0,,,74,64
265737,note_off,0,0,1,,,,,,,,,,,,,,0,,,62,64
265737,note_off,0,0,1,,,,,,,,,,,,,,0,,,70,64
265757,note_on,0,0,1,,,,,,,,,,,,,,0,,,70,90
265757,note_on,20,0,1,,,,,,,,,,,,,,0,,,74,90
265757,note_on,0,0,1,,,,,,,,,,,,,,0,,,62,90
265760,note_on,0,0,2,,,,,,,,,,,,,,1,,,51,90
265760,note_off,160,0,2,,,,,,,,,,,,,,1,,,50,64
265897,note_off,0,0,1,,,,,,,,,,,,,,0,,,70,64
265897,note_off,140,0,1,,,,,,,,,,,,,,0,,,74,64
265897,note_off,0,0,1,,,,,,,,,,,,,,0,,,62,64
265917,note_on,0,0,1,,,,,,,,,,,,,,0,,,70,90
265917,note_on,20,0,1,,,,,,,,,,,,,,0,,,62,90
265917,note_on,0,0,1,,,,,,,,,,,,,,0,,,74,90
265920,note_off,480,0,3,,,,,,,,,,,,,,2,,,74,64
265920,note_on,0,0,2,,,,,,,,,,,,,,1,,,50,90
265920,note_off,160,0,2,,,,,,,,,,,,,,1,,,51,64
266057,note_off,140,0,1,,,,,,,,,,,,,,0,,,62,64
266057,note_off,0,0,1,,,,,,,,,,,,,,0,,,70,64
266057,note_off,0,0,1,,,,,,,,,,,,,,0,,,74,64
266077,note_on,20,0,1,,,,,,,,,,,,,,0,,,74,90
266077,note_on,0,0,1,,,,,,,,,,,,,,0,,,70,90
266077,note_on,0,0,1,,,,,,,,,,,,,,0,,,62,90
266150,note_off,230,0,2,,,,,,,,,,,,,,1,,,50,64
266217,note_off,0,0,1,,,,,,,,,,,,,,0,,,70,64
266217,note_off,0,0,1,,,,,,,,,,,,,,0,,,62,64
266217,note_off,140,0,1,,,,,,,,,,,,,,0,,,74,64
266237,note_on,20,0,1,,,,,,,,,,,,,,0,,,74,90
266237,note_on,0,0,1,,,,,,,,,,,,,,0,,,70,90
266237,note_on,0,0,1,,,,,,,,,,,,,,0,,,62,90
266377,note_off,0,0,1,,,,,,,,,,,,,,0,,,70,64
266377,note_off,140,0,1,,,,,,,,,,,,,,0,,,74,64
266377,note_off,0,0,1,,,,,,,,,,,,,,0,,,62,64
266397,note_on,0,0,1,,,,,,,,,,,,,,0,,,74,90
266397,note_on,0,0,1,,,,,,,,,,,,,,0,,,70,90
266397,note_on,20,0,1,,,,,,,,,,,,,,0,,,62,90
266400,note_on,480,0,3,,,,,,,,,,,,,,2,,,74,90
266400,note_on,250,0,2,,,,,,,,,,,,,,1,,,46,90
266537,note_off,0,0,1,,,,,,,,,,,,,,0,,,70,64
266537,note_off,0,0,1,,,,,,,,,,,,,,0,,,74,64
266537,note_off,140,0,1,,,,,,,,,,,,,,0,,,62,64
266557,note_on,0,0,1,,,,,,,,,,,,,,0,,,70,90
266557,note_on,20,0,1,,,,,,,,,,,,,,0,,,74,90
266557,note_on,0,0,1,,,,,,,,,,,,,,0,,,62,90
266630,note_off,230,0,2,,,,,,,,,,,,,,1,,,46,64
266697,note_off,0,0,1,,,,,,,,,,,,,,0,,,70,64
266697,note_off,0,0,1,,,,,,,,,,,,,,0,,,62,64
266697,note_off,140,0,1,,,,,,,,,,,,,,0,,,74,64
266717,note_on,0,0,1,,,,,,,,,,,,,,0,,,62,90
266717,note_on,0,0,1,,,,,,,,,,,,,,0,,,70,90
266717,note_on,20,0,1,,,,,,,,,,,,,,0,,,74,90
266857,note_off,0,0,1,,,,,,,,,,,,,,0,,,70,64
266857,note_off,0,0,1,,,,,,,,,,,,,,0,,,62,64
266857,note_off,140,0,1,,,,,,,,,,,,,,0,,,74,64
266880,note_on,23,0,1,,,,,,,,,,,,,,0,,,67,90
266880,note_on,0,0,3,,,,,,,,,,,,,,2,,,74,90
266880,note_off,480,0,3,,,,,,,,,,,,,,2,,,74,64
266880,note_on,250,0,2,,,,,,,,,,,,,,1,,,43,90
266882,note_on,0,0,1,,,,,,,,,,,,,,0,,,71,90
266882,note_on,0,0,1,,,,,,,,,,,,,,0,,,65,90
266882,note_on,2,0,1,,,,,,,,,,,,,,0,,,74,90
267020,note_off,138,0,1,,,,,,,,,,,,,,0,,,67,64
267020,note_off,140,0,2,,,,,,,,,,,,,,1,,,43,64
267022,note_off,0,0,1,,,,,,,,,,,,,,0,,,71,64
267022,note_off,0,0,1,,,,,,,,,,,,,,0,,,65,64
267022,note_off,2,0,1,,,,,,,,,,,,,,0,,,74,64
267040,note_on,20,0,2,,,,,,,,,,,,,,1,,,43,90
267040,note_on,18,0,1,,,,,,,,,,,,,,0,,,67,90
267042,note_on,0,0,1,,,,,,,,,,,,,,0,,,71,90
267042,note_on,2,0,1,,,,,,,,,,,,,,0,,,65,90
267042,note_on,0,0,1,,,,,,,,,,,,,,0,,,74,90
267180,note_off,140,0,2,,,,,,,,,,,,,,1,,,43,64
267180,note_off,138,0,1,,,,,,,,,,,,,,0,,,67,64
267182,note_off,0,0,1,,,,,,,,,,,,,,0,,,71,64
267182,note_off,0,0,1,,,,,,,,,,,,,,0,,,74,64
267182,note_off,2,0,1,,,,,,,,,,,,,,0,,,65,64
267200,note_on,18,0,1,,,,,,,,,,,,,,0,,,67,90
267200,note_on,20,0,2,,,,,,,,,,,,,,1,,,43,90
267202,note_on,0,0,1,,,,,,,,,,,,,,0,,,71,90
267202,note_on,0,0,1,,,,,,,,,,,,,,0,,,65,90
267202,note_on,2,0,1,,,,,,,,,,,,,,0,,,74,90
267340,note_off,138,0,1,,,,,,,,,,,,,,0,,,67,64
267340,note_off,140,0,2,,,,,,,,,,,,,,1,,,43,64
267342,note_off,0,0,1,,,,,,,,,,,,,,0,,,71,64
267342,note_off,0,0,1,,,,,,,,,,,,,,0,,,65,64
267342,note_off,2,0,1,,,,,,,,,,,,,,0,,,74,64
267360,note_on,20,0,2,,,,,,,,,,,,,,1,,,43,90
267360,note_on,18,0,1,,,,,,,,,,,,,,0,,,67,90
267362,note_on,0,0,1,,,,,,,,,,,,,,0,,,74,90
267362,note_on,2,0,1,,,,,,,,,,,,,,0,,,65,90
267362,note_on,0,0,1,,,,,,,,,,,,,,0,,,71,90
267500,note_off,140,0,2,,,,,,,,,,,,,,1,,,43,64
267500,note_off,138,0,1,,,,,,,,,,,,,,0,,,67,64
267502,note_off,0,0,1,,,,,,,,,,,,,,0,,,71,64
267502,note_off,2,0,1,,,,,,,,,,,,,,0,,,65,64
267502,note_off,0,0,1,,,,,,,,,,,,,,0,,,74,64
267520,note_on,18,0,1,,,,,,,,,,,,,,0,,,67,90
267520,note_on,20,0,2,,,,,,,,,,,,,,1,,,43,90
267522,note_on,0,0,1,,,,,,,,,,,,,,0,,,65,90
267522,note_on,0,0,1,,,,,,,,,,,,,,0,,,71,90
267522,note_on,2,0,1,,,,,,,,,,,,,,0,,,74,90
267660,note_off,138,0,1,,,,,,,,,,,,,,0,,,67,64
267660,note_off,140,0,2,,,,,,,,,,,,,,1,,,43,64
267662,note_off,2,0,1,,,,,,,,,,,,,,0,,,74,64
267662,note_off,0,0,1,,,,,,,,,,,,,,0,,,65,64
267662,note_off,0,0,1,,,,,,,,,,,,,,0,,,71,64
267680,note_on,20,0,2,,,,,,,,,,,,,,1,,,43,90
267680,note_on,18,0,1,,,,,,,,,,,,,,0,,,67,90
267682,note_on,2,0,1,,,,,,,,,,,,,,0,,,74,90
267682,note_on,0,0,1,,,,,,,,,,,,,,0,,,65,90
267682,note_on,0,0,1,,,,,,,,,,,,,,0,,,71,90
267820,note_off,140,0,2,,,,,,,,,,,,,,1,,,43,64
267820,note_off,138,0,1,,,,,,,,,,,,,,0,,,67,64
267822,note_off,2,0,1,,,,,,,,,,,,,,0,,,74,64
267822,note_off,0,0,1,,,,,,,,,,,,,,0,,,65,64
267822,note_off,0,0,1,,,,,,,,,,,,,,0,,,71,64
267840,note_off,960,0,3,,,,,,,,,,,,,,2,,,74,64
267840,note_on,0,0,3,,,,,,,,,,,,,,2,,,79,90
267840,note_on,18,0,1,,,,,,,,,,,,,,0,,,67,90
267840,note_on,20,0,2,,,,,,,,,,,,,,1,,,43,90
267842,note_on,2,0,1,,,,,,,,,,,,,,0,,,65,90
267842,note_on,0,0,1,,,,,,,,,,,,,,0,,,71,90
267842,note_on,0,0,1,,,,,,,,,,,,,,0,,,74,90
267980,note_off,140,0,2,,,,,,,,,,,,,,1,,,43,64
267980,note_off,138,0,1,,,,,,,,,,,,,,0,,,67,64
267982,note_off,2,0,1,,,,,,,,,,,,,,0,,,65,64
267982,note_off,0,0,1,,,,,,,,,,,,,,0,,,74,64
267982,note_off,0,0,1,,,,,,,,,,,,,,0,,,71,64
268000,note_on,18,0,1,,,,,,,,,,,,,,0,,,67,90
268000,note_on,20,0,2,,,,,,,,,,,,,,1,,,43,90
268002,note_on,2,0,1,,,,,,,,,,,,,,0,,,74,90
268002,note_on,0,0,1,,,,,,,,,,,,,,0,,,65,90
268002,note_on,0,0,1,,,,,,,,,,,,,,0,,,71,90
268140,note_off,138,0,1,,,,,,,,,,,,,,0,,,67,64
268140,note_off,140,0,2,,,,,,,,,,,,,,1,,,43,64
268142,note_off,0,0,1,,,,,,,,,,,,,,0,,,71,64
268142,note_off,0,0,1,,,,,,,,,,,,,,0,,,65,64
268142,note_off,2,0,1,,,,,,,,,,,,,,0,,,74,64
268160,note_on,20,0,2,,,,,,,,,,,,,,1,,,43,90
268160,note_on,18,0,1,,,,,,,,,,,,,,0,,,67,90
268162,note_on,2,0,1,,,,,,,,,,,,,,0,,,74,90
268162,note_on,0,0,1,,,,,,,,,,,,,,0,,,65,90
268162,note_on,0,0,1,,,,,,,,,,,,,,0,,,71,90
268300,note_off,140,0,2,,,,,,,,,,,,,,1,,,43,64
268300,note_off,138,0,1,,,,,,,,,,,,,,0,,,67,64
268302,note_off,2,0,1,,,,,,,,,,,,,,0,,,74,64
268302,note_off,0,0,1,,,,,,,,,,,,,,0,,,65,64
268302,note_off,0,0,1,,,,,,,,,,,,,,0,,,71,64
268320,note_on,18,0,1,,,,,,,,,,,,,,0,,,67,90
268320,note_on,20,0,2,,,,,,,,,,,,,,1,,,43,90
268322,note_on,2,0,1,,,,,,,,,,,,,,0,,,65,90
268322,note_on,0,0,1,,,,,,,,,,,,,,0,,,74,90
268322,note_on,0,0,1,,,,,,,,,,,,,,0,,,71,90
268460,note_off,140,0,2,,,,,,,,,,,,,,1,,,43,64
268460,note_off,138,0,1,,,,,,,,,,,,,,0,,,67,64
268462,note_off,2,0,1,,,,,,,,,,,,,,0,,,65,64
268462,note_off,0,0,1,,,,,,,,,,,,,,0,,,74,64
268462,note_off,0,0,1,,,,,,,,,,,,,,0,,,71,64
268480,note_on,18,0,1,,,,,,,,,,,,,,0,,,67,90
268480,note_on,20,0,2,,,,,,,,,,,,,,1,,,43,90
268482,note_on,2,0,1,,,,,,,,,,,,,,0,,,74,90
268482,note_on,0,0,1,,,,,,,,,,,,,,0,,,71,90
268482,note_on,0,0,1,,,,,,,,,,,,,,0,,,65,90
268560,note_on,0,0,3,,,,,,,,,,,,,,2,,,74,90
268560,note_off,720,0,3,,,,,,,,,,,,,,2,,,79,64
268620,note_off,140,0,2,,,,,,,,,,,,,,1,,,43,64
268620,note_off,138,0,1,,,,,,,,,,,,,,0,,,67,64
268622,note_off,2,0,1,,,,,,,,,,,,,,0,,,74,64
268622,note_off,0,0,1,,,,,,,,,,,,,,0,,,71,64
268622,note_off,0,0,1,,,,,,,,,,,,,,0,,,65,64
268640,note_on,20,0,2,,,,,,,,,,,,,,1,,,43,90
268640,note_on,18,0,1,,,,,,,,,,,,,,0,,,67,90
268642,note_on,2,0,1,,,,,,,,,,,,,,0,,,74,90
268642,note_on,0,0,1,,,,,,,,,,,,,,0,,,65,90
268642,note_on,0,0,1,,,,,,,,,,,,,,0,,,71,90
268780,note_off,140,0,2,,,,,,,,,,,,,,1,,,43,64
268780,note_off,138,0,1,,,,,,,,,,,,,,0,,,67,64
268782,note_off,0,0,1,,,,,,,,,,,,,,0,,,71,64
268782,note_off,0,0,1,,,,,,,,,,,,,,0,,,65,64
268782,note_off,2,0,1,,,,,,,,,,,,,,0,,,74,64
268796,note_on,0,0,1,,,,,,,,,,,,,,0,,,63,90
268796,note_on,0,0,1,,,,,,,,,,,,,,0,,,72,90
268796,note_on,14,0,1,,,,,,,,,,,,,,0,,,67,90
268796,note_on,16,0,2,,,,,,,,,,,,,,1,,,36,90
268800,note_off,240,0,3,,,,,,,,,,,,,,2,,,74,64
268800,note_on,0,0,3,,,,,,,,,,,,,,2,,,75,90
268936,note_off,140,0,1,,,,,,,,,,,,,,0,,,67,64
268936,note_off,0,0,1,,,,,,,,,,,,,,0,,,63,64
268936,note_off,0,0,1,,,,,,,,,,,,,,0,,,72,64
268956,note_on,0,0,1,,,,,,,,,,,,,,0,,,72,90
268956,note_on,0,0,2,,,,,,,,,,,,,,1,,,38,90
268956,note_off,160,0,2,,,,,,,,,,,,,,1,,,36,64
268956,note_on,20,0,1,,,,,,,,,,,,,,0,,,63,90
268956,note_on,0,0,1,,,,,,,,,,,,,,0,,,67,90
269096,note_off,0,0,1,,,,,,,,,,,,,,0,,,72,64
269096,note_off,140,0,1,,,,,,,,,,,,,,0,,,63,64
269096,note_off,0,0,1,,,,,,,,,,,,,,0,,,67,64
269116,note_on,0,0,2,,,,,,,,,,,,,,1,,,39,90
269116,note_off,160,0,2,,,,,,,,,,,,,,1,,,38,64
269116,note_on,20,0,1,,,,,,,,,,,,,,0,,,67,90
269116,note_on,0,0,1,,,,,,,,,,,,,,0,,,63,90
269116,note_on,0,0,1,,,,,,,,,,,,,,0,,,72,90
269256,note_off,0,0,1,,,,,,,,,,,,,,0,,,63,64
269256,note_off,0,0,1,,,,,,,,,,,,,,0,,,72,64
269256,note_off,140,0,1,,,,,,,,,,,,,,0,,,67,64
269276,note_on,0,0,2,,,,,,,,,,,,,,1,,,41,90
269276,note_off,160,0,2,,,,,,,,,,,,,,1,,,39,64
269276,note_on,20,0,1,,,,,,,,,,,,,,0,,,63,90
269276,note_on,0,0,1,,,,,,,,,,,,,,0,,,67,90
269276,note_on,0,0,1,,,,,,,,,,,,,,0,,,72,90
269416,note_off,0,0,1,,,,,,,,,,,,,,0,,,67,64
269416,note_off,0,0,1,,,,,,,,,,,,,,0,,,72,64
269416,note_off,140,0,1,,,,,,,,,,,,,,0,,,63,64
269436,note_on,20,0,1,,,,,,,,,,,,,,0,,,67,90
269436,note_on,0,0,1,,,,,,,,,,,,,,0,,,72,90
269436,note_on,0,0,1,,,,,,,,,,,,,,0,,,63,90
269436,note_off,160,0,2,,,,,,,,,,,,,,1,,,41,64
269436,note_on,0,0,2,,,,,,,,,,,,,,1,,,43,90
269576,note_off,0,0,1,,,,,,,,,,,,,,0,,,63,64
269576,note_off,0,0,1,,,,,,,,,,,,,,0,,,72,64
269576,note_off,140,0,1,,,,,,,,,,,,,,0,,,67,64
269596,note_on,0,0,1,,,,,,,,,,,,,,0,,,72,90
269596,note_on,0,0,2,,,,,,,,,,,,,,1,,,44,90
269596,note_on,0,0,1,,,,,,,,,,,,,,0,,,63,90
269596,note_on,20,0,1,,,,,,,,,,,,,,0,,,67,90
269596,note_off,160,0,2,,,,,,,,,,,,,,1,,,43,64
269736,note_off,140,0,1,,,,,,,,,,,,,,0,,,67,64
269736,note_off,0,0,1,,,,,,,,,,,,,,0,,,63,64
269736,note_off,0,0,1,,,,,,,,,,,,,,0,,,72,64
269756,note_off,160,0,2,,,,,,,,,,,,,,1,,,44,64
269756,note_on,0,0,2,,,,,,,,,,,,,,1,,,43,90
269756,note_on,20,0,1,,,,,,,,,,,,,,0,,,63,90
269756,note_on,0,0,1,,,,,,,,,,,,,,0,,,67,90
269756,note_on,0,0,1,,,,,,,,,,,,,,0,,,72,90
269760,note_off,960,0,3,,,,,,,,,,,,,,2,,,75,64
269896,note_off,0,0,1,,,,,,,,,,,,,,0,,,67,64
269896,note_off,140,0,1,,,,,,,,,,,,,,0,,,63,64
269896,note_off,0,0,1,,,,,,,,,,,,,,0,,,72,64
269916,note_on,20,0,1,,,,,,,,,,,,,,0,,,67,90
269916,note_on,0,0,1,,,,,,,,,,,,,,0,,,72,90
269916,note_on,0,0,1,,,,,,,,,,,,,,0,,,63,90
269986,note_off,230,0,2,,,,,,,,,,,,,,1,,,43,64
270056,note_off,0,0,1,,,,,,,,,,,,,,0,,,63,64
270056,note_off,140,0,1,,,,,,,,,,,,,,0,,,67,64
270056,note_off,0,0,1,,,,,,,,,,,,,,0,,,72,64
270076,note_on,20,0,1,,,,,,,,,,,,,,0,,,67,90
270076,note_on,0,0,1,,,,,,,,,,,,,,0,,,63,90
270076,note_on,0,0,1,,,,,,,,,,,,,,0,,,72,90
270216,note_off,0,0,1,,,,,,,,,,,,,,0,,,63,64
270216,note_off,140,0,1,,,,,,,,,,,,,,0,,,67,64
270216,note_off,0,0,1,,,,,,,,,,,,,,0,,,72,64
270236,note_on,250,0,2,,,,,,,,,,,,,,1,,,39,90
270236,note_on,0,0,1,,,,,,,,,,,,,,0,,,72,90
270236,note_on,20,0,1,,,,,,,,,,,,,,0,,,63,90
270236,note_on,0,0,1,,,,,,,,,,,,,,0,,,67,90
270376,note_off,0,0,1,,,,,,,,,,,,,,0,,,67,64
270376,note_off,140,0,1,,,,,,,,,,,,,,0,,,63,64
270376,note_off,0,0,1,,,,,,,,,,,,,,0,,,72,64
270396,note_on,20,0,1,,,,,,,,,,,,,,0,,,67,90
270396,note_on,0,0,1,,,,,,,,,,,,,,0,,,72,90
270396,note_on,0,0,1,,,,,,,,,,,,,,0,,,63,90
270466,note_off,230,0,2,,,,,,,,,,,,,,1,,,39,64
270536,note_off,0,0,1,,,,,,,,,,,,,,0,,,63,64
270536,note_off,0,0,1,,,,,,,,,,,,,,0,,,72,64
270536,note_off,140,0,1,,,,,,,,,,,,,,0,,,67,64
270556,note_on,20,0,1,,,,,,,,,,,,,,0,,,67,90
270556,note_on,0,0,1,,,,,,,,,,,,,,0,,,63,90
270556,note_on,0,0,1,,,,,,,,,,,,,,0,,,72,90
270696,note_off,140,0,1,,,,,,,,,,,,,,0,,,67,64
270696,note_off,0,0,1,,,,,,,,,,,,,,0,,,63,64
270696,note_off,0,0,1,,,,,,,,,,,,,,0,,,72,64
270716,note_on,20,0,1,,,,,,,,,,,,,,0,,,72,90
270716,note_on,0,0,1,,,,,,,,,,,,,,0,,,60,90
270720,note_on,254,0,2,,,,,,,,,,,,,,1,,,36,121
270856,note_off,140,0,1,,,,,,,,,,,,,,0,,,72,64
270856,note_off,0,0,1,,,,,,,,,,,,,,0,,,60,64
270876,note_on,0,0,1,,,,,,,,,,,,,,0,,,72,90
270876,note_on,20,0,1,,,,,,,,,,,,,,0,,,60,90
271016,note_off,0,0,1,,,,,,,,,,,,,,0,,,72,64
271016,note_off,140,0,1,,,,,,,,,,,,,,0,,,60,64
271036,note_on,20,0,1,,,,,,,,,,,,,,0,,,72,90
271036,note_on,0,0,1,,,,,,,,,,,,,,0,,,60,90
271176,note_off,140,0,1,,,,,,,,,,,,,,0,,,72,64
271176,note_off,0,0,1,,,,,,,,,,,,,,0,,,60,64
271196,note_on,0,0,1,,,,,,,,,,,,,,0,,,72,90
271196,note_on,20,0,1,,,,,,,,,,,,,,0,,,60,90
271336,note_off,0,0,1,,,,,,,,,,,,,,0,,,72,64
271336,note_off,140,0,1,,,,,,,,,,,,,,0,,,60,64
271356,note_on,0,0,1,,,,,,,,,,,,,,0,,,60,90
271356,note_on,20,0,1,,,,,,,,,,,,,,0,,,72,90
271496,note_off,0,0,1,,,,,,,,,,,,,,0,,,60,64
271496,note_off,140,0,1,,,,,,,,,,,,,,0,,,72,64
271516,note_on,0,0,1,,,,,,,,,,,,,,0,,,60,90
271516,note_on,20,0,1,,,,,,,,,,,,,,0,,,72,90
271656,note_off,0,0,1,,,,,,,,,,,,,,0,,,60,64
271656,note_off,140,0,1,,,,,,,,,,,,,,0,,,72,64
271676,note_on,20,0,1,,,,,,,,,,,,,,0,,,60,90
271676,note_on,0,0,1,,,,,,,,,,,,,,0,,,72,90
271680,note_off,960,0,2,,,,,,,,,,,,,,1,,,36,64
271680,note_on,0,0,2,,,,,,,,,,,,,,1,,,37,115
271816,note_off,140,0,1,,,,,,,,,,,,,,0,,,60,64
271816,note_off,0,0,1,,,,,,,,,,,,,,0,,,72,64
271836,note_on,20,0,1,,,,,,,,,,,,,,0,,,72,90
271836,note_on,0,0,1,,,,,,,,,,,,,,0,,,60,90
271976,note_off,140,0,1,,,,,,,,,,,,,,0,,,72,64
271976,note_off,0,0,1,,,,,,,,,,,,,,0,,,60,64
271996,note_on,0,0,1,,,,,,,,,,,,,,0,,,60,90
271996,note_on,20,0,1,,,,,,,,,,,,,,0,,,72,90
272028,note_off,348,0,2,,,,,,,,,,,,,,1,,,37,64
272136,note_off,0,0,1,,,,,,,,,,,,,,0,,,60,64
272136,note_off,140,0,1,,,,,,,,,,,,,,0,,,72,64
272160,note_on,132,0,2,,,,,,,,,,,,,,1,,,38,112
272160,note_on,0,0,1,,,,,,,,,,,,,,0,,,72,90
272160,note_on,24,0,1,,,,,,,,,,,,,,0,,,60,90
272300,note_off,0,0,1,,,,,,,,,,,,,,0,,,72,64
272300,note_off,140,0,1,,,,,,,,,,,,,,0,,,60,64
272320,note_on,0,0,1,,,,,,,,,,,,,,0,,,60,90
272320,note_on,20,0,1,,,,,,,,,,,,,,0,,,72,90
272460,note_off,0,0,1,,,,,,,,,,,,,,0,,,60,64
272460,note_off,140,0,1,,,,,,,,,,,,,,0,,,72,64
272480,note_on,20,0,1,,,,,,,,,,,,,,0,,,72,90
272480,note_on,0,0,1,,,,,,,,,,,,,,0,,,60,90
272508,note_off,348,0,2,,,,,,,,,,,,,,1,,,38,64
272547,control_change,2787,0,3,,,,,,,,,,,,,,2,11,110,,
272620,note_off,140,0,1,,,,,,,,,,,,,,0,,,72,64
272620,note_off,0,0,1,,,,,,,,,,,,,,0,,,60,64
272640,note_on,20,0,1,,,,,,,,,,,,,,0,,,72,90
272640,note_on,0,0,1,,,,,,,,,,,,,,0,,,60,90
272640,note_on,132,0,2,,,,,,,,,,,,,,1,,,39,109
272780,note_off,0,0,1,,,,,,,,,,,,,,0,,,60,64
272780,note_off,140,0,1,,,,,,,,,,,,,,0,,,72,64
272800,note_on,20,0,1,,,,,,,,,,,,,,0,,,60,90
272800,note_on,0,0,1,,,,,,,,,,,,,,0,,,72,90
272940,note_off,0,0,1,,,,,,,,,,,,,,0,,,72,64
272940,note_off,140,0,1,,,,,,,,,,,,,,0,,,60,64
272960,note_on,20,0,1,,,,,,,,,,,,,,0,,,72,90
272960,note_on,0,0,1,,,,,,,,,,,,,,0,,,60,90
272988,note_off,348,0,2,,,,,,,,,,,,,,1,,,39,64
273100,note_off,0,0,1,,,,,,,,,,,,,,0,,,60,64
273100,note_off,140,0,1,,,,,,,,,,,,,,0,,,72,64
273120,note_on,20,0,1,,,,,,,,,,,,,,0,,,60,90
273120,note_on,0,0,1,,,,,,,,,,,,,,0,,,72,90
273120,note_on,132,0,2,,,,,,,,,,,,,,1,,,40,106
273260,note_off,0,0,1,,,,,,,,,,,,,,0,,,72,64
273260,note_off,140,0,1,,,,,,,,,,,,,,0,,,60,64
273280,note_on,20,0,1,,,,,,,,,,,,,,0,,,72,90
273280,note_on,0,0,1,,,,,,,,,,,,,,0,,,60,90
273420,note_off,0,0,1,,,,,,,,,,,,,,0,,,60,64
273420,note_off,140,0,1,,,,,,,,,,,,,,0,,,72,64
273440,note_on,0,0,1,,,,,,,,,,,,,,0,,,60,90
273440,note_on,20,0,1,,,,,,,,,,,,,,0,,,72,90
273468,note_off,348,0,2,,,,,,,,,,,,,,1,,,40,64
273580,note_off,0,0,1,,,,,,,,,,,,,,0,,,60,64
273580,note_off,140,0,1,,,,,,,,,,,,,,0,,,72,64
273600,note_on,0,0,1,,,,,,,,,,,,,,0,,,72,90
273600,note_on,132,0,2,,,,,,,,,,,,,,1,,,41,103
273600,note_on,20,0,1,,,,,,,,,,,,,,0,,,60,90
273740,note_off,0,0,1,,,,,,,,,,,,,,0,,,72,64
273740,note_off,140,0,1,,,,,,,,,,,,,,0,,,60,64
273760,note_on,0,0,1,,,,,,,,,,,,,,0,,,60,90
273760,note_on,20,0,1,,,,,,,,,,,,,,0,,,72,90
273900,note_off,0,0,1,,,,,,,,,,,,,,0,,,60,64
273900,note_off,140,0,1,,,,,,,,,,,,,,0,,,72,64
273920,note_on,0,0,1,,,,,,,,,,,,,,0,,,60,90
273920,note_on,20,0,1,,,,,,,,,,,,,,0,,,72,90
273948,note_off,348,0,2,,,,,,,,,,,,,,1,,,41,64
274060,note_off,0,0,1,,,,,,,,,,,,,,0,,,60,64
274060,note_off,140,0,1,,,,,,,,,,,,,,0,,,72,64
274080,note_on,0,0,1,,,,,,,,,,,,,,0,,,72,90
274080,note_on,1533,0,3,,,,,,,,,,,,,,2,,,72,90
274080,note_on,132,0,2,,,,,,,,,,,,,,1,,,43,100
274080,note_on,20,0,1,,,,,,,,,,,,,,0,,,60,90
274220,note_off,0,0,1,,,,,,,,,,,,,,0,,,72,64
274220,note_off,140,0,1,,,,,,,,,,,,,,0,,,60,64
274240,note_on,20,0,1,,,,,,,,,,,,,,0,,,72,90
274240,note_on,0,0,1,,,,,,,,,,,,,,0,,,60,90
274252,set_tempo,10197,1,0,,,,,,,390054,,,,,,,,,,,
274380,note_off,140,0,1,,,,,,,,,,,,,,0,,,72,64
274380,note_off,0,0,1,,,,,,,,,,,,,,0,,,60,64
274400,note_on,0,0,1,,,,,,,,,,,,,,0,,,60,90
274400,note_on,20,0,1,,,,,,,,,,,,,,0,,,72,90
274428,note_off,348,0,2,,,,,,,,,,,,,,1,,,43,64
274472,control_change,44,0,2,,,,,,,,,,,,,,1,11,94,,
274492,set_tempo,240,1,0,,,,,,,399102,,,,,,,,,,,
274538,control_change,66,0,2,,,,,,,,,,,,,,1,11,94,,
274538,control_change,138,0,1,,,,,,,,,,,,,,0,11,92,,
274540,note_off,0,0,1,,,,,,,,,,,,,,0,,,60,64
274540,note_off,2,0,1,,,,,,,,,,,,,,0,,,72,64
274560,note_on,0,0,1,,,,,,,,,,,,,,0,,,72,64
274560,note_on,0,0,1,,,,,,,,,,,,,,0,,,60,64
274560,note_on,0,0,1,,,,,,,,,,,,,,0,,,68,64
274560,note_on,20,0,1,,,,,,,,,,,,,,0,,,63,64
274560,note_off,480,0,3,,,,,,,,,,,,,,2,,,72,64
274560,note_on,0,0,2,,,,,,,,,,,,,,1,,,44,90
274560,note_on,22,0,2,,,,,,,,,,,,,,1,,,56,90
274560,note_on,0,0,3,,,,,,,,,,,,,,2,,,72,90
274700,note_off,0,0,2,,,,,,,,,,,,,,1,,,44,64
274700,note_off,140,0,2,,,,,,,,,,,,,,1,,,56,64
274700,note_off,140,0,1,,,,,,,,,,,,,,0,,,63,64
274700,note_off,0,0,1,,,,,,,,,,,,,,0,,,68,64
274700,note_off,0,0,1,,,,,,,,,,,,,,0,,,60,64
274700,note_off,0,0,1,,,,,,,,,,,,,,0,,,72,64
274720,note_on,20,0,2,,,,,,,,,,,,,,1,,,56,90
274720,note_on,0,0,1,,,,,,,,,,,,,,0,,,68,64
274720,note_on,20,0,1,,,,,,,,,,,,,,0,,,63,64
274720,note_on,0,0,1,,,,,,,,,,,,,,0,,,60,64
274720,note_on,0,0,2,,,,,,,,,,,,,,1,,,44,90
274720,note_on,0,0,1,,,,,,,,,,,,,,0,,,72,64
274732,set_tempo,240,1,0,,,,,,,410172,,,,,,,,,,,
274797,control_change,77,0,1,,,,,,,,,,,,,,0,11,91,,
274854,control_change,134,0,2,,,,,,,,,,,,,,1,11,93,,
274860,note_off,63,0,1,,,,,,,,,,,,,,0,,,63,64
274860,note_off,0,0,1,,,,,,,,,,,,,,0,,,60,64
274860,note_off,0,0,1,,,,,,,,,,,,,,0,,,68,64
274860,note_off,0,0,1,,,,,,,,,,,,,,0,,,72,64
274860,note_off,0,0,2,,,,,,,,,,,,,,1,,,44,64
274860,note_off,6,0,2,,,,,,,,,,,,,,1,,,56,64
274880,note_on,20,0,1,,,,,,,,,,,,,,0,,,63,64
274880,note_on,0,0,1,,,,,,,,,,,,,,0,,,60,64
274880,note_on,0,0,1,,,,,,,,,,,,,,0,,,68,64
274880,note_on,0,0,2,,,,,,,,,,,,,,1,,,44,90
274880,note_on,20,0,2,,,,,,,,,,,,,,1,,,56,90
274880,note_on,0,0,1,,,,,,,,,,,,,,0,,,72,64
274972,set_tempo,240,1,0,,,,,,,421072,,,,,,,,,,,
275020,note_off,0,0,2,,,,,,,,,,,,,,1,,,44,64
275020,note_off,140,0,2,,,,,,,,,,,,,,1,,,56,64
275020,note_off,140,0,1,,,,,,,,,,,,,,0,,,63,64
275020,note_off,0,0,1,,,,,,,,,,,,,,0,,,60,64
275020,note_off,0,0,1,,,,,,,,,,,,,,0,,,72,64
275020,note_off,0,0,1,,,,,,,,,,,,,,0,,,68,64
275040,note_on,20,0,1,,,,,,,,,,,,,,0,,,63,64
275040,note_on,0,0,1,,,,,,,,,,,,,,0,,,60,64
275040,note_on,0,0,1,,,,,,,,,,,,,,0,,,68,64
275040,note_on,20,0,2,,,,,,,,,,,,,,1,,,56,90
275040,note_on,0,0,2,,,,,,,,,,,,,,1,,,44,90
275040,note_on,0,0,1,,,,,,,,,,,,,,0,,,72,64
275057,control_change,17,0,1,,,,,,,,,,,,,,0,11,90,,
275171,control_change,131,0,2,,,,,,,,,,,,,,1,11,92,,
275180,note_off,0,0,1,,,,,,,,,,,,,,0,,,72,64
275180,note_off,0,0,1,,,,,,,,,,,,,,0,,,68,64
275180,note_off,0,0,1,,,,,,,,,,,,,,0,,,60,64
275180,note_off,123,0,1,,,,,,,,,,,,,,0,,,63,64
275180,note_off,9,0,2,,,,,,,,,,,,,,1,,,56,64
275180,note_off,0,0,2,,,,,,,,,,,,,,1,,,44,64
275200,note_on,0,0,2,,,,,,,,,,,,,,1,,,44,90
275200,note_on,20,0,2,,,,,,,,,,,,,,1,,,56,90
275200,note_on,20,0,1,,,,,,,,,,,,,,0,,,63,64
275200,note_on,0,0,1,,,,,,,,,,,,,,0,,,68,64
275200,note_on,0,0,1,,,,,,,,,,,,,,0,,,60,64
275200,note_on,0,0,1,,,,,,,,,,,,,,0,,,72,64
275212,set_tempo,240,1,0,,,,,,,432085,,,,,,,,,,,
275316,control_change,116,0,1,,,,,,,,,,,,,,0,11,89,,
275340,note_off,24,0,1,,,,,,,,,,,,,,0,,,63,64
275340,note_off,0,0,2,,,,,,,,,,,,,,1,,,44,64
275340,note_off,0,0,1,,,,,,,,,,,,,,0,,,60,64
275340,note_off,0,0,1,,,,,,,,,,,,,,0,,,72,64
275340,note_off,0,0,1,,,,,,,,,,,,,,0,,,68,64
275340,note_off,140,0,2,,,,,,,,,,,,,,1,,,56,64
275360,note_on,20,0,1,,,,,,,,,,,,,,0,,,63,64
275360,note_on,0,0,1,,,,,,,,,,,,,,0,,,68,64
275360,note_on,0,0,1,,,,,,,,,,,,,,0,,,60,64
275360,note_on,0,0,1,,,,,,,,,,,,,,0,,,72,64
275360,note_on,0,0,2,,,,,,,,,,,,,,1,,,44,90
275360,note_on,20,0,2,,,,,,,,,,,,,,1,,,56,90
275487,control_change,127,0,2,,,,,,,,,,,,,,1,11,91,,
275500,note_off,0,0,2,,,,,,,,,,,,,,1,,,44,64
275500,note_off,13,0,2,,,,,,,,,,,,,,1,,,56,64
275500,note_off,0,0,1,,,,,,,,,,,,,,0,,,68,64
275500,note_off,0,0,1,,,,,,,,,,,,,,0,,,72,64
275500,note_off,0,0,1,,,,,,,,,,,,,,0,,,60,64
275500,note_off,140,0,1,,,,,,,,,,,,,,0,,,63,64
275520,note_on,0,0,1,,,,,,,,,,,,,,0,,,60,64
275520,note_on,20,0,1,,,,,,,,,,,,,,0,,,63,64
275520,note_on,20,0,2,,,,,,,,,,,,,,1,,,56,90
275520,note_on,0,0,2,,,,,,,,,,,,,,1,,,44,90
275520,note_on,0,0,1,,,,,,,,,,,,,,0,,,68,64
275520,note_on,0,0,1,,,,,,,,,,,,,,0,,,72,64
275576,control_change,56,0,1,,,,,,,,,,,,,,0,11,88,,
275660,note_off,0,0,2,,,,,,,,,,,,,,1,,,44,64
275660,note_off,140,0,2,,,,,,,,,,,,,,1,,,56,64
275660,note_off,84,0,1,,,,,,,,,,,,,,0,,,63,64
275660,note_off,0,0,1,,,,,,,,,,,,,,0,,,72,64
275660,note_off,0,0,1,,,,,,,,,,,,,,0,,,60,64
275660,note_off,0,0,1,,,,,,,,,,,,,,0,,,68,64
275680,note_on,0,0,1,,,,,,,,,,,,,,0,,,60,64
275680,note_on,0,0,1,,,,,,,,,,,,,,0,,,68,64
275680,note_on,20,0,1,,,,,,,,,,,,,,0,,,63,64
275680,note_on,0,0,1,,,,,,,,,,,,,,0,,,72,64
275680,note_on,0,0,2,,,,,,,,,,,,,,1,,,44,90
275680,note_on,20,0,2,,,,,,,,,,,,,,1,,,56,90
275804,control_change,124,0,2,,,,,,,,,,,,,,1,11,90,,
275820,note_off,0,0,1,,,,,,,,,,,,,,0,,,60,64
275820,note_off,0,0,1,,,,,,,,,,,,,,0,,,68,64
275820,note_off,140,0,1,,,,,,,,,,,,,,0,,,63,64
275820,note_off,16,0,2,,,,,,,,,,,,,,1,,,56,64
275820,note_off,0,0,2,,,,,,,,,,,,,,1,,,44,64
275820,note_off,0,0,1,,,,,,,,,,,,,,0,,,72,64
275835,control_change,15,0,1,,,,,,,,,,,,,,0,11,87,,
275840,note_on,5,0,1,,,,,,,,,,,,,,0,,,63,64
275840,note_on,0,0,1,,,,,,,,,,,,,,0,,,68,64
275840,note_on,0,0,1,,,,,,,,,,,,,,0,,,60,64
275840,note_on,0,0,2,,,,,,,,,,,,,,1,,,44,90
275840,note_on,20,0,2,,,,,,,,,,,,,,1,,,56,90
275840,note_on,0,0,1,,,,,,,,,,,,,,0,,,72,64
275980,note_off,0,0,1,,,,,,,,,,,,,,0,,,60,64
275980,note_off,0,0,2,,,,,,,,,,,,,,1,,,44,64
275980,note_off,0,0,1,,,,,,,,,,,,,,0,,,68,64
275980,note_off,140,0,1,,,,,,,,,,,,,,0,,,63,64
275980,note_off,0,0,1,,,,,,,,,,,,,,0,,,72,64
275980,note_off,140,0,2,,,,,,,,,,,,,,1,,,56,64
276000,note_off,1440,0,3,,,,,,,,,,,,,,2,,,72,64
276000,note_on,0,0,2,,,,,,,,,,,,,,1,,,44,90
276000,note_on,0,0,1,,,,,,,,,,,,,,0,,,68,64
276000,note_on,0,0,1,,,,,,,,,,,,,,0,,,60,64
276000,note_on,20,0,1,,,,,,,,,,,,,,0,,,63,64
276000,note_on,0,0,3,,,,,,,,,,,,,,2,,,68,90
276000,note_on,20,0,2,,,,,,,,,,,,,,1,,,56,90
276000,note_on,0,0,1,,,,,,,,,,,,,,0,,,72,64
276095,control_change,95,0,1,,,,,,,,,,,,,,0,11,86,,
276120,control_change,120,0,2,,,,,,,,,,,,,,1,11,89,,
276140,note_off,0,0,1,,,,,,,,,,,,,,0,,,68,64
276140,note_off,0,0,2,,,,,,,,,,,,,,1,,,44,64
276140,note_off,0,0,1,,,,,,,,,,,,,,0,,,72,64
276140,note_off,0,0,1,,,,,,,,,,,,,,0,,,60,64
276140,note_off,45,0,1,,,,,,,,,,,,,,0,,,63,64
276140,note_off,20,0,2,,,,,,,,,,,,,,1,,,56,64
276160,note_on,0,0,2,,,,,,,,,,,,,,1,,,44,90
276160,note_on,0,0,1,,,,,,,,,,,,,,0,,,68,64
276160,note_on,20,0,2,,,,,,,,,,,,,,1,,,56,90
276160,note_on,20,0,1,,,,,,,,,,,,,,0,,,63,64
276160,note_on,0,0,1,,,,,,,,,,,,,,0,,,60,64
276160,note_on,0,0,1,,,,,,,,,,,,,,0,,,72,64
276300,note_off,0,0,1,,,,,,,,,,,,,,0,,,60,64
276300,note_off,140,0,2,,,,,,,,,,,,,,1,,,56,64
276300,note_off,140,0,1,,,,,,,,,,,,,,0,,,63,64
276300,note_off,0,0,1,,,,,,,,,,,,,,0,,,68,64
276300,note_off,0,0,1,,,,,,,,,,,,,,0,,,72,64
276300,note_off,0,0,2,,,,,,,,,,,,,,1,,,44,64
276320,note_on,0,0,1,,,,,,,,,,,,,,0,,,72,64
276320,note_on,20,0,2,,,,,,,,,,,,,,1,,,56,90
276320,note_on,20,0,1,,,,,,,,,,,,,,0,,,63,64
276320,note_on,0,0,2,,,,,,,,,,,,,,1,,,44,90
276320,note_on,0,0,1,,,,,,,,,,,,,,0,,,60,64
276320,note_on,0,0,1,,,,,,,,,,,,,,0,,,68,64
276354,control_change,34,0,1,,,,,,,,,,,,,,0,11,85,,
276437,control_change,117,0,2,,,,,,,,,,,,,,1,11,88,,
276460,note_off,23,0,2,,,,,,,,,,,,,,1,,,56,64
276460,note_off,0,0,2,,,,,,,,,,,,,,1,,,44,64
276460,note_off,0,0,1,,,,,,,,,,,,,,0,,,72,64
276460,note_off,106,0,1,,,,,,,,,,,,,,0,,,63,64
276460,note_off,0,0,1,,,,,,,,,,,,,,0,,,68,64
276460,note_off,0,0,1,,,,,,,,,,,,,,0,,,60,64
276480,note_off,480,0,3,,,,,,,,,,,,,,2,,,68,64
276480,note_on,0,0,1,,,,,,,,,,,,,,0,,,70,64
276480,note_on,0,0,1,,,,,,,,,,,,,,0,,,61,64
276480,note_on,0,0,2,,,,,,,,,,,,,,1,,,44,90
276480,note_on,20,0,2,,,,,,,,,,,,,,1,,,56,90
276480,note_on,0,0,3,,,,,,,,,,,,,,2,,,73,90
276480,note_on,20,0,1,,,,,,,,,,,,,,0,,,64,64
276480,note_on,0,0,1,,,,,,,,,,,,,,0,,,67,64
276614,control_change,134,0,1,,,,,,,,,,,,,,0,11,84,,
276620,note_off,0,0,1,,,,,,,,,,,,,,0,,,61,64
276620,note_off,0,0,1,,,,,,,,,,,,,,0,,,67,64
276620,note_off,6,0,1,,,,,,,,,,,,,,0,,,64,64
276620,note_off,140,0,2,,,,,,,,,,,,,,1,,,56,64
276620,note_off,0,0,1,,,,,,,,,,,,,,0,,,70,64
276620,note_off,0,0,2,,,,,,,,,,,,,,1,,,44,64
276640,note_on,20,0,2,,,,,,,,,,,,,,1,,,56,90
276640,note_on,0,0,1,,,,,,,,,,,,,,0,,,70,64
276640,note_on,0,0,2,,,,,,,,,,,,,,1,,,44,90
276640,note_on,20,0,1,,,,,,,,,,,,,,0,,,64,64
276640,note_on,0,0,1,,,,,,,,,,,,,,0,,,61,64
276640,note_on,0,0,1,,,,,,,,,,,,,,0,,,67,64
276652,set_tempo,1440,1,0,,,,,,,497920,,,,,,,,,,,
276753,control_change,113,0,2,,,,,,,,,,,,,,1,11,87,,
276780,note_off,0,0,1,,,,,,,,,,,,,,0,,,70,64
276780,note_off,0,0,1,,,,,,,,,,,,,,0,,,67,64
276780,note_off,0,0,1,,,,,,,,,,,,,,0,,,61,64
276780,note_off,0,0,2,,,,,,,,,,,,,,1,,,44,64
276780,note_off,27,0,2,,,,,,,,,,,,,,1,,,56,64
276780,note_off,140,0,1,,,,,,,,,,,,,,0,,,64,64
276800,note_on,0,0,1,,,,,,,,,,,,,,0,,,61,64
276800,note_on,20,0,1,,,,,,,,,,,,,,0,,,64,64
276800,note_on,0,0,1,,,,,,,,,,,,,,0,,,67,64
276800,note_on,20,0,2,,,,,,,,,,,,,,1,,,56,90
276800,note_on,0,0,1,,,,,,,,,,,,,,0,,,70,64
276800,note_on,0,0,2,,,,,,,,,,,,,,1,,,44,90
276873,control_change,73,0,1,,,,,,,,,,,,,,0,11,83,,
276892,set_tempo,240,1,0,,,,,,,509002,,,,,,,,,,,
276940,note_off,140,0,2,,,,,,,,,,,,,,1,,,56,64
276940,note_off,0,0,2,,,,,,,,,,,,,,1,,,44,64
276940,note_off,0,0,1,,,,,,,,,,,,,,0,,,70,64
276940,note_off,67,0,1,,,,,,,,,,,,,,0,,,64,64
276940,note_off,0,0,1,,,,,,,,,,,,,,0,,,67,64
276940,note_off,0,0,1,,,,,,,,,,,,,,0,,,61,64
276960,note_on,20,0,2,,,,,,,,,,,,,,1,,,56,90
276960,note_on,0,0,2,,,,,,,,,,,,,,1,,,44,90
276960,note_on,20,0,1,,,,,,,,,,,,,,0,,,64,64
276960,note_on,0,0,1,,,,,,,,,,,,,,0,,,61,64
276960,note_on,0,0,1,,,,,,,,,,,,,,0,,,67,64
276960,note_on,0,0,1,,,,,,,,,,,,,,0,,,70,64
277070,control_change,110,0,2,,,,,,,,,,,,,,1,11,86,,
277100,note_off,0,0,1,,,,,,,,,,,,,,0,,,70,64
277100,note_off,0,0,1,,,,,,,,,,,,,,0,,,67,64
277100,note_off,140,0,1,,,,,,,,,,,,,,0,,,64,64
277100,note_off,0,0,2,,,,,,,,,,,,,,1,,,44,64
277100,note_off,30,0,2,,,,,,,,,,,,,,1,,,56,64
277100,note_off,0,0,1,,,,,,,,,,,,,,0,,,61,64
277120,note_on,0,0,1,,,,,,,,,,,,,,0,,,67,64
277120,note_on,0,0,1,,,,,,,,,,,,,,0,,,70,64
277120,note_on,0,0,1,,,,,,,,,,,,,,0,,,61,64
277120,note_on,20,0,1,,,,,,,,,,,,,,0,,,64,64
277120,note_on,20,0,2,,,,,,,,,,,,,,1,,,56,90
277120,note_on,0,0,2,,,,,,,,,,,,,,1,,,44,90
277132,set_tempo,240,1,0,,,,,,,519935,,,,,,,,,,,
277133,control_change,13,0,1,,,,,,,,,,,,,,0,11,82,,
277200,note_on,0,0,3,,,,,,,,,,,,,,2,,,70,90
277200,note_off,720,0,3,,,,,,,,,,,,,,2,,,73,64
277260,note_off,127,0,1,,,,,,,,,,,,,,0,,,64,64
277260,note_off,0,0,1,,,,,,,,,,,,,,0,,,67,64
277260,note_off,0,0,1,,,,,,,,,,,,,,0,,,61,64
277260,note_off,0,0,1,,,,,,,,,,,,,,0,,,70,64
277260,note_off,140,0,2,,,,,,,,,,,,,,1,,,56,64
277260,note_off,0,0,2,,,,,,,,,,,,,,1,,,44,64
277280,note_on,20,0,2,,,,,,,,,,,,,,1,,,56,90
277280,note_on,0,0,2,,,,,,,,,,,,,,1,,,44,90
277280,note_on,0,0,1,,,,,,,,,,,,,,0,,,61,64
277280,note_on,0,0,1,,,,,,,,,,,,,,0,,,70,64
277280,note_on,0,0,1,,,,,,,,,,,,,,0,,,67,64
277280,note_on,20,0,1,,,,,,,,,,,,,,0,,,64,64
277372,set_tempo,240,1,0,,,,,,,531143,,,,,,,,,,,
277387,control_change,107,0,2,,,,,,,,,,,,,,1,11,85,,
277392,control_change,112,0,1,,,,,,,,,,,,,,0,11,81,,
277420,note_off,0,0,1,,,,,,,,,,,,,,0,,,67,64
277420,note_off,0,0,1,,,,,,,,,,,,,,0,,,61,64
277420,note_off,28,0,1,,,,,,,,,,,,,,0,,,64,64
277420,note_off,0,0,1,,,,,,,,,,,,,,0,,,70,64
277420,note_off,0,0,2,,,,,,,,,,,,,,1,,,44,64
277420,note_off,33,0,2,,,,,,,,,,,,,,1,,,56,64
277440,note_off,240,0,3,,,,,,,,,,,,,,2,,,70,64
277440,note_on,0,0,2,,,,,,,,,,,,,,1,,,44,90
277440,note_on,20,0,2,,,,,,,,,,,,,,1,,,56,90
277440,note_on,20,0,1,,,,,,,,,,,,,,0,,,64,64
277440,note_on,0,0,3,,,,,,,,,,,,,,2,,,67,90
277440,note_on,0,0,1,,,,,,,,,,,,,,0,,,61,64
277440,note_on,0,0,1,,,,,,,,,,,,,,0,,,67,64
277440,note_on,0,0,1,,,,,,,,,,,,,,0,,,70,64
277580,note_off,0,0,1,,,,,,,,,,,,,,0,,,70,64
277580,note_off,0,0,2,,,,,,,,,,,,,,1,,,44,64
277580,note_off,0,0,1,,,,,,,,,,,,,,0,,,67,64
277580,note_off,140,0,1,,,,,,,,,,,,,,0,,,64,64
277580,note_off,140,0,2,,,,,,,,,,,,,,1,,,56,64
277580,note_off,0,0,1,,,,,,,,,,,,,,0,,,61,64
277600,note_on,20,0,1,,,,,,,,,,,,,,0,,,64,64
277600,note_on,0,0,1,,,,,,,,,,,,,,0,,,70,64
277600,note_on,0,0,1,,,,,,,,,,,,,,0,,,61,64
277600,note_on,0,0,1,,,,,,,,,,,,,,0,,,67,64
277600,note_on,20,0,2,,,,,,,,,,,,,,1,,,56,90
277600,note_on,0,0,2,,,,,,,,,,,,,,1,,,44,90
277612,set_tempo,240,1,0,,,,,,,541906,,,,,,,,,,,
277652,control_change,52,0,1,,,,,,,,,,,,,,0,11,80,,
277703,control_change,103,0,2,,,,,,,,,,,,,,1,11,84,,
277740,note_off,0,0,2,,,,,,,,,,,,,,1,,,44,64
277740,note_off,37,0,2,,,,,,,,,,,,,,1,,,56,64
277740,note_off,0,0,1,,,,,,,,,,,,,,0,,,67,64
277740,note_off,0,0,1,,,,,,,,,,,,,,0,,,70,64
277740,note_off,0,0,1,,,,,,,,,,,,,,0,,,61,64
277740,note_off,88,0,1,,,,,,,,,,,,,,0,,,64,64
277760,note_on,0,0,1,,,,,,,,,,,,,,0,,,61,64
277760,note_on,20,0,1,,,,,,,,,,,,,,0,,,64,64
277760,note_on,20,0,2,,,,,,,,,,,,,,1,,,56,90
277760,note_on,0,0,2,,,,,,,,,,,,,,1,,,44,90
277760,note_on,0,0,1,,,,,,,,,,,,,,0,,,67,64
277760,note_on,0,0,1,,,,,,,,,,,,,,0,,,70,64
277852,set_tempo,240,1,0,,,,,,,552639,,,,,,,,,,,
277900,note_off,0,0,1,,,,,,,,,,,,,,0,,,70,64
277900,note_off,0,0,1,,,,,,,,,,,,,,0,,,61,64
277900,note_off,0,0,1,,,,,,,,,,,,,,0,,,67,64
277900,note_off,140,0,1,,,,,,,,,,,,,,0,,,64,64
277900,note_off,140,0,2,,,,,,,,,,,,,,1,,,56,64
277900,note_off,0,0,2,,,,,,,,,,,,,,1,,,44,64
277911,control_change,11,0,1,,,,,,,,,,,,,,0,11,79,,
277920,note_on,9,0,1,,,,,,,,,,,,,,0,,,64,64
277920,note_on,0,0,2,,,,,,,,,,,,,,1,,,44,87
277920,note_off,480,0,3,,,,,,,,,,,,,,2,,,67,64
277920,note_on,0,0,3,,,,,,,,,,,,,,2,,,70,90
277920,note_on,20,0,2,,,,,,,,,,,,,,1,,,56,87
277920,note_on,0,0,1,,,,,,,,,,,,,,0,,,70,64
277920,note_on,0,0,1,,,,,,,,,,,,,,0,,,67,64
277920,note_on,0,0,1,,,,,,,,,,,,,,0,,,61,64
278020,control_change,100,0,2,,,,,,,,,,,,,,1,11,83,,
278060,note_off,0,0,1,,,,,,,,,,,,,,0,,,70,64
278060,note_off,0,0,1,,,,,,,,,,,,,,0,,,67,64
278060,note_off,0,0,1,,,,,,,,,,,,,,0,,,61,64
278060,note_off,140,0,1,,,,,,,,,,,,,,0,,,64,64
278060,note_off,40,0,2,,,,,,,,,,,,,,1,,,56,64
278060,note_off,0,0,2,,,,,,,,,,,,,,1,,,44,64
278080,note_on,0,0,1,,,,,,,,,,,,,,0,,,67,64
278080,note_on,0,0,2,,,,,,,,,,,,,,1,,,44,86
278080,note_on,20,0,2,,,,,,,,,,,,,,1,,,56,86
278080,note_on,0,0,1,,,,,,,,,,,,,,0,,,70,64
278080,note_on,20,0,1,,,,,,,,,,,,,,0,,,64,64
278080,note_on,0,0,1,,,,,,,,,,,,,,0,,,61,64
278092,set_tempo,240,1,0,,,,,,,563756,,,,,,,,,,,
278171,control_change,91,0,1,,,,,,,,,,,,,,0,11,78,,
278220,note_off,0,0,1,,,,,,,,,,,,,,0,,,70,64
278220,note_off,0,0,1,,,,,,,,,,,,,,0,,,61,64
278220,note_off,0,0,1,,,,,,,,,,,,,,0,,,67,64
278220,note_off,49,0,1,,,,,,,,,,,,,,0,,,64,64
278220,note_off,140,0,2,,,,,,,,,,,,,,1,,,56,64
278220,note_off,0,0,2,,,,,,,,,,,,,,1,,,44,64
278240,note_on,0,0,2,,,,,,,,,,,,,,1,,,44,85
278240,note_on,20,0,2,,,,,,,,,,,,,,1,,,56,85
278240,note_on,0,0,1,,,,,,,,,,,,,,0,,,67,64
278240,note_on,0,0,1,,,,,,,,,,,,,,0,,,70,64
278240,note_on,0,0,1,,,,,,,,,,,,,,0,,,61,64
278240,note_on,20,0,1,,,,,,,,,,,,,,0,,,64,64
278332,set_tempo,240,1,0,,,,,,,575068,,,,,,,,,,,
278336,control_change,96,0,2,,,,,,,,,,,,,,1,11,82,,
278380,note_off,0,0,2,,,,,,,,,,,,,,1,,,44,64
278380,note_off,44,0,2,,,,,,,,,,,,,,1,,,56,64
278380,note_off,0,0,1,,,,,,,,,,,,,,0,,,70,64
278380,note_off,0,0,1,,,,,,,,,,,,,,0,,,67,64
278380,note_off,0,0,1,,,,,,,,,,,,,,0,,,61,64
278380,note_off,140,0,1,,,,,,,,,,,,,,0,,,64,64
278400,note_on,0,0,3,,,,,,,,,,,,,,2,,,68,90
278400,note_off,480,0,3,,,,,,,,,,,,,,2,,,70,64
278400,note_on,0,0,2,,,,,,,,,,,,,,1,,,44,84
278400,note_on,20,0,2,,,,,,,,,,,,,,1,,,56,84
278400,note_on,0,0,1,,,,,,,,,,,,,,0,,,60,63
278400,note_on,0,0,1,,,,,,,,,,,,,,0,,,68,63
278400,note_on,20,0,1,,,,,,,,,,,,,,0,,,63,63
278430,control_change,30,0,1,,,,,,,,,,,,,,0,11,77,,
278540,note_off,0,0,1,,,,,,,,,,,,,,0,,,68,64
278540,note_off,0,0,1,,,,,,,,,,,,,,0,,,60,64
278540,note_off,140,0,2,,,,,,,,,,,,,,1,,,56,64
278540,note_off,0,0,2,,,,,,,,,,,,,,1,,,44,64
278540,note_off,110,0,1,,,,,,,,,,,,,,0,,,63,64
278560,note_on,20,0,2,,,,,,,,,,,,,,1,,,56,84
278560,note_on,0,0,1,,,,,,,,,,,,,,0,,,68,63
278560,note_on,0,0,1,,,,,,,,,,,,,,0,,,60,63
278560,note_on,20,0,1,,,,,,,,,,,,,,0,,,63,63
278560,note_on,0,0,2,,,,,,,,,,,,,,1,,,44,84
278602,set_tempo,270,1,0,,,,,,,588148,,,,,,,,,,,
278653,control_change,93,0,2,,,,,,,,,,,,,,1,11,81,,
278690,control_change,130,0,1,,,,,,,,,,,,,,0,11,76,,
278700,note_off,47,0,2,,,,,,,,,,,,,,1,,,56,64
278700,note_off,0,0,2,,,,,,,,,,,,,,1,,,44,64
278700,note_off,0,0,1,,,,,,,,,,,,,,0,,,68,64
278700,note_off,0,0,1,,,,,,,,,,,,,,0,,,60,64
278700,note_off,10,0,1,,,,,,,,,,,,,,0,,,63,64
278720,note_on,20,0,1,,,,,,,,,,,,,,0,,,63,62
278720,note_on,20,0,2,,,,,,,,,,,,,,1,,,56,83
278720,note_on,0,0,1,,,,,,,,,,,,,,0,,,60,62
278720,note_on,0,0,2,,,,,,,,,,,,,,1,,,44,83
278720,note_on,0,0,1,,,,,,,,,,,,,,0,,,68,62
278860,note_off,0,0,1,,,,,,,,,,,,,,0,,,60,64
278860,note_off,0,0,1,,,,,,,,,,,,,,0,,,68,64
278860,note_off,140,0,1,,,,,,,,,,,,,,0,,,63,64
278860,note_off,140,0,2,,,,,,,,,,,,,,1,,,56,64
278860,note_off,0,0,2,,,,,,,,,,,,,,1,,,44,64
278872,set_tempo,270,1,0,,,,,,,594059,,,,,,,,,,,
278880,note_on,20,0,2,,,,,,,,,,,,,,1,,,56,82
278880,note_on,0,0,1,,,,,,,,,,,,,,0,,,60,62
278880,note_on,20,0,1,,,,,,,,,,,,,,0,,,63,62
278880,note_on,0,0,2,,,,,,,,,,,,,,1,,,44,82
278880,note_on,0,0,1,,,,,,,,,,,,,,0,,,68,62
278949,control_change,69,0,1,,,,,,,,,,,,,,0,11,75,,
278969,control_change,89,0,2,,,,,,,,,,,,,,1,11,80,,
279020,note_off,51,0,2,,,,,,,,,,,,,,1,,,56,64
279020,note_off,0,0,2,,,,,,,,,,,,,,1,,,44,64
279020,note_off,0,0,1,,,,,,,,,,,,,,0,,,60,64
279020,note_off,0,0,1,,,,,,,,,,,,,,0,,,68,64
279020,note_off,71,0,1,,,,,,,,,,,,,,0,,,63,64
279040,note_on,0,0,1,,,,,,,,,,,,,,0,,,60,62
279040,note_on,0,0,1,,,,,,,,,,,,,,0,,,68,62
279040,note_on,20,0,1,,,,,,,,,,,,,,0,,,63,62
279040,note_on,20,0,2,,,,,,,,,,,,,,1,,,56,81
279040,note_on,0,0,2,,,,,,,,,,,,,,1,,,44,81
279180,note_off,0,0,1,,,,,,,,,,,,,,0,,,60,64
279180,note_off,0,0,1,,,,,,,,,,,,,,0,,,68,64
279180,note_off,140,0,1,,,,,,,,,,,,,,0,,,63,64
279180,note_off,0,0,2,,,,,,,,,,,,,,1,,,44,64
279180,note_off,140,0,2,,,,,,,,,,,,,,1,,,56,64
279200,note_on,0,0,2,,,,,,,,,,,,,,1,,,44,80
279200,note_on,20,0,2,,,,,,,,,,,,,,1,,,56,80
279200,note_on,0,0,1,,,,,,,,,,,,,,0,,,60,61
279200,note_on,20,0,1,,,,,,,,,,,,,,0,,,63,61
279200,note_on,0,0,1,,,,,,,,,,,,,,0,,,68,61
279209,control_change,9,0,1,,,,,,,,,,,,,,0,11,74,,
279286,control_change,86,0,2,,,,,,,,,,,,,,1,11,79,,
279340,note_off,0,0,1,,,,,,,,,,,,,,0,,,68,64
279340,note_off,54,0,2,,,,,,,,,,,,,,1,,,56,64
279340,note_off,0,0,2,,,,,,,,,,,,,,1,,,44,64
279340,note_off,131,0,1,,,,,,,,,,,,,,0,,,63,64
279340,note_off,0,0,1,,,,,,,,,,,,,,0,,,60,64
279353,note_off,953,0,3,,,,,,,,,,,,,,2,,,68,64
279360,note_on,20,0,2,,,,,,,,,,,,,,1,,,56,79
279360,note_on,0,0,2,,,,,,,,,,,,,,1,,,44,79
279360,note_on,0,0,1,,,,,,,,,,,,,,0,,,68,60
279360,note_on,20,0,1,,,,,,,,,,,,,,0,,,63,60
279360,note_on,0,0,1,,,,,,,,,,,,,,0,,,60,60
279468,control_change,108,0,1,,,,,,,,,,,,,,0,11,73,,
279567,note_off,99,0,1,,,,,,,,,,,,,,0,,,63,64
279567,note_off,207,0,2,,,,,,,,,,,,,,1,,,56,64
279567,note_off,0,0,2,,,,,,,,,,,,,,1,,,44,64
279567,note_off,0,0,1,,,,,,,,,,,,,,0,,,68,64
279567,note_off,0,0,1,,,,,,,,,,,,,,0,,,60,64
279587,set_tempo,715,1,0,,,,,,,612244,,,,,,,,,,,
279600,note_on,33,0,2,,,,,,,,,,,,,,1,,,56,78
279600,note_on,0,0,2,,,,,,,,,,,,,,1,,,44,78
279600,note_on,33,0,1,,,,,,,,,,,,,,0,,,63,60
279600,note_on,0,0,1,,,,,,,,,,,,,,0,,,68,60
279600,note_on,0,0,1,,,,,,,,,,,,,,0,,,60,60
279602,control_change,2,0,2,,,,,,,,,,,,,,1,11,78,,
279728,control_change,128,0,1,,,,,,,,,,,,,,0,11,72,,
279807,note_off,0,0,1,,,,,,,,,,,,,,0,,,68,64
279807,note_off,79,0,1,,,,,,,,,,,,,,0,,,63,64
279807,note_off,0,0,2,,,,,,,,,,,,,,1,,,44,64
279807,note_off,0,0,1,,,,,,,,,,,,,,0,,,60,64
279807,note_off,205,0,2,,,,,,,,,,,,,,1,,,56,64
279840,note_on,0,0,1,,,,,,,,,,,,,,0,,,68,59
279840,note_on,33,0,1,,,,,,,,,,,,,,0,,,63,59
279840,note_on,33,0,2,,,,,,,,,,,,,,1,,,56,77
279840,note_on,0,0,1,,,,,,,,,,,,,,0,,,60,59
279840,note_on,0,0,2,,,,,,,,,,,,,,1,,,44,77
279919,control_change,79,0,2,,,,,,,,,,,,,,1,11,77,,
279972,control_change,619,0,3,,,,,,,,,,,,,,2,11,78,,
279987,control_change,147,0,1,,,,,,,,,,,,,,0,11,71,,
280047,note_off,0,0,1,,,,,,,,,,,,,,0,,,68,64
280047,note_off,128,0,2,,,,,,,,,,,,,,1,,,56,64
280047,note_off,0,0,2,,,,,,,,,,,,,,1,,,44,64
280047,note_off,60,0,1,,,,,,,,,,,,,,0,,,63,64
280047,note_off,0,0,1,,,,,,,,,,,,,,0,,,60,64
280080,note_on,0,0,2,,,,,,,,,,,,,,1,,,44,76
280080,note_on,33,0,2,,,,,,,,,,,,,,1,,,56,76
280080,note_on,33,0,1,,,,,,,,,,,,,,0,,,63,58
280080,note_on,0,0,1,,,,,,,,,,,,,,0,,,68,58
280080,note_on,0,0,1,,,,,,,,,,,,,,0,,,60,58
280235,control_change,155,0,2,,,,,,,,,,,,,,1,11,76,,
280246,control_change,166,0,1,,,,,,,,,,,,,,0,11,70,,
280287,note_off,0,0,1,,,,,,,,,,,,,,0,,,60,64
280287,note_off,0,0,1,,,,,,,,,,,,,,0,,,68,64
280287,note_off,41,0,1,,,,,,,,,,,,,,0,,,63,64
280287,note_off,52,0,2,,,,,,,,,,,,,,1,,,56,64
280287,note_off,0,0,2,,,,,,,,,,,,,,1,,,44,64
280320,note_on,0,0,1,,,,,,,,,,,,,,0,,,68,64
280320,note_on,33,0,1,,,,,,,,,,,,,,0,,,63,64
280320,note_on,33,0,2,,,,,,,,,,,,,,1,,,56,90
280320,note_on,0,0,2,,,,,,,,,,,,,,1,,,44,90
280320,note_on,0,0,1,,,,,,,,,,,,,,0,,,60,64
280324,set_tempo,737,1,0,,,,,,,2608695,,,,,,,,,,,
280786,set_tempo,462,1,0,,,,,,,2832879,,,,,,,,,,,
280800,note_off,480,0,1,,,,,,,,,,,,,,0,,,63,64
280800,note_off,0,0,2,,,,,,,,,,,,,,1,,,44,64
280800,note_off,480,0,2,,,,,,,,,,,,,,1,,,56,64
280800,note_off,0,0,1,,,,,,,,,,,,,,0,,,68,64
280800,note_off,0,0,1,,,,,,,,,,,,,,0,,,60,64
280896,set_tempo,110,1,0,,,,,,,940296,,,,,,,,,,,
280920,note_on,948,0,3,,,,,,,,,,,,,,2,,,68,90
281040,note_off,120,0,3,,,,,,,,,,,,,,2,,,68,64
281040,note_on,0,0,3,,,,,,,,,,,,,,2,,,68,90
281094,set_tempo,198,1,0,,,,,,,1111111,,,,,,,,,,,
281160,note_off,120,0,3,,,,,,,,,,,,,,2,,,68,64
281160,note_on,0,0,3,,,,,,,,,,,,,,2,,,70,90
281280,note_off,120,0,3,,,,,,,,,,,,,,2,,,70,64
281280,note_on,0,0,3,,,,,,,,,,,,,,2,,,72,90
281281,set_tempo,187,1,0,,,,,,,857142,,,,,,,,,,,
281760,note_off,480,0,3,,,,,,,,,,,,,,2,,,72,64
281760,note_on,0,0,3,,,,,,,,,,,,,,2,,,70,90
281776,set_tempo,495,1,0,,,,,,,995607,,,,,,,,,,,
282000,note_off,240,0,3,,,,,,,,,,,,,,2,,,70,64
282000,note_on,0,0,3,,,,,,,,,,,,,,2,,,68,90
282240,note_on,0,0,3,,,,,,,,,,,,,,2,,,67,90
282240,note_off,240,0,3,,,,,,,,,,,,,,2,,,68,64
282260,set_tempo,484,1,0,,,,,,,1538461,,,,,,,,,,,
282381,set_tempo,121,1,0,,,,,,,2000000,,,,,,,,,,,
282447,note_off,207,0,3,,,,,,,,,,,,,,2,,,67,64
282480,note_on,1680,0,1,,,,,,,,,,,,,,0,,,67,63
282480,note_on,0,0,2,,,,,,,,,,,,,,1,,,49,63
282480,note_on,1680,0,2,,,,,,,,,,,,,,1,,,37,63
282480,note_on,0,0,1,,,,,,,,,,,,,,0,,,58,63
282480,note_on,0,0,1,,,,,,,,,,,,,,0,,,64,63
282601,set_tempo,220,1,0,,,,,,,1818181,,,,,,,,,,,
282832,set_tempo,231,1,0,,,,,,,1538461,,,,,,,,,,,
282843,control_change,396,0,3,,,,,,,,,,,,,,2,11,112,,
282872,note_off,392,0,2,,,,,,,,,,,,,,1,,,37,64
282872,note_off,392,0,1,,,,,,,,,,,,,,0,,,67,64
282872,note_off,0,0,1,,,,,,,,,,,,,,0,,,64,64
282872,note_off,0,0,1,,,,,,,,,,,,,,0,,,58,64
282872,note_off,0,0,2,,,,,,,,,,,,,,1,,,49,64
282960,note_on,117,0,3,,,,,,,,,,,,,,2,,,61,90
283123,note_off,163,0,3,,,,,,,,,,,,,,2,,,61,64
283200,note_on,77,0,3,,,,,,,,,,,,,,2,,,62,90
283272,control_change,400,0,1,,,,,,,,,,,,,,0,11,108,,
283305,control_change,433,0,2,,,,,,,,,,,,,,1,11,114,,
283440,note_off,240,0,3,,,,,,,,,,,,,,2,,,62,64
283558,set_tempo,726,1,0,,,,,,,1200000,,,,,,,,,,,
283680,note_on,0,0,1,,,,,,,,,,,,,,0,,,66,90
283680,note_on,0,0,1,,,,,,,,,,,,,,0,,,57,90
283680,note_on,408,0,1,,,,,,,,,,,,,,0,,,60,90
283680,note_on,375,0,2,,,,,,,,,,,,,,1,,,38,90
283680,note_on,0,0,2,,,,,,,,,,,,,,1,,,50,90
283680,note_on,0,0,1,,,,,,,,,,,,,,0,,,62,90
283920,note_off,240,0,2,,,,,,,,,,,,,,1,,,38,64
283920,note_off,0,0,2,,,,,,,,,,,,,,1,,,50,64
283920,note_off,0,0,1,,,,,,,,,,,,,,0,,,62,64
283920,note_off,0,0,1,,,,,,,,,,,,,,0,,,66,64
283920,note_off,240,0,1,,,,,,,,,,,,,,0,,,60,64
283920,note_off,0,0,1,,,,,,,,,,,,,,0,,,57,64
284160,note_on,0,0,1,,,,,,,,,,,,,,0,,,62,82
284160,note_on,0,0,1,,,,,,,,,,,,,,0,,,58,82
284160,note_on,0,0,1,,,,,,,,,,,,,,0,,,55,90
284160,note_on,240,0,2,,,,,,,,,,,,,,1,,,31,82
284160,note_on,0,0,2,,,,,,,,,,,,,,1,,,43,96
284160,note_on,240,0,1,,,,,,,,,,,,,,0,,,67,96
284669,set_tempo,1111,1,0,,,,,,,394736,,,,,,,,,,,
285120,note_off,0,0,2,,,,,,,,,,,,,,1,,,43,64
285120,note_off,960,0,1,,,,,,,,,,,,,,0,,,67,64
285120,note_off,0,0,1,,,,,,,,,,,,,,0,,,55,64
285120,note_off,0,0,1,,,,,,,,,,,,,,0,,,58,64
285120,note_off,0,0,1,,,,,,,,,,,,,,0,,,62,64
285120,note_off,960,0,2,,,,,,,,,,,,,,1,,,31,64
286080,end_of_track,33600,1,4,,,,,,,,,,,,,,,,,,
286080,end_of_track,960,1,2,,,,,,,,,,,,,,,,,,
286080,end_of_track,960,1,1,,,,,,,,,,,,,,,,,,
286080,end_of_track,2640,1,3,,,,,,,,,,,,,,,,,,
286080,end_of_track,1411,1,0,,,,,,,,,,,,,,,,,,
286080,end_of_track,48960,1,5,,,,,,,,,,,,,,,,,,
