tick,type,time,meta,track,frame_rate,hours,minutes,seconds,frames,sub_frames,numerator,denominator,clocks_per_click,notated_32nd_notes_per_beat,key,tempo,port,program,channel,control,value,note,velocity
0,track_name,0,1,0,,,,,,,,,,,,,,,,,,,
0,program_change,0,0,1,,,,,,,,,,,,,,0,0,,,,
0,control_change,0,0,1,,,,,,,,,,,,,,,0,7,100,,
0,control_change,0,0,1,,,,,,,,,,,,,,,0,91,127,,
0,text,0,1,1,,,,,,,,,,,,,,,,,,,
0,midi_port,0,1,8,,,,,,,,,,,,,0,,,,,,
0,midi_port,0,1,2,,,,,,,,,,,,,0,,,,,,
0,track_name,0,1,2,,,,,,,,,,,,,,,,,,,
0,program_change,0,0,2,,,,,,,,,,,,,,0,0,,,,
0,control_change,0,0,2,,,,,,,,,,,,,,,0,7,100,,
0,note_on,0,0,2,,,,,,,,,,,,,,,0,,,36,71
0,note_on,0,0,2,,,,,,,,,,,,,,,0,,,48,84
0,midi_port,0,1,3,,,,,,,,,,,,,0,,,,,,
0,track_name,0,1,1,,,,,,,,,,,,,,,,,,,
0,track_name,0,1,3,,,,,,,,,,,,,,,,,,,
0,midi_port,0,1,4,,,,,,,,,,,,,0,,,,,,
0,track_name,0,1,4,,,,,,,,,,,,,,,,,,,
0,end_of_track,0,1,4,,,,,,,,,,,,,,,,,,,
0,midi_port,0,1,5,,,,,,,,,,,,,0,,,,,,
0,track_name,0,1,5,,,,,,,,,,,,,,,,,,,
0,end_of_track,0,1,5,,,,,,,,,,,,,,,,,,,
0,midi_port,0,1,6,,,,,,,,,,,,,0,,,,,,
0,track_name,0,1,6,,,,,,,,,,,,,,,,,,,
0,end_of_track,0,1,6,,,,,,,,,,,,,,,,,,,
0,midi_port,0,1,7,,,,,,,,,,,,,0,,,,,,
0,track_name,0,1,7,,,,,,,,,,,,,,,,,,,
0,end_of_track,0,1,7,,,,,,,,,,,,,,,,,,,
0,end_of_track,0,1,3,,,,,,,,,,,,,,,,,,,
0,midi_port,0,1,1,,,,,,,,,,,,,0,,,,,,
0,end_of_track,0,1,8,,,,,,,,,,,,,,,,,,,
0,copyright,0,1,0,,,,,,,,,,,,,,,,,,,
0,text,0,1,0,,,,,,,,,,,,,,,,,,,
0,text,0,1,0,,,,,,,,,,,,,,,,,,,
0,text,0,1,0,,,,,,,,,,,,,,,,,,,
0,text,0,1,0,,,,,,,,,,,,,,,,,,,
0,smpte_offset,0,1,0,25,32,0,3,0,0,,,,,,,,,,,,,
0,key_signature,0,1,0,,,,,,,,,,,C,,,,,,,,
0,time_signature,0,1,0,,,,,,,4,4,24,8,,,,,,,,,
0,set_tempo,0,1,0,,,,,,,,,,,,412371,,,,,,,
480,set_tempo,480,1,0,,,,,,,,,,,,406780,,,,,,,
480,note_on,0,0,2,,,,,,,,,,,,,,,0,,,36,0
480,note_on,0,0,2,,,,,,,,,,,,,,,0,,,48,79
480,note_on,0,0,2,,,,,,,,,,,,,,,0,,,36,67
480,note_on,480,0,2,,,,,,,,,,,,,,,0,,,48,0
570,note_on,0,0,2,,,,,,,,,,,,,,,0,,,36,0
570,note_on,90,0,2,,,,,,,,,,,,,,,0,,,48,0
720,note_on,150,0,2,,,,,,,,,,,,,,,0,,,36,67
720,note_on,0,0,2,,,,,,,,,,,,,,,0,,,48,79
810,note_on,90,0,2,,,,,,,,,,,,,,,0,,,48,0
810,note_on,0,0,2,,,,,,,,,,,,,,,0,,,36,0
960,note_on,150,0,2,,,,,,,,,,,,,,,0,,,36,67
960,set_tempo,480,1,0,,,,,,,,,,,,412371,,,,,,,
960,note_on,0,0,2,,,,,,,,,,,,,,,0,,,48,79
1440,note_on,0,0,2,,,,,,,,,,,,,,,0,,,36,68
1440,note_on,0,0,2,,,,,,,,,,,,,,,0,,,48,80
1440,note_on,480,0,2,,,,,,,,,,,,,,,0,,,48,0
1440,set_tempo,480,1,0,,,,,,,,,,,,406780,,,,,,,
1440,note_on,0,0,2,,,,,,,,,,,,,,,0,,,36,0
1530,note_on,90,0,2,,,,,,,,,,,,,,,0,,,48,0
1530,note_on,0,0,2,,,,,,,,,,,,,,,0,,,36,0
1680,note_on,0,0,2,,,,,,,,,,,,,,,0,,,48,81
1680,note_on,150,0,2,,,,,,,,,,,,,,,0,,,36,69
1770,note_on,0,0,2,,,,,,,,,,,,,,,0,,,36,0
1770,note_on,90,0,2,,,,,,,,,,,,,,,0,,,48,0
1920,note_on,0,0,2,,,,,,,,,,,,,,,0,,,49,90
1920,set_tempo,480,1,0,,,,,,,,,,,,430108,,,,,,,
1920,note_on,150,0,2,,,,,,,,,,,,,,,0,,,37,76
2010,note_on,0,0,2,,,,,,,,,,,,,,,0,,,37,0
2010,note_on,90,0,2,,,,,,,,,,,,,,,0,,,49,0
2400,note_on,0,0,2,,,,,,,,,,,,,,,0,,,50,89
2400,note_on,390,0,2,,,,,,,,,,,,,,,0,,,38,75
2400,set_tempo,480,1,0,,,,,,,,,,,,412371,,,,,,,
3120,note_on,720,0,2,,,,,,,,,,,,,,,0,,,50,0
3120,note_on,0,0,2,,,,,,,,,,,,,,,0,,,38,0
3120,note_on,0,0,2,,,,,,,,,,,,,,,0,,,40,68
3120,note_on,0,0,2,,,,,,,,,,,,,,,0,,,52,80
3120,set_tempo,720,1,0,,,,,,,,,,,,405405,,,,,,,
3210,note_on,90,0,2,,,,,,,,,,,,,,,0,,,52,0
3210,note_on,0,0,2,,,,,,,,,,,,,,,0,,,40,0
3360,note_on,0,0,2,,,,,,,,,,,,,,,0,,,53,79
3360,note_on,150,0,2,,,,,,,,,,,,,,,0,,,41,67
3450,note_on,90,0,2,,,,,,,,,,,,,,,0,,,53,0
3450,note_on,0,0,2,,,,,,,,,,,,,,,0,,,41,0
3600,note_on,0,0,2,,,,,,,,,,,,,,,0,,,52,80
3600,note_on,150,0,2,,,,,,,,,,,,,,,0,,,40,68
3690,note_on,90,0,2,,,,,,,,,,,,,,,0,,,52,0
3690,note_on,0,0,2,,,,,,,,,,,,,,,0,,,40,0
3840,note_on,0,0,2,,,,,,,,,,,,,,,0,,,50,84
3840,note_on,150,0,2,,,,,,,,,,,,,,,0,,,38,71
3840,text,0,1,1,,,,,,,,,,,,,,,,,,,
3840,set_tempo,720,1,0,,,,,,,,,,,,412371,,,,,,,
3840,control_change,3840,0,1,,,,,,,,,,,,,,,0,91,127,,
4320,set_tempo,480,1,0,,,,,,,,,,,,405405,,,,,,,
4320,note_on,480,0,2,,,,,,,,,,,,,,,0,,,50,0
4320,note_on,0,0,2,,,,,,,,,,,,,,,0,,,38,0
4320,note_on,0,0,2,,,,,,,,,,,,,,,0,,,38,71
4320,note_on,0,0,2,,,,,,,,,,,,,,,0,,,50,84
4410,note_on,90,0,2,,,,,,,,,,,,,,,0,,,50,0
4410,note_on,0,0,2,,,,,,,,,,,,,,,0,,,38,0
4560,note_on,150,0,2,,,,,,,,,,,,,,,0,,,38,68
4560,note_on,0,0,2,,,,,,,,,,,,,,,0,,,50,80
4650,note_on,90,0,2,,,,,,,,,,,,,,,0,,,50,0
4650,note_on,0,0,2,,,,,,,,,,,,,,,0,,,38,0
4800,set_tempo,480,1,0,,,,,,,,,,,,412371,,,,,,,
4800,note_on,150,0,2,,,,,,,,,,,,,,,0,,,38,68
4800,note_on,0,0,2,,,,,,,,,,,,,,,0,,,50,80
5280,set_tempo,480,1,0,,,,,,,,,,,,406780,,,,,,,
5280,note_on,480,0,2,,,,,,,,,,,,,,,0,,,50,0
5280,note_on,0,0,2,,,,,,,,,,,,,,,0,,,50,81
5280,note_on,0,0,2,,,,,,,,,,,,,,,0,,,38,69
5280,note_on,0,0,2,,,,,,,,,,,,,,,0,,,38,0
5370,note_on,0,0,2,,,,,,,,,,,,,,,0,,,38,0
5370,note_on,90,0,2,,,,,,,,,,,,,,,0,,,50,0
5520,note_on,0,0,2,,,,,,,,,,,,,,,0,,,50,81
5520,note_on,150,0,2,,,,,,,,,,,,,,,0,,,38,69
5610,note_on,0,0,2,,,,,,,,,,,,,,,0,,,38,0
5610,note_on,90,0,2,,,,,,,,,,,,,,,0,,,50,0
5760,set_tempo,480,1,0,,,,,,,,,,,,437956,,,,,,,
5760,note_on,150,0,2,,,,,,,,,,,,,,,0,,,39,76
5760,note_on,0,0,2,,,,,,,,,,,,,,,0,,,51,90
5850,note_on,0,0,2,,,,,,,,,,,,,,,0,,,39,0
5850,note_on,90,0,2,,,,,,,,,,,,,,,0,,,51,0
6240,note_on,0,0,2,,,,,,,,,,,,,,,0,,,52,89
6240,note_on,390,0,2,,,,,,,,,,,,,,,0,,,40,75
6240,set_tempo,480,1,0,,,,,,,,,,,,412371,,,,,,,
6960,note_on,720,0,2,,,,,,,,,,,,,,,0,,,52,0
6960,note_on,0,0,2,,,,,,,,,,,,,,,0,,,40,0
6960,note_on,0,0,2,,,,,,,,,,,,,,,0,,,42,80
6960,note_on,0,0,2,,,,,,,,,,,,,,,0,,,54,80
6960,set_tempo,720,1,0,,,,,,,,,,,,418118,,,,,,,
7050,note_on,0,0,2,,,,,,,,,,,,,,,0,,,42,0
7050,note_on,90,0,2,,,,,,,,,,,,,,,0,,,54,0
7200,note_on,150,0,2,,,,,,,,,,,,,,,0,,,43,68
7200,note_on,0,0,2,,,,,,,,,,,,,,,0,,,55,80
7290,note_on,90,0,2,,,,,,,,,,,,,,,0,,,55,0
7290,note_on,0,0,2,,,,,,,,,,,,,,,0,,,43,0
7440,note_on,150,0,2,,,,,,,,,,,,,,,0,,,45,69
7440,note_on,0,0,2,,,,,,,,,,,,,,,0,,,57,82
7530,note_on,0,0,2,,,,,,,,,,,,,,,0,,,45,0
7530,note_on,90,0,2,,,,,,,,,,,,,,,0,,,57,0
7680,note_on,150,0,2,,,,,,,,,,,,,,,0,,,46,78
7680,note_on,0,0,2,,,,,,,,,,,,,,,0,,,58,93
7680,set_tempo,720,1,0,,,,,,,,,,,,412371,,,,,,,
8160,note_on,480,0,2,,,,,,,,,,,,,,,0,,,58,0
8160,set_tempo,480,1,0,,,,,,,,,,,,416667,,,,,,,
8160,note_on,0,0,2,,,,,,,,,,,,,,,0,,,46,0
8160,note_on,0,0,2,,,,,,,,,,,,,,,0,,,46,71
8160,note_on,0,0,2,,,,,,,,,,,,,,,0,,,58,84
8250,note_on,0,0,2,,,,,,,,,,,,,,,0,,,46,0
8250,note_on,90,0,2,,,,,,,,,,,,,,,0,,,58,0
8400,note_on,0,0,2,,,,,,,,,,,,,,,0,,,58,84
8400,note_on,150,0,2,,,,,,,,,,,,,,,0,,,46,71
8400,set_tempo,240,1,0,,,,,,,,,,,,436364,,,,,,,
8490,note_on,90,0,2,,,,,,,,,,,,,,,0,,,58,0
8490,note_on,0,0,2,,,,,,,,,,,,,,,0,,,46,0
8640,note_on,150,0,2,,,,,,,,,,,,,,,0,,,37,79
8640,note_on,0,0,2,,,,,,,,,,,,,,,0,,,49,94
8640,set_tempo,240,1,0,,,,,,,,,,,,412371,,,,,,,
9360,note_on,720,0,2,,,,,,,,,,,,,,,0,,,49,0
9360,note_on,0,0,2,,,,,,,,,,,,,,,0,,,37,73
9360,note_on,0,0,2,,,,,,,,,,,,,,,0,,,49,86
9360,set_tempo,720,1,0,,,,,,,,,,,,419580,,,,,,,
9360,note_on,0,0,2,,,,,,,,,,,,,,,0,,,37,0
9450,note_on,0,0,2,,,,,,,,,,,,,,,0,,,37,0
9450,note_on,90,0,2,,,,,,,,,,,,,,,0,,,49,0
9600,note_on,150,0,2,,,,,,,,,,,,,,,0,,,45,79
9600,note_on,0,0,2,,,,,,,,,,,,,,,0,,,57,94
9600,set_tempo,240,1,0,,,,,,,,,,,,415225,,,,,,,
10080,note_on,480,0,2,,,,,,,,,,,,,,,0,,,57,0
10080,note_on,0,0,2,,,,,,,,,,,,,,,0,,,45,0
10080,note_on,0,0,2,,,,,,,,,,,,,,,0,,,45,71
10080,note_on,0,0,2,,,,,,,,,,,,,,,0,,,57,84
10170,note_on,0,0,2,,,,,,,,,,,,,,,0,,,45,0
10170,note_on,90,0,2,,,,,,,,,,,,,,,0,,,57,0
10320,note_on,0,0,2,,,,,,,,,,,,,,,0,,,57,85
10320,note_on,150,0,2,,,,,,,,,,,,,,,0,,,45,72
10320,set_tempo,720,1,0,,,,,,,,,,,,439560,,,,,,,
10410,note_on,90,0,2,,,,,,,,,,,,,,,0,,,57,0
10410,note_on,0,0,2,,,,,,,,,,,,,,,0,,,45,0
10560,set_tempo,240,1,0,,,,,,,,,,,,412371,,,,,,,
10560,note_on,150,0,2,,,,,,,,,,,,,,,0,,,36,79
10560,note_on,0,0,2,,,,,,,,,,,,,,,0,,,48,94
11280,note_on,720,0,2,,,,,,,,,,,,,,,0,,,48,0
11280,note_on,0,0,2,,,,,,,,,,,,,,,0,,,36,0
11280,note_on,0,0,2,,,,,,,,,,,,,,,0,,,36,72
11280,note_on,0,0,2,,,,,,,,,,,,,,,0,,,48,85
11370,note_on,0,0,2,,,,,,,,,,,,,,,0,,,36,0
11370,note_on,90,0,2,,,,,,,,,,,,,,,0,,,48,0
11520,note_on,150,0,2,,,,,,,,,,,,,,,0,,,35,72
11520,note_on,0,0,2,,,,,,,,,,,,,,,0,,,47,85
11610,note_on,90,0,2,,,,,,,,,,,,,,,0,,,47,0
11610,note_on,0,0,2,,,,,,,,,,,,,,,0,,,35,0
11760,set_tempo,1200,1,0,,,,,,,,,,,,406780,,,,,,,
11760,note_on,0,0,2,,,,,,,,,,,,,,,0,,,50,86
11760,note_on,150,0,2,,,,,,,,,,,,,,,0,,,38,72
11850,note_on,0,0,2,,,,,,,,,,,,,,,0,,,38,0
11850,note_on,90,0,2,,,,,,,,,,,,,,,0,,,50,0
12000,note_on,150,0,2,,,,,,,,,,,,,,,0,,,43,75
12000,note_on,0,0,2,,,,,,,,,,,,,,,0,,,55,90
12090,note_on,0,0,2,,,,,,,,,,,,,,,0,,,43,0
12090,note_on,90,0,2,,,,,,,,,,,,,,,0,,,55,0
12240,note_on,150,0,2,,,,,,,,,,,,,,,0,,,41,72
12240,note_on,0,0,2,,,,,,,,,,,,,,,0,,,53,85
12330,note_on,90,0,2,,,,,,,,,,,,,,,0,,,53,0
12330,note_on,0,0,2,,,,,,,,,,,,,,,0,,,41,0
12480,note_on,0,0,2,,,,,,,,,,,,,,,0,,,52,86
12480,set_tempo,720,1,0,,,,,,,,,,,,412371,,,,,,,
12480,note_on,150,0,2,,,,,,,,,,,,,,,0,,,40,73
12570,note_on,0,0,2,,,,,,,,,,,,,,,0,,,40,0
12570,note_on,90,0,2,,,,,,,,,,,,,,,0,,,52,0
12720,note_on,0,0,2,,,,,,,,,,,,,,,0,,,48,82
12720,note_on,150,0,2,,,,,,,,,,,,,,,0,,,36,70
12810,note_on,90,0,2,,,,,,,,,,,,,,,0,,,48,0
12810,note_on,0,0,2,,,,,,,,,,,,,,,0,,,36,0
12960,note_on,0,0,2,,,,,,,,,,,,,,,0,,,47,82
12960,note_on,150,0,2,,,,,,,,,,,,,,,0,,,35,70
13050,note_on,0,0,2,,,,,,,,,,,,,,,0,,,35,0
13050,note_on,90,0,2,,,,,,,,,,,,,,,0,,,47,0
13200,note_on,0,0,2,,,,,,,,,,,,,,,0,,,45,81
13200,note_on,150,0,2,,,,,,,,,,,,,,,0,,,33,69
13290,note_on,0,0,2,,,,,,,,,,,,,,,0,,,33,0
13290,note_on,90,0,2,,,,,,,,,,,,,,,0,,,45,0
13440,note_on,0,0,2,,,,,,,,,,,,,,,0,,,53,84
13440,note_on,150,0,2,,,,,,,,,,,,,,,0,,,41,71
13440,set_tempo,960,1,0,,,,,,,,,,,,416667,,,,,,,
13920,note_on,480,0,2,,,,,,,,,,,,,,,0,,,53,0
13920,set_tempo,480,1,0,,,,,,,,,,,,424028,,,,,,,
13920,note_on,0,0,2,,,,,,,,,,,,,,,0,,,52,81
13920,note_on,0,0,2,,,,,,,,,,,,,,,0,,,41,0
13920,note_on,0,0,2,,,,,,,,,,,,,,,0,,,40,69
14400,note_on,0,0,2,,,,,,,,,,,,,,,0,,,38,71
14400,note_on,0,0,2,,,,,,,,,,,,,,,0,,,40,0
14400,note_on,480,0,2,,,,,,,,,,,,,,,0,,,52,0
14400,set_tempo,480,1,0,,,,,,,,,,,,434783,,,,,,,
14400,note_on,0,0,2,,,,,,,,,,,,,,,0,,,50,84
14880,set_tempo,480,1,0,,,,,,,,,,,,452830,,,,,,,
15360,note_on,960,0,2,,,,,,,,,,,,,,,0,,,50,0
15360,note_on,0,0,2,,,,,,,,,,,,,,,0,,,38,0
15360,set_tempo,480,1,0,,,,,,,,,,,,409556,,,,,,,
15360,note_on,11520,0,1,,,,,,,,,,,,,,,0,,,55,71
15360,note_on,0,0,1,,,,,,,,,,,,,,,0,,,67,84
15360,note_on,0,0,2,,,,,,,,,,,,,,,0,,,36,65
15360,note_on,0,0,2,,,,,,,,,,,,,,,0,,,48,77
15840,set_tempo,480,1,0,,,,,,,,,,,,400374,,,,,,,
15840,note_on,480,0,1,,,,,,,,,,,,,,,0,,,67,0
15840,note_on,0,0,1,,,,,,,,,,,,,,,0,,,55,0
15840,note_on,0,0,1,,,,,,,,,,,,,,,0,,,55,67
15840,note_on,0,0,1,,,,,,,,,,,,,,,0,,,67,79
15930,note_on,0,0,1,,,,,,,,,,,,,,,0,,,55,0
15930,note_on,90,0,1,,,,,,,,,,,,,,,0,,,67,0
16080,note_on,150,0,1,,,,,,,,,,,,,,,0,,,55,67
16080,note_on,0,0,1,,,,,,,,,,,,,,,0,,,67,79
16170,note_on,90,0,1,,,,,,,,,,,,,,,0,,,67,0
16170,note_on,0,0,1,,,,,,,,,,,,,,,0,,,55,0
16320,note_on,150,0,1,,,,,,,,,,,,,,,0,,,55,67
16320,note_on,0,0,1,,,,,,,,,,,,,,,0,,,67,79
16320,set_tempo,480,1,0,,,,,,,,,,,,405872,,,,,,,
16560,note_on,0,0,2,,,,,,,,,,,,,,,0,,,50,73
16560,note_on,1200,0,2,,,,,,,,,,,,,,,0,,,48,0
16560,note_on,0,0,2,,,,,,,,,,,,,,,0,,,38,61
16560,note_on,0,0,2,,,,,,,,,,,,,,,0,,,36,0
16650,note_on,0,0,2,,,,,,,,,,,,,,,0,,,38,0
16650,note_on,90,0,2,,,,,,,,,,,,,,,0,,,50,0
16800,note_on,0,0,1,,,,,,,,,,,,,,,0,,,67,80
16800,note_on,0,0,1,,,,,,,,,,,,,,,0,,,55,68
16800,note_on,0,0,1,,,,,,,,,,,,,,,0,,,55,0
16800,note_on,480,0,1,,,,,,,,,,,,,,,0,,,67,0
16800,note_on,0,0,2,,,,,,,,,,,,,,,0,,,52,73
16800,note_on,150,0,2,,,,,,,,,,,,,,,0,,,40,61
16800,set_tempo,480,1,0,,,,,,,,,,,,400374,,,,,,,
16890,note_on,0,0,1,,,,,,,,,,,,,,,0,,,55,0
16890,note_on,90,0,1,,,,,,,,,,,,,,,0,,,67,0
16890,note_on,90,0,2,,,,,,,,,,,,,,,0,,,52,0
16890,note_on,0,0,2,,,,,,,,,,,,,,,0,,,40,0
17040,note_on,150,0,2,,,,,,,,,,,,,,,0,,,41,61
17040,note_on,0,0,2,,,,,,,,,,,,,,,0,,,53,73
17040,note_on,0,0,1,,,,,,,,,,,,,,,0,,,67,81
17040,note_on,150,0,1,,,,,,,,,,,,,,,0,,,55,69
17130,note_on,90,0,2,,,,,,,,,,,,,,,0,,,53,0
17130,note_on,0,0,2,,,,,,,,,,,,,,,0,,,41,0
17130,note_on,90,0,1,,,,,,,,,,,,,,,0,,,67,0
17130,note_on,0,0,1,,,,,,,,,,,,,,,0,,,55,0
17280,note_on,0,0,1,,,,,,,,,,,,,,,0,,,68,90
17280,note_on,150,0,2,,,,,,,,,,,,,,,0,,,40,65
17280,set_tempo,480,1,0,,,,,,,,,,,,410088,,,,,,,
17280,note_on,150,0,1,,,,,,,,,,,,,,,0,,,56,76
17280,note_on,0,0,2,,,,,,,,,,,,,,,0,,,52,77
17370,note_on,0,0,2,,,,,,,,,,,,,,,0,,,40,0
17370,note_on,90,0,2,,,,,,,,,,,,,,,0,,,52,0
17370,note_on,90,0,1,,,,,,,,,,,,,,,0,,,68,0
17370,note_on,0,0,1,,,,,,,,,,,,,,,0,,,56,0
17520,note_on,0,0,2,,,,,,,,,,,,,,,0,,,50,74
17520,note_on,150,0,2,,,,,,,,,,,,,,,0,,,38,63
17610,note_on,90,0,2,,,,,,,,,,,,,,,0,,,50,0
17610,note_on,0,0,2,,,,,,,,,,,,,,,0,,,38,0
17760,set_tempo,480,1,0,,,,,,,,,,,,405872,,,,,,,
17760,note_on,0,0,2,,,,,,,,,,,,,,,0,,,48,74
17760,note_on,390,0,1,,,,,,,,,,,,,,,0,,,57,75
17760,note_on,150,0,2,,,,,,,,,,,,,,,0,,,36,63
17760,note_on,0,0,1,,,,,,,,,,,,,,,0,,,69,89
17850,note_on,90,0,2,,,,,,,,,,,,,,,0,,,48,0
17850,note_on,0,0,2,,,,,,,,,,,,,,,0,,,36,0
18000,note_on,150,0,2,,,,,,,,,,,,,,,0,,,35,63
18000,note_on,0,0,2,,,,,,,,,,,,,,,0,,,47,74
18090,note_on,90,0,2,,,,,,,,,,,,,,,0,,,47,0
18090,note_on,0,0,2,,,,,,,,,,,,,,,0,,,35,0
18240,note_on,150,0,2,,,,,,,,,,,,,,,0,,,33,67
18240,note_on,0,0,2,,,,,,,,,,,,,,,0,,,45,79
18480,note_on,0,0,1,,,,,,,,,,,,,,,0,,,59,68
18480,note_on,0,0,1,,,,,,,,,,,,,,,0,,,57,0
18480,note_on,720,0,1,,,,,,,,,,,,,,,0,,,69,0
18480,set_tempo,720,1,0,,,,,,,,,,,,399016,,,,,,,
18480,note_on,0,0,1,,,,,,,,,,,,,,,0,,,71,80
18570,note_on,0,0,1,,,,,,,,,,,,,,,0,,,59,0
18570,note_on,90,0,1,,,,,,,,,,,,,,,0,,,71,0
18720,note_on,150,0,1,,,,,,,,,,,,,,,0,,,60,67
18720,note_on,0,0,1,,,,,,,,,,,,,,,0,,,72,79
18810,note_on,90,0,1,,,,,,,,,,,,,,,0,,,72,0
18810,note_on,0,0,1,,,,,,,,,,,,,,,0,,,60,0
18960,note_on,0,0,2,,,,,,,,,,,,,,,0,,,52,75
18960,note_on,0,0,2,,,,,,,,,,,,,,,0,,,40,64
18960,note_on,0,0,2,,,,,,,,,,,,,,,0,,,33,0
18960,note_on,720,0,2,,,,,,,,,,,,,,,0,,,45,0
18960,note_on,0,0,1,,,,,,,,,,,,,,,0,,,71,80
18960,note_on,150,0,1,,,,,,,,,,,,,,,0,,,59,68
19050,note_on,90,0,1,,,,,,,,,,,,,,,0,,,71,0
19050,note_on,0,0,1,,,,,,,,,,,,,,,0,,,59,0
19050,note_on,90,0,2,,,,,,,,,,,,,,,0,,,52,0
19050,note_on,0,0,2,,,,,,,,,,,,,,,0,,,40,0
19200,set_tempo,720,1,0,,,,,,,,,,,,405872,,,,,,,
19200,note_on,150,0,1,,,,,,,,,,,,,,,0,,,57,71
19200,note_on,0,0,1,,,,,,,,,,,,,,,0,,,69,84
19200,note_on,0,0,2,,,,,,,,,,,,,,,0,,,53,77
19200,note_on,150,0,2,,,,,,,,,,,,,,,0,,,41,65
19680,note_on,480,0,1,,,,,,,,,,,,,,,0,,,69,0
19680,note_on,0,0,1,,,,,,,,,,,,,,,0,,,57,0
19680,note_on,0,0,1,,,,,,,,,,,,,,,0,,,57,71
19680,note_on,0,0,1,,,,,,,,,,,,,,,0,,,69,84
19680,set_tempo,480,1,0,,,,,,,,,,,,399016,,,,,,,
19770,note_on,90,0,1,,,,,,,,,,,,,,,0,,,69,0
19770,note_on,0,0,1,,,,,,,,,,,,,,,0,,,57,0
19920,note_on,150,0,1,,,,,,,,,,,,,,,0,,,57,68
19920,note_on,0,0,1,,,,,,,,,,,,,,,0,,,69,80
20010,note_on,90,0,1,,,,,,,,,,,,,,,0,,,69,0
20010,note_on,0,0,1,,,,,,,,,,,,,,,0,,,57,0
20160,note_on,0,0,1,,,,,,,,,,,,,,,0,,,69,80
20160,note_on,150,0,1,,,,,,,,,,,,,,,0,,,57,68
20160,set_tempo,480,1,0,,,,,,,,,,,,405872,,,,,,,
20400,note_on,1200,0,2,,,,,,,,,,,,,,,0,,,53,0
20400,note_on,0,0,2,,,,,,,,,,,,,,,0,,,41,0
20400,note_on,0,0,2,,,,,,,,,,,,,,,0,,,40,61
20400,note_on,0,0,2,,,,,,,,,,,,,,,0,,,52,73
20490,note_on,90,0,2,,,,,,,,,,,,,,,0,,,52,0
20490,note_on,0,0,2,,,,,,,,,,,,,,,0,,,40,0
20640,note_on,0,0,1,,,,,,,,,,,,,,,0,,,57,0
20640,note_on,0,0,2,,,,,,,,,,,,,,,0,,,53,73
20640,note_on,0,0,1,,,,,,,,,,,,,,,0,,,57,69
20640,set_tempo,480,1,0,,,,,,,,,,,,400374,,,,,,,
20640,note_on,0,0,1,,,,,,,,,,,,,,,0,,,69,81
20640,note_on,480,0,1,,,,,,,,,,,,,,,0,,,69,0
20640,note_on,150,0,2,,,,,,,,,,,,,,,0,,,41,61
20730,note_on,90,0,1,,,,,,,,,,,,,,,0,,,69,0
20730,note_on,0,0,2,,,,,,,,,,,,,,,0,,,41,0
20730,note_on,90,0,2,,,,,,,,,,,,,,,0,,,53,0
20730,note_on,0,0,1,,,,,,,,,,,,,,,0,,,57,0
20880,note_on,150,0,2,,,,,,,,,,,,,,,0,,,43,61
20880,note_on,0,0,2,,,,,,,,,,,,,,,0,,,55,73
20880,note_on,150,0,1,,,,,,,,,,,,,,,0,,,57,69
20880,note_on,0,0,1,,,,,,,,,,,,,,,0,,,69,81
20970,note_on,90,0,2,,,,,,,,,,,,,,,0,,,55,0
20970,note_on,0,0,2,,,,,,,,,,,,,,,0,,,43,0
20970,note_on,90,0,1,,,,,,,,,,,,,,,0,,,69,0
20970,note_on,0,0,1,,,,,,,,,,,,,,,0,,,57,0
21120,note_on,150,0,1,,,,,,,,,,,,,,,0,,,58,76
21120,note_on,0,0,2,,,,,,,,,,,,,,,0,,,54,77
21120,note_on,150,0,2,,,,,,,,,,,,,,,0,,,42,65
21120,set_tempo,480,1,0,,,,,,,,,,,,411523,,,,,,,
21120,note_on,0,0,1,,,,,,,,,,,,,,,0,,,70,90
21210,note_on,90,0,1,,,,,,,,,,,,,,,0,,,70,0
21210,note_on,0,0,1,,,,,,,,,,,,,,,0,,,58,0
21210,note_on,0,0,2,,,,,,,,,,,,,,,0,,,42,0
21210,note_on,90,0,2,,,,,,,,,,,,,,,0,,,54,0
21360,note_on,0,0,2,,,,,,,,,,,,,,,0,,,52,74
21360,note_on,150,0,2,,,,,,,,,,,,,,,0,,,40,63
21450,note_on,0,0,2,,,,,,,,,,,,,,,0,,,40,0
21450,note_on,90,0,2,,,,,,,,,,,,,,,0,,,52,0
21600,note_on,0,0,2,,,,,,,,,,,,,,,0,,,50,74
21600,note_on,0,0,1,,,,,,,,,,,,,,,0,,,71,89
21600,set_tempo,480,1,0,,,,,,,,,,,,405872,,,,,,,
21600,note_on,390,0,1,,,,,,,,,,,,,,,0,,,59,75
21600,note_on,150,0,2,,,,,,,,,,,,,,,0,,,38,63
21690,note_on,90,0,2,,,,,,,,,,,,,,,0,,,50,0
21690,note_on,0,0,2,,,,,,,,,,,,,,,0,,,38,0
21840,note_on,0,0,2,,,,,,,,,,,,,,,0,,,49,74
21840,note_on,150,0,2,,,,,,,,,,,,,,,0,,,37,63
21930,note_on,0,0,2,,,,,,,,,,,,,,,0,,,37,0
21930,note_on,90,0,2,,,,,,,,,,,,,,,0,,,49,0
22080,note_on,150,0,2,,,,,,,,,,,,,,,0,,,35,67
22080,note_on,0,0,2,,,,,,,,,,,,,,,0,,,47,79
22320,note_on,0,0,1,,,,,,,,,,,,,,,0,,,59,0
22320,note_on,720,0,1,,,,,,,,,,,,,,,0,,,71,0
22320,note_on,0,0,1,,,,,,,,,,,,,,,0,,,61,76
22320,note_on,0,0,1,,,,,,,,,,,,,,,0,,,73,76
22320,set_tempo,720,1,0,,,,,,,,,,,,392157,,,,,,,
22410,note_on,0,0,1,,,,,,,,,,,,,,,0,,,61,0
22410,note_on,90,0,1,,,,,,,,,,,,,,,0,,,73,0
22560,set_tempo,240,1,0,,,,,,,,,,,,397351,,,,,,,
22560,note_on,0,0,1,,,,,,,,,,,,,,,0,,,74,75
22560,note_on,150,0,1,,,,,,,,,,,,,,,0,,,62,63
22650,note_on,90,0,1,,,,,,,,,,,,,,,0,,,74,0
22650,note_on,0,0,1,,,,,,,,,,,,,,,0,,,62,0
22800,note_on,0,0,1,,,,,,,,,,,,,,,0,,,76,76
22800,note_on,150,0,1,,,,,,,,,,,,,,,0,,,64,64
22800,note_on,720,0,2,,,,,,,,,,,,,,,0,,,47,0
22800,note_on,0,0,2,,,,,,,,,,,,,,,0,,,35,0
22800,note_on,0,0,2,,,,,,,,,,,,,,,0,,,33,59
22800,note_on,0,0,2,,,,,,,,,,,,,,,0,,,45,71
22800,set_tempo,240,1,0,,,,,,,,,,,,412371,,,,,,,
22890,note_on,0,0,1,,,,,,,,,,,,,,,0,,,64,0
22890,note_on,90,0,1,,,,,,,,,,,,,,,0,,,76,0
22890,note_on,90,0,2,,,,,,,,,,,,,,,0,,,45,0
22890,note_on,0,0,2,,,,,,,,,,,,,,,0,,,33,0
23040,set_tempo,240,1,0,,,,,,,,,,,,405872,,,,,,,
23040,note_on,150,0,1,,,,,,,,,,,,,,,0,,,65,72
23040,note_on,0,0,1,,,,,,,,,,,,,,,0,,,77,85
23040,note_on,150,0,2,,,,,,,,,,,,,,,0,,,32,60
23040,note_on,0,0,2,,,,,,,,,,,,,,,0,,,44,73
23130,note_on,90,0,2,,,,,,,,,,,,,,,0,,,44,0
23130,note_on,0,0,2,,,,,,,,,,,,,,,0,,,32,0
23280,note_on,150,0,2,,,,,,,,,,,,,,,0,,,35,57
23280,note_on,0,0,2,,,,,,,,,,,,,,,0,,,47,68
23370,note_on,90,0,2,,,,,,,,,,,,,,,0,,,47,0
23370,note_on,0,0,2,,,,,,,,,,,,,,,0,,,35,0
23520,note_on,0,0,1,,,,,,,,,,,,,,,0,,,77,76
23520,note_on,480,0,1,,,,,,,,,,,,,,,0,,,77,0
23520,note_on,0,0,1,,,,,,,,,,,,,,,0,,,65,0
23520,note_on,0,0,2,,,,,,,,,,,,,,,0,,,44,73
23520,note_on,150,0,2,,,,,,,,,,,,,,,0,,,32,60
23520,note_on,0,0,1,,,,,,,,,,,,,,,0,,,65,64
23610,note_on,90,0,1,,,,,,,,,,,,,,,0,,,77,0
23610,note_on,0,0,1,,,,,,,,,,,,,,,0,,,65,0
23610,note_on,90,0,2,,,,,,,,,,,,,,,0,,,44,0
23610,note_on,0,0,2,,,,,,,,,,,,,,,0,,,32,0
23760,note_on,150,0,2,,,,,,,,,,,,,,,0,,,35,55
23760,note_on,150,0,1,,,,,,,,,,,,,,,0,,,65,64
23760,set_tempo,720,1,0,,,,,,,,,,,,429492,,,,,,,
23760,note_on,0,0,1,,,,,,,,,,,,,,,0,,,77,76
23760,note_on,0,0,2,,,,,,,,,,,,,,,0,,,47,66
23850,note_on,90,0,2,,,,,,,,,,,,,,,0,,,47,0
23850,note_on,0,0,2,,,,,,,,,,,,,,,0,,,35,0
23850,note_on,90,0,1,,,,,,,,,,,,,,,0,,,77,0
23850,note_on,0,0,1,,,,,,,,,,,,,,,0,,,65,0
24000,note_on,150,0,2,,,,,,,,,,,,,,,0,,,41,65
24000,note_on,0,0,2,,,,,,,,,,,,,,,0,,,53,77
24000,set_tempo,240,1,0,,,,,,,,,,,,393675,,,,,,,
24000,note_on,150,0,1,,,,,,,,,,,,,,,0,,,56,76
24000,note_on,0,0,1,,,,,,,,,,,,,,,0,,,68,90
24090,note_on,90,0,2,,,,,,,,,,,,,,,0,,,53,0
24090,note_on,0,0,2,,,,,,,,,,,,,,,0,,,41,0
24240,set_tempo,240,1,0,,,,,,,,,,,,405872,,,,,,,
24240,note_on,150,0,2,,,,,,,,,,,,,,,0,,,41,64
24240,note_on,0,0,2,,,,,,,,,,,,,,,0,,,53,75
24720,note_on,0,0,1,,,,,,,,,,,,,,,0,,,56,0
24720,note_on,0,0,1,,,,,,,,,,,,,,,0,,,68,82
24720,note_on,0,0,1,,,,,,,,,,,,,,,0,,,56,70
24720,note_on,720,0,1,,,,,,,,,,,,,,,0,,,68,0
24810,note_on,0,0,1,,,,,,,,,,,,,,,0,,,56,0
24810,note_on,90,0,1,,,,,,,,,,,,,,,0,,,68,0
24960,note_on,0,0,2,,,,,,,,,,,,,,,0,,,43,73
24960,note_on,0,0,2,,,,,,,,,,,,,,,0,,,31,60
24960,note_on,0,0,2,,,,,,,,,,,,,,,0,,,41,0
24960,note_on,720,0,2,,,,,,,,,,,,,,,0,,,53,0
24960,note_on,0,0,1,,,,,,,,,,,,,,,0,,,76,85
24960,note_on,150,0,1,,,,,,,,,,,,,,,0,,,64,72
25050,note_on,0,0,2,,,,,,,,,,,,,,,0,,,31,0
25050,note_on,90,0,2,,,,,,,,,,,,,,,0,,,43,0
25200,note_on,0,0,2,,,,,,,,,,,,,,,0,,,46,68
25200,note_on,150,0,2,,,,,,,,,,,,,,,0,,,34,57
25290,note_on,90,0,2,,,,,,,,,,,,,,,0,,,46,0
25290,note_on,0,0,2,,,,,,,,,,,,,,,0,,,34,0
25440,note_on,0,0,1,,,,,,,,,,,,,,,0,,,76,76
25440,note_on,150,0,2,,,,,,,,,,,,,,,0,,,31,60
25440,note_on,0,0,2,,,,,,,,,,,,,,,0,,,43,73
25440,note_on,0,0,1,,,,,,,,,,,,,,,0,,,64,64
25440,note_on,480,0,1,,,,,,,,,,,,,,,0,,,76,0
25440,set_tempo,1200,1,0,,,,,,,,,,,,396040,,,,,,,
25440,note_on,0,0,1,,,,,,,,,,,,,,,0,,,64,0
25530,note_on,0,0,2,,,,,,,,,,,,,,,0,,,31,0
25530,note_on,90,0,1,,,,,,,,,,,,,,,0,,,76,0
25530,note_on,0,0,1,,,,,,,,,,,,,,,0,,,64,0
25530,note_on,90,0,2,,,,,,,,,,,,,,,0,,,43,0
25680,note_on,150,0,1,,,,,,,,,,,,,,,0,,,64,65
25680,note_on,0,0,1,,,,,,,,,,,,,,,0,,,76,77
25680,set_tempo,240,1,0,,,,,,,,,,,,432620,,,,,,,
25680,note_on,0,0,2,,,,,,,,,,,,,,,0,,,46,66
25680,note_on,150,0,2,,,,,,,,,,,,,,,0,,,34,55
25770,note_on,90,0,1,,,,,,,,,,,,,,,0,,,76,0
25770,note_on,0,0,1,,,,,,,,,,,,,,,0,,,64,0
25770,note_on,0,0,2,,,,,,,,,,,,,,,0,,,34,0
25770,note_on,90,0,2,,,,,,,,,,,,,,,0,,,46,0
25920,note_on,0,0,1,,,,,,,,,,,,,,,0,,,67,90
25920,note_on,0,0,2,,,,,,,,,,,,,,,0,,,52,77
25920,note_on,150,0,1,,,,,,,,,,,,,,,0,,,55,76
25920,set_tempo,240,1,0,,,,,,,,,,,,393675,,,,,,,
25920,note_on,150,0,2,,,,,,,,,,,,,,,0,,,40,65
26010,note_on,0,0,2,,,,,,,,,,,,,,,0,,,40,0
26010,note_on,90,0,2,,,,,,,,,,,,,,,0,,,52,0
26160,note_on,0,0,2,,,,,,,,,,,,,,,0,,,52,75
26160,note_on,150,0,2,,,,,,,,,,,,,,,0,,,40,64
26160,set_tempo,240,1,0,,,,,,,,,,,,404476,,,,,,,
26640,note_on,720,0,1,,,,,,,,,,,,,,,0,,,67,0
26640,note_on,0,0,1,,,,,,,,,,,,,,,0,,,55,0
26640,note_on,0,0,1,,,,,,,,,,,,,,,0,,,55,69
26640,note_on,0,0,1,,,,,,,,,,,,,,,0,,,67,81
26730,note_on,0,0,1,,,,,,,,,,,,,,,0,,,55,0
26730,note_on,90,0,1,,,,,,,,,,,,,,,0,,,67,0
26880,note_on,720,0,2,,,,,,,,,,,,,,,0,,,52,0
26880,note_on,0,0,2,,,,,,,,,,,,,,,0,,,40,0
26880,note_on,0,0,2,,,,,,,,,,,,,,,0,,,38,64
26880,note_on,0,0,2,,,,,,,,,,,,,,,0,,,50,75
26880,note_on,150,0,1,,,,,,,,,,,,,,,0,,,54,69
26880,note_on,0,0,1,,,,,,,,,,,,,,,0,,,66,81
26970,note_on,90,0,1,,,,,,,,,,,,,,,0,,,66,0
26970,note_on,0,0,1,,,,,,,,,,,,,,,0,,,54,0
27120,note_on,0,0,1,,,,,,,,,,,,,,,0,,,69,82
27120,set_tempo,960,1,0,,,,,,,,,,,,400374,,,,,,,
27120,note_on,150,0,1,,,,,,,,,,,,,,,0,,,57,70
27210,note_on,90,0,1,,,,,,,,,,,,,,,0,,,69,0
27210,note_on,0,0,1,,,,,,,,,,,,,,,0,,,57,0
27360,note_on,0,0,1,,,,,,,,,,,,,,,0,,,74,87
27360,note_on,150,0,1,,,,,,,,,,,,,,,0,,,62,73
27360,note_on,0,0,2,,,,,,,,,,,,,,,0,,,42,71
27360,note_on,0,0,2,,,,,,,,,,,,,,,0,,,30,59
27360,note_on,0,0,2,,,,,,,,,,,,,,,0,,,38,0
27360,note_on,480,0,2,,,,,,,,,,,,,,,0,,,50,0
27450,note_on,0,0,1,,,,,,,,,,,,,,,0,,,62,0
27450,note_on,90,0,1,,,,,,,,,,,,,,,0,,,74,0
27600,note_on,150,0,1,,,,,,,,,,,,,,,0,,,60,70
27600,note_on,0,0,1,,,,,,,,,,,,,,,0,,,72,82
27690,note_on,90,0,1,,,,,,,,,,,,,,,0,,,72,0
27690,note_on,0,0,1,,,,,,,,,,,,,,,0,,,60,0
27840,note_on,480,0,2,,,,,,,,,,,,,,,0,,,42,0
27840,note_on,0,0,1,,,,,,,,,,,,,,,0,,,71,84
27840,set_tempo,720,1,0,,,,,,,,,,,,405872,,,,,,,
27840,note_on,150,0,1,,,,,,,,,,,,,,,0,,,59,71
27840,note_on,0,0,2,,,,,,,,,,,,,,,0,,,43,69
27840,note_on,0,0,2,,,,,,,,,,,,,,,0,,,30,0
27840,note_on,0,0,2,,,,,,,,,,,,,,,0,,,31,58
27930,note_on,90,0,2,,,,,,,,,,,,,,,0,,,43,0
27930,note_on,0,0,2,,,,,,,,,,,,,,,0,,,31,0
27930,note_on,0,0,1,,,,,,,,,,,,,,,0,,,59,0
27930,note_on,90,0,1,,,,,,,,,,,,,,,0,,,71,0
28080,note_on,0,0,1,,,,,,,,,,,,,,,0,,,67,81
28080,note_on,150,0,1,,,,,,,,,,,,,,,0,,,55,69
28080,note_on,0,0,2,,,,,,,,,,,,,,,0,,,45,71
28080,note_on,150,0,2,,,,,,,,,,,,,,,0,,,33,59
28170,note_on,0,0,1,,,,,,,,,,,,,,,0,,,55,0
28170,note_on,90,0,1,,,,,,,,,,,,,,,0,,,67,0
28170,note_on,90,0,2,,,,,,,,,,,,,,,0,,,45,0
28170,note_on,0,0,2,,,,,,,,,,,,,,,0,,,33,0
28320,note_on,0,0,2,,,,,,,,,,,,,,,0,,,47,73
28320,note_on,0,0,1,,,,,,,,,,,,,,,0,,,66,81
28320,note_on,150,0,2,,,,,,,,,,,,,,,0,,,35,61
28320,note_on,150,0,1,,,,,,,,,,,,,,,0,,,54,69
28410,note_on,0,0,1,,,,,,,,,,,,,,,0,,,54,0
28410,note_on,90,0,1,,,,,,,,,,,,,,,0,,,66,0
28410,note_on,90,0,2,,,,,,,,,,,,,,,0,,,47,0
28410,note_on,0,0,2,,,,,,,,,,,,,,,0,,,35,0
28560,note_on,0,0,1,,,,,,,,,,,,,,,0,,,64,81
28560,note_on,150,0,1,,,,,,,,,,,,,,,0,,,52,69
28560,note_on,0,0,2,,,,,,,,,,,,,,,0,,,48,75
28560,note_on,150,0,2,,,,,,,,,,,,,,,0,,,36,64
28650,note_on,0,0,1,,,,,,,,,,,,,,,0,,,52,0
28650,note_on,90,0,1,,,,,,,,,,,,,,,0,,,64,0
28650,note_on,90,0,2,,,,,,,,,,,,,,,0,,,48,0
28650,note_on,0,0,2,,,,,,,,,,,,,,,0,,,36,0
28800,note_on,150,0,1,,,,,,,,,,,,,,,0,,,60,71
28800,note_on,0,0,2,,,,,,,,,,,,,,,0,,,50,77
28800,note_on,0,0,1,,,,,,,,,,,,,,,0,,,72,84
28800,note_on,150,0,2,,,,,,,,,,,,,,,0,,,38,65
28800,set_tempo,960,1,0,,,,,,,,,,,,410088,,,,,,,
28890,note_on,90,0,2,,,,,,,,,,,,,,,0,,,50,0
28890,note_on,0,0,2,,,,,,,,,,,,,,,0,,,38,0
29040,note_on,150,0,2,,,,,,,,,,,,,,,0,,,42,64
29040,note_on,0,0,2,,,,,,,,,,,,,,,0,,,54,75
29130,note_on,0,0,2,,,,,,,,,,,,,,,0,,,42,0
29130,note_on,90,0,2,,,,,,,,,,,,,,,0,,,54,0
29280,note_on,0,0,1,,,,,,,,,,,,,,,0,,,60,0
29280,note_on,150,0,2,,,,,,,,,,,,,,,0,,,43,65
29280,note_on,0,0,1,,,,,,,,,,,,,,,0,,,59,69
29280,note_on,0,0,1,,,,,,,,,,,,,,,0,,,71,81
29280,note_on,480,0,1,,,,,,,,,,,,,,,0,,,72,0
29280,note_on,0,0,2,,,,,,,,,,,,,,,0,,,55,76
29280,set_tempo,480,1,0,,,,,,,,,,,,417333,,,,,,,
29760,set_tempo,480,1,0,,,,,,,,,,,,427930,,,,,,,
29760,note_on,0,0,1,,,,,,,,,,,,,,,0,,,57,71
29760,note_on,0,0,1,,,,,,,,,,,,,,,0,,,59,0
29760,note_on,480,0,1,,,,,,,,,,,,,,,0,,,71,0
29760,note_on,0,0,1,,,,,,,,,,,,,,,0,,,69,84
30240,note_on,0,0,2,,,,,,,,,,,,,,,0,,,54,75
30240,note_on,0,0,2,,,,,,,,,,,,,,,0,,,42,64
30240,note_on,0,0,2,,,,,,,,,,,,,,,0,,,43,0
30240,note_on,960,0,2,,,,,,,,,,,,,,,0,,,55,0
30720,note_on,0,0,1,,,,,,,,,,,,,,,0,,,59,69
30720,note_on,0,0,2,,,,,,,,,,,,,,,0,,,53,75
30720,note_on,0,0,2,,,,,,,,,,,,,,,0,,,41,64
30720,note_on,0,0,2,,,,,,,,,,,,,,,0,,,42,0
30720,note_on,480,0,2,,,,,,,,,,,,,,,0,,,54,0
30720,set_tempo,960,1,0,,,,,,,,,,,,418819,,,,,,,
30720,note_on,0,0,1,,,,,,,,,,,,,,,0,,,71,81
30720,note_on,960,0,1,,,,,,,,,,,,,,,0,,,69,0
30720,note_on,0,0,1,,,,,,,,,,,,,,,0,,,57,0
30810,note_on,0,0,1,,,,,,,,,,,,,,,0,,,59,0
30810,note_on,90,0,1,,,,,,,,,,,,,,,0,,,71,0
30960,note_on,0,0,1,,,,,,,,,,,,,,,0,,,67,75
30960,note_on,150,0,1,,,,,,,,,,,,,,,0,,,55,64
31050,note_on,0,0,1,,,,,,,,,,,,,,,0,,,55,0
31050,note_on,90,0,1,,,,,,,,,,,,,,,0,,,67,0
31200,note_on,480,0,2,,,,,,,,,,,,,,,0,,,53,0
31200,note_on,0,0,1,,,,,,,,,,,,,,,0,,,72,80
31200,note_on,150,0,1,,,,,,,,,,,,,,,0,,,60,68
31200,note_on,0,0,2,,,,,,,,,,,,,,,0,,,40,63
31200,note_on,0,0,2,,,,,,,,,,,,,,,0,,,41,0
31200,note_on,0,0,2,,,,,,,,,,,,,,,0,,,52,74
31200,set_tempo,480,1,0,,,,,,,,,,,,434783,,,,,,,
31680,note_on,0,0,2,,,,,,,,,,,,,,,0,,,50,72
31680,note_on,0,0,2,,,,,,,,,,,,,,,0,,,40,0
31680,note_on,480,0,2,,,,,,,,,,,,,,,0,,,52,0
31680,set_tempo,480,1,0,,,,,,,,,,,,439560,,,,,,,
31680,note_on,0,0,2,,,,,,,,,,,,,,,0,,,38,60
32160,note_on,960,0,1,,,,,,,,,,,,,,,0,,,72,0
32160,note_on,0,0,1,,,,,,,,,,,,,,,0,,,60,0
32160,note_on,0,0,1,,,,,,,,,,,,,,,0,,,59,65
32160,note_on,0,0,1,,,,,,,,,,,,,,,0,,,71,77
32640,note_on,0,0,1,,,,,,,,,,,,,,,0,,,59,0
32640,note_on,480,0,1,,,,,,,,,,,,,,,0,,,71,0
32640,note_on,0,0,1,,,,,,,,,,,,,,,0,,,72,84
32640,note_on,0,0,1,,,,,,,,,,,,,,,0,,,60,71
32640,note_on,0,0,2,,,,,,,,,,,,,,,0,,,52,77
32640,note_on,0,0,2,,,,,,,,,,,,,,,0,,,48,65
32640,note_on,0,0,2,,,,,,,,,,,,,,,0,,,38,0
32640,note_on,960,0,2,,,,,,,,,,,,,,,0,,,50,0
32640,set_tempo,960,1,0,,,,,,,,,,,,413793,,,,,,,
33120,set_tempo,480,1,0,,,,,,,,,,,,406780,,,,,,,
33120,note_on,0,0,1,,,,,,,,,,,,,,,0,,,72,79
33120,note_on,0,0,1,,,,,,,,,,,,,,,0,,,60,67
33120,note_on,0,0,1,,,,,,,,,,,,,,,0,,,60,0
33120,note_on,480,0,1,,,,,,,,,,,,,,,0,,,72,0
33210,note_on,0,0,1,,,,,,,,,,,,,,,0,,,60,0
33210,note_on,90,0,1,,,,,,,,,,,,,,,0,,,72,0
33360,note_on,0,0,1,,,,,,,,,,,,,,,0,,,72,79
33360,note_on,150,0,1,,,,,,,,,,,,,,,0,,,60,67
33450,note_on,0,0,1,,,,,,,,,,,,,,,0,,,60,0
33450,note_on,90,0,1,,,,,,,,,,,,,,,0,,,72,0
33600,set_tempo,480,1,0,,,,,,,,,,,,405872,,,,,,,
33600,note_on,0,0,1,,,,,,,,,,,,,,,0,,,72,79
33600,note_on,150,0,1,,,,,,,,,,,,,,,0,,,60,67
33840,note_on,0,0,2,,,,,,,,,,,,,,,0,,,52,61
33840,note_on,0,0,2,,,,,,,,,,,,,,,0,,,48,0
33840,note_on,0,0,2,,,,,,,,,,,,,,,0,,,55,73
33840,note_on,1200,0,2,,,,,,,,,,,,,,,0,,,52,0
33930,note_on,0,0,2,,,,,,,,,,,,,,,0,,,52,0
33930,note_on,90,0,2,,,,,,,,,,,,,,,0,,,55,0
34080,set_tempo,480,1,0,,,,,,,,,,,,400374,,,,,,,
34080,note_on,0,0,1,,,,,,,,,,,,,,,0,,,72,80
34080,note_on,0,0,1,,,,,,,,,,,,,,,0,,,60,68
34080,note_on,0,0,1,,,,,,,,,,,,,,,0,,,60,0
34080,note_on,480,0,1,,,,,,,,,,,,,,,0,,,72,0
34080,note_on,0,0,2,,,,,,,,,,,,,,,0,,,57,73
34080,note_on,150,0,2,,,,,,,,,,,,,,,0,,,53,61
34170,note_on,0,0,1,,,,,,,,,,,,,,,0,,,60,0
34170,note_on,90,0,1,,,,,,,,,,,,,,,0,,,72,0
34170,note_on,90,0,2,,,,,,,,,,,,,,,0,,,57,0
34170,note_on,0,0,2,,,,,,,,,,,,,,,0,,,53,0
34320,note_on,0,0,2,,,,,,,,,,,,,,,0,,,58,73
34320,note_on,0,0,1,,,,,,,,,,,,,,,0,,,72,81
34320,note_on,150,0,1,,,,,,,,,,,,,,,0,,,60,69
34320,note_on,150,0,2,,,,,,,,,,,,,,,0,,,55,61
34410,note_on,0,0,1,,,,,,,,,,,,,,,0,,,60,0
34410,note_on,90,0,1,,,,,,,,,,,,,,,0,,,72,0
34410,note_on,0,0,2,,,,,,,,,,,,,,,0,,,55,0
34410,note_on,90,0,2,,,,,,,,,,,,,,,0,,,58,0
34560,note_on,0,0,1,,,,,,,,,,,,,,,0,,,73,90
34560,note_on,150,0,1,,,,,,,,,,,,,,,0,,,61,76
34560,note_on,150,0,2,,,,,,,,,,,,,,,0,,,53,65
34560,set_tempo,480,1,0,,,,,,,,,,,,423310,,,,,,,
34560,note_on,0,0,2,,,,,,,,,,,,,,,0,,,57,77
34650,note_on,90,0,2,,,,,,,,,,,,,,,0,,,57,0
34650,note_on,0,0,1,,,,,,,,,,,,,,,0,,,61,0
34650,note_on,90,0,1,,,,,,,,,,,,,,,0,,,73,0
34650,note_on,0,0,2,,,,,,,,,,,,,,,0,,,53,0
34800,note_on,150,0,2,,,,,,,,,,,,,,,0,,,52,63
34800,set_tempo,240,1,0,,,,,,,,,,,,411523,,,,,,,
34800,note_on,0,0,2,,,,,,,,,,,,,,,0,,,55,74
34890,note_on,90,0,2,,,,,,,,,,,,,,,0,,,55,0
34890,note_on,0,0,2,,,,,,,,,,,,,,,0,,,52,0
35040,note_on,390,0,1,,,,,,,,,,,,,,,0,,,62,75
35040,note_on,0,0,2,,,,,,,,,,,,,,,0,,,53,74
35040,note_on,150,0,2,,,,,,,,,,,,,,,0,,,50,63
35040,note_on,0,0,1,,,,,,,,,,,,,,,0,,,74,89
35040,set_tempo,240,1,0,,,,,,,,,,,,405872,,,,,,,
35130,note_on,0,0,2,,,,,,,,,,,,,,,0,,,50,0
35130,note_on,90,0,2,,,,,,,,,,,,,,,0,,,53,0
35280,note_on,0,0,2,,,,,,,,,,,,,,,0,,,52,74
35280,note_on,150,0,2,,,,,,,,,,,,,,,0,,,45,63
35370,note_on,0,0,2,,,,,,,,,,,,,,,0,,,45,0
35370,note_on,90,0,2,,,,,,,,,,,,,,,0,,,52,0
35520,note_on,150,0,2,,,,,,,,,,,,,,,0,,,41,67
35520,note_on,0,0,2,,,,,,,,,,,,,,,0,,,50,79
35760,note_on,720,0,1,,,,,,,,,,,,,,,0,,,74,0
35760,note_on,0,0,1,,,,,,,,,,,,,,,0,,,62,0
35760,note_on,0,0,1,,,,,,,,,,,,,,,0,,,64,68
35760,note_on,0,0,1,,,,,,,,,,,,,,,0,,,76,80
35760,set_tempo,720,1,0,,,,,,,,,,,,399016,,,,,,,
35850,note_on,90,0,1,,,,,,,,,,,,,,,0,,,76,0
35850,note_on,0,0,1,,,,,,,,,,,,,,,0,,,64,0
36000,note_on,150,0,1,,,,,,,,,,,,,,,0,,,65,67
36000,note_on,0,0,1,,,,,,,,,,,,,,,0,,,77,79
36000,set_tempo,240,1,0,,,,,,,,,,,,394737,,,,,,,
36090,note_on,90,0,1,,,,,,,,,,,,,,,0,,,77,0
36090,note_on,0,0,1,,,,,,,,,,,,,,,0,,,65,0
36240,note_on,0,0,2,,,,,,,,,,,,,,,0,,,49,75
36240,note_on,0,0,2,,,,,,,,,,,,,,,0,,,45,64
36240,note_on,0,0,2,,,,,,,,,,,,,,,0,,,41,0
36240,note_on,720,0,2,,,,,,,,,,,,,,,0,,,50,0
36240,note_on,150,0,1,,,,,,,,,,,,,,,0,,,64,68
36240,note_on,0,0,1,,,,,,,,,,,,,,,0,,,76,80
36330,note_on,90,0,2,,,,,,,,,,,,,,,0,,,49,0
36330,note_on,0,0,1,,,,,,,,,,,,,,,0,,,64,0
36330,note_on,0,0,2,,,,,,,,,,,,,,,0,,,45,0
36330,note_on,90,0,1,,,,,,,,,,,,,,,0,,,76,0
36480,note_on,0,0,2,,,,,,,,,,,,,,,0,,,50,77
36480,set_tempo,480,1,0,,,,,,,,,,,,405872,,,,,,,
36480,note_on,150,0,2,,,,,,,,,,,,,,,0,,,46,65
36480,note_on,0,0,1,,,,,,,,,,,,,,,0,,,74,84
36480,note_on,150,0,1,,,,,,,,,,,,,,,0,,,62,71
36960,note_on,0,0,1,,,,,,,,,,,,,,,0,,,74,84
36960,set_tempo,480,1,0,,,,,,,,,,,,399016,,,,,,,
36960,note_on,0,0,1,,,,,,,,,,,,,,,0,,,62,71
36960,note_on,0,0,1,,,,,,,,,,,,,,,0,,,62,0
36960,note_on,480,0,1,,,,,,,,,,,,,,,0,,,74,0
37050,note_on,0,0,1,,,,,,,,,,,,,,,0,,,62,0
37050,note_on,90,0,1,,,,,,,,,,,,,,,0,,,74,0
37200,note_on,150,0,1,,,,,,,,,,,,,,,0,,,62,68
37200,note_on,0,0,1,,,,,,,,,,,,,,,0,,,74,80
37290,note_on,90,0,1,,,,,,,,,,,,,,,0,,,74,0
37290,note_on,0,0,1,,,,,,,,,,,,,,,0,,,62,0
37440,note_on,150,0,1,,,,,,,,,,,,,,,0,,,62,68
37440,note_on,0,0,1,,,,,,,,,,,,,,,0,,,74,80
37440,set_tempo,480,1,0,,,,,,,,,,,,405872,,,,,,,
37680,note_on,0,0,2,,,,,,,,,,,,,,,0,,,58,73
37680,note_on,0,0,2,,,,,,,,,,,,,,,0,,,50,61
37680,note_on,0,0,2,,,,,,,,,,,,,,,0,,,46,0
37680,note_on,1200,0,2,,,,,,,,,,,,,,,0,,,50,0
37770,note_on,90,0,2,,,,,,,,,,,,,,,0,,,58,0
37770,note_on,0,0,2,,,,,,,,,,,,,,,0,,,50,0
37920,note_on,480,0,1,,,,,,,,,,,,,,,0,,,74,0
37920,note_on,0,0,2,,,,,,,,,,,,,,,0,,,62,73
37920,note_on,0,0,1,,,,,,,,,,,,,,,0,,,74,81
37920,note_on,0,0,1,,,,,,,,,,,,,,,0,,,62,69
37920,note_on,0,0,1,,,,,,,,,,,,,,,0,,,62,0
37920,note_on,150,0,2,,,,,,,,,,,,,,,0,,,58,61
37920,set_tempo,480,1,0,,,,,,,,,,,,400374,,,,,,,
38010,note_on,0,0,2,,,,,,,,,,,,,,,0,,,58,0
38010,note_on,90,0,2,,,,,,,,,,,,,,,0,,,62,0
38010,note_on,90,0,1,,,,,,,,,,,,,,,0,,,74,0
38010,note_on,0,0,1,,,,,,,,,,,,,,,0,,,62,0
38160,note_on,0,0,2,,,,,,,,,,,,,,,0,,,60,73
38160,note_on,150,0,2,,,,,,,,,,,,,,,0,,,57,61
38160,note_on,150,0,1,,,,,,,,,,,,,,,0,,,62,69
38160,note_on,0,0,1,,,,,,,,,,,,,,,0,,,74,81
38250,note_on,0,0,2,,,,,,,,,,,,,,,0,,,57,0
38250,note_on,0,0,1,,,,,,,,,,,,,,,0,,,62,0
38250,note_on,90,0,2,,,,,,,,,,,,,,,0,,,60,0
38250,note_on,90,0,1,,,,,,,,,,,,,,,0,,,74,0
38400,note_on,0,0,2,,,,,,,,,,,,,,,0,,,59,77
38400,set_tempo,480,1,0,,,,,,,,,,,,431034,,,,,,,
38400,note_on,150,0,2,,,,,,,,,,,,,,,0,,,55,65
38400,note_on,150,0,1,,,,,,,,,,,,,,,0,,,63,76
38400,note_on,0,0,1,,,,,,,,,,,,,,,0,,,75,90
38490,note_on,90,0,1,,,,,,,,,,,,,,,0,,,75,0
38490,note_on,0,0,1,,,,,,,,,,,,,,,0,,,63,0
38490,note_on,0,0,2,,,,,,,,,,,,,,,0,,,55,0
38490,note_on,90,0,2,,,,,,,,,,,,,,,0,,,59,0
38640,note_on,150,0,2,,,,,,,,,,,,,,,0,,,54,63
38640,set_tempo,240,1,0,,,,,,,,,,,,412967,,,,,,,
38640,note_on,0,0,2,,,,,,,,,,,,,,,0,,,57,74
38730,note_on,0,0,2,,,,,,,,,,,,,,,0,,,54,0
38730,note_on,90,0,2,,,,,,,,,,,,,,,0,,,57,0
38880,set_tempo,240,1,0,,,,,,,,,,,,405872,,,,,,,
38880,note_on,0,0,1,,,,,,,,,,,,,,,0,,,76,89
38880,note_on,390,0,1,,,,,,,,,,,,,,,0,,,64,75
38880,note_on,150,0,2,,,,,,,,,,,,,,,0,,,52,63
38880,note_on,0,0,2,,,,,,,,,,,,,,,0,,,55,74
38970,note_on,90,0,2,,,,,,,,,,,,,,,0,,,55,0
38970,note_on,0,0,2,,,,,,,,,,,,,,,0,,,52,0
39120,note_on,150,0,2,,,,,,,,,,,,,,,0,,,47,63
39120,note_on,0,0,2,,,,,,,,,,,,,,,0,,,54,74
39210,note_on,90,0,2,,,,,,,,,,,,,,,0,,,54,0
39210,note_on,0,0,2,,,,,,,,,,,,,,,0,,,47,0
39360,note_on,150,0,2,,,,,,,,,,,,,,,0,,,43,67
39360,note_on,0,0,2,,,,,,,,,,,,,,,0,,,52,79
39600,set_tempo,720,1,0,,,,,,,,,,,,393443,,,,,,,
39600,note_on,0,0,1,,,,,,,,,,,,,,,0,,,78,72
39600,note_on,720,0,1,,,,,,,,,,,,,,,0,,,76,0
39600,note_on,0,0,1,,,,,,,,,,,,,,,0,,,64,0
39600,note_on,0,0,1,,,,,,,,,,,,,,,0,,,66,72
39690,note_on,90,0,1,,,,,,,,,,,,,,,0,,,78,0
39690,note_on,0,0,1,,,,,,,,,,,,,,,0,,,66,0
39840,note_on,0,0,1,,,,,,,,,,,,,,,0,,,79,71
39840,note_on,150,0,1,,,,,,,,,,,,,,,0,,,67,59
39930,note_on,90,0,1,,,,,,,,,,,,,,,0,,,79,0
39930,note_on,0,0,1,,,,,,,,,,,,,,,0,,,67,0
40080,note_on,150,0,1,,,,,,,,,,,,,,,0,,,69,60
40080,note_on,0,0,1,,,,,,,,,,,,,,,0,,,81,72
40080,note_on,0,0,2,,,,,,,,,,,,,,,0,,,41,56
40080,note_on,720,0,2,,,,,,,,,,,,,,,0,,,52,0
40080,note_on,0,0,2,,,,,,,,,,,,,,,0,,,43,0
40080,note_on,0,0,2,,,,,,,,,,,,,,,0,,,50,67
40170,note_on,90,0,2,,,,,,,,,,,,,,,0,,,50,0
40170,note_on,0,0,2,,,,,,,,,,,,,,,0,,,41,0
40170,note_on,90,0,1,,,,,,,,,,,,,,,0,,,81,0
40170,note_on,0,0,1,,,,,,,,,,,,,,,0,,,69,0
40320,note_on,150,0,2,,,,,,,,,,,,,,,0,,,40,57
40320,note_on,0,0,2,,,,,,,,,,,,,,,0,,,49,69
40320,note_on,150,0,1,,,,,,,,,,,,,,,0,,,70,68
40320,note_on,0,0,1,,,,,,,,,,,,,,,0,,,82,80
40320,set_tempo,720,1,0,,,,,,,,,,,,405872,,,,,,,
40410,note_on,0,0,2,,,,,,,,,,,,,,,0,,,40,0
40410,note_on,90,0,2,,,,,,,,,,,,,,,0,,,49,0
40560,note_on,150,0,2,,,,,,,,,,,,,,,0,,,43,54
40560,note_on,0,0,2,,,,,,,,,,,,,,,0,,,52,65
40650,note_on,90,0,2,,,,,,,,,,,,,,,0,,,52,0
40650,note_on,0,0,2,,,,,,,,,,,,,,,0,,,43,0
40800,note_on,0,0,1,,,,,,,,,,,,,,,0,,,82,72
40800,note_on,0,0,1,,,,,,,,,,,,,,,0,,,70,0
40800,note_on,0,0,2,,,,,,,,,,,,,,,0,,,49,69
40800,note_on,480,0,1,,,,,,,,,,,,,,,0,,,82,0
40800,note_on,0,0,1,,,,,,,,,,,,,,,0,,,70,60
40800,note_on,150,0,2,,,,,,,,,,,,,,,0,,,40,57
40890,note_on,90,0,1,,,,,,,,,,,,,,,0,,,82,0
40890,note_on,0,0,1,,,,,,,,,,,,,,,0,,,70,0
40890,note_on,0,0,2,,,,,,,,,,,,,,,0,,,40,0
40890,note_on,90,0,2,,,,,,,,,,,,,,,0,,,49,0
41040,set_tempo,720,1,0,,,,,,,,,,,,429492,,,,,,,
41040,note_on,150,0,2,,,,,,,,,,,,,,,0,,,43,52
41040,note_on,0,0,1,,,,,,,,,,,,,,,0,,,82,72
41040,note_on,150,0,1,,,,,,,,,,,,,,,0,,,70,60
41040,note_on,0,0,2,,,,,,,,,,,,,,,0,,,52,63
41130,note_on,90,0,2,,,,,,,,,,,,,,,0,,,52,0
41130,note_on,0,0,1,,,,,,,,,,,,,,,0,,,70,0
41130,note_on,0,0,2,,,,,,,,,,,,,,,0,,,43,0
41130,note_on,90,0,1,,,,,,,,,,,,,,,0,,,82,0
41280,note_on,150,0,2,,,,,,,,,,,,,,,0,,,55,59
41280,note_on,0,0,2,,,,,,,,,,,,,,,0,,,58,72
41280,note_on,150,0,1,,,,,,,,,,,,,,,0,,,61,71
41280,note_on,0,0,1,,,,,,,,,,,,,,,0,,,73,84
41280,set_tempo,240,1,0,,,,,,,,,,,,393443,,,,,,,
41370,note_on,90,0,2,,,,,,,,,,,,,,,0,,,58,0
41370,note_on,0,0,2,,,,,,,,,,,,,,,0,,,55,0
41520,set_tempo,240,1,0,,,,,,,,,,,,404040,,,,,,,
41520,note_on,150,0,2,,,,,,,,,,,,,,,0,,,55,58
41520,note_on,0,0,2,,,,,,,,,,,,,,,0,,,58,70
42000,note_on,720,0,1,,,,,,,,,,,,,,,0,,,73,0
42000,note_on,0,0,1,,,,,,,,,,,,,,,0,,,61,0
42000,set_tempo,480,1,0,,,,,,,,,,,,397351,,,,,,,
42000,note_on,0,0,1,,,,,,,,,,,,,,,0,,,73,77
42000,note_on,0,0,1,,,,,,,,,,,,,,,0,,,61,66
42090,note_on,0,0,1,,,,,,,,,,,,,,,0,,,61,0
42090,note_on,90,0,1,,,,,,,,,,,,,,,0,,,73,0
42240,note_on,0,0,2,,,,,,,,,,,,,,,0,,,48,69
42240,set_tempo,240,1,0,,,,,,,,,,,,405405,,,,,,,
42240,note_on,0,0,2,,,,,,,,,,,,,,,0,,,55,0
42240,note_on,720,0,2,,,,,,,,,,,,,,,0,,,58,0
42240,note_on,0,0,1,,,,,,,,,,,,,,,0,,,81,80
42240,note_on,150,0,1,,,,,,,,,,,,,,,0,,,69,68
42240,note_on,0,0,2,,,,,,,,,,,,,,,0,,,39,57
42330,note_on,0,0,2,,,,,,,,,,,,,,,0,,,39,0
42330,note_on,90,0,2,,,,,,,,,,,,,,,0,,,48,0
42480,note_on,150,0,2,,,,,,,,,,,,,,,0,,,42,54
42480,note_on,0,0,2,,,,,,,,,,,,,,,0,,,51,65
42570,note_on,0,0,2,,,,,,,,,,,,,,,0,,,42,0
42570,note_on,90,0,2,,,,,,,,,,,,,,,0,,,51,0
42720,note_on,0,0,2,,,,,,,,,,,,,,,0,,,48,69
42720,note_on,150,0,2,,,,,,,,,,,,,,,0,,,39,57
42720,note_on,480,0,1,,,,,,,,,,,,,,,0,,,81,0
42720,note_on,0,0,1,,,,,,,,,,,,,,,0,,,69,0
42720,note_on,0,0,1,,,,,,,,,,,,,,,0,,,69,60
42720,note_on,0,0,1,,,,,,,,,,,,,,,0,,,81,72
42810,note_on,0,0,1,,,,,,,,,,,,,,,0,,,69,0
42810,note_on,0,0,2,,,,,,,,,,,,,,,0,,,39,0
42810,note_on,90,0,1,,,,,,,,,,,,,,,0,,,81,0
42810,note_on,90,0,2,,,,,,,,,,,,,,,0,,,48,0
42960,note_on,0,0,2,,,,,,,,,,,,,,,0,,,51,63
42960,note_on,0,0,1,,,,,,,,,,,,,,,0,,,81,73
42960,note_on,150,0,2,,,,,,,,,,,,,,,0,,,42,52
42960,set_tempo,720,1,0,,,,,,,,,,,,432620,,,,,,,
42960,note_on,150,0,1,,,,,,,,,,,,,,,0,,,69,61
43050,note_on,90,0,1,,,,,,,,,,,,,,,0,,,81,0
43050,note_on,0,0,1,,,,,,,,,,,,,,,0,,,69,0
43050,note_on,0,0,2,,,,,,,,,,,,,,,0,,,42,0
43050,note_on,90,0,2,,,,,,,,,,,,,,,0,,,51,0
43200,note_on,0,0,2,,,,,,,,,,,,,,,0,,,57,72
43200,note_on,150,0,2,,,,,,,,,,,,,,,0,,,54,59
43200,note_on,150,0,1,,,,,,,,,,,,,,,0,,,60,71
43200,set_tempo,240,1,0,,,,,,,,,,,,394737,,,,,,,
43200,note_on,0,0,1,,,,,,,,,,,,,,,0,,,72,84
43290,note_on,0,0,2,,,,,,,,,,,,,,,0,,,54,0
43290,note_on,90,0,2,,,,,,,,,,,,,,,0,,,57,0
43440,note_on,150,0,2,,,,,,,,,,,,,,,0,,,54,58
43440,note_on,0,0,2,,,,,,,,,,,,,,,0,,,57,70
43480,set_tempo,280,1,0,,,,,,,,,,,,405405,,,,,,,
43920,note_on,0,0,1,,,,,,,,,,,,,,,0,,,60,0
43920,note_on,720,0,1,,,,,,,,,,,,,,,0,,,72,0
43920,note_on,0,0,1,,,,,,,,,,,,,,,0,,,60,61
43920,note_on,0,0,1,,,,,,,,,,,,,,,0,,,72,73
44010,note_on,90,0,1,,,,,,,,,,,,,,,0,,,72,0
44010,note_on,0,0,1,,,,,,,,,,,,,,,0,,,60,0
44160,note_on,150,0,1,,,,,,,,,,,,,,,0,,,59,63
44160,note_on,0,0,1,,,,,,,,,,,,,,,0,,,71,73
44160,note_on,720,0,2,,,,,,,,,,,,,,,0,,,57,0
44160,note_on,0,0,2,,,,,,,,,,,,,,,0,,,55,71
44160,note_on,0,0,2,,,,,,,,,,,,,,,0,,,54,0
44250,note_on,90,0,1,,,,,,,,,,,,,,,0,,,71,0
44250,note_on,0,0,1,,,,,,,,,,,,,,,0,,,59,0
44400,note_on,150,0,1,,,,,,,,,,,,,,,0,,,62,64
44400,note_on,0,0,1,,,,,,,,,,,,,,,0,,,74,75
44400,set_tempo,920,1,0,,,,,,,,,,,,400374,,,,,,,
44490,note_on,90,0,1,,,,,,,,,,,,,,,0,,,74,0
44490,note_on,0,0,1,,,,,,,,,,,,,,,0,,,62,0
44640,note_on,0,0,2,,,,,,,,,,,,,,,0,,,50,66
44640,note_on,0,0,2,,,,,,,,,,,,,,,0,,,47,55
44640,note_on,480,0,2,,,,,,,,,,,,,,,0,,,55,0
44640,note_on,150,0,1,,,,,,,,,,,,,,,0,,,67,68
44640,note_on,0,0,1,,,,,,,,,,,,,,,0,,,79,80
44730,note_on,0,0,1,,,,,,,,,,,,,,,0,,,67,0
44730,note_on,90,0,1,,,,,,,,,,,,,,,0,,,79,0
44880,note_on,150,0,1,,,,,,,,,,,,,,,0,,,65,65
44880,note_on,0,0,1,,,,,,,,,,,,,,,0,,,77,77
44970,note_on,90,0,1,,,,,,,,,,,,,,,0,,,77,0
44970,note_on,0,0,1,,,,,,,,,,,,,,,0,,,65,0
45120,note_on,480,0,2,,,,,,,,,,,,,,,0,,,50,0
45120,note_on,0,0,2,,,,,,,,,,,,,,,0,,,47,0
45120,note_on,0,0,2,,,,,,,,,,,,,,,0,,,48,55
45120,note_on,150,0,1,,,,,,,,,,,,,,,0,,,64,67
45120,note_on,0,0,1,,,,,,,,,,,,,,,0,,,76,79
45120,set_tempo,720,1,0,,,,,,,,,,,,405872,,,,,,,
45120,note_on,0,0,2,,,,,,,,,,,,,,,0,,,52,65
45210,note_on,0,0,2,,,,,,,,,,,,,,,0,,,48,0
45210,note_on,90,0,2,,,,,,,,,,,,,,,0,,,52,0
45210,note_on,0,0,1,,,,,,,,,,,,,,,0,,,64,0
45210,note_on,90,0,1,,,,,,,,,,,,,,,0,,,76,0
45360,note_on,0,0,1,,,,,,,,,,,,,,,0,,,72,77
45360,note_on,0,0,2,,,,,,,,,,,,,,,0,,,53,68
45360,note_on,150,0,2,,,,,,,,,,,,,,,0,,,50,56
45360,note_on,150,0,1,,,,,,,,,,,,,,,0,,,60,66
45450,note_on,0,0,2,,,,,,,,,,,,,,,0,,,50,0
45450,note_on,90,0,2,,,,,,,,,,,,,,,0,,,53,0
45450,note_on,90,0,1,,,,,,,,,,,,,,,0,,,72,0
45450,note_on,0,0,1,,,,,,,,,,,,,,,0,,,60,0
45600,note_on,0,0,2,,,,,,,,,,,,,,,0,,,55,70
45600,note_on,150,0,2,,,,,,,,,,,,,,,0,,,52,59
45600,note_on,150,0,1,,,,,,,,,,,,,,,0,,,59,67
45600,note_on,0,0,1,,,,,,,,,,,,,,,0,,,71,78
45690,note_on,90,0,2,,,,,,,,,,,,,,,0,,,55,0
45690,note_on,0,0,2,,,,,,,,,,,,,,,0,,,52,0
45690,note_on,0,0,1,,,,,,,,,,,,,,,0,,,59,0
45690,note_on,90,0,1,,,,,,,,,,,,,,,0,,,71,0
45840,note_on,150,0,2,,,,,,,,,,,,,,,0,,,53,61
45840,note_on,150,0,1,,,,,,,,,,,,,,,0,,,57,67
45840,note_on,0,0,1,,,,,,,,,,,,,,,0,,,69,79
45840,note_on,0,0,2,,,,,,,,,,,,,,,0,,,57,73
45930,note_on,90,0,1,,,,,,,,,,,,,,,0,,,69,0
45930,note_on,0,0,2,,,,,,,,,,,,,,,0,,,53,0
45930,note_on,90,0,2,,,,,,,,,,,,,,,0,,,57,0
45930,note_on,0,0,1,,,,,,,,,,,,,,,0,,,57,0
46080,note_on,150,0,1,,,,,,,,,,,,,,,0,,,65,71
46080,note_on,0,0,2,,,,,,,,,,,,,,,0,,,55,77
46080,set_tempo,960,1,0,,,,,,,,,,,,410088,,,,,,,
46080,note_on,0,0,1,,,,,,,,,,,,,,,0,,,77,84
46080,note_on,150,0,2,,,,,,,,,,,,,,,0,,,50,65
46170,note_on,90,0,2,,,,,,,,,,,,,,,0,,,55,0
46320,note_on,150,0,2,,,,,,,,,,,,,,,0,,,59,75
46410,note_on,90,0,2,,,,,,,,,,,,,,,0,,,59,0
46560,set_tempo,480,1,0,,,,,,,,,,,,417333,,,,,,,
46560,note_on,0,0,1,,,,,,,,,,,,,,,0,,,76,81
46560,note_on,0,0,1,,,,,,,,,,,,,,,0,,,64,69
46560,note_on,0,0,1,,,,,,,,,,,,,,,0,,,65,0
46560,note_on,480,0,1,,,,,,,,,,,,,,,0,,,77,0
46560,note_on,0,0,2,,,,,,,,,,,,,,,0,,,60,76
46560,note_on,150,0,2,,,,,,,,,,,,,,,0,,,50,0
46560,note_on,0,0,2,,,,,,,,,,,,,,,0,,,48,77
46650,note_on,90,0,2,,,,,,,,,,,,,,,0,,,48,0
46800,note_on,150,0,2,,,,,,,,,,,,,,,0,,,52,75
46890,note_on,90,0,2,,,,,,,,,,,,,,,0,,,52,0
47040,set_tempo,480,1,0,,,,,,,,,,,,434783,,,,,,,
47040,note_on,150,0,2,,,,,,,,,,,,,,,0,,,55,65
47040,note_on,480,0,1,,,,,,,,,,,,,,,0,,,76,0
47040,note_on,0,0,1,,,,,,,,,,,,,,,0,,,64,0
47040,note_on,0,0,1,,,,,,,,,,,,,,,0,,,62,71
47040,note_on,0,0,1,,,,,,,,,,,,,,,0,,,74,84
47520,set_tempo,480,1,0,,,,,,,,,,,,447761,,,,,,,
47520,note_on,0,0,2,,,,,,,,,,,,,,,0,,,59,75
47520,note_on,480,0,2,,,,,,,,,,,,,,,0,,,60,0
47970,set_tempo,450,1,0,,,,,,,,,,,,413793,,,,,,,
48000,note_on,0,0,2,,,,,,,,,,,,,,,0,,,48,96
48000,note_on,0,0,2,,,,,,,,,,,,,,,0,,,36,81
48000,note_on,0,0,2,,,,,,,,,,,,,,,0,,,55,0
48000,note_on,480,0,2,,,,,,,,,,,,,,,0,,,59,0
48000,note_on,0,0,1,,,,,,,,,,,,,,,0,,,84,89
48000,note_on,0,0,1,,,,,,,,,,,,,,,0,,,62,0
48000,note_on,0,0,1,,,,,,,,,,,,,,,0,,,76,74
48000,note_on,0,0,1,,,,,,,,,,,,,,,0,,,72,74
48000,note_on,960,0,1,,,,,,,,,,,,,,,0,,,74,0
48000,set_tempo,30,1,0,,,,,,,,,,,,410959,,,,,,,
48480,note_on,0,0,2,,,,,,,,,,,,,,,0,,,36,77
48480,note_on,0,0,2,,,,,,,,,,,,,,,0,,,48,91
48480,set_tempo,480,1,0,,,,,,,,,,,,406780,,,,,,,
48480,note_on,480,0,2,,,,,,,,,,,,,,,0,,,48,0
48480,note_on,0,0,2,,,,,,,,,,,,,,,0,,,36,0
48570,note_on,0,0,2,,,,,,,,,,,,,,,0,,,36,0
48570,note_on,90,0,2,,,,,,,,,,,,,,,0,,,48,0
48720,note_on,0,0,2,,,,,,,,,,,,,,,0,,,48,91
48720,note_on,150,0,2,,,,,,,,,,,,,,,0,,,36,77
48810,note_on,0,0,2,,,,,,,,,,,,,,,0,,,36,0
48810,note_on,90,0,2,,,,,,,,,,,,,,,0,,,48,0
48960,set_tempo,480,1,0,,,,,,,,,,,,389788,,,,,,,
48960,note_on,0,0,2,,,,,,,,,,,,,,,0,,,48,91
48960,note_on,150,0,2,,,,,,,,,,,,,,,0,,,36,77
49200,note_on,0,0,1,,,,,,,,,,,,,,,0,,,79,84
49200,note_on,0,0,1,,,,,,,,,,,,,,,0,,,76,0
49200,note_on,0,0,1,,,,,,,,,,,,,,,0,,,72,0
49200,note_on,1200,0,1,,,,,,,,,,,,,,,0,,,84,0
49200,note_on,0,0,1,,,,,,,,,,,,,,,0,,,76,70
49200,set_tempo,240,1,0,,,,,,,,,,,,397667,,,,,,,
49200,note_on,0,0,1,,,,,,,,,,,,,,,0,,,67,70
49290,note_on,90,0,1,,,,,,,,,,,,,,,0,,,79,0
49290,note_on,0,0,1,,,,,,,,,,,,,,,0,,,67,0
49290,note_on,0,0,1,,,,,,,,,,,,,,,0,,,76,0
49440,note_on,150,0,1,,,,,,,,,,,,,,,0,,,69,70
49440,note_on,0,0,1,,,,,,,,,,,,,,,0,,,77,70
49440,note_on,0,0,1,,,,,,,,,,,,,,,0,,,81,84
49440,note_on,480,0,2,,,,,,,,,,,,,,,0,,,48,0
49440,note_on,0,0,2,,,,,,,,,,,,,,,0,,,36,0
49440,note_on,0,0,2,,,,,,,,,,,,,,,0,,,48,92
49440,note_on,0,0,2,,,,,,,,,,,,,,,0,,,36,78
49440,set_tempo,240,1,0,,,,,,,,,,,,404476,,,,,,,
49530,note_on,0,0,1,,,,,,,,,,,,,,,0,,,69,0
49530,note_on,0,0,1,,,,,,,,,,,,,,,0,,,77,0
49530,note_on,90,0,1,,,,,,,,,,,,,,,0,,,81,0
49530,note_on,0,0,2,,,,,,,,,,,,,,,0,,,36,0
49530,note_on,90,0,2,,,,,,,,,,,,,,,0,,,48,0
49680,note_on,0,0,2,,,,,,,,,,,,,,,0,,,48,93
49680,note_on,150,0,2,,,,,,,,,,,,,,,0,,,36,79
49680,note_on,0,0,1,,,,,,,,,,,,,,,0,,,79,70
49680,note_on,150,0,1,,,,,,,,,,,,,,,0,,,70,70
49680,note_on,0,0,1,,,,,,,,,,,,,,,0,,,82,84
49770,note_on,0,0,1,,,,,,,,,,,,,,,0,,,70,0
49770,note_on,90,0,1,,,,,,,,,,,,,,,0,,,82,0
49770,note_on,0,0,1,,,,,,,,,,,,,,,0,,,79,0
49770,note_on,90,0,2,,,,,,,,,,,,,,,0,,,48,0
49770,note_on,0,0,2,,,,,,,,,,,,,,,0,,,36,0
49920,set_tempo,480,1,0,,,,,,,,,,,,397667,,,,,,,
49920,note_on,0,0,1,,,,,,,,,,,,,,,0,,,81,89
49920,note_on,0,0,1,,,,,,,,,,,,,,,0,,,77,74
49920,note_on,150,0,1,,,,,,,,,,,,,,,0,,,69,74
49920,note_on,0,0,2,,,,,,,,,,,,,,,0,,,49,100
49920,note_on,150,0,2,,,,,,,,,,,,,,,0,,,37,85
50010,note_on,90,0,2,,,,,,,,,,,,,,,0,,,49,0
50010,note_on,0,0,1,,,,,,,,,,,,,,,0,,,69,0
50010,note_on,0,0,1,,,,,,,,,,,,,,,0,,,77,0
50010,note_on,90,0,1,,,,,,,,,,,,,,,0,,,81,0
50010,note_on,0,0,2,,,,,,,,,,,,,,,0,,,37,0
50160,note_on,0,0,1,,,,,,,,,,,,,,,0,,,76,70
50160,note_on,0,0,1,,,,,,,,,,,,,,,0,,,79,83
50160,note_on,150,0,1,,,,,,,,,,,,,,,0,,,67,70
50250,note_on,90,0,1,,,,,,,,,,,,,,,0,,,79,0
50250,note_on,0,0,1,,,,,,,,,,,,,,,0,,,67,0
50250,note_on,0,0,1,,,,,,,,,,,,,,,0,,,76,0
50400,note_on,150,0,1,,,,,,,,,,,,,,,0,,,65,70
50400,note_on,0,0,1,,,,,,,,,,,,,,,0,,,74,70
50400,note_on,0,0,1,,,,,,,,,,,,,,,0,,,77,83
50400,set_tempo,480,1,0,,,,,,,,,,,,405872,,,,,,,
50400,note_on,0,0,2,,,,,,,,,,,,,,,0,,,50,99
50400,note_on,390,0,2,,,,,,,,,,,,,,,0,,,38,81
50490,note_on,90,0,1,,,,,,,,,,,,,,,0,,,77,0
50490,note_on,0,0,1,,,,,,,,,,,,,,,0,,,74,0
50490,note_on,0,0,1,,,,,,,,,,,,,,,0,,,65,0
50640,note_on,0,0,1,,,,,,,,,,,,,,,0,,,76,83
50640,note_on,0,0,1,,,,,,,,,,,,,,,0,,,69,70
50640,note_on,150,0,1,,,,,,,,,,,,,,,0,,,64,70
50730,note_on,0,0,1,,,,,,,,,,,,,,,0,,,64,0
50730,note_on,0,0,1,,,,,,,,,,,,,,,0,,,69,0
50730,note_on,90,0,1,,,,,,,,,,,,,,,0,,,76,0
50880,note_on,150,0,1,,,,,,,,,,,,,,,0,,,62,75
50880,note_on,0,0,1,,,,,,,,,,,,,,,0,,,65,75
50880,note_on,0,0,1,,,,,,,,,,,,,,,0,,,74,89
51120,note_on,0,0,2,,,,,,,,,,,,,,,0,,,38,0
51120,set_tempo,720,1,0,,,,,,,,,,,,399016,,,,,,,
51120,note_on,720,0,2,,,,,,,,,,,,,,,0,,,50,0
51120,note_on,0,0,2,,,,,,,,,,,,,,,0,,,52,92
51120,note_on,0,0,2,,,,,,,,,,,,,,,0,,,40,78
51210,note_on,90,0,2,,,,,,,,,,,,,,,0,,,52,0
51210,note_on,0,0,2,,,,,,,,,,,,,,,0,,,40,0
51360,note_on,150,0,2,,,,,,,,,,,,,,,0,,,41,77
51360,note_on,0,0,2,,,,,,,,,,,,,,,0,,,53,91
51360,set_tempo,240,1,0,,,,,,,,,,,,394737,,,,,,,
51450,note_on,90,0,2,,,,,,,,,,,,,,,0,,,53,0
51450,note_on,0,0,2,,,,,,,,,,,,,,,0,,,41,0
51600,note_on,150,0,2,,,,,,,,,,,,,,,0,,,40,78
51600,note_on,0,0,1,,,,,,,,,,,,,,,0,,,73,73
51600,note_on,0,0,1,,,,,,,,,,,,,,,0,,,62,0
51600,note_on,0,0,1,,,,,,,,,,,,,,,0,,,65,0
51600,note_on,720,0,1,,,,,,,,,,,,,,,0,,,74,0
51600,note_on,0,0,2,,,,,,,,,,,,,,,0,,,52,92
51600,note_on,0,0,1,,,,,,,,,,,,,,,0,,,85,86
51600,note_on,0,0,1,,,,,,,,,,,,,,,0,,,76,73
51690,note_on,0,0,1,,,,,,,,,,,,,,,0,,,73,0
51690,note_on,90,0,2,,,,,,,,,,,,,,,0,,,52,0
51690,note_on,90,0,1,,,,,,,,,,,,,,,0,,,85,0
51690,note_on,0,0,1,,,,,,,,,,,,,,,0,,,76,0
51690,note_on,0,0,2,,,,,,,,,,,,,,,0,,,40,0
51840,note_on,150,0,1,,,,,,,,,,,,,,,0,,,74,74
51840,note_on,0,0,1,,,,,,,,,,,,,,,0,,,77,74
51840,note_on,0,0,1,,,,,,,,,,,,,,,0,,,86,89
51840,set_tempo,480,1,0,,,,,,,,,,,,405872,,,,,,,
51840,note_on,150,0,2,,,,,,,,,,,,,,,0,,,38,81
51840,note_on,0,0,2,,,,,,,,,,,,,,,0,,,50,96
52320,note_on,480,0,2,,,,,,,,,,,,,,,0,,,50,0
52320,note_on,0,0,2,,,,,,,,,,,,,,,0,,,38,0
52320,note_on,0,0,2,,,,,,,,,,,,,,,0,,,38,81
52320,note_on,0,0,2,,,,,,,,,,,,,,,0,,,50,96
52320,set_tempo,480,1,0,,,,,,,,,,,,399016,,,,,,,
52410,note_on,0,0,2,,,,,,,,,,,,,,,0,,,38,0
52410,note_on,90,0,2,,,,,,,,,,,,,,,0,,,50,0
52560,note_on,150,0,2,,,,,,,,,,,,,,,0,,,38,78
52560,note_on,0,0,2,,,,,,,,,,,,,,,0,,,50,92
52650,note_on,0,0,2,,,,,,,,,,,,,,,0,,,38,0
52650,note_on,90,0,2,,,,,,,,,,,,,,,0,,,50,0
52800,set_tempo,480,1,0,,,,,,,,,,,,405872,,,,,,,
52800,note_on,0,0,2,,,,,,,,,,,,,,,0,,,50,92
52800,note_on,150,0,2,,,,,,,,,,,,,,,0,,,38,78
53040,set_tempo,240,1,0,,,,,,,,,,,,389788,,,,,,,
53040,note_on,1200,0,1,,,,,,,,,,,,,,,0,,,86,0
53040,note_on,0,0,1,,,,,,,,,,,,,,,0,,,77,0
53040,note_on,0,0,1,,,,,,,,,,,,,,,0,,,74,0
53040,note_on,0,0,1,,,,,,,,,,,,,,,0,,,69,70
53040,note_on,0,0,1,,,,,,,,,,,,,,,0,,,77,70
53040,note_on,0,0,1,,,,,,,,,,,,,,,0,,,81,84
53130,note_on,0,0,1,,,,,,,,,,,,,,,0,,,77,0
53130,note_on,0,0,1,,,,,,,,,,,,,,,0,,,69,0
53130,note_on,90,0,1,,,,,,,,,,,,,,,0,,,81,0
53280,note_on,0,0,1,,,,,,,,,,,,,,,0,,,83,84
53280,note_on,150,0,1,,,,,,,,,,,,,,,0,,,79,70
53280,note_on,0,0,2,,,,,,,,,,,,,,,0,,,38,79
53280,set_tempo,240,1,0,,,,,,,,,,,,401714,,,,,,,
53280,note_on,480,0,2,,,,,,,,,,,,,,,0,,,50,0
53280,note_on,0,0,2,,,,,,,,,,,,,,,0,,,38,0
53280,note_on,0,0,1,,,,,,,,,,,,,,,0,,,71,70
53280,note_on,0,0,2,,,,,,,,,,,,,,,0,,,50,93
53370,note_on,0,0,1,,,,,,,,,,,,,,,0,,,79,0
53370,note_on,0,0,2,,,,,,,,,,,,,,,0,,,38,0
53370,note_on,0,0,1,,,,,,,,,,,,,,,0,,,71,0
53370,note_on,90,0,1,,,,,,,,,,,,,,,0,,,83,0
53370,note_on,90,0,2,,,,,,,,,,,,,,,0,,,50,0
53520,note_on,150,0,2,,,,,,,,,,,,,,,0,,,38,79
53520,note_on,0,0,2,,,,,,,,,,,,,,,0,,,50,93
53520,note_on,0,0,1,,,,,,,,,,,,,,,0,,,84,84
53520,note_on,0,0,1,,,,,,,,,,,,,,,0,,,81,70
53520,note_on,150,0,1,,,,,,,,,,,,,,,0,,,72,70
53610,note_on,0,0,2,,,,,,,,,,,,,,,0,,,38,0
53610,note_on,0,0,1,,,,,,,,,,,,,,,0,,,72,0
53610,note_on,0,0,1,,,,,,,,,,,,,,,0,,,81,0
53610,note_on,90,0,1,,,,,,,,,,,,,,,0,,,84,0
53610,note_on,90,0,2,,,,,,,,,,,,,,,0,,,50,0
53760,note_on,150,0,2,,,,,,,,,,,,,,,0,,,39,85
53760,note_on,0,0,2,,,,,,,,,,,,,,,0,,,51,100
53760,note_on,0,0,1,,,,,,,,,,,,,,,0,,,83,89
53760,note_on,0,0,1,,,,,,,,,,,,,,,0,,,79,74
53760,note_on,150,0,1,,,,,,,,,,,,,,,0,,,71,74
53800,set_tempo,520,1,0,,,,,,,,,,,,394997,,,,,,,
53850,note_on,0,0,2,,,,,,,,,,,,,,,0,,,39,0
53850,note_on,90,0,1,,,,,,,,,,,,,,,0,,,83,0
53850,note_on,0,0,1,,,,,,,,,,,,,,,0,,,79,0
53850,note_on,0,0,1,,,,,,,,,,,,,,,0,,,71,0
53850,note_on,90,0,2,,,,,,,,,,,,,,,0,,,51,0
54000,note_on,150,0,1,,,,,,,,,,,,,,,0,,,69,70
54000,note_on,0,0,1,,,,,,,,,,,,,,,0,,,78,70
54000,note_on,0,0,1,,,,,,,,,,,,,,,0,,,81,83
54090,note_on,0,0,1,,,,,,,,,,,,,,,0,,,78,0
54090,note_on,90,0,1,,,,,,,,,,,,,,,0,,,81,0
54090,note_on,0,0,1,,,,,,,,,,,,,,,0,,,69,0
54240,note_on,150,0,1,,,,,,,,,,,,,,,0,,,67,70
54240,note_on,0,0,1,,,,,,,,,,,,,,,0,,,76,70
54240,note_on,0,0,1,,,,,,,,,,,,,,,0,,,79,83
54240,set_tempo,440,1,0,,,,,,,,,,,,405872,,,,,,,
54240,note_on,390,0,2,,,,,,,,,,,,,,,0,,,40,80
54240,note_on,0,0,2,,,,,,,,,,,,,,,0,,,52,99
54330,note_on,90,0,1,,,,,,,,,,,,,,,0,,,79,0
54330,note_on,0,0,1,,,,,,,,,,,,,,,0,,,76,0
54330,note_on,0,0,1,,,,,,,,,,,,,,,0,,,67,0
54480,note_on,150,0,1,,,,,,,,,,,,,,,0,,,66,70
54480,note_on,0,0,1,,,,,,,,,,,,,,,0,,,78,83
54480,note_on,0,0,1,,,,,,,,,,,,,,,0,,,71,70
54570,note_on,0,0,1,,,,,,,,,,,,,,,0,,,66,0
54570,note_on,0,0,1,,,,,,,,,,,,,,,0,,,71,0
54570,note_on,90,0,1,,,,,,,,,,,,,,,0,,,78,0
54720,note_on,0,0,1,,,,,,,,,,,,,,,0,,,76,89
54720,note_on,150,0,1,,,,,,,,,,,,,,,0,,,64,75
54720,note_on,0,0,1,,,,,,,,,,,,,,,0,,,67,75
54960,note_on,720,0,2,,,,,,,,,,,,,,,0,,,52,0
54960,note_on,0,0,2,,,,,,,,,,,,,,,0,,,40,0
54960,note_on,0,0,2,,,,,,,,,,,,,,,0,,,42,92
54960,set_tempo,720,1,0,,,,,,,,,,,,397667,,,,,,,
54960,note_on,0,0,2,,,,,,,,,,,,,,,0,,,54,92
55050,note_on,0,0,2,,,,,,,,,,,,,,,0,,,42,0
55050,note_on,90,0,2,,,,,,,,,,,,,,,0,,,54,0
55200,note_on,0,0,2,,,,,,,,,,,,,,,0,,,55,91
55200,note_on,150,0,2,,,,,,,,,,,,,,,0,,,43,77
55290,note_on,0,0,2,,,,,,,,,,,,,,,0,,,43,0
55290,note_on,90,0,2,,,,,,,,,,,,,,,0,,,55,0
55440,note_on,0,0,1,,,,,,,,,,,,,,,0,,,62,73
55440,note_on,0,0,1,,,,,,,,,,,,,,,0,,,64,0
55440,note_on,0,0,1,,,,,,,,,,,,,,,0,,,67,0
55440,note_on,0,0,1,,,,,,,,,,,,,,,0,,,74,86
55440,note_on,720,0,1,,,,,,,,,,,,,,,0,,,76,0
55440,note_on,0,0,1,,,,,,,,,,,,,,,0,,,65,73
55440,note_on,150,0,2,,,,,,,,,,,,,,,0,,,45,78
55440,note_on,0,0,2,,,,,,,,,,,,,,,0,,,57,92
55530,note_on,0,0,1,,,,,,,,,,,,,,,0,,,62,0
55530,note_on,0,0,1,,,,,,,,,,,,,,,0,,,65,0
55530,note_on,90,0,2,,,,,,,,,,,,,,,0,,,57,0
55530,note_on,90,0,1,,,,,,,,,,,,,,,0,,,74,0
55530,note_on,0,0,2,,,,,,,,,,,,,,,0,,,45,0
55680,set_tempo,720,1,0,,,,,,,,,,,,400374,,,,,,,
55680,note_on,150,0,2,,,,,,,,,,,,,,,0,,,46,87
55680,note_on,0,0,1,,,,,,,,,,,,,,,0,,,73,89
55680,note_on,0,0,1,,,,,,,,,,,,,,,0,,,64,74
55680,note_on,150,0,1,,,,,,,,,,,,,,,0,,,61,74
55680,note_on,0,0,2,,,,,,,,,,,,,,,0,,,58,103
55770,note_on,0,0,1,,,,,,,,,,,,,,,0,,,61,0
55770,note_on,0,0,1,,,,,,,,,,,,,,,0,,,64,0
55770,note_on,90,0,1,,,,,,,,,,,,,,,0,,,73,0
55920,note_on,0,0,1,,,,,,,,,,,,,,,0,,,67,69
55920,note_on,0,0,1,,,,,,,,,,,,,,,0,,,76,82
55920,note_on,150,0,1,,,,,,,,,,,,,,,0,,,64,69
56010,note_on,90,0,1,,,,,,,,,,,,,,,0,,,76,0
56010,note_on,0,0,1,,,,,,,,,,,,,,,0,,,67,0
56010,note_on,0,0,1,,,,,,,,,,,,,,,0,,,64,0
56120,set_tempo,440,1,0,,,,,,,,,,,,405872,,,,,,,
56160,note_on,0,0,1,,,,,,,,,,,,,,,0,,,64,74
56160,note_on,0,0,1,,,,,,,,,,,,,,,0,,,73,89
56160,note_on,480,0,2,,,,,,,,,,,,,,,0,,,58,0
56160,note_on,0,0,2,,,,,,,,,,,,,,,0,,,46,0
56160,note_on,0,0,2,,,,,,,,,,,,,,,0,,,46,78
56160,note_on,0,0,2,,,,,,,,,,,,,,,0,,,58,92
56160,note_on,150,0,1,,,,,,,,,,,,,,,0,,,61,74
56250,note_on,90,0,1,,,,,,,,,,,,,,,0,,,73,0
56250,note_on,0,0,1,,,,,,,,,,,,,,,0,,,61,0
56250,note_on,0,0,1,,,,,,,,,,,,,,,0,,,64,0
56250,note_on,0,0,2,,,,,,,,,,,,,,,0,,,46,0
56250,note_on,90,0,2,,,,,,,,,,,,,,,0,,,58,0
56400,note_on,150,0,1,,,,,,,,,,,,,,,0,,,64,67
56400,note_on,0,0,2,,,,,,,,,,,,,,,0,,,58,92
56400,note_on,150,0,2,,,,,,,,,,,,,,,0,,,46,78
56400,note_on,0,0,1,,,,,,,,,,,,,,,0,,,67,67
56400,note_on,0,0,1,,,,,,,,,,,,,,,0,,,76,80
56400,set_tempo,280,1,0,,,,,,,,,,,,429492,,,,,,,
56490,note_on,0,0,1,,,,,,,,,,,,,,,0,,,67,0
56490,note_on,90,0,2,,,,,,,,,,,,,,,0,,,58,0
56490,note_on,0,0,2,,,,,,,,,,,,,,,0,,,46,0
56490,note_on,90,0,1,,,,,,,,,,,,,,,0,,,76,0
56490,note_on,0,0,1,,,,,,,,,,,,,,,0,,,64,0
56640,note_on,150,0,1,,,,,,,,,,,,,,,0,,,70,74
56640,set_tempo,240,1,0,,,,,,,,,,,,388350,,,,,,,
56640,note_on,0,0,1,,,,,,,,,,,,,,,0,,,79,74
56640,note_on,0,0,1,,,,,,,,,,,,,,,0,,,82,89
56640,note_on,150,0,2,,,,,,,,,,,,,,,0,,,37,85
56640,note_on,0,0,2,,,,,,,,,,,,,,,0,,,49,100
56730,note_on,0,0,1,,,,,,,,,,,,,,,0,,,70,0
56730,note_on,90,0,1,,,,,,,,,,,,,,,0,,,82,0
56730,note_on,0,0,1,,,,,,,,,,,,,,,0,,,79,0
56880,set_tempo,240,1,0,,,,,,,,,,,,405405,,,,,,,
56880,note_on,150,0,1,,,,,,,,,,,,,,,0,,,70,73
56880,note_on,0,0,1,,,,,,,,,,,,,,,0,,,82,86
56880,note_on,0,0,1,,,,,,,,,,,,,,,0,,,79,73
57360,note_on,0,0,2,,,,,,,,,,,,,,,0,,,37,0
57360,note_on,720,0,2,,,,,,,,,,,,,,,0,,,49,0
57360,note_on,0,0,2,,,,,,,,,,,,,,,0,,,37,80
57360,note_on,0,0,2,,,,,,,,,,,,,,,0,,,49,94
57450,note_on,90,0,2,,,,,,,,,,,,,,,0,,,49,0
57450,note_on,0,0,2,,,,,,,,,,,,,,,0,,,37,0
57600,note_on,0,0,1,,,,,,,,,,,,,,,0,,,72,87
57600,note_on,0,0,1,,,,,,,,,,,,,,,0,,,63,72
57600,note_on,0,0,1,,,,,,,,,,,,,,,0,,,60,72
57600,note_on,0,0,1,,,,,,,,,,,,,,,0,,,70,0
57600,note_on,0,0,1,,,,,,,,,,,,,,,0,,,79,0
57600,note_on,720,0,1,,,,,,,,,,,,,,,0,,,82,0
57600,set_tempo,720,1,0,,,,,,,,,,,,399016,,,,,,,
57600,note_on,0,0,2,,,,,,,,,,,,,,,0,,,57,100
57600,note_on,150,0,2,,,,,,,,,,,,,,,0,,,45,85
57690,note_on,0,0,1,,,,,,,,,,,,,,,0,,,60,0
57690,note_on,0,0,1,,,,,,,,,,,,,,,0,,,63,0
57690,note_on,90,0,1,,,,,,,,,,,,,,,0,,,72,0
57840,note_on,150,0,1,,,,,,,,,,,,,,,0,,,63,67
57840,note_on,0,0,1,,,,,,,,,,,,,,,0,,,75,80
57840,note_on,0,0,1,,,,,,,,,,,,,,,0,,,66,67
57930,note_on,0,0,1,,,,,,,,,,,,,,,0,,,63,0
57930,note_on,0,0,1,,,,,,,,,,,,,,,0,,,66,0
57930,note_on,90,0,1,,,,,,,,,,,,,,,0,,,75,0
58080,note_on,0,0,2,,,,,,,,,,,,,,,0,,,45,0
58080,note_on,0,0,2,,,,,,,,,,,,,,,0,,,57,90
58080,note_on,0,0,2,,,,,,,,,,,,,,,0,,,45,76
58080,note_on,0,0,1,,,,,,,,,,,,,,,0,,,72,87
58080,note_on,0,0,1,,,,,,,,,,,,,,,0,,,63,72
58080,note_on,150,0,1,,,,,,,,,,,,,,,0,,,60,72
58080,note_on,480,0,2,,,,,,,,,,,,,,,0,,,57,0
58170,note_on,0,0,1,,,,,,,,,,,,,,,0,,,60,0
58170,note_on,0,0,1,,,,,,,,,,,,,,,0,,,63,0
58170,note_on,0,0,2,,,,,,,,,,,,,,,0,,,45,0
58170,note_on,90,0,2,,,,,,,,,,,,,,,0,,,57,0
58170,note_on,90,0,1,,,,,,,,,,,,,,,0,,,72,0
58320,note_on,150,0,1,,,,,,,,,,,,,,,0,,,63,65
58320,note_on,0,0,1,,,,,,,,,,,,,,,0,,,66,65
58320,note_on,0,0,1,,,,,,,,,,,,,,,0,,,75,78
58320,note_on,150,0,2,,,,,,,,,,,,,,,0,,,45,77
58320,set_tempo,720,1,0,,,,,,,,,,,,432620,,,,,,,
58320,note_on,0,0,2,,,,,,,,,,,,,,,0,,,57,91
58410,note_on,90,0,1,,,,,,,,,,,,,,,0,,,75,0
58410,note_on,0,0,1,,,,,,,,,,,,,,,0,,,66,0
58410,note_on,0,0,1,,,,,,,,,,,,,,,0,,,63,0
58410,note_on,0,0,2,,,,,,,,,,,,,,,0,,,45,0
58410,note_on,90,0,2,,,,,,,,,,,,,,,0,,,57,0
58560,set_tempo,240,1,0,,,,,,,,,,,,390879,,,,,,,
58560,note_on,0,0,1,,,,,,,,,,,,,,,0,,,78,72
58560,note_on,150,0,2,,,,,,,,,,,,,,,0,,,36,83
58560,note_on,0,0,2,,,,,,,,,,,,,,,0,,,48,98
58560,note_on,150,0,1,,,,,,,,,,,,,,,0,,,69,72
58560,note_on,0,0,1,,,,,,,,,,,,,,,0,,,81,87
58650,note_on,90,0,1,,,,,,,,,,,,,,,0,,,81,0
58650,note_on,0,0,1,,,,,,,,,,,,,,,0,,,78,0
58650,note_on,0,0,1,,,,,,,,,,,,,,,0,,,69,0
58800,note_on,0,0,1,,,,,,,,,,,,,,,0,,,81,84
58800,note_on,150,0,1,,,,,,,,,,,,,,,0,,,69,71
58800,set_tempo,240,1,0,,,,,,,,,,,,406780,,,,,,,
58800,note_on,0,0,1,,,,,,,,,,,,,,,0,,,78,71
59280,note_on,720,0,2,,,,,,,,,,,,,,,0,,,48,0
59280,note_on,0,0,2,,,,,,,,,,,,,,,0,,,36,77
59280,note_on,0,0,2,,,,,,,,,,,,,,,0,,,48,91
59280,note_on,0,0,2,,,,,,,,,,,,,,,0,,,36,0
59370,note_on,90,0,2,,,,,,,,,,,,,,,0,,,48,0
59370,note_on,0,0,2,,,,,,,,,,,,,,,0,,,36,0
59520,note_on,0,0,2,,,,,,,,,,,,,,,0,,,47,93
59520,note_on,150,0,2,,,,,,,,,,,,,,,0,,,35,79
59520,note_on,0,0,1,,,,,,,,,,,,,,,0,,,78,0
59520,note_on,0,0,1,,,,,,,,,,,,,,,0,,,67,84
59520,note_on,720,0,1,,,,,,,,,,,,,,,0,,,81,0
59520,note_on,0,0,1,,,,,,,,,,,,,,,0,,,69,0
59520,note_on,0,0,1,,,,,,,,,,,,,,,0,,,79,90
59610,note_on,0,0,2,,,,,,,,,,,,,,,0,,,35,0
59610,note_on,90,0,2,,,,,,,,,,,,,,,0,,,47,0
59760,note_on,0,0,2,,,,,,,,,,,,,,,0,,,50,94
59760,set_tempo,960,1,0,,,,,,,,,,,,400374,,,,,,,
59760,note_on,150,0,2,,,,,,,,,,,,,,,0,,,38,80
59850,note_on,0,0,2,,,,,,,,,,,,,,,0,,,38,0
59850,note_on,90,0,2,,,,,,,,,,,,,,,0,,,50,0
60000,note_on,0,0,2,,,,,,,,,,,,,,,0,,,55,100
60000,note_on,0,0,1,,,,,,,,,,,,,,,0,,,74,81
60000,note_on,0,0,1,,,,,,,,,,,,,,,0,,,71,68
60000,note_on,0,0,1,,,,,,,,,,,,,,,0,,,62,68
60000,note_on,0,0,1,,,,,,,,,,,,,,,0,,,67,0
60000,note_on,480,0,1,,,,,,,,,,,,,,,0,,,79,0
60000,note_on,150,0,2,,,,,,,,,,,,,,,0,,,43,84
60090,note_on,90,0,2,,,,,,,,,,,,,,,0,,,55,0
60090,note_on,0,0,2,,,,,,,,,,,,,,,0,,,43,0
60240,note_on,0,0,2,,,,,,,,,,,,,,,0,,,53,94
60240,note_on,150,0,2,,,,,,,,,,,,,,,0,,,41,80
60330,note_on,0,0,2,,,,,,,,,,,,,,,0,,,41,0
60330,note_on,90,0,2,,,,,,,,,,,,,,,0,,,53,0
60480,note_on,0,0,1,,,,,,,,,,,,,,,0,,,64,67
60480,note_on,0,0,1,,,,,,,,,,,,,,,0,,,71,0
60480,note_on,0,0,1,,,,,,,,,,,,,,,0,,,62,0
60480,note_on,0,0,1,,,,,,,,,,,,,,,0,,,72,67
60480,note_on,0,0,1,,,,,,,,,,,,,,,0,,,76,79
60480,set_tempo,720,1,0,,,,,,,,,,,,405872,,,,,,,
60480,note_on,0,0,2,,,,,,,,,,,,,,,0,,,52,96
60480,note_on,150,0,2,,,,,,,,,,,,,,,0,,,40,81
60480,note_on,480,0,1,,,,,,,,,,,,,,,0,,,74,0
60570,note_on,90,0,1,,,,,,,,,,,,,,,0,,,76,0
60570,note_on,0,0,1,,,,,,,,,,,,,,,0,,,72,0
60570,note_on,0,0,1,,,,,,,,,,,,,,,0,,,64,0
60570,note_on,0,0,2,,,,,,,,,,,,,,,0,,,40,0
60570,note_on,90,0,2,,,,,,,,,,,,,,,0,,,52,0
60720,note_on,0,0,2,,,,,,,,,,,,,,,0,,,48,93
60720,note_on,150,0,2,,,,,,,,,,,,,,,0,,,36,79
60720,note_on,0,0,1,,,,,,,,,,,,,,,0,,,74,68
60720,note_on,0,0,1,,,,,,,,,,,,,,,0,,,77,81
60720,note_on,150,0,1,,,,,,,,,,,,,,,0,,,65,68
60810,note_on,0,0,1,,,,,,,,,,,,,,,0,,,65,0
60810,note_on,0,0,1,,,,,,,,,,,,,,,0,,,74,0
60810,note_on,90,0,1,,,,,,,,,,,,,,,0,,,77,0
60810,note_on,0,0,2,,,,,,,,,,,,,,,0,,,36,0
60810,note_on,90,0,2,,,,,,,,,,,,,,,0,,,48,0
60960,note_on,0,0,1,,,,,,,,,,,,,,,0,,,79,84
60960,note_on,0,0,2,,,,,,,,,,,,,,,0,,,47,93
60960,note_on,150,0,2,,,,,,,,,,,,,,,0,,,35,79
60960,note_on,0,0,1,,,,,,,,,,,,,,,0,,,76,70
60960,note_on,150,0,1,,,,,,,,,,,,,,,0,,,67,70
61050,note_on,0,0,2,,,,,,,,,,,,,,,0,,,35,0
61050,note_on,90,0,2,,,,,,,,,,,,,,,0,,,47,0
61050,note_on,0,0,1,,,,,,,,,,,,,,,0,,,76,0
61050,note_on,0,0,1,,,,,,,,,,,,,,,0,,,67,0
61050,note_on,90,0,1,,,,,,,,,,,,,,,0,,,79,0
61200,note_on,0,0,1,,,,,,,,,,,,,,,0,,,77,73
61200,note_on,150,0,1,,,,,,,,,,,,,,,0,,,69,73
61200,note_on,150,0,2,,,,,,,,,,,,,,,0,,,33,79
61200,note_on,0,0,2,,,,,,,,,,,,,,,0,,,45,93
61200,note_on,0,0,1,,,,,,,,,,,,,,,0,,,81,86
61290,note_on,0,0,1,,,,,,,,,,,,,,,0,,,77,0
61290,note_on,90,0,1,,,,,,,,,,,,,,,0,,,81,0
61290,note_on,90,0,2,,,,,,,,,,,,,,,0,,,45,0
61290,note_on,0,0,2,,,,,,,,,,,,,,,0,,,33,0
61290,note_on,0,0,1,,,,,,,,,,,,,,,0,,,69,0
61440,note_on,150,0,1,,,,,,,,,,,,,,,0,,,71,74
61440,note_on,0,0,1,,,,,,,,,,,,,,,0,,,79,89
61440,note_on,0,0,1,,,,,,,,,,,,,,,0,,,74,74
61440,set_tempo,960,1,0,,,,,,,,,,,,410088,,,,,,,
61440,note_on,150,0,2,,,,,,,,,,,,,,,0,,,41,81
61440,note_on,0,0,2,,,,,,,,,,,,,,,0,,,53,96
61920,note_on,0,0,1,,,,,,,,,,,,,,,0,,,84,88
61920,note_on,0,0,1,,,,,,,,,,,,,,,0,,,79,74
61920,note_on,0,0,1,,,,,,,,,,,,,,,0,,,71,0
61920,note_on,0,0,1,,,,,,,,,,,,,,,0,,,74,0
61920,note_on,480,0,1,,,,,,,,,,,,,,,0,,,79,0
61920,set_tempo,480,1,0,,,,,,,,,,,,454270,,,,,,,
61920,note_on,480,0,2,,,,,,,,,,,,,,,0,,,53,0
61920,note_on,0,0,2,,,,,,,,,,,,,,,0,,,41,0
61920,note_on,0,0,2,,,,,,,,,,,,,,,0,,,40,79
61920,note_on,0,0,2,,,,,,,,,,,,,,,0,,,52,93
61920,note_on,0,0,1,,,,,,,,,,,,,,,0,,,72,74
62400,note_on,0,0,2,,,,,,,,,,,,,,,0,,,40,0
62400,note_on,480,0,2,,,,,,,,,,,,,,,0,,,52,0
62400,note_on,0,0,1,,,,,,,,,,,,,,,0,,,72,0
62400,note_on,0,0,1,,,,,,,,,,,,,,,0,,,83,82
62400,note_on,0,0,1,,,,,,,,,,,,,,,0,,,77,82
62400,note_on,0,0,1,,,,,,,,,,,,,,,0,,,89,97
62400,note_on,480,0,1,,,,,,,,,,,,,,,0,,,84,0
62400,set_tempo,480,1,0,,,,,,,,,,,,427930,,,,,,,
62400,note_on,0,0,1,,,,,,,,,,,,,,,0,,,79,0
62400,note_on,0,0,2,,,,,,,,,,,,,,,0,,,50,96
62400,note_on,0,0,2,,,,,,,,,,,,,,,0,,,38,81
62880,note_on,0,0,1,,,,,,,,,,,,,,,0,,,83,94
62880,note_on,480,0,1,,,,,,,,,,,,,,,0,,,83,0
63360,set_tempo,960,1,0,,,,,,,,,,,,389610,,,,,,,
63360,note_on,0,0,2,,,,,,,,,,,,,,,0,,,61,96
63360,note_on,0,0,1,,,,,,,,,,,,,,,0,,,89,0
63360,note_on,480,0,1,,,,,,,,,,,,,,,0,,,83,0
63360,note_on,0,0,2,,,,,,,,,,,,,,,0,,,49,80
63360,note_on,0,0,2,,,,,,,,,,,,,,,0,,,38,0
63360,note_on,960,0,2,,,,,,,,,,,,,,,0,,,50,0
63360,note_on,0,0,1,,,,,,,,,,,,,,,0,,,77,0
63417,control_change,57,0,2,,,,,,,,,,,,,,,0,64,127,,
63480,note_on,120,0,1,,,,,,,,,,,,,,,0,,,67,74
63600,note_on,0,0,1,,,,,,,,,,,,,,,0,,,70,75
63600,note_on,120,0,1,,,,,,,,,,,,,,,0,,,67,0
63720,note_on,120,0,1,,,,,,,,,,,,,,,0,,,70,0
63720,note_on,0,0,1,,,,,,,,,,,,,,,0,,,73,75
63834,control_change,417,0,2,,,,,,,,,,,,,,,0,64,0,,
63840,note_on,0,0,2,,,,,,,,,,,,,,,0,,,61,92
63840,note_on,0,0,1,,,,,,,,,,,,,,,0,,,76,76
63840,note_on,0,0,2,,,,,,,,,,,,,,,0,,,49,77
63840,note_on,0,0,2,,,,,,,,,,,,,,,0,,,49,0
63840,note_on,6,0,2,,,,,,,,,,,,,,,0,,,61,0
63840,set_tempo,480,1,0,,,,,,,,,,,,382166,,,,,,,
63840,note_on,120,0,1,,,,,,,,,,,,,,,0,,,73,0
63960,note_on,0,0,2,,,,,,,,,,,,,,,0,,,49,0
63960,note_on,120,0,1,,,,,,,,,,,,,,,0,,,79,77
63960,note_on,120,0,2,,,,,,,,,,,,,,,0,,,61,0
63980,note_on,20,0,1,,,,,,,,,,,,,,,0,,,76,0
64080,note_on,120,0,2,,,,,,,,,,,,,,,0,,,49,74
64080,note_on,0,0,2,,,,,,,,,,,,,,,0,,,61,88
64080,note_on,100,0,1,,,,,,,,,,,,,,,0,,,82,78
64100,note_on,20,0,1,,,,,,,,,,,,,,,0,,,79,0
64200,note_on,120,0,2,,,,,,,,,,,,,,,0,,,61,0
64200,note_on,100,0,1,,,,,,,,,,,,,,,0,,,85,79
64200,set_tempo,360,1,0,,,,,,,,,,,,433213,,,,,,,
64200,note_on,0,0,2,,,,,,,,,,,,,,,0,,,49,0
64220,note_on,20,0,1,,,,,,,,,,,,,,,0,,,82,0
64320,note_on,120,0,2,,,,,,,,,,,,,,,0,,,40,77
64320,note_on,0,0,2,,,,,,,,,,,,,,,0,,,52,92
64320,set_tempo,120,1,0,,,,,,,,,,,,388350,,,,,,,
64320,note_on,100,0,1,,,,,,,,,,,,,,,0,,,91,79
64340,note_on,20,0,1,,,,,,,,,,,,,,,0,,,85,0
64360,set_tempo,40,1,0,,,,,,,,,,,,389610,,,,,,,
64360,control_change,40,0,2,,,,,,,,,,,,,,,0,64,127,,
64440,note_on,100,0,1,,,,,,,,,,,,,,,0,,,91,0
64440,note_on,0,0,1,,,,,,,,,,,,,,,0,,,88,78
64560,note_on,0,0,1,,,,,,,,,,,,,,,0,,,85,77
64560,note_on,120,0,1,,,,,,,,,,,,,,,0,,,88,0
64600,set_tempo,240,1,0,,,,,,,,,,,,388350,,,,,,,
64680,note_on,0,0,1,,,,,,,,,,,,,,,0,,,82,76
64680,note_on,120,0,1,,,,,,,,,,,,,,,0,,,85,0
64800,note_on,0,0,1,,,,,,,,,,,,,,,0,,,79,75
64800,note_on,120,0,1,,,,,,,,,,,,,,,0,,,82,0
64800,set_tempo,200,1,0,,,,,,,,,,,,387097,,,,,,,
64880,set_tempo,80,1,0,,,,,,,,,,,,388350,,,,,,,
64920,note_on,120,0,1,,,,,,,,,,,,,,,0,,,79,0
64920,note_on,0,0,1,,,,,,,,,,,,,,,0,,,76,74
64960,set_tempo,80,1,0,,,,,,,,,,,,389610,,,,,,,
65000,set_tempo,40,1,0,,,,,,,,,,,,390879,,,,,,,
65040,note_on,0,0,1,,,,,,,,,,,,,,,0,,,73,73
65040,note_on,120,0,1,,,,,,,,,,,,,,,0,,,76,0
65080,set_tempo,80,1,0,,,,,,,,,,,,392157,,,,,,,
65160,set_tempo,80,1,0,,,,,,,,,,,,545455,,,,,,,
65160,note_on,0,0,1,,,,,,,,,,,,,,,0,,,70,72
65160,note_on,120,0,1,,,,,,,,,,,,,,,0,,,73,0
65280,set_tempo,120,1,0,,,,,,,,,,,,388350,,,,,,,
65280,note_on,120,0,1,,,,,,,,,,,,,,,0,,,70,0
65280,note_on,920,0,2,,,,,,,,,,,,,,,0,,,52,0
65280,note_on,0,0,2,,,,,,,,,,,,,,,0,,,40,0
65280,note_on,0,0,2,,,,,,,,,,,,,,,0,,,62,96
65280,note_on,0,0,2,,,,,,,,,,,,,,,0,,,50,80
65285,control_change,5,0,2,,,,,,,,,,,,,,,0,64,0,,
65337,control_change,52,0,2,,,,,,,,,,,,,,,0,64,127,,
65400,note_on,120,0,1,,,,,,,,,,,,,,,0,,,67,74
65520,note_on,0,0,1,,,,,,,,,,,,,,,0,,,71,75
65520,note_on,120,0,1,,,,,,,,,,,,,,,0,,,67,0
65640,note_on,0,0,1,,,,,,,,,,,,,,,0,,,77,75
65640,note_on,120,0,1,,,,,,,,,,,,,,,0,,,71,0
65754,control_change,417,0,2,,,,,,,,,,,,,,,0,64,0,,
65760,note_on,0,0,2,,,,,,,,,,,,,,,0,,,62,92
65760,note_on,0,0,2,,,,,,,,,,,,,,,0,,,50,77
65760,note_on,0,0,2,,,,,,,,,,,,,,,0,,,62,0
65760,note_on,0,0,1,,,,,,,,,,,,,,,0,,,79,76
65760,set_tempo,480,1,0,,,,,,,,,,,,378549,,,,,,,
65760,note_on,120,0,1,,,,,,,,,,,,,,,0,,,77,0
65760,note_on,6,0,2,,,,,,,,,,,,,,,0,,,50,0
65880,note_on,120,0,2,,,,,,,,,,,,,,,0,,,62,0
65880,note_on,0,0,2,,,,,,,,,,,,,,,0,,,50,0
65880,note_on,120,0,1,,,,,,,,,,,,,,,0,,,83,77
65900,note_on,20,0,1,,,,,,,,,,,,,,,0,,,79,0
66000,note_on,0,0,2,,,,,,,,,,,,,,,0,,,62,88
66000,note_on,120,0,2,,,,,,,,,,,,,,,0,,,50,74
66000,note_on,100,0,1,,,,,,,,,,,,,,,0,,,89,78
66020,note_on,20,0,1,,,,,,,,,,,,,,,0,,,83,0
66120,note_on,100,0,1,,,,,,,,,,,,,,,0,,,83,79
66120,note_on,120,0,2,,,,,,,,,,,,,,,0,,,62,0
66120,set_tempo,360,1,0,,,,,,,,,,,,424028,,,,,,,
66120,note_on,0,0,2,,,,,,,,,,,,,,,0,,,50,0
66140,note_on,20,0,1,,,,,,,,,,,,,,,0,,,89,0
66240,note_on,100,0,1,,,,,,,,,,,,,,,0,,,91,79
66240,note_on,120,0,2,,,,,,,,,,,,,,,0,,,41,77
66240,set_tempo,120,1,0,,,,,,,,,,,,390879,,,,,,,
66240,note_on,0,0,2,,,,,,,,,,,,,,,0,,,53,92
66260,note_on,20,0,1,,,,,,,,,,,,,,,0,,,83,0
66280,control_change,40,0,2,,,,,,,,,,,,,,,0,64,127,,
66320,set_tempo,80,1,0,,,,,,,,,,,,389610,,,,,,,
66360,note_on,100,0,1,,,,,,,,,,,,,,,0,,,91,0
66360,note_on,0,0,1,,,,,,,,,,,,,,,0,,,86,78
66380,set_tempo,60,1,0,,,,,,,,,,,,388350,,,,,,,
66460,set_tempo,80,1,0,,,,,,,,,,,,387097,,,,,,,
66480,note_on,120,0,1,,,,,,,,,,,,,,,0,,,86,0
66480,note_on,0,0,1,,,,,,,,,,,,,,,0,,,83,77
66520,set_tempo,60,1,0,,,,,,,,,,,,385852,,,,,,,
66600,note_on,0,0,1,,,,,,,,,,,,,,,0,,,79,76
66600,note_on,120,0,1,,,,,,,,,,,,,,,0,,,83,0
66600,set_tempo,80,1,0,,,,,,,,,,,,384615,,,,,,,
66660,set_tempo,60,1,0,,,,,,,,,,,,383387,,,,,,,
66720,note_on,0,0,1,,,,,,,,,,,,,,,0,,,74,75
66720,note_on,120,0,1,,,,,,,,,,,,,,,0,,,79,0
66740,set_tempo,80,1,0,,,,,,,,,,,,384615,,,,,,,
66800,set_tempo,60,1,0,,,,,,,,,,,,385852,,,,,,,
66840,note_on,0,0,1,,,,,,,,,,,,,,,0,,,71,74
66840,note_on,120,0,1,,,,,,,,,,,,,,,0,,,74,0
66860,set_tempo,60,1,0,,,,,,,,,,,,387097,,,,,,,
66940,set_tempo,80,1,0,,,,,,,,,,,,388350,,,,,,,
66960,note_on,120,0,1,,,,,,,,,,,,,,,0,,,71,0
66960,note_on,0,0,1,,,,,,,,,,,,,,,0,,,67,73
67000,set_tempo,60,1,0,,,,,,,,,,,,389610,,,,,,,
67060,set_tempo,60,1,0,,,,,,,,,,,,390879,,,,,,,
67080,note_on,120,0,1,,,,,,,,,,,,,,,0,,,67,0
67080,note_on,0,0,1,,,,,,,,,,,,,,,0,,,71,72
67080,set_tempo,20,1,0,,,,,,,,,,,,547945,,,,,,,
67200,set_tempo,120,1,0,,,,,,,,,,,,385852,,,,,,,
67200,note_on,120,0,1,,,,,,,,,,,,,,,0,,,71,0
67200,note_on,0,0,2,,,,,,,,,,,,,,,0,,,61,96
67200,note_on,0,0,2,,,,,,,,,,,,,,,0,,,49,80
67200,note_on,0,0,2,,,,,,,,,,,,,,,0,,,41,0
67200,note_on,920,0,2,,,,,,,,,,,,,,,0,,,53,0
67257,control_change,57,0,2,,,,,,,,,,,,,,,0,64,127,,
67320,note_on,120,0,1,,,,,,,,,,,,,,,0,,,67,74
67440,note_on,0,0,1,,,,,,,,,,,,,,,0,,,70,75
67440,note_on,120,0,1,,,,,,,,,,,,,,,0,,,67,0
67560,note_on,0,0,1,,,,,,,,,,,,,,,0,,,73,75
67560,note_on,120,0,1,,,,,,,,,,,,,,,0,,,70,0
67674,control_change,417,0,2,,,,,,,,,,,,,,,0,64,0,,
67680,note_on,120,0,1,,,,,,,,,,,,,,,0,,,73,0
67680,note_on,0,0,2,,,,,,,,,,,,,,,0,,,49,0
67680,set_tempo,480,1,0,,,,,,,,,,,,378549,,,,,,,
67680,note_on,0,0,2,,,,,,,,,,,,,,,0,,,61,92
67680,note_on,0,0,2,,,,,,,,,,,,,,,0,,,49,77
67680,note_on,0,0,1,,,,,,,,,,,,,,,0,,,76,76
67680,note_on,6,0,2,,,,,,,,,,,,,,,0,,,61,0
67800,note_on,120,0,1,,,,,,,,,,,,,,,0,,,79,77
67800,note_on,0,0,2,,,,,,,,,,,,,,,0,,,49,0
67800,note_on,120,0,2,,,,,,,,,,,,,,,0,,,61,0
67820,note_on,20,0,1,,,,,,,,,,,,,,,0,,,76,0
67920,note_on,120,0,2,,,,,,,,,,,,,,,0,,,49,74
67920,note_on,0,0,2,,,,,,,,,,,,,,,0,,,61,88
67920,note_on,100,0,1,,,,,,,,,,,,,,,0,,,82,78
67940,note_on,20,0,1,,,,,,,,,,,,,,,0,,,79,0
68040,note_on,120,0,2,,,,,,,,,,,,,,,0,,,61,0
68040,note_on,0,0,2,,,,,,,,,,,,,,,0,,,49,0
68040,note_on,100,0,1,,,,,,,,,,,,,,,0,,,85,79
68040,set_tempo,360,1,0,,,,,,,,,,,,416667,,,,,,,
68060,note_on,20,0,1,,,,,,,,,,,,,,,0,,,82,0
68160,note_on,100,0,1,,,,,,,,,,,,,,,0,,,91,79
68160,note_on,0,0,2,,,,,,,,,,,,,,,0,,,52,92
68160,set_tempo,120,1,0,,,,,,,,,,,,388350,,,,,,,
68160,note_on,120,0,2,,,,,,,,,,,,,,,0,,,40,77
68180,note_on,20,0,1,,,,,,,,,,,,,,,0,,,85,0
68200,set_tempo,40,1,0,,,,,,,,,,,,389610,,,,,,,
68200,control_change,40,0,2,,,,,,,,,,,,,,,0,64,127,,
68280,note_on,0,0,1,,,,,,,,,,,,,,,0,,,88,78
68280,note_on,100,0,1,,,,,,,,,,,,,,,0,,,91,0
68400,note_on,120,0,1,,,,,,,,,,,,,,,0,,,88,0
68400,note_on,0,0,1,,,,,,,,,,,,,,,0,,,85,77
68440,set_tempo,240,1,0,,,,,,,,,,,,388350,,,,,,,
68520,note_on,120,0,1,,,,,,,,,,,,,,,0,,,85,0
68520,note_on,0,0,1,,,,,,,,,,,,,,,0,,,82,76
68640,note_on,120,0,1,,,,,,,,,,,,,,,0,,,82,0
68640,set_tempo,200,1,0,,,,,,,,,,,,387097,,,,,,,
68640,note_on,0,0,1,,,,,,,,,,,,,,,0,,,79,75
68720,set_tempo,80,1,0,,,,,,,,,,,,388350,,,,,,,
68760,note_on,0,0,1,,,,,,,,,,,,,,,0,,,76,74
68760,note_on,120,0,1,,,,,,,,,,,,,,,0,,,79,0
68800,set_tempo,80,1,0,,,,,,,,,,,,389610,,,,,,,
68840,set_tempo,40,1,0,,,,,,,,,,,,390879,,,,,,,
68880,note_on,0,0,1,,,,,,,,,,,,,,,0,,,73,73
68880,note_on,120,0,1,,,,,,,,,,,,,,,0,,,76,0
68920,set_tempo,80,1,0,,,,,,,,,,,,392157,,,,,,,
69000,set_tempo,80,1,0,,,,,,,,,,,,545455,,,,,,,
69000,note_on,0,0,1,,,,,,,,,,,,,,,0,,,70,72
69000,note_on,120,0,1,,,,,,,,,,,,,,,0,,,73,0
69120,note_on,0,0,2,,,,,,,,,,,,,,,0,,,40,0
69120,note_on,0,0,2,,,,,,,,,,,,,,,0,,,50,80
69120,note_on,0,0,2,,,,,,,,,,,,,,,0,,,62,96
69120,note_on,920,0,2,,,,,,,,,,,,,,,0,,,52,0
69120,set_tempo,120,1,0,,,,,,,,,,,,389610,,,,,,,
69120,note_on,120,0,1,,,,,,,,,,,,,,,0,,,70,0
69125,control_change,5,0,2,,,,,,,,,,,,,,,0,64,0,,
69177,control_change,52,0,2,,,,,,,,,,,,,,,0,64,127,,
69240,note_on,120,0,1,,,,,,,,,,,,,,,0,,,67,74
69360,note_on,120,0,1,,,,,,,,,,,,,,,0,,,67,0
69360,note_on,0,0,1,,,,,,,,,,,,,,,0,,,71,75
69480,note_on,120,0,1,,,,,,,,,,,,,,,0,,,71,0
69480,note_on,0,0,1,,,,,,,,,,,,,,,0,,,77,75
69594,control_change,417,0,2,,,,,,,,,,,,,,,0,64,0,,
69600,note_on,120,0,1,,,,,,,,,,,,,,,0,,,77,0
69600,note_on,0,0,1,,,,,,,,,,,,,,,0,,,79,76
69600,note_on,6,0,2,,,,,,,,,,,,,,,0,,,50,0
69600,note_on,0,0,2,,,,,,,,,,,,,,,0,,,50,77
69600,set_tempo,480,1,0,,,,,,,,,,,,382166,,,,,,,
69600,note_on,0,0,2,,,,,,,,,,,,,,,0,,,62,0
69600,note_on,0,0,2,,,,,,,,,,,,,,,0,,,62,92
69690,note_on,0,0,2,,,,,,,,,,,,,,,0,,,50,0
69690,note_on,90,0,2,,,,,,,,,,,,,,,0,,,62,0
69720,note_on,120,0,1,,,,,,,,,,,,,,,0,,,83,77
69740,note_on,20,0,1,,,,,,,,,,,,,,,0,,,79,0
69840,note_on,0,0,2,,,,,,,,,,,,,,,0,,,62,88
69840,note_on,150,0,2,,,,,,,,,,,,,,,0,,,50,74
69840,note_on,100,0,1,,,,,,,,,,,,,,,0,,,89,78
69860,note_on,20,0,1,,,,,,,,,,,,,,,0,,,83,0
69930,note_on,0,0,2,,,,,,,,,,,,,,,0,,,50,0
69930,note_on,90,0,2,,,,,,,,,,,,,,,0,,,62,0
69960,set_tempo,360,1,0,,,,,,,,,,,,413793,,,,,,,
69960,note_on,100,0,1,,,,,,,,,,,,,,,0,,,83,79
69980,note_on,20,0,1,,,,,,,,,,,,,,,0,,,89,0
70080,note_on,0,0,2,,,,,,,,,,,,,,,0,,,53,92
70080,set_tempo,120,1,0,,,,,,,,,,,,390879,,,,,,,
70080,note_on,100,0,1,,,,,,,,,,,,,,,0,,,91,79
70080,note_on,150,0,2,,,,,,,,,,,,,,,0,,,41,77
70100,note_on,20,0,1,,,,,,,,,,,,,,,0,,,83,0
70120,control_change,40,0,2,,,,,,,,,,,,,,,0,64,127,,
70160,set_tempo,80,1,0,,,,,,,,,,,,389610,,,,,,,
70200,note_on,0,0,1,,,,,,,,,,,,,,,0,,,86,78
70200,note_on,100,0,1,,,,,,,,,,,,,,,0,,,91,0
70220,set_tempo,60,1,0,,,,,,,,,,,,388350,,,,,,,
70300,set_tempo,80,1,0,,,,,,,,,,,,387097,,,,,,,
70320,note_on,0,0,1,,,,,,,,,,,,,,,0,,,83,77
70320,note_on,120,0,1,,,,,,,,,,,,,,,0,,,86,0
70360,set_tempo,60,1,0,,,,,,,,,,,,385852,,,,,,,
70440,note_on,0,0,1,,,,,,,,,,,,,,,0,,,79,76
70440,note_on,120,0,1,,,,,,,,,,,,,,,0,,,83,0
70440,set_tempo,80,1,0,,,,,,,,,,,,384615,,,,,,,
70500,set_tempo,60,1,0,,,,,,,,,,,,383387,,,,,,,
70560,note_on,0,0,1,,,,,,,,,,,,,,,0,,,74,75
70560,note_on,120,0,1,,,,,,,,,,,,,,,0,,,79,0
70580,set_tempo,80,1,0,,,,,,,,,,,,384615,,,,,,,
70640,set_tempo,60,1,0,,,,,,,,,,,,385852,,,,,,,
70680,note_on,120,0,1,,,,,,,,,,,,,,,0,,,74,0
70680,note_on,0,0,1,,,,,,,,,,,,,,,0,,,71,74
70700,set_tempo,60,1,0,,,,,,,,,,,,387097,,,,,,,
70780,set_tempo,80,1,0,,,,,,,,,,,,388350,,,,,,,
70800,note_on,120,0,1,,,,,,,,,,,,,,,0,,,71,0
70800,note_on,0,0,1,,,,,,,,,,,,,,,0,,,67,73
70840,set_tempo,60,1,0,,,,,,,,,,,,389610,,,,,,,
70900,set_tempo,60,1,0,,,,,,,,,,,,390879,,,,,,,
70920,note_on,0,0,1,,,,,,,,,,,,,,,0,,,71,72
70920,note_on,120,0,1,,,,,,,,,,,,,,,0,,,67,0
70920,set_tempo,20,1,0,,,,,,,,,,,,547945,,,,,,,
71040,note_on,120,0,1,,,,,,,,,,,,,,,0,,,71,0
71040,note_on,0,0,1,,,,,,,,,,,,,,,0,,,73,71
71040,note_on,920,0,2,,,,,,,,,,,,,,,0,,,53,0
71040,note_on,0,0,2,,,,,,,,,,,,,,,0,,,41,0
71040,note_on,0,0,2,,,,,,,,,,,,,,,0,,,40,58
71040,note_on,0,0,2,,,,,,,,,,,,,,,0,,,52,69
71040,set_tempo,120,1,0,,,,,,,,,,,,410959,,,,,,,
71050,control_change,10,0,2,,,,,,,,,,,,,,,0,64,0,,
71100,set_tempo,60,1,0,,,,,,,,,,,,409556,,,,,,,
71109,control_change,59,0,2,,,,,,,,,,,,,,,0,64,127,,
71160,set_tempo,60,1,0,,,,,,,,,,,,408163,,,,,,,
71160,note_on,120,0,1,,,,,,,,,,,,,,,0,,,79,65
71180,note_on,20,0,1,,,,,,,,,,,,,,,0,,,73,0
71220,set_tempo,60,1,0,,,,,,,,,,,,406780,,,,,,,
71280,set_tempo,60,1,0,,,,,,,,,,,,405405,,,,,,,
71280,note_on,100,0,1,,,,,,,,,,,,,,,0,,,82,65
71300,note_on,20,0,1,,,,,,,,,,,,,,,0,,,79,0
71340,set_tempo,60,1,0,,,,,,,,,,,,404040,,,,,,,
71400,note_on,100,0,1,,,,,,,,,,,,,,,0,,,85,65
71400,set_tempo,60,1,0,,,,,,,,,,,,402685,,,,,,,
71420,note_on,20,0,1,,,,,,,,,,,,,,,0,,,82,0
71460,set_tempo,60,1,0,,,,,,,,,,,,401338,,,,,,,
71520,note_on,0,0,2,,,,,,,,,,,,,,,0,,,40,0
71520,note_on,411,0,2,,,,,,,,,,,,,,,0,,,52,0
71520,set_tempo,60,1,0,,,,,,,,,,,,400000,,,,,,,
71520,note_on,100,0,1,,,,,,,,,,,,,,,0,,,74,74
71520,note_on,0,0,2,,,,,,,,,,,,,,,0,,,50,73
71520,note_on,0,0,2,,,,,,,,,,,,,,,0,,,38,62
71530,control_change,10,0,2,,,,,,,,,,,,,,,0,64,0,,
71540,note_on,20,0,1,,,,,,,,,,,,,,,0,,,85,0
71577,control_change,47,0,2,,,,,,,,,,,,,,,0,64,127,,
71580,set_tempo,60,1,0,,,,,,,,,,,,398671,,,,,,,
71640,set_tempo,60,1,0,,,,,,,,,,,,397351,,,,,,,
71640,note_on,100,0,1,,,,,,,,,,,,,,,0,,,79,70
71660,note_on,20,0,1,,,,,,,,,,,,,,,0,,,74,0
71700,set_tempo,60,1,0,,,,,,,,,,,,396040,,,,,,,
71760,note_on,100,0,1,,,,,,,,,,,,,,,0,,,83,70
71760,set_tempo,60,1,0,,,,,,,,,,,,394737,,,,,,,
71780,note_on,20,0,1,,,,,,,,,,,,,,,0,,,79,0
71820,set_tempo,60,1,0,,,,,,,,,,,,393443,,,,,,,
71880,note_on,100,0,1,,,,,,,,,,,,,,,0,,,86,70
71880,set_tempo,60,1,0,,,,,,,,,,,,392157,,,,,,,
71900,note_on,20,0,1,,,,,,,,,,,,,,,0,,,83,0
71940,set_tempo,60,1,0,,,,,,,,,,,,390879,,,,,,,
71980,set_tempo,40,1,0,,,,,,,,,,,,389610,,,,,,,
72000,note_on,100,0,1,,,,,,,,,,,,,,,0,,,76,79
72000,note_on,0,0,2,,,,,,,,,,,,,,,0,,,49,79
72000,note_on,0,0,2,,,,,,,,,,,,,,,0,,,37,66
72000,note_on,0,0,2,,,,,,,,,,,,,,,0,,,38,0
72000,note_on,423,0,2,,,,,,,,,,,,,,,0,,,50,0
72010,control_change,10,0,2,,,,,,,,,,,,,,,0,64,0,,
72020,note_on,20,0,1,,,,,,,,,,,,,,,0,,,86,0
72057,control_change,47,0,2,,,,,,,,,,,,,,,0,64,127,,
72120,note_on,100,0,1,,,,,,,,,,,,,,,0,,,79,72
72140,note_on,20,0,1,,,,,,,,,,,,,,,0,,,76,0
72240,note_on,100,0,1,,,,,,,,,,,,,,,0,,,82,72
72260,note_on,20,0,1,,,,,,,,,,,,,,,0,,,79,0
72360,note_on,100,0,1,,,,,,,,,,,,,,,0,,,88,72
72380,note_on,20,0,1,,,,,,,,,,,,,,,0,,,82,0
72460,set_tempo,480,1,0,,,,,,,,,,,,389610,,,,,,,
72480,note_on,423,0,2,,,,,,,,,,,,,,,0,,,49,0
72480,note_on,0,0,2,,,,,,,,,,,,,,,0,,,37,0
72480,note_on,0,0,2,,,,,,,,,,,,,,,0,,,38,70
72480,note_on,0,0,2,,,,,,,,,,,,,,,0,,,50,84
72480,note_on,100,0,1,,,,,,,,,,,,,,,0,,,78,83
72490,control_change,10,0,2,,,,,,,,,,,,,,,0,64,0,,
72500,set_tempo,40,1,0,,,,,,,,,,,,390879,,,,,,,
72500,note_on,20,0,1,,,,,,,,,,,,,,,0,,,88,0
72540,set_tempo,40,1,0,,,,,,,,,,,,392157,,,,,,,
72560,set_tempo,20,1,0,,,,,,,,,,,,393443,,,,,,,
72566,control_change,76,0,2,,,,,,,,,,,,,,,0,64,127,,
72600,note_on,100,0,1,,,,,,,,,,,,,,,0,,,81,73
72600,set_tempo,40,1,0,,,,,,,,,,,,394737,,,,,,,
72620,note_on,20,0,1,,,,,,,,,,,,,,,0,,,78,0
72620,set_tempo,20,1,0,,,,,,,,,,,,396040,,,,,,,
72660,set_tempo,40,1,0,,,,,,,,,,,,397351,,,,,,,
72680,set_tempo,20,1,0,,,,,,,,,,,,398671,,,,,,,
72720,set_tempo,40,1,0,,,,,,,,,,,,400000,,,,,,,
72720,note_on,100,0,1,,,,,,,,,,,,,,,0,,,84,73
72740,note_on,20,0,1,,,,,,,,,,,,,,,0,,,81,0
72740,set_tempo,20,1,0,,,,,,,,,,,,401338,,,,,,,
72780,set_tempo,40,1,0,,,,,,,,,,,,402685,,,,,,,
72800,set_tempo,20,1,0,,,,,,,,,,,,404040,,,,,,,
72840,set_tempo,40,1,0,,,,,,,,,,,,530973,,,,,,,
72840,note_on,100,0,1,,,,,,,,,,,,,,,0,,,90,73
72860,note_on,20,0,1,,,,,,,,,,,,,,,0,,,84,0
72960,note_on,0,0,2,,,,,,,,,,,,,,,0,,,59,88
72960,set_tempo,120,1,0,,,,,,,,,,,,385852,,,,,,,
72960,note_on,0,0,2,,,,,,,,,,,,,,,0,,,55,74
72960,note_on,0,0,2,,,,,,,,,,,,,,,0,,,38,0
72960,note_on,394,0,2,,,,,,,,,,,,,,,0,,,50,0
72965,control_change,5,0,2,,,,,,,,,,,,,,,0,64,0,,
72980,note_on,120,0,1,,,,,,,,,,,,,,,0,,,90,0
73017,control_change,52,0,2,,,,,,,,,,,,,,,0,64,127,,
73080,note_on,100,0,1,,,,,,,,,,,,,,,0,,,67,74
73200,note_on,120,0,1,,,,,,,,,,,,,,,0,,,67,0
73200,note_on,0,0,1,,,,,,,,,,,,,,,0,,,71,75
73320,note_on,120,0,1,,,,,,,,,,,,,,,0,,,71,0
73320,note_on,0,0,1,,,,,,,,,,,,,,,0,,,76,75
73440,note_on,120,0,1,,,,,,,,,,,,,,,0,,,76,0
73440,note_on,0,0,2,,,,,,,,,,,,,,,0,,,59,88
73440,note_on,0,0,2,,,,,,,,,,,,,,,0,,,55,74
73440,note_on,0,0,2,,,,,,,,,,,,,,,0,,,59,0
73440,note_on,423,0,2,,,,,,,,,,,,,,,0,,,55,0
73440,set_tempo,480,1,0,,,,,,,,,,,,376176,,,,,,,
73440,note_on,0,0,1,,,,,,,,,,,,,,,0,,,79,76
73447,control_change,7,0,2,,,,,,,,,,,,,,,0,64,0,,
73489,control_change,42,0,2,,,,,,,,,,,,,,,0,64,127,,
73560,note_on,120,0,1,,,,,,,,,,,,,,,0,,,79,0
73560,note_on,0,0,1,,,,,,,,,,,,,,,0,,,83,77
73680,note_on,120,0,1,,,,,,,,,,,,,,,0,,,83,0
73680,note_on,0,0,2,,,,,,,,,,,,,,,0,,,55,0
73680,note_on,0,0,2,,,,,,,,,,,,,,,0,,,55,71
73680,note_on,0,0,2,,,,,,,,,,,,,,,0,,,59,84
73680,note_on,191,0,2,,,,,,,,,,,,,,,0,,,59,0
73680,note_on,0,0,1,,,,,,,,,,,,,,,0,,,88,78
73800,set_tempo,360,1,0,,,,,,,,,,,,424028,,,,,,,
73800,note_on,120,0,1,,,,,,,,,,,,,,,0,,,88,0
73800,note_on,0,0,1,,,,,,,,,,,,,,,0,,,91,79
73920,note_on,120,0,1,,,,,,,,,,,,,,,0,,,91,0
73920,note_on,0,0,1,,,,,,,,,,,,,,,0,,,95,79
73920,note_on,240,0,2,,,,,,,,,,,,,,,0,,,59,0
73920,set_tempo,120,1,0,,,,,,,,,,,,388350,,,,,,,
73920,note_on,0,0,2,,,,,,,,,,,,,,,0,,,55,0
73920,note_on,0,0,2,,,,,,,,,,,,,,,0,,,43,74
73920,note_on,0,0,2,,,,,,,,,,,,,,,0,,,52,88
73930,control_change,10,0,2,,,,,,,,,,,,,,,0,64,0,,
73980,set_tempo,60,1,0,,,,,,,,,,,,387097,,,,,,,
73991,control_change,61,0,2,,,,,,,,,,,,,,,0,64,127,,
74040,note_on,120,0,1,,,,,,,,,,,,,,,0,,,95,0
74040,set_tempo,60,1,0,,,,,,,,,,,,385852,,,,,,,
74040,note_on,0,0,1,,,,,,,,,,,,,,,0,,,91,78
74080,set_tempo,40,1,0,,,,,,,,,,,,384615,,,,,,,
74140,set_tempo,60,1,0,,,,,,,,,,,,383387,,,,,,,
74160,note_on,120,0,1,,,,,,,,,,,,,,,0,,,91,0
74160,note_on,0,0,1,,,,,,,,,,,,,,,0,,,88,77
74200,set_tempo,60,1,0,,,,,,,,,,,,382166,,,,,,,
74240,set_tempo,40,1,0,,,,,,,,,,,,380952,,,,,,,
74280,note_on,120,0,1,,,,,,,,,,,,,,,0,,,88,0
74280,note_on,0,0,1,,,,,,,,,,,,,,,0,,,83,76
74300,set_tempo,60,1,0,,,,,,,,,,,,379747,,,,,,,
74360,set_tempo,60,1,0,,,,,,,,,,,,378549,,,,,,,
74400,set_tempo,40,1,0,,,,,,,,,,,,377358,,,,,,,
74400,note_on,0,0,1,,,,,,,,,,,,,,,0,,,79,75
74400,note_on,120,0,1,,,,,,,,,,,,,,,0,,,83,0
74460,set_tempo,60,1,0,,,,,,,,,,,,378549,,,,,,,
74500,set_tempo,40,1,0,,,,,,,,,,,,379747,,,,,,,
74520,note_on,0,0,1,,,,,,,,,,,,,,,0,,,76,74
74520,note_on,120,0,1,,,,,,,,,,,,,,,0,,,79,0
74540,set_tempo,40,1,0,,,,,,,,,,,,380952,,,,,,,
74580,set_tempo,40,1,0,,,,,,,,,,,,382166,,,,,,,
74620,set_tempo,40,1,0,,,,,,,,,,,,383387,,,,,,,
74640,note_on,120,0,1,,,,,,,,,,,,,,,0,,,76,0
74640,note_on,0,0,1,,,,,,,,,,,,,,,0,,,71,73
74660,set_tempo,40,1,0,,,,,,,,,,,,384615,,,,,,,
74700,set_tempo,40,1,0,,,,,,,,,,,,385852,,,,,,,
74740,set_tempo,40,1,0,,,,,,,,,,,,387097,,,,,,,
74760,note_on,120,0,1,,,,,,,,,,,,,,,0,,,71,0
74760,set_tempo,20,1,0,,,,,,,,,,,,547945,,,,,,,
74760,note_on,0,0,1,,,,,,,,,,,,,,,0,,,67,72
74880,note_on,889,0,2,,,,,,,,,,,,,,,0,,,52,0
74880,note_on,0,0,2,,,,,,,,,,,,,,,0,,,59,88
74880,note_on,0,0,2,,,,,,,,,,,,,,,0,,,43,0
74880,set_tempo,120,1,0,,,,,,,,,,,,385852,,,,,,,
74880,note_on,120,0,1,,,,,,,,,,,,,,,0,,,67,0
74880,note_on,0,0,2,,,,,,,,,,,,,,,0,,,55,74
74885,control_change,5,0,2,,,,,,,,,,,,,,,0,64,0,,
74937,control_change,52,0,2,,,,,,,,,,,,,,,0,64,127,,
75000,note_on,120,0,1,,,,,,,,,,,,,,,0,,,67,74
75120,note_on,120,0,1,,,,,,,,,,,,,,,0,,,67,0
75120,note_on,0,0,1,,,,,,,,,,,,,,,0,,,71,75
75240,note_on,120,0,1,,,,,,,,,,,,,,,0,,,71,0
75240,note_on,0,0,1,,,,,,,,,,,,,,,0,,,75,75
75360,note_on,120,0,1,,,,,,,,,,,,,,,0,,,75,0
75360,set_tempo,480,1,0,,,,,,,,,,,,377358,,,,,,,
75360,note_on,0,0,2,,,,,,,,,,,,,,,0,,,59,88
75360,note_on,0,0,1,,,,,,,,,,,,,,,0,,,79,76
75360,note_on,423,0,2,,,,,,,,,,,,,,,0,,,55,0
75360,note_on,0,0,2,,,,,,,,,,,,,,,0,,,59,0
75360,note_on,0,0,2,,,,,,,,,,,,,,,0,,,55,74
75368,control_change,8,0,2,,,,,,,,,,,,,,,0,64,0,,
75409,control_change,41,0,2,,,,,,,,,,,,,,,0,64,127,,
75480,note_on,120,0,1,,,,,,,,,,,,,,,0,,,79,0
75480,note_on,0,0,1,,,,,,,,,,,,,,,0,,,83,77
75600,note_on,0,0,2,,,,,,,,,,,,,,,0,,,55,71
75600,note_on,0,0,2,,,,,,,,,,,,,,,0,,,59,84
75600,note_on,120,0,1,,,,,,,,,,,,,,,0,,,83,0
75600,note_on,0,0,1,,,,,,,,,,,,,,,0,,,87,78
75600,note_on,0,0,2,,,,,,,,,,,,,,,0,,,55,0
75600,note_on,191,0,2,,,,,,,,,,,,,,,0,,,59,0
75720,note_on,0,0,1,,,,,,,,,,,,,,,0,,,91,79
75720,note_on,120,0,1,,,,,,,,,,,,,,,0,,,87,0
75720,set_tempo,360,1,0,,,,,,,,,,,,424028,,,,,,,
75840,set_tempo,120,1,0,,,,,,,,,,,,387097,,,,,,,
75840,note_on,0,0,1,,,,,,,,,,,,,,,0,,,95,79
75840,note_on,120,0,1,,,,,,,,,,,,,,,0,,,91,0
75840,note_on,240,0,2,,,,,,,,,,,,,,,0,,,59,0
75840,note_on,0,0,2,,,,,,,,,,,,,,,0,,,55,0
75840,note_on,0,0,2,,,,,,,,,,,,,,,0,,,43,74
75840,note_on,0,0,2,,,,,,,,,,,,,,,0,,,51,88
75850,control_change,10,0,2,,,,,,,,,,,,,,,0,64,0,,
75900,set_tempo,60,1,0,,,,,,,,,,,,385852,,,,,,,
75911,control_change,61,0,2,,,,,,,,,,,,,,,0,64,127,,
75960,set_tempo,60,1,0,,,,,,,,,,,,384615,,,,,,,
75960,note_on,120,0,1,,,,,,,,,,,,,,,0,,,95,0
75960,note_on,0,0,1,,,,,,,,,,,,,,,0,,,91,78
76020,set_tempo,60,1,0,,,,,,,,,,,,383387,,,,,,,
76080,set_tempo,60,1,0,,,,,,,,,,,,382166,,,,,,,
76080,note_on,120,0,1,,,,,,,,,,,,,,,0,,,91,0
76080,note_on,0,0,1,,,,,,,,,,,,,,,0,,,87,77
76140,set_tempo,60,1,0,,,,,,,,,,,,380952,,,,,,,
76200,note_on,0,0,1,,,,,,,,,,,,,,,0,,,83,76
76200,note_on,120,0,1,,,,,,,,,,,,,,,0,,,87,0
76200,set_tempo,60,1,0,,,,,,,,,,,,379747,,,,,,,
76260,set_tempo,60,1,0,,,,,,,,,,,,378549,,,,,,,
76320,note_on,0,0,1,,,,,,,,,,,,,,,0,,,79,75
76320,note_on,120,0,1,,,,,,,,,,,,,,,0,,,83,0
76320,set_tempo,60,1,0,,,,,,,,,,,,377358,,,,,,,
76360,set_tempo,40,1,0,,,,,,,,,,,,378549,,,,,,,
76400,set_tempo,40,1,0,,,,,,,,,,,,379747,,,,,,,
76440,set_tempo,40,1,0,,,,,,,,,,,,380952,,,,,,,
76440,note_on,120,0,1,,,,,,,,,,,,,,,0,,,79,0
76440,note_on,0,0,1,,,,,,,,,,,,,,,0,,,75,74
76480,set_tempo,40,1,0,,,,,,,,,,,,382166,,,,,,,
76500,set_tempo,20,1,0,,,,,,,,,,,,383387,,,,,,,
76540,set_tempo,40,1,0,,,,,,,,,,,,384615,,,,,,,
76560,note_on,120,0,1,,,,,,,,,,,,,,,0,,,75,0
76560,note_on,0,0,1,,,,,,,,,,,,,,,0,,,71,73
76580,set_tempo,40,1,0,,,,,,,,,,,,385852,,,,,,,
76620,set_tempo,40,1,0,,,,,,,,,,,,387097,,,,,,,
76640,set_tempo,20,1,0,,,,,,,,,,,,388350,,,,,,,
76660,set_tempo,20,1,0,,,,,,,,,,,,390879,,,,,,,
76680,note_on,120,0,1,,,,,,,,,,,,,,,0,,,71,0
76680,set_tempo,20,1,0,,,,,,,,,,,,547945,,,,,,,
76680,note_on,0,0,1,,,,,,,,,,,,,,,0,,,67,72
76800,note_on,889,0,2,,,,,,,,,,,,,,,0,,,51,0
76800,note_on,0,0,2,,,,,,,,,,,,,,,0,,,43,0
76800,note_on,0,0,2,,,,,,,,,,,,,,,0,,,59,88
76800,note_on,0,0,2,,,,,,,,,,,,,,,0,,,55,74
76800,set_tempo,120,1,0,,,,,,,,,,,,389610,,,,,,,
76800,note_on,120,0,1,,,,,,,,,,,,,,,0,,,67,0
76805,control_change,5,0,2,,,,,,,,,,,,,,,0,64,0,,
76857,control_change,52,0,2,,,,,,,,,,,,,,,0,64,127,,
76920,note_on,120,0,1,,,,,,,,,,,,,,,0,,,67,74
77040,note_on,120,0,1,,,,,,,,,,,,,,,0,,,67,0
77040,note_on,0,0,1,,,,,,,,,,,,,,,0,,,71,75
77160,note_on,120,0,1,,,,,,,,,,,,,,,0,,,71,0
77160,note_on,0,0,1,,,,,,,,,,,,,,,0,,,76,75
77280,note_on,0,0,2,,,,,,,,,,,,,,,0,,,59,88
77280,note_on,0,0,2,,,,,,,,,,,,,,,0,,,55,74
77280,note_on,0,0,2,,,,,,,,,,,,,,,0,,,59,0
77280,note_on,423,0,2,,,,,,,,,,,,,,,0,,,55,0
77280,set_tempo,480,1,0,,,,,,,,,,,,382166,,,,,,,
77280,note_on,0,0,1,,,,,,,,,,,,,,,0,,,79,76
77280,note_on,120,0,1,,,,,,,,,,,,,,,0,,,76,0
77290,control_change,10,0,2,,,,,,,,,,,,,,,0,64,0,,
77329,control_change,39,0,2,,,,,,,,,,,,,,,0,64,127,,
77400,note_on,0,0,1,,,,,,,,,,,,,,,0,,,83,77
77400,note_on,120,0,1,,,,,,,,,,,,,,,0,,,79,0
77520,note_on,0,0,1,,,,,,,,,,,,,,,0,,,88,78
77520,note_on,120,0,1,,,,,,,,,,,,,,,0,,,83,0
77520,note_on,0,0,2,,,,,,,,,,,,,,,0,,,59,84
77520,note_on,0,0,2,,,,,,,,,,,,,,,0,,,55,71
77520,note_on,0,0,2,,,,,,,,,,,,,,,0,,,55,0
77520,note_on,191,0,2,,,,,,,,,,,,,,,0,,,59,0
77640,note_on,120,0,1,,,,,,,,,,,,,,,0,,,88,0
77640,note_on,0,0,1,,,,,,,,,,,,,,,0,,,91,79
77640,set_tempo,360,1,0,,,,,,,,,,,,424028,,,,,,,
77760,note_on,0,0,2,,,,,,,,,,,,,,,0,,,52,88
77760,note_on,120,0,1,,,,,,,,,,,,,,,0,,,91,0
77760,note_on,0,0,1,,,,,,,,,,,,,,,0,,,95,79
77760,set_tempo,120,1,0,,,,,,,,,,,,390879,,,,,,,
77760,note_on,0,0,2,,,,,,,,,,,,,,,0,,,43,74
77760,note_on,0,0,2,,,,,,,,,,,,,,,0,,,55,0
77760,note_on,240,0,2,,,,,,,,,,,,,,,0,,,59,0
77770,control_change,10,0,2,,,,,,,,,,,,,,,0,64,0,,
77831,control_change,61,0,2,,,,,,,,,,,,,,,0,64,127,,
77840,set_tempo,80,1,0,,,,,,,,,,,,389610,,,,,,,
77880,note_on,120,0,1,,,,,,,,,,,,,,,0,,,95,0
77880,note_on,0,0,1,,,,,,,,,,,,,,,0,,,91,78
77900,set_tempo,60,1,0,,,,,,,,,,,,388350,,,,,,,
77980,set_tempo,80,1,0,,,,,,,,,,,,387097,,,,,,,
78000,note_on,0,0,1,,,,,,,,,,,,,,,0,,,88,77
78000,note_on,120,0,1,,,,,,,,,,,,,,,0,,,91,0
78040,set_tempo,60,1,0,,,,,,,,,,,,385852,,,,,,,
78120,note_on,0,0,1,,,,,,,,,,,,,,,0,,,83,76
78120,note_on,120,0,1,,,,,,,,,,,,,,,0,,,88,0
78120,set_tempo,80,1,0,,,,,,,,,,,,384615,,,,,,,
78180,set_tempo,60,1,0,,,,,,,,,,,,383387,,,,,,,
78240,note_on,0,0,1,,,,,,,,,,,,,,,0,,,79,75
78240,note_on,120,0,1,,,,,,,,,,,,,,,0,,,83,0
78260,set_tempo,80,1,0,,,,,,,,,,,,384615,,,,,,,
78320,set_tempo,60,1,0,,,,,,,,,,,,385852,,,,,,,
78360,note_on,0,0,1,,,,,,,,,,,,,,,0,,,76,74
78360,note_on,120,0,1,,,,,,,,,,,,,,,0,,,79,0
78380,set_tempo,60,1,0,,,,,,,,,,,,387097,,,,,,,
78460,set_tempo,80,1,0,,,,,,,,,,,,388350,,,,,,,
78480,note_on,0,0,1,,,,,,,,,,,,,,,0,,,71,73
78480,note_on,120,0,1,,,,,,,,,,,,,,,0,,,76,0
78520,set_tempo,60,1,0,,,,,,,,,,,,389610,,,,,,,
78580,set_tempo,60,1,0,,,,,,,,,,,,390879,,,,,,,
78600,set_tempo,20,1,0,,,,,,,,,,,,547945,,,,,,,
78600,note_on,0,0,1,,,,,,,,,,,,,,,0,,,67,72
78600,note_on,120,0,1,,,,,,,,,,,,,,,0,,,71,0
78720,note_on,0,0,2,,,,,,,,,,,,,,,0,,,59,92
78720,note_on,0,0,2,,,,,,,,,,,,,,,0,,,43,0
78720,note_on,889,0,2,,,,,,,,,,,,,,,0,,,52,0
78720,note_on,120,0,1,,,,,,,,,,,,,,,0,,,67,0
78720,set_tempo,120,1,0,,,,,,,,,,,,402685,,,,,,,
78720,note_on,0,0,2,,,,,,,,,,,,,,,0,,,55,77
78725,control_change,5,0,2,,,,,,,,,,,,,,,0,64,0,,
78777,control_change,52,0,2,,,,,,,,,,,,,,,0,64,127,,
78840,note_on,120,0,1,,,,,,,,,,,,,,,0,,,67,77
78960,note_on,0,0,1,,,,,,,,,,,,,,,0,,,71,78
78960,note_on,120,0,1,,,,,,,,,,,,,,,0,,,67,0
79080,note_on,0,0,1,,,,,,,,,,,,,,,0,,,74,78
79080,note_on,120,0,1,,,,,,,,,,,,,,,0,,,71,0
79200,note_on,0,0,1,,,,,,,,,,,,,,,0,,,77,79
79200,note_on,120,0,1,,,,,,,,,,,,,,,0,,,74,0
79200,note_on,0,0,2,,,,,,,,,,,,,,,0,,,55,77
79200,note_on,0,0,2,,,,,,,,,,,,,,,0,,,59,92
79200,note_on,0,0,2,,,,,,,,,,,,,,,0,,,59,0
79200,set_tempo,480,1,0,,,,,,,,,,,,393443,,,,,,,
79200,note_on,423,0,2,,,,,,,,,,,,,,,0,,,55,0
79207,control_change,7,0,2,,,,,,,,,,,,,,,0,64,0,,
79249,control_change,42,0,2,,,,,,,,,,,,,,,0,64,127,,
79320,note_on,120,0,1,,,,,,,,,,,,,,,0,,,77,0
79320,note_on,0,0,1,,,,,,,,,,,,,,,0,,,83,80
79440,note_on,0,0,2,,,,,,,,,,,,,,,0,,,55,74
79440,note_on,0,0,1,,,,,,,,,,,,,,,0,,,86,81
79440,note_on,0,0,2,,,,,,,,,,,,,,,0,,,55,0
79440,note_on,191,0,2,,,,,,,,,,,,,,,0,,,59,0
79440,note_on,0,0,2,,,,,,,,,,,,,,,0,,,59,88
79440,note_on,120,0,1,,,,,,,,,,,,,,,0,,,83,0
79560,note_on,120,0,1,,,,,,,,,,,,,,,0,,,86,0
79560,note_on,0,0,1,,,,,,,,,,,,,,,0,,,89,82
79560,set_tempo,360,1,0,,,,,,,,,,,,495868,,,,,,,
79680,note_on,0,0,2,,,,,,,,,,,,,,,0,,,43,77
79680,note_on,0,0,2,,,,,,,,,,,,,,,0,,,55,0
79680,note_on,240,0,2,,,,,,,,,,,,,,,0,,,59,0
79680,note_on,0,0,2,,,,,,,,,,,,,,,0,,,53,92
79680,note_on,0,0,1,,,,,,,,,,,,,,,0,,,95,82
79680,note_on,120,0,1,,,,,,,,,,,,,,,0,,,89,0
79680,set_tempo,120,1,0,,,,,,,,,,,,398671,,,,,,,
79690,control_change,10,0,2,,,,,,,,,,,,,,,0,64,0,,
79740,set_tempo,60,1,0,,,,,,,,,,,,397351,,,,,,,
79751,control_change,61,0,2,,,,,,,,,,,,,,,0,64,127,,
79800,note_on,0,0,1,,,,,,,,,,,,,,,0,,,89,81
79800,note_on,120,0,1,,,,,,,,,,,,,,,0,,,95,0
79800,set_tempo,60,1,0,,,,,,,,,,,,396040,,,,,,,
79860,set_tempo,60,1,0,,,,,,,,,,,,394737,,,,,,,
79920,note_on,120,0,1,,,,,,,,,,,,,,,0,,,89,0
79920,set_tempo,60,1,0,,,,,,,,,,,,393443,,,,,,,
79920,note_on,0,0,1,,,,,,,,,,,,,,,0,,,86,80
79980,set_tempo,60,1,0,,,,,,,,,,,,392157,,,,,,,
80040,note_on,120,0,1,,,,,,,,,,,,,,,0,,,86,0
80040,note_on,0,0,1,,,,,,,,,,,,,,,0,,,83,79
80040,set_tempo,60,1,0,,,,,,,,,,,,390879,,,,,,,
80100,set_tempo,60,1,0,,,,,,,,,,,,389610,,,,,,,
80160,note_on,0,0,1,,,,,,,,,,,,,,,0,,,77,78
80160,note_on,120,0,1,,,,,,,,,,,,,,,0,,,83,0
80160,set_tempo,60,1,0,,,,,,,,,,,,388350,,,,,,,
80200,set_tempo,40,1,0,,,,,,,,,,,,389610,,,,,,,
80220,set_tempo,20,1,0,,,,,,,,,,,,390879,,,,,,,
80260,set_tempo,40,1,0,,,,,,,,,,,,392157,,,,,,,
80280,note_on,120,0,1,,,,,,,,,,,,,,,0,,,77,0
80280,note_on,0,0,1,,,,,,,,,,,,,,,0,,,74,77
80280,set_tempo,20,1,0,,,,,,,,,,,,393443,,,,,,,
80320,set_tempo,40,1,0,,,,,,,,,,,,394737,,,,,,,
80340,set_tempo,20,1,0,,,,,,,,,,,,396040,,,,,,,
80360,set_tempo,20,1,0,,,,,,,,,,,,397351,,,,,,,
80400,set_tempo,40,1,0,,,,,,,,,,,,398671,,,,,,,
80400,note_on,0,0,1,,,,,,,,,,,,,,,0,,,71,76
80400,note_on,120,0,1,,,,,,,,,,,,,,,0,,,74,0
80420,set_tempo,20,1,0,,,,,,,,,,,,400000,,,,,,,
80460,set_tempo,40,1,0,,,,,,,,,,,,401338,,,,,,,
80480,set_tempo,20,1,0,,,,,,,,,,,,402685,,,,,,,
80500,set_tempo,20,1,0,,,,,,,,,,,,404040,,,,,,,
80520,set_tempo,20,1,0,,,,,,,,,,,,547945,,,,,,,
80520,note_on,0,0,1,,,,,,,,,,,,,,,0,,,65,75
80520,note_on,120,0,1,,,,,,,,,,,,,,,0,,,71,0
80610,set_tempo,90,1,0,,,,,,,,,,,,430108,,,,,,,
80630,set_tempo,20,1,0,,,,,,,,,,,,431655,,,,,,,
80640,note_on,0,0,2,,,,,,,,,,,,,,,0,,,55,84
80640,note_on,0,0,2,,,,,,,,,,,,,,,0,,,43,71
80640,note_on,0,0,2,,,,,,,,,,,,,,,0,,,43,0
80640,note_on,889,0,2,,,,,,,,,,,,,,,0,,,53,0
80640,note_on,0,0,1,,,,,,,,,,,,,,,0,,,77,80
80640,note_on,120,0,1,,,,,,,,,,,,,,,0,,,65,0
80650,control_change,10,0,2,,,,,,,,,,,,,,,0,64,0,,
80709,control_change,59,0,2,,,,,,,,,,,,,,,0,64,127,,
80710,set_tempo,80,1,0,,,,,,,,,,,,430108,,,,,,,
80760,note_on,0,0,1,,,,,,,,,,,,,,,0,,,83,73
80760,note_on,120,0,1,,,,,,,,,,,,,,,0,,,77,0
80770,set_tempo,60,1,0,,,,,,,,,,,,428571,,,,,,,
80850,set_tempo,80,1,0,,,,,,,,,,,,427046,,,,,,,
80880,note_on,120,0,1,,,,,,,,,,,,,,,0,,,83,0
80880,note_on,0,0,1,,,,,,,,,,,,,,,0,,,86,73
80910,set_tempo,60,1,0,,,,,,,,,,,,425532,,,,,,,
80990,set_tempo,80,1,0,,,,,,,,,,,,424028,,,,,,,
81000,note_on,0,0,1,,,,,,,,,,,,,,,0,,,89,73
81000,note_on,120,0,1,,,,,,,,,,,,,,,0,,,86,0
81050,set_tempo,60,1,0,,,,,,,,,,,,422535,,,,,,,
81110,set_tempo,60,1,0,,,,,,,,,,,,421053,,,,,,,
81120,note_on,0,0,2,,,,,,,,,,,,,,,0,,,42,64
81120,note_on,120,0,1,,,,,,,,,,,,,,,0,,,89,0
81120,note_on,0,0,1,,,,,,,,,,,,,,,0,,,78,78
81120,note_on,411,0,2,,,,,,,,,,,,,,,0,,,55,0
81120,note_on,0,0,2,,,,,,,,,,,,,,,0,,,54,77
81120,note_on,0,0,2,,,,,,,,,,,,,,,0,,,43,0
81130,control_change,10,0,2,,,,,,,,,,,,,,,0,64,0,,
81177,control_change,47,0,2,,,,,,,,,,,,,,,0,64,127,,
81190,set_tempo,80,1,0,,,,,,,,,,,,419580,,,,,,,
81240,note_on,120,0,1,,,,,,,,,,,,,,,0,,,78,0
81240,note_on,0,0,1,,,,,,,,,,,,,,,0,,,83,74
81250,set_tempo,60,1,0,,,,,,,,,,,,418118,,,,,,,
81330,set_tempo,80,1,0,,,,,,,,,,,,416667,,,,,,,
81360,note_on,0,0,1,,,,,,,,,,,,,,,0,,,86,74
81360,note_on,120,0,1,,,,,,,,,,,,,,,0,,,83,0
81390,set_tempo,60,1,0,,,,,,,,,,,,415225,,,,,,,
81470,set_tempo,80,1,0,,,,,,,,,,,,413793,,,,,,,
81480,note_on,120,0,1,,,,,,,,,,,,,,,0,,,86,0
81480,note_on,0,0,1,,,,,,,,,,,,,,,0,,,90,75
81530,set_tempo,60,1,0,,,,,,,,,,,,412371,,,,,,,
81590,set_tempo,60,1,0,,,,,,,,,,,,410959,,,,,,,
81600,note_on,0,0,2,,,,,,,,,,,,,,,0,,,42,0
81600,note_on,0,0,2,,,,,,,,,,,,,,,0,,,41,77
81600,note_on,0,0,2,,,,,,,,,,,,,,,0,,,53,90
81600,note_on,423,0,2,,,,,,,,,,,,,,,0,,,54,0
81600,note_on,120,0,1,,,,,,,,,,,,,,,0,,,90,0
81600,note_on,0,0,1,,,,,,,,,,,,,,,0,,,80,85
81610,control_change,10,0,2,,,,,,,,,,,,,,,0,64,0,,
81657,control_change,47,0,2,,,,,,,,,,,,,,,0,64,127,,
81720,note_on,0,0,1,,,,,,,,,,,,,,,0,,,83,78
81720,note_on,120,0,1,,,,,,,,,,,,,,,0,,,80,0
81840,note_on,0,0,1,,,,,,,,,,,,,,,0,,,86,79
81840,note_on,120,0,1,,,,,,,,,,,,,,,0,,,83,0
81960,note_on,0,0,1,,,,,,,,,,,,,,,0,,,92,79
81960,note_on,120,0,1,,,,,,,,,,,,,,,0,,,86,0
82030,set_tempo,440,1,0,,,,,,,,,,,,409556,,,,,,,
82070,set_tempo,40,1,0,,,,,,,,,,,,410959,,,,,,,
82080,note_on,423,0,2,,,,,,,,,,,,,,,0,,,53,0
82080,note_on,0,0,2,,,,,,,,,,,,,,,0,,,41,0
82080,note_on,0,0,2,,,,,,,,,,,,,,,0,,,42,72
82080,note_on,0,0,2,,,,,,,,,,,,,,,0,,,54,86
82080,note_on,120,0,1,,,,,,,,,,,,,,,0,,,92,0
82080,note_on,0,0,1,,,,,,,,,,,,,,,0,,,82,91
82090,set_tempo,20,1,0,,,,,,,,,,,,412371,,,,,,,
82090,control_change,10,0,2,,,,,,,,,,,,,,,0,64,0,,
82110,set_tempo,20,1,0,,,,,,,,,,,,413793,,,,,,,
82130,set_tempo,20,1,0,,,,,,,,,,,,415225,,,,,,,
82150,set_tempo,20,1,0,,,,,,,,,,,,416667,,,,,,,
82166,control_change,76,0,2,,,,,,,,,,,,,,,0,64,127,,
82190,set_tempo,40,1,0,,,,,,,,,,,,418118,,,,,,,
82200,note_on,0,0,1,,,,,,,,,,,,,,,0,,,85,81
82200,note_on,120,0,1,,,,,,,,,,,,,,,0,,,82,0
82210,set_tempo,20,1,0,,,,,,,,,,,,419580,,,,,,,
82230,set_tempo,20,1,0,,,,,,,,,,,,421053,,,,,,,
82250,set_tempo,20,1,0,,,,,,,,,,,,422535,,,,,,,
82270,set_tempo,20,1,0,,,,,,,,,,,,424028,,,,,,,
82310,set_tempo,40,1,0,,,,,,,,,,,,425532,,,,,,,
82320,note_on,0,0,1,,,,,,,,,,,,,,,0,,,88,81
82320,note_on,120,0,1,,,,,,,,,,,,,,,0,,,85,0
82330,set_tempo,20,1,0,,,,,,,,,,,,427046,,,,,,,
82350,set_tempo,20,1,0,,,,,,,,,,,,428571,,,,,,,
82370,set_tempo,20,1,0,,,,,,,,,,,,430108,,,,,,,
82390,set_tempo,20,1,0,,,,,,,,,,,,431655,,,,,,,
82400,set_tempo,10,1,0,,,,,,,,,,,,418118,,,,,,,
82420,set_tempo,20,1,0,,,,,,,,,,,,419580,,,,,,,
82440,note_on,0,0,1,,,,,,,,,,,,,,,0,,,94,81
82440,note_on,120,0,1,,,,,,,,,,,,,,,0,,,88,0
82440,set_tempo,20,1,0,,,,,,,,,,,,530973,,,,,,,
82560,note_on,0,0,2,,,,,,,,,,,,,,,0,,,42,0
82560,note_on,0,0,2,,,,,,,,,,,,,,,0,,,47,78
82560,note_on,0,0,1,,,,,,,,,,,,,,,0,,,86,92
82560,note_on,0,0,1,,,,,,,,,,,,,,,0,,,83,77
82560,set_tempo,120,1,0,,,,,,,,,,,,415225,,,,,,,
82560,note_on,394,0,2,,,,,,,,,,,,,,,0,,,54,0
82560,note_on,120,0,1,,,,,,,,,,,,,,,0,,,94,0
82560,note_on,0,0,1,,,,,,,,,,,,,,,0,,,74,77
82560,note_on,0,0,1,,,,,,,,,,,,,,,0,,,78,77
82589,control_change,29,0,2,,,,,,,,,,,,,,,0,64,0,,
82604,control_change,15,0,2,,,,,,,,,,,,,,,0,64,127,,
82680,note_on,0,0,2,,,,,,,,,,,,,,,0,,,59,68
82680,note_on,76,0,2,,,,,,,,,,,,,,,0,,,47,0
82800,note_on,120,0,2,,,,,,,,,,,,,,,0,,,59,0
82800,note_on,0,0,2,,,,,,,,,,,,,,,0,,,62,69
82920,note_on,120,0,2,,,,,,,,,,,,,,,0,,,62,0
82920,note_on,0,0,2,,,,,,,,,,,,,,,0,,,59,69
83040,note_on,480,0,1,,,,,,,,,,,,,,,0,,,86,0
83040,note_on,0,0,1,,,,,,,,,,,,,,,0,,,74,0
83040,note_on,0,0,1,,,,,,,,,,,,,,,0,,,78,0
83040,note_on,0,0,1,,,,,,,,,,,,,,,0,,,83,0
83040,note_on,0,0,1,,,,,,,,,,,,,,,0,,,74,77
83040,note_on,0,0,1,,,,,,,,,,,,,,,0,,,78,77
83040,note_on,0,0,1,,,,,,,,,,,,,,,0,,,83,77
83040,note_on,0,0,1,,,,,,,,,,,,,,,0,,,86,92
83040,set_tempo,480,1,0,,,,,,,,,,,,404040,,,,,,,
83040,note_on,0,0,2,,,,,,,,,,,,,,,0,,,54,79
83040,note_on,120,0,2,,,,,,,,,,,,,,,0,,,59,0
83052,control_change,12,0,2,,,,,,,,,,,,,,,0,64,0,,
83070,control_change,18,0,2,,,,,,,,,,,,,,,0,64,127,,
83160,note_on,90,0,2,,,,,,,,,,,,,,,0,,,54,0
83160,note_on,0,0,2,,,,,,,,,,,,,,,0,,,59,71
83280,note_on,0,0,1,,,,,,,,,,,,,,,0,,,83,0
83280,note_on,240,0,1,,,,,,,,,,,,,,,0,,,86,0
83280,note_on,0,0,1,,,,,,,,,,,,,,,0,,,74,0
83280,note_on,0,0,1,,,,,,,,,,,,,,,0,,,78,0
83280,note_on,0,0,1,,,,,,,,,,,,,,,0,,,74,74
83280,note_on,120,0,2,,,,,,,,,,,,,,,0,,,59,0
83280,note_on,0,0,2,,,,,,,,,,,,,,,0,,,50,75
83280,note_on,0,0,1,,,,,,,,,,,,,,,0,,,78,74
83280,note_on,0,0,1,,,,,,,,,,,,,,,0,,,83,74
83280,note_on,0,0,1,,,,,,,,,,,,,,,0,,,86,88
83400,note_on,120,0,2,,,,,,,,,,,,,,,0,,,50,0
83400,set_tempo,360,1,0,,,,,,,,,,,,444444,,,,,,,
83400,note_on,0,0,2,,,,,,,,,,,,,,,0,,,54,71
83520,note_on,0,0,1,,,,,,,,,,,,,,,0,,,90,92
83520,note_on,0,0,1,,,,,,,,,,,,,,,0,,,78,77
83520,note_on,240,0,1,,,,,,,,,,,,,,,0,,,86,0
83520,note_on,0,0,1,,,,,,,,,,,,,,,0,,,74,0
83520,note_on,0,0,1,,,,,,,,,,,,,,,0,,,82,77
83520,note_on,0,0,1,,,,,,,,,,,,,,,0,,,85,77
83520,note_on,0,0,1,,,,,,,,,,,,,,,0,,,78,0
83520,note_on,0,0,1,,,,,,,,,,,,,,,0,,,83,0
83520,set_tempo,120,1,0,,,,,,,,,,,,415225,,,,,,,
83520,note_on,120,0,2,,,,,,,,,,,,,,,0,,,54,0
83520,note_on,0,0,2,,,,,,,,,,,,,,,0,,,42,78
83525,control_change,5,0,2,,,,,,,,,,,,,,,0,64,0,,
83574,control_change,49,0,2,,,,,,,,,,,,,,,0,64,127,,
83640,note_on,66,0,2,,,,,,,,,,,,,,,0,,,42,0
83640,note_on,0,0,2,,,,,,,,,,,,,,,0,,,54,68
83760,note_on,120,0,2,,,,,,,,,,,,,,,0,,,54,0
83760,note_on,0,0,2,,,,,,,,,,,,,,,0,,,58,73
83880,note_on,120,0,2,,,,,,,,,,,,,,,0,,,58,0
83880,note_on,0,0,2,,,,,,,,,,,,,,,0,,,54,67
84000,note_on,120,0,2,,,,,,,,,,,,,,,0,,,54,0
84000,note_on,0,0,2,,,,,,,,,,,,,,,0,,,49,74
84120,note_on,0,0,2,,,,,,,,,,,,,,,0,,,54,65
84120,note_on,120,0,2,,,,,,,,,,,,,,,0,,,49,0
84240,note_on,0,0,2,,,,,,,,,,,,,,,0,,,46,71
84240,note_on,120,0,2,,,,,,,,,,,,,,,0,,,54,0
84360,note_on,0,0,2,,,,,,,,,,,,,,,0,,,49,65
84360,note_on,120,0,2,,,,,,,,,,,,,,,0,,,46,0
84480,note_on,0,0,1,,,,,,,,,,,,,,,0,,,78,0
84480,note_on,0,0,1,,,,,,,,,,,,,,,0,,,82,0
84480,note_on,0,0,1,,,,,,,,,,,,,,,0,,,85,0
84480,note_on,0,0,1,,,,,,,,,,,,,,,0,,,73,77
84480,note_on,0,0,1,,,,,,,,,,,,,,,0,,,76,77
84480,note_on,0,0,1,,,,,,,,,,,,,,,0,,,81,77
84480,note_on,960,0,1,,,,,,,,,,,,,,,0,,,90,0
84480,note_on,120,0,2,,,,,,,,,,,,,,,0,,,49,0
84480,note_on,0,0,2,,,,,,,,,,,,,,,0,,,45,78
84480,note_on,0,0,1,,,,,,,,,,,,,,,0,,,85,92
84480,set_tempo,960,1,0,,,,,,,,,,,,415225,,,,,,,
84486,control_change,6,0,2,,,,,,,,,,,,,,,0,64,0,,
84524,control_change,38,0,2,,,,,,,,,,,,,,,0,64,127,,
84600,note_on,0,0,2,,,,,,,,,,,,,,,0,,,57,68
84600,note_on,76,0,2,,,,,,,,,,,,,,,0,,,45,0
84720,note_on,0,0,2,,,,,,,,,,,,,,,0,,,61,69
84720,note_on,120,0,2,,,,,,,,,,,,,,,0,,,57,0
84840,note_on,120,0,2,,,,,,,,,,,,,,,0,,,61,0
84840,note_on,0,0,2,,,,,,,,,,,,,,,0,,,57,69
84960,set_tempo,480,1,0,,,,,,,,,,,,404040,,,,,,,
84960,note_on,480,0,1,,,,,,,,,,,,,,,0,,,85,0
84960,note_on,0,0,1,,,,,,,,,,,,,,,0,,,76,77
84960,note_on,0,0,1,,,,,,,,,,,,,,,0,,,76,0
84960,note_on,0,0,1,,,,,,,,,,,,,,,0,,,81,0
84960,note_on,0,0,1,,,,,,,,,,,,,,,0,,,73,77
84960,note_on,0,0,1,,,,,,,,,,,,,,,0,,,81,77
84960,note_on,0,0,1,,,,,,,,,,,,,,,0,,,85,92
84960,note_on,0,0,1,,,,,,,,,,,,,,,0,,,73,0
84960,note_on,0,0,2,,,,,,,,,,,,,,,0,,,52,79
84960,note_on,120,0,2,,,,,,,,,,,,,,,0,,,57,0
84970,control_change,10,0,2,,,,,,,,,,,,,,,0,64,0,,
84990,control_change,20,0,2,,,,,,,,,,,,,,,0,64,127,,
85080,note_on,0,0,2,,,,,,,,,,,,,,,0,,,57,71
85080,note_on,90,0,2,,,,,,,,,,,,,,,0,,,52,0
85200,note_on,0,0,1,,,,,,,,,,,,,,,0,,,85,88
85200,note_on,120,0,2,,,,,,,,,,,,,,,0,,,57,0
85200,note_on,240,0,1,,,,,,,,,,,,,,,0,,,85,0
85200,note_on,0,0,1,,,,,,,,,,,,,,,0,,,81,74
85200,note_on,0,0,1,,,,,,,,,,,,,,,0,,,73,0
85200,note_on,0,0,1,,,,,,,,,,,,,,,0,,,76,74
85200,note_on,0,0,1,,,,,,,,,,,,,,,0,,,73,74
85200,note_on,0,0,1,,,,,,,,,,,,,,,0,,,81,0
85200,note_on,0,0,2,,,,,,,,,,,,,,,0,,,49,75
85200,note_on,0,0,1,,,,,,,,,,,,,,,0,,,76,0
85320,note_on,120,0,2,,,,,,,,,,,,,,,0,,,49,0
85320,note_on,0,0,2,,,,,,,,,,,,,,,0,,,52,71
85320,set_tempo,360,1,0,,,,,,,,,,,,444444,,,,,,,
85440,set_tempo,120,1,0,,,,,,,,,,,,415225,,,,,,,
85440,note_on,0,0,1,,,,,,,,,,,,,,,0,,,83,77
85440,note_on,0,0,1,,,,,,,,,,,,,,,0,,,80,77
85440,note_on,0,0,1,,,,,,,,,,,,,,,0,,,76,77
85440,note_on,0,0,1,,,,,,,,,,,,,,,0,,,81,0
85440,note_on,0,0,1,,,,,,,,,,,,,,,0,,,76,0
85440,note_on,0,0,2,,,,,,,,,,,,,,,0,,,40,78
85440,note_on,0,0,1,,,,,,,,,,,,,,,0,,,73,0
85440,note_on,240,0,1,,,,,,,,,,,,,,,0,,,85,0
85440,note_on,0,0,1,,,,,,,,,,,,,,,0,,,88,92
85440,note_on,120,0,2,,,,,,,,,,,,,,,0,,,52,0
85445,control_change,5,0,2,,,,,,,,,,,,,,,0,64,0,,
85494,control_change,49,0,2,,,,,,,,,,,,,,,0,64,127,,
85560,note_on,0,0,2,,,,,,,,,,,,,,,0,,,52,68
85560,note_on,66,0,2,,,,,,,,,,,,,,,0,,,40,0
85680,note_on,0,0,2,,,,,,,,,,,,,,,0,,,56,73
85680,note_on,120,0,2,,,,,,,,,,,,,,,0,,,52,0
85800,note_on,120,0,2,,,,,,,,,,,,,,,0,,,56,0
85800,note_on,0,0,2,,,,,,,,,,,,,,,0,,,52,67
85920,note_on,120,0,2,,,,,,,,,,,,,,,0,,,52,0
85920,note_on,0,0,2,,,,,,,,,,,,,,,0,,,47,74
86040,note_on,120,0,2,,,,,,,,,,,,,,,0,,,47,0
86040,note_on,0,0,2,,,,,,,,,,,,,,,0,,,52,65
86160,note_on,0,0,2,,,,,,,,,,,,,,,0,,,44,71
86160,note_on,120,0,2,,,,,,,,,,,,,,,0,,,52,0
86280,note_on,0,0,2,,,,,,,,,,,,,,,0,,,47,65
86280,note_on,120,0,2,,,,,,,,,,,,,,,0,,,44,0
86400,note_on,0,0,1,,,,,,,,,,,,,,,0,,,83,83
86400,note_on,0,0,1,,,,,,,,,,,,,,,0,,,79,70
86400,note_on,0,0,1,,,,,,,,,,,,,,,0,,,74,70
86400,note_on,0,0,1,,,,,,,,,,,,,,,0,,,71,70
86400,note_on,0,0,1,,,,,,,,,,,,,,,0,,,83,0
86400,note_on,0,0,1,,,,,,,,,,,,,,,0,,,76,0
86400,set_tempo,960,1,0,,,,,,,,,,,,415225,,,,,,,
86400,note_on,960,0,1,,,,,,,,,,,,,,,0,,,88,0
86400,note_on,120,0,2,,,,,,,,,,,,,,,0,,,47,0
86400,note_on,0,0,2,,,,,,,,,,,,,,,0,,,43,71
86400,note_on,0,0,1,,,,,,,,,,,,,,,0,,,80,0
86409,control_change,9,0,2,,,,,,,,,,,,,,,0,64,0,,
86444,control_change,35,0,2,,,,,,,,,,,,,,,0,64,127,,
86520,note_on,76,0,2,,,,,,,,,,,,,,,0,,,43,0
86520,note_on,0,0,2,,,,,,,,,,,,,,,0,,,55,61
86640,note_on,0,0,2,,,,,,,,,,,,,,,0,,,59,62
86640,note_on,120,0,2,,,,,,,,,,,,,,,0,,,55,0
86760,note_on,0,0,2,,,,,,,,,,,,,,,0,,,55,62
86760,note_on,120,0,2,,,,,,,,,,,,,,,0,,,59,0
86880,note_on,0,0,1,,,,,,,,,,,,,,,0,,,74,69
86880,note_on,0,0,1,,,,,,,,,,,,,,,0,,,71,69
86880,note_on,0,0,1,,,,,,,,,,,,,,,0,,,79,0
86880,note_on,0,0,1,,,,,,,,,,,,,,,0,,,74,0
86880,note_on,0,0,1,,,,,,,,,,,,,,,0,,,71,0
86880,note_on,480,0,1,,,,,,,,,,,,,,,0,,,83,0
86880,note_on,0,0,1,,,,,,,,,,,,,,,0,,,79,69
86880,note_on,0,0,1,,,,,,,,,,,,,,,0,,,83,82
86880,note_on,0,0,2,,,,,,,,,,,,,,,0,,,50,71
86880,note_on,120,0,2,,,,,,,,,,,,,,,0,,,55,0
86880,set_tempo,480,1,0,,,,,,,,,,,,410959,,,,,,,
86890,control_change,10,0,2,,,,,,,,,,,,,,,0,64,0,,
86910,control_change,20,0,2,,,,,,,,,,,,,,,0,64,127,,
87000,note_on,0,0,2,,,,,,,,,,,,,,,0,,,55,63
87000,note_on,90,0,2,,,,,,,,,,,,,,,0,,,50,0
87120,note_on,240,0,1,,,,,,,,,,,,,,,0,,,83,0
87120,note_on,0,0,1,,,,,,,,,,,,,,,0,,,71,0
87120,note_on,0,0,1,,,,,,,,,,,,,,,0,,,74,0
87120,note_on,0,0,1,,,,,,,,,,,,,,,0,,,79,0
87120,note_on,0,0,1,,,,,,,,,,,,,,,0,,,71,66
87120,note_on,0,0,1,,,,,,,,,,,,,,,0,,,74,66
87120,note_on,0,0,1,,,,,,,,,,,,,,,0,,,79,66
87120,note_on,0,0,2,,,,,,,,,,,,,,,0,,,47,66
87120,note_on,120,0,2,,,,,,,,,,,,,,,0,,,55,0
87120,note_on,0,0,1,,,,,,,,,,,,,,,0,,,83,78
87240,note_on,0,0,2,,,,,,,,,,,,,,,0,,,50,62
87240,note_on,120,0,2,,,,,,,,,,,,,,,0,,,47,0
87240,set_tempo,360,1,0,,,,,,,,,,,,444444,,,,,,,
87360,note_on,0,0,2,,,,,,,,,,,,,,,0,,,38,69
87360,note_on,120,0,2,,,,,,,,,,,,,,,0,,,50,0
87360,note_on,0,0,1,,,,,,,,,,,,,,,0,,,81,68
87360,note_on,0,0,1,,,,,,,,,,,,,,,0,,,86,80
87360,note_on,0,0,1,,,,,,,,,,,,,,,0,,,78,68
87360,note_on,0,0,1,,,,,,,,,,,,,,,0,,,74,68
87360,note_on,0,0,1,,,,,,,,,,,,,,,0,,,79,0
87360,note_on,0,0,1,,,,,,,,,,,,,,,0,,,74,0
87360,note_on,0,0,1,,,,,,,,,,,,,,,0,,,71,0
87360,note_on,240,0,1,,,,,,,,,,,,,,,0,,,83,0
87360,set_tempo,120,1,0,,,,,,,,,,,,415225,,,,,,,
87370,control_change,10,0,2,,,,,,,,,,,,,,,0,64,0,,
87414,control_change,44,0,2,,,,,,,,,,,,,,,0,64,127,,
87480,note_on,0,0,2,,,,,,,,,,,,,,,0,,,50,59
87480,note_on,66,0,2,,,,,,,,,,,,,,,0,,,38,0
87600,note_on,120,0,2,,,,,,,,,,,,,,,0,,,50,0
87600,note_on,0,0,2,,,,,,,,,,,,,,,0,,,54,58
87720,note_on,120,0,2,,,,,,,,,,,,,,,0,,,54,0
87720,note_on,0,0,2,,,,,,,,,,,,,,,0,,,57,57
87840,set_tempo,480,1,0,,,,,,,,,,,,421053,,,,,,,
87840,note_on,480,0,1,,,,,,,,,,,,,,,0,,,86,0
87840,note_on,0,0,1,,,,,,,,,,,,,,,0,,,74,0
87840,note_on,0,0,1,,,,,,,,,,,,,,,0,,,78,0
87840,note_on,0,0,1,,,,,,,,,,,,,,,0,,,81,0
87840,note_on,0,0,1,,,,,,,,,,,,,,,0,,,71,63
87840,note_on,0,0,1,,,,,,,,,,,,,,,0,,,79,63
87840,note_on,0,0,1,,,,,,,,,,,,,,,0,,,83,76
87840,note_on,0,0,1,,,,,,,,,,,,,,,0,,,74,63
87840,note_on,0,0,2,,,,,,,,,,,,,,,0,,,43,63
87840,note_on,120,0,2,,,,,,,,,,,,,,,0,,,57,0
87849,control_change,9,0,2,,,,,,,,,,,,,,,0,64,0,,
87880,control_change,31,0,2,,,,,,,,,,,,,,,0,64,127,,
87960,note_on,80,0,2,,,,,,,,,,,,,,,0,,,43,0
87960,note_on,0,0,2,,,,,,,,,,,,,,,0,,,47,55
88080,note_on,120,0,2,,,,,,,,,,,,,,,0,,,47,0
88080,note_on,0,0,2,,,,,,,,,,,,,,,0,,,55,55
88200,note_on,0,0,2,,,,,,,,,,,,,,,0,,,59,54
88200,note_on,120,0,2,,,,,,,,,,,,,,,0,,,55,0
88320,note_on,120,0,2,,,,,,,,,,,,,,,0,,,59,0
88320,set_tempo,480,1,0,,,,,,,,,,,,415225,,,,,,,
88320,note_on,0,0,1,,,,,,,,,,,,,,,0,,,81,77
88320,note_on,0,0,1,,,,,,,,,,,,,,,0,,,79,65
88320,note_on,0,0,1,,,,,,,,,,,,,,,0,,,74,65
88320,note_on,0,0,1,,,,,,,,,,,,,,,0,,,69,65
88320,note_on,0,0,1,,,,,,,,,,,,,,,0,,,74,0
88320,note_on,0,0,1,,,,,,,,,,,,,,,0,,,79,0
88320,note_on,480,0,1,,,,,,,,,,,,,,,0,,,83,0
88320,note_on,0,0,2,,,,,,,,,,,,,,,0,,,38,66
88320,note_on,0,0,1,,,,,,,,,,,,,,,0,,,71,0
88330,control_change,10,0,2,,,,,,,,,,,,,,,0,64,0,,
88364,control_change,34,0,2,,,,,,,,,,,,,,,0,64,127,,
88440,note_on,76,0,2,,,,,,,,,,,,,,,0,,,38,0
88440,note_on,0,0,2,,,,,,,,,,,,,,,0,,,50,57
88560,note_on,120,0,2,,,,,,,,,,,,,,,0,,,50,0
88560,note_on,0,0,2,,,,,,,,,,,,,,,0,,,55,57
88680,note_on,120,0,2,,,,,,,,,,,,,,,0,,,55,0
88680,note_on,0,0,2,,,,,,,,,,,,,,,0,,,57,57
88800,note_on,0,0,1,,,,,,,,,,,,,,,0,,,74,63
88800,note_on,0,0,1,,,,,,,,,,,,,,,0,,,78,63
88800,note_on,0,0,1,,,,,,,,,,,,,,,0,,,81,75
88800,note_on,0,0,1,,,,,,,,,,,,,,,0,,,79,0
88800,note_on,0,0,1,,,,,,,,,,,,,,,0,,,74,0
88800,note_on,0,0,1,,,,,,,,,,,,,,,0,,,69,0
88800,set_tempo,480,1,0,,,,,,,,,,,,422535,,,,,,,
88800,note_on,0,0,1,,,,,,,,,,,,,,,0,,,69,63
88800,note_on,480,0,1,,,,,,,,,,,,,,,0,,,81,0
88800,note_on,120,0,2,,,,,,,,,,,,,,,0,,,57,0
88800,note_on,0,0,2,,,,,,,,,,,,,,,0,,,38,65
88810,control_change,10,0,2,,,,,,,,,,,,,,,0,64,0,,
88830,control_change,20,0,2,,,,,,,,,,,,,,,0,64,127,,
88920,note_on,0,0,2,,,,,,,,,,,,,,,0,,,50,58
88920,note_on,90,0,2,,,,,,,,,,,,,,,0,,,38,0
89040,note_on,0,0,2,,,,,,,,,,,,,,,0,,,54,61
89040,note_on,120,0,2,,,,,,,,,,,,,,,0,,,50,0
89160,note_on,0,0,2,,,,,,,,,,,,,,,0,,,57,57
89160,note_on,120,0,2,,,,,,,,,,,,,,,0,,,54,0
89280,note_on,0,0,2,,,,,,,,,,,,,,,0,,,31,63
89280,note_on,120,0,2,,,,,,,,,,,,,,,0,,,57,0
89280,note_on,480,0,1,,,,,,,,,,,,,,,0,,,81,0
89280,note_on,0,0,1,,,,,,,,,,,,,,,0,,,74,0
89280,note_on,0,0,1,,,,,,,,,,,,,,,0,,,78,0
89280,set_tempo,480,1,0,,,,,,,,,,,,415225,,,,,,,
89280,note_on,0,0,1,,,,,,,,,,,,,,,0,,,83,73
89280,note_on,0,0,1,,,,,,,,,,,,,,,0,,,69,0
89280,note_on,0,0,1,,,,,,,,,,,,,,,0,,,74,62
89280,note_on,0,0,1,,,,,,,,,,,,,,,0,,,71,62
89280,note_on,0,0,1,,,,,,,,,,,,,,,0,,,79,62
89290,control_change,10,0,2,,,,,,,,,,,,,,,0,64,0,,
89348,control_change,58,0,2,,,,,,,,,,,,,,,0,64,127,,
89400,note_on,52,0,2,,,,,,,,,,,,,,,0,,,31,0
89400,note_on,0,0,2,,,,,,,,,,,,,,,0,,,43,54
89520,note_on,120,0,2,,,,,,,,,,,,,,,0,,,43,0
89520,note_on,0,0,2,,,,,,,,,,,,,,,0,,,47,53
89640,note_on,120,0,2,,,,,,,,,,,,,,,0,,,47,0
89640,note_on,0,0,2,,,,,,,,,,,,,,,0,,,50,53
89760,note_on,0,0,2,,,,,,,,,,,,,,,0,,,55,58
89760,note_on,120,0,2,,,,,,,,,,,,,,,0,,,50,0
89880,note_on,0,0,2,,,,,,,,,,,,,,,0,,,50,50
89880,note_on,120,0,2,,,,,,,,,,,,,,,0,,,55,0
90000,note_on,0,0,2,,,,,,,,,,,,,,,0,,,47,50
90000,note_on,120,0,2,,,,,,,,,,,,,,,0,,,50,0
90120,note_on,120,0,2,,,,,,,,,,,,,,,0,,,47,0
90120,note_on,0,0,2,,,,,,,,,,,,,,,0,,,43,50
90240,note_on,0,0,2,,,,,,,,,,,,,,,0,,,31,63
90240,set_tempo,960,1,0,,,,,,,,,,,,415225,,,,,,,
90240,note_on,0,0,1,,,,,,,,,,,,,,,0,,,83,74
90240,note_on,0,0,1,,,,,,,,,,,,,,,0,,,79,62
90240,note_on,0,0,1,,,,,,,,,,,,,,,0,,,71,62
90240,note_on,0,0,1,,,,,,,,,,,,,,,0,,,74,62
90240,note_on,0,0,1,,,,,,,,,,,,,,,0,,,74,0
90240,note_on,0,0,1,,,,,,,,,,,,,,,0,,,71,0
90240,note_on,960,0,1,,,,,,,,,,,,,,,0,,,83,0
90240,note_on,0,0,1,,,,,,,,,,,,,,,0,,,79,0
90240,note_on,120,0,2,,,,,,,,,,,,,,,0,,,43,0
90245,control_change,5,0,2,,,,,,,,,,,,,,,0,64,0,,
90284,control_change,39,0,2,,,,,,,,,,,,,,,0,64,127,,
90360,note_on,76,0,2,,,,,,,,,,,,,,,0,,,31,0
90360,note_on,0,0,2,,,,,,,,,,,,,,,0,,,55,55
90480,note_on,120,0,2,,,,,,,,,,,,,,,0,,,55,0
90480,note_on,0,0,2,,,,,,,,,,,,,,,0,,,59,56
90600,note_on,120,0,2,,,,,,,,,,,,,,,0,,,59,0
90600,note_on,0,0,2,,,,,,,,,,,,,,,0,,,55,56
90720,note_on,0,0,1,,,,,,,,,,,,,,,0,,,79,62
90720,note_on,0,0,1,,,,,,,,,,,,,,,0,,,74,62
90720,note_on,0,0,1,,,,,,,,,,,,,,,0,,,71,62
90720,note_on,0,0,1,,,,,,,,,,,,,,,0,,,79,0
90720,note_on,0,0,1,,,,,,,,,,,,,,,0,,,71,0
90720,note_on,480,0,1,,,,,,,,,,,,,,,0,,,83,0
90720,note_on,0,0,1,,,,,,,,,,,,,,,0,,,83,74
90720,note_on,0,0,1,,,,,,,,,,,,,,,0,,,74,0
90720,set_tempo,480,1,0,,,,,,,,,,,,404040,,,,,,,
90720,note_on,120,0,2,,,,,,,,,,,,,,,0,,,55,0
90720,note_on,0,0,2,,,,,,,,,,,,,,,0,,,50,64
90730,control_change,10,0,2,,,,,,,,,,,,,,,0,64,0,,
90750,control_change,20,0,2,,,,,,,,,,,,,,,0,64,127,,
90840,note_on,90,0,2,,,,,,,,,,,,,,,0,,,50,0
90840,note_on,0,0,2,,,,,,,,,,,,,,,0,,,55,57
90960,note_on,0,0,1,,,,,,,,,,,,,,,0,,,74,60
90960,note_on,0,0,1,,,,,,,,,,,,,,,0,,,79,0
90960,note_on,0,0,1,,,,,,,,,,,,,,,0,,,79,60
90960,note_on,0,0,1,,,,,,,,,,,,,,,0,,,71,60
90960,note_on,0,0,1,,,,,,,,,,,,,,,0,,,83,71
90960,note_on,0,0,2,,,,,,,,,,,,,,,0,,,47,61
90960,note_on,120,0,2,,,,,,,,,,,,,,,0,,,55,0
90960,note_on,240,0,1,,,,,,,,,,,,,,,0,,,83,0
90960,note_on,0,0,1,,,,,,,,,,,,,,,0,,,71,0
90960,note_on,0,0,1,,,,,,,,,,,,,,,0,,,74,0
91080,note_on,120,0,2,,,,,,,,,,,,,,,0,,,47,0
91080,set_tempo,360,1,0,,,,,,,,,,,,444444,,,,,,,
91080,note_on,0,0,2,,,,,,,,,,,,,,,0,,,50,57
91200,note_on,0,0,2,,,,,,,,,,,,,,,0,,,38,63
91200,note_on,120,0,2,,,,,,,,,,,,,,,0,,,50,0
91200,note_on,0,0,1,,,,,,,,,,,,,,,0,,,71,0
91200,note_on,240,0,1,,,,,,,,,,,,,,,0,,,83,0
91200,note_on,0,0,1,,,,,,,,,,,,,,,0,,,79,0
91200,note_on,0,0,1,,,,,,,,,,,,,,,0,,,74,62
91200,note_on,0,0,1,,,,,,,,,,,,,,,0,,,78,62
91200,note_on,0,0,1,,,,,,,,,,,,,,,0,,,81,62
91200,note_on,0,0,1,,,,,,,,,,,,,,,0,,,86,74
91200,set_tempo,120,1,0,,,,,,,,,,,,415225,,,,,,,
91200,note_on,0,0,1,,,,,,,,,,,,,,,0,,,74,0
91212,control_change,12,0,2,,,,,,,,,,,,,,,0,64,0,,
91269,control_change,57,0,2,,,,,,,,,,,,,,,0,64,127,,
91320,note_on,51,0,2,,,,,,,,,,,,,,,0,,,38,0
91320,note_on,0,0,2,,,,,,,,,,,,,,,0,,,50,55
91440,note_on,120,0,2,,,,,,,,,,,,,,,0,,,50,0
91440,note_on,0,0,2,,,,,,,,,,,,,,,0,,,54,59
91560,note_on,120,0,2,,,,,,,,,,,,,,,0,,,54,0
91560,note_on,0,0,2,,,,,,,,,,,,,,,0,,,50,54
91680,note_on,120,0,2,,,,,,,,,,,,,,,0,,,50,0
91680,note_on,0,0,2,,,,,,,,,,,,,,,0,,,45,60
91800,note_on,120,0,2,,,,,,,,,,,,,,,0,,,45,0
91800,note_on,0,0,2,,,,,,,,,,,,,,,0,,,50,52
91920,note_on,120,0,2,,,,,,,,,,,,,,,0,,,50,0
91920,note_on,0,0,2,,,,,,,,,,,,,,,0,,,42,57
92040,note_on,0,0,2,,,,,,,,,,,,,,,0,,,45,52
92040,note_on,120,0,2,,,,,,,,,,,,,,,0,,,42,0
92160,note_on,120,0,2,,,,,,,,,,,,,,,0,,,45,0
92160,set_tempo,960,1,0,,,,,,,,,,,,415225,,,,,,,
92160,note_on,0,0,1,,,,,,,,,,,,,,,0,,,74,0
92160,note_on,0,0,1,,,,,,,,,,,,,,,0,,,81,74
92160,note_on,0,0,1,,,,,,,,,,,,,,,0,,,77,62
92160,note_on,0,0,1,,,,,,,,,,,,,,,0,,,72,62
92160,note_on,0,0,1,,,,,,,,,,,,,,,0,,,69,62
92160,note_on,0,0,1,,,,,,,,,,,,,,,0,,,81,0
92160,note_on,0,0,1,,,,,,,,,,,,,,,0,,,78,0
92160,note_on,960,0,1,,,,,,,,,,,,,,,0,,,86,0
92160,note_on,0,0,2,,,,,,,,,,,,,,,0,,,41,63
92164,control_change,4,0,2,,,,,,,,,,,,,,,0,64,0,,
92204,control_change,40,0,2,,,,,,,,,,,,,,,0,64,127,,
92280,note_on,0,0,2,,,,,,,,,,,,,,,0,,,53,55
92280,note_on,76,0,2,,,,,,,,,,,,,,,0,,,41,0
92400,note_on,0,0,2,,,,,,,,,,,,,,,0,,,57,56
92400,note_on,120,0,2,,,,,,,,,,,,,,,0,,,53,0
92520,note_on,120,0,2,,,,,,,,,,,,,,,0,,,57,0
92520,note_on,0,0,2,,,,,,,,,,,,,,,0,,,53,56
92640,note_on,0,0,1,,,,,,,,,,,,,,,0,,,81,74
92640,note_on,0,0,2,,,,,,,,,,,,,,,0,,,48,64
92640,set_tempo,480,1,0,,,,,,,,,,,,404040,,,,,,,
92640,note_on,480,0,1,,,,,,,,,,,,,,,0,,,81,0
92640,note_on,0,0,1,,,,,,,,,,,,,,,0,,,72,0
92640,note_on,0,0,1,,,,,,,,,,,,,,,0,,,77,0
92640,note_on,0,0,1,,,,,,,,,,,,,,,0,,,69,62
92640,note_on,0,0,1,,,,,,,,,,,,,,,0,,,72,62
92640,note_on,0,0,1,,,,,,,,,,,,,,,0,,,77,62
92640,note_on,120,0,2,,,,,,,,,,,,,,,0,,,53,0
92640,note_on,0,0,1,,,,,,,,,,,,,,,0,,,69,0
92650,control_change,10,0,2,,,,,,,,,,,,,,,0,64,0,,
92670,control_change,20,0,2,,,,,,,,,,,,,,,0,64,127,,
92760,note_on,90,0,2,,,,,,,,,,,,,,,0,,,48,0
92760,note_on,0,0,2,,,,,,,,,,,,,,,0,,,53,57
92880,note_on,0,0,1,,,,,,,,,,,,,,,0,,,69,0
92880,note_on,0,0,1,,,,,,,,,,,,,,,0,,,72,0
92880,note_on,0,0,1,,,,,,,,,,,,,,,0,,,77,0
92880,note_on,0,0,1,,,,,,,,,,,,,,,0,,,69,60
92880,note_on,0,0,1,,,,,,,,,,,,,,,0,,,77,60
92880,note_on,0,0,1,,,,,,,,,,,,,,,0,,,81,71
92880,note_on,0,0,2,,,,,,,,,,,,,,,0,,,45,61
92880,note_on,120,0,2,,,,,,,,,,,,,,,0,,,53,0
92880,note_on,240,0,1,,,,,,,,,,,,,,,0,,,81,0
92880,note_on,0,0,1,,,,,,,,,,,,,,,0,,,72,60
93000,note_on,0,0,2,,,,,,,,,,,,,,,0,,,48,57
93000,note_on,120,0,2,,,,,,,,,,,,,,,0,,,45,0
93000,set_tempo,360,1,0,,,,,,,,,,,,444444,,,,,,,
93120,note_on,0,0,1,,,,,,,,,,,,,,,0,,,72,62
93120,set_tempo,120,1,0,,,,,,,,,,,,415225,,,,,,,
93120,note_on,0,0,2,,,,,,,,,,,,,,,0,,,36,63
93120,note_on,240,0,1,,,,,,,,,,,,,,,0,,,81,0
93120,note_on,120,0,2,,,,,,,,,,,,,,,0,,,48,0
93120,note_on,0,0,1,,,,,,,,,,,,,,,0,,,69,0
93120,note_on,0,0,1,,,,,,,,,,,,,,,0,,,72,0
93120,note_on,0,0,1,,,,,,,,,,,,,,,0,,,77,0
93120,note_on,0,0,1,,,,,,,,,,,,,,,0,,,76,62
93120,note_on,0,0,1,,,,,,,,,,,,,,,0,,,84,74
93120,note_on,0,0,1,,,,,,,,,,,,,,,0,,,79,62
93131,control_change,11,0,2,,,,,,,,,,,,,,,0,64,0,,
93189,control_change,58,0,2,,,,,,,,,,,,,,,0,64,127,,
93240,note_on,51,0,2,,,,,,,,,,,,,,,0,,,36,0
93240,note_on,0,0,2,,,,,,,,,,,,,,,0,,,48,55
93360,note_on,120,0,2,,,,,,,,,,,,,,,0,,,48,0
93360,note_on,0,0,2,,,,,,,,,,,,,,,0,,,52,59
93480,note_on,120,0,2,,,,,,,,,,,,,,,0,,,52,0
93480,note_on,0,0,2,,,,,,,,,,,,,,,0,,,48,54
93600,note_on,120,0,2,,,,,,,,,,,,,,,0,,,48,0
93600,note_on,0,0,2,,,,,,,,,,,,,,,0,,,43,60
93720,note_on,0,0,2,,,,,,,,,,,,,,,0,,,48,52
93720,note_on,120,0,2,,,,,,,,,,,,,,,0,,,43,0
93840,note_on,0,0,2,,,,,,,,,,,,,,,0,,,40,57
93840,note_on,120,0,2,,,,,,,,,,,,,,,0,,,48,0
93960,note_on,120,0,2,,,,,,,,,,,,,,,0,,,40,0
93960,note_on,0,0,2,,,,,,,,,,,,,,,0,,,43,52
94080,note_on,0,0,1,,,,,,,,,,,,,,,0,,,67,59
94080,note_on,0,0,1,,,,,,,,,,,,,,,0,,,79,0
94080,note_on,0,0,1,,,,,,,,,,,,,,,0,,,76,0
94080,note_on,0,0,1,,,,,,,,,,,,,,,0,,,71,59
94080,note_on,0,0,1,,,,,,,,,,,,,,,0,,,76,59
94080,note_on,0,0,1,,,,,,,,,,,,,,,0,,,79,70
94080,note_on,960,0,1,,,,,,,,,,,,,,,0,,,84,0
94080,note_on,0,0,1,,,,,,,,,,,,,,,0,,,72,0
94080,set_tempo,960,1,0,,,,,,,,,,,,415225,,,,,,,
94080,note_on,120,0,2,,,,,,,,,,,,,,,0,,,43,0
94080,note_on,0,0,2,,,,,,,,,,,,,,,0,,,40,60
94085,control_change,5,0,2,,,,,,,,,,,,,,,0,64,0,,
94124,control_change,39,0,2,,,,,,,,,,,,,,,0,64,127,,
94200,note_on,76,0,2,,,,,,,,,,,,,,,0,,,40,0
94200,note_on,0,0,2,,,,,,,,,,,,,,,0,,,52,51
94320,note_on,120,0,2,,,,,,,,,,,,,,,0,,,52,0
94320,note_on,0,0,2,,,,,,,,,,,,,,,0,,,55,52
94440,note_on,0,0,2,,,,,,,,,,,,,,,0,,,52,52
94440,note_on,120,0,2,,,,,,,,,,,,,,,0,,,55,0
94560,note_on,0,0,1,,,,,,,,,,,,,,,0,,,71,58
94560,note_on,0,0,1,,,,,,,,,,,,,,,0,,,67,58
94560,note_on,0,0,1,,,,,,,,,,,,,,,0,,,76,0
94560,note_on,0,0,1,,,,,,,,,,,,,,,0,,,71,0
94560,note_on,0,0,1,,,,,,,,,,,,,,,0,,,67,0
94560,note_on,480,0,1,,,,,,,,,,,,,,,0,,,79,0
94560,set_tempo,480,1,0,,,,,,,,,,,,412371,,,,,,,
94560,note_on,0,0,2,,,,,,,,,,,,,,,0,,,47,60
94560,note_on,120,0,2,,,,,,,,,,,,,,,0,,,52,0
94560,note_on,0,0,1,,,,,,,,,,,,,,,0,,,76,58
94560,note_on,0,0,1,,,,,,,,,,,,,,,0,,,79,69
94572,control_change,12,0,2,,,,,,,,,,,,,,,0,64,0,,
94590,control_change,18,0,2,,,,,,,,,,,,,,,0,64,127,,
94680,note_on,90,0,2,,,,,,,,,,,,,,,0,,,47,0
94680,note_on,0,0,2,,,,,,,,,,,,,,,0,,,52,53
94800,note_on,0,0,1,,,,,,,,,,,,,,,0,,,67,0
94800,note_on,0,0,1,,,,,,,,,,,,,,,0,,,79,66
94800,note_on,0,0,1,,,,,,,,,,,,,,,0,,,71,0
94800,note_on,0,0,1,,,,,,,,,,,,,,,0,,,76,0
94800,note_on,0,0,1,,,,,,,,,,,,,,,0,,,67,56
94800,note_on,0,0,1,,,,,,,,,,,,,,,0,,,71,56
94800,note_on,0,0,1,,,,,,,,,,,,,,,0,,,76,56
94800,note_on,240,0,1,,,,,,,,,,,,,,,0,,,79,0
94800,note_on,120,0,2,,,,,,,,,,,,,,,0,,,52,0
94800,note_on,0,0,2,,,,,,,,,,,,,,,0,,,43,56
94920,note_on,120,0,2,,,,,,,,,,,,,,,0,,,43,0
94920,note_on,0,0,2,,,,,,,,,,,,,,,0,,,47,52
94920,set_tempo,360,1,0,,,,,,,,,,,,444444,,,,,,,
95040,note_on,0,0,1,,,,,,,,,,,,,,,0,,,67,0
95040,note_on,0,0,1,,,,,,,,,,,,,,,0,,,75,57
95040,note_on,0,0,1,,,,,,,,,,,,,,,0,,,71,57
95040,note_on,0,0,1,,,,,,,,,,,,,,,0,,,76,0
95040,note_on,0,0,1,,,,,,,,,,,,,,,0,,,71,0
95040,note_on,240,0,1,,,,,,,,,,,,,,,0,,,79,0
95040,note_on,0,0,1,,,,,,,,,,,,,,,0,,,78,57
95040,note_on,0,0,1,,,,,,,,,,,,,,,0,,,83,68
95040,set_tempo,120,1,0,,,,,,,,,,,,422535,,,,,,,
95040,note_on,0,0,2,,,,,,,,,,,,,,,0,,,35,58
95040,note_on,120,0,2,,,,,,,,,,,,,,,0,,,47,0
95047,control_change,7,0,2,,,,,,,,,,,,,,,0,64,0,,
95100,control_change,53,0,2,,,,,,,,,,,,,,,0,64,127,,
95160,note_on,0,0,2,,,,,,,,,,,,,,,0,,,47,50
95160,note_on,60,0,2,,,,,,,,,,,,,,,0,,,35,0
95280,note_on,0,0,2,,,,,,,,,,,,,,,0,,,51,49
95280,note_on,120,0,2,,,,,,,,,,,,,,,0,,,47,0
95400,note_on,0,0,2,,,,,,,,,,,,,,,0,,,54,48
95400,note_on,120,0,2,,,,,,,,,,,,,,,0,,,51,0
95520,note_on,0,0,2,,,,,,,,,,,,,,,0,,,40,53
95520,note_on,120,0,2,,,,,,,,,,,,,,,0,,,54,0
95520,note_on,0,0,1,,,,,,,,,,,,,,,0,,,79,64
95520,note_on,0,0,1,,,,,,,,,,,,,,,0,,,71,0
95520,note_on,0,0,1,,,,,,,,,,,,,,,0,,,75,0
95520,note_on,0,0,1,,,,,,,,,,,,,,,0,,,78,0
95520,note_on,0,0,1,,,,,,,,,,,,,,,0,,,67,53
95520,note_on,0,0,1,,,,,,,,,,,,,,,0,,,71,53
95520,note_on,0,0,1,,,,,,,,,,,,,,,0,,,76,53
95520,note_on,480,0,1,,,,,,,,,,,,,,,0,,,83,0
95531,control_change,11,0,2,,,,,,,,,,,,,,,0,64,0,,
95579,control_change,48,0,2,,,,,,,,,,,,,,,0,64,127,,
95640,note_on,0,0,2,,,,,,,,,,,,,,,0,,,47,46
95640,note_on,61,0,2,,,,,,,,,,,,,,,0,,,40,0
95760,note_on,0,0,2,,,,,,,,,,,,,,,0,,,52,46
95760,note_on,120,0,2,,,,,,,,,,,,,,,0,,,47,0
95880,note_on,120,0,2,,,,,,,,,,,,,,,0,,,52,0
95880,note_on,0,0,2,,,,,,,,,,,,,,,0,,,55,45
96000,note_on,0,0,1,,,,,,,,,,,,,,,0,,,66,55
96000,note_on,0,0,1,,,,,,,,,,,,,,,0,,,76,0
96000,note_on,0,0,1,,,,,,,,,,,,,,,0,,,71,0
96000,note_on,0,0,1,,,,,,,,,,,,,,,0,,,67,0
96000,note_on,480,0,1,,,,,,,,,,,,,,,0,,,79,0
96000,note_on,0,0,1,,,,,,,,,,,,,,,0,,,78,65
96000,note_on,120,0,2,,,,,,,,,,,,,,,0,,,55,0
96000,note_on,0,0,2,,,,,,,,,,,,,,,0,,,35,56
96000,note_on,0,0,1,,,,,,,,,,,,,,,0,,,71,55
96000,note_on,0,0,1,,,,,,,,,,,,,,,0,,,76,55
96000,set_tempo,960,1,0,,,,,,,,,,,,424028,,,,,,,
96010,control_change,10,0,2,,,,,,,,,,,,,,,0,64,0,,
96044,control_change,34,0,2,,,,,,,,,,,,,,,0,64,127,,
96120,note_on,0,0,2,,,,,,,,,,,,,,,0,,,47,48
96120,note_on,76,0,2,,,,,,,,,,,,,,,0,,,35,0
96240,note_on,0,0,2,,,,,,,,,,,,,,,0,,,52,48
96240,note_on,120,0,2,,,,,,,,,,,,,,,0,,,47,0
96360,note_on,120,0,2,,,,,,,,,,,,,,,0,,,52,0
96360,note_on,0,0,2,,,,,,,,,,,,,,,0,,,54,48
96480,note_on,120,0,2,,,,,,,,,,,,,,,0,,,54,0
96480,note_on,0,0,2,,,,,,,,,,,,,,,0,,,35,55
96480,note_on,0,0,1,,,,,,,,,,,,,,,0,,,78,63
96480,note_on,0,0,1,,,,,,,,,,,,,,,0,,,75,53
96480,note_on,480,0,1,,,,,,,,,,,,,,,0,,,78,0
96480,note_on,0,0,1,,,,,,,,,,,,,,,0,,,66,0
96480,note_on,0,0,1,,,,,,,,,,,,,,,0,,,71,0
96480,note_on,0,0,1,,,,,,,,,,,,,,,0,,,76,0
96480,note_on,0,0,1,,,,,,,,,,,,,,,0,,,66,53
96480,note_on,0,0,1,,,,,,,,,,,,,,,0,,,71,53
96490,control_change,10,0,2,,,,,,,,,,,,,,,0,64,0,,
96540,control_change,50,0,2,,,,,,,,,,,,,,,0,64,127,,
96600,note_on,60,0,2,,,,,,,,,,,,,,,0,,,35,0
96600,note_on,0,0,2,,,,,,,,,,,,,,,0,,,47,49
96720,note_on,120,0,2,,,,,,,,,,,,,,,0,,,47,0
96720,note_on,0,0,2,,,,,,,,,,,,,,,0,,,51,51
96840,note_on,0,0,2,,,,,,,,,,,,,,,0,,,54,48
96840,note_on,120,0,2,,,,,,,,,,,,,,,0,,,51,0
96960,note_on,0,0,1,,,,,,,,,,,,,,,0,,,71,52
96960,note_on,0,0,1,,,,,,,,,,,,,,,0,,,67,52
96960,note_on,0,0,1,,,,,,,,,,,,,,,0,,,75,0
96960,note_on,0,0,1,,,,,,,,,,,,,,,0,,,71,0
96960,note_on,0,0,1,,,,,,,,,,,,,,,0,,,66,0
96960,note_on,0,0,2,,,,,,,,,,,,,,,0,,,40,53
96960,set_tempo,960,1,0,,,,,,,,,,,,415225,,,,,,,
96960,note_on,0,0,1,,,,,,,,,,,,,,,0,,,79,62
96960,note_on,480,0,1,,,,,,,,,,,,,,,0,,,78,0
96960,note_on,120,0,2,,,,,,,,,,,,,,,0,,,54,0
96960,note_on,0,0,1,,,,,,,,,,,,,,,0,,,76,52
96970,control_change,10,0,2,,,,,,,,,,,,,,,0,64,0,,
97039,control_change,69,0,2,,,,,,,,,,,,,,,0,64,127,,
97080,note_on,41,0,2,,,,,,,,,,,,,,,0,,,40,0
97080,note_on,0,0,2,,,,,,,,,,,,,,,0,,,52,45
97200,note_on,0,0,2,,,,,,,,,,,,,,,0,,,55,45
97200,note_on,120,0,2,,,,,,,,,,,,,,,0,,,52,0
97320,note_on,0,0,2,,,,,,,,,,,,,,,0,,,59,45
97320,note_on,120,0,2,,,,,,,,,,,,,,,0,,,55,0
97440,note_on,0,0,2,,,,,,,,,,,,,,,0,,,64,49
97440,note_on,120,0,2,,,,,,,,,,,,,,,0,,,59,0
97560,note_on,0,0,2,,,,,,,,,,,,,,,0,,,59,42
97560,note_on,120,0,2,,,,,,,,,,,,,,,0,,,64,0
97680,note_on,0,0,2,,,,,,,,,,,,,,,0,,,55,42
97680,note_on,120,0,2,,,,,,,,,,,,,,,0,,,59,0
97800,note_on,120,0,2,,,,,,,,,,,,,,,0,,,55,0
97800,note_on,0,0,2,,,,,,,,,,,,,,,0,,,52,42
97920,note_on,0,0,1,,,,,,,,,,,,,,,0,,,80,64
97920,note_on,0,0,2,,,,,,,,,,,,,,,0,,,60,49
97920,note_on,120,0,2,,,,,,,,,,,,,,,0,,,52,0
97920,note_on,0,0,1,,,,,,,,,,,,,,,0,,,67,0
97920,set_tempo,960,1,0,,,,,,,,,,,,420521,,,,,,,
97920,note_on,960,0,1,,,,,,,,,,,,,,,0,,,79,0
97920,note_on,0,0,1,,,,,,,,,,,,,,,0,,,71,0
97920,note_on,0,0,1,,,,,,,,,,,,,,,0,,,76,0
97920,note_on,0,0,1,,,,,,,,,,,,,,,0,,,68,54
97920,control_change,0,0,2,,,,,,,,,,,,,,,0,64,0,,
97920,note_on,0,0,2,,,,,,,,,,,,,,,0,,,64,59
98010,note_on,90,0,1,,,,,,,,,,,,,,,0,,,80,0
98010,note_on,0,0,1,,,,,,,,,,,,,,,0,,,68,0
98010,note_on,0,0,2,,,,,,,,,,,,,,,0,,,60,0
98010,note_on,90,0,2,,,,,,,,,,,,,,,0,,,64,0
98160,note_on,0,0,2,,,,,,,,,,,,,,,0,,,62,56
98160,set_tempo,240,1,0,,,,,,,,,,,,408803,,,,,,,
98160,note_on,150,0,2,,,,,,,,,,,,,,,0,,,59,48
98250,note_on,90,0,2,,,,,,,,,,,,,,,0,,,62,0
98250,note_on,0,0,2,,,,,,,,,,,,,,,0,,,59,0
98400,note_on,150,0,2,,,,,,,,,,,,,,,0,,,57,48
98400,note_on,0,0,2,,,,,,,,,,,,,,,0,,,60,56
98400,set_tempo,240,1,0,,,,,,,,,,,,403172,,,,,,,
98400,note_on,0,0,1,,,,,,,,,,,,,,,0,,,81,68
98400,note_on,390,0,1,,,,,,,,,,,,,,,0,,,69,57
98490,note_on,90,0,2,,,,,,,,,,,,,,,0,,,60,0
98490,note_on,0,0,2,,,,,,,,,,,,,,,0,,,57,0
98640,note_on,150,0,2,,,,,,,,,,,,,,,0,,,52,48
98640,note_on,0,0,2,,,,,,,,,,,,,,,0,,,59,56
98730,note_on,90,0,2,,,,,,,,,,,,,,,0,,,59,0
98730,note_on,0,0,2,,,,,,,,,,,,,,,0,,,52,0
98880,note_on,0,0,2,,,,,,,,,,,,,,,0,,,57,60
98880,note_on,150,0,2,,,,,,,,,,,,,,,0,,,48,51
99120,note_on,0,0,1,,,,,,,,,,,,,,,0,,,69,0
99120,note_on,0,0,1,,,,,,,,,,,,,,,0,,,71,52
99120,note_on,0,0,1,,,,,,,,,,,,,,,0,,,83,61
99120,note_on,720,0,1,,,,,,,,,,,,,,,0,,,81,0
99120,set_tempo,720,1,0,,,,,,,,,,,,396380,,,,,,,
99210,note_on,0,0,1,,,,,,,,,,,,,,,0,,,71,0
99210,note_on,90,0,1,,,,,,,,,,,,,,,0,,,83,0
99360,note_on,150,0,1,,,,,,,,,,,,,,,0,,,72,51
99360,note_on,0,0,1,,,,,,,,,,,,,,,0,,,84,60
99450,note_on,0,0,1,,,,,,,,,,,,,,,0,,,72,0
99450,note_on,90,0,1,,,,,,,,,,,,,,,0,,,84,0
99600,note_on,0,0,1,,,,,,,,,,,,,,,0,,,83,61
99600,note_on,720,0,2,,,,,,,,,,,,,,,0,,,57,0
99600,note_on,0,0,2,,,,,,,,,,,,,,,0,,,48,0
99600,note_on,0,0,2,,,,,,,,,,,,,,,0,,,55,48
99600,note_on,0,0,2,,,,,,,,,,,,,,,0,,,65,57
99600,note_on,150,0,1,,,,,,,,,,,,,,,0,,,71,52
99690,note_on,0,0,2,,,,,,,,,,,,,,,0,,,55,0
99690,note_on,90,0,1,,,,,,,,,,,,,,,0,,,83,0
99690,note_on,0,0,1,,,,,,,,,,,,,,,0,,,71,0
99690,note_on,90,0,2,,,,,,,,,,,,,,,0,,,65,0
99840,note_on,150,0,1,,,,,,,,,,,,,,,0,,,70,54
99840,note_on,0,0,1,,,,,,,,,,,,,,,0,,,82,64
99840,set_tempo,720,1,0,,,,,,,,,,,,428204,,,,,,,
99840,note_on,0,0,2,,,,,,,,,,,,,,,0,,,66,59
99840,note_on,150,0,2,,,,,,,,,,,,,,,0,,,54,49
99930,note_on,90,0,1,,,,,,,,,,,,,,,0,,,82,0
99930,note_on,90,0,2,,,,,,,,,,,,,,,0,,,66,0
99930,note_on,0,0,2,,,,,,,,,,,,,,,0,,,54,0
99930,note_on,0,0,1,,,,,,,,,,,,,,,0,,,70,0
100080,note_on,150,0,2,,,,,,,,,,,,,,,0,,,61,48
100080,note_on,0,0,2,,,,,,,,,,,,,,,0,,,64,56
100080,set_tempo,240,1,0,,,,,,,,,,,,410228,,,,,,,
100170,note_on,0,0,2,,,,,,,,,,,,,,,0,,,61,0
100170,note_on,90,0,2,,,,,,,,,,,,,,,0,,,64,0
100320,note_on,0,0,2,,,,,,,,,,,,,,,0,,,62,56
100320,set_tempo,240,1,0,,,,,,,,,,,,403172,,,,,,,
100320,note_on,390,0,1,,,,,,,,,,,,,,,0,,,71,57
100320,note_on,0,0,1,,,,,,,,,,,,,,,0,,,83,68
100320,note_on,150,0,2,,,,,,,,,,,,,,,0,,,59,48
100410,note_on,90,0,2,,,,,,,,,,,,,,,0,,,62,0
100410,note_on,0,0,2,,,,,,,,,,,,,,,0,,,59,0
100560,note_on,150,0,2,,,,,,,,,,,,,,,0,,,54,48
100560,note_on,0,0,2,,,,,,,,,,,,,,,0,,,61,56
100650,note_on,90,0,2,,,,,,,,,,,,,,,0,,,61,0
100650,note_on,0,0,2,,,,,,,,,,,,,,,0,,,54,0
100800,note_on,0,0,2,,,,,,,,,,,,,,,0,,,59,60
100800,note_on,150,0,2,,,,,,,,,,,,,,,0,,,50,51
101040,note_on,0,0,1,,,,,,,,,,,,,,,0,,,85,61
101040,note_on,0,0,1,,,,,,,,,,,,,,,0,,,73,61
101040,note_on,0,0,1,,,,,,,,,,,,,,,0,,,71,0
101040,note_on,720,0,1,,,,,,,,,,,,,,,0,,,83,0
101040,set_tempo,720,1,0,,,,,,,,,,,,395049,,,,,,,
101130,note_on,0,0,1,,,,,,,,,,,,,,,0,,,73,0
101130,note_on,90,0,1,,,,,,,,,,,,,,,0,,,85,0
101280,note_on,150,0,1,,,,,,,,,,,,,,,0,,,74,51
101280,note_on,0,0,1,,,,,,,,,,,,,,,0,,,86,60
101370,note_on,90,0,1,,,,,,,,,,,,,,,0,,,86,0
101370,note_on,0,0,1,,,,,,,,,,,,,,,0,,,74,0
101520,note_on,150,0,1,,,,,,,,,,,,,,,0,,,76,52
101520,note_on,0,0,1,,,,,,,,,,,,,,,0,,,88,61
101520,note_on,720,0,2,,,,,,,,,,,,,,,0,,,59,0
101520,note_on,0,0,2,,,,,,,,,,,,,,,0,,,50,0
101520,note_on,0,0,2,,,,,,,,,,,,,,,0,,,48,48
101520,note_on,0,0,2,,,,,,,,,,,,,,,0,,,57,57
101610,note_on,90,0,1,,,,,,,,,,,,,,,0,,,88,0
101610,note_on,0,0,1,,,,,,,,,,,,,,,0,,,76,0
101610,note_on,90,0,2,,,,,,,,,,,,,,,0,,,57,0
101610,note_on,0,0,2,,,,,,,,,,,,,,,0,,,48,0
101760,set_tempo,720,1,0,,,,,,,,,,,,403172,,,,,,,
101760,note_on,0,0,2,,,,,,,,,,,,,,,0,,,56,59
101760,note_on,150,0,1,,,,,,,,,,,,,,,0,,,77,54
101760,note_on,0,0,1,,,,,,,,,,,,,,,0,,,89,64
101760,note_on,150,0,2,,,,,,,,,,,,,,,0,,,47,49
101850,note_on,90,0,2,,,,,,,,,,,,,,,0,,,56,0
101850,note_on,0,0,2,,,,,,,,,,,,,,,0,,,47,0
102000,note_on,0,0,2,,,,,,,,,,,,,,,0,,,59,55
102000,note_on,150,0,2,,,,,,,,,,,,,,,0,,,50,46
102090,note_on,0,0,2,,,,,,,,,,,,,,,0,,,50,0
102090,note_on,90,0,2,,,,,,,,,,,,,,,0,,,59,0
102240,note_on,0,0,2,,,,,,,,,,,,,,,0,,,56,59
102240,note_on,0,0,1,,,,,,,,,,,,,,,0,,,77,52
102240,note_on,480,0,1,,,,,,,,,,,,,,,0,,,89,0
102240,note_on,150,0,2,,,,,,,,,,,,,,,0,,,47,49
102240,note_on,0,0,1,,,,,,,,,,,,,,,0,,,89,61
102240,note_on,0,0,1,,,,,,,,,,,,,,,0,,,77,0
102330,note_on,90,0,2,,,,,,,,,,,,,,,0,,,56,0
102330,note_on,0,0,1,,,,,,,,,,,,,,,0,,,77,0
102330,note_on,90,0,1,,,,,,,,,,,,,,,0,,,89,0
102330,note_on,0,0,2,,,,,,,,,,,,,,,0,,,47,0
102480,set_tempo,720,1,0,,,,,,,,,,,,426651,,,,,,,
102480,note_on,0,0,1,,,,,,,,,,,,,,,0,,,89,61
102480,note_on,150,0,1,,,,,,,,,,,,,,,0,,,77,52
102480,note_on,150,0,2,,,,,,,,,,,,,,,0,,,50,44
102480,note_on,0,0,2,,,,,,,,,,,,,,,0,,,59,53
102570,note_on,0,0,1,,,,,,,,,,,,,,,0,,,77,0
102570,note_on,90,0,1,,,,,,,,,,,,,,,0,,,89,0
102570,note_on,0,0,2,,,,,,,,,,,,,,,0,,,50,0
102570,note_on,90,0,2,,,,,,,,,,,,,,,0,,,59,0
102720,set_tempo,240,1,0,,,,,,,,,,,,379747,,,,,,,
102720,note_on,0,0,1,,,,,,,,,,,,,,,0,,,80,77
102720,note_on,0,0,2,,,,,,,,,,,,,,,0,,,65,70
102720,note_on,150,0,2,,,,,,,,,,,,,,,0,,,62,59
102720,note_on,150,0,1,,,,,,,,,,,,,,,0,,,68,64
102810,note_on,90,0,1,,,,,,,,,,,,,,,0,,,80,0
102810,note_on,0,0,1,,,,,,,,,,,,,,,0,,,68,0
102810,note_on,0,0,2,,,,,,,,,,,,,,,0,,,62,0
102810,note_on,90,0,2,,,,,,,,,,,,,,,0,,,65,0
102960,note_on,150,0,2,,,,,,,,,,,,,,,0,,,62,57
102960,set_tempo,240,1,0,,,,,,,,,,,,419580,,,,,,,
102960,note_on,150,0,1,,,,,,,,,,,,,,,0,,,71,57
102960,note_on,0,0,2,,,,,,,,,,,,,,,0,,,65,68
102960,note_on,0,0,1,,,,,,,,,,,,,,,0,,,83,67
103050,note_on,90,0,1,,,,,,,,,,,,,,,0,,,83,0
103050,note_on,0,0,1,,,,,,,,,,,,,,,0,,,71,0
103200,note_on,0,0,1,,,,,,,,,,,,,,,0,,,80,67
103200,note_on,150,0,1,,,,,,,,,,,,,,,0,,,68,57
103200,set_tempo,240,1,0,,,,,,,,,,,,403172,,,,,,,
103290,note_on,0,0,1,,,,,,,,,,,,,,,0,,,68,0
103290,note_on,90,0,1,,,,,,,,,,,,,,,0,,,80,0
103440,note_on,0,0,1,,,,,,,,,,,,,,,0,,,83,67
103440,note_on,150,0,1,,,,,,,,,,,,,,,0,,,71,57
103530,note_on,0,0,1,,,,,,,,,,,,,,,0,,,71,0
103530,note_on,90,0,1,,,,,,,,,,,,,,,0,,,83,0
103680,note_on,720,0,2,,,,,,,,,,,,,,,0,,,65,0
103680,note_on,0,0,1,,,,,,,,,,,,,,,0,,,88,64
103680,note_on,150,0,1,,,,,,,,,,,,,,,0,,,76,54
103680,note_on,0,0,2,,,,,,,,,,,,,,,0,,,62,0
103680,note_on,0,0,2,,,,,,,,,,,,,,,0,,,55,59
103680,note_on,0,0,2,,,,,,,,,,,,,,,0,,,46,49
103770,note_on,0,0,2,,,,,,,,,,,,,,,0,,,46,0
103770,note_on,90,0,2,,,,,,,,,,,,,,,0,,,55,0
103920,note_on,0,0,2,,,,,,,,,,,,,,,0,,,58,55
103920,note_on,150,0,2,,,,,,,,,,,,,,,0,,,49,46
104010,note_on,0,0,2,,,,,,,,,,,,,,,0,,,49,0
104010,note_on,90,0,2,,,,,,,,,,,,,,,0,,,58,0
104160,note_on,0,0,1,,,,,,,,,,,,,,,0,,,88,61
104160,note_on,0,0,1,,,,,,,,,,,,,,,0,,,76,52
104160,note_on,0,0,1,,,,,,,,,,,,,,,0,,,76,0
104160,note_on,480,0,1,,,,,,,,,,,,,,,0,,,88,0
104160,note_on,150,0,2,,,,,,,,,,,,,,,0,,,46,49
104160,note_on,0,0,2,,,,,,,,,,,,,,,0,,,55,59
104250,note_on,0,0,1,,,,,,,,,,,,,,,0,,,76,0
104250,note_on,0,0,2,,,,,,,,,,,,,,,0,,,46,0
104250,note_on,90,0,1,,,,,,,,,,,,,,,0,,,88,0
104250,note_on,90,0,2,,,,,,,,,,,,,,,0,,,55,0
104400,note_on,150,0,1,,,,,,,,,,,,,,,0,,,76,52
104400,note_on,150,0,2,,,,,,,,,,,,,,,0,,,49,44
104400,note_on,0,0,1,,,,,,,,,,,,,,,0,,,88,62
104400,note_on,0,0,2,,,,,,,,,,,,,,,0,,,58,53
104400,set_tempo,1200,1,0,,,,,,,,,,,,429769,,,,,,,
104490,note_on,90,0,2,,,,,,,,,,,,,,,0,,,58,0
104490,note_on,90,0,1,,,,,,,,,,,,,,,0,,,88,0
104490,note_on,0,0,2,,,,,,,,,,,,,,,0,,,49,0
104490,note_on,0,0,1,,,,,,,,,,,,,,,0,,,76,0
104640,note_on,0,0,2,,,,,,,,,,,,,,,0,,,64,70
104640,note_on,150,0,2,,,,,,,,,,,,,,,0,,,61,59
104640,set_tempo,240,1,0,,,,,,,,,,,,382166,,,,,,,
104640,note_on,150,0,1,,,,,,,,,,,,,,,0,,,67,61
104640,note_on,0,0,1,,,,,,,,,,,,,,,0,,,79,73
104730,note_on,90,0,1,,,,,,,,,,,,,,,0,,,79,0
104730,note_on,0,0,2,,,,,,,,,,,,,,,0,,,61,0
104730,note_on,90,0,2,,,,,,,,,,,,,,,0,,,64,0
104730,note_on,0,0,1,,,,,,,,,,,,,,,0,,,67,0
104880,note_on,0,0,1,,,,,,,,,,,,,,,0,,,82,67
104880,note_on,150,0,1,,,,,,,,,,,,,,,0,,,70,56
104880,note_on,150,0,2,,,,,,,,,,,,,,,0,,,61,56
104880,set_tempo,240,1,0,,,,,,,,,,,,419580,,,,,,,
104880,note_on,0,0,2,,,,,,,,,,,,,,,0,,,64,67
104970,note_on,90,0,1,,,,,,,,,,,,,,,0,,,82,0
104970,note_on,0,0,1,,,,,,,,,,,,,,,0,,,70,0
105120,note_on,150,0,1,,,,,,,,,,,,,,,0,,,67,56
105120,set_tempo,240,1,0,,,,,,,,,,,,403172,,,,,,,
105120,note_on,0,0,1,,,,,,,,,,,,,,,0,,,79,67
105210,note_on,0,0,1,,,,,,,,,,,,,,,0,,,67,0
105210,note_on,90,0,1,,,,,,,,,,,,,,,0,,,79,0
105360,note_on,150,0,1,,,,,,,,,,,,,,,0,,,70,57
105360,note_on,0,0,1,,,,,,,,,,,,,,,0,,,82,68
105450,note_on,90,0,1,,,,,,,,,,,,,,,0,,,82,0
105450,note_on,0,0,1,,,,,,,,,,,,,,,0,,,70,0
105600,note_on,150,0,1,,,,,,,,,,,,,,,0,,,75,54
105600,note_on,0,0,1,,,,,,,,,,,,,,,0,,,87,64
105600,set_tempo,480,1,0,,,,,,,,,,,,404585,,,,,,,
105600,note_on,720,0,2,,,,,,,,,,,,,,,0,,,64,0
105600,note_on,0,0,2,,,,,,,,,,,,,,,0,,,61,0
105600,note_on,0,0,2,,,,,,,,,,,,,,,0,,,45,49
105600,note_on,0,0,2,,,,,,,,,,,,,,,0,,,54,59
105690,note_on,90,0,2,,,,,,,,,,,,,,,0,,,54,0
105690,note_on,0,0,2,,,,,,,,,,,,,,,0,,,45,0
105840,note_on,150,0,2,,,,,,,,,,,,,,,0,,,48,46
105840,note_on,0,0,2,,,,,,,,,,,,,,,0,,,57,55
105930,note_on,90,0,2,,,,,,,,,,,,,,,0,,,57,0
105930,note_on,0,0,2,,,,,,,,,,,,,,,0,,,48,0
106080,note_on,0,0,1,,,,,,,,,,,,,,,0,,,78,61
106080,note_on,480,0,1,,,,,,,,,,,,,,,0,,,87,0
106080,note_on,150,0,2,,,,,,,,,,,,,,,0,,,60,52
106080,note_on,0,0,2,,,,,,,,,,,,,,,0,,,63,59
106080,note_on,0,0,1,,,,,,,,,,,,,,,0,,,66,52
106080,set_tempo,480,1,0,,,,,,,,,,,,397720,,,,,,,
106080,note_on,0,0,1,,,,,,,,,,,,,,,0,,,75,0
106170,note_on,0,0,1,,,,,,,,,,,,,,,0,,,66,0
106170,note_on,90,0,1,,,,,,,,,,,,,,,0,,,78,0
106320,set_tempo,240,1,0,,,,,,,,,,,,410228,,,,,,,
106320,note_on,0,0,1,,,,,,,,,,,,,,,0,,,81,62
106320,note_on,150,0,1,,,,,,,,,,,,,,,0,,,69,52
106410,note_on,0,0,1,,,,,,,,,,,,,,,0,,,69,0
106410,note_on,90,0,1,,,,,,,,,,,,,,,0,,,81,0
106560,set_tempo,240,1,0,,,,,,,,,,,,404585,,,,,,,
106560,note_on,0,0,2,,,,,,,,,,,,,,,0,,,44,49
106560,note_on,0,0,2,,,,,,,,,,,,,,,0,,,53,59
106560,note_on,480,0,2,,,,,,,,,,,,,,,0,,,63,0
106560,note_on,0,0,1,,,,,,,,,,,,,,,0,,,86,64
106560,note_on,0,0,2,,,,,,,,,,,,,,,0,,,60,0
106560,note_on,150,0,1,,,,,,,,,,,,,,,0,,,74,54
106650,note_on,90,0,2,,,,,,,,,,,,,,,0,,,53,0
106650,note_on,0,0,2,,,,,,,,,,,,,,,0,,,44,0
106800,note_on,150,0,2,,,,,,,,,,,,,,,0,,,47,46
106800,note_on,0,0,2,,,,,,,,,,,,,,,0,,,56,55
106890,note_on,90,0,2,,,,,,,,,,,,,,,0,,,56,0
106890,note_on,0,0,2,,,,,,,,,,,,,,,0,,,47,0
107040,note_on,0,0,1,,,,,,,,,,,,,,,0,,,77,61
107040,note_on,0,0,1,,,,,,,,,,,,,,,0,,,65,52
107040,note_on,0,0,1,,,,,,,,,,,,,,,0,,,74,0
107040,set_tempo,480,1,0,,,,,,,,,,,,408163,,,,,,,
107040,note_on,480,0,1,,,,,,,,,,,,,,,0,,,86,0
107040,note_on,150,0,2,,,,,,,,,,,,,,,0,,,59,52
107040,note_on,0,0,2,,,,,,,,,,,,,,,0,,,62,59
107130,note_on,0,0,1,,,,,,,,,,,,,,,0,,,65,0
107130,note_on,90,0,1,,,,,,,,,,,,,,,0,,,77,0
107280,set_tempo,240,1,0,,,,,,,,,,,,421053,,,,,,,
107280,note_on,150,0,1,,,,,,,,,,,,,,,0,,,68,52
107280,note_on,0,0,1,,,,,,,,,,,,,,,0,,,80,62
107370,note_on,0,0,1,,,,,,,,,,,,,,,0,,,68,0
107370,note_on,90,0,1,,,,,,,,,,,,,,,0,,,80,0
107520,note_on,0,0,2,,,,,,,,,,,,,,,0,,,43,46
107520,note_on,0,0,2,,,,,,,,,,,,,,,0,,,59,0
107520,note_on,480,0,2,,,,,,,,,,,,,,,0,,,62,0
107520,set_tempo,240,1,0,,,,,,,,,,,,413793,,,,,,,
107520,note_on,150,0,1,,,,,,,,,,,,,,,0,,,73,51
107520,note_on,0,0,1,,,,,,,,,,,,,,,0,,,85,60
107520,note_on,0,0,2,,,,,,,,,,,,,,,0,,,52,56
107610,note_on,0,0,2,,,,,,,,,,,,,,,0,,,43,0
107610,note_on,90,0,2,,,,,,,,,,,,,,,0,,,52,0
107760,note_on,150,0,2,,,,,,,,,,,,,,,0,,,46,43
107760,note_on,0,0,2,,,,,,,,,,,,,,,0,,,55,51
107850,note_on,0,0,2,,,,,,,,,,,,,,,0,,,46,0
107850,note_on,90,0,2,,,,,,,,,,,,,,,0,,,55,0
108000,note_on,0,0,1,,,,,,,,,,,,,,,0,,,76,56
108000,note_on,0,0,1,,,,,,,,,,,,,,,0,,,64,47
108000,note_on,0,0,1,,,,,,,,,,,,,,,0,,,73,0
108000,note_on,480,0,1,,,,,,,,,,,,,,,0,,,85,0
108000,note_on,150,0,2,,,,,,,,,,,,,,,0,,,58,47
108000,note_on,0,0,2,,,,,,,,,,,,,,,0,,,61,54
108000,set_tempo,480,1,0,,,,,,,,,,,,421053,,,,,,,
108090,note_on,90,0,1,,,,,,,,,,,,,,,0,,,76,0
108090,note_on,0,0,1,,,,,,,,,,,,,,,0,,,64,0
108240,set_tempo,240,1,0,,,,,,,,,,,,436364,,,,,,,
108240,note_on,150,0,1,,,,,,,,,,,,,,,0,,,67,46
108240,note_on,0,0,1,,,,,,,,,,,,,,,0,,,79,55
108330,note_on,0,0,1,,,,,,,,,,,,,,,0,,,67,0
108330,note_on,90,0,1,,,,,,,,,,,,,,,0,,,79,0
108480,set_tempo,240,1,0,,,,,,,,,,,,425532,,,,,,,
108480,note_on,150,0,1,,,,,,,,,,,,,,,0,,,72,47
108480,note_on,0,0,2,,,,,,,,,,,,,,,0,,,51,51
108480,note_on,0,0,1,,,,,,,,,,,,,,,0,,,84,56
108480,note_on,0,0,2,,,,,,,,,,,,,,,0,,,42,43
108480,note_on,0,0,2,,,,,,,,,,,,,,,0,,,58,0
108480,note_on,480,0,2,,,,,,,,,,,,,,,0,,,61,0
108570,note_on,0,0,2,,,,,,,,,,,,,,,0,,,42,0
108570,note_on,90,0,2,,,,,,,,,,,,,,,0,,,51,0
108720,note_on,150,0,2,,,,,,,,,,,,,,,0,,,45,39
108720,note_on,0,0,2,,,,,,,,,,,,,,,0,,,54,47
108810,note_on,0,0,2,,,,,,,,,,,,,,,0,,,45,0
108810,note_on,90,0,2,,,,,,,,,,,,,,,0,,,54,0
108960,set_tempo,480,1,0,,,,,,,,,,,,447761,,,,,,,
108960,note_on,0,0,2,,,,,,,,,,,,,,,0,,,60,49
108960,note_on,150,0,2,,,,,,,,,,,,,,,0,,,57,43
108960,note_on,480,0,1,,,,,,,,,,,,,,,0,,,84,0
108960,note_on,0,0,1,,,,,,,,,,,,,,,0,,,72,0
108960,note_on,0,0,1,,,,,,,,,,,,,,,0,,,63,43
108960,note_on,0,0,1,,,,,,,,,,,,,,,0,,,75,51
109050,note_on,90,0,1,,,,,,,,,,,,,,,0,,,75,0
109050,note_on,0,0,1,,,,,,,,,,,,,,,0,,,63,0
109200,note_on,0,0,1,,,,,,,,,,,,,,,0,,,78,50
109200,note_on,150,0,1,,,,,,,,,,,,,,,0,,,66,42
109200,set_tempo,240,1,0,,,,,,,,,,,,476190,,,,,,,
109290,note_on,0,0,1,,,,,,,,,,,,,,,0,,,66,0
109290,note_on,90,0,1,,,,,,,,,,,,,,,0,,,78,0
109440,note_on,150,0,1,,,,,,,,,,,,,,,0,,,60,35
109440,note_on,480,0,2,,,,,,,,,,,,,,,0,,,60,0
109440,set_tempo,240,1,0,,,,,,,,,,,,425532,,,,,,,
109440,note_on,0,0,2,,,,,,,,,,,,,,,0,,,32,38
109440,note_on,0,0,2,,,,,,,,,,,,,,,0,,,57,0
109440,note_on,0,0,1,,,,,,,,,,,,,,,0,,,66,42
109491,control_change,51,0,2,,,,,,,,,,,,,,,0,64,127,,
109560,note_on,0,0,1,,,,,,,,,,,,,,,0,,,72,38
109560,note_on,0,0,1,,,,,,,,,,,,,,,0,,,60,0
109560,note_on,120,0,1,,,,,,,,,,,,,,,0,,,66,0
109560,note_on,69,0,2,,,,,,,,,,,,,,,0,,,32,0
109560,note_on,0,0,2,,,,,,,,,,,,,,,0,,,44,36
109680,note_on,0,0,2,,,,,,,,,,,,,,,0,,,32,39
109680,note_on,120,0,2,,,,,,,,,,,,,,,0,,,44,0
109680,note_on,120,0,1,,,,,,,,,,,,,,,0,,,72,0
109680,note_on,0,0,1,,,,,,,,,,,,,,,0,,,60,35
109680,note_on,0,0,1,,,,,,,,,,,,,,,0,,,66,42
109720,set_tempo,280,1,0,,,,,,,,,,,,424028,,,,,,,
109800,note_on,0,0,1,,,,,,,,,,,,,,,0,,,72,40
109800,note_on,0,0,1,,,,,,,,,,,,,,,0,,,60,0
109800,note_on,120,0,1,,,,,,,,,,,,,,,0,,,66,0
109800,note_on,0,0,2,,,,,,,,,,,,,,,0,,,44,36
109800,note_on,120,0,2,,,,,,,,,,,,,,,0,,,32,0
109920,note_on,0,0,1,,,,,,,,,,,,,,,0,,,60,38
109920,note_on,120,0,2,,,,,,,,,,,,,,,0,,,44,0
109920,note_on,120,0,1,,,,,,,,,,,,,,,0,,,72,0
109920,note_on,0,0,1,,,,,,,,,,,,,,,0,,,66,45
109920,note_on,0,0,2,,,,,,,,,,,,,,,0,,,32,41
109960,set_tempo,240,1,0,,,,,,,,,,,,422535,,,,,,,
110040,note_on,120,0,1,,,,,,,,,,,,,,,0,,,66,0
110040,note_on,0,0,1,,,,,,,,,,,,,,,0,,,60,0
110040,note_on,0,0,1,,,,,,,,,,,,,,,0,,,72,41
110040,note_on,120,0,2,,,,,,,,,,,,,,,0,,,32,0
110040,note_on,0,0,2,,,,,,,,,,,,,,,0,,,44,38
110160,note_on,120,0,2,,,,,,,,,,,,,,,0,,,44,0
110160,note_on,0,0,1,,,,,,,,,,,,,,,0,,,60,40
110160,note_on,0,0,2,,,,,,,,,,,,,,,0,,,32,42
110160,note_on,0,0,1,,,,,,,,,,,,,,,0,,,66,47
110160,note_on,120,0,1,,,,,,,,,,,,,,,0,,,72,0
110240,set_tempo,280,1,0,,,,,,,,,,,,421053,,,,,,,
110280,note_on,0,0,1,,,,,,,,,,,,,,,0,,,72,43
110280,note_on,0,0,1,,,,,,,,,,,,,,,0,,,60,0
110280,note_on,120,0,1,,,,,,,,,,,,,,,0,,,66,0
110280,note_on,120,0,2,,,,,,,,,,,,,,,0,,,32,0
110280,note_on,0,0,2,,,,,,,,,,,,,,,0,,,44,39
110400,note_on,0,0,1,,,,,,,,,,,,,,,0,,,60,41
110400,note_on,120,0,1,,,,,,,,,,,,,,,0,,,72,0
110400,note_on,120,0,2,,,,,,,,,,,,,,,0,,,44,0
110400,note_on,0,0,2,,,,,,,,,,,,,,,0,,,32,44
110400,note_on,0,0,1,,,,,,,,,,,,,,,0,,,66,49
110480,set_tempo,240,1,0,,,,,,,,,,,,419580,,,,,,,
110520,note_on,120,0,2,,,,,,,,,,,,,,,0,,,32,0
110520,note_on,0,0,2,,,,,,,,,,,,,,,0,,,44,41
110520,note_on,120,0,1,,,,,,,,,,,,,,,0,,,66,0
110520,note_on,0,0,1,,,,,,,,,,,,,,,0,,,60,0
110520,note_on,0,0,1,,,,,,,,,,,,,,,0,,,72,45
110640,note_on,120,0,1,,,,,,,,,,,,,,,0,,,72,0
110640,note_on,0,0,2,,,,,,,,,,,,,,,0,,,32,45
110640,note_on,120,0,2,,,,,,,,,,,,,,,0,,,44,0
110640,note_on,0,0,1,,,,,,,,,,,,,,,0,,,60,43
110640,note_on,0,0,1,,,,,,,,,,,,,,,0,,,66,51
110720,set_tempo,240,1,0,,,,,,,,,,,,418118,,,,,,,
110760,note_on,0,0,2,,,,,,,,,,,,,,,0,,,44,44
110760,note_on,120,0,2,,,,,,,,,,,,,,,0,,,32,0
110760,note_on,0,0,1,,,,,,,,,,,,,,,0,,,60,0
110760,note_on,0,0,1,,,,,,,,,,,,,,,0,,,72,46
110760,note_on,120,0,1,,,,,,,,,,,,,,,0,,,66,0
110880,note_on,0,0,1,,,,,,,,,,,,,,,0,,,66,52
110880,note_on,0,0,1,,,,,,,,,,,,,,,0,,,60,43
110880,note_on,120,0,1,,,,,,,,,,,,,,,0,,,72,0
110880,note_on,0,0,2,,,,,,,,,,,,,,,0,,,32,47
110880,note_on,120,0,2,,,,,,,,,,,,,,,0,,,44,0
111000,note_on,0,0,1,,,,,,,,,,,,,,,0,,,72,48
111000,note_on,0,0,1,,,,,,,,,,,,,,,0,,,60,0
111000,note_on,120,0,1,,,,,,,,,,,,,,,0,,,66,0
111000,note_on,0,0,2,,,,,,,,,,,,,,,0,,,44,44
111000,note_on,120,0,2,,,,,,,,,,,,,,,0,,,32,0
111000,set_tempo,280,1,0,,,,,,,,,,,,416667,,,,,,,
111120,note_on,0,0,1,,,,,,,,,,,,,,,0,,,60,45
111120,note_on,120,0,1,,,,,,,,,,,,,,,0,,,72,0
111120,note_on,0,0,2,,,,,,,,,,,,,,,0,,,32,48
111120,note_on,120,0,2,,,,,,,,,,,,,,,0,,,44,0
111120,note_on,0,0,1,,,,,,,,,,,,,,,0,,,66,53
111240,note_on,0,0,2,,,,,,,,,,,,,,,0,,,44,47
111240,note_on,120,0,2,,,,,,,,,,,,,,,0,,,32,0
111240,note_on,0,0,1,,,,,,,,,,,,,,,0,,,72,52
111240,note_on,0,0,1,,,,,,,,,,,,,,,0,,,60,0
111240,note_on,120,0,1,,,,,,,,,,,,,,,0,,,66,0
111240,set_tempo,240,1,0,,,,,,,,,,,,413793,,,,,,,
111360,note_on,0,0,1,,,,,,,,,,,,,,,0,,,78,61
111360,note_on,0,0,2,,,,,,,,,,,,,,,0,,,45,56
111360,control_change,0,0,2,,,,,,,,,,,,,,,0,64,0,,
111360,note_on,120,0,2,,,,,,,,,,,,,,,0,,,44,0
111360,note_on,0,0,1,,,,,,,,,,,,,,,0,,,72,51
111360,note_on,120,0,1,,,,,,,,,,,,,,,0,,,72,0
111411,control_change,51,0,2,,,,,,,,,,,,,,,0,64,127,,
111480,note_on,0,0,2,,,,,,,,,,,,,,,0,,,46,53
111480,note_on,69,0,2,,,,,,,,,,,,,,,0,,,45,0
111480,note_on,0,0,1,,,,,,,,,,,,,,,0,,,72,0
111480,note_on,0,0,1,,,,,,,,,,,,,,,0,,,84,56
111480,note_on,120,0,1,,,,,,,,,,,,,,,0,,,78,0
111480,set_tempo,240,1,0,,,,,,,,,,,,412371,,,,,,,
111600,note_on,120,0,1,,,,,,,,,,,,,,,0,,,84,0
111600,note_on,120,0,2,,,,,,,,,,,,,,,0,,,46,0
111600,note_on,0,0,1,,,,,,,,,,,,,,,0,,,78,62
111600,note_on,0,0,2,,,,,,,,,,,,,,,0,,,47,54
111600,note_on,0,0,1,,,,,,,,,,,,,,,0,,,72,52
111720,note_on,120,0,1,,,,,,,,,,,,,,,0,,,78,0
111720,note_on,0,0,1,,,,,,,,,,,,,,,0,,,84,59
111720,set_tempo,240,1,0,,,,,,,,,,,,410959,,,,,,,
111720,note_on,0,0,1,,,,,,,,,,,,,,,0,,,72,0
111720,note_on,120,0,2,,,,,,,,,,,,,,,0,,,47,0
111720,note_on,0,0,2,,,,,,,,,,,,,,,0,,,48,55
111840,note_on,0,0,1,,,,,,,,,,,,,,,0,,,72,56
111840,note_on,0,0,1,,,,,,,,,,,,,,,0,,,78,67
111840,note_on,120,0,2,,,,,,,,,,,,,,,0,,,48,0
111840,note_on,0,0,2,,,,,,,,,,,,,,,0,,,49,57
111840,note_on,120,0,1,,,,,,,,,,,,,,,0,,,84,0
111960,note_on,120,0,1,,,,,,,,,,,,,,,0,,,78,0
111960,set_tempo,240,1,0,,,,,,,,,,,,409556,,,,,,,
111960,note_on,0,0,1,,,,,,,,,,,,,,,0,,,84,62
111960,note_on,0,0,1,,,,,,,,,,,,,,,0,,,72,0
111960,note_on,120,0,2,,,,,,,,,,,,,,,0,,,49,0
111960,note_on,0,0,2,,,,,,,,,,,,,,,0,,,50,59
112080,note_on,0,0,1,,,,,,,,,,,,,,,0,,,78,70
112080,note_on,0,0,1,,,,,,,,,,,,,,,0,,,72,59
112080,note_on,120,0,1,,,,,,,,,,,,,,,0,,,84,0
112080,note_on,120,0,2,,,,,,,,,,,,,,,0,,,50,0
112080,note_on,0,0,2,,,,,,,,,,,,,,,0,,,51,60
112200,note_on,0,0,1,,,,,,,,,,,,,,,0,,,72,0
112200,set_tempo,240,1,0,,,,,,,,,,,,408163,,,,,,,
112200,note_on,0,0,1,,,,,,,,,,,,,,,0,,,84,66
112200,note_on,120,0,2,,,,,,,,,,,,,,,0,,,51,0
112200,note_on,0,0,2,,,,,,,,,,,,,,,0,,,52,61
112200,note_on,120,0,1,,,,,,,,,,,,,,,0,,,78,0
112320,note_on,0,0,2,,,,,,,,,,,,,,,0,,,53,63
112320,note_on,120,0,2,,,,,,,,,,,,,,,0,,,52,0
112320,note_on,0,0,1,,,,,,,,,,,,,,,0,,,78,74
112320,note_on,0,0,1,,,,,,,,,,,,,,,0,,,72,62
112320,note_on,120,0,1,,,,,,,,,,,,,,,0,,,84,0
112440,note_on,120,0,2,,,,,,,,,,,,,,,0,,,53,0
112440,set_tempo,240,1,0,,,,,,,,,,,,406780,,,,,,,
112440,note_on,0,0,2,,,,,,,,,,,,,,,0,,,54,65
112440,note_on,0,0,1,,,,,,,,,,,,,,,0,,,84,69
112440,note_on,0,0,1,,,,,,,,,,,,,,,0,,,72,0
112440,note_on,120,0,1,,,,,,,,,,,,,,,0,,,78,0
112560,note_on,0,0,1,,,,,,,,,,,,,,,0,,,78,76
112560,note_on,0,0,1,,,,,,,,,,,,,,,0,,,72,64
112560,note_on,120,0,1,,,,,,,,,,,,,,,0,,,84,0
112560,note_on,120,0,2,,,,,,,,,,,,,,,0,,,54,0
112560,note_on,0,0,2,,,,,,,,,,,,,,,0,,,55,67
112680,note_on,0,0,1,,,,,,,,,,,,,,,0,,,72,0
112680,note_on,0,0,1,,,,,,,,,,,,,,,0,,,84,70
112680,note_on,120,0,1,,,,,,,,,,,,,,,0,,,78,0
112680,note_on,120,0,2,,,,,,,,,,,,,,,0,,,55,0
112680,note_on,0,0,2,,,,,,,,,,,,,,,0,,,56,68
112680,set_tempo,240,1,0,,,,,,,,,,,,405405,,,,,,,
112777,control_change,97,0,2,,,,,,,,,,,,,,,0,64,0,,
112800,note_on,0,0,1,,,,,,,,,,,,,,,0,,,78,66
112800,note_on,23,0,2,,,,,,,,,,,,,,,0,,,56,0
112800,note_on,120,0,1,,,,,,,,,,,,,,,0,,,84,0
112800,note_on,0,0,1,,,,,,,,,,,,,,,0,,,72,66
112800,note_on,0,0,2,,,,,,,,,,,,,,,0,,,56,72
112800,note_on,0,0,2,,,,,,,,,,,,,,,0,,,44,61
112800,note_on,0,0,1,,,,,,,,,,,,,,,0,,,84,78
112880,set_tempo,200,1,0,,,,,,,,,,,,404040,,,,,,,
112920,note_on,120,0,2,,,,,,,,,,,,,,,0,,,56,0
112920,note_on,120,0,1,,,,,,,,,,,,,,,0,,,78,0
112920,note_on,0,0,1,,,,,,,,,,,,,,,0,,,72,0
112920,note_on,0,0,1,,,,,,,,,,,,,,,0,,,84,0
112920,note_on,0,0,2,,,,,,,,,,,,,,,0,,,44,0
113040,note_on,0,0,2,,,,,,,,,,,,,,,0,,,56,73
113040,note_on,0,0,1,,,,,,,,,,,,,,,0,,,78,65
113040,note_on,120,0,2,,,,,,,,,,,,,,,0,,,44,62
113040,note_on,120,0,1,,,,,,,,,,,,,,,0,,,84,77
113040,note_on,0,0,1,,,,,,,,,,,,,,,0,,,72,65
113160,set_tempo,280,1,0,,,,,,,,,,,,401338,,,,,,,
113160,note_on,120,0,1,,,,,,,,,,,,,,,0,,,78,0
113160,note_on,120,0,2,,,,,,,,,,,,,,,0,,,56,0
113160,note_on,0,0,1,,,,,,,,,,,,,,,0,,,84,0
113160,note_on,0,0,2,,,,,,,,,,,,,,,0,,,44,0
113160,note_on,0,0,1,,,,,,,,,,,,,,,0,,,72,0
113280,note_on,0,0,2,,,,,,,,,,,,,,,0,,,56,75
113280,note_on,120,0,1,,,,,,,,,,,,,,,0,,,72,75
113280,note_on,0,0,1,,,,,,,,,,,,,,,0,,,78,75
113280,set_tempo,120,1,0,,,,,,,,,,,,400000,,,,,,,
113280,note_on,120,0,2,,,,,,,,,,,,,,,0,,,44,63
113280,note_on,0,0,1,,,,,,,,,,,,,,,0,,,84,89
113400,note_on,0,0,1,,,,,,,,,,,,,,,0,,,78,0
113400,set_tempo,120,1,0,,,,,,,,,,,,398671,,,,,,,
113400,note_on,120,0,2,,,,,,,,,,,,,,,0,,,56,0
113400,note_on,120,0,1,,,,,,,,,,,,,,,0,,,84,0
113400,note_on,0,0,1,,,,,,,,,,,,,,,0,,,72,0
113400,note_on,0,0,2,,,,,,,,,,,,,,,0,,,44,0
113520,note_on,120,0,2,,,,,,,,,,,,,,,0,,,56,65
113520,note_on,0,0,1,,,,,,,,,,,,,,,0,,,86,90
113520,note_on,0,0,1,,,,,,,,,,,,,,,0,,,84,90
113520,note_on,0,0,1,,,,,,,,,,,,,,,0,,,78,76
113520,note_on,0,0,2,,,,,,,,,,,,,,,0,,,68,77
113520,set_tempo,120,1,0,,,,,,,,,,,,397351,,,,,,,
113520,note_on,120,0,1,,,,,,,,,,,,,,,0,,,74,76
113531,control_change,11,0,2,,,,,,,,,,,,,,,0,64,127,,
113640,set_tempo,120,1,0,,,,,,,,,,,,396040,,,,,,,
113720,set_tempo,80,1,0,,,,,,,,,,,,394737,,,,,,,
113760,note_on,0,0,1,,,,,,,,,,,,,,,0,,,74,78
113760,note_on,0,0,2,,,,,,,,,,,,,,,0,,,68,80
113760,note_on,0,0,2,,,,,,,,,,,,,,,0,,,56,68
113760,note_on,0,0,2,,,,,,,,,,,,,,,0,,,56,0
113760,note_on,229,0,2,,,,,,,,,,,,,,,0,,,68,0
113760,note_on,240,0,1,,,,,,,,,,,,,,,0,,,86,0
113760,note_on,0,0,1,,,,,,,,,,,,,,,0,,,74,0
113760,note_on,0,0,1,,,,,,,,,,,,,,,0,,,78,0
113760,note_on,0,0,1,,,,,,,,,,,,,,,0,,,84,0
113760,note_on,0,0,1,,,,,,,,,,,,,,,0,,,78,78
113760,note_on,0,0,1,,,,,,,,,,,,,,,0,,,86,92
113760,note_on,0,0,1,,,,,,,,,,,,,,,0,,,84,92
114000,note_on,0,0,1,,,,,,,,,,,,,,,0,,,74,80
114000,note_on,0,0,1,,,,,,,,,,,,,,,0,,,84,0
114000,note_on,0,0,1,,,,,,,,,,,,,,,0,,,78,0
114000,note_on,0,0,1,,,,,,,,,,,,,,,0,,,74,0
114000,note_on,240,0,1,,,,,,,,,,,,,,,0,,,86,0
114000,note_on,0,0,2,,,,,,,,,,,,,,,0,,,56,70
114000,note_on,0,0,1,,,,,,,,,,,,,,,0,,,86,94
114000,note_on,0,0,1,,,,,,,,,,,,,,,0,,,78,80
114000,note_on,0,0,1,,,,,,,,,,,,,,,0,,,84,94
114000,note_on,0,0,2,,,,,,,,,,,,,,,0,,,56,0
114000,note_on,0,0,2,,,,,,,,,,,,,,,0,,,68,83
114000,note_on,240,0,2,,,,,,,,,,,,,,,0,,,68,0
114240,note_on,0,0,2,,,,,,,,,,,,,,,0,,,56,0
114240,note_on,0,0,2,,,,,,,,,,,,,,,0,,,68,87
114240,note_on,0,0,2,,,,,,,,,,,,,,,0,,,56,73
114240,note_on,240,0,2,,,,,,,,,,,,,,,0,,,68,0
114240,note_on,240,0,1,,,,,,,,,,,,,,,0,,,86,0
114240,note_on,0,0,1,,,,,,,,,,,,,,,0,,,74,0
114240,note_on,0,0,1,,,,,,,,,,,,,,,0,,,78,0
114240,note_on,0,0,1,,,,,,,,,,,,,,,0,,,84,0
114240,note_on,0,0,1,,,,,,,,,,,,,,,0,,,78,82
114240,note_on,0,0,1,,,,,,,,,,,,,,,0,,,84,97
114240,note_on,0,0,1,,,,,,,,,,,,,,,0,,,86,97
114240,note_on,0,0,1,,,,,,,,,,,,,,,0,,,74,82
114480,note_on,0,0,1,,,,,,,,,,,,,,,0,,,78,82
114480,note_on,0,0,1,,,,,,,,,,,,,,,0,,,74,82
114480,note_on,0,0,1,,,,,,,,,,,,,,,0,,,84,0
114480,note_on,0,0,1,,,,,,,,,,,,,,,0,,,78,0
114480,note_on,0,0,1,,,,,,,,,,,,,,,0,,,74,0
114480,note_on,240,0,1,,,,,,,,,,,,,,,0,,,86,0
114480,note_on,0,0,1,,,,,,,,,,,,,,,0,,,86,97
114480,note_on,0,0,2,,,,,,,,,,,,,,,0,,,68,90
114480,note_on,0,0,2,,,,,,,,,,,,,,,0,,,56,75
114480,note_on,0,0,2,,,,,,,,,,,,,,,0,,,56,0
114480,note_on,240,0,2,,,,,,,,,,,,,,,0,,,68,0
114480,note_on,0,0,1,,,,,,,,,,,,,,,0,,,84,97
114709,control_change,229,0,2,,,,,,,,,,,,,,,0,64,0,,
114720,note_on,11,0,2,,,,,,,,,,,,,,,0,,,68,0
114720,note_on,0,0,2,,,,,,,,,,,,,,,0,,,56,78
114720,note_on,0,0,2,,,,,,,,,,,,,,,0,,,68,93
114720,note_on,0,0,1,,,,,,,,,,,,,,,0,,,78,84
114720,note_on,0,0,1,,,,,,,,,,,,,,,0,,,84,99
114720,note_on,0,0,2,,,,,,,,,,,,,,,0,,,56,0
114720,note_on,0,0,1,,,,,,,,,,,,,,,0,,,74,84
114720,note_on,0,0,1,,,,,,,,,,,,,,,0,,,84,0
114720,note_on,0,0,1,,,,,,,,,,,,,,,0,,,78,0
114720,note_on,0,0,1,,,,,,,,,,,,,,,0,,,74,0
114720,note_on,240,0,1,,,,,,,,,,,,,,,0,,,86,0
114720,note_on,0,0,1,,,,,,,,,,,,,,,0,,,86,99
114720,set_tempo,1000,1,0,,,,,,,,,,,,406780,,,,,,,
114840,note_on,120,0,2,,,,,,,,,,,,,,,0,,,68,0
114840,note_on,0,0,2,,,,,,,,,,,,,,,0,,,56,0
114840,note_on,120,0,1,,,,,,,,,,,,,,,0,,,86,0
114840,note_on,0,0,1,,,,,,,,,,,,,,,0,,,74,0
114840,note_on,0,0,1,,,,,,,,,,,,,,,0,,,78,0
114840,note_on,0,0,1,,,,,,,,,,,,,,,0,,,84,0
114960,note_on,0,0,1,,,,,,,,,,,,,,,0,,,78,86
114960,note_on,120,0,2,,,,,,,,,,,,,,,0,,,56,81
114960,note_on,120,0,1,,,,,,,,,,,,,,,0,,,74,86
114960,note_on,0,0,2,,,,,,,,,,,,,,,0,,,68,96
114960,set_tempo,240,1,0,,,,,,,,,,,,433213,,,,,,,
114960,note_on,0,0,1,,,,,,,,,,,,,,,0,,,86,101
114960,note_on,0,0,1,,,,,,,,,,,,,,,0,,,84,101
115080,note_on,0,0,2,,,,,,,,,,,,,,,0,,,56,0
115080,note_on,0,0,1,,,,,,,,,,,,,,,0,,,84,0
115080,note_on,0,0,1,,,,,,,,,,,,,,,0,,,78,0
115080,note_on,0,0,1,,,,,,,,,,,,,,,0,,,74,0
115080,note_on,120,0,1,,,,,,,,,,,,,,,0,,,86,0
115080,note_on,120,0,2,,,,,,,,,,,,,,,0,,,68,0
115200,note_on,0,0,1,,,,,,,,,,,,,,,0,,,88,104
115200,set_tempo,240,1,0,,,,,,,,,,,,422535,,,,,,,
115200,note_on,0,0,2,,,,,,,,,,,,,,,0,,,67,102
115200,note_on,120,0,1,,,,,,,,,,,,,,,0,,,76,88
115200,note_on,0,0,1,,,,,,,,,,,,,,,0,,,79,88
115200,note_on,0,0,1,,,,,,,,,,,,,,,0,,,84,88
115200,note_on,120,0,2,,,,,,,,,,,,,,,0,,,55,87
115256,control_change,56,0,2,,,,,,,,,,,,,,,0,64,127,,
115440,note_on,0,0,1,,,,,,,,,,,,,,,0,,,91,97
115440,note_on,0,0,1,,,,,,,,,,,,,,,0,,,86,81
115440,note_on,0,0,1,,,,,,,,,,,,,,,0,,,83,81
115440,note_on,0,0,1,,,,,,,,,,,,,,,0,,,77,81
115440,note_on,0,0,1,,,,,,,,,,,,,,,0,,,84,0
115440,note_on,0,0,1,,,,,,,,,,,,,,,0,,,76,0
115440,note_on,240,0,1,,,,,,,,,,,,,,,0,,,88,0
115440,note_on,0,0,1,,,,,,,,,,,,,,,0,,,79,0
115440,note_on,0,0,2,,,,,,,,,,,,,,,0,,,43,97
115440,note_on,0,0,2,,,,,,,,,,,,,,,0,,,31,81
115440,note_on,0,0,2,,,,,,,,,,,,,,,0,,,55,0
115440,note_on,184,0,2,,,,,,,,,,,,,,,0,,,67,0
115640,set_tempo,440,1,0,,,,,,,,,,,,422535,,,,,,,
115680,note_on,0,0,1,,,,,,,,,,,,,,,0,,,91,98
115680,note_on,0,0,1,,,,,,,,,,,,,,,0,,,86,83
115680,note_on,0,0,1,,,,,,,,,,,,,,,0,,,83,83
115680,note_on,0,0,1,,,,,,,,,,,,,,,0,,,77,83
115680,note_on,0,0,1,,,,,,,,,,,,,,,0,,,86,0
115680,note_on,0,0,2,,,,,,,,,,,,,,,0,,,31,81
115680,note_on,0,0,1,,,,,,,,,,,,,,,0,,,77,0
115680,note_on,240,0,1,,,,,,,,,,,,,,,0,,,91,0
115680,note_on,240,0,2,,,,,,,,,,,,,,,0,,,43,0
115680,note_on,0,0,2,,,,,,,,,,,,,,,0,,,31,0
115680,note_on,0,0,2,,,,,,,,,,,,,,,0,,,43,97
115680,note_on,0,0,1,,,,,,,,,,,,,,,0,,,83,0
115800,set_tempo,160,1,0,,,,,,,,,,,,424028,,,,,,,
115920,note_on,240,0,1,,,,,,,,,,,,,,,0,,,91,0
115920,note_on,0,0,1,,,,,,,,,,,,,,,0,,,77,0
115920,note_on,0,0,1,,,,,,,,,,,,,,,0,,,83,0
115920,note_on,0,0,1,,,,,,,,,,,,,,,0,,,77,83
115920,set_tempo,120,1,0,,,,,,,,,,,,425532,,,,,,,
115920,note_on,0,0,1,,,,,,,,,,,,,,,0,,,91,98
115920,note_on,0,0,1,,,,,,,,,,,,,,,0,,,86,83
115920,note_on,0,0,1,,,,,,,,,,,,,,,0,,,86,0
115920,note_on,240,0,2,,,,,,,,,,,,,,,0,,,43,0
115920,note_on,0,0,2,,,,,,,,,,,,,,,0,,,31,0
115920,note_on,0,0,2,,,,,,,,,,,,,,,0,,,31,81
115920,note_on,0,0,2,,,,,,,,,,,,,,,0,,,43,97
115920,note_on,0,0,1,,,,,,,,,,,,,,,0,,,83,83
116040,set_tempo,120,1,0,,,,,,,,,,,,427046,,,,,,,
116160,note_on,0,0,1,,,,,,,,,,,,,,,0,,,91,98
116160,note_on,0,0,1,,,,,,,,,,,,,,,0,,,86,83
116160,note_on,0,0,1,,,,,,,,,,,,,,,0,,,83,83
116160,note_on,0,0,1,,,,,,,,,,,,,,,0,,,77,83
116160,note_on,0,0,1,,,,,,,,,,,,,,,0,,,86,0
116160,note_on,0,0,2,,,,,,,,,,,,,,,0,,,43,97
116160,note_on,0,0,2,,,,,,,,,,,,,,,0,,,31,0
116160,note_on,240,0,2,,,,,,,,,,,,,,,0,,,43,0
116160,note_on,240,0,1,,,,,,,,,,,,,,,0,,,91,0
116160,note_on,0,0,1,,,,,,,,,,,,,,,0,,,77,0
116160,note_on,0,0,1,,,,,,,,,,,,,,,0,,,83,0
116160,set_tempo,120,1,0,,,,,,,,,,,,428571,,,,,,,
116160,note_on,0,0,2,,,,,,,,,,,,,,,0,,,31,81
116280,set_tempo,120,1,0,,,,,,,,,,,,430108,,,,,,,
116400,note_on,240,0,1,,,,,,,,,,,,,,,0,,,91,0
116400,note_on,0,0,1,,,,,,,,,,,,,,,0,,,77,0
116400,note_on,0,0,1,,,,,,,,,,,,,,,0,,,83,0
116400,note_on,0,0,1,,,,,,,,,,,,,,,0,,,86,0
116400,note_on,0,0,1,,,,,,,,,,,,,,,0,,,77,81
116400,note_on,0,0,1,,,,,,,,,,,,,,,0,,,86,81
116400,note_on,0,0,1,,,,,,,,,,,,,,,0,,,91,97
116400,note_on,0,0,1,,,,,,,,,,,,,,,0,,,83,81
116400,set_tempo,120,1,0,,,,,,,,,,,,431655,,,,,,,
116400,note_on,240,0,2,,,,,,,,,,,,,,,0,,,43,0
116400,note_on,0,0,2,,,,,,,,,,,,,,,0,,,31,0
116400,note_on,0,0,2,,,,,,,,,,,,,,,0,,,31,81
116400,note_on,0,0,2,,,,,,,,,,,,,,,0,,,43,97
116520,set_tempo,120,1,0,,,,,,,,,,,,433213,,,,,,,
116640,note_on,0,0,1,,,,,,,,,,,,,,,0,,,83,0
116640,note_on,0,0,1,,,,,,,,,,,,,,,0,,,83,81
116640,note_on,0,0,1,,,,,,,,,,,,,,,0,,,77,81
116640,note_on,0,0,1,,,,,,,,,,,,,,,0,,,86,0
116640,note_on,0,0,1,,,,,,,,,,,,,,,0,,,77,0
116640,note_on,240,0,1,,,,,,,,,,,,,,,0,,,91,0
116640,note_on,0,0,2,,,,,,,,,,,,,,,0,,,43,97
116640,note_on,0,0,2,,,,,,,,,,,,,,,0,,,31,81
116640,note_on,0,0,2,,,,,,,,,,,,,,,0,,,31,0
116640,note_on,240,0,2,,,,,,,,,,,,,,,0,,,43,0
116640,set_tempo,120,1,0,,,,,,,,,,,,449438,,,,,,,
116640,note_on,0,0,1,,,,,,,,,,,,,,,0,,,86,81
116640,note_on,0,0,1,,,,,,,,,,,,,,,0,,,91,97
116880,note_on,0,0,1,,,,,,,,,,,,,,,0,,,86,81
116880,note_on,0,0,1,,,,,,,,,,,,,,,0,,,83,81
116880,note_on,0,0,1,,,,,,,,,,,,,,,0,,,77,81
116880,note_on,0,0,1,,,,,,,,,,,,,,,0,,,86,0
116880,note_on,0,0,1,,,,,,,,,,,,,,,0,,,83,0
116880,note_on,0,0,1,,,,,,,,,,,,,,,0,,,77,0
116880,note_on,0,0,1,,,,,,,,,,,,,,,0,,,91,97
116880,note_on,0,0,2,,,,,,,,,,,,,,,0,,,43,97
116880,note_on,0,0,2,,,,,,,,,,,,,,,0,,,31,81
116880,note_on,0,0,2,,,,,,,,,,,,,,,0,,,31,0
116880,note_on,240,0,2,,,,,,,,,,,,,,,0,,,43,0
116880,set_tempo,240,1,0,,,,,,,,,,,,481928,,,,,,,
116880,note_on,240,0,1,,,,,,,,,,,,,,,0,,,91,0
117120,note_on,0,0,1,,,,,,,,,,,,,,,0,,,84,76
117120,note_on,0,0,1,,,,,,,,,,,,,,,0,,,86,0
117120,note_on,0,0,1,,,,,,,,,,,,,,,0,,,88,90
117120,note_on,0,0,1,,,,,,,,,,,,,,,0,,,83,0
117120,set_tempo,240,1,0,,,,,,,,,,,,424028,,,,,,,
117120,note_on,240,0,1,,,,,,,,,,,,,,,0,,,91,0
117120,control_change,0,0,1,,,,,,,,,,,,,,,0,91,127,,
117120,note_on,0,0,2,,,,,,,,,,,,,,,0,,,31,0
117120,note_on,0,0,1,,,,,,,,,,,,,,,0,,,77,0
117120,text,0,1,1,,,,,,,,,,,,,,,,,,,
117120,note_on,240,0,2,,,,,,,,,,,,,,,0,,,43,0
117120,note_on,0,0,2,,,,,,,,,,,,,,,0,,,48,100
117120,control_change,0,0,2,,,,,,,,,,,,,,,0,64,0,,
117120,note_on,0,0,2,,,,,,,,,,,,,,,0,,,36,85
117189,control_change,69,0,2,,,,,,,,,,,,,,,0,64,127,,
117240,note_on,120,0,1,,,,,,,,,,,,,,,0,,,88,0
117240,note_on,0,0,1,,,,,,,,,,,,,,,0,,,84,0
117240,note_on,0,0,1,,,,,,,,,,,,,,,0,,,96,95
117360,note_on,120,0,1,,,,,,,,,,,,,,,0,,,96,0
117360,note_on,0,0,1,,,,,,,,,,,,,,,0,,,91,95
117480,note_on,120,0,1,,,,,,,,,,,,,,,0,,,91,0
117480,note_on,0,0,1,,,,,,,,,,,,,,,0,,,88,94
117600,note_on,0,0,1,,,,,,,,,,,,,,,0,,,84,93
117600,note_on,411,0,2,,,,,,,,,,,,,,,0,,,48,0
117600,note_on,0,0,2,,,,,,,,,,,,,,,0,,,36,0
117600,note_on,0,0,2,,,,,,,,,,,,,,,0,,,36,79
117600,note_on,0,0,2,,,,,,,,,,,,,,,0,,,48,95
117600,set_tempo,480,1,0,,,,,,,,,,,,412371,,,,,,,
117600,note_on,120,0,1,,,,,,,,,,,,,,,0,,,88,0
117690,note_on,90,0,2,,,,,,,,,,,,,,,0,,,48,0
117690,note_on,0,0,2,,,,,,,,,,,,,,,0,,,36,0
117720,note_on,120,0,1,,,,,,,,,,,,,,,0,,,84,0
117720,note_on,0,0,1,,,,,,,,,,,,,,,0,,,79,92
117840,note_on,150,0,2,,,,,,,,,,,,,,,0,,,36,79
117840,note_on,0,0,1,,,,,,,,,,,,,,,0,,,76,91
117840,note_on,0,0,2,,,,,,,,,,,,,,,0,,,48,95
117840,note_on,120,0,1,,,,,,,,,,,,,,,0,,,79,0
117930,note_on,90,0,2,,,,,,,,,,,,,,,0,,,48,0
117930,note_on,0,0,2,,,,,,,,,,,,,,,0,,,36,0
117960,note_on,120,0,1,,,,,,,,,,,,,,,0,,,76,0
117960,note_on,0,0,1,,,,,,,,,,,,,,,0,,,79,90
118080,set_tempo,480,1,0,,,,,,,,,,,,418118,,,,,,,
118080,note_on,150,0,2,,,,,,,,,,,,,,,0,,,36,79
118080,note_on,0,0,1,,,,,,,,,,,,,,,0,,,72,90
118080,note_on,120,0,1,,,,,,,,,,,,,,,0,,,79,0
118080,note_on,0,0,2,,,,,,,,,,,,,,,0,,,48,95
118320,note_on,240,0,1,,,,,,,,,,,,,,,0,,,72,0
118320,note_on,0,0,1,,,,,,,,,,,,,,,0,,,88,76
118320,note_on,0,0,1,,,,,,,,,,,,,,,0,,,91,90
118440,note_on,0,0,1,,,,,,,,,,,,,,,0,,,79,86
118440,note_on,120,0,1,,,,,,,,,,,,,,,0,,,91,0
118440,note_on,0,0,1,,,,,,,,,,,,,,,0,,,88,0
118560,note_on,0,0,2,,,,,,,,,,,,,,,0,,,36,0
118560,control_change,0,0,2,,,,,,,,,,,,,,,0,64,0,,
118560,note_on,0,0,2,,,,,,,,,,,,,,,0,,,36,81
118560,note_on,480,0,2,,,,,,,,,,,,,,,0,,,48,0
118560,note_on,0,0,2,,,,,,,,,,,,,,,0,,,48,96
118560,note_on,0,0,1,,,,,,,,,,,,,,,0,,,89,79
118560,note_on,120,0,1,,,,,,,,,,,,,,,0,,,79,0
118560,note_on,0,0,1,,,,,,,,,,,,,,,0,,,93,93
118560,set_tempo,480,1,0,,,,,,,,,,,,434783,,,,,,,
118650,note_on,0,0,2,,,,,,,,,,,,,,,0,,,36,0
118650,note_on,90,0,2,,,,,,,,,,,,,,,0,,,48,0
118680,note_on,120,0,1,,,,,,,,,,,,,,,0,,,93,0
118680,note_on,0,0,1,,,,,,,,,,,,,,,0,,,89,0
118680,note_on,0,0,1,,,,,,,,,,,,,,,0,,,81,86
118800,set_tempo,240,1,0,,,,,,,,,,,,456274,,,,,,,
118800,note_on,0,0,2,,,,,,,,,,,,,,,0,,,48,97
118800,note_on,150,0,2,,,,,,,,,,,,,,,0,,,36,82
118800,note_on,0,0,1,,,,,,,,,,,,,,,0,,,91,79
118800,note_on,0,0,1,,,,,,,,,,,,,,,0,,,94,93
118800,note_on,120,0,1,,,,,,,,,,,,,,,0,,,81,0
118890,note_on,90,0,2,,,,,,,,,,,,,,,0,,,48,0
118890,note_on,0,0,2,,,,,,,,,,,,,,,0,,,36,0
118920,note_on,0,0,1,,,,,,,,,,,,,,,0,,,91,0
118920,set_tempo,120,1,0,,,,,,,,,,,,483871,,,,,,,
118920,note_on,120,0,1,,,,,,,,,,,,,,,0,,,94,0
118920,note_on,0,0,1,,,,,,,,,,,,,,,0,,,82,89
119040,note_on,120,0,1,,,,,,,,,,,,,,,0,,,82,0
119040,note_on,0,0,1,,,,,,,,,,,,,,,0,,,89,83
119040,note_on,0,0,1,,,,,,,,,,,,,,,0,,,93,98
119040,note_on,150,0,2,,,,,,,,,,,,,,,0,,,37,89
119040,note_on,0,0,2,,,,,,,,,,,,,,,0,,,49,105
119040,set_tempo,120,1,0,,,,,,,,,,,,430108,,,,,,,
119063,control_change,23,0,2,,,,,,,,,,,,,,,0,64,127,,
119130,note_on,67,0,2,,,,,,,,,,,,,,,0,,,49,0
119130,note_on,0,0,2,,,,,,,,,,,,,,,0,,,37,0
119160,note_on,120,0,1,,,,,,,,,,,,,,,0,,,93,0
119160,note_on,0,0,1,,,,,,,,,,,,,,,0,,,89,0
119160,note_on,0,0,1,,,,,,,,,,,,,,,0,,,81,89
119280,note_on,120,0,1,,,,,,,,,,,,,,,0,,,81,0
119280,note_on,0,0,1,,,,,,,,,,,,,,,0,,,88,79
119280,note_on,0,0,1,,,,,,,,,,,,,,,0,,,91,94
119400,note_on,0,0,1,,,,,,,,,,,,,,,0,,,79,87
119400,note_on,0,0,1,,,,,,,,,,,,,,,0,,,88,0
119400,note_on,120,0,1,,,,,,,,,,,,,,,0,,,91,0
119520,note_on,0,0,2,,,,,,,,,,,,,,,0,,,50,102
119520,note_on,390,0,2,,,,,,,,,,,,,,,0,,,38,86
119520,note_on,120,0,1,,,,,,,,,,,,,,,0,,,79,0
119520,note_on,0,0,1,,,,,,,,,,,,,,,0,,,89,93
119520,set_tempo,480,1,0,,,,,,,,,,,,412371,,,,,,,
119520,note_on,0,0,1,,,,,,,,,,,,,,,0,,,86,79
119531,control_change,11,0,2,,,,,,,,,,,,,,,0,64,0,,
119589,control_change,58,0,2,,,,,,,,,,,,,,,0,64,127,,
119640,note_on,120,0,1,,,,,,,,,,,,,,,0,,,89,0
119640,note_on,0,0,1,,,,,,,,,,,,,,,0,,,86,0
119640,note_on,0,0,1,,,,,,,,,,,,,,,0,,,77,86
119760,note_on,0,0,1,,,,,,,,,,,,,,,0,,,81,77
119760,note_on,120,0,1,,,,,,,,,,,,,,,0,,,77,0
119760,note_on,0,0,1,,,,,,,,,,,,,,,0,,,88,91
119880,note_on,120,0,1,,,,,,,,,,,,,,,0,,,88,0
119880,note_on,0,0,1,,,,,,,,,,,,,,,0,,,81,0
119880,note_on,0,0,1,,,,,,,,,,,,,,,0,,,76,77
120000,note_on,120,0,1,,,,,,,,,,,,,,,0,,,76,0
120000,note_on,0,0,1,,,,,,,,,,,,,,,0,,,77,73
120000,note_on,0,0,1,,,,,,,,,,,,,,,0,,,86,86
120000,set_tempo,480,1,0,,,,,,,,,,,,418118,,,,,,,
120120,note_on,0,0,1,,,,,,,,,,,,,,,0,,,77,0
120120,note_on,120,0,1,,,,,,,,,,,,,,,0,,,86,0
120120,note_on,0,0,1,,,,,,,,,,,,,,,0,,,74,76
120240,note_on,0,0,2,,,,,,,,,,,,,,,0,,,40,81
120240,note_on,0,0,2,,,,,,,,,,,,,,,0,,,52,96
120240,note_on,0,0,1,,,,,,,,,,,,,,,0,,,85,87
120240,note_on,0,0,2,,,,,,,,,,,,,,,0,,,38,0
120240,note_on,0,0,1,,,,,,,,,,,,,,,0,,,81,73
120240,note_on,651,0,2,,,,,,,,,,,,,,,0,,,50,0
120240,note_on,120,0,1,,,,,,,,,,,,,,,0,,,74,0
120251,control_change,11,0,2,,,,,,,,,,,,,,,0,64,0,,
120330,note_on,0,0,2,,,,,,,,,,,,,,,0,,,40,0
120330,note_on,79,0,2,,,,,,,,,,,,,,,0,,,52,0
120360,note_on,120,0,1,,,,,,,,,,,,,,,0,,,85,0
120360,note_on,0,0,1,,,,,,,,,,,,,,,0,,,73,79
120360,note_on,0,0,1,,,,,,,,,,,,,,,0,,,81,0
120480,note_on,150,0,2,,,,,,,,,,,,,,,0,,,41,79
120480,note_on,0,0,1,,,,,,,,,,,,,,,0,,,86,92
120480,note_on,0,0,1,,,,,,,,,,,,,,,0,,,81,78
120480,set_tempo,480,1,0,,,,,,,,,,,,424028,,,,,,,
120480,note_on,120,0,1,,,,,,,,,,,,,,,0,,,73,0
120480,note_on,0,0,2,,,,,,,,,,,,,,,0,,,53,95
120531,control_change,51,0,2,,,,,,,,,,,,,,,0,64,127,,
120570,note_on,39,0,2,,,,,,,,,,,,,,,0,,,53,0
120570,note_on,0,0,2,,,,,,,,,,,,,,,0,,,41,0
120600,note_on,0,0,1,,,,,,,,,,,,,,,0,,,74,81
120600,note_on,0,0,1,,,,,,,,,,,,,,,0,,,81,0
120600,note_on,120,0,1,,,,,,,,,,,,,,,0,,,86,0
120720,note_on,0,0,2,,,,,,,,,,,,,,,0,,,52,96
120720,note_on,0,0,1,,,,,,,,,,,,,,,0,,,88,80
120720,note_on,0,0,1,,,,,,,,,,,,,,,0,,,97,95
120720,note_on,150,0,2,,,,,,,,,,,,,,,0,,,40,81
120720,note_on,120,0,1,,,,,,,,,,,,,,,0,,,74,0
120810,note_on,0,0,2,,,,,,,,,,,,,,,0,,,40,0
120810,note_on,90,0,2,,,,,,,,,,,,,,,0,,,52,0
120840,note_on,120,0,1,,,,,,,,,,,,,,,0,,,97,0
120840,note_on,0,0,1,,,,,,,,,,,,,,,0,,,85,86
120840,set_tempo,360,1,0,,,,,,,,,,,,458015,,,,,,,
120840,note_on,0,0,1,,,,,,,,,,,,,,,0,,,88,0
120960,note_on,120,0,1,,,,,,,,,,,,,,,0,,,85,0
120960,control_change,0,0,1,,,,,,,,,,,,,,,0,91,127,,
120960,text,0,1,1,,,,,,,,,,,,,,,,,,,
120960,note_on,0,0,1,,,,,,,,,,,,,,,0,,,86,90
120960,set_tempo,120,1,0,,,,,,,,,,,,425532,,,,,,,
120960,note_on,0,0,2,,,,,,,,,,,,,,,0,,,50,100
120960,note_on,0,0,2,,,,,,,,,,,,,,,0,,,38,85
120960,control_change,150,0,2,,,,,,,,,,,,,,,0,64,0,,
121024,control_change,64,0,2,,,,,,,,,,,,,,,0,64,127,,
121080,note_on,0,0,1,,,,,,,,,,,,,,,0,,,98,95
121080,note_on,120,0,1,,,,,,,,,,,,,,,0,,,86,0
121200,note_on,120,0,1,,,,,,,,,,,,,,,0,,,98,0
121200,note_on,0,0,1,,,,,,,,,,,,,,,0,,,93,95
121320,note_on,120,0,1,,,,,,,,,,,,,,,0,,,93,0
121320,note_on,0,0,1,,,,,,,,,,,,,,,0,,,89,94
121440,note_on,0,0,2,,,,,,,,,,,,,,,0,,,38,85
121440,note_on,416,0,2,,,,,,,,,,,,,,,0,,,50,0
121440,note_on,0,0,2,,,,,,,,,,,,,,,0,,,50,100
121440,set_tempo,480,1,0,,,,,,,,,,,,412371,,,,,,,
121440,note_on,120,0,1,,,,,,,,,,,,,,,0,,,89,0
121440,note_on,0,0,1,,,,,,,,,,,,,,,0,,,86,93
121440,note_on,0,0,2,,,,,,,,,,,,,,,0,,,38,0
121530,note_on,90,0,2,,,,,,,,,,,,,,,0,,,50,0
121530,note_on,0,0,2,,,,,,,,,,,,,,,0,,,38,0
121560,note_on,120,0,1,,,,,,,,,,,,,,,0,,,86,0
121560,note_on,0,0,1,,,,,,,,,,,,,,,0,,,81,92
121680,note_on,0,0,2,,,,,,,,,,,,,,,0,,,50,96
121680,note_on,150,0,2,,,,,,,,,,,,,,,0,,,38,81
121680,note_on,120,0,1,,,,,,,,,,,,,,,0,,,81,0
121680,note_on,0,0,1,,,,,,,,,,,,,,,0,,,77,91
121770,note_on,0,0,2,,,,,,,,,,,,,,,0,,,38,0
121770,note_on,90,0,2,,,,,,,,,,,,,,,0,,,50,0
121800,note_on,120,0,1,,,,,,,,,,,,,,,0,,,77,0
121800,note_on,0,0,1,,,,,,,,,,,,,,,0,,,81,90
121920,note_on,0,0,2,,,,,,,,,,,,,,,0,,,50,96
121920,set_tempo,480,1,0,,,,,,,,,,,,419580,,,,,,,
121920,note_on,150,0,2,,,,,,,,,,,,,,,0,,,38,81
121920,note_on,0,0,1,,,,,,,,,,,,,,,0,,,74,90
121920,note_on,120,0,1,,,,,,,,,,,,,,,0,,,81,0
122160,note_on,240,0,1,,,,,,,,,,,,,,,0,,,74,0
122160,note_on,0,0,1,,,,,,,,,,,,,,,0,,,93,90
122160,note_on,0,0,1,,,,,,,,,,,,,,,0,,,89,76
122280,note_on,120,0,1,,,,,,,,,,,,,,,0,,,93,0
122280,note_on,0,0,1,,,,,,,,,,,,,,,0,,,89,0
122280,note_on,0,0,1,,,,,,,,,,,,,,,0,,,81,86
122400,note_on,0,0,1,,,,,,,,,,,,,,,0,,,95,93
122400,note_on,0,0,1,,,,,,,,,,,,,,,0,,,91,79
122400,note_on,120,0,1,,,,,,,,,,,,,,,0,,,81,0
122400,note_on,480,0,2,,,,,,,,,,,,,,,0,,,50,0
122400,note_on,0,0,2,,,,,,,,,,,,,,,0,,,38,0
122400,set_tempo,480,1,0,,,,,,,,,,,,425532,,,,,,,
122400,note_on,0,0,2,,,,,,,,,,,,,,,0,,,38,82
122400,note_on,0,0,2,,,,,,,,,,,,,,,0,,,50,97
122478,control_change,78,0,2,,,,,,,,,,,,,,,0,64,0,,
122490,note_on,12,0,2,,,,,,,,,,,,,,,0,,,50,0
122490,note_on,0,0,2,,,,,,,,,,,,,,,0,,,38,0
122520,note_on,0,0,1,,,,,,,,,,,,,,,0,,,91,0
122520,note_on,120,0,1,,,,,,,,,,,,,,,0,,,95,0
122520,note_on,0,0,1,,,,,,,,,,,,,,,0,,,83,86
122640,note_on,120,0,1,,,,,,,,,,,,,,,0,,,83,0
122640,note_on,150,0,2,,,,,,,,,,,,,,,0,,,38,82
122640,note_on,0,0,1,,,,,,,,,,,,,,,0,,,93,79
122640,set_tempo,240,1,0,,,,,,,,,,,,442804,,,,,,,
122640,note_on,0,0,1,,,,,,,,,,,,,,,0,,,96,93
122640,note_on,0,0,2,,,,,,,,,,,,,,,0,,,50,97
122730,note_on,90,0,2,,,,,,,,,,,,,,,0,,,50,0
122730,note_on,0,0,2,,,,,,,,,,,,,,,0,,,38,0
122760,note_on,0,0,1,,,,,,,,,,,,,,,0,,,84,89
122760,note_on,0,0,1,,,,,,,,,,,,,,,0,,,93,0
122760,set_tempo,120,1,0,,,,,,,,,,,,456274,,,,,,,
122760,note_on,120,0,1,,,,,,,,,,,,,,,0,,,96,0
122880,note_on,120,0,1,,,,,,,,,,,,,,,0,,,84,0
122880,note_on,0,0,1,,,,,,,,,,,,,,,0,,,95,98
122880,note_on,0,0,2,,,,,,,,,,,,,,,0,,,51,105
122880,note_on,0,0,1,,,,,,,,,,,,,,,0,,,91,83
122880,set_tempo,120,1,0,,,,,,,,,,,,437956,,,,,,,
122880,note_on,150,0,2,,,,,,,,,,,,,,,0,,,39,89
122909,control_change,29,0,2,,,,,,,,,,,,,,,0,64,127,,
122970,note_on,61,0,2,,,,,,,,,,,,,,,0,,,51,0
122970,note_on,0,0,2,,,,,,,,,,,,,,,0,,,39,0
123000,note_on,120,0,1,,,,,,,,,,,,,,,0,,,95,0
123000,note_on,0,0,1,,,,,,,,,,,,,,,0,,,91,0
123000,note_on,0,0,1,,,,,,,,,,,,,,,0,,,83,89
123120,note_on,120,0,1,,,,,,,,,,,,,,,0,,,83,0
123120,note_on,0,0,1,,,,,,,,,,,,,,,0,,,90,79
123120,note_on,0,0,1,,,,,,,,,,,,,,,0,,,93,94
123240,note_on,0,0,1,,,,,,,,,,,,,,,0,,,90,0
123240,note_on,0,0,1,,,,,,,,,,,,,,,0,,,81,87
123240,note_on,120,0,1,,,,,,,,,,,,,,,0,,,93,0
123360,set_tempo,480,1,0,,,,,,,,,,,,412371,,,,,,,
123360,note_on,120,0,1,,,,,,,,,,,,,,,0,,,81,0
123360,note_on,0,0,1,,,,,,,,,,,,,,,0,,,88,79
123360,note_on,0,0,1,,,,,,,,,,,,,,,0,,,91,93
123360,note_on,390,0,2,,,,,,,,,,,,,,,0,,,40,86
123360,note_on,0,0,2,,,,,,,,,,,,,,,0,,,52,102
123370,control_change,10,0,2,,,,,,,,,,,,,,,0,64,0,,
123429,control_change,59,0,2,,,,,,,,,,,,,,,0,64,127,,
123480,note_on,0,0,1,,,,,,,,,,,,,,,0,,,79,86
123480,note_on,0,0,1,,,,,,,,,,,,,,,0,,,88,0
123480,note_on,120,0,1,,,,,,,,,,,,,,,0,,,91,0
123600,note_on,0,0,1,,,,,,,,,,,,,,,0,,,83,77
123600,note_on,0,0,1,,,,,,,,,,,,,,,0,,,90,91
123600,note_on,120,0,1,,,,,,,,,,,,,,,0,,,79,0
123720,note_on,120,0,1,,,,,,,,,,,,,,,0,,,90,0
123720,note_on,0,0,1,,,,,,,,,,,,,,,0,,,83,0
123720,note_on,0,0,1,,,,,,,,,,,,,,,0,,,78,77
123840,note_on,120,0,1,,,,,,,,,,,,,,,0,,,78,0
123840,note_on,0,0,1,,,,,,,,,,,,,,,0,,,79,73
123840,set_tempo,480,1,0,,,,,,,,,,,,418118,,,,,,,
123840,note_on,0,0,1,,,,,,,,,,,,,,,0,,,88,86
123960,note_on,120,0,1,,,,,,,,,,,,,,,0,,,88,0
123960,note_on,0,0,1,,,,,,,,,,,,,,,0,,,79,0
123960,note_on,0,0,1,,,,,,,,,,,,,,,0,,,76,76
124080,note_on,651,0,2,,,,,,,,,,,,,,,0,,,52,0
124080,note_on,0,0,2,,,,,,,,,,,,,,,0,,,54,93
124080,note_on,0,0,2,,,,,,,,,,,,,,,0,,,40,0
124080,note_on,0,0,2,,,,,,,,,,,,,,,0,,,42,93
124080,note_on,120,0,1,,,,,,,,,,,,,,,0,,,76,0
124080,note_on,0,0,1,,,,,,,,,,,,,,,0,,,83,73
124080,note_on,0,0,1,,,,,,,,,,,,,,,0,,,87,87
124109,control_change,29,0,2,,,,,,,,,,,,,,,0,64,0,,
124170,note_on,61,0,2,,,,,,,,,,,,,,,0,,,54,0
124170,note_on,0,0,2,,,,,,,,,,,,,,,0,,,42,0
124200,note_on,0,0,1,,,,,,,,,,,,,,,0,,,83,0
124200,note_on,120,0,1,,,,,,,,,,,,,,,0,,,87,0
124200,note_on,0,0,1,,,,,,,,,,,,,,,0,,,75,79
124320,note_on,150,0,2,,,,,,,,,,,,,,,0,,,43,77
124320,note_on,0,0,1,,,,,,,,,,,,,,,0,,,88,92
124320,note_on,0,0,1,,,,,,,,,,,,,,,0,,,83,78
124320,note_on,120,0,1,,,,,,,,,,,,,,,0,,,75,0
124320,set_tempo,480,1,0,,,,,,,,,,,,424028,,,,,,,
124320,note_on,0,0,2,,,,,,,,,,,,,,,0,,,55,92
124366,control_change,46,0,2,,,,,,,,,,,,,,,0,64,127,,
124410,note_on,0,0,2,,,,,,,,,,,,,,,0,,,43,0
124410,note_on,44,0,2,,,,,,,,,,,,,,,0,,,55,0
124440,note_on,0,0,1,,,,,,,,,,,,,,,0,,,76,81
124440,note_on,0,0,1,,,,,,,,,,,,,,,0,,,83,0
124440,note_on,120,0,1,,,,,,,,,,,,,,,0,,,88,0
124560,note_on,120,0,1,,,,,,,,,,,,,,,0,,,76,0
124560,note_on,0,0,2,,,,,,,,,,,,,,,0,,,57,93
124560,note_on,0,0,1,,,,,,,,,,,,,,,0,,,77,80
124560,note_on,150,0,2,,,,,,,,,,,,,,,0,,,45,79
124560,note_on,0,0,1,,,,,,,,,,,,,,,0,,,86,95
124650,note_on,90,0,2,,,,,,,,,,,,,,,0,,,57,0
124650,note_on,0,0,2,,,,,,,,,,,,,,,0,,,45,0
124680,note_on,0,0,1,,,,,,,,,,,,,,,0,,,74,86
124680,note_on,120,0,1,,,,,,,,,,,,,,,0,,,86,0
124680,note_on,0,0,1,,,,,,,,,,,,,,,0,,,77,0
124800,note_on,0,0,2,,,,,,,,,,,,,,,0,,,46,86
124800,set_tempo,480,1,0,,,,,,,,,,,,418118,,,,,,,
124800,control_change,150,0,2,,,,,,,,,,,,,,,0,64,0,,
124800,note_on,0,0,2,,,,,,,,,,,,,,,0,,,58,101
124800,note_on,0,0,1,,,,,,,,,,,,,,,0,,,76,93
124800,note_on,0,0,1,,,,,,,,,,,,,,,0,,,73,93
124800,note_on,120,0,1,,,,,,,,,,,,,,,0,,,74,0
124840,control_change,40,0,2,,,,,,,,,,,,,,,0,64,127,,
124920,note_on,0,0,1,,,,,,,,,,,,,,,0,,,73,0
124920,note_on,120,0,1,,,,,,,,,,,,,,,0,,,76,0
124920,note_on,0,0,1,,,,,,,,,,,,,,,0,,,85,87
125040,note_on,0,0,1,,,,,,,,,,,,,,,0,,,79,87
125040,note_on,0,0,1,,,,,,,,,,,,,,,0,,,76,87
125040,note_on,120,0,1,,,,,,,,,,,,,,,0,,,85,0
125160,note_on,0,0,1,,,,,,,,,,,,,,,0,,,76,0
125160,note_on,120,0,1,,,,,,,,,,,,,,,0,,,79,0
125160,note_on,0,0,1,,,,,,,,,,,,,,,0,,,88,87
125280,note_on,120,0,1,,,,,,,,,,,,,,,0,,,88,0
125280,note_on,0,0,2,,,,,,,,,,,,,,,0,,,46,0
125280,note_on,0,0,2,,,,,,,,,,,,,,,0,,,46,79
125280,note_on,0,0,2,,,,,,,,,,,,,,,0,,,58,93
125280,note_on,0,0,1,,,,,,,,,,,,,,,0,,,73,93
125280,note_on,0,0,1,,,,,,,,,,,,,,,0,,,76,93
125280,note_on,440,0,2,,,,,,,,,,,,,,,0,,,58,0
125297,control_change,17,0,2,,,,,,,,,,,,,,,0,64,0,,
125370,note_on,73,0,2,,,,,,,,,,,,,,,0,,,58,0
125370,note_on,0,0,2,,,,,,,,,,,,,,,0,,,46,0
125400,note_on,120,0,1,,,,,,,,,,,,,,,0,,,76,0
125400,note_on,0,0,1,,,,,,,,,,,,,,,0,,,85,86
125400,note_on,0,0,1,,,,,,,,,,,,,,,0,,,73,0
125520,note_on,0,0,1,,,,,,,,,,,,,,,0,,,76,88
125520,set_tempo,720,1,0,,,,,,,,,,,,436364,,,,,,,
125520,note_on,0,0,2,,,,,,,,,,,,,,,0,,,58,93
125520,note_on,150,0,2,,,,,,,,,,,,,,,0,,,46,79
125520,note_on,120,0,1,,,,,,,,,,,,,,,0,,,85,0
125520,note_on,0,0,1,,,,,,,,,,,,,,,0,,,79,88
125610,note_on,90,0,2,,,,,,,,,,,,,,,0,,,58,0
125610,note_on,0,0,2,,,,,,,,,,,,,,,0,,,46,0
125640,note_on,0,0,1,,,,,,,,,,,,,,,0,,,76,0
125640,note_on,0,0,1,,,,,,,,,,,,,,,0,,,88,88
125640,note_on,120,0,1,,,,,,,,,,,,,,,0,,,79,0
125760,note_on,150,0,2,,,,,,,,,,,,,,,0,,,37,82
125760,note_on,0,0,2,,,,,,,,,,,,,,,0,,,49,97
125760,set_tempo,240,1,0,,,,,,,,,,,,418118,,,,,,,
125760,note_on,0,0,1,,,,,,,,,,,,,,,0,,,82,95
125760,note_on,120,0,1,,,,,,,,,,,,,,,0,,,88,0
125811,control_change,51,0,2,,,,,,,,,,,,,,,0,64,127,,
125880,note_on,120,0,1,,,,,,,,,,,,,,,0,,,82,0
125880,note_on,0,0,1,,,,,,,,,,,,,,,0,,,94,90
126000,note_on,120,0,1,,,,,,,,,,,,,,,0,,,94,0
126000,note_on,0,0,1,,,,,,,,,,,,,,,0,,,91,88
126120,note_on,120,0,1,,,,,,,,,,,,,,,0,,,91,0
126120,note_on,0,0,1,,,,,,,,,,,,,,,0,,,88,86
126240,note_on,120,0,1,,,,,,,,,,,,,,,0,,,88,0
126240,set_tempo,480,1,0,,,,,,,,,,,,428571,,,,,,,
126240,note_on,0,0,1,,,,,,,,,,,,,,,0,,,82,85
126360,note_on,120,0,1,,,,,,,,,,,,,,,0,,,82,0
126360,note_on,0,0,1,,,,,,,,,,,,,,,0,,,79,85
126480,note_on,0,0,1,,,,,,,,,,,,,,,0,,,76,84
126480,note_on,120,0,1,,,,,,,,,,,,,,,0,,,79,0
126600,note_on,120,0,1,,,,,,,,,,,,,,,0,,,76,0
126600,note_on,0,0,1,,,,,,,,,,,,,,,0,,,70,83
126720,note_on,0,0,2,,,,,,,,,,,,,,,0,,,37,0
126720,note_on,0,0,2,,,,,,,,,,,,,,,0,,,45,84
126720,note_on,0,0,2,,,,,,,,,,,,,,,0,,,57,98
126720,control_change,0,0,2,,,,,,,,,,,,,,,0,64,0,,
126720,note_on,909,0,2,,,,,,,,,,,,,,,0,,,49,0
126720,set_tempo,480,1,0,,,,,,,,,,,,424028,,,,,,,
126720,note_on,120,0,1,,,,,,,,,,,,,,,0,,,70,0
126720,note_on,0,0,1,,,,,,,,,,,,,,,0,,,72,91
126720,note_on,0,0,1,,,,,,,,,,,,,,,0,,,75,91
126757,control_change,37,0,2,,,,,,,,,,,,,,,0,64,127,,
126840,note_on,120,0,1,,,,,,,,,,,,,,,0,,,75,0
126840,note_on,0,0,1,,,,,,,,,,,,,,,0,,,72,0
126840,note_on,0,0,1,,,,,,,,,,,,,,,0,,,84,85
126960,note_on,0,0,1,,,,,,,,,,,,,,,0,,,78,85
126960,note_on,0,0,1,,,,,,,,,,,,,,,0,,,75,85
126960,note_on,120,0,1,,,,,,,,,,,,,,,0,,,84,0
127080,note_on,0,0,1,,,,,,,,,,,,,,,0,,,75,0
127080,note_on,120,0,1,,,,,,,,,,,,,,,0,,,78,0
127080,note_on,0,0,1,,,,,,,,,,,,,,,0,,,87,85
127200,note_on,443,0,2,,,,,,,,,,,,,,,0,,,57,0
127200,note_on,0,0,2,,,,,,,,,,,,,,,0,,,45,77
127200,note_on,0,0,2,,,,,,,,,,,,,,,0,,,57,91
127200,note_on,0,0,1,,,,,,,,,,,,,,,0,,,75,91
127200,note_on,0,0,1,,,,,,,,,,,,,,,0,,,72,91
127200,note_on,0,0,2,,,,,,,,,,,,,,,0,,,45,0
127200,note_on,120,0,1,,,,,,,,,,,,,,,0,,,87,0
127229,control_change,29,0,2,,,,,,,,,,,,,,,0,64,0,,
127290,note_on,61,0,2,,,,,,,,,,,,,,,0,,,57,0
127290,note_on,0,0,2,,,,,,,,,,,,,,,0,,,45,0
127320,note_on,120,0,1,,,,,,,,,,,,,,,0,,,75,0
127320,note_on,0,0,1,,,,,,,,,,,,,,,0,,,72,0
127320,note_on,0,0,1,,,,,,,,,,,,,,,0,,,84,84
127440,note_on,150,0,2,,,,,,,,,,,,,,,0,,,45,78
127440,note_on,0,0,1,,,,,,,,,,,,,,,0,,,75,86
127440,note_on,120,0,1,,,,,,,,,,,,,,,0,,,84,0
127440,note_on,0,0,2,,,,,,,,,,,,,,,0,,,57,92
127440,note_on,0,0,1,,,,,,,,,,,,,,,0,,,78,86
127440,set_tempo,720,1,0,,,,,,,,,,,,439560,,,,,,,
127530,note_on,0,0,2,,,,,,,,,,,,,,,0,,,45,0
127530,note_on,90,0,2,,,,,,,,,,,,,,,0,,,57,0
127560,note_on,0,0,1,,,,,,,,,,,,,,,0,,,75,0
127560,note_on,120,0,1,,,,,,,,,,,,,,,0,,,78,0
127560,note_on,0,0,1,,,,,,,,,,,,,,,0,,,87,86
127680,note_on,0,0,2,,,,,,,,,,,,,,,0,,,48,95
127680,note_on,150,0,2,,,,,,,,,,,,,,,0,,,36,80
127680,set_tempo,240,1,0,,,,,,,,,,,,422535,,,,,,,
127680,note_on,120,0,1,,,,,,,,,,,,,,,0,,,87,0
127680,note_on,0,0,1,,,,,,,,,,,,,,,0,,,81,93
127726,control_change,46,0,2,,,,,,,,,,,,,,,0,64,127,,
127800,note_on,0,0,1,,,,,,,,,,,,,,,0,,,93,88
127800,note_on,120,0,1,,,,,,,,,,,,,,,0,,,81,0
127920,note_on,0,0,1,,,,,,,,,,,,,,,0,,,90,86
127920,note_on,120,0,1,,,,,,,,,,,,,,,0,,,93,0
128040,note_on,120,0,1,,,,,,,,,,,,,,,0,,,90,0
128040,note_on,0,0,1,,,,,,,,,,,,,,,0,,,87,84
128160,note_on,0,0,1,,,,,,,,,,,,,,,0,,,81,83
128160,note_on,120,0,1,,,,,,,,,,,,,,,0,,,87,0
128280,note_on,120,0,1,,,,,,,,,,,,,,,0,,,81,0
128280,note_on,0,0,1,,,,,,,,,,,,,,,0,,,78,83
128400,note_on,0,0,1,,,,,,,,,,,,,,,0,,,75,82
128400,note_on,120,0,1,,,,,,,,,,,,,,,0,,,78,0
128520,note_on,120,0,1,,,,,,,,,,,,,,,0,,,75,0
128520,note_on,0,0,1,,,,,,,,,,,,,,,0,,,69,81
128640,note_on,120,0,1,,,,,,,,,,,,,,,0,,,69,0
128640,note_on,0,0,1,,,,,,,,,,,,,,,0,,,67,84
128640,note_on,914,0,2,,,,,,,,,,,,,,,0,,,48,0
128640,note_on,0,0,2,,,,,,,,,,,,,,,0,,,36,0
128640,note_on,0,0,2,,,,,,,,,,,,,,,0,,,35,79
128640,note_on,0,0,2,,,,,,,,,,,,,,,0,,,47,93
128640,control_change,0,0,2,,,,,,,,,,,,,,,0,64,0,,
128640,set_tempo,960,1,0,,,,,,,,,,,,419580,,,,,,,
128730,note_on,90,0,2,,,,,,,,,,,,,,,0,,,47,0
128730,note_on,0,0,2,,,,,,,,,,,,,,,0,,,35,0
128760,note_on,120,0,1,,,,,,,,,,,,,,,0,,,67,0
128760,note_on,0,0,1,,,,,,,,,,,,,,,0,,,79,75
128880,note_on,0,0,2,,,,,,,,,,,,,,,0,,,50,94
128880,note_on,0,0,1,,,,,,,,,,,,,,,0,,,74,75
128880,note_on,150,0,2,,,,,,,,,,,,,,,0,,,38,80
128880,note_on,120,0,1,,,,,,,,,,,,,,,0,,,79,0
128970,note_on,0,0,2,,,,,,,,,,,,,,,0,,,38,0
128970,note_on,90,0,2,,,,,,,,,,,,,,,0,,,50,0
129000,note_on,120,0,1,,,,,,,,,,,,,,,0,,,74,0
129000,note_on,0,0,1,,,,,,,,,,,,,,,0,,,71,74
129120,note_on,120,0,1,,,,,,,,,,,,,,,0,,,71,0
129120,note_on,0,0,2,,,,,,,,,,,,,,,0,,,55,99
129120,note_on,150,0,2,,,,,,,,,,,,,,,0,,,43,84
129120,note_on,0,0,1,,,,,,,,,,,,,,,0,,,74,80
129210,note_on,0,0,2,,,,,,,,,,,,,,,0,,,43,0
129210,note_on,90,0,2,,,,,,,,,,,,,,,0,,,55,0
129240,note_on,120,0,1,,,,,,,,,,,,,,,0,,,74,0
129240,note_on,0,0,1,,,,,,,,,,,,,,,0,,,86,75
129360,note_on,150,0,2,,,,,,,,,,,,,,,0,,,41,80
129360,note_on,0,0,2,,,,,,,,,,,,,,,0,,,53,94
129360,note_on,120,0,1,,,,,,,,,,,,,,,0,,,86,0
129360,note_on,0,0,1,,,,,,,,,,,,,,,0,,,83,75
129450,note_on,0,0,2,,,,,,,,,,,,,,,0,,,41,0
129450,note_on,90,0,2,,,,,,,,,,,,,,,0,,,53,0
129480,note_on,120,0,1,,,,,,,,,,,,,,,0,,,83,0
129480,note_on,0,0,1,,,,,,,,,,,,,,,0,,,79,75
129600,note_on,0,0,2,,,,,,,,,,,,,,,0,,,52,96
129600,note_on,150,0,2,,,,,,,,,,,,,,,0,,,40,81
129600,note_on,120,0,1,,,,,,,,,,,,,,,0,,,79,0
129600,note_on,0,0,1,,,,,,,,,,,,,,,0,,,84,62
129600,note_on,0,0,1,,,,,,,,,,,,,,,0,,,88,73
129664,control_change,64,0,2,,,,,,,,,,,,,,,0,64,127,,
129690,note_on,0,0,2,,,,,,,,,,,,,,,0,,,40,0
129690,note_on,26,0,2,,,,,,,,,,,,,,,0,,,52,0
129720,note_on,120,0,1,,,,,,,,,,,,,,,0,,,88,0
129720,note_on,0,0,1,,,,,,,,,,,,,,,0,,,84,0
129720,note_on,0,0,1,,,,,,,,,,,,,,,0,,,76,74
129840,note_on,0,0,2,,,,,,,,,,,,,,,0,,,48,93
129840,note_on,150,0,2,,,,,,,,,,,,,,,0,,,36,79
129840,note_on,0,0,1,,,,,,,,,,,,,,,0,,,89,76
129840,note_on,0,0,1,,,,,,,,,,,,,,,0,,,86,64
129840,note_on,120,0,1,,,,,,,,,,,,,,,0,,,76,0
129845,control_change,5,0,2,,,,,,,,,,,,,,,0,64,0,,
129930,note_on,0,0,2,,,,,,,,,,,,,,,0,,,36,0
129930,note_on,85,0,2,,,,,,,,,,,,,,,0,,,48,0
129939,control_change,9,0,2,,,,,,,,,,,,,,,0,64,127,,
129960,note_on,0,0,1,,,,,,,,,,,,,,,0,,,86,0
129960,note_on,120,0,1,,,,,,,,,,,,,,,0,,,89,0
129960,note_on,0,0,1,,,,,,,,,,,,,,,0,,,77,78
130080,note_on,0,0,2,,,,,,,,,,,,,,,0,,,47,93
130080,note_on,120,0,1,,,,,,,,,,,,,,,0,,,77,0
130080,note_on,0,0,1,,,,,,,,,,,,,,,0,,,88,67
130080,note_on,0,0,1,,,,,,,,,,,,,,,0,,,91,79
130080,note_on,141,0,2,,,,,,,,,,,,,,,0,,,35,79
130100,control_change,20,0,2,,,,,,,,,,,,,,,0,64,0,,
130170,note_on,0,0,2,,,,,,,,,,,,,,,0,,,35,0
130170,note_on,70,0,2,,,,,,,,,,,,,,,0,,,47,0
130200,note_on,120,0,1,,,,,,,,,,,,,,,0,,,91,0
130200,note_on,0,0,1,,,,,,,,,,,,,,,0,,,79,81
130200,note_on,0,0,1,,,,,,,,,,,,,,,0,,,88,0
130207,control_change,37,0,2,,,,,,,,,,,,,,,0,64,127,,
130320,note_on,0,0,1,,,,,,,,,,,,,,,0,,,89,70
130320,note_on,113,0,2,,,,,,,,,,,,,,,0,,,33,79
130320,note_on,0,0,2,,,,,,,,,,,,,,,0,,,45,93
130320,note_on,0,0,1,,,,,,,,,,,,,,,0,,,93,83
130320,note_on,120,0,1,,,,,,,,,,,,,,,0,,,79,0
130326,control_change,6,0,2,,,,,,,,,,,,,,,0,64,0,,
130405,control_change,79,0,2,,,,,,,,,,,,,,,0,64,127,,
130410,note_on,0,0,2,,,,,,,,,,,,,,,0,,,33,0
130410,note_on,5,0,2,,,,,,,,,,,,,,,0,,,45,0
130440,note_on,120,0,1,,,,,,,,,,,,,,,0,,,93,0
130440,note_on,0,0,1,,,,,,,,,,,,,,,0,,,89,0
130440,note_on,0,0,1,,,,,,,,,,,,,,,0,,,81,84
130560,note_on,0,0,2,,,,,,,,,,,,,,,0,,,41,87
130560,note_on,120,0,1,,,,,,,,,,,,,,,0,,,81,0
130560,note_on,0,0,1,,,,,,,,,,,,,,,0,,,86,72
130560,note_on,0,0,1,,,,,,,,,,,,,,,0,,,91,72
130560,note_on,0,0,1,,,,,,,,,,,,,,,0,,,95,85
130560,control_change,150,0,2,,,,,,,,,,,,,,,0,64,0,,
130600,set_tempo,1960,1,0,,,,,,,,,,,,419580,,,,,,,
130624,control_change,64,0,2,,,,,,,,,,,,,,,0,64,127,,
130650,note_on,26,0,2,,,,,,,,,,,,,,,0,,,41,0
130680,note_on,0,0,1,,,,,,,,,,,,,,,0,,,91,0
130680,note_on,30,0,2,,,,,,,,,,,,,,,0,,,53,88
130680,note_on,120,0,1,,,,,,,,,,,,,,,0,,,95,0
130680,note_on,0,0,1,,,,,,,,,,,,,,,0,,,86,0
130680,note_on,0,0,1,,,,,,,,,,,,,,,0,,,83,86
130720,set_tempo,120,1,0,,,,,,,,,,,,421053,,,,,,,
130770,note_on,90,0,2,,,,,,,,,,,,,,,0,,,53,0
130800,note_on,30,0,2,,,,,,,,,,,,,,,0,,,41,89
130800,note_on,120,0,1,,,,,,,,,,,,,,,0,,,83,0
130800,note_on,0,0,1,,,,,,,,,,,,,,,0,,,91,73
130800,note_on,0,0,1,,,,,,,,,,,,,,,0,,,95,87
130800,set_tempo,80,1,0,,,,,,,,,,,,422535,,,,,,,
130880,set_tempo,80,1,0,,,,,,,,,,,,424028,,,,,,,
130890,note_on,90,0,2,,,,,,,,,,,,,,,0,,,41,0
130920,note_on,0,0,1,,,,,,,,,,,,,,,0,,,83,89
130920,note_on,0,0,1,,,,,,,,,,,,,,,0,,,91,0
130920,note_on,120,0,1,,,,,,,,,,,,,,,0,,,95,0
130920,note_on,30,0,2,,,,,,,,,,,,,,,0,,,53,91
130960,set_tempo,80,1,0,,,,,,,,,,,,425532,,,,,,,
131010,note_on,90,0,2,,,,,,,,,,,,,,,0,,,53,0
131040,note_on,0,0,1,,,,,,,,,,,,,,,0,,,91,76
131040,note_on,0,0,1,,,,,,,,,,,,,,,0,,,96,90
131040,note_on,120,0,1,,,,,,,,,,,,,,,0,,,83,0
131040,note_on,30,0,2,,,,,,,,,,,,,,,0,,,40,92
131040,set_tempo,80,1,0,,,,,,,,,,,,427046,,,,,,,
131051,control_change,11,0,2,,,,,,,,,,,,,,,0,64,0,,
131120,set_tempo,80,1,0,,,,,,,,,,,,428571,,,,,,,
131130,note_on,79,0,2,,,,,,,,,,,,,,,0,,,40,0
131139,control_change,9,0,2,,,,,,,,,,,,,,,0,64,127,,
131160,note_on,0,0,1,,,,,,,,,,,,,,,0,,,84,92
131160,note_on,21,0,2,,,,,,,,,,,,,,,0,,,52,93
131160,note_on,0,0,1,,,,,,,,,,,,,,,0,,,96,0
131160,note_on,120,0,1,,,,,,,,,,,,,,,0,,,91,0
131200,set_tempo,80,1,0,,,,,,,,,,,,430108,,,,,,,
131250,note_on,90,0,2,,,,,,,,,,,,,,,0,,,52,0
131280,note_on,0,0,1,,,,,,,,,,,,,,,0,,,91,79
131280,set_tempo,80,1,0,,,,,,,,,,,,431655,,,,,,,
131280,note_on,0,0,1,,,,,,,,,,,,,,,0,,,96,93
131280,note_on,120,0,1,,,,,,,,,,,,,,,0,,,84,0
131280,note_on,30,0,2,,,,,,,,,,,,,,,0,,,40,94
131360,set_tempo,80,1,0,,,,,,,,,,,,433213,,,,,,,
131370,note_on,90,0,2,,,,,,,,,,,,,,,0,,,40,0
131400,note_on,30,0,2,,,,,,,,,,,,,,,0,,,52,96
131400,note_on,0,0,1,,,,,,,,,,,,,,,0,,,84,94
131400,note_on,0,0,1,,,,,,,,,,,,,,,0,,,96,0
131400,note_on,120,0,1,,,,,,,,,,,,,,,0,,,91,0
131440,set_tempo,80,1,0,,,,,,,,,,,,434783,,,,,,,
131490,note_on,90,0,2,,,,,,,,,,,,,,,0,,,52,0
131520,note_on,30,0,2,,,,,,,,,,,,,,,0,,,38,97
131520,set_tempo,80,1,0,,,,,,,,,,,,436364,,,,,,,
131520,note_on,0,0,1,,,,,,,,,,,,,,,0,,,101,94
131520,note_on,0,0,1,,,,,,,,,,,,,,,0,,,96,79
131520,note_on,120,0,1,,,,,,,,,,,,,,,0,,,84,0
131527,control_change,7,0,2,,,,,,,,,,,,,,,0,64,0,,
131610,note_on,83,0,2,,,,,,,,,,,,,,,0,,,38,0
131619,control_change,9,0,2,,,,,,,,,,,,,,,0,64,127,,
131640,note_on,120,0,1,,,,,,,,,,,,,,,0,,,96,0
131640,note_on,0,0,1,,,,,,,,,,,,,,,0,,,101,0
131640,note_on,21,0,2,,,,,,,,,,,,,,,0,,,50,94
131640,note_on,0,0,1,,,,,,,,,,,,,,,0,,,89,94
131730,note_on,90,0,2,,,,,,,,,,,,,,,0,,,50,0
131760,note_on,30,0,2,,,,,,,,,,,,,,,0,,,38,97
131760,note_on,120,0,1,,,,,,,,,,,,,,,0,,,89,0
131760,note_on,0,0,1,,,,,,,,,,,,,,,0,,,101,94
131760,note_on,0,0,1,,,,,,,,,,,,,,,0,,,96,79
131850,note_on,90,0,2,,,,,,,,,,,,,,,0,,,38,0
131880,note_on,0,0,1,,,,,,,,,,,,,,,0,,,89,94
131880,note_on,30,0,2,,,,,,,,,,,,,,,0,,,50,92
131880,note_on,120,0,1,,,,,,,,,,,,,,,0,,,96,0
131880,note_on,0,0,1,,,,,,,,,,,,,,,0,,,101,0
131960,set_tempo,440,1,0,,,,,,,,,,,,436364,,,,,,,
131970,note_on,90,0,2,,,,,,,,,,,,,,,0,,,50,0
132000,note_on,30,0,2,,,,,,,,,,,,,,,0,,,43,97
132000,note_on,120,0,1,,,,,,,,,,,,,,,0,,,89,0
132000,note_on,0,0,1,,,,,,,,,,,,,,,0,,,95,79
132000,note_on,0,0,1,,,,,,,,,,,,,,,0,,,101,94
132000,set_tempo,40,1,0,,,,,,,,,,,,441176,,,,,,,
132010,control_change,10,0,2,,,,,,,,,,,,,,,0,64,0,,
132040,set_tempo,40,1,0,,,,,,,,,,,,446097,,,,,,,
132049,control_change,39,0,2,,,,,,,,,,,,,,,0,64,127,,
132080,set_tempo,40,1,0,,,,,,,,,,,,452830,,,,,,,
132090,note_on,41,0,2,,,,,,,,,,,,,,,0,,,43,0
132120,note_on,0,0,1,,,,,,,,,,,,,,,0,,,95,0
132120,note_on,0,0,1,,,,,,,,,,,,,,,0,,,89,94
132120,note_on,120,0,1,,,,,,,,,,,,,,,0,,,101,0
132120,note_on,30,0,2,,,,,,,,,,,,,,,0,,,55,92
132120,set_tempo,40,1,0,,,,,,,,,,,,459770,,,,,,,
132160,set_tempo,40,1,0,,,,,,,,,,,,466926,,,,,,,
132200,set_tempo,40,1,0,,,,,,,,,,,,474308,,,,,,,
132210,note_on,90,0,2,,,,,,,,,,,,,,,0,,,55,0
132240,note_on,30,0,2,,,,,,,,,,,,,,,0,,,43,92
132240,note_on,120,0,1,,,,,,,,,,,,,,,0,,,89,0
132240,set_tempo,40,1,0,,,,,,,,,,,,481928,,,,,,,
132240,note_on,0,0,1,,,,,,,,,,,,,,,0,,,95,79
132240,note_on,0,0,1,,,,,,,,,,,,,,,0,,,101,94
132280,set_tempo,40,1,0,,,,,,,,,,,,487805,,,,,,,
132320,set_tempo,40,1,0,,,,,,,,,,,,495868,,,,,,,
132330,note_on,90,0,2,,,,,,,,,,,,,,,0,,,43,0
132360,note_on,120,0,1,,,,,,,,,,,,,,,0,,,101,0
132360,note_on,0,0,1,,,,,,,,,,,,,,,0,,,95,0
132360,note_on,0,0,1,,,,,,,,,,,,,,,0,,,89,94
132360,note_on,30,0,2,,,,,,,,,,,,,,,0,,,55,92
132360,set_tempo,40,1,0,,,,,,,,,,,,504202,,,,,,,
132400,set_tempo,40,1,0,,,,,,,,,,,,512821,,,,,,,
132440,set_tempo,40,1,0,,,,,,,,,,,,521739,,,,,,,
132450,note_on,90,0,2,,,,,,,,,,,,,,,0,,,55,0
132480,note_on,0,0,2,,,,,,,,,,,,,,,0,,,56,101
132480,note_on,0,0,1,,,,,,,,,,,,,,,0,,,95,84
132480,note_on,0,0,1,,,,,,,,,,,,,,,0,,,88,80
132480,note_on,120,0,1,,,,,,,,,,,,,,,0,,,89,0
132480,set_tempo,40,1,0,,,,,,,,,,,,597015,,,,,,,
132480,control_change,30,0,2,,,,,,,,,,,,,,,0,64,0,,
132480,note_on,0,0,1,,,,,,,,,,,,,,,0,,,100,99
132480,note_on,0,0,2,,,,,,,,,,,,,,,0,,,44,82
132810,note_on,330,0,1,,,,,,,,,,,,,,,0,,,100,0
132810,note_on,0,0,1,,,,,,,,,,,,,,,0,,,95,0
132810,note_on,0,0,1,,,,,,,,,,,,,,,0,,,88,0
132810,note_on,0,0,2,,,,,,,,,,,,,,,0,,,44,0
132810,note_on,330,0,2,,,,,,,,,,,,,,,0,,,56,0
132840,note_on,0,0,1,,,,,,,,,,,,,,,0,,,64,94
132840,note_on,0,0,1,,,,,,,,,,,,,,,0,,,59,79
132840,note_on,30,0,1,,,,,,,,,,,,,,,0,,,52,79
132840,note_on,30,0,2,,,,,,,,,,,,,,,0,,,32,78
132840,note_on,0,0,2,,,,,,,,,,,,,,,0,,,44,92
132930,note_on,0,0,1,,,,,,,,,,,,,,,0,,,52,0
132930,note_on,0,0,2,,,,,,,,,,,,,,,0,,,32,0
132930,note_on,90,0,2,,,,,,,,,,,,,,,0,,,44,0
132930,note_on,0,0,1,,,,,,,,,,,,,,,0,,,59,0
132930,note_on,90,0,1,,,,,,,,,,,,,,,0,,,64,0
132960,note_on,0,0,2,,,,,,,,,,,,,,,0,,,44,86
132960,note_on,30,0,2,,,,,,,,,,,,,,,0,,,32,73
132960,set_tempo,480,1,0,,,,,,,,,,,,576923,,,,,,,
132960,note_on,30,0,1,,,,,,,,,,,,,,,0,,,64,88
132960,note_on,0,0,1,,,,,,,,,,,,,,,0,,,52,74
132960,note_on,0,0,1,,,,,,,,,,,,,,,0,,,59,74
133920,note_on,0,0,1,,,,,,,,,,,,,,,0,,,62,65
133920,note_on,960,0,1,,,,,,,,,,,,,,,0,,,64,0
134400,note_on,0,0,2,,,,,,,,,,,,,,,0,,,32,0
134400,note_on,0,0,1,,,,,,,,,,,,,,,0,,,59,0
134400,note_on,0,0,1,,,,,,,,,,,,,,,0,,,52,0
134400,note_on,0,0,1,,,,,,,,,,,,,,,0,,,58,35
134400,note_on,0,0,1,,,,,,,,,,,,,,,0,,,61,42
134400,note_on,480,0,1,,,,,,,,,,,,,,,0,,,62,0
134400,set_tempo,1440,1,0,,,,,,,,,,,,444444,,,,,,,
134400,note_on,1440,0,2,,,,,,,,,,,,,,,0,,,44,0
134400,note_on,0,0,2,,,,,,,,,,,,,,,0,,,31,34
134478,control_change,78,0,2,,,,,,,,,,,,,,,0,64,127,,
134520,note_on,0,0,1,,,,,,,,,,,,,,,0,,,52,42
134520,note_on,0,0,1,,,,,,,,,,,,,,,0,,,58,0
134520,note_on,120,0,1,,,,,,,,,,,,,,,0,,,61,0
134520,set_tempo,120,1,0,,,,,,,,,,,,442804,,,,,,,
134520,note_on,0,0,2,,,,,,,,,,,,,,,0,,,43,34
134520,note_on,42,0,2,,,,,,,,,,,,,,,0,,,31,0
134620,set_tempo,100,1,0,,,,,,,,,,,,441176,,,,,,,
134640,note_on,0,0,2,,,,,,,,,,,,,,,0,,,31,35
134640,note_on,0,0,1,,,,,,,,,,,,,,,0,,,61,43
134640,note_on,0,0,1,,,,,,,,,,,,,,,0,,,58,36
134640,note_on,120,0,1,,,,,,,,,,,,,,,0,,,52,0
134640,note_on,120,0,2,,,,,,,,,,,,,,,0,,,43,0
134720,set_tempo,100,1,0,,,,,,,,,,,,439560,,,,,,,
134760,note_on,0,0,2,,,,,,,,,,,,,,,0,,,43,35
134760,note_on,0,0,1,,,,,,,,,,,,,,,0,,,52,43
134760,note_on,120,0,1,,,,,,,,,,,,,,,0,,,61,0
134760,note_on,0,0,1,,,,,,,,,,,,,,,0,,,58,0
134760,note_on,120,0,2,,,,,,,,,,,,,,,0,,,31,0
134820,set_tempo,100,1,0,,,,,,,,,,,,437956,,,,,,,
134880,note_on,120,0,1,,,,,,,,,,,,,,,0,,,52,0
134880,note_on,0,0,1,,,,,,,,,,,,,,,0,,,58,37
134880,note_on,0,0,1,,,,,,,,,,,,,,,0,,,61,44
134880,note_on,0,0,2,,,,,,,,,,,,,,,0,,,31,36
134880,note_on,120,0,2,,,,,,,,,,,,,,,0,,,43,0
134920,set_tempo,100,1,0,,,,,,,,,,,,436364,,,,,,,
135000,note_on,120,0,2,,,,,,,,,,,,,,,0,,,31,0
135000,note_on,120,0,1,,,,,,,,,,,,,,,0,,,58,0
135000,note_on,0,0,1,,,,,,,,,,,,,,,0,,,61,0
135000,note_on,0,0,1,,,,,,,,,,,,,,,0,,,52,45
135000,note_on,0,0,2,,,,,,,,,,,,,,,0,,,43,36
135020,set_tempo,100,1,0,,,,,,,,,,,,434783,,,,,,,
135120,note_on,0,0,2,,,,,,,,,,,,,,,0,,,31,37
135120,note_on,120,0,2,,,,,,,,,,,,,,,0,,,43,0
135120,set_tempo,100,1,0,,,,,,,,,,,,433213,,,,,,,
135120,note_on,0,0,1,,,,,,,,,,,,,,,0,,,58,38
135120,note_on,120,0,1,,,,,,,,,,,,,,,0,,,52,0
135120,note_on,0,0,1,,,,,,,,,,,,,,,0,,,61,45
135220,set_tempo,100,1,0,,,,,,,,,,,,431655,,,,,,,
135240,note_on,120,0,2,,,,,,,,,,,,,,,0,,,31,0
135240,note_on,0,0,2,,,,,,,,,,,,,,,0,,,43,37
135240,note_on,120,0,1,,,,,,,,,,,,,,,0,,,61,0
135240,note_on,0,0,1,,,,,,,,,,,,,,,0,,,58,0
135240,note_on,0,0,1,,,,,,,,,,,,,,,0,,,52,46
135320,set_tempo,100,1,0,,,,,,,,,,,,430108,,,,,,,
135360,note_on,120,0,1,,,,,,,,,,,,,,,0,,,52,0
135360,note_on,0,0,2,,,,,,,,,,,,,,,0,,,31,38
135360,note_on,120,0,2,,,,,,,,,,,,,,,0,,,43,0
135360,note_on,0,0,1,,,,,,,,,,,,,,,0,,,61,39
135360,note_on,0,0,1,,,,,,,,,,,,,,,0,,,64,46
135420,set_tempo,100,1,0,,,,,,,,,,,,428571,,,,,,,
135480,note_on,120,0,2,,,,,,,,,,,,,,,0,,,31,0
135480,note_on,0,0,1,,,,,,,,,,,,,,,0,,,58,47
135480,note_on,0,0,1,,,,,,,,,,,,,,,0,,,61,0
135480,note_on,0,0,2,,,,,,,,,,,,,,,0,,,43,38
135480,note_on,120,0,1,,,,,,,,,,,,,,,0,,,64,0
135520,set_tempo,100,1,0,,,,,,,,,,,,427046,,,,,,,
135600,note_on,0,0,1,,,,,,,,,,,,,,,0,,,61,39
135600,note_on,120,0,1,,,,,,,,,,,,,,,0,,,58,0
135600,note_on,0,0,2,,,,,,,,,,,,,,,0,,,31,39
135600,note_on,120,0,2,,,,,,,,,,,,,,,0,,,43,0
135600,note_on,0,0,1,,,,,,,,,,,,,,,0,,,64,47
135620,set_tempo,100,1,0,,,,,,,,,,,,425532,,,,,,,
135720,note_on,0,0,2,,,,,,,,,,,,,,,0,,,43,39
135720,note_on,120,0,2,,,,,,,,,,,,,,,0,,,31,0
135720,set_tempo,100,1,0,,,,,,,,,,,,424028,,,,,,,
135720,note_on,120,0,1,,,,,,,,,,,,,,,0,,,64,0
135720,note_on,0,0,1,,,,,,,,,,,,,,,0,,,58,48
135720,note_on,0,0,1,,,,,,,,,,,,,,,0,,,61,0
135820,set_tempo,100,1,0,,,,,,,,,,,,422535,,,,,,,
135840,note_on,0,0,1,,,,,,,,,,,,,,,0,,,61,40
135840,note_on,120,0,1,,,,,,,,,,,,,,,0,,,58,0
135840,note_on,0,0,2,,,,,,,,,,,,,,,0,,,31,40
135840,note_on,120,0,2,,,,,,,,,,,,,,,0,,,43,0
135840,note_on,0,0,1,,,,,,,,,,,,,,,0,,,64,48
135920,set_tempo,100,1,0,,,,,,,,,,,,421053,,,,,,,
135960,note_on,120,0,2,,,,,,,,,,,,,,,0,,,31,0
135960,note_on,0,0,1,,,,,,,,,,,,,,,0,,,61,0
135960,note_on,0,0,2,,,,,,,,,,,,,,,0,,,43,40
135960,note_on,0,0,1,,,,,,,,,,,,,,,0,,,58,49
135960,note_on,120,0,1,,,,,,,,,,,,,,,0,,,64,0
136020,set_tempo,100,1,0,,,,,,,,,,,,419580,,,,,,,
136080,note_on,120,0,1,,,,,,,,,,,,,,,0,,,58,0
136080,note_on,0,0,1,,,,,,,,,,,,,,,0,,,61,42
136080,note_on,0,0,1,,,,,,,,,,,,,,,0,,,64,50
136080,note_on,120,0,2,,,,,,,,,,,,,,,0,,,43,0
136080,note_on,0,0,2,,,,,,,,,,,,,,,0,,,31,41
136120,set_tempo,100,1,0,,,,,,,,,,,,418118,,,,,,,
136200,note_on,0,0,2,,,,,,,,,,,,,,,0,,,43,41
136200,note_on,0,0,1,,,,,,,,,,,,,,,0,,,58,50
136200,note_on,0,0,1,,,,,,,,,,,,,,,0,,,61,0
136200,note_on,120,0,1,,,,,,,,,,,,,,,0,,,64,0
136200,note_on,120,0,2,,,,,,,,,,,,,,,0,,,31,0
136220,set_tempo,100,1,0,,,,,,,,,,,,416667,,,,,,,
136320,note_on,0,0,1,,,,,,,,,,,,,,,0,,,70,50
136320,note_on,120,0,1,,,,,,,,,,,,,,,0,,,58,0
136320,note_on,0,0,2,,,,,,,,,,,,,,,0,,,43,46
136320,note_on,0,0,1,,,,,,,,,,,,,,,0,,,64,42
136320,set_tempo,100,1,0,,,,,,,,,,,,412371,,,,,,,
136320,note_on,120,0,2,,,,,,,,,,,,,,,0,,,43,0
136329,control_change,9,0,2,,,,,,,,,,,,,,,0,64,0,,
136352,control_change,23,0,2,,,,,,,,,,,,,,,0,64,127,,
136420,set_tempo,100,1,0,,,,,,,,,,,,410959,,,,,,,
136440,note_on,0,0,1,,,,,,,,,,,,,,,0,,,64,0
136440,note_on,88,0,2,,,,,,,,,,,,,,,0,,,43,0
136440,note_on,0,0,2,,,,,,,,,,,,,,,0,,,55,43
136440,note_on,120,0,1,,,,,,,,,,,,,,,0,,,70,0
136440,note_on,0,0,1,,,,,,,,,,,,,,,0,,,61,52
136520,set_tempo,100,1,0,,,,,,,,,,,,409556,,,,,,,
136560,note_on,120,0,1,,,,,,,,,,,,,,,0,,,61,0
136560,note_on,0,0,1,,,,,,,,,,,,,,,0,,,64,45
136560,note_on,0,0,1,,,,,,,,,,,,,,,0,,,70,54
136560,note_on,0,0,2,,,,,,,,,,,,,,,0,,,43,45
136560,note_on,120,0,2,,,,,,,,,,,,,,,0,,,55,0
136620,set_tempo,100,1,0,,,,,,,,,,,,408163,,,,,,,
136680,note_on,120,0,1,,,,,,,,,,,,,,,0,,,70,0
136680,note_on,0,0,1,,,,,,,,,,,,,,,0,,,64,0
136680,note_on,0,0,1,,,,,,,,,,,,,,,0,,,61,56
136680,note_on,120,0,2,,,,,,,,,,,,,,,0,,,43,0
136680,note_on,0,0,2,,,,,,,,,,,,,,,0,,,55,47
136700,set_tempo,80,1,0,,,,,,,,,,,,406780,,,,,,,
136800,note_on,120,0,2,,,,,,,,,,,,,,,0,,,55,0
136800,note_on,120,0,1,,,,,,,,,,,,,,,0,,,61,0
136800,note_on,0,0,1,,,,,,,,,,,,,,,0,,,70,51
136800,note_on,0,0,1,,,,,,,,,,,,,,,0,,,73,61
136800,set_tempo,100,1,0,,,,,,,,,,,,405405,,,,,,,
136800,note_on,0,0,2,,,,,,,,,,,,,,,0,,,43,49
136900,set_tempo,100,1,0,,,,,,,,,,,,404040,,,,,,,
136920,note_on,0,0,2,,,,,,,,,,,,,,,0,,,55,51
136920,note_on,120,0,2,,,,,,,,,,,,,,,0,,,43,0
136920,note_on,120,0,1,,,,,,,,,,,,,,,0,,,73,0
136920,note_on,0,0,1,,,,,,,,,,,,,,,0,,,70,0
136920,note_on,0,0,1,,,,,,,,,,,,,,,0,,,64,64
136980,set_tempo,80,1,0,,,,,,,,,,,,402685,,,,,,,
137040,note_on,120,0,1,,,,,,,,,,,,,,,0,,,64,0
137040,note_on,0,0,1,,,,,,,,,,,,,,,0,,,73,66
137040,note_on,0,0,2,,,,,,,,,,,,,,,0,,,43,53
137040,note_on,120,0,2,,,,,,,,,,,,,,,0,,,55,0
137040,note_on,0,0,1,,,,,,,,,,,,,,,0,,,70,56
137080,set_tempo,100,1,0,,,,,,,,,,,,401338,,,,,,,
137160,note_on,120,0,2,,,,,,,,,,,,,,,0,,,43,0
137160,note_on,0,0,2,,,,,,,,,,,,,,,0,,,55,56
137160,note_on,120,0,1,,,,,,,,,,,,,,,0,,,73,0
137160,note_on,0,0,1,,,,,,,,,,,,,,,0,,,70,0
137160,note_on,0,0,1,,,,,,,,,,,,,,,0,,,64,70
137180,set_tempo,100,1,0,,,,,,,,,,,,400000,,,,,,,
137260,set_tempo,80,1,0,,,,,,,,,,,,398671,,,,,,,
137280,note_on,120,0,1,,,,,,,,,,,,,,,0,,,64,0
137280,note_on,0,0,1,,,,,,,,,,,,,,,0,,,73,61
137280,note_on,0,0,1,,,,,,,,,,,,,,,0,,,76,72
137280,note_on,120,0,2,,,,,,,,,,,,,,,0,,,55,0
137280,note_on,0,0,2,,,,,,,,,,,,,,,0,,,55,57
137306,control_change,26,0,2,,,,,,,,,,,,,,,0,64,0,,
137329,control_change,23,0,2,,,,,,,,,,,,,,,0,64,127,,
137360,set_tempo,100,1,0,,,,,,,,,,,,397351,,,,,,,
137400,note_on,0,0,1,,,,,,,,,,,,,,,0,,,73,0
137400,note_on,0,0,1,,,,,,,,,,,,,,,0,,,70,75
137400,note_on,0,0,2,,,,,,,,,,,,,,,0,,,67,59
137400,note_on,71,0,2,,,,,,,,,,,,,,,0,,,55,0
137400,note_on,120,0,1,,,,,,,,,,,,,,,0,,,76,0
137460,set_tempo,100,1,0,,,,,,,,,,,,396040,,,,,,,
137520,note_on,120,0,1,,,,,,,,,,,,,,,0,,,70,0
137520,note_on,0,0,1,,,,,,,,,,,,,,,0,,,82,78
137520,note_on,120,0,2,,,,,,,,,,,,,,,0,,,67,0
137520,note_on,0,0,1,,,,,,,,,,,,,,,0,,,76,65
137520,note_on,0,0,2,,,,,,,,,,,,,,,0,,,55,61
137540,set_tempo,80,1,0,,,,,,,,,,,,394737,,,,,,,
137640,set_tempo,100,1,0,,,,,,,,,,,,393443,,,,,,,
137640,note_on,120,0,1,,,,,,,,,,,,,,,0,,,82,0
137640,note_on,0,0,1,,,,,,,,,,,,,,,0,,,76,0
137640,note_on,0,0,1,,,,,,,,,,,,,,,0,,,73,81
137640,note_on,120,0,2,,,,,,,,,,,,,,,0,,,55,0
137640,note_on,0,0,2,,,,,,,,,,,,,,,0,,,67,63
137740,set_tempo,100,1,0,,,,,,,,,,,,392157,,,,,,,
137760,note_on,0,0,1,,,,,,,,,,,,,,,0,,,85,83
137760,note_on,0,0,1,,,,,,,,,,,,,,,0,,,82,70
137760,note_on,120,0,1,,,,,,,,,,,,,,,0,,,73,0
137760,note_on,120,0,2,,,,,,,,,,,,,,,0,,,67,0
137760,note_on,0,0,2,,,,,,,,,,,,,,,0,,,55,65
137820,set_tempo,80,1,0,,,,,,,,,,,,390879,,,,,,,
137880,note_on,120,0,1,,,,,,,,,,,,,,,0,,,85,0
137880,note_on,0,0,2,,,,,,,,,,,,,,,0,,,67,68
137880,note_on,120,0,2,,,,,,,,,,,,,,,0,,,55,0
137880,note_on,0,0,1,,,,,,,,,,,,,,,0,,,82,0
137880,note_on,0,0,1,,,,,,,,,,,,,,,0,,,76,87
137920,set_tempo,100,1,0,,,,,,,,,,,,389610,,,,,,,
138000,note_on,0,0,2,,,,,,,,,,,,,,,0,,,55,70
138000,note_on,120,0,1,,,,,,,,,,,,,,,0,,,76,0
138000,note_on,0,0,1,,,,,,,,,,,,,,,0,,,88,89
138000,note_on,120,0,2,,,,,,,,,,,,,,,0,,,67,0
138000,note_on,0,0,1,,,,,,,,,,,,,,,0,,,85,75
138020,set_tempo,100,1,0,,,,,,,,,,,,388350,,,,,,,
138100,set_tempo,80,1,0,,,,,,,,,,,,387097,,,,,,,
138104,set_tempo,4,1,0,,,,,,,,,,,,398671,,,,,,,
138120,note_on,120,0,1,,,,,,,,,,,,,,,0,,,85,0
138120,note_on,0,0,1,,,,,,,,,,,,,,,0,,,82,92
138120,note_on,0,0,2,,,,,,,,,,,,,,,0,,,67,72
138120,note_on,120,0,2,,,,,,,,,,,,,,,0,,,55,0
138120,note_on,0,0,1,,,,,,,,,,,,,,,0,,,88,0
138120,set_tempo,16,1,0,,,,,,,,,,,,600000,,,,,,,
138240,note_on,0,0,2,,,,,,,,,,,,,,,0,,,53,72
138240,note_on,0,0,2,,,,,,,,,,,,,,,0,,,65,85
138240,note_on,120,0,2,,,,,,,,,,,,,,,0,,,67,0
138240,set_tempo,120,1,0,,,,,,,,,,,,449438,,,,,,,
138240,note_on,0,0,1,,,,,,,,,,,,,,,0,,,86,88
138240,note_on,120,0,1,,,,,,,,,,,,,,,0,,,82,0
138240,note_on,0,0,1,,,,,,,,,,,,,,,0,,,89,104
138240,note_on,0,0,1,,,,,,,,,,,,,,,0,,,81,88
138246,control_change,6,0,2,,,,,,,,,,,,,,,0,64,0,,
138427,control_change,181,0,2,,,,,,,,,,,,,,,0,64,127,,
138720,note_on,0,0,2,,,,,,,,,,,,,,,0,,,50,71
138720,note_on,0,0,2,,,,,,,,,,,,,,,0,,,62,83
138720,note_on,0,0,2,,,,,,,,,,,,,,,0,,,65,0
138720,note_on,293,0,2,,,,,,,,,,,,,,,0,,,53,0
138720,note_on,480,0,1,,,,,,,,,,,,,,,0,,,81,0
138720,note_on,0,0,1,,,,,,,,,,,,,,,0,,,86,0
138720,note_on,0,0,1,,,,,,,,,,,,,,,0,,,89,0
138720,set_tempo,480,1,0,,,,,,,,,,,,466926,,,,,,,
138720,note_on,0,0,1,,,,,,,,,,,,,,,0,,,89,83
138720,note_on,0,0,1,,,,,,,,,,,,,,,0,,,86,83
138720,note_on,0,0,1,,,,,,,,,,,,,,,0,,,81,83
138720,note_on,0,0,1,,,,,,,,,,,,,,,0,,,93,99
138728,control_change,8,0,2,,,,,,,,,,,,,,,0,64,0,,
138933,control_change,205,0,2,,,,,,,,,,,,,,,0,64,127,,
139200,note_on,0,0,2,,,,,,,,,,,,,,,0,,,55,73
139200,note_on,0,0,2,,,,,,,,,,,,,,,0,,,67,86
139200,note_on,0,0,2,,,,,,,,,,,,,,,0,,,62,0
139200,note_on,267,0,2,,,,,,,,,,,,,,,0,,,50,0
139200,note_on,0,0,1,,,,,,,,,,,,,,,0,,,79,88
139200,note_on,0,0,1,,,,,,,,,,,,,,,0,,,84,88
139200,note_on,0,0,1,,,,,,,,,,,,,,,0,,,88,104
139200,note_on,0,0,1,,,,,,,,,,,,,,,0,,,86,0
139200,note_on,0,0,1,,,,,,,,,,,,,,,0,,,89,0
139200,note_on,0,0,1,,,,,,,,,,,,,,,0,,,93,0
139200,note_on,0,0,1,,,,,,,,,,,,,,,0,,,76,88
139200,note_on,480,0,1,,,,,,,,,,,,,,,0,,,81,0
139200,set_tempo,480,1,0,,,,,,,,,,,,451128,,,,,,,
139209,control_change,9,0,2,,,,,,,,,,,,,,,0,64,0,,
139360,control_change,151,0,2,,,,,,,,,,,,,,,0,64,127,,
139680,set_tempo,480,1,0,,,,,,,,,,,,481928,,,,,,,
139680,note_on,0,0,2,,,,,,,,,,,,,,,0,,,55,82
139680,note_on,0,0,2,,,,,,,,,,,,,,,0,,,43,70
139680,note_on,0,0,1,,,,,,,,,,,,,,,0,,,74,84
139680,note_on,320,0,2,,,,,,,,,,,,,,,0,,,55,0
139680,note_on,0,0,1,,,,,,,,,,,,,,,0,,,79,84
139680,note_on,0,0,1,,,,,,,,,,,,,,,0,,,83,84
139680,note_on,0,0,1,,,,,,,,,,,,,,,0,,,86,101
139680,note_on,0,0,2,,,,,,,,,,,,,,,0,,,67,0
139680,note_on,0,0,1,,,,,,,,,,,,,,,0,,,84,0
139680,note_on,0,0,1,,,,,,,,,,,,,,,0,,,88,0
139680,note_on,480,0,1,,,,,,,,,,,,,,,0,,,76,0
139680,note_on,0,0,1,,,,,,,,,,,,,,,0,,,79,0
139690,control_change,10,0,2,,,,,,,,,,,,,,,0,64,0,,
139840,control_change,150,0,2,,,,,,,,,,,,,,,0,64,127,,
140160,note_on,480,0,1,,,,,,,,,,,,,,,0,,,74,0
140160,note_on,0,0,1,,,,,,,,,,,,,,,0,,,86,0
140160,note_on,0,0,1,,,,,,,,,,,,,,,0,,,83,0
140160,note_on,0,0,1,,,,,,,,,,,,,,,0,,,79,0
140160,note_on,0,0,1,,,,,,,,,,,,,,,0,,,76,89
140160,set_tempo,480,1,0,,,,,,,,,,,,530973,,,,,,,
140160,note_on,0,0,1,,,,,,,,,,,,,,,0,,,88,108
140160,note_on,0,0,1,,,,,,,,,,,,,,,0,,,83,92
140160,control_change,0,0,2,,,,,,,,,,,,,,,0,64,0,,
140160,note_on,320,0,2,,,,,,,,,,,,,,,0,,,55,0
140160,note_on,0,0,2,,,,,,,,,,,,,,,0,,,43,0
140160,note_on,0,0,2,,,,,,,,,,,,,,,0,,,44,82
140160,note_on,0,0,2,,,,,,,,,,,,,,,0,,,56,99
140490,note_on,0,0,1,,,,,,,,,,,,,,,0,,,76,0
140490,note_on,330,0,1,,,,,,,,,,,,,,,0,,,88,0
140490,note_on,0,0,1,,,,,,,,,,,,,,,0,,,83,0
140490,note_on,0,0,2,,,,,,,,,,,,,,,0,,,44,0
140490,note_on,330,0,2,,,,,,,,,,,,,,,0,,,56,0
140520,note_on,0,0,1,,,,,,,,,,,,,,,0,,,64,100
140520,note_on,0,0,2,,,,,,,,,,,,,,,0,,,44,94
140520,note_on,30,0,2,,,,,,,,,,,,,,,0,,,32,79
140520,note_on,30,0,1,,,,,,,,,,,,,,,0,,,52,85
140520,note_on,0,0,1,,,,,,,,,,,,,,,0,,,59,85
140610,note_on,90,0,2,,,,,,,,,,,,,,,0,,,44,0
140610,note_on,0,0,2,,,,,,,,,,,,,,,0,,,32,0
140610,note_on,0,0,1,,,,,,,,,,,,,,,0,,,59,0
140610,note_on,0,0,1,,,,,,,,,,,,,,,0,,,52,0
140610,note_on,90,0,1,,,,,,,,,,,,,,,0,,,64,0
140640,note_on,30,0,1,,,,,,,,,,,,,,,0,,,64,94
140640,note_on,0,0,1,,,,,,,,,,,,,,,0,,,52,79
140640,note_on,0,0,1,,,,,,,,,,,,,,,0,,,59,79
140640,note_on,30,0,2,,,,,,,,,,,,,,,0,,,32,70
140640,note_on,0,0,2,,,,,,,,,,,,,,,0,,,44,83
141600,note_on,960,0,1,,,,,,,,,,,,,,,0,,,64,0
141600,note_on,0,0,1,,,,,,,,,,,,,,,0,,,62,65
142080,note_on,0,0,1,,,,,,,,,,,,,,,0,,,61,42
142080,note_on,0,0,1,,,,,,,,,,,,,,,0,,,58,35
142080,set_tempo,1920,1,0,,,,,,,,,,,,444444,,,,,,,
142080,note_on,1440,0,2,,,,,,,,,,,,,,,0,,,44,0
142080,note_on,0,0,1,,,,,,,,,,,,,,,0,,,52,0
142080,note_on,480,0,1,,,,,,,,,,,,,,,0,,,62,0
142080,note_on,0,0,2,,,,,,,,,,,,,,,0,,,31,34
142080,note_on,0,0,2,,,,,,,,,,,,,,,0,,,32,0
142080,note_on,0,0,1,,,,,,,,,,,,,,,0,,,59,0
142158,control_change,78,0,2,,,,,,,,,,,,,,,0,64,127,,
142200,note_on,120,0,1,,,,,,,,,,,,,,,0,,,61,0
142200,note_on,0,0,1,,,,,,,,,,,,,,,0,,,52,42
142200,note_on,0,0,1,,,,,,,,,,,,,,,0,,,58,0
142200,note_on,0,0,2,,,,,,,,,,,,,,,0,,,43,34
142200,note_on,42,0,2,,,,,,,,,,,,,,,0,,,31,0
142200,set_tempo,120,1,0,,,,,,,,,,,,442804,,,,,,,
142300,set_tempo,100,1,0,,,,,,,,,,,,441176,,,,,,,
142320,note_on,0,0,1,,,,,,,,,,,,,,,0,,,61,43
142320,note_on,0,0,1,,,,,,,,,,,,,,,0,,,58,36
142320,note_on,0,0,2,,,,,,,,,,,,,,,0,,,31,35
142320,note_on,120,0,2,,,,,,,,,,,,,,,0,,,43,0
142320,note_on,120,0,1,,,,,,,,,,,,,,,0,,,52,0
142400,set_tempo,100,1,0,,,,,,,,,,,,439560,,,,,,,
142440,note_on,0,0,2,,,,,,,,,,,,,,,0,,,43,35
142440,note_on,120,0,2,,,,,,,,,,,,,,,0,,,31,0
142440,note_on,120,0,1,,,,,,,,,,,,,,,0,,,61,0
142440,note_on,0,0,1,,,,,,,,,,,,,,,0,,,58,0
142440,note_on,0,0,1,,,,,,,,,,,,,,,0,,,52,43
142500,set_tempo,100,1,0,,,,,,,,,,,,437956,,,,,,,
142560,note_on,0,0,2,,,,,,,,,,,,,,,0,,,31,36
142560,note_on,120,0,1,,,,,,,,,,,,,,,0,,,52,0
142560,note_on,0,0,1,,,,,,,,,,,,,,,0,,,61,44
142560,note_on,0,0,1,,,,,,,,,,,,,,,0,,,58,37
142560,note_on,120,0,2,,,,,,,,,,,,,,,0,,,43,0
142600,set_tempo,100,1,0,,,,,,,,,,,,436364,,,,,,,
142680,note_on,0,0,1,,,,,,,,,,,,,,,0,,,61,0
142680,note_on,0,0,1,,,,,,,,,,,,,,,0,,,52,45
142680,note_on,120,0,1,,,,,,,,,,,,,,,0,,,58,0
142680,note_on,0,0,2,,,,,,,,,,,,,,,0,,,43,36
142680,note_on,120,0,2,,,,,,,,,,,,,,,0,,,31,0
142700,set_tempo,100,1,0,,,,,,,,,,,,434783,,,,,,,
142800,set_tempo,100,1,0,,,,,,,,,,,,433213,,,,,,,
142800,note_on,120,0,2,,,,,,,,,,,,,,,0,,,43,0
142800,note_on,120,0,1,,,,,,,,,,,,,,,0,,,52,0
142800,note_on,0,0,1,,,,,,,,,,,,,,,0,,,61,45
142800,note_on,0,0,1,,,,,,,,,,,,,,,0,,,58,38
142800,note_on,0,0,2,,,,,,,,,,,,,,,0,,,31,37
142900,set_tempo,100,1,0,,,,,,,,,,,,431655,,,,,,,
142920,note_on,0,0,1,,,,,,,,,,,,,,,0,,,58,0
142920,note_on,120,0,2,,,,,,,,,,,,,,,0,,,31,0
142920,note_on,0,0,2,,,,,,,,,,,,,,,0,,,43,37
142920,note_on,120,0,1,,,,,,,,,,,,,,,0,,,61,0
142920,note_on,0,0,1,,,,,,,,,,,,,,,0,,,52,46
143000,set_tempo,100,1,0,,,,,,,,,,,,430108,,,,,,,
143040,note_on,0,0,2,,,,,,,,,,,,,,,0,,,31,38
143040,note_on,120,0,2,,,,,,,,,,,,,,,0,,,43,0
143040,note_on,120,0,1,,,,,,,,,,,,,,,0,,,52,0
143040,note_on,0,0,1,,,,,,,,,,,,,,,0,,,61,39
143040,note_on,0,0,1,,,,,,,,,,,,,,,0,,,64,46
143100,set_tempo,100,1,0,,,,,,,,,,,,428571,,,,,,,
143160,note_on,120,0,1,,,,,,,,,,,,,,,0,,,64,0
143160,note_on,0,0,1,,,,,,,,,,,,,,,0,,,61,0
143160,note_on,0,0,1,,,,,,,,,,,,,,,0,,,58,47
143160,note_on,0,0,2,,,,,,,,,,,,,,,0,,,43,38
143160,note_on,120,0,2,,,,,,,,,,,,,,,0,,,31,0
143200,set_tempo,100,1,0,,,,,,,,,,,,427046,,,,,,,
143280,note_on,120,0,1,,,,,,,,,,,,,,,0,,,58,0
143280,note_on,0,0,1,,,,,,,,,,,,,,,0,,,64,47
143280,note_on,0,0,1,,,,,,,,,,,,,,,0,,,61,39
143280,note_on,120,0,2,,,,,,,,,,,,,,,0,,,43,0
143280,note_on,0,0,2,,,,,,,,,,,,,,,0,,,31,39
143300,set_tempo,100,1,0,,,,,,,,,,,,425532,,,,,,,
143400,note_on,120,0,2,,,,,,,,,,,,,,,0,,,31,0
143400,note_on,0,0,1,,,,,,,,,,,,,,,0,,,58,48
143400,note_on,0,0,1,,,,,,,,,,,,,,,0,,,61,0
143400,note_on,120,0,1,,,,,,,,,,,,,,,0,,,64,0
143400,set_tempo,100,1,0,,,,,,,,,,,,424028,,,,,,,
143400,note_on,0,0,2,,,,,,,,,,,,,,,0,,,43,39
143500,set_tempo,100,1,0,,,,,,,,,,,,422535,,,,,,,
143520,note_on,0,0,1,,,,,,,,,,,,,,,0,,,64,48
143520,note_on,0,0,2,,,,,,,,,,,,,,,0,,,31,40
143520,note_on,0,0,1,,,,,,,,,,,,,,,0,,,61,40
143520,note_on,120,0,1,,,,,,,,,,,,,,,0,,,58,0
143520,note_on,120,0,2,,,,,,,,,,,,,,,0,,,43,0
143600,set_tempo,100,1,0,,,,,,,,,,,,421053,,,,,,,
143640,note_on,120,0,1,,,,,,,,,,,,,,,0,,,64,0
143640,note_on,0,0,1,,,,,,,,,,,,,,,0,,,61,0
143640,note_on,0,0,1,,,,,,,,,,,,,,,0,,,58,49
143640,note_on,120,0,2,,,,,,,,,,,,,,,0,,,31,0
143640,note_on,0,0,2,,,,,,,,,,,,,,,0,,,43,40
143700,set_tempo,100,1,0,,,,,,,,,,,,419580,,,,,,,
143760,note_on,0,0,2,,,,,,,,,,,,,,,0,,,31,41
143760,note_on,120,0,2,,,,,,,,,,,,,,,0,,,43,0
143760,note_on,120,0,1,,,,,,,,,,,,,,,0,,,58,0
143760,note_on,0,0,1,,,,,,,,,,,,,,,0,,,61,42
143760,note_on,0,0,1,,,,,,,,,,,,,,,0,,,64,50
143800,set_tempo,100,1,0,,,,,,,,,,,,418118,,,,,,,
143880,note_on,120,0,1,,,,,,,,,,,,,,,0,,,64,0
143880,note_on,0,0,1,,,,,,,,,,,,,,,0,,,58,50
143880,note_on,0,0,1,,,,,,,,,,,,,,,0,,,61,0
143880,note_on,120,0,2,,,,,,,,,,,,,,,0,,,31,0
143880,note_on,0,0,2,,,,,,,,,,,,,,,0,,,43,41
143900,set_tempo,100,1,0,,,,,,,,,,,,416667,,,,,,,
144000,set_tempo,100,1,0,,,,,,,,,,,,412371,,,,,,,
144000,note_on,0,0,1,,,,,,,,,,,,,,,0,,,70,50
144000,note_on,0,0,1,,,,,,,,,,,,,,,0,,,64,42
144000,note_on,120,0,1,,,,,,,,,,,,,,,0,,,58,0
144000,note_on,0,0,2,,,,,,,,,,,,,,,0,,,43,46
144000,note_on,120,0,2,,,,,,,,,,,,,,,0,,,43,0
144010,control_change,10,0,2,,,,,,,,,,,,,,,0,64,0,,
144030,control_change,20,0,2,,,,,,,,,,,,,,,0,64,127,,
144100,set_tempo,100,1,0,,,,,,,,,,,,410959,,,,,,,
144120,note_on,0,0,2,,,,,,,,,,,,,,,0,,,55,43
144120,note_on,0,0,1,,,,,,,,,,,,,,,0,,,64,0
144120,note_on,0,0,1,,,,,,,,,,,,,,,0,,,61,52
144120,note_on,90,0,2,,,,,,,,,,,,,,,0,,,43,0
144120,note_on,120,0,1,,,,,,,,,,,,,,,0,,,70,0
144200,set_tempo,100,1,0,,,,,,,,,,,,409556,,,,,,,
144240,note_on,0,0,1,,,,,,,,,,,,,,,0,,,70,54
144240,note_on,120,0,1,,,,,,,,,,,,,,,0,,,61,0
144240,note_on,0,0,2,,,,,,,,,,,,,,,0,,,43,45
144240,note_on,120,0,2,,,,,,,,,,,,,,,0,,,55,0
144240,note_on,0,0,1,,,,,,,,,,,,,,,0,,,64,45
144300,set_tempo,100,1,0,,,,,,,,,,,,408163,,,,,,,
144360,note_on,0,0,1,,,,,,,,,,,,,,,0,,,61,56
144360,note_on,120,0,1,,,,,,,,,,,,,,,0,,,70,0
144360,note_on,120,0,2,,,,,,,,,,,,,,,0,,,43,0
144360,note_on,0,0,2,,,,,,,,,,,,,,,0,,,55,47
144360,note_on,0,0,1,,,,,,,,,,,,,,,0,,,64,0
144380,set_tempo,80,1,0,,,,,,,,,,,,406780,,,,,,,
144480,note_on,120,0,1,,,,,,,,,,,,,,,0,,,61,0
144480,note_on,0,0,2,,,,,,,,,,,,,,,0,,,43,49
144480,note_on,0,0,1,,,,,,,,,,,,,,,0,,,70,51
144480,set_tempo,100,1,0,,,,,,,,,,,,405405,,,,,,,
144480,note_on,0,0,1,,,,,,,,,,,,,,,0,,,73,61
144480,note_on,120,0,2,,,,,,,,,,,,,,,0,,,55,0
144580,set_tempo,100,1,0,,,,,,,,,,,,404040,,,,,,,
144600,note_on,0,0,1,,,,,,,,,,,,,,,0,,,64,64
144600,note_on,120,0,2,,,,,,,,,,,,,,,0,,,43,0
144600,note_on,0,0,2,,,,,,,,,,,,,,,0,,,55,51
144600,note_on,120,0,1,,,,,,,,,,,,,,,0,,,73,0
144600,note_on,0,0,1,,,,,,,,,,,,,,,0,,,70,0
144660,set_tempo,80,1,0,,,,,,,,,,,,402685,,,,,,,
144720,note_on,0,0,1,,,,,,,,,,,,,,,0,,,73,66
144720,note_on,120,0,2,,,,,,,,,,,,,,,0,,,55,0
144720,note_on,0,0,2,,,,,,,,,,,,,,,0,,,43,53
144720,note_on,0,0,1,,,,,,,,,,,,,,,0,,,70,56
144720,note_on,120,0,1,,,,,,,,,,,,,,,0,,,64,0
144760,set_tempo,100,1,0,,,,,,,,,,,,401338,,,,,,,
144840,note_on,120,0,1,,,,,,,,,,,,,,,0,,,73,0
144840,note_on,0,0,1,,,,,,,,,,,,,,,0,,,70,0
144840,note_on,0,0,1,,,,,,,,,,,,,,,0,,,64,70
144840,note_on,120,0,2,,,,,,,,,,,,,,,0,,,43,0
144840,note_on,0,0,2,,,,,,,,,,,,,,,0,,,55,56
144860,set_tempo,100,1,0,,,,,,,,,,,,400000,,,,,,,
144940,set_tempo,80,1,0,,,,,,,,,,,,398671,,,,,,,
144960,note_on,0,0,1,,,,,,,,,,,,,,,0,,,76,72
144960,note_on,0,0,1,,,,,,,,,,,,,,,0,,,73,61
144960,note_on,120,0,1,,,,,,,,,,,,,,,0,,,64,0
144960,note_on,120,0,2,,,,,,,,,,,,,,,0,,,55,0
144960,note_on,0,0,2,,,,,,,,,,,,,,,0,,,55,57
144986,control_change,26,0,2,,,,,,,,,,,,,,,0,64,0,,
145009,control_change,23,0,2,,,,,,,,,,,,,,,0,64,127,,
145040,set_tempo,100,1,0,,,,,,,,,,,,397351,,,,,,,
145080,note_on,71,0,2,,,,,,,,,,,,,,,0,,,55,0
145080,note_on,0,0,1,,,,,,,,,,,,,,,0,,,70,75
145080,note_on,0,0,1,,,,,,,,,,,,,,,0,,,73,0
145080,note_on,120,0,1,,,,,,,,,,,,,,,0,,,76,0
145080,note_on,0,0,2,,,,,,,,,,,,,,,0,,,67,59
145140,set_tempo,100,1,0,,,,,,,,,,,,396040,,,,,,,
145200,note_on,0,0,1,,,,,,,,,,,,,,,0,,,82,78
145200,note_on,120,0,1,,,,,,,,,,,,,,,0,,,70,0
145200,note_on,120,0,2,,,,,,,,,,,,,,,0,,,67,0
145200,note_on,0,0,2,,,,,,,,,,,,,,,0,,,55,61
145200,note_on,0,0,1,,,,,,,,,,,,,,,0,,,76,65
145220,set_tempo,80,1,0,,,,,,,,,,,,394737,,,,,,,
145320,note_on,0,0,2,,,,,,,,,,,,,,,0,,,67,63
145320,note_on,120,0,2,,,,,,,,,,,,,,,0,,,55,0
145320,set_tempo,100,1,0,,,,,,,,,,,,393443,,,,,,,
145320,note_on,120,0,1,,,,,,,,,,,,,,,0,,,82,0
145320,note_on,0,0,1,,,,,,,,,,,,,,,0,,,76,0
145320,note_on,0,0,1,,,,,,,,,,,,,,,0,,,73,81
145420,set_tempo,100,1,0,,,,,,,,,,,,392157,,,,,,,
145440,note_on,0,0,2,,,,,,,,,,,,,,,0,,,55,65
145440,note_on,120,0,2,,,,,,,,,,,,,,,0,,,67,0
145440,note_on,0,0,1,,,,,,,,,,,,,,,0,,,85,83
145440,note_on,120,0,1,,,,,,,,,,,,,,,0,,,73,0
145440,note_on,0,0,1,,,,,,,,,,,,,,,0,,,82,70
145500,set_tempo,80,1,0,,,,,,,,,,,,390879,,,,,,,
145560,note_on,0,0,1,,,,,,,,,,,,,,,0,,,76,87
145560,note_on,120,0,1,,,,,,,,,,,,,,,0,,,85,0
145560,note_on,0,0,1,,,,,,,,,,,,,,,0,,,82,0
145560,note_on,120,0,2,,,,,,,,,,,,,,,0,,,55,0
145560,note_on,0,0,2,,,,,,,,,,,,,,,0,,,67,68
145600,set_tempo,100,1,0,,,,,,,,,,,,389610,,,,,,,
145680,note_on,120,0,1,,,,,,,,,,,,,,,0,,,76,0
145680,note_on,0,0,1,,,,,,,,,,,,,,,0,,,88,89
145680,note_on,0,0,1,,,,,,,,,,,,,,,0,,,85,75
145680,note_on,120,0,2,,,,,,,,,,,,,,,0,,,67,0
145680,note_on,0,0,2,,,,,,,,,,,,,,,0,,,55,70
145700,set_tempo,100,1,0,,,,,,,,,,,,388350,,,,,,,
145780,set_tempo,80,1,0,,,,,,,,,,,,387097,,,,,,,
145784,set_tempo,4,1,0,,,,,,,,,,,,398671,,,,,,,
145800,note_on,0,0,1,,,,,,,,,,,,,,,0,,,88,0
145800,note_on,120,0,1,,,,,,,,,,,,,,,0,,,85,0
145800,note_on,120,0,2,,,,,,,,,,,,,,,0,,,55,0
145800,set_tempo,16,1,0,,,,,,,,,,,,600000,,,,,,,
145800,note_on,0,0,2,,,,,,,,,,,,,,,0,,,67,72
145800,note_on,0,0,1,,,,,,,,,,,,,,,0,,,82,92
145920,note_on,0,0,2,,,,,,,,,,,,,,,0,,,29,72
145920,control_change,0,0,2,,,,,,,,,,,,,,,0,64,0,,
145920,note_on,0,0,2,,,,,,,,,,,,,,,0,,,41,86
145920,note_on,120,0,2,,,,,,,,,,,,,,,0,,,67,0
145920,note_on,0,0,1,,,,,,,,,,,,,,,0,,,77,82
145920,set_tempo,120,1,0,,,,,,,,,,,,428571,,,,,,,
145920,note_on,0,0,1,,,,,,,,,,,,,,,0,,,89,98
145920,note_on,0,0,1,,,,,,,,,,,,,,,0,,,86,82
145920,note_on,120,0,1,,,,,,,,,,,,,,,0,,,82,0
145920,note_on,0,0,1,,,,,,,,,,,,,,,0,,,82,82
145982,control_change,62,0,2,,,,,,,,,,,,,,,0,64,127,,
146280,note_on,0,0,2,,,,,,,,,,,,,,,0,,,41,64
146280,note_on,0,0,2,,,,,,,,,,,,,,,0,,,29,0
146280,note_on,298,0,2,,,,,,,,,,,,,,,0,,,41,0
146280,set_tempo,360,1,0,,,,,,,,,,,,396040,,,,,,,
146280,note_on,0,0,1,,,,,,,,,,,,,,,0,,,77,0
146280,note_on,360,0,1,,,,,,,,,,,,,,,0,,,89,0
146280,note_on,0,0,1,,,,,,,,,,,,,,,0,,,82,0
146280,note_on,0,0,1,,,,,,,,,,,,,,,0,,,77,84
146280,note_on,0,0,1,,,,,,,,,,,,,,,0,,,86,0
146280,note_on,0,0,1,,,,,,,,,,,,,,,0,,,70,71
146280,note_on,0,0,2,,,,,,,,,,,,,,,0,,,53,75
146280,note_on,0,0,1,,,,,,,,,,,,,,,0,,,65,71
146280,note_on,0,0,1,,,,,,,,,,,,,,,0,,,74,84
146370,note_on,90,0,2,,,,,,,,,,,,,,,0,,,53,0
146370,note_on,0,0,2,,,,,,,,,,,,,,,0,,,41,0
146370,note_on,0,0,1,,,,,,,,,,,,,,,0,,,65,0
146370,note_on,0,0,1,,,,,,,,,,,,,,,0,,,74,0
146370,note_on,0,0,1,,,,,,,,,,,,,,,0,,,70,0
146370,note_on,90,0,1,,,,,,,,,,,,,,,0,,,77,0
146400,note_on,0,0,1,,,,,,,,,,,,,,,0,,,74,88
146400,note_on,0,0,1,,,,,,,,,,,,,,,0,,,70,74
146400,note_on,30,0,2,,,,,,,,,,,,,,,0,,,41,65
146400,note_on,0,0,2,,,,,,,,,,,,,,,0,,,53,76
146400,note_on,30,0,1,,,,,,,,,,,,,,,0,,,65,74
146400,note_on,0,0,1,,,,,,,,,,,,,,,0,,,77,88
146570,control_change,170,0,2,,,,,,,,,,,,,,,0,64,0,,
146880,note_on,480,0,1,,,,,,,,,,,,,,,0,,,74,0
146880,note_on,0,0,1,,,,,,,,,,,,,,,0,,,70,0
146880,note_on,0,0,1,,,,,,,,,,,,,,,0,,,77,0
146880,note_on,0,0,1,,,,,,,,,,,,,,,0,,,82,82
146880,note_on,0,0,1,,,,,,,,,,,,,,,0,,,76,82
146880,note_on,0,0,1,,,,,,,,,,,,,,,0,,,85,82
146880,note_on,0,0,1,,,,,,,,,,,,,,,0,,,88,97
146880,note_on,0,0,1,,,,,,,,,,,,,,,0,,,65,0
146880,set_tempo,600,1,0,,,,,,,,,,,,424028,,,,,,,
146880,note_on,310,0,2,,,,,,,,,,,,,,,0,,,53,0
146880,note_on,0,0,2,,,,,,,,,,,,,,,0,,,41,0
146880,note_on,0,0,2,,,,,,,,,,,,,,,0,,,31,72
146880,note_on,0,0,2,,,,,,,,,,,,,,,0,,,43,86
147004,control_change,124,0,2,,,,,,,,,,,,,,,0,64,127,,
147240,set_tempo,360,1,0,,,,,,,,,,,,400000,,,,,,,
147240,note_on,0,0,1,,,,,,,,,,,,,,,0,,,76,0
147240,note_on,0,0,1,,,,,,,,,,,,,,,0,,,82,0
147240,note_on,360,0,1,,,,,,,,,,,,,,,0,,,88,0
147240,note_on,0,0,1,,,,,,,,,,,,,,,0,,,64,74
147240,note_on,0,0,1,,,,,,,,,,,,,,,0,,,73,74
147240,note_on,0,0,2,,,,,,,,,,,,,,,0,,,43,63
147240,note_on,0,0,2,,,,,,,,,,,,,,,0,,,55,74
147240,note_on,0,0,1,,,,,,,,,,,,,,,0,,,85,0
147240,note_on,0,0,2,,,,,,,,,,,,,,,0,,,31,0
147240,note_on,236,0,2,,,,,,,,,,,,,,,0,,,43,0
147240,note_on,0,0,1,,,,,,,,,,,,,,,0,,,76,88
147240,note_on,0,0,1,,,,,,,,,,,,,,,0,,,70,74
147330,note_on,90,0,1,,,,,,,,,,,,,,,0,,,76,0
147330,note_on,0,0,2,,,,,,,,,,,,,,,0,,,43,0
147330,note_on,0,0,1,,,,,,,,,,,,,,,0,,,70,0
147330,note_on,90,0,2,,,,,,,,,,,,,,,0,,,55,0
147330,note_on,0,0,1,,,,,,,,,,,,,,,0,,,73,0
147330,note_on,0,0,1,,,,,,,,,,,,,,,0,,,64,0
147360,note_on,0,0,1,,,,,,,,,,,,,,,0,,,70,76
147360,note_on,0,0,2,,,,,,,,,,,,,,,0,,,55,74
147360,note_on,30,0,2,,,,,,,,,,,,,,,0,,,43,63
147360,note_on,0,0,1,,,,,,,,,,,,,,,0,,,76,91
147360,note_on,0,0,1,,,,,,,,,,,,,,,0,,,73,76
147360,note_on,30,0,1,,,,,,,,,,,,,,,0,,,64,76
147633,control_change,273,0,2,,,,,,,,,,,,,,,0,64,0,,
147840,note_on,0,0,1,,,,,,,,,,,,,,,0,,,78,87
147840,note_on,0,0,1,,,,,,,,,,,,,,,0,,,70,0
147840,note_on,0,0,1,,,,,,,,,,,,,,,0,,,64,0
147840,note_on,480,0,1,,,,,,,,,,,,,,,0,,,73,0
147840,note_on,0,0,1,,,,,,,,,,,,,,,0,,,84,87
147840,note_on,0,0,1,,,,,,,,,,,,,,,0,,,87,102
147840,note_on,0,0,1,,,,,,,,,,,,,,,0,,,76,0
147840,note_on,0,0,1,,,,,,,,,,,,,,,0,,,75,87
147840,note_on,0,0,2,,,,,,,,,,,,,,,0,,,45,90
147840,note_on,0,0,2,,,,,,,,,,,,,,,0,,,33,76
147840,note_on,0,0,2,,,,,,,,,,,,,,,0,,,43,0
147840,note_on,207,0,2,,,,,,,,,,,,,,,0,,,55,0
147840,set_tempo,600,1,0,,,,,,,,,,,,422535,,,,,,,
147931,control_change,91,0,2,,,,,,,,,,,,,,,0,64,127,,
148200,note_on,360,0,1,,,,,,,,,,,,,,,0,,,87,0
148200,note_on,0,0,1,,,,,,,,,,,,,,,0,,,78,0
148200,note_on,0,0,2,,,,,,,,,,,,,,,0,,,57,76
148200,note_on,0,0,2,,,,,,,,,,,,,,,0,,,45,65
148200,note_on,0,0,2,,,,,,,,,,,,,,,0,,,33,0
148200,note_on,269,0,2,,,,,,,,,,,,,,,0,,,45,0
148200,note_on,0,0,1,,,,,,,,,,,,,,,0,,,75,0
148200,note_on,0,0,1,,,,,,,,,,,,,,,0,,,84,0
148200,set_tempo,360,1,0,,,,,,,,,,,,404040,,,,,,,
148200,note_on,0,0,1,,,,,,,,,,,,,,,0,,,63,77
148200,note_on,0,0,1,,,,,,,,,,,,,,,0,,,72,77
148200,note_on,0,0,1,,,,,,,,,,,,,,,0,,,75,92
148200,note_on,0,0,1,,,,,,,,,,,,,,,0,,,66,77
148290,note_on,90,0,1,,,,,,,,,,,,,,,0,,,75,0
148290,note_on,0,0,1,,,,,,,,,,,,,,,0,,,66,0
148290,note_on,0,0,1,,,,,,,,,,,,,,,0,,,63,0
148290,note_on,0,0,1,,,,,,,,,,,,,,,0,,,72,0
148290,note_on,90,0,2,,,,,,,,,,,,,,,0,,,57,0
148290,note_on,0,0,2,,,,,,,,,,,,,,,0,,,45,0
148320,note_on,0,0,1,,,,,,,,,,,,,,,0,,,72,77
148320,note_on,30,0,1,,,,,,,,,,,,,,,0,,,63,77
148320,note_on,0,0,1,,,,,,,,,,,,,,,0,,,66,77
148320,note_on,0,0,1,,,,,,,,,,,,,,,0,,,75,92
148320,note_on,30,0,2,,,,,,,,,,,,,,,0,,,45,65
148320,note_on,0,0,2,,,,,,,,,,,,,,,0,,,57,76
148554,control_change,234,0,2,,,,,,,,,,,,,,,0,64,0,,
148800,note_on,246,0,2,,,,,,,,,,,,,,,0,,,57,0
148800,note_on,0,0,1,,,,,,,,,,,,,,,0,,,86,106
148800,note_on,0,0,1,,,,,,,,,,,,,,,0,,,82,89
148800,note_on,0,0,1,,,,,,,,,,,,,,,0,,,74,89
148800,note_on,0,0,1,,,,,,,,,,,,,,,0,,,77,89
148800,note_on,0,0,1,,,,,,,,,,,,,,,0,,,75,0
148800,note_on,0,0,2,,,,,,,,,,,,,,,0,,,45,0
148800,note_on,0,0,1,,,,,,,,,,,,,,,0,,,63,0
148800,note_on,0,0,1,,,,,,,,,,,,,,,0,,,66,0
148800,set_tempo,600,1,0,,,,,,,,,,,,425532,,,,,,,
148800,note_on,0,0,2,,,,,,,,,,,,,,,0,,,46,91
148800,note_on,0,0,2,,,,,,,,,,,,,,,0,,,34,76
148800,note_on,480,0,1,,,,,,,,,,,,,,,0,,,72,0
148926,control_change,126,0,2,,,,,,,,,,,,,,,0,64,127,,
149160,note_on,0,0,2,,,,,,,,,,,,,,,0,,,34,0
149160,note_on,234,0,2,,,,,,,,,,,,,,,0,,,46,0
149160,note_on,0,0,2,,,,,,,,,,,,,,,0,,,46,65
149160,note_on,0,0,2,,,,,,,,,,,,,,,0,,,58,77
149160,note_on,0,0,1,,,,,,,,,,,,,,,0,,,82,0
149160,set_tempo,360,1,0,,,,,,,,,,,,408163,,,,,,,
149160,note_on,0,0,1,,,,,,,,,,,,,,,0,,,74,0
149160,note_on,0,0,1,,,,,,,,,,,,,,,0,,,70,80
149160,note_on,0,0,1,,,,,,,,,,,,,,,0,,,74,95
149160,note_on,0,0,1,,,,,,,,,,,,,,,0,,,62,80
149160,note_on,0,0,1,,,,,,,,,,,,,,,0,,,65,80
149160,note_on,360,0,1,,,,,,,,,,,,,,,0,,,86,0
149160,note_on,0,0,1,,,,,,,,,,,,,,,0,,,77,0
149250,note_on,0,0,1,,,,,,,,,,,,,,,0,,,62,0
149250,note_on,0,0,1,,,,,,,,,,,,,,,0,,,65,0
149250,note_on,90,0,1,,,,,,,,,,,,,,,0,,,74,0
149250,note_on,90,0,2,,,,,,,,,,,,,,,0,,,58,0
149250,note_on,0,0,2,,,,,,,,,,,,,,,0,,,46,0
149250,note_on,0,0,1,,,,,,,,,,,,,,,0,,,70,0
149280,note_on,0,0,1,,,,,,,,,,,,,,,0,,,65,80
149280,note_on,30,0,2,,,,,,,,,,,,,,,0,,,46,67
149280,note_on,0,0,1,,,,,,,,,,,,,,,0,,,74,95
149280,note_on,0,0,1,,,,,,,,,,,,,,,0,,,70,80
149280,note_on,0,0,2,,,,,,,,,,,,,,,0,,,58,79
149280,note_on,30,0,1,,,,,,,,,,,,,,,0,,,62,80
149537,control_change,257,0,2,,,,,,,,,,,,,,,0,64,0,,
149760,set_tempo,600,1,0,,,,,,,,,,,,427046,,,,,,,
149760,note_on,480,0,1,,,,,,,,,,,,,,,0,,,70,0
149760,note_on,0,0,1,,,,,,,,,,,,,,,0,,,62,0
149760,note_on,0,0,1,,,,,,,,,,,,,,,0,,,65,0
149760,note_on,0,0,1,,,,,,,,,,,,,,,0,,,74,0
149760,note_on,0,0,1,,,,,,,,,,,,,,,0,,,66,86
149760,note_on,0,0,1,,,,,,,,,,,,,,,0,,,72,86
149760,note_on,0,0,1,,,,,,,,,,,,,,,0,,,62,86
149760,note_on,223,0,2,,,,,,,,,,,,,,,0,,,58,0
149760,note_on,0,0,2,,,,,,,,,,,,,,,0,,,46,0
149760,note_on,0,0,2,,,,,,,,,,,,,,,0,,,44,75
149760,note_on,0,0,2,,,,,,,,,,,,,,,0,,,56,89
149760,note_on,0,0,1,,,,,,,,,,,,,,,0,,,74,101
149814,control_change,54,0,2,,,,,,,,,,,,,,,0,64,127,,
150120,note_on,306,0,2,,,,,,,,,,,,,,,0,,,56,0
150120,note_on,0,0,2,,,,,,,,,,,,,,,0,,,44,0
150120,note_on,0,0,2,,,,,,,,,,,,,,,0,,,32,64
150120,note_on,0,0,1,,,,,,,,,,,,,,,0,,,78,77
150120,note_on,0,0,2,,,,,,,,,,,,,,,0,,,44,75
150120,note_on,360,0,1,,,,,,,,,,,,,,,0,,,74,0
150120,note_on,0,0,1,,,,,,,,,,,,,,,0,,,74,77
150120,set_tempo,360,1,0,,,,,,,,,,,,409556,,,,,,,
150120,note_on,0,0,1,,,,,,,,,,,,,,,0,,,72,0
150120,note_on,0,0,1,,,,,,,,,,,,,,,0,,,62,0
150120,note_on,0,0,1,,,,,,,,,,,,,,,0,,,66,0
150120,note_on,0,0,1,,,,,,,,,,,,,,,0,,,86,92
150120,note_on,0,0,1,,,,,,,,,,,,,,,0,,,84,77
150210,note_on,0,0,1,,,,,,,,,,,,,,,0,,,78,0
150210,note_on,0,0,1,,,,,,,,,,,,,,,0,,,84,0
150210,note_on,0,0,1,,,,,,,,,,,,,,,0,,,74,0
150210,note_on,90,0,1,,,,,,,,,,,,,,,0,,,86,0
150210,note_on,90,0,2,,,,,,,,,,,,,,,0,,,44,0
150210,note_on,0,0,2,,,,,,,,,,,,,,,0,,,32,0
150240,note_on,30,0,1,,,,,,,,,,,,,,,0,,,74,87
150240,note_on,0,0,1,,,,,,,,,,,,,,,0,,,84,87
150240,note_on,0,0,2,,,,,,,,,,,,,,,0,,,44,87
150240,note_on,0,0,1,,,,,,,,,,,,,,,0,,,78,87
150240,note_on,30,0,2,,,,,,,,,,,,,,,0,,,32,73
150240,note_on,0,0,1,,,,,,,,,,,,,,,0,,,86,103
150492,control_change,252,0,2,,,,,,,,,,,,,,,0,64,0,,
150720,set_tempo,600,1,0,,,,,,,,,,,,434783,,,,,,,
150720,note_on,480,0,1,,,,,,,,,,,,,,,0,,,84,0
150720,note_on,0,0,1,,,,,,,,,,,,,,,0,,,74,0
150720,note_on,0,0,1,,,,,,,,,,,,,,,0,,,78,0
150720,note_on,0,0,1,,,,,,,,,,,,,,,0,,,86,0
150720,note_on,0,0,1,,,,,,,,,,,,,,,0,,,67,82
150720,note_on,0,0,1,,,,,,,,,,,,,,,0,,,62,82
150720,note_on,228,0,2,,,,,,,,,,,,,,,0,,,44,0
150720,note_on,0,0,2,,,,,,,,,,,,,,,0,,,32,0
150720,note_on,0,0,2,,,,,,,,,,,,,,,0,,,43,72
150720,note_on,0,0,2,,,,,,,,,,,,,,,0,,,55,86
150720,note_on,0,0,1,,,,,,,,,,,,,,,0,,,74,97
150720,note_on,0,0,1,,,,,,,,,,,,,,,0,,,71,82
150815,control_change,95,0,2,,,,,,,,,,,,,,,0,64,127,,
151080,note_on,265,0,2,,,,,,,,,,,,,,,0,,,55,0
151080,note_on,0,0,2,,,,,,,,,,,,,,,0,,,43,0
151080,note_on,0,0,2,,,,,,,,,,,,,,,0,,,31,63
151080,note_on,0,0,2,,,,,,,,,,,,,,,0,,,43,74
151080,note_on,0,0,1,,,,,,,,,,,,,,,0,,,74,79
151080,note_on,0,0,1,,,,,,,,,,,,,,,0,,,83,79
151080,note_on,0,0,1,,,,,,,,,,,,,,,0,,,67,0
151080,note_on,0,0,1,,,,,,,,,,,,,,,0,,,86,95
151080,set_tempo,360,1,0,,,,,,,,,,,,412371,,,,,,,
151080,note_on,360,0,1,,,,,,,,,,,,,,,0,,,74,0
151080,note_on,0,0,1,,,,,,,,,,,,,,,0,,,62,0
151080,note_on,0,0,1,,,,,,,,,,,,,,,0,,,71,0
151080,note_on,0,0,1,,,,,,,,,,,,,,,0,,,79,79
151170,note_on,0,0,2,,,,,,,,,,,,,,,0,,,31,0
151170,note_on,90,0,2,,,,,,,,,,,,,,,0,,,43,0
151170,note_on,0,0,1,,,,,,,,,,,,,,,0,,,83,0
151170,note_on,90,0,1,,,,,,,,,,,,,,,0,,,86,0
151170,note_on,0,0,1,,,,,,,,,,,,,,,0,,,74,0
151170,note_on,0,0,1,,,,,,,,,,,,,,,0,,,79,0
151200,note_on,0,0,1,,,,,,,,,,,,,,,0,,,79,84
151200,note_on,30,0,1,,,,,,,,,,,,,,,0,,,74,84
151200,note_on,0,0,1,,,,,,,,,,,,,,,0,,,83,84
151200,note_on,30,0,2,,,,,,,,,,,,,,,0,,,31,72
151200,note_on,0,0,2,,,,,,,,,,,,,,,0,,,43,86
151200,note_on,0,0,1,,,,,,,,,,,,,,,0,,,86,99
151440,set_tempo,360,1,0,,,,,,,,,,,,437956,,,,,,,
151506,control_change,306,0,2,,,,,,,,,,,,,,,0,64,0,,
151680,note_on,0,0,2,,,,,,,,,,,,,,,0,,,31,0
151680,note_on,0,0,1,,,,,,,,,,,,,,,0,,,67,82
151680,note_on,0,0,1,,,,,,,,,,,,,,,0,,,74,0
151680,note_on,0,0,1,,,,,,,,,,,,,,,0,,,79,0
151680,note_on,0,0,1,,,,,,,,,,,,,,,0,,,86,0
151680,note_on,0,0,1,,,,,,,,,,,,,,,0,,,64,82
151680,note_on,0,0,1,,,,,,,,,,,,,,,0,,,72,82
151680,note_on,0,0,1,,,,,,,,,,,,,,,0,,,76,98
151680,note_on,0,0,2,,,,,,,,,,,,,,,0,,,43,70
151680,note_on,0,0,2,,,,,,,,,,,,,,,0,,,55,82
151680,set_tempo,240,1,0,,,,,,,,,,,,458015,,,,,,,
151680,note_on,480,0,1,,,,,,,,,,,,,,,0,,,83,0
151680,note_on,174,0,2,,,,,,,,,,,,,,,0,,,43,0
151794,control_change,114,0,2,,,,,,,,,,,,,,,0,64,127,,
152040,note_on,246,0,2,,,,,,,,,,,,,,,0,,,55,0
152040,note_on,0,0,2,,,,,,,,,,,,,,,0,,,43,0
152040,note_on,0,0,2,,,,,,,,,,,,,,,0,,,31,64
152040,note_on,0,0,1,,,,,,,,,,,,,,,0,,,79,75
152040,note_on,360,0,1,,,,,,,,,,,,,,,0,,,76,0
152040,note_on,0,0,2,,,,,,,,,,,,,,,0,,,43,76
152040,set_tempo,360,1,0,,,,,,,,,,,,437956,,,,,,,
152040,note_on,0,0,1,,,,,,,,,,,,,,,0,,,88,89
152040,note_on,0,0,1,,,,,,,,,,,,,,,0,,,84,75
152040,note_on,0,0,1,,,,,,,,,,,,,,,0,,,72,0
152040,note_on,0,0,1,,,,,,,,,,,,,,,0,,,76,75
152040,note_on,0,0,1,,,,,,,,,,,,,,,0,,,67,0
152040,note_on,0,0,1,,,,,,,,,,,,,,,0,,,64,0
152130,note_on,90,0,2,,,,,,,,,,,,,,,0,,,43,0
152130,note_on,0,0,1,,,,,,,,,,,,,,,0,,,84,0
152130,note_on,0,0,1,,,,,,,,,,,,,,,0,,,76,0
152130,note_on,0,0,1,,,,,,,,,,,,,,,0,,,79,0
152130,note_on,90,0,1,,,,,,,,,,,,,,,0,,,88,0
152130,note_on,0,0,2,,,,,,,,,,,,,,,0,,,31,0
152160,note_on,0,0,1,,,,,,,,,,,,,,,0,,,84,86
152160,note_on,0,0,1,,,,,,,,,,,,,,,0,,,88,102
152160,note_on,0,0,1,,,,,,,,,,,,,,,0,,,79,86
152160,note_on,30,0,1,,,,,,,,,,,,,,,0,,,76,86
152160,note_on,30,0,2,,,,,,,,,,,,,,,0,,,31,74
152160,note_on,0,0,2,,,,,,,,,,,,,,,0,,,43,88
152368,control_change,208,0,2,,,,,,,,,,,,,,,0,64,0,,
152400,set_tempo,360,1,0,,,,,,,,,,,,530973,,,,,,,
152640,note_on,0,0,2,,,,,,,,,,,,,,,0,,,55,85
152640,note_on,0,0,2,,,,,,,,,,,,,,,0,,,31,0
152640,note_on,272,0,2,,,,,,,,,,,,,,,0,,,43,0
152640,note_on,480,0,1,,,,,,,,,,,,,,,0,,,84,0
152640,note_on,0,0,1,,,,,,,,,,,,,,,0,,,76,0
152640,note_on,0,0,1,,,,,,,,,,,,,,,0,,,79,0
152640,note_on,0,0,1,,,,,,,,,,,,,,,0,,,88,0
152640,note_on,0,0,2,,,,,,,,,,,,,,,0,,,43,72
152640,set_tempo,240,1,0,,,,,,,,,,,,493827,,,,,,,
152640,note_on,0,0,1,,,,,,,,,,,,,,,0,,,77,86
152640,note_on,0,0,1,,,,,,,,,,,,,,,0,,,79,101
152640,note_on,0,0,1,,,,,,,,,,,,,,,0,,,67,86
152640,note_on,0,0,1,,,,,,,,,,,,,,,0,,,71,86
152760,control_change,120,0,2,,,,,,,,,,,,,,,0,64,127,,
153000,note_on,240,0,2,,,,,,,,,,,,,,,0,,,55,0
153000,note_on,0,0,1,,,,,,,,,,,,,,,0,,,79,80
153000,note_on,0,0,2,,,,,,,,,,,,,,,0,,,43,0
153000,note_on,0,0,2,,,,,,,,,,,,,,,0,,,31,66
153000,note_on,0,0,2,,,,,,,,,,,,,,,0,,,43,78
153000,note_on,0,0,1,,,,,,,,,,,,,,,0,,,89,80
153000,set_tempo,360,1,0,,,,,,,,,,,,571429,,,,,,,
153000,note_on,360,0,1,,,,,,,,,,,,,,,0,,,79,0
153000,note_on,0,0,1,,,,,,,,,,,,,,,0,,,71,0
153000,note_on,0,0,1,,,,,,,,,,,,,,,0,,,67,0
153000,note_on,0,0,1,,,,,,,,,,,,,,,0,,,77,0
153000,note_on,0,0,1,,,,,,,,,,,,,,,0,,,83,80
153000,note_on,0,0,1,,,,,,,,,,,,,,,0,,,91,96
153090,note_on,90,0,1,,,,,,,,,,,,,,,0,,,91,0
153090,note_on,0,0,1,,,,,,,,,,,,,,,0,,,83,0
153090,note_on,0,0,1,,,,,,,,,,,,,,,0,,,79,0
153090,note_on,0,0,1,,,,,,,,,,,,,,,0,,,89,0
153090,note_on,90,0,2,,,,,,,,,,,,,,,0,,,43,0
153090,note_on,0,0,2,,,,,,,,,,,,,,,0,,,31,0
153120,note_on,30,0,2,,,,,,,,,,,,,,,0,,,31,77
153120,note_on,0,0,1,,,,,,,,,,,,,,,0,,,89,86
153120,note_on,0,0,2,,,,,,,,,,,,,,,0,,,43,92
153120,note_on,0,0,1,,,,,,,,,,,,,,,0,,,91,103
153120,note_on,0,0,1,,,,,,,,,,,,,,,0,,,83,86
153120,set_tempo,120,1,0,,,,,,,,,,,,800000,,,,,,,
153120,note_on,30,0,1,,,,,,,,,,,,,,,0,,,79,86
153309,control_change,189,0,2,,,,,,,,,,,,,,,0,64,0,,
153600,note_on,0,0,1,,,,,,,,,,,,,,,0,,,83,0
153600,note_on,0,0,1,,,,,,,,,,,,,,,0,,,79,0
153600,note_on,480,0,1,,,,,,,,,,,,,,,0,,,89,0
153600,set_tempo,480,1,0,,,,,,,,,,,,413793,,,,,,,
153600,note_on,291,0,2,,,,,,,,,,,,,,,0,,,43,0
153600,note_on,0,0,2,,,,,,,,,,,,,,,0,,,47,50
153600,note_on,0,0,2,,,,,,,,,,,,,,,0,,,35,42
153600,note_on,0,0,2,,,,,,,,,,,,,,,0,,,31,0
153600,note_on,0,0,1,,,,,,,,,,,,,,,0,,,55,50
153600,note_on,0,0,1,,,,,,,,,,,,,,,0,,,91,0
153690,note_on,0,0,2,,,,,,,,,,,,,,,0,,,35,0
153690,note_on,90,0,2,,,,,,,,,,,,,,,0,,,47,0
153720,note_on,120,0,1,,,,,,,,,,,,,,,0,,,67,46
153740,note_on,20,0,1,,,,,,,,,,,,,,,0,,,55,0
153840,note_on,150,0,2,,,,,,,,,,,,,,,0,,,38,43
153840,set_tempo,240,1,0,,,,,,,,,,,,406780,,,,,,,
153840,note_on,0,0,2,,,,,,,,,,,,,,,0,,,50,51
153840,note_on,100,0,1,,,,,,,,,,,,,,,0,,,62,46
153860,note_on,20,0,1,,,,,,,,,,,,,,,0,,,67,0
153930,note_on,90,0,2,,,,,,,,,,,,,,,0,,,50,0
153930,note_on,0,0,2,,,,,,,,,,,,,,,0,,,38,0
153960,note_on,100,0,1,,,,,,,,,,,,,,,0,,,59,46
153980,note_on,20,0,1,,,,,,,,,,,,,,,0,,,62,0
154080,note_on,100,0,1,,,,,,,,,,,,,,,0,,,62,50
154080,note_on,150,0,2,,,,,,,,,,,,,,,0,,,43,45
154080,note_on,0,0,2,,,,,,,,,,,,,,,0,,,55,53
154100,note_on,20,0,1,,,,,,,,,,,,,,,0,,,59,0
154170,note_on,90,0,2,,,,,,,,,,,,,,,0,,,55,0
154170,note_on,0,0,2,,,,,,,,,,,,,,,0,,,43,0
154200,note_on,100,0,1,,,,,,,,,,,,,,,0,,,74,46
154220,note_on,20,0,1,,,,,,,,,,,,,,,0,,,62,0
154320,note_on,100,0,1,,,,,,,,,,,,,,,0,,,71,46
154320,note_on,0,0,2,,,,,,,,,,,,,,,0,,,53,51
154320,note_on,150,0,2,,,,,,,,,,,,,,,0,,,41,43
154340,note_on,20,0,1,,,,,,,,,,,,,,,0,,,74,0
154410,note_on,0,0,2,,,,,,,,,,,,,,,0,,,41,0
154410,note_on,90,0,2,,,,,,,,,,,,,,,0,,,53,0
154440,note_on,100,0,1,,,,,,,,,,,,,,,0,,,67,46
154460,note_on,20,0,1,,,,,,,,,,,,,,,0,,,71,0
154560,note_on,100,0,1,,,,,,,,,,,,,,,0,,,72,51
154560,note_on,0,0,1,,,,,,,,,,,,,,,0,,,76,51
154560,note_on,0,0,2,,,,,,,,,,,,,,,0,,,52,52
154560,note_on,150,0,2,,,,,,,,,,,,,,,0,,,40,44
154560,set_tempo,720,1,0,,,,,,,,,,,,412371,,,,,,,
154580,note_on,20,0,1,,,,,,,,,,,,,,,0,,,67,0
154650,note_on,0,0,2,,,,,,,,,,,,,,,0,,,40,0
154650,note_on,90,0,2,,,,,,,,,,,,,,,0,,,52,0
154680,note_on,100,0,1,,,,,,,,,,,,,,,0,,,64,47
154700,note_on,0,0,1,,,,,,,,,,,,,,,0,,,72,0
154700,note_on,20,0,1,,,,,,,,,,,,,,,0,,,76,0
154800,note_on,150,0,2,,,,,,,,,,,,,,,0,,,36,42
154800,note_on,100,0,1,,,,,,,,,,,,,,,0,,,74,51
154800,note_on,0,0,1,,,,,,,,,,,,,,,0,,,77,51
154800,note_on,0,0,2,,,,,,,,,,,,,,,0,,,48,50
154820,note_on,20,0,1,,,,,,,,,,,,,,,0,,,64,0
154890,note_on,0,0,2,,,,,,,,,,,,,,,0,,,36,0
154890,note_on,90,0,2,,,,,,,,,,,,,,,0,,,48,0
154920,note_on,100,0,1,,,,,,,,,,,,,,,0,,,65,47
154940,note_on,20,0,1,,,,,,,,,,,,,,,0,,,77,0
154940,note_on,0,0,1,,,,,,,,,,,,,,,0,,,74,0
155040,note_on,100,0,1,,,,,,,,,,,,,,,0,,,76,53
155040,note_on,0,0,2,,,,,,,,,,,,,,,0,,,47,50
155040,note_on,150,0,2,,,,,,,,,,,,,,,0,,,35,42
155040,note_on,0,0,1,,,,,,,,,,,,,,,0,,,79,53
155060,note_on,20,0,1,,,,,,,,,,,,,,,0,,,65,0
155130,note_on,0,0,2,,,,,,,,,,,,,,,0,,,35,0
155130,note_on,90,0,2,,,,,,,,,,,,,,,0,,,47,0
155160,note_on,100,0,1,,,,,,,,,,,,,,,0,,,67,47
155180,note_on,0,0,1,,,,,,,,,,,,,,,0,,,76,0
155180,note_on,20,0,1,,,,,,,,,,,,,,,0,,,79,0
155280,note_on,0,0,1,,,,,,,,,,,,,,,0,,,81,53
155280,note_on,100,0,1,,,,,,,,,,,,,,,0,,,77,53
155280,note_on,150,0,2,,,,,,,,,,,,,,,0,,,33,42
155280,note_on,0,0,2,,,,,,,,,,,,,,,0,,,45,50
155300,note_on,20,0,1,,,,,,,,,,,,,,,0,,,67,0
155370,note_on,90,0,2,,,,,,,,,,,,,,,0,,,45,0
155370,note_on,0,0,2,,,,,,,,,,,,,,,0,,,33,0
155400,note_on,100,0,1,,,,,,,,,,,,,,,0,,,69,48
155420,note_on,0,0,1,,,,,,,,,,,,,,,0,,,77,0
155420,note_on,20,0,1,,,,,,,,,,,,,,,0,,,81,0
155520,note_on,0,0,1,,,,,,,,,,,,,,,0,,,83,51
155520,note_on,0,0,1,,,,,,,,,,,,,,,0,,,79,51
155520,note_on,150,0,2,,,,,,,,,,,,,,,0,,,41,54
155520,note_on,100,0,1,,,,,,,,,,,,,,,0,,,74,51
155520,set_tempo,960,1,0,,,,,,,,,,,,412371,,,,,,,
155540,note_on,20,0,1,,,,,,,,,,,,,,,0,,,69,0
155571,control_change,51,0,2,,,,,,,,,,,,,,,0,64,127,,
155640,note_on,0,0,1,,,,,,,,,,,,,,,0,,,83,0
155640,note_on,0,0,1,,,,,,,,,,,,,,,0,,,71,53
155640,note_on,0,0,2,,,,,,,,,,,,,,,0,,,53,56
155640,note_on,69,0,2,,,,,,,,,,,,,,,0,,,41,0
155640,note_on,0,0,1,,,,,,,,,,,,,,,0,,,79,0
155640,note_on,100,0,1,,,,,,,,,,,,,,,0,,,74,0
155760,note_on,120,0,1,,,,,,,,,,,,,,,0,,,71,0
155760,note_on,0,0,1,,,,,,,,,,,,,,,0,,,74,55
155760,note_on,0,0,1,,,,,,,,,,,,,,,0,,,79,55
155760,note_on,0,0,2,,,,,,,,,,,,,,,0,,,41,57
155760,note_on,120,0,2,,,,,,,,,,,,,,,0,,,53,0
155760,set_tempo,240,1,0,,,,,,,,,,,,410959,,,,,,,
155760,note_on,0,0,1,,,,,,,,,,,,,,,0,,,83,55
155880,note_on,0,0,2,,,,,,,,,,,,,,,0,,,53,59
155880,note_on,0,0,1,,,,,,,,,,,,,,,0,,,71,56
155880,note_on,0,0,1,,,,,,,,,,,,,,,0,,,74,0
155880,note_on,0,0,1,,,,,,,,,,,,,,,0,,,79,0
155880,note_on,120,0,1,,,,,,,,,,,,,,,0,,,83,0
155880,note_on,120,0,2,,,,,,,,,,,,,,,0,,,41,0
156000,note_on,0,0,1,,,,,,,,,,,,,,,0,,,84,58
156000,note_on,120,0,1,,,,,,,,,,,,,,,0,,,71,0
156000,note_on,0,0,2,,,,,,,,,,,,,,,0,,,40,60
156000,note_on,120,0,2,,,,,,,,,,,,,,,0,,,53,0
156000,set_tempo,240,1,0,,,,,,,,,,,,409556,,,,,,,
156000,note_on,0,0,1,,,,,,,,,,,,,,,0,,,79,58
156010,control_change,10,0,2,,,,,,,,,,,,,,,0,64,0,,
156057,control_change,47,0,2,,,,,,,,,,,,,,,0,64,127,,
156120,note_on,63,0,2,,,,,,,,,,,,,,,0,,,40,0
156120,note_on,0,0,2,,,,,,,,,,,,,,,0,,,52,62
156120,note_on,0,0,1,,,,,,,,,,,,,,,0,,,72,60
156120,note_on,0,0,1,,,,,,,,,,,,,,,0,,,79,0
156120,note_on,120,0,1,,,,,,,,,,,,,,,0,,,84,0
156240,note_on,0,0,1,,,,,,,,,,,,,,,0,,,84,62
156240,note_on,120,0,1,,,,,,,,,,,,,,,0,,,72,0
156240,set_tempo,240,1,0,,,,,,,,,,,,408163,,,,,,,
156240,note_on,0,0,2,,,,,,,,,,,,,,,0,,,40,63
156240,note_on,0,0,1,,,,,,,,,,,,,,,0,,,79,62
156240,note_on,120,0,2,,,,,,,,,,,,,,,0,,,52,0
156360,note_on,0,0,2,,,,,,,,,,,,,,,0,,,52,65
156360,note_on,120,0,2,,,,,,,,,,,,,,,0,,,40,0
156360,note_on,120,0,1,,,,,,,,,,,,,,,0,,,79,0
156360,note_on,0,0,1,,,,,,,,,,,,,,,0,,,84,0
156360,note_on,0,0,1,,,,,,,,,,,,,,,0,,,72,63
156480,note_on,0,0,1,,,,,,,,,,,,,,,0,,,89,65
156480,set_tempo,240,1,0,,,,,,,,,,,,406780,,,,,,,
156480,note_on,120,0,1,,,,,,,,,,,,,,,0,,,72,0
156480,note_on,0,0,2,,,,,,,,,,,,,,,0,,,38,66
156480,note_on,120,0,2,,,,,,,,,,,,,,,0,,,52,0
156480,note_on,0,0,1,,,,,,,,,,,,,,,0,,,84,65
156490,control_change,10,0,2,,,,,,,,,,,,,,,0,64,0,,
156560,control_change,70,0,2,,,,,,,,,,,,,,,0,64,127,,
156600,note_on,120,0,1,,,,,,,,,,,,,,,0,,,84,0
156600,note_on,0,0,2,,,,,,,,,,,,,,,0,,,50,66
156600,note_on,40,0,2,,,,,,,,,,,,,,,0,,,38,0
156600,note_on,0,0,1,,,,,,,,,,,,,,,0,,,89,0
156600,note_on,0,0,1,,,,,,,,,,,,,,,0,,,77,65
156720,note_on,120,0,1,,,,,,,,,,,,,,,0,,,77,0
156720,note_on,0,0,2,,,,,,,,,,,,,,,0,,,38,67
156720,note_on,0,0,1,,,,,,,,,,,,,,,0,,,89,66
156720,note_on,0,0,1,,,,,,,,,,,,,,,0,,,84,66
156720,note_on,120,0,2,,,,,,,,,,,,,,,0,,,50,0
156840,note_on,0,0,2,,,,,,,,,,,,,,,0,,,50,68
156840,note_on,120,0,2,,,,,,,,,,,,,,,0,,,38,0
156840,note_on,0,0,1,,,,,,,,,,,,,,,0,,,77,66
156840,note_on,0,0,1,,,,,,,,,,,,,,,0,,,89,0
156840,note_on,120,0,1,,,,,,,,,,,,,,,0,,,84,0
156920,set_tempo,440,1,0,,,,,,,,,,,,404040,,,,,,,
156960,note_on,120,0,2,,,,,,,,,,,,,,,0,,,50,0
156960,note_on,0,0,1,,,,,,,,,,,,,,,0,,,83,67
156960,note_on,0,0,1,,,,,,,,,,,,,,,0,,,89,67
156960,note_on,120,0,1,,,,,,,,,,,,,,,0,,,77,0
156960,note_on,0,0,2,,,,,,,,,,,,,,,0,,,32,69
157000,set_tempo,80,1,0,,,,,,,,,,,,405405,,,,,,,
157080,note_on,120,0,1,,,,,,,,,,,,,,,0,,,83,0
157080,note_on,0,0,1,,,,,,,,,,,,,,,0,,,89,0
157080,note_on,0,0,2,,,,,,,,,,,,,,,0,,,44,69
157080,note_on,120,0,2,,,,,,,,,,,,,,,0,,,32,0
157080,set_tempo,80,1,0,,,,,,,,,,,,406780,,,,,,,
157080,note_on,0,0,1,,,,,,,,,,,,,,,0,,,77,67
157160,set_tempo,80,1,0,,,,,,,,,,,,408163,,,,,,,
157200,note_on,0,0,2,,,,,,,,,,,,,,,0,,,32,70
157200,note_on,120,0,1,,,,,,,,,,,,,,,0,,,77,0
157200,note_on,0,0,1,,,,,,,,,,,,,,,0,,,83,68
157200,note_on,0,0,1,,,,,,,,,,,,,,,0,,,89,68
157200,note_on,120,0,2,,,,,,,,,,,,,,,0,,,44,0
157240,set_tempo,80,1,0,,,,,,,,,,,,409556,,,,,,,
157320,note_on,0,0,2,,,,,,,,,,,,,,,0,,,44,71
157320,note_on,120,0,2,,,,,,,,,,,,,,,0,,,32,0
157320,note_on,0,0,1,,,,,,,,,,,,,,,0,,,89,0
157320,set_tempo,80,1,0,,,,,,,,,,,,410959,,,,,,,
157320,note_on,0,0,1,,,,,,,,,,,,,,,0,,,77,68
157320,note_on,120,0,1,,,,,,,,,,,,,,,0,,,83,0
157400,set_tempo,80,1,0,,,,,,,,,,,,412371,,,,,,,
157440,set_tempo,40,1,0,,,,,,,,,,,,413793,,,,,,,
157440,note_on,0,0,1,,,,,,,,,,,,,,,0,,,57,60
157440,note_on,120,0,1,,,,,,,,,,,,,,,0,,,77,0
157440,note_on,0,0,2,,,,,,,,,,,,,,,0,,,45,60
157440,note_on,120,0,2,,,,,,,,,,,,,,,0,,,44,0
157440,control_change,0,0,2,,,,,,,,,,,,,,,0,64,0,,
157440,note_on,0,0,2,,,,,,,,,,,,,,,0,,,33,50
157530,note_on,0,0,2,,,,,,,,,,,,,,,0,,,33,0
157530,note_on,90,0,2,,,,,,,,,,,,,,,0,,,45,0
157560,note_on,120,0,1,,,,,,,,,,,,,,,0,,,69,55
157580,note_on,20,0,1,,,,,,,,,,,,,,,0,,,57,0
157680,note_on,0,0,2,,,,,,,,,,,,,,,0,,,52,61
157680,note_on,100,0,1,,,,,,,,,,,,,,,0,,,64,55
157680,set_tempo,240,1,0,,,,,,,,,,,,402685,,,,,,,
157680,note_on,150,0,2,,,,,,,,,,,,,,,0,,,40,51
157700,note_on,20,0,1,,,,,,,,,,,,,,,0,,,69,0
157770,note_on,0,0,2,,,,,,,,,,,,,,,0,,,40,0
157770,note_on,90,0,2,,,,,,,,,,,,,,,0,,,52,0
157800,note_on,100,0,1,,,,,,,,,,,,,,,0,,,61,55
157820,note_on,20,0,1,,,,,,,,,,,,,,,0,,,64,0
157920,note_on,150,0,2,,,,,,,,,,,,,,,0,,,45,54
157920,note_on,0,0,2,,,,,,,,,,,,,,,0,,,57,63
157920,note_on,100,0,1,,,,,,,,,,,,,,,0,,,64,60
157940,note_on,20,0,1,,,,,,,,,,,,,,,0,,,61,0
158010,note_on,90,0,2,,,,,,,,,,,,,,,0,,,57,0
158010,note_on,0,0,2,,,,,,,,,,,,,,,0,,,45,0
158040,note_on,100,0,1,,,,,,,,,,,,,,,0,,,76,55
158060,note_on,20,0,1,,,,,,,,,,,,,,,0,,,64,0
158160,note_on,150,0,2,,,,,,,,,,,,,,,0,,,43,51
158160,note_on,0,0,2,,,,,,,,,,,,,,,0,,,55,61
158160,note_on,100,0,1,,,,,,,,,,,,,,,0,,,73,55
158180,note_on,20,0,1,,,,,,,,,,,,,,,0,,,76,0
158250,note_on,90,0,2,,,,,,,,,,,,,,,0,,,55,0
158250,note_on,0,0,2,,,,,,,,,,,,,,,0,,,43,0
158280,note_on,100,0,1,,,,,,,,,,,,,,,0,,,69,55
158300,note_on,20,0,1,,,,,,,,,,,,,,,0,,,73,0
158400,set_tempo,720,1,0,,,,,,,,,,,,409556,,,,,,,
158400,note_on,150,0,2,,,,,,,,,,,,,,,0,,,41,52
158400,note_on,0,0,1,,,,,,,,,,,,,,,0,,,77,61
158400,note_on,100,0,1,,,,,,,,,,,,,,,0,,,74,51
158400,note_on,0,0,2,,,,,,,,,,,,,,,0,,,53,62
158420,note_on,20,0,1,,,,,,,,,,,,,,,0,,,69,0
158490,note_on,90,0,2,,,,,,,,,,,,,,,0,,,53,0
158490,note_on,0,0,2,,,,,,,,,,,,,,,0,,,41,0
158520,note_on,100,0,1,,,,,,,,,,,,,,,0,,,65,56
158540,note_on,0,0,1,,,,,,,,,,,,,,,0,,,74,0
158540,note_on,20,0,1,,,,,,,,,,,,,,,0,,,77,0
158640,note_on,0,0,1,,,,,,,,,,,,,,,0,,,79,61
158640,note_on,100,0,1,,,,,,,,,,,,,,,0,,,76,51
158640,note_on,0,0,2,,,,,,,,,,,,,,,0,,,50,60
158640,note_on,150,0,2,,,,,,,,,,,,,,,0,,,38,50
158660,note_on,20,0,1,,,,,,,,,,,,,,,0,,,65,0
158730,note_on,90,0,2,,,,,,,,,,,,,,,0,,,50,0
158730,note_on,0,0,2,,,,,,,,,,,,,,,0,,,38,0
158760,note_on,100,0,1,,,,,,,,,,,,,,,0,,,67,56
158780,note_on,0,0,1,,,,,,,,,,,,,,,0,,,76,0
158780,note_on,20,0,1,,,,,,,,,,,,,,,0,,,79,0
158880,note_on,100,0,1,,,,,,,,,,,,,,,0,,,77,53
158880,note_on,0,0,1,,,,,,,,,,,,,,,0,,,81,63
158880,note_on,0,0,2,,,,,,,,,,,,,,,0,,,48,60
158880,note_on,150,0,2,,,,,,,,,,,,,,,0,,,36,50
158900,note_on,20,0,1,,,,,,,,,,,,,,,0,,,67,0
158970,note_on,0,0,2,,,,,,,,,,,,,,,0,,,36,0
158970,note_on,90,0,2,,,,,,,,,,,,,,,0,,,48,0
159000,note_on,100,0,1,,,,,,,,,,,,,,,0,,,69,56
159020,note_on,20,0,1,,,,,,,,,,,,,,,0,,,81,0
159020,note_on,0,0,1,,,,,,,,,,,,,,,0,,,77,0
159120,note_on,0,0,2,,,,,,,,,,,,,,,0,,,46,60
159120,note_on,100,0,1,,,,,,,,,,,,,,,0,,,79,53
159120,note_on,0,0,1,,,,,,,,,,,,,,,0,,,82,63
159120,note_on,150,0,2,,,,,,,,,,,,,,,0,,,34,50
159140,note_on,20,0,1,,,,,,,,,,,,,,,0,,,69,0
159210,note_on,0,0,2,,,,,,,,,,,,,,,0,,,34,0
159210,note_on,90,0,2,,,,,,,,,,,,,,,0,,,46,0
159240,note_on,100,0,1,,,,,,,,,,,,,,,0,,,70,57
159260,note_on,0,0,1,,,,,,,,,,,,,,,0,,,79,0
159260,note_on,20,0,1,,,,,,,,,,,,,,,0,,,82,0
159360,note_on,100,0,1,,,,,,,,,,,,,,,0,,,76,51
159360,note_on,0,0,1,,,,,,,,,,,,,,,0,,,85,61
159360,note_on,0,0,1,,,,,,,,,,,,,,,0,,,81,51
159360,set_tempo,960,1,0,,,,,,,,,,,,406780,,,,,,,
159360,note_on,150,0,2,,,,,,,,,,,,,,,0,,,43,61
159380,note_on,20,0,1,,,,,,,,,,,,,,,0,,,70,0
159411,control_change,51,0,2,,,,,,,,,,,,,,,0,64,127,,
159480,note_on,0,0,1,,,,,,,,,,,,,,,0,,,85,0
159480,note_on,0,0,1,,,,,,,,,,,,,,,0,,,81,0
159480,note_on,100,0,1,,,,,,,,,,,,,,,0,,,76,0
159480,note_on,0,0,1,,,,,,,,,,,,,,,0,,,73,62
159480,note_on,69,0,2,,,,,,,,,,,,,,,0,,,43,0
159480,note_on,0,0,2,,,,,,,,,,,,,,,0,,,55,62
159600,note_on,0,0,1,,,,,,,,,,,,,,,0,,,85,64
159600,note_on,0,0,1,,,,,,,,,,,,,,,0,,,81,54
159600,note_on,0,0,1,,,,,,,,,,,,,,,0,,,76,54
159600,note_on,120,0,1,,,,,,,,,,,,,,,0,,,73,0
159600,note_on,120,0,2,,,,,,,,,,,,,,,0,,,55,0
159600,note_on,0,0,2,,,,,,,,,,,,,,,0,,,43,64
159640,set_tempo,280,1,0,,,,,,,,,,,,405405,,,,,,,
159720,note_on,0,0,1,,,,,,,,,,,,,,,0,,,73,66
159720,note_on,0,0,1,,,,,,,,,,,,,,,0,,,76,0
159720,note_on,0,0,1,,,,,,,,,,,,,,,0,,,81,0
159720,note_on,120,0,1,,,,,,,,,,,,,,,0,,,85,0
159720,note_on,120,0,2,,,,,,,,,,,,,,,0,,,43,0
159720,note_on,0,0,2,,,,,,,,,,,,,,,0,,,55,66
159840,note_on,0,0,1,,,,,,,,,,,,,,,0,,,86,67
159840,note_on,0,0,1,,,,,,,,,,,,,,,0,,,81,56
159840,note_on,120,0,1,,,,,,,,,,,,,,,0,,,73,0
159840,note_on,120,0,2,,,,,,,,,,,,,,,0,,,55,0
159840,note_on,0,0,2,,,,,,,,,,,,,,,0,,,41,67
159850,control_change,10,0,2,,,,,,,,,,,,,,,0,64,0,,
159897,control_change,47,0,2,,,,,,,,,,,,,,,0,64,127,,
159920,set_tempo,280,1,0,,,,,,,,,,,,404040,,,,,,,
159960,note_on,0,0,1,,,,,,,,,,,,,,,0,,,74,69
159960,note_on,0,0,1,,,,,,,,,,,,,,,0,,,81,0
159960,note_on,120,0,1,,,,,,,,,,,,,,,0,,,86,0
159960,note_on,63,0,2,,,,,,,,,,,,,,,0,,,41,0
159960,note_on,0,0,2,,,,,,,,,,,,,,,0,,,53,69
160080,note_on,0,0,2,,,,,,,,,,,,,,,0,,,41,71
160080,note_on,120,0,2,,,,,,,,,,,,,,,0,,,53,0
160080,note_on,0,0,1,,,,,,,,,,,,,,,0,,,81,59
160080,note_on,0,0,1,,,,,,,,,,,,,,,0,,,86,70
160080,note_on,120,0,1,,,,,,,,,,,,,,,0,,,74,0
160200,set_tempo,280,1,0,,,,,,,,,,,,402685,,,,,,,
160200,note_on,120,0,1,,,,,,,,,,,,,,,0,,,81,0
160200,note_on,120,0,2,,,,,,,,,,,,,,,0,,,41,0
160200,note_on,0,0,1,,,,,,,,,,,,,,,0,,,74,72
160200,note_on,0,0,2,,,,,,,,,,,,,,,0,,,53,73
160200,note_on,0,0,1,,,,,,,,,,,,,,,0,,,86,0
160320,note_on,0,0,1,,,,,,,,,,,,,,,0,,,91,74
160320,note_on,0,0,2,,,,,,,,,,,,,,,0,,,40,76
160320,note_on,120,0,2,,,,,,,,,,,,,,,0,,,53,0
160320,note_on,0,0,1,,,,,,,,,,,,,,,0,,,86,62
160320,note_on,120,0,1,,,,,,,,,,,,,,,0,,,74,0
160330,control_change,10,0,2,,,,,,,,,,,,,,,0,64,0,,
160400,control_change,70,0,2,,,,,,,,,,,,,,,0,64,127,,
160440,note_on,120,0,1,,,,,,,,,,,,,,,0,,,86,0
160440,note_on,0,0,1,,,,,,,,,,,,,,,0,,,91,0
160440,note_on,0,0,1,,,,,,,,,,,,,,,0,,,79,70
160440,note_on,40,0,2,,,,,,,,,,,,,,,0,,,40,0
160440,note_on,0,0,2,,,,,,,,,,,,,,,0,,,52,72
160480,set_tempo,280,1,0,,,,,,,,,,,,401338,,,,,,,
160560,note_on,0,0,2,,,,,,,,,,,,,,,0,,,40,76
160560,note_on,120,0,2,,,,,,,,,,,,,,,0,,,52,0
160560,note_on,120,0,1,,,,,,,,,,,,,,,0,,,79,0
160560,note_on,0,0,1,,,,,,,,,,,,,,,0,,,91,74
160560,note_on,0,0,1,,,,,,,,,,,,,,,0,,,86,62
160680,note_on,120,0,1,,,,,,,,,,,,,,,0,,,86,0
160680,note_on,0,0,1,,,,,,,,,,,,,,,0,,,91,0
160680,note_on,0,0,1,,,,,,,,,,,,,,,0,,,79,70
160680,note_on,0,0,2,,,,,,,,,,,,,,,0,,,52,71
160680,note_on,120,0,2,,,,,,,,,,,,,,,0,,,40,0
160720,set_tempo,240,1,0,,,,,,,,,,,,400000,,,,,,,
160800,note_on,0,0,1,,,,,,,,,,,,,,,0,,,91,74
160800,note_on,0,0,1,,,,,,,,,,,,,,,0,,,85,62
160800,note_on,120,0,1,,,,,,,,,,,,,,,0,,,79,0
160800,note_on,0,0,2,,,,,,,,,,,,,,,0,,,33,76
160800,note_on,120,0,2,,,,,,,,,,,,,,,0,,,52,0
160840,set_tempo,120,1,0,,,,,,,,,,,,401338,,,,,,,
160920,note_on,120,0,1,,,,,,,,,,,,,,,0,,,85,0
160920,note_on,0,0,1,,,,,,,,,,,,,,,0,,,79,70
160920,note_on,0,0,2,,,,,,,,,,,,,,,0,,,45,72
160920,note_on,120,0,2,,,,,,,,,,,,,,,0,,,33,0
160920,note_on,0,0,1,,,,,,,,,,,,,,,0,,,91,0
160960,set_tempo,120,1,0,,,,,,,,,,,,402685,,,,,,,
161040,note_on,120,0,1,,,,,,,,,,,,,,,0,,,79,0
161040,note_on,0,0,1,,,,,,,,,,,,,,,0,,,91,74
161040,note_on,0,0,1,,,,,,,,,,,,,,,0,,,85,62
161040,note_on,120,0,2,,,,,,,,,,,,,,,0,,,45,0
161040,note_on,0,0,2,,,,,,,,,,,,,,,0,,,33,76
161080,set_tempo,120,1,0,,,,,,,,,,,,404040,,,,,,,
161160,note_on,0,0,2,,,,,,,,,,,,,,,0,,,45,71
161160,note_on,120,0,2,,,,,,,,,,,,,,,0,,,33,0
161160,note_on,120,0,1,,,,,,,,,,,,,,,0,,,85,0
161160,note_on,0,0,1,,,,,,,,,,,,,,,0,,,91,0
161160,note_on,0,0,1,,,,,,,,,,,,,,,0,,,79,70
161200,set_tempo,120,1,0,,,,,,,,,,,,405405,,,,,,,
161280,note_on,120,0,2,,,,,,,,,,,,,,,0,,,45,0
161280,control_change,0,0,2,,,,,,,,,,,,,,,0,64,0,,
161280,note_on,0,0,2,,,,,,,,,,,,,,,0,,,38,71
161280,note_on,0,0,2,,,,,,,,,,,,,,,0,,,50,84
161280,note_on,120,0,1,,,,,,,,,,,,,,,0,,,79,0
161280,set_tempo,80,1,0,,,,,,,,,,,,406780,,,,,,,
161280,note_on,0,0,1,,,,,,,,,,,,,,,0,,,62,79
161354,control_change,74,0,2,,,,,,,,,,,,,,,0,64,127,,
161400,note_on,120,0,1,,,,,,,,,,,,,,,0,,,62,0
161400,note_on,0,0,1,,,,,,,,,,,,,,,0,,,74,70
161520,note_on,166,0,2,,,,,,,,,,,,,,,0,,,50,0
161520,note_on,0,0,2,,,,,,,,,,,,,,,0,,,38,0
161520,note_on,0,0,2,,,,,,,,,,,,,,,0,,,45,65
161520,note_on,0,0,2,,,,,,,,,,,,,,,0,,,57,77
161520,note_on,0,0,1,,,,,,,,,,,,,,,0,,,69,70
161520,note_on,120,0,1,,,,,,,,,,,,,,,0,,,74,0
161520,set_tempo,240,1,0,,,,,,,,,,,,397351,,,,,,,
161640,note_on,0,0,1,,,,,,,,,,,,,,,0,,,66,70
161640,note_on,120,0,1,,,,,,,,,,,,,,,0,,,69,0
161749,control_change,229,0,2,,,,,,,,,,,,,,,0,64,0,,
161760,note_on,0,0,2,,,,,,,,,,,,,,,0,,,50,72
161760,note_on,0,0,2,,,,,,,,,,,,,,,0,,,62,85
161760,note_on,0,0,2,,,,,,,,,,,,,,,0,,,45,0
161760,note_on,11,0,2,,,,,,,,,,,,,,,0,,,57,0
161760,note_on,120,0,1,,,,,,,,,,,,,,,0,,,66,0
161760,note_on,0,0,1,,,,,,,,,,,,,,,0,,,69,79
161850,note_on,90,0,2,,,,,,,,,,,,,,,0,,,62,0
161850,note_on,0,0,2,,,,,,,,,,,,,,,0,,,50,0
161880,note_on,0,0,1,,,,,,,,,,,,,,,0,,,81,70
161880,note_on,120,0,1,,,,,,,,,,,,,,,0,,,69,0
162000,note_on,150,0,2,,,,,,,,,,,,,,,0,,,48,64
162000,note_on,0,0,1,,,,,,,,,,,,,,,0,,,78,70
162000,note_on,120,0,1,,,,,,,,,,,,,,,0,,,81,0
162000,note_on,0,0,2,,,,,,,,,,,,,,,0,,,60,76
162090,note_on,0,0,2,,,,,,,,,,,,,,,0,,,48,0
162090,note_on,90,0,2,,,,,,,,,,,,,,,0,,,60,0
162120,note_on,0,0,1,,,,,,,,,,,,,,,0,,,74,71
162120,note_on,120,0,1,,,,,,,,,,,,,,,0,,,78,0
162240,note_on,0,0,2,,,,,,,,,,,,,,,0,,,59,82
162240,note_on,0,0,1,,,,,,,,,,,,,,,0,,,79,67
162240,note_on,0,0,1,,,,,,,,,,,,,,,0,,,83,79
162240,note_on,150,0,2,,,,,,,,,,,,,,,0,,,47,69
162240,note_on,120,0,1,,,,,,,,,,,,,,,0,,,74,0
162240,set_tempo,720,1,0,,,,,,,,,,,,408163,,,,,,,
162251,control_change,11,0,2,,,,,,,,,,,,,,,0,64,127,,
162360,note_on,0,0,1,,,,,,,,,,,,,,,0,,,71,72
162360,note_on,0,0,1,,,,,,,,,,,,,,,0,,,79,0
162360,note_on,120,0,1,,,,,,,,,,,,,,,0,,,83,0
162480,note_on,0,0,2,,,,,,,,,,,,,,,0,,,47,0
162480,note_on,0,0,2,,,,,,,,,,,,,,,0,,,43,62
162480,note_on,0,0,2,,,,,,,,,,,,,,,0,,,55,74
162480,note_on,120,0,1,,,,,,,,,,,,,,,0,,,71,0
162480,note_on,0,0,1,,,,,,,,,,,,,,,0,,,81,67
162480,note_on,0,0,1,,,,,,,,,,,,,,,0,,,84,79
162480,note_on,229,0,2,,,,,,,,,,,,,,,0,,,59,0
162600,note_on,120,0,1,,,,,,,,,,,,,,,0,,,84,0
162600,note_on,0,0,1,,,,,,,,,,,,,,,0,,,81,0
162600,note_on,0,0,1,,,,,,,,,,,,,,,0,,,72,73
162714,control_change,234,0,2,,,,,,,,,,,,,,,0,64,0,,
162720,note_on,0,0,1,,,,,,,,,,,,,,,0,,,86,80
162720,note_on,0,0,2,,,,,,,,,,,,,,,0,,,42,63
162720,note_on,0,0,2,,,,,,,,,,,,,,,0,,,54,75
162720,note_on,0,0,1,,,,,,,,,,,,,,,0,,,83,68
162720,note_on,0,0,2,,,,,,,,,,,,,,,0,,,43,0
162720,note_on,6,0,2,,,,,,,,,,,,,,,0,,,55,0
162720,note_on,120,0,1,,,,,,,,,,,,,,,0,,,72,0
162810,note_on,90,0,2,,,,,,,,,,,,,,,0,,,54,0
162810,note_on,0,0,2,,,,,,,,,,,,,,,0,,,42,0
162840,note_on,0,0,1,,,,,,,,,,,,,,,0,,,83,0
162840,note_on,0,0,1,,,,,,,,,,,,,,,0,,,74,71
162840,note_on,120,0,1,,,,,,,,,,,,,,,0,,,86,0
162960,note_on,120,0,1,,,,,,,,,,,,,,,0,,,74,0
162960,note_on,0,0,1,,,,,,,,,,,,,,,0,,,84,67
162960,note_on,0,0,1,,,,,,,,,,,,,,,0,,,88,79
162960,note_on,0,0,2,,,,,,,,,,,,,,,0,,,52,75
162960,note_on,150,0,2,,,,,,,,,,,,,,,0,,,40,63
163050,note_on,0,0,2,,,,,,,,,,,,,,,0,,,40,0
163050,note_on,90,0,2,,,,,,,,,,,,,,,0,,,52,0
163080,note_on,0,0,1,,,,,,,,,,,,,,,0,,,76,72
163080,note_on,0,0,1,,,,,,,,,,,,,,,0,,,84,0
163080,note_on,120,0,1,,,,,,,,,,,,,,,0,,,88,0
163200,note_on,120,0,1,,,,,,,,,,,,,,,0,,,76,0
163200,note_on,0,0,1,,,,,,,,,,,,,,,0,,,81,60
163200,note_on,0,0,1,,,,,,,,,,,,,,,0,,,86,60
163200,note_on,150,0,2,,,,,,,,,,,,,,,0,,,48,66
163200,note_on,0,0,1,,,,,,,,,,,,,,,0,,,90,71
163200,set_tempo,960,1,0,,,,,,,,,,,,412371,,,,,,,
163240,set_tempo,40,1,0,,,,,,,,,,,,410959,,,,,,,
163251,control_change,51,0,2,,,,,,,,,,,,,,,0,64,127,,
163320,note_on,0,0,2,,,,,,,,,,,,,,,0,,,60,67
163320,note_on,69,0,2,,,,,,,,,,,,,,,0,,,48,0
163320,note_on,120,0,1,,,,,,,,,,,,,,,0,,,90,0
163320,note_on,0,0,1,,,,,,,,,,,,,,,0,,,86,0
163320,note_on,0,0,1,,,,,,,,,,,,,,,0,,,81,0
163320,note_on,0,0,1,,,,,,,,,,,,,,,0,,,78,72
163440,note_on,120,0,2,,,,,,,,,,,,,,,0,,,60,0
163440,note_on,0,0,1,,,,,,,,,,,,,,,0,,,81,62
163440,note_on,0,0,1,,,,,,,,,,,,,,,0,,,86,62
163440,note_on,0,0,2,,,,,,,,,,,,,,,0,,,48,68
163440,note_on,120,0,1,,,,,,,,,,,,,,,0,,,78,0
163440,note_on,0,0,1,,,,,,,,,,,,,,,0,,,90,73
163520,set_tempo,280,1,0,,,,,,,,,,,,409556,,,,,,,
163560,note_on,0,0,2,,,,,,,,,,,,,,,0,,,60,69
163560,note_on,0,0,1,,,,,,,,,,,,,,,0,,,86,0
163560,note_on,0,0,1,,,,,,,,,,,,,,,0,,,81,0
163560,note_on,0,0,1,,,,,,,,,,,,,,,0,,,78,74
163560,note_on,120,0,1,,,,,,,,,,,,,,,0,,,90,0
163560,note_on,120,0,2,,,,,,,,,,,,,,,0,,,48,0
163680,note_on,120,0,1,,,,,,,,,,,,,,,0,,,78,0
163680,note_on,0,0,1,,,,,,,,,,,,,,,0,,,86,63
163680,note_on,0,0,1,,,,,,,,,,,,,,,0,,,91,75
163680,note_on,120,0,2,,,,,,,,,,,,,,,0,,,60,0
163680,note_on,0,0,2,,,,,,,,,,,,,,,0,,,47,71
163690,control_change,10,0,2,,,,,,,,,,,,,,,0,64,0,,
163737,control_change,47,0,2,,,,,,,,,,,,,,,0,64,127,,
163760,set_tempo,240,1,0,,,,,,,,,,,,408163,,,,,,,
163800,note_on,120,0,1,,,,,,,,,,,,,,,0,,,91,0
163800,note_on,0,0,1,,,,,,,,,,,,,,,0,,,86,0
163800,note_on,0,0,1,,,,,,,,,,,,,,,0,,,79,76
163800,note_on,0,0,2,,,,,,,,,,,,,,,0,,,59,72
163800,note_on,63,0,2,,,,,,,,,,,,,,,0,,,47,0
163920,note_on,120,0,2,,,,,,,,,,,,,,,0,,,59,0
163920,note_on,0,0,2,,,,,,,,,,,,,,,0,,,47,73
163920,note_on,120,0,1,,,,,,,,,,,,,,,0,,,79,0
163920,note_on,0,0,1,,,,,,,,,,,,,,,0,,,91,77
163920,note_on,0,0,1,,,,,,,,,,,,,,,0,,,86,65
164000,set_tempo,240,1,0,,,,,,,,,,,,406780,,,,,,,
164040,note_on,120,0,2,,,,,,,,,,,,,,,0,,,47,0
164040,note_on,0,0,2,,,,,,,,,,,,,,,0,,,59,74
164040,note_on,120,0,1,,,,,,,,,,,,,,,0,,,86,0
164040,note_on,0,0,1,,,,,,,,,,,,,,,0,,,91,0
164040,note_on,0,0,1,,,,,,,,,,,,,,,0,,,79,78
164160,note_on,120,0,1,,,,,,,,,,,,,,,0,,,79,0
164160,note_on,0,0,1,,,,,,,,,,,,,,,0,,,96,82
164160,note_on,0,0,1,,,,,,,,,,,,,,,0,,,91,69
164160,note_on,0,0,2,,,,,,,,,,,,,,,0,,,45,75
164160,note_on,120,0,2,,,,,,,,,,,,,,,0,,,59,0
164170,control_change,10,0,2,,,,,,,,,,,,,,,0,64,0,,
164240,set_tempo,240,1,0,,,,,,,,,,,,405405,,,,,,,
164240,control_change,70,0,2,,,,,,,,,,,,,,,0,64,127,,
164280,note_on,0,0,1,,,,,,,,,,,,,,,0,,,96,0
164280,note_on,0,0,1,,,,,,,,,,,,,,,0,,,84,75
164280,note_on,0,0,2,,,,,,,,,,,,,,,0,,,57,73
164280,note_on,120,0,1,,,,,,,,,,,,,,,0,,,91,0
164280,note_on,40,0,2,,,,,,,,,,,,,,,0,,,45,0
164400,note_on,0,0,2,,,,,,,,,,,,,,,0,,,45,78
164400,note_on,120,0,2,,,,,,,,,,,,,,,0,,,57,0
164400,note_on,0,0,1,,,,,,,,,,,,,,,0,,,91,68
164400,note_on,0,0,1,,,,,,,,,,,,,,,0,,,96,80
164400,note_on,120,0,1,,,,,,,,,,,,,,,0,,,84,0
164480,set_tempo,240,1,0,,,,,,,,,,,,404040,,,,,,,
164520,note_on,120,0,1,,,,,,,,,,,,,,,0,,,91,0
164520,note_on,0,0,1,,,,,,,,,,,,,,,0,,,84,74
164520,note_on,0,0,1,,,,,,,,,,,,,,,0,,,96,0
164520,note_on,120,0,2,,,,,,,,,,,,,,,0,,,45,0
164520,note_on,0,0,2,,,,,,,,,,,,,,,0,,,57,71
164640,note_on,0,0,1,,,,,,,,,,,,,,,0,,,90,68
164640,note_on,0,0,1,,,,,,,,,,,,,,,0,,,96,80
164640,note_on,120,0,1,,,,,,,,,,,,,,,0,,,84,0
164640,note_on,120,0,2,,,,,,,,,,,,,,,0,,,57,0
164640,note_on,0,0,2,,,,,,,,,,,,,,,0,,,38,78
164720,set_tempo,240,1,0,,,,,,,,,,,,402685,,,,,,,
164760,set_tempo,40,1,0,,,,,,,,,,,,406780,,,,,,,
164760,note_on,120,0,1,,,,,,,,,,,,,,,0,,,90,0
164760,note_on,0,0,1,,,,,,,,,,,,,,,0,,,84,75
164760,note_on,0,0,1,,,,,,,,,,,,,,,0,,,96,0
164760,note_on,0,0,2,,,,,,,,,,,,,,,0,,,50,70
164760,note_on,120,0,2,,,,,,,,,,,,,,,0,,,38,0
164840,set_tempo,80,1,0,,,,,,,,,,,,408163,,,,,,,
164880,note_on,120,0,2,,,,,,,,,,,,,,,0,,,50,0
164880,note_on,0,0,2,,,,,,,,,,,,,,,0,,,38,76
164880,note_on,120,0,1,,,,,,,,,,,,,,,0,,,84,0
164880,note_on,0,0,1,,,,,,,,,,,,,,,0,,,96,79
164880,note_on,0,0,1,,,,,,,,,,,,,,,0,,,90,67
164920,set_tempo,80,1,0,,,,,,,,,,,,409556,,,,,,,
165000,note_on,120,0,1,,,,,,,,,,,,,,,0,,,90,0
165000,note_on,0,0,1,,,,,,,,,,,,,,,0,,,96,0
165000,note_on,0,0,1,,,,,,,,,,,,,,,0,,,84,74
165000,set_tempo,80,1,0,,,,,,,,,,,,410959,,,,,,,
165000,note_on,0,0,2,,,,,,,,,,,,,,,0,,,50,70
165000,note_on,120,0,2,,,,,,,,,,,,,,,0,,,38,0
165080,set_tempo,80,1,0,,,,,,,,,,,,412371,,,,,,,
165120,note_on,0,0,1,,,,,,,,,,,,,,,0,,,67,79
165120,note_on,120,0,1,,,,,,,,,,,,,,,0,,,84,0
165120,control_change,0,0,2,,,,,,,,,,,,,,,0,64,0,,
165120,note_on,120,0,2,,,,,,,,,,,,,,,0,,,50,0
165120,set_tempo,40,1,0,,,,,,,,,,,,413793,,,,,,,
165120,note_on,0,0,2,,,,,,,,,,,,,,,0,,,55,84
165120,note_on,0,0,2,,,,,,,,,,,,,,,0,,,43,71
165194,control_change,74,0,2,,,,,,,,,,,,,,,0,64,127,,
165240,note_on,0,0,1,,,,,,,,,,,,,,,0,,,79,70
165240,note_on,120,0,1,,,,,,,,,,,,,,,0,,,67,0
165360,note_on,0,0,2,,,,,,,,,,,,,,,0,,,50,65
165360,note_on,0,0,2,,,,,,,,,,,,,,,0,,,43,0
165360,note_on,166,0,2,,,,,,,,,,,,,,,0,,,55,0
165360,note_on,0,0,2,,,,,,,,,,,,,,,0,,,62,77
165360,note_on,120,0,1,,,,,,,,,,,,,,,0,,,79,0
165360,set_tempo,240,1,0,,,,,,,,,,,,404040,,,,,,,
165360,note_on,0,0,1,,,,,,,,,,,,,,,0,,,74,70
165480,note_on,120,0,1,,,,,,,,,,,,,,,0,,,74,0
165480,note_on,0,0,1,,,,,,,,,,,,,,,0,,,71,70
165600,note_on,0,0,1,,,,,,,,,,,,,,,0,,,74,79
165600,note_on,0,0,2,,,,,,,,,,,,,,,0,,,67,85
165600,note_on,120,0,1,,,,,,,,,,,,,,,0,,,71,0
165600,note_on,240,0,2,,,,,,,,,,,,,,,0,,,62,0
165600,note_on,0,0,2,,,,,,,,,,,,,,,0,,,55,72
165600,note_on,0,0,2,,,,,,,,,,,,,,,0,,,50,0
165610,control_change,10,0,2,,,,,,,,,,,,,,,0,64,0,,
165649,control_change,39,0,2,,,,,,,,,,,,,,,0,64,127,,
165720,note_on,120,0,1,,,,,,,,,,,,,,,0,,,74,0
165720,note_on,0,0,1,,,,,,,,,,,,,,,0,,,86,70
165840,note_on,120,0,1,,,,,,,,,,,,,,,0,,,86,0
165840,note_on,0,0,2,,,,,,,,,,,,,,,0,,,53,64
165840,note_on,0,0,2,,,,,,,,,,,,,,,0,,,65,76
165840,note_on,0,0,1,,,,,,,,,,,,,,,0,,,83,70
165840,note_on,0,0,2,,,,,,,,,,,,,,,0,,,55,0
165840,note_on,191,0,2,,,,,,,,,,,,,,,0,,,67,0
165960,note_on,0,0,1,,,,,,,,,,,,,,,0,,,79,71
165960,note_on,120,0,1,,,,,,,,,,,,,,,0,,,83,0
166080,note_on,120,0,1,,,,,,,,,,,,,,,0,,,79,0
166080,note_on,0,0,1,,,,,,,,,,,,,,,0,,,84,67
166080,note_on,0,0,2,,,,,,,,,,,,,,,0,,,64,82
166080,note_on,0,0,2,,,,,,,,,,,,,,,0,,,52,69
166080,note_on,0,0,2,,,,,,,,,,,,,,,0,,,53,0
166080,note_on,240,0,2,,,,,,,,,,,,,,,0,,,65,0
166080,note_on,0,0,1,,,,,,,,,,,,,,,0,,,88,79
166080,set_tempo,720,1,0,,,,,,,,,,,,412371,,,,,,,
166087,control_change,7,0,2,,,,,,,,,,,,,,,0,64,0,,
166122,control_change,35,0,2,,,,,,,,,,,,,,,0,64,127,,
166200,note_on,0,0,1,,,,,,,,,,,,,,,0,,,84,0
166200,note_on,120,0,1,,,,,,,,,,,,,,,0,,,88,0
166200,note_on,0,0,1,,,,,,,,,,,,,,,0,,,76,72
166320,note_on,0,0,2,,,,,,,,,,,,,,,0,,,48,62
166320,note_on,0,0,2,,,,,,,,,,,,,,,0,,,52,0
166320,note_on,0,0,2,,,,,,,,,,,,,,,0,,,60,74
166320,note_on,0,0,1,,,,,,,,,,,,,,,0,,,86,67
166320,note_on,120,0,1,,,,,,,,,,,,,,,0,,,76,0
166320,note_on,198,0,2,,,,,,,,,,,,,,,0,,,64,0
166320,note_on,0,0,1,,,,,,,,,,,,,,,0,,,89,79
166440,note_on,0,0,1,,,,,,,,,,,,,,,0,,,86,0
166440,note_on,120,0,1,,,,,,,,,,,,,,,0,,,89,0
166440,note_on,0,0,1,,,,,,,,,,,,,,,0,,,77,73
166554,control_change,234,0,2,,,,,,,,,,,,,,,0,64,0,,
166560,note_on,6,0,2,,,,,,,,,,,,,,,0,,,60,0
166560,note_on,0,0,2,,,,,,,,,,,,,,,0,,,47,63
166560,note_on,0,0,1,,,,,,,,,,,,,,,0,,,88,68
166560,note_on,0,0,1,,,,,,,,,,,,,,,0,,,91,80
166560,note_on,120,0,1,,,,,,,,,,,,,,,0,,,77,0
166560,note_on,0,0,2,,,,,,,,,,,,,,,0,,,48,0
166560,note_on,0,0,2,,,,,,,,,,,,,,,0,,,59,75
166624,control_change,64,0,2,,,,,,,,,,,,,,,0,64,127,,
166680,note_on,120,0,1,,,,,,,,,,,,,,,0,,,91,0
166680,note_on,0,0,1,,,,,,,,,,,,,,,0,,,79,71
166680,note_on,0,0,1,,,,,,,,,,,,,,,0,,,88,0
166800,note_on,0,0,2,,,,,,,,,,,,,,,0,,,45,63
166800,note_on,0,0,2,,,,,,,,,,,,,,,0,,,57,75
166800,note_on,0,0,2,,,,,,,,,,,,,,,0,,,47,0
166800,note_on,120,0,1,,,,,,,,,,,,,,,0,,,79,0
166800,note_on,0,0,1,,,,,,,,,,,,,,,0,,,89,67
166800,note_on,176,0,2,,,,,,,,,,,,,,,0,,,59,0
166800,note_on,0,0,1,,,,,,,,,,,,,,,0,,,93,79
166920,note_on,0,0,1,,,,,,,,,,,,,,,0,,,81,72
166920,note_on,120,0,1,,,,,,,,,,,,,,,0,,,93,0
166920,note_on,0,0,1,,,,,,,,,,,,,,,0,,,89,0
167040,note_on,0,0,1,,,,,,,,,,,,,,,0,,,86,60
167040,note_on,0,0,2,,,,,,,,,,,,,,,0,,,45,0
167040,note_on,240,0,2,,,,,,,,,,,,,,,0,,,57,0
167040,note_on,0,0,1,,,,,,,,,,,,,,,0,,,91,60
167040,note_on,0,0,1,,,,,,,,,,,,,,,0,,,95,71
167040,set_tempo,960,1,0,,,,,,,,,,,,415225,,,,,,,
167040,note_on,0,0,2,,,,,,,,,,,,,,,0,,,53,66
167040,note_on,120,0,1,,,,,,,,,,,,,,,0,,,81,0
167049,control_change,9,0,2,,,,,,,,,,,,,,,0,64,0,,
167125,control_change,76,0,2,,,,,,,,,,,,,,,0,64,127,,
167160,note_on,35,0,2,,,,,,,,,,,,,,,0,,,53,0
167160,note_on,120,0,1,,,,,,,,,,,,,,,0,,,95,0
167160,note_on,0,0,1,,,,,,,,,,,,,,,0,,,91,0
167160,note_on,0,0,1,,,,,,,,,,,,,,,0,,,86,0
167160,note_on,0,0,1,,,,,,,,,,,,,,,0,,,83,72
167160,note_on,0,0,2,,,,,,,,,,,,,,,0,,,65,67
167160,set_tempo,120,1,0,,,,,,,,,,,,413793,,,,,,,
167280,note_on,0,0,1,,,,,,,,,,,,,,,0,,,86,62
167280,note_on,0,0,1,,,,,,,,,,,,,,,0,,,95,73
167280,note_on,0,0,2,,,,,,,,,,,,,,,0,,,53,68
167280,note_on,120,0,1,,,,,,,,,,,,,,,0,,,83,0
167280,note_on,0,0,1,,,,,,,,,,,,,,,0,,,91,62
167280,note_on,120,0,2,,,,,,,,,,,,,,,0,,,65,0
167400,note_on,120,0,1,,,,,,,,,,,,,,,0,,,95,0
167400,note_on,0,0,1,,,,,,,,,,,,,,,0,,,91,0
167400,note_on,0,0,1,,,,,,,,,,,,,,,0,,,86,0
167400,note_on,0,0,1,,,,,,,,,,,,,,,0,,,83,74
167400,note_on,120,0,2,,,,,,,,,,,,,,,0,,,53,0
167400,note_on,0,0,2,,,,,,,,,,,,,,,0,,,65,69
167480,set_tempo,320,1,0,,,,,,,,,,,,413793,,,,,,,
167520,note_on,120,0,1,,,,,,,,,,,,,,,0,,,83,0
167520,note_on,0,0,1,,,,,,,,,,,,,,,0,,,91,63
167520,note_on,0,0,1,,,,,,,,,,,,,,,0,,,96,75
167520,note_on,120,0,2,,,,,,,,,,,,,,,0,,,65,0
167520,note_on,0,0,2,,,,,,,,,,,,,,,0,,,52,71
167520,set_tempo,40,1,0,,,,,,,,,,,,416667,,,,,,,
167530,control_change,10,0,2,,,,,,,,,,,,,,,0,64,0,,
167560,set_tempo,40,1,0,,,,,,,,,,,,419580,,,,,,,
167576,control_change,46,0,2,,,,,,,,,,,,,,,0,64,127,,
167600,set_tempo,40,1,0,,,,,,,,,,,,422535,,,,,,,
167640,set_tempo,40,1,0,,,,,,,,,,,,425532,,,,,,,
167640,note_on,0,0,1,,,,,,,,,,,,,,,0,,,84,76
167640,note_on,0,0,1,,,,,,,,,,,,,,,0,,,91,0
167640,note_on,0,0,2,,,,,,,,,,,,,,,0,,,64,72
167640,note_on,120,0,1,,,,,,,,,,,,,,,0,,,96,0
167640,note_on,64,0,2,,,,,,,,,,,,,,,0,,,52,0
167680,set_tempo,40,1,0,,,,,,,,,,,,428571,,,,,,,
167720,set_tempo,40,1,0,,,,,,,,,,,,431655,,,,,,,
167760,note_on,120,0,1,,,,,,,,,,,,,,,0,,,84,0
167760,note_on,0,0,1,,,,,,,,,,,,,,,0,,,91,65
167760,set_tempo,40,1,0,,,,,,,,,,,,434783,,,,,,,
167760,note_on,120,0,2,,,,,,,,,,,,,,,0,,,64,0
167760,note_on,0,0,2,,,,,,,,,,,,,,,0,,,52,73
167760,note_on,0,0,1,,,,,,,,,,,,,,,0,,,96,77
167800,set_tempo,40,1,0,,,,,,,,,,,,437956,,,,,,,
167880,note_on,0,0,2,,,,,,,,,,,,,,,0,,,64,74
167880,set_tempo,80,1,0,,,,,,,,,,,,563380,,,,,,,
167880,note_on,0,0,1,,,,,,,,,,,,,,,0,,,84,78
167880,note_on,0,0,1,,,,,,,,,,,,,,,0,,,96,0
167880,note_on,120,0,1,,,,,,,,,,,,,,,0,,,91,0
167880,note_on,120,0,2,,,,,,,,,,,,,,,0,,,52,0
168000,note_on,120,0,2,,,,,,,,,,,,,,,0,,,64,0
168000,note_on,0,0,2,,,,,,,,,,,,,,,0,,,50,75
168000,note_on,0,0,1,,,,,,,,,,,,,,,0,,,101,82
168000,note_on,120,0,1,,,,,,,,,,,,,,,0,,,84,0
168000,set_tempo,120,1,0,,,,,,,,,,,,428571,,,,,,,
168000,note_on,0,0,1,,,,,,,,,,,,,,,0,,,96,69
168010,control_change,10,0,2,,,,,,,,,,,,,,,0,64,0,,
168080,control_change,70,0,2,,,,,,,,,,,,,,,0,64,127,,
168120,note_on,0,0,2,,,,,,,,,,,,,,,0,,,62,73
168120,note_on,0,0,1,,,,,,,,,,,,,,,0,,,89,75
168120,note_on,0,0,1,,,,,,,,,,,,,,,0,,,101,0
168120,note_on,120,0,1,,,,,,,,,,,,,,,0,,,96,0
168120,note_on,40,0,2,,,,,,,,,,,,,,,0,,,50,0
168240,note_on,120,0,2,,,,,,,,,,,,,,,0,,,62,0
168240,note_on,0,0,2,,,,,,,,,,,,,,,0,,,50,80
168240,note_on,0,0,1,,,,,,,,,,,,,,,0,,,101,82
168240,note_on,120,0,1,,,,,,,,,,,,,,,0,,,89,0
168240,note_on,0,0,1,,,,,,,,,,,,,,,0,,,96,70
168360,note_on,120,0,1,,,,,,,,,,,,,,,0,,,96,0
168360,note_on,0,0,1,,,,,,,,,,,,,,,0,,,89,77
168360,note_on,120,0,2,,,,,,,,,,,,,,,0,,,50,0
168360,note_on,0,0,2,,,,,,,,,,,,,,,0,,,62,74
168360,note_on,0,0,1,,,,,,,,,,,,,,,0,,,101,0
168480,note_on,120,0,1,,,,,,,,,,,,,,,0,,,89,0
168480,note_on,0,0,1,,,,,,,,,,,,,,,0,,,101,85
168480,note_on,0,0,1,,,,,,,,,,,,,,,0,,,95,72
168480,note_on,0,0,2,,,,,,,,,,,,,,,0,,,43,83
168480,note_on,120,0,2,,,,,,,,,,,,,,,0,,,62,0
168600,note_on,120,0,1,,,,,,,,,,,,,,,0,,,95,0
168600,note_on,0,0,1,,,,,,,,,,,,,,,0,,,101,0
168600,note_on,0,0,1,,,,,,,,,,,,,,,0,,,89,81
168600,note_on,0,0,2,,,,,,,,,,,,,,,0,,,55,75
168600,note_on,120,0,2,,,,,,,,,,,,,,,0,,,43,0
168720,note_on,0,0,1,,,,,,,,,,,,,,,0,,,95,73
168720,note_on,0,0,1,,,,,,,,,,,,,,,0,,,101,86
168720,note_on,120,0,1,,,,,,,,,,,,,,,0,,,89,0
168720,note_on,0,0,2,,,,,,,,,,,,,,,0,,,43,83
168720,note_on,120,0,2,,,,,,,,,,,,,,,0,,,55,0
168840,note_on,120,0,2,,,,,,,,,,,,,,,0,,,43,0
168840,note_on,0,0,1,,,,,,,,,,,,,,,0,,,89,82
168840,note_on,0,0,1,,,,,,,,,,,,,,,0,,,101,0
168840,note_on,120,0,1,,,,,,,,,,,,,,,0,,,95,0
168840,note_on,0,0,2,,,,,,,,,,,,,,,0,,,55,78
168960,note_on,0,0,1,,,,,,,,,,,,,,,0,,,95,66
168960,note_on,0,0,1,,,,,,,,,,,,,,,0,,,100,78
168960,note_on,120,0,1,,,,,,,,,,,,,,,0,,,89,0
168960,set_tempo,960,1,0,,,,,,,,,,,,406780,,,,,,,
168960,note_on,120,0,2,,,,,,,,,,,,,,,0,,,55,0
168960,note_on,0,0,2,,,,,,,,,,,,,,,0,,,48,64
168961,control_change,1,0,2,,,,,,,,,,,,,,,0,64,0,,
169000,control_change,39,0,2,,,,,,,,,,,,,,,0,64,127,,
169080,note_on,0,0,1,,,,,,,,,,,,,,,0,,,88,70
169080,note_on,0,0,1,,,,,,,,,,,,,,,0,,,100,0
169080,note_on,80,0,2,,,,,,,,,,,,,,,0,,,48,0
169080,note_on,0,0,2,,,,,,,,,,,,,,,0,,,60,54
169080,note_on,120,0,1,,,,,,,,,,,,,,,0,,,95,0
169200,note_on,120,0,2,,,,,,,,,,,,,,,0,,,60,0
169200,note_on,0,0,1,,,,,,,,,,,,,,,0,,,95,65
169200,note_on,0,0,1,,,,,,,,,,,,,,,0,,,100,77
169200,note_on,0,0,2,,,,,,,,,,,,,,,0,,,48,64
169200,note_on,120,0,1,,,,,,,,,,,,,,,0,,,88,0
169320,note_on,120,0,2,,,,,,,,,,,,,,,0,,,48,0
169320,note_on,0,0,2,,,,,,,,,,,,,,,0,,,60,53
169320,note_on,0,0,1,,,,,,,,,,,,,,,0,,,88,70
169320,note_on,0,0,1,,,,,,,,,,,,,,,0,,,100,0
169320,note_on,120,0,1,,,,,,,,,,,,,,,0,,,95,0
169440,note_on,120,0,1,,,,,,,,,,,,,,,0,,,88,0
169440,note_on,0,0,1,,,,,,,,,,,,,,,0,,,93,64
169440,note_on,0,0,2,,,,,,,,,,,,,,,0,,,41,64
169440,note_on,0,0,1,,,,,,,,,,,,,,,0,,,100,75
169440,note_on,120,0,2,,,,,,,,,,,,,,,0,,,60,0
169450,control_change,10,0,2,,,,,,,,,,,,,,,0,64,0,,
169526,control_change,76,0,2,,,,,,,,,,,,,,,0,64,127,,
169560,note_on,0,0,1,,,,,,,,,,,,,,,0,,,100,0
169560,note_on,0,0,1,,,,,,,,,,,,,,,0,,,88,68
169560,note_on,0,0,2,,,,,,,,,,,,,,,0,,,53,55
169560,note_on,34,0,2,,,,,,,,,,,,,,,0,,,41,0
169560,note_on,120,0,1,,,,,,,,,,,,,,,0,,,93,0
169680,note_on,0,0,1,,,,,,,,,,,,,,,0,,,100,72
169680,note_on,120,0,1,,,,,,,,,,,,,,,0,,,88,0
169680,note_on,0,0,1,,,,,,,,,,,,,,,0,,,93,60
169680,note_on,0,0,2,,,,,,,,,,,,,,,0,,,41,64
169680,note_on,120,0,2,,,,,,,,,,,,,,,0,,,53,0
169800,note_on,0,0,1,,,,,,,,,,,,,,,0,,,88,67
169800,note_on,0,0,1,,,,,,,,,,,,,,,0,,,100,0
169800,note_on,120,0,1,,,,,,,,,,,,,,,0,,,93,0
169800,note_on,0,0,2,,,,,,,,,,,,,,,0,,,53,54
169800,note_on,120,0,2,,,,,,,,,,,,,,,0,,,41,0
169920,set_tempo,960,1,0,,,,,,,,,,,,402685,,,,,,,
169920,note_on,120,0,1,,,,,,,,,,,,,,,0,,,88,0
169920,note_on,0,0,1,,,,,,,,,,,,,,,0,,,98,74
169920,note_on,0,0,1,,,,,,,,,,,,,,,0,,,93,63
169920,note_on,0,0,2,,,,,,,,,,,,,,,0,,,47,64
169920,note_on,120,0,2,,,,,,,,,,,,,,,0,,,53,0
169931,control_change,11,0,2,,,,,,,,,,,,,,,0,64,0,,
169966,control_change,35,0,2,,,,,,,,,,,,,,,0,64,127,,
170040,note_on,0,0,1,,,,,,,,,,,,,,,0,,,86,68
170040,note_on,74,0,2,,,,,,,,,,,,,,,0,,,47,0
170040,note_on,0,0,2,,,,,,,,,,,,,,,0,,,59,54
170040,note_on,0,0,1,,,,,,,,,,,,,,,0,,,98,0
170040,note_on,120,0,1,,,,,,,,,,,,,,,0,,,93,0
170160,note_on,0,0,1,,,,,,,,,,,,,,,0,,,93,63
170160,note_on,0,0,1,,,,,,,,,,,,,,,0,,,98,74
170160,note_on,120,0,1,,,,,,,,,,,,,,,0,,,86,0
170160,note_on,0,0,2,,,,,,,,,,,,,,,0,,,47,64
170160,note_on,120,0,2,,,,,,,,,,,,,,,0,,,59,0
170280,note_on,0,0,1,,,,,,,,,,,,,,,0,,,86,67
170280,note_on,0,0,1,,,,,,,,,,,,,,,0,,,98,0
170280,note_on,120,0,1,,,,,,,,,,,,,,,0,,,93,0
170280,note_on,120,0,2,,,,,,,,,,,,,,,0,,,47,0
170280,note_on,0,0,2,,,,,,,,,,,,,,,0,,,59,54
170400,note_on,120,0,2,,,,,,,,,,,,,,,0,,,59,0
170400,note_on,120,0,1,,,,,,,,,,,,,,,0,,,86,0
170400,note_on,0,0,1,,,,,,,,,,,,,,,0,,,92,63
170400,note_on,0,0,1,,,,,,,,,,,,,,,0,,,98,74
170400,note_on,0,0,2,,,,,,,,,,,,,,,0,,,40,64
170410,control_change,10,0,2,,,,,,,,,,,,,,,0,64,0,,
170474,control_change,64,0,2,,,,,,,,,,,,,,,0,64,127,,
170520,note_on,46,0,2,,,,,,,,,,,,,,,0,,,40,0
170520,note_on,0,0,1,,,,,,,,,,,,,,,0,,,86,66
170520,note_on,0,0,2,,,,,,,,,,,,,,,0,,,52,53
170520,note_on,0,0,1,,,,,,,,,,,,,,,0,,,98,0
170520,note_on,120,0,1,,,,,,,,,,,,,,,0,,,92,0
170640,note_on,120,0,2,,,,,,,,,,,,,,,0,,,52,0
170640,note_on,0,0,2,,,,,,,,,,,,,,,0,,,40,64
170640,note_on,0,0,1,,,,,,,,,,,,,,,0,,,92,63
170640,note_on,0,0,1,,,,,,,,,,,,,,,0,,,98,74
170640,note_on,120,0,1,,,,,,,,,,,,,,,0,,,86,0
170760,note_on,120,0,2,,,,,,,,,,,,,,,0,,,40,0
170760,note_on,0,0,2,,,,,,,,,,,,,,,0,,,52,55
170760,note_on,0,0,1,,,,,,,,,,,,,,,0,,,86,68
170760,note_on,120,0,1,,,,,,,,,,,,,,,0,,,92,0
170760,note_on,0,0,1,,,,,,,,,,,,,,,0,,,98,0
170800,set_tempo,880,1,0,,,,,,,,,,,,402685,,,,,,,
170880,note_on,0,0,1,,,,,,,,,,,,,,,0,,,93,63
170880,note_on,0,0,1,,,,,,,,,,,,,,,0,,,96,74
170880,note_on,120,0,1,,,,,,,,,,,,,,,0,,,86,0
170880,note_on,120,0,2,,,,,,,,,,,,,,,0,,,52,0
170880,set_tempo,80,1,0,,,,,,,,,,,,401338,,,,,,,
170880,note_on,0,0,2,,,,,,,,,,,,,,,0,,,41,64
170889,control_change,9,0,2,,,,,,,,,,,,,,,0,64,0,,
170965,control_change,76,0,2,,,,,,,,,,,,,,,0,64,127,,
171000,note_on,0,0,2,,,,,,,,,,,,,,,0,,,53,56
171000,note_on,35,0,2,,,,,,,,,,,,,,,0,,,41,0
171000,note_on,0,0,1,,,,,,,,,,,,,,,0,,,84,68
171000,note_on,0,0,1,,,,,,,,,,,,,,,0,,,96,0
171000,note_on,120,0,1,,,,,,,,,,,,,,,0,,,93,0
171120,note_on,0,0,2,,,,,,,,,,,,,,,0,,,41,64
171120,note_on,0,0,1,,,,,,,,,,,,,,,0,,,96,74
171120,note_on,120,0,2,,,,,,,,,,,,,,,0,,,53,0
171120,note_on,120,0,1,,,,,,,,,,,,,,,0,,,84,0
171120,note_on,0,0,1,,,,,,,,,,,,,,,0,,,93,63
171120,set_tempo,240,1,0,,,,,,,,,,,,400000,,,,,,,
171240,note_on,0,0,1,,,,,,,,,,,,,,,0,,,96,0
171240,note_on,120,0,1,,,,,,,,,,,,,,,0,,,93,0
171240,note_on,0,0,2,,,,,,,,,,,,,,,0,,,53,54
171240,note_on,120,0,2,,,,,,,,,,,,,,,0,,,41,0
171240,note_on,0,0,1,,,,,,,,,,,,,,,0,,,84,67
171320,set_tempo,200,1,0,,,,,,,,,,,,398671,,,,,,,
171360,note_on,0,0,2,,,,,,,,,,,,,,,0,,,41,56
171360,note_on,120,0,1,,,,,,,,,,,,,,,0,,,84,0
171360,note_on,0,0,1,,,,,,,,,,,,,,,0,,,89,65
171360,note_on,0,0,1,,,,,,,,,,,,,,,0,,,93,65
171360,note_on,0,0,2,,,,,,,,,,,,,,,0,,,50,67
171360,note_on,0,0,2,,,,,,,,,,,,,,,0,,,45,56
171360,note_on,120,0,2,,,,,,,,,,,,,,,0,,,53,0
171360,set_tempo,40,1,0,,,,,,,,,,,,394737,,,,,,,
171360,note_on,0,0,1,,,,,,,,,,,,,,,0,,,98,77
171370,control_change,10,0,2,,,,,,,,,,,,,,,0,64,0,,
171452,control_change,82,0,2,,,,,,,,,,,,,,,0,64,127,,
171480,note_on,0,0,1,,,,,,,,,,,,,,,0,,,93,0
171480,note_on,0,0,1,,,,,,,,,,,,,,,0,,,89,0
171480,note_on,0,0,2,,,,,,,,,,,,,,,0,,,53,59
171480,note_on,0,0,2,,,,,,,,,,,,,,,0,,,50,0
171480,note_on,0,0,2,,,,,,,,,,,,,,,0,,,45,0
171480,note_on,28,0,2,,,,,,,,,,,,,,,0,,,41,0
171480,note_on,120,0,1,,,,,,,,,,,,,,,0,,,98,0
171480,note_on,0,0,1,,,,,,,,,,,,,,,0,,,86,70
171600,note_on,120,0,1,,,,,,,,,,,,,,,0,,,86,0
171600,note_on,0,0,1,,,,,,,,,,,,,,,0,,,98,76
171600,note_on,0,0,1,,,,,,,,,,,,,,,0,,,89,65
171600,note_on,120,0,2,,,,,,,,,,,,,,,0,,,53,0
171600,note_on,0,0,2,,,,,,,,,,,,,,,0,,,41,56
171600,note_on,0,0,1,,,,,,,,,,,,,,,0,,,93,65
171600,note_on,0,0,2,,,,,,,,,,,,,,,0,,,45,56
171600,note_on,0,0,2,,,,,,,,,,,,,,,0,,,50,67
171720,note_on,0,0,1,,,,,,,,,,,,,,,0,,,93,0
171720,note_on,0,0,1,,,,,,,,,,,,,,,0,,,98,0
171720,note_on,0,0,1,,,,,,,,,,,,,,,0,,,86,70
171720,note_on,120,0,2,,,,,,,,,,,,,,,0,,,50,0
171720,note_on,0,0,2,,,,,,,,,,,,,,,0,,,45,0
171720,note_on,120,0,1,,,,,,,,,,,,,,,0,,,89,0
171720,note_on,0,0,2,,,,,,,,,,,,,,,0,,,41,0
171720,note_on,0,0,2,,,,,,,,,,,,,,,0,,,53,57
171840,note_on,0,0,1,,,,,,,,,,,,,,,0,,,91,63
171840,note_on,0,0,2,,,,,,,,,,,,,,,0,,,43,53
171840,note_on,0,0,2,,,,,,,,,,,,,,,0,,,48,53
171840,note_on,0,0,2,,,,,,,,,,,,,,,0,,,52,64
171840,note_on,120,0,1,,,,,,,,,,,,,,,0,,,86,0
171840,note_on,0,0,1,,,,,,,,,,,,,,,0,,,88,63
171840,note_on,120,0,2,,,,,,,,,,,,,,,0,,,53,0
171840,note_on,0,0,1,,,,,,,,,,,,,,,0,,,96,74
171850,control_change,10,0,2,,,,,,,,,,,,,,,0,64,0,,
171880,set_tempo,520,1,0,,,,,,,,,,,,397351,,,,,,,
171918,control_change,68,0,2,,,,,,,,,,,,,,,0,64,127,,
171960,note_on,0,0,1,,,,,,,,,,,,,,,0,,,84,68
171960,note_on,0,0,1,,,,,,,,,,,,,,,0,,,96,0
171960,note_on,0,0,2,,,,,,,,,,,,,,,0,,,55,57
171960,note_on,0,0,2,,,,,,,,,,,,,,,0,,,43,0
171960,note_on,0,0,2,,,,,,,,,,,,,,,0,,,48,0
171960,note_on,42,0,2,,,,,,,,,,,,,,,0,,,52,0
171960,note_on,0,0,1,,,,,,,,,,,,,,,0,,,91,0
171960,note_on,120,0,1,,,,,,,,,,,,,,,0,,,88,0
172080,note_on,120,0,1,,,,,,,,,,,,,,,0,,,84,0
172080,note_on,0,0,2,,,,,,,,,,,,,,,0,,,52,64
172080,note_on,0,0,2,,,,,,,,,,,,,,,0,,,43,53
172080,note_on,120,0,2,,,,,,,,,,,,,,,0,,,55,0
172080,note_on,0,0,1,,,,,,,,,,,,,,,0,,,96,74
172080,note_on,0,0,2,,,,,,,,,,,,,,,0,,,48,53
172080,note_on,0,0,1,,,,,,,,,,,,,,,0,,,91,63
172080,note_on,0,0,1,,,,,,,,,,,,,,,0,,,88,63
172200,note_on,120,0,2,,,,,,,,,,,,,,,0,,,52,0
172200,note_on,0,0,2,,,,,,,,,,,,,,,0,,,48,0
172200,note_on,0,0,2,,,,,,,,,,,,,,,0,,,43,0
172200,note_on,0,0,2,,,,,,,,,,,,,,,0,,,55,56
172200,note_on,0,0,1,,,,,,,,,,,,,,,0,,,84,68
172200,note_on,0,0,1,,,,,,,,,,,,,,,0,,,96,0
172200,note_on,0,0,1,,,,,,,,,,,,,,,0,,,91,0
172200,note_on,120,0,1,,,,,,,,,,,,,,,0,,,88,0
172320,note_on,120,0,1,,,,,,,,,,,,,,,0,,,84,0
172320,note_on,0,0,1,,,,,,,,,,,,,,,0,,,86,63
172320,note_on,0,0,1,,,,,,,,,,,,,,,0,,,91,63
172320,note_on,0,0,1,,,,,,,,,,,,,,,0,,,95,74
172320,set_tempo,440,1,0,,,,,,,,,,,,400000,,,,,,,
172320,note_on,0,0,2,,,,,,,,,,,,,,,0,,,50,64
172320,note_on,120,0,2,,,,,,,,,,,,,,,0,,,55,0
172320,note_on,0,0,2,,,,,,,,,,,,,,,0,,,43,53
172320,note_on,0,0,2,,,,,,,,,,,,,,,0,,,47,53
172330,control_change,10,0,2,,,,,,,,,,,,,,,0,64,0,,
172419,control_change,89,0,2,,,,,,,,,,,,,,,0,64,127,,
172440,note_on,0,0,1,,,,,,,,,,,,,,,0,,,83,69
172440,note_on,0,0,1,,,,,,,,,,,,,,,0,,,95,0
172440,note_on,0,0,1,,,,,,,,,,,,,,,0,,,91,0
172440,note_on,120,0,1,,,,,,,,,,,,,,,0,,,86,0
172440,note_on,0,0,2,,,,,,,,,,,,,,,0,,,43,0
172440,note_on,21,0,2,,,,,,,,,,,,,,,0,,,50,0
172440,note_on,0,0,2,,,,,,,,,,,,,,,0,,,55,57
172440,note_on,0,0,2,,,,,,,,,,,,,,,0,,,47,0
172480,set_tempo,160,1,0,,,,,,,,,,,,401338,,,,,,,
172560,note_on,0,0,2,,,,,,,,,,,,,,,0,,,50,64
172560,note_on,0,0,1,,,,,,,,,,,,,,,0,,,91,63
172560,note_on,0,0,2,,,,,,,,,,,,,,,0,,,43,53
172560,note_on,120,0,2,,,,,,,,,,,,,,,0,,,55,0
172560,note_on,120,0,1,,,,,,,,,,,,,,,0,,,83,0
172560,note_on,0,0,1,,,,,,,,,,,,,,,0,,,95,74
172560,note_on,0,0,1,,,,,,,,,,,,,,,0,,,86,63
172560,note_on,0,0,2,,,,,,,,,,,,,,,0,,,47,53
172640,set_tempo,160,1,0,,,,,,,,,,,,402685,,,,,,,
172680,note_on,120,0,2,,,,,,,,,,,,,,,0,,,50,0
172680,note_on,0,0,2,,,,,,,,,,,,,,,0,,,55,57
172680,note_on,0,0,2,,,,,,,,,,,,,,,0,,,43,0
172680,note_on,0,0,2,,,,,,,,,,,,,,,0,,,47,0
172680,note_on,0,0,1,,,,,,,,,,,,,,,0,,,83,68
172680,note_on,0,0,1,,,,,,,,,,,,,,,0,,,95,0
172680,note_on,0,0,1,,,,,,,,,,,,,,,0,,,91,0
172680,note_on,120,0,1,,,,,,,,,,,,,,,0,,,86,0
172800,note_on,0,0,2,,,,,,,,,,,,,,,0,,,55,53
172800,note_on,0,0,2,,,,,,,,,,,,,,,0,,,52,53
172800,note_on,0,0,2,,,,,,,,,,,,,,,0,,,60,64
172800,set_tempo,160,1,0,,,,,,,,,,,,404040,,,,,,,
172800,note_on,120,0,1,,,,,,,,,,,,,,,0,,,83,0
172800,note_on,0,0,1,,,,,,,,,,,,,,,0,,,84,63
172800,note_on,0,0,1,,,,,,,,,,,,,,,0,,,88,63
172800,note_on,0,0,1,,,,,,,,,,,,,,,0,,,91,74
172800,note_on,120,0,2,,,,,,,,,,,,,,,0,,,55,0
172810,control_change,10,0,2,,,,,,,,,,,,,,,0,64,0,,
172878,control_change,68,0,2,,,,,,,,,,,,,,,0,64,127,,
172920,note_on,0,0,2,,,,,,,,,,,,,,,0,,,64,55
172920,note_on,0,0,2,,,,,,,,,,,,,,,0,,,60,0
172920,note_on,0,0,2,,,,,,,,,,,,,,,0,,,55,0
172920,note_on,42,0,2,,,,,,,,,,,,,,,0,,,52,0
172920,note_on,120,0,1,,,,,,,,,,,,,,,0,,,91,0
172920,note_on,0,0,1,,,,,,,,,,,,,,,0,,,79,66
172920,note_on,0,0,1,,,,,,,,,,,,,,,0,,,84,0
172920,note_on,0,0,1,,,,,,,,,,,,,,,0,,,88,0
173040,note_on,0,0,1,,,,,,,,,,,,,,,0,,,84,63
173040,note_on,120,0,2,,,,,,,,,,,,,,,0,,,64,0
173040,note_on,0,0,2,,,,,,,,,,,,,,,0,,,60,64
173040,note_on,0,0,2,,,,,,,,,,,,,,,0,,,55,53
173040,note_on,0,0,1,,,,,,,,,,,,,,,0,,,88,63
173040,note_on,0,0,1,,,,,,,,,,,,,,,0,,,91,74
173040,note_on,120,0,1,,,,,,,,,,,,,,,0,,,79,0
173040,note_on,0,0,2,,,,,,,,,,,,,,,0,,,52,53
173160,note_on,0,0,2,,,,,,,,,,,,,,,0,,,64,55
173160,note_on,0,0,2,,,,,,,,,,,,,,,0,,,60,0
173160,note_on,120,0,2,,,,,,,,,,,,,,,0,,,52,0
173160,note_on,120,0,1,,,,,,,,,,,,,,,0,,,84,0
173160,note_on,0,0,1,,,,,,,,,,,,,,,0,,,88,0
173160,note_on,0,0,1,,,,,,,,,,,,,,,0,,,91,0
173160,note_on,0,0,1,,,,,,,,,,,,,,,0,,,79,66
173160,note_on,0,0,2,,,,,,,,,,,,,,,0,,,55,0
173200,set_tempo,400,1,0,,,,,,,,,,,,408163,,,,,,,
173280,note_on,0,0,1,,,,,,,,,,,,,,,0,,,81,65
173280,note_on,120,0,1,,,,,,,,,,,,,,,0,,,79,0
173280,note_on,0,0,1,,,,,,,,,,,,,,,0,,,86,65
173280,note_on,0,0,1,,,,,,,,,,,,,,,0,,,89,77
173280,note_on,0,0,2,,,,,,,,,,,,,,,0,,,53,56
173280,note_on,0,0,2,,,,,,,,,,,,,,,0,,,62,67
173280,note_on,120,0,2,,,,,,,,,,,,,,,0,,,64,0
173280,note_on,0,0,2,,,,,,,,,,,,,,,0,,,57,56
173290,control_change,10,0,2,,,,,,,,,,,,,,,0,64,0,,
173320,set_tempo,120,1,0,,,,,,,,,,,,409556,,,,,,,
173365,control_change,75,0,2,,,,,,,,,,,,,,,0,64,127,,
173400,note_on,35,0,2,,,,,,,,,,,,,,,0,,,53,0
173400,note_on,0,0,2,,,,,,,,,,,,,,,0,,,57,0
173400,note_on,0,0,1,,,,,,,,,,,,,,,0,,,77,69
173400,note_on,0,0,2,,,,,,,,,,,,,,,0,,,65,58
173400,note_on,120,0,1,,,,,,,,,,,,,,,0,,,89,0
173400,note_on,0,0,1,,,,,,,,,,,,,,,0,,,86,0
173400,note_on,0,0,1,,,,,,,,,,,,,,,0,,,81,0
173400,note_on,0,0,2,,,,,,,,,,,,,,,0,,,62,0
173440,set_tempo,120,1,0,,,,,,,,,,,,410959,,,,,,,
173520,note_on,120,0,1,,,,,,,,,,,,,,,0,,,77,0
173520,note_on,0,0,2,,,,,,,,,,,,,,,0,,,62,67
173520,note_on,0,0,2,,,,,,,,,,,,,,,0,,,57,56
173520,note_on,0,0,2,,,,,,,,,,,,,,,0,,,53,56
173520,note_on,0,0,1,,,,,,,,,,,,,,,0,,,81,65
173520,note_on,0,0,1,,,,,,,,,,,,,,,0,,,86,65
173520,note_on,0,0,1,,,,,,,,,,,,,,,0,,,89,76
173520,note_on,120,0,2,,,,,,,,,,,,,,,0,,,65,0
173560,set_tempo,120,1,0,,,,,,,,,,,,412371,,,,,,,
173640,note_on,0,0,2,,,,,,,,,,,,,,,0,,,57,0
173640,note_on,0,0,2,,,,,,,,,,,,,,,0,,,65,56
173640,note_on,0,0,2,,,,,,,,,,,,,,,0,,,62,0
173640,note_on,120,0,2,,,,,,,,,,,,,,,0,,,53,0
173640,note_on,120,0,1,,,,,,,,,,,,,,,0,,,81,0
173640,note_on,0,0,1,,,,,,,,,,,,,,,0,,,77,70
173640,note_on,0,0,1,,,,,,,,,,,,,,,0,,,89,0
173640,note_on,0,0,1,,,,,,,,,,,,,,,0,,,86,0
173680,set_tempo,120,1,0,,,,,,,,,,,,413793,,,,,,,
173760,note_on,0,0,2,,,,,,,,,,,,,,,0,,,55,59
173760,note_on,0,0,2,,,,,,,,,,,,,,,0,,,60,59
173760,note_on,0,0,1,,,,,,,,,,,,,,,0,,,88,78
173760,note_on,0,0,1,,,,,,,,,,,,,,,0,,,84,66
173760,note_on,0,0,1,,,,,,,,,,,,,,,0,,,79,66
173760,note_on,120,0,1,,,,,,,,,,,,,,,0,,,77,0
173760,note_on,0,0,2,,,,,,,,,,,,,,,0,,,64,71
173760,note_on,120,0,2,,,,,,,,,,,,,,,0,,,65,0
173770,control_change,10,0,2,,,,,,,,,,,,,,,0,64,0,,
173800,set_tempo,120,1,0,,,,,,,,,,,,412371,,,,,,,
173840,set_tempo,40,1,0,,,,,,,,,,,,413793,,,,,,,
173852,control_change,82,0,2,,,,,,,,,,,,,,,0,64,127,,
173880,set_tempo,40,1,0,,,,,,,,,,,,415225,,,,,,,
173880,note_on,120,0,1,,,,,,,,,,,,,,,0,,,88,0
173880,note_on,0,0,1,,,,,,,,,,,,,,,0,,,84,0
173880,note_on,0,0,1,,,,,,,,,,,,,,,0,,,79,0
173880,note_on,0,0,1,,,,,,,,,,,,,,,0,,,76,71
173880,note_on,28,0,2,,,,,,,,,,,,,,,0,,,55,0
173880,note_on,0,0,2,,,,,,,,,,,,,,,0,,,60,0
173880,note_on,0,0,2,,,,,,,,,,,,,,,0,,,64,0
173880,note_on,0,0,2,,,,,,,,,,,,,,,0,,,67,61
173920,set_tempo,40,1,0,,,,,,,,,,,,416667,,,,,,,
173960,set_tempo,40,1,0,,,,,,,,,,,,418118,,,,,,,
174000,note_on,0,0,2,,,,,,,,,,,,,,,0,,,55,58
174000,note_on,0,0,1,,,,,,,,,,,,,,,0,,,88,79
174000,note_on,0,0,1,,,,,,,,,,,,,,,0,,,84,67
174000,note_on,0,0,2,,,,,,,,,,,,,,,0,,,60,58
174000,note_on,120,0,1,,,,,,,,,,,,,,,0,,,76,0
174000,note_on,120,0,2,,,,,,,,,,,,,,,0,,,67,0
174000,note_on,0,0,1,,,,,,,,,,,,,,,0,,,79,67
174000,set_tempo,40,1,0,,,,,,,,,,,,419580,,,,,,,
174000,note_on,0,0,2,,,,,,,,,,,,,,,0,,,64,70
174040,set_tempo,40,1,0,,,,,,,,,,,,421053,,,,,,,
174080,set_tempo,40,1,0,,,,,,,,,,,,422535,,,,,,,
174120,note_on,120,0,2,,,,,,,,,,,,,,,0,,,55,0
174120,note_on,0,0,2,,,,,,,,,,,,,,,0,,,60,0
174120,note_on,0,0,2,,,,,,,,,,,,,,,0,,,64,0
174120,note_on,0,0,2,,,,,,,,,,,,,,,0,,,67,59
174120,note_on,0,0,1,,,,,,,,,,,,,,,0,,,76,70
174120,set_tempo,40,1,0,,,,,,,,,,,,424028,,,,,,,
174120,note_on,120,0,1,,,,,,,,,,,,,,,0,,,88,0
174120,note_on,0,0,1,,,,,,,,,,,,,,,0,,,79,0
174120,note_on,0,0,1,,,,,,,,,,,,,,,0,,,84,0
174160,set_tempo,40,1,0,,,,,,,,,,,,425532,,,,,,,
174200,set_tempo,40,1,0,,,,,,,,,,,,427046,,,,,,,
174240,note_on,0,0,1,,,,,,,,,,,,,,,0,,,83,67
174240,note_on,0,0,1,,,,,,,,,,,,,,,0,,,79,67
174240,note_on,0,0,1,,,,,,,,,,,,,,,0,,,86,79
174240,note_on,120,0,1,,,,,,,,,,,,,,,0,,,76,0
174240,set_tempo,40,1,0,,,,,,,,,,,,430108,,,,,,,
174240,note_on,120,0,2,,,,,,,,,,,,,,,0,,,67,0
174240,note_on,0,0,2,,,,,,,,,,,,,,,0,,,65,71
174240,note_on,0,0,2,,,,,,,,,,,,,,,0,,,62,59
174240,note_on,0,0,2,,,,,,,,,,,,,,,0,,,55,59
174250,control_change,10,0,2,,,,,,,,,,,,,,,0,64,0,,
174320,set_tempo,80,1,0,,,,,,,,,,,,428571,,,,,,,
174325,control_change,75,0,2,,,,,,,,,,,,,,,0,64,127,,
174360,note_on,0,0,1,,,,,,,,,,,,,,,0,,,74,74
174360,note_on,0,0,2,,,,,,,,,,,,,,,0,,,62,0
174360,note_on,0,0,2,,,,,,,,,,,,,,,0,,,67,64
174360,note_on,0,0,2,,,,,,,,,,,,,,,0,,,65,0
174360,note_on,120,0,1,,,,,,,,,,,,,,,0,,,86,0
174360,note_on,0,0,1,,,,,,,,,,,,,,,0,,,83,0
174360,note_on,35,0,2,,,,,,,,,,,,,,,0,,,55,0
174360,note_on,0,0,1,,,,,,,,,,,,,,,0,,,79,0
174440,set_tempo,120,1,0,,,,,,,,,,,,430108,,,,,,,
174480,note_on,120,0,2,,,,,,,,,,,,,,,0,,,67,0
174480,note_on,0,0,1,,,,,,,,,,,,,,,0,,,79,68
174480,note_on,0,0,2,,,,,,,,,,,,,,,0,,,65,74
174480,note_on,0,0,1,,,,,,,,,,,,,,,0,,,86,80
174480,note_on,120,0,1,,,,,,,,,,,,,,,0,,,74,0
174480,note_on,0,0,1,,,,,,,,,,,,,,,0,,,83,68
174480,note_on,0,0,2,,,,,,,,,,,,,,,0,,,55,63
174480,note_on,0,0,2,,,,,,,,,,,,,,,0,,,62,63
174560,set_tempo,120,1,0,,,,,,,,,,,,431655,,,,,,,
174600,note_on,0,0,1,,,,,,,,,,,,,,,0,,,83,0
174600,note_on,0,0,2,,,,,,,,,,,,,,,0,,,62,0
174600,note_on,0,0,1,,,,,,,,,,,,,,,0,,,79,0
174600,note_on,120,0,2,,,,,,,,,,,,,,,0,,,55,0
174600,note_on,0,0,1,,,,,,,,,,,,,,,0,,,74,74
174600,note_on,120,0,1,,,,,,,,,,,,,,,0,,,86,0
174600,note_on,0,0,2,,,,,,,,,,,,,,,0,,,65,0
174600,note_on,0,0,2,,,,,,,,,,,,,,,0,,,67,63
174720,note_on,0,0,1,,,,,,,,,,,,,,,0,,,88,78
174720,note_on,120,0,2,,,,,,,,,,,,,,,0,,,67,0
174720,control_change,0,0,2,,,,,,,,,,,,,,,0,64,0,,
174720,note_on,0,0,2,,,,,,,,,,,,,,,0,,,36,70
174720,note_on,0,0,2,,,,,,,,,,,,,,,0,,,48,82
174720,note_on,120,0,1,,,,,,,,,,,,,,,0,,,74,0
174720,set_tempo,160,1,0,,,,,,,,,,,,412371,,,,,,,
174720,control_change,0,0,2,,,,,,,,,,,,,,,0,64,0,,
174720,control_change,0,0,1,,,,,,,,,,,,,,,0,91,127,,
174720,text,0,1,1,,,,,,,,,,,,,,,,,,,
174789,control_change,69,0,2,,,,,,,,,,,,,,,0,64,127,,
174840,note_on,120,0,1,,,,,,,,,,,,,,,0,,,88,0
174840,note_on,0,0,1,,,,,,,,,,,,,,,0,,,96,76
174960,note_on,0,0,1,,,,,,,,,,,,,,,0,,,91,76
174960,note_on,120,0,1,,,,,,,,,,,,,,,0,,,96,0
175080,note_on,0,0,1,,,,,,,,,,,,,,,0,,,88,75
175080,note_on,120,0,1,,,,,,,,,,,,,,,0,,,91,0
175200,note_on,0,0,1,,,,,,,,,,,,,,,0,,,84,74
175200,note_on,120,0,1,,,,,,,,,,,,,,,0,,,88,0
175200,set_tempo,480,1,0,,,,,,,,,,,,401338,,,,,,,
175200,note_on,0,0,2,,,,,,,,,,,,,,,0,,,36,0
175200,note_on,0,0,2,,,,,,,,,,,,,,,0,,,40,60
175200,note_on,0,0,2,,,,,,,,,,,,,,,0,,,52,72
175200,note_on,411,0,2,,,,,,,,,,,,,,,0,,,48,0
175221,control_change,21,0,2,,,,,,,,,,,,,,,0,64,0,,
175290,note_on,69,0,2,,,,,,,,,,,,,,,0,,,52,0
175290,note_on,0,0,2,,,,,,,,,,,,,,,0,,,40,0
175320,note_on,120,0,1,,,,,,,,,,,,,,,0,,,79,73
175340,note_on,20,0,1,,,,,,,,,,,,,,,0,,,84,0
175440,set_tempo,240,1,0,,,,,,,,,,,,406780,,,,,,,
175440,note_on,150,0,2,,,,,,,,,,,,,,,0,,,40,60
175440,note_on,100,0,1,,,,,,,,,,,,,,,0,,,76,72
175440,note_on,0,0,2,,,,,,,,,,,,,,,0,,,52,72
175460,note_on,20,0,1,,,,,,,,,,,,,,,0,,,79,0
175530,note_on,0,0,2,,,,,,,,,,,,,,,0,,,40,0
175530,note_on,90,0,2,,,,,,,,,,,,,,,0,,,52,0
175560,note_on,100,0,1,,,,,,,,,,,,,,,0,,,72,72
175580,note_on,20,0,1,,,,,,,,,,,,,,,0,,,76,0
175680,set_tempo,240,1,0,,,,,,,,,,,,406780,,,,,,,
175680,note_on,0,0,2,,,,,,,,,,,,,,,0,,,55,78
175680,note_on,150,0,2,,,,,,,,,,,,,,,0,,,43,66
175680,note_on,100,0,1,,,,,,,,,,,,,,,0,,,86,72
175700,note_on,20,0,1,,,,,,,,,,,,,,,0,,,72,0
175765,control_change,85,0,2,,,,,,,,,,,,,,,0,64,127,,
175800,note_on,0,0,1,,,,,,,,,,,,,,,0,,,95,76
175800,note_on,100,0,1,,,,,,,,,,,,,,,0,,,86,0
175920,note_on,0,0,1,,,,,,,,,,,,,,,0,,,91,72
175920,note_on,120,0,1,,,,,,,,,,,,,,,0,,,95,0
176040,note_on,0,0,1,,,,,,,,,,,,,,,0,,,89,68
176040,note_on,120,0,1,,,,,,,,,,,,,,,0,,,91,0
176160,note_on,120,0,1,,,,,,,,,,,,,,,0,,,89,0
176160,note_on,0,0,1,,,,,,,,,,,,,,,0,,,83,74
176160,note_on,395,0,2,,,,,,,,,,,,,,,0,,,55,0
176160,set_tempo,480,1,0,,,,,,,,,,,,406780,,,,,,,
176160,note_on,0,0,2,,,,,,,,,,,,,,,0,,,43,0
176160,note_on,0,0,2,,,,,,,,,,,,,,,0,,,31,62
176160,note_on,0,0,2,,,,,,,,,,,,,,,0,,,43,73
176160,control_change,0,0,2,,,,,,,,,,,,,,,0,64,0,,
176250,note_on,0,0,2,,,,,,,,,,,,,,,0,,,31,0
176250,note_on,90,0,2,,,,,,,,,,,,,,,0,,,43,0
176280,note_on,120,0,1,,,,,,,,,,,,,,,0,,,79,68
176300,note_on,20,0,1,,,,,,,,,,,,,,,0,,,83,0
176400,note_on,150,0,2,,,,,,,,,,,,,,,0,,,31,63
176400,note_on,100,0,1,,,,,,,,,,,,,,,0,,,77,74
176400,note_on,0,0,2,,,,,,,,,,,,,,,0,,,43,74
176400,set_tempo,240,1,0,,,,,,,,,,,,421053,,,,,,,
176420,note_on,20,0,1,,,,,,,,,,,,,,,0,,,79,0
176490,note_on,0,0,2,,,,,,,,,,,,,,,0,,,31,0
176490,note_on,90,0,2,,,,,,,,,,,,,,,0,,,43,0
176520,note_on,100,0,1,,,,,,,,,,,,,,,0,,,71,71
176520,set_tempo,120,1,0,,,,,,,,,,,,461538,,,,,,,
176540,note_on,20,0,1,,,,,,,,,,,,,,,0,,,77,0
176640,control_change,0,0,1,,,,,,,,,,,,,,,0,91,127,,
176640,note_on,100,0,1,,,,,,,,,,,,,,,0,,,86,72
176640,note_on,0,0,2,,,,,,,,,,,,,,,0,,,50,79
176640,note_on,150,0,2,,,,,,,,,,,,,,,0,,,38,67
176640,text,0,1,1,,,,,,,,,,,,,,,,,,,
176640,set_tempo,120,1,0,,,,,,,,,,,,412371,,,,,,,
176660,note_on,20,0,1,,,,,,,,,,,,,,,0,,,71,0
176709,control_change,69,0,2,,,,,,,,,,,,,,,0,64,127,,
176760,note_on,100,0,1,,,,,,,,,,,,,,,0,,,86,0
176760,note_on,0,0,1,,,,,,,,,,,,,,,0,,,98,76
176880,note_on,120,0,1,,,,,,,,,,,,,,,0,,,98,0
176880,note_on,0,0,1,,,,,,,,,,,,,,,0,,,93,76
177000,note_on,120,0,1,,,,,,,,,,,,,,,0,,,93,0
177000,note_on,0,0,1,,,,,,,,,,,,,,,0,,,89,75
177120,note_on,120,0,1,,,,,,,,,,,,,,,0,,,89,0
177120,note_on,0,0,1,,,,,,,,,,,,,,,0,,,86,74
177120,note_on,0,0,2,,,,,,,,,,,,,,,0,,,53,72
177120,note_on,0,0,2,,,,,,,,,,,,,,,0,,,41,60
177120,set_tempo,480,1,0,,,,,,,,,,,,401338,,,,,,,
177120,note_on,411,0,2,,,,,,,,,,,,,,,0,,,50,0
177120,note_on,0,0,2,,,,,,,,,,,,,,,0,,,38,0
177141,control_change,21,0,2,,,,,,,,,,,,,,,0,64,0,,
177210,note_on,69,0,2,,,,,,,,,,,,,,,0,,,53,0
177210,note_on,0,0,2,,,,,,,,,,,,,,,0,,,41,0
177240,note_on,120,0,1,,,,,,,,,,,,,,,0,,,81,73
177260,note_on,20,0,1,,,,,,,,,,,,,,,0,,,86,0
177360,note_on,100,0,1,,,,,,,,,,,,,,,0,,,77,72
177360,note_on,0,0,2,,,,,,,,,,,,,,,0,,,53,72
177360,note_on,150,0,2,,,,,,,,,,,,,,,0,,,41,60
177360,set_tempo,240,1,0,,,,,,,,,,,,406780,,,,,,,
177380,note_on,20,0,1,,,,,,,,,,,,,,,0,,,81,0
177450,note_on,90,0,2,,,,,,,,,,,,,,,0,,,53,0
177450,note_on,0,0,2,,,,,,,,,,,,,,,0,,,41,0
177480,note_on,100,0,1,,,,,,,,,,,,,,,0,,,74,72
177500,note_on,20,0,1,,,,,,,,,,,,,,,0,,,77,0
177600,set_tempo,240,1,0,,,,,,,,,,,,408163,,,,,,,
177600,note_on,100,0,1,,,,,,,,,,,,,,,0,,,85,72
177600,note_on,150,0,2,,,,,,,,,,,,,,,0,,,45,66
177600,note_on,0,0,2,,,,,,,,,,,,,,,0,,,57,78
177620,note_on,20,0,1,,,,,,,,,,,,,,,0,,,74,0
177685,control_change,85,0,2,,,,,,,,,,,,,,,0,64,127,,
177720,note_on,0,0,1,,,,,,,,,,,,,,,0,,,97,76
177720,note_on,100,0,1,,,,,,,,,,,,,,,0,,,85,0
177840,note_on,120,0,1,,,,,,,,,,,,,,,0,,,97,0
177840,note_on,0,0,1,,,,,,,,,,,,,,,0,,,93,72
177960,note_on,0,0,1,,,,,,,,,,,,,,,0,,,91,68
177960,note_on,120,0,1,,,,,,,,,,,,,,,0,,,93,0
178080,note_on,0,0,2,,,,,,,,,,,,,,,0,,,45,0
178080,note_on,395,0,2,,,,,,,,,,,,,,,0,,,57,0
178080,note_on,0,0,2,,,,,,,,,,,,,,,0,,,45,73
178080,control_change,0,0,2,,,,,,,,,,,,,,,0,64,0,,
178080,note_on,0,0,2,,,,,,,,,,,,,,,0,,,33,62
178080,set_tempo,480,1,0,,,,,,,,,,,,409556,,,,,,,
178080,note_on,0,0,1,,,,,,,,,,,,,,,0,,,85,74
178080,note_on,120,0,1,,,,,,,,,,,,,,,0,,,91,0
178170,note_on,0,0,2,,,,,,,,,,,,,,,0,,,33,0
178170,note_on,90,0,2,,,,,,,,,,,,,,,0,,,45,0
178200,note_on,120,0,1,,,,,,,,,,,,,,,0,,,81,68
178220,note_on,20,0,1,,,,,,,,,,,,,,,0,,,85,0
178320,note_on,0,0,2,,,,,,,,,,,,,,,0,,,45,74
178320,note_on,150,0,2,,,,,,,,,,,,,,,0,,,33,63
178320,set_tempo,240,1,0,,,,,,,,,,,,419580,,,,,,,
178320,note_on,100,0,1,,,,,,,,,,,,,,,0,,,79,74
178340,note_on,20,0,1,,,,,,,,,,,,,,,0,,,81,0
178410,note_on,90,0,2,,,,,,,,,,,,,,,0,,,45,0
178410,note_on,0,0,2,,,,,,,,,,,,,,,0,,,33,0
178440,note_on,100,0,1,,,,,,,,,,,,,,,0,,,73,71
178440,set_tempo,120,1,0,,,,,,,,,,,,461538,,,,,,,
178460,note_on,20,0,1,,,,,,,,,,,,,,,0,,,79,0
178560,note_on,150,0,2,,,,,,,,,,,,,,,0,,,41,67
178560,note_on,100,0,1,,,,,,,,,,,,,,,0,,,89,72
178560,set_tempo,120,1,0,,,,,,,,,,,,412371,,,,,,,
178560,control_change,0,0,1,,,,,,,,,,,,,,,0,91,127,,
178560,text,0,1,1,,,,,,,,,,,,,,,,,,,
178560,note_on,0,0,2,,,,,,,,,,,,,,,0,,,53,79
178580,note_on,20,0,1,,,,,,,,,,,,,,,0,,,73,0
178629,control_change,69,0,2,,,,,,,,,,,,,,,0,64,127,,
178680,note_on,100,0,1,,,,,,,,,,,,,,,0,,,89,0
178680,note_on,0,0,1,,,,,,,,,,,,,,,0,,,101,76
178800,note_on,120,0,1,,,,,,,,,,,,,,,0,,,101,0
178800,note_on,0,0,1,,,,,,,,,,,,,,,0,,,96,76
178920,note_on,0,0,1,,,,,,,,,,,,,,,0,,,93,75
178920,note_on,120,0,1,,,,,,,,,,,,,,,0,,,96,0
179040,note_on,0,0,2,,,,,,,,,,,,,,,0,,,45,60
179040,note_on,0,0,1,,,,,,,,,,,,,,,0,,,89,74
179040,note_on,120,0,1,,,,,,,,,,,,,,,0,,,93,0
179040,set_tempo,480,1,0,,,,,,,,,,,,397351,,,,,,,
179040,note_on,411,0,2,,,,,,,,,,,,,,,0,,,53,0
179040,note_on,0,0,2,,,,,,,,,,,,,,,0,,,57,72
179040,note_on,0,0,2,,,,,,,,,,,,,,,0,,,41,0
179061,control_change,21,0,2,,,,,,,,,,,,,,,0,64,0,,
179130,note_on,0,0,2,,,,,,,,,,,,,,,0,,,45,0
179130,note_on,69,0,2,,,,,,,,,,,,,,,0,,,57,0
179160,note_on,120,0,1,,,,,,,,,,,,,,,0,,,84,73
179180,note_on,20,0,1,,,,,,,,,,,,,,,0,,,89,0
179280,set_tempo,240,1,0,,,,,,,,,,,,408163,,,,,,,
179280,note_on,150,0,2,,,,,,,,,,,,,,,0,,,45,60
179280,note_on,0,0,2,,,,,,,,,,,,,,,0,,,57,72
179280,note_on,100,0,1,,,,,,,,,,,,,,,0,,,81,72
179300,note_on,20,0,1,,,,,,,,,,,,,,,0,,,84,0
179370,note_on,90,0,2,,,,,,,,,,,,,,,0,,,57,0
179370,note_on,0,0,2,,,,,,,,,,,,,,,0,,,45,0
179400,note_on,100,0,1,,,,,,,,,,,,,,,0,,,77,72
179420,note_on,20,0,1,,,,,,,,,,,,,,,0,,,81,0
179520,note_on,100,0,1,,,,,,,,,,,,,,,0,,,88,72
179520,note_on,0,0,2,,,,,,,,,,,,,,,0,,,60,78
179520,note_on,150,0,2,,,,,,,,,,,,,,,0,,,48,66
179520,set_tempo,240,1,0,,,,,,,,,,,,402685,,,,,,,
179540,note_on,20,0,1,,,,,,,,,,,,,,,0,,,77,0
179605,control_change,85,0,2,,,,,,,,,,,,,,,0,64,127,,
179640,note_on,100,0,1,,,,,,,,,,,,,,,0,,,88,0
179640,note_on,0,0,1,,,,,,,,,,,,,,,0,,,100,76
179760,note_on,0,0,1,,,,,,,,,,,,,,,0,,,96,72
179760,note_on,120,0,1,,,,,,,,,,,,,,,0,,,100,0
179880,note_on,0,0,1,,,,,,,,,,,,,,,0,,,91,68
179880,note_on,120,0,1,,,,,,,,,,,,,,,0,,,96,0
180000,note_on,395,0,2,,,,,,,,,,,,,,,0,,,60,0
180000,control_change,0,0,2,,,,,,,,,,,,,,,0,64,0,,
180000,note_on,0,0,2,,,,,,,,,,,,,,,0,,,48,73
180000,note_on,0,0,2,,,,,,,,,,,,,,,0,,,36,62
180000,note_on,0,0,1,,,,,,,,,,,,,,,0,,,88,74
180000,note_on,120,0,1,,,,,,,,,,,,,,,0,,,91,0
180000,set_tempo,480,1,0,,,,,,,,,,,,412371,,,,,,,
180000,note_on,0,0,2,,,,,,,,,,,,,,,0,,,48,0
180090,note_on,0,0,2,,,,,,,,,,,,,,,0,,,36,0
180090,note_on,90,0,2,,,,,,,,,,,,,,,0,,,48,0
180120,note_on,120,0,1,,,,,,,,,,,,,,,0,,,84,68
180140,note_on,20,0,1,,,,,,,,,,,,,,,0,,,88,0
180240,note_on,0,0,2,,,,,,,,,,,,,,,0,,,48,74
180240,note_on,150,0,2,,,,,,,,,,,,,,,0,,,36,63
180240,set_tempo,240,1,0,,,,,,,,,,,,419580,,,,,,,
180240,note_on,100,0,1,,,,,,,,,,,,,,,0,,,79,74
180260,note_on,20,0,1,,,,,,,,,,,,,,,0,,,84,0
180330,note_on,0,0,2,,,,,,,,,,,,,,,0,,,36,0
180330,note_on,90,0,2,,,,,,,,,,,,,,,0,,,48,0
180360,set_tempo,120,1,0,,,,,,,,,,,,461538,,,,,,,
180360,note_on,100,0,1,,,,,,,,,,,,,,,0,,,76,71
180380,note_on,20,0,1,,,,,,,,,,,,,,,0,,,79,0
180480,note_on,150,0,2,,,,,,,,,,,,,,,0,,,40,71
180480,set_tempo,120,1,0,,,,,,,,,,,,412371,,,,,,,
180480,note_on,0,0,1,,,,,,,,,,,,,,,0,,,91,87
180480,note_on,0,0,1,,,,,,,,,,,,,,,0,,,79,73
180480,note_on,0,0,1,,,,,,,,,,,,,,,0,,,82,73
180480,note_on,100,0,1,,,,,,,,,,,,,,,0,,,85,73
180500,note_on,20,0,1,,,,,,,,,,,,,,,0,,,76,0
180537,control_change,57,0,2,,,,,,,,,,,,,,,0,64,127,,
180600,note_on,63,0,2,,,,,,,,,,,,,,,0,,,46,64
180620,note_on,20,0,2,,,,,,,,,,,,,,,0,,,40,0
180720,note_on,100,0,2,,,,,,,,,,,,,,,0,,,49,64
180740,note_on,20,0,2,,,,,,,,,,,,,,,0,,,46,0
180840,note_on,100,0,2,,,,,,,,,,,,,,,0,,,52,64
180860,note_on,20,0,2,,,,,,,,,,,,,,,0,,,49,0
180960,note_on,0,0,1,,,,,,,,,,,,,,,0,,,67,60
180960,note_on,100,0,2,,,,,,,,,,,,,,,0,,,52,71
180960,set_tempo,480,1,0,,,,,,,,,,,,401338,,,,,,,
180960,note_on,460,0,1,,,,,,,,,,,,,,,0,,,79,0
180960,note_on,0,0,1,,,,,,,,,,,,,,,0,,,85,0
180960,note_on,0,0,1,,,,,,,,,,,,,,,0,,,82,0
180960,note_on,0,0,1,,,,,,,,,,,,,,,0,,,91,0
180960,note_on,0,0,1,,,,,,,,,,,,,,,0,,,73,60
180960,note_on,0,0,1,,,,,,,,,,,,,,,0,,,70,60
180960,note_on,0,0,1,,,,,,,,,,,,,,,0,,,79,72
180980,note_on,20,0,2,,,,,,,,,,,,,,,0,,,52,0
181080,note_on,100,0,2,,,,,,,,,,,,,,,0,,,58,66
181100,note_on,20,0,2,,,,,,,,,,,,,,,0,,,52,0
181200,note_on,100,0,2,,,,,,,,,,,,,,,0,,,61,66
181200,note_on,0,0,1,,,,,,,,,,,,,,,0,,,73,0
181200,note_on,240,0,1,,,,,,,,,,,,,,,0,,,79,0
181200,note_on,0,0,1,,,,,,,,,,,,,,,0,,,70,0
181200,note_on,0,0,1,,,,,,,,,,,,,,,0,,,67,0
181200,note_on,0,0,1,,,,,,,,,,,,,,,0,,,73,60
181200,note_on,0,0,1,,,,,,,,,,,,,,,0,,,70,60
181200,note_on,0,0,1,,,,,,,,,,,,,,,0,,,67,60
181200,note_on,0,0,1,,,,,,,,,,,,,,,0,,,79,72
181220,note_on,20,0,2,,,,,,,,,,,,,,,0,,,58,0
181320,set_tempo,360,1,0,,,,,,,,,,,,474308,,,,,,,
181320,note_on,100,0,2,,,,,,,,,,,,,,,0,,,64,66
181340,note_on,20,0,2,,,,,,,,,,,,,,,0,,,61,0
181440,note_on,100,0,2,,,,,,,,,,,,,,,0,,,41,71
181440,note_on,0,0,1,,,,,,,,,,,,,,,0,,,91,82
181440,note_on,0,0,1,,,,,,,,,,,,,,,0,,,79,69
181440,note_on,0,0,1,,,,,,,,,,,,,,,0,,,83,69
181440,note_on,0,0,1,,,,,,,,,,,,,,,0,,,67,0
181440,note_on,0,0,1,,,,,,,,,,,,,,,0,,,70,0
181440,note_on,0,0,1,,,,,,,,,,,,,,,0,,,73,0
181440,note_on,240,0,1,,,,,,,,,,,,,,,0,,,79,0
181440,note_on,0,0,1,,,,,,,,,,,,,,,0,,,86,69
181440,set_tempo,120,1,0,,,,,,,,,,,,412371,,,,,,,
181451,control_change,11,0,2,,,,,,,,,,,,,,,0,64,0,,
181460,note_on,9,0,2,,,,,,,,,,,,,,,0,,,64,0
181520,control_change,60,0,2,,,,,,,,,,,,,,,0,64,127,,
181560,note_on,40,0,2,,,,,,,,,,,,,,,0,,,47,65
181580,note_on,20,0,2,,,,,,,,,,,,,,,0,,,41,0
181680,note_on,100,0,2,,,,,,,,,,,,,,,0,,,50,66
181700,note_on,20,0,2,,,,,,,,,,,,,,,0,,,47,0
181800,note_on,100,0,2,,,,,,,,,,,,,,,0,,,53,66
181820,note_on,20,0,2,,,,,,,,,,,,,,,0,,,50,0
181920,note_on,100,0,2,,,,,,,,,,,,,,,0,,,53,71
181920,note_on,0,0,1,,,,,,,,,,,,,,,0,,,79,73
181920,set_tempo,480,1,0,,,,,,,,,,,,406780,,,,,,,
181920,note_on,0,0,1,,,,,,,,,,,,,,,0,,,67,62
181920,note_on,0,0,1,,,,,,,,,,,,,,,0,,,74,62
181920,note_on,0,0,1,,,,,,,,,,,,,,,0,,,79,0
181920,note_on,0,0,1,,,,,,,,,,,,,,,0,,,83,0
181920,note_on,0,0,1,,,,,,,,,,,,,,,0,,,86,0
181920,note_on,480,0,1,,,,,,,,,,,,,,,0,,,91,0
181920,note_on,0,0,1,,,,,,,,,,,,,,,0,,,71,62
181940,note_on,20,0,2,,,,,,,,,,,,,,,0,,,53,0
182040,note_on,100,0,2,,,,,,,,,,,,,,,0,,,59,65
182060,note_on,20,0,2,,,,,,,,,,,,,,,0,,,53,0
182160,note_on,0,0,1,,,,,,,,,,,,,,,0,,,67,63
182160,note_on,0,0,1,,,,,,,,,,,,,,,0,,,74,0
182160,note_on,0,0,1,,,,,,,,,,,,,,,0,,,71,0
182160,note_on,0,0,1,,,,,,,,,,,,,,,0,,,67,0
182160,note_on,0,0,1,,,,,,,,,,,,,,,0,,,71,63
182160,note_on,0,0,1,,,,,,,,,,,,,,,0,,,79,74
182160,note_on,240,0,1,,,,,,,,,,,,,,,0,,,79,0
182160,note_on,100,0,2,,,,,,,,,,,,,,,0,,,62,65
182160,note_on,0,0,1,,,,,,,,,,,,,,,0,,,74,63
182180,note_on,20,0,2,,,,,,,,,,,,,,,0,,,59,0
182280,note_on,100,0,2,,,,,,,,,,,,,,,0,,,65,65
182280,set_tempo,360,1,0,,,,,,,,,,,,474308,,,,,,,
182300,note_on,20,0,2,,,,,,,,,,,,,,,0,,,62,0
182371,control_change,71,0,2,,,,,,,,,,,,,,,0,64,0,,
182400,note_on,0,0,1,,,,,,,,,,,,,,,0,,,91,87
182400,note_on,0,0,1,,,,,,,,,,,,,,,0,,,79,73
182400,note_on,0,0,1,,,,,,,,,,,,,,,0,,,82,73
182400,note_on,0,0,1,,,,,,,,,,,,,,,0,,,85,73
182400,note_on,0,0,1,,,,,,,,,,,,,,,0,,,67,0
182400,note_on,0,0,1,,,,,,,,,,,,,,,0,,,74,0
182400,set_tempo,120,1,0,,,,,,,,,,,,412371,,,,,,,
182400,note_on,29,0,2,,,,,,,,,,,,,,,0,,,40,71
182400,note_on,240,0,1,,,,,,,,,,,,,,,0,,,79,0
182400,note_on,0,0,1,,,,,,,,,,,,,,,0,,,71,0
182420,note_on,20,0,2,,,,,,,,,,,,,,,0,,,65,0
182457,control_change,37,0,2,,,,,,,,,,,,,,,0,64,127,,
182520,note_on,63,0,2,,,,,,,,,,,,,,,0,,,46,64
182540,note_on,20,0,2,,,,,,,,,,,,,,,0,,,40,0
182640,note_on,100,0,2,,,,,,,,,,,,,,,0,,,49,64
182660,note_on,20,0,2,,,,,,,,,,,,,,,0,,,46,0
182760,note_on,100,0,2,,,,,,,,,,,,,,,0,,,52,64
182780,note_on,20,0,2,,,,,,,,,,,,,,,0,,,49,0
182880,note_on,0,0,1,,,,,,,,,,,,,,,0,,,79,0
182880,note_on,0,0,1,,,,,,,,,,,,,,,0,,,73,60
182880,note_on,0,0,1,,,,,,,,,,,,,,,0,,,70,60
182880,note_on,0,0,1,,,,,,,,,,,,,,,0,,,67,60
182880,note_on,0,0,1,,,,,,,,,,,,,,,0,,,79,72
182880,note_on,0,0,1,,,,,,,,,,,,,,,0,,,85,0
182880,note_on,100,0,2,,,,,,,,,,,,,,,0,,,52,71
182880,set_tempo,480,1,0,,,,,,,,,,,,401338,,,,,,,
182880,note_on,0,0,1,,,,,,,,,,,,,,,0,,,82,0
182880,note_on,480,0,1,,,,,,,,,,,,,,,0,,,91,0
182900,note_on,20,0,2,,,,,,,,,,,,,,,0,,,52,0
183000,note_on,100,0,2,,,,,,,,,,,,,,,0,,,58,66
183020,note_on,20,0,2,,,,,,,,,,,,,,,0,,,52,0
183120,note_on,0,0,1,,,,,,,,,,,,,,,0,,,70,60
183120,note_on,0,0,1,,,,,,,,,,,,,,,0,,,73,0
183120,note_on,0,0,1,,,,,,,,,,,,,,,0,,,70,0
183120,note_on,0,0,1,,,,,,,,,,,,,,,0,,,67,0
183120,note_on,0,0,1,,,,,,,,,,,,,,,0,,,73,60
183120,note_on,0,0,1,,,,,,,,,,,,,,,0,,,67,60
183120,note_on,100,0,2,,,,,,,,,,,,,,,0,,,61,66
183120,note_on,240,0,1,,,,,,,,,,,,,,,0,,,79,0
183120,note_on,0,0,1,,,,,,,,,,,,,,,0,,,79,72
183140,note_on,20,0,2,,,,,,,,,,,,,,,0,,,58,0
183240,note_on,100,0,2,,,,,,,,,,,,,,,0,,,64,66
183240,set_tempo,360,1,0,,,,,,,,,,,,474308,,,,,,,
183260,note_on,20,0,2,,,,,,,,,,,,,,,0,,,61,0
183360,note_on,240,0,1,,,,,,,,,,,,,,,0,,,79,0
183360,note_on,0,0,1,,,,,,,,,,,,,,,0,,,73,0
183360,note_on,0,0,1,,,,,,,,,,,,,,,0,,,70,0
183360,note_on,0,0,1,,,,,,,,,,,,,,,0,,,67,0
183360,note_on,0,0,1,,,,,,,,,,,,,,,0,,,86,69
183360,note_on,0,0,1,,,,,,,,,,,,,,,0,,,83,69
183360,note_on,0,0,1,,,,,,,,,,,,,,,0,,,79,69
183360,note_on,0,0,1,,,,,,,,,,,,,,,0,,,91,82
183360,set_tempo,120,1,0,,,,,,,,,,,,412371,,,,,,,
183360,note_on,100,0,2,,,,,,,,,,,,,,,0,,,41,71
183371,control_change,11,0,2,,,,,,,,,,,,,,,0,64,0,,
183380,note_on,9,0,2,,,,,,,,,,,,,,,0,,,64,0
183440,control_change,60,0,2,,,,,,,,,,,,,,,0,64,127,,
183480,note_on,40,0,2,,,,,,,,,,,,,,,0,,,47,65
183500,note_on,20,0,2,,,,,,,,,,,,,,,0,,,41,0
183600,note_on,100,0,2,,,,,,,,,,,,,,,0,,,50,66
183620,note_on,20,0,2,,,,,,,,,,,,,,,0,,,47,0
183720,note_on,100,0,2,,,,,,,,,,,,,,,0,,,53,66
183740,note_on,20,0,2,,,,,,,,,,,,,,,0,,,50,0
183840,note_on,0,0,1,,,,,,,,,,,,,,,0,,,86,0
183840,note_on,480,0,1,,,,,,,,,,,,,,,0,,,91,0
183840,set_tempo,480,1,0,,,,,,,,,,,,406780,,,,,,,
183840,note_on,0,0,1,,,,,,,,,,,,,,,0,,,74,62
183840,note_on,0,0,1,,,,,,,,,,,,,,,0,,,71,62
183840,note_on,0,0,1,,,,,,,,,,,,,,,0,,,67,62
183840,note_on,100,0,2,,,,,,,,,,,,,,,0,,,53,71
183840,note_on,0,0,1,,,,,,,,,,,,,,,0,,,79,73
183840,note_on,0,0,1,,,,,,,,,,,,,,,0,,,83,0
183840,note_on,0,0,1,,,,,,,,,,,,,,,0,,,79,0
183860,note_on,20,0,2,,,,,,,,,,,,,,,0,,,53,0
183960,note_on,100,0,2,,,,,,,,,,,,,,,0,,,59,65
183980,note_on,20,0,2,,,,,,,,,,,,,,,0,,,53,0
184080,note_on,0,0,1,,,,,,,,,,,,,,,0,,,67,63
184080,note_on,0,0,1,,,,,,,,,,,,,,,0,,,71,63
184080,note_on,0,0,1,,,,,,,,,,,,,,,0,,,67,0
184080,note_on,0,0,1,,,,,,,,,,,,,,,0,,,79,74
184080,note_on,0,0,1,,,,,,,,,,,,,,,0,,,71,0
184080,note_on,0,0,1,,,,,,,,,,,,,,,0,,,74,63
184080,note_on,240,0,1,,,,,,,,,,,,,,,0,,,79,0
184080,note_on,0,0,1,,,,,,,,,,,,,,,0,,,74,0
184080,note_on,100,0,2,,,,,,,,,,,,,,,0,,,62,65
184100,note_on,20,0,2,,,,,,,,,,,,,,,0,,,59,0
184200,note_on,100,0,2,,,,,,,,,,,,,,,0,,,65,65
184200,set_tempo,360,1,0,,,,,,,,,,,,474308,,,,,,,
184220,note_on,20,0,2,,,,,,,,,,,,,,,0,,,62,0
184291,control_change,71,0,2,,,,,,,,,,,,,,,0,64,0,,
184320,note_on,0,0,1,,,,,,,,,,,,,,,0,,,91,64
184320,note_on,29,0,2,,,,,,,,,,,,,,,0,,,60,67
184320,note_on,0,0,2,,,,,,,,,,,,,,,0,,,55,56
184320,note_on,0,0,2,,,,,,,,,,,,,,,0,,,52,56
184320,note_on,0,0,1,,,,,,,,,,,,,,,0,,,67,0
184320,note_on,0,0,1,,,,,,,,,,,,,,,0,,,96,76
184320,set_tempo,120,1,0,,,,,,,,,,,,404040,,,,,,,
184320,note_on,0,0,1,,,,,,,,,,,,,,,0,,,71,0
184320,note_on,0,0,1,,,,,,,,,,,,,,,0,,,74,0
184320,note_on,240,0,1,,,,,,,,,,,,,,,0,,,79,0
184330,control_change,10,0,2,,,,,,,,,,,,,,,0,64,0,,
184340,note_on,10,0,2,,,,,,,,,,,,,,,0,,,65,0
184398,control_change,58,0,2,,,,,,,,,,,,,,,0,64,127,,
184440,note_on,0,0,2,,,,,,,,,,,,,,,0,,,64,58
184440,note_on,0,0,1,,,,,,,,,,,,,,,0,,,84,71
184440,note_on,0,0,2,,,,,,,,,,,,,,,0,,,52,0
184440,note_on,0,0,1,,,,,,,,,,,,,,,0,,,91,0
184440,note_on,120,0,1,,,,,,,,,,,,,,,0,,,96,0
184440,note_on,0,0,2,,,,,,,,,,,,,,,0,,,55,0
184440,note_on,42,0,2,,,,,,,,,,,,,,,0,,,60,0
184560,note_on,0,0,2,,,,,,,,,,,,,,,0,,,60,67
184560,note_on,120,0,1,,,,,,,,,,,,,,,0,,,84,0
184560,note_on,0,0,2,,,,,,,,,,,,,,,0,,,52,56
184560,note_on,0,0,2,,,,,,,,,,,,,,,0,,,55,56
184560,note_on,120,0,2,,,,,,,,,,,,,,,0,,,64,0
184560,note_on,0,0,1,,,,,,,,,,,,,,,0,,,96,76
184560,note_on,0,0,1,,,,,,,,,,,,,,,0,,,91,64
184680,note_on,120,0,1,,,,,,,,,,,,,,,0,,,91,0
184680,note_on,0,0,2,,,,,,,,,,,,,,,0,,,60,0
184680,note_on,0,0,2,,,,,,,,,,,,,,,0,,,64,57
184680,note_on,0,0,1,,,,,,,,,,,,,,,0,,,84,69
184680,note_on,120,0,2,,,,,,,,,,,,,,,0,,,52,0
184680,note_on,0,0,2,,,,,,,,,,,,,,,0,,,55,0
184680,note_on,0,0,1,,,,,,,,,,,,,,,0,,,96,0
184720,set_tempo,400,1,0,,,,,,,,,,,,408163,,,,,,,
184800,note_on,0,0,2,,,,,,,,,,,,,,,0,,,53,56
184800,note_on,0,0,2,,,,,,,,,,,,,,,0,,,57,56
184800,note_on,120,0,2,,,,,,,,,,,,,,,0,,,64,0
184800,note_on,0,0,2,,,,,,,,,,,,,,,0,,,60,66
184800,note_on,0,0,1,,,,,,,,,,,,,,,0,,,89,63
184800,note_on,120,0,1,,,,,,,,,,,,,,,0,,,84,0
184800,note_on,0,0,1,,,,,,,,,,,,,,,0,,,84,63
184800,note_on,0,0,1,,,,,,,,,,,,,,,0,,,93,75
184810,control_change,10,0,2,,,,,,,,,,,,,,,0,64,0,,
184840,set_tempo,120,1,0,,,,,,,,,,,,409556,,,,,,,
184885,control_change,75,0,2,,,,,,,,,,,,,,,0,64,127,,
184920,note_on,0,0,2,,,,,,,,,,,,,,,0,,,60,0
184920,note_on,0,0,2,,,,,,,,,,,,,,,0,,,57,0
184920,note_on,35,0,2,,,,,,,,,,,,,,,0,,,53,0
184920,note_on,0,0,2,,,,,,,,,,,,,,,0,,,65,57
184920,note_on,120,0,1,,,,,,,,,,,,,,,0,,,93,0
184920,note_on,0,0,1,,,,,,,,,,,,,,,0,,,89,0
184920,note_on,0,0,1,,,,,,,,,,,,,,,0,,,84,0
184920,note_on,0,0,1,,,,,,,,,,,,,,,0,,,81,68
184960,set_tempo,120,1,0,,,,,,,,,,,,410959,,,,,,,
185040,note_on,120,0,2,,,,,,,,,,,,,,,0,,,65,0
185040,note_on,0,0,2,,,,,,,,,,,,,,,0,,,57,56
185040,note_on,0,0,2,,,,,,,,,,,,,,,0,,,53,56
185040,note_on,0,0,1,,,,,,,,,,,,,,,0,,,93,74
185040,note_on,0,0,1,,,,,,,,,,,,,,,0,,,84,62
185040,note_on,120,0,1,,,,,,,,,,,,,,,0,,,81,0
185040,note_on,0,0,2,,,,,,,,,,,,,,,0,,,60,66
185040,note_on,0,0,1,,,,,,,,,,,,,,,0,,,89,62
185080,set_tempo,120,1,0,,,,,,,,,,,,412371,,,,,,,
185160,note_on,0,0,2,,,,,,,,,,,,,,,0,,,57,0
185160,note_on,120,0,2,,,,,,,,,,,,,,,0,,,53,0
185160,note_on,0,0,2,,,,,,,,,,,,,,,0,,,65,55
185160,note_on,0,0,1,,,,,,,,,,,,,,,0,,,89,0
185160,note_on,0,0,1,,,,,,,,,,,,,,,0,,,81,67
185160,note_on,0,0,1,,,,,,,,,,,,,,,0,,,93,0
185160,note_on,120,0,1,,,,,,,,,,,,,,,0,,,84,0
185160,note_on,0,0,2,,,,,,,,,,,,,,,0,,,60,0
185200,set_tempo,120,1,0,,,,,,,,,,,,413793,,,,,,,
185280,note_on,0,0,2,,,,,,,,,,,,,,,0,,,64,65
185280,note_on,120,0,1,,,,,,,,,,,,,,,0,,,81,0
185280,note_on,0,0,1,,,,,,,,,,,,,,,0,,,84,62
185280,note_on,0,0,1,,,,,,,,,,,,,,,0,,,88,62
185280,note_on,0,0,1,,,,,,,,,,,,,,,0,,,91,73
185280,note_on,0,0,2,,,,,,,,,,,,,,,0,,,55,55
185280,note_on,120,0,2,,,,,,,,,,,,,,,0,,,65,0
185280,note_on,0,0,2,,,,,,,,,,,,,,,0,,,60,55
185290,control_change,10,0,2,,,,,,,,,,,,,,,0,64,0,,
185320,set_tempo,120,1,0,,,,,,,,,,,,412371,,,,,,,
185360,set_tempo,40,1,0,,,,,,,,,,,,413793,,,,,,,
185372,control_change,82,0,2,,,,,,,,,,,,,,,0,64,127,,
185400,note_on,0,0,2,,,,,,,,,,,,,,,0,,,60,0
185400,note_on,0,0,1,,,,,,,,,,,,,,,0,,,79,67
185400,note_on,0,0,1,,,,,,,,,,,,,,,0,,,88,0
185400,note_on,0,0,1,,,,,,,,,,,,,,,0,,,84,0
185400,note_on,120,0,1,,,,,,,,,,,,,,,0,,,91,0
185400,note_on,0,0,2,,,,,,,,,,,,,,,0,,,64,0
185400,note_on,0,0,2,,,,,,,,,,,,,,,0,,,67,55
185400,set_tempo,40,1,0,,,,,,,,,,,,415225,,,,,,,
185400,note_on,28,0,2,,,,,,,,,,,,,,,0,,,55,0
185440,set_tempo,40,1,0,,,,,,,,,,,,416667,,,,,,,
185480,set_tempo,40,1,0,,,,,,,,,,,,418118,,,,,,,
185520,note_on,0,0,2,,,,,,,,,,,,,,,0,,,64,65
185520,note_on,120,0,2,,,,,,,,,,,,,,,0,,,67,0
185520,note_on,0,0,1,,,,,,,,,,,,,,,0,,,88,62
185520,note_on,0,0,2,,,,,,,,,,,,,,,0,,,60,55
185520,note_on,0,0,1,,,,,,,,,,,,,,,0,,,91,73
185520,note_on,0,0,1,,,,,,,,,,,,,,,0,,,84,62
185520,note_on,120,0,1,,,,,,,,,,,,,,,0,,,79,0
185520,set_tempo,40,1,0,,,,,,,,,,,,419580,,,,,,,
185520,note_on,0,0,2,,,,,,,,,,,,,,,0,,,55,55
185560,set_tempo,40,1,0,,,,,,,,,,,,421053,,,,,,,
185600,set_tempo,40,1,0,,,,,,,,,,,,422535,,,,,,,
185640,note_on,120,0,2,,,,,,,,,,,,,,,0,,,55,0
185640,note_on,120,0,1,,,,,,,,,,,,,,,0,,,91,0
185640,note_on,0,0,1,,,,,,,,,,,,,,,0,,,88,0
185640,note_on,0,0,1,,,,,,,,,,,,,,,0,,,84,0
185640,note_on,0,0,1,,,,,,,,,,,,,,,0,,,79,66
185640,set_tempo,40,1,0,,,,,,,,,,,,424028,,,,,,,
185640,note_on,0,0,2,,,,,,,,,,,,,,,0,,,60,0
185640,note_on,0,0,2,,,,,,,,,,,,,,,0,,,64,0
185640,note_on,0,0,2,,,,,,,,,,,,,,,0,,,67,56
185680,set_tempo,40,1,0,,,,,,,,,,,,425532,,,,,,,
185720,set_tempo,40,1,0,,,,,,,,,,,,427046,,,,,,,
185760,note_on,120,0,2,,,,,,,,,,,,,,,0,,,67,0
185760,note_on,0,0,1,,,,,,,,,,,,,,,0,,,83,61
185760,note_on,120,0,1,,,,,,,,,,,,,,,0,,,79,0
185760,note_on,0,0,2,,,,,,,,,,,,,,,0,,,65,64
185760,note_on,0,0,2,,,,,,,,,,,,,,,0,,,62,54
185760,note_on,0,0,1,,,,,,,,,,,,,,,0,,,91,72
185760,note_on,0,0,1,,,,,,,,,,,,,,,0,,,86,61
185760,set_tempo,40,1,0,,,,,,,,,,,,430108,,,,,,,
185760,note_on,0,0,2,,,,,,,,,,,,,,,0,,,55,54
185770,control_change,10,0,2,,,,,,,,,,,,,,,0,64,0,,
185840,set_tempo,80,1,0,,,,,,,,,,,,428571,,,,,,,
185845,control_change,75,0,2,,,,,,,,,,,,,,,0,64,127,,
185880,note_on,0,0,2,,,,,,,,,,,,,,,0,,,67,55
185880,note_on,0,0,1,,,,,,,,,,,,,,,0,,,86,0
185880,note_on,0,0,1,,,,,,,,,,,,,,,0,,,83,0
185880,note_on,0,0,1,,,,,,,,,,,,,,,0,,,79,65
185880,note_on,0,0,2,,,,,,,,,,,,,,,0,,,65,0
185880,note_on,35,0,2,,,,,,,,,,,,,,,0,,,55,0
185880,note_on,0,0,2,,,,,,,,,,,,,,,0,,,62,0
185880,note_on,120,0,1,,,,,,,,,,,,,,,0,,,91,0
185900,set_tempo,60,1,0,,,,,,,,,,,,430108,,,,,,,
185940,set_tempo,40,1,0,,,,,,,,,,,,433213,,,,,,,
185980,set_tempo,40,1,0,,,,,,,,,,,,436364,,,,,,,
186000,note_on,0,0,2,,,,,,,,,,,,,,,0,,,65,63
186000,note_on,0,0,1,,,,,,,,,,,,,,,0,,,83,60
186000,note_on,120,0,1,,,,,,,,,,,,,,,0,,,79,0
186000,note_on,120,0,2,,,,,,,,,,,,,,,0,,,67,0
186000,note_on,0,0,2,,,,,,,,,,,,,,,0,,,62,53
186000,note_on,0,0,2,,,,,,,,,,,,,,,0,,,55,53
186000,note_on,0,0,1,,,,,,,,,,,,,,,0,,,86,60
186000,note_on,0,0,1,,,,,,,,,,,,,,,0,,,91,71
186020,set_tempo,40,1,0,,,,,,,,,,,,439560,,,,,,,
186060,set_tempo,40,1,0,,,,,,,,,,,,444444,,,,,,,
186120,note_on,0,0,1,,,,,,,,,,,,,,,0,,,83,0
186120,set_tempo,60,1,0,,,,,,,,,,,,666667,,,,,,,
186120,note_on,0,0,2,,,,,,,,,,,,,,,0,,,67,54
186120,note_on,0,0,1,,,,,,,,,,,,,,,0,,,86,0
186120,note_on,0,0,2,,,,,,,,,,,,,,,0,,,62,0
186120,note_on,120,0,2,,,,,,,,,,,,,,,0,,,55,0
186120,note_on,120,0,1,,,,,,,,,,,,,,,0,,,91,0
186120,note_on,0,0,2,,,,,,,,,,,,,,,0,,,65,0
186120,note_on,0,0,1,,,,,,,,,,,,,,,0,,,79,65
186184,control_change,64,0,2,,,,,,,,,,,,,,,0,64,0,,
186240,text,0,1,1,,,,,,,,,,,,,,,,,,,
186240,note_on,56,0,2,,,,,,,,,,,,,,,0,,,67,0
186240,note_on,0,0,2,,,,,,,,,,,,,,,0,,,36,49
186240,note_on,120,0,1,,,,,,,,,,,,,,,0,,,79,0
186240,note_on,0,0,1,,,,,,,,,,,,,,,0,,,88,46
186240,set_tempo,120,1,0,,,,,,,,,,,,409556,,,,,,,
186240,control_change,0,0,1,,,,,,,,,,,,,,,0,91,127,,
186309,control_change,69,0,2,,,,,,,,,,,,,,,0,64,127,,
186360,note_on,120,0,1,,,,,,,,,,,,,,,0,,,88,0
186360,note_on,0,0,1,,,,,,,,,,,,,,,0,,,96,49
186480,note_on,0,0,1,,,,,,,,,,,,,,,0,,,91,49
186480,note_on,120,0,1,,,,,,,,,,,,,,,0,,,96,0
186600,note_on,120,0,1,,,,,,,,,,,,,,,0,,,91,0
186600,note_on,0,0,1,,,,,,,,,,,,,,,0,,,88,48
186720,note_on,0,0,2,,,,,,,,,,,,,,,0,,,60,46
186720,set_tempo,480,1,0,,,,,,,,,,,,396040,,,,,,,
186720,note_on,0,0,2,,,,,,,,,,,,,,,0,,,52,39
186720,note_on,411,0,2,,,,,,,,,,,,,,,0,,,36,0
186720,note_on,0,0,1,,,,,,,,,,,,,,,0,,,84,48
186720,note_on,120,0,1,,,,,,,,,,,,,,,0,,,88,0
186741,control_change,21,0,2,,,,,,,,,,,,,,,0,64,0,,
186810,note_on,0,0,2,,,,,,,,,,,,,,,0,,,52,0
186810,note_on,69,0,2,,,,,,,,,,,,,,,0,,,60,0
186840,note_on,120,0,1,,,,,,,,,,,,,,,0,,,79,47
186860,note_on,20,0,1,,,,,,,,,,,,,,,0,,,84,0
186960,note_on,150,0,2,,,,,,,,,,,,,,,0,,,52,39
186960,note_on,0,0,2,,,,,,,,,,,,,,,0,,,60,46
186960,note_on,100,0,1,,,,,,,,,,,,,,,0,,,76,46
186980,note_on,20,0,1,,,,,,,,,,,,,,,0,,,79,0
187050,note_on,0,0,2,,,,,,,,,,,,,,,0,,,52,0
187050,note_on,90,0,2,,,,,,,,,,,,,,,0,,,60,0
187080,note_on,100,0,1,,,,,,,,,,,,,,,0,,,72,46
187100,note_on,20,0,1,,,,,,,,,,,,,,,0,,,76,0
187200,note_on,0,0,2,,,,,,,,,,,,,,,0,,,62,46
187200,note_on,150,0,2,,,,,,,,,,,,,,,0,,,55,39
187200,set_tempo,480,1,0,,,,,,,,,,,,405405,,,,,,,
187200,note_on,100,0,1,,,,,,,,,,,,,,,0,,,86,46
187220,note_on,20,0,1,,,,,,,,,,,,,,,0,,,72,0
187285,control_change,85,0,2,,,,,,,,,,,,,,,0,64,127,,
187320,note_on,100,0,1,,,,,,,,,,,,,,,0,,,86,0
187320,note_on,0,0,1,,,,,,,,,,,,,,,0,,,95,49
187440,note_on,0,0,1,,,,,,,,,,,,,,,0,,,91,46
187440,note_on,120,0,1,,,,,,,,,,,,,,,0,,,95,0
187560,note_on,120,0,1,,,,,,,,,,,,,,,0,,,91,0
187560,note_on,0,0,1,,,,,,,,,,,,,,,0,,,89,44
187680,control_change,0,0,2,,,,,,,,,,,,,,,0,64,0,,
187680,set_tempo,480,1,0,,,,,,,,,,,,409556,,,,,,,
187680,note_on,0,0,2,,,,,,,,,,,,,,,0,,,55,0
187680,note_on,395,0,2,,,,,,,,,,,,,,,0,,,62,0
187680,note_on,0,0,2,,,,,,,,,,,,,,,0,,,43,47
187680,note_on,120,0,1,,,,,,,,,,,,,,,0,,,89,0
187680,note_on,0,0,1,,,,,,,,,,,,,,,0,,,83,48
187770,note_on,90,0,2,,,,,,,,,,,,,,,0,,,43,0
187800,note_on,120,0,1,,,,,,,,,,,,,,,0,,,79,44
187820,note_on,20,0,1,,,,,,,,,,,,,,,0,,,83,0
187920,note_on,100,0,1,,,,,,,,,,,,,,,0,,,77,48
187920,note_on,150,0,2,,,,,,,,,,,,,,,0,,,43,48
187940,note_on,20,0,1,,,,,,,,,,,,,,,0,,,79,0
188010,note_on,90,0,2,,,,,,,,,,,,,,,0,,,43,0
188040,note_on,100,0,1,,,,,,,,,,,,,,,0,,,71,46
188040,set_tempo,360,1,0,,,,,,,,,,,,461538,,,,,,,
188060,note_on,20,0,1,,,,,,,,,,,,,,,0,,,77,0
188160,control_change,0,0,1,,,,,,,,,,,,,,,0,91,127,,
188160,text,0,1,1,,,,,,,,,,,,,,,,,,,
188160,set_tempo,120,1,0,,,,,,,,,,,,408163,,,,,,,
188160,note_on,100,0,1,,,,,,,,,,,,,,,0,,,86,46
188160,note_on,150,0,2,,,,,,,,,,,,,,,0,,,38,49
188180,note_on,20,0,1,,,,,,,,,,,,,,,0,,,71,0
188229,control_change,69,0,2,,,,,,,,,,,,,,,0,64,127,,
188280,note_on,100,0,1,,,,,,,,,,,,,,,0,,,86,0
188280,note_on,0,0,1,,,,,,,,,,,,,,,0,,,98,49
188400,note_on,120,0,1,,,,,,,,,,,,,,,0,,,98,0
188400,note_on,0,0,1,,,,,,,,,,,,,,,0,,,93,49
188520,note_on,120,0,1,,,,,,,,,,,,,,,0,,,93,0
188520,note_on,0,0,1,,,,,,,,,,,,,,,0,,,89,48
188640,note_on,0,0,2,,,,,,,,,,,,,,,0,,,62,46
188640,note_on,0,0,2,,,,,,,,,,,,,,,0,,,53,39
188640,note_on,411,0,2,,,,,,,,,,,,,,,0,,,38,0
188640,note_on,120,0,1,,,,,,,,,,,,,,,0,,,89,0
188640,set_tempo,480,1,0,,,,,,,,,,,,392157,,,,,,,
188640,note_on,0,0,1,,,,,,,,,,,,,,,0,,,86,48
188661,control_change,21,0,2,,,,,,,,,,,,,,,0,64,0,,
188730,note_on,69,0,2,,,,,,,,,,,,,,,0,,,62,0
188730,note_on,0,0,2,,,,,,,,,,,,,,,0,,,53,0
188760,note_on,120,0,1,,,,,,,,,,,,,,,0,,,81,47
188780,note_on,20,0,1,,,,,,,,,,,,,,,0,,,86,0
188880,note_on,100,0,1,,,,,,,,,,,,,,,0,,,77,46
188880,note_on,150,0,2,,,,,,,,,,,,,,,0,,,53,39
188880,set_tempo,240,1,0,,,,,,,,,,,,402685,,,,,,,
188880,note_on,0,0,2,,,,,,,,,,,,,,,0,,,62,46
188900,note_on,20,0,1,,,,,,,,,,,,,,,0,,,81,0
188970,note_on,0,0,2,,,,,,,,,,,,,,,0,,,53,0
188970,note_on,90,0,2,,,,,,,,,,,,,,,0,,,62,0
189000,note_on,100,0,1,,,,,,,,,,,,,,,0,,,74,46
189020,note_on,20,0,1,,,,,,,,,,,,,,,0,,,77,0
189120,note_on,100,0,1,,,,,,,,,,,,,,,0,,,85,46
189120,note_on,0,0,2,,,,,,,,,,,,,,,0,,,64,46
189120,note_on,150,0,2,,,,,,,,,,,,,,,0,,,57,39
189120,set_tempo,240,1,0,,,,,,,,,,,,408163,,,,,,,
189140,note_on,20,0,1,,,,,,,,,,,,,,,0,,,74,0
189205,control_change,85,0,2,,,,,,,,,,,,,,,0,64,127,,
189240,note_on,0,0,1,,,,,,,,,,,,,,,0,,,97,49
189240,note_on,100,0,1,,,,,,,,,,,,,,,0,,,85,0
189360,note_on,0,0,1,,,,,,,,,,,,,,,0,,,93,46
189360,note_on,120,0,1,,,,,,,,,,,,,,,0,,,97,0
189480,note_on,120,0,1,,,,,,,,,,,,,,,0,,,93,0
189480,note_on,0,0,1,,,,,,,,,,,,,,,0,,,91,44
189600,note_on,0,0,1,,,,,,,,,,,,,,,0,,,85,48
189600,note_on,0,0,2,,,,,,,,,,,,,,,0,,,45,47
189600,note_on,120,0,1,,,,,,,,,,,,,,,0,,,91,0
189600,note_on,395,0,2,,,,,,,,,,,,,,,0,,,64,0
189600,control_change,0,0,2,,,,,,,,,,,,,,,0,64,0,,
189600,note_on,0,0,2,,,,,,,,,,,,,,,0,,,57,0
189600,set_tempo,480,1,0,,,,,,,,,,,,409556,,,,,,,
189690,note_on,90,0,2,,,,,,,,,,,,,,,0,,,45,0
189720,note_on,120,0,1,,,,,,,,,,,,,,,0,,,81,44
189740,note_on,20,0,1,,,,,,,,,,,,,,,0,,,85,0
189840,note_on,100,0,1,,,,,,,,,,,,,,,0,,,79,48
189840,note_on,150,0,2,,,,,,,,,,,,,,,0,,,45,48
189860,note_on,20,0,1,,,,,,,,,,,,,,,0,,,81,0
189930,note_on,90,0,2,,,,,,,,,,,,,,,0,,,45,0
189960,set_tempo,360,1,0,,,,,,,,,,,,461538,,,,,,,
189960,note_on,100,0,1,,,,,,,,,,,,,,,0,,,73,46
189980,note_on,20,0,1,,,,,,,,,,,,,,,0,,,79,0
190080,note_on,150,0,2,,,,,,,,,,,,,,,0,,,41,53
190080,text,0,1,1,,,,,,,,,,,,,,,,,,,
190080,note_on,100,0,1,,,,,,,,,,,,,,,0,,,89,50
190080,control_change,0,0,1,,,,,,,,,,,,,,,0,91,127,,
190080,set_tempo,120,1,0,,,,,,,,,,,,408163,,,,,,,
190100,note_on,20,0,1,,,,,,,,,,,,,,,0,,,73,0
190149,control_change,69,0,2,,,,,,,,,,,,,,,0,64,127,,
190200,note_on,100,0,1,,,,,,,,,,,,,,,0,,,89,0
190200,note_on,0,0,1,,,,,,,,,,,,,,,0,,,101,55
190320,note_on,120,0,1,,,,,,,,,,,,,,,0,,,101,0
190320,note_on,0,0,1,,,,,,,,,,,,,,,0,,,96,56
190440,note_on,120,0,1,,,,,,,,,,,,,,,0,,,96,0
190440,note_on,0,0,1,,,,,,,,,,,,,,,0,,,93,57
190560,note_on,120,0,1,,,,,,,,,,,,,,,0,,,93,0
190560,note_on,411,0,2,,,,,,,,,,,,,,,0,,,41,0
190560,note_on,0,0,2,,,,,,,,,,,,,,,0,,,57,47
190560,note_on,0,0,2,,,,,,,,,,,,,,,0,,,65,56
190560,set_tempo,480,1,0,,,,,,,,,,,,397351,,,,,,,
190560,note_on,0,0,1,,,,,,,,,,,,,,,0,,,89,58
190581,control_change,21,0,2,,,,,,,,,,,,,,,0,64,0,,
190650,note_on,69,0,2,,,,,,,,,,,,,,,0,,,65,0
190650,note_on,0,0,2,,,,,,,,,,,,,,,0,,,57,0
190680,note_on,120,0,1,,,,,,,,,,,,,,,0,,,84,58
190700,note_on,20,0,1,,,,,,,,,,,,,,,0,,,89,0
190800,note_on,0,0,2,,,,,,,,,,,,,,,0,,,65,58
190800,note_on,150,0,2,,,,,,,,,,,,,,,0,,,57,49
190800,note_on,100,0,1,,,,,,,,,,,,,,,0,,,81,58
190820,note_on,20,0,1,,,,,,,,,,,,,,,0,,,84,0
190890,note_on,90,0,2,,,,,,,,,,,,,,,0,,,65,0
190890,note_on,0,0,2,,,,,,,,,,,,,,,0,,,57,0
190920,note_on,100,0,1,,,,,,,,,,,,,,,0,,,77,60
190940,note_on,20,0,1,,,,,,,,,,,,,,,0,,,81,0
191040,note_on,150,0,2,,,,,,,,,,,,,,,0,,,60,52
191040,note_on,0,0,2,,,,,,,,,,,,,,,0,,,67,62
191040,note_on,100,0,1,,,,,,,,,,,,,,,0,,,88,62
191040,set_tempo,480,1,0,,,,,,,,,,,,406780,,,,,,,
191060,note_on,20,0,1,,,,,,,,,,,,,,,0,,,77,0
191125,control_change,85,0,2,,,,,,,,,,,,,,,0,64,127,,
191160,note_on,100,0,1,,,,,,,,,,,,,,,0,,,88,0
191160,note_on,0,0,1,,,,,,,,,,,,,,,0,,,100,67
191280,note_on,120,0,1,,,,,,,,,,,,,,,0,,,100,0
191280,note_on,0,0,1,,,,,,,,,,,,,,,0,,,96,64
191400,note_on,120,0,1,,,,,,,,,,,,,,,0,,,96,0
191400,note_on,0,0,1,,,,,,,,,,,,,,,0,,,91,63
191520,note_on,395,0,2,,,,,,,,,,,,,,,0,,,67,0
191520,control_change,0,0,2,,,,,,,,,,,,,,,0,64,0,,
191520,set_tempo,480,1,0,,,,,,,,,,,,410959,,,,,,,
191520,note_on,0,0,2,,,,,,,,,,,,,,,0,,,60,0
191520,note_on,0,0,2,,,,,,,,,,,,,,,0,,,48,69
191520,note_on,0,0,1,,,,,,,,,,,,,,,0,,,88,70
191520,note_on,120,0,1,,,,,,,,,,,,,,,0,,,91,0
191610,note_on,90,0,2,,,,,,,,,,,,,,,0,,,48,0
191640,note_on,120,0,1,,,,,,,,,,,,,,,0,,,84,66
191660,note_on,20,0,1,,,,,,,,,,,,,,,0,,,88,0
191760,note_on,150,0,2,,,,,,,,,,,,,,,0,,,48,73
191760,note_on,100,0,1,,,,,,,,,,,,,,,0,,,79,73
191780,note_on,20,0,1,,,,,,,,,,,,,,,0,,,84,0
191850,note_on,90,0,2,,,,,,,,,,,,,,,0,,,48,0
191880,note_on,100,0,1,,,,,,,,,,,,,,,0,,,76,71
191880,set_tempo,360,1,0,,,,,,,,,,,,461538,,,,,,,
191900,note_on,20,0,1,,,,,,,,,,,,,,,0,,,79,0
192000,note_on,150,0,2,,,,,,,,,,,,,,,0,,,40,71
192000,note_on,0,0,1,,,,,,,,,,,,,,,0,,,82,73
192000,note_on,0,0,1,,,,,,,,,,,,,,,0,,,79,73
192000,note_on,100,0,1,,,,,,,,,,,,,,,0,,,85,73
192000,set_tempo,120,1,0,,,,,,,,,,,,408163,,,,,,,
192000,note_on,0,0,1,,,,,,,,,,,,,,,0,,,91,87
192020,note_on,20,0,1,,,,,,,,,,,,,,,0,,,76,0
192057,control_change,57,0,2,,,,,,,,,,,,,,,0,64,127,,
192120,note_on,63,0,2,,,,,,,,,,,,,,,0,,,40,0
192120,note_on,0,0,2,,,,,,,,,,,,,,,0,,,46,64
192240,note_on,120,0,2,,,,,,,,,,,,,,,0,,,46,0
192240,note_on,0,0,2,,,,,,,,,,,,,,,0,,,49,64
192360,note_on,120,0,2,,,,,,,,,,,,,,,0,,,49,0
192360,note_on,0,0,2,,,,,,,,,,,,,,,0,,,52,64
192480,note_on,0,0,1,,,,,,,,,,,,,,,0,,,67,60
192480,note_on,0,0,2,,,,,,,,,,,,,,,0,,,52,71
192480,note_on,0,0,1,,,,,,,,,,,,,,,0,,,70,60
192480,note_on,0,0,1,,,,,,,,,,,,,,,0,,,73,60
192480,note_on,0,0,1,,,,,,,,,,,,,,,0,,,91,0
192480,note_on,0,0,1,,,,,,,,,,,,,,,0,,,82,0
192480,note_on,0,0,1,,,,,,,,,,,,,,,0,,,85,0
192480,note_on,120,0,2,,,,,,,,,,,,,,,0,,,52,0
192480,set_tempo,480,1,0,,,,,,,,,,,,397351,,,,,,,
192480,note_on,460,0,1,,,,,,,,,,,,,,,0,,,79,0
192480,note_on,0,0,1,,,,,,,,,,,,,,,0,,,79,72
192600,note_on,120,0,2,,,,,,,,,,,,,,,0,,,52,0
192600,note_on,0,0,2,,,,,,,,,,,,,,,0,,,58,66
192720,note_on,0,0,1,,,,,,,,,,,,,,,0,,,67,60
192720,note_on,0,0,1,,,,,,,,,,,,,,,0,,,70,60
192720,note_on,0,0,1,,,,,,,,,,,,,,,0,,,73,60
192720,note_on,0,0,1,,,,,,,,,,,,,,,0,,,67,0
192720,note_on,0,0,1,,,,,,,,,,,,,,,0,,,70,0
192720,note_on,0,0,1,,,,,,,,,,,,,,,0,,,73,0
192720,note_on,240,0,1,,,,,,,,,,,,,,,0,,,79,0
192720,note_on,120,0,2,,,,,,,,,,,,,,,0,,,58,0
192720,note_on,0,0,1,,,,,,,,,,,,,,,0,,,79,72
192720,note_on,0,0,2,,,,,,,,,,,,,,,0,,,61,66
192840,note_on,0,0,2,,,,,,,,,,,,,,,0,,,64,66
192840,set_tempo,360,1,0,,,,,,,,,,,,474308,,,,,,,
192840,note_on,120,0,2,,,,,,,,,,,,,,,0,,,61,0
192960,note_on,0,0,1,,,,,,,,,,,,,,,0,,,70,0
192960,note_on,0,0,1,,,,,,,,,,,,,,,0,,,67,0
192960,note_on,0,0,1,,,,,,,,,,,,,,,0,,,86,72
192960,note_on,0,0,1,,,,,,,,,,,,,,,0,,,83,72
192960,note_on,0,0,1,,,,,,,,,,,,,,,0,,,80,72
192960,note_on,0,0,1,,,,,,,,,,,,,,,0,,,92,86
192960,note_on,0,0,1,,,,,,,,,,,,,,,0,,,73,0
192960,note_on,0,0,2,,,,,,,,,,,,,,,0,,,41,71
192960,set_tempo,120,1,0,,,,,,,,,,,,408163,,,,,,,
192960,note_on,120,0,2,,,,,,,,,,,,,,,0,,,64,0
192960,note_on,240,0,1,,,,,,,,,,,,,,,0,,,79,0
192971,control_change,11,0,2,,,,,,,,,,,,,,,0,64,0,,
193040,control_change,69,0,2,,,,,,,,,,,,,,,0,64,127,,
193080,note_on,0,0,2,,,,,,,,,,,,,,,0,,,47,65
193080,note_on,40,0,2,,,,,,,,,,,,,,,0,,,41,0
193200,note_on,120,0,2,,,,,,,,,,,,,,,0,,,47,0
193200,note_on,0,0,2,,,,,,,,,,,,,,,0,,,50,66
193320,note_on,120,0,2,,,,,,,,,,,,,,,0,,,50,0
193320,note_on,0,0,2,,,,,,,,,,,,,,,0,,,53,66
193440,set_tempo,480,1,0,,,,,,,,,,,,397351,,,,,,,
193440,note_on,0,0,1,,,,,,,,,,,,,,,0,,,80,73
193440,note_on,0,0,1,,,,,,,,,,,,,,,0,,,68,62
193440,note_on,0,0,1,,,,,,,,,,,,,,,0,,,71,62
193440,note_on,0,0,1,,,,,,,,,,,,,,,0,,,74,62
193440,note_on,0,0,1,,,,,,,,,,,,,,,0,,,83,0
193440,note_on,0,0,1,,,,,,,,,,,,,,,0,,,86,0
193440,note_on,480,0,1,,,,,,,,,,,,,,,0,,,92,0
193440,note_on,120,0,2,,,,,,,,,,,,,,,0,,,53,0
193440,note_on,0,0,2,,,,,,,,,,,,,,,0,,,53,71
193440,note_on,0,0,1,,,,,,,,,,,,,,,0,,,80,0
193560,note_on,0,0,2,,,,,,,,,,,,,,,0,,,59,65
193560,note_on,120,0,2,,,,,,,,,,,,,,,0,,,53,0
193680,note_on,0,0,1,,,,,,,,,,,,,,,0,,,74,0
193680,note_on,0,0,2,,,,,,,,,,,,,,,0,,,62,65
193680,note_on,120,0,2,,,,,,,,,,,,,,,0,,,59,0
193680,note_on,0,0,1,,,,,,,,,,,,,,,0,,,71,0
193680,note_on,0,0,1,,,,,,,,,,,,,,,0,,,68,0
193680,note_on,0,0,1,,,,,,,,,,,,,,,0,,,74,63
193680,note_on,240,0,1,,,,,,,,,,,,,,,0,,,80,0
193680,note_on,0,0,1,,,,,,,,,,,,,,,0,,,68,63
193680,note_on,0,0,1,,,,,,,,,,,,,,,0,,,80,74
193680,note_on,0,0,1,,,,,,,,,,,,,,,0,,,71,63
193800,set_tempo,360,1,0,,,,,,,,,,,,474308,,,,,,,
193800,note_on,120,0,2,,,,,,,,,,,,,,,0,,,62,0
193800,note_on,0,0,2,,,,,,,,,,,,,,,0,,,65,65
193891,control_change,91,0,2,,,,,,,,,,,,,,,0,64,0,,
193920,note_on,0,0,1,,,,,,,,,,,,,,,0,,,81,73
193920,note_on,29,0,2,,,,,,,,,,,,,,,0,,,65,0
193920,set_tempo,120,1,0,,,,,,,,,,,,404040,,,,,,,
193920,note_on,0,0,1,,,,,,,,,,,,,,,0,,,93,87
193920,note_on,240,0,1,,,,,,,,,,,,,,,0,,,80,0
193920,note_on,0,0,1,,,,,,,,,,,,,,,0,,,74,0
193920,note_on,0,0,1,,,,,,,,,,,,,,,0,,,71,0
193920,note_on,0,0,1,,,,,,,,,,,,,,,0,,,68,0
193920,note_on,0,0,1,,,,,,,,,,,,,,,0,,,87,73
193920,note_on,0,0,2,,,,,,,,,,,,,,,0,,,42,71
193920,note_on,0,0,1,,,,,,,,,,,,,,,0,,,84,73
193977,control_change,57,0,2,,,,,,,,,,,,,,,0,64,127,,
194040,note_on,0,0,2,,,,,,,,,,,,,,,0,,,48,64
194040,note_on,63,0,2,,,,,,,,,,,,,,,0,,,42,0
194160,note_on,0,0,2,,,,,,,,,,,,,,,0,,,51,64
194160,note_on,120,0,2,,,,,,,,,,,,,,,0,,,48,0
194280,note_on,0,0,2,,,,,,,,,,,,,,,0,,,54,64
194280,note_on,120,0,2,,,,,,,,,,,,,,,0,,,51,0
194400,set_tempo,480,1,0,,,,,,,,,,,,396040,,,,,,,
194400,note_on,0,0,2,,,,,,,,,,,,,,,0,,,54,71
194400,note_on,0,0,1,,,,,,,,,,,,,,,0,,,81,72
194400,note_on,480,0,1,,,,,,,,,,,,,,,0,,,93,0
194400,note_on,120,0,2,,,,,,,,,,,,,,,0,,,54,0
194400,note_on,0,0,1,,,,,,,,,,,,,,,0,,,84,0
194400,note_on,0,0,1,,,,,,,,,,,,,,,0,,,81,0
194400,note_on,0,0,1,,,,,,,,,,,,,,,0,,,75,60
194400,note_on,0,0,1,,,,,,,,,,,,,,,0,,,87,0
194400,note_on,0,0,1,,,,,,,,,,,,,,,0,,,69,60
194400,note_on,0,0,1,,,,,,,,,,,,,,,0,,,72,60
194520,note_on,0,0,2,,,,,,,,,,,,,,,0,,,60,66
194520,note_on,120,0,2,,,,,,,,,,,,,,,0,,,54,0
194640,note_on,120,0,2,,,,,,,,,,,,,,,0,,,60,0
194640,note_on,0,0,1,,,,,,,,,,,,,,,0,,,81,72
194640,note_on,0,0,2,,,,,,,,,,,,,,,0,,,63,66
194640,note_on,0,0,1,,,,,,,,,,,,,,,0,,,72,60
194640,note_on,0,0,1,,,,,,,,,,,,,,,0,,,69,0
194640,note_on,0,0,1,,,,,,,,,,,,,,,0,,,69,60
194640,note_on,0,0,1,,,,,,,,,,,,,,,0,,,75,0
194640,note_on,240,0,1,,,,,,,,,,,,,,,0,,,81,0
194640,note_on,0,0,1,,,,,,,,,,,,,,,0,,,72,0
194640,note_on,0,0,1,,,,,,,,,,,,,,,0,,,75,60
194760,note_on,0,0,2,,,,,,,,,,,,,,,0,,,66,66
194760,note_on,120,0,2,,,,,,,,,,,,,,,0,,,63,0
194760,set_tempo,360,1,0,,,,,,,,,,,,474308,,,,,,,
194880,note_on,240,0,1,,,,,,,,,,,,,,,0,,,81,0
194880,note_on,0,0,1,,,,,,,,,,,,,,,0,,,94,88
194880,note_on,0,0,1,,,,,,,,,,,,,,,0,,,82,74
194880,note_on,0,0,1,,,,,,,,,,,,,,,0,,,85,74
194880,note_on,0,0,1,,,,,,,,,,,,,,,0,,,88,74
194880,note_on,0,0,1,,,,,,,,,,,,,,,0,,,69,0
194880,note_on,0,0,1,,,,,,,,,,,,,,,0,,,72,0
194880,note_on,0,0,1,,,,,,,,,,,,,,,0,,,75,0
194880,set_tempo,120,1,0,,,,,,,,,,,,402685,,,,,,,
194880,note_on,120,0,2,,,,,,,,,,,,,,,0,,,66,0
194880,note_on,0,0,2,,,,,,,,,,,,,,,0,,,43,71
194891,control_change,11,0,2,,,,,,,,,,,,,,,0,64,0,,
194960,control_change,69,0,2,,,,,,,,,,,,,,,0,64,127,,
195000,note_on,0,0,2,,,,,,,,,,,,,,,0,,,49,65
195000,note_on,40,0,2,,,,,,,,,,,,,,,0,,,43,0
195120,note_on,0,0,2,,,,,,,,,,,,,,,0,,,52,66
195120,note_on,120,0,2,,,,,,,,,,,,,,,0,,,49,0
195240,note_on,120,0,2,,,,,,,,,,,,,,,0,,,52,0
195240,note_on,0,0,2,,,,,,,,,,,,,,,0,,,55,66
195360,note_on,0,0,2,,,,,,,,,,,,,,,0,,,55,71
195360,note_on,0,0,1,,,,,,,,,,,,,,,0,,,73,63
195360,note_on,0,0,1,,,,,,,,,,,,,,,0,,,76,63
195360,note_on,0,0,1,,,,,,,,,,,,,,,0,,,82,0
195360,note_on,0,0,1,,,,,,,,,,,,,,,0,,,85,0
195360,note_on,0,0,1,,,,,,,,,,,,,,,0,,,88,0
195360,note_on,480,0,1,,,,,,,,,,,,,,,0,,,94,0
195360,note_on,0,0,1,,,,,,,,,,,,,,,0,,,82,74
195360,note_on,120,0,2,,,,,,,,,,,,,,,0,,,55,0
195360,set_tempo,480,1,0,,,,,,,,,,,,398671,,,,,,,
195360,note_on,0,0,1,,,,,,,,,,,,,,,0,,,70,63
195480,note_on,120,0,2,,,,,,,,,,,,,,,0,,,55,0
195480,note_on,0,0,2,,,,,,,,,,,,,,,0,,,61,65
195600,note_on,0,0,2,,,,,,,,,,,,,,,0,,,64,65
195600,note_on,120,0,2,,,,,,,,,,,,,,,0,,,61,0
195600,note_on,0,0,1,,,,,,,,,,,,,,,0,,,73,64
195600,note_on,0,0,1,,,,,,,,,,,,,,,0,,,76,0
195600,note_on,0,0,1,,,,,,,,,,,,,,,0,,,73,0
195600,note_on,0,0,1,,,,,,,,,,,,,,,0,,,70,0
195600,note_on,0,0,1,,,,,,,,,,,,,,,0,,,76,64
195600,note_on,0,0,1,,,,,,,,,,,,,,,0,,,70,64
195600,note_on,0,0,1,,,,,,,,,,,,,,,0,,,82,75
195600,note_on,240,0,1,,,,,,,,,,,,,,,0,,,82,0
195720,note_on,0,0,2,,,,,,,,,,,,,,,0,,,67,65
195720,set_tempo,360,1,0,,,,,,,,,,,,474308,,,,,,,
195720,note_on,120,0,2,,,,,,,,,,,,,,,0,,,64,0
195811,control_change,91,0,2,,,,,,,,,,,,,,,0,64,0,,
195840,note_on,29,0,2,,,,,,,,,,,,,,,0,,,67,0
195840,note_on,0,0,2,,,,,,,,,,,,,,,0,,,44,63
195840,note_on,0,0,1,,,,,,,,,,,,,,,0,,,71,71
195840,note_on,0,0,1,,,,,,,,,,,,,,,0,,,74,71
195840,set_tempo,120,1,0,,,,,,,,,,,,402685,,,,,,,
195840,note_on,240,0,1,,,,,,,,,,,,,,,0,,,82,0
195840,note_on,0,0,1,,,,,,,,,,,,,,,0,,,76,0
195840,note_on,0,0,1,,,,,,,,,,,,,,,0,,,73,0
195840,note_on,0,0,1,,,,,,,,,,,,,,,0,,,70,0
195840,note_on,0,0,1,,,,,,,,,,,,,,,0,,,77,71
195840,note_on,0,0,1,,,,,,,,,,,,,,,0,,,83,85
195897,control_change,57,0,2,,,,,,,,,,,,,,,0,64,127,,
195960,note_on,63,0,2,,,,,,,,,,,,,,,0,,,44,0
195960,note_on,0,0,2,,,,,,,,,,,,,,,0,,,50,57
196080,note_on,0,0,2,,,,,,,,,,,,,,,0,,,53,58
196080,note_on,120,0,2,,,,,,,,,,,,,,,0,,,50,0
196200,note_on,120,0,2,,,,,,,,,,,,,,,0,,,53,0
196200,note_on,0,0,2,,,,,,,,,,,,,,,0,,,56,58
196320,note_on,0,0,1,,,,,,,,,,,,,,,0,,,75,61
196320,note_on,0,0,1,,,,,,,,,,,,,,,0,,,74,0
196320,note_on,0,0,1,,,,,,,,,,,,,,,0,,,77,0
196320,note_on,480,0,1,,,,,,,,,,,,,,,0,,,83,0
196320,note_on,0,0,1,,,,,,,,,,,,,,,0,,,72,61
196320,note_on,0,0,1,,,,,,,,,,,,,,,0,,,84,73
196320,note_on,120,0,2,,,,,,,,,,,,,,,0,,,56,0
196320,note_on,0,0,2,,,,,,,,,,,,,,,0,,,57,66
196320,set_tempo,480,1,0,,,,,,,,,,,,396040,,,,,,,
196320,note_on,0,0,1,,,,,,,,,,,,,,,0,,,78,61
196320,note_on,0,0,1,,,,,,,,,,,,,,,0,,,71,0
196440,note_on,120,0,2,,,,,,,,,,,,,,,0,,,57,0
196440,note_on,0,0,2,,,,,,,,,,,,,,,0,,,63,62
196560,note_on,0,0,1,,,,,,,,,,,,,,,0,,,78,63
196560,note_on,240,0,1,,,,,,,,,,,,,,,0,,,84,0
196560,note_on,0,0,1,,,,,,,,,,,,,,,0,,,75,0
196560,note_on,0,0,1,,,,,,,,,,,,,,,0,,,72,0
196560,note_on,0,0,1,,,,,,,,,,,,,,,0,,,75,63
196560,note_on,0,0,1,,,,,,,,,,,,,,,0,,,72,63
196560,note_on,0,0,1,,,,,,,,,,,,,,,0,,,84,75
196560,note_on,120,0,2,,,,,,,,,,,,,,,0,,,63,0
196560,note_on,0,0,2,,,,,,,,,,,,,,,0,,,66,62
196560,note_on,0,0,1,,,,,,,,,,,,,,,0,,,78,0
196680,note_on,0,0,2,,,,,,,,,,,,,,,0,,,69,63
196680,note_on,120,0,2,,,,,,,,,,,,,,,0,,,66,0
196680,set_tempo,360,1,0,,,,,,,,,,,,474308,,,,,,,
196800,note_on,0,0,2,,,,,,,,,,,,,,,0,,,46,68
196800,note_on,120,0,2,,,,,,,,,,,,,,,0,,,69,0
196800,set_tempo,120,1,0,,,,,,,,,,,,402685,,,,,,,
196800,note_on,0,0,1,,,,,,,,,,,,,,,0,,,75,0
196800,note_on,0,0,1,,,,,,,,,,,,,,,0,,,78,0
196800,note_on,0,0,1,,,,,,,,,,,,,,,0,,,72,0
196800,note_on,0,0,1,,,,,,,,,,,,,,,0,,,79,72
196800,note_on,240,0,1,,,,,,,,,,,,,,,0,,,84,0
196800,note_on,0,0,1,,,,,,,,,,,,,,,0,,,73,72
196800,note_on,0,0,1,,,,,,,,,,,,,,,0,,,85,86
196800,note_on,0,0,1,,,,,,,,,,,,,,,0,,,76,72
196811,control_change,11,0,2,,,,,,,,,,,,,,,0,64,0,,
196880,control_change,69,0,2,,,,,,,,,,,,,,,0,64,127,,
196920,note_on,0,0,2,,,,,,,,,,,,,,,0,,,52,63
196920,note_on,40,0,2,,,,,,,,,,,,,,,0,,,46,0
197040,note_on,0,0,2,,,,,,,,,,,,,,,0,,,55,65
197040,note_on,120,0,2,,,,,,,,,,,,,,,0,,,52,0
197160,note_on,0,0,2,,,,,,,,,,,,,,,0,,,58,66
197160,note_on,120,0,2,,,,,,,,,,,,,,,0,,,55,0
197280,note_on,0,0,1,,,,,,,,,,,,,,,0,,,86,73
197280,note_on,0,0,1,,,,,,,,,,,,,,,0,,,80,62
197280,set_tempo,480,1,0,,,,,,,,,,,,397351,,,,,,,
197280,note_on,0,0,1,,,,,,,,,,,,,,,0,,,73,0
197280,note_on,0,0,1,,,,,,,,,,,,,,,0,,,76,0
197280,note_on,120,0,2,,,,,,,,,,,,,,,0,,,58,0
197280,note_on,0,0,1,,,,,,,,,,,,,,,0,,,79,0
197280,note_on,480,0,1,,,,,,,,,,,,,,,0,,,85,0
197280,note_on,0,0,1,,,,,,,,,,,,,,,0,,,74,62
197280,note_on,0,0,2,,,,,,,,,,,,,,,0,,,59,71
197280,note_on,0,0,1,,,,,,,,,,,,,,,0,,,77,62
197400,note_on,120,0,2,,,,,,,,,,,,,,,0,,,59,0
197400,note_on,0,0,2,,,,,,,,,,,,,,,0,,,65,66
197520,note_on,0,0,1,,,,,,,,,,,,,,,0,,,86,76
197520,note_on,0,0,1,,,,,,,,,,,,,,,0,,,74,64
197520,note_on,0,0,1,,,,,,,,,,,,,,,0,,,77,64
197520,note_on,0,0,1,,,,,,,,,,,,,,,0,,,80,64
197520,note_on,0,0,2,,,,,,,,,,,,,,,0,,,68,66
197520,note_on,0,0,1,,,,,,,,,,,,,,,0,,,74,0
197520,note_on,0,0,1,,,,,,,,,,,,,,,0,,,77,0
197520,note_on,0,0,1,,,,,,,,,,,,,,,0,,,80,0
197520,note_on,240,0,1,,,,,,,,,,,,,,,0,,,86,0
197520,note_on,120,0,2,,,,,,,,,,,,,,,0,,,65,0
197640,set_tempo,360,1,0,,,,,,,,,,,,425532,,,,,,,
197640,note_on,120,0,2,,,,,,,,,,,,,,,0,,,68,0
197640,note_on,0,0,2,,,,,,,,,,,,,,,0,,,71,67
197760,note_on,120,0,2,,,,,,,,,,,,,,,0,,,71,0
197760,note_on,0,0,2,,,,,,,,,,,,,,,0,,,48,74
197760,note_on,0,0,1,,,,,,,,,,,,,,,0,,,77,0
197760,note_on,0,0,1,,,,,,,,,,,,,,,0,,,74,0
197760,note_on,0,0,1,,,,,,,,,,,,,,,0,,,78,71
197760,note_on,0,0,1,,,,,,,,,,,,,,,0,,,80,0
197760,note_on,240,0,1,,,,,,,,,,,,,,,0,,,86,0
197760,note_on,0,0,1,,,,,,,,,,,,,,,0,,,87,82
197760,set_tempo,120,1,0,,,,,,,,,,,,401338,,,,,,,
197760,note_on,0,0,1,,,,,,,,,,,,,,,0,,,75,71
197760,note_on,0,0,1,,,,,,,,,,,,,,,0,,,81,71
197770,control_change,10,0,2,,,,,,,,,,,,,,,0,64,0,,
197817,control_change,47,0,2,,,,,,,,,,,,,,,0,64,127,,
197880,note_on,0,0,2,,,,,,,,,,,,,,,0,,,54,67
197880,note_on,63,0,2,,,,,,,,,,,,,,,0,,,48,0
198000,note_on,0,0,1,,,,,,,,,,,,,,,0,,,81,71
198000,note_on,0,0,1,,,,,,,,,,,,,,,0,,,87,83
198000,note_on,120,0,2,,,,,,,,,,,,,,,0,,,54,0
198000,note_on,0,0,1,,,,,,,,,,,,,,,0,,,78,71
198000,note_on,0,0,1,,,,,,,,,,,,,,,0,,,75,71
198000,note_on,0,0,1,,,,,,,,,,,,,,,0,,,78,0
198000,note_on,0,0,1,,,,,,,,,,,,,,,0,,,75,0
198000,note_on,240,0,1,,,,,,,,,,,,,,,0,,,87,0
198000,note_on,0,0,1,,,,,,,,,,,,,,,0,,,81,0
198000,note_on,0,0,2,,,,,,,,,,,,,,,0,,,57,67
198120,note_on,0,0,2,,,,,,,,,,,,,,,0,,,60,68
198120,note_on,120,0,2,,,,,,,,,,,,,,,0,,,57,0
198240,note_on,0,0,1,,,,,,,,,,,,,,,0,,,75,0
198240,note_on,0,0,1,,,,,,,,,,,,,,,0,,,88,84
198240,note_on,0,0,1,,,,,,,,,,,,,,,0,,,82,73
198240,note_on,0,0,2,,,,,,,,,,,,,,,0,,,49,76
198240,note_on,120,0,2,,,,,,,,,,,,,,,0,,,60,0
198240,note_on,0,0,1,,,,,,,,,,,,,,,0,,,79,73
198240,note_on,240,0,1,,,,,,,,,,,,,,,0,,,87,0
198240,set_tempo,480,1,0,,,,,,,,,,,,408163,,,,,,,
198240,note_on,0,0,1,,,,,,,,,,,,,,,0,,,78,0
198240,note_on,0,0,1,,,,,,,,,,,,,,,0,,,81,0
198240,note_on,0,0,1,,,,,,,,,,,,,,,0,,,76,73
198251,control_change,11,0,2,,,,,,,,,,,,,,,0,64,0,,
198297,control_change,46,0,2,,,,,,,,,,,,,,,0,64,127,,
198360,note_on,0,0,2,,,,,,,,,,,,,,,0,,,55,71
198360,note_on,63,0,2,,,,,,,,,,,,,,,0,,,49,0
198480,note_on,240,0,1,,,,,,,,,,,,,,,0,,,88,0
198480,note_on,0,0,1,,,,,,,,,,,,,,,0,,,76,0
198480,note_on,0,0,1,,,,,,,,,,,,,,,0,,,79,0
198480,note_on,0,0,1,,,,,,,,,,,,,,,0,,,76,74
198480,note_on,0,0,1,,,,,,,,,,,,,,,0,,,82,0
198480,note_on,0,0,1,,,,,,,,,,,,,,,0,,,79,74
198480,note_on,0,0,1,,,,,,,,,,,,,,,0,,,82,74
198480,note_on,0,0,1,,,,,,,,,,,,,,,0,,,88,86
198480,note_on,120,0,2,,,,,,,,,,,,,,,0,,,55,0
198480,note_on,0,0,2,,,,,,,,,,,,,,,0,,,58,72
198600,note_on,120,0,2,,,,,,,,,,,,,,,0,,,58,0
198600,note_on,0,0,2,,,,,,,,,,,,,,,0,,,61,73
198720,note_on,120,0,2,,,,,,,,,,,,,,,0,,,61,0
198720,note_on,0,0,2,,,,,,,,,,,,,,,0,,,50,79
198720,note_on,0,0,1,,,,,,,,,,,,,,,0,,,89,87
198720,note_on,0,0,1,,,,,,,,,,,,,,,0,,,83,75
198720,set_tempo,480,1,0,,,,,,,,,,,,405405,,,,,,,
198720,note_on,0,0,1,,,,,,,,,,,,,,,0,,,77,75
198720,note_on,0,0,1,,,,,,,,,,,,,,,0,,,82,0
198720,note_on,0,0,1,,,,,,,,,,,,,,,0,,,79,0
198720,note_on,0,0,1,,,,,,,,,,,,,,,0,,,76,0
198720,note_on,240,0,1,,,,,,,,,,,,,,,0,,,88,0
198720,note_on,0,0,1,,,,,,,,,,,,,,,0,,,80,75
198729,control_change,9,0,2,,,,,,,,,,,,,,,0,64,0,,
198760,control_change,31,0,2,,,,,,,,,,,,,,,0,64,127,,
198840,note_on,0,0,2,,,,,,,,,,,,,,,0,,,56,73
198840,note_on,80,0,2,,,,,,,,,,,,,,,0,,,50,0
198960,note_on,0,0,1,,,,,,,,,,,,,,,0,,,80,0
198960,note_on,0,0,2,,,,,,,,,,,,,,,0,,,59,75
198960,note_on,120,0,2,,,,,,,,,,,,,,,0,,,56,0
198960,note_on,240,0,1,,,,,,,,,,,,,,,0,,,89,0
198960,note_on,0,0,1,,,,,,,,,,,,,,,0,,,83,76
198960,note_on,0,0,1,,,,,,,,,,,,,,,0,,,77,76
198960,note_on,0,0,1,,,,,,,,,,,,,,,0,,,89,89
198960,note_on,0,0,1,,,,,,,,,,,,,,,0,,,80,76
198960,note_on,0,0,1,,,,,,,,,,,,,,,0,,,77,0
198960,note_on,0,0,1,,,,,,,,,,,,,,,0,,,83,0
199080,note_on,0,0,2,,,,,,,,,,,,,,,0,,,62,75
199080,note_on,120,0,2,,,,,,,,,,,,,,,0,,,59,0
199200,note_on,0,0,1,,,,,,,,,,,,,,,0,,,77,0
199200,note_on,240,0,1,,,,,,,,,,,,,,,0,,,89,0
199200,note_on,0,0,1,,,,,,,,,,,,,,,0,,,77,78
199200,note_on,0,0,1,,,,,,,,,,,,,,,0,,,83,0
199200,set_tempo,480,1,0,,,,,,,,,,,,406780,,,,,,,
199200,note_on,0,0,1,,,,,,,,,,,,,,,0,,,80,78
199200,note_on,0,0,1,,,,,,,,,,,,,,,0,,,89,90
199200,note_on,0,0,2,,,,,,,,,,,,,,,0,,,65,82
199200,note_on,120,0,2,,,,,,,,,,,,,,,0,,,62,0
199200,note_on,0,0,1,,,,,,,,,,,,,,,0,,,80,0
199200,note_on,0,0,1,,,,,,,,,,,,,,,0,,,83,78
199320,note_on,0,0,2,,,,,,,,,,,,,,,0,,,59,76
199320,note_on,120,0,2,,,,,,,,,,,,,,,0,,,65,0
199440,note_on,120,0,2,,,,,,,,,,,,,,,0,,,59,0
199440,note_on,0,0,2,,,,,,,,,,,,,,,0,,,62,76
199440,note_on,0,0,1,,,,,,,,,,,,,,,0,,,89,92
199440,note_on,0,0,1,,,,,,,,,,,,,,,0,,,83,79
199440,note_on,0,0,1,,,,,,,,,,,,,,,0,,,80,79
199440,note_on,0,0,1,,,,,,,,,,,,,,,0,,,77,79
199440,note_on,0,0,1,,,,,,,,,,,,,,,0,,,80,0
199440,note_on,0,0,1,,,,,,,,,,,,,,,0,,,77,0
199440,note_on,240,0,1,,,,,,,,,,,,,,,0,,,89,0
199440,note_on,0,0,1,,,,,,,,,,,,,,,0,,,83,0
199560,set_tempo,360,1,0,,,,,,,,,,,,474308,,,,,,,
199560,note_on,0,0,2,,,,,,,,,,,,,,,0,,,65,77
199560,note_on,120,0,2,,,,,,,,,,,,,,,0,,,62,0
199680,note_on,0,0,1,,,,,,,,,,,,,,,0,,,89,98
199680,note_on,0,0,1,,,,,,,,,,,,,,,0,,,83,0
199680,note_on,0,0,1,,,,,,,,,,,,,,,0,,,80,0
199680,note_on,0,0,1,,,,,,,,,,,,,,,0,,,77,0
199680,note_on,240,0,1,,,,,,,,,,,,,,,0,,,89,0
199680,control_change,0,0,2,,,,,,,,,,,,,,,0,64,0,,
199680,note_on,0,0,2,,,,,,,,,,,,,,,0,,,68,78
199680,note_on,0,0,2,,,,,,,,,,,,,,,0,,,56,65
199680,note_on,120,0,2,,,,,,,,,,,,,,,0,,,65,0
199680,note_on,0,0,1,,,,,,,,,,,,,,,0,,,86,85
199680,note_on,0,0,1,,,,,,,,,,,,,,,0,,,83,85
199680,note_on,0,0,1,,,,,,,,,,,,,,,0,,,77,85
199680,set_tempo,120,1,0,,,,,,,,,,,,444444,,,,,,,
200160,note_on,0,0,1,,,,,,,,,,,,,,,0,,,83,0
200160,note_on,480,0,1,,,,,,,,,,,,,,,0,,,89,0
200160,note_on,0,0,1,,,,,,,,,,,,,,,0,,,77,0
200160,note_on,0,0,1,,,,,,,,,,,,,,,0,,,86,0
200160,note_on,480,0,2,,,,,,,,,,,,,,,0,,,68,0
200160,note_on,0,0,2,,,,,,,,,,,,,,,0,,,56,0
200640,note_on,0,0,1,,,,,,,,,,,,,,,0,,,88,98
200640,note_on,480,0,1,,,,,,,,,,,,,,,0,,,76,85
200640,note_on,480,0,2,,,,,,,,,,,,,,,0,,,57,65
200640,note_on,0,0,2,,,,,,,,,,,,,,,0,,,69,78
200640,note_on,0,0,1,,,,,,,,,,,,,,,0,,,84,85
200640,note_on,0,0,1,,,,,,,,,,,,,,,0,,,81,85
201120,note_on,0,0,1,,,,,,,,,,,,,,,0,,,76,0
201120,note_on,480,0,2,,,,,,,,,,,,,,,0,,,69,0
201120,note_on,0,0,2,,,,,,,,,,,,,,,0,,,57,0
201120,note_on,0,0,1,,,,,,,,,,,,,,,0,,,81,0
201120,note_on,0,0,1,,,,,,,,,,,,,,,0,,,84,0
201120,note_on,480,0,1,,,,,,,,,,,,,,,0,,,88,0
201600,note_on,0,0,2,,,,,,,,,,,,,,,0,,,50,65
201600,note_on,0,0,2,,,,,,,,,,,,,,,0,,,53,78
201600,note_on,0,0,2,,,,,,,,,,,,,,,0,,,45,65
201600,note_on,0,0,1,,,,,,,,,,,,,,,0,,,84,85
201600,note_on,0,0,1,,,,,,,,,,,,,,,0,,,86,98
201600,note_on,480,0,2,,,,,,,,,,,,,,,0,,,41,65
201600,note_on,480,0,1,,,,,,,,,,,,,,,0,,,74,85
201600,note_on,0,0,1,,,,,,,,,,,,,,,0,,,81,85
202080,note_on,0,0,1,,,,,,,,,,,,,,,0,,,74,0
202080,note_on,0,0,1,,,,,,,,,,,,,,,0,,,81,0
202080,note_on,0,0,1,,,,,,,,,,,,,,,0,,,84,0
202080,note_on,480,0,2,,,,,,,,,,,,,,,0,,,53,0
202080,note_on,0,0,2,,,,,,,,,,,,,,,0,,,41,0
202080,note_on,0,0,2,,,,,,,,,,,,,,,0,,,45,0
202080,note_on,0,0,2,,,,,,,,,,,,,,,0,,,50,0
202080,note_on,480,0,1,,,,,,,,,,,,,,,0,,,86,0
202560,note_on,0,0,1,,,,,,,,,,,,,,,0,,,83,85
202560,note_on,0,0,1,,,,,,,,,,,,,,,0,,,79,85
202560,note_on,480,0,1,,,,,,,,,,,,,,,0,,,74,85
202560,note_on,0,0,1,,,,,,,,,,,,,,,0,,,86,98
202560,note_on,480,0,2,,,,,,,,,,,,,,,0,,,43,65
202560,note_on,0,0,2,,,,,,,,,,,,,,,0,,,50,65
202560,note_on,0,0,2,,,,,,,,,,,,,,,0,,,55,78
202560,note_on,0,0,2,,,,,,,,,,,,,,,0,,,47,65
203040,note_on,0,0,2,,,,,,,,,,,,,,,0,,,43,0
203040,note_on,0,0,1,,,,,,,,,,,,,,,0,,,83,0
203040,note_on,0,0,1,,,,,,,,,,,,,,,0,,,79,0
203040,note_on,0,0,1,,,,,,,,,,,,,,,0,,,74,0
203040,note_on,480,0,1,,,,,,,,,,,,,,,0,,,86,0
203040,note_on,480,0,2,,,,,,,,,,,,,,,0,,,55,0
203040,note_on,0,0,2,,,,,,,,,,,,,,,0,,,47,0
203040,note_on,0,0,2,,,,,,,,,,,,,,,0,,,50,0
203520,set_tempo,3840,1,0,,,,,,,,,,,,427046,,,,,,,
203520,note_on,480,0,2,,,,,,,,,,,,,,,0,,,36,32
203520,note_on,480,0,1,,,,,,,,,,,,,,,0,,,52,50
203577,control_change,57,0,2,,,,,,,,,,,,,,,0,64,127,,
203640,note_on,120,0,1,,,,,,,,,,,,,,,0,,,52,0
203640,note_on,0,0,2,,,,,,,,,,,,,,,0,,,48,26
203640,note_on,63,0,2,,,,,,,,,,,,,,,0,,,36,0
203640,note_on,0,0,1,,,,,,,,,,,,,,,0,,,64,32
203760,note_on,0,0,2,,,,,,,,,,,,,,,0,,,43,26
203760,note_on,120,0,2,,,,,,,,,,,,,,,0,,,48,0
203760,note_on,120,0,1,,,,,,,,,,,,,,,0,,,64,0
203760,note_on,0,0,1,,,,,,,,,,,,,,,0,,,55,32
203760,note_on,0,0,1,,,,,,,,,,,,,,,0,,,60,32
203880,note_on,0,0,2,,,,,,,,,,,,,,,0,,,48,26
203880,note_on,0,0,1,,,,,,,,,,,,,,,0,,,60,0
203880,note_on,120,0,2,,,,,,,,,,,,,,,0,,,43,0
203880,note_on,120,0,1,,,,,,,,,,,,,,,0,,,55,0
203880,note_on,0,0,1,,,,,,,,,,,,,,,0,,,64,32
204000,note_on,0,0,1,,,,,,,,,,,,,,,0,,,54,50
204000,note_on,120,0,2,,,,,,,,,,,,,,,0,,,48,0
204000,note_on,0,0,2,,,,,,,,,,,,,,,0,,,44,32
204000,note_on,120,0,1,,,,,,,,,,,,,,,0,,,64,0
204000,set_tempo,480,1,0,,,,,,,,,,,,418118,,,,,,,
204011,control_change,11,0,2,,,,,,,,,,,,,,,0,64,0,,
204051,control_change,40,0,2,,,,,,,,,,,,,,,0,64,127,,
204120,note_on,0,0,1,,,,,,,,,,,,,,,0,,,66,32
204120,note_on,0,0,2,,,,,,,,,,,,,,,0,,,51,26
204120,note_on,69,0,2,,,,,,,,,,,,,,,0,,,44,0
204120,note_on,120,0,1,,,,,,,,,,,,,,,0,,,54,0
204240,note_on,120,0,1,,,,,,,,,,,,,,,0,,,66,0
204240,note_on,0,0,2,,,,,,,,,,,,,,,0,,,48,25
204240,note_on,120,0,2,,,,,,,,,,,,,,,0,,,51,0
204240,note_on,0,0,1,,,,,,,,,,,,,,,0,,,63,32
204240,note_on,0,0,1,,,,,,,,,,,,,,,0,,,60,32
204360,note_on,120,0,2,,,,,,,,,,,,,,,0,,,48,0
204360,note_on,0,0,1,,,,,,,,,,,,,,,0,,,66,32
204360,note_on,0,0,2,,,,,,,,,,,,,,,0,,,51,25
204360,note_on,0,0,1,,,,,,,,,,,,,,,0,,,60,0
204360,note_on,120,0,1,,,,,,,,,,,,,,,0,,,63,0
204480,note_on,0,0,2,,,,,,,,,,,,,,,0,,,43,32
204480,note_on,0,0,1,,,,,,,,,,,,,,,0,,,55,51
204480,note_on,120,0,1,,,,,,,,,,,,,,,0,,,66,0
204480,note_on,120,0,2,,,,,,,,,,,,,,,0,,,51,0
204490,control_change,10,0,2,,,,,,,,,,,,,,,0,64,0,,
204543,control_change,53,0,2,,,,,,,,,,,,,,,0,64,127,,
204600,note_on,0,0,2,,,,,,,,,,,,,,,0,,,52,26
204600,note_on,57,0,2,,,,,,,,,,,,,,,0,,,43,0
204600,note_on,120,0,1,,,,,,,,,,,,,,,0,,,55,0
204600,note_on,0,0,1,,,,,,,,,,,,,,,0,,,67,32
204720,note_on,0,0,2,,,,,,,,,,,,,,,0,,,48,26
204720,note_on,120,0,2,,,,,,,,,,,,,,,0,,,52,0
204720,note_on,0,0,1,,,,,,,,,,,,,,,0,,,60,32
204720,note_on,120,0,1,,,,,,,,,,,,,,,0,,,67,0
204720,note_on,0,0,1,,,,,,,,,,,,,,,0,,,64,32
204840,note_on,0,0,2,,,,,,,,,,,,,,,0,,,52,27
204840,note_on,0,0,1,,,,,,,,,,,,,,,0,,,60,0
204840,note_on,0,0,1,,,,,,,,,,,,,,,0,,,67,32
204840,note_on,120,0,1,,,,,,,,,,,,,,,0,,,64,0
204840,note_on,120,0,2,,,,,,,,,,,,,,,0,,,48,0
204960,note_on,120,0,1,,,,,,,,,,,,,,,0,,,67,0
204960,note_on,0,0,1,,,,,,,,,,,,,,,0,,,55,50
204960,set_tempo,960,1,0,,,,,,,,,,,,421053,,,,,,,
204960,note_on,120,0,2,,,,,,,,,,,,,,,0,,,52,0
204960,note_on,0,0,2,,,,,,,,,,,,,,,0,,,43,33
204970,control_change,10,0,2,,,,,,,,,,,,,,,0,64,0,,
205029,control_change,59,0,2,,,,,,,,,,,,,,,0,64,127,,
205080,note_on,0,0,2,,,,,,,,,,,,,,,0,,,53,27
205080,note_on,120,0,1,,,,,,,,,,,,,,,0,,,55,0
205080,note_on,0,0,1,,,,,,,,,,,,,,,0,,,67,33
205080,note_on,51,0,2,,,,,,,,,,,,,,,0,,,43,0
205200,note_on,120,0,2,,,,,,,,,,,,,,,0,,,53,0
205200,note_on,0,0,2,,,,,,,,,,,,,,,0,,,50,27
205200,note_on,0,0,1,,,,,,,,,,,,,,,0,,,59,33
205200,note_on,120,0,1,,,,,,,,,,,,,,,0,,,67,0
205200,note_on,0,0,1,,,,,,,,,,,,,,,0,,,62,33
205320,note_on,0,0,2,,,,,,,,,,,,,,,0,,,53,27
205320,note_on,0,0,1,,,,,,,,,,,,,,,0,,,67,33
205320,note_on,120,0,1,,,,,,,,,,,,,,,0,,,62,0
205320,note_on,0,0,1,,,,,,,,,,,,,,,0,,,59,0
205320,note_on,120,0,2,,,,,,,,,,,,,,,0,,,50,0
205440,note_on,0,0,2,,,,,,,,,,,,,,,0,,,48,33
205440,control_change,0,0,2,,,,,,,,,,,,,,,0,64,0,,
205440,note_on,120,0,2,,,,,,,,,,,,,,,0,,,53,0
205440,note_on,0,0,1,,,,,,,,,,,,,,,0,,,60,59
205440,note_on,120,0,1,,,,,,,,,,,,,,,0,,,67,0
205440,set_tempo,480,1,0,,,,,,,,,,,,409556,,,,,,,
205497,control_change,57,0,2,,,,,,,,,,,,,,,0,64,127,,
205560,note_on,63,0,2,,,,,,,,,,,,,,,0,,,48,0
205560,note_on,0,0,1,,,,,,,,,,,,,,,0,,,72,33
205560,note_on,120,0,1,,,,,,,,,,,,,,,0,,,60,0
205560,note_on,0,0,2,,,,,,,,,,,,,,,0,,,55,27
205680,note_on,0,0,2,,,,,,,,,,,,,,,0,,,52,27
205680,note_on,120,0,2,,,,,,,,,,,,,,,0,,,55,0
205680,note_on,120,0,1,,,,,,,,,,,,,,,0,,,72,0
205680,note_on,0,0,1,,,,,,,,,,,,,,,0,,,67,33
205680,note_on,0,0,1,,,,,,,,,,,,,,,0,,,64,33
205800,note_on,120,0,1,,,,,,,,,,,,,,,0,,,64,0
205800,note_on,0,0,1,,,,,,,,,,,,,,,0,,,67,0
205800,note_on,0,0,1,,,,,,,,,,,,,,,0,,,72,33
205800,note_on,120,0,2,,,,,,,,,,,,,,,0,,,52,0
205800,note_on,0,0,2,,,,,,,,,,,,,,,0,,,55,27
205920,note_on,120,0,2,,,,,,,,,,,,,,,0,,,55,0
205920,note_on,0,0,2,,,,,,,,,,,,,,,0,,,44,33
205920,note_on,0,0,1,,,,,,,,,,,,,,,0,,,60,55
205920,note_on,120,0,1,,,,,,,,,,,,,,,0,,,72,0
205931,control_change,11,0,2,,,,,,,,,,,,,,,0,64,0,,
205971,control_change,40,0,2,,,,,,,,,,,,,,,0,64,127,,
206040,note_on,120,0,1,,,,,,,,,,,,,,,0,,,60,0
206040,note_on,0,0,1,,,,,,,,,,,,,,,0,,,72,33
206040,note_on,0,0,2,,,,,,,,,,,,,,,0,,,54,27
206040,note_on,69,0,2,,,,,,,,,,,,,,,0,,,44,0
206160,note_on,120,0,2,,,,,,,,,,,,,,,0,,,54,0
206160,note_on,120,0,1,,,,,,,,,,,,,,,0,,,72,0
206160,note_on,0,0,1,,,,,,,,,,,,,,,0,,,63,33
206160,note_on,0,0,1,,,,,,,,,,,,,,,0,,,66,33
206160,note_on,0,0,2,,,,,,,,,,,,,,,0,,,51,26
206280,note_on,0,0,2,,,,,,,,,,,,,,,0,,,54,26
206280,note_on,120,0,2,,,,,,,,,,,,,,,0,,,51,0
206280,note_on,0,0,1,,,,,,,,,,,,,,,0,,,72,34
206280,note_on,0,0,1,,,,,,,,,,,,,,,0,,,63,0
206280,note_on,120,0,1,,,,,,,,,,,,,,,0,,,66,0
206400,note_on,0,0,2,,,,,,,,,,,,,,,0,,,43,34
206400,note_on,120,0,2,,,,,,,,,,,,,,,0,,,54,0
206400,note_on,0,0,1,,,,,,,,,,,,,,,0,,,60,55
206400,note_on,120,0,1,,,,,,,,,,,,,,,0,,,72,0
206410,control_change,10,0,2,,,,,,,,,,,,,,,0,64,0,,
206455,control_change,45,0,2,,,,,,,,,,,,,,,0,64,127,,
206520,note_on,0,0,1,,,,,,,,,,,,,,,0,,,72,34
206520,note_on,65,0,2,,,,,,,,,,,,,,,0,,,43,0
206520,note_on,120,0,1,,,,,,,,,,,,,,,0,,,60,0
206520,note_on,0,0,2,,,,,,,,,,,,,,,0,,,55,27
206640,note_on,0,0,2,,,,,,,,,,,,,,,0,,,48,28
206640,note_on,0,0,2,,,,,,,,,,,,,,,0,,,52,28
206640,note_on,120,0,2,,,,,,,,,,,,,,,0,,,55,0
206640,note_on,0,0,1,,,,,,,,,,,,,,,0,,,64,34
206640,note_on,120,0,1,,,,,,,,,,,,,,,0,,,72,0
206640,note_on,0,0,1,,,,,,,,,,,,,,,0,,,67,34
206760,note_on,120,0,1,,,,,,,,,,,,,,,0,,,67,0
206760,note_on,0,0,1,,,,,,,,,,,,,,,0,,,72,34
206760,note_on,0,0,1,,,,,,,,,,,,,,,0,,,64,0
206760,note_on,0,0,2,,,,,,,,,,,,,,,0,,,55,29
206760,note_on,0,0,2,,,,,,,,,,,,,,,0,,,48,0
206760,note_on,120,0,2,,,,,,,,,,,,,,,0,,,52,0
206880,note_on,0,0,2,,,,,,,,,,,,,,,0,,,43,35
206880,set_tempo,1440,1,0,,,,,,,,,,,,416667,,,,,,,
206880,note_on,0,0,1,,,,,,,,,,,,,,,0,,,59,53
206880,note_on,120,0,1,,,,,,,,,,,,,,,0,,,72,0
206880,note_on,120,0,2,,,,,,,,,,,,,,,0,,,55,0
206890,control_change,10,0,2,,,,,,,,,,,,,,,0,64,0,,
206949,control_change,59,0,2,,,,,,,,,,,,,,,0,64,127,,
207000,note_on,0,0,1,,,,,,,,,,,,,,,0,,,71,34
207000,note_on,51,0,2,,,,,,,,,,,,,,,0,,,43,0
207000,note_on,120,0,1,,,,,,,,,,,,,,,0,,,59,0
207000,note_on,0,0,2,,,,,,,,,,,,,,,0,,,55,28
207120,note_on,0,0,1,,,,,,,,,,,,,,,0,,,67,34
207120,note_on,120,0,1,,,,,,,,,,,,,,,0,,,71,0
207120,note_on,0,0,2,,,,,,,,,,,,,,,0,,,50,28
207120,note_on,0,0,1,,,,,,,,,,,,,,,0,,,62,34
207120,note_on,120,0,2,,,,,,,,,,,,,,,0,,,55,0
207120,note_on,0,0,2,,,,,,,,,,,,,,,0,,,47,28
207240,note_on,0,0,1,,,,,,,,,,,,,,,0,,,71,34
207240,note_on,0,0,1,,,,,,,,,,,,,,,0,,,62,0
207240,note_on,120,0,1,,,,,,,,,,,,,,,0,,,67,0
207240,note_on,120,0,2,,,,,,,,,,,,,,,0,,,50,0
207240,note_on,0,0,2,,,,,,,,,,,,,,,0,,,47,0
207240,note_on,0,0,2,,,,,,,,,,,,,,,0,,,55,28
207360,note_on,120,0,2,,,,,,,,,,,,,,,0,,,55,0
207360,note_on,0,0,1,,,,,,,,,,,,,,,0,,,64,61
207360,note_on,120,0,1,,,,,,,,,,,,,,,0,,,71,0
207360,note_on,0,0,2,,,,,,,,,,,,,,,0,,,48,41
207360,control_change,0,0,2,,,,,,,,,,,,,,,0,64,0,,
207360,set_tempo,480,1,0,,,,,,,,,,,,421053,,,,,,,
207417,control_change,57,0,2,,,,,,,,,,,,,,,0,64,127,,
207480,note_on,0,0,2,,,,,,,,,,,,,,,0,,,60,33
207480,note_on,120,0,1,,,,,,,,,,,,,,,0,,,64,0
207480,note_on,63,0,2,,,,,,,,,,,,,,,0,,,48,0
207480,note_on,0,0,1,,,,,,,,,,,,,,,0,,,76,41
207600,note_on,0,0,2,,,,,,,,,,,,,,,0,,,55,33
207600,note_on,120,0,2,,,,,,,,,,,,,,,0,,,60,0
207600,note_on,120,0,1,,,,,,,,,,,,,,,0,,,76,0
207600,note_on,0,0,1,,,,,,,,,,,,,,,0,,,67,41
207600,note_on,0,0,1,,,,,,,,,,,,,,,0,,,72,41
207720,note_on,0,0,2,,,,,,,,,,,,,,,0,,,60,33
207720,note_on,120,0,2,,,,,,,,,,,,,,,0,,,55,0
207720,note_on,0,0,1,,,,,,,,,,,,,,,0,,,76,41
207720,note_on,0,0,1,,,,,,,,,,,,,,,0,,,72,0
207720,note_on,120,0,1,,,,,,,,,,,,,,,0,,,67,0
207840,set_tempo,480,1,0,,,,,,,,,,,,410959,,,,,,,
207840,note_on,0,0,2,,,,,,,,,,,,,,,0,,,56,42
207840,note_on,0,0,1,,,,,,,,,,,,,,,0,,,66,63
207840,note_on,120,0,2,,,,,,,,,,,,,,,0,,,60,0
207840,note_on,120,0,1,,,,,,,,,,,,,,,0,,,76,0
207851,control_change,11,0,2,,,,,,,,,,,,,,,0,64,0,,
207891,control_change,40,0,2,,,,,,,,,,,,,,,0,64,127,,
207960,note_on,0,0,1,,,,,,,,,,,,,,,0,,,78,42
207960,note_on,0,0,2,,,,,,,,,,,,,,,0,,,63,34
207960,note_on,69,0,2,,,,,,,,,,,,,,,0,,,56,0
207960,note_on,120,0,1,,,,,,,,,,,,,,,0,,,66,0
208080,note_on,0,0,2,,,,,,,,,,,,,,,0,,,60,33
208080,note_on,120,0,1,,,,,,,,,,,,,,,0,,,78,0
208080,note_on,120,0,2,,,,,,,,,,,,,,,0,,,63,0
208080,note_on,0,0,1,,,,,,,,,,,,,,,0,,,72,42
208080,note_on,0,0,1,,,,,,,,,,,,,,,0,,,75,42
208200,note_on,120,0,1,,,,,,,,,,,,,,,0,,,75,0
208200,note_on,0,0,1,,,,,,,,,,,,,,,0,,,72,0
208200,note_on,0,0,1,,,,,,,,,,,,,,,0,,,78,42
208200,note_on,120,0,2,,,,,,,,,,,,,,,0,,,60,0
208200,note_on,0,0,2,,,,,,,,,,,,,,,0,,,63,33
208320,note_on,120,0,1,,,,,,,,,,,,,,,0,,,78,0
208320,note_on,0,0,1,,,,,,,,,,,,,,,0,,,67,66
208320,note_on,120,0,2,,,,,,,,,,,,,,,0,,,63,0
208320,note_on,0,0,2,,,,,,,,,,,,,,,0,,,55,43
208330,control_change,10,0,2,,,,,,,,,,,,,,,0,64,0,,
208383,control_change,53,0,2,,,,,,,,,,,,,,,0,64,127,,
208440,note_on,120,0,1,,,,,,,,,,,,,,,0,,,67,0
208440,note_on,0,0,2,,,,,,,,,,,,,,,0,,,64,35
208440,note_on,57,0,2,,,,,,,,,,,,,,,0,,,55,0
208440,note_on,0,0,1,,,,,,,,,,,,,,,0,,,79,43
208560,note_on,0,0,1,,,,,,,,,,,,,,,0,,,76,43
208560,note_on,0,0,1,,,,,,,,,,,,,,,0,,,72,43
208560,note_on,120,0,1,,,,,,,,,,,,,,,0,,,79,0
208560,note_on,120,0,2,,,,,,,,,,,,,,,0,,,64,0
208560,note_on,0,0,2,,,,,,,,,,,,,,,0,,,60,35
208680,note_on,0,0,2,,,,,,,,,,,,,,,0,,,64,37
208680,note_on,120,0,2,,,,,,,,,,,,,,,0,,,60,0
208680,note_on,120,0,1,,,,,,,,,,,,,,,0,,,76,0
208680,note_on,0,0,1,,,,,,,,,,,,,,,0,,,72,0
208680,note_on,0,0,1,,,,,,,,,,,,,,,0,,,79,44
208800,note_on,120,0,1,,,,,,,,,,,,,,,0,,,79,0
208800,note_on,0,0,1,,,,,,,,,,,,,,,0,,,67,67
208800,note_on,0,0,2,,,,,,,,,,,,,,,0,,,55,46
208800,set_tempo,960,1,0,,,,,,,,,,,,419580,,,,,,,
208800,note_on,120,0,2,,,,,,,,,,,,,,,0,,,64,0
208810,control_change,10,0,2,,,,,,,,,,,,,,,0,64,0,,
208869,control_change,59,0,2,,,,,,,,,,,,,,,0,64,127,,
208920,note_on,0,0,1,,,,,,,,,,,,,,,0,,,79,44
208920,note_on,51,0,2,,,,,,,,,,,,,,,0,,,55,0
208920,note_on,120,0,1,,,,,,,,,,,,,,,0,,,67,0
208920,note_on,0,0,2,,,,,,,,,,,,,,,0,,,65,36
209040,note_on,120,0,1,,,,,,,,,,,,,,,0,,,79,0
209040,note_on,0,0,1,,,,,,,,,,,,,,,0,,,71,45
209040,note_on,0,0,1,,,,,,,,,,,,,,,0,,,74,45
209040,note_on,0,0,2,,,,,,,,,,,,,,,0,,,62,37
209040,note_on,120,0,2,,,,,,,,,,,,,,,0,,,65,0
209160,note_on,0,0,2,,,,,,,,,,,,,,,0,,,65,37
209160,note_on,120,0,2,,,,,,,,,,,,,,,0,,,62,0
209160,note_on,0,0,1,,,,,,,,,,,,,,,0,,,71,0
209160,note_on,0,0,1,,,,,,,,,,,,,,,0,,,79,46
209160,note_on,120,0,1,,,,,,,,,,,,,,,0,,,74,0
209280,note_on,120,0,2,,,,,,,,,,,,,,,0,,,65,0
209280,control_change,0,0,2,,,,,,,,,,,,,,,0,64,0,,
209280,note_on,0,0,2,,,,,,,,,,,,,,,0,,,60,47
209280,set_tempo,480,1,0,,,,,,,,,,,,410959,,,,,,,
209280,note_on,0,0,1,,,,,,,,,,,,,,,0,,,72,73
209280,note_on,120,0,1,,,,,,,,,,,,,,,0,,,79,0
209337,control_change,57,0,2,,,,,,,,,,,,,,,0,64,127,,
209400,note_on,0,0,2,,,,,,,,,,,,,,,0,,,67,37
209400,note_on,63,0,2,,,,,,,,,,,,,,,0,,,60,0
209400,note_on,0,0,1,,,,,,,,,,,,,,,0,,,84,47
209400,note_on,120,0,1,,,,,,,,,,,,,,,0,,,72,0
209520,note_on,120,0,1,,,,,,,,,,,,,,,0,,,84,0
209520,note_on,0,0,2,,,,,,,,,,,,,,,0,,,64,38
209520,note_on,120,0,2,,,,,,,,,,,,,,,0,,,67,0
209520,note_on,0,0,1,,,,,,,,,,,,,,,0,,,79,47
209520,note_on,0,0,1,,,,,,,,,,,,,,,0,,,76,47
209640,note_on,120,0,2,,,,,,,,,,,,,,,0,,,64,0
209640,note_on,120,0,1,,,,,,,,,,,,,,,0,,,76,0
209640,note_on,0,0,1,,,,,,,,,,,,,,,0,,,79,0
209640,note_on,0,0,1,,,,,,,,,,,,,,,0,,,84,47
209640,note_on,0,0,2,,,,,,,,,,,,,,,0,,,67,38
209760,note_on,0,0,2,,,,,,,,,,,,,,,0,,,56,48
209760,note_on,0,0,1,,,,,,,,,,,,,,,0,,,72,72
209760,note_on,120,0,2,,,,,,,,,,,,,,,0,,,67,0
209760,note_on,120,0,1,,,,,,,,,,,,,,,0,,,84,0
209771,control_change,11,0,2,,,,,,,,,,,,,,,0,64,0,,
209811,control_change,40,0,2,,,,,,,,,,,,,,,0,64,127,,
209880,note_on,69,0,2,,,,,,,,,,,,,,,0,,,56,0
209880,note_on,0,0,1,,,,,,,,,,,,,,,0,,,84,48
209880,note_on,120,0,1,,,,,,,,,,,,,,,0,,,72,0
209880,note_on,0,0,2,,,,,,,,,,,,,,,0,,,66,39
210000,note_on,0,0,1,,,,,,,,,,,,,,,0,,,78,48
210000,note_on,120,0,1,,,,,,,,,,,,,,,0,,,84,0
210000,note_on,0,0,2,,,,,,,,,,,,,,,0,,,63,38
210000,note_on,120,0,2,,,,,,,,,,,,,,,0,,,66,0
210000,note_on,0,0,1,,,,,,,,,,,,,,,0,,,75,48
210120,note_on,120,0,2,,,,,,,,,,,,,,,0,,,63,0
210120,note_on,0,0,1,,,,,,,,,,,,,,,0,,,84,48
210120,note_on,0,0,1,,,,,,,,,,,,,,,0,,,75,0
210120,note_on,120,0,1,,,,,,,,,,,,,,,0,,,78,0
210120,note_on,0,0,2,,,,,,,,,,,,,,,0,,,66,38
210240,note_on,0,0,1,,,,,,,,,,,,,,,0,,,72,74
210240,note_on,120,0,2,,,,,,,,,,,,,,,0,,,66,0
210240,note_on,120,0,1,,,,,,,,,,,,,,,0,,,84,0
210240,note_on,0,0,2,,,,,,,,,,,,,,,0,,,55,50
210250,control_change,10,0,2,,,,,,,,,,,,,,,0,64,0,,
210295,control_change,45,0,2,,,,,,,,,,,,,,,0,64,127,,
210360,note_on,120,0,1,,,,,,,,,,,,,,,0,,,72,0
210360,note_on,0,0,2,,,,,,,,,,,,,,,0,,,67,40
210360,note_on,0,0,1,,,,,,,,,,,,,,,0,,,84,49
210360,note_on,65,0,2,,,,,,,,,,,,,,,0,,,55,0
210480,note_on,120,0,2,,,,,,,,,,,,,,,0,,,67,0
210480,note_on,0,0,2,,,,,,,,,,,,,,,0,,,64,40
210480,note_on,0,0,1,,,,,,,,,,,,,,,0,,,79,49
210480,note_on,0,0,1,,,,,,,,,,,,,,,0,,,76,49
210480,note_on,120,0,1,,,,,,,,,,,,,,,0,,,84,0
210480,note_on,0,0,2,,,,,,,,,,,,,,,0,,,60,40
210600,note_on,120,0,2,,,,,,,,,,,,,,,0,,,64,0
210600,note_on,0,0,2,,,,,,,,,,,,,,,0,,,67,42
210600,note_on,0,0,1,,,,,,,,,,,,,,,0,,,84,50
210600,note_on,0,0,1,,,,,,,,,,,,,,,0,,,76,0
210600,note_on,120,0,1,,,,,,,,,,,,,,,0,,,79,0
210600,note_on,0,0,2,,,,,,,,,,,,,,,0,,,60,0
210720,note_on,120,0,2,,,,,,,,,,,,,,,0,,,67,0
210720,set_tempo,1440,1,0,,,,,,,,,,,,418118,,,,,,,
210720,note_on,0,0,1,,,,,,,,,,,,,,,0,,,71,69
210720,note_on,120,0,1,,,,,,,,,,,,,,,0,,,84,0
210720,note_on,0,0,2,,,,,,,,,,,,,,,0,,,55,52
210730,control_change,10,0,2,,,,,,,,,,,,,,,0,64,0,,
210789,control_change,59,0,2,,,,,,,,,,,,,,,0,64,127,,
210840,note_on,51,0,2,,,,,,,,,,,,,,,0,,,55,0
210840,note_on,120,0,1,,,,,,,,,,,,,,,0,,,71,0
210840,note_on,0,0,2,,,,,,,,,,,,,,,0,,,67,41
210840,note_on,0,0,1,,,,,,,,,,,,,,,0,,,83,50
210960,note_on,120,0,2,,,,,,,,,,,,,,,0,,,67,0
210960,note_on,0,0,2,,,,,,,,,,,,,,,0,,,62,42
210960,note_on,0,0,2,,,,,,,,,,,,,,,0,,,59,42
210960,note_on,0,0,1,,,,,,,,,,,,,,,0,,,79,51
210960,note_on,0,0,1,,,,,,,,,,,,,,,0,,,74,51
210960,note_on,120,0,1,,,,,,,,,,,,,,,0,,,83,0
211080,note_on,0,0,1,,,,,,,,,,,,,,,0,,,74,0
211080,note_on,0,0,1,,,,,,,,,,,,,,,0,,,83,52
211080,note_on,120,0,2,,,,,,,,,,,,,,,0,,,62,0
211080,note_on,0,0,2,,,,,,,,,,,,,,,0,,,59,0
211080,note_on,0,0,2,,,,,,,,,,,,,,,0,,,67,42
211080,note_on,120,0,1,,,,,,,,,,,,,,,0,,,79,0
211200,set_tempo,480,1,0,,,,,,,,,,,,412371,,,,,,,
211200,note_on,120,0,1,,,,,,,,,,,,,,,0,,,83,0
211200,note_on,0,0,1,,,,,,,,,,,,,,,0,,,76,71
211200,note_on,120,0,2,,,,,,,,,,,,,,,0,,,67,0
211200,note_on,0,0,2,,,,,,,,,,,,,,,0,,,60,49
211200,control_change,0,0,2,,,,,,,,,,,,,,,0,64,0,,
211257,control_change,57,0,2,,,,,,,,,,,,,,,0,64,127,,
211320,note_on,120,0,1,,,,,,,,,,,,,,,0,,,76,0
211320,note_on,0,0,1,,,,,,,,,,,,,,,0,,,88,49
211320,note_on,0,0,2,,,,,,,,,,,,,,,0,,,72,39
211320,note_on,63,0,2,,,,,,,,,,,,,,,0,,,60,0
211440,note_on,120,0,2,,,,,,,,,,,,,,,0,,,72,0
211440,note_on,120,0,1,,,,,,,,,,,,,,,0,,,88,0
211440,note_on,0,0,1,,,,,,,,,,,,,,,0,,,84,49
211440,note_on,0,0,2,,,,,,,,,,,,,,,0,,,67,39
211440,note_on,0,0,1,,,,,,,,,,,,,,,0,,,79,49
211560,note_on,120,0,2,,,,,,,,,,,,,,,0,,,67,0
211560,note_on,0,0,2,,,,,,,,,,,,,,,0,,,72,40
211560,note_on,120,0,1,,,,,,,,,,,,,,,0,,,79,0
211560,note_on,0,0,1,,,,,,,,,,,,,,,0,,,88,50
211560,note_on,0,0,1,,,,,,,,,,,,,,,0,,,84,0
211680,note_on,0,0,1,,,,,,,,,,,,,,,0,,,78,72
211680,note_on,120,0,1,,,,,,,,,,,,,,,0,,,88,0
211680,note_on,0,0,2,,,,,,,,,,,,,,,0,,,68,50
211680,note_on,120,0,2,,,,,,,,,,,,,,,0,,,72,0
211680,set_tempo,480,1,0,,,,,,,,,,,,405405,,,,,,,
211691,control_change,11,0,2,,,,,,,,,,,,,,,0,64,0,,
211731,control_change,40,0,2,,,,,,,,,,,,,,,0,64,127,,
211800,note_on,120,0,1,,,,,,,,,,,,,,,0,,,78,0
211800,note_on,0,0,2,,,,,,,,,,,,,,,0,,,75,40
211800,note_on,69,0,2,,,,,,,,,,,,,,,0,,,68,0
211800,note_on,0,0,1,,,,,,,,,,,,,,,0,,,90,50
211920,note_on,0,0,2,,,,,,,,,,,,,,,0,,,72,40
211920,note_on,120,0,2,,,,,,,,,,,,,,,0,,,75,0
211920,note_on,120,0,1,,,,,,,,,,,,,,,0,,,90,0
211920,note_on,0,0,1,,,,,,,,,,,,,,,0,,,87,50
211920,note_on,0,0,1,,,,,,,,,,,,,,,0,,,84,50
212040,note_on,0,0,2,,,,,,,,,,,,,,,0,,,75,40
212040,note_on,0,0,1,,,,,,,,,,,,,,,0,,,84,0
212040,note_on,120,0,2,,,,,,,,,,,,,,,0,,,72,0
212040,note_on,120,0,1,,,,,,,,,,,,,,,0,,,87,0
212040,note_on,0,0,1,,,,,,,,,,,,,,,0,,,90,50
212160,note_on,0,0,2,,,,,,,,,,,,,,,0,,,67,52
212160,note_on,120,0,1,,,,,,,,,,,,,,,0,,,90,0
212160,note_on,0,0,1,,,,,,,,,,,,,,,0,,,79,74
212160,note_on,120,0,2,,,,,,,,,,,,,,,0,,,75,0
212170,control_change,10,0,2,,,,,,,,,,,,,,,0,64,0,,
212223,control_change,53,0,2,,,,,,,,,,,,,,,0,64,127,,
212280,note_on,0,0,2,,,,,,,,,,,,,,,0,,,76,42
212280,note_on,0,0,1,,,,,,,,,,,,,,,0,,,91,51
212280,note_on,120,0,1,,,,,,,,,,,,,,,0,,,79,0
212280,note_on,57,0,2,,,,,,,,,,,,,,,0,,,67,0
212400,note_on,0,0,1,,,,,,,,,,,,,,,0,,,84,51
212400,note_on,120,0,2,,,,,,,,,,,,,,,0,,,76,0
212400,note_on,0,0,2,,,,,,,,,,,,,,,0,,,72,42
212400,note_on,120,0,1,,,,,,,,,,,,,,,0,,,91,0
212400,note_on,0,0,1,,,,,,,,,,,,,,,0,,,88,51
212520,note_on,120,0,2,,,,,,,,,,,,,,,0,,,72,0
212520,note_on,0,0,2,,,,,,,,,,,,,,,0,,,76,44
212520,note_on,0,0,1,,,,,,,,,,,,,,,0,,,84,0
212520,note_on,120,0,1,,,,,,,,,,,,,,,0,,,88,0
212520,note_on,0,0,1,,,,,,,,,,,,,,,0,,,91,52
212640,note_on,120,0,1,,,,,,,,,,,,,,,0,,,91,0
212640,note_on,120,0,2,,,,,,,,,,,,,,,0,,,76,0
212640,note_on,0,0,1,,,,,,,,,,,,,,,0,,,79,75
212640,set_tempo,960,1,0,,,,,,,,,,,,412371,,,,,,,
212640,note_on,0,0,2,,,,,,,,,,,,,,,0,,,67,55
212650,control_change,10,0,2,,,,,,,,,,,,,,,0,64,0,,
212709,control_change,59,0,2,,,,,,,,,,,,,,,0,64,127,,
212760,note_on,0,0,2,,,,,,,,,,,,,,,0,,,74,43
212760,note_on,51,0,2,,,,,,,,,,,,,,,0,,,67,0
212760,note_on,120,0,1,,,,,,,,,,,,,,,0,,,79,0
212760,note_on,0,0,1,,,,,,,,,,,,,,,0,,,91,52
212880,note_on,120,0,2,,,,,,,,,,,,,,,0,,,74,0
212880,note_on,120,0,1,,,,,,,,,,,,,,,0,,,91,0
212880,note_on,0,0,1,,,,,,,,,,,,,,,0,,,83,53
212880,note_on,0,0,1,,,,,,,,,,,,,,,0,,,86,53
212880,note_on,0,0,2,,,,,,,,,,,,,,,0,,,71,43
213000,note_on,120,0,1,,,,,,,,,,,,,,,0,,,86,0
213000,note_on,0,0,1,,,,,,,,,,,,,,,0,,,91,54
213000,note_on,0,0,2,,,,,,,,,,,,,,,0,,,74,44
213000,note_on,120,0,2,,,,,,,,,,,,,,,0,,,71,0
213000,note_on,0,0,1,,,,,,,,,,,,,,,0,,,83,0
213120,note_on,120,0,2,,,,,,,,,,,,,,,0,,,74,0
213120,control_change,0,0,2,,,,,,,,,,,,,,,0,64,0,,
213120,note_on,0,0,2,,,,,,,,,,,,,,,0,,,55,60
213120,set_tempo,480,1,0,,,,,,,,,,,,402685,,,,,,,
213120,note_on,120,0,1,,,,,,,,,,,,,,,0,,,91,0
213120,note_on,0,0,1,,,,,,,,,,,,,,,0,,,79,79
213177,control_change,57,0,2,,,,,,,,,,,,,,,0,64,127,,
213240,note_on,0,0,2,,,,,,,,,,,,,,,0,,,67,48
213240,note_on,63,0,2,,,,,,,,,,,,,,,0,,,55,0
213240,note_on,0,0,1,,,,,,,,,,,,,,,0,,,91,60
213240,note_on,120,0,1,,,,,,,,,,,,,,,0,,,79,0
213360,note_on,0,0,1,,,,,,,,,,,,,,,0,,,84,61
213360,note_on,0,0,1,,,,,,,,,,,,,,,0,,,88,61
213360,note_on,120,0,1,,,,,,,,,,,,,,,0,,,91,0
213360,note_on,0,0,2,,,,,,,,,,,,,,,0,,,64,48
213360,note_on,0,0,2,,,,,,,,,,,,,,,0,,,60,48
213360,note_on,120,0,2,,,,,,,,,,,,,,,0,,,67,0
213480,note_on,120,0,1,,,,,,,,,,,,,,,0,,,84,0
213480,note_on,0,0,1,,,,,,,,,,,,,,,0,,,91,62
213480,note_on,0,0,1,,,,,,,,,,,,,,,0,,,88,0
213480,note_on,120,0,2,,,,,,,,,,,,,,,0,,,64,0
213480,note_on,0,0,2,,,,,,,,,,,,,,,0,,,60,0
213480,note_on,0,0,2,,,,,,,,,,,,,,,0,,,67,49
213600,note_on,120,0,2,,,,,,,,,,,,,,,0,,,67,0
213600,note_on,0,0,1,,,,,,,,,,,,,,,0,,,79,84
213600,note_on,120,0,1,,,,,,,,,,,,,,,0,,,91,0
213600,set_tempo,480,1,0,,,,,,,,,,,,396040,,,,,,,
213600,note_on,0,0,2,,,,,,,,,,,,,,,0,,,55,62
213611,control_change,11,0,2,,,,,,,,,,,,,,,0,64,0,,
213651,control_change,40,0,2,,,,,,,,,,,,,,,0,64,127,,
213720,note_on,69,0,2,,,,,,,,,,,,,,,0,,,55,0
213720,note_on,120,0,1,,,,,,,,,,,,,,,0,,,79,0
213720,note_on,0,0,1,,,,,,,,,,,,,,,0,,,91,63
213720,note_on,0,0,2,,,,,,,,,,,,,,,0,,,67,50
213840,note_on,120,0,1,,,,,,,,,,,,,,,0,,,91,0
213840,note_on,0,0,1,,,,,,,,,,,,,,,0,,,83,63
213840,note_on,0,0,1,,,,,,,,,,,,,,,0,,,86,63
213840,note_on,120,0,2,,,,,,,,,,,,,,,0,,,67,0
213840,note_on,0,0,2,,,,,,,,,,,,,,,0,,,62,49
213840,note_on,0,0,2,,,,,,,,,,,,,,,0,,,59,49
213960,note_on,120,0,1,,,,,,,,,,,,,,,0,,,86,0
213960,note_on,0,0,1,,,,,,,,,,,,,,,0,,,83,0
213960,note_on,0,0,1,,,,,,,,,,,,,,,0,,,91,64
213960,note_on,0,0,2,,,,,,,,,,,,,,,0,,,67,52
213960,note_on,0,0,2,,,,,,,,,,,,,,,0,,,59,0
213960,note_on,120,0,2,,,,,,,,,,,,,,,0,,,62,0
214080,note_on,0,0,2,,,,,,,,,,,,,,,0,,,43,67
214080,note_on,120,0,1,,,,,,,,,,,,,,,0,,,91,0
214080,note_on,0,0,1,,,,,,,,,,,,,,,0,,,79,90
214080,note_on,120,0,2,,,,,,,,,,,,,,,0,,,67,0
214090,control_change,10,0,2,,,,,,,,,,,,,,,0,64,0,,
214135,control_change,45,0,2,,,,,,,,,,,,,,,0,64,127,,
214200,note_on,0,0,1,,,,,,,,,,,,,,,0,,,91,66
214200,note_on,120,0,1,,,,,,,,,,,,,,,0,,,79,0
214200,note_on,65,0,2,,,,,,,,,,,,,,,0,,,43,0
214200,note_on,0,0,2,,,,,,,,,,,,,,,0,,,55,55
214320,note_on,0,0,1,,,,,,,,,,,,,,,0,,,84,67
214320,note_on,0,0,1,,,,,,,,,,,,,,,0,,,88,67
214320,note_on,120,0,2,,,,,,,,,,,,,,,0,,,55,0
214320,note_on,0,0,2,,,,,,,,,,,,,,,0,,,48,55
214320,note_on,0,0,2,,,,,,,,,,,,,,,0,,,52,55
214320,note_on,120,0,1,,,,,,,,,,,,,,,0,,,91,0
214440,note_on,120,0,1,,,,,,,,,,,,,,,0,,,88,0
214440,note_on,0,0,1,,,,,,,,,,,,,,,0,,,84,0
214440,note_on,0,0,2,,,,,,,,,,,,,,,0,,,48,0
214440,note_on,0,0,2,,,,,,,,,,,,,,,0,,,55,57
214440,note_on,120,0,2,,,,,,,,,,,,,,,0,,,52,0
214440,note_on,0,0,1,,,,,,,,,,,,,,,0,,,91,69
214560,note_on,0,0,2,,,,,,,,,,,,,,,0,,,43,73
214560,note_on,0,0,1,,,,,,,,,,,,,,,0,,,79,93
214560,set_tempo,960,1,0,,,,,,,,,,,,402685,,,,,,,
214560,note_on,120,0,1,,,,,,,,,,,,,,,0,,,91,0
214560,note_on,120,0,2,,,,,,,,,,,,,,,0,,,55,0
214570,control_change,10,0,2,,,,,,,,,,,,,,,0,64,0,,
214629,control_change,59,0,2,,,,,,,,,,,,,,,0,64,127,,
214680,note_on,51,0,2,,,,,,,,,,,,,,,0,,,43,0
214680,note_on,0,0,1,,,,,,,,,,,,,,,0,,,91,70
214680,note_on,0,0,2,,,,,,,,,,,,,,,0,,,55,58
214680,note_on,120,0,1,,,,,,,,,,,,,,,0,,,79,0
214800,note_on,120,0,1,,,,,,,,,,,,,,,0,,,91,0
214800,note_on,0,0,1,,,,,,,,,,,,,,,0,,,83,71
214800,note_on,0,0,1,,,,,,,,,,,,,,,0,,,86,71
214800,note_on,120,0,2,,,,,,,,,,,,,,,0,,,55,0
214800,note_on,0,0,2,,,,,,,,,,,,,,,0,,,50,58
214800,note_on,0,0,2,,,,,,,,,,,,,,,0,,,47,58
214920,note_on,0,0,2,,,,,,,,,,,,,,,0,,,55,60
214920,note_on,0,0,2,,,,,,,,,,,,,,,0,,,47,0
214920,note_on,120,0,2,,,,,,,,,,,,,,,0,,,50,0
214920,note_on,120,0,1,,,,,,,,,,,,,,,0,,,86,0
214920,note_on,0,0,1,,,,,,,,,,,,,,,0,,,91,74
214920,note_on,0,0,1,,,,,,,,,,,,,,,0,,,83,0
215040,note_on,0,0,1,,,,,,,,,,,,,,,0,,,88,97
215040,set_tempo,480,1,0,,,,,,,,,,,,406780,,,,,,,
215040,note_on,120,0,1,,,,,,,,,,,,,,,0,,,91,0
215040,note_on,0,0,2,,,,,,,,,,,,,,,0,,,36,64
215040,control_change,0,0,2,,,,,,,,,,,,,,,0,64,0,,
215040,note_on,120,0,2,,,,,,,,,,,,,,,0,,,55,0
215040,note_on,0,0,2,,,,,,,,,,,,,,,0,,,48,76
215040,note_on,0,0,1,,,,,,,,,,,,,,,0,,,79,82
215040,note_on,0,0,1,,,,,,,,,,,,,,,0,,,84,82
215111,control_change,71,0,2,,,,,,,,,,,,,,,0,64,127,,
215160,note_on,0,0,1,,,,,,,,,,,,,,,0,,,88,0
215160,note_on,0,0,1,,,,,,,,,,,,,,,0,,,84,0
215160,note_on,120,0,1,,,,,,,,,,,,,,,0,,,79,0
215160,note_on,0,0,1,,,,,,,,,,,,,,,0,,,91,89
215240,set_tempo,200,1,0,,,,,,,,,,,,405405,,,,,,,
215280,note_on,0,0,1,,,,,,,,,,,,,,,0,,,86,98
215280,note_on,169,0,2,,,,,,,,,,,,,,,0,,,48,0
215280,note_on,0,0,2,,,,,,,,,,,,,,,0,,,36,0
215280,note_on,0,0,2,,,,,,,,,,,,,,,0,,,31,58
215280,note_on,0,0,2,,,,,,,,,,,,,,,0,,,43,70
215280,note_on,0,0,1,,,,,,,,,,,,,,,0,,,83,82
215280,note_on,0,0,1,,,,,,,,,,,,,,,0,,,79,82
215280,note_on,120,0,1,,,,,,,,,,,,,,,0,,,91,0
215400,note_on,120,0,1,,,,,,,,,,,,,,,0,,,79,0
215400,note_on,0,0,1,,,,,,,,,,,,,,,0,,,83,0
215400,note_on,0,0,1,,,,,,,,,,,,,,,0,,,86,0
215400,note_on,0,0,1,,,,,,,,,,,,,,,0,,,91,91
215440,set_tempo,200,1,0,,,,,,,,,,,,404040,,,,,,,
215520,note_on,240,0,2,,,,,,,,,,,,,,,0,,,43,0
215520,note_on,0,0,2,,,,,,,,,,,,,,,0,,,36,66
215520,note_on,0,0,2,,,,,,,,,,,,,,,0,,,48,79
215520,note_on,0,0,1,,,,,,,,,,,,,,,0,,,79,85
215520,note_on,0,0,1,,,,,,,,,,,,,,,0,,,88,99
215520,note_on,120,0,1,,,,,,,,,,,,,,,0,,,91,0
215520,note_on,0,0,2,,,,,,,,,,,,,,,0,,,31,0
215520,note_on,0,0,1,,,,,,,,,,,,,,,0,,,84,85
215620,set_tempo,180,1,0,,,,,,,,,,,,402685,,,,,,,
215640,note_on,120,0,1,,,,,,,,,,,,,,,0,,,79,0
215640,note_on,0,0,1,,,,,,,,,,,,,,,0,,,84,0
215640,note_on,0,0,1,,,,,,,,,,,,,,,0,,,88,0
215640,note_on,0,0,1,,,,,,,,,,,,,,,0,,,91,93
215760,note_on,0,0,2,,,,,,,,,,,,,,,0,,,43,73
215760,note_on,0,0,1,,,,,,,,,,,,,,,0,,,79,86
215760,note_on,0,0,1,,,,,,,,,,,,,,,0,,,83,86
215760,note_on,0,0,1,,,,,,,,,,,,,,,0,,,86,101
215760,note_on,120,0,1,,,,,,,,,,,,,,,0,,,91,0
215760,note_on,240,0,2,,,,,,,,,,,,,,,0,,,48,0
215760,note_on,0,0,2,,,,,,,,,,,,,,,0,,,36,0
215760,note_on,0,0,2,,,,,,,,,,,,,,,0,,,31,60
215820,set_tempo,200,1,0,,,,,,,,,,,,401338,,,,,,,
215880,note_on,0,0,1,,,,,,,,,,,,,,,0,,,91,94
215880,note_on,0,0,1,,,,,,,,,,,,,,,0,,,86,0
215880,note_on,0,0,1,,,,,,,,,,,,,,,0,,,83,0
215880,note_on,120,0,1,,,,,,,,,,,,,,,0,,,79,0
216000,note_on,120,0,1,,,,,,,,,,,,,,,0,,,91,0
216000,note_on,0,0,1,,,,,,,,,,,,,,,0,,,88,103
216000,set_tempo,180,1,0,,,,,,,,,,,,402685,,,,,,,
216000,note_on,0,0,1,,,,,,,,,,,,,,,0,,,79,87
216000,note_on,0,0,1,,,,,,,,,,,,,,,0,,,84,87
216000,note_on,240,0,2,,,,,,,,,,,,,,,0,,,43,0
216000,note_on,0,0,2,,,,,,,,,,,,,,,0,,,48,81
216000,note_on,0,0,2,,,,,,,,,,,,,,,0,,,36,69
216000,note_on,0,0,2,,,,,,,,,,,,,,,0,,,31,0
216014,control_change,14,0,2,,,,,,,,,,,,,,,0,64,0,,
216056,control_change,42,0,2,,,,,,,,,,,,,,,0,64,127,,
216060,set_tempo,60,1,0,,,,,,,,,,,,404040,,,,,,,
216100,set_tempo,40,1,0,,,,,,,,,,,,405405,,,,,,,
216120,note_on,120,0,1,,,,,,,,,,,,,,,0,,,79,0
216120,note_on,0,0,1,,,,,,,,,,,,,,,0,,,84,0
216120,note_on,0,0,1,,,,,,,,,,,,,,,0,,,88,0
216120,note_on,0,0,1,,,,,,,,,,,,,,,0,,,91,96
216140,set_tempo,40,1,0,,,,,,,,,,,,406780,,,,,,,
216180,set_tempo,40,1,0,,,,,,,,,,,,408163,,,,,,,
216220,set_tempo,40,1,0,,,,,,,,,,,,409556,,,,,,,
216240,note_on,120,0,1,,,,,,,,,,,,,,,0,,,91,0
216240,note_on,0,0,1,,,,,,,,,,,,,,,0,,,86,105
216240,note_on,0,0,1,,,,,,,,,,,,,,,0,,,83,89
216240,note_on,0,0,1,,,,,,,,,,,,,,,0,,,79,89
216240,note_on,0,0,2,,,,,,,,,,,,,,,0,,,43,75
216240,note_on,0,0,2,,,,,,,,,,,,,,,0,,,31,63
216240,note_on,0,0,2,,,,,,,,,,,,,,,0,,,36,0
216240,note_on,184,0,2,,,,,,,,,,,,,,,0,,,48,0
216260,set_tempo,40,1,0,,,,,,,,,,,,410959,,,,,,,
216300,set_tempo,40,1,0,,,,,,,,,,,,412371,,,,,,,
216340,set_tempo,40,1,0,,,,,,,,,,,,413793,,,,,,,
216360,note_on,0,0,1,,,,,,,,,,,,,,,0,,,86,0
216360,note_on,0,0,1,,,,,,,,,,,,,,,0,,,83,0
216360,note_on,120,0,1,,,,,,,,,,,,,,,0,,,79,0
216360,note_on,0,0,1,,,,,,,,,,,,,,,0,,,91,101
216380,set_tempo,40,1,0,,,,,,,,,,,,415225,,,,,,,
216420,set_tempo,40,1,0,,,,,,,,,,,,416667,,,,,,,
216460,set_tempo,40,1,0,,,,,,,,,,,,418118,,,,,,,
216480,set_tempo,20,1,0,,,,,,,,,,,,419580,,,,,,,
216480,note_on,0,0,2,,,,,,,,,,,,,,,0,,,48,85
216480,note_on,120,0,1,,,,,,,,,,,,,,,0,,,91,0
216480,note_on,0,0,1,,,,,,,,,,,,,,,0,,,88,107
216480,note_on,0,0,1,,,,,,,,,,,,,,,0,,,84,90
216480,note_on,0,0,1,,,,,,,,,,,,,,,0,,,79,90
216480,note_on,0,0,2,,,,,,,,,,,,,,,0,,,31,0
216480,note_on,0,0,2,,,,,,,,,,,,,,,0,,,36,71
216480,note_on,240,0,2,,,,,,,,,,,,,,,0,,,43,0
216520,set_tempo,40,1,0,,,,,,,,,,,,421053,,,,,,,
216540,set_tempo,20,1,0,,,,,,,,,,,,422535,,,,,,,
216560,set_tempo,20,1,0,,,,,,,,,,,,424028,,,,,,,
216580,set_tempo,20,1,0,,,,,,,,,,,,425532,,,,,,,
216600,set_tempo,20,1,0,,,,,,,,,,,,427046,,,,,,,
216600,note_on,0,0,1,,,,,,,,,,,,,,,0,,,88,0
216600,note_on,0,0,1,,,,,,,,,,,,,,,0,,,84,0
216600,note_on,120,0,1,,,,,,,,,,,,,,,0,,,79,0
216600,note_on,0,0,1,,,,,,,,,,,,,,,0,,,91,99
216640,set_tempo,40,1,0,,,,,,,,,,,,428571,,,,,,,
216660,set_tempo,20,1,0,,,,,,,,,,,,430108,,,,,,,
216680,set_tempo,20,1,0,,,,,,,,,,,,431655,,,,,,,
216700,set_tempo,20,1,0,,,,,,,,,,,,433213,,,,,,,
216720,note_on,0,0,2,,,,,,,,,,,,,,,0,,,31,64
216720,note_on,0,0,2,,,,,,,,,,,,,,,0,,,36,0
216720,note_on,0,0,1,,,,,,,,,,,,,,,0,,,86,108
216720,note_on,0,0,1,,,,,,,,,,,,,,,0,,,83,91
216720,note_on,0,0,1,,,,,,,,,,,,,,,0,,,79,91
216720,set_tempo,20,1,0,,,,,,,,,,,,434783,,,,,,,
216720,note_on,120,0,1,,,,,,,,,,,,,,,0,,,91,0
216720,note_on,240,0,2,,,,,,,,,,,,,,,0,,,48,0
216720,note_on,0,0,2,,,,,,,,,,,,,,,0,,,43,76
216760,set_tempo,40,1,0,,,,,,,,,,,,436364,,,,,,,
216780,set_tempo,20,1,0,,,,,,,,,,,,437956,,,,,,,
216800,set_tempo,20,1,0,,,,,,,,,,,,439560,,,,,,,
216820,set_tempo,20,1,0,,,,,,,,,,,,441176,,,,,,,
216840,set_tempo,20,1,0,,,,,,,,,,,,442804,,,,,,,
216840,note_on,0,0,1,,,,,,,,,,,,,,,0,,,91,100
216840,note_on,120,0,1,,,,,,,,,,,,,,,0,,,79,0
216840,note_on,0,0,1,,,,,,,,,,,,,,,0,,,83,0
216840,note_on,0,0,1,,,,,,,,,,,,,,,0,,,86,0
216860,set_tempo,20,1,0,,,,,,,,,,,,444444,,,,,,,
216880,set_tempo,20,1,0,,,,,,,,,,,,449438,,,,,,,
216900,set_tempo,20,1,0,,,,,,,,,,,,451128,,,,,,,
216920,set_tempo,20,1,0,,,,,,,,,,,,452830,,,,,,,
216940,set_tempo,20,1,0,,,,,,,,,,,,456274,,,,,,,
216960,note_on,0,0,2,,,,,,,,,,,,,,,0,,,40,76
216960,note_on,240,0,2,,,,,,,,,,,,,,,0,,,43,0
216960,note_on,120,0,1,,,,,,,,,,,,,,,0,,,91,0
216960,note_on,0,0,1,,,,,,,,,,,,,,,0,,,79,93
216960,note_on,0,0,1,,,,,,,,,,,,,,,0,,,76,83
216960,note_on,0,0,2,,,,,,,,,,,,,,,0,,,43,76
216960,note_on,0,0,2,,,,,,,,,,,,,,,0,,,31,0
216960,note_on,0,0,2,,,,,,,,,,,,,,,0,,,36,68
216960,control_change,0,0,2,,,,,,,,,,,,,,,0,64,0,,
216960,note_on,0,0,1,,,,,,,,,,,,,,,0,,,72,83
216960,note_on,0,0,2,,,,,,,,,,,,,,,0,,,48,90
216960,note_on,0,0,1,,,,,,,,,,,,,,,0,,,84,110
216960,set_tempo,20,1,0,,,,,,,,,,,,441176,,,,,,,
217045,control_change,85,0,2,,,,,,,,,,,,,,,0,64,127,,
217080,note_on,35,0,2,,,,,,,,,,,,,,,0,,,48,0
217080,note_on,0,0,2,,,,,,,,,,,,,,,0,,,36,0
217080,note_on,0,0,2,,,,,,,,,,,,,,,0,,,40,0
217080,note_on,0,0,2,,,,,,,,,,,,,,,0,,,43,0
217080,note_on,0,0,1,,,,,,,,,,,,,,,0,,,79,0
217080,note_on,0,0,1,,,,,,,,,,,,,,,0,,,76,0
217080,note_on,0,0,1,,,,,,,,,,,,,,,0,,,72,0
217080,note_on,120,0,1,,,,,,,,,,,,,,,0,,,84,0
217200,note_on,120,0,2,,,,,,,,,,,,,,,0,,,72,68
217200,note_on,120,0,1,,,,,,,,,,,,,,,0,,,84,83
217200,set_tempo,240,1,0,,,,,,,,,,,,408163,,,,,,,
217320,note_on,120,0,1,,,,,,,,,,,,,,,0,,,84,0
217320,note_on,0,0,1,,,,,,,,,,,,,,,0,,,79,81
217320,note_on,120,0,2,,,,,,,,,,,,,,,0,,,72,0
217320,note_on,0,0,2,,,,,,,,,,,,,,,0,,,67,67
217400,set_tempo,200,1,0,,,,,,,,,,,,406780,,,,,,,
217440,note_on,120,0,1,,,,,,,,,,,,,,,0,,,79,0
217440,note_on,0,0,1,,,,,,,,,,,,,,,0,,,76,81
217440,note_on,0,0,2,,,,,,,,,,,,,,,0,,,64,65
217440,note_on,120,0,2,,,,,,,,,,,,,,,0,,,67,0
217560,note_on,120,0,2,,,,,,,,,,,,,,,0,,,64,0
217560,note_on,120,0,1,,,,,,,,,,,,,,,0,,,76,0
217560,note_on,0,0,1,,,,,,,,,,,,,,,0,,,72,80
217560,note_on,0,0,2,,,,,,,,,,,,,,,0,,,60,64
217600,set_tempo,200,1,0,,,,,,,,,,,,405405,,,,,,,
217680,note_on,120,0,2,,,,,,,,,,,,,,,0,,,60,0
217680,note_on,0,0,2,,,,,,,,,,,,,,,0,,,55,63
217680,note_on,120,0,1,,,,,,,,,,,,,,,0,,,72,0
217680,note_on,0,0,1,,,,,,,,,,,,,,,0,,,67,78
217800,note_on,0,0,1,,,,,,,,,,,,,,,0,,,64,76
217800,note_on,120,0,2,,,,,,,,,,,,,,,0,,,55,0
217800,note_on,120,0,1,,,,,,,,,,,,,,,0,,,67,0
217800,set_tempo,200,1,0,,,,,,,,,,,,404040,,,,,,,
217800,note_on,0,0,2,,,,,,,,,,,,,,,0,,,52,63
217920,note_on,120,0,2,,,,,,,,,,,,,,,0,,,52,0
217920,note_on,0,0,1,,,,,,,,,,,,,,,0,,,60,73
217920,note_on,120,0,1,,,,,,,,,,,,,,,0,,,64,0
217920,note_on,0,0,2,,,,,,,,,,,,,,,0,,,48,60
217960,set_tempo,160,1,0,,,,,,,,,,,,402685,,,,,,,
218040,set_tempo,80,1,0,,,,,,,,,,,,404040,,,,,,,
218040,note_on,0,0,2,,,,,,,,,,,,,,,0,,,43,61
218040,note_on,120,0,2,,,,,,,,,,,,,,,0,,,48,0
218040,note_on,0,0,1,,,,,,,,,,,,,,,0,,,55,74
218040,note_on,120,0,1,,,,,,,,,,,,,,,0,,,60,0
218120,set_tempo,80,1,0,,,,,,,,,,,,405405,,,,,,,
218160,note_on,0,0,2,,,,,,,,,,,,,,,0,,,48,62
218160,note_on,120,0,2,,,,,,,,,,,,,,,0,,,43,0
218160,note_on,120,0,1,,,,,,,,,,,,,,,0,,,55,0
218160,note_on,0,0,1,,,,,,,,,,,,,,,0,,,60,75
218200,set_tempo,80,1,0,,,,,,,,,,,,406780,,,,,,,
218280,set_tempo,80,1,0,,,,,,,,,,,,408163,,,,,,,
218280,note_on,120,0,2,,,,,,,,,,,,,,,0,,,48,0
218280,note_on,0,0,1,,,,,,,,,,,,,,,0,,,64,76
218280,note_on,0,0,2,,,,,,,,,,,,,,,0,,,52,63
218280,note_on,120,0,1,,,,,,,,,,,,,,,0,,,60,0
218360,set_tempo,80,1,0,,,,,,,,,,,,409556,,,,,,,
218400,note_on,0,0,1,,,,,,,,,,,,,,,0,,,67,77
218400,set_tempo,40,1,0,,,,,,,,,,,,409556,,,,,,,
218400,note_on,0,0,2,,,,,,,,,,,,,,,0,,,55,64
218400,note_on,120,0,2,,,,,,,,,,,,,,,0,,,52,0
218400,note_on,120,0,1,,,,,,,,,,,,,,,0,,,64,0
218480,set_tempo,80,1,0,,,,,,,,,,,,410959,,,,,,,
218520,note_on,120,0,1,,,,,,,,,,,,,,,0,,,67,0
218520,note_on,0,0,1,,,,,,,,,,,,,,,0,,,72,78
218520,note_on,120,0,2,,,,,,,,,,,,,,,0,,,55,0
218520,note_on,0,0,2,,,,,,,,,,,,,,,0,,,60,65
218520,set_tempo,40,1,0,,,,,,,,,,,,412371,,,,,,,
218560,set_tempo,40,1,0,,,,,,,,,,,,413793,,,,,,,
218600,set_tempo,40,1,0,,,,,,,,,,,,415225,,,,,,,
218640,set_tempo,40,1,0,,,,,,,,,,,,416667,,,,,,,
218640,note_on,0,0,1,,,,,,,,,,,,,,,0,,,76,79
218640,note_on,0,0,2,,,,,,,,,,,,,,,0,,,64,66
218640,note_on,120,0,1,,,,,,,,,,,,,,,0,,,72,0
218640,note_on,120,0,2,,,,,,,,,,,,,,,0,,,60,0
218680,set_tempo,40,1,0,,,,,,,,,,,,418118,,,,,,,
218720,set_tempo,40,1,0,,,,,,,,,,,,419580,,,,,,,
218760,note_on,120,0,2,,,,,,,,,,,,,,,0,,,64,0
218760,note_on,0,0,2,,,,,,,,,,,,,,,0,,,67,67
218760,set_tempo,40,1,0,,,,,,,,,,,,421053,,,,,,,
218760,note_on,120,0,1,,,,,,,,,,,,,,,0,,,76,0
218760,note_on,0,0,1,,,,,,,,,,,,,,,0,,,79,80
218800,set_tempo,40,1,0,,,,,,,,,,,,422535,,,,,,,
218840,set_tempo,40,1,0,,,,,,,,,,,,424028,,,,,,,
218880,note_on,120,0,1,,,,,,,,,,,,,,,0,,,79,0
218880,note_on,0,0,1,,,,,,,,,,,,,,,0,,,72,85
218880,note_on,0,0,1,,,,,,,,,,,,,,,0,,,76,85
218880,note_on,0,0,1,,,,,,,,,,,,,,,0,,,79,85
218880,note_on,0,0,1,,,,,,,,,,,,,,,0,,,84,101
218880,set_tempo,40,1,0,,,,,,,,,,,,441176,,,,,,,
218880,note_on,120,0,2,,,,,,,,,,,,,,,0,,,67,0
218880,control_change,0,0,2,,,,,,,,,,,,,,,0,64,0,,
218880,note_on,0,0,2,,,,,,,,,,,,,,,0,,,60,68
218880,note_on,0,0,2,,,,,,,,,,,,,,,0,,,72,80
218880,note_on,0,0,2,,,,,,,,,,,,,,,0,,,64,68
218880,note_on,0,0,2,,,,,,,,,,,,,,,0,,,67,68
218965,control_change,85,0,2,,,,,,,,,,,,,,,0,64,127,,
219000,note_on,0,0,1,,,,,,,,,,,,,,,0,,,72,0
219000,note_on,0,0,1,,,,,,,,,,,,,,,0,,,79,0
219000,note_on,120,0,1,,,,,,,,,,,,,,,0,,,84,0
219000,note_on,0,0,1,,,,,,,,,,,,,,,0,,,76,0
219000,note_on,35,0,2,,,,,,,,,,,,,,,0,,,72,0
219000,note_on,0,0,2,,,,,,,,,,,,,,,0,,,60,0
219000,note_on,0,0,2,,,,,,,,,,,,,,,0,,,64,0
219000,note_on,0,0,2,,,,,,,,,,,,,,,0,,,67,0
219120,note_on,120,0,1,,,,,,,,,,,,,,,0,,,88,83
219120,set_tempo,240,1,0,,,,,,,,,,,,408163,,,,,,,
219120,note_on,120,0,2,,,,,,,,,,,,,,,0,,,76,68
219240,note_on,0,0,1,,,,,,,,,,,,,,,0,,,84,81
219240,note_on,120,0,1,,,,,,,,,,,,,,,0,,,88,0
219240,note_on,120,0,2,,,,,,,,,,,,,,,0,,,76,0
219240,note_on,0,0,2,,,,,,,,,,,,,,,0,,,72,67
219280,set_tempo,160,1,0,,,,,,,,,,,,406780,,,,,,,
219360,note_on,120,0,1,,,,,,,,,,,,,,,0,,,84,0
219360,note_on,0,0,1,,,,,,,,,,,,,,,0,,,79,81
219360,note_on,0,0,2,,,,,,,,,,,,,,,0,,,67,65
219360,note_on,120,0,2,,,,,,,,,,,,,,,0,,,72,0
219440,set_tempo,160,1,0,,,,,,,,,,,,405405,,,,,,,
219480,note_on,0,0,1,,,,,,,,,,,,,,,0,,,76,80
219480,note_on,120,0,2,,,,,,,,,,,,,,,0,,,67,0
219480,note_on,0,0,2,,,,,,,,,,,,,,,0,,,64,64
219480,note_on,120,0,1,,,,,,,,,,,,,,,0,,,79,0
219560,set_tempo,120,1,0,,,,,,,,,,,,404040,,,,,,,
219600,note_on,0,0,1,,,,,,,,,,,,,,,0,,,72,78
219600,note_on,120,0,1,,,,,,,,,,,,,,,0,,,76,0
219600,note_on,0,0,2,,,,,,,,,,,,,,,0,,,60,63
219600,note_on,120,0,2,,,,,,,,,,,,,,,0,,,64,0
219720,note_on,120,0,1,,,,,,,,,,,,,,,0,,,72,0
219720,note_on,0,0,1,,,,,,,,,,,,,,,0,,,67,76
219720,set_tempo,160,1,0,,,,,,,,,,,,402685,,,,,,,
219720,note_on,0,0,2,,,,,,,,,,,,,,,0,,,55,63
219720,note_on,120,0,2,,,,,,,,,,,,,,,0,,,60,0
219840,note_on,0,0,2,,,,,,,,,,,,,,,0,,,52,60
219840,note_on,0,0,1,,,,,,,,,,,,,,,0,,,64,73
219840,note_on,120,0,1,,,,,,,,,,,,,,,0,,,67,0
219840,set_tempo,120,1,0,,,,,,,,,,,,401338,,,,,,,
219840,note_on,120,0,2,,,,,,,,,,,,,,,0,,,55,0
219920,set_tempo,80,1,0,,,,,,,,,,,,402685,,,,,,,
219960,note_on,120,0,2,,,,,,,,,,,,,,,0,,,52,0
219960,note_on,0,0,2,,,,,,,,,,,,,,,0,,,48,61
219960,note_on,120,0,1,,,,,,,,,,,,,,,0,,,64,0
219960,note_on,0,0,1,,,,,,,,,,,,,,,0,,,60,74
220000,set_tempo,80,1,0,,,,,,,,,,,,404040,,,,,,,
220080,note_on,120,0,2,,,,,,,,,,,,,,,0,,,48,0
220080,note_on,120,0,1,,,,,,,,,,,,,,,0,,,60,0
220080,note_on,0,0,2,,,,,,,,,,,,,,,0,,,52,62
220080,note_on,0,0,1,,,,,,,,,,,,,,,0,,,64,75
220080,set_tempo,80,1,0,,,,,,,,,,,,405405,,,,,,,
220160,set_tempo,80,1,0,,,,,,,,,,,,406780,,,,,,,
220200,note_on,0,0,1,,,,,,,,,,,,,,,0,,,67,76
220200,note_on,120,0,1,,,,,,,,,,,,,,,0,,,64,0
220200,note_on,120,0,2,,,,,,,,,,,,,,,0,,,52,0
220200,note_on,0,0,2,,,,,,,,,,,,,,,0,,,55,63
220240,set_tempo,80,1,0,,,,,,,,,,,,408163,,,,,,,
220320,note_on,0,0,1,,,,,,,,,,,,,,,0,,,72,77
220320,set_tempo,80,1,0,,,,,,,,,,,,409556,,,,,,,
220320,note_on,120,0,2,,,,,,,,,,,,,,,0,,,55,0
220320,note_on,0,0,2,,,,,,,,,,,,,,,0,,,60,64
220320,note_on,120,0,1,,,,,,,,,,,,,,,0,,,67,0
220400,set_tempo,80,1,0,,,,,,,,,,,,410959,,,,,,,
220440,note_on,120,0,2,,,,,,,,,,,,,,,0,,,60,0
220440,note_on,0,0,2,,,,,,,,,,,,,,,0,,,64,65
220440,note_on,0,0,1,,,,,,,,,,,,,,,0,,,76,78
220440,note_on,120,0,1,,,,,,,,,,,,,,,0,,,72,0
220440,set_tempo,40,1,0,,,,,,,,,,,,412371,,,,,,,
220480,set_tempo,40,1,0,,,,,,,,,,,,413793,,,,,,,
220520,set_tempo,40,1,0,,,,,,,,,,,,415225,,,,,,,
220560,note_on,120,0,2,,,,,,,,,,,,,,,0,,,64,0
220560,note_on,0,0,1,,,,,,,,,,,,,,,0,,,79,79
220560,note_on,120,0,1,,,,,,,,,,,,,,,0,,,76,0
220560,set_tempo,40,1,0,,,,,,,,,,,,416667,,,,,,,
220560,note_on,0,0,2,,,,,,,,,,,,,,,0,,,67,66
220600,set_tempo,40,1,0,,,,,,,,,,,,418118,,,,,,,
220640,set_tempo,40,1,0,,,,,,,,,,,,419580,,,,,,,
220680,note_on,0,0,2,,,,,,,,,,,,,,,0,,,72,67
220680,note_on,120,0,1,,,,,,,,,,,,,,,0,,,79,0
220680,note_on,0,0,1,,,,,,,,,,,,,,,0,,,84,80
220680,note_on,120,0,2,,,,,,,,,,,,,,,0,,,67,0
220680,set_tempo,40,1,0,,,,,,,,,,,,421053,,,,,,,
220720,set_tempo,40,1,0,,,,,,,,,,,,422535,,,,,,,
220760,set_tempo,40,1,0,,,,,,,,,,,,424028,,,,,,,
220800,note_on,0,0,1,,,,,,,,,,,,,,,0,,,76,85
220800,note_on,0,0,1,,,,,,,,,,,,,,,0,,,88,101
220800,note_on,0,0,1,,,,,,,,,,,,,,,0,,,84,85
220800,note_on,0,0,1,,,,,,,,,,,,,,,0,,,79,85
220800,note_on,120,0,1,,,,,,,,,,,,,,,0,,,84,0
220800,control_change,0,0,2,,,,,,,,,,,,,,,0,64,0,,
220800,set_tempo,40,1,0,,,,,,,,,,,,441176,,,,,,,
220800,note_on,120,0,2,,,,,,,,,,,,,,,0,,,72,0
220800,note_on,0,0,2,,,,,,,,,,,,,,,0,,,72,68
220800,note_on,0,0,2,,,,,,,,,,,,,,,0,,,67,68
220800,note_on,0,0,2,,,,,,,,,,,,,,,0,,,64,68
220800,note_on,0,0,2,,,,,,,,,,,,,,,0,,,76,80
220885,control_change,85,0,2,,,,,,,,,,,,,,,0,64,127,,
220920,note_on,35,0,2,,,,,,,,,,,,,,,0,,,76,0
220920,note_on,0,0,2,,,,,,,,,,,,,,,0,,,64,0
220920,note_on,0,0,2,,,,,,,,,,,,,,,0,,,67,0
220920,note_on,120,0,1,,,,,,,,,,,,,,,0,,,88,0
220920,note_on,0,0,1,,,,,,,,,,,,,,,0,,,76,0
220920,note_on,0,0,1,,,,,,,,,,,,,,,0,,,79,0
220920,note_on,0,0,1,,,,,,,,,,,,,,,0,,,84,0
220920,note_on,0,0,2,,,,,,,,,,,,,,,0,,,72,0
221040,set_tempo,240,1,0,,,,,,,,,,,,408163,,,,,,,
221040,note_on,120,0,2,,,,,,,,,,,,,,,0,,,79,68
221040,note_on,120,0,1,,,,,,,,,,,,,,,0,,,91,83
221160,note_on,120,0,2,,,,,,,,,,,,,,,0,,,79,0
221160,note_on,0,0,2,,,,,,,,,,,,,,,0,,,76,67
221160,note_on,0,0,1,,,,,,,,,,,,,,,0,,,88,81
221160,note_on,120,0,1,,,,,,,,,,,,,,,0,,,91,0
221200,set_tempo,160,1,0,,,,,,,,,,,,406780,,,,,,,
221280,note_on,0,0,2,,,,,,,,,,,,,,,0,,,72,65
221280,note_on,120,0,2,,,,,,,,,,,,,,,0,,,76,0
221280,note_on,0,0,1,,,,,,,,,,,,,,,0,,,84,81
221280,note_on,120,0,1,,,,,,,,,,,,,,,0,,,88,0
221320,set_tempo,120,1,0,,,,,,,,,,,,405405,,,,,,,
221400,note_on,0,0,2,,,,,,,,,,,,,,,0,,,67,64
221400,note_on,0,0,1,,,,,,,,,,,,,,,0,,,79,80
221400,note_on,120,0,1,,,,,,,,,,,,,,,0,,,84,0
221400,note_on,120,0,2,,,,,,,,,,,,,,,0,,,72,0
221480,set_tempo,160,1,0,,,,,,,,,,,,404040,,,,,,,
221520,note_on,0,0,2,,,,,,,,,,,,,,,0,,,64,63
221520,note_on,120,0,2,,,,,,,,,,,,,,,0,,,67,0
221520,note_on,0,0,1,,,,,,,,,,,,,,,0,,,76,78
221520,note_on,120,0,1,,,,,,,,,,,,,,,0,,,79,0
221600,set_tempo,120,1,0,,,,,,,,,,,,402685,,,,,,,
221640,note_on,0,0,2,,,,,,,,,,,,,,,0,,,60,63
221640,note_on,120,0,2,,,,,,,,,,,,,,,0,,,64,0
221640,note_on,0,0,1,,,,,,,,,,,,,,,0,,,72,76
221640,note_on,120,0,1,,,,,,,,,,,,,,,0,,,76,0
221720,set_tempo,120,1,0,,,,,,,,,,,,401338,,,,,,,
221760,note_on,0,0,2,,,,,,,,,,,,,,,0,,,55,60
221760,note_on,120,0,2,,,,,,,,,,,,,,,0,,,60,0
221760,note_on,120,0,1,,,,,,,,,,,,,,,0,,,72,0
221760,note_on,0,0,1,,,,,,,,,,,,,,,0,,,67,73
221840,set_tempo,120,1,0,,,,,,,,,,,,402685,,,,,,,
221880,note_on,0,0,1,,,,,,,,,,,,,,,0,,,64,74
221880,note_on,0,0,2,,,,,,,,,,,,,,,0,,,52,61
221880,note_on,120,0,2,,,,,,,,,,,,,,,0,,,55,0
221880,note_on,120,0,1,,,,,,,,,,,,,,,0,,,67,0
221920,set_tempo,80,1,0,,,,,,,,,,,,404040,,,,,,,
222000,note_on,0,0,1,,,,,,,,,,,,,,,0,,,67,75
222000,note_on,120,0,2,,,,,,,,,,,,,,,0,,,52,0
222000,note_on,0,0,2,,,,,,,,,,,,,,,0,,,55,62
222000,note_on,120,0,1,,,,,,,,,,,,,,,0,,,64,0
222040,set_tempo,120,1,0,,,,,,,,,,,,405405,,,,,,,
222120,note_on,120,0,2,,,,,,,,,,,,,,,0,,,55,0
222120,set_tempo,80,1,0,,,,,,,,,,,,406780,,,,,,,
222120,note_on,120,0,1,,,,,,,,,,,,,,,0,,,67,0
222120,note_on,0,0,1,,,,,,,,,,,,,,,0,,,72,76
222120,note_on,0,0,2,,,,,,,,,,,,,,,0,,,60,63
222240,note_on,0,0,2,,,,,,,,,,,,,,,0,,,64,64
222240,note_on,120,0,2,,,,,,,,,,,,,,,0,,,60,0
222240,set_tempo,120,1,0,,,,,,,,,,,,408163,,,,,,,
222240,note_on,120,0,1,,,,,,,,,,,,,,,0,,,72,0
222240,note_on,0,0,1,,,,,,,,,,,,,,,0,,,76,77
222320,set_tempo,80,1,0,,,,,,,,,,,,409556,,,,,,,
222360,note_on,0,0,2,,,,,,,,,,,,,,,0,,,67,65
222360,note_on,120,0,1,,,,,,,,,,,,,,,0,,,76,0
222360,note_on,0,0,1,,,,,,,,,,,,,,,0,,,79,78
222360,note_on,120,0,2,,,,,,,,,,,,,,,0,,,64,0
222360,set_tempo,40,1,0,,,,,,,,,,,,409556,,,,,,,
222400,set_tempo,40,1,0,,,,,,,,,,,,410959,,,,,,,
222440,set_tempo,40,1,0,,,,,,,,,,,,413793,,,,,,,
222480,set_tempo,40,1,0,,,,,,,,,,,,415225,,,,,,,
222480,note_on,0,0,2,,,,,,,,,,,,,,,0,,,72,66
222480,note_on,120,0,2,,,,,,,,,,,,,,,0,,,67,0
222480,note_on,120,0,1,,,,,,,,,,,,,,,0,,,79,0
222480,note_on,0,0,1,,,,,,,,,,,,,,,0,,,84,79
222520,set_tempo,40,1,0,,,,,,,,,,,,418118,,,,,,,
222560,set_tempo,40,1,0,,,,,,,,,,,,419580,,,,,,,
222600,note_on,0,0,2,,,,,,,,,,,,,,,0,,,76,67
222600,note_on,120,0,2,,,,,,,,,,,,,,,0,,,72,0
222600,set_tempo,40,1,0,,,,,,,,,,,,422535,,,,,,,
222600,note_on,120,0,1,,,,,,,,,,,,,,,0,,,84,0
222600,note_on,0,0,1,,,,,,,,,,,,,,,0,,,88,80
222640,set_tempo,40,1,0,,,,,,,,,,,,434783,,,,,,,
222680,set_tempo,40,1,0,,,,,,,,,,,,439560,,,,,,,
222720,control_change,0,0,2,,,,,,,,,,,,,,,0,64,0,,
222720,note_on,0,0,1,,,,,,,,,,,,,,,0,,,91,101
222720,note_on,0,0,1,,,,,,,,,,,,,,,0,,,79,85
222720,note_on,0,0,1,,,,,,,,,,,,,,,0,,,84,85
222720,note_on,0,0,1,,,,,,,,,,,,,,,0,,,88,85
222720,note_on,0,0,2,,,,,,,,,,,,,,,0,,,67,68
222720,note_on,0,0,2,,,,,,,,,,,,,,,0,,,79,80
222720,note_on,120,0,2,,,,,,,,,,,,,,,0,,,76,0
222720,note_on,120,0,1,,,,,,,,,,,,,,,0,,,88,0
222720,note_on,0,0,2,,,,,,,,,,,,,,,0,,,76,68
222720,note_on,0,0,2,,,,,,,,,,,,,,,0,,,72,68
222720,set_tempo,40,1,0,,,,,,,,,,,,441176,,,,,,,
222805,control_change,85,0,2,,,,,,,,,,,,,,,0,64,127,,
222840,note_on,0,0,2,,,,,,,,,,,,,,,0,,,76,0
222840,note_on,0,0,2,,,,,,,,,,,,,,,0,,,72,0
222840,note_on,0,0,2,,,,,,,,,,,,,,,0,,,67,0
222840,note_on,35,0,2,,,,,,,,,,,,,,,0,,,79,0
222840,note_on,0,0,1,,,,,,,,,,,,,,,0,,,88,0
222840,note_on,120,0,1,,,,,,,,,,,,,,,0,,,91,0
222840,note_on,0,0,1,,,,,,,,,,,,,,,0,,,79,0
222840,note_on,0,0,1,,,,,,,,,,,,,,,0,,,84,0
222960,note_on,120,0,1,,,,,,,,,,,,,,,0,,,96,83
222960,set_tempo,240,1,0,,,,,,,,,,,,409556,,,,,,,
222960,note_on,120,0,2,,,,,,,,,,,,,,,0,,,84,68
223080,note_on,120,0,1,,,,,,,,,,,,,,,0,,,96,0
223080,note_on,0,0,1,,,,,,,,,,,,,,,0,,,91,81
223080,note_on,120,0,2,,,,,,,,,,,,,,,0,,,84,0
223080,note_on,0,0,2,,,,,,,,,,,,,,,0,,,79,67
223120,set_tempo,160,1,0,,,,,,,,,,,,408163,,,,,,,
223200,note_on,120,0,2,,,,,,,,,,,,,,,0,,,79,0
223200,note_on,0,0,2,,,,,,,,,,,,,,,0,,,76,65
223200,note_on,120,0,1,,,,,,,,,,,,,,,0,,,91,0
223200,note_on,0,0,1,,,,,,,,,,,,,,,0,,,88,81
223240,set_tempo,120,1,0,,,,,,,,,,,,406780,,,,,,,
223320,note_on,120,0,1,,,,,,,,,,,,,,,0,,,88,0
223320,note_on,0,0,1,,,,,,,,,,,,,,,0,,,84,80
223320,note_on,120,0,2,,,,,,,,,,,,,,,0,,,76,0
223320,note_on,0,0,2,,,,,,,,,,,,,,,0,,,72,64
223400,set_tempo,160,1,0,,,,,,,,,,,,405405,,,,,,,
223440,note_on,0,0,2,,,,,,,,,,,,,,,0,,,67,63
223440,note_on,0,0,1,,,,,,,,,,,,,,,0,,,79,78
223440,note_on,120,0,1,,,,,,,,,,,,,,,0,,,84,0
223440,note_on,120,0,2,,,,,,,,,,,,,,,0,,,72,0
223520,set_tempo,120,1,0,,,,,,,,,,,,404040,,,,,,,
223560,note_on,120,0,1,,,,,,,,,,,,,,,0,,,79,0
223560,note_on,120,0,2,,,,,,,,,,,,,,,0,,,67,0
223560,note_on,0,0,1,,,,,,,,,,,,,,,0,,,76,76
223560,note_on,0,0,2,,,,,,,,,,,,,,,0,,,64,63
223640,set_tempo,120,1,0,,,,,,,,,,,,402685,,,,,,,
223680,note_on,0,0,1,,,,,,,,,,,,,,,0,,,72,73
223680,note_on,120,0,2,,,,,,,,,,,,,,,0,,,64,0
223680,note_on,0,0,2,,,,,,,,,,,,,,,0,,,60,60
223680,note_on,120,0,1,,,,,,,,,,,,,,,0,,,76,0
223760,set_tempo,120,1,0,,,,,,,,,,,,404040,,,,,,,
223800,note_on,120,0,1,,,,,,,,,,,,,,,0,,,72,0
223800,note_on,0,0,1,,,,,,,,,,,,,,,0,,,67,74
223800,note_on,120,0,2,,,,,,,,,,,,,,,0,,,60,0
223800,note_on,0,0,2,,,,,,,,,,,,,,,0,,,55,61
223880,set_tempo,120,1,0,,,,,,,,,,,,405405,,,,,,,
223920,note_on,120,0,1,,,,,,,,,,,,,,,0,,,67,0
223920,note_on,120,0,2,,,,,,,,,,,,,,,0,,,55,0
223920,note_on,0,0,2,,,,,,,,,,,,,,,0,,,60,62
223920,note_on,0,0,1,,,,,,,,,,,,,,,0,,,72,75
224000,set_tempo,120,1,0,,,,,,,,,,,,406780,,,,,,,
224040,note_on,120,0,2,,,,,,,,,,,,,,,0,,,60,0
224040,note_on,120,0,1,,,,,,,,,,,,,,,0,,,72,0
224040,note_on,0,0,1,,,,,,,,,,,,,,,0,,,76,76
224040,note_on,0,0,2,,,,,,,,,,,,,,,0,,,64,63
224120,set_tempo,120,1,0,,,,,,,,,,,,408163,,,,,,,
224160,note_on,0,0,1,,,,,,,,,,,,,,,0,,,79,77
224160,note_on,0,0,2,,,,,,,,,,,,,,,0,,,67,64
224160,note_on,120,0,1,,,,,,,,,,,,,,,0,,,76,0
224160,note_on,120,0,2,,,,,,,,,,,,,,,0,,,64,0
224240,set_tempo,120,1,0,,,,,,,,,,,,409556,,,,,,,
224280,note_on,0,0,1,,,,,,,,,,,,,,,0,,,84,78
224280,note_on,0,0,2,,,,,,,,,,,,,,,0,,,72,65
224280,note_on,120,0,1,,,,,,,,,,,,,,,0,,,79,0
224280,note_on,120,0,2,,,,,,,,,,,,,,,0,,,67,0
224320,set_tempo,80,1,0,,,,,,,,,,,,412371,,,,,,,
224360,set_tempo,40,1,0,,,,,,,,,,,,415225,,,,,,,
224400,note_on,120,0,1,,,,,,,,,,,,,,,0,,,84,0
224400,note_on,0,0,1,,,,,,,,,,,,,,,0,,,88,79
224400,note_on,0,0,2,,,,,,,,,,,,,,,0,,,76,66
224400,note_on,120,0,2,,,,,,,,,,,,,,,0,,,72,0
224400,set_tempo,40,1,0,,,,,,,,,,,,418118,,,,,,,
224440,set_tempo,40,1,0,,,,,,,,,,,,421053,,,,,,,
224480,set_tempo,40,1,0,,,,,,,,,,,,424028,,,,,,,
224520,note_on,0,0,2,,,,,,,,,,,,,,,0,,,79,67
224520,note_on,120,0,1,,,,,,,,,,,,,,,0,,,88,0
224520,note_on,0,0,1,,,,,,,,,,,,,,,0,,,91,80
224520,note_on,120,0,2,,,,,,,,,,,,,,,0,,,76,0
224520,set_tempo,40,1,0,,,,,,,,,,,,427046,,,,,,,
224560,set_tempo,40,1,0,,,,,,,,,,,,430108,,,,,,,
224600,set_tempo,40,1,0,,,,,,,,,,,,433213,,,,,,,
224640,note_on,120,0,1,,,,,,,,,,,,,,,0,,,91,0
224640,note_on,0,0,1,,,,,,,,,,,,,,,0,,,88,85
224640,note_on,0,0,1,,,,,,,,,,,,,,,0,,,84,85
224640,note_on,0,0,1,,,,,,,,,,,,,,,0,,,96,101
224640,note_on,0,0,2,,,,,,,,,,,,,,,0,,,76,68
224640,set_tempo,40,1,0,,,,,,,,,,,,458015,,,,,,,
224640,note_on,0,0,2,,,,,,,,,,,,,,,0,,,79,68
224640,note_on,0,0,1,,,,,,,,,,,,,,,0,,,91,85
224640,note_on,0,0,2,,,,,,,,,,,,,,,0,,,72,68
224640,control_change,0,0,2,,,,,,,,,,,,,,,0,64,0,,
224640,note_on,0,0,2,,,,,,,,,,,,,,,0,,,84,80
224640,note_on,120,0,2,,,,,,,,,,,,,,,0,,,79,0
224725,control_change,85,0,2,,,,,,,,,,,,,,,0,64,127,,
224760,note_on,0,0,1,,,,,,,,,,,,,,,0,,,91,0
224760,note_on,0,0,1,,,,,,,,,,,,,,,0,,,88,0
224760,note_on,0,0,1,,,,,,,,,,,,,,,0,,,84,0
224760,note_on,120,0,1,,,,,,,,,,,,,,,0,,,96,0
224760,note_on,0,0,2,,,,,,,,,,,,,,,0,,,76,0
224760,note_on,0,0,2,,,,,,,,,,,,,,,0,,,72,0
224760,note_on,35,0,2,,,,,,,,,,,,,,,0,,,84,0
224760,note_on,0,0,2,,,,,,,,,,,,,,,0,,,79,0
224880,set_tempo,240,1,0,,,,,,,,,,,,409556,,,,,,,
224880,note_on,120,0,1,,,,,,,,,,,,,,,0,,,100,89
224880,note_on,120,0,2,,,,,,,,,,,,,,,0,,,60,73
225000,note_on,0,0,2,,,,,,,,,,,,,,,0,,,55,71
225000,note_on,0,0,1,,,,,,,,,,,,,,,0,,,96,87
225000,note_on,120,0,1,,,,,,,,,,,,,,,0,,,100,0
225000,note_on,120,0,2,,,,,,,,,,,,,,,0,,,60,0
225040,set_tempo,160,1,0,,,,,,,,,,,,408163,,,,,,,
225120,note_on,0,0,2,,,,,,,,,,,,,,,0,,,52,69
225120,note_on,120,0,2,,,,,,,,,,,,,,,0,,,55,0
225120,note_on,120,0,1,,,,,,,,,,,,,,,0,,,96,0
225120,note_on,0,0,1,,,,,,,,,,,,,,,0,,,91,84
225200,set_tempo,160,1,0,,,,,,,,,,,,406780,,,,,,,
225240,note_on,0,0,2,,,,,,,,,,,,,,,0,,,48,67
225240,note_on,120,0,2,,,,,,,,,,,,,,,0,,,52,0
225240,note_on,120,0,1,,,,,,,,,,,,,,,0,,,91,0
225240,note_on,0,0,1,,,,,,,,,,,,,,,0,,,88,81
225320,set_tempo,120,1,0,,,,,,,,,,,,405405,,,,,,,
225360,note_on,120,0,2,,,,,,,,,,,,,,,0,,,48,0
225360,note_on,120,0,1,,,,,,,,,,,,,,,0,,,88,0
225360,note_on,0,0,1,,,,,,,,,,,,,,,0,,,84,79
225360,note_on,0,0,2,,,,,,,,,,,,,,,0,,,43,65
225480,note_on,120,0,2,,,,,,,,,,,,,,,0,,,43,0
225480,note_on,0,0,2,,,,,,,,,,,,,,,0,,,40,63
225480,set_tempo,160,1,0,,,,,,,,,,,,404040,,,,,,,
225480,note_on,0,0,1,,,,,,,,,,,,,,,0,,,79,76
225480,note_on,120,0,1,,,,,,,,,,,,,,,0,,,84,0
225600,set_tempo,120,1,0,,,,,,,,,,,,402685,,,,,,,
225600,note_on,120,0,1,,,,,,,,,,,,,,,0,,,79,0
225600,note_on,0,0,1,,,,,,,,,,,,,,,0,,,76,73
225600,note_on,120,0,2,,,,,,,,,,,,,,,0,,,40,0
225600,note_on,0,0,2,,,,,,,,,,,,,,,0,,,36,60
225720,set_tempo,120,1,0,,,,,,,,,,,,404040,,,,,,,
225720,note_on,120,0,1,,,,,,,,,,,,,,,0,,,76,0
225720,note_on,120,0,2,,,,,,,,,,,,,,,0,,,36,0
225720,note_on,0,0,2,,,,,,,,,,,,,,,0,,,31,61
225720,note_on,0,0,1,,,,,,,,,,,,,,,0,,,72,74
225800,set_tempo,80,1,0,,,,,,,,,,,,405405,,,,,,,
225840,note_on,120,0,1,,,,,,,,,,,,,,,0,,,72,0
225840,note_on,0,0,1,,,,,,,,,,,,,,,0,,,76,75
225840,note_on,0,0,2,,,,,,,,,,,,,,,0,,,36,62
225840,note_on,120,0,2,,,,,,,,,,,,,,,0,,,31,0
225880,set_tempo,80,1,0,,,,,,,,,,,,406780,,,,,,,
225960,note_on,120,0,1,,,,,,,,,,,,,,,0,,,76,0
225960,set_tempo,80,1,0,,,,,,,,,,,,408163,,,,,,,
225960,note_on,0,0,2,,,,,,,,,,,,,,,0,,,40,63
225960,note_on,120,0,2,,,,,,,,,,,,,,,0,,,36,0
225960,note_on,0,0,1,,,,,,,,,,,,,,,0,,,79,76
226040,set_tempo,80,1,0,,,,,,,,,,,,409556,,,,,,,
226080,note_on,0,0,1,,,,,,,,,,,,,,,0,,,84,77
226080,note_on,120,0,1,,,,,,,,,,,,,,,0,,,79,0
226080,note_on,0,0,2,,,,,,,,,,,,,,,0,,,43,64
226080,note_on,120,0,2,,,,,,,,,,,,,,,0,,,40,0
226120,set_tempo,80,1,0,,,,,,,,,,,,410959,,,,,,,
226160,set_tempo,40,1,0,,,,,,,,,,,,412371,,,,,,,
226200,note_on,120,0,2,,,,,,,,,,,,,,,0,,,43,0
226200,note_on,120,0,1,,,,,,,,,,,,,,,0,,,84,0
226200,note_on,0,0,1,,,,,,,,,,,,,,,0,,,88,78
226200,note_on,0,0,2,,,,,,,,,,,,,,,0,,,48,65
226200,set_tempo,40,1,0,,,,,,,,,,,,410959,,,,,,,
226240,set_tempo,40,1,0,,,,,,,,,,,,412371,,,,,,,
226280,set_tempo,40,1,0,,,,,,,,,,,,415225,,,,,,,
226320,note_on,0,0,1,,,,,,,,,,,,,,,0,,,91,79
226320,set_tempo,40,1,0,,,,,,,,,,,,418118,,,,,,,
226320,note_on,120,0,1,,,,,,,,,,,,,,,0,,,88,0
226320,note_on,0,0,2,,,,,,,,,,,,,,,0,,,52,66
226320,note_on,120,0,2,,,,,,,,,,,,,,,0,,,48,0
226360,set_tempo,40,1,0,,,,,,,,,,,,421053,,,,,,,
226400,set_tempo,40,1,0,,,,,,,,,,,,424028,,,,,,,
226440,note_on,120,0,1,,,,,,,,,,,,,,,0,,,91,0
226440,note_on,120,0,2,,,,,,,,,,,,,,,0,,,52,0
226440,set_tempo,40,1,0,,,,,,,,,,,,427046,,,,,,,
226440,note_on,0,0,1,,,,,,,,,,,,,,,0,,,96,80
226440,note_on,0,0,2,,,,,,,,,,,,,,,0,,,55,67
226480,set_tempo,40,1,0,,,,,,,,,,,,430108,,,,,,,
226520,set_tempo,40,1,0,,,,,,,,,,,,433213,,,,,,,
226560,note_on,0,0,2,,,,,,,,,,,,,,,0,,,60,84
226560,note_on,0,0,2,,,,,,,,,,,,,,,0,,,55,71
226560,note_on,0,0,2,,,,,,,,,,,,,,,0,,,52,71
226560,note_on,0,0,2,,,,,,,,,,,,,,,0,,,48,71
226560,control_change,0,0,2,,,,,,,,,,,,,,,0,64,0,,
226560,note_on,120,0,2,,,,,,,,,,,,,,,0,,,55,0
226560,set_tempo,40,1,0,,,,,,,,,,,,436364,,,,,,,
226560,note_on,120,0,1,,,,,,,,,,,,,,,0,,,96,0
226560,note_on,0,0,1,,,,,,,,,,,,,,,0,,,100,103
226560,note_on,0,0,1,,,,,,,,,,,,,,,0,,,96,87
226560,note_on,0,0,1,,,,,,,,,,,,,,,0,,,91,87
226560,note_on,0,0,1,,,,,,,,,,,,,,,0,,,88,87
226773,control_change,213,0,2,,,,,,,,,,,,,,,0,64,127,,
227040,note_on,0,0,1,,,,,,,,,,,,,,,0,,,96,0
227040,note_on,0,0,1,,,,,,,,,,,,,,,0,,,91,0
227040,note_on,0,0,2,,,,,,,,,,,,,,,0,,,55,0
227040,note_on,0,0,2,,,,,,,,,,,,,,,0,,,52,0
227040,note_on,0,0,2,,,,,,,,,,,,,,,0,,,48,0
227040,note_on,480,0,1,,,,,,,,,,,,,,,0,,,100,0
227040,note_on,0,0,1,,,,,,,,,,,,,,,0,,,88,0
227040,note_on,267,0,2,,,,,,,,,,,,,,,0,,,60,0
227067,control_change,27,0,2,,,,,,,,,,,,,,,0,64,0,,
227520,note_on,0,0,2,,,,,,,,,,,,,,,0,,,47,71
227520,note_on,453,0,2,,,,,,,,,,,,,,,0,,,43,71
227520,note_on,480,0,1,,,,,,,,,,,,,,,0,,,79,89
227520,note_on,0,0,2,,,,,,,,,,,,,,,0,,,50,71
227520,note_on,0,0,2,,,,,,,,,,,,,,,0,,,55,84
227520,note_on,0,0,1,,,,,,,,,,,,,,,0,,,91,106
227520,note_on,0,0,1,,,,,,,,,,,,,,,0,,,86,89
227520,note_on,0,0,1,,,,,,,,,,,,,,,0,,,83,89
227760,control_change,240,0,2,,,,,,,,,,,,,,,0,64,127,,
228000,note_on,0,0,1,,,,,,,,,,,,,,,0,,,79,0
228000,note_on,480,0,1,,,,,,,,,,,,,,,0,,,91,0
228000,note_on,0,0,1,,,,,,,,,,,,,,,0,,,83,0
228000,note_on,0,0,2,,,,,,,,,,,,,,,0,,,50,0
228000,note_on,0,0,2,,,,,,,,,,,,,,,0,,,47,0
228000,note_on,240,0,2,,,,,,,,,,,,,,,0,,,55,0
228000,note_on,0,0,1,,,,,,,,,,,,,,,0,,,86,0
228000,note_on,0,0,2,,,,,,,,,,,,,,,0,,,43,0
228027,control_change,27,0,2,,,,,,,,,,,,,,,0,64,0,,
228480,note_on,0,0,2,,,,,,,,,,,,,,,0,,,55,71
228480,note_on,0,0,2,,,,,,,,,,,,,,,0,,,60,84
228480,note_on,0,0,1,,,,,,,,,,,,,,,0,,,88,106
228480,note_on,0,0,1,,,,,,,,,,,,,,,0,,,84,89
228480,note_on,0,0,1,,,,,,,,,,,,,,,0,,,79,89
228480,note_on,480,0,1,,,,,,,,,,,,,,,0,,,76,89
228480,note_on,453,0,2,,,,,,,,,,,,,,,0,,,48,71
228480,note_on,0,0,2,,,,,,,,,,,,,,,0,,,52,71
228587,control_change,107,0,2,,,,,,,,,,,,,,,0,64,127,,
228960,note_on,0,0,1,,,,,,,,,,,,,,,0,,,84,0
228960,note_on,0,0,1,,,,,,,,,,,,,,,0,,,79,0
228960,note_on,0,0,1,,,,,,,,,,,,,,,0,,,76,0
228960,note_on,480,0,1,,,,,,,,,,,,,,,0,,,88,0
228960,note_on,0,0,2,,,,,,,,,,,,,,,0,,,52,0
228960,note_on,0,0,2,,,,,,,,,,,,,,,0,,,48,0
228960,note_on,373,0,2,,,,,,,,,,,,,,,0,,,60,0
228960,note_on,0,0,2,,,,,,,,,,,,,,,0,,,55,0
229040,control_change,80,0,2,,,,,,,,,,,,,,,0,64,0,,
229440,note_on,0,0,2,,,,,,,,,,,,,,,0,,,55,84
229440,note_on,0,0,2,,,,,,,,,,,,,,,0,,,50,71
229440,note_on,0,0,2,,,,,,,,,,,,,,,0,,,47,71
229440,note_on,400,0,2,,,,,,,,,,,,,,,0,,,43,71
229440,note_on,480,0,1,,,,,,,,,,,,,,,0,,,79,89
229440,note_on,0,0,1,,,,,,,,,,,,,,,0,,,83,89
229440,note_on,0,0,1,,,,,,,,,,,,,,,0,,,91,106
229440,note_on,0,0,1,,,,,,,,,,,,,,,0,,,86,89
229680,control_change,240,0,2,,,,,,,,,,,,,,,0,64,127,,
229920,note_on,0,0,2,,,,,,,,,,,,,,,0,,,50,0
229920,note_on,0,0,2,,,,,,,,,,,,,,,0,,,47,0
229920,note_on,0,0,2,,,,,,,,,,,,,,,0,,,43,0
229920,note_on,240,0,2,,,,,,,,,,,,,,,0,,,55,0
229920,note_on,0,0,1,,,,,,,,,,,,,,,0,,,86,0
229920,note_on,0,0,1,,,,,,,,,,,,,,,0,,,83,0
229920,note_on,0,0,1,,,,,,,,,,,,,,,0,,,79,0
229920,note_on,480,0,1,,,,,,,,,,,,,,,0,,,91,0
230107,control_change,187,0,2,,,,,,,,,,,,,,,0,64,0,,
230360,set_tempo,3800,1,0,,,,,,,,,,,,418118,,,,,,,
230400,note_on,480,0,1,,,,,,,,,,,,,,,0,,,72,56
230400,note_on,293,0,2,,,,,,,,,,,,,,,0,,,48,45
230433,control_change,33,0,2,,,,,,,,,,,,,,,0,64,127,,
230440,set_tempo,80,1,0,,,,,,,,,,,,416667,,,,,,,
230480,set_tempo,40,1,0,,,,,,,,,,,,415225,,,,,,,
230520,note_on,87,0,2,,,,,,,,,,,,,,,0,,,48,0
230520,note_on,0,0,2,,,,,,,,,,,,,,,0,,,60,48
230520,note_on,0,0,1,,,,,,,,,,,,,,,0,,,84,57
230520,note_on,120,0,1,,,,,,,,,,,,,,,0,,,72,0
230560,set_tempo,80,1,0,,,,,,,,,,,,413793,,,,,,,
230600,set_tempo,40,1,0,,,,,,,,,,,,412371,,,,,,,
230640,note_on,0,0,1,,,,,,,,,,,,,,,0,,,72,50
230640,note_on,0,0,1,,,,,,,,,,,,,,,0,,,75,50
230640,note_on,0,0,1,,,,,,,,,,,,,,,0,,,78,60
230640,note_on,120,0,1,,,,,,,,,,,,,,,0,,,84,0
230640,note_on,0,0,2,,,,,,,,,,,,,,,0,,,54,50
230640,note_on,0,0,2,,,,,,,,,,,,,,,0,,,51,43
230640,note_on,0,0,2,,,,,,,,,,,,,,,0,,,48,43
230640,note_on,120,0,2,,,,,,,,,,,,,,,0,,,60,0
230680,set_tempo,80,1,0,,,,,,,,,,,,410959,,,,,,,
230720,set_tempo,40,1,0,,,,,,,,,,,,409556,,,,,,,
230760,note_on,120,0,2,,,,,,,,,,,,,,,0,,,48,0
230760,note_on,0,0,2,,,,,,,,,,,,,,,0,,,54,0
230760,note_on,0,0,2,,,,,,,,,,,,,,,0,,,60,53
230760,note_on,0,0,1,,,,,,,,,,,,,,,0,,,75,0
230760,note_on,0,0,1,,,,,,,,,,,,,,,0,,,78,0
230760,note_on,0,0,1,,,,,,,,,,,,,,,0,,,84,63
230760,note_on,120,0,1,,,,,,,,,,,,,,,0,,,72,0
230760,note_on,0,0,2,,,,,,,,,,,,,,,0,,,51,0
230800,set_tempo,80,1,0,,,,,,,,,,,,408163,,,,,,,
230840,set_tempo,40,1,0,,,,,,,,,,,,406780,,,,,,,
230880,note_on,120,0,1,,,,,,,,,,,,,,,0,,,84,0
230880,note_on,0,0,1,,,,,,,,,,,,,,,0,,,72,54
230880,note_on,0,0,1,,,,,,,,,,,,,,,0,,,79,65
230880,set_tempo,40,1,0,,,,,,,,,,,,405405,,,,,,,
230880,note_on,0,0,1,,,,,,,,,,,,,,,0,,,76,54
230880,note_on,120,0,2,,,,,,,,,,,,,,,0,,,60,0
230880,note_on,0,0,2,,,,,,,,,,,,,,,0,,,48,47
230880,note_on,0,0,2,,,,,,,,,,,,,,,0,,,52,47
230880,note_on,0,0,2,,,,,,,,,,,,,,,0,,,55,55
230890,control_change,10,0,2,,,,,,,,,,,,,,,0,64,0,,
230942,control_change,52,0,2,,,,,,,,,,,,,,,0,64,127,,
230960,set_tempo,80,1,0,,,,,,,,,,,,406780,,,,,,,
231000,note_on,0,0,2,,,,,,,,,,,,,,,0,,,52,0
231000,note_on,0,0,2,,,,,,,,,,,,,,,0,,,48,0
231000,note_on,0,0,1,,,,,,,,,,,,,,,0,,,76,0
231000,note_on,0,0,2,,,,,,,,,,,,,,,0,,,60,59
231000,note_on,120,0,1,,,,,,,,,,,,,,,0,,,79,0
231000,note_on,58,0,2,,,,,,,,,,,,,,,0,,,55,0
231000,note_on,0,0,1,,,,,,,,,,,,,,,0,,,84,67
231000,note_on,0,0,1,,,,,,,,,,,,,,,0,,,72,0
231120,note_on,0,0,1,,,,,,,,,,,,,,,0,,,78,70
231120,note_on,120,0,1,,,,,,,,,,,,,,,0,,,84,0
231120,note_on,0,0,2,,,,,,,,,,,,,,,0,,,51,52
231120,note_on,0,0,2,,,,,,,,,,,,,,,0,,,54,62
231120,note_on,120,0,2,,,,,,,,,,,,,,,0,,,60,0
231120,note_on,0,0,2,,,,,,,,,,,,,,,0,,,48,52
231120,note_on,0,0,1,,,,,,,,,,,,,,,0,,,75,59
231120,note_on,0,0,1,,,,,,,,,,,,,,,0,,,72,59
231240,note_on,0,0,2,,,,,,,,,,,,,,,0,,,60,64
231240,note_on,0,0,1,,,,,,,,,,,,,,,0,,,75,0
231240,note_on,120,0,1,,,,,,,,,,,,,,,0,,,72,0
231240,note_on,120,0,2,,,,,,,,,,,,,,,0,,,48,0
231240,note_on,0,0,2,,,,,,,,,,,,,,,0,,,51,0
231240,note_on,0,0,2,,,,,,,,,,,,,,,0,,,54,0
231240,note_on,0,0,1,,,,,,,,,,,,,,,0,,,84,72
231240,note_on,0,0,1,,,,,,,,,,,,,,,0,,,78,0
231320,set_tempo,360,1,0,,,,,,,,,,,,405405,,,,,,,
231360,note_on,120,0,1,,,,,,,,,,,,,,,0,,,84,0
231360,note_on,0,0,2,,,,,,,,,,,,,,,0,,,48,56
231360,note_on,0,0,2,,,,,,,,,,,,,,,0,,,52,56
231360,set_tempo,40,1,0,,,,,,,,,,,,406780,,,,,,,
231360,note_on,0,0,2,,,,,,,,,,,,,,,0,,,55,66
231360,note_on,120,0,2,,,,,,,,,,,,,,,0,,,60,0
231360,note_on,0,0,1,,,,,,,,,,,,,,,0,,,72,62
231360,note_on,0,0,1,,,,,,,,,,,,,,,0,,,76,62
231360,note_on,0,0,1,,,,,,,,,,,,,,,0,,,79,74
231368,control_change,8,0,2,,,,,,,,,,,,,,,0,64,0,,
231401,control_change,33,0,2,,,,,,,,,,,,,,,0,64,127,,
231440,set_tempo,80,1,0,,,,,,,,,,,,408163,,,,,,,
231480,note_on,0,0,2,,,,,,,,,,,,,,,0,,,52,0
231480,note_on,79,0,2,,,,,,,,,,,,,,,0,,,55,0
231480,note_on,120,0,1,,,,,,,,,,,,,,,0,,,79,0
231480,note_on,0,0,2,,,,,,,,,,,,,,,0,,,60,70
231480,note_on,0,0,2,,,,,,,,,,,,,,,0,,,48,0
231480,note_on,0,0,1,,,,,,,,,,,,,,,0,,,84,77
231480,note_on,0,0,1,,,,,,,,,,,,,,,0,,,72,0
231480,note_on,0,0,1,,,,,,,,,,,,,,,0,,,76,0
231520,set_tempo,80,1,0,,,,,,,,,,,,409556,,,,,,,
231560,set_tempo,40,1,0,,,,,,,,,,,,410959,,,,,,,
231600,note_on,0,0,1,,,,,,,,,,,,,,,0,,,72,67
231600,note_on,0,0,2,,,,,,,,,,,,,,,0,,,48,61
231600,note_on,0,0,1,,,,,,,,,,,,,,,0,,,75,67
231600,note_on,120,0,2,,,,,,,,,,,,,,,0,,,60,0
231600,note_on,0,0,2,,,,,,,,,,,,,,,0,,,54,73
231600,note_on,0,0,2,,,,,,,,,,,,,,,0,,,51,61
231600,note_on,120,0,1,,,,,,,,,,,,,,,0,,,84,0
231600,note_on,0,0,1,,,,,,,,,,,,,,,0,,,78,80
231640,set_tempo,80,1,0,,,,,,,,,,,,412371,,,,,,,
231720,set_tempo,80,1,0,,,,,,,,,,,,413793,,,,,,,
231720,note_on,120,0,1,,,,,,,,,,,,,,,0,,,72,0
231720,note_on,0,0,1,,,,,,,,,,,,,,,0,,,75,0
231720,note_on,0,0,1,,,,,,,,,,,,,,,0,,,78,0
231720,note_on,0,0,1,,,,,,,,,,,,,,,0,,,84,83
231720,note_on,0,0,2,,,,,,,,,,,,,,,0,,,60,75
231720,note_on,120,0,2,,,,,,,,,,,,,,,0,,,48,0
231720,note_on,0,0,2,,,,,,,,,,,,,,,0,,,51,0
231720,note_on,0,0,2,,,,,,,,,,,,,,,0,,,54,0
231760,set_tempo,40,1,0,,,,,,,,,,,,415225,,,,,,,
231800,set_tempo,40,1,0,,,,,,,,,,,,406780,,,,,,,
231840,note_on,0,0,1,,,,,,,,,,,,,,,0,,,76,71
231840,note_on,0,0,1,,,,,,,,,,,,,,,0,,,72,71
231840,note_on,120,0,1,,,,,,,,,,,,,,,0,,,84,0
231840,set_tempo,40,1,0,,,,,,,,,,,,418118,,,,,,,
231840,note_on,120,0,2,,,,,,,,,,,,,,,0,,,60,0
231840,note_on,0,0,2,,,,,,,,,,,,,,,0,,,48,65
231840,note_on,0,0,2,,,,,,,,,,,,,,,0,,,52,65
231840,note_on,0,0,2,,,,,,,,,,,,,,,0,,,55,76
231840,note_on,0,0,1,,,,,,,,,,,,,,,0,,,79,85
231844,control_change,4,0,2,,,,,,,,,,,,,,,0,64,0,,
231861,control_change,17,0,2,,,,,,,,,,,,,,,0,64,127,,
231880,set_tempo,40,1,0,,,,,,,,,,,,419580,,,,,,,
231920,set_tempo,40,1,0,,,,,,,,,,,,421053,,,,,,,
231960,note_on,0,0,2,,,,,,,,,,,,,,,0,,,48,0
231960,note_on,0,0,2,,,,,,,,,,,,,,,0,,,60,74
231960,note_on,0,0,2,,,,,,,,,,,,,,,0,,,52,0
231960,note_on,99,0,2,,,,,,,,,,,,,,,0,,,55,0
231960,note_on,120,0,1,,,,,,,,,,,,,,,0,,,79,0
231960,set_tempo,40,1,0,,,,,,,,,,,,422535,,,,,,,
231960,note_on,0,0,1,,,,,,,,,,,,,,,0,,,76,0
231960,note_on,0,0,1,,,,,,,,,,,,,,,0,,,72,0
231960,note_on,0,0,1,,,,,,,,,,,,,,,0,,,84,82
232000,set_tempo,40,1,0,,,,,,,,,,,,424028,,,,,,,
232020,set_tempo,20,1,0,,,,,,,,,,,,428571,,,,,,,
232040,set_tempo,20,1,0,,,,,,,,,,,,430108,,,,,,,
232060,set_tempo,20,1,0,,,,,,,,,,,,431655,,,,,,,
232080,note_on,120,0,2,,,,,,,,,,,,,,,0,,,60,0
232080,note_on,0,0,2,,,,,,,,,,,,,,,0,,,54,72
232080,note_on,120,0,1,,,,,,,,,,,,,,,0,,,84,0
232080,note_on,0,0,1,,,,,,,,,,,,,,,0,,,78,80
232080,note_on,0,0,1,,,,,,,,,,,,,,,0,,,72,68
232080,note_on,0,0,2,,,,,,,,,,,,,,,0,,,48,60
232080,set_tempo,20,1,0,,,,,,,,,,,,434783,,,,,,,
232080,note_on,0,0,1,,,,,,,,,,,,,,,0,,,75,68
232080,note_on,0,0,2,,,,,,,,,,,,,,,0,,,51,60
232100,set_tempo,20,1,0,,,,,,,,,,,,436364,,,,,,,
232120,set_tempo,20,1,0,,,,,,,,,,,,439560,,,,,,,
232140,set_tempo,20,1,0,,,,,,,,,,,,441176,,,,,,,
232160,set_tempo,20,1,0,,,,,,,,,,,,442804,,,,,,,
232180,set_tempo,20,1,0,,,,,,,,,,,,446097,,,,,,,
232200,set_tempo,20,1,0,,,,,,,,,,,,447761,,,,,,,
232200,note_on,0,0,2,,,,,,,,,,,,,,,0,,,51,0
232200,note_on,0,0,2,,,,,,,,,,,,,,,0,,,54,0
232200,note_on,120,0,1,,,,,,,,,,,,,,,0,,,72,0
232200,note_on,0,0,1,,,,,,,,,,,,,,,0,,,75,0
232200,note_on,0,0,1,,,,,,,,,,,,,,,0,,,78,0
232200,note_on,0,0,1,,,,,,,,,,,,,,,0,,,84,78
232200,note_on,0,0,2,,,,,,,,,,,,,,,0,,,60,70
232200,note_on,120,0,2,,,,,,,,,,,,,,,0,,,48,0
232220,set_tempo,20,1,0,,,,,,,,,,,,451128,,,,,,,
232240,set_tempo,20,1,0,,,,,,,,,,,,452830,,,,,,,
232260,set_tempo,20,1,0,,,,,,,,,,,,456274,,,,,,,
232280,set_tempo,20,1,0,,,,,,,,,,,,434783,,,,,,,
232320,note_on,120,0,2,,,,,,,,,,,,,,,0,,,60,0
232320,note_on,0,0,2,,,,,,,,,,,,,,,0,,,48,64
232320,note_on,0,0,2,,,,,,,,,,,,,,,0,,,52,64
232320,note_on,0,0,2,,,,,,,,,,,,,,,0,,,55,64
232320,control_change,0,0,2,,,,,,,,,,,,,,,0,64,0,,
232320,set_tempo,40,1,0,,,,,,,,,,,,474308,,,,,,,
232320,note_on,120,0,1,,,,,,,,,,,,,,,0,,,84,0
232320,note_on,0,0,1,,,,,,,,,,,,,,,0,,,72,81
232320,note_on,0,0,1,,,,,,,,,,,,,,,0,,,76,81
232320,note_on,0,0,1,,,,,,,,,,,,,,,0,,,79,81
232320,note_on,0,0,1,,,,,,,,,,,,,,,0,,,84,97
232320,note_on,0,0,2,,,,,,,,,,,,,,,0,,,60,77
232613,control_change,293,0,2,,,,,,,,,,,,,,,0,64,127,,
232800,note_on,0,0,2,,,,,,,,,,,,,,,0,,,52,0
232800,note_on,0,0,2,,,,,,,,,,,,,,,0,,,55,0
232800,note_on,0,0,1,,,,,,,,,,,,,,,0,,,76,0
232800,note_on,0,0,1,,,,,,,,,,,,,,,0,,,79,0
232800,note_on,0,0,2,,,,,,,,,,,,,,,0,,,48,0
232800,note_on,480,0,1,,,,,,,,,,,,,,,0,,,84,0
232800,note_on,0,0,1,,,,,,,,,,,,,,,0,,,72,0
232800,note_on,187,0,2,,,,,,,,,,,,,,,0,,,60,0
232972,control_change,172,0,2,,,,,,,,,,,,,,,0,64,0,,
233280,set_tempo,960,1,0,,,,,,,,,,,,528634,,,,,,,
233280,note_on,0,0,1,,,,,,,,,,,,,,,0,,,91,89
233280,note_on,308,0,2,,,,,,,,,,,,,,,0,,,60,71
233280,note_on,0,0,2,,,,,,,,,,,,,,,0,,,64,71
233280,note_on,0,0,2,,,,,,,,,,,,,,,0,,,67,71
233280,note_on,0,0,2,,,,,,,,,,,,,,,0,,,72,84
233280,note_on,0,0,1,,,,,,,,,,,,,,,0,,,88,89
233280,note_on,480,0,1,,,,,,,,,,,,,,,0,,,84,89
233280,note_on,0,0,1,,,,,,,,,,,,,,,0,,,96,106
233493,control_change,213,0,2,,,,,,,,,,,,,,,0,64,127,,
233760,note_on,0,0,1,,,,,,,,,,,,,,,0,,,84,0
233760,note_on,0,0,1,,,,,,,,,,,,,,,0,,,88,0
233760,note_on,0,0,1,,,,,,,,,,,,,,,0,,,91,0
233760,note_on,480,0,1,,,,,,,,,,,,,,,0,,,96,0
233760,note_on,0,0,2,,,,,,,,,,,,,,,0,,,67,0
233760,note_on,0,0,2,,,,,,,,,,,,,,,0,,,64,0
233760,note_on,0,0,2,,,,,,,,,,,,,,,0,,,60,0
233760,note_on,267,0,2,,,,,,,,,,,,,,,0,,,72,0
233911,control_change,151,0,2,,,,,,,,,,,,,,,0,64,0,,
234240,note_on,0,0,2,,,,,,,,,,,,,,,0,,,48,84
234240,note_on,329,0,2,,,,,,,,,,,,,,,0,,,36,71
234240,note_on,0,0,1,,,,,,,,,,,,,,,0,,,60,106
234240,note_on,0,0,1,,,,,,,,,,,,,,,0,,,55,89
234240,note_on,480,0,1,,,,,,,,,,,,,,,0,,,52,89
234240,note_on,0,0,2,,,,,,,,,,,,,,,0,,,43,71
234240,note_on,0,0,2,,,,,,,,,,,,,,,0,,,40,71
234427,control_change,187,0,2,,,,,,,,,,,,,,,0,64,127,,
235200,note_on,960,0,1,,,,,,,,,,,,,,,0,,,60,0
235200,note_on,0,0,1,,,,,,,,,,,,,,,0,,,55,0
235200,note_on,0,0,2,,,,,,,,,,,,,,,0,,,36,0
235200,note_on,0,0,2,,,,,,,,,,,,,,,0,,,43,0
235200,note_on,0,0,2,,,,,,,,,,,,,,,0,,,40,0
235200,note_on,773,0,2,,,,,,,,,,,,,,,0,,,48,0
235200,end_of_track,0,1,1,,,,,,,,,,,,,,,,,,,
235200,note_on,0,0,1,,,,,,,,,,,,,,,0,,,52,0
235387,end_of_track,0,1,2,,,,,,,,,,,,,,,,,,,
235387,control_change,187,0,2,,,,,,,,,,,,,,,0,64,0,,
236160,end_of_track,0,1,0,,,,,,,,,,,,,,,,,,,
236160,set_tempo,2880,1,0,,,,,,,,,,,,500000,,,,,,,
