tick,type,time,meta,track,frame_rate,hours,minutes,seconds,frames,sub_frames,numerator,denominator,clocks_per_click,notated_32nd_notes_per_beat,key,tempo,port,program,channel,control,value,note,velocity
0,track_name,0,1,0,,,,,,,,,,,,,,,,,,,
0,program_change,0,0,1,,,,,,,,,,,,,,0,0,,,,
0,control_change,0,0,1,,,,,,,,,,,,,,,0,7,100,,
0,control_change,0,0,1,,,,,,,,,,,,,,,0,91,127,,
0,note_on,0,0,1,,,,,,,,,,,,,,,0,,,67,84
0,text,0,1,1,,,,,,,,,,,,,,,,,,,
0,midi_port,0,1,8,,,,,,,,,,,,,0,,,,,,
0,midi_port,0,1,2,,,,,,,,,,,,,0,,,,,,
0,track_name,0,1,2,,,,,,,,,,,,,,,,,,,
0,program_change,0,0,2,,,,,,,,,,,,,,0,0,,,,
0,control_change,0,0,2,,,,,,,,,,,,,,,0,7,100,,
0,note_on,0,0,2,,,,,,,,,,,,,,,0,,,55,74
0,midi_port,0,1,3,,,,,,,,,,,,,0,,,,,,
0,track_name,0,1,1,,,,,,,,,,,,,,,,,,,
0,track_name,0,1,3,,,,,,,,,,,,,,,,,,,
0,midi_port,0,1,4,,,,,,,,,,,,,0,,,,,,
0,track_name,0,1,4,,,,,,,,,,,,,,,,,,,
0,end_of_track,0,1,4,,,,,,,,,,,,,,,,,,,
0,midi_port,0,1,5,,,,,,,,,,,,,0,,,,,,
0,track_name,0,1,5,,,,,,,,,,,,,,,,,,,
0,end_of_track,0,1,5,,,,,,,,,,,,,,,,,,,
0,midi_port,0,1,6,,,,,,,,,,,,,0,,,,,,
0,track_name,0,1,6,,,,,,,,,,,,,,,,,,,
0,end_of_track,0,1,6,,,,,,,,,,,,,,,,,,,
0,midi_port,0,1,7,,,,,,,,,,,,,0,,,,,,
0,track_name,0,1,7,,,,,,,,,,,,,,,,,,,
0,end_of_track,0,1,7,,,,,,,,,,,,,,,,,,,
0,end_of_track,0,1,3,,,,,,,,,,,,,,,,,,,
0,midi_port,0,1,1,,,,,,,,,,,,,0,,,,,,
0,end_of_track,0,1,8,,,,,,,,,,,,,,,,,,,
0,copyright,0,1,0,,,,,,,,,,,,,,,,,,,
0,set_tempo,0,1,0,,,,,,,,,,,,412371,,,,,,,
0,key_signature,0,1,0,,,,,,,,,,,Ab,,,,,,,,
0,time_signature,0,1,0,,,,,,,3,8,12,8,,,,,,,,,
0,text,0,1,0,,,,,,,,,,,,,,,,,,,
0,text,0,1,0,,,,,,,,,,,,,,,,,,,
0,text,0,1,0,,,,,,,,,,,,,,,,,,,
0,text,0,1,0,,,,,,,,,,,,,,,,,,,
0,smpte_offset,0,1,0,25,32,0,3,0,0,,,,,,,,,,,,,
120,note_on,0,0,2,,,,,,,,,,,,,,,0,,,56,67
120,note_on,120,0,2,,,,,,,,,,,,,,,0,,,55,0
120,note_on,0,0,1,,,,,,,,,,,,,,,0,,,68,70
120,note_on,120,0,1,,,,,,,,,,,,,,,0,,,67,0
240,set_tempo,240,1,0,,,,,,,,,,,,428571,,,,,,,
240,note_on,0,0,2,,,,,,,,,,,,,,,0,,,51,70
240,note_on,120,0,2,,,,,,,,,,,,,,,0,,,56,0
240,note_on,0,0,1,,,,,,,,,,,,,,,0,,,63,75
240,note_on,120,0,1,,,,,,,,,,,,,,,0,,,68,0
360,note_on,0,0,2,,,,,,,,,,,,,,,0,,,48,67
360,note_on,0,0,1,,,,,,,,,,,,,,,0,,,60,70
360,note_on,120,0,1,,,,,,,,,,,,,,,0,,,63,0
360,note_on,120,0,2,,,,,,,,,,,,,,,0,,,51,0
480,note_on,0,0,2,,,,,,,,,,,,,,,0,,,44,70
480,note_on,120,0,2,,,,,,,,,,,,,,,0,,,48,0
480,set_tempo,240,1,0,,,,,,,,,,,,485830,,,,,,,
480,note_on,120,0,1,,,,,,,,,,,,,,,0,,,60,0
480,note_on,0,0,1,,,,,,,,,,,,,,,0,,,56,76
600,note_on,120,0,2,,,,,,,,,,,,,,,0,,,44,0
600,note_on,120,0,1,,,,,,,,,,,,,,,0,,,56,0
720,note_on,120,0,2,,,,,,,,,,,,,,,0,,,55,73
720,text,0,1,1,,,,,,,,,,,,,,,,,,,
720,set_tempo,240,1,0,,,,,,,,,,,,415225,,,,,,,
720,note_on,120,0,1,,,,,,,,,,,,,,,0,,,67,85
720,control_change,0,0,1,,,,,,,,,,,,,,,0,91,127,,
840,note_on,0,0,1,,,,,,,,,,,,,,,0,,,68,70
840,note_on,0,0,2,,,,,,,,,,,,,,,0,,,56,67
840,note_on,120,0,2,,,,,,,,,,,,,,,0,,,55,0
840,note_on,120,0,1,,,,,,,,,,,,,,,0,,,67,0
960,note_on,0,0,2,,,,,,,,,,,,,,,0,,,51,70
960,note_on,120,0,2,,,,,,,,,,,,,,,0,,,56,0
960,note_on,0,0,1,,,,,,,,,,,,,,,0,,,63,75
960,note_on,120,0,1,,,,,,,,,,,,,,,0,,,68,0
960,set_tempo,240,1,0,,,,,,,,,,,,427046,,,,,,,
1080,note_on,120,0,2,,,,,,,,,,,,,,,0,,,51,0
1080,note_on,0,0,1,,,,,,,,,,,,,,,0,,,60,70
1080,note_on,120,0,1,,,,,,,,,,,,,,,0,,,63,0
1080,note_on,0,0,2,,,,,,,,,,,,,,,0,,,48,67
1200,note_on,120,0,2,,,,,,,,,,,,,,,0,,,48,0
1200,note_on,120,0,1,,,,,,,,,,,,,,,0,,,60,0
1200,note_on,0,0,1,,,,,,,,,,,,,,,0,,,56,76
1200,set_tempo,240,1,0,,,,,,,,,,,,476190,,,,,,,
1200,note_on,0,0,2,,,,,,,,,,,,,,,0,,,44,70
1320,note_on,120,0,1,,,,,,,,,,,,,,,0,,,56,0
1320,note_on,120,0,2,,,,,,,,,,,,,,,0,,,44,0
1440,note_on,0,0,2,,,,,,,,,,,,,,,0,,,56,72
1440,note_on,0,0,2,,,,,,,,,,,,,,,0,,,51,61
1440,note_on,0,0,2,,,,,,,,,,,,,,,0,,,44,61
1440,control_change,120,0,2,,,,,,,,,,,,,,,0,64,127,,
1440,set_tempo,240,1,0,,,,,,,,,,,,436364,,,,,,,
1440,note_on,0,0,1,,,,,,,,,,,,,,,0,,,75,89
1440,note_on,0,0,1,,,,,,,,,,,,,,,0,,,72,75
1440,note_on,120,0,1,,,,,,,,,,,,,,,0,,,63,75
1800,note_on,360,0,1,,,,,,,,,,,,,,,0,,,75,0
1800,note_on,0,0,1,,,,,,,,,,,,,,,0,,,63,0
1800,note_on,0,0,1,,,,,,,,,,,,,,,0,,,72,0
1800,note_on,0,0,2,,,,,,,,,,,,,,,0,,,51,56
1800,note_on,0,0,2,,,,,,,,,,,,,,,0,,,56,67
1800,note_on,0,0,2,,,,,,,,,,,,,,,0,,,44,0
1800,note_on,0,0,2,,,,,,,,,,,,,,,0,,,51,0
1800,note_on,0,0,1,,,,,,,,,,,,,,,0,,,63,72
1800,note_on,0,0,1,,,,,,,,,,,,,,,0,,,72,72
1800,note_on,0,0,1,,,,,,,,,,,,,,,0,,,75,85
1800,note_on,360,0,2,,,,,,,,,,,,,,,0,,,56,0
1800,note_on,0,0,2,,,,,,,,,,,,,,,0,,,44,56
1920,note_on,0,0,1,,,,,,,,,,,,,,,0,,,72,75
1920,note_on,0,0,1,,,,,,,,,,,,,,,0,,,75,89
1920,set_tempo,480,1,0,,,,,,,,,,,,476190,,,,,,,
1920,note_on,120,0,1,,,,,,,,,,,,,,,0,,,75,0
1920,note_on,0,0,1,,,,,,,,,,,,,,,0,,,63,0
1920,note_on,0,0,2,,,,,,,,,,,,,,,0,,,56,73
1920,note_on,0,0,2,,,,,,,,,,,,,,,0,,,51,62
1920,note_on,0,0,2,,,,,,,,,,,,,,,0,,,44,62
1920,note_on,0,0,2,,,,,,,,,,,,,,,0,,,44,0
1920,note_on,0,0,2,,,,,,,,,,,,,,,0,,,51,0
1920,note_on,120,0,2,,,,,,,,,,,,,,,0,,,56,0
1920,note_on,0,0,1,,,,,,,,,,,,,,,0,,,72,0
1920,note_on,0,0,1,,,,,,,,,,,,,,,0,,,63,75
2040,note_on,0,0,1,,,,,,,,,,,,,,,0,,,63,0
2040,note_on,0,0,1,,,,,,,,,,,,,,,0,,,72,0
2040,note_on,120,0,1,,,,,,,,,,,,,,,0,,,75,0
2040,note_on,0,0,2,,,,,,,,,,,,,,,0,,,44,0
2040,note_on,120,0,2,,,,,,,,,,,,,,,0,,,56,0
2040,note_on,0,0,2,,,,,,,,,,,,,,,0,,,51,0
2040,control_change,0,0,2,,,,,,,,,,,,,,,0,64,0,,
2160,note_on,0,0,1,,,,,,,,,,,,,,,0,,,72,75
2160,set_tempo,240,1,0,,,,,,,,,,,,436364,,,,,,,
2160,note_on,120,0,1,,,,,,,,,,,,,,,0,,,63,75
2160,note_on,120,0,2,,,,,,,,,,,,,,,0,,,44,61
2160,note_on,0,0,2,,,,,,,,,,,,,,,0,,,51,61
2160,note_on,0,0,2,,,,,,,,,,,,,,,0,,,56,72
2160,note_on,0,0,1,,,,,,,,,,,,,,,0,,,75,89
2238,control_change,78,0,2,,,,,,,,,,,,,,,0,64,127,,
2520,note_on,0,0,1,,,,,,,,,,,,,,,0,,,63,0
2520,note_on,0,0,1,,,,,,,,,,,,,,,0,,,72,0
2520,note_on,360,0,1,,,,,,,,,,,,,,,0,,,75,0
2520,note_on,0,0,2,,,,,,,,,,,,,,,0,,,56,67
2520,note_on,282,0,2,,,,,,,,,,,,,,,0,,,56,0
2520,note_on,0,0,2,,,,,,,,,,,,,,,0,,,44,56
2520,note_on,0,0,2,,,,,,,,,,,,,,,0,,,44,0
2520,note_on,0,0,2,,,,,,,,,,,,,,,0,,,51,0
2520,note_on,0,0,1,,,,,,,,,,,,,,,0,,,72,72
2520,note_on,0,0,2,,,,,,,,,,,,,,,0,,,51,56
2520,note_on,0,0,1,,,,,,,,,,,,,,,0,,,75,85
2520,note_on,0,0,1,,,,,,,,,,,,,,,0,,,63,72
2640,note_on,0,0,1,,,,,,,,,,,,,,,0,,,75,89
2640,set_tempo,480,1,0,,,,,,,,,,,,474308,,,,,,,
2640,note_on,0,0,2,,,,,,,,,,,,,,,0,,,44,62
2640,note_on,0,0,2,,,,,,,,,,,,,,,0,,,51,62
2640,note_on,0,0,2,,,,,,,,,,,,,,,0,,,56,73
2640,note_on,120,0,2,,,,,,,,,,,,,,,0,,,56,0
2640,note_on,0,0,2,,,,,,,,,,,,,,,0,,,51,0
2640,note_on,0,0,2,,,,,,,,,,,,,,,0,,,44,0
2640,note_on,0,0,1,,,,,,,,,,,,,,,0,,,72,75
2640,note_on,120,0,1,,,,,,,,,,,,,,,0,,,75,0
2640,note_on,0,0,1,,,,,,,,,,,,,,,0,,,63,75
2640,note_on,0,0,1,,,,,,,,,,,,,,,0,,,63,0
2640,note_on,0,0,1,,,,,,,,,,,,,,,0,,,72,0
2760,note_on,0,0,1,,,,,,,,,,,,,,,0,,,72,0
2760,note_on,0,0,1,,,,,,,,,,,,,,,0,,,63,0
2760,note_on,0,0,2,,,,,,,,,,,,,,,0,,,51,0
2760,note_on,0,0,2,,,,,,,,,,,,,,,0,,,44,0
2760,control_change,0,0,2,,,,,,,,,,,,,,,0,64,0,,
2760,note_on,120,0,1,,,,,,,,,,,,,,,0,,,75,0
2760,note_on,120,0,2,,,,,,,,,,,,,,,0,,,56,0
2880,note_on,0,0,2,,,,,,,,,,,,,,,0,,,56,74
2880,note_on,0,0,2,,,,,,,,,,,,,,,0,,,51,62
2880,set_tempo,240,1,0,,,,,,,,,,,,413793,,,,,,,
2880,note_on,120,0,1,,,,,,,,,,,,,,,0,,,63,68
2880,note_on,0,0,1,,,,,,,,,,,,,,,0,,,71,68
2880,note_on,0,0,1,,,,,,,,,,,,,,,0,,,75,80
2880,note_on,120,0,2,,,,,,,,,,,,,,,0,,,44,62
3000,note_on,0,0,1,,,,,,,,,,,,,,,0,,,71,0
3000,note_on,0,0,1,,,,,,,,,,,,,,,0,,,63,0
3000,note_on,0,0,1,,,,,,,,,,,,,,,0,,,72,73
3000,note_on,120,0,1,,,,,,,,,,,,,,,0,,,75,0
3120,note_on,0,0,2,,,,,,,,,,,,,,,0,,,44,0
3120,note_on,0,0,2,,,,,,,,,,,,,,,0,,,51,0
3120,note_on,240,0,2,,,,,,,,,,,,,,,0,,,56,0
3120,note_on,120,0,1,,,,,,,,,,,,,,,0,,,72,0
3120,note_on,0,0,1,,,,,,,,,,,,,,,0,,,68,73
3120,set_tempo,240,1,0,,,,,,,,,,,,427046,,,,,,,
3240,note_on,120,0,1,,,,,,,,,,,,,,,0,,,68,0
3240,note_on,0,0,1,,,,,,,,,,,,,,,0,,,63,73
3360,note_on,120,0,1,,,,,,,,,,,,,,,0,,,63,0
3360,note_on,0,0,1,,,,,,,,,,,,,,,0,,,60,80
3360,set_tempo,240,1,0,,,,,,,,,,,,465116,,,,,,,
3480,note_on,120,0,1,,,,,,,,,,,,,,,0,,,60,0
3600,set_tempo,240,1,0,,,,,,,,,,,,418118,,,,,,,
3600,note_on,120,0,1,,,,,,,,,,,,,,,0,,,63,84
3720,note_on,120,0,1,,,,,,,,,,,,,,,0,,,63,0
3720,note_on,0,0,1,,,,,,,,,,,,,,,0,,,68,74
3840,note_on,0,0,1,,,,,,,,,,,,,,,0,,,72,74
3840,set_tempo,240,1,0,,,,,,,,,,,,427046,,,,,,,
3840,note_on,120,0,1,,,,,,,,,,,,,,,0,,,68,0
3960,note_on,0,0,1,,,,,,,,,,,,,,,0,,,75,74
3960,note_on,120,0,1,,,,,,,,,,,,,,,0,,,72,0
4080,note_on,0,0,1,,,,,,,,,,,,,,,0,,,80,79
4080,note_on,120,0,1,,,,,,,,,,,,,,,0,,,75,0
4080,set_tempo,240,1,0,,,,,,,,,,,,474308,,,,,,,
4200,note_on,120,0,1,,,,,,,,,,,,,,,0,,,80,0
4320,set_tempo,240,1,0,,,,,,,,,,,,506329,,,,,,,
4320,note_on,0,0,1,,,,,,,,,,,,,,,0,,,69,65
4320,note_on,0,0,2,,,,,,,,,,,,,,,0,,,55,62
4320,note_on,0,0,2,,,,,,,,,,,,,,,0,,,61,62
4320,note_on,1200,0,2,,,,,,,,,,,,,,,0,,,63,74
4320,note_on,120,0,1,,,,,,,,,,,,,,,0,,,81,77
4380,note_on,0,0,1,,,,,,,,,,,,,,,0,,,81,0
4380,note_on,60,0,1,,,,,,,,,,,,,,,0,,,69,0
4380,note_on,0,0,2,,,,,,,,,,,,,,,0,,,61,0
4380,note_on,60,0,2,,,,,,,,,,,,,,,0,,,55,0
4380,note_on,0,0,2,,,,,,,,,,,,,,,0,,,63,0
4560,note_on,0,0,1,,,,,,,,,,,,,,,0,,,82,86
4560,note_on,0,0,2,,,,,,,,,,,,,,,0,,,55,62
4560,note_on,0,0,2,,,,,,,,,,,,,,,0,,,61,62
4560,note_on,180,0,1,,,,,,,,,,,,,,,0,,,70,73
4560,note_on,180,0,2,,,,,,,,,,,,,,,0,,,63,74
4560,set_tempo,240,1,0,,,,,,,,,,,,456274,,,,,,,
5040,note_on,0,0,1,,,,,,,,,,,,,,,0,,,62,85
5040,control_change,0,0,1,,,,,,,,,,,,,,,0,91,127,,
5040,text,0,1,1,,,,,,,,,,,,,,,,,,,
5040,note_on,480,0,1,,,,,,,,,,,,,,,0,,,82,0
5040,note_on,0,0,1,,,,,,,,,,,,,,,0,,,70,0
5040,note_on,0,0,2,,,,,,,,,,,,,,,0,,,63,0
5040,note_on,0,0,2,,,,,,,,,,,,,,,0,,,61,0
5040,note_on,480,0,2,,,,,,,,,,,,,,,0,,,55,0
5040,set_tempo,480,1,0,,,,,,,,,,,,415225,,,,,,,
5040,note_on,0,0,2,,,,,,,,,,,,,,,0,,,50,73
5160,note_on,120,0,2,,,,,,,,,,,,,,,0,,,50,0
5160,note_on,0,0,1,,,,,,,,,,,,,,,0,,,63,70
5160,note_on,120,0,1,,,,,,,,,,,,,,,0,,,62,0
5160,note_on,0,0,2,,,,,,,,,,,,,,,0,,,51,67
5280,note_on,120,0,1,,,,,,,,,,,,,,,0,,,63,0
5280,note_on,0,0,1,,,,,,,,,,,,,,,0,,,58,75
5280,set_tempo,240,1,0,,,,,,,,,,,,427046,,,,,,,
5280,note_on,0,0,2,,,,,,,,,,,,,,,0,,,46,70
5280,note_on,120,0,2,,,,,,,,,,,,,,,0,,,51,0
5400,note_on,0,0,2,,,,,,,,,,,,,,,0,,,43,67
5400,note_on,120,0,2,,,,,,,,,,,,,,,0,,,46,0
5400,note_on,120,0,1,,,,,,,,,,,,,,,0,,,58,0
5400,note_on,0,0,1,,,,,,,,,,,,,,,0,,,55,70
5520,note_on,120,0,2,,,,,,,,,,,,,,,0,,,43,0
5520,note_on,120,0,1,,,,,,,,,,,,,,,0,,,55,0
5520,note_on,0,0,1,,,,,,,,,,,,,,,0,,,51,76
5520,set_tempo,240,1,0,,,,,,,,,,,,476190,,,,,,,
5520,note_on,0,0,2,,,,,,,,,,,,,,,0,,,39,70
5640,note_on,120,0,2,,,,,,,,,,,,,,,0,,,39,0
5640,note_on,120,0,1,,,,,,,,,,,,,,,0,,,51,0
5760,note_on,120,0,1,,,,,,,,,,,,,,,0,,,63,75
5760,note_on,0,0,1,,,,,,,,,,,,,,,0,,,73,75
5760,note_on,0,0,1,,,,,,,,,,,,,,,0,,,75,89
5760,set_tempo,240,1,0,,,,,,,,,,,,436364,,,,,,,
5760,note_on,0,0,2,,,,,,,,,,,,,,,0,,,58,72
5760,note_on,0,0,2,,,,,,,,,,,,,,,0,,,51,61
5760,note_on,0,0,2,,,,,,,,,,,,,,,0,,,46,61
5760,control_change,120,0,2,,,,,,,,,,,,,,,0,64,127,,
6120,note_on,0,0,1,,,,,,,,,,,,,,,0,,,73,0
6120,note_on,0,0,2,,,,,,,,,,,,,,,0,,,46,0
6120,note_on,0,0,2,,,,,,,,,,,,,,,0,,,46,56
6120,note_on,0,0,2,,,,,,,,,,,,,,,0,,,51,56
6120,note_on,0,0,2,,,,,,,,,,,,,,,0,,,58,67
6120,note_on,360,0,2,,,,,,,,,,,,,,,0,,,58,0
6120,note_on,0,0,2,,,,,,,,,,,,,,,0,,,51,0
6120,note_on,0,0,1,,,,,,,,,,,,,,,0,,,63,0
6120,note_on,0,0,1,,,,,,,,,,,,,,,0,,,63,72
6120,note_on,0,0,1,,,,,,,,,,,,,,,0,,,73,72
6120,note_on,0,0,1,,,,,,,,,,,,,,,0,,,75,85
6120,note_on,360,0,1,,,,,,,,,,,,,,,0,,,75,0
6240,note_on,0,0,2,,,,,,,,,,,,,,,0,,,58,73
6240,note_on,0,0,2,,,,,,,,,,,,,,,0,,,51,62
6240,note_on,0,0,1,,,,,,,,,,,,,,,0,,,75,89
6240,note_on,0,0,2,,,,,,,,,,,,,,,0,,,46,0
6240,note_on,0,0,2,,,,,,,,,,,,,,,0,,,51,0
6240,note_on,120,0,2,,,,,,,,,,,,,,,0,,,58,0
6240,note_on,120,0,1,,,,,,,,,,,,,,,0,,,75,0
6240,note_on,0,0,1,,,,,,,,,,,,,,,0,,,73,0
6240,note_on,0,0,1,,,,,,,,,,,,,,,0,,,63,0
6240,note_on,0,0,1,,,,,,,,,,,,,,,0,,,63,75
6240,note_on,0,0,2,,,,,,,,,,,,,,,0,,,46,62
6240,note_on,0,0,1,,,,,,,,,,,,,,,0,,,73,75
6240,set_tempo,480,1,0,,,,,,,,,,,,476190,,,,,,,
6360,note_on,0,0,1,,,,,,,,,,,,,,,0,,,73,0
6360,note_on,120,0,1,,,,,,,,,,,,,,,0,,,75,0
6360,note_on,0,0,1,,,,,,,,,,,,,,,0,,,63,0
6360,note_on,120,0,2,,,,,,,,,,,,,,,0,,,58,0
6360,note_on,0,0,2,,,,,,,,,,,,,,,0,,,51,0
6360,note_on,0,0,2,,,,,,,,,,,,,,,0,,,46,0
6360,control_change,0,0,2,,,,,,,,,,,,,,,0,64,0,,
6480,note_on,120,0,1,,,,,,,,,,,,,,,0,,,63,75
6480,note_on,0,0,1,,,,,,,,,,,,,,,0,,,73,75
6480,note_on,0,0,1,,,,,,,,,,,,,,,0,,,75,89
6480,set_tempo,240,1,0,,,,,,,,,,,,436364,,,,,,,
6480,note_on,0,0,2,,,,,,,,,,,,,,,0,,,58,72
6480,note_on,120,0,2,,,,,,,,,,,,,,,0,,,46,61
6480,note_on,0,0,2,,,,,,,,,,,,,,,0,,,51,61
6558,control_change,78,0,2,,,,,,,,,,,,,,,0,64,127,,
6840,note_on,0,0,1,,,,,,,,,,,,,,,0,,,63,72
6840,note_on,0,0,1,,,,,,,,,,,,,,,0,,,75,85
6840,note_on,0,0,1,,,,,,,,,,,,,,,0,,,73,72
6840,note_on,0,0,1,,,,,,,,,,,,,,,0,,,63,0
6840,note_on,0,0,1,,,,,,,,,,,,,,,0,,,73,0
6840,note_on,0,0,2,,,,,,,,,,,,,,,0,,,58,67
6840,note_on,360,0,1,,,,,,,,,,,,,,,0,,,75,0
6840,note_on,0,0,2,,,,,,,,,,,,,,,0,,,46,56
6840,note_on,0,0,2,,,,,,,,,,,,,,,0,,,46,0
6840,note_on,0,0,2,,,,,,,,,,,,,,,0,,,51,0
6840,note_on,282,0,2,,,,,,,,,,,,,,,0,,,58,0
6840,note_on,0,0,2,,,,,,,,,,,,,,,0,,,51,56
6960,note_on,0,0,1,,,,,,,,,,,,,,,0,,,63,75
6960,note_on,120,0,1,,,,,,,,,,,,,,,0,,,75,0
6960,note_on,0,0,1,,,,,,,,,,,,,,,0,,,73,0
6960,note_on,0,0,1,,,,,,,,,,,,,,,0,,,75,89
6960,note_on,0,0,1,,,,,,,,,,,,,,,0,,,73,75
6960,set_tempo,480,1,0,,,,,,,,,,,,474308,,,,,,,
6960,note_on,0,0,1,,,,,,,,,,,,,,,0,,,63,0
6960,note_on,0,0,2,,,,,,,,,,,,,,,0,,,58,73
6960,note_on,0,0,2,,,,,,,,,,,,,,,0,,,51,62
6960,note_on,0,0,2,,,,,,,,,,,,,,,0,,,46,62
6960,note_on,0,0,2,,,,,,,,,,,,,,,0,,,46,0
6960,note_on,0,0,2,,,,,,,,,,,,,,,0,,,51,0
6960,note_on,120,0,2,,,,,,,,,,,,,,,0,,,58,0
7080,note_on,0,0,2,,,,,,,,,,,,,,,0,,,51,0
7080,note_on,0,0,2,,,,,,,,,,,,,,,0,,,46,0
7080,note_on,120,0,1,,,,,,,,,,,,,,,0,,,75,0
7080,note_on,0,0,1,,,,,,,,,,,,,,,0,,,73,0
7080,note_on,0,0,1,,,,,,,,,,,,,,,0,,,63,0
7080,control_change,0,0,2,,,,,,,,,,,,,,,0,64,0,,
7080,note_on,120,0,2,,,,,,,,,,,,,,,0,,,58,0
7200,set_tempo,240,1,0,,,,,,,,,,,,413793,,,,,,,
7200,note_on,120,0,2,,,,,,,,,,,,,,,0,,,46,62
7200,note_on,0,0,2,,,,,,,,,,,,,,,0,,,51,62
7200,note_on,0,0,1,,,,,,,,,,,,,,,0,,,72,68
7200,note_on,120,0,1,,,,,,,,,,,,,,,0,,,63,68
7200,note_on,0,0,2,,,,,,,,,,,,,,,0,,,58,74
7200,note_on,0,0,1,,,,,,,,,,,,,,,0,,,75,80
7320,note_on,120,0,1,,,,,,,,,,,,,,,0,,,75,0
7320,note_on,0,0,1,,,,,,,,,,,,,,,0,,,72,0
7320,note_on,0,0,1,,,,,,,,,,,,,,,0,,,73,73
7320,note_on,0,0,1,,,,,,,,,,,,,,,0,,,63,0
7440,note_on,0,0,2,,,,,,,,,,,,,,,0,,,46,0
7440,note_on,0,0,2,,,,,,,,,,,,,,,0,,,51,0
7440,set_tempo,240,1,0,,,,,,,,,,,,427046,,,,,,,
7440,note_on,120,0,1,,,,,,,,,,,,,,,0,,,73,0
7440,note_on,0,0,1,,,,,,,,,,,,,,,0,,,70,73
7440,note_on,240,0,2,,,,,,,,,,,,,,,0,,,58,0
7560,note_on,0,0,1,,,,,,,,,,,,,,,0,,,67,73
7560,note_on,120,0,1,,,,,,,,,,,,,,,0,,,70,0
7680,set_tempo,240,1,0,,,,,,,,,,,,465116,,,,,,,
7680,note_on,0,0,1,,,,,,,,,,,,,,,0,,,63,80
7680,note_on,120,0,1,,,,,,,,,,,,,,,0,,,67,0
7800,note_on,120,0,1,,,,,,,,,,,,,,,0,,,63,0
7920,note_on,120,0,1,,,,,,,,,,,,,,,0,,,67,84
7920,set_tempo,240,1,0,,,,,,,,,,,,418118,,,,,,,
8040,note_on,0,0,1,,,,,,,,,,,,,,,0,,,70,74
8040,note_on,120,0,1,,,,,,,,,,,,,,,0,,,67,0
8160,note_on,0,0,1,,,,,,,,,,,,,,,0,,,73,74
8160,set_tempo,240,1,0,,,,,,,,,,,,427046,,,,,,,
8160,note_on,120,0,1,,,,,,,,,,,,,,,0,,,70,0
8280,note_on,0,0,1,,,,,,,,,,,,,,,0,,,75,74
8280,note_on,120,0,1,,,,,,,,,,,,,,,0,,,73,0
8400,note_on,0,0,1,,,,,,,,,,,,,,,0,,,79,79
8400,note_on,120,0,1,,,,,,,,,,,,,,,0,,,75,0
8400,set_tempo,240,1,0,,,,,,,,,,,,474308,,,,,,,
8520,note_on,120,0,1,,,,,,,,,,,,,,,0,,,79,0
8640,set_tempo,240,1,0,,,,,,,,,,,,506329,,,,,,,
8640,note_on,0,0,1,,,,,,,,,,,,,,,0,,,71,65
8640,note_on,120,0,1,,,,,,,,,,,,,,,0,,,83,77
8640,note_on,1200,0,2,,,,,,,,,,,,,,,0,,,67,74
8640,note_on,0,0,2,,,,,,,,,,,,,,,0,,,63,62
8640,note_on,0,0,2,,,,,,,,,,,,,,,0,,,56,62
8700,note_on,60,0,2,,,,,,,,,,,,,,,0,,,56,0
8700,note_on,0,0,2,,,,,,,,,,,,,,,0,,,67,0
8700,note_on,0,0,2,,,,,,,,,,,,,,,0,,,63,0
8700,note_on,60,0,1,,,,,,,,,,,,,,,0,,,71,0
8700,note_on,0,0,1,,,,,,,,,,,,,,,0,,,83,0
8880,note_on,0,0,1,,,,,,,,,,,,,,,0,,,84,86
8880,note_on,0,0,2,,,,,,,,,,,,,,,0,,,63,62
8880,note_on,180,0,2,,,,,,,,,,,,,,,0,,,68,74
8880,note_on,0,0,2,,,,,,,,,,,,,,,0,,,56,62
8880,set_tempo,240,1,0,,,,,,,,,,,,456274,,,,,,,
8880,note_on,180,0,1,,,,,,,,,,,,,,,0,,,72,73
9360,note_on,480,0,2,,,,,,,,,,,,,,,0,,,56,0
9360,note_on,480,0,1,,,,,,,,,,,,,,,0,,,84,0
9360,note_on,0,0,1,,,,,,,,,,,,,,,0,,,72,0
9360,note_on,0,0,1,,,,,,,,,,,,,,,0,,,67,85
9360,control_change,0,0,1,,,,,,,,,,,,,,,0,91,127,,
9360,text,0,1,1,,,,,,,,,,,,,,,,,,,
9360,note_on,0,0,2,,,,,,,,,,,,,,,0,,,68,0
9360,note_on,0,0,2,,,,,,,,,,,,,,,0,,,63,0
9360,note_on,0,0,2,,,,,,,,,,,,,,,0,,,55,73
9360,set_tempo,480,1,0,,,,,,,,,,,,415225,,,,,,,
9480,note_on,120,0,2,,,,,,,,,,,,,,,0,,,55,0
9480,note_on,0,0,1,,,,,,,,,,,,,,,0,,,68,70
9480,note_on,120,0,1,,,,,,,,,,,,,,,0,,,67,0
9480,note_on,0,0,2,,,,,,,,,,,,,,,0,,,56,67
9600,note_on,0,0,1,,,,,,,,,,,,,,,0,,,63,75
9600,note_on,120,0,1,,,,,,,,,,,,,,,0,,,68,0
9600,note_on,0,0,2,,,,,,,,,,,,,,,0,,,51,70
9600,note_on,120,0,2,,,,,,,,,,,,,,,0,,,56,0
9600,set_tempo,240,1,0,,,,,,,,,,,,427046,,,,,,,
9720,note_on,0,0,2,,,,,,,,,,,,,,,0,,,48,67
9720,note_on,120,0,1,,,,,,,,,,,,,,,0,,,63,0
9720,note_on,0,0,1,,,,,,,,,,,,,,,0,,,60,70
9720,note_on,120,0,2,,,,,,,,,,,,,,,0,,,51,0
9840,note_on,120,0,2,,,,,,,,,,,,,,,0,,,48,0
9840,note_on,0,0,2,,,,,,,,,,,,,,,0,,,44,70
9840,set_tempo,240,1,0,,,,,,,,,,,,476190,,,,,,,
9840,note_on,120,0,1,,,,,,,,,,,,,,,0,,,60,0
9840,note_on,0,0,1,,,,,,,,,,,,,,,0,,,56,76
9960,note_on,120,0,2,,,,,,,,,,,,,,,0,,,44,0
9960,note_on,120,0,1,,,,,,,,,,,,,,,0,,,56,0
10080,note_on,0,0,1,,,,,,,,,,,,,,,0,,,78,89
10080,note_on,0,0,1,,,,,,,,,,,,,,,0,,,75,75
10080,note_on,0,0,1,,,,,,,,,,,,,,,0,,,68,75
10080,note_on,120,0,1,,,,,,,,,,,,,,,0,,,66,75
10080,set_tempo,240,1,0,,,,,,,,,,,,436364,,,,,,,
10080,note_on,120,0,2,,,,,,,,,,,,,,,0,,,44,73
10080,control_change,0,0,2,,,,,,,,,,,,,,,0,64,127,,
10200,note_on,120,0,2,,,,,,,,,,,,,,,0,,,44,0
10200,note_on,0,0,2,,,,,,,,,,,,,,,0,,,45,71
10320,note_on,120,0,2,,,,,,,,,,,,,,,0,,,45,0
10320,note_on,0,0,2,,,,,,,,,,,,,,,0,,,46,75
10440,note_on,360,0,1,,,,,,,,,,,,,,,0,,,78,0
10440,note_on,0,0,2,,,,,,,,,,,,,,,0,,,47,79
10440,note_on,120,0,2,,,,,,,,,,,,,,,0,,,46,0
10440,note_on,0,0,1,,,,,,,,,,,,,,,0,,,66,0
10440,note_on,0,0,1,,,,,,,,,,,,,,,0,,,75,0
10440,note_on,0,0,1,,,,,,,,,,,,,,,0,,,78,85
10440,note_on,0,0,1,,,,,,,,,,,,,,,0,,,68,0
10440,note_on,0,0,1,,,,,,,,,,,,,,,0,,,66,72
10440,note_on,0,0,1,,,,,,,,,,,,,,,0,,,68,72
10440,note_on,0,0,1,,,,,,,,,,,,,,,0,,,75,72
10560,note_on,0,0,2,,,,,,,,,,,,,,,0,,,48,83
10560,note_on,120,0,2,,,,,,,,,,,,,,,0,,,47,0
10560,note_on,0,0,1,,,,,,,,,,,,,,,0,,,68,75
10560,note_on,120,0,1,,,,,,,,,,,,,,,0,,,78,0
10560,note_on,0,0,1,,,,,,,,,,,,,,,0,,,75,75
10560,set_tempo,480,1,0,,,,,,,,,,,,476190,,,,,,,
10560,note_on,0,0,1,,,,,,,,,,,,,,,0,,,68,0
10560,note_on,0,0,1,,,,,,,,,,,,,,,0,,,75,0
10560,note_on,0,0,1,,,,,,,,,,,,,,,0,,,66,75
10560,note_on,0,0,1,,,,,,,,,,,,,,,0,,,78,89
10560,note_on,0,0,1,,,,,,,,,,,,,,,0,,,66,0
10680,note_on,0,0,1,,,,,,,,,,,,,,,0,,,75,0
10680,note_on,0,0,1,,,,,,,,,,,,,,,0,,,68,0
10680,note_on,120,0,1,,,,,,,,,,,,,,,0,,,78,0
10680,note_on,120,0,2,,,,,,,,,,,,,,,0,,,48,0
10680,control_change,0,0,2,,,,,,,,,,,,,,,0,64,0,,
10680,note_on,0,0,1,,,,,,,,,,,,,,,0,,,66,0
10800,set_tempo,240,1,0,,,,,,,,,,,,415225,,,,,,,
10800,control_change,0,0,1,,,,,,,,,,,,,,,0,91,127,,
10800,note_on,120,0,1,,,,,,,,,,,,,,,0,,,76,85
10800,text,0,1,1,,,,,,,,,,,,,,,,,,,
10800,note_on,120,0,2,,,,,,,,,,,,,,,0,,,49,73
10920,note_on,120,0,1,,,,,,,,,,,,,,,0,,,76,0
10920,note_on,0,0,1,,,,,,,,,,,,,,,0,,,77,70
10920,note_on,120,0,2,,,,,,,,,,,,,,,0,,,49,0
10920,note_on,0,0,2,,,,,,,,,,,,,,,0,,,61,67
11040,note_on,120,0,1,,,,,,,,,,,,,,,0,,,77,0
11040,note_on,0,0,1,,,,,,,,,,,,,,,0,,,73,75
11040,note_on,120,0,2,,,,,,,,,,,,,,,0,,,61,0
11040,note_on,0,0,2,,,,,,,,,,,,,,,0,,,56,70
11040,set_tempo,240,1,0,,,,,,,,,,,,427046,,,,,,,
11160,note_on,120,0,1,,,,,,,,,,,,,,,0,,,73,0
11160,note_on,0,0,1,,,,,,,,,,,,,,,0,,,68,70
11160,note_on,0,0,2,,,,,,,,,,,,,,,0,,,53,67
11160,note_on,120,0,2,,,,,,,,,,,,,,,0,,,56,0
11280,set_tempo,240,1,0,,,,,,,,,,,,476190,,,,,,,
11280,note_on,120,0,1,,,,,,,,,,,,,,,0,,,68,0
11280,note_on,0,0,2,,,,,,,,,,,,,,,0,,,49,70
11280,note_on,120,0,2,,,,,,,,,,,,,,,0,,,53,0
11280,note_on,0,0,1,,,,,,,,,,,,,,,0,,,65,76
11400,note_on,120,0,1,,,,,,,,,,,,,,,0,,,65,0
11400,note_on,120,0,2,,,,,,,,,,,,,,,0,,,49,0
11520,set_tempo,240,1,0,,,,,,,,,,,,436364,,,,,,,
11520,note_on,120,0,1,,,,,,,,,,,,,,,0,,,63,75
11520,note_on,0,0,1,,,,,,,,,,,,,,,0,,,65,75
11520,note_on,0,0,1,,,,,,,,,,,,,,,0,,,72,75
11520,note_on,0,0,1,,,,,,,,,,,,,,,0,,,75,89
11520,note_on,120,0,2,,,,,,,,,,,,,,,0,,,41,73
11520,control_change,0,0,2,,,,,,,,,,,,,,,0,64,127,,
11640,note_on,120,0,2,,,,,,,,,,,,,,,0,,,41,0
11640,note_on,0,0,2,,,,,,,,,,,,,,,0,,,42,71
11760,note_on,120,0,2,,,,,,,,,,,,,,,0,,,42,0
11760,note_on,0,0,2,,,,,,,,,,,,,,,0,,,43,74
11880,note_on,0,0,1,,,,,,,,,,,,,,,0,,,63,0
11880,note_on,0,0,1,,,,,,,,,,,,,,,0,,,65,0
11880,note_on,0,0,1,,,,,,,,,,,,,,,0,,,72,0
11880,note_on,0,0,1,,,,,,,,,,,,,,,0,,,63,72
11880,note_on,0,0,1,,,,,,,,,,,,,,,0,,,65,72
11880,note_on,0,0,1,,,,,,,,,,,,,,,0,,,72,72
11880,note_on,0,0,1,,,,,,,,,,,,,,,0,,,75,85
11880,note_on,0,0,2,,,,,,,,,,,,,,,0,,,44,77
11880,note_on,120,0,2,,,,,,,,,,,,,,,0,,,43,0
11880,note_on,360,0,1,,,,,,,,,,,,,,,0,,,75,0
12000,set_tempo,480,1,0,,,,,,,,,,,,476190,,,,,,,
12000,note_on,120,0,2,,,,,,,,,,,,,,,0,,,44,0
12000,note_on,0,0,1,,,,,,,,,,,,,,,0,,,75,89
12000,note_on,0,0,2,,,,,,,,,,,,,,,0,,,45,80
12000,note_on,0,0,1,,,,,,,,,,,,,,,0,,,63,0
12000,note_on,0,0,1,,,,,,,,,,,,,,,0,,,72,0
12000,note_on,0,0,1,,,,,,,,,,,,,,,0,,,72,75
12000,note_on,0,0,1,,,,,,,,,,,,,,,0,,,63,75
12000,note_on,0,0,1,,,,,,,,,,,,,,,0,,,65,0
12000,note_on,0,0,1,,,,,,,,,,,,,,,0,,,65,75
12000,note_on,120,0,1,,,,,,,,,,,,,,,0,,,75,0
12120,control_change,0,0,2,,,,,,,,,,,,,,,0,64,0,,
12120,note_on,120,0,2,,,,,,,,,,,,,,,0,,,45,0
12120,note_on,120,0,1,,,,,,,,,,,,,,,0,,,75,0
12120,note_on,0,0,1,,,,,,,,,,,,,,,0,,,72,0
12120,note_on,0,0,1,,,,,,,,,,,,,,,0,,,65,0
12120,note_on,0,0,1,,,,,,,,,,,,,,,0,,,63,0
12240,note_on,120,0,1,,,,,,,,,,,,,,,0,,,72,85
12240,text,0,1,1,,,,,,,,,,,,,,,,,,,
12240,control_change,0,0,1,,,,,,,,,,,,,,,0,91,127,,
12240,set_tempo,240,1,0,,,,,,,,,,,,415225,,,,,,,
12240,note_on,120,0,2,,,,,,,,,,,,,,,0,,,46,73
12360,note_on,0,0,1,,,,,,,,,,,,,,,0,,,73,70
12360,note_on,120,0,1,,,,,,,,,,,,,,,0,,,72,0
12360,note_on,0,0,2,,,,,,,,,,,,,,,0,,,58,67
12360,note_on,120,0,2,,,,,,,,,,,,,,,0,,,46,0
12480,note_on,0,0,1,,,,,,,,,,,,,,,0,,,70,75
12480,set_tempo,240,1,0,,,,,,,,,,,,427046,,,,,,,
12480,note_on,120,0,2,,,,,,,,,,,,,,,0,,,58,0
12480,note_on,120,0,1,,,,,,,,,,,,,,,0,,,73,0
12480,note_on,0,0,2,,,,,,,,,,,,,,,0,,,53,70
12600,note_on,0,0,1,,,,,,,,,,,,,,,0,,,65,70
12600,note_on,0,0,2,,,,,,,,,,,,,,,0,,,49,67
12600,note_on,120,0,1,,,,,,,,,,,,,,,0,,,70,0
12600,note_on,120,0,2,,,,,,,,,,,,,,,0,,,53,0
12720,note_on,120,0,2,,,,,,,,,,,,,,,0,,,49,0
12720,note_on,0,0,2,,,,,,,,,,,,,,,0,,,46,70
12720,set_tempo,240,1,0,,,,,,,,,,,,504202,,,,,,,
12720,note_on,0,0,1,,,,,,,,,,,,,,,0,,,61,76
12720,note_on,120,0,1,,,,,,,,,,,,,,,0,,,65,0
12840,note_on,120,0,2,,,,,,,,,,,,,,,0,,,46,0
12840,note_on,120,0,1,,,,,,,,,,,,,,,0,,,61,0
12960,note_on,120,0,2,,,,,,,,,,,,,,,0,,,43,37
12960,note_on,0,0,2,,,,,,,,,,,,,,,0,,,55,45
12960,set_tempo,240,1,0,,,,,,,,,,,,415225,,,,,,,
12960,note_on,120,0,1,,,,,,,,,,,,,,,0,,,84,59
12960,control_change,0,0,1,,,,,,,,,,,,,,,0,91,127,,
12960,text,0,1,1,,,,,,,,,,,,,,,,,,,
12977,control_change,17,0,2,,,,,,,,,,,,,,,0,64,127,,
13080,note_on,120,0,1,,,,,,,,,,,,,,,0,,,84,0
13080,note_on,0,0,1,,,,,,,,,,,,,,,0,,,85,49
13200,note_on,0,0,1,,,,,,,,,,,,,,,0,,,82,52
13200,note_on,120,0,1,,,,,,,,,,,,,,,0,,,85,0
13200,set_tempo,240,1,0,,,,,,,,,,,,427046,,,,,,,
13320,note_on,120,0,1,,,,,,,,,,,,,,,0,,,82,0
13320,note_on,0,0,1,,,,,,,,,,,,,,,0,,,79,49
13440,note_on,0,0,1,,,,,,,,,,,,,,,0,,,73,53
13440,note_on,0,0,2,,,,,,,,,,,,,,,0,,,55,31
13440,note_on,0,0,2,,,,,,,,,,,,,,,0,,,58,31
13440,note_on,0,0,2,,,,,,,,,,,,,,,0,,,61,31
13440,note_on,0,0,2,,,,,,,,,,,,,,,0,,,64,37
13440,note_on,0,0,2,,,,,,,,,,,,,,,0,,,43,0
13440,note_on,463,0,2,,,,,,,,,,,,,,,0,,,55,0
13440,note_on,120,0,1,,,,,,,,,,,,,,,0,,,79,0
13440,set_tempo,240,1,0,,,,,,,,,,,,476190,,,,,,,
13469,control_change,29,0,2,,,,,,,,,,,,,,,0,64,0,,
13560,note_on,120,0,1,,,,,,,,,,,,,,,0,,,73,0
13560,note_on,0,0,2,,,,,,,,,,,,,,,0,,,64,0
13560,note_on,0,0,2,,,,,,,,,,,,,,,0,,,61,0
13560,note_on,91,0,2,,,,,,,,,,,,,,,0,,,55,0
13560,note_on,0,0,2,,,,,,,,,,,,,,,0,,,58,0
13680,set_tempo,240,1,0,,,,,,,,,,,,415225,,,,,,,
13680,text,0,1,1,,,,,,,,,,,,,,,,,,,
13680,control_change,0,0,1,,,,,,,,,,,,,,,0,91,127,,
13680,note_on,120,0,1,,,,,,,,,,,,,,,0,,,83,59
13680,note_on,0,0,2,,,,,,,,,,,,,,,0,,,56,45
13680,note_on,120,0,2,,,,,,,,,,,,,,,0,,,44,37
13697,control_change,17,0,2,,,,,,,,,,,,,,,0,64,127,,
13800,note_on,120,0,1,,,,,,,,,,,,,,,0,,,83,0
13800,note_on,0,0,1,,,,,,,,,,,,,,,0,,,84,49
13920,set_tempo,240,1,0,,,,,,,,,,,,427046,,,,,,,
13920,note_on,0,0,1,,,,,,,,,,,,,,,0,,,80,52
13920,note_on,120,0,1,,,,,,,,,,,,,,,0,,,84,0
14040,note_on,120,0,1,,,,,,,,,,,,,,,0,,,80,0
14040,note_on,0,0,1,,,,,,,,,,,,,,,0,,,75,49
14160,note_on,0,0,2,,,,,,,,,,,,,,,0,,,44,0
14160,note_on,463,0,2,,,,,,,,,,,,,,,0,,,56,0
14160,note_on,120,0,1,,,,,,,,,,,,,,,0,,,75,0
14160,set_tempo,240,1,0,,,,,,,,,,,,476190,,,,,,,
14160,note_on,0,0,2,,,,,,,,,,,,,,,0,,,56,31
14160,note_on,0,0,2,,,,,,,,,,,,,,,0,,,60,31
14160,note_on,0,0,2,,,,,,,,,,,,,,,0,,,63,37
14160,note_on,0,0,1,,,,,,,,,,,,,,,0,,,72,53
14189,control_change,29,0,2,,,,,,,,,,,,,,,0,64,0,,
14280,note_on,91,0,2,,,,,,,,,,,,,,,0,,,56,0
14280,note_on,0,0,2,,,,,,,,,,,,,,,0,,,60,0
14280,note_on,0,0,2,,,,,,,,,,,,,,,0,,,63,0
14280,note_on,120,0,1,,,,,,,,,,,,,,,0,,,72,0
14400,text,0,1,1,,,,,,,,,,,,,,,,,,,
14400,control_change,0,0,1,,,,,,,,,,,,,,,0,91,127,,
14400,note_on,120,0,1,,,,,,,,,,,,,,,0,,,75,64
14400,note_on,0,0,2,,,,,,,,,,,,,,,0,,,46,49
14400,note_on,120,0,2,,,,,,,,,,,,,,,0,,,34,41
14400,set_tempo,240,1,0,,,,,,,,,,,,415225,,,,,,,
14417,control_change,17,0,2,,,,,,,,,,,,,,,0,64,127,,
14520,note_on,120,0,1,,,,,,,,,,,,,,,0,,,75,0
14520,note_on,0,0,1,,,,,,,,,,,,,,,0,,,76,53
14640,set_tempo,240,1,0,,,,,,,,,,,,427046,,,,,,,
14640,note_on,120,0,1,,,,,,,,,,,,,,,0,,,76,0
14640,note_on,0,0,1,,,,,,,,,,,,,,,0,,,73,57
14760,note_on,120,0,1,,,,,,,,,,,,,,,0,,,73,0
14760,note_on,0,0,1,,,,,,,,,,,,,,,0,,,70,53
14880,note_on,0,0,2,,,,,,,,,,,,,,,0,,,46,34
14880,note_on,0,0,1,,,,,,,,,,,,,,,0,,,64,58
14880,note_on,0,0,2,,,,,,,,,,,,,,,0,,,49,34
14880,note_on,0,0,2,,,,,,,,,,,,,,,0,,,55,41
14880,note_on,0,0,2,,,,,,,,,,,,,,,0,,,34,0
14880,note_on,463,0,2,,,,,,,,,,,,,,,0,,,46,0
14880,set_tempo,240,1,0,,,,,,,,,,,,476190,,,,,,,
14880,note_on,120,0,1,,,,,,,,,,,,,,,0,,,70,0
14909,control_change,29,0,2,,,,,,,,,,,,,,,0,64,0,,
15000,note_on,0,0,2,,,,,,,,,,,,,,,0,,,55,0
15000,note_on,0,0,2,,,,,,,,,,,,,,,0,,,49,0
15000,note_on,91,0,2,,,,,,,,,,,,,,,0,,,46,0
15000,note_on,120,0,1,,,,,,,,,,,,,,,0,,,64,0
15120,note_on,120,0,1,,,,,,,,,,,,,,,0,,,74,70
15120,set_tempo,240,1,0,,,,,,,,,,,,415225,,,,,,,
15120,note_on,120,0,2,,,,,,,,,,,,,,,0,,,35,45
15120,note_on,0,0,2,,,,,,,,,,,,,,,0,,,47,54
15120,text,0,1,1,,,,,,,,,,,,,,,,,,,
15120,control_change,0,0,1,,,,,,,,,,,,,,,0,91,127,,
15137,control_change,17,0,2,,,,,,,,,,,,,,,0,64,127,,
15240,note_on,0,0,1,,,,,,,,,,,,,,,0,,,75,58
15240,note_on,120,0,1,,,,,,,,,,,,,,,0,,,74,0
15360,set_tempo,240,1,0,,,,,,,,,,,,427046,,,,,,,
15360,note_on,0,0,1,,,,,,,,,,,,,,,0,,,71,62
15360,note_on,120,0,1,,,,,,,,,,,,,,,0,,,75,0
15480,note_on,0,0,1,,,,,,,,,,,,,,,0,,,68,58
15480,note_on,120,0,1,,,,,,,,,,,,,,,0,,,71,0
15600,note_on,0,0,2,,,,,,,,,,,,,,,0,,,56,45
15600,note_on,120,0,1,,,,,,,,,,,,,,,0,,,68,0
15600,note_on,0,0,1,,,,,,,,,,,,,,,0,,,63,63
15600,set_tempo,240,1,0,,,,,,,,,,,,476190,,,,,,,
15600,note_on,0,0,2,,,,,,,,,,,,,,,0,,,47,37
15600,note_on,0,0,2,,,,,,,,,,,,,,,0,,,51,37
15600,note_on,463,0,2,,,,,,,,,,,,,,,0,,,47,0
15600,note_on,0,0,2,,,,,,,,,,,,,,,0,,,35,0
15629,control_change,29,0,2,,,,,,,,,,,,,,,0,64,0,,
15720,note_on,120,0,1,,,,,,,,,,,,,,,0,,,63,0
15720,note_on,0,0,2,,,,,,,,,,,,,,,0,,,56,0
15720,note_on,91,0,2,,,,,,,,,,,,,,,0,,,47,0
15720,note_on,0,0,2,,,,,,,,,,,,,,,0,,,51,0
15840,note_on,0,0,1,,,,,,,,,,,,,,,0,,,75,56
15840,note_on,120,0,1,,,,,,,,,,,,,,,0,,,68,47
15840,set_tempo,240,1,0,,,,,,,,,,,,442804,,,,,,,
15840,note_on,0,0,2,,,,,,,,,,,,,,,0,,,40,32
15840,control_change,120,0,2,,,,,,,,,,,,,,,0,64,127,,
15960,set_tempo,120,1,0,,,,,,,,,,,,441176,,,,,,,
15960,note_on,0,0,1,,,,,,,,,,,,,,,0,,,68,0
15960,note_on,0,0,1,,,,,,,,,,,,,,,0,,,80,58
15960,note_on,0,0,2,,,,,,,,,,,,,,,0,,,52,38
15960,note_on,120,0,2,,,,,,,,,,,,,,,0,,,40,0
15960,note_on,120,0,1,,,,,,,,,,,,,,,0,,,75,0
16080,note_on,120,0,1,,,,,,,,,,,,,,,0,,,80,0
16080,note_on,0,0,1,,,,,,,,,,,,,,,0,,,75,59
16080,note_on,0,0,1,,,,,,,,,,,,,,,0,,,68,50
16080,set_tempo,120,1,0,,,,,,,,,,,,439560,,,,,,,
16080,note_on,0,0,2,,,,,,,,,,,,,,,0,,,40,40
16080,note_on,120,0,2,,,,,,,,,,,,,,,0,,,52,0
16180,set_tempo,100,1,0,,,,,,,,,,,,437956,,,,,,,
16200,note_on,0,0,1,,,,,,,,,,,,,,,0,,,80,61
16200,note_on,0,0,1,,,,,,,,,,,,,,,0,,,68,0
16200,note_on,120,0,1,,,,,,,,,,,,,,,0,,,75,0
16200,note_on,120,0,2,,,,,,,,,,,,,,,0,,,40,0
16200,note_on,0,0,2,,,,,,,,,,,,,,,0,,,52,41
16300,set_tempo,120,1,0,,,,,,,,,,,,436364,,,,,,,
16320,note_on,0,0,1,,,,,,,,,,,,,,,0,,,75,63
16320,note_on,0,0,1,,,,,,,,,,,,,,,0,,,68,53
16320,note_on,120,0,1,,,,,,,,,,,,,,,0,,,80,0
16320,note_on,0,0,2,,,,,,,,,,,,,,,0,,,40,43
16320,note_on,120,0,2,,,,,,,,,,,,,,,0,,,52,0
16400,set_tempo,100,1,0,,,,,,,,,,,,434783,,,,,,,
16440,note_on,0,0,1,,,,,,,,,,,,,,,0,,,68,0
16440,note_on,120,0,1,,,,,,,,,,,,,,,0,,,75,0
16440,note_on,0,0,2,,,,,,,,,,,,,,,0,,,52,45
16440,note_on,120,0,2,,,,,,,,,,,,,,,0,,,40,0
16440,note_on,0,0,1,,,,,,,,,,,,,,,0,,,80,65
16520,set_tempo,120,1,0,,,,,,,,,,,,433213,,,,,,,
16560,note_on,0,0,1,,,,,,,,,,,,,,,0,,,68,56
16560,note_on,0,0,1,,,,,,,,,,,,,,,0,,,75,67
16560,note_on,120,0,2,,,,,,,,,,,,,,,0,,,52,0
16560,note_on,0,0,2,,,,,,,,,,,,,,,0,,,40,47
16560,note_on,120,0,1,,,,,,,,,,,,,,,0,,,80,0
16620,set_tempo,100,1,0,,,,,,,,,,,,431655,,,,,,,
16680,note_on,0,0,1,,,,,,,,,,,,,,,0,,,80,68
16680,note_on,120,0,2,,,,,,,,,,,,,,,0,,,40,0
16680,note_on,0,0,2,,,,,,,,,,,,,,,0,,,52,48
16680,note_on,120,0,1,,,,,,,,,,,,,,,0,,,75,0
16680,note_on,0,0,1,,,,,,,,,,,,,,,0,,,68,0
16740,set_tempo,120,1,0,,,,,,,,,,,,430108,,,,,,,
16800,note_on,0,0,1,,,,,,,,,,,,,,,0,,,68,59
16800,note_on,120,0,2,,,,,,,,,,,,,,,0,,,52,0
16800,note_on,0,0,2,,,,,,,,,,,,,,,0,,,40,50
16800,note_on,0,0,1,,,,,,,,,,,,,,,0,,,75,70
16800,note_on,120,0,1,,,,,,,,,,,,,,,0,,,80,0
16840,set_tempo,100,1,0,,,,,,,,,,,,428571,,,,,,,
16920,note_on,0,0,1,,,,,,,,,,,,,,,0,,,68,0
16920,note_on,0,0,2,,,,,,,,,,,,,,,0,,,52,52
16920,note_on,120,0,2,,,,,,,,,,,,,,,0,,,40,0
16920,note_on,0,0,1,,,,,,,,,,,,,,,0,,,80,72
16920,note_on,120,0,1,,,,,,,,,,,,,,,0,,,75,0
16960,set_tempo,120,1,0,,,,,,,,,,,,427046,,,,,,,
17040,note_on,0,0,1,,,,,,,,,,,,,,,0,,,75,74
17040,note_on,0,0,1,,,,,,,,,,,,,,,0,,,68,62
17040,note_on,120,0,1,,,,,,,,,,,,,,,0,,,80,0
17040,note_on,120,0,2,,,,,,,,,,,,,,,0,,,52,0
17040,note_on,0,0,2,,,,,,,,,,,,,,,0,,,40,54
17060,set_tempo,100,1,0,,,,,,,,,,,,425532,,,,,,,
17160,note_on,0,0,1,,,,,,,,,,,,,,,0,,,68,0
17160,note_on,0,0,1,,,,,,,,,,,,,,,0,,,80,76
17160,note_on,120,0,1,,,,,,,,,,,,,,,0,,,75,0
17160,note_on,0,0,2,,,,,,,,,,,,,,,0,,,52,55
17160,note_on,120,0,2,,,,,,,,,,,,,,,0,,,40,0
17180,set_tempo,120,1,0,,,,,,,,,,,,424028,,,,,,,
17260,set_tempo,80,1,0,,,,,,,,,,,,421053,,,,,,,
17280,note_on,0,0,2,,,,,,,,,,,,,,,0,,,41,57
17280,note_on,120,0,1,,,,,,,,,,,,,,,0,,,80,0
17280,note_on,0,0,1,,,,,,,,,,,,,,,0,,,68,65
17280,note_on,0,0,1,,,,,,,,,,,,,,,0,,,74,77
17280,note_on,120,0,2,,,,,,,,,,,,,,,0,,,52,0
17291,control_change,11,0,2,,,,,,,,,,,,,,,0,64,0,,
17337,control_change,46,0,2,,,,,,,,,,,,,,,0,64,127,,
17360,set_tempo,100,1,0,,,,,,,,,,,,419580,,,,,,,
17400,note_on,120,0,1,,,,,,,,,,,,,,,0,,,74,0
17400,note_on,63,0,2,,,,,,,,,,,,,,,0,,,41,0
17400,note_on,0,0,2,,,,,,,,,,,,,,,0,,,42,59
17400,note_on,0,0,1,,,,,,,,,,,,,,,0,,,80,79
17400,note_on,0,0,1,,,,,,,,,,,,,,,0,,,68,0
17440,set_tempo,80,1,0,,,,,,,,,,,,418118,,,,,,,
17520,note_on,0,0,1,,,,,,,,,,,,,,,0,,,68,68
17520,note_on,120,0,1,,,,,,,,,,,,,,,0,,,80,0
17520,note_on,120,0,2,,,,,,,,,,,,,,,0,,,42,0
17520,note_on,0,0,2,,,,,,,,,,,,,,,0,,,43,61
17520,note_on,0,0,1,,,,,,,,,,,,,,,0,,,74,81
17520,set_tempo,80,1,0,,,,,,,,,,,,416667,,,,,,,
17600,set_tempo,80,1,0,,,,,,,,,,,,415225,,,,,,,
17640,note_on,0,0,2,,,,,,,,,,,,,,,0,,,44,62
17640,note_on,0,0,1,,,,,,,,,,,,,,,0,,,80,83
17640,note_on,0,0,1,,,,,,,,,,,,,,,0,,,68,0
17640,note_on,120,0,1,,,,,,,,,,,,,,,0,,,74,0
17640,note_on,120,0,2,,,,,,,,,,,,,,,0,,,43,0
17700,set_tempo,100,1,0,,,,,,,,,,,,413793,,,,,,,
17760,note_on,0,0,2,,,,,,,,,,,,,,,0,,,45,64
17760,note_on,0,0,1,,,,,,,,,,,,,,,0,,,68,72
17760,note_on,120,0,1,,,,,,,,,,,,,,,0,,,80,0
17760,note_on,120,0,2,,,,,,,,,,,,,,,0,,,44,0
17760,note_on,0,0,1,,,,,,,,,,,,,,,0,,,74,85
17780,set_tempo,80,1,0,,,,,,,,,,,,412371,,,,,,,
17860,set_tempo,80,1,0,,,,,,,,,,,,410959,,,,,,,
17880,note_on,0,0,2,,,,,,,,,,,,,,,0,,,46,66
17880,note_on,120,0,2,,,,,,,,,,,,,,,0,,,45,0
17880,note_on,120,0,1,,,,,,,,,,,,,,,0,,,74,0
17880,note_on,0,0,1,,,,,,,,,,,,,,,0,,,68,0
17880,note_on,0,0,1,,,,,,,,,,,,,,,0,,,80,86
17940,set_tempo,80,1,0,,,,,,,,,,,,409556,,,,,,,
18000,note_on,0,0,2,,,,,,,,,,,,,,,0,,,47,68
18000,note_on,120,0,2,,,,,,,,,,,,,,,0,,,46,0
18000,note_on,120,0,1,,,,,,,,,,,,,,,0,,,80,0
18000,note_on,0,0,1,,,,,,,,,,,,,,,0,,,68,74
18000,note_on,0,0,1,,,,,,,,,,,,,,,0,,,74,88
18120,note_on,0,0,2,,,,,,,,,,,,,,,0,,,48,70
18120,note_on,120,0,2,,,,,,,,,,,,,,,0,,,47,0
18120,note_on,0,0,1,,,,,,,,,,,,,,,0,,,80,90
18120,note_on,0,0,1,,,,,,,,,,,,,,,0,,,68,0
18120,note_on,120,0,1,,,,,,,,,,,,,,,0,,,74,0
18240,note_on,0,0,2,,,,,,,,,,,,,,,0,,,49,71
18240,note_on,120,0,2,,,,,,,,,,,,,,,0,,,48,0
18240,note_on,0,0,1,,,,,,,,,,,,,,,0,,,68,78
18240,note_on,0,0,1,,,,,,,,,,,,,,,0,,,74,92
18240,note_on,120,0,1,,,,,,,,,,,,,,,0,,,80,0
18360,note_on,0,0,2,,,,,,,,,,,,,,,0,,,50,73
18360,note_on,120,0,2,,,,,,,,,,,,,,,0,,,49,0
18360,note_on,120,0,1,,,,,,,,,,,,,,,0,,,74,0
18360,note_on,0,0,1,,,,,,,,,,,,,,,0,,,68,0
18360,note_on,0,0,1,,,,,,,,,,,,,,,0,,,80,94
18480,note_on,120,0,1,,,,,,,,,,,,,,,0,,,80,0
18480,note_on,0,0,2,,,,,,,,,,,,,,,0,,,51,75
18480,note_on,0,0,1,,,,,,,,,,,,,,,0,,,68,80
18480,note_on,0,0,1,,,,,,,,,,,,,,,0,,,74,95
18480,note_on,120,0,2,,,,,,,,,,,,,,,0,,,50,0
18600,note_on,0,0,1,,,,,,,,,,,,,,,0,,,68,0
18600,note_on,0,0,1,,,,,,,,,,,,,,,0,,,80,97
18600,note_on,0,0,2,,,,,,,,,,,,,,,0,,,52,77
18600,note_on,120,0,2,,,,,,,,,,,,,,,0,,,51,0
18600,note_on,120,0,1,,,,,,,,,,,,,,,0,,,74,0
18720,control_change,0,0,2,,,,,,,,,,,,,,,0,64,0,,
18720,note_on,0,0,2,,,,,,,,,,,,,,,0,,,64,85
18720,note_on,0,0,2,,,,,,,,,,,,,,,0,,,52,72
18720,note_on,120,0,2,,,,,,,,,,,,,,,0,,,52,0
18720,note_on,0,0,1,,,,,,,,,,,,,,,0,,,80,106
18720,note_on,0,0,1,,,,,,,,,,,,,,,0,,,74,90
18720,note_on,0,0,1,,,,,,,,,,,,,,,0,,,68,90
18720,note_on,120,0,1,,,,,,,,,,,,,,,0,,,80,0
18720,set_tempo,780,1,0,,,,,,,,,,,,444444,,,,,,,
18960,note_on,240,0,2,,,,,,,,,,,,,,,0,,,64,0
18960,note_on,0,0,2,,,,,,,,,,,,,,,0,,,64,77
18960,note_on,0,0,2,,,,,,,,,,,,,,,0,,,52,65
18960,note_on,240,0,1,,,,,,,,,,,,,,,0,,,80,0
18960,note_on,0,0,1,,,,,,,,,,,,,,,0,,,74,0
18960,note_on,0,0,1,,,,,,,,,,,,,,,0,,,68,0
18960,note_on,0,0,1,,,,,,,,,,,,,,,0,,,70,80
18960,note_on,0,0,1,,,,,,,,,,,,,,,0,,,74,80
18960,note_on,0,0,1,,,,,,,,,,,,,,,0,,,80,80
18960,note_on,0,0,1,,,,,,,,,,,,,,,0,,,82,95
18960,set_tempo,240,1,0,,,,,,,,,,,,424028,,,,,,,
18960,note_on,0,0,2,,,,,,,,,,,,,,,0,,,52,0
19080,note_on,0,0,1,,,,,,,,,,,,,,,0,,,80,0
19080,note_on,120,0,2,,,,,,,,,,,,,,,0,,,64,0
19080,note_on,0,0,1,,,,,,,,,,,,,,,0,,,70,0
19080,note_on,0,0,1,,,,,,,,,,,,,,,0,,,74,0
19080,note_on,120,0,1,,,,,,,,,,,,,,,0,,,82,0
19080,note_on,0,0,2,,,,,,,,,,,,,,,0,,,52,0
19200,note_on,120,0,2,,,,,,,,,,,,,,,0,,,52,65
19200,note_on,0,0,1,,,,,,,,,,,,,,,0,,,74,80
19200,note_on,120,0,1,,,,,,,,,,,,,,,0,,,70,80
19200,note_on,0,0,1,,,,,,,,,,,,,,,0,,,80,80
19200,note_on,0,0,2,,,,,,,,,,,,,,,0,,,64,77
19200,note_on,0,0,1,,,,,,,,,,,,,,,0,,,82,95
19200,set_tempo,240,1,0,,,,,,,,,,,,434783,,,,,,,
19320,note_on,0,0,2,,,,,,,,,,,,,,,0,,,52,0
19320,note_on,120,0,1,,,,,,,,,,,,,,,0,,,82,0
19320,note_on,0,0,1,,,,,,,,,,,,,,,0,,,74,0
19320,note_on,0,0,1,,,,,,,,,,,,,,,0,,,80,0
19320,note_on,120,0,2,,,,,,,,,,,,,,,0,,,64,0
19320,note_on,0,0,1,,,,,,,,,,,,,,,0,,,70,0
19440,note_on,120,0,2,,,,,,,,,,,,,,,0,,,52,72
19440,note_on,0,0,2,,,,,,,,,,,,,,,0,,,64,85
19440,note_on,120,0,1,,,,,,,,,,,,,,,0,,,74,85
19440,note_on,0,0,1,,,,,,,,,,,,,,,0,,,80,85
19440,note_on,0,0,1,,,,,,,,,,,,,,,0,,,82,100
19440,set_tempo,240,1,0,,,,,,,,,,,,434783,,,,,,,
19560,note_on,0,0,1,,,,,,,,,,,,,,,0,,,80,0
19560,note_on,0,0,2,,,,,,,,,,,,,,,0,,,52,0
19560,note_on,120,0,2,,,,,,,,,,,,,,,0,,,64,0
19560,note_on,120,0,1,,,,,,,,,,,,,,,0,,,82,0
19560,note_on,0,0,1,,,,,,,,,,,,,,,0,,,74,0
19680,note_on,120,0,2,,,,,,,,,,,,,,,0,,,52,65
19680,note_on,0,0,2,,,,,,,,,,,,,,,0,,,64,77
19680,note_on,120,0,1,,,,,,,,,,,,,,,0,,,74,76
19680,note_on,0,0,1,,,,,,,,,,,,,,,0,,,80,76
19680,note_on,0,0,1,,,,,,,,,,,,,,,0,,,82,90
19680,set_tempo,240,1,0,,,,,,,,,,,,422535,,,,,,,
19800,note_on,120,0,2,,,,,,,,,,,,,,,0,,,64,0
19800,note_on,0,0,1,,,,,,,,,,,,,,,0,,,74,0
19800,note_on,0,0,1,,,,,,,,,,,,,,,0,,,80,0
19800,note_on,120,0,1,,,,,,,,,,,,,,,0,,,82,0
19800,note_on,0,0,2,,,,,,,,,,,,,,,0,,,52,0
19920,set_tempo,240,1,0,,,,,,,,,,,,433213,,,,,,,
19920,note_on,120,0,2,,,,,,,,,,,,,,,0,,,52,65
19920,note_on,0,0,2,,,,,,,,,,,,,,,0,,,64,77
19920,note_on,0,0,1,,,,,,,,,,,,,,,0,,,80,76
19920,note_on,120,0,1,,,,,,,,,,,,,,,0,,,74,76
19920,note_on,0,0,1,,,,,,,,,,,,,,,0,,,82,90
20040,note_on,0,0,2,,,,,,,,,,,,,,,0,,,52,0
20040,note_on,120,0,1,,,,,,,,,,,,,,,0,,,82,0
20040,note_on,0,0,1,,,,,,,,,,,,,,,0,,,80,0
20040,note_on,0,0,1,,,,,,,,,,,,,,,0,,,74,0
20040,note_on,120,0,2,,,,,,,,,,,,,,,0,,,64,0
20160,note_on,0,0,1,,,,,,,,,,,,,,,0,,,82,95
20160,note_on,0,0,1,,,,,,,,,,,,,,,0,,,79,80
20160,set_tempo,240,1,0,,,,,,,,,,,,472441,,,,,,,
20160,note_on,120,0,2,,,,,,,,,,,,,,,0,,,51,73
20160,note_on,0,0,2,,,,,,,,,,,,,,,0,,,63,87
20160,note_on,120,0,1,,,,,,,,,,,,,,,0,,,70,80
20160,note_on,0,0,1,,,,,,,,,,,,,,,0,,,75,80
20400,note_on,240,0,2,,,,,,,,,,,,,,,0,,,63,0
20400,note_on,0,0,2,,,,,,,,,,,,,,,0,,,51,0
20400,note_on,0,0,2,,,,,,,,,,,,,,,0,,,51,77
20400,set_tempo,240,1,0,,,,,,,,,,,,446097,,,,,,,
20400,note_on,0,0,2,,,,,,,,,,,,,,,0,,,39,65
20400,note_on,0,0,1,,,,,,,,,,,,,,,0,,,70,0
20400,note_on,0,0,1,,,,,,,,,,,,,,,0,,,79,80
20400,note_on,240,0,1,,,,,,,,,,,,,,,0,,,82,0
20400,note_on,0,0,1,,,,,,,,,,,,,,,0,,,75,80
20400,note_on,0,0,1,,,,,,,,,,,,,,,0,,,75,0
20400,note_on,0,0,1,,,,,,,,,,,,,,,0,,,82,80
20400,note_on,0,0,1,,,,,,,,,,,,,,,0,,,79,0
20400,note_on,0,0,1,,,,,,,,,,,,,,,0,,,87,95
20520,note_on,0,0,1,,,,,,,,,,,,,,,0,,,82,0
20520,note_on,0,0,1,,,,,,,,,,,,,,,0,,,87,0
20520,note_on,120,0,1,,,,,,,,,,,,,,,0,,,75,0
20520,note_on,0,0,2,,,,,,,,,,,,,,,0,,,39,0
20520,note_on,0,0,1,,,,,,,,,,,,,,,0,,,79,0
20520,note_on,120,0,2,,,,,,,,,,,,,,,0,,,51,0
20880,note_on,0,0,1,,,,,,,,,,,,,,,0,,,70,83
20880,note_on,360,0,2,,,,,,,,,,,,,,,0,,,39,57
20880,note_on,0,0,2,,,,,,,,,,,,,,,0,,,51,68
20880,note_on,0,0,1,,,,,,,,,,,,,,,0,,,67,70
20880,note_on,360,0,1,,,,,,,,,,,,,,,0,,,63,70
20880,set_tempo,480,1,0,,,,,,,,,,,,493827,,,,,,,
21000,note_on,0,0,2,,,,,,,,,,,,,,,0,,,39,0
21000,note_on,120,0,1,,,,,,,,,,,,,,,0,,,70,0
21000,note_on,0,0,1,,,,,,,,,,,,,,,0,,,67,0
21000,note_on,0,0,1,,,,,,,,,,,,,,,0,,,63,0
21000,note_on,120,0,2,,,,,,,,,,,,,,,0,,,51,0
21120,note_on,0,0,1,,,,,,,,,,,,,,,0,,,75,76
21120,note_on,120,0,2,,,,,,,,,,,,,,,0,,,27,52
21120,note_on,0,0,1,,,,,,,,,,,,,,,0,,,70,64
21120,note_on,0,0,1,,,,,,,,,,,,,,,0,,,67,64
21120,note_on,120,0,1,,,,,,,,,,,,,,,0,,,63,64
21120,note_on,0,0,2,,,,,,,,,,,,,,,0,,,39,61
21120,set_tempo,240,1,0,,,,,,,,,,,,441176,,,,,,,
21240,note_on,0,0,1,,,,,,,,,,,,,,,0,,,70,0
21240,note_on,0,0,1,,,,,,,,,,,,,,,0,,,67,0
21240,note_on,0,0,1,,,,,,,,,,,,,,,0,,,63,0
21240,note_on,120,0,1,,,,,,,,,,,,,,,0,,,75,0
21240,note_on,0,0,2,,,,,,,,,,,,,,,0,,,27,0
21240,note_on,120,0,2,,,,,,,,,,,,,,,0,,,39,0
21360,set_tempo,240,1,0,,,,,,,,,,,,666667,,,,,,,
21600,control_change,360,0,2,,,,,,,,,,,,,,,0,64,127,,
21600,note_on,0,0,1,,,,,,,,,,,,,,,0,,,72,45
21600,note_on,0,0,1,,,,,,,,,,,,,,,0,,,75,53
21600,note_on,360,0,1,,,,,,,,,,,,,,,0,,,63,45
21600,set_tempo,240,1,0,,,,,,,,,,,,436364,,,,,,,
21600,note_on,0,0,2,,,,,,,,,,,,,,,0,,,44,36
21600,note_on,0,0,2,,,,,,,,,,,,,,,0,,,51,36
21600,note_on,0,0,2,,,,,,,,,,,,,,,0,,,56,43
21960,note_on,0,0,2,,,,,,,,,,,,,,,0,,,56,40
21960,note_on,0,0,2,,,,,,,,,,,,,,,0,,,51,33
21960,note_on,0,0,2,,,,,,,,,,,,,,,0,,,44,33
21960,note_on,0,0,2,,,,,,,,,,,,,,,0,,,44,0
21960,note_on,0,0,2,,,,,,,,,,,,,,,0,,,51,0
21960,note_on,360,0,2,,,,,,,,,,,,,,,0,,,56,0
21960,note_on,0,0,1,,,,,,,,,,,,,,,0,,,75,51
21960,note_on,0,0,1,,,,,,,,,,,,,,,0,,,72,43
21960,note_on,0,0,1,,,,,,,,,,,,,,,0,,,63,43
21960,note_on,0,0,1,,,,,,,,,,,,,,,0,,,63,0
21960,note_on,0,0,1,,,,,,,,,,,,,,,0,,,72,0
21960,note_on,360,0,1,,,,,,,,,,,,,,,0,,,75,0
22080,note_on,120,0,2,,,,,,,,,,,,,,,0,,,56,0
22080,note_on,0,0,2,,,,,,,,,,,,,,,0,,,51,0
22080,note_on,0,0,2,,,,,,,,,,,,,,,0,,,51,37
22080,set_tempo,480,1,0,,,,,,,,,,,,476190,,,,,,,
22080,note_on,0,0,2,,,,,,,,,,,,,,,0,,,44,0
22080,note_on,0,0,2,,,,,,,,,,,,,,,0,,,44,37
22080,note_on,0,0,2,,,,,,,,,,,,,,,0,,,56,43
22080,note_on,0,0,1,,,,,,,,,,,,,,,0,,,75,53
22080,note_on,0,0,1,,,,,,,,,,,,,,,0,,,72,45
22080,note_on,0,0,1,,,,,,,,,,,,,,,0,,,63,45
22080,note_on,0,0,1,,,,,,,,,,,,,,,0,,,63,0
22080,note_on,0,0,1,,,,,,,,,,,,,,,0,,,72,0
22080,note_on,120,0,1,,,,,,,,,,,,,,,0,,,75,0
22200,note_on,0,0,2,,,,,,,,,,,,,,,0,,,44,0
22200,note_on,120,0,2,,,,,,,,,,,,,,,0,,,56,0
22200,control_change,0,0,2,,,,,,,,,,,,,,,0,64,0,,
22200,note_on,0,0,1,,,,,,,,,,,,,,,0,,,63,0
22200,note_on,0,0,1,,,,,,,,,,,,,,,0,,,72,0
22200,note_on,120,0,1,,,,,,,,,,,,,,,0,,,75,0
22200,note_on,0,0,2,,,,,,,,,,,,,,,0,,,51,0
22320,set_tempo,240,1,0,,,,,,,,,,,,436364,,,,,,,
22320,note_on,0,0,2,,,,,,,,,,,,,,,0,,,56,43
22320,note_on,0,0,2,,,,,,,,,,,,,,,0,,,51,36
22320,note_on,0,0,1,,,,,,,,,,,,,,,0,,,75,53
22320,note_on,0,0,1,,,,,,,,,,,,,,,0,,,72,45
22320,note_on,120,0,1,,,,,,,,,,,,,,,0,,,63,45
22320,note_on,120,0,2,,,,,,,,,,,,,,,0,,,44,36
22398,control_change,78,0,2,,,,,,,,,,,,,,,0,64,127,,
22680,note_on,282,0,2,,,,,,,,,,,,,,,0,,,56,0
22680,note_on,0,0,2,,,,,,,,,,,,,,,0,,,56,40
22680,note_on,0,0,2,,,,,,,,,,,,,,,0,,,51,33
22680,note_on,0,0,2,,,,,,,,,,,,,,,0,,,44,33
22680,note_on,0,0,2,,,,,,,,,,,,,,,0,,,44,0
22680,note_on,0,0,2,,,,,,,,,,,,,,,0,,,51,0
22680,note_on,360,0,1,,,,,,,,,,,,,,,0,,,75,0
22680,note_on,0,0,1,,,,,,,,,,,,,,,0,,,72,0
22680,note_on,0,0,1,,,,,,,,,,,,,,,0,,,63,0
22680,note_on,0,0,1,,,,,,,,,,,,,,,0,,,75,51
22680,note_on,0,0,1,,,,,,,,,,,,,,,0,,,72,43
22680,note_on,0,0,1,,,,,,,,,,,,,,,0,,,63,43
22800,note_on,0,0,1,,,,,,,,,,,,,,,0,,,72,45
22800,note_on,0,0,1,,,,,,,,,,,,,,,0,,,63,45
22800,note_on,0,0,1,,,,,,,,,,,,,,,0,,,63,0
22800,note_on,0,0,1,,,,,,,,,,,,,,,0,,,72,0
22800,note_on,120,0,1,,,,,,,,,,,,,,,0,,,75,0
22800,set_tempo,480,1,0,,,,,,,,,,,,474308,,,,,,,
22800,note_on,0,0,1,,,,,,,,,,,,,,,0,,,75,53
22800,note_on,120,0,2,,,,,,,,,,,,,,,0,,,56,0
22800,note_on,0,0,2,,,,,,,,,,,,,,,0,,,51,0
22800,note_on,0,0,2,,,,,,,,,,,,,,,0,,,44,0
22800,note_on,0,0,2,,,,,,,,,,,,,,,0,,,44,37
22800,note_on,0,0,2,,,,,,,,,,,,,,,0,,,51,37
22800,note_on,0,0,2,,,,,,,,,,,,,,,0,,,56,43
22920,note_on,0,0,2,,,,,,,,,,,,,,,0,,,51,0
22920,note_on,0,0,2,,,,,,,,,,,,,,,0,,,44,0
22920,note_on,0,0,1,,,,,,,,,,,,,,,0,,,63,0
22920,note_on,120,0,1,,,,,,,,,,,,,,,0,,,75,0
22920,control_change,0,0,2,,,,,,,,,,,,,,,0,64,0,,
22920,note_on,0,0,1,,,,,,,,,,,,,,,0,,,72,0
22920,note_on,120,0,2,,,,,,,,,,,,,,,0,,,56,0
23040,note_on,120,0,1,,,,,,,,,,,,,,,0,,,63,40
23040,note_on,0,0,1,,,,,,,,,,,,,,,0,,,71,40
23040,note_on,0,0,1,,,,,,,,,,,,,,,0,,,75,48
23040,set_tempo,240,1,0,,,,,,,,,,,,413793,,,,,,,
23040,note_on,120,0,2,,,,,,,,,,,,,,,0,,,44,37
23040,note_on,0,0,2,,,,,,,,,,,,,,,0,,,56,44
23040,note_on,0,0,2,,,,,,,,,,,,,,,0,,,51,37
23160,note_on,120,0,1,,,,,,,,,,,,,,,0,,,75,0
23160,note_on,0,0,1,,,,,,,,,,,,,,,0,,,71,0
23160,note_on,0,0,1,,,,,,,,,,,,,,,0,,,63,0
23160,note_on,0,0,1,,,,,,,,,,,,,,,0,,,72,43
23280,set_tempo,240,1,0,,,,,,,,,,,,427046,,,,,,,
23280,note_on,0,0,1,,,,,,,,,,,,,,,0,,,68,43
23280,note_on,0,0,2,,,,,,,,,,,,,,,0,,,44,0
23280,note_on,240,0,2,,,,,,,,,,,,,,,0,,,56,0
23280,note_on,0,0,2,,,,,,,,,,,,,,,0,,,51,0
23280,note_on,120,0,1,,,,,,,,,,,,,,,0,,,72,0
23400,note_on,120,0,1,,,,,,,,,,,,,,,0,,,68,0
23400,note_on,0,0,1,,,,,,,,,,,,,,,0,,,63,43
23520,set_tempo,240,1,0,,,,,,,,,,,,465116,,,,,,,
23520,note_on,120,0,1,,,,,,,,,,,,,,,0,,,63,0
23520,note_on,0,0,1,,,,,,,,,,,,,,,0,,,60,48
23640,note_on,120,0,1,,,,,,,,,,,,,,,0,,,60,0
23760,set_tempo,240,1,0,,,,,,,,,,,,418118,,,,,,,
23760,note_on,120,0,1,,,,,,,,,,,,,,,0,,,63,50
23880,note_on,0,0,1,,,,,,,,,,,,,,,0,,,68,44
23880,note_on,120,0,1,,,,,,,,,,,,,,,0,,,63,0
24000,note_on,0,0,1,,,,,,,,,,,,,,,0,,,72,44
24000,set_tempo,240,1,0,,,,,,,,,,,,427046,,,,,,,
24000,note_on,120,0,1,,,,,,,,,,,,,,,0,,,68,0
24120,note_on,120,0,1,,,,,,,,,,,,,,,0,,,72,0
24120,note_on,0,0,1,,,,,,,,,,,,,,,0,,,75,44
24240,set_tempo,240,1,0,,,,,,,,,,,,474308,,,,,,,
24240,note_on,120,0,1,,,,,,,,,,,,,,,0,,,75,0
24240,note_on,0,0,1,,,,,,,,,,,,,,,0,,,80,47
24360,note_on,120,0,1,,,,,,,,,,,,,,,0,,,80,0
24480,note_on,0,0,2,,,,,,,,,,,,,,,0,,,61,37
24480,note_on,0,0,2,,,,,,,,,,,,,,,0,,,55,37
24480,set_tempo,240,1,0,,,,,,,,,,,,506329,,,,,,,
24480,note_on,120,0,1,,,,,,,,,,,,,,,0,,,81,46
24480,note_on,0,0,1,,,,,,,,,,,,,,,0,,,69,39
24480,note_on,1200,0,2,,,,,,,,,,,,,,,0,,,63,44
24540,note_on,60,0,2,,,,,,,,,,,,,,,0,,,55,0
24540,note_on,0,0,2,,,,,,,,,,,,,,,0,,,61,0
24540,note_on,0,0,2,,,,,,,,,,,,,,,0,,,63,0
24540,note_on,0,0,1,,,,,,,,,,,,,,,0,,,81,0
24540,note_on,60,0,1,,,,,,,,,,,,,,,0,,,69,0
24720,note_on,180,0,2,,,,,,,,,,,,,,,0,,,63,44
24720,note_on,0,0,2,,,,,,,,,,,,,,,0,,,61,37
24720,note_on,0,0,2,,,,,,,,,,,,,,,0,,,55,37
24720,set_tempo,240,1,0,,,,,,,,,,,,456274,,,,,,,
24720,note_on,0,0,1,,,,,,,,,,,,,,,0,,,82,51
24720,note_on,180,0,1,,,,,,,,,,,,,,,0,,,70,43
25200,note_on,0,0,2,,,,,,,,,,,,,,,0,,,50,43
25200,note_on,0,0,2,,,,,,,,,,,,,,,0,,,63,0
25200,note_on,0,0,2,,,,,,,,,,,,,,,0,,,61,0
25200,text,0,1,1,,,,,,,,,,,,,,,,,,,
25200,note_on,480,0,2,,,,,,,,,,,,,,,0,,,55,0
25200,control_change,0,0,1,,,,,,,,,,,,,,,0,91,127,,
25200,note_on,0,0,1,,,,,,,,,,,,,,,0,,,62,51
25200,note_on,0,0,1,,,,,,,,,,,,,,,0,,,70,0
25200,note_on,480,0,1,,,,,,,,,,,,,,,0,,,82,0
25200,set_tempo,480,1,0,,,,,,,,,,,,415225,,,,,,,
25320,note_on,0,0,1,,,,,,,,,,,,,,,0,,,63,42
25320,note_on,120,0,1,,,,,,,,,,,,,,,0,,,62,0
25320,note_on,120,0,2,,,,,,,,,,,,,,,0,,,50,0
25320,note_on,0,0,2,,,,,,,,,,,,,,,0,,,51,40
25440,note_on,120,0,2,,,,,,,,,,,,,,,0,,,51,0
25440,note_on,0,0,1,,,,,,,,,,,,,,,0,,,58,45
25440,note_on,0,0,2,,,,,,,,,,,,,,,0,,,46,42
25440,note_on,120,0,1,,,,,,,,,,,,,,,0,,,63,0
25440,set_tempo,240,1,0,,,,,,,,,,,,427046,,,,,,,
25560,note_on,0,0,1,,,,,,,,,,,,,,,0,,,55,42
25560,note_on,120,0,1,,,,,,,,,,,,,,,0,,,58,0
25560,note_on,0,0,2,,,,,,,,,,,,,,,0,,,43,40
25560,note_on,120,0,2,,,,,,,,,,,,,,,0,,,46,0
25680,note_on,0,0,1,,,,,,,,,,,,,,,0,,,51,45
25680,note_on,120,0,1,,,,,,,,,,,,,,,0,,,55,0
25680,note_on,0,0,2,,,,,,,,,,,,,,,0,,,39,42
25680,note_on,120,0,2,,,,,,,,,,,,,,,0,,,43,0
25680,set_tempo,240,1,0,,,,,,,,,,,,476190,,,,,,,
25800,note_on,120,0,1,,,,,,,,,,,,,,,0,,,51,0
25800,note_on,120,0,2,,,,,,,,,,,,,,,0,,,39,0
25920,set_tempo,240,1,0,,,,,,,,,,,,436364,,,,,,,
25920,note_on,120,0,1,,,,,,,,,,,,,,,0,,,63,45
25920,note_on,0,0,1,,,,,,,,,,,,,,,0,,,73,45
25920,note_on,0,0,1,,,,,,,,,,,,,,,0,,,75,53
25920,note_on,0,0,2,,,,,,,,,,,,,,,0,,,58,43
25920,note_on,0,0,2,,,,,,,,,,,,,,,0,,,51,36
25920,note_on,0,0,2,,,,,,,,,,,,,,,0,,,46,36
25920,control_change,120,0,2,,,,,,,,,,,,,,,0,64,127,,
26280,note_on,360,0,2,,,,,,,,,,,,,,,0,,,58,0
26280,note_on,0,0,2,,,,,,,,,,,,,,,0,,,51,33
26280,note_on,0,0,2,,,,,,,,,,,,,,,0,,,46,33
26280,note_on,0,0,2,,,,,,,,,,,,,,,0,,,46,0
26280,note_on,0,0,2,,,,,,,,,,,,,,,0,,,51,0
26280,note_on,360,0,1,,,,,,,,,,,,,,,0,,,75,0
26280,note_on,0,0,2,,,,,,,,,,,,,,,0,,,58,40
26280,note_on,0,0,1,,,,,,,,,,,,,,,0,,,73,0
26280,note_on,0,0,1,,,,,,,,,,,,,,,0,,,75,51
26280,note_on,0,0,1,,,,,,,,,,,,,,,0,,,63,43
26280,note_on,0,0,1,,,,,,,,,,,,,,,0,,,73,43
26280,note_on,0,0,1,,,,,,,,,,,,,,,0,,,63,0
26400,note_on,120,0,2,,,,,,,,,,,,,,,0,,,58,0
26400,note_on,0,0,2,,,,,,,,,,,,,,,0,,,46,37
26400,set_tempo,480,1,0,,,,,,,,,,,,476190,,,,,,,
26400,note_on,0,0,2,,,,,,,,,,,,,,,0,,,51,37
26400,note_on,0,0,2,,,,,,,,,,,,,,,0,,,58,43
26400,note_on,0,0,2,,,,,,,,,,,,,,,0,,,51,0
26400,note_on,0,0,2,,,,,,,,,,,,,,,0,,,46,0
26400,note_on,0,0,1,,,,,,,,,,,,,,,0,,,75,53
26400,note_on,0,0,1,,,,,,,,,,,,,,,0,,,73,45
26400,note_on,0,0,1,,,,,,,,,,,,,,,0,,,63,45
26400,note_on,0,0,1,,,,,,,,,,,,,,,0,,,63,0
26400,note_on,0,0,1,,,,,,,,,,,,,,,0,,,73,0
26400,note_on,120,0,1,,,,,,,,,,,,,,,0,,,75,0
26520,note_on,0,0,1,,,,,,,,,,,,,,,0,,,63,0
26520,note_on,120,0,1,,,,,,,,,,,,,,,0,,,75,0
26520,control_change,0,0,2,,,,,,,,,,,,,,,0,64,0,,
26520,note_on,0,0,2,,,,,,,,,,,,,,,0,,,46,0
26520,note_on,0,0,2,,,,,,,,,,,,,,,0,,,51,0
26520,note_on,120,0,2,,,,,,,,,,,,,,,0,,,58,0
26520,note_on,0,0,1,,,,,,,,,,,,,,,0,,,73,0
26640,note_on,0,0,2,,,,,,,,,,,,,,,0,,,58,43
26640,note_on,120,0,2,,,,,,,,,,,,,,,0,,,46,36
26640,set_tempo,240,1,0,,,,,,,,,,,,436364,,,,,,,
26640,note_on,0,0,2,,,,,,,,,,,,,,,0,,,51,36
26640,note_on,0,0,1,,,,,,,,,,,,,,,0,,,75,53
26640,note_on,0,0,1,,,,,,,,,,,,,,,0,,,73,45
26640,note_on,120,0,1,,,,,,,,,,,,,,,0,,,63,45
26718,control_change,78,0,2,,,,,,,,,,,,,,,0,64,127,,
27000,note_on,0,0,1,,,,,,,,,,,,,,,0,,,63,43
27000,note_on,0,0,1,,,,,,,,,,,,,,,0,,,73,43
27000,note_on,0,0,1,,,,,,,,,,,,,,,0,,,75,51
27000,note_on,0,0,1,,,,,,,,,,,,,,,0,,,73,0
27000,note_on,0,0,1,,,,,,,,,,,,,,,0,,,63,0
27000,note_on,282,0,2,,,,,,,,,,,,,,,0,,,58,0
27000,note_on,0,0,2,,,,,,,,,,,,,,,0,,,46,0
27000,note_on,0,0,2,,,,,,,,,,,,,,,0,,,46,33
27000,note_on,0,0,2,,,,,,,,,,,,,,,0,,,51,33
27000,note_on,0,0,2,,,,,,,,,,,,,,,0,,,58,40
27000,note_on,360,0,1,,,,,,,,,,,,,,,0,,,75,0
27000,note_on,0,0,2,,,,,,,,,,,,,,,0,,,51,0
27120,note_on,0,0,1,,,,,,,,,,,,,,,0,,,63,45
27120,note_on,0,0,1,,,,,,,,,,,,,,,0,,,63,0
27120,note_on,0,0,1,,,,,,,,,,,,,,,0,,,73,0
27120,note_on,120,0,1,,,,,,,,,,,,,,,0,,,75,0
27120,note_on,0,0,1,,,,,,,,,,,,,,,0,,,73,45
27120,set_tempo,480,1,0,,,,,,,,,,,,474308,,,,,,,
27120,note_on,0,0,2,,,,,,,,,,,,,,,0,,,58,43
27120,note_on,0,0,2,,,,,,,,,,,,,,,0,,,51,37
27120,note_on,0,0,2,,,,,,,,,,,,,,,0,,,46,37
27120,note_on,0,0,2,,,,,,,,,,,,,,,0,,,46,0
27120,note_on,0,0,2,,,,,,,,,,,,,,,0,,,51,0
27120,note_on,120,0,2,,,,,,,,,,,,,,,0,,,58,0
27120,note_on,0,0,1,,,,,,,,,,,,,,,0,,,75,53
27240,note_on,120,0,2,,,,,,,,,,,,,,,0,,,58,0
27240,note_on,0,0,2,,,,,,,,,,,,,,,0,,,46,0
27240,control_change,0,0,2,,,,,,,,,,,,,,,0,64,0,,
27240,note_on,0,0,1,,,,,,,,,,,,,,,0,,,63,0
27240,note_on,0,0,1,,,,,,,,,,,,,,,0,,,73,0
27240,note_on,120,0,1,,,,,,,,,,,,,,,0,,,75,0
27240,note_on,0,0,2,,,,,,,,,,,,,,,0,,,51,0
27360,note_on,0,0,2,,,,,,,,,,,,,,,0,,,51,37
27360,note_on,0,0,2,,,,,,,,,,,,,,,0,,,58,44
27360,note_on,120,0,2,,,,,,,,,,,,,,,0,,,46,37
27360,set_tempo,240,1,0,,,,,,,,,,,,413793,,,,,,,
27360,note_on,0,0,1,,,,,,,,,,,,,,,0,,,75,48
27360,note_on,0,0,1,,,,,,,,,,,,,,,0,,,72,40
27360,note_on,120,0,1,,,,,,,,,,,,,,,0,,,63,40
27480,note_on,0,0,1,,,,,,,,,,,,,,,0,,,73,43
27480,note_on,0,0,1,,,,,,,,,,,,,,,0,,,63,0
27480,note_on,0,0,1,,,,,,,,,,,,,,,0,,,72,0
27480,note_on,120,0,1,,,,,,,,,,,,,,,0,,,75,0
27600,set_tempo,240,1,0,,,,,,,,,,,,427046,,,,,,,
27600,note_on,0,0,2,,,,,,,,,,,,,,,0,,,46,0
27600,note_on,0,0,2,,,,,,,,,,,,,,,0,,,51,0
27600,note_on,120,0,1,,,,,,,,,,,,,,,0,,,73,0
27600,note_on,0,0,1,,,,,,,,,,,,,,,0,,,70,43
27600,note_on,240,0,2,,,,,,,,,,,,,,,0,,,58,0
27720,note_on,0,0,1,,,,,,,,,,,,,,,0,,,67,43
27720,note_on,120,0,1,,,,,,,,,,,,,,,0,,,70,0
27840,set_tempo,240,1,0,,,,,,,,,,,,465116,,,,,,,
27840,note_on,0,0,1,,,,,,,,,,,,,,,0,,,63,48
27840,note_on,120,0,1,,,,,,,,,,,,,,,0,,,67,0
27960,note_on,120,0,1,,,,,,,,,,,,,,,0,,,63,0
28080,note_on,120,0,1,,,,,,,,,,,,,,,0,,,67,50
28080,set_tempo,240,1,0,,,,,,,,,,,,418118,,,,,,,
28200,note_on,120,0,1,,,,,,,,,,,,,,,0,,,67,0
28200,note_on,0,0,1,,,,,,,,,,,,,,,0,,,70,44
28320,note_on,120,0,1,,,,,,,,,,,,,,,0,,,70,0
28320,note_on,0,0,1,,,,,,,,,,,,,,,0,,,73,44
28320,set_tempo,240,1,0,,,,,,,,,,,,427046,,,,,,,
28440,note_on,120,0,1,,,,,,,,,,,,,,,0,,,73,0
28440,note_on,0,0,1,,,,,,,,,,,,,,,0,,,75,44
28560,note_on,120,0,1,,,,,,,,,,,,,,,0,,,75,0
28560,note_on,0,0,1,,,,,,,,,,,,,,,0,,,79,47
28560,set_tempo,240,1,0,,,,,,,,,,,,474308,,,,,,,
28680,note_on,120,0,1,,,,,,,,,,,,,,,0,,,79,0
28800,note_on,120,0,1,,,,,,,,,,,,,,,0,,,83,46
28800,note_on,0,0,2,,,,,,,,,,,,,,,0,,,63,37
28800,note_on,0,0,2,,,,,,,,,,,,,,,0,,,56,37
28800,note_on,0,0,1,,,,,,,,,,,,,,,0,,,71,39
28800,note_on,1200,0,2,,,,,,,,,,,,,,,0,,,67,44
28800,set_tempo,240,1,0,,,,,,,,,,,,506329,,,,,,,
28860,note_on,60,0,2,,,,,,,,,,,,,,,0,,,56,0
28860,note_on,0,0,2,,,,,,,,,,,,,,,0,,,63,0
28860,note_on,0,0,2,,,,,,,,,,,,,,,0,,,67,0
28860,note_on,0,0,1,,,,,,,,,,,,,,,0,,,83,0
28860,note_on,60,0,1,,,,,,,,,,,,,,,0,,,71,0
29040,note_on,0,0,1,,,,,,,,,,,,,,,0,,,84,51
29040,note_on,180,0,1,,,,,,,,,,,,,,,0,,,72,43
29040,set_tempo,240,1,0,,,,,,,,,,,,456274,,,,,,,
29040,note_on,0,0,2,,,,,,,,,,,,,,,0,,,63,37
29040,note_on,180,0,2,,,,,,,,,,,,,,,0,,,68,44
29040,note_on,0,0,2,,,,,,,,,,,,,,,0,,,56,37
29520,note_on,480,0,2,,,,,,,,,,,,,,,0,,,56,0
29520,note_on,0,0,1,,,,,,,,,,,,,,,0,,,67,51
29520,note_on,0,0,1,,,,,,,,,,,,,,,0,,,72,0
29520,note_on,480,0,1,,,,,,,,,,,,,,,0,,,84,0
29520,set_tempo,480,1,0,,,,,,,,,,,,415225,,,,,,,
29520,control_change,0,0,1,,,,,,,,,,,,,,,0,91,127,,
29520,text,0,1,1,,,,,,,,,,,,,,,,,,,
29520,note_on,0,0,2,,,,,,,,,,,,,,,0,,,63,0
29520,note_on,0,0,2,,,,,,,,,,,,,,,0,,,68,0
29520,note_on,0,0,2,,,,,,,,,,,,,,,0,,,55,43
29640,note_on,120,0,1,,,,,,,,,,,,,,,0,,,67,0
29640,note_on,120,0,2,,,,,,,,,,,,,,,0,,,55,0
29640,note_on,0,0,1,,,,,,,,,,,,,,,0,,,68,42
29640,note_on,0,0,2,,,,,,,,,,,,,,,0,,,56,40
29760,note_on,120,0,1,,,,,,,,,,,,,,,0,,,68,0
29760,note_on,0,0,1,,,,,,,,,,,,,,,0,,,63,45
29760,note_on,120,0,2,,,,,,,,,,,,,,,0,,,56,0
29760,set_tempo,240,1,0,,,,,,,,,,,,427046,,,,,,,
29760,note_on,0,0,2,,,,,,,,,,,,,,,0,,,51,42
29880,note_on,120,0,2,,,,,,,,,,,,,,,0,,,51,0
29880,note_on,120,0,1,,,,,,,,,,,,,,,0,,,63,0
29880,note_on,0,0,1,,,,,,,,,,,,,,,0,,,60,42
29880,note_on,0,0,2,,,,,,,,,,,,,,,0,,,48,40
30000,note_on,120,0,1,,,,,,,,,,,,,,,0,,,60,0
30000,note_on,120,0,2,,,,,,,,,,,,,,,0,,,48,0
30000,note_on,0,0,2,,,,,,,,,,,,,,,0,,,44,42
30000,note_on,0,0,1,,,,,,,,,,,,,,,0,,,56,45
30000,set_tempo,240,1,0,,,,,,,,,,,,476190,,,,,,,
30120,note_on,120,0,1,,,,,,,,,,,,,,,0,,,56,0
30120,note_on,120,0,2,,,,,,,,,,,,,,,0,,,44,0
30240,set_tempo,240,1,0,,,,,,,,,,,,437956,,,,,,,
30240,note_on,120,0,2,,,,,,,,,,,,,,,0,,,54,36
30240,note_on,0,0,2,,,,,,,,,,,,,,,0,,,56,36
30240,note_on,0,0,2,,,,,,,,,,,,,,,0,,,63,43
30240,note_on,120,0,1,,,,,,,,,,,,,,,0,,,68,49
30360,note_on,0,0,1,,,,,,,,,,,,,,,0,,,69,48
30360,note_on,120,0,1,,,,,,,,,,,,,,,0,,,68,0
30480,note_on,120,0,1,,,,,,,,,,,,,,,0,,,69,0
30480,note_on,0,0,1,,,,,,,,,,,,,,,0,,,70,51
30600,note_on,0,0,2,,,,,,,,,,,,,,,0,,,63,35
30600,note_on,0,0,2,,,,,,,,,,,,,,,0,,,54,29
30600,note_on,0,0,2,,,,,,,,,,,,,,,0,,,54,0
30600,note_on,0,0,2,,,,,,,,,,,,,,,0,,,56,0
30600,note_on,360,0,2,,,,,,,,,,,,,,,0,,,63,0
30600,note_on,120,0,1,,,,,,,,,,,,,,,0,,,70,0
30600,note_on,0,0,1,,,,,,,,,,,,,,,0,,,71,54
30600,note_on,0,0,2,,,,,,,,,,,,,,,0,,,56,29
30720,note_on,120,0,1,,,,,,,,,,,,,,,0,,,71,0
30720,set_tempo,480,1,0,,,,,,,,,,,,555556,,,,,,,
30720,note_on,0,0,1,,,,,,,,,,,,,,,0,,,72,57
30720,note_on,0,0,2,,,,,,,,,,,,,,,0,,,56,0
30720,note_on,0,0,2,,,,,,,,,,,,,,,0,,,54,0
30720,note_on,0,0,2,,,,,,,,,,,,,,,0,,,54,32
30720,note_on,0,0,2,,,,,,,,,,,,,,,0,,,56,32
30720,note_on,0,0,2,,,,,,,,,,,,,,,0,,,63,38
30720,note_on,120,0,2,,,,,,,,,,,,,,,0,,,63,0
30840,note_on,120,0,1,,,,,,,,,,,,,,,0,,,72,0
30840,note_on,120,0,2,,,,,,,,,,,,,,,0,,,63,0
30840,note_on,0,0,2,,,,,,,,,,,,,,,0,,,54,0
30840,note_on,0,0,2,,,,,,,,,,,,,,,0,,,56,0
30960,note_on,120,0,2,,,,,,,,,,,,,,,0,,,53,33
30960,note_on,0,0,2,,,,,,,,,,,,,,,0,,,56,33
30960,note_on,120,0,1,,,,,,,,,,,,,,,0,,,72,51
30960,note_on,0,0,2,,,,,,,,,,,,,,,0,,,61,39
30960,set_tempo,240,1,0,,,,,,,,,,,,497925,,,,,,,
31080,note_on,0,0,1,,,,,,,,,,,,,,,0,,,73,49
31080,note_on,120,0,1,,,,,,,,,,,,,,,0,,,72,0
31080,set_tempo,120,1,0,,,,,,,,,,,,506329,,,,,,,
31170,note_on,90,0,1,,,,,,,,,,,,,,,0,,,73,0
31200,note_on,0,0,2,,,,,,,,,,,,,,,0,,,61,39
31200,note_on,30,0,1,,,,,,,,,,,,,,,0,,,80,57
31200,note_on,0,0,2,,,,,,,,,,,,,,,0,,,53,33
31200,note_on,0,0,2,,,,,,,,,,,,,,,0,,,49,33
31200,note_on,0,0,2,,,,,,,,,,,,,,,0,,,56,0
31200,note_on,240,0,2,,,,,,,,,,,,,,,0,,,61,0
31200,note_on,0,0,2,,,,,,,,,,,,,,,0,,,53,0
31200,set_tempo,120,1,0,,,,,,,,,,,,526316,,,,,,,
31680,note_on,480,0,1,,,,,,,,,,,,,,,0,,,80,0
31680,note_on,0,0,1,,,,,,,,,,,,,,,0,,,65,45
31680,set_tempo,480,1,0,,,,,,,,,,,,478088,,,,,,,
31680,note_on,480,0,2,,,,,,,,,,,,,,,0,,,61,0
31680,note_on,0,0,2,,,,,,,,,,,,,,,0,,,53,0
31680,note_on,0,0,2,,,,,,,,,,,,,,,0,,,49,0
31680,note_on,0,0,2,,,,,,,,,,,,,,,0,,,51,36
31680,note_on,0,0,2,,,,,,,,,,,,,,,0,,,53,36
31680,note_on,0,0,2,,,,,,,,,,,,,,,0,,,60,43
31800,note_on,120,0,1,,,,,,,,,,,,,,,0,,,65,0
31800,note_on,0,0,1,,,,,,,,,,,,,,,0,,,66,46
31920,note_on,120,0,1,,,,,,,,,,,,,,,0,,,66,0
31920,note_on,0,0,1,,,,,,,,,,,,,,,0,,,67,47
32040,note_on,0,0,2,,,,,,,,,,,,,,,0,,,53,29
32040,note_on,120,0,1,,,,,,,,,,,,,,,0,,,67,0
32040,note_on,0,0,1,,,,,,,,,,,,,,,0,,,68,49
32040,note_on,0,0,2,,,,,,,,,,,,,,,0,,,60,35
32040,note_on,0,0,2,,,,,,,,,,,,,,,0,,,51,29
32040,note_on,360,0,2,,,,,,,,,,,,,,,0,,,60,0
32040,note_on,0,0,2,,,,,,,,,,,,,,,0,,,53,0
32040,note_on,0,0,2,,,,,,,,,,,,,,,0,,,51,0
32160,note_on,0,0,2,,,,,,,,,,,,,,,0,,,53,0
32160,note_on,0,0,2,,,,,,,,,,,,,,,0,,,51,0
32160,note_on,0,0,2,,,,,,,,,,,,,,,0,,,51,32
32160,note_on,0,0,2,,,,,,,,,,,,,,,0,,,60,38
32160,set_tempo,480,1,0,,,,,,,,,,,,552995,,,,,,,
32160,note_on,120,0,1,,,,,,,,,,,,,,,0,,,68,0
32160,note_on,0,0,1,,,,,,,,,,,,,,,0,,,69,50
32160,note_on,120,0,2,,,,,,,,,,,,,,,0,,,60,0
32160,note_on,0,0,2,,,,,,,,,,,,,,,0,,,53,32
32280,note_on,120,0,1,,,,,,,,,,,,,,,0,,,69,0
32280,note_on,0,0,2,,,,,,,,,,,,,,,0,,,53,0
32280,note_on,0,0,2,,,,,,,,,,,,,,,0,,,51,0
32280,note_on,120,0,2,,,,,,,,,,,,,,,0,,,60,0
32400,note_on,120,0,2,,,,,,,,,,,,,,,0,,,49,33
32400,note_on,0,0,2,,,,,,,,,,,,,,,0,,,53,33
32400,note_on,0,0,2,,,,,,,,,,,,,,,0,,,58,39
32400,note_on,120,0,1,,,,,,,,,,,,,,,0,,,69,51
32400,set_tempo,240,1,0,,,,,,,,,,,,497925,,,,,,,
32520,note_on,120,0,1,,,,,,,,,,,,,,,0,,,69,0
32520,note_on,0,0,1,,,,,,,,,,,,,,,0,,,70,49
32520,set_tempo,120,1,0,,,,,,,,,,,,506329,,,,,,,
32610,note_on,90,0,1,,,,,,,,,,,,,,,0,,,70,0
32640,set_tempo,120,1,0,,,,,,,,,,,,526316,,,,,,,
32640,note_on,240,0,2,,,,,,,,,,,,,,,0,,,58,0
32640,note_on,0,0,2,,,,,,,,,,,,,,,0,,,53,0
32640,note_on,0,0,2,,,,,,,,,,,,,,,0,,,49,33
32640,note_on,0,0,2,,,,,,,,,,,,,,,0,,,58,39
32640,note_on,30,0,1,,,,,,,,,,,,,,,0,,,77,57
32640,note_on,0,0,2,,,,,,,,,,,,,,,0,,,46,33
32640,note_on,0,0,2,,,,,,,,,,,,,,,0,,,49,0
33120,set_tempo,480,1,0,,,,,,,,,,,,442804,,,,,,,
33120,note_on,480,0,1,,,,,,,,,,,,,,,0,,,77,0
33120,note_on,0,0,1,,,,,,,,,,,,,,,0,,,74,56
33120,note_on,0,0,2,,,,,,,,,,,,,,,0,,,49,0
33120,control_change,0,0,2,,,,,,,,,,,,,,,0,64,127,,
33120,note_on,0,0,2,,,,,,,,,,,,,,,0,,,51,42
33120,note_on,0,0,2,,,,,,,,,,,,,,,0,,,46,0
33120,note_on,480,0,2,,,,,,,,,,,,,,,0,,,58,0
33240,note_on,0,0,1,,,,,,,,,,,,,,,0,,,75,56
33240,note_on,120,0,1,,,,,,,,,,,,,,,0,,,74,0
33330,note_on,90,0,1,,,,,,,,,,,,,,,0,,,75,0
33349,control_change,229,0,2,,,,,,,,,,,,,,,0,64,0,,
33360,note_on,11,0,2,,,,,,,,,,,,,,,0,,,51,0
33360,set_tempo,240,1,0,,,,,,,,,,,,430108,,,,,,,
33360,note_on,0,0,2,,,,,,,,,,,,,,,0,,,55,43
33360,note_on,30,0,1,,,,,,,,,,,,,,,0,,,73,53
33360,note_on,0,0,1,,,,,,,,,,,,,,,0,,,85,63
33360,note_on,0,0,1,,,,,,,,,,,,,,,0,,,75,53
33360,note_on,0,0,2,,,,,,,,,,,,,,,0,,,62,51
33480,note_on,120,0,2,,,,,,,,,,,,,,,0,,,62,0
33480,note_on,0,0,2,,,,,,,,,,,,,,,0,,,63,43
33600,note_on,0,0,2,,,,,,,,,,,,,,,0,,,70,51
33600,note_on,120,0,2,,,,,,,,,,,,,,,0,,,63,0
33600,set_tempo,240,1,0,,,,,,,,,,,,476190,,,,,,,
33720,note_on,120,0,2,,,,,,,,,,,,,,,0,,,70,0
33840,note_on,0,0,2,,,,,,,,,,,,,,,0,,,51,44
33840,note_on,120,0,2,,,,,,,,,,,,,,,0,,,55,0
33840,set_tempo,240,1,0,,,,,,,,,,,,437956,,,,,,,
33840,note_on,480,0,1,,,,,,,,,,,,,,,0,,,85,0
33840,note_on,0,0,1,,,,,,,,,,,,,,,0,,,75,0
33840,note_on,0,0,1,,,,,,,,,,,,,,,0,,,73,0
33840,note_on,0,0,1,,,,,,,,,,,,,,,0,,,71,59
33846,control_change,6,0,2,,,,,,,,,,,,,,,0,64,127,,
33960,note_on,120,0,1,,,,,,,,,,,,,,,0,,,71,0
33960,note_on,0,0,1,,,,,,,,,,,,,,,0,,,72,59
34050,note_on,90,0,1,,,,,,,,,,,,,,,0,,,72,0
34080,note_on,0,0,1,,,,,,,,,,,,,,,0,,,84,67
34080,note_on,0,0,1,,,,,,,,,,,,,,,0,,,75,57
34080,note_on,30,0,1,,,,,,,,,,,,,,,0,,,72,57
34080,set_tempo,240,1,0,,,,,,,,,,,,427046,,,,,,,
34080,note_on,234,0,2,,,,,,,,,,,,,,,0,,,51,0
34080,note_on,0,0,2,,,,,,,,,,,,,,,0,,,62,54
34080,note_on,0,0,2,,,,,,,,,,,,,,,0,,,56,46
34086,control_change,6,0,2,,,,,,,,,,,,,,,0,64,0,,
34200,note_on,0,0,2,,,,,,,,,,,,,,,0,,,63,46
34200,note_on,114,0,2,,,,,,,,,,,,,,,0,,,62,0
34320,note_on,120,0,2,,,,,,,,,,,,,,,0,,,63,0
34320,set_tempo,240,1,0,,,,,,,,,,,,474308,,,,,,,
34320,note_on,0,0,2,,,,,,,,,,,,,,,0,,,68,56
34440,note_on,120,0,2,,,,,,,,,,,,,,,0,,,68,0
34560,note_on,0,0,1,,,,,,,,,,,,,,,0,,,75,0
34560,note_on,0,0,1,,,,,,,,,,,,,,,0,,,74,64
34560,note_on,120,0,2,,,,,,,,,,,,,,,0,,,56,0
34560,control_change,0,0,2,,,,,,,,,,,,,,,0,64,127,,
34560,note_on,0,0,2,,,,,,,,,,,,,,,0,,,51,48
34560,set_tempo,240,1,0,,,,,,,,,,,,433213,,,,,,,
34560,note_on,0,0,1,,,,,,,,,,,,,,,0,,,72,0
34560,note_on,480,0,1,,,,,,,,,,,,,,,0,,,84,0
34680,note_on,0,0,1,,,,,,,,,,,,,,,0,,,75,64
34680,note_on,120,0,1,,,,,,,,,,,,,,,0,,,74,0
34770,note_on,90,0,1,,,,,,,,,,,,,,,0,,,75,0
34794,control_change,234,0,2,,,,,,,,,,,,,,,0,64,0,,
34800,set_tempo,240,1,0,,,,,,,,,,,,422535,,,,,,,
34800,note_on,6,0,2,,,,,,,,,,,,,,,0,,,51,0
34800,note_on,0,0,2,,,,,,,,,,,,,,,0,,,62,57
34800,note_on,0,0,1,,,,,,,,,,,,,,,0,,,85,71
34800,note_on,0,0,1,,,,,,,,,,,,,,,0,,,75,59
34800,note_on,30,0,1,,,,,,,,,,,,,,,0,,,73,59
34800,note_on,0,0,2,,,,,,,,,,,,,,,0,,,55,48
34920,note_on,120,0,2,,,,,,,,,,,,,,,0,,,62,0
34920,note_on,0,0,2,,,,,,,,,,,,,,,0,,,63,49
35040,set_tempo,240,1,0,,,,,,,,,,,,465116,,,,,,,
35040,note_on,0,0,2,,,,,,,,,,,,,,,0,,,70,59
35040,note_on,120,0,2,,,,,,,,,,,,,,,0,,,63,0
35160,note_on,120,0,2,,,,,,,,,,,,,,,0,,,70,0
35280,note_on,0,0,2,,,,,,,,,,,,,,,0,,,51,51
35280,note_on,120,0,2,,,,,,,,,,,,,,,0,,,55,0
35280,set_tempo,240,1,0,,,,,,,,,,,,431655,,,,,,,
35280,note_on,480,0,1,,,,,,,,,,,,,,,0,,,85,0
35280,note_on,0,0,1,,,,,,,,,,,,,,,0,,,71,67
35280,note_on,0,0,1,,,,,,,,,,,,,,,0,,,73,0
35280,note_on,0,0,1,,,,,,,,,,,,,,,0,,,75,0
35297,control_change,17,0,2,,,,,,,,,,,,,,,0,64,127,,
35400,note_on,0,0,1,,,,,,,,,,,,,,,0,,,72,67
35400,note_on,120,0,1,,,,,,,,,,,,,,,0,,,71,0
35490,note_on,90,0,1,,,,,,,,,,,,,,,0,,,72,0
35520,control_change,0,0,2,,,,,,,,,,,,,,,0,64,0,,
35520,note_on,223,0,2,,,,,,,,,,,,,,,0,,,51,0
35520,note_on,0,0,2,,,,,,,,,,,,,,,0,,,62,61
35520,set_tempo,240,1,0,,,,,,,,,,,,422535,,,,,,,
35520,note_on,0,0,1,,,,,,,,,,,,,,,0,,,84,76
35520,note_on,0,0,1,,,,,,,,,,,,,,,0,,,75,64
35520,note_on,30,0,1,,,,,,,,,,,,,,,0,,,72,64
35520,note_on,0,0,2,,,,,,,,,,,,,,,0,,,56,51
35640,note_on,120,0,2,,,,,,,,,,,,,,,0,,,62,0
35640,note_on,0,0,2,,,,,,,,,,,,,,,0,,,63,52
35760,note_on,120,0,2,,,,,,,,,,,,,,,0,,,63,0
35760,set_tempo,240,1,0,,,,,,,,,,,,461538,,,,,,,
35760,note_on,0,0,2,,,,,,,,,,,,,,,0,,,68,63
35880,note_on,120,0,2,,,,,,,,,,,,,,,0,,,68,0
36000,set_tempo,240,1,0,,,,,,,,,,,,442804,,,,,,,
36000,note_on,0,0,2,,,,,,,,,,,,,,,0,,,52,50
36000,note_on,0,0,1,,,,,,,,,,,,,,,0,,,75,67
36000,note_on,0,0,2,,,,,,,,,,,,,,,0,,,64,59
36000,control_change,0,0,2,,,,,,,,,,,,,,,0,64,127,,
36000,note_on,0,0,1,,,,,,,,,,,,,,,0,,,80,79
36000,note_on,0,0,1,,,,,,,,,,,,,,,0,,,68,67
36000,note_on,120,0,2,,,,,,,,,,,,,,,0,,,56,0
36000,note_on,0,0,1,,,,,,,,,,,,,,,0,,,72,0
36000,note_on,0,0,1,,,,,,,,,,,,,,,0,,,75,0
36000,note_on,480,0,1,,,,,,,,,,,,,,,0,,,84,0
36120,set_tempo,120,1,0,,,,,,,,,,,,441176,,,,,,,
36240,set_tempo,120,1,0,,,,,,,,,,,,439560,,,,,,,
36340,set_tempo,100,1,0,,,,,,,,,,,,437956,,,,,,,
36360,note_on,0,0,2,,,,,,,,,,,,,,,0,,,52,54
36360,note_on,0,0,2,,,,,,,,,,,,,,,0,,,40,45
36360,note_on,360,0,1,,,,,,,,,,,,,,,0,,,80,0
36360,note_on,0,0,1,,,,,,,,,,,,,,,0,,,68,0
36360,note_on,0,0,1,,,,,,,,,,,,,,,0,,,75,0
36360,note_on,0,0,1,,,,,,,,,,,,,,,0,,,68,64
36360,note_on,0,0,1,,,,,,,,,,,,,,,0,,,75,64
36360,note_on,0,0,1,,,,,,,,,,,,,,,0,,,80,76
36360,note_on,0,0,2,,,,,,,,,,,,,,,0,,,52,0
36360,note_on,360,0,2,,,,,,,,,,,,,,,0,,,64,0
36460,set_tempo,120,1,0,,,,,,,,,,,,436364,,,,,,,
36480,note_on,0,0,2,,,,,,,,,,,,,,,0,,,40,0
36480,note_on,120,0,2,,,,,,,,,,,,,,,0,,,52,0
36480,note_on,0,0,1,,,,,,,,,,,,,,,0,,,68,0
36480,note_on,0,0,2,,,,,,,,,,,,,,,0,,,52,54
36480,note_on,0,0,2,,,,,,,,,,,,,,,0,,,40,45
36480,note_on,0,0,1,,,,,,,,,,,,,,,0,,,75,0
36480,note_on,0,0,1,,,,,,,,,,,,,,,0,,,75,64
36480,note_on,0,0,1,,,,,,,,,,,,,,,0,,,80,76
36480,note_on,0,0,1,,,,,,,,,,,,,,,0,,,68,64
36480,note_on,120,0,1,,,,,,,,,,,,,,,0,,,80,0
36560,set_tempo,100,1,0,,,,,,,,,,,,434783,,,,,,,
36600,note_on,0,0,1,,,,,,,,,,,,,,,0,,,75,0
36600,note_on,0,0,1,,,,,,,,,,,,,,,0,,,68,0
36600,note_on,120,0,1,,,,,,,,,,,,,,,0,,,80,0
36600,note_on,120,0,2,,,,,,,,,,,,,,,0,,,52,0
36600,note_on,0,0,2,,,,,,,,,,,,,,,0,,,40,0
36600,control_change,0,0,2,,,,,,,,,,,,,,,0,64,0,,
36680,set_tempo,120,1,0,,,,,,,,,,,,433213,,,,,,,
36720,note_on,0,0,1,,,,,,,,,,,,,,,0,,,80,81
36720,note_on,0,0,1,,,,,,,,,,,,,,,0,,,68,68
36720,note_on,120,0,1,,,,,,,,,,,,,,,0,,,75,68
36720,note_on,120,0,2,,,,,,,,,,,,,,,0,,,40,51
36720,note_on,0,0,2,,,,,,,,,,,,,,,0,,,52,60
36780,set_tempo,100,1,0,,,,,,,,,,,,431655,,,,,,,
36840,note_on,0,0,1,,,,,,,,,,,,,,,0,,,68,0
36840,note_on,0,0,1,,,,,,,,,,,,,,,0,,,75,0
36840,note_on,120,0,2,,,,,,,,,,,,,,,0,,,52,0
36840,note_on,0,0,2,,,,,,,,,,,,,,,0,,,40,0
36840,note_on,120,0,1,,,,,,,,,,,,,,,0,,,80,0
36900,set_tempo,120,1,0,,,,,,,,,,,,430108,,,,,,,
36960,note_on,120,0,1,,,,,,,,,,,,,,,0,,,68,63
36960,note_on,0,0,1,,,,,,,,,,,,,,,0,,,75,63
36960,note_on,120,0,2,,,,,,,,,,,,,,,0,,,40,46
36960,note_on,0,0,1,,,,,,,,,,,,,,,0,,,80,75
36960,note_on,0,0,2,,,,,,,,,,,,,,,0,,,52,55
37000,set_tempo,100,1,0,,,,,,,,,,,,428571,,,,,,,
37080,note_on,0,0,1,,,,,,,,,,,,,,,0,,,68,0
37080,note_on,120,0,1,,,,,,,,,,,,,,,0,,,80,0
37080,note_on,0,0,1,,,,,,,,,,,,,,,0,,,75,0
37080,note_on,120,0,2,,,,,,,,,,,,,,,0,,,52,0
37080,note_on,0,0,2,,,,,,,,,,,,,,,0,,,40,0
37120,set_tempo,120,1,0,,,,,,,,,,,,427046,,,,,,,
37200,note_on,120,0,1,,,,,,,,,,,,,,,0,,,75,63
37200,note_on,0,0,2,,,,,,,,,,,,,,,0,,,52,55
37200,note_on,120,0,2,,,,,,,,,,,,,,,0,,,40,46
37200,note_on,0,0,1,,,,,,,,,,,,,,,0,,,68,63
37200,note_on,0,0,1,,,,,,,,,,,,,,,0,,,80,75
37220,set_tempo,100,1,0,,,,,,,,,,,,425532,,,,,,,
37320,note_on,0,0,1,,,,,,,,,,,,,,,0,,,75,0
37320,note_on,120,0,1,,,,,,,,,,,,,,,0,,,80,0
37320,note_on,0,0,1,,,,,,,,,,,,,,,0,,,68,0
37320,note_on,120,0,2,,,,,,,,,,,,,,,0,,,52,0
37320,note_on,0,0,2,,,,,,,,,,,,,,,0,,,40,0
37340,set_tempo,120,1,0,,,,,,,,,,,,424028,,,,,,,
37420,set_tempo,80,1,0,,,,,,,,,,,,421053,,,,,,,
37440,note_on,120,0,1,,,,,,,,,,,,,,,0,,,68,65
37440,note_on,0,0,1,,,,,,,,,,,,,,,0,,,74,77
37440,note_on,120,0,2,,,,,,,,,,,,,,,0,,,41,57
37497,control_change,57,0,2,,,,,,,,,,,,,,,0,64,127,,
37520,set_tempo,100,1,0,,,,,,,,,,,,419580,,,,,,,
37560,note_on,63,0,2,,,,,,,,,,,,,,,0,,,41,0
37560,note_on,120,0,1,,,,,,,,,,,,,,,0,,,74,0
37560,note_on,0,0,1,,,,,,,,,,,,,,,0,,,80,79
37560,note_on,0,0,1,,,,,,,,,,,,,,,0,,,68,0
37560,note_on,0,0,2,,,,,,,,,,,,,,,0,,,42,59
37600,set_tempo,80,1,0,,,,,,,,,,,,418118,,,,,,,
37680,note_on,0,0,2,,,,,,,,,,,,,,,0,,,43,61
37680,note_on,120,0,2,,,,,,,,,,,,,,,0,,,42,0
37680,note_on,0,0,1,,,,,,,,,,,,,,,0,,,68,68
37680,note_on,0,0,1,,,,,,,,,,,,,,,0,,,74,81
37680,note_on,120,0,1,,,,,,,,,,,,,,,0,,,80,0
37680,set_tempo,80,1,0,,,,,,,,,,,,416667,,,,,,,
37760,set_tempo,80,1,0,,,,,,,,,,,,415225,,,,,,,
37800,note_on,0,0,1,,,,,,,,,,,,,,,0,,,68,0
37800,note_on,0,0,1,,,,,,,,,,,,,,,0,,,80,83
37800,note_on,120,0,2,,,,,,,,,,,,,,,0,,,43,0
37800,note_on,120,0,1,,,,,,,,,,,,,,,0,,,74,0
37800,note_on,0,0,2,,,,,,,,,,,,,,,0,,,44,62
37860,set_tempo,100,1,0,,,,,,,,,,,,413793,,,,,,,
37920,note_on,120,0,2,,,,,,,,,,,,,,,0,,,44,0
37920,note_on,0,0,2,,,,,,,,,,,,,,,0,,,45,64
37920,note_on,0,0,1,,,,,,,,,,,,,,,0,,,74,85
37920,note_on,120,0,1,,,,,,,,,,,,,,,0,,,80,0
37920,note_on,0,0,1,,,,,,,,,,,,,,,0,,,68,72
37940,set_tempo,80,1,0,,,,,,,,,,,,412371,,,,,,,
38020,set_tempo,80,1,0,,,,,,,,,,,,410959,,,,,,,
38040,note_on,120,0,1,,,,,,,,,,,,,,,0,,,74,0
38040,note_on,120,0,2,,,,,,,,,,,,,,,0,,,45,0
38040,note_on,0,0,2,,,,,,,,,,,,,,,0,,,46,66
38040,note_on,0,0,1,,,,,,,,,,,,,,,0,,,80,86
38040,note_on,0,0,1,,,,,,,,,,,,,,,0,,,68,0
38100,set_tempo,80,1,0,,,,,,,,,,,,409556,,,,,,,
38160,note_on,0,0,1,,,,,,,,,,,,,,,0,,,74,88
38160,note_on,0,0,2,,,,,,,,,,,,,,,0,,,47,68
38160,note_on,120,0,2,,,,,,,,,,,,,,,0,,,46,0
38160,note_on,120,0,1,,,,,,,,,,,,,,,0,,,80,0
38160,note_on,0,0,1,,,,,,,,,,,,,,,0,,,68,74
38280,note_on,120,0,2,,,,,,,,,,,,,,,0,,,47,0
38280,note_on,0,0,2,,,,,,,,,,,,,,,0,,,48,70
38280,note_on,0,0,1,,,,,,,,,,,,,,,0,,,80,90
38280,note_on,0,0,1,,,,,,,,,,,,,,,0,,,68,0
38280,note_on,120,0,1,,,,,,,,,,,,,,,0,,,74,0
38400,note_on,0,0,1,,,,,,,,,,,,,,,0,,,74,92
38400,note_on,120,0,1,,,,,,,,,,,,,,,0,,,80,0
38400,note_on,0,0,2,,,,,,,,,,,,,,,0,,,49,71
38400,note_on,120,0,2,,,,,,,,,,,,,,,0,,,48,0
38400,note_on,0,0,1,,,,,,,,,,,,,,,0,,,68,78
38520,note_on,120,0,1,,,,,,,,,,,,,,,0,,,74,0
38520,note_on,0,0,1,,,,,,,,,,,,,,,0,,,68,0
38520,note_on,0,0,2,,,,,,,,,,,,,,,0,,,50,73
38520,note_on,120,0,2,,,,,,,,,,,,,,,0,,,49,0
38520,note_on,0,0,1,,,,,,,,,,,,,,,0,,,80,94
38640,note_on,120,0,2,,,,,,,,,,,,,,,0,,,50,0
38640,note_on,0,0,1,,,,,,,,,,,,,,,0,,,68,80
38640,note_on,120,0,1,,,,,,,,,,,,,,,0,,,80,0
38640,note_on,0,0,2,,,,,,,,,,,,,,,0,,,51,75
38640,note_on,0,0,1,,,,,,,,,,,,,,,0,,,74,95
38760,note_on,120,0,2,,,,,,,,,,,,,,,0,,,51,0
38760,note_on,0,0,2,,,,,,,,,,,,,,,0,,,52,77
38760,note_on,0,0,1,,,,,,,,,,,,,,,0,,,80,97
38760,note_on,120,0,1,,,,,,,,,,,,,,,0,,,74,0
38760,note_on,0,0,1,,,,,,,,,,,,,,,0,,,68,0
38880,note_on,0,0,1,,,,,,,,,,,,,,,0,,,74,90
38880,control_change,0,0,2,,,,,,,,,,,,,,,0,64,0,,
38880,note_on,0,0,2,,,,,,,,,,,,,,,0,,,52,85
38880,note_on,0,0,2,,,,,,,,,,,,,,,0,,,40,72
38880,note_on,120,0,2,,,,,,,,,,,,,,,0,,,52,0
38880,set_tempo,780,1,0,,,,,,,,,,,,444444,,,,,,,
38880,note_on,120,0,1,,,,,,,,,,,,,,,0,,,80,0
38880,note_on,0,0,1,,,,,,,,,,,,,,,0,,,68,90
38880,note_on,0,0,1,,,,,,,,,,,,,,,0,,,80,106
39120,note_on,240,0,2,,,,,,,,,,,,,,,0,,,52,0
39120,set_tempo,240,1,0,,,,,,,,,,,,421053,,,,,,,
39120,note_on,0,0,2,,,,,,,,,,,,,,,0,,,40,0
39120,note_on,240,0,1,,,,,,,,,,,,,,,0,,,80,0
39120,note_on,0,0,1,,,,,,,,,,,,,,,0,,,68,0
39120,note_on,0,0,1,,,,,,,,,,,,,,,0,,,70,80
39120,note_on,0,0,1,,,,,,,,,,,,,,,0,,,74,80
39120,note_on,0,0,1,,,,,,,,,,,,,,,0,,,80,80
39120,note_on,0,0,1,,,,,,,,,,,,,,,0,,,82,95
39120,note_on,0,0,2,,,,,,,,,,,,,,,0,,,64,77
39120,note_on,0,0,1,,,,,,,,,,,,,,,0,,,74,0
39120,note_on,0,0,2,,,,,,,,,,,,,,,0,,,52,65
39240,note_on,120,0,1,,,,,,,,,,,,,,,0,,,82,0
39240,note_on,0,0,1,,,,,,,,,,,,,,,0,,,70,0
39240,note_on,0,0,1,,,,,,,,,,,,,,,0,,,74,0
39240,note_on,0,0,1,,,,,,,,,,,,,,,0,,,80,0
39240,note_on,120,0,2,,,,,,,,,,,,,,,0,,,64,0
39240,note_on,0,0,2,,,,,,,,,,,,,,,0,,,52,0
39360,note_on,0,0,1,,,,,,,,,,,,,,,0,,,82,95
39360,note_on,0,0,1,,,,,,,,,,,,,,,0,,,74,80
39360,note_on,0,0,1,,,,,,,,,,,,,,,0,,,80,80
39360,note_on,120,0,1,,,,,,,,,,,,,,,0,,,70,80
39360,note_on,0,0,2,,,,,,,,,,,,,,,0,,,52,65
39360,note_on,120,0,2,,,,,,,,,,,,,,,0,,,64,77
39360,set_tempo,240,1,0,,,,,,,,,,,,434783,,,,,,,
39480,note_on,0,0,2,,,,,,,,,,,,,,,0,,,64,0
39480,note_on,0,0,1,,,,,,,,,,,,,,,0,,,80,0
39480,note_on,0,0,1,,,,,,,,,,,,,,,0,,,70,0
39480,note_on,120,0,1,,,,,,,,,,,,,,,0,,,82,0
39480,note_on,120,0,2,,,,,,,,,,,,,,,0,,,52,0
39480,note_on,0,0,1,,,,,,,,,,,,,,,0,,,74,0
39600,set_tempo,240,1,0,,,,,,,,,,,,434783,,,,,,,
39600,note_on,120,0,1,,,,,,,,,,,,,,,0,,,74,85
39600,note_on,0,0,2,,,,,,,,,,,,,,,0,,,64,85
39600,note_on,0,0,1,,,,,,,,,,,,,,,0,,,82,100
39600,note_on,0,0,1,,,,,,,,,,,,,,,0,,,80,85
39600,note_on,120,0,2,,,,,,,,,,,,,,,0,,,52,72
39720,note_on,0,0,2,,,,,,,,,,,,,,,0,,,52,0
39720,note_on,120,0,2,,,,,,,,,,,,,,,0,,,64,0
39720,note_on,0,0,1,,,,,,,,,,,,,,,0,,,74,0
39720,note_on,0,0,1,,,,,,,,,,,,,,,0,,,80,0
39720,note_on,120,0,1,,,,,,,,,,,,,,,0,,,82,0
39840,note_on,120,0,2,,,,,,,,,,,,,,,0,,,52,65
39840,note_on,0,0,2,,,,,,,,,,,,,,,0,,,64,77
39840,set_tempo,240,1,0,,,,,,,,,,,,425532,,,,,,,
39840,note_on,120,0,1,,,,,,,,,,,,,,,0,,,74,77
39840,note_on,0,0,1,,,,,,,,,,,,,,,0,,,80,77
39840,note_on,0,0,1,,,,,,,,,,,,,,,0,,,82,92
39960,note_on,0,0,2,,,,,,,,,,,,,,,0,,,52,0
39960,note_on,0,0,1,,,,,,,,,,,,,,,0,,,74,0
39960,note_on,120,0,2,,,,,,,,,,,,,,,0,,,64,0
39960,note_on,120,0,1,,,,,,,,,,,,,,,0,,,82,0
39960,note_on,0,0,1,,,,,,,,,,,,,,,0,,,80,0
40080,note_on,0,0,2,,,,,,,,,,,,,,,0,,,64,77
40080,set_tempo,240,1,0,,,,,,,,,,,,433213,,,,,,,
40080,note_on,120,0,1,,,,,,,,,,,,,,,0,,,74,77
40080,note_on,0,0,1,,,,,,,,,,,,,,,0,,,80,77
40080,note_on,0,0,1,,,,,,,,,,,,,,,0,,,82,92
40080,note_on,120,0,2,,,,,,,,,,,,,,,0,,,52,65
40200,note_on,0,0,2,,,,,,,,,,,,,,,0,,,52,0
40200,note_on,120,0,2,,,,,,,,,,,,,,,0,,,64,0
40200,note_on,120,0,1,,,,,,,,,,,,,,,0,,,82,0
40200,note_on,0,0,1,,,,,,,,,,,,,,,0,,,80,0
40200,note_on,0,0,1,,,,,,,,,,,,,,,0,,,74,0
40320,note_on,0,0,1,,,,,,,,,,,,,,,0,,,75,80
40320,note_on,120,0,2,,,,,,,,,,,,,,,0,,,51,73
40320,note_on,120,0,1,,,,,,,,,,,,,,,0,,,70,80
40320,note_on,0,0,1,,,,,,,,,,,,,,,0,,,82,95
40320,set_tempo,240,1,0,,,,,,,,,,,,472441,,,,,,,
40320,note_on,0,0,1,,,,,,,,,,,,,,,0,,,79,80
40320,note_on,0,0,2,,,,,,,,,,,,,,,0,,,63,87
40440,note_on,0,0,2,,,,,,,,,,,,,,,0,,,51,0
40440,note_on,0,0,1,,,,,,,,,,,,,,,0,,,75,0
40440,note_on,0,0,1,,,,,,,,,,,,,,,0,,,70,0
40440,note_on,0,0,1,,,,,,,,,,,,,,,0,,,79,0
40440,note_on,120,0,2,,,,,,,,,,,,,,,0,,,63,0
40440,note_on,120,0,1,,,,,,,,,,,,,,,0,,,82,0
40560,set_tempo,240,1,0,,,,,,,,,,,,441176,,,,,,,
40560,note_on,120,0,1,,,,,,,,,,,,,,,0,,,87,95
40560,note_on,0,0,1,,,,,,,,,,,,,,,0,,,82,80
40560,note_on,120,0,2,,,,,,,,,,,,,,,0,,,51,77
40560,note_on,0,0,1,,,,,,,,,,,,,,,0,,,75,80
40560,note_on,0,0,2,,,,,,,,,,,,,,,0,,,39,65
40560,note_on,0,0,1,,,,,,,,,,,,,,,0,,,79,80
40680,note_on,0,0,1,,,,,,,,,,,,,,,0,,,87,0
40680,note_on,0,0,1,,,,,,,,,,,,,,,0,,,82,0
40680,note_on,120,0,2,,,,,,,,,,,,,,,0,,,39,0
40680,note_on,0,0,2,,,,,,,,,,,,,,,0,,,51,0
40680,note_on,0,0,1,,,,,,,,,,,,,,,0,,,79,0
40680,note_on,120,0,1,,,,,,,,,,,,,,,0,,,75,0
41040,note_on,360,0,1,,,,,,,,,,,,,,,0,,,63,70
41040,note_on,360,0,2,,,,,,,,,,,,,,,0,,,51,68
41040,set_tempo,480,1,0,,,,,,,,,,,,472441,,,,,,,
41040,note_on,0,0,2,,,,,,,,,,,,,,,0,,,39,57
41040,note_on,0,0,1,,,,,,,,,,,,,,,0,,,70,83
41040,note_on,0,0,1,,,,,,,,,,,,,,,0,,,67,70
41160,note_on,0,0,2,,,,,,,,,,,,,,,0,,,51,0
41160,note_on,0,0,1,,,,,,,,,,,,,,,0,,,63,0
41160,note_on,0,0,1,,,,,,,,,,,,,,,0,,,67,0
41160,note_on,120,0,1,,,,,,,,,,,,,,,0,,,70,0
41160,note_on,120,0,2,,,,,,,,,,,,,,,0,,,39,0
41280,note_on,0,0,1,,,,,,,,,,,,,,,0,,,75,76
41280,note_on,0,0,1,,,,,,,,,,,,,,,0,,,70,64
41280,note_on,0,0,2,,,,,,,,,,,,,,,0,,,27,52
41280,note_on,120,0,2,,,,,,,,,,,,,,,0,,,39,61
41280,note_on,0,0,1,,,,,,,,,,,,,,,0,,,67,64
41280,note_on,120,0,1,,,,,,,,,,,,,,,0,,,63,64
41280,set_tempo,240,1,0,,,,,,,,,,,,441176,,,,,,,
41400,note_on,120,0,2,,,,,,,,,,,,,,,0,,,27,0
41400,note_on,0,0,2,,,,,,,,,,,,,,,0,,,39,0
41400,note_on,0,0,1,,,,,,,,,,,,,,,0,,,70,0
41400,note_on,0,0,1,,,,,,,,,,,,,,,0,,,67,0
41400,note_on,0,0,1,,,,,,,,,,,,,,,0,,,63,0
41400,note_on,120,0,1,,,,,,,,,,,,,,,0,,,75,0
41520,set_tempo,240,1,0,,,,,,,,,,,,666667,,,,,,,
41760,note_on,360,0,2,,,,,,,,,,,,,,,0,,,37,73
41760,note_on,0,0,2,,,,,,,,,,,,,,,0,,,49,86
41760,set_tempo,240,1,0,,,,,,,,,,,,436364,,,,,,,
41767,control_change,7,0,2,,,,,,,,,,,,,,,0,64,127,,
42120,note_on,0,0,2,,,,,,,,,,,,,,,0,,,49,80
42120,note_on,353,0,2,,,,,,,,,,,,,,,0,,,49,0
42120,note_on,0,0,2,,,,,,,,,,,,,,,0,,,37,0
42120,note_on,0,0,2,,,,,,,,,,,,,,,0,,,37,68
42240,note_on,120,0,2,,,,,,,,,,,,,,,0,,,49,0
42240,set_tempo,480,1,0,,,,,,,,,,,,476190,,,,,,,
42240,note_on,0,0,2,,,,,,,,,,,,,,,0,,,37,73
42240,note_on,0,0,2,,,,,,,,,,,,,,,0,,,37,0
42240,note_on,0,0,2,,,,,,,,,,,,,,,0,,,49,87
42480,set_tempo,240,1,0,,,,,,,,,,,,436364,,,,,,,
42480,note_on,240,0,2,,,,,,,,,,,,,,,0,,,49,0
42480,note_on,0,0,2,,,,,,,,,,,,,,,0,,,49,86
42480,note_on,0,0,2,,,,,,,,,,,,,,,0,,,37,73
42480,note_on,0,0,2,,,,,,,,,,,,,,,0,,,37,0
42840,note_on,360,0,2,,,,,,,,,,,,,,,0,,,49,0
42840,note_on,0,0,2,,,,,,,,,,,,,,,0,,,49,80
42840,note_on,0,0,2,,,,,,,,,,,,,,,0,,,37,68
42840,note_on,0,0,2,,,,,,,,,,,,,,,0,,,37,0
42960,note_on,0,0,2,,,,,,,,,,,,,,,0,,,37,0
42960,note_on,120,0,2,,,,,,,,,,,,,,,0,,,49,0
42960,note_on,0,0,2,,,,,,,,,,,,,,,0,,,49,87
42960,set_tempo,480,1,0,,,,,,,,,,,,472441,,,,,,,
42960,note_on,0,0,2,,,,,,,,,,,,,,,0,,,37,73
43180,set_tempo,220,1,0,,,,,,,,,,,,449438,,,,,,,
43200,note_on,0,0,2,,,,,,,,,,,,,,,0,,,49,86
43200,control_change,0,0,2,,,,,,,,,,,,,,,0,64,0,,
43200,note_on,0,0,2,,,,,,,,,,,,,,,0,,,37,0
43200,note_on,240,0,2,,,,,,,,,,,,,,,0,,,49,0
43200,note_on,1800,0,1,,,,,,,,,,,,,,,0,,,79,71
43200,note_on,0,0,2,,,,,,,,,,,,,,,0,,,37,73
43243,control_change,43,0,2,,,,,,,,,,,,,,,0,64,127,,
43280,note_on,0,0,1,,,,,,,,,,,,,,,0,,,76,69
43280,set_tempo,100,1,0,,,,,,,,,,,,447761,,,,,,,
43280,note_on,80,0,1,,,,,,,,,,,,,,,0,,,79,0
43360,note_on,80,0,1,,,,,,,,,,,,,,,0,,,76,0
43360,note_on,0,0,1,,,,,,,,,,,,,,,0,,,73,66
43360,set_tempo,80,1,0,,,,,,,,,,,,446097,,,,,,,
43440,note_on,80,0,1,,,,,,,,,,,,,,,0,,,73,0
43440,note_on,0,0,1,,,,,,,,,,,,,,,0,,,70,64
43460,set_tempo,100,1,0,,,,,,,,,,,,444444,,,,,,,
43520,note_on,80,0,1,,,,,,,,,,,,,,,0,,,70,0
43520,note_on,0,0,1,,,,,,,,,,,,,,,0,,,67,62
43540,set_tempo,80,1,0,,,,,,,,,,,,442804,,,,,,,
43600,note_on,0,0,1,,,,,,,,,,,,,,,0,,,64,59
43600,note_on,80,0,1,,,,,,,,,,,,,,,0,,,67,0
43640,set_tempo,100,1,0,,,,,,,,,,,,441176,,,,,,,
43680,note_on,80,0,1,,,,,,,,,,,,,,,0,,,64,0
43680,note_on,0,0,1,,,,,,,,,,,,,,,0,,,61,56
43720,set_tempo,80,1,0,,,,,,,,,,,,439560,,,,,,,
43760,note_on,80,0,1,,,,,,,,,,,,,,,0,,,61,0
43760,note_on,0,0,1,,,,,,,,,,,,,,,0,,,58,56
43820,set_tempo,100,1,0,,,,,,,,,,,,437956,,,,,,,
43840,note_on,80,0,1,,,,,,,,,,,,,,,0,,,58,0
43840,note_on,0,0,1,,,,,,,,,,,,,,,0,,,55,56
43900,set_tempo,80,1,0,,,,,,,,,,,,436364,,,,,,,
43920,note_on,80,0,1,,,,,,,,,,,,,,,0,,,55,0
43920,note_on,0,0,1,,,,,,,,,,,,,,,0,,,52,56
44000,note_on,80,0,1,,,,,,,,,,,,,,,0,,,52,0
44000,note_on,0,0,1,,,,,,,,,,,,,,,0,,,55,55
44020,set_tempo,120,1,0,,,,,,,,,,,,437956,,,,,,,
44080,note_on,0,0,1,,,,,,,,,,,,,,,0,,,58,56
44080,note_on,80,0,1,,,,,,,,,,,,,,,0,,,55,0
44120,set_tempo,100,1,0,,,,,,,,,,,,439560,,,,,,,
44160,note_on,0,0,1,,,,,,,,,,,,,,,0,,,61,56
44160,note_on,80,0,1,,,,,,,,,,,,,,,0,,,58,0
44220,set_tempo,100,1,0,,,,,,,,,,,,441176,,,,,,,
44240,note_on,80,0,1,,,,,,,,,,,,,,,0,,,61,0
44240,note_on,0,0,1,,,,,,,,,,,,,,,0,,,64,57
44280,note_on,1037,0,2,,,,,,,,,,,,,,,0,,,49,0
44280,note_on,0,0,2,,,,,,,,,,,,,,,0,,,49,80
44280,note_on,0,0,2,,,,,,,,,,,,,,,0,,,37,68
44280,note_on,0,0,2,,,,,,,,,,,,,,,0,,,37,0
44320,note_on,80,0,1,,,,,,,,,,,,,,,0,,,64,0
44320,note_on,0,0,1,,,,,,,,,,,,,,,0,,,67,58
44340,set_tempo,120,1,0,,,,,,,,,,,,442804,,,,,,,
44400,note_on,80,0,1,,,,,,,,,,,,,,,0,,,67,0
44400,note_on,0,0,2,,,,,,,,,,,,,,,0,,,37,73
44400,note_on,120,0,2,,,,,,,,,,,,,,,0,,,49,0
44400,note_on,0,0,1,,,,,,,,,,,,,,,0,,,70,60
44400,note_on,0,0,2,,,,,,,,,,,,,,,0,,,49,87
44400,note_on,0,0,2,,,,,,,,,,,,,,,0,,,37,0
44440,set_tempo,100,1,0,,,,,,,,,,,,444444,,,,,,,
44480,note_on,80,0,1,,,,,,,,,,,,,,,0,,,70,0
44480,note_on,0,0,1,,,,,,,,,,,,,,,0,,,73,63
44540,set_tempo,100,1,0,,,,,,,,,,,,446097,,,,,,,
44560,note_on,80,0,1,,,,,,,,,,,,,,,0,,,73,0
44560,note_on,0,0,1,,,,,,,,,,,,,,,0,,,76,64
44640,set_tempo,100,1,0,,,,,,,,,,,,449438,,,,,,,
44640,note_on,0,0,2,,,,,,,,,,,,,,,0,,,37,73
44640,note_on,80,0,1,,,,,,,,,,,,,,,0,,,76,0
44640,note_on,0,0,1,,,,,,,,,,,,,,,0,,,79,67
44640,note_on,0,0,2,,,,,,,,,,,,,,,0,,,37,0
44640,note_on,0,0,2,,,,,,,,,,,,,,,0,,,49,86
44640,note_on,240,0,2,,,,,,,,,,,,,,,0,,,49,0
44640,control_change,0,0,2,,,,,,,,,,,,,,,0,64,0,,
44683,control_change,43,0,2,,,,,,,,,,,,,,,0,64,127,,
44720,note_on,0,0,1,,,,,,,,,,,,,,,0,,,76,66
44720,note_on,80,0,1,,,,,,,,,,,,,,,0,,,79,0
44740,set_tempo,100,1,0,,,,,,,,,,,,447761,,,,,,,
44800,note_on,0,0,1,,,,,,,,,,,,,,,0,,,73,65
44800,note_on,80,0,1,,,,,,,,,,,,,,,0,,,76,0
44820,set_tempo,80,1,0,,,,,,,,,,,,446097,,,,,,,
44880,note_on,0,0,1,,,,,,,,,,,,,,,0,,,70,64
44880,note_on,80,0,1,,,,,,,,,,,,,,,0,,,73,0
44920,set_tempo,100,1,0,,,,,,,,,,,,444444,,,,,,,
44960,note_on,80,0,1,,,,,,,,,,,,,,,0,,,70,0
44960,note_on,0,0,1,,,,,,,,,,,,,,,0,,,67,63
45000,set_tempo,80,1,0,,,,,,,,,,,,442804,,,,,,,
45040,note_on,80,0,1,,,,,,,,,,,,,,,0,,,67,0
45040,note_on,0,0,1,,,,,,,,,,,,,,,0,,,64,62
45080,set_tempo,80,1,0,,,,,,,,,,,,441176,,,,,,,
45120,note_on,0,0,1,,,,,,,,,,,,,,,0,,,61,61
45120,note_on,80,0,1,,,,,,,,,,,,,,,0,,,64,0
45180,set_tempo,100,1,0,,,,,,,,,,,,439560,,,,,,,
45200,note_on,80,0,1,,,,,,,,,,,,,,,0,,,61,0
45200,note_on,0,0,1,,,,,,,,,,,,,,,0,,,58,60
45260,set_tempo,80,1,0,,,,,,,,,,,,437956,,,,,,,
45280,note_on,80,0,1,,,,,,,,,,,,,,,0,,,58,0
45280,note_on,0,0,1,,,,,,,,,,,,,,,0,,,55,59
45340,set_tempo,80,1,0,,,,,,,,,,,,436364,,,,,,,
45360,note_on,80,0,1,,,,,,,,,,,,,,,0,,,55,0
45360,note_on,0,0,1,,,,,,,,,,,,,,,0,,,52,58
45440,note_on,80,0,1,,,,,,,,,,,,,,,0,,,52,0
45440,note_on,0,0,1,,,,,,,,,,,,,,,0,,,55,55
45440,set_tempo,100,1,0,,,,,,,,,,,,437956,,,,,,,
45520,note_on,80,0,1,,,,,,,,,,,,,,,0,,,55,0
45520,note_on,0,0,1,,,,,,,,,,,,,,,0,,,58,56
45520,set_tempo,80,1,0,,,,,,,,,,,,439560,,,,,,,
45600,note_on,80,0,1,,,,,,,,,,,,,,,0,,,58,0
45600,note_on,0,0,1,,,,,,,,,,,,,,,0,,,61,56
45600,set_tempo,80,1,0,,,,,,,,,,,,441176,,,,,,,
45680,set_tempo,80,1,0,,,,,,,,,,,,442804,,,,,,,
45680,note_on,0,0,1,,,,,,,,,,,,,,,0,,,64,57
45680,note_on,80,0,1,,,,,,,,,,,,,,,0,,,61,0
45720,note_on,1037,0,2,,,,,,,,,,,,,,,0,,,49,0
45720,note_on,0,0,2,,,,,,,,,,,,,,,0,,,37,0
45720,note_on,0,0,2,,,,,,,,,,,,,,,0,,,37,68
45720,note_on,0,0,2,,,,,,,,,,,,,,,0,,,49,80
45760,note_on,0,0,1,,,,,,,,,,,,,,,0,,,67,58
45760,note_on,80,0,1,,,,,,,,,,,,,,,0,,,64,0
45760,set_tempo,80,1,0,,,,,,,,,,,,444444,,,,,,,
45840,set_tempo,80,1,0,,,,,,,,,,,,446097,,,,,,,
45840,note_on,80,0,1,,,,,,,,,,,,,,,0,,,67,0
45840,note_on,0,0,1,,,,,,,,,,,,,,,0,,,70,59
45840,note_on,0,0,2,,,,,,,,,,,,,,,0,,,37,0
45840,note_on,0,0,2,,,,,,,,,,,,,,,0,,,37,73
45840,note_on,120,0,2,,,,,,,,,,,,,,,0,,,49,0
45840,note_on,0,0,2,,,,,,,,,,,,,,,0,,,49,87
45920,set_tempo,80,1,0,,,,,,,,,,,,447761,,,,,,,
45920,note_on,0,0,1,,,,,,,,,,,,,,,0,,,73,59
45920,note_on,80,0,1,,,,,,,,,,,,,,,0,,,70,0
46000,set_tempo,80,1,0,,,,,,,,,,,,449438,,,,,,,
46000,note_on,0,0,1,,,,,,,,,,,,,,,0,,,76,62
46000,note_on,80,0,1,,,,,,,,,,,,,,,0,,,73,0
46080,note_on,0,0,1,,,,,,,,,,,,,,,0,,,67,60
46080,note_on,80,0,1,,,,,,,,,,,,,,,0,,,76,0
46080,note_on,240,0,2,,,,,,,,,,,,,,,0,,,49,0
46080,note_on,0,0,2,,,,,,,,,,,,,,,0,,,37,0
46080,note_on,0,0,2,,,,,,,,,,,,,,,0,,,37,54
46080,note_on,0,0,2,,,,,,,,,,,,,,,0,,,49,64
46080,set_tempo,80,1,0,,,,,,,,,,,,436364,,,,,,,
46080,note_on,0,0,1,,,,,,,,,,,,,,,0,,,76,60
46080,note_on,0,0,1,,,,,,,,,,,,,,,0,,,79,72
46088,control_change,8,0,2,,,,,,,,,,,,,,,0,64,0,,
46165,control_change,77,0,2,,,,,,,,,,,,,,,0,64,127,,
46440,note_on,360,0,1,,,,,,,,,,,,,,,0,,,79,0
46440,note_on,0,0,1,,,,,,,,,,,,,,,0,,,67,0
46440,note_on,0,0,1,,,,,,,,,,,,,,,0,,,79,76
46440,note_on,0,0,1,,,,,,,,,,,,,,,0,,,67,64
46440,note_on,0,0,1,,,,,,,,,,,,,,,0,,,76,64
46440,note_on,0,0,1,,,,,,,,,,,,,,,0,,,76,0
46440,note_on,275,0,2,,,,,,,,,,,,,,,0,,,49,0
46440,note_on,0,0,2,,,,,,,,,,,,,,,0,,,37,0
46440,note_on,0,0,2,,,,,,,,,,,,,,,0,,,37,50
46440,note_on,0,0,2,,,,,,,,,,,,,,,0,,,49,60
46560,note_on,0,0,1,,,,,,,,,,,,,,,0,,,79,80
46560,note_on,0,0,1,,,,,,,,,,,,,,,0,,,76,67
46560,note_on,0,0,1,,,,,,,,,,,,,,,0,,,67,67
46560,note_on,0,0,2,,,,,,,,,,,,,,,0,,,49,65
46560,note_on,0,0,1,,,,,,,,,,,,,,,0,,,67,0
46560,note_on,120,0,1,,,,,,,,,,,,,,,0,,,76,0
46560,set_tempo,480,1,0,,,,,,,,,,,,476190,,,,,,,
46560,note_on,0,0,2,,,,,,,,,,,,,,,0,,,37,55
46560,note_on,0,0,2,,,,,,,,,,,,,,,0,,,37,0
46560,note_on,0,0,1,,,,,,,,,,,,,,,0,,,79,0
46560,note_on,120,0,2,,,,,,,,,,,,,,,0,,,49,0
46680,note_on,120,0,1,,,,,,,,,,,,,,,0,,,79,0
46680,note_on,0,0,1,,,,,,,,,,,,,,,0,,,76,0
46680,note_on,0,0,1,,,,,,,,,,,,,,,0,,,67,0
46680,note_on,120,0,2,,,,,,,,,,,,,,,0,,,49,0
46680,note_on,0,0,2,,,,,,,,,,,,,,,0,,,37,0
46680,control_change,0,0,2,,,,,,,,,,,,,,,0,64,0,,
46800,note_on,0,0,2,,,,,,,,,,,,,,,0,,,49,64
46800,set_tempo,240,1,0,,,,,,,,,,,,436364,,,,,,,
46800,note_on,0,0,1,,,,,,,,,,,,,,,0,,,80,80
46800,note_on,0,0,1,,,,,,,,,,,,,,,0,,,76,67
46800,note_on,120,0,1,,,,,,,,,,,,,,,0,,,68,67
46800,note_on,120,0,2,,,,,,,,,,,,,,,0,,,37,54
46885,control_change,85,0,2,,,,,,,,,,,,,,,0,64,127,,
47160,note_on,0,0,1,,,,,,,,,,,,,,,0,,,80,76
47160,note_on,0,0,1,,,,,,,,,,,,,,,0,,,76,64
47160,note_on,0,0,1,,,,,,,,,,,,,,,0,,,68,64
47160,note_on,360,0,1,,,,,,,,,,,,,,,0,,,80,0
47160,note_on,0,0,1,,,,,,,,,,,,,,,0,,,68,0
47160,note_on,275,0,2,,,,,,,,,,,,,,,0,,,49,0
47160,note_on,0,0,2,,,,,,,,,,,,,,,0,,,37,0
47160,note_on,0,0,2,,,,,,,,,,,,,,,0,,,37,50
47160,note_on,0,0,1,,,,,,,,,,,,,,,0,,,76,0
47160,note_on,0,0,2,,,,,,,,,,,,,,,0,,,49,60
47280,note_on,120,0,2,,,,,,,,,,,,,,,0,,,49,0
47280,note_on,0,0,2,,,,,,,,,,,,,,,0,,,37,0
47280,note_on,0,0,2,,,,,,,,,,,,,,,0,,,37,55
47280,note_on,0,0,1,,,,,,,,,,,,,,,0,,,76,67
47280,note_on,0,0,1,,,,,,,,,,,,,,,0,,,68,67
47280,note_on,0,0,1,,,,,,,,,,,,,,,0,,,80,0
47280,note_on,0,0,1,,,,,,,,,,,,,,,0,,,68,0
47280,note_on,120,0,1,,,,,,,,,,,,,,,0,,,76,0
47280,note_on,0,0,2,,,,,,,,,,,,,,,0,,,49,65
47280,note_on,0,0,1,,,,,,,,,,,,,,,0,,,80,80
47280,set_tempo,480,1,0,,,,,,,,,,,,476190,,,,,,,
47400,note_on,120,0,2,,,,,,,,,,,,,,,0,,,49,0
47400,note_on,120,0,1,,,,,,,,,,,,,,,0,,,80,0
47400,note_on,0,0,1,,,,,,,,,,,,,,,0,,,68,0
47400,note_on,0,0,1,,,,,,,,,,,,,,,0,,,76,0
47400,note_on,0,0,2,,,,,,,,,,,,,,,0,,,37,0
47400,control_change,0,0,2,,,,,,,,,,,,,,,0,64,0,,
47520,set_tempo,240,1,0,,,,,,,,,,,,436364,,,,,,,
47520,note_on,120,0,2,,,,,,,,,,,,,,,0,,,37,54
47520,note_on,0,0,2,,,,,,,,,,,,,,,0,,,49,64
47520,note_on,0,0,1,,,,,,,,,,,,,,,0,,,79,80
47520,note_on,0,0,1,,,,,,,,,,,,,,,0,,,76,67
47520,note_on,120,0,1,,,,,,,,,,,,,,,0,,,67,67
47528,control_change,8,0,2,,,,,,,,,,,,,,,0,64,0,,
47605,control_change,77,0,2,,,,,,,,,,,,,,,0,64,127,,
47880,note_on,0,0,1,,,,,,,,,,,,,,,0,,,76,0
47880,note_on,360,0,1,,,,,,,,,,,,,,,0,,,79,0
47880,note_on,0,0,1,,,,,,,,,,,,,,,0,,,67,0
47880,note_on,0,0,1,,,,,,,,,,,,,,,0,,,76,64
47880,note_on,0,0,1,,,,,,,,,,,,,,,0,,,67,64
47880,note_on,275,0,2,,,,,,,,,,,,,,,0,,,49,0
47880,note_on,0,0,2,,,,,,,,,,,,,,,0,,,37,0
47880,note_on,0,0,2,,,,,,,,,,,,,,,0,,,37,50
47880,note_on,0,0,2,,,,,,,,,,,,,,,0,,,49,60
47880,note_on,0,0,1,,,,,,,,,,,,,,,0,,,79,76
48000,note_on,0,0,1,,,,,,,,,,,,,,,0,,,79,80
48000,note_on,0,0,1,,,,,,,,,,,,,,,0,,,76,67
48000,note_on,0,0,1,,,,,,,,,,,,,,,0,,,67,67
48000,note_on,0,0,1,,,,,,,,,,,,,,,0,,,79,0
48000,note_on,120,0,1,,,,,,,,,,,,,,,0,,,76,0
48000,note_on,0,0,1,,,,,,,,,,,,,,,0,,,67,0
48000,note_on,0,0,2,,,,,,,,,,,,,,,0,,,49,65
48000,note_on,0,0,2,,,,,,,,,,,,,,,0,,,37,55
48000,note_on,0,0,2,,,,,,,,,,,,,,,0,,,37,0
48000,note_on,120,0,2,,,,,,,,,,,,,,,0,,,49,0
48000,set_tempo,480,1,0,,,,,,,,,,,,476190,,,,,,,
48120,note_on,120,0,2,,,,,,,,,,,,,,,0,,,49,0
48120,note_on,120,0,1,,,,,,,,,,,,,,,0,,,79,0
48120,note_on,0,0,1,,,,,,,,,,,,,,,0,,,76,0
48120,note_on,0,0,1,,,,,,,,,,,,,,,0,,,67,0
48120,control_change,0,0,2,,,,,,,,,,,,,,,0,64,0,,
48120,note_on,0,0,2,,,,,,,,,,,,,,,0,,,37,0
48240,note_on,120,0,2,,,,,,,,,,,,,,,0,,,37,54
48240,note_on,0,0,2,,,,,,,,,,,,,,,0,,,49,64
48240,set_tempo,240,1,0,,,,,,,,,,,,436364,,,,,,,
48240,note_on,0,0,1,,,,,,,,,,,,,,,0,,,80,80
48240,note_on,0,0,1,,,,,,,,,,,,,,,0,,,76,67
48240,note_on,120,0,1,,,,,,,,,,,,,,,0,,,68,67
48325,control_change,85,0,2,,,,,,,,,,,,,,,0,64,127,,
48600,note_on,0,0,2,,,,,,,,,,,,,,,0,,,49,60
48600,note_on,0,0,2,,,,,,,,,,,,,,,0,,,37,50
48600,note_on,0,0,2,,,,,,,,,,,,,,,0,,,37,0
48600,note_on,0,0,1,,,,,,,,,,,,,,,0,,,68,0
48600,note_on,0,0,1,,,,,,,,,,,,,,,0,,,80,76
48600,note_on,0,0,1,,,,,,,,,,,,,,,0,,,76,0
48600,note_on,0,0,1,,,,,,,,,,,,,,,0,,,76,64
48600,note_on,0,0,1,,,,,,,,,,,,,,,0,,,68,64
48600,note_on,360,0,1,,,,,,,,,,,,,,,0,,,80,0
48600,note_on,275,0,2,,,,,,,,,,,,,,,0,,,49,0
48720,note_on,120,0,2,,,,,,,,,,,,,,,0,,,49,0
48720,note_on,0,0,2,,,,,,,,,,,,,,,0,,,37,0
48720,note_on,0,0,2,,,,,,,,,,,,,,,0,,,37,55
48720,note_on,0,0,2,,,,,,,,,,,,,,,0,,,49,65
48720,note_on,0,0,1,,,,,,,,,,,,,,,0,,,76,67
48720,note_on,120,0,1,,,,,,,,,,,,,,,0,,,76,0
48720,set_tempo,480,1,0,,,,,,,,,,,,476190,,,,,,,
48720,note_on,0,0,1,,,,,,,,,,,,,,,0,,,80,80
48720,note_on,0,0,1,,,,,,,,,,,,,,,0,,,68,67
48720,note_on,0,0,1,,,,,,,,,,,,,,,0,,,68,0
48720,note_on,0,0,1,,,,,,,,,,,,,,,0,,,80,0
48840,note_on,0,0,1,,,,,,,,,,,,,,,0,,,68,0
48840,note_on,0,0,1,,,,,,,,,,,,,,,0,,,76,0
48840,note_on,120,0,1,,,,,,,,,,,,,,,0,,,80,0
48840,control_change,0,0,2,,,,,,,,,,,,,,,0,64,0,,
48840,note_on,0,0,2,,,,,,,,,,,,,,,0,,,37,0
48840,note_on,120,0,2,,,,,,,,,,,,,,,0,,,49,0
48960,note_on,0,0,1,,,,,,,,,,,,,,,0,,,82,80
48960,note_on,0,0,1,,,,,,,,,,,,,,,0,,,76,67
48960,note_on,0,0,1,,,,,,,,,,,,,,,0,,,70,67
48960,note_on,120,0,1,,,,,,,,,,,,,,,0,,,78,67
48960,note_on,0,0,2,,,,,,,,,,,,,,,0,,,61,64
48960,set_tempo,240,1,0,,,,,,,,,,,,436364,,,,,,,
48960,note_on,120,0,2,,,,,,,,,,,,,,,0,,,49,54
49045,control_change,85,0,2,,,,,,,,,,,,,,,0,64,127,,
49320,note_on,275,0,2,,,,,,,,,,,,,,,0,,,61,0
49320,note_on,0,0,2,,,,,,,,,,,,,,,0,,,49,0
49320,note_on,0,0,2,,,,,,,,,,,,,,,0,,,49,50
49320,note_on,0,0,2,,,,,,,,,,,,,,,0,,,61,60
49320,note_on,0,0,1,,,,,,,,,,,,,,,0,,,70,0
49320,note_on,360,0,1,,,,,,,,,,,,,,,0,,,82,0
49320,note_on,0,0,1,,,,,,,,,,,,,,,0,,,78,0
49320,note_on,0,0,1,,,,,,,,,,,,,,,0,,,76,0
49320,note_on,0,0,1,,,,,,,,,,,,,,,0,,,78,64
49320,note_on,0,0,1,,,,,,,,,,,,,,,0,,,76,64
49320,note_on,0,0,1,,,,,,,,,,,,,,,0,,,70,64
49320,note_on,0,0,1,,,,,,,,,,,,,,,0,,,82,76
49440,note_on,0,0,1,,,,,,,,,,,,,,,0,,,70,0
49440,note_on,0,0,1,,,,,,,,,,,,,,,0,,,78,67
49440,note_on,0,0,1,,,,,,,,,,,,,,,0,,,78,0
49440,note_on,0,0,1,,,,,,,,,,,,,,,0,,,82,0
49440,set_tempo,480,1,0,,,,,,,,,,,,476190,,,,,,,
49440,note_on,120,0,2,,,,,,,,,,,,,,,0,,,61,0
49440,note_on,0,0,2,,,,,,,,,,,,,,,0,,,49,0
49440,note_on,0,0,2,,,,,,,,,,,,,,,0,,,49,55
49440,note_on,0,0,2,,,,,,,,,,,,,,,0,,,61,65
49440,note_on,0,0,1,,,,,,,,,,,,,,,0,,,82,80
49440,note_on,0,0,1,,,,,,,,,,,,,,,0,,,76,67
49440,note_on,0,0,1,,,,,,,,,,,,,,,0,,,70,67
49440,note_on,120,0,1,,,,,,,,,,,,,,,0,,,76,0
49560,note_on,120,0,1,,,,,,,,,,,,,,,0,,,82,0
49560,note_on,0,0,1,,,,,,,,,,,,,,,0,,,76,0
49560,note_on,0,0,1,,,,,,,,,,,,,,,0,,,70,0
49560,note_on,120,0,2,,,,,,,,,,,,,,,0,,,61,0
49560,note_on,0,0,2,,,,,,,,,,,,,,,0,,,49,0
49560,control_change,0,0,2,,,,,,,,,,,,,,,0,64,0,,
49560,note_on,0,0,1,,,,,,,,,,,,,,,0,,,78,0
49680,note_on,120,0,1,,,,,,,,,,,,,,,0,,,71,67
49680,note_on,0,0,1,,,,,,,,,,,,,,,0,,,78,67
49680,note_on,120,0,2,,,,,,,,,,,,,,,0,,,51,54
49680,set_tempo,240,1,0,,,,,,,,,,,,436364,,,,,,,
49680,note_on,0,0,1,,,,,,,,,,,,,,,0,,,83,80
49680,note_on,0,0,2,,,,,,,,,,,,,,,0,,,63,64
49765,control_change,85,0,2,,,,,,,,,,,,,,,0,64,127,,
50040,note_on,275,0,2,,,,,,,,,,,,,,,0,,,63,0
50040,note_on,0,0,2,,,,,,,,,,,,,,,0,,,51,53
50040,note_on,0,0,2,,,,,,,,,,,,,,,0,,,63,64
50040,note_on,360,0,1,,,,,,,,,,,,,,,0,,,83,0
50040,note_on,0,0,1,,,,,,,,,,,,,,,0,,,78,0
50040,note_on,0,0,1,,,,,,,,,,,,,,,0,,,71,0
50040,note_on,0,0,1,,,,,,,,,,,,,,,0,,,83,81
50040,note_on,0,0,1,,,,,,,,,,,,,,,0,,,71,68
50040,note_on,0,0,1,,,,,,,,,,,,,,,0,,,78,68
50040,note_on,0,0,2,,,,,,,,,,,,,,,0,,,51,0
50160,note_on,120,0,2,,,,,,,,,,,,,,,0,,,63,0
50160,note_on,0,0,2,,,,,,,,,,,,,,,0,,,51,0
50160,note_on,0,0,2,,,,,,,,,,,,,,,0,,,63,71
50160,note_on,0,0,1,,,,,,,,,,,,,,,0,,,71,0
50160,note_on,0,0,1,,,,,,,,,,,,,,,0,,,83,0
50160,note_on,0,0,2,,,,,,,,,,,,,,,0,,,51,60
50160,note_on,120,0,1,,,,,,,,,,,,,,,0,,,78,0
50160,note_on,0,0,1,,,,,,,,,,,,,,,0,,,83,88
50160,note_on,0,0,1,,,,,,,,,,,,,,,0,,,78,73
50160,note_on,0,0,1,,,,,,,,,,,,,,,0,,,71,73
50160,set_tempo,480,1,0,,,,,,,,,,,,476190,,,,,,,
50280,note_on,0,0,1,,,,,,,,,,,,,,,0,,,78,0
50280,note_on,120,0,1,,,,,,,,,,,,,,,0,,,83,0
50280,note_on,120,0,2,,,,,,,,,,,,,,,0,,,63,0
50280,note_on,0,0,2,,,,,,,,,,,,,,,0,,,51,0
50280,control_change,0,0,2,,,,,,,,,,,,,,,0,64,0,,
50280,note_on,0,0,1,,,,,,,,,,,,,,,0,,,71,0
50400,note_on,120,0,1,,,,,,,,,,,,,,,0,,,75,77
50400,note_on,0,0,1,,,,,,,,,,,,,,,0,,,83,77
50400,note_on,0,0,1,,,,,,,,,,,,,,,0,,,78,77
50400,note_on,0,0,1,,,,,,,,,,,,,,,0,,,87,92
50400,set_tempo,240,1,0,,,,,,,,,,,,436364,,,,,,,
50400,note_on,120,0,2,,,,,,,,,,,,,,,0,,,54,62
50400,note_on,0,0,2,,,,,,,,,,,,,,,0,,,66,73
50485,control_change,85,0,2,,,,,,,,,,,,,,,0,64,127,,
50760,note_on,0,0,1,,,,,,,,,,,,,,,0,,,83,0
50760,note_on,0,0,1,,,,,,,,,,,,,,,0,,,75,69
50760,note_on,360,0,1,,,,,,,,,,,,,,,0,,,87,0
50760,note_on,0,0,1,,,,,,,,,,,,,,,0,,,87,82
50760,note_on,0,0,1,,,,,,,,,,,,,,,0,,,83,69
50760,note_on,0,0,1,,,,,,,,,,,,,,,0,,,78,69
50760,note_on,0,0,1,,,,,,,,,,,,,,,0,,,78,0
50760,note_on,0,0,1,,,,,,,,,,,,,,,0,,,75,0
50760,note_on,275,0,2,,,,,,,,,,,,,,,0,,,66,0
50760,note_on,0,0,2,,,,,,,,,,,,,,,0,,,54,0
50760,note_on,0,0,2,,,,,,,,,,,,,,,0,,,54,54
50760,note_on,0,0,2,,,,,,,,,,,,,,,0,,,66,64
50880,note_on,0,0,1,,,,,,,,,,,,,,,0,,,87,84
50880,note_on,0,0,1,,,,,,,,,,,,,,,0,,,78,70
50880,note_on,0,0,1,,,,,,,,,,,,,,,0,,,83,70
50880,note_on,0,0,1,,,,,,,,,,,,,,,0,,,75,70
50880,note_on,0,0,1,,,,,,,,,,,,,,,0,,,83,0
50880,note_on,0,0,1,,,,,,,,,,,,,,,0,,,87,0
50880,note_on,0,0,1,,,,,,,,,,,,,,,0,,,75,0
50880,note_on,120,0,1,,,,,,,,,,,,,,,0,,,78,0
50880,set_tempo,480,1,0,,,,,,,,,,,,476190,,,,,,,
50880,note_on,120,0,2,,,,,,,,,,,,,,,0,,,66,0
50880,note_on,0,0,2,,,,,,,,,,,,,,,0,,,54,57
50880,note_on,0,0,2,,,,,,,,,,,,,,,0,,,66,68
50880,note_on,0,0,2,,,,,,,,,,,,,,,0,,,54,0
51000,note_on,120,0,2,,,,,,,,,,,,,,,0,,,66,0
51000,note_on,0,0,2,,,,,,,,,,,,,,,0,,,54,0
51000,control_change,0,0,2,,,,,,,,,,,,,,,0,64,0,,
51000,note_on,0,0,1,,,,,,,,,,,,,,,0,,,78,0
51000,note_on,0,0,1,,,,,,,,,,,,,,,0,,,83,0
51000,note_on,0,0,1,,,,,,,,,,,,,,,0,,,75,0
51000,note_on,120,0,1,,,,,,,,,,,,,,,0,,,87,0
51120,note_on,0,0,1,,,,,,,,,,,,,,,0,,,85,80
51120,note_on,0,0,1,,,,,,,,,,,,,,,0,,,78,67
51120,note_on,120,0,1,,,,,,,,,,,,,,,0,,,82,67
51120,note_on,0,0,2,,,,,,,,,,,,,,,0,,,54,64
51120,note_on,0,0,1,,,,,,,,,,,,,,,0,,,76,67
51120,set_tempo,240,1,0,,,,,,,,,,,,436364,,,,,,,
51120,note_on,120,0,2,,,,,,,,,,,,,,,0,,,42,54
51205,control_change,85,0,2,,,,,,,,,,,,,,,0,64,127,,
51480,note_on,0,0,1,,,,,,,,,,,,,,,0,,,76,64
51480,note_on,0,0,1,,,,,,,,,,,,,,,0,,,78,64
51480,note_on,0,0,2,,,,,,,,,,,,,,,0,,,42,0
51480,note_on,0,0,1,,,,,,,,,,,,,,,0,,,82,64
51480,note_on,0,0,1,,,,,,,,,,,,,,,0,,,76,0
51480,note_on,0,0,1,,,,,,,,,,,,,,,0,,,78,0
51480,note_on,0,0,1,,,,,,,,,,,,,,,0,,,82,0
51480,note_on,275,0,2,,,,,,,,,,,,,,,0,,,54,0
51480,note_on,0,0,1,,,,,,,,,,,,,,,0,,,85,76
51480,note_on,0,0,2,,,,,,,,,,,,,,,0,,,54,60
51480,note_on,0,0,2,,,,,,,,,,,,,,,0,,,42,50
51480,note_on,360,0,1,,,,,,,,,,,,,,,0,,,85,0
51600,note_on,0,0,1,,,,,,,,,,,,,,,0,,,85,80
51600,note_on,0,0,1,,,,,,,,,,,,,,,0,,,76,67
51600,note_on,0,0,1,,,,,,,,,,,,,,,0,,,78,67
51600,note_on,0,0,1,,,,,,,,,,,,,,,0,,,82,67
51600,note_on,0,0,1,,,,,,,,,,,,,,,0,,,85,0
51600,set_tempo,480,1,0,,,,,,,,,,,,476190,,,,,,,
51600,note_on,120,0,1,,,,,,,,,,,,,,,0,,,76,0
51600,note_on,120,0,2,,,,,,,,,,,,,,,0,,,54,0
51600,note_on,0,0,2,,,,,,,,,,,,,,,0,,,42,0
51600,note_on,0,0,2,,,,,,,,,,,,,,,0,,,42,55
51600,note_on,0,0,2,,,,,,,,,,,,,,,0,,,54,65
51600,note_on,0,0,1,,,,,,,,,,,,,,,0,,,82,0
51600,note_on,0,0,1,,,,,,,,,,,,,,,0,,,78,0
51720,note_on,120,0,1,,,,,,,,,,,,,,,0,,,85,0
51720,note_on,0,0,1,,,,,,,,,,,,,,,0,,,82,0
51720,note_on,0,0,1,,,,,,,,,,,,,,,0,,,78,0
51720,note_on,0,0,1,,,,,,,,,,,,,,,0,,,76,0
51720,control_change,0,0,2,,,,,,,,,,,,,,,0,64,0,,
51720,note_on,120,0,2,,,,,,,,,,,,,,,0,,,54,0
51720,note_on,0,0,2,,,,,,,,,,,,,,,0,,,42,0
51840,note_on,0,0,2,,,,,,,,,,,,,,,0,,,47,86
51840,note_on,120,0,2,,,,,,,,,,,,,,,0,,,35,73
51840,note_on,120,0,1,,,,,,,,,,,,,,,0,,,75,74
51840,note_on,0,0,1,,,,,,,,,,,,,,,0,,,78,74
51840,note_on,0,0,1,,,,,,,,,,,,,,,0,,,83,88
51840,set_tempo,240,1,0,,,,,,,,,,,,436364,,,,,,,
51847,control_change,7,0,2,,,,,,,,,,,,,,,0,64,127,,
52080,note_on,0,0,1,,,,,,,,,,,,,,,0,,,75,0
52080,note_on,0,0,1,,,,,,,,,,,,,,,0,,,78,0
52080,note_on,240,0,1,,,,,,,,,,,,,,,0,,,83,0
52200,note_on,0,0,2,,,,,,,,,,,,,,,0,,,47,80
52200,note_on,0,0,2,,,,,,,,,,,,,,,0,,,35,68
52200,note_on,353,0,2,,,,,,,,,,,,,,,0,,,47,0
52200,note_on,0,0,2,,,,,,,,,,,,,,,0,,,35,0
52320,note_on,0,0,2,,,,,,,,,,,,,,,0,,,47,87
52320,note_on,0,0,2,,,,,,,,,,,,,,,0,,,35,73
52320,note_on,0,0,2,,,,,,,,,,,,,,,0,,,35,0
52320,note_on,120,0,2,,,,,,,,,,,,,,,0,,,47,0
52320,set_tempo,480,1,0,,,,,,,,,,,,476190,,,,,,,
52560,set_tempo,240,1,0,,,,,,,,,,,,436364,,,,,,,
52560,note_on,0,0,2,,,,,,,,,,,,,,,0,,,47,86
52560,note_on,0,0,2,,,,,,,,,,,,,,,0,,,35,73
52560,note_on,0,0,2,,,,,,,,,,,,,,,0,,,35,0
52560,note_on,240,0,2,,,,,,,,,,,,,,,0,,,47,0
52920,note_on,0,0,2,,,,,,,,,,,,,,,0,,,35,68
52920,note_on,360,0,2,,,,,,,,,,,,,,,0,,,47,0
52920,note_on,0,0,2,,,,,,,,,,,,,,,0,,,35,0
52920,note_on,0,0,2,,,,,,,,,,,,,,,0,,,47,80
53040,note_on,0,0,2,,,,,,,,,,,,,,,0,,,47,87
53040,note_on,0,0,2,,,,,,,,,,,,,,,0,,,35,73
53040,note_on,120,0,2,,,,,,,,,,,,,,,0,,,47,0
53040,note_on,0,0,2,,,,,,,,,,,,,,,0,,,35,0
53040,set_tempo,480,1,0,,,,,,,,,,,,472441,,,,,,,
53260,set_tempo,220,1,0,,,,,,,,,,,,449438,,,,,,,
53280,note_on,1200,0,1,,,,,,,,,,,,,,,0,,,77,70
53280,note_on,240,0,2,,,,,,,,,,,,,,,0,,,47,0
53280,note_on,0,0,2,,,,,,,,,,,,,,,0,,,35,0
53280,note_on,0,0,2,,,,,,,,,,,,,,,0,,,35,73
53280,note_on,0,0,2,,,,,,,,,,,,,,,0,,,47,86
53280,control_change,0,0,2,,,,,,,,,,,,,,,0,64,0,,
53323,control_change,43,0,2,,,,,,,,,,,,,,,0,64,127,,
53360,note_on,80,0,1,,,,,,,,,,,,,,,0,,,77,0
53360,note_on,0,0,1,,,,,,,,,,,,,,,0,,,74,68
53360,set_tempo,100,1,0,,,,,,,,,,,,447761,,,,,,,
53440,set_tempo,80,1,0,,,,,,,,,,,,446097,,,,,,,
53440,note_on,80,0,1,,,,,,,,,,,,,,,0,,,74,0
53440,note_on,0,0,1,,,,,,,,,,,,,,,0,,,71,67
53520,note_on,80,0,1,,,,,,,,,,,,,,,0,,,71,0
53520,note_on,0,0,1,,,,,,,,,,,,,,,0,,,68,65
53540,set_tempo,100,1,0,,,,,,,,,,,,444444,,,,,,,
53600,note_on,0,0,1,,,,,,,,,,,,,,,0,,,65,64
53600,note_on,80,0,1,,,,,,,,,,,,,,,0,,,68,0
53620,set_tempo,80,1,0,,,,,,,,,,,,442804,,,,,,,
53680,note_on,80,0,1,,,,,,,,,,,,,,,0,,,65,0
53680,note_on,0,0,1,,,,,,,,,,,,,,,0,,,62,62
53720,set_tempo,100,1,0,,,,,,,,,,,,441176,,,,,,,
53760,note_on,80,0,1,,,,,,,,,,,,,,,0,,,62,0
53760,note_on,0,0,1,,,,,,,,,,,,,,,0,,,59,61
53800,set_tempo,80,1,0,,,,,,,,,,,,439560,,,,,,,
53840,note_on,80,0,1,,,,,,,,,,,,,,,0,,,59,0
53840,note_on,0,0,1,,,,,,,,,,,,,,,0,,,56,59
53900,set_tempo,100,1,0,,,,,,,,,,,,437956,,,,,,,
53920,note_on,0,0,1,,,,,,,,,,,,,,,0,,,53,58
53920,note_on,80,0,1,,,,,,,,,,,,,,,0,,,56,0
53980,set_tempo,80,1,0,,,,,,,,,,,,436364,,,,,,,
54000,note_on,80,0,1,,,,,,,,,,,,,,,0,,,53,0
54000,note_on,0,0,1,,,,,,,,,,,,,,,0,,,50,56
54080,note_on,80,0,1,,,,,,,,,,,,,,,0,,,50,0
54080,note_on,0,0,1,,,,,,,,,,,,,,,0,,,53,55
54100,set_tempo,120,1,0,,,,,,,,,,,,437956,,,,,,,
54160,note_on,80,0,1,,,,,,,,,,,,,,,0,,,53,0
54160,note_on,0,0,1,,,,,,,,,,,,,,,0,,,56,56
54200,set_tempo,100,1,0,,,,,,,,,,,,439560,,,,,,,
54240,note_on,0,0,1,,,,,,,,,,,,,,,0,,,59,56
54240,note_on,80,0,1,,,,,,,,,,,,,,,0,,,56,0
54300,set_tempo,100,1,0,,,,,,,,,,,,441176,,,,,,,
54320,note_on,0,0,1,,,,,,,,,,,,,,,0,,,62,57
54320,note_on,80,0,1,,,,,,,,,,,,,,,0,,,59,0
54360,note_on,0,0,2,,,,,,,,,,,,,,,0,,,35,0
54360,note_on,0,0,2,,,,,,,,,,,,,,,0,,,35,68
54360,note_on,0,0,2,,,,,,,,,,,,,,,0,,,47,80
54360,note_on,1037,0,2,,,,,,,,,,,,,,,0,,,47,0
54400,note_on,80,0,1,,,,,,,,,,,,,,,0,,,62,0
54400,note_on,0,0,1,,,,,,,,,,,,,,,0,,,65,58
54420,set_tempo,120,1,0,,,,,,,,,,,,442804,,,,,,,
54480,note_on,0,0,2,,,,,,,,,,,,,,,0,,,35,0
54480,note_on,0,0,2,,,,,,,,,,,,,,,0,,,47,87
54480,note_on,80,0,1,,,,,,,,,,,,,,,0,,,65,0
54480,note_on,0,0,1,,,,,,,,,,,,,,,0,,,68,59
54480,note_on,120,0,2,,,,,,,,,,,,,,,0,,,47,0
54480,note_on,0,0,2,,,,,,,,,,,,,,,0,,,35,73
54520,set_tempo,100,1,0,,,,,,,,,,,,444444,,,,,,,
54560,note_on,80,0,1,,,,,,,,,,,,,,,0,,,68,0
54560,note_on,0,0,1,,,,,,,,,,,,,,,0,,,71,60
54620,set_tempo,100,1,0,,,,,,,,,,,,446097,,,,,,,
54640,note_on,80,0,1,,,,,,,,,,,,,,,0,,,71,0
54640,note_on,0,0,1,,,,,,,,,,,,,,,0,,,74,63
54720,control_change,0,0,2,,,,,,,,,,,,,,,0,64,0,,
54720,note_on,0,0,2,,,,,,,,,,,,,,,0,,,35,0
54720,note_on,0,0,2,,,,,,,,,,,,,,,0,,,35,73
54720,note_on,0,0,2,,,,,,,,,,,,,,,0,,,47,86
54720,note_on,80,0,1,,,,,,,,,,,,,,,0,,,74,0
54720,note_on,0,0,1,,,,,,,,,,,,,,,0,,,77,65
54720,note_on,240,0,2,,,,,,,,,,,,,,,0,,,47,0
54720,set_tempo,100,1,0,,,,,,,,,,,,449438,,,,,,,
54763,control_change,43,0,2,,,,,,,,,,,,,,,0,64,127,,
54800,note_on,80,0,1,,,,,,,,,,,,,,,0,,,77,0
54800,note_on,0,0,1,,,,,,,,,,,,,,,0,,,74,64
54820,set_tempo,100,1,0,,,,,,,,,,,,447761,,,,,,,
54880,note_on,80,0,1,,,,,,,,,,,,,,,0,,,74,0
54880,note_on,0,0,1,,,,,,,,,,,,,,,0,,,71,63
54900,set_tempo,80,1,0,,,,,,,,,,,,446097,,,,,,,
54960,note_on,80,0,1,,,,,,,,,,,,,,,0,,,71,0
54960,note_on,0,0,1,,,,,,,,,,,,,,,0,,,68,62
55000,set_tempo,100,1,0,,,,,,,,,,,,444444,,,,,,,
55040,note_on,80,0,1,,,,,,,,,,,,,,,0,,,68,0
55040,note_on,0,0,1,,,,,,,,,,,,,,,0,,,65,61
55080,set_tempo,80,1,0,,,,,,,,,,,,442804,,,,,,,
55120,note_on,0,0,1,,,,,,,,,,,,,,,0,,,62,59
55120,note_on,80,0,1,,,,,,,,,,,,,,,0,,,65,0
55160,set_tempo,80,1,0,,,,,,,,,,,,441176,,,,,,,
55200,note_on,0,0,1,,,,,,,,,,,,,,,0,,,59,58
55200,note_on,80,0,1,,,,,,,,,,,,,,,0,,,62,0
55260,set_tempo,100,1,0,,,,,,,,,,,,439560,,,,,,,
55280,note_on,0,0,1,,,,,,,,,,,,,,,0,,,56,57
55280,note_on,80,0,1,,,,,,,,,,,,,,,0,,,59,0
55340,set_tempo,80,1,0,,,,,,,,,,,,437956,,,,,,,
55360,note_on,80,0,1,,,,,,,,,,,,,,,0,,,56,0
55360,note_on,0,0,1,,,,,,,,,,,,,,,0,,,53,56
55420,set_tempo,80,1,0,,,,,,,,,,,,436364,,,,,,,
55440,note_on,80,0,1,,,,,,,,,,,,,,,0,,,53,0
55440,note_on,0,0,1,,,,,,,,,,,,,,,0,,,50,56
55520,note_on,80,0,1,,,,,,,,,,,,,,,0,,,50,0
55520,note_on,0,0,1,,,,,,,,,,,,,,,0,,,53,55
55520,set_tempo,100,1,0,,,,,,,,,,,,437956,,,,,,,
55600,set_tempo,80,1,0,,,,,,,,,,,,439560,,,,,,,
55600,note_on,0,0,1,,,,,,,,,,,,,,,0,,,56,56
55600,note_on,80,0,1,,,,,,,,,,,,,,,0,,,53,0
55640,set_tempo,40,1,0,,,,,,,,,,,,437956,,,,,,,
55660,set_tempo,20,1,0,,,,,,,,,,,,439560,,,,,,,
55680,set_tempo,20,1,0,,,,,,,,,,,,441176,,,,,,,
55680,note_on,0,0,1,,,,,,,,,,,,,,,0,,,59,56
55680,note_on,80,0,1,,,,,,,,,,,,,,,0,,,56,0
55700,set_tempo,20,1,0,,,,,,,,,,,,442804,,,,,,,
55720,set_tempo,20,1,0,,,,,,,,,,,,444444,,,,,,,
55740,set_tempo,20,1,0,,,,,,,,,,,,446097,,,,,,,
55760,set_tempo,20,1,0,,,,,,,,,,,,447761,,,,,,,
55760,note_on,0,0,1,,,,,,,,,,,,,,,0,,,62,57
55760,note_on,80,0,1,,,,,,,,,,,,,,,0,,,59,0
55780,set_tempo,20,1,0,,,,,,,,,,,,449438,,,,,,,
55800,note_on,0,0,2,,,,,,,,,,,,,,,0,,,35,68
55800,set_tempo,20,1,0,,,,,,,,,,,,451128,,,,,,,
55800,note_on,1037,0,2,,,,,,,,,,,,,,,0,,,47,0
55800,note_on,0,0,2,,,,,,,,,,,,,,,0,,,35,0
55800,note_on,0,0,2,,,,,,,,,,,,,,,0,,,47,80
55820,set_tempo,20,1,0,,,,,,,,,,,,452830,,,,,,,
55840,set_tempo,20,1,0,,,,,,,,,,,,454545,,,,,,,
55840,note_on,80,0,1,,,,,,,,,,,,,,,0,,,62,0
55840,note_on,0,0,1,,,,,,,,,,,,,,,0,,,65,58
55860,set_tempo,20,1,0,,,,,,,,,,,,456274,,,,,,,
55880,set_tempo,20,1,0,,,,,,,,,,,,458015,,,,,,,
55900,set_tempo,20,1,0,,,,,,,,,,,,459770,,,,,,,
55920,note_on,0,0,2,,,,,,,,,,,,,,,0,,,47,87
55920,set_tempo,20,1,0,,,,,,,,,,,,461538,,,,,,,
55920,note_on,120,0,2,,,,,,,,,,,,,,,0,,,47,0
55920,note_on,0,0,1,,,,,,,,,,,,,,,0,,,68,60
55920,note_on,80,0,1,,,,,,,,,,,,,,,0,,,65,0
55920,note_on,0,0,2,,,,,,,,,,,,,,,0,,,35,73
55920,note_on,0,0,2,,,,,,,,,,,,,,,0,,,35,0
55940,set_tempo,20,1,0,,,,,,,,,,,,463320,,,,,,,
55960,set_tempo,20,1,0,,,,,,,,,,,,466926,,,,,,,
55980,set_tempo,20,1,0,,,,,,,,,,,,468750,,,,,,,
55980,note_on,0,0,1,,,,,,,,,,,,,,,0,,,71,62
55980,note_on,60,0,1,,,,,,,,,,,,,,,0,,,68,0
56000,set_tempo,20,1,0,,,,,,,,,,,,472441,,,,,,,
56020,set_tempo,20,1,0,,,,,,,,,,,,474308,,,,,,,
56040,note_on,60,0,1,,,,,,,,,,,,,,,0,,,71,0
56040,note_on,0,0,1,,,,,,,,,,,,,,,0,,,74,63
56040,set_tempo,20,1,0,,,,,,,,,,,,478088,,,,,,,
56048,set_tempo,8,1,0,,,,,,,,,,,,483871,,,,,,,
56056,set_tempo,8,1,0,,,,,,,,,,,,489796,,,,,,,
56064,set_tempo,8,1,0,,,,,,,,,,,,495868,,,,,,,
56072,set_tempo,8,1,0,,,,,,,,,,,,502092,,,,,,,
56080,set_tempo,8,1,0,,,,,,,,,,,,508475,,,,,,,
56088,set_tempo,8,1,0,,,,,,,,,,,,515021,,,,,,,
56096,set_tempo,8,1,0,,,,,,,,,,,,521739,,,,,,,
56100,note_on,0,0,1,,,,,,,,,,,,,,,0,,,77,66
56100,note_on,60,0,1,,,,,,,,,,,,,,,0,,,74,0
56104,set_tempo,8,1,0,,,,,,,,,,,,528634,,,,,,,
56112,set_tempo,8,1,0,,,,,,,,,,,,538117,,,,,,,
56120,set_tempo,8,1,0,,,,,,,,,,,,535714,,,,,,,
56160,note_on,240,0,2,,,,,,,,,,,,,,,0,,,47,0
56160,note_on,0,0,1,,,,,,,,,,,,,,,0,,,78,77
56160,note_on,0,0,1,,,,,,,,,,,,,,,0,,,66,65
56160,set_tempo,40,1,0,,,,,,,,,,,,487805,,,,,,,
56160,note_on,0,0,2,,,,,,,,,,,,,,,0,,,35,0
56160,note_on,0,0,2,,,,,,,,,,,,,,,0,,,47,49
56160,note_on,60,0,1,,,,,,,,,,,,,,,0,,,77,0
56168,control_change,8,0,2,,,,,,,,,,,,,,,0,64,0,,
56213,control_change,45,0,2,,,,,,,,,,,,,,,0,64,127,,
56340,note_on,127,0,2,,,,,,,,,,,,,,,0,,,47,0
56400,note_on,0,0,2,,,,,,,,,,,,,,,0,,,59,32
56400,note_on,0,0,2,,,,,,,,,,,,,,,0,,,54,32
56400,note_on,60,0,2,,,,,,,,,,,,,,,0,,,63,38
56520,note_on,360,0,1,,,,,,,,,,,,,,,0,,,78,0
56520,note_on,0,0,1,,,,,,,,,,,,,,,0,,,66,0
56520,note_on,0,0,1,,,,,,,,,,,,,,,0,,,78,49
56520,note_on,0,0,1,,,,,,,,,,,,,,,0,,,66,41
56640,note_on,0,0,1,,,,,,,,,,,,,,,0,,,78,52
56640,set_tempo,480,1,0,,,,,,,,,,,,515021,,,,,,,
56640,note_on,0,0,1,,,,,,,,,,,,,,,0,,,66,44
56640,note_on,0,0,1,,,,,,,,,,,,,,,0,,,78,0
56640,note_on,120,0,1,,,,,,,,,,,,,,,0,,,66,0
56880,note_on,0,0,2,,,,,,,,,,,,,,,0,,,63,0
56880,note_on,0,0,2,,,,,,,,,,,,,,,0,,,59,0
56880,note_on,480,0,2,,,,,,,,,,,,,,,0,,,54,0
56880,note_on,0,0,1,,,,,,,,,,,,,,,0,,,83,55
56880,note_on,0,0,1,,,,,,,,,,,,,,,0,,,71,46
56880,note_on,0,0,1,,,,,,,,,,,,,,,0,,,66,0
56880,set_tempo,240,1,0,,,,,,,,,,,,487805,,,,,,,
56880,note_on,240,0,1,,,,,,,,,,,,,,,0,,,78,0
56880,note_on,0,0,2,,,,,,,,,,,,,,,0,,,51,49
56888,control_change,8,0,2,,,,,,,,,,,,,,,0,64,0,,
56926,control_change,38,0,2,,,,,,,,,,,,,,,0,64,127,,
57060,note_on,134,0,2,,,,,,,,,,,,,,,0,,,51,0
57120,note_on,60,0,2,,,,,,,,,,,,,,,0,,,66,36
57120,note_on,0,0,2,,,,,,,,,,,,,,,0,,,63,30
57120,note_on,0,0,2,,,,,,,,,,,,,,,0,,,59,30
57240,note_on,360,0,1,,,,,,,,,,,,,,,0,,,83,0
57240,note_on,0,0,1,,,,,,,,,,,,,,,0,,,71,41
57240,note_on,0,0,1,,,,,,,,,,,,,,,0,,,83,49
57240,note_on,0,0,1,,,,,,,,,,,,,,,0,,,71,0
57360,note_on,120,0,1,,,,,,,,,,,,,,,0,,,71,0
57360,note_on,0,0,1,,,,,,,,,,,,,,,0,,,83,54
57360,note_on,0,0,1,,,,,,,,,,,,,,,0,,,71,45
57360,note_on,0,0,1,,,,,,,,,,,,,,,0,,,83,0
57360,set_tempo,480,1,0,,,,,,,,,,,,510638,,,,,,,
57600,note_on,0,0,2,,,,,,,,,,,,,,,0,,,49,49
57600,note_on,0,0,2,,,,,,,,,,,,,,,0,,,66,0
57600,note_on,0,0,2,,,,,,,,,,,,,,,0,,,63,0
57600,note_on,0,0,1,,,,,,,,,,,,,,,0,,,70,46
57600,note_on,0,0,1,,,,,,,,,,,,,,,0,,,82,55
57600,note_on,240,0,1,,,,,,,,,,,,,,,0,,,83,0
57600,note_on,0,0,1,,,,,,,,,,,,,,,0,,,71,0
57600,note_on,480,0,2,,,,,,,,,,,,,,,0,,,59,0
57600,set_tempo,240,1,0,,,,,,,,,,,,487805,,,,,,,
57608,control_change,8,0,2,,,,,,,,,,,,,,,0,64,0,,
57642,control_change,34,0,2,,,,,,,,,,,,,,,0,64,127,,
57780,note_on,138,0,2,,,,,,,,,,,,,,,0,,,49,0
57840,note_on,0,0,2,,,,,,,,,,,,,,,0,,,58,30
57840,note_on,0,0,2,,,,,,,,,,,,,,,0,,,64,30
57840,note_on,60,0,2,,,,,,,,,,,,,,,0,,,66,36
57960,note_on,0,0,1,,,,,,,,,,,,,,,0,,,82,49
57960,note_on,360,0,1,,,,,,,,,,,,,,,0,,,82,0
57960,note_on,0,0,1,,,,,,,,,,,,,,,0,,,70,41
57960,note_on,0,0,1,,,,,,,,,,,,,,,0,,,70,0
58080,set_tempo,480,1,0,,,,,,,,,,,,579710,,,,,,,
58080,note_on,0,0,1,,,,,,,,,,,,,,,0,,,82,54
58080,note_on,120,0,1,,,,,,,,,,,,,,,0,,,70,0
58080,note_on,0,0,1,,,,,,,,,,,,,,,0,,,70,45
58080,note_on,0,0,1,,,,,,,,,,,,,,,0,,,82,0
58320,note_on,480,0,2,,,,,,,,,,,,,,,0,,,58,0
58320,note_on,0,0,2,,,,,,,,,,,,,,,0,,,42,49
58320,note_on,0,0,2,,,,,,,,,,,,,,,0,,,66,0
58320,note_on,0,0,2,,,,,,,,,,,,,,,0,,,64,0
58320,set_tempo,240,1,0,,,,,,,,,,,,612245,,,,,,,
58320,note_on,240,0,1,,,,,,,,,,,,,,,0,,,82,0
58320,note_on,0,0,1,,,,,,,,,,,,,,,0,,,70,0
58320,note_on,0,0,1,,,,,,,,,,,,,,,0,,,76,46
58320,note_on,0,0,1,,,,,,,,,,,,,,,0,,,88,55
58328,control_change,8,0,2,,,,,,,,,,,,,,,0,64,0,,
58373,control_change,45,0,2,,,,,,,,,,,,,,,0,64,127,,
58500,note_on,127,0,2,,,,,,,,,,,,,,,0,,,42,0
58560,note_on,0,0,2,,,,,,,,,,,,,,,0,,,58,30
58560,set_tempo,240,1,0,,,,,,,,,,,,506329,,,,,,,
58560,note_on,60,0,2,,,,,,,,,,,,,,,0,,,66,36
58560,note_on,0,0,2,,,,,,,,,,,,,,,0,,,61,30
59040,set_tempo,480,1,0,,,,,,,,,,,,487805,,,,,,,
59040,note_on,0,0,2,,,,,,,,,,,,,,,0,,,61,0
59040,note_on,0,0,2,,,,,,,,,,,,,,,0,,,66,0
59040,note_on,720,0,1,,,,,,,,,,,,,,,0,,,88,0
59040,note_on,0,0,1,,,,,,,,,,,,,,,0,,,76,0
59040,note_on,0,0,1,,,,,,,,,,,,,,,0,,,75,46
59040,note_on,0,0,2,,,,,,,,,,,,,,,0,,,47,49
59040,note_on,480,0,2,,,,,,,,,,,,,,,0,,,58,0
59040,note_on,0,0,1,,,,,,,,,,,,,,,0,,,87,55
59048,control_change,8,0,2,,,,,,,,,,,,,,,0,64,0,,
59086,control_change,38,0,2,,,,,,,,,,,,,,,0,64,127,,
59220,note_on,134,0,2,,,,,,,,,,,,,,,0,,,47,0
59280,note_on,60,0,2,,,,,,,,,,,,,,,0,,,66,36
59280,note_on,0,0,2,,,,,,,,,,,,,,,0,,,59,30
59280,note_on,0,0,2,,,,,,,,,,,,,,,0,,,63,30
59400,note_on,0,0,1,,,,,,,,,,,,,,,0,,,87,49
59400,note_on,360,0,1,,,,,,,,,,,,,,,0,,,87,0
59400,note_on,0,0,1,,,,,,,,,,,,,,,0,,,75,0
59400,note_on,0,0,1,,,,,,,,,,,,,,,0,,,75,41
59520,note_on,120,0,1,,,,,,,,,,,,,,,0,,,75,0
59520,set_tempo,480,1,0,,,,,,,,,,,,510638,,,,,,,
59520,note_on,0,0,1,,,,,,,,,,,,,,,0,,,71,45
59520,note_on,0,0,1,,,,,,,,,,,,,,,0,,,83,54
59520,note_on,0,0,1,,,,,,,,,,,,,,,0,,,87,0
59760,note_on,240,0,1,,,,,,,,,,,,,,,0,,,83,0
59760,note_on,0,0,1,,,,,,,,,,,,,,,0,,,71,0
59760,note_on,0,0,1,,,,,,,,,,,,,,,0,,,68,46
59760,note_on,0,0,1,,,,,,,,,,,,,,,0,,,80,55
59760,set_tempo,240,1,0,,,,,,,,,,,,487805,,,,,,,
59760,note_on,0,0,2,,,,,,,,,,,,,,,0,,,40,49
59760,note_on,0,0,2,,,,,,,,,,,,,,,0,,,66,0
59760,note_on,0,0,2,,,,,,,,,,,,,,,0,,,63,0
59760,note_on,480,0,2,,,,,,,,,,,,,,,0,,,59,0
59768,control_change,8,0,2,,,,,,,,,,,,,,,0,64,0,,
59802,control_change,34,0,2,,,,,,,,,,,,,,,0,64,127,,
59940,note_on,138,0,2,,,,,,,,,,,,,,,0,,,40,0
60000,note_on,60,0,2,,,,,,,,,,,,,,,0,,,64,36
60000,note_on,0,0,2,,,,,,,,,,,,,,,0,,,61,30
60000,note_on,0,0,2,,,,,,,,,,,,,,,0,,,56,30
60120,note_on,0,0,1,,,,,,,,,,,,,,,0,,,68,41
60120,note_on,0,0,1,,,,,,,,,,,,,,,0,,,80,49
60120,note_on,0,0,1,,,,,,,,,,,,,,,0,,,68,0
60120,note_on,360,0,1,,,,,,,,,,,,,,,0,,,80,0
60240,note_on,120,0,1,,,,,,,,,,,,,,,0,,,68,0
60240,note_on,0,0,1,,,,,,,,,,,,,,,0,,,80,0
60240,note_on,0,0,1,,,,,,,,,,,,,,,0,,,73,45
60240,note_on,0,0,1,,,,,,,,,,,,,,,0,,,85,54
60240,set_tempo,480,1,0,,,,,,,,,,,,512821,,,,,,,
60480,note_on,0,0,2,,,,,,,,,,,,,,,0,,,42,49
60480,set_tempo,240,1,0,,,,,,,,,,,,487805,,,,,,,
60480,note_on,0,0,2,,,,,,,,,,,,,,,0,,,64,0
60480,note_on,240,0,1,,,,,,,,,,,,,,,0,,,85,0
60480,note_on,0,0,1,,,,,,,,,,,,,,,0,,,73,0
60480,note_on,0,0,1,,,,,,,,,,,,,,,0,,,70,46
60480,note_on,0,0,1,,,,,,,,,,,,,,,0,,,82,55
60480,note_on,0,0,2,,,,,,,,,,,,,,,0,,,61,0
60480,note_on,480,0,2,,,,,,,,,,,,,,,0,,,56,0
60488,control_change,8,0,2,,,,,,,,,,,,,,,0,64,0,,
60522,control_change,34,0,2,,,,,,,,,,,,,,,0,64,127,,
60660,note_on,138,0,2,,,,,,,,,,,,,,,0,,,42,0
60720,note_on,60,0,2,,,,,,,,,,,,,,,0,,,64,36
60720,note_on,0,0,2,,,,,,,,,,,,,,,0,,,58,30
60720,note_on,0,0,2,,,,,,,,,,,,,,,0,,,54,30
60840,note_on,0,0,1,,,,,,,,,,,,,,,0,,,70,0
60840,note_on,360,0,1,,,,,,,,,,,,,,,0,,,82,0
60840,note_on,0,0,1,,,,,,,,,,,,,,,0,,,70,41
60840,note_on,0,0,1,,,,,,,,,,,,,,,0,,,82,49
60960,note_on,120,0,1,,,,,,,,,,,,,,,0,,,70,0
60960,set_tempo,480,1,0,,,,,,,,,,,,547945,,,,,,,
60960,note_on,0,0,1,,,,,,,,,,,,,,,0,,,85,54
60960,note_on,0,0,1,,,,,,,,,,,,,,,0,,,73,45
60960,note_on,0,0,1,,,,,,,,,,,,,,,0,,,82,0
61200,note_on,0,0,1,,,,,,,,,,,,,,,0,,,73,0
61200,set_tempo,240,1,0,,,,,,,,,,,,487805,,,,,,,
61200,note_on,240,0,1,,,,,,,,,,,,,,,0,,,85,0
61200,note_on,0,0,1,,,,,,,,,,,,,,,0,,,66,46
61200,note_on,0,0,2,,,,,,,,,,,,,,,0,,,58,0
61200,note_on,0,0,2,,,,,,,,,,,,,,,0,,,64,0
61200,note_on,0,0,2,,,,,,,,,,,,,,,0,,,46,49
61200,note_on,0,0,1,,,,,,,,,,,,,,,0,,,78,55
61200,note_on,480,0,2,,,,,,,,,,,,,,,0,,,54,0
61208,control_change,8,0,2,,,,,,,,,,,,,,,0,64,0,,
61242,control_change,34,0,2,,,,,,,,,,,,,,,0,64,127,,
61380,note_on,138,0,2,,,,,,,,,,,,,,,0,,,46,0
61440,set_tempo,240,1,0,,,,,,,,,,,,566038,,,,,,,
61440,note_on,60,0,2,,,,,,,,,,,,,,,0,,,64,36
61440,note_on,0,0,2,,,,,,,,,,,,,,,0,,,61,30
61440,note_on,0,0,2,,,,,,,,,,,,,,,0,,,54,30
61556,control_change,116,0,2,,,,,,,,,,,,,,,0,64,0,,
61560,set_tempo,120,1,0,,,,,,,,,,,,550459,,,,,,,
61560,note_on,360,0,1,,,,,,,,,,,,,,,0,,,78,0
61560,note_on,0,0,1,,,,,,,,,,,,,,,0,,,66,0
61560,note_on,0,0,1,,,,,,,,,,,,,,,0,,,87,53
61680,set_tempo,120,1,0,,,,,,,,,,,,533333,,,,,,,
61680,note_on,120,0,1,,,,,,,,,,,,,,,0,,,87,0
61680,note_on,0,0,1,,,,,,,,,,,,,,,0,,,88,53
61800,note_on,0,0,1,,,,,,,,,,,,,,,0,,,89,53
61800,note_on,120,0,1,,,,,,,,,,,,,,,0,,,88,0
61920,note_on,0,0,1,,,,,,,,,,,,,,,0,,,90,60
61920,note_on,0,0,2,,,,,,,,,,,,,,,0,,,47,45
61920,note_on,0,0,1,,,,,,,,,,,,,,,0,,,78,50
61920,note_on,0,0,2,,,,,,,,,,,,,,,0,,,61,0
61920,note_on,364,0,2,,,,,,,,,,,,,,,0,,,54,0
61920,note_on,120,0,1,,,,,,,,,,,,,,,0,,,89,0
61920,set_tempo,240,1,0,,,,,,,,,,,,495868,,,,,,,
61920,note_on,0,0,2,,,,,,,,,,,,,,,0,,,64,0
61973,control_change,53,0,2,,,,,,,,,,,,,,,0,64,127,,
61980,note_on,7,0,2,,,,,,,,,,,,,,,0,,,47,0
62040,note_on,60,0,2,,,,,,,,,,,,,,,0,,,54,35
62160,note_on,0,0,2,,,,,,,,,,,,,,,0,,,59,35
62160,note_on,120,0,2,,,,,,,,,,,,,,,0,,,54,0
62280,note_on,360,0,1,,,,,,,,,,,,,,,0,,,90,0
62280,note_on,0,0,1,,,,,,,,,,,,,,,0,,,78,0
62280,note_on,0,0,1,,,,,,,,,,,,,,,0,,,90,53
62280,note_on,0,0,1,,,,,,,,,,,,,,,0,,,78,45
62280,note_on,120,0,2,,,,,,,,,,,,,,,0,,,59,0
62280,note_on,0,0,2,,,,,,,,,,,,,,,0,,,63,35
62400,note_on,120,0,2,,,,,,,,,,,,,,,0,,,63,0
62400,note_on,120,0,1,,,,,,,,,,,,,,,0,,,78,0
62400,note_on,0,0,2,,,,,,,,,,,,,,,0,,,59,35
62400,note_on,0,0,1,,,,,,,,,,,,,,,0,,,90,57
62400,note_on,0,0,1,,,,,,,,,,,,,,,0,,,78,48
62400,note_on,0,0,1,,,,,,,,,,,,,,,0,,,90,0
62400,set_tempo,480,1,0,,,,,,,,,,,,515021,,,,,,,
62520,note_on,120,0,2,,,,,,,,,,,,,,,0,,,59,0
62520,note_on,0,0,2,,,,,,,,,,,,,,,0,,,54,35
62640,note_on,0,0,2,,,,,,,,,,,,,,,0,,,51,45
62640,note_on,0,0,1,,,,,,,,,,,,,,,0,,,95,60
62640,note_on,0,0,1,,,,,,,,,,,,,,,0,,,83,50
62640,note_on,120,0,2,,,,,,,,,,,,,,,0,,,54,0
62640,note_on,240,0,1,,,,,,,,,,,,,,,0,,,90,0
62640,set_tempo,240,1,0,,,,,,,,,,,,493827,,,,,,,
62640,note_on,0,0,1,,,,,,,,,,,,,,,0,,,78,0
62648,control_change,8,0,2,,,,,,,,,,,,,,,0,64,0,,
62686,control_change,38,0,2,,,,,,,,,,,,,,,0,64,127,,
62700,note_on,14,0,2,,,,,,,,,,,,,,,0,,,51,0
62760,note_on,60,0,2,,,,,,,,,,,,,,,0,,,59,35
62880,note_on,120,0,2,,,,,,,,,,,,,,,0,,,59,0
62880,note_on,0,0,2,,,,,,,,,,,,,,,0,,,63,35
63000,note_on,0,0,2,,,,,,,,,,,,,,,0,,,66,35
63000,note_on,120,0,2,,,,,,,,,,,,,,,0,,,63,0
63000,note_on,0,0,1,,,,,,,,,,,,,,,0,,,83,45
63000,note_on,0,0,1,,,,,,,,,,,,,,,0,,,95,53
63000,note_on,0,0,1,,,,,,,,,,,,,,,0,,,83,0
63000,note_on,360,0,1,,,,,,,,,,,,,,,0,,,95,0
63120,note_on,0,0,1,,,,,,,,,,,,,,,0,,,95,59
63120,note_on,0,0,1,,,,,,,,,,,,,,,0,,,95,0
63120,note_on,120,0,1,,,,,,,,,,,,,,,0,,,83,0
63120,set_tempo,480,1,0,,,,,,,,,,,,510638,,,,,,,
63120,note_on,120,0,2,,,,,,,,,,,,,,,0,,,66,0
63120,note_on,0,0,2,,,,,,,,,,,,,,,0,,,63,35
63120,note_on,0,0,1,,,,,,,,,,,,,,,0,,,83,49
63240,note_on,120,0,2,,,,,,,,,,,,,,,0,,,63,0
63240,note_on,0,0,2,,,,,,,,,,,,,,,0,,,59,35
63360,note_on,120,0,2,,,,,,,,,,,,,,,0,,,59,0
63360,note_on,0,0,1,,,,,,,,,,,,,,,0,,,82,50
63360,note_on,0,0,2,,,,,,,,,,,,,,,0,,,49,50
63360,set_tempo,240,1,0,,,,,,,,,,,,487805,,,,,,,
63360,note_on,240,0,1,,,,,,,,,,,,,,,0,,,95,0
63360,note_on,0,0,1,,,,,,,,,,,,,,,0,,,83,0
63360,note_on,0,0,1,,,,,,,,,,,,,,,0,,,94,60
63368,control_change,8,0,2,,,,,,,,,,,,,,,0,64,0,,
63402,control_change,34,0,2,,,,,,,,,,,,,,,0,64,127,,
63420,note_on,18,0,2,,,,,,,,,,,,,,,0,,,49,0
63480,note_on,60,0,2,,,,,,,,,,,,,,,0,,,58,35
63600,note_on,0,0,2,,,,,,,,,,,,,,,0,,,64,35
63600,note_on,120,0,2,,,,,,,,,,,,,,,0,,,58,0
63720,note_on,0,0,1,,,,,,,,,,,,,,,0,,,82,0
63720,note_on,360,0,1,,,,,,,,,,,,,,,0,,,94,0
63720,note_on,0,0,1,,,,,,,,,,,,,,,0,,,82,45
63720,note_on,120,0,2,,,,,,,,,,,,,,,0,,,64,0
63720,note_on,0,0,2,,,,,,,,,,,,,,,0,,,66,35
63720,note_on,0,0,1,,,,,,,,,,,,,,,0,,,94,53
63840,note_on,120,0,2,,,,,,,,,,,,,,,0,,,66,0
63840,note_on,0,0,2,,,,,,,,,,,,,,,0,,,64,35
63840,note_on,120,0,1,,,,,,,,,,,,,,,0,,,82,0
63840,note_on,0,0,1,,,,,,,,,,,,,,,0,,,94,59
63840,note_on,0,0,1,,,,,,,,,,,,,,,0,,,82,49
63840,note_on,0,0,1,,,,,,,,,,,,,,,0,,,94,0
63840,set_tempo,480,1,0,,,,,,,,,,,,547945,,,,,,,
63960,note_on,120,0,2,,,,,,,,,,,,,,,0,,,64,0
63960,note_on,0,0,2,,,,,,,,,,,,,,,0,,,58,35
64080,note_on,240,0,1,,,,,,,,,,,,,,,0,,,94,0
64080,note_on,0,0,1,,,,,,,,,,,,,,,0,,,82,0
64080,note_on,0,0,1,,,,,,,,,,,,,,,0,,,88,50
64080,note_on,0,0,2,,,,,,,,,,,,,,,0,,,42,47
64080,note_on,0,0,1,,,,,,,,,,,,,,,0,,,100,60
64080,note_on,120,0,2,,,,,,,,,,,,,,,0,,,58,0
64080,set_tempo,240,1,0,,,,,,,,,,,,524017,,,,,,,
64088,control_change,8,0,2,,,,,,,,,,,,,,,0,64,0,,
64133,control_change,45,0,2,,,,,,,,,,,,,,,0,64,127,,
64140,note_on,7,0,2,,,,,,,,,,,,,,,0,,,42,0
64200,note_on,60,0,2,,,,,,,,,,,,,,,0,,,58,35
64320,note_on,120,0,2,,,,,,,,,,,,,,,0,,,58,0
64320,note_on,0,0,2,,,,,,,,,,,,,,,0,,,61,35
64320,set_tempo,240,1,0,,,,,,,,,,,,506329,,,,,,,
64440,note_on,120,0,2,,,,,,,,,,,,,,,0,,,61,0
64440,note_on,0,0,2,,,,,,,,,,,,,,,0,,,66,35
64560,note_on,120,0,2,,,,,,,,,,,,,,,0,,,66,0
64560,note_on,0,0,2,,,,,,,,,,,,,,,0,,,61,35
64680,note_on,120,0,2,,,,,,,,,,,,,,,0,,,61,0
64680,note_on,0,0,2,,,,,,,,,,,,,,,0,,,58,35
64800,note_on,720,0,1,,,,,,,,,,,,,,,0,,,100,0
64800,note_on,0,0,1,,,,,,,,,,,,,,,0,,,88,0
64800,set_tempo,480,1,0,,,,,,,,,,,,487805,,,,,,,
64800,note_on,0,0,1,,,,,,,,,,,,,,,0,,,87,50
64800,note_on,0,0,1,,,,,,,,,,,,,,,0,,,99,60
64800,note_on,120,0,2,,,,,,,,,,,,,,,0,,,58,0
64800,note_on,0,0,2,,,,,,,,,,,,,,,0,,,47,46
64808,control_change,8,0,2,,,,,,,,,,,,,,,0,64,0,,
64846,control_change,38,0,2,,,,,,,,,,,,,,,0,64,127,,
64860,note_on,14,0,2,,,,,,,,,,,,,,,0,,,47,0
64920,note_on,60,0,2,,,,,,,,,,,,,,,0,,,59,35
65040,note_on,0,0,2,,,,,,,,,,,,,,,0,,,63,35
65040,note_on,120,0,2,,,,,,,,,,,,,,,0,,,59,0
65160,note_on,120,0,2,,,,,,,,,,,,,,,0,,,63,0
65160,note_on,0,0,2,,,,,,,,,,,,,,,0,,,66,35
65160,note_on,0,0,1,,,,,,,,,,,,,,,0,,,87,45
65160,note_on,0,0,1,,,,,,,,,,,,,,,0,,,99,53
65160,note_on,0,0,1,,,,,,,,,,,,,,,0,,,87,0
65160,note_on,360,0,1,,,,,,,,,,,,,,,0,,,99,0
65280,set_tempo,480,1,0,,,,,,,,,,,,510638,,,,,,,
65280,note_on,0,0,1,,,,,,,,,,,,,,,0,,,83,49
65280,note_on,0,0,1,,,,,,,,,,,,,,,0,,,95,59
65280,note_on,0,0,1,,,,,,,,,,,,,,,0,,,99,0
65280,note_on,0,0,2,,,,,,,,,,,,,,,0,,,63,35
65280,note_on,120,0,1,,,,,,,,,,,,,,,0,,,87,0
65280,note_on,120,0,2,,,,,,,,,,,,,,,0,,,66,0
65400,note_on,120,0,2,,,,,,,,,,,,,,,0,,,63,0
65400,note_on,0,0,2,,,,,,,,,,,,,,,0,,,59,35
65520,note_on,0,0,1,,,,,,,,,,,,,,,0,,,80,50
65520,note_on,0,0,2,,,,,,,,,,,,,,,0,,,40,49
65520,note_on,120,0,2,,,,,,,,,,,,,,,0,,,59,0
65520,note_on,0,0,1,,,,,,,,,,,,,,,0,,,83,0
65520,note_on,240,0,1,,,,,,,,,,,,,,,0,,,95,0
65520,set_tempo,240,1,0,,,,,,,,,,,,487805,,,,,,,
65520,note_on,0,0,1,,,,,,,,,,,,,,,0,,,92,60
65528,control_change,8,0,2,,,,,,,,,,,,,,,0,64,0,,
65562,control_change,34,0,2,,,,,,,,,,,,,,,0,64,127,,
65580,note_on,18,0,2,,,,,,,,,,,,,,,0,,,40,0
65640,note_on,60,0,2,,,,,,,,,,,,,,,0,,,56,35
65760,note_on,120,0,2,,,,,,,,,,,,,,,0,,,56,0
65760,note_on,0,0,2,,,,,,,,,,,,,,,0,,,61,35
65880,note_on,0,0,1,,,,,,,,,,,,,,,0,,,92,53
65880,note_on,0,0,2,,,,,,,,,,,,,,,0,,,64,35
65880,note_on,0,0,1,,,,,,,,,,,,,,,0,,,80,0
65880,note_on,360,0,1,,,,,,,,,,,,,,,0,,,92,0
65880,note_on,0,0,1,,,,,,,,,,,,,,,0,,,80,45
65880,note_on,120,0,2,,,,,,,,,,,,,,,0,,,61,0
66000,set_tempo,480,1,0,,,,,,,,,,,,512821,,,,,,,
66000,note_on,0,0,2,,,,,,,,,,,,,,,0,,,61,35
66000,note_on,120,0,2,,,,,,,,,,,,,,,0,,,64,0
66000,note_on,0,0,1,,,,,,,,,,,,,,,0,,,97,59
66000,note_on,0,0,1,,,,,,,,,,,,,,,0,,,85,49
66000,note_on,0,0,1,,,,,,,,,,,,,,,0,,,92,0
66000,note_on,120,0,1,,,,,,,,,,,,,,,0,,,80,0
66120,note_on,0,0,2,,,,,,,,,,,,,,,0,,,56,35
66120,note_on,120,0,2,,,,,,,,,,,,,,,0,,,61,0
66240,note_on,0,0,1,,,,,,,,,,,,,,,0,,,94,60
66240,note_on,0,0,1,,,,,,,,,,,,,,,0,,,82,50
66240,note_on,0,0,1,,,,,,,,,,,,,,,0,,,85,0
66240,note_on,240,0,1,,,,,,,,,,,,,,,0,,,97,0
66240,note_on,0,0,2,,,,,,,,,,,,,,,0,,,42,52
66240,set_tempo,240,1,0,,,,,,,,,,,,495868,,,,,,,
66240,note_on,120,0,2,,,,,,,,,,,,,,,0,,,56,0
66248,control_change,8,0,2,,,,,,,,,,,,,,,0,64,0,,
66282,control_change,34,0,2,,,,,,,,,,,,,,,0,64,127,,
66300,note_on,18,0,2,,,,,,,,,,,,,,,0,,,42,0
66360,note_on,60,0,2,,,,,,,,,,,,,,,0,,,54,35
66480,note_on,120,0,2,,,,,,,,,,,,,,,0,,,54,0
66480,note_on,0,0,2,,,,,,,,,,,,,,,0,,,58,35
66600,note_on,360,0,1,,,,,,,,,,,,,,,0,,,94,0
66600,note_on,0,0,1,,,,,,,,,,,,,,,0,,,82,0
66600,note_on,0,0,1,,,,,,,,,,,,,,,0,,,94,53
66600,note_on,0,0,1,,,,,,,,,,,,,,,0,,,82,45
66600,note_on,0,0,2,,,,,,,,,,,,,,,0,,,64,35
66600,note_on,120,0,2,,,,,,,,,,,,,,,0,,,58,0
66720,note_on,0,0,1,,,,,,,,,,,,,,,0,,,97,59
66720,note_on,120,0,2,,,,,,,,,,,,,,,0,,,64,0
66720,note_on,0,0,1,,,,,,,,,,,,,,,0,,,94,0
66720,note_on,120,0,1,,,,,,,,,,,,,,,0,,,82,0
66720,set_tempo,480,1,0,,,,,,,,,,,,547945,,,,,,,
66720,note_on,0,0,2,,,,,,,,,,,,,,,0,,,58,35
66720,note_on,0,0,1,,,,,,,,,,,,,,,0,,,85,49
66840,note_on,120,0,2,,,,,,,,,,,,,,,0,,,58,0
66840,note_on,0,0,2,,,,,,,,,,,,,,,0,,,54,35
66960,note_on,120,0,2,,,,,,,,,,,,,,,0,,,54,0
66960,note_on,0,0,2,,,,,,,,,,,,,,,0,,,47,49
66960,set_tempo,240,1,0,,,,,,,,,,,,504202,,,,,,,
66960,note_on,0,0,1,,,,,,,,,,,,,,,0,,,95,60
66960,note_on,0,0,1,,,,,,,,,,,,,,,0,,,83,50
66960,note_on,0,0,1,,,,,,,,,,,,,,,0,,,85,0
66960,note_on,240,0,1,,,,,,,,,,,,,,,0,,,97,0
66968,control_change,8,0,2,,,,,,,,,,,,,,,0,64,0,,
67002,control_change,34,0,2,,,,,,,,,,,,,,,0,64,127,,
67020,note_on,18,0,2,,,,,,,,,,,,,,,0,,,47,0
67080,note_on,60,0,2,,,,,,,,,,,,,,,0,,,54,35
67200,note_on,120,0,2,,,,,,,,,,,,,,,0,,,54,0
67200,note_on,0,0,2,,,,,,,,,,,,,,,0,,,59,35
67320,note_on,120,0,2,,,,,,,,,,,,,,,0,,,59,0
67320,note_on,0,0,2,,,,,,,,,,,,,,,0,,,63,35
67440,note_on,0,0,2,,,,,,,,,,,,,,,0,,,59,35
67440,note_on,120,0,2,,,,,,,,,,,,,,,0,,,63,0
67440,set_tempo,480,1,0,,,,,,,,,,,,547945,,,,,,,
67560,note_on,120,0,2,,,,,,,,,,,,,,,0,,,59,0
67560,note_on,0,0,2,,,,,,,,,,,,,,,0,,,54,35
67680,note_on,120,0,2,,,,,,,,,,,,,,,0,,,54,0
67680,note_on,0,0,2,,,,,,,,,,,,,,,0,,,35,74
67680,note_on,0,0,2,,,,,,,,,,,,,,,0,,,47,88
67680,set_tempo,240,1,0,,,,,,,,,,,,474308,,,,,,,
67680,note_on,720,0,1,,,,,,,,,,,,,,,0,,,95,0
67680,note_on,0,0,1,,,,,,,,,,,,,,,0,,,83,0
67687,control_change,7,0,2,,,,,,,,,,,,,,,0,64,0,,
67743,control_change,56,0,2,,,,,,,,,,,,,,,0,64,127,,
67800,note_on,120,0,1,,,,,,,,,,,,,,,0,,,66,67
67920,note_on,120,0,1,,,,,,,,,,,,,,,0,,,66,0
67920,note_on,0,0,1,,,,,,,,,,,,,,,0,,,78,75
67920,note_on,0,0,1,,,,,,,,,,,,,,,0,,,75,63
68040,note_on,0,0,2,,,,,,,,,,,,,,,0,,,35,0
68040,note_on,0,0,2,,,,,,,,,,,,,,,0,,,47,77
68040,note_on,0,0,2,,,,,,,,,,,,,,,0,,,35,65
68040,note_on,0,0,1,,,,,,,,,,,,,,,0,,,78,0
68040,note_on,0,0,1,,,,,,,,,,,,,,,0,,,71,63
68040,note_on,120,0,1,,,,,,,,,,,,,,,0,,,75,0
68040,note_on,297,0,2,,,,,,,,,,,,,,,0,,,47,0
68160,note_on,0,0,2,,,,,,,,,,,,,,,0,,,35,71
68160,note_on,120,0,2,,,,,,,,,,,,,,,0,,,35,0
68160,note_on,0,0,2,,,,,,,,,,,,,,,0,,,47,0
68160,note_on,0,0,2,,,,,,,,,,,,,,,0,,,47,84
68160,set_tempo,480,1,0,,,,,,,,,,,,493827,,,,,,,
68160,note_on,120,0,1,,,,,,,,,,,,,,,0,,,71,0
68160,note_on,0,0,1,,,,,,,,,,,,,,,0,,,71,56
68160,note_on,0,0,1,,,,,,,,,,,,,,,0,,,75,67
68280,note_on,120,0,1,,,,,,,,,,,,,,,0,,,71,0
68280,note_on,0,0,1,,,,,,,,,,,,,,,0,,,75,0
68280,note_on,0,0,1,,,,,,,,,,,,,,,0,,,66,63
68280,note_on,0,0,2,,,,,,,,,,,,,,,0,,,35,0
68280,note_on,120,0,2,,,,,,,,,,,,,,,0,,,47,0
68400,set_tempo,240,1,0,,,,,,,,,,,,466926,,,,,,,
68400,note_on,120,0,2,,,,,,,,,,,,,,,0,,,38,75
68400,note_on,0,0,2,,,,,,,,,,,,,,,0,,,50,89
68400,note_on,120,0,1,,,,,,,,,,,,,,,0,,,66,0
68409,control_change,9,0,2,,,,,,,,,,,,,,,0,64,0,,
68474,control_change,65,0,2,,,,,,,,,,,,,,,0,64,127,,
68520,note_on,120,0,1,,,,,,,,,,,,,,,0,,,71,67
68640,note_on,0,0,1,,,,,,,,,,,,,,,0,,,83,76
68640,note_on,120,0,1,,,,,,,,,,,,,,,0,,,71,0
68640,note_on,0,0,1,,,,,,,,,,,,,,,0,,,80,64
68760,note_on,0,0,2,,,,,,,,,,,,,,,0,,,38,0
68760,note_on,120,0,1,,,,,,,,,,,,,,,0,,,80,0
68760,note_on,286,0,2,,,,,,,,,,,,,,,0,,,50,0
68760,note_on,0,0,1,,,,,,,,,,,,,,,0,,,83,0
68760,note_on,0,0,1,,,,,,,,,,,,,,,0,,,77,64
68760,note_on,0,0,2,,,,,,,,,,,,,,,0,,,50,77
68760,note_on,0,0,2,,,,,,,,,,,,,,,0,,,38,65
68880,note_on,0,0,2,,,,,,,,,,,,,,,0,,,50,0
68880,note_on,0,0,2,,,,,,,,,,,,,,,0,,,38,68
68880,note_on,120,0,2,,,,,,,,,,,,,,,0,,,38,0
68880,note_on,0,0,1,,,,,,,,,,,,,,,0,,,80,67
68880,note_on,120,0,1,,,,,,,,,,,,,,,0,,,77,0
68880,note_on,0,0,2,,,,,,,,,,,,,,,0,,,50,80
68880,note_on,0,0,1,,,,,,,,,,,,,,,0,,,77,56
68880,set_tempo,480,1,0,,,,,,,,,,,,510638,,,,,,,
69000,note_on,120,0,2,,,,,,,,,,,,,,,0,,,50,0
69000,note_on,0,0,1,,,,,,,,,,,,,,,0,,,71,63
69000,note_on,0,0,2,,,,,,,,,,,,,,,0,,,38,0
69000,note_on,0,0,1,,,,,,,,,,,,,,,0,,,80,0
69000,note_on,120,0,1,,,,,,,,,,,,,,,0,,,77,0
69120,note_on,120,0,2,,,,,,,,,,,,,,,0,,,39,72
69120,note_on,0,0,2,,,,,,,,,,,,,,,0,,,51,85
69120,set_tempo,240,1,0,,,,,,,,,,,,478088,,,,,,,
69120,note_on,120,0,1,,,,,,,,,,,,,,,0,,,71,0
69130,control_change,10,0,2,,,,,,,,,,,,,,,0,64,0,,
69177,control_change,47,0,2,,,,,,,,,,,,,,,0,64,127,,
69240,note_on,120,0,1,,,,,,,,,,,,,,,0,,,70,67
69360,note_on,0,0,1,,,,,,,,,,,,,,,0,,,75,64
69360,note_on,0,0,1,,,,,,,,,,,,,,,0,,,80,64
69360,note_on,0,0,1,,,,,,,,,,,,,,,0,,,82,76
69360,note_on,120,0,1,,,,,,,,,,,,,,,0,,,70,0
69480,note_on,0,0,2,,,,,,,,,,,,,,,0,,,51,81
69480,note_on,0,0,2,,,,,,,,,,,,,,,0,,,39,0
69480,note_on,303,0,2,,,,,,,,,,,,,,,0,,,51,0
69480,note_on,0,0,1,,,,,,,,,,,,,,,0,,,70,63
69480,note_on,0,0,1,,,,,,,,,,,,,,,0,,,82,0
69480,note_on,0,0,1,,,,,,,,,,,,,,,0,,,80,0
69480,note_on,120,0,1,,,,,,,,,,,,,,,0,,,75,0
69480,note_on,0,0,2,,,,,,,,,,,,,,,0,,,39,69
69600,note_on,0,0,1,,,,,,,,,,,,,,,0,,,75,56
69600,note_on,120,0,1,,,,,,,,,,,,,,,0,,,70,0
69600,note_on,0,0,1,,,,,,,,,,,,,,,0,,,78,67
69600,set_tempo,480,1,0,,,,,,,,,,,,547945,,,,,,,
69600,note_on,0,0,2,,,,,,,,,,,,,,,0,,,42,70
69600,note_on,0,0,2,,,,,,,,,,,,,,,0,,,51,0
69600,note_on,0,0,2,,,,,,,,,,,,,,,0,,,54,83
69600,note_on,120,0,2,,,,,,,,,,,,,,,0,,,39,0
69720,note_on,0,0,1,,,,,,,,,,,,,,,0,,,70,63
69720,note_on,120,0,1,,,,,,,,,,,,,,,0,,,75,0
69720,note_on,120,0,2,,,,,,,,,,,,,,,0,,,54,0
69720,note_on,0,0,2,,,,,,,,,,,,,,,0,,,42,0
69720,note_on,0,0,1,,,,,,,,,,,,,,,0,,,78,0
69840,note_on,0,0,2,,,,,,,,,,,,,,,0,,,58,89
69840,note_on,120,0,2,,,,,,,,,,,,,,,0,,,46,75
69840,set_tempo,240,1,0,,,,,,,,,,,,502092,,,,,,,
69840,note_on,120,0,1,,,,,,,,,,,,,,,0,,,70,0
69849,control_change,9,0,2,,,,,,,,,,,,,,,0,64,0,,
69903,control_change,54,0,2,,,,,,,,,,,,,,,0,64,127,,
69960,note_on,120,0,1,,,,,,,,,,,,,,,0,,,65,67
70080,note_on,0,0,1,,,,,,,,,,,,,,,0,,,75,65
70080,note_on,0,0,1,,,,,,,,,,,,,,,0,,,70,65
70080,set_tempo,240,1,0,,,,,,,,,,,,487805,,,,,,,
70080,note_on,0,0,1,,,,,,,,,,,,,,,0,,,77,77
70080,note_on,120,0,1,,,,,,,,,,,,,,,0,,,65,0
70200,note_on,0,0,1,,,,,,,,,,,,,,,0,,,65,64
70200,note_on,0,0,1,,,,,,,,,,,,,,,0,,,75,0
70200,note_on,120,0,1,,,,,,,,,,,,,,,0,,,70,0
70200,note_on,0,0,1,,,,,,,,,,,,,,,0,,,77,0
70320,note_on,0,0,1,,,,,,,,,,,,,,,0,,,70,56
70320,note_on,0,0,1,,,,,,,,,,,,,,,0,,,74,67
70320,note_on,120,0,1,,,,,,,,,,,,,,,0,,,65,0
70440,note_on,0,0,1,,,,,,,,,,,,,,,0,,,65,63
70440,note_on,120,0,1,,,,,,,,,,,,,,,0,,,74,0
70440,note_on,0,0,1,,,,,,,,,,,,,,,0,,,70,0
70560,note_on,0,0,2,,,,,,,,,,,,,,,0,,,37,74
70560,note_on,0,0,2,,,,,,,,,,,,,,,0,,,46,0
70560,note_on,657,0,2,,,,,,,,,,,,,,,0,,,58,0
70560,note_on,0,0,2,,,,,,,,,,,,,,,0,,,49,88
70560,set_tempo,480,1,0,,,,,,,,,,,,474308,,,,,,,
70560,note_on,120,0,1,,,,,,,,,,,,,,,0,,,65,0
70567,control_change,7,0,2,,,,,,,,,,,,,,,0,64,0,,
70623,control_change,56,0,2,,,,,,,,,,,,,,,0,64,127,,
70680,note_on,120,0,1,,,,,,,,,,,,,,,0,,,68,67
70800,note_on,0,0,1,,,,,,,,,,,,,,,0,,,77,63
70800,note_on,0,0,1,,,,,,,,,,,,,,,0,,,80,75
70800,note_on,120,0,1,,,,,,,,,,,,,,,0,,,68,0
70920,note_on,0,0,1,,,,,,,,,,,,,,,0,,,73,63
70920,note_on,0,0,2,,,,,,,,,,,,,,,0,,,37,65
70920,note_on,0,0,2,,,,,,,,,,,,,,,0,,,49,77
70920,note_on,0,0,1,,,,,,,,,,,,,,,0,,,80,0
70920,note_on,0,0,2,,,,,,,,,,,,,,,0,,,37,0
70920,note_on,297,0,2,,,,,,,,,,,,,,,0,,,49,0
70920,note_on,120,0,1,,,,,,,,,,,,,,,0,,,77,0
71040,note_on,0,0,1,,,,,,,,,,,,,,,0,,,77,67
71040,set_tempo,480,1,0,,,,,,,,,,,,493827,,,,,,,
71040,note_on,0,0,1,,,,,,,,,,,,,,,0,,,73,56
71040,note_on,120,0,2,,,,,,,,,,,,,,,0,,,37,0
71040,note_on,0,0,2,,,,,,,,,,,,,,,0,,,49,0
71040,note_on,0,0,2,,,,,,,,,,,,,,,0,,,37,71
71040,note_on,0,0,2,,,,,,,,,,,,,,,0,,,49,84
71040,note_on,120,0,1,,,,,,,,,,,,,,,0,,,73,0
71160,note_on,120,0,1,,,,,,,,,,,,,,,0,,,73,0
71160,note_on,0,0,1,,,,,,,,,,,,,,,0,,,68,63
71160,note_on,0,0,1,,,,,,,,,,,,,,,0,,,77,0
71160,note_on,120,0,2,,,,,,,,,,,,,,,0,,,49,0
71160,note_on,0,0,2,,,,,,,,,,,,,,,0,,,37,0
71280,set_tempo,240,1,0,,,,,,,,,,,,466926,,,,,,,
71280,note_on,120,0,2,,,,,,,,,,,,,,,0,,,40,75
71280,note_on,0,0,2,,,,,,,,,,,,,,,0,,,52,89
71280,note_on,120,0,1,,,,,,,,,,,,,,,0,,,68,0
71289,control_change,9,0,2,,,,,,,,,,,,,,,0,64,0,,
71354,control_change,65,0,2,,,,,,,,,,,,,,,0,64,127,,
71400,note_on,120,0,1,,,,,,,,,,,,,,,0,,,73,67
71520,note_on,0,0,1,,,,,,,,,,,,,,,0,,,82,64
71520,note_on,120,0,1,,,,,,,,,,,,,,,0,,,73,0
71520,note_on,0,0,1,,,,,,,,,,,,,,,0,,,85,76
71640,note_on,120,0,1,,,,,,,,,,,,,,,0,,,82,0
71640,note_on,0,0,1,,,,,,,,,,,,,,,0,,,85,0
71640,note_on,0,0,2,,,,,,,,,,,,,,,0,,,52,77
71640,note_on,0,0,2,,,,,,,,,,,,,,,0,,,40,65
71640,note_on,0,0,2,,,,,,,,,,,,,,,0,,,40,0
71640,note_on,286,0,2,,,,,,,,,,,,,,,0,,,52,0
71640,note_on,0,0,1,,,,,,,,,,,,,,,0,,,79,64
71760,note_on,120,0,1,,,,,,,,,,,,,,,0,,,79,0
71760,note_on,0,0,1,,,,,,,,,,,,,,,0,,,82,67
71760,note_on,120,0,2,,,,,,,,,,,,,,,0,,,40,0
71760,note_on,0,0,2,,,,,,,,,,,,,,,0,,,52,0
71760,note_on,0,0,2,,,,,,,,,,,,,,,0,,,52,80
71760,set_tempo,480,1,0,,,,,,,,,,,,510638,,,,,,,
71760,note_on,0,0,2,,,,,,,,,,,,,,,0,,,40,68
71760,note_on,0,0,1,,,,,,,,,,,,,,,0,,,79,56
71880,note_on,120,0,2,,,,,,,,,,,,,,,0,,,52,0
71880,note_on,0,0,1,,,,,,,,,,,,,,,0,,,82,0
71880,note_on,0,0,2,,,,,,,,,,,,,,,0,,,40,0
71880,note_on,120,0,1,,,,,,,,,,,,,,,0,,,79,0
71880,note_on,0,0,1,,,,,,,,,,,,,,,0,,,73,63
72000,note_on,120,0,2,,,,,,,,,,,,,,,0,,,41,72
72000,note_on,120,0,1,,,,,,,,,,,,,,,0,,,73,0
72000,note_on,0,0,2,,,,,,,,,,,,,,,0,,,53,85
72000,set_tempo,240,1,0,,,,,,,,,,,,478088,,,,,,,
72010,control_change,10,0,2,,,,,,,,,,,,,,,0,64,0,,
72057,control_change,47,0,2,,,,,,,,,,,,,,,0,64,127,,
72120,note_on,120,0,1,,,,,,,,,,,,,,,0,,,72,67
72240,note_on,0,0,1,,,,,,,,,,,,,,,0,,,79,64
72240,note_on,0,0,1,,,,,,,,,,,,,,,0,,,82,64
72240,note_on,0,0,1,,,,,,,,,,,,,,,0,,,84,76
72240,note_on,120,0,1,,,,,,,,,,,,,,,0,,,72,0
72360,note_on,0,0,2,,,,,,,,,,,,,,,0,,,41,69
72360,note_on,0,0,2,,,,,,,,,,,,,,,0,,,53,81
72360,note_on,120,0,1,,,,,,,,,,,,,,,0,,,79,0
72360,note_on,0,0,1,,,,,,,,,,,,,,,0,,,82,0
72360,note_on,0,0,1,,,,,,,,,,,,,,,0,,,72,63
72360,note_on,0,0,1,,,,,,,,,,,,,,,0,,,84,0
72360,note_on,303,0,2,,,,,,,,,,,,,,,0,,,53,0
72360,note_on,0,0,2,,,,,,,,,,,,,,,0,,,41,0
72480,note_on,120,0,2,,,,,,,,,,,,,,,0,,,41,0
72480,note_on,0,0,2,,,,,,,,,,,,,,,0,,,53,0
72480,note_on,0,0,2,,,,,,,,,,,,,,,0,,,44,70
72480,note_on,0,0,2,,,,,,,,,,,,,,,0,,,56,83
72480,set_tempo,480,1,0,,,,,,,,,,,,547945,,,,,,,
72480,note_on,0,0,1,,,,,,,,,,,,,,,0,,,77,56
72480,note_on,120,0,1,,,,,,,,,,,,,,,0,,,72,0
72480,note_on,0,0,1,,,,,,,,,,,,,,,0,,,80,67
72600,note_on,0,0,1,,,,,,,,,,,,,,,0,,,72,63
72600,note_on,120,0,1,,,,,,,,,,,,,,,0,,,77,0
72600,note_on,0,0,1,,,,,,,,,,,,,,,0,,,80,0
72600,note_on,120,0,2,,,,,,,,,,,,,,,0,,,56,0
72600,note_on,0,0,2,,,,,,,,,,,,,,,0,,,44,0
72720,note_on,120,0,1,,,,,,,,,,,,,,,0,,,72,0
72720,note_on,0,0,2,,,,,,,,,,,,,,,0,,,60,89
72720,note_on,120,0,2,,,,,,,,,,,,,,,0,,,48,75
72720,set_tempo,240,1,0,,,,,,,,,,,,502092,,,,,,,
72729,control_change,9,0,2,,,,,,,,,,,,,,,0,64,0,,
72783,control_change,54,0,2,,,,,,,,,,,,,,,0,64,127,,
72840,note_on,120,0,1,,,,,,,,,,,,,,,0,,,67,67
72960,set_tempo,240,1,0,,,,,,,,,,,,487805,,,,,,,
72960,note_on,0,0,1,,,,,,,,,,,,,,,0,,,72,65
72960,note_on,0,0,1,,,,,,,,,,,,,,,0,,,77,65
72960,note_on,0,0,1,,,,,,,,,,,,,,,0,,,79,77
72960,note_on,120,0,1,,,,,,,,,,,,,,,0,,,67,0
73080,note_on,0,0,1,,,,,,,,,,,,,,,0,,,79,0
73080,note_on,0,0,1,,,,,,,,,,,,,,,0,,,67,64
73080,note_on,120,0,1,,,,,,,,,,,,,,,0,,,72,0
73080,note_on,0,0,1,,,,,,,,,,,,,,,0,,,77,0
73200,note_on,0,0,1,,,,,,,,,,,,,,,0,,,76,67
73200,note_on,120,0,1,,,,,,,,,,,,,,,0,,,67,0
73200,note_on,0,0,1,,,,,,,,,,,,,,,0,,,72,56
73320,note_on,0,0,1,,,,,,,,,,,,,,,0,,,67,63
73320,note_on,0,0,1,,,,,,,,,,,,,,,0,,,72,0
73320,note_on,120,0,1,,,,,,,,,,,,,,,0,,,76,0
73440,note_on,120,0,1,,,,,,,,,,,,,,,0,,,67,0
73440,note_on,657,0,2,,,,,,,,,,,,,,,0,,,60,0
73440,note_on,0,0,2,,,,,,,,,,,,,,,0,,,48,0
73440,note_on,0,0,2,,,,,,,,,,,,,,,0,,,39,77
73440,set_tempo,480,1,0,,,,,,,,,,,,474308,,,,,,,
73440,note_on,0,0,2,,,,,,,,,,,,,,,0,,,51,92
73447,control_change,7,0,2,,,,,,,,,,,,,,,0,64,0,,
73503,control_change,56,0,2,,,,,,,,,,,,,,,0,64,127,,
73560,note_on,120,0,1,,,,,,,,,,,,,,,0,,,70,70
73680,note_on,120,0,1,,,,,,,,,,,,,,,0,,,70,0
73680,note_on,0,0,1,,,,,,,,,,,,,,,0,,,82,78
73680,note_on,0,0,1,,,,,,,,,,,,,,,0,,,79,66
73800,note_on,0,0,2,,,,,,,,,,,,,,,0,,,39,0
73800,note_on,0,0,2,,,,,,,,,,,,,,,0,,,51,80
73800,note_on,0,0,2,,,,,,,,,,,,,,,0,,,39,68
73800,note_on,0,0,1,,,,,,,,,,,,,,,0,,,75,66
73800,note_on,0,0,1,,,,,,,,,,,,,,,0,,,82,0
73800,note_on,120,0,1,,,,,,,,,,,,,,,0,,,79,0
73800,note_on,297,0,2,,,,,,,,,,,,,,,0,,,51,0
73920,note_on,120,0,2,,,,,,,,,,,,,,,0,,,39,0
73920,note_on,0,0,2,,,,,,,,,,,,,,,0,,,51,89
73920,note_on,0,0,2,,,,,,,,,,,,,,,0,,,51,0
73920,note_on,0,0,2,,,,,,,,,,,,,,,0,,,39,75
73920,note_on,120,0,1,,,,,,,,,,,,,,,0,,,75,0
73920,note_on,0,0,1,,,,,,,,,,,,,,,0,,,79,71
73920,note_on,0,0,1,,,,,,,,,,,,,,,0,,,75,59
73920,set_tempo,480,1,0,,,,,,,,,,,,493827,,,,,,,
74040,note_on,120,0,1,,,,,,,,,,,,,,,0,,,75,0
74040,note_on,120,0,2,,,,,,,,,,,,,,,0,,,51,0
74040,note_on,0,0,1,,,,,,,,,,,,,,,0,,,79,0
74040,note_on,0,0,2,,,,,,,,,,,,,,,0,,,39,0
74040,note_on,0,0,1,,,,,,,,,,,,,,,0,,,70,66
74160,note_on,120,0,1,,,,,,,,,,,,,,,0,,,70,0
74160,set_tempo,240,1,0,,,,,,,,,,,,466926,,,,,,,
74160,note_on,120,0,2,,,,,,,,,,,,,,,0,,,43,79
74160,note_on,0,0,2,,,,,,,,,,,,,,,0,,,55,94
74169,control_change,9,0,2,,,,,,,,,,,,,,,0,64,0,,
74234,control_change,65,0,2,,,,,,,,,,,,,,,0,64,127,,
74280,note_on,120,0,1,,,,,,,,,,,,,,,0,,,76,71
74400,note_on,0,0,1,,,,,,,,,,,,,,,0,,,88,81
74400,note_on,0,0,1,,,,,,,,,,,,,,,0,,,85,68
74400,note_on,120,0,1,,,,,,,,,,,,,,,0,,,76,0
74520,note_on,0,0,2,,,,,,,,,,,,,,,0,,,43,0
74520,note_on,286,0,2,,,,,,,,,,,,,,,0,,,55,0
74520,note_on,0,0,2,,,,,,,,,,,,,,,0,,,43,69
74520,note_on,120,0,1,,,,,,,,,,,,,,,0,,,85,0
74520,note_on,0,0,1,,,,,,,,,,,,,,,0,,,88,0
74520,note_on,0,0,1,,,,,,,,,,,,,,,0,,,82,68
74520,note_on,0,0,2,,,,,,,,,,,,,,,0,,,55,82
74640,note_on,120,0,2,,,,,,,,,,,,,,,0,,,43,0
74640,note_on,0,0,1,,,,,,,,,,,,,,,0,,,85,71
74640,note_on,0,0,2,,,,,,,,,,,,,,,0,,,55,85
74640,note_on,0,0,1,,,,,,,,,,,,,,,0,,,82,59
74640,note_on,0,0,2,,,,,,,,,,,,,,,0,,,55,0
74640,note_on,120,0,1,,,,,,,,,,,,,,,0,,,82,0
74640,set_tempo,480,1,0,,,,,,,,,,,,510638,,,,,,,
74640,note_on,0,0,2,,,,,,,,,,,,,,,0,,,43,72
74760,note_on,0,0,1,,,,,,,,,,,,,,,0,,,76,68
74760,note_on,120,0,2,,,,,,,,,,,,,,,0,,,55,0
74760,note_on,0,0,2,,,,,,,,,,,,,,,0,,,43,0
74760,note_on,0,0,1,,,,,,,,,,,,,,,0,,,85,0
74760,note_on,120,0,1,,,,,,,,,,,,,,,0,,,82,0
74880,set_tempo,240,1,0,,,,,,,,,,,,478088,,,,,,,
74880,note_on,120,0,1,,,,,,,,,,,,,,,0,,,76,0
74880,note_on,120,0,2,,,,,,,,,,,,,,,0,,,44,77
74880,note_on,0,0,2,,,,,,,,,,,,,,,0,,,56,91
74890,control_change,10,0,2,,,,,,,,,,,,,,,0,64,0,,
74937,control_change,47,0,2,,,,,,,,,,,,,,,0,64,127,,
75000,note_on,120,0,1,,,,,,,,,,,,,,,0,,,75,72
75120,note_on,0,0,1,,,,,,,,,,,,,,,0,,,87,82
75120,note_on,0,0,1,,,,,,,,,,,,,,,0,,,85,69
75120,note_on,0,0,1,,,,,,,,,,,,,,,0,,,82,69
75120,note_on,120,0,1,,,,,,,,,,,,,,,0,,,75,0
75240,note_on,0,0,2,,,,,,,,,,,,,,,0,,,44,75
75240,note_on,0,0,2,,,,,,,,,,,,,,,0,,,56,88
75240,note_on,0,0,2,,,,,,,,,,,,,,,0,,,44,0
75240,note_on,303,0,2,,,,,,,,,,,,,,,0,,,56,0
75240,note_on,120,0,1,,,,,,,,,,,,,,,0,,,82,0
75240,note_on,0,0,1,,,,,,,,,,,,,,,0,,,85,0
75240,note_on,0,0,1,,,,,,,,,,,,,,,0,,,87,0
75240,note_on,0,0,1,,,,,,,,,,,,,,,0,,,75,68
75360,set_tempo,480,1,0,,,,,,,,,,,,547945,,,,,,,
75360,note_on,120,0,1,,,,,,,,,,,,,,,0,,,75,0
75360,note_on,120,0,2,,,,,,,,,,,,,,,0,,,44,0
75360,note_on,0,0,1,,,,,,,,,,,,,,,0,,,80,61
75360,note_on,0,0,1,,,,,,,,,,,,,,,0,,,83,73
75360,note_on,0,0,2,,,,,,,,,,,,,,,0,,,56,0
75360,note_on,0,0,2,,,,,,,,,,,,,,,0,,,59,90
75360,note_on,0,0,2,,,,,,,,,,,,,,,0,,,47,76
75480,note_on,0,0,1,,,,,,,,,,,,,,,0,,,83,0
75480,note_on,0,0,1,,,,,,,,,,,,,,,0,,,75,68
75480,note_on,0,0,2,,,,,,,,,,,,,,,0,,,47,0
75480,note_on,120,0,2,,,,,,,,,,,,,,,0,,,59,0
75480,note_on,120,0,1,,,,,,,,,,,,,,,0,,,80,0
75600,set_tempo,240,1,0,,,,,,,,,,,,500000,,,,,,,
75600,note_on,0,0,2,,,,,,,,,,,,,,,0,,,63,93
75600,note_on,120,0,2,,,,,,,,,,,,,,,0,,,51,78
75600,note_on,120,0,1,,,,,,,,,,,,,,,0,,,75,0
75609,control_change,9,0,2,,,,,,,,,,,,,,,0,64,0,,
75663,control_change,54,0,2,,,,,,,,,,,,,,,0,64,127,,
75720,note_on,120,0,1,,,,,,,,,,,,,,,0,,,70,70
75840,set_tempo,240,1,0,,,,,,,,,,,,481928,,,,,,,
75840,note_on,120,0,1,,,,,,,,,,,,,,,0,,,70,0
75840,note_on,0,0,1,,,,,,,,,,,,,,,0,,,82,80
75840,note_on,0,0,1,,,,,,,,,,,,,,,0,,,80,68
75840,note_on,0,0,1,,,,,,,,,,,,,,,0,,,75,68
75960,note_on,0,0,1,,,,,,,,,,,,,,,0,,,80,0
75960,note_on,120,0,1,,,,,,,,,,,,,,,0,,,75,0
75960,note_on,0,0,1,,,,,,,,,,,,,,,0,,,70,67
75960,note_on,0,0,1,,,,,,,,,,,,,,,0,,,82,0
76080,note_on,0,0,1,,,,,,,,,,,,,,,0,,,79,70
76080,note_on,0,0,1,,,,,,,,,,,,,,,0,,,75,58
76080,note_on,120,0,1,,,,,,,,,,,,,,,0,,,70,0
76200,note_on,0,0,1,,,,,,,,,,,,,,,0,,,70,66
76200,note_on,0,0,1,,,,,,,,,,,,,,,0,,,75,0
76200,note_on,120,0,1,,,,,,,,,,,,,,,0,,,79,0
76320,note_on,0,0,1,,,,,,,,,,,,,,,0,,,79,80
76320,note_on,0,0,1,,,,,,,,,,,,,,,0,,,76,80
76320,note_on,120,0,1,,,,,,,,,,,,,,,0,,,70,0
76320,note_on,657,0,2,,,,,,,,,,,,,,,0,,,63,0
76320,note_on,0,0,2,,,,,,,,,,,,,,,0,,,51,0
76320,note_on,0,0,2,,,,,,,,,,,,,,,0,,,49,68
76320,set_tempo,480,1,0,,,,,,,,,,,,425532,,,,,,,
76320,note_on,0,0,2,,,,,,,,,,,,,,,0,,,61,81
76320,note_on,0,0,1,,,,,,,,,,,,,,,0,,,82,80
76320,note_on,0,0,1,,,,,,,,,,,,,,,0,,,88,95
76328,control_change,8,0,2,,,,,,,,,,,,,,,0,64,0,,
76402,control_change,74,0,2,,,,,,,,,,,,,,,0,64,127,,
76680,note_on,0,0,2,,,,,,,,,,,,,,,0,,,61,73
76680,note_on,278,0,2,,,,,,,,,,,,,,,0,,,61,0
76680,note_on,0,0,1,,,,,,,,,,,,,,,0,,,76,0
76680,note_on,0,0,2,,,,,,,,,,,,,,,0,,,49,0
76680,note_on,360,0,1,,,,,,,,,,,,,,,0,,,88,0
76680,note_on,0,0,1,,,,,,,,,,,,,,,0,,,88,90
76680,note_on,0,0,1,,,,,,,,,,,,,,,0,,,82,76
76680,note_on,0,0,2,,,,,,,,,,,,,,,0,,,49,62
76680,note_on,0,0,1,,,,,,,,,,,,,,,0,,,76,76
76680,note_on,0,0,1,,,,,,,,,,,,,,,0,,,82,0
76680,note_on,0,0,1,,,,,,,,,,,,,,,0,,,79,0
76680,note_on,0,0,1,,,,,,,,,,,,,,,0,,,79,76
76800,note_on,0,0,2,,,,,,,,,,,,,,,0,,,61,82
76800,set_tempo,480,1,0,,,,,,,,,,,,476190,,,,,,,
76800,note_on,0,0,2,,,,,,,,,,,,,,,0,,,49,69
76800,note_on,0,0,2,,,,,,,,,,,,,,,0,,,49,0
76800,note_on,120,0,2,,,,,,,,,,,,,,,0,,,61,0
76800,note_on,0,0,1,,,,,,,,,,,,,,,0,,,88,94
76800,note_on,0,0,1,,,,,,,,,,,,,,,0,,,76,79
76800,note_on,0,0,1,,,,,,,,,,,,,,,0,,,82,0
76800,note_on,0,0,1,,,,,,,,,,,,,,,0,,,79,0
76800,note_on,0,0,1,,,,,,,,,,,,,,,0,,,76,0
76800,note_on,120,0,1,,,,,,,,,,,,,,,0,,,88,0
76800,note_on,0,0,1,,,,,,,,,,,,,,,0,,,82,79
76800,note_on,0,0,1,,,,,,,,,,,,,,,0,,,79,79
77040,note_on,240,0,2,,,,,,,,,,,,,,,0,,,61,0
77040,note_on,0,0,2,,,,,,,,,,,,,,,0,,,49,0
77040,note_on,0,0,2,,,,,,,,,,,,,,,0,,,49,62
77040,note_on,0,0,1,,,,,,,,,,,,,,,0,,,82,80
77040,note_on,240,0,1,,,,,,,,,,,,,,,0,,,88,0
77040,note_on,0,0,2,,,,,,,,,,,,,,,0,,,61,86
77040,set_tempo,240,1,0,,,,,,,,,,,,422535,,,,,,,
77040,note_on,0,0,1,,,,,,,,,,,,,,,0,,,76,0
77040,note_on,0,0,1,,,,,,,,,,,,,,,0,,,79,0
77040,note_on,0,0,1,,,,,,,,,,,,,,,0,,,82,0
77040,note_on,0,0,1,,,,,,,,,,,,,,,0,,,76,80
77040,note_on,0,0,1,,,,,,,,,,,,,,,0,,,79,80
77040,note_on,0,0,1,,,,,,,,,,,,,,,0,,,88,95
77400,note_on,360,0,2,,,,,,,,,,,,,,,0,,,61,0
77400,note_on,0,0,2,,,,,,,,,,,,,,,0,,,61,72
77400,note_on,0,0,2,,,,,,,,,,,,,,,0,,,49,61
77400,note_on,0,0,2,,,,,,,,,,,,,,,0,,,49,0
77400,note_on,0,0,1,,,,,,,,,,,,,,,0,,,82,76
77400,note_on,0,0,1,,,,,,,,,,,,,,,0,,,79,76
77400,note_on,0,0,1,,,,,,,,,,,,,,,0,,,76,76
77400,note_on,0,0,1,,,,,,,,,,,,,,,0,,,88,90
77400,note_on,0,0,1,,,,,,,,,,,,,,,0,,,79,0
77400,note_on,0,0,1,,,,,,,,,,,,,,,0,,,76,0
77400,note_on,360,0,1,,,,,,,,,,,,,,,0,,,88,0
77400,note_on,0,0,1,,,,,,,,,,,,,,,0,,,82,0
77520,note_on,0,0,1,,,,,,,,,,,,,,,0,,,82,79
77520,note_on,120,0,1,,,,,,,,,,,,,,,0,,,88,0
77520,note_on,0,0,1,,,,,,,,,,,,,,,0,,,76,0
77520,note_on,0,0,1,,,,,,,,,,,,,,,0,,,79,0
77520,note_on,0,0,1,,,,,,,,,,,,,,,0,,,76,79
77520,note_on,0,0,1,,,,,,,,,,,,,,,0,,,79,79
77520,note_on,0,0,1,,,,,,,,,,,,,,,0,,,88,94
77520,note_on,0,0,1,,,,,,,,,,,,,,,0,,,82,0
77520,note_on,0,0,2,,,,,,,,,,,,,,,0,,,49,67
77520,note_on,120,0,2,,,,,,,,,,,,,,,0,,,61,0
77520,note_on,0,0,2,,,,,,,,,,,,,,,0,,,49,0
77520,note_on,0,0,2,,,,,,,,,,,,,,,0,,,61,79
77520,set_tempo,480,1,0,,,,,,,,,,,,476190,,,,,,,
77760,note_on,0,0,2,,,,,,,,,,,,,,,0,,,61,89
77760,note_on,0,0,2,,,,,,,,,,,,,,,0,,,49,89
77760,note_on,0,0,2,,,,,,,,,,,,,,,0,,,49,0
77760,note_on,240,0,1,,,,,,,,,,,,,,,0,,,88,0
77760,note_on,0,0,1,,,,,,,,,,,,,,,0,,,76,0
77760,note_on,0,0,1,,,,,,,,,,,,,,,0,,,79,0
77760,note_on,0,0,1,,,,,,,,,,,,,,,0,,,82,0
77760,note_on,0,0,1,,,,,,,,,,,,,,,0,,,76,62
77760,note_on,0,0,1,,,,,,,,,,,,,,,0,,,82,62
77760,note_on,0,0,1,,,,,,,,,,,,,,,0,,,79,62
77760,note_on,240,0,2,,,,,,,,,,,,,,,0,,,61,0
77760,note_on,0,0,1,,,,,,,,,,,,,,,0,,,88,74
77760,control_change,0,0,2,,,,,,,,,,,,,,,0,64,0,,
77803,control_change,43,0,2,,,,,,,,,,,,,,,0,64,127,,
77840,note_on,0,0,1,,,,,,,,,,,,,,,0,,,79,0
77840,note_on,0,0,1,,,,,,,,,,,,,,,0,,,82,0
77840,set_tempo,320,1,0,,,,,,,,,,,,447761,,,,,,,
77840,note_on,0,0,1,,,,,,,,,,,,,,,0,,,85,67
77840,note_on,80,0,1,,,,,,,,,,,,,,,0,,,88,0
77840,note_on,0,0,1,,,,,,,,,,,,,,,0,,,76,0
77920,set_tempo,80,1,0,,,,,,,,,,,,446097,,,,,,,
77920,note_on,80,0,1,,,,,,,,,,,,,,,0,,,85,0
77920,note_on,0,0,1,,,,,,,,,,,,,,,0,,,82,66
78000,note_on,80,0,1,,,,,,,,,,,,,,,0,,,82,0
78000,note_on,0,0,1,,,,,,,,,,,,,,,0,,,79,65
78020,set_tempo,100,1,0,,,,,,,,,,,,444444,,,,,,,
78080,note_on,80,0,1,,,,,,,,,,,,,,,0,,,79,0
78080,note_on,0,0,1,,,,,,,,,,,,,,,0,,,76,65
78100,set_tempo,80,1,0,,,,,,,,,,,,442804,,,,,,,
78120,note_on,0,0,2,,,,,,,,,,,,,,,0,,,49,0
78120,note_on,0,0,2,,,,,,,,,,,,,,,0,,,37,78
78120,note_on,0,0,2,,,,,,,,,,,,,,,0,,,49,78
78120,note_on,317,0,2,,,,,,,,,,,,,,,0,,,61,0
78160,note_on,0,0,1,,,,,,,,,,,,,,,0,,,73,64
78160,note_on,80,0,1,,,,,,,,,,,,,,,0,,,76,0
78200,set_tempo,100,1,0,,,,,,,,,,,,441176,,,,,,,
78240,note_on,0,0,1,,,,,,,,,,,,,,,0,,,70,63
78240,note_on,80,0,1,,,,,,,,,,,,,,,0,,,73,0
78240,note_on,0,0,2,,,,,,,,,,,,,,,0,,,49,86
78240,note_on,0,0,2,,,,,,,,,,,,,,,0,,,37,86
78240,note_on,120,0,2,,,,,,,,,,,,,,,0,,,49,0
78240,note_on,0,0,2,,,,,,,,,,,,,,,0,,,37,0
78280,set_tempo,80,1,0,,,,,,,,,,,,439560,,,,,,,
78320,note_on,0,0,1,,,,,,,,,,,,,,,0,,,67,63
78320,note_on,80,0,1,,,,,,,,,,,,,,,0,,,70,0
78380,set_tempo,100,1,0,,,,,,,,,,,,437956,,,,,,,
78400,note_on,80,0,1,,,,,,,,,,,,,,,0,,,67,0
78400,note_on,0,0,1,,,,,,,,,,,,,,,0,,,64,63
78460,set_tempo,80,1,0,,,,,,,,,,,,436364,,,,,,,
78480,note_on,0,0,1,,,,,,,,,,,,,,,0,,,61,63
78480,note_on,80,0,1,,,,,,,,,,,,,,,0,,,64,0
78560,note_on,80,0,1,,,,,,,,,,,,,,,0,,,61,0
78560,note_on,0,0,1,,,,,,,,,,,,,,,0,,,64,62
78580,set_tempo,120,1,0,,,,,,,,,,,,437956,,,,,,,
78640,note_on,80,0,1,,,,,,,,,,,,,,,0,,,64,0
78640,note_on,0,0,1,,,,,,,,,,,,,,,0,,,67,63
78680,set_tempo,100,1,0,,,,,,,,,,,,439560,,,,,,,
78720,note_on,80,0,1,,,,,,,,,,,,,,,0,,,67,0
78720,note_on,0,0,1,,,,,,,,,,,,,,,0,,,70,63
78780,set_tempo,100,1,0,,,,,,,,,,,,441176,,,,,,,
78800,note_on,0,0,1,,,,,,,,,,,,,,,0,,,73,64
78800,note_on,80,0,1,,,,,,,,,,,,,,,0,,,70,0
78880,note_on,0,0,1,,,,,,,,,,,,,,,0,,,76,65
78880,note_on,80,0,1,,,,,,,,,,,,,,,0,,,73,0
78900,set_tempo,120,1,0,,,,,,,,,,,,442804,,,,,,,
78960,note_on,80,0,1,,,,,,,,,,,,,,,0,,,76,0
78960,note_on,0,0,1,,,,,,,,,,,,,,,0,,,79,66
79000,set_tempo,100,1,0,,,,,,,,,,,,444444,,,,,,,
79040,note_on,0,0,1,,,,,,,,,,,,,,,0,,,82,67
79040,note_on,80,0,1,,,,,,,,,,,,,,,0,,,79,0
79100,set_tempo,100,1,0,,,,,,,,,,,,446097,,,,,,,
79120,note_on,80,0,1,,,,,,,,,,,,,,,0,,,82,0
79120,note_on,0,0,1,,,,,,,,,,,,,,,0,,,85,70
79200,note_on,80,0,1,,,,,,,,,,,,,,,0,,,85,0
79200,note_on,0,0,1,,,,,,,,,,,,,,,0,,,77,80
79200,note_on,0,0,1,,,,,,,,,,,,,,,0,,,83,80
79200,set_tempo,100,1,0,,,,,,,,,,,,427046,,,,,,,
79200,note_on,0,0,1,,,,,,,,,,,,,,,0,,,89,95
79200,note_on,0,0,1,,,,,,,,,,,,,,,0,,,80,80
79200,note_on,0,0,2,,,,,,,,,,,,,,,0,,,37,0
79200,note_on,960,0,2,,,,,,,,,,,,,,,0,,,49,0
79200,note_on,0,0,2,,,,,,,,,,,,,,,0,,,50,68
79200,note_on,0,0,2,,,,,,,,,,,,,,,0,,,62,81
79208,control_change,8,0,2,,,,,,,,,,,,,,,0,64,0,,
79282,control_change,74,0,2,,,,,,,,,,,,,,,0,64,127,,
79560,note_on,0,0,1,,,,,,,,,,,,,,,0,,,89,90
79560,note_on,0,0,1,,,,,,,,,,,,,,,0,,,83,76
79560,note_on,0,0,1,,,,,,,,,,,,,,,0,,,80,76
79560,note_on,0,0,1,,,,,,,,,,,,,,,0,,,77,76
79560,note_on,0,0,1,,,,,,,,,,,,,,,0,,,83,0
79560,note_on,0,0,1,,,,,,,,,,,,,,,0,,,77,0
79560,note_on,360,0,1,,,,,,,,,,,,,,,0,,,89,0
79560,note_on,0,0,1,,,,,,,,,,,,,,,0,,,80,0
79560,note_on,0,0,2,,,,,,,,,,,,,,,0,,,50,0
79560,note_on,0,0,2,,,,,,,,,,,,,,,0,,,50,62
79560,note_on,0,0,2,,,,,,,,,,,,,,,0,,,62,73
79560,note_on,278,0,2,,,,,,,,,,,,,,,0,,,62,0
79680,note_on,0,0,1,,,,,,,,,,,,,,,0,,,77,0
79680,note_on,120,0,1,,,,,,,,,,,,,,,0,,,89,0
79680,note_on,0,0,1,,,,,,,,,,,,,,,0,,,77,79
79680,set_tempo,480,1,0,,,,,,,,,,,,476190,,,,,,,
79680,note_on,0,0,1,,,,,,,,,,,,,,,0,,,80,79
79680,note_on,0,0,2,,,,,,,,,,,,,,,0,,,62,82
79680,note_on,0,0,1,,,,,,,,,,,,,,,0,,,83,79
79680,note_on,0,0,2,,,,,,,,,,,,,,,0,,,50,69
79680,note_on,0,0,2,,,,,,,,,,,,,,,0,,,50,0
79680,note_on,120,0,2,,,,,,,,,,,,,,,0,,,62,0
79680,note_on,0,0,1,,,,,,,,,,,,,,,0,,,89,94
79680,note_on,0,0,1,,,,,,,,,,,,,,,0,,,80,0
79680,note_on,0,0,1,,,,,,,,,,,,,,,0,,,83,0
79920,note_on,0,0,1,,,,,,,,,,,,,,,0,,,77,80
79920,note_on,0,0,1,,,,,,,,,,,,,,,0,,,83,0
79920,note_on,0,0,1,,,,,,,,,,,,,,,0,,,80,0
79920,note_on,0,0,1,,,,,,,,,,,,,,,0,,,80,80
79920,note_on,0,0,1,,,,,,,,,,,,,,,0,,,77,0
79920,note_on,0,0,1,,,,,,,,,,,,,,,0,,,83,80
79920,note_on,0,0,2,,,,,,,,,,,,,,,0,,,62,86
79920,note_on,240,0,2,,,,,,,,,,,,,,,0,,,62,0
79920,note_on,0,0,2,,,,,,,,,,,,,,,0,,,50,0
79920,set_tempo,240,1,0,,,,,,,,,,,,424028,,,,,,,
79920,note_on,240,0,1,,,,,,,,,,,,,,,0,,,89,0
79920,note_on,0,0,1,,,,,,,,,,,,,,,0,,,89,95
79920,note_on,0,0,2,,,,,,,,,,,,,,,0,,,50,62
80280,note_on,0,0,1,,,,,,,,,,,,,,,0,,,77,76
80280,note_on,0,0,1,,,,,,,,,,,,,,,0,,,83,0
80280,note_on,0,0,1,,,,,,,,,,,,,,,0,,,80,0
80280,note_on,0,0,1,,,,,,,,,,,,,,,0,,,77,0
80280,note_on,360,0,2,,,,,,,,,,,,,,,0,,,62,0
80280,note_on,360,0,1,,,,,,,,,,,,,,,0,,,89,0
80280,note_on,0,0,2,,,,,,,,,,,,,,,0,,,50,0
80280,note_on,0,0,2,,,,,,,,,,,,,,,0,,,50,61
80280,note_on,0,0,1,,,,,,,,,,,,,,,0,,,83,76
80280,note_on,0,0,2,,,,,,,,,,,,,,,0,,,62,72
80280,note_on,0,0,1,,,,,,,,,,,,,,,0,,,89,90
80280,note_on,0,0,1,,,,,,,,,,,,,,,0,,,80,76
80400,note_on,120,0,1,,,,,,,,,,,,,,,0,,,89,0
80400,note_on,0,0,1,,,,,,,,,,,,,,,0,,,77,0
80400,note_on,0,0,1,,,,,,,,,,,,,,,0,,,80,0
80400,note_on,0,0,1,,,,,,,,,,,,,,,0,,,83,0
80400,note_on,0,0,1,,,,,,,,,,,,,,,0,,,77,79
80400,note_on,0,0,1,,,,,,,,,,,,,,,0,,,80,79
80400,note_on,0,0,1,,,,,,,,,,,,,,,0,,,89,94
80400,note_on,0,0,1,,,,,,,,,,,,,,,0,,,83,79
80400,note_on,120,0,2,,,,,,,,,,,,,,,0,,,62,0
80400,note_on,0,0,2,,,,,,,,,,,,,,,0,,,50,0
80400,note_on,0,0,2,,,,,,,,,,,,,,,0,,,50,67
80400,note_on,0,0,2,,,,,,,,,,,,,,,0,,,62,79
80400,set_tempo,480,1,0,,,,,,,,,,,,476190,,,,,,,
80640,note_on,240,0,2,,,,,,,,,,,,,,,0,,,62,0
80640,note_on,0,0,2,,,,,,,,,,,,,,,0,,,50,0
80640,note_on,0,0,2,,,,,,,,,,,,,,,0,,,50,89
80640,note_on,240,0,1,,,,,,,,,,,,,,,0,,,89,0
80640,note_on,0,0,1,,,,,,,,,,,,,,,0,,,77,0
80640,note_on,0,0,1,,,,,,,,,,,,,,,0,,,80,0
80640,note_on,0,0,1,,,,,,,,,,,,,,,0,,,83,0
80640,note_on,0,0,1,,,,,,,,,,,,,,,0,,,77,62
80640,note_on,0,0,1,,,,,,,,,,,,,,,0,,,80,62
80640,note_on,0,0,1,,,,,,,,,,,,,,,0,,,89,74
80640,note_on,0,0,2,,,,,,,,,,,,,,,0,,,62,89
80640,control_change,0,0,2,,,,,,,,,,,,,,,0,64,0,,
80683,control_change,43,0,2,,,,,,,,,,,,,,,0,64,127,,
80720,note_on,0,0,1,,,,,,,,,,,,,,,0,,,77,0
80720,note_on,80,0,1,,,,,,,,,,,,,,,0,,,89,0
80720,note_on,0,0,1,,,,,,,,,,,,,,,0,,,80,0
80720,note_on,0,0,1,,,,,,,,,,,,,,,0,,,83,67
80720,set_tempo,320,1,0,,,,,,,,,,,,447761,,,,,,,
80800,set_tempo,80,1,0,,,,,,,,,,,,446097,,,,,,,
80800,note_on,0,0,1,,,,,,,,,,,,,,,0,,,80,66
80800,note_on,80,0,1,,,,,,,,,,,,,,,0,,,83,0
80880,note_on,0,0,1,,,,,,,,,,,,,,,0,,,77,65
80880,note_on,80,0,1,,,,,,,,,,,,,,,0,,,80,0
80900,set_tempo,100,1,0,,,,,,,,,,,,444444,,,,,,,
80960,note_on,0,0,1,,,,,,,,,,,,,,,0,,,71,65
80960,note_on,80,0,1,,,,,,,,,,,,,,,0,,,77,0
80980,set_tempo,80,1,0,,,,,,,,,,,,442804,,,,,,,
81000,note_on,317,0,2,,,,,,,,,,,,,,,0,,,62,0
81000,note_on,0,0,2,,,,,,,,,,,,,,,0,,,50,0
81000,note_on,0,0,2,,,,,,,,,,,,,,,0,,,50,78
81000,note_on,0,0,2,,,,,,,,,,,,,,,0,,,38,78
81040,note_on,80,0,1,,,,,,,,,,,,,,,0,,,71,0
81040,note_on,0,0,1,,,,,,,,,,,,,,,0,,,68,64
81080,set_tempo,100,1,0,,,,,,,,,,,,441176,,,,,,,
81120,note_on,120,0,2,,,,,,,,,,,,,,,0,,,50,0
81120,note_on,0,0,2,,,,,,,,,,,,,,,0,,,38,0
81120,note_on,0,0,2,,,,,,,,,,,,,,,0,,,38,86
81120,note_on,80,0,1,,,,,,,,,,,,,,,0,,,68,0
81120,note_on,0,0,1,,,,,,,,,,,,,,,0,,,65,63
81120,note_on,0,0,2,,,,,,,,,,,,,,,0,,,50,86
81160,set_tempo,80,1,0,,,,,,,,,,,,439560,,,,,,,
81200,note_on,80,0,1,,,,,,,,,,,,,,,0,,,65,0
81200,note_on,0,0,1,,,,,,,,,,,,,,,0,,,59,63
81260,set_tempo,100,1,0,,,,,,,,,,,,437956,,,,,,,
81280,note_on,0,0,1,,,,,,,,,,,,,,,0,,,56,63
81280,note_on,80,0,1,,,,,,,,,,,,,,,0,,,59,0
81340,set_tempo,80,1,0,,,,,,,,,,,,436364,,,,,,,
81360,note_on,80,0,1,,,,,,,,,,,,,,,0,,,56,0
81360,note_on,0,0,1,,,,,,,,,,,,,,,0,,,53,63
81440,note_on,80,0,1,,,,,,,,,,,,,,,0,,,53,0
81440,note_on,0,0,1,,,,,,,,,,,,,,,0,,,56,62
81460,set_tempo,120,1,0,,,,,,,,,,,,437956,,,,,,,
81520,note_on,80,0,1,,,,,,,,,,,,,,,0,,,56,0
81520,note_on,0,0,1,,,,,,,,,,,,,,,0,,,59,63
81560,set_tempo,100,1,0,,,,,,,,,,,,439560,,,,,,,
81600,note_on,80,0,1,,,,,,,,,,,,,,,0,,,59,0
81600,note_on,0,0,1,,,,,,,,,,,,,,,0,,,65,63
81660,set_tempo,100,1,0,,,,,,,,,,,,441176,,,,,,,
81680,note_on,80,0,1,,,,,,,,,,,,,,,0,,,65,0
81680,note_on,0,0,1,,,,,,,,,,,,,,,0,,,68,64
81760,note_on,80,0,1,,,,,,,,,,,,,,,0,,,68,0
81760,note_on,0,0,1,,,,,,,,,,,,,,,0,,,71,65
81780,set_tempo,120,1,0,,,,,,,,,,,,442804,,,,,,,
81840,note_on,0,0,1,,,,,,,,,,,,,,,0,,,77,66
81840,note_on,80,0,1,,,,,,,,,,,,,,,0,,,71,0
81880,set_tempo,100,1,0,,,,,,,,,,,,444444,,,,,,,
81920,note_on,80,0,1,,,,,,,,,,,,,,,0,,,77,0
81920,note_on,0,0,1,,,,,,,,,,,,,,,0,,,80,67
81980,set_tempo,100,1,0,,,,,,,,,,,,446097,,,,,,,
82000,note_on,80,0,1,,,,,,,,,,,,,,,0,,,80,0
82000,note_on,0,0,1,,,,,,,,,,,,,,,0,,,83,70
82080,note_on,0,0,1,,,,,,,,,,,,,,,0,,,86,80
82080,note_on,0,0,1,,,,,,,,,,,,,,,0,,,83,80
82080,note_on,0,0,2,,,,,,,,,,,,,,,0,,,64,81
82080,note_on,0,0,2,,,,,,,,,,,,,,,0,,,52,68
82080,note_on,0,0,2,,,,,,,,,,,,,,,0,,,38,0
82080,note_on,960,0,2,,,,,,,,,,,,,,,0,,,50,0
82080,note_on,80,0,1,,,,,,,,,,,,,,,0,,,83,0
82080,note_on,0,0,1,,,,,,,,,,,,,,,0,,,92,95
82080,set_tempo,100,1,0,,,,,,,,,,,,425532,,,,,,,
82080,note_on,0,0,1,,,,,,,,,,,,,,,0,,,80,80
82088,control_change,8,0,2,,,,,,,,,,,,,,,0,64,0,,
82162,control_change,74,0,2,,,,,,,,,,,,,,,0,64,127,,
82440,note_on,0,0,2,,,,,,,,,,,,,,,0,,,52,0
82440,note_on,278,0,2,,,,,,,,,,,,,,,0,,,64,0
82440,note_on,0,0,2,,,,,,,,,,,,,,,0,,,52,62
82440,note_on,0,0,1,,,,,,,,,,,,,,,0,,,86,0
82440,note_on,0,0,2,,,,,,,,,,,,,,,0,,,64,73
82440,note_on,360,0,1,,,,,,,,,,,,,,,0,,,92,0
82440,note_on,0,0,1,,,,,,,,,,,,,,,0,,,80,0
82440,note_on,0,0,1,,,,,,,,,,,,,,,0,,,83,0
82440,note_on,0,0,1,,,,,,,,,,,,,,,0,,,80,76
82440,note_on,0,0,1,,,,,,,,,,,,,,,0,,,83,76
82440,note_on,0,0,1,,,,,,,,,,,,,,,0,,,86,76
82440,note_on,0,0,1,,,,,,,,,,,,,,,0,,,92,90
82560,note_on,0,0,2,,,,,,,,,,,,,,,0,,,52,0
82560,note_on,0,0,2,,,,,,,,,,,,,,,0,,,52,69
82560,note_on,0,0,2,,,,,,,,,,,,,,,0,,,64,82
82560,note_on,0,0,1,,,,,,,,,,,,,,,0,,,92,94
82560,note_on,0,0,1,,,,,,,,,,,,,,,0,,,86,79
82560,note_on,0,0,1,,,,,,,,,,,,,,,0,,,83,79
82560,note_on,0,0,1,,,,,,,,,,,,,,,0,,,80,0
82560,note_on,0,0,1,,,,,,,,,,,,,,,0,,,86,0
82560,note_on,0,0,1,,,,,,,,,,,,,,,0,,,83,0
82560,set_tempo,480,1,0,,,,,,,,,,,,476190,,,,,,,
82560,note_on,120,0,1,,,,,,,,,,,,,,,0,,,92,0
82560,note_on,120,0,2,,,,,,,,,,,,,,,0,,,64,0
82560,note_on,0,0,1,,,,,,,,,,,,,,,0,,,80,79
82800,set_tempo,240,1,0,,,,,,,,,,,,422535,,,,,,,
82800,note_on,240,0,1,,,,,,,,,,,,,,,0,,,92,0
82800,note_on,0,0,2,,,,,,,,,,,,,,,0,,,52,0
82800,note_on,0,0,1,,,,,,,,,,,,,,,0,,,80,0
82800,note_on,0,0,1,,,,,,,,,,,,,,,0,,,92,95
82800,note_on,0,0,1,,,,,,,,,,,,,,,0,,,86,80
82800,note_on,0,0,1,,,,,,,,,,,,,,,0,,,83,80
82800,note_on,0,0,1,,,,,,,,,,,,,,,0,,,80,80
82800,note_on,0,0,1,,,,,,,,,,,,,,,0,,,86,0
82800,note_on,0,0,1,,,,,,,,,,,,,,,0,,,83,0
82800,note_on,240,0,2,,,,,,,,,,,,,,,0,,,64,0
82800,note_on,0,0,2,,,,,,,,,,,,,,,0,,,52,62
82800,note_on,0,0,2,,,,,,,,,,,,,,,0,,,64,86
83160,note_on,0,0,1,,,,,,,,,,,,,,,0,,,80,76
83160,note_on,0,0,1,,,,,,,,,,,,,,,0,,,92,90
83160,note_on,0,0,1,,,,,,,,,,,,,,,0,,,86,76
83160,note_on,0,0,1,,,,,,,,,,,,,,,0,,,83,76
83160,note_on,0,0,1,,,,,,,,,,,,,,,0,,,86,0
83160,note_on,0,0,1,,,,,,,,,,,,,,,0,,,83,0
83160,note_on,0,0,1,,,,,,,,,,,,,,,0,,,80,0
83160,note_on,360,0,2,,,,,,,,,,,,,,,0,,,64,0
83160,note_on,0,0,2,,,,,,,,,,,,,,,0,,,52,0
83160,note_on,0,0,2,,,,,,,,,,,,,,,0,,,52,61
83160,note_on,0,0,2,,,,,,,,,,,,,,,0,,,64,72
83160,note_on,360,0,1,,,,,,,,,,,,,,,0,,,92,0
83280,note_on,0,0,1,,,,,,,,,,,,,,,0,,,92,94
83280,note_on,0,0,1,,,,,,,,,,,,,,,0,,,86,79
83280,note_on,0,0,1,,,,,,,,,,,,,,,0,,,83,79
83280,note_on,0,0,1,,,,,,,,,,,,,,,0,,,80,79
83280,note_on,0,0,1,,,,,,,,,,,,,,,0,,,86,0
83280,note_on,0,0,1,,,,,,,,,,,,,,,0,,,80,0
83280,note_on,120,0,1,,,,,,,,,,,,,,,0,,,92,0
83280,note_on,0,0,2,,,,,,,,,,,,,,,0,,,64,79
83280,note_on,120,0,2,,,,,,,,,,,,,,,0,,,64,0
83280,note_on,0,0,2,,,,,,,,,,,,,,,0,,,52,0
83280,set_tempo,480,1,0,,,,,,,,,,,,476190,,,,,,,
83280,note_on,0,0,1,,,,,,,,,,,,,,,0,,,83,0
83280,note_on,0,0,2,,,,,,,,,,,,,,,0,,,52,67
83520,note_on,240,0,1,,,,,,,,,,,,,,,0,,,92,0
83520,note_on,0,0,1,,,,,,,,,,,,,,,0,,,80,0
83520,note_on,0,0,1,,,,,,,,,,,,,,,0,,,80,62
83520,note_on,240,0,2,,,,,,,,,,,,,,,0,,,64,0
83520,note_on,0,0,2,,,,,,,,,,,,,,,0,,,52,0
83520,note_on,0,0,2,,,,,,,,,,,,,,,0,,,52,89
83520,note_on,0,0,2,,,,,,,,,,,,,,,0,,,64,89
83520,note_on,0,0,1,,,,,,,,,,,,,,,0,,,86,0
83520,control_change,0,0,2,,,,,,,,,,,,,,,0,64,0,,
83520,note_on,0,0,1,,,,,,,,,,,,,,,0,,,83,62
83520,note_on,0,0,1,,,,,,,,,,,,,,,0,,,92,74
83520,note_on,0,0,1,,,,,,,,,,,,,,,0,,,83,0
83563,control_change,43,0,2,,,,,,,,,,,,,,,0,64,127,,
83600,set_tempo,320,1,0,,,,,,,,,,,,447761,,,,,,,
83600,note_on,80,0,1,,,,,,,,,,,,,,,0,,,92,0
83600,note_on,0,0,1,,,,,,,,,,,,,,,0,,,80,0
83600,note_on,0,0,1,,,,,,,,,,,,,,,0,,,86,67
83600,note_on,0,0,1,,,,,,,,,,,,,,,0,,,83,0
83680,note_on,80,0,1,,,,,,,,,,,,,,,0,,,86,0
83680,note_on,0,0,1,,,,,,,,,,,,,,,0,,,83,66
83680,set_tempo,80,1,0,,,,,,,,,,,,446097,,,,,,,
83760,note_on,80,0,1,,,,,,,,,,,,,,,0,,,83,0
83760,note_on,0,0,1,,,,,,,,,,,,,,,0,,,80,65
83780,set_tempo,100,1,0,,,,,,,,,,,,444444,,,,,,,
83840,note_on,80,0,1,,,,,,,,,,,,,,,0,,,80,0
83840,note_on,0,0,1,,,,,,,,,,,,,,,0,,,74,65
83860,set_tempo,80,1,0,,,,,,,,,,,,442804,,,,,,,
83880,note_on,317,0,2,,,,,,,,,,,,,,,0,,,64,0
83880,note_on,0,0,2,,,,,,,,,,,,,,,0,,,52,78
83880,note_on,0,0,2,,,,,,,,,,,,,,,0,,,40,78
83880,note_on,0,0,2,,,,,,,,,,,,,,,0,,,52,0
83920,note_on,80,0,1,,,,,,,,,,,,,,,0,,,74,0
83920,note_on,0,0,1,,,,,,,,,,,,,,,0,,,71,64
83960,set_tempo,100,1,0,,,,,,,,,,,,441176,,,,,,,
84000,note_on,0,0,2,,,,,,,,,,,,,,,0,,,40,0
84000,note_on,120,0,2,,,,,,,,,,,,,,,0,,,52,0
84000,note_on,0,0,2,,,,,,,,,,,,,,,0,,,40,86
84000,note_on,0,0,2,,,,,,,,,,,,,,,0,,,52,86
84000,note_on,0,0,1,,,,,,,,,,,,,,,0,,,68,63
84000,note_on,80,0,1,,,,,,,,,,,,,,,0,,,71,0
84040,set_tempo,80,1,0,,,,,,,,,,,,439560,,,,,,,
84080,note_on,80,0,1,,,,,,,,,,,,,,,0,,,68,0
84080,note_on,0,0,1,,,,,,,,,,,,,,,0,,,62,63
84140,set_tempo,100,1,0,,,,,,,,,,,,437956,,,,,,,
84160,note_on,80,0,1,,,,,,,,,,,,,,,0,,,62,0
84160,note_on,0,0,1,,,,,,,,,,,,,,,0,,,59,63
84220,set_tempo,80,1,0,,,,,,,,,,,,436364,,,,,,,
84240,note_on,80,0,1,,,,,,,,,,,,,,,0,,,59,0
84240,note_on,0,0,1,,,,,,,,,,,,,,,0,,,56,63
84320,note_on,0,0,1,,,,,,,,,,,,,,,0,,,59,62
84320,note_on,80,0,1,,,,,,,,,,,,,,,0,,,56,0
84340,set_tempo,120,1,0,,,,,,,,,,,,437956,,,,,,,
84400,note_on,80,0,1,,,,,,,,,,,,,,,0,,,59,0
84400,note_on,0,0,1,,,,,,,,,,,,,,,0,,,62,63
84440,set_tempo,100,1,0,,,,,,,,,,,,439560,,,,,,,
84480,note_on,0,0,1,,,,,,,,,,,,,,,0,,,68,63
84480,note_on,80,0,1,,,,,,,,,,,,,,,0,,,62,0
84540,set_tempo,100,1,0,,,,,,,,,,,,441176,,,,,,,
84560,note_on,0,0,1,,,,,,,,,,,,,,,0,,,71,64
84560,note_on,80,0,1,,,,,,,,,,,,,,,0,,,68,0
84640,note_on,0,0,1,,,,,,,,,,,,,,,0,,,74,65
84640,note_on,80,0,1,,,,,,,,,,,,,,,0,,,71,0
84660,set_tempo,120,1,0,,,,,,,,,,,,442804,,,,,,,
84720,note_on,0,0,1,,,,,,,,,,,,,,,0,,,80,66
84720,note_on,80,0,1,,,,,,,,,,,,,,,0,,,74,0
84760,set_tempo,100,1,0,,,,,,,,,,,,444444,,,,,,,
84800,note_on,80,0,1,,,,,,,,,,,,,,,0,,,80,0
84800,note_on,0,0,1,,,,,,,,,,,,,,,0,,,83,67
84860,set_tempo,100,1,0,,,,,,,,,,,,446097,,,,,,,
84880,set_tempo,20,1,0,,,,,,,,,,,,558140,,,,,,,
84880,note_on,80,0,1,,,,,,,,,,,,,,,0,,,83,0
84880,note_on,0,0,1,,,,,,,,,,,,,,,0,,,92,70
84960,note_on,80,0,1,,,,,,,,,,,,,,,0,,,92,0
84960,note_on,0,0,1,,,,,,,,,,,,,,,0,,,75,80
84960,note_on,0,0,1,,,,,,,,,,,,,,,0,,,79,80
84960,note_on,0,0,1,,,,,,,,,,,,,,,0,,,82,80
84960,note_on,960,0,2,,,,,,,,,,,,,,,0,,,52,0
84960,note_on,0,0,2,,,,,,,,,,,,,,,0,,,40,0
84960,note_on,0,0,2,,,,,,,,,,,,,,,0,,,63,81
84960,note_on,0,0,2,,,,,,,,,,,,,,,0,,,55,68
84960,note_on,0,0,2,,,,,,,,,,,,,,,0,,,51,68
84960,note_on,0,0,2,,,,,,,,,,,,,,,0,,,58,68
84960,set_tempo,80,1,0,,,,,,,,,,,,424028,,,,,,,
84960,note_on,0,0,1,,,,,,,,,,,,,,,0,,,87,95
84968,control_change,8,0,2,,,,,,,,,,,,,,,0,64,0,,
85137,control_change,169,0,2,,,,,,,,,,,,,,,0,64,127,,
85320,note_on,0,0,2,,,,,,,,,,,,,,,0,,,55,0
85320,note_on,360,0,1,,,,,,,,,,,,,,,0,,,87,0
85320,note_on,0,0,1,,,,,,,,,,,,,,,0,,,75,0
85320,note_on,0,0,1,,,,,,,,,,,,,,,0,,,82,0
85320,note_on,0,0,1,,,,,,,,,,,,,,,0,,,75,90
85320,note_on,183,0,2,,,,,,,,,,,,,,,0,,,63,0
85320,note_on,0,0,2,,,,,,,,,,,,,,,0,,,58,0
85320,note_on,0,0,2,,,,,,,,,,,,,,,0,,,51,0
85320,note_on,0,0,2,,,,,,,,,,,,,,,0,,,63,73
85320,note_on,0,0,1,,,,,,,,,,,,,,,0,,,79,0
85440,note_on,120,0,2,,,,,,,,,,,,,,,0,,,63,0
85440,note_on,0,0,2,,,,,,,,,,,,,,,0,,,63,82
85440,note_on,0,0,1,,,,,,,,,,,,,,,0,,,75,94
85440,set_tempo,480,1,0,,,,,,,,,,,,476190,,,,,,,
85440,note_on,120,0,1,,,,,,,,,,,,,,,0,,,75,0
85560,note_on,120,0,1,,,,,,,,,,,,,,,0,,,75,0
85560,note_on,120,0,2,,,,,,,,,,,,,,,0,,,63,0
85581,control_change,21,0,2,,,,,,,,,,,,,,,0,64,0,,
85680,note_on,99,0,2,,,,,,,,,,,,,,,0,,,59,68
85680,note_on,0,0,2,,,,,,,,,,,,,,,0,,,51,68
85680,note_on,0,0,2,,,,,,,,,,,,,,,0,,,63,81
85680,note_on,0,0,2,,,,,,,,,,,,,,,0,,,56,68
85680,note_on,0,0,1,,,,,,,,,,,,,,,0,,,87,95
85680,note_on,0,0,1,,,,,,,,,,,,,,,0,,,83,80
85680,note_on,0,0,1,,,,,,,,,,,,,,,0,,,80,80
85680,note_on,120,0,1,,,,,,,,,,,,,,,0,,,75,80
85680,set_tempo,240,1,0,,,,,,,,,,,,422535,,,,,,,
85857,control_change,177,0,2,,,,,,,,,,,,,,,0,64,127,,
86040,note_on,0,0,2,,,,,,,,,,,,,,,0,,,59,0
86040,note_on,183,0,2,,,,,,,,,,,,,,,0,,,63,0
86040,note_on,0,0,2,,,,,,,,,,,,,,,0,,,56,0
86040,note_on,0,0,2,,,,,,,,,,,,,,,0,,,63,73
86040,note_on,0,0,2,,,,,,,,,,,,,,,0,,,51,0
86040,note_on,0,0,1,,,,,,,,,,,,,,,0,,,75,90
86040,note_on,0,0,1,,,,,,,,,,,,,,,0,,,83,0
86040,note_on,0,0,1,,,,,,,,,,,,,,,0,,,80,0
86040,note_on,0,0,1,,,,,,,,,,,,,,,0,,,75,0
86040,note_on,360,0,1,,,,,,,,,,,,,,,0,,,87,0
86160,note_on,0,0,2,,,,,,,,,,,,,,,0,,,63,82
86160,note_on,0,0,1,,,,,,,,,,,,,,,0,,,75,94
86160,note_on,120,0,1,,,,,,,,,,,,,,,0,,,75,0
86160,set_tempo,480,1,0,,,,,,,,,,,,476190,,,,,,,
86160,note_on,120,0,2,,,,,,,,,,,,,,,0,,,63,0
86167,control_change,7,0,2,,,,,,,,,,,,,,,0,64,0,,
86280,note_on,113,0,2,,,,,,,,,,,,,,,0,,,63,0
86280,note_on,120,0,1,,,,,,,,,,,,,,,0,,,75,0
86400,note_on,0,0,2,,,,,,,,,,,,,,,0,,,63,81
86400,note_on,0,0,2,,,,,,,,,,,,,,,0,,,55,68
86400,note_on,0,0,2,,,,,,,,,,,,,,,0,,,51,68
86400,note_on,0,0,1,,,,,,,,,,,,,,,0,,,87,95
86400,note_on,0,0,1,,,,,,,,,,,,,,,0,,,82,80
86400,note_on,0,0,1,,,,,,,,,,,,,,,0,,,79,80
86400,note_on,120,0,1,,,,,,,,,,,,,,,0,,,75,80
86400,note_on,120,0,2,,,,,,,,,,,,,,,0,,,58,68
86400,set_tempo,240,1,0,,,,,,,,,,,,424028,,,,,,,
86577,control_change,177,0,2,,,,,,,,,,,,,,,0,64,127,,
86760,note_on,183,0,2,,,,,,,,,,,,,,,0,,,63,0
86760,note_on,0,0,2,,,,,,,,,,,,,,,0,,,58,0
86760,note_on,0,0,2,,,,,,,,,,,,,,,0,,,51,0
86760,note_on,0,0,2,,,,,,,,,,,,,,,0,,,55,0
86760,note_on,0,0,2,,,,,,,,,,,,,,,0,,,63,73
86760,note_on,0,0,1,,,,,,,,,,,,,,,0,,,79,0
86760,note_on,0,0,1,,,,,,,,,,,,,,,0,,,82,0
86760,note_on,360,0,1,,,,,,,,,,,,,,,0,,,87,0
86760,note_on,0,0,1,,,,,,,,,,,,,,,0,,,75,0
86760,note_on,0,0,1,,,,,,,,,,,,,,,0,,,75,90
86880,set_tempo,480,1,0,,,,,,,,,,,,476190,,,,,,,
86880,note_on,0,0,2,,,,,,,,,,,,,,,0,,,63,82
86880,note_on,120,0,2,,,,,,,,,,,,,,,0,,,63,0
86880,note_on,0,0,1,,,,,,,,,,,,,,,0,,,75,94
86880,note_on,120,0,1,,,,,,,,,,,,,,,0,,,75,0
86922,control_change,42,0,2,,,,,,,,,,,,,,,0,64,0,,
87000,note_on,120,0,1,,,,,,,,,,,,,,,0,,,75,0
87000,note_on,78,0,2,,,,,,,,,,,,,,,0,,,63,0
87120,note_on,0,0,1,,,,,,,,,,,,,,,0,,,80,80
87120,note_on,0,0,2,,,,,,,,,,,,,,,0,,,56,68
87120,note_on,0,0,1,,,,,,,,,,,,,,,0,,,83,80
87120,note_on,0,0,1,,,,,,,,,,,,,,,0,,,87,95
87120,note_on,120,0,2,,,,,,,,,,,,,,,0,,,59,68
87120,note_on,0,0,2,,,,,,,,,,,,,,,0,,,51,68
87120,set_tempo,240,1,0,,,,,,,,,,,,419580,,,,,,,
87120,note_on,0,0,2,,,,,,,,,,,,,,,0,,,63,81
87120,note_on,120,0,1,,,,,,,,,,,,,,,0,,,75,80
87297,control_change,177,0,2,,,,,,,,,,,,,,,0,64,127,,
87480,note_on,0,0,1,,,,,,,,,,,,,,,0,,,83,0
87480,note_on,0,0,2,,,,,,,,,,,,,,,0,,,56,0
87480,note_on,0,0,2,,,,,,,,,,,,,,,0,,,51,0
87480,note_on,0,0,2,,,,,,,,,,,,,,,0,,,59,0
87480,note_on,183,0,2,,,,,,,,,,,,,,,0,,,63,0
87480,note_on,0,0,1,,,,,,,,,,,,,,,0,,,75,0
87480,note_on,0,0,1,,,,,,,,,,,,,,,0,,,80,0
87480,note_on,0,0,1,,,,,,,,,,,,,,,0,,,75,90
87480,note_on,0,0,2,,,,,,,,,,,,,,,0,,,63,73
87480,note_on,360,0,1,,,,,,,,,,,,,,,0,,,87,0
87600,note_on,0,0,2,,,,,,,,,,,,,,,0,,,63,82
87600,note_on,120,0,2,,,,,,,,,,,,,,,0,,,63,0
87600,note_on,120,0,1,,,,,,,,,,,,,,,0,,,75,0
87600,note_on,0,0,1,,,,,,,,,,,,,,,0,,,75,94
87600,set_tempo,480,1,0,,,,,,,,,,,,476190,,,,,,,
87614,control_change,14,0,2,,,,,,,,,,,,,,,0,64,0,,
87720,note_on,106,0,2,,,,,,,,,,,,,,,0,,,63,0
87720,note_on,120,0,1,,,,,,,,,,,,,,,0,,,75,0
87840,note_on,120,0,1,,,,,,,,,,,,,,,0,,,63,40
87840,note_on,0,0,1,,,,,,,,,,,,,,,0,,,67,40
87840,note_on,0,0,1,,,,,,,,,,,,,,,0,,,75,54
87840,note_on,0,0,1,,,,,,,,,,,,,,,0,,,70,40
87840,note_on,120,0,2,,,,,,,,,,,,,,,0,,,39,34
87840,set_tempo,240,1,0,,,,,,,,,,,,449438,,,,,,,
87840,note_on,0,0,2,,,,,,,,,,,,,,,0,,,51,46
88017,control_change,177,0,2,,,,,,,,,,,,,,,0,64,127,,
88200,note_on,0,0,2,,,,,,,,,,,,,,,0,,,51,43
88200,note_on,0,0,2,,,,,,,,,,,,,,,0,,,39,0
88200,note_on,0,0,1,,,,,,,,,,,,,,,0,,,63,0
88200,note_on,0,0,1,,,,,,,,,,,,,,,0,,,63,54
88200,note_on,0,0,1,,,,,,,,,,,,,,,0,,,70,0
88200,note_on,0,0,1,,,,,,,,,,,,,,,0,,,67,0
88200,note_on,183,0,2,,,,,,,,,,,,,,,0,,,51,0
88200,note_on,360,0,1,,,,,,,,,,,,,,,0,,,75,0
88320,set_tempo,480,1,0,,,,,,,,,,,,526316,,,,,,,
88320,note_on,0,0,2,,,,,,,,,,,,,,,0,,,51,48
88320,note_on,120,0,1,,,,,,,,,,,,,,,0,,,63,0
88320,note_on,0,0,1,,,,,,,,,,,,,,,0,,,63,54
88320,note_on,120,0,2,,,,,,,,,,,,,,,0,,,51,0
88391,control_change,71,0,2,,,,,,,,,,,,,,,0,64,0,,
88440,note_on,49,0,2,,,,,,,,,,,,,,,0,,,51,0
88440,note_on,120,0,1,,,,,,,,,,,,,,,0,,,63,0
88560,set_tempo,240,1,0,,,,,,,,,,,,456274,,,,,,,
88560,note_on,0,0,1,,,,,,,,,,,,,,,0,,,75,54
88560,note_on,120,0,1,,,,,,,,,,,,,,,0,,,63,40
88560,note_on,0,0,1,,,,,,,,,,,,,,,0,,,68,40
88560,note_on,0,0,1,,,,,,,,,,,,,,,0,,,71,40
88560,note_on,0,0,2,,,,,,,,,,,,,,,0,,,51,46
88560,note_on,120,0,2,,,,,,,,,,,,,,,0,,,39,34
88737,control_change,177,0,2,,,,,,,,,,,,,,,0,64,127,,
88920,note_on,360,0,1,,,,,,,,,,,,,,,0,,,75,0
88920,note_on,0,0,2,,,,,,,,,,,,,,,0,,,51,41
88920,note_on,0,0,1,,,,,,,,,,,,,,,0,,,63,0
88920,note_on,0,0,1,,,,,,,,,,,,,,,0,,,68,0
88920,note_on,0,0,1,,,,,,,,,,,,,,,0,,,71,0
88920,note_on,0,0,1,,,,,,,,,,,,,,,0,,,63,53
88920,note_on,183,0,2,,,,,,,,,,,,,,,0,,,51,0
88920,note_on,0,0,2,,,,,,,,,,,,,,,0,,,39,0
89040,set_tempo,480,1,0,,,,,,,,,,,,515021,,,,,,,
89040,note_on,120,0,2,,,,,,,,,,,,,,,0,,,51,0
89040,note_on,0,0,2,,,,,,,,,,,,,,,0,,,51,47
89040,note_on,0,0,1,,,,,,,,,,,,,,,0,,,63,55
89040,note_on,120,0,1,,,,,,,,,,,,,,,0,,,63,0
89111,control_change,71,0,2,,,,,,,,,,,,,,,0,64,0,,
89160,note_on,49,0,2,,,,,,,,,,,,,,,0,,,51,0
89160,note_on,120,0,1,,,,,,,,,,,,,,,0,,,63,0
89280,note_on,0,0,1,,,,,,,,,,,,,,,0,,,75,54
89280,note_on,0,0,1,,,,,,,,,,,,,,,0,,,70,40
89280,set_tempo,240,1,0,,,,,,,,,,,,461538,,,,,,,
89280,note_on,120,0,1,,,,,,,,,,,,,,,0,,,63,40
89280,note_on,120,0,2,,,,,,,,,,,,,,,0,,,39,34
89280,note_on,0,0,2,,,,,,,,,,,,,,,0,,,51,46
89280,note_on,0,0,1,,,,,,,,,,,,,,,0,,,67,40
89457,control_change,177,0,2,,,,,,,,,,,,,,,0,64,127,,
89640,note_on,183,0,2,,,,,,,,,,,,,,,0,,,51,0
89640,note_on,0,0,2,,,,,,,,,,,,,,,0,,,39,0
89640,note_on,0,0,2,,,,,,,,,,,,,,,0,,,51,43
89640,note_on,0,0,1,,,,,,,,,,,,,,,0,,,63,54
89640,note_on,360,0,1,,,,,,,,,,,,,,,0,,,75,0
89640,note_on,0,0,1,,,,,,,,,,,,,,,0,,,63,0
89640,note_on,0,0,1,,,,,,,,,,,,,,,0,,,67,0
89640,note_on,0,0,1,,,,,,,,,,,,,,,0,,,70,0
89760,note_on,0,0,1,,,,,,,,,,,,,,,0,,,63,54
89760,set_tempo,480,1,0,,,,,,,,,,,,526316,,,,,,,
89760,note_on,120,0,2,,,,,,,,,,,,,,,0,,,51,0
89760,note_on,0,0,2,,,,,,,,,,,,,,,0,,,51,48
89760,note_on,120,0,1,,,,,,,,,,,,,,,0,,,63,0
89824,control_change,64,0,2,,,,,,,,,,,,,,,0,64,0,,
89880,note_on,120,0,1,,,,,,,,,,,,,,,0,,,63,0
89880,note_on,56,0,2,,,,,,,,,,,,,,,0,,,51,0
90000,note_on,0,0,1,,,,,,,,,,,,,,,0,,,71,40
90000,note_on,0,0,1,,,,,,,,,,,,,,,0,,,68,40
90000,note_on,120,0,1,,,,,,,,,,,,,,,0,,,63,40
90000,note_on,0,0,1,,,,,,,,,,,,,,,0,,,75,54
90000,note_on,120,0,2,,,,,,,,,,,,,,,0,,,39,34
90000,note_on,0,0,2,,,,,,,,,,,,,,,0,,,51,46
90000,set_tempo,240,1,0,,,,,,,,,,,,470588,,,,,,,
90177,control_change,177,0,2,,,,,,,,,,,,,,,0,64,127,,
90360,note_on,0,0,1,,,,,,,,,,,,,,,0,,,71,0
90360,note_on,0,0,1,,,,,,,,,,,,,,,0,,,63,53
90360,note_on,0,0,1,,,,,,,,,,,,,,,0,,,63,0
90360,note_on,360,0,1,,,,,,,,,,,,,,,0,,,75,0
90360,note_on,183,0,2,,,,,,,,,,,,,,,0,,,51,0
90360,note_on,0,0,2,,,,,,,,,,,,,,,0,,,39,0
90360,note_on,0,0,2,,,,,,,,,,,,,,,0,,,51,41
90360,note_on,0,0,1,,,,,,,,,,,,,,,0,,,68,0
90480,note_on,120,0,1,,,,,,,,,,,,,,,0,,,63,0
90480,set_tempo,480,1,0,,,,,,,,,,,,591133,,,,,,,
90480,note_on,0,0,1,,,,,,,,,,,,,,,0,,,63,55
90480,note_on,120,0,2,,,,,,,,,,,,,,,0,,,51,0
90480,note_on,0,0,2,,,,,,,,,,,,,,,0,,,51,47
90487,control_change,7,0,2,,,,,,,,,,,,,,,0,64,0,,
90600,note_on,120,0,1,,,,,,,,,,,,,,,0,,,63,0
90600,note_on,113,0,2,,,,,,,,,,,,,,,0,,,51,0
90720,note_on,120,0,2,,,,,,,,,,,,,,,0,,,39,32
90720,note_on,0,0,1,,,,,,,,,,,,,,,0,,,63,37
90720,note_on,0,0,1,,,,,,,,,,,,,,,0,,,58,32
90720,note_on,0,0,1,,,,,,,,,,,,,,,0,,,55,32
90720,note_on,120,0,1,,,,,,,,,,,,,,,0,,,51,32
90720,set_tempo,240,1,0,,,,,,,,,,,,510638,,,,,,,
90897,control_change,177,0,2,,,,,,,,,,,,,,,0,64,127,,
90960,note_on,63,0,2,,,,,,,,,,,,,,,0,,,39,0
91080,note_on,0,0,1,,,,,,,,,,,,,,,0,,,55,0
91080,note_on,0,0,1,,,,,,,,,,,,,,,0,,,51,0
91080,note_on,360,0,1,,,,,,,,,,,,,,,0,,,63,0
91080,note_on,0,0,1,,,,,,,,,,,,,,,0,,,51,41
91080,note_on,0,0,1,,,,,,,,,,,,,,,0,,,58,0
91200,set_tempo,480,1,0,,,,,,,,,,,,621762,,,,,,,
91200,note_on,0,0,1,,,,,,,,,,,,,,,0,,,51,41
91200,note_on,120,0,1,,,,,,,,,,,,,,,0,,,51,0
91285,control_change,325,0,2,,,,,,,,,,,,,,,0,64,0,,
91320,note_on,120,0,1,,,,,,,,,,,,,,,0,,,51,0
91440,note_on,0,0,1,,,,,,,,,,,,,,,0,,,56,30
91440,note_on,0,0,1,,,,,,,,,,,,,,,0,,,59,30
91440,note_on,0,0,1,,,,,,,,,,,,,,,0,,,63,34
91440,note_on,120,0,1,,,,,,,,,,,,,,,0,,,51,30
91440,set_tempo,240,1,0,,,,,,,,,,,,555556,,,,,,,
91440,note_on,155,0,2,,,,,,,,,,,,,,,0,,,39,30
91617,control_change,177,0,2,,,,,,,,,,,,,,,0,64,127,,
91680,note_on,63,0,2,,,,,,,,,,,,,,,0,,,39,0
91800,note_on,0,0,1,,,,,,,,,,,,,,,0,,,59,0
91800,note_on,360,0,1,,,,,,,,,,,,,,,0,,,63,0
91800,note_on,0,0,1,,,,,,,,,,,,,,,0,,,51,0
91800,note_on,0,0,1,,,,,,,,,,,,,,,0,,,56,0
91800,note_on,0,0,1,,,,,,,,,,,,,,,0,,,51,37
91920,note_on,120,0,1,,,,,,,,,,,,,,,0,,,51,0
91920,note_on,0,0,1,,,,,,,,,,,,,,,0,,,51,39
91920,set_tempo,480,1,0,,,,,,,,,,,,625000,,,,,,,
91955,control_change,275,0,2,,,,,,,,,,,,,,,0,64,0,,
92040,note_on,120,0,1,,,,,,,,,,,,,,,0,,,51,0
92160,note_on,120,0,1,,,,,,,,,,,,,,,0,,,51,27
92160,note_on,205,0,2,,,,,,,,,,,,,,,0,,,39,27
92160,note_on,0,0,1,,,,,,,,,,,,,,,0,,,56,27
92160,note_on,0,0,1,,,,,,,,,,,,,,,0,,,58,27
92160,note_on,0,0,1,,,,,,,,,,,,,,,0,,,63,32
92160,set_tempo,240,1,0,,,,,,,,,,,,582524,,,,,,,
92337,control_change,177,0,2,,,,,,,,,,,,,,,0,64,127,,
92400,note_on,63,0,2,,,,,,,,,,,,,,,0,,,39,0
92520,note_on,0,0,1,,,,,,,,,,,,,,,0,,,51,36
92520,note_on,0,0,1,,,,,,,,,,,,,,,0,,,58,0
92520,note_on,0,0,1,,,,,,,,,,,,,,,0,,,56,0
92520,note_on,360,0,1,,,,,,,,,,,,,,,0,,,63,0
92520,note_on,0,0,1,,,,,,,,,,,,,,,0,,,51,0
92640,note_on,120,0,1,,,,,,,,,,,,,,,0,,,51,0
92640,note_on,0,0,1,,,,,,,,,,,,,,,0,,,51,35
92640,set_tempo,480,1,0,,,,,,,,,,,,677966,,,,,,,
92682,control_change,282,0,2,,,,,,,,,,,,,,,0,64,0,,
92760,note_on,120,0,1,,,,,,,,,,,,,,,0,,,51,0
92880,note_on,0,0,1,,,,,,,,,,,,,,,0,,,55,25
92880,set_tempo,240,1,0,,,,,,,,,,,,615385,,,,,,,
92880,note_on,198,0,2,,,,,,,,,,,,,,,0,,,39,25
92880,note_on,120,0,1,,,,,,,,,,,,,,,0,,,51,25
92880,note_on,0,0,1,,,,,,,,,,,,,,,0,,,63,29
92880,note_on,0,0,1,,,,,,,,,,,,,,,0,,,58,25
93057,control_change,177,0,2,,,,,,,,,,,,,,,0,64,127,,
93120,note_on,63,0,2,,,,,,,,,,,,,,,0,,,39,0
93240,note_on,360,0,1,,,,,,,,,,,,,,,0,,,63,0
93240,note_on,0,0,1,,,,,,,,,,,,,,,0,,,51,0
93240,note_on,0,0,1,,,,,,,,,,,,,,,0,,,55,0
93240,note_on,0,0,1,,,,,,,,,,,,,,,0,,,58,0
93240,note_on,0,0,1,,,,,,,,,,,,,,,0,,,51,32
93360,set_tempo,480,1,0,,,,,,,,,,,,727273,,,,,,,
93360,note_on,0,0,1,,,,,,,,,,,,,,,0,,,51,33
93360,note_on,120,0,1,,,,,,,,,,,,,,,0,,,51,0
93388,control_change,268,0,2,,,,,,,,,,,,,,,0,64,0,,
93480,note_on,120,0,1,,,,,,,,,,,,,,,0,,,51,0
93600,note_on,212,0,2,,,,,,,,,,,,,,,0,,,44,28
93600,note_on,0,0,2,,,,,,,,,,,,,,,0,,,51,28
93600,note_on,0,0,2,,,,,,,,,,,,,,,0,,,56,34
93600,set_tempo,240,1,0,,,,,,,,,,,,436364,,,,,,,
93600,note_on,0,0,1,,,,,,,,,,,,,,,0,,,72,36
93600,note_on,0,0,1,,,,,,,,,,,,,,,0,,,75,42
93600,note_on,120,0,1,,,,,,,,,,,,,,,0,,,63,36
93755,control_change,155,0,2,,,,,,,,,,,,,,,0,64,127,,
93960,note_on,0,0,1,,,,,,,,,,,,,,,0,,,63,34
93960,note_on,0,0,1,,,,,,,,,,,,,,,0,,,63,0
93960,note_on,0,0,1,,,,,,,,,,,,,,,0,,,72,0
93960,note_on,0,0,1,,,,,,,,,,,,,,,0,,,75,40
93960,note_on,0,0,1,,,,,,,,,,,,,,,0,,,72,34
93960,note_on,360,0,1,,,,,,,,,,,,,,,0,,,75,0
93960,note_on,205,0,2,,,,,,,,,,,,,,,0,,,56,0
93960,note_on,0,0,2,,,,,,,,,,,,,,,0,,,51,0
93960,note_on,0,0,2,,,,,,,,,,,,,,,0,,,44,0
93960,note_on,0,0,2,,,,,,,,,,,,,,,0,,,44,26
93960,note_on,0,0,2,,,,,,,,,,,,,,,0,,,51,26
93960,note_on,0,0,2,,,,,,,,,,,,,,,0,,,56,32
94080,set_tempo,480,1,0,,,,,,,,,,,,476190,,,,,,,
94080,note_on,0,0,1,,,,,,,,,,,,,,,0,,,63,0
94080,note_on,0,0,1,,,,,,,,,,,,,,,0,,,63,36
94080,note_on,0,0,1,,,,,,,,,,,,,,,0,,,72,36
94080,note_on,0,0,1,,,,,,,,,,,,,,,0,,,75,42
94080,note_on,0,0,2,,,,,,,,,,,,,,,0,,,56,34
94080,note_on,0,0,2,,,,,,,,,,,,,,,0,,,44,0
94080,note_on,0,0,2,,,,,,,,,,,,,,,0,,,44,29
94080,note_on,120,0,1,,,,,,,,,,,,,,,0,,,75,0
94080,note_on,0,0,2,,,,,,,,,,,,,,,0,,,51,0
94080,note_on,120,0,2,,,,,,,,,,,,,,,0,,,56,0
94080,note_on,0,0,2,,,,,,,,,,,,,,,0,,,51,29
94080,note_on,0,0,1,,,,,,,,,,,,,,,0,,,72,0
94200,note_on,0,0,1,,,,,,,,,,,,,,,0,,,72,0
94200,note_on,120,0,1,,,,,,,,,,,,,,,0,,,75,0
94200,note_on,0,0,1,,,,,,,,,,,,,,,0,,,63,0
94200,note_on,120,0,2,,,,,,,,,,,,,,,0,,,56,0
94200,control_change,0,0,2,,,,,,,,,,,,,,,0,64,0,,
94200,note_on,0,0,2,,,,,,,,,,,,,,,0,,,44,0
94200,note_on,0,0,2,,,,,,,,,,,,,,,0,,,51,0
94320,set_tempo,240,1,0,,,,,,,,,,,,436364,,,,,,,
94320,note_on,0,0,2,,,,,,,,,,,,,,,0,,,51,28
94320,note_on,0,0,1,,,,,,,,,,,,,,,0,,,72,36
94320,note_on,120,0,1,,,,,,,,,,,,,,,0,,,63,36
94320,note_on,120,0,2,,,,,,,,,,,,,,,0,,,44,28
94320,note_on,0,0,1,,,,,,,,,,,,,,,0,,,75,42
94320,note_on,0,0,2,,,,,,,,,,,,,,,0,,,56,34
94398,control_change,78,0,2,,,,,,,,,,,,,,,0,64,127,,
94680,note_on,360,0,1,,,,,,,,,,,,,,,0,,,75,0
94680,note_on,0,0,1,,,,,,,,,,,,,,,0,,,63,0
94680,note_on,0,0,1,,,,,,,,,,,,,,,0,,,63,34
94680,note_on,0,0,1,,,,,,,,,,,,,,,0,,,72,34
94680,note_on,0,0,1,,,,,,,,,,,,,,,0,,,75,40
94680,note_on,0,0,2,,,,,,,,,,,,,,,0,,,56,32
94680,note_on,0,0,2,,,,,,,,,,,,,,,0,,,51,26
94680,note_on,0,0,2,,,,,,,,,,,,,,,0,,,44,26
94680,note_on,0,0,1,,,,,,,,,,,,,,,0,,,72,0
94680,note_on,0,0,2,,,,,,,,,,,,,,,0,,,51,0
94680,note_on,282,0,2,,,,,,,,,,,,,,,0,,,56,0
94680,note_on,0,0,2,,,,,,,,,,,,,,,0,,,44,0
94800,note_on,0,0,2,,,,,,,,,,,,,,,0,,,56,34
94800,note_on,0,0,2,,,,,,,,,,,,,,,0,,,51,29
94800,note_on,0,0,2,,,,,,,,,,,,,,,0,,,44,29
94800,note_on,0,0,2,,,,,,,,,,,,,,,0,,,44,0
94800,note_on,0,0,2,,,,,,,,,,,,,,,0,,,51,0
94800,set_tempo,480,1,0,,,,,,,,,,,,474308,,,,,,,
94800,note_on,120,0,1,,,,,,,,,,,,,,,0,,,75,0
94800,note_on,0,0,1,,,,,,,,,,,,,,,0,,,63,36
94800,note_on,0,0,1,,,,,,,,,,,,,,,0,,,63,0
94800,note_on,0,0,1,,,,,,,,,,,,,,,0,,,72,36
94800,note_on,0,0,1,,,,,,,,,,,,,,,0,,,75,42
94800,note_on,120,0,2,,,,,,,,,,,,,,,0,,,56,0
94800,note_on,0,0,1,,,,,,,,,,,,,,,0,,,72,0
94920,note_on,0,0,1,,,,,,,,,,,,,,,0,,,63,0
94920,control_change,0,0,2,,,,,,,,,,,,,,,0,64,0,,
94920,note_on,120,0,1,,,,,,,,,,,,,,,0,,,75,0
94920,note_on,0,0,1,,,,,,,,,,,,,,,0,,,72,0
94920,note_on,120,0,2,,,,,,,,,,,,,,,0,,,56,0
94920,note_on,0,0,2,,,,,,,,,,,,,,,0,,,51,0
94920,note_on,0,0,2,,,,,,,,,,,,,,,0,,,44,0
95040,note_on,0,0,1,,,,,,,,,,,,,,,0,,,71,40
95040,note_on,0,0,1,,,,,,,,,,,,,,,0,,,75,48
95040,note_on,120,0,1,,,,,,,,,,,,,,,0,,,63,40
95040,note_on,0,0,2,,,,,,,,,,,,,,,0,,,56,39
95040,note_on,0,0,2,,,,,,,,,,,,,,,0,,,51,33
95040,set_tempo,240,1,0,,,,,,,,,,,,413793,,,,,,,
95040,note_on,120,0,2,,,,,,,,,,,,,,,0,,,44,33
95160,note_on,120,0,1,,,,,,,,,,,,,,,0,,,75,0
95160,note_on,0,0,1,,,,,,,,,,,,,,,0,,,72,43
95160,note_on,0,0,1,,,,,,,,,,,,,,,0,,,63,0
95160,note_on,0,0,1,,,,,,,,,,,,,,,0,,,71,0
95280,note_on,120,0,1,,,,,,,,,,,,,,,0,,,72,0
95280,set_tempo,240,1,0,,,,,,,,,,,,427046,,,,,,,
95280,note_on,240,0,2,,,,,,,,,,,,,,,0,,,56,0
95280,note_on,0,0,1,,,,,,,,,,,,,,,0,,,68,43
95280,note_on,0,0,2,,,,,,,,,,,,,,,0,,,51,0
95280,note_on,0,0,2,,,,,,,,,,,,,,,0,,,44,0
95400,note_on,0,0,1,,,,,,,,,,,,,,,0,,,63,43
95400,note_on,120,0,1,,,,,,,,,,,,,,,0,,,68,0
95520,note_on,120,0,1,,,,,,,,,,,,,,,0,,,63,0
95520,note_on,0,0,1,,,,,,,,,,,,,,,0,,,60,48
95520,set_tempo,240,1,0,,,,,,,,,,,,465116,,,,,,,
95640,note_on,120,0,1,,,,,,,,,,,,,,,0,,,60,0
95760,note_on,120,0,1,,,,,,,,,,,,,,,0,,,63,50
95760,set_tempo,240,1,0,,,,,,,,,,,,418118,,,,,,,
95880,note_on,120,0,1,,,,,,,,,,,,,,,0,,,63,0
95880,note_on,0,0,1,,,,,,,,,,,,,,,0,,,68,44
96000,note_on,0,0,1,,,,,,,,,,,,,,,0,,,72,44
96000,note_on,120,0,1,,,,,,,,,,,,,,,0,,,68,0
96000,set_tempo,240,1,0,,,,,,,,,,,,427046,,,,,,,
96120,note_on,120,0,1,,,,,,,,,,,,,,,0,,,72,0
96120,note_on,0,0,1,,,,,,,,,,,,,,,0,,,75,44
96240,set_tempo,240,1,0,,,,,,,,,,,,474308,,,,,,,
96240,note_on,120,0,1,,,,,,,,,,,,,,,0,,,75,0
96240,note_on,0,0,1,,,,,,,,,,,,,,,0,,,80,47
96360,note_on,120,0,1,,,,,,,,,,,,,,,0,,,80,0
96480,note_on,1200,0,2,,,,,,,,,,,,,,,0,,,63,44
96480,note_on,0,0,2,,,,,,,,,,,,,,,0,,,61,37
96480,note_on,0,0,2,,,,,,,,,,,,,,,0,,,55,37
96480,note_on,120,0,1,,,,,,,,,,,,,,,0,,,81,46
96480,set_tempo,240,1,0,,,,,,,,,,,,506329,,,,,,,
96480,note_on,0,0,1,,,,,,,,,,,,,,,0,,,69,39
96540,note_on,60,0,2,,,,,,,,,,,,,,,0,,,55,0
96540,note_on,0,0,2,,,,,,,,,,,,,,,0,,,61,0
96540,note_on,0,0,2,,,,,,,,,,,,,,,0,,,63,0
96540,note_on,60,0,1,,,,,,,,,,,,,,,0,,,69,0
96540,note_on,0,0,1,,,,,,,,,,,,,,,0,,,81,0
96720,note_on,180,0,1,,,,,,,,,,,,,,,0,,,70,43
96720,note_on,0,0,1,,,,,,,,,,,,,,,0,,,82,51
96720,note_on,0,0,2,,,,,,,,,,,,,,,0,,,61,37
96720,note_on,180,0,2,,,,,,,,,,,,,,,0,,,63,44
96720,set_tempo,240,1,0,,,,,,,,,,,,456274,,,,,,,
96720,note_on,0,0,2,,,,,,,,,,,,,,,0,,,55,37
97200,note_on,0,0,2,,,,,,,,,,,,,,,0,,,61,0
97200,note_on,0,0,2,,,,,,,,,,,,,,,0,,,50,43
97200,note_on,0,0,2,,,,,,,,,,,,,,,0,,,63,0
97200,note_on,480,0,2,,,,,,,,,,,,,,,0,,,55,0
97200,set_tempo,480,1,0,,,,,,,,,,,,408163,,,,,,,
97200,note_on,0,0,1,,,,,,,,,,,,,,,0,,,70,0
97200,note_on,0,0,1,,,,,,,,,,,,,,,0,,,62,51
97200,control_change,0,0,1,,,,,,,,,,,,,,,0,91,127,,
97200,text,0,1,1,,,,,,,,,,,,,,,,,,,
97200,note_on,480,0,1,,,,,,,,,,,,,,,0,,,82,0
97320,note_on,120,0,2,,,,,,,,,,,,,,,0,,,50,0
97320,note_on,0,0,1,,,,,,,,,,,,,,,0,,,63,42
97320,note_on,0,0,2,,,,,,,,,,,,,,,0,,,51,40
97320,note_on,120,0,1,,,,,,,,,,,,,,,0,,,62,0
97440,note_on,120,0,2,,,,,,,,,,,,,,,0,,,51,0
97440,note_on,0,0,2,,,,,,,,,,,,,,,0,,,46,42
97440,note_on,0,0,1,,,,,,,,,,,,,,,0,,,58,45
97440,note_on,120,0,1,,,,,,,,,,,,,,,0,,,63,0
97440,set_tempo,240,1,0,,,,,,,,,,,,427046,,,,,,,
97560,note_on,120,0,2,,,,,,,,,,,,,,,0,,,46,0
97560,note_on,0,0,2,,,,,,,,,,,,,,,0,,,43,40
97560,note_on,120,0,1,,,,,,,,,,,,,,,0,,,58,0
97560,note_on,0,0,1,,,,,,,,,,,,,,,0,,,55,42
97680,set_tempo,240,1,0,,,,,,,,,,,,476190,,,,,,,
97680,note_on,120,0,2,,,,,,,,,,,,,,,0,,,43,0
97680,note_on,0,0,2,,,,,,,,,,,,,,,0,,,39,42
97680,note_on,0,0,1,,,,,,,,,,,,,,,0,,,51,45
97680,note_on,120,0,1,,,,,,,,,,,,,,,0,,,55,0
97800,note_on,120,0,1,,,,,,,,,,,,,,,0,,,51,0
97800,note_on,120,0,2,,,,,,,,,,,,,,,0,,,39,0
97920,note_on,120,0,1,,,,,,,,,,,,,,,0,,,63,45
97920,note_on,0,0,1,,,,,,,,,,,,,,,0,,,73,45
97920,note_on,0,0,1,,,,,,,,,,,,,,,0,,,75,53
97920,note_on,0,0,2,,,,,,,,,,,,,,,0,,,58,43
97920,note_on,0,0,2,,,,,,,,,,,,,,,0,,,51,36
97920,note_on,0,0,2,,,,,,,,,,,,,,,0,,,46,36
97920,control_change,120,0,2,,,,,,,,,,,,,,,0,64,127,,
97920,set_tempo,240,1,0,,,,,,,,,,,,436364,,,,,,,
98280,note_on,360,0,2,,,,,,,,,,,,,,,0,,,58,0
98280,note_on,0,0,2,,,,,,,,,,,,,,,0,,,46,33
98280,note_on,0,0,2,,,,,,,,,,,,,,,0,,,51,33
98280,note_on,0,0,2,,,,,,,,,,,,,,,0,,,58,40
98280,note_on,0,0,2,,,,,,,,,,,,,,,0,,,46,0
98280,note_on,0,0,2,,,,,,,,,,,,,,,0,,,51,0
98280,note_on,0,0,1,,,,,,,,,,,,,,,0,,,75,51
98280,note_on,0,0,1,,,,,,,,,,,,,,,0,,,73,43
98280,note_on,0,0,1,,,,,,,,,,,,,,,0,,,63,43
98280,note_on,0,0,1,,,,,,,,,,,,,,,0,,,63,0
98280,note_on,0,0,1,,,,,,,,,,,,,,,0,,,73,0
98280,note_on,360,0,1,,,,,,,,,,,,,,,0,,,75,0
98400,note_on,0,0,2,,,,,,,,,,,,,,,0,,,51,0
98400,note_on,120,0,2,,,,,,,,,,,,,,,0,,,58,0
98400,note_on,0,0,2,,,,,,,,,,,,,,,0,,,51,37
98400,set_tempo,480,1,0,,,,,,,,,,,,476190,,,,,,,
98400,note_on,0,0,2,,,,,,,,,,,,,,,0,,,46,37
98400,note_on,0,0,2,,,,,,,,,,,,,,,0,,,58,43
98400,note_on,0,0,2,,,,,,,,,,,,,,,0,,,46,0
98400,note_on,0,0,1,,,,,,,,,,,,,,,0,,,75,53
98400,note_on,0,0,1,,,,,,,,,,,,,,,0,,,73,45
98400,note_on,0,0,1,,,,,,,,,,,,,,,0,,,63,45
98400,note_on,0,0,1,,,,,,,,,,,,,,,0,,,73,0
98400,note_on,120,0,1,,,,,,,,,,,,,,,0,,,75,0
98400,note_on,0,0,1,,,,,,,,,,,,,,,0,,,63,0
98520,note_on,0,0,1,,,,,,,,,,,,,,,0,,,63,0
98520,note_on,0,0,1,,,,,,,,,,,,,,,0,,,73,0
98520,note_on,120,0,1,,,,,,,,,,,,,,,0,,,75,0
98520,note_on,120,0,2,,,,,,,,,,,,,,,0,,,58,0
98520,note_on,0,0,2,,,,,,,,,,,,,,,0,,,51,0
98520,note_on,0,0,2,,,,,,,,,,,,,,,0,,,46,0
98520,control_change,0,0,2,,,,,,,,,,,,,,,0,64,0,,
98640,note_on,120,0,1,,,,,,,,,,,,,,,0,,,63,45
98640,note_on,0,0,1,,,,,,,,,,,,,,,0,,,75,53
98640,note_on,0,0,1,,,,,,,,,,,,,,,0,,,73,45
98640,note_on,120,0,2,,,,,,,,,,,,,,,0,,,46,36
98640,note_on,0,0,2,,,,,,,,,,,,,,,0,,,58,43
98640,note_on,0,0,2,,,,,,,,,,,,,,,0,,,51,36
98640,set_tempo,240,1,0,,,,,,,,,,,,436364,,,,,,,
98718,control_change,78,0,2,,,,,,,,,,,,,,,0,64,127,,
99000,note_on,0,0,2,,,,,,,,,,,,,,,0,,,46,0
99000,note_on,0,0,2,,,,,,,,,,,,,,,0,,,51,0
99000,note_on,0,0,2,,,,,,,,,,,,,,,0,,,46,33
99000,note_on,0,0,1,,,,,,,,,,,,,,,0,,,75,51
99000,note_on,282,0,2,,,,,,,,,,,,,,,0,,,58,0
99000,note_on,0,0,1,,,,,,,,,,,,,,,0,,,63,43
99000,note_on,0,0,1,,,,,,,,,,,,,,,0,,,63,0
99000,note_on,0,0,1,,,,,,,,,,,,,,,0,,,73,0
99000,note_on,360,0,1,,,,,,,,,,,,,,,0,,,75,0
99000,note_on,0,0,2,,,,,,,,,,,,,,,0,,,58,40
99000,note_on,0,0,1,,,,,,,,,,,,,,,0,,,73,43
99000,note_on,0,0,2,,,,,,,,,,,,,,,0,,,51,33
99120,note_on,0,0,2,,,,,,,,,,,,,,,0,,,51,37
99120,note_on,0,0,2,,,,,,,,,,,,,,,0,,,51,0
99120,note_on,0,0,2,,,,,,,,,,,,,,,0,,,46,0
99120,note_on,0,0,2,,,,,,,,,,,,,,,0,,,46,37
99120,note_on,0,0,2,,,,,,,,,,,,,,,0,,,58,43
99120,note_on,120,0,2,,,,,,,,,,,,,,,0,,,58,0
99120,set_tempo,480,1,0,,,,,,,,,,,,474308,,,,,,,
99120,note_on,0,0,1,,,,,,,,,,,,,,,0,,,75,53
99120,note_on,0,0,1,,,,,,,,,,,,,,,0,,,73,45
99120,note_on,0,0,1,,,,,,,,,,,,,,,0,,,63,45
99120,note_on,0,0,1,,,,,,,,,,,,,,,0,,,63,0
99120,note_on,0,0,1,,,,,,,,,,,,,,,0,,,73,0
99120,note_on,120,0,1,,,,,,,,,,,,,,,0,,,75,0
99240,note_on,0,0,1,,,,,,,,,,,,,,,0,,,73,0
99240,note_on,0,0,1,,,,,,,,,,,,,,,0,,,63,0
99240,note_on,120,0,2,,,,,,,,,,,,,,,0,,,58,0
99240,note_on,0,0,2,,,,,,,,,,,,,,,0,,,51,0
99240,note_on,0,0,2,,,,,,,,,,,,,,,0,,,46,0
99240,control_change,0,0,2,,,,,,,,,,,,,,,0,64,0,,
99240,note_on,120,0,1,,,,,,,,,,,,,,,0,,,75,0
99360,note_on,120,0,2,,,,,,,,,,,,,,,0,,,46,37
99360,note_on,120,0,1,,,,,,,,,,,,,,,0,,,63,40
99360,note_on,0,0,1,,,,,,,,,,,,,,,0,,,72,40
99360,note_on,0,0,2,,,,,,,,,,,,,,,0,,,51,37
99360,note_on,0,0,1,,,,,,,,,,,,,,,0,,,75,48
99360,set_tempo,240,1,0,,,,,,,,,,,,413793,,,,,,,
99360,note_on,0,0,2,,,,,,,,,,,,,,,0,,,58,44
99480,note_on,0,0,1,,,,,,,,,,,,,,,0,,,63,0
99480,note_on,0,0,1,,,,,,,,,,,,,,,0,,,73,43
99480,note_on,120,0,1,,,,,,,,,,,,,,,0,,,75,0
99480,note_on,0,0,1,,,,,,,,,,,,,,,0,,,72,0
99600,note_on,0,0,2,,,,,,,,,,,,,,,0,,,51,0
99600,note_on,120,0,1,,,,,,,,,,,,,,,0,,,73,0
99600,note_on,240,0,2,,,,,,,,,,,,,,,0,,,58,0
99600,set_tempo,240,1,0,,,,,,,,,,,,427046,,,,,,,
99600,note_on,0,0,2,,,,,,,,,,,,,,,0,,,46,0
99600,note_on,0,0,1,,,,,,,,,,,,,,,0,,,70,43
99720,note_on,0,0,1,,,,,,,,,,,,,,,0,,,67,43
99720,note_on,120,0,1,,,,,,,,,,,,,,,0,,,70,0
99840,note_on,0,0,1,,,,,,,,,,,,,,,0,,,63,48
99840,note_on,120,0,1,,,,,,,,,,,,,,,0,,,67,0
99840,set_tempo,240,1,0,,,,,,,,,,,,465116,,,,,,,
99960,note_on,120,0,1,,,,,,,,,,,,,,,0,,,63,0
100080,note_on,120,0,1,,,,,,,,,,,,,,,0,,,67,50
100080,set_tempo,240,1,0,,,,,,,,,,,,418118,,,,,,,
100200,note_on,120,0,1,,,,,,,,,,,,,,,0,,,67,0
100200,note_on,0,0,1,,,,,,,,,,,,,,,0,,,70,44
100320,note_on,120,0,1,,,,,,,,,,,,,,,0,,,70,0
100320,note_on,0,0,1,,,,,,,,,,,,,,,0,,,73,44
100320,set_tempo,240,1,0,,,,,,,,,,,,427046,,,,,,,
100440,note_on,120,0,1,,,,,,,,,,,,,,,0,,,73,0
100440,note_on,0,0,1,,,,,,,,,,,,,,,0,,,75,44
100560,set_tempo,240,1,0,,,,,,,,,,,,474308,,,,,,,
100560,note_on,0,0,1,,,,,,,,,,,,,,,0,,,79,47
100560,note_on,120,0,1,,,,,,,,,,,,,,,0,,,75,0
100680,note_on,120,0,1,,,,,,,,,,,,,,,0,,,79,0
100800,note_on,120,0,1,,,,,,,,,,,,,,,0,,,83,46
100800,set_tempo,240,1,0,,,,,,,,,,,,506329,,,,,,,
100800,note_on,0,0,1,,,,,,,,,,,,,,,0,,,71,39
100800,note_on,1200,0,2,,,,,,,,,,,,,,,0,,,67,44
100800,note_on,0,0,2,,,,,,,,,,,,,,,0,,,63,37
100800,note_on,0,0,2,,,,,,,,,,,,,,,0,,,56,37
100860,note_on,60,0,1,,,,,,,,,,,,,,,0,,,71,0
100860,note_on,0,0,1,,,,,,,,,,,,,,,0,,,83,0
100860,note_on,0,0,2,,,,,,,,,,,,,,,0,,,67,0
100860,note_on,0,0,2,,,,,,,,,,,,,,,0,,,63,0
100860,note_on,60,0,2,,,,,,,,,,,,,,,0,,,56,0
101040,note_on,180,0,1,,,,,,,,,,,,,,,0,,,72,43
101040,note_on,0,0,1,,,,,,,,,,,,,,,0,,,84,51
101040,set_tempo,240,1,0,,,,,,,,,,,,456274,,,,,,,
101040,note_on,180,0,2,,,,,,,,,,,,,,,0,,,68,44
101040,note_on,0,0,2,,,,,,,,,,,,,,,0,,,63,37
101040,note_on,0,0,2,,,,,,,,,,,,,,,0,,,56,37
101520,note_on,0,0,2,,,,,,,,,,,,,,,0,,,63,0
101520,note_on,480,0,1,,,,,,,,,,,,,,,0,,,84,0
101520,note_on,0,0,1,,,,,,,,,,,,,,,0,,,72,0
101520,note_on,0,0,1,,,,,,,,,,,,,,,0,,,67,51
101520,note_on,480,0,2,,,,,,,,,,,,,,,0,,,56,0
101520,control_change,0,0,1,,,,,,,,,,,,,,,0,91,127,,
101520,set_tempo,480,1,0,,,,,,,,,,,,405405,,,,,,,
101520,note_on,0,0,2,,,,,,,,,,,,,,,0,,,55,43
101520,note_on,0,0,2,,,,,,,,,,,,,,,0,,,68,0
101520,text,0,1,1,,,,,,,,,,,,,,,,,,,
101640,note_on,120,0,1,,,,,,,,,,,,,,,0,,,67,0
101640,note_on,0,0,2,,,,,,,,,,,,,,,0,,,56,40
101640,note_on,120,0,2,,,,,,,,,,,,,,,0,,,55,0
101640,note_on,0,0,1,,,,,,,,,,,,,,,0,,,68,42
101760,note_on,120,0,1,,,,,,,,,,,,,,,0,,,68,0
101760,set_tempo,240,1,0,,,,,,,,,,,,427046,,,,,,,
101760,note_on,0,0,1,,,,,,,,,,,,,,,0,,,63,45
101760,note_on,120,0,2,,,,,,,,,,,,,,,0,,,56,0
101760,note_on,0,0,2,,,,,,,,,,,,,,,0,,,51,42
101880,note_on,120,0,2,,,,,,,,,,,,,,,0,,,51,0
101880,note_on,120,0,1,,,,,,,,,,,,,,,0,,,63,0
101880,note_on,0,0,2,,,,,,,,,,,,,,,0,,,48,40
101880,note_on,0,0,1,,,,,,,,,,,,,,,0,,,60,42
102000,note_on,0,0,2,,,,,,,,,,,,,,,0,,,44,42
102000,set_tempo,240,1,0,,,,,,,,,,,,476190,,,,,,,
102000,note_on,120,0,2,,,,,,,,,,,,,,,0,,,48,0
102000,note_on,0,0,1,,,,,,,,,,,,,,,0,,,56,45
102000,note_on,120,0,1,,,,,,,,,,,,,,,0,,,60,0
102120,note_on,120,0,1,,,,,,,,,,,,,,,0,,,56,0
102120,note_on,120,0,2,,,,,,,,,,,,,,,0,,,44,0
102240,note_on,120,0,1,,,,,,,,,,,,,,,0,,,66,75
102240,note_on,0,0,1,,,,,,,,,,,,,,,0,,,68,75
102240,note_on,120,0,2,,,,,,,,,,,,,,,0,,,44,73
102240,note_on,0,0,1,,,,,,,,,,,,,,,0,,,78,89
102240,set_tempo,240,1,0,,,,,,,,,,,,436364,,,,,,,
102240,control_change,0,0,2,,,,,,,,,,,,,,,0,64,127,,
102240,note_on,0,0,1,,,,,,,,,,,,,,,0,,,75,75
102360,note_on,0,0,2,,,,,,,,,,,,,,,0,,,45,68
102360,note_on,120,0,2,,,,,,,,,,,,,,,0,,,44,0
102480,note_on,0,0,2,,,,,,,,,,,,,,,0,,,46,72
102480,note_on,120,0,2,,,,,,,,,,,,,,,0,,,45,0
102600,note_on,360,0,1,,,,,,,,,,,,,,,0,,,78,0
102600,note_on,0,0,1,,,,,,,,,,,,,,,0,,,75,72
102600,note_on,0,0,2,,,,,,,,,,,,,,,0,,,47,76
102600,note_on,0,0,1,,,,,,,,,,,,,,,0,,,68,72
102600,note_on,0,0,1,,,,,,,,,,,,,,,0,,,66,72
102600,note_on,0,0,1,,,,,,,,,,,,,,,0,,,78,85
102600,note_on,0,0,1,,,,,,,,,,,,,,,0,,,75,0
102600,note_on,0,0,1,,,,,,,,,,,,,,,0,,,68,0
102600,note_on,0,0,1,,,,,,,,,,,,,,,0,,,66,0
102600,note_on,120,0,2,,,,,,,,,,,,,,,0,,,46,0
102720,note_on,0,0,1,,,,,,,,,,,,,,,0,,,75,0
102720,note_on,0,0,1,,,,,,,,,,,,,,,0,,,78,89
102720,note_on,0,0,1,,,,,,,,,,,,,,,0,,,68,75
102720,note_on,0,0,1,,,,,,,,,,,,,,,0,,,75,75
102720,note_on,0,0,1,,,,,,,,,,,,,,,0,,,66,75
102720,note_on,0,0,1,,,,,,,,,,,,,,,0,,,68,0
102720,set_tempo,480,1,0,,,,,,,,,,,,476190,,,,,,,
102720,note_on,0,0,1,,,,,,,,,,,,,,,0,,,66,0
102720,note_on,0,0,2,,,,,,,,,,,,,,,0,,,48,80
102720,note_on,120,0,2,,,,,,,,,,,,,,,0,,,47,0
102720,note_on,120,0,1,,,,,,,,,,,,,,,0,,,78,0
102840,note_on,0,0,1,,,,,,,,,,,,,,,0,,,75,0
102840,note_on,0,0,1,,,,,,,,,,,,,,,0,,,66,0
102840,note_on,120,0,1,,,,,,,,,,,,,,,0,,,78,0
102840,control_change,0,0,2,,,,,,,,,,,,,,,0,64,0,,
102840,note_on,120,0,2,,,,,,,,,,,,,,,0,,,48,0
102840,note_on,0,0,1,,,,,,,,,,,,,,,0,,,68,0
102960,control_change,0,0,1,,,,,,,,,,,,,,,0,91,127,,
102960,set_tempo,240,1,0,,,,,,,,,,,,415225,,,,,,,
102960,text,0,1,1,,,,,,,,,,,,,,,,,,,
102960,note_on,120,0,2,,,,,,,,,,,,,,,0,,,49,73
102960,note_on,120,0,1,,,,,,,,,,,,,,,0,,,76,85
103080,note_on,0,0,2,,,,,,,,,,,,,,,0,,,61,67
103080,note_on,120,0,1,,,,,,,,,,,,,,,0,,,76,0
103080,note_on,0,0,1,,,,,,,,,,,,,,,0,,,77,70
103080,note_on,120,0,2,,,,,,,,,,,,,,,0,,,49,0
103200,set_tempo,240,1,0,,,,,,,,,,,,427046,,,,,,,
103200,note_on,0,0,2,,,,,,,,,,,,,,,0,,,56,70
103200,note_on,120,0,2,,,,,,,,,,,,,,,0,,,61,0
103200,note_on,0,0,1,,,,,,,,,,,,,,,0,,,73,75
103200,note_on,120,0,1,,,,,,,,,,,,,,,0,,,77,0
103320,note_on,120,0,2,,,,,,,,,,,,,,,0,,,56,0
103320,note_on,0,0,1,,,,,,,,,,,,,,,0,,,68,70
103320,note_on,120,0,1,,,,,,,,,,,,,,,0,,,73,0
103320,note_on,0,0,2,,,,,,,,,,,,,,,0,,,53,67
103440,note_on,0,0,1,,,,,,,,,,,,,,,0,,,65,76
103440,note_on,120,0,1,,,,,,,,,,,,,,,0,,,68,0
103440,set_tempo,240,1,0,,,,,,,,,,,,476190,,,,,,,
103440,note_on,0,0,2,,,,,,,,,,,,,,,0,,,49,70
103440,note_on,120,0,2,,,,,,,,,,,,,,,0,,,53,0
103560,note_on,120,0,2,,,,,,,,,,,,,,,0,,,49,0
103560,note_on,120,0,1,,,,,,,,,,,,,,,0,,,65,0
103680,note_on,0,0,1,,,,,,,,,,,,,,,0,,,75,89
103680,note_on,0,0,1,,,,,,,,,,,,,,,0,,,72,75
103680,note_on,0,0,1,,,,,,,,,,,,,,,0,,,65,75
103680,set_tempo,240,1,0,,,,,,,,,,,,436364,,,,,,,
103680,control_change,0,0,2,,,,,,,,,,,,,,,0,64,127,,
103680,note_on,120,0,2,,,,,,,,,,,,,,,0,,,41,73
103680,note_on,120,0,1,,,,,,,,,,,,,,,0,,,63,75
103800,note_on,120,0,2,,,,,,,,,,,,,,,0,,,41,0
103800,note_on,0,0,2,,,,,,,,,,,,,,,0,,,42,70
103920,note_on,0,0,2,,,,,,,,,,,,,,,0,,,43,74
103920,note_on,120,0,2,,,,,,,,,,,,,,,0,,,42,0
104040,note_on,0,0,2,,,,,,,,,,,,,,,0,,,44,77
104040,note_on,120,0,2,,,,,,,,,,,,,,,0,,,43,0
104040,note_on,0,0,1,,,,,,,,,,,,,,,0,,,72,72
104040,note_on,0,0,1,,,,,,,,,,,,,,,0,,,65,72
104040,note_on,0,0,1,,,,,,,,,,,,,,,0,,,63,72
104040,note_on,0,0,1,,,,,,,,,,,,,,,0,,,72,0
104040,note_on,0,0,1,,,,,,,,,,,,,,,0,,,63,0
104040,note_on,360,0,1,,,,,,,,,,,,,,,0,,,75,0
104040,note_on,0,0,1,,,,,,,,,,,,,,,0,,,75,85
104040,note_on,0,0,1,,,,,,,,,,,,,,,0,,,65,0
104160,note_on,0,0,1,,,,,,,,,,,,,,,0,,,65,75
104160,note_on,0,0,2,,,,,,,,,,,,,,,0,,,45,81
104160,note_on,120,0,1,,,,,,,,,,,,,,,0,,,75,0
104160,note_on,0,0,1,,,,,,,,,,,,,,,0,,,75,89
104160,note_on,0,0,1,,,,,,,,,,,,,,,0,,,72,75
104160,note_on,0,0,1,,,,,,,,,,,,,,,0,,,65,0
104160,note_on,120,0,2,,,,,,,,,,,,,,,0,,,44,0
104160,note_on,0,0,1,,,,,,,,,,,,,,,0,,,63,0
104160,note_on,0,0,1,,,,,,,,,,,,,,,0,,,72,0
104160,note_on,0,0,1,,,,,,,,,,,,,,,0,,,63,75
104160,set_tempo,480,1,0,,,,,,,,,,,,476190,,,,,,,
104280,note_on,120,0,2,,,,,,,,,,,,,,,0,,,45,0
104280,control_change,0,0,2,,,,,,,,,,,,,,,0,64,0,,
104280,note_on,0,0,1,,,,,,,,,,,,,,,0,,,65,0
104280,note_on,120,0,1,,,,,,,,,,,,,,,0,,,75,0
104280,note_on,0,0,1,,,,,,,,,,,,,,,0,,,72,0
104280,note_on,0,0,1,,,,,,,,,,,,,,,0,,,63,0
104400,control_change,0,0,1,,,,,,,,,,,,,,,0,91,127,,
104400,text,0,1,1,,,,,,,,,,,,,,,,,,,
104400,set_tempo,240,1,0,,,,,,,,,,,,415225,,,,,,,
104400,note_on,120,0,1,,,,,,,,,,,,,,,0,,,72,85
104400,note_on,120,0,2,,,,,,,,,,,,,,,0,,,46,73
104520,note_on,120,0,1,,,,,,,,,,,,,,,0,,,72,0
104520,note_on,0,0,1,,,,,,,,,,,,,,,0,,,73,70
104520,note_on,0,0,2,,,,,,,,,,,,,,,0,,,58,67
104520,note_on,120,0,2,,,,,,,,,,,,,,,0,,,46,0
104640,note_on,0,0,2,,,,,,,,,,,,,,,0,,,53,70
104640,note_on,120,0,1,,,,,,,,,,,,,,,0,,,73,0
104640,note_on,0,0,1,,,,,,,,,,,,,,,0,,,70,75
104640,set_tempo,240,1,0,,,,,,,,,,,,427046,,,,,,,
104640,note_on,120,0,2,,,,,,,,,,,,,,,0,,,58,0
104760,note_on,120,0,2,,,,,,,,,,,,,,,0,,,53,0
104760,note_on,120,0,1,,,,,,,,,,,,,,,0,,,70,0
104760,note_on,0,0,1,,,,,,,,,,,,,,,0,,,65,70
104760,note_on,0,0,2,,,,,,,,,,,,,,,0,,,49,67
104880,note_on,0,0,1,,,,,,,,,,,,,,,0,,,61,76
104880,note_on,120,0,2,,,,,,,,,,,,,,,0,,,49,0
104880,set_tempo,240,1,0,,,,,,,,,,,,504202,,,,,,,
104880,note_on,120,0,1,,,,,,,,,,,,,,,0,,,65,0
104880,note_on,0,0,2,,,,,,,,,,,,,,,0,,,46,70
105000,note_on,120,0,2,,,,,,,,,,,,,,,0,,,46,0
105000,note_on,120,0,1,,,,,,,,,,,,,,,0,,,61,0
105120,note_on,120,0,2,,,,,,,,,,,,,,,0,,,43,37
105120,note_on,0,0,2,,,,,,,,,,,,,,,0,,,55,45
105120,note_on,120,0,1,,,,,,,,,,,,,,,0,,,84,59
105120,control_change,0,0,1,,,,,,,,,,,,,,,0,91,127,,
105120,set_tempo,240,1,0,,,,,,,,,,,,415225,,,,,,,
105120,text,0,1,1,,,,,,,,,,,,,,,,,,,
105137,control_change,17,0,2,,,,,,,,,,,,,,,0,64,127,,
105240,note_on,0,0,1,,,,,,,,,,,,,,,0,,,85,49
105240,note_on,120,0,1,,,,,,,,,,,,,,,0,,,84,0
105360,set_tempo,240,1,0,,,,,,,,,,,,427046,,,,,,,
105360,note_on,0,0,1,,,,,,,,,,,,,,,0,,,82,52
105360,note_on,120,0,1,,,,,,,,,,,,,,,0,,,85,0
105480,note_on,0,0,1,,,,,,,,,,,,,,,0,,,79,49
105480,note_on,120,0,1,,,,,,,,,,,,,,,0,,,82,0
105600,note_on,0,0,2,,,,,,,,,,,,,,,0,,,58,31
105600,note_on,0,0,2,,,,,,,,,,,,,,,0,,,61,31
105600,note_on,463,0,2,,,,,,,,,,,,,,,0,,,55,0
105600,note_on,0,0,2,,,,,,,,,,,,,,,0,,,55,31
105600,set_tempo,240,1,0,,,,,,,,,,,,476190,,,,,,,
105600,note_on,0,0,2,,,,,,,,,,,,,,,0,,,43,0
105600,note_on,0,0,2,,,,,,,,,,,,,,,0,,,64,37
105600,note_on,120,0,1,,,,,,,,,,,,,,,0,,,79,0
105600,note_on,0,0,1,,,,,,,,,,,,,,,0,,,73,53
105629,control_change,29,0,2,,,,,,,,,,,,,,,0,64,0,,
105720,note_on,0,0,2,,,,,,,,,,,,,,,0,,,61,0
105720,note_on,91,0,2,,,,,,,,,,,,,,,0,,,55,0
105720,note_on,0,0,2,,,,,,,,,,,,,,,0,,,64,0
105720,note_on,0,0,2,,,,,,,,,,,,,,,0,,,58,0
105720,note_on,120,0,1,,,,,,,,,,,,,,,0,,,73,0
105840,set_tempo,240,1,0,,,,,,,,,,,,415225,,,,,,,
105840,note_on,0,0,2,,,,,,,,,,,,,,,0,,,56,49
105840,note_on,120,0,2,,,,,,,,,,,,,,,0,,,44,40
105840,control_change,0,0,1,,,,,,,,,,,,,,,0,91,127,,
105840,text,0,1,1,,,,,,,,,,,,,,,,,,,
105840,note_on,120,0,1,,,,,,,,,,,,,,,0,,,83,64
105857,control_change,17,0,2,,,,,,,,,,,,,,,0,64,127,,
105960,note_on,120,0,1,,,,,,,,,,,,,,,0,,,83,0
105960,note_on,0,0,1,,,,,,,,,,,,,,,0,,,84,53
106080,set_tempo,240,1,0,,,,,,,,,,,,427046,,,,,,,
106080,note_on,0,0,1,,,,,,,,,,,,,,,0,,,80,57
106080,note_on,120,0,1,,,,,,,,,,,,,,,0,,,84,0
106200,note_on,120,0,1,,,,,,,,,,,,,,,0,,,80,0
106200,note_on,0,0,1,,,,,,,,,,,,,,,0,,,75,53
106320,note_on,0,0,1,,,,,,,,,,,,,,,0,,,72,58
106320,note_on,0,0,2,,,,,,,,,,,,,,,0,,,56,34
106320,note_on,120,0,1,,,,,,,,,,,,,,,0,,,75,0
106320,note_on,0,0,2,,,,,,,,,,,,,,,0,,,63,40
106320,note_on,0,0,2,,,,,,,,,,,,,,,0,,,44,0
106320,note_on,463,0,2,,,,,,,,,,,,,,,0,,,56,0
106320,set_tempo,240,1,0,,,,,,,,,,,,476190,,,,,,,
106320,note_on,0,0,2,,,,,,,,,,,,,,,0,,,60,34
106349,control_change,29,0,2,,,,,,,,,,,,,,,0,64,0,,
106440,note_on,0,0,2,,,,,,,,,,,,,,,0,,,60,0
106440,note_on,0,0,2,,,,,,,,,,,,,,,0,,,63,0
106440,note_on,120,0,1,,,,,,,,,,,,,,,0,,,72,0
106440,note_on,91,0,2,,,,,,,,,,,,,,,0,,,56,0
106560,note_on,120,0,1,,,,,,,,,,,,,,,0,,,75,76
106560,control_change,0,0,1,,,,,,,,,,,,,,,0,91,127,,
106560,note_on,120,0,2,,,,,,,,,,,,,,,0,,,34,49
106560,note_on,0,0,2,,,,,,,,,,,,,,,0,,,46,58
106560,text,0,1,1,,,,,,,,,,,,,,,,,,,
106560,set_tempo,240,1,0,,,,,,,,,,,,409556,,,,,,,
106577,control_change,17,0,2,,,,,,,,,,,,,,,0,64,127,,
106680,note_on,0,0,1,,,,,,,,,,,,,,,0,,,76,63
106680,note_on,120,0,1,,,,,,,,,,,,,,,0,,,75,0
106800,note_on,0,0,1,,,,,,,,,,,,,,,0,,,73,68
106800,note_on,120,0,1,,,,,,,,,,,,,,,0,,,76,0
106800,set_tempo,240,1,0,,,,,,,,,,,,427046,,,,,,,
106920,note_on,0,0,1,,,,,,,,,,,,,,,0,,,70,63
106920,note_on,120,0,1,,,,,,,,,,,,,,,0,,,73,0
107040,note_on,463,0,2,,,,,,,,,,,,,,,0,,,46,0
107040,note_on,0,0,2,,,,,,,,,,,,,,,0,,,49,40
107040,note_on,0,0,1,,,,,,,,,,,,,,,0,,,64,69
107040,set_tempo,240,1,0,,,,,,,,,,,,452830,,,,,,,
107040,note_on,0,0,2,,,,,,,,,,,,,,,0,,,34,0
107040,note_on,0,0,2,,,,,,,,,,,,,,,0,,,55,49
107040,note_on,0,0,2,,,,,,,,,,,,,,,0,,,46,40
107040,note_on,120,0,1,,,,,,,,,,,,,,,0,,,70,0
107069,control_change,29,0,2,,,,,,,,,,,,,,,0,64,0,,
107160,note_on,91,0,2,,,,,,,,,,,,,,,0,,,46,0
107160,note_on,0,0,2,,,,,,,,,,,,,,,0,,,49,0
107160,note_on,0,0,2,,,,,,,,,,,,,,,0,,,55,0
107160,note_on,120,0,1,,,,,,,,,,,,,,,0,,,64,0
107280,set_tempo,240,1,0,,,,,,,,,,,,408163,,,,,,,
107280,note_on,0,0,2,,,,,,,,,,,,,,,0,,,47,64
107280,note_on,120,0,2,,,,,,,,,,,,,,,0,,,35,54
107280,control_change,0,0,1,,,,,,,,,,,,,,,0,91,127,,
107280,text,0,1,1,,,,,,,,,,,,,,,,,,,
107280,note_on,120,0,1,,,,,,,,,,,,,,,0,,,74,84
107297,control_change,17,0,2,,,,,,,,,,,,,,,0,64,127,,
107400,note_on,120,0,1,,,,,,,,,,,,,,,0,,,74,0
107400,note_on,0,0,1,,,,,,,,,,,,,,,0,,,75,69
107520,note_on,120,0,1,,,,,,,,,,,,,,,0,,,75,0
107520,note_on,0,0,1,,,,,,,,,,,,,,,0,,,71,74
107520,set_tempo,240,1,0,,,,,,,,,,,,427046,,,,,,,
107640,note_on,0,0,1,,,,,,,,,,,,,,,0,,,68,69
107640,note_on,120,0,1,,,,,,,,,,,,,,,0,,,71,0
107760,note_on,0,0,2,,,,,,,,,,,,,,,0,,,35,0
107760,note_on,120,0,1,,,,,,,,,,,,,,,0,,,68,0
107760,note_on,0,0,1,,,,,,,,,,,,,,,0,,,63,75
107760,note_on,0,0,2,,,,,,,,,,,,,,,0,,,56,54
107760,note_on,463,0,2,,,,,,,,,,,,,,,0,,,47,0
107760,note_on,0,0,2,,,,,,,,,,,,,,,0,,,51,44
107760,note_on,0,0,2,,,,,,,,,,,,,,,0,,,47,44
107760,set_tempo,240,1,0,,,,,,,,,,,,476190,,,,,,,
107789,control_change,29,0,2,,,,,,,,,,,,,,,0,64,0,,
107880,note_on,0,0,2,,,,,,,,,,,,,,,0,,,51,0
107880,note_on,120,0,1,,,,,,,,,,,,,,,0,,,63,0
107880,note_on,91,0,2,,,,,,,,,,,,,,,0,,,47,0
107880,note_on,0,0,2,,,,,,,,,,,,,,,0,,,56,0
108000,note_on,0,0,1,,,,,,,,,,,,,,,0,,,68,80
108000,control_change,0,0,2,,,,,,,,,,,,,,,0,64,127,,
108000,note_on,0,0,2,,,,,,,,,,,,,,,0,,,52,70
108000,note_on,0,0,1,,,,,,,,,,,,,,,0,,,80,94
108000,note_on,120,0,1,,,,,,,,,,,,,,,0,,,75,80
108000,set_tempo,240,1,0,,,,,,,,,,,,442804,,,,,,,
108000,note_on,120,0,2,,,,,,,,,,,,,,,0,,,40,60
108120,set_tempo,120,1,0,,,,,,,,,,,,441176,,,,,,,
108240,set_tempo,120,1,0,,,,,,,,,,,,439560,,,,,,,
108340,set_tempo,100,1,0,,,,,,,,,,,,437956,,,,,,,
108360,note_on,0,0,1,,,,,,,,,,,,,,,0,,,75,0
108360,note_on,0,0,1,,,,,,,,,,,,,,,0,,,68,0
108360,note_on,0,0,2,,,,,,,,,,,,,,,0,,,40,0
108360,note_on,360,0,1,,,,,,,,,,,,,,,0,,,80,0
108360,note_on,0,0,1,,,,,,,,,,,,,,,0,,,68,76
108360,note_on,0,0,1,,,,,,,,,,,,,,,0,,,75,76
108360,note_on,0,0,1,,,,,,,,,,,,,,,0,,,80,91
108360,note_on,360,0,2,,,,,,,,,,,,,,,0,,,52,0
108360,note_on,0,0,2,,,,,,,,,,,,,,,0,,,28,54
108360,note_on,0,0,2,,,,,,,,,,,,,,,0,,,40,64
108460,set_tempo,120,1,0,,,,,,,,,,,,436364,,,,,,,
108480,note_on,0,0,1,,,,,,,,,,,,,,,0,,,75,76
108480,note_on,0,0,1,,,,,,,,,,,,,,,0,,,68,0
108480,note_on,0,0,1,,,,,,,,,,,,,,,0,,,75,0
108480,note_on,0,0,1,,,,,,,,,,,,,,,0,,,80,91
108480,note_on,0,0,2,,,,,,,,,,,,,,,0,,,28,54
108480,note_on,0,0,2,,,,,,,,,,,,,,,0,,,28,0
108480,note_on,0,0,2,,,,,,,,,,,,,,,0,,,40,64
108480,note_on,120,0,2,,,,,,,,,,,,,,,0,,,40,0
108480,note_on,0,0,1,,,,,,,,,,,,,,,0,,,68,76
108480,note_on,120,0,1,,,,,,,,,,,,,,,0,,,80,0
108560,set_tempo,100,1,0,,,,,,,,,,,,434783,,,,,,,
108680,set_tempo,120,1,0,,,,,,,,,,,,433213,,,,,,,
108720,note_on,0,0,2,,,,,,,,,,,,,,,0,,,28,0
108720,note_on,240,0,2,,,,,,,,,,,,,,,0,,,40,0
108720,note_on,240,0,1,,,,,,,,,,,,,,,0,,,80,0
108720,note_on,0,0,1,,,,,,,,,,,,,,,0,,,68,0
108720,note_on,0,0,2,,,,,,,,,,,,,,,0,,,40,72
108720,note_on,0,0,1,,,,,,,,,,,,,,,0,,,75,0
108720,note_on,0,0,1,,,,,,,,,,,,,,,0,,,75,81
108720,note_on,0,0,2,,,,,,,,,,,,,,,0,,,28,61
108720,note_on,0,0,1,,,,,,,,,,,,,,,0,,,68,81
108720,note_on,0,0,1,,,,,,,,,,,,,,,0,,,80,97
108780,set_tempo,100,1,0,,,,,,,,,,,,431655,,,,,,,
108900,set_tempo,120,1,0,,,,,,,,,,,,430108,,,,,,,
108960,note_on,0,0,2,,,,,,,,,,,,,,,0,,,28,55
108960,note_on,0,0,1,,,,,,,,,,,,,,,0,,,75,75
108960,note_on,0,0,1,,,,,,,,,,,,,,,0,,,80,90
108960,note_on,0,0,1,,,,,,,,,,,,,,,0,,,68,0
108960,note_on,240,0,1,,,,,,,,,,,,,,,0,,,80,0
108960,note_on,240,0,2,,,,,,,,,,,,,,,0,,,40,0
108960,note_on,0,0,2,,,,,,,,,,,,,,,0,,,28,0
108960,note_on,0,0,2,,,,,,,,,,,,,,,0,,,40,66
108960,note_on,0,0,1,,,,,,,,,,,,,,,0,,,68,75
108960,note_on,0,0,1,,,,,,,,,,,,,,,0,,,75,0
109000,set_tempo,100,1,0,,,,,,,,,,,,428571,,,,,,,
109120,set_tempo,120,1,0,,,,,,,,,,,,427046,,,,,,,
109200,note_on,0,0,1,,,,,,,,,,,,,,,0,,,68,0
109200,note_on,0,0,1,,,,,,,,,,,,,,,0,,,75,75
109200,note_on,0,0,1,,,,,,,,,,,,,,,0,,,68,75
109200,note_on,0,0,1,,,,,,,,,,,,,,,0,,,80,90
109200,note_on,240,0,2,,,,,,,,,,,,,,,0,,,40,0
109200,note_on,0,0,2,,,,,,,,,,,,,,,0,,,28,0
109200,note_on,0,0,2,,,,,,,,,,,,,,,0,,,28,55
109200,note_on,0,0,2,,,,,,,,,,,,,,,0,,,40,66
109200,note_on,240,0,1,,,,,,,,,,,,,,,0,,,80,0
109200,note_on,0,0,1,,,,,,,,,,,,,,,0,,,75,0
109220,set_tempo,100,1,0,,,,,,,,,,,,425532,,,,,,,
109340,set_tempo,120,1,0,,,,,,,,,,,,424028,,,,,,,
109420,set_tempo,80,1,0,,,,,,,,,,,,421053,,,,,,,
109440,note_on,0,0,2,,,,,,,,,,,,,,,0,,,41,57
109440,note_on,240,0,2,,,,,,,,,,,,,,,0,,,40,0
109440,note_on,0,0,1,,,,,,,,,,,,,,,0,,,74,77
109440,note_on,0,0,2,,,,,,,,,,,,,,,0,,,28,0
109440,note_on,0,0,1,,,,,,,,,,,,,,,0,,,75,0
109440,note_on,0,0,1,,,,,,,,,,,,,,,0,,,68,0
109440,note_on,240,0,1,,,,,,,,,,,,,,,0,,,80,0
109440,note_on,0,0,1,,,,,,,,,,,,,,,0,,,68,65
109451,control_change,11,0,2,,,,,,,,,,,,,,,0,64,0,,
109497,control_change,46,0,2,,,,,,,,,,,,,,,0,64,127,,
109520,set_tempo,100,1,0,,,,,,,,,,,,419580,,,,,,,
109560,note_on,120,0,1,,,,,,,,,,,,,,,0,,,74,0
109560,note_on,0,0,1,,,,,,,,,,,,,,,0,,,68,0
109560,note_on,0,0,1,,,,,,,,,,,,,,,0,,,80,79
109560,note_on,63,0,2,,,,,,,,,,,,,,,0,,,41,0
109560,note_on,0,0,2,,,,,,,,,,,,,,,0,,,42,59
109600,set_tempo,80,1,0,,,,,,,,,,,,418118,,,,,,,
109680,set_tempo,80,1,0,,,,,,,,,,,,416667,,,,,,,
109680,note_on,120,0,2,,,,,,,,,,,,,,,0,,,42,0
109680,note_on,0,0,2,,,,,,,,,,,,,,,0,,,43,61
109680,note_on,0,0,1,,,,,,,,,,,,,,,0,,,68,68
109680,note_on,120,0,1,,,,,,,,,,,,,,,0,,,80,0
109680,note_on,0,0,1,,,,,,,,,,,,,,,0,,,74,81
109760,set_tempo,80,1,0,,,,,,,,,,,,415225,,,,,,,
109800,note_on,0,0,2,,,,,,,,,,,,,,,0,,,44,62
109800,note_on,120,0,1,,,,,,,,,,,,,,,0,,,74,0
109800,note_on,0,0,1,,,,,,,,,,,,,,,0,,,68,0
109800,note_on,0,0,1,,,,,,,,,,,,,,,0,,,80,83
109800,note_on,120,0,2,,,,,,,,,,,,,,,0,,,43,0
109860,set_tempo,100,1,0,,,,,,,,,,,,413793,,,,,,,
109920,note_on,120,0,1,,,,,,,,,,,,,,,0,,,80,0
109920,note_on,0,0,1,,,,,,,,,,,,,,,0,,,68,72
109920,note_on,0,0,1,,,,,,,,,,,,,,,0,,,74,85
109920,note_on,120,0,2,,,,,,,,,,,,,,,0,,,44,0
109920,note_on,0,0,2,,,,,,,,,,,,,,,0,,,45,64
109940,set_tempo,80,1,0,,,,,,,,,,,,412371,,,,,,,
110020,set_tempo,80,1,0,,,,,,,,,,,,410959,,,,,,,
110040,note_on,0,0,2,,,,,,,,,,,,,,,0,,,46,66
110040,note_on,0,0,1,,,,,,,,,,,,,,,0,,,80,86
110040,note_on,120,0,1,,,,,,,,,,,,,,,0,,,74,0
110040,note_on,120,0,2,,,,,,,,,,,,,,,0,,,45,0
110040,note_on,0,0,1,,,,,,,,,,,,,,,0,,,68,0
110100,set_tempo,80,1,0,,,,,,,,,,,,409556,,,,,,,
110160,note_on,0,0,1,,,,,,,,,,,,,,,0,,,74,88
110160,note_on,120,0,2,,,,,,,,,,,,,,,0,,,46,0
110160,note_on,120,0,1,,,,,,,,,,,,,,,0,,,80,0
110160,note_on,0,0,2,,,,,,,,,,,,,,,0,,,47,68
110160,note_on,0,0,1,,,,,,,,,,,,,,,0,,,68,74
110280,note_on,120,0,2,,,,,,,,,,,,,,,0,,,47,0
110280,note_on,0,0,2,,,,,,,,,,,,,,,0,,,48,70
110280,note_on,0,0,1,,,,,,,,,,,,,,,0,,,80,90
110280,note_on,0,0,1,,,,,,,,,,,,,,,0,,,68,0
110280,note_on,120,0,1,,,,,,,,,,,,,,,0,,,74,0
110400,note_on,0,0,1,,,,,,,,,,,,,,,0,,,68,78
110400,note_on,120,0,2,,,,,,,,,,,,,,,0,,,48,0
110400,note_on,0,0,2,,,,,,,,,,,,,,,0,,,49,71
110400,note_on,0,0,1,,,,,,,,,,,,,,,0,,,74,92
110400,note_on,120,0,1,,,,,,,,,,,,,,,0,,,80,0
110520,note_on,0,0,2,,,,,,,,,,,,,,,0,,,50,73
110520,note_on,120,0,2,,,,,,,,,,,,,,,0,,,49,0
110520,note_on,0,0,1,,,,,,,,,,,,,,,0,,,68,0
110520,note_on,120,0,1,,,,,,,,,,,,,,,0,,,74,0
110520,note_on,0,0,1,,,,,,,,,,,,,,,0,,,80,94
110640,note_on,0,0,1,,,,,,,,,,,,,,,0,,,74,95
110640,note_on,0,0,1,,,,,,,,,,,,,,,0,,,68,80
110640,note_on,0,0,2,,,,,,,,,,,,,,,0,,,51,75
110640,note_on,120,0,1,,,,,,,,,,,,,,,0,,,80,0
110640,note_on,120,0,2,,,,,,,,,,,,,,,0,,,50,0
110760,note_on,0,0,2,,,,,,,,,,,,,,,0,,,52,77
110760,note_on,120,0,2,,,,,,,,,,,,,,,0,,,51,0
110760,note_on,0,0,1,,,,,,,,,,,,,,,0,,,80,97
110760,note_on,0,0,1,,,,,,,,,,,,,,,0,,,68,0
110760,note_on,120,0,1,,,,,,,,,,,,,,,0,,,74,0
110880,note_on,120,0,1,,,,,,,,,,,,,,,0,,,80,0
110880,note_on,0,0,2,,,,,,,,,,,,,,,0,,,40,72
110880,note_on,0,0,2,,,,,,,,,,,,,,,0,,,52,85
110880,control_change,0,0,2,,,,,,,,,,,,,,,0,64,0,,
110880,note_on,120,0,2,,,,,,,,,,,,,,,0,,,52,0
110880,note_on,0,0,1,,,,,,,,,,,,,,,0,,,80,106
110880,note_on,0,0,1,,,,,,,,,,,,,,,0,,,74,90
110880,note_on,0,0,1,,,,,,,,,,,,,,,0,,,68,90
110880,set_tempo,780,1,0,,,,,,,,,,,,444444,,,,,,,
111120,note_on,240,0,2,,,,,,,,,,,,,,,0,,,52,0
111120,note_on,0,0,2,,,,,,,,,,,,,,,0,,,40,0
111120,set_tempo,240,1,0,,,,,,,,,,,,419580,,,,,,,
111120,note_on,0,0,2,,,,,,,,,,,,,,,0,,,64,77
111120,note_on,240,0,1,,,,,,,,,,,,,,,0,,,80,0
111120,note_on,0,0,1,,,,,,,,,,,,,,,0,,,74,0
111120,note_on,0,0,1,,,,,,,,,,,,,,,0,,,70,80
111120,note_on,0,0,1,,,,,,,,,,,,,,,0,,,74,80
111120,note_on,0,0,1,,,,,,,,,,,,,,,0,,,80,80
111120,note_on,0,0,1,,,,,,,,,,,,,,,0,,,82,95
111120,note_on,0,0,2,,,,,,,,,,,,,,,0,,,52,65
111120,note_on,0,0,1,,,,,,,,,,,,,,,0,,,68,0
111240,note_on,120,0,2,,,,,,,,,,,,,,,0,,,64,0
111240,note_on,0,0,2,,,,,,,,,,,,,,,0,,,52,0
111240,note_on,120,0,1,,,,,,,,,,,,,,,0,,,82,0
111240,note_on,0,0,1,,,,,,,,,,,,,,,0,,,70,0
111240,note_on,0,0,1,,,,,,,,,,,,,,,0,,,74,0
111240,note_on,0,0,1,,,,,,,,,,,,,,,0,,,80,0
111360,note_on,0,0,2,,,,,,,,,,,,,,,0,,,52,65
111360,note_on,0,0,1,,,,,,,,,,,,,,,0,,,82,95
111360,set_tempo,240,1,0,,,,,,,,,,,,434783,,,,,,,
111360,note_on,120,0,2,,,,,,,,,,,,,,,0,,,64,77
111360,note_on,0,0,1,,,,,,,,,,,,,,,0,,,80,80
111360,note_on,120,0,1,,,,,,,,,,,,,,,0,,,70,80
111360,note_on,0,0,1,,,,,,,,,,,,,,,0,,,74,80
111480,note_on,0,0,2,,,,,,,,,,,,,,,0,,,64,0
111480,note_on,120,0,2,,,,,,,,,,,,,,,0,,,52,0
111480,note_on,120,0,1,,,,,,,,,,,,,,,0,,,82,0
111480,note_on,0,0,1,,,,,,,,,,,,,,,0,,,70,0
111480,note_on,0,0,1,,,,,,,,,,,,,,,0,,,74,0
111480,note_on,0,0,1,,,,,,,,,,,,,,,0,,,80,0
111600,note_on,120,0,1,,,,,,,,,,,,,,,0,,,70,88
111600,note_on,0,0,1,,,,,,,,,,,,,,,0,,,74,88
111600,note_on,0,0,1,,,,,,,,,,,,,,,0,,,80,88
111600,note_on,0,0,1,,,,,,,,,,,,,,,0,,,82,104
111600,note_on,120,0,2,,,,,,,,,,,,,,,0,,,52,72
111600,note_on,0,0,2,,,,,,,,,,,,,,,0,,,64,85
111600,set_tempo,240,1,0,,,,,,,,,,,,434783,,,,,,,
111720,note_on,0,0,1,,,,,,,,,,,,,,,0,,,74,0
111720,note_on,120,0,2,,,,,,,,,,,,,,,0,,,64,0
111720,note_on,0,0,2,,,,,,,,,,,,,,,0,,,52,0
111720,note_on,120,0,1,,,,,,,,,,,,,,,0,,,82,0
111720,note_on,0,0,1,,,,,,,,,,,,,,,0,,,70,0
111720,note_on,0,0,1,,,,,,,,,,,,,,,0,,,80,0
111840,note_on,0,0,1,,,,,,,,,,,,,,,0,,,82,95
111840,note_on,0,0,1,,,,,,,,,,,,,,,0,,,80,80
111840,note_on,0,0,1,,,,,,,,,,,,,,,0,,,74,80
111840,note_on,0,0,2,,,,,,,,,,,,,,,0,,,64,77
111840,note_on,120,0,1,,,,,,,,,,,,,,,0,,,70,80
111840,note_on,120,0,2,,,,,,,,,,,,,,,0,,,52,65
111840,set_tempo,240,1,0,,,,,,,,,,,,422535,,,,,,,
111960,note_on,0,0,2,,,,,,,,,,,,,,,0,,,52,0
111960,note_on,0,0,1,,,,,,,,,,,,,,,0,,,80,0
111960,note_on,120,0,2,,,,,,,,,,,,,,,0,,,64,0
111960,note_on,120,0,1,,,,,,,,,,,,,,,0,,,82,0
111960,note_on,0,0,1,,,,,,,,,,,,,,,0,,,70,0
111960,note_on,0,0,1,,,,,,,,,,,,,,,0,,,74,0
112080,note_on,120,0,1,,,,,,,,,,,,,,,0,,,70,80
112080,note_on,0,0,1,,,,,,,,,,,,,,,0,,,74,80
112080,note_on,0,0,1,,,,,,,,,,,,,,,0,,,80,80
112080,note_on,0,0,1,,,,,,,,,,,,,,,0,,,82,95
112080,note_on,120,0,2,,,,,,,,,,,,,,,0,,,52,65
112080,note_on,0,0,2,,,,,,,,,,,,,,,0,,,64,77
112080,set_tempo,240,1,0,,,,,,,,,,,,434783,,,,,,,
112200,note_on,0,0,1,,,,,,,,,,,,,,,0,,,74,0
112200,note_on,0,0,1,,,,,,,,,,,,,,,0,,,70,0
112200,note_on,120,0,1,,,,,,,,,,,,,,,0,,,82,0
112200,note_on,0,0,2,,,,,,,,,,,,,,,0,,,52,0
112200,note_on,120,0,2,,,,,,,,,,,,,,,0,,,64,0
112200,note_on,0,0,1,,,,,,,,,,,,,,,0,,,80,0
112320,note_on,120,0,1,,,,,,,,,,,,,,,0,,,72,80
112320,note_on,0,0,1,,,,,,,,,,,,,,,0,,,80,80
112320,note_on,0,0,1,,,,,,,,,,,,,,,0,,,84,95
112320,set_tempo,240,1,0,,,,,,,,,,,,472441,,,,,,,
112320,note_on,120,0,2,,,,,,,,,,,,,,,0,,,51,73
112320,note_on,0,0,2,,,,,,,,,,,,,,,0,,,63,87
112320,note_on,0,0,1,,,,,,,,,,,,,,,0,,,75,80
112440,note_on,0,0,1,,,,,,,,,,,,,,,0,,,80,0
112440,note_on,0,0,2,,,,,,,,,,,,,,,0,,,51,0
112440,note_on,120,0,2,,,,,,,,,,,,,,,0,,,63,0
112440,note_on,120,0,1,,,,,,,,,,,,,,,0,,,84,0
112440,note_on,0,0,1,,,,,,,,,,,,,,,0,,,72,0
112440,note_on,0,0,1,,,,,,,,,,,,,,,0,,,75,0
112560,note_on,0,0,1,,,,,,,,,,,,,,,0,,,75,80
112560,note_on,0,0,1,,,,,,,,,,,,,,,0,,,80,80
112560,note_on,0,0,1,,,,,,,,,,,,,,,0,,,84,80
112560,note_on,120,0,1,,,,,,,,,,,,,,,0,,,87,95
112560,set_tempo,240,1,0,,,,,,,,,,,,441176,,,,,,,
112560,note_on,0,0,2,,,,,,,,,,,,,,,0,,,39,65
112560,note_on,120,0,2,,,,,,,,,,,,,,,0,,,51,77
112680,note_on,0,0,2,,,,,,,,,,,,,,,0,,,51,0
112680,note_on,120,0,2,,,,,,,,,,,,,,,0,,,39,0
112680,note_on,120,0,1,,,,,,,,,,,,,,,0,,,75,0
112680,note_on,0,0,1,,,,,,,,,,,,,,,0,,,87,0
112680,note_on,0,0,1,,,,,,,,,,,,,,,0,,,84,0
112680,note_on,0,0,1,,,,,,,,,,,,,,,0,,,80,0
113040,note_on,0,0,1,,,,,,,,,,,,,,,0,,,79,80
113040,note_on,0,0,1,,,,,,,,,,,,,,,0,,,82,95
113040,note_on,0,0,2,,,,,,,,,,,,,,,0,,,63,87
113040,note_on,360,0,2,,,,,,,,,,,,,,,0,,,51,73
113040,note_on,360,0,1,,,,,,,,,,,,,,,0,,,75,80
113040,set_tempo,480,1,0,,,,,,,,,,,,472441,,,,,,,
113160,note_on,120,0,1,,,,,,,,,,,,,,,0,,,82,0
113160,note_on,0,0,1,,,,,,,,,,,,,,,0,,,79,0
113160,note_on,0,0,1,,,,,,,,,,,,,,,0,,,75,0
113160,note_on,0,0,2,,,,,,,,,,,,,,,0,,,51,0
113160,note_on,120,0,2,,,,,,,,,,,,,,,0,,,63,0
113280,note_on,0,0,2,,,,,,,,,,,,,,,0,,,39,65
113280,note_on,120,0,2,,,,,,,,,,,,,,,0,,,51,77
113280,note_on,120,0,1,,,,,,,,,,,,,,,0,,,87,95
113280,note_on,0,0,1,,,,,,,,,,,,,,,0,,,79,80
113280,note_on,0,0,1,,,,,,,,,,,,,,,0,,,75,80
113280,set_tempo,240,1,0,,,,,,,,,,,,441176,,,,,,,
113400,note_on,120,0,2,,,,,,,,,,,,,,,0,,,39,0
113400,note_on,0,0,2,,,,,,,,,,,,,,,0,,,51,0
113400,note_on,120,0,1,,,,,,,,,,,,,,,0,,,75,0
113400,note_on,0,0,1,,,,,,,,,,,,,,,0,,,79,0
113400,note_on,0,0,1,,,,,,,,,,,,,,,0,,,87,0
113520,set_tempo,240,1,0,,,,,,,,,,,,538117,,,,,,,
113760,note_on,0,0,1,,,,,,,,,,,,,,,0,,,72,47
113760,note_on,360,0,2,,,,,,,,,,,,,,,0,,,51,43
113760,note_on,0,0,1,,,,,,,,,,,,,,,0,,,68,40
113760,note_on,360,0,1,,,,,,,,,,,,,,,0,,,63,40
113760,set_tempo,240,1,0,,,,,,,,,,,,588235,,,,,,,
113850,note_on,0,0,1,,,,,,,,,,,,,,,0,,,63,0
113850,note_on,0,0,1,,,,,,,,,,,,,,,0,,,68,0
113850,note_on,90,0,1,,,,,,,,,,,,,,,0,,,72,0
113850,note_on,90,0,2,,,,,,,,,,,,,,,0,,,51,0
114000,note_on,150,0,2,,,,,,,,,,,,,,,0,,,39,38
114000,set_tempo,240,1,0,,,,,,,,,,,,547945,,,,,,,
114000,note_on,150,0,1,,,,,,,,,,,,,,,0,,,75,47
114000,note_on,0,0,1,,,,,,,,,,,,,,,0,,,72,40
114000,note_on,0,0,1,,,,,,,,,,,,,,,0,,,63,40
114090,note_on,90,0,2,,,,,,,,,,,,,,,0,,,39,0
114090,note_on,0,0,1,,,,,,,,,,,,,,,0,,,72,0
114090,note_on,90,0,1,,,,,,,,,,,,,,,0,,,63,0
114090,note_on,0,0,1,,,,,,,,,,,,,,,0,,,75,0
114240,set_tempo,240,1,0,,,,,,,,,,,,645161,,,,,,,
114480,note_on,0,0,1,,,,,,,,,,,,,,,0,,,70,47
114480,note_on,390,0,2,,,,,,,,,,,,,,,0,,,51,43
114480,note_on,390,0,1,,,,,,,,,,,,,,,0,,,63,40
114480,note_on,0,0,1,,,,,,,,,,,,,,,0,,,67,40
114480,set_tempo,240,1,0,,,,,,,,,,,,697674,,,,,,,
114570,note_on,90,0,2,,,,,,,,,,,,,,,0,,,51,0
114570,note_on,0,0,1,,,,,,,,,,,,,,,0,,,63,0
114570,note_on,0,0,1,,,,,,,,,,,,,,,0,,,67,0
114570,note_on,90,0,1,,,,,,,,,,,,,,,0,,,70,0
114720,note_on,0,0,1,,,,,,,,,,,,,,,0,,,63,40
114720,note_on,0,0,1,,,,,,,,,,,,,,,0,,,67,40
114720,note_on,150,0,1,,,,,,,,,,,,,,,0,,,75,47
114720,set_tempo,240,1,0,,,,,,,,,,,,638298,,,,,,,
114720,note_on,150,0,2,,,,,,,,,,,,,,,0,,,39,38
114810,note_on,90,0,2,,,,,,,,,,,,,,,0,,,39,0
114810,note_on,90,0,1,,,,,,,,,,,,,,,0,,,63,0
114810,note_on,0,0,1,,,,,,,,,,,,,,,0,,,67,0
114810,note_on,0,0,1,,,,,,,,,,,,,,,0,,,75,0
115200,set_tempo,480,1,0,,,,,,,,,,,,524338,,,,,,,
115200,note_on,390,0,2,,,,,,,,,,,,,,,0,,,44,35
115200,note_on,390,0,1,,,,,,,,,,,,,,,0,,,63,41
115200,note_on,0,0,1,,,,,,,,,,,,,,,0,,,75,49
115208,control_change,8,0,2,,,,,,,,,,,,,,,0,64,0,,
115253,control_change,45,0,2,,,,,,,,,,,,,,,0,64,127,,
115380,note_on,127,0,2,,,,,,,,,,,,,,,0,,,44,0
115440,note_on,0,0,2,,,,,,,,,,,,,,,0,,,51,25
115440,note_on,0,0,2,,,,,,,,,,,,,,,0,,,56,25
115440,note_on,60,0,2,,,,,,,,,,,,,,,0,,,60,30
115560,note_on,0,0,1,,,,,,,,,,,,,,,0,,,63,0
115560,note_on,0,0,1,,,,,,,,,,,,,,,0,,,75,44
115560,note_on,0,0,1,,,,,,,,,,,,,,,0,,,63,36
115560,note_on,360,0,1,,,,,,,,,,,,,,,0,,,75,0
115680,note_on,120,0,1,,,,,,,,,,,,,,,0,,,63,0
115680,note_on,0,0,1,,,,,,,,,,,,,,,0,,,63,39
115680,note_on,0,0,1,,,,,,,,,,,,,,,0,,,75,46
115680,set_tempo,480,1,0,,,,,,,,,,,,554375,,,,,,,
115680,note_on,0,0,1,,,,,,,,,,,,,,,0,,,75,0
115920,note_on,0,0,2,,,,,,,,,,,,,,,0,,,48,35
115920,note_on,0,0,2,,,,,,,,,,,,,,,0,,,60,0
115920,note_on,0,0,2,,,,,,,,,,,,,,,0,,,56,0
115920,note_on,480,0,2,,,,,,,,,,,,,,,0,,,51,0
115920,note_on,0,0,1,,,,,,,,,,,,,,,0,,,68,41
115920,set_tempo,240,1,0,,,,,,,,,,,,522193,,,,,,,
115920,note_on,240,0,1,,,,,,,,,,,,,,,0,,,75,0
115920,note_on,0,0,1,,,,,,,,,,,,,,,0,,,63,0
115920,note_on,0,0,1,,,,,,,,,,,,,,,0,,,80,49
115928,control_change,8,0,2,,,,,,,,,,,,,,,0,64,0,,
115966,control_change,38,0,2,,,,,,,,,,,,,,,0,64,127,,
116100,note_on,134,0,2,,,,,,,,,,,,,,,0,,,48,0
116160,note_on,60,0,2,,,,,,,,,,,,,,,0,,,63,28
116160,note_on,0,0,2,,,,,,,,,,,,,,,0,,,60,24
116160,note_on,0,0,2,,,,,,,,,,,,,,,0,,,56,24
116280,note_on,0,0,1,,,,,,,,,,,,,,,0,,,68,0
116280,note_on,0,0,1,,,,,,,,,,,,,,,0,,,80,44
116280,note_on,0,0,1,,,,,,,,,,,,,,,0,,,68,36
116280,note_on,360,0,1,,,,,,,,,,,,,,,0,,,80,0
116400,note_on,120,0,1,,,,,,,,,,,,,,,0,,,68,0
116400,note_on,0,0,1,,,,,,,,,,,,,,,0,,,80,0
116400,note_on,0,0,1,,,,,,,,,,,,,,,0,,,68,40
116400,note_on,0,0,1,,,,,,,,,,,,,,,0,,,80,48
116400,set_tempo,480,1,0,,,,,,,,,,,,535523,,,,,,,
116640,note_on,0,0,1,,,,,,,,,,,,,,,0,,,67,41
116640,note_on,0,0,2,,,,,,,,,,,,,,,0,,,46,35
116640,note_on,0,0,1,,,,,,,,,,,,,,,0,,,79,49
116640,note_on,0,0,2,,,,,,,,,,,,,,,0,,,63,0
116640,note_on,480,0,2,,,,,,,,,,,,,,,0,,,56,0
116640,note_on,0,0,2,,,,,,,,,,,,,,,0,,,60,0
116640,note_on,240,0,1,,,,,,,,,,,,,,,0,,,80,0
116640,note_on,0,0,1,,,,,,,,,,,,,,,0,,,68,0
116640,set_tempo,240,1,0,,,,,,,,,,,,517866,,,,,,,
116648,control_change,8,0,2,,,,,,,,,,,,,,,0,64,0,,
116682,control_change,34,0,2,,,,,,,,,,,,,,,0,64,127,,
116820,note_on,138,0,2,,,,,,,,,,,,,,,0,,,46,0
116880,note_on,0,0,2,,,,,,,,,,,,,,,0,,,55,24
116880,note_on,60,0,2,,,,,,,,,,,,,,,0,,,63,28
116880,note_on,0,0,2,,,,,,,,,,,,,,,0,,,61,24
117000,note_on,0,0,1,,,,,,,,,,,,,,,0,,,67,0
117000,note_on,0,0,1,,,,,,,,,,,,,,,0,,,67,36
117000,note_on,360,0,1,,,,,,,,,,,,,,,0,,,79,0
117000,note_on,0,0,1,,,,,,,,,,,,,,,0,,,79,44
117120,note_on,0,0,1,,,,,,,,,,,,,,,0,,,79,48
117120,note_on,0,0,1,,,,,,,,,,,,,,,0,,,67,40
117120,note_on,0,0,1,,,,,,,,,,,,,,,0,,,79,0
117120,note_on,120,0,1,,,,,,,,,,,,,,,0,,,67,0
117120,set_tempo,480,1,0,,,,,,,,,,,,574603,,,,,,,
117360,note_on,0,0,2,,,,,,,,,,,,,,,0,,,63,0
117360,note_on,0,0,1,,,,,,,,,,,,,,,0,,,67,0
117360,note_on,240,0,1,,,,,,,,,,,,,,,0,,,79,0
117360,note_on,0,0,2,,,,,,,,,,,,,,,0,,,39,37
117360,note_on,0,0,2,,,,,,,,,,,,,,,0,,,61,0
117360,note_on,480,0,2,,,,,,,,,,,,,,,0,,,55,0
117360,set_tempo,240,1,0,,,,,,,,,,,,621762,,,,,,,
117360,note_on,0,0,1,,,,,,,,,,,,,,,0,,,73,41
117360,note_on,0,0,1,,,,,,,,,,,,,,,0,,,85,49
117368,control_change,8,0,2,,,,,,,,,,,,,,,0,64,0,,
117413,control_change,45,0,2,,,,,,,,,,,,,,,0,64,127,,
117540,note_on,127,0,2,,,,,,,,,,,,,,,0,,,39,0
117600,set_tempo,240,1,0,,,,,,,,,,,,530973,,,,,,,
117600,note_on,0,0,2,,,,,,,,,,,,,,,0,,,58,24
117600,note_on,60,0,2,,,,,,,,,,,,,,,0,,,63,28
117600,note_on,0,0,2,,,,,,,,,,,,,,,0,,,55,24
118080,note_on,0,0,1,,,,,,,,,,,,,,,0,,,84,49
118080,set_tempo,480,1,0,,,,,,,,,,,,517866,,,,,,,
118080,note_on,0,0,2,,,,,,,,,,,,,,,0,,,44,36
118080,note_on,0,0,2,,,,,,,,,,,,,,,0,,,63,0
118080,note_on,0,0,2,,,,,,,,,,,,,,,0,,,58,0
118080,note_on,480,0,2,,,,,,,,,,,,,,,0,,,55,0
118080,note_on,0,0,1,,,,,,,,,,,,,,,0,,,72,41
118080,note_on,720,0,1,,,,,,,,,,,,,,,0,,,85,0
118080,note_on,0,0,1,,,,,,,,,,,,,,,0,,,73,0
118088,control_change,8,0,2,,,,,,,,,,,,,,,0,64,0,,
118126,control_change,38,0,2,,,,,,,,,,,,,,,0,64,127,,
118260,note_on,134,0,2,,,,,,,,,,,,,,,0,,,44,0
118320,note_on,0,0,2,,,,,,,,,,,,,,,0,,,56,24
118320,note_on,0,0,2,,,,,,,,,,,,,,,0,,,60,24
118320,note_on,60,0,2,,,,,,,,,,,,,,,0,,,63,28
118440,note_on,0,0,1,,,,,,,,,,,,,,,0,,,72,36
118440,note_on,0,0,1,,,,,,,,,,,,,,,0,,,84,44
118440,note_on,0,0,1,,,,,,,,,,,,,,,0,,,72,0
118440,note_on,360,0,1,,,,,,,,,,,,,,,0,,,84,0
118560,set_tempo,480,1,0,,,,,,,,,,,,535523,,,,,,,
118560,note_on,0,0,1,,,,,,,,,,,,,,,0,,,80,48
118560,note_on,0,0,1,,,,,,,,,,,,,,,0,,,68,40
118560,note_on,0,0,1,,,,,,,,,,,,,,,0,,,84,0
118560,note_on,120,0,1,,,,,,,,,,,,,,,0,,,72,0
118800,note_on,0,0,2,,,,,,,,,,,,,,,0,,,37,36
118800,note_on,0,0,2,,,,,,,,,,,,,,,0,,,63,0
118800,note_on,0,0,2,,,,,,,,,,,,,,,0,,,60,0
118800,note_on,480,0,2,,,,,,,,,,,,,,,0,,,56,0
118800,note_on,0,0,1,,,,,,,,,,,,,,,0,,,68,0
118800,set_tempo,240,1,0,,,,,,,,,,,,511553,,,,,,,
118800,note_on,0,0,1,,,,,,,,,,,,,,,0,,,65,41
118800,note_on,240,0,1,,,,,,,,,,,,,,,0,,,80,0
118800,note_on,0,0,1,,,,,,,,,,,,,,,0,,,77,49
118808,control_change,8,0,2,,,,,,,,,,,,,,,0,64,0,,
118842,control_change,34,0,2,,,,,,,,,,,,,,,0,64,127,,
118980,note_on,138,0,2,,,,,,,,,,,,,,,0,,,37,0
119040,note_on,0,0,2,,,,,,,,,,,,,,,0,,,53,24
119040,note_on,0,0,2,,,,,,,,,,,,,,,0,,,58,24
119040,note_on,60,0,2,,,,,,,,,,,,,,,0,,,61,28
119160,note_on,360,0,1,,,,,,,,,,,,,,,0,,,77,0
119160,note_on,0,0,1,,,,,,,,,,,,,,,0,,,65,0
119160,note_on,0,0,1,,,,,,,,,,,,,,,0,,,77,44
119160,note_on,0,0,1,,,,,,,,,,,,,,,0,,,65,36
119280,note_on,0,0,1,,,,,,,,,,,,,,,0,,,82,48
119280,set_tempo,480,1,0,,,,,,,,,,,,537779,,,,,,,
119280,note_on,0,0,1,,,,,,,,,,,,,,,0,,,70,40
119280,note_on,120,0,1,,,,,,,,,,,,,,,0,,,65,0
119280,note_on,0,0,1,,,,,,,,,,,,,,,0,,,77,0
119520,note_on,480,0,2,,,,,,,,,,,,,,,0,,,53,0
119520,note_on,240,0,1,,,,,,,,,,,,,,,0,,,82,0
119520,note_on,0,0,2,,,,,,,,,,,,,,,0,,,58,0
119520,note_on,0,0,2,,,,,,,,,,,,,,,0,,,61,0
119520,note_on,0,0,2,,,,,,,,,,,,,,,0,,,39,36
119520,note_on,0,0,1,,,,,,,,,,,,,,,0,,,79,49
119520,note_on,0,0,1,,,,,,,,,,,,,,,0,,,70,0
119520,note_on,0,0,1,,,,,,,,,,,,,,,0,,,67,41
119520,set_tempo,240,1,0,,,,,,,,,,,,511553,,,,,,,
119528,control_change,8,0,2,,,,,,,,,,,,,,,0,64,0,,
119562,control_change,34,0,2,,,,,,,,,,,,,,,0,64,127,,
119700,note_on,138,0,2,,,,,,,,,,,,,,,0,,,39,0
119760,note_on,60,0,2,,,,,,,,,,,,,,,0,,,58,28
119760,note_on,0,0,2,,,,,,,,,,,,,,,0,,,51,24
119760,note_on,0,0,2,,,,,,,,,,,,,,,0,,,55,24
119880,note_on,0,0,1,,,,,,,,,,,,,,,0,,,79,44
119880,note_on,0,0,1,,,,,,,,,,,,,,,0,,,67,0
119880,note_on,0,0,1,,,,,,,,,,,,,,,0,,,67,36
119880,note_on,360,0,1,,,,,,,,,,,,,,,0,,,79,0
120000,note_on,0,0,1,,,,,,,,,,,,,,,0,,,70,40
120000,set_tempo,480,1,0,,,,,,,,,,,,574603,,,,,,,
120000,note_on,120,0,1,,,,,,,,,,,,,,,0,,,67,0
120000,note_on,0,0,1,,,,,,,,,,,,,,,0,,,79,0
120000,note_on,0,0,1,,,,,,,,,,,,,,,0,,,82,48
120240,note_on,240,0,1,,,,,,,,,,,,,,,0,,,82,0
120240,set_tempo,240,1,0,,,,,,,,,,,,511553,,,,,,,
120240,note_on,480,0,2,,,,,,,,,,,,,,,0,,,51,0
120240,note_on,0,0,2,,,,,,,,,,,,,,,0,,,55,0
120240,note_on,0,0,2,,,,,,,,,,,,,,,0,,,58,0
120240,note_on,0,0,2,,,,,,,,,,,,,,,0,,,43,35
120240,note_on,0,0,1,,,,,,,,,,,,,,,0,,,75,49
120240,note_on,0,0,1,,,,,,,,,,,,,,,0,,,70,0
120240,note_on,0,0,1,,,,,,,,,,,,,,,0,,,63,41
120248,control_change,8,0,2,,,,,,,,,,,,,,,0,64,0,,
120282,control_change,34,0,2,,,,,,,,,,,,,,,0,64,127,,
120420,note_on,138,0,2,,,,,,,,,,,,,,,0,,,43,0
120480,note_on,0,0,2,,,,,,,,,,,,,,,0,,,51,24
120480,note_on,0,0,2,,,,,,,,,,,,,,,0,,,58,24
120480,note_on,60,0,2,,,,,,,,,,,,,,,0,,,61,28
120480,set_tempo,240,1,0,,,,,,,,,,,,571429,,,,,,,
120600,control_change,120,0,2,,,,,,,,,,,,,,,0,64,0,,
120600,set_tempo,120,1,0,,,,,,,,,,,,544811,,,,,,,
120600,note_on,0,0,1,,,,,,,,,,,,,,,0,,,63,0
120600,note_on,0,0,1,,,,,,,,,,,,,,,0,,,84,47
120600,note_on,360,0,1,,,,,,,,,,,,,,,0,,,75,0
120720,note_on,0,0,1,,,,,,,,,,,,,,,0,,,85,47
120720,note_on,120,0,1,,,,,,,,,,,,,,,0,,,84,0
120840,note_on,120,0,1,,,,,,,,,,,,,,,0,,,85,0
120840,note_on,0,0,1,,,,,,,,,,,,,,,0,,,86,47
120960,note_on,0,0,2,,,,,,,,,,,,,,,0,,,58,0
120960,note_on,360,0,2,,,,,,,,,,,,,,,0,,,51,0
120960,note_on,0,0,2,,,,,,,,,,,,,,,0,,,61,0
120960,set_tempo,360,1,0,,,,,,,,,,,,519976,,,,,,,
120960,note_on,0,0,1,,,,,,,,,,,,,,,0,,,87,54
120960,note_on,0,0,1,,,,,,,,,,,,,,,0,,,75,45
120960,note_on,120,0,1,,,,,,,,,,,,,,,0,,,86,0
120960,note_on,0,0,2,,,,,,,,,,,,,,,0,,,44,36
121013,control_change,53,0,2,,,,,,,,,,,,,,,0,64,127,,
121020,note_on,7,0,2,,,,,,,,,,,,,,,0,,,44,0
121080,note_on,60,0,2,,,,,,,,,,,,,,,0,,,51,28
121200,note_on,120,0,2,,,,,,,,,,,,,,,0,,,51,0
121200,note_on,0,0,2,,,,,,,,,,,,,,,0,,,56,28
121320,note_on,0,0,1,,,,,,,,,,,,,,,0,,,75,40
121320,note_on,0,0,1,,,,,,,,,,,,,,,0,,,87,47
121320,note_on,0,0,1,,,,,,,,,,,,,,,0,,,75,0
121320,note_on,120,0,2,,,,,,,,,,,,,,,0,,,56,0
121320,note_on,0,0,2,,,,,,,,,,,,,,,0,,,60,28
121320,note_on,360,0,1,,,,,,,,,,,,,,,0,,,87,0
121440,note_on,120,0,2,,,,,,,,,,,,,,,0,,,60,0
121440,note_on,0,0,2,,,,,,,,,,,,,,,0,,,56,28
121440,note_on,0,0,1,,,,,,,,,,,,,,,0,,,75,43
121440,set_tempo,480,1,0,,,,,,,,,,,,540103,,,,,,,
121440,note_on,120,0,1,,,,,,,,,,,,,,,0,,,75,0
121440,note_on,0,0,1,,,,,,,,,,,,,,,0,,,87,0
121440,note_on,0,0,1,,,,,,,,,,,,,,,0,,,87,51
121560,note_on,0,0,2,,,,,,,,,,,,,,,0,,,51,28
121560,note_on,120,0,2,,,,,,,,,,,,,,,0,,,56,0
121680,note_on,240,0,1,,,,,,,,,,,,,,,0,,,87,0
121680,note_on,0,0,1,,,,,,,,,,,,,,,0,,,75,0
121680,note_on,0,0,1,,,,,,,,,,,,,,,0,,,80,45
121680,note_on,0,0,1,,,,,,,,,,,,,,,0,,,92,54
121680,set_tempo,240,1,0,,,,,,,,,,,,517866,,,,,,,
121680,note_on,120,0,2,,,,,,,,,,,,,,,0,,,51,0
121680,note_on,0,0,2,,,,,,,,,,,,,,,0,,,48,36
121688,control_change,8,0,2,,,,,,,,,,,,,,,0,64,0,,
121726,control_change,38,0,2,,,,,,,,,,,,,,,0,64,127,,
121740,note_on,14,0,2,,,,,,,,,,,,,,,0,,,48,0
121800,note_on,60,0,2,,,,,,,,,,,,,,,0,,,56,28
121920,note_on,0,0,2,,,,,,,,,,,,,,,0,,,60,28
121920,note_on,120,0,2,,,,,,,,,,,,,,,0,,,56,0
122040,note_on,0,0,2,,,,,,,,,,,,,,,0,,,63,28
122040,note_on,0,0,1,,,,,,,,,,,,,,,0,,,80,40
122040,note_on,0,0,1,,,,,,,,,,,,,,,0,,,92,47
122040,note_on,0,0,1,,,,,,,,,,,,,,,0,,,80,0
122040,note_on,360,0,1,,,,,,,,,,,,,,,0,,,92,0
122040,note_on,120,0,2,,,,,,,,,,,,,,,0,,,60,0
122160,note_on,0,0,1,,,,,,,,,,,,,,,0,,,92,0
122160,note_on,0,0,1,,,,,,,,,,,,,,,0,,,80,44
122160,set_tempo,480,1,0,,,,,,,,,,,,535523,,,,,,,
122160,note_on,0,0,2,,,,,,,,,,,,,,,0,,,60,28
122160,note_on,120,0,1,,,,,,,,,,,,,,,0,,,80,0
122160,note_on,0,0,1,,,,,,,,,,,,,,,0,,,92,53
122160,note_on,120,0,2,,,,,,,,,,,,,,,0,,,63,0
122280,note_on,0,0,2,,,,,,,,,,,,,,,0,,,56,28
122280,note_on,120,0,2,,,,,,,,,,,,,,,0,,,60,0
122400,note_on,240,0,1,,,,,,,,,,,,,,,0,,,92,0
122400,note_on,0,0,1,,,,,,,,,,,,,,,0,,,79,45
122400,note_on,0,0,1,,,,,,,,,,,,,,,0,,,91,54
122400,set_tempo,240,1,0,,,,,,,,,,,,511553,,,,,,,
122400,note_on,0,0,2,,,,,,,,,,,,,,,0,,,46,40
122400,note_on,120,0,2,,,,,,,,,,,,,,,0,,,56,0
122400,note_on,0,0,1,,,,,,,,,,,,,,,0,,,80,0
122408,control_change,8,0,2,,,,,,,,,,,,,,,0,64,0,,
122442,control_change,34,0,2,,,,,,,,,,,,,,,0,64,127,,
122460,note_on,18,0,2,,,,,,,,,,,,,,,0,,,46,0
122520,note_on,60,0,2,,,,,,,,,,,,,,,0,,,55,28
122640,note_on,0,0,2,,,,,,,,,,,,,,,0,,,61,28
122640,note_on,120,0,2,,,,,,,,,,,,,,,0,,,55,0
122760,note_on,0,0,1,,,,,,,,,,,,,,,0,,,91,47
122760,note_on,0,0,2,,,,,,,,,,,,,,,0,,,63,28
122760,note_on,0,0,1,,,,,,,,,,,,,,,0,,,79,0
122760,note_on,360,0,1,,,,,,,,,,,,,,,0,,,91,0
122760,note_on,0,0,1,,,,,,,,,,,,,,,0,,,79,40
122760,note_on,120,0,2,,,,,,,,,,,,,,,0,,,61,0
122880,note_on,120,0,2,,,,,,,,,,,,,,,0,,,63,0
122880,note_on,0,0,2,,,,,,,,,,,,,,,0,,,61,28
122880,set_tempo,480,1,0,,,,,,,,,,,,574603,,,,,,,
122880,note_on,0,0,1,,,,,,,,,,,,,,,0,,,79,44
122880,note_on,0,0,1,,,,,,,,,,,,,,,0,,,91,0
122880,note_on,120,0,1,,,,,,,,,,,,,,,0,,,79,0
122880,note_on,0,0,1,,,,,,,,,,,,,,,0,,,91,53
123000,note_on,120,0,2,,,,,,,,,,,,,,,0,,,61,0
123000,note_on,0,0,2,,,,,,,,,,,,,,,0,,,55,28
123120,note_on,120,0,2,,,,,,,,,,,,,,,0,,,55,0
123120,note_on,240,0,1,,,,,,,,,,,,,,,0,,,91,0
123120,note_on,0,0,1,,,,,,,,,,,,,,,0,,,79,0
123120,note_on,0,0,1,,,,,,,,,,,,,,,0,,,85,45
123120,note_on,0,0,1,,,,,,,,,,,,,,,0,,,97,54
123120,set_tempo,240,1,0,,,,,,,,,,,,549501,,,,,,,
123120,note_on,0,0,2,,,,,,,,,,,,,,,0,,,39,37
123128,control_change,8,0,2,,,,,,,,,,,,,,,0,64,0,,
123173,control_change,45,0,2,,,,,,,,,,,,,,,0,64,127,,
123180,note_on,7,0,2,,,,,,,,,,,,,,,0,,,39,0
123240,note_on,60,0,2,,,,,,,,,,,,,,,0,,,55,28
123360,note_on,120,0,2,,,,,,,,,,,,,,,0,,,55,0
123360,set_tempo,240,1,0,,,,,,,,,,,,530973,,,,,,,
123360,note_on,0,0,2,,,,,,,,,,,,,,,0,,,58,28
123480,note_on,0,0,2,,,,,,,,,,,,,,,0,,,63,28
123480,note_on,120,0,2,,,,,,,,,,,,,,,0,,,58,0
123600,note_on,120,0,2,,,,,,,,,,,,,,,0,,,63,0
123600,note_on,0,0,2,,,,,,,,,,,,,,,0,,,58,28
123720,note_on,120,0,2,,,,,,,,,,,,,,,0,,,58,0
123720,note_on,0,0,2,,,,,,,,,,,,,,,0,,,55,28
123840,note_on,0,0,2,,,,,,,,,,,,,,,0,,,44,36
123840,set_tempo,480,1,0,,,,,,,,,,,,511553,,,,,,,
123840,note_on,120,0,2,,,,,,,,,,,,,,,0,,,55,0
123840,note_on,0,0,1,,,,,,,,,,,,,,,0,,,96,54
123840,note_on,0,0,1,,,,,,,,,,,,,,,0,,,84,45
123840,note_on,720,0,1,,,,,,,,,,,,,,,0,,,97,0
123840,note_on,0,0,1,,,,,,,,,,,,,,,0,,,85,0
123848,control_change,8,0,2,,,,,,,,,,,,,,,0,64,0,,
123886,control_change,38,0,2,,,,,,,,,,,,,,,0,64,127,,
123900,note_on,14,0,2,,,,,,,,,,,,,,,0,,,44,0
123960,note_on,60,0,2,,,,,,,,,,,,,,,0,,,56,28
124080,note_on,0,0,2,,,,,,,,,,,,,,,0,,,60,28
124080,note_on,120,0,2,,,,,,,,,,,,,,,0,,,56,0
124200,note_on,0,0,1,,,,,,,,,,,,,,,0,,,84,40
124200,note_on,0,0,2,,,,,,,,,,,,,,,0,,,63,28
124200,note_on,120,0,2,,,,,,,,,,,,,,,0,,,60,0
124200,note_on,360,0,1,,,,,,,,,,,,,,,0,,,96,0
124200,note_on,0,0,1,,,,,,,,,,,,,,,0,,,84,0
124200,note_on,0,0,1,,,,,,,,,,,,,,,0,,,96,47
124320,note_on,0,0,1,,,,,,,,,,,,,,,0,,,96,0
124320,note_on,120,0,1,,,,,,,,,,,,,,,0,,,84,0
124320,note_on,0,0,1,,,,,,,,,,,,,,,0,,,92,53
124320,note_on,0,0,1,,,,,,,,,,,,,,,0,,,80,44
124320,note_on,120,0,2,,,,,,,,,,,,,,,0,,,63,0
124320,note_on,0,0,2,,,,,,,,,,,,,,,0,,,60,28
124320,set_tempo,480,1,0,,,,,,,,,,,,535523,,,,,,,
124440,note_on,0,0,2,,,,,,,,,,,,,,,0,,,56,28
124440,note_on,120,0,2,,,,,,,,,,,,,,,0,,,60,0
124560,note_on,240,0,1,,,,,,,,,,,,,,,0,,,92,0
124560,set_tempo,240,1,0,,,,,,,,,,,,511553,,,,,,,
124560,note_on,0,0,1,,,,,,,,,,,,,,,0,,,80,0
124560,note_on,0,0,1,,,,,,,,,,,,,,,0,,,77,45
124560,note_on,0,0,1,,,,,,,,,,,,,,,0,,,89,54
124560,note_on,0,0,2,,,,,,,,,,,,,,,0,,,37,39
124560,note_on,120,0,2,,,,,,,,,,,,,,,0,,,56,0
124568,control_change,8,0,2,,,,,,,,,,,,,,,0,64,0,,
124602,control_change,34,0,2,,,,,,,,,,,,,,,0,64,127,,
124620,note_on,18,0,2,,,,,,,,,,,,,,,0,,,37,0
124680,note_on,60,0,2,,,,,,,,,,,,,,,0,,,53,28
124800,note_on,120,0,2,,,,,,,,,,,,,,,0,,,53,0
124800,note_on,0,0,2,,,,,,,,,,,,,,,0,,,58,28
124920,note_on,0,0,1,,,,,,,,,,,,,,,0,,,89,47
124920,note_on,0,0,1,,,,,,,,,,,,,,,0,,,77,40
124920,note_on,0,0,1,,,,,,,,,,,,,,,0,,,77,0
124920,note_on,360,0,1,,,,,,,,,,,,,,,0,,,89,0
124920,note_on,120,0,2,,,,,,,,,,,,,,,0,,,58,0
124920,note_on,0,0,2,,,,,,,,,,,,,,,0,,,61,28
125040,note_on,0,0,1,,,,,,,,,,,,,,,0,,,89,0
125040,note_on,120,0,1,,,,,,,,,,,,,,,0,,,77,0
125040,note_on,0,0,1,,,,,,,,,,,,,,,0,,,94,53
125040,note_on,0,0,1,,,,,,,,,,,,,,,0,,,82,44
125040,set_tempo,480,1,0,,,,,,,,,,,,537779,,,,,,,
125040,note_on,120,0,2,,,,,,,,,,,,,,,0,,,61,0
125040,note_on,0,0,2,,,,,,,,,,,,,,,0,,,58,28
125160,note_on,0,0,2,,,,,,,,,,,,,,,0,,,53,28
125160,note_on,120,0,2,,,,,,,,,,,,,,,0,,,58,0
125280,note_on,0,0,1,,,,,,,,,,,,,,,0,,,79,45
125280,note_on,0,0,1,,,,,,,,,,,,,,,0,,,82,0
125280,note_on,120,0,2,,,,,,,,,,,,,,,0,,,53,0
125280,note_on,0,0,2,,,,,,,,,,,,,,,0,,,39,41
125280,note_on,240,0,1,,,,,,,,,,,,,,,0,,,94,0
125280,set_tempo,240,1,0,,,,,,,,,,,,519976,,,,,,,
125280,note_on,0,0,1,,,,,,,,,,,,,,,0,,,91,54
125288,control_change,8,0,2,,,,,,,,,,,,,,,0,64,0,,
125322,control_change,34,0,2,,,,,,,,,,,,,,,0,64,127,,
125340,note_on,18,0,2,,,,,,,,,,,,,,,0,,,39,0
125400,note_on,60,0,2,,,,,,,,,,,,,,,0,,,51,28
125520,note_on,120,0,2,,,,,,,,,,,,,,,0,,,51,0
125520,note_on,0,0,2,,,,,,,,,,,,,,,0,,,55,28
125640,note_on,120,0,2,,,,,,,,,,,,,,,0,,,55,0
125640,note_on,0,0,2,,,,,,,,,,,,,,,0,,,61,28
125640,note_on,0,0,1,,,,,,,,,,,,,,,0,,,79,40
125640,note_on,0,0,1,,,,,,,,,,,,,,,0,,,91,47
125640,note_on,0,0,1,,,,,,,,,,,,,,,0,,,79,0
125640,note_on,360,0,1,,,,,,,,,,,,,,,0,,,91,0
125760,note_on,120,0,1,,,,,,,,,,,,,,,0,,,79,0
125760,note_on,0,0,1,,,,,,,,,,,,,,,0,,,94,53
125760,note_on,0,0,1,,,,,,,,,,,,,,,0,,,91,0
125760,note_on,120,0,2,,,,,,,,,,,,,,,0,,,61,0
125760,note_on,0,0,1,,,,,,,,,,,,,,,0,,,82,44
125760,note_on,0,0,2,,,,,,,,,,,,,,,0,,,55,28
125760,set_tempo,480,1,0,,,,,,,,,,,,574603,,,,,,,
125880,note_on,120,0,2,,,,,,,,,,,,,,,0,,,55,0
125880,note_on,0,0,2,,,,,,,,,,,,,,,0,,,51,28
126000,set_tempo,240,1,0,,,,,,,,,,,,528774,,,,,,,
126000,note_on,240,0,1,,,,,,,,,,,,,,,0,,,94,0
126000,note_on,0,0,1,,,,,,,,,,,,,,,0,,,82,0
126000,note_on,0,0,1,,,,,,,,,,,,,,,0,,,80,45
126000,note_on,0,0,1,,,,,,,,,,,,,,,0,,,92,54
126000,note_on,120,0,2,,,,,,,,,,,,,,,0,,,51,0
126000,note_on,0,0,2,,,,,,,,,,,,,,,0,,,44,39
126008,control_change,8,0,2,,,,,,,,,,,,,,,0,64,0,,
126042,control_change,34,0,2,,,,,,,,,,,,,,,0,64,127,,
126060,note_on,18,0,2,,,,,,,,,,,,,,,0,,,44,0
126120,note_on,60,0,2,,,,,,,,,,,,,,,0,,,51,28
126240,note_on,0,0,2,,,,,,,,,,,,,,,0,,,56,28
126240,note_on,120,0,2,,,,,,,,,,,,,,,0,,,51,0
126360,note_on,120,0,2,,,,,,,,,,,,,,,0,,,56,0
126360,note_on,0,0,2,,,,,,,,,,,,,,,0,,,60,28
126480,set_tempo,480,1,0,,,,,,,,,,,,574603,,,,,,,
126480,note_on,0,0,2,,,,,,,,,,,,,,,0,,,56,28
126480,note_on,120,0,2,,,,,,,,,,,,,,,0,,,60,0
126600,set_tempo,120,1,0,,,,,,,,,,,,707047,,,,,,,
126600,note_on,0,0,2,,,,,,,,,,,,,,,0,,,51,28
126600,note_on,120,0,2,,,,,,,,,,,,,,,0,,,56,0
126720,note_on,0,0,1,,,,,,,,,,,,,,,0,,,80,0
126720,note_on,0,0,2,,,,,,,,,,,,,,,0,,,51,75
126720,note_on,120,0,2,,,,,,,,,,,,,,,0,,,51,0
126720,note_on,720,0,1,,,,,,,,,,,,,,,0,,,92,0
126720,set_tempo,120,1,0,,,,,,,,,,,,574603,,,,,,,
126720,note_on,0,0,2,,,,,,,,,,,,,,,0,,,39,63
126720,control_change,0,0,2,,,,,,,,,,,,,,,0,64,0,,
126720,note_on,0,0,1,,,,,,,,,,,,,,,0,,,75,75
126720,note_on,0,0,1,,,,,,,,,,,,,,,0,,,67,75
126720,note_on,0,0,1,,,,,,,,,,,,,,,0,,,79,89
126720,note_on,0,0,1,,,,,,,,,,,,,,,0,,,73,75
126720,note_on,0,0,1,,,,,,,,,,,,,,,0,,,70,75
126960,note_on,0,0,1,,,,,,,,,,,,,,,0,,,75,0
126960,note_on,0,0,1,,,,,,,,,,,,,,,0,,,70,0
126960,note_on,0,0,1,,,,,,,,,,,,,,,0,,,67,0
126960,note_on,0,0,1,,,,,,,,,,,,,,,0,,,73,0
126960,note_on,240,0,1,,,,,,,,,,,,,,,0,,,79,0
126960,note_on,240,0,2,,,,,,,,,,,,,,,0,,,51,0
126960,note_on,0,0,2,,,,,,,,,,,,,,,0,,,39,0
127440,note_on,0,0,1,,,,,,,,,,,,,,,0,,,72,77
127440,note_on,0,0,2,,,,,,,,,,,,,,,0,,,44,81
127440,note_on,480,0,1,,,,,,,,,,,,,,,0,,,68,77
127440,note_on,0,0,1,,,,,,,,,,,,,,,0,,,75,77
127440,note_on,480,0,2,,,,,,,,,,,,,,,0,,,32,68
127440,note_on,0,0,1,,,,,,,,,,,,,,,0,,,80,91
127680,note_on,0,0,1,,,,,,,,,,,,,,,0,,,75,0
127680,note_on,0,0,1,,,,,,,,,,,,,,,0,,,72,0
127680,note_on,0,0,1,,,,,,,,,,,,,,,0,,,68,0
127680,note_on,240,0,1,,,,,,,,,,,,,,,0,,,80,0
127680,note_on,0,0,2,,,,,,,,,,,,,,,0,,,32,0
127680,note_on,240,0,2,,,,,,,,,,,,,,,0,,,44,0
128160,set_tempo,1440,1,0,,,,,,,,,,,,549501,,,,,,,
128160,note_on,480,0,1,,,,,,,,,,,,,,,0,,,68,45
128880,set_tempo,720,1,0,,,,,,,,,,,,537779,,,,,,,
128880,note_on,0,0,1,,,,,,,,,,,,,,,0,,,68,45
128880,note_on,720,0,1,,,,,,,,,,,,,,,0,,,68,0
129600,note_on,0,0,1,,,,,,,,,,,,,,,0,,,67,46
129600,note_on,720,0,1,,,,,,,,,,,,,,,0,,,68,0
129600,set_tempo,720,1,0,,,,,,,,,,,,588062,,,,,,,
129840,note_on,0,0,1,,,,,,,,,,,,,,,0,,,70,42
129840,note_on,240,0,1,,,,,,,,,,,,,,,0,,,67,0
129840,set_tempo,240,1,0,,,,,,,,,,,,522193,,,,,,,
130080,set_tempo,240,1,0,,,,,,,,,,,,540103,,,,,,,
130080,note_on,240,0,1,,,,,,,,,,,,,,,0,,,70,0
130080,note_on,0,0,1,,,,,,,,,,,,,,,0,,,68,45
130320,set_tempo,240,1,0,,,,,,,,,,,,540103,,,,,,,
130560,note_on,480,0,1,,,,,,,,,,,,,,,0,,,68,0
130560,note_on,0,0,1,,,,,,,,,,,,,,,0,,,68,42
130780,note_on,220,0,1,,,,,,,,,,,,,,,0,,,68,0
130800,note_on,20,0,1,,,,,,,,,,,,,,,0,,,68,43
131020,note_on,220,0,1,,,,,,,,,,,,,,,0,,,68,0
131040,set_tempo,720,1,0,,,,,,,,,,,,561798,,,,,,,
131040,note_on,20,0,1,,,,,,,,,,,,,,,0,,,67,46
131040,note_on,3360,0,2,,,,,,,,,,,,,,,0,,,63,36
131040,note_on,0,0,2,,,,,,,,,,,,,,,0,,,60,30
131280,note_on,240,0,1,,,,,,,,,,,,,,,0,,,67,0
131280,note_on,0,0,1,,,,,,,,,,,,,,,0,,,70,42
131280,set_tempo,240,1,0,,,,,,,,,,,,515774,,,,,,,
131520,set_tempo,240,1,0,,,,,,,,,,,,540103,,,,,,,
131520,note_on,0,0,1,,,,,,,,,,,,,,,0,,,68,45
131520,note_on,240,0,1,,,,,,,,,,,,,,,0,,,70,0
131760,note_on,0,0,2,,,,,,,,,,,,,,,0,,,64,36
131760,note_on,720,0,2,,,,,,,,,,,,,,,0,,,63,0
132000,note_on,0,0,1,,,,,,,,,,,,,,,0,,,68,43
132000,set_tempo,480,1,0,,,,,,,,,,,,533239,,,,,,,
132000,note_on,480,0,1,,,,,,,,,,,,,,,0,,,68,0
132220,note_on,220,0,1,,,,,,,,,,,,,,,0,,,68,0
132240,note_on,20,0,1,,,,,,,,,,,,,,,0,,,68,43
132460,note_on,220,0,1,,,,,,,,,,,,,,,0,,,68,0
132480,note_on,720,0,2,,,,,,,,,,,,,,,0,,,64,0
132480,note_on,0,0,2,,,,,,,,,,,,,,,0,,,61,30
132480,note_on,0,0,2,,,,,,,,,,,,,,,0,,,65,36
132480,note_on,0,0,2,,,,,,,,,,,,,,,0,,,60,0
132480,note_on,20,0,1,,,,,,,,,,,,,,,0,,,67,47
132480,set_tempo,480,1,0,,,,,,,,,,,,561798,,,,,,,
132720,set_tempo,240,1,0,,,,,,,,,,,,533239,,,,,,,
132720,note_on,240,0,1,,,,,,,,,,,,,,,0,,,67,0
132720,note_on,0,0,1,,,,,,,,,,,,,,,0,,,70,44
132960,set_tempo,240,1,0,,,,,,,,,,,,582581,,,,,,,
132960,note_on,240,0,1,,,,,,,,,,,,,,,0,,,70,0
132960,note_on,0,0,1,,,,,,,,,,,,,,,0,,,68,44
133200,note_on,720,0,2,,,,,,,,,,,,,,,0,,,61,0
133200,note_on,0,0,2,,,,,,,,,,,,,,,0,,,65,0
133200,note_on,0,0,2,,,,,,,,,,,,,,,0,,,63,36
133200,note_on,0,0,1,,,,,,,,,,,,,,,0,,,67,49
133200,note_on,0,0,2,,,,,,,,,,,,,,,0,,,56,30
133200,set_tempo,240,1,0,,,,,,,,,,,,610874,,,,,,,
133200,note_on,240,0,1,,,,,,,,,,,,,,,0,,,68,0
133440,note_on,0,0,1,,,,,,,,,,,,,,,0,,,70,44
133440,note_on,240,0,1,,,,,,,,,,,,,,,0,,,67,0
133440,set_tempo,240,1,0,,,,,,,,,,,,554375,,,,,,,
133680,set_tempo,240,1,0,,,,,,,,,,,,596421,,,,,,,
133680,note_on,240,0,1,,,,,,,,,,,,,,,0,,,70,0
133680,note_on,0,0,1,,,,,,,,,,,,,,,0,,,68,44
133920,note_on,720,0,2,,,,,,,,,,,,,,,0,,,56,0
133920,note_on,0,0,2,,,,,,,,,,,,,,,0,,,63,0
133920,note_on,0,0,2,,,,,,,,,,,,,,,0,,,49,30
133920,set_tempo,240,1,0,,,,,,,,,,,,564334,,,,,,,
133920,note_on,0,0,2,,,,,,,,,,,,,,,0,,,61,36
133920,note_on,0,0,1,,,,,,,,,,,,,,,0,,,67,48
133920,note_on,240,0,1,,,,,,,,,,,,,,,0,,,68,0
133920,note_on,0,0,2,,,,,,,,,,,,,,,0,,,53,30
134160,set_tempo,240,1,0,,,,,,,,,,,,517866,,,,,,,
134160,note_on,0,0,1,,,,,,,,,,,,,,,0,,,70,45
134160,note_on,240,0,1,,,,,,,,,,,,,,,0,,,67,0
134400,set_tempo,240,1,0,,,,,,,,,,,,540103,,,,,,,
134400,note_on,0,0,1,,,,,,,,,,,,,,,0,,,68,45
134400,note_on,240,0,1,,,,,,,,,,,,,,,0,,,70,0
134640,set_tempo,240,1,0,,,,,,,,,,,,559336,,,,,,,
134640,note_on,240,0,1,,,,,,,,,,,,,,,0,,,68,0
134640,note_on,0,0,1,,,,,,,,,,,,,,,0,,,73,48
134654,control_change,734,0,2,,,,,,,,,,,,,,,0,64,127,,
134880,note_on,0,0,2,,,,,,,,,,,,,,,0,,,65,43
134880,note_on,0,0,2,,,,,,,,,,,,,,,0,,,53,0
134880,note_on,0,0,2,,,,,,,,,,,,,,,0,,,49,0
134880,note_on,226,0,2,,,,,,,,,,,,,,,0,,,61,0
134880,set_tempo,240,1,0,,,,,,,,,,,,519976,,,,,,,
134880,note_on,0,0,2,,,,,,,,,,,,,,,0,,,61,36
135049,control_change,169,0,2,,,,,,,,,,,,,,,0,64,0,,
135120,note_on,71,0,2,,,,,,,,,,,,,,,0,,,65,0
135120,note_on,0,0,2,,,,,,,,,,,,,,,0,,,61,0
135120,note_on,0,0,2,,,,,,,,,,,,,,,0,,,56,30
135120,set_tempo,240,1,0,,,,,,,,,,,,540103,,,,,,,
135240,note_on,120,0,2,,,,,,,,,,,,,,,0,,,56,0
135360,note_on,720,0,1,,,,,,,,,,,,,,,0,,,73,0
135360,note_on,0,0,1,,,,,,,,,,,,,,,0,,,67,48
135360,note_on,0,0,2,,,,,,,,,,,,,,,0,,,53,30
135360,set_tempo,240,1,0,,,,,,,,,,,,564334,,,,,,,
135360,note_on,120,0,2,,,,,,,,,,,,,,,0,,,49,30
135360,note_on,0,0,2,,,,,,,,,,,,,,,0,,,61,36
135600,note_on,0,0,1,,,,,,,,,,,,,,,0,,,70,45
135600,note_on,240,0,1,,,,,,,,,,,,,,,0,,,67,0
135600,set_tempo,240,1,0,,,,,,,,,,,,517866,,,,,,,
135840,note_on,240,0,1,,,,,,,,,,,,,,,0,,,70,0
135840,note_on,0,0,1,,,,,,,,,,,,,,,0,,,68,45
135840,set_tempo,240,1,0,,,,,,,,,,,,540103,,,,,,,
136080,set_tempo,240,1,0,,,,,,,,,,,,559336,,,,,,,
136080,note_on,0,0,1,,,,,,,,,,,,,,,0,,,73,48
136080,note_on,240,0,1,,,,,,,,,,,,,,,0,,,68,0
136094,control_change,734,0,2,,,,,,,,,,,,,,,0,64,127,,
136320,note_on,0,0,2,,,,,,,,,,,,,,,0,,,65,43
136320,note_on,0,0,2,,,,,,,,,,,,,,,0,,,49,0
136320,note_on,0,0,2,,,,,,,,,,,,,,,0,,,53,0
136320,note_on,226,0,2,,,,,,,,,,,,,,,0,,,61,0
136320,set_tempo,240,1,0,,,,,,,,,,,,519976,,,,,,,
136320,note_on,0,0,2,,,,,,,,,,,,,,,0,,,61,36
136489,control_change,169,0,2,,,,,,,,,,,,,,,0,64,0,,
136560,note_on,0,0,2,,,,,,,,,,,,,,,0,,,56,29
136560,note_on,0,0,2,,,,,,,,,,,,,,,0,,,61,0
136560,set_tempo,240,1,0,,,,,,,,,,,,540103,,,,,,,
136560,note_on,71,0,2,,,,,,,,,,,,,,,0,,,65,0
136680,note_on,120,0,2,,,,,,,,,,,,,,,0,,,56,0
136800,set_tempo,240,1,0,,,,,,,,,,,,530973,,,,,,,
136800,note_on,720,0,1,,,,,,,,,,,,,,,0,,,73,0
136800,note_on,0,0,1,,,,,,,,,,,,,,,0,,,74,48
136800,note_on,0,0,2,,,,,,,,,,,,,,,0,,,56,36
136800,note_on,120,0,2,,,,,,,,,,,,,,,0,,,48,30
136800,note_on,0,0,2,,,,,,,,,,,,,,,0,,,54,30
137040,note_on,0,0,1,,,,,,,,,,,,,,,0,,,77,45
137040,set_tempo,240,1,0,,,,,,,,,,,,517866,,,,,,,
137040,note_on,240,0,1,,,,,,,,,,,,,,,0,,,74,0
137280,note_on,240,0,1,,,,,,,,,,,,,,,0,,,77,0
137280,note_on,0,0,1,,,,,,,,,,,,,,,0,,,75,45
137280,set_tempo,240,1,0,,,,,,,,,,,,540103,,,,,,,
137520,note_on,240,0,1,,,,,,,,,,,,,,,0,,,75,0
137520,note_on,0,0,1,,,,,,,,,,,,,,,0,,,68,48
137520,set_tempo,240,1,0,,,,,,,,,,,,559336,,,,,,,
137534,control_change,734,0,2,,,,,,,,,,,,,,,0,64,127,,
137760,note_on,0,0,2,,,,,,,,,,,,,,,0,,,63,36
137760,set_tempo,240,1,0,,,,,,,,,,,,519976,,,,,,,
137760,note_on,0,0,2,,,,,,,,,,,,,,,0,,,66,43
137760,note_on,0,0,2,,,,,,,,,,,,,,,0,,,48,0
137760,note_on,0,0,2,,,,,,,,,,,,,,,0,,,54,0
137760,note_on,226,0,2,,,,,,,,,,,,,,,0,,,56,0
137929,control_change,169,0,2,,,,,,,,,,,,,,,0,64,0,,
138000,note_on,71,0,2,,,,,,,,,,,,,,,0,,,66,0
138000,note_on,0,0,2,,,,,,,,,,,,,,,0,,,63,0
138000,note_on,0,0,2,,,,,,,,,,,,,,,0,,,56,31
138000,set_tempo,240,1,0,,,,,,,,,,,,540103,,,,,,,
138120,note_on,120,0,2,,,,,,,,,,,,,,,0,,,56,0
138240,note_on,0,0,2,,,,,,,,,,,,,,,0,,,54,30
138240,set_tempo,240,1,0,,,,,,,,,,,,530973,,,,,,,
138240,note_on,720,0,1,,,,,,,,,,,,,,,0,,,68,0
138240,note_on,0,0,1,,,,,,,,,,,,,,,0,,,74,48
138240,note_on,120,0,2,,,,,,,,,,,,,,,0,,,48,30
138240,note_on,0,0,2,,,,,,,,,,,,,,,0,,,56,36
138480,note_on,0,0,1,,,,,,,,,,,,,,,0,,,77,45
138480,set_tempo,240,1,0,,,,,,,,,,,,517866,,,,,,,
138480,note_on,240,0,1,,,,,,,,,,,,,,,0,,,74,0
138720,note_on,240,0,1,,,,,,,,,,,,,,,0,,,77,0
138720,set_tempo,240,1,0,,,,,,,,,,,,540103,,,,,,,
138720,note_on,0,0,1,,,,,,,,,,,,,,,0,,,75,45
138960,note_on,240,0,1,,,,,,,,,,,,,,,0,,,75,0
138960,note_on,0,0,1,,,,,,,,,,,,,,,0,,,68,48
138960,set_tempo,240,1,0,,,,,,,,,,,,559336,,,,,,,
138974,control_change,734,0,2,,,,,,,,,,,,,,,0,64,127,,
139200,set_tempo,240,1,0,,,,,,,,,,,,519976,,,,,,,
139200,note_on,226,0,2,,,,,,,,,,,,,,,0,,,56,0
139200,note_on,0,0,2,,,,,,,,,,,,,,,0,,,54,0
139200,note_on,0,0,2,,,,,,,,,,,,,,,0,,,63,36
139200,note_on,0,0,2,,,,,,,,,,,,,,,0,,,66,43
139200,note_on,0,0,2,,,,,,,,,,,,,,,0,,,48,0
139369,control_change,169,0,2,,,,,,,,,,,,,,,0,64,0,,
139440,set_tempo,240,1,0,,,,,,,,,,,,540103,,,,,,,
139440,note_on,71,0,2,,,,,,,,,,,,,,,0,,,66,0
139440,note_on,0,0,2,,,,,,,,,,,,,,,0,,,63,0
139440,note_on,0,0,2,,,,,,,,,,,,,,,0,,,56,31
139560,note_on,120,0,2,,,,,,,,,,,,,,,0,,,56,0
139680,set_tempo,240,1,0,,,,,,,,,,,,554375,,,,,,,
139680,note_on,720,0,1,,,,,,,,,,,,,,,0,,,68,0
139680,note_on,0,0,1,,,,,,,,,,,,,,,0,,,68,51
139680,note_on,0,0,2,,,,,,,,,,,,,,,0,,,56,36
139680,note_on,120,0,2,,,,,,,,,,,,,,,0,,,49,30
139920,note_on,240,0,1,,,,,,,,,,,,,,,0,,,68,0
139920,note_on,0,0,1,,,,,,,,,,,,,,,0,,,78,55
139920,set_tempo,240,1,0,,,,,,,,,,,,528774,,,,,,,
140160,note_on,240,0,1,,,,,,,,,,,,,,,0,,,78,0
140160,note_on,0,0,2,,,,,,,,,,,,,,,0,,,57,45
140160,set_tempo,240,1,0,,,,,,,,,,,,544811,,,,,,,
140160,note_on,0,0,1,,,,,,,,,,,,,,,0,,,77,53
140160,note_on,480,0,2,,,,,,,,,,,,,,,0,,,56,0
140400,note_on,240,0,1,,,,,,,,,,,,,,,0,,,77,0
140400,note_on,0,0,1,,,,,,,,,,,,,,,0,,,75,59
140400,note_on,0,0,2,,,,,,,,,,,,,,,0,,,58,48
140400,set_tempo,240,1,0,,,,,,,,,,,,540103,,,,,,,
140400,note_on,240,0,2,,,,,,,,,,,,,,,0,,,57,0
140640,note_on,240,0,1,,,,,,,,,,,,,,,0,,,75,0
140640,note_on,0,0,1,,,,,,,,,,,,,,,0,,,73,56
140880,set_tempo,480,1,0,,,,,,,,,,,,540103,,,,,,,
140880,note_on,240,0,1,,,,,,,,,,,,,,,0,,,73,0
140880,note_on,480,0,2,,,,,,,,,,,,,,,0,,,58,0
140880,note_on,0,0,1,,,,,,,,,,,,,,,0,,,65,43
140880,note_on,0,0,1,,,,,,,,,,,,,,,0,,,72,51
140880,note_on,0,0,2,,,,,,,,,,,,,,,0,,,56,41
140880,note_on,0,0,2,,,,,,,,,,,,,,,0,,,50,35
140880,note_on,0,0,2,,,,,,,,,,,,,,,0,,,49,0
141120,note_on,240,0,2,,,,,,,,,,,,,,,0,,,56,0
141120,set_tempo,240,1,0,,,,,,,,,,,,551978,,,,,,,
141120,note_on,0,0,2,,,,,,,,,,,,,,,0,,,51,30
141120,note_on,0,0,1,,,,,,,,,,,,,,,0,,,61,40
141120,note_on,240,0,1,,,,,,,,,,,,,,,0,,,65,0
141120,note_on,0,0,2,,,,,,,,,,,,,,,0,,,55,36
141120,note_on,0,0,2,,,,,,,,,,,,,,,0,,,50,0
141360,set_tempo,240,1,0,,,,,,,,,,,,569422,,,,,,,
141360,note_on,0,0,1,,,,,,,,,,,,,,,0,,,70,45
141360,note_on,240,0,1,,,,,,,,,,,,,,,0,,,72,0
141600,set_tempo,240,1,0,,,,,,,,,,,,588062,,,,,,,
141600,note_on,0,0,1,,,,,,,,,,,,,,,0,,,75,45
141600,note_on,240,0,1,,,,,,,,,,,,,,,0,,,70,0
141840,note_on,0,0,2,,,,,,,,,,,,,,,0,,,56,36
141840,set_tempo,240,1,0,,,,,,,,,,,,606061,,,,,,,
141840,note_on,0,0,1,,,,,,,,,,,,,,,0,,,60,40
141840,note_on,0,0,1,,,,,,,,,,,,,,,0,,,61,0
141840,note_on,240,0,1,,,,,,,,,,,,,,,0,,,75,0
141840,note_on,0,0,1,,,,,,,,,,,,,,,0,,,68,48
141840,note_on,0,0,2,,,,,,,,,,,,,,,0,,,44,29
141840,note_on,720,0,2,,,,,,,,,,,,,,,0,,,55,0
142080,set_tempo,240,1,0,,,,,,,,,,,,585366,,,,,,,
142200,note_on,0,0,1,,,,,,,,,,,,,,,0,,,60,0
142200,note_on,0,0,1,,,,,,,,,,,,,,,0,,,68,43
142200,note_on,360,0,2,,,,,,,,,,,,,,,0,,,56,0
142200,note_on,0,0,2,,,,,,,,,,,,,,,0,,,44,0
142200,note_on,0,0,2,,,,,,,,,,,,,,,0,,,51,0
142200,set_tempo,120,1,0,,,,,,,,,,,,576923,,,,,,,
142200,note_on,360,0,1,,,,,,,,,,,,,,,0,,,68,0
142320,note_on,120,0,1,,,,,,,,,,,,,,,0,,,68,0
142320,note_on,0,0,1,,,,,,,,,,,,,,,0,,,70,43
142320,set_tempo,120,1,0,,,,,,,,,,,,579710,,,,,,,
142440,note_on,0,0,1,,,,,,,,,,,,,,,0,,,68,43
142440,note_on,120,0,1,,,,,,,,,,,,,,,0,,,70,0
142560,note_on,0,0,1,,,,,,,,,,,,,,,0,,,67,48
142560,note_on,120,0,1,,,,,,,,,,,,,,,0,,,68,0
142560,set_tempo,240,1,0,,,,,,,,,,,,564334,,,,,,,
142560,note_on,360,0,2,,,,,,,,,,,,,,,0,,,49,30
142560,note_on,0,0,2,,,,,,,,,,,,,,,0,,,53,30
142560,note_on,0,0,2,,,,,,,,,,,,,,,0,,,61,36
142800,note_on,0,0,1,,,,,,,,,,,,,,,0,,,70,45
142800,set_tempo,240,1,0,,,,,,,,,,,,517866,,,,,,,
142800,note_on,240,0,1,,,,,,,,,,,,,,,0,,,67,0
143040,note_on,240,0,1,,,,,,,,,,,,,,,0,,,70,0
143040,note_on,0,0,1,,,,,,,,,,,,,,,0,,,68,45
143040,set_tempo,240,1,0,,,,,,,,,,,,540103,,,,,,,
143280,note_on,240,0,1,,,,,,,,,,,,,,,0,,,68,0
143280,note_on,0,0,1,,,,,,,,,,,,,,,0,,,73,48
143280,set_tempo,240,1,0,,,,,,,,,,,,559336,,,,,,,
143294,control_change,734,0,2,,,,,,,,,,,,,,,0,64,127,,
143520,set_tempo,240,1,0,,,,,,,,,,,,519976,,,,,,,
143520,note_on,0,0,2,,,,,,,,,,,,,,,0,,,65,43
143520,note_on,0,0,2,,,,,,,,,,,,,,,0,,,61,36
143520,note_on,0,0,2,,,,,,,,,,,,,,,0,,,49,0
143520,note_on,0,0,2,,,,,,,,,,,,,,,0,,,53,0
143520,note_on,226,0,2,,,,,,,,,,,,,,,0,,,61,0
143689,control_change,169,0,2,,,,,,,,,,,,,,,0,64,0,,
143760,note_on,71,0,2,,,,,,,,,,,,,,,0,,,65,0
143760,set_tempo,240,1,0,,,,,,,,,,,,540103,,,,,,,
143760,note_on,0,0,2,,,,,,,,,,,,,,,0,,,53,25
143760,note_on,0,0,2,,,,,,,,,,,,,,,0,,,61,0
143760,note_on,0,0,2,,,,,,,,,,,,,,,0,,,61,30
143880,note_on,120,0,2,,,,,,,,,,,,,,,0,,,61,0
143880,note_on,0,0,2,,,,,,,,,,,,,,,0,,,53,0
144000,note_on,0,0,2,,,,,,,,,,,,,,,0,,,61,36
144000,set_tempo,240,1,0,,,,,,,,,,,,564334,,,,,,,
144000,note_on,0,0,2,,,,,,,,,,,,,,,0,,,53,30
144000,note_on,120,0,2,,,,,,,,,,,,,,,0,,,49,30
144000,note_on,720,0,1,,,,,,,,,,,,,,,0,,,73,0
144000,note_on,0,0,1,,,,,,,,,,,,,,,0,,,67,48
144240,note_on,240,0,1,,,,,,,,,,,,,,,0,,,67,0
144240,note_on,0,0,1,,,,,,,,,,,,,,,0,,,70,45
144240,set_tempo,240,1,0,,,,,,,,,,,,517866,,,,,,,
144480,note_on,240,0,1,,,,,,,,,,,,,,,0,,,70,0
144480,note_on,0,0,1,,,,,,,,,,,,,,,0,,,68,45
144480,set_tempo,240,1,0,,,,,,,,,,,,540103,,,,,,,
144720,note_on,240,0,1,,,,,,,,,,,,,,,0,,,68,0
144720,note_on,0,0,1,,,,,,,,,,,,,,,0,,,73,48
144720,set_tempo,240,1,0,,,,,,,,,,,,559336,,,,,,,
144734,control_change,734,0,2,,,,,,,,,,,,,,,0,64,127,,
144960,note_on,0,0,2,,,,,,,,,,,,,,,0,,,49,0
144960,note_on,0,0,2,,,,,,,,,,,,,,,0,,,65,43
144960,note_on,0,0,2,,,,,,,,,,,,,,,0,,,53,0
144960,note_on,226,0,2,,,,,,,,,,,,,,,0,,,61,0
144960,set_tempo,240,1,0,,,,,,,,,,,,519976,,,,,,,
144960,note_on,0,0,2,,,,,,,,,,,,,,,0,,,61,36
145129,control_change,169,0,2,,,,,,,,,,,,,,,0,64,0,,
145200,set_tempo,240,1,0,,,,,,,,,,,,540103,,,,,,,
145200,note_on,0,0,2,,,,,,,,,,,,,,,0,,,61,29
145200,note_on,0,0,2,,,,,,,,,,,,,,,0,,,53,25
145200,note_on,0,0,2,,,,,,,,,,,,,,,0,,,61,0
145200,note_on,71,0,2,,,,,,,,,,,,,,,0,,,65,0
145320,note_on,0,0,2,,,,,,,,,,,,,,,0,,,53,0
145320,note_on,120,0,2,,,,,,,,,,,,,,,0,,,61,0
145440,note_on,0,0,2,,,,,,,,,,,,,,,0,,,56,36
145440,note_on,0,0,2,,,,,,,,,,,,,,,0,,,54,30
145440,note_on,120,0,2,,,,,,,,,,,,,,,0,,,48,30
145440,set_tempo,240,1,0,,,,,,,,,,,,530973,,,,,,,
145440,note_on,0,0,1,,,,,,,,,,,,,,,0,,,74,48
145440,note_on,720,0,1,,,,,,,,,,,,,,,0,,,73,0
145680,note_on,240,0,1,,,,,,,,,,,,,,,0,,,74,0
145680,set_tempo,240,1,0,,,,,,,,,,,,517866,,,,,,,
145680,note_on,0,0,1,,,,,,,,,,,,,,,0,,,77,45
145920,note_on,0,0,1,,,,,,,,,,,,,,,0,,,75,45
145920,note_on,240,0,1,,,,,,,,,,,,,,,0,,,77,0
145920,set_tempo,240,1,0,,,,,,,,,,,,540103,,,,,,,
146160,note_on,240,0,1,,,,,,,,,,,,,,,0,,,75,0
146160,set_tempo,240,1,0,,,,,,,,,,,,559336,,,,,,,
146160,note_on,0,0,1,,,,,,,,,,,,,,,0,,,68,48
146174,control_change,734,0,2,,,,,,,,,,,,,,,0,64,127,,
146400,note_on,0,0,2,,,,,,,,,,,,,,,0,,,48,0
146400,note_on,0,0,2,,,,,,,,,,,,,,,0,,,54,0
146400,note_on,0,0,2,,,,,,,,,,,,,,,0,,,63,36
146400,set_tempo,240,1,0,,,,,,,,,,,,519976,,,,,,,
146400,note_on,226,0,2,,,,,,,,,,,,,,,0,,,56,0
146400,note_on,0,0,2,,,,,,,,,,,,,,,0,,,66,43
146569,control_change,169,0,2,,,,,,,,,,,,,,,0,64,0,,
146640,note_on,0,0,2,,,,,,,,,,,,,,,0,,,56,26
146640,note_on,0,0,2,,,,,,,,,,,,,,,0,,,63,31
146640,note_on,0,0,2,,,,,,,,,,,,,,,0,,,63,0
146640,note_on,71,0,2,,,,,,,,,,,,,,,0,,,66,0
146640,set_tempo,240,1,0,,,,,,,,,,,,540103,,,,,,,
146760,note_on,0,0,2,,,,,,,,,,,,,,,0,,,63,0
146760,note_on,120,0,2,,,,,,,,,,,,,,,0,,,56,0
146880,note_on,120,0,2,,,,,,,,,,,,,,,0,,,48,30
146880,set_tempo,240,1,0,,,,,,,,,,,,530973,,,,,,,
146880,note_on,0,0,2,,,,,,,,,,,,,,,0,,,56,36
146880,note_on,0,0,1,,,,,,,,,,,,,,,0,,,74,48
146880,note_on,720,0,1,,,,,,,,,,,,,,,0,,,68,0
146880,note_on,0,0,2,,,,,,,,,,,,,,,0,,,54,30
147120,note_on,0,0,1,,,,,,,,,,,,,,,0,,,77,45
147120,note_on,240,0,1,,,,,,,,,,,,,,,0,,,74,0
147120,set_tempo,240,1,0,,,,,,,,,,,,517866,,,,,,,
147360,set_tempo,240,1,0,,,,,,,,,,,,540103,,,,,,,
147360,note_on,0,0,1,,,,,,,,,,,,,,,0,,,75,45
147360,note_on,240,0,1,,,,,,,,,,,,,,,0,,,77,0
147600,note_on,0,0,1,,,,,,,,,,,,,,,0,,,68,48
147600,set_tempo,240,1,0,,,,,,,,,,,,559336,,,,,,,
147600,note_on,240,0,1,,,,,,,,,,,,,,,0,,,75,0
147614,control_change,734,0,2,,,,,,,,,,,,,,,0,64,127,,
147840,set_tempo,240,1,0,,,,,,,,,,,,519976,,,,,,,
147840,note_on,0,0,2,,,,,,,,,,,,,,,0,,,66,43
147840,note_on,0,0,2,,,,,,,,,,,,,,,0,,,63,36
147840,note_on,0,0,2,,,,,,,,,,,,,,,0,,,48,0
147840,note_on,0,0,2,,,,,,,,,,,,,,,0,,,54,0
147840,note_on,226,0,2,,,,,,,,,,,,,,,0,,,56,0
148009,control_change,169,0,2,,,,,,,,,,,,,,,0,64,0,,
148080,set_tempo,240,1,0,,,,,,,,,,,,540103,,,,,,,
148080,note_on,71,0,2,,,,,,,,,,,,,,,0,,,66,0
148080,note_on,0,0,2,,,,,,,,,,,,,,,0,,,63,0
148080,note_on,0,0,2,,,,,,,,,,,,,,,0,,,63,31
148080,note_on,0,0,2,,,,,,,,,,,,,,,0,,,56,26
148200,note_on,0,0,2,,,,,,,,,,,,,,,0,,,63,0
148200,note_on,120,0,2,,,,,,,,,,,,,,,0,,,56,0
148320,set_tempo,240,1,0,,,,,,,,,,,,554375,,,,,,,
148320,note_on,0,0,2,,,,,,,,,,,,,,,0,,,56,36
148320,note_on,0,0,1,,,,,,,,,,,,,,,0,,,68,51
148320,note_on,720,0,1,,,,,,,,,,,,,,,0,,,68,0
148320,note_on,120,0,2,,,,,,,,,,,,,,,0,,,49,30
148560,note_on,0,0,1,,,,,,,,,,,,,,,0,,,78,55
148560,set_tempo,240,1,0,,,,,,,,,,,,528774,,,,,,,
148560,note_on,240,0,1,,,,,,,,,,,,,,,0,,,68,0
148800,note_on,0,0,1,,,,,,,,,,,,,,,0,,,77,53
148800,note_on,480,0,2,,,,,,,,,,,,,,,0,,,56,0
148800,set_tempo,240,1,0,,,,,,,,,,,,544811,,,,,,,
148800,note_on,240,0,1,,,,,,,,,,,,,,,0,,,78,0
148800,note_on,0,0,2,,,,,,,,,,,,,,,0,,,57,45
149040,note_on,240,0,1,,,,,,,,,,,,,,,0,,,77,0
149040,set_tempo,240,1,0,,,,,,,,,,,,533239,,,,,,,
149040,note_on,240,0,2,,,,,,,,,,,,,,,0,,,57,0
149040,note_on,0,0,2,,,,,,,,,,,,,,,0,,,58,48
149040,note_on,0,0,1,,,,,,,,,,,,,,,0,,,75,59
149280,note_on,0,0,1,,,,,,,,,,,,,,,0,,,73,56
149280,set_tempo,240,1,0,,,,,,,,,,,,540103,,,,,,,
149280,note_on,240,0,1,,,,,,,,,,,,,,,0,,,75,0
149520,note_on,480,0,2,,,,,,,,,,,,,,,0,,,58,0
149520,set_tempo,240,1,0,,,,,,,,,,,,540103,,,,,,,
149520,note_on,240,0,1,,,,,,,,,,,,,,,0,,,73,0
149520,note_on,0,0,2,,,,,,,,,,,,,,,0,,,57,41
149520,note_on,0,0,1,,,,,,,,,,,,,,,0,,,66,43
149520,note_on,0,0,1,,,,,,,,,,,,,,,0,,,72,51
149760,note_on,0,0,1,,,,,,,,,,,,,,,0,,,66,0
149760,note_on,240,0,1,,,,,,,,,,,,,,,0,,,72,0
149760,note_on,240,0,2,,,,,,,,,,,,,,,0,,,57,0
149760,note_on,0,0,2,,,,,,,,,,,,,,,0,,,58,48
149760,note_on,0,0,1,,,,,,,,,,,,,,,0,,,65,40
149760,note_on,0,0,1,,,,,,,,,,,,,,,0,,,70,51
149760,set_tempo,240,1,0,,,,,,,,,,,,551978,,,,,,,
150000,set_tempo,240,1,0,,,,,,,,,,,,526547,,,,,,,
150000,note_on,0,0,1,,,,,,,,,,,,,,,0,,,75,55
150000,note_on,240,0,1,,,,,,,,,,,,,,,0,,,70,0
150240,set_tempo,240,1,0,,,,,,,,,,,,544811,,,,,,,
150240,note_on,480,0,2,,,,,,,,,,,,,,,0,,,58,0
150240,note_on,0,0,2,,,,,,,,,,,,,,,0,,,53,45
150240,note_on,240,0,1,,,,,,,,,,,,,,,0,,,75,0
150240,note_on,0,0,1,,,,,,,,,,,,,,,0,,,73,53
150480,note_on,0,0,1,,,,,,,,,,,,,,,0,,,72,52
150480,note_on,240,0,2,,,,,,,,,,,,,,,0,,,53,0
150480,note_on,0,0,2,,,,,,,,,,,,,,,0,,,61,48
150480,note_on,240,0,1,,,,,,,,,,,,,,,0,,,73,0
150480,set_tempo,240,1,0,,,,,,,,,,,,537779,,,,,,,
150720,note_on,240,0,1,,,,,,,,,,,,,,,0,,,72,0
150720,note_on,0,0,1,,,,,,,,,,,,,,,0,,,70,49
150720,set_tempo,240,1,0,,,,,,,,,,,,547146,,,,,,,
150960,note_on,0,0,2,,,,,,,,,,,,,,,0,,,59,44
150960,note_on,0,0,1,,,,,,,,,,,,,,,0,,,68,45
150960,note_on,240,0,1,,,,,,,,,,,,,,,0,,,70,0
150960,note_on,480,0,2,,,,,,,,,,,,,,,0,,,61,0
151200,note_on,0,0,1,,,,,,,,,,,,,,,0,,,64,42
151200,set_tempo,480,1,0,,,,,,,,,,,,556845,,,,,,,
151200,note_on,240,0,1,,,,,,,,,,,,,,,0,,,65,0
151200,note_on,0,0,2,,,,,,,,,,,,,,,0,,,58,48
151200,note_on,0,0,2,,,,,,,,,,,,,,,0,,,48,30
151200,note_on,0,0,2,,,,,,,,,,,,,,,0,,,49,0
151200,note_on,240,0,2,,,,,,,,,,,,,,,0,,,59,0
151440,note_on,0,0,1,,,,,,,,,,,,,,,0,,,67,45
151440,set_tempo,240,1,0,,,,,,,,,,,,540103,,,,,,,
151440,note_on,240,0,1,,,,,,,,,,,,,,,0,,,68,0
151680,set_tempo,240,1,0,,,,,,,,,,,,542446,,,,,,,
151680,note_on,240,0,1,,,,,,,,,,,,,,,0,,,67,0
151680,note_on,0,0,1,,,,,,,,,,,,,,,0,,,72,45
151920,note_on,0,0,1,,,,,,,,,,,,,,,0,,,60,42
151920,note_on,0,0,1,,,,,,,,,,,,,,,0,,,68,45
151920,note_on,0,0,1,,,,,,,,,,,,,,,0,,,64,0
151920,note_on,240,0,1,,,,,,,,,,,,,,,0,,,72,0
151920,note_on,720,0,2,,,,,,,,,,,,,,,0,,,58,0
151920,note_on,0,0,2,,,,,,,,,,,,,,,0,,,56,48
151920,set_tempo,240,1,0,,,,,,,,,,,,540103,,,,,,,
152160,set_tempo,240,1,0,,,,,,,,,,,,542446,,,,,,,
152160,note_on,240,0,1,,,,,,,,,,,,,,,0,,,68,0
152160,note_on,0,0,1,,,,,,,,,,,,,,,0,,,67,45
152400,set_tempo,240,1,0,,,,,,,,,,,,551978,,,,,,,
152400,note_on,240,0,1,,,,,,,,,,,,,,,0,,,67,0
152400,note_on,0,0,1,,,,,,,,,,,,,,,0,,,73,45
152640,set_tempo,240,1,0,,,,,,,,,,,,542446,,,,,,,
152640,note_on,240,0,1,,,,,,,,,,,,,,,0,,,73,0
152640,note_on,0,0,1,,,,,,,,,,,,,,,0,,,60,0
152640,note_on,0,0,1,,,,,,,,,,,,,,,0,,,64,42
152640,note_on,0,0,1,,,,,,,,,,,,,,,0,,,68,45
152640,note_on,720,0,2,,,,,,,,,,,,,,,0,,,56,0
152640,note_on,0,0,2,,,,,,,,,,,,,,,0,,,58,48
152880,note_on,0,0,1,,,,,,,,,,,,,,,0,,,67,45
152880,note_on,240,0,1,,,,,,,,,,,,,,,0,,,68,0
153120,note_on,0,0,1,,,,,,,,,,,,,,,0,,,72,45
153120,note_on,240,0,1,,,,,,,,,,,,,,,0,,,67,0
153120,set_tempo,480,1,0,,,,,,,,,,,,556845,,,,,,,
153360,note_on,0,0,1,,,,,,,,,,,,,,,0,,,64,0
153360,note_on,240,0,1,,,,,,,,,,,,,,,0,,,72,0
153360,note_on,0,0,2,,,,,,,,,,,,,,,0,,,48,0
153360,note_on,0,0,2,,,,,,,,,,,,,,,0,,,53,36
153360,note_on,0,0,2,,,,,,,,,,,,,,,0,,,56,40
153360,note_on,720,0,2,,,,,,,,,,,,,,,0,,,58,0
153360,note_on,0,0,1,,,,,,,,,,,,,,,0,,,65,45
153600,note_on,240,0,1,,,,,,,,,,,,,,,0,,,65,0
153600,note_on,240,0,2,,,,,,,,,,,,,,,0,,,56,0
153600,note_on,0,0,2,,,,,,,,,,,,,,,0,,,53,0
153720,set_tempo,600,1,0,,,,,,,,,,,,547146,,,,,,,
153720,note_on,120,0,2,,,,,,,,,,,,,,,0,,,53,51
153840,note_on,120,0,2,,,,,,,,,,,,,,,0,,,53,0
153840,note_on,0,0,2,,,,,,,,,,,,,,,0,,,54,51
153960,note_on,120,0,2,,,,,,,,,,,,,,,0,,,54,0
153960,note_on,0,0,2,,,,,,,,,,,,,,,0,,,53,51
154080,set_tempo,360,1,0,,,,,,,,,,,,540103,,,,,,,
154080,note_on,120,0,2,,,,,,,,,,,,,,,0,,,53,0
154080,note_on,0,0,2,,,,,,,,,,,,,,,0,,,51,57
154320,note_on,0,0,2,,,,,,,,,,,,,,,0,,,54,60
154320,note_on,240,0,2,,,,,,,,,,,,,,,0,,,51,0
154320,note_on,0,0,2,,,,,,,,,,,,,,,0,,,42,50
154320,set_tempo,240,1,0,,,,,,,,,,,,526547,,,,,,,
154560,note_on,0,0,2,,,,,,,,,,,,,,,0,,,53,55
154560,note_on,240,0,2,,,,,,,,,,,,,,,0,,,41,46
154560,set_tempo,240,1,0,,,,,,,,,,,,549501,,,,,,,
154580,note_on,20,0,2,,,,,,,,,,,,,,,0,,,54,0
154580,note_on,0,0,2,,,,,,,,,,,,,,,0,,,42,0
154800,note_on,220,0,2,,,,,,,,,,,,,,,0,,,39,51
154800,note_on,0,0,2,,,,,,,,,,,,,,,0,,,51,61
154820,note_on,20,0,2,,,,,,,,,,,,,,,0,,,41,0
154820,note_on,0,0,2,,,,,,,,,,,,,,,0,,,53,0
155040,set_tempo,480,1,0,,,,,,,,,,,,533239,,,,,,,
155040,note_on,220,0,2,,,,,,,,,,,,,,,0,,,37,45
155040,note_on,0,0,2,,,,,,,,,,,,,,,0,,,49,53
155060,note_on,20,0,2,,,,,,,,,,,,,,,0,,,39,0
155060,note_on,0,0,2,,,,,,,,,,,,,,,0,,,51,0
155280,set_tempo,240,1,0,,,,,,,,,,,,559336,,,,,,,
155280,note_on,220,0,2,,,,,,,,,,,,,,,0,,,36,48
155280,note_on,0,0,2,,,,,,,,,,,,,,,0,,,48,58
155300,note_on,20,0,2,,,,,,,,,,,,,,,0,,,37,0
155300,note_on,0,0,2,,,,,,,,,,,,,,,0,,,49,0
155520,note_on,220,0,2,,,,,,,,,,,,,,,0,,,34,53
155520,note_on,0,0,2,,,,,,,,,,,,,,,0,,,46,64
155540,note_on,20,0,2,,,,,,,,,,,,,,,0,,,36,0
155540,note_on,0,0,2,,,,,,,,,,,,,,,0,,,48,0
155880,note_on,2280,0,1,,,,,,,,,,,,,,,0,,,60,42
155880,note_on,0,0,1,,,,,,,,,,,,,,,0,,,63,42
155880,note_on,0,0,1,,,,,,,,,,,,,,,0,,,66,50
156000,note_on,120,0,1,,,,,,,,,,,,,,,0,,,66,0
156000,note_on,0,0,1,,,,,,,,,,,,,,,0,,,68,55
156120,note_on,120,0,1,,,,,,,,,,,,,,,0,,,68,0
156120,note_on,0,0,1,,,,,,,,,,,,,,,0,,,66,51
156240,note_on,120,0,1,,,,,,,,,,,,,,,0,,,66,0
156240,note_on,0,0,1,,,,,,,,,,,,,,,0,,,65,61
156240,note_on,0,0,2,,,,,,,,,,,,,,,0,,,45,69
156240,note_on,700,0,2,,,,,,,,,,,,,,,0,,,34,0
156240,note_on,0,0,2,,,,,,,,,,,,,,,0,,,46,0
156240,note_on,0,0,2,,,,,,,,,,,,,,,0,,,33,59
156286,control_change,46,0,2,,,,,,,,,,,,,,,0,64,127,,
156480,note_on,0,0,2,,,,,,,,,,,,,,,0,,,33,0
156480,set_tempo,1200,1,0,,,,,,,,,,,,629195,,,,,,,
156480,note_on,194,0,2,,,,,,,,,,,,,,,0,,,45,0
156480,note_on,0,0,1,,,,,,,,,,,,,,,0,,,72,55
156480,note_on,240,0,1,,,,,,,,,,,,,,,0,,,65,0
156540,control_change,60,0,2,,,,,,,,,,,,,,,0,64,0,,
156600,note_on,120,0,1,,,,,,,,,,,,,,,0,,,72,0
156600,note_on,60,0,2,,,,,,,,,,,,,,,0,,,53,51
156600,note_on,0,0,1,,,,,,,,,,,,,,,0,,,63,0
156600,set_tempo,120,1,0,,,,,,,,,,,,547146,,,,,,,
156600,note_on,0,0,1,,,,,,,,,,,,,,,0,,,60,0
156720,note_on,0,0,2,,,,,,,,,,,,,,,0,,,54,51
156720,note_on,120,0,2,,,,,,,,,,,,,,,0,,,53,0
156840,note_on,120,0,2,,,,,,,,,,,,,,,0,,,54,0
156840,note_on,0,0,2,,,,,,,,,,,,,,,0,,,53,51
156960,note_on,0,0,2,,,,,,,,,,,,,,,0,,,51,57
156960,note_on,120,0,2,,,,,,,,,,,,,,,0,,,53,0
156960,set_tempo,360,1,0,,,,,,,,,,,,540103,,,,,,,
157200,note_on,0,0,2,,,,,,,,,,,,,,,0,,,54,60
157200,note_on,0,0,2,,,,,,,,,,,,,,,0,,,42,50
157200,note_on,240,0,2,,,,,,,,,,,,,,,0,,,51,0
157200,set_tempo,240,1,0,,,,,,,,,,,,526547,,,,,,,
157440,note_on,0,0,2,,,,,,,,,,,,,,,0,,,51,55
157440,note_on,240,0,2,,,,,,,,,,,,,,,0,,,39,46
157440,set_tempo,240,1,0,,,,,,,,,,,,549501,,,,,,,
157460,note_on,20,0,2,,,,,,,,,,,,,,,0,,,54,0
157460,note_on,0,0,2,,,,,,,,,,,,,,,0,,,42,0
157680,note_on,220,0,2,,,,,,,,,,,,,,,0,,,37,51
157680,note_on,0,0,2,,,,,,,,,,,,,,,0,,,49,61
157700,note_on,20,0,2,,,,,,,,,,,,,,,0,,,39,0
157700,note_on,0,0,2,,,,,,,,,,,,,,,0,,,51,0
157920,note_on,0,0,2,,,,,,,,,,,,,,,0,,,48,53
157920,note_on,220,0,2,,,,,,,,,,,,,,,0,,,36,45
157920,set_tempo,480,1,0,,,,,,,,,,,,533239,,,,,,,
157940,note_on,0,0,2,,,,,,,,,,,,,,,0,,,49,0
157940,note_on,20,0,2,,,,,,,,,,,,,,,0,,,37,0
158160,note_on,0,0,2,,,,,,,,,,,,,,,0,,,46,58
158160,note_on,220,0,2,,,,,,,,,,,,,,,0,,,34,48
158160,set_tempo,240,1,0,,,,,,,,,,,,559336,,,,,,,
158180,note_on,0,0,2,,,,,,,,,,,,,,,0,,,48,0
158180,note_on,20,0,2,,,,,,,,,,,,,,,0,,,36,0
158400,note_on,0,0,2,,,,,,,,,,,,,,,0,,,45,64
158400,note_on,220,0,2,,,,,,,,,,,,,,,0,,,33,53
158420,note_on,20,0,2,,,,,,,,,,,,,,,0,,,34,0
158420,note_on,0,0,2,,,,,,,,,,,,,,,0,,,46,0
158760,note_on,0,0,1,,,,,,,,,,,,,,,0,,,67,50
158760,note_on,2160,0,1,,,,,,,,,,,,,,,0,,,61,42
158880,note_on,120,0,1,,,,,,,,,,,,,,,0,,,67,0
158880,note_on,0,0,1,,,,,,,,,,,,,,,0,,,68,55
159000,note_on,120,0,1,,,,,,,,,,,,,,,0,,,68,0
159000,note_on,0,0,1,,,,,,,,,,,,,,,0,,,67,51
159120,note_on,0,0,2,,,,,,,,,,,,,,,0,,,44,69
159120,note_on,0,0,2,,,,,,,,,,,,,,,0,,,32,59
159120,note_on,700,0,2,,,,,,,,,,,,,,,0,,,33,0
159120,note_on,0,0,1,,,,,,,,,,,,,,,0,,,68,61
159120,note_on,0,0,1,,,,,,,,,,,,,,,0,,,60,42
159120,note_on,0,0,1,,,,,,,,,,,,,,,0,,,61,0
159120,note_on,120,0,1,,,,,,,,,,,,,,,0,,,67,0
159120,note_on,0,0,2,,,,,,,,,,,,,,,0,,,45,0
159166,control_change,46,0,2,,,,,,,,,,,,,,,0,64,127,,
159360,note_on,194,0,2,,,,,,,,,,,,,,,0,,,44,0
159360,note_on,0,0,2,,,,,,,,,,,,,,,0,,,32,0
159360,note_on,0,0,1,,,,,,,,,,,,,,,0,,,75,55
159360,note_on,240,0,1,,,,,,,,,,,,,,,0,,,68,0
159434,control_change,74,0,2,,,,,,,,,,,,,,,0,64,0,,
159480,note_on,46,0,2,,,,,,,,,,,,,,,0,,,53,51
159480,set_tempo,1320,1,0,,,,,,,,,,,,579934,,,,,,,
159480,note_on,120,0,1,,,,,,,,,,,,,,,0,,,75,0
159480,note_on,0,0,1,,,,,,,,,,,,,,,0,,,60,0
159600,note_on,120,0,2,,,,,,,,,,,,,,,0,,,53,0
159600,note_on,0,0,2,,,,,,,,,,,,,,,0,,,54,51
159720,note_on,120,0,2,,,,,,,,,,,,,,,0,,,54,0
159720,note_on,0,0,2,,,,,,,,,,,,,,,0,,,53,51
159840,note_on,120,0,2,,,,,,,,,,,,,,,0,,,53,0
159840,set_tempo,360,1,0,,,,,,,,,,,,588062,,,,,,,
159840,note_on,0,0,2,,,,,,,,,,,,,,,0,,,51,57
160080,note_on,0,0,2,,,,,,,,,,,,,,,0,,,42,44
160080,note_on,240,0,2,,,,,,,,,,,,,,,0,,,51,0
160080,set_tempo,240,1,0,,,,,,,,,,,,559336,,,,,,,
160080,note_on,0,0,2,,,,,,,,,,,,,,,0,,,54,52
160320,set_tempo,240,1,0,,,,,,,,,,,,574603,,,,,,,
160320,note_on,0,0,2,,,,,,,,,,,,,,,0,,,51,47
160320,note_on,240,0,2,,,,,,,,,,,,,,,0,,,39,39
160340,note_on,20,0,2,,,,,,,,,,,,,,,0,,,54,0
160340,note_on,0,0,2,,,,,,,,,,,,,,,0,,,42,0
160560,note_on,220,0,2,,,,,,,,,,,,,,,0,,,36,37
160560,note_on,0,0,2,,,,,,,,,,,,,,,0,,,48,44
160560,set_tempo,240,1,0,,,,,,,,,,,,593648,,,,,,,
160580,note_on,20,0,2,,,,,,,,,,,,,,,0,,,39,0
160580,note_on,0,0,2,,,,,,,,,,,,,,,0,,,51,0
160800,note_on,220,0,2,,,,,,,,,,,,,,,0,,,33,34
160800,note_on,0,0,2,,,,,,,,,,,,,,,0,,,45,41
160800,set_tempo,240,1,0,,,,,,,,,,,,623053,,,,,,,
160820,note_on,20,0,2,,,,,,,,,,,,,,,0,,,36,0
160820,note_on,0,0,2,,,,,,,,,,,,,,,0,,,48,0
161040,set_tempo,240,1,0,,,,,,,,,,,,658906,,,,,,,
161040,note_on,220,0,2,,,,,,,,,,,,,,,0,,,32,32
161040,note_on,0,0,2,,,,,,,,,,,,,,,0,,,44,38
161060,note_on,0,0,2,,,,,,,,,,,,,,,0,,,45,0
161060,note_on,20,0,2,,,,,,,,,,,,,,,0,,,33,0
161280,note_on,0,0,2,,,,,,,,,,,,,,,0,,,42,35
161280,note_on,220,0,2,,,,,,,,,,,,,,,0,,,30,29
161280,set_tempo,240,1,0,,,,,,,,,,,,613874,,,,,,,
161300,note_on,20,0,2,,,,,,,,,,,,,,,0,,,32,0
161300,note_on,0,0,2,,,,,,,,,,,,,,,0,,,44,0
161640,note_on,2160,0,1,,,,,,,,,,,,,,,0,,,60,31
161640,note_on,0,0,1,,,,,,,,,,,,,,,0,,,69,38
161640,set_tempo,360,1,0,,,,,,,,,,,,556845,,,,,,,
161760,note_on,0,0,1,,,,,,,,,,,,,,,0,,,70,41
161760,note_on,120,0,1,,,,,,,,,,,,,,,0,,,69,0
161880,set_tempo,240,1,0,,,,,,,,,,,,585366,,,,,,,
161880,note_on,120,0,1,,,,,,,,,,,,,,,0,,,70,0
161880,note_on,0,0,1,,,,,,,,,,,,,,,0,,,69,38
162000,set_tempo,120,1,0,,,,,,,,,,,,555556,,,,,,,
162000,note_on,120,0,1,,,,,,,,,,,,,,,0,,,69,0
162000,note_on,0,0,1,,,,,,,,,,,,,,,0,,,61,31
162000,note_on,0,0,1,,,,,,,,,,,,,,,0,,,70,46
162000,note_on,0,0,1,,,,,,,,,,,,,,,0,,,60,0
162720,note_on,720,0,1,,,,,,,,,,,,,,,0,,,70,0
162720,note_on,0,0,1,,,,,,,,,,,,,,,0,,,61,0
163080,set_tempo,1080,1,0,,,,,,,,,,,,556845,,,,,,,
163080,note_on,0,0,1,,,,,,,,,,,,,,,0,,,69,38
163080,note_on,360,0,1,,,,,,,,,,,,,,,0,,,60,31
163200,note_on,0,0,1,,,,,,,,,,,,,,,0,,,70,41
163200,note_on,120,0,1,,,,,,,,,,,,,,,0,,,69,0
163200,set_tempo,120,1,0,,,,,,,,,,,,538117,,,,,,,
163320,set_tempo,120,1,0,,,,,,,,,,,,571429,,,,,,,
163320,note_on,120,0,1,,,,,,,,,,,,,,,0,,,70,0
163320,note_on,0,0,1,,,,,,,,,,,,,,,0,,,69,38
163440,note_on,120,0,1,,,,,,,,,,,,,,,0,,,69,0
163440,note_on,0,0,1,,,,,,,,,,,,,,,0,,,60,0
163440,note_on,0,0,1,,,,,,,,,,,,,,,0,,,61,31
163440,note_on,0,0,1,,,,,,,,,,,,,,,0,,,70,46
163440,set_tempo,120,1,0,,,,,,,,,,,,555556,,,,,,,
164160,note_on,720,0,1,,,,,,,,,,,,,,,0,,,70,0
164160,note_on,0,0,1,,,,,,,,,,,,,,,0,,,61,0
164493,set_tempo,1053,1,0,,,,,,,,,,,,556845,,,,,,,
164520,note_on,360,0,1,,,,,,,,,,,,,,,0,,,60,31
164520,note_on,0,0,1,,,,,,,,,,,,,,,0,,,69,38
164640,note_on,0,0,1,,,,,,,,,,,,,,,0,,,70,41
164640,set_tempo,147,1,0,,,,,,,,,,,,545455,,,,,,,
164640,note_on,120,0,1,,,,,,,,,,,,,,,0,,,69,0
164733,note_on,93,0,1,,,,,,,,,,,,,,,0,,,69,38
164760,set_tempo,120,1,0,,,,,,,,,,,,582524,,,,,,,
164760,note_on,27,0,1,,,,,,,,,,,,,,,0,,,70,0
164853,note_on,93,0,1,,,,,,,,,,,,,,,0,,,69,0
164880,note_on,27,0,1,,,,,,,,,,,,,,,0,,,60,0
164880,set_tempo,120,1,0,,,,,,,,,,,,555556,,,,,,,
164880,note_on,0,0,1,,,,,,,,,,,,,,,0,,,61,31
164880,note_on,0,0,1,,,,,,,,,,,,,,,0,,,70,46
165120,set_tempo,240,1,0,,,,,,,,,,,,535714,,,,,,,
165360,note_on,480,0,1,,,,,,,,,,,,,,,0,,,61,0
165360,note_on,0,0,1,,,,,,,,,,,,,,,0,,,62,48
165360,set_tempo,240,1,0,,,,,,,,,,,,582581,,,,,,,
165600,note_on,240,0,1,,,,,,,,,,,,,,,0,,,62,0
165600,note_on,0,0,1,,,,,,,,,,,,,,,0,,,70,0
165600,note_on,0,0,1,,,,,,,,,,,,,,,0,,,63,45
165600,note_on,0,0,1,,,,,,,,,,,,,,,0,,,73,53
165600,set_tempo,240,1,0,,,,,,,,,,,,561798,,,,,,,
165840,note_on,240,0,1,,,,,,,,,,,,,,,0,,,73,0
165840,note_on,0,0,1,,,,,,,,,,,,,,,0,,,71,47
165840,set_tempo,240,1,0,,,,,,,,,,,,579934,,,,,,,
166080,note_on,240,0,1,,,,,,,,,,,,,,,0,,,71,0
166080,note_on,0,0,1,,,,,,,,,,,,,,,0,,,63,0
166080,note_on,0,0,1,,,,,,,,,,,,,,,0,,,61,40
166080,note_on,0,0,1,,,,,,,,,,,,,,,0,,,70,48
166320,set_tempo,480,1,0,,,,,,,,,,,,561798,,,,,,,
166320,note_on,240,0,1,,,,,,,,,,,,,,,0,,,61,0
166320,note_on,0,0,1,,,,,,,,,,,,,,,0,,,60,41
166560,note_on,240,0,1,,,,,,,,,,,,,,,0,,,70,0
166560,set_tempo,240,1,0,,,,,,,,,,,,579934,,,,,,,
166560,note_on,0,0,1,,,,,,,,,,,,,,,0,,,68,42
166800,note_on,240,0,1,,,,,,,,,,,,,,,0,,,68,0
166800,note_on,0,0,1,,,,,,,,,,,,,,,0,,,70,42
166800,note_on,0,0,1,,,,,,,,,,,,,,,0,,,61,36
166800,note_on,0,0,1,,,,,,,,,,,,,,,0,,,60,0
167040,note_on,0,0,1,,,,,,,,,,,,,,,0,,,58,41
167040,note_on,0,0,1,,,,,,,,,,,,,,,0,,,66,49
167040,note_on,240,0,1,,,,,,,,,,,,,,,0,,,70,0
167040,note_on,0,0,1,,,,,,,,,,,,,,,0,,,61,0
167520,note_on,0,0,1,,,,,,,,,,,,,,,0,,,58,0
167520,note_on,0,0,1,,,,,,,,,,,,,,,0,,,61,40
167520,note_on,0,0,1,,,,,,,,,,,,,,,0,,,70,48
167520,note_on,480,0,1,,,,,,,,,,,,,,,0,,,66,0
167760,note_on,0,0,1,,,,,,,,,,,,,,,0,,,73,53
167760,set_tempo,1200,1,0,,,,,,,,,,,,582581,,,,,,,
167760,note_on,0,0,1,,,,,,,,,,,,,,,0,,,64,45
167760,note_on,0,0,1,,,,,,,,,,,,,,,0,,,61,0
167760,note_on,240,0,1,,,,,,,,,,,,,,,0,,,70,0
168000,set_tempo,240,1,0,,,,,,,,,,,,561798,,,,,,,
168000,note_on,0,0,1,,,,,,,,,,,,,,,0,,,67,49
168000,note_on,240,0,1,,,,,,,,,,,,,,,0,,,64,0
168240,set_tempo,240,1,0,,,,,,,,,,,,577312,,,,,,,
168240,note_on,0,0,1,,,,,,,,,,,,,,,0,,,66,50
168240,note_on,240,0,1,,,,,,,,,,,,,,,0,,,67,0
168480,note_on,240,0,1,,,,,,,,,,,,,,,0,,,66,0
168480,note_on,0,0,1,,,,,,,,,,,,,,,0,,,64,44
168720,set_tempo,480,1,0,,,,,,,,,,,,566893,,,,,,,
168720,note_on,240,0,1,,,,,,,,,,,,,,,0,,,64,0
168720,note_on,0,0,1,,,,,,,,,,,,,,,0,,,73,0
168720,note_on,0,0,1,,,,,,,,,,,,,,,0,,,71,44
168720,note_on,0,0,1,,,,,,,,,,,,,,,0,,,63,37
168960,note_on,0,0,1,,,,,,,,,,,,,,,0,,,71,0
168960,set_tempo,240,1,0,,,,,,,,,,,,547146,,,,,,,
168960,note_on,240,0,1,,,,,,,,,,,,,,,0,,,63,0
168960,note_on,0,0,1,,,,,,,,,,,,,,,0,,,70,44
168960,note_on,0,0,1,,,,,,,,,,,,,,,0,,,61,37
169200,note_on,0,0,1,,,,,,,,,,,,,,,0,,,60,40
169200,note_on,240,0,1,,,,,,,,,,,,,,,0,,,61,0
169200,set_tempo,240,1,0,,,,,,,,,,,,572028,,,,,,,
169440,note_on,240,0,1,,,,,,,,,,,,,,,0,,,70,0
169440,note_on,0,0,1,,,,,,,,,,,,,,,0,,,68,44
169440,set_tempo,240,1,0,,,,,,,,,,,,564334,,,,,,,
169680,note_on,0,0,1,,,,,,,,,,,,,,,0,,,70,44
169680,note_on,0,0,1,,,,,,,,,,,,,,,0,,,60,0
169680,note_on,0,0,1,,,,,,,,,,,,,,,0,,,61,37
169680,note_on,240,0,1,,,,,,,,,,,,,,,0,,,68,0
169680,set_tempo,240,1,0,,,,,,,,,,,,582581,,,,,,,
169920,note_on,0,0,1,,,,,,,,,,,,,,,0,,,70,0
169920,note_on,0,0,1,,,,,,,,,,,,,,,0,,,66,49
169920,note_on,0,0,1,,,,,,,,,,,,,,,0,,,58,41
169920,note_on,0,0,2,,,,,,,,,,,,,,,0,,,42,35
169920,note_on,0,0,2,,,,,,,,,,,,,,,0,,,42,0
169920,note_on,8620,0,2,,,,,,,,,,,,,,,0,,,30,0
169920,note_on,240,0,1,,,,,,,,,,,,,,,0,,,61,0
170000,control_change,80,0,2,,,,,,,,,,,,,,,0,64,127,,
170400,note_on,480,0,1,,,,,,,,,,,,,,,0,,,66,0
170400,set_tempo,720,1,0,,,,,,,,,,,,564334,,,,,,,
170400,note_on,0,0,1,,,,,,,,,,,,,,,0,,,70,49
170640,note_on,0,0,1,,,,,,,,,,,,,,,0,,,68,49
170640,note_on,0,0,1,,,,,,,,,,,,,,,0,,,59,41
170640,note_on,0,0,1,,,,,,,,,,,,,,,0,,,58,0
170640,note_on,640,0,2,,,,,,,,,,,,,,,0,,,50,40
170640,set_tempo,240,1,0,,,,,,,,,,,,582581,,,,,,,
170640,note_on,240,0,1,,,,,,,,,,,,,,,0,,,70,0
170651,control_change,11,0,2,,,,,,,,,,,,,,,0,64,0,,
170787,control_change,136,0,2,,,,,,,,,,,,,,,0,64,127,,
171120,note_on,0,0,1,,,,,,,,,,,,,,,0,,,70,47
171120,note_on,480,0,1,,,,,,,,,,,,,,,0,,,68,0
171120,set_tempo,480,1,0,,,,,,,,,,,,566893,,,,,,,
171360,note_on,573,0,2,,,,,,,,,,,,,,,0,,,50,0
171360,set_tempo,240,1,0,,,,,,,,,,,,579934,,,,,,,
171360,note_on,0,0,2,,,,,,,,,,,,,,,0,,,49,38
171360,note_on,0,0,1,,,,,,,,,,,,,,,0,,,59,0
171360,note_on,0,0,1,,,,,,,,,,,,,,,0,,,58,39
171360,note_on,0,0,1,,,,,,,,,,,,,,,0,,,66,46
171360,note_on,240,0,1,,,,,,,,,,,,,,,0,,,70,0
171370,control_change,10,0,2,,,,,,,,,,,,,,,0,64,0,,
171467,control_change,97,0,2,,,,,,,,,,,,,,,0,64,127,,
171840,set_tempo,480,1,0,,,,,,,,,,,,569422,,,,,,,
171840,note_on,480,0,1,,,,,,,,,,,,,,,0,,,66,0
171840,note_on,0,0,1,,,,,,,,,,,,,,,0,,,70,45
172080,note_on,0,0,1,,,,,,,,,,,,,,,0,,,59,37
172080,set_tempo,240,1,0,,,,,,,,,,,,588062,,,,,,,
172080,note_on,0,0,1,,,,,,,,,,,,,,,0,,,58,0
172080,note_on,0,0,2,,,,,,,,,,,,,,,0,,,50,36
172080,note_on,240,0,1,,,,,,,,,,,,,,,0,,,70,0
172080,note_on,613,0,2,,,,,,,,,,,,,,,0,,,49,0
172080,note_on,0,0,1,,,,,,,,,,,,,,,0,,,68,44
172090,control_change,10,0,2,,,,,,,,,,,,,,,0,64,0,,
172240,control_change,150,0,2,,,,,,,,,,,,,,,0,64,127,,
172560,note_on,480,0,1,,,,,,,,,,,,,,,0,,,68,0
172560,note_on,0,0,1,,,,,,,,,,,,,,,0,,,70,42
172800,note_on,0,0,1,,,,,,,,,,,,,,,0,,,66,40
172800,note_on,0,0,1,,,,,,,,,,,,,,,0,,,58,37
172800,note_on,0,0,1,,,,,,,,,,,,,,,0,,,59,0
172800,note_on,240,0,1,,,,,,,,,,,,,,,0,,,70,0
172800,note_on,560,0,2,,,,,,,,,,,,,,,0,,,50,0
172800,note_on,0,0,2,,,,,,,,,,,,,,,0,,,42,0
172800,note_on,0,0,2,,,,,,,,,,,,,,,0,,,42,32
172800,note_on,0,0,2,,,,,,,,,,,,,,,0,,,49,36
172810,control_change,10,0,2,,,,,,,,,,,,,,,0,64,0,,
172973,control_change,163,0,2,,,,,,,,,,,,,,,0,64,127,,
173520,note_on,0,0,1,,,,,,,,,,,,,,,0,,,65,40
173520,note_on,720,0,1,,,,,,,,,,,,,,,0,,,66,0
173520,set_tempo,1440,1,0,,,,,,,,,,,,621762,,,,,,,
173530,control_change,557,0,2,,,,,,,,,,,,,,,0,64,0,,
173680,control_change,150,0,2,,,,,,,,,,,,,,,0,64,127,,
174240,note_on,0,0,2,,,,,,,,,,,,,,,0,,,43,34
174240,set_tempo,720,1,0,,,,,,,,,,,,648649,,,,,,,
174240,note_on,720,0,1,,,,,,,,,,,,,,,0,,,65,0
174240,note_on,0,0,1,,,,,,,,,,,,,,,0,,,64,38
174240,note_on,560,0,2,,,,,,,,,,,,,,,0,,,42,0
174248,control_change,8,0,2,,,,,,,,,,,,,,,0,64,0,,
174387,control_change,139,0,2,,,,,,,,,,,,,,,0,64,127,,
174960,note_on,573,0,2,,,,,,,,,,,,,,,0,,,43,0
174960,note_on,0,0,2,,,,,,,,,,,,,,,0,,,49,0
174960,note_on,0,0,2,,,,,,,,,,,,,,,0,,,44,26
174960,note_on,0,0,2,,,,,,,,,,,,,,,0,,,48,26
174960,control_change,0,0,2,,,,,,,,,,,,,,,0,64,0,,
174960,note_on,0,0,1,,,,,,,,,,,,,,,0,,,63,37
174960,note_on,0,0,1,,,,,,,,,,,,,,,0,,,58,0
174960,note_on,720,0,1,,,,,,,,,,,,,,,0,,,64,0
174960,note_on,0,0,2,,,,,,,,,,,,,,,0,,,54,31
175440,note_on,0,0,1,,,,,,,,,,,,,,,0,,,68,35
175440,note_on,480,0,1,,,,,,,,,,,,,,,0,,,63,0
175440,set_tempo,1200,1,0,,,,,,,,,,,,600000,,,,,,,
175680,note_on,0,0,1,,,,,,,,,,,,,,,0,,,67,47
175680,note_on,240,0,1,,,,,,,,,,,,,,,0,,,68,0
175680,note_on,720,0,2,,,,,,,,,,,,,,,0,,,54,0
175680,note_on,0,0,2,,,,,,,,,,,,,,,0,,,48,0
175680,note_on,0,0,2,,,,,,,,,,,,,,,0,,,44,0
175680,note_on,0,0,2,,,,,,,,,,,,,,,0,,,49,29
175680,set_tempo,240,1,0,,,,,,,,,,,,564334,,,,,,,
175680,note_on,0,0,2,,,,,,,,,,,,,,,0,,,61,35
175680,note_on,0,0,2,,,,,,,,,,,,,,,0,,,53,29
175920,note_on,240,0,1,,,,,,,,,,,,,,,0,,,67,0
175920,note_on,0,0,1,,,,,,,,,,,,,,,0,,,70,44
175920,set_tempo,240,1,0,,,,,,,,,,,,530973,,,,,,,
176160,note_on,240,0,1,,,,,,,,,,,,,,,0,,,70,0
176160,note_on,0,0,1,,,,,,,,,,,,,,,0,,,68,44
176160,set_tempo,240,1,0,,,,,,,,,,,,540103,,,,,,,
176400,note_on,240,0,1,,,,,,,,,,,,,,,0,,,68,0
176400,note_on,0,0,1,,,,,,,,,,,,,,,0,,,73,47
176400,set_tempo,240,1,0,,,,,,,,,,,,559336,,,,,,,
176414,control_change,734,0,2,,,,,,,,,,,,,,,0,64,127,,
176640,set_tempo,240,1,0,,,,,,,,,,,,519976,,,,,,,
176640,note_on,0,0,2,,,,,,,,,,,,,,,0,,,49,0
176640,note_on,0,0,2,,,,,,,,,,,,,,,0,,,53,0
176640,note_on,226,0,2,,,,,,,,,,,,,,,0,,,61,0
176640,note_on,0,0,2,,,,,,,,,,,,,,,0,,,61,35
176640,note_on,0,0,2,,,,,,,,,,,,,,,0,,,65,41
176809,control_change,169,0,2,,,,,,,,,,,,,,,0,64,0,,
176880,set_tempo,240,1,0,,,,,,,,,,,,540103,,,,,,,
176880,note_on,0,0,2,,,,,,,,,,,,,,,0,,,56,28
176880,note_on,0,0,2,,,,,,,,,,,,,,,0,,,61,0
176880,note_on,71,0,2,,,,,,,,,,,,,,,0,,,65,0
177000,note_on,120,0,2,,,,,,,,,,,,,,,0,,,56,0
177120,set_tempo,240,1,0,,,,,,,,,,,,564334,,,,,,,
177120,note_on,120,0,2,,,,,,,,,,,,,,,0,,,53,29
177120,note_on,0,0,2,,,,,,,,,,,,,,,0,,,49,29
177120,note_on,0,0,2,,,,,,,,,,,,,,,0,,,61,35
177120,note_on,0,0,1,,,,,,,,,,,,,,,0,,,67,47
177120,note_on,720,0,1,,,,,,,,,,,,,,,0,,,73,0
177360,set_tempo,240,1,0,,,,,,,,,,,,517866,,,,,,,
177360,note_on,240,0,1,,,,,,,,,,,,,,,0,,,67,0
177360,note_on,0,0,1,,,,,,,,,,,,,,,0,,,70,44
177600,set_tempo,240,1,0,,,,,,,,,,,,540103,,,,,,,
177600,note_on,240,0,1,,,,,,,,,,,,,,,0,,,70,0
177600,note_on,0,0,1,,,,,,,,,,,,,,,0,,,68,44
177840,set_tempo,240,1,0,,,,,,,,,,,,559336,,,,,,,
177840,note_on,240,0,1,,,,,,,,,,,,,,,0,,,68,0
177840,note_on,0,0,1,,,,,,,,,,,,,,,0,,,73,47
177854,control_change,734,0,2,,,,,,,,,,,,,,,0,64,127,,
178080,note_on,0,0,2,,,,,,,,,,,,,,,0,,,65,41
178080,note_on,0,0,2,,,,,,,,,,,,,,,0,,,61,35
178080,note_on,0,0,2,,,,,,,,,,,,,,,0,,,53,0
178080,note_on,0,0,2,,,,,,,,,,,,,,,0,,,49,0
178080,note_on,226,0,2,,,,,,,,,,,,,,,0,,,61,0
178080,set_tempo,240,1,0,,,,,,,,,,,,519976,,,,,,,
178249,control_change,169,0,2,,,,,,,,,,,,,,,0,64,0,,
178320,set_tempo,240,1,0,,,,,,,,,,,,540103,,,,,,,
178320,note_on,0,0,2,,,,,,,,,,,,,,,0,,,56,28
178320,note_on,0,0,2,,,,,,,,,,,,,,,0,,,61,0
178320,note_on,71,0,2,,,,,,,,,,,,,,,0,,,65,0
178440,note_on,120,0,2,,,,,,,,,,,,,,,0,,,56,0
178560,note_on,0,0,2,,,,,,,,,,,,,,,0,,,56,35
178560,note_on,120,0,2,,,,,,,,,,,,,,,0,,,48,29
178560,note_on,720,0,1,,,,,,,,,,,,,,,0,,,73,0
178560,note_on,0,0,1,,,,,,,,,,,,,,,0,,,74,47
178560,note_on,0,0,2,,,,,,,,,,,,,,,0,,,54,29
178800,note_on,0,0,1,,,,,,,,,,,,,,,0,,,77,44
178800,note_on,240,0,1,,,,,,,,,,,,,,,0,,,74,0
178800,set_tempo,480,1,0,,,,,,,,,,,,517866,,,,,,,
179040,note_on,240,0,1,,,,,,,,,,,,,,,0,,,77,0
179040,note_on,0,0,1,,,,,,,,,,,,,,,0,,,75,44
179040,set_tempo,240,1,0,,,,,,,,,,,,540103,,,,,,,
179280,note_on,240,0,1,,,,,,,,,,,,,,,0,,,75,0
179280,note_on,0,0,1,,,,,,,,,,,,,,,0,,,68,47
179280,set_tempo,240,1,0,,,,,,,,,,,,559336,,,,,,,
179294,control_change,734,0,2,,,,,,,,,,,,,,,0,64,127,,
179520,note_on,0,0,2,,,,,,,,,,,,,,,0,,,54,0
179520,set_tempo,240,1,0,,,,,,,,,,,,519976,,,,,,,
179520,note_on,226,0,2,,,,,,,,,,,,,,,0,,,56,0
179520,note_on,0,0,2,,,,,,,,,,,,,,,0,,,48,0
179520,note_on,0,0,2,,,,,,,,,,,,,,,0,,,66,41
179520,note_on,0,0,2,,,,,,,,,,,,,,,0,,,63,35
179689,control_change,169,0,2,,,,,,,,,,,,,,,0,64,0,,
179760,set_tempo,240,1,0,,,,,,,,,,,,540103,,,,,,,
179760,note_on,71,0,2,,,,,,,,,,,,,,,0,,,63,0
179760,note_on,0,0,2,,,,,,,,,,,,,,,0,,,56,30
179760,note_on,0,0,2,,,,,,,,,,,,,,,0,,,66,0
179880,note_on,120,0,2,,,,,,,,,,,,,,,0,,,56,0
180000,note_on,0,0,2,,,,,,,,,,,,,,,0,,,56,35
180000,note_on,120,0,2,,,,,,,,,,,,,,,0,,,54,29
180000,note_on,720,0,1,,,,,,,,,,,,,,,0,,,68,0
180000,note_on,0,0,1,,,,,,,,,,,,,,,0,,,74,47
180000,note_on,0,0,2,,,,,,,,,,,,,,,0,,,48,29
180000,set_tempo,240,1,0,,,,,,,,,,,,530973,,,,,,,
180240,note_on,0,0,1,,,,,,,,,,,,,,,0,,,77,44
180240,note_on,240,0,1,,,,,,,,,,,,,,,0,,,74,0
180240,set_tempo,240,1,0,,,,,,,,,,,,517866,,,,,,,
180480,note_on,240,0,1,,,,,,,,,,,,,,,0,,,77,0
180480,note_on,0,0,1,,,,,,,,,,,,,,,0,,,75,44
180480,set_tempo,240,1,0,,,,,,,,,,,,540103,,,,,,,
180720,note_on,240,0,1,,,,,,,,,,,,,,,0,,,75,0
180720,note_on,0,0,1,,,,,,,,,,,,,,,0,,,68,47
180720,set_tempo,240,1,0,,,,,,,,,,,,559336,,,,,,,
180734,control_change,734,0,2,,,,,,,,,,,,,,,0,64,127,,
180960,set_tempo,240,1,0,,,,,,,,,,,,519976,,,,,,,
180960,note_on,0,0,2,,,,,,,,,,,,,,,0,,,56,0
180960,note_on,0,0,2,,,,,,,,,,,,,,,0,,,54,0
180960,note_on,0,0,2,,,,,,,,,,,,,,,0,,,63,35
180960,note_on,0,0,2,,,,,,,,,,,,,,,0,,,66,41
180960,note_on,226,0,2,,,,,,,,,,,,,,,0,,,48,0
181129,control_change,169,0,2,,,,,,,,,,,,,,,0,64,0,,
181200,set_tempo,240,1,0,,,,,,,,,,,,540103,,,,,,,
181200,note_on,0,0,2,,,,,,,,,,,,,,,0,,,63,0
181200,note_on,0,0,2,,,,,,,,,,,,,,,0,,,56,30
181200,note_on,71,0,2,,,,,,,,,,,,,,,0,,,66,0
181320,note_on,120,0,2,,,,,,,,,,,,,,,0,,,56,0
181440,note_on,0,0,2,,,,,,,,,,,,,,,0,,,61,35
181440,note_on,0,0,2,,,,,,,,,,,,,,,0,,,49,29
181440,note_on,120,0,2,,,,,,,,,,,,,,,0,,,56,29
181440,set_tempo,240,1,0,,,,,,,,,,,,554375,,,,,,,
181440,note_on,720,0,1,,,,,,,,,,,,,,,0,,,68,0
181440,note_on,0,0,1,,,,,,,,,,,,,,,0,,,68,49
181680,note_on,240,0,1,,,,,,,,,,,,,,,0,,,68,0
181680,note_on,0,0,1,,,,,,,,,,,,,,,0,,,78,53
181680,set_tempo,240,1,0,,,,,,,,,,,,528774,,,,,,,
181920,note_on,240,0,1,,,,,,,,,,,,,,,0,,,78,0
181920,note_on,0,0,1,,,,,,,,,,,,,,,0,,,77,51
181920,set_tempo,240,1,0,,,,,,,,,,,,544811,,,,,,,
182160,set_tempo,240,1,0,,,,,,,,,,,,554375,,,,,,,
182160,note_on,0,0,2,,,,,,,,,,,,,,,0,,,61,35
182160,note_on,0,0,2,,,,,,,,,,,,,,,0,,,56,29
182160,note_on,0,0,2,,,,,,,,,,,,,,,0,,,53,29
182160,note_on,0,0,2,,,,,,,,,,,,,,,0,,,56,0
182160,note_on,720,0,2,,,,,,,,,,,,,,,0,,,61,0
182160,note_on,0,0,1,,,,,,,,,,,,,,,0,,,73,49
182160,note_on,240,0,1,,,,,,,,,,,,,,,0,,,77,0
182160,note_on,0,0,2,,,,,,,,,,,,,,,0,,,49,0
182400,note_on,0,0,1,,,,,,,,,,,,,,,0,,,82,53
182400,note_on,240,0,1,,,,,,,,,,,,,,,0,,,73,0
182400,set_tempo,240,1,0,,,,,,,,,,,,528774,,,,,,,
182640,note_on,0,0,1,,,,,,,,,,,,,,,0,,,80,51
182640,note_on,240,0,1,,,,,,,,,,,,,,,0,,,82,0
182640,set_tempo,240,1,0,,,,,,,,,,,,544811,,,,,,,
182880,note_on,240,0,1,,,,,,,,,,,,,,,0,,,80,0
182880,note_on,0,0,1,,,,,,,,,,,,,,,0,,,75,49
182880,note_on,0,0,1,,,,,,,,,,,,,,,0,,,66,41
182880,note_on,720,0,2,,,,,,,,,,,,,,,0,,,61,0
182880,note_on,0,0,2,,,,,,,,,,,,,,,0,,,56,0
182880,set_tempo,240,1,0,,,,,,,,,,,,582581,,,,,,,
182880,note_on,0,0,2,,,,,,,,,,,,,,,0,,,60,35
182880,note_on,0,0,2,,,,,,,,,,,,,,,0,,,56,29
182880,note_on,0,0,2,,,,,,,,,,,,,,,0,,,53,0
183120,set_tempo,240,1,0,,,,,,,,,,,,559336,,,,,,,
183120,note_on,240,0,1,,,,,,,,,,,,,,,0,,,75,0
183120,note_on,0,0,1,,,,,,,,,,,,,,,0,,,66,0
183120,note_on,0,0,1,,,,,,,,,,,,,,,0,,,70,45
183120,note_on,0,0,1,,,,,,,,,,,,,,,0,,,78,53
183360,set_tempo,240,1,0,,,,,,,,,,,,596421,,,,,,,
183360,note_on,0,0,1,,,,,,,,,,,,,,,0,,,77,51
183360,note_on,0,0,1,,,,,,,,,,,,,,,0,,,70,0
183360,note_on,240,0,1,,,,,,,,,,,,,,,0,,,78,0
183360,note_on,0,0,1,,,,,,,,,,,,,,,0,,,68,43
183600,note_on,0,0,2,,,,,,,,,,,,,,,0,,,65,35
183600,note_on,0,0,2,,,,,,,,,,,,,,,0,,,61,29
183600,note_on,0,0,2,,,,,,,,,,,,,,,0,,,56,0
183600,note_on,720,0,2,,,,,,,,,,,,,,,0,,,60,0
183600,note_on,0,0,1,,,,,,,,,,,,,,,0,,,73,49
183600,note_on,0,0,1,,,,,,,,,,,,,,,0,,,68,0
183600,note_on,240,0,1,,,,,,,,,,,,,,,0,,,77,0
183960,set_tempo,600,1,0,,,,,,,,,,,,571429,,,,,,,
183960,note_on,360,0,1,,,,,,,,,,,,,,,0,,,73,0
183960,note_on,0,0,1,,,,,,,,,,,,,,,0,,,80,49
184080,note_on,120,0,1,,,,,,,,,,,,,,,0,,,80,0
184080,note_on,0,0,1,,,,,,,,,,,,,,,0,,,82,49
184080,set_tempo,120,1,0,,,,,,,,,,,,594059,,,,,,,
184080,note_on,480,0,2,,,,,,,,,,,,,,,0,,,61,0
184080,note_on,0,0,2,,,,,,,,,,,,,,,0,,,65,0
184200,note_on,120,0,1,,,,,,,,,,,,,,,0,,,82,0
184200,note_on,0,0,1,,,,,,,,,,,,,,,0,,,80,49
184320,note_on,240,0,2,,,,,,,,,,,,,,,0,,,49,29
184320,note_on,0,0,2,,,,,,,,,,,,,,,0,,,53,29
184320,note_on,0,0,2,,,,,,,,,,,,,,,0,,,61,35
184320,set_tempo,240,1,0,,,,,,,,,,,,576923,,,,,,,
184320,note_on,120,0,1,,,,,,,,,,,,,,,0,,,80,0
184320,note_on,0,0,1,,,,,,,,,,,,,,,0,,,67,39
184320,note_on,0,0,1,,,,,,,,,,,,,,,0,,,79,47
184560,set_tempo,240,1,0,,,,,,,,,,,,517866,,,,,,,
184560,note_on,0,0,1,,,,,,,,,,,,,,,0,,,82,44
184560,note_on,0,0,1,,,,,,,,,,,,,,,0,,,70,37
184560,note_on,0,0,1,,,,,,,,,,,,,,,0,,,67,0
184560,note_on,240,0,1,,,,,,,,,,,,,,,0,,,79,0
184800,set_tempo,240,1,0,,,,,,,,,,,,540103,,,,,,,
184800,note_on,0,0,1,,,,,,,,,,,,,,,0,,,70,0
184800,note_on,0,0,1,,,,,,,,,,,,,,,0,,,68,37
184800,note_on,0,0,1,,,,,,,,,,,,,,,0,,,80,44
184800,note_on,240,0,1,,,,,,,,,,,,,,,0,,,82,0
185040,set_tempo,240,1,0,,,,,,,,,,,,559336,,,,,,,
185040,note_on,0,0,1,,,,,,,,,,,,,,,0,,,68,0
185040,note_on,0,0,1,,,,,,,,,,,,,,,0,,,73,39
185040,note_on,240,0,1,,,,,,,,,,,,,,,0,,,80,0
185040,note_on,0,0,1,,,,,,,,,,,,,,,0,,,85,47
185054,control_change,734,0,2,,,,,,,,,,,,,,,0,64,127,,
185280,note_on,0,0,2,,,,,,,,,,,,,,,0,,,65,41
185280,note_on,0,0,2,,,,,,,,,,,,,,,0,,,53,0
185280,set_tempo,240,1,0,,,,,,,,,,,,519976,,,,,,,
185280,note_on,0,0,2,,,,,,,,,,,,,,,0,,,49,0
185280,note_on,0,0,2,,,,,,,,,,,,,,,0,,,61,35
185280,note_on,226,0,2,,,,,,,,,,,,,,,0,,,61,0
185449,control_change,169,0,2,,,,,,,,,,,,,,,0,64,0,,
185520,note_on,0,0,2,,,,,,,,,,,,,,,0,,,56,28
185520,note_on,0,0,2,,,,,,,,,,,,,,,0,,,61,0
185520,set_tempo,240,1,0,,,,,,,,,,,,540103,,,,,,,
185520,note_on,71,0,2,,,,,,,,,,,,,,,0,,,65,0
185640,note_on,120,0,2,,,,,,,,,,,,,,,0,,,56,0
185760,set_tempo,240,1,0,,,,,,,,,,,,564334,,,,,,,
185760,note_on,0,0,1,,,,,,,,,,,,,,,0,,,79,47
185760,note_on,0,0,2,,,,,,,,,,,,,,,0,,,61,35
185760,note_on,120,0,2,,,,,,,,,,,,,,,0,,,53,29
185760,note_on,720,0,1,,,,,,,,,,,,,,,0,,,85,0
185760,note_on,0,0,1,,,,,,,,,,,,,,,0,,,73,0
185760,note_on,0,0,2,,,,,,,,,,,,,,,0,,,49,29
185760,note_on,0,0,1,,,,,,,,,,,,,,,0,,,67,39
186000,set_tempo,240,1,0,,,,,,,,,,,,517866,,,,,,,
186000,note_on,240,0,1,,,,,,,,,,,,,,,0,,,79,0
186000,note_on,0,0,1,,,,,,,,,,,,,,,0,,,67,0
186000,note_on,0,0,1,,,,,,,,,,,,,,,0,,,70,37
186000,note_on,0,0,1,,,,,,,,,,,,,,,0,,,82,44
186240,set_tempo,240,1,0,,,,,,,,,,,,540103,,,,,,,
186240,note_on,0,0,1,,,,,,,,,,,,,,,0,,,68,37
186240,note_on,0,0,1,,,,,,,,,,,,,,,0,,,80,44
186240,note_on,240,0,1,,,,,,,,,,,,,,,0,,,82,0
186240,note_on,0,0,1,,,,,,,,,,,,,,,0,,,70,0
186480,note_on,240,0,1,,,,,,,,,,,,,,,0,,,80,0
186480,note_on,0,0,1,,,,,,,,,,,,,,,0,,,68,0
186480,note_on,0,0,1,,,,,,,,,,,,,,,0,,,73,39
186480,note_on,0,0,1,,,,,,,,,,,,,,,0,,,85,47
186480,set_tempo,240,1,0,,,,,,,,,,,,559336,,,,,,,
186494,control_change,734,0,2,,,,,,,,,,,,,,,0,64,127,,
186720,set_tempo,240,1,0,,,,,,,,,,,,519976,,,,,,,
186720,note_on,0,0,2,,,,,,,,,,,,,,,0,,,61,35
186720,note_on,0,0,2,,,,,,,,,,,,,,,0,,,65,41
186720,note_on,0,0,2,,,,,,,,,,,,,,,0,,,49,0
186720,note_on,226,0,2,,,,,,,,,,,,,,,0,,,61,0
186720,note_on,0,0,2,,,,,,,,,,,,,,,0,,,53,0
186889,control_change,169,0,2,,,,,,,,,,,,,,,0,64,0,,
186960,note_on,0,0,2,,,,,,,,,,,,,,,0,,,61,0
186960,note_on,0,0,2,,,,,,,,,,,,,,,0,,,56,28
186960,note_on,71,0,2,,,,,,,,,,,,,,,0,,,65,0
186960,set_tempo,240,1,0,,,,,,,,,,,,540103,,,,,,,
187080,note_on,120,0,2,,,,,,,,,,,,,,,0,,,56,0
187200,note_on,0,0,1,,,,,,,,,,,,,,,0,,,74,39
187200,note_on,0,0,1,,,,,,,,,,,,,,,0,,,73,0
187200,note_on,720,0,1,,,,,,,,,,,,,,,0,,,85,0
187200,note_on,120,0,2,,,,,,,,,,,,,,,0,,,48,29
187200,note_on,0,0,2,,,,,,,,,,,,,,,0,,,54,29
187200,note_on,0,0,2,,,,,,,,,,,,,,,0,,,56,35
187200,note_on,0,0,1,,,,,,,,,,,,,,,0,,,86,47
187440,note_on,0,0,1,,,,,,,,,,,,,,,0,,,74,0
187440,note_on,0,0,1,,,,,,,,,,,,,,,0,,,77,37
187440,note_on,240,0,1,,,,,,,,,,,,,,,0,,,86,0
187440,note_on,0,0,1,,,,,,,,,,,,,,,0,,,89,44
187440,set_tempo,480,1,0,,,,,,,,,,,,517866,,,,,,,
187474,control_change,274,0,2,,,,,,,,,,,,,,,0,64,127,,
187680,note_on,0,0,1,,,,,,,,,,,,,,,0,,,77,0
187680,note_on,240,0,1,,,,,,,,,,,,,,,0,,,89,0
187680,note_on,0,0,1,,,,,,,,,,,,,,,0,,,75,37
187680,note_on,0,0,1,,,,,,,,,,,,,,,0,,,87,44
187680,set_tempo,240,1,0,,,,,,,,,,,,540103,,,,,,,
187920,note_on,240,0,1,,,,,,,,,,,,,,,0,,,87,0
187920,note_on,0,0,1,,,,,,,,,,,,,,,0,,,75,0
187920,note_on,0,0,1,,,,,,,,,,,,,,,0,,,68,39
187920,set_tempo,240,1,0,,,,,,,,,,,,559336,,,,,,,
187920,note_on,0,0,1,,,,,,,,,,,,,,,0,,,80,47
187920,control_change,446,0,2,,,,,,,,,,,,,,,0,64,0,,
187965,control_change,45,0,2,,,,,,,,,,,,,,,0,64,127,,
188160,note_on,0,0,2,,,,,,,,,,,,,,,0,,,54,0
188160,note_on,0,0,2,,,,,,,,,,,,,,,0,,,48,0
188160,note_on,0,0,2,,,,,,,,,,,,,,,0,,,66,41
188160,note_on,0,0,2,,,,,,,,,,,,,,,0,,,63,35
188160,note_on,195,0,2,,,,,,,,,,,,,,,0,,,56,0
188160,set_tempo,240,1,0,,,,,,,,,,,,519976,,,,,,,
188329,control_change,169,0,2,,,,,,,,,,,,,,,0,64,0,,
188400,note_on,71,0,2,,,,,,,,,,,,,,,0,,,63,0
188400,note_on,0,0,2,,,,,,,,,,,,,,,0,,,56,30
188400,set_tempo,240,1,0,,,,,,,,,,,,540103,,,,,,,
188400,note_on,0,0,2,,,,,,,,,,,,,,,0,,,66,0
188520,note_on,120,0,2,,,,,,,,,,,,,,,0,,,56,0
188640,set_tempo,240,1,0,,,,,,,,,,,,530973,,,,,,,
188640,note_on,720,0,1,,,,,,,,,,,,,,,0,,,80,0
188640,note_on,0,0,1,,,,,,,,,,,,,,,0,,,68,0
188640,note_on,0,0,1,,,,,,,,,,,,,,,0,,,74,39
188640,note_on,0,0,1,,,,,,,,,,,,,,,0,,,86,47
188640,note_on,0,0,2,,,,,,,,,,,,,,,0,,,48,29
188640,note_on,0,0,2,,,,,,,,,,,,,,,0,,,56,35
188640,note_on,120,0,2,,,,,,,,,,,,,,,0,,,54,29
188880,note_on,0,0,1,,,,,,,,,,,,,,,0,,,89,44
188880,note_on,0,0,1,,,,,,,,,,,,,,,0,,,77,37
188880,note_on,0,0,1,,,,,,,,,,,,,,,0,,,74,0
188880,set_tempo,240,1,0,,,,,,,,,,,,517866,,,,,,,
188880,note_on,240,0,1,,,,,,,,,,,,,,,0,,,86,0
189040,control_change,400,0,2,,,,,,,,,,,,,,,0,64,127,,
189120,note_on,240,0,1,,,,,,,,,,,,,,,0,,,89,0
189120,note_on,0,0,1,,,,,,,,,,,,,,,0,,,77,0
189120,note_on,0,0,1,,,,,,,,,,,,,,,0,,,75,37
189120,note_on,0,0,1,,,,,,,,,,,,,,,0,,,87,44
189120,set_tempo,240,1,0,,,,,,,,,,,,540103,,,,,,,
189360,set_tempo,240,1,0,,,,,,,,,,,,559336,,,,,,,
189360,control_change,320,0,2,,,,,,,,,,,,,,,0,64,0,,
189360,note_on,0,0,1,,,,,,,,,,,,,,,0,,,80,47
189360,note_on,240,0,1,,,,,,,,,,,,,,,0,,,87,0
189360,note_on,0,0,1,,,,,,,,,,,,,,,0,,,75,0
189360,note_on,0,0,1,,,,,,,,,,,,,,,0,,,68,39
189431,control_change,71,0,2,,,,,,,,,,,,,,,0,64,127,,
189600,set_tempo,240,1,0,,,,,,,,,,,,519976,,,,,,,
189600,note_on,0,0,2,,,,,,,,,,,,,,,0,,,66,41
189600,note_on,0,0,2,,,,,,,,,,,,,,,0,,,63,35
189600,note_on,0,0,2,,,,,,,,,,,,,,,0,,,54,0
189600,note_on,0,0,2,,,,,,,,,,,,,,,0,,,56,0
189600,note_on,169,0,2,,,,,,,,,,,,,,,0,,,48,0
189769,control_change,169,0,2,,,,,,,,,,,,,,,0,64,0,,
189840,note_on,71,0,2,,,,,,,,,,,,,,,0,,,66,0
189840,note_on,0,0,2,,,,,,,,,,,,,,,0,,,56,30
189840,note_on,0,0,2,,,,,,,,,,,,,,,0,,,63,0
189840,set_tempo,240,1,0,,,,,,,,,,,,540103,,,,,,,
189960,note_on,120,0,2,,,,,,,,,,,,,,,0,,,56,0
190080,note_on,0,0,1,,,,,,,,,,,,,,,0,,,80,49
190080,note_on,720,0,1,,,,,,,,,,,,,,,0,,,80,0
190080,note_on,0,0,1,,,,,,,,,,,,,,,0,,,68,41
190080,note_on,0,0,1,,,,,,,,,,,,,,,0,,,68,0
190080,set_tempo,240,1,0,,,,,,,,,,,,554375,,,,,,,
190080,note_on,120,0,2,,,,,,,,,,,,,,,0,,,56,29
190080,note_on,0,0,2,,,,,,,,,,,,,,,0,,,49,29
190080,note_on,0,0,2,,,,,,,,,,,,,,,0,,,61,35
190200,note_on,0,0,1,,,,,,,,,,,,,,,0,,,68,0
190200,note_on,120,0,1,,,,,,,,,,,,,,,0,,,80,0
190320,note_on,0,0,1,,,,,,,,,,,,,,,0,,,90,53
190320,note_on,120,0,1,,,,,,,,,,,,,,,0,,,78,45
190320,set_tempo,240,1,0,,,,,,,,,,,,528774,,,,,,,
190376,control_change,296,0,2,,,,,,,,,,,,,,,0,64,127,,
190560,note_on,0,0,1,,,,,,,,,,,,,,,0,,,89,51
190560,note_on,0,0,1,,,,,,,,,,,,,,,0,,,77,43
190560,note_on,0,0,1,,,,,,,,,,,,,,,0,,,78,0
190560,note_on,240,0,1,,,,,,,,,,,,,,,0,,,90,0
190560,set_tempo,240,1,0,,,,,,,,,,,,544811,,,,,,,
190800,note_on,240,0,1,,,,,,,,,,,,,,,0,,,89,0
190800,set_tempo,240,1,0,,,,,,,,,,,,588062,,,,,,,
190800,control_change,0,0,2,,,,,,,,,,,,,,,0,64,0,,
190800,note_on,0,0,2,,,,,,,,,,,,,,,0,,,61,35
190800,note_on,0,0,2,,,,,,,,,,,,,,,0,,,56,29
190800,note_on,0,0,2,,,,,,,,,,,,,,,0,,,53,29
190800,note_on,424,0,2,,,,,,,,,,,,,,,0,,,61,0
190800,note_on,0,0,2,,,,,,,,,,,,,,,0,,,49,0
190800,note_on,0,0,1,,,,,,,,,,,,,,,0,,,77,0
190800,note_on,0,0,1,,,,,,,,,,,,,,,0,,,85,49
190800,note_on,0,0,1,,,,,,,,,,,,,,,0,,,73,41
190800,note_on,0,0,2,,,,,,,,,,,,,,,0,,,56,0
190920,note_on,120,0,1,,,,,,,,,,,,,,,0,,,85,0
190920,note_on,0,0,1,,,,,,,,,,,,,,,0,,,73,0
191040,note_on,0,0,1,,,,,,,,,,,,,,,0,,,94,53
191040,set_tempo,240,1,0,,,,,,,,,,,,551978,,,,,,,
191040,note_on,120,0,1,,,,,,,,,,,,,,,0,,,82,45
191082,control_change,282,0,2,,,,,,,,,,,,,,,0,64,127,,
191280,note_on,240,0,1,,,,,,,,,,,,,,,0,,,94,0
191280,note_on,0,0,1,,,,,,,,,,,,,,,0,,,82,0
191280,note_on,0,0,1,,,,,,,,,,,,,,,0,,,80,43
191280,note_on,0,0,1,,,,,,,,,,,,,,,0,,,92,51
191280,set_tempo,240,1,0,,,,,,,,,,,,582581,,,,,,,
191520,note_on,0,0,2,,,,,,,,,,,,,,,0,,,53,0
191520,note_on,0,0,2,,,,,,,,,,,,,,,0,,,66,34
191520,note_on,0,0,2,,,,,,,,,,,,,,,0,,,56,29
191520,note_on,0,0,2,,,,,,,,,,,,,,,0,,,60,35
191520,control_change,0,0,2,,,,,,,,,,,,,,,0,64,0,,
191520,set_tempo,240,1,0,,,,,,,,,,,,629195,,,,,,,
191520,note_on,438,0,2,,,,,,,,,,,,,,,0,,,61,0
191520,note_on,0,0,2,,,,,,,,,,,,,,,0,,,56,0
191520,note_on,240,0,1,,,,,,,,,,,,,,,0,,,92,0
191520,note_on,0,0,1,,,,,,,,,,,,,,,0,,,80,0
191520,note_on,0,0,1,,,,,,,,,,,,,,,0,,,75,41
191520,note_on,0,0,1,,,,,,,,,,,,,,,0,,,87,49
191640,note_on,0,0,1,,,,,,,,,,,,,,,0,,,75,0
191640,note_on,120,0,1,,,,,,,,,,,,,,,0,,,87,0
191640,note_on,120,0,2,,,,,,,,,,,,,,,0,,,66,0
191760,set_tempo,240,1,0,,,,,,,,,,,,610874,,,,,,,
191760,note_on,0,0,1,,,,,,,,,,,,,,,0,,,90,53
191760,note_on,120,0,1,,,,,,,,,,,,,,,0,,,78,45
191760,note_on,120,0,2,,,,,,,,,,,,,,,0,,,70,38
191800,control_change,40,0,2,,,,,,,,,,,,,,,0,64,127,,
192000,note_on,0,0,1,,,,,,,,,,,,,,,0,,,77,43
192000,note_on,200,0,2,,,,,,,,,,,,,,,0,,,70,0
192000,note_on,0,0,2,,,,,,,,,,,,,,,0,,,68,36
192000,note_on,240,0,1,,,,,,,,,,,,,,,0,,,90,0
192000,note_on,0,0,1,,,,,,,,,,,,,,,0,,,78,0
192000,note_on,0,0,1,,,,,,,,,,,,,,,0,,,89,51
192000,set_tempo,240,1,0,,,,,,,,,,,,652032,,,,,,,
192240,note_on,240,0,2,,,,,,,,,,,,,,,0,,,68,0
192240,note_on,0,0,1,,,,,,,,,,,,,,,0,,,77,0
192240,note_on,0,0,2,,,,,,,,,,,,,,,0,,,61,29
192240,note_on,0,0,2,,,,,,,,,,,,,,,0,,,65,35
192240,note_on,240,0,1,,,,,,,,,,,,,,,0,,,89,0
192240,note_on,0,0,2,,,,,,,,,,,,,,,0,,,60,0
192240,note_on,0,0,2,,,,,,,,,,,,,,,0,,,56,0
192240,note_on,0,0,1,,,,,,,,,,,,,,,0,,,85,49
192240,note_on,0,0,1,,,,,,,,,,,,,,,0,,,73,41
192245,control_change,5,0,2,,,,,,,,,,,,,,,0,64,0,,
192720,note_on,0,0,1,,,,,,,,,,,,,,,0,,,73,0
192720,note_on,480,0,1,,,,,,,,,,,,,,,0,,,85,0
192720,note_on,475,0,2,,,,,,,,,,,,,,,0,,,61,0
192720,note_on,0,0,2,,,,,,,,,,,,,,,0,,,65,0
192960,note_on,240,0,1,,,,,,,,,,,,,,,0,,,73,49
192960,set_tempo,960,1,0,,,,,,,,,,,,437956,,,,,,,
192988,control_change,268,0,2,,,,,,,,,,,,,,,0,64,127,,
193320,note_on,360,0,1,,,,,,,,,,,,,,,0,,,73,0
193320,note_on,0,0,1,,,,,,,,,,,,,,,0,,,73,45
193440,set_tempo,480,1,0,,,,,,,,,,,,468750,,,,,,,
193440,note_on,120,0,1,,,,,,,,,,,,,,,0,,,73,0
193440,note_on,0,0,1,,,,,,,,,,,,,,,0,,,73,49
193680,set_tempo,240,1,0,,,,,,,,,,,,437956,,,,,,,
193680,note_on,0,0,1,,,,,,,,,,,,,,,0,,,73,49
193680,note_on,240,0,1,,,,,,,,,,,,,,,0,,,73,0
194040,note_on,0,0,1,,,,,,,,,,,,,,,0,,,73,43
194040,note_on,360,0,1,,,,,,,,,,,,,,,0,,,73,0
194160,set_tempo,480,1,0,,,,,,,,,,,,468750,,,,,,,
194160,note_on,0,0,1,,,,,,,,,,,,,,,0,,,73,49
194160,note_on,120,0,1,,,,,,,,,,,,,,,0,,,73,0
194400,set_tempo,240,1,0,,,,,,,,,,,,442804,,,,,,,
194400,control_change,1412,0,2,,,,,,,,,,,,,,,0,64,0,,
194400,note_on,240,0,1,,,,,,,,,,,,,,,0,,,73,0
194400,note_on,0,0,1,,,,,,,,,,,,,,,0,,,73,44
194400,note_on,0,0,1,,,,,,,,,,,,,,,0,,,76,52
194456,control_change,56,0,2,,,,,,,,,,,,,,,0,64,127,,
194760,note_on,0,0,1,,,,,,,,,,,,,,,0,,,76,49
194760,note_on,0,0,1,,,,,,,,,,,,,,,0,,,73,0
194760,note_on,0,0,1,,,,,,,,,,,,,,,0,,,73,41
194760,note_on,360,0,1,,,,,,,,,,,,,,,0,,,76,0
194880,note_on,120,0,1,,,,,,,,,,,,,,,0,,,76,0
194880,note_on,0,0,1,,,,,,,,,,,,,,,0,,,73,0
194880,note_on,0,0,1,,,,,,,,,,,,,,,0,,,73,45
194880,note_on,0,0,1,,,,,,,,,,,,,,,0,,,76,53
194880,set_tempo,480,1,0,,,,,,,,,,,,465116,,,,,,,
195120,note_on,0,0,1,,,,,,,,,,,,,,,0,,,76,52
195120,set_tempo,240,1,0,,,,,,,,,,,,437956,,,,,,,
195120,note_on,0,0,1,,,,,,,,,,,,,,,0,,,73,0
195120,note_on,240,0,1,,,,,,,,,,,,,,,0,,,76,0
195120,note_on,0,0,1,,,,,,,,,,,,,,,0,,,73,44
195480,note_on,360,0,1,,,,,,,,,,,,,,,0,,,76,0
195480,note_on,0,0,1,,,,,,,,,,,,,,,0,,,73,0
195480,note_on,0,0,1,,,,,,,,,,,,,,,0,,,73,39
195480,note_on,0,0,1,,,,,,,,,,,,,,,0,,,76,47
195600,note_on,0,0,1,,,,,,,,,,,,,,,0,,,73,0
195600,note_on,0,0,1,,,,,,,,,,,,,,,0,,,73,45
195600,note_on,0,0,1,,,,,,,,,,,,,,,0,,,76,53
195600,set_tempo,480,1,0,,,,,,,,,,,,470588,,,,,,,
195600,note_on,120,0,1,,,,,,,,,,,,,,,0,,,76,0
195840,set_tempo,240,1,0,,,,,,,,,,,,434783,,,,,,,
195840,note_on,0,0,2,,,,,,,,,,,,,,,0,,,69,49
195840,control_change,1384,0,2,,,,,,,,,,,,,,,0,64,0,,
195840,note_on,0,0,1,,,,,,,,,,,,,,,0,,,73,0
195840,note_on,0,0,1,,,,,,,,,,,,,,,0,,,73,45
195840,note_on,0,0,1,,,,,,,,,,,,,,,0,,,76,54
195840,note_on,240,0,1,,,,,,,,,,,,,,,0,,,76,0
195904,control_change,64,0,2,,,,,,,,,,,,,,,0,64,127,,
196200,note_on,0,0,1,,,,,,,,,,,,,,,0,,,76,49
196200,note_on,0,0,1,,,,,,,,,,,,,,,0,,,73,41
196200,note_on,0,0,1,,,,,,,,,,,,,,,0,,,73,0
196200,note_on,360,0,1,,,,,,,,,,,,,,,0,,,76,0
196200,note_on,296,0,2,,,,,,,,,,,,,,,0,,,69,0
196200,note_on,0,0,2,,,,,,,,,,,,,,,0,,,69,44
196320,set_tempo,480,1,0,,,,,,,,,,,,468750,,,,,,,
196320,note_on,0,0,1,,,,,,,,,,,,,,,0,,,73,0
196320,note_on,0,0,1,,,,,,,,,,,,,,,0,,,76,54
196320,note_on,120,0,2,,,,,,,,,,,,,,,0,,,69,0
196320,note_on,120,0,1,,,,,,,,,,,,,,,0,,,76,0
196320,note_on,0,0,1,,,,,,,,,,,,,,,0,,,73,45
196320,note_on,0,0,2,,,,,,,,,,,,,,,0,,,69,49
196560,note_on,240,0,2,,,,,,,,,,,,,,,0,,,69,0
196560,set_tempo,240,1,0,,,,,,,,,,,,439560,,,,,,,
196560,note_on,0,0,1,,,,,,,,,,,,,,,0,,,76,53
196560,note_on,0,0,1,,,,,,,,,,,,,,,0,,,73,45
196560,note_on,0,0,1,,,,,,,,,,,,,,,0,,,73,0
196560,note_on,240,0,1,,,,,,,,,,,,,,,0,,,76,0
196560,note_on,0,0,2,,,,,,,,,,,,,,,0,,,69,49
196920,note_on,360,0,1,,,,,,,,,,,,,,,0,,,76,0
196920,note_on,360,0,2,,,,,,,,,,,,,,,0,,,69,0
196920,note_on,0,0,2,,,,,,,,,,,,,,,0,,,69,45
196920,note_on,0,0,1,,,,,,,,,,,,,,,0,,,76,49
196920,note_on,0,0,1,,,,,,,,,,,,,,,0,,,73,0
196920,note_on,0,0,1,,,,,,,,,,,,,,,0,,,73,41
197040,note_on,120,0,1,,,,,,,,,,,,,,,0,,,76,0
197040,set_tempo,480,1,0,,,,,,,,,,,,472441,,,,,,,
197040,note_on,0,0,2,,,,,,,,,,,,,,,0,,,69,49
197040,note_on,120,0,2,,,,,,,,,,,,,,,0,,,69,0
197040,note_on,0,0,1,,,,,,,,,,,,,,,0,,,73,45
197040,note_on,0,0,1,,,,,,,,,,,,,,,0,,,76,54
197040,note_on,0,0,1,,,,,,,,,,,,,,,0,,,73,0
197280,note_on,240,0,1,,,,,,,,,,,,,,,0,,,76,0
197280,note_on,0,0,1,,,,,,,,,,,,,,,0,,,73,0
197280,note_on,0,0,1,,,,,,,,,,,,,,,0,,,73,59
197280,note_on,0,0,1,,,,,,,,,,,,,,,0,,,75,70
197280,set_tempo,240,1,0,,,,,,,,,,,,434783,,,,,,,
197280,note_on,240,0,2,,,,,,,,,,,,,,,0,,,69,0
197280,control_change,0,0,2,,,,,,,,,,,,,,,0,64,0,,
197280,note_on,0,0,2,,,,,,,,,,,,,,,0,,,67,50
197280,note_on,0,0,2,,,,,,,,,,,,,,,0,,,70,60
197375,control_change,95,0,2,,,,,,,,,,,,,,,0,64,127,,
197640,note_on,0,0,2,,,,,,,,,,,,,,,0,,,67,45
197640,note_on,265,0,2,,,,,,,,,,,,,,,0,,,70,0
197640,note_on,0,0,2,,,,,,,,,,,,,,,0,,,67,0
197640,note_on,0,0,2,,,,,,,,,,,,,,,0,,,70,54
197640,note_on,0,0,1,,,,,,,,,,,,,,,0,,,73,0
197640,note_on,0,0,1,,,,,,,,,,,,,,,0,,,73,51
197640,note_on,360,0,1,,,,,,,,,,,,,,,0,,,75,0
197640,note_on,0,0,1,,,,,,,,,,,,,,,0,,,75,61
197760,set_tempo,480,1,0,,,,,,,,,,,,472441,,,,,,,
197760,note_on,0,0,1,,,,,,,,,,,,,,,0,,,75,72
197760,note_on,120,0,1,,,,,,,,,,,,,,,0,,,75,0
197760,note_on,0,0,1,,,,,,,,,,,,,,,0,,,73,0
197760,note_on,0,0,2,,,,,,,,,,,,,,,0,,,67,53
197760,note_on,0,0,2,,,,,,,,,,,,,,,0,,,70,63
197760,note_on,0,0,2,,,,,,,,,,,,,,,0,,,67,0
197760,note_on,120,0,2,,,,,,,,,,,,,,,0,,,70,0
197760,note_on,0,0,1,,,,,,,,,,,,,,,0,,,73,61
198000,note_on,0,0,1,,,,,,,,,,,,,,,0,,,73,75
198000,note_on,0,0,1,,,,,,,,,,,,,,,0,,,73,0
198000,note_on,240,0,1,,,,,,,,,,,,,,,0,,,75,0
198000,note_on,0,0,1,,,,,,,,,,,,,,,0,,,75,89
198000,set_tempo,240,1,0,,,,,,,,,,,,437956,,,,,,,
198000,note_on,0,0,2,,,,,,,,,,,,,,,0,,,70,69
198000,note_on,0,0,2,,,,,,,,,,,,,,,0,,,67,58
198000,note_on,0,0,2,,,,,,,,,,,,,,,0,,,63,58
198000,note_on,0,0,2,,,,,,,,,,,,,,,0,,,67,0
198000,note_on,240,0,2,,,,,,,,,,,,,,,0,,,70,0
198360,note_on,0,0,2,,,,,,,,,,,,,,,0,,,67,53
198360,note_on,0,0,2,,,,,,,,,,,,,,,0,,,63,53
198360,note_on,0,0,2,,,,,,,,,,,,,,,0,,,63,0
198360,note_on,360,0,2,,,,,,,,,,,,,,,0,,,70,0
198360,note_on,0,0,1,,,,,,,,,,,,,,,0,,,75,81
198360,note_on,0,0,1,,,,,,,,,,,,,,,0,,,73,69
198360,note_on,0,0,1,,,,,,,,,,,,,,,0,,,73,0
198360,note_on,360,0,1,,,,,,,,,,,,,,,0,,,75,0
198360,note_on,0,0,2,,,,,,,,,,,,,,,0,,,70,64
198360,note_on,0,0,2,,,,,,,,,,,,,,,0,,,67,0
198480,note_on,0,0,2,,,,,,,,,,,,,,,0,,,67,0
198480,note_on,120,0,1,,,,,,,,,,,,,,,0,,,75,0
198480,note_on,0,0,1,,,,,,,,,,,,,,,0,,,73,77
198480,note_on,0,0,2,,,,,,,,,,,,,,,0,,,70,70
198480,note_on,0,0,2,,,,,,,,,,,,,,,0,,,67,60
198480,set_tempo,480,1,0,,,,,,,,,,,,466926,,,,,,,
198480,note_on,0,0,2,,,,,,,,,,,,,,,0,,,63,60
198480,note_on,0,0,2,,,,,,,,,,,,,,,0,,,63,0
198480,note_on,120,0,2,,,,,,,,,,,,,,,0,,,70,0
198480,note_on,0,0,1,,,,,,,,,,,,,,,0,,,75,83
198480,note_on,0,0,1,,,,,,,,,,,,,,,0,,,73,0
198720,note_on,240,0,1,,,,,,,,,,,,,,,0,,,75,0
198720,note_on,0,0,1,,,,,,,,,,,,,,,0,,,73,0
198720,note_on,0,0,2,,,,,,,,,,,,,,,0,,,67,0
198720,set_tempo,240,1,0,,,,,,,,,,,,436364,,,,,,,
198720,note_on,0,0,1,,,,,,,,,,,,,,,0,,,75,89
198720,control_change,0,0,2,,,,,,,,,,,,,,,0,64,0,,
198720,note_on,0,0,2,,,,,,,,,,,,,,,0,,,51,61
198720,note_on,0,0,2,,,,,,,,,,,,,,,0,,,44,61
198720,note_on,240,0,2,,,,,,,,,,,,,,,0,,,70,0
198720,note_on,0,0,1,,,,,,,,,,,,,,,0,,,72,75
198720,note_on,0,0,2,,,,,,,,,,,,,,,0,,,56,72
198720,note_on,0,0,1,,,,,,,,,,,,,,,0,,,63,75
198720,note_on,0,0,2,,,,,,,,,,,,,,,0,,,63,0
198819,control_change,99,0,2,,,,,,,,,,,,,,,0,64,127,,
199080,note_on,0,0,1,,,,,,,,,,,,,,,0,,,75,85
199080,note_on,0,0,1,,,,,,,,,,,,,,,0,,,72,72
199080,note_on,0,0,1,,,,,,,,,,,,,,,0,,,63,72
199080,note_on,0,0,1,,,,,,,,,,,,,,,0,,,63,0
199080,note_on,0,0,1,,,,,,,,,,,,,,,0,,,72,0
199080,note_on,261,0,2,,,,,,,,,,,,,,,0,,,56,0
199080,note_on,0,0,2,,,,,,,,,,,,,,,0,,,56,67
199080,note_on,0,0,2,,,,,,,,,,,,,,,0,,,51,56
199080,note_on,0,0,2,,,,,,,,,,,,,,,0,,,44,56
199080,note_on,0,0,2,,,,,,,,,,,,,,,0,,,44,0
199080,note_on,0,0,2,,,,,,,,,,,,,,,0,,,51,0
199080,note_on,360,0,1,,,,,,,,,,,,,,,0,,,75,0
199200,note_on,120,0,2,,,,,,,,,,,,,,,0,,,56,0
199200,set_tempo,480,1,0,,,,,,,,,,,,476190,,,,,,,
199200,note_on,0,0,2,,,,,,,,,,,,,,,0,,,56,73
199200,note_on,0,0,2,,,,,,,,,,,,,,,0,,,51,62
199200,note_on,0,0,2,,,,,,,,,,,,,,,0,,,44,62
199200,note_on,0,0,2,,,,,,,,,,,,,,,0,,,44,0
199200,note_on,0,0,2,,,,,,,,,,,,,,,0,,,51,0
199200,note_on,0,0,1,,,,,,,,,,,,,,,0,,,75,89
199200,note_on,0,0,1,,,,,,,,,,,,,,,0,,,72,75
199200,note_on,0,0,1,,,,,,,,,,,,,,,0,,,72,0
199200,note_on,120,0,1,,,,,,,,,,,,,,,0,,,75,0
199200,note_on,0,0,1,,,,,,,,,,,,,,,0,,,63,75
199200,note_on,0,0,1,,,,,,,,,,,,,,,0,,,63,0
199320,note_on,120,0,2,,,,,,,,,,,,,,,0,,,56,0
199320,note_on,0,0,2,,,,,,,,,,,,,,,0,,,51,0
199320,note_on,0,0,2,,,,,,,,,,,,,,,0,,,44,0
199320,control_change,0,0,2,,,,,,,,,,,,,,,0,64,0,,
199320,note_on,0,0,1,,,,,,,,,,,,,,,0,,,75,0
199320,note_on,0,0,1,,,,,,,,,,,,,,,0,,,72,0
199320,note_on,120,0,1,,,,,,,,,,,,,,,0,,,63,0
199440,note_on,0,0,1,,,,,,,,,,,,,,,0,,,63,75
199440,note_on,0,0,1,,,,,,,,,,,,,,,0,,,75,89
199440,note_on,0,0,2,,,,,,,,,,,,,,,0,,,56,72
199440,note_on,0,0,2,,,,,,,,,,,,,,,0,,,51,61
199440,note_on,120,0,2,,,,,,,,,,,,,,,0,,,44,61
199440,set_tempo,240,1,0,,,,,,,,,,,,436364,,,,,,,
199440,note_on,120,0,1,,,,,,,,,,,,,,,0,,,72,75
199518,control_change,78,0,2,,,,,,,,,,,,,,,0,64,127,,
199800,note_on,0,0,1,,,,,,,,,,,,,,,0,,,75,85
199800,note_on,0,0,1,,,,,,,,,,,,,,,0,,,72,0
199800,note_on,0,0,1,,,,,,,,,,,,,,,0,,,75,0
199800,note_on,360,0,1,,,,,,,,,,,,,,,0,,,63,0
199800,note_on,0,0,1,,,,,,,,,,,,,,,0,,,72,72
199800,note_on,0,0,2,,,,,,,,,,,,,,,0,,,56,67
199800,note_on,0,0,1,,,,,,,,,,,,,,,0,,,63,72
199800,note_on,0,0,2,,,,,,,,,,,,,,,0,,,51,0
199800,note_on,0,0,2,,,,,,,,,,,,,,,0,,,44,0
199800,note_on,0,0,2,,,,,,,,,,,,,,,0,,,44,56
199800,note_on,282,0,2,,,,,,,,,,,,,,,0,,,56,0
199800,note_on,0,0,2,,,,,,,,,,,,,,,0,,,51,56
199920,note_on,0,0,2,,,,,,,,,,,,,,,0,,,51,62
199920,note_on,0,0,2,,,,,,,,,,,,,,,0,,,44,62
199920,note_on,120,0,2,,,,,,,,,,,,,,,0,,,56,0
199920,note_on,0,0,1,,,,,,,,,,,,,,,0,,,72,75
199920,note_on,0,0,1,,,,,,,,,,,,,,,0,,,63,75
199920,note_on,0,0,1,,,,,,,,,,,,,,,0,,,75,89
199920,note_on,0,0,1,,,,,,,,,,,,,,,0,,,75,0
199920,note_on,0,0,1,,,,,,,,,,,,,,,0,,,63,0
199920,note_on,0,0,2,,,,,,,,,,,,,,,0,,,44,0
199920,note_on,0,0,2,,,,,,,,,,,,,,,0,,,51,0
199920,note_on,0,0,2,,,,,,,,,,,,,,,0,,,56,73
199920,note_on,120,0,1,,,,,,,,,,,,,,,0,,,72,0
199920,set_tempo,480,1,0,,,,,,,,,,,,474308,,,,,,,
200040,note_on,120,0,2,,,,,,,,,,,,,,,0,,,56,0
200040,note_on,0,0,2,,,,,,,,,,,,,,,0,,,44,0
200040,control_change,0,0,2,,,,,,,,,,,,,,,0,64,0,,
200040,note_on,120,0,1,,,,,,,,,,,,,,,0,,,72,0
200040,note_on,0,0,1,,,,,,,,,,,,,,,0,,,63,0
200040,note_on,0,0,1,,,,,,,,,,,,,,,0,,,75,0
200040,note_on,0,0,2,,,,,,,,,,,,,,,0,,,51,0
200160,set_tempo,240,1,0,,,,,,,,,,,,413793,,,,,,,
200160,note_on,0,0,2,,,,,,,,,,,,,,,0,,,51,62
200160,note_on,0,0,2,,,,,,,,,,,,,,,0,,,56,74
200160,note_on,0,0,1,,,,,,,,,,,,,,,0,,,75,80
200160,note_on,120,0,2,,,,,,,,,,,,,,,0,,,44,62
200160,note_on,120,0,1,,,,,,,,,,,,,,,0,,,63,68
200160,note_on,0,0,1,,,,,,,,,,,,,,,0,,,71,68
200280,note_on,0,0,1,,,,,,,,,,,,,,,0,,,71,0
200280,note_on,0,0,1,,,,,,,,,,,,,,,0,,,63,0
200280,note_on,0,0,1,,,,,,,,,,,,,,,0,,,72,73
200280,note_on,120,0,1,,,,,,,,,,,,,,,0,,,75,0
200400,set_tempo,240,1,0,,,,,,,,,,,,427046,,,,,,,
200400,note_on,240,0,2,,,,,,,,,,,,,,,0,,,56,0
200400,note_on,0,0,2,,,,,,,,,,,,,,,0,,,51,0
200400,note_on,0,0,1,,,,,,,,,,,,,,,0,,,68,73
200400,note_on,120,0,1,,,,,,,,,,,,,,,0,,,72,0
200400,note_on,0,0,2,,,,,,,,,,,,,,,0,,,44,0
200520,note_on,0,0,1,,,,,,,,,,,,,,,0,,,63,73
200520,note_on,120,0,1,,,,,,,,,,,,,,,0,,,68,0
200640,note_on,0,0,1,,,,,,,,,,,,,,,0,,,60,80
200640,note_on,120,0,1,,,,,,,,,,,,,,,0,,,63,0
200640,set_tempo,240,1,0,,,,,,,,,,,,465116,,,,,,,
200760,note_on,120,0,1,,,,,,,,,,,,,,,0,,,60,0
200880,set_tempo,240,1,0,,,,,,,,,,,,418118,,,,,,,
200880,note_on,120,0,1,,,,,,,,,,,,,,,0,,,63,84
201000,note_on,120,0,1,,,,,,,,,,,,,,,0,,,63,0
201000,note_on,0,0,1,,,,,,,,,,,,,,,0,,,68,74
201120,set_tempo,240,1,0,,,,,,,,,,,,427046,,,,,,,
201120,note_on,0,0,1,,,,,,,,,,,,,,,0,,,72,74
201120,note_on,120,0,1,,,,,,,,,,,,,,,0,,,68,0
201240,note_on,0,0,1,,,,,,,,,,,,,,,0,,,75,74
201240,note_on,120,0,1,,,,,,,,,,,,,,,0,,,72,0
201360,set_tempo,240,1,0,,,,,,,,,,,,474308,,,,,,,
201360,note_on,0,0,1,,,,,,,,,,,,,,,0,,,80,79
201360,note_on,120,0,1,,,,,,,,,,,,,,,0,,,75,0
201480,note_on,120,0,1,,,,,,,,,,,,,,,0,,,80,0
201600,set_tempo,240,1,0,,,,,,,,,,,,506329,,,,,,,
201600,note_on,1200,0,2,,,,,,,,,,,,,,,0,,,63,74
201600,note_on,0,0,2,,,,,,,,,,,,,,,0,,,61,62
201600,note_on,0,0,1,,,,,,,,,,,,,,,0,,,69,65
201600,note_on,0,0,2,,,,,,,,,,,,,,,0,,,55,62
201600,note_on,120,0,1,,,,,,,,,,,,,,,0,,,81,77
201660,note_on,60,0,2,,,,,,,,,,,,,,,0,,,55,0
201660,note_on,0,0,2,,,,,,,,,,,,,,,0,,,61,0
201660,note_on,0,0,2,,,,,,,,,,,,,,,0,,,63,0
201660,note_on,0,0,1,,,,,,,,,,,,,,,0,,,81,0
201660,note_on,60,0,1,,,,,,,,,,,,,,,0,,,69,0
201840,note_on,0,0,1,,,,,,,,,,,,,,,0,,,82,86
201840,note_on,180,0,1,,,,,,,,,,,,,,,0,,,70,73
201840,note_on,180,0,2,,,,,,,,,,,,,,,0,,,63,74
201840,note_on,0,0,2,,,,,,,,,,,,,,,0,,,55,62
201840,note_on,0,0,2,,,,,,,,,,,,,,,0,,,61,62
201840,set_tempo,240,1,0,,,,,,,,,,,,456274,,,,,,,
202320,set_tempo,480,1,0,,,,,,,,,,,,415225,,,,,,,
202320,note_on,480,0,1,,,,,,,,,,,,,,,0,,,82,0
202320,note_on,0,0,1,,,,,,,,,,,,,,,0,,,70,0
202320,note_on,0,0,1,,,,,,,,,,,,,,,0,,,62,85
202320,text,0,1,1,,,,,,,,,,,,,,,,,,,
202320,note_on,480,0,2,,,,,,,,,,,,,,,0,,,55,0
202320,note_on,0,0,2,,,,,,,,,,,,,,,0,,,61,0
202320,note_on,0,0,2,,,,,,,,,,,,,,,0,,,63,0
202320,note_on,0,0,2,,,,,,,,,,,,,,,0,,,50,73
202320,control_change,0,0,1,,,,,,,,,,,,,,,0,91,127,,
202440,note_on,0,0,2,,,,,,,,,,,,,,,0,,,51,67
202440,note_on,120,0,2,,,,,,,,,,,,,,,0,,,50,0
202440,note_on,0,0,1,,,,,,,,,,,,,,,0,,,63,70
202440,note_on,120,0,1,,,,,,,,,,,,,,,0,,,62,0
202560,note_on,0,0,2,,,,,,,,,,,,,,,0,,,46,70
202560,note_on,120,0,2,,,,,,,,,,,,,,,0,,,51,0
202560,note_on,0,0,1,,,,,,,,,,,,,,,0,,,58,75
202560,note_on,120,0,1,,,,,,,,,,,,,,,0,,,63,0
202560,set_tempo,240,1,0,,,,,,,,,,,,427046,,,,,,,
202680,note_on,0,0,2,,,,,,,,,,,,,,,0,,,43,67
202680,note_on,120,0,2,,,,,,,,,,,,,,,0,,,46,0
202680,note_on,120,0,1,,,,,,,,,,,,,,,0,,,58,0
202680,note_on,0,0,1,,,,,,,,,,,,,,,0,,,55,70
202800,note_on,120,0,2,,,,,,,,,,,,,,,0,,,43,0
202800,note_on,0,0,2,,,,,,,,,,,,,,,0,,,39,70
202800,set_tempo,240,1,0,,,,,,,,,,,,476190,,,,,,,
202800,note_on,120,0,1,,,,,,,,,,,,,,,0,,,55,0
202800,note_on,0,0,1,,,,,,,,,,,,,,,0,,,51,76
202920,note_on,120,0,1,,,,,,,,,,,,,,,0,,,51,0
202920,note_on,120,0,2,,,,,,,,,,,,,,,0,,,39,0
203040,note_on,0,0,2,,,,,,,,,,,,,,,0,,,46,61
203040,note_on,0,0,2,,,,,,,,,,,,,,,0,,,51,61
203040,note_on,0,0,2,,,,,,,,,,,,,,,0,,,58,72
203040,note_on,120,0,1,,,,,,,,,,,,,,,0,,,75,89
203040,note_on,0,0,1,,,,,,,,,,,,,,,0,,,73,75
203040,control_change,120,0,2,,,,,,,,,,,,,,,0,64,127,,
203040,note_on,0,0,1,,,,,,,,,,,,,,,0,,,63,75
203040,set_tempo,240,1,0,,,,,,,,,,,,436364,,,,,,,
203400,note_on,360,0,1,,,,,,,,,,,,,,,0,,,63,0
203400,note_on,0,0,1,,,,,,,,,,,,,,,0,,,73,0
203400,note_on,0,0,1,,,,,,,,,,,,,,,0,,,75,0
203400,note_on,0,0,1,,,,,,,,,,,,,,,0,,,75,85
203400,note_on,0,0,2,,,,,,,,,,,,,,,0,,,58,67
203400,note_on,0,0,2,,,,,,,,,,,,,,,0,,,51,56
203400,note_on,0,0,2,,,,,,,,,,,,,,,0,,,46,0
203400,note_on,0,0,2,,,,,,,,,,,,,,,0,,,51,0
203400,note_on,360,0,2,,,,,,,,,,,,,,,0,,,58,0
203400,note_on,0,0,1,,,,,,,,,,,,,,,0,,,73,72
203400,note_on,0,0,2,,,,,,,,,,,,,,,0,,,46,56
203400,note_on,0,0,1,,,,,,,,,,,,,,,0,,,63,72
203520,note_on,0,0,1,,,,,,,,,,,,,,,0,,,73,0
203520,note_on,0,0,1,,,,,,,,,,,,,,,0,,,63,0
203520,note_on,0,0,1,,,,,,,,,,,,,,,0,,,63,75
203520,note_on,0,0,1,,,,,,,,,,,,,,,0,,,73,75
203520,note_on,0,0,1,,,,,,,,,,,,,,,0,,,75,89
203520,set_tempo,480,1,0,,,,,,,,,,,,476190,,,,,,,
203520,note_on,120,0,2,,,,,,,,,,,,,,,0,,,58,0
203520,note_on,0,0,2,,,,,,,,,,,,,,,0,,,51,0
203520,note_on,0,0,2,,,,,,,,,,,,,,,0,,,46,0
203520,note_on,0,0,2,,,,,,,,,,,,,,,0,,,46,62
203520,note_on,0,0,2,,,,,,,,,,,,,,,0,,,51,62
203520,note_on,0,0,2,,,,,,,,,,,,,,,0,,,58,73
203520,note_on,120,0,1,,,,,,,,,,,,,,,0,,,75,0
203640,note_on,120,0,2,,,,,,,,,,,,,,,0,,,58,0
203640,note_on,0,0,2,,,,,,,,,,,,,,,0,,,46,0
203640,control_change,0,0,2,,,,,,,,,,,,,,,0,64,0,,
203640,note_on,0,0,2,,,,,,,,,,,,,,,0,,,51,0
203640,note_on,120,0,1,,,,,,,,,,,,,,,0,,,75,0
203640,note_on,0,0,1,,,,,,,,,,,,,,,0,,,73,0
203640,note_on,0,0,1,,,,,,,,,,,,,,,0,,,63,0
203760,note_on,120,0,2,,,,,,,,,,,,,,,0,,,46,61
203760,set_tempo,240,1,0,,,,,,,,,,,,436364,,,,,,,
203760,note_on,0,0,1,,,,,,,,,,,,,,,0,,,75,89
203760,note_on,0,0,2,,,,,,,,,,,,,,,0,,,51,61
203760,note_on,0,0,1,,,,,,,,,,,,,,,0,,,73,75
203760,note_on,120,0,1,,,,,,,,,,,,,,,0,,,63,75
203760,note_on,0,0,2,,,,,,,,,,,,,,,0,,,58,72
203838,control_change,78,0,2,,,,,,,,,,,,,,,0,64,127,,
204120,note_on,0,0,2,,,,,,,,,,,,,,,0,,,58,67
204120,note_on,0,0,2,,,,,,,,,,,,,,,0,,,46,56
204120,note_on,0,0,2,,,,,,,,,,,,,,,0,,,46,0
204120,note_on,0,0,2,,,,,,,,,,,,,,,0,,,51,0
204120,note_on,282,0,2,,,,,,,,,,,,,,,0,,,58,0
204120,note_on,360,0,1,,,,,,,,,,,,,,,0,,,75,0
204120,note_on,0,0,1,,,,,,,,,,,,,,,0,,,73,0
204120,note_on,0,0,1,,,,,,,,,,,,,,,0,,,63,0
204120,note_on,0,0,1,,,,,,,,,,,,,,,0,,,63,72
204120,note_on,0,0,1,,,,,,,,,,,,,,,0,,,73,72
204120,note_on,0,0,1,,,,,,,,,,,,,,,0,,,75,85
204120,note_on,0,0,2,,,,,,,,,,,,,,,0,,,51,56
204240,set_tempo,480,1,0,,,,,,,,,,,,474308,,,,,,,
204240,note_on,0,0,1,,,,,,,,,,,,,,,0,,,75,89
204240,note_on,120,0,2,,,,,,,,,,,,,,,0,,,58,0
204240,note_on,0,0,2,,,,,,,,,,,,,,,0,,,51,0
204240,note_on,0,0,2,,,,,,,,,,,,,,,0,,,46,0
204240,note_on,0,0,2,,,,,,,,,,,,,,,0,,,46,62
204240,note_on,0,0,2,,,,,,,,,,,,,,,0,,,51,62
204240,note_on,0,0,2,,,,,,,,,,,,,,,0,,,58,73
204240,note_on,0,0,1,,,,,,,,,,,,,,,0,,,63,75
204240,note_on,0,0,1,,,,,,,,,,,,,,,0,,,73,75
204240,note_on,120,0,1,,,,,,,,,,,,,,,0,,,75,0
204240,note_on,0,0,1,,,,,,,,,,,,,,,0,,,73,0
204240,note_on,0,0,1,,,,,,,,,,,,,,,0,,,63,0
204360,note_on,0,0,1,,,,,,,,,,,,,,,0,,,73,0
204360,note_on,0,0,1,,,,,,,,,,,,,,,0,,,63,0
204360,note_on,0,0,2,,,,,,,,,,,,,,,0,,,46,0
204360,note_on,0,0,2,,,,,,,,,,,,,,,0,,,51,0
204360,note_on,120,0,2,,,,,,,,,,,,,,,0,,,58,0
204360,control_change,0,0,2,,,,,,,,,,,,,,,0,64,0,,
204360,note_on,120,0,1,,,,,,,,,,,,,,,0,,,75,0
204480,set_tempo,240,1,0,,,,,,,,,,,,413793,,,,,,,
204480,note_on,0,0,2,,,,,,,,,,,,,,,0,,,51,62
204480,note_on,0,0,2,,,,,,,,,,,,,,,0,,,58,74
204480,note_on,0,0,1,,,,,,,,,,,,,,,0,,,75,80
204480,note_on,0,0,1,,,,,,,,,,,,,,,0,,,72,68
204480,note_on,120,0,1,,,,,,,,,,,,,,,0,,,63,68
204480,note_on,120,0,2,,,,,,,,,,,,,,,0,,,46,62
204600,note_on,0,0,1,,,,,,,,,,,,,,,0,,,73,73
204600,note_on,0,0,1,,,,,,,,,,,,,,,0,,,63,0
204600,note_on,0,0,1,,,,,,,,,,,,,,,0,,,72,0
204600,note_on,120,0,1,,,,,,,,,,,,,,,0,,,75,0
204720,note_on,0,0,2,,,,,,,,,,,,,,,0,,,51,0
204720,note_on,120,0,1,,,,,,,,,,,,,,,0,,,73,0
204720,note_on,0,0,1,,,,,,,,,,,,,,,0,,,70,73
204720,note_on,240,0,2,,,,,,,,,,,,,,,0,,,58,0
204720,note_on,0,0,2,,,,,,,,,,,,,,,0,,,46,0
204720,set_tempo,240,1,0,,,,,,,,,,,,427046,,,,,,,
204840,note_on,0,0,1,,,,,,,,,,,,,,,0,,,67,73
204840,note_on,120,0,1,,,,,,,,,,,,,,,0,,,70,0
204960,note_on,0,0,1,,,,,,,,,,,,,,,0,,,63,80
204960,note_on,120,0,1,,,,,,,,,,,,,,,0,,,67,0
204960,set_tempo,240,1,0,,,,,,,,,,,,465116,,,,,,,
205080,note_on,120,0,1,,,,,,,,,,,,,,,0,,,63,0
205200,set_tempo,240,1,0,,,,,,,,,,,,418118,,,,,,,
205200,note_on,120,0,1,,,,,,,,,,,,,,,0,,,67,84
205320,note_on,0,0,1,,,,,,,,,,,,,,,0,,,70,74
205320,note_on,120,0,1,,,,,,,,,,,,,,,0,,,67,0
205440,note_on,0,0,1,,,,,,,,,,,,,,,0,,,73,74
205440,set_tempo,240,1,0,,,,,,,,,,,,427046,,,,,,,
205440,note_on,120,0,1,,,,,,,,,,,,,,,0,,,70,0
205560,note_on,120,0,1,,,,,,,,,,,,,,,0,,,73,0
205560,note_on,0,0,1,,,,,,,,,,,,,,,0,,,75,74
205680,note_on,120,0,1,,,,,,,,,,,,,,,0,,,75,0
205680,note_on,0,0,1,,,,,,,,,,,,,,,0,,,79,79
205680,set_tempo,240,1,0,,,,,,,,,,,,474308,,,,,,,
205800,note_on,120,0,1,,,,,,,,,,,,,,,0,,,79,0
205920,note_on,0,0,2,,,,,,,,,,,,,,,0,,,63,62
205920,note_on,120,0,1,,,,,,,,,,,,,,,0,,,83,77
205920,note_on,0,0,1,,,,,,,,,,,,,,,0,,,71,65
205920,note_on,0,0,2,,,,,,,,,,,,,,,0,,,56,62
205920,note_on,1200,0,2,,,,,,,,,,,,,,,0,,,67,74
205920,set_tempo,240,1,0,,,,,,,,,,,,506329,,,,,,,
205980,note_on,60,0,2,,,,,,,,,,,,,,,0,,,56,0
205980,note_on,0,0,2,,,,,,,,,,,,,,,0,,,63,0
205980,note_on,0,0,1,,,,,,,,,,,,,,,0,,,83,0
205980,note_on,60,0,1,,,,,,,,,,,,,,,0,,,71,0
205980,note_on,0,0,2,,,,,,,,,,,,,,,0,,,67,0
206160,note_on,0,0,2,,,,,,,,,,,,,,,0,,,56,62
206160,set_tempo,240,1,0,,,,,,,,,,,,456274,,,,,,,
206160,note_on,0,0,2,,,,,,,,,,,,,,,0,,,63,62
206160,note_on,180,0,2,,,,,,,,,,,,,,,0,,,68,74
206160,note_on,0,0,1,,,,,,,,,,,,,,,0,,,84,86
206160,note_on,180,0,1,,,,,,,,,,,,,,,0,,,72,73
206640,note_on,0,0,1,,,,,,,,,,,,,,,0,,,67,85
206640,note_on,0,0,1,,,,,,,,,,,,,,,0,,,72,0
206640,note_on,480,0,1,,,,,,,,,,,,,,,0,,,84,0
206640,set_tempo,480,1,0,,,,,,,,,,,,415225,,,,,,,
206640,text,0,1,1,,,,,,,,,,,,,,,,,,,
206640,control_change,0,0,1,,,,,,,,,,,,,,,0,91,127,,
206640,note_on,480,0,2,,,,,,,,,,,,,,,0,,,56,0
206640,note_on,0,0,2,,,,,,,,,,,,,,,0,,,63,0
206640,note_on,0,0,2,,,,,,,,,,,,,,,0,,,68,0
206640,note_on,0,0,2,,,,,,,,,,,,,,,0,,,55,73
206760,note_on,120,0,1,,,,,,,,,,,,,,,0,,,67,0
206760,note_on,120,0,2,,,,,,,,,,,,,,,0,,,55,0
206760,note_on,0,0,2,,,,,,,,,,,,,,,0,,,56,67
206760,note_on,0,0,1,,,,,,,,,,,,,,,0,,,68,70
206880,note_on,120,0,1,,,,,,,,,,,,,,,0,,,68,0
206880,note_on,0,0,1,,,,,,,,,,,,,,,0,,,63,75
206880,set_tempo,240,1,0,,,,,,,,,,,,427046,,,,,,,
206880,note_on,0,0,2,,,,,,,,,,,,,,,0,,,51,70
206880,note_on,120,0,2,,,,,,,,,,,,,,,0,,,56,0
207000,note_on,120,0,2,,,,,,,,,,,,,,,0,,,51,0
207000,note_on,0,0,1,,,,,,,,,,,,,,,0,,,60,70
207000,note_on,120,0,1,,,,,,,,,,,,,,,0,,,63,0
207000,note_on,0,0,2,,,,,,,,,,,,,,,0,,,48,67
207120,set_tempo,240,1,0,,,,,,,,,,,,476190,,,,,,,
207120,note_on,120,0,2,,,,,,,,,,,,,,,0,,,48,0
207120,note_on,0,0,2,,,,,,,,,,,,,,,0,,,44,70
207120,note_on,120,0,1,,,,,,,,,,,,,,,0,,,60,0
207120,note_on,0,0,1,,,,,,,,,,,,,,,0,,,56,76
207240,note_on,120,0,1,,,,,,,,,,,,,,,0,,,56,0
207240,note_on,120,0,2,,,,,,,,,,,,,,,0,,,44,0
207360,note_on,120,0,1,,,,,,,,,,,,,,,0,,,75,89
207360,note_on,0,0,1,,,,,,,,,,,,,,,0,,,71,75
207360,note_on,0,0,1,,,,,,,,,,,,,,,0,,,63,75
207360,note_on,0,0,2,,,,,,,,,,,,,,,0,,,56,72
207360,control_change,120,0,2,,,,,,,,,,,,,,,0,64,127,,
207360,note_on,0,0,2,,,,,,,,,,,,,,,0,,,51,61
207360,set_tempo,240,1,0,,,,,,,,,,,,436364,,,,,,,
207360,note_on,0,0,2,,,,,,,,,,,,,,,0,,,44,61
207720,note_on,360,0,2,,,,,,,,,,,,,,,0,,,56,0
207720,note_on,0,0,2,,,,,,,,,,,,,,,0,,,51,0
207720,note_on,0,0,2,,,,,,,,,,,,,,,0,,,44,0
207720,note_on,0,0,2,,,,,,,,,,,,,,,0,,,44,56
207720,note_on,0,0,1,,,,,,,,,,,,,,,0,,,71,72
207720,note_on,0,0,1,,,,,,,,,,,,,,,0,,,63,72
207720,note_on,0,0,1,,,,,,,,,,,,,,,0,,,75,0
207720,note_on,0,0,1,,,,,,,,,,,,,,,0,,,71,0
207720,note_on,360,0,1,,,,,,,,,,,,,,,0,,,63,0
207720,note_on,0,0,2,,,,,,,,,,,,,,,0,,,51,56
207720,note_on,0,0,2,,,,,,,,,,,,,,,0,,,56,67
207720,note_on,0,0,1,,,,,,,,,,,,,,,0,,,75,85
207840,note_on,0,0,2,,,,,,,,,,,,,,,0,,,56,73
207840,note_on,120,0,1,,,,,,,,,,,,,,,0,,,75,0
207840,note_on,0,0,2,,,,,,,,,,,,,,,0,,,44,62
207840,note_on,0,0,2,,,,,,,,,,,,,,,0,,,44,0
207840,set_tempo,480,1,0,,,,,,,,,,,,476190,,,,,,,
207840,note_on,0,0,2,,,,,,,,,,,,,,,0,,,51,62
207840,note_on,120,0,2,,,,,,,,,,,,,,,0,,,56,0
207840,note_on,0,0,2,,,,,,,,,,,,,,,0,,,51,0
207840,note_on,0,0,1,,,,,,,,,,,,,,,0,,,75,89
207840,note_on,0,0,1,,,,,,,,,,,,,,,0,,,71,75
207840,note_on,0,0,1,,,,,,,,,,,,,,,0,,,63,75
207840,note_on,0,0,1,,,,,,,,,,,,,,,0,,,63,0
207840,note_on,0,0,1,,,,,,,,,,,,,,,0,,,71,0
207960,note_on,0,0,1,,,,,,,,,,,,,,,0,,,71,0
207960,note_on,0,0,1,,,,,,,,,,,,,,,0,,,63,0
207960,control_change,0,0,2,,,,,,,,,,,,,,,0,64,0,,
207960,note_on,0,0,2,,,,,,,,,,,,,,,0,,,44,0
207960,note_on,0,0,2,,,,,,,,,,,,,,,0,,,51,0
207960,note_on,120,0,2,,,,,,,,,,,,,,,0,,,56,0
207960,note_on,120,0,1,,,,,,,,,,,,,,,0,,,75,0
208080,note_on,0,0,2,,,,,,,,,,,,,,,0,,,52,61
208080,note_on,120,0,2,,,,,,,,,,,,,,,0,,,44,61
208080,note_on,0,0,2,,,,,,,,,,,,,,,0,,,56,72
208080,note_on,0,0,1,,,,,,,,,,,,,,,0,,,76,89
208080,note_on,120,0,1,,,,,,,,,,,,,,,0,,,71,75
208080,set_tempo,240,1,0,,,,,,,,,,,,436364,,,,,,,
208080,note_on,0,0,1,,,,,,,,,,,,,,,0,,,64,75
208080,note_on,0,0,1,,,,,,,,,,,,,,,0,,,74,75
208158,control_change,78,0,2,,,,,,,,,,,,,,,0,64,127,,
208440,note_on,0,0,2,,,,,,,,,,,,,,,0,,,52,56
208440,note_on,0,0,2,,,,,,,,,,,,,,,0,,,56,67
208440,note_on,0,0,2,,,,,,,,,,,,,,,0,,,52,0
208440,note_on,282,0,2,,,,,,,,,,,,,,,0,,,56,0
208440,note_on,360,0,1,,,,,,,,,,,,,,,0,,,76,0
208440,note_on,0,0,1,,,,,,,,,,,,,,,0,,,71,0
208440,note_on,0,0,1,,,,,,,,,,,,,,,0,,,64,0
208440,note_on,0,0,1,,,,,,,,,,,,,,,0,,,74,0
208440,note_on,0,0,1,,,,,,,,,,,,,,,0,,,71,72
208440,note_on,0,0,1,,,,,,,,,,,,,,,0,,,64,72
208440,note_on,0,0,1,,,,,,,,,,,,,,,0,,,74,72
208440,note_on,0,0,1,,,,,,,,,,,,,,,0,,,76,85
208440,note_on,0,0,2,,,,,,,,,,,,,,,0,,,44,56
208440,note_on,0,0,2,,,,,,,,,,,,,,,0,,,44,0
208560,note_on,120,0,1,,,,,,,,,,,,,,,0,,,76,0
208560,note_on,0,0,1,,,,,,,,,,,,,,,0,,,71,0
208560,note_on,0,0,1,,,,,,,,,,,,,,,0,,,64,0
208560,note_on,0,0,1,,,,,,,,,,,,,,,0,,,74,0
208560,note_on,0,0,1,,,,,,,,,,,,,,,0,,,71,75
208560,note_on,0,0,1,,,,,,,,,,,,,,,0,,,64,75
208560,note_on,0,0,1,,,,,,,,,,,,,,,0,,,76,89
208560,note_on,0,0,1,,,,,,,,,,,,,,,0,,,74,75
208560,note_on,0,0,2,,,,,,,,,,,,,,,0,,,52,0
208560,note_on,0,0,2,,,,,,,,,,,,,,,0,,,44,0
208560,set_tempo,480,1,0,,,,,,,,,,,,474308,,,,,,,
208560,note_on,0,0,2,,,,,,,,,,,,,,,0,,,44,62
208560,note_on,0,0,2,,,,,,,,,,,,,,,0,,,52,62
208560,note_on,0,0,2,,,,,,,,,,,,,,,0,,,56,73
208560,note_on,120,0,2,,,,,,,,,,,,,,,0,,,56,0
208680,note_on,120,0,1,,,,,,,,,,,,,,,0,,,76,0
208680,note_on,0,0,1,,,,,,,,,,,,,,,0,,,71,0
208680,note_on,0,0,1,,,,,,,,,,,,,,,0,,,64,0
208680,note_on,0,0,2,,,,,,,,,,,,,,,0,,,44,0
208680,control_change,0,0,2,,,,,,,,,,,,,,,0,64,0,,
208680,note_on,0,0,2,,,,,,,,,,,,,,,0,,,52,0
208680,note_on,120,0,2,,,,,,,,,,,,,,,0,,,56,0
208680,note_on,0,0,1,,,,,,,,,,,,,,,0,,,74,0
208800,note_on,120,0,1,,,,,,,,,,,,,,,0,,,64,68
208800,key_signature,240,1,0,,,,,,,,,,,C,,,,,,,,
208800,note_on,0,0,1,,,,,,,,,,,,,,,0,,,76,80
208800,note_on,0,0,1,,,,,,,,,,,,,,,0,,,71,68
208800,note_on,0,0,2,,,,,,,,,,,,,,,0,,,57,74
208800,note_on,0,0,2,,,,,,,,,,,,,,,0,,,52,62
208800,note_on,120,0,2,,,,,,,,,,,,,,,0,,,45,62
208800,set_tempo,0,1,0,,,,,,,,,,,,413793,,,,,,,
208920,note_on,120,0,1,,,,,,,,,,,,,,,0,,,76,0
208920,note_on,0,0,1,,,,,,,,,,,,,,,0,,,71,0
208920,note_on,0,0,1,,,,,,,,,,,,,,,0,,,72,73
208920,note_on,0,0,1,,,,,,,,,,,,,,,0,,,64,0
209040,note_on,0,0,2,,,,,,,,,,,,,,,0,,,45,0
209040,note_on,0,0,2,,,,,,,,,,,,,,,0,,,52,0
209040,note_on,240,0,2,,,,,,,,,,,,,,,0,,,57,0
209040,set_tempo,240,1,0,,,,,,,,,,,,418118,,,,,,,
209040,note_on,0,0,1,,,,,,,,,,,,,,,0,,,69,73
209040,note_on,120,0,1,,,,,,,,,,,,,,,0,,,72,0
209160,note_on,120,0,1,,,,,,,,,,,,,,,0,,,69,0
209160,note_on,0,0,1,,,,,,,,,,,,,,,0,,,64,73
209280,set_tempo,240,1,0,,,,,,,,,,,,454545,,,,,,,
209280,note_on,120,0,1,,,,,,,,,,,,,,,0,,,64,0
209280,note_on,0,0,1,,,,,,,,,,,,,,,0,,,60,80
209400,note_on,120,0,1,,,,,,,,,,,,,,,0,,,60,0
209520,note_on,120,0,1,,,,,,,,,,,,,,,0,,,69,84
209520,note_on,480,0,2,,,,,,,,,,,,,,,0,,,48,63
209520,set_tempo,240,1,0,,,,,,,,,,,,415225,,,,,,,
209640,note_on,120,0,1,,,,,,,,,,,,,,,0,,,69,0
209640,note_on,0,0,2,,,,,,,,,,,,,,,0,,,45,55
209640,note_on,120,0,2,,,,,,,,,,,,,,,0,,,48,0
209640,note_on,0,0,1,,,,,,,,,,,,,,,0,,,72,74
209640,set_tempo,120,1,0,,,,,,,,,,,,413793,,,,,,,
209740,set_tempo,100,1,0,,,,,,,,,,,,412371,,,,,,,
209760,note_on,0,0,1,,,,,,,,,,,,,,,0,,,76,76
209760,note_on,120,0,1,,,,,,,,,,,,,,,0,,,72,0
209760,note_on,120,0,2,,,,,,,,,,,,,,,0,,,45,0
209760,note_on,0,0,2,,,,,,,,,,,,,,,0,,,40,56
209860,set_tempo,120,1,0,,,,,,,,,,,,410959,,,,,,,
209880,note_on,0,0,1,,,,,,,,,,,,,,,0,,,81,77
209880,note_on,120,0,1,,,,,,,,,,,,,,,0,,,76,0
209880,note_on,120,0,2,,,,,,,,,,,,,,,0,,,40,0
209880,note_on,0,0,2,,,,,,,,,,,,,,,0,,,36,57
209960,set_tempo,100,1,0,,,,,,,,,,,,409556,,,,,,,
210000,note_on,0,0,2,,,,,,,,,,,,,,,0,,,33,62
210000,note_on,120,0,1,,,,,,,,,,,,,,,0,,,81,0
210000,note_on,0,0,1,,,,,,,,,,,,,,,0,,,84,83
210000,note_on,120,0,2,,,,,,,,,,,,,,,0,,,36,0
210000,set_tempo,40,1,0,,,,,,,,,,,,474308,,,,,,,
210120,note_on,120,0,1,,,,,,,,,,,,,,,0,,,84,0
210120,note_on,120,0,2,,,,,,,,,,,,,,,0,,,33,0
210240,set_tempo,240,1,0,,,,,,,,,,,,436364,,,,,,,
210240,control_change,120,0,2,,,,,,,,,,,,,,,0,64,127,,
210240,note_on,0,0,1,,,,,,,,,,,,,,,0,,,72,75
210240,note_on,120,0,1,,,,,,,,,,,,,,,0,,,76,89
210240,note_on,0,0,2,,,,,,,,,,,,,,,0,,,57,72
210240,note_on,0,0,2,,,,,,,,,,,,,,,0,,,52,61
210240,note_on,0,0,2,,,,,,,,,,,,,,,0,,,45,61
210240,note_on,0,0,1,,,,,,,,,,,,,,,0,,,64,75
210600,note_on,0,0,1,,,,,,,,,,,,,,,0,,,72,72
210600,note_on,0,0,1,,,,,,,,,,,,,,,0,,,64,72
210600,note_on,0,0,1,,,,,,,,,,,,,,,0,,,76,0
210600,note_on,0,0,1,,,,,,,,,,,,,,,0,,,72,0
210600,note_on,0,0,1,,,,,,,,,,,,,,,0,,,76,85
210600,note_on,360,0,1,,,,,,,,,,,,,,,0,,,64,0
210600,note_on,0,0,2,,,,,,,,,,,,,,,0,,,52,0
210600,note_on,0,0,2,,,,,,,,,,,,,,,0,,,45,0
210600,note_on,0,0,2,,,,,,,,,,,,,,,0,,,45,56
210600,note_on,0,0,2,,,,,,,,,,,,,,,0,,,52,56
210600,note_on,0,0,2,,,,,,,,,,,,,,,0,,,57,67
210600,note_on,360,0,2,,,,,,,,,,,,,,,0,,,57,0
210720,note_on,0,0,2,,,,,,,,,,,,,,,0,,,57,73
210720,note_on,0,0,2,,,,,,,,,,,,,,,0,,,52,62
210720,note_on,0,0,2,,,,,,,,,,,,,,,0,,,45,62
210720,note_on,0,0,2,,,,,,,,,,,,,,,0,,,45,0
210720,note_on,0,0,2,,,,,,,,,,,,,,,0,,,52,0
210720,note_on,120,0,2,,,,,,,,,,,,,,,0,,,57,0
210720,note_on,0,0,1,,,,,,,,,,,,,,,0,,,72,0
210720,note_on,120,0,1,,,,,,,,,,,,,,,0,,,76,0
210720,note_on,0,0,1,,,,,,,,,,,,,,,0,,,64,0
210720,note_on,0,0,1,,,,,,,,,,,,,,,0,,,64,75
210720,note_on,0,0,1,,,,,,,,,,,,,,,0,,,72,75
210720,note_on,0,0,1,,,,,,,,,,,,,,,0,,,76,89
210720,set_tempo,480,1,0,,,,,,,,,,,,476190,,,,,,,
210840,note_on,0,0,2,,,,,,,,,,,,,,,0,,,45,0
210840,note_on,0,0,1,,,,,,,,,,,,,,,0,,,72,0
210840,note_on,0,0,1,,,,,,,,,,,,,,,0,,,64,0
210840,note_on,120,0,2,,,,,,,,,,,,,,,0,,,57,0
210840,note_on,0,0,2,,,,,,,,,,,,,,,0,,,52,0
210840,note_on,120,0,1,,,,,,,,,,,,,,,0,,,76,0
210840,control_change,0,0,2,,,,,,,,,,,,,,,0,64,0,,
210960,note_on,0,0,1,,,,,,,,,,,,,,,0,,,77,89
210960,note_on,120,0,1,,,,,,,,,,,,,,,0,,,72,75
210960,note_on,0,0,1,,,,,,,,,,,,,,,0,,,75,75
210960,note_on,120,0,2,,,,,,,,,,,,,,,0,,,45,61
210960,note_on,0,0,2,,,,,,,,,,,,,,,0,,,53,61
210960,note_on,0,0,2,,,,,,,,,,,,,,,0,,,57,72
210960,set_tempo,240,1,0,,,,,,,,,,,,436364,,,,,,,
210960,note_on,0,0,1,,,,,,,,,,,,,,,0,,,65,75
211038,control_change,78,0,2,,,,,,,,,,,,,,,0,64,127,,
211320,note_on,360,0,1,,,,,,,,,,,,,,,0,,,77,0
211320,note_on,282,0,2,,,,,,,,,,,,,,,0,,,57,0
211320,note_on,0,0,2,,,,,,,,,,,,,,,0,,,53,0
211320,note_on,0,0,2,,,,,,,,,,,,,,,0,,,45,0
211320,note_on,0,0,2,,,,,,,,,,,,,,,0,,,45,56
211320,note_on,0,0,1,,,,,,,,,,,,,,,0,,,72,0
211320,note_on,0,0,2,,,,,,,,,,,,,,,0,,,53,56
211320,note_on,0,0,1,,,,,,,,,,,,,,,0,,,77,85
211320,note_on,0,0,1,,,,,,,,,,,,,,,0,,,75,72
211320,note_on,0,0,1,,,,,,,,,,,,,,,0,,,65,72
211320,note_on,0,0,1,,,,,,,,,,,,,,,0,,,72,72
211320,note_on,0,0,1,,,,,,,,,,,,,,,0,,,75,0
211320,note_on,0,0,1,,,,,,,,,,,,,,,0,,,65,0
211320,note_on,0,0,2,,,,,,,,,,,,,,,0,,,57,67
211440,note_on,0,0,1,,,,,,,,,,,,,,,0,,,65,0
211440,note_on,0,0,1,,,,,,,,,,,,,,,0,,,72,0
211440,note_on,0,0,1,,,,,,,,,,,,,,,0,,,72,75
211440,note_on,0,0,1,,,,,,,,,,,,,,,0,,,65,75
211440,note_on,120,0,1,,,,,,,,,,,,,,,0,,,77,0
211440,note_on,0,0,1,,,,,,,,,,,,,,,0,,,75,0
211440,note_on,0,0,1,,,,,,,,,,,,,,,0,,,77,89
211440,note_on,0,0,1,,,,,,,,,,,,,,,0,,,75,75
211440,note_on,0,0,2,,,,,,,,,,,,,,,0,,,57,73
211440,note_on,0,0,2,,,,,,,,,,,,,,,0,,,53,62
211440,note_on,0,0,2,,,,,,,,,,,,,,,0,,,45,62
211440,note_on,0,0,2,,,,,,,,,,,,,,,0,,,45,0
211440,note_on,0,0,2,,,,,,,,,,,,,,,0,,,53,0
211440,note_on,120,0,2,,,,,,,,,,,,,,,0,,,57,0
211440,set_tempo,480,1,0,,,,,,,,,,,,474308,,,,,,,
211560,note_on,0,0,1,,,,,,,,,,,,,,,0,,,72,0
211560,control_change,0,0,2,,,,,,,,,,,,,,,0,64,0,,
211560,note_on,0,0,2,,,,,,,,,,,,,,,0,,,45,0
211560,note_on,120,0,2,,,,,,,,,,,,,,,0,,,57,0
211560,note_on,0,0,1,,,,,,,,,,,,,,,0,,,65,0
211560,note_on,0,0,1,,,,,,,,,,,,,,,0,,,75,0
211560,note_on,120,0,1,,,,,,,,,,,,,,,0,,,77,0
211560,note_on,0,0,2,,,,,,,,,,,,,,,0,,,53,0
211680,note_on,120,0,2,,,,,,,,,,,,,,,0,,,46,62
211680,note_on,0,0,2,,,,,,,,,,,,,,,0,,,53,62
211680,note_on,120,0,1,,,,,,,,,,,,,,,0,,,65,68
211680,set_tempo,240,1,0,,,,,,,,,,,,413793,,,,,,,
211680,note_on,0,0,2,,,,,,,,,,,,,,,0,,,58,74
211680,note_on,0,0,1,,,,,,,,,,,,,,,0,,,72,68
211680,note_on,0,0,1,,,,,,,,,,,,,,,0,,,77,80
211800,note_on,120,0,1,,,,,,,,,,,,,,,0,,,77,0
211800,note_on,0,0,1,,,,,,,,,,,,,,,0,,,73,73
211800,note_on,0,0,1,,,,,,,,,,,,,,,0,,,65,0
211800,note_on,0,0,1,,,,,,,,,,,,,,,0,,,72,0
211920,note_on,120,0,1,,,,,,,,,,,,,,,0,,,73,0
211920,note_on,240,0,2,,,,,,,,,,,,,,,0,,,58,0
211920,note_on,0,0,2,,,,,,,,,,,,,,,0,,,53,0
211920,set_tempo,240,1,0,,,,,,,,,,,,416667,,,,,,,
211920,note_on,0,0,2,,,,,,,,,,,,,,,0,,,46,0
211920,note_on,0,0,1,,,,,,,,,,,,,,,0,,,70,73
212040,note_on,0,0,1,,,,,,,,,,,,,,,0,,,65,73
212040,note_on,120,0,1,,,,,,,,,,,,,,,0,,,70,0
212160,note_on,120,0,1,,,,,,,,,,,,,,,0,,,65,0
212160,set_tempo,240,1,0,,,,,,,,,,,,470588,,,,,,,
212160,note_on,0,0,1,,,,,,,,,,,,,,,0,,,61,80
212280,note_on,120,0,1,,,,,,,,,,,,,,,0,,,61,0
212400,note_on,480,0,2,,,,,,,,,,,,,,,0,,,49,63
212400,set_tempo,240,1,0,,,,,,,,,,,,418118,,,,,,,
212400,note_on,120,0,1,,,,,,,,,,,,,,,0,,,70,84
212420,set_tempo,20,1,0,,,,,,,,,,,,418118,,,,,,,
212520,note_on,120,0,1,,,,,,,,,,,,,,,0,,,70,0
212520,note_on,0,0,1,,,,,,,,,,,,,,,0,,,73,75
212520,note_on,120,0,2,,,,,,,,,,,,,,,0,,,49,0
212520,note_on,0,0,2,,,,,,,,,,,,,,,0,,,46,56
212540,set_tempo,120,1,0,,,,,,,,,,,,416667,,,,,,,
212640,note_on,120,0,2,,,,,,,,,,,,,,,0,,,46,0
212640,note_on,0,0,2,,,,,,,,,,,,,,,0,,,41,57
212640,set_tempo,100,1,0,,,,,,,,,,,,415225,,,,,,,
212640,note_on,0,0,1,,,,,,,,,,,,,,,0,,,77,76
212640,note_on,120,0,1,,,,,,,,,,,,,,,0,,,73,0
212760,note_on,120,0,2,,,,,,,,,,,,,,,0,,,41,0
212760,note_on,0,0,2,,,,,,,,,,,,,,,0,,,37,58
212760,set_tempo,120,1,0,,,,,,,,,,,,413793,,,,,,,
212760,note_on,120,0,1,,,,,,,,,,,,,,,0,,,77,0
212760,note_on,0,0,1,,,,,,,,,,,,,,,0,,,82,78
212860,set_tempo,100,1,0,,,,,,,,,,,,412371,,,,,,,
212880,note_on,0,0,1,,,,,,,,,,,,,,,0,,,85,85
212880,note_on,120,0,1,,,,,,,,,,,,,,,0,,,82,0
212880,note_on,120,0,2,,,,,,,,,,,,,,,0,,,37,0
212880,note_on,0,0,2,,,,,,,,,,,,,,,0,,,34,63
212880,set_tempo,20,1,0,,,,,,,,,,,,474308,,,,,,,
213000,note_on,120,0,2,,,,,,,,,,,,,,,0,,,34,0
213000,note_on,120,0,1,,,,,,,,,,,,,,,0,,,85,0
213120,control_change,120,0,2,,,,,,,,,,,,,,,0,64,127,,
213120,note_on,120,0,1,,,,,,,,,,,,,,,0,,,76,75
213120,note_on,0,0,2,,,,,,,,,,,,,,,0,,,46,61
213120,note_on,0,0,2,,,,,,,,,,,,,,,0,,,54,61
213120,note_on,0,0,2,,,,,,,,,,,,,,,0,,,58,72
213120,note_on,0,0,1,,,,,,,,,,,,,,,0,,,66,75
213120,note_on,0,0,1,,,,,,,,,,,,,,,0,,,73,75
213120,note_on,0,0,1,,,,,,,,,,,,,,,0,,,78,89
213120,set_tempo,240,1,0,,,,,,,,,,,,436364,,,,,,,
213480,note_on,0,0,2,,,,,,,,,,,,,,,0,,,46,0
213480,note_on,0,0,2,,,,,,,,,,,,,,,0,,,46,56
213480,note_on,0,0,2,,,,,,,,,,,,,,,0,,,54,56
213480,note_on,0,0,1,,,,,,,,,,,,,,,0,,,66,72
213480,note_on,0,0,1,,,,,,,,,,,,,,,0,,,78,85
213480,note_on,0,0,1,,,,,,,,,,,,,,,0,,,73,72
213480,note_on,360,0,2,,,,,,,,,,,,,,,0,,,58,0
213480,note_on,0,0,1,,,,,,,,,,,,,,,0,,,76,72
213480,note_on,0,0,1,,,,,,,,,,,,,,,0,,,73,0
213480,note_on,0,0,1,,,,,,,,,,,,,,,0,,,78,0
213480,note_on,0,0,1,,,,,,,,,,,,,,,0,,,76,0
213480,note_on,360,0,1,,,,,,,,,,,,,,,0,,,66,0
213480,note_on,0,0,2,,,,,,,,,,,,,,,0,,,58,67
213480,note_on,0,0,2,,,,,,,,,,,,,,,0,,,54,0
213600,note_on,120,0,2,,,,,,,,,,,,,,,0,,,58,0
213600,note_on,0,0,2,,,,,,,,,,,,,,,0,,,54,0
213600,note_on,0,0,2,,,,,,,,,,,,,,,0,,,46,0
213600,note_on,0,0,2,,,,,,,,,,,,,,,0,,,46,62
213600,note_on,0,0,1,,,,,,,,,,,,,,,0,,,73,0
213600,note_on,0,0,1,,,,,,,,,,,,,,,0,,,73,75
213600,note_on,0,0,1,,,,,,,,,,,,,,,0,,,66,75
213600,note_on,0,0,1,,,,,,,,,,,,,,,0,,,76,75
213600,note_on,0,0,1,,,,,,,,,,,,,,,0,,,66,0
213600,note_on,120,0,1,,,,,,,,,,,,,,,0,,,78,0
213600,set_tempo,480,1,0,,,,,,,,,,,,476190,,,,,,,
213600,note_on,0,0,2,,,,,,,,,,,,,,,0,,,54,62
213600,note_on,0,0,1,,,,,,,,,,,,,,,0,,,78,89
213600,note_on,0,0,2,,,,,,,,,,,,,,,0,,,58,73
213600,note_on,0,0,1,,,,,,,,,,,,,,,0,,,76,0
213720,note_on,0,0,1,,,,,,,,,,,,,,,0,,,66,0
213720,control_change,0,0,2,,,,,,,,,,,,,,,0,64,0,,
213720,note_on,0,0,2,,,,,,,,,,,,,,,0,,,46,0
213720,note_on,0,0,2,,,,,,,,,,,,,,,0,,,54,0
213720,note_on,120,0,2,,,,,,,,,,,,,,,0,,,58,0
213720,note_on,0,0,1,,,,,,,,,,,,,,,0,,,73,0
213720,note_on,120,0,1,,,,,,,,,,,,,,,0,,,78,0
213720,note_on,0,0,1,,,,,,,,,,,,,,,0,,,76,0
213840,note_on,0,0,1,,,,,,,,,,,,,,,0,,,78,80
213840,note_on,0,0,1,,,,,,,,,,,,,,,0,,,73,68
213840,note_on,120,0,1,,,,,,,,,,,,,,,0,,,66,68
213840,set_tempo,240,1,0,,,,,,,,,,,,413793,,,,,,,
213840,note_on,120,0,2,,,,,,,,,,,,,,,0,,,47,62
213840,note_on,0,0,2,,,,,,,,,,,,,,,0,,,54,62
213840,note_on,0,0,2,,,,,,,,,,,,,,,0,,,59,74
213960,note_on,120,0,1,,,,,,,,,,,,,,,0,,,78,0
213960,note_on,0,0,1,,,,,,,,,,,,,,,0,,,73,0
213960,note_on,0,0,1,,,,,,,,,,,,,,,0,,,66,0
213960,note_on,0,0,1,,,,,,,,,,,,,,,0,,,74,73
214080,note_on,0,0,1,,,,,,,,,,,,,,,0,,,71,73
214080,set_tempo,240,1,0,,,,,,,,,,,,419580,,,,,,,
214080,note_on,240,0,2,,,,,,,,,,,,,,,0,,,59,0
214080,note_on,120,0,1,,,,,,,,,,,,,,,0,,,74,0
214080,note_on,0,0,2,,,,,,,,,,,,,,,0,,,47,0
214080,note_on,0,0,2,,,,,,,,,,,,,,,0,,,54,0
214200,note_on,0,0,1,,,,,,,,,,,,,,,0,,,66,73
214200,note_on,120,0,1,,,,,,,,,,,,,,,0,,,71,0
214320,set_tempo,240,1,0,,,,,,,,,,,,465116,,,,,,,
214320,note_on,0,0,1,,,,,,,,,,,,,,,0,,,62,80
214320,note_on,120,0,1,,,,,,,,,,,,,,,0,,,66,0
214440,note_on,120,0,1,,,,,,,,,,,,,,,0,,,62,0
214560,note_on,0,0,1,,,,,,,,,,,,,,,0,,,74,75
214560,control_change,480,0,2,,,,,,,,,,,,,,,0,64,127,,
214560,note_on,0,0,2,,,,,,,,,,,,,,,0,,,47,61
214560,set_tempo,240,1,0,,,,,,,,,,,,436364,,,,,,,
214560,note_on,0,0,1,,,,,,,,,,,,,,,0,,,67,75
214560,note_on,0,0,2,,,,,,,,,,,,,,,0,,,59,72
214560,note_on,0,0,1,,,,,,,,,,,,,,,0,,,79,89
214560,note_on,120,0,1,,,,,,,,,,,,,,,0,,,77,75
214560,note_on,0,0,2,,,,,,,,,,,,,,,0,,,55,61
214920,note_on,0,0,2,,,,,,,,,,,,,,,0,,,47,0
214920,note_on,360,0,1,,,,,,,,,,,,,,,0,,,67,0
214920,note_on,0,0,1,,,,,,,,,,,,,,,0,,,77,0
214920,note_on,0,0,1,,,,,,,,,,,,,,,0,,,74,72
214920,note_on,0,0,2,,,,,,,,,,,,,,,0,,,59,67
214920,note_on,0,0,2,,,,,,,,,,,,,,,0,,,47,56
214920,note_on,0,0,1,,,,,,,,,,,,,,,0,,,79,0
214920,note_on,0,0,1,,,,,,,,,,,,,,,0,,,74,0
214920,note_on,0,0,1,,,,,,,,,,,,,,,0,,,77,72
214920,note_on,360,0,2,,,,,,,,,,,,,,,0,,,59,0
214920,note_on,0,0,2,,,,,,,,,,,,,,,0,,,55,0
214920,note_on,0,0,1,,,,,,,,,,,,,,,0,,,67,72
214920,note_on,0,0,1,,,,,,,,,,,,,,,0,,,79,85
214920,note_on,0,0,2,,,,,,,,,,,,,,,0,,,55,56
215040,note_on,120,0,2,,,,,,,,,,,,,,,0,,,59,0
215040,note_on,0,0,2,,,,,,,,,,,,,,,0,,,47,0
215040,note_on,0,0,2,,,,,,,,,,,,,,,0,,,47,62
215040,note_on,0,0,2,,,,,,,,,,,,,,,0,,,55,62
215040,note_on,0,0,2,,,,,,,,,,,,,,,0,,,59,73
215040,note_on,0,0,2,,,,,,,,,,,,,,,0,,,55,0
215040,note_on,0,0,1,,,,,,,,,,,,,,,0,,,74,0
215040,note_on,120,0,1,,,,,,,,,,,,,,,0,,,79,0
215040,note_on,0,0,1,,,,,,,,,,,,,,,0,,,77,0
215040,note_on,0,0,1,,,,,,,,,,,,,,,0,,,67,0
215040,note_on,0,0,1,,,,,,,,,,,,,,,0,,,77,75
215040,note_on,0,0,1,,,,,,,,,,,,,,,0,,,67,75
215040,note_on,0,0,1,,,,,,,,,,,,,,,0,,,74,75
215040,note_on,0,0,1,,,,,,,,,,,,,,,0,,,79,89
215040,set_tempo,480,1,0,,,,,,,,,,,,476190,,,,,,,
215160,note_on,0,0,1,,,,,,,,,,,,,,,0,,,77,0
215160,note_on,0,0,2,,,,,,,,,,,,,,,0,,,47,0
215160,note_on,0,0,1,,,,,,,,,,,,,,,0,,,74,0
215160,note_on,0,0,1,,,,,,,,,,,,,,,0,,,67,0
215160,note_on,120,0,2,,,,,,,,,,,,,,,0,,,59,0
215160,note_on,0,0,2,,,,,,,,,,,,,,,0,,,55,0
215160,control_change,0,0,2,,,,,,,,,,,,,,,0,64,0,,
215160,note_on,120,0,1,,,,,,,,,,,,,,,0,,,79,0
215280,note_on,0,0,1,,,,,,,,,,,,,,,0,,,79,80
215280,note_on,0,0,2,,,,,,,,,,,,,,,0,,,60,74
215280,note_on,0,0,2,,,,,,,,,,,,,,,0,,,55,62
215280,note_on,120,0,2,,,,,,,,,,,,,,,0,,,48,62
215280,set_tempo,240,1,0,,,,,,,,,,,,413793,,,,,,,
215280,note_on,120,0,1,,,,,,,,,,,,,,,0,,,67,68
215280,note_on,0,0,1,,,,,,,,,,,,,,,0,,,74,68
215400,note_on,120,0,1,,,,,,,,,,,,,,,0,,,79,0
215400,note_on,0,0,1,,,,,,,,,,,,,,,0,,,74,0
215400,note_on,0,0,1,,,,,,,,,,,,,,,0,,,67,0
215400,note_on,0,0,1,,,,,,,,,,,,,,,0,,,75,73
215520,note_on,0,0,2,,,,,,,,,,,,,,,0,,,48,0
215520,set_tempo,240,1,0,,,,,,,,,,,,421053,,,,,,,
215520,note_on,0,0,2,,,,,,,,,,,,,,,0,,,55,0
215520,note_on,120,0,1,,,,,,,,,,,,,,,0,,,75,0
215520,note_on,0,0,1,,,,,,,,,,,,,,,0,,,72,73
215520,note_on,240,0,2,,,,,,,,,,,,,,,0,,,60,0
215640,note_on,0,0,1,,,,,,,,,,,,,,,0,,,67,73
215640,note_on,120,0,1,,,,,,,,,,,,,,,0,,,72,0
215760,note_on,0,0,1,,,,,,,,,,,,,,,0,,,63,80
215760,note_on,120,0,1,,,,,,,,,,,,,,,0,,,67,0
215760,set_tempo,240,1,0,,,,,,,,,,,,465116,,,,,,,
215880,note_on,120,0,1,,,,,,,,,,,,,,,0,,,63,0
216000,note_on,480,0,2,,,,,,,,,,,,,,,0,,,32,39
216000,note_on,120,0,1,,,,,,,,,,,,,,,0,,,72,45
216000,note_on,0,0,1,,,,,,,,,,,,,,,0,,,79,53
216000,set_tempo,240,1,0,,,,,,,,,,,,427046,,,,,,,
216011,control_change,11,0,2,,,,,,,,,,,,,,,0,64,0,,
216057,control_change,46,0,2,,,,,,,,,,,,,,,0,64,127,,
216080,set_tempo,80,1,0,,,,,,,,,,,,419580,,,,,,,
216120,note_on,0,0,1,,,,,,,,,,,,,,,0,,,84,55
216120,note_on,0,0,1,,,,,,,,,,,,,,,0,,,72,0
216120,note_on,120,0,1,,,,,,,,,,,,,,,0,,,79,0
216120,note_on,63,0,2,,,,,,,,,,,,,,,0,,,32,0
216120,note_on,0,0,2,,,,,,,,,,,,,,,0,,,44,41
216160,set_tempo,80,1,0,,,,,,,,,,,,418118,,,,,,,
216240,note_on,0,0,1,,,,,,,,,,,,,,,0,,,72,47
216240,set_tempo,80,1,0,,,,,,,,,,,,416667,,,,,,,
216240,note_on,0,0,1,,,,,,,,,,,,,,,0,,,79,56
216240,note_on,120,0,1,,,,,,,,,,,,,,,0,,,84,0
216240,note_on,0,0,2,,,,,,,,,,,,,,,0,,,32,42
216240,note_on,120,0,2,,,,,,,,,,,,,,,0,,,44,0
216320,set_tempo,80,1,0,,,,,,,,,,,,415225,,,,,,,
216360,note_on,0,0,1,,,,,,,,,,,,,,,0,,,84,58
216360,note_on,120,0,2,,,,,,,,,,,,,,,0,,,32,0
216360,note_on,0,0,1,,,,,,,,,,,,,,,0,,,72,0
216360,note_on,120,0,1,,,,,,,,,,,,,,,0,,,79,0
216360,note_on,0,0,2,,,,,,,,,,,,,,,0,,,44,43
216420,set_tempo,100,1,0,,,,,,,,,,,,413793,,,,,,,
216480,note_on,0,0,1,,,,,,,,,,,,,,,0,,,79,59
216480,note_on,120,0,1,,,,,,,,,,,,,,,0,,,84,0
216480,note_on,0,0,1,,,,,,,,,,,,,,,0,,,72,50
216480,note_on,0,0,2,,,,,,,,,,,,,,,0,,,32,44
216480,note_on,120,0,2,,,,,,,,,,,,,,,0,,,44,0
216500,set_tempo,80,1,0,,,,,,,,,,,,412371,,,,,,,
216580,set_tempo,80,1,0,,,,,,,,,,,,410959,,,,,,,
216600,note_on,0,0,2,,,,,,,,,,,,,,,0,,,44,46
216600,note_on,0,0,1,,,,,,,,,,,,,,,0,,,84,60
216600,note_on,0,0,1,,,,,,,,,,,,,,,0,,,72,0
216600,note_on,120,0,1,,,,,,,,,,,,,,,0,,,79,0
216600,note_on,120,0,2,,,,,,,,,,,,,,,0,,,32,0
216660,set_tempo,80,1,0,,,,,,,,,,,,409556,,,,,,,
216720,note_on,0,0,1,,,,,,,,,,,,,,,0,,,79,61
216720,note_on,120,0,1,,,,,,,,,,,,,,,0,,,84,0
216720,note_on,0,0,2,,,,,,,,,,,,,,,0,,,32,47
216720,note_on,120,0,2,,,,,,,,,,,,,,,0,,,44,0
216720,note_on,0,0,1,,,,,,,,,,,,,,,0,,,72,51
216840,note_on,0,0,2,,,,,,,,,,,,,,,0,,,44,49
216840,note_on,120,0,2,,,,,,,,,,,,,,,0,,,32,0
216840,note_on,0,0,1,,,,,,,,,,,,,,,0,,,84,63
216840,note_on,0,0,1,,,,,,,,,,,,,,,0,,,72,0
216840,note_on,120,0,1,,,,,,,,,,,,,,,0,,,79,0
216960,note_on,0,0,1,,,,,,,,,,,,,,,0,,,79,64
216960,note_on,0,0,1,,,,,,,,,,,,,,,0,,,72,54
216960,note_on,120,0,1,,,,,,,,,,,,,,,0,,,84,0
216960,note_on,0,0,2,,,,,,,,,,,,,,,0,,,32,49
216960,note_on,120,0,2,,,,,,,,,,,,,,,0,,,44,0
217080,note_on,120,0,2,,,,,,,,,,,,,,,0,,,32,0
217080,note_on,120,0,1,,,,,,,,,,,,,,,0,,,79,0
217080,note_on,0,0,1,,,,,,,,,,,,,,,0,,,72,0
217080,note_on,0,0,1,,,,,,,,,,,,,,,0,,,84,65
217080,note_on,0,0,2,,,,,,,,,,,,,,,0,,,44,51
217200,note_on,0,0,2,,,,,,,,,,,,,,,0,,,32,52
217200,note_on,120,0,2,,,,,,,,,,,,,,,0,,,44,0
217200,note_on,0,0,1,,,,,,,,,,,,,,,0,,,79,66
217200,note_on,120,0,1,,,,,,,,,,,,,,,0,,,84,0
217200,note_on,0,0,1,,,,,,,,,,,,,,,0,,,72,56
217320,note_on,0,0,2,,,,,,,,,,,,,,,0,,,44,53
217320,note_on,0,0,1,,,,,,,,,,,,,,,0,,,72,0
217320,note_on,0,0,1,,,,,,,,,,,,,,,0,,,84,67
217320,note_on,120,0,2,,,,,,,,,,,,,,,0,,,32,0
217320,note_on,120,0,1,,,,,,,,,,,,,,,0,,,79,0
217440,note_on,120,0,1,,,,,,,,,,,,,,,0,,,84,0
217440,note_on,120,0,2,,,,,,,,,,,,,,,0,,,44,0
217440,note_on,0,0,1,,,,,,,,,,,,,,,0,,,78,69
217440,note_on,0,0,2,,,,,,,,,,,,,,,0,,,45,51
217440,note_on,0,0,1,,,,,,,,,,,,,,,0,,,72,58
217451,control_change,11,0,2,,,,,,,,,,,,,,,0,64,0,,
217497,control_change,46,0,2,,,,,,,,,,,,,,,0,64,127,,
217520,set_tempo,860,1,0,,,,,,,,,,,,419580,,,,,,,
217560,note_on,0,0,2,,,,,,,,,,,,,,,0,,,46,53
217560,note_on,63,0,2,,,,,,,,,,,,,,,0,,,45,0
217560,note_on,120,0,1,,,,,,,,,,,,,,,0,,,78,0
217560,note_on,0,0,1,,,,,,,,,,,,,,,0,,,84,71
217560,note_on,0,0,1,,,,,,,,,,,,,,,0,,,72,0
217600,set_tempo,80,1,0,,,,,,,,,,,,418118,,,,,,,
217680,note_on,0,0,2,,,,,,,,,,,,,,,0,,,47,54
217680,set_tempo,80,1,0,,,,,,,,,,,,416667,,,,,,,
217680,note_on,120,0,1,,,,,,,,,,,,,,,0,,,84,0
217680,note_on,0,0,1,,,,,,,,,,,,,,,0,,,72,61
217680,note_on,0,0,1,,,,,,,,,,,,,,,0,,,78,72
217680,note_on,120,0,2,,,,,,,,,,,,,,,0,,,46,0
217760,set_tempo,80,1,0,,,,,,,,,,,,415225,,,,,,,
217800,note_on,120,0,1,,,,,,,,,,,,,,,0,,,78,0
217800,note_on,0,0,1,,,,,,,,,,,,,,,0,,,72,0
217800,note_on,0,0,2,,,,,,,,,,,,,,,0,,,48,55
217800,note_on,120,0,2,,,,,,,,,,,,,,,0,,,47,0
217800,note_on,0,0,1,,,,,,,,,,,,,,,0,,,84,74
217860,set_tempo,100,1,0,,,,,,,,,,,,413793,,,,,,,
217920,note_on,0,0,2,,,,,,,,,,,,,,,0,,,49,57
217920,note_on,120,0,2,,,,,,,,,,,,,,,0,,,48,0
217920,note_on,120,0,1,,,,,,,,,,,,,,,0,,,84,0
217920,note_on,0,0,1,,,,,,,,,,,,,,,0,,,72,64
217920,note_on,0,0,1,,,,,,,,,,,,,,,0,,,78,76
217940,set_tempo,80,1,0,,,,,,,,,,,,412371,,,,,,,
218020,set_tempo,80,1,0,,,,,,,,,,,,410959,,,,,,,
218040,note_on,120,0,1,,,,,,,,,,,,,,,0,,,78,0
218040,note_on,0,0,2,,,,,,,,,,,,,,,0,,,50,59
218040,note_on,120,0,2,,,,,,,,,,,,,,,0,,,49,0
218040,note_on,0,0,1,,,,,,,,,,,,,,,0,,,72,0
218040,note_on,0,0,1,,,,,,,,,,,,,,,0,,,84,77
218100,set_tempo,80,1,0,,,,,,,,,,,,409556,,,,,,,
218160,note_on,0,0,2,,,,,,,,,,,,,,,0,,,51,61
218160,note_on,120,0,2,,,,,,,,,,,,,,,0,,,50,0
218160,note_on,0,0,1,,,,,,,,,,,,,,,0,,,78,79
218160,note_on,0,0,1,,,,,,,,,,,,,,,0,,,72,66
218160,note_on,120,0,1,,,,,,,,,,,,,,,0,,,84,0
218280,note_on,0,0,2,,,,,,,,,,,,,,,0,,,52,63
218280,note_on,120,0,1,,,,,,,,,,,,,,,0,,,72,0
218280,note_on,0,0,1,,,,,,,,,,,,,,,0,,,78,0
218280,note_on,0,0,1,,,,,,,,,,,,,,,0,,,84,81
218280,note_on,120,0,2,,,,,,,,,,,,,,,0,,,51,0
218400,note_on,0,0,2,,,,,,,,,,,,,,,0,,,53,63
218400,note_on,120,0,2,,,,,,,,,,,,,,,0,,,52,0
218400,note_on,120,0,1,,,,,,,,,,,,,,,0,,,84,0
218400,note_on,0,0,1,,,,,,,,,,,,,,,0,,,78,82
218400,note_on,0,0,1,,,,,,,,,,,,,,,0,,,72,70
218520,note_on,120,0,1,,,,,,,,,,,,,,,0,,,78,0
218520,note_on,0,0,1,,,,,,,,,,,,,,,0,,,72,0
218520,note_on,0,0,1,,,,,,,,,,,,,,,0,,,84,84
218520,note_on,120,0,2,,,,,,,,,,,,,,,0,,,53,0
218520,note_on,0,0,2,,,,,,,,,,,,,,,0,,,54,65
218640,note_on,0,0,2,,,,,,,,,,,,,,,0,,,55,67
218640,note_on,120,0,1,,,,,,,,,,,,,,,0,,,84,0
218640,note_on,0,0,1,,,,,,,,,,,,,,,0,,,78,85
218640,note_on,0,0,1,,,,,,,,,,,,,,,0,,,72,72
218640,note_on,120,0,2,,,,,,,,,,,,,,,0,,,54,0
218760,note_on,120,0,2,,,,,,,,,,,,,,,0,,,55,0
218760,note_on,0,0,2,,,,,,,,,,,,,,,0,,,56,69
218760,note_on,120,0,1,,,,,,,,,,,,,,,0,,,72,0
218760,note_on,0,0,1,,,,,,,,,,,,,,,0,,,78,0
218760,note_on,0,0,1,,,,,,,,,,,,,,,0,,,84,87
218880,note_on,0,0,1,,,,,,,,,,,,,,,0,,,78,81
218880,control_change,0,0,2,,,,,,,,,,,,,,,0,64,0,,
218880,note_on,0,0,2,,,,,,,,,,,,,,,0,,,44,64
218880,note_on,0,0,2,,,,,,,,,,,,,,,0,,,56,76
218880,note_on,120,0,2,,,,,,,,,,,,,,,0,,,56,0
218880,note_on,120,0,1,,,,,,,,,,,,,,,0,,,84,0
218880,note_on,0,0,1,,,,,,,,,,,,,,,0,,,84,95
218880,set_tempo,780,1,0,,,,,,,,,,,,444444,,,,,,,
218880,note_on,0,0,1,,,,,,,,,,,,,,,0,,,72,81
219120,note_on,0,0,1,,,,,,,,,,,,,,,0,,,84,0
219120,note_on,240,0,1,,,,,,,,,,,,,,,0,,,72,0
219120,set_tempo,240,1,0,,,,,,,,,,,,434783,,,,,,,
219120,note_on,0,0,1,,,,,,,,,,,,,,,0,,,74,72
219120,note_on,0,0,1,,,,,,,,,,,,,,,0,,,78,72
219120,note_on,0,0,1,,,,,,,,,,,,,,,0,,,84,72
219120,note_on,0,0,1,,,,,,,,,,,,,,,0,,,86,85
219120,note_on,0,0,2,,,,,,,,,,,,,,,0,,,56,58
219120,note_on,0,0,2,,,,,,,,,,,,,,,0,,,68,69
219120,note_on,0,0,1,,,,,,,,,,,,,,,0,,,78,0
219120,note_on,0,0,2,,,,,,,,,,,,,,,0,,,56,0
219120,note_on,240,0,2,,,,,,,,,,,,,,,0,,,44,0
219240,note_on,0,0,2,,,,,,,,,,,,,,,0,,,68,0
219240,note_on,120,0,2,,,,,,,,,,,,,,,0,,,56,0
219240,note_on,0,0,1,,,,,,,,,,,,,,,0,,,84,0
219240,note_on,0,0,1,,,,,,,,,,,,,,,0,,,78,0
219240,note_on,0,0,1,,,,,,,,,,,,,,,0,,,74,0
219240,note_on,120,0,1,,,,,,,,,,,,,,,0,,,86,0
219360,note_on,0,0,1,,,,,,,,,,,,,,,0,,,84,72
219360,note_on,120,0,1,,,,,,,,,,,,,,,0,,,78,72
219360,note_on,120,0,2,,,,,,,,,,,,,,,0,,,68,69
219360,note_on,0,0,1,,,,,,,,,,,,,,,0,,,74,72
219360,note_on,0,0,2,,,,,,,,,,,,,,,0,,,56,58
219360,note_on,0,0,1,,,,,,,,,,,,,,,0,,,86,85
219360,set_tempo,240,1,0,,,,,,,,,,,,425532,,,,,,,
219480,note_on,0,0,1,,,,,,,,,,,,,,,0,,,84,0
219480,note_on,0,0,2,,,,,,,,,,,,,,,0,,,68,0
219480,note_on,120,0,2,,,,,,,,,,,,,,,0,,,56,0
219480,note_on,0,0,1,,,,,,,,,,,,,,,0,,,78,0
219480,note_on,120,0,1,,,,,,,,,,,,,,,0,,,74,0
219480,note_on,0,0,1,,,,,,,,,,,,,,,0,,,86,0
219600,note_on,0,0,2,,,,,,,,,,,,,,,0,,,68,76
219600,note_on,0,0,1,,,,,,,,,,,,,,,0,,,78,79
219600,note_on,0,0,1,,,,,,,,,,,,,,,0,,,84,79
219600,note_on,0,0,1,,,,,,,,,,,,,,,0,,,86,93
219600,set_tempo,240,1,0,,,,,,,,,,,,439560,,,,,,,
219600,note_on,120,0,1,,,,,,,,,,,,,,,0,,,74,79
219600,note_on,120,0,2,,,,,,,,,,,,,,,0,,,56,64
219720,note_on,120,0,2,,,,,,,,,,,,,,,0,,,68,0
219720,note_on,0,0,2,,,,,,,,,,,,,,,0,,,56,0
219720,note_on,0,0,1,,,,,,,,,,,,,,,0,,,84,0
219720,note_on,0,0,1,,,,,,,,,,,,,,,0,,,78,0
219720,note_on,0,0,1,,,,,,,,,,,,,,,0,,,74,0
219720,note_on,120,0,1,,,,,,,,,,,,,,,0,,,86,0
219840,note_on,0,0,1,,,,,,,,,,,,,,,0,,,84,72
219840,note_on,120,0,1,,,,,,,,,,,,,,,0,,,78,72
219840,set_tempo,240,1,0,,,,,,,,,,,,427046,,,,,,,
219840,note_on,0,0,1,,,,,,,,,,,,,,,0,,,74,72
219840,note_on,0,0,2,,,,,,,,,,,,,,,0,,,56,58
219840,note_on,120,0,2,,,,,,,,,,,,,,,0,,,68,69
219840,note_on,0,0,1,,,,,,,,,,,,,,,0,,,86,85
219960,note_on,0,0,1,,,,,,,,,,,,,,,0,,,78,0
219960,note_on,120,0,2,,,,,,,,,,,,,,,0,,,56,0
219960,note_on,0,0,1,,,,,,,,,,,,,,,0,,,84,0
219960,note_on,120,0,1,,,,,,,,,,,,,,,0,,,86,0
219960,note_on,0,0,1,,,,,,,,,,,,,,,0,,,74,0
219960,note_on,0,0,2,,,,,,,,,,,,,,,0,,,68,0
220080,note_on,120,0,1,,,,,,,,,,,,,,,0,,,74,72
220080,note_on,0,0,1,,,,,,,,,,,,,,,0,,,86,85
220080,note_on,0,0,1,,,,,,,,,,,,,,,0,,,78,72
220080,note_on,120,0,2,,,,,,,,,,,,,,,0,,,56,58
220080,note_on,0,0,2,,,,,,,,,,,,,,,0,,,68,69
220080,note_on,0,0,1,,,,,,,,,,,,,,,0,,,84,72
220200,note_on,0,0,1,,,,,,,,,,,,,,,0,,,74,0
220200,note_on,0,0,1,,,,,,,,,,,,,,,0,,,78,0
220200,note_on,120,0,2,,,,,,,,,,,,,,,0,,,68,0
220200,note_on,120,0,1,,,,,,,,,,,,,,,0,,,84,0
220200,note_on,0,0,2,,,,,,,,,,,,,,,0,,,56,0
220200,note_on,0,0,1,,,,,,,,,,,,,,,0,,,86,0
220320,set_tempo,480,1,0,,,,,,,,,,,,456274,,,,,,,
220320,note_on,0,0,2,,,,,,,,,,,,,,,0,,,67,78
220320,note_on,0,0,2,,,,,,,,,,,,,,,0,,,55,65
220320,control_change,120,0,2,,,,,,,,,,,,,,,0,64,127,,
220320,note_on,0,0,1,,,,,,,,,,,,,,,0,,,86,85
220320,note_on,0,0,1,,,,,,,,,,,,,,,0,,,83,72
220320,note_on,0,0,1,,,,,,,,,,,,,,,0,,,79,72
220320,note_on,120,0,1,,,,,,,,,,,,,,,0,,,74,72
220560,note_on,240,0,1,,,,,,,,,,,,,,,0,,,86,0
220560,note_on,0,0,1,,,,,,,,,,,,,,,0,,,74,0
220560,note_on,0,0,1,,,,,,,,,,,,,,,0,,,79,0
220560,note_on,0,0,1,,,,,,,,,,,,,,,0,,,91,85
220560,note_on,0,0,1,,,,,,,,,,,,,,,0,,,83,72
220560,note_on,240,0,2,,,,,,,,,,,,,,,0,,,67,0
220560,note_on,0,0,2,,,,,,,,,,,,,,,0,,,55,0
220560,note_on,0,0,2,,,,,,,,,,,,,,,0,,,43,58
220560,note_on,0,0,2,,,,,,,,,,,,,,,0,,,55,69
220560,note_on,0,0,1,,,,,,,,,,,,,,,0,,,83,0
220560,set_tempo,240,1,0,,,,,,,,,,,,416667,,,,,,,
220560,note_on,0,0,1,,,,,,,,,,,,,,,0,,,79,72
220560,note_on,0,0,1,,,,,,,,,,,,,,,0,,,86,72
220602,control_change,42,0,2,,,,,,,,,,,,,,,0,64,0,,
220680,note_on,0,0,1,,,,,,,,,,,,,,,0,,,91,0
220680,note_on,0,0,1,,,,,,,,,,,,,,,0,,,83,0
220680,note_on,0,0,1,,,,,,,,,,,,,,,0,,,79,0
220680,note_on,78,0,2,,,,,,,,,,,,,,,0,,,55,0
220680,note_on,0,0,2,,,,,,,,,,,,,,,0,,,43,0
220680,note_on,120,0,1,,,,,,,,,,,,,,,0,,,86,0
220800,set_tempo,240,1,0,,,,,,,,,,,,430108,,,,,,,
220800,note_on,0,0,2,,,,,,,,,,,,,,,0,,,43,62
220800,note_on,120,0,2,,,,,,,,,,,,,,,0,,,31,52
220920,note_on,120,0,2,,,,,,,,,,,,,,,0,,,43,0
220920,note_on,0,0,2,,,,,,,,,,,,,,,0,,,31,0
221040,note_on,0,0,1,,,,,,,,,,,,,,,0,,,71,72
221040,note_on,360,0,1,,,,,,,,,,,,,,,0,,,67,72
221040,note_on,0,0,1,,,,,,,,,,,,,,,0,,,62,72
221040,note_on,0,0,1,,,,,,,,,,,,,,,0,,,74,85
221040,set_tempo,240,1,0,,,,,,,,,,,,451128,,,,,,,
221104,control_change,184,0,2,,,,,,,,,,,,,,,0,64,127,,
221280,note_on,0,0,1,,,,,,,,,,,,,,,0,,,67,72
221280,set_tempo,240,1,0,,,,,,,,,,,,418118,,,,,,,
221280,note_on,240,0,1,,,,,,,,,,,,,,,0,,,74,0
221280,note_on,0,0,1,,,,,,,,,,,,,,,0,,,67,0
221280,note_on,0,0,1,,,,,,,,,,,,,,,0,,,62,0
221280,note_on,0,0,1,,,,,,,,,,,,,,,0,,,71,0
221280,note_on,0,0,1,,,,,,,,,,,,,,,0,,,79,85
221280,note_on,176,0,2,,,,,,,,,,,,,,,0,,,65,69
221280,note_on,0,0,2,,,,,,,,,,,,,,,0,,,53,58
221280,note_on,0,0,1,,,,,,,,,,,,,,,0,,,71,72
221280,note_on,0,0,1,,,,,,,,,,,,,,,0,,,74,72
221308,control_change,28,0,2,,,,,,,,,,,,,,,0,64,0,,
221400,note_on,0,0,2,,,,,,,,,,,,,,,0,,,65,0
221400,note_on,0,0,1,,,,,,,,,,,,,,,0,,,67,0
221400,note_on,0,0,1,,,,,,,,,,,,,,,0,,,74,0
221400,note_on,0,0,1,,,,,,,,,,,,,,,0,,,79,0
221400,note_on,120,0,1,,,,,,,,,,,,,,,0,,,71,0
221400,note_on,92,0,2,,,,,,,,,,,,,,,0,,,53,0
221520,set_tempo,240,1,0,,,,,,,,,,,,428571,,,,,,,
221520,note_on,0,0,2,,,,,,,,,,,,,,,0,,,41,52
221520,note_on,120,0,2,,,,,,,,,,,,,,,0,,,53,62
221640,note_on,0,0,2,,,,,,,,,,,,,,,0,,,53,0
221640,note_on,120,0,2,,,,,,,,,,,,,,,0,,,41,0
221760,note_on,0,0,1,,,,,,,,,,,,,,,0,,,80,85
221760,note_on,360,0,1,,,,,,,,,,,,,,,0,,,71,72
221760,note_on,0,0,1,,,,,,,,,,,,,,,0,,,74,72
221760,note_on,0,0,1,,,,,,,,,,,,,,,0,,,68,72
221760,set_tempo,240,1,0,,,,,,,,,,,,447761,,,,,,,
221824,control_change,184,0,2,,,,,,,,,,,,,,,0,64,127,,
222000,note_on,240,0,1,,,,,,,,,,,,,,,0,,,80,0
222000,note_on,0,0,1,,,,,,,,,,,,,,,0,,,71,0
222000,note_on,0,0,1,,,,,,,,,,,,,,,0,,,68,0
222000,note_on,0,0,1,,,,,,,,,,,,,,,0,,,74,0
222000,note_on,0,0,1,,,,,,,,,,,,,,,0,,,83,85
222000,note_on,0,0,1,,,,,,,,,,,,,,,0,,,80,72
222000,note_on,0,0,1,,,,,,,,,,,,,,,0,,,71,72
222000,note_on,0,0,1,,,,,,,,,,,,,,,0,,,74,72
222000,set_tempo,240,1,0,,,,,,,,,,,,413793,,,,,,,
222000,note_on,0,0,2,,,,,,,,,,,,,,,0,,,52,58
222000,note_on,176,0,2,,,,,,,,,,,,,,,0,,,64,69
222028,control_change,28,0,2,,,,,,,,,,,,,,,0,64,0,,
222120,note_on,0,0,1,,,,,,,,,,,,,,,0,,,80,0
222120,note_on,0,0,2,,,,,,,,,,,,,,,0,,,64,0
222120,note_on,92,0,2,,,,,,,,,,,,,,,0,,,52,0
222120,note_on,0,0,1,,,,,,,,,,,,,,,0,,,83,0
222120,note_on,0,0,1,,,,,,,,,,,,,,,0,,,71,0
222120,note_on,120,0,1,,,,,,,,,,,,,,,0,,,74,0
222240,note_on,120,0,2,,,,,,,,,,,,,,,0,,,52,63
222240,note_on,0,0,2,,,,,,,,,,,,,,,0,,,40,53
222240,set_tempo,240,1,0,,,,,,,,,,,,425532,,,,,,,
222360,note_on,120,0,2,,,,,,,,,,,,,,,0,,,40,0
222360,note_on,0,0,2,,,,,,,,,,,,,,,0,,,52,0
222480,note_on,0,0,1,,,,,,,,,,,,,,,0,,,69,73
222480,note_on,0,0,1,,,,,,,,,,,,,,,0,,,76,73
222480,note_on,0,0,1,,,,,,,,,,,,,,,0,,,81,86
222480,set_tempo,240,1,0,,,,,,,,,,,,446097,,,,,,,
222480,note_on,360,0,1,,,,,,,,,,,,,,,0,,,72,73
222544,control_change,184,0,2,,,,,,,,,,,,,,,0,64,127,,
222720,note_on,240,0,1,,,,,,,,,,,,,,,0,,,81,0
222720,note_on,0,0,1,,,,,,,,,,,,,,,0,,,72,0
222720,note_on,0,0,1,,,,,,,,,,,,,,,0,,,69,0
222720,note_on,0,0,1,,,,,,,,,,,,,,,0,,,76,0
222720,note_on,176,0,2,,,,,,,,,,,,,,,0,,,69,70
222720,note_on,0,0,2,,,,,,,,,,,,,,,0,,,57,59
222720,note_on,0,0,1,,,,,,,,,,,,,,,0,,,81,73
222720,note_on,0,0,1,,,,,,,,,,,,,,,0,,,76,73
222720,note_on,0,0,1,,,,,,,,,,,,,,,0,,,72,73
222720,set_tempo,240,1,0,,,,,,,,,,,,413793,,,,,,,
222720,note_on,0,0,1,,,,,,,,,,,,,,,0,,,84,86
222748,control_change,28,0,2,,,,,,,,,,,,,,,0,64,0,,
222840,note_on,0,0,1,,,,,,,,,,,,,,,0,,,72,0
222840,note_on,92,0,2,,,,,,,,,,,,,,,0,,,57,0
222840,note_on,0,0,1,,,,,,,,,,,,,,,0,,,81,0
222840,note_on,0,0,1,,,,,,,,,,,,,,,0,,,84,0
222840,note_on,120,0,1,,,,,,,,,,,,,,,0,,,76,0
222840,note_on,0,0,2,,,,,,,,,,,,,,,0,,,69,0
222960,note_on,120,0,2,,,,,,,,,,,,,,,0,,,57,63
222960,note_on,0,0,2,,,,,,,,,,,,,,,0,,,45,53
222960,set_tempo,240,1,0,,,,,,,,,,,,425532,,,,,,,
223080,note_on,0,0,2,,,,,,,,,,,,,,,0,,,57,0
223080,note_on,120,0,2,,,,,,,,,,,,,,,0,,,45,0
223200,set_tempo,240,1,0,,,,,,,,,,,,446097,,,,,,,
223200,note_on,0,0,1,,,,,,,,,,,,,,,0,,,76,74
223200,note_on,0,0,1,,,,,,,,,,,,,,,0,,,72,74
223200,note_on,360,0,1,,,,,,,,,,,,,,,0,,,81,87
223200,note_on,0,0,1,,,,,,,,,,,,,,,0,,,69,74
223264,control_change,184,0,2,,,,,,,,,,,,,,,0,64,127,,
223440,note_on,0,0,2,,,,,,,,,,,,,,,0,,,55,60
223440,note_on,176,0,2,,,,,,,,,,,,,,,0,,,67,71
223440,set_tempo,240,1,0,,,,,,,,,,,,412371,,,,,,,
223440,note_on,240,0,1,,,,,,,,,,,,,,,0,,,76,0
223440,note_on,0,0,1,,,,,,,,,,,,,,,0,,,81,0
223440,note_on,0,0,1,,,,,,,,,,,,,,,0,,,72,0
223440,note_on,0,0,1,,,,,,,,,,,,,,,0,,,69,0
223440,note_on,0,0,1,,,,,,,,,,,,,,,0,,,84,88
223440,note_on,0,0,1,,,,,,,,,,,,,,,0,,,81,74
223440,note_on,0,0,1,,,,,,,,,,,,,,,0,,,72,74
223440,note_on,0,0,1,,,,,,,,,,,,,,,0,,,76,74
223468,control_change,28,0,2,,,,,,,,,,,,,,,0,64,0,,
223560,note_on,120,0,1,,,,,,,,,,,,,,,0,,,76,0
223560,note_on,92,0,2,,,,,,,,,,,,,,,0,,,55,0
223560,note_on,0,0,2,,,,,,,,,,,,,,,0,,,67,0
223560,note_on,0,0,1,,,,,,,,,,,,,,,0,,,84,0
223560,note_on,0,0,1,,,,,,,,,,,,,,,0,,,81,0
223560,note_on,0,0,1,,,,,,,,,,,,,,,0,,,72,0
223680,note_on,120,0,2,,,,,,,,,,,,,,,0,,,43,54
223680,note_on,0,0,2,,,,,,,,,,,,,,,0,,,55,64
223680,set_tempo,240,1,0,,,,,,,,,,,,424028,,,,,,,
223800,note_on,120,0,2,,,,,,,,,,,,,,,0,,,55,0
223800,note_on,0,0,2,,,,,,,,,,,,,,,0,,,43,0
223920,note_on,0,0,1,,,,,,,,,,,,,,,0,,,70,75
223920,note_on,0,0,1,,,,,,,,,,,,,,,0,,,82,89
223920,note_on,0,0,1,,,,,,,,,,,,,,,0,,,76,75
223920,note_on,360,0,1,,,,,,,,,,,,,,,0,,,73,75
223920,set_tempo,240,1,0,,,,,,,,,,,,444444,,,,,,,
223984,control_change,184,0,2,,,,,,,,,,,,,,,0,64,127,,
224160,note_on,0,0,1,,,,,,,,,,,,,,,0,,,82,0
224160,note_on,176,0,2,,,,,,,,,,,,,,,0,,,54,60
224160,note_on,0,0,2,,,,,,,,,,,,,,,0,,,66,72
224160,note_on,0,0,1,,,,,,,,,,,,,,,0,,,85,89
224160,set_tempo,240,1,0,,,,,,,,,,,,416667,,,,,,,
224160,note_on,0,0,1,,,,,,,,,,,,,,,0,,,76,75
224160,note_on,0,0,1,,,,,,,,,,,,,,,0,,,73,75
224160,note_on,0,0,1,,,,,,,,,,,,,,,0,,,82,75
224160,note_on,240,0,1,,,,,,,,,,,,,,,0,,,70,0
224160,note_on,0,0,1,,,,,,,,,,,,,,,0,,,73,0
224160,note_on,0,0,1,,,,,,,,,,,,,,,0,,,76,0
224188,control_change,28,0,2,,,,,,,,,,,,,,,0,64,0,,
224280,note_on,0,0,1,,,,,,,,,,,,,,,0,,,85,0
224280,note_on,0,0,2,,,,,,,,,,,,,,,0,,,54,0
224280,note_on,92,0,2,,,,,,,,,,,,,,,0,,,66,0
224280,note_on,120,0,1,,,,,,,,,,,,,,,0,,,76,0
224280,note_on,0,0,1,,,,,,,,,,,,,,,0,,,73,0
224280,note_on,0,0,1,,,,,,,,,,,,,,,0,,,82,0
224400,set_tempo,240,1,0,,,,,,,,,,,,425532,,,,,,,
224400,note_on,0,0,2,,,,,,,,,,,,,,,0,,,42,54
224400,note_on,120,0,2,,,,,,,,,,,,,,,0,,,54,65
224520,note_on,120,0,2,,,,,,,,,,,,,,,0,,,42,0
224520,note_on,0,0,2,,,,,,,,,,,,,,,0,,,54,0
224640,set_tempo,240,1,0,,,,,,,,,,,,446097,,,,,,,
224640,note_on,360,0,1,,,,,,,,,,,,,,,0,,,74,76
224640,note_on,0,0,1,,,,,,,,,,,,,,,0,,,71,76
224640,note_on,0,0,1,,,,,,,,,,,,,,,0,,,83,90
224640,note_on,0,0,1,,,,,,,,,,,,,,,0,,,78,76
224704,control_change,184,0,2,,,,,,,,,,,,,,,0,64,127,,
224880,set_tempo,240,1,0,,,,,,,,,,,,416667,,,,,,,
224880,note_on,0,0,2,,,,,,,,,,,,,,,0,,,47,61
224880,note_on,176,0,2,,,,,,,,,,,,,,,0,,,59,73
224880,note_on,240,0,1,,,,,,,,,,,,,,,0,,,83,0
224880,note_on,0,0,1,,,,,,,,,,,,,,,0,,,74,0
224880,note_on,0,0,1,,,,,,,,,,,,,,,0,,,71,0
224880,note_on,0,0,1,,,,,,,,,,,,,,,0,,,78,0
224880,note_on,0,0,1,,,,,,,,,,,,,,,0,,,83,76
224880,note_on,0,0,1,,,,,,,,,,,,,,,0,,,74,76
224880,note_on,0,0,1,,,,,,,,,,,,,,,0,,,78,76
224880,note_on,0,0,1,,,,,,,,,,,,,,,0,,,86,90
224908,control_change,28,0,2,,,,,,,,,,,,,,,0,64,0,,
225000,note_on,0,0,1,,,,,,,,,,,,,,,0,,,74,0
225000,note_on,92,0,2,,,,,,,,,,,,,,,0,,,47,0
225000,note_on,0,0,1,,,,,,,,,,,,,,,0,,,78,0
225000,note_on,0,0,2,,,,,,,,,,,,,,,0,,,59,0
225000,note_on,0,0,1,,,,,,,,,,,,,,,0,,,83,0
225000,note_on,120,0,1,,,,,,,,,,,,,,,0,,,86,0
225120,set_tempo,240,1,0,,,,,,,,,,,,424028,,,,,,,
225120,note_on,0,0,2,,,,,,,,,,,,,,,0,,,47,66
225120,note_on,120,0,2,,,,,,,,,,,,,,,0,,,35,55
225240,note_on,120,0,2,,,,,,,,,,,,,,,0,,,47,0
225240,note_on,0,0,2,,,,,,,,,,,,,,,0,,,35,0
225360,note_on,0,0,1,,,,,,,,,,,,,,,0,,,83,90
225360,note_on,0,0,1,,,,,,,,,,,,,,,0,,,71,77
225360,note_on,360,0,1,,,,,,,,,,,,,,,0,,,74,77
225360,set_tempo,240,1,0,,,,,,,,,,,,446097,,,,,,,
225360,note_on,0,0,1,,,,,,,,,,,,,,,0,,,78,77
225424,control_change,184,0,2,,,,,,,,,,,,,,,0,64,127,,
225600,note_on,176,0,2,,,,,,,,,,,,,,,0,,,45,62
225600,set_tempo,240,1,0,,,,,,,,,,,,415225,,,,,,,
225600,note_on,0,0,2,,,,,,,,,,,,,,,0,,,57,73
225600,note_on,0,0,1,,,,,,,,,,,,,,,0,,,74,77
225600,note_on,0,0,1,,,,,,,,,,,,,,,0,,,83,77
225600,note_on,0,0,1,,,,,,,,,,,,,,,0,,,86,90
225600,note_on,0,0,1,,,,,,,,,,,,,,,0,,,83,0
225600,note_on,0,0,1,,,,,,,,,,,,,,,0,,,71,0
225600,note_on,0,0,1,,,,,,,,,,,,,,,0,,,74,0
225600,note_on,0,0,1,,,,,,,,,,,,,,,0,,,78,77
225600,note_on,240,0,1,,,,,,,,,,,,,,,0,,,78,0
225628,control_change,28,0,2,,,,,,,,,,,,,,,0,64,0,,
225720,note_on,0,0,1,,,,,,,,,,,,,,,0,,,83,0
225720,note_on,92,0,2,,,,,,,,,,,,,,,0,,,57,0
225720,note_on,0,0,2,,,,,,,,,,,,,,,0,,,45,0
225720,note_on,120,0,1,,,,,,,,,,,,,,,0,,,78,0
225720,note_on,0,0,1,,,,,,,,,,,,,,,0,,,74,0
225720,note_on,0,0,1,,,,,,,,,,,,,,,0,,,86,0
225840,set_tempo,240,1,0,,,,,,,,,,,,422535,,,,,,,
225840,note_on,120,0,2,,,,,,,,,,,,,,,0,,,45,66
225840,note_on,0,0,2,,,,,,,,,,,,,,,0,,,33,56
225960,note_on,120,0,2,,,,,,,,,,,,,,,0,,,33,0
225960,note_on,0,0,2,,,,,,,,,,,,,,,0,,,45,0
226080,set_tempo,240,1,0,,,,,,,,,,,,442804,,,,,,,
226080,note_on,0,0,1,,,,,,,,,,,,,,,0,,,84,91
226080,note_on,0,0,1,,,,,,,,,,,,,,,0,,,72,77
226080,note_on,0,0,1,,,,,,,,,,,,,,,0,,,78,77
226080,note_on,360,0,1,,,,,,,,,,,,,,,0,,,75,77
226144,control_change,184,0,2,,,,,,,,,,,,,,,0,64,127,,
226320,note_on,0,0,1,,,,,,,,,,,,,,,0,,,87,92
226320,note_on,0,0,2,,,,,,,,,,,,,,,0,,,44,63
226320,set_tempo,240,1,0,,,,,,,,,,,,419580,,,,,,,
226320,note_on,240,0,1,,,,,,,,,,,,,,,0,,,84,0
226320,note_on,0,0,1,,,,,,,,,,,,,,,0,,,75,0
226320,note_on,0,0,1,,,,,,,,,,,,,,,0,,,78,0
226320,note_on,0,0,1,,,,,,,,,,,,,,,0,,,72,0
226320,note_on,0,0,1,,,,,,,,,,,,,,,0,,,75,78
226320,note_on,0,0,1,,,,,,,,,,,,,,,0,,,78,78
226320,note_on,0,0,1,,,,,,,,,,,,,,,0,,,84,78
226320,note_on,176,0,2,,,,,,,,,,,,,,,0,,,56,75
226348,control_change,28,0,2,,,,,,,,,,,,,,,0,64,0,,
226440,note_on,92,0,2,,,,,,,,,,,,,,,0,,,44,0
226440,note_on,0,0,1,,,,,,,,,,,,,,,0,,,78,0
226440,note_on,0,0,1,,,,,,,,,,,,,,,0,,,84,0
226440,note_on,0,0,2,,,,,,,,,,,,,,,0,,,56,0
226440,note_on,0,0,1,,,,,,,,,,,,,,,0,,,75,0
226440,note_on,120,0,1,,,,,,,,,,,,,,,0,,,87,0
226560,note_on,0,0,2,,,,,,,,,,,,,,,0,,,32,56
226560,note_on,120,0,2,,,,,,,,,,,,,,,0,,,44,67
226560,set_tempo,240,1,0,,,,,,,,,,,,427046,,,,,,,
226680,note_on,120,0,2,,,,,,,,,,,,,,,0,,,32,0
226680,note_on,0,0,2,,,,,,,,,,,,,,,0,,,44,0
226800,set_tempo,240,1,0,,,,,,,,,,,,451128,,,,,,,
226800,note_on,0,0,1,,,,,,,,,,,,,,,0,,,80,79
226800,note_on,0,0,1,,,,,,,,,,,,,,,0,,,76,79
226800,note_on,0,0,1,,,,,,,,,,,,,,,0,,,85,93
226800,note_on,360,0,1,,,,,,,,,,,,,,,0,,,73,79
226864,control_change,184,0,2,,,,,,,,,,,,,,,0,64,127,,
227040,note_on,0,0,1,,,,,,,,,,,,,,,0,,,80,0
227040,set_tempo,240,1,0,,,,,,,,,,,,425532,,,,,,,
227040,note_on,240,0,1,,,,,,,,,,,,,,,0,,,85,0
227040,note_on,0,0,1,,,,,,,,,,,,,,,0,,,73,0
227040,note_on,0,0,1,,,,,,,,,,,,,,,0,,,76,0
227040,note_on,0,0,1,,,,,,,,,,,,,,,0,,,85,79
227040,note_on,0,0,1,,,,,,,,,,,,,,,0,,,76,79
227040,note_on,0,0,1,,,,,,,,,,,,,,,0,,,80,79
227040,note_on,0,0,2,,,,,,,,,,,,,,,0,,,49,63
227040,note_on,176,0,2,,,,,,,,,,,,,,,0,,,61,75
227040,note_on,0,0,1,,,,,,,,,,,,,,,0,,,88,93
227068,control_change,28,0,2,,,,,,,,,,,,,,,0,64,0,,
227160,note_on,0,0,2,,,,,,,,,,,,,,,0,,,61,0
227160,note_on,0,0,1,,,,,,,,,,,,,,,0,,,85,0
227160,note_on,120,0,1,,,,,,,,,,,,,,,0,,,80,0
227160,note_on,0,0,1,,,,,,,,,,,,,,,0,,,88,0
227160,note_on,0,0,1,,,,,,,,,,,,,,,0,,,76,0
227160,note_on,92,0,2,,,,,,,,,,,,,,,0,,,49,0
227280,note_on,120,0,2,,,,,,,,,,,,,,,0,,,37,57
227280,note_on,0,0,2,,,,,,,,,,,,,,,0,,,49,68
227280,set_tempo,240,1,0,,,,,,,,,,,,431655,,,,,,,
227400,note_on,0,0,2,,,,,,,,,,,,,,,0,,,37,0
227400,note_on,120,0,2,,,,,,,,,,,,,,,0,,,49,0
227520,set_tempo,240,1,0,,,,,,,,,,,,466926,,,,,,,
227520,note_on,0,0,1,,,,,,,,,,,,,,,0,,,73,79
227520,note_on,360,0,1,,,,,,,,,,,,,,,0,,,76,79
227520,note_on,0,0,1,,,,,,,,,,,,,,,0,,,85,94
227520,note_on,0,0,1,,,,,,,,,,,,,,,0,,,80,79
227584,control_change,184,0,2,,,,,,,,,,,,,,,0,64,127,,
227760,set_tempo,240,1,0,,,,,,,,,,,,433213,,,,,,,
227760,note_on,0,0,1,,,,,,,,,,,,,,,0,,,76,79
227760,note_on,176,0,2,,,,,,,,,,,,,,,0,,,59,76
227760,note_on,0,0,2,,,,,,,,,,,,,,,0,,,47,64
227760,note_on,240,0,1,,,,,,,,,,,,,,,0,,,73,0
227760,note_on,0,0,1,,,,,,,,,,,,,,,0,,,76,0
227760,note_on,0,0,1,,,,,,,,,,,,,,,0,,,88,94
227760,note_on,0,0,1,,,,,,,,,,,,,,,0,,,80,79
227760,note_on,0,0,1,,,,,,,,,,,,,,,0,,,85,79
227760,note_on,0,0,1,,,,,,,,,,,,,,,0,,,80,0
227760,note_on,0,0,1,,,,,,,,,,,,,,,0,,,85,0
227788,control_change,28,0,2,,,,,,,,,,,,,,,0,64,0,,
227880,note_on,120,0,1,,,,,,,,,,,,,,,0,,,88,0
227880,note_on,0,0,1,,,,,,,,,,,,,,,0,,,80,0
227880,note_on,0,0,1,,,,,,,,,,,,,,,0,,,85,0
227880,note_on,0,0,1,,,,,,,,,,,,,,,0,,,76,0
227880,note_on,92,0,2,,,,,,,,,,,,,,,0,,,47,0
227880,note_on,0,0,2,,,,,,,,,,,,,,,0,,,59,0
228000,note_on,0,0,2,,,,,,,,,,,,,,,0,,,35,58
228000,set_tempo,240,1,0,,,,,,,,,,,,439560,,,,,,,
228000,note_on,120,0,2,,,,,,,,,,,,,,,0,,,47,69
228120,note_on,0,0,2,,,,,,,,,,,,,,,0,,,47,0
228120,note_on,120,0,2,,,,,,,,,,,,,,,0,,,35,0
228240,set_tempo,240,1,0,,,,,,,,,,,,472441,,,,,,,
228240,note_on,360,0,1,,,,,,,,,,,,,,,0,,,76,80
228240,note_on,0,0,1,,,,,,,,,,,,,,,0,,,85,95
228240,note_on,0,0,1,,,,,,,,,,,,,,,0,,,81,80
228240,note_on,0,0,1,,,,,,,,,,,,,,,0,,,73,80
228304,control_change,184,0,2,,,,,,,,,,,,,,,0,64,127,,
228480,note_on,240,0,1,,,,,,,,,,,,,,,0,,,81,0
228480,note_on,0,0,1,,,,,,,,,,,,,,,0,,,76,0
228480,note_on,0,0,1,,,,,,,,,,,,,,,0,,,76,80
228480,note_on,0,0,1,,,,,,,,,,,,,,,0,,,85,80
228480,note_on,0,0,1,,,,,,,,,,,,,,,0,,,88,95
228480,note_on,0,0,1,,,,,,,,,,,,,,,0,,,81,80
228480,note_on,0,0,1,,,,,,,,,,,,,,,0,,,73,0
228480,note_on,0,0,2,,,,,,,,,,,,,,,0,,,45,64
228480,note_on,176,0,2,,,,,,,,,,,,,,,0,,,57,77
228480,set_tempo,240,1,0,,,,,,,,,,,,434783,,,,,,,
228480,note_on,0,0,1,,,,,,,,,,,,,,,0,,,85,0
228508,control_change,28,0,2,,,,,,,,,,,,,,,0,64,0,,
228600,note_on,0,0,2,,,,,,,,,,,,,,,0,,,57,0
228600,note_on,92,0,2,,,,,,,,,,,,,,,0,,,45,0
228600,note_on,0,0,1,,,,,,,,,,,,,,,0,,,81,0
228600,note_on,0,0,1,,,,,,,,,,,,,,,0,,,85,0
228600,note_on,0,0,1,,,,,,,,,,,,,,,0,,,88,0
228600,note_on,120,0,1,,,,,,,,,,,,,,,0,,,76,0
228720,note_on,0,0,2,,,,,,,,,,,,,,,0,,,45,70
228720,note_on,120,0,2,,,,,,,,,,,,,,,0,,,33,58
228720,set_tempo,240,1,0,,,,,,,,,,,,439560,,,,,,,
228840,note_on,120,0,2,,,,,,,,,,,,,,,0,,,45,0
228840,note_on,0,0,2,,,,,,,,,,,,,,,0,,,33,0
228960,note_on,0,0,1,,,,,,,,,,,,,,,0,,,74,81
228960,note_on,0,0,1,,,,,,,,,,,,,,,0,,,86,96
228960,note_on,0,0,1,,,,,,,,,,,,,,,0,,,77,81
228960,set_tempo,240,1,0,,,,,,,,,,,,517241,,,,,,,
228960,note_on,360,0,1,,,,,,,,,,,,,,,0,,,81,81
229024,control_change,184,0,2,,,,,,,,,,,,,,,0,64,127,,
229200,set_tempo,240,1,0,,,,,,,,,,,,495868,,,,,,,
229200,note_on,176,0,2,,,,,,,,,,,,,,,0,,,57,78
229200,note_on,0,0,2,,,,,,,,,,,,,,,0,,,45,66
229200,note_on,0,0,1,,,,,,,,,,,,,,,0,,,77,82
229200,note_on,0,0,1,,,,,,,,,,,,,,,0,,,86,82
229200,note_on,0,0,1,,,,,,,,,,,,,,,0,,,89,96
229200,note_on,0,0,1,,,,,,,,,,,,,,,0,,,74,0
229200,note_on,0,0,1,,,,,,,,,,,,,,,0,,,81,0
229200,note_on,240,0,1,,,,,,,,,,,,,,,0,,,77,0
229200,note_on,0,0,1,,,,,,,,,,,,,,,0,,,81,82
229200,note_on,0,0,1,,,,,,,,,,,,,,,0,,,86,0
229228,control_change,28,0,2,,,,,,,,,,,,,,,0,64,0,,
229320,note_on,92,0,2,,,,,,,,,,,,,,,0,,,45,0
229320,note_on,0,0,2,,,,,,,,,,,,,,,0,,,57,0
229320,note_on,0,0,1,,,,,,,,,,,,,,,0,,,89,0
229320,note_on,0,0,1,,,,,,,,,,,,,,,0,,,86,0
229320,note_on,120,0,1,,,,,,,,,,,,,,,0,,,77,0
229320,note_on,0,0,1,,,,,,,,,,,,,,,0,,,81,0
229440,note_on,0,0,2,,,,,,,,,,,,,,,0,,,33,70
229440,set_tempo,240,1,0,,,,,,,,,,,,521739,,,,,,,
229440,note_on,120,0,2,,,,,,,,,,,,,,,0,,,45,86
229560,note_on,0,0,2,,,,,,,,,,,,,,,0,,,45,0
229560,note_on,120,0,2,,,,,,,,,,,,,,,0,,,33,0
229680,note_on,120,0,2,,,,,,,,,,,,,,,0,,,33,78
229680,note_on,0,0,2,,,,,,,,,,,,,,,0,,,45,92
229680,control_change,0,0,2,,,,,,,,,,,,,,,0,64,0,,
229680,set_tempo,240,1,0,,,,,,,,,,,,492773,,,,,,,
229680,note_on,360,0,1,,,,,,,,,,,,,,,0,,,84,62
229680,note_on,0,0,1,,,,,,,,,,,,,,,0,,,81,62
229680,note_on,0,0,1,,,,,,,,,,,,,,,0,,,78,62
229680,note_on,0,0,1,,,,,,,,,,,,,,,0,,,90,74
229723,control_change,43,0,2,,,,,,,,,,,,,,,0,64,127,,
229760,note_on,80,0,1,,,,,,,,,,,,,,,0,,,90,0
229760,note_on,0,0,1,,,,,,,,,,,,,,,0,,,87,67
229760,note_on,0,0,1,,,,,,,,,,,,,,,0,,,78,0
229760,note_on,0,0,1,,,,,,,,,,,,,,,0,,,84,0
229760,set_tempo,80,1,0,,,,,,,,,,,,487250,,,,,,,
229760,note_on,0,0,1,,,,,,,,,,,,,,,0,,,81,0
229840,set_tempo,80,1,0,,,,,,,,,,,,485437,,,,,,,
229840,note_on,80,0,1,,,,,,,,,,,,,,,0,,,87,0
229840,note_on,0,0,1,,,,,,,,,,,,,,,0,,,84,66
229920,note_on,80,0,1,,,,,,,,,,,,,,,0,,,84,0
229920,note_on,0,0,1,,,,,,,,,,,,,,,0,,,81,65
229940,set_tempo,100,1,0,,,,,,,,,,,,483637,,,,,,,
230000,note_on,0,0,1,,,,,,,,,,,,,,,0,,,77,65
230000,note_on,80,0,1,,,,,,,,,,,,,,,0,,,81,0
230020,set_tempo,80,1,0,,,,,,,,,,,,481889,,,,,,,
230080,note_on,0,0,1,,,,,,,,,,,,,,,0,,,75,64
230080,note_on,80,0,1,,,,,,,,,,,,,,,0,,,77,0
230120,set_tempo,100,1,0,,,,,,,,,,,,480115,,,,,,,
230160,note_on,0,0,1,,,,,,,,,,,,,,,0,,,72,63
230160,note_on,80,0,1,,,,,,,,,,,,,,,0,,,75,0
230200,set_tempo,80,1,0,,,,,,,,,,,,478354,,,,,,,
230240,note_on,80,0,1,,,,,,,,,,,,,,,0,,,72,0
230240,note_on,0,0,1,,,,,,,,,,,,,,,0,,,69,63
230300,set_tempo,100,1,0,,,,,,,,,,,,476607,,,,,,,
230320,note_on,80,0,1,,,,,,,,,,,,,,,0,,,69,0
230320,note_on,0,0,1,,,,,,,,,,,,,,,0,,,66,63
230380,set_tempo,80,1,0,,,,,,,,,,,,474871,,,,,,,
230400,note_on,80,0,1,,,,,,,,,,,,,,,0,,,66,0
230400,note_on,0,0,1,,,,,,,,,,,,,,,0,,,63,63
230480,note_on,0,0,1,,,,,,,,,,,,,,,0,,,66,62
230480,note_on,80,0,1,,,,,,,,,,,,,,,0,,,63,0
230500,set_tempo,120,1,0,,,,,,,,,,,,476607,,,,,,,
230560,note_on,0,0,1,,,,,,,,,,,,,,,0,,,69,63
230560,note_on,80,0,1,,,,,,,,,,,,,,,0,,,66,0
230600,set_tempo,100,1,0,,,,,,,,,,,,478354,,,,,,,
230640,note_on,0,0,1,,,,,,,,,,,,,,,0,,,72,63
230640,note_on,80,0,1,,,,,,,,,,,,,,,0,,,69,0
230700,set_tempo,100,1,0,,,,,,,,,,,,480115,,,,,,,
230720,note_on,80,0,1,,,,,,,,,,,,,,,0,,,72,0
230720,note_on,0,0,1,,,,,,,,,,,,,,,0,,,75,64
230760,note_on,0,0,2,,,,,,,,,,,,,,,0,,,45,71
230760,note_on,1037,0,2,,,,,,,,,,,,,,,0,,,45,0
230760,note_on,0,0,2,,,,,,,,,,,,,,,0,,,33,0
230760,note_on,0,0,2,,,,,,,,,,,,,,,0,,,57,84
230800,note_on,0,0,1,,,,,,,,,,,,,,,0,,,78,65
230800,note_on,80,0,1,,,,,,,,,,,,,,,0,,,75,0
230820,set_tempo,120,1,0,,,,,,,,,,,,481889,,,,,,,
230880,note_on,0,0,2,,,,,,,,,,,,,,,0,,,57,91
230880,note_on,0,0,2,,,,,,,,,,,,,,,0,,,45,76
230880,note_on,0,0,2,,,,,,,,,,,,,,,0,,,45,0
230880,note_on,120,0,2,,,,,,,,,,,,,,,0,,,57,0
230880,note_on,80,0,1,,,,,,,,,,,,,,,0,,,78,0
230880,note_on,0,0,1,,,,,,,,,,,,,,,0,,,81,66
230920,set_tempo,100,1,0,,,,,,,,,,,,483637,,,,,,,
230960,note_on,0,0,1,,,,,,,,,,,,,,,0,,,84,67
230960,note_on,80,0,1,,,,,,,,,,,,,,,0,,,81,0
231020,set_tempo,100,1,0,,,,,,,,,,,,485437,,,,,,,
231040,set_tempo,20,1,0,,,,,,,,,,,,577812,,,,,,,
231040,note_on,0,0,1,,,,,,,,,,,,,,,0,,,87,70
231040,note_on,80,0,1,,,,,,,,,,,,,,,0,,,84,0
231100,set_tempo,60,1,0,,,,,,,,,,,,492773,,,,,,,
231120,control_change,0,0,2,,,,,,,,,,,,,,,0,64,0,,
231120,note_on,0,0,2,,,,,,,,,,,,,,,0,,,45,90
231120,note_on,0,0,2,,,,,,,,,,,,,,,0,,,33,76
231120,note_on,0,0,2,,,,,,,,,,,,,,,0,,,45,0
231120,note_on,240,0,2,,,,,,,,,,,,,,,0,,,57,0
231120,note_on,80,0,1,,,,,,,,,,,,,,,0,,,87,0
231120,set_tempo,20,1,0,,,,,,,,,,,,490918,,,,,,,
231120,note_on,0,0,1,,,,,,,,,,,,,,,0,,,90,74
231163,control_change,43,0,2,,,,,,,,,,,,,,,0,64,127,,
231200,set_tempo,80,1,0,,,,,,,,,,,,487250,,,,,,,
231200,note_on,80,0,1,,,,,,,,,,,,,,,0,,,90,0
231200,note_on,0,0,1,,,,,,,,,,,,,,,0,,,87,67
231280,note_on,80,0,1,,,,,,,,,,,,,,,0,,,87,0
231280,set_tempo,80,1,0,,,,,,,,,,,,485437,,,,,,,
231280,note_on,0,0,1,,,,,,,,,,,,,,,0,,,84,66
231360,note_on,80,0,1,,,,,,,,,,,,,,,0,,,84,0
231360,note_on,0,0,1,,,,,,,,,,,,,,,0,,,81,65
231380,set_tempo,100,1,0,,,,,,,,,,,,483637,,,,,,,
231440,note_on,80,0,1,,,,,,,,,,,,,,,0,,,81,0
231440,note_on,0,0,1,,,,,,,,,,,,,,,0,,,77,65
231460,set_tempo,80,1,0,,,,,,,,,,,,481889,,,,,,,
231520,note_on,0,0,1,,,,,,,,,,,,,,,0,,,75,64
231520,note_on,80,0,1,,,,,,,,,,,,,,,0,,,77,0
231560,set_tempo,100,1,0,,,,,,,,,,,,480115,,,,,,,
231600,note_on,80,0,1,,,,,,,,,,,,,,,0,,,75,0
231600,note_on,0,0,1,,,,,,,,,,,,,,,0,,,72,63
231640,set_tempo,80,1,0,,,,,,,,,,,,478354,,,,,,,
231680,note_on,0,0,1,,,,,,,,,,,,,,,0,,,69,63
231680,note_on,80,0,1,,,,,,,,,,,,,,,0,,,72,0
231740,set_tempo,100,1,0,,,,,,,,,,,,476607,,,,,,,
231760,note_on,0,0,1,,,,,,,,,,,,,,,0,,,66,63
231760,note_on,80,0,1,,,,,,,,,,,,,,,0,,,69,0
231820,set_tempo,80,1,0,,,,,,,,,,,,474871,,,,,,,
231840,note_on,80,0,1,,,,,,,,,,,,,,,0,,,66,0
231840,note_on,0,0,1,,,,,,,,,,,,,,,0,,,63,63
231920,note_on,80,0,1,,,,,,,,,,,,,,,0,,,63,0
231920,note_on,0,0,1,,,,,,,,,,,,,,,0,,,66,62
231940,set_tempo,120,1,0,,,,,,,,,,,,476607,,,,,,,
232000,note_on,80,0,1,,,,,,,,,,,,,,,0,,,66,0
232000,note_on,0,0,1,,,,,,,,,,,,,,,0,,,69,63
232040,set_tempo,100,1,0,,,,,,,,,,,,478354,,,,,,,
232080,note_on,0,0,1,,,,,,,,,,,,,,,0,,,72,63
232080,note_on,80,0,1,,,,,,,,,,,,,,,0,,,69,0
232140,set_tempo,100,1,0,,,,,,,,,,,,480115,,,,,,,
232160,note_on,0,0,1,,,,,,,,,,,,,,,0,,,75,64
232160,note_on,80,0,1,,,,,,,,,,,,,,,0,,,72,0
232200,note_on,0,0,2,,,,,,,,,,,,,,,0,,,33,0
232200,note_on,1037,0,2,,,,,,,,,,,,,,,0,,,45,0
232200,note_on,0,0,2,,,,,,,,,,,,,,,0,,,45,71
232200,note_on,0,0,2,,,,,,,,,,,,,,,0,,,57,84
232240,note_on,0,0,1,,,,,,,,,,,,,,,0,,,78,65
232240,note_on,80,0,1,,,,,,,,,,,,,,,0,,,75,0
232260,set_tempo,120,1,0,,,,,,,,,,,,481889,,,,,,,
232320,note_on,0,0,1,,,,,,,,,,,,,,,0,,,81,66
232320,note_on,80,0,1,,,,,,,,,,,,,,,0,,,78,0
232320,note_on,0,0,2,,,,,,,,,,,,,,,0,,,45,0
232320,note_on,0,0,2,,,,,,,,,,,,,,,0,,,45,76
232320,note_on,120,0,2,,,,,,,,,,,,,,,0,,,57,0
232320,note_on,0,0,2,,,,,,,,,,,,,,,0,,,57,91
232360,set_tempo,100,1,0,,,,,,,,,,,,483637,,,,,,,
232400,note_on,80,0,1,,,,,,,,,,,,,,,0,,,81,0
232400,note_on,0,0,1,,,,,,,,,,,,,,,0,,,84,67
232460,set_tempo,100,1,0,,,,,,,,,,,,485437,,,,,,,
232480,note_on,0,0,1,,,,,,,,,,,,,,,0,,,87,70
232480,note_on,80,0,1,,,,,,,,,,,,,,,0,,,84,0
232480,set_tempo,20,1,0,,,,,,,,,,,,693642,,,,,,,
232560,note_on,0,0,2,,,,,,,,,,,,,,,0,,,45,0
232560,note_on,240,0,2,,,,,,,,,,,,,,,0,,,57,0
232560,note_on,0,0,2,,,,,,,,,,,,,,,0,,,46,90
232560,note_on,0,0,1,,,,,,,,,,,,,,,0,,,90,74
232560,note_on,80,0,1,,,,,,,,,,,,,,,0,,,87,0
232560,set_tempo,80,1,0,,,,,,,,,,,,492773,,,,,,,
232560,note_on,0,0,2,,,,,,,,,,,,,,,0,,,34,76
232568,control_change,8,0,2,,,,,,,,,,,,,,,0,64,0,,
232603,control_change,35,0,2,,,,,,,,,,,,,,,0,64,127,,
232640,note_on,0,0,1,,,,,,,,,,,,,,,0,,,87,67
232640,set_tempo,80,1,0,,,,,,,,,,,,487250,,,,,,,
232640,note_on,80,0,1,,,,,,,,,,,,,,,0,,,90,0
232720,note_on,80,0,1,,,,,,,,,,,,,,,0,,,87,0
232720,note_on,0,0,1,,,,,,,,,,,,,,,0,,,82,66
232720,set_tempo,80,1,0,,,,,,,,,,,,485437,,,,,,,
232800,note_on,0,0,1,,,,,,,,,,,,,,,0,,,78,65
232800,note_on,80,0,1,,,,,,,,,,,,,,,0,,,82,0
232820,set_tempo,100,1,0,,,,,,,,,,,,483637,,,,,,,
232880,note_on,80,0,1,,,,,,,,,,,,,,,0,,,78,0
232880,note_on,0,0,1,,,,,,,,,,,,,,,0,,,75,65
232900,set_tempo,80,1,0,,,,,,,,,,,,481889,,,,,,,
232960,note_on,80,0,1,,,,,,,,,,,,,,,0,,,75,0
232960,note_on,0,0,1,,,,,,,,,,,,,,,0,,,70,64
233000,set_tempo,100,1,0,,,,,,,,,,,,480115,,,,,,,
233040,note_on,80,0,1,,,,,,,,,,,,,,,0,,,70,0
233040,note_on,0,0,1,,,,,,,,,,,,,,,0,,,66,63
233080,set_tempo,80,1,0,,,,,,,,,,,,478354,,,,,,,
233120,note_on,0,0,1,,,,,,,,,,,,,,,0,,,63,63
233120,note_on,80,0,1,,,,,,,,,,,,,,,0,,,66,0
233180,set_tempo,100,1,0,,,,,,,,,,,,476607,,,,,,,
233200,note_on,80,0,1,,,,,,,,,,,,,,,0,,,63,0
233200,note_on,0,0,1,,,,,,,,,,,,,,,0,,,58,63
233260,set_tempo,80,1,0,,,,,,,,,,,,474871,,,,,,,
233280,note_on,80,0,1,,,,,,,,,,,,,,,0,,,58,0
233280,note_on,0,0,1,,,,,,,,,,,,,,,0,,,54,63
233360,note_on,80,0,1,,,,,,,,,,,,,,,0,,,54,0
233360,note_on,0,0,1,,,,,,,,,,,,,,,0,,,58,62
233380,set_tempo,120,1,0,,,,,,,,,,,,476607,,,,,,,
233440,note_on,80,0,1,,,,,,,,,,,,,,,0,,,58,0
233440,note_on,0,0,1,,,,,,,,,,,,,,,0,,,63,63
233480,set_tempo,100,1,0,,,,,,,,,,,,478354,,,,,,,
233520,note_on,0,0,1,,,,,,,,,,,,,,,0,,,66,63
233520,note_on,80,0,1,,,,,,,,,,,,,,,0,,,63,0
233580,set_tempo,100,1,0,,,,,,,,,,,,480115,,,,,,,
233600,note_on,0,0,1,,,,,,,,,,,,,,,0,,,70,64
233600,note_on,80,0,1,,,,,,,,,,,,,,,0,,,66,0
233640,note_on,0,0,2,,,,,,,,,,,,,,,0,,,58,84
233640,note_on,0,0,2,,,,,,,,,,,,,,,0,,,46,71
233640,note_on,0,0,2,,,,,,,,,,,,,,,0,,,34,0
233640,note_on,1037,0,2,,,,,,,,,,,,,,,0,,,46,0
233680,note_on,80,0,1,,,,,,,,,,,,,,,0,,,70,0
233680,note_on,0,0,1,,,,,,,,,,,,,,,0,,,75,65
233700,set_tempo,120,1,0,,,,,,,,,,,,481889,,,,,,,
233760,note_on,80,0,1,,,,,,,,,,,,,,,0,,,75,0
233760,note_on,0,0,2,,,,,,,,,,,,,,,0,,,58,91
233760,note_on,120,0,2,,,,,,,,,,,,,,,0,,,58,0
233760,note_on,0,0,2,,,,,,,,,,,,,,,0,,,46,0
233760,note_on,0,0,2,,,,,,,,,,,,,,,0,,,46,76
233760,note_on,0,0,1,,,,,,,,,,,,,,,0,,,78,66
233800,set_tempo,100,1,0,,,,,,,,,,,,483637,,,,,,,
233840,note_on,80,0,1,,,,,,,,,,,,,,,0,,,78,0
233840,note_on,0,0,1,,,,,,,,,,,,,,,0,,,82,67
233900,set_tempo,100,1,0,,,,,,,,,,,,485437,,,,,,,
233920,set_tempo,20,1,0,,,,,,,,,,,,613121,,,,,,,
233920,note_on,80,0,1,,,,,,,,,,,,,,,0,,,82,0
233920,note_on,0,0,1,,,,,,,,,,,,,,,0,,,87,70
234000,set_tempo,80,1,0,,,,,,,,,,,,494641,,,,,,,
234000,note_on,80,0,1,,,,,,,,,,,,,,,0,,,87,0
234000,note_on,0,0,2,,,,,,,,,,,,,,,0,,,46,90
234000,note_on,0,0,1,,,,,,,,,,,,,,,0,,,90,74
234000,note_on,0,0,2,,,,,,,,,,,,,,,0,,,46,0
234000,note_on,240,0,2,,,,,,,,,,,,,,,0,,,58,0
234000,note_on,0,0,2,,,,,,,,,,,,,,,0,,,34,76
234008,control_change,8,0,2,,,,,,,,,,,,,,,0,64,0,,
234043,control_change,35,0,2,,,,,,,,,,,,,,,0,64,127,,
234080,note_on,0,0,1,,,,,,,,,,,,,,,0,,,87,67
234080,set_tempo,80,1,0,,,,,,,,,,,,487250,,,,,,,
234080,note_on,80,0,1,,,,,,,,,,,,,,,0,,,90,0
234160,set_tempo,80,1,0,,,,,,,,,,,,485437,,,,,,,
234160,note_on,0,0,1,,,,,,,,,,,,,,,0,,,82,66
234160,note_on,80,0,1,,,,,,,,,,,,,,,0,,,87,0
234240,note_on,80,0,1,,,,,,,,,,,,,,,0,,,82,0
234240,note_on,0,0,1,,,,,,,,,,,,,,,0,,,78,65
234260,set_tempo,100,1,0,,,,,,,,,,,,483637,,,,,,,
234320,note_on,80,0,1,,,,,,,,,,,,,,,0,,,78,0
234320,note_on,0,0,1,,,,,,,,,,,,,,,0,,,75,65
234340,set_tempo,80,1,0,,,,,,,,,,,,481889,,,,,,,
234400,note_on,80,0,1,,,,,,,,,,,,,,,0,,,75,0
234400,note_on,0,0,1,,,,,,,,,,,,,,,0,,,70,64
234440,set_tempo,100,1,0,,,,,,,,,,,,480115,,,,,,,
234480,note_on,80,0,1,,,,,,,,,,,,,,,0,,,70,0
234480,note_on,0,0,1,,,,,,,,,,,,,,,0,,,66,63
234520,set_tempo,80,1,0,,,,,,,,,,,,478354,,,,,,,
234560,note_on,80,0,1,,,,,,,,,,,,,,,0,,,66,0
234560,note_on,0,0,1,,,,,,,,,,,,,,,0,,,63,63
234620,set_tempo,100,1,0,,,,,,,,,,,,476607,,,,,,,
234640,note_on,80,0,1,,,,,,,,,,,,,,,0,,,63,0
234640,note_on,0,0,1,,,,,,,,,,,,,,,0,,,58,63
234700,set_tempo,80,1,0,,,,,,,,,,,,474871,,,,,,,
234720,note_on,80,0,1,,,,,,,,,,,,,,,0,,,58,0
234720,note_on,0,0,1,,,,,,,,,,,,,,,0,,,54,63
234800,note_on,80,0,1,,,,,,,,,,,,,,,0,,,54,0
234800,note_on,0,0,1,,,,,,,,,,,,,,,0,,,58,62
234820,set_tempo,120,1,0,,,,,,,,,,,,476607,,,,,,,
234880,note_on,80,0,1,,,,,,,,,,,,,,,0,,,58,0
234880,note_on,0,0,1,,,,,,,,,,,,,,,0,,,63,63
234920,set_tempo,100,1,0,,,,,,,,,,,,478354,,,,,,,
234960,note_on,0,0,1,,,,,,,,,,,,,,,0,,,66,63
234960,note_on,80,0,1,,,,,,,,,,,,,,,0,,,63,0
235020,set_tempo,100,1,0,,,,,,,,,,,,480115,,,,,,,
235040,note_on,0,0,1,,,,,,,,,,,,,,,0,,,70,64
235040,note_on,80,0,1,,,,,,,,,,,,,,,0,,,66,0
235080,note_on,0,0,2,,,,,,,,,,,,,,,0,,,58,84
235080,note_on,1037,0,2,,,,,,,,,,,,,,,0,,,46,0
235080,note_on,0,0,2,,,,,,,,,,,,,,,0,,,46,71
235080,note_on,0,0,2,,,,,,,,,,,,,,,0,,,34,0
235120,note_on,80,0,1,,,,,,,,,,,,,,,0,,,70,0
235120,note_on,0,0,1,,,,,,,,,,,,,,,0,,,75,65
235140,set_tempo,120,1,0,,,,,,,,,,,,481889,,,,,,,
235200,note_on,0,0,2,,,,,,,,,,,,,,,0,,,58,91
235200,note_on,80,0,1,,,,,,,,,,,,,,,0,,,75,0
235200,note_on,0,0,2,,,,,,,,,,,,,,,0,,,46,0
235200,note_on,0,0,1,,,,,,,,,,,,,,,0,,,78,66
235200,note_on,120,0,2,,,,,,,,,,,,,,,0,,,58,0
235200,note_on,0,0,2,,,,,,,,,,,,,,,0,,,46,76
235240,set_tempo,100,1,0,,,,,,,,,,,,483637,,,,,,,
235280,note_on,0,0,1,,,,,,,,,,,,,,,0,,,82,67
235280,note_on,80,0,1,,,,,,,,,,,,,,,0,,,78,0
235340,set_tempo,100,1,0,,,,,,,,,,,,485437,,,,,,,
235360,set_tempo,20,1,0,,,,,,,,,,,,764331,,,,,,,
235360,note_on,0,0,1,,,,,,,,,,,,,,,0,,,87,70
235360,note_on,80,0,1,,,,,,,,,,,,,,,0,,,82,0
235440,note_on,0,0,1,,,,,,,,,,,,,,,0,,,90,74
235440,note_on,0,0,2,,,,,,,,,,,,,,,0,,,35,79
235440,note_on,0,0,2,,,,,,,,,,,,,,,0,,,47,93
235440,set_tempo,80,1,0,,,,,,,,,,,,492773,,,,,,,
235440,note_on,80,0,1,,,,,,,,,,,,,,,0,,,87,0
235440,note_on,0,0,2,,,,,,,,,,,,,,,0,,,46,0
235440,note_on,240,0,2,,,,,,,,,,,,,,,0,,,58,0
235448,control_change,8,0,2,,,,,,,,,,,,,,,0,64,0,,
235483,control_change,35,0,2,,,,,,,,,,,,,,,0,64,127,,
235520,note_on,80,0,1,,,,,,,,,,,,,,,0,,,90,0
235520,set_tempo,80,1,0,,,,,,,,,,,,487250,,,,,,,
235520,note_on,0,0,1,,,,,,,,,,,,,,,0,,,87,67
235600,note_on,80,0,1,,,,,,,,,,,,,,,0,,,87,0
235600,note_on,0,0,1,,,,,,,,,,,,,,,0,,,81,66
235600,set_tempo,80,1,0,,,,,,,,,,,,485437,,,,,,,
235680,note_on,80,0,1,,,,,,,,,,,,,,,0,,,81,0
235680,note_on,0,0,1,,,,,,,,,,,,,,,0,,,78,65
235700,set_tempo,100,1,0,,,,,,,,,,,,483637,,,,,,,
235760,note_on,0,0,1,,,,,,,,,,,,,,,0,,,75,65
235760,note_on,80,0,1,,,,,,,,,,,,,,,0,,,78,0
235780,set_tempo,80,1,0,,,,,,,,,,,,481889,,,,,,,
235840,note_on,0,0,1,,,,,,,,,,,,,,,0,,,69,64
235840,note_on,80,0,1,,,,,,,,,,,,,,,0,,,75,0
235880,set_tempo,100,1,0,,,,,,,,,,,,480115,,,,,,,
235920,note_on,80,0,1,,,,,,,,,,,,,,,0,,,69,0
235920,note_on,0,0,1,,,,,,,,,,,,,,,0,,,66,63
235960,set_tempo,80,1,0,,,,,,,,,,,,478354,,,,,,,
236000,note_on,0,0,1,,,,,,,,,,,,,,,0,,,63,63
236000,note_on,80,0,1,,,,,,,,,,,,,,,0,,,66,0
236060,set_tempo,100,1,0,,,,,,,,,,,,476607,,,,,,,
236080,note_on,0,0,1,,,,,,,,,,,,,,,0,,,57,63
236080,note_on,80,0,1,,,,,,,,,,,,,,,0,,,63,0
236140,set_tempo,80,1,0,,,,,,,,,,,,474871,,,,,,,
236160,note_on,0,0,1,,,,,,,,,,,,,,,0,,,54,63
236160,note_on,80,0,1,,,,,,,,,,,,,,,0,,,57,0
236240,note_on,0,0,1,,,,,,,,,,,,,,,0,,,57,62
236240,note_on,80,0,1,,,,,,,,,,,,,,,0,,,54,0
236260,set_tempo,120,1,0,,,,,,,,,,,,476607,,,,,,,
236320,note_on,80,0,1,,,,,,,,,,,,,,,0,,,57,0
236320,note_on,0,0,1,,,,,,,,,,,,,,,0,,,63,63
236360,set_tempo,100,1,0,,,,,,,,,,,,478354,,,,,,,
236400,note_on,0,0,1,,,,,,,,,,,,,,,0,,,66,63
236400,note_on,80,0,1,,,,,,,,,,,,,,,0,,,63,0
236460,set_tempo,100,1,0,,,,,,,,,,,,480115,,,,,,,
236480,note_on,0,0,1,,,,,,,,,,,,,,,0,,,69,64
236480,note_on,80,0,1,,,,,,,,,,,,,,,0,,,66,0
236520,note_on,0,0,2,,,,,,,,,,,,,,,0,,,35,0
236520,note_on,0,0,2,,,,,,,,,,,,,,,0,,,47,71
236520,note_on,0,0,2,,,,,,,,,,,,,,,0,,,59,84
236520,note_on,1037,0,2,,,,,,,,,,,,,,,0,,,47,0
236560,note_on,0,0,1,,,,,,,,,,,,,,,0,,,75,65
236560,note_on,80,0,1,,,,,,,,,,,,,,,0,,,69,0
236580,set_tempo,120,1,0,,,,,,,,,,,,481889,,,,,,,
236640,note_on,0,0,2,,,,,,,,,,,,,,,0,,,59,91
236640,note_on,0,0,2,,,,,,,,,,,,,,,0,,,47,76
236640,note_on,0,0,2,,,,,,,,,,,,,,,0,,,47,0
236640,note_on,120,0,2,,,,,,,,,,,,,,,0,,,59,0
236640,note_on,80,0,1,,,,,,,,,,,,,,,0,,,75,0
236640,note_on,0,0,1,,,,,,,,,,,,,,,0,,,78,66
236680,set_tempo,100,1,0,,,,,,,,,,,,483637,,,,,,,
236720,note_on,80,0,1,,,,,,,,,,,,,,,0,,,78,0
236720,note_on,0,0,1,,,,,,,,,,,,,,,0,,,81,67
236780,set_tempo,100,1,0,,,,,,,,,,,,485437,,,,,,,
236800,note_on,80,0,1,,,,,,,,,,,,,,,0,,,81,0
236800,set_tempo,20,1,0,,,,,,,,,,,,588235,,,,,,,
236800,note_on,0,0,1,,,,,,,,,,,,,,,0,,,87,70
236860,set_tempo,60,1,0,,,,,,,,,,,,492773,,,,,,,
236880,note_on,80,0,1,,,,,,,,,,,,,,,0,,,87,0
236880,note_on,0,0,2,,,,,,,,,,,,,,,0,,,48,91
236880,note_on,0,0,2,,,,,,,,,,,,,,,0,,,36,76
236880,note_on,0,0,2,,,,,,,,,,,,,,,0,,,47,0
236880,note_on,240,0,2,,,,,,,,,,,,,,,0,,,59,0
236880,set_tempo,20,1,0,,,,,,,,,,,,492773,,,,,,,
236880,note_on,0,0,1,,,,,,,,,,,,,,,0,,,90,74
236888,control_change,8,0,2,,,,,,,,,,,,,,,0,64,0,,
236923,control_change,35,0,2,,,,,,,,,,,,,,,0,64,127,,
236960,note_on,80,0,1,,,,,,,,,,,,,,,0,,,90,0
236960,note_on,0,0,1,,,,,,,,,,,,,,,0,,,86,67
236960,set_tempo,80,1,0,,,,,,,,,,,,487250,,,,,,,
237040,note_on,80,0,1,,,,,,,,,,,,,,,0,,,86,0
237040,note_on,0,0,1,,,,,,,,,,,,,,,0,,,81,66
237040,set_tempo,80,1,0,,,,,,,,,,,,485437,,,,,,,
237120,note_on,0,0,1,,,,,,,,,,,,,,,0,,,78,65
237120,note_on,80,0,1,,,,,,,,,,,,,,,0,,,81,0
237140,set_tempo,100,1,0,,,,,,,,,,,,483637,,,,,,,
237200,note_on,0,0,1,,,,,,,,,,,,,,,0,,,74,65
237200,note_on,80,0,1,,,,,,,,,,,,,,,0,,,78,0
237220,set_tempo,80,1,0,,,,,,,,,,,,481889,,,,,,,
237280,note_on,80,0,1,,,,,,,,,,,,,,,0,,,74,0
237280,note_on,0,0,1,,,,,,,,,,,,,,,0,,,69,64
237320,set_tempo,100,1,0,,,,,,,,,,,,480115,,,,,,,
237360,note_on,0,0,1,,,,,,,,,,,,,,,0,,,66,63
237360,note_on,80,0,1,,,,,,,,,,,,,,,0,,,69,0
237400,set_tempo,80,1,0,,,,,,,,,,,,478354,,,,,,,
237440,note_on,80,0,1,,,,,,,,,,,,,,,0,,,66,0
237440,note_on,0,0,1,,,,,,,,,,,,,,,0,,,62,63
237500,set_tempo,100,1,0,,,,,,,,,,,,476607,,,,,,,
237520,note_on,80,0,1,,,,,,,,,,,,,,,0,,,62,0
237520,note_on,0,0,1,,,,,,,,,,,,,,,0,,,57,63
237580,set_tempo,80,1,0,,,,,,,,,,,,474871,,,,,,,
237600,note_on,0,0,1,,,,,,,,,,,,,,,0,,,54,63
237600,note_on,80,0,1,,,,,,,,,,,,,,,0,,,57,0
237680,note_on,80,0,1,,,,,,,,,,,,,,,0,,,54,0
237680,note_on,0,0,1,,,,,,,,,,,,,,,0,,,57,62
237700,set_tempo,120,1,0,,,,,,,,,,,,476607,,,,,,,
237760,note_on,80,0,1,,,,,,,,,,,,,,,0,,,57,0
237760,note_on,0,0,1,,,,,,,,,,,,,,,0,,,62,63
237800,set_tempo,100,1,0,,,,,,,,,,,,478354,,,,,,,
237840,note_on,0,0,1,,,,,,,,,,,,,,,0,,,66,63
237840,note_on,80,0,1,,,,,,,,,,,,,,,0,,,62,0
237900,set_tempo,100,1,0,,,,,,,,,,,,480115,,,,,,,
237920,note_on,0,0,1,,,,,,,,,,,,,,,0,,,69,64
237920,note_on,80,0,1,,,,,,,,,,,,,,,0,,,66,0
237960,note_on,1037,0,2,,,,,,,,,,,,,,,0,,,48,0
237960,note_on,0,0,2,,,,,,,,,,,,,,,0,,,48,71
237960,note_on,0,0,2,,,,,,,,,,,,,,,0,,,36,0
237960,note_on,0,0,2,,,,,,,,,,,,,,,0,,,60,84
238000,note_on,0,0,1,,,,,,,,,,,,,,,0,,,74,65
238000,note_on,80,0,1,,,,,,,,,,,,,,,0,,,69,0
238020,set_tempo,120,1,0,,,,,,,,,,,,481889,,,,,,,
238080,note_on,0,0,2,,,,,,,,,,,,,,,0,,,60,91
238080,note_on,0,0,1,,,,,,,,,,,,,,,0,,,78,66
238080,note_on,0,0,2,,,,,,,,,,,,,,,0,,,48,0
238080,note_on,0,0,2,,,,,,,,,,,,,,,0,,,48,76
238080,note_on,120,0,2,,,,,,,,,,,,,,,0,,,60,0
238080,note_on,80,0,1,,,,,,,,,,,,,,,0,,,74,0
238120,set_tempo,100,1,0,,,,,,,,,,,,483637,,,,,,,
238160,note_on,80,0,1,,,,,,,,,,,,,,,0,,,78,0
238160,note_on,0,0,1,,,,,,,,,,,,,,,0,,,81,67
238220,set_tempo,100,1,0,,,,,,,,,,,,485437,,,,,,,
238240,note_on,0,0,1,,,,,,,,,,,,,,,0,,,86,70
238240,note_on,80,0,1,,,,,,,,,,,,,,,0,,,81,0
238240,set_tempo,20,1,0,,,,,,,,,,,,596303,,,,,,,
238320,set_tempo,80,1,0,,,,,,,,,,,,490918,,,,,,,
238320,note_on,0,0,2,,,,,,,,,,,,,,,0,,,49,90
238320,note_on,0,0,2,,,,,,,,,,,,,,,0,,,37,76
238320,note_on,0,0,2,,,,,,,,,,,,,,,0,,,48,0
238320,note_on,240,0,2,,,,,,,,,,,,,,,0,,,60,0
238320,note_on,80,0,1,,,,,,,,,,,,,,,0,,,86,0
238320,note_on,0,0,1,,,,,,,,,,,,,,,0,,,93,74
238328,control_change,8,0,2,,,,,,,,,,,,,,,0,64,0,,
238363,control_change,35,0,2,,,,,,,,,,,,,,,0,64,127,,
238400,note_on,80,0,1,,,,,,,,,,,,,,,0,,,93,0
238400,note_on,0,0,1,,,,,,,,,,,,,,,0,,,90,67
238400,set_tempo,80,1,0,,,,,,,,,,,,487250,,,,,,,
238480,set_tempo,80,1,0,,,,,,,,,,,,485437,,,,,,,
238480,note_on,0,0,1,,,,,,,,,,,,,,,0,,,85,66
238480,note_on,80,0,1,,,,,,,,,,,,,,,0,,,90,0
238560,note_on,80,0,1,,,,,,,,,,,,,,,0,,,85,0
238560,note_on,0,0,1,,,,,,,,,,,,,,,0,,,81,65
238580,set_tempo,100,1,0,,,,,,,,,,,,483637,,,,,,,
238640,note_on,80,0,1,,,,,,,,,,,,,,,0,,,81,0
238640,note_on,0,0,1,,,,,,,,,,,,,,,0,,,78,65
238660,set_tempo,80,1,0,,,,,,,,,,,,481889,,,,,,,
238720,note_on,80,0,1,,,,,,,,,,,,,,,0,,,78,0
238720,note_on,0,0,1,,,,,,,,,,,,,,,0,,,73,64
238760,set_tempo,100,1,0,,,,,,,,,,,,480115,,,,,,,
238800,note_on,80,0,1,,,,,,,,,,,,,,,0,,,73,0
238800,note_on,0,0,1,,,,,,,,,,,,,,,0,,,69,63
238840,set_tempo,80,1,0,,,,,,,,,,,,478354,,,,,,,
238880,note_on,80,0,1,,,,,,,,,,,,,,,0,,,69,0
238880,note_on,0,0,1,,,,,,,,,,,,,,,0,,,66,63
238940,set_tempo,100,1,0,,,,,,,,,,,,476607,,,,,,,
238960,note_on,80,0,1,,,,,,,,,,,,,,,0,,,66,0
238960,note_on,0,0,1,,,,,,,,,,,,,,,0,,,61,63
239020,set_tempo,80,1,0,,,,,,,,,,,,474871,,,,,,,
239040,note_on,80,0,1,,,,,,,,,,,,,,,0,,,61,0
239040,note_on,0,0,1,,,,,,,,,,,,,,,0,,,57,63
239120,note_on,80,0,1,,,,,,,,,,,,,,,0,,,57,0
239120,note_on,0,0,1,,,,,,,,,,,,,,,0,,,61,62
239140,set_tempo,120,1,0,,,,,,,,,,,,476607,,,,,,,
239200,note_on,0,0,1,,,,,,,,,,,,,,,0,,,66,63
239200,note_on,80,0,1,,,,,,,,,,,,,,,0,,,61,0
239240,set_tempo,100,1,0,,,,,,,,,,,,478354,,,,,,,
239280,note_on,0,0,1,,,,,,,,,,,,,,,0,,,69,63
239280,note_on,80,0,1,,,,,,,,,,,,,,,0,,,66,0
239340,set_tempo,100,1,0,,,,,,,,,,,,480115,,,,,,,
239360,note_on,80,0,1,,,,,,,,,,,,,,,0,,,69,0
239360,note_on,0,0,1,,,,,,,,,,,,,,,0,,,73,64
239400,note_on,0,0,2,,,,,,,,,,,,,,,0,,,49,71
239400,note_on,0,0,2,,,,,,,,,,,,,,,0,,,37,0
239400,note_on,1037,0,2,,,,,,,,,,,,,,,0,,,49,0
239400,note_on,0,0,2,,,,,,,,,,,,,,,0,,,61,84
239440,note_on,0,0,1,,,,,,,,,,,,,,,0,,,78,65
239440,note_on,80,0,1,,,,,,,,,,,,,,,0,,,73,0
239460,set_tempo,120,1,0,,,,,,,,,,,,481889,,,,,,,
239520,note_on,0,0,2,,,,,,,,,,,,,,,0,,,61,91
239520,note_on,80,0,1,,,,,,,,,,,,,,,0,,,78,0
239520,note_on,0,0,2,,,,,,,,,,,,,,,0,,,49,76
239520,note_on,0,0,2,,,,,,,,,,,,,,,0,,,49,0
239520,note_on,120,0,2,,,,,,,,,,,,,,,0,,,61,0
239520,note_on,0,0,1,,,,,,,,,,,,,,,0,,,81,66
239560,set_tempo,100,1,0,,,,,,,,,,,,483637,,,,,,,
239600,note_on,0,0,1,,,,,,,,,,,,,,,0,,,85,67
239600,note_on,80,0,1,,,,,,,,,,,,,,,0,,,81,0
239660,set_tempo,100,1,0,,,,,,,,,,,,485437,,,,,,,
239680,set_tempo,20,1,0,,,,,,,,,,,,596303,,,,,,,
239680,note_on,0,0,1,,,,,,,,,,,,,,,0,,,90,70
239680,note_on,80,0,1,,,,,,,,,,,,,,,0,,,85,0
239760,note_on,0,0,1,,,,,,,,,,,,,,,0,,,93,74
239760,note_on,80,0,1,,,,,,,,,,,,,,,0,,,90,0
239760,note_on,240,0,2,,,,,,,,,,,,,,,0,,,61,0
239760,note_on,0,0,2,,,,,,,,,,,,,,,0,,,49,0
239760,note_on,0,0,2,,,,,,,,,,,,,,,0,,,37,76
239760,note_on,0,0,2,,,,,,,,,,,,,,,0,,,49,90
239760,set_tempo,80,1,0,,,,,,,,,,,,490918,,,,,,,
239768,control_change,8,0,2,,,,,,,,,,,,,,,0,64,0,,
239803,control_change,35,0,2,,,,,,,,,,,,,,,0,64,127,,
239840,note_on,80,0,1,,,,,,,,,,,,,,,0,,,93,0
239840,set_tempo,80,1,0,,,,,,,,,,,,487250,,,,,,,
239840,note_on,0,0,1,,,,,,,,,,,,,,,0,,,91,67
239920,note_on,0,0,1,,,,,,,,,,,,,,,0,,,88,66
239920,note_on,80,0,1,,,,,,,,,,,,,,,0,,,91,0
239920,set_tempo,80,1,0,,,,,,,,,,,,485437,,,,,,,
240000,note_on,80,0,1,,,,,,,,,,,,,,,0,,,88,0
240000,note_on,0,0,1,,,,,,,,,,,,,,,0,,,81,65
240020,set_tempo,100,1,0,,,,,,,,,,,,483637,,,,,,,
240080,note_on,80,0,1,,,,,,,,,,,,,,,0,,,81,0
240080,note_on,0,0,1,,,,,,,,,,,,,,,0,,,79,65
240100,set_tempo,80,1,0,,,,,,,,,,,,481889,,,,,,,
240160,note_on,80,0,1,,,,,,,,,,,,,,,0,,,79,0
240160,note_on,0,0,1,,,,,,,,,,,,,,,0,,,76,64
240200,set_tempo,100,1,0,,,,,,,,,,,,480115,,,,,,,
240240,note_on,80,0,1,,,,,,,,,,,,,,,0,,,76,0
240240,note_on,0,0,1,,,,,,,,,,,,,,,0,,,69,63
240280,set_tempo,80,1,0,,,,,,,,,,,,478354,,,,,,,
240320,note_on,80,0,1,,,,,,,,,,,,,,,0,,,69,0
240320,note_on,0,0,1,,,,,,,,,,,,,,,0,,,67,63
240380,set_tempo,100,1,0,,,,,,,,,,,,476607,,,,,,,
240400,note_on,0,0,1,,,,,,,,,,,,,,,0,,,64,63
240400,note_on,80,0,1,,,,,,,,,,,,,,,0,,,67,0
240460,set_tempo,80,1,0,,,,,,,,,,,,474871,,,,,,,
240480,note_on,80,0,1,,,,,,,,,,,,,,,0,,,64,0
240480,note_on,0,0,1,,,,,,,,,,,,,,,0,,,57,63
240560,note_on,80,0,1,,,,,,,,,,,,,,,0,,,57,0
240560,note_on,0,0,1,,,,,,,,,,,,,,,0,,,64,62
240580,set_tempo,120,1,0,,,,,,,,,,,,476607,,,,,,,
240640,note_on,0,0,1,,,,,,,,,,,,,,,0,,,67,63
240640,note_on,80,0,1,,,,,,,,,,,,,,,0,,,64,0
240680,set_tempo,100,1,0,,,,,,,,,,,,478354,,,,,,,
240720,note_on,0,0,1,,,,,,,,,,,,,,,0,,,69,63
240720,note_on,80,0,1,,,,,,,,,,,,,,,0,,,67,0
240780,set_tempo,100,1,0,,,,,,,,,,,,480115,,,,,,,
240800,note_on,80,0,1,,,,,,,,,,,,,,,0,,,69,0
240800,note_on,0,0,1,,,,,,,,,,,,,,,0,,,76,64
240840,note_on,0,0,2,,,,,,,,,,,,,,,0,,,61,84
240840,note_on,0,0,2,,,,,,,,,,,,,,,0,,,49,71
240840,note_on,0,0,2,,,,,,,,,,,,,,,0,,,37,0
240840,note_on,1037,0,2,,,,,,,,,,,,,,,0,,,49,0
240880,note_on,80,0,1,,,,,,,,,,,,,,,0,,,76,0
240880,note_on,0,0,1,,,,,,,,,,,,,,,0,,,79,65
240900,set_tempo,120,1,0,,,,,,,,,,,,481889,,,,,,,
240960,note_on,0,0,2,,,,,,,,,,,,,,,0,,,49,76
240960,note_on,0,0,2,,,,,,,,,,,,,,,0,,,61,91
240960,note_on,120,0,2,,,,,,,,,,,,,,,0,,,61,0
240960,note_on,80,0,1,,,,,,,,,,,,,,,0,,,79,0
240960,note_on,0,0,1,,,,,,,,,,,,,,,0,,,81,66
240960,note_on,0,0,2,,,,,,,,,,,,,,,0,,,49,0
241000,set_tempo,100,1,0,,,,,,,,,,,,483637,,,,,,,
241040,note_on,80,0,1,,,,,,,,,,,,,,,0,,,81,0
241040,note_on,0,0,1,,,,,,,,,,,,,,,0,,,85,67
241100,set_tempo,100,1,0,,,,,,,,,,,,485437,,,,,,,
241120,note_on,80,0,1,,,,,,,,,,,,,,,0,,,85,0
241120,note_on,0,0,1,,,,,,,,,,,,,,,0,,,88,70
241120,set_tempo,20,1,0,,,,,,,,,,,,895522,,,,,,,
241200,note_on,80,0,1,,,,,,,,,,,,,,,0,,,88,0
241200,note_on,0,0,1,,,,,,,,,,,,,,,0,,,93,74
241200,set_tempo,80,1,0,,,,,,,,,,,,542299,,,,,,,
241200,note_on,240,0,2,,,,,,,,,,,,,,,0,,,61,0
241200,note_on,0,0,2,,,,,,,,,,,,,,,0,,,49,0
241200,note_on,0,0,2,,,,,,,,,,,,,,,0,,,50,90
241200,note_on,0,0,2,,,,,,,,,,,,,,,0,,,38,76
241208,control_change,8,0,2,,,,,,,,,,,,,,,0,64,0,,
241214,set_tempo,14,1,0,,,,,,,,,,,,498339,,,,,,,
241243,control_change,35,0,2,,,,,,,,,,,,,,,0,64,127,,
241260,set_tempo,46,1,0,,,,,,,,,,,,496401,,,,,,,
241280,note_on,80,0,1,,,,,,,,,,,,,,,0,,,93,0
241280,note_on,0,0,1,,,,,,,,,,,,,,,0,,,89,67
241300,set_tempo,40,1,0,,,,,,,,,,,,494519,,,,,,,
241340,set_tempo,40,1,0,,,,,,,,,,,,492651,,,,,,,
241360,note_on,0,0,1,,,,,,,,,,,,,,,0,,,86,66
241360,note_on,80,0,1,,,,,,,,,,,,,,,0,,,89,0
241380,set_tempo,40,1,0,,,,,,,,,,,,490757,,,,,,,
241420,set_tempo,40,1,0,,,,,,,,,,,,488918,,,,,,,
241440,note_on,0,0,1,,,,,,,,,,,,,,,0,,,81,65
241440,note_on,80,0,1,,,,,,,,,,,,,,,0,,,86,0
241460,set_tempo,40,1,0,,,,,,,,,,,,487092,,,,,,,
241500,set_tempo,40,1,0,,,,,,,,,,,,485241,,,,,,,
241520,note_on,0,0,1,,,,,,,,,,,,,,,0,,,77,65
241520,note_on,80,0,1,,,,,,,,,,,,,,,0,,,81,0
241540,set_tempo,40,1,0,,,,,,,,,,,,483442,,,,,,,
241560,note_on,0,0,2,,,,,,,,,,,,,,,0,,,62,84
241560,note_on,0,0,2,,,,,,,,,,,,,,,0,,,50,71
241560,note_on,0,0,2,,,,,,,,,,,,,,,0,,,38,0
241560,note_on,317,0,2,,,,,,,,,,,,,,,0,,,50,0
241580,set_tempo,40,1,0,,,,,,,,,,,,485241,,,,,,,
241600,note_on,80,0,1,,,,,,,,,,,,,,,0,,,77,0
241600,note_on,0,0,1,,,,,,,,,,,,,,,0,,,74,64
241600,set_tempo,20,1,0,,,,,,,,,,,,487092,,,,,,,
241620,set_tempo,20,1,0,,,,,,,,,,,,488918,,,,,,,
241660,set_tempo,40,1,0,,,,,,,,,,,,490757,,,,,,,
241680,note_on,0,0,2,,,,,,,,,,,,,,,0,,,62,91
241680,note_on,0,0,2,,,,,,,,,,,,,,,0,,,50,76
241680,note_on,120,0,2,,,,,,,,,,,,,,,0,,,62,0
241680,note_on,0,0,2,,,,,,,,,,,,,,,0,,,50,0
241680,note_on,0,0,1,,,,,,,,,,,,,,,0,,,69,63
241680,note_on,80,0,1,,,,,,,,,,,,,,,0,,,74,0
241680,set_tempo,20,1,0,,,,,,,,,,,,492651,,,,,,,
241700,set_tempo,20,1,0,,,,,,,,,,,,494519,,,,,,,
241740,set_tempo,40,1,0,,,,,,,,,,,,496401,,,,,,,
241760,note_on,0,0,1,,,,,,,,,,,,,,,0,,,65,63
241760,note_on,80,0,1,,,,,,,,,,,,,,,0,,,69,0
241760,set_tempo,20,1,0,,,,,,,,,,,,498339,,,,,,,
241780,set_tempo,20,1,0,,,,,,,,,,,,500250,,,,,,,
241800,set_tempo,20,1,0,,,,,,,,,,,,502176,,,,,,,
241808,set_tempo,8,1,0,,,,,,,,,,,,488918,,,,,,,
241820,set_tempo,12,1,0,,,,,,,,,,,,490757,,,,,,,
241840,set_tempo,20,1,0,,,,,,,,,,,,916031,,,,,,,
241840,note_on,80,0,1,,,,,,,,,,,,,,,0,,,65,0
241840,note_on,0,0,1,,,,,,,,,,,,,,,0,,,62,63
241900,set_tempo,60,1,0,,,,,,,,,,,,500250,,,,,,,
241920,note_on,240,0,2,,,,,,,,,,,,,,,0,,,62,0
241920,note_on,0,0,2,,,,,,,,,,,,,,,0,,,50,0
241920,note_on,0,0,2,,,,,,,,,,,,,,,0,,,35,76
241920,note_on,0,0,2,,,,,,,,,,,,,,,0,,,47,90
241920,note_on,80,0,1,,,,,,,,,,,,,,,0,,,62,0
241920,note_on,0,0,1,,,,,,,,,,,,,,,0,,,91,74
241928,control_change,8,0,2,,,,,,,,,,,,,,,0,64,0,,
241960,set_tempo,60,1,0,,,,,,,,,,,,498339,,,,,,,
241963,control_change,35,0,2,,,,,,,,,,,,,,,0,64,127,,
242000,note_on,80,0,1,,,,,,,,,,,,,,,0,,,91,0
242000,note_on,0,0,1,,,,,,,,,,,,,,,0,,,89,67
242020,set_tempo,60,1,0,,,,,,,,,,,,496401,,,,,,,
242060,set_tempo,40,1,0,,,,,,,,,,,,494519,,,,,,,
242080,note_on,80,0,1,,,,,,,,,,,,,,,0,,,89,0
242080,note_on,0,0,1,,,,,,,,,,,,,,,0,,,86,66
242120,set_tempo,60,1,0,,,,,,,,,,,,492651,,,,,,,
242160,set_tempo,40,1,0,,,,,,,,,,,,490757,,,,,,,
242160,note_on,0,0,1,,,,,,,,,,,,,,,0,,,79,65
242160,note_on,80,0,1,,,,,,,,,,,,,,,0,,,86,0
242220,set_tempo,60,1,0,,,,,,,,,,,,488918,,,,,,,
242240,note_on,0,0,1,,,,,,,,,,,,,,,0,,,77,65
242240,note_on,80,0,1,,,,,,,,,,,,,,,0,,,79,0
242260,set_tempo,40,1,0,,,,,,,,,,,,487092,,,,,,,
242280,note_on,317,0,2,,,,,,,,,,,,,,,0,,,47,0
242280,note_on,0,0,2,,,,,,,,,,,,,,,0,,,35,0
242280,note_on,0,0,2,,,,,,,,,,,,,,,0,,,47,71
242280,note_on,0,0,2,,,,,,,,,,,,,,,0,,,59,84
242300,set_tempo,40,1,0,,,,,,,,,,,,488918,,,,,,,
242320,note_on,80,0,1,,,,,,,,,,,,,,,0,,,77,0
242320,note_on,0,0,1,,,,,,,,,,,,,,,0,,,74,64
242320,set_tempo,20,1,0,,,,,,,,,,,,490757,,,,,,,
242340,set_tempo,20,1,0,,,,,,,,,,,,492651,,,,,,,
242380,set_tempo,40,1,0,,,,,,,,,,,,494519,,,,,,,
242400,note_on,80,0,1,,,,,,,,,,,,,,,0,,,74,0
242400,note_on,0,0,1,,,,,,,,,,,,,,,0,,,67,63
242400,note_on,0,0,2,,,,,,,,,,,,,,,0,,,59,91
242400,set_tempo,20,1,0,,,,,,,,,,,,496401,,,,,,,
242400,note_on,0,0,2,,,,,,,,,,,,,,,0,,,47,0
242400,note_on,0,0,2,,,,,,,,,,,,,,,0,,,47,76
242400,note_on,120,0,2,,,,,,,,,,,,,,,0,,,59,0
242420,set_tempo,20,1,0,,,,,,,,,,,,498339,,,,,,,
242440,set_tempo,20,1,0,,,,,,,,,,,,500250,,,,,,,
242480,note_on,80,0,1,,,,,,,,,,,,,,,0,,,67,0
242480,note_on,0,0,1,,,,,,,,,,,,,,,0,,,65,63
242480,set_tempo,40,1,0,,,,,,,,,,,,502176,,,,,,,
242500,set_tempo,20,1,0,,,,,,,,,,,,504117,,,,,,,
242520,set_tempo,20,1,0,,,,,,,,,,,,506116,,,,,,,
242540,set_tempo,20,1,0,,,,,,,,,,,,508087,,,,,,,
242560,set_tempo,20,1,0,,,,,,,,,,,,888889,,,,,,,
242560,note_on,80,0,1,,,,,,,,,,,,,,,0,,,65,0
242560,note_on,0,0,1,,,,,,,,,,,,,,,0,,,62,63
242640,note_on,240,0,2,,,,,,,,,,,,,,,0,,,59,0
242640,note_on,0,0,1,,,,,,,,,,,,,,,0,,,91,74
242640,set_tempo,80,1,0,,,,,,,,,,,,496401,,,,,,,
242640,note_on,0,0,2,,,,,,,,,,,,,,,0,,,47,0
242640,note_on,80,0,1,,,,,,,,,,,,,,,0,,,62,0
242640,note_on,0,0,2,,,,,,,,,,,,,,,0,,,36,76
242640,note_on,0,0,2,,,,,,,,,,,,,,,0,,,48,90
242648,control_change,8,0,2,,,,,,,,,,,,,,,0,64,0,,
242683,control_change,35,0,2,,,,,,,,,,,,,,,0,64,127,,
242700,set_tempo,60,1,0,,,,,,,,,,,,494519,,,,,,,
242720,note_on,0,0,1,,,,,,,,,,,,,,,0,,,88,67
242720,note_on,80,0,1,,,,,,,,,,,,,,,0,,,91,0
242760,set_tempo,60,1,0,,,,,,,,,,,,492651,,,,,,,
242800,set_tempo,40,1,0,,,,,,,,,,,,490757,,,,,,,
242800,note_on,0,0,1,,,,,,,,,,,,,,,0,,,84,66
242800,note_on,80,0,1,,,,,,,,,,,,,,,0,,,88,0
242860,set_tempo,60,1,0,,,,,,,,,,,,488918,,,,,,,
242880,note_on,80,0,1,,,,,,,,,,,,,,,0,,,84,0
242880,note_on,0,0,1,,,,,,,,,,,,,,,0,,,79,65
242920,set_tempo,60,1,0,,,,,,,,,,,,487092,,,,,,,
242960,note_on,80,0,1,,,,,,,,,,,,,,,0,,,79,0
242960,note_on,0,0,1,,,,,,,,,,,,,,,0,,,76,65
242960,set_tempo,40,1,0,,,,,,,,,,,,485241,,,,,,,
243000,note_on,0,0,2,,,,,,,,,,,,,,,0,,,60,84
243000,note_on,0,0,2,,,,,,,,,,,,,,,0,,,36,0
243000,note_on,0,0,2,,,,,,,,,,,,,,,0,,,48,71
243000,note_on,317,0,2,,,,,,,,,,,,,,,0,,,48,0
243000,set_tempo,40,1,0,,,,,,,,,,,,487092,,,,,,,
243020,set_tempo,20,1,0,,,,,,,,,,,,488918,,,,,,,
243040,note_on,80,0,1,,,,,,,,,,,,,,,0,,,76,0
243040,note_on,0,0,1,,,,,,,,,,,,,,,0,,,72,64
243060,set_tempo,40,1,0,,,,,,,,,,,,490757,,,,,,,
243080,set_tempo,20,1,0,,,,,,,,,,,,492651,,,,,,,
243120,set_tempo,40,1,0,,,,,,,,,,,,494519,,,,,,,
243120,note_on,0,0,2,,,,,,,,,,,,,,,0,,,60,91
243120,note_on,80,0,1,,,,,,,,,,,,,,,0,,,72,0
243120,note_on,0,0,1,,,,,,,,,,,,,,,0,,,67,63
243120,note_on,0,0,2,,,,,,,,,,,,,,,0,,,48,76
243120,note_on,0,0,2,,,,,,,,,,,,,,,0,,,48,0
243120,note_on,120,0,2,,,,,,,,,,,,,,,0,,,60,0
243140,set_tempo,20,1,0,,,,,,,,,,,,496401,,,,,,,
243180,set_tempo,40,1,0,,,,,,,,,,,,498339,,,,,,,
243200,note_on,80,0,1,,,,,,,,,,,,,,,0,,,67,0
243200,set_tempo,20,1,0,,,,,,,,,,,,500250,,,,,,,
243200,note_on,0,0,1,,,,,,,,,,,,,,,0,,,64,63
243240,set_tempo,40,1,0,,,,,,,,,,,,502176,,,,,,,
243260,set_tempo,20,1,0,,,,,,,,,,,,504117,,,,,,,
243280,set_tempo,20,1,0,,,,,,,,,,,,863309,,,,,,,
243280,note_on,0,0,1,,,,,,,,,,,,,,,0,,,60,63
243280,note_on,80,0,1,,,,,,,,,,,,,,,0,,,64,0
243360,note_on,0,0,1,,,,,,,,,,,,,,,0,,,96,74
243360,note_on,80,0,1,,,,,,,,,,,,,,,0,,,60,0
243360,note_on,240,0,2,,,,,,,,,,,,,,,0,,,60,0
243360,note_on,0,0,2,,,,,,,,,,,,,,,0,,,48,0
243360,set_tempo,80,1,0,,,,,,,,,,,,504117,,,,,,,
243360,note_on,0,0,2,,,,,,,,,,,,,,,0,,,33,76
243360,note_on,0,0,2,,,,,,,,,,,,,,,0,,,45,90
243368,control_change,8,0,2,,,,,,,,,,,,,,,0,64,0,,
243403,control_change,35,0,2,,,,,,,,,,,,,,,0,64,127,,
243420,set_tempo,60,1,0,,,,,,,,,,,,502176,,,,,,,
243440,note_on,0,0,1,,,,,,,,,,,,,,,0,,,93,67
243440,note_on,80,0,1,,,,,,,,,,,,,,,0,,,96,0
243460,set_tempo,40,1,0,,,,,,,,,,,,500250,,,,,,,
243500,set_tempo,40,1,0,,,,,,,,,,,,498339,,,,,,,
243520,note_on,0,0,1,,,,,,,,,,,,,,,0,,,88,66
243520,note_on,80,0,1,,,,,,,,,,,,,,,0,,,93,0
243540,set_tempo,40,1,0,,,,,,,,,,,,496401,,,,,,,
243580,set_tempo,40,1,0,,,,,,,,,,,,494519,,,,,,,
243600,note_on,80,0,1,,,,,,,,,,,,,,,0,,,88,0
243600,note_on,0,0,1,,,,,,,,,,,,,,,0,,,84,65
243620,set_tempo,40,1,0,,,,,,,,,,,,492651,,,,,,,
243660,set_tempo,40,1,0,,,,,,,,,,,,490757,,,,,,,
243680,note_on,80,0,1,,,,,,,,,,,,,,,0,,,84,0
243680,note_on,0,0,1,,,,,,,,,,,,,,,0,,,81,65
243700,set_tempo,40,1,0,,,,,,,,,,,,488918,,,,,,,
243720,note_on,317,0,2,,,,,,,,,,,,,,,0,,,45,0
243720,note_on,0,0,2,,,,,,,,,,,,,,,0,,,57,84
243720,note_on,0,0,2,,,,,,,,,,,,,,,0,,,45,71
243720,note_on,0,0,2,,,,,,,,,,,,,,,0,,,33,0
243740,set_tempo,40,1,0,,,,,,,,,,,,490757,,,,,,,
243760,note_on,0,0,1,,,,,,,,,,,,,,,0,,,76,64
243760,note_on,80,0,1,,,,,,,,,,,,,,,0,,,81,0
243760,set_tempo,20,1,0,,,,,,,,,,,,492651,,,,,,,
243780,set_tempo,20,1,0,,,,,,,,,,,,494519,,,,,,,
243820,set_tempo,40,1,0,,,,,,,,,,,,496401,,,,,,,
243840,note_on,0,0,2,,,,,,,,,,,,,,,0,,,57,91
243840,note_on,0,0,1,,,,,,,,,,,,,,,0,,,72,63
243840,note_on,80,0,1,,,,,,,,,,,,,,,0,,,76,0
243840,set_tempo,20,1,0,,,,,,,,,,,,498339,,,,,,,
243840,note_on,0,0,2,,,,,,,,,,,,,,,0,,,45,0
243840,note_on,120,0,2,,,,,,,,,,,,,,,0,,,57,0
243840,note_on,0,0,2,,,,,,,,,,,,,,,0,,,45,76
243860,set_tempo,20,1,0,,,,,,,,,,,,500250,,,,,,,
243880,set_tempo,20,1,0,,,,,,,,,,,,502176,,,,,,,
243920,set_tempo,40,1,0,,,,,,,,,,,,504117,,,,,,,
243920,note_on,80,0,1,,,,,,,,,,,,,,,0,,,72,0
243920,note_on,0,0,1,,,,,,,,,,,,,,,0,,,69,63
243940,set_tempo,20,1,0,,,,,,,,,,,,506116,,,,,,,
243960,set_tempo,20,1,0,,,,,,,,,,,,508087,,,,,,,
243980,set_tempo,20,1,0,,,,,,,,,,,,510074,,,,,,,
244000,set_tempo,20,1,0,,,,,,,,,,,,1090909,,,,,,,
244000,note_on,0,0,1,,,,,,,,,,,,,,,0,,,64,63
244000,note_on,80,0,1,,,,,,,,,,,,,,,0,,,69,0
244080,set_tempo,80,1,0,,,,,,,,,,,,487092,,,,,,,
244080,note_on,0,0,1,,,,,,,,,,,,,,,0,,,93,74
244080,note_on,0,0,2,,,,,,,,,,,,,,,0,,,41,90
244080,note_on,0,0,2,,,,,,,,,,,,,,,0,,,29,76
244080,note_on,0,0,2,,,,,,,,,,,,,,,0,,,45,0
244080,note_on,240,0,2,,,,,,,,,,,,,,,0,,,57,0
244080,note_on,80,0,1,,,,,,,,,,,,,,,0,,,64,0
244088,control_change,8,0,2,,,,,,,,,,,,,,,0,64,0,,
244100,set_tempo,20,1,0,,,,,,,,,,,,498339,,,,,,,
244123,control_change,35,0,2,,,,,,,,,,,,,,,0,64,127,,
244140,set_tempo,40,1,0,,,,,,,,,,,,496401,,,,,,,
244160,note_on,0,0,1,,,,,,,,,,,,,,,0,,,86,67
244160,note_on,80,0,1,,,,,,,,,,,,,,,0,,,93,0
244180,set_tempo,40,1,0,,,,,,,,,,,,494519,,,,,,,
244220,set_tempo,40,1,0,,,,,,,,,,,,492651,,,,,,,
244240,note_on,0,0,1,,,,,,,,,,,,,,,0,,,84,66
244240,note_on,80,0,1,,,,,,,,,,,,,,,0,,,86,0
244260,set_tempo,40,1,0,,,,,,,,,,,,490757,,,,,,,
244300,set_tempo,40,1,0,,,,,,,,,,,,488918,,,,,,,
244320,note_on,0,0,1,,,,,,,,,,,,,,,0,,,81,65
244320,note_on,80,0,1,,,,,,,,,,,,,,,0,,,84,0
244340,set_tempo,40,1,0,,,,,,,,,,,,487092,,,,,,,
244380,set_tempo,40,1,0,,,,,,,,,,,,485241,,,,,,,
244400,note_on,80,0,1,,,,,,,,,,,,,,,0,,,81,0
244400,note_on,0,0,1,,,,,,,,,,,,,,,0,,,74,65
244420,set_tempo,40,1,0,,,,,,,,,,,,487092,,,,,,,
244440,set_tempo,20,1,0,,,,,,,,,,,,488918,,,,,,,
244440,note_on,0,0,2,,,,,,,,,,,,,,,0,,,53,84
244440,note_on,0,0,2,,,,,,,,,,,,,,,0,,,41,71
244440,note_on,0,0,2,,,,,,,,,,,,,,,0,,,29,0
244440,note_on,317,0,2,,,,,,,,,,,,,,,0,,,41,0
244480,set_tempo,40,1,0,,,,,,,,,,,,490757,,,,,,,
244480,note_on,80,0,1,,,,,,,,,,,,,,,0,,,74,0
244480,note_on,0,0,1,,,,,,,,,,,,,,,0,,,72,64
244500,set_tempo,20,1,0,,,,,,,,,,,,492651,,,,,,,
244540,set_tempo,40,1,0,,,,,,,,,,,,494519,,,,,,,
244560,set_tempo,20,1,0,,,,,,,,,,,,496401,,,,,,,
244560,note_on,0,0,1,,,,,,,,,,,,,,,0,,,69,63
244560,note_on,80,0,1,,,,,,,,,,,,,,,0,,,72,0
244560,note_on,120,0,2,,,,,,,,,,,,,,,0,,,53,0
244560,note_on,0,0,2,,,,,,,,,,,,,,,0,,,41,0
244560,note_on,0,0,2,,,,,,,,,,,,,,,0,,,41,76
244560,note_on,0,0,2,,,,,,,,,,,,,,,0,,,53,91
244600,set_tempo,40,1,0,,,,,,,,,,,,498339,,,,,,,
244620,set_tempo,20,1,0,,,,,,,,,,,,500250,,,,,,,
244640,note_on,80,0,1,,,,,,,,,,,,,,,0,,,69,0
244640,note_on,0,0,1,,,,,,,,,,,,,,,0,,,62,63
244660,set_tempo,40,1,0,,,,,,,,,,,,502176,,,,,,,
244680,set_tempo,20,1,0,,,,,,,,,,,,504117,,,,,,,
244700,set_tempo,20,1,0,,,,,,,,,,,,506116,,,,,,,
244720,set_tempo,20,1,0,,,,,,,,,,,,863309,,,,,,,
244720,note_on,0,0,1,,,,,,,,,,,,,,,0,,,60,63
244720,note_on,80,0,1,,,,,,,,,,,,,,,0,,,62,0
244800,note_on,0,0,2,,,,,,,,,,,,,,,0,,,41,0
244800,note_on,0,0,1,,,,,,,,,,,,,,,0,,,91,74
244800,note_on,80,0,1,,,,,,,,,,,,,,,0,,,60,0
244800,set_tempo,80,1,0,,,,,,,,,,,,498339,,,,,,,
244800,note_on,240,0,2,,,,,,,,,,,,,,,0,,,53,0
244800,note_on,0,0,2,,,,,,,,,,,,,,,0,,,31,76
244800,note_on,0,0,2,,,,,,,,,,,,,,,0,,,43,90
244808,control_change,8,0,2,,,,,,,,,,,,,,,0,64,0,,
244843,control_change,35,0,2,,,,,,,,,,,,,,,0,64,127,,
244860,set_tempo,60,1,0,,,,,,,,,,,,496401,,,,,,,
244880,note_on,0,0,1,,,,,,,,,,,,,,,0,,,86,67
244880,note_on,80,0,1,,,,,,,,,,,,,,,0,,,91,0
244920,set_tempo,60,1,0,,,,,,,,,,,,494519,,,,,,,
244960,note_on,80,0,1,,,,,,,,,,,,,,,0,,,86,0
244960,note_on,0,0,1,,,,,,,,,,,,,,,0,,,83,66
244980,set_tempo,60,1,0,,,,,,,,,,,,492651,,,,,,,
245040,set_tempo,60,1,0,,,,,,,,,,,,490757,,,,,,,
245040,note_on,80,0,1,,,,,,,,,,,,,,,0,,,83,0
245040,note_on,0,0,1,,,,,,,,,,,,,,,0,,,79,65
245100,set_tempo,60,1,0,,,,,,,,,,,,488918,,,,,,,
245120,note_on,0,0,1,,,,,,,,,,,,,,,0,,,74,65
245120,note_on,80,0,1,,,,,,,,,,,,,,,0,,,79,0
245140,set_tempo,40,1,0,,,,,,,,,,,,487092,,,,,,,
245160,note_on,0,0,2,,,,,,,,,,,,,,,0,,,43,71
245160,note_on,317,0,2,,,,,,,,,,,,,,,0,,,43,0
245160,note_on,0,0,2,,,,,,,,,,,,,,,0,,,31,0
245160,note_on,0,0,2,,,,,,,,,,,,,,,0,,,55,84
245180,set_tempo,40,1,0,,,,,,,,,,,,488918,,,,,,,
245200,note_on,0,0,1,,,,,,,,,,,,,,,0,,,71,64
245200,note_on,80,0,1,,,,,,,,,,,,,,,0,,,74,0
245200,set_tempo,20,1,0,,,,,,,,,,,,490757,,,,,,,
245220,set_tempo,20,1,0,,,,,,,,,,,,492651,,,,,,,
245240,set_tempo,20,1,0,,,,,,,,,,,,494519,,,,,,,
245260,set_tempo,20,1,0,,,,,,,,,,,,496401,,,,,,,
245280,note_on,0,0,1,,,,,,,,,,,,,,,0,,,67,63
245280,note_on,0,0,2,,,,,,,,,,,,,,,0,,,43,0
245280,note_on,80,0,1,,,,,,,,,,,,,,,0,,,71,0
245280,note_on,120,0,2,,,,,,,,,,,,,,,0,,,55,0
245280,note_on,0,0,2,,,,,,,,,,,,,,,0,,,43,76
245280,set_tempo,20,1,0,,,,,,,,,,,,498339,,,,,,,
245280,note_on,0,0,2,,,,,,,,,,,,,,,0,,,55,91
245300,set_tempo,20,1,0,,,,,,,,,,,,500250,,,,,,,
245320,set_tempo,20,1,0,,,,,,,,,,,,502176,,,,,,,
245340,set_tempo,20,1,0,,,,,,,,,,,,504117,,,,,,,
245360,set_tempo,20,1,0,,,,,,,,,,,,506116,,,,,,,
245360,note_on,0,0,1,,,,,,,,,,,,,,,0,,,62,63
245360,note_on,80,0,1,,,,,,,,,,,,,,,0,,,67,0
245380,set_tempo,20,1,0,,,,,,,,,,,,508087,,,,,,,
245400,set_tempo,20,1,0,,,,,,,,,,,,510074,,,,,,,
245420,set_tempo,20,1,0,,,,,,,,,,,,512120,,,,,,,
245440,set_tempo,20,1,0,,,,,,,,,,,,845070,,,,,,,
245440,note_on,80,0,1,,,,,,,,,,,,,,,0,,,62,0
245440,note_on,0,0,1,,,,,,,,,,,,,,,0,,,59,63
245520,note_on,80,0,1,,,,,,,,,,,,,,,0,,,59,0
245520,note_on,0,0,1,,,,,,,,,,,,,,,0,,,75,76
245520,note_on,0,0,1,,,,,,,,,,,,,,,0,,,78,76
245520,note_on,0,0,1,,,,,,,,,,,,,,,0,,,84,76
245520,note_on,0,0,1,,,,,,,,,,,,,,,0,,,87,90
245520,note_on,240,0,2,,,,,,,,,,,,,,,0,,,55,0
245520,set_tempo,80,1,0,,,,,,,,,,,,439560,,,,,,,
245520,note_on,0,0,2,,,,,,,,,,,,,,,0,,,32,81
245520,control_change,0,0,2,,,,,,,,,,,,,,,0,64,0,,
245520,note_on,0,0,2,,,,,,,,,,,,,,,0,,,43,0
245583,control_change,63,0,2,,,,,,,,,,,,,,,0,64,127,,
245640,note_on,0,0,2,,,,,,,,,,,,,,,0,,,44,72
245640,note_on,57,0,2,,,,,,,,,,,,,,,0,,,32,0
245760,note_on,0,0,2,,,,,,,,,,,,,,,0,,,36,81
245760,note_on,120,0,2,,,,,,,,,,,,,,,0,,,44,0
245880,note_on,0,0,1,,,,,,,,,,,,,,,0,,,87,84
245880,note_on,0,0,1,,,,,,,,,,,,,,,0,,,78,71
245880,note_on,0,0,1,,,,,,,,,,,,,,,0,,,84,71
245880,note_on,0,0,1,,,,,,,,,,,,,,,0,,,75,71
245880,note_on,0,0,1,,,,,,,,,,,,,,,0,,,84,0
245880,note_on,0,0,2,,,,,,,,,,,,,,,0,,,48,69
245880,note_on,0,0,1,,,,,,,,,,,,,,,0,,,75,0
245880,note_on,360,0,1,,,,,,,,,,,,,,,0,,,87,0
245880,note_on,120,0,2,,,,,,,,,,,,,,,0,,,36,0
245880,note_on,0,0,1,,,,,,,,,,,,,,,0,,,78,0
246000,note_on,0,0,2,,,,,,,,,,,,,,,0,,,32,81
246000,note_on,120,0,2,,,,,,,,,,,,,,,0,,,48,0
246000,note_on,0,0,1,,,,,,,,,,,,,,,0,,,87,91
246000,note_on,0,0,1,,,,,,,,,,,,,,,0,,,84,76
246000,note_on,0,0,1,,,,,,,,,,,,,,,0,,,78,76
246000,note_on,0,0,1,,,,,,,,,,,,,,,0,,,84,0
246000,note_on,0,0,1,,,,,,,,,,,,,,,0,,,78,0
246000,note_on,0,0,1,,,,,,,,,,,,,,,0,,,75,0
246000,note_on,120,0,1,,,,,,,,,,,,,,,0,,,87,0
246000,set_tempo,480,1,0,,,,,,,,,,,,485830,,,,,,,
246000,note_on,0,0,1,,,,,,,,,,,,,,,0,,,75,76
246120,note_on,0,0,2,,,,,,,,,,,,,,,0,,,44,69
246120,note_on,120,0,2,,,,,,,,,,,,,,,0,,,32,0
246240,note_on,0,0,1,,,,,,,,,,,,,,,0,,,78,0
246240,set_tempo,240,1,0,,,,,,,,,,,,439560,,,,,,,
246240,note_on,0,0,1,,,,,,,,,,,,,,,0,,,75,0
246240,note_on,240,0,1,,,,,,,,,,,,,,,0,,,87,0
246240,note_on,0,0,1,,,,,,,,,,,,,,,0,,,75,76
246240,note_on,0,0,1,,,,,,,,,,,,,,,0,,,78,76
246240,note_on,0,0,1,,,,,,,,,,,,,,,0,,,84,76
246240,note_on,0,0,1,,,,,,,,,,,,,,,0,,,87,90
246240,note_on,120,0,2,,,,,,,,,,,,,,,0,,,44,0
246240,note_on,0,0,2,,,,,,,,,,,,,,,0,,,39,81
246240,note_on,0,0,1,,,,,,,,,,,,,,,0,,,84,0
246360,note_on,120,0,2,,,,,,,,,,,,,,,0,,,39,0
246360,note_on,0,0,2,,,,,,,,,,,,,,,0,,,51,72
246480,note_on,120,0,2,,,,,,,,,,,,,,,0,,,51,0
246480,note_on,0,0,2,,,,,,,,,,,,,,,0,,,36,81
246600,note_on,0,0,2,,,,,,,,,,,,,,,0,,,48,69
246600,note_on,120,0,2,,,,,,,,,,,,,,,0,,,36,0
246600,note_on,0,0,1,,,,,,,,,,,,,,,0,,,87,84
246600,note_on,0,0,1,,,,,,,,,,,,,,,0,,,84,71
246600,note_on,0,0,1,,,,,,,,,,,,,,,0,,,78,71
246600,note_on,0,0,1,,,,,,,,,,,,,,,0,,,75,71
246600,note_on,360,0,1,,,,,,,,,,,,,,,0,,,87,0
246600,note_on,0,0,1,,,,,,,,,,,,,,,0,,,75,0
246600,note_on,0,0,1,,,,,,,,,,,,,,,0,,,84,0
246600,note_on,0,0,1,,,,,,,,,,,,,,,0,,,78,0
246720,note_on,0,0,1,,,,,,,,,,,,,,,0,,,75,0
246720,note_on,0,0,2,,,,,,,,,,,,,,,0,,,44,81
246720,note_on,120,0,1,,,,,,,,,,,,,,,0,,,87,0
246720,note_on,120,0,2,,,,,,,,,,,,,,,0,,,48,0
246720,set_tempo,480,1,0,,,,,,,,,,,,485830,,,,,,,
246720,note_on,0,0,1,,,,,,,,,,,,,,,0,,,87,91
246720,note_on,0,0,1,,,,,,,,,,,,,,,0,,,84,76
246720,note_on,0,0,1,,,,,,,,,,,,,,,0,,,78,76
246720,note_on,0,0,1,,,,,,,,,,,,,,,0,,,75,76
246720,note_on,0,0,1,,,,,,,,,,,,,,,0,,,84,0
246720,note_on,0,0,1,,,,,,,,,,,,,,,0,,,78,0
246840,note_on,120,0,2,,,,,,,,,,,,,,,0,,,44,0
246840,note_on,0,0,2,,,,,,,,,,,,,,,0,,,56,69
246960,set_tempo,240,1,0,,,,,,,,,,,,439560,,,,,,,
246960,note_on,0,0,1,,,,,,,,,,,,,,,0,,,84,0
246960,note_on,0,0,2,,,,,,,,,,,,,,,0,,,32,81
246960,control_change,0,0,2,,,,,,,,,,,,,,,0,64,0,,
246960,note_on,0,0,1,,,,,,,,,,,,,,,0,,,87,90
246960,note_on,0,0,1,,,,,,,,,,,,,,,0,,,84,76
246960,note_on,0,0,1,,,,,,,,,,,,,,,0,,,78,76
246960,note_on,0,0,1,,,,,,,,,,,,,,,0,,,75,76
246960,note_on,0,0,1,,,,,,,,,,,,,,,0,,,78,0
246960,note_on,0,0,1,,,,,,,,,,,,,,,0,,,75,0
246960,note_on,240,0,1,,,,,,,,,,,,,,,0,,,87,0
246960,note_on,120,0,2,,,,,,,,,,,,,,,0,,,56,0
247023,control_change,63,0,2,,,,,,,,,,,,,,,0,64,127,,
247080,note_on,0,0,2,,,,,,,,,,,,,,,0,,,44,72
247080,note_on,57,0,2,,,,,,,,,,,,,,,0,,,32,0
247200,note_on,0,0,2,,,,,,,,,,,,,,,0,,,39,81
247200,note_on,120,0,2,,,,,,,,,,,,,,,0,,,44,0
247320,note_on,0,0,1,,,,,,,,,,,,,,,0,,,78,71
247320,note_on,0,0,1,,,,,,,,,,,,,,,0,,,87,84
247320,note_on,0,0,2,,,,,,,,,,,,,,,0,,,51,69
247320,note_on,360,0,1,,,,,,,,,,,,,,,0,,,87,0
247320,note_on,0,0,1,,,,,,,,,,,,,,,0,,,75,0
247320,note_on,0,0,1,,,,,,,,,,,,,,,0,,,78,0
247320,note_on,0,0,1,,,,,,,,,,,,,,,0,,,84,0
247320,note_on,120,0,2,,,,,,,,,,,,,,,0,,,39,0
247320,note_on,0,0,1,,,,,,,,,,,,,,,0,,,75,71
247320,note_on,0,0,1,,,,,,,,,,,,,,,0,,,84,71
247440,note_on,0,0,1,,,,,,,,,,,,,,,0,,,87,91
247440,note_on,0,0,1,,,,,,,,,,,,,,,0,,,78,76
247440,note_on,0,0,1,,,,,,,,,,,,,,,0,,,75,76
247440,note_on,0,0,1,,,,,,,,,,,,,,,0,,,84,0
247440,note_on,0,0,1,,,,,,,,,,,,,,,0,,,78,0
247440,note_on,0,0,1,,,,,,,,,,,,,,,0,,,75,0
247440,note_on,120,0,1,,,,,,,,,,,,,,,0,,,87,0
247440,note_on,0,0,1,,,,,,,,,,,,,,,0,,,84,76
247440,note_on,0,0,2,,,,,,,,,,,,,,,0,,,36,81
247440,note_on,120,0,2,,,,,,,,,,,,,,,0,,,51,0
247440,set_tempo,480,1,0,,,,,,,,,,,,485830,,,,,,,
247560,note_on,120,0,2,,,,,,,,,,,,,,,0,,,36,0
247560,note_on,0,0,2,,,,,,,,,,,,,,,0,,,48,69
247680,note_on,0,0,1,,,,,,,,,,,,,,,0,,,87,90
247680,note_on,0,0,1,,,,,,,,,,,,,,,0,,,84,76
247680,note_on,0,0,1,,,,,,,,,,,,,,,0,,,78,76
247680,note_on,0,0,1,,,,,,,,,,,,,,,0,,,75,76
247680,note_on,0,0,1,,,,,,,,,,,,,,,0,,,84,0
247680,note_on,0,0,1,,,,,,,,,,,,,,,0,,,75,0
247680,note_on,240,0,1,,,,,,,,,,,,,,,0,,,87,0
247680,note_on,0,0,1,,,,,,,,,,,,,,,0,,,78,0
247680,note_on,120,0,2,,,,,,,,,,,,,,,0,,,48,0
247680,note_on,0,0,2,,,,,,,,,,,,,,,0,,,44,81
247680,set_tempo,240,1,0,,,,,,,,,,,,439560,,,,,,,
247800,note_on,120,0,2,,,,,,,,,,,,,,,0,,,44,0
247800,note_on,0,0,2,,,,,,,,,,,,,,,0,,,56,72
247920,note_on,120,0,2,,,,,,,,,,,,,,,0,,,56,0
247920,note_on,0,0,2,,,,,,,,,,,,,,,0,,,39,81
248040,note_on,360,0,1,,,,,,,,,,,,,,,0,,,87,0
248040,note_on,0,0,1,,,,,,,,,,,,,,,0,,,75,0
248040,note_on,0,0,2,,,,,,,,,,,,,,,0,,,51,69
248040,note_on,0,0,1,,,,,,,,,,,,,,,0,,,78,0
248040,note_on,120,0,2,,,,,,,,,,,,,,,0,,,39,0
248040,note_on,0,0,1,,,,,,,,,,,,,,,0,,,75,71
248040,note_on,0,0,1,,,,,,,,,,,,,,,0,,,78,71
248040,note_on,0,0,1,,,,,,,,,,,,,,,0,,,84,71
248040,note_on,0,0,1,,,,,,,,,,,,,,,0,,,84,0
248040,note_on,0,0,1,,,,,,,,,,,,,,,0,,,87,84
248160,note_on,0,0,2,,,,,,,,,,,,,,,0,,,48,81
248160,set_tempo,480,1,0,,,,,,,,,,,,485830,,,,,,,
248160,note_on,0,0,1,,,,,,,,,,,,,,,0,,,87,91
248160,note_on,0,0,1,,,,,,,,,,,,,,,0,,,84,76
248160,note_on,120,0,2,,,,,,,,,,,,,,,0,,,51,0
248160,note_on,120,0,1,,,,,,,,,,,,,,,0,,,87,0
248160,note_on,0,0,1,,,,,,,,,,,,,,,0,,,75,0
248160,note_on,0,0,1,,,,,,,,,,,,,,,0,,,78,0
248160,note_on,0,0,1,,,,,,,,,,,,,,,0,,,84,0
248160,note_on,0,0,1,,,,,,,,,,,,,,,0,,,75,76
248160,note_on,0,0,1,,,,,,,,,,,,,,,0,,,78,76
248280,note_on,0,0,2,,,,,,,,,,,,,,,0,,,60,69
248280,note_on,120,0,2,,,,,,,,,,,,,,,0,,,48,0
248400,note_on,120,0,2,,,,,,,,,,,,,,,0,,,60,0
248400,note_on,0,0,2,,,,,,,,,,,,,,,0,,,44,83
248400,control_change,0,0,2,,,,,,,,,,,,,,,0,64,0,,
248400,note_on,0,0,1,,,,,,,,,,,,,,,0,,,75,0
248400,note_on,0,0,1,,,,,,,,,,,,,,,0,,,87,85
248400,set_tempo,240,1,0,,,,,,,,,,,,439560,,,,,,,
248400,note_on,0,0,1,,,,,,,,,,,,,,,0,,,75,71
248400,note_on,0,0,1,,,,,,,,,,,,,,,0,,,78,71
248400,note_on,0,0,1,,,,,,,,,,,,,,,0,,,84,71
248400,note_on,240,0,1,,,,,,,,,,,,,,,0,,,87,0
248400,note_on,0,0,1,,,,,,,,,,,,,,,0,,,84,0
248400,note_on,0,0,1,,,,,,,,,,,,,,,0,,,78,0
248463,control_change,63,0,2,,,,,,,,,,,,,,,0,64,127,,
248520,note_on,0,0,2,,,,,,,,,,,,,,,0,,,56,73
248520,note_on,57,0,2,,,,,,,,,,,,,,,0,,,44,0
248640,note_on,0,0,1,,,,,,,,,,,,,,,0,,,87,79
248640,note_on,0,0,2,,,,,,,,,,,,,,,0,,,51,81
248640,note_on,0,0,1,,,,,,,,,,,,,,,0,,,75,0
248640,note_on,240,0,1,,,,,,,,,,,,,,,0,,,87,0
248640,note_on,120,0,2,,,,,,,,,,,,,,,0,,,56,0
248640,note_on,0,0,1,,,,,,,,,,,,,,,0,,,78,67
248640,note_on,0,0,1,,,,,,,,,,,,,,,0,,,75,67
248640,note_on,0,0,1,,,,,,,,,,,,,,,0,,,84,67
248640,note_on,0,0,1,,,,,,,,,,,,,,,0,,,78,0
248640,note_on,0,0,1,,,,,,,,,,,,,,,0,,,84,0
248760,note_on,120,0,2,,,,,,,,,,,,,,,0,,,51,0
248760,note_on,0,0,2,,,,,,,,,,,,,,,0,,,63,71
248880,note_on,120,0,2,,,,,,,,,,,,,,,0,,,63,0
248880,note_on,0,0,2,,,,,,,,,,,,,,,0,,,48,81
248880,note_on,0,0,1,,,,,,,,,,,,,,,0,,,84,69
248880,note_on,240,0,1,,,,,,,,,,,,,,,0,,,87,0
248880,note_on,0,0,1,,,,,,,,,,,,,,,0,,,78,0
248880,note_on,0,0,1,,,,,,,,,,,,,,,0,,,75,0
248880,note_on,0,0,1,,,,,,,,,,,,,,,0,,,87,81
248880,note_on,0,0,1,,,,,,,,,,,,,,,0,,,84,0
248880,note_on,0,0,1,,,,,,,,,,,,,,,0,,,75,69
248880,note_on,0,0,1,,,,,,,,,,,,,,,0,,,78,69
248880,set_tempo,480,1,0,,,,,,,,,,,,452830,,,,,,,
249000,note_on,0,0,2,,,,,,,,,,,,,,,0,,,60,70
249000,note_on,120,0,2,,,,,,,,,,,,,,,0,,,48,0
249120,note_on,0,0,2,,,,,,,,,,,,,,,0,,,44,80
249120,set_tempo,240,1,0,,,,,,,,,,,,449438,,,,,,,
249120,note_on,240,0,1,,,,,,,,,,,,,,,0,,,87,0
249120,note_on,0,0,1,,,,,,,,,,,,,,,0,,,75,0
249120,note_on,0,0,1,,,,,,,,,,,,,,,0,,,78,0
249120,note_on,0,0,1,,,,,,,,,,,,,,,0,,,84,0
249120,note_on,0,0,1,,,,,,,,,,,,,,,0,,,75,75
249120,note_on,0,0,1,,,,,,,,,,,,,,,0,,,78,75
249120,note_on,0,0,1,,,,,,,,,,,,,,,0,,,84,75
249120,note_on,0,0,1,,,,,,,,,,,,,,,0,,,87,90
249120,note_on,120,0,2,,,,,,,,,,,,,,,0,,,60,0
249240,note_on,0,0,2,,,,,,,,,,,,,,,0,,,56,72
249240,note_on,120,0,2,,,,,,,,,,,,,,,0,,,44,0
249360,note_on,120,0,2,,,,,,,,,,,,,,,0,,,56,0
249360,note_on,0,0,2,,,,,,,,,,,,,,,0,,,39,82
249360,note_on,240,0,1,,,,,,,,,,,,,,,0,,,87,0
249360,note_on,0,0,1,,,,,,,,,,,,,,,0,,,75,0
249360,note_on,0,0,1,,,,,,,,,,,,,,,0,,,78,0
249360,note_on,0,0,1,,,,,,,,,,,,,,,0,,,84,0
249360,note_on,0,0,1,,,,,,,,,,,,,,,0,,,75,72
249360,note_on,0,0,1,,,,,,,,,,,,,,,0,,,78,72
249360,note_on,0,0,1,,,,,,,,,,,,,,,0,,,84,72
249360,note_on,0,0,1,,,,,,,,,,,,,,,0,,,87,86
249480,note_on,120,0,2,,,,,,,,,,,,,,,0,,,39,0
249480,note_on,0,0,2,,,,,,,,,,,,,,,0,,,51,71
249600,note_on,120,0,2,,,,,,,,,,,,,,,0,,,51,0
249600,note_on,0,0,2,,,,,,,,,,,,,,,0,,,36,84
249600,note_on,0,0,1,,,,,,,,,,,,,,,0,,,78,0
249600,note_on,0,0,1,,,,,,,,,,,,,,,0,,,87,86
249600,note_on,0,0,1,,,,,,,,,,,,,,,0,,,78,72
249600,note_on,0,0,1,,,,,,,,,,,,,,,0,,,84,72
249600,note_on,0,0,1,,,,,,,,,,,,,,,0,,,84,0
249600,note_on,240,0,1,,,,,,,,,,,,,,,0,,,87,0
249600,note_on,0,0,1,,,,,,,,,,,,,,,0,,,75,0
249600,set_tempo,480,1,0,,,,,,,,,,,,468750,,,,,,,
249600,note_on,0,0,1,,,,,,,,,,,,,,,0,,,75,72
249720,note_on,0,0,2,,,,,,,,,,,,,,,0,,,48,72
249720,note_on,120,0,2,,,,,,,,,,,,,,,0,,,36,0
249820,set_tempo,220,1,0,,,,,,,,,,,,463320,,,,,,,
249840,note_on,0,0,1,,,,,,,,,,,,,,,0,,,84,0
249840,note_on,0,0,1,,,,,,,,,,,,,,,0,,,78,0
249840,note_on,0,0,1,,,,,,,,,,,,,,,0,,,84,78
249840,note_on,240,0,1,,,,,,,,,,,,,,,0,,,87,0
249840,note_on,0,0,1,,,,,,,,,,,,,,,0,,,78,78
249840,note_on,0,0,1,,,,,,,,,,,,,,,0,,,75,0
249840,note_on,0,0,1,,,,,,,,,,,,,,,0,,,87,78
249840,note_on,0,0,1,,,,,,,,,,,,,,,0,,,90,93
249840,note_on,120,0,2,,,,,,,,,,,,,,,0,,,48,0
249840,note_on,0,0,2,,,,,,,,,,,,,,,0,,,39,82
249840,control_change,0,0,2,,,,,,,,,,,,,,,0,64,0,,
249880,set_tempo,60,1,0,,,,,,,,,,,,465116,,,,,,,
249903,control_change,63,0,2,,,,,,,,,,,,,,,0,64,127,,
249920,set_tempo,40,1,0,,,,,,,,,,,,466926,,,,,,,
249960,note_on,57,0,2,,,,,,,,,,,,,,,0,,,39,0
249960,note_on,0,0,2,,,,,,,,,,,,,,,0,,,51,74
249960,set_tempo,40,1,0,,,,,,,,,,,,468750,,,,,,,
250020,set_tempo,60,1,0,,,,,,,,,,,,470588,,,,,,,
250060,set_tempo,40,1,0,,,,,,,,,,,,472441,,,,,,,
250080,note_on,0,0,1,,,,,,,,,,,,,,,0,,,87,73
250080,note_on,0,0,1,,,,,,,,,,,,,,,0,,,84,73
250080,note_on,0,0,1,,,,,,,,,,,,,,,0,,,90,87
250080,note_on,0,0,1,,,,,,,,,,,,,,,0,,,78,0
250080,note_on,0,0,1,,,,,,,,,,,,,,,0,,,87,0
250080,note_on,0,0,1,,,,,,,,,,,,,,,0,,,84,0
250080,note_on,0,0,1,,,,,,,,,,,,,,,0,,,78,73
250080,note_on,0,0,2,,,,,,,,,,,,,,,0,,,48,84
250080,note_on,120,0,2,,,,,,,,,,,,,,,0,,,51,0
250080,note_on,240,0,1,,,,,,,,,,,,,,,0,,,90,0
250100,set_tempo,40,1,0,,,,,,,,,,,,474308,,,,,,,
250160,set_tempo,60,1,0,,,,,,,,,,,,476190,,,,,,,
250200,set_tempo,40,1,0,,,,,,,,,,,,478088,,,,,,,
250200,note_on,0,0,2,,,,,,,,,,,,,,,0,,,60,72
250200,note_on,120,0,2,,,,,,,,,,,,,,,0,,,48,0
250240,set_tempo,40,1,0,,,,,,,,,,,,480000,,,,,,,
250280,set_tempo,40,1,0,,,,,,,,,,,,481928,,,,,,,
250320,note_on,240,0,1,,,,,,,,,,,,,,,0,,,90,0
250320,note_on,0,0,1,,,,,,,,,,,,,,,0,,,87,0
250320,note_on,0,0,1,,,,,,,,,,,,,,,0,,,84,0
250320,note_on,120,0,2,,,,,,,,,,,,,,,0,,,60,0
250320,note_on,0,0,1,,,,,,,,,,,,,,,0,,,87,77
250320,note_on,0,0,1,,,,,,,,,,,,,,,0,,,78,77
250320,note_on,0,0,2,,,,,,,,,,,,,,,0,,,44,87
250320,note_on,0,0,1,,,,,,,,,,,,,,,0,,,90,92
250320,note_on,0,0,1,,,,,,,,,,,,,,,0,,,84,77
250320,note_on,0,0,1,,,,,,,,,,,,,,,0,,,78,0
250340,set_tempo,60,1,0,,,,,,,,,,,,483871,,,,,,,
250380,set_tempo,40,1,0,,,,,,,,,,,,485830,,,,,,,
250420,set_tempo,40,1,0,,,,,,,,,,,,487805,,,,,,,
250440,note_on,120,0,2,,,,,,,,,,,,,,,0,,,44,0
250440,note_on,0,0,2,,,,,,,,,,,,,,,0,,,56,73
250480,set_tempo,60,1,0,,,,,,,,,,,,489796,,,,,,,
250520,set_tempo,40,1,0,,,,,,,,,,,,491803,,,,,,,
250560,note_on,120,0,2,,,,,,,,,,,,,,,0,,,56,0
250560,note_on,0,0,1,,,,,,,,,,,,,,,0,,,84,84
250560,note_on,0,0,2,,,,,,,,,,,,,,,0,,,39,90
250560,note_on,240,0,1,,,,,,,,,,,,,,,0,,,90,0
250560,note_on,0,0,1,,,,,,,,,,,,,,,0,,,87,0
250560,note_on,0,0,1,,,,,,,,,,,,,,,0,,,78,0
250560,note_on,0,0,1,,,,,,,,,,,,,,,0,,,84,0
250560,note_on,0,0,1,,,,,,,,,,,,,,,0,,,87,84
250560,note_on,0,0,1,,,,,,,,,,,,,,,0,,,78,84
250560,set_tempo,40,1,0,,,,,,,,,,,,493827,,,,,,,
250560,note_on,0,0,1,,,,,,,,,,,,,,,0,,,90,99
250620,set_tempo,60,1,0,,,,,,,,,,,,495868,,,,,,,
250660,set_tempo,40,1,0,,,,,,,,,,,,497925,,,,,,,
250680,note_on,0,0,2,,,,,,,,,,,,,,,0,,,51,80
250680,note_on,120,0,2,,,,,,,,,,,,,,,0,,,39,0
250700,set_tempo,40,1,0,,,,,,,,,,,,500000,,,,,,,
250740,set_tempo,40,1,0,,,,,,,,,,,,502092,,,,,,,
250800,note_on,120,0,2,,,,,,,,,,,,,,,0,,,51,0
250800,note_on,0,0,2,,,,,,,,,,,,,,,0,,,36,92
250800,note_on,0,0,1,,,,,,,,,,,,,,,0,,,87,79
250800,note_on,0,0,1,,,,,,,,,,,,,,,0,,,78,79
250800,note_on,0,0,1,,,,,,,,,,,,,,,0,,,84,0
250800,note_on,0,0,1,,,,,,,,,,,,,,,0,,,78,0
250800,note_on,0,0,1,,,,,,,,,,,,,,,0,,,87,0
250800,note_on,240,0,1,,,,,,,,,,,,,,,0,,,90,0
250800,note_on,0,0,1,,,,,,,,,,,,,,,0,,,90,95
250800,set_tempo,60,1,0,,,,,,,,,,,,504202,,,,,,,
250800,note_on,0,0,1,,,,,,,,,,,,,,,0,,,84,79
250840,set_tempo,40,1,0,,,,,,,,,,,,506329,,,,,,,
250880,set_tempo,40,1,0,,,,,,,,,,,,508475,,,,,,,
250920,note_on,0,0,2,,,,,,,,,,,,,,,0,,,48,79
250920,note_on,120,0,2,,,,,,,,,,,,,,,0,,,36,0
250940,set_tempo,60,1,0,,,,,,,,,,,,510638,,,,,,,
250980,set_tempo,40,1,0,,,,,,,,,,,,512821,,,,,,,
251020,set_tempo,40,1,0,,,,,,,,,,,,515021,,,,,,,
251040,set_tempo,20,1,0,,,,,,,,,,,,594059,,,,,,,
251040,note_on,120,0,2,,,,,,,,,,,,,,,0,,,48,0
251040,note_on,240,0,1,,,,,,,,,,,,,,,0,,,90,0
251040,note_on,0,0,1,,,,,,,,,,,,,,,0,,,87,0
251040,note_on,0,0,2,,,,,,,,,,,,,,,0,,,32,94
251040,note_on,0,0,1,,,,,,,,,,,,,,,0,,,84,0
251040,note_on,0,0,1,,,,,,,,,,,,,,,0,,,87,82
251040,note_on,0,0,1,,,,,,,,,,,,,,,0,,,78,82
251040,note_on,0,0,1,,,,,,,,,,,,,,,0,,,84,82
251040,note_on,0,0,1,,,,,,,,,,,,,,,0,,,90,97
251040,note_on,0,0,1,,,,,,,,,,,,,,,0,,,78,0
251160,note_on,120,0,2,,,,,,,,,,,,,,,0,,,32,0
251160,note_on,0,0,2,,,,,,,,,,,,,,,0,,,44,81
251280,note_on,0,0,1,,,,,,,,,,,,,,,0,,,84,0
251280,note_on,0,0,1,,,,,,,,,,,,,,,0,,,78,0
251280,note_on,0,0,2,,,,,,,,,,,,,,,0,,,43,91
251280,note_on,0,0,2,,,,,,,,,,,,,,,0,,,31,75
251280,note_on,120,0,2,,,,,,,,,,,,,,,0,,,44,0
251280,note_on,240,0,1,,,,,,,,,,,,,,,0,,,90,0
251280,set_tempo,240,1,0,,,,,,,,,,,,500000,,,,,,,
251280,note_on,0,0,1,,,,,,,,,,,,,,,0,,,91,103
251280,note_on,0,0,1,,,,,,,,,,,,,,,0,,,88,87
251280,note_on,0,0,1,,,,,,,,,,,,,,,0,,,84,87
251280,note_on,0,0,1,,,,,,,,,,,,,,,0,,,79,87
251280,note_on,0,0,1,,,,,,,,,,,,,,,0,,,87,0
251293,control_change,13,0,2,,,,,,,,,,,,,,,0,64,0,,
251400,control_change,107,0,2,,,,,,,,,,,,,,,0,64,127,,
251520,note_on,120,0,2,,,,,,,,,,,,,,,0,,,43,0
251520,note_on,0,0,2,,,,,,,,,,,,,,,0,,,31,0
251520,note_on,240,0,1,,,,,,,,,,,,,,,0,,,91,0
251520,note_on,0,0,1,,,,,,,,,,,,,,,0,,,79,0
251520,note_on,0,0,1,,,,,,,,,,,,,,,0,,,84,0
251520,note_on,0,0,1,,,,,,,,,,,,,,,0,,,88,0
251813,control_change,293,0,2,,,,,,,,,,,,,,,0,64,0,,
252720,note_on,1200,0,1,,,,,,,,,,,,,,,0,,,79,91
252720,note_on,0,0,2,,,,,,,,,,,,,,,0,,,55,95
252720,note_on,0,0,2,,,,,,,,,,,,,,,0,,,43,79
252720,note_on,0,0,2,,,,,,,,,,,,,,,0,,,47,79
252720,note_on,907,0,2,,,,,,,,,,,,,,,0,,,50,79
252720,note_on,0,0,1,,,,,,,,,,,,,,,0,,,86,91
252720,note_on,0,0,1,,,,,,,,,,,,,,,0,,,83,91
252733,note_on,13,0,1,,,,,,,,,,,,,,,0,,,91,108
252759,control_change,39,0,2,,,,,,,,,,,,,,,0,64,127,,
252960,note_on,0,0,2,,,,,,,,,,,,,,,0,,,47,0
252960,note_on,0,0,2,,,,,,,,,,,,,,,0,,,43,0
252960,note_on,227,0,1,,,,,,,,,,,,,,,0,,,83,0
252960,note_on,201,0,2,,,,,,,,,,,,,,,0,,,55,0
252960,note_on,0,0,1,,,,,,,,,,,,,,,0,,,79,0
252960,note_on,0,0,1,,,,,,,,,,,,,,,0,,,86,0
252960,note_on,0,0,2,,,,,,,,,,,,,,,0,,,50,0
252973,note_on,13,0,1,,,,,,,,,,,,,,,0,,,91,0
252973,end_of_track,0,1,1,,,,,,,,,,,,,,,,,,,
253107,control_change,147,0,2,,,,,,,,,,,,,,,0,64,0,,
253107,end_of_track,0,1,2,,,,,,,,,,,,,,,,,,,
253440,set_tempo,2160,1,0,,,,,,,,,,,,600000,,,,,,,
253440,end_of_track,0,1,0,,,,,,,,,,,,,,,,,,,
