tick,type,time,meta,track,frame_rate,hours,minutes,seconds,frames,sub_frames,numerator,denominator,clocks_per_click,notated_32nd_notes_per_beat,key,tempo,port,program,channel,control,value,note,velocity
0,track_name,0,1,0,,,,,,,,,,,,,,,,,,,
0,program_change,0,0,1,,,,,,,,,,,,,,0,0,,,,
0,control_change,0,0,1,,,,,,,,,,,,,,,0,7,100,,
0,control_change,0,0,1,,,,,,,,,,,,,,,0,91,127,,
0,note_on,0,0,1,,,,,,,,,,,,,,,0,,,52,74
0,note_on,0,0,1,,,,,,,,,,,,,,,0,,,55,74
0,note_on,0,0,1,,,,,,,,,,,,,,,0,,,60,74
0,note_on,0,0,1,,,,,,,,,,,,,,,0,,,64,88
0,text,0,1,1,,,,,,,,,,,,,,,,,,,
0,midi_port,0,1,8,,,,,,,,,,,,,0,,,,,,
0,midi_port,0,1,2,,,,,,,,,,,,,0,,,,,,
0,track_name,0,1,2,,,,,,,,,,,,,,,,,,,
0,program_change,0,0,2,,,,,,,,,,,,,,0,0,,,,
0,control_change,0,0,2,,,,,,,,,,,,,,,0,7,100,,
0,note_on,0,0,2,,,,,,,,,,,,,,,0,,,36,55
0,note_on,0,0,2,,,,,,,,,,,,,,,0,,,43,55
0,note_on,0,0,2,,,,,,,,,,,,,,,0,,,48,64
0,midi_port,0,1,3,,,,,,,,,,,,,0,,,,,,
0,end_of_track,0,1,7,,,,,,,,,,,,,,,,,,,
0,track_name,0,1,7,,,,,,,,,,,,,,,,,,,
0,midi_port,0,1,7,,,,,,,,,,,,,0,,,,,,
0,end_of_track,0,1,6,,,,,,,,,,,,,,,,,,,
0,track_name,0,1,6,,,,,,,,,,,,,,,,,,,
0,midi_port,0,1,6,,,,,,,,,,,,,0,,,,,,
0,track_name,0,1,1,,,,,,,,,,,,,,,,,,,
0,end_of_track,0,1,5,,,,,,,,,,,,,,,,,,,
0,midi_port,0,1,5,,,,,,,,,,,,,0,,,,,,
0,end_of_track,0,1,4,,,,,,,,,,,,,,,,,,,
0,track_name,0,1,4,,,,,,,,,,,,,,,,,,,
0,midi_port,0,1,4,,,,,,,,,,,,,0,,,,,,
0,end_of_track,0,1,3,,,,,,,,,,,,,,,,,,,
0,track_name,0,1,3,,,,,,,,,,,,,,,,,,,
0,track_name,0,1,5,,,,,,,,,,,,,,,,,,,
0,midi_port,0,1,1,,,,,,,,,,,,,0,,,,,,
0,end_of_track,0,1,8,,,,,,,,,,,,,,,,,,,
0,copyright,0,1,0,,,,,,,,,,,,,,,,,,,
0,text,0,1,0,,,,,,,,,,,,,,,,,,,
0,smpte_offset,0,1,0,25,32,0,3,0,0,,,,,,,,,,,,,
0,time_signature,0,1,0,,,,,,,4,4,24,8,,,,,,,,,
0,key_signature,0,1,0,,,,,,,,,,,C,,,,,,,,
0,set_tempo,0,1,0,,,,,,,,,,,,412343,,,,,,,
0,text,0,1,0,,,,,,,,,,,,,,,,,,,
0,text,0,1,0,,,,,,,,,,,,,,,,,,,
0,text,0,1,0,,,,,,,,,,,,,,,,,,,
480,note_on,0,0,2,,,,,,,,,,,,,,,0,,,36,0
480,set_tempo,480,1,0,,,,,,,,,,,,402253,,,,,,,
480,note_on,480,0,1,,,,,,,,,,,,,,,0,,,64,0
480,note_on,0,0,1,,,,,,,,,,,,,,,0,,,52,0
480,note_on,0,0,1,,,,,,,,,,,,,,,0,,,55,0
480,note_on,0,0,1,,,,,,,,,,,,,,,0,,,60,0
480,note_on,0,0,1,,,,,,,,,,,,,,,0,,,52,70
480,note_on,0,0,2,,,,,,,,,,,,,,,0,,,43,0
480,note_on,0,0,1,,,,,,,,,,,,,,,0,,,60,70
480,note_on,0,0,1,,,,,,,,,,,,,,,0,,,55,70
480,note_on,480,0,2,,,,,,,,,,,,,,,0,,,48,0
480,note_on,0,0,2,,,,,,,,,,,,,,,0,,,48,59
480,note_on,0,0,2,,,,,,,,,,,,,,,0,,,43,49
480,note_on,0,0,2,,,,,,,,,,,,,,,0,,,36,49
480,note_on,0,0,1,,,,,,,,,,,,,,,0,,,64,83
600,note_on,120,0,1,,,,,,,,,,,,,,,0,,,64,0
600,note_on,0,0,1,,,,,,,,,,,,,,,0,,,55,0
600,note_on,0,0,2,,,,,,,,,,,,,,,0,,,36,0
600,note_on,0,0,2,,,,,,,,,,,,,,,0,,,43,0
600,note_on,120,0,2,,,,,,,,,,,,,,,0,,,48,0
600,note_on,0,0,1,,,,,,,,,,,,,,,0,,,60,0
600,note_on,0,0,1,,,,,,,,,,,,,,,0,,,52,0
720,note_on,0,0,1,,,,,,,,,,,,,,,0,,,55,70
720,note_on,0,0,1,,,,,,,,,,,,,,,0,,,60,70
720,note_on,0,0,1,,,,,,,,,,,,,,,0,,,64,83
720,note_on,120,0,1,,,,,,,,,,,,,,,0,,,52,70
720,note_on,0,0,2,,,,,,,,,,,,,,,0,,,43,49
720,note_on,0,0,2,,,,,,,,,,,,,,,0,,,48,59
720,note_on,120,0,2,,,,,,,,,,,,,,,0,,,36,49
840,note_on,120,0,1,,,,,,,,,,,,,,,0,,,64,0
840,note_on,0,0,1,,,,,,,,,,,,,,,0,,,60,0
840,note_on,0,0,1,,,,,,,,,,,,,,,0,,,55,0
840,note_on,0,0,1,,,,,,,,,,,,,,,0,,,52,0
840,note_on,0,0,2,,,,,,,,,,,,,,,0,,,36,0
840,note_on,0,0,2,,,,,,,,,,,,,,,0,,,43,0
840,note_on,120,0,2,,,,,,,,,,,,,,,0,,,48,0
960,note_on,0,0,2,,,,,,,,,,,,,,,0,,,43,56
960,note_on,120,0,1,,,,,,,,,,,,,,,0,,,52,74
960,note_on,0,0,1,,,,,,,,,,,,,,,0,,,55,74
960,note_on,0,0,1,,,,,,,,,,,,,,,0,,,60,74
960,note_on,0,0,1,,,,,,,,,,,,,,,0,,,64,88
960,set_tempo,480,1,0,,,,,,,,,,,,412343,,,,,,,
960,note_on,0,0,2,,,,,,,,,,,,,,,0,,,48,66
960,note_on,120,0,2,,,,,,,,,,,,,,,0,,,36,56
1440,note_on,0,0,2,,,,,,,,,,,,,,,0,,,36,0
1440,set_tempo,480,1,0,,,,,,,,,,,,402253,,,,,,,
1440,note_on,0,0,2,,,,,,,,,,,,,,,0,,,43,0
1440,note_on,480,0,2,,,,,,,,,,,,,,,0,,,48,0
1440,note_on,0,0,2,,,,,,,,,,,,,,,0,,,36,50
1440,note_on,0,0,2,,,,,,,,,,,,,,,0,,,43,50
1440,note_on,0,0,1,,,,,,,,,,,,,,,0,,,55,69
1440,note_on,0,0,1,,,,,,,,,,,,,,,0,,,64,82
1440,note_on,480,0,1,,,,,,,,,,,,,,,0,,,64,0
1440,note_on,0,0,1,,,,,,,,,,,,,,,0,,,52,0
1440,note_on,0,0,1,,,,,,,,,,,,,,,0,,,55,0
1440,note_on,0,0,1,,,,,,,,,,,,,,,0,,,60,0
1440,note_on,0,0,1,,,,,,,,,,,,,,,0,,,52,69
1440,note_on,0,0,1,,,,,,,,,,,,,,,0,,,60,69
1440,note_on,0,0,2,,,,,,,,,,,,,,,0,,,48,60
1560,note_on,0,0,1,,,,,,,,,,,,,,,0,,,60,0
1560,note_on,0,0,1,,,,,,,,,,,,,,,0,,,55,0
1560,note_on,0,0,1,,,,,,,,,,,,,,,0,,,52,0
1560,note_on,120,0,2,,,,,,,,,,,,,,,0,,,48,0
1560,note_on,0,0,2,,,,,,,,,,,,,,,0,,,36,0
1560,note_on,120,0,1,,,,,,,,,,,,,,,0,,,64,0
1560,note_on,0,0,2,,,,,,,,,,,,,,,0,,,43,0
1680,note_on,0,0,2,,,,,,,,,,,,,,,0,,,43,50
1680,note_on,120,0,1,,,,,,,,,,,,,,,0,,,52,69
1680,note_on,0,0,1,,,,,,,,,,,,,,,0,,,55,69
1680,note_on,0,0,1,,,,,,,,,,,,,,,0,,,60,69
1680,note_on,0,0,1,,,,,,,,,,,,,,,0,,,64,82
1680,note_on,0,0,2,,,,,,,,,,,,,,,0,,,48,60
1680,note_on,120,0,2,,,,,,,,,,,,,,,0,,,36,50
1800,note_on,0,0,1,,,,,,,,,,,,,,,0,,,60,0
1800,note_on,0,0,1,,,,,,,,,,,,,,,0,,,55,0
1800,note_on,0,0,1,,,,,,,,,,,,,,,0,,,52,0
1800,note_on,120,0,1,,,,,,,,,,,,,,,0,,,64,0
1800,note_on,120,0,2,,,,,,,,,,,,,,,0,,,48,0
1800,note_on,0,0,2,,,,,,,,,,,,,,,0,,,43,0
1800,note_on,0,0,2,,,,,,,,,,,,,,,0,,,36,0
1920,note_on,0,0,1,,,,,,,,,,,,,,,0,,,64,88
1920,note_on,120,0,2,,,,,,,,,,,,,,,0,,,36,56
1920,note_on,0,0,2,,,,,,,,,,,,,,,0,,,43,56
1920,note_on,0,0,2,,,,,,,,,,,,,,,0,,,48,66
1920,note_on,0,0,1,,,,,,,,,,,,,,,0,,,60,74
1920,note_on,120,0,1,,,,,,,,,,,,,,,0,,,52,74
1920,note_on,0,0,1,,,,,,,,,,,,,,,0,,,55,74
1920,set_tempo,480,1,0,,,,,,,,,,,,410874,,,,,,,
1976,control_change,56,0,2,,,,,,,,,,,,,,,0,64,127,,
2160,note_on,240,0,1,,,,,,,,,,,,,,,0,,,64,0
2160,note_on,0,0,1,,,,,,,,,,,,,,,0,,,52,0
2160,note_on,184,0,2,,,,,,,,,,,,,,,0,,,48,0
2160,note_on,0,0,1,,,,,,,,,,,,,,,0,,,48,79
2160,note_on,0,0,2,,,,,,,,,,,,,,,0,,,36,0
2160,note_on,0,0,1,,,,,,,,,,,,,,,0,,,60,0
2160,note_on,0,0,1,,,,,,,,,,,,,,,0,,,55,0
2160,note_on,0,0,2,,,,,,,,,,,,,,,0,,,43,0
2280,note_on,120,0,1,,,,,,,,,,,,,,,0,,,48,0
2280,note_on,0,0,1,,,,,,,,,,,,,,,0,,,52,81
2360,set_tempo,440,1,0,,,,,,,,,,,,409417,,,,,,,
2400,note_on,0,0,1,,,,,,,,,,,,,,,0,,,55,83
2400,note_on,120,0,1,,,,,,,,,,,,,,,0,,,52,0
2440,set_tempo,80,1,0,,,,,,,,,,,,410874,,,,,,,
2480,set_tempo,40,1,0,,,,,,,,,,,,412343,,,,,,,
2520,note_on,120,0,1,,,,,,,,,,,,,,,0,,,55,0
2520,note_on,0,0,1,,,,,,,,,,,,,,,0,,,60,85
2520,set_tempo,40,1,0,,,,,,,,,,,,413822,,,,,,,
2600,set_tempo,80,1,0,,,,,,,,,,,,415340,,,,,,,
2640,note_on,120,0,1,,,,,,,,,,,,,,,0,,,60,0
2640,set_tempo,40,1,0,,,,,,,,,,,,416840,,,,,,,
2640,note_on,0,0,1,,,,,,,,,,,,,,,0,,,64,89
2680,set_tempo,40,1,0,,,,,,,,,,,,418352,,,,,,,
2760,note_on,0,0,1,,,,,,,,,,,,,,,0,,,67,91
2760,note_on,120,0,1,,,,,,,,,,,,,,,0,,,64,0
2880,note_on,0,0,1,,,,,,,,,,,,,,,0,,,71,88
2880,note_on,0,0,1,,,,,,,,,,,,,,,0,,,59,88
2880,note_on,120,0,1,,,,,,,,,,,,,,,0,,,67,0
2890,control_change,730,0,2,,,,,,,,,,,,,,,0,64,0,,
3360,note_on,0,0,1,,,,,,,,,,,,,,,0,,,60,70
3360,note_on,0,0,1,,,,,,,,,,,,,,,0,,,59,0
3360,note_on,480,0,1,,,,,,,,,,,,,,,0,,,71,0
3360,note_on,0,0,1,,,,,,,,,,,,,,,0,,,72,84
3480,note_on,120,0,1,,,,,,,,,,,,,,,0,,,72,0
3480,note_on,0,0,1,,,,,,,,,,,,,,,0,,,60,0
3600,note_on,120,0,1,,,,,,,,,,,,,,,0,,,60,70
3600,note_on,0,0,1,,,,,,,,,,,,,,,0,,,72,84
3720,note_on,120,0,1,,,,,,,,,,,,,,,0,,,72,0
3720,note_on,0,0,1,,,,,,,,,,,,,,,0,,,60,0
3840,note_on,120,0,1,,,,,,,,,,,,,,,0,,,65,76
3840,note_on,0,0,1,,,,,,,,,,,,,,,0,,,67,76
3840,note_on,0,0,1,,,,,,,,,,,,,,,0,,,71,91
3840,note_on,0,0,1,,,,,,,,,,,,,,,0,,,73,91
3840,note_on,950,0,2,,,,,,,,,,,,,,,0,,,31,57
3840,set_tempo,1160,1,0,,,,,,,,,,,,437956,,,,,,,
3840,note_on,0,0,2,,,,,,,,,,,,,,,0,,,43,68
4080,note_on,0,0,1,,,,,,,,,,,,,,,0,,,71,0
4080,note_on,0,0,1,,,,,,,,,,,,,,,0,,,67,0
4080,note_on,240,0,1,,,,,,,,,,,,,,,0,,,73,0
4080,note_on,240,0,2,,,,,,,,,,,,,,,0,,,43,0
4080,note_on,0,0,1,,,,,,,,,,,,,,,0,,,65,0
4080,note_on,0,0,2,,,,,,,,,,,,,,,0,,,31,0
4320,note_on,240,0,2,,,,,,,,,,,,,,,0,,,43,57
4320,note_on,0,0,2,,,,,,,,,,,,,,,0,,,55,68
4320,note_on,240,0,1,,,,,,,,,,,,,,,0,,,67,71
4320,note_on,0,0,1,,,,,,,,,,,,,,,0,,,65,71
4320,note_on,0,0,1,,,,,,,,,,,,,,,0,,,71,85
4320,note_on,0,0,1,,,,,,,,,,,,,,,0,,,74,85
4560,note_on,0,0,1,,,,,,,,,,,,,,,0,,,65,0
4560,note_on,0,0,2,,,,,,,,,,,,,,,0,,,43,0
4560,note_on,240,0,2,,,,,,,,,,,,,,,0,,,55,0
4560,note_on,240,0,1,,,,,,,,,,,,,,,0,,,74,0
4560,note_on,0,0,1,,,,,,,,,,,,,,,0,,,67,0
4560,note_on,0,0,1,,,,,,,,,,,,,,,0,,,71,0
4866,set_tempo,1026,1,0,,,,,,,,,,,,446097,,,,,,,
5760,note_on,0,0,1,,,,,,,,,,,,,,,0,,,59,64
5760,note_on,0,0,2,,,,,,,,,,,,,,,0,,,43,56
5760,note_on,1200,0,1,,,,,,,,,,,,,,,0,,,53,64
5760,note_on,0,0,1,,,,,,,,,,,,,,,0,,,55,64
5760,note_on,1200,0,2,,,,,,,,,,,,,,,0,,,31,47
5760,note_on,0,0,1,,,,,,,,,,,,,,,0,,,62,76
5760,control_change,0,0,1,,,,,,,,,,,,,,,0,91,127,,
5760,text,0,1,1,,,,,,,,,,,,,,,,,,,
5760,set_tempo,894,1,0,,,,,,,,,,,,412343,,,,,,,
6240,note_on,0,0,1,,,,,,,,,,,,,,,0,,,53,0
6240,note_on,0,0,1,,,,,,,,,,,,,,,0,,,55,0
6240,note_on,0,0,1,,,,,,,,,,,,,,,0,,,59,0
6240,note_on,0,0,1,,,,,,,,,,,,,,,0,,,53,60
6240,note_on,0,0,1,,,,,,,,,,,,,,,0,,,55,60
6240,set_tempo,480,1,0,,,,,,,,,,,,402253,,,,,,,
6240,note_on,0,0,2,,,,,,,,,,,,,,,0,,,43,51
6240,note_on,0,0,2,,,,,,,,,,,,,,,0,,,31,42
6240,note_on,0,0,2,,,,,,,,,,,,,,,0,,,31,0
6240,note_on,480,0,2,,,,,,,,,,,,,,,0,,,43,0
6240,note_on,0,0,1,,,,,,,,,,,,,,,0,,,59,60
6240,note_on,480,0,1,,,,,,,,,,,,,,,0,,,62,0
6240,note_on,0,0,1,,,,,,,,,,,,,,,0,,,62,72
6360,note_on,0,0,2,,,,,,,,,,,,,,,0,,,31,0
6360,note_on,120,0,2,,,,,,,,,,,,,,,0,,,43,0
6360,note_on,120,0,1,,,,,,,,,,,,,,,0,,,62,0
6360,note_on,0,0,1,,,,,,,,,,,,,,,0,,,53,0
6360,note_on,0,0,1,,,,,,,,,,,,,,,0,,,59,0
6360,note_on,0,0,1,,,,,,,,,,,,,,,0,,,55,0
6480,note_on,0,0,2,,,,,,,,,,,,,,,0,,,43,51
6480,note_on,120,0,2,,,,,,,,,,,,,,,0,,,31,42
6480,note_on,0,0,1,,,,,,,,,,,,,,,0,,,62,72
6480,note_on,0,0,1,,,,,,,,,,,,,,,0,,,59,60
6480,note_on,0,0,1,,,,,,,,,,,,,,,0,,,55,60
6480,note_on,120,0,1,,,,,,,,,,,,,,,0,,,53,60
6600,note_on,0,0,2,,,,,,,,,,,,,,,0,,,31,0
6600,note_on,120,0,2,,,,,,,,,,,,,,,0,,,43,0
6600,note_on,0,0,1,,,,,,,,,,,,,,,0,,,59,0
6600,note_on,0,0,1,,,,,,,,,,,,,,,0,,,55,0
6600,note_on,0,0,1,,,,,,,,,,,,,,,0,,,53,0
6600,note_on,120,0,1,,,,,,,,,,,,,,,0,,,62,0
6720,note_on,0,0,1,,,,,,,,,,,,,,,0,,,62,76
6720,note_on,0,0,1,,,,,,,,,,,,,,,0,,,59,64
6720,note_on,120,0,2,,,,,,,,,,,,,,,0,,,31,48
6720,set_tempo,480,1,0,,,,,,,,,,,,412343,,,,,,,
6720,note_on,0,0,1,,,,,,,,,,,,,,,0,,,55,64
6720,note_on,0,0,2,,,,,,,,,,,,,,,0,,,43,57
6720,note_on,120,0,1,,,,,,,,,,,,,,,0,,,53,64
7200,set_tempo,480,1,0,,,,,,,,,,,,402253,,,,,,,
7200,note_on,480,0,2,,,,,,,,,,,,,,,0,,,43,0
7200,note_on,0,0,2,,,,,,,,,,,,,,,0,,,31,0
7200,note_on,0,0,2,,,,,,,,,,,,,,,0,,,31,43
7200,note_on,0,0,2,,,,,,,,,,,,,,,0,,,43,52
7200,note_on,480,0,1,,,,,,,,,,,,,,,0,,,62,0
7200,note_on,0,0,1,,,,,,,,,,,,,,,0,,,53,0
7200,note_on,0,0,1,,,,,,,,,,,,,,,0,,,55,0
7200,note_on,0,0,1,,,,,,,,,,,,,,,0,,,59,0
7200,note_on,0,0,1,,,,,,,,,,,,,,,0,,,53,59
7200,note_on,0,0,1,,,,,,,,,,,,,,,0,,,55,59
7200,note_on,0,0,1,,,,,,,,,,,,,,,0,,,59,59
7200,note_on,0,0,1,,,,,,,,,,,,,,,0,,,62,71
7320,note_on,120,0,1,,,,,,,,,,,,,,,0,,,62,0
7320,note_on,0,0,1,,,,,,,,,,,,,,,0,,,53,0
7320,note_on,0,0,1,,,,,,,,,,,,,,,0,,,55,0
7320,note_on,0,0,1,,,,,,,,,,,,,,,0,,,59,0
7320,note_on,0,0,2,,,,,,,,,,,,,,,0,,,31,0
7320,note_on,120,0,2,,,,,,,,,,,,,,,0,,,43,0
7440,note_on,0,0,1,,,,,,,,,,,,,,,0,,,62,71
7440,note_on,0,0,2,,,,,,,,,,,,,,,0,,,43,52
7440,note_on,120,0,2,,,,,,,,,,,,,,,0,,,31,43
7440,note_on,0,0,1,,,,,,,,,,,,,,,0,,,59,59
7440,note_on,0,0,1,,,,,,,,,,,,,,,0,,,55,59
7440,note_on,120,0,1,,,,,,,,,,,,,,,0,,,53,59
7560,note_on,120,0,1,,,,,,,,,,,,,,,0,,,62,0
7560,note_on,0,0,1,,,,,,,,,,,,,,,0,,,53,0
7560,note_on,0,0,1,,,,,,,,,,,,,,,0,,,55,0
7560,note_on,0,0,1,,,,,,,,,,,,,,,0,,,59,0
7560,note_on,120,0,2,,,,,,,,,,,,,,,0,,,43,0
7560,note_on,0,0,2,,,,,,,,,,,,,,,0,,,31,0
7680,note_on,120,0,1,,,,,,,,,,,,,,,0,,,53,64
7680,note_on,0,0,1,,,,,,,,,,,,,,,0,,,55,64
7680,set_tempo,480,1,0,,,,,,,,,,,,410874,,,,,,,
7680,note_on,0,0,1,,,,,,,,,,,,,,,0,,,62,76
7680,note_on,120,0,2,,,,,,,,,,,,,,,0,,,31,48
7680,note_on,0,0,1,,,,,,,,,,,,,,,0,,,59,64
7680,note_on,0,0,2,,,,,,,,,,,,,,,0,,,43,57
7736,control_change,56,0,2,,,,,,,,,,,,,,,0,64,127,,
7920,note_on,0,0,1,,,,,,,,,,,,,,,0,,,53,0
7920,note_on,240,0,1,,,,,,,,,,,,,,,0,,,62,0
7920,note_on,0,0,2,,,,,,,,,,,,,,,0,,,31,0
7920,note_on,184,0,2,,,,,,,,,,,,,,,0,,,43,0
7920,note_on,0,0,1,,,,,,,,,,,,,,,0,,,55,0
7920,note_on,0,0,1,,,,,,,,,,,,,,,0,,,59,0
7920,note_on,0,0,1,,,,,,,,,,,,,,,0,,,55,68
8040,note_on,120,0,1,,,,,,,,,,,,,,,0,,,55,0
8040,note_on,0,0,1,,,,,,,,,,,,,,,0,,,59,70
8120,set_tempo,440,1,0,,,,,,,,,,,,409417,,,,,,,
8160,note_on,0,0,1,,,,,,,,,,,,,,,0,,,62,72
8160,note_on,120,0,1,,,,,,,,,,,,,,,0,,,59,0
8200,set_tempo,80,1,0,,,,,,,,,,,,410874,,,,,,,
8240,set_tempo,40,1,0,,,,,,,,,,,,412343,,,,,,,
8280,note_on,0,0,1,,,,,,,,,,,,,,,0,,,65,74
8280,set_tempo,40,1,0,,,,,,,,,,,,413822,,,,,,,
8280,note_on,120,0,1,,,,,,,,,,,,,,,0,,,62,0
8360,set_tempo,80,1,0,,,,,,,,,,,,415340,,,,,,,
8400,note_on,120,0,1,,,,,,,,,,,,,,,0,,,65,0
8400,note_on,0,0,1,,,,,,,,,,,,,,,0,,,67,76
8400,set_tempo,40,1,0,,,,,,,,,,,,416840,,,,,,,
8440,set_tempo,40,1,0,,,,,,,,,,,,418352,,,,,,,
8520,note_on,0,0,1,,,,,,,,,,,,,,,0,,,71,78
8520,note_on,120,0,1,,,,,,,,,,,,,,,0,,,67,0
8640,note_on,0,0,1,,,,,,,,,,,,,,,0,,,73,88
8640,note_on,120,0,1,,,,,,,,,,,,,,,0,,,71,0
8640,note_on,0,0,1,,,,,,,,,,,,,,,0,,,61,88
8650,control_change,730,0,2,,,,,,,,,,,,,,,0,64,0,,
9120,note_on,480,0,1,,,,,,,,,,,,,,,0,,,73,0
9120,note_on,0,0,1,,,,,,,,,,,,,,,0,,,61,0
9120,note_on,0,0,1,,,,,,,,,,,,,,,0,,,62,70
9120,note_on,0,0,1,,,,,,,,,,,,,,,0,,,74,83
9240,note_on,120,0,1,,,,,,,,,,,,,,,0,,,74,0
9240,note_on,0,0,1,,,,,,,,,,,,,,,0,,,62,0
9360,note_on,0,0,1,,,,,,,,,,,,,,,0,,,74,83
9360,note_on,120,0,1,,,,,,,,,,,,,,,0,,,62,70
9480,note_on,120,0,1,,,,,,,,,,,,,,,0,,,74,0
9480,note_on,0,0,1,,,,,,,,,,,,,,,0,,,62,0
9600,note_on,120,0,1,,,,,,,,,,,,,,,0,,,63,77
9600,note_on,0,0,1,,,,,,,,,,,,,,,0,,,67,77
9600,note_on,0,0,1,,,,,,,,,,,,,,,0,,,72,91
9600,note_on,0,0,1,,,,,,,,,,,,,,,0,,,75,91
9600,note_on,0,0,2,,,,,,,,,,,,,,,0,,,48,62
9600,note_on,0,0,2,,,,,,,,,,,,,,,0,,,36,52
9600,note_on,950,0,2,,,,,,,,,,,,,,,0,,,43,52
9600,set_tempo,1160,1,0,,,,,,,,,,,,437956,,,,,,,
9840,note_on,0,0,2,,,,,,,,,,,,,,,0,,,43,0
9840,note_on,240,0,2,,,,,,,,,,,,,,,0,,,48,0
9840,note_on,0,0,1,,,,,,,,,,,,,,,0,,,72,0
9840,note_on,0,0,2,,,,,,,,,,,,,,,0,,,36,0
9840,note_on,0,0,1,,,,,,,,,,,,,,,0,,,63,0
9840,note_on,0,0,1,,,,,,,,,,,,,,,0,,,67,0
9840,note_on,240,0,1,,,,,,,,,,,,,,,0,,,75,0
10080,note_on,240,0,1,,,,,,,,,,,,,,,0,,,67,71
10080,note_on,0,0,1,,,,,,,,,,,,,,,0,,,64,71
10080,note_on,0,0,1,,,,,,,,,,,,,,,0,,,72,84
10080,note_on,0,0,1,,,,,,,,,,,,,,,0,,,76,84
10080,note_on,240,0,2,,,,,,,,,,,,,,,0,,,55,50
10080,note_on,0,0,2,,,,,,,,,,,,,,,0,,,48,50
10080,note_on,0,0,2,,,,,,,,,,,,,,,0,,,60,60
10320,note_on,0,0,2,,,,,,,,,,,,,,,0,,,55,0
10320,note_on,0,0,2,,,,,,,,,,,,,,,0,,,48,0
10320,note_on,240,0,2,,,,,,,,,,,,,,,0,,,60,0
10320,note_on,0,0,1,,,,,,,,,,,,,,,0,,,72,0
10320,note_on,240,0,1,,,,,,,,,,,,,,,0,,,76,0
10320,note_on,0,0,1,,,,,,,,,,,,,,,0,,,64,0
10320,note_on,0,0,1,,,,,,,,,,,,,,,0,,,67,0
10760,set_tempo,1160,1,0,,,,,,,,,,,,436364,,,,,,,
10800,set_tempo,40,1,0,,,,,,,,,,,,405405,,,,,,,
10800,note_on,480,0,1,,,,,,,,,,,,,,,0,,,55,64
10920,note_on,120,0,1,,,,,,,,,,,,,,,0,,,55,0
10920,note_on,0,0,1,,,,,,,,,,,,,,,0,,,60,66
10920,control_change,600,0,2,,,,,,,,,,,,,,,0,64,127,,
11040,note_on,120,0,1,,,,,,,,,,,,,,,0,,,60,0
11040,note_on,0,0,1,,,,,,,,,,,,,,,0,,,64,68
11040,set_tempo,240,1,0,,,,,,,,,,,,392157,,,,,,,
11160,note_on,120,0,1,,,,,,,,,,,,,,,0,,,64,0
11160,note_on,0,0,1,,,,,,,,,,,,,,,0,,,67,70
11280,note_on,0,0,1,,,,,,,,,,,,,,,0,,,72,72
11280,note_on,120,0,1,,,,,,,,,,,,,,,0,,,67,0
11400,note_on,0,0,1,,,,,,,,,,,,,,,0,,,76,74
11400,note_on,120,0,1,,,,,,,,,,,,,,,0,,,72,0
11520,note_on,600,0,2,,,,,,,,,,,,,,,0,,,36,50
11520,set_tempo,480,1,0,,,,,,,,,,,,413793,,,,,,,
11520,note_on,0,0,1,,,,,,,,,,,,,,,0,,,79,78
11520,note_on,0,0,1,,,,,,,,,,,,,,,0,,,76,66
11520,note_on,0,0,1,,,,,,,,,,,,,,,0,,,67,66
11520,note_on,0,0,2,,,,,,,,,,,,,,,0,,,48,60
11520,note_on,120,0,1,,,,,,,,,,,,,,,0,,,76,0
12000,set_tempo,480,1,0,,,,,,,,,,,,404040,,,,,,,
12000,note_on,0,0,1,,,,,,,,,,,,,,,0,,,79,70
12000,note_on,0,0,1,,,,,,,,,,,,,,,0,,,76,58
12000,note_on,0,0,1,,,,,,,,,,,,,,,0,,,67,58
12000,note_on,0,0,1,,,,,,,,,,,,,,,0,,,67,0
12000,note_on,0,0,1,,,,,,,,,,,,,,,0,,,76,0
12000,note_on,480,0,1,,,,,,,,,,,,,,,0,,,79,0
12240,note_on,0,0,1,,,,,,,,,,,,,,,0,,,76,58
12240,note_on,240,0,1,,,,,,,,,,,,,,,0,,,79,0
12240,note_on,0,0,1,,,,,,,,,,,,,,,0,,,76,0
12240,note_on,0,0,1,,,,,,,,,,,,,,,0,,,67,0
12240,note_on,0,0,1,,,,,,,,,,,,,,,0,,,79,70
12240,note_on,0,0,1,,,,,,,,,,,,,,,0,,,67,58
12480,note_on,0,0,2,,,,,,,,,,,,,,,0,,,47,53
12480,note_on,0,0,2,,,,,,,,,,,,,,,0,,,35,44
12480,note_on,0,0,2,,,,,,,,,,,,,,,0,,,36,0
12480,set_tempo,480,1,0,,,,,,,,,,,,412371,,,,,,,
12480,note_on,0,0,1,,,,,,,,,,,,,,,0,,,79,78
12480,note_on,240,0,1,,,,,,,,,,,,,,,0,,,79,0
12480,note_on,0,0,1,,,,,,,,,,,,,,,0,,,76,0
12480,note_on,0,0,1,,,,,,,,,,,,,,,0,,,67,0
12480,note_on,0,0,1,,,,,,,,,,,,,,,0,,,67,65
12480,note_on,0,0,1,,,,,,,,,,,,,,,0,,,74,65
12480,note_on,960,0,2,,,,,,,,,,,,,,,0,,,48,0
12593,control_change,113,0,2,,,,,,,,,,,,,,,0,64,0,,
12720,set_tempo,240,1,0,,,,,,,,,,,,442804,,,,,,,
12748,control_change,155,0,2,,,,,,,,,,,,,,,0,64,127,,
12960,note_on,0,0,2,,,,,,,,,,,,,,,0,,,47,57
12960,note_on,212,0,2,,,,,,,,,,,,,,,0,,,47,0
12960,note_on,0,0,2,,,,,,,,,,,,,,,0,,,59,70
12960,set_tempo,240,1,0,,,,,,,,,,,,404040,,,,,,,
12960,note_on,0,0,2,,,,,,,,,,,,,,,0,,,35,0
13200,note_on,0,0,2,,,,,,,,,,,,,,,0,,,47,0
13200,note_on,240,0,2,,,,,,,,,,,,,,,0,,,59,0
13200,note_on,0,0,2,,,,,,,,,,,,,,,0,,,47,53
13200,note_on,720,0,1,,,,,,,,,,,,,,,0,,,79,0
13200,note_on,0,0,1,,,,,,,,,,,,,,,0,,,67,0
13200,note_on,0,0,1,,,,,,,,,,,,,,,0,,,67,67
13200,note_on,0,0,1,,,,,,,,,,,,,,,0,,,74,67
13200,note_on,0,0,1,,,,,,,,,,,,,,,0,,,79,80
13200,note_on,0,0,2,,,,,,,,,,,,,,,0,,,59,65
13200,note_on,0,0,1,,,,,,,,,,,,,,,0,,,74,0
13440,note_on,240,0,1,,,,,,,,,,,,,,,0,,,79,0
13440,note_on,0,0,1,,,,,,,,,,,,,,,0,,,74,0
13440,note_on,0,0,1,,,,,,,,,,,,,,,0,,,67,0
13440,note_on,0,0,1,,,,,,,,,,,,,,,0,,,72,74
13440,note_on,0,0,1,,,,,,,,,,,,,,,0,,,79,74
13440,set_tempo,480,1,0,,,,,,,,,,,,412371,,,,,,,
13440,control_change,0,0,2,,,,,,,,,,,,,,,0,64,0,,
13440,note_on,0,0,2,,,,,,,,,,,,,,,0,,,57,72
13440,note_on,0,0,2,,,,,,,,,,,,,,,0,,,45,63
13440,note_on,0,0,2,,,,,,,,,,,,,,,0,,,47,0
13440,note_on,240,0,2,,,,,,,,,,,,,,,0,,,59,0
13440,note_on,0,0,1,,,,,,,,,,,,,,,0,,,84,88
13920,note_on,0,0,2,,,,,,,,,,,,,,,0,,,38,50
13920,note_on,0,0,2,,,,,,,,,,,,,,,0,,,45,0
13920,note_on,480,0,2,,,,,,,,,,,,,,,0,,,57,0
13920,note_on,0,0,2,,,,,,,,,,,,,,,0,,,50,61
13920,note_on,0,0,1,,,,,,,,,,,,,,,0,,,84,75
13920,note_on,0,0,1,,,,,,,,,,,,,,,0,,,78,63
13920,note_on,0,0,1,,,,,,,,,,,,,,,0,,,72,63
13920,note_on,0,0,1,,,,,,,,,,,,,,,0,,,72,0
13920,note_on,0,0,1,,,,,,,,,,,,,,,0,,,79,0
13920,note_on,480,0,1,,,,,,,,,,,,,,,0,,,84,0
14160,note_on,0,0,1,,,,,,,,,,,,,,,0,,,72,61
14160,note_on,0,0,1,,,,,,,,,,,,,,,0,,,72,0
14160,note_on,0,0,1,,,,,,,,,,,,,,,0,,,78,0
14160,note_on,240,0,1,,,,,,,,,,,,,,,0,,,84,0
14160,note_on,0,0,1,,,,,,,,,,,,,,,0,,,84,73
14160,note_on,0,0,1,,,,,,,,,,,,,,,0,,,78,61
14400,set_tempo,960,1,0,,,,,,,,,,,,427046,,,,,,,
14400,note_on,480,0,2,,,,,,,,,,,,,,,0,,,50,0
14400,note_on,0,0,2,,,,,,,,,,,,,,,0,,,38,0
14400,note_on,0,0,2,,,,,,,,,,,,,,,0,,,43,48
14400,note_on,0,0,2,,,,,,,,,,,,,,,0,,,55,59
14400,note_on,240,0,1,,,,,,,,,,,,,,,0,,,84,0
14400,note_on,0,0,1,,,,,,,,,,,,,,,0,,,78,0
14400,note_on,0,0,1,,,,,,,,,,,,,,,0,,,72,0
14400,note_on,0,0,1,,,,,,,,,,,,,,,0,,,71,64
14400,note_on,0,0,1,,,,,,,,,,,,,,,0,,,79,64
14400,note_on,0,0,1,,,,,,,,,,,,,,,0,,,83,76
14638,note_on,238,0,2,,,,,,,,,,,,,,,0,,,55,0
14640,note_on,0,0,1,,,,,,,,,,,,,,,0,,,79,0
14640,note_on,240,0,1,,,,,,,,,,,,,,,0,,,83,0
14640,note_on,0,0,1,,,,,,,,,,,,,,,0,,,71,0
14640,set_tempo,240,1,0,,,,,,,,,,,,402685,,,,,,,
14640,note_on,2,0,2,,,,,,,,,,,,,,,0,,,43,0
14640,note_on,0,0,1,,,,,,,,,,,,,,,0,,,55,64
14760,note_on,120,0,1,,,,,,,,,,,,,,,0,,,55,0
14760,note_on,0,0,1,,,,,,,,,,,,,,,0,,,60,66
14760,control_change,120,0,2,,,,,,,,,,,,,,,0,64,127,,
14880,note_on,0,0,1,,,,,,,,,,,,,,,0,,,64,68
14880,set_tempo,240,1,0,,,,,,,,,,,,392157,,,,,,,
14880,note_on,120,0,1,,,,,,,,,,,,,,,0,,,60,0
15000,note_on,120,0,1,,,,,,,,,,,,,,,0,,,64,0
15000,note_on,0,0,1,,,,,,,,,,,,,,,0,,,67,70
15120,note_on,120,0,1,,,,,,,,,,,,,,,0,,,67,0
15120,note_on,0,0,1,,,,,,,,,,,,,,,0,,,72,72
15240,note_on,120,0,1,,,,,,,,,,,,,,,0,,,72,0
15240,note_on,0,0,1,,,,,,,,,,,,,,,0,,,76,74
15360,note_on,120,0,1,,,,,,,,,,,,,,,0,,,76,0
15360,note_on,0,0,1,,,,,,,,,,,,,,,0,,,76,66
15360,set_tempo,480,1,0,,,,,,,,,,,,413793,,,,,,,
15360,note_on,0,0,1,,,,,,,,,,,,,,,0,,,67,66
15360,note_on,0,0,1,,,,,,,,,,,,,,,0,,,79,78
15360,note_on,600,0,2,,,,,,,,,,,,,,,0,,,36,50
15360,note_on,0,0,2,,,,,,,,,,,,,,,0,,,48,60
15840,note_on,0,0,1,,,,,,,,,,,,,,,0,,,67,0
15840,note_on,0,0,1,,,,,,,,,,,,,,,0,,,67,58
15840,note_on,480,0,1,,,,,,,,,,,,,,,0,,,79,0
15840,note_on,0,0,1,,,,,,,,,,,,,,,0,,,76,58
15840,note_on,0,0,1,,,,,,,,,,,,,,,0,,,76,0
15840,note_on,0,0,1,,,,,,,,,,,,,,,0,,,79,70
15840,set_tempo,480,1,0,,,,,,,,,,,,404040,,,,,,,
16080,note_on,240,0,1,,,,,,,,,,,,,,,0,,,79,0
16080,note_on,0,0,1,,,,,,,,,,,,,,,0,,,76,0
16080,note_on,0,0,1,,,,,,,,,,,,,,,0,,,67,0
16080,note_on,0,0,1,,,,,,,,,,,,,,,0,,,76,58
16080,note_on,0,0,1,,,,,,,,,,,,,,,0,,,67,58
16080,note_on,0,0,1,,,,,,,,,,,,,,,0,,,79,70
16320,note_on,240,0,1,,,,,,,,,,,,,,,0,,,79,0
16320,note_on,0,0,1,,,,,,,,,,,,,,,0,,,76,0
16320,note_on,0,0,1,,,,,,,,,,,,,,,0,,,67,0
16320,note_on,0,0,1,,,,,,,,,,,,,,,0,,,67,65
16320,note_on,0,0,2,,,,,,,,,,,,,,,0,,,47,53
16320,set_tempo,480,1,0,,,,,,,,,,,,412371,,,,,,,
16320,note_on,0,0,1,,,,,,,,,,,,,,,0,,,74,65
16320,note_on,0,0,1,,,,,,,,,,,,,,,0,,,79,78
16320,note_on,0,0,2,,,,,,,,,,,,,,,0,,,35,44
16320,note_on,0,0,2,,,,,,,,,,,,,,,0,,,36,0
16320,note_on,960,0,2,,,,,,,,,,,,,,,0,,,48,0
16433,control_change,113,0,2,,,,,,,,,,,,,,,0,64,0,,
16560,set_tempo,240,1,0,,,,,,,,,,,,442804,,,,,,,
16588,control_change,155,0,2,,,,,,,,,,,,,,,0,64,127,,
16800,note_on,212,0,2,,,,,,,,,,,,,,,0,,,47,0
16800,note_on,0,0,2,,,,,,,,,,,,,,,0,,,47,55
16800,set_tempo,240,1,0,,,,,,,,,,,,404040,,,,,,,
16800,note_on,0,0,2,,,,,,,,,,,,,,,0,,,35,0
16800,note_on,0,0,2,,,,,,,,,,,,,,,0,,,59,67
17040,note_on,240,0,2,,,,,,,,,,,,,,,0,,,59,0
17040,note_on,0,0,1,,,,,,,,,,,,,,,0,,,79,80
17040,note_on,0,0,1,,,,,,,,,,,,,,,0,,,74,67
17040,note_on,0,0,1,,,,,,,,,,,,,,,0,,,67,67
17040,note_on,0,0,1,,,,,,,,,,,,,,,0,,,67,0
17040,note_on,0,0,1,,,,,,,,,,,,,,,0,,,74,0
17040,note_on,0,0,2,,,,,,,,,,,,,,,0,,,59,65
17040,note_on,0,0,2,,,,,,,,,,,,,,,0,,,47,0
17040,note_on,720,0,1,,,,,,,,,,,,,,,0,,,79,0
17040,note_on,0,0,2,,,,,,,,,,,,,,,0,,,47,53
17280,set_tempo,480,1,0,,,,,,,,,,,,412371,,,,,,,
17280,note_on,0,0,1,,,,,,,,,,,,,,,0,,,79,74
17280,note_on,0,0,1,,,,,,,,,,,,,,,0,,,72,74
17280,note_on,0,0,1,,,,,,,,,,,,,,,0,,,67,0
17280,note_on,0,0,1,,,,,,,,,,,,,,,0,,,74,0
17280,note_on,240,0,1,,,,,,,,,,,,,,,0,,,79,0
17280,control_change,0,0,2,,,,,,,,,,,,,,,0,64,0,,
17280,note_on,240,0,2,,,,,,,,,,,,,,,0,,,59,0
17280,note_on,0,0,2,,,,,,,,,,,,,,,0,,,47,0
17280,note_on,0,0,1,,,,,,,,,,,,,,,0,,,84,88
17280,note_on,0,0,2,,,,,,,,,,,,,,,0,,,57,72
17280,note_on,0,0,2,,,,,,,,,,,,,,,0,,,45,63
17760,note_on,0,0,2,,,,,,,,,,,,,,,0,,,50,61
17760,note_on,0,0,2,,,,,,,,,,,,,,,0,,,38,50
17760,note_on,0,0,2,,,,,,,,,,,,,,,0,,,45,0
17760,note_on,480,0,2,,,,,,,,,,,,,,,0,,,57,0
17760,note_on,480,0,1,,,,,,,,,,,,,,,0,,,84,0
17760,note_on,0,0,1,,,,,,,,,,,,,,,0,,,79,0
17760,note_on,0,0,1,,,,,,,,,,,,,,,0,,,72,0
17760,note_on,0,0,1,,,,,,,,,,,,,,,0,,,72,63
17760,note_on,0,0,1,,,,,,,,,,,,,,,0,,,78,63
17760,note_on,0,0,1,,,,,,,,,,,,,,,0,,,84,75
18000,note_on,0,0,1,,,,,,,,,,,,,,,0,,,84,73
18000,note_on,0,0,1,,,,,,,,,,,,,,,0,,,78,61
18000,note_on,0,0,1,,,,,,,,,,,,,,,0,,,78,0
18000,note_on,0,0,1,,,,,,,,,,,,,,,0,,,72,0
18000,note_on,240,0,1,,,,,,,,,,,,,,,0,,,84,0
18000,note_on,0,0,1,,,,,,,,,,,,,,,0,,,72,61
18240,note_on,0,0,1,,,,,,,,,,,,,,,0,,,83,76
18240,note_on,0,0,1,,,,,,,,,,,,,,,0,,,79,64
18240,note_on,0,0,1,,,,,,,,,,,,,,,0,,,71,64
18240,note_on,0,0,2,,,,,,,,,,,,,,,0,,,55,59
18240,note_on,0,0,2,,,,,,,,,,,,,,,0,,,43,48
18240,note_on,0,0,2,,,,,,,,,,,,,,,0,,,38,0
18240,note_on,480,0,2,,,,,,,,,,,,,,,0,,,50,0
18240,note_on,0,0,1,,,,,,,,,,,,,,,0,,,72,0
18240,note_on,0,0,1,,,,,,,,,,,,,,,0,,,78,0
18240,note_on,240,0,1,,,,,,,,,,,,,,,0,,,84,0
18480,note_on,240,0,2,,,,,,,,,,,,,,,0,,,55,0
18480,note_on,0,0,2,,,,,,,,,,,,,,,0,,,43,0
18480,note_on,240,0,1,,,,,,,,,,,,,,,0,,,83,0
18480,note_on,0,0,1,,,,,,,,,,,,,,,0,,,79,0
18480,note_on,0,0,1,,,,,,,,,,,,,,,0,,,71,0
18480,note_on,0,0,1,,,,,,,,,,,,,,,0,,,60,64
18480,set_tempo,1200,1,0,,,,,,,,,,,,402685,,,,,,,
18600,note_on,120,0,1,,,,,,,,,,,,,,,0,,,60,0
18600,note_on,0,0,1,,,,,,,,,,,,,,,0,,,65,66
18600,control_change,120,0,2,,,,,,,,,,,,,,,0,64,127,,
18720,note_on,0,0,1,,,,,,,,,,,,,,,0,,,69,68
18720,note_on,120,0,1,,,,,,,,,,,,,,,0,,,65,0
18720,set_tempo,240,1,0,,,,,,,,,,,,392157,,,,,,,
18840,note_on,0,0,1,,,,,,,,,,,,,,,0,,,72,70
18840,note_on,120,0,1,,,,,,,,,,,,,,,0,,,69,0
18960,note_on,0,0,1,,,,,,,,,,,,,,,0,,,77,72
18960,note_on,120,0,1,,,,,,,,,,,,,,,0,,,72,0
19080,note_on,0,0,1,,,,,,,,,,,,,,,0,,,81,74
19080,note_on,120,0,1,,,,,,,,,,,,,,,0,,,77,0
19200,note_on,0,0,1,,,,,,,,,,,,,,,0,,,72,72
19200,note_on,120,0,1,,,,,,,,,,,,,,,0,,,81,0
19200,set_tempo,480,1,0,,,,,,,,,,,,413793,,,,,,,
19200,note_on,0,0,1,,,,,,,,,,,,,,,0,,,84,85
19200,note_on,0,0,1,,,,,,,,,,,,,,,0,,,81,72
19200,note_on,0,0,2,,,,,,,,,,,,,,,0,,,53,60
19200,note_on,600,0,2,,,,,,,,,,,,,,,0,,,41,50
19680,note_on,480,0,1,,,,,,,,,,,,,,,0,,,84,0
19680,note_on,0,0,1,,,,,,,,,,,,,,,0,,,81,0
19680,set_tempo,480,1,0,,,,,,,,,,,,404040,,,,,,,
19680,note_on,0,0,1,,,,,,,,,,,,,,,0,,,81,63
19680,note_on,0,0,1,,,,,,,,,,,,,,,0,,,72,63
19680,note_on,0,0,1,,,,,,,,,,,,,,,0,,,72,0
19680,note_on,0,0,1,,,,,,,,,,,,,,,0,,,84,77
19920,note_on,240,0,1,,,,,,,,,,,,,,,0,,,84,0
19920,note_on,0,0,1,,,,,,,,,,,,,,,0,,,84,77
19920,note_on,0,0,1,,,,,,,,,,,,,,,0,,,81,63
19920,note_on,0,0,1,,,,,,,,,,,,,,,0,,,72,63
19920,note_on,0,0,1,,,,,,,,,,,,,,,0,,,72,0
19920,note_on,0,0,1,,,,,,,,,,,,,,,0,,,81,0
20160,note_on,0,0,2,,,,,,,,,,,,,,,0,,,40,44
20160,set_tempo,480,1,0,,,,,,,,,,,,412371,,,,,,,
20160,note_on,0,0,2,,,,,,,,,,,,,,,0,,,41,0
20160,note_on,0,0,1,,,,,,,,,,,,,,,0,,,72,0
20160,note_on,0,0,1,,,,,,,,,,,,,,,0,,,72,71
20160,note_on,0,0,1,,,,,,,,,,,,,,,0,,,79,71
20160,note_on,0,0,1,,,,,,,,,,,,,,,0,,,84,85
20160,note_on,960,0,2,,,,,,,,,,,,,,,0,,,53,0
20160,note_on,0,0,2,,,,,,,,,,,,,,,0,,,52,53
20160,note_on,240,0,1,,,,,,,,,,,,,,,0,,,84,0
20160,note_on,0,0,1,,,,,,,,,,,,,,,0,,,81,0
20170,control_change,10,0,2,,,,,,,,,,,,,,,0,64,0,,
20400,set_tempo,240,1,0,,,,,,,,,,,,442804,,,,,,,
20428,control_change,258,0,2,,,,,,,,,,,,,,,0,64,127,,
20640,set_tempo,240,1,0,,,,,,,,,,,,427046,,,,,,,
20640,note_on,212,0,2,,,,,,,,,,,,,,,0,,,52,0
20640,note_on,0,0,2,,,,,,,,,,,,,,,0,,,40,0
20640,note_on,0,0,2,,,,,,,,,,,,,,,0,,,52,57
20640,note_on,0,0,2,,,,,,,,,,,,,,,0,,,64,70
20880,note_on,0,0,2,,,,,,,,,,,,,,,0,,,52,53
20880,note_on,0,0,2,,,,,,,,,,,,,,,0,,,64,65
20880,note_on,240,0,2,,,,,,,,,,,,,,,0,,,64,0
20880,note_on,0,0,2,,,,,,,,,,,,,,,0,,,52,0
20880,note_on,0,0,1,,,,,,,,,,,,,,,0,,,84,88
20880,note_on,0,0,1,,,,,,,,,,,,,,,0,,,79,73
20880,note_on,0,0,1,,,,,,,,,,,,,,,0,,,72,73
20880,note_on,0,0,1,,,,,,,,,,,,,,,0,,,72,0
20880,note_on,0,0,1,,,,,,,,,,,,,,,0,,,79,0
20880,note_on,720,0,1,,,,,,,,,,,,,,,0,,,84,0
21120,note_on,0,0,1,,,,,,,,,,,,,,,0,,,79,0
21120,note_on,0,0,1,,,,,,,,,,,,,,,0,,,84,81
21120,note_on,0,0,1,,,,,,,,,,,,,,,0,,,89,96
21120,note_on,240,0,1,,,,,,,,,,,,,,,0,,,84,0
21120,note_on,0,0,1,,,,,,,,,,,,,,,0,,,72,0
21120,note_on,0,0,1,,,,,,,,,,,,,,,0,,,77,81
21120,set_tempo,480,1,0,,,,,,,,,,,,412371,,,,,,,
21120,control_change,0,0,2,,,,,,,,,,,,,,,0,64,0,,
21120,note_on,0,0,2,,,,,,,,,,,,,,,0,,,62,72
21120,note_on,0,0,2,,,,,,,,,,,,,,,0,,,50,63
21120,note_on,0,0,2,,,,,,,,,,,,,,,0,,,52,0
21120,note_on,240,0,2,,,,,,,,,,,,,,,0,,,64,0
21600,note_on,480,0,2,,,,,,,,,,,,,,,0,,,62,0
21600,note_on,0,0,2,,,,,,,,,,,,,,,0,,,55,67
21600,note_on,0,0,2,,,,,,,,,,,,,,,0,,,43,54
21600,note_on,0,0,2,,,,,,,,,,,,,,,0,,,50,0
21600,note_on,480,0,1,,,,,,,,,,,,,,,0,,,89,0
21600,note_on,0,0,1,,,,,,,,,,,,,,,0,,,84,0
21600,note_on,0,0,1,,,,,,,,,,,,,,,0,,,77,75
21600,note_on,0,0,1,,,,,,,,,,,,,,,0,,,83,75
21600,note_on,0,0,1,,,,,,,,,,,,,,,0,,,89,90
21600,note_on,0,0,1,,,,,,,,,,,,,,,0,,,77,0
21840,note_on,0,0,1,,,,,,,,,,,,,,,0,,,77,73
21840,note_on,0,0,1,,,,,,,,,,,,,,,0,,,77,0
21840,note_on,0,0,1,,,,,,,,,,,,,,,0,,,83,0
21840,note_on,240,0,1,,,,,,,,,,,,,,,0,,,89,0
21840,note_on,0,0,1,,,,,,,,,,,,,,,0,,,89,88
21840,note_on,0,0,1,,,,,,,,,,,,,,,0,,,83,73
22080,note_on,0,0,2,,,,,,,,,,,,,,,0,,,48,52
22080,note_on,0,0,2,,,,,,,,,,,,,,,0,,,60,65
22080,note_on,0,0,1,,,,,,,,,,,,,,,0,,,88,92
22080,note_on,0,0,1,,,,,,,,,,,,,,,0,,,83,76
22080,note_on,0,0,1,,,,,,,,,,,,,,,0,,,76,76
22080,note_on,0,0,1,,,,,,,,,,,,,,,0,,,77,0
22080,note_on,0,0,1,,,,,,,,,,,,,,,0,,,83,0
22080,note_on,240,0,1,,,,,,,,,,,,,,,0,,,89,0
22080,note_on,0,0,2,,,,,,,,,,,,,,,0,,,43,0
22080,note_on,480,0,2,,,,,,,,,,,,,,,0,,,55,0
22560,note_on,0,0,2,,,,,,,,,,,,,,,0,,,41,57
22560,note_on,0,0,2,,,,,,,,,,,,,,,0,,,48,0
22560,note_on,0,0,2,,,,,,,,,,,,,,,0,,,53,70
22560,note_on,480,0,2,,,,,,,,,,,,,,,0,,,60,0
22560,note_on,0,0,1,,,,,,,,,,,,,,,0,,,76,0
22560,note_on,0,0,1,,,,,,,,,,,,,,,0,,,81,73
22560,note_on,0,0,1,,,,,,,,,,,,,,,0,,,88,88
22560,set_tempo,1440,1,0,,,,,,,,,,,,404040,,,,,,,
22560,note_on,0,0,1,,,,,,,,,,,,,,,0,,,83,0
22560,note_on,480,0,1,,,,,,,,,,,,,,,0,,,88,0
22560,note_on,0,0,1,,,,,,,,,,,,,,,0,,,76,73
22800,note_on,0,0,2,,,,,,,,,,,,,,,0,,,41,53
22800,note_on,0,0,2,,,,,,,,,,,,,,,0,,,41,0
22800,note_on,0,0,2,,,,,,,,,,,,,,,0,,,53,65
22800,note_on,240,0,2,,,,,,,,,,,,,,,0,,,53,0
23040,note_on,0,0,2,,,,,,,,,,,,,,,0,,,41,0
23040,note_on,240,0,2,,,,,,,,,,,,,,,0,,,53,0
23040,note_on,0,0,1,,,,,,,,,,,,,,,0,,,86,95
23040,note_on,0,0,1,,,,,,,,,,,,,,,0,,,81,81
23040,note_on,0,0,1,,,,,,,,,,,,,,,0,,,74,81
23040,note_on,0,0,1,,,,,,,,,,,,,,,0,,,88,0
23040,note_on,0,0,1,,,,,,,,,,,,,,,0,,,81,0
23040,note_on,480,0,1,,,,,,,,,,,,,,,0,,,76,0
23040,note_on,0,0,2,,,,,,,,,,,,,,,0,,,47,62
23040,note_on,0,0,2,,,,,,,,,,,,,,,0,,,59,71
23040,control_change,0,0,2,,,,,,,,,,,,,,,0,64,0,,
23040,set_tempo,480,1,0,,,,,,,,,,,,412371,,,,,,,
23520,note_on,0,0,1,,,,,,,,,,,,,,,0,,,81,0
23520,note_on,480,0,1,,,,,,,,,,,,,,,0,,,86,0
23520,note_on,0,0,1,,,,,,,,,,,,,,,0,,,80,74
23520,note_on,0,0,2,,,,,,,,,,,,,,,0,,,52,65
23520,note_on,0,0,1,,,,,,,,,,,,,,,0,,,74,74
23520,note_on,0,0,2,,,,,,,,,,,,,,,0,,,47,0
23520,note_on,480,0,2,,,,,,,,,,,,,,,0,,,59,0
23520,note_on,0,0,1,,,,,,,,,,,,,,,0,,,86,88
23520,note_on,0,0,1,,,,,,,,,,,,,,,0,,,74,0
23520,note_on,0,0,2,,,,,,,,,,,,,,,0,,,40,53
23760,note_on,240,0,1,,,,,,,,,,,,,,,0,,,86,0
23760,note_on,0,0,1,,,,,,,,,,,,,,,0,,,80,0
23760,note_on,0,0,1,,,,,,,,,,,,,,,0,,,74,0
23760,note_on,0,0,1,,,,,,,,,,,,,,,0,,,74,71
23760,note_on,0,0,1,,,,,,,,,,,,,,,0,,,80,71
23760,note_on,0,0,1,,,,,,,,,,,,,,,0,,,86,85
24000,note_on,0,0,2,,,,,,,,,,,,,,,0,,,57,63
24000,note_on,0,0,2,,,,,,,,,,,,,,,0,,,45,51
24000,note_on,480,0,2,,,,,,,,,,,,,,,0,,,52,0
24000,note_on,240,0,1,,,,,,,,,,,,,,,0,,,86,0
24000,note_on,0,0,1,,,,,,,,,,,,,,,0,,,80,0
24000,note_on,0,0,1,,,,,,,,,,,,,,,0,,,74,0
24000,note_on,0,0,1,,,,,,,,,,,,,,,0,,,72,74
24000,note_on,0,0,1,,,,,,,,,,,,,,,0,,,81,74
24000,note_on,0,0,1,,,,,,,,,,,,,,,0,,,84,89
24000,note_on,0,0,2,,,,,,,,,,,,,,,0,,,40,0
24480,set_tempo,1440,1,0,,,,,,,,,,,,413793,,,,,,,
24480,note_on,480,0,1,,,,,,,,,,,,,,,0,,,84,0
24480,note_on,0,0,1,,,,,,,,,,,,,,,0,,,81,0
24480,note_on,0,0,1,,,,,,,,,,,,,,,0,,,69,56
24480,note_on,0,0,1,,,,,,,,,,,,,,,0,,,72,56
24480,note_on,0,0,1,,,,,,,,,,,,,,,0,,,72,0
24480,note_on,0,0,2,,,,,,,,,,,,,,,0,,,45,53
24480,note_on,0,0,2,,,,,,,,,,,,,,,0,,,33,44
24480,note_on,0,0,2,,,,,,,,,,,,,,,0,,,45,0
24480,note_on,480,0,2,,,,,,,,,,,,,,,0,,,57,0
24480,note_on,0,0,1,,,,,,,,,,,,,,,0,,,81,67
24600,note_on,0,0,2,,,,,,,,,,,,,,,0,,,33,0
24600,note_on,120,0,2,,,,,,,,,,,,,,,0,,,45,0
24720,note_on,0,0,2,,,,,,,,,,,,,,,0,,,43,49
24720,note_on,120,0,2,,,,,,,,,,,,,,,0,,,31,40
24840,note_on,0,0,2,,,,,,,,,,,,,,,0,,,31,0
24840,note_on,120,0,2,,,,,,,,,,,,,,,0,,,43,0
24960,note_on,480,0,1,,,,,,,,,,,,,,,0,,,69,0
24960,note_on,0,0,1,,,,,,,,,,,,,,,0,,,72,0
24960,note_on,0,0,1,,,,,,,,,,,,,,,0,,,69,35
24960,note_on,0,0,1,,,,,,,,,,,,,,,0,,,76,42
24960,note_on,0,0,1,,,,,,,,,,,,,,,0,,,81,0
24960,note_on,0,0,2,,,,,,,,,,,,,,,0,,,29,34
24960,set_tempo,480,1,0,,,,,,,,,,,,418118,,,,,,,
24960,control_change,120,0,2,,,,,,,,,,,,,,,0,64,127,,
25040,set_tempo,80,1,0,,,,,,,,,,,,416667,,,,,,,
25080,note_on,120,0,1,,,,,,,,,,,,,,,0,,,76,0
25080,note_on,0,0,1,,,,,,,,,,,,,,,0,,,69,0
25080,note_on,0,0,1,,,,,,,,,,,,,,,0,,,81,44
25080,note_on,0,0,2,,,,,,,,,,,,,,,0,,,41,35
25080,note_on,120,0,2,,,,,,,,,,,,,,,0,,,29,0
25120,set_tempo,80,1,0,,,,,,,,,,,,415225,,,,,,,
25160,set_tempo,40,1,0,,,,,,,,,,,,413793,,,,,,,
25200,note_on,0,0,2,,,,,,,,,,,,,,,0,,,29,37
25200,note_on,0,0,1,,,,,,,,,,,,,,,0,,,76,45
25200,note_on,0,0,1,,,,,,,,,,,,,,,0,,,69,38
25200,note_on,120,0,1,,,,,,,,,,,,,,,0,,,81,0
25200,note_on,120,0,2,,,,,,,,,,,,,,,0,,,41,0
25240,set_tempo,80,1,0,,,,,,,,,,,,412371,,,,,,,
25280,set_tempo,40,1,0,,,,,,,,,,,,410959,,,,,,,
25320,note_on,0,0,1,,,,,,,,,,,,,,,0,,,81,47
25320,note_on,0,0,1,,,,,,,,,,,,,,,0,,,69,0
25320,note_on,120,0,1,,,,,,,,,,,,,,,0,,,76,0
25320,note_on,0,0,2,,,,,,,,,,,,,,,0,,,41,38
25320,note_on,120,0,2,,,,,,,,,,,,,,,0,,,29,0
25360,set_tempo,80,1,0,,,,,,,,,,,,409556,,,,,,,
25440,note_on,120,0,1,,,,,,,,,,,,,,,0,,,81,0
25440,note_on,0,0,1,,,,,,,,,,,,,,,0,,,76,49
25440,note_on,0,0,1,,,,,,,,,,,,,,,0,,,69,41
25440,set_tempo,80,1,0,,,,,,,,,,,,408163,,,,,,,
25440,note_on,120,0,2,,,,,,,,,,,,,,,0,,,41,0
25440,note_on,0,0,2,,,,,,,,,,,,,,,0,,,29,39
25480,set_tempo,40,1,0,,,,,,,,,,,,406780,,,,,,,
25560,note_on,0,0,1,,,,,,,,,,,,,,,0,,,81,51
25560,note_on,0,0,1,,,,,,,,,,,,,,,0,,,69,0
25560,note_on,120,0,1,,,,,,,,,,,,,,,0,,,76,0
25560,note_on,120,0,2,,,,,,,,,,,,,,,0,,,29,0
25560,note_on,0,0,2,,,,,,,,,,,,,,,0,,,41,41
25560,set_tempo,80,1,0,,,,,,,,,,,,405405,,,,,,,
25600,set_tempo,40,1,0,,,,,,,,,,,,404040,,,,,,,
25680,set_tempo,80,1,0,,,,,,,,,,,,402685,,,,,,,
25680,note_on,0,0,1,,,,,,,,,,,,,,,0,,,69,45
25680,note_on,120,0,1,,,,,,,,,,,,,,,0,,,81,0
25680,note_on,0,0,2,,,,,,,,,,,,,,,0,,,29,42
25680,note_on,120,0,2,,,,,,,,,,,,,,,0,,,41,0
25680,note_on,0,0,1,,,,,,,,,,,,,,,0,,,76,53
25760,set_tempo,80,1,0,,,,,,,,,,,,401338,,,,,,,
25800,note_on,0,0,2,,,,,,,,,,,,,,,0,,,41,44
25800,note_on,120,0,2,,,,,,,,,,,,,,,0,,,29,0
25800,set_tempo,40,1,0,,,,,,,,,,,,400000,,,,,,,
25800,note_on,120,0,1,,,,,,,,,,,,,,,0,,,76,0
25800,note_on,0,0,1,,,,,,,,,,,,,,,0,,,81,54
25800,note_on,0,0,1,,,,,,,,,,,,,,,0,,,69,0
25880,set_tempo,80,1,0,,,,,,,,,,,,398671,,,,,,,
25920,set_tempo,40,1,0,,,,,,,,,,,,397351,,,,,,,
25920,note_on,0,0,1,,,,,,,,,,,,,,,0,,,76,56
25920,note_on,0,0,1,,,,,,,,,,,,,,,0,,,69,47
25920,note_on,120,0,1,,,,,,,,,,,,,,,0,,,81,0
25920,note_on,120,0,2,,,,,,,,,,,,,,,0,,,41,0
25920,note_on,0,0,2,,,,,,,,,,,,,,,0,,,29,45
26040,note_on,120,0,2,,,,,,,,,,,,,,,0,,,29,0
26040,note_on,0,0,1,,,,,,,,,,,,,,,0,,,69,0
26040,note_on,120,0,1,,,,,,,,,,,,,,,0,,,76,0
26040,note_on,0,0,1,,,,,,,,,,,,,,,0,,,81,58
26040,note_on,0,0,2,,,,,,,,,,,,,,,0,,,41,47
26040,set_tempo,120,1,0,,,,,,,,,,,,396040,,,,,,,
26160,note_on,0,0,2,,,,,,,,,,,,,,,0,,,29,48
26160,note_on,0,0,1,,,,,,,,,,,,,,,0,,,76,60
26160,note_on,0,0,1,,,,,,,,,,,,,,,0,,,69,51
26160,note_on,120,0,1,,,,,,,,,,,,,,,0,,,81,0
26160,note_on,120,0,2,,,,,,,,,,,,,,,0,,,41,0
26240,set_tempo,200,1,0,,,,,,,,,,,,394737,,,,,,,
26280,note_on,120,0,1,,,,,,,,,,,,,,,0,,,76,0
26280,note_on,0,0,2,,,,,,,,,,,,,,,0,,,41,50
26280,note_on,0,0,1,,,,,,,,,,,,,,,0,,,69,0
26280,note_on,120,0,2,,,,,,,,,,,,,,,0,,,29,0
26280,note_on,0,0,1,,,,,,,,,,,,,,,0,,,81,62
26400,note_on,120,0,2,,,,,,,,,,,,,,,0,,,41,0
26400,note_on,0,0,2,,,,,,,,,,,,,,,0,,,29,51
26400,note_on,120,0,1,,,,,,,,,,,,,,,0,,,81,0
26400,note_on,0,0,1,,,,,,,,,,,,,,,0,,,76,63
26400,note_on,0,0,1,,,,,,,,,,,,,,,0,,,69,53
26480,set_tempo,240,1,0,,,,,,,,,,,,393443,,,,,,,
26520,note_on,120,0,2,,,,,,,,,,,,,,,0,,,29,0
26520,note_on,0,0,1,,,,,,,,,,,,,,,0,,,81,65
26520,note_on,0,0,2,,,,,,,,,,,,,,,0,,,41,52
26520,note_on,120,0,1,,,,,,,,,,,,,,,0,,,76,0
26520,note_on,0,0,1,,,,,,,,,,,,,,,0,,,69,0
26640,note_on,0,0,2,,,,,,,,,,,,,,,0,,,29,54
26640,note_on,0,0,1,,,,,,,,,,,,,,,0,,,76,67
26640,note_on,120,0,1,,,,,,,,,,,,,,,0,,,81,0
26640,note_on,0,0,1,,,,,,,,,,,,,,,0,,,69,56
26640,note_on,120,0,2,,,,,,,,,,,,,,,0,,,41,0
26680,set_tempo,200,1,0,,,,,,,,,,,,392157,,,,,,,
26760,note_on,120,0,2,,,,,,,,,,,,,,,0,,,29,0
26760,note_on,0,0,2,,,,,,,,,,,,,,,0,,,41,55
26760,note_on,120,0,1,,,,,,,,,,,,,,,0,,,76,0
26760,note_on,0,0,1,,,,,,,,,,,,,,,0,,,69,0
26760,note_on,0,0,1,,,,,,,,,,,,,,,0,,,81,69
26880,note_on,120,0,2,,,,,,,,,,,,,,,0,,,41,0
26880,note_on,0,0,2,,,,,,,,,,,,,,,0,,,42,61
26880,set_tempo,200,1,0,,,,,,,,,,,,388350,,,,,,,
26880,note_on,0,0,1,,,,,,,,,,,,,,,0,,,75,73
26880,note_on,0,0,1,,,,,,,,,,,,,,,0,,,69,62
26880,note_on,120,0,1,,,,,,,,,,,,,,,0,,,81,0
26909,control_change,29,0,2,,,,,,,,,,,,,,,0,64,0,,
26926,control_change,17,0,2,,,,,,,,,,,,,,,0,64,127,,
27000,note_on,74,0,2,,,,,,,,,,,,,,,0,,,42,0
27000,note_on,120,0,1,,,,,,,,,,,,,,,0,,,75,0
27000,note_on,0,0,1,,,,,,,,,,,,,,,0,,,69,0
27000,note_on,0,0,1,,,,,,,,,,,,,,,0,,,81,74
27000,note_on,0,0,2,,,,,,,,,,,,,,,0,,,43,62
27040,set_tempo,160,1,0,,,,,,,,,,,,387097,,,,,,,
27120,note_on,0,0,1,,,,,,,,,,,,,,,0,,,69,63
27120,note_on,120,0,2,,,,,,,,,,,,,,,0,,,43,0
27120,note_on,0,0,2,,,,,,,,,,,,,,,0,,,44,63
27120,note_on,120,0,1,,,,,,,,,,,,,,,0,,,81,0
27120,note_on,0,0,1,,,,,,,,,,,,,,,0,,,75,75
27160,set_tempo,120,1,0,,,,,,,,,,,,385852,,,,,,,
27240,note_on,120,0,2,,,,,,,,,,,,,,,0,,,44,0
27240,note_on,0,0,2,,,,,,,,,,,,,,,0,,,45,64
27240,note_on,120,0,1,,,,,,,,,,,,,,,0,,,75,0
27240,note_on,0,0,1,,,,,,,,,,,,,,,0,,,81,76
27240,note_on,0,0,1,,,,,,,,,,,,,,,0,,,69,0
27320,set_tempo,160,1,0,,,,,,,,,,,,384615,,,,,,,
27360,note_on,0,0,1,,,,,,,,,,,,,,,0,,,75,78
27360,note_on,0,0,1,,,,,,,,,,,,,,,0,,,69,66
27360,note_on,120,0,1,,,,,,,,,,,,,,,0,,,81,0
27360,note_on,0,0,2,,,,,,,,,,,,,,,0,,,46,66
27360,note_on,120,0,2,,,,,,,,,,,,,,,0,,,45,0
27440,set_tempo,120,1,0,,,,,,,,,,,,383387,,,,,,,
27480,note_on,120,0,2,,,,,,,,,,,,,,,0,,,46,0
27480,note_on,0,0,2,,,,,,,,,,,,,,,0,,,47,67
27480,note_on,0,0,1,,,,,,,,,,,,,,,0,,,81,80
27480,note_on,0,0,1,,,,,,,,,,,,,,,0,,,69,0
27480,note_on,120,0,1,,,,,,,,,,,,,,,0,,,75,0
27600,note_on,0,0,2,,,,,,,,,,,,,,,0,,,48,69
27600,note_on,0,0,1,,,,,,,,,,,,,,,0,,,75,81
27600,note_on,120,0,1,,,,,,,,,,,,,,,0,,,81,0
27600,note_on,120,0,2,,,,,,,,,,,,,,,0,,,47,0
27600,note_on,0,0,1,,,,,,,,,,,,,,,0,,,69,69
27640,set_tempo,200,1,0,,,,,,,,,,,,384615,,,,,,,
27720,note_on,0,0,1,,,,,,,,,,,,,,,0,,,69,0
27720,note_on,0,0,1,,,,,,,,,,,,,,,0,,,81,83
27720,note_on,0,0,2,,,,,,,,,,,,,,,0,,,49,70
27720,note_on,120,0,2,,,,,,,,,,,,,,,0,,,48,0
27720,note_on,120,0,1,,,,,,,,,,,,,,,0,,,75,0
27840,note_on,0,0,1,,,,,,,,,,,,,,,0,,,69,71
27840,set_tempo,200,1,0,,,,,,,,,,,,385852,,,,,,,
27840,note_on,120,0,2,,,,,,,,,,,,,,,0,,,49,0
27840,note_on,0,0,2,,,,,,,,,,,,,,,0,,,50,72
27840,note_on,0,0,1,,,,,,,,,,,,,,,0,,,75,85
27840,note_on,120,0,1,,,,,,,,,,,,,,,0,,,81,0
27960,note_on,120,0,2,,,,,,,,,,,,,,,0,,,50,0
27960,note_on,120,0,1,,,,,,,,,,,,,,,0,,,75,0
27960,note_on,0,0,1,,,,,,,,,,,,,,,0,,,81,86
27960,note_on,0,0,1,,,,,,,,,,,,,,,0,,,69,0
27960,note_on,0,0,2,,,,,,,,,,,,,,,0,,,51,73
28040,set_tempo,200,1,0,,,,,,,,,,,,387097,,,,,,,
28080,note_on,120,0,1,,,,,,,,,,,,,,,0,,,81,0
28080,note_on,0,0,1,,,,,,,,,,,,,,,0,,,69,74
28080,note_on,0,0,1,,,,,,,,,,,,,,,0,,,75,87
28080,note_on,0,0,2,,,,,,,,,,,,,,,0,,,52,75
28080,note_on,120,0,2,,,,,,,,,,,,,,,0,,,51,0
28200,note_on,120,0,1,,,,,,,,,,,,,,,0,,,75,0
28200,note_on,0,0,2,,,,,,,,,,,,,,,0,,,53,76
28200,note_on,120,0,2,,,,,,,,,,,,,,,0,,,52,0
28200,note_on,0,0,1,,,,,,,,,,,,,,,0,,,69,0
28200,note_on,0,0,1,,,,,,,,,,,,,,,0,,,81,89
28240,set_tempo,200,1,0,,,,,,,,,,,,388350,,,,,,,
28314,control_change,114,0,2,,,,,,,,,,,,,,,0,64,0,,
28320,note_on,120,0,1,,,,,,,,,,,,,,,0,,,81,0
28320,note_on,0,0,1,,,,,,,,,,,,,,,0,,,69,77
28320,note_on,0,0,1,,,,,,,,,,,,,,,0,,,75,90
28320,note_on,0,0,1,,,,,,,,,,,,,,,0,,,81,90
28320,note_on,0,0,2,,,,,,,,,,,,,,,0,,,41,66
28320,set_tempo,80,1,0,,,,,,,,,,,,408163,,,,,,,
28320,note_on,6,0,2,,,,,,,,,,,,,,,0,,,53,0
28320,note_on,0,0,2,,,,,,,,,,,,,,,0,,,53,78
28560,note_on,0,0,1,,,,,,,,,,,,,,,0,,,69,78
28560,note_on,240,0,1,,,,,,,,,,,,,,,0,,,81,0
28560,note_on,0,0,1,,,,,,,,,,,,,,,0,,,75,0
28560,note_on,0,0,1,,,,,,,,,,,,,,,0,,,69,0
28560,note_on,0,0,1,,,,,,,,,,,,,,,0,,,81,93
28560,note_on,0,0,1,,,,,,,,,,,,,,,0,,,75,93
28560,note_on,240,0,2,,,,,,,,,,,,,,,0,,,53,0
28560,note_on,0,0,2,,,,,,,,,,,,,,,0,,,41,0
28560,note_on,0,0,2,,,,,,,,,,,,,,,0,,,41,66
28560,note_on,0,0,2,,,,,,,,,,,,,,,0,,,53,79
28800,note_on,0,0,1,,,,,,,,,,,,,,,0,,,69,0
28800,note_on,0,0,1,,,,,,,,,,,,,,,0,,,81,100
28800,note_on,0,0,1,,,,,,,,,,,,,,,0,,,75,0
28800,note_on,0,0,1,,,,,,,,,,,,,,,0,,,69,84
28800,note_on,0,0,2,,,,,,,,,,,,,,,0,,,53,88
28800,note_on,0,0,2,,,,,,,,,,,,,,,0,,,41,0
28800,note_on,240,0,1,,,,,,,,,,,,,,,0,,,81,0
28800,note_on,240,0,2,,,,,,,,,,,,,,,0,,,53,0
28800,set_tempo,480,1,0,,,,,,,,,,,,424028,,,,,,,
28800,note_on,0,0,1,,,,,,,,,,,,,,,0,,,75,84
28800,note_on,0,0,2,,,,,,,,,,,,,,,0,,,41,74
28920,note_on,0,0,1,,,,,,,,,,,,,,,0,,,75,0
28920,note_on,0,0,1,,,,,,,,,,,,,,,0,,,69,0
28920,note_on,120,0,1,,,,,,,,,,,,,,,0,,,81,0
28920,note_on,0,0,2,,,,,,,,,,,,,,,0,,,41,0
28920,note_on,120,0,2,,,,,,,,,,,,,,,0,,,53,0
29040,note_on,0,0,1,,,,,,,,,,,,,,,0,,,81,90
29040,note_on,0,0,1,,,,,,,,,,,,,,,0,,,83,90
29040,note_on,0,0,1,,,,,,,,,,,,,,,0,,,75,75
29040,note_on,120,0,1,,,,,,,,,,,,,,,0,,,71,75
29040,note_on,120,0,2,,,,,,,,,,,,,,,0,,,53,68
29040,set_tempo,240,1,0,,,,,,,,,,,,406780,,,,,,,
29040,note_on,0,0,2,,,,,,,,,,,,,,,0,,,65,81
29160,note_on,0,0,1,,,,,,,,,,,,,,,0,,,75,0
29160,note_on,0,0,1,,,,,,,,,,,,,,,0,,,83,0
29160,note_on,120,0,1,,,,,,,,,,,,,,,0,,,81,0
29160,note_on,0,0,1,,,,,,,,,,,,,,,0,,,71,0
29160,note_on,0,0,2,,,,,,,,,,,,,,,0,,,53,0
29160,note_on,120,0,2,,,,,,,,,,,,,,,0,,,65,0
29280,note_on,120,0,1,,,,,,,,,,,,,,,0,,,71,75
29280,note_on,0,0,2,,,,,,,,,,,,,,,0,,,65,81
29280,note_on,120,0,2,,,,,,,,,,,,,,,0,,,53,68
29280,set_tempo,240,1,0,,,,,,,,,,,,413793,,,,,,,
29280,note_on,0,0,1,,,,,,,,,,,,,,,0,,,75,75
29280,note_on,0,0,1,,,,,,,,,,,,,,,0,,,81,90
29280,note_on,0,0,1,,,,,,,,,,,,,,,0,,,83,90
29400,note_on,0,0,2,,,,,,,,,,,,,,,0,,,53,0
29400,note_on,120,0,2,,,,,,,,,,,,,,,0,,,65,0
29400,note_on,0,0,1,,,,,,,,,,,,,,,0,,,81,0
29400,note_on,120,0,1,,,,,,,,,,,,,,,0,,,83,0
29400,note_on,0,0,1,,,,,,,,,,,,,,,0,,,71,0
29400,note_on,0,0,1,,,,,,,,,,,,,,,0,,,75,0
29520,note_on,120,0,1,,,,,,,,,,,,,,,0,,,71,75
29520,note_on,0,0,2,,,,,,,,,,,,,,,0,,,65,81
29520,note_on,120,0,2,,,,,,,,,,,,,,,0,,,53,68
29520,note_on,0,0,1,,,,,,,,,,,,,,,0,,,75,75
29520,note_on,0,0,1,,,,,,,,,,,,,,,0,,,81,90
29520,set_tempo,240,1,0,,,,,,,,,,,,406780,,,,,,,
29520,note_on,0,0,1,,,,,,,,,,,,,,,0,,,83,90
29640,note_on,0,0,2,,,,,,,,,,,,,,,0,,,53,0
29640,note_on,120,0,2,,,,,,,,,,,,,,,0,,,65,0
29640,note_on,120,0,1,,,,,,,,,,,,,,,0,,,83,0
29640,note_on,0,0,1,,,,,,,,,,,,,,,0,,,71,0
29640,note_on,0,0,1,,,,,,,,,,,,,,,0,,,75,0
29640,note_on,0,0,1,,,,,,,,,,,,,,,0,,,81,0
29760,note_on,120,0,1,,,,,,,,,,,,,,,0,,,71,75
29760,note_on,0,0,1,,,,,,,,,,,,,,,0,,,75,75
29760,note_on,0,0,1,,,,,,,,,,,,,,,0,,,81,90
29760,note_on,0,0,1,,,,,,,,,,,,,,,0,,,83,90
29760,note_on,0,0,2,,,,,,,,,,,,,,,0,,,65,81
29760,note_on,120,0,2,,,,,,,,,,,,,,,0,,,53,68
29880,note_on,120,0,2,,,,,,,,,,,,,,,0,,,65,0
29880,note_on,0,0,2,,,,,,,,,,,,,,,0,,,53,0
29880,note_on,0,0,1,,,,,,,,,,,,,,,0,,,81,0
29880,note_on,0,0,1,,,,,,,,,,,,,,,0,,,75,0
29880,note_on,0,0,1,,,,,,,,,,,,,,,0,,,71,0
29880,note_on,120,0,1,,,,,,,,,,,,,,,0,,,83,0
30000,note_on,0,0,1,,,,,,,,,,,,,,,0,,,75,75
30000,note_on,120,0,1,,,,,,,,,,,,,,,0,,,71,75
30000,note_on,0,0,2,,,,,,,,,,,,,,,0,,,65,81
30000,note_on,120,0,2,,,,,,,,,,,,,,,0,,,53,68
30000,note_on,0,0,1,,,,,,,,,,,,,,,0,,,81,90
30000,note_on,0,0,1,,,,,,,,,,,,,,,0,,,83,90
30120,note_on,0,0,2,,,,,,,,,,,,,,,0,,,53,0
30120,note_on,120,0,2,,,,,,,,,,,,,,,0,,,65,0
30120,note_on,0,0,1,,,,,,,,,,,,,,,0,,,75,0
30120,note_on,0,0,1,,,,,,,,,,,,,,,0,,,81,0
30120,note_on,0,0,1,,,,,,,,,,,,,,,0,,,71,0
30120,note_on,120,0,1,,,,,,,,,,,,,,,0,,,83,0
30240,note_on,120,0,2,,,,,,,,,,,,,,,0,,,53,68
30240,set_tempo,720,1,0,,,,,,,,,,,,415225,,,,,,,
30240,note_on,0,0,2,,,,,,,,,,,,,,,0,,,65,81
30240,note_on,120,0,1,,,,,,,,,,,,,,,0,,,71,75
30240,note_on,0,0,1,,,,,,,,,,,,,,,0,,,75,75
30240,note_on,0,0,1,,,,,,,,,,,,,,,0,,,81,90
30240,note_on,0,0,1,,,,,,,,,,,,,,,0,,,83,90
30360,note_on,0,0,1,,,,,,,,,,,,,,,0,,,75,0
30360,note_on,0,0,2,,,,,,,,,,,,,,,0,,,53,0
30360,note_on,120,0,2,,,,,,,,,,,,,,,0,,,65,0
30360,note_on,0,0,1,,,,,,,,,,,,,,,0,,,81,0
30360,note_on,120,0,1,,,,,,,,,,,,,,,0,,,83,0
30360,note_on,0,0,1,,,,,,,,,,,,,,,0,,,71,0
30480,note_on,0,0,1,,,,,,,,,,,,,,,0,,,75,75
30480,note_on,120,0,1,,,,,,,,,,,,,,,0,,,71,75
30480,note_on,0,0,2,,,,,,,,,,,,,,,0,,,65,81
30480,note_on,120,0,2,,,,,,,,,,,,,,,0,,,53,68
30480,note_on,0,0,1,,,,,,,,,,,,,,,0,,,81,90
30480,note_on,0,0,1,,,,,,,,,,,,,,,0,,,83,90
30600,note_on,120,0,1,,,,,,,,,,,,,,,0,,,83,0
30600,note_on,0,0,1,,,,,,,,,,,,,,,0,,,71,0
30600,note_on,0,0,1,,,,,,,,,,,,,,,0,,,75,0
30600,note_on,0,0,1,,,,,,,,,,,,,,,0,,,81,0
30600,note_on,0,0,2,,,,,,,,,,,,,,,0,,,53,0
30600,note_on,120,0,2,,,,,,,,,,,,,,,0,,,65,0
30720,note_on,120,0,2,,,,,,,,,,,,,,,0,,,64,91
30720,note_on,0,0,2,,,,,,,,,,,,,,,0,,,52,77
30720,set_tempo,480,1,0,,,,,,,,,,,,418118,,,,,,,
30720,note_on,120,0,1,,,,,,,,,,,,,,,0,,,71,85
30720,note_on,0,0,1,,,,,,,,,,,,,,,0,,,76,85
30720,note_on,0,0,1,,,,,,,,,,,,,,,0,,,80,85
30720,note_on,0,0,1,,,,,,,,,,,,,,,0,,,83,101
30960,note_on,0,0,1,,,,,,,,,,,,,,,0,,,80,0
30960,note_on,0,0,1,,,,,,,,,,,,,,,0,,,71,0
30960,note_on,0,0,1,,,,,,,,,,,,,,,0,,,76,0
30960,note_on,0,0,2,,,,,,,,,,,,,,,0,,,64,0
30960,note_on,240,0,2,,,,,,,,,,,,,,,0,,,52,0
30960,note_on,240,0,1,,,,,,,,,,,,,,,0,,,83,0
31200,note_on,240,0,1,,,,,,,,,,,,,,,0,,,88,102
31200,note_on,0,0,1,,,,,,,,,,,,,,,0,,,83,86
31200,note_on,0,0,1,,,,,,,,,,,,,,,0,,,80,86
31200,note_on,240,0,2,,,,,,,,,,,,,,,0,,,40,74
31200,note_on,0,0,1,,,,,,,,,,,,,,,0,,,76,86
31200,note_on,0,0,2,,,,,,,,,,,,,,,0,,,52,88
31440,note_on,240,0,2,,,,,,,,,,,,,,,0,,,52,0
31440,note_on,0,0,1,,,,,,,,,,,,,,,0,,,83,0
31440,note_on,0,0,2,,,,,,,,,,,,,,,0,,,40,0
31440,note_on,0,0,1,,,,,,,,,,,,,,,0,,,88,0
31440,note_on,240,0,1,,,,,,,,,,,,,,,0,,,76,0
31440,note_on,0,0,1,,,,,,,,,,,,,,,0,,,80,0
32640,note_on,0,0,1,,,,,,,,,,,,,,,0,,,64,36
32640,set_tempo,1920,1,0,,,,,,,,,,,,412343,,,,,,,
32640,text,0,1,1,,,,,,,,,,,,,,,,,,,
32640,note_on,1200,0,2,,,,,,,,,,,,,,,0,,,36,22
32640,note_on,0,0,2,,,,,,,,,,,,,,,0,,,43,22
32640,note_on,0,0,2,,,,,,,,,,,,,,,0,,,48,25
32640,control_change,0,0,1,,,,,,,,,,,,,,,0,91,127,,
32640,note_on,1200,0,1,,,,,,,,,,,,,,,0,,,52,29
32640,note_on,0,0,1,,,,,,,,,,,,,,,0,,,55,29
32640,note_on,0,0,1,,,,,,,,,,,,,,,0,,,60,29
33120,note_on,0,0,1,,,,,,,,,,,,,,,0,,,55,28
33120,note_on,0,0,1,,,,,,,,,,,,,,,0,,,52,28
33120,note_on,0,0,1,,,,,,,,,,,,,,,0,,,55,0
33120,note_on,0,0,1,,,,,,,,,,,,,,,0,,,52,0
33120,note_on,0,0,2,,,,,,,,,,,,,,,0,,,36,19
33120,note_on,0,0,2,,,,,,,,,,,,,,,0,,,43,19
33120,note_on,0,0,1,,,,,,,,,,,,,,,0,,,60,28
33120,note_on,0,0,2,,,,,,,,,,,,,,,0,,,36,0
33120,note_on,0,0,2,,,,,,,,,,,,,,,0,,,43,0
33120,note_on,480,0,2,,,,,,,,,,,,,,,0,,,48,0
33120,note_on,480,0,1,,,,,,,,,,,,,,,0,,,64,0
33120,note_on,0,0,2,,,,,,,,,,,,,,,0,,,48,23
33120,note_on,0,0,1,,,,,,,,,,,,,,,0,,,64,34
33120,note_on,0,0,1,,,,,,,,,,,,,,,0,,,60,0
33120,set_tempo,480,1,0,,,,,,,,,,,,402253,,,,,,,
33240,note_on,0,0,2,,,,,,,,,,,,,,,0,,,36,0
33240,note_on,0,0,2,,,,,,,,,,,,,,,0,,,43,0
33240,note_on,120,0,2,,,,,,,,,,,,,,,0,,,48,0
33240,note_on,0,0,1,,,,,,,,,,,,,,,0,,,60,0
33240,note_on,0,0,1,,,,,,,,,,,,,,,0,,,55,0
33240,note_on,0,0,1,,,,,,,,,,,,,,,0,,,52,0
33240,note_on,120,0,1,,,,,,,,,,,,,,,0,,,64,0
33360,note_on,0,0,1,,,,,,,,,,,,,,,0,,,64,34
33360,note_on,0,0,2,,,,,,,,,,,,,,,0,,,48,23
33360,note_on,0,0,2,,,,,,,,,,,,,,,0,,,43,19
33360,note_on,120,0,2,,,,,,,,,,,,,,,0,,,36,19
33360,note_on,120,0,1,,,,,,,,,,,,,,,0,,,52,28
33360,note_on,0,0,1,,,,,,,,,,,,,,,0,,,55,28
33360,note_on,0,0,1,,,,,,,,,,,,,,,0,,,60,28
33480,note_on,0,0,2,,,,,,,,,,,,,,,0,,,43,0
33480,note_on,120,0,2,,,,,,,,,,,,,,,0,,,48,0
33480,note_on,0,0,2,,,,,,,,,,,,,,,0,,,36,0
33480,note_on,120,0,1,,,,,,,,,,,,,,,0,,,64,0
33480,note_on,0,0,1,,,,,,,,,,,,,,,0,,,60,0
33480,note_on,0,0,1,,,,,,,,,,,,,,,0,,,55,0
33480,note_on,0,0,1,,,,,,,,,,,,,,,0,,,52,0
33600,note_on,120,0,2,,,,,,,,,,,,,,,0,,,36,22
33600,note_on,0,0,2,,,,,,,,,,,,,,,0,,,43,22
33600,note_on,0,0,2,,,,,,,,,,,,,,,0,,,48,26
33600,set_tempo,480,1,0,,,,,,,,,,,,412343,,,,,,,
33600,note_on,0,0,1,,,,,,,,,,,,,,,0,,,55,29
33600,note_on,120,0,1,,,,,,,,,,,,,,,0,,,52,29
33600,note_on,0,0,1,,,,,,,,,,,,,,,0,,,60,29
33600,note_on,0,0,1,,,,,,,,,,,,,,,0,,,64,36
34080,note_on,0,0,2,,,,,,,,,,,,,,,0,,,36,0
34080,set_tempo,480,1,0,,,,,,,,,,,,402253,,,,,,,
34080,note_on,0,0,1,,,,,,,,,,,,,,,0,,,64,33
34080,note_on,0,0,1,,,,,,,,,,,,,,,0,,,60,27
34080,note_on,0,0,1,,,,,,,,,,,,,,,0,,,55,27
34080,note_on,480,0,2,,,,,,,,,,,,,,,0,,,48,0
34080,note_on,480,0,1,,,,,,,,,,,,,,,0,,,64,0
34080,note_on,0,0,1,,,,,,,,,,,,,,,0,,,52,27
34080,note_on,0,0,1,,,,,,,,,,,,,,,0,,,55,0
34080,note_on,0,0,1,,,,,,,,,,,,,,,0,,,60,0
34080,note_on,0,0,2,,,,,,,,,,,,,,,0,,,48,24
34080,note_on,0,0,2,,,,,,,,,,,,,,,0,,,43,20
34080,note_on,0,0,2,,,,,,,,,,,,,,,0,,,36,20
34080,note_on,0,0,1,,,,,,,,,,,,,,,0,,,52,0
34080,note_on,0,0,2,,,,,,,,,,,,,,,0,,,43,0
34200,note_on,0,0,2,,,,,,,,,,,,,,,0,,,36,0
34200,note_on,0,0,2,,,,,,,,,,,,,,,0,,,43,0
34200,note_on,120,0,2,,,,,,,,,,,,,,,0,,,48,0
34200,note_on,120,0,1,,,,,,,,,,,,,,,0,,,64,0
34200,note_on,0,0,1,,,,,,,,,,,,,,,0,,,52,0
34200,note_on,0,0,1,,,,,,,,,,,,,,,0,,,55,0
34200,note_on,0,0,1,,,,,,,,,,,,,,,0,,,60,0
34320,note_on,0,0,1,,,,,,,,,,,,,,,0,,,60,27
34320,note_on,0,0,1,,,,,,,,,,,,,,,0,,,64,33
34320,note_on,0,0,2,,,,,,,,,,,,,,,0,,,48,24
34320,note_on,120,0,1,,,,,,,,,,,,,,,0,,,52,27
34320,note_on,0,0,1,,,,,,,,,,,,,,,0,,,55,27
34320,note_on,120,0,2,,,,,,,,,,,,,,,0,,,36,20
34320,note_on,0,0,2,,,,,,,,,,,,,,,0,,,43,20
34440,note_on,0,0,2,,,,,,,,,,,,,,,0,,,36,0
34440,note_on,0,0,2,,,,,,,,,,,,,,,0,,,43,0
34440,note_on,0,0,1,,,,,,,,,,,,,,,0,,,60,0
34440,note_on,0,0,1,,,,,,,,,,,,,,,0,,,55,0
34440,note_on,0,0,1,,,,,,,,,,,,,,,0,,,52,0
34440,note_on,120,0,1,,,,,,,,,,,,,,,0,,,64,0
34440,note_on,120,0,2,,,,,,,,,,,,,,,0,,,48,0
34560,note_on,0,0,2,,,,,,,,,,,,,,,0,,,48,26
34560,note_on,0,0,2,,,,,,,,,,,,,,,0,,,43,22
34560,note_on,120,0,2,,,,,,,,,,,,,,,0,,,36,22
34560,note_on,0,0,1,,,,,,,,,,,,,,,0,,,55,29
34560,note_on,0,0,1,,,,,,,,,,,,,,,0,,,60,29
34560,note_on,0,0,1,,,,,,,,,,,,,,,0,,,64,36
34560,set_tempo,480,1,0,,,,,,,,,,,,410874,,,,,,,
34560,note_on,120,0,1,,,,,,,,,,,,,,,0,,,52,29
34616,control_change,56,0,2,,,,,,,,,,,,,,,0,64,127,,
34800,note_on,0,0,1,,,,,,,,,,,,,,,0,,,48,32
34800,note_on,240,0,1,,,,,,,,,,,,,,,0,,,64,0
34800,note_on,0,0,1,,,,,,,,,,,,,,,0,,,55,0
34800,note_on,0,0,1,,,,,,,,,,,,,,,0,,,60,0
34800,note_on,0,0,1,,,,,,,,,,,,,,,0,,,52,0
34800,note_on,184,0,2,,,,,,,,,,,,,,,0,,,48,0
34800,note_on,0,0,2,,,,,,,,,,,,,,,0,,,43,0
34800,note_on,0,0,2,,,,,,,,,,,,,,,0,,,36,0
34920,note_on,0,0,1,,,,,,,,,,,,,,,0,,,52,33
34920,note_on,120,0,1,,,,,,,,,,,,,,,0,,,48,0
35000,set_tempo,440,1,0,,,,,,,,,,,,409417,,,,,,,
35040,note_on,0,0,1,,,,,,,,,,,,,,,0,,,55,34
35040,note_on,120,0,1,,,,,,,,,,,,,,,0,,,52,0
35080,set_tempo,80,1,0,,,,,,,,,,,,410874,,,,,,,
35120,set_tempo,40,1,0,,,,,,,,,,,,412343,,,,,,,
35160,note_on,0,0,1,,,,,,,,,,,,,,,0,,,60,35
35160,note_on,120,0,1,,,,,,,,,,,,,,,0,,,55,0
35160,set_tempo,40,1,0,,,,,,,,,,,,413822,,,,,,,
35240,set_tempo,80,1,0,,,,,,,,,,,,415340,,,,,,,
35280,set_tempo,40,1,0,,,,,,,,,,,,416840,,,,,,,
35280,note_on,120,0,1,,,,,,,,,,,,,,,0,,,60,0
35280,note_on,0,0,1,,,,,,,,,,,,,,,0,,,64,36
35320,set_tempo,40,1,0,,,,,,,,,,,,418352,,,,,,,
35400,note_on,0,0,1,,,,,,,,,,,,,,,0,,,67,37
35400,note_on,120,0,1,,,,,,,,,,,,,,,0,,,64,0
35520,note_on,120,0,1,,,,,,,,,,,,,,,0,,,67,0
35520,note_on,0,0,1,,,,,,,,,,,,,,,0,,,59,36
35520,note_on,0,0,1,,,,,,,,,,,,,,,0,,,71,36
35530,control_change,730,0,2,,,,,,,,,,,,,,,0,64,0,,
36000,note_on,0,0,1,,,,,,,,,,,,,,,0,,,60,28
36000,note_on,480,0,1,,,,,,,,,,,,,,,0,,,71,0
36000,note_on,0,0,1,,,,,,,,,,,,,,,0,,,59,0
36000,note_on,0,0,1,,,,,,,,,,,,,,,0,,,72,34
36120,note_on,120,0,1,,,,,,,,,,,,,,,0,,,72,0
36120,note_on,0,0,1,,,,,,,,,,,,,,,0,,,60,0
36240,note_on,120,0,1,,,,,,,,,,,,,,,0,,,60,28
36240,note_on,0,0,1,,,,,,,,,,,,,,,0,,,72,34
36360,note_on,120,0,1,,,,,,,,,,,,,,,0,,,72,0
36360,note_on,0,0,1,,,,,,,,,,,,,,,0,,,60,0
36480,note_on,0,0,1,,,,,,,,,,,,,,,0,,,71,37
36480,note_on,120,0,1,,,,,,,,,,,,,,,0,,,65,31
36480,note_on,0,0,1,,,,,,,,,,,,,,,0,,,67,31
36480,note_on,950,0,2,,,,,,,,,,,,,,,0,,,31,22
36480,note_on,0,0,1,,,,,,,,,,,,,,,0,,,73,37
36480,set_tempo,1160,1,0,,,,,,,,,,,,437956,,,,,,,
36480,note_on,0,0,2,,,,,,,,,,,,,,,0,,,43,27
36720,note_on,0,0,2,,,,,,,,,,,,,,,0,,,31,0
36720,note_on,240,0,2,,,,,,,,,,,,,,,0,,,43,0
36720,note_on,240,0,1,,,,,,,,,,,,,,,0,,,73,0
36720,note_on,0,0,1,,,,,,,,,,,,,,,0,,,67,0
36720,note_on,0,0,1,,,,,,,,,,,,,,,0,,,65,0
36720,note_on,0,0,1,,,,,,,,,,,,,,,0,,,71,0
36960,note_on,240,0,1,,,,,,,,,,,,,,,0,,,67,28
36960,note_on,0,0,1,,,,,,,,,,,,,,,0,,,65,28
36960,note_on,0,0,1,,,,,,,,,,,,,,,0,,,71,35
36960,note_on,0,0,1,,,,,,,,,,,,,,,0,,,74,35
36960,note_on,240,0,2,,,,,,,,,,,,,,,0,,,43,22
36960,set_tempo,480,1,0,,,,,,,,,,,,538117,,,,,,,
36960,note_on,0,0,2,,,,,,,,,,,,,,,0,,,55,27
37200,note_on,240,0,1,,,,,,,,,,,,,,,0,,,74,0
37200,note_on,0,0,2,,,,,,,,,,,,,,,0,,,43,0
37200,note_on,0,0,1,,,,,,,,,,,,,,,0,,,71,0
37200,note_on,0,0,1,,,,,,,,,,,,,,,0,,,65,0
37200,note_on,0,0,1,,,,,,,,,,,,,,,0,,,67,0
37200,note_on,240,0,2,,,,,,,,,,,,,,,0,,,55,0
37440,note_on,0,0,2,,,,,,,,,,,,,,,0,,,71,22
37440,note_on,0,0,2,,,,,,,,,,,,,,,0,,,67,22
37440,note_on,240,0,2,,,,,,,,,,,,,,,0,,,74,27
37440,note_on,0,0,1,,,,,,,,,,,,,,,0,,,83,35
37440,set_tempo,480,1,0,,,,,,,,,,,,451128,,,,,,,
37440,note_on,0,0,1,,,,,,,,,,,,,,,0,,,86,35
37440,note_on,0,0,1,,,,,,,,,,,,,,,0,,,79,35
37440,note_on,240,0,1,,,,,,,,,,,,,,,0,,,77,35
38400,note_on,0,0,2,,,,,,,,,,,,,,,0,,,31,18
38400,note_on,0,0,1,,,,,,,,,,,,,,,0,,,59,25
38400,note_on,0,0,1,,,,,,,,,,,,,,,0,,,62,31
38400,note_on,960,0,2,,,,,,,,,,,,,,,0,,,67,0
38400,note_on,0,0,2,,,,,,,,,,,,,,,0,,,71,0
38400,note_on,0,0,2,,,,,,,,,,,,,,,0,,,74,0
38400,set_tempo,960,1,0,,,,,,,,,,,,412343,,,,,,,
38400,note_on,0,0,2,,,,,,,,,,,,,,,0,,,43,22
38400,text,0,1,1,,,,,,,,,,,,,,,,,,,
38400,note_on,960,0,1,,,,,,,,,,,,,,,0,,,83,0
38400,note_on,0,0,1,,,,,,,,,,,,,,,0,,,77,0
38400,note_on,0,0,1,,,,,,,,,,,,,,,0,,,79,0
38400,note_on,0,0,1,,,,,,,,,,,,,,,0,,,86,0
38400,note_on,0,0,1,,,,,,,,,,,,,,,0,,,53,25
38400,note_on,0,0,1,,,,,,,,,,,,,,,0,,,55,25
38400,control_change,0,0,1,,,,,,,,,,,,,,,0,91,127,,
38880,note_on,0,0,1,,,,,,,,,,,,,,,0,,,59,24
38880,set_tempo,480,1,0,,,,,,,,,,,,402253,,,,,,,
38880,note_on,480,0,1,,,,,,,,,,,,,,,0,,,62,0
38880,note_on,0,0,1,,,,,,,,,,,,,,,0,,,53,0
38880,note_on,0,0,1,,,,,,,,,,,,,,,0,,,55,0
38880,note_on,0,0,1,,,,,,,,,,,,,,,0,,,59,0
38880,note_on,0,0,1,,,,,,,,,,,,,,,0,,,53,24
38880,note_on,0,0,1,,,,,,,,,,,,,,,0,,,62,28
38880,note_on,0,0,2,,,,,,,,,,,,,,,0,,,31,0
38880,note_on,0,0,1,,,,,,,,,,,,,,,0,,,55,24
38880,note_on,0,0,2,,,,,,,,,,,,,,,0,,,43,20
38880,note_on,0,0,2,,,,,,,,,,,,,,,0,,,31,16
38880,note_on,480,0,2,,,,,,,,,,,,,,,0,,,43,0
39000,note_on,0,0,2,,,,,,,,,,,,,,,0,,,31,0
39000,note_on,120,0,2,,,,,,,,,,,,,,,0,,,43,0
39000,note_on,0,0,1,,,,,,,,,,,,,,,0,,,55,0
39000,note_on,120,0,1,,,,,,,,,,,,,,,0,,,62,0
39000,note_on,0,0,1,,,,,,,,,,,,,,,0,,,59,0
39000,note_on,0,0,1,,,,,,,,,,,,,,,0,,,53,0
39120,note_on,120,0,2,,,,,,,,,,,,,,,0,,,31,16
39120,note_on,120,0,1,,,,,,,,,,,,,,,0,,,53,24
39120,note_on,0,0,1,,,,,,,,,,,,,,,0,,,62,28
39120,note_on,0,0,1,,,,,,,,,,,,,,,0,,,59,24
39120,note_on,0,0,1,,,,,,,,,,,,,,,0,,,55,24
39120,note_on,0,0,2,,,,,,,,,,,,,,,0,,,43,20
39240,note_on,0,0,2,,,,,,,,,,,,,,,0,,,31,0
39240,note_on,120,0,2,,,,,,,,,,,,,,,0,,,43,0
39240,note_on,120,0,1,,,,,,,,,,,,,,,0,,,62,0
39240,note_on,0,0,1,,,,,,,,,,,,,,,0,,,53,0
39240,note_on,0,0,1,,,,,,,,,,,,,,,0,,,55,0
39240,note_on,0,0,1,,,,,,,,,,,,,,,0,,,59,0
39360,note_on,0,0,1,,,,,,,,,,,,,,,0,,,59,25
39360,note_on,0,0,1,,,,,,,,,,,,,,,0,,,62,31
39360,note_on,120,0,1,,,,,,,,,,,,,,,0,,,53,25
39360,note_on,0,0,1,,,,,,,,,,,,,,,0,,,55,25
39360,set_tempo,480,1,0,,,,,,,,,,,,412343,,,,,,,
39360,note_on,120,0,2,,,,,,,,,,,,,,,0,,,31,19
39360,note_on,0,0,2,,,,,,,,,,,,,,,0,,,43,22
39840,set_tempo,480,1,0,,,,,,,,,,,,402253,,,,,,,
39840,note_on,0,0,1,,,,,,,,,,,,,,,0,,,55,0
39840,note_on,0,0,1,,,,,,,,,,,,,,,0,,,59,0
39840,note_on,0,0,1,,,,,,,,,,,,,,,0,,,53,23
39840,note_on,0,0,1,,,,,,,,,,,,,,,0,,,55,23
39840,note_on,0,0,1,,,,,,,,,,,,,,,0,,,59,23
39840,note_on,0,0,1,,,,,,,,,,,,,,,0,,,62,28
39840,note_on,0,0,2,,,,,,,,,,,,,,,0,,,31,17
39840,note_on,0,0,1,,,,,,,,,,,,,,,0,,,53,0
39840,note_on,0,0,2,,,,,,,,,,,,,,,0,,,31,0
39840,note_on,480,0,2,,,,,,,,,,,,,,,0,,,43,0
39840,note_on,0,0,2,,,,,,,,,,,,,,,0,,,43,20
39840,note_on,480,0,1,,,,,,,,,,,,,,,0,,,62,0
39960,note_on,0,0,1,,,,,,,,,,,,,,,0,,,53,0
39960,note_on,0,0,1,,,,,,,,,,,,,,,0,,,55,0
39960,note_on,0,0,1,,,,,,,,,,,,,,,0,,,59,0
39960,note_on,120,0,1,,,,,,,,,,,,,,,0,,,62,0
39960,note_on,0,0,2,,,,,,,,,,,,,,,0,,,31,0
39960,note_on,120,0,2,,,,,,,,,,,,,,,0,,,43,0
40080,note_on,0,0,1,,,,,,,,,,,,,,,0,,,62,28
40080,note_on,0,0,2,,,,,,,,,,,,,,,0,,,43,20
40080,note_on,120,0,2,,,,,,,,,,,,,,,0,,,31,17
40080,note_on,0,0,1,,,,,,,,,,,,,,,0,,,59,23
40080,note_on,0,0,1,,,,,,,,,,,,,,,0,,,55,23
40080,note_on,120,0,1,,,,,,,,,,,,,,,0,,,53,23
40200,note_on,0,0,1,,,,,,,,,,,,,,,0,,,55,0
40200,note_on,0,0,1,,,,,,,,,,,,,,,0,,,59,0
40200,note_on,0,0,1,,,,,,,,,,,,,,,0,,,53,0
40200,note_on,120,0,1,,,,,,,,,,,,,,,0,,,62,0
40200,note_on,0,0,2,,,,,,,,,,,,,,,0,,,31,0
40200,note_on,120,0,2,,,,,,,,,,,,,,,0,,,43,0
40320,note_on,120,0,1,,,,,,,,,,,,,,,0,,,53,25
40320,note_on,0,0,1,,,,,,,,,,,,,,,0,,,59,25
40320,note_on,0,0,1,,,,,,,,,,,,,,,0,,,62,31
40320,note_on,0,0,1,,,,,,,,,,,,,,,0,,,55,25
40320,note_on,120,0,2,,,,,,,,,,,,,,,0,,,31,19
40320,note_on,0,0,2,,,,,,,,,,,,,,,0,,,43,22
40320,set_tempo,480,1,0,,,,,,,,,,,,410874,,,,,,,
40376,control_change,56,0,2,,,,,,,,,,,,,,,0,64,127,,
40560,note_on,0,0,1,,,,,,,,,,,,,,,0,,,53,0
40560,note_on,0,0,1,,,,,,,,,,,,,,,0,,,55,0
40560,note_on,0,0,1,,,,,,,,,,,,,,,0,,,59,0
40560,note_on,0,0,1,,,,,,,,,,,,,,,0,,,55,27
40560,note_on,240,0,1,,,,,,,,,,,,,,,0,,,62,0
40560,note_on,184,0,2,,,,,,,,,,,,,,,0,,,43,0
40560,note_on,0,0,2,,,,,,,,,,,,,,,0,,,31,0
40680,note_on,0,0,1,,,,,,,,,,,,,,,0,,,59,28
40680,note_on,120,0,1,,,,,,,,,,,,,,,0,,,55,0
40760,set_tempo,440,1,0,,,,,,,,,,,,409417,,,,,,,
40800,note_on,0,0,1,,,,,,,,,,,,,,,0,,,62,28
40800,note_on,120,0,1,,,,,,,,,,,,,,,0,,,59,0
40840,set_tempo,80,1,0,,,,,,,,,,,,410874,,,,,,,
40880,set_tempo,40,1,0,,,,,,,,,,,,412343,,,,,,,
40920,note_on,120,0,1,,,,,,,,,,,,,,,0,,,62,0
40920,note_on,0,0,1,,,,,,,,,,,,,,,0,,,65,29
40920,set_tempo,40,1,0,,,,,,,,,,,,413822,,,,,,,
41000,set_tempo,80,1,0,,,,,,,,,,,,415340,,,,,,,
41040,set_tempo,40,1,0,,,,,,,,,,,,416840,,,,,,,
41040,note_on,120,0,1,,,,,,,,,,,,,,,0,,,65,0
41040,note_on,0,0,1,,,,,,,,,,,,,,,0,,,67,31
41080,set_tempo,40,1,0,,,,,,,,,,,,418352,,,,,,,
41160,note_on,120,0,1,,,,,,,,,,,,,,,0,,,67,0
41160,note_on,0,0,1,,,,,,,,,,,,,,,0,,,71,32
41280,note_on,120,0,1,,,,,,,,,,,,,,,0,,,71,0
41280,note_on,0,0,1,,,,,,,,,,,,,,,0,,,73,36
41280,note_on,0,0,1,,,,,,,,,,,,,,,0,,,61,36
41290,control_change,730,0,2,,,,,,,,,,,,,,,0,64,0,,
41760,note_on,0,0,1,,,,,,,,,,,,,,,0,,,74,34
41760,note_on,0,0,1,,,,,,,,,,,,,,,0,,,62,28
41760,note_on,0,0,1,,,,,,,,,,,,,,,0,,,61,0
41760,note_on,480,0,1,,,,,,,,,,,,,,,0,,,73,0
41880,note_on,0,0,1,,,,,,,,,,,,,,,0,,,62,0
41880,note_on,120,0,1,,,,,,,,,,,,,,,0,,,74,0
42000,note_on,0,0,1,,,,,,,,,,,,,,,0,,,74,34
42000,note_on,120,0,1,,,,,,,,,,,,,,,0,,,62,28
42120,note_on,0,0,1,,,,,,,,,,,,,,,0,,,62,0
42120,note_on,120,0,1,,,,,,,,,,,,,,,0,,,74,0
42240,note_on,0,0,1,,,,,,,,,,,,,,,0,,,72,37
42240,note_on,0,0,1,,,,,,,,,,,,,,,0,,,67,31
42240,note_on,950,0,2,,,,,,,,,,,,,,,0,,,43,20
42240,set_tempo,1160,1,0,,,,,,,,,,,,437956,,,,,,,
42240,note_on,0,0,1,,,,,,,,,,,,,,,0,,,75,37
42240,note_on,120,0,1,,,,,,,,,,,,,,,0,,,63,31
42240,note_on,0,0,2,,,,,,,,,,,,,,,0,,,36,20
42240,note_on,0,0,2,,,,,,,,,,,,,,,0,,,48,24
42480,note_on,240,0,1,,,,,,,,,,,,,,,0,,,75,0
42480,note_on,0,0,1,,,,,,,,,,,,,,,0,,,72,0
42480,note_on,0,0,1,,,,,,,,,,,,,,,0,,,67,0
42480,note_on,0,0,1,,,,,,,,,,,,,,,0,,,63,0
42480,note_on,240,0,2,,,,,,,,,,,,,,,0,,,48,0
42480,note_on,0,0,2,,,,,,,,,,,,,,,0,,,36,0
42480,note_on,0,0,2,,,,,,,,,,,,,,,0,,,43,0
42720,note_on,0,0,1,,,,,,,,,,,,,,,0,,,76,34
42720,note_on,0,0,1,,,,,,,,,,,,,,,0,,,64,28
42720,note_on,240,0,1,,,,,,,,,,,,,,,0,,,67,28
42720,note_on,0,0,1,,,,,,,,,,,,,,,0,,,72,34
42720,note_on,240,0,2,,,,,,,,,,,,,,,0,,,55,20
42720,note_on,0,0,2,,,,,,,,,,,,,,,0,,,60,24
42720,set_tempo,480,1,0,,,,,,,,,,,,542986,,,,,,,
42720,note_on,0,0,2,,,,,,,,,,,,,,,0,,,48,20
42960,note_on,240,0,1,,,,,,,,,,,,,,,0,,,76,0
42960,note_on,240,0,2,,,,,,,,,,,,,,,0,,,60,0
42960,note_on,0,0,2,,,,,,,,,,,,,,,0,,,48,0
42960,note_on,0,0,2,,,,,,,,,,,,,,,0,,,55,0
42960,note_on,0,0,1,,,,,,,,,,,,,,,0,,,67,0
42960,note_on,0,0,1,,,,,,,,,,,,,,,0,,,64,0
42960,note_on,0,0,1,,,,,,,,,,,,,,,0,,,72,0
43200,note_on,240,0,2,,,,,,,,,,,,,,,0,,,72,27
43200,note_on,0,0,2,,,,,,,,,,,,,,,0,,,67,22
43200,note_on,0,0,2,,,,,,,,,,,,,,,0,,,60,22
43200,set_tempo,480,1,0,,,,,,,,,,,,451128,,,,,,,
43200,note_on,240,0,1,,,,,,,,,,,,,,,0,,,76,35
43200,note_on,0,0,1,,,,,,,,,,,,,,,0,,,79,35
43200,note_on,0,0,1,,,,,,,,,,,,,,,0,,,88,35
43200,note_on,0,0,1,,,,,,,,,,,,,,,0,,,84,35
44160,note_on,0,0,1,,,,,,,,,,,,,,,0,,,88,0
44160,note_on,0,0,1,,,,,,,,,,,,,,,0,,,79,0
44160,note_on,0,0,2,,,,,,,,,,,,,,,0,,,72,0
44160,note_on,960,0,1,,,,,,,,,,,,,,,0,,,84,0
44160,note_on,960,0,2,,,,,,,,,,,,,,,0,,,60,0
44160,note_on,0,0,2,,,,,,,,,,,,,,,0,,,67,0
44160,note_on,0,0,1,,,,,,,,,,,,,,,0,,,76,0
44379,control_change,219,0,2,,,,,,,,,,,,,,,0,64,127,,
44400,note_on,240,0,1,,,,,,,,,,,,,,,0,,,55,27
44400,set_tempo,1200,1,0,,,,,,,,,,,,434783,,,,,,,
44520,note_on,120,0,1,,,,,,,,,,,,,,,0,,,55,0
44520,note_on,0,0,1,,,,,,,,,,,,,,,0,,,60,28
44640,note_on,120,0,1,,,,,,,,,,,,,,,0,,,60,0
44640,note_on,0,0,1,,,,,,,,,,,,,,,0,,,64,28
44760,note_on,120,0,1,,,,,,,,,,,,,,,0,,,64,0
44760,note_on,0,0,1,,,,,,,,,,,,,,,0,,,67,29
44880,note_on,120,0,1,,,,,,,,,,,,,,,0,,,67,0
44880,note_on,0,0,1,,,,,,,,,,,,,,,0,,,72,31
45000,note_on,120,0,1,,,,,,,,,,,,,,,0,,,72,0
45000,note_on,0,0,1,,,,,,,,,,,,,,,0,,,76,32
45120,set_tempo,720,1,0,,,,,,,,,,,,483871,,,,,,,
45120,note_on,0,0,1,,,,,,,,,,,,,,,0,,,79,37
45120,note_on,0,0,1,,,,,,,,,,,,,,,0,,,67,30
45120,note_on,0,0,1,,,,,,,,,,,,,,,0,,,72,30
45120,note_on,120,0,1,,,,,,,,,,,,,,,0,,,76,0
45120,note_on,741,0,2,,,,,,,,,,,,,,,0,,,33,29
45120,note_on,0,0,2,,,,,,,,,,,,,,,0,,,45,35
45176,control_change,56,0,2,,,,,,,,,,,,,,,0,64,0,,
45480,note_on,304,0,2,,,,,,,,,,,,,,,0,,,45,0
45480,note_on,0,0,2,,,,,,,,,,,,,,,0,,,33,0
45480,note_on,360,0,1,,,,,,,,,,,,,,,0,,,79,0
45480,note_on,0,0,1,,,,,,,,,,,,,,,0,,,67,0
45480,note_on,0,0,1,,,,,,,,,,,,,,,0,,,72,0
45600,note_on,120,0,2,,,,,,,,,,,,,,,0,,,57,26
45600,note_on,0,0,2,,,,,,,,,,,,,,,0,,,60,32
45600,note_on,120,0,1,,,,,,,,,,,,,,,0,,,65,29
45600,note_on,0,0,1,,,,,,,,,,,,,,,0,,,72,29
45600,note_on,0,0,1,,,,,,,,,,,,,,,0,,,77,36
45600,set_tempo,480,1,0,,,,,,,,,,,,615385,,,,,,,
45840,note_on,240,0,2,,,,,,,,,,,,,,,0,,,60,0
45840,note_on,0,0,2,,,,,,,,,,,,,,,0,,,57,0
45840,note_on,240,0,1,,,,,,,,,,,,,,,0,,,77,0
45840,note_on,0,0,1,,,,,,,,,,,,,,,0,,,72,0
45840,note_on,0,0,1,,,,,,,,,,,,,,,0,,,65,0
46080,note_on,0,0,1,,,,,,,,,,,,,,,0,,,77,28
46080,note_on,240,0,1,,,,,,,,,,,,,,,0,,,84,35
46080,set_tempo,480,1,0,,,,,,,,,,,,451128,,,,,,,
46080,note_on,240,0,2,,,,,,,,,,,,,,,0,,,72,27
46080,note_on,0,0,2,,,,,,,,,,,,,,,0,,,69,18
47040,note_on,0,0,2,,,,,,,,,,,,,,,0,,,72,0
47040,note_on,0,0,1,,,,,,,,,,,,,,,0,,,84,0
47040,note_on,960,0,1,,,,,,,,,,,,,,,0,,,77,0
47040,note_on,960,0,2,,,,,,,,,,,,,,,0,,,69,0
47259,control_change,219,0,2,,,,,,,,,,,,,,,0,64,127,,
47280,note_on,240,0,1,,,,,,,,,,,,,,,0,,,57,24
47280,set_tempo,1200,1,0,,,,,,,,,,,,434783,,,,,,,
47400,note_on,120,0,1,,,,,,,,,,,,,,,0,,,57,0
47400,note_on,0,0,1,,,,,,,,,,,,,,,0,,,60,25
47520,note_on,0,0,1,,,,,,,,,,,,,,,0,,,65,25
47520,note_on,120,0,1,,,,,,,,,,,,,,,0,,,60,0
47640,note_on,0,0,1,,,,,,,,,,,,,,,0,,,69,26
47640,note_on,120,0,1,,,,,,,,,,,,,,,0,,,65,0
47760,note_on,0,0,1,,,,,,,,,,,,,,,0,,,72,27
47760,note_on,120,0,1,,,,,,,,,,,,,,,0,,,69,0
47880,note_on,0,0,1,,,,,,,,,,,,,,,0,,,77,27
47880,note_on,120,0,1,,,,,,,,,,,,,,,0,,,72,0
48000,note_on,120,0,1,,,,,,,,,,,,,,,0,,,77,0
48000,note_on,0,0,1,,,,,,,,,,,,,,,0,,,72,26
48000,note_on,0,0,1,,,,,,,,,,,,,,,0,,,69,26
48000,note_on,0,0,1,,,,,,,,,,,,,,,0,,,81,32
48000,note_on,0,0,2,,,,,,,,,,,,,,,0,,,52,29
48000,set_tempo,720,1,0,,,,,,,,,,,,495868,,,,,,,
48000,note_on,741,0,2,,,,,,,,,,,,,,,0,,,40,25
48056,control_change,56,0,2,,,,,,,,,,,,,,,0,64,0,,
48360,note_on,360,0,1,,,,,,,,,,,,,,,0,,,81,0
48360,note_on,0,0,1,,,,,,,,,,,,,,,0,,,69,0
48360,note_on,304,0,2,,,,,,,,,,,,,,,0,,,52,0
48360,note_on,0,0,2,,,,,,,,,,,,,,,0,,,40,0
48360,note_on,0,0,1,,,,,,,,,,,,,,,0,,,72,0
48480,note_on,0,0,1,,,,,,,,,,,,,,,0,,,79,32
48480,set_tempo,480,1,0,,,,,,,,,,,,670391,,,,,,,
48480,note_on,0,0,2,,,,,,,,,,,,,,,0,,,55,27
48480,note_on,120,0,2,,,,,,,,,,,,,,,0,,,52,23
48480,note_on,120,0,1,,,,,,,,,,,,,,,0,,,67,26
48480,note_on,0,0,1,,,,,,,,,,,,,,,0,,,72,26
48720,note_on,240,0,1,,,,,,,,,,,,,,,0,,,79,0
48720,note_on,0,0,2,,,,,,,,,,,,,,,0,,,52,0
48720,note_on,240,0,2,,,,,,,,,,,,,,,0,,,55,0
48720,note_on,0,0,1,,,,,,,,,,,,,,,0,,,67,0
48720,note_on,0,0,1,,,,,,,,,,,,,,,0,,,72,0
48960,note_on,240,0,2,,,,,,,,,,,,,,,0,,,64,24
48960,note_on,0,0,1,,,,,,,,,,,,,,,0,,,84,31
48960,note_on,240,0,1,,,,,,,,,,,,,,,0,,,72,25
48960,note_on,0,0,2,,,,,,,,,,,,,,,0,,,60,16
48960,note_on,0,0,1,,,,,,,,,,,,,,,0,,,79,25
48960,set_tempo,480,1,0,,,,,,,,,,,,451128,,,,,,,
50880,note_on,0,0,1,,,,,,,,,,,,,,,0,,,72,0
50880,note_on,1920,0,2,,,,,,,,,,,,,,,0,,,60,0
50880,note_on,0,0,2,,,,,,,,,,,,,,,0,,,64,0
50880,set_tempo,1920,1,0,,,,,,,,,,,,405405,,,,,,,
50880,note_on,1920,0,1,,,,,,,,,,,,,,,0,,,79,0
50880,note_on,0,0,1,,,,,,,,,,,,,,,0,,,84,0
51106,control_change,226,0,2,,,,,,,,,,,,,,,0,64,127,,
51120,note_on,240,0,1,,,,,,,,,,,,,,,0,,,60,76
51240,note_on,0,0,1,,,,,,,,,,,,,,,0,,,64,78
51240,note_on,120,0,1,,,,,,,,,,,,,,,0,,,60,0
51360,note_on,0,0,1,,,,,,,,,,,,,,,0,,,67,80
51360,note_on,120,0,1,,,,,,,,,,,,,,,0,,,64,0
51480,note_on,120,0,1,,,,,,,,,,,,,,,0,,,67,0
51480,note_on,0,0,1,,,,,,,,,,,,,,,0,,,72,82
51600,note_on,0,0,1,,,,,,,,,,,,,,,0,,,76,84
51600,note_on,120,0,1,,,,,,,,,,,,,,,0,,,72,0
51720,note_on,0,0,1,,,,,,,,,,,,,,,0,,,79,86
51720,note_on,120,0,1,,,,,,,,,,,,,,,0,,,76,0
51840,control_change,734,0,2,,,,,,,,,,,,,,,0,64,0,,
51840,note_on,0,0,1,,,,,,,,,,,,,,,0,,,84,93
51840,note_on,0,0,1,,,,,,,,,,,,,,,0,,,80,79
51840,set_tempo,960,1,0,,,,,,,,,,,,459770,,,,,,,
51840,note_on,0,0,1,,,,,,,,,,,,,,,0,,,72,79
51840,note_on,120,0,1,,,,,,,,,,,,,,,0,,,79,0
51840,note_on,0,0,1,,,,,,,,,,,,,,,0,,,77,79
52080,set_tempo,240,1,0,,,,,,,,,,,,419580,,,,,,,
52080,note_on,240,0,2,,,,,,,,,,,,,,,0,,,38,72
52103,control_change,23,0,2,,,,,,,,,,,,,,,0,64,127,,
52200,note_on,0,0,2,,,,,,,,,,,,,,,0,,,41,74
52200,note_on,97,0,2,,,,,,,,,,,,,,,0,,,38,0
52320,note_on,0,0,2,,,,,,,,,,,,,,,0,,,44,76
52320,set_tempo,240,1,0,,,,,,,,,,,,406780,,,,,,,
52320,note_on,120,0,2,,,,,,,,,,,,,,,0,,,41,0
52440,note_on,120,0,2,,,,,,,,,,,,,,,0,,,44,0
52440,note_on,0,0,2,,,,,,,,,,,,,,,0,,,50,78
52560,note_on,0,0,2,,,,,,,,,,,,,,,0,,,53,80
52560,note_on,120,0,2,,,,,,,,,,,,,,,0,,,50,0
52680,note_on,0,0,2,,,,,,,,,,,,,,,0,,,56,82
52680,note_on,120,0,2,,,,,,,,,,,,,,,0,,,53,0
52800,control_change,0,0,2,,,,,,,,,,,,,,,0,64,0,,
52800,note_on,0,0,2,,,,,,,,,,,,,,,0,,,50,71
52800,note_on,0,0,2,,,,,,,,,,,,,,,0,,,62,84
52800,note_on,120,0,2,,,,,,,,,,,,,,,0,,,56,0
52800,note_on,0,0,1,,,,,,,,,,,,,,,0,,,79,77
52800,note_on,0,0,1,,,,,,,,,,,,,,,0,,,72,0
52800,note_on,0,0,1,,,,,,,,,,,,,,,0,,,77,0
52800,note_on,0,0,1,,,,,,,,,,,,,,,0,,,80,0
52800,note_on,0,0,1,,,,,,,,,,,,,,,0,,,71,77
52800,note_on,0,0,1,,,,,,,,,,,,,,,0,,,77,77
52800,note_on,0,0,1,,,,,,,,,,,,,,,0,,,83,91
52800,note_on,960,0,1,,,,,,,,,,,,,,,0,,,84,0
53760,note_on,0,0,1,,,,,,,,,,,,,,,0,,,71,0
53760,note_on,960,0,1,,,,,,,,,,,,,,,0,,,79,0
53760,note_on,0,0,2,,,,,,,,,,,,,,,0,,,50,0
53760,note_on,0,0,1,,,,,,,,,,,,,,,0,,,77,0
53760,note_on,960,0,2,,,,,,,,,,,,,,,0,,,62,0
53760,note_on,0,0,1,,,,,,,,,,,,,,,0,,,83,0
53760,note_on,0,0,1,,,,,,,,,,,,,,,0,,,79,78
53760,note_on,0,0,1,,,,,,,,,,,,,,,0,,,84,92
53760,set_tempo,1440,1,0,,,,,,,,,,,,416667,,,,,,,
53760,note_on,0,0,1,,,,,,,,,,,,,,,0,,,72,78
53760,note_on,0,0,2,,,,,,,,,,,,,,,0,,,52,68
53760,note_on,0,0,2,,,,,,,,,,,,,,,0,,,64,80
54240,note_on,0,0,1,,,,,,,,,,,,,,,0,,,72,0
54240,note_on,0,0,1,,,,,,,,,,,,,,,0,,,76,76
54240,note_on,0,0,1,,,,,,,,,,,,,,,0,,,88,90
54240,note_on,0,0,1,,,,,,,,,,,,,,,0,,,81,76
54240,note_on,480,0,1,,,,,,,,,,,,,,,0,,,79,0
54240,note_on,0,0,2,,,,,,,,,,,,,,,0,,,60,76
54240,note_on,0,0,2,,,,,,,,,,,,,,,0,,,48,64
54240,note_on,0,0,2,,,,,,,,,,,,,,,0,,,52,0
54240,note_on,480,0,2,,,,,,,,,,,,,,,0,,,64,0
54240,note_on,0,0,1,,,,,,,,,,,,,,,0,,,84,0
54240,note_on,0,0,1,,,,,,,,,,,,,,,0,,,78,76
54720,set_tempo,960,1,0,,,,,,,,,,,,449438,,,,,,,
54720,note_on,0,0,2,,,,,,,,,,,,,,,0,,,55,80
54720,note_on,0,0,2,,,,,,,,,,,,,,,0,,,48,0
54720,note_on,0,0,1,,,,,,,,,,,,,,,0,,,83,79
54720,note_on,0,0,1,,,,,,,,,,,,,,,0,,,86,94
54720,note_on,0,0,1,,,,,,,,,,,,,,,0,,,74,79
54720,note_on,0,0,1,,,,,,,,,,,,,,,0,,,81,0
54720,note_on,480,0,2,,,,,,,,,,,,,,,0,,,60,0
54720,note_on,0,0,1,,,,,,,,,,,,,,,0,,,76,0
54720,note_on,0,0,1,,,,,,,,,,,,,,,0,,,88,0
54720,note_on,0,0,1,,,,,,,,,,,,,,,0,,,79,79
54720,note_on,0,0,2,,,,,,,,,,,,,,,0,,,43,68
54720,note_on,480,0,1,,,,,,,,,,,,,,,0,,,78,0
54960,set_tempo,240,1,0,,,,,,,,,,,,402685,,,,,,,
54960,note_on,0,0,2,,,,,,,,,,,,,,,0,,,43,0
54960,note_on,240,0,2,,,,,,,,,,,,,,,0,,,55,0
54960,note_on,0,0,1,,,,,,,,,,,,,,,0,,,62,76
54960,note_on,0,0,1,,,,,,,,,,,,,,,0,,,83,0
54960,note_on,0,0,1,,,,,,,,,,,,,,,0,,,86,0
54960,note_on,0,0,1,,,,,,,,,,,,,,,0,,,74,0
54960,note_on,240,0,1,,,,,,,,,,,,,,,0,,,79,0
55059,control_change,99,0,2,,,,,,,,,,,,,,,0,64,127,,
55080,note_on,0,0,1,,,,,,,,,,,,,,,0,,,67,79
55080,note_on,120,0,1,,,,,,,,,,,,,,,0,,,62,0
55200,note_on,0,0,1,,,,,,,,,,,,,,,0,,,71,82
55200,note_on,120,0,1,,,,,,,,,,,,,,,0,,,67,0
55320,note_on,0,0,1,,,,,,,,,,,,,,,0,,,74,85
55320,note_on,120,0,1,,,,,,,,,,,,,,,0,,,71,0
55440,note_on,120,0,1,,,,,,,,,,,,,,,0,,,74,0
55440,note_on,0,0,1,,,,,,,,,,,,,,,0,,,79,88
55560,note_on,0,0,1,,,,,,,,,,,,,,,0,,,83,91
55560,note_on,120,0,1,,,,,,,,,,,,,,,0,,,79,0
55680,note_on,0,0,1,,,,,,,,,,,,,,,0,,,77,79
55680,note_on,0,0,1,,,,,,,,,,,,,,,0,,,72,79
55680,note_on,0,0,1,,,,,,,,,,,,,,,0,,,84,93
55680,set_tempo,720,1,0,,,,,,,,,,,,459770,,,,,,,
55680,note_on,120,0,1,,,,,,,,,,,,,,,0,,,83,0
55680,note_on,0,0,1,,,,,,,,,,,,,,,0,,,80,79
55680,control_change,621,0,2,,,,,,,,,,,,,,,0,64,0,,
55920,set_tempo,240,1,0,,,,,,,,,,,,419580,,,,,,,
55920,note_on,240,0,2,,,,,,,,,,,,,,,0,,,38,72
55943,control_change,23,0,2,,,,,,,,,,,,,,,0,64,127,,
56040,note_on,97,0,2,,,,,,,,,,,,,,,0,,,38,0
56040,note_on,0,0,2,,,,,,,,,,,,,,,0,,,41,74
56160,set_tempo,240,1,0,,,,,,,,,,,,406780,,,,,,,
56160,note_on,120,0,2,,,,,,,,,,,,,,,0,,,41,0
56160,note_on,0,0,2,,,,,,,,,,,,,,,0,,,44,76
56280,note_on,0,0,2,,,,,,,,,,,,,,,0,,,50,78
56280,note_on,120,0,2,,,,,,,,,,,,,,,0,,,44,0
56400,note_on,120,0,2,,,,,,,,,,,,,,,0,,,50,0
56400,note_on,0,0,2,,,,,,,,,,,,,,,0,,,53,80
56520,note_on,120,0,2,,,,,,,,,,,,,,,0,,,53,0
56520,note_on,0,0,2,,,,,,,,,,,,,,,0,,,56,82
56640,note_on,960,0,1,,,,,,,,,,,,,,,0,,,84,0
56640,note_on,0,0,1,,,,,,,,,,,,,,,0,,,72,0
56640,note_on,0,0,1,,,,,,,,,,,,,,,0,,,77,0
56640,note_on,0,0,1,,,,,,,,,,,,,,,0,,,71,77
56640,note_on,0,0,1,,,,,,,,,,,,,,,0,,,77,77
56640,note_on,0,0,1,,,,,,,,,,,,,,,0,,,83,91
56640,note_on,0,0,1,,,,,,,,,,,,,,,0,,,79,77
56640,note_on,0,0,1,,,,,,,,,,,,,,,0,,,80,0
56640,note_on,0,0,2,,,,,,,,,,,,,,,0,,,62,84
56640,note_on,0,0,2,,,,,,,,,,,,,,,0,,,50,71
56640,control_change,0,0,2,,,,,,,,,,,,,,,0,64,0,,
56640,note_on,120,0,2,,,,,,,,,,,,,,,0,,,56,0
57600,note_on,0,0,2,,,,,,,,,,,,,,,0,,,52,68
57600,note_on,0,0,1,,,,,,,,,,,,,,,0,,,79,78
57600,note_on,0,0,1,,,,,,,,,,,,,,,0,,,83,0
57600,note_on,0,0,1,,,,,,,,,,,,,,,0,,,77,0
57600,note_on,0,0,1,,,,,,,,,,,,,,,0,,,71,0
57600,note_on,960,0,1,,,,,,,,,,,,,,,0,,,79,0
57600,set_tempo,1440,1,0,,,,,,,,,,,,422535,,,,,,,
57600,note_on,0,0,1,,,,,,,,,,,,,,,0,,,72,78
57600,note_on,0,0,2,,,,,,,,,,,,,,,0,,,64,80
57600,note_on,960,0,2,,,,,,,,,,,,,,,0,,,62,0
57600,note_on,0,0,2,,,,,,,,,,,,,,,0,,,50,0
57600,note_on,0,0,1,,,,,,,,,,,,,,,0,,,84,92
58080,note_on,0,0,2,,,,,,,,,,,,,,,0,,,60,76
58080,note_on,0,0,1,,,,,,,,,,,,,,,0,,,81,76
58080,note_on,0,0,2,,,,,,,,,,,,,,,0,,,52,0
58080,note_on,480,0,2,,,,,,,,,,,,,,,0,,,64,0
58080,note_on,0,0,2,,,,,,,,,,,,,,,0,,,48,64
58080,note_on,0,0,1,,,,,,,,,,,,,,,0,,,84,0
58080,note_on,0,0,1,,,,,,,,,,,,,,,0,,,78,76
58080,note_on,0,0,1,,,,,,,,,,,,,,,0,,,88,90
58080,note_on,0,0,1,,,,,,,,,,,,,,,0,,,76,76
58080,note_on,0,0,1,,,,,,,,,,,,,,,0,,,72,0
58080,note_on,480,0,1,,,,,,,,,,,,,,,0,,,79,0
58560,note_on,0,0,2,,,,,,,,,,,,,,,0,,,48,0
58560,note_on,0,0,1,,,,,,,,,,,,,,,0,,,74,79
58560,note_on,0,0,1,,,,,,,,,,,,,,,0,,,86,94
58560,note_on,0,0,1,,,,,,,,,,,,,,,0,,,83,79
58560,note_on,0,0,1,,,,,,,,,,,,,,,0,,,79,79
58560,note_on,480,0,1,,,,,,,,,,,,,,,0,,,78,0
58560,note_on,0,0,2,,,,,,,,,,,,,,,0,,,43,68
58560,note_on,0,0,1,,,,,,,,,,,,,,,0,,,88,0
58560,note_on,0,0,2,,,,,,,,,,,,,,,0,,,55,80
58560,note_on,0,0,1,,,,,,,,,,,,,,,0,,,76,0
58560,note_on,0,0,1,,,,,,,,,,,,,,,0,,,81,0
58560,note_on,480,0,2,,,,,,,,,,,,,,,0,,,60,0
58800,note_on,240,0,2,,,,,,,,,,,,,,,0,,,55,0
58800,note_on,0,0,2,,,,,,,,,,,,,,,0,,,43,0
58800,note_on,240,0,1,,,,,,,,,,,,,,,0,,,79,0
58800,note_on,0,0,1,,,,,,,,,,,,,,,0,,,67,76
58800,note_on,0,0,1,,,,,,,,,,,,,,,0,,,83,0
58800,note_on,0,0,1,,,,,,,,,,,,,,,0,,,86,0
58800,note_on,0,0,1,,,,,,,,,,,,,,,0,,,74,0
58800,set_tempo,1200,1,0,,,,,,,,,,,,416667,,,,,,,
58899,control_change,99,0,2,,,,,,,,,,,,,,,0,64,127,,
58920,note_on,0,0,1,,,,,,,,,,,,,,,0,,,71,79
58920,note_on,120,0,1,,,,,,,,,,,,,,,0,,,67,0
59040,note_on,0,0,1,,,,,,,,,,,,,,,0,,,74,82
59040,note_on,120,0,1,,,,,,,,,,,,,,,0,,,71,0
59160,note_on,0,0,1,,,,,,,,,,,,,,,0,,,79,85
59160,note_on,120,0,1,,,,,,,,,,,,,,,0,,,74,0
59280,note_on,120,0,1,,,,,,,,,,,,,,,0,,,79,0
59280,note_on,0,0,1,,,,,,,,,,,,,,,0,,,83,88
59400,note_on,120,0,1,,,,,,,,,,,,,,,0,,,83,0
59400,note_on,0,0,1,,,,,,,,,,,,,,,0,,,86,91
59520,set_tempo,720,1,0,,,,,,,,,,,,459770,,,,,,,
59520,control_change,621,0,2,,,,,,,,,,,,,,,0,64,0,,
59520,note_on,0,0,1,,,,,,,,,,,,,,,0,,,91,93
59520,note_on,0,0,1,,,,,,,,,,,,,,,0,,,85,79
59520,note_on,0,0,1,,,,,,,,,,,,,,,0,,,82,79
59520,note_on,0,0,1,,,,,,,,,,,,,,,0,,,79,79
59520,note_on,120,0,1,,,,,,,,,,,,,,,0,,,86,0
59720,set_tempo,200,1,0,,,,,,,,,,,,422535,,,,,,,
59760,note_on,240,0,2,,,,,,,,,,,,,,,0,,,52,73
59783,control_change,23,0,2,,,,,,,,,,,,,,,0,64,127,,
59800,set_tempo,80,1,0,,,,,,,,,,,,421053,,,,,,,
59880,note_on,97,0,2,,,,,,,,,,,,,,,0,,,52,0
59880,set_tempo,80,1,0,,,,,,,,,,,,419580,,,,,,,
59880,note_on,0,0,2,,,,,,,,,,,,,,,0,,,55,75
59960,set_tempo,80,1,0,,,,,,,,,,,,418118,,,,,,,
60000,note_on,0,0,2,,,,,,,,,,,,,,,0,,,58,77
60000,note_on,120,0,2,,,,,,,,,,,,,,,0,,,55,0
60040,set_tempo,80,1,0,,,,,,,,,,,,416667,,,,,,,
60120,set_tempo,80,1,0,,,,,,,,,,,,415225,,,,,,,
60120,note_on,120,0,2,,,,,,,,,,,,,,,0,,,58,0
60120,note_on,0,0,2,,,,,,,,,,,,,,,0,,,61,79
60200,set_tempo,80,1,0,,,,,,,,,,,,413793,,,,,,,
60240,note_on,0,0,2,,,,,,,,,,,,,,,0,,,67,80
60240,note_on,120,0,2,,,,,,,,,,,,,,,0,,,61,0
60280,set_tempo,80,1,0,,,,,,,,,,,,412371,,,,,,,
60360,note_on,0,0,2,,,,,,,,,,,,,,,0,,,70,82
60360,set_tempo,80,1,0,,,,,,,,,,,,410959,,,,,,,
60360,note_on,120,0,2,,,,,,,,,,,,,,,0,,,67,0
60400,set_tempo,40,1,0,,,,,,,,,,,,408163,,,,,,,
60480,note_on,0,0,1,,,,,,,,,,,,,,,0,,,85,0
60480,note_on,0,0,1,,,,,,,,,,,,,,,0,,,82,0
60480,note_on,0,0,2,,,,,,,,,,,,,,,0,,,73,88
60480,note_on,120,0,2,,,,,,,,,,,,,,,0,,,70,0
60480,note_on,0,0,1,,,,,,,,,,,,,,,0,,,79,0
60480,note_on,960,0,1,,,,,,,,,,,,,,,0,,,91,0
60600,note_on,0,0,2,,,,,,,,,,,,,,,0,,,76,82
60600,note_on,120,0,2,,,,,,,,,,,,,,,0,,,73,0
60640,set_tempo,240,1,0,,,,,,,,,,,,409556,,,,,,,
60720,note_on,120,0,2,,,,,,,,,,,,,,,0,,,76,0
60720,note_on,0,0,2,,,,,,,,,,,,,,,0,,,73,81
60840,note_on,120,0,2,,,,,,,,,,,,,,,0,,,73,0
60840,note_on,0,0,2,,,,,,,,,,,,,,,0,,,70,80
60840,set_tempo,200,1,0,,,,,,,,,,,,410959,,,,,,,
60960,note_on,0,0,2,,,,,,,,,,,,,,,0,,,67,76
60960,note_on,120,0,2,,,,,,,,,,,,,,,0,,,70,0
61040,set_tempo,200,1,0,,,,,,,,,,,,412371,,,,,,,
61080,note_on,120,0,2,,,,,,,,,,,,,,,0,,,67,0
61080,note_on,0,0,2,,,,,,,,,,,,,,,0,,,64,78
61200,note_on,120,0,2,,,,,,,,,,,,,,,0,,,64,0
61200,note_on,0,0,2,,,,,,,,,,,,,,,0,,,61,78
61240,set_tempo,200,1,0,,,,,,,,,,,,413793,,,,,,,
61320,note_on,0,0,2,,,,,,,,,,,,,,,0,,,58,76
61320,note_on,120,0,2,,,,,,,,,,,,,,,0,,,61,0
61400,set_tempo,160,1,0,,,,,,,,,,,,410959,,,,,,,
61440,note_on,0,0,2,,,,,,,,,,,,,,,0,,,61,76
61440,set_tempo,40,1,0,,,,,,,,,,,,415225,,,,,,,
61440,note_on,960,0,1,,,,,,,,,,,,,,,0,,,88,89
61440,note_on,120,0,2,,,,,,,,,,,,,,,0,,,58,0
61560,note_on,0,0,2,,,,,,,,,,,,,,,0,,,64,68
61560,note_on,120,0,2,,,,,,,,,,,,,,,0,,,61,0
61560,note_on,120,0,1,,,,,,,,,,,,,,,0,,,88,0
61560,note_on,0,0,1,,,,,,,,,,,,,,,0,,,91,82
61680,note_on,120,0,1,,,,,,,,,,,,,,,0,,,91,0
61680,note_on,0,0,1,,,,,,,,,,,,,,,0,,,88,82
61680,note_on,0,0,2,,,,,,,,,,,,,,,0,,,61,69
61680,note_on,120,0,2,,,,,,,,,,,,,,,0,,,64,0
61800,note_on,0,0,2,,,,,,,,,,,,,,,0,,,58,69
61800,note_on,0,0,1,,,,,,,,,,,,,,,0,,,85,82
61800,note_on,120,0,2,,,,,,,,,,,,,,,0,,,61,0
61800,note_on,120,0,1,,,,,,,,,,,,,,,0,,,88,0
61920,note_on,0,0,1,,,,,,,,,,,,,,,0,,,82,86
61920,note_on,0,0,2,,,,,,,,,,,,,,,0,,,55,73
61920,note_on,120,0,2,,,,,,,,,,,,,,,0,,,58,0
61920,note_on,120,0,1,,,,,,,,,,,,,,,0,,,85,0
62040,note_on,120,0,1,,,,,,,,,,,,,,,0,,,82,0
62040,note_on,120,0,2,,,,,,,,,,,,,,,0,,,55,0
62040,note_on,0,0,2,,,,,,,,,,,,,,,0,,,52,66
62040,note_on,0,0,1,,,,,,,,,,,,,,,0,,,79,75
62160,note_on,0,0,1,,,,,,,,,,,,,,,0,,,76,75
62160,note_on,0,0,2,,,,,,,,,,,,,,,0,,,49,66
62160,note_on,120,0,2,,,,,,,,,,,,,,,0,,,52,0
62160,note_on,120,0,1,,,,,,,,,,,,,,,0,,,79,0
62280,note_on,0,0,2,,,,,,,,,,,,,,,0,,,46,66
62280,note_on,120,0,2,,,,,,,,,,,,,,,0,,,49,0
62280,set_tempo,840,1,0,,,,,,,,,,,,442804,,,,,,,
62280,note_on,120,0,1,,,,,,,,,,,,,,,0,,,76,0
62280,note_on,0,0,1,,,,,,,,,,,,,,,0,,,73,75
62400,set_tempo,120,1,0,,,,,,,,,,,,415225,,,,,,,
62400,note_on,120,0,1,,,,,,,,,,,,,,,0,,,73,0
62400,note_on,120,0,2,,,,,,,,,,,,,,,0,,,46,0
62400,note_on,0,0,1,,,,,,,,,,,,,,,0,,,76,81
62400,note_on,0,0,2,,,,,,,,,,,,,,,0,,,49,66
62520,note_on,0,0,2,,,,,,,,,,,,,,,0,,,52,60
62520,note_on,120,0,2,,,,,,,,,,,,,,,0,,,49,0
62520,note_on,120,0,1,,,,,,,,,,,,,,,0,,,76,0
62520,note_on,0,0,1,,,,,,,,,,,,,,,0,,,79,73
62640,note_on,120,0,2,,,,,,,,,,,,,,,0,,,52,0
62640,note_on,0,0,2,,,,,,,,,,,,,,,0,,,49,60
62640,note_on,120,0,1,,,,,,,,,,,,,,,0,,,79,0
62640,note_on,0,0,1,,,,,,,,,,,,,,,0,,,76,73
62760,note_on,120,0,2,,,,,,,,,,,,,,,0,,,49,0
62760,note_on,0,0,2,,,,,,,,,,,,,,,0,,,46,60
62760,note_on,0,0,1,,,,,,,,,,,,,,,0,,,73,73
62760,note_on,120,0,1,,,,,,,,,,,,,,,0,,,76,0
62880,note_on,0,0,1,,,,,,,,,,,,,,,0,,,70,80
62880,note_on,120,0,1,,,,,,,,,,,,,,,0,,,73,0
62880,note_on,120,0,2,,,,,,,,,,,,,,,0,,,46,0
62880,note_on,0,0,2,,,,,,,,,,,,,,,0,,,43,67
63000,note_on,0,0,1,,,,,,,,,,,,,,,0,,,67,74
63000,note_on,0,0,2,,,,,,,,,,,,,,,0,,,40,59
63000,note_on,120,0,2,,,,,,,,,,,,,,,0,,,43,0
63000,note_on,120,0,1,,,,,,,,,,,,,,,0,,,70,0
63120,note_on,120,0,1,,,,,,,,,,,,,,,0,,,67,0
63120,note_on,0,0,1,,,,,,,,,,,,,,,0,,,64,74
63120,note_on,120,0,2,,,,,,,,,,,,,,,0,,,40,0
63120,note_on,0,0,2,,,,,,,,,,,,,,,0,,,37,60
63240,note_on,0,0,1,,,,,,,,,,,,,,,0,,,61,74
63240,note_on,120,0,1,,,,,,,,,,,,,,,0,,,64,0
63240,note_on,0,0,2,,,,,,,,,,,,,,,0,,,34,60
63240,note_on,120,0,2,,,,,,,,,,,,,,,0,,,37,0
63240,set_tempo,840,1,0,,,,,,,,,,,,439560,,,,,,,
63360,note_on,0,0,2,,,,,,,,,,,,,,,0,,,37,68
63360,note_on,120,0,2,,,,,,,,,,,,,,,0,,,34,0
63360,note_on,0,0,1,,,,,,,,,,,,,,,0,,,64,77
63360,note_on,120,0,1,,,,,,,,,,,,,,,0,,,61,0
63360,set_tempo,120,1,0,,,,,,,,,,,,416667,,,,,,,
63370,control_change,10,0,2,,,,,,,,,,,,,,,0,64,0,,
63417,control_change,47,0,2,,,,,,,,,,,,,,,0,64,127,,
63480,note_on,0,0,2,,,,,,,,,,,,,,,0,,,40,47
63480,note_on,63,0,2,,,,,,,,,,,,,,,0,,,37,0
63480,note_on,120,0,1,,,,,,,,,,,,,,,0,,,64,0
63480,note_on,0,0,1,,,,,,,,,,,,,,,0,,,67,58
63600,note_on,120,0,1,,,,,,,,,,,,,,,0,,,67,0
63600,note_on,0,0,2,,,,,,,,,,,,,,,0,,,37,47
63600,note_on,120,0,2,,,,,,,,,,,,,,,0,,,40,0
63600,note_on,0,0,1,,,,,,,,,,,,,,,0,,,64,58
63720,note_on,120,0,2,,,,,,,,,,,,,,,0,,,37,0
63720,note_on,0,0,1,,,,,,,,,,,,,,,0,,,61,58
63720,note_on,0,0,2,,,,,,,,,,,,,,,0,,,34,47
63720,note_on,120,0,1,,,,,,,,,,,,,,,0,,,64,0
63840,note_on,120,0,1,,,,,,,,,,,,,,,0,,,61,0
63840,note_on,0,0,1,,,,,,,,,,,,,,,0,,,64,64
63840,note_on,120,0,2,,,,,,,,,,,,,,,0,,,34,0
63840,note_on,0,0,2,,,,,,,,,,,,,,,0,,,37,58
63960,note_on,0,0,1,,,,,,,,,,,,,,,0,,,67,53
63960,note_on,120,0,1,,,,,,,,,,,,,,,0,,,64,0
63960,note_on,0,0,2,,,,,,,,,,,,,,,0,,,40,45
63960,note_on,120,0,2,,,,,,,,,,,,,,,0,,,37,0
64080,note_on,0,0,2,,,,,,,,,,,,,,,0,,,37,45
64080,note_on,120,0,2,,,,,,,,,,,,,,,0,,,40,0
64080,note_on,0,0,1,,,,,,,,,,,,,,,0,,,64,52
64080,note_on,120,0,1,,,,,,,,,,,,,,,0,,,67,0
64120,set_tempo,760,1,0,,,,,,,,,,,,413793,,,,,,,
64200,note_on,0,0,2,,,,,,,,,,,,,,,0,,,34,45
64200,note_on,0,0,1,,,,,,,,,,,,,,,0,,,61,52
64200,note_on,120,0,1,,,,,,,,,,,,,,,0,,,64,0
64200,note_on,120,0,2,,,,,,,,,,,,,,,0,,,37,0
64320,set_tempo,200,1,0,,,,,,,,,,,,412371,,,,,,,
64320,note_on,0,0,1,,,,,,,,,,,,,,,0,,,64,57
64320,note_on,120,0,1,,,,,,,,,,,,,,,0,,,61,0
64320,note_on,120,0,2,,,,,,,,,,,,,,,0,,,34,0
64320,note_on,0,0,2,,,,,,,,,,,,,,,0,,,37,53
64330,control_change,10,0,2,,,,,,,,,,,,,,,0,64,0,,
64440,note_on,0,0,1,,,,,,,,,,,,,,,0,,,67,48
64440,note_on,120,0,1,,,,,,,,,,,,,,,0,,,64,0
64440,note_on,110,0,2,,,,,,,,,,,,,,,0,,,37,0
64440,note_on,0,0,2,,,,,,,,,,,,,,,0,,,40,39
64520,set_tempo,200,1,0,,,,,,,,,,,,410959,,,,,,,
64560,note_on,0,0,2,,,,,,,,,,,,,,,0,,,37,39
64560,note_on,0,0,1,,,,,,,,,,,,,,,0,,,64,48
64560,note_on,120,0,1,,,,,,,,,,,,,,,0,,,67,0
64560,note_on,120,0,2,,,,,,,,,,,,,,,0,,,40,0
64680,note_on,120,0,2,,,,,,,,,,,,,,,0,,,37,0
64680,note_on,0,0,2,,,,,,,,,,,,,,,0,,,34,39
64680,note_on,0,0,1,,,,,,,,,,,,,,,0,,,61,48
64680,note_on,120,0,1,,,,,,,,,,,,,,,0,,,64,0
64720,set_tempo,200,1,0,,,,,,,,,,,,409556,,,,,,,
64800,note_on,0,0,2,,,,,,,,,,,,,,,0,,,37,51
64800,note_on,120,0,2,,,,,,,,,,,,,,,0,,,34,0
64800,note_on,120,0,1,,,,,,,,,,,,,,,0,,,61,0
64800,note_on,0,0,1,,,,,,,,,,,,,,,0,,,64,54
64920,note_on,120,0,1,,,,,,,,,,,,,,,0,,,64,0
64920,note_on,0,0,1,,,,,,,,,,,,,,,0,,,67,46
64920,set_tempo,200,1,0,,,,,,,,,,,,408163,,,,,,,
64920,note_on,120,0,2,,,,,,,,,,,,,,,0,,,37,0
64920,note_on,0,0,2,,,,,,,,,,,,,,,0,,,40,34
65040,note_on,120,0,1,,,,,,,,,,,,,,,0,,,67,0
65040,note_on,0,0,1,,,,,,,,,,,,,,,0,,,64,46
65040,note_on,120,0,2,,,,,,,,,,,,,,,0,,,40,0
65040,note_on,0,0,2,,,,,,,,,,,,,,,0,,,37,34
65120,set_tempo,200,1,0,,,,,,,,,,,,406780,,,,,,,
65160,note_on,0,0,2,,,,,,,,,,,,,,,0,,,34,34
65160,note_on,0,0,1,,,,,,,,,,,,,,,0,,,61,46
65160,note_on,120,0,2,,,,,,,,,,,,,,,0,,,37,0
65160,note_on,120,0,1,,,,,,,,,,,,,,,0,,,64,0
65280,note_on,120,0,2,,,,,,,,,,,,,,,0,,,34,0
65280,set_tempo,160,1,0,,,,,,,,,,,,405405,,,,,,,
65280,note_on,0,0,2,,,,,,,,,,,,,,,0,,,35,37
65280,note_on,120,0,1,,,,,,,,,,,,,,,0,,,61,0
65280,note_on,0,0,1,,,,,,,,,,,,,,,0,,,62,50
65386,control_change,106,0,2,,,,,,,,,,,,,,,0,64,127,,
65400,note_on,14,0,2,,,,,,,,,,,,,,,0,,,35,0
65400,note_on,0,0,2,,,,,,,,,,,,,,,0,,,38,30
65400,note_on,120,0,1,,,,,,,,,,,,,,,0,,,62,0
65400,note_on,0,0,1,,,,,,,,,,,,,,,0,,,67,41
65520,note_on,120,0,2,,,,,,,,,,,,,,,0,,,38,0
65520,note_on,0,0,2,,,,,,,,,,,,,,,0,,,43,30
65520,note_on,120,0,1,,,,,,,,,,,,,,,0,,,67,0
65520,note_on,0,0,1,,,,,,,,,,,,,,,0,,,62,41
65640,note_on,0,0,2,,,,,,,,,,,,,,,0,,,38,30
65640,note_on,120,0,2,,,,,,,,,,,,,,,0,,,43,0
65640,note_on,120,0,1,,,,,,,,,,,,,,,0,,,62,0
65640,note_on,0,0,1,,,,,,,,,,,,,,,0,,,55,41
65760,note_on,120,0,1,,,,,,,,,,,,,,,0,,,55,0
65760,note_on,0,0,1,,,,,,,,,,,,,,,0,,,62,49
65760,note_on,120,0,2,,,,,,,,,,,,,,,0,,,38,0
65760,note_on,0,0,2,,,,,,,,,,,,,,,0,,,35,35
65880,note_on,120,0,1,,,,,,,,,,,,,,,0,,,62,0
65880,note_on,0,0,1,,,,,,,,,,,,,,,0,,,67,41
65880,note_on,120,0,2,,,,,,,,,,,,,,,0,,,35,0
65880,note_on,0,0,2,,,,,,,,,,,,,,,0,,,38,30
66000,note_on,120,0,1,,,,,,,,,,,,,,,0,,,67,0
66000,note_on,0,0,1,,,,,,,,,,,,,,,0,,,62,41
66000,note_on,120,0,2,,,,,,,,,,,,,,,0,,,38,0
66000,note_on,0,0,2,,,,,,,,,,,,,,,0,,,43,30
66120,note_on,120,0,1,,,,,,,,,,,,,,,0,,,62,0
66120,note_on,120,0,2,,,,,,,,,,,,,,,0,,,43,0
66120,note_on,0,0,2,,,,,,,,,,,,,,,0,,,38,30
66120,note_on,0,0,1,,,,,,,,,,,,,,,0,,,55,41
66240,note_on,0,0,2,,,,,,,,,,,,,,,0,,,35,35
66240,note_on,120,0,2,,,,,,,,,,,,,,,0,,,38,0
66240,note_on,120,0,1,,,,,,,,,,,,,,,0,,,55,0
66240,note_on,0,0,1,,,,,,,,,,,,,,,0,,,62,48
66360,note_on,0,0,1,,,,,,,,,,,,,,,0,,,67,41
66360,note_on,0,0,2,,,,,,,,,,,,,,,0,,,38,30
66360,note_on,120,0,2,,,,,,,,,,,,,,,0,,,35,0
66360,note_on,120,0,1,,,,,,,,,,,,,,,0,,,62,0
66480,note_on,0,0,2,,,,,,,,,,,,,,,0,,,43,30
66480,note_on,120,0,2,,,,,,,,,,,,,,,0,,,38,0
66480,note_on,120,0,1,,,,,,,,,,,,,,,0,,,67,0
66480,note_on,0,0,1,,,,,,,,,,,,,,,0,,,62,41
66600,note_on,0,0,2,,,,,,,,,,,,,,,0,,,38,30
66600,note_on,120,0,2,,,,,,,,,,,,,,,0,,,43,0
66600,note_on,0,0,1,,,,,,,,,,,,,,,0,,,55,41
66600,note_on,120,0,1,,,,,,,,,,,,,,,0,,,62,0
66720,note_on,120,0,1,,,,,,,,,,,,,,,0,,,55,0
66720,note_on,0,0,2,,,,,,,,,,,,,,,0,,,35,35
66720,note_on,120,0,2,,,,,,,,,,,,,,,0,,,38,0
66720,set_tempo,1440,1,0,,,,,,,,,,,,404040,,,,,,,
66720,note_on,0,0,1,,,,,,,,,,,,,,,0,,,62,48
66840,set_tempo,120,1,0,,,,,,,,,,,,405405,,,,,,,
66840,note_on,0,0,2,,,,,,,,,,,,,,,0,,,38,30
66840,note_on,0,0,1,,,,,,,,,,,,,,,0,,,67,41
66840,note_on,120,0,2,,,,,,,,,,,,,,,0,,,35,0
66840,note_on,120,0,1,,,,,,,,,,,,,,,0,,,62,0
66920,set_tempo,80,1,0,,,,,,,,,,,,406780,,,,,,,
66960,note_on,120,0,2,,,,,,,,,,,,,,,0,,,38,0
66960,note_on,120,0,1,,,,,,,,,,,,,,,0,,,67,0
66960,note_on,0,0,1,,,,,,,,,,,,,,,0,,,62,40
66960,note_on,0,0,2,,,,,,,,,,,,,,,0,,,43,30
67000,set_tempo,80,1,0,,,,,,,,,,,,408163,,,,,,,
67080,note_on,120,0,1,,,,,,,,,,,,,,,0,,,62,0
67080,note_on,0,0,1,,,,,,,,,,,,,,,0,,,55,40
67080,note_on,0,0,2,,,,,,,,,,,,,,,0,,,38,30
67080,set_tempo,80,1,0,,,,,,,,,,,,409556,,,,,,,
67080,note_on,120,0,2,,,,,,,,,,,,,,,0,,,43,0
67160,set_tempo,80,1,0,,,,,,,,,,,,410959,,,,,,,
67200,note_on,120,0,1,,,,,,,,,,,,,,,0,,,55,0
67200,note_on,0,0,1,,,,,,,,,,,,,,,0,,,59,55
67200,set_tempo,40,1,0,,,,,,,,,,,,410959,,,,,,,
67200,note_on,0,0,2,,,,,,,,,,,,,,,0,,,36,37
67200,note_on,120,0,2,,,,,,,,,,,,,,,0,,,38,0
67211,control_change,11,0,2,,,,,,,,,,,,,,,0,64,0,,
67306,control_change,95,0,2,,,,,,,,,,,,,,,0,64,127,,
67320,note_on,14,0,2,,,,,,,,,,,,,,,0,,,36,0
67320,note_on,0,0,2,,,,,,,,,,,,,,,0,,,40,30
67320,note_on,120,0,1,,,,,,,,,,,,,,,0,,,64,41
67440,note_on,120,0,1,,,,,,,,,,,,,,,0,,,64,0
67440,note_on,120,0,2,,,,,,,,,,,,,,,0,,,40,0
67440,note_on,0,0,2,,,,,,,,,,,,,,,0,,,45,30
67440,note_on,0,0,1,,,,,,,,,,,,,,,0,,,71,41
67560,note_on,120,0,2,,,,,,,,,,,,,,,0,,,45,0
67560,note_on,0,0,2,,,,,,,,,,,,,,,0,,,40,30
67560,note_on,120,0,1,,,,,,,,,,,,,,,0,,,71,0
67560,note_on,0,0,1,,,,,,,,,,,,,,,0,,,64,41
67680,note_on,120,0,2,,,,,,,,,,,,,,,0,,,40,0
67680,note_on,0,0,1,,,,,,,,,,,,,,,0,,,59,53
67680,note_on,0,0,1,,,,,,,,,,,,,,,0,,,59,0
67680,note_on,120,0,1,,,,,,,,,,,,,,,0,,,64,0
67680,note_on,0,0,2,,,,,,,,,,,,,,,0,,,36,35
67800,note_on,0,0,2,,,,,,,,,,,,,,,0,,,40,30
67800,note_on,120,0,1,,,,,,,,,,,,,,,0,,,64,41
67800,note_on,120,0,2,,,,,,,,,,,,,,,0,,,36,0
67920,note_on,120,0,2,,,,,,,,,,,,,,,0,,,40,0
67920,note_on,0,0,2,,,,,,,,,,,,,,,0,,,45,30
67920,note_on,120,0,1,,,,,,,,,,,,,,,0,,,64,0
67920,note_on,0,0,1,,,,,,,,,,,,,,,0,,,71,41
68040,note_on,120,0,2,,,,,,,,,,,,,,,0,,,45,0
68040,note_on,0,0,2,,,,,,,,,,,,,,,0,,,40,30
68040,note_on,120,0,1,,,,,,,,,,,,,,,0,,,71,0
68040,note_on,0,0,1,,,,,,,,,,,,,,,0,,,64,41
68160,note_on,0,0,1,,,,,,,,,,,,,,,0,,,59,0
68160,note_on,0,0,1,,,,,,,,,,,,,,,0,,,59,52
68160,note_on,120,0,2,,,,,,,,,,,,,,,0,,,40,0
68160,note_on,0,0,2,,,,,,,,,,,,,,,0,,,36,35
68160,note_on,120,0,1,,,,,,,,,,,,,,,0,,,64,0
68280,note_on,120,0,1,,,,,,,,,,,,,,,0,,,64,41
68280,note_on,120,0,2,,,,,,,,,,,,,,,0,,,36,0
68280,note_on,0,0,2,,,,,,,,,,,,,,,0,,,40,30
68400,note_on,120,0,1,,,,,,,,,,,,,,,0,,,64,0
68400,note_on,0,0,1,,,,,,,,,,,,,,,0,,,71,41
68400,note_on,120,0,2,,,,,,,,,,,,,,,0,,,40,0
68400,note_on,0,0,2,,,,,,,,,,,,,,,0,,,45,30
68520,note_on,120,0,2,,,,,,,,,,,,,,,0,,,45,0
68520,note_on,120,0,1,,,,,,,,,,,,,,,0,,,71,0
68520,note_on,0,0,2,,,,,,,,,,,,,,,0,,,40,30
68520,note_on,0,0,1,,,,,,,,,,,,,,,0,,,64,41
68640,note_on,120,0,2,,,,,,,,,,,,,,,0,,,40,0
68640,note_on,0,0,2,,,,,,,,,,,,,,,0,,,36,35
68640,note_on,120,0,1,,,,,,,,,,,,,,,0,,,64,0
68640,note_on,0,0,1,,,,,,,,,,,,,,,0,,,59,0
68640,note_on,0,0,1,,,,,,,,,,,,,,,0,,,57,52
68760,note_on,120,0,2,,,,,,,,,,,,,,,0,,,36,0
68760,note_on,0,0,2,,,,,,,,,,,,,,,0,,,40,30
68760,note_on,120,0,1,,,,,,,,,,,,,,,0,,,64,41
68880,note_on,120,0,2,,,,,,,,,,,,,,,0,,,40,0
68880,note_on,0,0,2,,,,,,,,,,,,,,,0,,,45,30
68880,note_on,120,0,1,,,,,,,,,,,,,,,0,,,64,0
68880,note_on,0,0,1,,,,,,,,,,,,,,,0,,,69,40
69000,note_on,0,0,2,,,,,,,,,,,,,,,0,,,40,30
69000,note_on,120,0,1,,,,,,,,,,,,,,,0,,,69,0
69000,note_on,0,0,1,,,,,,,,,,,,,,,0,,,64,40
69000,note_on,120,0,2,,,,,,,,,,,,,,,0,,,45,0
69120,note_on,120,0,2,,,,,,,,,,,,,,,0,,,40,0
69120,note_on,120,0,1,,,,,,,,,,,,,,,0,,,64,0
69120,note_on,0,0,1,,,,,,,,,,,,,,,0,,,57,0
69120,note_on,0,0,1,,,,,,,,,,,,,,,0,,,59,50
69120,set_tempo,1920,1,0,,,,,,,,,,,,410959,,,,,,,
69120,note_on,0,0,2,,,,,,,,,,,,,,,0,,,38,37
69130,control_change,10,0,2,,,,,,,,,,,,,,,0,64,0,,
69160,set_tempo,40,1,0,,,,,,,,,,,,418118,,,,,,,
69189,control_change,59,0,2,,,,,,,,,,,,,,,0,64,127,,
69240,note_on,0,0,2,,,,,,,,,,,,,,,0,,,43,30
69240,note_on,120,0,1,,,,,,,,,,,,,,,0,,,59,0
69240,note_on,0,0,1,,,,,,,,,,,,,,,0,,,62,41
69240,note_on,51,0,2,,,,,,,,,,,,,,,0,,,38,0
69280,set_tempo,120,1,0,,,,,,,,,,,,419580,,,,,,,
69360,note_on,120,0,2,,,,,,,,,,,,,,,0,,,43,0
69360,note_on,0,0,2,,,,,,,,,,,,,,,0,,,47,30
69360,note_on,0,0,1,,,,,,,,,,,,,,,0,,,69,41
69360,note_on,120,0,1,,,,,,,,,,,,,,,0,,,62,0
69400,set_tempo,120,1,0,,,,,,,,,,,,421053,,,,,,,
69480,note_on,120,0,1,,,,,,,,,,,,,,,0,,,69,0
69480,note_on,0,0,1,,,,,,,,,,,,,,,0,,,62,41
69480,note_on,120,0,2,,,,,,,,,,,,,,,0,,,47,0
69480,note_on,0,0,2,,,,,,,,,,,,,,,0,,,43,30
69520,set_tempo,120,1,0,,,,,,,,,,,,422535,,,,,,,
69600,note_on,120,0,2,,,,,,,,,,,,,,,0,,,43,0
69600,note_on,0,0,1,,,,,,,,,,,,,,,0,,,59,49
69600,note_on,120,0,1,,,,,,,,,,,,,,,0,,,62,0
69600,note_on,0,0,2,,,,,,,,,,,,,,,0,,,38,35
69640,set_tempo,120,1,0,,,,,,,,,,,,424028,,,,,,,
69720,note_on,0,0,2,,,,,,,,,,,,,,,0,,,43,30
69720,note_on,120,0,2,,,,,,,,,,,,,,,0,,,38,0
69720,note_on,120,0,1,,,,,,,,,,,,,,,0,,,59,0
69720,note_on,0,0,1,,,,,,,,,,,,,,,0,,,62,41
69760,set_tempo,120,1,0,,,,,,,,,,,,425532,,,,,,,
69840,note_on,120,0,1,,,,,,,,,,,,,,,0,,,62,0
69840,note_on,0,0,1,,,,,,,,,,,,,,,0,,,67,41
69840,note_on,0,0,2,,,,,,,,,,,,,,,0,,,47,30
69840,note_on,120,0,2,,,,,,,,,,,,,,,0,,,43,0
69880,set_tempo,120,1,0,,,,,,,,,,,,427046,,,,,,,
69960,note_on,120,0,1,,,,,,,,,,,,,,,0,,,67,0
69960,note_on,0,0,1,,,,,,,,,,,,,,,0,,,62,41
69960,note_on,120,0,2,,,,,,,,,,,,,,,0,,,47,0
69960,note_on,0,0,2,,,,,,,,,,,,,,,0,,,43,30
70000,set_tempo,120,1,0,,,,,,,,,,,,428571,,,,,,,
70080,note_on,0,0,1,,,,,,,,,,,,,,,0,,,60,48
70080,note_on,120,0,1,,,,,,,,,,,,,,,0,,,62,0
70080,note_on,120,0,2,,,,,,,,,,,,,,,0,,,43,0
70080,note_on,0,0,2,,,,,,,,,,,,,,,0,,,38,35
70103,control_change,23,0,2,,,,,,,,,,,,,,,0,64,0,,
70126,control_change,23,0,2,,,,,,,,,,,,,,,0,64,127,,
70200,note_on,74,0,2,,,,,,,,,,,,,,,0,,,38,0
70200,note_on,0,0,1,,,,,,,,,,,,,,,0,,,62,41
70200,note_on,120,0,1,,,,,,,,,,,,,,,0,,,60,0
70200,note_on,0,0,2,,,,,,,,,,,,,,,0,,,45,30
70320,note_on,120,0,2,,,,,,,,,,,,,,,0,,,45,0
70320,set_tempo,320,1,0,,,,,,,,,,,,428571,,,,,,,
70320,note_on,120,0,1,,,,,,,,,,,,,,,0,,,62,0
70320,note_on,0,0,1,,,,,,,,,,,,,,,0,,,67,41
70320,note_on,0,0,2,,,,,,,,,,,,,,,0,,,48,30
70360,set_tempo,40,1,0,,,,,,,,,,,,431655,,,,,,,
70400,set_tempo,40,1,0,,,,,,,,,,,,433213,,,,,,,
70440,note_on,0,0,1,,,,,,,,,,,,,,,0,,,62,41
70440,note_on,120,0,2,,,,,,,,,,,,,,,0,,,48,0
70440,note_on,0,0,2,,,,,,,,,,,,,,,0,,,45,30
70440,set_tempo,40,1,0,,,,,,,,,,,,436364,,,,,,,
70440,note_on,120,0,1,,,,,,,,,,,,,,,0,,,67,0
70480,set_tempo,40,1,0,,,,,,,,,,,,437956,,,,,,,
70520,set_tempo,40,1,0,,,,,,,,,,,,441176,,,,,,,
70560,set_tempo,40,1,0,,,,,,,,,,,,444444,,,,,,,
70560,note_on,0,0,1,,,,,,,,,,,,,,,0,,,60,48
70560,note_on,120,0,1,,,,,,,,,,,,,,,0,,,62,0
70560,note_on,0,0,2,,,,,,,,,,,,,,,0,,,38,35
70560,note_on,120,0,2,,,,,,,,,,,,,,,0,,,45,0
70680,note_on,120,0,1,,,,,,,,,,,,,,,0,,,60,0
70680,note_on,0,0,1,,,,,,,,,,,,,,,0,,,62,41
70680,note_on,0,0,2,,,,,,,,,,,,,,,0,,,45,30
70680,note_on,120,0,2,,,,,,,,,,,,,,,0,,,38,0
70800,note_on,120,0,1,,,,,,,,,,,,,,,0,,,62,0
70800,note_on,0,0,1,,,,,,,,,,,,,,,0,,,66,40
70800,note_on,0,0,2,,,,,,,,,,,,,,,0,,,48,30
70800,note_on,120,0,2,,,,,,,,,,,,,,,0,,,45,0
70920,note_on,120,0,1,,,,,,,,,,,,,,,0,,,66,0
70920,note_on,0,0,1,,,,,,,,,,,,,,,0,,,62,40
70920,note_on,0,0,2,,,,,,,,,,,,,,,0,,,45,30
70920,note_on,120,0,2,,,,,,,,,,,,,,,0,,,48,0
70920,set_tempo,360,1,0,,,,,,,,,,,,502092,,,,,,,
71040,note_on,120,0,2,,,,,,,,,,,,,,,0,,,45,0
71040,set_tempo,120,1,0,,,,,,,,,,,,459770,,,,,,,
71040,note_on,0,0,1,,,,,,,,,,,,,,,0,,,91,93
71040,note_on,0,0,1,,,,,,,,,,,,,,,0,,,85,79
71040,note_on,0,0,1,,,,,,,,,,,,,,,0,,,82,79
71040,note_on,0,0,1,,,,,,,,,,,,,,,0,,,79,79
71040,note_on,120,0,1,,,,,,,,,,,,,,,0,,,62,0
71050,control_change,10,0,2,,,,,,,,,,,,,,,0,64,0,,
71240,set_tempo,200,1,0,,,,,,,,,,,,422535,,,,,,,
71280,note_on,230,0,2,,,,,,,,,,,,,,,0,,,52,73
71303,control_change,23,0,2,,,,,,,,,,,,,,,0,64,127,,
71320,set_tempo,80,1,0,,,,,,,,,,,,421053,,,,,,,
71400,set_tempo,80,1,0,,,,,,,,,,,,419580,,,,,,,
71400,note_on,97,0,2,,,,,,,,,,,,,,,0,,,52,0
71400,note_on,0,0,2,,,,,,,,,,,,,,,0,,,55,75
71480,set_tempo,80,1,0,,,,,,,,,,,,418118,,,,,,,
71520,note_on,120,0,2,,,,,,,,,,,,,,,0,,,55,0
71520,note_on,0,0,2,,,,,,,,,,,,,,,0,,,58,77
71560,set_tempo,80,1,0,,,,,,,,,,,,416667,,,,,,,
71640,note_on,0,0,2,,,,,,,,,,,,,,,0,,,61,79
71640,note_on,120,0,2,,,,,,,,,,,,,,,0,,,58,0
71640,set_tempo,80,1,0,,,,,,,,,,,,415225,,,,,,,
71720,set_tempo,80,1,0,,,,,,,,,,,,413793,,,,,,,
71760,note_on,0,0,2,,,,,,,,,,,,,,,0,,,67,80
71760,note_on,120,0,2,,,,,,,,,,,,,,,0,,,61,0
71800,set_tempo,80,1,0,,,,,,,,,,,,412371,,,,,,,
71880,note_on,0,0,2,,,,,,,,,,,,,,,0,,,70,82
71880,set_tempo,80,1,0,,,,,,,,,,,,410959,,,,,,,
71880,note_on,120,0,2,,,,,,,,,,,,,,,0,,,67,0
71920,set_tempo,40,1,0,,,,,,,,,,,,408163,,,,,,,
72000,note_on,0,0,2,,,,,,,,,,,,,,,0,,,73,88
72000,note_on,0,0,1,,,,,,,,,,,,,,,0,,,85,0
72000,note_on,0,0,1,,,,,,,,,,,,,,,0,,,82,0
72000,note_on,0,0,1,,,,,,,,,,,,,,,0,,,79,0
72000,note_on,960,0,1,,,,,,,,,,,,,,,0,,,91,0
72000,note_on,120,0,2,,,,,,,,,,,,,,,0,,,70,0
72120,note_on,120,0,2,,,,,,,,,,,,,,,0,,,73,0
72120,note_on,0,0,2,,,,,,,,,,,,,,,0,,,76,82
72160,set_tempo,240,1,0,,,,,,,,,,,,409556,,,,,,,
72240,note_on,0,0,2,,,,,,,,,,,,,,,0,,,73,81
72240,note_on,120,0,2,,,,,,,,,,,,,,,0,,,76,0
72360,note_on,0,0,2,,,,,,,,,,,,,,,0,,,70,80
72360,set_tempo,200,1,0,,,,,,,,,,,,410959,,,,,,,
72360,note_on,120,0,2,,,,,,,,,,,,,,,0,,,73,0
72480,note_on,120,0,2,,,,,,,,,,,,,,,0,,,70,0
72480,note_on,0,0,2,,,,,,,,,,,,,,,0,,,67,76
72560,set_tempo,200,1,0,,,,,,,,,,,,412371,,,,,,,
72600,note_on,120,0,2,,,,,,,,,,,,,,,0,,,67,0
72600,note_on,0,0,2,,,,,,,,,,,,,,,0,,,64,78
72720,note_on,120,0,2,,,,,,,,,,,,,,,0,,,64,0
72720,note_on,0,0,2,,,,,,,,,,,,,,,0,,,61,78
72760,set_tempo,200,1,0,,,,,,,,,,,,413793,,,,,,,
72840,note_on,120,0,2,,,,,,,,,,,,,,,0,,,61,0
72840,note_on,0,0,2,,,,,,,,,,,,,,,0,,,58,76
72920,set_tempo,160,1,0,,,,,,,,,,,,410959,,,,,,,
72960,note_on,960,0,1,,,,,,,,,,,,,,,0,,,88,89
72960,set_tempo,40,1,0,,,,,,,,,,,,415225,,,,,,,
72960,note_on,120,0,2,,,,,,,,,,,,,,,0,,,58,0
72960,note_on,0,0,2,,,,,,,,,,,,,,,0,,,61,76
73080,note_on,120,0,2,,,,,,,,,,,,,,,0,,,61,0
73080,note_on,0,0,2,,,,,,,,,,,,,,,0,,,64,68
73080,note_on,120,0,1,,,,,,,,,,,,,,,0,,,88,0
73080,note_on,0,0,1,,,,,,,,,,,,,,,0,,,91,82
73200,note_on,120,0,1,,,,,,,,,,,,,,,0,,,91,0
73200,note_on,120,0,2,,,,,,,,,,,,,,,0,,,64,0
73200,note_on,0,0,2,,,,,,,,,,,,,,,0,,,61,69
73200,note_on,0,0,1,,,,,,,,,,,,,,,0,,,88,82
73320,note_on,120,0,1,,,,,,,,,,,,,,,0,,,88,0
73320,note_on,0,0,1,,,,,,,,,,,,,,,0,,,85,82
73320,note_on,0,0,2,,,,,,,,,,,,,,,0,,,58,69
73320,note_on,120,0,2,,,,,,,,,,,,,,,0,,,61,0
73440,note_on,0,0,2,,,,,,,,,,,,,,,0,,,55,73
73440,note_on,120,0,1,,,,,,,,,,,,,,,0,,,85,0
73440,note_on,120,0,2,,,,,,,,,,,,,,,0,,,58,0
73440,note_on,0,0,1,,,,,,,,,,,,,,,0,,,82,86
73560,note_on,120,0,2,,,,,,,,,,,,,,,0,,,55,0
73560,note_on,120,0,1,,,,,,,,,,,,,,,0,,,82,0
73560,note_on,0,0,2,,,,,,,,,,,,,,,0,,,52,66
73560,note_on,0,0,1,,,,,,,,,,,,,,,0,,,79,75
73680,note_on,120,0,2,,,,,,,,,,,,,,,0,,,52,0
73680,note_on,120,0,1,,,,,,,,,,,,,,,0,,,79,0
73680,note_on,0,0,2,,,,,,,,,,,,,,,0,,,49,66
73680,note_on,0,0,1,,,,,,,,,,,,,,,0,,,76,75
73800,note_on,0,0,2,,,,,,,,,,,,,,,0,,,46,66
73800,note_on,0,0,1,,,,,,,,,,,,,,,0,,,73,75
73800,note_on,120,0,2,,,,,,,,,,,,,,,0,,,49,0
73800,set_tempo,840,1,0,,,,,,,,,,,,442804,,,,,,,
73800,note_on,120,0,1,,,,,,,,,,,,,,,0,,,76,0
73920,note_on,0,0,2,,,,,,,,,,,,,,,0,,,49,66
73920,set_tempo,120,1,0,,,,,,,,,,,,415225,,,,,,,
73920,note_on,120,0,1,,,,,,,,,,,,,,,0,,,73,0
73920,note_on,0,0,1,,,,,,,,,,,,,,,0,,,76,81
73920,note_on,120,0,2,,,,,,,,,,,,,,,0,,,46,0
74040,note_on,0,0,1,,,,,,,,,,,,,,,0,,,79,73
74040,note_on,120,0,2,,,,,,,,,,,,,,,0,,,49,0
74040,note_on,0,0,2,,,,,,,,,,,,,,,0,,,52,60
74040,note_on,120,0,1,,,,,,,,,,,,,,,0,,,76,0
74160,note_on,120,0,1,,,,,,,,,,,,,,,0,,,79,0
74160,note_on,0,0,1,,,,,,,,,,,,,,,0,,,76,73
74160,note_on,120,0,2,,,,,,,,,,,,,,,0,,,52,0
74160,note_on,0,0,2,,,,,,,,,,,,,,,0,,,49,60
74280,note_on,120,0,2,,,,,,,,,,,,,,,0,,,49,0
74280,note_on,120,0,1,,,,,,,,,,,,,,,0,,,76,0
74280,note_on,0,0,1,,,,,,,,,,,,,,,0,,,73,73
74280,note_on,0,0,2,,,,,,,,,,,,,,,0,,,46,60
74400,note_on,120,0,1,,,,,,,,,,,,,,,0,,,73,0
74400,note_on,0,0,2,,,,,,,,,,,,,,,0,,,43,67
74400,note_on,0,0,1,,,,,,,,,,,,,,,0,,,70,80
74400,note_on,120,0,2,,,,,,,,,,,,,,,0,,,46,0
74520,note_on,0,0,2,,,,,,,,,,,,,,,0,,,40,59
74520,note_on,120,0,1,,,,,,,,,,,,,,,0,,,70,0
74520,note_on,0,0,1,,,,,,,,,,,,,,,0,,,67,74
74520,note_on,120,0,2,,,,,,,,,,,,,,,0,,,43,0
74640,note_on,120,0,2,,,,,,,,,,,,,,,0,,,40,0
74640,note_on,120,0,1,,,,,,,,,,,,,,,0,,,67,0
74640,note_on,0,0,1,,,,,,,,,,,,,,,0,,,64,74
74640,note_on,0,0,2,,,,,,,,,,,,,,,0,,,37,60
74760,note_on,120,0,2,,,,,,,,,,,,,,,0,,,37,0
74760,note_on,0,0,2,,,,,,,,,,,,,,,0,,,34,60
74760,set_tempo,840,1,0,,,,,,,,,,,,439560,,,,,,,
74760,note_on,120,0,1,,,,,,,,,,,,,,,0,,,64,0
74760,note_on,0,0,1,,,,,,,,,,,,,,,0,,,61,74
74880,set_tempo,120,1,0,,,,,,,,,,,,416667,,,,,,,
74880,note_on,0,0,1,,,,,,,,,,,,,,,0,,,64,77
74880,note_on,0,0,2,,,,,,,,,,,,,,,0,,,37,68
74880,note_on,120,0,2,,,,,,,,,,,,,,,0,,,34,0
74880,note_on,120,0,1,,,,,,,,,,,,,,,0,,,61,0
74890,control_change,10,0,2,,,,,,,,,,,,,,,0,64,0,,
74937,control_change,47,0,2,,,,,,,,,,,,,,,0,64,127,,
75000,note_on,0,0,1,,,,,,,,,,,,,,,0,,,67,58
75000,note_on,0,0,2,,,,,,,,,,,,,,,0,,,40,47
75000,note_on,63,0,2,,,,,,,,,,,,,,,0,,,37,0
75000,note_on,120,0,1,,,,,,,,,,,,,,,0,,,64,0
75120,note_on,120,0,2,,,,,,,,,,,,,,,0,,,40,0
75120,note_on,0,0,2,,,,,,,,,,,,,,,0,,,37,47
75120,note_on,120,0,1,,,,,,,,,,,,,,,0,,,67,0
75120,note_on,0,0,1,,,,,,,,,,,,,,,0,,,64,58
75240,note_on,120,0,2,,,,,,,,,,,,,,,0,,,37,0
75240,note_on,0,0,2,,,,,,,,,,,,,,,0,,,34,47
75240,note_on,0,0,1,,,,,,,,,,,,,,,0,,,61,58
75240,note_on,120,0,1,,,,,,,,,,,,,,,0,,,64,0
75360,note_on,120,0,2,,,,,,,,,,,,,,,0,,,34,0
75360,note_on,0,0,1,,,,,,,,,,,,,,,0,,,64,64
75360,note_on,120,0,1,,,,,,,,,,,,,,,0,,,61,0
75360,note_on,0,0,2,,,,,,,,,,,,,,,0,,,37,58
75480,note_on,0,0,2,,,,,,,,,,,,,,,0,,,40,45
75480,note_on,120,0,1,,,,,,,,,,,,,,,0,,,64,0
75480,note_on,0,0,1,,,,,,,,,,,,,,,0,,,67,53
75480,note_on,120,0,2,,,,,,,,,,,,,,,0,,,37,0
75600,note_on,0,0,2,,,,,,,,,,,,,,,0,,,37,45
75600,note_on,120,0,2,,,,,,,,,,,,,,,0,,,40,0
75600,note_on,0,0,1,,,,,,,,,,,,,,,0,,,64,52
75600,note_on,120,0,1,,,,,,,,,,,,,,,0,,,67,0
75640,set_tempo,760,1,0,,,,,,,,,,,,413793,,,,,,,
75720,note_on,0,0,1,,,,,,,,,,,,,,,0,,,61,52
75720,note_on,0,0,2,,,,,,,,,,,,,,,0,,,34,45
75720,note_on,120,0,2,,,,,,,,,,,,,,,0,,,37,0
75720,note_on,120,0,1,,,,,,,,,,,,,,,0,,,64,0
75840,set_tempo,200,1,0,,,,,,,,,,,,412371,,,,,,,
75840,note_on,0,0,1,,,,,,,,,,,,,,,0,,,64,57
75840,note_on,0,0,2,,,,,,,,,,,,,,,0,,,37,53
75840,note_on,120,0,2,,,,,,,,,,,,,,,0,,,34,0
75840,note_on,120,0,1,,,,,,,,,,,,,,,0,,,61,0
75852,control_change,12,0,2,,,,,,,,,,,,,,,0,64,0,,
75960,note_on,0,0,2,,,,,,,,,,,,,,,0,,,40,39
75960,note_on,108,0,2,,,,,,,,,,,,,,,0,,,37,0
75960,note_on,120,0,1,,,,,,,,,,,,,,,0,,,64,0
75960,note_on,0,0,1,,,,,,,,,,,,,,,0,,,67,48
76040,set_tempo,200,1,0,,,,,,,,,,,,410959,,,,,,,
76080,note_on,0,0,2,,,,,,,,,,,,,,,0,,,37,39
76080,note_on,120,0,2,,,,,,,,,,,,,,,0,,,40,0
76080,note_on,120,0,1,,,,,,,,,,,,,,,0,,,67,0
76080,note_on,0,0,1,,,,,,,,,,,,,,,0,,,64,48
76200,note_on,120,0,1,,,,,,,,,,,,,,,0,,,64,0
76200,note_on,0,0,1,,,,,,,,,,,,,,,0,,,61,48
76200,note_on,0,0,2,,,,,,,,,,,,,,,0,,,34,39
76200,note_on,120,0,2,,,,,,,,,,,,,,,0,,,37,0
76240,set_tempo,200,1,0,,,,,,,,,,,,409556,,,,,,,
76320,note_on,120,0,1,,,,,,,,,,,,,,,0,,,61,0
76320,note_on,0,0,1,,,,,,,,,,,,,,,0,,,64,54
76320,note_on,120,0,2,,,,,,,,,,,,,,,0,,,34,0
76320,note_on,0,0,2,,,,,,,,,,,,,,,0,,,37,51
76440,note_on,120,0,1,,,,,,,,,,,,,,,0,,,64,0
76440,note_on,0,0,2,,,,,,,,,,,,,,,0,,,40,34
76440,set_tempo,200,1,0,,,,,,,,,,,,408163,,,,,,,
76440,note_on,0,0,1,,,,,,,,,,,,,,,0,,,67,46
76440,note_on,120,0,2,,,,,,,,,,,,,,,0,,,37,0
76560,note_on,120,0,1,,,,,,,,,,,,,,,0,,,67,0
76560,note_on,0,0,1,,,,,,,,,,,,,,,0,,,64,46
76560,note_on,0,0,2,,,,,,,,,,,,,,,0,,,37,34
76560,note_on,120,0,2,,,,,,,,,,,,,,,0,,,40,0
76640,set_tempo,200,1,0,,,,,,,,,,,,406780,,,,,,,
76680,note_on,120,0,2,,,,,,,,,,,,,,,0,,,37,0
76680,note_on,0,0,1,,,,,,,,,,,,,,,0,,,61,46
76680,note_on,0,0,2,,,,,,,,,,,,,,,0,,,34,34
76680,note_on,120,0,1,,,,,,,,,,,,,,,0,,,64,0
76800,note_on,0,0,1,,,,,,,,,,,,,,,0,,,64,50
76800,note_on,120,0,1,,,,,,,,,,,,,,,0,,,61,0
76800,set_tempo,160,1,0,,,,,,,,,,,,405405,,,,,,,
76800,note_on,0,0,2,,,,,,,,,,,,,,,0,,,35,37
76800,note_on,120,0,2,,,,,,,,,,,,,,,0,,,34,0
76906,control_change,106,0,2,,,,,,,,,,,,,,,0,64,127,,
76920,note_on,14,0,2,,,,,,,,,,,,,,,0,,,35,0
76920,note_on,0,0,2,,,,,,,,,,,,,,,0,,,40,30
76920,note_on,120,0,1,,,,,,,,,,,,,,,0,,,64,0
76920,note_on,0,0,1,,,,,,,,,,,,,,,0,,,67,41
77040,note_on,120,0,1,,,,,,,,,,,,,,,0,,,67,0
77040,note_on,0,0,2,,,,,,,,,,,,,,,0,,,43,30
77040,note_on,120,0,2,,,,,,,,,,,,,,,0,,,40,0
77040,note_on,0,0,1,,,,,,,,,,,,,,,0,,,64,41
77160,note_on,120,0,1,,,,,,,,,,,,,,,0,,,64,0
77160,note_on,0,0,1,,,,,,,,,,,,,,,0,,,55,41
77160,note_on,0,0,2,,,,,,,,,,,,,,,0,,,40,30
77160,note_on,120,0,2,,,,,,,,,,,,,,,0,,,43,0
77280,note_on,120,0,2,,,,,,,,,,,,,,,0,,,40,0
77280,note_on,0,0,2,,,,,,,,,,,,,,,0,,,35,35
77280,note_on,0,0,1,,,,,,,,,,,,,,,0,,,64,49
77280,note_on,120,0,1,,,,,,,,,,,,,,,0,,,55,0
77400,note_on,0,0,1,,,,,,,,,,,,,,,0,,,67,41
77400,note_on,120,0,1,,,,,,,,,,,,,,,0,,,64,0
77400,note_on,0,0,2,,,,,,,,,,,,,,,0,,,40,30
77400,note_on,120,0,2,,,,,,,,,,,,,,,0,,,35,0
77520,note_on,0,0,1,,,,,,,,,,,,,,,0,,,64,41
77520,note_on,0,0,2,,,,,,,,,,,,,,,0,,,43,30
77520,note_on,120,0,2,,,,,,,,,,,,,,,0,,,40,0
77520,note_on,120,0,1,,,,,,,,,,,,,,,0,,,67,0
77640,note_on,120,0,1,,,,,,,,,,,,,,,0,,,64,0
77640,note_on,120,0,2,,,,,,,,,,,,,,,0,,,43,0
77640,note_on,0,0,1,,,,,,,,,,,,,,,0,,,55,41
77640,note_on,0,0,2,,,,,,,,,,,,,,,0,,,40,30
77760,note_on,120,0,2,,,,,,,,,,,,,,,0,,,40,0
77760,note_on,0,0,2,,,,,,,,,,,,,,,0,,,35,35
77760,note_on,0,0,1,,,,,,,,,,,,,,,0,,,64,48
77760,note_on,120,0,1,,,,,,,,,,,,,,,0,,,55,0
77880,note_on,120,0,2,,,,,,,,,,,,,,,0,,,35,0
77880,note_on,120,0,1,,,,,,,,,,,,,,,0,,,64,0
77880,note_on,0,0,1,,,,,,,,,,,,,,,0,,,67,41
77880,note_on,0,0,2,,,,,,,,,,,,,,,0,,,40,30
78000,note_on,120,0,1,,,,,,,,,,,,,,,0,,,67,0
78000,note_on,0,0,1,,,,,,,,,,,,,,,0,,,64,41
78000,note_on,120,0,2,,,,,,,,,,,,,,,0,,,40,0
78000,note_on,0,0,2,,,,,,,,,,,,,,,0,,,43,30
78120,note_on,120,0,1,,,,,,,,,,,,,,,0,,,64,0
78120,note_on,0,0,1,,,,,,,,,,,,,,,0,,,55,41
78120,note_on,120,0,2,,,,,,,,,,,,,,,0,,,43,0
78120,note_on,0,0,2,,,,,,,,,,,,,,,0,,,40,30
78240,note_on,120,0,2,,,,,,,,,,,,,,,0,,,40,0
78240,note_on,0,0,1,,,,,,,,,,,,,,,0,,,64,48
78240,set_tempo,1440,1,0,,,,,,,,,,,,404040,,,,,,,
78240,note_on,120,0,1,,,,,,,,,,,,,,,0,,,55,0
78240,note_on,0,0,2,,,,,,,,,,,,,,,0,,,35,35
78360,note_on,120,0,2,,,,,,,,,,,,,,,0,,,35,0
78360,note_on,120,0,1,,,,,,,,,,,,,,,0,,,64,0
78360,set_tempo,120,1,0,,,,,,,,,,,,405405,,,,,,,
78360,note_on,0,0,1,,,,,,,,,,,,,,,0,,,67,41
78360,note_on,0,0,2,,,,,,,,,,,,,,,0,,,40,30
78440,set_tempo,80,1,0,,,,,,,,,,,,406780,,,,,,,
78480,note_on,120,0,2,,,,,,,,,,,,,,,0,,,40,0
78480,note_on,0,0,2,,,,,,,,,,,,,,,0,,,43,30
78480,note_on,120,0,1,,,,,,,,,,,,,,,0,,,67,0
78480,note_on,0,0,1,,,,,,,,,,,,,,,0,,,64,40
78520,set_tempo,80,1,0,,,,,,,,,,,,408163,,,,,,,
78600,note_on,120,0,2,,,,,,,,,,,,,,,0,,,43,0
78600,set_tempo,80,1,0,,,,,,,,,,,,409556,,,,,,,
78600,note_on,120,0,1,,,,,,,,,,,,,,,0,,,64,0
78600,note_on,0,0,1,,,,,,,,,,,,,,,0,,,55,40
78600,note_on,0,0,2,,,,,,,,,,,,,,,0,,,40,30
78680,set_tempo,80,1,0,,,,,,,,,,,,410959,,,,,,,
78720,note_on,0,0,2,,,,,,,,,,,,,,,0,,,36,37
78720,note_on,120,0,2,,,,,,,,,,,,,,,0,,,40,0
78720,set_tempo,40,1,0,,,,,,,,,,,,410959,,,,,,,
78720,note_on,120,0,1,,,,,,,,,,,,,,,0,,,55,0
78720,note_on,0,0,1,,,,,,,,,,,,,,,0,,,59,55
78730,control_change,10,0,2,,,,,,,,,,,,,,,0,64,0,,
78791,control_change,61,0,2,,,,,,,,,,,,,,,0,64,127,,
78840,note_on,49,0,2,,,,,,,,,,,,,,,0,,,36,0
78840,note_on,0,0,2,,,,,,,,,,,,,,,0,,,40,30
78840,note_on,120,0,1,,,,,,,,,,,,,,,0,,,64,41
78960,note_on,0,0,2,,,,,,,,,,,,,,,0,,,45,30
78960,note_on,120,0,2,,,,,,,,,,,,,,,0,,,40,0
78960,note_on,120,0,1,,,,,,,,,,,,,,,0,,,64,0
78960,note_on,0,0,1,,,,,,,,,,,,,,,0,,,71,41
79080,note_on,120,0,2,,,,,,,,,,,,,,,0,,,45,0
79080,note_on,0,0,2,,,,,,,,,,,,,,,0,,,40,30
79080,note_on,120,0,1,,,,,,,,,,,,,,,0,,,71,0
79080,note_on,0,0,1,,,,,,,,,,,,,,,0,,,64,41
79200,note_on,120,0,1,,,,,,,,,,,,,,,0,,,64,0
79200,note_on,0,0,1,,,,,,,,,,,,,,,0,,,59,0
79200,note_on,0,0,1,,,,,,,,,,,,,,,0,,,59,53
79200,note_on,120,0,2,,,,,,,,,,,,,,,0,,,40,0
79200,note_on,0,0,2,,,,,,,,,,,,,,,0,,,36,35
79320,note_on,120,0,2,,,,,,,,,,,,,,,0,,,36,0
79320,note_on,120,0,1,,,,,,,,,,,,,,,0,,,64,41
79320,note_on,0,0,2,,,,,,,,,,,,,,,0,,,40,30
79440,note_on,0,0,2,,,,,,,,,,,,,,,0,,,45,30
79440,note_on,120,0,1,,,,,,,,,,,,,,,0,,,64,0
79440,note_on,0,0,1,,,,,,,,,,,,,,,0,,,71,41
79440,note_on,120,0,2,,,,,,,,,,,,,,,0,,,40,0
79560,note_on,0,0,2,,,,,,,,,,,,,,,0,,,40,30
79560,note_on,120,0,1,,,,,,,,,,,,,,,0,,,71,0
79560,note_on,0,0,1,,,,,,,,,,,,,,,0,,,64,41
79560,note_on,120,0,2,,,,,,,,,,,,,,,0,,,45,0
79680,note_on,120,0,2,,,,,,,,,,,,,,,0,,,40,0
79680,note_on,0,0,2,,,,,,,,,,,,,,,0,,,36,35
79680,note_on,0,0,1,,,,,,,,,,,,,,,0,,,59,52
79680,note_on,120,0,1,,,,,,,,,,,,,,,0,,,64,0
79680,note_on,0,0,1,,,,,,,,,,,,,,,0,,,59,0
79800,note_on,120,0,1,,,,,,,,,,,,,,,0,,,64,41
79800,note_on,0,0,2,,,,,,,,,,,,,,,0,,,40,30
79800,note_on,120,0,2,,,,,,,,,,,,,,,0,,,36,0
79920,note_on,120,0,1,,,,,,,,,,,,,,,0,,,64,0
79920,note_on,0,0,1,,,,,,,,,,,,,,,0,,,71,41
79920,note_on,120,0,2,,,,,,,,,,,,,,,0,,,40,0
79920,note_on,0,0,2,,,,,,,,,,,,,,,0,,,45,30
80040,note_on,120,0,1,,,,,,,,,,,,,,,0,,,71,0
80040,note_on,0,0,2,,,,,,,,,,,,,,,0,,,40,30
80040,note_on,120,0,2,,,,,,,,,,,,,,,0,,,45,0
80040,note_on,0,0,1,,,,,,,,,,,,,,,0,,,64,41
80160,note_on,0,0,2,,,,,,,,,,,,,,,0,,,36,35
80160,note_on,120,0,2,,,,,,,,,,,,,,,0,,,40,0
80160,set_tempo,1440,1,0,,,,,,,,,,,,412371,,,,,,,
80160,note_on,0,0,1,,,,,,,,,,,,,,,0,,,57,52
80160,note_on,0,0,1,,,,,,,,,,,,,,,0,,,59,0
80160,note_on,120,0,1,,,,,,,,,,,,,,,0,,,64,0
80240,set_tempo,80,1,0,,,,,,,,,,,,413793,,,,,,,
80280,note_on,120,0,2,,,,,,,,,,,,,,,0,,,36,0
80280,note_on,0,0,2,,,,,,,,,,,,,,,0,,,40,30
80280,note_on,120,0,1,,,,,,,,,,,,,,,0,,,64,41
80320,set_tempo,80,1,0,,,,,,,,,,,,415225,,,,,,,
80360,set_tempo,40,1,0,,,,,,,,,,,,416667,,,,,,,
80400,note_on,120,0,1,,,,,,,,,,,,,,,0,,,64,0
80400,note_on,0,0,1,,,,,,,,,,,,,,,0,,,69,40
80400,note_on,120,0,2,,,,,,,,,,,,,,,0,,,40,0
80400,note_on,0,0,2,,,,,,,,,,,,,,,0,,,45,30
80440,set_tempo,80,1,0,,,,,,,,,,,,418118,,,,,,,
80480,set_tempo,40,1,0,,,,,,,,,,,,419580,,,,,,,
80520,note_on,0,0,2,,,,,,,,,,,,,,,0,,,40,30
80520,note_on,120,0,2,,,,,,,,,,,,,,,0,,,45,0
80520,note_on,120,0,1,,,,,,,,,,,,,,,0,,,69,0
80520,note_on,0,0,1,,,,,,,,,,,,,,,0,,,64,40
80560,set_tempo,80,1,0,,,,,,,,,,,,421053,,,,,,,
80600,set_tempo,40,1,0,,,,,,,,,,,,422535,,,,,,,
80640,note_on,120,0,2,,,,,,,,,,,,,,,0,,,40,0
80640,note_on,0,0,1,,,,,,,,,,,,,,,0,,,59,34
80640,note_on,0,0,1,,,,,,,,,,,,,,,0,,,57,0
80640,note_on,120,0,1,,,,,,,,,,,,,,,0,,,64,0
80640,note_on,0,0,2,,,,,,,,,,,,,,,0,,,38,27
80640,set_tempo,40,1,0,,,,,,,,,,,,410959,,,,,,,
80651,control_change,11,0,2,,,,,,,,,,,,,,,0,64,0,,
80693,control_change,42,0,2,,,,,,,,,,,,,,,0,64,127,,
80760,note_on,0,0,2,,,,,,,,,,,,,,,0,,,43,28
80760,note_on,67,0,2,,,,,,,,,,,,,,,0,,,38,0
80760,note_on,0,0,1,,,,,,,,,,,,,,,0,,,62,34
80760,note_on,120,0,1,,,,,,,,,,,,,,,0,,,59,0
80880,note_on,0,0,2,,,,,,,,,,,,,,,0,,,47,28
80880,note_on,120,0,2,,,,,,,,,,,,,,,0,,,43,0
80880,note_on,120,0,1,,,,,,,,,,,,,,,0,,,62,0
80880,note_on,0,0,1,,,,,,,,,,,,,,,0,,,69,40
81000,note_on,120,0,1,,,,,,,,,,,,,,,0,,,62,34
81000,note_on,0,0,2,,,,,,,,,,,,,,,0,,,43,28
81000,note_on,120,0,2,,,,,,,,,,,,,,,0,,,47,0
81120,note_on,0,0,1,,,,,,,,,,,,,,,0,,,59,32
81120,note_on,120,0,1,,,,,,,,,,,,,,,0,,,62,0
81120,note_on,0,0,2,,,,,,,,,,,,,,,0,,,38,28
81120,note_on,120,0,2,,,,,,,,,,,,,,,0,,,43,0
81240,note_on,120,0,2,,,,,,,,,,,,,,,0,,,38,0
81240,note_on,0,0,2,,,,,,,,,,,,,,,0,,,43,28
81240,note_on,120,0,1,,,,,,,,,,,,,,,0,,,59,0
81240,note_on,0,0,1,,,,,,,,,,,,,,,0,,,62,34
81360,note_on,0,0,2,,,,,,,,,,,,,,,0,,,47,28
81360,note_on,120,0,2,,,,,,,,,,,,,,,0,,,43,0
81360,note_on,0,0,1,,,,,,,,,,,,,,,0,,,69,40
81360,note_on,0,0,1,,,,,,,,,,,,,,,0,,,69,0
81360,note_on,120,0,1,,,,,,,,,,,,,,,0,,,62,0
81480,note_on,120,0,1,,,,,,,,,,,,,,,0,,,62,33
81480,note_on,0,0,2,,,,,,,,,,,,,,,0,,,43,28
81480,note_on,120,0,2,,,,,,,,,,,,,,,0,,,47,0
81560,set_tempo,920,1,0,,,,,,,,,,,,410959,,,,,,,
81600,note_on,120,0,1,,,,,,,,,,,,,,,0,,,62,0
81600,note_on,0,0,1,,,,,,,,,,,,,,,0,,,59,32
81600,note_on,120,0,2,,,,,,,,,,,,,,,0,,,43,0
81600,note_on,0,0,2,,,,,,,,,,,,,,,0,,,38,28
81720,note_on,120,0,1,,,,,,,,,,,,,,,0,,,59,0
81720,note_on,0,0,1,,,,,,,,,,,,,,,0,,,62,33
81720,note_on,120,0,2,,,,,,,,,,,,,,,0,,,38,0
81720,note_on,0,0,2,,,,,,,,,,,,,,,0,,,43,28
81760,set_tempo,200,1,0,,,,,,,,,,,,412371,,,,,,,
81840,note_on,120,0,2,,,,,,,,,,,,,,,0,,,43,0
81840,note_on,0,0,1,,,,,,,,,,,,,,,0,,,69,39
81840,note_on,0,0,1,,,,,,,,,,,,,,,0,,,69,0
81840,note_on,120,0,1,,,,,,,,,,,,,,,0,,,62,0
81840,note_on,0,0,2,,,,,,,,,,,,,,,0,,,47,28
81960,note_on,120,0,1,,,,,,,,,,,,,,,0,,,62,33
81960,set_tempo,200,1,0,,,,,,,,,,,,413793,,,,,,,
81960,note_on,120,0,2,,,,,,,,,,,,,,,0,,,47,0
81960,note_on,0,0,2,,,,,,,,,,,,,,,0,,,43,28
82080,note_on,0,0,2,,,,,,,,,,,,,,,0,,,38,29
82080,note_on,120,0,1,,,,,,,,,,,,,,,0,,,62,0
82080,note_on,0,0,1,,,,,,,,,,,,,,,0,,,59,32
82080,note_on,120,0,2,,,,,,,,,,,,,,,0,,,43,0
82160,set_tempo,200,1,0,,,,,,,,,,,,415225,,,,,,,
82200,note_on,120,0,2,,,,,,,,,,,,,,,0,,,38,0
82200,note_on,0,0,2,,,,,,,,,,,,,,,0,,,43,28
82200,note_on,120,0,1,,,,,,,,,,,,,,,0,,,59,0
82200,note_on,0,0,1,,,,,,,,,,,,,,,0,,,62,33
82320,note_on,0,0,1,,,,,,,,,,,,,,,0,,,69,0
82320,note_on,120,0,2,,,,,,,,,,,,,,,0,,,43,0
82320,note_on,0,0,2,,,,,,,,,,,,,,,0,,,47,28
82320,note_on,120,0,1,,,,,,,,,,,,,,,0,,,62,0
82320,note_on,0,0,1,,,,,,,,,,,,,,,0,,,67,39
82360,set_tempo,200,1,0,,,,,,,,,,,,416667,,,,,,,
82440,note_on,120,0,2,,,,,,,,,,,,,,,0,,,47,0
82440,note_on,0,0,2,,,,,,,,,,,,,,,0,,,43,28
82440,note_on,120,0,1,,,,,,,,,,,,,,,0,,,62,33
82520,set_tempo,160,1,0,,,,,,,,,,,,418118,,,,,,,
82560,note_on,120,0,2,,,,,,,,,,,,,,,0,,,43,0
82560,control_change,0,0,2,,,,,,,,,,,,,,,0,64,0,,
82560,note_on,0,0,2,,,,,,,,,,,,,,,0,,,38,29
82560,note_on,120,0,1,,,,,,,,,,,,,,,0,,,62,0
82560,note_on,0,0,1,,,,,,,,,,,,,,,0,,,60,33
82560,set_tempo,40,1,0,,,,,,,,,,,,410959,,,,,,,
82590,control_change,30,0,2,,,,,,,,,,,,,,,0,64,127,,
82680,note_on,120,0,1,,,,,,,,,,,,,,,0,,,60,0
82680,note_on,0,0,1,,,,,,,,,,,,,,,0,,,62,33
82680,note_on,0,0,2,,,,,,,,,,,,,,,0,,,45,28
82680,note_on,90,0,2,,,,,,,,,,,,,,,0,,,38,0
82800,note_on,0,0,2,,,,,,,,,,,,,,,0,,,48,28
82800,note_on,0,0,1,,,,,,,,,,,,,,,0,,,67,39
82800,note_on,0,0,1,,,,,,,,,,,,,,,0,,,67,0
82800,note_on,120,0,1,,,,,,,,,,,,,,,0,,,62,0
82800,note_on,120,0,2,,,,,,,,,,,,,,,0,,,45,0
82920,note_on,120,0,1,,,,,,,,,,,,,,,0,,,62,33
82920,note_on,120,0,2,,,,,,,,,,,,,,,0,,,48,0
82920,note_on,0,0,2,,,,,,,,,,,,,,,0,,,45,28
83040,note_on,0,0,1,,,,,,,,,,,,,,,0,,,60,31
83040,note_on,120,0,1,,,,,,,,,,,,,,,0,,,62,0
83040,note_on,0,0,2,,,,,,,,,,,,,,,0,,,38,29
83040,note_on,120,0,2,,,,,,,,,,,,,,,0,,,45,0
83160,note_on,120,0,2,,,,,,,,,,,,,,,0,,,38,0
83160,note_on,0,0,2,,,,,,,,,,,,,,,0,,,45,28
83160,note_on,0,0,1,,,,,,,,,,,,,,,0,,,62,33
83160,note_on,120,0,1,,,,,,,,,,,,,,,0,,,60,0
83280,note_on,120,0,2,,,,,,,,,,,,,,,0,,,45,0
83280,note_on,0,0,2,,,,,,,,,,,,,,,0,,,48,28
83280,note_on,120,0,1,,,,,,,,,,,,,,,0,,,62,0
83280,note_on,0,0,1,,,,,,,,,,,,,,,0,,,67,0
83280,note_on,0,0,1,,,,,,,,,,,,,,,0,,,66,39
83400,note_on,120,0,2,,,,,,,,,,,,,,,0,,,48,0
83400,note_on,0,0,2,,,,,,,,,,,,,,,0,,,45,28
83400,note_on,120,0,1,,,,,,,,,,,,,,,0,,,62,33
83480,set_tempo,920,1,0,,,,,,,,,,,,409556,,,,,,,
83520,note_on,0,0,1,,,,,,,,,,,,,,,0,,,60,34
83520,note_on,0,0,2,,,,,,,,,,,,,,,0,,,38,29
83520,note_on,120,0,2,,,,,,,,,,,,,,,0,,,45,0
83520,note_on,120,0,1,,,,,,,,,,,,,,,0,,,62,0
83530,control_change,10,0,2,,,,,,,,,,,,,,,0,64,0,,
83550,control_change,20,0,2,,,,,,,,,,,,,,,0,64,127,,
83640,note_on,0,0,2,,,,,,,,,,,,,,,0,,,45,28
83640,note_on,0,0,1,,,,,,,,,,,,,,,0,,,62,35
83640,note_on,120,0,1,,,,,,,,,,,,,,,0,,,60,0
83640,note_on,90,0,2,,,,,,,,,,,,,,,0,,,38,0
83640,set_tempo,160,1,0,,,,,,,,,,,,410959,,,,,,,
83760,note_on,120,0,2,,,,,,,,,,,,,,,0,,,45,0
83760,note_on,0,0,2,,,,,,,,,,,,,,,0,,,48,28
83760,note_on,0,0,1,,,,,,,,,,,,,,,0,,,64,40
83760,note_on,0,0,1,,,,,,,,,,,,,,,0,,,66,0
83760,note_on,120,0,1,,,,,,,,,,,,,,,0,,,62,0
83800,set_tempo,160,1,0,,,,,,,,,,,,412371,,,,,,,
83880,note_on,120,0,2,,,,,,,,,,,,,,,0,,,48,0
83880,note_on,0,0,2,,,,,,,,,,,,,,,0,,,45,28
83880,note_on,120,0,1,,,,,,,,,,,,,,,0,,,62,34
83920,set_tempo,120,1,0,,,,,,,,,,,,413793,,,,,,,
84000,note_on,0,0,1,,,,,,,,,,,,,,,0,,,60,35
84000,note_on,120,0,1,,,,,,,,,,,,,,,0,,,62,0
84000,note_on,120,0,2,,,,,,,,,,,,,,,0,,,45,0
84000,note_on,0,0,2,,,,,,,,,,,,,,,0,,,38,28
84080,set_tempo,160,1,0,,,,,,,,,,,,415225,,,,,,,
84120,note_on,0,0,1,,,,,,,,,,,,,,,0,,,62,34
84120,note_on,120,0,2,,,,,,,,,,,,,,,0,,,38,0
84120,note_on,0,0,2,,,,,,,,,,,,,,,0,,,45,28
84120,note_on,120,0,1,,,,,,,,,,,,,,,0,,,60,0
84200,set_tempo,120,1,0,,,,,,,,,,,,416667,,,,,,,
84240,note_on,0,0,1,,,,,,,,,,,,,,,0,,,64,0
84240,note_on,0,0,1,,,,,,,,,,,,,,,0,,,66,40
84240,note_on,0,0,2,,,,,,,,,,,,,,,0,,,48,28
84240,note_on,120,0,2,,,,,,,,,,,,,,,0,,,45,0
84240,note_on,120,0,1,,,,,,,,,,,,,,,0,,,62,0
84360,note_on,120,0,1,,,,,,,,,,,,,,,0,,,62,34
84360,note_on,0,0,2,,,,,,,,,,,,,,,0,,,45,28
84360,note_on,120,0,2,,,,,,,,,,,,,,,0,,,48,0
84360,set_tempo,160,1,0,,,,,,,,,,,,418118,,,,,,,
84480,note_on,120,0,1,,,,,,,,,,,,,,,0,,,62,0
84480,control_change,0,0,2,,,,,,,,,,,,,,,0,64,0,,
84480,note_on,0,0,2,,,,,,,,,,,,,,,0,,,43,28
84480,note_on,0,0,1,,,,,,,,,,,,,,,0,,,66,0
84480,note_on,120,0,2,,,,,,,,,,,,,,,0,,,45,0
84480,set_tempo,120,1,0,,,,,,,,,,,,510638,,,,,,,
84480,note_on,0,0,1,,,,,,,,,,,,,,,0,,,71,40
84480,note_on,0,0,1,,,,,,,,,,,,,,,0,,,59,40
84720,note_on,240,0,1,,,,,,,,,,,,,,,0,,,71,0
84720,note_on,0,0,1,,,,,,,,,,,,,,,0,,,59,0
84720,note_on,240,0,2,,,,,,,,,,,,,,,0,,,43,0
84720,note_on,0,0,1,,,,,,,,,,,,,,,0,,,71,47
85200,note_on,480,0,1,,,,,,,,,,,,,,,0,,,71,0
85200,note_on,0,0,1,,,,,,,,,,,,,,,0,,,71,47
85680,note_on,480,0,1,,,,,,,,,,,,,,,0,,,71,0
85680,note_on,0,0,1,,,,,,,,,,,,,,,0,,,71,47
86160,note_on,0,0,1,,,,,,,,,,,,,,,0,,,71,44
86160,note_on,480,0,1,,,,,,,,,,,,,,,0,,,71,0
86640,note_on,0,0,1,,,,,,,,,,,,,,,0,,,72,50
86640,note_on,480,0,1,,,,,,,,,,,,,,,0,,,71,0
86880,set_tempo,2400,1,0,,,,,,,,,,,,510638,,,,,,,
86960,set_tempo,80,1,0,,,,,,,,,,,,512821,,,,,,,
87040,set_tempo,80,1,0,,,,,,,,,,,,515021,,,,,,,
87120,note_on,480,0,1,,,,,,,,,,,,,,,0,,,72,0
87120,note_on,0,0,1,,,,,,,,,,,,,,,0,,,71,48
87120,set_tempo,80,1,0,,,,,,,,,,,,517241,,,,,,,
87200,set_tempo,80,1,0,,,,,,,,,,,,519481,,,,,,,
87280,set_tempo,80,1,0,,,,,,,,,,,,521739,,,,,,,
87360,set_tempo,80,1,0,,,,,,,,,,,,524017,,,,,,,
87400,set_tempo,40,1,0,,,,,,,,,,,,526316,,,,,,,
87480,set_tempo,80,1,0,,,,,,,,,,,,528634,,,,,,,
87560,set_tempo,80,1,0,,,,,,,,,,,,530973,,,,,,,
87600,note_on,480,0,1,,,,,,,,,,,,,,,0,,,71,0
87600,note_on,0,0,1,,,,,,,,,,,,,,,0,,,70,48
87640,set_tempo,80,1,0,,,,,,,,,,,,533333,,,,,,,
87720,set_tempo,80,1,0,,,,,,,,,,,,535714,,,,,,,
87800,set_tempo,80,1,0,,,,,,,,,,,,538117,,,,,,,
87840,set_tempo,40,1,0,,,,,,,,,,,,540541,,,,,,,
88080,note_on,480,0,1,,,,,,,,,,,,,,,0,,,70,0
88080,set_tempo,240,1,0,,,,,,,,,,,,606061,,,,,,,
88080,note_on,0,0,1,,,,,,,,,,,,,,,0,,,69,45
88320,set_tempo,240,1,0,,,,,,,,,,,,517241,,,,,,,
88320,note_on,0,0,2,,,,,,,,,,,,,,,0,,,40,33
88320,note_on,0,0,1,,,,,,,,,,,,,,,0,,,68,36
88320,note_on,240,0,1,,,,,,,,,,,,,,,0,,,69,0
88320,note_on,0,0,1,,,,,,,,,,,,,,,0,,,56,30
88320,control_change,3600,0,2,,,,,,,,,,,,,,,0,64,127,,
88560,note_on,240,0,2,,,,,,,,,,,,,,,0,,,47,27
88800,note_on,480,0,1,,,,,,,,,,,,,,,0,,,68,0
88800,note_on,0,0,1,,,,,,,,,,,,,,,0,,,56,0
88800,note_on,0,0,1,,,,,,,,,,,,,,,0,,,56,27
88800,note_on,0,0,1,,,,,,,,,,,,,,,0,,,68,34
89040,note_on,0,0,1,,,,,,,,,,,,,,,0,,,56,0
89040,note_on,0,0,1,,,,,,,,,,,,,,,0,,,68,34
89040,note_on,0,0,1,,,,,,,,,,,,,,,0,,,56,27
89040,note_on,240,0,1,,,,,,,,,,,,,,,0,,,68,0
89280,note_on,0,0,1,,,,,,,,,,,,,,,0,,,68,36
89280,note_on,0,0,1,,,,,,,,,,,,,,,0,,,56,30
89280,note_on,0,0,1,,,,,,,,,,,,,,,0,,,56,0
89280,note_on,240,0,1,,,,,,,,,,,,,,,0,,,68,0
89280,note_on,0,0,2,,,,,,,,,,,,,,,0,,,40,31
89280,note_on,720,0,2,,,,,,,,,,,,,,,0,,,47,0
89280,note_on,0,0,2,,,,,,,,,,,,,,,0,,,40,0
89520,note_on,240,0,2,,,,,,,,,,,,,,,0,,,47,27
89760,note_on,0,0,1,,,,,,,,,,,,,,,0,,,56,27
89760,note_on,480,0,1,,,,,,,,,,,,,,,0,,,68,0
89760,note_on,0,0,1,,,,,,,,,,,,,,,0,,,68,33
89760,note_on,0,0,1,,,,,,,,,,,,,,,0,,,56,0
90000,note_on,0,0,1,,,,,,,,,,,,,,,0,,,56,27
90000,note_on,0,0,1,,,,,,,,,,,,,,,0,,,56,0
90000,note_on,240,0,1,,,,,,,,,,,,,,,0,,,68,0
90000,note_on,0,0,1,,,,,,,,,,,,,,,0,,,68,33
90240,note_on,0,0,1,,,,,,,,,,,,,,,0,,,68,36
90240,control_change,0,0,2,,,,,,,,,,,,,,,0,64,0,,
90240,note_on,0,0,2,,,,,,,,,,,,,,,0,,,42,32
90240,note_on,0,0,2,,,,,,,,,,,,,,,0,,,40,0
90240,note_on,720,0,2,,,,,,,,,,,,,,,0,,,47,0
90240,note_on,0,0,1,,,,,,,,,,,,,,,0,,,56,0
90240,note_on,0,0,1,,,,,,,,,,,,,,,0,,,56,30
90240,set_tempo,1920,1,0,,,,,,,,,,,,502092,,,,,,,
90240,note_on,240,0,1,,,,,,,,,,,,,,,0,,,68,0
90318,control_change,78,0,2,,,,,,,,,,,,,,,0,64,127,,
90480,note_on,0,0,1,,,,,,,,,,,,,,,0,,,71,34
90480,note_on,240,0,1,,,,,,,,,,,,,,,0,,,68,0
90480,note_on,0,0,1,,,,,,,,,,,,,,,0,,,56,0
90480,note_on,162,0,2,,,,,,,,,,,,,,,0,,,47,27
90480,note_on,0,0,1,,,,,,,,,,,,,,,0,,,59,27
90720,note_on,240,0,1,,,,,,,,,,,,,,,0,,,71,0
90720,note_on,0,0,1,,,,,,,,,,,,,,,0,,,59,0
90720,note_on,240,0,2,,,,,,,,,,,,,,,0,,,47,0
90720,note_on,0,0,1,,,,,,,,,,,,,,,0,,,69,34
90720,note_on,0,0,2,,,,,,,,,,,,,,,0,,,47,27
90720,set_tempo,480,1,0,,,,,,,,,,,,517241,,,,,,,
90720,note_on,0,0,1,,,,,,,,,,,,,,,0,,,57,27
90776,control_change,56,0,2,,,,,,,,,,,,,,,0,64,0,,
90960,note_on,0,0,2,,,,,,,,,,,,,,,0,,,47,27
90960,note_on,184,0,2,,,,,,,,,,,,,,,0,,,47,0
91200,note_on,240,0,2,,,,,,,,,,,,,,,0,,,47,0
91200,set_tempo,480,1,0,,,,,,,,,,,,508475,,,,,,,
91200,note_on,0,0,2,,,,,,,,,,,,,,,0,,,47,32
91200,note_on,480,0,1,,,,,,,,,,,,,,,0,,,69,0
91200,note_on,0,0,1,,,,,,,,,,,,,,,0,,,57,0
91440,note_on,0,0,2,,,,,,,,,,,,,,,0,,,49,35
91440,note_on,240,0,2,,,,,,,,,,,,,,,0,,,47,0
91680,set_tempo,480,1,0,,,,,,,,,,,,519481,,,,,,,
91680,note_on,0,0,2,,,,,,,,,,,,,,,0,,,47,31
91680,note_on,240,0,2,,,,,,,,,,,,,,,0,,,49,0
91800,note_on,120,0,2,,,,,,,,,,,,,,,0,,,47,0
91920,note_on,120,0,2,,,,,,,,,,,,,,,0,,,47,31
92040,note_on,120,0,2,,,,,,,,,,,,,,,0,,,47,0
92160,note_on,0,0,2,,,,,,,,,,,,,,,0,,,42,33
92160,note_on,120,0,2,,,,,,,,,,,,,,,0,,,42,0
92160,note_on,0,0,1,,,,,,,,,,,,,,,0,,,69,36
92160,set_tempo,480,1,0,,,,,,,,,,,,517241,,,,,,,
92160,note_on,960,0,1,,,,,,,,,,,,,,,0,,,57,30
92174,control_change,14,0,2,,,,,,,,,,,,,,,0,64,127,,
92400,note_on,226,0,2,,,,,,,,,,,,,,,0,,,47,27
92640,note_on,0,0,1,,,,,,,,,,,,,,,0,,,57,0
92640,note_on,0,0,1,,,,,,,,,,,,,,,0,,,57,27
92640,note_on,0,0,1,,,,,,,,,,,,,,,0,,,69,34
92640,note_on,480,0,1,,,,,,,,,,,,,,,0,,,69,0
92880,note_on,240,0,1,,,,,,,,,,,,,,,0,,,69,0
92880,note_on,0,0,1,,,,,,,,,,,,,,,0,,,57,27
92880,note_on,0,0,1,,,,,,,,,,,,,,,0,,,69,34
92880,note_on,0,0,1,,,,,,,,,,,,,,,0,,,57,0
93120,note_on,0,0,1,,,,,,,,,,,,,,,0,,,69,36
93120,note_on,0,0,2,,,,,,,,,,,,,,,0,,,42,31
93120,note_on,720,0,2,,,,,,,,,,,,,,,0,,,47,0
93120,note_on,0,0,1,,,,,,,,,,,,,,,0,,,57,0
93120,note_on,240,0,1,,,,,,,,,,,,,,,0,,,69,0
93120,note_on,0,0,2,,,,,,,,,,,,,,,0,,,42,0
93120,note_on,0,0,1,,,,,,,,,,,,,,,0,,,57,30
93134,control_change,14,0,2,,,,,,,,,,,,,,,0,64,0,,
93261,control_change,127,0,2,,,,,,,,,,,,,,,0,64,127,,
93360,note_on,99,0,2,,,,,,,,,,,,,,,0,,,47,27
93600,note_on,0,0,1,,,,,,,,,,,,,,,0,,,57,0
93600,note_on,0,0,1,,,,,,,,,,,,,,,0,,,57,27
93600,note_on,0,0,1,,,,,,,,,,,,,,,0,,,69,33
93600,note_on,480,0,1,,,,,,,,,,,,,,,0,,,69,0
93840,note_on,0,0,1,,,,,,,,,,,,,,,0,,,57,27
93840,set_tempo,1680,1,0,,,,,,,,,,,,530973,,,,,,,
93840,note_on,240,0,1,,,,,,,,,,,,,,,0,,,69,0
93840,note_on,0,0,1,,,,,,,,,,,,,,,0,,,57,0
93840,note_on,0,0,1,,,,,,,,,,,,,,,0,,,69,33
94080,note_on,0,0,2,,,,,,,,,,,,,,,0,,,44,32
94080,note_on,720,0,2,,,,,,,,,,,,,,,0,,,47,0
94080,note_on,0,0,2,,,,,,,,,,,,,,,0,,,42,0
94080,control_change,0,0,2,,,,,,,,,,,,,,,0,64,0,,
94080,note_on,240,0,1,,,,,,,,,,,,,,,0,,,69,0
94080,note_on,0,0,1,,,,,,,,,,,,,,,0,,,70,36
94080,set_tempo,240,1,0,,,,,,,,,,,,502092,,,,,,,
94080,note_on,0,0,1,,,,,,,,,,,,,,,0,,,57,0
94080,note_on,0,0,1,,,,,,,,,,,,,,,0,,,58,30
94136,control_change,56,0,2,,,,,,,,,,,,,,,0,64,127,,
94320,note_on,184,0,2,,,,,,,,,,,,,,,0,,,47,27
94320,note_on,240,0,1,,,,,,,,,,,,,,,0,,,70,0
94320,note_on,0,0,1,,,,,,,,,,,,,,,0,,,58,0
94320,note_on,0,0,1,,,,,,,,,,,,,,,0,,,61,27
94320,note_on,0,0,1,,,,,,,,,,,,,,,0,,,73,34
94560,set_tempo,480,1,0,,,,,,,,,,,,517241,,,,,,,
94560,note_on,240,0,1,,,,,,,,,,,,,,,0,,,73,0
94560,note_on,0,0,1,,,,,,,,,,,,,,,0,,,61,0
94560,note_on,240,0,2,,,,,,,,,,,,,,,0,,,47,0
94560,note_on,0,0,1,,,,,,,,,,,,,,,0,,,71,34
94560,note_on,0,0,1,,,,,,,,,,,,,,,0,,,59,27
94560,note_on,0,0,2,,,,,,,,,,,,,,,0,,,47,27
94595,control_change,35,0,2,,,,,,,,,,,,,,,0,64,0,,
94800,note_on,205,0,2,,,,,,,,,,,,,,,0,,,47,0
94800,note_on,0,0,2,,,,,,,,,,,,,,,0,,,47,27
95040,note_on,240,0,2,,,,,,,,,,,,,,,0,,,47,0
95040,note_on,0,0,2,,,,,,,,,,,,,,,0,,,47,32
95040,set_tempo,480,1,0,,,,,,,,,,,,508475,,,,,,,
95280,note_on,0,0,1,,,,,,,,,,,,,,,0,,,64,30
95280,note_on,0,0,1,,,,,,,,,,,,,,,0,,,76,43
95280,note_on,240,0,2,,,,,,,,,,,,,,,0,,,47,0
95280,set_tempo,240,1,0,,,,,,,,,,,,497925,,,,,,,
95280,note_on,720,0,1,,,,,,,,,,,,,,,0,,,71,0
95280,note_on,0,0,1,,,,,,,,,,,,,,,0,,,59,0
95280,note_on,0,0,2,,,,,,,,,,,,,,,0,,,49,39
95520,note_on,240,0,2,,,,,,,,,,,,,,,0,,,49,0
95520,set_tempo,240,1,0,,,,,,,,,,,,515021,,,,,,,
95520,note_on,0,0,1,,,,,,,,,,,,,,,0,,,78,47
95520,note_on,0,0,1,,,,,,,,,,,,,,,0,,,66,33
95520,note_on,0,0,1,,,,,,,,,,,,,,,0,,,64,0
95520,note_on,240,0,1,,,,,,,,,,,,,,,0,,,76,0
95520,note_on,0,0,2,,,,,,,,,,,,,,,0,,,47,41
95640,note_on,120,0,2,,,,,,,,,,,,,,,0,,,47,0
95760,note_on,0,0,1,,,,,,,,,,,,,,,0,,,76,52
95760,note_on,240,0,1,,,,,,,,,,,,,,,0,,,78,0
95760,note_on,0,0,1,,,,,,,,,,,,,,,0,,,66,0
95760,note_on,0,0,1,,,,,,,,,,,,,,,0,,,80,52
95760,note_on,120,0,2,,,,,,,,,,,,,,,0,,,47,46
95760,note_on,0,0,1,,,,,,,,,,,,,,,0,,,68,36
95880,note_on,120,0,2,,,,,,,,,,,,,,,0,,,47,0
96000,note_on,0,0,2,,,,,,,,,,,,,,,0,,,54,54
96000,note_on,0,0,1,,,,,,,,,,,,,,,0,,,81,59
96000,note_on,0,0,1,,,,,,,,,,,,,,,0,,,69,41
96000,note_on,0,0,1,,,,,,,,,,,,,,,0,,,68,0
96000,note_on,240,0,1,,,,,,,,,,,,,,,0,,,80,0
96000,note_on,120,0,2,,,,,,,,,,,,,,,0,,,44,0
96240,note_on,240,0,2,,,,,,,,,,,,,,,0,,,59,43
96240,note_on,0,0,1,,,,,,,,,,,,,,,0,,,75,54
96240,note_on,240,0,1,,,,,,,,,,,,,,,0,,,76,0
96480,note_on,0,0,2,,,,,,,,,,,,,,,0,,,61,41
96480,note_on,240,0,2,,,,,,,,,,,,,,,0,,,59,0
96480,note_on,0,0,1,,,,,,,,,,,,,,,0,,,73,51
96480,note_on,240,0,1,,,,,,,,,,,,,,,0,,,75,0
96720,note_on,240,0,1,,,,,,,,,,,,,,,0,,,73,0
96720,note_on,0,0,1,,,,,,,,,,,,,,,0,,,71,50
96720,note_on,240,0,2,,,,,,,,,,,,,,,0,,,61,0
96720,note_on,0,0,2,,,,,,,,,,,,,,,0,,,63,40
96960,note_on,0,0,2,,,,,,,,,,,,,,,0,,,64,45
96960,note_on,0,0,2,,,,,,,,,,,,,,,0,,,52,30
96960,note_on,240,0,2,,,,,,,,,,,,,,,0,,,63,0
96960,note_on,0,0,1,,,,,,,,,,,,,,,0,,,71,46
96960,note_on,0,0,2,,,,,,,,,,,,,,,0,,,54,0
96960,note_on,240,0,1,,,,,,,,,,,,,,,0,,,71,0
97200,note_on,0,0,1,,,,,,,,,,,,,,,0,,,80,40
97200,note_on,0,0,1,,,,,,,,,,,,,,,0,,,68,27
97200,note_on,0,0,1,,,,,,,,,,,,,,,0,,,69,0
97200,note_on,240,0,1,,,,,,,,,,,,,,,0,,,81,0
97440,note_on,0,0,2,,,,,,,,,,,,,,,0,,,54,27
97440,note_on,0,0,2,,,,,,,,,,,,,,,0,,,52,0
97440,note_on,480,0,2,,,,,,,,,,,,,,,0,,,64,0
97440,note_on,0,0,1,,,,,,,,,,,,,,,0,,,68,0
97440,note_on,0,0,1,,,,,,,,,,,,,,,0,,,69,27
97440,note_on,0,0,1,,,,,,,,,,,,,,,0,,,78,40
97440,note_on,0,0,2,,,,,,,,,,,,,,,0,,,63,39
97440,note_on,240,0,1,,,,,,,,,,,,,,,0,,,80,0
97680,note_on,240,0,1,,,,,,,,,,,,,,,0,,,78,0
97680,note_on,0,0,1,,,,,,,,,,,,,,,0,,,69,0
97680,note_on,0,0,1,,,,,,,,,,,,,,,0,,,71,27
97680,note_on,0,0,1,,,,,,,,,,,,,,,0,,,76,40
97680,set_tempo,2160,1,0,,,,,,,,,,,,542986,,,,,,,
97680,note_on,0,0,2,,,,,,,,,,,,,,,0,,,54,0
97680,note_on,0,0,2,,,,,,,,,,,,,,,0,,,64,37
97680,note_on,0,0,2,,,,,,,,,,,,,,,0,,,56,26
97680,note_on,240,0,2,,,,,,,,,,,,,,,0,,,63,0
97920,note_on,0,0,2,,,,,,,,,,,,,,,0,,,54,30
97920,note_on,0,0,2,,,,,,,,,,,,,,,0,,,66,45
97920,note_on,0,0,2,,,,,,,,,,,,,,,0,,,56,0
97920,note_on,240,0,2,,,,,,,,,,,,,,,0,,,64,0
97920,note_on,240,0,1,,,,,,,,,,,,,,,0,,,76,0
97920,set_tempo,240,1,0,,,,,,,,,,,,515021,,,,,,,
97920,note_on,0,0,1,,,,,,,,,,,,,,,0,,,71,0
97920,note_on,0,0,1,,,,,,,,,,,,,,,0,,,76,47
97920,note_on,0,0,1,,,,,,,,,,,,,,,0,,,71,34
97920,note_on,0,0,1,,,,,,,,,,,,,,,0,,,71,0
98160,note_on,0,0,1,,,,,,,,,,,,,,,0,,,75,41
98160,note_on,240,0,1,,,,,,,,,,,,,,,0,,,76,0
98400,note_on,0,0,1,,,,,,,,,,,,,,,0,,,75,44
98400,note_on,0,0,1,,,,,,,,,,,,,,,0,,,71,0
98400,note_on,240,0,1,,,,,,,,,,,,,,,0,,,75,0
98400,set_tempo,480,1,0,,,,,,,,,,,,524017,,,,,,,
98400,note_on,480,0,2,,,,,,,,,,,,,,,0,,,54,0
98400,note_on,0,0,2,,,,,,,,,,,,,,,0,,,66,0
98400,note_on,0,0,2,,,,,,,,,,,,,,,0,,,64,36
98400,note_on,0,0,2,,,,,,,,,,,,,,,0,,,54,25
98400,note_on,0,0,1,,,,,,,,,,,,,,,0,,,70,29
98640,note_on,0,0,1,,,,,,,,,,,,,,,0,,,73,36
98640,note_on,240,0,1,,,,,,,,,,,,,,,0,,,75,0
98880,set_tempo,480,1,0,,,,,,,,,,,,560748,,,,,,,
98880,note_on,0,0,1,,,,,,,,,,,,,,,0,,,71,36
98880,note_on,0,0,1,,,,,,,,,,,,,,,0,,,70,0
98880,note_on,0,0,2,,,,,,,,,,,,,,,0,,,59,25
98880,note_on,0,0,2,,,,,,,,,,,,,,,0,,,63,36
98880,note_on,0,0,2,,,,,,,,,,,,,,,0,,,64,0
98880,note_on,480,0,2,,,,,,,,,,,,,,,0,,,54,0
98880,note_on,240,0,1,,,,,,,,,,,,,,,0,,,73,0
99120,note_on,0,0,1,,,,,,,,,,,,,,,0,,,71,27
99120,note_on,0,0,1,,,,,,,,,,,,,,,0,,,83,39
99120,note_on,240,0,1,,,,,,,,,,,,,,,0,,,71,0
99120,note_on,0,0,2,,,,,,,,,,,,,,,0,,,63,0
99120,set_tempo,240,1,0,,,,,,,,,,,,526316,,,,,,,
99120,note_on,240,0,2,,,,,,,,,,,,,,,0,,,59,0
99360,note_on,240,0,1,,,,,,,,,,,,,,,0,,,71,0
99360,note_on,0,0,1,,,,,,,,,,,,,,,0,,,83,0
99360,note_on,0,0,1,,,,,,,,,,,,,,,0,,,70,26
99360,note_on,0,0,1,,,,,,,,,,,,,,,0,,,82,36
99600,note_on,240,0,1,,,,,,,,,,,,,,,0,,,82,0
99600,note_on,0,0,1,,,,,,,,,,,,,,,0,,,70,0
99600,note_on,0,0,1,,,,,,,,,,,,,,,0,,,69,25
99600,note_on,0,0,1,,,,,,,,,,,,,,,0,,,81,36
99840,note_on,0,0,1,,,,,,,,,,,,,,,0,,,68,30
99840,control_change,720,0,2,,,,,,,,,,,,,,,0,64,127,,
99840,note_on,0,0,2,,,,,,,,,,,,,,,0,,,52,33
99840,note_on,240,0,1,,,,,,,,,,,,,,,0,,,81,0
99840,note_on,0,0,1,,,,,,,,,,,,,,,0,,,80,36
99840,note_on,0,0,1,,,,,,,,,,,,,,,0,,,69,0
99840,set_tempo,720,1,0,,,,,,,,,,,,517241,,,,,,,
100080,note_on,240,0,2,,,,,,,,,,,,,,,0,,,59,27
100320,note_on,480,0,1,,,,,,,,,,,,,,,0,,,80,0
100320,note_on,0,0,1,,,,,,,,,,,,,,,0,,,80,34
100320,note_on,0,0,1,,,,,,,,,,,,,,,0,,,68,27
100320,note_on,0,0,1,,,,,,,,,,,,,,,0,,,68,0
100560,note_on,0,0,1,,,,,,,,,,,,,,,0,,,68,0
100560,note_on,0,0,1,,,,,,,,,,,,,,,0,,,68,27
100560,note_on,0,0,1,,,,,,,,,,,,,,,0,,,80,34
100560,note_on,240,0,1,,,,,,,,,,,,,,,0,,,80,0
100800,note_on,240,0,1,,,,,,,,,,,,,,,0,,,80,0
100800,note_on,0,0,1,,,,,,,,,,,,,,,0,,,68,0
100800,note_on,0,0,1,,,,,,,,,,,,,,,0,,,68,30
100800,note_on,0,0,1,,,,,,,,,,,,,,,0,,,80,36
100800,note_on,720,0,2,,,,,,,,,,,,,,,0,,,59,0
100800,note_on,0,0,2,,,,,,,,,,,,,,,0,,,52,0
100800,note_on,0,0,2,,,,,,,,,,,,,,,0,,,52,31
101040,note_on,240,0,2,,,,,,,,,,,,,,,0,,,59,27
101280,note_on,0,0,1,,,,,,,,,,,,,,,0,,,80,33
101280,note_on,0,0,1,,,,,,,,,,,,,,,0,,,68,27
101280,note_on,0,0,1,,,,,,,,,,,,,,,0,,,68,0
101280,note_on,480,0,1,,,,,,,,,,,,,,,0,,,80,0
101520,note_on,0,0,1,,,,,,,,,,,,,,,0,,,68,27
101520,note_on,240,0,1,,,,,,,,,,,,,,,0,,,80,0
101520,note_on,0,0,1,,,,,,,,,,,,,,,0,,,80,33
101520,note_on,0,0,1,,,,,,,,,,,,,,,0,,,68,0
101760,note_on,0,0,2,,,,,,,,,,,,,,,0,,,54,32
101760,note_on,0,0,2,,,,,,,,,,,,,,,0,,,52,0
101760,note_on,720,0,2,,,,,,,,,,,,,,,0,,,59,0
101760,note_on,0,0,1,,,,,,,,,,,,,,,0,,,68,30
101760,note_on,0,0,1,,,,,,,,,,,,,,,0,,,80,36
101760,note_on,0,0,1,,,,,,,,,,,,,,,0,,,68,0
101760,note_on,240,0,1,,,,,,,,,,,,,,,0,,,80,0
101760,set_tempo,1920,1,0,,,,,,,,,,,,502092,,,,,,,
101770,control_change,10,0,2,,,,,,,,,,,,,,,0,64,0,,
101838,control_change,68,0,2,,,,,,,,,,,,,,,0,64,127,,
102000,note_on,0,0,1,,,,,,,,,,,,,,,0,,,83,34
102000,note_on,0,0,1,,,,,,,,,,,,,,,0,,,71,27
102000,note_on,0,0,1,,,,,,,,,,,,,,,0,,,68,0
102000,note_on,240,0,1,,,,,,,,,,,,,,,0,,,80,0
102000,note_on,162,0,2,,,,,,,,,,,,,,,0,,,59,27
102240,set_tempo,480,1,0,,,,,,,,,,,,517241,,,,,,,
102240,note_on,0,0,2,,,,,,,,,,,,,,,0,,,59,27
102240,note_on,240,0,2,,,,,,,,,,,,,,,0,,,59,0
102240,note_on,0,0,1,,,,,,,,,,,,,,,0,,,81,34
102240,note_on,0,0,1,,,,,,,,,,,,,,,0,,,69,27
102240,note_on,0,0,1,,,,,,,,,,,,,,,0,,,71,0
102240,note_on,240,0,1,,,,,,,,,,,,,,,0,,,83,0
102296,control_change,56,0,2,,,,,,,,,,,,,,,0,64,0,,
102480,note_on,184,0,2,,,,,,,,,,,,,,,0,,,59,0
102480,note_on,0,0,2,,,,,,,,,,,,,,,0,,,59,27
102720,note_on,0,0,2,,,,,,,,,,,,,,,0,,,58,32
102720,note_on,480,0,1,,,,,,,,,,,,,,,0,,,81,0
102720,note_on,0,0,1,,,,,,,,,,,,,,,0,,,69,0
102720,set_tempo,480,1,0,,,,,,,,,,,,493827,,,,,,,
102720,note_on,240,0,2,,,,,,,,,,,,,,,0,,,59,0
102840,note_on,120,0,2,,,,,,,,,,,,,,,0,,,58,0
102840,note_on,0,0,2,,,,,,,,,,,,,,,0,,,59,27
102960,note_on,0,0,2,,,,,,,,,,,,,,,0,,,61,27
102960,note_on,120,0,2,,,,,,,,,,,,,,,0,,,59,0
103080,set_tempo,360,1,0,,,,,,,,,,,,533333,,,,,,,
103080,note_on,120,0,2,,,,,,,,,,,,,,,0,,,61,0
103080,note_on,0,0,2,,,,,,,,,,,,,,,0,,,59,29
103200,note_on,120,0,2,,,,,,,,,,,,,,,0,,,59,0
103200,set_tempo,120,1,0,,,,,,,,,,,,519481,,,,,,,
103200,note_on,0,0,2,,,,,,,,,,,,,,,0,,,59,31
103320,note_on,120,0,2,,,,,,,,,,,,,,,0,,,59,0
103440,note_on,120,0,2,,,,,,,,,,,,,,,0,,,59,31
103560,note_on,120,0,2,,,,,,,,,,,,,,,0,,,59,0
103680,note_on,120,0,2,,,,,,,,,,,,,,,0,,,54,0
103680,note_on,0,0,2,,,,,,,,,,,,,,,0,,,54,33
103680,set_tempo,480,1,0,,,,,,,,,,,,517241,,,,,,,
103680,note_on,0,0,1,,,,,,,,,,,,,,,0,,,81,36
103680,note_on,960,0,1,,,,,,,,,,,,,,,0,,,69,30
103694,control_change,14,0,2,,,,,,,,,,,,,,,0,64,127,,
103920,note_on,226,0,2,,,,,,,,,,,,,,,0,,,59,27
104160,note_on,0,0,1,,,,,,,,,,,,,,,0,,,81,34
104160,note_on,0,0,1,,,,,,,,,,,,,,,0,,,69,27
104160,note_on,0,0,1,,,,,,,,,,,,,,,0,,,69,0
104160,note_on,480,0,1,,,,,,,,,,,,,,,0,,,81,0
104400,note_on,0,0,1,,,,,,,,,,,,,,,0,,,69,27
104400,note_on,0,0,1,,,,,,,,,,,,,,,0,,,69,0
104400,note_on,240,0,1,,,,,,,,,,,,,,,0,,,81,0
104400,note_on,0,0,1,,,,,,,,,,,,,,,0,,,81,34
104640,note_on,0,0,2,,,,,,,,,,,,,,,0,,,54,31
104640,note_on,0,0,2,,,,,,,,,,,,,,,0,,,54,0
104640,note_on,240,0,1,,,,,,,,,,,,,,,0,,,81,0
104640,note_on,0,0,1,,,,,,,,,,,,,,,0,,,69,0
104640,note_on,0,0,1,,,,,,,,,,,,,,,0,,,69,30
104640,note_on,0,0,1,,,,,,,,,,,,,,,0,,,81,36
104640,note_on,720,0,2,,,,,,,,,,,,,,,0,,,59,0
104654,control_change,14,0,2,,,,,,,,,,,,,,,0,64,0,,
104781,control_change,127,0,2,,,,,,,,,,,,,,,0,64,127,,
104880,note_on,99,0,2,,,,,,,,,,,,,,,0,,,59,27
105120,set_tempo,1440,1,0,,,,,,,,,,,,528634,,,,,,,
105120,note_on,480,0,1,,,,,,,,,,,,,,,0,,,81,0
105120,note_on,0,0,1,,,,,,,,,,,,,,,0,,,69,0
105120,note_on,0,0,1,,,,,,,,,,,,,,,0,,,69,27
105120,note_on,0,0,1,,,,,,,,,,,,,,,0,,,81,33
105360,note_on,240,0,1,,,,,,,,,,,,,,,0,,,81,0
105360,set_tempo,240,1,0,,,,,,,,,,,,552995,,,,,,,
105360,note_on,0,0,1,,,,,,,,,,,,,,,0,,,69,27
105360,note_on,0,0,1,,,,,,,,,,,,,,,0,,,81,33
105360,note_on,0,0,1,,,,,,,,,,,,,,,0,,,69,0
105600,control_change,0,0,2,,,,,,,,,,,,,,,0,64,0,,
105600,note_on,0,0,1,,,,,,,,,,,,,,,0,,,82,36
105600,set_tempo,240,1,0,,,,,,,,,,,,504202,,,,,,,
105600,note_on,0,0,1,,,,,,,,,,,,,,,0,,,70,30
105600,note_on,0,0,2,,,,,,,,,,,,,,,0,,,55,32
105600,note_on,0,0,1,,,,,,,,,,,,,,,0,,,69,0
105600,note_on,720,0,2,,,,,,,,,,,,,,,0,,,59,0
105600,note_on,240,0,1,,,,,,,,,,,,,,,0,,,81,0
105600,note_on,0,0,2,,,,,,,,,,,,,,,0,,,54,0
105656,control_change,56,0,2,,,,,,,,,,,,,,,0,64,127,,
105840,note_on,184,0,2,,,,,,,,,,,,,,,0,,,59,27
105840,note_on,0,0,1,,,,,,,,,,,,,,,0,,,84,34
105840,note_on,0,0,1,,,,,,,,,,,,,,,0,,,72,27
105840,note_on,0,0,1,,,,,,,,,,,,,,,0,,,70,0
105840,note_on,240,0,1,,,,,,,,,,,,,,,0,,,82,0
106080,note_on,240,0,1,,,,,,,,,,,,,,,0,,,84,0
106080,note_on,0,0,1,,,,,,,,,,,,,,,0,,,72,0
106080,set_tempo,480,1,0,,,,,,,,,,,,517241,,,,,,,
106080,note_on,0,0,1,,,,,,,,,,,,,,,0,,,83,34
106080,note_on,0,0,2,,,,,,,,,,,,,,,0,,,59,27
106080,note_on,240,0,2,,,,,,,,,,,,,,,0,,,59,0
106080,note_on,0,0,1,,,,,,,,,,,,,,,0,,,71,27
106115,control_change,35,0,2,,,,,,,,,,,,,,,0,64,0,,
106320,note_on,0,0,2,,,,,,,,,,,,,,,0,,,59,27
106320,note_on,205,0,2,,,,,,,,,,,,,,,0,,,59,0
106560,note_on,0,0,2,,,,,,,,,,,,,,,0,,,58,32
106560,note_on,240,0,2,,,,,,,,,,,,,,,0,,,59,0
106560,set_tempo,480,1,0,,,,,,,,,,,,493827,,,,,,,
106680,note_on,120,0,2,,,,,,,,,,,,,,,0,,,58,0
106680,note_on,0,0,2,,,,,,,,,,,,,,,0,,,59,27
106800,note_on,0,0,1,,,,,,,,,,,,,,,0,,,71,0
106800,note_on,120,0,2,,,,,,,,,,,,,,,0,,,59,0
106800,note_on,0,0,2,,,,,,,,,,,,,,,0,,,60,27
106800,note_on,720,0,1,,,,,,,,,,,,,,,0,,,83,0
106920,note_on,120,0,2,,,,,,,,,,,,,,,0,,,60,0
106920,note_on,0,0,2,,,,,,,,,,,,,,,0,,,59,27
106920,set_tempo,360,1,0,,,,,,,,,,,,538117,,,,,,,
107040,set_tempo,120,1,0,,,,,,,,,,,,521739,,,,,,,
107040,note_on,120,0,2,,,,,,,,,,,,,,,0,,,59,0
107040,note_on,0,0,2,,,,,,,,,,,,,,,0,,,59,31
107160,note_on,120,0,2,,,,,,,,,,,,,,,0,,,59,0
107280,note_on,120,0,2,,,,,,,,,,,,,,,0,,,59,31
107400,note_on,120,0,2,,,,,,,,,,,,,,,0,,,59,0
107520,note_on,120,0,2,,,,,,,,,,,,,,,0,,,55,0
107520,set_tempo,480,1,0,,,,,,,,,,,,504202,,,,,,,
107520,note_on,720,0,1,,,,,,,,,,,,,,,0,,,71,45
107520,control_change,0,0,2,,,,,,,,,,,,,,,0,64,0,,
107520,note_on,0,0,1,,,,,,,,,,,,,,,0,,,83,45
107520,note_on,0,0,2,,,,,,,,,,,,,,,0,,,57,32
107576,control_change,56,0,2,,,,,,,,,,,,,,,0,64,127,,
107760,note_on,184,0,2,,,,,,,,,,,,,,,0,,,64,27
107760,note_on,0,0,1,,,,,,,,,,,,,,,0,,,86,40
107760,note_on,0,0,1,,,,,,,,,,,,,,,0,,,74,40
107760,note_on,0,0,1,,,,,,,,,,,,,,,0,,,71,0
107760,note_on,240,0,1,,,,,,,,,,,,,,,0,,,83,0
108000,note_on,0,0,1,,,,,,,,,,,,,,,0,,,74,0
108000,note_on,240,0,1,,,,,,,,,,,,,,,0,,,86,0
108000,note_on,0,0,1,,,,,,,,,,,,,,,0,,,84,41
108000,set_tempo,480,1,0,,,,,,,,,,,,517241,,,,,,,
108000,note_on,240,0,2,,,,,,,,,,,,,,,0,,,64,0
108000,note_on,0,0,2,,,,,,,,,,,,,,,0,,,64,27
108000,note_on,0,0,1,,,,,,,,,,,,,,,0,,,72,41
108035,control_change,35,0,2,,,,,,,,,,,,,,,0,64,0,,
108240,set_tempo,240,1,0,,,,,,,,,,,,542986,,,,,,,
108240,note_on,0,0,2,,,,,,,,,,,,,,,0,,,64,27
108240,note_on,205,0,2,,,,,,,,,,,,,,,0,,,64,0
108480,set_tempo,240,1,0,,,,,,,,,,,,493827,,,,,,,
108480,note_on,0,0,2,,,,,,,,,,,,,,,0,,,59,36
108480,note_on,0,0,1,,,,,,,,,,,,,,,0,,,88,54
108480,note_on,0,0,1,,,,,,,,,,,,,,,0,,,76,54
108480,note_on,0,0,1,,,,,,,,,,,,,,,0,,,72,0
108480,note_on,480,0,1,,,,,,,,,,,,,,,0,,,84,0
108480,note_on,240,0,2,,,,,,,,,,,,,,,0,,,64,0
108600,note_on,0,0,2,,,,,,,,,,,,,,,0,,,60,32
108600,note_on,120,0,2,,,,,,,,,,,,,,,0,,,59,0
108720,note_on,120,0,2,,,,,,,,,,,,,,,0,,,60,0
108720,note_on,0,0,2,,,,,,,,,,,,,,,0,,,62,35
108840,note_on,120,0,2,,,,,,,,,,,,,,,0,,,62,0
108840,note_on,0,0,2,,,,,,,,,,,,,,,0,,,60,37
108840,set_tempo,360,1,0,,,,,,,,,,,,538117,,,,,,,
108960,note_on,120,0,2,,,,,,,,,,,,,,,0,,,60,0
108960,set_tempo,120,1,0,,,,,,,,,,,,521739,,,,,,,
108960,note_on,0,0,2,,,,,,,,,,,,,,,0,,,62,35
109200,note_on,0,0,1,,,,,,,,,,,,,,,0,,,76,0
109200,note_on,240,0,2,,,,,,,,,,,,,,,0,,,62,0
109200,note_on,0,0,1,,,,,,,,,,,,,,,0,,,72,43
109200,note_on,0,0,1,,,,,,,,,,,,,,,0,,,84,43
109200,note_on,720,0,1,,,,,,,,,,,,,,,0,,,88,0
109200,note_on,0,0,2,,,,,,,,,,,,,,,0,,,64,34
109440,note_on,0,0,2,,,,,,,,,,,,,,,0,,,57,0
109440,note_on,240,0,2,,,,,,,,,,,,,,,0,,,64,0
109440,note_on,240,0,1,,,,,,,,,,,,,,,0,,,84,0
109440,note_on,0,0,2,,,,,,,,,,,,,,,0,,,55,32
109440,set_tempo,480,1,0,,,,,,,,,,,,504202,,,,,,,
109440,note_on,0,0,1,,,,,,,,,,,,,,,0,,,72,0
109440,control_change,0,0,2,,,,,,,,,,,,,,,0,64,0,,
109440,note_on,0,0,1,,,,,,,,,,,,,,,0,,,70,45
109440,note_on,0,0,1,,,,,,,,,,,,,,,0,,,82,45
109496,control_change,56,0,2,,,,,,,,,,,,,,,0,64,127,,
109680,note_on,0,0,1,,,,,,,,,,,,,,,0,,,70,0
109680,note_on,184,0,2,,,,,,,,,,,,,,,0,,,64,27
109680,note_on,0,0,1,,,,,,,,,,,,,,,0,,,84,40
109680,note_on,0,0,1,,,,,,,,,,,,,,,0,,,72,40
109680,note_on,240,0,1,,,,,,,,,,,,,,,0,,,82,0
109920,set_tempo,480,1,0,,,,,,,,,,,,517241,,,,,,,
109920,note_on,240,0,1,,,,,,,,,,,,,,,0,,,84,0
109920,note_on,0,0,2,,,,,,,,,,,,,,,0,,,64,27
109920,note_on,0,0,1,,,,,,,,,,,,,,,0,,,71,41
109920,note_on,240,0,2,,,,,,,,,,,,,,,0,,,64,0
109920,note_on,0,0,1,,,,,,,,,,,,,,,0,,,72,0
109920,note_on,0,0,1,,,,,,,,,,,,,,,0,,,83,41
109955,control_change,35,0,2,,,,,,,,,,,,,,,0,64,0,,
110160,note_on,0,0,2,,,,,,,,,,,,,,,0,,,64,27
110160,note_on,205,0,2,,,,,,,,,,,,,,,0,,,64,0
110160,set_tempo,240,1,0,,,,,,,,,,,,542986,,,,,,,
110400,note_on,0,0,1,,,,,,,,,,,,,,,0,,,88,54
110400,note_on,0,0,1,,,,,,,,,,,,,,,0,,,76,54
110400,note_on,0,0,1,,,,,,,,,,,,,,,0,,,71,0
110400,note_on,0,0,2,,,,,,,,,,,,,,,0,,,58,36
110400,set_tempo,240,1,0,,,,,,,,,,,,493827,,,,,,,
110400,note_on,240,0,2,,,,,,,,,,,,,,,0,,,64,0
110400,note_on,480,0,1,,,,,,,,,,,,,,,0,,,83,0
110520,note_on,0,0,2,,,,,,,,,,,,,,,0,,,59,33
110520,note_on,120,0,2,,,,,,,,,,,,,,,0,,,58,0
110640,note_on,0,0,2,,,,,,,,,,,,,,,0,,,60,35
110640,note_on,120,0,2,,,,,,,,,,,,,,,0,,,59,0
110760,note_on,0,0,2,,,,,,,,,,,,,,,0,,,59,38
110760,note_on,120,0,2,,,,,,,,,,,,,,,0,,,60,0
110760,set_tempo,360,1,0,,,,,,,,,,,,538117,,,,,,,
110880,note_on,0,0,2,,,,,,,,,,,,,,,0,,,64,40
110880,set_tempo,120,1,0,,,,,,,,,,,,521739,,,,,,,
110880,note_on,120,0,2,,,,,,,,,,,,,,,0,,,59,0
111120,note_on,0,0,1,,,,,,,,,,,,,,,0,,,83,43
111120,note_on,240,0,2,,,,,,,,,,,,,,,0,,,64,0
111120,note_on,0,0,2,,,,,,,,,,,,,,,0,,,67,34
111120,note_on,0,0,1,,,,,,,,,,,,,,,0,,,71,43
111120,note_on,0,0,1,,,,,,,,,,,,,,,0,,,76,0
111120,note_on,720,0,1,,,,,,,,,,,,,,,0,,,88,0
111360,note_on,0,0,1,,,,,,,,,,,,,,,0,,,69,39
111360,note_on,0,0,2,,,,,,,,,,,,,,,0,,,54,33
111360,note_on,0,0,2,,,,,,,,,,,,,,,0,,,55,0
111360,note_on,240,0,2,,,,,,,,,,,,,,,0,,,67,0
111360,note_on,240,0,1,,,,,,,,,,,,,,,0,,,83,0
111360,note_on,0,0,1,,,,,,,,,,,,,,,0,,,71,0
111360,note_on,0,0,1,,,,,,,,,,,,,,,0,,,81,46
111600,note_on,0,0,2,,,,,,,,,,,,,,,0,,,55,36
111600,note_on,240,0,2,,,,,,,,,,,,,,,0,,,54,0
111600,note_on,240,0,1,,,,,,,,,,,,,,,0,,,81,0
111600,note_on,0,0,1,,,,,,,,,,,,,,,0,,,69,0
111600,note_on,0,0,1,,,,,,,,,,,,,,,0,,,71,41
111600,set_tempo,720,1,0,,,,,,,,,,,,510638,,,,,,,
111600,note_on,0,0,1,,,,,,,,,,,,,,,0,,,83,49
111840,note_on,0,0,1,,,,,,,,,,,,,,,0,,,84,51
111840,note_on,0,0,2,,,,,,,,,,,,,,,0,,,57,33
111840,note_on,240,0,1,,,,,,,,,,,,,,,0,,,83,0
111840,note_on,0,0,1,,,,,,,,,,,,,,,0,,,71,0
111840,note_on,0,0,1,,,,,,,,,,,,,,,0,,,72,51
111840,note_on,0,0,2,,,,,,,,,,,,,,,0,,,59,39
111840,note_on,240,0,2,,,,,,,,,,,,,,,0,,,55,0
112080,note_on,0,0,1,,,,,,,,,,,,,,,0,,,72,0
112080,note_on,0,0,2,,,,,,,,,,,,,,,0,,,59,0
112080,note_on,240,0,2,,,,,,,,,,,,,,,0,,,57,0
112080,note_on,240,0,1,,,,,,,,,,,,,,,0,,,84,0
112080,note_on,0,0,1,,,,,,,,,,,,,,,0,,,69,39
112080,note_on,0,0,1,,,,,,,,,,,,,,,0,,,81,46
112080,note_on,0,0,2,,,,,,,,,,,,,,,0,,,59,35
112080,note_on,0,0,2,,,,,,,,,,,,,,,0,,,54,29
112080,set_tempo,480,1,0,,,,,,,,,,,,526316,,,,,,,
112320,note_on,0,0,1,,,,,,,,,,,,,,,0,,,67,37
112320,note_on,0,0,1,,,,,,,,,,,,,,,0,,,79,45
112320,note_on,240,0,2,,,,,,,,,,,,,,,0,,,54,0
112320,note_on,0,0,2,,,,,,,,,,,,,,,0,,,59,0
112320,note_on,0,0,2,,,,,,,,,,,,,,,0,,,52,33
112320,note_on,0,0,1,,,,,,,,,,,,,,,0,,,69,0
112320,note_on,240,0,1,,,,,,,,,,,,,,,0,,,81,0
112560,note_on,0,0,1,,,,,,,,,,,,,,,0,,,82,46
112560,set_tempo,480,1,0,,,,,,,,,,,,515021,,,,,,,
112560,note_on,240,0,1,,,,,,,,,,,,,,,0,,,79,0
112560,note_on,0,0,1,,,,,,,,,,,,,,,0,,,67,0
112560,note_on,0,0,1,,,,,,,,,,,,,,,0,,,70,39
112560,note_on,0,0,2,,,,,,,,,,,,,,,0,,,54,36
112560,note_on,240,0,2,,,,,,,,,,,,,,,0,,,52,0
112800,note_on,0,0,2,,,,,,,,,,,,,,,0,,,55,34
112800,note_on,0,0,1,,,,,,,,,,,,,,,0,,,71,41
112800,note_on,0,0,1,,,,,,,,,,,,,,,0,,,70,0
112800,note_on,240,0,2,,,,,,,,,,,,,,,0,,,54,0
112800,note_on,0,0,2,,,,,,,,,,,,,,,0,,,59,41
112800,note_on,0,0,1,,,,,,,,,,,,,,,0,,,83,49
112800,note_on,240,0,1,,,,,,,,,,,,,,,0,,,82,0
113040,note_on,240,0,2,,,,,,,,,,,,,,,0,,,55,0
113040,note_on,0,0,2,,,,,,,,,,,,,,,0,,,52,30
113040,note_on,0,0,2,,,,,,,,,,,,,,,0,,,59,36
113040,note_on,0,0,2,,,,,,,,,,,,,,,0,,,59,0
113040,note_on,0,0,1,,,,,,,,,,,,,,,0,,,67,37
113040,set_tempo,480,1,0,,,,,,,,,,,,533333,,,,,,,
113040,note_on,0,0,1,,,,,,,,,,,,,,,0,,,79,45
113040,note_on,240,0,1,,,,,,,,,,,,,,,0,,,83,0
113040,note_on,0,0,1,,,,,,,,,,,,,,,0,,,71,0
113280,note_on,0,0,1,,,,,,,,,,,,,,,0,,,78,43
113280,note_on,0,0,2,,,,,,,,,,,,,,,0,,,59,43
113280,note_on,0,0,2,,,,,,,,,,,,,,,0,,,59,0
113280,note_on,240,0,2,,,,,,,,,,,,,,,0,,,52,0
113280,note_on,0,0,2,,,,,,,,,,,,,,,0,,,47,36
113280,note_on,240,0,1,,,,,,,,,,,,,,,0,,,79,0
113280,note_on,0,0,1,,,,,,,,,,,,,,,0,,,67,0
113280,note_on,0,0,1,,,,,,,,,,,,,,,0,,,66,36
113280,note_on,0,0,1,,,,,,,,,,,,,,,0,,,75,36
113520,note_on,0,0,2,,,,,,,,,,,,,,,0,,,58,39
113520,set_tempo,480,1,0,,,,,,,,,,,,519481,,,,,,,
113520,note_on,240,0,2,,,,,,,,,,,,,,,0,,,59,0
113760,note_on,0,0,2,,,,,,,,,,,,,,,0,,,59,42
113760,note_on,240,0,2,,,,,,,,,,,,,,,0,,,58,0
114000,note_on,240,0,2,,,,,,,,,,,,,,,0,,,59,0
114000,note_on,0,0,2,,,,,,,,,,,,,,,0,,,60,44
114240,note_on,0,0,2,,,,,,,,,,,,,,,0,,,59,47
114240,note_on,240,0,2,,,,,,,,,,,,,,,0,,,60,0
114240,note_on,0,0,2,,,,,,,,,,,,,,,0,,,47,0
114240,note_on,0,0,1,,,,,,,,,,,,,,,0,,,75,0
114240,note_on,0,0,1,,,,,,,,,,,,,,,0,,,66,0
114240,set_tempo,720,1,0,,,,,,,,,,,,519481,,,,,,,
114240,note_on,960,0,1,,,,,,,,,,,,,,,0,,,78,0
114360,set_tempo,120,1,0,,,,,,,,,,,,521739,,,,,,,
114480,note_on,240,0,2,,,,,,,,,,,,,,,0,,,59,0
114480,set_tempo,120,1,0,,,,,,,,,,,,524017,,,,,,,
114480,note_on,0,0,2,,,,,,,,,,,,,,,0,,,57,44
114560,set_tempo,80,1,0,,,,,,,,,,,,526316,,,,,,,
114680,set_tempo,120,1,0,,,,,,,,,,,,528634,,,,,,,
114720,note_on,0,0,2,,,,,,,,,,,,,,,0,,,54,44
114720,note_on,240,0,2,,,,,,,,,,,,,,,0,,,57,0
114800,set_tempo,120,1,0,,,,,,,,,,,,530973,,,,,,,
114880,set_tempo,80,1,0,,,,,,,,,,,,533333,,,,,,,
114960,note_on,0,0,2,,,,,,,,,,,,,,,0,,,51,43
114960,note_on,240,0,2,,,,,,,,,,,,,,,0,,,54,0
115200,note_on,0,0,1,,,,,,,,,,,,,,,0,,,69,46
115200,note_on,0,0,2,,,,,,,,,,,,,,,0,,,42,33
115200,note_on,240,0,2,,,,,,,,,,,,,,,0,,,51,0
115200,set_tempo,320,1,0,,,,,,,,,,,,524017,,,,,,,
115200,note_on,960,0,1,,,,,,,,,,,,,,,0,,,57,39
115440,note_on,0,0,2,,,,,,,,,,,,,,,0,,,43,36
115440,note_on,240,0,2,,,,,,,,,,,,,,,0,,,42,0
115440,set_tempo,240,1,0,,,,,,,,,,,,510638,,,,,,,
115440,note_on,240,0,1,,,,,,,,,,,,,,,0,,,69,0
115440,note_on,0,0,1,,,,,,,,,,,,,,,0,,,57,0
115440,note_on,0,0,1,,,,,,,,,,,,,,,0,,,71,49
115440,note_on,0,0,1,,,,,,,,,,,,,,,0,,,59,41
115680,note_on,0,0,1,,,,,,,,,,,,,,,0,,,72,51
115680,note_on,0,0,2,,,,,,,,,,,,,,,0,,,45,33
115680,note_on,0,0,2,,,,,,,,,,,,,,,0,,,47,39
115680,note_on,240,0,2,,,,,,,,,,,,,,,0,,,43,0
115680,note_on,240,0,1,,,,,,,,,,,,,,,0,,,71,0
115680,note_on,0,0,1,,,,,,,,,,,,,,,0,,,59,0
115680,note_on,0,0,1,,,,,,,,,,,,,,,0,,,60,51
115920,note_on,0,0,2,,,,,,,,,,,,,,,0,,,42,29
115920,note_on,0,0,2,,,,,,,,,,,,,,,0,,,47,35
115920,note_on,0,0,2,,,,,,,,,,,,,,,0,,,47,0
115920,note_on,240,0,2,,,,,,,,,,,,,,,0,,,45,0
115920,set_tempo,480,1,0,,,,,,,,,,,,526316,,,,,,,
115920,note_on,240,0,1,,,,,,,,,,,,,,,0,,,72,0
115920,note_on,0,0,1,,,,,,,,,,,,,,,0,,,60,0
115920,note_on,0,0,1,,,,,,,,,,,,,,,0,,,57,39
115920,note_on,0,0,1,,,,,,,,,,,,,,,0,,,69,46
116160,note_on,240,0,1,,,,,,,,,,,,,,,0,,,69,0
116160,note_on,0,0,2,,,,,,,,,,,,,,,0,,,40,33
116160,note_on,0,0,1,,,,,,,,,,,,,,,0,,,57,0
116160,note_on,0,0,2,,,,,,,,,,,,,,,0,,,47,0
116160,note_on,240,0,2,,,,,,,,,,,,,,,0,,,42,0
116160,note_on,0,0,1,,,,,,,,,,,,,,,0,,,55,37
116160,note_on,0,0,1,,,,,,,,,,,,,,,0,,,67,45
116400,note_on,0,0,1,,,,,,,,,,,,,,,0,,,55,0
116400,note_on,0,0,1,,,,,,,,,,,,,,,0,,,58,39
116400,note_on,0,0,1,,,,,,,,,,,,,,,0,,,70,46
116400,set_tempo,480,1,0,,,,,,,,,,,,515021,,,,,,,
116400,note_on,240,0,2,,,,,,,,,,,,,,,0,,,40,0
116400,note_on,0,0,2,,,,,,,,,,,,,,,0,,,42,36
116400,note_on,240,0,1,,,,,,,,,,,,,,,0,,,67,0
116640,note_on,240,0,2,,,,,,,,,,,,,,,0,,,42,0
116640,note_on,0,0,2,,,,,,,,,,,,,,,0,,,47,41
116640,note_on,0,0,2,,,,,,,,,,,,,,,0,,,43,34
116640,note_on,0,0,1,,,,,,,,,,,,,,,0,,,71,49
116640,note_on,0,0,1,,,,,,,,,,,,,,,0,,,59,41
116640,note_on,0,0,1,,,,,,,,,,,,,,,0,,,58,0
116640,note_on,240,0,1,,,,,,,,,,,,,,,0,,,70,0
116880,note_on,0,0,1,,,,,,,,,,,,,,,0,,,55,37
116880,note_on,240,0,1,,,,,,,,,,,,,,,0,,,71,0
116880,note_on,0,0,1,,,,,,,,,,,,,,,0,,,67,45
116880,note_on,0,0,1,,,,,,,,,,,,,,,0,,,59,0
116880,set_tempo,480,1,0,,,,,,,,,,,,533333,,,,,,,
116880,note_on,0,0,2,,,,,,,,,,,,,,,0,,,47,0
116880,note_on,0,0,2,,,,,,,,,,,,,,,0,,,47,36
116880,note_on,0,0,2,,,,,,,,,,,,,,,0,,,40,30
116880,note_on,240,0,2,,,,,,,,,,,,,,,0,,,43,0
117120,note_on,0,0,1,,,,,,,,,,,,,,,0,,,63,36
117120,note_on,0,0,1,,,,,,,,,,,,,,,0,,,54,36
117120,note_on,240,0,1,,,,,,,,,,,,,,,0,,,67,0
117120,note_on,0,0,1,,,,,,,,,,,,,,,0,,,55,0
117120,note_on,0,0,2,,,,,,,,,,,,,,,0,,,47,43
117120,note_on,0,0,2,,,,,,,,,,,,,,,0,,,35,43
117120,note_on,0,0,2,,,,,,,,,,,,,,,0,,,47,0
117120,note_on,240,0,2,,,,,,,,,,,,,,,0,,,40,0
117120,note_on,0,0,1,,,,,,,,,,,,,,,0,,,66,43
117360,set_tempo,480,1,0,,,,,,,,,,,,519481,,,,,,,
117600,note_on,0,0,2,,,,,,,,,,,,,,,0,,,35,0
117600,note_on,0,0,2,,,,,,,,,,,,,,,0,,,35,36
117600,note_on,0,0,2,,,,,,,,,,,,,,,0,,,47,36
117600,note_on,480,0,2,,,,,,,,,,,,,,,0,,,47,0
117840,note_on,0,0,2,,,,,,,,,,,,,,,0,,,35,0
117840,note_on,0,0,2,,,,,,,,,,,,,,,0,,,35,36
117840,note_on,240,0,2,,,,,,,,,,,,,,,0,,,47,0
117840,note_on,0,0,2,,,,,,,,,,,,,,,0,,,47,36
118080,note_on,240,0,2,,,,,,,,,,,,,,,0,,,47,0
118080,note_on,0,0,2,,,,,,,,,,,,,,,0,,,35,0
118080,note_on,0,0,2,,,,,,,,,,,,,,,0,,,35,43
118080,note_on,0,0,2,,,,,,,,,,,,,,,0,,,47,43
118080,note_on,0,0,1,,,,,,,,,,,,,,,0,,,54,0
118080,note_on,0,0,1,,,,,,,,,,,,,,,0,,,63,0
118080,note_on,960,0,1,,,,,,,,,,,,,,,0,,,66,0
118320,note_on,240,0,1,,,,,,,,,,,,,,,0,,,62,40
118320,set_tempo,960,1,0,,,,,,,,,,,,526316,,,,,,,
118320,note_on,0,0,1,,,,,,,,,,,,,,,0,,,66,40
118560,note_on,0,0,1,,,,,,,,,,,,,,,0,,,61,42
118560,note_on,480,0,2,,,,,,,,,,,,,,,0,,,47,0
118560,note_on,0,0,1,,,,,,,,,,,,,,,0,,,66,42
118560,note_on,0,0,2,,,,,,,,,,,,,,,0,,,47,36
118560,note_on,0,0,2,,,,,,,,,,,,,,,0,,,35,36
118560,note_on,0,0,2,,,,,,,,,,,,,,,0,,,35,0
118560,note_on,240,0,1,,,,,,,,,,,,,,,0,,,66,0
118560,note_on,0,0,1,,,,,,,,,,,,,,,0,,,64,42
118560,note_on,0,0,1,,,,,,,,,,,,,,,0,,,62,0
118800,note_on,240,0,1,,,,,,,,,,,,,,,0,,,66,0
118800,note_on,0,0,1,,,,,,,,,,,,,,,0,,,64,0
118800,note_on,0,0,1,,,,,,,,,,,,,,,0,,,61,0
118800,note_on,0,0,1,,,,,,,,,,,,,,,0,,,59,44
118800,note_on,0,0,1,,,,,,,,,,,,,,,0,,,62,44
118800,note_on,0,0,1,,,,,,,,,,,,,,,0,,,66,44
118800,note_on,0,0,2,,,,,,,,,,,,,,,0,,,35,37
118800,note_on,0,0,2,,,,,,,,,,,,,,,0,,,47,37
118800,note_on,0,0,2,,,,,,,,,,,,,,,0,,,35,0
118800,note_on,240,0,2,,,,,,,,,,,,,,,0,,,47,0
119040,note_on,0,0,2,,,,,,,,,,,,,,,0,,,35,43
119040,note_on,0,0,2,,,,,,,,,,,,,,,0,,,35,0
119040,note_on,240,0,2,,,,,,,,,,,,,,,0,,,47,0
119040,set_tempo,720,1,0,,,,,,,,,,,,519481,,,,,,,
119040,note_on,0,0,1,,,,,,,,,,,,,,,0,,,56,45
119040,note_on,240,0,1,,,,,,,,,,,,,,,0,,,66,0
119040,note_on,0,0,1,,,,,,,,,,,,,,,0,,,59,0
119040,note_on,0,0,2,,,,,,,,,,,,,,,0,,,47,43
119040,note_on,0,0,1,,,,,,,,,,,,,,,0,,,66,45
119040,note_on,0,0,1,,,,,,,,,,,,,,,0,,,62,0
119280,set_tempo,240,1,0,,,,,,,,,,,,545455,,,,,,,
119280,note_on,240,0,2,,,,,,,,,,,,,,,0,,,47,0
119280,note_on,0,0,2,,,,,,,,,,,,,,,0,,,35,0
119280,note_on,0,0,2,,,,,,,,,,,,,,,0,,,38,36
119280,note_on,0,0,2,,,,,,,,,,,,,,,0,,,50,36
119520,note_on,0,0,1,,,,,,,,,,,,,,,0,,,65,44
119520,set_tempo,240,1,0,,,,,,,,,,,,519481,,,,,,,
119520,note_on,240,0,2,,,,,,,,,,,,,,,0,,,50,0
119520,note_on,0,0,2,,,,,,,,,,,,,,,0,,,38,0
119520,note_on,0,0,2,,,,,,,,,,,,,,,0,,,37,36
119520,note_on,480,0,1,,,,,,,,,,,,,,,0,,,66,0
119520,note_on,0,0,2,,,,,,,,,,,,,,,0,,,49,36
119760,note_on,240,0,1,,,,,,,,,,,,,,,0,,,65,0
119760,note_on,0,0,1,,,,,,,,,,,,,,,0,,,66,45
119760,note_on,0,0,1,,,,,,,,,,,,,,,0,,,61,45
119760,note_on,0,0,1,,,,,,,,,,,,,,,0,,,57,45
119760,note_on,0,0,1,,,,,,,,,,,,,,,0,,,56,0
120000,note_on,0,0,1,,,,,,,,,,,,,,,0,,,68,47
120000,note_on,0,0,1,,,,,,,,,,,,,,,0,,,65,47
120000,note_on,0,0,1,,,,,,,,,,,,,,,0,,,61,47
120000,note_on,0,0,1,,,,,,,,,,,,,,,0,,,57,0
120000,note_on,0,0,1,,,,,,,,,,,,,,,0,,,61,0
120000,note_on,240,0,1,,,,,,,,,,,,,,,0,,,66,0
120240,note_on,720,0,2,,,,,,,,,,,,,,,0,,,49,0
120240,note_on,0,0,2,,,,,,,,,,,,,,,0,,,47,36
120240,note_on,0,0,2,,,,,,,,,,,,,,,0,,,35,36
120240,note_on,0,0,2,,,,,,,,,,,,,,,0,,,37,0
120480,note_on,0,0,2,,,,,,,,,,,,,,,0,,,45,36
120480,note_on,0,0,1,,,,,,,,,,,,,,,0,,,69,47
120480,note_on,0,0,1,,,,,,,,,,,,,,,0,,,61,0
120480,note_on,0,0,2,,,,,,,,,,,,,,,0,,,33,36
120480,note_on,0,0,2,,,,,,,,,,,,,,,0,,,35,0
120480,note_on,240,0,2,,,,,,,,,,,,,,,0,,,47,0
120480,note_on,480,0,1,,,,,,,,,,,,,,,0,,,68,0
120480,note_on,0,0,1,,,,,,,,,,,,,,,0,,,65,0
120480,note_on,0,0,1,,,,,,,,,,,,,,,0,,,66,47
120480,note_on,0,0,1,,,,,,,,,,,,,,,0,,,61,47
120720,note_on,240,0,1,,,,,,,,,,,,,,,0,,,69,0
120720,note_on,0,0,1,,,,,,,,,,,,,,,0,,,61,0
120720,note_on,0,0,1,,,,,,,,,,,,,,,0,,,61,47
120720,note_on,0,0,2,,,,,,,,,,,,,,,0,,,33,0
120720,note_on,0,0,2,,,,,,,,,,,,,,,0,,,32,36
120720,note_on,0,0,2,,,,,,,,,,,,,,,0,,,44,36
120720,note_on,240,0,2,,,,,,,,,,,,,,,0,,,45,0
120720,set_tempo,1200,1,0,,,,,,,,,,,,547945,,,,,,,
120720,note_on,0,0,1,,,,,,,,,,,,,,,0,,,65,47
120720,note_on,0,0,1,,,,,,,,,,,,,,,0,,,73,47
120720,note_on,0,0,1,,,,,,,,,,,,,,,0,,,66,0
120960,set_tempo,240,1,0,,,,,,,,,,,,519481,,,,,,,
120960,note_on,240,0,2,,,,,,,,,,,,,,,0,,,44,0
120960,note_on,0,0,1,,,,,,,,,,,,,,,0,,,71,51
120960,note_on,0,0,1,,,,,,,,,,,,,,,0,,,66,51
120960,note_on,0,0,1,,,,,,,,,,,,,,,0,,,61,51
120960,note_on,0,0,1,,,,,,,,,,,,,,,0,,,61,0
120960,note_on,0,0,1,,,,,,,,,,,,,,,0,,,65,0
120960,note_on,240,0,1,,,,,,,,,,,,,,,0,,,73,0
120960,note_on,0,0,2,,,,,,,,,,,,,,,0,,,32,0
120960,note_on,0,0,2,,,,,,,,,,,,,,,0,,,30,40
120960,note_on,0,0,2,,,,,,,,,,,,,,,0,,,42,40
121440,set_tempo,480,1,0,,,,,,,,,,,,526316,,,,,,,
121440,note_on,0,0,1,,,,,,,,,,,,,,,0,,,69,45
121440,note_on,480,0,1,,,,,,,,,,,,,,,0,,,71,0
121680,note_on,0,0,1,,,,,,,,,,,,,,,0,,,59,45
121680,note_on,0,0,1,,,,,,,,,,,,,,,0,,,61,0
121680,note_on,0,0,1,,,,,,,,,,,,,,,0,,,68,45
121680,note_on,0,0,1,,,,,,,,,,,,,,,0,,,61,45
121680,note_on,240,0,1,,,,,,,,,,,,,,,0,,,69,0
121680,note_on,0,0,1,,,,,,,,,,,,,,,0,,,66,0
121920,note_on,0,0,1,,,,,,,,,,,,,,,0,,,59,0
121920,note_on,0,0,1,,,,,,,,,,,,,,,0,,,57,49
121920,note_on,0,0,1,,,,,,,,,,,,,,,0,,,61,49
121920,note_on,0,0,1,,,,,,,,,,,,,,,0,,,66,49
121920,note_on,0,0,1,,,,,,,,,,,,,,,0,,,61,0
121920,set_tempo,480,1,0,,,,,,,,,,,,519481,,,,,,,
121920,note_on,240,0,1,,,,,,,,,,,,,,,0,,,68,0
122160,note_on,0,0,2,,,,,,,,,,,,,,,0,,,32,36
122160,note_on,0,0,2,,,,,,,,,,,,,,,0,,,30,0
122160,note_on,1200,0,2,,,,,,,,,,,,,,,0,,,42,0
122160,note_on,0,0,2,,,,,,,,,,,,,,,0,,,44,36
122400,note_on,240,0,2,,,,,,,,,,,,,,,0,,,44,0
122400,note_on,0,0,2,,,,,,,,,,,,,,,0,,,32,0
122400,note_on,0,0,2,,,,,,,,,,,,,,,0,,,45,36
122400,note_on,0,0,2,,,,,,,,,,,,,,,0,,,33,36
122640,set_tempo,720,1,0,,,,,,,,,,,,538117,,,,,,,
122640,note_on,0,0,2,,,,,,,,,,,,,,,0,,,46,36
122640,note_on,0,0,2,,,,,,,,,,,,,,,0,,,34,36
122640,note_on,0,0,2,,,,,,,,,,,,,,,0,,,33,0
122640,note_on,240,0,2,,,,,,,,,,,,,,,0,,,45,0
122640,note_on,0,0,1,,,,,,,,,,,,,,,0,,,64,45
122640,note_on,0,0,1,,,,,,,,,,,,,,,0,,,56,45
122640,note_on,0,0,1,,,,,,,,,,,,,,,0,,,61,0
122640,note_on,720,0,1,,,,,,,,,,,,,,,0,,,66,0
122640,note_on,0,0,1,,,,,,,,,,,,,,,0,,,57,0
122880,note_on,0,0,1,,,,,,,,,,,,,,,0,,,56,0
122880,note_on,0,0,2,,,,,,,,,,,,,,,0,,,34,0
122880,note_on,0,0,2,,,,,,,,,,,,,,,0,,,34,43
122880,note_on,0,0,1,,,,,,,,,,,,,,,0,,,64,46
122880,note_on,0,0,1,,,,,,,,,,,,,,,0,,,54,46
122880,note_on,240,0,1,,,,,,,,,,,,,,,0,,,64,0
122880,note_on,0,0,2,,,,,,,,,,,,,,,0,,,46,43
122880,note_on,240,0,2,,,,,,,,,,,,,,,0,,,46,0
122880,set_tempo,240,1,0,,,,,,,,,,,,519481,,,,,,,
123120,note_on,0,0,2,,,,,,,,,,,,,,,0,,,34,0
123120,note_on,0,0,2,,,,,,,,,,,,,,,0,,,37,35
123120,note_on,0,0,2,,,,,,,,,,,,,,,0,,,49,35
123120,note_on,240,0,2,,,,,,,,,,,,,,,0,,,46,0
123360,note_on,240,0,2,,,,,,,,,,,,,,,0,,,49,0
123360,note_on,0,0,2,,,,,,,,,,,,,,,0,,,37,0
123360,note_on,0,0,2,,,,,,,,,,,,,,,0,,,35,35
123360,note_on,0,0,1,,,,,,,,,,,,,,,0,,,63,45
123360,note_on,480,0,1,,,,,,,,,,,,,,,0,,,64,0
123360,note_on,0,0,2,,,,,,,,,,,,,,,0,,,47,35
123360,set_tempo,480,1,0,,,,,,,,,,,,528634,,,,,,,
123600,note_on,0,0,1,,,,,,,,,,,,,,,0,,,64,45
123600,note_on,0,0,1,,,,,,,,,,,,,,,0,,,56,45
123600,note_on,0,0,1,,,,,,,,,,,,,,,0,,,54,0
123600,note_on,240,0,1,,,,,,,,,,,,,,,0,,,63,0
123600,note_on,0,0,1,,,,,,,,,,,,,,,0,,,59,45
123840,note_on,0,0,1,,,,,,,,,,,,,,,0,,,56,0
123840,note_on,0,0,1,,,,,,,,,,,,,,,0,,,63,49
123840,note_on,0,0,1,,,,,,,,,,,,,,,0,,,59,49
123840,note_on,0,0,1,,,,,,,,,,,,,,,0,,,59,0
123840,note_on,240,0,1,,,,,,,,,,,,,,,0,,,64,0
123840,note_on,0,0,1,,,,,,,,,,,,,,,0,,,66,49
124080,note_on,0,0,2,,,,,,,,,,,,,,,0,,,35,0
124080,note_on,720,0,2,,,,,,,,,,,,,,,0,,,47,0
124080,note_on,0,0,2,,,,,,,,,,,,,,,0,,,45,35
124080,note_on,0,0,2,,,,,,,,,,,,,,,0,,,33,35
124320,note_on,0,0,1,,,,,,,,,,,,,,,0,,,68,43
124320,note_on,0,0,1,,,,,,,,,,,,,,,0,,,64,43
124320,note_on,0,0,1,,,,,,,,,,,,,,,0,,,59,43
124320,note_on,0,0,2,,,,,,,,,,,,,,,0,,,44,36
124320,note_on,0,0,2,,,,,,,,,,,,,,,0,,,32,36
124320,note_on,0,0,2,,,,,,,,,,,,,,,0,,,33,0
124320,note_on,240,0,2,,,,,,,,,,,,,,,0,,,45,0
124320,note_on,0,0,1,,,,,,,,,,,,,,,0,,,59,0
124320,set_tempo,960,1,0,,,,,,,,,,,,519481,,,,,,,
124320,note_on,0,0,1,,,,,,,,,,,,,,,0,,,63,0
124320,note_on,480,0,1,,,,,,,,,,,,,,,0,,,66,0
124560,note_on,0,0,1,,,,,,,,,,,,,,,0,,,63,43
124560,note_on,0,0,1,,,,,,,,,,,,,,,0,,,64,0
124560,note_on,240,0,1,,,,,,,,,,,,,,,0,,,68,0
124560,note_on,0,0,1,,,,,,,,,,,,,,,0,,,59,43
124560,note_on,0,0,1,,,,,,,,,,,,,,,0,,,59,0
124560,note_on,240,0,2,,,,,,,,,,,,,,,0,,,44,0
124560,note_on,0,0,1,,,,,,,,,,,,,,,0,,,71,43
124560,note_on,0,0,2,,,,,,,,,,,,,,,0,,,32,0
124560,note_on,0,0,2,,,,,,,,,,,,,,,0,,,30,36
124560,note_on,0,0,2,,,,,,,,,,,,,,,0,,,42,36
124800,set_tempo,480,1,0,,,,,,,,,,,,526316,,,,,,,
124800,note_on,0,0,2,,,,,,,,,,,,,,,0,,,40,37
124800,note_on,240,0,2,,,,,,,,,,,,,,,0,,,42,0
124800,note_on,0,0,1,,,,,,,,,,,,,,,0,,,64,47
124800,note_on,0,0,2,,,,,,,,,,,,,,,0,,,30,0
124800,note_on,0,0,1,,,,,,,,,,,,,,,0,,,59,0
124800,note_on,0,0,1,,,,,,,,,,,,,,,0,,,59,47
124800,note_on,240,0,1,,,,,,,,,,,,,,,0,,,71,0
124800,note_on,0,0,1,,,,,,,,,,,,,,,0,,,69,47
124800,note_on,0,0,1,,,,,,,,,,,,,,,0,,,63,0
125280,note_on,0,0,1,,,,,,,,,,,,,,,0,,,68,39
125280,set_tempo,480,1,0,,,,,,,,,,,,533333,,,,,,,
125280,note_on,480,0,1,,,,,,,,,,,,,,,0,,,69,0
125520,note_on,0,0,1,,,,,,,,,,,,,,,0,,,66,37
125520,note_on,0,0,1,,,,,,,,,,,,,,,0,,,59,37
125520,note_on,0,0,1,,,,,,,,,,,,,,,0,,,57,37
125520,note_on,0,0,1,,,,,,,,,,,,,,,0,,,59,0
125520,note_on,0,0,1,,,,,,,,,,,,,,,0,,,64,0
125520,note_on,240,0,1,,,,,,,,,,,,,,,0,,,68,0
125760,set_tempo,480,1,0,,,,,,,,,,,,550459,,,,,,,
125760,note_on,0,0,1,,,,,,,,,,,,,,,0,,,59,0
125760,note_on,240,0,1,,,,,,,,,,,,,,,0,,,66,0
125760,note_on,0,0,1,,,,,,,,,,,,,,,0,,,64,43
125760,note_on,0,0,1,,,,,,,,,,,,,,,0,,,57,0
125760,note_on,0,0,1,,,,,,,,,,,,,,,0,,,56,43
125760,note_on,0,0,1,,,,,,,,,,,,,,,0,,,59,43
126240,set_tempo,480,1,0,,,,,,,,,,,,588235,,,,,,,
126240,note_on,480,0,1,,,,,,,,,,,,,,,0,,,64,0
126240,note_on,0,0,1,,,,,,,,,,,,,,,0,,,59,0
126240,note_on,0,0,1,,,,,,,,,,,,,,,0,,,56,36
126240,note_on,0,0,1,,,,,,,,,,,,,,,0,,,64,36
126240,note_on,0,0,1,,,,,,,,,,,,,,,0,,,59,36
126240,note_on,0,0,1,,,,,,,,,,,,,,,0,,,56,0
126240,note_on,0,0,2,,,,,,,,,,,,,,,0,,,38,34
126240,note_on,1440,0,2,,,,,,,,,,,,,,,0,,,40,0
126720,set_tempo,480,1,0,,,,,,,,,,,,466926,,,,,,,
126720,note_on,480,0,1,,,,,,,,,,,,,,,0,,,64,0
126720,note_on,0,0,1,,,,,,,,,,,,,,,0,,,59,0
126720,note_on,0,0,1,,,,,,,,,,,,,,,0,,,56,0
126720,note_on,0,0,1,,,,,,,,,,,,,,,0,,,60,30
126720,note_on,480,0,2,,,,,,,,,,,,,,,0,,,38,0
126720,note_on,0,0,1,,,,,,,,,,,,,,,0,,,64,36
126720,note_on,0,0,2,,,,,,,,,,,,,,,0,,,36,31
126762,control_change,42,0,2,,,,,,,,,,,,,,,0,64,127,,
126800,set_tempo,80,1,0,,,,,,,,,,,,465116,,,,,,,
126840,note_on,0,0,2,,,,,,,,,,,,,,,0,,,43,27
126840,note_on,78,0,2,,,,,,,,,,,,,,,0,,,36,0
126840,note_on,0,0,1,,,,,,,,,,,,,,,0,,,60,0
126840,note_on,120,0,1,,,,,,,,,,,,,,,0,,,64,0
126840,note_on,0,0,1,,,,,,,,,,,,,,,0,,,55,30
126880,set_tempo,80,1,0,,,,,,,,,,,,463320,,,,,,,
126960,note_on,0,0,1,,,,,,,,,,,,,,,0,,,60,31
126960,note_on,0,0,1,,,,,,,,,,,,,,,0,,,64,36
126960,note_on,0,0,2,,,,,,,,,,,,,,,0,,,36,32
126960,note_on,120,0,2,,,,,,,,,,,,,,,0,,,43,0
126960,set_tempo,80,1,0,,,,,,,,,,,,461538,,,,,,,
126960,note_on,120,0,1,,,,,,,,,,,,,,,0,,,55,0
127040,set_tempo,80,1,0,,,,,,,,,,,,459770,,,,,,,
127080,note_on,0,0,2,,,,,,,,,,,,,,,0,,,43,29
127080,note_on,0,0,1,,,,,,,,,,,,,,,0,,,55,32
127080,note_on,120,0,1,,,,,,,,,,,,,,,0,,,64,0
127080,note_on,120,0,2,,,,,,,,,,,,,,,0,,,36,0
127080,note_on,0,0,1,,,,,,,,,,,,,,,0,,,60,0
127120,set_tempo,80,1,0,,,,,,,,,,,,458015,,,,,,,
127200,note_on,0,0,1,,,,,,,,,,,,,,,0,,,64,38
127200,set_tempo,80,1,0,,,,,,,,,,,,456274,,,,,,,
127200,note_on,0,0,1,,,,,,,,,,,,,,,0,,,60,32
127200,note_on,120,0,2,,,,,,,,,,,,,,,0,,,43,0
127200,note_on,0,0,2,,,,,,,,,,,,,,,0,,,36,33
127200,note_on,120,0,1,,,,,,,,,,,,,,,0,,,55,0
127280,set_tempo,80,1,0,,,,,,,,,,,,454545,,,,,,,
127320,note_on,0,0,1,,,,,,,,,,,,,,,0,,,55,33
127320,note_on,0,0,1,,,,,,,,,,,,,,,0,,,60,0
127320,note_on,120,0,2,,,,,,,,,,,,,,,0,,,36,0
127320,note_on,0,0,2,,,,,,,,,,,,,,,0,,,43,30
127320,note_on,120,0,1,,,,,,,,,,,,,,,0,,,64,0
127360,set_tempo,80,1,0,,,,,,,,,,,,452830,,,,,,,
127400,set_tempo,40,1,0,,,,,,,,,,,,451128,,,,,,,
127440,note_on,0,0,2,,,,,,,,,,,,,,,0,,,36,35
127440,note_on,120,0,2,,,,,,,,,,,,,,,0,,,43,0
127440,note_on,0,0,1,,,,,,,,,,,,,,,0,,,64,40
127440,note_on,120,0,1,,,,,,,,,,,,,,,0,,,55,0
127440,note_on,0,0,1,,,,,,,,,,,,,,,0,,,60,34
127480,set_tempo,80,1,0,,,,,,,,,,,,449438,,,,,,,
127560,set_tempo,80,1,0,,,,,,,,,,,,447761,,,,,,,
127560,note_on,120,0,1,,,,,,,,,,,,,,,0,,,64,0
127560,note_on,0,0,1,,,,,,,,,,,,,,,0,,,60,0
127560,note_on,0,0,1,,,,,,,,,,,,,,,0,,,55,34
127560,note_on,120,0,2,,,,,,,,,,,,,,,0,,,36,0
127560,note_on,0,0,2,,,,,,,,,,,,,,,0,,,43,31
127640,set_tempo,80,1,0,,,,,,,,,,,,446097,,,,,,,
127680,note_on,120,0,2,,,,,,,,,,,,,,,0,,,43,0
127680,note_on,0,0,1,,,,,,,,,,,,,,,0,,,60,35
127680,note_on,120,0,1,,,,,,,,,,,,,,,0,,,55,0
127680,note_on,0,0,1,,,,,,,,,,,,,,,0,,,64,41
127680,note_on,0,0,2,,,,,,,,,,,,,,,0,,,36,36
127720,set_tempo,80,1,0,,,,,,,,,,,,444444,,,,,,,
127800,note_on,120,0,2,,,,,,,,,,,,,,,0,,,36,0
127800,note_on,0,0,1,,,,,,,,,,,,,,,0,,,55,34
127800,note_on,0,0,1,,,,,,,,,,,,,,,0,,,60,0
127800,note_on,0,0,2,,,,,,,,,,,,,,,0,,,43,31
127800,set_tempo,80,1,0,,,,,,,,,,,,442804,,,,,,,
127800,note_on,120,0,1,,,,,,,,,,,,,,,0,,,64,0
127880,set_tempo,80,1,0,,,,,,,,,,,,441176,,,,,,,
127920,note_on,0,0,2,,,,,,,,,,,,,,,0,,,36,38
127920,note_on,120,0,1,,,,,,,,,,,,,,,0,,,55,0
127920,note_on,0,0,1,,,,,,,,,,,,,,,0,,,64,44
127920,note_on,120,0,2,,,,,,,,,,,,,,,0,,,43,0
127920,note_on,0,0,1,,,,,,,,,,,,,,,0,,,60,36
127960,set_tempo,80,1,0,,,,,,,,,,,,439560,,,,,,,
128000,set_tempo,40,1,0,,,,,,,,,,,,437956,,,,,,,
128040,note_on,0,0,1,,,,,,,,,,,,,,,0,,,55,37
128040,note_on,0,0,1,,,,,,,,,,,,,,,0,,,60,0
128040,note_on,120,0,1,,,,,,,,,,,,,,,0,,,64,0
128040,note_on,120,0,2,,,,,,,,,,,,,,,0,,,36,0
128040,note_on,0,0,2,,,,,,,,,,,,,,,0,,,43,32
128080,set_tempo,80,1,0,,,,,,,,,,,,436364,,,,,,,
128160,note_on,0,0,2,,,,,,,,,,,,,,,0,,,36,39
128160,set_tempo,80,1,0,,,,,,,,,,,,434783,,,,,,,
128160,note_on,120,0,2,,,,,,,,,,,,,,,0,,,43,0
128160,note_on,120,0,1,,,,,,,,,,,,,,,0,,,55,0
128160,note_on,0,0,1,,,,,,,,,,,,,,,0,,,60,38
128160,note_on,0,0,1,,,,,,,,,,,,,,,0,,,64,46
128240,set_tempo,80,1,0,,,,,,,,,,,,433213,,,,,,,
128280,note_on,120,0,2,,,,,,,,,,,,,,,0,,,36,0
128280,note_on,0,0,1,,,,,,,,,,,,,,,0,,,55,37
128280,note_on,120,0,1,,,,,,,,,,,,,,,0,,,64,0
128280,note_on,0,0,2,,,,,,,,,,,,,,,0,,,43,34
128280,note_on,0,0,1,,,,,,,,,,,,,,,0,,,60,0
128320,set_tempo,80,1,0,,,,,,,,,,,,431655,,,,,,,
128400,note_on,0,0,2,,,,,,,,,,,,,,,0,,,36,41
128400,note_on,120,0,1,,,,,,,,,,,,,,,0,,,55,0
128400,note_on,120,0,2,,,,,,,,,,,,,,,0,,,43,0
128400,note_on,0,0,1,,,,,,,,,,,,,,,0,,,60,39
128400,note_on,0,0,1,,,,,,,,,,,,,,,0,,,64,46
128400,set_tempo,80,1,0,,,,,,,,,,,,430108,,,,,,,
128480,set_tempo,80,1,0,,,,,,,,,,,,428571,,,,,,,
128520,note_on,120,0,1,,,,,,,,,,,,,,,0,,,64,0
128520,note_on,120,0,2,,,,,,,,,,,,,,,0,,,36,0
128520,note_on,0,0,2,,,,,,,,,,,,,,,0,,,43,36
128520,note_on,0,0,1,,,,,,,,,,,,,,,0,,,60,0
128520,note_on,0,0,1,,,,,,,,,,,,,,,0,,,55,40
128560,set_tempo,80,1,0,,,,,,,,,,,,427046,,,,,,,
128600,set_tempo,40,1,0,,,,,,,,,,,,425532,,,,,,,
128640,note_on,120,0,1,,,,,,,,,,,,,,,0,,,55,0
128640,set_tempo,40,1,0,,,,,,,,,,,,427046,,,,,,,
128640,control_change,0,0,2,,,,,,,,,,,,,,,0,64,0,,
128640,note_on,120,0,2,,,,,,,,,,,,,,,0,,,43,0
128640,note_on,0,0,1,,,,,,,,,,,,,,,0,,,67,49
128640,note_on,0,0,1,,,,,,,,,,,,,,,0,,,64,41
128640,note_on,0,0,2,,,,,,,,,,,,,,,0,,,36,42
128680,set_tempo,40,1,0,,,,,,,,,,,,424028,,,,,,,
128689,control_change,49,0,2,,,,,,,,,,,,,,,0,64,127,,
128760,note_on,120,0,1,,,,,,,,,,,,,,,0,,,67,0
128760,note_on,0,0,1,,,,,,,,,,,,,,,0,,,64,0
128760,note_on,0,0,1,,,,,,,,,,,,,,,0,,,60,41
128760,note_on,0,0,2,,,,,,,,,,,,,,,0,,,43,38
128760,note_on,71,0,2,,,,,,,,,,,,,,,0,,,36,0
128800,set_tempo,120,1,0,,,,,,,,,,,,422535,,,,,,,
128880,note_on,0,0,1,,,,,,,,,,,,,,,0,,,67,50
128880,note_on,120,0,2,,,,,,,,,,,,,,,0,,,43,0
128880,note_on,0,0,2,,,,,,,,,,,,,,,0,,,36,43
128880,note_on,0,0,1,,,,,,,,,,,,,,,0,,,64,42
128880,note_on,120,0,1,,,,,,,,,,,,,,,0,,,60,0
128920,set_tempo,120,1,0,,,,,,,,,,,,421053,,,,,,,
129000,note_on,120,0,1,,,,,,,,,,,,,,,0,,,67,0
129000,note_on,0,0,1,,,,,,,,,,,,,,,0,,,60,43
129000,note_on,0,0,1,,,,,,,,,,,,,,,0,,,64,0
129000,note_on,120,0,2,,,,,,,,,,,,,,,0,,,36,0
129000,note_on,0,0,2,,,,,,,,,,,,,,,0,,,43,39
129040,set_tempo,120,1,0,,,,,,,,,,,,419580,,,,,,,
129120,note_on,120,0,2,,,,,,,,,,,,,,,0,,,43,0
129120,note_on,120,0,1,,,,,,,,,,,,,,,0,,,60,0
129120,note_on,0,0,1,,,,,,,,,,,,,,,0,,,67,52
129120,note_on,0,0,1,,,,,,,,,,,,,,,0,,,64,44
129120,note_on,0,0,2,,,,,,,,,,,,,,,0,,,36,46
129160,set_tempo,120,1,0,,,,,,,,,,,,418118,,,,,,,
129240,note_on,0,0,2,,,,,,,,,,,,,,,0,,,43,41
129240,note_on,120,0,1,,,,,,,,,,,,,,,0,,,67,0
129240,note_on,120,0,2,,,,,,,,,,,,,,,0,,,36,0
129240,set_tempo,80,1,0,,,,,,,,,,,,416667,,,,,,,
129240,note_on,0,0,1,,,,,,,,,,,,,,,0,,,64,0
129240,note_on,0,0,1,,,,,,,,,,,,,,,0,,,60,44
129360,note_on,0,0,1,,,,,,,,,,,,,,,0,,,67,54
129360,note_on,120,0,1,,,,,,,,,,,,,,,0,,,60,0
129360,note_on,0,0,1,,,,,,,,,,,,,,,0,,,64,46
129360,note_on,0,0,2,,,,,,,,,,,,,,,0,,,36,47
129360,note_on,120,0,2,,,,,,,,,,,,,,,0,,,43,0
129360,set_tempo,120,1,0,,,,,,,,,,,,415225,,,,,,,
129480,note_on,0,0,1,,,,,,,,,,,,,,,0,,,60,44
129480,note_on,120,0,2,,,,,,,,,,,,,,,0,,,36,0
129480,note_on,120,0,1,,,,,,,,,,,,,,,0,,,67,0
129480,note_on,0,0,1,,,,,,,,,,,,,,,0,,,64,0
129480,set_tempo,120,1,0,,,,,,,,,,,,413793,,,,,,,
129480,note_on,0,0,2,,,,,,,,,,,,,,,0,,,43,41
129600,note_on,0,0,2,,,,,,,,,,,,,,,0,,,36,49
129600,set_tempo,120,1,0,,,,,,,,,,,,412371,,,,,,,
129600,note_on,120,0,1,,,,,,,,,,,,,,,0,,,60,0
129600,note_on,0,0,1,,,,,,,,,,,,,,,0,,,67,48
129600,note_on,0,0,1,,,,,,,,,,,,,,,0,,,72,57
129600,note_on,120,0,2,,,,,,,,,,,,,,,0,,,43,0
129680,set_tempo,80,1,0,,,,,,,,,,,,410959,,,,,,,
129720,note_on,0,0,2,,,,,,,,,,,,,,,0,,,43,44
129720,note_on,120,0,2,,,,,,,,,,,,,,,0,,,36,0
129720,note_on,120,0,1,,,,,,,,,,,,,,,0,,,72,0
129720,note_on,0,0,1,,,,,,,,,,,,,,,0,,,67,0
129720,note_on,0,0,1,,,,,,,,,,,,,,,0,,,64,48
129800,set_tempo,120,1,0,,,,,,,,,,,,409556,,,,,,,
129840,note_on,0,0,1,,,,,,,,,,,,,,,0,,,67,49
129840,note_on,120,0,1,,,,,,,,,,,,,,,0,,,64,0
129840,note_on,0,0,2,,,,,,,,,,,,,,,0,,,36,50
129840,note_on,0,0,1,,,,,,,,,,,,,,,0,,,72,57
129840,note_on,120,0,2,,,,,,,,,,,,,,,0,,,43,0
129920,set_tempo,120,1,0,,,,,,,,,,,,408163,,,,,,,
129960,note_on,0,0,2,,,,,,,,,,,,,,,0,,,43,43
129960,note_on,120,0,1,,,,,,,,,,,,,,,0,,,72,0
129960,note_on,120,0,2,,,,,,,,,,,,,,,0,,,36,0
129960,note_on,0,0,1,,,,,,,,,,,,,,,0,,,67,0
129960,note_on,0,0,1,,,,,,,,,,,,,,,0,,,64,48
130040,set_tempo,120,1,0,,,,,,,,,,,,406780,,,,,,,
130080,note_on,0,0,1,,,,,,,,,,,,,,,0,,,72,59
130080,note_on,120,0,1,,,,,,,,,,,,,,,0,,,64,0
130080,note_on,0,0,1,,,,,,,,,,,,,,,0,,,67,50
130080,note_on,120,0,2,,,,,,,,,,,,,,,0,,,43,0
130080,note_on,0,0,2,,,,,,,,,,,,,,,0,,,36,52
130120,set_tempo,80,1,0,,,,,,,,,,,,405405,,,,,,,
130200,note_on,0,0,2,,,,,,,,,,,,,,,0,,,43,46
130200,note_on,0,0,1,,,,,,,,,,,,,,,0,,,64,49
130200,note_on,0,0,1,,,,,,,,,,,,,,,0,,,67,0
130200,note_on,120,0,1,,,,,,,,,,,,,,,0,,,72,0
130200,note_on,120,0,2,,,,,,,,,,,,,,,0,,,36,0
130240,set_tempo,120,1,0,,,,,,,,,,,,404040,,,,,,,
130320,note_on,0,0,1,,,,,,,,,,,,,,,0,,,72,61
130320,note_on,0,0,1,,,,,,,,,,,,,,,0,,,67,52
130320,note_on,120,0,1,,,,,,,,,,,,,,,0,,,64,0
130320,note_on,120,0,2,,,,,,,,,,,,,,,0,,,43,0
130320,note_on,0,0,2,,,,,,,,,,,,,,,0,,,36,53
130360,set_tempo,120,1,0,,,,,,,,,,,,402685,,,,,,,
130440,note_on,120,0,2,,,,,,,,,,,,,,,0,,,36,0
130440,note_on,0,0,2,,,,,,,,,,,,,,,0,,,43,45
130440,note_on,0,0,1,,,,,,,,,,,,,,,0,,,67,0
130440,note_on,0,0,1,,,,,,,,,,,,,,,0,,,64,51
130440,note_on,120,0,1,,,,,,,,,,,,,,,0,,,72,0
130480,set_tempo,120,1,0,,,,,,,,,,,,401338,,,,,,,
130560,control_change,0,0,2,,,,,,,,,,,,,,,0,64,0,,
130560,note_on,120,0,2,,,,,,,,,,,,,,,0,,,43,0
130560,note_on,0,0,2,,,,,,,,,,,,,,,0,,,36,55
130560,note_on,120,0,1,,,,,,,,,,,,,,,0,,,64,0
130560,set_tempo,80,1,0,,,,,,,,,,,,400000,,,,,,,
130560,note_on,0,0,1,,,,,,,,,,,,,,,0,,,72,53
130560,note_on,0,0,1,,,,,,,,,,,,,,,0,,,76,63
130631,control_change,71,0,2,,,,,,,,,,,,,,,0,64,127,,
130680,note_on,120,0,1,,,,,,,,,,,,,,,0,,,76,0
130680,note_on,0,0,1,,,,,,,,,,,,,,,0,,,72,0
130680,note_on,0,0,1,,,,,,,,,,,,,,,0,,,67,52
130680,note_on,0,0,2,,,,,,,,,,,,,,,0,,,43,49
130680,note_on,49,0,2,,,,,,,,,,,,,,,0,,,36,0
130760,set_tempo,200,1,0,,,,,,,,,,,,398671,,,,,,,
130800,note_on,0,0,2,,,,,,,,,,,,,,,0,,,36,57
130800,note_on,120,0,2,,,,,,,,,,,,,,,0,,,43,0
130800,note_on,120,0,1,,,,,,,,,,,,,,,0,,,67,0
130800,note_on,0,0,1,,,,,,,,,,,,,,,0,,,72,55
130800,note_on,0,0,1,,,,,,,,,,,,,,,0,,,76,65
130920,note_on,0,0,1,,,,,,,,,,,,,,,0,,,67,53
130920,note_on,0,0,1,,,,,,,,,,,,,,,0,,,72,0
130920,note_on,120,0,1,,,,,,,,,,,,,,,0,,,76,0
130920,note_on,120,0,2,,,,,,,,,,,,,,,0,,,36,0
130920,note_on,0,0,2,,,,,,,,,,,,,,,0,,,43,51
130960,set_tempo,200,1,0,,,,,,,,,,,,397351,,,,,,,
131040,note_on,120,0,2,,,,,,,,,,,,,,,0,,,43,0
131040,note_on,0,0,1,,,,,,,,,,,,,,,0,,,79,67
131040,note_on,0,0,1,,,,,,,,,,,,,,,0,,,76,57
131040,note_on,120,0,1,,,,,,,,,,,,,,,0,,,67,0
131040,note_on,0,0,2,,,,,,,,,,,,,,,0,,,36,59
131120,set_tempo,160,1,0,,,,,,,,,,,,396040,,,,,,,
131160,note_on,0,0,2,,,,,,,,,,,,,,,0,,,43,52
131160,note_on,120,0,2,,,,,,,,,,,,,,,0,,,36,0
131160,note_on,0,0,1,,,,,,,,,,,,,,,0,,,76,0
131160,note_on,120,0,1,,,,,,,,,,,,,,,0,,,79,0
131160,note_on,0,0,1,,,,,,,,,,,,,,,0,,,72,56
131280,note_on,0,0,1,,,,,,,,,,,,,,,0,,,79,68
131280,note_on,0,0,1,,,,,,,,,,,,,,,0,,,76,58
131280,note_on,120,0,1,,,,,,,,,,,,,,,0,,,72,0
131280,note_on,120,0,2,,,,,,,,,,,,,,,0,,,43,0
131280,note_on,0,0,2,,,,,,,,,,,,,,,0,,,36,60
131320,set_tempo,200,1,0,,,,,,,,,,,,394737,,,,,,,
131400,note_on,120,0,2,,,,,,,,,,,,,,,0,,,36,0
131400,note_on,0,0,2,,,,,,,,,,,,,,,0,,,43,52
131400,note_on,0,0,1,,,,,,,,,,,,,,,0,,,76,0
131400,note_on,120,0,1,,,,,,,,,,,,,,,0,,,79,0
131400,note_on,0,0,1,,,,,,,,,,,,,,,0,,,72,57
131480,set_tempo,160,1,0,,,,,,,,,,,,393443,,,,,,,
131520,note_on,0,0,1,,,,,,,,,,,,,,,0,,,79,60
131520,note_on,0,0,1,,,,,,,,,,,,,,,0,,,84,71
131520,note_on,120,0,1,,,,,,,,,,,,,,,0,,,72,0
131520,note_on,120,0,2,,,,,,,,,,,,,,,0,,,43,0
131520,note_on,0,0,2,,,,,,,,,,,,,,,0,,,36,62
131640,note_on,120,0,2,,,,,,,,,,,,,,,0,,,36,0
131640,note_on,0,0,2,,,,,,,,,,,,,,,0,,,43,55
131640,note_on,120,0,1,,,,,,,,,,,,,,,0,,,79,0
131640,note_on,0,0,1,,,,,,,,,,,,,,,0,,,84,0
131640,note_on,0,0,1,,,,,,,,,,,,,,,0,,,76,59
131680,set_tempo,200,1,0,,,,,,,,,,,,392157,,,,,,,
131760,note_on,0,0,2,,,,,,,,,,,,,,,0,,,36,63
131760,note_on,120,0,2,,,,,,,,,,,,,,,0,,,43,0
131760,note_on,120,0,1,,,,,,,,,,,,,,,0,,,76,0
131760,note_on,0,0,1,,,,,,,,,,,,,,,0,,,79,61
131760,note_on,0,0,1,,,,,,,,,,,,,,,0,,,84,72
131840,set_tempo,160,1,0,,,,,,,,,,,,390879,,,,,,,
131880,note_on,120,0,2,,,,,,,,,,,,,,,0,,,36,0
131880,note_on,0,0,2,,,,,,,,,,,,,,,0,,,43,56
131880,note_on,0,0,1,,,,,,,,,,,,,,,0,,,79,0
131880,note_on,0,0,1,,,,,,,,,,,,,,,0,,,76,62
131880,note_on,120,0,1,,,,,,,,,,,,,,,0,,,84,0
132000,note_on,120,0,2,,,,,,,,,,,,,,,0,,,43,0
132000,note_on,0,0,2,,,,,,,,,,,,,,,0,,,36,65
132000,note_on,0,0,1,,,,,,,,,,,,,,,0,,,88,75
132000,note_on,0,0,1,,,,,,,,,,,,,,,0,,,84,63
132000,note_on,120,0,1,,,,,,,,,,,,,,,0,,,76,0
132040,set_tempo,200,1,0,,,,,,,,,,,,389610,,,,,,,
132120,note_on,120,0,1,,,,,,,,,,,,,,,0,,,84,0
132120,note_on,0,0,1,,,,,,,,,,,,,,,0,,,88,0
132120,note_on,0,0,1,,,,,,,,,,,,,,,0,,,79,62
132120,note_on,120,0,2,,,,,,,,,,,,,,,0,,,36,0
132120,note_on,0,0,2,,,,,,,,,,,,,,,0,,,43,56
132200,set_tempo,160,1,0,,,,,,,,,,,,388350,,,,,,,
132240,set_tempo,40,1,0,,,,,,,,,,,,425532,,,,,,,
132240,note_on,0,0,1,,,,,,,,,,,,,,,0,,,84,65
132240,note_on,0,0,1,,,,,,,,,,,,,,,0,,,88,77
132240,note_on,120,0,1,,,,,,,,,,,,,,,0,,,79,0
132240,note_on,120,0,2,,,,,,,,,,,,,,,0,,,43,0
132240,note_on,0,0,2,,,,,,,,,,,,,,,0,,,36,67
132360,note_on,0,0,1,,,,,,,,,,,,,,,0,,,88,0
132360,note_on,120,0,2,,,,,,,,,,,,,,,0,,,36,0
132360,note_on,0,0,2,,,,,,,,,,,,,,,0,,,43,58
132360,note_on,120,0,1,,,,,,,,,,,,,,,0,,,84,0
132360,note_on,0,0,1,,,,,,,,,,,,,,,0,,,79,64
132480,note_on,120,0,1,,,,,,,,,,,,,,,0,,,79,0
132480,note_on,0,0,1,,,,,,,,,,,,,,,0,,,76,74
132480,note_on,0,0,1,,,,,,,,,,,,,,,0,,,79,74
132480,note_on,0,0,1,,,,,,,,,,,,,,,0,,,88,88
132480,control_change,0,0,1,,,,,,,,,,,,,,,0,91,127,,
132480,text,0,1,1,,,,,,,,,,,,,,,,,,,
132480,note_on,0,0,1,,,,,,,,,,,,,,,0,,,84,74
132480,note_on,120,0,2,,,,,,,,,,,,,,,0,,,43,0
132480,set_tempo,240,1,0,,,,,,,,,,,,412343,,,,,,,
132480,note_on,0,0,2,,,,,,,,,,,,,,,0,,,72,64
132480,note_on,0,0,2,,,,,,,,,,,,,,,0,,,67,55
132480,note_on,0,0,2,,,,,,,,,,,,,,,0,,,60,55
132480,control_change,0,0,2,,,,,,,,,,,,,,,0,64,0,,
132551,control_change,71,0,2,,,,,,,,,,,,,,,0,64,127,,
132960,note_on,480,0,1,,,,,,,,,,,,,,,0,,,88,0
132960,set_tempo,480,1,0,,,,,,,,,,,,402253,,,,,,,
132960,note_on,0,0,1,,,,,,,,,,,,,,,0,,,84,0
132960,note_on,0,0,1,,,,,,,,,,,,,,,0,,,76,70
132960,note_on,0,0,1,,,,,,,,,,,,,,,0,,,79,70
132960,note_on,0,0,1,,,,,,,,,,,,,,,0,,,84,70
132960,note_on,0,0,1,,,,,,,,,,,,,,,0,,,88,83
132960,note_on,0,0,1,,,,,,,,,,,,,,,0,,,76,0
132960,note_on,0,0,1,,,,,,,,,,,,,,,0,,,79,0
132960,note_on,0,0,2,,,,,,,,,,,,,,,0,,,67,0
132960,note_on,0,0,2,,,,,,,,,,,,,,,0,,,60,0
132960,note_on,0,0,2,,,,,,,,,,,,,,,0,,,60,49
132960,note_on,0,0,2,,,,,,,,,,,,,,,0,,,67,49
132960,note_on,0,0,2,,,,,,,,,,,,,,,0,,,72,59
132960,note_on,409,0,2,,,,,,,,,,,,,,,0,,,72,0
133200,note_on,0,0,2,,,,,,,,,,,,,,,0,,,72,59
133200,note_on,0,0,1,,,,,,,,,,,,,,,0,,,79,70
133200,note_on,0,0,1,,,,,,,,,,,,,,,0,,,76,70
133200,note_on,0,0,1,,,,,,,,,,,,,,,0,,,84,0
133200,note_on,0,0,1,,,,,,,,,,,,,,,0,,,79,0
133200,note_on,0,0,1,,,,,,,,,,,,,,,0,,,76,0
133200,note_on,240,0,1,,,,,,,,,,,,,,,0,,,88,0
133200,note_on,0,0,1,,,,,,,,,,,,,,,0,,,88,83
133200,note_on,0,0,2,,,,,,,,,,,,,,,0,,,67,49
133200,note_on,0,0,2,,,,,,,,,,,,,,,0,,,60,49
133200,note_on,0,0,1,,,,,,,,,,,,,,,0,,,84,70
133200,note_on,0,0,2,,,,,,,,,,,,,,,0,,,60,0
133200,note_on,0,0,2,,,,,,,,,,,,,,,0,,,67,0
133200,note_on,240,0,2,,,,,,,,,,,,,,,0,,,72,0
133440,note_on,240,0,2,,,,,,,,,,,,,,,0,,,72,0
133440,note_on,0,0,1,,,,,,,,,,,,,,,0,,,88,88
133440,note_on,0,0,1,,,,,,,,,,,,,,,0,,,84,74
133440,note_on,0,0,1,,,,,,,,,,,,,,,0,,,79,74
133440,note_on,0,0,1,,,,,,,,,,,,,,,0,,,76,74
133440,note_on,0,0,1,,,,,,,,,,,,,,,0,,,84,0
133440,note_on,0,0,1,,,,,,,,,,,,,,,0,,,79,0
133440,note_on,0,0,1,,,,,,,,,,,,,,,0,,,76,0
133440,set_tempo,480,1,0,,,,,,,,,,,,412343,,,,,,,
133440,note_on,240,0,1,,,,,,,,,,,,,,,0,,,88,0
133440,note_on,0,0,2,,,,,,,,,,,,,,,0,,,72,66
133440,note_on,0,0,2,,,,,,,,,,,,,,,0,,,67,56
133440,note_on,0,0,2,,,,,,,,,,,,,,,0,,,60,56
133440,note_on,0,0,2,,,,,,,,,,,,,,,0,,,60,0
133440,note_on,0,0,2,,,,,,,,,,,,,,,0,,,67,0
133920,note_on,0,0,2,,,,,,,,,,,,,,,0,,,60,0
133920,note_on,0,0,2,,,,,,,,,,,,,,,0,,,67,0
133920,note_on,480,0,2,,,,,,,,,,,,,,,0,,,72,0
133920,note_on,0,0,2,,,,,,,,,,,,,,,0,,,67,50
133920,note_on,0,0,2,,,,,,,,,,,,,,,0,,,72,60
133920,note_on,0,0,2,,,,,,,,,,,,,,,0,,,60,50
133920,note_on,0,0,1,,,,,,,,,,,,,,,0,,,84,69
133920,set_tempo,480,1,0,,,,,,,,,,,,402253,,,,,,,
133920,note_on,0,0,1,,,,,,,,,,,,,,,0,,,76,69
133920,note_on,480,0,1,,,,,,,,,,,,,,,0,,,88,0
133920,note_on,0,0,1,,,,,,,,,,,,,,,0,,,76,0
133920,note_on,0,0,1,,,,,,,,,,,,,,,0,,,79,69
133920,note_on,0,0,1,,,,,,,,,,,,,,,0,,,79,0
133920,note_on,0,0,1,,,,,,,,,,,,,,,0,,,84,0
133920,note_on,0,0,1,,,,,,,,,,,,,,,0,,,88,82
134160,note_on,0,0,1,,,,,,,,,,,,,,,0,,,79,69
134160,note_on,0,0,2,,,,,,,,,,,,,,,0,,,67,50
134160,note_on,0,0,2,,,,,,,,,,,,,,,0,,,72,60
134160,note_on,0,0,1,,,,,,,,,,,,,,,0,,,76,69
134160,note_on,0,0,1,,,,,,,,,,,,,,,0,,,79,0
134160,note_on,240,0,1,,,,,,,,,,,,,,,0,,,88,0
134160,note_on,0,0,1,,,,,,,,,,,,,,,0,,,76,0
134160,note_on,0,0,1,,,,,,,,,,,,,,,0,,,84,0
134160,note_on,0,0,2,,,,,,,,,,,,,,,0,,,67,0
134160,note_on,0,0,2,,,,,,,,,,,,,,,0,,,60,0
134160,note_on,0,0,2,,,,,,,,,,,,,,,0,,,60,50
134160,note_on,0,0,1,,,,,,,,,,,,,,,0,,,88,82
134160,note_on,0,0,1,,,,,,,,,,,,,,,0,,,84,69
134160,note_on,240,0,2,,,,,,,,,,,,,,,0,,,72,0
134400,note_on,0,0,2,,,,,,,,,,,,,,,0,,,72,66
134400,note_on,0,0,2,,,,,,,,,,,,,,,0,,,67,56
134400,note_on,0,0,2,,,,,,,,,,,,,,,0,,,60,56
134400,note_on,0,0,2,,,,,,,,,,,,,,,0,,,64,56
134400,note_on,0,0,2,,,,,,,,,,,,,,,0,,,60,0
134400,note_on,0,0,2,,,,,,,,,,,,,,,0,,,67,0
134400,note_on,240,0,2,,,,,,,,,,,,,,,0,,,72,0
134400,control_change,0,0,2,,,,,,,,,,,,,,,0,64,0,,
134400,note_on,0,0,1,,,,,,,,,,,,,,,0,,,76,74
134400,set_tempo,480,1,0,,,,,,,,,,,,410874,,,,,,,
134400,note_on,240,0,1,,,,,,,,,,,,,,,0,,,88,0
134400,note_on,0,0,1,,,,,,,,,,,,,,,0,,,88,88
134400,note_on,0,0,1,,,,,,,,,,,,,,,0,,,84,74
134400,note_on,0,0,1,,,,,,,,,,,,,,,0,,,79,74
134400,note_on,0,0,1,,,,,,,,,,,,,,,0,,,84,0
134400,note_on,0,0,1,,,,,,,,,,,,,,,0,,,79,0
134400,note_on,0,0,1,,,,,,,,,,,,,,,0,,,76,0
134456,control_change,56,0,2,,,,,,,,,,,,,,,0,64,127,,
134640,note_on,0,0,2,,,,,,,,,,,,,,,0,,,67,0
134640,note_on,0,0,2,,,,,,,,,,,,,,,0,,,67,79
134640,note_on,0,0,2,,,,,,,,,,,,,,,0,,,60,0
134640,note_on,0,0,2,,,,,,,,,,,,,,,0,,,64,0
134640,note_on,184,0,2,,,,,,,,,,,,,,,0,,,72,0
134640,note_on,0,0,1,,,,,,,,,,,,,,,0,,,84,0
134640,note_on,0,0,1,,,,,,,,,,,,,,,0,,,76,0
134640,note_on,240,0,1,,,,,,,,,,,,,,,0,,,88,0
134640,note_on,0,0,1,,,,,,,,,,,,,,,0,,,79,0
134760,note_on,0,0,2,,,,,,,,,,,,,,,0,,,64,81
134760,note_on,120,0,2,,,,,,,,,,,,,,,0,,,67,0
134840,set_tempo,440,1,0,,,,,,,,,,,,409417,,,,,,,
134880,note_on,0,0,2,,,,,,,,,,,,,,,0,,,60,83
134880,note_on,120,0,2,,,,,,,,,,,,,,,0,,,64,0
134920,set_tempo,80,1,0,,,,,,,,,,,,410874,,,,,,,
134960,set_tempo,40,1,0,,,,,,,,,,,,412343,,,,,,,
135000,set_tempo,40,1,0,,,,,,,,,,,,413822,,,,,,,
135000,note_on,120,0,2,,,,,,,,,,,,,,,0,,,60,0
135000,note_on,0,0,2,,,,,,,,,,,,,,,0,,,55,85
135080,set_tempo,80,1,0,,,,,,,,,,,,415340,,,,,,,
135120,set_tempo,40,1,0,,,,,,,,,,,,416840,,,,,,,
135120,note_on,0,0,2,,,,,,,,,,,,,,,0,,,52,89
135120,note_on,120,0,2,,,,,,,,,,,,,,,0,,,55,0
135160,set_tempo,40,1,0,,,,,,,,,,,,418352,,,,,,,
135240,note_on,0,0,2,,,,,,,,,,,,,,,0,,,48,91
135240,note_on,120,0,2,,,,,,,,,,,,,,,0,,,52,0
135360,note_on,0,0,2,,,,,,,,,,,,,,,0,,,35,96
135360,note_on,0,0,2,,,,,,,,,,,,,,,0,,,47,96
135360,note_on,120,0,2,,,,,,,,,,,,,,,0,,,48,0
135370,control_change,10,0,2,,,,,,,,,,,,,,,0,64,0,,
135840,note_on,0,0,2,,,,,,,,,,,,,,,0,,,47,0
135840,note_on,0,0,2,,,,,,,,,,,,,,,0,,,36,77
135840,note_on,0,0,2,,,,,,,,,,,,,,,0,,,48,92
135840,note_on,470,0,2,,,,,,,,,,,,,,,0,,,35,0
135960,note_on,0,0,2,,,,,,,,,,,,,,,0,,,48,0
135960,note_on,120,0,2,,,,,,,,,,,,,,,0,,,36,0
136080,note_on,120,0,2,,,,,,,,,,,,,,,0,,,48,92
136080,note_on,0,0,2,,,,,,,,,,,,,,,0,,,36,77
136200,note_on,120,0,2,,,,,,,,,,,,,,,0,,,36,0
136200,note_on,0,0,2,,,,,,,,,,,,,,,0,,,48,0
136320,note_on,120,0,2,,,,,,,,,,,,,,,0,,,37,57
136320,note_on,0,0,2,,,,,,,,,,,,,,,0,,,49,68
136320,note_on,0,0,1,,,,,,,,,,,,,,,0,,,77,91
136320,set_tempo,1160,1,0,,,,,,,,,,,,437956,,,,,,,
136320,note_on,1680,0,1,,,,,,,,,,,,,,,0,,,67,76
136320,note_on,0,0,1,,,,,,,,,,,,,,,0,,,71,76
136320,note_on,0,0,1,,,,,,,,,,,,,,,0,,,79,91
136560,note_on,240,0,2,,,,,,,,,,,,,,,0,,,49,0
136560,note_on,0,0,2,,,,,,,,,,,,,,,0,,,37,0
136560,note_on,240,0,1,,,,,,,,,,,,,,,0,,,79,0
136560,note_on,0,0,1,,,,,,,,,,,,,,,0,,,67,0
136560,note_on,0,0,1,,,,,,,,,,,,,,,0,,,71,0
136560,note_on,0,0,1,,,,,,,,,,,,,,,0,,,77,0
136800,note_on,240,0,1,,,,,,,,,,,,,,,0,,,59,71
136800,note_on,0,0,1,,,,,,,,,,,,,,,0,,,55,71
136800,note_on,0,0,1,,,,,,,,,,,,,,,0,,,65,85
136800,note_on,0,0,1,,,,,,,,,,,,,,,0,,,67,85
136800,note_on,0,0,2,,,,,,,,,,,,,,,0,,,50,68
136800,note_on,240,0,2,,,,,,,,,,,,,,,0,,,38,57
137040,note_on,240,0,1,,,,,,,,,,,,,,,0,,,67,0
137040,note_on,0,0,1,,,,,,,,,,,,,,,0,,,59,0
137040,note_on,0,0,1,,,,,,,,,,,,,,,0,,,55,0
137040,note_on,240,0,2,,,,,,,,,,,,,,,0,,,50,0
137040,note_on,0,0,2,,,,,,,,,,,,,,,0,,,38,0
137040,note_on,0,0,1,,,,,,,,,,,,,,,0,,,65,0
137346,set_tempo,1026,1,0,,,,,,,,,,,,446097,,,,,,,
138240,note_on,0,0,1,,,,,,,,,,,,,,,0,,,79,74
138240,control_change,0,0,1,,,,,,,,,,,,,,,0,91,127,,
138240,note_on,0,0,1,,,,,,,,,,,,,,,0,,,83,74
138240,text,0,1,1,,,,,,,,,,,,,,,,,,,
138240,control_change,1200,0,2,,,,,,,,,,,,,,,0,64,0,,
138240,note_on,0,0,2,,,,,,,,,,,,,,,0,,,55,55
138240,note_on,1200,0,1,,,,,,,,,,,,,,,0,,,77,74
138240,note_on,0,0,1,,,,,,,,,,,,,,,0,,,86,88
138240,set_tempo,894,1,0,,,,,,,,,,,,412343,,,,,,,
138240,note_on,0,0,2,,,,,,,,,,,,,,,0,,,67,64
138311,control_change,71,0,2,,,,,,,,,,,,,,,0,64,127,,
138720,note_on,0,0,2,,,,,,,,,,,,,,,0,,,67,59
138720,note_on,409,0,2,,,,,,,,,,,,,,,0,,,67,0
138720,note_on,480,0,1,,,,,,,,,,,,,,,0,,,86,0
138720,note_on,0,0,1,,,,,,,,,,,,,,,0,,,77,0
138720,note_on,0,0,1,,,,,,,,,,,,,,,0,,,79,0
138720,note_on,0,0,1,,,,,,,,,,,,,,,0,,,83,0
138720,note_on,0,0,1,,,,,,,,,,,,,,,0,,,77,70
138720,note_on,0,0,1,,,,,,,,,,,,,,,0,,,79,70
138720,note_on,0,0,1,,,,,,,,,,,,,,,0,,,83,70
138720,note_on,0,0,1,,,,,,,,,,,,,,,0,,,86,83
138720,set_tempo,480,1,0,,,,,,,,,,,,402253,,,,,,,
138720,note_on,0,0,2,,,,,,,,,,,,,,,0,,,55,0
138720,note_on,0,0,2,,,,,,,,,,,,,,,0,,,55,49
138960,note_on,240,0,1,,,,,,,,,,,,,,,0,,,86,0
138960,note_on,0,0,1,,,,,,,,,,,,,,,0,,,77,0
138960,note_on,0,0,1,,,,,,,,,,,,,,,0,,,79,0
138960,note_on,0,0,1,,,,,,,,,,,,,,,0,,,77,70
138960,note_on,0,0,1,,,,,,,,,,,,,,,0,,,79,70
138960,note_on,0,0,1,,,,,,,,,,,,,,,0,,,86,83
138960,note_on,0,0,2,,,,,,,,,,,,,,,0,,,67,59
138960,note_on,0,0,2,,,,,,,,,,,,,,,0,,,55,49
138960,note_on,0,0,2,,,,,,,,,,,,,,,0,,,55,0
138960,note_on,240,0,2,,,,,,,,,,,,,,,0,,,67,0
138960,note_on,0,0,1,,,,,,,,,,,,,,,0,,,83,0
138960,note_on,0,0,1,,,,,,,,,,,,,,,0,,,83,70
139200,set_tempo,480,1,0,,,,,,,,,,,,412343,,,,,,,
139200,note_on,0,0,2,,,,,,,,,,,,,,,0,,,67,66
139200,note_on,0,0,2,,,,,,,,,,,,,,,0,,,55,56
139200,note_on,0,0,2,,,,,,,,,,,,,,,0,,,55,0
139200,note_on,240,0,2,,,,,,,,,,,,,,,0,,,67,0
139200,note_on,0,0,1,,,,,,,,,,,,,,,0,,,83,0
139200,note_on,0,0,1,,,,,,,,,,,,,,,0,,,77,0
139200,note_on,0,0,1,,,,,,,,,,,,,,,0,,,79,0
139200,note_on,0,0,1,,,,,,,,,,,,,,,0,,,77,74
139200,note_on,0,0,1,,,,,,,,,,,,,,,0,,,79,74
139200,note_on,0,0,1,,,,,,,,,,,,,,,0,,,83,74
139200,note_on,0,0,1,,,,,,,,,,,,,,,0,,,86,88
139200,note_on,240,0,1,,,,,,,,,,,,,,,0,,,86,0
139680,set_tempo,480,1,0,,,,,,,,,,,,402253,,,,,,,
139680,note_on,0,0,2,,,,,,,,,,,,,,,0,,,67,60
139680,note_on,0,0,2,,,,,,,,,,,,,,,0,,,55,50
139680,note_on,480,0,2,,,,,,,,,,,,,,,0,,,67,0
139680,note_on,0,0,1,,,,,,,,,,,,,,,0,,,86,82
139680,note_on,0,0,1,,,,,,,,,,,,,,,0,,,83,69
139680,note_on,0,0,2,,,,,,,,,,,,,,,0,,,55,0
139680,note_on,0,0,1,,,,,,,,,,,,,,,0,,,77,69
139680,note_on,480,0,1,,,,,,,,,,,,,,,0,,,86,0
139680,note_on,0,0,1,,,,,,,,,,,,,,,0,,,77,0
139680,note_on,0,0,1,,,,,,,,,,,,,,,0,,,79,0
139680,note_on,0,0,1,,,,,,,,,,,,,,,0,,,83,0
139680,note_on,0,0,1,,,,,,,,,,,,,,,0,,,79,69
139920,note_on,0,0,1,,,,,,,,,,,,,,,0,,,79,69
139920,note_on,0,0,1,,,,,,,,,,,,,,,0,,,83,69
139920,note_on,0,0,1,,,,,,,,,,,,,,,0,,,86,82
139920,note_on,0,0,2,,,,,,,,,,,,,,,0,,,55,50
139920,note_on,0,0,2,,,,,,,,,,,,,,,0,,,55,0
139920,note_on,0,0,2,,,,,,,,,,,,,,,0,,,67,60
139920,note_on,240,0,2,,,,,,,,,,,,,,,0,,,67,0
139920,note_on,240,0,1,,,,,,,,,,,,,,,0,,,86,0
139920,note_on,0,0,1,,,,,,,,,,,,,,,0,,,77,69
139920,note_on,0,0,1,,,,,,,,,,,,,,,0,,,83,0
139920,note_on,0,0,1,,,,,,,,,,,,,,,0,,,79,0
139920,note_on,0,0,1,,,,,,,,,,,,,,,0,,,77,0
140160,note_on,0,0,2,,,,,,,,,,,,,,,0,,,55,56
140160,control_change,0,0,2,,,,,,,,,,,,,,,0,64,0,,
140160,note_on,0,0,1,,,,,,,,,,,,,,,0,,,79,74
140160,note_on,0,0,1,,,,,,,,,,,,,,,0,,,86,88
140160,note_on,0,0,2,,,,,,,,,,,,,,,0,,,67,66
140160,set_tempo,480,1,0,,,,,,,,,,,,410874,,,,,,,
140160,note_on,240,0,2,,,,,,,,,,,,,,,0,,,67,0
140160,note_on,0,0,1,,,,,,,,,,,,,,,0,,,83,74
140160,note_on,0,0,1,,,,,,,,,,,,,,,0,,,77,74
140160,note_on,0,0,1,,,,,,,,,,,,,,,0,,,83,0
140160,note_on,240,0,1,,,,,,,,,,,,,,,0,,,86,0
140160,note_on,0,0,1,,,,,,,,,,,,,,,0,,,77,0
140160,note_on,0,0,1,,,,,,,,,,,,,,,0,,,79,0
140160,note_on,0,0,2,,,,,,,,,,,,,,,0,,,55,0
140216,control_change,56,0,2,,,,,,,,,,,,,,,0,64,127,,
140400,note_on,240,0,1,,,,,,,,,,,,,,,0,,,86,0
140400,note_on,0,0,1,,,,,,,,,,,,,,,0,,,77,0
140400,note_on,0,0,1,,,,,,,,,,,,,,,0,,,79,0
140400,note_on,0,0,1,,,,,,,,,,,,,,,0,,,83,0
140400,note_on,0,0,2,,,,,,,,,,,,,,,0,,,65,79
140400,note_on,0,0,2,,,,,,,,,,,,,,,0,,,55,0
140400,note_on,184,0,2,,,,,,,,,,,,,,,0,,,67,0
140520,note_on,0,0,2,,,,,,,,,,,,,,,0,,,62,81
140520,note_on,120,0,2,,,,,,,,,,,,,,,0,,,65,0
140600,set_tempo,440,1,0,,,,,,,,,,,,409417,,,,,,,
140640,note_on,120,0,2,,,,,,,,,,,,,,,0,,,62,0
140640,note_on,0,0,2,,,,,,,,,,,,,,,0,,,59,83
140680,set_tempo,80,1,0,,,,,,,,,,,,410874,,,,,,,
140720,set_tempo,40,1,0,,,,,,,,,,,,412343,,,,,,,
140760,note_on,0,0,2,,,,,,,,,,,,,,,0,,,55,85
140760,note_on,120,0,2,,,,,,,,,,,,,,,0,,,59,0
140760,set_tempo,40,1,0,,,,,,,,,,,,413822,,,,,,,
140840,set_tempo,80,1,0,,,,,,,,,,,,415340,,,,,,,
140880,set_tempo,40,1,0,,,,,,,,,,,,416840,,,,,,,
140880,note_on,120,0,2,,,,,,,,,,,,,,,0,,,55,0
140880,note_on,0,0,2,,,,,,,,,,,,,,,0,,,53,89
140920,set_tempo,40,1,0,,,,,,,,,,,,418352,,,,,,,
141000,note_on,120,0,2,,,,,,,,,,,,,,,0,,,53,0
141000,note_on,0,0,2,,,,,,,,,,,,,,,0,,,50,91
141120,note_on,120,0,2,,,,,,,,,,,,,,,0,,,50,0
141120,note_on,0,0,2,,,,,,,,,,,,,,,0,,,37,96
141120,note_on,0,0,2,,,,,,,,,,,,,,,0,,,49,96
141130,control_change,10,0,2,,,,,,,,,,,,,,,0,64,0,,
141600,note_on,0,0,2,,,,,,,,,,,,,,,0,,,38,77
141600,note_on,0,0,2,,,,,,,,,,,,,,,0,,,50,92
141600,note_on,0,0,2,,,,,,,,,,,,,,,0,,,49,0
141600,note_on,470,0,2,,,,,,,,,,,,,,,0,,,37,0
141720,note_on,120,0,2,,,,,,,,,,,,,,,0,,,38,0
141720,note_on,0,0,2,,,,,,,,,,,,,,,0,,,50,0
141840,note_on,120,0,2,,,,,,,,,,,,,,,0,,,50,92
141840,note_on,0,0,2,,,,,,,,,,,,,,,0,,,38,77
141960,note_on,0,0,2,,,,,,,,,,,,,,,0,,,50,0
141960,note_on,120,0,2,,,,,,,,,,,,,,,0,,,38,0
142080,note_on,0,0,1,,,,,,,,,,,,,,,0,,,79,95
142080,note_on,0,0,1,,,,,,,,,,,,,,,0,,,72,79
142080,note_on,1680,0,1,,,,,,,,,,,,,,,0,,,67,79
142080,set_tempo,1160,1,0,,,,,,,,,,,,437956,,,,,,,
142080,note_on,120,0,2,,,,,,,,,,,,,,,0,,,39,59
142080,note_on,0,0,2,,,,,,,,,,,,,,,0,,,51,71
142320,note_on,0,0,1,,,,,,,,,,,,,,,0,,,67,0
142320,note_on,240,0,1,,,,,,,,,,,,,,,0,,,79,0
142320,note_on,240,0,2,,,,,,,,,,,,,,,0,,,51,0
142320,note_on,0,0,1,,,,,,,,,,,,,,,0,,,72,0
142320,note_on,0,0,2,,,,,,,,,,,,,,,0,,,39,0
142560,note_on,0,0,2,,,,,,,,,,,,,,,0,,,52,71
142560,note_on,240,0,2,,,,,,,,,,,,,,,0,,,40,59
142560,note_on,0,0,1,,,,,,,,,,,,,,,0,,,67,89
142560,note_on,0,0,1,,,,,,,,,,,,,,,0,,,55,74
142560,note_on,240,0,1,,,,,,,,,,,,,,,0,,,60,74
142800,note_on,0,0,1,,,,,,,,,,,,,,,0,,,60,0
142800,note_on,240,0,1,,,,,,,,,,,,,,,0,,,67,0
142800,note_on,240,0,2,,,,,,,,,,,,,,,0,,,52,0
142800,note_on,0,0,2,,,,,,,,,,,,,,,0,,,40,0
142800,note_on,0,0,1,,,,,,,,,,,,,,,0,,,55,0
143040,set_tempo,960,1,0,,,,,,,,,,,,437956,,,,,,,
143240,set_tempo,200,1,0,,,,,,,,,,,,436364,,,,,,,
143280,note_on,480,0,1,,,,,,,,,,,,,,,0,,,55,64
143280,set_tempo,40,1,0,,,,,,,,,,,,405405,,,,,,,
143400,note_on,0,0,1,,,,,,,,,,,,,,,0,,,60,66
143400,note_on,120,0,1,,,,,,,,,,,,,,,0,,,55,0
143400,control_change,600,0,2,,,,,,,,,,,,,,,0,64,127,,
143520,set_tempo,240,1,0,,,,,,,,,,,,392157,,,,,,,
143520,note_on,120,0,1,,,,,,,,,,,,,,,0,,,60,0
143520,note_on,0,0,1,,,,,,,,,,,,,,,0,,,64,68
143640,note_on,120,0,1,,,,,,,,,,,,,,,0,,,64,0
143640,note_on,0,0,1,,,,,,,,,,,,,,,0,,,67,70
143760,note_on,120,0,1,,,,,,,,,,,,,,,0,,,67,0
143760,note_on,0,0,1,,,,,,,,,,,,,,,0,,,72,72
143880,note_on,120,0,1,,,,,,,,,,,,,,,0,,,72,0
143880,note_on,0,0,1,,,,,,,,,,,,,,,0,,,76,74
144000,note_on,0,0,1,,,,,,,,,,,,,,,0,,,79,78
144000,note_on,0,0,1,,,,,,,,,,,,,,,0,,,76,66
144000,note_on,0,0,1,,,,,,,,,,,,,,,0,,,67,66
144000,note_on,600,0,2,,,,,,,,,,,,,,,0,,,36,50
144000,note_on,0,0,2,,,,,,,,,,,,,,,0,,,48,60
144000,set_tempo,480,1,0,,,,,,,,,,,,413793,,,,,,,
144000,note_on,120,0,1,,,,,,,,,,,,,,,0,,,76,0
144480,set_tempo,480,1,0,,,,,,,,,,,,404040,,,,,,,
144480,note_on,480,0,1,,,,,,,,,,,,,,,0,,,79,0
144480,note_on,0,0,1,,,,,,,,,,,,,,,0,,,76,0
144480,note_on,0,0,1,,,,,,,,,,,,,,,0,,,79,70
144480,note_on,0,0,1,,,,,,,,,,,,,,,0,,,76,58
144480,note_on,0,0,1,,,,,,,,,,,,,,,0,,,67,0
144480,note_on,0,0,1,,,,,,,,,,,,,,,0,,,67,58
144720,note_on,240,0,1,,,,,,,,,,,,,,,0,,,79,0
144720,note_on,0,0,1,,,,,,,,,,,,,,,0,,,76,0
144720,note_on,0,0,1,,,,,,,,,,,,,,,0,,,67,0
144720,note_on,0,0,1,,,,,,,,,,,,,,,0,,,67,58
144720,note_on,0,0,1,,,,,,,,,,,,,,,0,,,76,58
144720,note_on,0,0,1,,,,,,,,,,,,,,,0,,,79,70
144960,set_tempo,480,1,0,,,,,,,,,,,,412371,,,,,,,
144960,note_on,0,0,1,,,,,,,,,,,,,,,0,,,76,0
144960,note_on,960,0,2,,,,,,,,,,,,,,,0,,,48,0
144960,note_on,0,0,1,,,,,,,,,,,,,,,0,,,67,65
144960,note_on,0,0,1,,,,,,,,,,,,,,,0,,,74,65
144960,note_on,0,0,1,,,,,,,,,,,,,,,0,,,79,78
144960,note_on,0,0,2,,,,,,,,,,,,,,,0,,,47,53
144960,note_on,0,0,2,,,,,,,,,,,,,,,0,,,35,44
144960,note_on,0,0,2,,,,,,,,,,,,,,,0,,,36,0
144960,note_on,0,0,1,,,,,,,,,,,,,,,0,,,67,0
144960,note_on,240,0,1,,,,,,,,,,,,,,,0,,,79,0
144970,control_change,10,0,2,,,,,,,,,,,,,,,0,64,0,,
145200,set_tempo,240,1,0,,,,,,,,,,,,442804,,,,,,,
145228,control_change,258,0,2,,,,,,,,,,,,,,,0,64,127,,
145440,note_on,212,0,2,,,,,,,,,,,,,,,0,,,47,0
145440,note_on,0,0,2,,,,,,,,,,,,,,,0,,,35,0
145440,note_on,0,0,2,,,,,,,,,,,,,,,0,,,47,57
145440,note_on,0,0,2,,,,,,,,,,,,,,,0,,,59,70
145440,set_tempo,240,1,0,,,,,,,,,,,,404040,,,,,,,
145680,note_on,720,0,1,,,,,,,,,,,,,,,0,,,79,0
145680,note_on,240,0,2,,,,,,,,,,,,,,,0,,,59,0
145680,note_on,0,0,2,,,,,,,,,,,,,,,0,,,47,0
145680,note_on,0,0,2,,,,,,,,,,,,,,,0,,,47,53
145680,note_on,0,0,2,,,,,,,,,,,,,,,0,,,59,65
145680,note_on,0,0,1,,,,,,,,,,,,,,,0,,,79,80
145680,note_on,0,0,1,,,,,,,,,,,,,,,0,,,74,67
145680,note_on,0,0,1,,,,,,,,,,,,,,,0,,,67,67
145680,note_on,0,0,1,,,,,,,,,,,,,,,0,,,67,0
145680,note_on,0,0,1,,,,,,,,,,,,,,,0,,,74,0
145920,note_on,240,0,2,,,,,,,,,,,,,,,0,,,59,0
145920,note_on,0,0,2,,,,,,,,,,,,,,,0,,,47,0
145920,note_on,0,0,2,,,,,,,,,,,,,,,0,,,45,63
145920,note_on,0,0,1,,,,,,,,,,,,,,,0,,,79,74
145920,control_change,0,0,2,,,,,,,,,,,,,,,0,64,0,,
145920,note_on,0,0,1,,,,,,,,,,,,,,,0,,,84,88
145920,note_on,240,0,1,,,,,,,,,,,,,,,0,,,79,0
145920,note_on,0,0,1,,,,,,,,,,,,,,,0,,,74,0
145920,note_on,0,0,1,,,,,,,,,,,,,,,0,,,67,0
145920,note_on,0,0,1,,,,,,,,,,,,,,,0,,,72,74
145920,note_on,0,0,2,,,,,,,,,,,,,,,0,,,57,72
145920,set_tempo,480,1,0,,,,,,,,,,,,412371,,,,,,,
146400,note_on,0,0,1,,,,,,,,,,,,,,,0,,,84,75
146400,note_on,0,0,2,,,,,,,,,,,,,,,0,,,45,0
146400,note_on,0,0,2,,,,,,,,,,,,,,,0,,,38,50
146400,note_on,0,0,2,,,,,,,,,,,,,,,0,,,50,61
146400,note_on,480,0,1,,,,,,,,,,,,,,,0,,,84,0
146400,note_on,0,0,1,,,,,,,,,,,,,,,0,,,79,0
146400,note_on,0,0,1,,,,,,,,,,,,,,,0,,,72,0
146400,note_on,0,0,1,,,,,,,,,,,,,,,0,,,72,63
146400,note_on,0,0,1,,,,,,,,,,,,,,,0,,,78,63
146400,note_on,480,0,2,,,,,,,,,,,,,,,0,,,57,0
146640,note_on,240,0,1,,,,,,,,,,,,,,,0,,,84,0
146640,note_on,0,0,1,,,,,,,,,,,,,,,0,,,78,0
146640,note_on,0,0,1,,,,,,,,,,,,,,,0,,,72,0
146640,note_on,0,0,1,,,,,,,,,,,,,,,0,,,72,61
146640,note_on,0,0,1,,,,,,,,,,,,,,,0,,,84,73
146640,note_on,0,0,1,,,,,,,,,,,,,,,0,,,78,61
146880,note_on,0,0,1,,,,,,,,,,,,,,,0,,,83,76
146880,set_tempo,960,1,0,,,,,,,,,,,,427046,,,,,,,
146880,note_on,480,0,2,,,,,,,,,,,,,,,0,,,50,0
146880,note_on,0,0,2,,,,,,,,,,,,,,,0,,,38,0
146880,note_on,0,0,2,,,,,,,,,,,,,,,0,,,43,48
146880,note_on,0,0,2,,,,,,,,,,,,,,,0,,,55,59
146880,note_on,0,0,1,,,,,,,,,,,,,,,0,,,71,64
146880,note_on,0,0,1,,,,,,,,,,,,,,,0,,,79,64
146880,note_on,0,0,1,,,,,,,,,,,,,,,0,,,72,0
146880,note_on,0,0,1,,,,,,,,,,,,,,,0,,,78,0
146880,note_on,240,0,1,,,,,,,,,,,,,,,0,,,84,0
147118,note_on,238,0,2,,,,,,,,,,,,,,,0,,,55,0
147120,note_on,240,0,1,,,,,,,,,,,,,,,0,,,83,0
147120,note_on,0,0,1,,,,,,,,,,,,,,,0,,,79,0
147120,set_tempo,240,1,0,,,,,,,,,,,,402685,,,,,,,
147120,note_on,0,0,1,,,,,,,,,,,,,,,0,,,55,64
147120,note_on,2,0,2,,,,,,,,,,,,,,,0,,,43,0
147120,note_on,0,0,1,,,,,,,,,,,,,,,0,,,71,0
147240,control_change,120,0,2,,,,,,,,,,,,,,,0,64,127,,
147240,note_on,120,0,1,,,,,,,,,,,,,,,0,,,55,0
147240,note_on,0,0,1,,,,,,,,,,,,,,,0,,,60,66
147360,set_tempo,240,1,0,,,,,,,,,,,,392157,,,,,,,
147360,note_on,120,0,1,,,,,,,,,,,,,,,0,,,60,0
147360,note_on,0,0,1,,,,,,,,,,,,,,,0,,,64,68
147480,note_on,120,0,1,,,,,,,,,,,,,,,0,,,64,0
147480,note_on,0,0,1,,,,,,,,,,,,,,,0,,,67,70
147600,note_on,120,0,1,,,,,,,,,,,,,,,0,,,67,0
147600,note_on,0,0,1,,,,,,,,,,,,,,,0,,,72,72
147720,note_on,120,0,1,,,,,,,,,,,,,,,0,,,72,0
147720,note_on,0,0,1,,,,,,,,,,,,,,,0,,,76,74
147840,note_on,0,0,1,,,,,,,,,,,,,,,0,,,79,78
147840,set_tempo,480,1,0,,,,,,,,,,,,413793,,,,,,,
147840,note_on,120,0,1,,,,,,,,,,,,,,,0,,,76,0
147840,note_on,0,0,1,,,,,,,,,,,,,,,0,,,67,66
147840,note_on,0,0,1,,,,,,,,,,,,,,,0,,,76,66
147840,note_on,600,0,2,,,,,,,,,,,,,,,0,,,36,50
147840,note_on,0,0,2,,,,,,,,,,,,,,,0,,,48,60
148320,note_on,0,0,1,,,,,,,,,,,,,,,0,,,67,58
148320,note_on,0,0,1,,,,,,,,,,,,,,,0,,,67,0
148320,note_on,0,0,1,,,,,,,,,,,,,,,0,,,76,0
148320,note_on,480,0,1,,,,,,,,,,,,,,,0,,,79,0
148320,note_on,0,0,1,,,,,,,,,,,,,,,0,,,79,70
148320,set_tempo,480,1,0,,,,,,,,,,,,404040,,,,,,,
148320,note_on,0,0,1,,,,,,,,,,,,,,,0,,,76,58
148560,note_on,0,0,1,,,,,,,,,,,,,,,0,,,79,70
148560,note_on,0,0,1,,,,,,,,,,,,,,,0,,,76,58
148560,note_on,0,0,1,,,,,,,,,,,,,,,0,,,67,0
148560,note_on,0,0,1,,,,,,,,,,,,,,,0,,,76,0
148560,note_on,240,0,1,,,,,,,,,,,,,,,0,,,79,0
148560,note_on,0,0,1,,,,,,,,,,,,,,,0,,,67,58
148800,set_tempo,480,1,0,,,,,,,,,,,,412371,,,,,,,
148800,note_on,0,0,2,,,,,,,,,,,,,,,0,,,47,53
148800,note_on,0,0,2,,,,,,,,,,,,,,,0,,,35,44
148800,note_on,0,0,2,,,,,,,,,,,,,,,0,,,36,0
148800,note_on,960,0,2,,,,,,,,,,,,,,,0,,,48,0
148800,note_on,240,0,1,,,,,,,,,,,,,,,0,,,79,0
148800,note_on,0,0,1,,,,,,,,,,,,,,,0,,,74,65
148800,note_on,0,0,1,,,,,,,,,,,,,,,0,,,79,78
148800,note_on,0,0,1,,,,,,,,,,,,,,,0,,,67,65
148800,note_on,0,0,1,,,,,,,,,,,,,,,0,,,67,0
148800,note_on,0,0,1,,,,,,,,,,,,,,,0,,,76,0
148913,control_change,113,0,2,,,,,,,,,,,,,,,0,64,0,,
149040,set_tempo,240,1,0,,,,,,,,,,,,442804,,,,,,,
149068,control_change,155,0,2,,,,,,,,,,,,,,,0,64,127,,
149280,set_tempo,240,1,0,,,,,,,,,,,,404040,,,,,,,
149280,note_on,212,0,2,,,,,,,,,,,,,,,0,,,47,0
149280,note_on,0,0,2,,,,,,,,,,,,,,,0,,,35,0
149280,note_on,0,0,2,,,,,,,,,,,,,,,0,,,47,57
149280,note_on,0,0,2,,,,,,,,,,,,,,,0,,,59,70
149520,note_on,0,0,1,,,,,,,,,,,,,,,0,,,74,67
149520,note_on,0,0,1,,,,,,,,,,,,,,,0,,,79,80
149520,note_on,0,0,1,,,,,,,,,,,,,,,0,,,67,67
149520,note_on,0,0,1,,,,,,,,,,,,,,,0,,,74,0
149520,note_on,720,0,1,,,,,,,,,,,,,,,0,,,79,0
149520,note_on,0,0,2,,,,,,,,,,,,,,,0,,,59,65
149520,note_on,0,0,2,,,,,,,,,,,,,,,0,,,47,53
149520,note_on,0,0,2,,,,,,,,,,,,,,,0,,,47,0
149520,note_on,240,0,2,,,,,,,,,,,,,,,0,,,59,0
149520,note_on,0,0,1,,,,,,,,,,,,,,,0,,,67,0
149760,note_on,0,0,2,,,,,,,,,,,,,,,0,,,45,63
149760,note_on,240,0,1,,,,,,,,,,,,,,,0,,,79,0
149760,note_on,0,0,1,,,,,,,,,,,,,,,0,,,72,74
149760,note_on,0,0,2,,,,,,,,,,,,,,,0,,,47,0
149760,note_on,240,0,2,,,,,,,,,,,,,,,0,,,59,0
149760,note_on,0,0,1,,,,,,,,,,,,,,,0,,,79,74
149760,note_on,0,0,1,,,,,,,,,,,,,,,0,,,74,0
149760,set_tempo,480,1,0,,,,,,,,,,,,412371,,,,,,,
149760,control_change,0,0,2,,,,,,,,,,,,,,,0,64,0,,
149760,note_on,0,0,2,,,,,,,,,,,,,,,0,,,57,72
149760,note_on,0,0,1,,,,,,,,,,,,,,,0,,,84,88
149760,note_on,0,0,1,,,,,,,,,,,,,,,0,,,67,0
150240,note_on,0,0,1,,,,,,,,,,,,,,,0,,,78,63
150240,note_on,0,0,1,,,,,,,,,,,,,,,0,,,84,75
150240,note_on,0,0,1,,,,,,,,,,,,,,,0,,,72,0
150240,note_on,0,0,1,,,,,,,,,,,,,,,0,,,79,0
150240,note_on,0,0,1,,,,,,,,,,,,,,,0,,,72,63
150240,note_on,0,0,2,,,,,,,,,,,,,,,0,,,45,0
150240,note_on,480,0,2,,,,,,,,,,,,,,,0,,,57,0
150240,note_on,480,0,1,,,,,,,,,,,,,,,0,,,84,0
150240,note_on,0,0,2,,,,,,,,,,,,,,,0,,,38,50
150240,note_on,0,0,2,,,,,,,,,,,,,,,0,,,50,61
150720,note_on,480,0,1,,,,,,,,,,,,,,,0,,,84,0
150720,note_on,0,0,1,,,,,,,,,,,,,,,0,,,78,0
150720,note_on,0,0,1,,,,,,,,,,,,,,,0,,,72,0
150720,note_on,0,0,1,,,,,,,,,,,,,,,0,,,71,64
150720,note_on,0,0,2,,,,,,,,,,,,,,,0,,,38,0
150720,note_on,480,0,2,,,,,,,,,,,,,,,0,,,50,0
150720,note_on,0,0,2,,,,,,,,,,,,,,,0,,,55,59
150720,note_on,0,0,2,,,,,,,,,,,,,,,0,,,43,48
150720,note_on,0,0,1,,,,,,,,,,,,,,,0,,,83,76
150720,note_on,0,0,1,,,,,,,,,,,,,,,0,,,79,64
150960,note_on,0,0,1,,,,,,,,,,,,,,,0,,,79,0
150960,note_on,240,0,1,,,,,,,,,,,,,,,0,,,83,0
150960,note_on,240,0,2,,,,,,,,,,,,,,,0,,,55,0
150960,set_tempo,1200,1,0,,,,,,,,,,,,402685,,,,,,,
150960,note_on,0,0,2,,,,,,,,,,,,,,,0,,,43,0
150960,note_on,0,0,1,,,,,,,,,,,,,,,0,,,71,0
150960,note_on,0,0,1,,,,,,,,,,,,,,,0,,,60,64
151080,note_on,0,0,1,,,,,,,,,,,,,,,0,,,65,66
151080,control_change,120,0,2,,,,,,,,,,,,,,,0,64,127,,
151080,note_on,120,0,1,,,,,,,,,,,,,,,0,,,60,0
151200,set_tempo,240,1,0,,,,,,,,,,,,392157,,,,,,,
151200,note_on,120,0,1,,,,,,,,,,,,,,,0,,,65,0
151200,note_on,0,0,1,,,,,,,,,,,,,,,0,,,69,68
151320,note_on,0,0,1,,,,,,,,,,,,,,,0,,,72,70
151320,note_on,120,0,1,,,,,,,,,,,,,,,0,,,69,0
151440,note_on,120,0,1,,,,,,,,,,,,,,,0,,,72,0
151440,note_on,0,0,1,,,,,,,,,,,,,,,0,,,77,72
151560,note_on,120,0,1,,,,,,,,,,,,,,,0,,,77,0
151560,note_on,0,0,1,,,,,,,,,,,,,,,0,,,81,74
151680,note_on,0,0,2,,,,,,,,,,,,,,,0,,,53,60
151680,set_tempo,480,1,0,,,,,,,,,,,,413793,,,,,,,
151680,note_on,600,0,2,,,,,,,,,,,,,,,0,,,41,50
151680,note_on,0,0,1,,,,,,,,,,,,,,,0,,,81,72
151680,note_on,0,0,1,,,,,,,,,,,,,,,0,,,72,72
151680,note_on,120,0,1,,,,,,,,,,,,,,,0,,,81,0
151680,note_on,0,0,1,,,,,,,,,,,,,,,0,,,84,85
152160,note_on,0,0,1,,,,,,,,,,,,,,,0,,,84,77
152160,note_on,0,0,1,,,,,,,,,,,,,,,0,,,72,63
152160,note_on,0,0,1,,,,,,,,,,,,,,,0,,,72,0
152160,note_on,0,0,1,,,,,,,,,,,,,,,0,,,81,0
152160,set_tempo,480,1,0,,,,,,,,,,,,404040,,,,,,,
152160,note_on,0,0,1,,,,,,,,,,,,,,,0,,,81,63
152160,note_on,480,0,1,,,,,,,,,,,,,,,0,,,84,0
152400,note_on,240,0,1,,,,,,,,,,,,,,,0,,,84,0
152400,note_on,0,0,1,,,,,,,,,,,,,,,0,,,81,0
152400,note_on,0,0,1,,,,,,,,,,,,,,,0,,,72,0
152400,note_on,0,0,1,,,,,,,,,,,,,,,0,,,72,63
152400,note_on,0,0,1,,,,,,,,,,,,,,,0,,,81,63
152400,note_on,0,0,1,,,,,,,,,,,,,,,0,,,84,77
152640,note_on,0,0,1,,,,,,,,,,,,,,,0,,,72,0
152640,note_on,960,0,2,,,,,,,,,,,,,,,0,,,53,0
152640,note_on,0,0,2,,,,,,,,,,,,,,,0,,,41,0
152640,note_on,0,0,2,,,,,,,,,,,,,,,0,,,40,44
152640,note_on,0,0,2,,,,,,,,,,,,,,,0,,,52,53
152640,note_on,0,0,1,,,,,,,,,,,,,,,0,,,84,85
152640,note_on,0,0,1,,,,,,,,,,,,,,,0,,,79,71
152640,note_on,0,0,1,,,,,,,,,,,,,,,0,,,72,71
152640,note_on,0,0,1,,,,,,,,,,,,,,,0,,,81,0
152640,note_on,240,0,1,,,,,,,,,,,,,,,0,,,84,0
152640,set_tempo,480,1,0,,,,,,,,,,,,412371,,,,,,,
152753,control_change,113,0,2,,,,,,,,,,,,,,,0,64,0,,
152880,set_tempo,240,1,0,,,,,,,,,,,,442804,,,,,,,
152908,control_change,155,0,2,,,,,,,,,,,,,,,0,64,127,,
153120,note_on,0,0,2,,,,,,,,,,,,,,,0,,,64,70
153120,note_on,0,0,2,,,,,,,,,,,,,,,0,,,40,0
153120,note_on,212,0,2,,,,,,,,,,,,,,,0,,,52,0
153120,note_on,0,0,2,,,,,,,,,,,,,,,0,,,52,57
153120,set_tempo,240,1,0,,,,,,,,,,,,427046,,,,,,,
153360,note_on,240,0,2,,,,,,,,,,,,,,,0,,,64,0
153360,note_on,0,0,2,,,,,,,,,,,,,,,0,,,52,0
153360,note_on,0,0,2,,,,,,,,,,,,,,,0,,,52,53
153360,note_on,0,0,2,,,,,,,,,,,,,,,0,,,64,65
153360,note_on,0,0,1,,,,,,,,,,,,,,,0,,,72,0
153360,note_on,0,0,1,,,,,,,,,,,,,,,0,,,79,0
153360,note_on,0,0,1,,,,,,,,,,,,,,,0,,,84,88
153360,note_on,0,0,1,,,,,,,,,,,,,,,0,,,79,73
153360,note_on,0,0,1,,,,,,,,,,,,,,,0,,,72,73
153360,note_on,720,0,1,,,,,,,,,,,,,,,0,,,84,0
153600,note_on,240,0,1,,,,,,,,,,,,,,,0,,,84,0
153600,note_on,0,0,1,,,,,,,,,,,,,,,0,,,77,81
153600,set_tempo,480,1,0,,,,,,,,,,,,412371,,,,,,,
153600,note_on,0,0,1,,,,,,,,,,,,,,,0,,,79,0
153600,note_on,240,0,2,,,,,,,,,,,,,,,0,,,64,0
153600,note_on,0,0,2,,,,,,,,,,,,,,,0,,,50,63
153600,note_on,0,0,2,,,,,,,,,,,,,,,0,,,62,72
153600,control_change,0,0,2,,,,,,,,,,,,,,,0,64,0,,
153600,note_on,0,0,1,,,,,,,,,,,,,,,0,,,84,81
153600,note_on,0,0,1,,,,,,,,,,,,,,,0,,,89,96
153600,note_on,0,0,2,,,,,,,,,,,,,,,0,,,52,0
153600,note_on,0,0,1,,,,,,,,,,,,,,,0,,,72,0
154080,note_on,480,0,1,,,,,,,,,,,,,,,0,,,89,0
154080,note_on,0,0,1,,,,,,,,,,,,,,,0,,,84,0
154080,note_on,0,0,1,,,,,,,,,,,,,,,0,,,77,0
154080,note_on,480,0,2,,,,,,,,,,,,,,,0,,,62,0
154080,note_on,0,0,2,,,,,,,,,,,,,,,0,,,50,0
154080,note_on,0,0,2,,,,,,,,,,,,,,,0,,,43,54
154080,note_on,0,0,2,,,,,,,,,,,,,,,0,,,55,67
154080,note_on,0,0,1,,,,,,,,,,,,,,,0,,,77,75
154080,note_on,0,0,1,,,,,,,,,,,,,,,0,,,83,75
154080,note_on,0,0,1,,,,,,,,,,,,,,,0,,,89,90
154320,note_on,0,0,1,,,,,,,,,,,,,,,0,,,77,66
154320,note_on,0,0,1,,,,,,,,,,,,,,,0,,,89,78
154320,note_on,0,0,1,,,,,,,,,,,,,,,0,,,83,66
154320,note_on,0,0,1,,,,,,,,,,,,,,,0,,,77,0
154320,note_on,240,0,1,,,,,,,,,,,,,,,0,,,89,0
154320,note_on,0,0,1,,,,,,,,,,,,,,,0,,,83,0
154560,note_on,0,0,1,,,,,,,,,,,,,,,0,,,83,76
154560,note_on,0,0,1,,,,,,,,,,,,,,,0,,,76,76
154560,note_on,0,0,1,,,,,,,,,,,,,,,0,,,77,0
154560,note_on,0,0,1,,,,,,,,,,,,,,,0,,,83,0
154560,note_on,240,0,1,,,,,,,,,,,,,,,0,,,89,0
154560,note_on,0,0,1,,,,,,,,,,,,,,,0,,,88,92
154560,note_on,0,0,2,,,,,,,,,,,,,,,0,,,60,65
154560,note_on,0,0,2,,,,,,,,,,,,,,,0,,,48,52
154560,note_on,0,0,2,,,,,,,,,,,,,,,0,,,43,0
154560,note_on,480,0,2,,,,,,,,,,,,,,,0,,,55,0
155040,note_on,0,0,2,,,,,,,,,,,,,,,0,,,48,0
155040,set_tempo,1440,1,0,,,,,,,,,,,,404040,,,,,,,
155040,note_on,0,0,1,,,,,,,,,,,,,,,0,,,76,70
155040,note_on,480,0,2,,,,,,,,,,,,,,,0,,,60,0
155040,note_on,0,0,1,,,,,,,,,,,,,,,0,,,81,70
155040,note_on,0,0,2,,,,,,,,,,,,,,,0,,,41,55
155040,note_on,0,0,2,,,,,,,,,,,,,,,0,,,53,67
155040,note_on,480,0,1,,,,,,,,,,,,,,,0,,,88,0
155040,note_on,0,0,1,,,,,,,,,,,,,,,0,,,83,0
155040,note_on,0,0,1,,,,,,,,,,,,,,,0,,,76,0
155040,note_on,0,0,1,,,,,,,,,,,,,,,0,,,88,84
155280,note_on,0,0,2,,,,,,,,,,,,,,,0,,,53,62
155280,note_on,240,0,2,,,,,,,,,,,,,,,0,,,53,0
155280,note_on,0,0,2,,,,,,,,,,,,,,,0,,,41,51
155280,note_on,0,0,2,,,,,,,,,,,,,,,0,,,41,0
155520,note_on,0,0,1,,,,,,,,,,,,,,,0,,,86,92
155520,note_on,240,0,2,,,,,,,,,,,,,,,0,,,53,0
155520,note_on,0,0,2,,,,,,,,,,,,,,,0,,,41,0
155520,note_on,0,0,2,,,,,,,,,,,,,,,0,,,47,60
155520,note_on,0,0,2,,,,,,,,,,,,,,,0,,,59,69
155520,control_change,0,0,2,,,,,,,,,,,,,,,0,64,0,,
155520,set_tempo,480,1,0,,,,,,,,,,,,412371,,,,,,,
155520,note_on,0,0,1,,,,,,,,,,,,,,,0,,,88,0
155520,note_on,0,0,1,,,,,,,,,,,,,,,0,,,81,78
155520,note_on,0,0,1,,,,,,,,,,,,,,,0,,,74,78
155520,note_on,0,0,1,,,,,,,,,,,,,,,0,,,81,0
155520,note_on,480,0,1,,,,,,,,,,,,,,,0,,,76,0
155760,note_on,0,0,1,,,,,,,,,,,,,,,0,,,80,78
155760,note_on,0,0,1,,,,,,,,,,,,,,,0,,,81,0
155760,note_on,0,0,1,,,,,,,,,,,,,,,0,,,74,78
155760,note_on,240,0,1,,,,,,,,,,,,,,,0,,,86,0
155760,note_on,0,0,1,,,,,,,,,,,,,,,0,,,74,0
155760,note_on,0,0,1,,,,,,,,,,,,,,,0,,,86,78
156000,note_on,0,0,2,,,,,,,,,,,,,,,0,,,60,65
156000,note_on,0,0,1,,,,,,,,,,,,,,,0,,,84,87
156000,note_on,240,0,1,,,,,,,,,,,,,,,0,,,86,0
156000,note_on,0,0,1,,,,,,,,,,,,,,,0,,,80,0
156000,note_on,0,0,1,,,,,,,,,,,,,,,0,,,81,73
156000,note_on,0,0,1,,,,,,,,,,,,,,,0,,,74,0
156000,note_on,0,0,1,,,,,,,,,,,,,,,0,,,72,73
156000,note_on,480,0,2,,,,,,,,,,,,,,,0,,,59,0
156000,note_on,0,0,2,,,,,,,,,,,,,,,0,,,47,0
156000,note_on,0,0,2,,,,,,,,,,,,,,,0,,,48,53
156480,note_on,0,0,2,,,,,,,,,,,,,,,0,,,62,65
156480,note_on,0,0,1,,,,,,,,,,,,,,,0,,,81,0
156480,note_on,0,0,2,,,,,,,,,,,,,,,0,,,50,52
156480,note_on,480,0,2,,,,,,,,,,,,,,,0,,,60,0
156480,note_on,0,0,2,,,,,,,,,,,,,,,0,,,48,0
156480,note_on,0,0,1,,,,,,,,,,,,,,,0,,,83,92
156480,note_on,0,0,1,,,,,,,,,,,,,,,0,,,77,76
156480,note_on,0,0,1,,,,,,,,,,,,,,,0,,,71,76
156480,note_on,0,0,1,,,,,,,,,,,,,,,0,,,72,0
156480,note_on,480,0,1,,,,,,,,,,,,,,,0,,,84,0
156480,note_on,0,0,1,,,,,,,,,,,,,,,0,,,81,76
156720,note_on,0,0,2,,,,,,,,,,,,,,,0,,,50,55
156720,note_on,0,0,2,,,,,,,,,,,,,,,0,,,62,55
156720,note_on,240,0,2,,,,,,,,,,,,,,,0,,,62,0
156720,note_on,0,0,2,,,,,,,,,,,,,,,0,,,50,0
156960,note_on,0,0,2,,,,,,,,,,,,,,,0,,,50,0
156960,note_on,0,0,2,,,,,,,,,,,,,,,0,,,52,58
156960,note_on,0,0,2,,,,,,,,,,,,,,,0,,,64,71
156960,note_on,0,0,1,,,,,,,,,,,,,,,0,,,71,74
156960,note_on,0,0,1,,,,,,,,,,,,,,,0,,,76,74
156960,note_on,240,0,2,,,,,,,,,,,,,,,0,,,62,0
156960,note_on,0,0,1,,,,,,,,,,,,,,,0,,,77,0
156960,note_on,0,0,1,,,,,,,,,,,,,,,0,,,71,0
156960,set_tempo,1440,1,0,,,,,,,,,,,,419580,,,,,,,
156960,note_on,0,0,1,,,,,,,,,,,,,,,0,,,81,0
156960,note_on,480,0,1,,,,,,,,,,,,,,,0,,,83,0
156960,note_on,0,0,1,,,,,,,,,,,,,,,0,,,80,74
156960,note_on,0,0,1,,,,,,,,,,,,,,,0,,,83,89
157320,set_tempo,360,1,0,,,,,,,,,,,,401338,,,,,,,
157380,note_on,0,0,1,,,,,,,,,,,,,,,0,,,76,0
157380,note_on,0,0,1,,,,,,,,,,,,,,,0,,,83,0
157380,note_on,0,0,1,,,,,,,,,,,,,,,0,,,80,0
157380,note_on,420,0,1,,,,,,,,,,,,,,,0,,,71,0
157380,note_on,0,0,1,,,,,,,,,,,,,,,0,,,81,82
157440,note_on,0,0,2,,,,,,,,,,,,,,,0,,,52,0
157440,note_on,60,0,1,,,,,,,,,,,,,,,0,,,81,0
157440,note_on,480,0,2,,,,,,,,,,,,,,,0,,,64,0
157440,note_on,0,0,1,,,,,,,,,,,,,,,0,,,93,92
157440,note_on,0,0,2,,,,,,,,,,,,,,,0,,,33,81
157440,note_on,0,0,2,,,,,,,,,,,,,,,0,,,45,96
157440,set_tempo,120,1,0,,,,,,,,,,,,406780,,,,,,,
157680,note_on,0,0,1,,,,,,,,,,,,,,,0,,,91,82
157680,note_on,240,0,1,,,,,,,,,,,,,,,0,,,93,0
157800,note_on,0,0,1,,,,,,,,,,,,,,,0,,,89,82
157800,note_on,120,0,1,,,,,,,,,,,,,,,0,,,91,0
157920,note_on,480,0,2,,,,,,,,,,,,,,,0,,,45,0
157920,note_on,0,0,2,,,,,,,,,,,,,,,0,,,45,90
157920,note_on,0,0,1,,,,,,,,,,,,,,,0,,,88,81
157920,note_on,0,0,2,,,,,,,,,,,,,,,0,,,33,0
157920,note_on,0,0,2,,,,,,,,,,,,,,,0,,,33,75
157920,note_on,120,0,1,,,,,,,,,,,,,,,0,,,89,0
158040,note_on,120,0,1,,,,,,,,,,,,,,,0,,,88,0
158040,note_on,0,0,1,,,,,,,,,,,,,,,0,,,86,81
158160,note_on,0,0,2,,,,,,,,,,,,,,,0,,,33,75
158160,note_on,0,0,2,,,,,,,,,,,,,,,0,,,45,90
158160,note_on,0,0,2,,,,,,,,,,,,,,,0,,,33,0
158160,note_on,240,0,2,,,,,,,,,,,,,,,0,,,45,0
158160,note_on,0,0,1,,,,,,,,,,,,,,,0,,,84,80
158160,note_on,120,0,1,,,,,,,,,,,,,,,0,,,86,0
158280,note_on,0,0,1,,,,,,,,,,,,,,,0,,,83,79
158280,note_on,120,0,1,,,,,,,,,,,,,,,0,,,84,0
158400,note_on,0,0,2,,,,,,,,,,,,,,,0,,,33,81
158400,note_on,0,0,1,,,,,,,,,,,,,,,0,,,81,79
158400,note_on,120,0,1,,,,,,,,,,,,,,,0,,,83,0
158400,note_on,0,0,2,,,,,,,,,,,,,,,0,,,33,0
158400,note_on,240,0,2,,,,,,,,,,,,,,,0,,,45,0
158400,note_on,0,0,2,,,,,,,,,,,,,,,0,,,45,96
158520,note_on,0,0,1,,,,,,,,,,,,,,,0,,,79,78
158520,note_on,120,0,1,,,,,,,,,,,,,,,0,,,81,0
158640,note_on,0,0,1,,,,,,,,,,,,,,,0,,,77,78
158640,note_on,120,0,1,,,,,,,,,,,,,,,0,,,79,0
158760,note_on,0,0,1,,,,,,,,,,,,,,,0,,,76,77
158760,note_on,120,0,1,,,,,,,,,,,,,,,0,,,77,0
158880,note_on,0,0,1,,,,,,,,,,,,,,,0,,,74,77
158880,note_on,0,0,2,,,,,,,,,,,,,,,0,,,33,0
158880,note_on,0,0,2,,,,,,,,,,,,,,,0,,,45,90
158880,note_on,120,0,1,,,,,,,,,,,,,,,0,,,76,0
158880,note_on,0,0,2,,,,,,,,,,,,,,,0,,,33,75
158880,note_on,480,0,2,,,,,,,,,,,,,,,0,,,45,0
159000,note_on,0,0,1,,,,,,,,,,,,,,,0,,,72,75
159000,note_on,120,0,1,,,,,,,,,,,,,,,0,,,74,0
159120,note_on,0,0,1,,,,,,,,,,,,,,,0,,,71,74
159120,note_on,240,0,2,,,,,,,,,,,,,,,0,,,45,0
159120,note_on,0,0,2,,,,,,,,,,,,,,,0,,,33,0
159120,note_on,0,0,2,,,,,,,,,,,,,,,0,,,33,74
159120,note_on,0,0,2,,,,,,,,,,,,,,,0,,,45,88
159120,note_on,120,0,1,,,,,,,,,,,,,,,0,,,72,0
159240,note_on,0,0,1,,,,,,,,,,,,,,,0,,,69,74
159240,note_on,120,0,1,,,,,,,,,,,,,,,0,,,71,0
159360,note_on,0,0,2,,,,,,,,,,,,,,,0,,,45,96
159360,note_on,0,0,2,,,,,,,,,,,,,,,0,,,33,81
159360,note_on,0,0,2,,,,,,,,,,,,,,,0,,,33,0
159360,note_on,240,0,2,,,,,,,,,,,,,,,0,,,45,0
159360,note_on,0,0,1,,,,,,,,,,,,,,,0,,,68,71
159360,note_on,120,0,1,,,,,,,,,,,,,,,0,,,69,0
159360,set_tempo,1920,1,0,,,,,,,,,,,,393443,,,,,,,
159480,note_on,0,0,1,,,,,,,,,,,,,,,0,,,65,64
159480,note_on,120,0,1,,,,,,,,,,,,,,,0,,,68,0
159600,note_on,240,0,2,,,,,,,,,,,,,,,0,,,45,0
159600,note_on,120,0,1,,,,,,,,,,,,,,,0,,,65,0
159600,note_on,0,0,2,,,,,,,,,,,,,,,0,,,33,0
159600,set_tempo,240,1,0,,,,,,,,,,,,418118,,,,,,,
159600,note_on,0,0,1,,,,,,,,,,,,,,,0,,,64,64
159600,note_on,0,0,2,,,,,,,,,,,,,,,0,,,48,90
159600,note_on,0,0,2,,,,,,,,,,,,,,,0,,,36,75
159720,note_on,0,0,1,,,,,,,,,,,,,,,0,,,62,64
159720,note_on,120,0,1,,,,,,,,,,,,,,,0,,,64,0
159840,set_tempo,240,1,0,,,,,,,,,,,,410959,,,,,,,
159840,note_on,0,0,2,,,,,,,,,,,,,,,0,,,47,93
159840,note_on,0,0,2,,,,,,,,,,,,,,,0,,,35,79
159840,note_on,0,0,2,,,,,,,,,,,,,,,0,,,36,0
159840,note_on,240,0,2,,,,,,,,,,,,,,,0,,,48,0
159840,note_on,0,0,1,,,,,,,,,,,,,,,0,,,68,63
159840,note_on,120,0,1,,,,,,,,,,,,,,,0,,,62,0
159874,control_change,34,0,2,,,,,,,,,,,,,,,0,64,127,,
159960,note_on,0,0,1,,,,,,,,,,,,,,,0,,,65,57
159960,note_on,120,0,1,,,,,,,,,,,,,,,0,,,68,0
160080,note_on,0,0,1,,,,,,,,,,,,,,,0,,,64,57
160080,note_on,120,0,1,,,,,,,,,,,,,,,0,,,65,0
160200,note_on,120,0,1,,,,,,,,,,,,,,,0,,,64,0
160200,note_on,0,0,1,,,,,,,,,,,,,,,0,,,62,57
160309,control_change,435,0,2,,,,,,,,,,,,,,,0,64,0,,
160320,note_on,0,0,2,,,,,,,,,,,,,,,0,,,74,79
160320,note_on,120,0,1,,,,,,,,,,,,,,,0,,,62,0
160320,note_on,0,0,1,,,,,,,,,,,,,,,0,,,68,67
160320,note_on,11,0,2,,,,,,,,,,,,,,,0,,,47,0
160320,note_on,0,0,2,,,,,,,,,,,,,,,0,,,35,0
160320,note_on,0,0,2,,,,,,,,,,,,,,,0,,,77,93
160371,control_change,51,0,2,,,,,,,,,,,,,,,0,64,127,,
160440,note_on,120,0,1,,,,,,,,,,,,,,,0,,,68,0
160440,note_on,0,0,1,,,,,,,,,,,,,,,0,,,65,58
160560,note_on,120,0,1,,,,,,,,,,,,,,,0,,,65,0
160560,note_on,0,0,1,,,,,,,,,,,,,,,0,,,64,58
160680,note_on,120,0,1,,,,,,,,,,,,,,,0,,,64,0
160680,note_on,0,0,1,,,,,,,,,,,,,,,0,,,62,58
160800,note_on,120,0,1,,,,,,,,,,,,,,,0,,,62,0
160800,note_on,0,0,1,,,,,,,,,,,,,,,0,,,68,64
160920,note_on,120,0,1,,,,,,,,,,,,,,,0,,,68,0
160920,note_on,0,0,1,,,,,,,,,,,,,,,0,,,65,59
161040,set_tempo,1200,1,0,,,,,,,,,,,,463320,,,,,,,
161040,note_on,0,0,1,,,,,,,,,,,,,,,0,,,64,59
161040,note_on,120,0,1,,,,,,,,,,,,,,,0,,,65,0
161160,set_tempo,120,1,0,,,,,,,,,,,,402685,,,,,,,
161160,note_on,120,0,1,,,,,,,,,,,,,,,0,,,64,0
161160,note_on,0,0,1,,,,,,,,,,,,,,,0,,,62,59
161220,note_on,60,0,1,,,,,,,,,,,,,,,0,,,62,0
161220,note_on,0,0,1,,,,,,,,,,,,,,,0,,,83,81
161280,note_on,0,0,2,,,,,,,,,,,,,,,0,,,35,81
161280,note_on,0,0,2,,,,,,,,,,,,,,,0,,,47,96
161280,set_tempo,120,1,0,,,,,,,,,,,,406780,,,,,,,
161280,note_on,0,0,2,,,,,,,,,,,,,,,0,,,74,0
161280,note_on,60,0,1,,,,,,,,,,,,,,,0,,,83,0
161280,note_on,0,0,1,,,,,,,,,,,,,,,0,,,95,92
161280,note_on,909,0,2,,,,,,,,,,,,,,,0,,,77,0
161331,control_change,51,0,2,,,,,,,,,,,,,,,0,64,0,,
161520,note_on,240,0,1,,,,,,,,,,,,,,,0,,,95,0
161520,note_on,0,0,1,,,,,,,,,,,,,,,0,,,93,82
161640,note_on,120,0,1,,,,,,,,,,,,,,,0,,,93,0
161640,note_on,0,0,1,,,,,,,,,,,,,,,0,,,92,82
161760,note_on,0,0,2,,,,,,,,,,,,,,,0,,,47,90
161760,note_on,0,0,2,,,,,,,,,,,,,,,0,,,35,75
161760,note_on,429,0,2,,,,,,,,,,,,,,,0,,,47,0
161760,note_on,0,0,2,,,,,,,,,,,,,,,0,,,35,0
161760,note_on,0,0,1,,,,,,,,,,,,,,,0,,,89,81
161760,note_on,120,0,1,,,,,,,,,,,,,,,0,,,92,0
161880,note_on,0,0,1,,,,,,,,,,,,,,,0,,,88,81
161880,note_on,120,0,1,,,,,,,,,,,,,,,0,,,89,0
162000,note_on,240,0,2,,,,,,,,,,,,,,,0,,,47,0
162000,note_on,0,0,1,,,,,,,,,,,,,,,0,,,86,80
162000,note_on,0,0,2,,,,,,,,,,,,,,,0,,,35,0
162000,note_on,0,0,2,,,,,,,,,,,,,,,0,,,35,75
162000,note_on,0,0,2,,,,,,,,,,,,,,,0,,,47,90
162000,note_on,120,0,1,,,,,,,,,,,,,,,0,,,88,0
162120,note_on,120,0,1,,,,,,,,,,,,,,,0,,,86,0
162120,note_on,0,0,1,,,,,,,,,,,,,,,0,,,84,79
162240,note_on,0,0,2,,,,,,,,,,,,,,,0,,,35,81
162240,note_on,240,0,2,,,,,,,,,,,,,,,0,,,47,0
162240,note_on,0,0,2,,,,,,,,,,,,,,,0,,,35,0
162240,note_on,0,0,2,,,,,,,,,,,,,,,0,,,47,96
162240,note_on,120,0,1,,,,,,,,,,,,,,,0,,,84,0
162240,note_on,0,0,1,,,,,,,,,,,,,,,0,,,83,79
162360,note_on,120,0,1,,,,,,,,,,,,,,,0,,,83,0
162360,note_on,0,0,1,,,,,,,,,,,,,,,0,,,81,78
162480,note_on,0,0,1,,,,,,,,,,,,,,,0,,,80,78
162480,note_on,120,0,1,,,,,,,,,,,,,,,0,,,81,0
162600,note_on,0,0,1,,,,,,,,,,,,,,,0,,,77,77
162600,note_on,120,0,1,,,,,,,,,,,,,,,0,,,80,0
162720,note_on,0,0,2,,,,,,,,,,,,,,,0,,,35,0
162720,note_on,0,0,1,,,,,,,,,,,,,,,0,,,76,77
162720,note_on,120,0,1,,,,,,,,,,,,,,,0,,,77,0
162720,note_on,480,0,2,,,,,,,,,,,,,,,0,,,47,0
162720,note_on,0,0,2,,,,,,,,,,,,,,,0,,,35,75
162720,note_on,0,0,2,,,,,,,,,,,,,,,0,,,47,90
162840,note_on,120,0,1,,,,,,,,,,,,,,,0,,,76,0
162840,note_on,0,0,1,,,,,,,,,,,,,,,0,,,74,75
162960,note_on,0,0,1,,,,,,,,,,,,,,,0,,,72,74
162960,note_on,0,0,2,,,,,,,,,,,,,,,0,,,35,0
162960,note_on,120,0,1,,,,,,,,,,,,,,,0,,,74,0
162960,note_on,0,0,2,,,,,,,,,,,,,,,0,,,35,74
162960,note_on,0,0,2,,,,,,,,,,,,,,,0,,,47,88
162960,note_on,240,0,2,,,,,,,,,,,,,,,0,,,47,0
163080,note_on,0,0,1,,,,,,,,,,,,,,,0,,,71,74
163080,note_on,120,0,1,,,,,,,,,,,,,,,0,,,72,0
163200,note_on,0,0,1,,,,,,,,,,,,,,,0,,,69,71
163200,note_on,120,0,1,,,,,,,,,,,,,,,0,,,71,0
163200,note_on,240,0,2,,,,,,,,,,,,,,,0,,,47,0
163200,note_on,0,0,2,,,,,,,,,,,,,,,0,,,35,0
163200,note_on,0,0,2,,,,,,,,,,,,,,,0,,,35,81
163200,note_on,0,0,2,,,,,,,,,,,,,,,0,,,47,96
163200,set_tempo,1920,1,0,,,,,,,,,,,,393443,,,,,,,
163320,note_on,120,0,1,,,,,,,,,,,,,,,0,,,69,0
163320,note_on,0,0,1,,,,,,,,,,,,,,,0,,,63,64
163440,note_on,0,0,2,,,,,,,,,,,,,,,0,,,50,90
163440,note_on,0,0,1,,,,,,,,,,,,,,,0,,,64,64
163440,note_on,120,0,1,,,,,,,,,,,,,,,0,,,63,0
163440,note_on,0,0,2,,,,,,,,,,,,,,,0,,,38,75
163440,set_tempo,240,1,0,,,,,,,,,,,,418118,,,,,,,
163440,note_on,240,0,2,,,,,,,,,,,,,,,0,,,47,0
163440,note_on,0,0,2,,,,,,,,,,,,,,,0,,,35,0
163560,note_on,0,0,1,,,,,,,,,,,,,,,0,,,57,64
163560,note_on,120,0,1,,,,,,,,,,,,,,,0,,,64,0
163680,note_on,0,0,2,,,,,,,,,,,,,,,0,,,38,0
163680,set_tempo,240,1,0,,,,,,,,,,,,410959,,,,,,,
163680,note_on,120,0,1,,,,,,,,,,,,,,,0,,,57,0
163680,note_on,0,0,1,,,,,,,,,,,,,,,0,,,69,63
163680,note_on,0,0,2,,,,,,,,,,,,,,,0,,,36,79
163680,note_on,0,0,2,,,,,,,,,,,,,,,0,,,48,93
163680,note_on,240,0,2,,,,,,,,,,,,,,,0,,,50,0
163714,control_change,34,0,2,,,,,,,,,,,,,,,0,64,127,,
163800,note_on,120,0,1,,,,,,,,,,,,,,,0,,,69,0
163800,note_on,0,0,1,,,,,,,,,,,,,,,0,,,63,57
163920,note_on,120,0,1,,,,,,,,,,,,,,,0,,,63,0
163920,note_on,0,0,1,,,,,,,,,,,,,,,0,,,64,57
164040,note_on,120,0,1,,,,,,,,,,,,,,,0,,,64,0
164040,note_on,0,0,1,,,,,,,,,,,,,,,0,,,57,57
164149,control_change,435,0,2,,,,,,,,,,,,,,,0,64,0,,
164160,note_on,0,0,2,,,,,,,,,,,,,,,0,,,72,79
164160,note_on,0,0,2,,,,,,,,,,,,,,,0,,,36,0
164160,note_on,0,0,2,,,,,,,,,,,,,,,0,,,76,79
164160,note_on,0,0,2,,,,,,,,,,,,,,,0,,,81,93
164160,note_on,120,0,1,,,,,,,,,,,,,,,0,,,57,0
164160,note_on,11,0,2,,,,,,,,,,,,,,,0,,,48,0
164160,note_on,0,0,1,,,,,,,,,,,,,,,0,,,69,67
164211,control_change,51,0,2,,,,,,,,,,,,,,,0,64,127,,
164280,note_on,120,0,1,,,,,,,,,,,,,,,0,,,69,0
164280,note_on,0,0,1,,,,,,,,,,,,,,,0,,,63,58
164400,note_on,0,0,1,,,,,,,,,,,,,,,0,,,64,58
164400,note_on,120,0,1,,,,,,,,,,,,,,,0,,,63,0
164520,note_on,0,0,1,,,,,,,,,,,,,,,0,,,57,58
164520,note_on,120,0,1,,,,,,,,,,,,,,,0,,,64,0
164640,note_on,120,0,1,,,,,,,,,,,,,,,0,,,57,0
164640,note_on,0,0,1,,,,,,,,,,,,,,,0,,,69,64
164760,note_on,120,0,1,,,,,,,,,,,,,,,0,,,69,0
164760,note_on,0,0,1,,,,,,,,,,,,,,,0,,,63,59
164880,note_on,120,0,1,,,,,,,,,,,,,,,0,,,63,0
164880,note_on,0,0,1,,,,,,,,,,,,,,,0,,,64,59
165000,note_on,0,0,1,,,,,,,,,,,,,,,0,,,57,59
165000,note_on,120,0,1,,,,,,,,,,,,,,,0,,,64,0
165120,note_on,120,0,1,,,,,,,,,,,,,,,0,,,57,0
165120,note_on,0,0,2,,,,,,,,,,,,,,,0,,,49,91
165120,set_tempo,1440,1,0,,,,,,,,,,,,393443,,,,,,,
165120,note_on,0,0,1,,,,,,,,,,,,,,,0,,,70,67
165120,note_on,909,0,2,,,,,,,,,,,,,,,0,,,81,0
165120,note_on,0,0,2,,,,,,,,,,,,,,,0,,,76,0
165120,note_on,0,0,2,,,,,,,,,,,,,,,0,,,72,0
165120,note_on,0,0,2,,,,,,,,,,,,,,,0,,,37,77
165120,control_change,0,0,2,,,,,,,,,,,,,,,0,64,0,,
165240,note_on,0,0,1,,,,,,,,,,,,,,,0,,,64,61
165240,note_on,120,0,1,,,,,,,,,,,,,,,0,,,70,0
165360,note_on,0,0,2,,,,,,,,,,,,,,,0,,,52,84
165360,note_on,0,0,2,,,,,,,,,,,,,,,0,,,40,71
165360,set_tempo,240,1,0,,,,,,,,,,,,418118,,,,,,,
165360,note_on,240,0,2,,,,,,,,,,,,,,,0,,,49,0
165360,note_on,0,0,1,,,,,,,,,,,,,,,0,,,65,61
165360,note_on,0,0,2,,,,,,,,,,,,,,,0,,,37,0
165360,note_on,120,0,1,,,,,,,,,,,,,,,0,,,64,0
165480,note_on,0,0,1,,,,,,,,,,,,,,,0,,,58,61
165480,note_on,120,0,1,,,,,,,,,,,,,,,0,,,65,0
165600,note_on,0,0,1,,,,,,,,,,,,,,,0,,,70,60
165600,note_on,240,0,2,,,,,,,,,,,,,,,0,,,52,0
165600,note_on,0,0,2,,,,,,,,,,,,,,,0,,,40,0
165600,note_on,0,0,2,,,,,,,,,,,,,,,0,,,38,74
165600,note_on,0,0,2,,,,,,,,,,,,,,,0,,,50,88
165600,set_tempo,240,1,0,,,,,,,,,,,,410959,,,,,,,
165600,note_on,120,0,1,,,,,,,,,,,,,,,0,,,58,0
165634,control_change,34,0,2,,,,,,,,,,,,,,,0,64,127,,
165720,note_on,120,0,1,,,,,,,,,,,,,,,0,,,70,0
165720,note_on,0,0,1,,,,,,,,,,,,,,,0,,,64,53
165840,note_on,120,0,1,,,,,,,,,,,,,,,0,,,64,0
165840,note_on,0,0,1,,,,,,,,,,,,,,,0,,,65,53
165960,note_on,120,0,1,,,,,,,,,,,,,,,0,,,65,0
165960,note_on,0,0,1,,,,,,,,,,,,,,,0,,,58,53
166069,control_change,435,0,2,,,,,,,,,,,,,,,0,64,0,,
166080,note_on,11,0,2,,,,,,,,,,,,,,,0,,,50,0
166080,note_on,0,0,2,,,,,,,,,,,,,,,0,,,74,70
166080,note_on,0,0,2,,,,,,,,,,,,,,,0,,,82,85
166080,note_on,0,0,2,,,,,,,,,,,,,,,0,,,77,72
166080,note_on,0,0,2,,,,,,,,,,,,,,,0,,,38,0
166080,note_on,120,0,1,,,,,,,,,,,,,,,0,,,58,0
166080,note_on,0,0,1,,,,,,,,,,,,,,,0,,,70,59
166131,control_change,51,0,2,,,,,,,,,,,,,,,0,64,127,,
166200,note_on,0,0,1,,,,,,,,,,,,,,,0,,,64,51
166200,note_on,120,0,1,,,,,,,,,,,,,,,0,,,70,0
166320,note_on,120,0,1,,,,,,,,,,,,,,,0,,,64,0
166320,note_on,0,0,1,,,,,,,,,,,,,,,0,,,65,51
166440,note_on,0,0,1,,,,,,,,,,,,,,,0,,,58,51
166440,note_on,120,0,1,,,,,,,,,,,,,,,0,,,65,0
166560,note_on,0,0,1,,,,,,,,,,,,,,,0,,,70,58
166560,note_on,120,0,1,,,,,,,,,,,,,,,0,,,58,0
166680,note_on,120,0,1,,,,,,,,,,,,,,,0,,,70,0
166680,note_on,0,0,1,,,,,,,,,,,,,,,0,,,64,52
166800,note_on,120,0,1,,,,,,,,,,,,,,,0,,,64,0
166800,note_on,0,0,1,,,,,,,,,,,,,,,0,,,65,52
166920,note_on,120,0,1,,,,,,,,,,,,,,,0,,,65,0
166920,note_on,0,0,1,,,,,,,,,,,,,,,0,,,58,52
167000,set_tempo,1400,1,0,,,,,,,,,,,,410959,,,,,,,
167010,set_tempo,10,1,0,,,,,,,,,,,,410959,,,,,,,
167040,note_on,909,0,2,,,,,,,,,,,,,,,0,,,82,0
167040,note_on,0,0,2,,,,,,,,,,,,,,,0,,,77,0
167040,note_on,0,0,2,,,,,,,,,,,,,,,0,,,74,0
167040,note_on,0,0,2,,,,,,,,,,,,,,,0,,,40,52
167040,note_on,0,0,2,,,,,,,,,,,,,,,0,,,52,52
167040,note_on,120,0,1,,,,,,,,,,,,,,,0,,,58,0
167040,note_on,0,0,1,,,,,,,,,,,,,,,0,,,73,53
167049,control_change,9,0,2,,,,,,,,,,,,,,,0,64,0,,
167103,control_change,54,0,2,,,,,,,,,,,,,,,0,64,127,,
167160,note_on,120,0,1,,,,,,,,,,,,,,,0,,,73,0
167160,note_on,0,0,1,,,,,,,,,,,,,,,0,,,66,47
167170,set_tempo,160,1,0,,,,,,,,,,,,409556,,,,,,,
167280,note_on,0,0,1,,,,,,,,,,,,,,,0,,,67,47
167280,note_on,120,0,1,,,,,,,,,,,,,,,0,,,66,0
167330,set_tempo,160,1,0,,,,,,,,,,,,408163,,,,,,,
167400,note_on,0,0,1,,,,,,,,,,,,,,,0,,,61,48
167400,note_on,120,0,1,,,,,,,,,,,,,,,0,,,67,0
167490,set_tempo,160,1,0,,,,,,,,,,,,406780,,,,,,,
167520,note_on,417,0,2,,,,,,,,,,,,,,,0,,,52,0
167520,note_on,0,0,1,,,,,,,,,,,,,,,0,,,74,54
167520,note_on,0,0,2,,,,,,,,,,,,,,,0,,,53,55
167520,note_on,0,0,2,,,,,,,,,,,,,,,0,,,41,55
167520,note_on,0,0,2,,,,,,,,,,,,,,,0,,,40,0
167520,note_on,120,0,1,,,,,,,,,,,,,,,0,,,61,0
167530,control_change,10,0,2,,,,,,,,,,,,,,,0,64,0,,
167594,control_change,64,0,2,,,,,,,,,,,,,,,0,64,127,,
167640,note_on,0,0,1,,,,,,,,,,,,,,,0,,,68,48
167640,note_on,120,0,1,,,,,,,,,,,,,,,0,,,74,0
167650,set_tempo,160,1,0,,,,,,,,,,,,405405,,,,,,,
167760,note_on,0,0,1,,,,,,,,,,,,,,,0,,,69,48
167760,note_on,120,0,1,,,,,,,,,,,,,,,0,,,68,0
167810,set_tempo,160,1,0,,,,,,,,,,,,404040,,,,,,,
167880,note_on,0,0,1,,,,,,,,,,,,,,,0,,,62,49
167880,note_on,120,0,1,,,,,,,,,,,,,,,0,,,69,0
167970,set_tempo,160,1,0,,,,,,,,,,,,402685,,,,,,,
168000,note_on,0,0,2,,,,,,,,,,,,,,,0,,,41,0
168000,note_on,406,0,2,,,,,,,,,,,,,,,0,,,53,0
168000,note_on,120,0,1,,,,,,,,,,,,,,,0,,,62,0
168000,note_on,0,0,1,,,,,,,,,,,,,,,0,,,76,55
168000,note_on,0,0,2,,,,,,,,,,,,,,,0,,,56,58
168000,note_on,0,0,2,,,,,,,,,,,,,,,0,,,44,58
168010,control_change,10,0,2,,,,,,,,,,,,,,,0,64,0,,
168069,control_change,59,0,2,,,,,,,,,,,,,,,0,64,127,,
168120,note_on,120,0,1,,,,,,,,,,,,,,,0,,,76,0
168120,note_on,0,0,1,,,,,,,,,,,,,,,0,,,70,49
168130,set_tempo,160,1,0,,,,,,,,,,,,401338,,,,,,,
168240,note_on,120,0,1,,,,,,,,,,,,,,,0,,,70,0
168240,note_on,0,0,1,,,,,,,,,,,,,,,0,,,71,49
168290,set_tempo,160,1,0,,,,,,,,,,,,400000,,,,,,,
168360,note_on,120,0,1,,,,,,,,,,,,,,,0,,,71,0
168360,note_on,0,0,1,,,,,,,,,,,,,,,0,,,64,49
168450,set_tempo,160,1,0,,,,,,,,,,,,398671,,,,,,,
168480,note_on,120,0,1,,,,,,,,,,,,,,,0,,,64,0
168480,note_on,0,0,2,,,,,,,,,,,,,,,0,,,57,60
168480,note_on,0,0,2,,,,,,,,,,,,,,,0,,,45,60
168480,note_on,0,0,2,,,,,,,,,,,,,,,0,,,44,0
168480,note_on,411,0,2,,,,,,,,,,,,,,,0,,,56,0
168480,note_on,0,0,1,,,,,,,,,,,,,,,0,,,77,56
168489,control_change,9,0,2,,,,,,,,,,,,,,,0,64,0,,
168549,control_change,60,0,2,,,,,,,,,,,,,,,0,64,127,,
168600,note_on,120,0,1,,,,,,,,,,,,,,,0,,,77,0
168600,note_on,0,0,1,,,,,,,,,,,,,,,0,,,71,49
168610,set_tempo,160,1,0,,,,,,,,,,,,397351,,,,,,,
168720,note_on,0,0,1,,,,,,,,,,,,,,,0,,,72,49
168720,note_on,120,0,1,,,,,,,,,,,,,,,0,,,71,0
168770,set_tempo,160,1,0,,,,,,,,,,,,396040,,,,,,,
168840,note_on,0,0,1,,,,,,,,,,,,,,,0,,,65,50
168840,note_on,120,0,1,,,,,,,,,,,,,,,0,,,72,0
168960,note_on,0,0,1,,,,,,,,,,,,,,,0,,,80,57
168960,note_on,120,0,1,,,,,,,,,,,,,,,0,,,65,0
168960,note_on,411,0,2,,,,,,,,,,,,,,,0,,,57,0
168960,note_on,0,0,2,,,,,,,,,,,,,,,0,,,45,0
168960,note_on,0,0,2,,,,,,,,,,,,,,,0,,,47,63
168960,note_on,0,0,2,,,,,,,,,,,,,,,0,,,59,63
168970,control_change,10,0,2,,,,,,,,,,,,,,,0,64,0,,
169011,control_change,41,0,2,,,,,,,,,,,,,,,0,64,127,,
169080,note_on,0,0,1,,,,,,,,,,,,,,,0,,,75,52
169080,note_on,120,0,1,,,,,,,,,,,,,,,0,,,80,0
169200,note_on,120,0,1,,,,,,,,,,,,,,,0,,,75,0
169200,note_on,0,0,1,,,,,,,,,,,,,,,0,,,76,53
169320,note_on,120,0,1,,,,,,,,,,,,,,,0,,,76,0
169320,note_on,0,0,1,,,,,,,,,,,,,,,0,,,68,54
169440,note_on,429,0,2,,,,,,,,,,,,,,,0,,,59,0
169440,note_on,120,0,1,,,,,,,,,,,,,,,0,,,68,0
169440,set_tempo,670,1,0,,,,,,,,,,,,401338,,,,,,,
169440,note_on,0,0,2,,,,,,,,,,,,,,,0,,,48,66
169440,note_on,0,0,1,,,,,,,,,,,,,,,0,,,81,59
169440,note_on,0,0,2,,,,,,,,,,,,,,,0,,,60,66
169440,note_on,0,0,2,,,,,,,,,,,,,,,0,,,47,0
169450,control_change,10,0,2,,,,,,,,,,,,,,,0,64,0,,
169497,control_change,47,0,2,,,,,,,,,,,,,,,0,64,127,,
169560,note_on,0,0,1,,,,,,,,,,,,,,,0,,,75,52
169560,note_on,120,0,1,,,,,,,,,,,,,,,0,,,81,0
169680,note_on,0,0,1,,,,,,,,,,,,,,,0,,,76,53
169680,note_on,120,0,1,,,,,,,,,,,,,,,0,,,75,0
169800,note_on,120,0,1,,,,,,,,,,,,,,,0,,,76,0
169800,note_on,0,0,1,,,,,,,,,,,,,,,0,,,69,53
169920,note_on,0,0,2,,,,,,,,,,,,,,,0,,,53,68
169920,note_on,0,0,1,,,,,,,,,,,,,,,0,,,83,66
169920,set_tempo,480,1,0,,,,,,,,,,,,396040,,,,,,,
169920,note_on,0,0,2,,,,,,,,,,,,,,,0,,,65,68
169920,note_on,0,0,2,,,,,,,,,,,,,,,0,,,48,0
169920,note_on,423,0,2,,,,,,,,,,,,,,,0,,,60,0
169920,note_on,120,0,1,,,,,,,,,,,,,,,0,,,69,0
169930,control_change,10,0,2,,,,,,,,,,,,,,,0,64,0,,
169977,control_change,47,0,2,,,,,,,,,,,,,,,0,64,127,,
170040,note_on,0,0,1,,,,,,,,,,,,,,,0,,,75,54
170040,note_on,120,0,1,,,,,,,,,,,,,,,0,,,83,0
170160,note_on,0,0,1,,,,,,,,,,,,,,,0,,,81,53
170160,note_on,120,0,1,,,,,,,,,,,,,,,0,,,75,0
170280,note_on,0,0,1,,,,,,,,,,,,,,,0,,,71,52
170280,note_on,120,0,1,,,,,,,,,,,,,,,0,,,81,0
170400,note_on,0,0,2,,,,,,,,,,,,,,,0,,,65,0
170400,note_on,0,0,2,,,,,,,,,,,,,,,0,,,64,65
170400,note_on,120,0,1,,,,,,,,,,,,,,,0,,,71,0
170400,note_on,0,0,1,,,,,,,,,,,,,,,0,,,84,57
170400,note_on,0,0,2,,,,,,,,,,,,,,,0,,,52,65
170400,note_on,423,0,2,,,,,,,,,,,,,,,0,,,53,0
170409,control_change,9,0,2,,,,,,,,,,,,,,,0,64,0,,
170466,control_change,57,0,2,,,,,,,,,,,,,,,0,64,127,,
170520,note_on,120,0,1,,,,,,,,,,,,,,,0,,,84,0
170520,note_on,0,0,1,,,,,,,,,,,,,,,0,,,76,49
170640,note_on,0,0,1,,,,,,,,,,,,,,,0,,,80,48
170640,note_on,120,0,1,,,,,,,,,,,,,,,0,,,76,0
170760,note_on,0,0,1,,,,,,,,,,,,,,,0,,,72,48
170760,note_on,120,0,1,,,,,,,,,,,,,,,0,,,80,0
170880,note_on,414,0,2,,,,,,,,,,,,,,,0,,,64,0
170880,note_on,0,0,1,,,,,,,,,,,,,,,0,,,93,79
170880,note_on,120,0,1,,,,,,,,,,,,,,,0,,,72,0
170880,note_on,0,0,2,,,,,,,,,,,,,,,0,,,52,0
170880,note_on,0,0,2,,,,,,,,,,,,,,,0,,,33,75
170880,control_change,0,0,2,,,,,,,,,,,,,,,0,64,0,,
170880,set_tempo,960,1,0,,,,,,,,,,,,406780,,,,,,,
170880,note_on,0,0,1,,,,,,,,,,,,,,,0,,,81,66
170937,control_change,57,0,2,,,,,,,,,,,,,,,0,64,127,,
171120,note_on,183,0,2,,,,,,,,,,,,,,,0,,,33,0
171120,note_on,0,0,2,,,,,,,,,,,,,,,0,,,35,67
171240,note_on,0,0,2,,,,,,,,,,,,,,,0,,,36,67
171240,note_on,120,0,2,,,,,,,,,,,,,,,0,,,35,0
171360,note_on,0,0,1,,,,,,,,,,,,,,,0,,,93,73
171360,note_on,0,0,1,,,,,,,,,,,,,,,0,,,81,62
171360,note_on,0,0,1,,,,,,,,,,,,,,,0,,,81,0
171360,note_on,480,0,1,,,,,,,,,,,,,,,0,,,93,0
171360,note_on,120,0,2,,,,,,,,,,,,,,,0,,,36,0
171360,note_on,0,0,2,,,,,,,,,,,,,,,0,,,38,66
171370,control_change,10,0,2,,,,,,,,,,,,,,,0,64,0,,
171434,control_change,64,0,2,,,,,,,,,,,,,,,0,64,127,,
171480,note_on,46,0,2,,,,,,,,,,,,,,,0,,,38,0
171480,note_on,0,0,2,,,,,,,,,,,,,,,0,,,40,66
171600,note_on,240,0,1,,,,,,,,,,,,,,,0,,,93,0
171600,note_on,0,0,1,,,,,,,,,,,,,,,0,,,81,0
171600,note_on,0,0,2,,,,,,,,,,,,,,,0,,,42,65
171600,note_on,0,0,1,,,,,,,,,,,,,,,0,,,81,62
171600,note_on,0,0,1,,,,,,,,,,,,,,,0,,,93,73
171600,note_on,120,0,2,,,,,,,,,,,,,,,0,,,40,0
171720,note_on,0,0,2,,,,,,,,,,,,,,,0,,,44,64
171720,note_on,120,0,2,,,,,,,,,,,,,,,0,,,42,0
171840,note_on,0,0,1,,,,,,,,,,,,,,,0,,,93,79
171840,note_on,0,0,1,,,,,,,,,,,,,,,0,,,81,66
171840,note_on,240,0,1,,,,,,,,,,,,,,,0,,,93,0
171840,note_on,0,0,1,,,,,,,,,,,,,,,0,,,81,0
171840,note_on,0,0,2,,,,,,,,,,,,,,,0,,,45,64
171840,note_on,120,0,2,,,,,,,,,,,,,,,0,,,44,0
171850,control_change,10,0,2,,,,,,,,,,,,,,,0,64,0,,
171914,control_change,64,0,2,,,,,,,,,,,,,,,0,64,127,,
171960,note_on,46,0,2,,,,,,,,,,,,,,,0,,,45,0
171960,note_on,0,0,2,,,,,,,,,,,,,,,0,,,47,63
172080,note_on,120,0,2,,,,,,,,,,,,,,,0,,,47,0
172080,note_on,0,0,2,,,,,,,,,,,,,,,0,,,48,63
172200,note_on,120,0,2,,,,,,,,,,,,,,,0,,,48,0
172200,note_on,0,0,2,,,,,,,,,,,,,,,0,,,50,63
172320,note_on,120,0,2,,,,,,,,,,,,,,,0,,,50,0
172320,note_on,0,0,2,,,,,,,,,,,,,,,0,,,52,63
172320,note_on,0,0,1,,,,,,,,,,,,,,,0,,,93,73
172320,note_on,0,0,1,,,,,,,,,,,,,,,0,,,81,62
172320,note_on,0,0,1,,,,,,,,,,,,,,,0,,,81,0
172320,note_on,480,0,1,,,,,,,,,,,,,,,0,,,93,0
172326,control_change,6,0,2,,,,,,,,,,,,,,,0,64,0,,
172371,control_change,45,0,2,,,,,,,,,,,,,,,0,64,127,,
172440,note_on,69,0,2,,,,,,,,,,,,,,,0,,,52,0
172440,note_on,0,0,2,,,,,,,,,,,,,,,0,,,54,62
172560,note_on,240,0,1,,,,,,,,,,,,,,,0,,,93,0
172560,note_on,0,0,1,,,,,,,,,,,,,,,0,,,81,0
172560,note_on,0,0,2,,,,,,,,,,,,,,,0,,,56,61
172560,note_on,0,0,1,,,,,,,,,,,,,,,0,,,93,72
172560,note_on,0,0,1,,,,,,,,,,,,,,,0,,,81,61
172560,note_on,120,0,2,,,,,,,,,,,,,,,0,,,54,0
172680,note_on,0,0,2,,,,,,,,,,,,,,,0,,,57,61
172680,note_on,120,0,2,,,,,,,,,,,,,,,0,,,56,0
172800,note_on,240,0,1,,,,,,,,,,,,,,,0,,,93,0
172800,note_on,0,0,1,,,,,,,,,,,,,,,0,,,81,0
172800,note_on,0,0,1,,,,,,,,,,,,,,,0,,,81,66
172800,set_tempo,1920,1,0,,,,,,,,,,,,393443,,,,,,,
172800,note_on,0,0,1,,,,,,,,,,,,,,,0,,,93,79
172800,note_on,120,0,2,,,,,,,,,,,,,,,0,,,57,0
172800,note_on,0,0,2,,,,,,,,,,,,,,,0,,,58,58
172809,control_change,9,0,2,,,,,,,,,,,,,,,0,64,0,,
172869,control_change,60,0,2,,,,,,,,,,,,,,,0,64,127,,
172920,note_on,0,0,2,,,,,,,,,,,,,,,0,,,61,53
172920,note_on,51,0,2,,,,,,,,,,,,,,,0,,,58,0
173040,set_tempo,240,1,0,,,,,,,,,,,,418118,,,,,,,
173040,note_on,0,0,2,,,,,,,,,,,,,,,0,,,62,53
173040,note_on,0,0,1,,,,,,,,,,,,,,,0,,,90,73
173040,note_on,120,0,2,,,,,,,,,,,,,,,0,,,61,0
173040,note_on,0,0,1,,,,,,,,,,,,,,,0,,,81,0
173040,note_on,240,0,1,,,,,,,,,,,,,,,0,,,93,0
173040,note_on,0,0,1,,,,,,,,,,,,,,,0,,,78,62
173160,note_on,120,0,2,,,,,,,,,,,,,,,0,,,62,0
173160,note_on,0,0,2,,,,,,,,,,,,,,,0,,,64,53
173280,note_on,120,0,2,,,,,,,,,,,,,,,0,,,64,0
173280,set_tempo,240,1,0,,,,,,,,,,,,410959,,,,,,,
173280,note_on,0,0,1,,,,,,,,,,,,,,,0,,,78,0
173280,note_on,0,0,1,,,,,,,,,,,,,,,0,,,91,76
173280,note_on,0,0,2,,,,,,,,,,,,,,,0,,,58,52
173280,note_on,0,0,1,,,,,,,,,,,,,,,0,,,79,64
173280,note_on,240,0,1,,,,,,,,,,,,,,,0,,,90,0
173290,control_change,10,0,2,,,,,,,,,,,,,,,0,64,0,,
173337,control_change,47,0,2,,,,,,,,,,,,,,,0,64,127,,
173400,note_on,63,0,2,,,,,,,,,,,,,,,0,,,58,0
173400,note_on,0,0,2,,,,,,,,,,,,,,,0,,,61,46
173520,note_on,0,0,2,,,,,,,,,,,,,,,0,,,62,46
173520,note_on,120,0,2,,,,,,,,,,,,,,,0,,,61,0
173520,set_tempo,240,1,0,,,,,,,,,,,,424028,,,,,,,
173640,note_on,0,0,2,,,,,,,,,,,,,,,0,,,64,46
173640,note_on,120,0,2,,,,,,,,,,,,,,,0,,,62,0
173760,note_on,480,0,1,,,,,,,,,,,,,,,0,,,91,0
173760,note_on,0,0,1,,,,,,,,,,,,,,,0,,,45,97
173760,note_on,0,0,2,,,,,,,,,,,,,,,0,,,58,54
173760,note_on,0,0,1,,,,,,,,,,,,,,,0,,,79,0
173760,set_tempo,240,1,0,,,,,,,,,,,,410959,,,,,,,
173760,note_on,120,0,2,,,,,,,,,,,,,,,0,,,64,0
173766,control_change,6,0,2,,,,,,,,,,,,,,,0,64,0,,
173800,control_change,34,0,2,,,,,,,,,,,,,,,0,64,127,,
173880,note_on,80,0,2,,,,,,,,,,,,,,,0,,,58,0
173880,note_on,0,0,2,,,,,,,,,,,,,,,0,,,61,47
174000,note_on,120,0,2,,,,,,,,,,,,,,,0,,,61,0
174000,note_on,0,0,2,,,,,,,,,,,,,,,0,,,62,47
174120,note_on,120,0,2,,,,,,,,,,,,,,,0,,,62,0
174120,note_on,0,0,2,,,,,,,,,,,,,,,0,,,64,47
174240,note_on,120,0,2,,,,,,,,,,,,,,,0,,,64,0
174240,note_on,0,0,2,,,,,,,,,,,,,,,0,,,58,53
174360,note_on,120,0,2,,,,,,,,,,,,,,,0,,,58,0
174360,note_on,0,0,2,,,,,,,,,,,,,,,0,,,61,48
174480,note_on,120,0,2,,,,,,,,,,,,,,,0,,,61,0
174480,note_on,0,0,2,,,,,,,,,,,,,,,0,,,62,48
174600,note_on,120,0,2,,,,,,,,,,,,,,,0,,,62,0
174600,note_on,0,0,2,,,,,,,,,,,,,,,0,,,64,48
174720,note_on,960,0,1,,,,,,,,,,,,,,,0,,,45,0
174720,note_on,0,0,2,,,,,,,,,,,,,,,0,,,37,75
174720,set_tempo,960,1,0,,,,,,,,,,,,406780,,,,,,,
174720,note_on,120,0,2,,,,,,,,,,,,,,,0,,,64,0
174720,note_on,0,0,1,,,,,,,,,,,,,,,0,,,79,66
174720,control_change,0,0,2,,,,,,,,,,,,,,,0,64,0,,
174720,note_on,0,0,1,,,,,,,,,,,,,,,0,,,91,79
174777,control_change,57,0,2,,,,,,,,,,,,,,,0,64,127,,
174960,note_on,183,0,2,,,,,,,,,,,,,,,0,,,37,0
174960,note_on,0,0,2,,,,,,,,,,,,,,,0,,,38,67
175080,note_on,120,0,2,,,,,,,,,,,,,,,0,,,38,0
175080,note_on,0,0,2,,,,,,,,,,,,,,,0,,,40,67
175200,note_on,120,0,2,,,,,,,,,,,,,,,0,,,40,0
175200,note_on,0,0,2,,,,,,,,,,,,,,,0,,,41,66
175200,note_on,0,0,1,,,,,,,,,,,,,,,0,,,91,73
175200,note_on,0,0,1,,,,,,,,,,,,,,,0,,,79,62
175200,note_on,0,0,1,,,,,,,,,,,,,,,0,,,79,0
175200,note_on,480,0,1,,,,,,,,,,,,,,,0,,,91,0
175210,control_change,10,0,2,,,,,,,,,,,,,,,0,64,0,,
175274,control_change,64,0,2,,,,,,,,,,,,,,,0,64,127,,
175320,note_on,46,0,2,,,,,,,,,,,,,,,0,,,41,0
175320,note_on,0,0,2,,,,,,,,,,,,,,,0,,,43,66
175440,note_on,120,0,2,,,,,,,,,,,,,,,0,,,43,0
175440,note_on,0,0,2,,,,,,,,,,,,,,,0,,,45,65
175440,note_on,0,0,1,,,,,,,,,,,,,,,0,,,79,62
175440,note_on,240,0,1,,,,,,,,,,,,,,,0,,,91,0
175440,note_on,0,0,1,,,,,,,,,,,,,,,0,,,79,0
175440,note_on,0,0,1,,,,,,,,,,,,,,,0,,,91,73
175560,note_on,120,0,2,,,,,,,,,,,,,,,0,,,45,0
175560,note_on,0,0,2,,,,,,,,,,,,,,,0,,,47,64
175680,note_on,120,0,2,,,,,,,,,,,,,,,0,,,47,0
175680,note_on,0,0,2,,,,,,,,,,,,,,,0,,,49,64
175680,note_on,0,0,1,,,,,,,,,,,,,,,0,,,79,0
175680,note_on,240,0,1,,,,,,,,,,,,,,,0,,,91,0
175680,note_on,0,0,1,,,,,,,,,,,,,,,0,,,91,79
175680,note_on,0,0,1,,,,,,,,,,,,,,,0,,,79,66
175690,control_change,10,0,2,,,,,,,,,,,,,,,0,64,0,,
175754,control_change,64,0,2,,,,,,,,,,,,,,,0,64,127,,
175800,note_on,0,0,2,,,,,,,,,,,,,,,0,,,50,63
175800,note_on,46,0,2,,,,,,,,,,,,,,,0,,,49,0
175920,note_on,0,0,2,,,,,,,,,,,,,,,0,,,52,63
175920,note_on,120,0,2,,,,,,,,,,,,,,,0,,,50,0
176040,note_on,0,0,2,,,,,,,,,,,,,,,0,,,53,63
176040,note_on,120,0,2,,,,,,,,,,,,,,,0,,,52,0
176160,note_on,0,0,1,,,,,,,,,,,,,,,0,,,79,62
176160,note_on,0,0,1,,,,,,,,,,,,,,,0,,,79,0
176160,note_on,480,0,1,,,,,,,,,,,,,,,0,,,91,0
176160,note_on,120,0,2,,,,,,,,,,,,,,,0,,,53,0
176160,note_on,0,0,1,,,,,,,,,,,,,,,0,,,91,73
176160,note_on,0,0,2,,,,,,,,,,,,,,,0,,,55,63
176166,control_change,6,0,2,,,,,,,,,,,,,,,0,64,0,,
176211,control_change,45,0,2,,,,,,,,,,,,,,,0,64,127,,
176280,note_on,69,0,2,,,,,,,,,,,,,,,0,,,55,0
176280,note_on,0,0,2,,,,,,,,,,,,,,,0,,,57,62
176400,note_on,120,0,2,,,,,,,,,,,,,,,0,,,57,0
176400,note_on,0,0,1,,,,,,,,,,,,,,,0,,,79,61
176400,note_on,0,0,1,,,,,,,,,,,,,,,0,,,79,0
176400,note_on,0,0,2,,,,,,,,,,,,,,,0,,,59,61
176400,note_on,240,0,1,,,,,,,,,,,,,,,0,,,91,0
176400,note_on,0,0,1,,,,,,,,,,,,,,,0,,,91,72
176520,note_on,120,0,2,,,,,,,,,,,,,,,0,,,59,0
176520,note_on,0,0,2,,,,,,,,,,,,,,,0,,,61,61
176640,note_on,0,0,1,,,,,,,,,,,,,,,0,,,79,66
176640,note_on,0,0,1,,,,,,,,,,,,,,,0,,,79,0
176640,set_tempo,1920,1,0,,,,,,,,,,,,393443,,,,,,,
176640,note_on,0,0,2,,,,,,,,,,,,,,,0,,,62,58
176640,note_on,0,0,1,,,,,,,,,,,,,,,0,,,91,79
176640,note_on,240,0,1,,,,,,,,,,,,,,,0,,,91,0
176640,note_on,120,0,2,,,,,,,,,,,,,,,0,,,61,0
176649,control_change,9,0,2,,,,,,,,,,,,,,,0,64,0,,
176709,control_change,60,0,2,,,,,,,,,,,,,,,0,64,127,,
176760,note_on,51,0,2,,,,,,,,,,,,,,,0,,,62,0
176760,note_on,0,0,2,,,,,,,,,,,,,,,0,,,65,53
176880,note_on,0,0,1,,,,,,,,,,,,,,,0,,,79,0
176880,note_on,120,0,2,,,,,,,,,,,,,,,0,,,65,0
176880,note_on,0,0,2,,,,,,,,,,,,,,,0,,,68,53
176880,note_on,0,0,1,,,,,,,,,,,,,,,0,,,76,62
176880,set_tempo,240,1,0,,,,,,,,,,,,418118,,,,,,,
176880,note_on,240,0,1,,,,,,,,,,,,,,,0,,,91,0
176880,note_on,0,0,1,,,,,,,,,,,,,,,0,,,88,73
177000,note_on,120,0,2,,,,,,,,,,,,,,,0,,,68,0
177000,note_on,0,0,2,,,,,,,,,,,,,,,0,,,69,53
177120,note_on,240,0,1,,,,,,,,,,,,,,,0,,,88,0
177120,note_on,0,0,1,,,,,,,,,,,,,,,0,,,76,0
177120,note_on,0,0,1,,,,,,,,,,,,,,,0,,,77,64
177120,note_on,0,0,1,,,,,,,,,,,,,,,0,,,89,76
177120,set_tempo,240,1,0,,,,,,,,,,,,410959,,,,,,,
177120,note_on,120,0,2,,,,,,,,,,,,,,,0,,,69,0
177120,note_on,0,0,2,,,,,,,,,,,,,,,0,,,62,52
177130,control_change,10,0,2,,,,,,,,,,,,,,,0,64,0,,
177177,control_change,47,0,2,,,,,,,,,,,,,,,0,64,127,,
177240,note_on,63,0,2,,,,,,,,,,,,,,,0,,,62,0
177240,note_on,0,0,2,,,,,,,,,,,,,,,0,,,65,46
177360,note_on,120,0,2,,,,,,,,,,,,,,,0,,,65,0
177360,note_on,0,0,2,,,,,,,,,,,,,,,0,,,68,46
177360,set_tempo,240,1,0,,,,,,,,,,,,422535,,,,,,,
177480,note_on,120,0,2,,,,,,,,,,,,,,,0,,,68,0
177480,note_on,0,0,2,,,,,,,,,,,,,,,0,,,69,46
177600,note_on,0,0,1,,,,,,,,,,,,,,,0,,,77,0
177600,note_on,0,0,1,,,,,,,,,,,,,,,0,,,45,97
177600,note_on,480,0,1,,,,,,,,,,,,,,,0,,,89,0
177600,set_tempo,240,1,0,,,,,,,,,,,,410959,,,,,,,
177600,note_on,120,0,2,,,,,,,,,,,,,,,0,,,69,0
177600,note_on,0,0,2,,,,,,,,,,,,,,,0,,,62,54
177606,control_change,6,0,2,,,,,,,,,,,,,,,0,64,0,,
177640,control_change,34,0,2,,,,,,,,,,,,,,,0,64,127,,
177720,note_on,0,0,2,,,,,,,,,,,,,,,0,,,65,47
177720,note_on,80,0,2,,,,,,,,,,,,,,,0,,,62,0
177840,note_on,0,0,2,,,,,,,,,,,,,,,0,,,68,47
177840,note_on,120,0,2,,,,,,,,,,,,,,,0,,,65,0
177960,note_on,120,0,2,,,,,,,,,,,,,,,0,,,68,0
177960,note_on,0,0,2,,,,,,,,,,,,,,,0,,,69,47
178080,note_on,120,0,2,,,,,,,,,,,,,,,0,,,69,0
178080,note_on,0,0,2,,,,,,,,,,,,,,,0,,,62,53
178200,note_on,120,0,2,,,,,,,,,,,,,,,0,,,62,0
178200,note_on,0,0,2,,,,,,,,,,,,,,,0,,,65,48
178320,note_on,120,0,2,,,,,,,,,,,,,,,0,,,65,0
178320,note_on,0,0,2,,,,,,,,,,,,,,,0,,,68,48
178440,note_on,0,0,2,,,,,,,,,,,,,,,0,,,69,48
178440,note_on,120,0,2,,,,,,,,,,,,,,,0,,,68,0
178560,note_on,0,0,2,,,,,,,,,,,,,,,0,,,60,55
178560,note_on,120,0,2,,,,,,,,,,,,,,,0,,,69,0
178560,note_on,0,0,1,,,,,,,,,,,,,,,0,,,89,75
178560,note_on,960,0,1,,,,,,,,,,,,,,,0,,,45,0
178560,note_on,0,0,1,,,,,,,,,,,,,,,0,,,77,62
178560,set_tempo,960,1,0,,,,,,,,,,,,393443,,,,,,,
178569,control_change,9,0,2,,,,,,,,,,,,,,,0,64,0,,
178629,control_change,60,0,2,,,,,,,,,,,,,,,0,64,127,,
178680,note_on,0,0,2,,,,,,,,,,,,,,,0,,,64,50
178680,note_on,51,0,2,,,,,,,,,,,,,,,0,,,60,0
178800,note_on,240,0,1,,,,,,,,,,,,,,,0,,,89,0
178800,set_tempo,240,1,0,,,,,,,,,,,,418118,,,,,,,
178800,note_on,0,0,2,,,,,,,,,,,,,,,0,,,68,49
178800,note_on,120,0,2,,,,,,,,,,,,,,,0,,,64,0
178800,note_on,0,0,1,,,,,,,,,,,,,,,0,,,77,0
178800,note_on,0,0,1,,,,,,,,,,,,,,,0,,,87,68
178800,note_on,0,0,1,,,,,,,,,,,,,,,0,,,75,58
178920,note_on,0,0,2,,,,,,,,,,,,,,,0,,,69,49
178920,note_on,120,0,2,,,,,,,,,,,,,,,0,,,68,0
179040,set_tempo,240,1,0,,,,,,,,,,,,410959,,,,,,,
179040,note_on,0,0,1,,,,,,,,,,,,,,,0,,,75,0
179040,note_on,0,0,1,,,,,,,,,,,,,,,0,,,76,58
179040,note_on,0,0,1,,,,,,,,,,,,,,,0,,,88,69
179040,note_on,120,0,2,,,,,,,,,,,,,,,0,,,69,0
179040,note_on,0,0,2,,,,,,,,,,,,,,,0,,,60,47
179040,note_on,240,0,1,,,,,,,,,,,,,,,0,,,87,0
179050,control_change,10,0,2,,,,,,,,,,,,,,,0,64,0,,
179097,control_change,47,0,2,,,,,,,,,,,,,,,0,64,127,,
179160,note_on,63,0,2,,,,,,,,,,,,,,,0,,,60,0
179160,note_on,0,0,2,,,,,,,,,,,,,,,0,,,64,42
179280,set_tempo,240,1,0,,,,,,,,,,,,422535,,,,,,,
179280,note_on,0,0,2,,,,,,,,,,,,,,,0,,,68,41
179280,note_on,120,0,2,,,,,,,,,,,,,,,0,,,64,0
179400,note_on,0,0,2,,,,,,,,,,,,,,,0,,,69,41
179400,note_on,120,0,2,,,,,,,,,,,,,,,0,,,68,0
179520,note_on,0,0,1,,,,,,,,,,,,,,,0,,,45,86
179520,note_on,0,0,2,,,,,,,,,,,,,,,0,,,60,48
179520,note_on,120,0,2,,,,,,,,,,,,,,,0,,,69,0
179520,note_on,0,0,1,,,,,,,,,,,,,,,0,,,76,0
179520,note_on,480,0,1,,,,,,,,,,,,,,,0,,,88,0
179520,set_tempo,240,1,0,,,,,,,,,,,,410959,,,,,,,
179526,control_change,6,0,2,,,,,,,,,,,,,,,0,64,0,,
179560,control_change,34,0,2,,,,,,,,,,,,,,,0,64,127,,
179640,note_on,0,0,2,,,,,,,,,,,,,,,0,,,64,41
179640,note_on,80,0,2,,,,,,,,,,,,,,,0,,,60,0
179760,note_on,120,0,2,,,,,,,,,,,,,,,0,,,64,0
179760,note_on,0,0,2,,,,,,,,,,,,,,,0,,,68,41
179880,note_on,120,0,2,,,,,,,,,,,,,,,0,,,68,0
179880,note_on,0,0,2,,,,,,,,,,,,,,,0,,,69,40
180000,note_on,120,0,2,,,,,,,,,,,,,,,0,,,69,0
180000,note_on,0,0,2,,,,,,,,,,,,,,,0,,,60,45
180120,note_on,120,0,2,,,,,,,,,,,,,,,0,,,60,0
180120,note_on,0,0,2,,,,,,,,,,,,,,,0,,,64,40
180240,note_on,120,0,2,,,,,,,,,,,,,,,0,,,64,0
180240,note_on,0,0,2,,,,,,,,,,,,,,,0,,,68,40
180360,note_on,120,0,2,,,,,,,,,,,,,,,0,,,68,0
180360,note_on,0,0,2,,,,,,,,,,,,,,,0,,,69,40
180480,note_on,0,0,1,,,,,,,,,,,,,,,0,,,88,65
180480,note_on,0,0,1,,,,,,,,,,,,,,,0,,,76,54
180480,note_on,960,0,1,,,,,,,,,,,,,,,0,,,45,0
180480,note_on,0,0,2,,,,,,,,,,,,,,,0,,,59,48
180480,note_on,120,0,2,,,,,,,,,,,,,,,0,,,69,0
180480,set_tempo,960,1,0,,,,,,,,,,,,398671,,,,,,,
180489,control_change,9,0,2,,,,,,,,,,,,,,,0,64,0,,
180549,control_change,60,0,2,,,,,,,,,,,,,,,0,64,127,,
180600,note_on,0,0,2,,,,,,,,,,,,,,,0,,,62,43
180600,note_on,51,0,2,,,,,,,,,,,,,,,0,,,59,0
180720,note_on,0,0,1,,,,,,,,,,,,,,,0,,,73,50
180720,set_tempo,240,1,0,,,,,,,,,,,,427046,,,,,,,
180720,note_on,240,0,1,,,,,,,,,,,,,,,0,,,88,0
180720,note_on,0,0,1,,,,,,,,,,,,,,,0,,,76,0
180720,note_on,0,0,1,,,,,,,,,,,,,,,0,,,85,59
180720,note_on,0,0,2,,,,,,,,,,,,,,,0,,,68,42
180720,note_on,120,0,2,,,,,,,,,,,,,,,0,,,62,0
180840,note_on,0,0,2,,,,,,,,,,,,,,,0,,,69,42
180840,note_on,120,0,2,,,,,,,,,,,,,,,0,,,68,0
180960,note_on,240,0,1,,,,,,,,,,,,,,,0,,,85,0
180960,note_on,0,0,1,,,,,,,,,,,,,,,0,,,73,0
180960,set_tempo,240,1,0,,,,,,,,,,,,416667,,,,,,,
180960,note_on,0,0,1,,,,,,,,,,,,,,,0,,,86,60
180960,note_on,0,0,2,,,,,,,,,,,,,,,0,,,59,41
180960,note_on,120,0,2,,,,,,,,,,,,,,,0,,,69,0
180960,note_on,0,0,1,,,,,,,,,,,,,,,0,,,74,51
180970,control_change,10,0,2,,,,,,,,,,,,,,,0,64,0,,
181017,control_change,47,0,2,,,,,,,,,,,,,,,0,64,127,,
181080,note_on,63,0,2,,,,,,,,,,,,,,,0,,,59,0
181080,note_on,0,0,2,,,,,,,,,,,,,,,0,,,62,36
181200,set_tempo,240,1,0,,,,,,,,,,,,422535,,,,,,,
181200,note_on,120,0,2,,,,,,,,,,,,,,,0,,,62,0
181200,note_on,0,0,2,,,,,,,,,,,,,,,0,,,68,35
181320,note_on,120,0,2,,,,,,,,,,,,,,,0,,,68,0
181320,note_on,0,0,2,,,,,,,,,,,,,,,0,,,69,35
181440,set_tempo,240,1,0,,,,,,,,,,,,410959,,,,,,,
181440,note_on,0,0,1,,,,,,,,,,,,,,,0,,,45,74
181440,note_on,0,0,2,,,,,,,,,,,,,,,0,,,59,41
181440,note_on,480,0,1,,,,,,,,,,,,,,,0,,,86,0
181440,note_on,0,0,1,,,,,,,,,,,,,,,0,,,74,0
181440,note_on,120,0,2,,,,,,,,,,,,,,,0,,,69,0
181446,control_change,6,0,2,,,,,,,,,,,,,,,0,64,0,,
181480,control_change,34,0,2,,,,,,,,,,,,,,,0,64,127,,
181560,note_on,80,0,2,,,,,,,,,,,,,,,0,,,59,0
181560,note_on,0,0,2,,,,,,,,,,,,,,,0,,,62,35
181680,note_on,120,0,2,,,,,,,,,,,,,,,0,,,62,0
181680,note_on,0,0,2,,,,,,,,,,,,,,,0,,,68,35
181800,note_on,120,0,2,,,,,,,,,,,,,,,0,,,68,0
181800,note_on,0,0,2,,,,,,,,,,,,,,,0,,,69,34
181920,note_on,120,0,2,,,,,,,,,,,,,,,0,,,69,0
181920,note_on,0,0,2,,,,,,,,,,,,,,,0,,,59,39
182040,note_on,120,0,2,,,,,,,,,,,,,,,0,,,59,0
182040,note_on,0,0,2,,,,,,,,,,,,,,,0,,,62,35
182160,note_on,120,0,2,,,,,,,,,,,,,,,0,,,62,0
182160,note_on,0,0,2,,,,,,,,,,,,,,,0,,,68,34
182280,note_on,0,0,2,,,,,,,,,,,,,,,0,,,69,34
182280,note_on,120,0,2,,,,,,,,,,,,,,,0,,,68,0
182400,note_on,0,0,1,,,,,,,,,,,,,,,0,,,74,48
182400,note_on,0,0,1,,,,,,,,,,,,,,,0,,,86,58
182400,note_on,0,0,2,,,,,,,,,,,,,,,0,,,57,43
182400,note_on,120,0,2,,,,,,,,,,,,,,,0,,,69,0
182400,set_tempo,960,1,0,,,,,,,,,,,,406780,,,,,,,
182400,note_on,960,0,1,,,,,,,,,,,,,,,0,,,45,0
182409,control_change,9,0,2,,,,,,,,,,,,,,,0,64,0,,
182469,control_change,60,0,2,,,,,,,,,,,,,,,0,64,127,,
182520,note_on,0,0,2,,,,,,,,,,,,,,,0,,,60,35
182520,note_on,51,0,2,,,,,,,,,,,,,,,0,,,57,0
182640,note_on,0,0,2,,,,,,,,,,,,,,,0,,,68,35
182640,note_on,120,0,2,,,,,,,,,,,,,,,0,,,60,0
182640,set_tempo,240,1,0,,,,,,,,,,,,444444,,,,,,,
182640,note_on,0,0,1,,,,,,,,,,,,,,,0,,,83,53
182640,note_on,0,0,1,,,,,,,,,,,,,,,0,,,71,45
182640,note_on,0,0,1,,,,,,,,,,,,,,,0,,,74,0
182640,note_on,240,0,1,,,,,,,,,,,,,,,0,,,86,0
182760,note_on,120,0,2,,,,,,,,,,,,,,,0,,,68,0
182760,note_on,0,0,2,,,,,,,,,,,,,,,0,,,69,35
182880,note_on,0,0,1,,,,,,,,,,,,,,,0,,,84,54
182880,note_on,0,0,1,,,,,,,,,,,,,,,0,,,72,45
182880,note_on,0,0,1,,,,,,,,,,,,,,,0,,,71,0
182880,note_on,240,0,1,,,,,,,,,,,,,,,0,,,83,0
182880,set_tempo,240,1,0,,,,,,,,,,,,425532,,,,,,,
182880,note_on,0,0,2,,,,,,,,,,,,,,,0,,,57,35
182880,note_on,120,0,2,,,,,,,,,,,,,,,0,,,69,0
182890,control_change,10,0,2,,,,,,,,,,,,,,,0,64,0,,
182937,control_change,47,0,2,,,,,,,,,,,,,,,0,64,127,,
183000,note_on,63,0,2,,,,,,,,,,,,,,,0,,,57,0
183000,note_on,0,0,2,,,,,,,,,,,,,,,0,,,60,35
183120,note_on,120,0,2,,,,,,,,,,,,,,,0,,,60,0
183120,note_on,0,0,2,,,,,,,,,,,,,,,0,,,68,31
183120,set_tempo,240,1,0,,,,,,,,,,,,436364,,,,,,,
183240,note_on,120,0,2,,,,,,,,,,,,,,,0,,,68,0
183240,note_on,0,0,2,,,,,,,,,,,,,,,0,,,69,31
183330,set_tempo,210,1,0,,,,,,,,,,,,425532,,,,,,,
183337,control_change,97,0,2,,,,,,,,,,,,,,,0,64,0,,
183360,note_on,23,0,2,,,,,,,,,,,,,,,0,,,69,0
183360,note_on,0,0,2,,,,,,,,,,,,,,,0,,,48,40
183360,note_on,480,0,1,,,,,,,,,,,,,,,0,,,84,0
183360,note_on,0,0,1,,,,,,,,,,,,,,,0,,,72,0
183360,note_on,0,0,1,,,,,,,,,,,,,,,0,,,69,47
183360,note_on,0,0,1,,,,,,,,,,,,,,,0,,,81,56
183411,control_change,51,0,2,,,,,,,,,,,,,,,0,64,127,,
183480,note_on,0,0,2,,,,,,,,,,,,,,,0,,,57,36
183480,note_on,69,0,2,,,,,,,,,,,,,,,0,,,48,0
183600,note_on,120,0,2,,,,,,,,,,,,,,,0,,,57,0
183600,note_on,0,0,2,,,,,,,,,,,,,,,0,,,50,37
183600,note_on,0,0,1,,,,,,,,,,,,,,,0,,,83,59
183600,note_on,0,0,1,,,,,,,,,,,,,,,0,,,81,0
183600,note_on,0,0,1,,,,,,,,,,,,,,,0,,,71,50
183600,note_on,240,0,1,,,,,,,,,,,,,,,0,,,69,0
183720,note_on,120,0,2,,,,,,,,,,,,,,,0,,,50,0
183720,note_on,0,0,2,,,,,,,,,,,,,,,0,,,57,38
183840,note_on,240,0,1,,,,,,,,,,,,,,,0,,,83,0
183840,note_on,0,0,1,,,,,,,,,,,,,,,0,,,71,0
183840,note_on,0,0,1,,,,,,,,,,,,,,,0,,,72,52
183840,note_on,0,0,1,,,,,,,,,,,,,,,0,,,84,62
183840,note_on,0,0,2,,,,,,,,,,,,,,,0,,,45,46
183840,note_on,120,0,2,,,,,,,,,,,,,,,0,,,57,0
183960,note_on,0,0,2,,,,,,,,,,,,,,,0,,,57,40
183960,note_on,120,0,2,,,,,,,,,,,,,,,0,,,45,0
184080,note_on,240,0,1,,,,,,,,,,,,,,,0,,,84,0
184080,note_on,0,0,1,,,,,,,,,,,,,,,0,,,74,55
184080,note_on,0,0,1,,,,,,,,,,,,,,,0,,,86,65
184080,note_on,120,0,2,,,,,,,,,,,,,,,0,,,57,0
184080,note_on,0,0,2,,,,,,,,,,,,,,,0,,,47,41
184080,note_on,0,0,1,,,,,,,,,,,,,,,0,,,72,0
184200,note_on,120,0,2,,,,,,,,,,,,,,,0,,,47,0
184200,note_on,0,0,2,,,,,,,,,,,,,,,0,,,57,42
184320,note_on,240,0,1,,,,,,,,,,,,,,,0,,,86,0
184320,note_on,0,0,1,,,,,,,,,,,,,,,0,,,74,0
184320,note_on,0,0,1,,,,,,,,,,,,,,,0,,,88,68
184320,note_on,0,0,1,,,,,,,,,,,,,,,0,,,76,57
184320,note_on,120,0,2,,,,,,,,,,,,,,,0,,,57,0
184320,note_on,0,0,2,,,,,,,,,,,,,,,0,,,48,50
184329,control_change,9,0,2,,,,,,,,,,,,,,,0,64,0,,
184371,control_change,42,0,2,,,,,,,,,,,,,,,0,64,127,,
184440,note_on,0,0,2,,,,,,,,,,,,,,,0,,,57,43
184440,note_on,69,0,2,,,,,,,,,,,,,,,0,,,48,0
184560,note_on,0,0,2,,,,,,,,,,,,,,,0,,,52,43
184560,set_tempo,1230,1,0,,,,,,,,,,,,451128,,,,,,,
184560,note_on,120,0,2,,,,,,,,,,,,,,,0,,,57,0
184680,note_on,0,0,2,,,,,,,,,,,,,,,0,,,57,43
184680,note_on,120,0,2,,,,,,,,,,,,,,,0,,,52,0
184800,note_on,120,0,2,,,,,,,,,,,,,,,0,,,57,0
184800,set_tempo,240,1,0,,,,,,,,,,,,436364,,,,,,,
184800,note_on,0,0,1,,,,,,,,,,,,,,,0,,,74,56
184800,note_on,0,0,1,,,,,,,,,,,,,,,0,,,86,66
184800,note_on,0,0,2,,,,,,,,,,,,,,,0,,,50,47
184800,note_on,0,0,1,,,,,,,,,,,,,,,0,,,88,0
184800,note_on,480,0,1,,,,,,,,,,,,,,,0,,,76,0
184920,note_on,120,0,2,,,,,,,,,,,,,,,0,,,50,0
184920,note_on,0,0,2,,,,,,,,,,,,,,,0,,,57,39
185040,note_on,120,0,2,,,,,,,,,,,,,,,0,,,57,0
185040,note_on,0,0,2,,,,,,,,,,,,,,,0,,,53,39
185160,note_on,0,0,1,,,,,,,,,,,,,,,0,,,84,55
185160,note_on,120,0,2,,,,,,,,,,,,,,,0,,,53,0
185160,note_on,360,0,1,,,,,,,,,,,,,,,0,,,86,0
185160,note_on,0,0,1,,,,,,,,,,,,,,,0,,,74,0
185160,note_on,0,0,1,,,,,,,,,,,,,,,0,,,72,46
185160,set_tempo,360,1,0,,,,,,,,,,,,444444,,,,,,,
185160,note_on,0,0,2,,,,,,,,,,,,,,,0,,,57,39
185280,note_on,0,0,1,,,,,,,,,,,,,,,0,,,72,0
185280,note_on,0,0,2,,,,,,,,,,,,,,,0,,,52,45
185280,note_on,120,0,2,,,,,,,,,,,,,,,0,,,57,0
185280,note_on,0,0,1,,,,,,,,,,,,,,,0,,,72,51
185280,note_on,0,0,1,,,,,,,,,,,,,,,0,,,84,61
185280,note_on,120,0,1,,,,,,,,,,,,,,,0,,,84,0
185290,control_change,10,0,2,,,,,,,,,,,,,,,0,64,0,,
185337,control_change,47,0,2,,,,,,,,,,,,,,,0,64,127,,
185400,note_on,0,0,2,,,,,,,,,,,,,,,0,,,60,35
185400,note_on,63,0,2,,,,,,,,,,,,,,,0,,,52,0
185520,note_on,0,0,2,,,,,,,,,,,,,,,0,,,57,35
185520,note_on,120,0,2,,,,,,,,,,,,,,,0,,,60,0
185640,note_on,120,0,2,,,,,,,,,,,,,,,0,,,57,0
185640,note_on,0,0,2,,,,,,,,,,,,,,,0,,,60,35
185760,note_on,0,0,1,,,,,,,,,,,,,,,0,,,84,0
185760,note_on,0,0,2,,,,,,,,,,,,,,,0,,,52,46
185760,note_on,480,0,1,,,,,,,,,,,,,,,0,,,72,0
185760,note_on,120,0,2,,,,,,,,,,,,,,,0,,,60,0
185760,note_on,0,0,1,,,,,,,,,,,,,,,0,,,71,47
185760,note_on,0,0,1,,,,,,,,,,,,,,,0,,,83,56
185800,set_tempo,640,1,0,,,,,,,,,,,,463320,,,,,,,
185880,note_on,120,0,2,,,,,,,,,,,,,,,0,,,52,0
185880,note_on,0,0,2,,,,,,,,,,,,,,,0,,,62,35
186000,note_on,120,0,2,,,,,,,,,,,,,,,0,,,62,0
186000,note_on,0,0,2,,,,,,,,,,,,,,,0,,,56,35
186120,note_on,120,0,2,,,,,,,,,,,,,,,0,,,56,0
186120,note_on,0,0,2,,,,,,,,,,,,,,,0,,,62,35
186240,note_on,120,0,2,,,,,,,,,,,,,,,0,,,62,0
186240,note_on,0,0,2,,,,,,,,,,,,,,,0,,,53,41
186240,note_on,0,0,1,,,,,,,,,,,,,,,0,,,71,0
186240,set_tempo,440,1,0,,,,,,,,,,,,446097,,,,,,,
186240,note_on,480,0,1,,,,,,,,,,,,,,,0,,,83,0
186240,note_on,0,0,1,,,,,,,,,,,,,,,0,,,80,59
186240,note_on,0,0,1,,,,,,,,,,,,,,,0,,,68,50
186246,control_change,6,0,2,,,,,,,,,,,,,,,0,64,0,,
186304,control_change,58,0,2,,,,,,,,,,,,,,,0,64,127,,
186360,note_on,56,0,2,,,,,,,,,,,,,,,0,,,53,0
186360,note_on,0,0,2,,,,,,,,,,,,,,,0,,,60,32
186480,note_on,0,0,2,,,,,,,,,,,,,,,0,,,57,33
186480,note_on,120,0,2,,,,,,,,,,,,,,,0,,,60,0
186600,note_on,120,0,2,,,,,,,,,,,,,,,0,,,57,0
186600,note_on,0,0,2,,,,,,,,,,,,,,,0,,,60,33
186720,note_on,0,0,1,,,,,,,,,,,,,,,0,,,81,56
186720,note_on,0,0,1,,,,,,,,,,,,,,,0,,,68,0
186720,note_on,0,0,2,,,,,,,,,,,,,,,0,,,53,41
186720,note_on,120,0,2,,,,,,,,,,,,,,,0,,,60,0
186720,note_on,0,0,1,,,,,,,,,,,,,,,0,,,69,47
186720,note_on,480,0,1,,,,,,,,,,,,,,,0,,,80,0
186840,note_on,120,0,2,,,,,,,,,,,,,,,0,,,53,0
186840,note_on,0,0,2,,,,,,,,,,,,,,,0,,,60,35
186960,note_on,240,0,1,,,,,,,,,,,,,,,0,,,81,0
186960,note_on,120,0,2,,,,,,,,,,,,,,,0,,,60,0
186960,note_on,0,0,1,,,,,,,,,,,,,,,0,,,69,0
186960,set_tempo,720,1,0,,,,,,,,,,,,446097,,,,,,,
186960,note_on,0,0,2,,,,,,,,,,,,,,,0,,,57,35
187040,set_tempo,80,1,0,,,,,,,,,,,,447761,,,,,,,
187080,note_on,120,0,2,,,,,,,,,,,,,,,0,,,57,0
187080,note_on,0,0,2,,,,,,,,,,,,,,,0,,,60,35
187120,set_tempo,80,1,0,,,,,,,,,,,,449438,,,,,,,
187200,set_tempo,80,1,0,,,,,,,,,,,,451128,,,,,,,
187200,note_on,120,0,2,,,,,,,,,,,,,,,0,,,60,0
187210,note_on,0,0,2,,,,,,,,,,,,,,,0,,,48,40
187210,note_on,0,0,1,,,,,,,,,,,,,,,0,,,69,47
187210,control_change,10,0,2,,,,,,,,,,,,,,,0,64,0,,
187210,note_on,250,0,1,,,,,,,,,,,,,,,0,,,81,56
187261,control_change,51,0,2,,,,,,,,,,,,,,,0,64,127,,
187330,note_on,0,0,2,,,,,,,,,,,,,,,0,,,57,36
187330,note_on,69,0,2,,,,,,,,,,,,,,,0,,,48,0
187450,note_on,240,0,1,,,,,,,,,,,,,,,0,,,69,0
187450,note_on,0,0,2,,,,,,,,,,,,,,,0,,,50,37
187450,note_on,120,0,2,,,,,,,,,,,,,,,0,,,57,0
187450,note_on,0,0,1,,,,,,,,,,,,,,,0,,,71,50
187450,note_on,0,0,1,,,,,,,,,,,,,,,0,,,83,59
187450,note_on,0,0,1,,,,,,,,,,,,,,,0,,,81,0
187570,note_on,0,0,2,,,,,,,,,,,,,,,0,,,57,38
187570,note_on,120,0,2,,,,,,,,,,,,,,,0,,,50,0
187690,note_on,0,0,1,,,,,,,,,,,,,,,0,,,84,62
187690,note_on,120,0,2,,,,,,,,,,,,,,,0,,,57,0
187690,note_on,0,0,2,,,,,,,,,,,,,,,0,,,45,46
187690,note_on,240,0,1,,,,,,,,,,,,,,,0,,,83,0
187690,note_on,0,0,1,,,,,,,,,,,,,,,0,,,71,0
187690,note_on,0,0,1,,,,,,,,,,,,,,,0,,,72,52
187810,note_on,120,0,2,,,,,,,,,,,,,,,0,,,45,0
187810,note_on,0,0,2,,,,,,,,,,,,,,,0,,,57,40
187930,note_on,0,0,2,,,,,,,,,,,,,,,0,,,47,41
187930,note_on,240,0,1,,,,,,,,,,,,,,,0,,,84,0
187930,note_on,0,0,1,,,,,,,,,,,,,,,0,,,72,0
187930,note_on,0,0,1,,,,,,,,,,,,,,,0,,,74,55
187930,note_on,0,0,1,,,,,,,,,,,,,,,0,,,86,65
187930,note_on,120,0,2,,,,,,,,,,,,,,,0,,,57,0
188050,note_on,0,0,2,,,,,,,,,,,,,,,0,,,57,42
188050,note_on,120,0,2,,,,,,,,,,,,,,,0,,,47,0
188170,note_on,0,0,2,,,,,,,,,,,,,,,0,,,48,50
188170,control_change,0,0,2,,,,,,,,,,,,,,,0,64,0,,
188170,note_on,120,0,2,,,,,,,,,,,,,,,0,,,57,0
188170,note_on,0,0,1,,,,,,,,,,,,,,,0,,,76,57
188170,note_on,240,0,1,,,,,,,,,,,,,,,0,,,86,0
188170,note_on,0,0,1,,,,,,,,,,,,,,,0,,,88,68
188170,note_on,0,0,1,,,,,,,,,,,,,,,0,,,74,0
188221,control_change,51,0,2,,,,,,,,,,,,,,,0,64,127,,
188290,note_on,0,0,2,,,,,,,,,,,,,,,0,,,57,43
188290,note_on,69,0,2,,,,,,,,,,,,,,,0,,,48,0
188400,set_tempo,1200,1,0,,,,,,,,,,,,480000,,,,,,,
188410,note_on,120,0,2,,,,,,,,,,,,,,,0,,,57,0
188410,note_on,0,0,2,,,,,,,,,,,,,,,0,,,52,43
188530,note_on,120,0,2,,,,,,,,,,,,,,,0,,,52,0
188530,note_on,0,0,2,,,,,,,,,,,,,,,0,,,57,43
188640,set_tempo,240,1,0,,,,,,,,,,,,458015,,,,,,,
188650,note_on,120,0,2,,,,,,,,,,,,,,,0,,,57,0
188650,note_on,0,0,2,,,,,,,,,,,,,,,0,,,50,47
188650,note_on,480,0,1,,,,,,,,,,,,,,,0,,,76,0
188650,note_on,0,0,1,,,,,,,,,,,,,,,0,,,88,0
188650,note_on,0,0,1,,,,,,,,,,,,,,,0,,,74,56
188650,note_on,0,0,1,,,,,,,,,,,,,,,0,,,86,66
188720,set_tempo,80,1,0,,,,,,,,,,,,458015,,,,,,,
188770,note_on,120,0,2,,,,,,,,,,,,,,,0,,,50,0
188770,note_on,0,0,2,,,,,,,,,,,,,,,0,,,57,39
188800,set_tempo,80,1,0,,,,,,,,,,,,459770,,,,,,,
188880,set_tempo,80,1,0,,,,,,,,,,,,461538,,,,,,,
188890,note_on,0,0,2,,,,,,,,,,,,,,,0,,,53,39
188890,note_on,120,0,2,,,,,,,,,,,,,,,0,,,57,0
188960,set_tempo,80,1,0,,,,,,,,,,,,463320,,,,,,,
189010,note_on,120,0,2,,,,,,,,,,,,,,,0,,,53,0
189010,note_on,0,0,2,,,,,,,,,,,,,,,0,,,57,39
189010,note_on,0,0,1,,,,,,,,,,,,,,,0,,,72,46
189010,note_on,0,0,1,,,,,,,,,,,,,,,0,,,84,55
189010,note_on,360,0,1,,,,,,,,,,,,,,,0,,,86,0
189010,note_on,0,0,1,,,,,,,,,,,,,,,0,,,74,0
189040,set_tempo,80,1,0,,,,,,,,,,,,465116,,,,,,,
189120,set_tempo,80,1,0,,,,,,,,,,,,466926,,,,,,,
189130,note_on,0,0,2,,,,,,,,,,,,,,,0,,,52,45
189130,control_change,0,0,2,,,,,,,,,,,,,,,0,64,0,,
189130,note_on,120,0,2,,,,,,,,,,,,,,,0,,,57,0
189130,note_on,120,0,1,,,,,,,,,,,,,,,0,,,84,0
189130,note_on,0,0,1,,,,,,,,,,,,,,,0,,,72,0
189130,note_on,0,0,1,,,,,,,,,,,,,,,0,,,72,51
189130,note_on,0,0,1,,,,,,,,,,,,,,,0,,,84,61
189189,control_change,59,0,2,,,,,,,,,,,,,,,0,64,127,,
189200,set_tempo,80,1,0,,,,,,,,,,,,468750,,,,,,,
189250,note_on,61,0,2,,,,,,,,,,,,,,,0,,,52,0
189250,note_on,0,0,2,,,,,,,,,,,,,,,0,,,60,35
189280,set_tempo,80,1,0,,,,,,,,,,,,470588,,,,,,,
189360,set_tempo,80,1,0,,,,,,,,,,,,472441,,,,,,,
189370,note_on,120,0,2,,,,,,,,,,,,,,,0,,,60,0
189370,note_on,0,0,2,,,,,,,,,,,,,,,0,,,57,35
189440,set_tempo,80,1,0,,,,,,,,,,,,474308,,,,,,,
189490,note_on,0,0,2,,,,,,,,,,,,,,,0,,,60,35
189490,note_on,120,0,2,,,,,,,,,,,,,,,0,,,57,0
189520,set_tempo,80,1,0,,,,,,,,,,,,476190,,,,,,,
189560,set_tempo,40,1,0,,,,,,,,,,,,478088,,,,,,,
189610,note_on,0,0,1,,,,,,,,,,,,,,,0,,,71,47
189610,note_on,0,0,2,,,,,,,,,,,,,,,0,,,52,46
189610,note_on,0,0,1,,,,,,,,,,,,,,,0,,,83,56
189610,note_on,0,0,1,,,,,,,,,,,,,,,0,,,84,0
189610,note_on,480,0,1,,,,,,,,,,,,,,,0,,,72,0
189610,note_on,120,0,2,,,,,,,,,,,,,,,0,,,60,0
189730,note_on,120,0,2,,,,,,,,,,,,,,,0,,,52,0
189730,note_on,0,0,2,,,,,,,,,,,,,,,0,,,62,35
189850,note_on,120,0,2,,,,,,,,,,,,,,,0,,,62,0
189850,note_on,0,0,2,,,,,,,,,,,,,,,0,,,56,35
189970,note_on,0,0,2,,,,,,,,,,,,,,,0,,,62,35
189970,note_on,120,0,2,,,,,,,,,,,,,,,0,,,56,0
190080,note_on,0,0,2,,,,,,,,,,,,,,,0,,,35,68
190080,control_change,110,0,2,,,,,,,,,,,,,,,0,64,0,,
190080,set_tempo,520,1,0,,,,,,,,,,,,456274,,,,,,,
190080,note_on,470,0,1,,,,,,,,,,,,,,,0,,,81,69
190080,note_on,0,0,2,,,,,,,,,,,,,,,0,,,47,80
190090,note_on,0,0,1,,,,,,,,,,,,,,,0,,,71,0
190090,note_on,10,0,1,,,,,,,,,,,,,,,0,,,83,0
190090,note_on,10,0,2,,,,,,,,,,,,,,,0,,,62,0
190200,note_on,0,0,1,,,,,,,,,,,,,,,0,,,75,61
190200,note_on,0,0,2,,,,,,,,,,,,,,,0,,,35,0
190200,note_on,110,0,2,,,,,,,,,,,,,,,0,,,47,0
190200,note_on,110,0,1,,,,,,,,,,,,,,,0,,,81,0
190320,note_on,0,0,2,,,,,,,,,,,,,,,0,,,50,76
190320,set_tempo,240,1,0,,,,,,,,,,,,434783,,,,,,,
190320,note_on,120,0,2,,,,,,,,,,,,,,,0,,,38,64
190320,note_on,120,0,1,,,,,,,,,,,,,,,0,,,75,0
190320,note_on,0,0,1,,,,,,,,,,,,,,,0,,,76,61
190440,note_on,120,0,1,,,,,,,,,,,,,,,0,,,76,0
190440,note_on,0,0,2,,,,,,,,,,,,,,,0,,,38,0
190440,note_on,120,0,2,,,,,,,,,,,,,,,0,,,50,0
190440,note_on,0,0,1,,,,,,,,,,,,,,,0,,,69,61
190560,set_tempo,240,1,0,,,,,,,,,,,,444444,,,,,,,
190560,note_on,120,0,2,,,,,,,,,,,,,,,0,,,36,69
190560,note_on,120,0,1,,,,,,,,,,,,,,,0,,,69,0
190560,note_on,0,0,2,,,,,,,,,,,,,,,0,,,48,82
190560,note_on,0,0,1,,,,,,,,,,,,,,,0,,,69,66
190594,control_change,34,0,2,,,,,,,,,,,,,,,0,64,127,,
190680,note_on,120,0,1,,,,,,,,,,,,,,,0,,,69,0
190680,note_on,0,0,1,,,,,,,,,,,,,,,0,,,63,61
190800,note_on,120,0,1,,,,,,,,,,,,,,,0,,,63,0
190800,note_on,0,0,1,,,,,,,,,,,,,,,0,,,64,61
190920,note_on,120,0,1,,,,,,,,,,,,,,,0,,,64,0
190920,note_on,0,0,1,,,,,,,,,,,,,,,0,,,57,61
191040,set_tempo,480,1,0,,,,,,,,,,,,452830,,,,,,,
191040,note_on,0,0,2,,,,,,,,,,,,,,,0,,,49,81
191040,note_on,0,0,2,,,,,,,,,,,,,,,0,,,37,69
191040,note_on,0,0,2,,,,,,,,,,,,,,,0,,,36,0
191040,note_on,446,0,2,,,,,,,,,,,,,,,0,,,48,0
191040,note_on,120,0,1,,,,,,,,,,,,,,,0,,,57,0
191040,note_on,0,0,1,,,,,,,,,,,,,,,0,,,82,69
191046,control_change,6,0,2,,,,,,,,,,,,,,,0,64,0,,
191160,note_on,114,0,2,,,,,,,,,,,,,,,0,,,49,0
191160,note_on,0,0,2,,,,,,,,,,,,,,,0,,,37,0
191160,note_on,120,0,1,,,,,,,,,,,,,,,0,,,82,0
191160,note_on,0,0,1,,,,,,,,,,,,,,,0,,,76,62
191280,note_on,0,0,2,,,,,,,,,,,,,,,0,,,52,76
191280,note_on,0,0,1,,,,,,,,,,,,,,,0,,,77,62
191280,note_on,120,0,1,,,,,,,,,,,,,,,0,,,76,0
191280,note_on,120,0,2,,,,,,,,,,,,,,,0,,,40,64
191280,set_tempo,240,1,0,,,,,,,,,,,,434783,,,,,,,
191400,note_on,0,0,1,,,,,,,,,,,,,,,0,,,70,62
191400,note_on,120,0,1,,,,,,,,,,,,,,,0,,,77,0
191400,note_on,120,0,2,,,,,,,,,,,,,,,0,,,52,0
191400,note_on,0,0,2,,,,,,,,,,,,,,,0,,,40,0
191520,note_on,0,0,1,,,,,,,,,,,,,,,0,,,70,66
191520,note_on,120,0,2,,,,,,,,,,,,,,,0,,,38,70
191520,note_on,0,0,2,,,,,,,,,,,,,,,0,,,50,82
191520,set_tempo,240,1,0,,,,,,,,,,,,442804,,,,,,,
191520,note_on,120,0,1,,,,,,,,,,,,,,,0,,,70,0
191566,control_change,46,0,2,,,,,,,,,,,,,,,0,64,127,,
191640,note_on,0,0,1,,,,,,,,,,,,,,,0,,,64,62
191640,note_on,120,0,1,,,,,,,,,,,,,,,0,,,70,0
191760,note_on,120,0,1,,,,,,,,,,,,,,,0,,,64,0
191760,note_on,0,0,1,,,,,,,,,,,,,,,0,,,65,62
191880,note_on,0,0,1,,,,,,,,,,,,,,,0,,,58,63
191880,note_on,120,0,1,,,,,,,,,,,,,,,0,,,65,0
192000,set_tempo,480,1,0,,,,,,,,,,,,442804,,,,,,,
192000,note_on,0,0,1,,,,,,,,,,,,,,,0,,,85,72
192000,note_on,434,0,2,,,,,,,,,,,,,,,0,,,50,0
192000,note_on,120,0,1,,,,,,,,,,,,,,,0,,,58,0
192000,control_change,0,0,2,,,,,,,,,,,,,,,0,64,0,,
192000,note_on,0,0,2,,,,,,,,,,,,,,,0,,,51,83
192000,note_on,0,0,2,,,,,,,,,,,,,,,0,,,39,70
192000,note_on,0,0,2,,,,,,,,,,,,,,,0,,,38,0
192120,note_on,0,0,1,,,,,,,,,,,,,,,0,,,78,63
192120,note_on,120,0,1,,,,,,,,,,,,,,,0,,,85,0
192120,note_on,120,0,2,,,,,,,,,,,,,,,0,,,51,0
192120,note_on,0,0,2,,,,,,,,,,,,,,,0,,,39,0
192240,note_on,120,0,2,,,,,,,,,,,,,,,0,,,41,65
192240,note_on,0,0,2,,,,,,,,,,,,,,,0,,,53,77
192240,set_tempo,240,1,0,,,,,,,,,,,,428571,,,,,,,
192240,note_on,120,0,1,,,,,,,,,,,,,,,0,,,78,0
192240,note_on,0,0,1,,,,,,,,,,,,,,,0,,,79,64
192360,note_on,120,0,2,,,,,,,,,,,,,,,0,,,53,0
192360,note_on,120,0,1,,,,,,,,,,,,,,,0,,,79,0
192360,note_on,0,0,1,,,,,,,,,,,,,,,0,,,73,64
192360,note_on,0,0,2,,,,,,,,,,,,,,,0,,,41,0
192480,note_on,0,0,2,,,,,,,,,,,,,,,0,,,52,84
192480,set_tempo,240,1,0,,,,,,,,,,,,444444,,,,,,,
192480,note_on,120,0,2,,,,,,,,,,,,,,,0,,,40,71
192480,note_on,120,0,1,,,,,,,,,,,,,,,0,,,73,0
192480,note_on,0,0,1,,,,,,,,,,,,,,,0,,,73,70
192543,control_change,63,0,2,,,,,,,,,,,,,,,0,64,127,,
192600,note_on,0,0,1,,,,,,,,,,,,,,,0,,,66,64
192600,note_on,120,0,1,,,,,,,,,,,,,,,0,,,73,0
192720,note_on,0,0,1,,,,,,,,,,,,,,,0,,,67,63
192720,note_on,120,0,1,,,,,,,,,,,,,,,0,,,66,0
192840,note_on,120,0,1,,,,,,,,,,,,,,,0,,,67,0
192840,note_on,0,0,1,,,,,,,,,,,,,,,0,,,61,63
192960,note_on,120,0,1,,,,,,,,,,,,,,,0,,,61,0
192960,note_on,0,0,1,,,,,,,,,,,,,,,0,,,86,75
192960,set_tempo,480,1,0,,,,,,,,,,,,436364,,,,,,,
192960,note_on,417,0,2,,,,,,,,,,,,,,,0,,,52,0
192960,note_on,0,0,2,,,,,,,,,,,,,,,0,,,52,84
192960,note_on,0,0,2,,,,,,,,,,,,,,,0,,,40,72
192960,note_on,0,0,2,,,,,,,,,,,,,,,0,,,40,0
192966,control_change,6,0,2,,,,,,,,,,,,,,,0,64,0,,
193080,note_on,0,0,2,,,,,,,,,,,,,,,0,,,40,0
193080,note_on,0,0,1,,,,,,,,,,,,,,,0,,,80,63
193080,note_on,120,0,1,,,,,,,,,,,,,,,0,,,86,0
193080,note_on,114,0,2,,,,,,,,,,,,,,,0,,,52,0
193200,note_on,120,0,1,,,,,,,,,,,,,,,0,,,80,0
193200,note_on,0,0,1,,,,,,,,,,,,,,,0,,,81,64
193200,note_on,0,0,2,,,,,,,,,,,,,,,0,,,55,79
193200,set_tempo,240,1,0,,,,,,,,,,,,419580,,,,,,,
193200,note_on,120,0,2,,,,,,,,,,,,,,,0,,,43,66
193320,note_on,120,0,2,,,,,,,,,,,,,,,0,,,55,0
193320,note_on,0,0,2,,,,,,,,,,,,,,,0,,,43,0
193320,note_on,120,0,1,,,,,,,,,,,,,,,0,,,81,0
193320,note_on,0,0,1,,,,,,,,,,,,,,,0,,,74,64
193440,note_on,0,0,1,,,,,,,,,,,,,,,0,,,74,69
193440,note_on,120,0,1,,,,,,,,,,,,,,,0,,,74,0
193440,set_tempo,240,1,0,,,,,,,,,,,,446097,,,,,,,
193440,note_on,120,0,2,,,,,,,,,,,,,,,0,,,41,72
193440,note_on,0,0,2,,,,,,,,,,,,,,,0,,,53,85
193520,control_change,80,0,2,,,,,,,,,,,,,,,0,64,127,,
193560,note_on,120,0,1,,,,,,,,,,,,,,,0,,,74,0
193560,note_on,0,0,1,,,,,,,,,,,,,,,0,,,68,64
193680,note_on,120,0,1,,,,,,,,,,,,,,,0,,,68,0
193680,note_on,0,0,1,,,,,,,,,,,,,,,0,,,69,64
193800,note_on,120,0,1,,,,,,,,,,,,,,,0,,,69,0
193800,note_on,0,0,1,,,,,,,,,,,,,,,0,,,62,64
193920,note_on,120,0,1,,,,,,,,,,,,,,,0,,,62,0
193920,note_on,0,0,1,,,,,,,,,,,,,,,0,,,89,76
193920,note_on,0,0,2,,,,,,,,,,,,,,,0,,,44,73
193920,note_on,400,0,2,,,,,,,,,,,,,,,0,,,53,0
193920,set_tempo,480,1,0,,,,,,,,,,,,439560,,,,,,,
193920,note_on,0,0,2,,,,,,,,,,,,,,,0,,,56,86
193920,note_on,0,0,2,,,,,,,,,,,,,,,0,,,41,0
193920,control_change,0,0,2,,,,,,,,,,,,,,,0,64,0,,
194040,note_on,120,0,2,,,,,,,,,,,,,,,0,,,56,0
194040,note_on,0,0,2,,,,,,,,,,,,,,,0,,,44,0
194040,note_on,120,0,1,,,,,,,,,,,,,,,0,,,89,0
194040,note_on,0,0,1,,,,,,,,,,,,,,,0,,,85,65
194160,set_tempo,240,1,0,,,,,,,,,,,,466926,,,,,,,
194160,note_on,120,0,2,,,,,,,,,,,,,,,0,,,62,80
194160,note_on,0,0,2,,,,,,,,,,,,,,,0,,,59,67
194160,note_on,120,0,1,,,,,,,,,,,,,,,0,,,85,0
194160,note_on,0,0,1,,,,,,,,,,,,,,,0,,,86,65
194280,note_on,0,0,2,,,,,,,,,,,,,,,0,,,62,0
194280,note_on,120,0,2,,,,,,,,,,,,,,,0,,,59,0
194280,note_on,120,0,1,,,,,,,,,,,,,,,0,,,86,0
194280,note_on,0,0,1,,,,,,,,,,,,,,,0,,,77,65
194400,note_on,120,0,1,,,,,,,,,,,,,,,0,,,77,0
194400,note_on,0,0,1,,,,,,,,,,,,,,,0,,,89,71
194400,note_on,120,0,2,,,,,,,,,,,,,,,0,,,65,88
194400,note_on,0,0,2,,,,,,,,,,,,,,,0,,,62,74
194400,note_on,0,0,2,,,,,,,,,,,,,,,0,,,59,74
194400,note_on,0,0,2,,,,,,,,,,,,,,,0,,,56,74
194400,set_tempo,240,1,0,,,,,,,,,,,,451128,,,,,,,
194429,control_change,29,0,2,,,,,,,,,,,,,,,0,64,127,,
194520,note_on,120,0,1,,,,,,,,,,,,,,,0,,,89,0
194520,note_on,0,0,1,,,,,,,,,,,,,,,0,,,85,66
194640,note_on,120,0,1,,,,,,,,,,,,,,,0,,,85,0
194640,note_on,0,0,1,,,,,,,,,,,,,,,0,,,86,66
194760,note_on,120,0,1,,,,,,,,,,,,,,,0,,,86,0
194760,note_on,0,0,1,,,,,,,,,,,,,,,0,,,77,66
194880,note_on,120,0,1,,,,,,,,,,,,,,,0,,,77,0
194880,note_on,0,0,1,,,,,,,,,,,,,,,0,,,89,70
195000,note_on,0,0,1,,,,,,,,,,,,,,,0,,,85,61
195000,note_on,120,0,1,,,,,,,,,,,,,,,0,,,89,0
195120,note_on,0,0,1,,,,,,,,,,,,,,,0,,,86,61
195120,note_on,120,0,1,,,,,,,,,,,,,,,0,,,85,0
195240,set_tempo,840,1,0,,,,,,,,,,,,512821,,,,,,,
195240,note_on,0,0,1,,,,,,,,,,,,,,,0,,,77,61
195240,note_on,120,0,1,,,,,,,,,,,,,,,0,,,86,0
195360,set_tempo,120,1,0,,,,,,,,,,,,476190,,,,,,,
195360,note_on,0,0,2,,,,,,,,,,,,,,,0,,,56,37
195360,note_on,0,0,2,,,,,,,,,,,,,,,0,,,52,37
195360,note_on,0,0,2,,,,,,,,,,,,,,,0,,,59,0
195360,note_on,0,0,2,,,,,,,,,,,,,,,0,,,62,0
195360,note_on,0,0,2,,,,,,,,,,,,,,,0,,,65,0
195360,note_on,931,0,2,,,,,,,,,,,,,,,0,,,56,0
195360,note_on,0,0,2,,,,,,,,,,,,,,,0,,,59,45
195360,note_on,120,0,1,,,,,,,,,,,,,,,0,,,77,0
195360,note_on,0,0,1,,,,,,,,,,,,,,,0,,,80,64
195389,control_change,29,0,2,,,,,,,,,,,,,,,0,64,0,,
195480,note_on,120,0,1,,,,,,,,,,,,,,,0,,,80,0
195480,note_on,0,0,1,,,,,,,,,,,,,,,0,,,83,58
195600,note_on,120,0,1,,,,,,,,,,,,,,,0,,,83,0
195600,note_on,0,0,1,,,,,,,,,,,,,,,0,,,86,58
195720,note_on,120,0,1,,,,,,,,,,,,,,,0,,,86,0
195720,note_on,0,0,1,,,,,,,,,,,,,,,0,,,89,58
195840,note_on,0,0,2,,,,,,,,,,,,,,,0,,,52,0
195840,note_on,0,0,2,,,,,,,,,,,,,,,0,,,56,0
195840,note_on,451,0,2,,,,,,,,,,,,,,,0,,,59,0
195840,note_on,0,0,1,,,,,,,,,,,,,,,0,,,76,51
195840,note_on,0,0,1,,,,,,,,,,,,,,,0,,,88,61
195840,set_tempo,480,1,0,,,,,,,,,,,,447761,,,,,,,
195840,note_on,0,0,2,,,,,,,,,,,,,,,0,,,48,45
195840,note_on,120,0,1,,,,,,,,,,,,,,,0,,,89,0
195849,control_change,9,0,2,,,,,,,,,,,,,,,0,64,0,,
195891,control_change,42,0,2,,,,,,,,,,,,,,,0,64,127,,
195960,note_on,69,0,2,,,,,,,,,,,,,,,0,,,48,0
195960,note_on,0,0,2,,,,,,,,,,,,,,,0,,,57,38
196080,set_tempo,240,1,0,,,,,,,,,,,,451128,,,,,,,
196080,note_on,120,0,2,,,,,,,,,,,,,,,0,,,57,0
196080,note_on,0,0,2,,,,,,,,,,,,,,,0,,,52,38
196200,note_on,0,0,2,,,,,,,,,,,,,,,0,,,57,38
196200,note_on,120,0,2,,,,,,,,,,,,,,,0,,,52,0
196320,note_on,480,0,1,,,,,,,,,,,,,,,0,,,76,0
196320,note_on,0,0,1,,,,,,,,,,,,,,,0,,,88,0
196320,note_on,0,0,1,,,,,,,,,,,,,,,0,,,74,50
196320,note_on,0,0,1,,,,,,,,,,,,,,,0,,,86,59
196320,set_tempo,240,1,0,,,,,,,,,,,,436364,,,,,,,
196320,note_on,0,0,2,,,,,,,,,,,,,,,0,,,50,42
196320,note_on,120,0,2,,,,,,,,,,,,,,,0,,,57,0
196440,note_on,0,0,2,,,,,,,,,,,,,,,0,,,57,35
196440,note_on,120,0,2,,,,,,,,,,,,,,,0,,,50,0
196560,note_on,0,0,2,,,,,,,,,,,,,,,0,,,53,35
196560,note_on,120,0,2,,,,,,,,,,,,,,,0,,,57,0
196680,note_on,0,0,1,,,,,,,,,,,,,,,0,,,74,0
196680,note_on,360,0,1,,,,,,,,,,,,,,,0,,,86,0
196680,set_tempo,360,1,0,,,,,,,,,,,,444444,,,,,,,
196680,note_on,0,0,2,,,,,,,,,,,,,,,0,,,57,35
196680,note_on,120,0,2,,,,,,,,,,,,,,,0,,,53,0
196680,note_on,0,0,1,,,,,,,,,,,,,,,0,,,72,41
196680,note_on,0,0,1,,,,,,,,,,,,,,,0,,,84,49
196800,note_on,0,0,2,,,,,,,,,,,,,,,0,,,52,40
196800,note_on,120,0,2,,,,,,,,,,,,,,,0,,,57,0
196800,note_on,0,0,1,,,,,,,,,,,,,,,0,,,72,45
196800,note_on,0,0,1,,,,,,,,,,,,,,,0,,,84,54
196800,note_on,0,0,1,,,,,,,,,,,,,,,0,,,72,0
196800,note_on,120,0,1,,,,,,,,,,,,,,,0,,,84,0
196810,control_change,10,0,2,,,,,,,,,,,,,,,0,64,0,,
196857,control_change,47,0,2,,,,,,,,,,,,,,,0,64,127,,
196920,note_on,0,0,2,,,,,,,,,,,,,,,0,,,60,31
196920,note_on,63,0,2,,,,,,,,,,,,,,,0,,,52,0
197040,note_on,0,0,2,,,,,,,,,,,,,,,0,,,57,31
197040,note_on,120,0,2,,,,,,,,,,,,,,,0,,,60,0
197160,note_on,0,0,2,,,,,,,,,,,,,,,0,,,60,31
197160,note_on,120,0,2,,,,,,,,,,,,,,,0,,,57,0
197280,note_on,0,0,1,,,,,,,,,,,,,,,0,,,84,0
197280,note_on,480,0,1,,,,,,,,,,,,,,,0,,,72,0
197280,set_tempo,600,1,0,,,,,,,,,,,,463320,,,,,,,
197280,note_on,120,0,2,,,,,,,,,,,,,,,0,,,60,0
197280,note_on,0,0,2,,,,,,,,,,,,,,,0,,,52,41
197280,note_on,0,0,1,,,,,,,,,,,,,,,0,,,71,42
197280,note_on,0,0,1,,,,,,,,,,,,,,,0,,,83,50
197320,set_tempo,40,1,0,,,,,,,,,,,,465116,,,,,,,
197360,set_tempo,40,1,0,,,,,,,,,,,,466926,,,,,,,
197400,note_on,0,0,2,,,,,,,,,,,,,,,0,,,62,31
197400,set_tempo,40,1,0,,,,,,,,,,,,468750,,,,,,,
197400,note_on,120,0,2,,,,,,,,,,,,,,,0,,,52,0
197440,set_tempo,40,1,0,,,,,,,,,,,,470588,,,,,,,
197480,set_tempo,40,1,0,,,,,,,,,,,,472441,,,,,,,
197520,note_on,120,0,2,,,,,,,,,,,,,,,0,,,62,0
197520,set_tempo,40,1,0,,,,,,,,,,,,474308,,,,,,,
197520,note_on,0,0,2,,,,,,,,,,,,,,,0,,,56,31
197560,set_tempo,40,1,0,,,,,,,,,,,,476190,,,,,,,
197600,set_tempo,40,1,0,,,,,,,,,,,,478088,,,,,,,
197640,note_on,120,0,2,,,,,,,,,,,,,,,0,,,56,0
197640,note_on,0,0,2,,,,,,,,,,,,,,,0,,,62,31
197640,set_tempo,40,1,0,,,,,,,,,,,,535714,,,,,,,
197760,note_on,120,0,2,,,,,,,,,,,,,,,0,,,62,0
197760,note_on,0,0,2,,,,,,,,,,,,,,,0,,,48,32
197760,set_tempo,120,1,0,,,,,,,,,,,,452830,,,,,,,
197760,note_on,0,0,1,,,,,,,,,,,,,,,0,,,71,0
197760,note_on,0,0,1,,,,,,,,,,,,,,,0,,,88,43
197760,note_on,0,0,1,,,,,,,,,,,,,,,0,,,76,36
197760,note_on,480,0,1,,,,,,,,,,,,,,,0,,,83,0
197769,control_change,9,0,2,,,,,,,,,,,,,,,0,64,0,,
197811,control_change,42,0,2,,,,,,,,,,,,,,,0,64,127,,
197880,note_on,69,0,2,,,,,,,,,,,,,,,0,,,48,0
197880,note_on,0,0,2,,,,,,,,,,,,,,,0,,,57,27
198000,note_on,120,0,2,,,,,,,,,,,,,,,0,,,57,0
198000,set_tempo,240,1,0,,,,,,,,,,,,461538,,,,,,,
198000,note_on,0,0,2,,,,,,,,,,,,,,,0,,,52,27
198120,note_on,120,0,2,,,,,,,,,,,,,,,0,,,52,0
198120,note_on,0,0,2,,,,,,,,,,,,,,,0,,,57,27
198240,note_on,480,0,1,,,,,,,,,,,,,,,0,,,76,0
198240,note_on,0,0,1,,,,,,,,,,,,,,,0,,,74,36
198240,note_on,120,0,2,,,,,,,,,,,,,,,0,,,57,0
198240,note_on,0,0,2,,,,,,,,,,,,,,,0,,,50,29
198240,note_on,0,0,1,,,,,,,,,,,,,,,0,,,86,42
198240,set_tempo,240,1,0,,,,,,,,,,,,442804,,,,,,,
198240,note_on,0,0,1,,,,,,,,,,,,,,,0,,,88,0
198360,note_on,120,0,2,,,,,,,,,,,,,,,0,,,50,0
198360,note_on,0,0,2,,,,,,,,,,,,,,,0,,,57,25
198480,note_on,120,0,2,,,,,,,,,,,,,,,0,,,57,0
198480,note_on,0,0,2,,,,,,,,,,,,,,,0,,,53,25
198600,note_on,0,0,1,,,,,,,,,,,,,,,0,,,84,35
198600,set_tempo,360,1,0,,,,,,,,,,,,444444,,,,,,,
198600,note_on,0,0,1,,,,,,,,,,,,,,,0,,,72,28
198600,note_on,0,0,1,,,,,,,,,,,,,,,0,,,74,0
198600,note_on,360,0,1,,,,,,,,,,,,,,,0,,,86,0
198600,note_on,120,0,2,,,,,,,,,,,,,,,0,,,53,0
198600,note_on,0,0,2,,,,,,,,,,,,,,,0,,,57,25
198720,note_on,120,0,1,,,,,,,,,,,,,,,0,,,84,0
198720,note_on,0,0,1,,,,,,,,,,,,,,,0,,,84,38
198720,note_on,0,0,1,,,,,,,,,,,,,,,0,,,72,0
198720,note_on,120,0,2,,,,,,,,,,,,,,,0,,,57,0
198720,note_on,0,0,2,,,,,,,,,,,,,,,0,,,52,28
198720,note_on,0,0,1,,,,,,,,,,,,,,,0,,,72,32
198720,set_tempo,120,1,0,,,,,,,,,,,,456274,,,,,,,
198730,control_change,10,0,2,,,,,,,,,,,,,,,0,64,0,,
198806,control_change,76,0,2,,,,,,,,,,,,,,,0,64,127,,
198840,note_on,34,0,2,,,,,,,,,,,,,,,0,,,52,0
198840,note_on,0,0,2,,,,,,,,,,,,,,,0,,,60,21
198960,note_on,120,0,2,,,,,,,,,,,,,,,0,,,60,0
198960,note_on,0,0,2,,,,,,,,,,,,,,,0,,,57,21
199080,note_on,0,0,2,,,,,,,,,,,,,,,0,,,60,21
199080,note_on,120,0,2,,,,,,,,,,,,,,,0,,,57,0
199200,note_on,0,0,2,,,,,,,,,,,,,,,0,,,52,28
199200,note_on,0,0,1,,,,,,,,,,,,,,,0,,,83,36
199200,note_on,0,0,1,,,,,,,,,,,,,,,0,,,71,29
199200,note_on,0,0,1,,,,,,,,,,,,,,,0,,,84,0
199200,note_on,480,0,1,,,,,,,,,,,,,,,0,,,72,0
199200,note_on,120,0,2,,,,,,,,,,,,,,,0,,,60,0
199240,set_tempo,520,1,0,,,,,,,,,,,,461538,,,,,,,
199280,set_tempo,40,1,0,,,,,,,,,,,,465116,,,,,,,
199320,note_on,0,0,2,,,,,,,,,,,,,,,0,,,62,21
199320,note_on,120,0,2,,,,,,,,,,,,,,,0,,,52,0
199320,set_tempo,40,1,0,,,,,,,,,,,,470588,,,,,,,
199360,set_tempo,40,1,0,,,,,,,,,,,,474308,,,,,,,
199400,set_tempo,40,1,0,,,,,,,,,,,,480000,,,,,,,
199440,set_tempo,40,1,0,,,,,,,,,,,,485830,,,,,,,
199440,note_on,120,0,2,,,,,,,,,,,,,,,0,,,62,0
199440,note_on,0,0,2,,,,,,,,,,,,,,,0,,,56,21
199480,set_tempo,40,1,0,,,,,,,,,,,,489796,,,,,,,
199520,set_tempo,40,1,0,,,,,,,,,,,,495868,,,,,,,
199560,set_tempo,40,1,0,,,,,,,,,,,,502092,,,,,,,
199560,note_on,120,0,2,,,,,,,,,,,,,,,0,,,56,0
199560,note_on,0,0,2,,,,,,,,,,,,,,,0,,,62,21
199680,note_on,0,0,1,,,,,,,,,,,,,,,0,,,81,69
199680,note_on,0,0,1,,,,,,,,,,,,,,,0,,,71,0
199680,note_on,480,0,1,,,,,,,,,,,,,,,0,,,83,0
199680,note_on,0,0,2,,,,,,,,,,,,,,,0,,,47,80
199680,control_change,0,0,2,,,,,,,,,,,,,,,0,64,0,,
199680,note_on,0,0,2,,,,,,,,,,,,,,,0,,,35,68
199680,set_tempo,120,1,0,,,,,,,,,,,,459770,,,,,,,
199680,note_on,120,0,2,,,,,,,,,,,,,,,0,,,62,0
199800,note_on,0,0,2,,,,,,,,,,,,,,,0,,,35,0
199800,note_on,120,0,1,,,,,,,,,,,,,,,0,,,81,0
199800,note_on,0,0,1,,,,,,,,,,,,,,,0,,,75,61
199800,note_on,120,0,2,,,,,,,,,,,,,,,0,,,47,0
199920,note_on,0,0,2,,,,,,,,,,,,,,,0,,,50,76
199920,note_on,120,0,2,,,,,,,,,,,,,,,0,,,38,64
199920,set_tempo,240,1,0,,,,,,,,,,,,441176,,,,,,,
199920,note_on,0,0,1,,,,,,,,,,,,,,,0,,,76,61
199920,note_on,120,0,1,,,,,,,,,,,,,,,0,,,75,0
200040,note_on,0,0,2,,,,,,,,,,,,,,,0,,,38,0
200040,note_on,120,0,2,,,,,,,,,,,,,,,0,,,50,0
200040,note_on,0,0,1,,,,,,,,,,,,,,,0,,,69,61
200040,note_on,120,0,1,,,,,,,,,,,,,,,0,,,76,0
200160,note_on,0,0,1,,,,,,,,,,,,,,,0,,,69,66
200160,note_on,0,0,2,,,,,,,,,,,,,,,0,,,48,82
200160,note_on,120,0,2,,,,,,,,,,,,,,,0,,,36,69
200160,note_on,120,0,1,,,,,,,,,,,,,,,0,,,69,0
200160,set_tempo,240,1,0,,,,,,,,,,,,449438,,,,,,,
200194,control_change,34,0,2,,,,,,,,,,,,,,,0,64,127,,
200280,note_on,120,0,1,,,,,,,,,,,,,,,0,,,69,0
200280,note_on,0,0,1,,,,,,,,,,,,,,,0,,,63,61
200400,note_on,0,0,1,,,,,,,,,,,,,,,0,,,64,61
200400,note_on,120,0,1,,,,,,,,,,,,,,,0,,,63,0
200520,note_on,0,0,1,,,,,,,,,,,,,,,0,,,57,61
200520,note_on,120,0,1,,,,,,,,,,,,,,,0,,,64,0
200640,note_on,0,0,1,,,,,,,,,,,,,,,0,,,82,68
200640,note_on,446,0,2,,,,,,,,,,,,,,,0,,,48,0
200640,note_on,0,0,2,,,,,,,,,,,,,,,0,,,36,0
200640,note_on,0,0,2,,,,,,,,,,,,,,,0,,,37,68
200640,note_on,0,0,2,,,,,,,,,,,,,,,0,,,49,80
200640,set_tempo,480,1,0,,,,,,,,,,,,446097,,,,,,,
200640,note_on,120,0,1,,,,,,,,,,,,,,,0,,,57,0
200646,control_change,6,0,2,,,,,,,,,,,,,,,0,64,0,,
200760,note_on,0,0,2,,,,,,,,,,,,,,,0,,,37,0
200760,note_on,0,0,1,,,,,,,,,,,,,,,0,,,76,61
200760,note_on,120,0,1,,,,,,,,,,,,,,,0,,,82,0
200760,note_on,114,0,2,,,,,,,,,,,,,,,0,,,49,0
200880,note_on,120,0,2,,,,,,,,,,,,,,,0,,,40,64
200880,note_on,0,0,1,,,,,,,,,,,,,,,0,,,77,62
200880,set_tempo,240,1,0,,,,,,,,,,,,434783,,,,,,,
200880,note_on,120,0,1,,,,,,,,,,,,,,,0,,,76,0
200880,note_on,0,0,2,,,,,,,,,,,,,,,0,,,52,76
201000,note_on,0,0,2,,,,,,,,,,,,,,,0,,,40,0
201000,note_on,120,0,2,,,,,,,,,,,,,,,0,,,52,0
201000,note_on,120,0,1,,,,,,,,,,,,,,,0,,,77,0
201000,note_on,0,0,1,,,,,,,,,,,,,,,0,,,70,62
201120,note_on,0,0,2,,,,,,,,,,,,,,,0,,,50,81
201120,note_on,120,0,2,,,,,,,,,,,,,,,0,,,38,69
201120,note_on,120,0,1,,,,,,,,,,,,,,,0,,,70,0
201120,note_on,0,0,1,,,,,,,,,,,,,,,0,,,70,66
201120,set_tempo,240,1,0,,,,,,,,,,,,442804,,,,,,,
201166,control_change,46,0,2,,,,,,,,,,,,,,,0,64,127,,
201240,note_on,120,0,1,,,,,,,,,,,,,,,0,,,70,0
201240,note_on,0,0,1,,,,,,,,,,,,,,,0,,,64,62
201360,note_on,0,0,1,,,,,,,,,,,,,,,0,,,65,62
201360,note_on,120,0,1,,,,,,,,,,,,,,,0,,,64,0
201480,note_on,0,0,1,,,,,,,,,,,,,,,0,,,58,62
201480,note_on,120,0,1,,,,,,,,,,,,,,,0,,,65,0
201600,note_on,0,0,1,,,,,,,,,,,,,,,0,,,85,72
201600,note_on,120,0,1,,,,,,,,,,,,,,,0,,,58,0
201600,set_tempo,480,1,0,,,,,,,,,,,,442804,,,,,,,
201600,note_on,434,0,2,,,,,,,,,,,,,,,0,,,50,0
201600,note_on,0,0,2,,,,,,,,,,,,,,,0,,,38,0
201600,note_on,0,0,2,,,,,,,,,,,,,,,0,,,39,70
201600,note_on,0,0,2,,,,,,,,,,,,,,,0,,,51,82
201600,control_change,0,0,2,,,,,,,,,,,,,,,0,64,0,,
201720,note_on,120,0,1,,,,,,,,,,,,,,,0,,,85,0
201720,note_on,120,0,2,,,,,,,,,,,,,,,0,,,51,0
201720,note_on,0,0,2,,,,,,,,,,,,,,,0,,,39,0
201720,note_on,0,0,1,,,,,,,,,,,,,,,0,,,78,62
201840,note_on,120,0,2,,,,,,,,,,,,,,,0,,,41,63
201840,note_on,0,0,1,,,,,,,,,,,,,,,0,,,79,62
201840,note_on,120,0,1,,,,,,,,,,,,,,,0,,,78,0
201840,note_on,0,0,2,,,,,,,,,,,,,,,0,,,53,76
201840,set_tempo,240,1,0,,,,,,,,,,,,428571,,,,,,,
201960,note_on,0,0,2,,,,,,,,,,,,,,,0,,,41,0
201960,note_on,0,0,1,,,,,,,,,,,,,,,0,,,73,62
201960,note_on,120,0,1,,,,,,,,,,,,,,,0,,,79,0
201960,note_on,120,0,2,,,,,,,,,,,,,,,0,,,53,0
202080,note_on,120,0,2,,,,,,,,,,,,,,,0,,,40,70
202080,note_on,0,0,2,,,,,,,,,,,,,,,0,,,52,83
202080,set_tempo,240,1,0,,,,,,,,,,,,441176,,,,,,,
202080,note_on,0,0,1,,,,,,,,,,,,,,,0,,,73,69
202080,note_on,120,0,1,,,,,,,,,,,,,,,0,,,73,0
202143,control_change,63,0,2,,,,,,,,,,,,,,,0,64,127,,
202200,note_on,120,0,1,,,,,,,,,,,,,,,0,,,73,0
202200,note_on,0,0,1,,,,,,,,,,,,,,,0,,,66,63
202320,note_on,120,0,1,,,,,,,,,,,,,,,0,,,66,0
202320,note_on,0,0,1,,,,,,,,,,,,,,,0,,,67,62
202440,note_on,0,0,1,,,,,,,,,,,,,,,0,,,61,62
202440,note_on,120,0,1,,,,,,,,,,,,,,,0,,,67,0
202560,note_on,417,0,2,,,,,,,,,,,,,,,0,,,52,0
202560,note_on,0,0,2,,,,,,,,,,,,,,,0,,,40,71
202560,set_tempo,480,1,0,,,,,,,,,,,,433213,,,,,,,
202560,note_on,0,0,2,,,,,,,,,,,,,,,0,,,40,0
202560,note_on,120,0,1,,,,,,,,,,,,,,,0,,,61,0
202560,note_on,0,0,2,,,,,,,,,,,,,,,0,,,52,84
202560,note_on,0,0,1,,,,,,,,,,,,,,,0,,,86,74
202566,control_change,6,0,2,,,,,,,,,,,,,,,0,64,0,,
202680,note_on,0,0,2,,,,,,,,,,,,,,,0,,,40,0
202680,note_on,114,0,2,,,,,,,,,,,,,,,0,,,52,0
202680,note_on,120,0,1,,,,,,,,,,,,,,,0,,,86,0
202680,note_on,0,0,1,,,,,,,,,,,,,,,0,,,80,63
202800,note_on,0,0,1,,,,,,,,,,,,,,,0,,,81,63
202800,note_on,120,0,1,,,,,,,,,,,,,,,0,,,80,0
202800,note_on,120,0,2,,,,,,,,,,,,,,,0,,,43,65
202800,note_on,0,0,2,,,,,,,,,,,,,,,0,,,55,77
202800,set_tempo,240,1,0,,,,,,,,,,,,416667,,,,,,,
202920,note_on,0,0,1,,,,,,,,,,,,,,,0,,,74,63
202920,note_on,120,0,2,,,,,,,,,,,,,,,0,,,55,0
202920,note_on,0,0,2,,,,,,,,,,,,,,,0,,,43,0
202920,note_on,120,0,1,,,,,,,,,,,,,,,0,,,81,0
203040,note_on,120,0,1,,,,,,,,,,,,,,,0,,,74,0
203040,note_on,0,0,1,,,,,,,,,,,,,,,0,,,74,68
203040,set_tempo,240,1,0,,,,,,,,,,,,446097,,,,,,,
203040,note_on,0,0,2,,,,,,,,,,,,,,,0,,,53,84
203040,note_on,120,0,2,,,,,,,,,,,,,,,0,,,41,71
203120,control_change,80,0,2,,,,,,,,,,,,,,,0,64,127,,
203160,note_on,120,0,1,,,,,,,,,,,,,,,0,,,74,0
203160,note_on,0,0,1,,,,,,,,,,,,,,,0,,,68,63
203280,note_on,120,0,1,,,,,,,,,,,,,,,0,,,68,0
203280,note_on,0,0,1,,,,,,,,,,,,,,,0,,,69,63
203400,note_on,120,0,1,,,,,,,,,,,,,,,0,,,69,0
203400,note_on,0,0,1,,,,,,,,,,,,,,,0,,,62,63
203520,control_change,0,0,2,,,,,,,,,,,,,,,0,64,0,,
203520,note_on,0,0,2,,,,,,,,,,,,,,,0,,,54,84
203520,note_on,0,0,2,,,,,,,,,,,,,,,0,,,42,72
203520,note_on,0,0,2,,,,,,,,,,,,,,,0,,,41,0
203520,note_on,400,0,2,,,,,,,,,,,,,,,0,,,53,0
203520,set_tempo,480,1,0,,,,,,,,,,,,433213,,,,,,,
203520,note_on,120,0,1,,,,,,,,,,,,,,,0,,,62,0
203520,note_on,0,0,1,,,,,,,,,,,,,,,0,,,88,74
203640,note_on,120,0,2,,,,,,,,,,,,,,,0,,,54,0
203640,note_on,0,0,2,,,,,,,,,,,,,,,0,,,42,0
203640,note_on,0,0,1,,,,,,,,,,,,,,,0,,,82,64
203640,note_on,120,0,1,,,,,,,,,,,,,,,0,,,88,0
203760,note_on,120,0,1,,,,,,,,,,,,,,,0,,,82,0
203760,note_on,0,0,1,,,,,,,,,,,,,,,0,,,83,65
203760,note_on,120,0,2,,,,,,,,,,,,,,,0,,,45,66
203760,note_on,0,0,2,,,,,,,,,,,,,,,0,,,57,79
203760,set_tempo,240,1,0,,,,,,,,,,,,419580,,,,,,,
203880,note_on,120,0,1,,,,,,,,,,,,,,,0,,,83,0
203880,note_on,0,0,1,,,,,,,,,,,,,,,0,,,76,65
203880,note_on,120,0,2,,,,,,,,,,,,,,,0,,,57,0
203880,note_on,0,0,2,,,,,,,,,,,,,,,0,,,45,0
204000,set_tempo,240,1,0,,,,,,,,,,,,444444,,,,,,,
204000,note_on,0,0,2,,,,,,,,,,,,,,,0,,,56,85
204000,note_on,0,0,1,,,,,,,,,,,,,,,0,,,76,71
204000,note_on,120,0,1,,,,,,,,,,,,,,,0,,,76,0
204000,note_on,120,0,2,,,,,,,,,,,,,,,0,,,44,72
204063,control_change,63,0,2,,,,,,,,,,,,,,,0,64,127,,
204120,note_on,120,0,1,,,,,,,,,,,,,,,0,,,76,0
204120,note_on,0,0,1,,,,,,,,,,,,,,,0,,,70,65
204240,note_on,0,0,1,,,,,,,,,,,,,,,0,,,71,64
204240,note_on,120,0,1,,,,,,,,,,,,,,,0,,,70,0
204360,note_on,120,0,1,,,,,,,,,,,,,,,0,,,71,0
204360,note_on,0,0,1,,,,,,,,,,,,,,,0,,,64,64
204480,note_on,417,0,2,,,,,,,,,,,,,,,0,,,56,0
204480,note_on,120,0,1,,,,,,,,,,,,,,,0,,,64,0
204480,note_on,0,0,1,,,,,,,,,,,,,,,0,,,89,76
204480,note_on,0,0,2,,,,,,,,,,,,,,,0,,,56,86
204480,note_on,0,0,2,,,,,,,,,,,,,,,0,,,44,73
204480,note_on,0,0,2,,,,,,,,,,,,,,,0,,,44,0
204486,control_change,6,0,2,,,,,,,,,,,,,,,0,64,0,,
204600,note_on,114,0,2,,,,,,,,,,,,,,,0,,,56,0
204600,note_on,0,0,2,,,,,,,,,,,,,,,0,,,44,0
204600,note_on,0,0,1,,,,,,,,,,,,,,,0,,,83,64
204600,note_on,120,0,1,,,,,,,,,,,,,,,0,,,89,0
204720,note_on,120,0,2,,,,,,,,,,,,,,,0,,,47,66
204720,set_tempo,720,1,0,,,,,,,,,,,,431655,,,,,,,
204720,note_on,0,0,2,,,,,,,,,,,,,,,0,,,59,79
204720,note_on,0,0,1,,,,,,,,,,,,,,,0,,,84,64
204720,note_on,120,0,1,,,,,,,,,,,,,,,0,,,83,0
204840,note_on,120,0,1,,,,,,,,,,,,,,,0,,,84,0
204840,note_on,0,0,2,,,,,,,,,,,,,,,0,,,47,0
204840,note_on,120,0,2,,,,,,,,,,,,,,,0,,,59,0
204840,note_on,0,0,1,,,,,,,,,,,,,,,0,,,77,64
204960,set_tempo,240,1,0,,,,,,,,,,,,446097,,,,,,,
204960,note_on,120,0,1,,,,,,,,,,,,,,,0,,,77,0
204960,note_on,0,0,2,,,,,,,,,,,,,,,0,,,57,87
204960,note_on,0,0,1,,,,,,,,,,,,,,,0,,,77,70
204960,note_on,120,0,2,,,,,,,,,,,,,,,0,,,45,74
205040,control_change,80,0,2,,,,,,,,,,,,,,,0,64,127,,
205080,note_on,120,0,1,,,,,,,,,,,,,,,0,,,77,0
205080,note_on,0,0,1,,,,,,,,,,,,,,,0,,,71,65
205200,note_on,120,0,1,,,,,,,,,,,,,,,0,,,71,0
205200,note_on,0,0,1,,,,,,,,,,,,,,,0,,,72,65
205200,set_tempo,240,1,0,,,,,,,,,,,,497925,,,,,,,
205320,note_on,120,0,1,,,,,,,,,,,,,,,0,,,72,0
205320,note_on,0,0,1,,,,,,,,,,,,,,,0,,,65,65
205400,set_tempo,200,1,0,,,,,,,,,,,,410959,,,,,,,
205440,note_on,0,0,1,,,,,,,,,,,,,,,0,,,92,88
205440,note_on,400,0,2,,,,,,,,,,,,,,,0,,,57,0
205440,note_on,0,0,2,,,,,,,,,,,,,,,0,,,45,0
205440,note_on,0,0,2,,,,,,,,,,,,,,,0,,,58,77
205440,note_on,0,0,2,,,,,,,,,,,,,,,0,,,62,77
205440,note_on,0,0,2,,,,,,,,,,,,,,,0,,,65,77
205440,note_on,0,0,2,,,,,,,,,,,,,,,0,,,68,92
205440,control_change,0,0,2,,,,,,,,,,,,,,,0,64,0,,
205440,note_on,120,0,1,,,,,,,,,,,,,,,0,,,65,0
205440,note_on,0,0,1,,,,,,,,,,,,,,,0,,,80,81
205680,note_on,240,0,1,,,,,,,,,,,,,,,0,,,92,0
205680,set_tempo,280,1,0,,,,,,,,,,,,412371,,,,,,,
205680,note_on,0,0,1,,,,,,,,,,,,,,,0,,,80,0
205680,note_on,0,0,1,,,,,,,,,,,,,,,0,,,91,81
205800,note_on,120,0,1,,,,,,,,,,,,,,,0,,,91,0
205800,note_on,0,0,1,,,,,,,,,,,,,,,0,,,89,80
205920,note_on,0,0,1,,,,,,,,,,,,,,,0,,,87,79
205920,note_on,120,0,1,,,,,,,,,,,,,,,0,,,89,0
205960,set_tempo,280,1,0,,,,,,,,,,,,413793,,,,,,,
206040,note_on,0,0,1,,,,,,,,,,,,,,,0,,,86,78
206040,note_on,120,0,1,,,,,,,,,,,,,,,0,,,87,0
206160,note_on,0,0,1,,,,,,,,,,,,,,,0,,,84,77
206160,note_on,120,0,1,,,,,,,,,,,,,,,0,,,86,0
206240,set_tempo,280,1,0,,,,,,,,,,,,415225,,,,,,,
206280,note_on,120,0,1,,,,,,,,,,,,,,,0,,,84,0
206280,note_on,0,0,1,,,,,,,,,,,,,,,0,,,82,76
206399,note_on,959,0,2,,,,,,,,,,,,,,,0,,,68,0
206400,note_on,1,0,2,,,,,,,,,,,,,,,0,,,58,0
206400,note_on,0,0,2,,,,,,,,,,,,,,,0,,,62,0
206400,note_on,0,0,2,,,,,,,,,,,,,,,0,,,65,0
206400,note_on,0,0,1,,,,,,,,,,,,,,,0,,,80,75
206400,note_on,120,0,1,,,,,,,,,,,,,,,0,,,82,0
206520,note_on,0,0,1,,,,,,,,,,,,,,,0,,,79,74
206520,note_on,120,0,1,,,,,,,,,,,,,,,0,,,80,0
206520,set_tempo,280,1,0,,,,,,,,,,,,416667,,,,,,,
206640,note_on,120,0,1,,,,,,,,,,,,,,,0,,,79,0
206640,note_on,0,0,1,,,,,,,,,,,,,,,0,,,77,73
206760,note_on,120,0,1,,,,,,,,,,,,,,,0,,,77,0
206760,note_on,0,0,1,,,,,,,,,,,,,,,0,,,75,72
206800,set_tempo,280,1,0,,,,,,,,,,,,418118,,,,,,,
206880,note_on,120,0,1,,,,,,,,,,,,,,,0,,,75,0
206880,note_on,0,0,1,,,,,,,,,,,,,,,0,,,74,72
207000,note_on,0,0,1,,,,,,,,,,,,,,,0,,,72,71
207000,note_on,120,0,1,,,,,,,,,,,,,,,0,,,74,0
207080,set_tempo,280,1,0,,,,,,,,,,,,419580,,,,,,,
207120,note_on,120,0,1,,,,,,,,,,,,,,,0,,,72,0
207120,note_on,0,0,1,,,,,,,,,,,,,,,0,,,70,70
207240,note_on,120,0,1,,,,,,,,,,,,,,,0,,,70,0
207240,note_on,0,0,1,,,,,,,,,,,,,,,0,,,69,69
207360,set_tempo,280,1,0,,,,,,,,,,,,421053,,,,,,,
207360,note_on,0,0,1,,,,,,,,,,,,,,,0,,,68,68
207360,note_on,120,0,1,,,,,,,,,,,,,,,0,,,69,0
207480,note_on,120,0,1,,,,,,,,,,,,,,,0,,,68,0
207480,note_on,0,0,1,,,,,,,,,,,,,,,0,,,67,66
207520,set_tempo,160,1,0,,,,,,,,,,,,422535,,,,,,,
207600,note_on,0,0,1,,,,,,,,,,,,,,,0,,,65,65
207600,note_on,120,0,1,,,,,,,,,,,,,,,0,,,67,0
207680,set_tempo,160,1,0,,,,,,,,,,,,424028,,,,,,,
207720,note_on,0,0,1,,,,,,,,,,,,,,,0,,,63,64
207720,note_on,120,0,1,,,,,,,,,,,,,,,0,,,65,0
207840,note_on,0,0,1,,,,,,,,,,,,,,,0,,,62,63
207840,note_on,120,0,1,,,,,,,,,,,,,,,0,,,63,0
207840,set_tempo,160,1,0,,,,,,,,,,,,425532,,,,,,,
207960,note_on,120,0,1,,,,,,,,,,,,,,,0,,,62,0
207960,note_on,0,0,1,,,,,,,,,,,,,,,0,,,60,62
208000,set_tempo,160,1,0,,,,,,,,,,,,427046,,,,,,,
208080,note_on,0,0,1,,,,,,,,,,,,,,,0,,,58,61
208080,note_on,120,0,1,,,,,,,,,,,,,,,0,,,60,0
208160,set_tempo,160,1,0,,,,,,,,,,,,428571,,,,,,,
208200,note_on,120,0,1,,,,,,,,,,,,,,,0,,,58,0
208200,note_on,0,0,1,,,,,,,,,,,,,,,0,,,56,60
208320,set_tempo,160,1,0,,,,,,,,,,,,430108,,,,,,,
208320,note_on,120,0,1,,,,,,,,,,,,,,,0,,,56,0
208320,note_on,0,0,1,,,,,,,,,,,,,,,0,,,57,59
208440,note_on,120,0,1,,,,,,,,,,,,,,,0,,,57,0
208440,note_on,0,0,1,,,,,,,,,,,,,,,0,,,58,59
208480,set_tempo,160,1,0,,,,,,,,,,,,431655,,,,,,,
208560,note_on,0,0,1,,,,,,,,,,,,,,,0,,,60,58
208560,note_on,120,0,1,,,,,,,,,,,,,,,0,,,58,0
208640,set_tempo,160,1,0,,,,,,,,,,,,433213,,,,,,,
208680,note_on,0,0,1,,,,,,,,,,,,,,,0,,,58,57
208680,note_on,120,0,1,,,,,,,,,,,,,,,0,,,60,0
208800,note_on,120,0,1,,,,,,,,,,,,,,,0,,,58,0
208800,note_on,0,0,1,,,,,,,,,,,,,,,0,,,57,56
208800,set_tempo,160,1,0,,,,,,,,,,,,434783,,,,,,,
208920,note_on,120,0,1,,,,,,,,,,,,,,,0,,,57,0
208920,note_on,0,0,1,,,,,,,,,,,,,,,0,,,58,55
208960,set_tempo,160,1,0,,,,,,,,,,,,436364,,,,,,,
209040,note_on,0,0,1,,,,,,,,,,,,,,,0,,,60,54
209040,note_on,120,0,1,,,,,,,,,,,,,,,0,,,58,0
209120,set_tempo,160,1,0,,,,,,,,,,,,437956,,,,,,,
209160,note_on,0,0,1,,,,,,,,,,,,,,,0,,,58,53
209160,note_on,120,0,1,,,,,,,,,,,,,,,0,,,60,0
209280,note_on,0,0,1,,,,,,,,,,,,,,,0,,,57,53
209280,note_on,120,0,1,,,,,,,,,,,,,,,0,,,58,0
209280,set_tempo,160,1,0,,,,,,,,,,,,439560,,,,,,,
209360,set_tempo,80,1,0,,,,,,,,,,,,441176,,,,,,,
209400,set_tempo,40,1,0,,,,,,,,,,,,442804,,,,,,,
209440,note_on,160,0,1,,,,,,,,,,,,,,,0,,,57,0
209440,note_on,0,0,1,,,,,,,,,,,,,,,0,,,60,46
209480,set_tempo,80,1,0,,,,,,,,,,,,444444,,,,,,,
209520,set_tempo,40,1,0,,,,,,,,,,,,446097,,,,,,,
209560,set_tempo,40,1,0,,,,,,,,,,,,447761,,,,,,,
209600,note_on,160,0,1,,,,,,,,,,,,,,,0,,,60,0
209600,note_on,0,0,1,,,,,,,,,,,,,,,0,,,58,46
209640,set_tempo,80,1,0,,,,,,,,,,,,449438,,,,,,,
209680,set_tempo,40,1,0,,,,,,,,,,,,451128,,,,,,,
209720,set_tempo,40,1,0,,,,,,,,,,,,452830,,,,,,,
209760,note_on,160,0,1,,,,,,,,,,,,,,,0,,,58,0
209760,note_on,0,0,1,,,,,,,,,,,,,,,0,,,57,51
209800,set_tempo,80,1,0,,,,,,,,,,,,454545,,,,,,,
209840,set_tempo,40,1,0,,,,,,,,,,,,456274,,,,,,,
209880,set_tempo,40,1,0,,,,,,,,,,,,458015,,,,,,,
209920,note_on,0,0,1,,,,,,,,,,,,,,,0,,,60,45
209920,note_on,160,0,1,,,,,,,,,,,,,,,0,,,57,0
209960,set_tempo,80,1,0,,,,,,,,,,,,459770,,,,,,,
210000,set_tempo,40,1,0,,,,,,,,,,,,461538,,,,,,,
210040,set_tempo,40,1,0,,,,,,,,,,,,463320,,,,,,,
210080,note_on,160,0,1,,,,,,,,,,,,,,,0,,,60,0
210080,note_on,0,0,1,,,,,,,,,,,,,,,0,,,58,45
210120,set_tempo,80,1,0,,,,,,,,,,,,465116,,,,,,,
210160,set_tempo,40,1,0,,,,,,,,,,,,466926,,,,,,,
210200,set_tempo,40,1,0,,,,,,,,,,,,468750,,,,,,,
210240,note_on,0,0,1,,,,,,,,,,,,,,,0,,,57,53
210240,note_on,160,0,1,,,,,,,,,,,,,,,0,,,58,0
210240,set_tempo,40,1,0,,,,,,,,,,,,472441,,,,,,,
210280,set_tempo,40,1,0,,,,,,,,,,,,476190,,,,,,,
210320,set_tempo,40,1,0,,,,,,,,,,,,481928,,,,,,,
210360,set_tempo,40,1,0,,,,,,,,,,,,487805,,,,,,,
210400,set_tempo,40,1,0,,,,,,,,,,,,493827,,,,,,,
210400,note_on,0,0,1,,,,,,,,,,,,,,,0,,,60,42
210400,note_on,160,0,1,,,,,,,,,,,,,,,0,,,57,0
210440,set_tempo,40,1,0,,,,,,,,,,,,500000,,,,,,,
210480,set_tempo,40,1,0,,,,,,,,,,,,506329,,,,,,,
210520,set_tempo,40,1,0,,,,,,,,,,,,512821,,,,,,,
210560,note_on,160,0,1,,,,,,,,,,,,,,,0,,,60,0
210560,note_on,0,0,1,,,,,,,,,,,,,,,0,,,58,42
210560,set_tempo,40,1,0,,,,,,,,,,,,519481,,,,,,,
210600,set_tempo,40,1,0,,,,,,,,,,,,526316,,,,,,,
210640,set_tempo,40,1,0,,,,,,,,,,,,533333,,,,,,,
210680,set_tempo,40,1,0,,,,,,,,,,,,540541,,,,,,,
210720,note_on,160,0,1,,,,,,,,,,,,,,,0,,,58,0
210720,note_on,0,0,1,,,,,,,,,,,,,,,0,,,57,49
210720,set_tempo,40,1,0,,,,,,,,,,,,545455,,,,,,,
210760,set_tempo,40,1,0,,,,,,,,,,,,552995,,,,,,,
210800,set_tempo,40,1,0,,,,,,,,,,,,560748,,,,,,,
210840,set_tempo,40,1,0,,,,,,,,,,,,568720,,,,,,,
210880,set_tempo,40,1,0,,,,,,,,,,,,576923,,,,,,,
210880,note_on,0,0,1,,,,,,,,,,,,,,,0,,,60,38
210880,note_on,160,0,1,,,,,,,,,,,,,,,0,,,57,0
210920,set_tempo,40,1,0,,,,,,,,,,,,585366,,,,,,,
210960,set_tempo,40,1,0,,,,,,,,,,,,585366,,,,,,,
211000,set_tempo,40,1,0,,,,,,,,,,,,631579,,,,,,,
211040,note_on,0,0,1,,,,,,,,,,,,,,,0,,,58,38
211040,set_tempo,40,1,0,,,,,,,,,,,,689655,,,,,,,
211040,note_on,160,0,1,,,,,,,,,,,,,,,0,,,60,0
211080,set_tempo,40,1,0,,,,,,,,,,,,754717,,,,,,,
211120,set_tempo,40,1,0,,,,,,,,,,,,839161,,,,,,,
211160,set_tempo,40,1,0,,,,,,,,,,,,944882,,,,,,,
211200,note_on,0,0,1,,,,,,,,,,,,,,,0,,,69,44
211200,note_on,0,0,1,,,,,,,,,,,,,,,0,,,57,36
211200,set_tempo,40,1,0,,,,,,,,,,,,600000,,,,,,,
211200,note_on,160,0,1,,,,,,,,,,,,,,,0,,,58,0
211440,note_on,0,0,1,,,,,,,,,,,,,,,0,,,72,36
211440,note_on,0,0,1,,,,,,,,,,,,,,,0,,,57,0
211440,note_on,240,0,1,,,,,,,,,,,,,,,0,,,69,0
211440,set_tempo,240,1,0,,,,,,,,,,,,582524,,,,,,,
211440,note_on,0,0,1,,,,,,,,,,,,,,,0,,,60,30
211680,note_on,240,0,1,,,,,,,,,,,,,,,0,,,72,0
211680,note_on,0,0,1,,,,,,,,,,,,,,,0,,,58,30
211680,note_on,0,0,1,,,,,,,,,,,,,,,0,,,70,36
211680,note_on,0,0,1,,,,,,,,,,,,,,,0,,,60,0
211920,set_tempo,480,1,0,,,,,,,,,,,,600000,,,,,,,
212160,note_on,480,0,1,,,,,,,,,,,,,,,0,,,70,0
212160,note_on,0,0,1,,,,,,,,,,,,,,,0,,,58,0
212160,note_on,0,0,1,,,,,,,,,,,,,,,0,,,69,42
212160,note_on,0,0,1,,,,,,,,,,,,,,,0,,,57,35
212160,set_tempo,240,1,0,,,,,,,,,,,,582524,,,,,,,
212400,note_on,240,0,1,,,,,,,,,,,,,,,0,,,69,0
212400,note_on,0,0,1,,,,,,,,,,,,,,,0,,,57,0
212400,note_on,0,0,1,,,,,,,,,,,,,,,0,,,60,29
212400,note_on,0,0,1,,,,,,,,,,,,,,,0,,,72,35
212640,note_on,240,0,1,,,,,,,,,,,,,,,0,,,72,0
212640,note_on,0,0,1,,,,,,,,,,,,,,,0,,,60,0
212640,note_on,0,0,1,,,,,,,,,,,,,,,0,,,58,29
212640,note_on,0,0,1,,,,,,,,,,,,,,,0,,,70,35
212880,set_tempo,720,1,0,,,,,,,,,,,,625000,,,,,,,
213120,note_on,0,0,1,,,,,,,,,,,,,,,0,,,58,0
213120,note_on,0,0,1,,,,,,,,,,,,,,,0,,,69,44
213120,set_tempo,240,1,0,,,,,,,,,,,,609137,,,,,,,
213120,note_on,480,0,1,,,,,,,,,,,,,,,0,,,70,0
213120,note_on,0,0,2,,,,,,,,,,,,,,,0,,,51,36
213120,control_change,6720,0,2,,,,,,,,,,,,,,,0,64,127,,
213240,note_on,120,0,2,,,,,,,,,,,,,,,0,,,51,0
213240,note_on,0,0,2,,,,,,,,,,,,,,,0,,,58,30
213360,note_on,0,0,2,,,,,,,,,,,,,,,0,,,55,31
213360,set_tempo,240,1,0,,,,,,,,,,,,588235,,,,,,,
213360,note_on,120,0,2,,,,,,,,,,,,,,,0,,,58,0
213360,note_on,0,0,1,,,,,,,,,,,,,,,0,,,72,39
213360,note_on,240,0,1,,,,,,,,,,,,,,,0,,,69,0
213480,note_on,120,0,2,,,,,,,,,,,,,,,0,,,55,0
213480,note_on,0,0,2,,,,,,,,,,,,,,,0,,,58,31
213600,set_tempo,240,1,0,,,,,,,,,,,,571429,,,,,,,
213600,note_on,240,0,1,,,,,,,,,,,,,,,0,,,72,0
213600,note_on,120,0,2,,,,,,,,,,,,,,,0,,,58,0
213600,note_on,0,0,1,,,,,,,,,,,,,,,0,,,70,50
213600,note_on,0,0,2,,,,,,,,,,,,,,,0,,,63,36
213720,note_on,120,0,2,,,,,,,,,,,,,,,0,,,63,0
213720,note_on,0,0,2,,,,,,,,,,,,,,,0,,,58,31
213840,note_on,0,0,2,,,,,,,,,,,,,,,0,,,55,31
213840,note_on,120,0,2,,,,,,,,,,,,,,,0,,,58,0
213960,note_on,120,0,2,,,,,,,,,,,,,,,0,,,55,0
213960,note_on,0,0,2,,,,,,,,,,,,,,,0,,,58,31
214080,note_on,120,0,2,,,,,,,,,,,,,,,0,,,58,0
214080,note_on,0,0,2,,,,,,,,,,,,,,,0,,,51,36
214084,control_change,4,0,2,,,,,,,,,,,,,,,0,64,0,,
214137,control_change,53,0,2,,,,,,,,,,,,,,,0,64,127,,
214200,note_on,63,0,2,,,,,,,,,,,,,,,0,,,51,0
214200,note_on,0,0,2,,,,,,,,,,,,,,,0,,,58,31
214320,note_on,0,0,2,,,,,,,,,,,,,,,0,,,55,31
214320,set_tempo,720,1,0,,,,,,,,,,,,560748,,,,,,,
214320,note_on,720,0,1,,,,,,,,,,,,,,,0,,,70,0
214320,note_on,0,0,1,,,,,,,,,,,,,,,0,,,72,46
214320,note_on,120,0,2,,,,,,,,,,,,,,,0,,,58,0
214440,note_on,0,0,2,,,,,,,,,,,,,,,0,,,58,32
214440,note_on,120,0,2,,,,,,,,,,,,,,,0,,,55,0
214560,note_on,240,0,1,,,,,,,,,,,,,,,0,,,72,0
214560,note_on,0,0,1,,,,,,,,,,,,,,,0,,,74,48
214560,note_on,0,0,2,,,,,,,,,,,,,,,0,,,63,36
214560,note_on,120,0,2,,,,,,,,,,,,,,,0,,,58,0
214680,note_on,0,0,2,,,,,,,,,,,,,,,0,,,58,31
214680,note_on,120,0,2,,,,,,,,,,,,,,,0,,,63,0
214800,note_on,0,0,2,,,,,,,,,,,,,,,0,,,55,31
214800,note_on,120,0,2,,,,,,,,,,,,,,,0,,,58,0
214800,set_tempo,480,1,0,,,,,,,,,,,,591133,,,,,,,
214800,note_on,0,0,1,,,,,,,,,,,,,,,0,,,75,50
214800,note_on,240,0,1,,,,,,,,,,,,,,,0,,,74,0
214920,note_on,120,0,2,,,,,,,,,,,,,,,0,,,55,0
214920,note_on,0,0,2,,,,,,,,,,,,,,,0,,,58,31
215040,note_on,0,0,1,,,,,,,,,,,,,,,0,,,69,52
215040,note_on,240,0,1,,,,,,,,,,,,,,,0,,,75,0
215040,set_tempo,240,1,0,,,,,,,,,,,,588235,,,,,,,
215040,note_on,120,0,2,,,,,,,,,,,,,,,0,,,58,0
215040,note_on,0,0,2,,,,,,,,,,,,,,,0,,,51,36
215046,control_change,6,0,2,,,,,,,,,,,,,,,0,64,0,,
215103,control_change,57,0,2,,,,,,,,,,,,,,,0,64,127,,
215160,note_on,0,0,2,,,,,,,,,,,,,,,0,,,58,30
215160,note_on,57,0,2,,,,,,,,,,,,,,,0,,,51,0
215280,note_on,0,0,2,,,,,,,,,,,,,,,0,,,55,31
215280,note_on,120,0,2,,,,,,,,,,,,,,,0,,,58,0
215280,set_tempo,240,1,0,,,,,,,,,,,,568720,,,,,,,
215280,note_on,240,0,1,,,,,,,,,,,,,,,0,,,69,0
215280,note_on,0,0,1,,,,,,,,,,,,,,,0,,,72,49
215400,note_on,120,0,2,,,,,,,,,,,,,,,0,,,55,0
215400,note_on,0,0,2,,,,,,,,,,,,,,,0,,,58,31
215520,note_on,0,0,2,,,,,,,,,,,,,,,0,,,63,36
215520,note_on,240,0,1,,,,,,,,,,,,,,,0,,,72,0
215520,note_on,0,0,1,,,,,,,,,,,,,,,0,,,70,53
215520,note_on,120,0,2,,,,,,,,,,,,,,,0,,,58,0
215640,note_on,120,0,2,,,,,,,,,,,,,,,0,,,63,0
215640,note_on,0,0,2,,,,,,,,,,,,,,,0,,,58,31
215760,note_on,120,0,2,,,,,,,,,,,,,,,0,,,58,0
215760,note_on,0,0,2,,,,,,,,,,,,,,,0,,,55,31
215880,note_on,120,0,2,,,,,,,,,,,,,,,0,,,55,0
215880,note_on,0,0,2,,,,,,,,,,,,,,,0,,,58,31
216000,note_on,120,0,2,,,,,,,,,,,,,,,0,,,58,0
216000,note_on,0,0,2,,,,,,,,,,,,,,,0,,,51,36
216005,control_change,5,0,2,,,,,,,,,,,,,,,0,64,0,,
216057,control_change,52,0,2,,,,,,,,,,,,,,,0,64,127,,
216120,note_on,63,0,2,,,,,,,,,,,,,,,0,,,51,0
216120,note_on,0,0,2,,,,,,,,,,,,,,,0,,,58,31
216240,note_on,120,0,2,,,,,,,,,,,,,,,0,,,58,0
216240,note_on,0,0,1,,,,,,,,,,,,,,,0,,,72,47
216240,note_on,720,0,1,,,,,,,,,,,,,,,0,,,70,0
216240,set_tempo,960,1,0,,,,,,,,,,,,560748,,,,,,,
216240,note_on,0,0,2,,,,,,,,,,,,,,,0,,,55,31
216360,note_on,120,0,2,,,,,,,,,,,,,,,0,,,55,0
216360,note_on,0,0,2,,,,,,,,,,,,,,,0,,,58,32
216480,note_on,120,0,2,,,,,,,,,,,,,,,0,,,58,0
216480,note_on,240,0,1,,,,,,,,,,,,,,,0,,,72,0
216480,note_on,0,0,1,,,,,,,,,,,,,,,0,,,74,49
216480,note_on,0,0,2,,,,,,,,,,,,,,,0,,,63,36
216600,note_on,0,0,2,,,,,,,,,,,,,,,0,,,58,31
216600,note_on,120,0,2,,,,,,,,,,,,,,,0,,,63,0
216720,note_on,0,0,1,,,,,,,,,,,,,,,0,,,75,52
216720,set_tempo,480,1,0,,,,,,,,,,,,591133,,,,,,,
216720,note_on,240,0,1,,,,,,,,,,,,,,,0,,,74,0
216720,note_on,120,0,2,,,,,,,,,,,,,,,0,,,58,0
216720,note_on,0,0,2,,,,,,,,,,,,,,,0,,,55,31
216840,note_on,120,0,2,,,,,,,,,,,,,,,0,,,55,0
216840,note_on,0,0,2,,,,,,,,,,,,,,,0,,,58,31
216960,note_on,240,0,1,,,,,,,,,,,,,,,0,,,75,0
216960,note_on,120,0,2,,,,,,,,,,,,,,,0,,,58,0
216960,control_change,0,0,2,,,,,,,,,,,,,,,0,64,0,,
216960,note_on,0,0,2,,,,,,,,,,,,,,,0,,,46,40
216960,note_on,0,0,1,,,,,,,,,,,,,,,0,,,76,57
216960,set_tempo,240,1,0,,,,,,,,,,,,612245,,,,,,,
216970,control_change,10,0,2,,,,,,,,,,,,,,,0,64,0,,
217023,control_change,53,0,2,,,,,,,,,,,,,,,0,64,127,,
217080,note_on,57,0,2,,,,,,,,,,,,,,,0,,,46,0
217080,note_on,0,0,2,,,,,,,,,,,,,,,0,,,58,33
217200,set_tempo,240,1,0,,,,,,,,,,,,568720,,,,,,,
217200,note_on,0,0,1,,,,,,,,,,,,,,,0,,,79,55
217200,note_on,240,0,1,,,,,,,,,,,,,,,0,,,76,0
217200,note_on,120,0,2,,,,,,,,,,,,,,,0,,,58,0
217200,note_on,0,0,2,,,,,,,,,,,,,,,0,,,56,34
217320,note_on,120,0,2,,,,,,,,,,,,,,,0,,,56,0
217320,note_on,0,0,2,,,,,,,,,,,,,,,0,,,58,34
217440,note_on,0,0,1,,,,,,,,,,,,,,,0,,,77,58
217440,note_on,120,0,2,,,,,,,,,,,,,,,0,,,58,0
217440,note_on,0,0,2,,,,,,,,,,,,,,,0,,,62,40
217440,note_on,240,0,1,,,,,,,,,,,,,,,0,,,79,0
217560,note_on,0,0,2,,,,,,,,,,,,,,,0,,,58,34
217560,note_on,120,0,2,,,,,,,,,,,,,,,0,,,62,0
217680,note_on,120,0,2,,,,,,,,,,,,,,,0,,,58,0
217680,note_on,0,0,2,,,,,,,,,,,,,,,0,,,56,34
217800,note_on,120,0,2,,,,,,,,,,,,,,,0,,,56,0
217800,note_on,0,0,2,,,,,,,,,,,,,,,0,,,58,34
217920,note_on,120,0,2,,,,,,,,,,,,,,,0,,,58,0
217920,control_change,0,0,2,,,,,,,,,,,,,,,0,64,0,,
217920,note_on,0,0,2,,,,,,,,,,,,,,,0,,,46,40
217977,control_change,57,0,2,,,,,,,,,,,,,,,0,64,127,,
218040,note_on,0,0,2,,,,,,,,,,,,,,,0,,,58,34
218040,note_on,63,0,2,,,,,,,,,,,,,,,0,,,46,0
218160,note_on,0,0,1,,,,,,,,,,,,,,,0,,,74,55
218160,note_on,720,0,1,,,,,,,,,,,,,,,0,,,77,0
218160,note_on,120,0,2,,,,,,,,,,,,,,,0,,,58,0
218160,note_on,0,0,2,,,,,,,,,,,,,,,0,,,56,34
218160,set_tempo,960,1,0,,,,,,,,,,,,560748,,,,,,,
218280,note_on,0,0,2,,,,,,,,,,,,,,,0,,,58,35
218280,note_on,120,0,2,,,,,,,,,,,,,,,0,,,56,0
218400,note_on,0,0,2,,,,,,,,,,,,,,,0,,,62,40
218400,note_on,0,0,1,,,,,,,,,,,,,,,0,,,72,53
218400,note_on,240,0,1,,,,,,,,,,,,,,,0,,,74,0
218400,note_on,120,0,2,,,,,,,,,,,,,,,0,,,58,0
218520,note_on,120,0,2,,,,,,,,,,,,,,,0,,,62,0
218520,note_on,0,0,2,,,,,,,,,,,,,,,0,,,58,34
218640,note_on,240,0,1,,,,,,,,,,,,,,,0,,,72,0
218640,note_on,0,0,1,,,,,,,,,,,,,,,0,,,70,53
218640,set_tempo,480,1,0,,,,,,,,,,,,591133,,,,,,,
218640,note_on,120,0,2,,,,,,,,,,,,,,,0,,,58,0
218640,note_on,0,0,2,,,,,,,,,,,,,,,0,,,56,34
218760,note_on,120,0,2,,,,,,,,,,,,,,,0,,,56,0
218760,note_on,0,0,2,,,,,,,,,,,,,,,0,,,58,34
218880,set_tempo,240,1,0,,,,,,,,,,,,588235,,,,,,,
218880,note_on,0,0,1,,,,,,,,,,,,,,,0,,,76,57
218880,note_on,0,0,2,,,,,,,,,,,,,,,0,,,46,40
218880,control_change,0,0,2,,,,,,,,,,,,,,,0,64,0,,
218880,note_on,240,0,1,,,,,,,,,,,,,,,0,,,70,0
218880,note_on,120,0,2,,,,,,,,,,,,,,,0,,,58,0
218890,control_change,10,0,2,,,,,,,,,,,,,,,0,64,0,,
218943,control_change,53,0,2,,,,,,,,,,,,,,,0,64,127,,
219000,note_on,57,0,2,,,,,,,,,,,,,,,0,,,46,0
219000,note_on,0,0,2,,,,,,,,,,,,,,,0,,,58,33
219120,note_on,240,0,1,,,,,,,,,,,,,,,0,,,76,0
219120,note_on,0,0,1,,,,,,,,,,,,,,,0,,,79,53
219120,note_on,120,0,2,,,,,,,,,,,,,,,0,,,58,0
219120,note_on,0,0,2,,,,,,,,,,,,,,,0,,,56,34
219120,set_tempo,240,1,0,,,,,,,,,,,,568720,,,,,,,
219240,note_on,0,0,2,,,,,,,,,,,,,,,0,,,58,34
219240,note_on,120,0,2,,,,,,,,,,,,,,,0,,,56,0
219360,note_on,0,0,2,,,,,,,,,,,,,,,0,,,62,40
219360,note_on,240,0,1,,,,,,,,,,,,,,,0,,,79,0
219360,note_on,120,0,2,,,,,,,,,,,,,,,0,,,58,0
219360,note_on,0,0,1,,,,,,,,,,,,,,,0,,,77,58
219480,note_on,120,0,2,,,,,,,,,,,,,,,0,,,62,0
219480,note_on,0,0,2,,,,,,,,,,,,,,,0,,,58,34
219600,note_on,120,0,2,,,,,,,,,,,,,,,0,,,58,0
219600,note_on,0,0,2,,,,,,,,,,,,,,,0,,,56,34
219720,note_on,120,0,2,,,,,,,,,,,,,,,0,,,56,0
219720,note_on,0,0,2,,,,,,,,,,,,,,,0,,,58,34
219840,note_on,0,0,2,,,,,,,,,,,,,,,0,,,46,40
219840,note_on,120,0,2,,,,,,,,,,,,,,,0,,,58,0
219850,control_change,10,0,2,,,,,,,,,,,,,,,0,64,0,,
219897,control_change,47,0,2,,,,,,,,,,,,,,,0,64,127,,
219960,note_on,63,0,2,,,,,,,,,,,,,,,0,,,46,0
219960,note_on,0,0,2,,,,,,,,,,,,,,,0,,,58,34
220080,set_tempo,960,1,0,,,,,,,,,,,,560748,,,,,,,
220080,note_on,720,0,1,,,,,,,,,,,,,,,0,,,77,0
220080,note_on,0,0,1,,,,,,,,,,,,,,,0,,,74,55
220080,note_on,120,0,2,,,,,,,,,,,,,,,0,,,58,0
220080,note_on,0,0,2,,,,,,,,,,,,,,,0,,,56,34
220200,note_on,120,0,2,,,,,,,,,,,,,,,0,,,56,0
220200,note_on,0,0,2,,,,,,,,,,,,,,,0,,,58,35
220320,note_on,0,0,2,,,,,,,,,,,,,,,0,,,62,40
220320,note_on,120,0,2,,,,,,,,,,,,,,,0,,,58,0
220320,set_tempo,240,1,0,,,,,,,,,,,,552995,,,,,,,
220320,note_on,240,0,1,,,,,,,,,,,,,,,0,,,74,0
220320,note_on,0,0,1,,,,,,,,,,,,,,,0,,,72,53
220440,note_on,0,0,2,,,,,,,,,,,,,,,0,,,58,34
220440,note_on,120,0,2,,,,,,,,,,,,,,,0,,,62,0
220560,note_on,120,0,2,,,,,,,,,,,,,,,0,,,58,0
220560,set_tempo,240,1,0,,,,,,,,,,,,591133,,,,,,,
220560,note_on,240,0,1,,,,,,,,,,,,,,,0,,,72,0
220560,note_on,0,0,2,,,,,,,,,,,,,,,0,,,56,34
220560,note_on,0,0,1,,,,,,,,,,,,,,,0,,,70,53
220680,note_on,0,0,2,,,,,,,,,,,,,,,0,,,58,34
220680,note_on,120,0,2,,,,,,,,,,,,,,,0,,,56,0
220800,note_on,0,0,1,,,,,,,,,,,,,,,0,,,81,55
220800,note_on,0,0,1,,,,,,,,,,,,,,,0,,,69,46
220800,note_on,0,0,2,,,,,,,,,,,,,,,0,,,51,40
220800,note_on,120,0,2,,,,,,,,,,,,,,,0,,,58,0
220800,set_tempo,240,1,0,,,,,,,,,,,,612245,,,,,,,
220800,note_on,240,0,1,,,,,,,,,,,,,,,0,,,70,0
220808,control_change,8,0,2,,,,,,,,,,,,,,,0,64,0,,
220857,control_change,49,0,2,,,,,,,,,,,,,,,0,64,127,,
220920,note_on,63,0,2,,,,,,,,,,,,,,,0,,,51,0
220920,note_on,0,0,2,,,,,,,,,,,,,,,0,,,58,33
221040,set_tempo,240,1,0,,,,,,,,,,,,568720,,,,,,,
221040,note_on,0,0,2,,,,,,,,,,,,,,,0,,,55,34
221040,note_on,0,0,1,,,,,,,,,,,,,,,0,,,81,0
221040,note_on,0,0,1,,,,,,,,,,,,,,,0,,,84,51
221040,note_on,0,0,1,,,,,,,,,,,,,,,0,,,72,42
221040,note_on,120,0,2,,,,,,,,,,,,,,,0,,,58,0
221040,note_on,240,0,1,,,,,,,,,,,,,,,0,,,69,0
221160,note_on,120,0,2,,,,,,,,,,,,,,,0,,,55,0
221160,note_on,0,0,2,,,,,,,,,,,,,,,0,,,58,34
221280,note_on,240,0,1,,,,,,,,,,,,,,,0,,,72,0
221280,note_on,0,0,1,,,,,,,,,,,,,,,0,,,84,0
221280,note_on,0,0,1,,,,,,,,,,,,,,,0,,,82,58
221280,note_on,0,0,1,,,,,,,,,,,,,,,0,,,70,49
221280,note_on,120,0,2,,,,,,,,,,,,,,,0,,,58,0
221280,note_on,0,0,2,,,,,,,,,,,,,,,0,,,63,40
221400,note_on,120,0,2,,,,,,,,,,,,,,,0,,,63,0
221400,note_on,0,0,2,,,,,,,,,,,,,,,0,,,58,34
221520,note_on,120,0,2,,,,,,,,,,,,,,,0,,,58,0
221520,note_on,0,0,2,,,,,,,,,,,,,,,0,,,55,34
221640,note_on,0,0,2,,,,,,,,,,,,,,,0,,,58,34
221640,note_on,120,0,2,,,,,,,,,,,,,,,0,,,55,0
221760,note_on,120,0,2,,,,,,,,,,,,,,,0,,,58,0
221760,note_on,0,0,2,,,,,,,,,,,,,,,0,,,51,40
221769,control_change,9,0,2,,,,,,,,,,,,,,,0,64,0,,
221817,control_change,48,0,2,,,,,,,,,,,,,,,0,64,127,,
221880,note_on,63,0,2,,,,,,,,,,,,,,,0,,,51,0
221880,note_on,0,0,2,,,,,,,,,,,,,,,0,,,58,34
222000,set_tempo,960,1,0,,,,,,,,,,,,560748,,,,,,,
222000,note_on,120,0,2,,,,,,,,,,,,,,,0,,,58,0
222000,note_on,720,0,1,,,,,,,,,,,,,,,0,,,70,0
222000,note_on,0,0,1,,,,,,,,,,,,,,,0,,,82,0
222000,note_on,0,0,1,,,,,,,,,,,,,,,0,,,84,50
222000,note_on,0,0,2,,,,,,,,,,,,,,,0,,,55,34
222000,note_on,0,0,1,,,,,,,,,,,,,,,0,,,72,42
222120,note_on,120,0,2,,,,,,,,,,,,,,,0,,,55,0
222120,note_on,0,0,2,,,,,,,,,,,,,,,0,,,58,35
222240,note_on,120,0,2,,,,,,,,,,,,,,,0,,,58,0
222240,note_on,0,0,2,,,,,,,,,,,,,,,0,,,63,40
222240,note_on,240,0,1,,,,,,,,,,,,,,,0,,,72,0
222240,note_on,0,0,1,,,,,,,,,,,,,,,0,,,86,52
222240,note_on,0,0,1,,,,,,,,,,,,,,,0,,,74,44
222240,note_on,0,0,1,,,,,,,,,,,,,,,0,,,84,0
222360,note_on,120,0,2,,,,,,,,,,,,,,,0,,,63,0
222360,note_on,0,0,2,,,,,,,,,,,,,,,0,,,58,34
222480,note_on,240,0,1,,,,,,,,,,,,,,,0,,,74,0
222480,note_on,0,0,1,,,,,,,,,,,,,,,0,,,75,46
222480,note_on,0,0,1,,,,,,,,,,,,,,,0,,,87,55
222480,note_on,0,0,1,,,,,,,,,,,,,,,0,,,86,0
222480,set_tempo,480,1,0,,,,,,,,,,,,591133,,,,,,,
222480,note_on,120,0,2,,,,,,,,,,,,,,,0,,,58,0
222480,note_on,0,0,2,,,,,,,,,,,,,,,0,,,55,34
222600,note_on,120,0,2,,,,,,,,,,,,,,,0,,,55,0
222600,note_on,0,0,2,,,,,,,,,,,,,,,0,,,58,34
222720,note_on,0,0,2,,,,,,,,,,,,,,,0,,,51,40
222720,note_on,0,0,1,,,,,,,,,,,,,,,0,,,69,48
222720,note_on,0,0,1,,,,,,,,,,,,,,,0,,,81,57
222720,note_on,0,0,1,,,,,,,,,,,,,,,0,,,87,0
222720,note_on,240,0,1,,,,,,,,,,,,,,,0,,,75,0
222720,note_on,120,0,2,,,,,,,,,,,,,,,0,,,58,0
222720,set_tempo,240,1,0,,,,,,,,,,,,588235,,,,,,,
222729,control_change,9,0,2,,,,,,,,,,,,,,,0,64,0,,
222783,control_change,54,0,2,,,,,,,,,,,,,,,0,64,127,,
222840,note_on,57,0,2,,,,,,,,,,,,,,,0,,,51,0
222840,note_on,0,0,2,,,,,,,,,,,,,,,0,,,58,33
222960,note_on,120,0,2,,,,,,,,,,,,,,,0,,,58,0
222960,note_on,0,0,2,,,,,,,,,,,,,,,0,,,55,34
222960,note_on,0,0,1,,,,,,,,,,,,,,,0,,,72,45
222960,set_tempo,240,1,0,,,,,,,,,,,,568720,,,,,,,
222960,note_on,240,0,1,,,,,,,,,,,,,,,0,,,69,0
222960,note_on,0,0,1,,,,,,,,,,,,,,,0,,,81,0
222960,note_on,0,0,1,,,,,,,,,,,,,,,0,,,84,53
223080,note_on,120,0,2,,,,,,,,,,,,,,,0,,,55,0
223080,note_on,0,0,2,,,,,,,,,,,,,,,0,,,58,34
223200,note_on,0,0,1,,,,,,,,,,,,,,,0,,,82,58
223200,note_on,0,0,1,,,,,,,,,,,,,,,0,,,70,49
223200,note_on,240,0,1,,,,,,,,,,,,,,,0,,,72,0
223200,note_on,120,0,2,,,,,,,,,,,,,,,0,,,58,0
223200,note_on,0,0,1,,,,,,,,,,,,,,,0,,,84,0
223200,note_on,0,0,2,,,,,,,,,,,,,,,0,,,63,40
223320,note_on,120,0,2,,,,,,,,,,,,,,,0,,,63,0
223320,note_on,0,0,2,,,,,,,,,,,,,,,0,,,58,34
223440,note_on,0,0,2,,,,,,,,,,,,,,,0,,,55,34
223440,note_on,120,0,2,,,,,,,,,,,,,,,0,,,58,0
223560,note_on,120,0,2,,,,,,,,,,,,,,,0,,,55,0
223560,note_on,0,0,2,,,,,,,,,,,,,,,0,,,58,34
223680,note_on,120,0,2,,,,,,,,,,,,,,,0,,,58,0
223680,note_on,0,0,2,,,,,,,,,,,,,,,0,,,51,40
223680,set_tempo,720,1,0,,,,,,,,,,,,585366,,,,,,,
223687,control_change,7,0,2,,,,,,,,,,,,,,,0,64,0,,
223737,control_change,50,0,2,,,,,,,,,,,,,,,0,64,127,,
223800,note_on,63,0,2,,,,,,,,,,,,,,,0,,,51,0
223800,note_on,0,0,2,,,,,,,,,,,,,,,0,,,58,34
223920,note_on,120,0,2,,,,,,,,,,,,,,,0,,,58,0
223920,note_on,0,0,2,,,,,,,,,,,,,,,0,,,55,34
223920,note_on,720,0,1,,,,,,,,,,,,,,,0,,,70,0
223920,note_on,0,0,1,,,,,,,,,,,,,,,0,,,82,0
223920,set_tempo,240,1,0,,,,,,,,,,,,560748,,,,,,,
223920,note_on,0,0,1,,,,,,,,,,,,,,,0,,,84,51
223920,note_on,0,0,1,,,,,,,,,,,,,,,0,,,72,42
224040,note_on,0,0,2,,,,,,,,,,,,,,,0,,,58,35
224040,note_on,120,0,2,,,,,,,,,,,,,,,0,,,55,0
224160,note_on,0,0,2,,,,,,,,,,,,,,,0,,,63,40
224160,note_on,120,0,2,,,,,,,,,,,,,,,0,,,58,0
224160,note_on,0,0,1,,,,,,,,,,,,,,,0,,,74,45
224160,note_on,0,0,1,,,,,,,,,,,,,,,0,,,86,53
224160,set_tempo,240,1,0,,,,,,,,,,,,552995,,,,,,,
224160,note_on,240,0,1,,,,,,,,,,,,,,,0,,,72,0
224160,note_on,0,0,1,,,,,,,,,,,,,,,0,,,84,0
224280,note_on,120,0,2,,,,,,,,,,,,,,,0,,,63,0
224280,note_on,0,0,2,,,,,,,,,,,,,,,0,,,58,34
224400,set_tempo,240,1,0,,,,,,,,,,,,591133,,,,,,,
224400,note_on,240,0,1,,,,,,,,,,,,,,,0,,,74,0
224400,note_on,0,0,1,,,,,,,,,,,,,,,0,,,86,0
224400,note_on,0,0,1,,,,,,,,,,,,,,,0,,,87,57
224400,note_on,0,0,1,,,,,,,,,,,,,,,0,,,75,48
224400,note_on,120,0,2,,,,,,,,,,,,,,,0,,,58,0
224400,note_on,0,0,2,,,,,,,,,,,,,,,0,,,55,34
224520,note_on,0,0,2,,,,,,,,,,,,,,,0,,,58,34
224520,note_on,120,0,2,,,,,,,,,,,,,,,0,,,55,0
224640,control_change,0,0,2,,,,,,,,,,,,,,,0,64,0,,
224640,note_on,120,0,2,,,,,,,,,,,,,,,0,,,58,0
224640,note_on,240,0,1,,,,,,,,,,,,,,,0,,,75,0
224640,note_on,0,0,1,,,,,,,,,,,,,,,0,,,88,62
224640,note_on,0,0,1,,,,,,,,,,,,,,,0,,,76,52
224640,note_on,0,0,1,,,,,,,,,,,,,,,0,,,87,0
224640,set_tempo,240,1,0,,,,,,,,,,,,588235,,,,,,,
224640,note_on,0,0,2,,,,,,,,,,,,,,,0,,,46,44
224649,control_change,9,0,2,,,,,,,,,,,,,,,0,64,0,,
224703,control_change,54,0,2,,,,,,,,,,,,,,,0,64,127,,
224760,note_on,0,0,2,,,,,,,,,,,,,,,0,,,58,36
224760,note_on,57,0,2,,,,,,,,,,,,,,,0,,,46,0
224880,note_on,120,0,2,,,,,,,,,,,,,,,0,,,58,0
224880,set_tempo,240,1,0,,,,,,,,,,,,568720,,,,,,,
224880,note_on,240,0,1,,,,,,,,,,,,,,,0,,,76,0
224880,note_on,0,0,1,,,,,,,,,,,,,,,0,,,88,0
224880,note_on,0,0,1,,,,,,,,,,,,,,,0,,,91,56
224880,note_on,0,0,1,,,,,,,,,,,,,,,0,,,79,47
224880,note_on,0,0,2,,,,,,,,,,,,,,,0,,,56,36
225000,note_on,120,0,2,,,,,,,,,,,,,,,0,,,56,0
225000,note_on,0,0,2,,,,,,,,,,,,,,,0,,,58,36
225120,note_on,120,0,2,,,,,,,,,,,,,,,0,,,58,0
225120,note_on,0,0,2,,,,,,,,,,,,,,,0,,,62,44
225120,note_on,240,0,1,,,,,,,,,,,,,,,0,,,79,0
225120,note_on,0,0,1,,,,,,,,,,,,,,,0,,,91,0
225120,note_on,0,0,1,,,,,,,,,,,,,,,0,,,77,51
225120,note_on,0,0,1,,,,,,,,,,,,,,,0,,,89,61
225240,note_on,0,0,2,,,,,,,,,,,,,,,0,,,58,36
225240,note_on,120,0,2,,,,,,,,,,,,,,,0,,,62,0
225360,note_on,0,0,2,,,,,,,,,,,,,,,0,,,56,36
225360,note_on,120,0,2,,,,,,,,,,,,,,,0,,,58,0
225480,note_on,0,0,2,,,,,,,,,,,,,,,0,,,58,36
225480,note_on,120,0,2,,,,,,,,,,,,,,,0,,,56,0
225600,note_on,0,0,2,,,,,,,,,,,,,,,0,,,46,44
225600,note_on,120,0,2,,,,,,,,,,,,,,,0,,,58,0
225607,control_change,7,0,2,,,,,,,,,,,,,,,0,64,0,,
225657,control_change,50,0,2,,,,,,,,,,,,,,,0,64,127,,
225720,note_on,0,0,2,,,,,,,,,,,,,,,0,,,58,36
225720,note_on,63,0,2,,,,,,,,,,,,,,,0,,,46,0
225840,note_on,0,0,1,,,,,,,,,,,,,,,0,,,86,60
225840,note_on,0,0,1,,,,,,,,,,,,,,,0,,,74,50
225840,note_on,0,0,1,,,,,,,,,,,,,,,0,,,89,0
225840,set_tempo,960,1,0,,,,,,,,,,,,560748,,,,,,,
225840,note_on,720,0,1,,,,,,,,,,,,,,,0,,,77,0
225840,note_on,120,0,2,,,,,,,,,,,,,,,0,,,58,0
225840,note_on,0,0,2,,,,,,,,,,,,,,,0,,,56,36
225960,note_on,120,0,2,,,,,,,,,,,,,,,0,,,56,0
225960,note_on,0,0,2,,,,,,,,,,,,,,,0,,,58,37
226080,note_on,0,0,1,,,,,,,,,,,,,,,0,,,84,58
226080,note_on,0,0,1,,,,,,,,,,,,,,,0,,,86,0
226080,note_on,120,0,2,,,,,,,,,,,,,,,0,,,58,0
226080,note_on,0,0,2,,,,,,,,,,,,,,,0,,,62,44
226080,note_on,240,0,1,,,,,,,,,,,,,,,0,,,74,0
226080,note_on,0,0,1,,,,,,,,,,,,,,,0,,,72,49
226200,note_on,120,0,2,,,,,,,,,,,,,,,0,,,62,0
226200,note_on,0,0,2,,,,,,,,,,,,,,,0,,,58,36
226320,note_on,0,0,1,,,,,,,,,,,,,,,0,,,84,0
226320,note_on,0,0,1,,,,,,,,,,,,,,,0,,,82,58
226320,note_on,0,0,2,,,,,,,,,,,,,,,0,,,56,36
226320,note_on,120,0,2,,,,,,,,,,,,,,,0,,,58,0
226320,set_tempo,480,1,0,,,,,,,,,,,,618557,,,,,,,
226320,note_on,0,0,1,,,,,,,,,,,,,,,0,,,70,49
226320,note_on,240,0,1,,,,,,,,,,,,,,,0,,,72,0
226440,note_on,0,0,2,,,,,,,,,,,,,,,0,,,58,36
226440,note_on,120,0,2,,,,,,,,,,,,,,,0,,,56,0
226560,note_on,0,0,1,,,,,,,,,,,,,,,0,,,82,0
226560,note_on,0,0,1,,,,,,,,,,,,,,,0,,,88,62
226560,note_on,240,0,1,,,,,,,,,,,,,,,0,,,70,0
226560,note_on,0,0,2,,,,,,,,,,,,,,,0,,,46,44
226560,note_on,120,0,2,,,,,,,,,,,,,,,0,,,58,0
226560,set_tempo,240,1,0,,,,,,,,,,,,588235,,,,,,,
226560,note_on,0,0,1,,,,,,,,,,,,,,,0,,,76,52
226560,control_change,0,0,2,,,,,,,,,,,,,,,0,64,0,,
226570,control_change,10,0,2,,,,,,,,,,,,,,,0,64,0,,
226623,control_change,53,0,2,,,,,,,,,,,,,,,0,64,127,,
226680,note_on,57,0,2,,,,,,,,,,,,,,,0,,,46,0
226680,note_on,0,0,2,,,,,,,,,,,,,,,0,,,58,36
226800,note_on,0,0,2,,,,,,,,,,,,,,,0,,,56,36
226800,note_on,120,0,2,,,,,,,,,,,,,,,0,,,58,0
226800,note_on,0,0,1,,,,,,,,,,,,,,,0,,,88,0
226800,note_on,0,0,1,,,,,,,,,,,,,,,0,,,91,57
226800,note_on,0,0,1,,,,,,,,,,,,,,,0,,,79,48
226800,note_on,240,0,1,,,,,,,,,,,,,,,0,,,76,0
226800,set_tempo,240,1,0,,,,,,,,,,,,568720,,,,,,,
226920,note_on,0,0,2,,,,,,,,,,,,,,,0,,,58,36
226920,note_on,120,0,2,,,,,,,,,,,,,,,0,,,56,0
227040,note_on,0,0,2,,,,,,,,,,,,,,,0,,,62,44
227040,note_on,120,0,2,,,,,,,,,,,,,,,0,,,58,0
227040,note_on,0,0,1,,,,,,,,,,,,,,,0,,,77,52
227040,note_on,0,0,1,,,,,,,,,,,,,,,0,,,89,62
227040,note_on,0,0,1,,,,,,,,,,,,,,,0,,,91,0
227040,note_on,240,0,1,,,,,,,,,,,,,,,0,,,79,0
227160,note_on,0,0,2,,,,,,,,,,,,,,,0,,,58,36
227160,note_on,120,0,2,,,,,,,,,,,,,,,0,,,62,0
227280,note_on,0,0,2,,,,,,,,,,,,,,,0,,,56,36
227280,note_on,120,0,2,,,,,,,,,,,,,,,0,,,58,0
227400,note_on,0,0,2,,,,,,,,,,,,,,,0,,,58,36
227400,note_on,120,0,2,,,,,,,,,,,,,,,0,,,56,0
227520,note_on,0,0,2,,,,,,,,,,,,,,,0,,,46,44
227520,note_on,120,0,2,,,,,,,,,,,,,,,0,,,58,0
227530,control_change,10,0,2,,,,,,,,,,,,,,,0,64,0,,
227577,control_change,47,0,2,,,,,,,,,,,,,,,0,64,127,,
227640,note_on,63,0,2,,,,,,,,,,,,,,,0,,,46,0
227640,note_on,0,0,2,,,,,,,,,,,,,,,0,,,58,36
227760,note_on,0,0,1,,,,,,,,,,,,,,,0,,,74,50
227760,note_on,0,0,1,,,,,,,,,,,,,,,0,,,86,60
227760,note_on,0,0,1,,,,,,,,,,,,,,,0,,,89,0
227760,note_on,720,0,1,,,,,,,,,,,,,,,0,,,77,0
227760,note_on,120,0,2,,,,,,,,,,,,,,,0,,,58,0
227760,set_tempo,960,1,0,,,,,,,,,,,,560748,,,,,,,
227760,note_on,0,0,2,,,,,,,,,,,,,,,0,,,56,36
227880,note_on,0,0,2,,,,,,,,,,,,,,,0,,,58,37
227880,note_on,120,0,2,,,,,,,,,,,,,,,0,,,56,0
228000,note_on,0,0,2,,,,,,,,,,,,,,,0,,,62,44
228000,note_on,120,0,2,,,,,,,,,,,,,,,0,,,58,0
228000,note_on,240,0,1,,,,,,,,,,,,,,,0,,,74,0
228000,note_on,0,0,1,,,,,,,,,,,,,,,0,,,86,0
228000,note_on,0,0,1,,,,,,,,,,,,,,,0,,,84,58
228000,note_on,0,0,1,,,,,,,,,,,,,,,0,,,72,49
228120,note_on,120,0,2,,,,,,,,,,,,,,,0,,,62,0
228120,note_on,0,0,2,,,,,,,,,,,,,,,0,,,58,36
228240,set_tempo,480,1,0,,,,,,,,,,,,591133,,,,,,,
228240,note_on,240,0,1,,,,,,,,,,,,,,,0,,,72,0
228240,note_on,0,0,1,,,,,,,,,,,,,,,0,,,82,58
228240,note_on,0,0,1,,,,,,,,,,,,,,,0,,,70,49
228240,note_on,0,0,1,,,,,,,,,,,,,,,0,,,84,0
228240,note_on,120,0,2,,,,,,,,,,,,,,,0,,,58,0
228240,note_on,0,0,2,,,,,,,,,,,,,,,0,,,56,36
228360,note_on,120,0,2,,,,,,,,,,,,,,,0,,,56,0
228360,note_on,0,0,2,,,,,,,,,,,,,,,0,,,58,36
228480,note_on,120,0,2,,,,,,,,,,,,,,,0,,,58,0
228480,control_change,0,0,2,,,,,,,,,,,,,,,0,64,0,,
228480,note_on,0,0,2,,,,,,,,,,,,,,,0,,,51,44
228480,set_tempo,240,1,0,,,,,,,,,,,,631579,,,,,,,
228480,note_on,240,0,1,,,,,,,,,,,,,,,0,,,70,0
228480,note_on,0,0,1,,,,,,,,,,,,,,,0,,,82,0
228480,note_on,0,0,1,,,,,,,,,,,,,,,0,,,70,52
228480,note_on,0,0,1,,,,,,,,,,,,,,,0,,,82,62
228488,control_change,8,0,2,,,,,,,,,,,,,,,0,64,0,,
228543,control_change,55,0,2,,,,,,,,,,,,,,,0,64,127,,
228600,note_on,0,0,2,,,,,,,,,,,,,,,0,,,58,36
228600,note_on,57,0,2,,,,,,,,,,,,,,,0,,,51,0
228720,note_on,0,0,1,,,,,,,,,,,,,,,0,,,82,0
228720,set_tempo,240,1,0,,,,,,,,,,,,568720,,,,,,,
228720,note_on,240,0,1,,,,,,,,,,,,,,,0,,,70,0
228720,note_on,0,0,1,,,,,,,,,,,,,,,0,,,92,57
228720,note_on,0,0,1,,,,,,,,,,,,,,,0,,,80,48
228720,note_on,120,0,2,,,,,,,,,,,,,,,0,,,58,0
228720,note_on,0,0,2,,,,,,,,,,,,,,,0,,,55,36
228840,note_on,0,0,2,,,,,,,,,,,,,,,0,,,58,36
228840,note_on,120,0,2,,,,,,,,,,,,,,,0,,,55,0
228960,note_on,0,0,1,,,,,,,,,,,,,,,0,,,79,52
228960,note_on,0,0,1,,,,,,,,,,,,,,,0,,,92,0
228960,note_on,240,0,1,,,,,,,,,,,,,,,0,,,80,0
228960,note_on,0,0,2,,,,,,,,,,,,,,,0,,,63,44
228960,note_on,120,0,2,,,,,,,,,,,,,,,0,,,58,0
228960,note_on,0,0,1,,,,,,,,,,,,,,,0,,,91,62
229080,note_on,120,0,2,,,,,,,,,,,,,,,0,,,63,0
229080,note_on,0,0,2,,,,,,,,,,,,,,,0,,,58,36
229200,note_on,120,0,2,,,,,,,,,,,,,,,0,,,58,0
229200,note_on,0,0,2,,,,,,,,,,,,,,,0,,,55,36
229320,note_on,120,0,2,,,,,,,,,,,,,,,0,,,55,0
229320,note_on,0,0,2,,,,,,,,,,,,,,,0,,,58,36
229440,set_tempo,720,1,0,,,,,,,,,,,,585366,,,,,,,
229440,note_on,0,0,2,,,,,,,,,,,,,,,0,,,43,44
229440,note_on,120,0,2,,,,,,,,,,,,,,,0,,,58,0
229449,control_change,9,0,2,,,,,,,,,,,,,,,0,64,0,,
229497,control_change,48,0,2,,,,,,,,,,,,,,,0,64,127,,
229560,note_on,0,0,2,,,,,,,,,,,,,,,0,,,59,36
229560,note_on,63,0,2,,,,,,,,,,,,,,,0,,,43,0
229680,note_on,120,0,2,,,,,,,,,,,,,,,0,,,59,0
229680,note_on,0,0,1,,,,,,,,,,,,,,,0,,,91,0
229680,note_on,0,0,1,,,,,,,,,,,,,,,0,,,89,60
229680,note_on,0,0,1,,,,,,,,,,,,,,,0,,,77,50
229680,set_tempo,240,1,0,,,,,,,,,,,,560748,,,,,,,
229680,note_on,0,0,2,,,,,,,,,,,,,,,0,,,55,36
229680,note_on,720,0,1,,,,,,,,,,,,,,,0,,,79,0
229800,note_on,0,0,2,,,,,,,,,,,,,,,0,,,59,37
229800,note_on,120,0,2,,,,,,,,,,,,,,,0,,,55,0
229920,note_on,240,0,1,,,,,,,,,,,,,,,0,,,77,0
229920,note_on,0,0,1,,,,,,,,,,,,,,,0,,,86,58
229920,note_on,0,0,1,,,,,,,,,,,,,,,0,,,74,49
229920,note_on,0,0,1,,,,,,,,,,,,,,,0,,,89,0
229920,note_on,120,0,2,,,,,,,,,,,,,,,0,,,59,0
229920,note_on,0,0,2,,,,,,,,,,,,,,,0,,,65,44
230040,note_on,0,0,2,,,,,,,,,,,,,,,0,,,59,36
230040,note_on,120,0,2,,,,,,,,,,,,,,,0,,,65,0
230160,note_on,0,0,2,,,,,,,,,,,,,,,0,,,55,36
230160,note_on,120,0,2,,,,,,,,,,,,,,,0,,,59,0
230160,set_tempo,480,1,0,,,,,,,,,,,,591133,,,,,,,
230160,note_on,240,0,1,,,,,,,,,,,,,,,0,,,74,0
230160,note_on,0,0,1,,,,,,,,,,,,,,,0,,,86,0
230160,note_on,0,0,1,,,,,,,,,,,,,,,0,,,83,58
230160,note_on,0,0,1,,,,,,,,,,,,,,,0,,,71,49
230280,note_on,0,0,2,,,,,,,,,,,,,,,0,,,59,36
230280,note_on,120,0,2,,,,,,,,,,,,,,,0,,,55,0
230400,control_change,0,0,2,,,,,,,,,,,,,,,0,64,0,,
230400,note_on,0,0,1,,,,,,,,,,,,,,,0,,,83,0
230400,note_on,240,0,1,,,,,,,,,,,,,,,0,,,71,0
230400,set_tempo,240,1,0,,,,,,,,,,,,600000,,,,,,,
230400,note_on,0,0,1,,,,,,,,,,,,,,,0,,,79,62
230400,note_on,0,0,2,,,,,,,,,,,,,,,0,,,48,44
230400,note_on,0,0,1,,,,,,,,,,,,,,,0,,,67,52
230400,note_on,120,0,2,,,,,,,,,,,,,,,0,,,59,0
230409,control_change,9,0,2,,,,,,,,,,,,,,,0,64,0,,
230463,control_change,54,0,2,,,,,,,,,,,,,,,0,64,127,,
230520,note_on,0,0,2,,,,,,,,,,,,,,,0,,,55,36
230520,note_on,57,0,2,,,,,,,,,,,,,,,0,,,48,0
230640,note_on,0,0,1,,,,,,,,,,,,,,,0,,,79,0
230640,note_on,240,0,1,,,,,,,,,,,,,,,0,,,67,0
230640,note_on,120,0,2,,,,,,,,,,,,,,,0,,,55,0
230640,set_tempo,240,1,0,,,,,,,,,,,,568720,,,,,,,
230640,note_on,0,0,2,,,,,,,,,,,,,,,0,,,51,36
230640,note_on,0,0,1,,,,,,,,,,,,,,,0,,,77,48
230640,note_on,0,0,1,,,,,,,,,,,,,,,0,,,89,57
230760,note_on,120,0,2,,,,,,,,,,,,,,,0,,,51,0
230760,note_on,0,0,2,,,,,,,,,,,,,,,0,,,55,36
230880,note_on,0,0,1,,,,,,,,,,,,,,,0,,,87,62
230880,note_on,0,0,1,,,,,,,,,,,,,,,0,,,89,0
230880,note_on,240,0,1,,,,,,,,,,,,,,,0,,,77,0
230880,note_on,120,0,2,,,,,,,,,,,,,,,0,,,55,0
230880,note_on,0,0,2,,,,,,,,,,,,,,,0,,,60,44
230880,note_on,0,0,1,,,,,,,,,,,,,,,0,,,75,52
231000,note_on,0,0,2,,,,,,,,,,,,,,,0,,,55,36
231000,note_on,120,0,2,,,,,,,,,,,,,,,0,,,60,0
231120,note_on,0,0,2,,,,,,,,,,,,,,,0,,,51,36
231120,note_on,120,0,2,,,,,,,,,,,,,,,0,,,55,0
231240,note_on,120,0,2,,,,,,,,,,,,,,,0,,,51,0
231240,note_on,0,0,2,,,,,,,,,,,,,,,0,,,55,36
231360,note_on,120,0,2,,,,,,,,,,,,,,,0,,,55,0
231360,note_on,0,0,2,,,,,,,,,,,,,,,0,,,39,44
231360,set_tempo,720,1,0,,,,,,,,,,,,585366,,,,,,,
231369,control_change,9,0,2,,,,,,,,,,,,,,,0,64,0,,
231417,control_change,48,0,2,,,,,,,,,,,,,,,0,64,127,,
231480,note_on,63,0,2,,,,,,,,,,,,,,,0,,,39,0
231480,note_on,0,0,2,,,,,,,,,,,,,,,0,,,55,36
231600,note_on,0,0,1,,,,,,,,,,,,,,,0,,,87,0
231600,note_on,120,0,2,,,,,,,,,,,,,,,0,,,55,0
231600,note_on,0,0,2,,,,,,,,,,,,,,,0,,,51,36
231600,note_on,0,0,1,,,,,,,,,,,,,,,0,,,85,60
231600,note_on,0,0,1,,,,,,,,,,,,,,,0,,,73,50
231600,set_tempo,240,1,0,,,,,,,,,,,,560748,,,,,,,
231600,note_on,720,0,1,,,,,,,,,,,,,,,0,,,75,0
231720,note_on,0,0,2,,,,,,,,,,,,,,,0,,,55,37
231720,note_on,120,0,2,,,,,,,,,,,,,,,0,,,51,0
231840,note_on,240,0,1,,,,,,,,,,,,,,,0,,,73,0
231840,note_on,0,0,1,,,,,,,,,,,,,,,0,,,85,0
231840,note_on,0,0,1,,,,,,,,,,,,,,,0,,,82,58
231840,note_on,0,0,1,,,,,,,,,,,,,,,0,,,70,49
231840,note_on,120,0,2,,,,,,,,,,,,,,,0,,,55,0
231840,note_on,0,0,2,,,,,,,,,,,,,,,0,,,61,44
231960,note_on,0,0,2,,,,,,,,,,,,,,,0,,,55,36
231960,note_on,120,0,2,,,,,,,,,,,,,,,0,,,61,0
232080,note_on,0,0,2,,,,,,,,,,,,,,,0,,,51,36
232080,note_on,0,0,1,,,,,,,,,,,,,,,0,,,79,58
232080,note_on,0,0,1,,,,,,,,,,,,,,,0,,,82,0
232080,note_on,240,0,1,,,,,,,,,,,,,,,0,,,70,0
232080,set_tempo,480,1,0,,,,,,,,,,,,591133,,,,,,,
232080,note_on,120,0,2,,,,,,,,,,,,,,,0,,,55,0
232080,note_on,0,0,1,,,,,,,,,,,,,,,0,,,67,49
232200,note_on,120,0,2,,,,,,,,,,,,,,,0,,,51,0
232200,note_on,0,0,2,,,,,,,,,,,,,,,0,,,55,36
232320,note_on,120,0,2,,,,,,,,,,,,,,,0,,,55,0
232320,control_change,0,0,2,,,,,,,,,,,,,,,0,64,0,,
232320,note_on,0,0,2,,,,,,,,,,,,,,,0,,,44,44
232320,set_tempo,240,1,0,,,,,,,,,,,,600000,,,,,,,
232320,note_on,240,0,1,,,,,,,,,,,,,,,0,,,67,0
232320,note_on,0,0,1,,,,,,,,,,,,,,,0,,,79,0
232320,note_on,0,0,1,,,,,,,,,,,,,,,0,,,75,62
232320,note_on,0,0,1,,,,,,,,,,,,,,,0,,,63,52
232330,control_change,10,0,2,,,,,,,,,,,,,,,0,64,0,,
232383,control_change,53,0,2,,,,,,,,,,,,,,,0,64,127,,
232440,note_on,57,0,2,,,,,,,,,,,,,,,0,,,44,0
232440,note_on,0,0,2,,,,,,,,,,,,,,,0,,,51,36
232560,note_on,240,0,1,,,,,,,,,,,,,,,0,,,63,0
232560,note_on,0,0,1,,,,,,,,,,,,,,,0,,,75,0
232560,note_on,0,0,1,,,,,,,,,,,,,,,0,,,85,56
232560,note_on,0,0,1,,,,,,,,,,,,,,,0,,,73,47
232560,note_on,120,0,2,,,,,,,,,,,,,,,0,,,51,0
232560,note_on,0,0,2,,,,,,,,,,,,,,,0,,,48,36
232560,set_tempo,240,1,0,,,,,,,,,,,,568720,,,,,,,
232680,note_on,0,0,2,,,,,,,,,,,,,,,0,,,51,36
232680,note_on,120,0,2,,,,,,,,,,,,,,,0,,,48,0
232800,note_on,240,0,1,,,,,,,,,,,,,,,0,,,73,0
232800,note_on,0,0,1,,,,,,,,,,,,,,,0,,,85,0
232800,note_on,0,0,1,,,,,,,,,,,,,,,0,,,72,50
232800,note_on,0,0,1,,,,,,,,,,,,,,,0,,,84,60
232800,note_on,120,0,2,,,,,,,,,,,,,,,0,,,51,0
232800,note_on,0,0,2,,,,,,,,,,,,,,,0,,,56,42
232920,note_on,120,0,2,,,,,,,,,,,,,,,0,,,56,0
232920,note_on,0,0,2,,,,,,,,,,,,,,,0,,,51,35
233040,note_on,120,0,2,,,,,,,,,,,,,,,0,,,51,0
233040,note_on,0,0,2,,,,,,,,,,,,,,,0,,,48,34
233160,note_on,120,0,2,,,,,,,,,,,,,,,0,,,48,0
233160,note_on,0,0,2,,,,,,,,,,,,,,,0,,,51,34
233280,note_on,120,0,2,,,,,,,,,,,,,,,0,,,51,0
233280,note_on,0,0,2,,,,,,,,,,,,,,,0,,,37,40
233280,set_tempo,720,1,0,,,,,,,,,,,,612245,,,,,,,
233288,control_change,8,0,2,,,,,,,,,,,,,,,0,64,0,,
233337,control_change,49,0,2,,,,,,,,,,,,,,,0,64,127,,
233400,note_on,0,0,2,,,,,,,,,,,,,,,0,,,53,33
233400,note_on,63,0,2,,,,,,,,,,,,,,,0,,,37,0
233520,note_on,120,0,2,,,,,,,,,,,,,,,0,,,53,0
233520,note_on,0,0,1,,,,,,,,,,,,,,,0,,,70,45
233520,note_on,0,0,1,,,,,,,,,,,,,,,0,,,82,54
233520,note_on,0,0,1,,,,,,,,,,,,,,,0,,,84,0
233520,note_on,720,0,1,,,,,,,,,,,,,,,0,,,72,0
233520,note_on,0,0,2,,,,,,,,,,,,,,,0,,,49,33
233520,set_tempo,240,1,0,,,,,,,,,,,,560748,,,,,,,
233640,note_on,120,0,2,,,,,,,,,,,,,,,0,,,49,0
233640,note_on,0,0,2,,,,,,,,,,,,,,,0,,,53,33
233760,note_on,0,0,1,,,,,,,,,,,,,,,0,,,72,43
233760,note_on,0,0,1,,,,,,,,,,,,,,,0,,,84,51
233760,note_on,0,0,2,,,,,,,,,,,,,,,0,,,58,38
233760,note_on,120,0,2,,,,,,,,,,,,,,,0,,,53,0
233760,note_on,240,0,1,,,,,,,,,,,,,,,0,,,70,0
233760,note_on,0,0,1,,,,,,,,,,,,,,,0,,,82,0
233880,note_on,0,0,2,,,,,,,,,,,,,,,0,,,53,32
233880,note_on,120,0,2,,,,,,,,,,,,,,,0,,,58,0
234000,note_on,0,0,1,,,,,,,,,,,,,,,0,,,73,42
234000,note_on,0,0,1,,,,,,,,,,,,,,,0,,,85,50
234000,set_tempo,480,1,0,,,,,,,,,,,,591133,,,,,,,
234000,note_on,240,0,1,,,,,,,,,,,,,,,0,,,72,0
234000,note_on,120,0,2,,,,,,,,,,,,,,,0,,,53,0
234000,note_on,0,0,2,,,,,,,,,,,,,,,0,,,49,31
234000,note_on,0,0,1,,,,,,,,,,,,,,,0,,,84,0
234120,note_on,120,0,2,,,,,,,,,,,,,,,0,,,49,0
234120,note_on,0,0,2,,,,,,,,,,,,,,,0,,,53,31
234240,set_tempo,240,1,0,,,,,,,,,,,,600000,,,,,,,
234240,note_on,0,0,1,,,,,,,,,,,,,,,0,,,63,44
234240,note_on,0,0,1,,,,,,,,,,,,,,,0,,,75,52
234240,note_on,0,0,1,,,,,,,,,,,,,,,0,,,85,0
234240,note_on,240,0,1,,,,,,,,,,,,,,,0,,,73,0
234240,note_on,120,0,2,,,,,,,,,,,,,,,0,,,53,0
234240,control_change,0,0,2,,,,,,,,,,,,,,,0,64,0,,
234240,note_on,0,0,2,,,,,,,,,,,,,,,0,,,39,36
234248,control_change,8,0,2,,,,,,,,,,,,,,,0,64,0,,
234303,control_change,55,0,2,,,,,,,,,,,,,,,0,64,127,,
234360,note_on,0,0,2,,,,,,,,,,,,,,,0,,,51,30
234360,note_on,57,0,2,,,,,,,,,,,,,,,0,,,39,0
234480,note_on,0,0,1,,,,,,,,,,,,,,,0,,,75,0
234480,note_on,0,0,1,,,,,,,,,,,,,,,0,,,82,47
234480,note_on,0,0,1,,,,,,,,,,,,,,,0,,,70,40
234480,set_tempo,240,1,0,,,,,,,,,,,,568720,,,,,,,
234480,note_on,0,0,2,,,,,,,,,,,,,,,0,,,48,30
234480,note_on,120,0,2,,,,,,,,,,,,,,,0,,,51,0
234480,note_on,240,0,1,,,,,,,,,,,,,,,0,,,63,0
234600,note_on,0,0,2,,,,,,,,,,,,,,,0,,,51,30
234600,note_on,120,0,2,,,,,,,,,,,,,,,0,,,48,0
234720,note_on,240,0,1,,,,,,,,,,,,,,,0,,,70,0
234720,note_on,0,0,1,,,,,,,,,,,,,,,0,,,82,0
234720,note_on,0,0,1,,,,,,,,,,,,,,,0,,,80,50
234720,note_on,0,0,1,,,,,,,,,,,,,,,0,,,68,42
234720,note_on,120,0,2,,,,,,,,,,,,,,,0,,,51,0
234720,note_on,0,0,2,,,,,,,,,,,,,,,0,,,56,36
234840,note_on,120,0,2,,,,,,,,,,,,,,,0,,,56,0
234840,note_on,0,0,2,,,,,,,,,,,,,,,0,,,51,29
234960,note_on,120,0,2,,,,,,,,,,,,,,,0,,,51,0
234960,note_on,0,0,2,,,,,,,,,,,,,,,0,,,48,28
235080,note_on,120,0,2,,,,,,,,,,,,,,,0,,,48,0
235080,note_on,0,0,2,,,,,,,,,,,,,,,0,,,51,28
235200,set_tempo,720,1,0,,,,,,,,,,,,585366,,,,,,,
235200,note_on,0,0,2,,,,,,,,,,,,,,,0,,,39,34
235200,note_on,120,0,2,,,,,,,,,,,,,,,0,,,51,0
235200,control_change,0,0,2,,,,,,,,,,,,,,,0,64,0,,
235257,control_change,57,0,2,,,,,,,,,,,,,,,0,64,127,,
235320,note_on,0,0,2,,,,,,,,,,,,,,,0,,,51,27
235320,note_on,63,0,2,,,,,,,,,,,,,,,0,,,39,0
235440,note_on,0,0,2,,,,,,,,,,,,,,,0,,,49,27
235440,set_tempo,240,1,0,,,,,,,,,,,,571429,,,,,,,
235440,note_on,120,0,2,,,,,,,,,,,,,,,0,,,51,0
235440,note_on,720,0,1,,,,,,,,,,,,,,,0,,,68,0
235440,note_on,0,0,1,,,,,,,,,,,,,,,0,,,80,0
235440,note_on,0,0,1,,,,,,,,,,,,,,,0,,,79,45
235440,note_on,0,0,1,,,,,,,,,,,,,,,0,,,67,38
235560,note_on,120,0,2,,,,,,,,,,,,,,,0,,,49,0
235560,note_on,0,0,2,,,,,,,,,,,,,,,0,,,51,27
235680,note_on,240,0,1,,,,,,,,,,,,,,,0,,,67,0
235680,note_on,0,0,1,,,,,,,,,,,,,,,0,,,79,0
235680,note_on,0,0,1,,,,,,,,,,,,,,,0,,,80,42
235680,note_on,0,0,1,,,,,,,,,,,,,,,0,,,68,36
235680,note_on,120,0,2,,,,,,,,,,,,,,,0,,,51,0
235680,note_on,0,0,2,,,,,,,,,,,,,,,0,,,58,32
235680,set_tempo,240,1,0,,,,,,,,,,,,579710,,,,,,,
235800,note_on,120,0,2,,,,,,,,,,,,,,,0,,,58,0
235800,note_on,0,0,2,,,,,,,,,,,,,,,0,,,51,26
235920,note_on,0,0,1,,,,,,,,,,,,,,,0,,,70,35
235920,note_on,0,0,1,,,,,,,,,,,,,,,0,,,82,41
235920,note_on,0,0,1,,,,,,,,,,,,,,,0,,,80,0
235920,note_on,240,0,1,,,,,,,,,,,,,,,0,,,68,0
235920,note_on,120,0,2,,,,,,,,,,,,,,,0,,,51,0
235920,set_tempo,240,1,0,,,,,,,,,,,,628272,,,,,,,
235920,note_on,0,0,2,,,,,,,,,,,,,,,0,,,49,26
236040,note_on,0,0,2,,,,,,,,,,,,,,,0,,,51,26
236040,note_on,120,0,2,,,,,,,,,,,,,,,0,,,49,0
236160,note_on,0,0,2,,,,,,,,,,,,,,,0,,,56,26
236160,note_on,120,0,2,,,,,,,,,,,,,,,0,,,51,0
236160,note_on,0,0,1,,,,,,,,,,,,,,,0,,,82,0
236160,set_tempo,240,1,0,,,,,,,,,,,,588235,,,,,,,
236160,note_on,240,0,1,,,,,,,,,,,,,,,0,,,70,0
236160,note_on,0,0,1,,,,,,,,,,,,,,,0,,,74,44
236168,control_change,8,0,2,,,,,,,,,,,,,,,0,64,0,,
236200,control_change,32,0,2,,,,,,,,,,,,,,,0,64,127,,
236280,note_on,80,0,2,,,,,,,,,,,,,,,0,,,56,0
236280,note_on,0,0,2,,,,,,,,,,,,,,,0,,,63,25
236400,set_tempo,240,1,0,,,,,,,,,,,,568720,,,,,,,
236400,note_on,0,0,2,,,,,,,,,,,,,,,0,,,60,26
236400,note_on,120,0,2,,,,,,,,,,,,,,,0,,,63,0
236400,note_on,240,0,1,,,,,,,,,,,,,,,0,,,74,0
236400,note_on,0,0,1,,,,,,,,,,,,,,,0,,,77,40
236520,note_on,0,0,2,,,,,,,,,,,,,,,0,,,63,26
236520,note_on,120,0,2,,,,,,,,,,,,,,,0,,,60,0
236640,note_on,0,0,2,,,,,,,,,,,,,,,0,,,68,29
236640,note_on,120,0,2,,,,,,,,,,,,,,,0,,,63,0
236640,note_on,240,0,1,,,,,,,,,,,,,,,0,,,77,0
236640,note_on,0,0,1,,,,,,,,,,,,,,,0,,,75,46
236760,note_on,0,0,2,,,,,,,,,,,,,,,0,,,63,26
236760,note_on,120,0,2,,,,,,,,,,,,,,,0,,,68,0
236880,note_on,0,0,2,,,,,,,,,,,,,,,0,,,60,26
236880,note_on,120,0,2,,,,,,,,,,,,,,,0,,,63,0
237000,note_on,120,0,2,,,,,,,,,,,,,,,0,,,60,0
237000,note_on,0,0,2,,,,,,,,,,,,,,,0,,,63,26
237100,set_tempo,700,1,0,,,,,,,,,,,,588235,,,,,,,
237120,note_on,120,0,2,,,,,,,,,,,,,,,0,,,63,0
237120,note_on,0,0,2,,,,,,,,,,,,,,,0,,,56,29
237130,control_change,10,0,2,,,,,,,,,,,,,,,0,64,0,,
237177,control_change,47,0,2,,,,,,,,,,,,,,,0,64,127,,
237240,note_on,0,0,2,,,,,,,,,,,,,,,0,,,63,26
237240,note_on,63,0,2,,,,,,,,,,,,,,,0,,,56,0
237300,note_on,660,0,1,,,,,,,,,,,,,,,0,,,75,0
237300,note_on,0,0,1,,,,,,,,,,,,,,,0,,,72,41
237360,note_on,0,0,2,,,,,,,,,,,,,,,0,,,60,26
237360,note_on,120,0,2,,,,,,,,,,,,,,,0,,,63,0
237360,note_on,60,0,1,,,,,,,,,,,,,,,0,,,72,0
237360,note_on,0,0,1,,,,,,,,,,,,,,,0,,,87,55
237360,set_tempo,260,1,0,,,,,,,,,,,,571429,,,,,,,
237480,note_on,0,0,2,,,,,,,,,,,,,,,0,,,63,26
237480,note_on,120,0,2,,,,,,,,,,,,,,,0,,,60,0
237540,note_on,0,0,1,,,,,,,,,,,,,,,0,,,70,38
237540,note_on,180,0,1,,,,,,,,,,,,,,,0,,,87,0
237600,note_on,120,0,2,,,,,,,,,,,,,,,0,,,63,0
237600,note_on,60,0,1,,,,,,,,,,,,,,,0,,,70,0
237600,note_on,0,0,1,,,,,,,,,,,,,,,0,,,85,52
237600,note_on,0,0,2,,,,,,,,,,,,,,,0,,,67,29
237720,note_on,0,0,2,,,,,,,,,,,,,,,0,,,63,26
237720,note_on,120,0,2,,,,,,,,,,,,,,,0,,,67,0
237780,note_on,0,0,1,,,,,,,,,,,,,,,0,,,68,38
237780,note_on,180,0,1,,,,,,,,,,,,,,,0,,,85,0
237840,note_on,60,0,1,,,,,,,,,,,,,,,0,,,68,0
237840,note_on,0,0,1,,,,,,,,,,,,,,,0,,,84,52
237840,note_on,120,0,2,,,,,,,,,,,,,,,0,,,63,0
237840,note_on,0,0,2,,,,,,,,,,,,,,,0,,,68,26
237840,set_tempo,480,1,0,,,,,,,,,,,,591133,,,,,,,
237960,note_on,0,0,2,,,,,,,,,,,,,,,0,,,63,26
237960,note_on,120,0,2,,,,,,,,,,,,,,,0,,,68,0
238080,note_on,0,0,2,,,,,,,,,,,,,,,0,,,56,29
238080,note_on,120,0,2,,,,,,,,,,,,,,,0,,,63,0
238080,set_tempo,240,1,0,,,,,,,,,,,,588235,,,,,,,
238080,note_on,0,0,1,,,,,,,,,,,,,,,0,,,74,44
238080,note_on,240,0,1,,,,,,,,,,,,,,,0,,,84,0
238090,control_change,10,0,2,,,,,,,,,,,,,,,0,64,0,,
238120,control_change,30,0,2,,,,,,,,,,,,,,,0,64,127,,
238200,note_on,0,0,2,,,,,,,,,,,,,,,0,,,63,25
238200,note_on,80,0,2,,,,,,,,,,,,,,,0,,,56,0
238320,note_on,240,0,1,,,,,,,,,,,,,,,0,,,74,0
238320,note_on,120,0,2,,,,,,,,,,,,,,,0,,,63,0
238320,note_on,0,0,2,,,,,,,,,,,,,,,0,,,60,26
238320,set_tempo,240,1,0,,,,,,,,,,,,568720,,,,,,,
238320,note_on,0,0,1,,,,,,,,,,,,,,,0,,,77,40
238440,note_on,120,0,2,,,,,,,,,,,,,,,0,,,60,0
238440,note_on,0,0,2,,,,,,,,,,,,,,,0,,,63,26
238560,note_on,240,0,1,,,,,,,,,,,,,,,0,,,77,0
238560,note_on,0,0,1,,,,,,,,,,,,,,,0,,,75,46
238560,note_on,120,0,2,,,,,,,,,,,,,,,0,,,63,0
238560,note_on,0,0,2,,,,,,,,,,,,,,,0,,,68,29
238680,note_on,120,0,2,,,,,,,,,,,,,,,0,,,68,0
238680,note_on,0,0,2,,,,,,,,,,,,,,,0,,,63,26
238800,note_on,0,0,2,,,,,,,,,,,,,,,0,,,60,26
238800,note_on,120,0,2,,,,,,,,,,,,,,,0,,,63,0
238920,note_on,120,0,2,,,,,,,,,,,,,,,0,,,60,0
238920,note_on,0,0,2,,,,,,,,,,,,,,,0,,,63,26
239020,set_tempo,700,1,0,,,,,,,,,,,,579710,,,,,,,
239040,note_on,120,0,2,,,,,,,,,,,,,,,0,,,63,0
239040,note_on,0,0,2,,,,,,,,,,,,,,,0,,,56,29
239050,control_change,10,0,2,,,,,,,,,,,,,,,0,64,0,,
239097,control_change,47,0,2,,,,,,,,,,,,,,,0,64,127,,
239160,note_on,0,0,2,,,,,,,,,,,,,,,0,,,63,26
239160,note_on,63,0,2,,,,,,,,,,,,,,,0,,,56,0
239220,note_on,660,0,1,,,,,,,,,,,,,,,0,,,75,0
239220,note_on,0,0,1,,,,,,,,,,,,,,,0,,,72,41
239280,note_on,0,0,2,,,,,,,,,,,,,,,0,,,60,26
239280,note_on,120,0,2,,,,,,,,,,,,,,,0,,,63,0
239280,note_on,0,0,1,,,,,,,,,,,,,,,0,,,87,55
239280,set_tempo,260,1,0,,,,,,,,,,,,560748,,,,,,,
239280,note_on,60,0,1,,,,,,,,,,,,,,,0,,,72,0
239400,note_on,120,0,2,,,,,,,,,,,,,,,0,,,60,0
239400,note_on,0,0,2,,,,,,,,,,,,,,,0,,,63,26
239460,note_on,180,0,1,,,,,,,,,,,,,,,0,,,87,0
239460,note_on,0,0,1,,,,,,,,,,,,,,,0,,,70,38
239520,note_on,0,0,2,,,,,,,,,,,,,,,0,,,67,29
239520,note_on,120,0,2,,,,,,,,,,,,,,,0,,,63,0
239520,note_on,0,0,1,,,,,,,,,,,,,,,0,,,85,52
239520,note_on,60,0,1,,,,,,,,,,,,,,,0,,,70,0
239640,note_on,0,0,2,,,,,,,,,,,,,,,0,,,63,26
239640,note_on,120,0,2,,,,,,,,,,,,,,,0,,,67,0
239700,note_on,0,0,1,,,,,,,,,,,,,,,0,,,68,38
239700,note_on,180,0,1,,,,,,,,,,,,,,,0,,,85,0
239760,note_on,0,0,2,,,,,,,,,,,,,,,0,,,68,26
239760,note_on,0,0,1,,,,,,,,,,,,,,,0,,,84,52
239760,set_tempo,480,1,0,,,,,,,,,,,,591133,,,,,,,
239760,note_on,120,0,2,,,,,,,,,,,,,,,0,,,63,0
239760,note_on,60,0,1,,,,,,,,,,,,,,,0,,,68,0
239880,note_on,120,0,2,,,,,,,,,,,,,,,0,,,68,0
239880,note_on,0,0,2,,,,,,,,,,,,,,,0,,,63,26
240000,note_on,0,0,2,,,,,,,,,,,,,,,0,,,51,31
240000,note_on,120,0,2,,,,,,,,,,,,,,,0,,,63,0
240000,note_on,0,0,1,,,,,,,,,,,,,,,0,,,69,44
240000,note_on,240,0,1,,,,,,,,,,,,,,,0,,,84,0
240000,set_tempo,240,1,0,,,,,,,,,,,,588235,,,,,,,
240009,control_change,9,0,2,,,,,,,,,,,,,,,0,64,0,,
240040,control_change,31,0,2,,,,,,,,,,,,,,,0,64,127,,
240120,note_on,80,0,2,,,,,,,,,,,,,,,0,,,51,0
240120,note_on,0,0,2,,,,,,,,,,,,,,,0,,,63,26
240240,set_tempo,240,1,0,,,,,,,,,,,,568720,,,,,,,
240240,note_on,240,0,1,,,,,,,,,,,,,,,0,,,69,0
240240,note_on,0,0,1,,,,,,,,,,,,,,,0,,,72,40
240240,note_on,120,0,2,,,,,,,,,,,,,,,0,,,63,0
240240,note_on,0,0,2,,,,,,,,,,,,,,,0,,,61,27
240360,note_on,120,0,2,,,,,,,,,,,,,,,0,,,61,0
240360,note_on,0,0,2,,,,,,,,,,,,,,,0,,,63,27
240480,note_on,0,0,2,,,,,,,,,,,,,,,0,,,67,31
240480,note_on,240,0,1,,,,,,,,,,,,,,,0,,,72,0
240480,note_on,120,0,2,,,,,,,,,,,,,,,0,,,63,0
240480,note_on,0,0,1,,,,,,,,,,,,,,,0,,,70,46
240600,note_on,120,0,2,,,,,,,,,,,,,,,0,,,67,0
240600,note_on,0,0,2,,,,,,,,,,,,,,,0,,,63,27
240720,note_on,120,0,2,,,,,,,,,,,,,,,0,,,63,0
240720,note_on,0,0,2,,,,,,,,,,,,,,,0,,,61,27
240840,note_on,120,0,2,,,,,,,,,,,,,,,0,,,61,0
240840,note_on,0,0,2,,,,,,,,,,,,,,,0,,,63,27
240940,set_tempo,700,1,0,,,,,,,,,,,,591133,,,,,,,
240960,note_on,0,0,2,,,,,,,,,,,,,,,0,,,51,31
240960,note_on,120,0,2,,,,,,,,,,,,,,,0,,,63,0
240960,set_tempo,20,1,0,,,,,,,,,,,,625000,,,,,,,
240971,control_change,11,0,2,,,,,,,,,,,,,,,0,64,0,,
241017,control_change,46,0,2,,,,,,,,,,,,,,,0,64,127,,
241080,note_on,63,0,2,,,,,,,,,,,,,,,0,,,51,0
241080,note_on,0,0,2,,,,,,,,,,,,,,,0,,,63,27
241140,note_on,0,0,1,,,,,,,,,,,,,,,0,,,63,41
241140,note_on,660,0,1,,,,,,,,,,,,,,,0,,,70,0
241200,note_on,120,0,2,,,,,,,,,,,,,,,0,,,63,0
241200,set_tempo,240,1,0,,,,,,,,,,,,571429,,,,,,,
241200,note_on,60,0,1,,,,,,,,,,,,,,,0,,,63,0
241200,note_on,0,0,2,,,,,,,,,,,,,,,0,,,65,27
241200,note_on,0,0,1,,,,,,,,,,,,,,,0,,,79,55
241320,note_on,0,0,2,,,,,,,,,,,,,,,0,,,63,27
241320,note_on,120,0,2,,,,,,,,,,,,,,,0,,,65,0
241380,note_on,180,0,1,,,,,,,,,,,,,,,0,,,79,0
241380,note_on,0,0,1,,,,,,,,,,,,,,,0,,,65,38
241440,note_on,0,0,1,,,,,,,,,,,,,,,0,,,80,52
241440,note_on,0,0,2,,,,,,,,,,,,,,,0,,,62,31
241440,note_on,120,0,2,,,,,,,,,,,,,,,0,,,63,0
241440,note_on,60,0,1,,,,,,,,,,,,,,,0,,,65,0
241560,note_on,120,0,2,,,,,,,,,,,,,,,0,,,62,0
241560,note_on,0,0,2,,,,,,,,,,,,,,,0,,,63,27
241620,note_on,180,0,1,,,,,,,,,,,,,,,0,,,80,0
241620,note_on,0,0,1,,,,,,,,,,,,,,,0,,,67,38
241680,note_on,60,0,1,,,,,,,,,,,,,,,0,,,67,0
241680,set_tempo,480,1,0,,,,,,,,,,,,591133,,,,,,,
241680,note_on,0,0,2,,,,,,,,,,,,,,,0,,,61,27
241680,note_on,120,0,2,,,,,,,,,,,,,,,0,,,63,0
241680,note_on,0,0,1,,,,,,,,,,,,,,,0,,,82,52
241800,note_on,0,0,2,,,,,,,,,,,,,,,0,,,63,27
241800,note_on,120,0,2,,,,,,,,,,,,,,,0,,,61,0
241920,note_on,0,0,1,,,,,,,,,,,,,,,0,,,69,44
241920,note_on,0,0,2,,,,,,,,,,,,,,,0,,,51,31
241920,set_tempo,240,1,0,,,,,,,,,,,,588235,,,,,,,
241920,note_on,240,0,1,,,,,,,,,,,,,,,0,,,82,0
241920,note_on,120,0,2,,,,,,,,,,,,,,,0,,,63,0
241930,control_change,10,0,2,,,,,,,,,,,,,,,0,64,0,,
241960,control_change,30,0,2,,,,,,,,,,,,,,,0,64,127,,
242040,note_on,80,0,2,,,,,,,,,,,,,,,0,,,51,0
242040,note_on,0,0,2,,,,,,,,,,,,,,,0,,,63,26
242160,note_on,240,0,1,,,,,,,,,,,,,,,0,,,69,0
242160,note_on,120,0,2,,,,,,,,,,,,,,,0,,,63,0
242160,note_on,0,0,1,,,,,,,,,,,,,,,0,,,72,40
242160,note_on,0,0,2,,,,,,,,,,,,,,,0,,,61,27
242160,set_tempo,240,1,0,,,,,,,,,,,,568720,,,,,,,
242280,note_on,120,0,2,,,,,,,,,,,,,,,0,,,61,0
242280,note_on,0,0,2,,,,,,,,,,,,,,,0,,,63,27
242400,note_on,240,0,1,,,,,,,,,,,,,,,0,,,72,0
242400,note_on,0,0,1,,,,,,,,,,,,,,,0,,,70,46
242400,note_on,0,0,2,,,,,,,,,,,,,,,0,,,67,31
242400,note_on,120,0,2,,,,,,,,,,,,,,,0,,,63,0
242520,note_on,0,0,2,,,,,,,,,,,,,,,0,,,63,27
242520,note_on,120,0,2,,,,,,,,,,,,,,,0,,,67,0
242640,note_on,0,0,2,,,,,,,,,,,,,,,0,,,61,27
242640,note_on,120,0,2,,,,,,,,,,,,,,,0,,,63,0
242760,note_on,120,0,2,,,,,,,,,,,,,,,0,,,61,0
242760,note_on,0,0,2,,,,,,,,,,,,,,,0,,,63,27
242880,set_tempo,720,1,0,,,,,,,,,,,,600000,,,,,,,
242880,note_on,120,0,2,,,,,,,,,,,,,,,0,,,63,0
242880,note_on,0,0,2,,,,,,,,,,,,,,,0,,,51,31
242890,control_change,10,0,2,,,,,,,,,,,,,,,0,64,0,,
242937,control_change,47,0,2,,,,,,,,,,,,,,,0,64,127,,
243000,note_on,63,0,2,,,,,,,,,,,,,,,0,,,51,0
243000,note_on,0,0,2,,,,,,,,,,,,,,,0,,,63,27
243060,note_on,0,0,1,,,,,,,,,,,,,,,0,,,63,41
243060,note_on,660,0,1,,,,,,,,,,,,,,,0,,,70,0
243120,note_on,0,0,2,,,,,,,,,,,,,,,0,,,65,27
243120,note_on,120,0,2,,,,,,,,,,,,,,,0,,,63,0
243120,note_on,60,0,1,,,,,,,,,,,,,,,0,,,63,0
243120,note_on,0,0,1,,,,,,,,,,,,,,,0,,,79,55
243120,set_tempo,240,1,0,,,,,,,,,,,,591133,,,,,,,
243240,note_on,0,0,2,,,,,,,,,,,,,,,0,,,63,27
243240,note_on,120,0,2,,,,,,,,,,,,,,,0,,,65,0
243300,note_on,180,0,1,,,,,,,,,,,,,,,0,,,79,0
243300,note_on,0,0,1,,,,,,,,,,,,,,,0,,,65,38
243360,note_on,120,0,2,,,,,,,,,,,,,,,0,,,63,0
243360,note_on,60,0,1,,,,,,,,,,,,,,,0,,,65,0
243360,note_on,0,0,1,,,,,,,,,,,,,,,0,,,80,52
243360,note_on,0,0,2,,,,,,,,,,,,,,,0,,,62,31
243480,note_on,0,0,2,,,,,,,,,,,,,,,0,,,63,27
243480,note_on,120,0,2,,,,,,,,,,,,,,,0,,,62,0
243540,note_on,180,0,1,,,,,,,,,,,,,,,0,,,80,0
243540,note_on,0,0,1,,,,,,,,,,,,,,,0,,,67,38
243600,note_on,60,0,1,,,,,,,,,,,,,,,0,,,67,0
243600,set_tempo,480,1,0,,,,,,,,,,,,618557,,,,,,,
243600,note_on,0,0,2,,,,,,,,,,,,,,,0,,,61,27
243600,note_on,120,0,2,,,,,,,,,,,,,,,0,,,63,0
243600,note_on,0,0,1,,,,,,,,,,,,,,,0,,,82,52
243720,note_on,120,0,2,,,,,,,,,,,,,,,0,,,61,0
243720,note_on,0,0,2,,,,,,,,,,,,,,,0,,,63,27
243840,note_on,120,0,2,,,,,,,,,,,,,,,0,,,63,0
243840,control_change,0,0,2,,,,,,,,,,,,,,,0,64,0,,
243840,note_on,0,0,2,,,,,,,,,,,,,,,0,,,56,46
243840,note_on,0,0,1,,,,,,,,,,,,,,,0,,,63,49
243840,set_tempo,240,1,0,,,,,,,,,,,,631579,,,,,,,
243840,note_on,240,0,1,,,,,,,,,,,,,,,0,,,82,0
243840,note_on,0,0,1,,,,,,,,,,,,,,,0,,,75,58
243846,control_change,6,0,2,,,,,,,,,,,,,,,0,64,0,,
243903,control_change,57,0,2,,,,,,,,,,,,,,,0,64,127,,
243960,note_on,57,0,2,,,,,,,,,,,,,,,0,,,56,0
243960,note_on,0,0,2,,,,,,,,,,,,,,,0,,,63,38
244080,note_on,120,0,2,,,,,,,,,,,,,,,0,,,63,0
244080,note_on,240,0,1,,,,,,,,,,,,,,,0,,,63,0
244080,note_on,0,0,1,,,,,,,,,,,,,,,0,,,73,45
244080,note_on,0,0,1,,,,,,,,,,,,,,,0,,,85,54
244080,note_on,0,0,1,,,,,,,,,,,,,,,0,,,75,0
244080,set_tempo,240,1,0,,,,,,,,,,,,568720,,,,,,,
244080,note_on,0,0,2,,,,,,,,,,,,,,,0,,,60,38
244200,note_on,120,0,2,,,,,,,,,,,,,,,0,,,60,0
244200,note_on,0,0,2,,,,,,,,,,,,,,,0,,,63,38
244320,note_on,0,0,2,,,,,,,,,,,,,,,0,,,68,46
244320,note_on,120,0,2,,,,,,,,,,,,,,,0,,,63,0
244320,note_on,0,0,1,,,,,,,,,,,,,,,0,,,72,49
244320,note_on,240,0,1,,,,,,,,,,,,,,,0,,,73,0
244320,note_on,0,0,1,,,,,,,,,,,,,,,0,,,85,0
244320,note_on,0,0,1,,,,,,,,,,,,,,,0,,,84,58
244440,note_on,120,0,2,,,,,,,,,,,,,,,0,,,68,0
244440,note_on,0,0,2,,,,,,,,,,,,,,,0,,,63,38
244560,note_on,120,0,2,,,,,,,,,,,,,,,0,,,63,0
244560,note_on,0,0,2,,,,,,,,,,,,,,,0,,,60,38
244680,note_on,120,0,2,,,,,,,,,,,,,,,0,,,60,0
244680,note_on,0,0,2,,,,,,,,,,,,,,,0,,,63,38
244800,note_on,120,0,2,,,,,,,,,,,,,,,0,,,63,0
244800,set_tempo,720,1,0,,,,,,,,,,,,585366,,,,,,,
244800,note_on,0,0,2,,,,,,,,,,,,,,,0,,,48,46
244809,control_change,9,0,2,,,,,,,,,,,,,,,0,64,0,,
244857,control_change,48,0,2,,,,,,,,,,,,,,,0,64,127,,
244920,note_on,0,0,2,,,,,,,,,,,,,,,0,,,60,38
244920,note_on,63,0,2,,,,,,,,,,,,,,,0,,,48,0
245040,note_on,0,0,2,,,,,,,,,,,,,,,0,,,55,38
245040,note_on,120,0,2,,,,,,,,,,,,,,,0,,,60,0
245040,note_on,0,0,1,,,,,,,,,,,,,,,0,,,82,57
245040,note_on,0,0,1,,,,,,,,,,,,,,,0,,,84,0
245040,note_on,720,0,1,,,,,,,,,,,,,,,0,,,72,0
245040,set_tempo,240,1,0,,,,,,,,,,,,560748,,,,,,,
245040,note_on,0,0,1,,,,,,,,,,,,,,,0,,,70,47
245160,note_on,120,0,2,,,,,,,,,,,,,,,0,,,55,0
245160,note_on,0,0,2,,,,,,,,,,,,,,,0,,,60,39
245280,note_on,0,0,2,,,,,,,,,,,,,,,0,,,64,46
245280,note_on,120,0,2,,,,,,,,,,,,,,,0,,,60,0
245280,note_on,240,0,1,,,,,,,,,,,,,,,0,,,70,0
245280,note_on,0,0,1,,,,,,,,,,,,,,,0,,,82,0
245280,note_on,0,0,1,,,,,,,,,,,,,,,0,,,79,55
245280,note_on,0,0,1,,,,,,,,,,,,,,,0,,,67,46
245400,note_on,120,0,2,,,,,,,,,,,,,,,0,,,64,0
245400,note_on,0,0,2,,,,,,,,,,,,,,,0,,,60,38
245520,note_on,0,0,1,,,,,,,,,,,,,,,0,,,79,0
245520,set_tempo,480,1,0,,,,,,,,,,,,591133,,,,,,,
245520,note_on,240,0,1,,,,,,,,,,,,,,,0,,,67,0
245520,note_on,0,0,1,,,,,,,,,,,,,,,0,,,64,46
245520,note_on,0,0,1,,,,,,,,,,,,,,,0,,,76,55
245520,note_on,120,0,2,,,,,,,,,,,,,,,0,,,60,0
245520,note_on,0,0,2,,,,,,,,,,,,,,,0,,,55,38
245640,note_on,0,0,2,,,,,,,,,,,,,,,0,,,60,38
245640,note_on,120,0,2,,,,,,,,,,,,,,,0,,,55,0
245760,note_on,120,0,2,,,,,,,,,,,,,,,0,,,60,0
245760,note_on,240,0,1,,,,,,,,,,,,,,,0,,,64,0
245760,note_on,0,0,1,,,,,,,,,,,,,,,0,,,84,58
245760,control_change,0,0,2,,,,,,,,,,,,,,,0,64,0,,
245760,set_tempo,240,1,0,,,,,,,,,,,,600000,,,,,,,
245760,note_on,0,0,2,,,,,,,,,,,,,,,0,,,53,46
245760,note_on,0,0,1,,,,,,,,,,,,,,,0,,,76,0
245760,note_on,0,0,1,,,,,,,,,,,,,,,0,,,72,49
245768,control_change,8,0,2,,,,,,,,,,,,,,,0,64,0,,
245823,control_change,55,0,2,,,,,,,,,,,,,,,0,64,127,,
245880,note_on,57,0,2,,,,,,,,,,,,,,,0,,,53,0
245880,note_on,0,0,2,,,,,,,,,,,,,,,0,,,60,38
246000,note_on,0,0,2,,,,,,,,,,,,,,,0,,,56,38
246000,note_on,0,0,1,,,,,,,,,,,,,,,0,,,82,45
246000,set_tempo,240,1,0,,,,,,,,,,,,568720,,,,,,,
246000,note_on,240,0,1,,,,,,,,,,,,,,,0,,,72,0
246000,note_on,120,0,2,,,,,,,,,,,,,,,0,,,60,0
246000,note_on,0,0,1,,,,,,,,,,,,,,,0,,,84,0
246000,note_on,0,0,1,,,,,,,,,,,,,,,0,,,94,54
246120,note_on,120,0,2,,,,,,,,,,,,,,,0,,,56,0
246120,note_on,0,0,2,,,,,,,,,,,,,,,0,,,60,38
246240,note_on,0,0,2,,,,,,,,,,,,,,,0,,,65,46
246240,note_on,0,0,1,,,,,,,,,,,,,,,0,,,80,49
246240,note_on,0,0,1,,,,,,,,,,,,,,,0,,,92,58
246240,note_on,0,0,1,,,,,,,,,,,,,,,0,,,94,0
246240,note_on,240,0,1,,,,,,,,,,,,,,,0,,,82,0
246240,note_on,120,0,2,,,,,,,,,,,,,,,0,,,60,0
246360,note_on,0,0,2,,,,,,,,,,,,,,,0,,,60,38
246360,note_on,120,0,2,,,,,,,,,,,,,,,0,,,65,0
246480,note_on,0,0,2,,,,,,,,,,,,,,,0,,,56,38
246480,note_on,120,0,2,,,,,,,,,,,,,,,0,,,60,0
246600,note_on,0,0,2,,,,,,,,,,,,,,,0,,,60,38
246600,note_on,120,0,2,,,,,,,,,,,,,,,0,,,56,0
246720,set_tempo,720,1,0,,,,,,,,,,,,585366,,,,,,,
246720,note_on,120,0,2,,,,,,,,,,,,,,,0,,,60,0
246720,note_on,0,0,2,,,,,,,,,,,,,,,0,,,44,46
246727,control_change,7,0,2,,,,,,,,,,,,,,,0,64,0,,
246777,control_change,50,0,2,,,,,,,,,,,,,,,0,64,127,,
246840,note_on,63,0,2,,,,,,,,,,,,,,,0,,,44,0
246840,note_on,0,0,2,,,,,,,,,,,,,,,0,,,56,38
246960,note_on,720,0,1,,,,,,,,,,,,,,,0,,,80,0
246960,note_on,0,0,1,,,,,,,,,,,,,,,0,,,92,0
246960,note_on,0,0,1,,,,,,,,,,,,,,,0,,,78,47
246960,set_tempo,240,1,0,,,,,,,,,,,,560748,,,,,,,
246960,note_on,0,0,1,,,,,,,,,,,,,,,0,,,90,57
246960,note_on,120,0,2,,,,,,,,,,,,,,,0,,,56,0
246960,note_on,0,0,2,,,,,,,,,,,,,,,0,,,51,38
247080,note_on,120,0,2,,,,,,,,,,,,,,,0,,,51,0
247080,note_on,0,0,2,,,,,,,,,,,,,,,0,,,56,39
247200,note_on,120,0,2,,,,,,,,,,,,,,,0,,,56,0
247200,note_on,0,0,1,,,,,,,,,,,,,,,0,,,75,46
247200,note_on,0,0,1,,,,,,,,,,,,,,,0,,,87,55
247200,note_on,0,0,1,,,,,,,,,,,,,,,0,,,90,0
247200,note_on,240,0,1,,,,,,,,,,,,,,,0,,,78,0
247200,note_on,0,0,2,,,,,,,,,,,,,,,0,,,60,46
247320,note_on,0,0,2,,,,,,,,,,,,,,,0,,,56,38
247320,note_on,120,0,2,,,,,,,,,,,,,,,0,,,60,0
247440,note_on,120,0,2,,,,,,,,,,,,,,,0,,,56,0
247440,note_on,240,0,1,,,,,,,,,,,,,,,0,,,75,0
247440,note_on,0,0,1,,,,,,,,,,,,,,,0,,,87,0
247440,note_on,0,0,1,,,,,,,,,,,,,,,0,,,84,55
247440,note_on,0,0,1,,,,,,,,,,,,,,,0,,,72,46
247440,note_on,0,0,2,,,,,,,,,,,,,,,0,,,51,38
247440,set_tempo,480,1,0,,,,,,,,,,,,618557,,,,,,,
247560,note_on,0,0,2,,,,,,,,,,,,,,,0,,,56,38
247560,note_on,120,0,2,,,,,,,,,,,,,,,0,,,51,0
247680,note_on,0,0,1,,,,,,,,,,,,,,,0,,,68,52
247680,note_on,0,0,1,,,,,,,,,,,,,,,0,,,80,62
247680,note_on,0,0,1,,,,,,,,,,,,,,,0,,,84,0
247680,note_on,120,0,2,,,,,,,,,,,,,,,0,,,56,0
247680,note_on,0,0,2,,,,,,,,,,,,,,,0,,,49,49
247680,note_on,240,0,1,,,,,,,,,,,,,,,0,,,72,0
247680,set_tempo,240,1,0,,,,,,,,,,,,600000,,,,,,,
247687,control_change,7,0,2,,,,,,,,,,,,,,,0,64,0,,
247687,control_change,0,0,2,,,,,,,,,,,,,,,0,64,0,,
247743,control_change,56,0,2,,,,,,,,,,,,,,,0,64,127,,
247800,note_on,57,0,2,,,,,,,,,,,,,,,0,,,49,0
247800,note_on,0,0,2,,,,,,,,,,,,,,,0,,,56,40
247920,note_on,240,0,1,,,,,,,,,,,,,,,0,,,68,0
247920,set_tempo,240,1,0,,,,,,,,,,,,568720,,,,,,,
247920,note_on,0,0,1,,,,,,,,,,,,,,,0,,,80,0
247920,note_on,0,0,2,,,,,,,,,,,,,,,0,,,53,40
247920,note_on,0,0,1,,,,,,,,,,,,,,,0,,,90,56
247920,note_on,0,0,1,,,,,,,,,,,,,,,0,,,78,47
247920,note_on,120,0,2,,,,,,,,,,,,,,,0,,,56,0
248040,note_on,120,0,2,,,,,,,,,,,,,,,0,,,53,0
248040,note_on,0,0,2,,,,,,,,,,,,,,,0,,,56,40
248160,note_on,240,0,1,,,,,,,,,,,,,,,0,,,78,0
248160,note_on,0,0,1,,,,,,,,,,,,,,,0,,,90,0
248160,note_on,0,0,1,,,,,,,,,,,,,,,0,,,77,50
248160,note_on,0,0,1,,,,,,,,,,,,,,,0,,,89,60
248160,note_on,120,0,2,,,,,,,,,,,,,,,0,,,56,0
248160,note_on,0,0,2,,,,,,,,,,,,,,,0,,,61,47
248280,note_on,120,0,2,,,,,,,,,,,,,,,0,,,61,0
248280,note_on,0,0,2,,,,,,,,,,,,,,,0,,,56,39
248400,note_on,0,0,2,,,,,,,,,,,,,,,0,,,53,38
248400,note_on,120,0,2,,,,,,,,,,,,,,,0,,,56,0
248520,note_on,0,0,2,,,,,,,,,,,,,,,0,,,56,38
248520,note_on,120,0,2,,,,,,,,,,,,,,,0,,,53,0
248640,note_on,120,0,2,,,,,,,,,,,,,,,0,,,56,0
248640,set_tempo,720,1,0,,,,,,,,,,,,585366,,,,,,,
248640,note_on,0,0,2,,,,,,,,,,,,,,,0,,,42,45
248648,control_change,8,0,2,,,,,,,,,,,,,,,0,64,0,,
248697,control_change,49,0,2,,,,,,,,,,,,,,,0,64,127,,
248760,note_on,63,0,2,,,,,,,,,,,,,,,0,,,42,0
248760,note_on,0,0,2,,,,,,,,,,,,,,,0,,,58,37
248880,note_on,0,0,1,,,,,,,,,,,,,,,0,,,87,54
248880,note_on,0,0,1,,,,,,,,,,,,,,,0,,,75,45
248880,note_on,0,0,1,,,,,,,,,,,,,,,0,,,89,0
248880,note_on,120,0,2,,,,,,,,,,,,,,,0,,,58,0
248880,note_on,0,0,2,,,,,,,,,,,,,,,0,,,54,37
248880,set_tempo,240,1,0,,,,,,,,,,,,571429,,,,,,,
248880,note_on,720,0,1,,,,,,,,,,,,,,,0,,,77,0
249000,note_on,120,0,2,,,,,,,,,,,,,,,0,,,54,0
249000,note_on,0,0,2,,,,,,,,,,,,,,,0,,,58,37
249120,note_on,0,0,2,,,,,,,,,,,,,,,0,,,63,43
249120,note_on,120,0,2,,,,,,,,,,,,,,,0,,,58,0
249120,note_on,0,0,1,,,,,,,,,,,,,,,0,,,77,43
249120,note_on,0,0,1,,,,,,,,,,,,,,,0,,,89,51
249120,note_on,0,0,1,,,,,,,,,,,,,,,0,,,87,0
249120,note_on,240,0,1,,,,,,,,,,,,,,,0,,,75,0
249240,note_on,120,0,2,,,,,,,,,,,,,,,0,,,63,0
249240,note_on,0,0,2,,,,,,,,,,,,,,,0,,,58,36
249360,note_on,240,0,1,,,,,,,,,,,,,,,0,,,77,0
249360,set_tempo,480,1,0,,,,,,,,,,,,591133,,,,,,,
249360,note_on,0,0,2,,,,,,,,,,,,,,,0,,,54,35
249360,note_on,120,0,2,,,,,,,,,,,,,,,0,,,58,0
249360,note_on,0,0,1,,,,,,,,,,,,,,,0,,,90,50
249360,note_on,0,0,1,,,,,,,,,,,,,,,0,,,89,0
249360,note_on,0,0,1,,,,,,,,,,,,,,,0,,,78,42
249480,note_on,120,0,2,,,,,,,,,,,,,,,0,,,54,0
249480,note_on,0,0,2,,,,,,,,,,,,,,,0,,,58,35
249600,note_on,0,0,1,,,,,,,,,,,,,,,0,,,80,52
249600,note_on,240,0,1,,,,,,,,,,,,,,,0,,,78,0
249600,note_on,0,0,1,,,,,,,,,,,,,,,0,,,90,0
249600,note_on,0,0,1,,,,,,,,,,,,,,,0,,,68,44
249600,control_change,0,0,2,,,,,,,,,,,,,,,0,64,0,,
249600,set_tempo,240,1,0,,,,,,,,,,,,600000,,,,,,,
249600,note_on,120,0,2,,,,,,,,,,,,,,,0,,,58,0
249600,note_on,0,0,2,,,,,,,,,,,,,,,0,,,44,41
249609,control_change,9,0,2,,,,,,,,,,,,,,,0,64,0,,
249663,control_change,54,0,2,,,,,,,,,,,,,,,0,64,127,,
249720,note_on,57,0,2,,,,,,,,,,,,,,,0,,,44,0
249720,note_on,0,0,2,,,,,,,,,,,,,,,0,,,56,34
249840,note_on,240,0,1,,,,,,,,,,,,,,,0,,,68,0
249840,note_on,0,0,1,,,,,,,,,,,,,,,0,,,80,0
249840,note_on,0,0,1,,,,,,,,,,,,,,,0,,,87,47
249840,note_on,0,0,1,,,,,,,,,,,,,,,0,,,75,40
249840,note_on,0,0,2,,,,,,,,,,,,,,,0,,,53,34
249840,note_on,120,0,2,,,,,,,,,,,,,,,0,,,56,0
249840,set_tempo,240,1,0,,,,,,,,,,,,568720,,,,,,,
249960,note_on,120,0,2,,,,,,,,,,,,,,,0,,,53,0
249960,note_on,0,0,2,,,,,,,,,,,,,,,0,,,56,34
250080,note_on,0,0,2,,,,,,,,,,,,,,,0,,,61,40
250080,note_on,0,0,1,,,,,,,,,,,,,,,0,,,73,42
250080,note_on,0,0,1,,,,,,,,,,,,,,,0,,,85,50
250080,note_on,0,0,1,,,,,,,,,,,,,,,0,,,87,0
250080,note_on,240,0,1,,,,,,,,,,,,,,,0,,,75,0
250080,note_on,120,0,2,,,,,,,,,,,,,,,0,,,56,0
250200,note_on,120,0,2,,,,,,,,,,,,,,,0,,,61,0
250200,note_on,0,0,2,,,,,,,,,,,,,,,0,,,56,33
250320,note_on,0,0,2,,,,,,,,,,,,,,,0,,,53,32
250320,note_on,120,0,2,,,,,,,,,,,,,,,0,,,56,0
250440,note_on,120,0,2,,,,,,,,,,,,,,,0,,,53,0
250440,note_on,0,0,2,,,,,,,,,,,,,,,0,,,56,32
250560,set_tempo,720,1,0,,,,,,,,,,,,625000,,,,,,,
250560,note_on,0,0,2,,,,,,,,,,,,,,,0,,,44,38
250560,note_on,120,0,2,,,,,,,,,,,,,,,0,,,56,0
250568,control_change,8,0,2,,,,,,,,,,,,,,,0,64,0,,
250617,control_change,49,0,2,,,,,,,,,,,,,,,0,64,127,,
250680,note_on,0,0,2,,,,,,,,,,,,,,,0,,,56,31
250680,note_on,63,0,2,,,,,,,,,,,,,,,0,,,44,0
250800,note_on,720,0,1,,,,,,,,,,,,,,,0,,,73,0
250800,set_tempo,240,1,0,,,,,,,,,,,,588235,,,,,,,
250800,note_on,0,0,1,,,,,,,,,,,,,,,0,,,85,0
250800,note_on,0,0,1,,,,,,,,,,,,,,,0,,,84,45
250800,note_on,0,0,1,,,,,,,,,,,,,,,0,,,72,38
250800,note_on,0,0,2,,,,,,,,,,,,,,,0,,,54,31
250800,note_on,120,0,2,,,,,,,,,,,,,,,0,,,56,0
250920,note_on,0,0,2,,,,,,,,,,,,,,,0,,,56,31
250920,note_on,120,0,2,,,,,,,,,,,,,,,0,,,54,0
251040,note_on,0,0,1,,,,,,,,,,,,,,,0,,,84,0
251040,note_on,0,0,2,,,,,,,,,,,,,,,0,,,63,36
251040,note_on,0,0,1,,,,,,,,,,,,,,,0,,,73,36
251040,note_on,120,0,2,,,,,,,,,,,,,,,0,,,56,0
251040,note_on,240,0,1,,,,,,,,,,,,,,,0,,,72,0
251040,note_on,0,0,1,,,,,,,,,,,,,,,0,,,85,42
251160,note_on,120,0,2,,,,,,,,,,,,,,,0,,,63,0
251160,note_on,0,0,2,,,,,,,,,,,,,,,0,,,56,29
251280,note_on,120,0,2,,,,,,,,,,,,,,,0,,,56,0
251280,note_on,0,0,2,,,,,,,,,,,,,,,0,,,54,29
251280,note_on,0,0,1,,,,,,,,,,,,,,,0,,,85,0
251280,note_on,0,0,1,,,,,,,,,,,,,,,0,,,75,35
251280,set_tempo,480,1,0,,,,,,,,,,,,591133,,,,,,,
251280,note_on,240,0,1,,,,,,,,,,,,,,,0,,,73,0
251280,note_on,0,0,1,,,,,,,,,,,,,,,0,,,87,41
251400,note_on,120,0,2,,,,,,,,,,,,,,,0,,,54,0
251400,note_on,0,0,2,,,,,,,,,,,,,,,0,,,56,29
251520,note_on,0,0,2,,,,,,,,,,,,,,,0,,,61,67
251520,note_on,240,0,1,,,,,,,,,,,,,,,0,,,75,0
251520,control_change,0,0,2,,,,,,,,,,,,,,,0,64,0,,
251520,note_on,0,0,1,,,,,,,,,,,,,,,0,,,87,0
251520,note_on,0,0,2,,,,,,,,,,,,,,,0,,,56,57
251520,text,0,1,1,,,,,,,,,,,,,,,,,,,
251520,note_on,0,0,2,,,,,,,,,,,,,,,0,,,53,57
251520,note_on,120,0,2,,,,,,,,,,,,,,,0,,,56,0
251520,control_change,0,0,1,,,,,,,,,,,,,,,0,91,127,,
251520,set_tempo,240,1,0,,,,,,,,,,,,396040,,,,,,,
251520,note_on,0,0,1,,,,,,,,,,,,,,,0,,,80,77
251520,note_on,0,0,1,,,,,,,,,,,,,,,0,,,85,77
251520,note_on,0,0,1,,,,,,,,,,,,,,,0,,,89,92
251520,note_on,0,0,2,,,,,,,,,,,,,,,0,,,49,57
251520,note_on,0,0,1,,,,,,,,,,,,,,,0,,,77,77
252000,note_on,0,0,2,,,,,,,,,,,,,,,0,,,53,51
252000,note_on,480,0,2,,,,,,,,,,,,,,,0,,,61,0
252000,set_tempo,480,1,0,,,,,,,,,,,,386349,,,,,,,
252000,note_on,0,0,2,,,,,,,,,,,,,,,0,,,53,0
252000,note_on,0,0,2,,,,,,,,,,,,,,,0,,,61,61
252000,note_on,0,0,2,,,,,,,,,,,,,,,0,,,56,51
252000,note_on,0,0,2,,,,,,,,,,,,,,,0,,,49,51
252000,note_on,0,0,2,,,,,,,,,,,,,,,0,,,49,0
252000,note_on,0,0,1,,,,,,,,,,,,,,,0,,,77,73
252000,note_on,0,0,2,,,,,,,,,,,,,,,0,,,56,0
252000,note_on,480,0,1,,,,,,,,,,,,,,,0,,,89,0
252000,note_on,0,0,1,,,,,,,,,,,,,,,0,,,89,87
252000,note_on,0,0,1,,,,,,,,,,,,,,,0,,,85,73
252000,note_on,0,0,1,,,,,,,,,,,,,,,0,,,77,0
252000,note_on,0,0,1,,,,,,,,,,,,,,,0,,,80,73
252000,note_on,0,0,1,,,,,,,,,,,,,,,0,,,85,0
252000,note_on,0,0,1,,,,,,,,,,,,,,,0,,,80,0
252120,note_on,0,0,1,,,,,,,,,,,,,,,0,,,77,0
252120,note_on,0,0,1,,,,,,,,,,,,,,,0,,,85,0
252120,note_on,0,0,2,,,,,,,,,,,,,,,0,,,56,0
252120,note_on,0,0,2,,,,,,,,,,,,,,,0,,,53,0
252120,note_on,120,0,1,,,,,,,,,,,,,,,0,,,89,0
252120,note_on,120,0,2,,,,,,,,,,,,,,,0,,,61,0
252120,note_on,0,0,1,,,,,,,,,,,,,,,0,,,80,0
252120,note_on,0,0,2,,,,,,,,,,,,,,,0,,,49,0
252240,note_on,0,0,1,,,,,,,,,,,,,,,0,,,85,73
252240,note_on,120,0,1,,,,,,,,,,,,,,,0,,,77,73
252240,note_on,0,0,1,,,,,,,,,,,,,,,0,,,80,73
252240,note_on,0,0,1,,,,,,,,,,,,,,,0,,,89,87
252240,note_on,0,0,2,,,,,,,,,,,,,,,0,,,49,51
252240,note_on,120,0,2,,,,,,,,,,,,,,,0,,,53,51
252240,note_on,0,0,2,,,,,,,,,,,,,,,0,,,56,51
252240,note_on,0,0,2,,,,,,,,,,,,,,,0,,,61,61
252360,note_on,0,0,1,,,,,,,,,,,,,,,0,,,80,0
252360,note_on,0,0,1,,,,,,,,,,,,,,,0,,,77,0
252360,note_on,120,0,1,,,,,,,,,,,,,,,0,,,89,0
252360,note_on,120,0,2,,,,,,,,,,,,,,,0,,,61,0
252360,note_on,0,0,2,,,,,,,,,,,,,,,0,,,53,0
252360,note_on,0,0,2,,,,,,,,,,,,,,,0,,,49,0
252360,note_on,0,0,2,,,,,,,,,,,,,,,0,,,56,0
252360,note_on,0,0,1,,,,,,,,,,,,,,,0,,,85,0
252480,note_on,120,0,1,,,,,,,,,,,,,,,0,,,77,77
252480,note_on,0,0,1,,,,,,,,,,,,,,,0,,,80,77
252480,note_on,0,0,1,,,,,,,,,,,,,,,0,,,85,77
252480,note_on,0,0,1,,,,,,,,,,,,,,,0,,,89,92
252480,note_on,0,0,2,,,,,,,,,,,,,,,0,,,56,58
252480,note_on,0,0,2,,,,,,,,,,,,,,,0,,,49,58
252480,note_on,120,0,2,,,,,,,,,,,,,,,0,,,53,58
252480,set_tempo,480,1,0,,,,,,,,,,,,396040,,,,,,,
252480,note_on,0,0,2,,,,,,,,,,,,,,,0,,,61,69
252960,set_tempo,480,1,0,,,,,,,,,,,,386349,,,,,,,
252960,note_on,480,0,1,,,,,,,,,,,,,,,0,,,89,0
252960,note_on,0,0,1,,,,,,,,,,,,,,,0,,,77,0
252960,note_on,0,0,1,,,,,,,,,,,,,,,0,,,80,0
252960,note_on,0,0,1,,,,,,,,,,,,,,,0,,,85,0
252960,note_on,0,0,1,,,,,,,,,,,,,,,0,,,77,72
252960,note_on,0,0,1,,,,,,,,,,,,,,,0,,,80,72
252960,note_on,0,0,1,,,,,,,,,,,,,,,0,,,85,72
252960,note_on,0,0,1,,,,,,,,,,,,,,,0,,,89,86
252960,note_on,480,0,2,,,,,,,,,,,,,,,0,,,61,0
252960,note_on,0,0,2,,,,,,,,,,,,,,,0,,,53,0
252960,note_on,0,0,2,,,,,,,,,,,,,,,0,,,56,0
252960,note_on,0,0,2,,,,,,,,,,,,,,,0,,,49,52
252960,note_on,0,0,2,,,,,,,,,,,,,,,0,,,56,52
252960,note_on,0,0,2,,,,,,,,,,,,,,,0,,,61,63
252960,note_on,0,0,2,,,,,,,,,,,,,,,0,,,49,0
252966,note_on,6,0,2,,,,,,,,,,,,,,,0,,,53,52
253080,note_on,0,0,1,,,,,,,,,,,,,,,0,,,80,0
253080,note_on,120,0,1,,,,,,,,,,,,,,,0,,,89,0
253080,note_on,0,0,2,,,,,,,,,,,,,,,0,,,56,0
253080,note_on,0,0,2,,,,,,,,,,,,,,,0,,,49,0
253080,note_on,114,0,2,,,,,,,,,,,,,,,0,,,61,0
253080,note_on,0,0,1,,,,,,,,,,,,,,,0,,,85,0
253080,note_on,0,0,1,,,,,,,,,,,,,,,0,,,77,0
253086,note_on,6,0,2,,,,,,,,,,,,,,,0,,,53,0
253200,note_on,120,0,1,,,,,,,,,,,,,,,0,,,77,72
253200,note_on,0,0,1,,,,,,,,,,,,,,,0,,,80,72
253200,note_on,0,0,1,,,,,,,,,,,,,,,0,,,85,72
253200,note_on,0,0,1,,,,,,,,,,,,,,,0,,,89,86
253200,note_on,114,0,2,,,,,,,,,,,,,,,0,,,53,52
253200,note_on,0,0,2,,,,,,,,,,,,,,,0,,,49,52
253200,note_on,0,0,2,,,,,,,,,,,,,,,0,,,56,52
253200,note_on,0,0,2,,,,,,,,,,,,,,,0,,,61,63
253320,note_on,0,0,2,,,,,,,,,,,,,,,0,,,53,0
253320,note_on,0,0,1,,,,,,,,,,,,,,,0,,,85,0
253320,note_on,120,0,1,,,,,,,,,,,,,,,0,,,89,0
253320,note_on,120,0,2,,,,,,,,,,,,,,,0,,,61,0
253320,note_on,0,0,2,,,,,,,,,,,,,,,0,,,49,0
253320,note_on,0,0,2,,,,,,,,,,,,,,,0,,,56,0
253320,note_on,0,0,1,,,,,,,,,,,,,,,0,,,80,0
253320,note_on,0,0,1,,,,,,,,,,,,,,,0,,,77,0
253440,note_on,0,0,2,,,,,,,,,,,,,,,0,,,56,58
253440,note_on,0,0,1,,,,,,,,,,,,,,,0,,,89,92
253440,note_on,0,0,1,,,,,,,,,,,,,,,0,,,85,77
253440,note_on,0,0,1,,,,,,,,,,,,,,,0,,,80,77
253440,note_on,120,0,1,,,,,,,,,,,,,,,0,,,77,77
253440,set_tempo,480,1,0,,,,,,,,,,,,394633,,,,,,,
253440,note_on,0,0,2,,,,,,,,,,,,,,,0,,,61,69
253440,note_on,120,0,2,,,,,,,,,,,,,,,0,,,53,58
253440,note_on,0,0,2,,,,,,,,,,,,,,,0,,,49,58
253486,control_change,46,0,2,,,,,,,,,,,,,,,0,64,127,,
253620,note_on,0,0,1,,,,,,,,,,,,,,,0,,,80,0
253620,note_on,0,0,1,,,,,,,,,,,,,,,0,,,85,0
253620,note_on,180,0,1,,,,,,,,,,,,,,,0,,,89,0
253620,note_on,134,0,2,,,,,,,,,,,,,,,0,,,61,0
253620,note_on,0,0,2,,,,,,,,,,,,,,,0,,,53,0
253620,note_on,0,0,2,,,,,,,,,,,,,,,0,,,49,0
253620,note_on,0,0,2,,,,,,,,,,,,,,,0,,,56,0
253620,note_on,0,0,1,,,,,,,,,,,,,,,0,,,77,0
253680,set_tempo,240,1,0,,,,,,,,,,,,380373,,,,,,,
253680,note_on,60,0,2,,,,,,,,,,,,,,,0,,,61,52
253680,note_on,60,0,1,,,,,,,,,,,,,,,0,,,89,70
253800,note_on,0,0,2,,,,,,,,,,,,,,,0,,,56,54
253800,note_on,120,0,1,,,,,,,,,,,,,,,0,,,89,0
253800,note_on,0,0,1,,,,,,,,,,,,,,,0,,,85,72
253800,note_on,120,0,2,,,,,,,,,,,,,,,0,,,61,0
253920,note_on,0,0,2,,,,,,,,,,,,,,,0,,,53,56
253920,note_on,0,0,1,,,,,,,,,,,,,,,0,,,80,73
253920,note_on,120,0,1,,,,,,,,,,,,,,,0,,,85,0
253920,note_on,120,0,2,,,,,,,,,,,,,,,0,,,56,0
254040,note_on,0,0,2,,,,,,,,,,,,,,,0,,,49,58
254040,note_on,120,0,2,,,,,,,,,,,,,,,0,,,53,0
254040,note_on,0,0,1,,,,,,,,,,,,,,,0,,,77,75
254040,note_on,120,0,1,,,,,,,,,,,,,,,0,,,80,0
254160,note_on,120,0,1,,,,,,,,,,,,,,,0,,,77,0
254160,note_on,0,0,1,,,,,,,,,,,,,,,0,,,73,77
254160,note_on,120,0,2,,,,,,,,,,,,,,,0,,,49,0
254160,note_on,0,0,2,,,,,,,,,,,,,,,0,,,44,59
254280,note_on,120,0,1,,,,,,,,,,,,,,,0,,,73,0
254280,note_on,120,0,2,,,,,,,,,,,,,,,0,,,44,0
254280,note_on,0,0,2,,,,,,,,,,,,,,,0,,,41,61
254280,note_on,0,0,1,,,,,,,,,,,,,,,0,,,68,78
254400,set_tempo,720,1,0,,,,,,,,,,,,380373,,,,,,,
254400,note_on,120,0,1,,,,,,,,,,,,,,,0,,,68,0
254400,note_on,120,0,2,,,,,,,,,,,,,,,0,,,41,0
254400,note_on,0,0,2,,,,,,,,,,,,,,,0,,,37,62
254400,note_on,0,0,1,,,,,,,,,,,,,,,0,,,65,81
254520,note_on,120,0,1,,,,,,,,,,,,,,,0,,,65,0
254520,note_on,0,0,1,,,,,,,,,,,,,,,0,,,61,80
254520,note_on,120,0,2,,,,,,,,,,,,,,,0,,,37,0
254520,note_on,0,0,2,,,,,,,,,,,,,,,0,,,32,61
254560,set_tempo,160,1,0,,,,,,,,,,,,381631,,,,,,,
254640,note_on,120,0,1,,,,,,,,,,,,,,,0,,,61,0
254640,note_on,0,0,1,,,,,,,,,,,,,,,0,,,65,79
254640,note_on,120,0,2,,,,,,,,,,,,,,,0,,,32,0
254640,note_on,0,0,2,,,,,,,,,,,,,,,0,,,37,60
254680,set_tempo,120,1,0,,,,,,,,,,,,382897,,,,,,,
254760,note_on,120,0,2,,,,,,,,,,,,,,,0,,,37,0
254760,note_on,0,0,2,,,,,,,,,,,,,,,0,,,41,59
254760,note_on,120,0,1,,,,,,,,,,,,,,,0,,,65,0
254760,note_on,0,0,1,,,,,,,,,,,,,,,0,,,68,78
254800,set_tempo,120,1,0,,,,,,,,,,,,384172,,,,,,,
254880,note_on,0,0,2,,,,,,,,,,,,,,,0,,,44,58
254880,note_on,0,0,1,,,,,,,,,,,,,,,0,,,73,78
254880,note_on,120,0,1,,,,,,,,,,,,,,,0,,,68,0
254880,note_on,120,0,2,,,,,,,,,,,,,,,0,,,41,0
254960,set_tempo,160,1,0,,,,,,,,,,,,385455,,,,,,,
255000,note_on,120,0,2,,,,,,,,,,,,,,,0,,,44,0
255000,note_on,0,0,2,,,,,,,,,,,,,,,0,,,49,57
255000,note_on,0,0,1,,,,,,,,,,,,,,,0,,,77,77
255000,note_on,120,0,1,,,,,,,,,,,,,,,0,,,73,0
255080,set_tempo,120,1,0,,,,,,,,,,,,386747,,,,,,,
255120,note_on,0,0,1,,,,,,,,,,,,,,,0,,,80,76
255120,note_on,120,0,1,,,,,,,,,,,,,,,0,,,77,0
255120,note_on,120,0,2,,,,,,,,,,,,,,,0,,,49,0
255120,note_on,0,0,2,,,,,,,,,,,,,,,0,,,53,57
255120,set_tempo,40,1,0,,,,,,,,,,,,420639,,,,,,,
255240,note_on,0,0,2,,,,,,,,,,,,,,,0,,,56,56
255240,note_on,0,0,1,,,,,,,,,,,,,,,0,,,85,75
255240,note_on,120,0,1,,,,,,,,,,,,,,,0,,,80,0
255240,set_tempo,120,1,0,,,,,,,,,,,,613058,,,,,,,
255240,note_on,120,0,2,,,,,,,,,,,,,,,0,,,53,0
255360,note_on,120,0,2,,,,,,,,,,,,,,,0,,,56,0
255360,control_change,0,0,2,,,,,,,,,,,,,,,0,64,0,,
255360,note_on,0,0,2,,,,,,,,,,,,,,,0,,,58,67
255360,note_on,0,0,2,,,,,,,,,,,,,,,0,,,46,57
255360,note_on,0,0,2,,,,,,,,,,,,,,,0,,,49,57
255360,note_on,0,0,2,,,,,,,,,,,,,,,0,,,53,57
255360,set_tempo,120,1,0,,,,,,,,,,,,396040,,,,,,,
255360,note_on,120,0,1,,,,,,,,,,,,,,,0,,,85,0
255360,note_on,0,0,1,,,,,,,,,,,,,,,0,,,82,77
255360,note_on,0,0,1,,,,,,,,,,,,,,,0,,,85,77
255360,note_on,0,0,1,,,,,,,,,,,,,,,0,,,89,92
255360,note_on,0,0,1,,,,,,,,,,,,,,,0,,,77,77
255360,text,0,1,1,,,,,,,,,,,,,,,,,,,
255360,control_change,0,0,1,,,,,,,,,,,,,,,0,91,127,,
255840,note_on,0,0,2,,,,,,,,,,,,,,,0,,,49,51
255840,note_on,0,0,2,,,,,,,,,,,,,,,0,,,53,51
255840,note_on,0,0,2,,,,,,,,,,,,,,,0,,,46,0
255840,note_on,0,0,2,,,,,,,,,,,,,,,0,,,49,0
255840,note_on,0,0,2,,,,,,,,,,,,,,,0,,,53,0
255840,note_on,480,0,2,,,,,,,,,,,,,,,0,,,58,0
255840,note_on,0,0,1,,,,,,,,,,,,,,,0,,,89,87
255840,note_on,0,0,1,,,,,,,,,,,,,,,0,,,85,73
255840,note_on,0,0,1,,,,,,,,,,,,,,,0,,,77,73
255840,note_on,0,0,1,,,,,,,,,,,,,,,0,,,85,0
255840,note_on,0,0,1,,,,,,,,,,,,,,,0,,,82,0
255840,note_on,0,0,1,,,,,,,,,,,,,,,0,,,77,0
255840,note_on,0,0,2,,,,,,,,,,,,,,,0,,,46,51
255840,note_on,480,0,1,,,,,,,,,,,,,,,0,,,89,0
255840,note_on,0,0,1,,,,,,,,,,,,,,,0,,,82,73
255840,note_on,0,0,2,,,,,,,,,,,,,,,0,,,58,61
255840,set_tempo,480,1,0,,,,,,,,,,,,386349,,,,,,,
255960,note_on,0,0,2,,,,,,,,,,,,,,,0,,,49,0
255960,note_on,0,0,1,,,,,,,,,,,,,,,0,,,77,0
255960,note_on,120,0,2,,,,,,,,,,,,,,,0,,,58,0
255960,note_on,0,0,2,,,,,,,,,,,,,,,0,,,53,0
255960,note_on,0,0,2,,,,,,,,,,,,,,,0,,,46,0
255960,note_on,0,0,1,,,,,,,,,,,,,,,0,,,82,0
255960,note_on,0,0,1,,,,,,,,,,,,,,,0,,,85,0
255960,note_on,120,0,1,,,,,,,,,,,,,,,0,,,89,0
256080,note_on,0,0,2,,,,,,,,,,,,,,,0,,,58,61
256080,note_on,0,0,1,,,,,,,,,,,,,,,0,,,85,73
256080,note_on,0,0,2,,,,,,,,,,,,,,,0,,,49,51
256080,note_on,120,0,2,,,,,,,,,,,,,,,0,,,53,51
256080,note_on,0,0,1,,,,,,,,,,,,,,,0,,,89,87
256080,note_on,120,0,1,,,,,,,,,,,,,,,0,,,77,73
256080,note_on,0,0,1,,,,,,,,,,,,,,,0,,,82,73
256080,note_on,0,0,2,,,,,,,,,,,,,,,0,,,46,51
256200,note_on,120,0,1,,,,,,,,,,,,,,,0,,,89,0
256200,note_on,0,0,1,,,,,,,,,,,,,,,0,,,77,0
256200,note_on,0,0,1,,,,,,,,,,,,,,,0,,,82,0
256200,note_on,120,0,2,,,,,,,,,,,,,,,0,,,58,0
256200,note_on,0,0,2,,,,,,,,,,,,,,,0,,,53,0
256200,note_on,0,0,2,,,,,,,,,,,,,,,0,,,49,0
256200,note_on,0,0,2,,,,,,,,,,,,,,,0,,,46,0
256200,note_on,0,0,1,,,,,,,,,,,,,,,0,,,85,0
256320,set_tempo,480,1,0,,,,,,,,,,,,396040,,,,,,,
256320,note_on,0,0,2,,,,,,,,,,,,,,,0,,,46,58
256320,note_on,0,0,2,,,,,,,,,,,,,,,0,,,58,69
256320,note_on,0,0,1,,,,,,,,,,,,,,,0,,,82,77
256320,note_on,0,0,1,,,,,,,,,,,,,,,0,,,85,77
256320,note_on,0,0,1,,,,,,,,,,,,,,,0,,,89,92
256320,note_on,120,0,2,,,,,,,,,,,,,,,0,,,53,58
256320,note_on,0,0,2,,,,,,,,,,,,,,,0,,,49,58
256320,note_on,120,0,1,,,,,,,,,,,,,,,0,,,77,77
256800,note_on,0,0,1,,,,,,,,,,,,,,,0,,,89,86
256800,note_on,0,0,1,,,,,,,,,,,,,,,0,,,77,0
256800,note_on,0,0,1,,,,,,,,,,,,,,,0,,,82,0
256800,note_on,0,0,1,,,,,,,,,,,,,,,0,,,85,0
256800,note_on,0,0,1,,,,,,,,,,,,,,,0,,,77,72
256800,note_on,480,0,1,,,,,,,,,,,,,,,0,,,89,0
256800,note_on,0,0,1,,,,,,,,,,,,,,,0,,,85,72
256800,set_tempo,480,1,0,,,,,,,,,,,,386349,,,,,,,
256800,note_on,0,0,2,,,,,,,,,,,,,,,0,,,58,63
256800,note_on,0,0,2,,,,,,,,,,,,,,,0,,,46,52
256800,note_on,0,0,1,,,,,,,,,,,,,,,0,,,82,72
256800,note_on,0,0,2,,,,,,,,,,,,,,,0,,,49,52
256800,note_on,0,0,2,,,,,,,,,,,,,,,0,,,49,0
256800,note_on,0,0,2,,,,,,,,,,,,,,,0,,,53,0
256800,note_on,480,0,2,,,,,,,,,,,,,,,0,,,58,0
256800,note_on,0,0,2,,,,,,,,,,,,,,,0,,,46,0
256806,note_on,6,0,2,,,,,,,,,,,,,,,0,,,53,52
256920,note_on,0,0,1,,,,,,,,,,,,,,,0,,,85,0
256920,note_on,0,0,1,,,,,,,,,,,,,,,0,,,82,0
256920,note_on,0,0,1,,,,,,,,,,,,,,,0,,,77,0
256920,note_on,120,0,1,,,,,,,,,,,,,,,0,,,89,0
256920,note_on,114,0,2,,,,,,,,,,,,,,,0,,,58,0
256920,note_on,0,0,2,,,,,,,,,,,,,,,0,,,49,0
256920,note_on,0,0,2,,,,,,,,,,,,,,,0,,,46,0
256926,note_on,6,0,2,,,,,,,,,,,,,,,0,,,53,0
257040,note_on,114,0,2,,,,,,,,,,,,,,,0,,,53,52
257040,note_on,0,0,2,,,,,,,,,,,,,,,0,,,46,52
257040,note_on,0,0,1,,,,,,,,,,,,,,,0,,,89,86
257040,note_on,0,0,2,,,,,,,,,,,,,,,0,,,49,52
257040,note_on,0,0,1,,,,,,,,,,,,,,,0,,,85,72
257040,note_on,0,0,2,,,,,,,,,,,,,,,0,,,58,63
257040,note_on,120,0,1,,,,,,,,,,,,,,,0,,,77,72
257040,note_on,0,0,1,,,,,,,,,,,,,,,0,,,82,72
257160,note_on,0,0,1,,,,,,,,,,,,,,,0,,,82,0
257160,note_on,0,0,2,,,,,,,,,,,,,,,0,,,53,0
257160,note_on,0,0,1,,,,,,,,,,,,,,,0,,,77,0
257160,note_on,120,0,1,,,,,,,,,,,,,,,0,,,89,0
257160,note_on,120,0,2,,,,,,,,,,,,,,,0,,,58,0
257160,note_on,0,0,2,,,,,,,,,,,,,,,0,,,46,0
257160,note_on,0,0,1,,,,,,,,,,,,,,,0,,,85,0
257160,note_on,0,0,2,,,,,,,,,,,,,,,0,,,49,0
257280,note_on,0,0,2,,,,,,,,,,,,,,,0,,,49,58
257280,note_on,0,0,2,,,,,,,,,,,,,,,0,,,58,69
257280,note_on,0,0,2,,,,,,,,,,,,,,,0,,,46,58
257280,note_on,120,0,2,,,,,,,,,,,,,,,0,,,53,58
257280,note_on,0,0,1,,,,,,,,,,,,,,,0,,,82,77
257280,note_on,0,0,1,,,,,,,,,,,,,,,0,,,85,77
257280,note_on,0,0,1,,,,,,,,,,,,,,,0,,,89,92
257280,set_tempo,480,1,0,,,,,,,,,,,,394633,,,,,,,
257280,note_on,120,0,1,,,,,,,,,,,,,,,0,,,77,77
257326,control_change,46,0,2,,,,,,,,,,,,,,,0,64,127,,
257460,note_on,0,0,1,,,,,,,,,,,,,,,0,,,82,0
257460,note_on,0,0,1,,,,,,,,,,,,,,,0,,,77,0
257460,note_on,180,0,1,,,,,,,,,,,,,,,0,,,89,0
257460,note_on,0,0,1,,,,,,,,,,,,,,,0,,,85,0
257460,note_on,0,0,2,,,,,,,,,,,,,,,0,,,46,0
257460,note_on,134,0,2,,,,,,,,,,,,,,,0,,,58,0
257460,note_on,0,0,2,,,,,,,,,,,,,,,0,,,53,0
257460,note_on,0,0,2,,,,,,,,,,,,,,,0,,,49,0
257520,set_tempo,240,1,0,,,,,,,,,,,,380373,,,,,,,
257520,note_on,60,0,2,,,,,,,,,,,,,,,0,,,61,53
257520,note_on,60,0,1,,,,,,,,,,,,,,,0,,,89,71
257640,note_on,120,0,1,,,,,,,,,,,,,,,0,,,89,0
257640,note_on,0,0,1,,,,,,,,,,,,,,,0,,,85,72
257640,note_on,0,0,2,,,,,,,,,,,,,,,0,,,58,55
257640,note_on,120,0,2,,,,,,,,,,,,,,,0,,,61,0
257760,note_on,120,0,1,,,,,,,,,,,,,,,0,,,85,0
257760,note_on,0,0,1,,,,,,,,,,,,,,,0,,,82,73
257760,note_on,120,0,2,,,,,,,,,,,,,,,0,,,58,0
257760,note_on,0,0,2,,,,,,,,,,,,,,,0,,,53,57
257880,note_on,120,0,2,,,,,,,,,,,,,,,0,,,53,0
257880,note_on,0,0,2,,,,,,,,,,,,,,,0,,,49,58
257880,note_on,120,0,1,,,,,,,,,,,,,,,0,,,82,0
257880,note_on,0,0,1,,,,,,,,,,,,,,,0,,,77,74
258000,note_on,120,0,2,,,,,,,,,,,,,,,0,,,49,0
258000,note_on,0,0,2,,,,,,,,,,,,,,,0,,,46,60
258000,note_on,120,0,1,,,,,,,,,,,,,,,0,,,77,0
258000,note_on,0,0,1,,,,,,,,,,,,,,,0,,,73,75
258120,note_on,0,0,1,,,,,,,,,,,,,,,0,,,70,75
258120,note_on,120,0,1,,,,,,,,,,,,,,,0,,,73,0
258120,note_on,120,0,2,,,,,,,,,,,,,,,0,,,46,0
258120,note_on,0,0,2,,,,,,,,,,,,,,,0,,,41,62
258240,note_on,0,0,2,,,,,,,,,,,,,,,0,,,37,64
258240,note_on,0,0,1,,,,,,,,,,,,,,,0,,,65,76
258240,note_on,120,0,1,,,,,,,,,,,,,,,0,,,70,0
258240,set_tempo,720,1,0,,,,,,,,,,,,380373,,,,,,,
258240,note_on,120,0,2,,,,,,,,,,,,,,,0,,,41,0
258360,note_on,0,0,2,,,,,,,,,,,,,,,0,,,34,64
258360,note_on,120,0,2,,,,,,,,,,,,,,,0,,,37,0
258360,note_on,0,0,1,,,,,,,,,,,,,,,0,,,61,77
258360,note_on,120,0,1,,,,,,,,,,,,,,,0,,,65,0
258400,set_tempo,160,1,0,,,,,,,,,,,,381631,,,,,,,
258480,note_on,0,0,1,,,,,,,,,,,,,,,0,,,65,76
258480,note_on,120,0,1,,,,,,,,,,,,,,,0,,,61,0
258480,note_on,120,0,2,,,,,,,,,,,,,,,0,,,34,0
258480,note_on,0,0,2,,,,,,,,,,,,,,,0,,,37,63
258520,set_tempo,120,1,0,,,,,,,,,,,,382897,,,,,,,
258600,note_on,120,0,1,,,,,,,,,,,,,,,0,,,65,0
258600,note_on,120,0,2,,,,,,,,,,,,,,,0,,,37,0
258600,note_on,0,0,1,,,,,,,,,,,,,,,0,,,70,75
258600,note_on,0,0,2,,,,,,,,,,,,,,,0,,,41,62
258640,set_tempo,120,1,0,,,,,,,,,,,,384172,,,,,,,
258720,note_on,0,0,2,,,,,,,,,,,,,,,0,,,46,61
258720,note_on,120,0,2,,,,,,,,,,,,,,,0,,,41,0
258720,note_on,0,0,1,,,,,,,,,,,,,,,0,,,73,74
258720,note_on,120,0,1,,,,,,,,,,,,,,,0,,,70,0
258800,set_tempo,160,1,0,,,,,,,,,,,,385455,,,,,,,
258840,note_on,0,0,1,,,,,,,,,,,,,,,0,,,77,73
258840,note_on,120,0,1,,,,,,,,,,,,,,,0,,,73,0
258840,note_on,0,0,2,,,,,,,,,,,,,,,0,,,49,60
258840,note_on,120,0,2,,,,,,,,,,,,,,,0,,,46,0
258920,set_tempo,120,1,0,,,,,,,,,,,,386747,,,,,,,
258960,note_on,0,0,2,,,,,,,,,,,,,,,0,,,53,59
258960,note_on,120,0,2,,,,,,,,,,,,,,,0,,,49,0
258960,note_on,120,0,1,,,,,,,,,,,,,,,0,,,77,0
258960,note_on,0,0,1,,,,,,,,,,,,,,,0,,,82,73
258960,set_tempo,40,1,0,,,,,,,,,,,,425291,,,,,,,
259080,set_tempo,120,1,0,,,,,,,,,,,,597193,,,,,,,
259080,note_on,0,0,2,,,,,,,,,,,,,,,0,,,58,60
259080,note_on,120,0,2,,,,,,,,,,,,,,,0,,,53,0
259080,note_on,120,0,1,,,,,,,,,,,,,,,0,,,82,0
259080,note_on,0,0,1,,,,,,,,,,,,,,,0,,,85,72
259200,note_on,0,0,2,,,,,,,,,,,,,,,0,,,61,59
259200,set_tempo,120,1,0,,,,,,,,,,,,396040,,,,,,,
259200,note_on,120,0,1,,,,,,,,,,,,,,,0,,,85,0
259200,note_on,0,0,1,,,,,,,,,,,,,,,0,,,78,69
259200,note_on,0,0,1,,,,,,,,,,,,,,,0,,,82,69
259200,note_on,0,0,1,,,,,,,,,,,,,,,0,,,85,69
259200,note_on,0,0,1,,,,,,,,,,,,,,,0,,,90,82
259200,control_change,0,0,1,,,,,,,,,,,,,,,0,91,127,,
259200,text,0,1,1,,,,,,,,,,,,,,,,,,,
259200,control_change,0,0,2,,,,,,,,,,,,,,,0,64,0,,
259200,note_on,0,0,2,,,,,,,,,,,,,,,0,,,58,51
259200,note_on,0,0,2,,,,,,,,,,,,,,,0,,,54,51
259200,note_on,120,0,2,,,,,,,,,,,,,,,0,,,58,0
259680,note_on,0,0,1,,,,,,,,,,,,,,,0,,,78,0
259680,note_on,0,0,1,,,,,,,,,,,,,,,0,,,85,66
259680,note_on,0,0,1,,,,,,,,,,,,,,,0,,,85,0
259680,note_on,0,0,1,,,,,,,,,,,,,,,0,,,78,66
259680,note_on,0,0,1,,,,,,,,,,,,,,,0,,,82,66
259680,note_on,0,0,1,,,,,,,,,,,,,,,0,,,90,77
259680,note_on,0,0,1,,,,,,,,,,,,,,,0,,,82,0
259680,note_on,0,0,2,,,,,,,,,,,,,,,0,,,58,0
259680,note_on,480,0,2,,,,,,,,,,,,,,,0,,,61,0
259680,note_on,0,0,2,,,,,,,,,,,,,,,0,,,54,46
259680,set_tempo,480,1,0,,,,,,,,,,,,386349,,,,,,,
259680,note_on,0,0,2,,,,,,,,,,,,,,,0,,,54,0
259680,note_on,480,0,1,,,,,,,,,,,,,,,0,,,90,0
259680,note_on,0,0,2,,,,,,,,,,,,,,,0,,,61,55
259680,note_on,0,0,2,,,,,,,,,,,,,,,0,,,58,46
259800,note_on,120,0,2,,,,,,,,,,,,,,,0,,,61,0
259800,note_on,0,0,1,,,,,,,,,,,,,,,0,,,85,0
259800,note_on,0,0,1,,,,,,,,,,,,,,,0,,,82,0
259800,note_on,0,0,1,,,,,,,,,,,,,,,0,,,78,0
259800,note_on,120,0,1,,,,,,,,,,,,,,,0,,,90,0
259800,note_on,0,0,2,,,,,,,,,,,,,,,0,,,54,0
259800,note_on,0,0,2,,,,,,,,,,,,,,,0,,,58,0
259920,note_on,0,0,2,,,,,,,,,,,,,,,0,,,61,55
259920,note_on,0,0,2,,,,,,,,,,,,,,,0,,,58,46
259920,note_on,120,0,2,,,,,,,,,,,,,,,0,,,54,46
259920,note_on,120,0,1,,,,,,,,,,,,,,,0,,,78,66
259920,note_on,0,0,1,,,,,,,,,,,,,,,0,,,82,66
259920,note_on,0,0,1,,,,,,,,,,,,,,,0,,,85,66
259920,note_on,0,0,1,,,,,,,,,,,,,,,0,,,90,77
260040,note_on,0,0,2,,,,,,,,,,,,,,,0,,,58,0
260040,note_on,0,0,1,,,,,,,,,,,,,,,0,,,82,0
260040,note_on,120,0,1,,,,,,,,,,,,,,,0,,,90,0
260040,note_on,0,0,1,,,,,,,,,,,,,,,0,,,78,0
260040,note_on,120,0,2,,,,,,,,,,,,,,,0,,,61,0
260040,note_on,0,0,1,,,,,,,,,,,,,,,0,,,85,0
260040,note_on,0,0,2,,,,,,,,,,,,,,,0,,,54,0
260160,note_on,0,0,1,,,,,,,,,,,,,,,0,,,90,90
260160,note_on,0,0,2,,,,,,,,,,,,,,,0,,,57,57
260160,note_on,0,0,2,,,,,,,,,,,,,,,0,,,54,57
260160,note_on,120,0,2,,,,,,,,,,,,,,,0,,,50,57
260160,note_on,0,0,2,,,,,,,,,,,,,,,0,,,62,67
260160,set_tempo,480,1,0,,,,,,,,,,,,396040,,,,,,,
260160,note_on,120,0,1,,,,,,,,,,,,,,,0,,,78,75
260160,note_on,0,0,1,,,,,,,,,,,,,,,0,,,81,75
260160,note_on,0,0,1,,,,,,,,,,,,,,,0,,,86,75
260640,note_on,0,0,2,,,,,,,,,,,,,,,0,,,62,61
260640,note_on,480,0,2,,,,,,,,,,,,,,,0,,,62,0
260640,note_on,0,0,2,,,,,,,,,,,,,,,0,,,50,0
260640,note_on,0,0,2,,,,,,,,,,,,,,,0,,,54,0
260640,note_on,0,0,2,,,,,,,,,,,,,,,0,,,57,0
260640,note_on,0,0,2,,,,,,,,,,,,,,,0,,,50,51
260640,note_on,0,0,2,,,,,,,,,,,,,,,0,,,57,51
260640,note_on,480,0,1,,,,,,,,,,,,,,,0,,,90,0
260640,note_on,0,0,1,,,,,,,,,,,,,,,0,,,78,0
260640,note_on,0,0,1,,,,,,,,,,,,,,,0,,,86,71
260640,set_tempo,480,1,0,,,,,,,,,,,,386349,,,,,,,
260640,note_on,0,0,1,,,,,,,,,,,,,,,0,,,81,0
260640,note_on,0,0,1,,,,,,,,,,,,,,,0,,,86,0
260640,note_on,0,0,1,,,,,,,,,,,,,,,0,,,78,71
260640,note_on,0,0,1,,,,,,,,,,,,,,,0,,,81,71
260640,note_on,0,0,1,,,,,,,,,,,,,,,0,,,90,84
260646,note_on,6,0,2,,,,,,,,,,,,,,,0,,,54,51
260760,note_on,120,0,1,,,,,,,,,,,,,,,0,,,90,0
260760,note_on,0,0,1,,,,,,,,,,,,,,,0,,,78,0
260760,note_on,0,0,1,,,,,,,,,,,,,,,0,,,81,0
260760,note_on,0,0,1,,,,,,,,,,,,,,,0,,,86,0
260760,note_on,114,0,2,,,,,,,,,,,,,,,0,,,62,0
260760,note_on,0,0,2,,,,,,,,,,,,,,,0,,,50,0
260760,note_on,0,0,2,,,,,,,,,,,,,,,0,,,57,0
260766,note_on,6,0,2,,,,,,,,,,,,,,,0,,,54,0
260880,note_on,0,0,1,,,,,,,,,,,,,,,0,,,86,71
260880,note_on,114,0,2,,,,,,,,,,,,,,,0,,,50,51
260880,note_on,0,0,2,,,,,,,,,,,,,,,0,,,54,51
260880,note_on,0,0,2,,,,,,,,,,,,,,,0,,,57,51
260880,note_on,0,0,2,,,,,,,,,,,,,,,0,,,62,61
260880,note_on,120,0,1,,,,,,,,,,,,,,,0,,,78,71
260880,note_on,0,0,1,,,,,,,,,,,,,,,0,,,81,71
260880,note_on,0,0,1,,,,,,,,,,,,,,,0,,,90,84
261000,note_on,0,0,2,,,,,,,,,,,,,,,0,,,50,0
261000,note_on,0,0,1,,,,,,,,,,,,,,,0,,,86,0
261000,note_on,0,0,1,,,,,,,,,,,,,,,0,,,81,0
261000,note_on,0,0,1,,,,,,,,,,,,,,,0,,,78,0
261000,note_on,0,0,2,,,,,,,,,,,,,,,0,,,54,0
261000,note_on,120,0,2,,,,,,,,,,,,,,,0,,,62,0
261000,note_on,0,0,2,,,,,,,,,,,,,,,0,,,57,0
261000,note_on,120,0,1,,,,,,,,,,,,,,,0,,,90,0
261120,note_on,0,0,2,,,,,,,,,,,,,,,0,,,56,57
261120,note_on,120,0,1,,,,,,,,,,,,,,,0,,,78,75
261120,note_on,0,0,1,,,,,,,,,,,,,,,0,,,80,75
261120,note_on,0,0,1,,,,,,,,,,,,,,,0,,,87,75
261120,note_on,0,0,1,,,,,,,,,,,,,,,0,,,90,90
261120,note_on,0,0,2,,,,,,,,,,,,,,,0,,,51,57
261120,set_tempo,480,1,0,,,,,,,,,,,,394633,,,,,,,
261120,note_on,0,0,2,,,,,,,,,,,,,,,0,,,60,67
261120,note_on,120,0,2,,,,,,,,,,,,,,,0,,,48,57
261166,control_change,46,0,2,,,,,,,,,,,,,,,0,64,127,,
261300,note_on,0,0,2,,,,,,,,,,,,,,,0,,,56,0
261300,note_on,0,0,1,,,,,,,,,,,,,,,0,,,80,0
261300,note_on,0,0,1,,,,,,,,,,,,,,,0,,,87,0
261300,note_on,180,0,1,,,,,,,,,,,,,,,0,,,90,0
261300,note_on,0,0,2,,,,,,,,,,,,,,,0,,,51,0
261300,note_on,0,0,2,,,,,,,,,,,,,,,0,,,48,0
261300,note_on,0,0,1,,,,,,,,,,,,,,,0,,,78,0
261300,note_on,134,0,2,,,,,,,,,,,,,,,0,,,60,0
261360,note_on,60,0,1,,,,,,,,,,,,,,,0,,,78,60
261360,set_tempo,240,1,0,,,,,,,,,,,,380373,,,,,,,
261360,note_on,60,0,2,,,,,,,,,,,,,,,0,,,63,47
261480,note_on,120,0,2,,,,,,,,,,,,,,,0,,,63,0
261480,note_on,0,0,2,,,,,,,,,,,,,,,0,,,61,48
261480,note_on,0,0,1,,,,,,,,,,,,,,,0,,,77,62
261480,note_on,120,0,1,,,,,,,,,,,,,,,0,,,78,0
261600,note_on,120,0,2,,,,,,,,,,,,,,,0,,,61,0
261600,note_on,0,0,2,,,,,,,,,,,,,,,0,,,60,50
261600,note_on,0,0,1,,,,,,,,,,,,,,,0,,,75,63
261600,note_on,120,0,1,,,,,,,,,,,,,,,0,,,77,0
261720,note_on,0,0,1,,,,,,,,,,,,,,,0,,,77,64
261720,note_on,0,0,2,,,,,,,,,,,,,,,0,,,61,51
261720,note_on,120,0,2,,,,,,,,,,,,,,,0,,,60,0
261720,note_on,120,0,1,,,,,,,,,,,,,,,0,,,75,0
261840,note_on,0,0,1,,,,,,,,,,,,,,,0,,,75,66
261840,note_on,120,0,1,,,,,,,,,,,,,,,0,,,77,0
261840,note_on,0,0,2,,,,,,,,,,,,,,,0,,,60,52
261840,note_on,120,0,2,,,,,,,,,,,,,,,0,,,61,0
261960,note_on,0,0,1,,,,,,,,,,,,,,,0,,,73,67
261960,note_on,120,0,1,,,,,,,,,,,,,,,0,,,75,0
261960,note_on,0,0,2,,,,,,,,,,,,,,,0,,,58,54
261960,note_on,120,0,2,,,,,,,,,,,,,,,0,,,60,0
262080,note_on,0,0,1,,,,,,,,,,,,,,,0,,,72,70
262080,note_on,0,0,2,,,,,,,,,,,,,,,0,,,56,55
262080,note_on,120,0,1,,,,,,,,,,,,,,,0,,,73,0
262080,note_on,120,0,2,,,,,,,,,,,,,,,0,,,58,0
262080,control_change,0,0,2,,,,,,,,,,,,,,,0,64,0,,
262080,set_tempo,720,1,0,,,,,,,,,,,,380373,,,,,,,
262200,note_on,0,0,1,,,,,,,,,,,,,,,0,,,73,70
262200,note_on,120,0,2,,,,,,,,,,,,,,,0,,,56,0
262200,note_on,0,0,2,,,,,,,,,,,,,,,0,,,58,53
262200,note_on,120,0,1,,,,,,,,,,,,,,,0,,,72,0
262240,set_tempo,160,1,0,,,,,,,,,,,,381631,,,,,,,
262320,note_on,0,0,2,,,,,,,,,,,,,,,0,,,56,52
262320,note_on,120,0,2,,,,,,,,,,,,,,,0,,,58,0
262320,note_on,120,0,1,,,,,,,,,,,,,,,0,,,73,0
262320,note_on,0,0,1,,,,,,,,,,,,,,,0,,,72,69
262360,set_tempo,120,1,0,,,,,,,,,,,,382897,,,,,,,
262440,note_on,120,0,2,,,,,,,,,,,,,,,0,,,56,0
262440,note_on,0,0,2,,,,,,,,,,,,,,,0,,,58,52
262440,note_on,120,0,1,,,,,,,,,,,,,,,0,,,72,0
262440,note_on,0,0,1,,,,,,,,,,,,,,,0,,,73,68
262480,set_tempo,120,1,0,,,,,,,,,,,,384172,,,,,,,
262560,note_on,0,0,2,,,,,,,,,,,,,,,0,,,60,51
262560,note_on,120,0,2,,,,,,,,,,,,,,,0,,,58,0
262560,note_on,0,0,1,,,,,,,,,,,,,,,0,,,75,67
262560,note_on,120,0,1,,,,,,,,,,,,,,,0,,,73,0
262640,set_tempo,160,1,0,,,,,,,,,,,,385455,,,,,,,
262680,note_on,120,0,2,,,,,,,,,,,,,,,0,,,60,0
262680,note_on,0,0,2,,,,,,,,,,,,,,,0,,,61,51
262680,note_on,120,0,1,,,,,,,,,,,,,,,0,,,75,0
262680,note_on,0,0,1,,,,,,,,,,,,,,,0,,,77,66
262760,set_tempo,120,1,0,,,,,,,,,,,,386747,,,,,,,
262800,note_on,120,0,1,,,,,,,,,,,,,,,0,,,77,0
262800,set_tempo,40,1,0,,,,,,,,,,,,425291,,,,,,,
262800,note_on,120,0,2,,,,,,,,,,,,,,,0,,,61,0
262800,note_on,0,0,2,,,,,,,,,,,,,,,0,,,63,50
262800,note_on,0,0,1,,,,,,,,,,,,,,,0,,,78,65
262920,note_on,0,0,2,,,,,,,,,,,,,,,0,,,65,50
262920,note_on,120,0,2,,,,,,,,,,,,,,,0,,,63,0
262920,note_on,0,0,1,,,,,,,,,,,,,,,0,,,80,64
262920,note_on,120,0,1,,,,,,,,,,,,,,,0,,,78,0
262920,set_tempo,120,1,0,,,,,,,,,,,,597193,,,,,,,
263040,note_on,0,0,2,,,,,,,,,,,,,,,0,,,61,59
263040,control_change,0,0,2,,,,,,,,,,,,,,,0,64,0,,
263040,note_on,120,0,2,,,,,,,,,,,,,,,0,,,65,0
263040,set_tempo,120,1,0,,,,,,,,,,,,396040,,,,,,,
263040,note_on,0,0,2,,,,,,,,,,,,,,,0,,,54,51
263040,note_on,120,0,1,,,,,,,,,,,,,,,0,,,80,0
263040,note_on,0,0,1,,,,,,,,,,,,,,,0,,,78,69
263040,note_on,0,0,1,,,,,,,,,,,,,,,0,,,82,69
263040,note_on,0,0,1,,,,,,,,,,,,,,,0,,,85,69
263040,note_on,0,0,1,,,,,,,,,,,,,,,0,,,90,82
263040,control_change,0,0,1,,,,,,,,,,,,,,,0,91,127,,
263040,text,0,1,1,,,,,,,,,,,,,,,,,,,
263040,note_on,0,0,2,,,,,,,,,,,,,,,0,,,58,51
263520,note_on,0,0,1,,,,,,,,,,,,,,,0,,,82,66
263520,note_on,0,0,1,,,,,,,,,,,,,,,0,,,78,66
263520,note_on,0,0,1,,,,,,,,,,,,,,,0,,,85,0
263520,note_on,0,0,1,,,,,,,,,,,,,,,0,,,82,0
263520,note_on,0,0,2,,,,,,,,,,,,,,,0,,,58,46
263520,note_on,0,0,2,,,,,,,,,,,,,,,0,,,58,0
263520,note_on,0,0,2,,,,,,,,,,,,,,,0,,,54,0
263520,note_on,0,0,2,,,,,,,,,,,,,,,0,,,54,46
263520,note_on,0,0,1,,,,,,,,,,,,,,,0,,,85,66
263520,note_on,0,0,2,,,,,,,,,,,,,,,0,,,61,55
263520,set_tempo,480,1,0,,,,,,,,,,,,386349,,,,,,,
263520,note_on,0,0,1,,,,,,,,,,,,,,,0,,,78,0
263520,note_on,480,0,2,,,,,,,,,,,,,,,0,,,61,0
263520,note_on,0,0,1,,,,,,,,,,,,,,,0,,,90,77
263520,note_on,480,0,1,,,,,,,,,,,,,,,0,,,90,0
263640,note_on,0,0,2,,,,,,,,,,,,,,,0,,,54,0
263640,note_on,120,0,1,,,,,,,,,,,,,,,0,,,90,0
263640,note_on,0,0,1,,,,,,,,,,,,,,,0,,,78,0
263640,note_on,0,0,2,,,,,,,,,,,,,,,0,,,58,0
263640,note_on,0,0,1,,,,,,,,,,,,,,,0,,,85,0
263640,note_on,0,0,1,,,,,,,,,,,,,,,0,,,82,0
263640,note_on,120,0,2,,,,,,,,,,,,,,,0,,,61,0
263760,note_on,0,0,1,,,,,,,,,,,,,,,0,,,90,77
263760,note_on,0,0,1,,,,,,,,,,,,,,,0,,,85,66
263760,note_on,0,0,1,,,,,,,,,,,,,,,0,,,82,66
263760,note_on,120,0,1,,,,,,,,,,,,,,,0,,,78,66
263760,note_on,120,0,2,,,,,,,,,,,,,,,0,,,54,46
263760,note_on,0,0,2,,,,,,,,,,,,,,,0,,,58,46
263760,note_on,0,0,2,,,,,,,,,,,,,,,0,,,61,55
263880,note_on,120,0,2,,,,,,,,,,,,,,,0,,,61,0
263880,note_on,0,0,2,,,,,,,,,,,,,,,0,,,58,0
263880,note_on,0,0,2,,,,,,,,,,,,,,,0,,,54,0
263880,note_on,120,0,1,,,,,,,,,,,,,,,0,,,90,0
263880,note_on,0,0,1,,,,,,,,,,,,,,,0,,,78,0
263880,note_on,0,0,1,,,,,,,,,,,,,,,0,,,85,0
263880,note_on,0,0,1,,,,,,,,,,,,,,,0,,,82,0
264000,note_on,0,0,2,,,,,,,,,,,,,,,0,,,54,57
264000,set_tempo,480,1,0,,,,,,,,,,,,396040,,,,,,,
264000,note_on,0,0,2,,,,,,,,,,,,,,,0,,,62,67
264000,note_on,120,0,2,,,,,,,,,,,,,,,0,,,50,57
264000,note_on,0,0,2,,,,,,,,,,,,,,,0,,,57,57
264000,note_on,0,0,1,,,,,,,,,,,,,,,0,,,86,75
264000,note_on,0,0,1,,,,,,,,,,,,,,,0,,,90,90
264000,note_on,0,0,1,,,,,,,,,,,,,,,0,,,81,75
264000,note_on,120,0,1,,,,,,,,,,,,,,,0,,,78,75
264480,note_on,0,0,1,,,,,,,,,,,,,,,0,,,81,71
264480,note_on,0,0,1,,,,,,,,,,,,,,,0,,,78,71
264480,note_on,0,0,1,,,,,,,,,,,,,,,0,,,86,0
264480,note_on,0,0,1,,,,,,,,,,,,,,,0,,,81,0
264480,note_on,0,0,1,,,,,,,,,,,,,,,0,,,78,0
264480,note_on,480,0,1,,,,,,,,,,,,,,,0,,,90,0
264480,note_on,480,0,2,,,,,,,,,,,,,,,0,,,62,0
264480,note_on,0,0,2,,,,,,,,,,,,,,,0,,,50,0
264480,note_on,0,0,2,,,,,,,,,,,,,,,0,,,57,0
264480,note_on,0,0,2,,,,,,,,,,,,,,,0,,,50,51
264480,note_on,0,0,2,,,,,,,,,,,,,,,0,,,57,51
264480,note_on,0,0,2,,,,,,,,,,,,,,,0,,,62,61
264480,set_tempo,480,1,0,,,,,,,,,,,,386349,,,,,,,
264480,note_on,0,0,1,,,,,,,,,,,,,,,0,,,86,71
264480,note_on,0,0,1,,,,,,,,,,,,,,,0,,,90,84
264480,note_on,0,0,2,,,,,,,,,,,,,,,0,,,54,0
264486,note_on,6,0,2,,,,,,,,,,,,,,,0,,,54,51
264600,note_on,0,0,1,,,,,,,,,,,,,,,0,,,78,0
264600,note_on,0,0,1,,,,,,,,,,,,,,,0,,,81,0
264600,note_on,120,0,1,,,,,,,,,,,,,,,0,,,90,0
264600,note_on,0,0,2,,,,,,,,,,,,,,,0,,,57,0
264600,note_on,0,0,1,,,,,,,,,,,,,,,0,,,86,0
264600,note_on,0,0,2,,,,,,,,,,,,,,,0,,,50,0
264600,note_on,114,0,2,,,,,,,,,,,,,,,0,,,62,0
264606,note_on,6,0,2,,,,,,,,,,,,,,,0,,,54,0
264720,note_on,0,0,2,,,,,,,,,,,,,,,0,,,62,61
264720,note_on,0,0,2,,,,,,,,,,,,,,,0,,,57,51
264720,note_on,0,0,1,,,,,,,,,,,,,,,0,,,81,71
264720,note_on,0,0,1,,,,,,,,,,,,,,,0,,,86,71
264720,note_on,0,0,2,,,,,,,,,,,,,,,0,,,54,51
264720,note_on,114,0,2,,,,,,,,,,,,,,,0,,,50,51
264720,note_on,120,0,1,,,,,,,,,,,,,,,0,,,78,71
264720,note_on,0,0,1,,,,,,,,,,,,,,,0,,,90,84
264840,note_on,120,0,1,,,,,,,,,,,,,,,0,,,90,0
264840,note_on,0,0,2,,,,,,,,,,,,,,,0,,,57,0
264840,note_on,0,0,2,,,,,,,,,,,,,,,0,,,54,0
264840,note_on,0,0,2,,,,,,,,,,,,,,,0,,,50,0
264840,note_on,120,0,2,,,,,,,,,,,,,,,0,,,62,0
264840,note_on,0,0,1,,,,,,,,,,,,,,,0,,,78,0
264840,note_on,0,0,1,,,,,,,,,,,,,,,0,,,81,0
264840,note_on,0,0,1,,,,,,,,,,,,,,,0,,,86,0
264960,note_on,0,0,2,,,,,,,,,,,,,,,0,,,60,67
264960,note_on,0,0,2,,,,,,,,,,,,,,,0,,,56,57
264960,note_on,0,0,2,,,,,,,,,,,,,,,0,,,51,57
264960,note_on,120,0,2,,,,,,,,,,,,,,,0,,,48,57
264960,note_on,0,0,1,,,,,,,,,,,,,,,0,,,80,75
264960,note_on,0,0,1,,,,,,,,,,,,,,,0,,,87,75
264960,note_on,0,0,1,,,,,,,,,,,,,,,0,,,90,90
264960,set_tempo,480,1,0,,,,,,,,,,,,394633,,,,,,,
264960,note_on,120,0,1,,,,,,,,,,,,,,,0,,,78,75
265006,control_change,46,0,2,,,,,,,,,,,,,,,0,64,127,,
265140,note_on,0,0,1,,,,,,,,,,,,,,,0,,,87,0
265140,note_on,0,0,1,,,,,,,,,,,,,,,0,,,80,0
265140,note_on,0,0,1,,,,,,,,,,,,,,,0,,,78,0
265140,note_on,134,0,2,,,,,,,,,,,,,,,0,,,60,0
265140,note_on,0,0,2,,,,,,,,,,,,,,,0,,,48,0
265140,note_on,0,0,2,,,,,,,,,,,,,,,0,,,51,0
265140,note_on,0,0,2,,,,,,,,,,,,,,,0,,,56,0
265140,note_on,180,0,1,,,,,,,,,,,,,,,0,,,90,0
265200,note_on,60,0,2,,,,,,,,,,,,,,,0,,,63,47
265200,note_on,60,0,1,,,,,,,,,,,,,,,0,,,78,61
265200,set_tempo,240,1,0,,,,,,,,,,,,380373,,,,,,,
265320,note_on,120,0,1,,,,,,,,,,,,,,,0,,,78,0
265320,note_on,0,0,1,,,,,,,,,,,,,,,0,,,77,62
265320,note_on,0,0,2,,,,,,,,,,,,,,,0,,,61,48
265320,note_on,120,0,2,,,,,,,,,,,,,,,0,,,63,0
265440,note_on,0,0,2,,,,,,,,,,,,,,,0,,,60,50
265440,note_on,120,0,2,,,,,,,,,,,,,,,0,,,61,0
265440,note_on,0,0,1,,,,,,,,,,,,,,,0,,,75,63
265440,note_on,120,0,1,,,,,,,,,,,,,,,0,,,77,0
265560,note_on,120,0,2,,,,,,,,,,,,,,,0,,,60,0
265560,note_on,0,0,2,,,,,,,,,,,,,,,0,,,61,51
265560,note_on,0,0,1,,,,,,,,,,,,,,,0,,,77,64
265560,note_on,120,0,1,,,,,,,,,,,,,,,0,,,75,0
265680,note_on,0,0,2,,,,,,,,,,,,,,,0,,,60,51
265680,note_on,120,0,2,,,,,,,,,,,,,,,0,,,61,0
265680,note_on,0,0,1,,,,,,,,,,,,,,,0,,,75,65
265680,note_on,120,0,1,,,,,,,,,,,,,,,0,,,77,0
265800,note_on,120,0,1,,,,,,,,,,,,,,,0,,,75,0
265800,note_on,0,0,1,,,,,,,,,,,,,,,0,,,73,67
265800,note_on,120,0,2,,,,,,,,,,,,,,,0,,,60,0
265800,note_on,0,0,2,,,,,,,,,,,,,,,0,,,58,53
265920,control_change,0,0,2,,,,,,,,,,,,,,,0,64,0,,
265920,note_on,120,0,2,,,,,,,,,,,,,,,0,,,58,0
265920,note_on,0,0,2,,,,,,,,,,,,,,,0,,,56,55
265920,note_on,0,0,1,,,,,,,,,,,,,,,0,,,72,68
265920,note_on,120,0,1,,,,,,,,,,,,,,,0,,,73,0
265920,set_tempo,720,1,0,,,,,,,,,,,,380373,,,,,,,
266040,note_on,0,0,2,,,,,,,,,,,,,,,0,,,58,55
266040,note_on,120,0,2,,,,,,,,,,,,,,,0,,,56,0
266040,note_on,120,0,1,,,,,,,,,,,,,,,0,,,72,0
266040,note_on,0,0,1,,,,,,,,,,,,,,,0,,,73,68
266080,set_tempo,160,1,0,,,,,,,,,,,,381631,,,,,,,
266160,note_on,120,0,1,,,,,,,,,,,,,,,0,,,73,0
266160,note_on,0,0,1,,,,,,,,,,,,,,,0,,,72,68
266160,note_on,0,0,2,,,,,,,,,,,,,,,0,,,56,53
266160,note_on,120,0,2,,,,,,,,,,,,,,,0,,,58,0
266200,set_tempo,120,1,0,,,,,,,,,,,,382897,,,,,,,
266280,note_on,0,0,2,,,,,,,,,,,,,,,0,,,58,52
266280,note_on,120,0,1,,,,,,,,,,,,,,,0,,,72,0
266280,note_on,0,0,1,,,,,,,,,,,,,,,0,,,73,67
266280,note_on,120,0,2,,,,,,,,,,,,,,,0,,,56,0
266320,set_tempo,120,1,0,,,,,,,,,,,,384172,,,,,,,
266400,note_on,0,0,2,,,,,,,,,,,,,,,0,,,60,50
266400,note_on,120,0,1,,,,,,,,,,,,,,,0,,,73,0
266400,note_on,0,0,1,,,,,,,,,,,,,,,0,,,75,66
266400,note_on,120,0,2,,,,,,,,,,,,,,,0,,,58,0
266480,set_tempo,160,1,0,,,,,,,,,,,,385455,,,,,,,
266520,note_on,120,0,1,,,,,,,,,,,,,,,0,,,75,0
266520,note_on,120,0,2,,,,,,,,,,,,,,,0,,,60,0
266520,note_on,0,0,2,,,,,,,,,,,,,,,0,,,61,49
266520,note_on,0,0,1,,,,,,,,,,,,,,,0,,,77,66
266600,set_tempo,120,1,0,,,,,,,,,,,,386747,,,,,,,
266640,set_tempo,40,1,0,,,,,,,,,,,,425291,,,,,,,
266640,note_on,120,0,2,,,,,,,,,,,,,,,0,,,61,0
266640,note_on,0,0,2,,,,,,,,,,,,,,,0,,,63,48
266640,note_on,0,0,1,,,,,,,,,,,,,,,0,,,78,65
266640,note_on,120,0,1,,,,,,,,,,,,,,,0,,,77,0
266760,set_tempo,120,1,0,,,,,,,,,,,,597193,,,,,,,
266760,note_on,120,0,2,,,,,,,,,,,,,,,0,,,63,0
266760,note_on,0,0,2,,,,,,,,,,,,,,,0,,,65,47
266760,note_on,0,0,1,,,,,,,,,,,,,,,0,,,80,65
266760,note_on,120,0,1,,,,,,,,,,,,,,,0,,,78,0
266880,control_change,0,0,2,,,,,,,,,,,,,,,0,64,0,,
266880,note_on,0,0,1,,,,,,,,,,,,,,,0,,,78,68
266880,note_on,0,0,1,,,,,,,,,,,,,,,0,,,81,80
266880,control_change,0,0,1,,,,,,,,,,,,,,,0,91,127,,
266880,text,0,1,1,,,,,,,,,,,,,,,,,,,
266880,note_on,0,0,1,,,,,,,,,,,,,,,0,,,73,68
266880,note_on,0,0,1,,,,,,,,,,,,,,,0,,,69,68
266880,set_tempo,120,1,0,,,,,,,,,,,,396040,,,,,,,
266880,note_on,0,0,2,,,,,,,,,,,,,,,0,,,66,66
266880,note_on,0,0,2,,,,,,,,,,,,,,,0,,,61,55
266880,note_on,0,0,2,,,,,,,,,,,,,,,0,,,57,55
266880,note_on,0,0,2,,,,,,,,,,,,,,,0,,,54,55
266880,note_on,120,0,2,,,,,,,,,,,,,,,0,,,65,0
266880,note_on,120,0,1,,,,,,,,,,,,,,,0,,,80,0
267360,note_on,0,0,1,,,,,,,,,,,,,,,0,,,78,63
267360,note_on,0,0,1,,,,,,,,,,,,,,,0,,,81,74
267360,note_on,0,0,1,,,,,,,,,,,,,,,0,,,73,63
267360,note_on,0,0,2,,,,,,,,,,,,,,,0,,,54,0
267360,note_on,0,0,1,,,,,,,,,,,,,,,0,,,78,0
267360,note_on,0,0,2,,,,,,,,,,,,,,,0,,,61,0
267360,note_on,0,0,2,,,,,,,,,,,,,,,0,,,57,0
267360,note_on,0,0,1,,,,,,,,,,,,,,,0,,,69,63
267360,note_on,480,0,2,,,,,,,,,,,,,,,0,,,66,0
267360,note_on,0,0,2,,,,,,,,,,,,,,,0,,,61,38
267360,note_on,0,0,2,,,,,,,,,,,,,,,0,,,66,55
267360,note_on,0,0,2,,,,,,,,,,,,,,,0,,,54,38
267360,note_on,0,0,2,,,,,,,,,,,,,,,0,,,57,38
267360,set_tempo,480,1,0,,,,,,,,,,,,386349,,,,,,,
267360,note_on,480,0,1,,,,,,,,,,,,,,,0,,,81,0
267360,note_on,0,0,1,,,,,,,,,,,,,,,0,,,69,0
267360,note_on,0,0,1,,,,,,,,,,,,,,,0,,,73,0
267480,note_on,0,0,1,,,,,,,,,,,,,,,0,,,73,0
267480,note_on,0,0,1,,,,,,,,,,,,,,,0,,,78,0
267480,note_on,0,0,1,,,,,,,,,,,,,,,0,,,69,0
267480,note_on,120,0,2,,,,,,,,,,,,,,,0,,,66,0
267480,note_on,0,0,2,,,,,,,,,,,,,,,0,,,61,0
267480,note_on,0,0,2,,,,,,,,,,,,,,,0,,,57,0
267480,note_on,120,0,1,,,,,,,,,,,,,,,0,,,81,0
267480,note_on,0,0,2,,,,,,,,,,,,,,,0,,,54,0
267600,note_on,0,0,2,,,,,,,,,,,,,,,0,,,57,46
267600,note_on,0,0,2,,,,,,,,,,,,,,,0,,,61,46
267600,note_on,0,0,2,,,,,,,,,,,,,,,0,,,66,54
267600,note_on,120,0,2,,,,,,,,,,,,,,,0,,,54,46
267600,note_on,0,0,1,,,,,,,,,,,,,,,0,,,81,74
267600,note_on,120,0,1,,,,,,,,,,,,,,,0,,,69,63
267600,note_on,0,0,1,,,,,,,,,,,,,,,0,,,78,63
267600,note_on,0,0,1,,,,,,,,,,,,,,,0,,,73,63
267720,note_on,120,0,2,,,,,,,,,,,,,,,0,,,66,0
267720,note_on,120,0,1,,,,,,,,,,,,,,,0,,,81,0
267720,note_on,0,0,1,,,,,,,,,,,,,,,0,,,69,0
267720,note_on,0,0,1,,,,,,,,,,,,,,,0,,,78,0
267720,note_on,0,0,1,,,,,,,,,,,,,,,0,,,73,0
267720,note_on,0,0,2,,,,,,,,,,,,,,,0,,,57,0
267720,note_on,0,0,2,,,,,,,,,,,,,,,0,,,61,0
267720,note_on,0,0,2,,,,,,,,,,,,,,,0,,,54,0
267840,note_on,120,0,2,,,,,,,,,,,,,,,0,,,50,51
267840,note_on,0,0,2,,,,,,,,,,,,,,,0,,,54,51
267840,note_on,0,0,2,,,,,,,,,,,,,,,0,,,57,51
267840,note_on,0,0,1,,,,,,,,,,,,,,,0,,,86,81
267840,set_tempo,480,1,0,,,,,,,,,,,,396040,,,,,,,
267840,note_on,0,0,1,,,,,,,,,,,,,,,0,,,78,69
267840,note_on,120,0,1,,,,,,,,,,,,,,,0,,,74,69
267840,note_on,0,0,2,,,,,,,,,,,,,,,0,,,62,60
267840,note_on,0,0,1,,,,,,,,,,,,,,,0,,,81,69
268320,note_on,0,0,2,,,,,,,,,,,,,,,0,,,57,0
268320,note_on,0,0,1,,,,,,,,,,,,,,,0,,,86,76
268320,note_on,480,0,2,,,,,,,,,,,,,,,0,,,62,0
268320,set_tempo,480,1,0,,,,,,,,,,,,386349,,,,,,,
268320,note_on,0,0,2,,,,,,,,,,,,,,,0,,,54,0
268320,note_on,0,0,2,,,,,,,,,,,,,,,0,,,50,47
268320,note_on,0,0,2,,,,,,,,,,,,,,,0,,,57,47
268320,note_on,0,0,2,,,,,,,,,,,,,,,0,,,62,56
268320,note_on,0,0,2,,,,,,,,,,,,,,,0,,,50,0
268320,note_on,0,0,1,,,,,,,,,,,,,,,0,,,81,65
268320,note_on,0,0,1,,,,,,,,,,,,,,,0,,,78,65
268320,note_on,0,0,1,,,,,,,,,,,,,,,0,,,74,65
268320,note_on,0,0,1,,,,,,,,,,,,,,,0,,,81,0
268320,note_on,0,0,1,,,,,,,,,,,,,,,0,,,78,0
268320,note_on,0,0,1,,,,,,,,,,,,,,,0,,,74,0
268320,note_on,480,0,1,,,,,,,,,,,,,,,0,,,86,0
268320,note_on,0,0,2,,,,,,,,,,,,,,,0,,,54,47
268440,note_on,120,0,2,,,,,,,,,,,,,,,0,,,62,0
268440,note_on,0,0,2,,,,,,,,,,,,,,,0,,,50,0
268440,note_on,0,0,1,,,,,,,,,,,,,,,0,,,81,0
268440,note_on,0,0,2,,,,,,,,,,,,,,,0,,,57,0
268440,note_on,0,0,1,,,,,,,,,,,,,,,0,,,78,0
268440,note_on,0,0,1,,,,,,,,,,,,,,,0,,,74,0
268440,note_on,120,0,1,,,,,,,,,,,,,,,0,,,86,0
268440,note_on,0,0,2,,,,,,,,,,,,,,,0,,,54,0
268560,note_on,0,0,2,,,,,,,,,,,,,,,0,,,54,48
268560,note_on,0,0,2,,,,,,,,,,,,,,,0,,,62,57
268560,note_on,0,0,2,,,,,,,,,,,,,,,0,,,57,48
268560,note_on,120,0,2,,,,,,,,,,,,,,,0,,,50,48
268560,note_on,120,0,1,,,,,,,,,,,,,,,0,,,74,65
268560,note_on,0,0,1,,,,,,,,,,,,,,,0,,,78,65
268560,note_on,0,0,1,,,,,,,,,,,,,,,0,,,81,65
268560,note_on,0,0,1,,,,,,,,,,,,,,,0,,,86,77
268680,note_on,0,0,2,,,,,,,,,,,,,,,0,,,57,0
268680,note_on,0,0,2,,,,,,,,,,,,,,,0,,,54,0
268680,note_on,0,0,2,,,,,,,,,,,,,,,0,,,50,0
268680,note_on,120,0,2,,,,,,,,,,,,,,,0,,,62,0
268680,note_on,120,0,1,,,,,,,,,,,,,,,0,,,86,0
268680,note_on,0,0,1,,,,,,,,,,,,,,,0,,,78,0
268680,note_on,0,0,1,,,,,,,,,,,,,,,0,,,81,0
268680,note_on,0,0,1,,,,,,,,,,,,,,,0,,,74,0
268800,note_on,0,0,1,,,,,,,,,,,,,,,0,,,79,58
268800,note_on,120,0,2,,,,,,,,,,,,,,,0,,,52,54
268800,set_tempo,480,1,0,,,,,,,,,,,,396040,,,,,,,
268800,text,0,1,1,,,,,,,,,,,,,,,,,,,
268800,note_on,0,0,2,,,,,,,,,,,,,,,0,,,64,65
268800,note_on,120,0,1,,,,,,,,,,,,,,,0,,,71,58
268800,control_change,0,0,2,,,,,,,,,,,,,,,0,64,0,,
268800,control_change,0,0,1,,,,,,,,,,,,,,,0,91,127,,
268800,note_on,0,0,2,,,,,,,,,,,,,,,0,,,55,54
268800,note_on,0,0,1,,,,,,,,,,,,,,,0,,,83,82
268800,note_on,0,0,2,,,,,,,,,,,,,,,0,,,59,54
269280,note_on,0,0,2,,,,,,,,,,,,,,,0,,,60,56
269280,note_on,0,0,2,,,,,,,,,,,,,,,0,,,52,0
269280,note_on,0,0,2,,,,,,,,,,,,,,,0,,,55,0
269280,note_on,0,0,2,,,,,,,,,,,,,,,0,,,59,0
269280,note_on,0,0,2,,,,,,,,,,,,,,,0,,,48,47
269280,set_tempo,480,1,0,,,,,,,,,,,,386349,,,,,,,
269280,note_on,480,0,2,,,,,,,,,,,,,,,0,,,64,0
269280,note_on,0,0,2,,,,,,,,,,,,,,,0,,,57,47
269280,note_on,480,0,1,,,,,,,,,,,,,,,0,,,83,0
269280,note_on,0,0,1,,,,,,,,,,,,,,,0,,,79,0
269280,note_on,0,0,1,,,,,,,,,,,,,,,0,,,71,0
269280,note_on,0,0,1,,,,,,,,,,,,,,,0,,,72,64
269280,note_on,0,0,1,,,,,,,,,,,,,,,0,,,76,64
269280,note_on,0,0,1,,,,,,,,,,,,,,,0,,,81,64
269280,note_on,0,0,1,,,,,,,,,,,,,,,0,,,84,75
269280,note_on,0,0,2,,,,,,,,,,,,,,,0,,,52,47
269760,note_on,0,0,2,,,,,,,,,,,,,,,0,,,57,53
269760,note_on,0,0,2,,,,,,,,,,,,,,,0,,,50,53
269760,note_on,0,0,2,,,,,,,,,,,,,,,0,,,57,0
269760,note_on,0,0,2,,,,,,,,,,,,,,,0,,,52,0
269760,note_on,0,0,2,,,,,,,,,,,,,,,0,,,48,0
269760,note_on,0,0,2,,,,,,,,,,,,,,,0,,,62,63
269760,note_on,480,0,2,,,,,,,,,,,,,,,0,,,60,0
269760,set_tempo,480,1,0,,,,,,,,,,,,396040,,,,,,,
269760,note_on,480,0,1,,,,,,,,,,,,,,,0,,,84,0
269760,note_on,0,0,1,,,,,,,,,,,,,,,0,,,72,0
269760,note_on,0,0,1,,,,,,,,,,,,,,,0,,,76,0
269760,note_on,0,0,1,,,,,,,,,,,,,,,0,,,81,0
269760,note_on,0,0,1,,,,,,,,,,,,,,,0,,,69,68
269760,note_on,0,0,1,,,,,,,,,,,,,,,0,,,74,68
269760,note_on,0,0,1,,,,,,,,,,,,,,,0,,,79,68
269760,note_on,0,0,1,,,,,,,,,,,,,,,0,,,81,80
270240,set_tempo,480,1,0,,,,,,,,,,,,392157,,,,,,,
270240,note_on,480,0,2,,,,,,,,,,,,,,,0,,,62,0
270240,note_on,0,0,2,,,,,,,,,,,,,,,0,,,57,0
270240,note_on,0,0,2,,,,,,,,,,,,,,,0,,,50,0
270240,note_on,0,0,2,,,,,,,,,,,,,,,0,,,38,51
270240,note_on,0,0,2,,,,,,,,,,,,,,,0,,,50,61
270240,note_on,0,0,1,,,,,,,,,,,,,,,0,,,86,82
270240,note_on,0,0,1,,,,,,,,,,,,,,,0,,,78,70
270240,note_on,0,0,1,,,,,,,,,,,,,,,0,,,74,70
270240,note_on,0,0,1,,,,,,,,,,,,,,,0,,,79,0
270240,note_on,0,0,1,,,,,,,,,,,,,,,0,,,74,0
270240,note_on,0,0,1,,,,,,,,,,,,,,,0,,,69,0
270240,note_on,480,0,1,,,,,,,,,,,,,,,0,,,81,0
270240,note_on,0,0,1,,,,,,,,,,,,,,,0,,,81,70
270720,control_change,0,0,2,,,,,,,,,,,,,,,0,64,0,,
270720,note_on,0,0,2,,,,,,,,,,,,,,,0,,,52,61
270720,note_on,0,0,2,,,,,,,,,,,,,,,0,,,40,52
270720,note_on,0,0,2,,,,,,,,,,,,,,,0,,,38,0
270720,note_on,480,0,2,,,,,,,,,,,,,,,0,,,50,0
270720,text,0,1,1,,,,,,,,,,,,,,,,,,,
270720,control_change,0,0,1,,,,,,,,,,,,,,,0,91,127,,
270720,note_on,0,0,1,,,,,,,,,,,,,,,0,,,83,81
270720,note_on,0,0,1,,,,,,,,,,,,,,,0,,,79,69
270720,note_on,0,0,1,,,,,,,,,,,,,,,0,,,71,69
270720,note_on,0,0,1,,,,,,,,,,,,,,,0,,,74,0
270720,set_tempo,480,1,0,,,,,,,,,,,,409556,,,,,,,
270720,note_on,0,0,1,,,,,,,,,,,,,,,0,,,81,0
270720,note_on,480,0,1,,,,,,,,,,,,,,,0,,,86,0
270720,note_on,0,0,1,,,,,,,,,,,,,,,0,,,78,0
271200,note_on,480,0,2,,,,,,,,,,,,,,,0,,,52,0
271200,note_on,0,0,2,,,,,,,,,,,,,,,0,,,60,55
271200,set_tempo,480,1,0,,,,,,,,,,,,396040,,,,,,,
271200,note_on,0,0,2,,,,,,,,,,,,,,,0,,,57,47
271200,note_on,0,0,2,,,,,,,,,,,,,,,0,,,40,0
271200,note_on,480,0,1,,,,,,,,,,,,,,,0,,,83,0
271200,note_on,0,0,1,,,,,,,,,,,,,,,0,,,79,0
271200,note_on,0,0,1,,,,,,,,,,,,,,,0,,,81,77
271200,note_on,0,0,2,,,,,,,,,,,,,,,0,,,52,47
271200,note_on,0,0,1,,,,,,,,,,,,,,,0,,,72,65
271200,note_on,0,0,1,,,,,,,,,,,,,,,0,,,71,0
271200,note_on,0,0,2,,,,,,,,,,,,,,,0,,,48,47
271200,note_on,0,0,1,,,,,,,,,,,,,,,0,,,84,77
271200,note_on,0,0,1,,,,,,,,,,,,,,,0,,,76,65
271680,note_on,0,0,2,,,,,,,,,,,,,,,0,,,57,0
271680,note_on,0,0,1,,,,,,,,,,,,,,,0,,,72,0
271680,note_on,480,0,2,,,,,,,,,,,,,,,0,,,60,0
271680,note_on,480,0,1,,,,,,,,,,,,,,,0,,,84,0
271680,note_on,0,0,2,,,,,,,,,,,,,,,0,,,50,54
271680,note_on,0,0,1,,,,,,,,,,,,,,,0,,,81,85
271680,note_on,0,0,1,,,,,,,,,,,,,,,0,,,79,72
271680,note_on,0,0,2,,,,,,,,,,,,,,,0,,,48,0
271680,note_on,0,0,1,,,,,,,,,,,,,,,0,,,69,72
271680,note_on,0,0,1,,,,,,,,,,,,,,,0,,,81,0
271680,note_on,0,0,1,,,,,,,,,,,,,,,0,,,74,72
271680,note_on,0,0,2,,,,,,,,,,,,,,,0,,,62,65
271680,note_on,0,0,2,,,,,,,,,,,,,,,0,,,57,54
271680,set_tempo,480,1,0,,,,,,,,,,,,410959,,,,,,,
271680,note_on,0,0,1,,,,,,,,,,,,,,,0,,,76,0
271680,note_on,0,0,2,,,,,,,,,,,,,,,0,,,52,0
272160,note_on,480,0,2,,,,,,,,,,,,,,,0,,,62,0
272160,note_on,0,0,2,,,,,,,,,,,,,,,0,,,57,0
272160,note_on,0,0,2,,,,,,,,,,,,,,,0,,,50,0
272160,note_on,0,0,2,,,,,,,,,,,,,,,0,,,38,57
272160,note_on,0,0,2,,,,,,,,,,,,,,,0,,,50,68
272160,note_on,0,0,1,,,,,,,,,,,,,,,0,,,74,75
272160,set_tempo,480,1,0,,,,,,,,,,,,421053,,,,,,,
272160,note_on,0,0,1,,,,,,,,,,,,,,,0,,,86,88
272160,note_on,0,0,1,,,,,,,,,,,,,,,0,,,81,75
272160,note_on,480,0,1,,,,,,,,,,,,,,,0,,,81,0
272160,note_on,0,0,1,,,,,,,,,,,,,,,0,,,69,0
272160,note_on,0,0,1,,,,,,,,,,,,,,,0,,,74,0
272160,note_on,0,0,1,,,,,,,,,,,,,,,0,,,79,0
272160,note_on,0,0,1,,,,,,,,,,,,,,,0,,,78,75
272640,note_on,0,0,2,,,,,,,,,,,,,,,0,,,38,0
272640,note_on,480,0,2,,,,,,,,,,,,,,,0,,,50,0
272640,note_on,0,0,2,,,,,,,,,,,,,,,0,,,43,61
272640,note_on,0,0,1,,,,,,,,,,,,,,,0,,,81,0
272640,set_tempo,480,1,0,,,,,,,,,,,,406780,,,,,,,
272640,note_on,480,0,1,,,,,,,,,,,,,,,0,,,86,0
272640,note_on,0,0,1,,,,,,,,,,,,,,,0,,,74,0
272640,note_on,0,0,1,,,,,,,,,,,,,,,0,,,79,88
272640,note_on,0,0,1,,,,,,,,,,,,,,,0,,,71,74
272640,note_on,0,0,1,,,,,,,,,,,,,,,0,,,67,74
272640,note_on,0,0,1,,,,,,,,,,,,,,,0,,,78,0
272674,control_change,34,0,2,,,,,,,,,,,,,,,0,64,127,,
272760,note_on,0,0,2,,,,,,,,,,,,,,,0,,,45,57
272760,note_on,86,0,2,,,,,,,,,,,,,,,0,,,43,0
272880,note_on,0,0,2,,,,,,,,,,,,,,,0,,,43,57
272880,note_on,120,0,2,,,,,,,,,,,,,,,0,,,45,0
273000,note_on,0,0,2,,,,,,,,,,,,,,,0,,,45,57
273000,note_on,120,0,2,,,,,,,,,,,,,,,0,,,43,0
273120,note_on,480,0,1,,,,,,,,,,,,,,,0,,,79,0
273120,note_on,120,0,2,,,,,,,,,,,,,,,0,,,45,0
273120,set_tempo,480,1,0,,,,,,,,,,,,396040,,,,,,,
273120,note_on,0,0,1,,,,,,,,,,,,,,,0,,,71,0
273120,note_on,0,0,1,,,,,,,,,,,,,,,0,,,67,0
273120,note_on,0,0,1,,,,,,,,,,,,,,,0,,,67,67
273120,note_on,0,0,1,,,,,,,,,,,,,,,0,,,71,67
273120,note_on,0,0,1,,,,,,,,,,,,,,,0,,,79,80
273120,note_on,0,0,2,,,,,,,,,,,,,,,0,,,47,61
273143,control_change,23,0,2,,,,,,,,,,,,,,,0,64,0,,
273240,note_on,0,0,1,,,,,,,,,,,,,,,0,,,67,0
273240,note_on,0,0,1,,,,,,,,,,,,,,,0,,,71,0
273240,note_on,120,0,1,,,,,,,,,,,,,,,0,,,79,0
273240,note_on,97,0,2,,,,,,,,,,,,,,,0,,,47,0
273240,note_on,0,0,2,,,,,,,,,,,,,,,0,,,48,57
273360,note_on,120,0,1,,,,,,,,,,,,,,,0,,,67,67
273360,note_on,0,0,1,,,,,,,,,,,,,,,0,,,71,67
273360,note_on,120,0,2,,,,,,,,,,,,,,,0,,,48,0
273360,note_on,0,0,1,,,,,,,,,,,,,,,0,,,79,80
273360,note_on,0,0,2,,,,,,,,,,,,,,,0,,,47,57
273480,note_on,0,0,1,,,,,,,,,,,,,,,0,,,71,0
273480,note_on,0,0,1,,,,,,,,,,,,,,,0,,,67,0
273480,note_on,120,0,1,,,,,,,,,,,,,,,0,,,79,0
273480,note_on,0,0,2,,,,,,,,,,,,,,,0,,,48,57
273480,note_on,120,0,2,,,,,,,,,,,,,,,0,,,47,0
273600,set_tempo,480,1,0,,,,,,,,,,,,404040,,,,,,,
273600,note_on,0,0,1,,,,,,,,,,,,,,,0,,,79,86
273600,note_on,120,0,2,,,,,,,,,,,,,,,0,,,48,0
273600,note_on,0,0,1,,,,,,,,,,,,,,,0,,,71,72
273600,note_on,120,0,1,,,,,,,,,,,,,,,0,,,67,72
273600,note_on,0,0,2,,,,,,,,,,,,,,,0,,,50,63
273691,control_change,91,0,2,,,,,,,,,,,,,,,0,64,127,,
273720,note_on,29,0,2,,,,,,,,,,,,,,,0,,,50,0
273720,note_on,0,0,2,,,,,,,,,,,,,,,0,,,51,57
273840,note_on,120,0,2,,,,,,,,,,,,,,,0,,,51,0
273840,note_on,0,0,2,,,,,,,,,,,,,,,0,,,50,57
273960,note_on,0,0,2,,,,,,,,,,,,,,,0,,,51,57
273960,note_on,120,0,2,,,,,,,,,,,,,,,0,,,50,0
274080,note_on,0,0,1,,,,,,,,,,,,,,,0,,,71,0
274080,note_on,480,0,1,,,,,,,,,,,,,,,0,,,79,0
274080,set_tempo,480,1,0,,,,,,,,,,,,394737,,,,,,,
274080,note_on,0,0,1,,,,,,,,,,,,,,,0,,,79,80
274080,note_on,0,0,1,,,,,,,,,,,,,,,0,,,67,67
274080,note_on,0,0,2,,,,,,,,,,,,,,,0,,,53,61
274080,note_on,120,0,2,,,,,,,,,,,,,,,0,,,51,0
274080,note_on,0,0,1,,,,,,,,,,,,,,,0,,,67,0
274080,note_on,0,0,1,,,,,,,,,,,,,,,0,,,71,67
274114,control_change,34,0,2,,,,,,,,,,,,,,,0,64,0,,
274200,note_on,0,0,1,,,,,,,,,,,,,,,0,,,71,0
274200,note_on,0,0,2,,,,,,,,,,,,,,,0,,,55,57
274200,note_on,0,0,1,,,,,,,,,,,,,,,0,,,67,0
274200,note_on,120,0,1,,,,,,,,,,,,,,,0,,,79,0
274200,note_on,86,0,2,,,,,,,,,,,,,,,0,,,53,0
274320,note_on,0,0,2,,,,,,,,,,,,,,,0,,,53,57
274320,note_on,0,0,1,,,,,,,,,,,,,,,0,,,79,80
274320,note_on,120,0,2,,,,,,,,,,,,,,,0,,,55,0
274320,note_on,0,0,1,,,,,,,,,,,,,,,0,,,71,67
274320,note_on,120,0,1,,,,,,,,,,,,,,,0,,,67,67
274440,note_on,0,0,1,,,,,,,,,,,,,,,0,,,67,0
274440,note_on,0,0,1,,,,,,,,,,,,,,,0,,,71,0
274440,note_on,120,0,2,,,,,,,,,,,,,,,0,,,53,0
274440,note_on,0,0,2,,,,,,,,,,,,,,,0,,,55,57
274440,note_on,120,0,1,,,,,,,,,,,,,,,0,,,79,0
274560,note_on,0,0,2,,,,,,,,,,,,,,,0,,,56,67
274560,note_on,0,0,2,,,,,,,,,,,,,,,0,,,44,67
274560,note_on,120,0,2,,,,,,,,,,,,,,,0,,,55,0
274560,note_on,120,0,1,,,,,,,,,,,,,,,0,,,67,73
274560,note_on,0,0,1,,,,,,,,,,,,,,,0,,,72,73
274560,note_on,0,0,1,,,,,,,,,,,,,,,0,,,79,87
274560,set_tempo,480,1,0,,,,,,,,,,,,408163,,,,,,,
274666,control_change,106,0,2,,,,,,,,,,,,,,,0,64,127,,
275040,set_tempo,480,1,0,,,,,,,,,,,,418118,,,,,,,
275040,note_on,0,0,1,,,,,,,,,,,,,,,0,,,72,0
275040,note_on,0,0,1,,,,,,,,,,,,,,,0,,,67,0
275040,note_on,0,0,1,,,,,,,,,,,,,,,0,,,65,67
275040,note_on,0,0,1,,,,,,,,,,,,,,,0,,,72,67
275040,note_on,0,0,1,,,,,,,,,,,,,,,0,,,77,80
275040,note_on,480,0,1,,,,,,,,,,,,,,,0,,,79,0
275520,set_tempo,480,1,0,,,,,,,,,,,,408163,,,,,,,
275520,note_on,0,0,2,,,,,,,,,,,,,,,0,,,32,66
275520,note_on,0,0,2,,,,,,,,,,,,,,,0,,,44,66
275520,note_on,0,0,2,,,,,,,,,,,,,,,0,,,44,0
275520,note_on,0,0,1,,,,,,,,,,,,,,,0,,,89,84
275520,note_on,854,0,2,,,,,,,,,,,,,,,0,,,56,0
275520,note_on,0,0,1,,,,,,,,,,,,,,,0,,,84,70
275520,note_on,0,0,1,,,,,,,,,,,,,,,0,,,65,0
275520,note_on,0,0,1,,,,,,,,,,,,,,,0,,,72,0
275520,note_on,0,0,1,,,,,,,,,,,,,,,0,,,77,70
275520,note_on,480,0,1,,,,,,,,,,,,,,,0,,,77,0
275534,control_change,14,0,2,,,,,,,,,,,,,,,0,64,0,,
275612,control_change,78,0,2,,,,,,,,,,,,,,,0,64,127,,
275760,note_on,240,0,1,,,,,,,,,,,,,,,0,,,89,0
275760,note_on,0,0,1,,,,,,,,,,,,,,,0,,,84,0
275760,note_on,0,0,1,,,,,,,,,,,,,,,0,,,77,0
275760,note_on,0,0,1,,,,,,,,,,,,,,,0,,,65,58
275760,note_on,0,0,1,,,,,,,,,,,,,,,0,,,72,58
275760,note_on,0,0,1,,,,,,,,,,,,,,,0,,,77,70
275760,set_tempo,240,1,0,,,,,,,,,,,,392157,,,,,,,
275880,note_on,0,0,1,,,,,,,,,,,,,,,0,,,72,58
275880,note_on,0,0,1,,,,,,,,,,,,,,,0,,,65,58
275880,note_on,0,0,1,,,,,,,,,,,,,,,0,,,65,0
275880,note_on,0,0,1,,,,,,,,,,,,,,,0,,,72,0
275880,note_on,120,0,1,,,,,,,,,,,,,,,0,,,77,0
275880,note_on,0,0,1,,,,,,,,,,,,,,,0,,,77,70
276000,set_tempo,240,1,0,,,,,,,,,,,,412371,,,,,,,
276000,note_on,120,0,1,,,,,,,,,,,,,,,0,,,77,0
276000,note_on,0,0,1,,,,,,,,,,,,,,,0,,,77,77
276000,note_on,0,0,1,,,,,,,,,,,,,,,0,,,72,65
276000,note_on,0,0,1,,,,,,,,,,,,,,,0,,,65,65
276000,note_on,0,0,1,,,,,,,,,,,,,,,0,,,65,0
276000,note_on,0,0,1,,,,,,,,,,,,,,,0,,,72,0
276240,note_on,0,0,1,,,,,,,,,,,,,,,0,,,72,64
276240,note_on,0,0,1,,,,,,,,,,,,,,,0,,,77,75
276240,note_on,0,0,1,,,,,,,,,,,,,,,0,,,65,0
276240,note_on,0,0,1,,,,,,,,,,,,,,,0,,,72,0
276240,note_on,0,0,1,,,,,,,,,,,,,,,0,,,65,64
276240,note_on,240,0,1,,,,,,,,,,,,,,,0,,,77,0
276480,set_tempo,480,1,0,,,,,,,,,,,,406780,,,,,,,
276480,control_change,0,0,2,,,,,,,,,,,,,,,0,64,0,,
276480,note_on,0,0,2,,,,,,,,,,,,,,,0,,,32,0
276480,note_on,868,0,2,,,,,,,,,,,,,,,0,,,44,0
276480,note_on,0,0,2,,,,,,,,,,,,,,,0,,,41,61
276480,note_on,240,0,1,,,,,,,,,,,,,,,0,,,77,0
276480,note_on,0,0,1,,,,,,,,,,,,,,,0,,,72,0
276480,note_on,0,0,1,,,,,,,,,,,,,,,0,,,77,88
276480,note_on,0,0,1,,,,,,,,,,,,,,,0,,,72,74
276480,note_on,0,0,1,,,,,,,,,,,,,,,0,,,68,74
276480,note_on,0,0,1,,,,,,,,,,,,,,,0,,,65,0
276560,control_change,80,0,2,,,,,,,,,,,,,,,0,64,127,,
276600,note_on,40,0,2,,,,,,,,,,,,,,,0,,,41,0
276600,note_on,0,0,2,,,,,,,,,,,,,,,0,,,43,57
276720,note_on,0,0,2,,,,,,,,,,,,,,,0,,,41,57
276720,note_on,120,0,2,,,,,,,,,,,,,,,0,,,43,0
276840,note_on,120,0,2,,,,,,,,,,,,,,,0,,,41,0
276840,note_on,0,0,2,,,,,,,,,,,,,,,0,,,43,57
276960,note_on,0,0,1,,,,,,,,,,,,,,,0,,,72,67
276960,note_on,120,0,2,,,,,,,,,,,,,,,0,,,43,0
276960,note_on,0,0,2,,,,,,,,,,,,,,,0,,,44,61
276960,set_tempo,480,1,0,,,,,,,,,,,,396040,,,,,,,
276960,note_on,480,0,1,,,,,,,,,,,,,,,0,,,77,0
276960,note_on,0,0,1,,,,,,,,,,,,,,,0,,,72,0
276960,note_on,0,0,1,,,,,,,,,,,,,,,0,,,68,0
276960,note_on,0,0,1,,,,,,,,,,,,,,,0,,,68,67
276960,note_on,0,0,1,,,,,,,,,,,,,,,0,,,77,80
276983,control_change,23,0,2,,,,,,,,,,,,,,,0,64,0,,
277080,note_on,97,0,2,,,,,,,,,,,,,,,0,,,44,0
277080,note_on,0,0,2,,,,,,,,,,,,,,,0,,,46,57
277080,note_on,0,0,1,,,,,,,,,,,,,,,0,,,72,0
277080,note_on,0,0,1,,,,,,,,,,,,,,,0,,,68,0
277080,note_on,120,0,1,,,,,,,,,,,,,,,0,,,77,0
277200,note_on,120,0,1,,,,,,,,,,,,,,,0,,,68,67
277200,note_on,0,0,1,,,,,,,,,,,,,,,0,,,77,80
277200,note_on,0,0,2,,,,,,,,,,,,,,,0,,,44,57
277200,note_on,0,0,1,,,,,,,,,,,,,,,0,,,72,67
277200,note_on,120,0,2,,,,,,,,,,,,,,,0,,,46,0
277320,note_on,120,0,1,,,,,,,,,,,,,,,0,,,77,0
277320,note_on,0,0,2,,,,,,,,,,,,,,,0,,,46,57
277320,note_on,0,0,1,,,,,,,,,,,,,,,0,,,72,0
277320,note_on,0,0,1,,,,,,,,,,,,,,,0,,,68,0
277320,note_on,120,0,2,,,,,,,,,,,,,,,0,,,44,0
277440,set_tempo,480,1,0,,,,,,,,,,,,404040,,,,,,,
277440,note_on,0,0,1,,,,,,,,,,,,,,,0,,,77,86
277440,note_on,0,0,1,,,,,,,,,,,,,,,0,,,72,72
277440,note_on,120,0,1,,,,,,,,,,,,,,,0,,,68,72
277440,note_on,0,0,2,,,,,,,,,,,,,,,0,,,48,63
277440,note_on,120,0,2,,,,,,,,,,,,,,,0,,,46,0
277531,control_change,91,0,2,,,,,,,,,,,,,,,0,64,127,,
277560,note_on,29,0,2,,,,,,,,,,,,,,,0,,,48,0
277560,note_on,0,0,2,,,,,,,,,,,,,,,0,,,50,57
277680,note_on,0,0,2,,,,,,,,,,,,,,,0,,,48,57
277680,note_on,120,0,2,,,,,,,,,,,,,,,0,,,50,0
277800,note_on,0,0,2,,,,,,,,,,,,,,,0,,,50,57
277800,note_on,120,0,2,,,,,,,,,,,,,,,0,,,48,0
277920,note_on,0,0,2,,,,,,,,,,,,,,,0,,,51,61
277920,set_tempo,480,1,0,,,,,,,,,,,,394737,,,,,,,
277920,note_on,0,0,1,,,,,,,,,,,,,,,0,,,68,0
277920,note_on,120,0,2,,,,,,,,,,,,,,,0,,,50,0
277920,note_on,0,0,1,,,,,,,,,,,,,,,0,,,72,0
277920,note_on,480,0,1,,,,,,,,,,,,,,,0,,,77,0
277920,note_on,0,0,1,,,,,,,,,,,,,,,0,,,68,67
277920,note_on,0,0,1,,,,,,,,,,,,,,,0,,,72,67
277920,note_on,0,0,1,,,,,,,,,,,,,,,0,,,77,80
277954,control_change,34,0,2,,,,,,,,,,,,,,,0,64,0,,
278040,note_on,120,0,1,,,,,,,,,,,,,,,0,,,77,0
278040,note_on,86,0,2,,,,,,,,,,,,,,,0,,,51,0
278040,note_on,0,0,2,,,,,,,,,,,,,,,0,,,53,57
278040,note_on,0,0,1,,,,,,,,,,,,,,,0,,,72,0
278040,note_on,0,0,1,,,,,,,,,,,,,,,0,,,68,0
278160,note_on,0,0,1,,,,,,,,,,,,,,,0,,,72,67
278160,note_on,120,0,1,,,,,,,,,,,,,,,0,,,68,67
278160,note_on,120,0,2,,,,,,,,,,,,,,,0,,,53,0
278160,note_on,0,0,2,,,,,,,,,,,,,,,0,,,51,57
278160,note_on,0,0,1,,,,,,,,,,,,,,,0,,,77,80
278280,note_on,0,0,1,,,,,,,,,,,,,,,0,,,68,0
278280,note_on,0,0,1,,,,,,,,,,,,,,,0,,,72,0
278280,note_on,120,0,1,,,,,,,,,,,,,,,0,,,77,0
278280,note_on,120,0,2,,,,,,,,,,,,,,,0,,,51,0
278280,note_on,0,0,2,,,,,,,,,,,,,,,0,,,53,57
278400,note_on,0,0,2,,,,,,,,,,,,,,,0,,,55,67
278400,note_on,0,0,1,,,,,,,,,,,,,,,0,,,70,73
278400,note_on,120,0,1,,,,,,,,,,,,,,,0,,,67,73
278400,note_on,0,0,1,,,,,,,,,,,,,,,0,,,77,87
278400,set_tempo,480,1,0,,,,,,,,,,,,408163,,,,,,,
278400,note_on,120,0,2,,,,,,,,,,,,,,,0,,,53,0
278400,note_on,0,0,2,,,,,,,,,,,,,,,0,,,43,67
278506,control_change,106,0,2,,,,,,,,,,,,,,,0,64,127,,
278880,note_on,480,0,1,,,,,,,,,,,,,,,0,,,77,0
278880,note_on,0,0,1,,,,,,,,,,,,,,,0,,,70,0
278880,note_on,0,0,1,,,,,,,,,,,,,,,0,,,67,0
278880,note_on,0,0,1,,,,,,,,,,,,,,,0,,,67,67
278880,note_on,0,0,1,,,,,,,,,,,,,,,0,,,70,67
278880,note_on,0,0,1,,,,,,,,,,,,,,,0,,,75,80
278880,set_tempo,480,1,0,,,,,,,,,,,,397351,,,,,,,
279360,set_tempo,480,1,0,,,,,,,,,,,,408163,,,,,,,
279360,note_on,0,0,1,,,,,,,,,,,,,,,0,,,82,73
279360,note_on,854,0,2,,,,,,,,,,,,,,,0,,,55,0
279360,note_on,0,0,1,,,,,,,,,,,,,,,0,,,67,0
279360,note_on,0,0,2,,,,,,,,,,,,,,,0,,,43,0
279360,note_on,0,0,2,,,,,,,,,,,,,,,0,,,31,66
279360,note_on,0,0,2,,,,,,,,,,,,,,,0,,,43,66
279360,note_on,480,0,1,,,,,,,,,,,,,,,0,,,75,0
279360,note_on,0,0,1,,,,,,,,,,,,,,,0,,,70,0
279360,note_on,0,0,1,,,,,,,,,,,,,,,0,,,75,73
279360,note_on,0,0,1,,,,,,,,,,,,,,,0,,,87,88
279370,control_change,10,0,2,,,,,,,,,,,,,,,0,64,0,,
279452,control_change,82,0,2,,,,,,,,,,,,,,,0,64,127,,
279600,note_on,0,0,1,,,,,,,,,,,,,,,0,,,75,70
279600,note_on,0,0,1,,,,,,,,,,,,,,,0,,,70,58
279600,note_on,0,0,1,,,,,,,,,,,,,,,0,,,63,58
279600,note_on,0,0,1,,,,,,,,,,,,,,,0,,,75,0
279600,note_on,0,0,1,,,,,,,,,,,,,,,0,,,82,0
279600,set_tempo,240,1,0,,,,,,,,,,,,392157,,,,,,,
279600,note_on,240,0,1,,,,,,,,,,,,,,,0,,,87,0
279720,note_on,0,0,1,,,,,,,,,,,,,,,0,,,70,0
279720,note_on,0,0,1,,,,,,,,,,,,,,,0,,,63,0
279720,note_on,0,0,1,,,,,,,,,,,,,,,0,,,63,58
279720,note_on,0,0,1,,,,,,,,,,,,,,,0,,,75,70
279720,note_on,120,0,1,,,,,,,,,,,,,,,0,,,75,0
279720,note_on,0,0,1,,,,,,,,,,,,,,,0,,,70,58
279840,set_tempo,240,1,0,,,,,,,,,,,,412371,,,,,,,
279840,note_on,0,0,1,,,,,,,,,,,,,,,0,,,75,77
279840,note_on,0,0,1,,,,,,,,,,,,,,,0,,,70,65
279840,note_on,0,0,1,,,,,,,,,,,,,,,0,,,63,65
279840,note_on,0,0,1,,,,,,,,,,,,,,,0,,,63,0
279840,note_on,0,0,1,,,,,,,,,,,,,,,0,,,70,0
279840,note_on,120,0,1,,,,,,,,,,,,,,,0,,,75,0
280080,note_on,0,0,1,,,,,,,,,,,,,,,0,,,63,64
280080,note_on,0,0,1,,,,,,,,,,,,,,,0,,,63,0
280080,note_on,0,0,1,,,,,,,,,,,,,,,0,,,70,0
280080,note_on,240,0,1,,,,,,,,,,,,,,,0,,,75,0
280080,note_on,0,0,1,,,,,,,,,,,,,,,0,,,75,75
280080,note_on,0,0,1,,,,,,,,,,,,,,,0,,,70,64
280320,set_tempo,480,1,0,,,,,,,,,,,,406780,,,,,,,
280320,note_on,240,0,1,,,,,,,,,,,,,,,0,,,75,0
280320,control_change,0,0,2,,,,,,,,,,,,,,,0,64,0,,
280320,note_on,0,0,2,,,,,,,,,,,,,,,0,,,39,61
280320,note_on,0,0,2,,,,,,,,,,,,,,,0,,,31,0
280320,note_on,0,0,1,,,,,,,,,,,,,,,0,,,75,88
280320,note_on,0,0,1,,,,,,,,,,,,,,,0,,,70,74
280320,note_on,0,0,1,,,,,,,,,,,,,,,0,,,67,74
280320,note_on,868,0,2,,,,,,,,,,,,,,,0,,,43,0
280320,note_on,0,0,1,,,,,,,,,,,,,,,0,,,70,0
280320,note_on,0,0,1,,,,,,,,,,,,,,,0,,,63,0
280400,control_change,80,0,2,,,,,,,,,,,,,,,0,64,127,,
280440,note_on,0,0,2,,,,,,,,,,,,,,,0,,,41,57
280440,note_on,40,0,2,,,,,,,,,,,,,,,0,,,39,0
280560,note_on,0,0,2,,,,,,,,,,,,,,,0,,,39,57
280560,note_on,120,0,2,,,,,,,,,,,,,,,0,,,41,0
280680,note_on,120,0,2,,,,,,,,,,,,,,,0,,,39,0
280680,note_on,0,0,2,,,,,,,,,,,,,,,0,,,41,57
280800,set_tempo,480,1,0,,,,,,,,,,,,396040,,,,,,,
280800,note_on,120,0,2,,,,,,,,,,,,,,,0,,,41,0
280800,note_on,0,0,1,,,,,,,,,,,,,,,0,,,70,67
280800,note_on,0,0,1,,,,,,,,,,,,,,,0,,,67,67
280800,note_on,0,0,1,,,,,,,,,,,,,,,0,,,67,0
280800,note_on,0,0,1,,,,,,,,,,,,,,,0,,,70,0
280800,note_on,480,0,1,,,,,,,,,,,,,,,0,,,75,0
280800,note_on,0,0,2,,,,,,,,,,,,,,,0,,,43,61
280800,note_on,0,0,1,,,,,,,,,,,,,,,0,,,75,80
280823,control_change,23,0,2,,,,,,,,,,,,,,,0,64,0,,
280920,note_on,0,0,2,,,,,,,,,,,,,,,0,,,44,57
280920,note_on,97,0,2,,,,,,,,,,,,,,,0,,,43,0
280920,note_on,0,0,1,,,,,,,,,,,,,,,0,,,67,0
280920,note_on,0,0,1,,,,,,,,,,,,,,,0,,,70,0
280920,note_on,120,0,1,,,,,,,,,,,,,,,0,,,75,0
281040,note_on,0,0,2,,,,,,,,,,,,,,,0,,,43,57
281040,note_on,0,0,1,,,,,,,,,,,,,,,0,,,75,80
281040,note_on,120,0,2,,,,,,,,,,,,,,,0,,,44,0
281040,note_on,0,0,1,,,,,,,,,,,,,,,0,,,70,67
281040,note_on,120,0,1,,,,,,,,,,,,,,,0,,,67,67
281160,note_on,0,0,2,,,,,,,,,,,,,,,0,,,44,57
281160,note_on,120,0,2,,,,,,,,,,,,,,,0,,,43,0
281160,note_on,0,0,1,,,,,,,,,,,,,,,0,,,70,0
281160,note_on,120,0,1,,,,,,,,,,,,,,,0,,,75,0
281160,note_on,0,0,1,,,,,,,,,,,,,,,0,,,67,0
281280,note_on,0,0,2,,,,,,,,,,,,,,,0,,,46,63
281280,note_on,120,0,2,,,,,,,,,,,,,,,0,,,44,0
281280,note_on,0,0,1,,,,,,,,,,,,,,,0,,,70,72
281280,note_on,120,0,1,,,,,,,,,,,,,,,0,,,67,72
281280,note_on,0,0,1,,,,,,,,,,,,,,,0,,,75,86
281280,set_tempo,480,1,0,,,,,,,,,,,,404040,,,,,,,
281371,control_change,91,0,2,,,,,,,,,,,,,,,0,64,127,,
281400,note_on,29,0,2,,,,,,,,,,,,,,,0,,,46,0
281400,note_on,0,0,2,,,,,,,,,,,,,,,0,,,48,57
281520,note_on,120,0,2,,,,,,,,,,,,,,,0,,,48,0
281520,note_on,0,0,2,,,,,,,,,,,,,,,0,,,46,57
281640,note_on,120,0,2,,,,,,,,,,,,,,,0,,,46,0
281640,note_on,0,0,2,,,,,,,,,,,,,,,0,,,48,57
281760,note_on,0,0,1,,,,,,,,,,,,,,,0,,,70,67
281760,note_on,120,0,2,,,,,,,,,,,,,,,0,,,48,0
281760,note_on,0,0,1,,,,,,,,,,,,,,,0,,,70,0
281760,note_on,480,0,1,,,,,,,,,,,,,,,0,,,75,0
281760,note_on,0,0,2,,,,,,,,,,,,,,,0,,,50,61
281760,note_on,0,0,1,,,,,,,,,,,,,,,0,,,75,80
281760,note_on,0,0,1,,,,,,,,,,,,,,,0,,,67,67
281760,set_tempo,480,1,0,,,,,,,,,,,,394737,,,,,,,
281760,note_on,0,0,1,,,,,,,,,,,,,,,0,,,67,0
281794,control_change,34,0,2,,,,,,,,,,,,,,,0,64,0,,
281880,note_on,0,0,1,,,,,,,,,,,,,,,0,,,67,0
281880,note_on,0,0,1,,,,,,,,,,,,,,,0,,,70,0
281880,note_on,120,0,1,,,,,,,,,,,,,,,0,,,75,0
281880,note_on,86,0,2,,,,,,,,,,,,,,,0,,,50,0
281880,note_on,0,0,2,,,,,,,,,,,,,,,0,,,51,57
282000,note_on,0,0,2,,,,,,,,,,,,,,,0,,,50,57
282000,note_on,120,0,1,,,,,,,,,,,,,,,0,,,67,67
282000,note_on,0,0,1,,,,,,,,,,,,,,,0,,,70,67
282000,note_on,0,0,1,,,,,,,,,,,,,,,0,,,75,80
282000,note_on,120,0,2,,,,,,,,,,,,,,,0,,,51,0
282120,note_on,0,0,1,,,,,,,,,,,,,,,0,,,70,0
282120,note_on,0,0,2,,,,,,,,,,,,,,,0,,,51,57
282120,note_on,120,0,2,,,,,,,,,,,,,,,0,,,50,0
282120,note_on,120,0,1,,,,,,,,,,,,,,,0,,,75,0
282120,note_on,0,0,1,,,,,,,,,,,,,,,0,,,67,0
282240,note_on,0,0,1,,,,,,,,,,,,,,,0,,,75,87
282240,note_on,0,0,1,,,,,,,,,,,,,,,0,,,68,73
282240,note_on,120,0,1,,,,,,,,,,,,,,,0,,,65,73
282240,note_on,0,0,2,,,,,,,,,,,,,,,0,,,53,67
282240,set_tempo,480,1,0,,,,,,,,,,,,408163,,,,,,,
282240,note_on,120,0,2,,,,,,,,,,,,,,,0,,,51,0
282240,note_on,0,0,2,,,,,,,,,,,,,,,0,,,41,67
282346,control_change,106,0,2,,,,,,,,,,,,,,,0,64,127,,
282720,note_on,480,0,1,,,,,,,,,,,,,,,0,,,75,0
282720,note_on,0,0,1,,,,,,,,,,,,,,,0,,,68,0
282720,note_on,0,0,1,,,,,,,,,,,,,,,0,,,65,0
282720,note_on,0,0,1,,,,,,,,,,,,,,,0,,,65,67
282720,note_on,0,0,1,,,,,,,,,,,,,,,0,,,68,67
282720,note_on,0,0,1,,,,,,,,,,,,,,,0,,,73,80
282720,set_tempo,480,1,0,,,,,,,,,,,,418118,,,,,,,
283200,note_on,480,0,1,,,,,,,,,,,,,,,0,,,73,0
283200,note_on,0,0,1,,,,,,,,,,,,,,,0,,,85,88
283200,note_on,0,0,1,,,,,,,,,,,,,,,0,,,80,73
283200,note_on,0,0,1,,,,,,,,,,,,,,,0,,,73,73
283200,note_on,0,0,1,,,,,,,,,,,,,,,0,,,68,0
283200,note_on,854,0,2,,,,,,,,,,,,,,,0,,,53,0
283200,note_on,0,0,2,,,,,,,,,,,,,,,0,,,41,0
283200,set_tempo,480,1,0,,,,,,,,,,,,408163,,,,,,,
283200,note_on,0,0,1,,,,,,,,,,,,,,,0,,,65,0
283200,note_on,0,0,2,,,,,,,,,,,,,,,0,,,41,66
283200,note_on,0,0,2,,,,,,,,,,,,,,,0,,,29,66
283211,control_change,11,0,2,,,,,,,,,,,,,,,0,64,0,,
283292,control_change,81,0,2,,,,,,,,,,,,,,,0,64,127,,
283440,note_on,0,0,1,,,,,,,,,,,,,,,0,,,61,58
283440,note_on,0,0,1,,,,,,,,,,,,,,,0,,,73,0
283440,note_on,0,0,1,,,,,,,,,,,,,,,0,,,80,0
283440,note_on,240,0,1,,,,,,,,,,,,,,,0,,,85,0
283440,set_tempo,240,1,0,,,,,,,,,,,,392157,,,,,,,
283440,note_on,0,0,1,,,,,,,,,,,,,,,0,,,68,58
283440,note_on,0,0,1,,,,,,,,,,,,,,,0,,,73,70
283560,note_on,120,0,1,,,,,,,,,,,,,,,0,,,73,0
283560,note_on,0,0,1,,,,,,,,,,,,,,,0,,,73,70
283560,note_on,0,0,1,,,,,,,,,,,,,,,0,,,68,58
283560,note_on,0,0,1,,,,,,,,,,,,,,,0,,,61,58
283560,note_on,0,0,1,,,,,,,,,,,,,,,0,,,61,0
283560,note_on,0,0,1,,,,,,,,,,,,,,,0,,,68,0
283680,set_tempo,240,1,0,,,,,,,,,,,,412371,,,,,,,
283680,note_on,0,0,1,,,,,,,,,,,,,,,0,,,73,77
283680,note_on,120,0,1,,,,,,,,,,,,,,,0,,,73,0
283680,note_on,0,0,1,,,,,,,,,,,,,,,0,,,68,0
283680,note_on,0,0,1,,,,,,,,,,,,,,,0,,,61,0
283680,note_on,0,0,1,,,,,,,,,,,,,,,0,,,61,65
283680,note_on,0,0,1,,,,,,,,,,,,,,,0,,,68,65
283920,note_on,0,0,1,,,,,,,,,,,,,,,0,,,68,64
283920,note_on,0,0,1,,,,,,,,,,,,,,,0,,,61,64
283920,note_on,0,0,1,,,,,,,,,,,,,,,0,,,61,0
283920,note_on,0,0,1,,,,,,,,,,,,,,,0,,,68,0
283920,note_on,240,0,1,,,,,,,,,,,,,,,0,,,73,0
283920,note_on,0,0,1,,,,,,,,,,,,,,,0,,,73,75
284160,set_tempo,480,1,0,,,,,,,,,,,,408163,,,,,,,
284160,note_on,0,0,2,,,,,,,,,,,,,,,0,,,29,0
284160,note_on,0,0,2,,,,,,,,,,,,,,,0,,,39,67
284160,note_on,868,0,2,,,,,,,,,,,,,,,0,,,41,0
284160,note_on,0,0,2,,,,,,,,,,,,,,,0,,,51,67
284160,note_on,240,0,1,,,,,,,,,,,,,,,0,,,73,0
284160,note_on,0,0,1,,,,,,,,,,,,,,,0,,,73,87
284160,note_on,0,0,1,,,,,,,,,,,,,,,0,,,67,73
284160,note_on,0,0,1,,,,,,,,,,,,,,,0,,,61,73
284160,note_on,0,0,1,,,,,,,,,,,,,,,0,,,61,0
284160,note_on,0,0,1,,,,,,,,,,,,,,,0,,,68,0
284160,control_change,0,0,2,,,,,,,,,,,,,,,0,64,0,,
284266,control_change,106,0,2,,,,,,,,,,,,,,,0,64,127,,
284640,note_on,0,0,1,,,,,,,,,,,,,,,0,,,67,0
284640,set_tempo,480,1,0,,,,,,,,,,,,404040,,,,,,,
284640,note_on,480,0,1,,,,,,,,,,,,,,,0,,,73,0
284640,note_on,0,0,1,,,,,,,,,,,,,,,0,,,61,0
284640,note_on,0,0,1,,,,,,,,,,,,,,,0,,,60,67
284640,note_on,0,0,1,,,,,,,,,,,,,,,0,,,72,80
284640,note_on,0,0,1,,,,,,,,,,,,,,,0,,,67,67
285120,note_on,480,0,1,,,,,,,,,,,,,,,0,,,72,0
285120,note_on,854,0,2,,,,,,,,,,,,,,,0,,,51,0
285120,note_on,0,0,2,,,,,,,,,,,,,,,0,,,39,0
285120,note_on,0,0,2,,,,,,,,,,,,,,,0,,,27,66
285120,set_tempo,480,1,0,,,,,,,,,,,,408163,,,,,,,
285120,note_on,0,0,1,,,,,,,,,,,,,,,0,,,84,88
285120,note_on,0,0,1,,,,,,,,,,,,,,,0,,,79,73
285120,note_on,0,0,1,,,,,,,,,,,,,,,0,,,72,73
285120,note_on,0,0,1,,,,,,,,,,,,,,,0,,,60,0
285120,note_on,0,0,1,,,,,,,,,,,,,,,0,,,67,0
285120,note_on,0,0,2,,,,,,,,,,,,,,,0,,,39,66
285134,control_change,14,0,2,,,,,,,,,,,,,,,0,64,0,,
285212,control_change,78,0,2,,,,,,,,,,,,,,,0,64,127,,
285360,note_on,240,0,1,,,,,,,,,,,,,,,0,,,84,0
285360,set_tempo,240,1,0,,,,,,,,,,,,392157,,,,,,,
285360,note_on,0,0,1,,,,,,,,,,,,,,,0,,,79,0
285360,note_on,0,0,1,,,,,,,,,,,,,,,0,,,72,0
285360,note_on,0,0,1,,,,,,,,,,,,,,,0,,,60,58
285360,note_on,0,0,1,,,,,,,,,,,,,,,0,,,67,58
285360,note_on,0,0,1,,,,,,,,,,,,,,,0,,,72,70
285480,note_on,0,0,1,,,,,,,,,,,,,,,0,,,60,58
285480,note_on,0,0,1,,,,,,,,,,,,,,,0,,,72,70
285480,note_on,0,0,1,,,,,,,,,,,,,,,0,,,67,58
285480,note_on,0,0,1,,,,,,,,,,,,,,,0,,,60,0
285480,note_on,0,0,1,,,,,,,,,,,,,,,0,,,67,0
285480,note_on,120,0,1,,,,,,,,,,,,,,,0,,,72,0
285600,note_on,0,0,1,,,,,,,,,,,,,,,0,,,60,0
285600,set_tempo,240,1,0,,,,,,,,,,,,412371,,,,,,,
285600,note_on,0,0,1,,,,,,,,,,,,,,,0,,,67,65
285600,note_on,0,0,1,,,,,,,,,,,,,,,0,,,60,65
285600,note_on,0,0,1,,,,,,,,,,,,,,,0,,,67,0
285600,note_on,120,0,1,,,,,,,,,,,,,,,0,,,72,0
285600,note_on,0,0,1,,,,,,,,,,,,,,,0,,,72,77
285840,note_on,240,0,1,,,,,,,,,,,,,,,0,,,72,0
285840,note_on,0,0,1,,,,,,,,,,,,,,,0,,,67,0
285840,note_on,0,0,1,,,,,,,,,,,,,,,0,,,67,64
285840,note_on,0,0,1,,,,,,,,,,,,,,,0,,,60,64
285840,note_on,0,0,1,,,,,,,,,,,,,,,0,,,72,75
285840,note_on,0,0,1,,,,,,,,,,,,,,,0,,,60,0
286080,set_tempo,480,1,0,,,,,,,,,,,,397351,,,,,,,
286080,control_change,0,0,2,,,,,,,,,,,,,,,0,64,0,,
286080,note_on,0,0,2,,,,,,,,,,,,,,,0,,,61,67
286080,note_on,0,0,2,,,,,,,,,,,,,,,0,,,27,0
286080,note_on,868,0,2,,,,,,,,,,,,,,,0,,,39,0
286080,note_on,0,0,2,,,,,,,,,,,,,,,0,,,49,67
286080,note_on,0,0,1,,,,,,,,,,,,,,,0,,,65,73
286080,note_on,0,0,1,,,,,,,,,,,,,,,0,,,60,73
286080,note_on,0,0,1,,,,,,,,,,,,,,,0,,,60,0
286080,note_on,0,0,1,,,,,,,,,,,,,,,0,,,67,0
286080,note_on,240,0,1,,,,,,,,,,,,,,,0,,,72,0
286080,note_on,0,0,1,,,,,,,,,,,,,,,0,,,72,87
286440,note_on,360,0,2,,,,,,,,,,,,,,,0,,,61,0
286440,note_on,0,0,2,,,,,,,,,,,,,,,0,,,49,0
286440,note_on,0,0,2,,,,,,,,,,,,,,,0,,,37,60
286440,note_on,0,0,2,,,,,,,,,,,,,,,0,,,49,60
286560,note_on,120,0,2,,,,,,,,,,,,,,,0,,,49,0
286560,note_on,0,0,2,,,,,,,,,,,,,,,0,,,37,0
286560,note_on,0,0,1,,,,,,,,,,,,,,,0,,,65,67
286560,note_on,0,0,2,,,,,,,,,,,,,,,0,,,49,67
286560,set_tempo,480,1,0,,,,,,,,,,,,418118,,,,,,,
286560,note_on,0,0,1,,,,,,,,,,,,,,,0,,,58,67
286560,note_on,0,0,1,,,,,,,,,,,,,,,0,,,60,0
286560,note_on,0,0,1,,,,,,,,,,,,,,,0,,,65,0
286560,note_on,0,0,1,,,,,,,,,,,,,,,0,,,70,80
286560,note_on,480,0,1,,,,,,,,,,,,,,,0,,,72,0
286560,note_on,0,0,2,,,,,,,,,,,,,,,0,,,37,67
287040,note_on,480,0,2,,,,,,,,,,,,,,,0,,,49,0
287040,note_on,0,0,2,,,,,,,,,,,,,,,0,,,37,0
287040,note_on,0,0,2,,,,,,,,,,,,,,,0,,,60,70
287040,note_on,0,0,2,,,,,,,,,,,,,,,0,,,48,70
287040,note_on,0,0,1,,,,,,,,,,,,,,,0,,,70,76
287040,note_on,0,0,1,,,,,,,,,,,,,,,0,,,75,76
287040,set_tempo,480,1,0,,,,,,,,,,,,398671,,,,,,,
287040,note_on,0,0,1,,,,,,,,,,,,,,,0,,,65,0
287040,note_on,480,0,1,,,,,,,,,,,,,,,0,,,70,0
287040,note_on,0,0,1,,,,,,,,,,,,,,,0,,,82,90
287040,note_on,0,0,1,,,,,,,,,,,,,,,0,,,58,0
287400,note_on,0,0,2,,,,,,,,,,,,,,,0,,,48,0
287400,note_on,0,0,2,,,,,,,,,,,,,,,0,,,36,63
287400,note_on,0,0,2,,,,,,,,,,,,,,,0,,,48,63
287400,note_on,360,0,2,,,,,,,,,,,,,,,0,,,60,0
287520,note_on,0,0,1,,,,,,,,,,,,,,,0,,,68,70
287520,note_on,0,0,1,,,,,,,,,,,,,,,0,,,70,0
287520,note_on,0,0,1,,,,,,,,,,,,,,,0,,,80,84
287520,note_on,480,0,1,,,,,,,,,,,,,,,0,,,82,0
287520,note_on,0,0,2,,,,,,,,,,,,,,,0,,,48,70
287520,note_on,0,0,2,,,,,,,,,,,,,,,0,,,36,70
287520,note_on,0,0,2,,,,,,,,,,,,,,,0,,,36,0
287520,note_on,120,0,2,,,,,,,,,,,,,,,0,,,48,0
287520,set_tempo,480,1,0,,,,,,,,,,,,418118,,,,,,,
287520,note_on,0,0,1,,,,,,,,,,,,,,,0,,,75,70
287520,note_on,0,0,1,,,,,,,,,,,,,,,0,,,75,0
288000,note_on,480,0,1,,,,,,,,,,,,,,,0,,,80,0
288000,note_on,0,0,1,,,,,,,,,,,,,,,0,,,75,0
288000,note_on,0,0,1,,,,,,,,,,,,,,,0,,,56,76
288000,note_on,0,0,1,,,,,,,,,,,,,,,0,,,62,76
288000,note_on,0,0,1,,,,,,,,,,,,,,,0,,,68,90
288000,note_on,0,0,1,,,,,,,,,,,,,,,0,,,68,0
288000,note_on,480,0,2,,,,,,,,,,,,,,,0,,,48,0
288000,note_on,0,0,2,,,,,,,,,,,,,,,0,,,36,0
288000,note_on,0,0,2,,,,,,,,,,,,,,,0,,,46,70
288000,note_on,0,0,2,,,,,,,,,,,,,,,0,,,58,70
288000,set_tempo,480,1,0,,,,,,,,,,,,408163,,,,,,,
288360,note_on,360,0,2,,,,,,,,,,,,,,,0,,,58,0
288360,note_on,0,0,2,,,,,,,,,,,,,,,0,,,46,0
288360,note_on,0,0,2,,,,,,,,,,,,,,,0,,,34,63
288360,note_on,0,0,2,,,,,,,,,,,,,,,0,,,46,63
288480,note_on,0,0,1,,,,,,,,,,,,,,,0,,,56,0
288480,note_on,0,0,1,,,,,,,,,,,,,,,0,,,62,0
288480,note_on,480,0,1,,,,,,,,,,,,,,,0,,,68,0
288480,note_on,0,0,2,,,,,,,,,,,,,,,0,,,46,70
288480,note_on,120,0,2,,,,,,,,,,,,,,,0,,,46,0
288480,note_on,0,0,1,,,,,,,,,,,,,,,0,,,62,70
288480,note_on,0,0,2,,,,,,,,,,,,,,,0,,,34,0
288480,note_on,0,0,1,,,,,,,,,,,,,,,0,,,67,84
288480,note_on,0,0,1,,,,,,,,,,,,,,,0,,,55,70
288480,note_on,0,0,2,,,,,,,,,,,,,,,0,,,34,70
288480,set_tempo,480,1,0,,,,,,,,,,,,434783,,,,,,,
288960,note_on,480,0,2,,,,,,,,,,,,,,,0,,,46,0
288960,note_on,0,0,2,,,,,,,,,,,,,,,0,,,34,0
288960,note_on,0,0,2,,,,,,,,,,,,,,,0,,,44,73
288960,note_on,0,0,2,,,,,,,,,,,,,,,0,,,56,73
288960,set_tempo,480,1,0,,,,,,,,,,,,415225,,,,,,,
288960,note_on,0,0,1,,,,,,,,,,,,,,,0,,,62,0
288960,note_on,480,0,1,,,,,,,,,,,,,,,0,,,67,0
288960,note_on,0,0,1,,,,,,,,,,,,,,,0,,,55,0
288960,note_on,0,0,1,,,,,,,,,,,,,,,0,,,67,80
288960,note_on,0,0,1,,,,,,,,,,,,,,,0,,,72,80
288960,note_on,0,0,1,,,,,,,,,,,,,,,0,,,79,94
289320,note_on,0,0,2,,,,,,,,,,,,,,,0,,,44,65
289320,note_on,360,0,2,,,,,,,,,,,,,,,0,,,56,0
289320,note_on,0,0,2,,,,,,,,,,,,,,,0,,,44,0
289320,note_on,0,0,2,,,,,,,,,,,,,,,0,,,32,65
289440,set_tempo,480,1,0,,,,,,,,,,,,430108,,,,,,,
289440,note_on,0,0,1,,,,,,,,,,,,,,,0,,,72,0
289440,note_on,480,0,1,,,,,,,,,,,,,,,0,,,79,0
289440,note_on,0,0,1,,,,,,,,,,,,,,,0,,,67,0
289440,note_on,0,0,2,,,,,,,,,,,,,,,0,,,44,73
289440,note_on,0,0,2,,,,,,,,,,,,,,,0,,,32,73
289440,note_on,0,0,2,,,,,,,,,,,,,,,0,,,32,0
289440,note_on,0,0,1,,,,,,,,,,,,,,,0,,,72,73
289440,note_on,0,0,1,,,,,,,,,,,,,,,0,,,66,73
289440,note_on,0,0,1,,,,,,,,,,,,,,,0,,,78,87
289440,note_on,120,0,2,,,,,,,,,,,,,,,0,,,44,0
289920,note_on,0,0,1,,,,,,,,,,,,,,,0,,,79,73
289920,note_on,0,0,1,,,,,,,,,,,,,,,0,,,67,73
289920,note_on,480,0,2,,,,,,,,,,,,,,,0,,,44,0
289920,note_on,0,0,2,,,,,,,,,,,,,,,0,,,32,0
289920,note_on,0,0,2,,,,,,,,,,,,,,,0,,,31,75
289920,note_on,0,0,2,,,,,,,,,,,,,,,0,,,43,75
289920,note_on,0,0,1,,,,,,,,,,,,,,,0,,,66,0
289920,note_on,0,0,1,,,,,,,,,,,,,,,0,,,72,0
289920,note_on,480,0,1,,,,,,,,,,,,,,,0,,,78,0
289920,set_tempo,480,1,0,,,,,,,,,,,,444444,,,,,,,
290000,set_tempo,80,1,0,,,,,,,,,,,,442804,,,,,,,
290040,note_on,120,0,1,,,,,,,,,,,,,,,0,,,79,0
290040,note_on,0,0,1,,,,,,,,,,,,,,,0,,,67,0
290040,note_on,0,0,1,,,,,,,,,,,,,,,0,,,81,74
290080,set_tempo,80,1,0,,,,,,,,,,,,441176,,,,,,,
290160,set_tempo,80,1,0,,,,,,,,,,,,439560,,,,,,,
290160,note_on,120,0,1,,,,,,,,,,,,,,,0,,,81,0
290160,note_on,0,0,1,,,,,,,,,,,,,,,0,,,79,75
290240,set_tempo,80,1,0,,,,,,,,,,,,437956,,,,,,,
290280,note_on,120,0,1,,,,,,,,,,,,,,,0,,,79,0
290280,note_on,0,0,1,,,,,,,,,,,,,,,0,,,81,76
290320,set_tempo,80,1,0,,,,,,,,,,,,436364,,,,,,,
290400,note_on,0,0,1,,,,,,,,,,,,,,,0,,,83,77
290400,note_on,120,0,1,,,,,,,,,,,,,,,0,,,81,0
290400,set_tempo,80,1,0,,,,,,,,,,,,434783,,,,,,,
290400,note_on,480,0,2,,,,,,,,,,,,,,,0,,,43,0
290400,note_on,0,0,2,,,,,,,,,,,,,,,0,,,31,0
290400,note_on,0,0,2,,,,,,,,,,,,,,,0,,,67,70
290400,note_on,0,0,2,,,,,,,,,,,,,,,0,,,55,70
290480,set_tempo,80,1,0,,,,,,,,,,,,433213,,,,,,,
290520,note_on,0,0,1,,,,,,,,,,,,,,,0,,,84,78
290520,note_on,120,0,1,,,,,,,,,,,,,,,0,,,83,0
290520,note_on,120,0,2,,,,,,,,,,,,,,,0,,,55,0
290520,note_on,0,0,2,,,,,,,,,,,,,,,0,,,67,0
290560,set_tempo,80,1,0,,,,,,,,,,,,431655,,,,,,,
290640,note_on,0,0,1,,,,,,,,,,,,,,,0,,,83,79
290640,note_on,120,0,1,,,,,,,,,,,,,,,0,,,84,0
290640,set_tempo,80,1,0,,,,,,,,,,,,430108,,,,,,,
290640,note_on,0,0,2,,,,,,,,,,,,,,,0,,,67,70
290640,note_on,120,0,2,,,,,,,,,,,,,,,0,,,55,70
290720,set_tempo,80,1,0,,,,,,,,,,,,428571,,,,,,,
290760,note_on,0,0,1,,,,,,,,,,,,,,,0,,,84,80
290760,note_on,120,0,1,,,,,,,,,,,,,,,0,,,83,0
290760,note_on,120,0,2,,,,,,,,,,,,,,,0,,,67,0
290760,note_on,0,0,2,,,,,,,,,,,,,,,0,,,55,0
290800,set_tempo,80,1,0,,,,,,,,,,,,427046,,,,,,,
290880,note_on,120,0,2,,,,,,,,,,,,,,,0,,,67,73
290880,note_on,0,0,2,,,,,,,,,,,,,,,0,,,55,73
290880,note_on,0,0,1,,,,,,,,,,,,,,,0,,,86,81
290880,note_on,120,0,1,,,,,,,,,,,,,,,0,,,84,0
291000,note_on,0,0,1,,,,,,,,,,,,,,,0,,,87,82
291000,note_on,120,0,1,,,,,,,,,,,,,,,0,,,86,0
291120,note_on,0,0,1,,,,,,,,,,,,,,,0,,,86,84
291120,note_on,120,0,1,,,,,,,,,,,,,,,0,,,87,0
291240,note_on,120,0,1,,,,,,,,,,,,,,,0,,,86,0
291240,note_on,0,0,1,,,,,,,,,,,,,,,0,,,87,85
291360,note_on,0,0,1,,,,,,,,,,,,,,,0,,,89,86
291360,note_on,480,0,2,,,,,,,,,,,,,,,0,,,55,0
291360,note_on,0,0,2,,,,,,,,,,,,,,,0,,,67,0
291360,note_on,0,0,2,,,,,,,,,,,,,,,0,,,67,70
291360,note_on,0,0,2,,,,,,,,,,,,,,,0,,,55,70
291360,note_on,120,0,1,,,,,,,,,,,,,,,0,,,87,0
291480,note_on,0,0,2,,,,,,,,,,,,,,,0,,,67,0
291480,note_on,0,0,1,,,,,,,,,,,,,,,0,,,91,87
291480,note_on,120,0,1,,,,,,,,,,,,,,,0,,,89,0
291480,note_on,120,0,2,,,,,,,,,,,,,,,0,,,55,0
291600,note_on,120,0,1,,,,,,,,,,,,,,,0,,,91,0
291600,note_on,0,0,2,,,,,,,,,,,,,,,0,,,55,70
291600,note_on,0,0,1,,,,,,,,,,,,,,,0,,,89,88
291600,note_on,120,0,2,,,,,,,,,,,,,,,0,,,67,70
291720,note_on,120,0,1,,,,,,,,,,,,,,,0,,,89,0
291720,note_on,0,0,1,,,,,,,,,,,,,,,0,,,91,89
291840,note_on,120,0,1,,,,,,,,,,,,,,,0,,,91,0
291840,set_tempo,1040,1,0,,,,,,,,,,,,425532,,,,,,,
291840,note_on,0,0,1,,,,,,,,,,,,,,,0,,,80,90
291840,note_on,0,0,1,,,,,,,,,,,,,,,0,,,92,90
292080,note_on,0,0,2,,,,,,,,,,,,,,,0,,,67,0
292080,note_on,0,0,2,,,,,,,,,,,,,,,0,,,65,70
292080,set_tempo,240,1,0,,,,,,,,,,,,416667,,,,,,,
292080,note_on,0,0,2,,,,,,,,,,,,,,,0,,,53,70
292080,note_on,480,0,2,,,,,,,,,,,,,,,0,,,55,0
292170,note_on,0,0,2,,,,,,,,,,,,,,,0,,,53,0
292170,note_on,90,0,2,,,,,,,,,,,,,,,0,,,65,0
292200,note_on,0,0,2,,,,,,,,,,,,,,,0,,,64,70
292200,note_on,30,0,2,,,,,,,,,,,,,,,0,,,52,70
292290,note_on,90,0,2,,,,,,,,,,,,,,,0,,,64,0
292290,note_on,0,0,2,,,,,,,,,,,,,,,0,,,52,0
292320,note_on,30,0,2,,,,,,,,,,,,,,,0,,,53,73
292320,note_on,0,0,2,,,,,,,,,,,,,,,0,,,65,73
292440,note_on,120,0,2,,,,,,,,,,,,,,,0,,,65,0
292440,note_on,0,0,2,,,,,,,,,,,,,,,0,,,53,0
292560,note_on,120,0,2,,,,,,,,,,,,,,,0,,,41,67
292560,note_on,0,0,2,,,,,,,,,,,,,,,0,,,53,67
292680,set_tempo,600,1,0,,,,,,,,,,,,447761,,,,,,,
292740,note_on,180,0,2,,,,,,,,,,,,,,,0,,,53,0
292740,note_on,0,0,2,,,,,,,,,,,,,,,0,,,41,0
292800,note_on,960,0,1,,,,,,,,,,,,,,,0,,,92,0
292800,set_tempo,120,1,0,,,,,,,,,,,,441176,,,,,,,
292800,note_on,60,0,2,,,,,,,,,,,,,,,0,,,44,68
292800,note_on,0,0,2,,,,,,,,,,,,,,,0,,,56,68
292800,note_on,0,0,1,,,,,,,,,,,,,,,0,,,80,0
292800,note_on,0,0,1,,,,,,,,,,,,,,,0,,,68,77
292800,note_on,0,0,1,,,,,,,,,,,,,,,0,,,80,77
292920,set_tempo,120,1,0,,,,,,,,,,,,416667,,,,,,,
292980,note_on,180,0,2,,,,,,,,,,,,,,,0,,,56,0
292980,note_on,0,0,2,,,,,,,,,,,,,,,0,,,44,0
293040,note_on,0,0,2,,,,,,,,,,,,,,,0,,,60,68
293040,note_on,60,0,2,,,,,,,,,,,,,,,0,,,48,68
293220,note_on,180,0,2,,,,,,,,,,,,,,,0,,,60,0
293220,note_on,0,0,2,,,,,,,,,,,,,,,0,,,48,0
293280,note_on,60,0,2,,,,,,,,,,,,,,,0,,,50,68
293280,note_on,0,0,2,,,,,,,,,,,,,,,0,,,62,68
293460,note_on,0,0,2,,,,,,,,,,,,,,,0,,,50,0
293460,note_on,180,0,2,,,,,,,,,,,,,,,0,,,62,0
293520,note_on,0,0,2,,,,,,,,,,,,,,,0,,,64,68
293520,note_on,60,0,2,,,,,,,,,,,,,,,0,,,52,68
293700,note_on,0,0,2,,,,,,,,,,,,,,,0,,,52,0
293700,note_on,180,0,2,,,,,,,,,,,,,,,0,,,64,0
293760,set_tempo,840,1,0,,,,,,,,,,,,444444,,,,,,,
293760,note_on,0,0,1,,,,,,,,,,,,,,,0,,,77,73
293760,note_on,0,0,1,,,,,,,,,,,,,,,0,,,68,0
293760,note_on,0,0,2,,,,,,,,,,,,,,,0,,,65,75
293760,note_on,960,0,1,,,,,,,,,,,,,,,0,,,80,0
293760,note_on,60,0,2,,,,,,,,,,,,,,,0,,,53,75
293840,set_tempo,80,1,0,,,,,,,,,,,,442804,,,,,,,
293880,note_on,0,0,1,,,,,,,,,,,,,,,0,,,79,74
293880,note_on,120,0,1,,,,,,,,,,,,,,,0,,,77,0
293920,set_tempo,80,1,0,,,,,,,,,,,,441176,,,,,,,
294000,note_on,0,0,1,,,,,,,,,,,,,,,0,,,77,75
294000,set_tempo,80,1,0,,,,,,,,,,,,439560,,,,,,,
294000,note_on,120,0,1,,,,,,,,,,,,,,,0,,,79,0
294080,set_tempo,80,1,0,,,,,,,,,,,,437956,,,,,,,
294120,note_on,120,0,1,,,,,,,,,,,,,,,0,,,77,0
294120,note_on,0,0,1,,,,,,,,,,,,,,,0,,,79,76
294160,set_tempo,80,1,0,,,,,,,,,,,,436364,,,,,,,
294240,note_on,120,0,1,,,,,,,,,,,,,,,0,,,79,0
294240,note_on,0,0,1,,,,,,,,,,,,,,,0,,,80,77
294240,note_on,0,0,2,,,,,,,,,,,,,,,0,,,53,70
294240,set_tempo,80,1,0,,,,,,,,,,,,434783,,,,,,,
294240,note_on,480,0,2,,,,,,,,,,,,,,,0,,,65,0
294240,note_on,0,0,2,,,,,,,,,,,,,,,0,,,53,0
294240,note_on,0,0,2,,,,,,,,,,,,,,,0,,,65,70
294320,set_tempo,80,1,0,,,,,,,,,,,,433213,,,,,,,
294360,note_on,0,0,1,,,,,,,,,,,,,,,0,,,82,78
294360,note_on,120,0,1,,,,,,,,,,,,,,,0,,,80,0
294360,note_on,120,0,2,,,,,,,,,,,,,,,0,,,53,0
294360,note_on,0,0,2,,,,,,,,,,,,,,,0,,,65,0
294400,set_tempo,80,1,0,,,,,,,,,,,,431655,,,,,,,
294480,note_on,0,0,1,,,,,,,,,,,,,,,0,,,80,79
294480,note_on,120,0,1,,,,,,,,,,,,,,,0,,,82,0
294480,set_tempo,80,1,0,,,,,,,,,,,,430108,,,,,,,
294480,note_on,0,0,2,,,,,,,,,,,,,,,0,,,65,70
294480,note_on,120,0,2,,,,,,,,,,,,,,,0,,,53,70
294560,set_tempo,80,1,0,,,,,,,,,,,,428571,,,,,,,
294600,note_on,120,0,2,,,,,,,,,,,,,,,0,,,65,0
294600,note_on,0,0,2,,,,,,,,,,,,,,,0,,,53,0
294600,note_on,0,0,1,,,,,,,,,,,,,,,0,,,82,80
294600,note_on,120,0,1,,,,,,,,,,,,,,,0,,,80,0
294640,set_tempo,80,1,0,,,,,,,,,,,,427046,,,,,,,
294720,note_on,120,0,2,,,,,,,,,,,,,,,0,,,65,73
294720,note_on,0,0,2,,,,,,,,,,,,,,,0,,,53,73
294720,note_on,0,0,1,,,,,,,,,,,,,,,0,,,84,81
294720,note_on,120,0,1,,,,,,,,,,,,,,,0,,,82,0
294840,note_on,0,0,1,,,,,,,,,,,,,,,0,,,86,82
294840,note_on,120,0,1,,,,,,,,,,,,,,,0,,,84,0
294960,note_on,0,0,1,,,,,,,,,,,,,,,0,,,84,84
294960,note_on,120,0,1,,,,,,,,,,,,,,,0,,,86,0
295080,note_on,120,0,1,,,,,,,,,,,,,,,0,,,84,0
295080,note_on,0,0,1,,,,,,,,,,,,,,,0,,,86,85
295200,note_on,0,0,2,,,,,,,,,,,,,,,0,,,65,70
295200,note_on,0,0,2,,,,,,,,,,,,,,,0,,,65,0
295200,note_on,120,0,1,,,,,,,,,,,,,,,0,,,86,0
295200,note_on,480,0,2,,,,,,,,,,,,,,,0,,,53,0
295200,note_on,0,0,1,,,,,,,,,,,,,,,0,,,87,86
295200,note_on,0,0,2,,,,,,,,,,,,,,,0,,,53,70
295320,note_on,120,0,2,,,,,,,,,,,,,,,0,,,53,0
295320,note_on,0,0,1,,,,,,,,,,,,,,,0,,,89,87
295320,note_on,0,0,2,,,,,,,,,,,,,,,0,,,65,0
295320,note_on,120,0,1,,,,,,,,,,,,,,,0,,,87,0
295440,note_on,120,0,1,,,,,,,,,,,,,,,0,,,89,0
295440,note_on,120,0,2,,,,,,,,,,,,,,,0,,,65,70
295440,note_on,0,0,2,,,,,,,,,,,,,,,0,,,53,70
295440,note_on,0,0,1,,,,,,,,,,,,,,,0,,,87,88
295560,note_on,120,0,1,,,,,,,,,,,,,,,0,,,87,0
295560,note_on,0,0,1,,,,,,,,,,,,,,,0,,,89,89
295680,note_on,0,0,1,,,,,,,,,,,,,,,0,,,91,90
295680,note_on,0,0,1,,,,,,,,,,,,,,,0,,,79,90
295680,note_on,120,0,1,,,,,,,,,,,,,,,0,,,89,0
295680,set_tempo,1040,1,0,,,,,,,,,,,,425532,,,,,,,
295920,note_on,0,0,2,,,,,,,,,,,,,,,0,,,63,70
295920,note_on,0,0,2,,,,,,,,,,,,,,,0,,,51,70
295920,note_on,0,0,2,,,,,,,,,,,,,,,0,,,65,0
295920,note_on,480,0,2,,,,,,,,,,,,,,,0,,,53,0
295920,set_tempo,240,1,0,,,,,,,,,,,,416667,,,,,,,
296010,note_on,0,0,2,,,,,,,,,,,,,,,0,,,51,0
296010,note_on,90,0,2,,,,,,,,,,,,,,,0,,,63,0
296040,note_on,0,0,2,,,,,,,,,,,,,,,0,,,62,70
296040,note_on,30,0,2,,,,,,,,,,,,,,,0,,,50,70
296130,note_on,0,0,2,,,,,,,,,,,,,,,0,,,50,0
296130,note_on,90,0,2,,,,,,,,,,,,,,,0,,,62,0
296160,note_on,30,0,2,,,,,,,,,,,,,,,0,,,51,73
296160,note_on,0,0,2,,,,,,,,,,,,,,,0,,,63,73
296280,note_on,120,0,2,,,,,,,,,,,,,,,0,,,63,0
296280,note_on,0,0,2,,,,,,,,,,,,,,,0,,,51,0
296400,note_on,120,0,2,,,,,,,,,,,,,,,0,,,39,67
296400,note_on,0,0,2,,,,,,,,,,,,,,,0,,,51,67
296520,set_tempo,600,1,0,,,,,,,,,,,,447761,,,,,,,
296580,note_on,180,0,2,,,,,,,,,,,,,,,0,,,51,0
296580,note_on,0,0,2,,,,,,,,,,,,,,,0,,,39,0
296640,note_on,0,0,2,,,,,,,,,,,,,,,0,,,55,68
296640,note_on,60,0,2,,,,,,,,,,,,,,,0,,,43,68
296640,set_tempo,120,1,0,,,,,,,,,,,,441176,,,,,,,
296640,note_on,960,0,1,,,,,,,,,,,,,,,0,,,91,0
296640,note_on,0,0,1,,,,,,,,,,,,,,,0,,,79,0
296640,note_on,0,0,1,,,,,,,,,,,,,,,0,,,67,77
296640,note_on,0,0,1,,,,,,,,,,,,,,,0,,,79,77
296760,set_tempo,120,1,0,,,,,,,,,,,,416667,,,,,,,
296820,note_on,180,0,2,,,,,,,,,,,,,,,0,,,55,0
296820,note_on,0,0,2,,,,,,,,,,,,,,,0,,,43,0
296880,note_on,0,0,2,,,,,,,,,,,,,,,0,,,58,68
296880,note_on,60,0,2,,,,,,,,,,,,,,,0,,,46,68
297060,note_on,0,0,2,,,,,,,,,,,,,,,0,,,46,0
297060,note_on,180,0,2,,,,,,,,,,,,,,,0,,,58,0
297120,note_on,60,0,2,,,,,,,,,,,,,,,0,,,48,68
297120,note_on,0,0,2,,,,,,,,,,,,,,,0,,,60,68
297300,note_on,180,0,2,,,,,,,,,,,,,,,0,,,60,0
297300,note_on,0,0,2,,,,,,,,,,,,,,,0,,,48,0
297360,note_on,60,0,2,,,,,,,,,,,,,,,0,,,50,68
297360,note_on,0,0,2,,,,,,,,,,,,,,,0,,,62,68
297540,note_on,180,0,2,,,,,,,,,,,,,,,0,,,62,0
297540,note_on,0,0,2,,,,,,,,,,,,,,,0,,,50,0
297600,note_on,0,0,2,,,,,,,,,,,,,,,0,,,63,75
297600,set_tempo,840,1,0,,,,,,,,,,,,444444,,,,,,,
297600,note_on,60,0,2,,,,,,,,,,,,,,,0,,,51,75
297600,note_on,960,0,1,,,,,,,,,,,,,,,0,,,79,0
297600,note_on,0,0,1,,,,,,,,,,,,,,,0,,,67,0
297600,note_on,0,0,1,,,,,,,,,,,,,,,0,,,75,73
297680,set_tempo,80,1,0,,,,,,,,,,,,442804,,,,,,,
297720,note_on,0,0,1,,,,,,,,,,,,,,,0,,,77,74
297720,note_on,120,0,1,,,,,,,,,,,,,,,0,,,75,0
297760,set_tempo,80,1,0,,,,,,,,,,,,441176,,,,,,,
297840,note_on,0,0,1,,,,,,,,,,,,,,,0,,,75,75
297840,set_tempo,80,1,0,,,,,,,,,,,,439560,,,,,,,
297840,note_on,120,0,1,,,,,,,,,,,,,,,0,,,77,0
297920,set_tempo,80,1,0,,,,,,,,,,,,437956,,,,,,,
297960,note_on,0,0,1,,,,,,,,,,,,,,,0,,,77,76
297960,note_on,120,0,1,,,,,,,,,,,,,,,0,,,75,0
298000,set_tempo,80,1,0,,,,,,,,,,,,436364,,,,,,,
298080,note_on,0,0,1,,,,,,,,,,,,,,,0,,,79,77
298080,note_on,120,0,1,,,,,,,,,,,,,,,0,,,77,0
298080,note_on,0,0,2,,,,,,,,,,,,,,,0,,,51,70
298080,note_on,0,0,2,,,,,,,,,,,,,,,0,,,63,70
298080,note_on,0,0,2,,,,,,,,,,,,,,,0,,,51,0
298080,note_on,480,0,2,,,,,,,,,,,,,,,0,,,63,0
298080,set_tempo,80,1,0,,,,,,,,,,,,434783,,,,,,,
298160,set_tempo,80,1,0,,,,,,,,,,,,433213,,,,,,,
298200,note_on,120,0,1,,,,,,,,,,,,,,,0,,,79,0
298200,note_on,120,0,2,,,,,,,,,,,,,,,0,,,51,0
298200,note_on,0,0,2,,,,,,,,,,,,,,,0,,,63,0
298200,note_on,0,0,1,,,,,,,,,,,,,,,0,,,80,78
298240,set_tempo,80,1,0,,,,,,,,,,,,431655,,,,,,,
298320,set_tempo,80,1,0,,,,,,,,,,,,430108,,,,,,,
298320,note_on,120,0,2,,,,,,,,,,,,,,,0,,,51,70
298320,note_on,0,0,2,,,,,,,,,,,,,,,0,,,63,70
298320,note_on,0,0,1,,,,,,,,,,,,,,,0,,,79,79
298320,note_on,120,0,1,,,,,,,,,,,,,,,0,,,80,0
298400,set_tempo,80,1,0,,,,,,,,,,,,428571,,,,,,,
298440,note_on,0,0,2,,,,,,,,,,,,,,,0,,,51,0
298440,note_on,120,0,2,,,,,,,,,,,,,,,0,,,63,0
298440,note_on,120,0,1,,,,,,,,,,,,,,,0,,,79,0
298440,note_on,0,0,1,,,,,,,,,,,,,,,0,,,80,80
298480,set_tempo,80,1,0,,,,,,,,,,,,427046,,,,,,,
298560,note_on,0,0,1,,,,,,,,,,,,,,,0,,,82,81
298560,note_on,120,0,2,,,,,,,,,,,,,,,0,,,63,73
298560,note_on,120,0,1,,,,,,,,,,,,,,,0,,,80,0
298560,note_on,0,0,2,,,,,,,,,,,,,,,0,,,51,73
298680,note_on,120,0,1,,,,,,,,,,,,,,,0,,,82,0
298680,note_on,0,0,1,,,,,,,,,,,,,,,0,,,84,82
298800,note_on,0,0,1,,,,,,,,,,,,,,,0,,,82,84
298800,note_on,120,0,1,,,,,,,,,,,,,,,0,,,84,0
298920,note_on,120,0,1,,,,,,,,,,,,,,,0,,,82,0
298920,note_on,0,0,1,,,,,,,,,,,,,,,0,,,84,85
299040,note_on,0,0,2,,,,,,,,,,,,,,,0,,,51,70
299040,note_on,0,0,2,,,,,,,,,,,,,,,0,,,63,70
299040,note_on,0,0,2,,,,,,,,,,,,,,,0,,,63,0
299040,note_on,480,0,2,,,,,,,,,,,,,,,0,,,51,0
299040,note_on,120,0,1,,,,,,,,,,,,,,,0,,,84,0
299040,note_on,0,0,1,,,,,,,,,,,,,,,0,,,86,86
299160,note_on,120,0,2,,,,,,,,,,,,,,,0,,,51,0
299160,note_on,0,0,2,,,,,,,,,,,,,,,0,,,63,0
299160,note_on,120,0,1,,,,,,,,,,,,,,,0,,,86,0
299160,note_on,0,0,1,,,,,,,,,,,,,,,0,,,87,87
299280,note_on,0,0,1,,,,,,,,,,,,,,,0,,,86,88
299280,note_on,120,0,2,,,,,,,,,,,,,,,0,,,63,70
299280,note_on,120,0,1,,,,,,,,,,,,,,,0,,,87,0
299280,note_on,0,0,2,,,,,,,,,,,,,,,0,,,51,70
299400,note_on,0,0,1,,,,,,,,,,,,,,,0,,,87,89
299400,note_on,120,0,1,,,,,,,,,,,,,,,0,,,86,0
299520,note_on,120,0,1,,,,,,,,,,,,,,,0,,,87,0
299520,note_on,0,0,1,,,,,,,,,,,,,,,0,,,77,90
299520,note_on,0,0,1,,,,,,,,,,,,,,,0,,,89,90
299520,set_tempo,1040,1,0,,,,,,,,,,,,425532,,,,,,,
299760,note_on,0,0,2,,,,,,,,,,,,,,,0,,,61,70
299760,note_on,0,0,2,,,,,,,,,,,,,,,0,,,49,70
299760,note_on,0,0,2,,,,,,,,,,,,,,,0,,,63,0
299760,note_on,480,0,2,,,,,,,,,,,,,,,0,,,51,0
299760,set_tempo,240,1,0,,,,,,,,,,,,416667,,,,,,,
299850,note_on,90,0,2,,,,,,,,,,,,,,,0,,,61,0
299850,note_on,0,0,2,,,,,,,,,,,,,,,0,,,49,0
299880,note_on,0,0,2,,,,,,,,,,,,,,,0,,,60,70
299880,note_on,30,0,2,,,,,,,,,,,,,,,0,,,48,70
299970,note_on,0,0,2,,,,,,,,,,,,,,,0,,,48,0
299970,note_on,90,0,2,,,,,,,,,,,,,,,0,,,60,0
300000,note_on,0,0,2,,,,,,,,,,,,,,,0,,,61,73
300000,note_on,30,0,2,,,,,,,,,,,,,,,0,,,49,73
300120,note_on,120,0,2,,,,,,,,,,,,,,,0,,,61,0
300120,note_on,0,0,2,,,,,,,,,,,,,,,0,,,49,0
300240,note_on,0,0,2,,,,,,,,,,,,,,,0,,,61,67
300240,note_on,120,0,2,,,,,,,,,,,,,,,0,,,49,67
300360,set_tempo,600,1,0,,,,,,,,,,,,447761,,,,,,,
300420,note_on,0,0,2,,,,,,,,,,,,,,,0,,,49,0
300420,note_on,180,0,2,,,,,,,,,,,,,,,0,,,61,0
300480,note_on,60,0,2,,,,,,,,,,,,,,,0,,,44,68
300480,note_on,0,0,1,,,,,,,,,,,,,,,0,,,77,77
300480,note_on,0,0,2,,,,,,,,,,,,,,,0,,,56,68
300480,note_on,0,0,1,,,,,,,,,,,,,,,0,,,77,0
300480,note_on,0,0,1,,,,,,,,,,,,,,,0,,,65,77
300480,note_on,960,0,1,,,,,,,,,,,,,,,0,,,89,0
300480,set_tempo,120,1,0,,,,,,,,,,,,441176,,,,,,,
300600,set_tempo,120,1,0,,,,,,,,,,,,416667,,,,,,,
300660,note_on,0,0,2,,,,,,,,,,,,,,,0,,,44,0
300660,note_on,180,0,2,,,,,,,,,,,,,,,0,,,56,0
300720,note_on,60,0,2,,,,,,,,,,,,,,,0,,,41,68
300720,note_on,0,0,2,,,,,,,,,,,,,,,0,,,53,68
300900,note_on,180,0,2,,,,,,,,,,,,,,,0,,,53,0
300900,note_on,0,0,2,,,,,,,,,,,,,,,0,,,41,0
300960,note_on,0,0,2,,,,,,,,,,,,,,,0,,,56,68
300960,note_on,60,0,2,,,,,,,,,,,,,,,0,,,44,68
301140,note_on,180,0,2,,,,,,,,,,,,,,,0,,,56,0
301140,note_on,0,0,2,,,,,,,,,,,,,,,0,,,44,0
301200,note_on,60,0,2,,,,,,,,,,,,,,,0,,,49,68
301200,note_on,0,0,2,,,,,,,,,,,,,,,0,,,61,68
301440,note_on,0,0,1,,,,,,,,,,,,,,,0,,,87,90
301440,note_on,0,0,1,,,,,,,,,,,,,,,0,,,75,90
301440,note_on,0,0,1,,,,,,,,,,,,,,,0,,,65,0
301440,note_on,960,0,1,,,,,,,,,,,,,,,0,,,77,0
301440,set_tempo,840,1,0,,,,,,,,,,,,425532,,,,,,,
301680,note_on,0,0,2,,,,,,,,,,,,,,,0,,,60,70
301680,set_tempo,240,1,0,,,,,,,,,,,,416667,,,,,,,
301680,note_on,0,0,2,,,,,,,,,,,,,,,0,,,48,70
301680,note_on,480,0,2,,,,,,,,,,,,,,,0,,,61,0
301680,note_on,0,0,2,,,,,,,,,,,,,,,0,,,49,0
301770,note_on,0,0,2,,,,,,,,,,,,,,,0,,,48,0
301770,note_on,90,0,2,,,,,,,,,,,,,,,0,,,60,0
301800,note_on,0,0,2,,,,,,,,,,,,,,,0,,,59,70
301800,note_on,30,0,2,,,,,,,,,,,,,,,0,,,47,70
301890,note_on,90,0,2,,,,,,,,,,,,,,,0,,,59,0
301890,note_on,0,0,2,,,,,,,,,,,,,,,0,,,47,0
301920,note_on,30,0,2,,,,,,,,,,,,,,,0,,,48,73
301920,note_on,0,0,2,,,,,,,,,,,,,,,0,,,60,73
302040,note_on,120,0,2,,,,,,,,,,,,,,,0,,,60,0
302040,note_on,0,0,2,,,,,,,,,,,,,,,0,,,48,0
302160,note_on,120,0,2,,,,,,,,,,,,,,,0,,,48,67
302160,note_on,0,0,2,,,,,,,,,,,,,,,0,,,60,67
302280,set_tempo,600,1,0,,,,,,,,,,,,447761,,,,,,,
302340,note_on,180,0,2,,,,,,,,,,,,,,,0,,,60,0
302340,note_on,0,0,2,,,,,,,,,,,,,,,0,,,48,0
302400,note_on,0,0,1,,,,,,,,,,,,,,,0,,,63,77
302400,set_tempo,120,1,0,,,,,,,,,,,,441176,,,,,,,
302400,note_on,0,0,1,,,,,,,,,,,,,,,0,,,75,77
302400,note_on,0,0,1,,,,,,,,,,,,,,,0,,,75,0
302400,note_on,960,0,1,,,,,,,,,,,,,,,0,,,87,0
302400,note_on,0,0,2,,,,,,,,,,,,,,,0,,,55,68
302400,note_on,60,0,2,,,,,,,,,,,,,,,0,,,43,68
302520,set_tempo,120,1,0,,,,,,,,,,,,416667,,,,,,,
302580,note_on,0,0,2,,,,,,,,,,,,,,,0,,,43,0
302580,note_on,180,0,2,,,,,,,,,,,,,,,0,,,55,0
302640,note_on,60,0,2,,,,,,,,,,,,,,,0,,,39,68
302640,note_on,0,0,2,,,,,,,,,,,,,,,0,,,51,68
302820,note_on,180,0,2,,,,,,,,,,,,,,,0,,,51,0
302820,note_on,0,0,2,,,,,,,,,,,,,,,0,,,39,0
302880,note_on,60,0,2,,,,,,,,,,,,,,,0,,,43,68
302880,note_on,0,0,2,,,,,,,,,,,,,,,0,,,55,68
303060,note_on,180,0,2,,,,,,,,,,,,,,,0,,,55,0
303060,note_on,0,0,2,,,,,,,,,,,,,,,0,,,43,0
303120,note_on,0,0,2,,,,,,,,,,,,,,,0,,,60,68
303120,note_on,60,0,2,,,,,,,,,,,,,,,0,,,48,68
303360,set_tempo,840,1,0,,,,,,,,,,,,415225,,,,,,,
303360,note_on,0,0,1,,,,,,,,,,,,,,,0,,,73,76
303360,note_on,0,0,1,,,,,,,,,,,,,,,0,,,63,0
303360,note_on,960,0,1,,,,,,,,,,,,,,,0,,,75,0
303360,note_on,0,0,1,,,,,,,,,,,,,,,0,,,85,90
303600,note_on,480,0,2,,,,,,,,,,,,,,,0,,,60,0
303600,note_on,0,0,2,,,,,,,,,,,,,,,0,,,48,0
303600,note_on,0,0,2,,,,,,,,,,,,,,,0,,,46,52
303600,note_on,0,0,2,,,,,,,,,,,,,,,0,,,58,61
303600,set_tempo,240,1,0,,,,,,,,,,,,416667,,,,,,,
303690,note_on,90,0,2,,,,,,,,,,,,,,,0,,,58,0
303690,note_on,0,0,2,,,,,,,,,,,,,,,0,,,46,0
303720,note_on,30,0,2,,,,,,,,,,,,,,,0,,,45,53
303720,note_on,0,0,2,,,,,,,,,,,,,,,0,,,57,63
303720,note_on,360,0,1,,,,,,,,,,,,,,,0,,,85,0
303720,note_on,0,0,1,,,,,,,,,,,,,,,0,,,73,79
303720,note_on,0,0,1,,,,,,,,,,,,,,,0,,,61,67
303720,note_on,0,0,1,,,,,,,,,,,,,,,0,,,73,0
303810,note_on,90,0,2,,,,,,,,,,,,,,,0,,,57,0
303810,note_on,0,0,2,,,,,,,,,,,,,,,0,,,45,0
303840,note_on,0,0,2,,,,,,,,,,,,,,,0,,,58,69
303840,note_on,30,0,2,,,,,,,,,,,,,,,0,,,46,58
303840,note_on,0,0,1,,,,,,,,,,,,,,,0,,,73,79
303840,note_on,120,0,1,,,,,,,,,,,,,,,0,,,73,0
303840,note_on,0,0,1,,,,,,,,,,,,,,,0,,,61,67
303840,note_on,0,0,1,,,,,,,,,,,,,,,0,,,61,0
303960,note_on,0,0,2,,,,,,,,,,,,,,,0,,,46,0
303960,note_on,120,0,2,,,,,,,,,,,,,,,0,,,58,0
304080,note_on,0,0,2,,,,,,,,,,,,,,,0,,,46,60
304080,note_on,120,0,2,,,,,,,,,,,,,,,0,,,34,51
304200,set_tempo,600,1,0,,,,,,,,,,,,447761,,,,,,,
304260,note_on,0,0,2,,,,,,,,,,,,,,,0,,,34,0
304260,note_on,180,0,2,,,,,,,,,,,,,,,0,,,46,0
304320,set_tempo,120,1,0,,,,,,,,,,,,415225,,,,,,,
304320,note_on,60,0,2,,,,,,,,,,,,,,,0,,,46,68
304320,note_on,0,0,1,,,,,,,,,,,,,,,0,,,84,90
304320,note_on,0,0,1,,,,,,,,,,,,,,,0,,,61,0
304320,note_on,480,0,1,,,,,,,,,,,,,,,0,,,73,0
304320,note_on,0,0,2,,,,,,,,,,,,,,,0,,,58,68
304320,note_on,0,0,1,,,,,,,,,,,,,,,0,,,72,76
304440,note_on,120,0,2,,,,,,,,,,,,,,,0,,,58,0
304440,note_on,0,0,2,,,,,,,,,,,,,,,0,,,46,0
304560,note_on,120,0,2,,,,,,,,,,,,,,,0,,,44,52
304560,set_tempo,240,1,0,,,,,,,,,,,,416667,,,,,,,
304560,note_on,0,0,2,,,,,,,,,,,,,,,0,,,56,61
304650,note_on,90,0,2,,,,,,,,,,,,,,,0,,,56,0
304650,note_on,0,0,2,,,,,,,,,,,,,,,0,,,44,0
304680,note_on,0,0,1,,,,,,,,,,,,,,,0,,,72,79
304680,note_on,0,0,1,,,,,,,,,,,,,,,0,,,60,67
304680,note_on,0,0,1,,,,,,,,,,,,,,,0,,,72,0
304680,note_on,360,0,1,,,,,,,,,,,,,,,0,,,84,0
304680,note_on,30,0,2,,,,,,,,,,,,,,,0,,,43,53
304680,note_on,0,0,2,,,,,,,,,,,,,,,0,,,55,63
304770,note_on,0,0,2,,,,,,,,,,,,,,,0,,,43,0
304770,note_on,90,0,2,,,,,,,,,,,,,,,0,,,55,0
304800,note_on,0,0,2,,,,,,,,,,,,,,,0,,,56,69
304800,note_on,30,0,2,,,,,,,,,,,,,,,0,,,44,58
304800,note_on,0,0,1,,,,,,,,,,,,,,,0,,,72,79
304800,note_on,120,0,1,,,,,,,,,,,,,,,0,,,72,0
304800,note_on,0,0,1,,,,,,,,,,,,,,,0,,,60,0
304800,note_on,0,0,1,,,,,,,,,,,,,,,0,,,60,67
304920,note_on,120,0,2,,,,,,,,,,,,,,,0,,,56,0
304920,note_on,0,0,2,,,,,,,,,,,,,,,0,,,44,0
305040,note_on,0,0,2,,,,,,,,,,,,,,,0,,,44,60
305040,note_on,120,0,2,,,,,,,,,,,,,,,0,,,32,51
305160,set_tempo,600,1,0,,,,,,,,,,,,447761,,,,,,,
305220,note_on,0,0,2,,,,,,,,,,,,,,,0,,,32,0
305220,note_on,180,0,2,,,,,,,,,,,,,,,0,,,44,0
305280,note_on,0,0,1,,,,,,,,,,,,,,,0,,,82,90
305280,note_on,60,0,2,,,,,,,,,,,,,,,0,,,44,68
305280,note_on,0,0,2,,,,,,,,,,,,,,,0,,,56,68
305280,note_on,0,0,1,,,,,,,,,,,,,,,0,,,70,76
305280,note_on,0,0,1,,,,,,,,,,,,,,,0,,,60,0
305280,note_on,480,0,1,,,,,,,,,,,,,,,0,,,72,0
305280,set_tempo,120,1,0,,,,,,,,,,,,416667,,,,,,,
305400,note_on,120,0,2,,,,,,,,,,,,,,,0,,,56,0
305400,note_on,0,0,2,,,,,,,,,,,,,,,0,,,44,0
305520,note_on,0,0,2,,,,,,,,,,,,,,,0,,,55,61
305520,set_tempo,240,1,0,,,,,,,,,,,,416667,,,,,,,
305520,note_on,120,0,2,,,,,,,,,,,,,,,0,,,43,52
305610,note_on,90,0,2,,,,,,,,,,,,,,,0,,,55,0
305610,note_on,0,0,2,,,,,,,,,,,,,,,0,,,43,0
305640,note_on,360,0,1,,,,,,,,,,,,,,,0,,,82,0
305640,note_on,30,0,2,,,,,,,,,,,,,,,0,,,42,53
305640,note_on,0,0,1,,,,,,,,,,,,,,,0,,,70,0
305640,note_on,0,0,1,,,,,,,,,,,,,,,0,,,58,67
305640,note_on,0,0,1,,,,,,,,,,,,,,,0,,,70,79
305640,note_on,0,0,2,,,,,,,,,,,,,,,0,,,54,63
305730,note_on,90,0,2,,,,,,,,,,,,,,,0,,,54,0
305730,note_on,0,0,2,,,,,,,,,,,,,,,0,,,42,0
305760,note_on,30,0,2,,,,,,,,,,,,,,,0,,,43,58
305760,note_on,0,0,2,,,,,,,,,,,,,,,0,,,55,69
305760,note_on,120,0,1,,,,,,,,,,,,,,,0,,,70,0
305760,note_on,0,0,1,,,,,,,,,,,,,,,0,,,70,79
305760,note_on,0,0,1,,,,,,,,,,,,,,,0,,,58,0
305760,note_on,0,0,1,,,,,,,,,,,,,,,0,,,58,67
305880,note_on,120,0,2,,,,,,,,,,,,,,,0,,,55,0
305880,note_on,0,0,2,,,,,,,,,,,,,,,0,,,43,0
306000,note_on,120,0,2,,,,,,,,,,,,,,,0,,,31,51
306000,note_on,0,0,2,,,,,,,,,,,,,,,0,,,43,60
306120,set_tempo,600,1,0,,,,,,,,,,,,447761,,,,,,,
306180,note_on,180,0,2,,,,,,,,,,,,,,,0,,,43,0
306180,note_on,0,0,2,,,,,,,,,,,,,,,0,,,31,0
306240,note_on,0,0,1,,,,,,,,,,,,,,,0,,,80,90
306240,note_on,0,0,1,,,,,,,,,,,,,,,0,,,68,76
306240,set_tempo,120,1,0,,,,,,,,,,,,431655,,,,,,,
306240,note_on,0,0,2,,,,,,,,,,,,,,,0,,,55,68
306240,note_on,480,0,1,,,,,,,,,,,,,,,0,,,70,0
306240,note_on,0,0,1,,,,,,,,,,,,,,,0,,,58,0
306240,note_on,0,0,1,,,,,,,,,,,,,,,0,,,75,76
306240,note_on,0,0,1,,,,,,,,,,,,,,,0,,,72,76
306240,note_on,60,0,2,,,,,,,,,,,,,,,0,,,43,68
306360,note_on,0,0,2,,,,,,,,,,,,,,,0,,,43,0
306360,note_on,120,0,2,,,,,,,,,,,,,,,0,,,55,0
306480,note_on,120,0,2,,,,,,,,,,,,,,,0,,,41,52
306480,note_on,0,0,2,,,,,,,,,,,,,,,0,,,53,61
306570,note_on,90,0,2,,,,,,,,,,,,,,,0,,,53,0
306570,note_on,0,0,2,,,,,,,,,,,,,,,0,,,41,0
306600,note_on,360,0,1,,,,,,,,,,,,,,,0,,,80,0
306600,note_on,0,0,1,,,,,,,,,,,,,,,0,,,75,0
306600,note_on,0,0,1,,,,,,,,,,,,,,,0,,,72,0
306600,note_on,0,0,1,,,,,,,,,,,,,,,0,,,68,0
306600,note_on,0,0,1,,,,,,,,,,,,,,,0,,,63,67
306600,note_on,0,0,1,,,,,,,,,,,,,,,0,,,68,79
306600,note_on,0,0,1,,,,,,,,,,,,,,,0,,,60,67
306600,note_on,0,0,1,,,,,,,,,,,,,,,0,,,56,67
306600,note_on,0,0,2,,,,,,,,,,,,,,,0,,,52,63
306600,note_on,30,0,2,,,,,,,,,,,,,,,0,,,40,53
306690,note_on,0,0,2,,,,,,,,,,,,,,,0,,,40,0
306690,note_on,90,0,2,,,,,,,,,,,,,,,0,,,52,0
306720,note_on,0,0,2,,,,,,,,,,,,,,,0,,,53,69
306720,note_on,0,0,1,,,,,,,,,,,,,,,0,,,63,0
306720,note_on,0,0,1,,,,,,,,,,,,,,,0,,,60,0
306720,note_on,0,0,1,,,,,,,,,,,,,,,0,,,56,0
306720,note_on,0,0,1,,,,,,,,,,,,,,,0,,,60,67
306720,set_tempo,480,1,0,,,,,,,,,,,,439560,,,,,,,
306720,note_on,0,0,1,,,,,,,,,,,,,,,0,,,56,67
306720,note_on,0,0,1,,,,,,,,,,,,,,,0,,,68,79
306720,note_on,30,0,2,,,,,,,,,,,,,,,0,,,41,58
306720,note_on,0,0,1,,,,,,,,,,,,,,,0,,,63,67
306720,note_on,120,0,1,,,,,,,,,,,,,,,0,,,68,0
306840,note_on,0,0,2,,,,,,,,,,,,,,,0,,,41,0
306840,note_on,120,0,2,,,,,,,,,,,,,,,0,,,53,0
306960,set_tempo,240,1,0,,,,,,,,,,,,452830,,,,,,,
306960,note_on,0,0,2,,,,,,,,,,,,,,,0,,,54,68
306960,note_on,120,0,2,,,,,,,,,,,,,,,0,,,42,64
307080,note_on,120,0,2,,,,,,,,,,,,,,,0,,,54,0
307080,note_on,0,0,2,,,,,,,,,,,,,,,0,,,42,0
307200,note_on,120,0,2,,,,,,,,,,,,,,,0,,,43,58
307200,note_on,0,0,2,,,,,,,,,,,,,,,0,,,47,58
307200,note_on,0,0,2,,,,,,,,,,,,,,,0,,,50,58
307200,note_on,0,0,2,,,,,,,,,,,,,,,0,,,55,69
307200,note_on,0,0,1,,,,,,,,,,,,,,,0,,,62,73
307200,note_on,0,0,1,,,,,,,,,,,,,,,0,,,67,87
307200,note_on,480,0,1,,,,,,,,,,,,,,,0,,,68,0
307200,note_on,0,0,1,,,,,,,,,,,,,,,0,,,63,0
307200,note_on,0,0,1,,,,,,,,,,,,,,,0,,,60,0
307200,note_on,0,0,1,,,,,,,,,,,,,,,0,,,56,0
307200,note_on,0,0,1,,,,,,,,,,,,,,,0,,,59,73
307640,set_tempo,680,1,0,,,,,,,,,,,,441176,,,,,,,
307680,note_on,0,0,1,,,,,,,,,,,,,,,0,,,59,0
307680,note_on,0,0,1,,,,,,,,,,,,,,,0,,,62,0
307680,note_on,480,0,1,,,,,,,,,,,,,,,0,,,67,0
307680,note_on,0,0,1,,,,,,,,,,,,,,,0,,,74,78
307680,note_on,0,0,2,,,,,,,,,,,,,,,0,,,55,66
307680,note_on,0,0,2,,,,,,,,,,,,,,,0,,,50,55
307680,note_on,0,0,2,,,,,,,,,,,,,,,0,,,47,55
307680,note_on,0,0,1,,,,,,,,,,,,,,,0,,,62,66
307680,note_on,0,0,2,,,,,,,,,,,,,,,0,,,50,0
307680,note_on,0,0,2,,,,,,,,,,,,,,,0,,,43,55
307680,note_on,0,0,2,,,,,,,,,,,,,,,0,,,43,0
307680,note_on,480,0,2,,,,,,,,,,,,,,,0,,,55,0
307680,note_on,0,0,2,,,,,,,,,,,,,,,0,,,47,0
307714,control_change,34,0,2,,,,,,,,,,,,,,,0,64,127,,
307720,set_tempo,80,1,0,,,,,,,,,,,,439560,,,,,,,
307760,set_tempo,40,1,0,,,,,,,,,,,,437956,,,,,,,
307770,note_on,0,0,1,,,,,,,,,,,,,,,0,,,62,0
307770,note_on,90,0,1,,,,,,,,,,,,,,,0,,,74,0
307800,note_on,30,0,1,,,,,,,,,,,,,,,0,,,63,68
307800,note_on,0,0,1,,,,,,,,,,,,,,,0,,,75,80
307800,set_tempo,40,1,0,,,,,,,,,,,,436364,,,,,,,
307880,set_tempo,80,1,0,,,,,,,,,,,,434783,,,,,,,
307890,note_on,90,0,1,,,,,,,,,,,,,,,0,,,75,0
307890,note_on,0,0,1,,,,,,,,,,,,,,,0,,,63,0
307920,note_on,30,0,1,,,,,,,,,,,,,,,0,,,65,70
307920,set_tempo,40,1,0,,,,,,,,,,,,433213,,,,,,,
307920,note_on,0,0,1,,,,,,,,,,,,,,,0,,,77,82
307920,note_on,0,0,2,,,,,,,,,,,,,,,0,,,50,0
307920,note_on,206,0,2,,,,,,,,,,,,,,,0,,,55,0
307920,note_on,0,0,2,,,,,,,,,,,,,,,0,,,43,0
307920,note_on,0,0,2,,,,,,,,,,,,,,,0,,,47,0
307920,note_on,0,0,2,,,,,,,,,,,,,,,0,,,43,55
307920,note_on,0,0,2,,,,,,,,,,,,,,,0,,,47,55
307920,note_on,0,0,2,,,,,,,,,,,,,,,0,,,55,66
307920,note_on,0,0,2,,,,,,,,,,,,,,,0,,,50,55
307930,control_change,10,0,2,,,,,,,,,,,,,,,0,64,0,,
307960,set_tempo,40,1,0,,,,,,,,,,,,431655,,,,,,,
307971,control_change,41,0,2,,,,,,,,,,,,,,,0,64,127,,
308010,note_on,90,0,1,,,,,,,,,,,,,,,0,,,77,0
308010,note_on,0,0,1,,,,,,,,,,,,,,,0,,,65,0
308040,set_tempo,80,1,0,,,,,,,,,,,,430108,,,,,,,
308040,note_on,30,0,1,,,,,,,,,,,,,,,0,,,67,72
308040,note_on,0,0,1,,,,,,,,,,,,,,,0,,,79,86
308080,set_tempo,40,1,0,,,,,,,,,,,,428571,,,,,,,
308120,set_tempo,40,1,0,,,,,,,,,,,,427046,,,,,,,
308130,note_on,0,0,1,,,,,,,,,,,,,,,0,,,67,0
308130,note_on,90,0,1,,,,,,,,,,,,,,,0,,,79,0
308160,set_tempo,40,1,0,,,,,,,,,,,,441176,,,,,,,
308160,note_on,0,0,2,,,,,,,,,,,,,,,0,,,48,69
308160,note_on,0,0,2,,,,,,,,,,,,,,,0,,,44,58
308160,note_on,0,0,1,,,,,,,,,,,,,,,0,,,80,88
308160,note_on,0,0,2,,,,,,,,,,,,,,,0,,,43,0
308160,note_on,30,0,1,,,,,,,,,,,,,,,0,,,68,74
308160,note_on,0,0,2,,,,,,,,,,,,,,,0,,,47,0
308160,note_on,0,0,2,,,,,,,,,,,,,,,0,,,50,0
308160,note_on,0,0,2,,,,,,,,,,,,,,,0,,,36,58
308160,note_on,0,0,2,,,,,,,,,,,,,,,0,,,39,58
308160,note_on,189,0,2,,,,,,,,,,,,,,,0,,,55,0
308169,control_change,9,0,2,,,,,,,,,,,,,,,0,64,0,,
308640,note_on,0,0,1,,,,,,,,,,,,,,,0,,,80,80
308640,note_on,0,0,1,,,,,,,,,,,,,,,0,,,72,68
308640,note_on,0,0,1,,,,,,,,,,,,,,,0,,,68,0
308640,note_on,480,0,1,,,,,,,,,,,,,,,0,,,80,0
308640,note_on,0,0,1,,,,,,,,,,,,,,,0,,,75,68
308640,note_on,471,0,2,,,,,,,,,,,,,,,0,,,48,0
308640,set_tempo,480,1,0,,,,,,,,,,,,446097,,,,,,,
308640,note_on,0,0,2,,,,,,,,,,,,,,,0,,,36,0
308640,note_on,0,0,2,,,,,,,,,,,,,,,0,,,39,0
308640,note_on,0,0,2,,,,,,,,,,,,,,,0,,,44,0
308640,note_on,0,0,2,,,,,,,,,,,,,,,0,,,36,57
308640,note_on,0,0,2,,,,,,,,,,,,,,,0,,,48,68
308720,set_tempo,80,1,0,,,,,,,,,,,,444444,,,,,,,
308730,note_on,90,0,2,,,,,,,,,,,,,,,0,,,48,0
308730,note_on,0,0,2,,,,,,,,,,,,,,,0,,,36,0
308760,note_on,30,0,2,,,,,,,,,,,,,,,0,,,38,60
308760,note_on,0,0,2,,,,,,,,,,,,,,,0,,,50,72
308800,set_tempo,80,1,0,,,,,,,,,,,,442804,,,,,,,
308850,note_on,0,0,2,,,,,,,,,,,,,,,0,,,38,0
308850,note_on,90,0,2,,,,,,,,,,,,,,,0,,,50,0
308880,note_on,0,0,2,,,,,,,,,,,,,,,0,,,51,75
308880,set_tempo,80,1,0,,,,,,,,,,,,441176,,,,,,,
308880,note_on,0,0,1,,,,,,,,,,,,,,,0,,,80,78
308880,note_on,0,0,1,,,,,,,,,,,,,,,0,,,75,66
308880,note_on,30,0,2,,,,,,,,,,,,,,,0,,,39,63
308880,note_on,0,0,1,,,,,,,,,,,,,,,0,,,72,0
308880,note_on,0,0,1,,,,,,,,,,,,,,,0,,,72,66
308880,note_on,240,0,1,,,,,,,,,,,,,,,0,,,80,0
308880,note_on,0,0,1,,,,,,,,,,,,,,,0,,,75,0
308960,set_tempo,80,1,0,,,,,,,,,,,,439560,,,,,,,
308970,note_on,0,0,2,,,,,,,,,,,,,,,0,,,39,0
308970,note_on,90,0,2,,,,,,,,,,,,,,,0,,,51,0
309000,note_on,30,0,2,,,,,,,,,,,,,,,0,,,41,67
309000,note_on,0,0,2,,,,,,,,,,,,,,,0,,,53,78
309000,set_tempo,40,1,0,,,,,,,,,,,,474308,,,,,,,
309090,note_on,0,0,2,,,,,,,,,,,,,,,0,,,41,0
309090,note_on,90,0,2,,,,,,,,,,,,,,,0,,,53,0
309120,set_tempo,120,1,0,,,,,,,,,,,,454545,,,,,,,
309120,note_on,0,0,1,,,,,,,,,,,,,,,0,,,75,0
309120,note_on,0,0,1,,,,,,,,,,,,,,,0,,,72,0
309120,note_on,0,0,1,,,,,,,,,,,,,,,0,,,71,73
309120,note_on,0,0,1,,,,,,,,,,,,,,,0,,,74,73
309120,note_on,0,0,1,,,,,,,,,,,,,,,0,,,79,87
309120,note_on,30,0,2,,,,,,,,,,,,,,,0,,,43,58
309120,note_on,0,0,2,,,,,,,,,,,,,,,0,,,55,69
309120,note_on,240,0,1,,,,,,,,,,,,,,,0,,,80,0
309560,set_tempo,440,1,0,,,,,,,,,,,,441176,,,,,,,
309600,note_on,0,0,2,,,,,,,,,,,,,,,0,,,62,55
309600,note_on,480,0,2,,,,,,,,,,,,,,,0,,,55,0
309600,note_on,0,0,2,,,,,,,,,,,,,,,0,,,43,0
309600,note_on,0,0,1,,,,,,,,,,,,,,,0,,,86,78
309600,note_on,0,0,2,,,,,,,,,,,,,,,0,,,59,55
309600,note_on,0,0,1,,,,,,,,,,,,,,,0,,,74,66
309600,note_on,0,0,1,,,,,,,,,,,,,,,0,,,71,0
309600,note_on,0,0,1,,,,,,,,,,,,,,,0,,,74,0
309600,note_on,480,0,1,,,,,,,,,,,,,,,0,,,79,0
309600,note_on,0,0,2,,,,,,,,,,,,,,,0,,,55,55
309600,note_on,0,0,2,,,,,,,,,,,,,,,0,,,67,66
309629,control_change,29,0,2,,,,,,,,,,,,,,,0,64,127,,
309640,set_tempo,80,1,0,,,,,,,,,,,,439560,,,,,,,
309680,set_tempo,40,1,0,,,,,,,,,,,,437956,,,,,,,
309690,note_on,0,0,1,,,,,,,,,,,,,,,0,,,74,0
309690,note_on,90,0,1,,,,,,,,,,,,,,,0,,,86,0
309720,note_on,30,0,1,,,,,,,,,,,,,,,0,,,75,68
309720,note_on,0,0,1,,,,,,,,,,,,,,,0,,,87,80
309720,set_tempo,40,1,0,,,,,,,,,,,,436364,,,,,,,
309800,set_tempo,80,1,0,,,,,,,,,,,,434783,,,,,,,
309810,note_on,90,0,1,,,,,,,,,,,,,,,0,,,87,0
309810,note_on,0,0,1,,,,,,,,,,,,,,,0,,,75,0
309840,note_on,0,0,2,,,,,,,,,,,,,,,0,,,62,55
309840,set_tempo,40,1,0,,,,,,,,,,,,433213,,,,,,,
309840,note_on,211,0,2,,,,,,,,,,,,,,,0,,,67,0
309840,note_on,0,0,2,,,,,,,,,,,,,,,0,,,55,0
309840,note_on,0,0,2,,,,,,,,,,,,,,,0,,,59,0
309840,note_on,0,0,2,,,,,,,,,,,,,,,0,,,62,0
309840,note_on,0,0,2,,,,,,,,,,,,,,,0,,,55,55
309840,note_on,0,0,2,,,,,,,,,,,,,,,0,,,67,66
309840,note_on,0,0,2,,,,,,,,,,,,,,,0,,,59,55
309840,note_on,0,0,1,,,,,,,,,,,,,,,0,,,89,82
309840,note_on,30,0,1,,,,,,,,,,,,,,,0,,,77,70
309850,control_change,10,0,2,,,,,,,,,,,,,,,0,64,0,,
309880,set_tempo,40,1,0,,,,,,,,,,,,431655,,,,,,,
309903,control_change,53,0,2,,,,,,,,,,,,,,,0,64,127,,
309930,note_on,0,0,1,,,,,,,,,,,,,,,0,,,77,0
309930,note_on,90,0,1,,,,,,,,,,,,,,,0,,,89,0
309960,note_on,30,0,1,,,,,,,,,,,,,,,0,,,79,72
309960,note_on,0,0,1,,,,,,,,,,,,,,,0,,,91,86
309960,set_tempo,80,1,0,,,,,,,,,,,,430108,,,,,,,
310000,set_tempo,40,1,0,,,,,,,,,,,,428571,,,,,,,
310040,set_tempo,40,1,0,,,,,,,,,,,,427046,,,,,,,
310050,note_on,0,0,1,,,,,,,,,,,,,,,0,,,79,0
310050,note_on,90,0,1,,,,,,,,,,,,,,,0,,,91,0
310080,note_on,0,0,2,,,,,,,,,,,,,,,0,,,60,69
310080,note_on,0,0,2,,,,,,,,,,,,,,,0,,,62,0
310080,note_on,0,0,2,,,,,,,,,,,,,,,0,,,59,0
310080,note_on,0,0,2,,,,,,,,,,,,,,,0,,,48,58
310080,note_on,0,0,2,,,,,,,,,,,,,,,0,,,55,0
310080,note_on,0,0,2,,,,,,,,,,,,,,,0,,,56,58
310080,note_on,0,0,2,,,,,,,,,,,,,,,0,,,51,58
310080,note_on,0,0,1,,,,,,,,,,,,,,,0,,,92,88
310080,note_on,30,0,1,,,,,,,,,,,,,,,0,,,80,74
310080,set_tempo,40,1,0,,,,,,,,,,,,441176,,,,,,,
310080,note_on,177,0,2,,,,,,,,,,,,,,,0,,,67,0
310090,control_change,10,0,2,,,,,,,,,,,,,,,0,64,0,,
310560,note_on,0,0,1,,,,,,,,,,,,,,,0,,,80,0
310560,note_on,480,0,1,,,,,,,,,,,,,,,0,,,92,0
310560,note_on,0,0,1,,,,,,,,,,,,,,,0,,,87,68
310560,set_tempo,480,1,0,,,,,,,,,,,,446097,,,,,,,
310560,note_on,0,0,1,,,,,,,,,,,,,,,0,,,84,68
310560,note_on,0,0,1,,,,,,,,,,,,,,,0,,,92,80
310560,note_on,470,0,2,,,,,,,,,,,,,,,0,,,60,0
310560,note_on,0,0,2,,,,,,,,,,,,,,,0,,,48,0
310560,note_on,0,0,2,,,,,,,,,,,,,,,0,,,51,0
310560,note_on,0,0,2,,,,,,,,,,,,,,,0,,,56,0
310560,note_on,0,0,2,,,,,,,,,,,,,,,0,,,48,57
310560,note_on,0,0,2,,,,,,,,,,,,,,,0,,,60,68
310640,set_tempo,80,1,0,,,,,,,,,,,,444444,,,,,,,
310650,note_on,90,0,2,,,,,,,,,,,,,,,0,,,60,0
310650,note_on,0,0,2,,,,,,,,,,,,,,,0,,,48,0
310680,note_on,30,0,2,,,,,,,,,,,,,,,0,,,50,60
310680,note_on,0,0,2,,,,,,,,,,,,,,,0,,,62,72
310720,set_tempo,80,1,0,,,,,,,,,,,,442804,,,,,,,
310770,note_on,90,0,2,,,,,,,,,,,,,,,0,,,62,0
310770,note_on,0,0,2,,,,,,,,,,,,,,,0,,,50,0
310800,set_tempo,80,1,0,,,,,,,,,,,,441176,,,,,,,
310800,note_on,240,0,1,,,,,,,,,,,,,,,0,,,92,0
310800,note_on,0,0,1,,,,,,,,,,,,,,,0,,,87,0
310800,note_on,0,0,1,,,,,,,,,,,,,,,0,,,84,0
310800,note_on,0,0,2,,,,,,,,,,,,,,,0,,,63,75
310800,note_on,0,0,1,,,,,,,,,,,,,,,0,,,87,66
310800,note_on,0,0,1,,,,,,,,,,,,,,,0,,,92,78
310800,note_on,30,0,2,,,,,,,,,,,,,,,0,,,51,63
310800,note_on,0,0,1,,,,,,,,,,,,,,,0,,,84,66
310880,set_tempo,80,1,0,,,,,,,,,,,,439560,,,,,,,
310890,note_on,0,0,2,,,,,,,,,,,,,,,0,,,51,0
310890,note_on,90,0,2,,,,,,,,,,,,,,,0,,,63,0
310920,set_tempo,40,1,0,,,,,,,,,,,,472441,,,,,,,
310920,note_on,0,0,2,,,,,,,,,,,,,,,0,,,65,78
310920,note_on,30,0,2,,,,,,,,,,,,,,,0,,,53,67
311010,note_on,90,0,2,,,,,,,,,,,,,,,0,,,65,0
311010,note_on,0,0,2,,,,,,,,,,,,,,,0,,,53,0
311020,set_tempo,100,1,0,,,,,,,,,,,,456274,,,,,,,
311040,note_on,0,0,1,,,,,,,,,,,,,,,0,,,86,78
311040,note_on,0,0,1,,,,,,,,,,,,,,,0,,,74,66
311040,note_on,0,0,2,,,,,,,,,,,,,,,0,,,67,66
311040,note_on,0,0,2,,,,,,,,,,,,,,,0,,,59,55
311040,note_on,0,0,2,,,,,,,,,,,,,,,0,,,62,55
311040,note_on,0,0,1,,,,,,,,,,,,,,,0,,,87,0
311040,note_on,240,0,1,,,,,,,,,,,,,,,0,,,92,0
311040,note_on,0,0,1,,,,,,,,,,,,,,,0,,,84,0
311040,note_on,30,0,2,,,,,,,,,,,,,,,0,,,55,55
311069,control_change,29,0,2,,,,,,,,,,,,,,,0,64,127,,
311080,set_tempo,60,1,0,,,,,,,,,,,,454545,,,,,,,
311120,set_tempo,40,1,0,,,,,,,,,,,,452830,,,,,,,
311130,note_on,90,0,1,,,,,,,,,,,,,,,0,,,86,0
311130,note_on,0,0,1,,,,,,,,,,,,,,,0,,,74,0
311160,note_on,0,0,1,,,,,,,,,,,,,,,0,,,87,80
311160,set_tempo,40,1,0,,,,,,,,,,,,451128,,,,,,,
311160,note_on,30,0,1,,,,,,,,,,,,,,,0,,,75,68
311200,set_tempo,40,1,0,,,,,,,,,,,,449438,,,,,,,
311240,set_tempo,40,1,0,,,,,,,,,,,,447761,,,,,,,
311250,note_on,0,0,1,,,,,,,,,,,,,,,0,,,75,0
311250,note_on,90,0,1,,,,,,,,,,,,,,,0,,,87,0
311280,note_on,0,0,1,,,,,,,,,,,,,,,0,,,89,82
311280,note_on,30,0,1,,,,,,,,,,,,,,,0,,,77,70
311300,set_tempo,60,1,0,,,,,,,,,,,,446097,,,,,,,
311340,set_tempo,40,1,0,,,,,,,,,,,,444444,,,,,,,
311370,note_on,0,0,1,,,,,,,,,,,,,,,0,,,77,0
311370,note_on,90,0,1,,,,,,,,,,,,,,,0,,,89,0
311380,set_tempo,40,1,0,,,,,,,,,,,,442804,,,,,,,
311400,note_on,0,0,1,,,,,,,,,,,,,,,0,,,91,86
311400,note_on,30,0,1,,,,,,,,,,,,,,,0,,,79,72
311400,set_tempo,20,1,0,,,,,,,,,,,,491803,,,,,,,
311490,note_on,90,0,1,,,,,,,,,,,,,,,0,,,91,0
311490,note_on,0,0,1,,,,,,,,,,,,,,,0,,,79,0
311520,note_on,451,0,2,,,,,,,,,,,,,,,0,,,67,0
311520,note_on,0,0,2,,,,,,,,,,,,,,,0,,,59,0
311520,note_on,0,0,2,,,,,,,,,,,,,,,0,,,62,0
311520,note_on,0,0,2,,,,,,,,,,,,,,,0,,,48,57
311520,note_on,0,0,2,,,,,,,,,,,,,,,0,,,55,0
311520,note_on,0,0,2,,,,,,,,,,,,,,,0,,,60,68
311520,set_tempo,120,1,0,,,,,,,,,,,,456274,,,,,,,
311520,note_on,30,0,1,,,,,,,,,,,,,,,0,,,87,74
311520,note_on,0,0,1,,,,,,,,,,,,,,,0,,,84,74
311520,note_on,0,0,1,,,,,,,,,,,,,,,0,,,80,74
311520,note_on,0,0,1,,,,,,,,,,,,,,,0,,,92,88
311560,control_change,40,0,2,,,,,,,,,,,,,,,0,64,0,,
311580,set_tempo,60,1,0,,,,,,,,,,,,454545,,,,,,,
311610,note_on,50,0,2,,,,,,,,,,,,,,,0,,,60,0
311610,note_on,0,0,2,,,,,,,,,,,,,,,0,,,48,0
311620,set_tempo,40,1,0,,,,,,,,,,,,452830,,,,,,,
311640,note_on,30,0,2,,,,,,,,,,,,,,,0,,,50,60
311640,note_on,0,0,2,,,,,,,,,,,,,,,0,,,62,72
311680,set_tempo,60,1,0,,,,,,,,,,,,451128,,,,,,,
311720,set_tempo,40,1,0,,,,,,,,,,,,449438,,,,,,,
311730,note_on,90,0,2,,,,,,,,,,,,,,,0,,,62,0
311730,note_on,0,0,2,,,,,,,,,,,,,,,0,,,50,0
311760,set_tempo,40,1,0,,,,,,,,,,,,447761,,,,,,,
311760,note_on,30,0,2,,,,,,,,,,,,,,,0,,,51,63
311760,note_on,0,0,2,,,,,,,,,,,,,,,0,,,63,75
311820,set_tempo,60,1,0,,,,,,,,,,,,446097,,,,,,,
311850,note_on,0,0,2,,,,,,,,,,,,,,,0,,,51,0
311850,note_on,90,0,2,,,,,,,,,,,,,,,0,,,63,0
311860,set_tempo,40,1,0,,,,,,,,,,,,444444,,,,,,,
311880,set_tempo,20,1,0,,,,,,,,,,,,485830,,,,,,,
311880,note_on,30,0,2,,,,,,,,,,,,,,,0,,,53,67
311880,note_on,0,0,2,,,,,,,,,,,,,,,0,,,65,78
311970,note_on,90,0,2,,,,,,,,,,,,,,,0,,,65,0
311970,note_on,0,0,2,,,,,,,,,,,,,,,0,,,53,0
312000,note_on,30,0,2,,,,,,,,,,,,,,,0,,,55,55
312000,set_tempo,120,1,0,,,,,,,,,,,,454545,,,,,,,
312000,note_on,0,0,1,,,,,,,,,,,,,,,0,,,86,78
312000,note_on,0,0,1,,,,,,,,,,,,,,,0,,,74,66
312000,note_on,0,0,1,,,,,,,,,,,,,,,0,,,80,0
312000,note_on,0,0,1,,,,,,,,,,,,,,,0,,,84,0
312000,note_on,0,0,2,,,,,,,,,,,,,,,0,,,59,55
312000,note_on,480,0,1,,,,,,,,,,,,,,,0,,,92,0
312000,note_on,0,0,2,,,,,,,,,,,,,,,0,,,67,66
312000,note_on,0,0,2,,,,,,,,,,,,,,,0,,,62,55
312000,note_on,0,0,1,,,,,,,,,,,,,,,0,,,87,0
312020,control_change,20,0,2,,,,,,,,,,,,,,,0,64,127,,
312040,set_tempo,40,1,0,,,,,,,,,,,,452830,,,,,,,
312080,set_tempo,40,1,0,,,,,,,,,,,,451128,,,,,,,
312090,note_on,90,0,1,,,,,,,,,,,,,,,0,,,86,0
312090,note_on,0,0,1,,,,,,,,,,,,,,,0,,,74,0
312120,note_on,0,0,1,,,,,,,,,,,,,,,0,,,87,80
312120,note_on,30,0,1,,,,,,,,,,,,,,,0,,,75,68
312120,set_tempo,40,1,0,,,,,,,,,,,,449438,,,,,,,
312160,set_tempo,40,1,0,,,,,,,,,,,,447761,,,,,,,
312200,set_tempo,40,1,0,,,,,,,,,,,,446097,,,,,,,
312210,note_on,90,0,1,,,,,,,,,,,,,,,0,,,87,0
312210,note_on,0,0,1,,,,,,,,,,,,,,,0,,,75,0
312240,note_on,30,0,1,,,,,,,,,,,,,,,0,,,77,70
312240,note_on,0,0,1,,,,,,,,,,,,,,,0,,,89,82
312240,set_tempo,40,1,0,,,,,,,,,,,,444444,,,,,,,
312280,set_tempo,40,1,0,,,,,,,,,,,,442804,,,,,,,
312320,set_tempo,40,1,0,,,,,,,,,,,,441176,,,,,,,
312330,note_on,90,0,1,,,,,,,,,,,,,,,0,,,89,0
312330,note_on,0,0,1,,,,,,,,,,,,,,,0,,,77,0
312360,set_tempo,40,1,0,,,,,,,,,,,,483871,,,,,,,
312360,note_on,0,0,1,,,,,,,,,,,,,,,0,,,91,86
312360,note_on,30,0,1,,,,,,,,,,,,,,,0,,,79,72
312450,note_on,90,0,1,,,,,,,,,,,,,,,0,,,91,0
312450,note_on,0,0,1,,,,,,,,,,,,,,,0,,,79,0
312480,set_tempo,120,1,0,,,,,,,,,,,,452830,,,,,,,
312480,note_on,30,0,1,,,,,,,,,,,,,,,0,,,87,74
312480,note_on,0,0,1,,,,,,,,,,,,,,,0,,,84,74
312480,note_on,0,0,1,,,,,,,,,,,,,,,0,,,92,88
312480,note_on,0,0,2,,,,,,,,,,,,,,,0,,,60,68
312480,note_on,0,0,2,,,,,,,,,,,,,,,0,,,48,57
312480,note_on,0,0,1,,,,,,,,,,,,,,,0,,,80,74
312480,note_on,0,0,2,,,,,,,,,,,,,,,0,,,59,0
312480,note_on,0,0,2,,,,,,,,,,,,,,,0,,,55,0
312480,note_on,0,0,2,,,,,,,,,,,,,,,0,,,62,0
312480,note_on,460,0,2,,,,,,,,,,,,,,,0,,,67,0
312490,control_change,10,0,2,,,,,,,,,,,,,,,0,64,0,,
312540,set_tempo,60,1,0,,,,,,,,,,,,451128,,,,,,,
312570,note_on,80,0,2,,,,,,,,,,,,,,,0,,,60,0
312570,note_on,0,0,2,,,,,,,,,,,,,,,0,,,48,0
312600,set_tempo,60,1,0,,,,,,,,,,,,449438,,,,,,,
312600,note_on,30,0,2,,,,,,,,,,,,,,,0,,,50,60
312600,note_on,0,0,2,,,,,,,,,,,,,,,0,,,62,72
312640,set_tempo,40,1,0,,,,,,,,,,,,447761,,,,,,,
312690,note_on,0,0,2,,,,,,,,,,,,,,,0,,,50,0
312690,note_on,90,0,2,,,,,,,,,,,,,,,0,,,62,0
312700,set_tempo,60,1,0,,,,,,,,,,,,446097,,,,,,,
312720,note_on,30,0,2,,,,,,,,,,,,,,,0,,,51,63
312720,note_on,0,0,2,,,,,,,,,,,,,,,0,,,63,75
312740,set_tempo,40,1,0,,,,,,,,,,,,444444,,,,,,,
312800,set_tempo,60,1,0,,,,,,,,,,,,442804,,,,,,,
312810,note_on,90,0,2,,,,,,,,,,,,,,,0,,,63,0
312810,note_on,0,0,2,,,,,,,,,,,,,,,0,,,51,0
312840,note_on,30,0,2,,,,,,,,,,,,,,,0,,,53,67
312840,note_on,0,0,2,,,,,,,,,,,,,,,0,,,65,78
312840,set_tempo,40,1,0,,,,,,,,,,,,487805,,,,,,,
312930,note_on,0,0,2,,,,,,,,,,,,,,,0,,,53,0
312930,note_on,90,0,2,,,,,,,,,,,,,,,0,,,65,0
312960,note_on,0,0,2,,,,,,,,,,,,,,,0,,,67,66
312960,note_on,0,0,2,,,,,,,,,,,,,,,0,,,62,55
312960,note_on,0,0,2,,,,,,,,,,,,,,,0,,,59,55
312960,note_on,30,0,2,,,,,,,,,,,,,,,0,,,55,55
312960,note_on,480,0,1,,,,,,,,,,,,,,,0,,,92,0
312960,note_on,0,0,1,,,,,,,,,,,,,,,0,,,74,78
312960,note_on,0,0,1,,,,,,,,,,,,,,,0,,,80,0
312960,set_tempo,120,1,0,,,,,,,,,,,,458015,,,,,,,
312960,note_on,0,0,1,,,,,,,,,,,,,,,0,,,87,0
312960,note_on,0,0,1,,,,,,,,,,,,,,,0,,,84,0
312994,control_change,34,0,2,,,,,,,,,,,,,,,0,64,127,,
313012,set_tempo,52,1,0,,,,,,,,,,,,456274,,,,,,,
313040,set_tempo,28,1,0,,,,,,,,,,,,452830,,,,,,,
313050,note_on,90,0,1,,,,,,,,,,,,,,,0,,,74,0
313080,set_tempo,40,1,0,,,,,,,,,,,,451128,,,,,,,
313080,note_on,30,0,1,,,,,,,,,,,,,,,0,,,75,80
313120,set_tempo,40,1,0,,,,,,,,,,,,449438,,,,,,,
313160,set_tempo,40,1,0,,,,,,,,,,,,447761,,,,,,,
313170,note_on,90,0,1,,,,,,,,,,,,,,,0,,,75,0
313200,note_on,30,0,1,,,,,,,,,,,,,,,0,,,77,82
313220,set_tempo,60,1,0,,,,,,,,,,,,446097,,,,,,,
313260,set_tempo,40,1,0,,,,,,,,,,,,444444,,,,,,,
313290,note_on,90,0,1,,,,,,,,,,,,,,,0,,,77,0
313300,set_tempo,40,1,0,,,,,,,,,,,,442804,,,,,,,
313320,note_on,30,0,1,,,,,,,,,,,,,,,0,,,79,87
313320,set_tempo,20,1,0,,,,,,,,,,,,491803,,,,,,,
313410,note_on,90,0,1,,,,,,,,,,,,,,,0,,,79,0
313440,set_tempo,120,1,0,,,,,,,,,,,,483871,,,,,,,
313440,note_on,30,0,1,,,,,,,,,,,,,,,0,,,75,76
313440,note_on,0,0,1,,,,,,,,,,,,,,,0,,,68,76
313440,note_on,0,0,1,,,,,,,,,,,,,,,0,,,80,90
313440,note_on,446,0,2,,,,,,,,,,,,,,,0,,,67,0
313440,note_on,0,0,2,,,,,,,,,,,,,,,0,,,55,0
313440,note_on,0,0,2,,,,,,,,,,,,,,,0,,,59,0
313440,note_on,0,0,2,,,,,,,,,,,,,,,0,,,62,0
313440,note_on,0,0,2,,,,,,,,,,,,,,,0,,,36,58
313440,note_on,0,0,2,,,,,,,,,,,,,,,0,,,48,69
313440,note_on,0,0,1,,,,,,,,,,,,,,,0,,,72,76
313449,control_change,9,0,2,,,,,,,,,,,,,,,0,64,0,,
313480,set_tempo,40,1,0,,,,,,,,,,,,481928,,,,,,,
313504,set_tempo,24,1,0,,,,,,,,,,,,480000,,,,,,,
313530,note_on,81,0,2,,,,,,,,,,,,,,,0,,,48,0
313530,note_on,0,0,2,,,,,,,,,,,,,,,0,,,36,0
313544,set_tempo,40,1,0,,,,,,,,,,,,478088,,,,,,,
313560,note_on,30,0,2,,,,,,,,,,,,,,,0,,,38,63
313560,note_on,0,0,2,,,,,,,,,,,,,,,0,,,50,74
313572,set_tempo,28,1,0,,,,,,,,,,,,476190,,,,,,,
313600,set_tempo,28,1,0,,,,,,,,,,,,474308,,,,,,,
313640,set_tempo,40,1,0,,,,,,,,,,,,472441,,,,,,,
313650,note_on,0,0,2,,,,,,,,,,,,,,,0,,,38,0
313650,note_on,90,0,2,,,,,,,,,,,,,,,0,,,50,0
313664,set_tempo,24,1,0,,,,,,,,,,,,470588,,,,,,,
313680,note_on,30,0,2,,,,,,,,,,,,,,,0,,,39,66
313680,note_on,0,0,2,,,,,,,,,,,,,,,0,,,51,78
313692,set_tempo,28,1,0,,,,,,,,,,,,468750,,,,,,,
313732,set_tempo,40,1,0,,,,,,,,,,,,466926,,,,,,,
313760,set_tempo,28,1,0,,,,,,,,,,,,465116,,,,,,,
313770,note_on,0,0,2,,,,,,,,,,,,,,,0,,,39,0
313770,note_on,90,0,2,,,,,,,,,,,,,,,0,,,51,0
313784,set_tempo,24,1,0,,,,,,,,,,,,463320,,,,,,,
313800,note_on,30,0,2,,,,,,,,,,,,,,,0,,,41,70
313800,note_on,0,0,2,,,,,,,,,,,,,,,0,,,53,82
313800,set_tempo,16,1,0,,,,,,,,,,,,552995,,,,,,,
313890,note_on,90,0,2,,,,,,,,,,,,,,,0,,,53,0
313890,note_on,0,0,2,,,,,,,,,,,,,,,0,,,41,0
313920,set_tempo,120,1,0,,,,,,,,,,,,512821,,,,,,,
313920,note_on,30,0,2,,,,,,,,,,,,,,,0,,,43,58
313920,note_on,0,0,2,,,,,,,,,,,,,,,0,,,47,58
313920,note_on,0,0,2,,,,,,,,,,,,,,,0,,,50,58
313920,note_on,0,0,1,,,,,,,,,,,,,,,0,,,74,84
313920,note_on,0,0,1,,,,,,,,,,,,,,,0,,,62,70
313920,note_on,480,0,1,,,,,,,,,,,,,,,0,,,80,0
313920,note_on,0,0,2,,,,,,,,,,,,,,,0,,,55,70
313920,note_on,0,0,1,,,,,,,,,,,,,,,0,,,68,0
313920,note_on,0,0,1,,,,,,,,,,,,,,,0,,,75,0
313920,note_on,0,0,1,,,,,,,,,,,,,,,0,,,72,0
313960,set_tempo,40,1,0,,,,,,,,,,,,510638,,,,,,,
313984,set_tempo,24,1,0,,,,,,,,,,,,508475,,,,,,,
314010,note_on,90,0,1,,,,,,,,,,,,,,,0,,,74,0
314010,note_on,0,0,1,,,,,,,,,,,,,,,0,,,62,0
314012,set_tempo,28,1,0,,,,,,,,,,,,506329,,,,,,,
314017,control_change,97,0,2,,,,,,,,,,,,,,,0,64,127,,
314040,set_tempo,28,1,0,,,,,,,,,,,,504202,,,,,,,
314040,note_on,30,0,1,,,,,,,,,,,,,,,0,,,63,73
314040,note_on,0,0,1,,,,,,,,,,,,,,,0,,,75,87
314080,set_tempo,40,1,0,,,,,,,,,,,,502092,,,,,,,
314104,set_tempo,24,1,0,,,,,,,,,,,,500000,,,,,,,
314130,note_on,90,0,1,,,,,,,,,,,,,,,0,,,75,0
314130,note_on,0,0,1,,,,,,,,,,,,,,,0,,,63,0
314132,set_tempo,28,1,0,,,,,,,,,,,,497925,,,,,,,
314160,note_on,30,0,1,,,,,,,,,,,,,,,0,,,65,76
314160,note_on,0,0,1,,,,,,,,,,,,,,,0,,,77,90
314160,set_tempo,28,1,0,,,,,,,,,,,,495868,,,,,,,
314200,set_tempo,40,1,0,,,,,,,,,,,,493827,,,,,,,
314224,set_tempo,24,1,0,,,,,,,,,,,,491803,,,,,,,
314250,note_on,0,0,1,,,,,,,,,,,,,,,0,,,65,0
314250,note_on,90,0,1,,,,,,,,,,,,,,,0,,,77,0
314252,set_tempo,28,1,0,,,,,,,,,,,,489796,,,,,,,
314280,set_tempo,28,1,0,,,,,,,,,,,,563380,,,,,,,
314280,note_on,0,0,1,,,,,,,,,,,,,,,0,,,79,94
314280,note_on,30,0,1,,,,,,,,,,,,,,,0,,,67,78
314370,note_on,0,0,1,,,,,,,,,,,,,,,0,,,67,0
314370,note_on,90,0,1,,,,,,,,,,,,,,,0,,,79,0
314400,set_tempo,120,1,0,,,,,,,,,,,,517241,,,,,,,
314400,note_on,0,0,1,,,,,,,,,,,,,,,0,,,80,97
314400,note_on,0,0,1,,,,,,,,,,,,,,,0,,,68,81
314400,note_on,0,0,1,,,,,,,,,,,,,,,0,,,72,81
314400,note_on,30,0,1,,,,,,,,,,,,,,,0,,,75,81
314400,note_on,383,0,2,,,,,,,,,,,,,,,0,,,55,0
314400,note_on,0,0,2,,,,,,,,,,,,,,,0,,,43,0
314400,note_on,0,0,2,,,,,,,,,,,,,,,0,,,47,0
314400,note_on,0,0,2,,,,,,,,,,,,,,,0,,,50,0
314400,note_on,0,0,2,,,,,,,,,,,,,,,0,,,36,64
314400,note_on,0,0,2,,,,,,,,,,,,,,,0,,,48,75
314410,control_change,10,0,2,,,,,,,,,,,,,,,0,64,0,,
314412,set_tempo,12,1,0,,,,,,,,,,,,515021,,,,,,,
314440,set_tempo,28,1,0,,,,,,,,,,,,517241,,,,,,,
314452,set_tempo,12,1,0,,,,,,,,,,,,519481,,,,,,,
314469,control_change,59,0,2,,,,,,,,,,,,,,,0,64,127,,
314480,set_tempo,28,1,0,,,,,,,,,,,,521739,,,,,,,
314490,note_on,21,0,2,,,,,,,,,,,,,,,0,,,48,0
314490,note_on,0,0,2,,,,,,,,,,,,,,,0,,,36,0
314492,set_tempo,12,1,0,,,,,,,,,,,,524017,,,,,,,
314520,set_tempo,28,1,0,,,,,,,,,,,,526316,,,,,,,
314520,note_on,30,0,2,,,,,,,,,,,,,,,0,,,38,67
314520,note_on,0,0,2,,,,,,,,,,,,,,,0,,,50,80
314532,set_tempo,12,1,0,,,,,,,,,,,,528634,,,,,,,
314560,set_tempo,28,1,0,,,,,,,,,,,,530973,,,,,,,
314572,set_tempo,12,1,0,,,,,,,,,,,,533333,,,,,,,
314600,set_tempo,28,1,0,,,,,,,,,,,,535714,,,,,,,
314610,note_on,0,0,2,,,,,,,,,,,,,,,0,,,38,0
314610,note_on,90,0,2,,,,,,,,,,,,,,,0,,,50,0
314612,set_tempo,12,1,0,,,,,,,,,,,,538117,,,,,,,
314640,note_on,30,0,2,,,,,,,,,,,,,,,0,,,39,70
314640,note_on,0,0,2,,,,,,,,,,,,,,,0,,,51,85
314640,set_tempo,28,1,0,,,,,,,,,,,,540541,,,,,,,
314652,set_tempo,12,1,0,,,,,,,,,,,,542986,,,,,,,
314680,set_tempo,28,1,0,,,,,,,,,,,,545455,,,,,,,
314692,set_tempo,12,1,0,,,,,,,,,,,,547945,,,,,,,
314720,set_tempo,28,1,0,,,,,,,,,,,,550459,,,,,,,
314730,note_on,90,0,2,,,,,,,,,,,,,,,0,,,51,0
314730,note_on,0,0,2,,,,,,,,,,,,,,,0,,,39,0
314732,set_tempo,12,1,0,,,,,,,,,,,,552995,,,,,,,
314760,note_on,0,0,2,,,,,,,,,,,,,,,0,,,53,89
314760,note_on,30,0,2,,,,,,,,,,,,,,,0,,,41,75
314760,set_tempo,28,1,0,,,,,,,,,,,,677966,,,,,,,
314850,note_on,0,0,2,,,,,,,,,,,,,,,0,,,41,0
314850,note_on,90,0,2,,,,,,,,,,,,,,,0,,,53,0
314880,note_on,0,0,2,,,,,,,,,,,,,,,0,,,47,56
314880,note_on,0,0,2,,,,,,,,,,,,,,,0,,,43,56
314880,control_change,30,0,2,,,,,,,,,,,,,,,0,64,0,,
314880,note_on,0,0,2,,,,,,,,,,,,,,,0,,,55,75
314880,note_on,0,0,2,,,,,,,,,,,,,,,0,,,50,63
314880,note_on,0,0,1,,,,,,,,,,,,,,,0,,,72,0
314880,note_on,0,0,1,,,,,,,,,,,,,,,0,,,68,0
314880,note_on,0,0,1,,,,,,,,,,,,,,,0,,,67,76
314880,note_on,0,0,1,,,,,,,,,,,,,,,0,,,71,76
314880,note_on,0,0,1,,,,,,,,,,,,,,,0,,,74,85
314880,note_on,0,0,1,,,,,,,,,,,,,,,0,,,79,100
314880,note_on,480,0,1,,,,,,,,,,,,,,,0,,,80,0
314880,set_tempo,120,1,0,,,,,,,,,,,,480000,,,,,,,
314880,note_on,0,0,1,,,,,,,,,,,,,,,0,,,75,0
315360,note_on,0,0,1,,,,,,,,,,,,,,,0,,,67,50
315360,note_on,0,0,2,,,,,,,,,,,,,,,0,,,47,0
315360,note_on,0,0,2,,,,,,,,,,,,,,,0,,,43,0
315360,set_tempo,480,1,0,,,,,,,,,,,,472441,,,,,,,
315360,note_on,0,0,1,,,,,,,,,,,,,,,0,,,74,0
315360,note_on,480,0,2,,,,,,,,,,,,,,,0,,,55,0
315360,note_on,480,0,1,,,,,,,,,,,,,,,0,,,79,0
315360,note_on,0,0,1,,,,,,,,,,,,,,,0,,,67,0
315360,note_on,0,0,2,,,,,,,,,,,,,,,0,,,50,0
315360,note_on,0,0,1,,,,,,,,,,,,,,,0,,,71,0
315480,note_on,120,0,1,,,,,,,,,,,,,,,0,,,67,0
315600,note_on,120,0,1,,,,,,,,,,,,,,,0,,,67,51
315600,set_tempo,240,1,0,,,,,,,,,,,,489796,,,,,,,
315720,note_on,120,0,1,,,,,,,,,,,,,,,0,,,67,0
315840,note_on,120,0,1,,,,,,,,,,,,,,,0,,,67,53
315840,set_tempo,240,1,0,,,,,,,,,,,,480000,,,,,,,
316320,note_on,0,0,1,,,,,,,,,,,,,,,0,,,67,50
316320,note_on,480,0,1,,,,,,,,,,,,,,,0,,,67,0
316320,set_tempo,480,1,0,,,,,,,,,,,,476190,,,,,,,
316440,note_on,120,0,1,,,,,,,,,,,,,,,0,,,67,0
316560,set_tempo,240,1,0,,,,,,,,,,,,487805,,,,,,,
316560,note_on,120,0,1,,,,,,,,,,,,,,,0,,,67,50
316680,note_on,120,0,1,,,,,,,,,,,,,,,0,,,67,0
316800,set_tempo,240,1,0,,,,,,,,,,,,480000,,,,,,,
316800,note_on,120,0,1,,,,,,,,,,,,,,,0,,,67,53
317280,note_on,480,0,1,,,,,,,,,,,,,,,0,,,67,0
317280,note_on,0,0,1,,,,,,,,,,,,,,,0,,,67,50
317280,set_tempo,480,1,0,,,,,,,,,,,,474308,,,,,,,
317400,note_on,120,0,1,,,,,,,,,,,,,,,0,,,67,0
317520,note_on,120,0,1,,,,,,,,,,,,,,,0,,,67,50
317520,set_tempo,240,1,0,,,,,,,,,,,,485830,,,,,,,
317640,note_on,120,0,1,,,,,,,,,,,,,,,0,,,67,0
317760,note_on,120,0,1,,,,,,,,,,,,,,,0,,,67,53
317760,set_tempo,240,1,0,,,,,,,,,,,,480000,,,,,,,
318240,note_on,480,0,1,,,,,,,,,,,,,,,0,,,67,0
318240,note_on,0,0,1,,,,,,,,,,,,,,,0,,,67,49
318240,set_tempo,480,1,0,,,,,,,,,,,,476190,,,,,,,
318360,note_on,120,0,1,,,,,,,,,,,,,,,0,,,67,0
318480,note_on,120,0,1,,,,,,,,,,,,,,,0,,,67,49
318480,set_tempo,240,1,0,,,,,,,,,,,,483871,,,,,,,
318600,note_on,120,0,1,,,,,,,,,,,,,,,0,,,67,0
318720,note_on,0,0,1,,,,,,,,,,,,,,,0,,,71,76
318720,note_on,0,0,1,,,,,,,,,,,,,,,0,,,74,85
318720,note_on,0,0,1,,,,,,,,,,,,,,,0,,,80,100
318720,set_tempo,240,1,0,,,,,,,,,,,,480000,,,,,,,
318720,note_on,3360,0,2,,,,,,,,,,,,,,,0,,,41,56
318720,note_on,0,0,2,,,,,,,,,,,,,,,0,,,47,56
318720,note_on,0,0,2,,,,,,,,,,,,,,,0,,,50,63
318720,note_on,0,0,2,,,,,,,,,,,,,,,0,,,53,75
318720,note_on,120,0,1,,,,,,,,,,,,,,,0,,,68,76
319200,note_on,0,0,2,,,,,,,,,,,,,,,0,,,50,0
319200,note_on,0,0,2,,,,,,,,,,,,,,,0,,,47,0
319200,note_on,0,0,1,,,,,,,,,,,,,,,0,,,68,51
319200,note_on,480,0,2,,,,,,,,,,,,,,,0,,,53,0
319200,note_on,0,0,1,,,,,,,,,,,,,,,0,,,68,0
319200,note_on,480,0,1,,,,,,,,,,,,,,,0,,,80,0
319200,note_on,0,0,2,,,,,,,,,,,,,,,0,,,41,0
319200,note_on,0,0,1,,,,,,,,,,,,,,,0,,,74,0
319200,note_on,0,0,1,,,,,,,,,,,,,,,0,,,71,0
319240,set_tempo,520,1,0,,,,,,,,,,,,474308,,,,,,,
319320,note_on,120,0,1,,,,,,,,,,,,,,,0,,,68,0
319440,set_tempo,200,1,0,,,,,,,,,,,,483871,,,,,,,
319440,note_on,120,0,1,,,,,,,,,,,,,,,0,,,68,52
319560,note_on,120,0,1,,,,,,,,,,,,,,,0,,,68,0
319680,set_tempo,240,1,0,,,,,,,,,,,,480000,,,,,,,
319680,note_on,120,0,1,,,,,,,,,,,,,,,0,,,68,53
320160,set_tempo,480,1,0,,,,,,,,,,,,458015,,,,,,,
320160,note_on,0,0,1,,,,,,,,,,,,,,,0,,,68,41
320160,note_on,480,0,1,,,,,,,,,,,,,,,0,,,68,0
320160,note_on,0,0,1,,,,,,,,,,,,,,,0,,,71,49
320220,note_on,60,0,1,,,,,,,,,,,,,,,0,,,71,0
320220,note_on,0,0,1,,,,,,,,,,,,,,,0,,,68,0
320400,note_on,180,0,1,,,,,,,,,,,,,,,0,,,68,42
320400,set_tempo,240,1,0,,,,,,,,,,,,517241,,,,,,,
320400,note_on,0,0,1,,,,,,,,,,,,,,,0,,,71,50
320460,note_on,60,0,1,,,,,,,,,,,,,,,0,,,71,0
320460,note_on,0,0,1,,,,,,,,,,,,,,,0,,,68,0
320640,note_on,0,0,1,,,,,,,,,,,,,,,0,,,71,53
320640,set_tempo,240,1,0,,,,,,,,,,,,480000,,,,,,,
320640,note_on,180,0,1,,,,,,,,,,,,,,,0,,,68,45
321120,note_on,0,0,1,,,,,,,,,,,,,,,0,,,68,0
321120,note_on,0,0,1,,,,,,,,,,,,,,,0,,,71,48
321120,note_on,480,0,1,,,,,,,,,,,,,,,0,,,71,0
321120,note_on,0,0,1,,,,,,,,,,,,,,,0,,,68,40
321120,set_tempo,480,1,0,,,,,,,,,,,,465116,,,,,,,
321180,note_on,60,0,1,,,,,,,,,,,,,,,0,,,71,0
321180,note_on,0,0,1,,,,,,,,,,,,,,,0,,,68,0
321360,note_on,180,0,1,,,,,,,,,,,,,,,0,,,68,40
321360,note_on,0,0,1,,,,,,,,,,,,,,,0,,,71,48
321360,set_tempo,240,1,0,,,,,,,,,,,,508475,,,,,,,
321420,note_on,60,0,1,,,,,,,,,,,,,,,0,,,71,0
321420,note_on,0,0,1,,,,,,,,,,,,,,,0,,,68,0
321600,set_tempo,240,1,0,,,,,,,,,,,,480000,,,,,,,
321600,note_on,180,0,1,,,,,,,,,,,,,,,0,,,68,45
321600,note_on,0,0,1,,,,,,,,,,,,,,,0,,,71,53
322080,note_on,0,0,1,,,,,,,,,,,,,,,0,,,71,48
322080,note_on,0,0,1,,,,,,,,,,,,,,,0,,,68,40
322080,note_on,480,0,1,,,,,,,,,,,,,,,0,,,71,0
322080,set_tempo,480,1,0,,,,,,,,,,,,461538,,,,,,,
322080,note_on,0,0,1,,,,,,,,,,,,,,,0,,,68,0
322140,note_on,60,0,1,,,,,,,,,,,,,,,0,,,71,0
322140,note_on,0,0,1,,,,,,,,,,,,,,,0,,,68,0
322320,set_tempo,240,1,0,,,,,,,,,,,,512821,,,,,,,
322320,note_on,180,0,1,,,,,,,,,,,,,,,0,,,68,40
322320,note_on,0,0,1,,,,,,,,,,,,,,,0,,,71,48
322380,note_on,60,0,1,,,,,,,,,,,,,,,0,,,71,0
322380,note_on,0,0,1,,,,,,,,,,,,,,,0,,,68,0
322560,note_on,0,0,1,,,,,,,,,,,,,,,0,,,71,76
322560,note_on,0,0,1,,,,,,,,,,,,,,,0,,,73,85
322560,note_on,0,0,2,,,,,,,,,,,,,,,0,,,49,63
322560,note_on,0,0,2,,,,,,,,,,,,,,,0,,,53,75
322560,note_on,0,0,1,,,,,,,,,,,,,,,0,,,80,100
322560,note_on,180,0,1,,,,,,,,,,,,,,,0,,,68,76
322560,note_on,0,0,2,,,,,,,,,,,,,,,0,,,47,56
322560,note_on,3360,0,2,,,,,,,,,,,,,,,0,,,41,56
322560,set_tempo,240,1,0,,,,,,,,,,,,480000,,,,,,,
323040,note_on,0,0,1,,,,,,,,,,,,,,,0,,,71,49
323040,note_on,0,0,1,,,,,,,,,,,,,,,0,,,68,41
323040,note_on,0,0,1,,,,,,,,,,,,,,,0,,,71,0
323040,note_on,0,0,1,,,,,,,,,,,,,,,0,,,68,0
323040,note_on,480,0,1,,,,,,,,,,,,,,,0,,,80,0
323040,set_tempo,480,1,0,,,,,,,,,,,,465116,,,,,,,
323040,note_on,0,0,1,,,,,,,,,,,,,,,0,,,73,0
323040,note_on,0,0,2,,,,,,,,,,,,,,,0,,,41,0
323040,note_on,0,0,2,,,,,,,,,,,,,,,0,,,47,0
323040,note_on,0,0,2,,,,,,,,,,,,,,,0,,,49,0
323040,note_on,480,0,2,,,,,,,,,,,,,,,0,,,53,0
323100,note_on,60,0,1,,,,,,,,,,,,,,,0,,,71,0
323100,note_on,0,0,1,,,,,,,,,,,,,,,0,,,68,0
323280,set_tempo,240,1,0,,,,,,,,,,,,519481,,,,,,,
323280,note_on,180,0,1,,,,,,,,,,,,,,,0,,,68,41
323280,note_on,0,0,1,,,,,,,,,,,,,,,0,,,71,49
323340,note_on,60,0,1,,,,,,,,,,,,,,,0,,,71,0
323340,note_on,0,0,1,,,,,,,,,,,,,,,0,,,68,0
323520,note_on,180,0,1,,,,,,,,,,,,,,,0,,,68,45
323520,note_on,0,0,1,,,,,,,,,,,,,,,0,,,71,45
323520,note_on,0,0,1,,,,,,,,,,,,,,,0,,,73,53
323520,set_tempo,240,1,0,,,,,,,,,,,,480000,,,,,,,
324000,set_tempo,480,1,0,,,,,,,,,,,,466926,,,,,,,
324000,note_on,480,0,1,,,,,,,,,,,,,,,0,,,73,0
324000,note_on,0,0,1,,,,,,,,,,,,,,,0,,,71,0
324000,note_on,0,0,1,,,,,,,,,,,,,,,0,,,68,40
324000,note_on,0,0,1,,,,,,,,,,,,,,,0,,,71,40
324000,note_on,0,0,1,,,,,,,,,,,,,,,0,,,73,48
324000,note_on,0,0,1,,,,,,,,,,,,,,,0,,,68,0
324060,note_on,60,0,1,,,,,,,,,,,,,,,0,,,73,0
324060,note_on,0,0,1,,,,,,,,,,,,,,,0,,,71,0
324060,note_on,0,0,1,,,,,,,,,,,,,,,0,,,68,0
324240,note_on,0,0,1,,,,,,,,,,,,,,,0,,,73,48
324240,note_on,0,0,1,,,,,,,,,,,,,,,0,,,71,40
324240,set_tempo,240,1,0,,,,,,,,,,,,500000,,,,,,,
324240,note_on,180,0,1,,,,,,,,,,,,,,,0,,,68,40
324300,note_on,60,0,1,,,,,,,,,,,,,,,0,,,73,0
324300,note_on,0,0,1,,,,,,,,,,,,,,,0,,,71,0
324300,note_on,0,0,1,,,,,,,,,,,,,,,0,,,68,0
324480,note_on,0,0,2,,,,,,,,,,,,,,,0,,,54,75
324480,note_on,0,0,2,,,,,,,,,,,,,,,0,,,50,63
324480,note_on,0,0,2,,,,,,,,,,,,,,,0,,,47,56
324480,note_on,1440,0,2,,,,,,,,,,,,,,,0,,,42,56
324480,note_on,0,0,1,,,,,,,,,,,,,,,0,,,80,100
324480,note_on,0,0,1,,,,,,,,,,,,,,,0,,,74,85
324480,note_on,0,0,1,,,,,,,,,,,,,,,0,,,71,76
324480,note_on,180,0,1,,,,,,,,,,,,,,,0,,,68,76
324480,set_tempo,240,1,0,,,,,,,,,,,,480000,,,,,,,
324960,note_on,0,0,1,,,,,,,,,,,,,,,0,,,71,0
324960,note_on,480,0,1,,,,,,,,,,,,,,,0,,,80,0
324960,note_on,480,0,2,,,,,,,,,,,,,,,0,,,54,0
324960,note_on,0,0,2,,,,,,,,,,,,,,,0,,,42,0
324960,note_on,0,0,2,,,,,,,,,,,,,,,0,,,47,0
324960,note_on,0,0,2,,,,,,,,,,,,,,,0,,,50,0
324960,note_on,0,0,1,,,,,,,,,,,,,,,0,,,74,0
324960,note_on,0,0,1,,,,,,,,,,,,,,,0,,,68,41
324960,note_on,0,0,1,,,,,,,,,,,,,,,0,,,71,49
324960,note_on,0,0,1,,,,,,,,,,,,,,,0,,,68,0
324960,set_tempo,480,1,0,,,,,,,,,,,,465116,,,,,,,
325020,note_on,60,0,1,,,,,,,,,,,,,,,0,,,71,0
325020,note_on,0,0,1,,,,,,,,,,,,,,,0,,,68,0
325200,note_on,180,0,1,,,,,,,,,,,,,,,0,,,68,41
325200,note_on,0,0,1,,,,,,,,,,,,,,,0,,,71,49
325200,set_tempo,240,1,0,,,,,,,,,,,,508475,,,,,,,
325260,note_on,60,0,1,,,,,,,,,,,,,,,0,,,71,0
325260,note_on,0,0,1,,,,,,,,,,,,,,,0,,,68,0
325440,note_on,180,0,1,,,,,,,,,,,,,,,0,,,68,45
325440,note_on,0,0,1,,,,,,,,,,,,,,,0,,,71,45
325440,note_on,0,0,1,,,,,,,,,,,,,,,0,,,74,53
325440,set_tempo,240,1,0,,,,,,,,,,,,480000,,,,,,,
325920,note_on,0,0,1,,,,,,,,,,,,,,,0,,,74,49
325920,note_on,0,0,1,,,,,,,,,,,,,,,0,,,71,41
325920,set_tempo,480,1,0,,,,,,,,,,,,466926,,,,,,,
325920,note_on,0,0,1,,,,,,,,,,,,,,,0,,,68,41
325920,note_on,0,0,1,,,,,,,,,,,,,,,0,,,68,0
325920,note_on,0,0,1,,,,,,,,,,,,,,,0,,,71,0
325920,note_on,480,0,1,,,,,,,,,,,,,,,0,,,74,0
325980,note_on,0,0,1,,,,,,,,,,,,,,,0,,,68,0
325980,note_on,0,0,1,,,,,,,,,,,,,,,0,,,71,0
325980,note_on,60,0,1,,,,,,,,,,,,,,,0,,,74,0
326160,note_on,0,0,1,,,,,,,,,,,,,,,0,,,74,49
326160,note_on,0,0,1,,,,,,,,,,,,,,,0,,,71,41
326160,note_on,180,0,1,,,,,,,,,,,,,,,0,,,68,41
326160,set_tempo,240,1,0,,,,,,,,,,,,493827,,,,,,,
326220,note_on,0,0,1,,,,,,,,,,,,,,,0,,,68,0
326220,note_on,0,0,1,,,,,,,,,,,,,,,0,,,71,0
326220,note_on,60,0,1,,,,,,,,,,,,,,,0,,,74,0
326400,note_on,0,0,2,,,,,,,,,,,,,,,0,,,53,75
326400,note_on,0,0,2,,,,,,,,,,,,,,,0,,,49,63
326400,note_on,0,0,2,,,,,,,,,,,,,,,0,,,44,56
326400,note_on,1440,0,2,,,,,,,,,,,,,,,0,,,41,56
326400,note_on,180,0,1,,,,,,,,,,,,,,,0,,,68,76
326400,set_tempo,240,1,0,,,,,,,,,,,,480000,,,,,,,
326400,note_on,0,0,1,,,,,,,,,,,,,,,0,,,71,76
326400,note_on,0,0,1,,,,,,,,,,,,,,,0,,,73,85
326400,note_on,0,0,1,,,,,,,,,,,,,,,0,,,80,100
326880,note_on,480,0,1,,,,,,,,,,,,,,,0,,,80,0
326880,note_on,0,0,1,,,,,,,,,,,,,,,0,,,68,35
326880,note_on,0,0,1,,,,,,,,,,,,,,,0,,,71,0
326880,note_on,0,0,1,,,,,,,,,,,,,,,0,,,73,0
326880,note_on,480,0,2,,,,,,,,,,,,,,,0,,,53,0
326880,note_on,0,0,1,,,,,,,,,,,,,,,0,,,71,42
326880,note_on,0,0,2,,,,,,,,,,,,,,,0,,,41,0
326880,note_on,0,0,1,,,,,,,,,,,,,,,0,,,68,0
326880,note_on,0,0,2,,,,,,,,,,,,,,,0,,,44,0
326880,note_on,0,0,2,,,,,,,,,,,,,,,0,,,49,0
326880,set_tempo,480,1,0,,,,,,,,,,,,468750,,,,,,,
326940,note_on,0,0,1,,,,,,,,,,,,,,,0,,,68,0
326940,note_on,60,0,1,,,,,,,,,,,,,,,0,,,71,0
327120,set_tempo,240,1,0,,,,,,,,,,,,504202,,,,,,,
327120,note_on,0,0,1,,,,,,,,,,,,,,,0,,,71,42
327120,note_on,180,0,1,,,,,,,,,,,,,,,0,,,68,35
327180,note_on,0,0,1,,,,,,,,,,,,,,,0,,,68,0
327180,note_on,60,0,1,,,,,,,,,,,,,,,0,,,71,0
327360,note_on,0,0,1,,,,,,,,,,,,,,,0,,,73,47
327360,note_on,0,0,1,,,,,,,,,,,,,,,0,,,71,39
327360,note_on,180,0,1,,,,,,,,,,,,,,,0,,,68,39
327360,set_tempo,240,1,0,,,,,,,,,,,,480000,,,,,,,
327840,note_on,0,0,1,,,,,,,,,,,,,,,0,,,73,42
327840,note_on,0,0,1,,,,,,,,,,,,,,,0,,,71,35
327840,set_tempo,480,1,0,,,,,,,,,,,,468750,,,,,,,
327840,note_on,0,0,1,,,,,,,,,,,,,,,0,,,68,35
327840,note_on,480,0,1,,,,,,,,,,,,,,,0,,,73,0
327840,note_on,0,0,1,,,,,,,,,,,,,,,0,,,71,0
327840,note_on,0,0,1,,,,,,,,,,,,,,,0,,,68,0
327900,note_on,60,0,1,,,,,,,,,,,,,,,0,,,73,0
327900,note_on,0,0,1,,,,,,,,,,,,,,,0,,,71,0
327900,note_on,0,0,1,,,,,,,,,,,,,,,0,,,68,0
328080,set_tempo,240,1,0,,,,,,,,,,,,502092,,,,,,,
328080,note_on,180,0,1,,,,,,,,,,,,,,,0,,,68,35
328080,note_on,0,0,1,,,,,,,,,,,,,,,0,,,71,35
328080,note_on,0,0,1,,,,,,,,,,,,,,,0,,,73,42
328140,note_on,60,0,1,,,,,,,,,,,,,,,0,,,73,0
328140,note_on,0,0,1,,,,,,,,,,,,,,,0,,,68,0
328140,note_on,0,0,1,,,,,,,,,,,,,,,0,,,71,0
328320,note_on,0,0,2,,,,,,,,,,,,,,,0,,,47,56
328320,note_on,0,0,1,,,,,,,,,,,,,,,0,,,80,100
328320,note_on,0,0,1,,,,,,,,,,,,,,,0,,,74,85
328320,note_on,0,0,1,,,,,,,,,,,,,,,0,,,71,76
328320,note_on,180,0,1,,,,,,,,,,,,,,,0,,,68,76
328320,note_on,0,0,2,,,,,,,,,,,,,,,0,,,54,75
328320,set_tempo,240,1,0,,,,,,,,,,,,480000,,,,,,,
328320,note_on,0,0,2,,,,,,,,,,,,,,,0,,,50,63
328320,note_on,1440,0,2,,,,,,,,,,,,,,,0,,,42,56
328800,note_on,0,0,1,,,,,,,,,,,,,,,0,,,71,0
328800,note_on,0,0,1,,,,,,,,,,,,,,,0,,,74,0
328800,note_on,0,0,1,,,,,,,,,,,,,,,0,,,68,40
328800,note_on,0,0,1,,,,,,,,,,,,,,,0,,,71,40
328800,note_on,0,0,2,,,,,,,,,,,,,,,0,,,42,0
328800,note_on,480,0,2,,,,,,,,,,,,,,,0,,,54,0
328800,note_on,0,0,1,,,,,,,,,,,,,,,0,,,68,0
328800,note_on,0,0,2,,,,,,,,,,,,,,,0,,,50,0
328800,note_on,480,0,1,,,,,,,,,,,,,,,0,,,80,0
328800,set_tempo,480,1,0,,,,,,,,,,,,468750,,,,,,,
328800,note_on,0,0,2,,,,,,,,,,,,,,,0,,,47,0
328860,note_on,60,0,1,,,,,,,,,,,,,,,0,,,71,0
328860,note_on,0,0,1,,,,,,,,,,,,,,,0,,,68,0
329040,set_tempo,240,1,0,,,,,,,,,,,,497925,,,,,,,
329040,note_on,180,0,1,,,,,,,,,,,,,,,0,,,68,40
329040,note_on,0,0,1,,,,,,,,,,,,,,,0,,,71,40
329100,note_on,0,0,1,,,,,,,,,,,,,,,0,,,68,0
329100,note_on,60,0,1,,,,,,,,,,,,,,,0,,,71,0
329280,set_tempo,240,1,0,,,,,,,,,,,,480000,,,,,,,
329280,note_on,0,0,1,,,,,,,,,,,,,,,0,,,74,46
329280,note_on,0,0,1,,,,,,,,,,,,,,,0,,,71,39
329280,note_on,180,0,1,,,,,,,,,,,,,,,0,,,68,39
329760,note_on,0,0,1,,,,,,,,,,,,,,,0,,,71,0
329760,note_on,0,0,1,,,,,,,,,,,,,,,0,,,68,34
329760,note_on,0,0,1,,,,,,,,,,,,,,,0,,,71,34
329760,note_on,0,0,1,,,,,,,,,,,,,,,0,,,74,40
329760,set_tempo,480,1,0,,,,,,,,,,,,470588,,,,,,,
329760,note_on,0,0,1,,,,,,,,,,,,,,,0,,,68,0
329760,note_on,480,0,1,,,,,,,,,,,,,,,0,,,74,0
329820,note_on,60,0,1,,,,,,,,,,,,,,,0,,,74,0
329820,note_on,0,0,1,,,,,,,,,,,,,,,0,,,71,0
329820,note_on,0,0,1,,,,,,,,,,,,,,,0,,,68,0
330000,note_on,0,0,1,,,,,,,,,,,,,,,0,,,74,41
330000,note_on,180,0,1,,,,,,,,,,,,,,,0,,,68,34
330000,note_on,0,0,1,,,,,,,,,,,,,,,0,,,71,34
330000,set_tempo,240,1,0,,,,,,,,,,,,497925,,,,,,,
330060,note_on,60,0,1,,,,,,,,,,,,,,,0,,,74,0
330060,note_on,0,0,1,,,,,,,,,,,,,,,0,,,68,0
330060,note_on,0,0,1,,,,,,,,,,,,,,,0,,,71,0
330240,note_on,0,0,2,,,,,,,,,,,,,,,0,,,50,63
330240,note_on,180,0,1,,,,,,,,,,,,,,,0,,,68,76
330240,note_on,0,0,1,,,,,,,,,,,,,,,0,,,71,76
330240,note_on,0,0,1,,,,,,,,,,,,,,,0,,,74,85
330240,note_on,1440,0,2,,,,,,,,,,,,,,,0,,,41,56
330240,note_on,0,0,2,,,,,,,,,,,,,,,0,,,47,56
330240,note_on,0,0,2,,,,,,,,,,,,,,,0,,,53,75
330240,note_on,0,0,1,,,,,,,,,,,,,,,0,,,80,100
330240,set_tempo,240,1,0,,,,,,,,,,,,480000,,,,,,,
330720,note_on,0,0,2,,,,,,,,,,,,,,,0,,,47,0
330720,note_on,0,0,2,,,,,,,,,,,,,,,0,,,41,0
330720,note_on,480,0,2,,,,,,,,,,,,,,,0,,,53,0
330720,note_on,0,0,2,,,,,,,,,,,,,,,0,,,50,0
330720,note_on,0,0,1,,,,,,,,,,,,,,,0,,,74,48
330720,note_on,480,0,1,,,,,,,,,,,,,,,0,,,80,0
330720,note_on,0,0,1,,,,,,,,,,,,,,,0,,,71,48
330720,note_on,0,0,1,,,,,,,,,,,,,,,0,,,74,0
330720,note_on,0,0,1,,,,,,,,,,,,,,,0,,,71,0
330720,note_on,0,0,1,,,,,,,,,,,,,,,0,,,68,0
330720,set_tempo,480,1,0,,,,,,,,,,,,468750,,,,,,,
330780,note_on,60,0,1,,,,,,,,,,,,,,,0,,,74,0
330780,note_on,0,0,1,,,,,,,,,,,,,,,0,,,71,0
330960,set_tempo,240,1,0,,,,,,,,,,,,497925,,,,,,,
330960,note_on,0,0,1,,,,,,,,,,,,,,,0,,,74,48
330960,note_on,180,0,1,,,,,,,,,,,,,,,0,,,71,48
331020,note_on,0,0,1,,,,,,,,,,,,,,,0,,,71,0
331020,note_on,60,0,1,,,,,,,,,,,,,,,0,,,74,0
331200,note_on,0,0,1,,,,,,,,,,,,,,,0,,,73,85
331200,note_on,180,0,1,,,,,,,,,,,,,,,0,,,68,76
331200,note_on,0,0,1,,,,,,,,,,,,,,,0,,,71,76
331200,note_on,0,0,2,,,,,,,,,,,,,,,0,,,41,75
331200,note_on,480,0,2,,,,,,,,,,,,,,,0,,,29,56
331200,set_tempo,240,1,0,,,,,,,,,,,,480000,,,,,,,
331200,note_on,0,0,1,,,,,,,,,,,,,,,0,,,80,100
331680,note_on,480,0,1,,,,,,,,,,,,,,,0,,,80,0
331680,note_on,0,0,2,,,,,,,,,,,,,,,0,,,29,0
331680,note_on,480,0,2,,,,,,,,,,,,,,,0,,,41,0
331680,note_on,0,0,1,,,,,,,,,,,,,,,0,,,73,48
331680,note_on,0,0,1,,,,,,,,,,,,,,,0,,,71,48
331680,note_on,0,0,1,,,,,,,,,,,,,,,0,,,73,0
331680,note_on,0,0,1,,,,,,,,,,,,,,,0,,,71,0
331680,note_on,0,0,1,,,,,,,,,,,,,,,0,,,68,0
331680,set_tempo,480,1,0,,,,,,,,,,,,468750,,,,,,,
331740,note_on,0,0,1,,,,,,,,,,,,,,,0,,,71,0
331740,note_on,60,0,1,,,,,,,,,,,,,,,0,,,73,0
331920,set_tempo,240,1,0,,,,,,,,,,,,497925,,,,,,,
331920,note_on,180,0,1,,,,,,,,,,,,,,,0,,,71,48
331920,note_on,0,0,1,,,,,,,,,,,,,,,0,,,73,48
331980,note_on,0,0,1,,,,,,,,,,,,,,,0,,,71,0
331980,note_on,60,0,1,,,,,,,,,,,,,,,0,,,73,0
332160,set_tempo,240,1,0,,,,,,,,,,,,480000,,,,,,,
332160,note_on,0,0,1,,,,,,,,,,,,,,,0,,,71,71
332160,note_on,0,0,1,,,,,,,,,,,,,,,0,,,73,71
332160,note_on,0,0,1,,,,,,,,,,,,,,,0,,,80,85
332160,note_on,480,0,2,,,,,,,,,,,,,,,0,,,30,53
332160,note_on,0,0,2,,,,,,,,,,,,,,,0,,,42,64
332160,note_on,180,0,1,,,,,,,,,,,,,,,0,,,68,71
332640,note_on,480,0,1,,,,,,,,,,,,,,,0,,,80,0
332640,note_on,0,0,1,,,,,,,,,,,,,,,0,,,68,0
332640,note_on,0,0,1,,,,,,,,,,,,,,,0,,,71,0
332640,note_on,0,0,1,,,,,,,,,,,,,,,0,,,73,0
332640,set_tempo,480,1,0,,,,,,,,,,,,468750,,,,,,,
332640,note_on,0,0,1,,,,,,,,,,,,,,,0,,,73,48
332640,note_on,480,0,2,,,,,,,,,,,,,,,0,,,42,0
332640,note_on,0,0,2,,,,,,,,,,,,,,,0,,,30,0
332640,note_on,0,0,1,,,,,,,,,,,,,,,0,,,71,48
332700,note_on,60,0,1,,,,,,,,,,,,,,,0,,,73,0
332700,note_on,0,0,1,,,,,,,,,,,,,,,0,,,71,0
332880,note_on,180,0,1,,,,,,,,,,,,,,,0,,,71,48
332880,note_on,0,0,1,,,,,,,,,,,,,,,0,,,73,48
332880,set_tempo,240,1,0,,,,,,,,,,,,497925,,,,,,,
332940,note_on,60,0,1,,,,,,,,,,,,,,,0,,,73,0
332940,note_on,0,0,1,,,,,,,,,,,,,,,0,,,71,0
333120,note_on,480,0,2,,,,,,,,,,,,,,,0,,,33,49
333120,note_on,0,0,2,,,,,,,,,,,,,,,0,,,45,59
333120,set_tempo,240,1,0,,,,,,,,,,,,480000,,,,,,,
333120,note_on,180,0,1,,,,,,,,,,,,,,,0,,,66,65
333120,note_on,0,0,1,,,,,,,,,,,,,,,0,,,69,65
333120,note_on,0,0,1,,,,,,,,,,,,,,,0,,,78,78
333120,note_on,0,0,1,,,,,,,,,,,,,,,0,,,73,65
333600,note_on,480,0,1,,,,,,,,,,,,,,,0,,,78,0
333600,note_on,0,0,1,,,,,,,,,,,,,,,0,,,66,0
333600,note_on,0,0,1,,,,,,,,,,,,,,,0,,,69,0
333600,note_on,0,0,1,,,,,,,,,,,,,,,0,,,73,0
333600,note_on,0,0,1,,,,,,,,,,,,,,,0,,,69,48
333600,note_on,0,0,1,,,,,,,,,,,,,,,0,,,73,48
333600,note_on,480,0,2,,,,,,,,,,,,,,,0,,,45,0
333600,note_on,0,0,2,,,,,,,,,,,,,,,0,,,33,0
333600,set_tempo,480,1,0,,,,,,,,,,,,468750,,,,,,,
333660,note_on,60,0,1,,,,,,,,,,,,,,,0,,,73,0
333660,note_on,0,0,1,,,,,,,,,,,,,,,0,,,69,0
333840,set_tempo,240,1,0,,,,,,,,,,,,497925,,,,,,,
333840,note_on,180,0,1,,,,,,,,,,,,,,,0,,,69,48
333840,note_on,0,0,1,,,,,,,,,,,,,,,0,,,73,48
333900,note_on,60,0,1,,,,,,,,,,,,,,,0,,,73,0
333900,note_on,0,0,1,,,,,,,,,,,,,,,0,,,69,0
334080,note_on,0,0,1,,,,,,,,,,,,,,,0,,,68,63
334080,note_on,180,0,1,,,,,,,,,,,,,,,0,,,66,63
334080,note_on,480,0,2,,,,,,,,,,,,,,,0,,,37,47
334080,set_tempo,240,1,0,,,,,,,,,,,,489796,,,,,,,
334080,note_on,0,0,2,,,,,,,,,,,,,,,0,,,49,57
334080,note_on,0,0,1,,,,,,,,,,,,,,,0,,,78,76
334080,note_on,0,0,1,,,,,,,,,,,,,,,0,,,73,63
334560,note_on,0,0,1,,,,,,,,,,,,,,,0,,,68,48
334560,note_on,480,0,1,,,,,,,,,,,,,,,0,,,78,0
334560,note_on,0,0,1,,,,,,,,,,,,,,,0,,,66,0
334560,note_on,0,0,1,,,,,,,,,,,,,,,0,,,66,48
334560,note_on,0,0,1,,,,,,,,,,,,,,,0,,,68,0
334560,note_on,0,0,1,,,,,,,,,,,,,,,0,,,73,0
334560,note_on,0,0,2,,,,,,,,,,,,,,,0,,,37,0
334560,set_tempo,480,1,0,,,,,,,,,,,,478088,,,,,,,
334560,note_on,480,0,2,,,,,,,,,,,,,,,0,,,49,0
334620,note_on,60,0,1,,,,,,,,,,,,,,,0,,,68,0
334620,note_on,0,0,1,,,,,,,,,,,,,,,0,,,66,0
334800,set_tempo,240,1,0,,,,,,,,,,,,519481,,,,,,,
334800,note_on,180,0,1,,,,,,,,,,,,,,,0,,,66,48
334800,note_on,0,0,1,,,,,,,,,,,,,,,0,,,68,48
334860,note_on,60,0,1,,,,,,,,,,,,,,,0,,,68,0
334860,note_on,0,0,1,,,,,,,,,,,,,,,0,,,66,0
335040,note_on,0,0,1,,,,,,,,,,,,,,,0,,,68,61
335040,note_on,0,0,1,,,,,,,,,,,,,,,0,,,73,61
335040,note_on,0,0,1,,,,,,,,,,,,,,,0,,,76,73
335040,note_on,480,0,2,,,,,,,,,,,,,,,0,,,40,46
335040,note_on,0,0,2,,,,,,,,,,,,,,,0,,,52,55
335040,set_tempo,240,1,0,,,,,,,,,,,,491803,,,,,,,
335040,note_on,180,0,1,,,,,,,,,,,,,,,0,,,64,61
335520,note_on,0,0,1,,,,,,,,,,,,,,,0,,,68,0
335520,note_on,480,0,1,,,,,,,,,,,,,,,0,,,76,0
335520,note_on,0,0,1,,,,,,,,,,,,,,,0,,,64,0
335520,note_on,0,0,1,,,,,,,,,,,,,,,0,,,73,0
335520,note_on,0,0,1,,,,,,,,,,,,,,,0,,,64,48
335520,set_tempo,480,1,0,,,,,,,,,,,,481928,,,,,,,
335520,note_on,0,0,1,,,,,,,,,,,,,,,0,,,68,48
335520,note_on,480,0,2,,,,,,,,,,,,,,,0,,,52,0
335520,note_on,0,0,2,,,,,,,,,,,,,,,0,,,40,0
335580,note_on,60,0,1,,,,,,,,,,,,,,,0,,,68,0
335580,note_on,0,0,1,,,,,,,,,,,,,,,0,,,64,0
335760,note_on,180,0,1,,,,,,,,,,,,,,,0,,,64,48
335760,set_tempo,240,1,0,,,,,,,,,,,,526316,,,,,,,
335760,note_on,0,0,1,,,,,,,,,,,,,,,0,,,68,48
335820,note_on,0,0,1,,,,,,,,,,,,,,,0,,,64,0
335820,note_on,60,0,1,,,,,,,,,,,,,,,0,,,68,0
336000,set_tempo,240,1,0,,,,,,,,,,,,500000,,,,,,,
336000,note_on,0,0,1,,,,,,,,,,,,,,,0,,,68,59
336000,note_on,480,0,2,,,,,,,,,,,,,,,0,,,44,44
336000,note_on,0,0,1,,,,,,,,,,,,,,,0,,,72,59
336000,note_on,0,0,1,,,,,,,,,,,,,,,0,,,75,71
336000,note_on,180,0,1,,,,,,,,,,,,,,,0,,,63,59
336000,note_on,0,0,2,,,,,,,,,,,,,,,0,,,56,53
336480,note_on,0,0,1,,,,,,,,,,,,,,,0,,,72,48
336480,note_on,0,0,1,,,,,,,,,,,,,,,0,,,63,48
336480,note_on,0,0,2,,,,,,,,,,,,,,,0,,,44,0
336480,note_on,480,0,1,,,,,,,,,,,,,,,0,,,75,0
336480,note_on,0,0,1,,,,,,,,,,,,,,,0,,,63,0
336480,note_on,0,0,1,,,,,,,,,,,,,,,0,,,68,0
336480,note_on,0,0,1,,,,,,,,,,,,,,,0,,,72,0
336480,note_on,480,0,2,,,,,,,,,,,,,,,0,,,56,0
336480,set_tempo,480,1,0,,,,,,,,,,,,489796,,,,,,,
336540,note_on,0,0,1,,,,,,,,,,,,,,,0,,,63,0
336540,note_on,60,0,1,,,,,,,,,,,,,,,0,,,72,0
336720,note_on,0,0,1,,,,,,,,,,,,,,,0,,,72,48
336720,note_on,180,0,1,,,,,,,,,,,,,,,0,,,63,48
336720,set_tempo,240,1,0,,,,,,,,,,,,533333,,,,,,,
336780,note_on,60,0,1,,,,,,,,,,,,,,,0,,,72,0
336780,note_on,0,0,1,,,,,,,,,,,,,,,0,,,63,0
336960,note_on,0,0,2,,,,,,,,,,,,,,,0,,,57,56
336960,note_on,480,0,2,,,,,,,,,,,,,,,0,,,45,47
336960,note_on,180,0,1,,,,,,,,,,,,,,,0,,,63,62
336960,note_on,0,0,1,,,,,,,,,,,,,,,0,,,67,62
336960,note_on,0,0,1,,,,,,,,,,,,,,,0,,,73,62
336960,note_on,0,0,1,,,,,,,,,,,,,,,0,,,75,74
336960,set_tempo,240,1,0,,,,,,,,,,,,512821,,,,,,,
337440,note_on,480,0,1,,,,,,,,,,,,,,,0,,,75,0
337440,note_on,0,0,1,,,,,,,,,,,,,,,0,,,67,0
337440,note_on,0,0,1,,,,,,,,,,,,,,,0,,,73,0
337440,note_on,0,0,1,,,,,,,,,,,,,,,0,,,63,48
337440,note_on,0,0,1,,,,,,,,,,,,,,,0,,,73,48
337440,note_on,0,0,1,,,,,,,,,,,,,,,0,,,63,0
337440,note_on,0,0,2,,,,,,,,,,,,,,,0,,,45,0
337440,note_on,480,0,2,,,,,,,,,,,,,,,0,,,57,0
337440,set_tempo,480,1,0,,,,,,,,,,,,489796,,,,,,,
337500,note_on,60,0,1,,,,,,,,,,,,,,,0,,,73,0
337500,note_on,0,0,1,,,,,,,,,,,,,,,0,,,63,0
337680,note_on,180,0,1,,,,,,,,,,,,,,,0,,,63,48
337680,note_on,0,0,1,,,,,,,,,,,,,,,0,,,73,48
337680,set_tempo,240,1,0,,,,,,,,,,,,533333,,,,,,,
337740,note_on,60,0,1,,,,,,,,,,,,,,,0,,,73,0
337740,note_on,0,0,1,,,,,,,,,,,,,,,0,,,63,0
337920,set_tempo,240,1,0,,,,,,,,,,,,519481,,,,,,,
337920,note_on,0,0,2,,,,,,,,,,,,,,,0,,,56,53
337920,note_on,180,0,1,,,,,,,,,,,,,,,0,,,63,59
337920,note_on,0,0,1,,,,,,,,,,,,,,,0,,,68,59
337920,note_on,0,0,1,,,,,,,,,,,,,,,0,,,72,59
337920,note_on,0,0,1,,,,,,,,,,,,,,,0,,,75,71
337920,note_on,480,0,2,,,,,,,,,,,,,,,0,,,44,44
338400,note_on,480,0,1,,,,,,,,,,,,,,,0,,,75,0
338400,note_on,0,0,1,,,,,,,,,,,,,,,0,,,63,0
338400,note_on,0,0,1,,,,,,,,,,,,,,,0,,,68,0
338400,note_on,0,0,1,,,,,,,,,,,,,,,0,,,72,0
338400,note_on,0,0,1,,,,,,,,,,,,,,,0,,,63,38
338400,set_tempo,480,1,0,,,,,,,,,,,,502092,,,,,,,
338400,note_on,0,0,1,,,,,,,,,,,,,,,0,,,60,32
338400,note_on,480,0,2,,,,,,,,,,,,,,,0,,,56,0
338400,note_on,0,0,2,,,,,,,,,,,,,,,0,,,44,0
338460,note_on,0,0,1,,,,,,,,,,,,,,,0,,,60,0
338460,note_on,60,0,1,,,,,,,,,,,,,,,0,,,63,0
338640,note_on,180,0,1,,,,,,,,,,,,,,,0,,,60,31
338640,set_tempo,240,1,0,,,,,,,,,,,,528634,,,,,,,
338640,note_on,0,0,1,,,,,,,,,,,,,,,0,,,63,37
338700,note_on,0,0,1,,,,,,,,,,,,,,,0,,,60,0
338700,note_on,60,0,1,,,,,,,,,,,,,,,0,,,63,0
338880,note_on,0,0,1,,,,,,,,,,,,,,,0,,,63,45
338880,note_on,180,0,1,,,,,,,,,,,,,,,0,,,60,38
338880,set_tempo,240,1,0,,,,,,,,,,,,517241,,,,,,,
339360,note_on,0,0,1,,,,,,,,,,,,,,,0,,,60,31
339360,note_on,0,0,1,,,,,,,,,,,,,,,0,,,60,0
339360,note_on,0,0,1,,,,,,,,,,,,,,,0,,,63,37
339360,note_on,960,0,2,,,,,,,,,,,,,,,0,,,32,32
339360,note_on,480,0,1,,,,,,,,,,,,,,,0,,,63,0
339360,set_tempo,480,1,0,,,,,,,,,,,,515021,,,,,,,
339400,set_tempo,40,1,0,,,,,,,,,,,,519481,,,,,,,
339420,note_on,0,0,1,,,,,,,,,,,,,,,0,,,60,0
339420,note_on,60,0,1,,,,,,,,,,,,,,,0,,,63,0
339440,set_tempo,40,1,0,,,,,,,,,,,,524017,,,,,,,
339480,note_on,120,0,2,,,,,,,,,,,,,,,0,,,32,0
339480,note_on,0,0,2,,,,,,,,,,,,,,,0,,,36,35
339480,set_tempo,40,1,0,,,,,,,,,,,,528634,,,,,,,
339520,set_tempo,40,1,0,,,,,,,,,,,,533333,,,,,,,
339560,set_tempo,40,1,0,,,,,,,,,,,,538117,,,,,,,
339600,set_tempo,40,1,0,,,,,,,,,,,,542986,,,,,,,
339600,note_on,0,0,2,,,,,,,,,,,,,,,0,,,39,38
339600,note_on,120,0,2,,,,,,,,,,,,,,,0,,,36,0
339600,note_on,180,0,1,,,,,,,,,,,,,,,0,,,60,31
339600,note_on,0,0,1,,,,,,,,,,,,,,,0,,,63,37
339640,set_tempo,40,1,0,,,,,,,,,,,,547945,,,,,,,
339660,note_on,0,0,1,,,,,,,,,,,,,,,0,,,60,0
339660,note_on,60,0,1,,,,,,,,,,,,,,,0,,,63,0
339680,set_tempo,40,1,0,,,,,,,,,,,,552995,,,,,,,
339720,note_on,120,0,2,,,,,,,,,,,,,,,0,,,39,0
339720,set_tempo,40,1,0,,,,,,,,,,,,560748,,,,,,,
339720,note_on,0,0,2,,,,,,,,,,,,,,,0,,,44,41
339840,note_on,180,0,1,,,,,,,,,,,,,,,0,,,61,38
339840,note_on,0,0,2,,,,,,,,,,,,,,,0,,,45,44
339840,note_on,120,0,2,,,,,,,,,,,,,,,0,,,44,0
339840,set_tempo,120,1,0,,,,,,,,,,,,521739,,,,,,,
339840,note_on,0,0,1,,,,,,,,,,,,,,,0,,,63,45
340080,note_on,240,0,2,,,,,,,,,,,,,,,0,,,45,0
340320,note_on,480,0,1,,,,,,,,,,,,,,,0,,,63,0
340320,note_on,0,0,1,,,,,,,,,,,,,,,0,,,61,0
340320,note_on,0,0,1,,,,,,,,,,,,,,,0,,,61,28
340320,note_on,0,0,1,,,,,,,,,,,,,,,0,,,63,34
340320,set_tempo,480,1,0,,,,,,,,,,,,502092,,,,,,,
340380,note_on,60,0,1,,,,,,,,,,,,,,,0,,,63,0
340380,note_on,0,0,1,,,,,,,,,,,,,,,0,,,61,0
340560,note_on,180,0,1,,,,,,,,,,,,,,,0,,,61,28
340560,note_on,0,0,1,,,,,,,,,,,,,,,0,,,63,33
340560,set_tempo,240,1,0,,,,,,,,,,,,526316,,,,,,,
340620,note_on,0,0,1,,,,,,,,,,,,,,,0,,,61,0
340620,note_on,60,0,1,,,,,,,,,,,,,,,0,,,63,0
340800,note_on,180,0,1,,,,,,,,,,,,,,,0,,,61,33
340800,note_on,0,0,1,,,,,,,,,,,,,,,0,,,63,39
340800,set_tempo,240,1,0,,,,,,,,,,,,517241,,,,,,,
341280,note_on,1200,0,2,,,,,,,,,,,,,,,0,,,31,27
341280,set_tempo,480,1,0,,,,,,,,,,,,517241,,,,,,,
341280,note_on,0,0,1,,,,,,,,,,,,,,,0,,,63,33
341280,note_on,0,0,1,,,,,,,,,,,,,,,0,,,61,28
341280,note_on,0,0,1,,,,,,,,,,,,,,,0,,,61,0
341280,note_on,480,0,1,,,,,,,,,,,,,,,0,,,63,0
341320,set_tempo,40,1,0,,,,,,,,,,,,519481,,,,,,,
341340,note_on,0,0,1,,,,,,,,,,,,,,,0,,,61,0
341340,note_on,60,0,1,,,,,,,,,,,,,,,0,,,63,0
341360,set_tempo,40,1,0,,,,,,,,,,,,524017,,,,,,,
341400,note_on,0,0,2,,,,,,,,,,,,,,,0,,,34,29
341400,note_on,120,0,2,,,,,,,,,,,,,,,0,,,31,0
341400,set_tempo,40,1,0,,,,,,,,,,,,528634,,,,,,,
341440,set_tempo,40,1,0,,,,,,,,,,,,530973,,,,,,,
341480,set_tempo,40,1,0,,,,,,,,,,,,535714,,,,,,,
341520,set_tempo,40,1,0,,,,,,,,,,,,540541,,,,,,,
341520,note_on,180,0,1,,,,,,,,,,,,,,,0,,,61,27
341520,note_on,0,0,1,,,,,,,,,,,,,,,0,,,63,33
341520,note_on,0,0,2,,,,,,,,,,,,,,,0,,,39,31
341520,note_on,120,0,2,,,,,,,,,,,,,,,0,,,34,0
341560,set_tempo,40,1,0,,,,,,,,,,,,542986,,,,,,,
341580,note_on,60,0,1,,,,,,,,,,,,,,,0,,,63,0
341580,note_on,0,0,1,,,,,,,,,,,,,,,0,,,61,0
341600,set_tempo,40,1,0,,,,,,,,,,,,547945,,,,,,,
341640,note_on,0,0,2,,,,,,,,,,,,,,,0,,,43,34
341640,note_on,120,0,2,,,,,,,,,,,,,,,0,,,39,0
341640,set_tempo,40,1,0,,,,,,,,,,,,552995,,,,,,,
341760,set_tempo,120,1,0,,,,,,,,,,,,521739,,,,,,,
341760,note_on,120,0,2,,,,,,,,,,,,,,,0,,,43,0
341760,note_on,0,0,2,,,,,,,,,,,,,,,0,,,44,33
341760,note_on,0,0,1,,,,,,,,,,,,,,,0,,,63,34
341760,note_on,180,0,1,,,,,,,,,,,,,,,0,,,60,28
342000,note_on,240,0,2,,,,,,,,,,,,,,,0,,,44,0
342240,set_tempo,480,1,0,,,,,,,,,,,,502092,,,,,,,
342240,note_on,0,0,1,,,,,,,,,,,,,,,0,,,63,28
342240,note_on,0,0,1,,,,,,,,,,,,,,,0,,,60,0
342240,note_on,480,0,1,,,,,,,,,,,,,,,0,,,63,0
342240,note_on,0,0,1,,,,,,,,,,,,,,,0,,,60,24
342300,note_on,60,0,1,,,,,,,,,,,,,,,0,,,63,0
342300,note_on,0,0,1,,,,,,,,,,,,,,,0,,,60,0
342480,note_on,0,0,1,,,,,,,,,,,,,,,0,,,63,27
342480,set_tempo,240,1,0,,,,,,,,,,,,528634,,,,,,,
342480,note_on,180,0,1,,,,,,,,,,,,,,,0,,,60,23
342540,note_on,60,0,1,,,,,,,,,,,,,,,0,,,63,0
342540,note_on,0,0,1,,,,,,,,,,,,,,,0,,,60,0
342720,set_tempo,240,1,0,,,,,,,,,,,,517241,,,,,,,
342720,note_on,0,0,1,,,,,,,,,,,,,,,0,,,63,34
342720,note_on,180,0,1,,,,,,,,,,,,,,,0,,,60,28
343200,note_on,0,0,1,,,,,,,,,,,,,,,0,,,60,0
343200,note_on,480,0,1,,,,,,,,,,,,,,,0,,,63,0
343200,set_tempo,480,1,0,,,,,,,,,,,,515021,,,,,,,
343200,note_on,0,0,1,,,,,,,,,,,,,,,0,,,60,23
343200,note_on,1200,0,2,,,,,,,,,,,,,,,0,,,32,24
343200,note_on,0,0,1,,,,,,,,,,,,,,,0,,,63,27
343240,set_tempo,40,1,0,,,,,,,,,,,,519481,,,,,,,
343260,note_on,60,0,1,,,,,,,,,,,,,,,0,,,63,0
343260,note_on,0,0,1,,,,,,,,,,,,,,,0,,,60,0
343280,set_tempo,40,1,0,,,,,,,,,,,,524017,,,,,,,
343320,note_on,120,0,2,,,,,,,,,,,,,,,0,,,32,0
343320,note_on,0,0,2,,,,,,,,,,,,,,,0,,,36,26
343320,set_tempo,40,1,0,,,,,,,,,,,,528634,,,,,,,
343360,set_tempo,40,1,0,,,,,,,,,,,,533333,,,,,,,
343400,set_tempo,40,1,0,,,,,,,,,,,,538117,,,,,,,
343440,note_on,180,0,1,,,,,,,,,,,,,,,0,,,60,23
343440,note_on,0,0,1,,,,,,,,,,,,,,,0,,,63,27
343440,set_tempo,40,1,0,,,,,,,,,,,,542986,,,,,,,
343440,note_on,120,0,2,,,,,,,,,,,,,,,0,,,36,0
343440,note_on,0,0,2,,,,,,,,,,,,,,,0,,,39,28
343480,set_tempo,40,1,0,,,,,,,,,,,,547945,,,,,,,
343500,note_on,60,0,1,,,,,,,,,,,,,,,0,,,63,0
343500,note_on,0,0,1,,,,,,,,,,,,,,,0,,,60,0
343520,set_tempo,40,1,0,,,,,,,,,,,,552995,,,,,,,
343560,set_tempo,40,1,0,,,,,,,,,,,,560748,,,,,,,
343560,note_on,0,0,2,,,,,,,,,,,,,,,0,,,44,30
343560,note_on,120,0,2,,,,,,,,,,,,,,,0,,,39,0
343680,set_tempo,120,1,0,,,,,,,,,,,,521739,,,,,,,
343680,note_on,0,0,2,,,,,,,,,,,,,,,0,,,45,33
343680,note_on,0,0,1,,,,,,,,,,,,,,,0,,,63,34
343680,note_on,180,0,1,,,,,,,,,,,,,,,0,,,61,28
343680,note_on,120,0,2,,,,,,,,,,,,,,,0,,,44,0
343920,note_on,240,0,2,,,,,,,,,,,,,,,0,,,45,0
344160,note_on,0,0,1,,,,,,,,,,,,,,,0,,,63,27
344160,note_on,0,0,1,,,,,,,,,,,,,,,0,,,61,22
344160,note_on,0,0,1,,,,,,,,,,,,,,,0,,,61,0
344160,note_on,480,0,1,,,,,,,,,,,,,,,0,,,63,0
344160,set_tempo,480,1,0,,,,,,,,,,,,502092,,,,,,,
344220,note_on,0,0,1,,,,,,,,,,,,,,,0,,,61,0
344220,note_on,60,0,1,,,,,,,,,,,,,,,0,,,63,0
344400,note_on,180,0,1,,,,,,,,,,,,,,,0,,,61,22
344400,note_on,0,0,1,,,,,,,,,,,,,,,0,,,63,27
344400,set_tempo,240,1,0,,,,,,,,,,,,526316,,,,,,,
344460,note_on,0,0,1,,,,,,,,,,,,,,,0,,,61,0
344460,note_on,60,0,1,,,,,,,,,,,,,,,0,,,63,0
344640,note_on,0,0,1,,,,,,,,,,,,,,,0,,,63,32
344640,note_on,180,0,1,,,,,,,,,,,,,,,0,,,61,27
344640,set_tempo,240,1,0,,,,,,,,,,,,517241,,,,,,,
345120,note_on,0,0,1,,,,,,,,,,,,,,,0,,,63,28
345120,note_on,0,0,1,,,,,,,,,,,,,,,0,,,61,24
345120,note_on,1200,0,2,,,,,,,,,,,,,,,0,,,31,24
345120,set_tempo,480,1,0,,,,,,,,,,,,517241,,,,,,,
345120,note_on,480,0,1,,,,,,,,,,,,,,,0,,,63,0
345120,note_on,0,0,1,,,,,,,,,,,,,,,0,,,61,0
345160,set_tempo,40,1,0,,,,,,,,,,,,519481,,,,,,,
345180,note_on,0,0,1,,,,,,,,,,,,,,,0,,,61,0
345180,note_on,60,0,1,,,,,,,,,,,,,,,0,,,63,0
345200,set_tempo,40,1,0,,,,,,,,,,,,524017,,,,,,,
345240,set_tempo,40,1,0,,,,,,,,,,,,528634,,,,,,,
345240,note_on,0,0,2,,,,,,,,,,,,,,,0,,,34,26
345240,note_on,120,0,2,,,,,,,,,,,,,,,0,,,31,0
345280,set_tempo,40,1,0,,,,,,,,,,,,530973,,,,,,,
345320,set_tempo,40,1,0,,,,,,,,,,,,535714,,,,,,,
345360,note_on,120,0,2,,,,,,,,,,,,,,,0,,,34,0
345360,set_tempo,40,1,0,,,,,,,,,,,,540541,,,,,,,
345360,note_on,180,0,1,,,,,,,,,,,,,,,0,,,61,24
345360,note_on,0,0,1,,,,,,,,,,,,,,,0,,,63,28
345360,note_on,0,0,2,,,,,,,,,,,,,,,0,,,39,27
345400,set_tempo,40,1,0,,,,,,,,,,,,542986,,,,,,,
345420,note_on,60,0,1,,,,,,,,,,,,,,,0,,,63,0
345420,note_on,0,0,1,,,,,,,,,,,,,,,0,,,61,0
345440,set_tempo,40,1,0,,,,,,,,,,,,547945,,,,,,,
345480,set_tempo,40,1,0,,,,,,,,,,,,552995,,,,,,,
345480,note_on,120,0,2,,,,,,,,,,,,,,,0,,,39,0
345480,note_on,0,0,2,,,,,,,,,,,,,,,0,,,43,30
345600,note_on,0,0,1,,,,,,,,,,,,,,,0,,,63,34
345600,note_on,180,0,1,,,,,,,,,,,,,,,0,,,60,28
345600,note_on,0,0,2,,,,,,,,,,,,,,,0,,,44,33
345600,note_on,120,0,2,,,,,,,,,,,,,,,0,,,43,0
345600,set_tempo,120,1,0,,,,,,,,,,,,558140,,,,,,,
345840,note_on,240,0,2,,,,,,,,,,,,,,,0,,,44,0
346063,control_change,223,0,2,,,,,,,,,,,,,,,0,64,127,,
346080,note_on,0,0,1,,,,,,,,,,,,,,,0,,,56,23
346080,note_on,0,0,1,,,,,,,,,,,,,,,0,,,60,0
346080,note_on,480,0,1,,,,,,,,,,,,,,,0,,,63,0
346080,note_on,0,0,1,,,,,,,,,,,,,,,0,,,68,28
346080,set_tempo,480,1,0,,,,,,,,,,,,542986,,,,,,,
346200,note_on,120,0,1,,,,,,,,,,,,,,,0,,,68,0
346200,note_on,0,0,1,,,,,,,,,,,,,,,0,,,56,0
346320,set_tempo,240,1,0,,,,,,,,,,,,568720,,,,,,,
346320,note_on,120,0,1,,,,,,,,,,,,,,,0,,,56,23
346320,note_on,0,0,1,,,,,,,,,,,,,,,0,,,68,28
346440,note_on,0,0,1,,,,,,,,,,,,,,,0,,,56,0
346440,note_on,120,0,1,,,,,,,,,,,,,,,0,,,68,0
346560,set_tempo,240,1,0,,,,,,,,,,,,555556,,,,,,,
346560,note_on,0,0,1,,,,,,,,,,,,,,,0,,,68,31
346560,note_on,120,0,1,,,,,,,,,,,,,,,0,,,56,26
347040,note_on,480,0,1,,,,,,,,,,,,,,,0,,,68,0
347040,note_on,0,0,1,,,,,,,,,,,,,,,0,,,56,0
347040,note_on,977,0,2,,,,,,,,,,,,,,,0,,,44,23
347040,note_on,0,0,2,,,,,,,,,,,,,,,0,,,48,28
347040,set_tempo,480,1,0,,,,,,,,,,,,542986,,,,,,,
347160,note_on,0,0,2,,,,,,,,,,,,,,,0,,,44,0
347160,note_on,120,0,2,,,,,,,,,,,,,,,0,,,48,0
347280,set_tempo,240,1,0,,,,,,,,,,,,574163,,,,,,,
347280,note_on,0,0,2,,,,,,,,,,,,,,,0,,,48,28
347280,note_on,120,0,2,,,,,,,,,,,,,,,0,,,44,23
347400,note_on,0,0,2,,,,,,,,,,,,,,,0,,,44,0
347400,note_on,120,0,2,,,,,,,,,,,,,,,0,,,48,0
347520,set_tempo,240,1,0,,,,,,,,,,,,555556,,,,,,,
347520,note_on,120,0,2,,,,,,,,,,,,,,,0,,,44,28
347520,note_on,0,0,2,,,,,,,,,,,,,,,0,,,48,33
348000,note_on,480,0,2,,,,,,,,,,,,,,,0,,,48,0
348000,set_tempo,480,1,0,,,,,,,,,,,,547945,,,,,,,
348000,note_on,960,0,1,,,,,,,,,,,,,,,0,,,56,23
348000,note_on,0,0,1,,,,,,,,,,,,,,,0,,,68,28
348000,note_on,0,0,2,,,,,,,,,,,,,,,0,,,44,0
348120,note_on,120,0,1,,,,,,,,,,,,,,,0,,,68,0
348120,note_on,0,0,1,,,,,,,,,,,,,,,0,,,56,0
348240,note_on,120,0,1,,,,,,,,,,,,,,,0,,,56,23
348240,set_tempo,240,1,0,,,,,,,,,,,,574163,,,,,,,
348240,note_on,0,0,1,,,,,,,,,,,,,,,0,,,68,28
348360,note_on,120,0,1,,,,,,,,,,,,,,,0,,,68,0
348360,note_on,0,0,1,,,,,,,,,,,,,,,0,,,56,0
348480,set_tempo,240,1,0,,,,,,,,,,,,555556,,,,,,,
348480,note_on,120,0,1,,,,,,,,,,,,,,,0,,,56,26
348480,note_on,0,0,1,,,,,,,,,,,,,,,0,,,68,31
348960,set_tempo,480,1,0,,,,,,,,,,,,547945,,,,,,,
348960,note_on,480,0,1,,,,,,,,,,,,,,,0,,,68,0
348960,note_on,0,0,1,,,,,,,,,,,,,,,0,,,56,0
348960,note_on,960,0,2,,,,,,,,,,,,,,,0,,,44,23
348960,note_on,0,0,2,,,,,,,,,,,,,,,0,,,48,28
349080,note_on,120,0,2,,,,,,,,,,,,,,,0,,,48,0
349080,note_on,0,0,2,,,,,,,,,,,,,,,0,,,44,0
349200,set_tempo,240,1,0,,,,,,,,,,,,576923,,,,,,,
349200,note_on,120,0,2,,,,,,,,,,,,,,,0,,,44,23
349200,note_on,0,0,2,,,,,,,,,,,,,,,0,,,48,28
349320,note_on,0,0,2,,,,,,,,,,,,,,,0,,,44,0
349320,note_on,120,0,2,,,,,,,,,,,,,,,0,,,48,0
349440,set_tempo,240,1,0,,,,,,,,,,,,560748,,,,,,,
349440,note_on,0,0,2,,,,,,,,,,,,,,,0,,,48,33
349440,note_on,120,0,2,,,,,,,,,,,,,,,0,,,44,28
349920,note_on,480,0,2,,,,,,,,,,,,,,,0,,,48,0
349920,note_on,0,0,2,,,,,,,,,,,,,,,0,,,44,0
349920,set_tempo,480,1,0,,,,,,,,,,,,550459,,,,,,,
349920,note_on,0,0,1,,,,,,,,,,,,,,,0,,,68,28
349920,note_on,960,0,1,,,,,,,,,,,,,,,0,,,56,23
350040,note_on,0,0,1,,,,,,,,,,,,,,,0,,,56,0
350040,note_on,120,0,1,,,,,,,,,,,,,,,0,,,68,0
350160,note_on,120,0,1,,,,,,,,,,,,,,,0,,,56,23
350160,note_on,0,0,1,,,,,,,,,,,,,,,0,,,68,28
350160,set_tempo,240,1,0,,,,,,,,,,,,576923,,,,,,,
350280,note_on,120,0,1,,,,,,,,,,,,,,,0,,,68,0
350280,note_on,0,0,1,,,,,,,,,,,,,,,0,,,56,0
350400,set_tempo,240,1,0,,,,,,,,,,,,552995,,,,,,,
350400,note_on,0,0,1,,,,,,,,,,,,,,,0,,,68,31
350400,note_on,120,0,1,,,,,,,,,,,,,,,0,,,56,26
350640,set_tempo,240,1,0,,,,,,,,,,,,618557,,,,,,,
350880,set_tempo,240,1,0,,,,,,,,,,,,579710,,,,,,,
350880,note_on,0,0,1,,,,,,,,,,,,,,,0,,,56,0
350880,note_on,0,0,2,,,,,,,,,,,,,,,0,,,49,28
350880,note_on,960,0,2,,,,,,,,,,,,,,,0,,,45,23
350880,note_on,480,0,1,,,,,,,,,,,,,,,0,,,68,0
350891,control_change,11,0,2,,,,,,,,,,,,,,,0,64,0,,
350949,control_change,58,0,2,,,,,,,,,,,,,,,0,64,127,,
351000,note_on,51,0,2,,,,,,,,,,,,,,,0,,,49,0
351000,note_on,0,0,2,,,,,,,,,,,,,,,0,,,45,0
351120,set_tempo,240,1,0,,,,,,,,,,,,631579,,,,,,,
351120,note_on,120,0,2,,,,,,,,,,,,,,,0,,,45,23
351120,note_on,0,0,2,,,,,,,,,,,,,,,0,,,49,28
351240,note_on,120,0,2,,,,,,,,,,,,,,,0,,,49,0
351240,note_on,0,0,2,,,,,,,,,,,,,,,0,,,45,0
351360,note_on,120,0,2,,,,,,,,,,,,,,,0,,,45,28
351360,note_on,0,0,2,,,,,,,,,,,,,,,0,,,49,33
351360,set_tempo,240,1,0,,,,,,,,,,,,591133,,,,,,,
351817,control_change,457,0,2,,,,,,,,,,,,,,,0,64,0,,
351840,note_on,23,0,2,,,,,,,,,,,,,,,0,,,49,0
351840,note_on,0,0,1,,,,,,,,,,,,,,,0,,,68,28
351840,note_on,0,0,2,,,,,,,,,,,,,,,0,,,45,0
351840,set_tempo,480,1,0,,,,,,,,,,,,568720,,,,,,,
351840,note_on,960,0,1,,,,,,,,,,,,,,,0,,,56,23
351869,control_change,29,0,2,,,,,,,,,,,,,,,0,64,127,,
351960,note_on,120,0,1,,,,,,,,,,,,,,,0,,,68,0
351960,note_on,0,0,1,,,,,,,,,,,,,,,0,,,56,0
352080,set_tempo,240,1,0,,,,,,,,,,,,625000,,,,,,,
352080,note_on,120,0,1,,,,,,,,,,,,,,,0,,,56,23
352080,note_on,0,0,1,,,,,,,,,,,,,,,0,,,68,28
352200,note_on,120,0,1,,,,,,,,,,,,,,,0,,,68,0
352200,note_on,0,0,1,,,,,,,,,,,,,,,0,,,56,0
352320,note_on,0,0,1,,,,,,,,,,,,,,,0,,,68,31
352320,note_on,120,0,1,,,,,,,,,,,,,,,0,,,56,26
352320,set_tempo,240,1,0,,,,,,,,,,,,591133,,,,,,,
352800,note_on,0,0,2,,,,,,,,,,,,,,,0,,,49,28
352800,note_on,931,0,2,,,,,,,,,,,,,,,0,,,45,23
352800,note_on,480,0,1,,,,,,,,,,,,,,,0,,,68,0
352800,note_on,0,0,1,,,,,,,,,,,,,,,0,,,56,0
352800,set_tempo,480,1,0,,,,,,,,,,,,582524,,,,,,,
352920,note_on,120,0,2,,,,,,,,,,,,,,,0,,,49,0
352920,note_on,0,0,2,,,,,,,,,,,,,,,0,,,45,0
353040,set_tempo,240,1,0,,,,,,,,,,,,659341,,,,,,,
353040,note_on,0,0,2,,,,,,,,,,,,,,,0,,,49,28
353040,note_on,120,0,2,,,,,,,,,,,,,,,0,,,45,23
353160,note_on,0,0,2,,,,,,,,,,,,,,,0,,,45,0
353160,note_on,120,0,2,,,,,,,,,,,,,,,0,,,49,0
353280,set_tempo,240,1,0,,,,,,,,,,,,625000,,,,,,,
353280,note_on,120,0,2,,,,,,,,,,,,,,,0,,,48,28
353280,note_on,0,0,2,,,,,,,,,,,,,,,0,,,51,33
353293,control_change,13,0,2,,,,,,,,,,,,,,,0,64,0,,
353361,control_change,68,0,2,,,,,,,,,,,,,,,0,64,127,,
353760,note_on,0,0,2,,,,,,,,,,,,,,,0,,,48,0
353760,set_tempo,480,1,0,,,,,,,,,,,,603015,,,,,,,
353760,note_on,960,0,1,,,,,,,,,,,,,,,0,,,66,23
353760,note_on,0,0,1,,,,,,,,,,,,,,,0,,,56,23
353760,note_on,0,0,1,,,,,,,,,,,,,,,0,,,68,28
353760,note_on,399,0,2,,,,,,,,,,,,,,,0,,,51,0
353880,note_on,120,0,1,,,,,,,,,,,,,,,0,,,68,0
353880,note_on,0,0,1,,,,,,,,,,,,,,,0,,,66,0
353880,note_on,0,0,1,,,,,,,,,,,,,,,0,,,56,0
354000,note_on,0,0,1,,,,,,,,,,,,,,,0,,,56,23
354000,note_on,0,0,1,,,,,,,,,,,,,,,0,,,68,28
354000,note_on,120,0,1,,,,,,,,,,,,,,,0,,,66,23
354000,set_tempo,240,1,0,,,,,,,,,,,,652174,,,,,,,
354120,note_on,120,0,1,,,,,,,,,,,,,,,0,,,68,0
354120,note_on,0,0,1,,,,,,,,,,,,,,,0,,,56,0
354120,note_on,0,0,1,,,,,,,,,,,,,,,0,,,66,0
354240,note_on,0,0,1,,,,,,,,,,,,,,,0,,,56,26
354240,set_tempo,240,1,0,,,,,,,,,,,,628272,,,,,,,
354240,note_on,120,0,1,,,,,,,,,,,,,,,0,,,66,26
354240,note_on,0,0,1,,,,,,,,,,,,,,,0,,,68,31
354720,set_tempo,480,1,0,,,,,,,,,,,,609137,,,,,,,
354720,note_on,0,0,2,,,,,,,,,,,,,,,0,,,51,28
354720,note_on,480,0,1,,,,,,,,,,,,,,,0,,,68,0
354720,note_on,0,0,1,,,,,,,,,,,,,,,0,,,66,0
354720,note_on,960,0,2,,,,,,,,,,,,,,,0,,,48,23
354720,note_on,0,0,1,,,,,,,,,,,,,,,0,,,56,0
354840,note_on,0,0,2,,,,,,,,,,,,,,,0,,,48,0
354840,note_on,120,0,2,,,,,,,,,,,,,,,0,,,51,0
354960,set_tempo,240,1,0,,,,,,,,,,,,655738,,,,,,,
354960,note_on,0,0,2,,,,,,,,,,,,,,,0,,,51,28
354960,note_on,120,0,2,,,,,,,,,,,,,,,0,,,48,23
355080,note_on,120,0,2,,,,,,,,,,,,,,,0,,,51,0
355080,note_on,0,0,2,,,,,,,,,,,,,,,0,,,48,0
355200,set_tempo,240,1,0,,,,,,,,,,,,628272,,,,,,,
355200,note_on,120,0,2,,,,,,,,,,,,,,,0,,,48,28
355200,note_on,0,0,2,,,,,,,,,,,,,,,0,,,51,33
355680,note_on,0,0,1,,,,,,,,,,,,,,,0,,,68,28
355680,set_tempo,480,1,0,,,,,,,,,,,,612245,,,,,,,
355680,note_on,960,0,1,,,,,,,,,,,,,,,0,,,66,23
355680,note_on,0,0,1,,,,,,,,,,,,,,,0,,,56,23
355680,note_on,480,0,2,,,,,,,,,,,,,,,0,,,51,0
355680,note_on,0,0,2,,,,,,,,,,,,,,,0,,,48,0
355800,note_on,120,0,1,,,,,,,,,,,,,,,0,,,68,0
355800,note_on,0,0,1,,,,,,,,,,,,,,,0,,,56,0
355800,note_on,0,0,1,,,,,,,,,,,,,,,0,,,66,0
355920,note_on,0,0,1,,,,,,,,,,,,,,,0,,,56,23
355920,note_on,120,0,1,,,,,,,,,,,,,,,0,,,66,23
355920,note_on,0,0,1,,,,,,,,,,,,,,,0,,,68,28
355920,set_tempo,240,1,0,,,,,,,,,,,,670391,,,,,,,
356040,note_on,120,0,1,,,,,,,,,,,,,,,0,,,68,0
356040,note_on,0,0,1,,,,,,,,,,,,,,,0,,,56,0
356040,note_on,0,0,1,,,,,,,,,,,,,,,0,,,66,0
356160,note_on,0,0,2,,,,,,,,,,,,,,,0,,,51,33
356160,note_on,480,0,2,,,,,,,,,,,,,,,0,,,48,28
356160,set_tempo,240,1,0,,,,,,,,,,,,648649,,,,,,,
356640,note_on,0,0,1,,,,,,,,,,,,,,,0,,,56,23
356640,note_on,480,0,2,,,,,,,,,,,,,,,0,,,51,0
356640,note_on,0,0,2,,,,,,,,,,,,,,,0,,,48,0
356640,note_on,0,0,1,,,,,,,,,,,,,,,0,,,68,28
356640,note_on,600,0,1,,,,,,,,,,,,,,,0,,,66,23
356640,set_tempo,480,1,0,,,,,,,,,,,,631579,,,,,,,
356760,note_on,0,0,1,,,,,,,,,,,,,,,0,,,66,0
356760,note_on,0,0,1,,,,,,,,,,,,,,,0,,,56,0
356760,note_on,120,0,1,,,,,,,,,,,,,,,0,,,68,0
356880,note_on,0,0,1,,,,,,,,,,,,,,,0,,,68,28
356880,note_on,120,0,1,,,,,,,,,,,,,,,0,,,66,23
356880,set_tempo,240,1,0,,,,,,,,,,,,705882,,,,,,,
356880,note_on,0,0,1,,,,,,,,,,,,,,,0,,,56,23
357000,note_on,0,0,1,,,,,,,,,,,,,,,0,,,56,0
357000,note_on,0,0,1,,,,,,,,,,,,,,,0,,,66,0
357000,note_on,120,0,1,,,,,,,,,,,,,,,0,,,68,0
357120,control_change,480,0,2,,,,,,,,,,,,,,,0,64,0,,
357120,set_tempo,240,1,0,,,,,,,,,,,,666667,,,,,,,
357120,note_on,0,0,2,,,,,,,,,,,,,,,0,,,48,28
357120,note_on,0,0,2,,,,,,,,,,,,,,,0,,,51,33
357300,control_change,180,0,2,,,,,,,,,,,,,,,0,64,127,,
357600,note_on,300,0,2,,,,,,,,,,,,,,,0,,,51,0
357600,note_on,0,0,2,,,,,,,,,,,,,,,0,,,48,0
357600,note_on,600,0,1,,,,,,,,,,,,,,,0,,,66,22
357600,note_on,0,0,1,,,,,,,,,,,,,,,0,,,56,22
357600,note_on,0,0,1,,,,,,,,,,,,,,,0,,,68,27
358080,note_on,480,0,2,,,,,,,,,,,,,,,0,,,48,27
358080,note_on,0,0,2,,,,,,,,,,,,,,,0,,,51,32
358080,note_on,0,0,1,,,,,,,,,,,,,,,0,,,66,0
358080,note_on,480,0,1,,,,,,,,,,,,,,,0,,,68,0
358080,note_on,0,0,1,,,,,,,,,,,,,,,0,,,56,0
358560,note_on,0,0,2,,,,,,,,,,,,,,,0,,,48,0
358560,note_on,0,0,1,,,,,,,,,,,,,,,0,,,68,26
358560,note_on,480,0,2,,,,,,,,,,,,,,,0,,,51,0
358560,note_on,480,0,1,,,,,,,,,,,,,,,0,,,66,21
358560,note_on,0,0,1,,,,,,,,,,,,,,,0,,,56,21
358560,set_tempo,1440,1,0,,,,,,,,,,,,731707,,,,,,,
359040,set_tempo,480,1,0,,,,,,,,,,,,784314,,,,,,,
359040,note_on,0,0,1,,,,,,,,,,,,,,,0,,,56,0
359040,note_on,480,0,1,,,,,,,,,,,,,,,0,,,68,0
359040,note_on,0,0,1,,,,,,,,,,,,,,,0,,,66,0
359040,note_on,480,0,2,,,,,,,,,,,,,,,0,,,48,26
359040,note_on,0,0,2,,,,,,,,,,,,,,,0,,,51,30
359047,control_change,7,0,2,,,,,,,,,,,,,,,0,64,0,,
359239,control_change,192,0,2,,,,,,,,,,,,,,,0,64,127,,
359520,note_on,0,0,1,,,,,,,,,,,,,,,0,,,57,20
359520,note_on,0,0,1,,,,,,,,,,,,,,,0,,,69,25
359520,note_on,0,0,2,,,,,,,,,,,,,,,0,,,48,0
359520,set_tempo,480,1,0,,,,,,,,,,,,827586,,,,,,,
359520,note_on,281,0,2,,,,,,,,,,,,,,,0,,,51,0
359520,note_on,480,0,1,,,,,,,,,,,,,,,0,,,66,20
360000,note_on,0,0,1,,,,,,,,,,,,,,,0,,,57,0
360000,note_on,480,0,2,,,,,,,,,,,,,,,0,,,48,25
360000,note_on,0,0,2,,,,,,,,,,,,,,,0,,,51,29
360000,note_on,480,0,1,,,,,,,,,,,,,,,0,,,69,0
360000,note_on,0,0,1,,,,,,,,,,,,,,,0,,,66,0
360000,set_tempo,480,1,0,,,,,,,,,,,,960000,,,,,,,
360010,control_change,10,0,2,,,,,,,,,,,,,,,0,64,0,,
360215,control_change,205,0,2,,,,,,,,,,,,,,,0,64,127,,
360480,note_on,480,0,1,,,,,,,,,,,,,,,0,,,66,20
360480,note_on,0,0,1,,,,,,,,,,,,,,,0,,,56,20
360480,note_on,0,0,1,,,,,,,,,,,,,,,0,,,68,24
360480,note_on,0,0,2,,,,,,,,,,,,,,,0,,,48,0
360480,note_on,265,0,2,,,,,,,,,,,,,,,0,,,51,0
360480,set_tempo,480,1,0,,,,,,,,,,,,2000000,,,,,,,
360960,control_change,480,0,2,,,,,,,,,,,,,,,0,64,0,,
360960,end_of_track,0,1,1,,,,,,,,,,,,,,,,,,,
360960,set_tempo,480,1,0,,,,,,,,,,,,960000,,,,,,,
360960,note_on,480,0,1,,,,,,,,,,,,,,,0,,,68,0
360960,note_on,0,0,1,,,,,,,,,,,,,,,0,,,56,0
360960,end_of_track,0,1,2,,,,,,,,,,,,,,,,,,,
360960,note_on,0,0,1,,,,,,,,,,,,,,,0,,,66,0
362880,end_of_track,0,1,0,,,,,,,,,,,,,,,,,,,
362880,set_tempo,1920,1,0,,,,,,,,,,,,666667,,,,,,,
