tick,type,time,meta,track,numerator,denominator,clocks_per_click,notated_32nd_notes_per_beat,key,tempo,port,program,channel,control,value,note,velocity
0,track_name,0,1,0,,,,,,,,,,,,,
0,program_change,0,0,1,,,,,,,,0,0,,,,
0,control_change,0,0,1,,,,,,,,,0,7,127,,
0,control_change,0,0,1,,,,,,,,,0,10,64,,
0,note_on,0,0,1,,,,,,,,,0,,,67,110
0,note_on,0,0,1,,,,,,,,,0,,,79,110
0,track_name,0,1,6,,,,,,,,,,,,,
0,midi_port,0,1,2,,,,,,,0,,,,,,
0,track_name,0,1,2,,,,,,,,,,,,,
0,program_change,0,0,2,,,,,,,,0,0,,,,
0,control_change,0,0,2,,,,,,,,,0,7,127,,
0,control_change,0,0,2,,,,,,,,,0,10,64,,
0,midi_port,0,1,3,,,,,,,0,,,,,,
0,track_name,0,1,3,,,,,,,,,,,,,
0,program_change,0,0,3,,,,,,,,0,0,,,,
0,control_change,0,0,3,,,,,,,,,0,7,127,,
0,control_change,0,0,3,,,,,,,,,0,10,64,,
0,note_on,0,0,3,,,,,,,,,0,,,31,110
0,note_on,0,0,3,,,,,,,,,0,,,43,110
0,midi_port,0,1,4,,,,,,,0,,,,,,
0,track_name,0,1,4,,,,,,,,,,,,,
0,program_change,0,0,4,,,,,,,,0,0,,,,
0,control_change,0,0,4,,,,,,,,,0,7,127,,
0,control_change,0,0,4,,,,,,,,,0,10,64,,
0,midi_port,0,1,5,,,,,,,0,,,,,,
0,track_name,0,1,5,,,,,,,,,,,,,
0,end_of_track,0,1,5,,,,,,,,,,,,,
0,midi_port,0,1,6,,,,,,,0,,,,,,
0,track_name,0,1,1,,,,,,,,,,,,,
0,midi_port,0,1,1,,,,,,,0,,,,,,
0,end_of_track,0,1,6,,,,,,,,,,,,,
0,copyright,0,1,0,,,,,,,,,,,,,
0,set_tempo,0,1,0,,,,,,1500000,,,,,,,
0,marker,0,1,0,,,,,,,,,,,,,
0,key_signature,0,1,0,,,,,Eb,,,,,,,,
0,text,0,1,0,,,,,,,,,,,,,
0,time_signature,0,1,0,4,4,24,8,,,,,,,,,
360,set_tempo,360,1,0,,,,,,535714,,,,,,,
360,note_on,360,0,1,,,,,,,,,0,,,79,0
360,note_on,0,0,1,,,,,,,,,0,,,67,0
360,note_on,0,0,1,,,,,,,,,0,,,71,40
360,note_on,0,0,3,,,,,,,,,0,,,31,0
360,note_on,360,0,3,,,,,,,,,0,,,43,0
450,note_on,90,0,1,,,,,,,,,0,,,71,0
450,note_on,0,0,1,,,,,,,,,0,,,72,40
480,note_on,0,0,1,,,,,,,,,0,,,74,40
480,note_on,30,0,1,,,,,,,,,0,,,72,0
600,note_on,120,0,1,,,,,,,,,0,,,74,0
600,note_on,0,0,1,,,,,,,,,0,,,74,40
720,note_on,120,0,1,,,,,,,,,0,,,74,0
720,note_on,0,0,1,,,,,,,,,0,,,74,40
840,note_on,120,0,1,,,,,,,,,0,,,74,0
840,note_on,0,0,1,,,,,,,,,0,,,72,40
930,note_on,90,0,1,,,,,,,,,0,,,72,0
930,note_on,0,0,1,,,,,,,,,0,,,74,40
960,note_on,30,0,1,,,,,,,,,0,,,74,0
960,note_on,0,0,1,,,,,,,,,0,,,75,40
1140,note_on,0,0,1,,,,,,,,,0,,,74,40
1140,note_on,180,0,1,,,,,,,,,0,,,75,0
1200,note_on,60,0,1,,,,,,,,,0,,,74,0
1200,note_on,0,0,1,,,,,,,,,0,,,72,40
1320,note_on,120,0,1,,,,,,,,,0,,,72,0
1320,note_on,0,0,1,,,,,,,,,0,,,74,40
1410,note_on,90,0,1,,,,,,,,,0,,,74,0
1410,note_on,0,0,1,,,,,,,,,0,,,72,40
1440,note_on,30,0,1,,,,,,,,,0,,,72,0
1440,note_on,0,0,1,,,,,,,,,0,,,71,40
1560,note_on,0,0,1,,,,,,,,,0,,,69,40
1560,note_on,120,0,1,,,,,,,,,0,,,71,0
1650,note_on,90,0,1,,,,,,,,,0,,,69,0
1650,note_on,0,0,1,,,,,,,,,0,,,71,40
1680,note_on,30,0,1,,,,,,,,,0,,,71,0
1680,note_on,0,0,1,,,,,,,,,0,,,72,40
1800,note_on,120,0,1,,,,,,,,,0,,,72,0
1800,note_on,0,0,1,,,,,,,,,0,,,74,40
1890,note_on,90,0,1,,,,,,,,,0,,,74,0
1890,note_on,0,0,1,,,,,,,,,0,,,75,40
1920,note_on,0,0,1,,,,,,,,,0,,,74,40
1920,note_on,30,0,1,,,,,,,,,0,,,75,0
2280,note_on,1920,0,3,,,,,,,,,0,,,55,40
2280,note_on,360,0,1,,,,,,,,,0,,,74,0
2280,note_on,0,0,1,,,,,,,,,0,,,62,40
2280,note_on,0,0,1,,,,,,,,,0,,,67,40
2280,note_on,0,0,1,,,,,,,,,0,,,71,50
2370,note_on,0,0,3,,,,,,,,,0,,,55,40
2370,note_on,90,0,3,,,,,,,,,0,,,55,0
2370,note_on,90,0,1,,,,,,,,,0,,,71,0
2370,note_on,0,0,1,,,,,,,,,0,,,67,0
2370,note_on,0,0,1,,,,,,,,,0,,,62,0
2370,note_on,0,0,1,,,,,,,,,0,,,67,40
2370,note_on,0,0,1,,,,,,,,,0,,,63,40
2370,note_on,0,0,1,,,,,,,,,0,,,72,50
2400,note_on,0,0,1,,,,,,,,,0,,,63,0
2400,note_on,0,0,1,,,,,,,,,0,,,67,0
2400,note_on,0,0,1,,,,,,,,,0,,,67,40
2400,note_on,0,0,1,,,,,,,,,0,,,65,40
2400,note_on,0,0,1,,,,,,,,,0,,,74,50
2400,note_on,30,0,3,,,,,,,,,0,,,55,0
2400,note_on,0,0,3,,,,,,,,,0,,,55,40
2400,note_on,30,0,1,,,,,,,,,0,,,72,0
2520,note_on,0,0,3,,,,,,,,,0,,,55,40
2520,note_on,0,0,1,,,,,,,,,0,,,67,0
2520,note_on,0,0,1,,,,,,,,,0,,,65,40
2520,note_on,120,0,3,,,,,,,,,0,,,55,0
2520,note_on,0,0,1,,,,,,,,,0,,,67,40
2520,note_on,0,0,1,,,,,,,,,0,,,74,50
2520,note_on,0,0,1,,,,,,,,,0,,,65,0
2520,note_on,120,0,1,,,,,,,,,0,,,74,0
2640,note_on,120,0,3,,,,,,,,,0,,,55,0
2640,note_on,0,0,1,,,,,,,,,0,,,65,0
2640,note_on,0,0,1,,,,,,,,,0,,,65,40
2640,note_on,0,0,1,,,,,,,,,0,,,67,40
2640,note_on,0,0,1,,,,,,,,,0,,,74,50
2640,note_on,0,0,3,,,,,,,,,0,,,55,40
2640,note_on,0,0,1,,,,,,,,,0,,,67,0
2640,note_on,120,0,1,,,,,,,,,0,,,74,0
2760,note_on,0,0,1,,,,,,,,,0,,,63,40
2760,note_on,0,0,1,,,,,,,,,0,,,67,40
2760,note_on,0,0,1,,,,,,,,,0,,,65,0
2760,note_on,120,0,3,,,,,,,,,0,,,55,0
2760,note_on,0,0,1,,,,,,,,,0,,,67,0
2760,note_on,120,0,1,,,,,,,,,0,,,74,0
2760,note_on,0,0,1,,,,,,,,,0,,,72,50
2760,note_on,0,0,3,,,,,,,,,0,,,55,40
2850,note_on,90,0,1,,,,,,,,,0,,,72,0
2850,note_on,0,0,1,,,,,,,,,0,,,63,0
2850,note_on,0,0,1,,,,,,,,,0,,,67,0
2850,note_on,0,0,1,,,,,,,,,0,,,67,40
2850,note_on,0,0,1,,,,,,,,,0,,,65,40
2850,note_on,0,0,1,,,,,,,,,0,,,74,50
2880,note_on,0,0,1,,,,,,,,,0,,,75,50
2880,note_on,0,0,1,,,,,,,,,0,,,67,40
2880,note_on,30,0,1,,,,,,,,,0,,,74,0
2880,note_on,0,0,1,,,,,,,,,0,,,65,0
2880,note_on,0,0,3,,,,,,,,,0,,,55,40
2880,note_on,120,0,3,,,,,,,,,0,,,55,0
2880,note_on,0,0,1,,,,,,,,,0,,,67,0
3000,note_on,0,0,3,,,,,,,,,0,,,57,40
3000,note_on,120,0,3,,,,,,,,,0,,,55,0
3090,note_on,0,0,1,,,,,,,,,0,,,67,0
3090,note_on,0,0,1,,,,,,,,,0,,,74,50
3090,note_on,0,0,1,,,,,,,,,0,,,65,40
3090,note_on,210,0,1,,,,,,,,,0,,,75,0
3090,note_on,90,0,3,,,,,,,,,0,,,57,0
3090,note_on,0,0,3,,,,,,,,,0,,,59,40
3090,note_on,0,0,1,,,,,,,,,0,,,67,40
3120,note_on,0,0,1,,,,,,,,,0,,,72,50
3120,note_on,0,0,1,,,,,,,,,0,,,63,40
3120,note_on,0,0,1,,,,,,,,,0,,,67,40
3120,note_on,0,0,3,,,,,,,,,0,,,60,40
3120,note_on,30,0,3,,,,,,,,,0,,,59,0
3120,note_on,0,0,1,,,,,,,,,0,,,67,0
3120,note_on,0,0,1,,,,,,,,,0,,,65,0
3120,note_on,30,0,1,,,,,,,,,0,,,74,0
3240,note_on,0,0,1,,,,,,,,,0,,,68,40
3240,note_on,0,0,1,,,,,,,,,0,,,65,40
3240,note_on,0,0,1,,,,,,,,,0,,,74,50
3240,note_on,120,0,1,,,,,,,,,0,,,72,0
3240,note_on,120,0,3,,,,,,,,,0,,,60,0
3240,note_on,0,0,1,,,,,,,,,0,,,67,0
3240,note_on,0,0,1,,,,,,,,,0,,,63,0
3240,note_on,0,0,3,,,,,,,,,0,,,53,40
3330,note_on,90,0,3,,,,,,,,,0,,,53,0
3330,note_on,0,0,3,,,,,,,,,0,,,53,40
3330,note_on,90,0,1,,,,,,,,,0,,,74,0
3330,note_on,0,0,1,,,,,,,,,0,,,65,0
3330,note_on,0,0,1,,,,,,,,,0,,,68,0
3330,note_on,0,0,1,,,,,,,,,0,,,63,40
3330,note_on,0,0,1,,,,,,,,,0,,,72,50
3330,note_on,0,0,1,,,,,,,,,0,,,68,40
3360,note_on,0,0,3,,,,,,,,,0,,,55,40
3360,set_tempo,3000,1,0,,,,,,536241,,,,,,,
3360,note_on,0,0,1,,,,,,,,,0,,,71,50
3360,note_on,0,0,1,,,,,,,,,0,,,62,40
3360,note_on,0,0,1,,,,,,,,,0,,,67,40
3360,note_on,0,0,1,,,,,,,,,0,,,68,0
3360,note_on,0,0,1,,,,,,,,,0,,,63,0
3360,note_on,30,0,3,,,,,,,,,0,,,53,0
3360,note_on,30,0,1,,,,,,,,,0,,,72,0
3374,set_tempo,14,1,0,,,,,,537683,,,,,,,
3381,set_tempo,7,1,0,,,,,,539132,,,,,,,
3388,set_tempo,7,1,0,,,,,,540589,,,,,,,
3395,set_tempo,7,1,0,,,,,,542054,,,,,,,
3402,set_tempo,7,1,0,,,,,,543527,,,,,,,
3409,set_tempo,7,1,0,,,,,,545009,,,,,,,
3416,set_tempo,7,1,0,,,,,,546498,,,,,,,
3423,set_tempo,7,1,0,,,,,,547995,,,,,,,
3430,set_tempo,7,1,0,,,,,,549501,,,,,,,
3437,set_tempo,7,1,0,,,,,,551015,,,,,,,
3444,set_tempo,7,1,0,,,,,,552537,,,,,,,
3451,set_tempo,7,1,0,,,,,,554068,,,,,,,
3458,set_tempo,7,1,0,,,,,,555607,,,,,,,
3465,set_tempo,7,1,0,,,,,,557155,,,,,,,
3472,set_tempo,7,1,0,,,,,,558711,,,,,,,
3480,set_tempo,8,1,0,,,,,,560276,,,,,,,
3480,note_on,120,0,1,,,,,,,,,0,,,71,0
3480,note_on,0,0,1,,,,,,,,,0,,,62,0
3480,note_on,0,0,1,,,,,,,,,0,,,67,0
3480,note_on,0,0,1,,,,,,,,,0,,,67,40
3480,note_on,0,0,1,,,,,,,,,0,,,60,40
3480,note_on,0,0,1,,,,,,,,,0,,,69,50
3487,set_tempo,7,1,0,,,,,,561850,,,,,,,
3494,set_tempo,7,1,0,,,,,,563433,,,,,,,
3501,set_tempo,7,1,0,,,,,,565025,,,,,,,
3508,set_tempo,7,1,0,,,,,,566626,,,,,,,
3515,set_tempo,7,1,0,,,,,,568236,,,,,,,
3522,set_tempo,7,1,0,,,,,,569855,,,,,,,
3529,set_tempo,7,1,0,,,,,,571483,,,,,,,
3536,set_tempo,7,1,0,,,,,,573121,,,,,,,
3543,set_tempo,7,1,0,,,,,,574768,,,,,,,
3550,set_tempo,7,1,0,,,,,,576424,,,,,,,
3557,set_tempo,7,1,0,,,,,,578090,,,,,,,
3564,set_tempo,7,1,0,,,,,,579766,,,,,,,
3570,note_on,0,0,1,,,,,,,,,0,,,71,50
3570,note_on,90,0,1,,,,,,,,,0,,,69,0
3570,note_on,0,0,1,,,,,,,,,0,,,62,40
3570,note_on,0,0,3,,,,,,,,,0,,,53,40
3570,note_on,0,0,3,,,,,,,,,0,,,55,40
3570,note_on,210,0,3,,,,,,,,,0,,,55,0
3570,note_on,0,0,1,,,,,,,,,0,,,60,0
3570,note_on,0,0,1,,,,,,,,,0,,,67,0
3570,note_on,0,0,1,,,,,,,,,0,,,67,40
3571,set_tempo,7,1,0,,,,,,581452,,,,,,,
3578,set_tempo,7,1,0,,,,,,583147,,,,,,,
3585,set_tempo,7,1,0,,,,,,584852,,,,,,,
3592,set_tempo,7,1,0,,,,,,586568,,,,,,,
3600,note_on,0,0,1,,,,,,,,,0,,,67,0
3600,note_on,30,0,3,,,,,,,,,0,,,53,0
3600,note_on,0,0,3,,,,,,,,,0,,,55,0
3600,note_on,0,0,3,,,,,,,,,0,,,55,40
3600,note_on,0,0,3,,,,,,,,,0,,,51,40
3600,note_on,0,0,1,,,,,,,,,0,,,62,0
3600,note_on,30,0,1,,,,,,,,,0,,,71,0
3600,note_on,0,0,1,,,,,,,,,0,,,63,40
3600,note_on,0,0,1,,,,,,,,,0,,,67,40
3600,set_tempo,8,1,0,,,,,,588293,,,,,,,
3600,note_on,0,0,1,,,,,,,,,0,,,72,50
3607,set_tempo,7,1,0,,,,,,590029,,,,,,,
3614,set_tempo,7,1,0,,,,,,591774,,,,,,,
3621,set_tempo,7,1,0,,,,,,593531,,,,,,,
3628,set_tempo,7,1,0,,,,,,595297,,,,,,,
3635,set_tempo,7,1,0,,,,,,597074,,,,,,,
3642,set_tempo,7,1,0,,,,,,598862,,,,,,,
3649,set_tempo,7,1,0,,,,,,600661,,,,,,,
3656,set_tempo,7,1,0,,,,,,602470,,,,,,,
3663,set_tempo,7,1,0,,,,,,604290,,,,,,,
3670,set_tempo,7,1,0,,,,,,606122,,,,,,,
3677,set_tempo,7,1,0,,,,,,607964,,,,,,,
3684,set_tempo,7,1,0,,,,,,609818,,,,,,,
3691,set_tempo,7,1,0,,,,,,611683,,,,,,,
3698,set_tempo,7,1,0,,,,,,613560,,,,,,,
3705,set_tempo,7,1,0,,,,,,615448,,,,,,,
3712,set_tempo,7,1,0,,,,,,617347,,,,,,,
3720,note_on,120,0,3,,,,,,,,,0,,,51,0
3720,note_on,0,0,3,,,,,,,,,0,,,55,0
3720,note_on,0,0,3,,,,,,,,,0,,,43,40
3720,note_on,0,0,3,,,,,,,,,0,,,55,40
3720,set_tempo,8,1,0,,,,,,619259,,,,,,,
3720,note_on,120,0,1,,,,,,,,,0,,,72,0
3720,note_on,0,0,1,,,,,,,,,0,,,63,0
3720,note_on,0,0,1,,,,,,,,,0,,,67,0
3720,note_on,0,0,1,,,,,,,,,0,,,75,50
3720,note_on,0,0,1,,,,,,,,,0,,,67,40
3727,set_tempo,7,1,0,,,,,,621182,,,,,,,
3734,set_tempo,7,1,0,,,,,,623118,,,,,,,
3741,set_tempo,7,1,0,,,,,,625065,,,,,,,
3748,set_tempo,7,1,0,,,,,,627025,,,,,,,
3755,set_tempo,7,1,0,,,,,,628997,,,,,,,
3762,set_tempo,7,1,0,,,,,,630981,,,,,,,
3769,set_tempo,7,1,0,,,,,,632978,,,,,,,
3776,set_tempo,7,1,0,,,,,,634988,,,,,,,
3783,set_tempo,7,1,0,,,,,,637010,,,,,,,
3790,set_tempo,7,1,0,,,,,,639046,,,,,,,
3797,set_tempo,7,1,0,,,,,,641094,,,,,,,
3804,set_tempo,7,1,0,,,,,,643156,,,,,,,
3810,note_on,0,0,1,,,,,,,,,0,,,67,40
3810,note_on,0,0,1,,,,,,,,,0,,,65,40
3810,note_on,0,0,1,,,,,,,,,0,,,74,50
3810,note_on,90,0,1,,,,,,,,,0,,,75,0
3810,note_on,0,0,1,,,,,,,,,0,,,67,0
3810,note_on,0,0,3,,,,,,,,,0,,,55,40
3810,note_on,90,0,3,,,,,,,,,0,,,55,0
3810,note_on,0,0,3,,,,,,,,,0,,,43,0
3810,note_on,0,0,3,,,,,,,,,0,,,43,40
3811,set_tempo,7,1,0,,,,,,645231,,,,,,,
3818,set_tempo,7,1,0,,,,,,647319,,,,,,,
3825,set_tempo,7,1,0,,,,,,649421,,,,,,,
3832,set_tempo,7,1,0,,,,,,651537,,,,,,,
3840,note_on,30,0,3,,,,,,,,,0,,,55,0
3840,note_on,0,0,1,,,,,,,,,0,,,72,50
3840,note_on,0,0,1,,,,,,,,,0,,,63,40
3840,note_on,0,0,1,,,,,,,,,0,,,67,40
3840,note_on,30,0,1,,,,,,,,,0,,,74,0
3840,note_on,0,0,1,,,,,,,,,0,,,65,0
3840,note_on,0,0,3,,,,,,,,,0,,,43,0
3840,note_on,0,0,3,,,,,,,,,0,,,48,40
3840,note_on,0,0,3,,,,,,,,,0,,,55,40
3840,set_tempo,8,1,0,,,,,,652174,,,,,,,
3840,note_on,0,0,1,,,,,,,,,0,,,67,0
4200,note_on,0,0,1,,,,,,,,,0,,,74,40
4200,note_on,0,0,1,,,,,,,,,0,,,67,0
4200,note_on,360,0,1,,,,,,,,,0,,,72,0
4200,set_tempo,360,1,0,,,,,,535714,,,,,,,
4200,note_on,360,0,3,,,,,,,,,0,,,55,0
4200,note_on,0,0,3,,,,,,,,,0,,,48,0
4200,note_on,0,0,1,,,,,,,,,0,,,63,0
4290,note_on,90,0,1,,,,,,,,,0,,,74,0
4290,note_on,0,0,1,,,,,,,,,0,,,75,40
4320,note_on,30,0,1,,,,,,,,,0,,,75,0
4320,note_on,0,0,1,,,,,,,,,0,,,77,40
4440,note_on,120,0,1,,,,,,,,,0,,,77,0
4440,note_on,0,0,1,,,,,,,,,0,,,77,40
4560,note_on,0,0,1,,,,,,,,,0,,,77,40
4560,note_on,120,0,1,,,,,,,,,0,,,77,0
4680,note_on,120,0,1,,,,,,,,,0,,,77,0
4680,note_on,0,0,1,,,,,,,,,0,,,75,40
4770,note_on,90,0,1,,,,,,,,,0,,,75,0
4770,note_on,0,0,1,,,,,,,,,0,,,74,40
4800,note_on,30,0,1,,,,,,,,,0,,,74,0
4800,note_on,0,0,1,,,,,,,,,0,,,79,40
4980,note_on,180,0,1,,,,,,,,,0,,,79,0
4980,note_on,0,0,1,,,,,,,,,0,,,77,40
5040,note_on,60,0,1,,,,,,,,,0,,,77,0
5040,note_on,0,0,1,,,,,,,,,0,,,75,40
5160,note_on,0,0,1,,,,,,,,,0,,,74,40
5160,note_on,120,0,1,,,,,,,,,0,,,75,0
5250,note_on,90,0,1,,,,,,,,,0,,,74,0
5250,note_on,0,0,1,,,,,,,,,0,,,72,40
5280,note_on,30,0,1,,,,,,,,,0,,,72,0
5280,note_on,0,0,1,,,,,,,,,0,,,71,40
5400,note_on,0,0,1,,,,,,,,,0,,,69,40
5400,note_on,120,0,1,,,,,,,,,0,,,71,0
5490,note_on,0,0,1,,,,,,,,,0,,,71,40
5490,note_on,90,0,1,,,,,,,,,0,,,69,0
5520,note_on,0,0,1,,,,,,,,,0,,,72,40
5520,note_on,30,0,1,,,,,,,,,0,,,71,0
5640,note_on,0,0,1,,,,,,,,,0,,,77,40
5640,note_on,120,0,1,,,,,,,,,0,,,72,0
5730,note_on,0,0,1,,,,,,,,,0,,,75,40
5730,note_on,90,0,1,,,,,,,,,0,,,77,0
5760,note_on,30,0,1,,,,,,,,,0,,,75,0
5760,note_on,0,0,1,,,,,,,,,0,,,74,40
6120,note_on,0,0,1,,,,,,,,,0,,,74,50
6120,note_on,0,0,1,,,,,,,,,0,,,65,40
6120,note_on,360,0,1,,,,,,,,,0,,,74,0
6120,note_on,1920,0,3,,,,,,,,,0,,,58,40
6120,note_on,0,0,1,,,,,,,,,0,,,70,40
6210,note_on,0,0,3,,,,,,,,,0,,,58,40
6210,note_on,90,0,1,,,,,,,,,0,,,74,0
6210,note_on,0,0,1,,,,,,,,,0,,,65,0
6210,note_on,0,0,1,,,,,,,,,0,,,70,0
6210,note_on,0,0,1,,,,,,,,,0,,,70,40
6210,note_on,0,0,1,,,,,,,,,0,,,67,40
6210,note_on,0,0,1,,,,,,,,,0,,,75,50
6210,note_on,90,0,3,,,,,,,,,0,,,58,0
6240,note_on,0,0,3,,,,,,,,,0,,,58,40
6240,note_on,30,0,1,,,,,,,,,0,,,75,0
6240,note_on,0,0,1,,,,,,,,,0,,,67,0
6240,note_on,0,0,1,,,,,,,,,0,,,70,0
6240,note_on,0,0,1,,,,,,,,,0,,,70,40
6240,note_on,0,0,1,,,,,,,,,0,,,68,40
6240,note_on,0,0,1,,,,,,,,,0,,,77,50
6240,note_on,30,0,3,,,,,,,,,0,,,58,0
6360,note_on,120,0,3,,,,,,,,,0,,,58,0
6360,note_on,0,0,1,,,,,,,,,0,,,77,50
6360,note_on,0,0,1,,,,,,,,,0,,,68,40
6360,note_on,0,0,1,,,,,,,,,0,,,70,40
6360,note_on,0,0,1,,,,,,,,,0,,,70,0
6360,note_on,0,0,1,,,,,,,,,0,,,68,0
6360,note_on,0,0,3,,,,,,,,,0,,,58,40
6360,note_on,120,0,1,,,,,,,,,0,,,77,0
6480,note_on,0,0,3,,,,,,,,,0,,,58,40
6480,note_on,120,0,3,,,,,,,,,0,,,58,0
6480,note_on,120,0,1,,,,,,,,,0,,,77,0
6480,note_on,0,0,1,,,,,,,,,0,,,68,0
6480,note_on,0,0,1,,,,,,,,,0,,,70,0
6480,note_on,0,0,1,,,,,,,,,0,,,70,40
6480,note_on,0,0,1,,,,,,,,,0,,,68,40
6480,note_on,0,0,1,,,,,,,,,0,,,77,50
6600,note_on,120,0,1,,,,,,,,,0,,,77,0
6600,note_on,0,0,1,,,,,,,,,0,,,70,40
6600,note_on,0,0,1,,,,,,,,,0,,,67,40
6600,note_on,120,0,3,,,,,,,,,0,,,58,0
6600,note_on,0,0,3,,,,,,,,,0,,,58,40
6600,note_on,0,0,1,,,,,,,,,0,,,70,0
6600,note_on,0,0,1,,,,,,,,,0,,,68,0
6600,note_on,0,0,1,,,,,,,,,0,,,75,50
6690,note_on,0,0,1,,,,,,,,,0,,,70,40
6690,note_on,0,0,1,,,,,,,,,0,,,65,40
6690,note_on,0,0,1,,,,,,,,,0,,,74,50
6690,note_on,0,0,1,,,,,,,,,0,,,67,0
6690,note_on,0,0,3,,,,,,,,,0,,,58,40
6690,note_on,90,0,3,,,,,,,,,0,,,58,0
6690,note_on,90,0,1,,,,,,,,,0,,,75,0
6690,note_on,0,0,1,,,,,,,,,0,,,70,0
6720,note_on,30,0,1,,,,,,,,,0,,,74,0
6720,note_on,0,0,1,,,,,,,,,0,,,70,0
6720,note_on,0,0,1,,,,,,,,,0,,,70,40
6720,note_on,0,0,1,,,,,,,,,0,,,79,50
6720,note_on,0,0,3,,,,,,,,,0,,,58,40
6720,note_on,0,0,1,,,,,,,,,0,,,65,0
6720,note_on,30,0,3,,,,,,,,,0,,,58,0
6840,note_on,0,0,3,,,,,,,,,0,,,60,40
6840,note_on,120,0,3,,,,,,,,,0,,,58,0
6930,note_on,0,0,3,,,,,,,,,0,,,62,40
6930,note_on,90,0,3,,,,,,,,,0,,,60,0
6930,note_on,210,0,1,,,,,,,,,0,,,79,0
6930,note_on,0,0,1,,,,,,,,,0,,,70,0
6930,note_on,0,0,1,,,,,,,,,0,,,70,40
6930,note_on,0,0,1,,,,,,,,,0,,,68,40
6930,note_on,0,0,1,,,,,,,,,0,,,77,50
6960,note_on,0,0,3,,,,,,,,,0,,,63,40
6960,note_on,30,0,3,,,,,,,,,0,,,62,0
6960,note_on,30,0,1,,,,,,,,,0,,,77,0
6960,note_on,0,0,1,,,,,,,,,0,,,68,0
6960,note_on,0,0,1,,,,,,,,,0,,,70,40
6960,note_on,0,0,1,,,,,,,,,0,,,67,40
6960,note_on,0,0,1,,,,,,,,,0,,,75,50
6960,note_on,0,0,1,,,,,,,,,0,,,70,0
7080,note_on,0,0,1,,,,,,,,,0,,,67,0
7080,note_on,120,0,1,,,,,,,,,0,,,75,0
7080,note_on,0,0,1,,,,,,,,,0,,,68,40
7080,note_on,0,0,1,,,,,,,,,0,,,65,40
7080,note_on,0,0,1,,,,,,,,,0,,,74,50
7080,note_on,120,0,3,,,,,,,,,0,,,63,0
7080,note_on,0,0,1,,,,,,,,,0,,,70,0
7080,note_on,0,0,3,,,,,,,,,0,,,53,40
7170,note_on,90,0,3,,,,,,,,,0,,,53,0
7170,note_on,0,0,1,,,,,,,,,0,,,72,50
7170,note_on,0,0,1,,,,,,,,,0,,,68,40
7170,note_on,0,0,1,,,,,,,,,0,,,68,0
7170,note_on,0,0,1,,,,,,,,,0,,,65,0
7170,note_on,90,0,1,,,,,,,,,0,,,74,0
7170,note_on,0,0,3,,,,,,,,,0,,,53,40
7170,note_on,0,0,1,,,,,,,,,0,,,63,40
7200,note_on,0,0,1,,,,,,,,,0,,,62,40
7200,note_on,0,0,1,,,,,,,,,0,,,71,50
7200,note_on,0,0,1,,,,,,,,,0,,,67,40
7200,note_on,0,0,3,,,,,,,,,0,,,55,40
7200,note_on,0,0,1,,,,,,,,,0,,,63,0
7200,set_tempo,3000,1,0,,,,,,536241,,,,,,,
7200,note_on,30,0,1,,,,,,,,,0,,,72,0
7200,note_on,30,0,3,,,,,,,,,0,,,53,0
7200,note_on,0,0,1,,,,,,,,,0,,,68,0
7214,set_tempo,14,1,0,,,,,,537683,,,,,,,
7221,set_tempo,7,1,0,,,,,,539132,,,,,,,
7228,set_tempo,7,1,0,,,,,,540589,,,,,,,
7235,set_tempo,7,1,0,,,,,,542054,,,,,,,
7242,set_tempo,7,1,0,,,,,,543527,,,,,,,
7249,set_tempo,7,1,0,,,,,,545009,,,,,,,
7256,set_tempo,7,1,0,,,,,,546498,,,,,,,
7263,set_tempo,7,1,0,,,,,,547995,,,,,,,
7270,set_tempo,7,1,0,,,,,,549501,,,,,,,
7277,set_tempo,7,1,0,,,,,,551015,,,,,,,
7284,set_tempo,7,1,0,,,,,,552537,,,,,,,
7291,set_tempo,7,1,0,,,,,,554068,,,,,,,
7298,set_tempo,7,1,0,,,,,,555607,,,,,,,
7305,set_tempo,7,1,0,,,,,,557155,,,,,,,
7312,set_tempo,7,1,0,,,,,,558711,,,,,,,
7320,set_tempo,8,1,0,,,,,,560276,,,,,,,
7320,note_on,0,0,1,,,,,,,,,0,,,62,0
7320,note_on,0,0,1,,,,,,,,,0,,,67,0
7320,note_on,0,0,1,,,,,,,,,0,,,67,40
7320,note_on,120,0,1,,,,,,,,,0,,,71,0
7320,note_on,0,0,1,,,,,,,,,0,,,69,50
7320,note_on,0,0,1,,,,,,,,,0,,,60,40
7327,set_tempo,7,1,0,,,,,,561850,,,,,,,
7334,set_tempo,7,1,0,,,,,,563433,,,,,,,
7341,set_tempo,7,1,0,,,,,,565025,,,,,,,
7348,set_tempo,7,1,0,,,,,,566626,,,,,,,
7355,set_tempo,7,1,0,,,,,,568236,,,,,,,
7362,set_tempo,7,1,0,,,,,,569855,,,,,,,
7369,set_tempo,7,1,0,,,,,,571483,,,,,,,
7376,set_tempo,7,1,0,,,,,,573121,,,,,,,
7383,set_tempo,7,1,0,,,,,,574768,,,,,,,
7390,set_tempo,7,1,0,,,,,,576424,,,,,,,
7397,set_tempo,7,1,0,,,,,,578090,,,,,,,
7404,set_tempo,7,1,0,,,,,,579766,,,,,,,
7410,note_on,90,0,1,,,,,,,,,0,,,69,0
7410,note_on,0,0,1,,,,,,,,,0,,,62,40
7410,note_on,0,0,3,,,,,,,,,0,,,53,40
7410,note_on,0,0,1,,,,,,,,,0,,,67,40
7410,note_on,0,0,1,,,,,,,,,0,,,60,0
7410,note_on,0,0,1,,,,,,,,,0,,,67,0
7410,note_on,0,0,1,,,,,,,,,0,,,71,50
7410,note_on,210,0,3,,,,,,,,,0,,,55,0
7410,note_on,0,0,3,,,,,,,,,0,,,55,40
7411,set_tempo,7,1,0,,,,,,581452,,,,,,,
7418,set_tempo,7,1,0,,,,,,583147,,,,,,,
7425,set_tempo,7,1,0,,,,,,584852,,,,,,,
7432,set_tempo,7,1,0,,,,,,586568,,,,,,,
7440,note_on,30,0,1,,,,,,,,,0,,,71,0
7440,note_on,0,0,1,,,,,,,,,0,,,67,40
7440,note_on,0,0,1,,,,,,,,,0,,,67,0
7440,note_on,0,0,1,,,,,,,,,0,,,62,0
7440,note_on,0,0,3,,,,,,,,,0,,,51,40
7440,note_on,0,0,3,,,,,,,,,0,,,55,40
7440,note_on,0,0,3,,,,,,,,,0,,,53,0
7440,note_on,30,0,3,,,,,,,,,0,,,55,0
7440,set_tempo,8,1,0,,,,,,588293,,,,,,,
7440,note_on,0,0,1,,,,,,,,,0,,,63,40
7440,note_on,0,0,1,,,,,,,,,0,,,72,50
7447,set_tempo,7,1,0,,,,,,590029,,,,,,,
7454,set_tempo,7,1,0,,,,,,591774,,,,,,,
7461,set_tempo,7,1,0,,,,,,593531,,,,,,,
7468,set_tempo,7,1,0,,,,,,595297,,,,,,,
7475,set_tempo,7,1,0,,,,,,597074,,,,,,,
7482,set_tempo,7,1,0,,,,,,598862,,,,,,,
7489,set_tempo,7,1,0,,,,,,600661,,,,,,,
7496,set_tempo,7,1,0,,,,,,602470,,,,,,,
7503,set_tempo,7,1,0,,,,,,604290,,,,,,,
7510,set_tempo,7,1,0,,,,,,606122,,,,,,,
7517,set_tempo,7,1,0,,,,,,607964,,,,,,,
7524,set_tempo,7,1,0,,,,,,609818,,,,,,,
7531,set_tempo,7,1,0,,,,,,611683,,,,,,,
7538,set_tempo,7,1,0,,,,,,613560,,,,,,,
7545,set_tempo,7,1,0,,,,,,615448,,,,,,,
7552,set_tempo,7,1,0,,,,,,617347,,,,,,,
7560,note_on,0,0,3,,,,,,,,,0,,,55,40
7560,note_on,120,0,1,,,,,,,,,0,,,72,0
7560,note_on,0,0,1,,,,,,,,,0,,,63,0
7560,note_on,0,0,1,,,,,,,,,0,,,67,0
7560,note_on,0,0,1,,,,,,,,,0,,,67,40
7560,note_on,0,0,1,,,,,,,,,0,,,75,50
7560,note_on,0,0,3,,,,,,,,,0,,,43,40
7560,note_on,0,0,3,,,,,,,,,0,,,55,0
7560,note_on,120,0,3,,,,,,,,,0,,,51,0
7560,set_tempo,8,1,0,,,,,,619259,,,,,,,
7567,set_tempo,7,1,0,,,,,,621182,,,,,,,
7574,set_tempo,7,1,0,,,,,,623118,,,,,,,
7581,set_tempo,7,1,0,,,,,,625065,,,,,,,
7588,set_tempo,7,1,0,,,,,,627025,,,,,,,
7595,set_tempo,7,1,0,,,,,,628997,,,,,,,
7602,set_tempo,7,1,0,,,,,,630981,,,,,,,
7609,set_tempo,7,1,0,,,,,,632978,,,,,,,
7616,set_tempo,7,1,0,,,,,,634988,,,,,,,
7623,set_tempo,7,1,0,,,,,,637010,,,,,,,
7630,set_tempo,7,1,0,,,,,,639046,,,,,,,
7637,set_tempo,7,1,0,,,,,,641094,,,,,,,
7644,set_tempo,7,1,0,,,,,,643156,,,,,,,
7650,note_on,0,0,1,,,,,,,,,0,,,74,50
7650,note_on,0,0,3,,,,,,,,,0,,,55,40
7650,note_on,0,0,3,,,,,,,,,0,,,43,40
7650,note_on,0,0,3,,,,,,,,,0,,,43,0
7650,note_on,90,0,1,,,,,,,,,0,,,75,0
7650,note_on,90,0,3,,,,,,,,,0,,,55,0
7650,note_on,0,0,1,,,,,,,,,0,,,67,40
7650,note_on,0,0,1,,,,,,,,,0,,,67,0
7650,note_on,0,0,1,,,,,,,,,0,,,65,40
7651,set_tempo,7,1,0,,,,,,645231,,,,,,,
7658,set_tempo,7,1,0,,,,,,647319,,,,,,,
7665,set_tempo,7,1,0,,,,,,649421,,,,,,,
7672,set_tempo,7,1,0,,,,,,651537,,,,,,,
7680,note_on,30,0,1,,,,,,,,,0,,,74,0
7680,note_on,0,0,1,,,,,,,,,0,,,65,0
7680,note_on,0,0,1,,,,,,,,,0,,,67,0
7680,note_on,0,0,1,,,,,,,,,0,,,67,40
7680,control_change,7680,0,4,,,,,,,,,0,64,127,,
7680,note_on,30,0,3,,,,,,,,,0,,,55,0
7680,note_on,0,0,1,,,,,,,,,0,,,72,50
7680,note_on,0,0,3,,,,,,,,,0,,,48,40
7680,note_on,0,0,3,,,,,,,,,0,,,55,40
7680,note_on,0,0,3,,,,,,,,,0,,,43,0
7680,set_tempo,8,1,0,,,,,,652174,,,,,,,
7680,note_on,0,0,1,,,,,,,,,0,,,63,40
8040,note_on,360,0,1,,,,,,,,,0,,,72,0
8040,note_on,0,0,1,,,,,,,,,0,,,63,0
8040,note_on,0,0,1,,,,,,,,,0,,,67,0
8040,note_on,0,0,1,,,,,,,,,0,,,71,70
8040,note_on,360,0,3,,,,,,,,,0,,,48,0
8040,note_on,0,0,3,,,,,,,,,0,,,55,0
8040,set_tempo,360,1,0,,,,,,535714,,,,,,,
8040,control_change,360,0,4,,,,,,,,,0,64,0,,
8130,note_on,0,0,1,,,,,,,,,0,,,72,70
8130,note_on,90,0,1,,,,,,,,,0,,,71,0
8160,note_on,30,0,1,,,,,,,,,0,,,72,0
8160,note_on,0,0,1,,,,,,,,,0,,,74,70
8280,note_on,240,0,3,,,,,,,,,0,,,65,60
8280,note_on,0,0,1,,,,,,,,,0,,,74,70
8280,note_on,120,0,1,,,,,,,,,0,,,74,0
8280,note_on,0,0,1,,,,,,,,,0,,,71,60
8280,note_on,0,0,1,,,,,,,,,0,,,68,60
8400,note_on,0,0,1,,,,,,,,,0,,,72,60
8400,note_on,0,0,3,,,,,,,,,0,,,66,60
8400,note_on,120,0,3,,,,,,,,,0,,,65,0
8400,note_on,0,0,1,,,,,,,,,0,,,68,0
8400,note_on,120,0,1,,,,,,,,,0,,,74,0
8400,note_on,0,0,1,,,,,,,,,0,,,71,0
8400,note_on,0,0,1,,,,,,,,,0,,,74,70
8400,note_on,0,0,1,,,,,,,,,0,,,69,60
8520,note_on,0,0,1,,,,,,,,,0,,,72,0
8520,note_on,120,0,3,,,,,,,,,0,,,66,0
8520,note_on,0,0,3,,,,,,,,,0,,,66,60
8520,note_on,0,0,3,,,,,,,,,0,,,62,70
8520,note_on,0,0,1,,,,,,,,,0,,,69,60
8520,note_on,120,0,1,,,,,,,,,0,,,74,0
8520,note_on,0,0,1,,,,,,,,,0,,,69,0
8520,note_on,0,0,1,,,,,,,,,0,,,72,70
8610,note_on,90,0,1,,,,,,,,,0,,,72,0
8610,note_on,0,0,1,,,,,,,,,0,,,74,70
8640,note_on,0,0,3,,,,,,,,,0,,,60,70
8640,note_on,0,0,3,,,,,,,,,0,,,66,60
8640,note_on,0,0,1,,,,,,,,,0,,,69,60
8640,note_on,0,0,3,,,,,,,,,0,,,66,0
8640,note_on,120,0,3,,,,,,,,,0,,,62,0
8640,note_on,30,0,1,,,,,,,,,0,,,74,0
8640,note_on,0,0,1,,,,,,,,,0,,,69,0
8640,note_on,0,0,1,,,,,,,,,0,,,72,70
8655,note_on,0,0,1,,,,,,,,,0,,,74,70
8655,note_on,15,0,1,,,,,,,,,0,,,72,0
8670,note_on,0,0,1,,,,,,,,,0,,,75,70
8670,note_on,15,0,1,,,,,,,,,0,,,74,0
8820,note_on,0,0,1,,,,,,,,,0,,,74,70
8820,note_on,150,0,1,,,,,,,,,0,,,75,0
8820,note_on,0,0,3,,,,,,,,,0,,,62,70
8820,note_on,180,0,3,,,,,,,,,0,,,60,0
8880,note_on,0,0,1,,,,,,,,,0,,,72,70
8880,note_on,60,0,1,,,,,,,,,0,,,74,0
8880,note_on,0,0,3,,,,,,,,,0,,,63,70
8880,note_on,60,0,3,,,,,,,,,0,,,62,0
9000,note_on,0,0,3,,,,,,,,,0,,,62,60
9000,note_on,0,0,3,,,,,,,,,0,,,66,0
9000,note_on,0,0,3,,,,,,,,,0,,,54,70
9000,note_on,0,0,1,,,,,,,,,0,,,74,70
9000,note_on,0,0,1,,,,,,,,,0,,,69,60
9000,note_on,0,0,1,,,,,,,,,0,,,69,0
9000,note_on,120,0,1,,,,,,,,,0,,,72,0
9000,note_on,120,0,3,,,,,,,,,0,,,63,0
9090,note_on,0,0,1,,,,,,,,,0,,,72,70
9090,note_on,90,0,1,,,,,,,,,0,,,74,0
9120,note_on,120,0,3,,,,,,,,,0,,,54,0
9120,note_on,0,0,3,,,,,,,,,0,,,62,60
9120,note_on,30,0,1,,,,,,,,,0,,,72,0
9120,note_on,0,0,1,,,,,,,,,0,,,69,0
9120,note_on,0,0,1,,,,,,,,,0,,,67,60
9120,note_on,0,0,1,,,,,,,,,0,,,71,70
9120,note_on,0,0,3,,,,,,,,,0,,,62,0
9120,note_on,0,0,3,,,,,,,,,0,,,55,70
9240,note_on,120,0,3,,,,,,,,,0,,,55,0
9240,note_on,120,0,1,,,,,,,,,0,,,71,0
9240,note_on,0,0,1,,,,,,,,,0,,,67,0
9240,note_on,0,0,1,,,,,,,,,0,,,67,60
9240,note_on,0,0,1,,,,,,,,,0,,,69,70
9240,note_on,0,0,3,,,,,,,,,0,,,53,70
9240,note_on,0,0,3,,,,,,,,,0,,,55,60
9240,note_on,0,0,3,,,,,,,,,0,,,62,60
9240,note_on,0,0,3,,,,,,,,,0,,,62,0
9330,note_on,0,0,3,,,,,,,,,0,,,55,0
9330,note_on,90,0,3,,,,,,,,,0,,,53,0
9330,note_on,0,0,3,,,,,,,,,0,,,62,0
9330,note_on,0,0,3,,,,,,,,,0,,,62,60
9330,note_on,0,0,3,,,,,,,,,0,,,53,70
9330,note_on,0,0,3,,,,,,,,,0,,,55,60
9330,note_on,0,0,1,,,,,,,,,0,,,71,70
9330,note_on,0,0,1,,,,,,,,,0,,,67,60
9330,note_on,0,0,1,,,,,,,,,0,,,67,0
9330,note_on,90,0,1,,,,,,,,,0,,,69,0
9360,note_on,0,0,3,,,,,,,,,0,,,55,0
9360,note_on,0,0,3,,,,,,,,,0,,,62,0
9360,note_on,0,0,3,,,,,,,,,0,,,55,60
9360,note_on,0,0,3,,,,,,,,,0,,,51,70
9360,note_on,30,0,3,,,,,,,,,0,,,53,0
9360,note_on,0,0,3,,,,,,,,,0,,,60,60
9360,note_on,30,0,1,,,,,,,,,0,,,71,0
9360,note_on,0,0,1,,,,,,,,,0,,,72,70
9360,note_on,0,0,1,,,,,,,,,0,,,67,60
9360,note_on,0,0,1,,,,,,,,,0,,,67,0
9480,note_on,0,0,1,,,,,,,,,0,,,74,70
9480,note_on,0,0,3,,,,,,,,,0,,,59,60
9480,note_on,0,0,3,,,,,,,,,0,,,50,70
9480,note_on,0,0,3,,,,,,,,,0,,,55,60
9480,note_on,0,0,3,,,,,,,,,0,,,55,0
9480,note_on,120,0,3,,,,,,,,,0,,,51,0
9480,note_on,0,0,3,,,,,,,,,0,,,60,0
9480,note_on,120,0,1,,,,,,,,,0,,,72,0
9480,note_on,0,0,1,,,,,,,,,0,,,67,60
9480,note_on,0,0,1,,,,,,,,,0,,,67,0
9570,note_on,90,0,3,,,,,,,,,0,,,50,0
9570,note_on,0,0,3,,,,,,,,,0,,,55,0
9570,note_on,0,0,3,,,,,,,,,0,,,59,0
9570,note_on,0,0,3,,,,,,,,,0,,,60,60
9570,note_on,0,0,3,,,,,,,,,0,,,55,60
9570,note_on,90,0,1,,,,,,,,,0,,,74,0
9570,note_on,0,0,1,,,,,,,,,0,,,75,70
9570,note_on,0,0,1,,,,,,,,,0,,,67,60
9570,note_on,0,0,1,,,,,,,,,0,,,67,0
9570,note_on,0,0,3,,,,,,,,,0,,,48,70
9600,note_on,0,0,1,,,,,,,,,0,,,74,70
9600,note_on,0,0,1,,,,,,,,,0,,,67,60
9600,note_on,0,0,1,,,,,,,,,0,,,67,0
9600,note_on,30,0,1,,,,,,,,,0,,,75,0
9600,note_on,0,0,3,,,,,,,,,0,,,55,70
9600,note_on,0,0,3,,,,,,,,,0,,,59,60
9600,note_on,0,0,3,,,,,,,,,0,,,60,0
9600,note_on,0,0,3,,,,,,,,,0,,,55,0
9600,note_on,30,0,3,,,,,,,,,0,,,48,0
9960,note_on,0,0,1,,,,,,,,,0,,,67,0
9960,note_on,360,0,3,,,,,,,,,0,,,55,0
9960,note_on,0,0,3,,,,,,,,,0,,,55,100
9960,note_on,360,0,1,,,,,,,,,0,,,74,0
9960,note_on,0,0,3,,,,,,,,,0,,,59,0
9960,note_on,0,0,3,,,,,,,,,0,,,43,100
9960,note_on,0,0,1,,,,,,,,,0,,,62,100
9960,note_on,0,0,1,,,,,,,,,0,,,71,110
9960,note_on,0,0,1,,,,,,,,,0,,,67,100
10050,note_on,90,0,3,,,,,,,,,0,,,55,0
10050,note_on,0,0,1,,,,,,,,,0,,,62,0
10050,note_on,0,0,1,,,,,,,,,0,,,67,0
10050,note_on,0,0,1,,,,,,,,,0,,,67,100
10050,note_on,0,0,1,,,,,,,,,0,,,63,100
10050,note_on,0,0,1,,,,,,,,,0,,,72,110
10050,note_on,0,0,3,,,,,,,,,0,,,43,0
10050,note_on,90,0,1,,,,,,,,,0,,,71,0
10050,note_on,0,0,3,,,,,,,,,0,,,43,100
10050,note_on,0,0,3,,,,,,,,,0,,,55,100
10080,note_on,0,0,1,,,,,,,,,0,,,74,110
10080,note_on,0,0,1,,,,,,,,,0,,,65,100
10080,note_on,0,0,1,,,,,,,,,0,,,67,100
10080,note_on,0,0,1,,,,,,,,,0,,,67,0
10080,note_on,0,0,1,,,,,,,,,0,,,63,0
10080,note_on,30,0,1,,,,,,,,,0,,,72,0
10080,note_on,30,0,3,,,,,,,,,0,,,55,0
10080,note_on,0,0,3,,,,,,,,,0,,,43,0
10080,note_on,0,0,3,,,,,,,,,0,,,43,100
10080,note_on,0,0,3,,,,,,,,,0,,,55,100
10200,note_on,0,0,1,,,,,,,,,0,,,67,0
10200,note_on,120,0,3,,,,,,,,,0,,,55,0
10200,note_on,0,0,3,,,,,,,,,0,,,43,0
10200,note_on,0,0,3,,,,,,,,,0,,,43,100
10200,note_on,0,0,3,,,,,,,,,0,,,55,100
10200,note_on,0,0,1,,,,,,,,,0,,,65,100
10200,note_on,0,0,1,,,,,,,,,0,,,67,100
10200,note_on,0,0,1,,,,,,,,,0,,,74,110
10200,note_on,120,0,1,,,,,,,,,0,,,74,0
10200,note_on,0,0,1,,,,,,,,,0,,,65,0
10320,note_on,120,0,1,,,,,,,,,0,,,74,0
10320,note_on,0,0,1,,,,,,,,,0,,,67,0
10320,note_on,0,0,1,,,,,,,,,0,,,65,0
10320,note_on,0,0,1,,,,,,,,,0,,,65,100
10320,note_on,0,0,1,,,,,,,,,0,,,67,100
10320,note_on,0,0,1,,,,,,,,,0,,,74,110
10320,note_on,0,0,3,,,,,,,,,0,,,43,100
10320,note_on,120,0,3,,,,,,,,,0,,,55,0
10320,note_on,0,0,3,,,,,,,,,0,,,43,0
10320,note_on,0,0,3,,,,,,,,,0,,,55,100
10440,note_on,0,0,1,,,,,,,,,0,,,72,110
10440,note_on,0,0,1,,,,,,,,,0,,,67,100
10440,note_on,0,0,1,,,,,,,,,0,,,63,100
10440,note_on,0,0,1,,,,,,,,,0,,,67,0
10440,note_on,120,0,1,,,,,,,,,0,,,74,0
10440,note_on,0,0,1,,,,,,,,,0,,,65,0
10440,note_on,0,0,3,,,,,,,,,0,,,55,100
10440,note_on,0,0,3,,,,,,,,,0,,,43,100
10440,note_on,0,0,3,,,,,,,,,0,,,43,0
10440,note_on,120,0,3,,,,,,,,,0,,,55,0
10530,note_on,90,0,3,,,,,,,,,0,,,55,0
10530,note_on,0,0,3,,,,,,,,,0,,,43,100
10530,note_on,90,0,1,,,,,,,,,0,,,72,0
10530,note_on,0,0,1,,,,,,,,,0,,,67,0
10530,note_on,0,0,1,,,,,,,,,0,,,63,0
10530,note_on,0,0,1,,,,,,,,,0,,,65,100
10530,note_on,0,0,1,,,,,,,,,0,,,67,100
10530,note_on,0,0,1,,,,,,,,,0,,,74,110
10530,note_on,0,0,3,,,,,,,,,0,,,43,0
10530,note_on,0,0,3,,,,,,,,,0,,,55,100
10560,note_on,0,0,1,,,,,,,,,0,,,75,110
10560,note_on,0,0,3,,,,,,,,,0,,,43,100
10560,note_on,0,0,3,,,,,,,,,0,,,55,100
10560,note_on,30,0,1,,,,,,,,,0,,,74,0
10560,note_on,0,0,1,,,,,,,,,0,,,67,0
10560,note_on,0,0,1,,,,,,,,,0,,,65,0
10560,note_on,0,0,1,,,,,,,,,0,,,67,100
10560,note_on,0,0,3,,,,,,,,,0,,,43,0
10560,note_on,30,0,3,,,,,,,,,0,,,55,0
10680,note_on,120,0,3,,,,,,,,,0,,,55,0
10680,note_on,0,0,3,,,,,,,,,0,,,57,100
10680,note_on,0,0,3,,,,,,,,,0,,,45,100
10680,note_on,0,0,3,,,,,,,,,0,,,43,0
10770,note_on,90,0,3,,,,,,,,,0,,,57,0
10770,note_on,210,0,1,,,,,,,,,0,,,75,0
10770,note_on,0,0,3,,,,,,,,,0,,,59,100
10770,note_on,0,0,1,,,,,,,,,0,,,67,0
10770,note_on,0,0,1,,,,,,,,,0,,,65,100
10770,note_on,0,0,1,,,,,,,,,0,,,67,100
10770,note_on,0,0,1,,,,,,,,,0,,,74,110
10770,note_on,0,0,3,,,,,,,,,0,,,47,100
10770,note_on,0,0,3,,,,,,,,,0,,,45,0
10800,note_on,0,0,3,,,,,,,,,0,,,48,100
10800,note_on,0,0,3,,,,,,,,,0,,,60,100
10800,note_on,0,0,3,,,,,,,,,0,,,47,0
10800,note_on,30,0,3,,,,,,,,,0,,,59,0
10800,note_on,0,0,1,,,,,,,,,0,,,63,100
10800,note_on,0,0,1,,,,,,,,,0,,,72,110
10800,note_on,0,0,1,,,,,,,,,0,,,65,0
10800,note_on,0,0,1,,,,,,,,,0,,,67,100
10800,note_on,30,0,1,,,,,,,,,0,,,74,0
10800,note_on,0,0,1,,,,,,,,,0,,,67,0
10920,note_on,0,0,1,,,,,,,,,0,,,68,100
10920,note_on,0,0,1,,,,,,,,,0,,,65,100
10920,note_on,0,0,1,,,,,,,,,0,,,74,110
10920,note_on,0,0,3,,,,,,,,,0,,,41,100
10920,note_on,0,0,1,,,,,,,,,0,,,63,0
10920,note_on,120,0,3,,,,,,,,,0,,,48,0
10920,note_on,0,0,3,,,,,,,,,0,,,60,0
10920,note_on,120,0,1,,,,,,,,,0,,,72,0
10920,note_on,0,0,1,,,,,,,,,0,,,67,0
10920,note_on,0,0,3,,,,,,,,,0,,,53,100
11010,note_on,0,0,1,,,,,,,,,0,,,72,110
11010,note_on,0,0,1,,,,,,,,,0,,,68,100
11010,note_on,0,0,1,,,,,,,,,0,,,63,100
11010,note_on,0,0,3,,,,,,,,,0,,,41,0
11010,note_on,0,0,3,,,,,,,,,0,,,41,100
11010,note_on,0,0,3,,,,,,,,,0,,,53,100
11010,note_on,0,0,1,,,,,,,,,0,,,68,0
11010,note_on,0,0,1,,,,,,,,,0,,,65,0
11010,note_on,90,0,1,,,,,,,,,0,,,74,0
11010,note_on,90,0,3,,,,,,,,,0,,,53,0
11040,note_on,30,0,1,,,,,,,,,0,,,72,0
11040,note_on,0,0,1,,,,,,,,,0,,,68,0
11040,note_on,0,0,1,,,,,,,,,0,,,67,100
11040,note_on,0,0,1,,,,,,,,,0,,,62,100
11040,note_on,0,0,1,,,,,,,,,0,,,63,0
11040,note_on,0,0,3,,,,,,,,,0,,,43,100
11040,note_on,0,0,3,,,,,,,,,0,,,41,0
11040,note_on,0,0,1,,,,,,,,,0,,,71,110
11040,note_on,0,0,3,,,,,,,,,0,,,55,100
11040,set_tempo,3000,1,0,,,,,,536241,,,,,,,
11040,note_on,30,0,3,,,,,,,,,0,,,53,0
11054,set_tempo,14,1,0,,,,,,537683,,,,,,,
11061,set_tempo,7,1,0,,,,,,539132,,,,,,,
11068,set_tempo,7,1,0,,,,,,540589,,,,,,,
11075,set_tempo,7,1,0,,,,,,542054,,,,,,,
11082,set_tempo,7,1,0,,,,,,543527,,,,,,,
11089,set_tempo,7,1,0,,,,,,545009,,,,,,,
11096,set_tempo,7,1,0,,,,,,546498,,,,,,,
11103,set_tempo,7,1,0,,,,,,547995,,,,,,,
11110,set_tempo,7,1,0,,,,,,549501,,,,,,,
11117,set_tempo,7,1,0,,,,,,551015,,,,,,,
11124,set_tempo,7,1,0,,,,,,552537,,,,,,,
11131,set_tempo,7,1,0,,,,,,554068,,,,,,,
11138,set_tempo,7,1,0,,,,,,555607,,,,,,,
11145,set_tempo,7,1,0,,,,,,557155,,,,,,,
11152,set_tempo,7,1,0,,,,,,558711,,,,,,,
11160,note_on,0,0,3,,,,,,,,,0,,,55,100
11160,note_on,0,0,1,,,,,,,,,0,,,69,110
11160,note_on,0,0,3,,,,,,,,,0,,,43,0
11160,note_on,120,0,3,,,,,,,,,0,,,55,0
11160,note_on,120,0,1,,,,,,,,,0,,,71,0
11160,note_on,0,0,1,,,,,,,,,0,,,62,0
11160,note_on,0,0,1,,,,,,,,,0,,,67,0
11160,note_on,0,0,1,,,,,,,,,0,,,60,100
11160,set_tempo,8,1,0,,,,,,560276,,,,,,,
11160,note_on,0,0,1,,,,,,,,,0,,,67,100
11167,set_tempo,7,1,0,,,,,,561850,,,,,,,
11174,set_tempo,7,1,0,,,,,,563433,,,,,,,
11181,set_tempo,7,1,0,,,,,,565025,,,,,,,
11188,set_tempo,7,1,0,,,,,,566626,,,,,,,
11195,set_tempo,7,1,0,,,,,,568236,,,,,,,
11202,set_tempo,7,1,0,,,,,,569855,,,,,,,
11209,set_tempo,7,1,0,,,,,,571483,,,,,,,
11216,set_tempo,7,1,0,,,,,,573121,,,,,,,
11223,set_tempo,7,1,0,,,,,,574768,,,,,,,
11230,set_tempo,7,1,0,,,,,,576424,,,,,,,
11237,set_tempo,7,1,0,,,,,,578090,,,,,,,
11244,set_tempo,7,1,0,,,,,,579766,,,,,,,
11250,note_on,0,0,1,,,,,,,,,0,,,62,100
11250,note_on,0,0,3,,,,,,,,,0,,,53,100
11250,note_on,90,0,1,,,,,,,,,0,,,69,0
11250,note_on,0,0,1,,,,,,,,,0,,,67,0
11250,note_on,0,0,1,,,,,,,,,0,,,60,0
11250,note_on,0,0,1,,,,,,,,,0,,,67,100
11250,note_on,0,0,3,,,,,,,,,0,,,55,100
11250,note_on,90,0,3,,,,,,,,,0,,,55,0
11250,note_on,0,0,1,,,,,,,,,0,,,71,110
11251,set_tempo,7,1,0,,,,,,581452,,,,,,,
11258,set_tempo,7,1,0,,,,,,583147,,,,,,,
11265,set_tempo,7,1,0,,,,,,584852,,,,,,,
11272,set_tempo,7,1,0,,,,,,586568,,,,,,,
11280,note_on,30,0,3,,,,,,,,,0,,,53,0
11280,note_on,0,0,3,,,,,,,,,0,,,55,0
11280,note_on,0,0,3,,,,,,,,,0,,,55,100
11280,note_on,0,0,3,,,,,,,,,0,,,51,100
11280,set_tempo,8,1,0,,,,,,588293,,,,,,,
11280,note_on,30,0,1,,,,,,,,,0,,,71,0
11280,note_on,0,0,1,,,,,,,,,0,,,72,110
11280,note_on,0,0,1,,,,,,,,,0,,,63,100
11280,note_on,0,0,1,,,,,,,,,0,,,67,100
11280,note_on,0,0,1,,,,,,,,,0,,,62,0
11280,note_on,0,0,1,,,,,,,,,0,,,67,0
11287,set_tempo,7,1,0,,,,,,590029,,,,,,,
11294,set_tempo,7,1,0,,,,,,591774,,,,,,,
11301,set_tempo,7,1,0,,,,,,593531,,,,,,,
11308,set_tempo,7,1,0,,,,,,595297,,,,,,,
11315,set_tempo,7,1,0,,,,,,597074,,,,,,,
11322,set_tempo,7,1,0,,,,,,598862,,,,,,,
11329,set_tempo,7,1,0,,,,,,600661,,,,,,,
11336,set_tempo,7,1,0,,,,,,602470,,,,,,,
11343,set_tempo,7,1,0,,,,,,604290,,,,,,,
11350,set_tempo,7,1,0,,,,,,606122,,,,,,,
11357,set_tempo,7,1,0,,,,,,607964,,,,,,,
11364,set_tempo,7,1,0,,,,,,609818,,,,,,,
11371,set_tempo,7,1,0,,,,,,611683,,,,,,,
11378,set_tempo,7,1,0,,,,,,613560,,,,,,,
11385,set_tempo,7,1,0,,,,,,615448,,,,,,,
11392,set_tempo,7,1,0,,,,,,617347,,,,,,,
11400,note_on,0,0,3,,,,,,,,,0,,,55,0
11400,note_on,0,0,1,,,,,,,,,0,,,75,110
11400,note_on,0,0,1,,,,,,,,,0,,,67,100
11400,note_on,0,0,1,,,,,,,,,0,,,67,0
11400,note_on,0,0,1,,,,,,,,,0,,,63,0
11400,note_on,120,0,3,,,,,,,,,0,,,51,0
11400,set_tempo,8,1,0,,,,,,619259,,,,,,,
11400,note_on,120,0,1,,,,,,,,,0,,,72,0
11400,note_on,0,0,3,,,,,,,,,0,,,43,100
11400,note_on,0,0,3,,,,,,,,,0,,,31,100
11407,set_tempo,7,1,0,,,,,,621182,,,,,,,
11414,set_tempo,7,1,0,,,,,,623118,,,,,,,
11421,set_tempo,7,1,0,,,,,,625065,,,,,,,
11428,set_tempo,7,1,0,,,,,,627025,,,,,,,
11435,set_tempo,7,1,0,,,,,,628997,,,,,,,
11442,set_tempo,7,1,0,,,,,,630981,,,,,,,
11449,set_tempo,7,1,0,,,,,,632978,,,,,,,
11456,set_tempo,7,1,0,,,,,,634988,,,,,,,
11463,set_tempo,7,1,0,,,,,,637010,,,,,,,
11470,set_tempo,7,1,0,,,,,,639046,,,,,,,
11477,set_tempo,7,1,0,,,,,,641094,,,,,,,
11484,set_tempo,7,1,0,,,,,,643156,,,,,,,
11490,note_on,0,0,3,,,,,,,,,0,,,43,100
11490,note_on,0,0,1,,,,,,,,,0,,,74,110
11490,note_on,0,0,3,,,,,,,,,0,,,31,100
11490,note_on,0,0,3,,,,,,,,,0,,,31,0
11490,note_on,0,0,1,,,,,,,,,0,,,67,0
11490,note_on,0,0,1,,,,,,,,,0,,,67,100
11490,note_on,90,0,3,,,,,,,,,0,,,43,0
11490,note_on,90,0,1,,,,,,,,,0,,,75,0
11490,note_on,0,0,1,,,,,,,,,0,,,65,100
11491,set_tempo,7,1,0,,,,,,645231,,,,,,,
11498,set_tempo,7,1,0,,,,,,647319,,,,,,,
11505,set_tempo,7,1,0,,,,,,649421,,,,,,,
11512,set_tempo,7,1,0,,,,,,651537,,,,,,,
11520,control_change,3480,0,4,,,,,,,,,0,64,127,,
11520,note_on,0,0,1,,,,,,,,,0,,,63,100
11520,note_on,30,0,1,,,,,,,,,0,,,74,0
11520,note_on,0,0,1,,,,,,,,,0,,,67,0
11520,note_on,0,0,3,,,,,,,,,0,,,36,100
11520,note_on,0,0,3,,,,,,,,,0,,,43,100
11520,note_on,0,0,3,,,,,,,,,0,,,31,0
11520,note_on,30,0,3,,,,,,,,,0,,,43,0
11520,note_on,0,0,1,,,,,,,,,0,,,65,0
11520,note_on,0,0,1,,,,,,,,,0,,,67,100
11520,note_on,0,0,1,,,,,,,,,0,,,72,110
11520,set_tempo,8,1,0,,,,,,652174,,,,,,,
11880,set_tempo,360,1,0,,,,,,535714,,,,,,,
11880,note_on,360,0,3,,,,,,,,,0,,,36,0
11880,note_on,0,0,1,,,,,,,,,0,,,74,70
11880,note_on,0,0,1,,,,,,,,,0,,,67,0
11880,note_on,0,0,1,,,,,,,,,0,,,63,0
11880,note_on,360,0,1,,,,,,,,,0,,,72,0
11880,note_on,0,0,3,,,,,,,,,0,,,43,0
11880,control_change,360,0,4,,,,,,,,,0,64,0,,
11970,note_on,90,0,1,,,,,,,,,0,,,74,0
11970,note_on,0,0,1,,,,,,,,,0,,,75,73
12000,note_on,0,0,1,,,,,,,,,0,,,77,74
12000,note_on,30,0,1,,,,,,,,,0,,,75,0
12120,note_on,0,0,1,,,,,,,,,0,,,77,78
12120,note_on,0,0,1,,,,,,,,,0,,,74,68
12120,note_on,0,0,1,,,,,,,,,0,,,71,68
12120,note_on,0,0,1,,,,,,,,,0,,,68,68
12120,note_on,120,0,1,,,,,,,,,0,,,77,0
12120,note_on,240,0,3,,,,,,,,,0,,,65,68
12240,note_on,0,0,1,,,,,,,,,0,,,77,82
12240,note_on,120,0,3,,,,,,,,,0,,,65,0
12240,note_on,0,0,3,,,,,,,,,0,,,62,72
12240,note_on,0,0,3,,,,,,,,,0,,,65,72
12240,note_on,0,0,1,,,,,,,,,0,,,68,72
12240,note_on,0,0,1,,,,,,,,,0,,,70,72
12240,note_on,0,0,1,,,,,,,,,0,,,74,0
12240,note_on,0,0,1,,,,,,,,,0,,,71,0
12240,note_on,0,0,1,,,,,,,,,0,,,68,0
12240,note_on,120,0,1,,,,,,,,,0,,,77,0
12360,note_on,0,0,1,,,,,,,,,0,,,70,0
12360,note_on,0,0,1,,,,,,,,,0,,,68,0
12360,note_on,120,0,3,,,,,,,,,0,,,65,0
12360,note_on,0,0,3,,,,,,,,,0,,,62,0
12360,note_on,0,0,3,,,,,,,,,0,,,65,77
12360,note_on,0,0,3,,,,,,,,,0,,,58,77
12360,note_on,0,0,1,,,,,,,,,0,,,70,77
12360,note_on,0,0,1,,,,,,,,,0,,,68,77
12360,note_on,120,0,1,,,,,,,,,0,,,77,0
12360,note_on,0,0,1,,,,,,,,,0,,,75,87
12375,note_on,0,0,1,,,,,,,,,0,,,77,87
12375,note_on,15,0,1,,,,,,,,,0,,,75,0
12390,note_on,0,0,1,,,,,,,,,0,,,75,88
12390,note_on,15,0,1,,,,,,,,,0,,,77,0
12450,note_on,0,0,1,,,,,,,,,0,,,74,90
12450,note_on,60,0,1,,,,,,,,,0,,,75,0
12480,note_on,0,0,1,,,,,,,,,0,,,70,0
12480,note_on,0,0,1,,,,,,,,,0,,,68,0
12480,note_on,0,0,1,,,,,,,,,0,,,79,90
12480,note_on,0,0,1,,,,,,,,,0,,,70,80
12480,note_on,0,0,3,,,,,,,,,0,,,63,80
12480,note_on,0,0,3,,,,,,,,,0,,,65,0
12480,note_on,120,0,3,,,,,,,,,0,,,58,0
12480,note_on,30,0,1,,,,,,,,,0,,,74,0
12480,control_change,600,0,4,,,,,,,,,0,64,127,,
12480,note_on,0,0,1,,,,,,,,,0,,,67,80
12585,control_change,105,0,4,,,,,,,,,0,64,0,,
12600,note_on,0,0,3,,,,,,,,,0,,,59,78
12600,control_change,15,0,4,,,,,,,,,0,64,127,,
12600,note_on,120,0,3,,,,,,,,,0,,,63,0
12600,note_on,0,0,3,,,,,,,,,0,,,65,78
12600,note_on,0,0,3,,,,,,,,,0,,,62,78
12600,note_on,0,0,1,,,,,,,,,0,,,68,78
12600,note_on,0,0,1,,,,,,,,,0,,,74,78
12600,note_on,0,0,1,,,,,,,,,0,,,70,0
12600,note_on,120,0,1,,,,,,,,,0,,,67,0
12690,note_on,90,0,1,,,,,,,,,0,,,79,0
12690,note_on,0,0,1,,,,,,,,,0,,,77,86
12720,note_on,0,0,1,,,,,,,,,0,,,75,85
12720,note_on,0,0,3,,,,,,,,,0,,,63,75
12720,note_on,0,0,1,,,,,,,,,0,,,74,0
12720,note_on,0,0,1,,,,,,,,,0,,,68,0
12720,note_on,30,0,1,,,,,,,,,0,,,77,0
12720,note_on,0,0,1,,,,,,,,,0,,,67,75
12720,note_on,0,0,3,,,,,,,,,0,,,60,75
12720,note_on,0,0,3,,,,,,,,,0,,,65,0
12720,note_on,0,0,3,,,,,,,,,0,,,62,0
12720,note_on,120,0,3,,,,,,,,,0,,,59,0
12720,control_change,120,0,4,,,,,,,,,0,64,0,,
12840,note_on,120,0,3,,,,,,,,,0,,,60,0
12840,note_on,0,0,1,,,,,,,,,0,,,74,83
12840,note_on,0,0,1,,,,,,,,,0,,,68,73
12840,note_on,0,0,1,,,,,,,,,0,,,65,73
12840,note_on,120,0,1,,,,,,,,,0,,,75,0
12840,note_on,0,0,1,,,,,,,,,0,,,67,0
12840,control_change,120,0,4,,,,,,,,,0,64,127,,
12840,note_on,0,0,3,,,,,,,,,0,,,53,73
12840,note_on,0,0,3,,,,,,,,,0,,,63,0
12930,note_on,90,0,1,,,,,,,,,0,,,74,0
12930,note_on,0,0,1,,,,,,,,,0,,,65,0
12930,note_on,0,0,1,,,,,,,,,0,,,63,71
12930,note_on,0,0,1,,,,,,,,,0,,,72,81
12960,note_on,0,0,1,,,,,,,,,0,,,62,70
12960,note_on,120,0,3,,,,,,,,,0,,,53,0
12960,note_on,30,0,1,,,,,,,,,0,,,72,0
12960,note_on,0,0,1,,,,,,,,,0,,,68,0
12960,note_on,0,0,1,,,,,,,,,0,,,67,70
12960,note_on,0,0,3,,,,,,,,,0,,,55,70
12960,note_on,0,0,1,,,,,,,,,0,,,71,80
12960,note_on,0,0,1,,,,,,,,,0,,,63,0
12960,control_change,120,0,4,,,,,,,,,0,64,0,,
13080,note_on,0,0,1,,,,,,,,,0,,,69,77
13080,note_on,120,0,3,,,,,,,,,0,,,55,0
13080,note_on,0,0,3,,,,,,,,,0,,,55,67
13080,note_on,120,0,1,,,,,,,,,0,,,71,0
13080,note_on,0,0,1,,,,,,,,,0,,,62,0
13080,note_on,0,0,1,,,,,,,,,0,,,67,0
13080,note_on,0,0,1,,,,,,,,,0,,,67,67
13080,note_on,0,0,1,,,,,,,,,0,,,60,67
13170,note_on,0,0,3,,,,,,,,,0,,,53,65
13170,note_on,90,0,3,,,,,,,,,0,,,55,0
13170,note_on,0,0,1,,,,,,,,,0,,,60,0
13170,note_on,0,0,1,,,,,,,,,0,,,67,0
13170,note_on,0,0,1,,,,,,,,,0,,,67,65
13170,note_on,0,0,1,,,,,,,,,0,,,62,65
13170,note_on,0,0,1,,,,,,,,,0,,,71,75
13170,note_on,0,0,3,,,,,,,,,0,,,55,65
13170,note_on,90,0,1,,,,,,,,,0,,,69,0
13200,note_on,0,0,3,,,,,,,,,0,,,55,65
13200,note_on,0,0,3,,,,,,,,,0,,,51,65
13200,note_on,0,0,3,,,,,,,,,0,,,53,0
13200,note_on,30,0,3,,,,,,,,,0,,,55,0
13200,note_on,0,0,1,,,,,,,,,0,,,72,75
13200,note_on,0,0,1,,,,,,,,,0,,,63,65
13200,note_on,30,0,1,,,,,,,,,0,,,71,0
13200,note_on,0,0,1,,,,,,,,,0,,,62,0
13200,note_on,0,0,1,,,,,,,,,0,,,67,0
13200,note_on,0,0,1,,,,,,,,,0,,,67,65
13320,note_on,0,0,1,,,,,,,,,0,,,67,0
13320,note_on,0,0,3,,,,,,,,,0,,,59,62
13320,note_on,0,0,3,,,,,,,,,0,,,55,0
13320,note_on,120,0,3,,,,,,,,,0,,,51,0
13320,note_on,0,0,1,,,,,,,,,0,,,63,0
13320,note_on,0,0,3,,,,,,,,,0,,,50,62
13320,note_on,0,0,1,,,,,,,,,0,,,67,62
13320,note_on,120,0,1,,,,,,,,,0,,,72,0
13320,note_on,0,0,1,,,,,,,,,0,,,77,72
13320,note_on,0,0,3,,,,,,,,,0,,,55,62
13410,note_on,0,0,1,,,,,,,,,0,,,67,0
13410,note_on,90,0,3,,,,,,,,,0,,,50,0
13410,note_on,0,0,3,,,,,,,,,0,,,55,0
13410,note_on,0,0,3,,,,,,,,,0,,,59,0
13410,note_on,0,0,3,,,,,,,,,0,,,48,60
13410,note_on,0,0,3,,,,,,,,,0,,,60,60
13410,note_on,0,0,3,,,,,,,,,0,,,55,60
13410,note_on,90,0,1,,,,,,,,,0,,,77,0
13410,note_on,0,0,1,,,,,,,,,0,,,67,60
13410,note_on,0,0,1,,,,,,,,,0,,,75,70
13440,note_on,0,0,3,,,,,,,,,0,,,55,60
13440,note_on,0,0,3,,,,,,,,,0,,,55,0
13440,note_on,30,0,3,,,,,,,,,0,,,60,0
13440,note_on,30,0,1,,,,,,,,,0,,,75,0
13440,note_on,0,0,1,,,,,,,,,0,,,67,0
13440,note_on,0,0,1,,,,,,,,,0,,,67,60
13440,note_on,0,0,1,,,,,,,,,0,,,74,70
13440,note_on,0,0,3,,,,,,,,,0,,,59,60
13440,note_on,0,0,3,,,,,,,,,0,,,48,0
13800,note_on,360,0,1,,,,,,,,,0,,,74,0
13800,note_on,0,0,1,,,,,,,,,0,,,67,0
13800,note_on,0,0,1,,,,,,,,,0,,,70,110
13800,note_on,0,0,1,,,,,,,,,0,,,65,110
13800,note_on,0,0,3,,,,,,,,,0,,,46,110
13800,note_on,0,0,3,,,,,,,,,0,,,34,110
13800,note_on,0,0,3,,,,,,,,,0,,,59,0
13800,note_on,360,0,3,,,,,,,,,0,,,55,0
13800,note_on,0,0,1,,,,,,,,,0,,,74,120
13890,note_on,0,0,1,,,,,,,,,0,,,70,0
13890,note_on,0,0,3,,,,,,,,,0,,,34,0
13890,note_on,0,0,1,,,,,,,,,0,,,65,0
13890,note_on,0,0,3,,,,,,,,,0,,,46,110
13890,note_on,90,0,1,,,,,,,,,0,,,74,0
13890,note_on,0,0,1,,,,,,,,,0,,,75,120
13890,note_on,0,0,1,,,,,,,,,0,,,67,110
13890,note_on,0,0,1,,,,,,,,,0,,,70,110
13890,note_on,90,0,3,,,,,,,,,0,,,46,0
13890,note_on,0,0,3,,,,,,,,,0,,,34,110
13920,note_on,30,0,3,,,,,,,,,0,,,46,0
13920,note_on,0,0,3,,,,,,,,,0,,,34,110
13920,note_on,0,0,3,,,,,,,,,0,,,46,110
13920,note_on,0,0,1,,,,,,,,,0,,,77,120
13920,note_on,0,0,1,,,,,,,,,0,,,68,110
13920,note_on,0,0,1,,,,,,,,,0,,,70,110
13920,note_on,0,0,1,,,,,,,,,0,,,70,0
13920,note_on,0,0,1,,,,,,,,,0,,,67,0
13920,note_on,0,0,3,,,,,,,,,0,,,34,0
13920,note_on,30,0,1,,,,,,,,,0,,,75,0
14040,note_on,0,0,1,,,,,,,,,0,,,70,0
14040,note_on,0,0,3,,,,,,,,,0,,,34,0
14040,note_on,0,0,3,,,,,,,,,0,,,34,110
14040,note_on,0,0,3,,,,,,,,,0,,,46,110
14040,note_on,0,0,1,,,,,,,,,0,,,70,110
14040,note_on,0,0,1,,,,,,,,,0,,,68,110
14040,note_on,0,0,1,,,,,,,,,0,,,77,120
14040,note_on,0,0,1,,,,,,,,,0,,,68,0
14040,note_on,120,0,1,,,,,,,,,0,,,77,0
14040,note_on,120,0,3,,,,,,,,,0,,,46,0
14160,note_on,120,0,1,,,,,,,,,0,,,77,0
14160,note_on,0,0,1,,,,,,,,,0,,,68,0
14160,note_on,0,0,1,,,,,,,,,0,,,70,0
14160,note_on,0,0,1,,,,,,,,,0,,,70,110
14160,note_on,0,0,1,,,,,,,,,0,,,77,120
14160,note_on,0,0,3,,,,,,,,,0,,,46,110
14160,note_on,0,0,3,,,,,,,,,0,,,34,110
14160,note_on,0,0,3,,,,,,,,,0,,,34,0
14160,note_on,120,0,3,,,,,,,,,0,,,46,0
14160,note_on,0,0,1,,,,,,,,,0,,,68,110
14280,note_on,0,0,1,,,,,,,,,0,,,67,110
14280,note_on,0,0,1,,,,,,,,,0,,,70,0
14280,note_on,0,0,1,,,,,,,,,0,,,70,110
14280,note_on,0,0,1,,,,,,,,,0,,,75,120
14280,note_on,0,0,1,,,,,,,,,0,,,68,0
14280,note_on,120,0,1,,,,,,,,,0,,,77,0
14280,note_on,120,0,3,,,,,,,,,0,,,46,0
14280,note_on,0,0,3,,,,,,,,,0,,,34,0
14280,note_on,0,0,3,,,,,,,,,0,,,46,110
14280,note_on,0,0,3,,,,,,,,,0,,,34,110
14370,note_on,0,0,3,,,,,,,,,0,,,46,110
14370,note_on,0,0,3,,,,,,,,,0,,,34,110
14370,note_on,0,0,3,,,,,,,,,0,,,34,0
14370,note_on,90,0,3,,,,,,,,,0,,,46,0
14370,note_on,90,0,1,,,,,,,,,0,,,75,0
14370,note_on,0,0,1,,,,,,,,,0,,,70,0
14370,note_on,0,0,1,,,,,,,,,0,,,70,110
14370,note_on,0,0,1,,,,,,,,,0,,,65,110
14370,note_on,0,0,1,,,,,,,,,0,,,74,120
14370,note_on,0,0,1,,,,,,,,,0,,,67,0
14400,note_on,0,0,1,,,,,,,,,0,,,65,0
14400,note_on,30,0,3,,,,,,,,,0,,,46,0
14400,note_on,0,0,3,,,,,,,,,0,,,34,110
14400,note_on,30,0,1,,,,,,,,,0,,,74,0
14400,note_on,0,0,3,,,,,,,,,0,,,34,0
14400,note_on,0,0,1,,,,,,,,,0,,,70,0
14400,note_on,0,0,1,,,,,,,,,0,,,70,110
14400,note_on,0,0,1,,,,,,,,,0,,,79,120
14400,note_on,0,0,3,,,,,,,,,0,,,46,110
14520,note_on,120,0,3,,,,,,,,,0,,,34,0
14520,note_on,0,0,3,,,,,,,,,0,,,46,0
14520,note_on,0,0,3,,,,,,,,,0,,,36,110
14520,note_on,0,0,3,,,,,,,,,0,,,48,110
14610,note_on,0,0,1,,,,,,,,,0,,,70,110
14610,note_on,90,0,3,,,,,,,,,0,,,48,0
14610,note_on,0,0,3,,,,,,,,,0,,,36,0
14610,note_on,0,0,1,,,,,,,,,0,,,68,110
14610,note_on,0,0,3,,,,,,,,,0,,,50,110
14610,note_on,0,0,3,,,,,,,,,0,,,38,110
14610,note_on,0,0,1,,,,,,,,,0,,,77,120
14610,note_on,210,0,1,,,,,,,,,0,,,79,0
14610,note_on,0,0,1,,,,,,,,,0,,,70,0
14640,note_on,0,0,3,,,,,,,,,0,,,38,0
14640,note_on,0,0,1,,,,,,,,,0,,,70,110
14640,note_on,0,0,1,,,,,,,,,0,,,70,0
14640,note_on,0,0,3,,,,,,,,,0,,,39,110
14640,note_on,0,0,1,,,,,,,,,0,,,68,0
14640,note_on,30,0,1,,,,,,,,,0,,,77,0
14640,note_on,0,0,1,,,,,,,,,0,,,67,110
14640,note_on,0,0,1,,,,,,,,,0,,,75,120
14640,note_on,30,0,3,,,,,,,,,0,,,50,0
14640,note_on,0,0,3,,,,,,,,,0,,,51,110
14760,note_on,120,0,1,,,,,,,,,0,,,75,0
14760,note_on,120,0,3,,,,,,,,,0,,,51,0
14760,note_on,0,0,3,,,,,,,,,0,,,39,0
14760,note_on,0,0,3,,,,,,,,,0,,,41,110
14760,note_on,0,0,3,,,,,,,,,0,,,53,110
14760,note_on,0,0,1,,,,,,,,,0,,,74,120
14760,note_on,0,0,1,,,,,,,,,0,,,65,110
14760,note_on,0,0,1,,,,,,,,,0,,,68,110
14760,note_on,0,0,1,,,,,,,,,0,,,70,0
14760,note_on,0,0,1,,,,,,,,,0,,,67,0
14850,note_on,90,0,3,,,,,,,,,0,,,53,0
14850,note_on,0,0,3,,,,,,,,,0,,,53,110
14850,note_on,0,0,3,,,,,,,,,0,,,41,0
14850,note_on,0,0,1,,,,,,,,,0,,,63,110
14850,note_on,0,0,3,,,,,,,,,0,,,41,110
14850,note_on,0,0,1,,,,,,,,,0,,,68,110
14850,note_on,0,0,1,,,,,,,,,0,,,68,0
14850,note_on,0,0,1,,,,,,,,,0,,,65,0
14850,note_on,90,0,1,,,,,,,,,0,,,74,0
14850,note_on,0,0,1,,,,,,,,,0,,,72,120
14880,note_on,0,0,3,,,,,,,,,0,,,43,110
14880,note_on,0,0,1,,,,,,,,,0,,,62,110
14880,set_tempo,3000,1,0,,,,,,536241,,,,,,,
14880,note_on,0,0,3,,,,,,,,,0,,,55,110
14880,note_on,30,0,3,,,,,,,,,0,,,41,0
14880,note_on,0,0,1,,,,,,,,,0,,,67,110
14880,note_on,0,0,3,,,,,,,,,0,,,53,0
14880,note_on,0,0,1,,,,,,,,,0,,,63,0
14880,note_on,30,0,1,,,,,,,,,0,,,72,0
14880,note_on,0,0,1,,,,,,,,,0,,,71,120
14880,note_on,0,0,1,,,,,,,,,0,,,68,0
14894,set_tempo,14,1,0,,,,,,537683,,,,,,,
14901,set_tempo,7,1,0,,,,,,539132,,,,,,,
14908,set_tempo,7,1,0,,,,,,540589,,,,,,,
14915,set_tempo,7,1,0,,,,,,542054,,,,,,,
14922,set_tempo,7,1,0,,,,,,543527,,,,,,,
14929,set_tempo,7,1,0,,,,,,545009,,,,,,,
14936,set_tempo,7,1,0,,,,,,546498,,,,,,,
14943,set_tempo,7,1,0,,,,,,547995,,,,,,,
14950,set_tempo,7,1,0,,,,,,549501,,,,,,,
14957,set_tempo,7,1,0,,,,,,551015,,,,,,,
14964,set_tempo,7,1,0,,,,,,552537,,,,,,,
14971,set_tempo,7,1,0,,,,,,554068,,,,,,,
14978,set_tempo,7,1,0,,,,,,555607,,,,,,,
14985,set_tempo,7,1,0,,,,,,557155,,,,,,,
14992,set_tempo,7,1,0,,,,,,558711,,,,,,,
15000,set_tempo,8,1,0,,,,,,560276,,,,,,,
15000,note_on,0,0,1,,,,,,,,,0,,,67,0
15000,note_on,0,0,1,,,,,,,,,0,,,67,110
15000,note_on,0,0,1,,,,,,,,,0,,,60,110
15000,note_on,0,0,1,,,,,,,,,0,,,69,120
15000,note_on,120,0,3,,,,,,,,,0,,,55,0
15000,note_on,0,0,1,,,,,,,,,0,,,62,0
15000,note_on,0,0,3,,,,,,,,,0,,,55,110
15000,note_on,0,0,3,,,,,,,,,0,,,43,0
15000,note_on,120,0,1,,,,,,,,,0,,,71,0
15007,set_tempo,7,1,0,,,,,,561850,,,,,,,
15014,set_tempo,7,1,0,,,,,,563433,,,,,,,
15021,set_tempo,7,1,0,,,,,,565025,,,,,,,
15028,set_tempo,7,1,0,,,,,,566626,,,,,,,
15035,set_tempo,7,1,0,,,,,,568236,,,,,,,
15042,set_tempo,7,1,0,,,,,,569855,,,,,,,
15049,set_tempo,7,1,0,,,,,,571483,,,,,,,
15056,set_tempo,7,1,0,,,,,,573121,,,,,,,
15063,set_tempo,7,1,0,,,,,,574768,,,,,,,
15070,set_tempo,7,1,0,,,,,,576424,,,,,,,
15077,set_tempo,7,1,0,,,,,,578090,,,,,,,
15084,set_tempo,7,1,0,,,,,,579766,,,,,,,
15090,note_on,0,0,3,,,,,,,,,0,,,53,110
15090,note_on,90,0,3,,,,,,,,,0,,,55,0
15090,note_on,0,0,1,,,,,,,,,0,,,71,120
15090,note_on,90,0,1,,,,,,,,,0,,,69,0
15090,note_on,0,0,1,,,,,,,,,0,,,60,0
15090,note_on,0,0,1,,,,,,,,,0,,,67,0
15090,note_on,0,0,1,,,,,,,,,0,,,67,110
15090,note_on,0,0,1,,,,,,,,,0,,,62,110
15090,note_on,0,0,3,,,,,,,,,0,,,55,110
15091,set_tempo,7,1,0,,,,,,581452,,,,,,,
15098,set_tempo,7,1,0,,,,,,583147,,,,,,,
15105,set_tempo,7,1,0,,,,,,584852,,,,,,,
15112,set_tempo,7,1,0,,,,,,586568,,,,,,,
15120,note_on,0,0,3,,,,,,,,,0,,,51,110
15120,note_on,0,0,3,,,,,,,,,0,,,53,0
15120,note_on,30,0,3,,,,,,,,,0,,,55,0
15120,note_on,0,0,1,,,,,,,,,0,,,72,120
15120,note_on,0,0,1,,,,,,,,,0,,,63,110
15120,note_on,0,0,1,,,,,,,,,0,,,67,110
15120,note_on,0,0,1,,,,,,,,,0,,,67,0
15120,note_on,0,0,1,,,,,,,,,0,,,62,0
15120,note_on,0,0,3,,,,,,,,,0,,,55,110
15120,note_on,30,0,1,,,,,,,,,0,,,71,0
15120,set_tempo,8,1,0,,,,,,588293,,,,,,,
15127,set_tempo,7,1,0,,,,,,590029,,,,,,,
15134,set_tempo,7,1,0,,,,,,591774,,,,,,,
15141,set_tempo,7,1,0,,,,,,593531,,,,,,,
15148,set_tempo,7,1,0,,,,,,595297,,,,,,,
15155,set_tempo,7,1,0,,,,,,597074,,,,,,,
15162,set_tempo,7,1,0,,,,,,598862,,,,,,,
15169,set_tempo,7,1,0,,,,,,600661,,,,,,,
15176,set_tempo,7,1,0,,,,,,602470,,,,,,,
15183,set_tempo,7,1,0,,,,,,604290,,,,,,,
15190,set_tempo,7,1,0,,,,,,606122,,,,,,,
15197,set_tempo,7,1,0,,,,,,607964,,,,,,,
15204,set_tempo,7,1,0,,,,,,609818,,,,,,,
15211,set_tempo,7,1,0,,,,,,611683,,,,,,,
15218,set_tempo,7,1,0,,,,,,613560,,,,,,,
15225,set_tempo,7,1,0,,,,,,615448,,,,,,,
15232,set_tempo,7,1,0,,,,,,617347,,,,,,,
15240,note_on,0,0,3,,,,,,,,,0,,,55,0
15240,note_on,0,0,1,,,,,,,,,0,,,63,0
15240,note_on,120,0,1,,,,,,,,,0,,,72,0
15240,note_on,0,0,1,,,,,,,,,0,,,75,120
15240,note_on,120,0,3,,,,,,,,,0,,,51,0
15240,note_on,0,0,3,,,,,,,,,0,,,43,110
15240,set_tempo,8,1,0,,,,,,619259,,,,,,,
15240,note_on,0,0,1,,,,,,,,,0,,,67,0
15240,note_on,0,0,1,,,,,,,,,0,,,67,110
15240,note_on,0,0,3,,,,,,,,,0,,,31,110
15247,set_tempo,7,1,0,,,,,,621182,,,,,,,
15254,set_tempo,7,1,0,,,,,,623118,,,,,,,
15261,set_tempo,7,1,0,,,,,,625065,,,,,,,
15268,set_tempo,7,1,0,,,,,,627025,,,,,,,
15275,set_tempo,7,1,0,,,,,,628997,,,,,,,
15282,set_tempo,7,1,0,,,,,,630981,,,,,,,
15289,set_tempo,7,1,0,,,,,,632978,,,,,,,
15296,set_tempo,7,1,0,,,,,,634988,,,,,,,
15303,set_tempo,7,1,0,,,,,,637010,,,,,,,
15310,set_tempo,7,1,0,,,,,,639046,,,,,,,
15317,set_tempo,7,1,0,,,,,,641094,,,,,,,
15324,set_tempo,7,1,0,,,,,,643156,,,,,,,
15330,note_on,0,0,1,,,,,,,,,0,,,67,110
15330,note_on,0,0,1,,,,,,,,,0,,,67,0
15330,note_on,90,0,1,,,,,,,,,0,,,75,0
15330,note_on,0,0,1,,,,,,,,,0,,,65,110
15330,note_on,0,0,1,,,,,,,,,0,,,74,120
15330,note_on,90,0,3,,,,,,,,,0,,,43,0
15330,note_on,0,0,3,,,,,,,,,0,,,31,110
15330,note_on,0,0,3,,,,,,,,,0,,,31,0
15330,note_on,0,0,3,,,,,,,,,0,,,43,110
15331,set_tempo,7,1,0,,,,,,645231,,,,,,,
15338,set_tempo,7,1,0,,,,,,647319,,,,,,,
15345,set_tempo,7,1,0,,,,,,649421,,,,,,,
15352,set_tempo,7,1,0,,,,,,651537,,,,,,,
15360,note_on,30,0,3,,,,,,,,,0,,,43,0
15360,note_on,0,0,3,,,,,,,,,0,,,31,0
15360,note_on,0,0,3,,,,,,,,,0,,,36,110
15360,note_on,0,0,3,,,,,,,,,0,,,43,110
15360,note_on,0,0,1,,,,,,,,,0,,,72,120
15360,note_on,0,0,1,,,,,,,,,0,,,67,110
15360,note_on,0,0,1,,,,,,,,,0,,,67,0
15360,note_on,0,0,1,,,,,,,,,0,,,65,0
15360,note_on,30,0,1,,,,,,,,,0,,,74,0
15360,control_change,2400,0,4,,,,,,,,,0,64,127,,
15360,set_tempo,8,1,0,,,,,,652174,,,,,,,
15360,note_on,0,0,1,,,,,,,,,0,,,63,110
15720,note_on,0,0,3,,,,,,,,,0,,,36,0
15720,note_on,360,0,3,,,,,,,,,0,,,43,0
15720,note_on,0,0,1,,,,,,,,,0,,,67,0
15720,note_on,0,0,1,,,,,,,,,0,,,75,120
15720,note_on,0,0,1,,,,,,,,,0,,,63,0
15720,set_tempo,360,1,0,,,,,,535714,,,,,,,
15720,note_on,360,0,1,,,,,,,,,0,,,72,0
15720,control_change,360,0,4,,,,,,,,,0,64,0,,
15810,note_on,0,0,1,,,,,,,,,0,,,74,120
15810,note_on,90,0,1,,,,,,,,,0,,,75,0
15840,note_on,0,0,1,,,,,,,,,0,,,72,120
15840,note_on,0,0,3,,,,,,,,,0,,,44,110
15840,note_on,0,0,3,,,,,,,,,0,,,51,110
15840,note_on,120,0,3,,,,,,,,,0,,,56,110
15840,control_change,120,0,4,,,,,,,,,0,64,127,,
15840,note_on,30,0,1,,,,,,,,,0,,,74,0
15840,note_on,0,0,1,,,,,,,,,0,,,63,110
15840,note_on,0,0,1,,,,,,,,,0,,,68,110
16185,note_on,345,0,1,,,,,,,,,0,,,72,120
16200,note_on,0,0,3,,,,,,,,,0,,,56,0
16200,note_on,360,0,3,,,,,,,,,0,,,44,0
16200,note_on,0,0,3,,,,,,,,,0,,,51,0
16200,control_change,360,0,4,,,,,,,,,0,64,0,,
16200,note_on,0,0,1,,,,,,,,,0,,,72,0
16200,note_on,15,0,1,,,,,,,,,0,,,72,0
16200,note_on,0,0,1,,,,,,,,,0,,,75,120
16200,note_on,0,0,1,,,,,,,,,0,,,63,0
16200,note_on,0,0,1,,,,,,,,,0,,,68,0
16290,note_on,0,0,1,,,,,,,,,0,,,74,120
16290,note_on,90,0,1,,,,,,,,,0,,,75,0
16320,note_on,0,0,1,,,,,,,,,0,,,72,120
16320,note_on,0,0,1,,,,,,,,,0,,,67,110
16320,note_on,30,0,1,,,,,,,,,0,,,74,0
16320,control_change,120,0,4,,,,,,,,,0,64,127,,
16320,note_on,120,0,3,,,,,,,,,0,,,39,110
16320,note_on,0,0,3,,,,,,,,,0,,,51,110
16320,note_on,0,0,3,,,,,,,,,0,,,48,110
16680,note_on,0,0,1,,,,,,,,,0,,,67,0
16680,control_change,360,0,4,,,,,,,,,0,64,0,,
16680,note_on,0,0,1,,,,,,,,,0,,,74,120
16680,note_on,360,0,1,,,,,,,,,0,,,72,0
16680,note_on,0,0,3,,,,,,,,,0,,,48,110
16680,note_on,360,0,3,,,,,,,,,0,,,48,0
16680,note_on,0,0,3,,,,,,,,,0,,,51,0
16680,note_on,0,0,3,,,,,,,,,0,,,39,0
16680,note_on,0,0,3,,,,,,,,,0,,,60,110
16770,note_on,90,0,1,,,,,,,,,0,,,74,0
16770,note_on,0,0,1,,,,,,,,,0,,,75,120
16800,note_on,120,0,3,,,,,,,,,0,,,60,0
16800,note_on,0,0,1,,,,,,,,,0,,,68,110
16800,note_on,0,0,1,,,,,,,,,0,,,72,110
16800,note_on,30,0,1,,,,,,,,,0,,,75,0
16800,note_on,0,0,3,,,,,,,,,0,,,48,0
16800,note_on,0,0,3,,,,,,,,,0,,,53,110
16800,note_on,0,0,3,,,,,,,,,0,,,41,110
16800,note_on,0,0,1,,,,,,,,,0,,,77,120
16800,set_tempo,1080,1,0,,,,,,536241,,,,,,,
16814,set_tempo,14,1,0,,,,,,537683,,,,,,,
16821,set_tempo,7,1,0,,,,,,539132,,,,,,,
16828,set_tempo,7,1,0,,,,,,540589,,,,,,,
16835,set_tempo,7,1,0,,,,,,542054,,,,,,,
16842,set_tempo,7,1,0,,,,,,543527,,,,,,,
16849,set_tempo,7,1,0,,,,,,545009,,,,,,,
16856,set_tempo,7,1,0,,,,,,546498,,,,,,,
16863,set_tempo,7,1,0,,,,,,547995,,,,,,,
16870,set_tempo,7,1,0,,,,,,549501,,,,,,,
16877,set_tempo,7,1,0,,,,,,551015,,,,,,,
16884,set_tempo,7,1,0,,,,,,552537,,,,,,,
16891,set_tempo,7,1,0,,,,,,554068,,,,,,,
16898,set_tempo,7,1,0,,,,,,555607,,,,,,,
16905,set_tempo,7,1,0,,,,,,557155,,,,,,,
16912,set_tempo,7,1,0,,,,,,558711,,,,,,,
16920,set_tempo,8,1,0,,,,,,560276,,,,,,,
16920,note_on,0,0,1,,,,,,,,,0,,,72,110
16920,note_on,120,0,3,,,,,,,,,0,,,53,0
16920,note_on,0,0,3,,,,,,,,,0,,,41,0
16920,note_on,0,0,1,,,,,,,,,0,,,72,0
16920,note_on,0,0,3,,,,,,,,,0,,,55,110
16920,note_on,0,0,3,,,,,,,,,0,,,43,110
16920,note_on,0,0,1,,,,,,,,,0,,,68,0
16920,note_on,120,0,1,,,,,,,,,0,,,77,0
16920,note_on,0,0,1,,,,,,,,,0,,,75,120
16920,note_on,0,0,1,,,,,,,,,0,,,67,110
16927,set_tempo,7,1,0,,,,,,561850,,,,,,,
16934,set_tempo,7,1,0,,,,,,563433,,,,,,,
16941,set_tempo,7,1,0,,,,,,565025,,,,,,,
16948,set_tempo,7,1,0,,,,,,566626,,,,,,,
16955,set_tempo,7,1,0,,,,,,568236,,,,,,,
16962,set_tempo,7,1,0,,,,,,569855,,,,,,,
16969,set_tempo,7,1,0,,,,,,571483,,,,,,,
16976,set_tempo,7,1,0,,,,,,573121,,,,,,,
16983,set_tempo,7,1,0,,,,,,574768,,,,,,,
16990,set_tempo,7,1,0,,,,,,576424,,,,,,,
16997,set_tempo,7,1,0,,,,,,578090,,,,,,,
17004,set_tempo,7,1,0,,,,,,579766,,,,,,,
17010,note_on,0,0,1,,,,,,,,,0,,,65,110
17010,note_on,0,0,1,,,,,,,,,0,,,72,0
17010,note_on,90,0,1,,,,,,,,,0,,,75,0
17010,note_on,0,0,1,,,,,,,,,0,,,74,120
17010,note_on,0,0,1,,,,,,,,,0,,,67,0
17010,note_on,0,0,3,,,,,,,,,0,,,44,110
17010,note_on,0,0,3,,,,,,,,,0,,,43,0
17010,note_on,90,0,3,,,,,,,,,0,,,55,0
17010,note_on,0,0,3,,,,,,,,,0,,,56,110
17011,set_tempo,7,1,0,,,,,,581452,,,,,,,
17018,set_tempo,7,1,0,,,,,,583147,,,,,,,
17025,set_tempo,7,1,0,,,,,,584852,,,,,,,
17032,set_tempo,7,1,0,,,,,,586568,,,,,,,
17040,note_on,30,0,3,,,,,,,,,0,,,56,0
17040,note_on,0,0,3,,,,,,,,,0,,,44,0
17040,note_on,0,0,3,,,,,,,,,0,,,55,110
17040,note_on,0,0,3,,,,,,,,,0,,,43,110
17040,note_on,0,0,1,,,,,,,,,0,,,63,110
17040,note_on,0,0,1,,,,,,,,,0,,,65,0
17040,note_on,30,0,1,,,,,,,,,0,,,74,0
17040,note_on,0,0,1,,,,,,,,,0,,,72,120
17040,set_tempo,8,1,0,,,,,,588293,,,,,,,
17047,set_tempo,7,1,0,,,,,,590029,,,,,,,
17054,set_tempo,7,1,0,,,,,,591774,,,,,,,
17061,set_tempo,7,1,0,,,,,,593531,,,,,,,
17068,set_tempo,7,1,0,,,,,,595297,,,,,,,
17075,set_tempo,7,1,0,,,,,,597074,,,,,,,
17082,set_tempo,7,1,0,,,,,,598862,,,,,,,
17089,set_tempo,7,1,0,,,,,,600661,,,,,,,
17096,set_tempo,7,1,0,,,,,,602470,,,,,,,
17103,set_tempo,7,1,0,,,,,,604290,,,,,,,
17110,set_tempo,7,1,0,,,,,,606122,,,,,,,
17117,set_tempo,7,1,0,,,,,,607964,,,,,,,
17124,set_tempo,7,1,0,,,,,,609818,,,,,,,
17131,set_tempo,7,1,0,,,,,,611683,,,,,,,
17138,set_tempo,7,1,0,,,,,,613560,,,,,,,
17145,set_tempo,7,1,0,,,,,,615448,,,,,,,
17152,set_tempo,7,1,0,,,,,,617347,,,,,,,
17160,note_on,0,0,1,,,,,,,,,0,,,63,0
17160,note_on,0,0,3,,,,,,,,,0,,,43,110
17160,note_on,0,0,3,,,,,,,,,0,,,31,110
17160,note_on,0,0,3,,,,,,,,,0,,,55,0
17160,note_on,120,0,3,,,,,,,,,0,,,43,0
17160,note_on,120,0,1,,,,,,,,,0,,,72,0
17160,note_on,0,0,1,,,,,,,,,0,,,67,110
17160,note_on,0,0,1,,,,,,,,,0,,,62,110
17160,note_on,0,0,1,,,,,,,,,0,,,71,120
17160,set_tempo,8,1,0,,,,,,619259,,,,,,,
17167,set_tempo,7,1,0,,,,,,621182,,,,,,,
17174,set_tempo,7,1,0,,,,,,623118,,,,,,,
17181,set_tempo,7,1,0,,,,,,625065,,,,,,,
17188,set_tempo,7,1,0,,,,,,627025,,,,,,,
17195,set_tempo,7,1,0,,,,,,628997,,,,,,,
17202,set_tempo,7,1,0,,,,,,630981,,,,,,,
17209,set_tempo,7,1,0,,,,,,632978,,,,,,,
17216,set_tempo,7,1,0,,,,,,634988,,,,,,,
17223,set_tempo,7,1,0,,,,,,637010,,,,,,,
17230,set_tempo,7,1,0,,,,,,639046,,,,,,,
17237,set_tempo,7,1,0,,,,,,641094,,,,,,,
17244,set_tempo,7,1,0,,,,,,643156,,,,,,,
17251,set_tempo,7,1,0,,,,,,645231,,,,,,,
17258,set_tempo,7,1,0,,,,,,647319,,,,,,,
17265,set_tempo,7,1,0,,,,,,649421,,,,,,,
17272,set_tempo,7,1,0,,,,,,651537,,,,,,,
17280,set_tempo,8,1,0,,,,,,652174,,,,,,,
17280,note_on,120,0,3,,,,,,,,,0,,,43,0
17280,note_on,0,0,3,,,,,,,,,0,,,31,0
17280,note_on,0,0,3,,,,,,,,,0,,,36,110
17280,note_on,0,0,3,,,,,,,,,0,,,43,110
17280,note_on,0,0,3,,,,,,,,,0,,,48,110
17280,note_on,0,0,1,,,,,,,,,0,,,67,0
17280,note_on,0,0,1,,,,,,,,,0,,,63,110
17280,note_on,0,0,1,,,,,,,,,0,,,72,120
17280,note_on,120,0,1,,,,,,,,,0,,,71,0
17280,note_on,0,0,1,,,,,,,,,0,,,62,0
17280,control_change,600,0,4,,,,,,,,,0,64,127,,
17280,note_on,0,0,1,,,,,,,,,0,,,67,110
17640,note_on,360,0,1,,,,,,,,,0,,,72,0
17640,note_on,0,0,1,,,,,,,,,0,,,63,0
17640,note_on,0,0,1,,,,,,,,,0,,,67,0
17640,note_on,0,0,1,,,,,,,,,0,,,75,70
17640,note_on,0,0,3,,,,,,,,,0,,,43,0
17640,note_on,360,0,3,,,,,,,,,0,,,48,0
17640,set_tempo,360,1,0,,,,,,535714,,,,,,,
17640,note_on,0,0,3,,,,,,,,,0,,,36,0
17640,control_change,360,0,4,,,,,,,,,0,64,0,,
17730,note_on,0,0,1,,,,,,,,,0,,,74,70
17730,note_on,90,0,1,,,,,,,,,0,,,75,0
17760,note_on,0,0,1,,,,,,,,,0,,,72,70
17760,note_on,0,0,1,,,,,,,,,0,,,63,60
17760,note_on,0,0,1,,,,,,,,,0,,,68,60
17760,note_on,30,0,1,,,,,,,,,0,,,74,0
17760,note_on,0,0,3,,,,,,,,,0,,,44,60
17760,note_on,0,0,3,,,,,,,,,0,,,51,60
17760,control_change,120,0,4,,,,,,,,,0,64,127,,
17760,note_on,120,0,3,,,,,,,,,0,,,56,60
18120,note_on,360,0,1,,,,,,,,,0,,,72,0
18120,note_on,0,0,1,,,,,,,,,0,,,63,0
18120,note_on,0,0,1,,,,,,,,,0,,,68,0
18120,note_on,0,0,1,,,,,,,,,0,,,75,70
18120,control_change,360,0,4,,,,,,,,,0,64,0,,
18120,note_on,360,0,3,,,,,,,,,0,,,44,0
18120,note_on,0,0,3,,,,,,,,,0,,,51,0
18120,note_on,0,0,3,,,,,,,,,0,,,56,0
18210,note_on,0,0,1,,,,,,,,,0,,,74,70
18210,note_on,90,0,1,,,,,,,,,0,,,75,0
18240,note_on,30,0,1,,,,,,,,,0,,,74,0
18240,note_on,0,0,1,,,,,,,,,0,,,72,70
18240,note_on,0,0,1,,,,,,,,,0,,,67,60
18240,control_change,120,0,4,,,,,,,,,0,64,127,,
18240,note_on,0,0,3,,,,,,,,,0,,,39,60
18240,note_on,0,0,3,,,,,,,,,0,,,48,60
18240,note_on,120,0,3,,,,,,,,,0,,,51,60
18600,note_on,0,0,3,,,,,,,,,0,,,48,0
18600,note_on,0,0,3,,,,,,,,,0,,,51,0
18600,control_change,360,0,4,,,,,,,,,0,64,0,,
18600,note_on,0,0,1,,,,,,,,,0,,,67,0
18600,note_on,360,0,1,,,,,,,,,0,,,72,0
18600,note_on,360,0,3,,,,,,,,,0,,,39,0
18600,note_on,0,0,1,,,,,,,,,0,,,73,50
18690,note_on,0,0,1,,,,,,,,,0,,,75,50
18690,note_on,90,0,1,,,,,,,,,0,,,73,0
18720,set_tempo,1080,1,0,,,,,,536241,,,,,,,
18720,note_on,120,0,3,,,,,,,,,0,,,49,40
18720,note_on,0,0,1,,,,,,,,,0,,,73,50
18720,note_on,0,0,1,,,,,,,,,0,,,68,40
18720,note_on,30,0,1,,,,,,,,,0,,,75,0
18734,set_tempo,14,1,0,,,,,,537683,,,,,,,
18735,note_on,0,0,1,,,,,,,,,0,,,75,50
18735,note_on,15,0,1,,,,,,,,,0,,,73,0
18741,set_tempo,7,1,0,,,,,,539132,,,,,,,
18748,set_tempo,7,1,0,,,,,,540589,,,,,,,
18750,note_on,15,0,1,,,,,,,,,0,,,75,0
18750,note_on,0,0,1,,,,,,,,,0,,,77,50
18755,set_tempo,7,1,0,,,,,,542054,,,,,,,
18762,set_tempo,7,1,0,,,,,,543527,,,,,,,
18769,set_tempo,7,1,0,,,,,,545009,,,,,,,
18776,set_tempo,7,1,0,,,,,,546498,,,,,,,
18783,set_tempo,7,1,0,,,,,,547995,,,,,,,
18790,set_tempo,7,1,0,,,,,,549501,,,,,,,
18797,set_tempo,7,1,0,,,,,,551015,,,,,,,
18804,set_tempo,7,1,0,,,,,,552537,,,,,,,
18811,set_tempo,7,1,0,,,,,,554068,,,,,,,
18818,set_tempo,7,1,0,,,,,,555607,,,,,,,
18825,set_tempo,7,1,0,,,,,,557155,,,,,,,
18832,set_tempo,7,1,0,,,,,,558711,,,,,,,
18840,set_tempo,8,1,0,,,,,,560276,,,,,,,
18840,note_on,0,0,1,,,,,,,,,0,,,68,0
18840,note_on,0,0,1,,,,,,,,,0,,,68,40
18840,note_on,0,0,3,,,,,,,,,0,,,51,40
18840,note_on,90,0,1,,,,,,,,,0,,,77,0
18840,note_on,120,0,3,,,,,,,,,0,,,49,0
18840,note_on,0,0,1,,,,,,,,,0,,,75,50
18847,set_tempo,7,1,0,,,,,,561850,,,,,,,
18854,set_tempo,7,1,0,,,,,,563433,,,,,,,
18861,set_tempo,7,1,0,,,,,,565025,,,,,,,
18868,set_tempo,7,1,0,,,,,,566626,,,,,,,
18875,set_tempo,7,1,0,,,,,,568236,,,,,,,
18882,set_tempo,7,1,0,,,,,,569855,,,,,,,
18889,set_tempo,7,1,0,,,,,,571483,,,,,,,
18896,set_tempo,7,1,0,,,,,,573121,,,,,,,
18903,set_tempo,7,1,0,,,,,,574768,,,,,,,
18910,set_tempo,7,1,0,,,,,,576424,,,,,,,
18917,set_tempo,7,1,0,,,,,,578090,,,,,,,
18924,set_tempo,7,1,0,,,,,,579766,,,,,,,
18930,note_on,0,0,1,,,,,,,,,0,,,68,40
18930,note_on,0,0,1,,,,,,,,,0,,,68,0
18930,note_on,0,0,3,,,,,,,,,0,,,53,40
18930,note_on,90,0,1,,,,,,,,,0,,,75,0
18930,note_on,0,0,1,,,,,,,,,0,,,73,50
18930,note_on,90,0,3,,,,,,,,,0,,,51,0
18931,set_tempo,7,1,0,,,,,,581452,,,,,,,
18938,set_tempo,7,1,0,,,,,,583147,,,,,,,
18945,set_tempo,7,1,0,,,,,,584852,,,,,,,
18952,set_tempo,7,1,0,,,,,,586568,,,,,,,
18960,note_on,0,0,3,,,,,,,,,0,,,51,40
18960,set_tempo,8,1,0,,,,,,588293,,,,,,,
18960,note_on,30,0,1,,,,,,,,,0,,,73,0
18960,note_on,0,0,1,,,,,,,,,0,,,68,0
18960,note_on,0,0,1,,,,,,,,,0,,,68,40
18960,note_on,0,0,1,,,,,,,,,0,,,72,50
18960,note_on,30,0,3,,,,,,,,,0,,,53,0
18967,set_tempo,7,1,0,,,,,,590029,,,,,,,
18974,set_tempo,7,1,0,,,,,,591774,,,,,,,
18981,set_tempo,7,1,0,,,,,,593531,,,,,,,
18988,set_tempo,7,1,0,,,,,,595297,,,,,,,
18995,set_tempo,7,1,0,,,,,,597074,,,,,,,
19002,set_tempo,7,1,0,,,,,,598862,,,,,,,
19009,set_tempo,7,1,0,,,,,,600661,,,,,,,
19016,set_tempo,7,1,0,,,,,,602470,,,,,,,
19023,set_tempo,7,1,0,,,,,,604290,,,,,,,
19030,set_tempo,7,1,0,,,,,,606122,,,,,,,
19037,set_tempo,7,1,0,,,,,,607964,,,,,,,
19044,set_tempo,7,1,0,,,,,,609818,,,,,,,
19051,set_tempo,7,1,0,,,,,,611683,,,,,,,
19058,set_tempo,7,1,0,,,,,,613560,,,,,,,
19065,set_tempo,7,1,0,,,,,,615448,,,,,,,
19072,set_tempo,7,1,0,,,,,,617347,,,,,,,
19080,note_on,120,0,1,,,,,,,,,0,,,72,0
19080,note_on,0,0,1,,,,,,,,,0,,,68,0
19080,note_on,0,0,1,,,,,,,,,0,,,70,50
19080,note_on,0,0,1,,,,,,,,,0,,,63,40
19080,note_on,0,0,1,,,,,,,,,0,,,67,40
19080,note_on,120,0,3,,,,,,,,,0,,,51,0
19080,note_on,0,0,3,,,,,,,,,0,,,39,40
19080,note_on,0,0,3,,,,,,,,,0,,,51,40
19080,note_on,0,0,1,,,,,,,,,0,,,61,40
19080,set_tempo,8,1,0,,,,,,619259,,,,,,,
19087,set_tempo,7,1,0,,,,,,621182,,,,,,,
19094,set_tempo,7,1,0,,,,,,623118,,,,,,,
19101,set_tempo,7,1,0,,,,,,625065,,,,,,,
19108,set_tempo,7,1,0,,,,,,627025,,,,,,,
19115,set_tempo,7,1,0,,,,,,628997,,,,,,,
19122,set_tempo,7,1,0,,,,,,630981,,,,,,,
19129,set_tempo,7,1,0,,,,,,632978,,,,,,,
19136,set_tempo,7,1,0,,,,,,634988,,,,,,,
19143,set_tempo,7,1,0,,,,,,637010,,,,,,,
19150,set_tempo,7,1,0,,,,,,639046,,,,,,,
19157,set_tempo,7,1,0,,,,,,641094,,,,,,,
19164,set_tempo,7,1,0,,,,,,643156,,,,,,,
19171,set_tempo,7,1,0,,,,,,645231,,,,,,,
19178,set_tempo,7,1,0,,,,,,647319,,,,,,,
19185,set_tempo,7,1,0,,,,,,649421,,,,,,,
19192,set_tempo,7,1,0,,,,,,651537,,,,,,,
19200,control_change,600,0,4,,,,,,,,,0,64,127,,
19200,note_on,120,0,1,,,,,,,,,0,,,70,0
19200,note_on,0,0,1,,,,,,,,,0,,,61,0
19200,note_on,0,0,1,,,,,,,,,0,,,63,0
19200,note_on,0,0,1,,,,,,,,,0,,,67,0
19200,note_on,0,0,1,,,,,,,,,0,,,63,40
19200,note_on,0,0,1,,,,,,,,,0,,,60,40
19200,note_on,0,0,1,,,,,,,,,0,,,68,50
19200,note_on,0,0,3,,,,,,,,,0,,,39,0
19200,note_on,0,0,3,,,,,,,,,0,,,44,40
19200,marker,0,1,0,,,,,,,,,,,,,
19200,set_tempo,8,1,0,,,,,,500000,,,,,,,
19200,note_on,120,0,3,,,,,,,,,0,,,51,0
19240,note_on,0,0,3,,,,,,,,,0,,,48,40
19240,note_on,40,0,3,,,,,,,,,0,,,44,0
19280,note_on,40,0,3,,,,,,,,,0,,,48,0
19280,note_on,0,0,3,,,,,,,,,0,,,51,40
19305,control_change,105,0,4,,,,,,,,,0,64,0,,
19320,note_on,0,0,3,,,,,,,,,0,,,48,40
19320,note_on,40,0,3,,,,,,,,,0,,,51,0
19320,control_change,15,0,4,,,,,,,,,0,64,127,,
19360,note_on,40,0,3,,,,,,,,,0,,,48,0
19360,note_on,0,0,3,,,,,,,,,0,,,51,40
19400,note_on,0,0,3,,,,,,,,,0,,,56,40
19400,note_on,40,0,3,,,,,,,,,0,,,51,0
19425,control_change,105,0,4,,,,,,,,,0,64,0,,
19440,note_on,240,0,1,,,,,,,,,0,,,68,0
19440,control_change,15,0,4,,,,,,,,,0,64,127,,
19440,note_on,0,0,3,,,,,,,,,0,,,47,40
19440,note_on,40,0,3,,,,,,,,,0,,,56,0
19440,note_on,0,0,1,,,,,,,,,0,,,60,0
19440,note_on,0,0,1,,,,,,,,,0,,,63,0
19480,note_on,40,0,3,,,,,,,,,0,,,47,0
19480,note_on,0,0,3,,,,,,,,,0,,,51,40
19520,note_on,40,0,3,,,,,,,,,0,,,51,0
19520,note_on,0,0,3,,,,,,,,,0,,,56,40
19545,control_change,105,0,4,,,,,,,,,0,64,0,,
19560,note_on,120,0,1,,,,,,,,,0,,,68,50
19560,control_change,15,0,4,,,,,,,,,0,64,127,,
19560,note_on,0,0,3,,,,,,,,,0,,,48,40
19560,note_on,40,0,3,,,,,,,,,0,,,56,0
19600,note_on,40,0,3,,,,,,,,,0,,,48,0
19600,note_on,0,0,3,,,,,,,,,0,,,51,40
19640,note_on,40,0,3,,,,,,,,,0,,,51,0
19640,note_on,0,0,3,,,,,,,,,0,,,56,40
19650,note_on,90,0,1,,,,,,,,,0,,,68,0
19650,note_on,0,0,1,,,,,,,,,0,,,72,50
19665,control_change,105,0,4,,,,,,,,,0,64,0,,
19680,note_on,0,0,1,,,,,,,,,0,,,75,50
19680,control_change,15,0,4,,,,,,,,,0,64,127,,
19680,note_on,40,0,3,,,,,,,,,0,,,56,0
19680,note_on,0,0,3,,,,,,,,,0,,,44,40
19680,note_on,30,0,1,,,,,,,,,0,,,72,0
19720,note_on,40,0,3,,,,,,,,,0,,,44,0
19720,note_on,0,0,3,,,,,,,,,0,,,48,40
19760,note_on,0,0,3,,,,,,,,,0,,,56,41
19760,note_on,40,0,3,,,,,,,,,0,,,48,0
19785,control_change,105,0,4,,,,,,,,,0,64,0,,
19800,control_change,15,0,4,,,,,,,,,0,64,127,,
19800,note_on,0,0,1,,,,,,,,,0,,,75,51
19800,note_on,120,0,1,,,,,,,,,0,,,75,0
19800,note_on,0,0,3,,,,,,,,,0,,,48,41
19800,note_on,40,0,3,,,,,,,,,0,,,56,0
19840,note_on,40,0,3,,,,,,,,,0,,,48,0
19840,note_on,0,0,3,,,,,,,,,0,,,51,42
19880,note_on,0,0,3,,,,,,,,,0,,,56,42
19880,note_on,40,0,3,,,,,,,,,0,,,51,0
19905,control_change,105,0,4,,,,,,,,,0,64,0,,
19920,note_on,0,0,3,,,,,,,,,0,,,47,43
19920,control_change,15,0,4,,,,,,,,,0,64,127,,
19920,note_on,120,0,1,,,,,,,,,0,,,75,0
19920,note_on,0,0,1,,,,,,,,,0,,,75,53
19920,note_on,40,0,3,,,,,,,,,0,,,56,0
19960,note_on,0,0,3,,,,,,,,,0,,,50,44
19960,note_on,40,0,3,,,,,,,,,0,,,47,0
20000,note_on,40,0,3,,,,,,,,,0,,,50,0
20000,note_on,0,0,3,,,,,,,,,0,,,56,44
20025,control_change,105,0,4,,,,,,,,,0,64,0,,
20040,note_on,40,0,3,,,,,,,,,0,,,56,0
20040,note_on,0,0,1,,,,,,,,,0,,,75,55
20040,note_on,0,0,3,,,,,,,,,0,,,48,45
20040,note_on,120,0,1,,,,,,,,,0,,,75,0
20040,control_change,15,0,4,,,,,,,,,0,64,127,,
20080,note_on,40,0,3,,,,,,,,,0,,,48,0
20080,note_on,0,0,3,,,,,,,,,0,,,51,45
20120,note_on,40,0,3,,,,,,,,,0,,,51,0
20120,note_on,0,0,3,,,,,,,,,0,,,56,46
20145,control_change,105,0,4,,,,,,,,,0,64,0,,
20160,note_on,0,0,1,,,,,,,,,0,,,77,57
20160,control_change,15,0,4,,,,,,,,,0,64,127,,
20160,note_on,120,0,1,,,,,,,,,0,,,75,0
20160,note_on,40,0,3,,,,,,,,,0,,,56,0
20160,note_on,0,0,3,,,,,,,,,0,,,49,47
20200,note_on,40,0,3,,,,,,,,,0,,,49,0
20200,note_on,0,0,3,,,,,,,,,0,,,53,47
20240,note_on,0,0,3,,,,,,,,,0,,,56,48
20240,note_on,40,0,3,,,,,,,,,0,,,53,0
20265,control_change,105,0,4,,,,,,,,,0,64,0,,
20280,note_on,40,0,3,,,,,,,,,0,,,56,0
20280,note_on,0,0,3,,,,,,,,,0,,,49,48
20280,control_change,15,0,4,,,,,,,,,0,64,127,,
20320,note_on,40,0,3,,,,,,,,,0,,,49,0
20320,note_on,0,0,3,,,,,,,,,0,,,55,49
20360,note_on,40,0,3,,,,,,,,,0,,,55,0
20360,note_on,0,0,3,,,,,,,,,0,,,58,49
20385,control_change,105,0,4,,,,,,,,,0,64,0,,
20400,note_on,0,0,3,,,,,,,,,0,,,48,50
20400,note_on,240,0,1,,,,,,,,,0,,,77,0
20400,note_on,40,0,3,,,,,,,,,0,,,58,0
20400,note_on,0,0,1,,,,,,,,,0,,,75,60
20400,control_change,15,0,4,,,,,,,,,0,64,127,,
20440,note_on,40,0,3,,,,,,,,,0,,,48,0
20440,note_on,0,0,3,,,,,,,,,0,,,56,51
20480,note_on,40,0,3,,,,,,,,,0,,,56,0
20480,note_on,0,0,3,,,,,,,,,0,,,60,51
20505,control_change,105,0,4,,,,,,,,,0,64,0,,
20520,note_on,40,0,3,,,,,,,,,0,,,60,0
20520,note_on,0,0,3,,,,,,,,,0,,,48,52
20520,control_change,15,0,4,,,,,,,,,0,64,127,,
20560,note_on,0,0,3,,,,,,,,,0,,,51,52
20560,note_on,40,0,3,,,,,,,,,0,,,48,0
20600,note_on,0,0,3,,,,,,,,,0,,,56,53
20600,note_on,40,0,3,,,,,,,,,0,,,51,0
20625,control_change,105,0,4,,,,,,,,,0,64,0,,
20640,control_change,15,0,4,,,,,,,,,0,64,127,,
20640,note_on,0,0,1,,,,,,,,,0,,,73,64
20640,note_on,40,0,3,,,,,,,,,0,,,56,0
20640,note_on,0,0,3,,,,,,,,,0,,,46,54
20640,note_on,240,0,1,,,,,,,,,0,,,75,0
20680,note_on,40,0,3,,,,,,,,,0,,,46,0
20680,note_on,0,0,3,,,,,,,,,0,,,51,54
20720,note_on,40,0,3,,,,,,,,,0,,,51,0
20720,note_on,0,0,3,,,,,,,,,0,,,56,55
20745,control_change,105,0,4,,,,,,,,,0,64,0,,
20760,note_on,40,0,3,,,,,,,,,0,,,56,0
20760,note_on,0,0,3,,,,,,,,,0,,,46,55
20760,control_change,15,0,4,,,,,,,,,0,64,127,,
20800,note_on,40,0,3,,,,,,,,,0,,,46,0
20800,note_on,0,0,3,,,,,,,,,0,,,51,56
20840,note_on,0,0,3,,,,,,,,,0,,,55,57
20840,note_on,40,0,3,,,,,,,,,0,,,51,0
20865,control_change,105,0,4,,,,,,,,,0,64,0,,
20880,note_on,40,0,3,,,,,,,,,0,,,55,0
20880,control_change,15,0,4,,,,,,,,,0,64,127,,
20880,note_on,0,0,1,,,,,,,,,0,,,72,67
20880,note_on,240,0,1,,,,,,,,,0,,,73,0
20880,note_on,0,0,3,,,,,,,,,0,,,44,57
20920,note_on,0,0,3,,,,,,,,,0,,,51,58
20920,note_on,40,0,3,,,,,,,,,0,,,44,0
20960,note_on,0,0,3,,,,,,,,,0,,,58,58
20960,note_on,40,0,3,,,,,,,,,0,,,51,0
20985,control_change,105,0,4,,,,,,,,,0,64,0,,
21000,note_on,40,0,3,,,,,,,,,0,,,58,0
21000,note_on,0,0,3,,,,,,,,,0,,,44,59
21000,control_change,15,0,4,,,,,,,,,0,64,127,,
21040,note_on,40,0,3,,,,,,,,,0,,,44,0
21040,note_on,0,0,3,,,,,,,,,0,,,51,59
21080,note_on,0,0,3,,,,,,,,,0,,,56,60
21080,note_on,40,0,3,,,,,,,,,0,,,51,0
21105,control_change,105,0,4,,,,,,,,,0,64,0,,
21120,note_on,40,0,3,,,,,,,,,0,,,56,0
21120,note_on,0,0,1,,,,,,,,,0,,,70,70
21120,note_on,240,0,1,,,,,,,,,0,,,72,0
21120,note_on,0,0,3,,,,,,,,,0,,,49,60
21120,control_change,15,0,4,,,,,,,,,0,64,127,,
21160,note_on,0,0,3,,,,,,,,,0,,,56,60
21160,note_on,40,0,3,,,,,,,,,0,,,49,0
21200,note_on,40,0,3,,,,,,,,,0,,,56,0
21200,note_on,0,0,3,,,,,,,,,0,,,58,60
21225,control_change,105,0,4,,,,,,,,,0,64,0,,
21240,note_on,40,0,3,,,,,,,,,0,,,58,0
21240,note_on,0,0,3,,,,,,,,,0,,,53,60
21240,control_change,15,0,4,,,,,,,,,0,64,127,,
21240,note_on,0,0,1,,,,,,,,,0,,,73,70
21240,note_on,120,0,1,,,,,,,,,0,,,70,0
21280,note_on,40,0,3,,,,,,,,,0,,,53,0
21280,note_on,0,0,3,,,,,,,,,0,,,56,60
21320,note_on,0,0,3,,,,,,,,,0,,,61,60
21320,note_on,40,0,3,,,,,,,,,0,,,56,0
21345,control_change,105,0,4,,,,,,,,,0,64,0,,
21360,note_on,0,0,1,,,,,,,,,0,,,72,70
21360,note_on,120,0,1,,,,,,,,,0,,,73,0
21360,note_on,0,0,3,,,,,,,,,0,,,51,60
21360,note_on,40,0,3,,,,,,,,,0,,,61,0
21360,control_change,15,0,4,,,,,,,,,0,64,127,,
21400,note_on,0,0,3,,,,,,,,,0,,,56,60
21400,note_on,40,0,3,,,,,,,,,0,,,51,0
21440,note_on,0,0,3,,,,,,,,,0,,,60,60
21440,note_on,40,0,3,,,,,,,,,0,,,56,0
21465,control_change,105,0,4,,,,,,,,,0,64,0,,
21480,note_on,40,0,3,,,,,,,,,0,,,60,0
21480,note_on,120,0,1,,,,,,,,,0,,,72,0
21480,note_on,0,0,1,,,,,,,,,0,,,70,70
21480,control_change,15,0,4,,,,,,,,,0,64,127,,
21480,note_on,0,0,3,,,,,,,,,0,,,51,60
21520,note_on,0,0,3,,,,,,,,,0,,,55,60
21520,note_on,40,0,3,,,,,,,,,0,,,51,0
21560,note_on,0,0,3,,,,,,,,,0,,,58,60
21560,note_on,40,0,3,,,,,,,,,0,,,55,0
21585,control_change,105,0,4,,,,,,,,,0,64,0,,
21600,note_on,0,0,3,,,,,,,,,0,,,44,60
21600,control_change,15,0,4,,,,,,,,,0,64,127,,
21600,note_on,40,0,3,,,,,,,,,0,,,58,0
21600,note_on,0,0,1,,,,,,,,,0,,,68,70
21600,note_on,120,0,1,,,,,,,,,0,,,70,0
21640,note_on,40,0,3,,,,,,,,,0,,,44,0
21640,note_on,0,0,3,,,,,,,,,0,,,48,60
21680,note_on,0,0,3,,,,,,,,,0,,,56,60
21680,note_on,40,0,3,,,,,,,,,0,,,48,0
21705,control_change,105,0,4,,,,,,,,,0,64,0,,
21720,control_change,15,0,4,,,,,,,,,0,64,127,,
21720,note_on,0,0,3,,,,,,,,,0,,,48,60
21720,note_on,40,0,3,,,,,,,,,0,,,56,0
21760,note_on,40,0,3,,,,,,,,,0,,,48,0
21760,note_on,0,0,3,,,,,,,,,0,,,51,60
21800,note_on,0,0,3,,,,,,,,,0,,,56,60
21800,note_on,40,0,3,,,,,,,,,0,,,51,0
21825,control_change,105,0,4,,,,,,,,,0,64,0,,
21840,control_change,15,0,4,,,,,,,,,0,64,127,,
21840,note_on,240,0,1,,,,,,,,,0,,,68,0
21840,note_on,40,0,3,,,,,,,,,0,,,56,0
21840,note_on,0,0,3,,,,,,,,,0,,,47,60
21880,note_on,40,0,3,,,,,,,,,0,,,47,0
21880,note_on,0,0,3,,,,,,,,,0,,,50,60
21920,note_on,0,0,3,,,,,,,,,0,,,56,60
21920,note_on,40,0,3,,,,,,,,,0,,,50,0
21945,control_change,105,0,4,,,,,,,,,0,64,0,,
21960,note_on,120,0,1,,,,,,,,,0,,,68,70
21960,control_change,15,0,4,,,,,,,,,0,64,127,,
21960,note_on,0,0,3,,,,,,,,,0,,,48,60
21960,note_on,40,0,3,,,,,,,,,0,,,56,0
22000,note_on,40,0,3,,,,,,,,,0,,,48,0
22000,note_on,0,0,3,,,,,,,,,0,,,51,60
22040,note_on,40,0,3,,,,,,,,,0,,,51,0
22040,note_on,0,0,3,,,,,,,,,0,,,56,60
22050,note_on,0,0,1,,,,,,,,,0,,,72,70
22050,note_on,90,0,1,,,,,,,,,0,,,68,0
22065,control_change,105,0,4,,,,,,,,,0,64,0,,
22080,note_on,0,0,1,,,,,,,,,0,,,75,70
22080,note_on,0,0,3,,,,,,,,,0,,,44,60
22080,control_change,15,0,4,,,,,,,,,0,64,127,,
22080,note_on,30,0,1,,,,,,,,,0,,,72,0
22080,note_on,40,0,3,,,,,,,,,0,,,56,0
22120,note_on,40,0,3,,,,,,,,,0,,,44,0
22120,note_on,0,0,3,,,,,,,,,0,,,48,61
22160,note_on,40,0,3,,,,,,,,,0,,,48,0
22160,note_on,0,0,3,,,,,,,,,0,,,56,63
22185,control_change,105,0,4,,,,,,,,,0,64,0,,
22200,note_on,0,0,3,,,,,,,,,0,,,48,65
22200,note_on,40,0,3,,,,,,,,,0,,,56,0
22200,control_change,15,0,4,,,,,,,,,0,64,127,,
22200,note_on,120,0,1,,,,,,,,,0,,,75,0
22200,note_on,0,0,1,,,,,,,,,0,,,63,75
22200,note_on,0,0,1,,,,,,,,,0,,,75,75
22240,note_on,40,0,3,,,,,,,,,0,,,48,0
22240,note_on,0,0,3,,,,,,,,,0,,,51,67
22280,note_on,40,0,3,,,,,,,,,0,,,51,0
22280,note_on,0,0,3,,,,,,,,,0,,,56,69
22305,control_change,105,0,4,,,,,,,,,0,64,0,,
22320,note_on,0,0,1,,,,,,,,,0,,,75,80
22320,note_on,0,0,1,,,,,,,,,0,,,63,80
22320,note_on,0,0,1,,,,,,,,,0,,,63,0
22320,note_on,120,0,1,,,,,,,,,0,,,75,0
22320,note_on,0,0,3,,,,,,,,,0,,,47,70
22320,note_on,40,0,3,,,,,,,,,0,,,56,0
22320,control_change,15,0,4,,,,,,,,,0,64,127,,
22360,note_on,40,0,3,,,,,,,,,0,,,47,0
22360,note_on,0,0,3,,,,,,,,,0,,,50,72
22400,note_on,40,0,3,,,,,,,,,0,,,50,0
22400,note_on,0,0,3,,,,,,,,,0,,,56,74
22425,control_change,105,0,4,,,,,,,,,0,64,0,,
22440,note_on,120,0,1,,,,,,,,,0,,,75,0
22440,control_change,15,0,4,,,,,,,,,0,64,127,,
22440,note_on,0,0,1,,,,,,,,,0,,,75,86
22440,note_on,40,0,3,,,,,,,,,0,,,56,0
22440,note_on,0,0,1,,,,,,,,,0,,,63,86
22440,note_on,0,0,1,,,,,,,,,0,,,63,0
22440,note_on,0,0,3,,,,,,,,,0,,,48,76
22480,note_on,0,0,3,,,,,,,,,0,,,51,78
22480,note_on,40,0,3,,,,,,,,,0,,,48,0
22520,note_on,40,0,3,,,,,,,,,0,,,51,0
22520,note_on,0,0,3,,,,,,,,,0,,,56,79
22545,control_change,105,0,4,,,,,,,,,0,64,0,,
22560,note_on,0,0,1,,,,,,,,,0,,,63,0
22560,note_on,120,0,1,,,,,,,,,0,,,75,0
22560,note_on,0,0,1,,,,,,,,,0,,,76,90
22560,control_change,15,0,4,,,,,,,,,0,64,127,,
22560,note_on,0,0,1,,,,,,,,,0,,,64,90
22560,note_on,0,0,3,,,,,,,,,0,,,49,80
22560,note_on,40,0,3,,,,,,,,,0,,,56,0
22600,note_on,40,0,3,,,,,,,,,0,,,49,0
22600,note_on,0,0,3,,,,,,,,,0,,,52,79
22640,note_on,40,0,3,,,,,,,,,0,,,52,0
22640,note_on,0,0,3,,,,,,,,,0,,,56,77
22665,control_change,105,0,4,,,,,,,,,0,64,0,,
22680,control_change,15,0,4,,,,,,,,,0,64,127,,
22680,note_on,0,0,3,,,,,,,,,0,,,49,75
22680,note_on,40,0,3,,,,,,,,,0,,,56,0
22720,note_on,40,0,3,,,,,,,,,0,,,49,0
22720,note_on,0,0,3,,,,,,,,,0,,,52,74
22760,note_on,0,0,3,,,,,,,,,0,,,58,72
22760,note_on,40,0,3,,,,,,,,,0,,,52,0
22785,control_change,105,0,4,,,,,,,,,0,64,0,,
22800,note_on,0,0,1,,,,,,,,,0,,,75,80
22800,note_on,240,0,1,,,,,,,,,0,,,76,0
22800,note_on,0,0,1,,,,,,,,,0,,,64,0
22800,note_on,0,0,3,,,,,,,,,0,,,47,70
22800,control_change,15,0,4,,,,,,,,,0,64,127,,
22800,note_on,40,0,3,,,,,,,,,0,,,58,0
22800,note_on,0,0,1,,,,,,,,,0,,,63,80
22840,note_on,0,0,3,,,,,,,,,0,,,54,68
22840,note_on,40,0,3,,,,,,,,,0,,,47,0
22880,note_on,40,0,3,,,,,,,,,0,,,54,0
22880,note_on,0,0,3,,,,,,,,,0,,,59,67
22905,control_change,105,0,4,,,,,,,,,0,64,0,,
22920,control_change,15,0,4,,,,,,,,,0,64,127,,
22920,note_on,40,0,3,,,,,,,,,0,,,59,0
22920,note_on,0,0,3,,,,,,,,,0,,,47,65
22960,note_on,0,0,3,,,,,,,,,0,,,54,63
22960,note_on,40,0,3,,,,,,,,,0,,,47,0
23000,note_on,0,0,3,,,,,,,,,0,,,59,61
23000,note_on,40,0,3,,,,,,,,,0,,,54,0
23025,control_change,105,0,4,,,,,,,,,0,64,0,,
23040,note_on,0,0,3,,,,,,,,,0,,,52,60
23040,note_on,0,0,1,,,,,,,,,0,,,63,0
23040,note_on,0,0,1,,,,,,,,,0,,,73,70
23040,control_change,15,0,4,,,,,,,,,0,64,127,,
23040,note_on,40,0,3,,,,,,,,,0,,,59,0
23040,note_on,240,0,1,,,,,,,,,0,,,75,0
23080,note_on,0,0,3,,,,,,,,,0,,,56,58
23080,note_on,40,0,3,,,,,,,,,0,,,52,0
23120,note_on,0,0,3,,,,,,,,,0,,,61,56
23120,note_on,40,0,3,,,,,,,,,0,,,56,0
23145,control_change,105,0,4,,,,,,,,,0,64,0,,
23160,note_on,0,0,3,,,,,,,,,0,,,52,54
23160,note_on,40,0,3,,,,,,,,,0,,,61,0
23160,control_change,15,0,4,,,,,,,,,0,64,127,,
23200,note_on,0,0,3,,,,,,,,,0,,,54,53
23200,note_on,40,0,3,,,,,,,,,0,,,52,0
23240,note_on,0,0,3,,,,,,,,,0,,,58,51
23240,note_on,40,0,3,,,,,,,,,0,,,54,0
23265,control_change,105,0,4,,,,,,,,,0,64,0,,
23280,control_change,15,0,4,,,,,,,,,0,64,127,,
23280,note_on,0,0,3,,,,,,,,,0,,,51,49
23280,note_on,40,0,3,,,,,,,,,0,,,58,0
23280,note_on,240,0,1,,,,,,,,,0,,,73,0
23280,note_on,0,0,1,,,,,,,,,0,,,71,59
23320,note_on,0,0,3,,,,,,,,,0,,,54,47
23320,note_on,40,0,3,,,,,,,,,0,,,51,0
23360,note_on,0,0,3,,,,,,,,,0,,,59,46
23360,note_on,40,0,3,,,,,,,,,0,,,54,0
23385,control_change,105,0,4,,,,,,,,,0,64,0,,
23400,note_on,40,0,3,,,,,,,,,0,,,59,0
23400,control_change,15,0,4,,,,,,,,,0,64,127,,
23400,note_on,0,0,3,,,,,,,,,0,,,51,44
23440,note_on,40,0,3,,,,,,,,,0,,,51,0
23440,note_on,0,0,3,,,,,,,,,0,,,55,42
23460,note_on,180,0,1,,,,,,,,,0,,,71,0
23460,note_on,0,0,1,,,,,,,,,0,,,70,51
23480,note_on,40,0,3,,,,,,,,,0,,,55,0
23480,note_on,0,0,3,,,,,,,,,0,,,62,41
23505,control_change,105,0,4,,,,,,,,,0,64,0,,
23520,note_on,40,0,3,,,,,,,,,0,,,62,0
23520,note_on,0,0,3,,,,,,,,,0,,,52,40
23520,note_on,0,0,1,,,,,,,,,0,,,68,50
23520,note_on,60,0,1,,,,,,,,,0,,,70,0
23520,control_change,15,0,4,,,,,,,,,0,64,127,,
23560,note_on,0,0,3,,,,,,,,,0,,,56,40
23560,note_on,40,0,3,,,,,,,,,0,,,52,0
23600,note_on,0,0,3,,,,,,,,,0,,,59,40
23600,note_on,40,0,3,,,,,,,,,0,,,56,0
23625,control_change,105,0,4,,,,,,,,,0,64,0,,
23625,note_on,105,0,1,,,,,,,,,0,,,68,50
23640,note_on,0,0,3,,,,,,,,,0,,,56,40
23640,note_on,40,0,3,,,,,,,,,0,,,59,0
23640,note_on,0,0,1,,,,,,,,,0,,,76,50
23640,note_on,0,0,1,,,,,,,,,0,,,68,0
23640,note_on,15,0,1,,,,,,,,,0,,,68,0
23640,control_change,15,0,4,,,,,,,,,0,64,127,,
23680,note_on,40,0,3,,,,,,,,,0,,,56,0
23680,note_on,0,0,3,,,,,,,,,0,,,59,40
23720,note_on,40,0,3,,,,,,,,,0,,,59,0
23720,note_on,0,0,3,,,,,,,,,0,,,64,40
23745,control_change,105,0,4,,,,,,,,,0,64,0,,
23760,control_change,15,0,4,,,,,,,,,0,64,127,,
23760,note_on,40,0,3,,,,,,,,,0,,,64,0
23760,note_on,0,0,3,,,,,,,,,0,,,54,40
23760,note_on,120,0,1,,,,,,,,,0,,,76,0
23760,note_on,0,0,1,,,,,,,,,0,,,75,50
23800,note_on,40,0,3,,,,,,,,,0,,,54,0
23800,note_on,0,0,3,,,,,,,,,0,,,59,40
23840,note_on,40,0,3,,,,,,,,,0,,,59,0
23840,note_on,0,0,3,,,,,,,,,0,,,63,40
23865,control_change,105,0,4,,,,,,,,,0,64,0,,
23880,control_change,15,0,4,,,,,,,,,0,64,127,,
23880,note_on,40,0,3,,,,,,,,,0,,,63,0
23880,note_on,0,0,3,,,,,,,,,0,,,54,40
23880,note_on,0,0,1,,,,,,,,,0,,,73,50
23880,note_on,120,0,1,,,,,,,,,0,,,75,0
23920,note_on,0,0,3,,,,,,,,,0,,,58,40
23920,note_on,40,0,3,,,,,,,,,0,,,54,0
23960,note_on,40,0,3,,,,,,,,,0,,,58,0
23960,note_on,0,0,3,,,,,,,,,0,,,61,40
23985,control_change,105,0,4,,,,,,,,,0,64,0,,
24000,control_change,15,0,4,,,,,,,,,0,64,127,,
24000,note_on,40,0,3,,,,,,,,,0,,,61,0
24000,note_on,0,0,3,,,,,,,,,0,,,47,40
24000,note_on,120,0,1,,,,,,,,,0,,,73,0
24000,note_on,0,0,1,,,,,,,,,0,,,71,50
24040,note_on,0,0,3,,,,,,,,,0,,,51,40
24040,note_on,40,0,3,,,,,,,,,0,,,47,0
24080,note_on,40,0,3,,,,,,,,,0,,,51,0
24080,note_on,0,0,3,,,,,,,,,0,,,59,40
24105,control_change,105,0,4,,,,,,,,,0,64,0,,
24120,control_change,15,0,4,,,,,,,,,0,64,127,,
24120,note_on,40,0,3,,,,,,,,,0,,,59,0
24120,note_on,0,0,3,,,,,,,,,0,,,51,40
24160,note_on,40,0,3,,,,,,,,,0,,,51,0
24160,note_on,0,0,3,,,,,,,,,0,,,54,40
24200,note_on,40,0,3,,,,,,,,,0,,,54,0
24200,note_on,0,0,3,,,,,,,,,0,,,59,40
24225,control_change,105,0,4,,,,,,,,,0,64,0,,
24240,note_on,40,0,3,,,,,,,,,0,,,59,0
24240,note_on,0,0,3,,,,,,,,,0,,,50,40
24240,control_change,15,0,4,,,,,,,,,0,64,127,,
24280,note_on,40,0,3,,,,,,,,,0,,,50,0
24280,note_on,0,0,3,,,,,,,,,0,,,53,40
24320,note_on,40,0,3,,,,,,,,,0,,,53,0
24320,note_on,0,0,3,,,,,,,,,0,,,59,40
24345,control_change,105,0,4,,,,,,,,,0,64,0,,
24360,note_on,40,0,3,,,,,,,,,0,,,59,0
24360,note_on,0,0,3,,,,,,,,,0,,,51,40
24360,control_change,15,0,4,,,,,,,,,0,64,127,,
24360,note_on,360,0,1,,,,,,,,,0,,,71,0
24360,note_on,0,0,1,,,,,,,,,0,,,71,50
24400,note_on,40,0,3,,,,,,,,,0,,,51,0
24400,note_on,0,0,3,,,,,,,,,0,,,54,40
24440,note_on,0,0,3,,,,,,,,,0,,,59,40
24440,note_on,40,0,3,,,,,,,,,0,,,54,0
24450,note_on,90,0,1,,,,,,,,,0,,,71,0
24450,note_on,0,0,1,,,,,,,,,0,,,75,50
24465,control_change,105,0,4,,,,,,,,,0,64,0,,
24480,note_on,0,0,3,,,,,,,,,0,,,47,40
24480,note_on,40,0,3,,,,,,,,,0,,,59,0
24480,control_change,15,0,4,,,,,,,,,0,64,127,,
24480,note_on,30,0,1,,,,,,,,,0,,,75,0
24480,note_on,0,0,1,,,,,,,,,0,,,66,50
24480,note_on,0,0,1,,,,,,,,,0,,,78,50
24520,note_on,0,0,3,,,,,,,,,0,,,51,40
24520,note_on,40,0,3,,,,,,,,,0,,,47,0
24560,note_on,0,0,3,,,,,,,,,0,,,54,41
24560,note_on,40,0,3,,,,,,,,,0,,,51,0
24585,control_change,105,0,4,,,,,,,,,0,64,0,,
24600,control_change,15,0,4,,,,,,,,,0,64,127,,
24600,note_on,0,0,1,,,,,,,,,0,,,66,52
24600,note_on,0,0,1,,,,,,,,,0,,,66,0
24600,note_on,0,0,1,,,,,,,,,0,,,78,52
24600,note_on,40,0,3,,,,,,,,,0,,,54,0
24600,note_on,0,0,3,,,,,,,,,0,,,47,42
24600,note_on,120,0,1,,,,,,,,,0,,,78,0
24640,note_on,0,0,3,,,,,,,,,0,,,51,43
24640,note_on,40,0,3,,,,,,,,,0,,,47,0
24680,note_on,0,0,3,,,,,,,,,0,,,54,44
24680,note_on,40,0,3,,,,,,,,,0,,,51,0
24705,control_change,105,0,4,,,,,,,,,0,64,0,,
24720,note_on,40,0,3,,,,,,,,,0,,,54,0
24720,note_on,0,0,3,,,,,,,,,0,,,46,45
24720,control_change,15,0,4,,,,,,,,,0,64,127,,
24720,note_on,120,0,1,,,,,,,,,0,,,78,0
24720,note_on,0,0,1,,,,,,,,,0,,,66,0
24720,note_on,0,0,1,,,,,,,,,0,,,67,55
24720,note_on,0,0,1,,,,,,,,,0,,,79,55
24760,note_on,0,0,3,,,,,,,,,0,,,49,46
24760,note_on,40,0,3,,,,,,,,,0,,,46,0
24800,note_on,0,0,3,,,,,,,,,0,,,51,47
24800,note_on,40,0,3,,,,,,,,,0,,,49,0
24825,control_change,105,0,4,,,,,,,,,0,64,0,,
24840,note_on,0,0,3,,,,,,,,,0,,,44,47
24840,note_on,40,0,3,,,,,,,,,0,,,51,0
24840,note_on,0,0,1,,,,,,,,,0,,,67,0
24840,note_on,120,0,1,,,,,,,,,0,,,79,0
24840,note_on,0,0,1,,,,,,,,,0,,,68,57
24840,control_change,15,0,4,,,,,,,,,0,64,127,,
24840,note_on,0,0,1,,,,,,,,,0,,,80,57
24880,note_on,40,0,3,,,,,,,,,0,,,44,0
24880,note_on,0,0,3,,,,,,,,,0,,,49,48
24920,note_on,0,0,3,,,,,,,,,0,,,51,49
24920,note_on,40,0,3,,,,,,,,,0,,,49,0
24945,control_change,105,0,4,,,,,,,,,0,64,0,,
24960,note_on,0,0,3,,,,,,,,,0,,,43,50
24960,note_on,40,0,3,,,,,,,,,0,,,51,0
24960,note_on,0,0,1,,,,,,,,,0,,,82,60
24960,note_on,0,0,1,,,,,,,,,0,,,70,60
24960,control_change,15,0,4,,,,,,,,,0,64,127,,
24960,note_on,120,0,1,,,,,,,,,0,,,80,0
24960,note_on,0,0,1,,,,,,,,,0,,,68,0
25000,note_on,40,0,3,,,,,,,,,0,,,43,0
25000,note_on,0,0,3,,,,,,,,,0,,,49,51
25040,note_on,40,0,3,,,,,,,,,0,,,49,0
25040,note_on,0,0,3,,,,,,,,,0,,,51,52
25065,control_change,105,0,4,,,,,,,,,0,64,0,,
25080,note_on,40,0,3,,,,,,,,,0,,,51,0
25080,control_change,15,0,4,,,,,,,,,0,64,127,,
25080,note_on,0,0,3,,,,,,,,,0,,,43,53
25080,note_on,0,0,1,,,,,,,,,0,,,85,63
25080,note_on,0,0,1,,,,,,,,,0,,,70,0
25080,note_on,120,0,1,,,,,,,,,0,,,82,0
25080,note_on,0,0,1,,,,,,,,,0,,,73,63
25120,note_on,0,0,3,,,,,,,,,0,,,46,54
25120,note_on,40,0,3,,,,,,,,,0,,,43,0
25160,note_on,0,0,3,,,,,,,,,0,,,51,55
25160,note_on,40,0,3,,,,,,,,,0,,,46,0
25185,control_change,105,0,4,,,,,,,,,0,64,0,,
25200,note_on,0,0,1,,,,,,,,,0,,,83,65
25200,control_change,15,0,4,,,,,,,,,0,64,127,,
25200,note_on,120,0,1,,,,,,,,,0,,,85,0
25200,note_on,0,0,1,,,,,,,,,0,,,73,0
25200,note_on,0,0,1,,,,,,,,,0,,,71,65
25200,note_on,40,0,3,,,,,,,,,0,,,51,0
25200,note_on,0,0,3,,,,,,,,,0,,,44,55
25240,note_on,0,0,3,,,,,,,,,0,,,47,56
25240,note_on,40,0,3,,,,,,,,,0,,,44,0
25280,note_on,0,0,3,,,,,,,,,0,,,51,57
25280,note_on,40,0,3,,,,,,,,,0,,,47,0
25305,control_change,105,0,4,,,,,,,,,0,64,0,,
25320,note_on,0,0,1,,,,,,,,,0,,,82,68
25320,note_on,120,0,1,,,,,,,,,0,,,83,0
25320,control_change,15,0,4,,,,,,,,,0,64,127,,
25320,note_on,0,0,1,,,,,,,,,0,,,71,0
25320,note_on,0,0,3,,,,,,,,,0,,,49,58
25320,note_on,0,0,1,,,,,,,,,0,,,70,68
25320,note_on,40,0,3,,,,,,,,,0,,,51,0
25360,note_on,40,0,3,,,,,,,,,0,,,49,0
25360,note_on,0,0,3,,,,,,,,,0,,,52,59
25400,note_on,40,0,3,,,,,,,,,0,,,52,0
25400,note_on,0,0,3,,,,,,,,,0,,,58,60
25410,note_on,0,0,1,,,,,,,,,0,,,70,0
25410,note_on,90,0,1,,,,,,,,,0,,,82,0
25410,note_on,0,0,1,,,,,,,,,0,,,68,70
25410,note_on,0,0,1,,,,,,,,,0,,,80,70
25425,control_change,105,0,4,,,,,,,,,0,64,0,,
25440,control_change,15,0,4,,,,,,,,,0,64,127,,
25440,note_on,0,0,1,,,,,,,,,0,,,67,70
25440,note_on,40,0,3,,,,,,,,,0,,,58,0
25440,note_on,0,0,3,,,,,,,,,0,,,51,60
25440,note_on,0,0,1,,,,,,,,,0,,,79,70
25440,note_on,0,0,1,,,,,,,,,0,,,68,0
25440,note_on,30,0,1,,,,,,,,,0,,,80,0
25480,note_on,40,0,3,,,,,,,,,0,,,51,0
25480,note_on,0,0,3,,,,,,,,,0,,,58,60
25520,note_on,40,0,3,,,,,,,,,0,,,58,0
25520,note_on,0,0,3,,,,,,,,,0,,,61,60
25545,control_change,105,0,4,,,,,,,,,0,64,0,,
25560,note_on,120,0,1,,,,,,,,,0,,,79,0
25560,note_on,0,0,1,,,,,,,,,0,,,67,0
25560,control_change,15,0,4,,,,,,,,,0,64,127,,
25560,note_on,40,0,3,,,,,,,,,0,,,61,0
25560,note_on,0,0,3,,,,,,,,,0,,,51,60
25560,note_on,0,0,1,,,,,,,,,0,,,67,70
25560,note_on,0,0,1,,,,,,,,,0,,,79,70
25600,note_on,0,0,3,,,,,,,,,0,,,58,60
25600,note_on,40,0,3,,,,,,,,,0,,,51,0
25640,note_on,40,0,3,,,,,,,,,0,,,58,0
25640,note_on,0,0,3,,,,,,,,,0,,,61,60
25665,control_change,105,0,4,,,,,,,,,0,64,0,,
25680,note_on,0,0,3,,,,,,,,,0,,,51,60
25680,note_on,40,0,3,,,,,,,,,0,,,61,0
25680,control_change,15,0,4,,,,,,,,,0,64,127,,
25680,note_on,120,0,1,,,,,,,,,0,,,79,0
25680,note_on,0,0,1,,,,,,,,,0,,,67,0
25680,note_on,0,0,1,,,,,,,,,0,,,68,70
25680,note_on,0,0,1,,,,,,,,,0,,,80,70
25720,note_on,0,0,3,,,,,,,,,0,,,58,60
25720,note_on,40,0,3,,,,,,,,,0,,,51,0
25740,note_on,0,0,1,,,,,,,,,0,,,68,0
25740,note_on,0,0,1,,,,,,,,,0,,,67,70
25740,note_on,0,0,1,,,,,,,,,0,,,79,70
25740,note_on,60,0,1,,,,,,,,,0,,,80,0
25760,note_on,0,0,3,,,,,,,,,0,,,61,60
25760,note_on,40,0,3,,,,,,,,,0,,,58,0
25785,control_change,105,0,4,,,,,,,,,0,64,0,,
25800,note_on,0,0,1,,,,,,,,,0,,,77,70
25800,note_on,0,0,1,,,,,,,,,0,,,65,70
25800,note_on,0,0,1,,,,,,,,,0,,,67,0
25800,note_on,60,0,1,,,,,,,,,0,,,79,0
25800,note_on,0,0,3,,,,,,,,,0,,,51,60
25800,note_on,40,0,3,,,,,,,,,0,,,61,0
25800,control_change,15,0,4,,,,,,,,,0,64,127,,
25840,note_on,0,0,3,,,,,,,,,0,,,58,60
25840,note_on,40,0,3,,,,,,,,,0,,,51,0
25860,note_on,0,0,1,,,,,,,,,0,,,65,0
25860,note_on,0,0,1,,,,,,,,,0,,,67,70
25860,note_on,0,0,1,,,,,,,,,0,,,79,70
25860,note_on,60,0,1,,,,,,,,,0,,,77,0
25880,note_on,40,0,3,,,,,,,,,0,,,58,0
25880,note_on,0,0,3,,,,,,,,,0,,,61,60
25905,control_change,105,0,4,,,,,,,,,0,64,0,,
25920,note_on,0,0,1,,,,,,,,,0,,,80,70
25920,note_on,0,0,1,,,,,,,,,0,,,68,70
25920,note_on,0,0,1,,,,,,,,,0,,,67,0
25920,note_on,60,0,1,,,,,,,,,0,,,79,0
25920,note_on,0,0,3,,,,,,,,,0,,,56,60
25920,note_on,40,0,3,,,,,,,,,0,,,61,0
25920,control_change,15,0,4,,,,,,,,,0,64,127,,
25960,note_on,0,0,3,,,,,,,,,0,,,60,60
25960,note_on,40,0,3,,,,,,,,,0,,,56,0
26000,note_on,0,0,3,,,,,,,,,0,,,63,60
26000,note_on,40,0,3,,,,,,,,,0,,,60,0
26025,control_change,105,0,4,,,,,,,,,0,64,0,,
26040,control_change,15,0,4,,,,,,,,,0,64,127,,
26040,note_on,26040,0,2,,,,,,,,,0,,,60,60
26040,note_on,40,0,3,,,,,,,,,0,,,63,0
26080,note_on,40,0,2,,,,,,,,,0,,,60,0
26080,note_on,0,0,2,,,,,,,,,0,,,63,60
26120,note_on,40,0,2,,,,,,,,,0,,,63,0
26120,note_on,0,0,2,,,,,,,,,0,,,68,60
26145,control_change,105,0,4,,,,,,,,,0,64,0,,
26160,note_on,40,0,2,,,,,,,,,0,,,68,0
26160,note_on,0,0,2,,,,,,,,,0,,,59,60
26160,control_change,15,0,4,,,,,,,,,0,64,127,,
26200,note_on,0,0,2,,,,,,,,,0,,,62,60
26200,note_on,40,0,2,,,,,,,,,0,,,59,0
26240,note_on,40,0,2,,,,,,,,,0,,,62,0
26240,note_on,0,0,2,,,,,,,,,0,,,68,60
26265,control_change,105,0,4,,,,,,,,,0,64,0,,
26280,note_on,0,0,1,,,,,,,,,0,,,68,0
26280,note_on,360,0,1,,,,,,,,,0,,,80,0
26280,note_on,0,0,2,,,,,,,,,0,,,60,60
26280,control_change,15,0,4,,,,,,,,,0,64,127,,
26280,note_on,0,0,1,,,,,,,,,0,,,80,70
26280,note_on,40,0,2,,,,,,,,,0,,,68,0
26320,note_on,40,0,2,,,,,,,,,0,,,60,0
26320,note_on,0,0,2,,,,,,,,,0,,,63,60
26360,note_on,40,0,2,,,,,,,,,0,,,63,0
26360,note_on,0,0,2,,,,,,,,,0,,,68,60
26370,note_on,90,0,1,,,,,,,,,0,,,80,0
26370,note_on,0,0,1,,,,,,,,,0,,,84,70
26385,control_change,105,0,4,,,,,,,,,0,64,0,,
26400,note_on,0,0,1,,,,,,,,,0,,,87,70
26400,note_on,40,0,2,,,,,,,,,0,,,68,0
26400,note_on,0,0,2,,,,,,,,,0,,,56,60
26400,note_on,0,0,1,,,,,,,,,0,,,75,70
26400,note_on,30,0,1,,,,,,,,,0,,,84,0
26400,control_change,15,0,4,,,,,,,,,0,64,127,,
26440,note_on,40,0,2,,,,,,,,,0,,,56,0
26440,note_on,0,0,2,,,,,,,,,0,,,60,61
26480,note_on,40,0,2,,,,,,,,,0,,,60,0
26480,note_on,0,0,2,,,,,,,,,0,,,68,63
26505,control_change,105,0,4,,,,,,,,,0,64,0,,
26520,note_on,0,0,1,,,,,,,,,0,,,75,75
26520,note_on,0,0,1,,,,,,,,,0,,,87,0
26520,note_on,120,0,1,,,,,,,,,0,,,75,0
26520,control_change,15,0,4,,,,,,,,,0,64,127,,
26520,note_on,40,0,2,,,,,,,,,0,,,68,0
26520,note_on,0,0,1,,,,,,,,,0,,,87,75
26520,note_on,0,0,2,,,,,,,,,0,,,60,65
26560,note_on,0,0,2,,,,,,,,,0,,,63,67
26560,note_on,40,0,2,,,,,,,,,0,,,60,0
26600,note_on,40,0,2,,,,,,,,,0,,,63,0
26600,note_on,0,0,2,,,,,,,,,0,,,68,69
26625,control_change,105,0,4,,,,,,,,,0,64,0,,
26640,note_on,40,0,2,,,,,,,,,0,,,68,0
26640,note_on,0,0,2,,,,,,,,,0,,,59,70
26640,control_change,15,0,4,,,,,,,,,0,64,127,,
26640,note_on,0,0,1,,,,,,,,,0,,,87,80
26640,note_on,0,0,1,,,,,,,,,0,,,87,0
26640,note_on,120,0,1,,,,,,,,,0,,,75,0
26640,note_on,0,0,1,,,,,,,,,0,,,75,80
26680,note_on,40,0,2,,,,,,,,,0,,,59,0
26680,note_on,0,0,2,,,,,,,,,0,,,62,72
26720,note_on,0,0,2,,,,,,,,,0,,,68,74
26720,note_on,40,0,2,,,,,,,,,0,,,62,0
26745,control_change,105,0,4,,,,,,,,,0,64,0,,
26760,note_on,40,0,2,,,,,,,,,0,,,68,0
26760,note_on,0,0,2,,,,,,,,,0,,,60,76
26760,control_change,15,0,4,,,,,,,,,0,64,127,,
26760,note_on,120,0,1,,,,,,,,,0,,,75,0
26760,note_on,0,0,1,,,,,,,,,0,,,87,0
26760,note_on,0,0,1,,,,,,,,,0,,,87,86
26760,note_on,0,0,1,,,,,,,,,0,,,75,86
26800,note_on,40,0,2,,,,,,,,,0,,,60,0
26800,note_on,0,0,2,,,,,,,,,0,,,63,78
26840,note_on,0,0,2,,,,,,,,,0,,,68,79
26840,note_on,40,0,2,,,,,,,,,0,,,63,0
26865,control_change,105,0,4,,,,,,,,,0,64,0,,
26880,note_on,120,0,1,,,,,,,,,0,,,75,0
26880,note_on,0,0,1,,,,,,,,,0,,,87,0
26880,note_on,0,0,1,,,,,,,,,0,,,89,90
26880,note_on,0,0,1,,,,,,,,,0,,,77,90
26880,note_on,0,0,2,,,,,,,,,0,,,61,80
26880,note_on,40,0,2,,,,,,,,,0,,,68,0
26880,control_change,15,0,4,,,,,,,,,0,64,127,,
26920,note_on,40,0,2,,,,,,,,,0,,,61,0
26920,note_on,0,0,2,,,,,,,,,0,,,65,79
26960,note_on,40,0,2,,,,,,,,,0,,,65,0
26960,note_on,0,0,2,,,,,,,,,0,,,68,77
26985,control_change,105,0,4,,,,,,,,,0,64,0,,
27000,control_change,15,0,4,,,,,,,,,0,64,127,,
27000,note_on,0,0,1,,,,,,,,,0,,,79,85
27000,note_on,0,0,1,,,,,,,,,0,,,91,85
27000,note_on,0,0,1,,,,,,,,,0,,,89,0
27000,note_on,120,0,1,,,,,,,,,0,,,77,0
27000,note_on,40,0,2,,,,,,,,,0,,,68,0
27000,note_on,0,0,2,,,,,,,,,0,,,61,75
27040,note_on,40,0,2,,,,,,,,,0,,,61,0
27040,note_on,0,0,2,,,,,,,,,0,,,63,74
27080,note_on,0,0,2,,,,,,,,,0,,,70,72
27080,note_on,40,0,2,,,,,,,,,0,,,63,0
27105,control_change,105,0,4,,,,,,,,,0,64,0,,
27120,note_on,0,0,2,,,,,,,,,0,,,60,70
27120,control_change,15,0,4,,,,,,,,,0,64,127,,
27120,note_on,120,0,1,,,,,,,,,0,,,79,0
27120,note_on,0,0,1,,,,,,,,,0,,,91,0
27120,note_on,0,0,1,,,,,,,,,0,,,92,80
27120,note_on,0,0,1,,,,,,,,,0,,,80,80
27120,note_on,40,0,2,,,,,,,,,0,,,70,0
27160,note_on,40,0,2,,,,,,,,,0,,,60,0
27160,note_on,0,0,2,,,,,,,,,0,,,63,68
27200,note_on,40,0,2,,,,,,,,,0,,,63,0
27200,note_on,0,0,2,,,,,,,,,0,,,68,67
27225,control_change,105,0,4,,,,,,,,,0,64,0,,
27240,control_change,15,0,4,,,,,,,,,0,64,127,,
27240,note_on,120,0,1,,,,,,,,,0,,,80,0
27240,note_on,0,0,1,,,,,,,,,0,,,87,75
27240,note_on,0,0,1,,,,,,,,,0,,,75,75
27240,note_on,0,0,2,,,,,,,,,0,,,60,65
27240,note_on,40,0,2,,,,,,,,,0,,,68,0
27240,note_on,0,0,1,,,,,,,,,0,,,92,0
27280,note_on,40,0,2,,,,,,,,,0,,,60,0
27280,note_on,0,0,2,,,,,,,,,0,,,63,63
27320,note_on,0,0,2,,,,,,,,,0,,,68,61
27320,note_on,40,0,2,,,,,,,,,0,,,63,0
27345,control_change,105,0,4,,,,,,,,,0,64,0,,
27360,note_on,40,0,2,,,,,,,,,0,,,68,0
27360,note_on,0,0,1,,,,,,,,,0,,,75,70
27360,note_on,0,0,1,,,,,,,,,0,,,87,70
27360,note_on,0,0,1,,,,,,,,,0,,,87,0
27360,note_on,0,0,2,,,,,,,,,0,,,58,60
27360,control_change,15,0,4,,,,,,,,,0,64,127,,
27360,note_on,120,0,1,,,,,,,,,0,,,75,0
27400,note_on,0,0,2,,,,,,,,,0,,,63,58
27400,note_on,40,0,2,,,,,,,,,0,,,58,0
27440,note_on,0,0,2,,,,,,,,,0,,,67,56
27440,note_on,40,0,2,,,,,,,,,0,,,63,0
27465,control_change,105,0,4,,,,,,,,,0,64,0,,
27480,note_on,40,0,2,,,,,,,,,0,,,67,0
27480,note_on,0,0,2,,,,,,,,,0,,,58,54
27480,control_change,15,0,4,,,,,,,,,0,64,127,,
27480,note_on,0,0,1,,,,,,,,,0,,,87,0
27480,note_on,0,0,1,,,,,,,,,0,,,85,64
27480,note_on,0,0,1,,,,,,,,,0,,,73,64
27480,note_on,120,0,1,,,,,,,,,0,,,75,0
27520,note_on,0,0,2,,,,,,,,,0,,,63,53
27520,note_on,40,0,2,,,,,,,,,0,,,58,0
27540,note_on,0,0,1,,,,,,,,,0,,,85,0
27540,note_on,60,0,1,,,,,,,,,0,,,73,0
27560,note_on,0,0,2,,,,,,,,,0,,,67,51
27560,note_on,40,0,2,,,,,,,,,0,,,63,0
27585,control_change,105,0,4,,,,,,,,,0,64,0,,
27600,note_on,40,0,2,,,,,,,,,0,,,67,0
27600,note_on,0,0,1,,,,,,,,,0,,,73,59
27600,note_on,60,0,1,,,,,,,,,0,,,85,59
27600,control_change,15,0,4,,,,,,,,,0,64,127,,
27600,note_on,0,0,2,,,,,,,,,0,,,56,49
27640,note_on,40,0,2,,,,,,,,,0,,,56,0
27640,note_on,0,0,2,,,,,,,,,0,,,63,47
27680,note_on,0,0,2,,,,,,,,,0,,,68,46
27680,note_on,40,0,2,,,,,,,,,0,,,63,0
27705,control_change,105,0,4,,,,,,,,,0,64,0,,
27720,note_on,0,0,2,,,,,,,,,0,,,56,44
27720,note_on,0,0,1,,,,,,,,,0,,,84,54
27720,note_on,0,0,1,,,,,,,,,0,,,85,0
27720,note_on,120,0,1,,,,,,,,,0,,,73,0
27720,control_change,15,0,4,,,,,,,,,0,64,127,,
27720,note_on,0,0,1,,,,,,,,,0,,,72,54
27720,note_on,40,0,2,,,,,,,,,0,,,68,0
27760,note_on,0,0,2,,,,,,,,,0,,,63,42
27760,note_on,40,0,2,,,,,,,,,0,,,56,0
27780,note_on,0,0,1,,,,,,,,,0,,,84,0
27780,note_on,60,0,1,,,,,,,,,0,,,72,0
27800,note_on,0,0,2,,,,,,,,,0,,,68,41
27800,note_on,40,0,2,,,,,,,,,0,,,63,0
27825,control_change,105,0,4,,,,,,,,,0,64,0,,
27840,note_on,0,0,2,,,,,,,,,0,,,61,40
27840,control_change,15,0,4,,,,,,,,,0,64,127,,
27840,note_on,40,0,2,,,,,,,,,0,,,68,0
27840,note_on,60,0,1,,,,,,,,,0,,,82,50
27880,note_on,40,0,2,,,,,,,,,0,,,61,0
27880,note_on,0,0,2,,,,,,,,,0,,,68,40
27920,note_on,0,0,2,,,,,,,,,0,,,70,40
27920,note_on,40,0,2,,,,,,,,,0,,,68,0
27945,control_change,105,0,4,,,,,,,,,0,64,0,,
27960,control_change,15,0,4,,,,,,,,,0,64,127,,
27960,note_on,120,0,1,,,,,,,,,0,,,82,0
27960,note_on,0,0,1,,,,,,,,,0,,,85,50
27960,note_on,40,0,2,,,,,,,,,0,,,70,0
27960,note_on,0,0,2,,,,,,,,,0,,,65,40
28000,note_on,40,0,2,,,,,,,,,0,,,65,0
28000,note_on,0,0,2,,,,,,,,,0,,,68,40
28040,note_on,0,0,2,,,,,,,,,0,,,73,40
28040,note_on,40,0,2,,,,,,,,,0,,,68,0
28065,control_change,105,0,4,,,,,,,,,0,64,0,,
28080,note_on,0,0,2,,,,,,,,,0,,,63,40
28080,note_on,120,0,1,,,,,,,,,0,,,85,0
28080,note_on,40,0,2,,,,,,,,,0,,,73,0
28080,note_on,0,0,1,,,,,,,,,0,,,84,50
28080,control_change,15,0,4,,,,,,,,,0,64,127,,
28120,note_on,40,0,2,,,,,,,,,0,,,63,0
28120,note_on,0,0,2,,,,,,,,,0,,,68,40
28160,note_on,0,0,2,,,,,,,,,0,,,72,40
28160,note_on,40,0,2,,,,,,,,,0,,,68,0
28185,control_change,105,0,4,,,,,,,,,0,64,0,,
28200,note_on,120,0,1,,,,,,,,,0,,,84,0
28200,note_on,0,0,1,,,,,,,,,0,,,82,50
28200,note_on,40,0,2,,,,,,,,,0,,,72,0
28200,control_change,15,0,4,,,,,,,,,0,64,127,,
28200,note_on,0,0,2,,,,,,,,,0,,,63,40
28240,note_on,40,0,2,,,,,,,,,0,,,63,0
28240,note_on,0,0,2,,,,,,,,,0,,,67,40
28280,note_on,40,0,2,,,,,,,,,0,,,67,0
28280,note_on,0,0,2,,,,,,,,,0,,,70,40
28305,control_change,105,0,4,,,,,,,,,0,64,0,,
28320,note_on,0,0,2,,,,,,,,,0,,,56,40
28320,note_on,0,0,2,,,,,,,,,0,,,60,40
28320,control_change,15,0,4,,,,,,,,,0,64,127,,
28320,note_on,40,0,2,,,,,,,,,0,,,70,0
28320,note_on,0,0,2,,,,,,,,,0,,,68,40
28320,note_on,0,0,1,,,,,,,,,0,,,80,50
28320,note_on,120,0,1,,,,,,,,,0,,,82,0
28360,note_on,40,0,1,,,,,,,,,0,,,80,0
28360,note_on,0,0,1,,,,,,,,,0,,,63,40
28380,note_on,0,0,2,,,,,,,,,0,,,56,0
28380,note_on,60,0,2,,,,,,,,,0,,,68,0
28380,note_on,0,0,2,,,,,,,,,0,,,60,0
28380,end_of_track,0,1,2,,,,,,,,,,,,,
28400,note_on,0,0,1,,,,,,,,,0,,,68,40
28400,note_on,40,0,1,,,,,,,,,0,,,63,0
28425,control_change,105,0,4,,,,,,,,,0,64,0,,
28440,note_on,40,0,1,,,,,,,,,0,,,68,0
28440,control_change,15,0,4,,,,,,,,,0,64,127,,
28440,note_on,0,0,1,,,,,,,,,0,,,72,40
28480,note_on,0,0,1,,,,,,,,,0,,,68,40
28480,note_on,40,0,1,,,,,,,,,0,,,72,0
28520,note_on,40,0,1,,,,,,,,,0,,,68,0
28520,note_on,0,0,1,,,,,,,,,0,,,63,40
28545,control_change,105,0,4,,,,,,,,,0,64,0,,
28560,note_on,40,0,1,,,,,,,,,0,,,63,0
28560,control_change,15,0,4,,,,,,,,,0,64,127,,
28560,note_on,0,0,1,,,,,,,,,0,,,75,40
28600,note_on,0,0,1,,,,,,,,,0,,,72,40
28600,note_on,40,0,1,,,,,,,,,0,,,75,0
28640,note_on,40,0,1,,,,,,,,,0,,,72,0
28640,note_on,0,0,1,,,,,,,,,0,,,68,40
28665,control_change,105,0,4,,,,,,,,,0,64,0,,
28680,note_on,2640,0,3,,,,,,,,,0,,,56,60
28680,control_change,15,0,4,,,,,,,,,0,64,127,,
28680,note_on,0,0,1,,,,,,,,,0,,,68,40
28680,note_on,40,0,1,,,,,,,,,0,,,68,0
28720,note_on,0,0,1,,,,,,,,,0,,,72,40
28720,note_on,40,0,1,,,,,,,,,0,,,68,0
28760,note_on,0,0,1,,,,,,,,,0,,,75,40
28760,note_on,40,0,1,,,,,,,,,0,,,72,0
28770,note_on,0,0,3,,,,,,,,,0,,,60,60
28770,note_on,90,0,3,,,,,,,,,0,,,56,0
28785,control_change,105,0,4,,,,,,,,,0,64,0,,
28800,note_on,30,0,3,,,,,,,,,0,,,60,0
28800,note_on,0,0,3,,,,,,,,,0,,,63,60
28800,note_on,40,0,1,,,,,,,,,0,,,75,0
28800,note_on,0,0,1,,,,,,,,,0,,,75,40
28800,control_change,15,0,4,,,,,,,,,0,64,127,,
28840,note_on,40,0,1,,,,,,,,,0,,,75,0
28840,note_on,0,0,1,,,,,,,,,0,,,70,40
28880,note_on,40,0,1,,,,,,,,,0,,,70,0
28880,note_on,0,0,1,,,,,,,,,0,,,67,40
28905,control_change,105,0,4,,,,,,,,,0,64,0,,
28920,note_on,120,0,3,,,,,,,,,0,,,63,0
28920,note_on,0,0,3,,,,,,,,,0,,,63,60
28920,control_change,15,0,4,,,,,,,,,0,64,127,,
28920,note_on,40,0,1,,,,,,,,,0,,,67,0
28920,note_on,0,0,1,,,,,,,,,0,,,75,40
28960,note_on,40,0,1,,,,,,,,,0,,,75,0
28960,note_on,0,0,1,,,,,,,,,0,,,70,40
29000,note_on,40,0,1,,,,,,,,,0,,,70,0
29000,note_on,0,0,1,,,,,,,,,0,,,67,40
29025,control_change,105,0,4,,,,,,,,,0,64,0,,
29040,control_change,15,0,4,,,,,,,,,0,64,127,,
29040,note_on,0,0,3,,,,,,,,,0,,,63,60
29040,note_on,120,0,3,,,,,,,,,0,,,63,0
29040,note_on,40,0,1,,,,,,,,,0,,,67,0
29040,note_on,0,0,1,,,,,,,,,0,,,75,40
29080,note_on,0,0,1,,,,,,,,,0,,,72,40
29080,note_on,40,0,1,,,,,,,,,0,,,75,0
29120,note_on,40,0,1,,,,,,,,,0,,,72,0
29120,note_on,0,0,1,,,,,,,,,0,,,68,40
29145,control_change,105,0,4,,,,,,,,,0,64,0,,
29160,control_change,15,0,4,,,,,,,,,0,64,127,,
29160,note_on,40,0,1,,,,,,,,,0,,,68,0
29160,note_on,0,0,1,,,,,,,,,0,,,70,40
29160,note_on,0,0,3,,,,,,,,,0,,,63,60
29160,note_on,120,0,3,,,,,,,,,0,,,63,0
29200,note_on,40,0,1,,,,,,,,,0,,,70,0
29200,note_on,0,0,1,,,,,,,,,0,,,75,40
29240,note_on,0,0,1,,,,,,,,,0,,,79,40
29240,note_on,40,0,1,,,,,,,,,0,,,75,0
29265,control_change,105,0,4,,,,,,,,,0,64,0,,
29280,control_change,15,0,4,,,,,,,,,0,64,127,,
29280,note_on,40,0,1,,,,,,,,,0,,,79,0
29280,note_on,0,0,3,,,,,,,,,0,,,65,60
29280,note_on,120,0,3,,,,,,,,,0,,,63,0
29280,note_on,0,0,1,,,,,,,,,0,,,80,40
29320,note_on,40,0,1,,,,,,,,,0,,,80,0
29320,note_on,0,0,1,,,,,,,,,0,,,75,40
29360,note_on,0,0,1,,,,,,,,,0,,,68,40
29360,note_on,40,0,1,,,,,,,,,0,,,75,0
29385,control_change,105,0,4,,,,,,,,,0,64,0,,
29400,note_on,40,0,1,,,,,,,,,0,,,68,0
29400,control_change,15,0,4,,,,,,,,,0,64,127,,
29400,note_on,0,0,1,,,,,,,,,0,,,80,40
29440,note_on,0,0,1,,,,,,,,,0,,,74,40
29440,note_on,40,0,1,,,,,,,,,0,,,80,0
29480,note_on,0,0,1,,,,,,,,,0,,,68,40
29480,note_on,40,0,1,,,,,,,,,0,,,74,0
29505,control_change,105,0,4,,,,,,,,,0,64,0,,
29520,note_on,240,0,3,,,,,,,,,0,,,65,0
29520,note_on,0,0,1,,,,,,,,,0,,,80,40
29520,control_change,15,0,4,,,,,,,,,0,64,127,,
29520,note_on,40,0,1,,,,,,,,,0,,,68,0
29520,note_on,0,0,3,,,,,,,,,0,,,63,60
29560,note_on,0,0,1,,,,,,,,,0,,,75,40
29560,note_on,40,0,1,,,,,,,,,0,,,80,0
29600,note_on,40,0,1,,,,,,,,,0,,,75,0
29600,note_on,0,0,1,,,,,,,,,0,,,70,40
29625,control_change,105,0,4,,,,,,,,,0,64,0,,
29640,note_on,40,0,1,,,,,,,,,0,,,70,0
29640,note_on,0,0,1,,,,,,,,,0,,,70,40
29640,control_change,15,0,4,,,,,,,,,0,64,127,,
29680,note_on,0,0,1,,,,,,,,,0,,,75,40
29680,note_on,40,0,1,,,,,,,,,0,,,70,0
29720,note_on,0,0,1,,,,,,,,,0,,,79,40
29720,note_on,40,0,1,,,,,,,,,0,,,75,0
29745,control_change,105,0,4,,,,,,,,,0,64,0,,
29760,note_on,0,0,1,,,,,,,,,0,,,77,40
29760,note_on,0,0,3,,,,,,,,,0,,,61,60
29760,control_change,15,0,4,,,,,,,,,0,64,127,,
29760,note_on,240,0,3,,,,,,,,,0,,,63,0
29760,note_on,40,0,1,,,,,,,,,0,,,79,0
29800,note_on,40,0,1,,,,,,,,,0,,,77,0
29800,note_on,0,0,1,,,,,,,,,0,,,70,40
29840,note_on,40,0,1,,,,,,,,,0,,,70,0
29840,note_on,0,0,1,,,,,,,,,0,,,67,40
29865,control_change,105,0,4,,,,,,,,,0,64,0,,
29880,note_on,40,0,1,,,,,,,,,0,,,67,0
29880,note_on,0,0,1,,,,,,,,,0,,,77,40
29880,control_change,15,0,4,,,,,,,,,0,64,127,,
29920,note_on,0,0,1,,,,,,,,,0,,,71,40
29920,note_on,40,0,1,,,,,,,,,0,,,77,0
29960,note_on,40,0,1,,,,,,,,,0,,,71,0
29960,note_on,0,0,1,,,,,,,,,0,,,67,40
29985,control_change,105,0,4,,,,,,,,,0,64,0,,
30000,note_on,0,0,1,,,,,,,,,0,,,77,40
30000,note_on,40,0,1,,,,,,,,,0,,,67,0
30000,note_on,0,0,3,,,,,,,,,0,,,60,60
30000,control_change,15,0,4,,,,,,,,,0,64,127,,
30000,note_on,240,0,3,,,,,,,,,0,,,61,0
30040,note_on,40,0,1,,,,,,,,,0,,,77,0
30040,note_on,0,0,1,,,,,,,,,0,,,72,40
30080,note_on,0,0,1,,,,,,,,,0,,,68,40
30080,note_on,40,0,1,,,,,,,,,0,,,72,0
30105,control_change,105,0,4,,,,,,,,,0,64,0,,
30120,note_on,0,0,1,,,,,,,,,0,,,68,40
30120,note_on,40,0,1,,,,,,,,,0,,,68,0
30120,control_change,15,0,4,,,,,,,,,0,64,127,,
30160,note_on,40,0,1,,,,,,,,,0,,,68,0
30160,note_on,0,0,1,,,,,,,,,0,,,72,40
30200,note_on,40,0,1,,,,,,,,,0,,,72,0
30200,note_on,0,0,1,,,,,,,,,0,,,75,40
30225,control_change,105,0,4,,,,,,,,,0,64,0,,
30240,note_on,40,0,1,,,,,,,,,0,,,75,0
30240,note_on,0,0,1,,,,,,,,,0,,,61,40
30240,note_on,0,0,3,,,,,,,,,0,,,58,60
30240,note_on,240,0,3,,,,,,,,,0,,,60,0
30240,control_change,15,0,4,,,,,,,,,0,64,127,,
30280,note_on,0,0,1,,,,,,,,,0,,,68,40
30280,note_on,40,0,1,,,,,,,,,0,,,61,0
30320,note_on,0,0,1,,,,,,,,,0,,,73,40
30320,note_on,40,0,1,,,,,,,,,0,,,68,0
30345,control_change,105,0,4,,,,,,,,,0,64,0,,
30360,note_on,120,0,3,,,,,,,,,0,,,58,0
30360,note_on,0,0,1,,,,,,,,,0,,,65,40
30360,note_on,40,0,1,,,,,,,,,0,,,73,0
30360,note_on,0,0,3,,,,,,,,,0,,,61,60
30360,control_change,15,0,4,,,,,,,,,0,64,127,,
30400,note_on,0,0,1,,,,,,,,,0,,,68,40
30400,note_on,40,0,1,,,,,,,,,0,,,65,0
30440,note_on,40,0,1,,,,,,,,,0,,,68,0
30440,note_on,0,0,1,,,,,,,,,0,,,70,40
30465,control_change,105,0,4,,,,,,,,,0,64,0,,
30480,control_change,15,0,4,,,,,,,,,0,64,127,,
30480,note_on,0,0,1,,,,,,,,,0,,,63,40
30480,note_on,0,0,3,,,,,,,,,0,,,60,60
30480,note_on,120,0,3,,,,,,,,,0,,,61,0
30480,note_on,40,0,1,,,,,,,,,0,,,70,0
30520,note_on,0,0,1,,,,,,,,,0,,,68,40
30520,note_on,40,0,1,,,,,,,,,0,,,63,0
30560,note_on,0,0,1,,,,,,,,,0,,,72,40
30560,note_on,40,0,1,,,,,,,,,0,,,68,0
30585,control_change,105,0,4,,,,,,,,,0,64,0,,
30600,note_on,0,0,3,,,,,,,,,0,,,51,60
30600,note_on,120,0,3,,,,,,,,,0,,,60,0
30600,control_change,15,0,4,,,,,,,,,0,64,127,,
30600,note_on,0,0,3,,,,,,,,,0,,,58,60
30600,note_on,40,0,1,,,,,,,,,0,,,72,0
30600,note_on,0,0,1,,,,,,,,,0,,,63,40
30600,note_on,0,0,1,,,,,,,,,0,,,67,40
30640,note_on,40,0,1,,,,,,,,,0,,,75,40
30680,note_on,40,0,1,,,,,,,,,0,,,75,0
30680,note_on,0,0,1,,,,,,,,,0,,,74,40
30705,control_change,105,0,4,,,,,,,,,0,64,0,,
30720,note_on,0,0,1,,,,,,,,,0,,,63,40
30720,note_on,0,0,1,,,,,,,,,0,,,72,40
30720,control_change,15,0,4,,,,,,,,,0,64,127,,
30720,note_on,0,0,3,,,,,,,,,0,,,56,60
30720,note_on,0,0,3,,,,,,,,,0,,,51,60
30720,note_on,0,0,3,,,,,,,,,0,,,44,60
30720,note_on,0,0,3,,,,,,,,,0,,,51,0
30720,note_on,120,0,3,,,,,,,,,0,,,58,0
30720,note_on,0,0,1,,,,,,,,,0,,,68,40
30720,note_on,0,0,1,,,,,,,,,0,,,63,0
30720,note_on,0,0,1,,,,,,,,,0,,,67,0
30720,note_on,40,0,1,,,,,,,,,0,,,74,0
30760,note_on,0,0,1,,,,,,,,,0,,,63,45
30760,note_on,0,0,1,,,,,,,,,0,,,72,0
30760,note_on,0,0,1,,,,,,,,,0,,,68,0
30760,note_on,40,0,1,,,,,,,,,0,,,63,0
30800,note_on,0,0,1,,,,,,,,,0,,,68,51
30800,note_on,40,0,1,,,,,,,,,0,,,63,0
30825,control_change,105,0,4,,,,,,,,,0,64,0,,
30840,note_on,0,0,1,,,,,,,,,0,,,72,57
30840,note_on,40,0,1,,,,,,,,,0,,,68,0
30840,control_change,15,0,4,,,,,,,,,0,64,127,,
30840,note_on,0,0,3,,,,,,,,,0,,,44,0
30840,note_on,0,0,3,,,,,,,,,0,,,51,0
30840,note_on,120,0,3,,,,,,,,,0,,,56,0
30880,note_on,40,0,1,,,,,,,,,0,,,72,0
30880,note_on,0,0,1,,,,,,,,,0,,,68,62
30920,note_on,40,0,1,,,,,,,,,0,,,68,0
30920,note_on,0,0,1,,,,,,,,,0,,,63,68
30945,control_change,105,0,4,,,,,,,,,0,64,0,,
30960,control_change,15,0,4,,,,,,,,,0,64,127,,
30960,note_on,40,0,1,,,,,,,,,0,,,63,0
30960,note_on,0,0,1,,,,,,,,,0,,,75,74
31000,note_on,40,0,1,,,,,,,,,0,,,75,0
31000,note_on,0,0,1,,,,,,,,,0,,,72,79
31040,note_on,40,0,1,,,,,,,,,0,,,72,0
31040,note_on,0,0,1,,,,,,,,,0,,,68,85
31065,control_change,105,0,4,,,,,,,,,0,64,0,,
31080,note_on,40,0,1,,,,,,,,,0,,,68,0
31080,note_on,0,0,1,,,,,,,,,0,,,68,91
31080,note_on,240,0,3,,,,,,,,,0,,,44,101
31080,control_change,15,0,4,,,,,,,,,0,64,127,,
31080,note_on,0,0,3,,,,,,,,,0,,,56,101
31120,note_on,0,0,1,,,,,,,,,0,,,72,97
31120,note_on,40,0,1,,,,,,,,,0,,,68,0
31160,note_on,40,0,1,,,,,,,,,0,,,72,0
31160,note_on,0,0,1,,,,,,,,,0,,,75,100
31170,note_on,90,0,3,,,,,,,,,0,,,56,0
31170,note_on,0,0,3,,,,,,,,,0,,,44,0
31170,note_on,0,0,3,,,,,,,,,0,,,48,110
31170,note_on,0,0,3,,,,,,,,,0,,,60,110
31185,control_change,105,0,4,,,,,,,,,0,64,0,,
31200,note_on,0,0,1,,,,,,,,,0,,,75,100
31200,control_change,15,0,4,,,,,,,,,0,64,127,,
31200,note_on,30,0,3,,,,,,,,,0,,,60,0
31200,note_on,0,0,3,,,,,,,,,0,,,48,0
31200,note_on,40,0,1,,,,,,,,,0,,,75,0
31200,note_on,0,0,3,,,,,,,,,0,,,51,110
31200,note_on,0,0,3,,,,,,,,,0,,,63,110
31240,note_on,0,0,1,,,,,,,,,0,,,70,100
31240,note_on,40,0,1,,,,,,,,,0,,,75,0
31280,note_on,0,0,1,,,,,,,,,0,,,67,100
31280,note_on,40,0,1,,,,,,,,,0,,,70,0
31305,control_change,105,0,4,,,,,,,,,0,64,0,,
31320,note_on,0,0,3,,,,,,,,,0,,,51,0
31320,note_on,0,0,3,,,,,,,,,0,,,51,110
31320,note_on,0,0,3,,,,,,,,,0,,,63,110
31320,note_on,0,0,1,,,,,,,,,0,,,75,100
31320,note_on,40,0,1,,,,,,,,,0,,,67,0
31320,control_change,15,0,4,,,,,,,,,0,64,127,,
31320,note_on,120,0,3,,,,,,,,,0,,,63,0
31360,note_on,0,0,1,,,,,,,,,0,,,70,100
31360,note_on,40,0,1,,,,,,,,,0,,,75,0
31400,note_on,0,0,1,,,,,,,,,0,,,67,100
31400,note_on,40,0,1,,,,,,,,,0,,,70,0
31425,control_change,105,0,4,,,,,,,,,0,64,0,,
31440,control_change,15,0,4,,,,,,,,,0,64,127,,
31440,note_on,120,0,3,,,,,,,,,0,,,63,0
31440,note_on,0,0,3,,,,,,,,,0,,,51,0
31440,note_on,0,0,3,,,,,,,,,0,,,51,110
31440,note_on,0,0,3,,,,,,,,,0,,,63,110
31440,note_on,40,0,1,,,,,,,,,0,,,67,0
31440,note_on,0,0,1,,,,,,,,,0,,,75,100
31480,note_on,0,0,1,,,,,,,,,0,,,71,100
31480,note_on,40,0,1,,,,,,,,,0,,,75,0
31520,note_on,0,0,1,,,,,,,,,0,,,68,100
31520,note_on,40,0,1,,,,,,,,,0,,,71,0
31545,control_change,105,0,4,,,,,,,,,0,64,0,,
31560,note_on,0,0,1,,,,,,,,,0,,,70,100
31560,note_on,0,0,3,,,,,,,,,0,,,63,110
31560,note_on,0,0,3,,,,,,,,,0,,,51,110
31560,note_on,0,0,3,,,,,,,,,0,,,51,0
31560,note_on,120,0,3,,,,,,,,,0,,,63,0
31560,note_on,40,0,1,,,,,,,,,0,,,68,0
31560,control_change,15,0,4,,,,,,,,,0,64,127,,
31600,note_on,0,0,1,,,,,,,,,0,,,75,100
31600,note_on,40,0,1,,,,,,,,,0,,,70,0
31640,note_on,0,0,1,,,,,,,,,0,,,79,100
31640,note_on,40,0,1,,,,,,,,,0,,,75,0
31665,control_change,105,0,4,,,,,,,,,0,64,0,,
31680,note_on,0,0,3,,,,,,,,,0,,,51,0
31680,note_on,120,0,3,,,,,,,,,0,,,63,0
31680,control_change,15,0,4,,,,,,,,,0,64,127,,
31680,note_on,40,0,1,,,,,,,,,0,,,79,0
31680,note_on,0,0,1,,,,,,,,,0,,,80,100
31680,note_on,0,0,3,,,,,,,,,0,,,64,110
31680,note_on,0,0,3,,,,,,,,,0,,,52,110
31720,note_on,40,0,1,,,,,,,,,0,,,80,0
31720,note_on,0,0,1,,,,,,,,,0,,,75,100
31760,note_on,40,0,1,,,,,,,,,0,,,75,0
31760,note_on,0,0,1,,,,,,,,,0,,,68,100
31785,control_change,105,0,4,,,,,,,,,0,64,0,,
31800,note_on,40,0,1,,,,,,,,,0,,,68,0
31800,note_on,0,0,1,,,,,,,,,0,,,80,100
31800,control_change,15,0,4,,,,,,,,,0,64,127,,
31840,note_on,40,0,1,,,,,,,,,0,,,80,0
31840,note_on,0,0,1,,,,,,,,,0,,,73,100
31880,note_on,0,0,1,,,,,,,,,0,,,70,100
31880,note_on,40,0,1,,,,,,,,,0,,,73,0
31905,control_change,105,0,4,,,,,,,,,0,64,0,,
31920,note_on,0,0,3,,,,,,,,,0,,,63,110
31920,note_on,0,0,3,,,,,,,,,0,,,64,0
31920,note_on,0,0,1,,,,,,,,,0,,,80,100
31920,note_on,40,0,1,,,,,,,,,0,,,70,0
31920,control_change,15,0,4,,,,,,,,,0,64,127,,
31920,note_on,0,0,3,,,,,,,,,0,,,51,110
31920,note_on,240,0,3,,,,,,,,,0,,,52,0
31960,note_on,0,0,1,,,,,,,,,0,,,75,100
31960,note_on,40,0,1,,,,,,,,,0,,,80,0
32000,note_on,40,0,1,,,,,,,,,0,,,75,0
32000,note_on,0,0,1,,,,,,,,,0,,,71,100
32025,control_change,105,0,4,,,,,,,,,0,64,0,,
32040,note_on,40,0,1,,,,,,,,,0,,,71,0
32040,note_on,0,0,1,,,,,,,,,0,,,71,100
32040,control_change,15,0,4,,,,,,,,,0,64,127,,
32080,note_on,40,0,1,,,,,,,,,0,,,71,0
32080,note_on,0,0,1,,,,,,,,,0,,,75,100
32120,note_on,40,0,1,,,,,,,,,0,,,75,0
32120,note_on,0,0,1,,,,,,,,,0,,,78,100
32145,control_change,105,0,4,,,,,,,,,0,64,0,,
32160,control_change,15,0,4,,,,,,,,,0,64,127,,
32160,note_on,0,0,3,,,,,,,,,0,,,61,110
32160,note_on,0,0,3,,,,,,,,,0,,,49,110
32160,note_on,0,0,3,,,,,,,,,0,,,51,0
32160,note_on,240,0,3,,,,,,,,,0,,,63,0
32160,note_on,40,0,1,,,,,,,,,0,,,78,0
32160,note_on,0,0,1,,,,,,,,,0,,,76,100
32200,note_on,40,0,1,,,,,,,,,0,,,76,0
32200,note_on,0,0,1,,,,,,,,,0,,,71,100
32240,note_on,40,0,1,,,,,,,,,0,,,71,0
32240,note_on,0,0,1,,,,,,,,,0,,,67,100
32265,control_change,105,0,4,,,,,,,,,0,64,0,,
32280,control_change,15,0,4,,,,,,,,,0,64,127,,
32280,note_on,40,0,1,,,,,,,,,0,,,67,0
32280,note_on,0,0,1,,,,,,,,,0,,,76,100
32320,note_on,40,0,1,,,,,,,,,0,,,76,0
32320,note_on,0,0,1,,,,,,,,,0,,,70,100
32360,note_on,40,0,1,,,,,,,,,0,,,70,0
32360,note_on,0,0,1,,,,,,,,,0,,,67,100
32385,control_change,105,0,4,,,,,,,,,0,64,0,,
32400,note_on,0,0,3,,,,,,,,,0,,,47,110
32400,note_on,0,0,1,,,,,,,,,0,,,76,100
32400,note_on,0,0,3,,,,,,,,,0,,,59,110
32400,note_on,240,0,3,,,,,,,,,0,,,61,0
32400,note_on,0,0,3,,,,,,,,,0,,,49,0
32400,control_change,15,0,4,,,,,,,,,0,64,127,,
32400,note_on,40,0,1,,,,,,,,,0,,,67,0
32440,note_on,0,0,1,,,,,,,,,0,,,71,100
32440,note_on,40,0,1,,,,,,,,,0,,,76,0
32480,note_on,40,0,1,,,,,,,,,0,,,71,0
32480,note_on,0,0,1,,,,,,,,,0,,,68,100
32505,control_change,105,0,4,,,,,,,,,0,64,0,,
32520,note_on,40,0,1,,,,,,,,,0,,,68,0
32520,control_change,15,0,4,,,,,,,,,0,64,127,,
32520,note_on,0,0,1,,,,,,,,,0,,,68,100
32560,note_on,0,0,1,,,,,,,,,0,,,71,100
32560,note_on,40,0,1,,,,,,,,,0,,,68,0
32580,note_on,180,0,3,,,,,,,,,0,,,59,0
32580,note_on,0,0,3,,,,,,,,,0,,,58,110
32600,note_on,0,0,1,,,,,,,,,0,,,75,100
32600,note_on,40,0,1,,,,,,,,,0,,,71,0
32625,control_change,105,0,4,,,,,,,,,0,64,0,,
32640,note_on,40,0,1,,,,,,,,,0,,,75,0
32640,control_change,15,0,4,,,,,,,,,0,64,127,,
32640,note_on,60,0,3,,,,,,,,,0,,,58,0
32640,note_on,0,0,3,,,,,,,,,0,,,47,0
32640,note_on,0,0,3,,,,,,,,,0,,,52,110
32640,note_on,0,0,1,,,,,,,,,0,,,68,100
32640,note_on,0,0,3,,,,,,,,,0,,,56,110
32680,note_on,0,0,1,,,,,,,,,0,,,71,100
32680,note_on,40,0,1,,,,,,,,,0,,,68,0
32720,note_on,0,0,1,,,,,,,,,0,,,73,100
32720,note_on,40,0,1,,,,,,,,,0,,,71,0
32745,control_change,105,0,4,,,,,,,,,0,64,0,,
32760,note_on,0,0,1,,,,,,,,,0,,,68,100
32760,control_change,15,0,4,,,,,,,,,0,64,127,,
32760,note_on,120,0,3,,,,,,,,,0,,,56,0
32760,note_on,0,0,3,,,,,,,,,0,,,52,0
32760,note_on,0,0,3,,,,,,,,,0,,,64,110
32760,note_on,0,0,3,,,,,,,,,0,,,56,110
32760,note_on,40,0,1,,,,,,,,,0,,,73,0
32760,note_on,0,0,3,,,,,,,,,0,,,49,110
32800,note_on,40,0,1,,,,,,,,,0,,,68,0
32800,note_on,0,0,1,,,,,,,,,0,,,71,100
32840,note_on,0,0,1,,,,,,,,,0,,,76,100
32840,note_on,40,0,1,,,,,,,,,0,,,71,0
32865,control_change,105,0,4,,,,,,,,,0,64,0,,
32880,note_on,0,0,3,,,,,,,,,0,,,56,0
32880,note_on,40,0,1,,,,,,,,,0,,,76,0
32880,note_on,0,0,1,,,,,,,,,0,,,66,100
32880,note_on,0,0,3,,,,,,,,,0,,,64,0
32880,note_on,0,0,3,,,,,,,,,0,,,54,110
32880,note_on,120,0,3,,,,,,,,,0,,,49,0
32880,note_on,0,0,3,,,,,,,,,0,,,63,110
32880,control_change,15,0,4,,,,,,,,,0,64,127,,
32920,note_on,0,0,1,,,,,,,,,0,,,71,100
32920,note_on,40,0,1,,,,,,,,,0,,,66,0
32960,note_on,0,0,1,,,,,,,,,0,,,75,100
32960,note_on,40,0,1,,,,,,,,,0,,,71,0
32985,control_change,105,0,4,,,,,,,,,0,64,0,,
33000,note_on,0,0,3,,,,,,,,,0,,,54,110
33000,note_on,0,0,3,,,,,,,,,0,,,54,0
33000,note_on,120,0,3,,,,,,,,,0,,,63,0
33000,control_change,15,0,4,,,,,,,,,0,64,127,,
33000,note_on,0,0,1,,,,,,,,,0,,,66,100
33000,note_on,0,0,1,,,,,,,,,0,,,70,100
33000,note_on,40,0,1,,,,,,,,,0,,,75,0
33000,note_on,0,0,3,,,,,,,,,0,,,61,110
33040,note_on,40,0,1,,,,,,,,,0,,,78,100
33080,note_on,0,0,1,,,,,,,,,0,,,76,100
33080,note_on,40,0,1,,,,,,,,,0,,,78,0
33105,control_change,105,0,4,,,,,,,,,0,64,0,,
33120,note_on,40,0,1,,,,,,,,,0,,,76,0
33120,note_on,0,0,1,,,,,,,,,0,,,66,0
33120,note_on,0,0,1,,,,,,,,,0,,,70,0
33120,note_on,0,0,1,,,,,,,,,0,,,75,100
33120,note_on,0,0,1,,,,,,,,,0,,,71,100
33120,note_on,0,0,1,,,,,,,,,0,,,66,100
33120,note_on,0,0,3,,,,,,,,,0,,,59,110
33120,note_on,0,0,3,,,,,,,,,0,,,54,110
33120,note_on,0,0,3,,,,,,,,,0,,,47,110
33120,note_on,120,0,3,,,,,,,,,0,,,54,0
33120,control_change,15,0,4,,,,,,,,,0,64,127,,
33120,note_on,0,0,3,,,,,,,,,0,,,61,0
33160,note_on,40,0,1,,,,,,,,,0,,,66,0
33160,note_on,0,0,1,,,,,,,,,0,,,71,0
33160,note_on,0,0,1,,,,,,,,,0,,,75,0
33160,note_on,0,0,1,,,,,,,,,0,,,63,99
33200,note_on,40,0,1,,,,,,,,,0,,,63,0
33200,note_on,0,0,1,,,,,,,,,0,,,66,97
33225,control_change,105,0,4,,,,,,,,,0,64,0,,
33240,control_change,15,0,4,,,,,,,,,0,64,127,,
33240,note_on,0,0,1,,,,,,,,,0,,,71,95
33240,note_on,0,0,3,,,,,,,,,0,,,47,0
33240,note_on,0,0,3,,,,,,,,,0,,,54,0
33240,note_on,120,0,3,,,,,,,,,0,,,59,0
33240,note_on,40,0,1,,,,,,,,,0,,,66,0
33280,note_on,40,0,1,,,,,,,,,0,,,71,0
33280,note_on,0,0,1,,,,,,,,,0,,,66,93
33320,note_on,40,0,1,,,,,,,,,0,,,66,0
33320,note_on,0,0,1,,,,,,,,,0,,,63,91
33345,control_change,105,0,4,,,,,,,,,0,64,0,,
33360,control_change,15,0,4,,,,,,,,,0,64,127,,
33360,note_on,40,0,1,,,,,,,,,0,,,63,0
33360,note_on,0,0,1,,,,,,,,,0,,,75,90
33400,note_on,0,0,1,,,,,,,,,0,,,71,88
33400,note_on,40,0,1,,,,,,,,,0,,,75,0
33440,note_on,40,0,1,,,,,,,,,0,,,71,0
33440,note_on,0,0,1,,,,,,,,,0,,,66,86
33465,control_change,105,0,4,,,,,,,,,0,64,0,,
33480,note_on,0,0,1,,,,,,,,,0,,,71,84
33480,note_on,40,0,1,,,,,,,,,0,,,66,0
33480,control_change,15,0,4,,,,,,,,,0,64,127,,
33520,note_on,40,0,1,,,,,,,,,0,,,71,0
33520,note_on,0,0,1,,,,,,,,,0,,,75,82
33560,note_on,0,0,1,,,,,,,,,0,,,78,81
33560,note_on,40,0,1,,,,,,,,,0,,,75,0
33585,control_change,105,0,4,,,,,,,,,0,64,0,,
33600,note_on,0,0,1,,,,,,,,,0,,,78,90
33600,note_on,0,0,1,,,,,,,,,0,,,66,90
33600,note_on,360,0,3,,,,,,,,,0,,,47,80
33600,control_change,15,0,4,,,,,,,,,0,64,127,,
33600,note_on,40,0,1,,,,,,,,,0,,,78,0
33640,note_on,40,0,3,,,,,,,,,0,,,47,0
33640,note_on,0,0,3,,,,,,,,,0,,,51,80
33680,note_on,40,0,3,,,,,,,,,0,,,51,0
33680,note_on,0,0,3,,,,,,,,,0,,,54,79
33705,control_change,105,0,4,,,,,,,,,0,64,0,,
33720,note_on,40,0,3,,,,,,,,,0,,,54,0
33720,note_on,0,0,1,,,,,,,,,0,,,78,0
33720,note_on,0,0,1,,,,,,,,,0,,,66,88
33720,control_change,15,0,4,,,,,,,,,0,64,127,,
33720,note_on,0,0,1,,,,,,,,,0,,,78,88
33720,note_on,120,0,1,,,,,,,,,0,,,66,0
33720,note_on,0,0,3,,,,,,,,,0,,,47,78
33760,note_on,40,0,3,,,,,,,,,0,,,47,0
33760,note_on,0,0,3,,,,,,,,,0,,,51,77
33800,note_on,40,0,3,,,,,,,,,0,,,51,0
33800,note_on,0,0,3,,,,,,,,,0,,,54,76
33825,control_change,105,0,4,,,,,,,,,0,64,0,,
33840,note_on,0,0,1,,,,,,,,,0,,,79,85
33840,note_on,0,0,1,,,,,,,,,0,,,78,0
33840,note_on,0,0,3,,,,,,,,,0,,,46,75
33840,note_on,40,0,3,,,,,,,,,0,,,54,0
33840,control_change,15,0,4,,,,,,,,,0,64,127,,
33840,note_on,120,0,1,,,,,,,,,0,,,66,0
33840,note_on,0,0,1,,,,,,,,,0,,,67,85
33880,note_on,40,0,3,,,,,,,,,0,,,46,0
33880,note_on,0,0,3,,,,,,,,,0,,,49,74
33920,note_on,0,0,3,,,,,,,,,0,,,51,73
33920,note_on,40,0,3,,,,,,,,,0,,,49,0
33945,control_change,105,0,4,,,,,,,,,0,64,0,,
33960,note_on,120,0,1,,,,,,,,,0,,,67,0
33960,note_on,0,0,1,,,,,,,,,0,,,79,0
33960,note_on,0,0,1,,,,,,,,,0,,,80,83
33960,note_on,0,0,1,,,,,,,,,0,,,68,83
33960,control_change,15,0,4,,,,,,,,,0,64,127,,
33960,note_on,0,0,3,,,,,,,,,0,,,44,73
33960,note_on,40,0,3,,,,,,,,,0,,,51,0
34000,note_on,40,0,3,,,,,,,,,0,,,44,0
34000,note_on,0,0,3,,,,,,,,,0,,,49,72
34040,note_on,0,0,3,,,,,,,,,0,,,51,71
34040,note_on,40,0,3,,,,,,,,,0,,,49,0
34065,control_change,105,0,4,,,,,,,,,0,64,0,,
34080,note_on,0,0,1,,,,,,,,,0,,,80,0
34080,note_on,0,0,1,,,,,,,,,0,,,70,80
34080,note_on,40,0,3,,,,,,,,,0,,,51,0
34080,note_on,0,0,3,,,,,,,,,0,,,43,70
34080,control_change,15,0,4,,,,,,,,,0,64,127,,
34080,note_on,120,0,1,,,,,,,,,0,,,68,0
34080,note_on,0,0,1,,,,,,,,,0,,,82,80
34120,note_on,40,0,3,,,,,,,,,0,,,43,0
34120,note_on,0,0,3,,,,,,,,,0,,,49,69
34160,note_on,40,0,3,,,,,,,,,0,,,49,0
34160,note_on,0,0,3,,,,,,,,,0,,,51,68
34185,control_change,105,0,4,,,,,,,,,0,64,0,,
34200,note_on,0,0,3,,,,,,,,,0,,,43,67
34200,note_on,0,0,1,,,,,,,,,0,,,73,77
34200,note_on,0,0,1,,,,,,,,,0,,,85,77
34200,note_on,0,0,1,,,,,,,,,0,,,82,0
34200,control_change,15,0,4,,,,,,,,,0,64,127,,
34200,note_on,40,0,3,,,,,,,,,0,,,51,0
34200,note_on,120,0,1,,,,,,,,,0,,,70,0
34240,note_on,0,0,3,,,,,,,,,0,,,46,66
34240,note_on,40,0,3,,,,,,,,,0,,,43,0
34280,note_on,0,0,3,,,,,,,,,0,,,51,65
34280,note_on,40,0,3,,,,,,,,,0,,,46,0
34305,control_change,105,0,4,,,,,,,,,0,64,0,,
34320,note_on,0,0,3,,,,,,,,,0,,,44,65
34320,note_on,40,0,3,,,,,,,,,0,,,51,0
34320,control_change,15,0,4,,,,,,,,,0,64,127,,
34320,note_on,120,0,1,,,,,,,,,0,,,73,0
34320,note_on,0,0,1,,,,,,,,,0,,,85,0
34320,note_on,0,0,1,,,,,,,,,0,,,71,75
34320,note_on,0,0,1,,,,,,,,,0,,,83,75
34360,note_on,40,0,3,,,,,,,,,0,,,44,0
34360,note_on,0,0,3,,,,,,,,,0,,,47,64
34400,note_on,40,0,3,,,,,,,,,0,,,47,0
34400,note_on,0,0,3,,,,,,,,,0,,,51,63
34425,control_change,105,0,4,,,,,,,,,0,64,0,,
34440,note_on,120,0,1,,,,,,,,,0,,,71,0
34440,note_on,0,0,1,,,,,,,,,0,,,70,72
34440,control_change,15,0,4,,,,,,,,,0,64,127,,
34440,note_on,0,0,1,,,,,,,,,0,,,83,0
34440,note_on,0,0,3,,,,,,,,,0,,,49,62
34440,note_on,40,0,3,,,,,,,,,0,,,51,0
34440,note_on,0,0,1,,,,,,,,,0,,,82,72
34480,note_on,0,0,3,,,,,,,,,0,,,52,61
34480,note_on,40,0,3,,,,,,,,,0,,,49,0
34520,note_on,0,0,3,,,,,,,,,0,,,58,60
34520,note_on,40,0,3,,,,,,,,,0,,,52,0
34530,note_on,0,0,1,,,,,,,,,0,,,68,70
34530,note_on,0,0,1,,,,,,,,,0,,,80,70
34530,note_on,0,0,1,,,,,,,,,0,,,82,0
34530,note_on,90,0,1,,,,,,,,,0,,,70,0
34545,control_change,105,0,4,,,,,,,,,0,64,0,,
34560,note_on,30,0,1,,,,,,,,,0,,,68,0
34560,note_on,0,0,1,,,,,,,,,0,,,79,70
34560,note_on,0,0,3,,,,,,,,,0,,,51,60
34560,note_on,0,0,1,,,,,,,,,0,,,67,70
34560,control_change,15,0,4,,,,,,,,,0,64,127,,
34560,note_on,40,0,3,,,,,,,,,0,,,58,0
34560,note_on,0,0,1,,,,,,,,,0,,,80,0
34560,set_tempo,15360,1,0,,,,,,500042,,,,,,,
34581,set_tempo,21,1,0,,,,,,501295,,,,,,,
34600,note_on,40,0,3,,,,,,,,,0,,,51,0
34600,note_on,0,0,3,,,,,,,,,0,,,58,60
34602,set_tempo,21,1,0,,,,,,502555,,,,,,,
34616,set_tempo,14,1,0,,,,,,503821,,,,,,,
34637,set_tempo,21,1,0,,,,,,505093,,,,,,,
34640,note_on,40,0,3,,,,,,,,,0,,,58,0
34640,note_on,0,0,3,,,,,,,,,0,,,61,60
34651,set_tempo,14,1,0,,,,,,506372,,,,,,,
34665,control_change,105,0,4,,,,,,,,,0,64,0,,
34672,set_tempo,21,1,0,,,,,,507657,,,,,,,
34680,note_on,40,0,3,,,,,,,,,0,,,61,0
34680,note_on,0,0,3,,,,,,,,,0,,,51,60
34680,control_change,15,0,4,,,,,,,,,0,64,127,,
34680,note_on,120,0,1,,,,,,,,,0,,,67,0
34680,note_on,0,0,1,,,,,,,,,0,,,79,0
34680,note_on,0,0,1,,,,,,,,,0,,,79,70
34680,note_on,0,0,1,,,,,,,,,0,,,67,70
34694,set_tempo,22,1,0,,,,,,508949,,,,,,,
34708,set_tempo,14,1,0,,,,,,510247,,,,,,,
34720,note_on,0,0,3,,,,,,,,,0,,,58,60
34720,note_on,40,0,3,,,,,,,,,0,,,51,0
34729,set_tempo,21,1,0,,,,,,511553,,,,,,,
34743,set_tempo,14,1,0,,,,,,512864,,,,,,,
34760,note_on,40,0,3,,,,,,,,,0,,,58,0
34760,note_on,0,0,3,,,,,,,,,0,,,61,60
34764,set_tempo,21,1,0,,,,,,514183,,,,,,,
34778,set_tempo,14,1,0,,,,,,515508,,,,,,,
34785,control_change,105,0,4,,,,,,,,,0,64,0,,
34800,note_on,0,0,1,,,,,,,,,0,,,80,70
34800,control_change,15,0,4,,,,,,,,,0,64,127,,
34800,note_on,120,0,1,,,,,,,,,0,,,67,0
34800,note_on,0,0,1,,,,,,,,,0,,,68,70
34800,note_on,40,0,3,,,,,,,,,0,,,61,0
34800,set_tempo,22,1,0,,,,,,516840,,,,,,,
34800,note_on,0,0,1,,,,,,,,,0,,,79,0
34800,note_on,0,0,3,,,,,,,,,0,,,51,60
34821,set_tempo,21,1,0,,,,,,518179,,,,,,,
34835,set_tempo,14,1,0,,,,,,519526,,,,,,,
34840,note_on,40,0,3,,,,,,,,,0,,,51,0
34840,note_on,0,0,3,,,,,,,,,0,,,58,60
34856,set_tempo,21,1,0,,,,,,520879,,,,,,,
34860,note_on,0,0,1,,,,,,,,,0,,,79,70
34860,note_on,0,0,1,,,,,,,,,0,,,80,0
34860,note_on,60,0,1,,,,,,,,,0,,,68,0
34860,note_on,0,0,1,,,,,,,,,0,,,67,70
34870,set_tempo,14,1,0,,,,,,522239,,,,,,,
34880,note_on,40,0,3,,,,,,,,,0,,,58,0
34880,note_on,0,0,3,,,,,,,,,0,,,61,60
34891,set_tempo,21,1,0,,,,,,523606,,,,,,,
34905,set_tempo,14,1,0,,,,,,524980,,,,,,,
34905,control_change,105,0,4,,,,,,,,,0,64,0,,
34920,note_on,40,0,3,,,,,,,,,0,,,61,0
34920,note_on,0,0,3,,,,,,,,,0,,,51,60
34920,control_change,15,0,4,,,,,,,,,0,64,127,,
34920,note_on,0,0,1,,,,,,,,,0,,,65,70
34920,note_on,0,0,1,,,,,,,,,0,,,77,70
34920,note_on,60,0,1,,,,,,,,,0,,,67,0
34920,note_on,0,0,1,,,,,,,,,0,,,79,0
34927,set_tempo,22,1,0,,,,,,526362,,,,,,,
34948,set_tempo,21,1,0,,,,,,527751,,,,,,,
34960,note_on,0,0,3,,,,,,,,,0,,,58,60
34960,note_on,40,0,3,,,,,,,,,0,,,51,0
34962,set_tempo,14,1,0,,,,,,529147,,,,,,,
34980,note_on,0,0,1,,,,,,,,,0,,,67,70
34980,note_on,0,0,1,,,,,,,,,0,,,79,70
34980,note_on,60,0,1,,,,,,,,,0,,,65,0
34980,note_on,0,0,1,,,,,,,,,0,,,77,0
34983,set_tempo,21,1,0,,,,,,530551,,,,,,,
34997,set_tempo,14,1,0,,,,,,531962,,,,,,,
35000,note_on,40,0,3,,,,,,,,,0,,,58,0
35000,note_on,0,0,3,,,,,,,,,0,,,61,60
35018,set_tempo,21,1,0,,,,,,533381,,,,,,,
35025,control_change,105,0,4,,,,,,,,,0,64,0,,
35032,set_tempo,14,1,0,,,,,,534807,,,,,,,
35040,marker,0,1,0,,,,,,,,,,,,,
35040,note_on,0,0,1,,,,,,,,,0,,,79,0
35040,note_on,60,0,1,,,,,,,,,0,,,67,0
35040,note_on,40,0,3,,,,,,,,,0,,,61,0
35040,note_on,0,0,3,,,,,,,,,0,,,44,40
35040,note_on,0,0,1,,,,,,,,,0,,,80,50
35040,control_change,15,0,4,,,,,,,,,0,64,127,,
35040,set_tempo,8,1,0,,,,,,535714,,,,,,,
35040,note_on,0,0,1,,,,,,,,,0,,,68,50
35080,note_on,0,0,3,,,,,,,,,0,,,51,40
35080,note_on,0,0,3,,,,,,,,,0,,,56,40
35080,note_on,0,0,3,,,,,,,,,0,,,60,40
35080,note_on,40,0,3,,,,,,,,,0,,,44,0
35120,note_on,0,0,3,,,,,,,,,0,,,60,0
35120,note_on,0,0,3,,,,,,,,,0,,,56,0
35120,note_on,40,0,3,,,,,,,,,0,,,51,0
35120,note_on,0,0,3,,,,,,,,,0,,,51,40
35120,note_on,0,0,3,,,,,,,,,0,,,56,40
35120,note_on,0,0,3,,,,,,,,,0,,,60,40
35160,note_on,40,0,3,,,,,,,,,0,,,51,0
35160,note_on,0,0,3,,,,,,,,,0,,,51,40
35160,note_on,0,0,3,,,,,,,,,0,,,60,0
35160,note_on,0,0,3,,,,,,,,,0,,,60,40
35160,note_on,0,0,3,,,,,,,,,0,,,56,40
35160,note_on,0,0,3,,,,,,,,,0,,,56,0
35200,note_on,40,0,3,,,,,,,,,0,,,51,0
35200,note_on,0,0,3,,,,,,,,,0,,,56,0
35200,note_on,0,0,3,,,,,,,,,0,,,60,0
35200,note_on,0,0,3,,,,,,,,,0,,,60,40
35200,note_on,0,0,3,,,,,,,,,0,,,56,40
35200,note_on,0,0,3,,,,,,,,,0,,,51,40
35240,note_on,0,0,3,,,,,,,,,0,,,51,40
35240,note_on,0,0,3,,,,,,,,,0,,,56,40
35240,note_on,0,0,3,,,,,,,,,0,,,60,0
35240,note_on,0,0,3,,,,,,,,,0,,,56,0
35240,note_on,40,0,3,,,,,,,,,0,,,51,0
35240,note_on,0,0,3,,,,,,,,,0,,,60,40
35280,note_on,40,0,3,,,,,,,,,0,,,51,0
35280,note_on,0,0,3,,,,,,,,,0,,,56,0
35280,note_on,0,0,3,,,,,,,,,0,,,60,0
35280,note_on,0,0,3,,,,,,,,,0,,,51,40
35280,note_on,0,0,3,,,,,,,,,0,,,56,40
35280,note_on,0,0,3,,,,,,,,,0,,,60,40
35280,note_on,0,0,1,,,,,,,,,0,,,80,0
35280,note_on,0,0,1,,,,,,,,,0,,,73,50
35280,note_on,240,0,1,,,,,,,,,0,,,68,0
35280,control_change,240,0,4,,,,,,,,,0,64,0,,
35320,note_on,0,0,3,,,,,,,,,0,,,51,40
35320,note_on,40,0,3,,,,,,,,,0,,,60,0
35320,note_on,0,0,3,,,,,,,,,0,,,56,0
35320,note_on,0,0,3,,,,,,,,,0,,,51,0
35320,note_on,0,0,3,,,,,,,,,0,,,56,40
35320,note_on,0,0,3,,,,,,,,,0,,,60,40
35340,note_on,0,0,1,,,,,,,,,0,,,72,50
35340,note_on,60,0,1,,,,,,,,,0,,,73,0
35360,note_on,0,0,3,,,,,,,,,0,,,60,40
35360,note_on,0,0,3,,,,,,,,,0,,,56,40
35360,note_on,0,0,3,,,,,,,,,0,,,51,40
35360,note_on,0,0,3,,,,,,,,,0,,,51,0
35360,note_on,0,0,3,,,,,,,,,0,,,56,0
35360,note_on,40,0,3,,,,,,,,,0,,,60,0
35400,note_on,0,0,1,,,,,,,,,0,,,71,50
35400,note_on,0,0,3,,,,,,,,,0,,,56,0
35400,note_on,0,0,3,,,,,,,,,0,,,51,0
35400,note_on,40,0,3,,,,,,,,,0,,,60,0
35400,note_on,60,0,1,,,,,,,,,0,,,72,0
35400,note_on,0,0,3,,,,,,,,,0,,,60,40
35400,note_on,0,0,3,,,,,,,,,0,,,56,40
35400,note_on,0,0,3,,,,,,,,,0,,,51,40
35440,note_on,40,0,3,,,,,,,,,0,,,51,0
35440,note_on,0,0,3,,,,,,,,,0,,,51,40
35440,note_on,0,0,3,,,,,,,,,0,,,56,40
35440,note_on,0,0,3,,,,,,,,,0,,,60,40
35440,note_on,0,0,3,,,,,,,,,0,,,56,0
35440,note_on,0,0,3,,,,,,,,,0,,,60,0
35460,note_on,0,0,1,,,,,,,,,0,,,72,50
35460,note_on,60,0,1,,,,,,,,,0,,,71,0
35480,note_on,40,0,3,,,,,,,,,0,,,51,0
35480,note_on,0,0,3,,,,,,,,,0,,,56,0
35480,note_on,0,0,3,,,,,,,,,0,,,60,0
35480,note_on,0,0,3,,,,,,,,,0,,,60,40
35480,note_on,0,0,3,,,,,,,,,0,,,56,40
35480,note_on,0,0,3,,,,,,,,,0,,,51,40
35505,note_on,45,0,1,,,,,,,,,0,,,72,50
35520,note_on,40,0,3,,,,,,,,,0,,,51,0
35520,note_on,0,0,3,,,,,,,,,0,,,60,0
35520,note_on,15,0,1,,,,,,,,,0,,,72,0
35520,control_change,240,0,4,,,,,,,,,0,64,127,,
35520,note_on,0,0,3,,,,,,,,,0,,,56,0
35520,note_on,0,0,1,,,,,,,,,0,,,72,0
35520,note_on,0,0,1,,,,,,,,,0,,,77,50
35520,note_on,0,0,3,,,,,,,,,0,,,37,40
35560,note_on,40,0,3,,,,,,,,,0,,,37,0
35560,note_on,0,0,3,,,,,,,,,0,,,60,40
35560,note_on,0,0,3,,,,,,,,,0,,,53,40
35560,note_on,0,0,3,,,,,,,,,0,,,49,40
35600,note_on,0,0,3,,,,,,,,,0,,,53,0
35600,note_on,40,0,3,,,,,,,,,0,,,49,0
35600,note_on,0,0,3,,,,,,,,,0,,,60,0
35600,note_on,0,0,3,,,,,,,,,0,,,53,40
35600,note_on,0,0,3,,,,,,,,,0,,,49,40
35600,note_on,0,0,3,,,,,,,,,0,,,60,40
35640,note_on,0,0,3,,,,,,,,,0,,,57,40
35640,note_on,0,0,3,,,,,,,,,0,,,53,0
35640,note_on,0,0,3,,,,,,,,,0,,,49,40
35640,note_on,40,0,3,,,,,,,,,0,,,49,0
35640,note_on,0,0,3,,,,,,,,,0,,,60,0
35640,note_on,0,0,3,,,,,,,,,0,,,53,40
35680,note_on,40,0,3,,,,,,,,,0,,,49,0
35680,note_on,0,0,3,,,,,,,,,0,,,53,0
35680,note_on,0,0,3,,,,,,,,,0,,,57,40
35680,note_on,0,0,3,,,,,,,,,0,,,53,40
35680,note_on,0,0,3,,,,,,,,,0,,,49,40
35680,note_on,0,0,3,,,,,,,,,0,,,57,0
35720,note_on,40,0,3,,,,,,,,,0,,,49,0
35720,note_on,0,0,3,,,,,,,,,0,,,53,0
35720,note_on,0,0,3,,,,,,,,,0,,,57,0
35720,note_on,0,0,3,,,,,,,,,0,,,57,40
35720,note_on,0,0,3,,,,,,,,,0,,,53,40
35720,note_on,0,0,3,,,,,,,,,0,,,49,40
35760,note_on,0,0,3,,,,,,,,,0,,,49,40
35760,note_on,0,0,3,,,,,,,,,0,,,53,40
35760,note_on,0,0,3,,,,,,,,,0,,,58,40
35760,note_on,0,0,3,,,,,,,,,0,,,57,0
35760,note_on,0,0,3,,,,,,,,,0,,,53,0
35760,note_on,40,0,3,,,,,,,,,0,,,49,0
35760,control_change,240,0,4,,,,,,,,,0,64,0,,
35760,note_on,240,0,1,,,,,,,,,0,,,77,0
35760,note_on,0,0,1,,,,,,,,,0,,,72,50
35800,note_on,0,0,3,,,,,,,,,0,,,53,0
35800,note_on,0,0,3,,,,,,,,,0,,,58,0
35800,note_on,0,0,3,,,,,,,,,0,,,58,40
35800,note_on,0,0,3,,,,,,,,,0,,,53,40
35800,note_on,0,0,3,,,,,,,,,0,,,49,40
35800,note_on,40,0,3,,,,,,,,,0,,,49,0
35820,note_on,0,0,1,,,,,,,,,0,,,70,50
35820,note_on,60,0,1,,,,,,,,,0,,,72,0
35840,note_on,0,0,3,,,,,,,,,0,,,53,40
35840,note_on,40,0,3,,,,,,,,,0,,,49,0
35840,note_on,0,0,3,,,,,,,,,0,,,53,0
35840,note_on,0,0,3,,,,,,,,,0,,,58,0
35840,note_on,0,0,3,,,,,,,,,0,,,58,40
35840,note_on,0,0,3,,,,,,,,,0,,,49,40
35880,note_on,0,0,3,,,,,,,,,0,,,53,40
35880,note_on,40,0,3,,,,,,,,,0,,,49,0
35880,note_on,0,0,3,,,,,,,,,0,,,53,0
35880,note_on,0,0,3,,,,,,,,,0,,,58,0
35880,note_on,0,0,3,,,,,,,,,0,,,58,40
35880,note_on,0,0,3,,,,,,,,,0,,,49,40
35880,note_on,60,0,1,,,,,,,,,0,,,70,0
35880,note_on,0,0,1,,,,,,,,,0,,,69,50
35920,note_on,0,0,3,,,,,,,,,0,,,58,0
35920,note_on,0,0,3,,,,,,,,,0,,,58,40
35920,note_on,0,0,3,,,,,,,,,0,,,53,40
35920,note_on,0,0,3,,,,,,,,,0,,,49,40
35920,note_on,40,0,3,,,,,,,,,0,,,49,0
35920,note_on,0,0,3,,,,,,,,,0,,,53,0
35940,note_on,0,0,1,,,,,,,,,0,,,70,50
35940,note_on,60,0,1,,,,,,,,,0,,,69,0
35960,note_on,40,0,3,,,,,,,,,0,,,49,0
35960,note_on,0,0,3,,,,,,,,,0,,,58,0
35960,note_on,0,0,3,,,,,,,,,0,,,58,40
35960,note_on,0,0,3,,,,,,,,,0,,,53,40
35960,note_on,0,0,3,,,,,,,,,0,,,49,40
35960,note_on,0,0,3,,,,,,,,,0,,,53,0
35985,note_on,45,0,1,,,,,,,,,0,,,70,50
36000,note_on,0,0,3,,,,,,,,,0,,,53,0
36000,note_on,0,0,3,,,,,,,,,0,,,58,0
36000,note_on,0,0,3,,,,,,,,,0,,,36,40
36000,note_on,40,0,3,,,,,,,,,0,,,49,0
36000,note_on,15,0,1,,,,,,,,,0,,,70,0
36000,note_on,0,0,1,,,,,,,,,0,,,75,50
36000,note_on,0,0,1,,,,,,,,,0,,,70,0
36000,control_change,240,0,4,,,,,,,,,0,64,127,,
36040,note_on,0,0,3,,,,,,,,,0,,,51,40
36040,note_on,0,0,3,,,,,,,,,0,,,48,40
36040,note_on,0,0,3,,,,,,,,,0,,,58,40
36040,note_on,40,0,3,,,,,,,,,0,,,36,0
36080,note_on,0,0,3,,,,,,,,,0,,,48,40
36080,note_on,40,0,3,,,,,,,,,0,,,48,0
36080,note_on,0,0,3,,,,,,,,,0,,,51,0
36080,note_on,0,0,3,,,,,,,,,0,,,51,40
36080,note_on,0,0,3,,,,,,,,,0,,,58,40
36080,note_on,0,0,3,,,,,,,,,0,,,58,0
36120,note_on,40,0,3,,,,,,,,,0,,,48,0
36120,note_on,0,0,3,,,,,,,,,0,,,51,40
36120,note_on,0,0,3,,,,,,,,,0,,,48,40
36120,note_on,0,0,3,,,,,,,,,0,,,58,0
36120,note_on,0,0,3,,,,,,,,,0,,,51,0
36120,note_on,0,0,3,,,,,,,,,0,,,55,40
36160,note_on,0,0,3,,,,,,,,,0,,,55,40
36160,note_on,0,0,3,,,,,,,,,0,,,51,0
36160,note_on,0,0,3,,,,,,,,,0,,,51,40
36160,note_on,0,0,3,,,,,,,,,0,,,48,40
36160,note_on,0,0,3,,,,,,,,,0,,,55,0
36160,note_on,40,0,3,,,,,,,,,0,,,48,0
36200,note_on,0,0,3,,,,,,,,,0,,,51,0
36200,note_on,0,0,3,,,,,,,,,0,,,55,0
36200,note_on,0,0,3,,,,,,,,,0,,,55,40
36200,note_on,0,0,3,,,,,,,,,0,,,51,40
36200,note_on,0,0,3,,,,,,,,,0,,,48,40
36200,note_on,40,0,3,,,,,,,,,0,,,48,0
36240,note_on,40,0,3,,,,,,,,,0,,,48,0
36240,note_on,0,0,3,,,,,,,,,0,,,51,0
36240,note_on,0,0,3,,,,,,,,,0,,,55,0
36240,note_on,0,0,3,,,,,,,,,0,,,56,40
36240,note_on,0,0,3,,,,,,,,,0,,,51,40
36240,control_change,240,0,4,,,,,,,,,0,64,0,,
36240,note_on,240,0,1,,,,,,,,,0,,,75,0
36240,note_on,0,0,1,,,,,,,,,0,,,73,50
36240,note_on,0,0,3,,,,,,,,,0,,,48,40
36280,note_on,40,0,3,,,,,,,,,0,,,48,0
36280,note_on,0,0,3,,,,,,,,,0,,,51,0
36280,note_on,0,0,3,,,,,,,,,0,,,56,0
36280,note_on,0,0,3,,,,,,,,,0,,,56,40
36280,note_on,0,0,3,,,,,,,,,0,,,51,40
36280,note_on,0,0,3,,,,,,,,,0,,,48,40
36300,note_on,0,0,1,,,,,,,,,0,,,72,50
36300,note_on,60,0,1,,,,,,,,,0,,,73,0
36320,note_on,0,0,3,,,,,,,,,0,,,56,0
36320,note_on,0,0,3,,,,,,,,,0,,,51,40
36320,note_on,0,0,3,,,,,,,,,0,,,48,40
36320,note_on,40,0,3,,,,,,,,,0,,,48,0
36320,note_on,0,0,3,,,,,,,,,0,,,51,0
36320,note_on,0,0,3,,,,,,,,,0,,,56,40
36360,note_on,0,0,3,,,,,,,,,0,,,56,40
36360,note_on,0,0,3,,,,,,,,,0,,,51,40
36360,note_on,0,0,3,,,,,,,,,0,,,56,0
36360,note_on,60,0,1,,,,,,,,,0,,,72,0
36360,note_on,0,0,3,,,,,,,,,0,,,51,0
36360,note_on,0,0,1,,,,,,,,,0,,,70,50
36360,note_on,0,0,3,,,,,,,,,0,,,48,40
36360,note_on,40,0,3,,,,,,,,,0,,,48,0
36400,note_on,40,0,3,,,,,,,,,0,,,48,0
36400,note_on,0,0,3,,,,,,,,,0,,,48,40
36400,note_on,0,0,3,,,,,,,,,0,,,51,40
36400,note_on,0,0,3,,,,,,,,,0,,,56,40
36400,note_on,0,0,3,,,,,,,,,0,,,56,0
36400,note_on,0,0,3,,,,,,,,,0,,,51,0
36420,note_on,60,0,1,,,,,,,,,0,,,70,0
36420,note_on,0,0,1,,,,,,,,,0,,,68,50
36440,note_on,0,0,3,,,,,,,,,0,,,56,0
36440,note_on,40,0,3,,,,,,,,,0,,,48,0
36440,note_on,0,0,3,,,,,,,,,0,,,56,40
36440,note_on,0,0,3,,,,,,,,,0,,,51,0
36440,note_on,0,0,3,,,,,,,,,0,,,48,40
36440,note_on,0,0,3,,,,,,,,,0,,,51,40
36480,note_on,0,0,3,,,,,,,,,0,,,37,40
36480,note_on,0,0,1,,,,,,,,,0,,,75,50
36480,note_on,40,0,3,,,,,,,,,0,,,48,0
36480,note_on,0,0,1,,,,,,,,,0,,,67,50
36480,note_on,60,0,1,,,,,,,,,0,,,68,0
36480,control_change,240,0,4,,,,,,,,,0,64,127,,
36480,note_on,0,0,3,,,,,,,,,0,,,51,0
36480,note_on,0,0,3,,,,,,,,,0,,,56,0
36480,set_tempo,1440,1,0,,,,,,536241,,,,,,,
36494,set_tempo,14,1,0,,,,,,537683,,,,,,,
36501,set_tempo,7,1,0,,,,,,539132,,,,,,,
36508,set_tempo,7,1,0,,,,,,540589,,,,,,,
36515,set_tempo,7,1,0,,,,,,542054,,,,,,,
36520,note_on,0,0,3,,,,,,,,,0,,,49,40
36520,note_on,0,0,3,,,,,,,,,0,,,53,40
36520,note_on,40,0,3,,,,,,,,,0,,,37,0
36522,set_tempo,7,1,0,,,,,,543527,,,,,,,
36529,set_tempo,7,1,0,,,,,,545009,,,,,,,
36536,set_tempo,7,1,0,,,,,,546498,,,,,,,
36540,note_on,60,0,1,,,,,,,,,0,,,75,0
36540,note_on,0,0,1,,,,,,,,,0,,,67,0
36540,note_on,0,0,1,,,,,,,,,0,,,73,50
36540,note_on,0,0,1,,,,,,,,,0,,,65,50
36543,set_tempo,7,1,0,,,,,,547995,,,,,,,
36550,set_tempo,7,1,0,,,,,,549501,,,,,,,
36557,set_tempo,7,1,0,,,,,,551015,,,,,,,
36560,note_on,0,0,3,,,,,,,,,0,,,53,40
36560,note_on,40,0,3,,,,,,,,,0,,,49,0
36560,note_on,0,0,3,,,,,,,,,0,,,53,0
36560,note_on,0,0,3,,,,,,,,,0,,,49,40
36564,set_tempo,7,1,0,,,,,,552537,,,,,,,
36571,set_tempo,7,1,0,,,,,,554068,,,,,,,
36578,set_tempo,7,1,0,,,,,,555607,,,,,,,
36585,set_tempo,7,1,0,,,,,,557155,,,,,,,
36592,set_tempo,7,1,0,,,,,,558711,,,,,,,
36600,note_on,0,0,3,,,,,,,,,0,,,53,40
36600,set_tempo,8,1,0,,,,,,560276,,,,,,,
36600,note_on,0,0,3,,,,,,,,,0,,,49,40
36600,note_on,60,0,1,,,,,,,,,0,,,73,0
36600,control_change,120,0,4,,,,,,,,,0,64,0,,
36600,note_on,0,0,1,,,,,,,,,0,,,63,50
36600,note_on,0,0,1,,,,,,,,,0,,,65,0
36600,note_on,40,0,3,,,,,,,,,0,,,49,0
36600,note_on,0,0,3,,,,,,,,,0,,,53,0
36600,note_on,0,0,1,,,,,,,,,0,,,72,50
36607,set_tempo,7,1,0,,,,,,561850,,,,,,,
36614,set_tempo,7,1,0,,,,,,563433,,,,,,,
36621,set_tempo,7,1,0,,,,,,565025,,,,,,,
36628,set_tempo,7,1,0,,,,,,566626,,,,,,,
36635,set_tempo,7,1,0,,,,,,568236,,,,,,,
36640,note_on,0,0,3,,,,,,,,,0,,,49,40
36640,note_on,0,0,3,,,,,,,,,0,,,53,40
36640,note_on,0,0,3,,,,,,,,,0,,,53,0
36640,note_on,40,0,3,,,,,,,,,0,,,49,0
36642,set_tempo,7,1,0,,,,,,569855,,,,,,,
36649,set_tempo,7,1,0,,,,,,571483,,,,,,,
36656,set_tempo,7,1,0,,,,,,573121,,,,,,,
36660,note_on,0,0,1,,,,,,,,,0,,,70,50
36660,note_on,60,0,1,,,,,,,,,0,,,72,0
36660,note_on,0,0,1,,,,,,,,,0,,,63,0
36660,note_on,0,0,1,,,,,,,,,0,,,61,50
36663,set_tempo,7,1,0,,,,,,574768,,,,,,,
36670,set_tempo,7,1,0,,,,,,576424,,,,,,,
36677,set_tempo,7,1,0,,,,,,578090,,,,,,,
36680,note_on,40,0,3,,,,,,,,,0,,,49,0
36680,note_on,0,0,3,,,,,,,,,0,,,53,0
36680,note_on,0,0,3,,,,,,,,,0,,,53,40
36680,note_on,0,0,3,,,,,,,,,0,,,49,40
36684,set_tempo,7,1,0,,,,,,579766,,,,,,,
36691,set_tempo,7,1,0,,,,,,581452,,,,,,,
36698,set_tempo,7,1,0,,,,,,583147,,,,,,,
36705,set_tempo,7,1,0,,,,,,584852,,,,,,,
36712,set_tempo,7,1,0,,,,,,586568,,,,,,,
36720,note_on,0,0,3,,,,,,,,,0,,,53,0
36720,note_on,0,0,3,,,,,,,,,0,,,39,40
36720,note_on,0,0,1,,,,,,,,,0,,,61,0
36720,note_on,0,0,1,,,,,,,,,0,,,60,50
36720,note_on,0,0,1,,,,,,,,,0,,,68,50
36720,note_on,60,0,1,,,,,,,,,0,,,70,0
36720,set_tempo,8,1,0,,,,,,588293,,,,,,,
36720,control_change,120,0,4,,,,,,,,,0,64,127,,
36720,note_on,40,0,3,,,,,,,,,0,,,49,0
36727,set_tempo,7,1,0,,,,,,590029,,,,,,,
36734,set_tempo,7,1,0,,,,,,591774,,,,,,,
36741,set_tempo,7,1,0,,,,,,593531,,,,,,,
36748,set_tempo,7,1,0,,,,,,595297,,,,,,,
36755,set_tempo,7,1,0,,,,,,597074,,,,,,,
36760,note_on,0,0,3,,,,,,,,,0,,,51,40
36760,note_on,0,0,3,,,,,,,,,0,,,56,40
36760,note_on,40,0,3,,,,,,,,,0,,,39,0
36762,set_tempo,7,1,0,,,,,,598862,,,,,,,
36769,set_tempo,7,1,0,,,,,,600661,,,,,,,
36776,set_tempo,7,1,0,,,,,,602470,,,,,,,
36783,set_tempo,7,1,0,,,,,,604290,,,,,,,
36790,set_tempo,7,1,0,,,,,,606122,,,,,,,
36797,set_tempo,7,1,0,,,,,,607964,,,,,,,
36800,note_on,40,0,3,,,,,,,,,0,,,51,0
36800,note_on,0,0,3,,,,,,,,,0,,,56,0
36800,note_on,0,0,3,,,,,,,,,0,,,56,40
36800,note_on,0,0,3,,,,,,,,,0,,,51,40
36804,set_tempo,7,1,0,,,,,,609818,,,,,,,
36811,set_tempo,7,1,0,,,,,,611683,,,,,,,
36818,set_tempo,7,1,0,,,,,,613560,,,,,,,
36825,set_tempo,7,1,0,,,,,,615448,,,,,,,
36825,control_change,105,0,4,,,,,,,,,0,64,0,,
36832,set_tempo,7,1,0,,,,,,617347,,,,,,,
36840,control_change,15,0,4,,,,,,,,,0,64,127,,
36840,note_on,0,0,1,,,,,,,,,0,,,60,0
36840,note_on,0,0,1,,,,,,,,,0,,,63,50
36840,note_on,0,0,1,,,,,,,,,0,,,72,50
36840,note_on,120,0,1,,,,,,,,,0,,,68,0
36840,note_on,40,0,3,,,,,,,,,0,,,51,0
36840,note_on,0,0,3,,,,,,,,,0,,,56,0
36840,note_on,0,0,3,,,,,,,,,0,,,39,40
36840,set_tempo,8,1,0,,,,,,619259,,,,,,,
36847,set_tempo,7,1,0,,,,,,621182,,,,,,,
36854,set_tempo,7,1,0,,,,,,623118,,,,,,,
36861,set_tempo,7,1,0,,,,,,625065,,,,,,,
36868,set_tempo,7,1,0,,,,,,627025,,,,,,,
36875,set_tempo,7,1,0,,,,,,628997,,,,,,,
36880,note_on,0,0,3,,,,,,,,,0,,,51,40
36880,note_on,0,0,3,,,,,,,,,0,,,55,40
36880,note_on,40,0,3,,,,,,,,,0,,,39,0
36882,set_tempo,7,1,0,,,,,,630981,,,,,,,
36889,set_tempo,7,1,0,,,,,,632978,,,,,,,
36896,set_tempo,7,1,0,,,,,,634988,,,,,,,
36903,set_tempo,7,1,0,,,,,,637010,,,,,,,
36910,set_tempo,7,1,0,,,,,,639046,,,,,,,
36917,set_tempo,7,1,0,,,,,,641094,,,,,,,
36920,note_on,40,0,3,,,,,,,,,0,,,51,0
36920,note_on,0,0,3,,,,,,,,,0,,,55,0
36920,note_on,0,0,3,,,,,,,,,0,,,55,40
36920,note_on,0,0,3,,,,,,,,,0,,,51,40
36924,set_tempo,7,1,0,,,,,,643156,,,,,,,
36930,note_on,90,0,1,,,,,,,,,0,,,72,0
36930,note_on,0,0,1,,,,,,,,,0,,,70,50
36930,note_on,0,0,1,,,,,,,,,0,,,63,0
36930,note_on,0,0,1,,,,,,,,,0,,,61,50
36931,set_tempo,7,1,0,,,,,,645231,,,,,,,
36938,set_tempo,7,1,0,,,,,,647319,,,,,,,
36945,control_change,105,0,4,,,,,,,,,0,64,0,,
36945,set_tempo,7,1,0,,,,,,649421,,,,,,,
36952,set_tempo,7,1,0,,,,,,651537,,,,,,,
36960,note_on,0,0,1,,,,,,,,,0,,,60,50
36960,note_on,0,0,1,,,,,,,,,0,,,61,0
36960,note_on,30,0,1,,,,,,,,,0,,,70,0
36960,note_on,0,0,1,,,,,,,,,0,,,68,50
36960,control_change,15,0,4,,,,,,,,,0,64,127,,
36960,set_tempo,8,1,0,,,,,,535714,,,,,,,
36960,note_on,40,0,3,,,,,,,,,0,,,51,0
36960,note_on,0,0,3,,,,,,,,,0,,,55,0
36960,note_on,0,0,3,,,,,,,,,0,,,44,40
37000,note_on,40,0,3,,,,,,,,,0,,,44,0
37000,note_on,0,0,3,,,,,,,,,0,,,60,40
37000,note_on,0,0,3,,,,,,,,,0,,,56,40
37000,note_on,0,0,3,,,,,,,,,0,,,51,40
37040,note_on,0,0,3,,,,,,,,,0,,,56,40
37040,note_on,0,0,3,,,,,,,,,0,,,51,40
37040,note_on,0,0,3,,,,,,,,,0,,,60,40
37040,note_on,40,0,3,,,,,,,,,0,,,51,0
37040,note_on,0,0,3,,,,,,,,,0,,,56,0
37040,note_on,0,0,3,,,,,,,,,0,,,60,0
37080,note_on,0,0,1,,,,,,,,,0,,,60,0
37080,control_change,120,0,4,,,,,,,,,0,64,0,,
37080,note_on,0,0,3,,,,,,,,,0,,,56,40
37080,note_on,0,0,3,,,,,,,,,0,,,51,40
37080,note_on,120,0,1,,,,,,,,,0,,,68,0
37080,note_on,0,0,3,,,,,,,,,0,,,60,0
37080,note_on,0,0,3,,,,,,,,,0,,,56,0
37080,note_on,40,0,3,,,,,,,,,0,,,51,0
37080,note_on,0,0,3,,,,,,,,,0,,,60,40
37120,note_on,40,0,3,,,,,,,,,0,,,51,0
37120,note_on,0,0,3,,,,,,,,,0,,,60,40
37120,note_on,0,0,3,,,,,,,,,0,,,56,40
37120,note_on,0,0,3,,,,,,,,,0,,,51,40
37120,note_on,0,0,3,,,,,,,,,0,,,60,0
37120,note_on,0,0,3,,,,,,,,,0,,,56,0
37160,note_on,0,0,3,,,,,,,,,0,,,60,0
37160,note_on,0,0,3,,,,,,,,,0,,,56,0
37160,note_on,40,0,3,,,,,,,,,0,,,51,0
37160,note_on,0,0,3,,,,,,,,,0,,,56,40
37160,note_on,0,0,3,,,,,,,,,0,,,51,40
37160,note_on,0,0,3,,,,,,,,,0,,,60,40
37200,note_on,40,0,3,,,,,,,,,0,,,51,0
37200,note_on,0,0,3,,,,,,,,,0,,,56,0
37200,note_on,0,0,3,,,,,,,,,0,,,60,0
37200,note_on,0,0,3,,,,,,,,,0,,,51,40
37200,note_on,0,0,3,,,,,,,,,0,,,56,40
37200,note_on,0,0,3,,,,,,,,,0,,,60,40
37200,note_on,120,0,1,,,,,,,,,0,,,73,50
37240,note_on,0,0,3,,,,,,,,,0,,,51,40
37240,note_on,0,0,3,,,,,,,,,0,,,56,40
37240,note_on,0,0,3,,,,,,,,,0,,,60,40
37240,note_on,0,0,3,,,,,,,,,0,,,60,0
37240,note_on,0,0,3,,,,,,,,,0,,,56,0
37240,note_on,40,0,3,,,,,,,,,0,,,51,0
37260,note_on,60,0,1,,,,,,,,,0,,,73,0
37260,note_on,0,0,1,,,,,,,,,0,,,72,50
37280,note_on,0,0,3,,,,,,,,,0,,,60,40
37280,note_on,0,0,3,,,,,,,,,0,,,60,0
37280,note_on,0,0,3,,,,,,,,,0,,,56,0
37280,note_on,40,0,3,,,,,,,,,0,,,51,0
37280,note_on,0,0,3,,,,,,,,,0,,,51,40
37280,note_on,0,0,3,,,,,,,,,0,,,56,40
37320,note_on,40,0,3,,,,,,,,,0,,,51,0
37320,note_on,0,0,3,,,,,,,,,0,,,51,40
37320,note_on,0,0,3,,,,,,,,,0,,,56,40
37320,note_on,0,0,3,,,,,,,,,0,,,60,40
37320,note_on,0,0,3,,,,,,,,,0,,,60,0
37320,note_on,0,0,1,,,,,,,,,0,,,71,50
37320,note_on,60,0,1,,,,,,,,,0,,,72,0
37320,note_on,0,0,3,,,,,,,,,0,,,56,0
37360,note_on,0,0,3,,,,,,,,,0,,,51,40
37360,note_on,0,0,3,,,,,,,,,0,,,56,0
37360,note_on,40,0,3,,,,,,,,,0,,,51,0
37360,note_on,0,0,3,,,,,,,,,0,,,60,0
37360,note_on,0,0,3,,,,,,,,,0,,,60,40
37360,note_on,0,0,3,,,,,,,,,0,,,56,40
37380,note_on,60,0,1,,,,,,,,,0,,,71,0
37380,note_on,0,0,1,,,,,,,,,0,,,72,50
37400,note_on,0,0,3,,,,,,,,,0,,,60,0
37400,note_on,0,0,3,,,,,,,,,0,,,51,40
37400,note_on,0,0,3,,,,,,,,,0,,,56,40
37400,note_on,0,0,3,,,,,,,,,0,,,56,0
37400,note_on,0,0,3,,,,,,,,,0,,,60,40
37400,note_on,40,0,3,,,,,,,,,0,,,51,0
37440,control_change,360,0,4,,,,,,,,,0,64,127,,
37440,note_on,0,0,1,,,,,,,,,0,,,77,50
37440,note_on,0,0,1,,,,,,,,,0,,,84,50
37440,note_on,40,0,3,,,,,,,,,0,,,51,0
37440,note_on,0,0,3,,,,,,,,,0,,,56,0
37440,note_on,0,0,3,,,,,,,,,0,,,60,0
37440,note_on,0,0,3,,,,,,,,,0,,,37,40
37440,note_on,60,0,1,,,,,,,,,0,,,72,0
37480,note_on,0,0,3,,,,,,,,,0,,,49,40
37480,note_on,40,0,3,,,,,,,,,0,,,37,0
37480,note_on,0,0,3,,,,,,,,,0,,,60,40
37480,note_on,0,0,3,,,,,,,,,0,,,53,40
37500,note_on,0,0,1,,,,,,,,,0,,,82,50
37500,note_on,60,0,1,,,,,,,,,0,,,84,0
37520,note_on,0,0,3,,,,,,,,,0,,,60,0
37520,note_on,0,0,3,,,,,,,,,0,,,53,0
37520,note_on,0,0,3,,,,,,,,,0,,,60,40
37520,note_on,0,0,3,,,,,,,,,0,,,53,40
37520,note_on,0,0,3,,,,,,,,,0,,,49,40
37520,note_on,40,0,3,,,,,,,,,0,,,49,0
37560,note_on,40,0,3,,,,,,,,,0,,,49,0
37560,note_on,0,0,3,,,,,,,,,0,,,53,0
37560,note_on,0,0,3,,,,,,,,,0,,,60,0
37560,note_on,0,0,3,,,,,,,,,0,,,60,40
37560,note_on,60,0,1,,,,,,,,,0,,,82,0
37560,note_on,0,0,3,,,,,,,,,0,,,53,40
37560,control_change,120,0,4,,,,,,,,,0,64,0,,
37560,note_on,0,0,1,,,,,,,,,0,,,81,50
37560,note_on,0,0,3,,,,,,,,,0,,,49,40
37600,note_on,0,0,3,,,,,,,,,0,,,53,0
37600,note_on,0,0,3,,,,,,,,,0,,,60,0
37600,note_on,0,0,3,,,,,,,,,0,,,60,40
37600,note_on,0,0,3,,,,,,,,,0,,,53,40
37600,note_on,0,0,3,,,,,,,,,0,,,49,40
37600,note_on,40,0,3,,,,,,,,,0,,,49,0
37620,note_on,0,0,1,,,,,,,,,0,,,82,50
37620,note_on,60,0,1,,,,,,,,,0,,,81,0
37640,note_on,40,0,3,,,,,,,,,0,,,49,0
37640,note_on,0,0,3,,,,,,,,,0,,,53,0
37640,note_on,0,0,3,,,,,,,,,0,,,60,0
37640,note_on,0,0,3,,,,,,,,,0,,,60,40
37640,note_on,0,0,3,,,,,,,,,0,,,53,40
37640,note_on,0,0,3,,,,,,,,,0,,,49,40
37680,note_on,0,0,1,,,,,,,,,0,,,77,0
37680,note_on,0,0,3,,,,,,,,,0,,,49,40
37680,note_on,0,0,3,,,,,,,,,0,,,53,0
37680,note_on,0,0,3,,,,,,,,,0,,,58,40
37680,note_on,0,0,3,,,,,,,,,0,,,60,0
37680,note_on,0,0,1,,,,,,,,,0,,,72,50
37680,note_on,40,0,3,,,,,,,,,0,,,49,0
37680,note_on,0,0,3,,,,,,,,,0,,,53,40
37680,note_on,60,0,1,,,,,,,,,0,,,82,0
37720,note_on,0,0,3,,,,,,,,,0,,,53,40
37720,note_on,0,0,3,,,,,,,,,0,,,58,40
37720,note_on,0,0,3,,,,,,,,,0,,,58,0
37720,note_on,0,0,3,,,,,,,,,0,,,53,0
37720,note_on,0,0,3,,,,,,,,,0,,,49,40
37720,note_on,40,0,3,,,,,,,,,0,,,49,0
37740,note_on,60,0,1,,,,,,,,,0,,,72,0
37740,note_on,0,0,1,,,,,,,,,0,,,70,50
37760,note_on,0,0,3,,,,,,,,,0,,,53,0
37760,note_on,0,0,3,,,,,,,,,0,,,58,0
37760,note_on,0,0,3,,,,,,,,,0,,,53,40
37760,note_on,0,0,3,,,,,,,,,0,,,49,40
37760,note_on,40,0,3,,,,,,,,,0,,,49,0
37760,note_on,0,0,3,,,,,,,,,0,,,58,40
37800,note_on,0,0,3,,,,,,,,,0,,,53,40
37800,note_on,0,0,3,,,,,,,,,0,,,58,40
37800,note_on,0,0,3,,,,,,,,,0,,,58,0
37800,note_on,0,0,3,,,,,,,,,0,,,53,0
37800,note_on,40,0,3,,,,,,,,,0,,,49,0
37800,note_on,0,0,1,,,,,,,,,0,,,69,50
37800,note_on,60,0,1,,,,,,,,,0,,,70,0
37800,note_on,0,0,3,,,,,,,,,0,,,49,40
37840,note_on,0,0,3,,,,,,,,,0,,,58,0
37840,note_on,0,0,3,,,,,,,,,0,,,53,0
37840,note_on,40,0,3,,,,,,,,,0,,,49,0
37840,note_on,0,0,3,,,,,,,,,0,,,53,40
37840,note_on,0,0,3,,,,,,,,,0,,,49,40
37840,note_on,0,0,3,,,,,,,,,0,,,58,40
37860,note_on,0,0,1,,,,,,,,,0,,,70,50
37860,note_on,60,0,1,,,,,,,,,0,,,69,0
37880,note_on,40,0,3,,,,,,,,,0,,,49,0
37880,note_on,0,0,3,,,,,,,,,0,,,58,0
37880,note_on,0,0,3,,,,,,,,,0,,,58,40
37880,note_on,0,0,3,,,,,,,,,0,,,53,40
37880,note_on,0,0,3,,,,,,,,,0,,,49,40
37880,note_on,0,0,3,,,,,,,,,0,,,53,0
37920,control_change,360,0,4,,,,,,,,,0,64,127,,
37920,note_on,0,0,1,,,,,,,,,0,,,75,50
37920,note_on,0,0,1,,,,,,,,,0,,,82,50
37920,note_on,60,0,1,,,,,,,,,0,,,70,0
37920,note_on,40,0,3,,,,,,,,,0,,,49,0
37920,note_on,0,0,3,,,,,,,,,0,,,53,0
37920,note_on,0,0,3,,,,,,,,,0,,,36,40
37920,note_on,0,0,3,,,,,,,,,0,,,58,0
37960,note_on,0,0,3,,,,,,,,,0,,,58,40
37960,note_on,0,0,3,,,,,,,,,0,,,51,40
37960,note_on,0,0,3,,,,,,,,,0,,,48,40
37960,note_on,40,0,3,,,,,,,,,0,,,36,0
37980,note_on,0,0,1,,,,,,,,,0,,,80,50
37980,note_on,60,0,1,,,,,,,,,0,,,82,0
38000,note_on,0,0,3,,,,,,,,,0,,,51,0
38000,note_on,40,0,3,,,,,,,,,0,,,48,0
38000,note_on,0,0,3,,,,,,,,,0,,,58,0
38000,note_on,0,0,3,,,,,,,,,0,,,51,40
38000,note_on,0,0,3,,,,,,,,,0,,,58,40
38000,note_on,0,0,3,,,,,,,,,0,,,48,40
38040,note_on,0,0,3,,,,,,,,,0,,,58,40
38040,note_on,0,0,3,,,,,,,,,0,,,48,40
38040,note_on,0,0,3,,,,,,,,,0,,,51,40
38040,note_on,0,0,3,,,,,,,,,0,,,51,0
38040,note_on,0,0,1,,,,,,,,,0,,,79,50
38040,note_on,40,0,3,,,,,,,,,0,,,48,0
38040,note_on,60,0,1,,,,,,,,,0,,,80,0
38040,note_on,0,0,3,,,,,,,,,0,,,58,0
38040,control_change,120,0,4,,,,,,,,,0,64,0,,
38080,note_on,40,0,3,,,,,,,,,0,,,48,0
38080,note_on,0,0,3,,,,,,,,,0,,,51,0
38080,note_on,0,0,3,,,,,,,,,0,,,58,0
38080,note_on,0,0,3,,,,,,,,,0,,,58,40
38080,note_on,0,0,3,,,,,,,,,0,,,51,40
38080,note_on,0,0,3,,,,,,,,,0,,,48,40
38100,note_on,0,0,1,,,,,,,,,0,,,80,50
38100,note_on,60,0,1,,,,,,,,,0,,,79,0
38120,note_on,0,0,3,,,,,,,,,0,,,58,0
38120,note_on,40,0,3,,,,,,,,,0,,,48,0
38120,note_on,0,0,3,,,,,,,,,0,,,51,0
38120,note_on,0,0,3,,,,,,,,,0,,,58,40
38120,note_on,0,0,3,,,,,,,,,0,,,51,40
38120,note_on,0,0,3,,,,,,,,,0,,,48,40
38160,note_on,0,0,3,,,,,,,,,0,,,56,40
38160,note_on,40,0,3,,,,,,,,,0,,,48,0
38160,note_on,0,0,3,,,,,,,,,0,,,51,0
38160,note_on,60,0,1,,,,,,,,,0,,,80,0
38160,note_on,0,0,3,,,,,,,,,0,,,58,0
38160,note_on,0,0,1,,,,,,,,,0,,,75,0
38160,note_on,0,0,1,,,,,,,,,0,,,73,50
38160,note_on,0,0,3,,,,,,,,,0,,,48,40
38160,note_on,0,0,3,,,,,,,,,0,,,51,40
38200,note_on,0,0,3,,,,,,,,,0,,,56,40
38200,note_on,0,0,3,,,,,,,,,0,,,51,0
38200,note_on,0,0,3,,,,,,,,,0,,,51,40
38200,note_on,40,0,3,,,,,,,,,0,,,48,0
38200,note_on,0,0,3,,,,,,,,,0,,,56,0
38200,note_on,0,0,3,,,,,,,,,0,,,48,40
38220,note_on,0,0,1,,,,,,,,,0,,,72,50
38220,note_on,60,0,1,,,,,,,,,0,,,73,0
38240,note_on,0,0,3,,,,,,,,,0,,,51,0
38240,note_on,40,0,3,,,,,,,,,0,,,48,0
38240,note_on,0,0,3,,,,,,,,,0,,,56,0
38240,note_on,0,0,3,,,,,,,,,0,,,56,40
38240,note_on,0,0,3,,,,,,,,,0,,,51,40
38240,note_on,0,0,3,,,,,,,,,0,,,48,40
38280,note_on,60,0,1,,,,,,,,,0,,,72,0
38280,note_on,0,0,1,,,,,,,,,0,,,70,50
38280,note_on,40,0,3,,,,,,,,,0,,,48,0
38280,note_on,0,0,3,,,,,,,,,0,,,51,0
38280,note_on,0,0,3,,,,,,,,,0,,,56,0
38280,note_on,0,0,3,,,,,,,,,0,,,56,40
38280,note_on,0,0,3,,,,,,,,,0,,,51,40
38280,note_on,0,0,3,,,,,,,,,0,,,48,40
38320,note_on,0,0,3,,,,,,,,,0,,,56,0
38320,note_on,0,0,3,,,,,,,,,0,,,51,0
38320,note_on,0,0,3,,,,,,,,,0,,,51,40
38320,note_on,0,0,3,,,,,,,,,0,,,48,40
38320,note_on,40,0,3,,,,,,,,,0,,,48,0
38320,note_on,0,0,3,,,,,,,,,0,,,56,40
38340,note_on,0,0,1,,,,,,,,,0,,,68,50
38340,note_on,60,0,1,,,,,,,,,0,,,70,0
38360,note_on,40,0,3,,,,,,,,,0,,,48,0
38360,note_on,0,0,3,,,,,,,,,0,,,51,0
38360,note_on,0,0,3,,,,,,,,,0,,,56,0
38360,note_on,0,0,3,,,,,,,,,0,,,56,40
38360,note_on,0,0,3,,,,,,,,,0,,,51,40
38360,note_on,0,0,3,,,,,,,,,0,,,48,40
38400,control_change,360,0,4,,,,,,,,,0,64,127,,
38400,note_on,40,0,3,,,,,,,,,0,,,48,0
38400,note_on,0,0,1,,,,,,,,,0,,,67,50
38400,note_on,0,0,1,,,,,,,,,0,,,75,50
38400,note_on,0,0,1,,,,,,,,,0,,,79,50
38400,set_tempo,1440,1,0,,,,,,536241,,,,,,,
38400,note_on,60,0,1,,,,,,,,,0,,,68,0
38400,note_on,0,0,3,,,,,,,,,0,,,37,40
38400,note_on,0,0,3,,,,,,,,,0,,,56,0
38400,note_on,0,0,3,,,,,,,,,0,,,51,0
38414,set_tempo,14,1,0,,,,,,537683,,,,,,,
38421,set_tempo,7,1,0,,,,,,539132,,,,,,,
38428,set_tempo,7,1,0,,,,,,540589,,,,,,,
38435,set_tempo,7,1,0,,,,,,542054,,,,,,,
38440,note_on,0,0,3,,,,,,,,,0,,,53,40
38440,note_on,0,0,3,,,,,,,,,0,,,49,40
38440,note_on,40,0,3,,,,,,,,,0,,,37,0
38440,note_on,0,0,3,,,,,,,,,0,,,56,40
38442,set_tempo,7,1,0,,,,,,543527,,,,,,,
38449,set_tempo,7,1,0,,,,,,545009,,,,,,,
38456,set_tempo,7,1,0,,,,,,546498,,,,,,,
38460,note_on,0,0,1,,,,,,,,,0,,,77,50
38460,note_on,60,0,1,,,,,,,,,0,,,67,0
38460,note_on,0,0,1,,,,,,,,,0,,,75,0
38460,note_on,0,0,1,,,,,,,,,0,,,79,0
38460,note_on,0,0,1,,,,,,,,,0,,,65,50
38460,note_on,0,0,1,,,,,,,,,0,,,73,50
38463,set_tempo,7,1,0,,,,,,547995,,,,,,,
38470,set_tempo,7,1,0,,,,,,549501,,,,,,,
38477,set_tempo,7,1,0,,,,,,551015,,,,,,,
38480,note_on,0,0,3,,,,,,,,,0,,,56,40
38480,note_on,0,0,3,,,,,,,,,0,,,53,40
38480,note_on,0,0,3,,,,,,,,,0,,,53,0
38480,note_on,40,0,3,,,,,,,,,0,,,49,0
38480,note_on,0,0,3,,,,,,,,,0,,,49,40
38480,note_on,0,0,3,,,,,,,,,0,,,56,0
38484,set_tempo,7,1,0,,,,,,552537,,,,,,,
38491,set_tempo,7,1,0,,,,,,554068,,,,,,,
38498,set_tempo,7,1,0,,,,,,555607,,,,,,,
38505,set_tempo,7,1,0,,,,,,557155,,,,,,,
38512,set_tempo,7,1,0,,,,,,558711,,,,,,,
38520,note_on,0,0,1,,,,,,,,,0,,,72,50
38520,note_on,0,0,3,,,,,,,,,0,,,53,40
38520,note_on,0,0,3,,,,,,,,,0,,,57,40
38520,note_on,0,0,3,,,,,,,,,0,,,56,0
38520,note_on,0,0,3,,,,,,,,,0,,,53,0
38520,control_change,120,0,4,,,,,,,,,0,64,0,,
38520,note_on,0,0,1,,,,,,,,,0,,,75,50
38520,note_on,40,0,3,,,,,,,,,0,,,49,0
38520,note_on,0,0,1,,,,,,,,,0,,,77,0
38520,note_on,0,0,1,,,,,,,,,0,,,73,0
38520,note_on,60,0,1,,,,,,,,,0,,,65,0
38520,set_tempo,8,1,0,,,,,,560276,,,,,,,
38520,note_on,0,0,1,,,,,,,,,0,,,63,50
38520,note_on,0,0,3,,,,,,,,,0,,,49,40
38527,set_tempo,7,1,0,,,,,,561850,,,,,,,
38534,set_tempo,7,1,0,,,,,,563433,,,,,,,
38541,set_tempo,7,1,0,,,,,,565025,,,,,,,
38548,set_tempo,7,1,0,,,,,,566626,,,,,,,
38555,set_tempo,7,1,0,,,,,,568236,,,,,,,
38560,note_on,0,0,3,,,,,,,,,0,,,49,40
38560,note_on,40,0,3,,,,,,,,,0,,,49,0
38560,note_on,0,0,3,,,,,,,,,0,,,53,0
38560,note_on,0,0,3,,,,,,,,,0,,,57,0
38560,note_on,0,0,3,,,,,,,,,0,,,53,40
38560,note_on,0,0,3,,,,,,,,,0,,,57,40
38562,set_tempo,7,1,0,,,,,,569855,,,,,,,
38569,set_tempo,7,1,0,,,,,,571483,,,,,,,
38576,set_tempo,7,1,0,,,,,,573121,,,,,,,
38580,note_on,0,0,1,,,,,,,,,0,,,72,0
38580,note_on,0,0,1,,,,,,,,,0,,,75,0
38580,note_on,0,0,1,,,,,,,,,0,,,73,50
38580,note_on,0,0,1,,,,,,,,,0,,,70,50
38580,note_on,0,0,1,,,,,,,,,0,,,61,50
38580,note_on,60,0,1,,,,,,,,,0,,,63,0
38583,set_tempo,7,1,0,,,,,,574768,,,,,,,
38590,set_tempo,7,1,0,,,,,,576424,,,,,,,
38597,set_tempo,7,1,0,,,,,,578090,,,,,,,
38600,note_on,0,0,3,,,,,,,,,0,,,49,40
38600,note_on,0,0,3,,,,,,,,,0,,,53,40
38600,note_on,0,0,3,,,,,,,,,0,,,58,40
38600,note_on,0,0,3,,,,,,,,,0,,,57,0
38600,note_on,0,0,3,,,,,,,,,0,,,53,0
38600,note_on,40,0,3,,,,,,,,,0,,,49,0
38604,set_tempo,7,1,0,,,,,,579766,,,,,,,
38611,set_tempo,7,1,0,,,,,,581452,,,,,,,
38618,set_tempo,7,1,0,,,,,,583147,,,,,,,
38625,set_tempo,7,1,0,,,,,,584852,,,,,,,
38632,set_tempo,7,1,0,,,,,,586568,,,,,,,
38640,set_tempo,8,1,0,,,,,,588293,,,,,,,
38640,note_on,60,0,1,,,,,,,,,0,,,61,0
38640,note_on,0,0,1,,,,,,,,,0,,,73,0
38640,control_change,120,0,4,,,,,,,,,0,64,127,,
38640,note_on,40,0,3,,,,,,,,,0,,,49,0
38640,note_on,0,0,3,,,,,,,,,0,,,53,0
38640,note_on,0,0,3,,,,,,,,,0,,,58,0
38640,note_on,0,0,3,,,,,,,,,0,,,39,40
38640,note_on,0,0,1,,,,,,,,,0,,,70,0
38640,note_on,0,0,1,,,,,,,,,0,,,60,50
38640,note_on,0,0,1,,,,,,,,,0,,,68,50
38640,note_on,0,0,1,,,,,,,,,0,,,72,50
38647,set_tempo,7,1,0,,,,,,590029,,,,,,,
38654,set_tempo,7,1,0,,,,,,591774,,,,,,,
38661,set_tempo,7,1,0,,,,,,593531,,,,,,,
38668,set_tempo,7,1,0,,,,,,595297,,,,,,,
38675,set_tempo,7,1,0,,,,,,597074,,,,,,,
38680,note_on,0,0,3,,,,,,,,,0,,,51,40
38680,note_on,0,0,3,,,,,,,,,0,,,56,40
38680,note_on,40,0,3,,,,,,,,,0,,,39,0
38682,set_tempo,7,1,0,,,,,,598862,,,,,,,
38689,set_tempo,7,1,0,,,,,,600661,,,,,,,
38696,set_tempo,7,1,0,,,,,,602470,,,,,,,
38703,set_tempo,7,1,0,,,,,,604290,,,,,,,
38710,set_tempo,7,1,0,,,,,,606122,,,,,,,
38717,set_tempo,7,1,0,,,,,,607964,,,,,,,
38720,note_on,0,0,3,,,,,,,,,0,,,51,40
38720,note_on,0,0,3,,,,,,,,,0,,,56,40
38720,note_on,0,0,3,,,,,,,,,0,,,56,0
38720,note_on,40,0,3,,,,,,,,,0,,,51,0
38724,set_tempo,7,1,0,,,,,,609818,,,,,,,
38731,set_tempo,7,1,0,,,,,,611683,,,,,,,
38738,set_tempo,7,1,0,,,,,,613560,,,,,,,
38745,set_tempo,7,1,0,,,,,,615448,,,,,,,
38745,control_change,105,0,4,,,,,,,,,0,64,0,,
38752,set_tempo,7,1,0,,,,,,617347,,,,,,,
38760,note_on,0,0,1,,,,,,,,,0,,,73,50
38760,note_on,120,0,1,,,,,,,,,0,,,72,0
38760,note_on,0,0,1,,,,,,,,,0,,,68,0
38760,note_on,0,0,1,,,,,,,,,0,,,60,0
38760,note_on,0,0,1,,,,,,,,,0,,,67,50
38760,note_on,0,0,1,,,,,,,,,0,,,61,50
38760,control_change,15,0,4,,,,,,,,,0,64,127,,
38760,set_tempo,8,1,0,,,,,,619259,,,,,,,
38760,note_on,0,0,3,,,,,,,,,0,,,39,40
38760,note_on,0,0,3,,,,,,,,,0,,,56,0
38760,note_on,40,0,3,,,,,,,,,0,,,51,0
38767,set_tempo,7,1,0,,,,,,621182,,,,,,,
38774,set_tempo,7,1,0,,,,,,623118,,,,,,,
38781,set_tempo,7,1,0,,,,,,625065,,,,,,,
38788,set_tempo,7,1,0,,,,,,627025,,,,,,,
38795,set_tempo,7,1,0,,,,,,628997,,,,,,,
38800,note_on,0,0,3,,,,,,,,,0,,,55,40
38800,note_on,0,0,3,,,,,,,,,0,,,51,40
38800,note_on,0,0,3,,,,,,,,,0,,,58,40
38800,note_on,40,0,3,,,,,,,,,0,,,39,0
38802,set_tempo,7,1,0,,,,,,630981,,,,,,,
38809,set_tempo,7,1,0,,,,,,632978,,,,,,,
38816,set_tempo,7,1,0,,,,,,634988,,,,,,,
38823,set_tempo,7,1,0,,,,,,637010,,,,,,,
38830,set_tempo,7,1,0,,,,,,639046,,,,,,,
38837,set_tempo,7,1,0,,,,,,641094,,,,,,,
38840,note_on,0,0,3,,,,,,,,,0,,,58,40
38840,note_on,0,0,3,,,,,,,,,0,,,58,0
38840,note_on,0,0,3,,,,,,,,,0,,,55,0
38840,note_on,40,0,3,,,,,,,,,0,,,51,0
38840,note_on,0,0,3,,,,,,,,,0,,,55,40
38840,note_on,0,0,3,,,,,,,,,0,,,51,40
38844,set_tempo,7,1,0,,,,,,643156,,,,,,,
38850,note_on,0,0,1,,,,,,,,,0,,,70,50
38850,note_on,90,0,1,,,,,,,,,0,,,73,0
38851,set_tempo,7,1,0,,,,,,645231,,,,,,,
38858,set_tempo,7,1,0,,,,,,647319,,,,,,,
38865,set_tempo,7,1,0,,,,,,649421,,,,,,,
38865,control_change,105,0,4,,,,,,,,,0,64,0,,
38872,set_tempo,7,1,0,,,,,,651537,,,,,,,
38880,note_on,0,0,3,,,,,,,,,0,,,44,40
38880,note_on,40,0,3,,,,,,,,,0,,,51,0
38880,note_on,0,0,3,,,,,,,,,0,,,55,0
38880,note_on,0,0,3,,,,,,,,,0,,,58,0
38880,note_on,0,0,3,,,,,,,,,0,,,32,40
38880,note_on,0,0,1,,,,,,,,,0,,,60,50
38880,note_on,0,0,1,,,,,,,,,0,,,63,50
38880,note_on,0,0,1,,,,,,,,,0,,,56,50
38880,note_on,0,0,1,,,,,,,,,0,,,67,0
38880,note_on,0,0,1,,,,,,,,,0,,,61,0
38880,note_on,30,0,1,,,,,,,,,0,,,70,0
38880,set_tempo,8,1,0,,,,,,535714,,,,,,,
38880,note_on,0,0,1,,,,,,,,,0,,,68,50
38880,control_change,15,0,4,,,,,,,,,0,64,127,,
38920,note_on,40,0,3,,,,,,,,,0,,,44,0
38920,note_on,0,0,3,,,,,,,,,0,,,51,40
38920,note_on,0,0,3,,,,,,,,,0,,,48,40
38920,note_on,0,0,3,,,,,,,,,0,,,32,0
38920,note_on,0,0,3,,,,,,,,,0,,,44,40
38960,note_on,40,0,3,,,,,,,,,0,,,44,0
38960,note_on,0,0,3,,,,,,,,,0,,,51,0
38960,note_on,0,0,3,,,,,,,,,0,,,51,40
38960,note_on,0,0,3,,,,,,,,,0,,,48,40
38960,note_on,0,0,3,,,,,,,,,0,,,44,40
38960,note_on,0,0,3,,,,,,,,,0,,,48,0
39000,note_on,0,0,3,,,,,,,,,0,,,48,40
39000,note_on,0,0,3,,,,,,,,,0,,,44,40
39000,note_on,40,0,3,,,,,,,,,0,,,44,0
39000,note_on,0,0,3,,,,,,,,,0,,,48,0
39000,note_on,0,0,3,,,,,,,,,0,,,51,0
39000,note_on,0,0,3,,,,,,,,,0,,,51,40
39040,note_on,0,0,3,,,,,,,,,0,,,48,40
39040,note_on,0,0,3,,,,,,,,,0,,,44,40
39040,note_on,0,0,3,,,,,,,,,0,,,51,40
39040,note_on,0,0,3,,,,,,,,,0,,,51,0
39040,note_on,0,0,3,,,,,,,,,0,,,48,0
39040,note_on,40,0,3,,,,,,,,,0,,,44,0
39080,note_on,0,0,3,,,,,,,,,0,,,51,40
39080,note_on,0,0,3,,,,,,,,,0,,,44,40
39080,note_on,0,0,3,,,,,,,,,0,,,48,40
39080,note_on,0,0,3,,,,,,,,,0,,,51,0
39080,note_on,0,0,3,,,,,,,,,0,,,48,0
39080,note_on,40,0,3,,,,,,,,,0,,,44,0
39120,note_on,0,0,3,,,,,,,,,0,,,51,40
39120,note_on,0,0,3,,,,,,,,,0,,,51,0
39120,note_on,0,0,3,,,,,,,,,0,,,48,0
39120,note_on,40,0,3,,,,,,,,,0,,,44,0
39120,note_on,0,0,3,,,,,,,,,0,,,44,40
39120,note_on,0,0,3,,,,,,,,,0,,,48,40
39160,note_on,0,0,3,,,,,,,,,0,,,51,40
39160,note_on,0,0,3,,,,,,,,,0,,,48,0
39160,note_on,40,0,3,,,,,,,,,0,,,44,0
39160,note_on,0,0,3,,,,,,,,,0,,,48,40
39160,note_on,0,0,3,,,,,,,,,0,,,44,40
39160,note_on,0,0,3,,,,,,,,,0,,,51,0
39200,note_on,0,0,3,,,,,,,,,0,,,51,0
39200,note_on,0,0,3,,,,,,,,,0,,,48,0
39200,note_on,40,0,3,,,,,,,,,0,,,44,0
39200,note_on,0,0,3,,,,,,,,,0,,,48,40
39200,note_on,0,0,3,,,,,,,,,0,,,44,40
39200,note_on,0,0,3,,,,,,,,,0,,,51,40
39240,note_on,40,0,3,,,,,,,,,0,,,44,0
39240,note_on,0,0,3,,,,,,,,,0,,,51,0
39240,note_on,0,0,3,,,,,,,,,0,,,51,40
39240,note_on,0,0,3,,,,,,,,,0,,,48,40
39240,note_on,0,0,3,,,,,,,,,0,,,48,0
39240,note_on,0,0,3,,,,,,,,,0,,,44,40
39240,control_change,360,0,4,,,,,,,,,0,64,0,,
39240,note_on,360,0,1,,,,,,,,,0,,,68,0
39240,note_on,0,0,1,,,,,,,,,0,,,56,0
39240,note_on,0,0,1,,,,,,,,,0,,,60,0
39240,note_on,0,0,1,,,,,,,,,0,,,63,0
39240,note_on,0,0,1,,,,,,,,,0,,,60,50
39280,note_on,40,0,3,,,,,,,,,0,,,44,0
39280,note_on,0,0,3,,,,,,,,,0,,,48,0
39280,note_on,0,0,3,,,,,,,,,0,,,51,0
39280,note_on,0,0,3,,,,,,,,,0,,,51,40
39280,note_on,0,0,3,,,,,,,,,0,,,48,40
39280,note_on,0,0,3,,,,,,,,,0,,,44,40
39320,note_on,0,0,3,,,,,,,,,0,,,48,0
39320,note_on,40,0,3,,,,,,,,,0,,,44,0
39320,note_on,0,0,3,,,,,,,,,0,,,44,40
39320,note_on,0,0,3,,,,,,,,,0,,,48,40
39320,note_on,0,0,3,,,,,,,,,0,,,51,40
39320,note_on,0,0,3,,,,,,,,,0,,,51,0
39330,note_on,0,0,1,,,,,,,,,0,,,63,50
39330,note_on,90,0,1,,,,,,,,,0,,,60,0
39360,note_on,0,0,3,,,,,,,,,0,,,51,0
39360,note_on,40,0,3,,,,,,,,,0,,,44,0
39360,control_change,120,0,4,,,,,,,,,0,64,127,,
39360,note_on,0,0,3,,,,,,,,,0,,,44,40
39360,note_on,0,0,3,,,,,,,,,0,,,48,0
39360,note_on,0,0,3,,,,,,,,,0,,,32,40
39360,note_on,0,0,1,,,,,,,,,0,,,56,50
39360,note_on,0,0,1,,,,,,,,,0,,,68,50
39360,note_on,30,0,1,,,,,,,,,0,,,63,0
39400,note_on,0,0,3,,,,,,,,,0,,,51,40
39400,note_on,0,0,3,,,,,,,,,0,,,48,40
39400,note_on,0,0,3,,,,,,,,,0,,,44,40
39400,note_on,0,0,3,,,,,,,,,0,,,32,0
39400,note_on,40,0,3,,,,,,,,,0,,,44,0
39440,note_on,40,0,3,,,,,,,,,0,,,44,0
39440,note_on,0,0,3,,,,,,,,,0,,,48,0
39440,note_on,0,0,3,,,,,,,,,0,,,51,0
39440,note_on,0,0,3,,,,,,,,,0,,,51,40
39440,note_on,0,0,3,,,,,,,,,0,,,48,40
39440,note_on,0,0,3,,,,,,,,,0,,,44,40
39480,note_on,0,0,3,,,,,,,,,0,,,51,40
39480,note_on,0,0,3,,,,,,,,,0,,,44,40
39480,note_on,0,0,3,,,,,,,,,0,,,48,40
39480,note_on,0,0,3,,,,,,,,,0,,,51,0
39480,note_on,0,0,3,,,,,,,,,0,,,48,0
39480,note_on,0,0,1,,,,,,,,,0,,,56,50
39480,note_on,0,0,1,,,,,,,,,0,,,56,0
39480,note_on,120,0,1,,,,,,,,,0,,,68,0
39480,note_on,40,0,3,,,,,,,,,0,,,44,0
39480,note_on,0,0,1,,,,,,,,,0,,,68,50
39520,note_on,40,0,3,,,,,,,,,0,,,44,0
39520,note_on,0,0,3,,,,,,,,,0,,,48,0
39520,note_on,0,0,3,,,,,,,,,0,,,51,0
39520,note_on,0,0,3,,,,,,,,,0,,,51,40
39520,note_on,0,0,3,,,,,,,,,0,,,48,40
39520,note_on,0,0,3,,,,,,,,,0,,,44,40
39560,note_on,0,0,3,,,,,,,,,0,,,48,0
39560,note_on,0,0,3,,,,,,,,,0,,,51,0
39560,note_on,0,0,3,,,,,,,,,0,,,48,40
39560,note_on,0,0,3,,,,,,,,,0,,,44,40
39560,note_on,40,0,3,,,,,,,,,0,,,44,0
39560,note_on,0,0,3,,,,,,,,,0,,,51,40
39600,note_on,0,0,1,,,,,,,,,0,,,56,50
39600,note_on,40,0,3,,,,,,,,,0,,,44,0
39600,note_on,0,0,1,,,,,,,,,0,,,68,50
39600,note_on,120,0,1,,,,,,,,,0,,,68,0
39600,note_on,0,0,1,,,,,,,,,0,,,56,0
39600,note_on,0,0,3,,,,,,,,,0,,,51,0
39600,note_on,0,0,3,,,,,,,,,0,,,48,0
39600,note_on,0,0,3,,,,,,,,,0,,,48,40
39600,note_on,0,0,3,,,,,,,,,0,,,51,40
39600,note_on,0,0,3,,,,,,,,,0,,,44,40
39640,note_on,40,0,3,,,,,,,,,0,,,44,0
39640,note_on,0,0,3,,,,,,,,,0,,,48,0
39640,note_on,0,0,3,,,,,,,,,0,,,51,0
39640,note_on,0,0,3,,,,,,,,,0,,,51,40
39640,note_on,0,0,3,,,,,,,,,0,,,48,40
39640,note_on,0,0,3,,,,,,,,,0,,,44,40
39680,note_on,0,0,3,,,,,,,,,0,,,44,40
39680,note_on,0,0,3,,,,,,,,,0,,,48,40
39680,note_on,0,0,3,,,,,,,,,0,,,51,0
39680,note_on,40,0,3,,,,,,,,,0,,,44,0
39680,note_on,0,0,3,,,,,,,,,0,,,51,40
39680,note_on,0,0,3,,,,,,,,,0,,,48,0
39720,note_on,40,0,3,,,,,,,,,0,,,44,0
39720,note_on,0,0,3,,,,,,,,,0,,,48,0
39720,note_on,0,0,3,,,,,,,,,0,,,51,40
39720,note_on,0,0,3,,,,,,,,,0,,,48,40
39720,note_on,0,0,3,,,,,,,,,0,,,44,40
39720,note_on,0,0,3,,,,,,,,,0,,,51,0
39720,note_on,0,0,1,,,,,,,,,0,,,68,50
39720,note_on,0,0,1,,,,,,,,,0,,,56,50
39720,note_on,0,0,1,,,,,,,,,0,,,56,0
39720,note_on,120,0,1,,,,,,,,,0,,,68,0
39760,note_on,0,0,3,,,,,,,,,0,,,48,0
39760,note_on,0,0,3,,,,,,,,,0,,,44,40
39760,note_on,40,0,3,,,,,,,,,0,,,44,0
39760,note_on,0,0,3,,,,,,,,,0,,,48,40
39760,note_on,0,0,3,,,,,,,,,0,,,51,0
39760,note_on,0,0,3,,,,,,,,,0,,,51,40
39800,note_on,0,0,3,,,,,,,,,0,,,51,0
39800,note_on,0,0,3,,,,,,,,,0,,,48,0
39800,note_on,40,0,3,,,,,,,,,0,,,44,0
39800,note_on,0,0,3,,,,,,,,,0,,,51,40
39800,note_on,0,0,3,,,,,,,,,0,,,44,40
39800,note_on,0,0,3,,,,,,,,,0,,,48,40
39825,control_change,465,0,4,,,,,,,,,0,64,0,,
39840,note_on,0,0,3,,,,,,,,,0,,,48,0
39840,note_on,0,0,3,,,,,,,,,0,,,51,0
39840,note_on,0,0,3,,,,,,,,,0,,,31,40
39840,note_on,0,0,3,,,,,,,,,0,,,43,40
39840,note_on,40,0,3,,,,,,,,,0,,,44,0
39840,control_change,15,0,4,,,,,,,,,0,64,127,,
39840,note_on,120,0,1,,,,,,,,,0,,,68,0
39840,note_on,0,0,1,,,,,,,,,0,,,56,0
39840,note_on,0,0,1,,,,,,,,,0,,,55,50
39840,note_on,0,0,1,,,,,,,,,0,,,67,50
39880,note_on,0,0,3,,,,,,,,,0,,,43,40
39880,note_on,0,0,3,,,,,,,,,0,,,51,40
39880,note_on,0,0,3,,,,,,,,,0,,,48,40
39880,note_on,40,0,3,,,,,,,,,0,,,43,0
39880,note_on,0,0,3,,,,,,,,,0,,,31,0
39920,note_on,40,0,3,,,,,,,,,0,,,43,0
39920,note_on,0,0,3,,,,,,,,,0,,,48,0
39920,note_on,0,0,3,,,,,,,,,0,,,51,0
39920,note_on,0,0,3,,,,,,,,,0,,,51,40
39920,note_on,0,0,3,,,,,,,,,0,,,48,40
39920,note_on,0,0,3,,,,,,,,,0,,,43,40
39960,note_on,0,0,3,,,,,,,,,0,,,48,40
39960,note_on,0,0,3,,,,,,,,,0,,,51,40
39960,note_on,0,0,3,,,,,,,,,0,,,43,40
39960,note_on,40,0,3,,,,,,,,,0,,,43,0
39960,note_on,0,0,3,,,,,,,,,0,,,48,0
39960,note_on,0,0,3,,,,,,,,,0,,,51,0
40000,note_on,0,0,3,,,,,,,,,0,,,48,0
40000,note_on,40,0,3,,,,,,,,,0,,,51,0
40000,note_on,0,0,3,,,,,,,,,0,,,43,0
40000,note_on,0,0,3,,,,,,,,,0,,,43,40
40000,note_on,0,0,3,,,,,,,,,0,,,48,40
40000,note_on,0,0,3,,,,,,,,,0,,,51,40
40040,note_on,40,0,3,,,,,,,,,0,,,51,0
40040,note_on,0,0,3,,,,,,,,,0,,,48,0
40040,note_on,0,0,3,,,,,,,,,0,,,43,0
40040,note_on,0,0,3,,,,,,,,,0,,,43,40
40040,note_on,0,0,3,,,,,,,,,0,,,48,40
40040,note_on,0,0,3,,,,,,,,,0,,,51,40
40080,note_on,0,0,3,,,,,,,,,0,,,43,40
40080,note_on,0,0,3,,,,,,,,,0,,,48,40
40080,note_on,0,0,3,,,,,,,,,0,,,51,40
40080,note_on,0,0,3,,,,,,,,,0,,,43,0
40080,note_on,0,0,3,,,,,,,,,0,,,48,0
40080,note_on,40,0,3,,,,,,,,,0,,,51,0
40120,note_on,40,0,3,,,,,,,,,0,,,43,0
40120,note_on,0,0,3,,,,,,,,,0,,,48,0
40120,note_on,0,0,3,,,,,,,,,0,,,51,0
40120,note_on,0,0,3,,,,,,,,,0,,,51,40
40120,note_on,0,0,3,,,,,,,,,0,,,48,40
40120,note_on,0,0,3,,,,,,,,,0,,,43,40
40160,note_on,0,0,3,,,,,,,,,0,,,43,40
40160,note_on,0,0,3,,,,,,,,,0,,,48,40
40160,note_on,0,0,3,,,,,,,,,0,,,51,40
40160,note_on,0,0,3,,,,,,,,,0,,,48,0
40160,note_on,40,0,3,,,,,,,,,0,,,43,0
40160,note_on,0,0,3,,,,,,,,,0,,,51,0
40200,note_on,0,0,1,,,,,,,,,0,,,60,50
40200,note_on,40,0,3,,,,,,,,,0,,,43,0
40200,note_on,0,0,3,,,,,,,,,0,,,48,0
40200,note_on,0,0,3,,,,,,,,,0,,,51,0
40200,note_on,0,0,3,,,,,,,,,0,,,51,40
40200,note_on,0,0,3,,,,,,,,,0,,,48,40
40200,note_on,0,0,3,,,,,,,,,0,,,43,40
40200,note_on,0,0,1,,,,,,,,,0,,,55,0
40200,note_on,360,0,1,,,,,,,,,0,,,67,0
40240,note_on,0,0,3,,,,,,,,,0,,,43,40
40240,note_on,0,0,3,,,,,,,,,0,,,51,40
40240,note_on,0,0,3,,,,,,,,,0,,,51,0
40240,note_on,0,0,3,,,,,,,,,0,,,48,0
40240,note_on,40,0,3,,,,,,,,,0,,,43,0
40240,note_on,0,0,3,,,,,,,,,0,,,48,40
40280,note_on,40,0,3,,,,,,,,,0,,,43,0
40280,note_on,0,0,3,,,,,,,,,0,,,48,0
40280,note_on,0,0,3,,,,,,,,,0,,,51,0
40280,note_on,0,0,3,,,,,,,,,0,,,51,40
40280,note_on,0,0,3,,,,,,,,,0,,,48,40
40280,note_on,0,0,3,,,,,,,,,0,,,43,40
40290,note_on,90,0,1,,,,,,,,,0,,,60,0
40290,note_on,0,0,1,,,,,,,,,0,,,63,50
40305,control_change,465,0,4,,,,,,,,,0,64,0,,
40320,note_on,0,0,3,,,,,,,,,0,,,48,0
40320,control_change,15,0,4,,,,,,,,,0,64,127,,
40320,note_on,40,0,3,,,,,,,,,0,,,43,0
40320,note_on,0,0,3,,,,,,,,,0,,,51,0
40320,note_on,0,0,3,,,,,,,,,0,,,31,40
40320,note_on,0,0,3,,,,,,,,,0,,,43,40
40320,note_on,0,0,1,,,,,,,,,0,,,55,50
40320,note_on,0,0,1,,,,,,,,,0,,,67,50
40320,note_on,30,0,1,,,,,,,,,0,,,63,0
40360,note_on,0,0,3,,,,,,,,,0,,,43,45
40360,note_on,40,0,3,,,,,,,,,0,,,43,0
40360,note_on,0,0,3,,,,,,,,,0,,,31,0
40360,note_on,0,0,3,,,,,,,,,0,,,51,45
40360,note_on,0,0,3,,,,,,,,,0,,,48,45
40400,note_on,0,0,3,,,,,,,,,0,,,51,51
40400,note_on,0,0,3,,,,,,,,,0,,,43,51
40400,note_on,0,0,3,,,,,,,,,0,,,48,51
40400,note_on,0,0,3,,,,,,,,,0,,,51,0
40400,note_on,40,0,3,,,,,,,,,0,,,43,0
40400,note_on,0,0,3,,,,,,,,,0,,,48,0
40440,note_on,0,0,3,,,,,,,,,0,,,51,57
40440,note_on,0,0,3,,,,,,,,,0,,,43,57
40440,note_on,0,0,3,,,,,,,,,0,,,48,57
40440,note_on,0,0,3,,,,,,,,,0,,,51,0
40440,note_on,0,0,1,,,,,,,,,0,,,67,67
40440,note_on,40,0,3,,,,,,,,,0,,,43,0
40440,note_on,120,0,1,,,,,,,,,0,,,67,0
40440,note_on,0,0,3,,,,,,,,,0,,,48,0
40440,note_on,0,0,1,,,,,,,,,0,,,55,67
40440,note_on,0,0,1,,,,,,,,,0,,,55,0
40480,note_on,0,0,3,,,,,,,,,0,,,51,62
40480,note_on,0,0,3,,,,,,,,,0,,,48,62
40480,note_on,40,0,3,,,,,,,,,0,,,51,0
40480,note_on,0,0,3,,,,,,,,,0,,,43,0
40480,note_on,0,0,3,,,,,,,,,0,,,48,0
40480,note_on,0,0,3,,,,,,,,,0,,,43,62
40520,note_on,40,0,3,,,,,,,,,0,,,51,0
40520,note_on,0,0,3,,,,,,,,,0,,,48,0
40520,note_on,0,0,3,,,,,,,,,0,,,43,68
40520,note_on,0,0,3,,,,,,,,,0,,,48,68
40520,note_on,0,0,3,,,,,,,,,0,,,51,68
40520,note_on,0,0,3,,,,,,,,,0,,,43,0
40560,note_on,0,0,1,,,,,,,,,0,,,55,0
40560,note_on,120,0,1,,,,,,,,,0,,,67,0
40560,note_on,0,0,1,,,,,,,,,0,,,55,84
40560,note_on,0,0,3,,,,,,,,,0,,,43,0
40560,note_on,0,0,3,,,,,,,,,0,,,48,74
40560,note_on,0,0,3,,,,,,,,,0,,,51,74
40560,note_on,0,0,1,,,,,,,,,0,,,67,84
40560,note_on,40,0,3,,,,,,,,,0,,,51,0
40560,note_on,0,0,3,,,,,,,,,0,,,43,74
40560,note_on,0,0,3,,,,,,,,,0,,,48,0
40600,note_on,40,0,3,,,,,,,,,0,,,43,0
40600,note_on,0,0,3,,,,,,,,,0,,,48,0
40600,note_on,0,0,3,,,,,,,,,0,,,51,0
40600,note_on,0,0,3,,,,,,,,,0,,,51,79
40600,note_on,0,0,3,,,,,,,,,0,,,48,79
40600,note_on,0,0,3,,,,,,,,,0,,,43,79
40640,note_on,0,0,3,,,,,,,,,0,,,51,0
40640,note_on,40,0,3,,,,,,,,,0,,,43,0
40640,note_on,0,0,3,,,,,,,,,0,,,48,0
40640,note_on,0,0,3,,,,,,,,,0,,,51,85
40640,note_on,0,0,3,,,,,,,,,0,,,48,85
40640,note_on,0,0,3,,,,,,,,,0,,,43,85
40680,note_on,40,0,3,,,,,,,,,0,,,43,0
40680,note_on,0,0,3,,,,,,,,,0,,,48,0
40680,note_on,0,0,3,,,,,,,,,0,,,51,0
40680,note_on,0,0,3,,,,,,,,,0,,,51,91
40680,note_on,0,0,3,,,,,,,,,0,,,48,91
40680,note_on,0,0,3,,,,,,,,,0,,,43,91
40680,note_on,120,0,1,,,,,,,,,0,,,67,0
40680,note_on,0,0,1,,,,,,,,,0,,,55,0
40680,note_on,0,0,1,,,,,,,,,0,,,55,101
40680,note_on,0,0,1,,,,,,,,,0,,,67,101
40720,note_on,0,0,3,,,,,,,,,0,,,51,97
40720,note_on,40,0,3,,,,,,,,,0,,,43,0
40720,note_on,0,0,3,,,,,,,,,0,,,48,0
40720,note_on,0,0,3,,,,,,,,,0,,,51,0
40720,note_on,0,0,3,,,,,,,,,0,,,48,97
40720,note_on,0,0,3,,,,,,,,,0,,,43,97
40760,note_on,0,0,3,,,,,,,,,0,,,48,100
40760,note_on,0,0,3,,,,,,,,,0,,,43,100
40760,note_on,0,0,3,,,,,,,,,0,,,51,0
40760,note_on,0,0,3,,,,,,,,,0,,,48,0
40760,note_on,40,0,3,,,,,,,,,0,,,43,0
40760,note_on,0,0,3,,,,,,,,,0,,,51,100
40785,control_change,465,0,4,,,,,,,,,0,64,0,,
40800,note_on,0,0,1,,,,,,,,,0,,,65,110
40800,note_on,0,0,1,,,,,,,,,0,,,53,110
40800,note_on,0,0,1,,,,,,,,,0,,,55,0
40800,note_on,0,0,3,,,,,,,,,0,,,41,100
40800,note_on,40,0,3,,,,,,,,,0,,,43,0
40800,note_on,0,0,3,,,,,,,,,0,,,48,0
40800,note_on,0,0,3,,,,,,,,,0,,,51,0
40800,control_change,15,0,4,,,,,,,,,0,64,127,,
40800,note_on,120,0,1,,,,,,,,,0,,,67,0
40800,note_on,0,0,3,,,,,,,,,0,,,29,100
40840,note_on,0,0,3,,,,,,,,,0,,,51,100
40840,note_on,0,0,3,,,,,,,,,0,,,48,100
40840,note_on,40,0,3,,,,,,,,,0,,,41,0
40840,note_on,0,0,3,,,,,,,,,0,,,29,0
40840,note_on,0,0,3,,,,,,,,,0,,,41,100
40880,note_on,40,0,3,,,,,,,,,0,,,41,0
40880,note_on,0,0,3,,,,,,,,,0,,,41,100
40880,note_on,0,0,3,,,,,,,,,0,,,48,100
40880,note_on,0,0,3,,,,,,,,,0,,,51,100
40880,note_on,0,0,3,,,,,,,,,0,,,48,0
40880,note_on,0,0,3,,,,,,,,,0,,,51,0
40920,note_on,0,0,3,,,,,,,,,0,,,51,0
40920,note_on,0,0,3,,,,,,,,,0,,,48,0
40920,note_on,40,0,3,,,,,,,,,0,,,41,0
40920,note_on,0,0,3,,,,,,,,,0,,,41,100
40920,note_on,0,0,3,,,,,,,,,0,,,51,100
40920,note_on,0,0,3,,,,,,,,,0,,,48,100
40960,note_on,0,0,3,,,,,,,,,0,,,48,100
40960,note_on,40,0,3,,,,,,,,,0,,,51,0
40960,note_on,0,0,3,,,,,,,,,0,,,48,0
40960,note_on,0,0,3,,,,,,,,,0,,,41,0
40960,note_on,0,0,3,,,,,,,,,0,,,41,100
40960,note_on,0,0,3,,,,,,,,,0,,,51,100
41000,note_on,0,0,3,,,,,,,,,0,,,51,100
41000,note_on,0,0,3,,,,,,,,,0,,,48,100
41000,note_on,0,0,3,,,,,,,,,0,,,41,100
41000,note_on,40,0,3,,,,,,,,,0,,,51,0
41000,note_on,0,0,3,,,,,,,,,0,,,48,0
41000,note_on,0,0,3,,,,,,,,,0,,,41,0
41025,control_change,225,0,4,,,,,,,,,0,64,0,,
41040,control_change,15,0,4,,,,,,,,,0,64,127,,
41040,note_on,0,0,3,,,,,,,,,0,,,42,100
41040,note_on,0,0,3,,,,,,,,,0,,,30,100
41040,note_on,0,0,3,,,,,,,,,0,,,41,0
41040,note_on,240,0,1,,,,,,,,,0,,,65,0
41040,note_on,40,0,3,,,,,,,,,0,,,51,0
41040,note_on,0,0,1,,,,,,,,,0,,,54,110
41040,note_on,0,0,1,,,,,,,,,0,,,66,110
41040,note_on,0,0,1,,,,,,,,,0,,,53,0
41040,note_on,0,0,3,,,,,,,,,0,,,48,0
41080,note_on,40,0,3,,,,,,,,,0,,,42,0
41080,note_on,0,0,3,,,,,,,,,0,,,30,0
41080,note_on,0,0,3,,,,,,,,,0,,,51,100
41080,note_on,0,0,3,,,,,,,,,0,,,48,100
41080,note_on,0,0,3,,,,,,,,,0,,,42,100
41120,note_on,0,0,3,,,,,,,,,0,,,42,100
41120,note_on,0,0,3,,,,,,,,,0,,,48,100
41120,note_on,0,0,3,,,,,,,,,0,,,51,100
41120,note_on,40,0,3,,,,,,,,,0,,,42,0
41120,note_on,0,0,3,,,,,,,,,0,,,48,0
41120,note_on,0,0,3,,,,,,,,,0,,,51,0
41160,note_on,0,0,3,,,,,,,,,0,,,48,100
41160,note_on,40,0,3,,,,,,,,,0,,,42,0
41160,note_on,0,0,3,,,,,,,,,0,,,48,0
41160,note_on,0,0,3,,,,,,,,,0,,,51,0
41160,note_on,0,0,3,,,,,,,,,0,,,42,100
41160,note_on,0,0,3,,,,,,,,,0,,,51,100
41200,note_on,40,0,3,,,,,,,,,0,,,51,0
41200,note_on,0,0,3,,,,,,,,,0,,,48,0
41200,note_on,0,0,3,,,,,,,,,0,,,42,0
41200,note_on,0,0,3,,,,,,,,,0,,,42,100
41200,note_on,0,0,3,,,,,,,,,0,,,48,100
41200,note_on,0,0,3,,,,,,,,,0,,,51,100
41240,note_on,40,0,3,,,,,,,,,0,,,51,0
41240,note_on,0,0,3,,,,,,,,,0,,,48,0
41240,note_on,0,0,3,,,,,,,,,0,,,42,0
41240,note_on,0,0,3,,,,,,,,,0,,,42,100
41240,note_on,0,0,3,,,,,,,,,0,,,48,100
41240,note_on,0,0,3,,,,,,,,,0,,,51,100
41280,note_on,0,0,1,,,,,,,,,0,,,55,60
41280,note_on,0,0,1,,,,,,,,,0,,,67,60
41280,note_on,0,0,1,,,,,,,,,0,,,66,0
41280,control_change,240,0,4,,,,,,,,,0,64,0,,
41280,note_on,0,0,3,,,,,,,,,0,,,43,70
41280,note_on,0,0,3,,,,,,,,,0,,,50,70
41280,note_on,40,0,3,,,,,,,,,0,,,51,0
41280,note_on,0,0,3,,,,,,,,,0,,,48,0
41280,note_on,0,0,3,,,,,,,,,0,,,47,70
41280,note_on,240,0,1,,,,,,,,,0,,,54,0
41280,note_on,0,0,3,,,,,,,,,0,,,42,0
41320,note_on,0,0,1,,,,,,,,,0,,,67,60
41320,note_on,0,0,1,,,,,,,,,0,,,55,60
41320,note_on,0,0,1,,,,,,,,,0,,,55,0
41320,note_on,40,0,1,,,,,,,,,0,,,67,0
41360,note_on,0,0,1,,,,,,,,,0,,,67,60
41360,note_on,0,0,1,,,,,,,,,0,,,55,60
41360,note_on,40,0,1,,,,,,,,,0,,,67,0
41360,note_on,0,0,1,,,,,,,,,0,,,55,0
41400,note_on,0,0,1,,,,,,,,,0,,,55,0
41400,note_on,40,0,1,,,,,,,,,0,,,67,0
41400,note_on,0,0,1,,,,,,,,,0,,,55,60
41400,note_on,0,0,1,,,,,,,,,0,,,67,60
41440,note_on,0,0,1,,,,,,,,,0,,,55,60
41440,note_on,40,0,1,,,,,,,,,0,,,55,0
41440,note_on,0,0,1,,,,,,,,,0,,,67,0
41440,note_on,0,0,1,,,,,,,,,0,,,67,60
41480,note_on,0,0,1,,,,,,,,,0,,,55,60
41480,note_on,0,0,1,,,,,,,,,0,,,67,0
41480,note_on,0,0,1,,,,,,,,,0,,,67,60
41480,note_on,40,0,1,,,,,,,,,0,,,55,0
41520,note_on,40,0,1,,,,,,,,,0,,,55,0
41520,note_on,0,0,1,,,,,,,,,0,,,67,0
41520,note_on,0,0,1,,,,,,,,,0,,,55,40
41520,note_on,0,0,1,,,,,,,,,0,,,67,40
41560,note_on,0,0,1,,,,,,,,,0,,,67,40
41560,note_on,0,0,1,,,,,,,,,0,,,55,40
41560,note_on,0,0,1,,,,,,,,,0,,,55,0
41560,note_on,40,0,1,,,,,,,,,0,,,67,0
41600,note_on,40,0,1,,,,,,,,,0,,,67,0
41600,note_on,0,0,1,,,,,,,,,0,,,55,0
41600,note_on,0,0,1,,,,,,,,,0,,,55,40
41600,note_on,0,0,1,,,,,,,,,0,,,67,40
41640,note_on,0,0,3,,,,,,,,,0,,,50,0
41640,note_on,0,0,3,,,,,,,,,0,,,47,50
41640,note_on,360,0,3,,,,,,,,,0,,,43,0
41640,note_on,0,0,3,,,,,,,,,0,,,47,0
41640,note_on,40,0,1,,,,,,,,,0,,,67,0
41640,note_on,0,0,1,,,,,,,,,0,,,55,0
41640,note_on,0,0,1,,,,,,,,,0,,,55,40
41640,note_on,0,0,1,,,,,,,,,0,,,67,40
41680,note_on,40,0,1,,,,,,,,,0,,,55,0
41680,note_on,0,0,1,,,,,,,,,0,,,67,0
41680,note_on,0,0,1,,,,,,,,,0,,,67,40
41680,note_on,0,0,1,,,,,,,,,0,,,55,40
41720,note_on,0,0,1,,,,,,,,,0,,,55,40
41720,note_on,0,0,1,,,,,,,,,0,,,67,40
41720,note_on,40,0,1,,,,,,,,,0,,,55,0
41720,note_on,0,0,1,,,,,,,,,0,,,67,0
41730,note_on,90,0,3,,,,,,,,,0,,,47,0
41730,note_on,0,0,3,,,,,,,,,0,,,48,50
41760,note_on,0,0,1,,,,,,,,,0,,,67,0
41760,note_on,0,0,1,,,,,,,,,0,,,55,40
41760,note_on,0,0,1,,,,,,,,,0,,,67,40
41760,note_on,40,0,1,,,,,,,,,0,,,55,0
41760,note_on,30,0,3,,,,,,,,,0,,,48,0
41760,note_on,0,0,3,,,,,,,,,0,,,50,50
41800,note_on,40,0,1,,,,,,,,,0,,,67,0
41800,note_on,0,0,1,,,,,,,,,0,,,55,0
41800,note_on,0,0,1,,,,,,,,,0,,,55,40
41800,note_on,0,0,1,,,,,,,,,0,,,67,40
41840,note_on,40,0,1,,,,,,,,,0,,,67,0
41840,note_on,0,0,1,,,,,,,,,0,,,67,40
41840,note_on,0,0,1,,,,,,,,,0,,,55,40
41840,note_on,0,0,1,,,,,,,,,0,,,55,0
41880,note_on,120,0,3,,,,,,,,,0,,,50,0
41880,note_on,0,0,1,,,,,,,,,0,,,55,40
41880,note_on,0,0,1,,,,,,,,,0,,,67,40
41880,note_on,40,0,1,,,,,,,,,0,,,67,0
41880,note_on,0,0,3,,,,,,,,,0,,,50,50
41880,note_on,0,0,1,,,,,,,,,0,,,55,0
41920,note_on,0,0,1,,,,,,,,,0,,,55,40
41920,note_on,0,0,1,,,,,,,,,0,,,67,40
41920,note_on,0,0,1,,,,,,,,,0,,,67,0
41920,note_on,40,0,1,,,,,,,,,0,,,55,0
41960,note_on,0,0,1,,,,,,,,,0,,,67,40
41960,note_on,0,0,1,,,,,,,,,0,,,67,0
41960,note_on,40,0,1,,,,,,,,,0,,,55,0
41960,note_on,0,0,1,,,,,,,,,0,,,55,40
42000,note_on,0,0,1,,,,,,,,,0,,,55,40
42000,note_on,0,0,1,,,,,,,,,0,,,67,0
42000,note_on,0,0,1,,,,,,,,,0,,,67,40
42000,note_on,0,0,3,,,,,,,,,0,,,50,50
42000,note_on,120,0,3,,,,,,,,,0,,,50,0
42000,note_on,40,0,1,,,,,,,,,0,,,55,0
42040,note_on,40,0,1,,,,,,,,,0,,,67,0
42040,note_on,0,0,1,,,,,,,,,0,,,55,0
42040,note_on,0,0,1,,,,,,,,,0,,,55,40
42040,note_on,0,0,1,,,,,,,,,0,,,67,40
42080,note_on,40,0,1,,,,,,,,,0,,,67,0
42080,note_on,0,0,1,,,,,,,,,0,,,55,0
42080,note_on,0,0,1,,,,,,,,,0,,,55,40
42080,note_on,0,0,1,,,,,,,,,0,,,67,40
42120,note_on,0,0,1,,,,,,,,,0,,,55,40
42120,note_on,0,0,1,,,,,,,,,0,,,67,40
42120,note_on,0,0,1,,,,,,,,,0,,,55,0
42120,note_on,40,0,1,,,,,,,,,0,,,67,0
42120,note_on,120,0,3,,,,,,,,,0,,,50,0
42120,note_on,0,0,3,,,,,,,,,0,,,48,50
42160,note_on,40,0,1,,,,,,,,,0,,,55,0
42160,note_on,0,0,1,,,,,,,,,0,,,67,0
42160,note_on,0,0,1,,,,,,,,,0,,,67,40
42160,note_on,0,0,1,,,,,,,,,0,,,55,40
42200,note_on,40,0,1,,,,,,,,,0,,,55,0
42200,note_on,0,0,1,,,,,,,,,0,,,67,0
42200,note_on,0,0,1,,,,,,,,,0,,,67,40
42200,note_on,0,0,1,,,,,,,,,0,,,55,40
42210,note_on,0,0,3,,,,,,,,,0,,,50,50
42210,note_on,90,0,3,,,,,,,,,0,,,48,0
42240,note_on,0,0,1,,,,,,,,,0,,,55,40
42240,note_on,0,0,1,,,,,,,,,0,,,67,40
42240,note_on,0,0,1,,,,,,,,,0,,,67,0
42240,note_on,40,0,1,,,,,,,,,0,,,55,0
42240,note_on,30,0,3,,,,,,,,,0,,,50,0
42240,note_on,0,0,3,,,,,,,,,0,,,51,50
42280,note_on,40,0,1,,,,,,,,,0,,,67,0
42280,note_on,0,0,1,,,,,,,,,0,,,55,0
42280,note_on,0,0,1,,,,,,,,,0,,,55,40
42280,note_on,0,0,1,,,,,,,,,0,,,67,40
42320,note_on,40,0,1,,,,,,,,,0,,,67,0
42320,note_on,0,0,1,,,,,,,,,0,,,55,0
42320,note_on,0,0,1,,,,,,,,,0,,,55,40
42320,note_on,0,0,1,,,,,,,,,0,,,67,40
42360,note_on,40,0,1,,,,,,,,,0,,,67,0
42360,note_on,0,0,1,,,,,,,,,0,,,55,0
42360,note_on,0,0,1,,,,,,,,,0,,,67,40
42360,note_on,0,0,1,,,,,,,,,0,,,55,40
42400,note_on,40,0,1,,,,,,,,,0,,,55,0
42400,note_on,0,0,1,,,,,,,,,0,,,67,0
42400,note_on,0,0,1,,,,,,,,,0,,,67,40
42400,note_on,0,0,1,,,,,,,,,0,,,55,40
42420,note_on,180,0,3,,,,,,,,,0,,,51,0
42420,note_on,0,0,3,,,,,,,,,0,,,50,50
42440,note_on,40,0,1,,,,,,,,,0,,,55,0
42440,note_on,0,0,1,,,,,,,,,0,,,67,0
42440,note_on,0,0,1,,,,,,,,,0,,,67,40
42440,note_on,0,0,1,,,,,,,,,0,,,55,40
42480,note_on,60,0,3,,,,,,,,,0,,,50,0
42480,note_on,0,0,1,,,,,,,,,0,,,67,40
42480,note_on,0,0,3,,,,,,,,,0,,,48,50
42480,note_on,0,0,1,,,,,,,,,0,,,55,40
42480,note_on,0,0,1,,,,,,,,,0,,,67,0
42480,note_on,40,0,1,,,,,,,,,0,,,55,0
42520,note_on,0,0,1,,,,,,,,,0,,,55,40
42520,note_on,0,0,1,,,,,,,,,0,,,55,0
42520,note_on,40,0,1,,,,,,,,,0,,,67,0
42520,note_on,0,0,1,,,,,,,,,0,,,67,40
42560,note_on,40,0,1,,,,,,,,,0,,,67,0
42560,note_on,0,0,1,,,,,,,,,0,,,55,0
42560,note_on,0,0,1,,,,,,,,,0,,,67,40
42560,note_on,0,0,1,,,,,,,,,0,,,55,40
42600,note_on,0,0,3,,,,,,,,,0,,,46,50
42600,note_on,120,0,3,,,,,,,,,0,,,48,0
42600,note_on,0,0,1,,,,,,,,,0,,,55,40
42600,note_on,0,0,1,,,,,,,,,0,,,67,40
42600,note_on,0,0,1,,,,,,,,,0,,,55,0
42600,note_on,40,0,1,,,,,,,,,0,,,67,0
42640,note_on,0,0,1,,,,,,,,,0,,,67,40
42640,note_on,40,0,1,,,,,,,,,0,,,55,0
42640,note_on,0,0,1,,,,,,,,,0,,,55,40
42640,note_on,0,0,1,,,,,,,,,0,,,67,0
42680,note_on,0,0,1,,,,,,,,,0,,,53,40
42680,note_on,0,0,1,,,,,,,,,0,,,67,0
42680,note_on,0,0,1,,,,,,,,,0,,,65,40
42680,note_on,40,0,1,,,,,,,,,0,,,55,0
42690,note_on,90,0,3,,,,,,,,,0,,,46,0
42690,note_on,0,0,3,,,,,,,,,0,,,44,50
42720,note_on,0,0,1,,,,,,,,,0,,,65,0
42720,note_on,30,0,3,,,,,,,,,0,,,44,0
42720,note_on,40,0,1,,,,,,,,,0,,,53,0
42720,note_on,0,0,1,,,,,,,,,0,,,60,40
42720,note_on,0,0,1,,,,,,,,,0,,,63,40
42720,note_on,0,0,1,,,,,,,,,0,,,67,40
42720,note_on,0,0,3,,,,,,,,,0,,,43,50
42720,note_on,0,0,1,,,,,,,,,0,,,55,40
42760,note_on,40,0,1,,,,,,,,,0,,,67,0
42760,note_on,0,0,1,,,,,,,,,0,,,55,0
42760,note_on,0,0,1,,,,,,,,,0,,,60,0
42760,note_on,0,0,1,,,,,,,,,0,,,63,0
42760,note_on,0,0,1,,,,,,,,,0,,,55,40
42760,note_on,0,0,1,,,,,,,,,0,,,67,40
42760,note_on,0,0,1,,,,,,,,,0,,,63,40
42760,note_on,0,0,1,,,,,,,,,0,,,60,40
42800,note_on,40,0,1,,,,,,,,,0,,,67,0
42800,note_on,0,0,1,,,,,,,,,0,,,55,0
42800,note_on,0,0,1,,,,,,,,,0,,,60,0
42800,note_on,0,0,1,,,,,,,,,0,,,63,0
42800,note_on,0,0,1,,,,,,,,,0,,,55,40
42800,note_on,0,0,1,,,,,,,,,0,,,60,40
42800,note_on,0,0,1,,,,,,,,,0,,,67,40
42800,note_on,0,0,1,,,,,,,,,0,,,63,40
42840,note_on,0,0,1,,,,,,,,,0,,,55,0
42840,note_on,0,0,1,,,,,,,,,0,,,60,0
42840,note_on,0,0,1,,,,,,,,,0,,,63,0
42840,note_on,0,0,1,,,,,,,,,0,,,55,40
42840,note_on,0,0,1,,,,,,,,,0,,,60,40
42840,note_on,0,0,1,,,,,,,,,0,,,63,40
42840,note_on,40,0,1,,,,,,,,,0,,,67,0
42840,note_on,0,0,1,,,,,,,,,0,,,67,40
42840,note_on,0,0,3,,,,,,,,,0,,,43,50
42840,note_on,120,0,3,,,,,,,,,0,,,43,0
42880,note_on,0,0,1,,,,,,,,,0,,,67,40
42880,note_on,0,0,1,,,,,,,,,0,,,60,40
42880,note_on,0,0,1,,,,,,,,,0,,,55,40
42880,note_on,0,0,1,,,,,,,,,0,,,63,0
42880,note_on,40,0,1,,,,,,,,,0,,,67,0
42880,note_on,0,0,1,,,,,,,,,0,,,55,0
42880,note_on,0,0,1,,,,,,,,,0,,,63,40
42880,note_on,0,0,1,,,,,,,,,0,,,60,0
42920,note_on,0,0,1,,,,,,,,,0,,,60,40
42920,note_on,0,0,1,,,,,,,,,0,,,63,40
42920,note_on,0,0,1,,,,,,,,,0,,,55,0
42920,note_on,0,0,1,,,,,,,,,0,,,60,0
42920,note_on,0,0,1,,,,,,,,,0,,,63,0
42920,note_on,0,0,1,,,,,,,,,0,,,55,40
42920,note_on,0,0,1,,,,,,,,,0,,,67,40
42920,note_on,40,0,1,,,,,,,,,0,,,67,0
42960,note_on,0,0,1,,,,,,,,,0,,,67,40
42960,note_on,0,0,1,,,,,,,,,0,,,62,40
42960,note_on,0,0,1,,,,,,,,,0,,,59,40
42960,note_on,0,0,1,,,,,,,,,0,,,55,40
42960,note_on,40,0,1,,,,,,,,,0,,,67,0
42960,note_on,0,0,1,,,,,,,,,0,,,63,0
42960,note_on,0,0,1,,,,,,,,,0,,,60,0
42960,note_on,0,0,3,,,,,,,,,0,,,43,50
42960,note_on,120,0,3,,,,,,,,,0,,,43,0
42960,note_on,0,0,1,,,,,,,,,0,,,55,0
43000,note_on,0,0,1,,,,,,,,,0,,,59,40
43000,note_on,0,0,1,,,,,,,,,0,,,67,40
43000,note_on,0,0,1,,,,,,,,,0,,,62,40
43000,note_on,0,0,1,,,,,,,,,0,,,55,40
43000,note_on,0,0,1,,,,,,,,,0,,,62,0
43000,note_on,0,0,1,,,,,,,,,0,,,55,0
43000,note_on,40,0,1,,,,,,,,,0,,,67,0
43000,note_on,0,0,1,,,,,,,,,0,,,59,0
43040,note_on,40,0,1,,,,,,,,,0,,,67,0
43040,note_on,0,0,1,,,,,,,,,0,,,55,0
43040,note_on,0,0,1,,,,,,,,,0,,,59,0
43040,note_on,0,0,1,,,,,,,,,0,,,62,0
43040,note_on,0,0,1,,,,,,,,,0,,,55,40
43040,note_on,0,0,1,,,,,,,,,0,,,59,40
43040,note_on,0,0,1,,,,,,,,,0,,,62,40
43040,note_on,0,0,1,,,,,,,,,0,,,67,40
43080,note_on,0,0,1,,,,,,,,,0,,,62,0
43080,note_on,0,0,1,,,,,,,,,0,,,67,40
43080,note_on,0,0,1,,,,,,,,,0,,,62,40
43080,note_on,0,0,1,,,,,,,,,0,,,59,40
43080,note_on,0,0,1,,,,,,,,,0,,,55,40
43080,note_on,0,0,1,,,,,,,,,0,,,55,0
43080,note_on,40,0,1,,,,,,,,,0,,,67,0
43080,note_on,0,0,3,,,,,,,,,0,,,43,50
43080,note_on,120,0,3,,,,,,,,,0,,,43,0
43080,note_on,0,0,1,,,,,,,,,0,,,59,0
43120,note_on,0,0,1,,,,,,,,,0,,,67,40
43120,note_on,40,0,1,,,,,,,,,0,,,67,0
43120,note_on,0,0,1,,,,,,,,,0,,,55,0
43120,note_on,0,0,1,,,,,,,,,0,,,59,0
43120,note_on,0,0,1,,,,,,,,,0,,,62,0
43120,note_on,0,0,1,,,,,,,,,0,,,55,40
43120,note_on,0,0,1,,,,,,,,,0,,,59,40
43120,note_on,0,0,1,,,,,,,,,0,,,62,40
43160,note_on,0,0,1,,,,,,,,,0,,,62,40
43160,note_on,0,0,1,,,,,,,,,0,,,59,40
43160,note_on,0,0,1,,,,,,,,,0,,,67,40
43160,note_on,0,0,1,,,,,,,,,0,,,55,40
43160,note_on,0,0,1,,,,,,,,,0,,,62,0
43160,note_on,0,0,1,,,,,,,,,0,,,59,0
43160,note_on,0,0,1,,,,,,,,,0,,,55,0
43160,note_on,40,0,1,,,,,,,,,0,,,67,0
43200,note_on,40,0,1,,,,,,,,,0,,,67,0
43200,note_on,0,0,1,,,,,,,,,0,,,55,0
43200,note_on,0,0,1,,,,,,,,,0,,,59,0
43200,note_on,0,0,1,,,,,,,,,0,,,62,0
43200,note_on,0,0,1,,,,,,,,,0,,,55,40
43200,note_on,0,0,1,,,,,,,,,0,,,60,40
43200,note_on,0,0,1,,,,,,,,,0,,,63,40
43200,note_on,0,0,1,,,,,,,,,0,,,67,40
43200,note_on,0,0,3,,,,,,,,,0,,,48,50
43200,note_on,120,0,3,,,,,,,,,0,,,43,0
43240,note_on,0,0,1,,,,,,,,,0,,,67,45
43240,note_on,0,0,1,,,,,,,,,0,,,55,45
43240,note_on,0,0,1,,,,,,,,,0,,,60,0
43240,note_on,0,0,1,,,,,,,,,0,,,55,0
43240,note_on,0,0,1,,,,,,,,,0,,,63,0
43240,note_on,40,0,1,,,,,,,,,0,,,67,0
43280,note_on,40,0,1,,,,,,,,,0,,,67,0
43280,note_on,0,0,1,,,,,,,,,0,,,55,0
43280,note_on,0,0,1,,,,,,,,,0,,,55,51
43280,note_on,0,0,1,,,,,,,,,0,,,67,51
43320,note_on,0,0,1,,,,,,,,,0,,,55,0
43320,note_on,40,0,1,,,,,,,,,0,,,67,0
43320,note_on,0,0,1,,,,,,,,,0,,,55,57
43320,note_on,0,0,1,,,,,,,,,0,,,67,57
43360,note_on,0,0,1,,,,,,,,,0,,,55,62
43360,note_on,0,0,1,,,,,,,,,0,,,67,62
43360,note_on,40,0,1,,,,,,,,,0,,,67,0
43360,note_on,0,0,1,,,,,,,,,0,,,55,0
43400,note_on,0,0,1,,,,,,,,,0,,,55,68
43400,note_on,0,0,1,,,,,,,,,0,,,55,0
43400,note_on,0,0,1,,,,,,,,,0,,,67,68
43400,note_on,40,0,1,,,,,,,,,0,,,67,0
43440,note_on,0,0,1,,,,,,,,,0,,,55,0
43440,note_on,0,0,1,,,,,,,,,0,,,55,74
43440,note_on,0,0,1,,,,,,,,,0,,,67,74
43440,note_on,240,0,3,,,,,,,,,0,,,48,0
43440,note_on,40,0,1,,,,,,,,,0,,,67,0
43480,note_on,40,0,1,,,,,,,,,0,,,67,0
43480,note_on,0,0,1,,,,,,,,,0,,,55,0
43480,note_on,0,0,1,,,,,,,,,0,,,55,79
43480,note_on,0,0,1,,,,,,,,,0,,,67,79
43520,note_on,40,0,1,,,,,,,,,0,,,67,0
43520,note_on,0,0,1,,,,,,,,,0,,,55,0
43520,note_on,0,0,1,,,,,,,,,0,,,55,85
43520,note_on,0,0,1,,,,,,,,,0,,,67,85
43560,note_on,0,0,3,,,,,,,,,0,,,47,101
43560,note_on,120,0,3,,,,,,,,,0,,,35,101
43560,note_on,0,0,1,,,,,,,,,0,,,55,91
43560,note_on,0,0,1,,,,,,,,,0,,,67,91
43560,note_on,40,0,1,,,,,,,,,0,,,67,0
43560,note_on,0,0,1,,,,,,,,,0,,,55,0
43600,note_on,0,0,1,,,,,,,,,0,,,55,0
43600,note_on,40,0,1,,,,,,,,,0,,,67,0
43600,note_on,0,0,1,,,,,,,,,0,,,55,97
43600,note_on,0,0,1,,,,,,,,,0,,,67,97
43640,note_on,0,0,1,,,,,,,,,0,,,55,0
43640,note_on,40,0,1,,,,,,,,,0,,,67,0
43640,note_on,0,0,1,,,,,,,,,0,,,67,100
43640,note_on,0,0,1,,,,,,,,,0,,,55,100
43650,note_on,0,0,3,,,,,,,,,0,,,48,110
43650,note_on,0,0,3,,,,,,,,,0,,,36,110
43650,note_on,0,0,3,,,,,,,,,0,,,35,0
43650,note_on,90,0,3,,,,,,,,,0,,,47,0
43680,note_on,0,0,3,,,,,,,,,0,,,50,110
43680,note_on,0,0,3,,,,,,,,,0,,,38,110
43680,note_on,0,0,3,,,,,,,,,0,,,36,0
43680,note_on,30,0,3,,,,,,,,,0,,,48,0
43680,note_on,40,0,1,,,,,,,,,0,,,67,0
43680,note_on,0,0,1,,,,,,,,,0,,,55,0
43680,note_on,0,0,1,,,,,,,,,0,,,55,100
43680,note_on,0,0,1,,,,,,,,,0,,,67,100
43720,note_on,0,0,1,,,,,,,,,0,,,55,100
43720,note_on,0,0,1,,,,,,,,,0,,,67,100
43720,note_on,0,0,1,,,,,,,,,0,,,55,0
43720,note_on,40,0,1,,,,,,,,,0,,,67,0
43760,note_on,0,0,1,,,,,,,,,0,,,67,101
43760,note_on,0,0,1,,,,,,,,,0,,,55,101
43760,note_on,0,0,1,,,,,,,,,0,,,55,0
43760,note_on,40,0,1,,,,,,,,,0,,,67,0
43800,note_on,0,0,3,,,,,,,,,0,,,38,112
43800,note_on,0,0,3,,,,,,,,,0,,,50,112
43800,note_on,0,0,1,,,,,,,,,0,,,67,102
43800,note_on,40,0,1,,,,,,,,,0,,,67,0
43800,note_on,0,0,3,,,,,,,,,0,,,38,0
43800,note_on,0,0,1,,,,,,,,,0,,,55,102
43800,note_on,0,0,1,,,,,,,,,0,,,55,0
43800,note_on,120,0,3,,,,,,,,,0,,,50,0
43840,note_on,0,0,1,,,,,,,,,0,,,55,103
43840,note_on,0,0,1,,,,,,,,,0,,,67,103
43840,note_on,0,0,1,,,,,,,,,0,,,67,0
43840,note_on,40,0,1,,,,,,,,,0,,,55,0
43880,note_on,0,0,1,,,,,,,,,0,,,55,104
43880,note_on,0,0,1,,,,,,,,,0,,,67,0
43880,note_on,40,0,1,,,,,,,,,0,,,55,0
43880,note_on,0,0,1,,,,,,,,,0,,,67,104
43920,note_on,0,0,3,,,,,,,,,0,,,38,0
43920,note_on,0,0,3,,,,,,,,,0,,,38,115
43920,note_on,0,0,3,,,,,,,,,0,,,50,115
43920,note_on,120,0,3,,,,,,,,,0,,,50,0
43920,note_on,0,0,1,,,,,,,,,0,,,67,105
43920,note_on,40,0,1,,,,,,,,,0,,,55,0
43920,note_on,0,0,1,,,,,,,,,0,,,67,0
43920,note_on,0,0,1,,,,,,,,,0,,,55,105
43960,note_on,0,0,1,,,,,,,,,0,,,55,106
43960,note_on,40,0,1,,,,,,,,,0,,,67,0
43960,note_on,0,0,1,,,,,,,,,0,,,55,0
43960,note_on,0,0,1,,,,,,,,,0,,,67,106
44000,note_on,40,0,1,,,,,,,,,0,,,67,0
44000,note_on,0,0,1,,,,,,,,,0,,,55,0
44000,note_on,0,0,1,,,,,,,,,0,,,55,107
44000,note_on,0,0,1,,,,,,,,,0,,,67,107
44040,note_on,0,0,1,,,,,,,,,0,,,55,0
44040,note_on,0,0,1,,,,,,,,,0,,,68,108
44040,note_on,0,0,1,,,,,,,,,0,,,56,108
44040,note_on,0,0,3,,,,,,,,,0,,,48,118
44040,note_on,0,0,3,,,,,,,,,0,,,36,118
44040,note_on,40,0,1,,,,,,,,,0,,,67,0
44040,note_on,120,0,3,,,,,,,,,0,,,50,0
44040,note_on,0,0,3,,,,,,,,,0,,,38,0
44080,note_on,40,0,1,,,,,,,,,0,,,56,0
44080,note_on,0,0,1,,,,,,,,,0,,,68,0
44080,note_on,0,0,1,,,,,,,,,0,,,68,109
44080,note_on,0,0,1,,,,,,,,,0,,,56,109
44120,note_on,0,0,1,,,,,,,,,0,,,56,110
44120,note_on,0,0,1,,,,,,,,,0,,,68,0
44120,note_on,40,0,1,,,,,,,,,0,,,56,0
44120,note_on,0,0,1,,,,,,,,,0,,,68,110
44130,note_on,90,0,3,,,,,,,,,0,,,48,0
44130,note_on,0,0,3,,,,,,,,,0,,,36,0
44130,note_on,0,0,3,,,,,,,,,0,,,38,120
44130,note_on,0,0,3,,,,,,,,,0,,,50,120
44160,note_on,0,0,1,,,,,,,,,0,,,67,110
44160,note_on,40,0,1,,,,,,,,,0,,,56,0
44160,note_on,0,0,1,,,,,,,,,0,,,68,0
44160,note_on,0,0,1,,,,,,,,,0,,,55,110
44160,note_on,0,0,3,,,,,,,,,0,,,51,120
44160,note_on,0,0,3,,,,,,,,,0,,,39,120
44160,note_on,0,0,3,,,,,,,,,0,,,38,0
44160,note_on,30,0,3,,,,,,,,,0,,,50,0
44200,note_on,40,0,1,,,,,,,,,0,,,67,0
44200,note_on,0,0,1,,,,,,,,,0,,,55,0
44200,note_on,0,0,1,,,,,,,,,0,,,55,110
44200,note_on,0,0,1,,,,,,,,,0,,,67,110
44240,note_on,40,0,1,,,,,,,,,0,,,67,0
44240,note_on,0,0,1,,,,,,,,,0,,,55,0
44240,note_on,0,0,1,,,,,,,,,0,,,55,109
44240,note_on,0,0,1,,,,,,,,,0,,,67,109
44280,note_on,0,0,1,,,,,,,,,0,,,55,0
44280,note_on,0,0,1,,,,,,,,,0,,,67,108
44280,note_on,0,0,1,,,,,,,,,0,,,55,108
44280,note_on,40,0,1,,,,,,,,,0,,,67,0
44320,note_on,0,0,1,,,,,,,,,0,,,55,0
44320,note_on,0,0,1,,,,,,,,,0,,,55,107
44320,note_on,0,0,1,,,,,,,,,0,,,67,107
44320,note_on,40,0,1,,,,,,,,,0,,,67,0
44340,note_on,0,0,3,,,,,,,,,0,,,39,0
44340,note_on,180,0,3,,,,,,,,,0,,,51,0
44340,note_on,0,0,3,,,,,,,,,0,,,50,116
44340,note_on,0,0,3,,,,,,,,,0,,,38,116
44360,note_on,0,0,1,,,,,,,,,0,,,67,106
44360,note_on,0,0,1,,,,,,,,,0,,,55,106
44360,note_on,40,0,1,,,,,,,,,0,,,67,0
44360,note_on,0,0,1,,,,,,,,,0,,,55,0
44400,note_on,0,0,1,,,,,,,,,0,,,67,105
44400,note_on,0,0,1,,,,,,,,,0,,,55,105
44400,note_on,0,0,1,,,,,,,,,0,,,55,0
44400,note_on,40,0,1,,,,,,,,,0,,,67,0
44400,note_on,0,0,3,,,,,,,,,0,,,38,0
44400,note_on,0,0,3,,,,,,,,,0,,,36,115
44400,note_on,0,0,3,,,,,,,,,0,,,48,115
44400,note_on,60,0,3,,,,,,,,,0,,,50,0
44440,note_on,40,0,1,,,,,,,,,0,,,67,0
44440,note_on,0,0,1,,,,,,,,,0,,,55,0
44440,note_on,0,0,1,,,,,,,,,0,,,55,104
44440,note_on,0,0,1,,,,,,,,,0,,,67,104
44480,note_on,0,0,1,,,,,,,,,0,,,55,0
44480,note_on,40,0,1,,,,,,,,,0,,,67,0
44480,note_on,0,0,1,,,,,,,,,0,,,67,103
44480,note_on,0,0,1,,,,,,,,,0,,,55,103
44520,note_on,120,0,3,,,,,,,,,0,,,48,0
44520,note_on,0,0,3,,,,,,,,,0,,,34,112
44520,note_on,0,0,1,,,,,,,,,0,,,67,102
44520,note_on,0,0,1,,,,,,,,,0,,,55,102
44520,note_on,0,0,1,,,,,,,,,0,,,55,0
44520,note_on,40,0,1,,,,,,,,,0,,,67,0
44520,note_on,0,0,3,,,,,,,,,0,,,46,112
44520,note_on,0,0,3,,,,,,,,,0,,,36,0
44560,note_on,0,0,1,,,,,,,,,0,,,55,101
44560,note_on,0,0,1,,,,,,,,,0,,,55,0
44560,note_on,0,0,1,,,,,,,,,0,,,67,101
44560,note_on,40,0,1,,,,,,,,,0,,,67,0
44600,note_on,40,0,1,,,,,,,,,0,,,67,0
44600,note_on,0,0,1,,,,,,,,,0,,,65,100
44600,note_on,0,0,1,,,,,,,,,0,,,55,0
44600,note_on,0,0,1,,,,,,,,,0,,,53,100
44610,note_on,0,0,3,,,,,,,,,0,,,44,110
44610,note_on,0,0,3,,,,,,,,,0,,,32,110
44610,note_on,0,0,3,,,,,,,,,0,,,34,0
44610,note_on,90,0,3,,,,,,,,,0,,,46,0
44640,note_on,30,0,3,,,,,,,,,0,,,44,0
44640,note_on,0,0,3,,,,,,,,,0,,,32,0
44640,note_on,0,0,3,,,,,,,,,0,,,43,110
44640,note_on,0,0,1,,,,,,,,,0,,,67,100
44640,note_on,0,0,1,,,,,,,,,0,,,63,100
44640,note_on,0,0,1,,,,,,,,,0,,,60,100
44640,note_on,0,0,1,,,,,,,,,0,,,55,100
44640,note_on,0,0,1,,,,,,,,,0,,,53,0
44640,note_on,40,0,1,,,,,,,,,0,,,65,0
44640,note_on,0,0,3,,,,,,,,,0,,,31,110
44680,note_on,0,0,1,,,,,,,,,0,,,63,100
44680,note_on,0,0,1,,,,,,,,,0,,,67,100
44680,note_on,0,0,1,,,,,,,,,0,,,55,100
44680,note_on,0,0,1,,,,,,,,,0,,,63,0
44680,note_on,0,0,1,,,,,,,,,0,,,60,0
44680,note_on,0,0,1,,,,,,,,,0,,,60,100
44680,note_on,40,0,1,,,,,,,,,0,,,67,0
44680,note_on,0,0,1,,,,,,,,,0,,,55,0
44720,note_on,0,0,1,,,,,,,,,0,,,55,0
44720,note_on,0,0,1,,,,,,,,,0,,,60,0
44720,note_on,0,0,1,,,,,,,,,0,,,63,0
44720,note_on,0,0,1,,,,,,,,,0,,,55,100
44720,note_on,0,0,1,,,,,,,,,0,,,60,100
44720,note_on,0,0,1,,,,,,,,,0,,,63,100
44720,note_on,0,0,1,,,,,,,,,0,,,67,100
44720,note_on,40,0,1,,,,,,,,,0,,,67,0
44760,note_on,0,0,3,,,,,,,,,0,,,31,0
44760,note_on,40,0,1,,,,,,,,,0,,,67,0
44760,note_on,0,0,1,,,,,,,,,0,,,55,0
44760,note_on,0,0,1,,,,,,,,,0,,,60,0
44760,note_on,0,0,1,,,,,,,,,0,,,63,0
44760,note_on,0,0,1,,,,,,,,,0,,,55,100
44760,note_on,0,0,1,,,,,,,,,0,,,63,100
44760,note_on,0,0,1,,,,,,,,,0,,,67,100
44760,note_on,120,0,3,,,,,,,,,0,,,43,0
44760,note_on,0,0,3,,,,,,,,,0,,,43,110
44760,note_on,0,0,3,,,,,,,,,0,,,31,110
44760,note_on,0,0,1,,,,,,,,,0,,,60,100
44800,note_on,40,0,1,,,,,,,,,0,,,67,0
44800,note_on,0,0,1,,,,,,,,,0,,,55,0
44800,note_on,0,0,1,,,,,,,,,0,,,67,100
44800,note_on,0,0,1,,,,,,,,,0,,,63,100
44800,note_on,0,0,1,,,,,,,,,0,,,60,100
44800,note_on,0,0,1,,,,,,,,,0,,,55,100
44800,note_on,0,0,1,,,,,,,,,0,,,63,0
44800,note_on,0,0,1,,,,,,,,,0,,,60,0
44840,note_on,40,0,1,,,,,,,,,0,,,67,0
44840,note_on,0,0,1,,,,,,,,,0,,,55,0
44840,note_on,0,0,1,,,,,,,,,0,,,60,0
44840,note_on,0,0,1,,,,,,,,,0,,,63,0
44840,note_on,0,0,1,,,,,,,,,0,,,55,100
44840,note_on,0,0,1,,,,,,,,,0,,,60,100
44840,note_on,0,0,1,,,,,,,,,0,,,63,100
44840,note_on,0,0,1,,,,,,,,,0,,,67,100
44880,note_on,0,0,1,,,,,,,,,0,,,59,100
44880,note_on,0,0,1,,,,,,,,,0,,,67,100
44880,note_on,0,0,1,,,,,,,,,0,,,62,100
44880,note_on,0,0,1,,,,,,,,,0,,,55,100
44880,note_on,0,0,1,,,,,,,,,0,,,63,0
44880,note_on,0,0,1,,,,,,,,,0,,,55,0
44880,note_on,0,0,1,,,,,,,,,0,,,60,0
44880,note_on,0,0,3,,,,,,,,,0,,,43,110
44880,note_on,0,0,3,,,,,,,,,0,,,31,110
44880,note_on,0,0,3,,,,,,,,,0,,,31,0
44880,note_on,120,0,3,,,,,,,,,0,,,43,0
44880,note_on,40,0,1,,,,,,,,,0,,,67,0
44920,note_on,40,0,1,,,,,,,,,0,,,67,0
44920,note_on,0,0,1,,,,,,,,,0,,,62,100
44920,note_on,0,0,1,,,,,,,,,0,,,55,0
44920,note_on,0,0,1,,,,,,,,,0,,,59,0
44920,note_on,0,0,1,,,,,,,,,0,,,62,0
44920,note_on,0,0,1,,,,,,,,,0,,,55,100
44920,note_on,0,0,1,,,,,,,,,0,,,59,100
44920,note_on,0,0,1,,,,,,,,,0,,,67,100
44960,note_on,0,0,1,,,,,,,,,0,,,62,100
44960,note_on,0,0,1,,,,,,,,,0,,,59,100
44960,note_on,0,0,1,,,,,,,,,0,,,67,100
44960,note_on,0,0,1,,,,,,,,,0,,,62,0
44960,note_on,0,0,1,,,,,,,,,0,,,55,0
44960,note_on,40,0,1,,,,,,,,,0,,,67,0
44960,note_on,0,0,1,,,,,,,,,0,,,55,100
44960,note_on,0,0,1,,,,,,,,,0,,,59,0
45000,note_on,120,0,3,,,,,,,,,0,,,43,0
45000,note_on,0,0,3,,,,,,,,,0,,,31,0
45000,note_on,0,0,1,,,,,,,,,0,,,62,0
45000,note_on,0,0,1,,,,,,,,,0,,,67,100
45000,note_on,0,0,1,,,,,,,,,0,,,62,100
45000,note_on,0,0,1,,,,,,,,,0,,,59,100
45000,note_on,0,0,1,,,,,,,,,0,,,55,100
45000,note_on,40,0,1,,,,,,,,,0,,,67,0
45000,note_on,0,0,1,,,,,,,,,0,,,59,0
45000,note_on,0,0,1,,,,,,,,,0,,,55,0
45000,note_on,0,0,3,,,,,,,,,0,,,43,110
45000,note_on,0,0,3,,,,,,,,,0,,,31,110
45040,note_on,40,0,1,,,,,,,,,0,,,67,0
45040,note_on,0,0,1,,,,,,,,,0,,,55,0
45040,note_on,0,0,1,,,,,,,,,0,,,59,0
45040,note_on,0,0,1,,,,,,,,,0,,,62,0
45040,note_on,0,0,1,,,,,,,,,0,,,55,100
45040,note_on,0,0,1,,,,,,,,,0,,,59,100
45040,note_on,0,0,1,,,,,,,,,0,,,62,100
45040,note_on,0,0,1,,,,,,,,,0,,,67,100
45080,note_on,0,0,1,,,,,,,,,0,,,67,100
45080,note_on,0,0,1,,,,,,,,,0,,,62,100
45080,note_on,0,0,1,,,,,,,,,0,,,59,100
45080,note_on,0,0,1,,,,,,,,,0,,,55,100
45080,note_on,40,0,1,,,,,,,,,0,,,67,0
45080,note_on,0,0,1,,,,,,,,,0,,,59,0
45080,note_on,0,0,1,,,,,,,,,0,,,55,0
45080,note_on,0,0,1,,,,,,,,,0,,,62,0
45120,marker,6240,1,0,,,,,,,,,,,,,
45120,note_on,40,0,1,,,,,,,,,0,,,67,0
45120,note_on,0,0,1,,,,,,,,,0,,,59,0
45120,note_on,0,0,1,,,,,,,,,0,,,55,0
45120,note_on,0,0,1,,,,,,,,,0,,,55,70
45120,note_on,0,0,1,,,,,,,,,0,,,60,70
45120,note_on,0,0,1,,,,,,,,,0,,,63,70
45120,note_on,0,0,1,,,,,,,,,0,,,67,70
45120,note_on,120,0,3,,,,,,,,,0,,,43,0
45120,note_on,0,0,3,,,,,,,,,0,,,31,0
45120,note_on,0,0,3,,,,,,,,,0,,,36,60
45120,note_on,0,0,3,,,,,,,,,0,,,48,60
45120,note_on,0,0,1,,,,,,,,,0,,,62,0
45160,note_on,40,0,3,,,,,,,,,0,,,48,0
45160,note_on,0,0,3,,,,,,,,,0,,,36,0
45160,note_on,0,0,3,,,,,,,,,0,,,55,59
45200,note_on,40,0,3,,,,,,,,,0,,,55,0
45200,note_on,0,0,3,,,,,,,,,0,,,55,57
45240,note_on,40,0,3,,,,,,,,,0,,,55,0
45240,note_on,0,0,3,,,,,,,,,0,,,55,55
45280,note_on,40,0,3,,,,,,,,,0,,,55,0
45280,note_on,0,0,3,,,,,,,,,0,,,55,53
45320,note_on,40,0,3,,,,,,,,,0,,,55,0
45320,note_on,0,0,3,,,,,,,,,0,,,55,51
45360,note_on,0,0,1,,,,,,,,,0,,,63,0
45360,note_on,0,0,1,,,,,,,,,0,,,60,0
45360,note_on,0,0,1,,,,,,,,,0,,,55,0
45360,note_on,240,0,1,,,,,,,,,0,,,67,0
45360,note_on,40,0,3,,,,,,,,,0,,,55,0
45360,note_on,0,0,3,,,,,,,,,0,,,55,50
45400,note_on,40,0,3,,,,,,,,,0,,,55,0
45400,note_on,0,0,3,,,,,,,,,0,,,55,48
45440,note_on,40,0,3,,,,,,,,,0,,,55,0
45440,note_on,0,0,3,,,,,,,,,0,,,55,46
45480,note_on,40,0,3,,,,,,,,,0,,,55,0
45480,note_on,0,0,3,,,,,,,,,0,,,55,44
45480,note_on,120,0,1,,,,,,,,,0,,,71,54
45520,note_on,40,0,3,,,,,,,,,0,,,55,0
45520,note_on,0,0,3,,,,,,,,,0,,,55,42
45560,note_on,0,0,3,,,,,,,,,0,,,55,41
45560,note_on,40,0,3,,,,,,,,,0,,,55,0
45570,note_on,90,0,1,,,,,,,,,0,,,71,0
45570,note_on,0,0,1,,,,,,,,,0,,,72,50
45600,note_on,30,0,1,,,,,,,,,0,,,72,0
45600,note_on,40,0,3,,,,,,,,,0,,,55,0
45600,note_on,0,0,3,,,,,,,,,0,,,55,40
45600,note_on,0,0,1,,,,,,,,,0,,,74,50
45640,note_on,40,0,3,,,,,,,,,0,,,55,0
45640,note_on,0,0,3,,,,,,,,,0,,,55,40
45680,note_on,40,0,3,,,,,,,,,0,,,55,0
45680,note_on,0,0,3,,,,,,,,,0,,,55,40
45720,note_on,0,0,1,,,,,,,,,0,,,65,40
45720,note_on,0,0,3,,,,,,,,,0,,,55,40
45720,note_on,120,0,1,,,,,,,,,0,,,74,0
45720,note_on,0,0,1,,,,,,,,,0,,,74,50
45720,note_on,40,0,3,,,,,,,,,0,,,55,0
45760,note_on,40,0,3,,,,,,,,,0,,,55,0
45760,note_on,0,0,3,,,,,,,,,0,,,55,40
45800,note_on,0,0,3,,,,,,,,,0,,,55,40
45800,note_on,40,0,3,,,,,,,,,0,,,55,0
45840,note_on,0,0,3,,,,,,,,,0,,,55,40
45840,note_on,0,0,1,,,,,,,,,0,,,74,50
45840,note_on,0,0,1,,,,,,,,,0,,,68,40
45840,note_on,0,0,1,,,,,,,,,0,,,65,0
45840,note_on,120,0,1,,,,,,,,,0,,,74,0
45840,note_on,40,0,3,,,,,,,,,0,,,55,0
45880,note_on,40,0,3,,,,,,,,,0,,,55,0
45880,note_on,0,0,3,,,,,,,,,0,,,55,40
45920,note_on,40,0,3,,,,,,,,,0,,,55,0
45920,note_on,0,0,3,,,,,,,,,0,,,55,40
45960,note_on,0,0,1,,,,,,,,,0,,,68,0
45960,note_on,0,0,1,,,,,,,,,0,,,72,50
45960,note_on,120,0,1,,,,,,,,,0,,,74,0
45960,note_on,0,0,3,,,,,,,,,0,,,55,40
45960,note_on,40,0,3,,,,,,,,,0,,,55,0
46000,note_on,40,0,3,,,,,,,,,0,,,55,0
46000,note_on,0,0,3,,,,,,,,,0,,,55,40
46040,note_on,40,0,3,,,,,,,,,0,,,55,0
46040,note_on,0,0,3,,,,,,,,,0,,,55,40
46050,note_on,90,0,1,,,,,,,,,0,,,72,0
46050,note_on,0,0,1,,,,,,,,,0,,,74,50
46080,note_on,0,0,3,,,,,,,,,0,,,55,40
46080,note_on,0,0,1,,,,,,,,,0,,,75,50
46080,note_on,30,0,1,,,,,,,,,0,,,74,0
46080,note_on,40,0,3,,,,,,,,,0,,,55,0
46120,note_on,40,0,3,,,,,,,,,0,,,55,0
46120,note_on,0,0,3,,,,,,,,,0,,,55,40
46160,note_on,40,0,3,,,,,,,,,0,,,55,0
46160,note_on,0,0,3,,,,,,,,,0,,,55,40
46200,note_on,0,0,3,,,,,,,,,0,,,55,40
46200,note_on,40,0,3,,,,,,,,,0,,,55,0
46200,note_on,120,0,1,,,,,,,,,0,,,63,40
46240,note_on,0,0,3,,,,,,,,,0,,,55,40
46240,note_on,40,0,3,,,,,,,,,0,,,55,0
46260,note_on,0,0,1,,,,,,,,,0,,,74,50
46260,note_on,60,0,1,,,,,,,,,0,,,75,0
46280,note_on,40,0,3,,,,,,,,,0,,,55,0
46280,note_on,0,0,3,,,,,,,,,0,,,55,40
46320,note_on,40,0,3,,,,,,,,,0,,,55,0
46320,note_on,0,0,3,,,,,,,,,0,,,55,40
46320,note_on,0,0,1,,,,,,,,,0,,,72,50
46320,note_on,0,0,1,,,,,,,,,0,,,67,40
46320,note_on,0,0,1,,,,,,,,,0,,,63,0
46320,note_on,60,0,1,,,,,,,,,0,,,74,0
46360,note_on,40,0,3,,,,,,,,,0,,,55,0
46360,note_on,0,0,3,,,,,,,,,0,,,55,40
46400,note_on,40,0,3,,,,,,,,,0,,,55,0
46400,note_on,0,0,3,,,,,,,,,0,,,55,40
46440,note_on,40,0,3,,,,,,,,,0,,,55,0
46440,note_on,0,0,1,,,,,,,,,0,,,74,50
46440,note_on,0,0,1,,,,,,,,,0,,,67,0
46440,note_on,120,0,1,,,,,,,,,0,,,72,0
46440,note_on,0,0,3,,,,,,,,,0,,,55,40
46480,note_on,40,0,3,,,,,,,,,0,,,55,0
46480,note_on,0,0,3,,,,,,,,,0,,,55,40
46520,note_on,0,0,3,,,,,,,,,0,,,55,40
46520,note_on,40,0,3,,,,,,,,,0,,,55,0
46530,note_on,0,0,1,,,,,,,,,0,,,72,50
46530,note_on,90,0,1,,,,,,,,,0,,,74,0
46560,note_on,30,0,1,,,,,,,,,0,,,72,0
46560,note_on,0,0,1,,,,,,,,,0,,,71,50
46560,note_on,0,0,3,,,,,,,,,0,,,55,40
46560,note_on,40,0,3,,,,,,,,,0,,,55,0
46600,note_on,40,0,3,,,,,,,,,0,,,55,0
46600,note_on,0,0,3,,,,,,,,,0,,,55,40
46640,note_on,40,0,3,,,,,,,,,0,,,55,0
46640,note_on,0,0,3,,,,,,,,,0,,,55,40
46680,note_on,40,0,3,,,,,,,,,0,,,55,0
46680,note_on,0,0,3,,,,,,,,,0,,,55,40
46680,note_on,0,0,1,,,,,,,,,0,,,69,50
46680,note_on,120,0,1,,,,,,,,,0,,,71,0
46680,note_on,0,0,1,,,,,,,,,0,,,65,40
46720,note_on,0,0,3,,,,,,,,,0,,,55,40
46720,note_on,40,0,3,,,,,,,,,0,,,55,0
46760,note_on,40,0,3,,,,,,,,,0,,,55,0
46760,note_on,0,0,3,,,,,,,,,0,,,55,40
46770,note_on,0,0,1,,,,,,,,,0,,,71,50
46770,note_on,90,0,1,,,,,,,,,0,,,69,0
46800,note_on,0,0,1,,,,,,,,,0,,,72,50
46800,note_on,0,0,1,,,,,,,,,0,,,65,0
46800,note_on,30,0,1,,,,,,,,,0,,,71,0
46800,note_on,40,0,3,,,,,,,,,0,,,55,0
46800,note_on,0,0,3,,,,,,,,,0,,,55,40
46800,note_on,0,0,1,,,,,,,,,0,,,63,40
46840,note_on,40,0,3,,,,,,,,,0,,,55,0
46840,note_on,0,0,3,,,,,,,,,0,,,55,40
46880,note_on,0,0,3,,,,,,,,,0,,,55,40
46880,note_on,40,0,3,,,,,,,,,0,,,55,0
46920,note_on,0,0,1,,,,,,,,,0,,,74,50
46920,note_on,0,0,3,,,,,,,,,0,,,60,40
46920,note_on,0,0,3,,,,,,,,,0,,,55,40
46920,note_on,0,0,1,,,,,,,,,0,,,63,0
46920,note_on,120,0,1,,,,,,,,,0,,,72,0
46920,note_on,40,0,3,,,,,,,,,0,,,55,0
46960,note_on,0,0,3,,,,,,,,,0,,,55,40
46960,note_on,40,0,3,,,,,,,,,0,,,55,0
47000,note_on,0,0,3,,,,,,,,,0,,,55,40
47000,note_on,40,0,3,,,,,,,,,0,,,55,0
47010,note_on,0,0,1,,,,,,,,,0,,,75,50
47010,note_on,90,0,1,,,,,,,,,0,,,74,0
47040,note_on,0,0,1,,,,,,,,,0,,,68,50
47040,note_on,0,0,3,,,,,,,,,0,,,60,0
47040,note_on,40,0,3,,,,,,,,,0,,,55,0
47040,note_on,0,0,1,,,,,,,,,0,,,67,40
47040,note_on,30,0,1,,,,,,,,,0,,,75,0
47040,note_on,0,0,3,,,,,,,,,0,,,55,40
47055,note_on,0,0,1,,,,,,,,,0,,,74,52
47055,note_on,15,0,1,,,,,,,,,0,,,68,0
47080,note_on,40,0,3,,,,,,,,,0,,,55,0
47080,note_on,0,0,3,,,,,,,,,0,,,55,47
47120,note_on,0,0,3,,,,,,,,,0,,,55,55
47120,note_on,40,0,3,,,,,,,,,0,,,55,0
47160,note_on,0,0,3,,,,,,,,,0,,,55,63
47160,note_on,40,0,3,,,,,,,,,0,,,55,0
47200,note_on,0,0,3,,,,,,,,,0,,,55,71
47200,note_on,40,0,3,,,,,,,,,0,,,55,0
47240,note_on,40,0,3,,,,,,,,,0,,,55,0
47240,note_on,0,0,3,,,,,,,,,0,,,55,79
47280,note_on,0,0,3,,,,,,,,,0,,,55,87
47280,note_on,40,0,3,,,,,,,,,0,,,55,0
47320,note_on,40,0,3,,,,,,,,,0,,,55,0
47320,note_on,0,0,3,,,,,,,,,0,,,55,95
47360,note_on,40,0,3,,,,,,,,,0,,,55,0
47360,note_on,0,0,3,,,,,,,,,0,,,55,100
47400,note_on,0,0,1,,,,,,,,,0,,,71,110
47400,note_on,345,0,1,,,,,,,,,0,,,74,0
47400,note_on,0,0,1,,,,,,,,,0,,,67,0
47400,note_on,0,0,1,,,,,,,,,0,,,59,100
47400,note_on,0,0,1,,,,,,,,,0,,,67,100
47400,note_on,40,0,3,,,,,,,,,0,,,55,0
47400,note_on,0,0,3,,,,,,,,,0,,,55,100
47440,note_on,0,0,3,,,,,,,,,0,,,55,100
47440,note_on,40,0,3,,,,,,,,,0,,,55,0
47480,note_on,0,0,3,,,,,,,,,0,,,55,100
47480,note_on,40,0,3,,,,,,,,,0,,,55,0
47490,note_on,90,0,1,,,,,,,,,0,,,71,0
47490,note_on,0,0,1,,,,,,,,,0,,,67,0
47490,note_on,0,0,1,,,,,,,,,0,,,59,0
47490,note_on,0,0,1,,,,,,,,,0,,,69,100
47490,note_on,0,0,1,,,,,,,,,0,,,60,100
47490,note_on,0,0,1,,,,,,,,,0,,,72,110
47520,note_on,0,0,1,,,,,,,,,0,,,74,110
47520,note_on,0,0,1,,,,,,,,,0,,,62,100
47520,note_on,30,0,1,,,,,,,,,0,,,72,0
47520,note_on,0,0,1,,,,,,,,,0,,,69,0
47520,note_on,0,0,1,,,,,,,,,0,,,60,0
47520,note_on,40,0,3,,,,,,,,,0,,,55,0
47520,note_on,0,0,1,,,,,,,,,0,,,71,100
47520,note_on,0,0,3,,,,,,,,,0,,,55,110
47560,note_on,0,0,3,,,,,,,,,0,,,55,110
47560,note_on,40,0,3,,,,,,,,,0,,,55,0
47600,note_on,0,0,3,,,,,,,,,0,,,55,110
47600,note_on,40,0,3,,,,,,,,,0,,,55,0
47640,note_on,0,0,3,,,,,,,,,0,,,54,110
47640,note_on,0,0,3,,,,,,,,,0,,,55,100
47640,note_on,40,0,3,,,,,,,,,0,,,55,0
47640,note_on,0,0,1,,,,,,,,,0,,,62,0
47640,note_on,0,0,1,,,,,,,,,0,,,62,100
47640,note_on,0,0,1,,,,,,,,,0,,,71,100
47640,note_on,0,0,1,,,,,,,,,0,,,71,0
47640,note_on,0,0,1,,,,,,,,,0,,,74,110
47640,note_on,120,0,1,,,,,,,,,0,,,74,0
47680,note_on,0,0,3,,,,,,,,,0,,,54,110
47680,note_on,40,0,3,,,,,,,,,0,,,54,0
47680,note_on,0,0,3,,,,,,,,,0,,,55,100
47680,note_on,0,0,3,,,,,,,,,0,,,55,0
47720,note_on,0,0,3,,,,,,,,,0,,,55,100
47720,note_on,0,0,3,,,,,,,,,0,,,55,0
47720,note_on,0,0,3,,,,,,,,,0,,,54,110
47720,note_on,40,0,3,,,,,,,,,0,,,54,0
47760,note_on,40,0,3,,,,,,,,,0,,,54,0
47760,note_on,0,0,3,,,,,,,,,0,,,55,0
47760,note_on,0,0,3,,,,,,,,,0,,,55,100
47760,note_on,0,0,3,,,,,,,,,0,,,53,110
47760,note_on,120,0,1,,,,,,,,,0,,,74,0
47760,note_on,0,0,1,,,,,,,,,0,,,62,0
47760,note_on,0,0,1,,,,,,,,,0,,,62,100
47760,note_on,0,0,1,,,,,,,,,0,,,71,0
47760,note_on,0,0,1,,,,,,,,,0,,,71,100
47760,note_on,0,0,1,,,,,,,,,0,,,74,110
47800,note_on,40,0,3,,,,,,,,,0,,,53,0
47800,note_on,0,0,3,,,,,,,,,0,,,55,0
47800,note_on,0,0,3,,,,,,,,,0,,,55,100
47800,note_on,0,0,3,,,,,,,,,0,,,53,110
47840,note_on,0,0,3,,,,,,,,,0,,,53,110
47840,note_on,0,0,3,,,,,,,,,0,,,55,100
47840,note_on,40,0,3,,,,,,,,,0,,,53,0
47840,note_on,0,0,3,,,,,,,,,0,,,55,0
47880,note_on,0,0,1,,,,,,,,,0,,,67,100
47880,note_on,0,0,1,,,,,,,,,0,,,62,0
47880,note_on,120,0,1,,,,,,,,,0,,,74,0
47880,note_on,40,0,3,,,,,,,,,0,,,53,0
47880,note_on,0,0,3,,,,,,,,,0,,,55,0
47880,note_on,0,0,3,,,,,,,,,0,,,55,100
47880,note_on,0,0,3,,,,,,,,,0,,,51,110
47880,note_on,0,0,1,,,,,,,,,0,,,60,100
47880,note_on,0,0,1,,,,,,,,,0,,,71,0
47880,note_on,0,0,1,,,,,,,,,0,,,72,110
47920,note_on,40,0,3,,,,,,,,,0,,,51,0
47920,note_on,0,0,3,,,,,,,,,0,,,55,0
47920,note_on,0,0,3,,,,,,,,,0,,,55,100
47920,note_on,0,0,3,,,,,,,,,0,,,51,110
47960,note_on,40,0,3,,,,,,,,,0,,,51,0
47960,note_on,0,0,3,,,,,,,,,0,,,55,100
47960,note_on,0,0,3,,,,,,,,,0,,,50,110
47960,note_on,0,0,3,,,,,,,,,0,,,55,0
47970,note_on,0,0,1,,,,,,,,,0,,,67,100
47970,note_on,0,0,1,,,,,,,,,0,,,62,100
47970,note_on,0,0,1,,,,,,,,,0,,,60,0
47970,note_on,0,0,1,,,,,,,,,0,,,67,0
47970,note_on,90,0,1,,,,,,,,,0,,,72,0
47970,note_on,0,0,1,,,,,,,,,0,,,74,110
48000,note_on,0,0,1,,,,,,,,,0,,,67,100
48000,note_on,0,0,1,,,,,,,,,0,,,63,100
48000,note_on,0,0,1,,,,,,,,,0,,,62,0
48000,note_on,0,0,1,,,,,,,,,0,,,67,0
48000,note_on,30,0,1,,,,,,,,,0,,,74,0
48000,note_on,40,0,3,,,,,,,,,0,,,50,0
48000,note_on,0,0,3,,,,,,,,,0,,,48,110
48000,note_on,0,0,3,,,,,,,,,0,,,55,100
48000,note_on,0,0,3,,,,,,,,,0,,,55,0
48000,note_on,0,0,1,,,,,,,,,0,,,75,110
48040,note_on,40,0,3,,,,,,,,,0,,,48,0
48040,note_on,0,0,3,,,,,,,,,0,,,48,110
48040,note_on,0,0,3,,,,,,,,,0,,,55,100
48040,note_on,0,0,3,,,,,,,,,0,,,55,0
48080,note_on,0,0,3,,,,,,,,,0,,,55,100
48080,note_on,40,0,3,,,,,,,,,0,,,48,0
48080,note_on,0,0,3,,,,,,,,,0,,,55,0
48080,note_on,0,0,3,,,,,,,,,0,,,48,110
48120,note_on,40,0,3,,,,,,,,,0,,,48,0
48120,note_on,0,0,3,,,,,,,,,0,,,55,0
48120,note_on,0,0,3,,,,,,,,,0,,,55,101
48120,note_on,0,0,3,,,,,,,,,0,,,46,111
48160,note_on,0,0,3,,,,,,,,,0,,,46,111
48160,note_on,40,0,3,,,,,,,,,0,,,46,0
48160,note_on,0,0,3,,,,,,,,,0,,,55,0
48160,note_on,0,0,3,,,,,,,,,0,,,55,101
48180,note_on,180,0,1,,,,,,,,,0,,,75,0
48180,note_on,0,0,1,,,,,,,,,0,,,63,0
48180,note_on,0,0,1,,,,,,,,,0,,,62,102
48180,note_on,0,0,1,,,,,,,,,0,,,74,112
48200,note_on,40,0,3,,,,,,,,,0,,,46,0
48200,note_on,0,0,3,,,,,,,,,0,,,46,112
48200,note_on,0,0,3,,,,,,,,,0,,,55,102
48200,note_on,0,0,3,,,,,,,,,0,,,55,0
48240,note_on,0,0,1,,,,,,,,,0,,,60,102
48240,note_on,0,0,1,,,,,,,,,0,,,72,112
48240,note_on,0,0,1,,,,,,,,,0,,,67,0
48240,note_on,0,0,1,,,,,,,,,0,,,67,102
48240,note_on,0,0,3,,,,,,,,,0,,,45,112
48240,note_on,60,0,1,,,,,,,,,0,,,74,0
48240,note_on,0,0,1,,,,,,,,,0,,,62,0
48240,note_on,0,0,3,,,,,,,,,0,,,55,0
48240,note_on,40,0,3,,,,,,,,,0,,,46,0
48240,note_on,0,0,3,,,,,,,,,0,,,55,102
48280,note_on,40,0,3,,,,,,,,,0,,,45,0
48280,note_on,0,0,3,,,,,,,,,0,,,55,0
48280,note_on,0,0,3,,,,,,,,,0,,,55,103
48280,note_on,0,0,3,,,,,,,,,0,,,45,113
48320,note_on,40,0,3,,,,,,,,,0,,,45,0
48320,note_on,0,0,3,,,,,,,,,0,,,55,0
48320,note_on,0,0,3,,,,,,,,,0,,,45,113
48320,note_on,0,0,3,,,,,,,,,0,,,55,103
48360,note_on,0,0,1,,,,,,,,,0,,,60,0
48360,note_on,0,0,1,,,,,,,,,0,,,67,0
48360,note_on,0,0,1,,,,,,,,,0,,,66,104
48360,note_on,0,0,1,,,,,,,,,0,,,62,104
48360,note_on,0,0,1,,,,,,,,,0,,,74,114
48360,note_on,40,0,3,,,,,,,,,0,,,45,0
48360,note_on,0,0,3,,,,,,,,,0,,,55,0
48360,note_on,0,0,3,,,,,,,,,0,,,54,104
48360,note_on,0,0,3,,,,,,,,,0,,,44,114
48360,note_on,120,0,1,,,,,,,,,0,,,72,0
48400,note_on,0,0,3,,,,,,,,,0,,,44,114
48400,note_on,0,0,3,,,,,,,,,0,,,54,104
48400,note_on,0,0,3,,,,,,,,,0,,,54,0
48400,note_on,40,0,3,,,,,,,,,0,,,44,0
48440,note_on,40,0,3,,,,,,,,,0,,,44,0
48440,note_on,0,0,3,,,,,,,,,0,,,54,0
48440,note_on,0,0,3,,,,,,,,,0,,,54,105
48440,note_on,0,0,3,,,,,,,,,0,,,44,115
48450,note_on,0,0,1,,,,,,,,,0,,,72,115
48450,note_on,90,0,1,,,,,,,,,0,,,74,0
48480,note_on,40,0,3,,,,,,,,,0,,,44,0
48480,note_on,0,0,3,,,,,,,,,0,,,54,0
48480,note_on,0,0,3,,,,,,,,,0,,,53,105
48480,note_on,0,0,3,,,,,,,,,0,,,43,115
48480,set_tempo,3360,1,0,,,,,,536241,,,,,,,
48480,note_on,0,0,1,,,,,,,,,0,,,66,0
48480,note_on,30,0,1,,,,,,,,,0,,,72,0
48480,note_on,0,0,1,,,,,,,,,0,,,65,105
48480,note_on,0,0,1,,,,,,,,,0,,,62,105
48480,note_on,0,0,1,,,,,,,,,0,,,71,115
48480,note_on,0,0,1,,,,,,,,,0,,,62,0
48494,set_tempo,14,1,0,,,,,,537683,,,,,,,
48501,set_tempo,7,1,0,,,,,,539132,,,,,,,
48508,set_tempo,7,1,0,,,,,,540589,,,,,,,
48515,set_tempo,7,1,0,,,,,,542054,,,,,,,
48520,note_on,0,0,3,,,,,,,,,0,,,53,0
48520,note_on,0,0,3,,,,,,,,,0,,,43,115
48520,note_on,40,0,3,,,,,,,,,0,,,43,0
48520,note_on,0,0,3,,,,,,,,,0,,,53,105
48522,set_tempo,7,1,0,,,,,,543527,,,,,,,
48529,set_tempo,7,1,0,,,,,,545009,,,,,,,
48536,set_tempo,7,1,0,,,,,,546498,,,,,,,
48543,set_tempo,7,1,0,,,,,,547995,,,,,,,
48550,set_tempo,7,1,0,,,,,,549501,,,,,,,
48557,set_tempo,7,1,0,,,,,,551015,,,,,,,
48560,note_on,40,0,3,,,,,,,,,0,,,43,0
48560,note_on,0,0,3,,,,,,,,,0,,,53,106
48560,note_on,0,0,3,,,,,,,,,0,,,53,0
48560,note_on,0,0,3,,,,,,,,,0,,,43,116
48564,set_tempo,7,1,0,,,,,,552537,,,,,,,
48571,set_tempo,7,1,0,,,,,,554068,,,,,,,
48578,set_tempo,7,1,0,,,,,,555607,,,,,,,
48585,set_tempo,7,1,0,,,,,,557155,,,,,,,
48592,set_tempo,7,1,0,,,,,,558711,,,,,,,
48600,note_on,120,0,1,,,,,,,,,0,,,71,0
48600,note_on,0,0,1,,,,,,,,,0,,,65,0
48600,note_on,0,0,1,,,,,,,,,0,,,67,106
48600,note_on,0,0,1,,,,,,,,,0,,,62,106
48600,note_on,0,0,1,,,,,,,,,0,,,71,116
48600,note_on,40,0,3,,,,,,,,,0,,,43,0
48600,note_on,0,0,3,,,,,,,,,0,,,53,0
48600,note_on,0,0,3,,,,,,,,,0,,,43,106
48600,note_on,0,0,3,,,,,,,,,0,,,41,116
48600,set_tempo,8,1,0,,,,,,560276,,,,,,,
48600,note_on,0,0,1,,,,,,,,,0,,,62,0
48607,set_tempo,7,1,0,,,,,,561850,,,,,,,
48614,set_tempo,7,1,0,,,,,,563433,,,,,,,
48621,set_tempo,7,1,0,,,,,,565025,,,,,,,
48628,set_tempo,7,1,0,,,,,,566626,,,,,,,
48635,set_tempo,7,1,0,,,,,,568236,,,,,,,
48640,note_on,40,0,3,,,,,,,,,0,,,41,0
48640,note_on,0,0,3,,,,,,,,,0,,,43,0
48640,note_on,0,0,3,,,,,,,,,0,,,41,117
48640,note_on,0,0,3,,,,,,,,,0,,,43,107
48642,set_tempo,7,1,0,,,,,,569855,,,,,,,
48649,set_tempo,7,1,0,,,,,,571483,,,,,,,
48656,set_tempo,7,1,0,,,,,,573121,,,,,,,
48663,set_tempo,7,1,0,,,,,,574768,,,,,,,
48670,set_tempo,7,1,0,,,,,,576424,,,,,,,
48677,set_tempo,7,1,0,,,,,,578090,,,,,,,
48680,note_on,0,0,3,,,,,,,,,0,,,43,107
48680,note_on,0,0,3,,,,,,,,,0,,,43,0
48680,note_on,40,0,3,,,,,,,,,0,,,41,0
48680,note_on,0,0,3,,,,,,,,,0,,,41,117
48684,set_tempo,7,1,0,,,,,,579766,,,,,,,
48690,note_on,0,0,1,,,,,,,,,0,,,68,117
48690,note_on,90,0,1,,,,,,,,,0,,,67,0
48691,set_tempo,7,1,0,,,,,,581452,,,,,,,
48698,set_tempo,7,1,0,,,,,,583147,,,,,,,
48705,set_tempo,7,1,0,,,,,,584852,,,,,,,
48712,set_tempo,7,1,0,,,,,,586568,,,,,,,
48720,note_on,40,0,3,,,,,,,,,0,,,41,0
48720,note_on,0,0,3,,,,,,,,,0,,,43,0
48720,note_on,0,0,3,,,,,,,,,0,,,43,108
48720,note_on,0,0,3,,,,,,,,,0,,,39,118
48720,note_on,0,0,1,,,,,,,,,0,,,62,0
48720,note_on,0,0,1,,,,,,,,,0,,,60,108
48720,note_on,30,0,1,,,,,,,,,0,,,68,0
48720,note_on,0,0,1,,,,,,,,,0,,,72,118
48720,note_on,0,0,1,,,,,,,,,0,,,67,108
48720,set_tempo,8,1,0,,,,,,588293,,,,,,,
48720,note_on,0,0,1,,,,,,,,,0,,,71,0
48727,set_tempo,7,1,0,,,,,,590029,,,,,,,
48734,set_tempo,7,1,0,,,,,,591774,,,,,,,
48741,set_tempo,7,1,0,,,,,,593531,,,,,,,
48748,set_tempo,7,1,0,,,,,,595297,,,,,,,
48755,set_tempo,7,1,0,,,,,,597074,,,,,,,
48760,note_on,0,0,3,,,,,,,,,0,,,39,118
48760,note_on,0,0,3,,,,,,,,,0,,,43,0
48760,note_on,0,0,3,,,,,,,,,0,,,43,108
48760,note_on,40,0,3,,,,,,,,,0,,,39,0
48762,set_tempo,7,1,0,,,,,,598862,,,,,,,
48769,set_tempo,7,1,0,,,,,,600661,,,,,,,
48776,set_tempo,7,1,0,,,,,,602470,,,,,,,
48783,set_tempo,7,1,0,,,,,,604290,,,,,,,
48790,set_tempo,7,1,0,,,,,,606122,,,,,,,
48797,set_tempo,7,1,0,,,,,,607964,,,,,,,
48800,note_on,0,0,3,,,,,,,,,0,,,43,109
48800,note_on,0,0,3,,,,,,,,,0,,,43,0
48800,note_on,0,0,3,,,,,,,,,0,,,39,119
48800,note_on,40,0,3,,,,,,,,,0,,,39,0
48804,set_tempo,7,1,0,,,,,,609818,,,,,,,
48811,set_tempo,7,1,0,,,,,,611683,,,,,,,
48818,set_tempo,7,1,0,,,,,,613560,,,,,,,
48825,set_tempo,7,1,0,,,,,,615448,,,,,,,
48832,set_tempo,7,1,0,,,,,,617347,,,,,,,
48840,note_on,0,0,1,,,,,,,,,0,,,75,119
48840,note_on,0,0,3,,,,,,,,,0,,,43,0
48840,note_on,0,0,1,,,,,,,,,0,,,71,109
48840,note_on,0,0,1,,,,,,,,,0,,,60,0
48840,note_on,0,0,1,,,,,,,,,0,,,67,0
48840,set_tempo,8,1,0,,,,,,619259,,,,,,,
48840,note_on,0,0,1,,,,,,,,,0,,,65,109
48840,note_on,0,0,3,,,,,,,,,0,,,31,119
48840,note_on,0,0,3,,,,,,,,,0,,,43,109
48840,note_on,40,0,3,,,,,,,,,0,,,39,0
48840,note_on,120,0,1,,,,,,,,,0,,,72,0
48847,set_tempo,7,1,0,,,,,,621182,,,,,,,
48854,set_tempo,7,1,0,,,,,,623118,,,,,,,
48861,set_tempo,7,1,0,,,,,,625065,,,,,,,
48868,set_tempo,7,1,0,,,,,,627025,,,,,,,
48875,set_tempo,7,1,0,,,,,,628997,,,,,,,
48880,note_on,0,0,3,,,,,,,,,0,,,43,0
48880,note_on,0,0,3,,,,,,,,,0,,,43,110
48880,note_on,0,0,3,,,,,,,,,0,,,31,120
48880,note_on,40,0,3,,,,,,,,,0,,,31,0
48882,set_tempo,7,1,0,,,,,,630981,,,,,,,
48889,set_tempo,7,1,0,,,,,,632978,,,,,,,
48896,set_tempo,7,1,0,,,,,,634988,,,,,,,
48903,set_tempo,7,1,0,,,,,,637010,,,,,,,
48910,set_tempo,7,1,0,,,,,,639046,,,,,,,
48917,set_tempo,7,1,0,,,,,,641094,,,,,,,
48920,note_on,40,0,3,,,,,,,,,0,,,31,0
48920,note_on,0,0,3,,,,,,,,,0,,,43,0
48920,note_on,0,0,3,,,,,,,,,0,,,43,110
48920,note_on,0,0,3,,,,,,,,,0,,,31,120
48924,set_tempo,7,1,0,,,,,,643156,,,,,,,
48930,note_on,0,0,1,,,,,,,,,0,,,74,120
48930,note_on,90,0,1,,,,,,,,,0,,,75,0
48931,set_tempo,7,1,0,,,,,,645231,,,,,,,
48938,set_tempo,7,1,0,,,,,,647319,,,,,,,
48945,set_tempo,7,1,0,,,,,,649421,,,,,,,
48952,set_tempo,7,1,0,,,,,,651537,,,,,,,
48960,note_on,0,0,3,,,,,,,,,0,,,43,0
48960,note_on,0,0,1,,,,,,,,,0,,,63,110
48960,note_on,0,0,1,,,,,,,,,0,,,65,0
48960,set_tempo,8,1,0,,,,,,535714,,,,,,,
48960,note_on,0,0,3,,,,,,,,,0,,,43,110
48960,note_on,0,0,1,,,,,,,,,0,,,71,0
48960,note_on,0,0,1,,,,,,,,,0,,,72,120
48960,note_on,0,0,3,,,,,,,,,0,,,36,120
48960,note_on,40,0,3,,,,,,,,,0,,,31,0
48960,note_on,30,0,1,,,,,,,,,0,,,74,0
49000,note_on,0,0,3,,,,,,,,,0,,,55,104
49000,note_on,40,0,3,,,,,,,,,0,,,36,0
49000,note_on,0,0,3,,,,,,,,,0,,,43,0
49040,note_on,0,0,3,,,,,,,,,0,,,55,97
49040,note_on,40,0,3,,,,,,,,,0,,,55,0
49080,note_on,0,0,3,,,,,,,,,0,,,55,91
49080,note_on,40,0,3,,,,,,,,,0,,,55,0
49120,note_on,0,0,3,,,,,,,,,0,,,55,84
49120,note_on,40,0,3,,,,,,,,,0,,,55,0
49160,note_on,0,0,3,,,,,,,,,0,,,55,77
49160,note_on,40,0,3,,,,,,,,,0,,,55,0
49200,note_on,0,0,3,,,,,,,,,0,,,55,71
49200,note_on,40,0,3,,,,,,,,,0,,,55,0
49240,note_on,0,0,3,,,,,,,,,0,,,55,64
49240,note_on,40,0,3,,,,,,,,,0,,,55,0
49280,note_on,0,0,3,,,,,,,,,0,,,55,57
49280,note_on,40,0,3,,,,,,,,,0,,,55,0
49320,note_on,0,0,1,,,,,,,,,0,,,74,61
49320,note_on,0,0,1,,,,,,,,,0,,,63,0
49320,note_on,40,0,3,,,,,,,,,0,,,55,0
49320,note_on,0,0,3,,,,,,,,,0,,,55,51
49320,note_on,360,0,1,,,,,,,,,0,,,72,0
49360,note_on,0,0,3,,,,,,,,,0,,,55,44
49360,note_on,40,0,3,,,,,,,,,0,,,55,0
49400,note_on,40,0,3,,,,,,,,,0,,,55,0
49400,note_on,0,0,3,,,,,,,,,0,,,55,40
49410,note_on,0,0,1,,,,,,,,,0,,,75,50
49410,note_on,90,0,1,,,,,,,,,0,,,74,0
49440,note_on,30,0,1,,,,,,,,,0,,,75,0
49440,note_on,40,0,3,,,,,,,,,0,,,55,0
49440,note_on,0,0,3,,,,,,,,,0,,,56,40
49440,note_on,0,0,1,,,,,,,,,0,,,77,50
49480,note_on,40,0,3,,,,,,,,,0,,,56,0
49480,note_on,0,0,3,,,,,,,,,0,,,56,40
49520,note_on,40,0,3,,,,,,,,,0,,,56,0
49520,note_on,0,0,3,,,,,,,,,0,,,56,40
49560,note_on,120,0,1,,,,,,,,,0,,,77,0
49560,note_on,40,0,3,,,,,,,,,0,,,56,0
49560,note_on,0,0,1,,,,,,,,,0,,,65,40
49560,note_on,0,0,1,,,,,,,,,0,,,77,50
49560,note_on,0,0,3,,,,,,,,,0,,,57,40
49600,note_on,0,0,3,,,,,,,,,0,,,57,40
49600,note_on,40,0,3,,,,,,,,,0,,,57,0
49640,note_on,40,0,3,,,,,,,,,0,,,57,0
49640,note_on,0,0,3,,,,,,,,,0,,,57,40
49680,note_on,0,0,3,,,,,,,,,0,,,58,40
49680,note_on,40,0,3,,,,,,,,,0,,,57,0
49680,note_on,120,0,1,,,,,,,,,0,,,77,0
49680,note_on,0,0,1,,,,,,,,,0,,,65,0
49680,note_on,0,0,1,,,,,,,,,0,,,68,40
49680,note_on,0,0,1,,,,,,,,,0,,,77,50
49720,note_on,40,0,3,,,,,,,,,0,,,58,0
49720,note_on,0,0,3,,,,,,,,,0,,,58,40
49760,note_on,40,0,3,,,,,,,,,0,,,58,0
49760,note_on,0,0,3,,,,,,,,,0,,,58,40
49800,note_on,0,0,1,,,,,,,,,0,,,68,0
49800,note_on,0,0,1,,,,,,,,,0,,,75,50
49800,note_on,0,0,3,,,,,,,,,0,,,58,40
49800,note_on,40,0,3,,,,,,,,,0,,,58,0
49800,note_on,120,0,1,,,,,,,,,0,,,77,0
49840,note_on,0,0,3,,,,,,,,,0,,,58,40
49840,note_on,40,0,3,,,,,,,,,0,,,58,0
49880,note_on,40,0,3,,,,,,,,,0,,,58,0
49880,note_on,0,0,3,,,,,,,,,0,,,58,40
49890,note_on,0,0,1,,,,,,,,,0,,,74,50
49890,note_on,90,0,1,,,,,,,,,0,,,75,0
49920,note_on,40,0,3,,,,,,,,,0,,,58,0
49920,note_on,0,0,3,,,,,,,,,0,,,58,40
49920,note_on,0,0,1,,,,,,,,,0,,,79,50
49920,note_on,30,0,1,,,,,,,,,0,,,74,0
49960,note_on,40,0,3,,,,,,,,,0,,,58,0
49960,note_on,0,0,3,,,,,,,,,0,,,58,40
50000,note_on,40,0,3,,,,,,,,,0,,,58,0
50000,note_on,0,0,3,,,,,,,,,0,,,58,40
50040,note_on,120,0,1,,,,,,,,,0,,,67,40
50040,note_on,0,0,3,,,,,,,,,0,,,59,40
50040,note_on,40,0,3,,,,,,,,,0,,,58,0
50080,note_on,0,0,3,,,,,,,,,0,,,59,40
50080,note_on,40,0,3,,,,,,,,,0,,,59,0
50100,note_on,0,0,1,,,,,,,,,0,,,77,50
50100,note_on,60,0,1,,,,,,,,,0,,,79,0
50120,note_on,0,0,3,,,,,,,,,0,,,59,40
50120,note_on,40,0,3,,,,,,,,,0,,,59,0
50130,note_on,0,0,1,,,,,,,,,0,,,68,40
50130,note_on,30,0,1,,,,,,,,,0,,,67,0
50160,note_on,0,0,1,,,,,,,,,0,,,75,50
50160,note_on,30,0,1,,,,,,,,,0,,,68,0
50160,note_on,0,0,3,,,,,,,,,0,,,60,40
50160,note_on,0,0,1,,,,,,,,,0,,,67,40
50160,note_on,40,0,3,,,,,,,,,0,,,59,0
50160,note_on,0,0,1,,,,,,,,,0,,,77,0
50200,note_on,0,0,3,,,,,,,,,0,,,55,40
50200,note_on,40,0,3,,,,,,,,,0,,,60,0
50240,note_on,40,0,3,,,,,,,,,0,,,55,0
50240,note_on,0,0,3,,,,,,,,,0,,,55,40
50280,note_on,40,0,3,,,,,,,,,0,,,55,0
50280,note_on,0,0,3,,,,,,,,,0,,,55,40
50280,note_on,0,0,1,,,,,,,,,0,,,74,50
50280,note_on,0,0,1,,,,,,,,,0,,,67,0
50280,note_on,120,0,1,,,,,,,,,0,,,75,0
50320,note_on,40,0,3,,,,,,,,,0,,,55,0
50320,note_on,0,0,3,,,,,,,,,0,,,55,40
50360,note_on,40,0,3,,,,,,,,,0,,,55,0
50360,note_on,0,0,3,,,,,,,,,0,,,55,40
50370,note_on,0,0,1,,,,,,,,,0,,,72,50
50370,note_on,90,0,1,,,,,,,,,0,,,74,0
50400,note_on,0,0,1,,,,,,,,,0,,,71,50
50400,note_on,30,0,1,,,,,,,,,0,,,72,0
50400,note_on,0,0,3,,,,,,,,,0,,,55,40
50400,note_on,40,0,3,,,,,,,,,0,,,55,0
50440,note_on,40,0,3,,,,,,,,,0,,,55,0
50440,note_on,0,0,3,,,,,,,,,0,,,55,40
50480,note_on,40,0,3,,,,,,,,,0,,,55,0
50480,note_on,0,0,3,,,,,,,,,0,,,55,40
50520,note_on,0,0,3,,,,,,,,,0,,,55,40
50520,note_on,0,0,1,,,,,,,,,0,,,68,40
50520,note_on,0,0,1,,,,,,,,,0,,,71,50
50520,note_on,40,0,3,,,,,,,,,0,,,55,0
50520,note_on,120,0,1,,,,,,,,,0,,,71,0
50560,note_on,40,0,3,,,,,,,,,0,,,55,0
50560,note_on,0,0,3,,,,,,,,,0,,,55,40
50580,note_on,0,0,1,,,,,,,,,0,,,67,40
50580,note_on,60,0,1,,,,,,,,,0,,,68,0
50600,note_on,0,0,3,,,,,,,,,0,,,55,40
50600,note_on,40,0,3,,,,,,,,,0,,,55,0
50640,note_on,0,0,1,,,,,,,,,0,,,72,50
50640,note_on,0,0,1,,,,,,,,,0,,,65,40
50640,note_on,40,0,3,,,,,,,,,0,,,55,0
50640,note_on,0,0,3,,,,,,,,,0,,,55,40
50640,note_on,60,0,1,,,,,,,,,0,,,67,0
50640,note_on,0,0,1,,,,,,,,,0,,,71,0
50680,note_on,40,0,3,,,,,,,,,0,,,55,0
50680,note_on,0,0,3,,,,,,,,,0,,,55,40
50700,note_on,0,0,1,,,,,,,,,0,,,63,40
50700,note_on,60,0,1,,,,,,,,,0,,,65,0
50720,note_on,40,0,3,,,,,,,,,0,,,55,0
50720,note_on,0,0,3,,,,,,,,,0,,,55,40
50760,note_on,0,0,1,,,,,,,,,0,,,77,50
50760,note_on,60,0,1,,,,,,,,,0,,,63,0
50760,note_on,0,0,1,,,,,,,,,0,,,72,0
50760,note_on,0,0,3,,,,,,,,,0,,,62,40
50760,note_on,0,0,3,,,,,,,,,0,,,55,40
50760,note_on,40,0,3,,,,,,,,,0,,,55,0
50800,note_on,40,0,3,,,,,,,,,0,,,55,0
50800,note_on,0,0,3,,,,,,,,,0,,,55,40
50820,note_on,0,0,3,,,,,,,,,0,,,60,40
50820,note_on,20,0,3,,,,,,,,,0,,,62,0
50840,note_on,20,0,3,,,,,,,,,0,,,55,0
50840,note_on,0,0,3,,,,,,,,,0,,,55,40
50850,note_on,0,0,1,,,,,,,,,0,,,75,50
50850,note_on,90,0,1,,,,,,,,,0,,,77,0
50880,note_on,0,0,3,,,,,,,,,0,,,55,40
50880,note_on,0,0,1,,,,,,,,,0,,,67,40
50880,note_on,0,0,1,,,,,,,,,0,,,68,50
50880,note_on,0,0,3,,,,,,,,,0,,,60,0
50880,note_on,40,0,3,,,,,,,,,0,,,55,0
50880,note_on,30,0,1,,,,,,,,,0,,,75,0
50895,note_on,15,0,1,,,,,,,,,0,,,68,0
50895,note_on,0,0,1,,,,,,,,,0,,,74,52
50920,note_on,0,0,3,,,,,,,,,0,,,55,45
50920,note_on,40,0,3,,,,,,,,,0,,,55,0
50960,note_on,40,0,3,,,,,,,,,0,,,55,0
50960,note_on,0,0,3,,,,,,,,,0,,,55,51
51000,note_on,40,0,3,,,,,,,,,0,,,55,0
51000,note_on,0,0,3,,,,,,,,,0,,,55,57
51040,note_on,0,0,3,,,,,,,,,0,,,55,62
51040,note_on,40,0,3,,,,,,,,,0,,,55,0
51080,note_on,40,0,3,,,,,,,,,0,,,55,0
51080,note_on,0,0,3,,,,,,,,,0,,,55,68
51120,note_on,0,0,3,,,,,,,,,0,,,55,74
51120,note_on,40,0,3,,,,,,,,,0,,,55,0
51160,note_on,0,0,3,,,,,,,,,0,,,56,79
51160,note_on,40,0,3,,,,,,,,,0,,,55,0
51200,note_on,0,0,3,,,,,,,,,0,,,57,85
51200,note_on,40,0,3,,,,,,,,,0,,,56,0
51240,note_on,345,0,1,,,,,,,,,0,,,74,0
51240,note_on,0,0,1,,,,,,,,,0,,,67,0
51240,note_on,0,0,1,,,,,,,,,0,,,74,101
51240,note_on,40,0,3,,,,,,,,,0,,,57,0
51240,note_on,0,0,3,,,,,,,,,0,,,58,91
51280,note_on,40,0,3,,,,,,,,,0,,,58,0
51280,note_on,0,0,3,,,,,,,,,0,,,58,97
51320,note_on,0,0,3,,,,,,,,,0,,,58,100
51320,note_on,40,0,3,,,,,,,,,0,,,58,0
51330,note_on,0,0,1,,,,,,,,,0,,,75,110
51330,note_on,90,0,1,,,,,,,,,0,,,74,0
51360,note_on,0,0,1,,,,,,,,,0,,,65,100
51360,note_on,0,0,1,,,,,,,,,0,,,74,100
51360,note_on,30,0,1,,,,,,,,,0,,,75,0
51360,note_on,0,0,1,,,,,,,,,0,,,77,110
51360,note_on,0,0,3,,,,,,,,,0,,,58,110
51360,note_on,40,0,3,,,,,,,,,0,,,58,0
51400,note_on,40,0,3,,,,,,,,,0,,,58,0
51400,note_on,0,0,3,,,,,,,,,0,,,58,110
51440,note_on,40,0,3,,,,,,,,,0,,,58,0
51440,note_on,0,0,3,,,,,,,,,0,,,58,110
51480,note_on,0,0,1,,,,,,,,,0,,,74,0
51480,note_on,0,0,1,,,,,,,,,0,,,65,0
51480,note_on,120,0,1,,,,,,,,,0,,,77,0
51480,note_on,0,0,1,,,,,,,,,0,,,77,110
51480,note_on,40,0,3,,,,,,,,,0,,,58,0
51480,note_on,0,0,3,,,,,,,,,0,,,58,100
51480,note_on,0,0,1,,,,,,,,,0,,,74,100
51480,note_on,0,0,3,,,,,,,,,0,,,57,110
51480,note_on,0,0,1,,,,,,,,,0,,,65,100
51520,note_on,0,0,3,,,,,,,,,0,,,58,0
51520,note_on,0,0,3,,,,,,,,,0,,,58,100
51520,note_on,0,0,3,,,,,,,,,0,,,57,110
51520,note_on,40,0,3,,,,,,,,,0,,,57,0
51560,note_on,40,0,3,,,,,,,,,0,,,57,0
51560,note_on,0,0,3,,,,,,,,,0,,,58,0
51560,note_on,0,0,3,,,,,,,,,0,,,58,100
51560,note_on,0,0,3,,,,,,,,,0,,,57,110
51600,note_on,120,0,1,,,,,,,,,0,,,77,0
51600,note_on,0,0,1,,,,,,,,,0,,,65,0
51600,note_on,0,0,1,,,,,,,,,0,,,74,0
51600,note_on,0,0,1,,,,,,,,,0,,,74,100
51600,note_on,0,0,3,,,,,,,,,0,,,56,110
51600,note_on,40,0,3,,,,,,,,,0,,,57,0
51600,note_on,0,0,3,,,,,,,,,0,,,58,0
51600,note_on,0,0,3,,,,,,,,,0,,,58,100
51600,note_on,0,0,1,,,,,,,,,0,,,65,100
51600,note_on,0,0,1,,,,,,,,,0,,,77,110
51640,note_on,0,0,3,,,,,,,,,0,,,56,110
51640,note_on,0,0,3,,,,,,,,,0,,,58,100
51640,note_on,0,0,3,,,,,,,,,0,,,58,0
51640,note_on,40,0,3,,,,,,,,,0,,,56,0
51680,note_on,40,0,3,,,,,,,,,0,,,56,0
51680,note_on,0,0,3,,,,,,,,,0,,,58,0
51680,note_on,0,0,3,,,,,,,,,0,,,58,100
51680,note_on,0,0,3,,,,,,,,,0,,,56,110
51720,note_on,120,0,1,,,,,,,,,0,,,77,0
51720,note_on,0,0,1,,,,,,,,,0,,,65,0
51720,note_on,0,0,1,,,,,,,,,0,,,74,0
51720,note_on,0,0,1,,,,,,,,,0,,,67,100
51720,note_on,0,0,1,,,,,,,,,0,,,75,100
51720,note_on,0,0,1,,,,,,,,,0,,,79,110
51720,note_on,40,0,3,,,,,,,,,0,,,56,0
51720,note_on,0,0,3,,,,,,,,,0,,,58,0
51720,note_on,0,0,3,,,,,,,,,0,,,58,100
51720,note_on,0,0,3,,,,,,,,,0,,,55,110
51760,note_on,40,0,3,,,,,,,,,0,,,55,0
51760,note_on,0,0,3,,,,,,,,,0,,,58,100
51760,note_on,0,0,3,,,,,,,,,0,,,55,110
51760,note_on,0,0,3,,,,,,,,,0,,,58,0
51800,note_on,0,0,3,,,,,,,,,0,,,58,0
51800,note_on,0,0,3,,,,,,,,,0,,,56,100
51800,note_on,0,0,3,,,,,,,,,0,,,58,100
51800,note_on,0,0,3,,,,,,,,,0,,,53,110
51800,note_on,40,0,3,,,,,,,,,0,,,55,0
51810,note_on,0,0,1,,,,,,,,,0,,,75,0
51810,note_on,90,0,1,,,,,,,,,0,,,79,0
51810,note_on,0,0,1,,,,,,,,,0,,,67,0
51810,note_on,0,0,1,,,,,,,,,0,,,68,100
51810,note_on,0,0,1,,,,,,,,,0,,,80,110
51810,note_on,0,0,1,,,,,,,,,0,,,77,100
51840,note_on,0,0,3,,,,,,,,,0,,,58,100
51840,note_on,0,0,3,,,,,,,,,0,,,55,100
51840,note_on,0,0,3,,,,,,,,,0,,,56,0
51840,note_on,0,0,3,,,,,,,,,0,,,58,0
51840,note_on,40,0,3,,,,,,,,,0,,,53,0
51840,note_on,0,0,3,,,,,,,,,0,,,51,110
51840,note_on,0,0,1,,,,,,,,,0,,,79,100
51840,note_on,30,0,1,,,,,,,,,0,,,80,0
51840,note_on,0,0,1,,,,,,,,,0,,,68,0
51840,note_on,0,0,1,,,,,,,,,0,,,82,110
51840,note_on,0,0,1,,,,,,,,,0,,,70,100
51840,note_on,0,0,1,,,,,,,,,0,,,77,0
51880,note_on,0,0,3,,,,,,,,,0,,,55,0
51880,note_on,0,0,3,,,,,,,,,0,,,58,0
51880,note_on,40,0,3,,,,,,,,,0,,,51,0
51880,note_on,0,0,3,,,,,,,,,0,,,55,100
51880,note_on,0,0,3,,,,,,,,,0,,,51,110
51880,note_on,0,0,3,,,,,,,,,0,,,58,100
51920,note_on,0,0,3,,,,,,,,,0,,,58,0
51920,note_on,0,0,3,,,,,,,,,0,,,55,0
51920,note_on,0,0,3,,,,,,,,,0,,,55,100
51920,note_on,0,0,3,,,,,,,,,0,,,58,100
51920,note_on,0,0,3,,,,,,,,,0,,,51,110
51920,note_on,40,0,3,,,,,,,,,0,,,51,0
51960,note_on,0,0,1,,,,,,,,,0,,,80,110
51960,note_on,0,0,1,,,,,,,,,0,,,74,100
51960,note_on,0,0,1,,,,,,,,,0,,,77,100
51960,note_on,0,0,1,,,,,,,,,0,,,79,0
51960,note_on,40,0,3,,,,,,,,,0,,,51,0
51960,note_on,0,0,3,,,,,,,,,0,,,58,0
51960,note_on,0,0,3,,,,,,,,,0,,,55,0
51960,note_on,0,0,3,,,,,,,,,0,,,53,100
51960,note_on,0,0,3,,,,,,,,,0,,,56,100
51960,note_on,0,0,3,,,,,,,,,0,,,47,110
51960,note_on,120,0,1,,,,,,,,,0,,,82,0
51960,note_on,0,0,1,,,,,,,,,0,,,70,0
52000,note_on,0,0,3,,,,,,,,,0,,,53,100
52000,note_on,0,0,3,,,,,,,,,0,,,53,0
52000,note_on,0,0,3,,,,,,,,,0,,,56,100
52000,note_on,40,0,3,,,,,,,,,0,,,47,0
52000,note_on,0,0,3,,,,,,,,,0,,,47,110
52000,note_on,0,0,3,,,,,,,,,0,,,56,0
52040,note_on,40,0,3,,,,,,,,,0,,,47,0
52040,note_on,0,0,3,,,,,,,,,0,,,56,0
52040,note_on,0,0,3,,,,,,,,,0,,,53,0
52040,note_on,0,0,3,,,,,,,,,0,,,53,100
52040,note_on,0,0,3,,,,,,,,,0,,,56,100
52040,note_on,0,0,3,,,,,,,,,0,,,47,110
52080,note_on,40,0,3,,,,,,,,,0,,,47,0
52080,note_on,0,0,3,,,,,,,,,0,,,53,0
52080,note_on,0,0,3,,,,,,,,,0,,,51,100
52080,note_on,0,0,3,,,,,,,,,0,,,55,100
52080,note_on,0,0,3,,,,,,,,,0,,,48,110
52080,note_on,0,0,3,,,,,,,,,0,,,56,0
52080,note_on,120,0,1,,,,,,,,,0,,,80,0
52080,note_on,0,0,1,,,,,,,,,0,,,74,0
52080,note_on,0,0,1,,,,,,,,,0,,,77,0
52080,note_on,0,0,1,,,,,,,,,0,,,75,100
52080,note_on,0,0,1,,,,,,,,,0,,,79,110
52120,note_on,0,0,3,,,,,,,,,0,,,48,110
52120,note_on,0,0,3,,,,,,,,,0,,,55,100
52120,note_on,0,0,3,,,,,,,,,0,,,51,100
52120,note_on,0,0,3,,,,,,,,,0,,,51,0
52120,note_on,0,0,3,,,,,,,,,0,,,55,0
52120,note_on,40,0,3,,,,,,,,,0,,,48,0
52160,note_on,0,0,3,,,,,,,,,0,,,48,110
52160,note_on,40,0,3,,,,,,,,,0,,,48,0
52160,note_on,0,0,3,,,,,,,,,0,,,55,0
52160,note_on,0,0,3,,,,,,,,,0,,,51,0
52160,note_on,0,0,3,,,,,,,,,0,,,51,100
52160,note_on,0,0,3,,,,,,,,,0,,,55,100
52200,note_on,0,0,3,,,,,,,,,0,,,53,100
52200,note_on,0,0,3,,,,,,,,,0,,,44,110
52200,note_on,0,0,1,,,,,,,,,0,,,65,100
52200,note_on,0,0,1,,,,,,,,,0,,,77,110
52200,note_on,0,0,1,,,,,,,,,0,,,75,0
52200,note_on,120,0,1,,,,,,,,,0,,,79,0
52200,note_on,0,0,3,,,,,,,,,0,,,55,0
52200,note_on,40,0,3,,,,,,,,,0,,,48,0
52200,note_on,0,0,3,,,,,,,,,0,,,51,0
52240,note_on,0,0,3,,,,,,,,,0,,,46,110
52240,note_on,0,0,3,,,,,,,,,0,,,53,0
52240,note_on,0,0,3,,,,,,,,,0,,,53,100
52240,note_on,40,0,3,,,,,,,,,0,,,44,0
52280,note_on,0,0,3,,,,,,,,,0,,,53,0
52280,note_on,40,0,3,,,,,,,,,0,,,46,0
52280,note_on,0,0,3,,,,,,,,,0,,,44,110
52280,note_on,0,0,3,,,,,,,,,0,,,53,100
52290,note_on,0,0,1,,,,,,,,,0,,,74,110
52290,note_on,90,0,1,,,,,,,,,0,,,77,0
52320,note_on,0,0,1,,,,,,,,,0,,,71,110
52320,note_on,0,0,1,,,,,,,,,0,,,67,100
52320,note_on,0,0,1,,,,,,,,,0,,,62,100
52320,note_on,0,0,1,,,,,,,,,0,,,65,0
52320,note_on,30,0,1,,,,,,,,,0,,,74,0
52320,set_tempo,3360,1,0,,,,,,536241,,,,,,,
52320,note_on,0,0,3,,,,,,,,,0,,,43,110
52320,note_on,0,0,3,,,,,,,,,0,,,53,100
52320,note_on,0,0,3,,,,,,,,,0,,,53,0
52320,note_on,40,0,3,,,,,,,,,0,,,44,0
52334,set_tempo,14,1,0,,,,,,537683,,,,,,,
52341,set_tempo,7,1,0,,,,,,539132,,,,,,,
52348,set_tempo,7,1,0,,,,,,540589,,,,,,,
52355,set_tempo,7,1,0,,,,,,542054,,,,,,,
52360,note_on,0,0,3,,,,,,,,,0,,,44,110
52360,note_on,0,0,3,,,,,,,,,0,,,53,0
52360,note_on,40,0,3,,,,,,,,,0,,,43,0
52360,note_on,0,0,3,,,,,,,,,0,,,53,100
52362,set_tempo,7,1,0,,,,,,543527,,,,,,,
52369,set_tempo,7,1,0,,,,,,545009,,,,,,,
52376,set_tempo,7,1,0,,,,,,546498,,,,,,,
52383,set_tempo,7,1,0,,,,,,547995,,,,,,,
52390,set_tempo,7,1,0,,,,,,549501,,,,,,,
52397,set_tempo,7,1,0,,,,,,551015,,,,,,,
52400,note_on,0,0,3,,,,,,,,,0,,,53,0
52400,note_on,0,0,3,,,,,,,,,0,,,53,100
52400,note_on,0,0,3,,,,,,,,,0,,,43,110
52400,note_on,40,0,3,,,,,,,,,0,,,44,0
52404,set_tempo,7,1,0,,,,,,552537,,,,,,,
52411,set_tempo,7,1,0,,,,,,554068,,,,,,,
52418,set_tempo,7,1,0,,,,,,555607,,,,,,,
52425,set_tempo,7,1,0,,,,,,557155,,,,,,,
52432,set_tempo,7,1,0,,,,,,558711,,,,,,,
52440,note_on,0,0,3,,,,,,,,,0,,,43,101
52440,note_on,0,0,3,,,,,,,,,0,,,53,0
52440,note_on,40,0,3,,,,,,,,,0,,,43,0
52440,note_on,0,0,3,,,,,,,,,0,,,41,111
52440,note_on,0,0,1,,,,,,,,,0,,,62,0
52440,note_on,120,0,1,,,,,,,,,0,,,71,0
52440,note_on,0,0,1,,,,,,,,,0,,,67,0
52440,note_on,0,0,1,,,,,,,,,0,,,67,101
52440,note_on,0,0,1,,,,,,,,,0,,,62,101
52440,note_on,0,0,1,,,,,,,,,0,,,71,111
52440,set_tempo,8,1,0,,,,,,560276,,,,,,,
52447,set_tempo,7,1,0,,,,,,561850,,,,,,,
52454,set_tempo,7,1,0,,,,,,563433,,,,,,,
52461,set_tempo,7,1,0,,,,,,565025,,,,,,,
52468,set_tempo,7,1,0,,,,,,566626,,,,,,,
52475,set_tempo,7,1,0,,,,,,568236,,,,,,,
52480,note_on,0,0,3,,,,,,,,,0,,,43,0
52480,note_on,0,0,3,,,,,,,,,0,,,43,111
52480,note_on,40,0,3,,,,,,,,,0,,,41,0
52482,set_tempo,7,1,0,,,,,,569855,,,,,,,
52489,set_tempo,7,1,0,,,,,,571483,,,,,,,
52496,set_tempo,7,1,0,,,,,,573121,,,,,,,
52503,set_tempo,7,1,0,,,,,,574768,,,,,,,
52510,set_tempo,7,1,0,,,,,,576424,,,,,,,
52517,set_tempo,7,1,0,,,,,,578090,,,,,,,
52520,note_on,40,0,3,,,,,,,,,0,,,43,0
52520,note_on,0,0,3,,,,,,,,,0,,,41,112
52520,note_on,0,0,3,,,,,,,,,0,,,43,102
52524,set_tempo,7,1,0,,,,,,579766,,,,,,,
52530,note_on,0,0,1,,,,,,,,,0,,,68,112
52530,note_on,90,0,1,,,,,,,,,0,,,67,0
52531,set_tempo,7,1,0,,,,,,581452,,,,,,,
52538,set_tempo,7,1,0,,,,,,583147,,,,,,,
52545,set_tempo,7,1,0,,,,,,584852,,,,,,,
52552,set_tempo,7,1,0,,,,,,586568,,,,,,,
52560,note_on,40,0,3,,,,,,,,,0,,,41,0
52560,set_tempo,8,1,0,,,,,,588293,,,,,,,
52560,note_on,0,0,1,,,,,,,,,0,,,72,112
52560,note_on,0,0,3,,,,,,,,,0,,,39,112
52560,note_on,0,0,3,,,,,,,,,0,,,43,102
52560,note_on,0,0,3,,,,,,,,,0,,,43,0
52560,note_on,0,0,1,,,,,,,,,0,,,67,102
52560,note_on,30,0,1,,,,,,,,,0,,,68,0
52560,note_on,0,0,1,,,,,,,,,0,,,71,0
52560,note_on,0,0,1,,,,,,,,,0,,,62,0
52560,note_on,0,0,1,,,,,,,,,0,,,60,102
52567,set_tempo,7,1,0,,,,,,590029,,,,,,,
52574,set_tempo,7,1,0,,,,,,591774,,,,,,,
52581,set_tempo,7,1,0,,,,,,593531,,,,,,,
52588,set_tempo,7,1,0,,,,,,595297,,,,,,,
52595,set_tempo,7,1,0,,,,,,597074,,,,,,,
52600,note_on,40,0,3,,,,,,,,,0,,,39,0
52600,note_on,0,0,3,,,,,,,,,0,,,43,0
52600,note_on,0,0,3,,,,,,,,,0,,,43,103
52600,note_on,0,0,3,,,,,,,,,0,,,41,113
52602,set_tempo,7,1,0,,,,,,598862,,,,,,,
52609,set_tempo,7,1,0,,,,,,600661,,,,,,,
52616,set_tempo,7,1,0,,,,,,602470,,,,,,,
52623,set_tempo,7,1,0,,,,,,604290,,,,,,,
52630,set_tempo,7,1,0,,,,,,606122,,,,,,,
52637,set_tempo,7,1,0,,,,,,607964,,,,,,,
52640,note_on,0,0,3,,,,,,,,,0,,,39,113
52640,note_on,0,0,3,,,,,,,,,0,,,43,103
52640,note_on,0,0,3,,,,,,,,,0,,,43,0
52640,note_on,40,0,3,,,,,,,,,0,,,41,0
52644,set_tempo,7,1,0,,,,,,609818,,,,,,,
52651,set_tempo,7,1,0,,,,,,611683,,,,,,,
52658,set_tempo,7,1,0,,,,,,613560,,,,,,,
52665,set_tempo,7,1,0,,,,,,615448,,,,,,,
52672,set_tempo,7,1,0,,,,,,617347,,,,,,,
52680,note_on,0,0,3,,,,,,,,,0,,,31,114
52680,note_on,0,0,3,,,,,,,,,0,,,43,104
52680,note_on,0,0,3,,,,,,,,,0,,,43,0
52680,note_on,40,0,3,,,,,,,,,0,,,39,0
52680,note_on,120,0,1,,,,,,,,,0,,,72,0
52680,note_on,0,0,1,,,,,,,,,0,,,67,0
52680,note_on,0,0,1,,,,,,,,,0,,,60,0
52680,set_tempo,8,1,0,,,,,,619259,,,,,,,
52680,note_on,0,0,1,,,,,,,,,0,,,65,104
52680,note_on,0,0,1,,,,,,,,,0,,,75,114
52680,note_on,0,0,1,,,,,,,,,0,,,71,104
52687,set_tempo,7,1,0,,,,,,621182,,,,,,,
52694,set_tempo,7,1,0,,,,,,623118,,,,,,,
52701,set_tempo,7,1,0,,,,,,625065,,,,,,,
52708,set_tempo,7,1,0,,,,,,627025,,,,,,,
52715,set_tempo,7,1,0,,,,,,628997,,,,,,,
52720,note_on,40,0,3,,,,,,,,,0,,,31,0
52720,note_on,0,0,3,,,,,,,,,0,,,43,0
52720,note_on,0,0,3,,,,,,,,,0,,,43,104
52720,note_on,0,0,3,,,,,,,,,0,,,32,114
52722,set_tempo,7,1,0,,,,,,630981,,,,,,,
52729,set_tempo,7,1,0,,,,,,632978,,,,,,,
52736,set_tempo,7,1,0,,,,,,634988,,,,,,,
52743,set_tempo,7,1,0,,,,,,637010,,,,,,,
52750,set_tempo,7,1,0,,,,,,639046,,,,,,,
52757,set_tempo,7,1,0,,,,,,641094,,,,,,,
52760,note_on,0,0,3,,,,,,,,,0,,,43,0
52760,note_on,40,0,3,,,,,,,,,0,,,32,0
52760,note_on,0,0,3,,,,,,,,,0,,,43,105
52760,note_on,0,0,3,,,,,,,,,0,,,31,115
52764,set_tempo,7,1,0,,,,,,643156,,,,,,,
52770,note_on,90,0,1,,,,,,,,,0,,,75,0
52770,note_on,0,0,1,,,,,,,,,0,,,74,115
52771,set_tempo,7,1,0,,,,,,645231,,,,,,,
52778,set_tempo,7,1,0,,,,,,647319,,,,,,,
52785,set_tempo,7,1,0,,,,,,649421,,,,,,,
52792,set_tempo,7,1,0,,,,,,651537,,,,,,,
52800,note_on,40,0,3,,,,,,,,,0,,,31,0
52800,note_on,0,0,3,,,,,,,,,0,,,43,0
52800,note_on,0,0,3,,,,,,,,,0,,,36,105
52800,note_on,0,0,3,,,,,,,,,0,,,43,105
52800,note_on,0,0,3,,,,,,,,,0,,,48,115
52800,note_on,30,0,1,,,,,,,,,0,,,74,0
52800,note_on,0,0,1,,,,,,,,,0,,,65,0
52800,note_on,0,0,1,,,,,,,,,0,,,71,0
52800,note_on,0,0,1,,,,,,,,,0,,,72,115
52800,note_on,0,0,1,,,,,,,,,0,,,63,115
52800,set_tempo,8,1,0,,,,,,535714,,,,,,,
52840,note_on,0,0,3,,,,,,,,,0,,,36,0
52840,note_on,40,0,3,,,,,,,,,0,,,48,0
52840,note_on,0,0,3,,,,,,,,,0,,,43,0
52840,note_on,0,0,3,,,,,,,,,0,,,50,115
52880,note_on,0,0,3,,,,,,,,,0,,,48,116
52880,note_on,40,0,3,,,,,,,,,0,,,50,0
52920,note_on,0,0,3,,,,,,,,,0,,,46,116
52920,note_on,40,0,3,,,,,,,,,0,,,48,0
52960,note_on,0,0,3,,,,,,,,,0,,,48,117
52960,note_on,40,0,3,,,,,,,,,0,,,46,0
53000,note_on,0,0,3,,,,,,,,,0,,,46,117
53000,note_on,40,0,3,,,,,,,,,0,,,48,0
53040,note_on,0,0,3,,,,,,,,,0,,,48,108
53040,note_on,40,0,3,,,,,,,,,0,,,46,0
53040,note_on,0,0,3,,,,,,,,,0,,,44,118
53080,note_on,0,0,3,,,,,,,,,0,,,46,118
53080,note_on,0,0,3,,,,,,,,,0,,,48,108
53080,note_on,0,0,3,,,,,,,,,0,,,48,0
53080,note_on,40,0,3,,,,,,,,,0,,,44,0
53120,note_on,0,0,3,,,,,,,,,0,,,48,109
53120,note_on,0,0,3,,,,,,,,,0,,,44,119
53120,note_on,40,0,3,,,,,,,,,0,,,46,0
53120,note_on,0,0,3,,,,,,,,,0,,,48,0
53160,note_on,0,0,3,,,,,,,,,0,,,43,119
53160,note_on,0,0,3,,,,,,,,,0,,,48,109
53160,note_on,0,0,3,,,,,,,,,0,,,48,0
53160,note_on,40,0,3,,,,,,,,,0,,,44,0
53160,note_on,360,0,1,,,,,,,,,0,,,63,0
53160,note_on,0,0,1,,,,,,,,,0,,,72,0
53160,note_on,0,0,1,,,,,,,,,0,,,72,119
53160,note_on,0,0,1,,,,,,,,,0,,,60,119
53200,note_on,0,0,1,,,,,,,,,0,,,60,120
53200,note_on,0,0,1,,,,,,,,,0,,,60,0
53200,note_on,40,0,1,,,,,,,,,0,,,72,0
53200,note_on,40,0,3,,,,,,,,,0,,,43,0
53200,note_on,0,0,3,,,,,,,,,0,,,48,0
53200,note_on,0,0,3,,,,,,,,,0,,,48,110
53200,note_on,0,0,3,,,,,,,,,0,,,44,120
53200,note_on,0,0,1,,,,,,,,,0,,,72,120
53240,note_on,0,0,3,,,,,,,,,0,,,48,110
53240,note_on,40,0,3,,,,,,,,,0,,,44,0
53240,note_on,0,0,3,,,,,,,,,0,,,48,0
53240,note_on,0,0,3,,,,,,,,,0,,,43,120
53240,note_on,0,0,1,,,,,,,,,0,,,60,0
53240,note_on,40,0,1,,,,,,,,,0,,,72,0
53240,note_on,0,0,1,,,,,,,,,0,,,72,120
53240,note_on,0,0,1,,,,,,,,,0,,,60,120
53280,note_on,0,0,3,,,,,,,,,0,,,41,120
53280,note_on,0,0,3,,,,,,,,,0,,,48,110
53280,note_on,0,0,3,,,,,,,,,0,,,48,0
53280,note_on,40,0,3,,,,,,,,,0,,,43,0
53280,note_on,40,0,1,,,,,,,,,0,,,72,0
53280,note_on,0,0,1,,,,,,,,,0,,,60,0
53280,note_on,0,0,1,,,,,,,,,0,,,84,120
53280,note_on,0,0,1,,,,,,,,,0,,,72,120
53280,note_on,0,0,1,,,,,,,,,0,,,74,120
53280,note_on,0,0,1,,,,,,,,,0,,,80,120
53320,note_on,0,0,3,,,,,,,,,0,,,48,110
53320,note_on,0,0,3,,,,,,,,,0,,,48,0
53320,note_on,0,0,3,,,,,,,,,0,,,43,120
53320,note_on,40,0,3,,,,,,,,,0,,,41,0
53360,note_on,0,0,3,,,,,,,,,0,,,48,0
53360,note_on,40,0,3,,,,,,,,,0,,,43,0
53360,note_on,0,0,3,,,,,,,,,0,,,48,110
53360,note_on,0,0,3,,,,,,,,,0,,,41,120
53400,note_on,0,0,3,,,,,,,,,0,,,48,0
53400,note_on,0,0,3,,,,,,,,,0,,,44,120
53400,note_on,0,0,3,,,,,,,,,0,,,48,110
53400,note_on,40,0,3,,,,,,,,,0,,,41,0
53440,note_on,0,0,3,,,,,,,,,0,,,46,120
53440,note_on,0,0,3,,,,,,,,,0,,,48,0
53440,note_on,40,0,3,,,,,,,,,0,,,44,0
53440,note_on,0,0,3,,,,,,,,,0,,,48,110
53480,note_on,0,0,3,,,,,,,,,0,,,48,0
53480,note_on,40,0,3,,,,,,,,,0,,,46,0
53480,note_on,0,0,3,,,,,,,,,0,,,44,120
53480,note_on,0,0,3,,,,,,,,,0,,,48,110
53520,note_on,0,0,3,,,,,,,,,0,,,48,110
53520,note_on,0,0,3,,,,,,,,,0,,,43,120
53520,note_on,40,0,3,,,,,,,,,0,,,44,0
53520,note_on,0,0,3,,,,,,,,,0,,,48,0
53560,note_on,40,0,3,,,,,,,,,0,,,43,0
53560,note_on,0,0,3,,,,,,,,,0,,,48,0
53560,note_on,0,0,3,,,,,,,,,0,,,48,110
53560,note_on,0,0,3,,,,,,,,,0,,,44,120
53600,note_on,40,0,3,,,,,,,,,0,,,44,0
53600,note_on,0,0,3,,,,,,,,,0,,,48,0
53600,note_on,0,0,3,,,,,,,,,0,,,48,110
53600,note_on,0,0,3,,,,,,,,,0,,,43,120
53640,note_on,40,0,3,,,,,,,,,0,,,43,0
53640,note_on,0,0,3,,,,,,,,,0,,,48,0
53640,note_on,0,0,3,,,,,,,,,0,,,48,110
53640,note_on,0,0,3,,,,,,,,,0,,,41,120
53640,note_on,360,0,1,,,,,,,,,0,,,72,0
53640,note_on,0,0,1,,,,,,,,,0,,,84,0
53640,note_on,0,0,1,,,,,,,,,0,,,80,0
53640,note_on,0,0,1,,,,,,,,,0,,,74,0
53640,note_on,0,0,1,,,,,,,,,0,,,60,120
53640,note_on,0,0,1,,,,,,,,,0,,,72,120
53680,note_on,40,0,1,,,,,,,,,0,,,72,0
53680,note_on,0,0,1,,,,,,,,,0,,,60,0
53680,note_on,0,0,1,,,,,,,,,0,,,60,120
53680,note_on,0,0,1,,,,,,,,,0,,,72,120
53680,note_on,0,0,3,,,,,,,,,0,,,43,120
53680,note_on,0,0,3,,,,,,,,,0,,,48,110
53680,note_on,0,0,3,,,,,,,,,0,,,48,0
53680,note_on,40,0,3,,,,,,,,,0,,,41,0
53720,note_on,0,0,1,,,,,,,,,0,,,60,0
53720,note_on,40,0,3,,,,,,,,,0,,,43,0
53720,note_on,40,0,1,,,,,,,,,0,,,72,0
53720,note_on,0,0,1,,,,,,,,,0,,,60,120
53720,note_on,0,0,3,,,,,,,,,0,,,41,120
53720,note_on,0,0,3,,,,,,,,,0,,,48,0
53720,note_on,0,0,1,,,,,,,,,0,,,72,120
53720,note_on,0,0,3,,,,,,,,,0,,,48,110
53760,note_on,0,0,1,,,,,,,,,0,,,84,120
53760,note_on,0,0,1,,,,,,,,,0,,,60,0
53760,note_on,40,0,3,,,,,,,,,0,,,41,0
53760,note_on,0,0,3,,,,,,,,,0,,,39,110
53760,note_on,0,0,3,,,,,,,,,0,,,48,110
53760,note_on,40,0,1,,,,,,,,,0,,,72,0
53760,note_on,0,0,1,,,,,,,,,0,,,79,120
53760,note_on,0,0,1,,,,,,,,,0,,,75,120
53760,note_on,0,0,1,,,,,,,,,0,,,72,120
53760,note_on,0,0,3,,,,,,,,,0,,,48,0
53800,note_on,40,0,3,,,,,,,,,0,,,48,0
53800,note_on,0,0,3,,,,,,,,,0,,,39,0
53800,note_on,0,0,3,,,,,,,,,0,,,41,110
53800,note_on,0,0,3,,,,,,,,,0,,,48,110
53840,note_on,40,0,3,,,,,,,,,0,,,48,0
53840,note_on,0,0,3,,,,,,,,,0,,,48,110
53840,note_on,0,0,3,,,,,,,,,0,,,39,110
53840,note_on,0,0,3,,,,,,,,,0,,,41,0
53880,note_on,0,0,3,,,,,,,,,0,,,43,110
53880,note_on,0,0,3,,,,,,,,,0,,,48,110
53880,note_on,40,0,3,,,,,,,,,0,,,48,0
53880,note_on,0,0,3,,,,,,,,,0,,,39,0
53920,note_on,40,0,3,,,,,,,,,0,,,48,0
53920,note_on,0,0,3,,,,,,,,,0,,,43,0
53920,note_on,0,0,3,,,,,,,,,0,,,44,110
53920,note_on,0,0,3,,,,,,,,,0,,,48,110
53960,note_on,0,0,3,,,,,,,,,0,,,44,0
53960,note_on,40,0,3,,,,,,,,,0,,,48,0
53960,note_on,0,0,3,,,,,,,,,0,,,43,110
53960,note_on,0,0,3,,,,,,,,,0,,,48,110
54000,note_on,0,0,3,,,,,,,,,0,,,43,0
54000,note_on,40,0,3,,,,,,,,,0,,,48,0
54000,note_on,0,0,3,,,,,,,,,0,,,41,110
54000,note_on,0,0,3,,,,,,,,,0,,,48,110
54040,note_on,0,0,3,,,,,,,,,0,,,48,110
54040,note_on,0,0,3,,,,,,,,,0,,,43,110
54040,note_on,0,0,3,,,,,,,,,0,,,41,0
54040,note_on,40,0,3,,,,,,,,,0,,,48,0
54080,note_on,0,0,3,,,,,,,,,0,,,48,110
54080,note_on,0,0,3,,,,,,,,,0,,,41,110
54080,note_on,0,0,3,,,,,,,,,0,,,43,0
54080,note_on,40,0,3,,,,,,,,,0,,,48,0
54120,note_on,0,0,1,,,,,,,,,0,,,72,120
54120,note_on,0,0,1,,,,,,,,,0,,,60,120
54120,note_on,0,0,1,,,,,,,,,0,,,75,0
54120,note_on,0,0,1,,,,,,,,,0,,,79,0
54120,note_on,0,0,1,,,,,,,,,0,,,84,0
54120,note_on,360,0,1,,,,,,,,,0,,,72,0
54120,note_on,0,0,3,,,,,,,,,0,,,48,110
54120,note_on,40,0,3,,,,,,,,,0,,,48,0
54120,note_on,0,0,3,,,,,,,,,0,,,39,110
54120,note_on,0,0,3,,,,,,,,,0,,,41,0
54160,note_on,40,0,3,,,,,,,,,0,,,48,0
54160,note_on,0,0,3,,,,,,,,,0,,,48,110
54160,note_on,0,0,1,,,,,,,,,0,,,60,120
54160,note_on,40,0,1,,,,,,,,,0,,,72,0
54160,note_on,0,0,1,,,,,,,,,0,,,60,0
54160,note_on,0,0,3,,,,,,,,,0,,,39,0
54160,note_on,0,0,1,,,,,,,,,0,,,72,120
54160,note_on,0,0,3,,,,,,,,,0,,,41,110
54200,note_on,40,0,3,,,,,,,,,0,,,48,0
54200,note_on,0,0,1,,,,,,,,,0,,,72,120
54200,note_on,0,0,1,,,,,,,,,0,,,60,120
54200,note_on,0,0,1,,,,,,,,,0,,,60,0
54200,note_on,40,0,1,,,,,,,,,0,,,72,0
54200,note_on,0,0,3,,,,,,,,,0,,,41,0
54200,note_on,0,0,3,,,,,,,,,0,,,39,110
54200,note_on,0,0,3,,,,,,,,,0,,,48,110
54240,note_on,0,0,3,,,,,,,,,0,,,39,0
54240,note_on,0,0,1,,,,,,,,,0,,,61,110
54240,note_on,0,0,1,,,,,,,,,0,,,73,120
54240,note_on,40,0,1,,,,,,,,,0,,,72,0
54240,note_on,40,0,3,,,,,,,,,0,,,48,0
54240,note_on,0,0,1,,,,,,,,,0,,,65,110
54240,note_on,0,0,3,,,,,,,,,0,,,44,110
54240,note_on,0,0,3,,,,,,,,,0,,,37,120
54240,note_on,0,0,1,,,,,,,,,0,,,60,0
54280,note_on,0,0,3,,,,,,,,,0,,,44,0
54280,note_on,0,0,3,,,,,,,,,0,,,44,110
54280,note_on,0,0,3,,,,,,,,,0,,,39,120
54280,note_on,40,0,3,,,,,,,,,0,,,37,0
54320,note_on,0,0,3,,,,,,,,,0,,,36,120
54320,note_on,40,0,3,,,,,,,,,0,,,39,0
54320,note_on,0,0,3,,,,,,,,,0,,,44,0
54320,note_on,0,0,3,,,,,,,,,0,,,44,110
54360,note_on,40,0,3,,,,,,,,,0,,,36,0
54360,note_on,0,0,3,,,,,,,,,0,,,44,0
54360,note_on,0,0,3,,,,,,,,,0,,,44,110
54360,note_on,0,0,1,,,,,,,,,0,,,77,120
54360,note_on,0,0,1,,,,,,,,,0,,,65,110
54360,note_on,0,0,1,,,,,,,,,0,,,65,0
54360,note_on,0,0,1,,,,,,,,,0,,,61,0
54360,note_on,120,0,1,,,,,,,,,0,,,73,0
54360,note_on,0,0,3,,,,,,,,,0,,,37,120
54400,note_on,40,0,3,,,,,,,,,0,,,37,0
54400,note_on,0,0,3,,,,,,,,,0,,,44,0
54400,note_on,0,0,3,,,,,,,,,0,,,44,110
54400,note_on,0,0,3,,,,,,,,,0,,,39,120
54440,note_on,40,0,3,,,,,,,,,0,,,39,0
54440,note_on,0,0,3,,,,,,,,,0,,,44,110
54440,note_on,0,0,3,,,,,,,,,0,,,41,120
54440,note_on,0,0,3,,,,,,,,,0,,,44,0
54450,note_on,90,0,1,,,,,,,,,0,,,77,0
54450,note_on,0,0,1,,,,,,,,,0,,,65,0
54450,note_on,0,0,1,,,,,,,,,0,,,80,120
54450,note_on,0,0,1,,,,,,,,,0,,,68,110
54480,note_on,0,0,1,,,,,,,,,0,,,72,110
54480,note_on,0,0,1,,,,,,,,,0,,,67,110
54480,note_on,0,0,1,,,,,,,,,0,,,79,120
54480,note_on,0,0,1,,,,,,,,,0,,,68,0
54480,note_on,30,0,1,,,,,,,,,0,,,80,0
54480,note_on,0,0,3,,,,,,,,,0,,,43,120
54480,note_on,0,0,3,,,,,,,,,0,,,31,120
54480,note_on,0,0,3,,,,,,,,,0,,,44,0
54480,note_on,40,0,3,,,,,,,,,0,,,41,0
54480,note_on,0,0,1,,,,,,,,,0,,,75,110
54520,note_on,0,0,3,,,,,,,,,0,,,31,0
54520,note_on,0,0,3,,,,,,,,,0,,,43,110
54520,note_on,40,0,3,,,,,,,,,0,,,43,0
54560,note_on,0,0,3,,,,,,,,,0,,,43,110
54560,note_on,40,0,3,,,,,,,,,0,,,43,0
54600,note_on,0,0,3,,,,,,,,,0,,,31,120
54600,note_on,40,0,3,,,,,,,,,0,,,43,0
54600,note_on,120,0,1,,,,,,,,,0,,,79,0
54600,note_on,0,0,1,,,,,,,,,0,,,75,0
54600,note_on,0,0,1,,,,,,,,,0,,,72,0
54600,note_on,0,0,1,,,,,,,,,0,,,67,0
54600,note_on,0,0,1,,,,,,,,,0,,,71,110
54600,note_on,0,0,1,,,,,,,,,0,,,74,110
54600,note_on,0,0,1,,,,,,,,,0,,,67,110
54600,note_on,0,0,1,,,,,,,,,0,,,79,120
54600,note_on,0,0,3,,,,,,,,,0,,,43,120
54640,note_on,0,0,3,,,,,,,,,0,,,43,110
54640,note_on,0,0,3,,,,,,,,,0,,,31,0
54640,note_on,40,0,3,,,,,,,,,0,,,43,0
54680,note_on,0,0,3,,,,,,,,,0,,,43,110
54680,note_on,40,0,3,,,,,,,,,0,,,43,0
54720,note_on,0,0,3,,,,,,,,,0,,,48,120
54720,note_on,40,0,3,,,,,,,,,0,,,43,0
54720,note_on,0,0,3,,,,,,,,,0,,,36,110
54720,note_on,0,0,3,,,,,,,,,0,,,43,110
54720,note_on,0,0,1,,,,,,,,,0,,,71,0
54720,note_on,0,0,1,,,,,,,,,0,,,67,0
54720,note_on,0,0,1,,,,,,,,,0,,,74,0
54720,note_on,0,0,1,,,,,,,,,0,,,60,120
54720,note_on,0,0,1,,,,,,,,,0,,,63,120
54720,note_on,0,0,1,,,,,,,,,0,,,67,120
54720,note_on,0,0,1,,,,,,,,,0,,,72,120
54720,note_on,120,0,1,,,,,,,,,0,,,79,0
54760,note_on,40,0,3,,,,,,,,,0,,,48,0
54760,note_on,0,0,3,,,,,,,,,0,,,36,0
54760,note_on,0,0,3,,,,,,,,,0,,,51,120
54760,note_on,0,0,3,,,,,,,,,0,,,43,0
54800,note_on,0,0,3,,,,,,,,,0,,,50,120
54800,note_on,40,0,3,,,,,,,,,0,,,51,0
54840,note_on,40,0,3,,,,,,,,,0,,,50,0
54840,note_on,0,0,3,,,,,,,,,0,,,48,120
54880,note_on,40,0,3,,,,,,,,,0,,,48,0
54880,note_on,0,0,3,,,,,,,,,0,,,50,120
54920,note_on,40,0,3,,,,,,,,,0,,,50,0
54920,note_on,0,0,3,,,,,,,,,0,,,48,120
54960,note_on,40,0,3,,,,,,,,,0,,,48,0
54960,note_on,0,0,3,,,,,,,,,0,,,47,120
55000,note_on,0,0,3,,,,,,,,,0,,,48,120
55000,note_on,40,0,3,,,,,,,,,0,,,47,0
55040,note_on,40,0,3,,,,,,,,,0,,,48,0
55040,note_on,0,0,3,,,,,,,,,0,,,47,120
55080,note_on,0,0,1,,,,,,,,,0,,,72,0
55080,note_on,0,0,3,,,,,,,,,0,,,46,120
55080,note_on,0,0,1,,,,,,,,,0,,,67,0
55080,note_on,360,0,1,,,,,,,,,0,,,60,0
55080,note_on,0,0,1,,,,,,,,,0,,,63,0
55080,note_on,0,0,1,,,,,,,,,0,,,60,120
55080,note_on,0,0,1,,,,,,,,,0,,,72,120
55080,note_on,40,0,3,,,,,,,,,0,,,47,0
55120,note_on,40,0,3,,,,,,,,,0,,,46,0
55120,note_on,0,0,3,,,,,,,,,0,,,48,120
55120,note_on,40,0,1,,,,,,,,,0,,,72,0
55120,note_on,0,0,1,,,,,,,,,0,,,60,0
55120,note_on,0,0,1,,,,,,,,,0,,,60,120
55120,note_on,0,0,1,,,,,,,,,0,,,72,120
55160,note_on,40,0,3,,,,,,,,,0,,,48,0
55160,note_on,40,0,1,,,,,,,,,0,,,72,0
55160,note_on,0,0,1,,,,,,,,,0,,,60,0
55160,note_on,0,0,1,,,,,,,,,0,,,60,120
55160,note_on,0,0,3,,,,,,,,,0,,,46,120
55160,note_on,0,0,1,,,,,,,,,0,,,72,120
55200,note_on,0,0,1,,,,,,,,,0,,,74,120
55200,note_on,0,0,1,,,,,,,,,0,,,84,120
55200,note_on,0,0,1,,,,,,,,,0,,,60,0
55200,note_on,40,0,1,,,,,,,,,0,,,72,0
55200,note_on,40,0,3,,,,,,,,,0,,,46,0
55200,note_on,0,0,3,,,,,,,,,0,,,48,110
55200,note_on,0,0,3,,,,,,,,,0,,,45,120
55200,note_on,0,0,1,,,,,,,,,0,,,72,120
55240,note_on,40,0,3,,,,,,,,,0,,,45,0
55240,note_on,0,0,3,,,,,,,,,0,,,48,110
55240,note_on,0,0,3,,,,,,,,,0,,,46,120
55240,note_on,0,0,3,,,,,,,,,0,,,48,0
55280,note_on,40,0,3,,,,,,,,,0,,,46,0
55280,note_on,0,0,3,,,,,,,,,0,,,48,0
55280,note_on,0,0,3,,,,,,,,,0,,,48,110
55280,note_on,0,0,3,,,,,,,,,0,,,45,120
55320,note_on,40,0,3,,,,,,,,,0,,,45,0
55320,note_on,0,0,3,,,,,,,,,0,,,48,110
55320,note_on,0,0,3,,,,,,,,,0,,,44,120
55320,note_on,0,0,3,,,,,,,,,0,,,48,0
55360,note_on,0,0,3,,,,,,,,,0,,,48,110
55360,note_on,40,0,3,,,,,,,,,0,,,44,0
55360,note_on,0,0,3,,,,,,,,,0,,,48,0
55360,note_on,0,0,3,,,,,,,,,0,,,46,120
55400,note_on,0,0,3,,,,,,,,,0,,,48,0
55400,note_on,40,0,3,,,,,,,,,0,,,46,0
55400,note_on,0,0,3,,,,,,,,,0,,,48,110
55400,note_on,0,0,3,,,,,,,,,0,,,44,120
55440,note_on,40,0,3,,,,,,,,,0,,,44,0
55440,note_on,0,0,3,,,,,,,,,0,,,48,0
55440,note_on,0,0,3,,,,,,,,,0,,,48,110
55440,note_on,0,0,3,,,,,,,,,0,,,43,120
55480,note_on,0,0,3,,,,,,,,,0,,,48,110
55480,note_on,0,0,3,,,,,,,,,0,,,44,120
55480,note_on,40,0,3,,,,,,,,,0,,,43,0
55480,note_on,0,0,3,,,,,,,,,0,,,48,0
55520,note_on,0,0,3,,,,,,,,,0,,,48,0
55520,note_on,0,0,3,,,,,,,,,0,,,43,120
55520,note_on,0,0,3,,,,,,,,,0,,,48,110
55520,note_on,40,0,3,,,,,,,,,0,,,44,0
55560,note_on,0,0,3,,,,,,,,,0,,,41,120
55560,note_on,0,0,3,,,,,,,,,0,,,48,110
55560,note_on,0,0,3,,,,,,,,,0,,,48,0
55560,note_on,40,0,3,,,,,,,,,0,,,43,0
55560,note_on,360,0,1,,,,,,,,,0,,,72,0
55560,note_on,0,0,1,,,,,,,,,0,,,74,0
55560,note_on,0,0,1,,,,,,,,,0,,,60,120
55560,note_on,0,0,1,,,,,,,,,0,,,72,120
55560,note_on,0,0,1,,,,,,,,,0,,,84,0
55600,note_on,0,0,1,,,,,,,,,0,,,72,120
55600,note_on,0,0,1,,,,,,,,,0,,,60,120
55600,note_on,0,0,1,,,,,,,,,0,,,60,0
55600,note_on,40,0,1,,,,,,,,,0,,,72,0
55600,note_on,0,0,3,,,,,,,,,0,,,43,120
55600,note_on,40,0,3,,,,,,,,,0,,,41,0
55600,note_on,0,0,3,,,,,,,,,0,,,48,0
55600,note_on,0,0,3,,,,,,,,,0,,,48,110
55640,note_on,0,0,3,,,,,,,,,0,,,48,0
55640,note_on,0,0,1,,,,,,,,,0,,,72,120
55640,note_on,0,0,1,,,,,,,,,0,,,60,0
55640,note_on,0,0,3,,,,,,,,,0,,,48,110
55640,note_on,0,0,1,,,,,,,,,0,,,60,120
55640,note_on,40,0,1,,,,,,,,,0,,,72,0
55640,note_on,0,0,3,,,,,,,,,0,,,41,120
55640,note_on,40,0,3,,,,,,,,,0,,,43,0
55680,note_on,40,0,1,,,,,,,,,0,,,72,0
55680,note_on,0,0,3,,,,,,,,,0,,,48,0
55680,note_on,0,0,3,,,,,,,,,0,,,48,110
55680,note_on,0,0,3,,,,,,,,,0,,,40,120
55680,note_on,40,0,3,,,,,,,,,0,,,41,0
55680,note_on,0,0,1,,,,,,,,,0,,,60,0
55680,note_on,0,0,1,,,,,,,,,0,,,72,120
55680,note_on,0,0,1,,,,,,,,,0,,,79,120
55680,note_on,0,0,1,,,,,,,,,0,,,84,120
55720,note_on,0,0,3,,,,,,,,,0,,,48,110
55720,note_on,0,0,3,,,,,,,,,0,,,48,0
55720,note_on,40,0,3,,,,,,,,,0,,,40,0
55720,note_on,0,0,3,,,,,,,,,0,,,41,120
55760,note_on,0,0,3,,,,,,,,,0,,,48,0
55760,note_on,40,0,3,,,,,,,,,0,,,41,0
55760,note_on,0,0,3,,,,,,,,,0,,,40,120
55760,note_on,0,0,3,,,,,,,,,0,,,48,110
55800,note_on,0,0,3,,,,,,,,,0,,,39,120
55800,note_on,0,0,3,,,,,,,,,0,,,48,110
55800,note_on,0,0,3,,,,,,,,,0,,,48,0
55800,note_on,40,0,3,,,,,,,,,0,,,40,0
55840,note_on,0,0,3,,,,,,,,,0,,,41,120
55840,note_on,0,0,3,,,,,,,,,0,,,48,0
55840,note_on,40,0,3,,,,,,,,,0,,,39,0
55840,note_on,0,0,3,,,,,,,,,0,,,48,110
55880,note_on,40,0,3,,,,,,,,,0,,,41,0
55880,note_on,0,0,3,,,,,,,,,0,,,48,0
55880,note_on,0,0,3,,,,,,,,,0,,,48,110
55880,note_on,0,0,3,,,,,,,,,0,,,39,120
55920,note_on,0,0,3,,,,,,,,,0,,,38,120
55920,note_on,40,0,3,,,,,,,,,0,,,39,0
55920,note_on,0,0,3,,,,,,,,,0,,,48,0
55920,note_on,0,0,3,,,,,,,,,0,,,48,110
55960,note_on,0,0,3,,,,,,,,,0,,,39,120
55960,note_on,0,0,3,,,,,,,,,0,,,48,110
55960,note_on,40,0,3,,,,,,,,,0,,,38,0
55960,note_on,0,0,3,,,,,,,,,0,,,48,0
56000,note_on,40,0,3,,,,,,,,,0,,,39,0
56000,note_on,0,0,3,,,,,,,,,0,,,48,0
56000,note_on,0,0,3,,,,,,,,,0,,,48,110
56000,note_on,0,0,3,,,,,,,,,0,,,38,120
56040,note_on,0,0,3,,,,,,,,,0,,,48,0
56040,note_on,360,0,1,,,,,,,,,0,,,72,0
56040,note_on,0,0,1,,,,,,,,,0,,,79,0
56040,note_on,0,0,1,,,,,,,,,0,,,84,0
56040,note_on,0,0,1,,,,,,,,,0,,,72,120
56040,note_on,0,0,3,,,,,,,,,0,,,36,120
56040,note_on,0,0,3,,,,,,,,,0,,,48,110
56040,note_on,0,0,1,,,,,,,,,0,,,60,120
56040,note_on,40,0,3,,,,,,,,,0,,,38,0
56080,note_on,40,0,1,,,,,,,,,0,,,72,0
56080,note_on,0,0,1,,,,,,,,,0,,,60,0
56080,note_on,0,0,1,,,,,,,,,0,,,60,120
56080,note_on,0,0,1,,,,,,,,,0,,,72,120
56080,note_on,0,0,3,,,,,,,,,0,,,48,110
56080,note_on,0,0,3,,,,,,,,,0,,,38,120
56080,note_on,40,0,3,,,,,,,,,0,,,36,0
56080,note_on,0,0,3,,,,,,,,,0,,,48,0
56120,note_on,0,0,1,,,,,,,,,0,,,72,120
56120,note_on,0,0,1,,,,,,,,,0,,,60,120
56120,note_on,0,0,1,,,,,,,,,0,,,60,0
56120,note_on,40,0,1,,,,,,,,,0,,,72,0
56120,note_on,40,0,3,,,,,,,,,0,,,38,0
56120,note_on,0,0,3,,,,,,,,,0,,,48,0
56120,note_on,0,0,3,,,,,,,,,0,,,39,120
56120,note_on,0,0,3,,,,,,,,,0,,,48,110
56160,note_on,40,0,1,,,,,,,,,0,,,72,0
56160,note_on,0,0,3,,,,,,,,,0,,,48,0
56160,note_on,0,0,3,,,,,,,,,0,,,44,110
56160,note_on,0,0,3,,,,,,,,,0,,,41,120
56160,note_on,0,0,1,,,,,,,,,0,,,61,110
56160,note_on,0,0,1,,,,,,,,,0,,,73,120
56160,note_on,40,0,3,,,,,,,,,0,,,39,0
56160,note_on,0,0,1,,,,,,,,,0,,,60,0
56200,note_on,0,0,3,,,,,,,,,0,,,39,120
56200,note_on,40,0,3,,,,,,,,,0,,,41,0
56200,note_on,0,0,3,,,,,,,,,0,,,44,0
56200,note_on,0,0,3,,,,,,,,,0,,,44,110
56240,note_on,40,0,3,,,,,,,,,0,,,39,0
56240,note_on,0,0,3,,,,,,,,,0,,,44,0
56240,note_on,0,0,3,,,,,,,,,0,,,44,110
56240,note_on,0,0,3,,,,,,,,,0,,,37,120
56280,note_on,0,0,1,,,,,,,,,0,,,77,120
56280,note_on,0,0,1,,,,,,,,,0,,,65,110
56280,note_on,120,0,1,,,,,,,,,0,,,73,0
56280,note_on,40,0,3,,,,,,,,,0,,,37,0
56280,note_on,0,0,1,,,,,,,,,0,,,61,0
56280,note_on,0,0,3,,,,,,,,,0,,,44,110
56280,note_on,0,0,3,,,,,,,,,0,,,37,120
56280,note_on,0,0,3,,,,,,,,,0,,,44,0
56320,note_on,0,0,3,,,,,,,,,0,,,39,120
56320,note_on,0,0,3,,,,,,,,,0,,,44,110
56320,note_on,40,0,3,,,,,,,,,0,,,37,0
56320,note_on,0,0,3,,,,,,,,,0,,,44,0
56360,note_on,0,0,3,,,,,,,,,0,,,44,110
56360,note_on,0,0,3,,,,,,,,,0,,,41,120
56360,note_on,0,0,3,,,,,,,,,0,,,44,0
56360,note_on,40,0,3,,,,,,,,,0,,,39,0
56370,note_on,90,0,1,,,,,,,,,0,,,77,0
56370,note_on,0,0,1,,,,,,,,,0,,,65,0
56370,note_on,0,0,1,,,,,,,,,0,,,68,110
56370,note_on,0,0,1,,,,,,,,,0,,,80,120
56400,note_on,0,0,3,,,,,,,,,0,,,43,120
56400,note_on,0,0,3,,,,,,,,,0,,,31,120
56400,note_on,0,0,3,,,,,,,,,0,,,44,0
56400,note_on,40,0,3,,,,,,,,,0,,,41,0
56400,note_on,30,0,1,,,,,,,,,0,,,80,0
56400,note_on,0,0,1,,,,,,,,,0,,,68,0
56400,note_on,0,0,1,,,,,,,,,0,,,75,110
56400,note_on,0,0,1,,,,,,,,,0,,,72,110
56400,note_on,0,0,1,,,,,,,,,0,,,67,110
56400,note_on,0,0,1,,,,,,,,,0,,,79,120
56440,note_on,0,0,3,,,,,,,,,0,,,43,110
56440,note_on,0,0,3,,,,,,,,,0,,,31,0
56440,note_on,40,0,3,,,,,,,,,0,,,43,0
56480,note_on,0,0,3,,,,,,,,,0,,,43,110
56480,note_on,40,0,3,,,,,,,,,0,,,43,0
56520,note_on,0,0,1,,,,,,,,,0,,,74,110
56520,note_on,0,0,1,,,,,,,,,0,,,71,110
56520,note_on,0,0,1,,,,,,,,,0,,,79,120
56520,note_on,0,0,1,,,,,,,,,0,,,67,110
56520,note_on,0,0,1,,,,,,,,,0,,,72,0
56520,note_on,120,0,1,,,,,,,,,0,,,79,0
56520,note_on,40,0,3,,,,,,,,,0,,,43,0
56520,note_on,0,0,3,,,,,,,,,0,,,31,120
56520,note_on,0,0,3,,,,,,,,,0,,,43,120
56520,note_on,0,0,1,,,,,,,,,0,,,67,0
56520,note_on,0,0,1,,,,,,,,,0,,,75,0
56560,note_on,0,0,3,,,,,,,,,0,,,43,110
56560,note_on,40,0,3,,,,,,,,,0,,,43,0
56560,note_on,0,0,3,,,,,,,,,0,,,31,0
56600,note_on,0,0,3,,,,,,,,,0,,,43,110
56600,note_on,40,0,3,,,,,,,,,0,,,43,0
56640,note_on,40,0,3,,,,,,,,,0,,,43,0
56640,note_on,0,0,3,,,,,,,,,0,,,48,110
56640,note_on,120,0,1,,,,,,,,,0,,,79,0
56640,note_on,0,0,3,,,,,,,,,0,,,36,110
56640,note_on,0,0,1,,,,,,,,,0,,,71,0
56640,note_on,0,0,1,,,,,,,,,0,,,67,0
56640,note_on,0,0,1,,,,,,,,,0,,,72,120
56640,note_on,0,0,1,,,,,,,,,0,,,67,120
56640,note_on,0,0,1,,,,,,,,,0,,,63,120
56640,note_on,0,0,1,,,,,,,,,0,,,60,120
56640,note_on,0,0,1,,,,,,,,,0,,,74,0
56680,note_on,0,0,3,,,,,,,,,0,,,36,110
56680,note_on,40,0,3,,,,,,,,,0,,,48,0
56680,note_on,0,0,3,,,,,,,,,0,,,36,0
56680,note_on,0,0,3,,,,,,,,,0,,,48,110
56720,note_on,0,0,3,,,,,,,,,0,,,48,110
56720,note_on,0,0,3,,,,,,,,,0,,,36,110
56720,note_on,0,0,3,,,,,,,,,0,,,36,0
56720,note_on,40,0,3,,,,,,,,,0,,,48,0
56760,note_on,40,0,3,,,,,,,,,0,,,48,0
56760,note_on,0,0,3,,,,,,,,,0,,,36,0
56760,note_on,0,0,3,,,,,,,,,0,,,48,110
56760,note_on,0,0,3,,,,,,,,,0,,,38,110
56800,note_on,40,0,3,,,,,,,,,0,,,48,0
56800,note_on,0,0,3,,,,,,,,,0,,,48,110
56800,note_on,0,0,3,,,,,,,,,0,,,38,110
56800,note_on,0,0,3,,,,,,,,,0,,,38,0
56840,note_on,0,0,3,,,,,,,,,0,,,38,0
56840,note_on,0,0,3,,,,,,,,,0,,,38,110
56840,note_on,0,0,3,,,,,,,,,0,,,48,110
56840,note_on,40,0,3,,,,,,,,,0,,,48,0
56880,note_on,0,0,3,,,,,,,,,0,,,48,110
56880,note_on,0,0,3,,,,,,,,,0,,,39,110
56880,note_on,0,0,3,,,,,,,,,0,,,38,0
56880,note_on,40,0,3,,,,,,,,,0,,,48,0
56920,note_on,40,0,3,,,,,,,,,0,,,48,0
56920,note_on,0,0,3,,,,,,,,,0,,,39,110
56920,note_on,0,0,3,,,,,,,,,0,,,48,110
56920,note_on,0,0,3,,,,,,,,,0,,,39,0
56960,note_on,40,0,3,,,,,,,,,0,,,48,0
56960,note_on,0,0,3,,,,,,,,,0,,,39,110
56960,note_on,0,0,3,,,,,,,,,0,,,48,110
56960,note_on,0,0,3,,,,,,,,,0,,,39,0
57000,note_on,0,0,3,,,,,,,,,0,,,39,0
57000,note_on,0,0,1,,,,,,,,,0,,,72,0
57000,note_on,0,0,1,,,,,,,,,0,,,63,0
57000,note_on,360,0,1,,,,,,,,,0,,,60,0
57000,note_on,40,0,3,,,,,,,,,0,,,48,0
57000,note_on,0,0,3,,,,,,,,,0,,,40,110
57000,note_on,0,0,3,,,,,,,,,0,,,48,110
57000,note_on,0,0,1,,,,,,,,,0,,,60,110
57000,note_on,0,0,1,,,,,,,,,0,,,67,0
57000,note_on,0,0,1,,,,,,,,,0,,,72,110
57040,note_on,0,0,1,,,,,,,,,0,,,60,110
57040,note_on,0,0,1,,,,,,,,,0,,,72,110
57040,note_on,0,0,3,,,,,,,,,0,,,40,110
57040,note_on,40,0,3,,,,,,,,,0,,,48,0
57040,note_on,40,0,1,,,,,,,,,0,,,72,0
57040,note_on,0,0,1,,,,,,,,,0,,,60,0
57040,note_on,0,0,3,,,,,,,,,0,,,48,110
57040,note_on,0,0,3,,,,,,,,,0,,,40,0
57080,note_on,0,0,3,,,,,,,,,0,,,40,110
57080,note_on,0,0,1,,,,,,,,,0,,,72,110
57080,note_on,0,0,3,,,,,,,,,0,,,48,110
57080,note_on,0,0,3,,,,,,,,,0,,,40,0
57080,note_on,40,0,3,,,,,,,,,0,,,48,0
57080,note_on,0,0,1,,,,,,,,,0,,,60,110
57080,note_on,0,0,1,,,,,,,,,0,,,60,0
57080,note_on,40,0,1,,,,,,,,,0,,,72,0
57120,note_on,0,0,1,,,,,,,,,0,,,60,0
57120,note_on,40,0,1,,,,,,,,,0,,,72,0
57120,note_on,0,0,1,,,,,,,,,0,,,61,110
57120,note_on,0,0,3,,,,,,,,,0,,,41,110
57120,note_on,0,0,3,,,,,,,,,0,,,48,110
57120,note_on,0,0,3,,,,,,,,,0,,,40,0
57120,note_on,40,0,3,,,,,,,,,0,,,48,0
57120,note_on,0,0,1,,,,,,,,,0,,,72,110
57160,note_on,40,0,3,,,,,,,,,0,,,48,0
57160,note_on,0,0,3,,,,,,,,,0,,,41,0
57160,note_on,0,0,1,,,,,,,,,0,,,61,109
57160,note_on,0,0,3,,,,,,,,,0,,,48,109
57160,note_on,0,0,1,,,,,,,,,0,,,61,0
57160,note_on,0,0,1,,,,,,,,,0,,,72,109
57160,note_on,0,0,3,,,,,,,,,0,,,41,109
57160,note_on,40,0,1,,,,,,,,,0,,,72,0
57200,note_on,40,0,3,,,,,,,,,0,,,48,0
57200,note_on,40,0,1,,,,,,,,,0,,,72,0
57200,note_on,0,0,1,,,,,,,,,0,,,61,0
57200,note_on,0,0,1,,,,,,,,,0,,,61,108
57200,note_on,0,0,1,,,,,,,,,0,,,72,108
57200,note_on,0,0,3,,,,,,,,,0,,,48,108
57200,note_on,0,0,3,,,,,,,,,0,,,41,108
57200,note_on,0,0,3,,,,,,,,,0,,,41,0
57240,note_on,40,0,3,,,,,,,,,0,,,48,0
57240,note_on,0,0,3,,,,,,,,,0,,,42,106
57240,note_on,0,0,3,,,,,,,,,0,,,41,0
57240,note_on,0,0,1,,,,,,,,,0,,,72,106
57240,note_on,0,0,1,,,,,,,,,0,,,62,106
57240,note_on,40,0,1,,,,,,,,,0,,,72,0
57240,note_on,0,0,1,,,,,,,,,0,,,61,0
57240,note_on,0,0,3,,,,,,,,,0,,,48,106
57280,note_on,40,0,1,,,,,,,,,0,,,72,0
57280,note_on,0,0,1,,,,,,,,,0,,,62,105
57280,note_on,0,0,1,,,,,,,,,0,,,62,0
57280,note_on,0,0,3,,,,,,,,,0,,,48,105
57280,note_on,40,0,3,,,,,,,,,0,,,48,0
57280,note_on,0,0,1,,,,,,,,,0,,,72,105
57280,note_on,0,0,3,,,,,,,,,0,,,42,105
57280,note_on,0,0,3,,,,,,,,,0,,,42,0
57320,note_on,40,0,1,,,,,,,,,0,,,72,0
57320,note_on,0,0,3,,,,,,,,,0,,,48,103
57320,note_on,0,0,3,,,,,,,,,0,,,42,103
57320,note_on,0,0,3,,,,,,,,,0,,,42,0
57320,note_on,0,0,1,,,,,,,,,0,,,72,103
57320,note_on,0,0,1,,,,,,,,,0,,,62,103
57320,note_on,0,0,1,,,,,,,,,0,,,62,0
57320,note_on,40,0,3,,,,,,,,,0,,,48,0
57360,note_on,0,0,1,,,,,,,,,0,,,62,0
57360,note_on,0,0,1,,,,,,,,,0,,,63,102
57360,note_on,0,0,1,,,,,,,,,0,,,72,102
57360,note_on,0,0,3,,,,,,,,,0,,,48,102
57360,note_on,0,0,3,,,,,,,,,0,,,42,0
57360,note_on,40,0,3,,,,,,,,,0,,,48,0
57360,note_on,40,0,1,,,,,,,,,0,,,72,0
57360,note_on,0,0,3,,,,,,,,,0,,,43,102
57400,note_on,40,0,3,,,,,,,,,0,,,48,0
57400,note_on,0,0,3,,,,,,,,,0,,,43,0
57400,note_on,0,0,3,,,,,,,,,0,,,43,100
57400,note_on,0,0,3,,,,,,,,,0,,,48,100
57400,note_on,0,0,1,,,,,,,,,0,,,72,100
57400,note_on,0,0,1,,,,,,,,,0,,,63,0
57400,note_on,0,0,1,,,,,,,,,0,,,63,100
57400,note_on,40,0,1,,,,,,,,,0,,,72,0
57440,note_on,40,0,3,,,,,,,,,0,,,48,0
57440,note_on,0,0,3,,,,,,,,,0,,,48,99
57440,note_on,0,0,3,,,,,,,,,0,,,43,99
57440,note_on,0,0,3,,,,,,,,,0,,,43,0
57440,note_on,40,0,1,,,,,,,,,0,,,72,0
57440,note_on,0,0,1,,,,,,,,,0,,,63,0
57440,note_on,0,0,1,,,,,,,,,0,,,72,99
57440,note_on,0,0,1,,,,,,,,,0,,,63,99
57480,note_on,0,0,3,,,,,,,,,0,,,48,97
57480,note_on,40,0,1,,,,,,,,,0,,,72,0
57480,note_on,0,0,1,,,,,,,,,0,,,64,97
57480,note_on,0,0,1,,,,,,,,,0,,,72,97
57480,note_on,40,0,3,,,,,,,,,0,,,48,0
57480,note_on,0,0,3,,,,,,,,,0,,,43,0
57480,note_on,0,0,3,,,,,,,,,0,,,44,97
57480,note_on,0,0,1,,,,,,,,,0,,,63,0
57520,note_on,0,0,3,,,,,,,,,0,,,44,0
57520,note_on,40,0,3,,,,,,,,,0,,,48,0
57520,note_on,0,0,3,,,,,,,,,0,,,48,96
57520,note_on,40,0,1,,,,,,,,,0,,,72,0
57520,note_on,0,0,1,,,,,,,,,0,,,64,0
57520,note_on,0,0,1,,,,,,,,,0,,,64,96
57520,note_on,0,0,1,,,,,,,,,0,,,72,96
57520,note_on,0,0,3,,,,,,,,,0,,,44,96
57560,note_on,0,0,3,,,,,,,,,0,,,44,0
57560,note_on,0,0,3,,,,,,,,,0,,,44,94
57560,note_on,0,0,3,,,,,,,,,0,,,48,94
57560,note_on,0,0,1,,,,,,,,,0,,,64,94
57560,note_on,40,0,3,,,,,,,,,0,,,48,0
57560,note_on,0,0,1,,,,,,,,,0,,,72,94
57560,note_on,40,0,1,,,,,,,,,0,,,72,0
57560,note_on,0,0,1,,,,,,,,,0,,,64,0
57600,note_on,0,0,1,,,,,,,,,0,,,64,93
57600,note_on,0,0,3,,,,,,,,,0,,,48,93
57600,note_on,0,0,3,,,,,,,,,0,,,44,93
57600,note_on,0,0,3,,,,,,,,,0,,,44,0
57600,note_on,0,0,1,,,,,,,,,0,,,72,93
57600,note_on,40,0,1,,,,,,,,,0,,,72,0
57600,note_on,0,0,1,,,,,,,,,0,,,64,0
57600,note_on,40,0,3,,,,,,,,,0,,,48,0
57640,note_on,0,0,3,,,,,,,,,0,,,44,0
57640,note_on,0,0,3,,,,,,,,,0,,,44,91
57640,note_on,0,0,3,,,,,,,,,0,,,48,91
57640,note_on,0,0,1,,,,,,,,,0,,,72,91
57640,note_on,0,0,1,,,,,,,,,0,,,64,91
57640,note_on,0,0,1,,,,,,,,,0,,,64,0
57640,note_on,40,0,1,,,,,,,,,0,,,72,0
57640,note_on,40,0,3,,,,,,,,,0,,,48,0
57680,note_on,0,0,1,,,,,,,,,0,,,64,0
57680,note_on,40,0,1,,,,,,,,,0,,,72,0
57680,note_on,0,0,3,,,,,,,,,0,,,44,0
57680,note_on,0,0,3,,,,,,,,,0,,,48,90
57680,note_on,0,0,3,,,,,,,,,0,,,44,90
57680,note_on,0,0,1,,,,,,,,,0,,,64,90
57680,note_on,40,0,3,,,,,,,,,0,,,48,0
57680,note_on,0,0,1,,,,,,,,,0,,,72,90
57720,note_on,0,0,1,,,,,,,,,0,,,64,0
57720,note_on,0,0,1,,,,,,,,,0,,,64,88
57720,note_on,0,0,1,,,,,,,,,0,,,72,88
57720,note_on,40,0,1,,,,,,,,,0,,,72,0
57720,note_on,0,0,3,,,,,,,,,0,,,44,0
57720,note_on,0,0,3,,,,,,,,,0,,,48,88
57720,note_on,40,0,3,,,,,,,,,0,,,48,0
57720,note_on,0,0,3,,,,,,,,,0,,,44,88
57760,note_on,0,0,1,,,,,,,,,0,,,64,87
57760,note_on,40,0,1,,,,,,,,,0,,,72,0
57760,note_on,0,0,1,,,,,,,,,0,,,64,0
57760,note_on,0,0,1,,,,,,,,,0,,,72,87
57760,note_on,40,0,3,,,,,,,,,0,,,44,0
57760,note_on,0,0,3,,,,,,,,,0,,,48,0
57760,note_on,0,0,3,,,,,,,,,0,,,44,87
57760,note_on,0,0,3,,,,,,,,,0,,,48,87
57800,note_on,40,0,3,,,,,,,,,0,,,44,0
57800,note_on,0,0,3,,,,,,,,,0,,,48,0
57800,note_on,0,0,3,,,,,,,,,0,,,48,85
57800,note_on,0,0,3,,,,,,,,,0,,,44,85
57800,note_on,0,0,1,,,,,,,,,0,,,72,85
57800,note_on,0,0,1,,,,,,,,,0,,,64,85
57800,note_on,0,0,1,,,,,,,,,0,,,64,0
57800,note_on,40,0,1,,,,,,,,,0,,,72,0
57840,note_on,40,0,3,,,,,,,,,0,,,44,0
57840,note_on,0,0,3,,,,,,,,,0,,,48,0
57840,note_on,0,0,3,,,,,,,,,0,,,48,84
57840,note_on,0,0,3,,,,,,,,,0,,,44,84
57840,note_on,0,0,1,,,,,,,,,0,,,64,0
57840,note_on,0,0,1,,,,,,,,,0,,,65,84
57840,note_on,0,0,1,,,,,,,,,0,,,72,84
57840,note_on,40,0,1,,,,,,,,,0,,,72,0
57880,note_on,0,0,3,,,,,,,,,0,,,44,82
57880,note_on,0,0,3,,,,,,,,,0,,,48,82
57880,note_on,0,0,3,,,,,,,,,0,,,48,0
57880,note_on,40,0,3,,,,,,,,,0,,,44,0
57880,note_on,0,0,1,,,,,,,,,0,,,72,82
57880,note_on,40,0,1,,,,,,,,,0,,,72,0
57880,note_on,0,0,1,,,,,,,,,0,,,65,0
57880,note_on,0,0,1,,,,,,,,,0,,,65,82
57920,note_on,0,0,1,,,,,,,,,0,,,65,0
57920,note_on,0,0,1,,,,,,,,,0,,,65,81
57920,note_on,40,0,1,,,,,,,,,0,,,72,0
57920,note_on,0,0,3,,,,,,,,,0,,,48,81
57920,note_on,0,0,3,,,,,,,,,0,,,48,0
57920,note_on,40,0,3,,,,,,,,,0,,,44,0
57920,note_on,0,0,1,,,,,,,,,0,,,72,81
57920,note_on,0,0,3,,,,,,,,,0,,,44,81
57960,note_on,0,0,1,,,,,,,,,0,,,65,0
57960,note_on,0,0,1,,,,,,,,,0,,,63,79
57960,note_on,0,0,1,,,,,,,,,0,,,66,79
57960,note_on,0,0,1,,,,,,,,,0,,,72,79
57960,note_on,0,0,3,,,,,,,,,0,,,48,0
57960,note_on,40,0,1,,,,,,,,,0,,,72,0
57960,note_on,40,0,3,,,,,,,,,0,,,44,0
57960,note_on,0,0,3,,,,,,,,,0,,,48,79
57960,note_on,0,0,3,,,,,,,,,0,,,45,79
58000,note_on,40,0,3,,,,,,,,,0,,,45,0
58000,note_on,0,0,3,,,,,,,,,0,,,48,0
58000,note_on,0,0,3,,,,,,,,,0,,,48,78
58000,note_on,0,0,3,,,,,,,,,0,,,45,78
58000,note_on,40,0,1,,,,,,,,,0,,,72,0
58000,note_on,0,0,1,,,,,,,,,0,,,66,0
58000,note_on,0,0,1,,,,,,,,,0,,,63,0
58000,note_on,0,0,1,,,,,,,,,0,,,63,78
58000,note_on,0,0,1,,,,,,,,,0,,,66,78
58000,note_on,0,0,1,,,,,,,,,0,,,72,78
58040,note_on,0,0,1,,,,,,,,,0,,,72,76
58040,note_on,40,0,1,,,,,,,,,0,,,72,0
58040,note_on,0,0,1,,,,,,,,,0,,,66,0
58040,note_on,0,0,1,,,,,,,,,0,,,63,0
58040,note_on,40,0,3,,,,,,,,,0,,,45,0
58040,note_on,0,0,3,,,,,,,,,0,,,48,0
58040,note_on,0,0,1,,,,,,,,,0,,,66,76
58040,note_on,0,0,3,,,,,,,,,0,,,45,76
58040,note_on,0,0,3,,,,,,,,,0,,,48,76
58040,note_on,0,0,1,,,,,,,,,0,,,63,76
58080,note_on,0,0,3,,,,,,,,,0,,,48,0
58080,note_on,40,0,1,,,,,,,,,0,,,72,0
58080,note_on,0,0,1,,,,,,,,,0,,,66,0
58080,note_on,40,0,3,,,,,,,,,0,,,45,0
58080,note_on,0,0,1,,,,,,,,,0,,,63,75
58080,note_on,0,0,1,,,,,,,,,0,,,63,0
58080,note_on,0,0,1,,,,,,,,,0,,,72,75
58080,note_on,0,0,3,,,,,,,,,0,,,45,75
58080,note_on,0,0,1,,,,,,,,,0,,,66,75
58080,note_on,0,0,3,,,,,,,,,0,,,48,75
58120,note_on,40,0,1,,,,,,,,,0,,,72,0
58120,note_on,0,0,1,,,,,,,,,0,,,66,0
58120,note_on,0,0,1,,,,,,,,,0,,,63,0
58120,note_on,0,0,1,,,,,,,,,0,,,62,73
58120,note_on,0,0,1,,,,,,,,,0,,,66,73
58120,note_on,0,0,1,,,,,,,,,0,,,72,73
58120,note_on,40,0,3,,,,,,,,,0,,,48,0
58120,note_on,0,0,3,,,,,,,,,0,,,45,0
58120,note_on,0,0,3,,,,,,,,,0,,,45,73
58120,note_on,0,0,3,,,,,,,,,0,,,50,73
58160,note_on,0,0,1,,,,,,,,,0,,,62,72
58160,note_on,40,0,1,,,,,,,,,0,,,72,0
58160,note_on,40,0,3,,,,,,,,,0,,,50,0
58160,note_on,0,0,3,,,,,,,,,0,,,45,0
58160,note_on,0,0,3,,,,,,,,,0,,,45,72
58160,note_on,0,0,3,,,,,,,,,0,,,50,72
58160,note_on,0,0,1,,,,,,,,,0,,,62,0
58160,note_on,0,0,1,,,,,,,,,0,,,66,0
58160,note_on,0,0,1,,,,,,,,,0,,,66,72
58160,note_on,0,0,1,,,,,,,,,0,,,72,72
58200,note_on,0,0,3,,,,,,,,,0,,,45,71
58200,note_on,40,0,1,,,,,,,,,0,,,72,0
58200,note_on,0,0,1,,,,,,,,,0,,,62,0
58200,note_on,0,0,1,,,,,,,,,0,,,62,71
58200,note_on,0,0,1,,,,,,,,,0,,,66,0
58200,note_on,0,0,1,,,,,,,,,0,,,72,71
58200,note_on,0,0,3,,,,,,,,,0,,,45,0
58200,note_on,0,0,3,,,,,,,,,0,,,50,71
58200,note_on,0,0,1,,,,,,,,,0,,,66,71
58200,note_on,40,0,3,,,,,,,,,0,,,50,0
58240,note_on,0,0,1,,,,,,,,,0,,,66,0
58240,note_on,40,0,1,,,,,,,,,0,,,72,0
58240,note_on,0,0,1,,,,,,,,,0,,,62,0
58240,note_on,0,0,1,,,,,,,,,0,,,62,69
58240,note_on,0,0,1,,,,,,,,,0,,,66,69
58240,note_on,0,0,1,,,,,,,,,0,,,72,69
58240,note_on,0,0,3,,,,,,,,,0,,,50,69
58240,note_on,0,0,3,,,,,,,,,0,,,45,69
58240,note_on,0,0,3,,,,,,,,,0,,,50,0
58240,note_on,40,0,3,,,,,,,,,0,,,45,0
58280,note_on,0,0,1,,,,,,,,,0,,,72,68
58280,note_on,0,0,1,,,,,,,,,0,,,66,68
58280,note_on,0,0,1,,,,,,,,,0,,,62,68
58280,note_on,0,0,3,,,,,,,,,0,,,45,68
58280,note_on,0,0,3,,,,,,,,,0,,,50,68
58280,note_on,0,0,3,,,,,,,,,0,,,50,0
58280,note_on,40,0,3,,,,,,,,,0,,,45,0
58280,note_on,0,0,1,,,,,,,,,0,,,62,0
58280,note_on,0,0,1,,,,,,,,,0,,,66,0
58280,note_on,40,0,1,,,,,,,,,0,,,72,0
58320,note_on,0,0,3,,,,,,,,,0,,,50,66
58320,note_on,0,0,1,,,,,,,,,0,,,67,66
58320,note_on,0,0,1,,,,,,,,,0,,,62,0
58320,note_on,0,0,1,,,,,,,,,0,,,72,66
58320,note_on,40,0,1,,,,,,,,,0,,,72,0
58320,note_on,40,0,3,,,,,,,,,0,,,45,0
58320,note_on,0,0,3,,,,,,,,,0,,,50,0
58320,note_on,0,0,3,,,,,,,,,0,,,46,66
58320,note_on,0,0,1,,,,,,,,,0,,,62,66
58320,note_on,0,0,1,,,,,,,,,0,,,66,0
58360,note_on,0,0,1,,,,,,,,,0,,,67,65
58360,note_on,0,0,1,,,,,,,,,0,,,62,65
58360,note_on,0,0,1,,,,,,,,,0,,,72,65
58360,note_on,0,0,1,,,,,,,,,0,,,72,0
58360,note_on,0,0,1,,,,,,,,,0,,,67,0
58360,note_on,0,0,3,,,,,,,,,0,,,50,65
58360,note_on,40,0,3,,,,,,,,,0,,,50,0
58360,note_on,0,0,3,,,,,,,,,0,,,46,0
58360,note_on,0,0,3,,,,,,,,,0,,,46,65
58360,note_on,40,0,1,,,,,,,,,0,,,62,0
58400,note_on,0,0,1,,,,,,,,,0,,,67,63
58400,note_on,40,0,1,,,,,,,,,0,,,62,0
58400,note_on,0,0,1,,,,,,,,,0,,,67,0
58400,note_on,0,0,1,,,,,,,,,0,,,72,0
58400,note_on,0,0,1,,,,,,,,,0,,,72,63
58400,note_on,0,0,1,,,,,,,,,0,,,62,63
58400,note_on,40,0,3,,,,,,,,,0,,,50,0
58400,note_on,0,0,3,,,,,,,,,0,,,46,0
58400,note_on,0,0,3,,,,,,,,,0,,,46,63
58400,note_on,0,0,3,,,,,,,,,0,,,50,63
58440,note_on,40,0,3,,,,,,,,,0,,,50,0
58440,note_on,0,0,3,,,,,,,,,0,,,50,62
58440,note_on,0,0,3,,,,,,,,,0,,,46,62
58440,note_on,0,0,3,,,,,,,,,0,,,46,0
58440,note_on,40,0,1,,,,,,,,,0,,,62,0
58440,note_on,0,0,1,,,,,,,,,0,,,67,0
58440,note_on,0,0,1,,,,,,,,,0,,,72,0
58440,note_on,0,0,1,,,,,,,,,0,,,70,62
58440,note_on,0,0,1,,,,,,,,,0,,,67,62
58440,note_on,0,0,1,,,,,,,,,0,,,62,62
58480,note_on,0,0,3,,,,,,,,,0,,,46,60
58480,note_on,0,0,3,,,,,,,,,0,,,46,0
58480,note_on,40,0,3,,,,,,,,,0,,,50,0
58480,note_on,40,0,1,,,,,,,,,0,,,62,0
58480,note_on,0,0,1,,,,,,,,,0,,,67,0
58480,note_on,0,0,1,,,,,,,,,0,,,70,0
58480,note_on,0,0,3,,,,,,,,,0,,,50,60
58480,note_on,0,0,1,,,,,,,,,0,,,67,60
58480,note_on,0,0,1,,,,,,,,,0,,,62,60
58480,note_on,0,0,1,,,,,,,,,0,,,70,60
58520,note_on,0,0,1,,,,,,,,,0,,,70,59
58520,note_on,0,0,3,,,,,,,,,0,,,46,0
58520,note_on,0,0,3,,,,,,,,,0,,,46,59
58520,note_on,0,0,3,,,,,,,,,0,,,50,59
58520,note_on,0,0,1,,,,,,,,,0,,,67,59
58520,note_on,40,0,3,,,,,,,,,0,,,50,0
58520,note_on,0,0,1,,,,,,,,,0,,,70,0
58520,note_on,0,0,1,,,,,,,,,0,,,67,0
58520,note_on,40,0,1,,,,,,,,,0,,,62,0
58520,note_on,0,0,1,,,,,,,,,0,,,62,59
58560,note_on,0,0,1,,,,,,,,,0,,,67,0
58560,note_on,0,0,1,,,,,,,,,0,,,70,57
58560,note_on,40,0,3,,,,,,,,,0,,,50,0
58560,note_on,40,0,1,,,,,,,,,0,,,62,0
58560,note_on,0,0,3,,,,,,,,,0,,,46,0
58560,note_on,0,0,3,,,,,,,,,0,,,51,57
58560,note_on,0,0,1,,,,,,,,,0,,,63,57
58560,note_on,0,0,1,,,,,,,,,0,,,60,57
58560,note_on,0,0,1,,,,,,,,,0,,,70,0
58560,note_on,0,0,3,,,,,,,,,0,,,48,57
58600,note_on,0,0,3,,,,,,,,,0,,,48,0
58600,note_on,0,0,3,,,,,,,,,0,,,48,56
58600,note_on,0,0,3,,,,,,,,,0,,,51,56
58600,note_on,40,0,3,,,,,,,,,0,,,51,0
58600,note_on,0,0,1,,,,,,,,,0,,,60,0
58600,note_on,0,0,1,,,,,,,,,0,,,63,0
58600,note_on,0,0,1,,,,,,,,,0,,,60,56
58600,note_on,0,0,1,,,,,,,,,0,,,70,56
58600,note_on,0,0,1,,,,,,,,,0,,,63,56
58600,note_on,40,0,1,,,,,,,,,0,,,70,0
58640,note_on,0,0,3,,,,,,,,,0,,,51,54
58640,note_on,0,0,3,,,,,,,,,0,,,48,54
58640,note_on,0,0,3,,,,,,,,,0,,,48,0
58640,note_on,40,0,3,,,,,,,,,0,,,51,0
58640,note_on,0,0,1,,,,,,,,,0,,,63,54
58640,note_on,40,0,1,,,,,,,,,0,,,70,0
58640,note_on,0,0,1,,,,,,,,,0,,,63,0
58640,note_on,0,0,1,,,,,,,,,0,,,60,0
58640,note_on,0,0,1,,,,,,,,,0,,,70,54
58640,note_on,0,0,1,,,,,,,,,0,,,60,54
58680,note_on,0,0,3,,,,,,,,,0,,,51,53
58680,note_on,0,0,1,,,,,,,,,0,,,60,53
58680,note_on,40,0,3,,,,,,,,,0,,,51,0
58680,note_on,0,0,3,,,,,,,,,0,,,48,0
58680,note_on,0,0,3,,,,,,,,,0,,,48,53
58680,note_on,0,0,1,,,,,,,,,0,,,60,0
58680,note_on,0,0,1,,,,,,,,,0,,,63,0
58680,note_on,40,0,1,,,,,,,,,0,,,70,0
58680,note_on,0,0,1,,,,,,,,,0,,,63,53
58680,note_on,0,0,1,,,,,,,,,0,,,69,53
58720,note_on,40,0,3,,,,,,,,,0,,,51,0
58720,note_on,0,0,3,,,,,,,,,0,,,51,51
58720,note_on,0,0,3,,,,,,,,,0,,,48,51
58720,note_on,0,0,1,,,,,,,,,0,,,69,51
58720,note_on,0,0,1,,,,,,,,,0,,,63,51
58720,note_on,0,0,1,,,,,,,,,0,,,60,51
58720,note_on,0,0,1,,,,,,,,,0,,,60,0
58720,note_on,0,0,1,,,,,,,,,0,,,63,0
58720,note_on,40,0,1,,,,,,,,,0,,,69,0
58720,note_on,0,0,3,,,,,,,,,0,,,48,0
58760,note_on,40,0,3,,,,,,,,,0,,,51,0
58760,note_on,0,0,3,,,,,,,,,0,,,48,50
58760,note_on,0,0,3,,,,,,,,,0,,,51,50
58760,note_on,0,0,3,,,,,,,,,0,,,48,0
58760,note_on,40,0,1,,,,,,,,,0,,,69,0
58760,note_on,0,0,1,,,,,,,,,0,,,69,50
58760,note_on,0,0,1,,,,,,,,,0,,,63,0
58760,note_on,0,0,1,,,,,,,,,0,,,60,0
58760,note_on,0,0,1,,,,,,,,,0,,,60,50
58760,note_on,0,0,1,,,,,,,,,0,,,63,50
58800,note_on,0,0,1,,,,,,,,,0,,,63,0
58800,note_on,40,0,3,,,,,,,,,0,,,51,0
58800,note_on,0,0,3,,,,,,,,,0,,,48,0
58800,note_on,0,0,3,,,,,,,,,0,,,50,48
58800,note_on,40,0,1,,,,,,,,,0,,,69,0
58800,note_on,0,0,1,,,,,,,,,0,,,58,48
58800,note_on,0,0,1,,,,,,,,,0,,,67,48
58800,note_on,0,0,1,,,,,,,,,0,,,62,48
58800,note_on,0,0,1,,,,,,,,,0,,,60,0
58840,note_on,40,0,3,,,,,,,,,0,,,50,0
58840,note_on,0,0,1,,,,,,,,,0,,,62,47
58840,note_on,0,0,1,,,,,,,,,0,,,58,47
58840,note_on,0,0,1,,,,,,,,,0,,,58,0
58840,note_on,0,0,1,,,,,,,,,0,,,62,0
58840,note_on,40,0,1,,,,,,,,,0,,,67,0
58840,note_on,0,0,1,,,,,,,,,0,,,67,47
58840,note_on,0,0,3,,,,,,,,,0,,,50,47
58880,note_on,40,0,1,,,,,,,,,0,,,67,0
58880,note_on,0,0,1,,,,,,,,,0,,,62,45
58880,note_on,0,0,1,,,,,,,,,0,,,58,45
58880,note_on,40,0,3,,,,,,,,,0,,,50,0
58880,note_on,0,0,3,,,,,,,,,0,,,50,45
58880,note_on,0,0,1,,,,,,,,,0,,,67,45
58880,note_on,0,0,1,,,,,,,,,0,,,58,0
58880,note_on,0,0,1,,,,,,,,,0,,,62,0
58920,note_on,0,0,1,,,,,,,,,0,,,62,0
58920,note_on,0,0,1,,,,,,,,,0,,,58,0
58920,note_on,0,0,1,,,,,,,,,0,,,57,44
58920,note_on,0,0,1,,,,,,,,,0,,,62,44
58920,note_on,0,0,1,,,,,,,,,0,,,66,44
58920,note_on,40,0,1,,,,,,,,,0,,,67,0
58920,note_on,40,0,3,,,,,,,,,0,,,50,0
58920,note_on,0,0,3,,,,,,,,,0,,,50,44
58960,note_on,40,0,1,,,,,,,,,0,,,66,0
58960,note_on,40,0,3,,,,,,,,,0,,,50,0
58960,note_on,0,0,1,,,,,,,,,0,,,66,42
58960,note_on,0,0,1,,,,,,,,,0,,,62,42
58960,note_on,0,0,1,,,,,,,,,0,,,57,42
58960,note_on,0,0,1,,,,,,,,,0,,,57,0
58960,note_on,0,0,1,,,,,,,,,0,,,62,0
58960,note_on,0,0,3,,,,,,,,,0,,,50,42
59000,note_on,40,0,3,,,,,,,,,0,,,50,0
59000,note_on,0,0,1,,,,,,,,,0,,,57,41
59000,note_on,0,0,1,,,,,,,,,0,,,62,41
59000,note_on,0,0,1,,,,,,,,,0,,,66,41
59000,note_on,0,0,1,,,,,,,,,0,,,62,0
59000,note_on,0,0,1,,,,,,,,,0,,,57,0
59000,note_on,0,0,3,,,,,,,,,0,,,50,41
59000,note_on,40,0,1,,,,,,,,,0,,,66,0
59040,note_on,40,0,3,,,,,,,,,0,,,50,0
59040,note_on,0,0,3,,,,,,,,,0,,,43,40
59040,note_on,0,0,3,,,,,,,,,0,,,50,40
59040,note_on,0,0,1,,,,,,,,,0,,,67,50
59040,note_on,0,0,1,,,,,,,,,0,,,62,50
59040,note_on,0,0,1,,,,,,,,,0,,,58,50
59040,marker,6240,1,0,,,,,,,,,,,,,
59040,note_on,0,0,1,,,,,,,,,0,,,57,0
59040,note_on,0,0,1,,,,,,,,,0,,,62,0
59040,note_on,40,0,1,,,,,,,,,0,,,66,0
59080,note_on,0,0,3,,,,,,,,,0,,,50,40
59080,note_on,40,0,3,,,,,,,,,0,,,50,0
59120,note_on,40,0,3,,,,,,,,,0,,,50,0
59120,note_on,0,0,3,,,,,,,,,0,,,50,40
59160,note_on,40,0,3,,,,,,,,,0,,,50,0
59160,note_on,0,0,3,,,,,,,,,0,,,50,40
59200,note_on,40,0,3,,,,,,,,,0,,,50,0
59200,note_on,0,0,3,,,,,,,,,0,,,50,40
59240,note_on,40,0,3,,,,,,,,,0,,,50,0
59240,note_on,0,0,3,,,,,,,,,0,,,50,40
59280,note_on,0,0,1,,,,,,,,,0,,,58,0
59280,note_on,0,0,1,,,,,,,,,0,,,62,0
59280,note_on,240,0,1,,,,,,,,,0,,,67,0
59280,note_on,40,0,3,,,,,,,,,0,,,50,0
59280,note_on,0,0,3,,,,,,,,,0,,,50,40
59280,note_on,0,0,3,,,,,,,,,0,,,43,0
59320,note_on,0,0,3,,,,,,,,,0,,,50,40
59320,note_on,40,0,3,,,,,,,,,0,,,50,0
59360,note_on,0,0,3,,,,,,,,,0,,,50,40
59360,note_on,40,0,3,,,,,,,,,0,,,50,0
59400,note_on,40,0,3,,,,,,,,,0,,,50,0
59400,note_on,120,0,1,,,,,,,,,0,,,67,50
59400,note_on,0,0,3,,,,,,,,,0,,,50,40
59440,note_on,0,0,3,,,,,,,,,0,,,50,40
59440,note_on,40,0,3,,,,,,,,,0,,,50,0
59480,note_on,40,0,3,,,,,,,,,0,,,50,0
59480,note_on,0,0,3,,,,,,,,,0,,,50,40
59490,note_on,90,0,1,,,,,,,,,0,,,67,0
59490,note_on,0,0,1,,,,,,,,,0,,,70,50
59520,note_on,0,0,1,,,,,,,,,0,,,74,50
59520,note_on,30,0,1,,,,,,,,,0,,,70,0
59520,note_on,40,0,3,,,,,,,,,0,,,50,0
59550,note_on,30,0,1,,,,,,,,,0,,,62,40
59580,note_on,0,0,1,,,,,,,,,0,,,67,40
59580,note_on,30,0,1,,,,,,,,,0,,,62,0
59580,note_on,60,0,3,,,,,,,,,0,,,43,50
59610,note_on,30,0,1,,,,,,,,,0,,,67,0
59610,note_on,0,0,1,,,,,,,,,0,,,70,40
59640,note_on,30,0,1,,,,,,,,,0,,,70,0
59640,note_on,0,0,1,,,,,,,,,0,,,74,0
59640,note_on,0,0,1,,,,,,,,,0,,,74,50
59640,note_on,60,0,3,,,,,,,,,0,,,43,0
59670,note_on,30,0,1,,,,,,,,,0,,,62,40
59700,note_on,60,0,3,,,,,,,,,0,,,43,50
59700,note_on,0,0,1,,,,,,,,,0,,,67,40
59700,note_on,30,0,1,,,,,,,,,0,,,62,0
59730,note_on,30,0,1,,,,,,,,,0,,,67,0
59730,note_on,0,0,1,,,,,,,,,0,,,70,40
59760,note_on,60,0,3,,,,,,,,,0,,,43,0
59760,note_on,0,0,1,,,,,,,,,0,,,74,50
59760,note_on,30,0,1,,,,,,,,,0,,,70,0
59760,note_on,0,0,1,,,,,,,,,0,,,74,0
59790,note_on,30,0,1,,,,,,,,,0,,,62,40
59820,note_on,60,0,3,,,,,,,,,0,,,38,50
59820,note_on,30,0,1,,,,,,,,,0,,,62,0
59820,note_on,0,0,1,,,,,,,,,0,,,66,40
59850,note_on,30,0,1,,,,,,,,,0,,,66,0
59850,note_on,0,0,1,,,,,,,,,0,,,69,40
59880,note_on,60,0,3,,,,,,,,,0,,,38,0
59880,note_on,30,0,1,,,,,,,,,0,,,69,0
59880,note_on,0,0,1,,,,,,,,,0,,,74,0
59880,note_on,0,0,1,,,,,,,,,0,,,74,50
59910,note_on,30,0,1,,,,,,,,,0,,,62,40
59940,note_on,0,0,1,,,,,,,,,0,,,67,40
59940,note_on,30,0,1,,,,,,,,,0,,,62,0
59940,note_on,60,0,3,,,,,,,,,0,,,43,50
59970,note_on,0,0,1,,,,,,,,,0,,,70,40
59970,note_on,30,0,1,,,,,,,,,0,,,67,0
60000,note_on,0,0,1,,,,,,,,,0,,,74,0
60000,note_on,0,0,1,,,,,,,,,0,,,75,50
60000,note_on,60,0,3,,,,,,,,,0,,,43,0
60000,note_on,30,0,1,,,,,,,,,0,,,70,0
60030,note_on,30,0,1,,,,,,,,,0,,,63,40
60060,note_on,60,0,3,,,,,,,,,0,,,36,50
60060,note_on,30,0,1,,,,,,,,,0,,,63,0
60060,note_on,0,0,1,,,,,,,,,0,,,67,40
60090,note_on,0,0,1,,,,,,,,,0,,,72,40
60090,note_on,30,0,1,,,,,,,,,0,,,67,0
60120,note_on,30,0,1,,,,,,,,,0,,,72,0
60120,note_on,60,0,3,,,,,,,,,0,,,36,0
60120,note_on,0,0,1,,,,,,,,,0,,,66,40
60150,note_on,30,0,1,,,,,,,,,0,,,66,0
60150,note_on,0,0,1,,,,,,,,,0,,,72,40
60180,note_on,0,0,1,,,,,,,,,0,,,69,40
60180,note_on,60,0,3,,,,,,,,,0,,,36,50
60180,note_on,30,0,1,,,,,,,,,0,,,72,0
60210,note_on,30,0,1,,,,,,,,,0,,,69,0
60210,note_on,0,0,1,,,,,,,,,0,,,66,40
60240,note_on,60,0,3,,,,,,,,,0,,,36,0
60240,note_on,30,0,1,,,,,,,,,0,,,66,0
60240,note_on,0,0,1,,,,,,,,,0,,,75,0
60240,note_on,0,0,1,,,,,,,,,0,,,74,50
60270,note_on,30,0,1,,,,,,,,,0,,,62,40
60300,note_on,30,0,1,,,,,,,,,0,,,62,0
60300,note_on,0,0,1,,,,,,,,,0,,,67,40
60300,note_on,60,0,3,,,,,,,,,0,,,43,50
60330,note_on,30,0,1,,,,,,,,,0,,,67,0
60330,note_on,0,0,1,,,,,,,,,0,,,70,40
60360,note_on,60,0,3,,,,,,,,,0,,,43,0
60360,note_on,30,0,1,,,,,,,,,0,,,70,0
60360,note_on,0,0,1,,,,,,,,,0,,,62,40
60390,note_on,30,0,1,,,,,,,,,0,,,62,0
60390,note_on,0,0,1,,,,,,,,,0,,,70,40
60420,note_on,0,0,1,,,,,,,,,0,,,67,40
60420,note_on,30,0,1,,,,,,,,,0,,,70,0
60420,note_on,60,0,3,,,,,,,,,0,,,43,50
60450,note_on,30,0,1,,,,,,,,,0,,,67,0
60450,note_on,0,0,1,,,,,,,,,0,,,62,40
60480,note_on,0,0,1,,,,,,,,,0,,,74,0
60480,note_on,30,0,1,,,,,,,,,0,,,62,0
60480,note_on,60,0,3,,,,,,,,,0,,,43,0
60480,note_on,0,0,1,,,,,,,,,0,,,72,50
60510,note_on,30,0,1,,,,,,,,,0,,,60,40
60540,note_on,60,0,3,,,,,,,,,0,,,44,50
60540,note_on,30,0,1,,,,,,,,,0,,,60,0
60540,note_on,0,0,1,,,,,,,,,0,,,63,40
60570,note_on,0,0,1,,,,,,,,,0,,,66,40
60570,note_on,30,0,1,,,,,,,,,0,,,63,0
60600,note_on,60,0,3,,,,,,,,,0,,,44,0
60600,note_on,0,0,1,,,,,,,,,0,,,60,40
60600,note_on,30,0,1,,,,,,,,,0,,,66,0
60630,note_on,0,0,1,,,,,,,,,0,,,66,40
60630,note_on,30,0,1,,,,,,,,,0,,,60,0
60660,note_on,60,0,3,,,,,,,,,0,,,45,50
60660,note_on,30,0,1,,,,,,,,,0,,,66,0
60660,note_on,0,0,1,,,,,,,,,0,,,63,40
60690,note_on,0,0,1,,,,,,,,,0,,,60,40
60690,note_on,30,0,1,,,,,,,,,0,,,63,0
60720,note_on,0,0,1,,,,,,,,,0,,,70,50
60720,note_on,0,0,1,,,,,,,,,0,,,72,0
60720,note_on,30,0,1,,,,,,,,,0,,,60,0
60720,note_on,60,0,3,,,,,,,,,0,,,45,0
60750,note_on,30,0,1,,,,,,,,,0,,,58,40
60780,note_on,30,0,1,,,,,,,,,0,,,58,0
60780,note_on,60,0,3,,,,,,,,,0,,,46,50
60780,note_on,0,0,1,,,,,,,,,0,,,62,40
60810,note_on,30,0,1,,,,,,,,,0,,,62,0
60810,note_on,0,0,1,,,,,,,,,0,,,67,40
60840,note_on,0,0,1,,,,,,,,,0,,,58,40
60840,note_on,30,0,1,,,,,,,,,0,,,67,0
60840,note_on,60,0,3,,,,,,,,,0,,,46,0
60870,note_on,0,0,1,,,,,,,,,0,,,67,40
60870,note_on,30,0,1,,,,,,,,,0,,,58,0
60900,note_on,60,0,3,,,,,,,,,0,,,50,50
60900,note_on,30,0,1,,,,,,,,,0,,,67,0
60900,note_on,0,0,1,,,,,,,,,0,,,62,40
60930,note_on,0,0,1,,,,,,,,,0,,,58,40
60930,note_on,30,0,1,,,,,,,,,0,,,62,0
60960,note_on,60,0,3,,,,,,,,,0,,,50,0
60960,note_on,30,0,1,,,,,,,,,0,,,58,0
60960,note_on,0,0,1,,,,,,,,,0,,,69,50
60960,note_on,0,0,1,,,,,,,,,0,,,70,0
60990,note_on,30,0,1,,,,,,,,,0,,,57,40
61020,note_on,30,0,1,,,,,,,,,0,,,57,0
61020,note_on,0,0,1,,,,,,,,,0,,,60,40
61020,note_on,60,0,3,,,,,,,,,0,,,51,50
61050,note_on,30,0,1,,,,,,,,,0,,,60,0
61050,note_on,0,0,1,,,,,,,,,0,,,67,40
61080,note_on,0,0,1,,,,,,,,,0,,,69,0
61080,note_on,60,0,3,,,,,,,,,0,,,51,0
61080,note_on,30,0,1,,,,,,,,,0,,,67,0
61080,note_on,0,0,1,,,,,,,,,0,,,72,50
61110,note_on,30,0,1,,,,,,,,,0,,,63,40
61140,note_on,0,0,1,,,,,,,,,0,,,67,40
61140,note_on,30,0,1,,,,,,,,,0,,,63,0
61140,note_on,60,0,3,,,,,,,,,0,,,48,50
61170,note_on,30,0,1,,,,,,,,,0,,,67,0
61170,note_on,0,0,1,,,,,,,,,0,,,68,40
61200,note_on,30,0,1,,,,,,,,,0,,,68,0
61200,note_on,0,0,1,,,,,,,,,0,,,72,0
61200,note_on,0,0,1,,,,,,,,,0,,,70,50
61200,note_on,60,0,3,,,,,,,,,0,,,48,0
61230,note_on,30,0,1,,,,,,,,,0,,,58,40
61260,note_on,30,0,1,,,,,,,,,0,,,58,0
61260,note_on,60,0,3,,,,,,,,,0,,,50,50
61260,note_on,0,0,1,,,,,,,,,0,,,62,40
61290,note_on,0,0,1,,,,,,,,,0,,,67,40
61290,note_on,30,0,1,,,,,,,,,0,,,62,0
61320,note_on,0,0,1,,,,,,,,,0,,,69,50
61320,note_on,60,0,3,,,,,,,,,0,,,50,0
61320,note_on,0,0,1,,,,,,,,,0,,,70,0
61320,note_on,30,0,1,,,,,,,,,0,,,67,0
61350,note_on,30,0,1,,,,,,,,,0,,,60,40
61380,note_on,0,0,1,,,,,,,,,0,,,62,40
61380,note_on,30,0,1,,,,,,,,,0,,,60,0
61380,note_on,60,0,3,,,,,,,,,0,,,38,50
61410,note_on,0,0,1,,,,,,,,,0,,,66,40
61410,note_on,30,0,1,,,,,,,,,0,,,62,0
61440,note_on,60,0,3,,,,,,,,,0,,,38,0
61440,note_on,0,0,1,,,,,,,,,0,,,67,50
61440,note_on,0,0,1,,,,,,,,,0,,,69,0
61440,note_on,30,0,1,,,,,,,,,0,,,66,0
61470,note_on,30,0,1,,,,,,,,,0,,,55,40
61500,note_on,60,0,3,,,,,,,,,0,,,43,50
61500,note_on,30,0,1,,,,,,,,,0,,,55,0
61500,note_on,0,0,1,,,,,,,,,0,,,58,40
61530,note_on,30,0,1,,,,,,,,,0,,,58,0
61530,note_on,0,0,1,,,,,,,,,0,,,62,40
61560,note_on,30,0,1,,,,,,,,,0,,,62,0
61560,note_on,60,0,3,,,,,,,,,0,,,43,0
61560,note_on,0,0,3,,,,,,,,,0,,,45,50
61560,note_on,0,0,1,,,,,,,,,0,,,63,40
61590,note_on,30,0,1,,,,,,,,,0,,,63,0
61590,note_on,0,0,1,,,,,,,,,0,,,60,40
61620,note_on,0,0,3,,,,,,,,,0,,,48,50
61620,note_on,30,0,1,,,,,,,,,0,,,60,0
61620,note_on,0,0,1,,,,,,,,,0,,,57,40
61620,note_on,60,0,3,,,,,,,,,0,,,45,0
61650,note_on,30,0,1,,,,,,,,,0,,,57,0
61650,note_on,0,0,1,,,,,,,,,0,,,63,40
61680,note_on,60,0,3,,,,,,,,,0,,,48,0
61680,note_on,0,0,3,,,,,,,,,0,,,46,50
61680,note_on,0,0,1,,,,,,,,,0,,,62,40
61680,note_on,30,0,1,,,,,,,,,0,,,63,0
61710,note_on,0,0,1,,,,,,,,,0,,,58,40
61710,note_on,30,0,1,,,,,,,,,0,,,62,0
61740,note_on,0,0,1,,,,,,,,,0,,,62,40
61740,note_on,30,0,1,,,,,,,,,0,,,58,0
61740,note_on,0,0,3,,,,,,,,,0,,,55,50
61740,note_on,60,0,3,,,,,,,,,0,,,46,0
61770,note_on,0,0,1,,,,,,,,,0,,,66,40
61770,note_on,30,0,1,,,,,,,,,0,,,62,0
61800,note_on,0,0,1,,,,,,,,,0,,,67,40
61800,note_on,0,0,1,,,,,,,,,0,,,67,0
61800,note_on,30,0,1,,,,,,,,,0,,,66,0
61800,note_on,0,0,3,,,,,,,,,0,,,50,50
61800,note_on,60,0,3,,,,,,,,,0,,,55,0
61830,note_on,30,0,1,,,,,,,,,0,,,67,0
61830,note_on,0,0,1,,,,,,,,,0,,,62,40
61860,note_on,0,0,3,,,,,,,,,0,,,46,50
61860,note_on,60,0,3,,,,,,,,,0,,,50,0
61860,note_on,0,0,1,,,,,,,,,0,,,67,40
61860,note_on,30,0,1,,,,,,,,,0,,,62,0
61890,note_on,0,0,1,,,,,,,,,0,,,70,40
61890,note_on,30,0,1,,,,,,,,,0,,,67,0
61920,note_on,0,0,1,,,,,,,,,0,,,74,50
61920,note_on,30,0,1,,,,,,,,,0,,,70,0
61920,note_on,60,0,3,,,,,,,,,0,,,46,0
61950,note_on,30,0,1,,,,,,,,,0,,,62,40
61980,note_on,0,0,1,,,,,,,,,0,,,67,40
61980,note_on,60,0,3,,,,,,,,,0,,,43,50
61980,note_on,30,0,1,,,,,,,,,0,,,62,0
62010,note_on,0,0,1,,,,,,,,,0,,,70,40
62010,note_on,30,0,1,,,,,,,,,0,,,67,0
62040,note_on,60,0,3,,,,,,,,,0,,,43,0
62040,note_on,30,0,1,,,,,,,,,0,,,70,0
62040,note_on,0,0,1,,,,,,,,,0,,,74,0
62040,note_on,0,0,1,,,,,,,,,0,,,74,50
62070,note_on,30,0,1,,,,,,,,,0,,,62,40
62100,note_on,30,0,1,,,,,,,,,0,,,62,0
62100,note_on,60,0,3,,,,,,,,,0,,,43,50
62100,note_on,0,0,1,,,,,,,,,0,,,67,40
62130,note_on,30,0,1,,,,,,,,,0,,,67,0
62130,note_on,0,0,1,,,,,,,,,0,,,70,40
62160,note_on,60,0,3,,,,,,,,,0,,,43,0
62160,note_on,0,0,1,,,,,,,,,0,,,74,50
62160,note_on,30,0,1,,,,,,,,,0,,,70,0
62160,note_on,0,0,1,,,,,,,,,0,,,74,0
62190,note_on,30,0,1,,,,,,,,,0,,,62,40
62220,note_on,30,0,1,,,,,,,,,0,,,62,0
62220,note_on,0,0,1,,,,,,,,,0,,,66,40
62220,note_on,60,0,3,,,,,,,,,0,,,38,50
62250,note_on,30,0,1,,,,,,,,,0,,,66,0
62250,note_on,0,0,1,,,,,,,,,0,,,69,40
62280,note_on,30,0,1,,,,,,,,,0,,,69,0
62280,note_on,0,0,1,,,,,,,,,0,,,74,0
62280,note_on,0,0,1,,,,,,,,,0,,,74,50
62280,note_on,60,0,3,,,,,,,,,0,,,38,0
62310,note_on,30,0,1,,,,,,,,,0,,,62,40
62340,note_on,30,0,1,,,,,,,,,0,,,62,0
62340,note_on,0,0,1,,,,,,,,,0,,,67,40
62340,note_on,60,0,3,,,,,,,,,0,,,43,50
62370,note_on,0,0,1,,,,,,,,,0,,,70,40
62370,note_on,30,0,1,,,,,,,,,0,,,67,0
62400,note_on,0,0,1,,,,,,,,,0,,,75,50
62400,note_on,30,0,1,,,,,,,,,0,,,70,0
62400,note_on,60,0,3,,,,,,,,,0,,,43,0
62400,note_on,0,0,1,,,,,,,,,0,,,74,0
62430,note_on,30,0,1,,,,,,,,,0,,,63,41
62460,note_on,30,0,1,,,,,,,,,0,,,63,0
62460,note_on,0,0,1,,,,,,,,,0,,,67,42
62460,note_on,60,0,3,,,,,,,,,0,,,36,52
62490,note_on,30,0,1,,,,,,,,,0,,,67,0
62490,note_on,0,0,1,,,,,,,,,0,,,72,44
62520,note_on,30,0,1,,,,,,,,,0,,,72,0
62520,note_on,0,0,1,,,,,,,,,0,,,69,45
62520,note_on,60,0,3,,,,,,,,,0,,,36,0
62550,note_on,30,0,1,,,,,,,,,0,,,69,0
62550,note_on,0,0,1,,,,,,,,,0,,,72,46
62580,note_on,0,0,1,,,,,,,,,0,,,69,48
62580,note_on,60,0,3,,,,,,,,,0,,,41,58
62580,note_on,30,0,1,,,,,,,,,0,,,72,0
62610,note_on,30,0,1,,,,,,,,,0,,,69,0
62610,note_on,0,0,1,,,,,,,,,0,,,65,49
62640,note_on,60,0,3,,,,,,,,,0,,,41,0
62640,note_on,0,0,1,,,,,,,,,0,,,74,60
62640,note_on,0,0,1,,,,,,,,,0,,,75,0
62640,note_on,30,0,1,,,,,,,,,0,,,65,0
62670,note_on,30,0,1,,,,,,,,,0,,,62,52
62700,note_on,60,0,3,,,,,,,,,0,,,34,63
62700,note_on,30,0,1,,,,,,,,,0,,,62,0
62700,note_on,0,0,1,,,,,,,,,0,,,65,53
62730,note_on,0,0,1,,,,,,,,,0,,,70,54
62730,note_on,30,0,1,,,,,,,,,0,,,65,0
62760,note_on,0,0,1,,,,,,,,,0,,,65,56
62760,note_on,30,0,1,,,,,,,,,0,,,70,0
62760,note_on,60,0,3,,,,,,,,,0,,,34,0
62790,note_on,30,0,1,,,,,,,,,0,,,65,0
62790,note_on,0,0,1,,,,,,,,,0,,,70,57
62820,note_on,30,0,1,,,,,,,,,0,,,70,0
62820,note_on,60,0,3,,,,,,,,,0,,,46,69
62820,note_on,0,0,1,,,,,,,,,0,,,65,59
62850,note_on,0,0,1,,,,,,,,,0,,,62,60
62850,note_on,30,0,1,,,,,,,,,0,,,65,0
62880,note_on,30,0,1,,,,,,,,,0,,,62,0
62880,note_on,60,0,3,,,,,,,,,0,,,46,0
62880,note_on,0,0,1,,,,,,,,,0,,,72,70
62880,note_on,0,0,1,,,,,,,,,0,,,74,0
62910,note_on,30,0,1,,,,,,,,,0,,,60,59
62940,note_on,30,0,1,,,,,,,,,0,,,60,0
62940,note_on,60,0,3,,,,,,,,,0,,,45,68
62940,note_on,0,0,1,,,,,,,,,0,,,63,58
62970,note_on,0,0,1,,,,,,,,,0,,,69,56
62970,note_on,30,0,1,,,,,,,,,0,,,63,0
63000,note_on,60,0,3,,,,,,,,,0,,,45,0
63000,note_on,0,0,1,,,,,,,,,0,,,66,55
63000,note_on,30,0,1,,,,,,,,,0,,,69,0
63030,note_on,0,0,1,,,,,,,,,0,,,69,54
63030,note_on,30,0,1,,,,,,,,,0,,,66,0
63060,note_on,0,0,1,,,,,,,,,0,,,66,52
63060,note_on,60,0,3,,,,,,,,,0,,,38,62
63060,note_on,30,0,1,,,,,,,,,0,,,69,0
63090,note_on,0,0,1,,,,,,,,,0,,,62,51
63090,note_on,30,0,1,,,,,,,,,0,,,66,0
63120,note_on,0,0,1,,,,,,,,,0,,,70,60
63120,note_on,30,0,1,,,,,,,,,0,,,62,0
63120,note_on,0,0,1,,,,,,,,,0,,,72,0
63120,note_on,60,0,3,,,,,,,,,0,,,38,0
63150,note_on,30,0,1,,,,,,,,,0,,,58,48
63180,note_on,60,0,3,,,,,,,,,0,,,43,57
63180,note_on,0,0,1,,,,,,,,,0,,,62,47
63180,note_on,30,0,1,,,,,,,,,0,,,58,0
63210,note_on,0,0,1,,,,,,,,,0,,,67,46
63210,note_on,30,0,1,,,,,,,,,0,,,62,0
63240,note_on,60,0,3,,,,,,,,,0,,,43,0
63240,note_on,0,0,1,,,,,,,,,0,,,62,44
63240,note_on,30,0,1,,,,,,,,,0,,,67,0
63270,note_on,30,0,1,,,,,,,,,0,,,62,0
63270,note_on,0,0,1,,,,,,,,,0,,,67,43
63300,note_on,0,0,1,,,,,,,,,0,,,62,41
63300,note_on,60,0,3,,,,,,,,,0,,,31,51
63300,note_on,30,0,1,,,,,,,,,0,,,67,0
63330,note_on,0,0,1,,,,,,,,,0,,,58,40
63330,note_on,30,0,1,,,,,,,,,0,,,62,0
63360,note_on,30,0,1,,,,,,,,,0,,,58,0
63360,note_on,0,0,1,,,,,,,,,0,,,70,0
63360,note_on,0,0,1,,,,,,,,,0,,,67,50
63360,note_on,60,0,3,,,,,,,,,0,,,31,0
63390,note_on,30,0,1,,,,,,,,,0,,,63,40
63420,note_on,0,0,1,,,,,,,,,0,,,62,40
63420,note_on,60,0,3,,,,,,,,,0,,,39,50
63420,note_on,30,0,1,,,,,,,,,0,,,63,0
63450,note_on,30,0,1,,,,,,,,,0,,,62,0
63450,note_on,0,0,1,,,,,,,,,0,,,60,40
63480,note_on,30,0,1,,,,,,,,,0,,,60,0
63480,note_on,0,0,1,,,,,,,,,0,,,67,0
63480,note_on,0,0,1,,,,,,,,,0,,,75,50
63480,note_on,60,0,3,,,,,,,,,0,,,39,0
63510,note_on,30,0,1,,,,,,,,,0,,,63,40
63540,note_on,0,0,1,,,,,,,,,0,,,67,40
63540,note_on,30,0,1,,,,,,,,,0,,,63,0
63540,note_on,60,0,3,,,,,,,,,0,,,36,50
63570,note_on,0,0,1,,,,,,,,,0,,,72,40
63570,note_on,30,0,1,,,,,,,,,0,,,67,0
63600,note_on,0,0,1,,,,,,,,,0,,,74,50
63600,note_on,0,0,1,,,,,,,,,0,,,75,0
63600,note_on,30,0,1,,,,,,,,,0,,,72,0
63600,note_on,60,0,3,,,,,,,,,0,,,36,0
63630,note_on,30,0,1,,,,,,,,,0,,,62,40
63660,note_on,60,0,3,,,,,,,,,0,,,41,50
63660,note_on,30,0,1,,,,,,,,,0,,,62,0
63660,note_on,0,0,1,,,,,,,,,0,,,65,40
63690,note_on,30,0,1,,,,,,,,,0,,,65,0
63690,note_on,0,0,1,,,,,,,,,0,,,70,40
63720,note_on,0,0,1,,,,,,,,,0,,,74,0
63720,note_on,0,0,1,,,,,,,,,0,,,72,50
63720,note_on,60,0,3,,,,,,,,,0,,,41,0
63720,note_on,30,0,1,,,,,,,,,0,,,70,0
63750,note_on,30,0,1,,,,,,,,,0,,,63,40
63780,note_on,30,0,1,,,,,,,,,0,,,63,0
63780,note_on,0,0,1,,,,,,,,,0,,,65,40
63780,note_on,60,0,3,,,,,,,,,0,,,29,50
63810,note_on,0,0,1,,,,,,,,,0,,,69,40
63810,note_on,30,0,1,,,,,,,,,0,,,65,0
63840,note_on,30,0,1,,,,,,,,,0,,,69,0
63840,note_on,60,0,3,,,,,,,,,0,,,29,0
63840,note_on,0,0,1,,,,,,,,,0,,,72,0
63840,note_on,0,0,1,,,,,,,,,0,,,70,50
63870,note_on,30,0,1,,,,,,,,,0,,,58,40
63900,note_on,30,0,1,,,,,,,,,0,,,58,0
63900,note_on,0,0,1,,,,,,,,,0,,,62,40
63900,note_on,60,0,3,,,,,,,,,0,,,46,40
63930,note_on,30,0,1,,,,,,,,,0,,,62,0
63930,note_on,0,0,1,,,,,,,,,0,,,65,40
63960,note_on,30,0,1,,,,,,,,,0,,,65,0
63960,note_on,0,0,1,,,,,,,,,0,,,66,40
63960,note_on,0,0,3,,,,,,,,,0,,,48,40
63960,note_on,60,0,3,,,,,,,,,0,,,46,0
63990,note_on,30,0,1,,,,,,,,,0,,,66,0
63990,note_on,0,0,1,,,,,,,,,0,,,63,40
64020,note_on,60,0,3,,,,,,,,,0,,,48,0
64020,note_on,0,0,3,,,,,,,,,0,,,51,40
64020,note_on,30,0,1,,,,,,,,,0,,,63,0
64020,note_on,0,0,1,,,,,,,,,0,,,60,40
64050,note_on,30,0,1,,,,,,,,,0,,,60,0
64050,note_on,0,0,1,,,,,,,,,0,,,66,40
64080,note_on,0,0,3,,,,,,,,,0,,,50,40
64080,note_on,60,0,3,,,,,,,,,0,,,51,0
64080,note_on,30,0,1,,,,,,,,,0,,,66,0
64080,note_on,0,0,1,,,,,,,,,0,,,65,40
64110,note_on,0,0,1,,,,,,,,,0,,,62,40
64110,note_on,30,0,1,,,,,,,,,0,,,65,0
64140,note_on,0,0,3,,,,,,,,,0,,,58,40
64140,note_on,30,0,1,,,,,,,,,0,,,62,0
64140,note_on,0,0,1,,,,,,,,,0,,,65,40
64140,note_on,60,0,3,,,,,,,,,0,,,50,0
64170,note_on,0,0,1,,,,,,,,,0,,,69,40
64170,note_on,30,0,1,,,,,,,,,0,,,65,0
64200,note_on,0,0,3,,,,,,,,,0,,,53,40
64200,note_on,60,0,3,,,,,,,,,0,,,58,0
64200,note_on,0,0,1,,,,,,,,,0,,,70,40
64200,note_on,0,0,1,,,,,,,,,0,,,70,0
64200,note_on,30,0,1,,,,,,,,,0,,,69,0
64230,note_on,30,0,1,,,,,,,,,0,,,70,0
64230,note_on,0,0,1,,,,,,,,,0,,,65,40
64260,note_on,60,0,3,,,,,,,,,0,,,53,0
64260,note_on,0,0,3,,,,,,,,,0,,,50,40
64260,note_on,0,0,1,,,,,,,,,0,,,70,40
64260,note_on,30,0,1,,,,,,,,,0,,,65,0
64290,note_on,30,0,1,,,,,,,,,0,,,70,0
64290,note_on,0,0,1,,,,,,,,,0,,,74,40
64320,note_on,0,0,3,,,,,,,,,0,,,46,40
64320,note_on,60,0,3,,,,,,,,,0,,,50,0
64320,note_on,0,0,1,,,,,,,,,0,,,65,50
64320,note_on,0,0,1,,,,,,,,,0,,,77,50
64320,note_on,30,0,1,,,,,,,,,0,,,74,0
64350,note_on,30,0,3,,,,,,,,,0,,,46,0
64350,note_on,0,0,3,,,,,,,,,0,,,50,41
64380,note_on,30,0,3,,,,,,,,,0,,,50,0
64380,note_on,0,0,3,,,,,,,,,0,,,53,42
64410,note_on,30,0,3,,,,,,,,,0,,,53,0
64410,note_on,0,0,3,,,,,,,,,0,,,50,43
64440,note_on,0,0,1,,,,,,,,,0,,,65,54
64440,note_on,0,0,3,,,,,,,,,0,,,46,44
64440,note_on,30,0,3,,,,,,,,,0,,,50,0
64440,note_on,0,0,1,,,,,,,,,0,,,77,54
64440,note_on,120,0,1,,,,,,,,,0,,,65,0
64440,note_on,0,0,1,,,,,,,,,0,,,77,0
64470,note_on,0,0,3,,,,,,,,,0,,,50,45
64470,note_on,30,0,3,,,,,,,,,0,,,46,0
64500,note_on,0,0,3,,,,,,,,,0,,,53,46
64500,note_on,30,0,3,,,,,,,,,0,,,50,0
64530,note_on,0,0,3,,,,,,,,,0,,,50,47
64530,note_on,30,0,3,,,,,,,,,0,,,53,0
64560,note_on,0,0,3,,,,,,,,,0,,,45,48
64560,note_on,30,0,3,,,,,,,,,0,,,50,0
64560,note_on,120,0,1,,,,,,,,,0,,,65,0
64560,note_on,0,0,1,,,,,,,,,0,,,77,0
64560,note_on,0,0,1,,,,,,,,,0,,,78,58
64560,note_on,0,0,1,,,,,,,,,0,,,66,58
64590,note_on,0,0,3,,,,,,,,,0,,,48,49
64590,note_on,30,0,3,,,,,,,,,0,,,45,0
64620,note_on,30,0,3,,,,,,,,,0,,,48,0
64620,note_on,0,0,3,,,,,,,,,0,,,50,51
64650,note_on,30,0,3,,,,,,,,,0,,,50,0
64650,note_on,0,0,3,,,,,,,,,0,,,48,52
64680,note_on,0,0,1,,,,,,,,,0,,,78,0
64680,note_on,30,0,3,,,,,,,,,0,,,48,0
64680,note_on,0,0,1,,,,,,,,,0,,,67,63
64680,note_on,0,0,1,,,,,,,,,0,,,79,63
64680,note_on,0,0,3,,,,,,,,,0,,,43,53
64680,note_on,120,0,1,,,,,,,,,0,,,66,0
64710,note_on,30,0,3,,,,,,,,,0,,,43,0
64710,note_on,0,0,3,,,,,,,,,0,,,48,54
64740,note_on,0,0,3,,,,,,,,,0,,,50,55
64740,note_on,30,0,3,,,,,,,,,0,,,48,0
64770,note_on,0,0,3,,,,,,,,,0,,,48,56
64770,note_on,30,0,3,,,,,,,,,0,,,50,0
64800,note_on,0,0,3,,,,,,,,,0,,,42,57
64800,note_on,30,0,3,,,,,,,,,0,,,48,0
64800,note_on,0,0,1,,,,,,,,,0,,,81,67
64800,note_on,120,0,1,,,,,,,,,0,,,67,0
64800,note_on,0,0,1,,,,,,,,,0,,,79,0
64800,note_on,0,0,1,,,,,,,,,0,,,69,67
64830,note_on,30,0,3,,,,,,,,,0,,,42,0
64830,note_on,0,0,3,,,,,,,,,0,,,48,58
64860,note_on,30,0,3,,,,,,,,,0,,,48,0
64860,note_on,0,0,3,,,,,,,,,0,,,50,59
64890,note_on,30,0,3,,,,,,,,,0,,,50,0
64890,note_on,0,0,3,,,,,,,,,0,,,48,61
64920,note_on,120,0,1,,,,,,,,,0,,,69,0
64920,note_on,0,0,1,,,,,,,,,0,,,81,0
64920,note_on,0,0,1,,,,,,,,,0,,,84,72
64920,note_on,0,0,1,,,,,,,,,0,,,72,72
64920,note_on,30,0,3,,,,,,,,,0,,,48,0
64920,note_on,0,0,3,,,,,,,,,0,,,42,62
64950,note_on,0,0,3,,,,,,,,,0,,,45,63
64950,note_on,30,0,3,,,,,,,,,0,,,42,0
64980,note_on,30,0,3,,,,,,,,,0,,,45,0
64980,note_on,0,0,3,,,,,,,,,0,,,50,64
65010,note_on,0,0,3,,,,,,,,,0,,,45,65
65010,note_on,30,0,3,,,,,,,,,0,,,50,0
65040,note_on,0,0,3,,,,,,,,,0,,,43,66
65040,note_on,30,0,3,,,,,,,,,0,,,45,0
65040,note_on,120,0,1,,,,,,,,,0,,,72,0
65040,note_on,0,0,1,,,,,,,,,0,,,84,0
65040,note_on,0,0,1,,,,,,,,,0,,,82,76
65040,note_on,0,0,1,,,,,,,,,0,,,70,76
65070,note_on,0,0,3,,,,,,,,,0,,,46,67
65070,note_on,30,0,3,,,,,,,,,0,,,43,0
65100,note_on,30,0,3,,,,,,,,,0,,,46,0
65100,note_on,0,0,3,,,,,,,,,0,,,50,68
65130,note_on,0,0,3,,,,,,,,,0,,,46,69
65130,note_on,30,0,3,,,,,,,,,0,,,50,0
65160,note_on,120,0,1,,,,,,,,,0,,,70,0
65160,note_on,0,0,1,,,,,,,,,0,,,82,0
65160,note_on,0,0,3,,,,,,,,,0,,,48,71
65160,note_on,30,0,3,,,,,,,,,0,,,46,0
65160,note_on,0,0,1,,,,,,,,,0,,,81,81
65160,note_on,0,0,1,,,,,,,,,0,,,69,81
65190,note_on,0,0,3,,,,,,,,,0,,,51,72
65190,note_on,30,0,3,,,,,,,,,0,,,48,0
65220,note_on,30,0,3,,,,,,,,,0,,,51,0
65220,note_on,0,0,3,,,,,,,,,0,,,57,73
65250,note_on,30,0,3,,,,,,,,,0,,,57,0
65250,note_on,0,0,3,,,,,,,,,0,,,51,74
65250,note_on,90,0,1,,,,,,,,,0,,,69,0
65250,note_on,0,0,1,,,,,,,,,0,,,79,84
65250,note_on,0,0,1,,,,,,,,,0,,,67,84
65250,note_on,0,0,1,,,,,,,,,0,,,81,0
65280,note_on,0,0,1,,,,,,,,,0,,,66,85
65280,note_on,0,0,1,,,,,,,,,0,,,78,85
65280,note_on,0,0,1,,,,,,,,,0,,,79,0
65280,note_on,30,0,1,,,,,,,,,0,,,67,0
65280,note_on,0,0,3,,,,,,,,,0,,,50,75
65280,note_on,30,0,3,,,,,,,,,0,,,51,0
65310,note_on,0,0,3,,,,,,,,,0,,,57,76
65310,note_on,30,0,3,,,,,,,,,0,,,50,0
65340,note_on,0,0,3,,,,,,,,,0,,,60,77
65340,note_on,30,0,3,,,,,,,,,0,,,57,0
65370,note_on,0,0,3,,,,,,,,,0,,,57,78
65370,note_on,30,0,3,,,,,,,,,0,,,60,0
65400,note_on,0,0,3,,,,,,,,,0,,,50,79
65400,note_on,30,0,3,,,,,,,,,0,,,57,0
65400,note_on,0,0,1,,,,,,,,,0,,,78,0
65400,note_on,120,0,1,,,,,,,,,0,,,66,0
65400,note_on,0,0,1,,,,,,,,,0,,,78,89
65400,note_on,0,0,1,,,,,,,,,0,,,66,89
65430,note_on,0,0,3,,,,,,,,,0,,,57,81
65430,note_on,30,0,3,,,,,,,,,0,,,50,0
65460,note_on,30,0,3,,,,,,,,,0,,,57,0
65460,note_on,0,0,3,,,,,,,,,0,,,60,82
65490,note_on,0,0,3,,,,,,,,,0,,,57,83
65490,note_on,30,0,3,,,,,,,,,0,,,60,0
65520,note_on,0,0,3,,,,,,,,,0,,,50,84
65520,note_on,30,0,3,,,,,,,,,0,,,57,0
65520,note_on,0,0,1,,,,,,,,,0,,,79,94
65520,note_on,0,0,1,,,,,,,,,0,,,67,94
65520,note_on,0,0,1,,,,,,,,,0,,,78,0
65520,note_on,120,0,1,,,,,,,,,0,,,66,0
65550,note_on,0,0,3,,,,,,,,,0,,,57,85
65550,note_on,30,0,3,,,,,,,,,0,,,50,0
65580,note_on,0,0,3,,,,,,,,,0,,,60,86
65580,note_on,60,0,1,,,,,,,,,0,,,67,0
65580,note_on,0,0,1,,,,,,,,,0,,,79,0
65580,note_on,0,0,1,,,,,,,,,0,,,78,96
65580,note_on,30,0,3,,,,,,,,,0,,,57,0
65580,note_on,0,0,1,,,,,,,,,0,,,66,96
65610,note_on,0,0,3,,,,,,,,,0,,,57,87
65610,note_on,30,0,3,,,,,,,,,0,,,60,0
65640,note_on,0,0,3,,,,,,,,,0,,,50,88
65640,note_on,30,0,3,,,,,,,,,0,,,57,0
65640,note_on,0,0,1,,,,,,,,,0,,,78,0
65640,note_on,0,0,1,,,,,,,,,0,,,76,98
65640,note_on,60,0,1,,,,,,,,,0,,,66,0
65640,note_on,0,0,1,,,,,,,,,0,,,64,98
65670,note_on,30,0,3,,,,,,,,,0,,,50,0
65670,note_on,0,0,3,,,,,,,,,0,,,57,89
65700,note_on,30,0,3,,,,,,,,,0,,,57,0
65700,note_on,0,0,3,,,,,,,,,0,,,60,91
65700,note_on,0,0,1,,,,,,,,,0,,,66,101
65700,note_on,0,0,1,,,,,,,,,0,,,78,101
65700,note_on,0,0,1,,,,,,,,,0,,,76,0
65700,note_on,60,0,1,,,,,,,,,0,,,64,0
65730,note_on,30,0,3,,,,,,,,,0,,,60,0
65730,note_on,0,0,3,,,,,,,,,0,,,57,92
65760,note_on,0,0,1,,,,,,,,,0,,,67,103
65760,note_on,0,0,1,,,,,,,,,0,,,79,103
65760,note_on,0,0,1,,,,,,,,,0,,,78,0
65760,note_on,60,0,1,,,,,,,,,0,,,66,0
65760,note_on,30,0,3,,,,,,,,,0,,,57,0
65760,note_on,0,0,3,,,,,,,,,0,,,55,93
65790,note_on,0,0,3,,,,,,,,,0,,,58,94
65790,note_on,30,0,3,,,,,,,,,0,,,55,0
65820,note_on,30,0,3,,,,,,,,,0,,,58,0
65820,note_on,0,0,3,,,,,,,,,0,,,55,95
65850,note_on,30,0,3,,,,,,,,,0,,,55,0
65850,note_on,0,0,3,,,,,,,,,0,,,50,96
65880,note_on,30,0,3,,,,,,,,,0,,,50,0
65880,note_on,0,0,3,,,,,,,,,0,,,46,97
65910,note_on,30,0,3,,,,,,,,,0,,,46,0
65910,note_on,0,0,3,,,,,,,,,0,,,55,98
65940,note_on,30,0,3,,,,,,,,,0,,,55,0
65940,note_on,0,0,3,,,,,,,,,0,,,50,99
65970,note_on,30,0,3,,,,,,,,,0,,,50,0
65970,note_on,0,0,3,,,,,,,,,0,,,46,100
66000,note_on,0,0,1,,,,,,,,,0,,,79,0
66000,note_on,30,0,3,,,,,,,,,0,,,46,0
66000,note_on,0,0,3,,,,,,,,,0,,,43,100
66000,note_on,240,0,1,,,,,,,,,0,,,67,0
66030,note_on,30,0,1,,,,,,,,,0,,,67,100
66030,note_on,30,0,3,,,,,,,,,0,,,43,0
66060,note_on,0,0,1,,,,,,,,,0,,,70,100
66060,note_on,30,0,1,,,,,,,,,0,,,67,0
66090,note_on,30,0,1,,,,,,,,,0,,,70,0
66090,note_on,0,0,1,,,,,,,,,0,,,74,100
66120,note_on,30,0,1,,,,,,,,,0,,,74,0
66120,note_on,0,0,1,,,,,,,,,0,,,79,100
66120,note_on,0,0,3,,,,,,,,,0,,,55,110
66120,control_change,24840,0,4,,,,,,,,,0,64,127,,
66120,note_on,90,0,3,,,,,,,,,0,,,43,110
66150,note_on,30,0,1,,,,,,,,,0,,,79,0
66150,note_on,0,0,1,,,,,,,,,0,,,70,100
66180,note_on,30,0,1,,,,,,,,,0,,,70,0
66180,note_on,0,0,1,,,,,,,,,0,,,74,100
66210,note_on,30,0,1,,,,,,,,,0,,,74,0
66210,note_on,0,0,1,,,,,,,,,0,,,79,100
66210,note_on,0,0,3,,,,,,,,,0,,,43,0
66210,note_on,0,0,3,,,,,,,,,0,,,46,110
66210,note_on,0,0,3,,,,,,,,,0,,,58,110
66210,note_on,90,0,3,,,,,,,,,0,,,55,0
66240,control_change,120,0,4,,,,,,,,,0,64,0,,
66240,note_on,30,0,1,,,,,,,,,0,,,79,0
66240,note_on,0,0,3,,,,,,,,,0,,,50,110
66240,note_on,0,0,3,,,,,,,,,0,,,62,110
66240,note_on,0,0,3,,,,,,,,,0,,,46,0
66240,note_on,30,0,3,,,,,,,,,0,,,58,0
66300,note_on,0,0,1,,,,,,,,,0,,,69,100
66300,note_on,0,0,1,,,,,,,,,0,,,74,100
66300,note_on,60,0,1,,,,,,,,,0,,,78,100
66330,note_on,30,0,1,,,,,,,,,0,,,69,0
66330,note_on,0,0,1,,,,,,,,,0,,,78,0
66330,note_on,0,0,1,,,,,,,,,0,,,74,0
66360,note_on,120,0,3,,,,,,,,,0,,,50,0
66360,note_on,0,0,3,,,,,,,,,0,,,62,0
66360,note_on,0,0,3,,,,,,,,,0,,,62,110
66360,note_on,0,0,3,,,,,,,,,0,,,50,110
66420,note_on,0,0,1,,,,,,,,,0,,,72,100
66420,note_on,0,0,1,,,,,,,,,0,,,74,100
66420,note_on,90,0,1,,,,,,,,,0,,,81,100
66450,note_on,30,0,1,,,,,,,,,0,,,72,0
66450,note_on,0,0,1,,,,,,,,,0,,,81,0
66450,note_on,0,0,1,,,,,,,,,0,,,74,0
66480,note_on,0,0,3,,,,,,,,,0,,,62,0
66480,note_on,0,0,3,,,,,,,,,0,,,62,110
66480,note_on,0,0,3,,,,,,,,,0,,,50,110
66480,note_on,120,0,3,,,,,,,,,0,,,50,0
66540,note_on,0,0,1,,,,,,,,,0,,,74,100
66540,note_on,90,0,1,,,,,,,,,0,,,79,100
66540,note_on,0,0,1,,,,,,,,,0,,,70,100
66570,note_on,0,0,1,,,,,,,,,0,,,79,0
66570,note_on,30,0,1,,,,,,,,,0,,,70,0
66570,note_on,0,0,1,,,,,,,,,0,,,74,0
66600,note_on,0,0,3,,,,,,,,,0,,,62,110
66600,note_on,0,0,3,,,,,,,,,0,,,62,0
66600,note_on,0,0,3,,,,,,,,,0,,,50,110
66600,note_on,120,0,3,,,,,,,,,0,,,50,0
66660,note_on,90,0,1,,,,,,,,,0,,,78,100
66660,note_on,0,0,1,,,,,,,,,0,,,74,100
66660,note_on,0,0,1,,,,,,,,,0,,,69,100
66690,note_on,0,0,1,,,,,,,,,0,,,78,0
66690,note_on,0,0,1,,,,,,,,,0,,,74,0
66690,note_on,30,0,1,,,,,,,,,0,,,69,0
66720,note_on,0,0,3,,,,,,,,,0,,,62,0
66720,note_on,0,0,3,,,,,,,,,0,,,51,110
66720,note_on,0,0,3,,,,,,,,,0,,,63,110
66720,note_on,120,0,3,,,,,,,,,0,,,50,0
66780,note_on,90,0,1,,,,,,,,,0,,,79,100
66780,note_on,0,0,1,,,,,,,,,0,,,67,100
66780,note_on,0,0,1,,,,,,,,,0,,,74,100
66810,note_on,30,0,1,,,,,,,,,0,,,67,0
66810,note_on,0,0,1,,,,,,,,,0,,,74,0
66810,note_on,0,0,1,,,,,,,,,0,,,79,0
66840,note_on,30,0,1,,,,,,,,,0,,,67,100
66840,note_on,0,0,1,,,,,,,,,0,,,72,100
66840,note_on,0,0,1,,,,,,,,,0,,,79,100
66870,note_on,30,0,1,,,,,,,,,0,,,79,0
66870,note_on,0,0,1,,,,,,,,,0,,,72,0
66870,note_on,0,0,1,,,,,,,,,0,,,67,0
66900,note_on,30,0,1,,,,,,,,,0,,,85,100
66900,note_on,0,0,1,,,,,,,,,0,,,79,100
66900,note_on,0,0,1,,,,,,,,,0,,,73,100
66930,note_on,30,0,1,,,,,,,,,0,,,73,0
66930,note_on,0,0,1,,,,,,,,,0,,,79,0
66930,note_on,0,0,1,,,,,,,,,0,,,85,0
66960,note_on,0,0,3,,,,,,,,,0,,,50,110
66960,note_on,240,0,3,,,,,,,,,0,,,51,0
66960,note_on,0,0,3,,,,,,,,,0,,,63,0
66960,note_on,0,0,3,,,,,,,,,0,,,62,110
67020,note_on,90,0,1,,,,,,,,,0,,,86,100
67020,note_on,0,0,1,,,,,,,,,0,,,79,100
67020,note_on,0,0,1,,,,,,,,,0,,,74,100
67020,note_on,0,0,1,,,,,,,,,0,,,81,100
67050,note_on,30,0,1,,,,,,,,,0,,,74,0
67050,note_on,0,0,1,,,,,,,,,0,,,86,0
67050,note_on,0,0,1,,,,,,,,,0,,,81,0
67050,note_on,0,0,1,,,,,,,,,0,,,79,0
67080,note_on,0,0,1,,,,,,,,,0,,,81,100
67080,note_on,0,0,1,,,,,,,,,0,,,86,100
67080,note_on,30,0,1,,,,,,,,,0,,,74,100
67080,note_on,0,0,1,,,,,,,,,0,,,78,100
67110,note_on,30,0,1,,,,,,,,,0,,,86,0
67110,note_on,0,0,1,,,,,,,,,0,,,74,0
67110,note_on,0,0,1,,,,,,,,,0,,,78,0
67110,note_on,0,0,1,,,,,,,,,0,,,81,0
67140,note_on,30,0,1,,,,,,,,,0,,,74,100
67140,note_on,0,0,1,,,,,,,,,0,,,69,100
67140,note_on,0,0,1,,,,,,,,,0,,,66,100
67170,note_on,30,0,1,,,,,,,,,0,,,66,0
67170,note_on,0,0,1,,,,,,,,,0,,,69,0
67170,note_on,0,0,1,,,,,,,,,0,,,74,0
67200,note_on,0,0,3,,,,,,,,,0,,,48,110
67200,note_on,0,0,3,,,,,,,,,0,,,60,110
67200,note_on,240,0,3,,,,,,,,,0,,,62,0
67200,note_on,0,0,3,,,,,,,,,0,,,50,0
67260,note_on,90,0,1,,,,,,,,,0,,,75,100
67260,note_on,0,0,1,,,,,,,,,0,,,63,100
67260,note_on,0,0,1,,,,,,,,,0,,,70,100
67290,note_on,30,0,1,,,,,,,,,0,,,63,0
67290,note_on,0,0,1,,,,,,,,,0,,,70,0
67290,note_on,0,0,1,,,,,,,,,0,,,75,0
67320,note_on,30,0,1,,,,,,,,,0,,,63,100
67320,note_on,0,0,1,,,,,,,,,0,,,69,100
67320,note_on,0,0,1,,,,,,,,,0,,,75,100
67350,note_on,30,0,1,,,,,,,,,0,,,75,0
67350,note_on,0,0,1,,,,,,,,,0,,,69,0
67350,note_on,0,0,1,,,,,,,,,0,,,63,0
67380,note_on,0,0,1,,,,,,,,,0,,,69,100
67380,note_on,30,0,1,,,,,,,,,0,,,81,100
67380,note_on,0,0,1,,,,,,,,,0,,,75,100
67410,note_on,0,0,1,,,,,,,,,0,,,81,0
67410,note_on,30,0,1,,,,,,,,,0,,,69,0
67410,note_on,0,0,1,,,,,,,,,0,,,75,0
67440,note_on,0,0,3,,,,,,,,,0,,,48,0
67440,note_on,240,0,3,,,,,,,,,0,,,60,0
67440,note_on,0,0,3,,,,,,,,,0,,,46,110
67440,note_on,0,0,3,,,,,,,,,0,,,58,110
67500,note_on,0,0,1,,,,,,,,,0,,,70,100
67500,note_on,0,0,1,,,,,,,,,0,,,75,100
67500,note_on,0,0,1,,,,,,,,,0,,,77,100
67500,note_on,90,0,1,,,,,,,,,0,,,82,100
67530,note_on,0,0,1,,,,,,,,,0,,,77,0
67530,note_on,0,0,1,,,,,,,,,0,,,82,0
67530,note_on,30,0,1,,,,,,,,,0,,,70,0
67530,note_on,0,0,1,,,,,,,,,0,,,75,0
67560,note_on,30,0,1,,,,,,,,,0,,,70,100
67560,note_on,0,0,1,,,,,,,,,0,,,74,100
67560,note_on,0,0,1,,,,,,,,,0,,,77,100
67560,note_on,0,0,1,,,,,,,,,0,,,82,100
67590,note_on,30,0,1,,,,,,,,,0,,,82,0
67590,note_on,0,0,1,,,,,,,,,0,,,70,0
67590,note_on,0,0,1,,,,,,,,,0,,,74,0
67590,note_on,0,0,1,,,,,,,,,0,,,77,0
67620,note_on,0,0,1,,,,,,,,,0,,,70,100
67620,note_on,0,0,1,,,,,,,,,0,,,65,100
67620,note_on,30,0,1,,,,,,,,,0,,,62,100
67650,note_on,0,0,1,,,,,,,,,0,,,62,0
67650,note_on,0,0,1,,,,,,,,,0,,,65,0
67650,note_on,30,0,1,,,,,,,,,0,,,70,0
67680,note_on,0,0,3,,,,,,,,,0,,,45,110
67680,note_on,0,0,3,,,,,,,,,0,,,57,110
67680,note_on,0,0,3,,,,,,,,,0,,,46,0
67680,note_on,240,0,3,,,,,,,,,0,,,58,0
67740,note_on,0,0,1,,,,,,,,,0,,,63,100
67740,note_on,0,0,1,,,,,,,,,0,,,67,100
67740,note_on,90,0,1,,,,,,,,,0,,,72,100
67770,note_on,30,0,1,,,,,,,,,0,,,63,0
67770,note_on,0,0,1,,,,,,,,,0,,,72,0
67770,note_on,0,0,1,,,,,,,,,0,,,67,0
67800,note_on,0,0,3,,,,,,,,,0,,,60,110
67800,note_on,120,0,3,,,,,,,,,0,,,57,0
67800,note_on,0,0,3,,,,,,,,,0,,,48,110
67800,note_on,0,0,3,,,,,,,,,0,,,45,0
67860,note_on,90,0,1,,,,,,,,,0,,,75,100
67860,note_on,0,0,1,,,,,,,,,0,,,69,100
67860,note_on,0,0,1,,,,,,,,,0,,,66,100
67890,note_on,0,0,1,,,,,,,,,0,,,75,0
67890,note_on,0,0,1,,,,,,,,,0,,,69,0
67890,note_on,30,0,1,,,,,,,,,0,,,66,0
67920,note_on,0,0,3,,,,,,,,,0,,,48,0
67920,note_on,0,0,3,,,,,,,,,0,,,46,110
67920,note_on,0,0,3,,,,,,,,,0,,,58,110
67920,note_on,120,0,3,,,,,,,,,0,,,60,0
67980,note_on,0,0,1,,,,,,,,,0,,,67,100
67980,note_on,90,0,1,,,,,,,,,0,,,74,100
67980,note_on,0,0,1,,,,,,,,,0,,,70,100
68010,note_on,30,0,1,,,,,,,,,0,,,67,0
68010,note_on,0,0,1,,,,,,,,,0,,,70,0
68010,note_on,0,0,1,,,,,,,,,0,,,74,0
68040,note_on,120,0,3,,,,,,,,,0,,,58,0
68040,note_on,0,0,3,,,,,,,,,0,,,46,0
68040,note_on,0,0,3,,,,,,,,,0,,,45,110
68040,note_on,0,0,3,,,,,,,,,0,,,57,110
68100,note_on,0,0,1,,,,,,,,,0,,,74,100
68100,note_on,90,0,1,,,,,,,,,0,,,78,100
68100,note_on,0,0,1,,,,,,,,,0,,,72,100
68130,note_on,0,0,1,,,,,,,,,0,,,78,0
68130,note_on,0,0,1,,,,,,,,,0,,,74,0
68130,note_on,30,0,1,,,,,,,,,0,,,72,0
68160,note_on,0,0,3,,,,,,,,,0,,,55,110
68160,note_on,0,0,3,,,,,,,,,0,,,45,0
68160,note_on,120,0,3,,,,,,,,,0,,,57,0
68160,note_on,0,0,3,,,,,,,,,0,,,43,110
68220,note_on,90,0,1,,,,,,,,,0,,,79,100
68220,note_on,0,0,1,,,,,,,,,0,,,74,100
68220,note_on,0,0,1,,,,,,,,,0,,,70,100
68250,note_on,0,0,1,,,,,,,,,0,,,79,0
68250,note_on,0,0,1,,,,,,,,,0,,,74,0
68250,note_on,30,0,1,,,,,,,,,0,,,70,0
68280,note_on,30,0,1,,,,,,,,,0,,,62,100
68280,note_on,0,0,1,,,,,,,,,0,,,70,100
68280,note_on,0,0,1,,,,,,,,,0,,,74,100
68310,note_on,30,0,1,,,,,,,,,0,,,74,0
68310,note_on,0,0,1,,,,,,,,,0,,,70,0
68310,note_on,0,0,1,,,,,,,,,0,,,62,0
68340,note_on,30,0,1,,,,,,,,,0,,,72,100
68340,note_on,0,0,1,,,,,,,,,0,,,69,100
68340,note_on,0,0,1,,,,,,,,,0,,,62,100
68370,note_on,0,0,1,,,,,,,,,0,,,69,0
68370,note_on,0,0,1,,,,,,,,,0,,,72,0
68370,note_on,30,0,1,,,,,,,,,0,,,62,0
68400,note_on,0,0,1,,,,,,,,,0,,,70,100
68400,note_on,0,0,1,,,,,,,,,0,,,67,100
68400,note_on,30,0,1,,,,,,,,,0,,,62,100
68430,note_on,0,0,1,,,,,,,,,0,,,67,0
68430,note_on,0,0,1,,,,,,,,,0,,,62,0
68430,note_on,30,0,1,,,,,,,,,0,,,70,0
68460,note_on,30,0,1,,,,,,,,,0,,,74,100
68460,note_on,0,0,1,,,,,,,,,0,,,70,100
68460,note_on,0,0,1,,,,,,,,,0,,,67,100
68490,note_on,0,0,1,,,,,,,,,0,,,74,0
68490,note_on,0,0,1,,,,,,,,,0,,,70,0
68490,note_on,30,0,1,,,,,,,,,0,,,67,0
68520,note_on,0,0,3,,,,,,,,,0,,,43,0
68520,control_change,2280,0,4,,,,,,,,,0,64,127,,
68520,note_on,0,0,3,,,,,,,,,0,,,55,110
68520,note_on,0,0,3,,,,,,,,,0,,,43,110
68520,note_on,360,0,3,,,,,,,,,0,,,55,0
68520,note_on,30,0,1,,,,,,,,,0,,,79,100
68520,note_on,0,0,1,,,,,,,,,0,,,74,100
68520,note_on,0,0,1,,,,,,,,,0,,,70,100
68550,note_on,0,0,1,,,,,,,,,0,,,79,0
68550,note_on,0,0,1,,,,,,,,,0,,,74,0
68550,note_on,30,0,1,,,,,,,,,0,,,70,0
68580,note_on,30,0,1,,,,,,,,,0,,,67,100
68580,note_on,0,0,1,,,,,,,,,0,,,70,100
68580,note_on,0,0,1,,,,,,,,,0,,,74,100
68610,note_on,0,0,3,,,,,,,,,0,,,43,0
68610,note_on,90,0,3,,,,,,,,,0,,,55,0
68610,note_on,30,0,1,,,,,,,,,0,,,74,0
68610,note_on,0,0,1,,,,,,,,,0,,,70,0
68610,note_on,0,0,1,,,,,,,,,0,,,67,0
68610,note_on,0,0,3,,,,,,,,,0,,,58,110
68610,note_on,0,0,3,,,,,,,,,0,,,46,110
68640,control_change,120,0,4,,,,,,,,,0,64,0,,
68640,note_on,30,0,3,,,,,,,,,0,,,58,0
68640,note_on,0,0,3,,,,,,,,,0,,,46,0
68640,note_on,0,0,3,,,,,,,,,0,,,50,110
68640,note_on,0,0,3,,,,,,,,,0,,,62,110
68700,note_on,0,0,1,,,,,,,,,0,,,66,100
68700,note_on,0,0,1,,,,,,,,,0,,,69,100
68700,note_on,90,0,1,,,,,,,,,0,,,74,100
68730,note_on,0,0,1,,,,,,,,,0,,,74,0
68730,note_on,0,0,1,,,,,,,,,0,,,69,0
68730,note_on,30,0,1,,,,,,,,,0,,,66,0
68760,note_on,0,0,3,,,,,,,,,0,,,50,0
68760,note_on,0,0,3,,,,,,,,,0,,,62,110
68760,note_on,0,0,3,,,,,,,,,0,,,50,110
68760,note_on,120,0,3,,,,,,,,,0,,,62,0
68820,note_on,90,0,1,,,,,,,,,0,,,81,100
68820,note_on,0,0,1,,,,,,,,,0,,,72,100
68820,note_on,0,0,1,,,,,,,,,0,,,74,100
68850,note_on,30,0,1,,,,,,,,,0,,,72,0
68850,note_on,0,0,1,,,,,,,,,0,,,74,0
68850,note_on,0,0,1,,,,,,,,,0,,,81,0
68880,note_on,0,0,3,,,,,,,,,0,,,62,110
68880,note_on,0,0,3,,,,,,,,,0,,,50,110
68880,note_on,0,0,3,,,,,,,,,0,,,50,0
68880,note_on,120,0,3,,,,,,,,,0,,,62,0
68940,note_on,90,0,1,,,,,,,,,0,,,79,100
68940,note_on,0,0,1,,,,,,,,,0,,,74,100
68940,note_on,0,0,1,,,,,,,,,0,,,70,100
68970,note_on,30,0,1,,,,,,,,,0,,,70,0
68970,note_on,0,0,1,,,,,,,,,0,,,74,0
68970,note_on,0,0,1,,,,,,,,,0,,,79,0
69000,note_on,0,0,3,,,,,,,,,0,,,50,0
69000,note_on,120,0,3,,,,,,,,,0,,,62,0
69000,note_on,0,0,3,,,,,,,,,0,,,50,110
69000,note_on,0,0,3,,,,,,,,,0,,,62,110
69060,note_on,0,0,1,,,,,,,,,0,,,69,100
69060,note_on,90,0,1,,,,,,,,,0,,,78,100
69060,note_on,0,0,1,,,,,,,,,0,,,74,100
69090,note_on,0,0,1,,,,,,,,,0,,,74,0
69090,note_on,30,0,1,,,,,,,,,0,,,69,0
69090,note_on,0,0,1,,,,,,,,,0,,,78,0
69120,note_on,120,0,3,,,,,,,,,0,,,62,0
69120,note_on,0,0,3,,,,,,,,,0,,,50,0
69120,note_on,0,0,3,,,,,,,,,0,,,51,110
69120,note_on,0,0,3,,,,,,,,,0,,,63,110
69180,note_on,90,0,1,,,,,,,,,0,,,79,100
69180,note_on,0,0,1,,,,,,,,,0,,,74,100
69180,note_on,0,0,1,,,,,,,,,0,,,67,100
69210,note_on,0,0,1,,,,,,,,,0,,,74,0
69210,note_on,30,0,1,,,,,,,,,0,,,67,0
69210,note_on,0,0,1,,,,,,,,,0,,,79,0
69240,note_on,30,0,1,,,,,,,,,0,,,72,100
69240,note_on,0,0,1,,,,,,,,,0,,,79,100
69240,note_on,0,0,1,,,,,,,,,0,,,67,100
69270,note_on,0,0,1,,,,,,,,,0,,,72,0
69270,note_on,0,0,1,,,,,,,,,0,,,79,0
69270,note_on,30,0,1,,,,,,,,,0,,,67,0
69300,note_on,30,0,1,,,,,,,,,0,,,85,100
69300,note_on,0,0,1,,,,,,,,,0,,,73,100
69300,note_on,0,0,1,,,,,,,,,0,,,79,100
69330,note_on,0,0,1,,,,,,,,,0,,,79,0
69330,note_on,0,0,1,,,,,,,,,0,,,85,0
69330,note_on,30,0,1,,,,,,,,,0,,,73,0
69360,note_on,240,0,3,,,,,,,,,0,,,63,0
69360,note_on,0,0,3,,,,,,,,,0,,,50,110
69360,note_on,0,0,3,,,,,,,,,0,,,51,0
69360,note_on,0,0,3,,,,,,,,,0,,,62,110
69420,note_on,0,0,1,,,,,,,,,0,,,74,100
69420,note_on,0,0,1,,,,,,,,,0,,,79,100
69420,note_on,0,0,1,,,,,,,,,0,,,81,100
69420,note_on,90,0,1,,,,,,,,,0,,,86,100
69450,note_on,30,0,1,,,,,,,,,0,,,74,0
69450,note_on,0,0,1,,,,,,,,,0,,,86,0
69450,note_on,0,0,1,,,,,,,,,0,,,81,0
69450,note_on,0,0,1,,,,,,,,,0,,,79,0
69480,note_on,0,0,1,,,,,,,,,0,,,74,100
69480,note_on,0,0,1,,,,,,,,,0,,,77,100
69480,note_on,30,0,1,,,,,,,,,0,,,86,100
69480,note_on,0,0,1,,,,,,,,,0,,,81,100
69510,note_on,30,0,1,,,,,,,,,0,,,74,0
69510,note_on,0,0,1,,,,,,,,,0,,,81,0
69510,note_on,0,0,1,,,,,,,,,0,,,77,0
69510,note_on,0,0,1,,,,,,,,,0,,,86,0
69540,note_on,30,0,1,,,,,,,,,0,,,65,100
69540,note_on,0,0,1,,,,,,,,,0,,,69,100
69540,note_on,0,0,1,,,,,,,,,0,,,74,100
69570,note_on,30,0,1,,,,,,,,,0,,,74,0
69570,note_on,0,0,1,,,,,,,,,0,,,69,0
69570,note_on,0,0,1,,,,,,,,,0,,,65,0
69600,note_on,0,0,3,,,,,,,,,0,,,48,110
69600,note_on,240,0,3,,,,,,,,,0,,,62,0
69600,note_on,0,0,3,,,,,,,,,0,,,50,0
69600,note_on,0,0,3,,,,,,,,,0,,,60,110
69660,note_on,0,0,1,,,,,,,,,0,,,70,100
69660,note_on,90,0,1,,,,,,,,,0,,,75,100
69660,note_on,0,0,1,,,,,,,,,0,,,63,100
69690,note_on,0,0,1,,,,,,,,,0,,,75,0
69690,note_on,30,0,1,,,,,,,,,0,,,63,0
69690,note_on,0,0,1,,,,,,,,,0,,,70,0
69720,note_on,30,0,1,,,,,,,,,0,,,63,100
69720,note_on,0,0,1,,,,,,,,,0,,,75,100
69720,note_on,0,0,1,,,,,,,,,0,,,69,100
69750,note_on,30,0,1,,,,,,,,,0,,,75,0
69750,note_on,0,0,1,,,,,,,,,0,,,69,0
69750,note_on,0,0,1,,,,,,,,,0,,,63,0
69780,note_on,0,0,1,,,,,,,,,0,,,69,100
69780,note_on,30,0,1,,,,,,,,,0,,,81,100
69780,note_on,0,0,1,,,,,,,,,0,,,75,100
69810,note_on,30,0,1,,,,,,,,,0,,,69,0
69810,note_on,0,0,1,,,,,,,,,0,,,75,0
69810,note_on,0,0,1,,,,,,,,,0,,,81,0
69840,note_on,240,0,3,,,,,,,,,0,,,60,0
69840,note_on,0,0,3,,,,,,,,,0,,,48,0
69840,note_on,0,0,3,,,,,,,,,0,,,46,110
69840,note_on,0,0,3,,,,,,,,,0,,,58,110
69900,note_on,90,0,1,,,,,,,,,0,,,82,100
69900,note_on,0,0,1,,,,,,,,,0,,,77,100
69900,note_on,0,0,1,,,,,,,,,0,,,75,100
69900,note_on,0,0,1,,,,,,,,,0,,,70,100
69930,note_on,0,0,1,,,,,,,,,0,,,75,0
69930,note_on,0,0,1,,,,,,,,,0,,,77,0
69930,note_on,0,0,1,,,,,,,,,0,,,82,0
69930,note_on,30,0,1,,,,,,,,,0,,,70,0
69960,note_on,0,0,1,,,,,,,,,0,,,74,100
69960,note_on,0,0,1,,,,,,,,,0,,,77,100
69960,note_on,0,0,1,,,,,,,,,0,,,82,100
69960,note_on,30,0,1,,,,,,,,,0,,,70,100
69990,note_on,30,0,1,,,,,,,,,0,,,82,0
69990,note_on,0,0,1,,,,,,,,,0,,,77,0
69990,note_on,0,0,1,,,,,,,,,0,,,74,0
69990,note_on,0,0,1,,,,,,,,,0,,,70,0
70020,note_on,0,0,3,,,,,,,,,0,,,57,110
70020,note_on,30,0,1,,,,,,,,,0,,,65,100
70020,note_on,180,0,3,,,,,,,,,0,,,58,0
70020,note_on,0,0,3,,,,,,,,,0,,,46,0
70020,note_on,0,0,1,,,,,,,,,0,,,72,100
70020,note_on,0,0,3,,,,,,,,,0,,,45,110
70050,note_on,30,0,1,,,,,,,,,0,,,72,0
70050,note_on,0,0,1,,,,,,,,,0,,,65,0
70080,note_on,60,0,3,,,,,,,,,0,,,57,0
70080,note_on,0,0,3,,,,,,,,,0,,,45,0
70080,note_on,0,0,3,,,,,,,,,0,,,43,110
70080,note_on,0,0,3,,,,,,,,,0,,,55,110
70140,note_on,0,0,1,,,,,,,,,0,,,63,100
70140,note_on,0,0,1,,,,,,,,,0,,,70,100
70140,note_on,90,0,1,,,,,,,,,0,,,75,100
70170,note_on,0,0,1,,,,,,,,,0,,,70,0
70170,note_on,0,0,1,,,,,,,,,0,,,75,0
70170,note_on,30,0,1,,,,,,,,,0,,,63,0
70200,note_on,0,0,3,,,,,,,,,0,,,63,110
70200,note_on,0,0,3,,,,,,,,,0,,,51,110
70200,note_on,0,0,3,,,,,,,,,0,,,43,0
70200,note_on,120,0,3,,,,,,,,,0,,,55,0
70260,note_on,0,0,1,,,,,,,,,0,,,67,100
70260,note_on,90,0,1,,,,,,,,,0,,,72,100
70260,note_on,0,0,1,,,,,,,,,0,,,70,100
70290,note_on,0,0,1,,,,,,,,,0,,,72,0
70290,note_on,0,0,1,,,,,,,,,0,,,70,0
70290,note_on,30,0,1,,,,,,,,,0,,,67,0
70320,note_on,0,0,3,,,,,,,,,0,,,51,0
70320,note_on,0,0,3,,,,,,,,,0,,,50,110
70320,note_on,0,0,3,,,,,,,,,0,,,62,110
70320,note_on,120,0,3,,,,,,,,,0,,,63,0
70380,note_on,0,0,1,,,,,,,,,0,,,65,100
70380,note_on,0,0,1,,,,,,,,,0,,,70,100
70380,note_on,90,0,1,,,,,,,,,0,,,77,100
70410,note_on,0,0,1,,,,,,,,,0,,,77,0
70410,note_on,0,0,1,,,,,,,,,0,,,70,0
70410,note_on,30,0,1,,,,,,,,,0,,,65,0
70440,note_on,120,0,3,,,,,,,,,0,,,62,0
70440,note_on,0,0,3,,,,,,,,,0,,,50,0
70440,note_on,0,0,3,,,,,,,,,0,,,60,110
70440,note_on,0,0,3,,,,,,,,,0,,,48,110
70500,note_on,0,0,1,,,,,,,,,0,,,69,100
70500,note_on,0,0,1,,,,,,,,,0,,,75,100
70500,note_on,0,0,1,,,,,,,,,0,,,77,100
70500,note_on,90,0,1,,,,,,,,,0,,,81,100
70530,note_on,0,0,1,,,,,,,,,0,,,77,0
70530,note_on,0,0,1,,,,,,,,,0,,,75,0
70530,note_on,0,0,1,,,,,,,,,0,,,81,0
70530,note_on,30,0,1,,,,,,,,,0,,,69,0
70560,note_on,0,0,3,,,,,,,,,0,,,48,0
70560,note_on,120,0,3,,,,,,,,,0,,,60,0
70560,note_on,0,0,3,,,,,,,,,0,,,46,110
70560,note_on,0,0,3,,,,,,,,,0,,,58,110
70620,note_on,0,0,1,,,,,,,,,0,,,75,93
70620,note_on,0,0,1,,,,,,,,,0,,,77,93
70620,note_on,90,0,1,,,,,,,,,0,,,82,93
70620,note_on,0,0,1,,,,,,,,,0,,,70,93
70650,note_on,0,0,1,,,,,,,,,0,,,77,0
70650,note_on,30,0,1,,,,,,,,,0,,,70,0
70650,note_on,0,0,1,,,,,,,,,0,,,82,0
70650,note_on,0,0,1,,,,,,,,,0,,,75,0
70680,note_on,30,0,1,,,,,,,,,0,,,82,86
70680,note_on,0,0,1,,,,,,,,,0,,,77,86
70680,note_on,0,0,1,,,,,,,,,0,,,74,86
70680,note_on,0,0,1,,,,,,,,,0,,,70,86
70710,note_on,0,0,1,,,,,,,,,0,,,74,0
70710,note_on,0,0,1,,,,,,,,,0,,,77,0
70710,note_on,0,0,1,,,,,,,,,0,,,82,0
70710,note_on,30,0,1,,,,,,,,,0,,,70,0
70740,note_on,30,0,1,,,,,,,,,0,,,77,78
70740,note_on,0,0,1,,,,,,,,,0,,,74,78
70740,note_on,0,0,1,,,,,,,,,0,,,70,78
70770,note_on,30,0,1,,,,,,,,,0,,,70,0
70770,note_on,0,0,1,,,,,,,,,0,,,74,0
70770,note_on,0,0,1,,,,,,,,,0,,,77,0
70800,note_on,0,0,1,,,,,,,,,0,,,70,71
70800,note_on,0,0,1,,,,,,,,,0,,,65,71
70800,note_on,30,0,1,,,,,,,,,0,,,74,71
70830,note_on,0,0,1,,,,,,,,,0,,,70,0
70830,note_on,0,0,1,,,,,,,,,0,,,74,0
70830,note_on,30,0,1,,,,,,,,,0,,,65,0
70860,note_on,30,0,1,,,,,,,,,0,,,70,63
70860,note_on,0,0,1,,,,,,,,,0,,,65,63
70860,note_on,0,0,1,,,,,,,,,0,,,62,63
70890,note_on,30,0,1,,,,,,,,,0,,,62,0
70890,note_on,0,0,1,,,,,,,,,0,,,65,0
70890,note_on,0,0,1,,,,,,,,,0,,,70,0
70920,note_on,0,0,3,,,,,,,,,0,,,46,0
70920,note_on,30,0,1,,,,,,,,,0,,,58,70
70920,note_on,0,0,1,,,,,,,,,0,,,70,70
70920,note_on,360,0,3,,,,,,,,,0,,,58,0
71010,note_on,0,0,1,,,,,,,,,0,,,74,69
71010,note_on,0,0,1,,,,,,,,,0,,,62,69
71010,note_on,90,0,1,,,,,,,,,0,,,70,0
71010,note_on,0,0,1,,,,,,,,,0,,,58,0
71040,note_on,30,0,1,,,,,,,,,0,,,74,0
71040,note_on,0,0,1,,,,,,,,,0,,,62,0
71040,note_on,0,0,1,,,,,,,,,0,,,65,69
71040,note_on,0,0,1,,,,,,,,,0,,,77,69
71040,note_on,120,0,3,,,,,,,,,0,,,46,59
71070,note_on,0,0,3,,,,,,,,,0,,,50,58
71070,note_on,30,0,3,,,,,,,,,0,,,46,0
71100,note_on,0,0,3,,,,,,,,,0,,,53,58
71100,note_on,30,0,3,,,,,,,,,0,,,50,0
71130,note_on,0,0,3,,,,,,,,,0,,,50,58
71130,note_on,30,0,3,,,,,,,,,0,,,53,0
71160,note_on,0,0,3,,,,,,,,,0,,,46,57
71160,note_on,30,0,3,,,,,,,,,0,,,50,0
71160,note_on,120,0,1,,,,,,,,,0,,,77,0
71160,note_on,0,0,1,,,,,,,,,0,,,65,0
71160,note_on,0,0,1,,,,,,,,,0,,,65,67
71160,note_on,0,0,1,,,,,,,,,0,,,77,67
71190,note_on,0,0,3,,,,,,,,,0,,,50,57
71190,note_on,30,0,3,,,,,,,,,0,,,46,0
71220,note_on,30,0,3,,,,,,,,,0,,,50,0
71220,note_on,0,0,3,,,,,,,,,0,,,53,56
71250,note_on,30,0,3,,,,,,,,,0,,,53,0
71250,note_on,0,0,3,,,,,,,,,0,,,50,56
71280,note_on,0,0,1,,,,,,,,,0,,,65,0
71280,note_on,120,0,1,,,,,,,,,0,,,77,0
71280,note_on,0,0,3,,,,,,,,,0,,,45,56
71280,note_on,30,0,3,,,,,,,,,0,,,50,0
71280,note_on,0,0,1,,,,,,,,,0,,,78,66
71280,note_on,0,0,1,,,,,,,,,0,,,66,66
71310,note_on,30,0,3,,,,,,,,,0,,,45,0
71310,note_on,0,0,3,,,,,,,,,0,,,48,55
71340,note_on,30,0,3,,,,,,,,,0,,,48,0
71340,note_on,0,0,3,,,,,,,,,0,,,50,55
71370,note_on,30,0,3,,,,,,,,,0,,,50,0
71370,note_on,0,0,3,,,,,,,,,0,,,48,54
71400,note_on,120,0,1,,,,,,,,,0,,,78,0
71400,note_on,30,0,3,,,,,,,,,0,,,48,0
71400,note_on,0,0,3,,,,,,,,,0,,,43,54
71400,note_on,0,0,1,,,,,,,,,0,,,67,64
71400,note_on,0,0,1,,,,,,,,,0,,,79,64
71400,note_on,0,0,1,,,,,,,,,0,,,66,0
71430,note_on,30,0,3,,,,,,,,,0,,,43,0
71430,note_on,0,0,3,,,,,,,,,0,,,48,54
71460,note_on,30,0,3,,,,,,,,,0,,,48,0
71460,note_on,0,0,3,,,,,,,,,0,,,50,53
71490,note_on,30,0,3,,,,,,,,,0,,,50,0
71490,note_on,0,0,3,,,,,,,,,0,,,48,53
71520,note_on,120,0,1,,,,,,,,,0,,,79,0
71520,note_on,0,0,1,,,,,,,,,0,,,67,0
71520,note_on,0,0,1,,,,,,,,,0,,,69,62
71520,note_on,0,0,1,,,,,,,,,0,,,81,62
71520,note_on,0,0,3,,,,,,,,,0,,,42,52
71520,note_on,30,0,3,,,,,,,,,0,,,48,0
71550,note_on,0,0,3,,,,,,,,,0,,,48,52
71550,note_on,30,0,3,,,,,,,,,0,,,42,0
71580,note_on,0,0,3,,,,,,,,,0,,,50,52
71580,note_on,30,0,3,,,,,,,,,0,,,48,0
71610,note_on,30,0,3,,,,,,,,,0,,,50,0
71610,note_on,0,0,3,,,,,,,,,0,,,48,51
71640,note_on,0,0,1,,,,,,,,,0,,,69,0
71640,note_on,0,0,1,,,,,,,,,0,,,84,61
71640,note_on,0,0,1,,,,,,,,,0,,,72,61
71640,note_on,120,0,1,,,,,,,,,0,,,81,0
71640,note_on,0,0,3,,,,,,,,,0,,,42,51
71640,note_on,30,0,3,,,,,,,,,0,,,48,0
71670,note_on,30,0,3,,,,,,,,,0,,,42,0
71670,note_on,0,0,3,,,,,,,,,0,,,45,50
71700,note_on,30,0,3,,,,,,,,,0,,,45,0
71700,note_on,0,0,3,,,,,,,,,0,,,50,50
71730,note_on,30,0,3,,,,,,,,,0,,,50,0
71730,note_on,0,0,3,,,,,,,,,0,,,45,50
71760,note_on,30,0,3,,,,,,,,,0,,,45,0
71760,note_on,0,0,3,,,,,,,,,0,,,43,49
71760,note_on,0,0,1,,,,,,,,,0,,,82,59
71760,note_on,120,0,1,,,,,,,,,0,,,84,0
71760,note_on,0,0,1,,,,,,,,,0,,,70,59
71760,note_on,0,0,1,,,,,,,,,0,,,72,0
71790,note_on,30,0,3,,,,,,,,,0,,,43,0
71790,note_on,0,0,3,,,,,,,,,0,,,46,49
71820,note_on,30,0,3,,,,,,,,,0,,,46,0
71820,note_on,0,0,3,,,,,,,,,0,,,50,48
71850,note_on,0,0,3,,,,,,,,,0,,,46,48
71850,note_on,30,0,3,,,,,,,,,0,,,50,0
71880,note_on,0,0,1,,,,,,,,,0,,,69,58
71880,note_on,0,0,3,,,,,,,,,0,,,48,48
71880,note_on,30,0,3,,,,,,,,,0,,,46,0
71880,note_on,0,0,1,,,,,,,,,0,,,81,58
71880,note_on,120,0,1,,,,,,,,,0,,,82,0
71880,note_on,0,0,1,,,,,,,,,0,,,70,0
71910,note_on,0,0,3,,,,,,,,,0,,,51,47
71910,note_on,30,0,3,,,,,,,,,0,,,48,0
71940,note_on,0,0,3,,,,,,,,,0,,,57,47
71940,note_on,30,0,3,,,,,,,,,0,,,51,0
71970,note_on,30,0,3,,,,,,,,,0,,,57,0
71970,note_on,0,0,1,,,,,,,,,0,,,79,56
71970,note_on,90,0,1,,,,,,,,,0,,,81,0
71970,note_on,0,0,1,,,,,,,,,0,,,69,0
71970,note_on,0,0,1,,,,,,,,,0,,,67,56
71970,note_on,0,0,3,,,,,,,,,0,,,51,46
72000,note_on,0,0,3,,,,,,,,,0,,,50,46
72000,note_on,30,0,3,,,,,,,,,0,,,51,0
72000,note_on,30,0,1,,,,,,,,,0,,,79,0
72000,note_on,0,0,1,,,,,,,,,0,,,67,0
72000,note_on,0,0,1,,,,,,,,,0,,,66,56
72000,note_on,0,0,1,,,,,,,,,0,,,78,56
72030,note_on,0,0,3,,,,,,,,,0,,,57,46
72030,note_on,30,0,3,,,,,,,,,0,,,50,0
72060,note_on,0,0,3,,,,,,,,,0,,,60,45
72060,note_on,30,0,3,,,,,,,,,0,,,57,0
72090,note_on,30,0,3,,,,,,,,,0,,,60,0
72090,note_on,0,0,3,,,,,,,,,0,,,57,45
72120,note_on,0,0,1,,,,,,,,,0,,,66,0
72120,note_on,0,0,1,,,,,,,,,0,,,66,54
72120,note_on,120,0,1,,,,,,,,,0,,,78,0
72120,note_on,0,0,1,,,,,,,,,0,,,78,54
72120,note_on,30,0,3,,,,,,,,,0,,,57,0
72120,note_on,0,0,3,,,,,,,,,0,,,50,44
72150,note_on,30,0,3,,,,,,,,,0,,,50,0
72150,note_on,0,0,3,,,,,,,,,0,,,57,44
72180,note_on,30,0,3,,,,,,,,,0,,,57,0
72180,note_on,0,0,3,,,,,,,,,0,,,60,43
72210,note_on,30,0,3,,,,,,,,,0,,,60,0
72210,note_on,0,0,3,,,,,,,,,0,,,57,43
72240,note_on,0,0,1,,,,,,,,,0,,,66,0
72240,note_on,120,0,1,,,,,,,,,0,,,78,0
72240,note_on,0,0,1,,,,,,,,,0,,,79,53
72240,note_on,0,0,1,,,,,,,,,0,,,67,53
72240,note_on,0,0,3,,,,,,,,,0,,,50,43
72240,note_on,30,0,3,,,,,,,,,0,,,57,0
72270,note_on,0,0,3,,,,,,,,,0,,,57,42
72270,note_on,30,0,3,,,,,,,,,0,,,50,0
72300,note_on,0,0,1,,,,,,,,,0,,,66,52
72300,note_on,0,0,1,,,,,,,,,0,,,67,0
72300,note_on,30,0,3,,,,,,,,,0,,,57,0
72300,note_on,0,0,3,,,,,,,,,0,,,60,42
72300,note_on,0,0,1,,,,,,,,,0,,,78,52
72300,note_on,60,0,1,,,,,,,,,0,,,79,0
72330,note_on,0,0,3,,,,,,,,,0,,,57,41
72330,note_on,30,0,3,,,,,,,,,0,,,60,0
72360,note_on,60,0,1,,,,,,,,,0,,,78,0
72360,note_on,0,0,1,,,,,,,,,0,,,66,0
72360,note_on,0,0,1,,,,,,,,,0,,,76,51
72360,note_on,0,0,1,,,,,,,,,0,,,64,51
72360,note_on,30,0,3,,,,,,,,,0,,,57,0
72360,note_on,0,0,3,,,,,,,,,0,,,50,41
72390,note_on,30,0,3,,,,,,,,,0,,,50,0
72390,note_on,0,0,3,,,,,,,,,0,,,57,41
72420,note_on,0,0,1,,,,,,,,,0,,,66,50
72420,note_on,0,0,1,,,,,,,,,0,,,78,50
72420,note_on,0,0,1,,,,,,,,,0,,,64,0
72420,note_on,60,0,1,,,,,,,,,0,,,76,0
72420,note_on,30,0,3,,,,,,,,,0,,,57,0
72420,note_on,0,0,3,,,,,,,,,0,,,60,40
72450,note_on,30,0,3,,,,,,,,,0,,,60,0
72450,note_on,0,0,3,,,,,,,,,0,,,57,40
72480,note_on,30,0,3,,,,,,,,,0,,,57,0
72480,note_on,0,0,3,,,,,,,,,0,,,43,40
72480,note_on,0,0,1,,,,,,,,,0,,,79,50
72480,note_on,0,0,1,,,,,,,,,0,,,67,50
72480,note_on,0,0,1,,,,,,,,,0,,,66,0
72480,note_on,60,0,1,,,,,,,,,0,,,78,0
72480,control_change,3840,0,4,,,,,,,,,0,64,127,,
72480,marker,0,1,0,,,,,,,,,,,,,
72480,key_signature,13440,1,0,,,,,C,,,,,,,,
72520,note_on,0,0,3,,,,,,,,,0,,,59,40
72520,note_on,0,0,3,,,,,,,,,0,,,50,40
72520,note_on,0,0,3,,,,,,,,,0,,,55,40
72520,note_on,40,0,3,,,,,,,,,0,,,43,0
72560,note_on,0,0,3,,,,,,,,,0,,,55,40
72560,note_on,0,0,3,,,,,,,,,0,,,59,40
72560,note_on,0,0,3,,,,,,,,,0,,,59,0
72560,note_on,0,0,3,,,,,,,,,0,,,55,0
72560,note_on,40,0,3,,,,,,,,,0,,,50,0
72560,note_on,0,0,3,,,,,,,,,0,,,50,40
72600,note_on,0,0,3,,,,,,,,,0,,,50,40
72600,note_on,0,0,3,,,,,,,,,0,,,59,40
72600,note_on,0,0,3,,,,,,,,,0,,,59,0
72600,note_on,0,0,3,,,,,,,,,0,,,55,0
72600,note_on,0,0,3,,,,,,,,,0,,,55,40
72600,note_on,40,0,3,,,,,,,,,0,,,50,0
72640,note_on,40,0,3,,,,,,,,,0,,,50,0
72640,note_on,0,0,3,,,,,,,,,0,,,55,40
72640,note_on,0,0,3,,,,,,,,,0,,,59,40
72640,note_on,0,0,3,,,,,,,,,0,,,50,40
72640,note_on,0,0,3,,,,,,,,,0,,,55,0
72640,note_on,0,0,3,,,,,,,,,0,,,59,0
72680,note_on,0,0,3,,,,,,,,,0,,,59,0
72680,note_on,0,0,3,,,,,,,,,0,,,50,40
72680,note_on,0,0,3,,,,,,,,,0,,,55,0
72680,note_on,40,0,3,,,,,,,,,0,,,50,0
72680,note_on,0,0,3,,,,,,,,,0,,,59,40
72680,note_on,0,0,3,,,,,,,,,0,,,55,40
72720,note_on,0,0,1,,,,,,,,,0,,,72,50
72720,note_on,40,0,3,,,,,,,,,0,,,50,0
72720,note_on,0,0,3,,,,,,,,,0,,,50,40
72720,note_on,0,0,3,,,,,,,,,0,,,55,40
72720,note_on,0,0,3,,,,,,,,,0,,,59,40
72720,note_on,0,0,3,,,,,,,,,0,,,59,0
72720,control_change,240,0,4,,,,,,,,,0,64,0,,
72720,note_on,0,0,3,,,,,,,,,0,,,55,0
72720,note_on,0,0,1,,,,,,,,,0,,,67,0
72720,note_on,240,0,1,,,,,,,,,0,,,79,0
72760,note_on,0,0,3,,,,,,,,,0,,,50,40
72760,note_on,0,0,3,,,,,,,,,0,,,55,40
72760,note_on,0,0,3,,,,,,,,,0,,,59,40
72760,note_on,0,0,3,,,,,,,,,0,,,59,0
72760,note_on,0,0,3,,,,,,,,,0,,,55,0
72760,note_on,40,0,3,,,,,,,,,0,,,50,0
72780,note_on,60,0,1,,,,,,,,,0,,,72,0
72780,note_on,0,0,1,,,,,,,,,0,,,71,50
72800,note_on,0,0,3,,,,,,,,,0,,,50,40
72800,note_on,0,0,3,,,,,,,,,0,,,55,40
72800,note_on,0,0,3,,,,,,,,,0,,,59,40
72800,note_on,0,0,3,,,,,,,,,0,,,59,0
72800,note_on,0,0,3,,,,,,,,,0,,,55,0
72800,note_on,40,0,3,,,,,,,,,0,,,50,0
72840,note_on,40,0,3,,,,,,,,,0,,,50,0
72840,note_on,0,0,3,,,,,,,,,0,,,50,40
72840,note_on,0,0,3,,,,,,,,,0,,,55,0
72840,note_on,0,0,1,,,,,,,,,0,,,70,50
72840,note_on,60,0,1,,,,,,,,,0,,,71,0
72840,note_on,0,0,3,,,,,,,,,0,,,55,40
72840,note_on,0,0,3,,,,,,,,,0,,,59,40
72840,note_on,0,0,3,,,,,,,,,0,,,59,0
72880,note_on,40,0,3,,,,,,,,,0,,,50,0
72880,note_on,0,0,3,,,,,,,,,0,,,50,40
72880,note_on,0,0,3,,,,,,,,,0,,,55,40
72880,note_on,0,0,3,,,,,,,,,0,,,59,40
72880,note_on,0,0,3,,,,,,,,,0,,,55,0
72880,note_on,0,0,3,,,,,,,,,0,,,59,0
72900,note_on,60,0,1,,,,,,,,,0,,,70,0
72900,note_on,0,0,1,,,,,,,,,0,,,71,50
72920,note_on,0,0,3,,,,,,,,,0,,,55,0
72920,note_on,40,0,3,,,,,,,,,0,,,50,0
72920,note_on,0,0,3,,,,,,,,,0,,,59,0
72920,note_on,0,0,3,,,,,,,,,0,,,50,40
72920,note_on,0,0,3,,,,,,,,,0,,,55,40
72920,note_on,0,0,3,,,,,,,,,0,,,59,40
72945,note_on,45,0,1,,,,,,,,,0,,,71,50
72960,note_on,40,0,3,,,,,,,,,0,,,50,0
72960,note_on,0,0,3,,,,,,,,,0,,,55,0
72960,note_on,0,0,3,,,,,,,,,0,,,59,0
72960,control_change,240,0,4,,,,,,,,,0,64,127,,
72960,note_on,0,0,1,,,,,,,,,0,,,76,50
72960,note_on,0,0,1,,,,,,,,,0,,,71,0
72960,note_on,15,0,1,,,,,,,,,0,,,71,0
72960,note_on,0,0,3,,,,,,,,,0,,,36,40
73000,note_on,0,0,3,,,,,,,,,0,,,48,40
73000,note_on,0,0,3,,,,,,,,,0,,,52,40
73000,note_on,0,0,3,,,,,,,,,0,,,59,40
73000,note_on,40,0,3,,,,,,,,,0,,,36,0
73040,note_on,0,0,3,,,,,,,,,0,,,48,40
73040,note_on,0,0,3,,,,,,,,,0,,,59,40
73040,note_on,0,0,3,,,,,,,,,0,,,52,40
73040,note_on,0,0,3,,,,,,,,,0,,,59,0
73040,note_on,40,0,3,,,,,,,,,0,,,48,0
73040,note_on,0,0,3,,,,,,,,,0,,,52,0
73080,note_on,0,0,3,,,,,,,,,0,,,59,0
73080,note_on,0,0,3,,,,,,,,,0,,,52,0
73080,note_on,0,0,3,,,,,,,,,0,,,56,40
73080,note_on,0,0,3,,,,,,,,,0,,,52,40
73080,note_on,0,0,3,,,,,,,,,0,,,48,40
73080,note_on,40,0,3,,,,,,,,,0,,,48,0
73120,note_on,0,0,3,,,,,,,,,0,,,56,40
73120,note_on,40,0,3,,,,,,,,,0,,,48,0
73120,note_on,0,0,3,,,,,,,,,0,,,52,0
73120,note_on,0,0,3,,,,,,,,,0,,,56,0
73120,note_on,0,0,3,,,,,,,,,0,,,52,40
73120,note_on,0,0,3,,,,,,,,,0,,,48,40
73160,note_on,0,0,3,,,,,,,,,0,,,52,40
73160,note_on,40,0,3,,,,,,,,,0,,,48,0
73160,note_on,0,0,3,,,,,,,,,0,,,56,0
73160,note_on,0,0,3,,,,,,,,,0,,,56,40
73160,note_on,0,0,3,,,,,,,,,0,,,48,40
73160,note_on,0,0,3,,,,,,,,,0,,,52,0
73200,note_on,0,0,1,,,,,,,,,0,,,71,50
73200,control_change,240,0,4,,,,,,,,,0,64,0,,
73200,note_on,240,0,1,,,,,,,,,0,,,76,0
73200,note_on,40,0,3,,,,,,,,,0,,,48,0
73200,note_on,0,0,3,,,,,,,,,0,,,52,0
73200,note_on,0,0,3,,,,,,,,,0,,,48,40
73200,note_on,0,0,3,,,,,,,,,0,,,56,0
73200,note_on,0,0,3,,,,,,,,,0,,,57,40
73200,note_on,0,0,3,,,,,,,,,0,,,52,40
73240,note_on,40,0,3,,,,,,,,,0,,,48,0
73240,note_on,0,0,3,,,,,,,,,0,,,52,0
73240,note_on,0,0,3,,,,,,,,,0,,,57,0
73240,note_on,0,0,3,,,,,,,,,0,,,57,40
73240,note_on,0,0,3,,,,,,,,,0,,,52,40
73240,note_on,0,0,3,,,,,,,,,0,,,48,40
73260,note_on,0,0,1,,,,,,,,,0,,,69,50
73260,note_on,60,0,1,,,,,,,,,0,,,71,0
73280,note_on,0,0,3,,,,,,,,,0,,,48,40
73280,note_on,0,0,3,,,,,,,,,0,,,52,0
73280,note_on,0,0,3,,,,,,,,,0,,,57,40
73280,note_on,0,0,3,,,,,,,,,0,,,57,0
73280,note_on,0,0,3,,,,,,,,,0,,,52,40
73280,note_on,40,0,3,,,,,,,,,0,,,48,0
73320,note_on,0,0,1,,,,,,,,,0,,,68,50
73320,note_on,60,0,1,,,,,,,,,0,,,69,0
73320,note_on,0,0,3,,,,,,,,,0,,,48,40
73320,note_on,40,0,3,,,,,,,,,0,,,48,0
73320,note_on,0,0,3,,,,,,,,,0,,,52,0
73320,note_on,0,0,3,,,,,,,,,0,,,57,0
73320,note_on,0,0,3,,,,,,,,,0,,,57,40
73320,note_on,0,0,3,,,,,,,,,0,,,52,40
73360,note_on,40,0,3,,,,,,,,,0,,,48,0
73360,note_on,0,0,3,,,,,,,,,0,,,52,0
73360,note_on,0,0,3,,,,,,,,,0,,,57,0
73360,note_on,0,0,3,,,,,,,,,0,,,57,40
73360,note_on,0,0,3,,,,,,,,,0,,,52,40
73360,note_on,0,0,3,,,,,,,,,0,,,48,40
73380,note_on,60,0,1,,,,,,,,,0,,,68,0
73380,note_on,0,0,1,,,,,,,,,0,,,69,50
73400,note_on,0,0,3,,,,,,,,,0,,,52,40
73400,note_on,0,0,3,,,,,,,,,0,,,48,40
73400,note_on,0,0,3,,,,,,,,,0,,,57,40
73400,note_on,0,0,3,,,,,,,,,0,,,57,0
73400,note_on,0,0,3,,,,,,,,,0,,,52,0
73400,note_on,40,0,3,,,,,,,,,0,,,48,0
73425,note_on,45,0,1,,,,,,,,,0,,,69,50
73440,note_on,0,0,1,,,,,,,,,0,,,74,50
73440,control_change,240,0,4,,,,,,,,,0,64,127,,
73440,note_on,0,0,1,,,,,,,,,0,,,69,0
73440,note_on,40,0,3,,,,,,,,,0,,,48,0
73440,note_on,0,0,3,,,,,,,,,0,,,52,0
73440,note_on,0,0,3,,,,,,,,,0,,,57,0
73440,note_on,0,0,3,,,,,,,,,0,,,35,40
73440,note_on,15,0,1,,,,,,,,,0,,,69,0
73480,note_on,40,0,3,,,,,,,,,0,,,35,0
73480,note_on,0,0,3,,,,,,,,,0,,,57,40
73480,note_on,0,0,3,,,,,,,,,0,,,50,40
73480,note_on,0,0,3,,,,,,,,,0,,,47,40
73520,note_on,40,0,3,,,,,,,,,0,,,47,0
73520,note_on,0,0,3,,,,,,,,,0,,,57,0
73520,note_on,0,0,3,,,,,,,,,0,,,50,40
73520,note_on,0,0,3,,,,,,,,,0,,,57,40
73520,note_on,0,0,3,,,,,,,,,0,,,47,40
73520,note_on,0,0,3,,,,,,,,,0,,,50,0
73545,control_change,105,0,4,,,,,,,,,0,64,0,,
73560,control_change,15,0,4,,,,,,,,,0,64,127,,
73560,note_on,40,0,3,,,,,,,,,0,,,47,0
73560,note_on,0,0,3,,,,,,,,,0,,,57,0
73560,note_on,0,0,3,,,,,,,,,0,,,50,0
73560,note_on,0,0,3,,,,,,,,,0,,,54,40
73560,note_on,0,0,3,,,,,,,,,0,,,50,40
73560,note_on,0,0,3,,,,,,,,,0,,,47,40
73600,note_on,0,0,3,,,,,,,,,0,,,54,40
73600,note_on,0,0,3,,,,,,,,,0,,,50,40
73600,note_on,0,0,3,,,,,,,,,0,,,47,40
73600,note_on,0,0,3,,,,,,,,,0,,,50,0
73600,note_on,40,0,3,,,,,,,,,0,,,47,0
73600,note_on,0,0,3,,,,,,,,,0,,,54,0
73640,note_on,0,0,3,,,,,,,,,0,,,50,0
73640,note_on,0,0,3,,,,,,,,,0,,,47,40
73640,note_on,0,0,3,,,,,,,,,0,,,50,40
73640,note_on,0,0,3,,,,,,,,,0,,,54,40
73640,note_on,0,0,3,,,,,,,,,0,,,54,0
73640,note_on,40,0,3,,,,,,,,,0,,,47,0
73665,control_change,105,0,4,,,,,,,,,0,64,0,,
73680,note_on,0,0,3,,,,,,,,,0,,,47,40
73680,note_on,0,0,3,,,,,,,,,0,,,54,0
73680,note_on,0,0,3,,,,,,,,,0,,,50,0
73680,note_on,0,0,3,,,,,,,,,0,,,50,40
73680,note_on,0,0,3,,,,,,,,,0,,,55,40
73680,note_on,40,0,3,,,,,,,,,0,,,47,0
73680,note_on,240,0,1,,,,,,,,,0,,,74,0
73680,note_on,0,0,1,,,,,,,,,0,,,72,50
73680,control_change,15,0,4,,,,,,,,,0,64,127,,
73720,note_on,40,0,3,,,,,,,,,0,,,47,0
73720,note_on,0,0,3,,,,,,,,,0,,,50,0
73720,note_on,0,0,3,,,,,,,,,0,,,55,0
73720,note_on,0,0,3,,,,,,,,,0,,,55,40
73720,note_on,0,0,3,,,,,,,,,0,,,50,40
73720,note_on,0,0,3,,,,,,,,,0,,,47,40
73740,note_on,60,0,1,,,,,,,,,0,,,72,0
73740,note_on,0,0,1,,,,,,,,,0,,,71,50
73760,note_on,0,0,3,,,,,,,,,0,,,47,40
73760,note_on,0,0,3,,,,,,,,,0,,,50,40
73760,note_on,0,0,3,,,,,,,,,0,,,55,40
73760,note_on,0,0,3,,,,,,,,,0,,,55,0
73760,note_on,0,0,3,,,,,,,,,0,,,50,0
73760,note_on,40,0,3,,,,,,,,,0,,,47,0
73785,control_change,105,0,4,,,,,,,,,0,64,0,,
73800,note_on,0,0,3,,,,,,,,,0,,,47,40
73800,note_on,0,0,3,,,,,,,,,0,,,50,40
73800,note_on,0,0,3,,,,,,,,,0,,,55,40
73800,note_on,0,0,3,,,,,,,,,0,,,55,0
73800,note_on,60,0,1,,,,,,,,,0,,,71,0
73800,note_on,0,0,1,,,,,,,,,0,,,69,50
73800,control_change,15,0,4,,,,,,,,,0,64,127,,
73800,note_on,0,0,3,,,,,,,,,0,,,50,0
73800,note_on,40,0,3,,,,,,,,,0,,,47,0
73840,note_on,0,0,3,,,,,,,,,0,,,47,40
73840,note_on,0,0,3,,,,,,,,,0,,,50,40
73840,note_on,0,0,3,,,,,,,,,0,,,55,40
73840,note_on,0,0,3,,,,,,,,,0,,,55,0
73840,note_on,40,0,3,,,,,,,,,0,,,47,0
73840,note_on,0,0,3,,,,,,,,,0,,,50,0
73860,note_on,60,0,1,,,,,,,,,0,,,69,0
73860,note_on,0,0,1,,,,,,,,,0,,,67,50
73880,note_on,40,0,3,,,,,,,,,0,,,47,0
73880,note_on,0,0,3,,,,,,,,,0,,,50,0
73880,note_on,0,0,3,,,,,,,,,0,,,55,0
73880,note_on,0,0,3,,,,,,,,,0,,,55,40
73880,note_on,0,0,3,,,,,,,,,0,,,50,40
73880,note_on,0,0,3,,,,,,,,,0,,,47,40
73905,control_change,105,0,4,,,,,,,,,0,64,0,,
73920,note_on,0,0,3,,,,,,,,,0,,,36,40
73920,note_on,60,0,1,,,,,,,,,0,,,67,0
73920,note_on,0,0,3,,,,,,,,,0,,,50,0
73920,note_on,0,0,3,,,,,,,,,0,,,55,0
73920,control_change,15,0,4,,,,,,,,,0,64,127,,
73920,note_on,40,0,3,,,,,,,,,0,,,47,0
73920,note_on,0,0,1,,,,,,,,,0,,,66,50
73920,note_on,0,0,1,,,,,,,,,0,,,74,50
73920,set_tempo,1440,1,0,,,,,,536241,,,,,,,
73934,set_tempo,14,1,0,,,,,,537683,,,,,,,
73941,set_tempo,7,1,0,,,,,,539132,,,,,,,
73948,set_tempo,7,1,0,,,,,,540589,,,,,,,
73955,set_tempo,7,1,0,,,,,,542054,,,,,,,
73960,note_on,0,0,3,,,,,,,,,0,,,52,40
73960,note_on,0,0,3,,,,,,,,,0,,,48,40
73960,note_on,40,0,3,,,,,,,,,0,,,36,0
73962,set_tempo,7,1,0,,,,,,543527,,,,,,,
73969,set_tempo,7,1,0,,,,,,545009,,,,,,,
73976,set_tempo,7,1,0,,,,,,546498,,,,,,,
73980,note_on,0,0,1,,,,,,,,,0,,,66,0
73980,note_on,0,0,1,,,,,,,,,0,,,72,50
73980,note_on,0,0,1,,,,,,,,,0,,,64,50
73980,note_on,60,0,1,,,,,,,,,0,,,74,0
73983,set_tempo,7,1,0,,,,,,547995,,,,,,,
73990,set_tempo,7,1,0,,,,,,549501,,,,,,,
73997,set_tempo,7,1,0,,,,,,551015,,,,,,,
74000,note_on,0,0,3,,,,,,,,,0,,,48,40
74000,note_on,0,0,3,,,,,,,,,0,,,52,40
74000,note_on,0,0,3,,,,,,,,,0,,,52,0
74000,note_on,40,0,3,,,,,,,,,0,,,48,0
74004,set_tempo,7,1,0,,,,,,552537,,,,,,,
74011,set_tempo,7,1,0,,,,,,554068,,,,,,,
74018,set_tempo,7,1,0,,,,,,555607,,,,,,,
74025,set_tempo,7,1,0,,,,,,557155,,,,,,,
74032,set_tempo,7,1,0,,,,,,558711,,,,,,,
74040,note_on,0,0,3,,,,,,,,,0,,,48,40
74040,note_on,60,0,1,,,,,,,,,0,,,72,0
74040,note_on,0,0,1,,,,,,,,,0,,,64,0
74040,note_on,0,0,1,,,,,,,,,0,,,62,50
74040,note_on,0,0,1,,,,,,,,,0,,,71,50
74040,set_tempo,8,1,0,,,,,,560276,,,,,,,
74040,note_on,0,0,3,,,,,,,,,0,,,52,40
74040,note_on,0,0,3,,,,,,,,,0,,,52,0
74040,note_on,40,0,3,,,,,,,,,0,,,48,0
74047,set_tempo,7,1,0,,,,,,561850,,,,,,,
74054,set_tempo,7,1,0,,,,,,563433,,,,,,,
74061,set_tempo,7,1,0,,,,,,565025,,,,,,,
74068,set_tempo,7,1,0,,,,,,566626,,,,,,,
74075,set_tempo,7,1,0,,,,,,568236,,,,,,,
74080,note_on,0,0,3,,,,,,,,,0,,,52,40
74080,note_on,40,0,3,,,,,,,,,0,,,48,0
74080,note_on,0,0,3,,,,,,,,,0,,,52,0
74080,note_on,0,0,3,,,,,,,,,0,,,48,40
74082,set_tempo,7,1,0,,,,,,569855,,,,,,,
74089,set_tempo,7,1,0,,,,,,571483,,,,,,,
74096,set_tempo,7,1,0,,,,,,573121,,,,,,,
74100,note_on,0,0,1,,,,,,,,,0,,,69,50
74100,note_on,0,0,1,,,,,,,,,0,,,60,50
74100,note_on,0,0,1,,,,,,,,,0,,,62,0
74100,note_on,60,0,1,,,,,,,,,0,,,71,0
74103,set_tempo,7,1,0,,,,,,574768,,,,,,,
74110,set_tempo,7,1,0,,,,,,576424,,,,,,,
74117,set_tempo,7,1,0,,,,,,578090,,,,,,,
74120,note_on,0,0,3,,,,,,,,,0,,,48,40
74120,note_on,0,0,3,,,,,,,,,0,,,52,40
74120,note_on,0,0,3,,,,,,,,,0,,,52,0
74120,note_on,40,0,3,,,,,,,,,0,,,48,0
74124,set_tempo,7,1,0,,,,,,579766,,,,,,,
74131,set_tempo,7,1,0,,,,,,581452,,,,,,,
74138,set_tempo,7,1,0,,,,,,583147,,,,,,,
74145,set_tempo,7,1,0,,,,,,584852,,,,,,,
74145,control_change,225,0,4,,,,,,,,,0,64,0,,
74152,set_tempo,7,1,0,,,,,,586568,,,,,,,
74160,note_on,0,0,1,,,,,,,,,0,,,60,0
74160,note_on,60,0,1,,,,,,,,,0,,,69,0
74160,note_on,0,0,3,,,,,,,,,0,,,38,40
74160,note_on,0,0,3,,,,,,,,,0,,,52,0
74160,note_on,0,0,1,,,,,,,,,0,,,67,50
74160,note_on,40,0,3,,,,,,,,,0,,,48,0
74160,note_on,0,0,1,,,,,,,,,0,,,59,50
74160,control_change,15,0,4,,,,,,,,,0,64,127,,
74160,set_tempo,8,1,0,,,,,,588293,,,,,,,
74167,set_tempo,7,1,0,,,,,,590029,,,,,,,
74174,set_tempo,7,1,0,,,,,,591774,,,,,,,
74181,set_tempo,7,1,0,,,,,,593531,,,,,,,
74188,set_tempo,7,1,0,,,,,,595297,,,,,,,
74195,set_tempo,7,1,0,,,,,,597074,,,,,,,
74200,note_on,0,0,3,,,,,,,,,0,,,55,40
74200,note_on,40,0,3,,,,,,,,,0,,,38,0
74200,note_on,0,0,3,,,,,,,,,0,,,50,40
74202,set_tempo,7,1,0,,,,,,598862,,,,,,,
74209,set_tempo,7,1,0,,,,,,600661,,,,,,,
74216,set_tempo,7,1,0,,,,,,602470,,,,,,,
74223,set_tempo,7,1,0,,,,,,604290,,,,,,,
74230,set_tempo,7,1,0,,,,,,606122,,,,,,,
74237,set_tempo,7,1,0,,,,,,607964,,,,,,,
74240,note_on,0,0,3,,,,,,,,,0,,,55,0
74240,note_on,0,0,3,,,,,,,,,0,,,55,40
74240,note_on,40,0,3,,,,,,,,,0,,,50,0
74240,note_on,0,0,3,,,,,,,,,0,,,50,40
74244,set_tempo,7,1,0,,,,,,609818,,,,,,,
74251,set_tempo,7,1,0,,,,,,611683,,,,,,,
74258,set_tempo,7,1,0,,,,,,613560,,,,,,,
74265,control_change,105,0,4,,,,,,,,,0,64,0,,
74265,set_tempo,7,1,0,,,,,,615448,,,,,,,
74272,set_tempo,7,1,0,,,,,,617347,,,,,,,
74280,control_change,15,0,4,,,,,,,,,0,64,127,,
74280,note_on,0,0,1,,,,,,,,,0,,,62,50
74280,note_on,0,0,1,,,,,,,,,0,,,59,0
74280,note_on,120,0,1,,,,,,,,,0,,,67,0
74280,note_on,0,0,3,,,,,,,,,0,,,38,40
74280,note_on,40,0,3,,,,,,,,,0,,,50,0
74280,note_on,0,0,1,,,,,,,,,0,,,71,50
74280,set_tempo,8,1,0,,,,,,619259,,,,,,,
74280,note_on,0,0,3,,,,,,,,,0,,,55,0
74287,set_tempo,7,1,0,,,,,,621182,,,,,,,
74294,set_tempo,7,1,0,,,,,,623118,,,,,,,
74301,set_tempo,7,1,0,,,,,,625065,,,,,,,
74308,set_tempo,7,1,0,,,,,,627025,,,,,,,
74315,set_tempo,7,1,0,,,,,,628997,,,,,,,
74320,note_on,0,0,3,,,,,,,,,0,,,50,40
74320,note_on,0,0,3,,,,,,,,,0,,,54,40
74320,note_on,40,0,3,,,,,,,,,0,,,38,0
74322,set_tempo,7,1,0,,,,,,630981,,,,,,,
74329,set_tempo,7,1,0,,,,,,632978,,,,,,,
74336,set_tempo,7,1,0,,,,,,634988,,,,,,,
74343,set_tempo,7,1,0,,,,,,637010,,,,,,,
74350,set_tempo,7,1,0,,,,,,639046,,,,,,,
74357,set_tempo,7,1,0,,,,,,641094,,,,,,,
74360,note_on,0,0,3,,,,,,,,,0,,,54,40
74360,note_on,0,0,3,,,,,,,,,0,,,54,0
74360,note_on,40,0,3,,,,,,,,,0,,,50,0
74360,note_on,0,0,3,,,,,,,,,0,,,50,40
74364,set_tempo,7,1,0,,,,,,643156,,,,,,,
74370,note_on,0,0,1,,,,,,,,,0,,,60,50
74370,note_on,0,0,1,,,,,,,,,0,,,62,0
74370,note_on,90,0,1,,,,,,,,,0,,,71,0
74370,note_on,0,0,1,,,,,,,,,0,,,69,50
74371,set_tempo,7,1,0,,,,,,645231,,,,,,,
74378,set_tempo,7,1,0,,,,,,647319,,,,,,,
74385,control_change,105,0,4,,,,,,,,,0,64,0,,
74385,set_tempo,7,1,0,,,,,,649421,,,,,,,
74392,set_tempo,7,1,0,,,,,,651537,,,,,,,
74400,set_tempo,8,1,0,,,,,,535714,,,,,,,
74400,control_change,15,0,4,,,,,,,,,0,64,127,,
74400,note_on,0,0,1,,,,,,,,,0,,,67,50
74400,note_on,0,0,1,,,,,,,,,0,,,59,50
74400,note_on,0,0,3,,,,,,,,,0,,,43,40
74400,note_on,0,0,3,,,,,,,,,0,,,54,0
74400,note_on,40,0,3,,,,,,,,,0,,,50,0
74400,note_on,30,0,1,,,,,,,,,0,,,69,0
74400,note_on,0,0,1,,,,,,,,,0,,,60,0
74440,note_on,0,0,3,,,,,,,,,0,,,50,40
74440,note_on,0,0,3,,,,,,,,,0,,,55,40
74440,note_on,40,0,3,,,,,,,,,0,,,43,0
74440,note_on,0,0,3,,,,,,,,,0,,,59,40
74480,note_on,0,0,3,,,,,,,,,0,,,50,40
74480,note_on,40,0,3,,,,,,,,,0,,,50,0
74480,note_on,0,0,3,,,,,,,,,0,,,55,40
74480,note_on,0,0,3,,,,,,,,,0,,,59,40
74480,note_on,0,0,3,,,,,,,,,0,,,59,0
74480,note_on,0,0,3,,,,,,,,,0,,,55,0
74520,note_on,0,0,3,,,,,,,,,0,,,59,40
74520,note_on,0,0,3,,,,,,,,,0,,,55,40
74520,note_on,0,0,3,,,,,,,,,0,,,50,40
74520,note_on,40,0,3,,,,,,,,,0,,,50,0
74520,note_on,0,0,3,,,,,,,,,0,,,59,0
74520,note_on,120,0,1,,,,,,,,,0,,,67,0
74520,note_on,0,0,3,,,,,,,,,0,,,55,0
74520,note_on,0,0,1,,,,,,,,,0,,,59,0
74560,note_on,40,0,3,,,,,,,,,0,,,50,0
74560,note_on,0,0,3,,,,,,,,,0,,,55,0
74560,note_on,0,0,3,,,,,,,,,0,,,50,40
74560,note_on,0,0,3,,,,,,,,,0,,,55,40
74560,note_on,0,0,3,,,,,,,,,0,,,59,40
74560,note_on,0,0,3,,,,,,,,,0,,,59,0
74600,note_on,0,0,3,,,,,,,,,0,,,50,40
74600,note_on,0,0,3,,,,,,,,,0,,,55,40
74600,note_on,0,0,3,,,,,,,,,0,,,59,40
74600,note_on,0,0,3,,,,,,,,,0,,,59,0
74600,note_on,0,0,3,,,,,,,,,0,,,55,0
74600,note_on,40,0,3,,,,,,,,,0,,,50,0
74640,note_on,120,0,1,,,,,,,,,0,,,72,50
74640,control_change,240,0,4,,,,,,,,,0,64,0,,
74640,note_on,0,0,3,,,,,,,,,0,,,55,40
74640,note_on,0,0,3,,,,,,,,,0,,,50,40
74640,note_on,0,0,3,,,,,,,,,0,,,59,40
74640,note_on,0,0,3,,,,,,,,,0,,,59,0
74640,note_on,0,0,3,,,,,,,,,0,,,55,0
74640,note_on,40,0,3,,,,,,,,,0,,,50,0
74680,note_on,0,0,3,,,,,,,,,0,,,59,40
74680,note_on,0,0,3,,,,,,,,,0,,,59,0
74680,note_on,0,0,3,,,,,,,,,0,,,55,0
74680,note_on,40,0,3,,,,,,,,,0,,,50,0
74680,note_on,0,0,3,,,,,,,,,0,,,50,40
74680,note_on,0,0,3,,,,,,,,,0,,,55,40
74700,note_on,60,0,1,,,,,,,,,0,,,72,0
74700,note_on,0,0,1,,,,,,,,,0,,,71,50
74720,note_on,40,0,3,,,,,,,,,0,,,50,0
74720,note_on,0,0,3,,,,,,,,,0,,,59,0
74720,note_on,0,0,3,,,,,,,,,0,,,55,0
74720,note_on,0,0,3,,,,,,,,,0,,,50,40
74720,note_on,0,0,3,,,,,,,,,0,,,55,40
74720,note_on,0,0,3,,,,,,,,,0,,,59,40
74760,note_on,0,0,1,,,,,,,,,0,,,70,50
74760,note_on,60,0,1,,,,,,,,,0,,,71,0
74760,note_on,0,0,3,,,,,,,,,0,,,55,40
74760,note_on,0,0,3,,,,,,,,,0,,,50,40
74760,note_on,40,0,3,,,,,,,,,0,,,50,0
74760,note_on,0,0,3,,,,,,,,,0,,,55,0
74760,note_on,0,0,3,,,,,,,,,0,,,59,0
74760,note_on,0,0,3,,,,,,,,,0,,,59,40
74800,note_on,0,0,3,,,,,,,,,0,,,55,0
74800,note_on,0,0,3,,,,,,,,,0,,,59,0
74800,note_on,0,0,3,,,,,,,,,0,,,59,40
74800,note_on,0,0,3,,,,,,,,,0,,,55,40
74800,note_on,40,0,3,,,,,,,,,0,,,50,0
74800,note_on,0,0,3,,,,,,,,,0,,,50,40
74820,note_on,0,0,1,,,,,,,,,0,,,71,50
74820,note_on,60,0,1,,,,,,,,,0,,,70,0
74840,note_on,40,0,3,,,,,,,,,0,,,50,0
74840,note_on,0,0,3,,,,,,,,,0,,,59,0
74840,note_on,0,0,3,,,,,,,,,0,,,55,0
74840,note_on,0,0,3,,,,,,,,,0,,,55,40
74840,note_on,0,0,3,,,,,,,,,0,,,59,40
74840,note_on,0,0,3,,,,,,,,,0,,,50,40
74880,note_on,40,0,3,,,,,,,,,0,,,50,0
74880,note_on,0,0,3,,,,,,,,,0,,,36,40
74880,note_on,0,0,1,,,,,,,,,0,,,76,50
74880,note_on,0,0,1,,,,,,,,,0,,,83,50
74880,note_on,0,0,3,,,,,,,,,0,,,55,0
74880,note_on,0,0,3,,,,,,,,,0,,,59,0
74880,control_change,240,0,4,,,,,,,,,0,64,127,,
74880,note_on,60,0,1,,,,,,,,,0,,,71,0
74920,note_on,40,0,3,,,,,,,,,0,,,36,0
74920,note_on,0,0,3,,,,,,,,,0,,,48,40
74920,note_on,0,0,3,,,,,,,,,0,,,52,40
74920,note_on,0,0,3,,,,,,,,,0,,,59,40
74940,note_on,0,0,1,,,,,,,,,0,,,81,50
74940,note_on,60,0,1,,,,,,,,,0,,,83,0
74960,note_on,0,0,3,,,,,,,,,0,,,52,40
74960,note_on,0,0,3,,,,,,,,,0,,,59,0
74960,note_on,0,0,3,,,,,,,,,0,,,48,40
74960,note_on,0,0,3,,,,,,,,,0,,,52,0
74960,note_on,0,0,3,,,,,,,,,0,,,59,40
74960,note_on,40,0,3,,,,,,,,,0,,,48,0
75000,note_on,60,0,1,,,,,,,,,0,,,81,0
75000,note_on,0,0,1,,,,,,,,,0,,,80,50
75000,note_on,40,0,3,,,,,,,,,0,,,48,0
75000,note_on,0,0,3,,,,,,,,,0,,,52,0
75000,note_on,0,0,3,,,,,,,,,0,,,59,0
75000,note_on,0,0,3,,,,,,,,,0,,,59,40
75000,note_on,0,0,3,,,,,,,,,0,,,52,40
75000,note_on,0,0,3,,,,,,,,,0,,,48,40
75040,note_on,0,0,3,,,,,,,,,0,,,52,40
75040,note_on,0,0,3,,,,,,,,,0,,,52,0
75040,note_on,0,0,3,,,,,,,,,0,,,59,0
75040,note_on,0,0,3,,,,,,,,,0,,,59,40
75040,note_on,0,0,3,,,,,,,,,0,,,48,40
75040,note_on,40,0,3,,,,,,,,,0,,,48,0
75060,note_on,60,0,1,,,,,,,,,0,,,80,0
75060,note_on,0,0,1,,,,,,,,,0,,,81,50
75080,note_on,0,0,3,,,,,,,,,0,,,59,40
75080,note_on,0,0,3,,,,,,,,,0,,,48,40
75080,note_on,0,0,3,,,,,,,,,0,,,59,0
75080,note_on,0,0,3,,,,,,,,,0,,,52,40
75080,note_on,40,0,3,,,,,,,,,0,,,48,0
75080,note_on,0,0,3,,,,,,,,,0,,,52,0
75120,control_change,240,0,4,,,,,,,,,0,64,0,,
75120,note_on,0,0,1,,,,,,,,,0,,,71,50
75120,note_on,0,0,1,,,,,,,,,0,,,76,0
75120,note_on,40,0,3,,,,,,,,,0,,,48,0
75120,note_on,0,0,3,,,,,,,,,0,,,52,0
75120,note_on,0,0,3,,,,,,,,,0,,,48,40
75120,note_on,0,0,3,,,,,,,,,0,,,59,0
75120,note_on,60,0,1,,,,,,,,,0,,,81,0
75120,note_on,0,0,3,,,,,,,,,0,,,57,40
75120,note_on,0,0,3,,,,,,,,,0,,,52,40
75160,note_on,40,0,3,,,,,,,,,0,,,48,0
75160,note_on,0,0,3,,,,,,,,,0,,,57,40
75160,note_on,0,0,3,,,,,,,,,0,,,52,0
75160,note_on,0,0,3,,,,,,,,,0,,,57,0
75160,note_on,0,0,3,,,,,,,,,0,,,48,40
75160,note_on,0,0,3,,,,,,,,,0,,,52,40
75180,note_on,0,0,1,,,,,,,,,0,,,69,50
75180,note_on,60,0,1,,,,,,,,,0,,,71,0
75200,note_on,40,0,3,,,,,,,,,0,,,48,0
75200,note_on,0,0,3,,,,,,,,,0,,,52,40
75200,note_on,0,0,3,,,,,,,,,0,,,57,40
75200,note_on,0,0,3,,,,,,,,,0,,,57,0
75200,note_on,0,0,3,,,,,,,,,0,,,52,0
75200,note_on,0,0,3,,,,,,,,,0,,,48,40
75240,note_on,0,0,3,,,,,,,,,0,,,48,40
75240,note_on,0,0,3,,,,,,,,,0,,,52,40
75240,note_on,0,0,3,,,,,,,,,0,,,57,40
75240,note_on,0,0,3,,,,,,,,,0,,,57,0
75240,note_on,0,0,3,,,,,,,,,0,,,52,0
75240,note_on,40,0,3,,,,,,,,,0,,,48,0
75240,note_on,60,0,1,,,,,,,,,0,,,69,0
75240,note_on,0,0,1,,,,,,,,,0,,,68,50
75280,note_on,40,0,3,,,,,,,,,0,,,48,0
75280,note_on,0,0,3,,,,,,,,,0,,,48,40
75280,note_on,0,0,3,,,,,,,,,0,,,52,40
75280,note_on,0,0,3,,,,,,,,,0,,,57,40
75280,note_on,0,0,3,,,,,,,,,0,,,57,0
75280,note_on,0,0,3,,,,,,,,,0,,,52,0
75300,note_on,0,0,1,,,,,,,,,0,,,69,50
75300,note_on,60,0,1,,,,,,,,,0,,,68,0
75320,note_on,0,0,3,,,,,,,,,0,,,48,40
75320,note_on,0,0,3,,,,,,,,,0,,,57,40
75320,note_on,0,0,3,,,,,,,,,0,,,57,0
75320,note_on,40,0,3,,,,,,,,,0,,,48,0
75320,note_on,0,0,3,,,,,,,,,0,,,52,0
75320,note_on,0,0,3,,,,,,,,,0,,,52,40
75360,control_change,240,0,4,,,,,,,,,0,64,127,,
75360,note_on,0,0,3,,,,,,,,,0,,,52,0
75360,note_on,0,0,3,,,,,,,,,0,,,35,40
75360,note_on,0,0,3,,,,,,,,,0,,,57,0
75360,note_on,40,0,3,,,,,,,,,0,,,48,0
75360,note_on,0,0,1,,,,,,,,,0,,,74,50
75360,note_on,60,0,1,,,,,,,,,0,,,69,0
75360,note_on,0,0,1,,,,,,,,,0,,,81,50
75400,note_on,0,0,3,,,,,,,,,0,,,50,40
75400,note_on,0,0,3,,,,,,,,,0,,,57,40
75400,note_on,40,0,3,,,,,,,,,0,,,35,0
75400,note_on,0,0,3,,,,,,,,,0,,,47,40
75420,note_on,60,0,1,,,,,,,,,0,,,81,0
75420,note_on,0,0,1,,,,,,,,,0,,,79,50
75440,note_on,0,0,3,,,,,,,,,0,,,47,40
75440,note_on,0,0,3,,,,,,,,,0,,,57,40
75440,note_on,0,0,3,,,,,,,,,0,,,57,0
75440,note_on,0,0,3,,,,,,,,,0,,,50,0
75440,note_on,40,0,3,,,,,,,,,0,,,47,0
75440,note_on,0,0,3,,,,,,,,,0,,,50,40
75465,control_change,105,0,4,,,,,,,,,0,64,0,,
75480,note_on,0,0,3,,,,,,,,,0,,,57,0
75480,note_on,0,0,3,,,,,,,,,0,,,47,40
75480,note_on,0,0,1,,,,,,,,,0,,,78,50
75480,note_on,60,0,1,,,,,,,,,0,,,79,0
75480,note_on,40,0,3,,,,,,,,,0,,,47,0
75480,control_change,15,0,4,,,,,,,,,0,64,127,,
75480,note_on,0,0,3,,,,,,,,,0,,,50,0
75480,note_on,0,0,3,,,,,,,,,0,,,57,40
75480,note_on,0,0,3,,,,,,,,,0,,,50,40
75520,note_on,0,0,3,,,,,,,,,0,,,57,40
75520,note_on,0,0,3,,,,,,,,,0,,,57,0
75520,note_on,0,0,3,,,,,,,,,0,,,50,0
75520,note_on,40,0,3,,,,,,,,,0,,,47,0
75520,note_on,0,0,3,,,,,,,,,0,,,47,40
75520,note_on,0,0,3,,,,,,,,,0,,,50,40
75540,note_on,60,0,1,,,,,,,,,0,,,78,0
75540,note_on,0,0,1,,,,,,,,,0,,,79,50
75560,note_on,0,0,3,,,,,,,,,0,,,57,40
75560,note_on,0,0,3,,,,,,,,,0,,,47,40
75560,note_on,0,0,3,,,,,,,,,0,,,50,0
75560,note_on,0,0,3,,,,,,,,,0,,,50,40
75560,note_on,0,0,3,,,,,,,,,0,,,57,0
75560,note_on,40,0,3,,,,,,,,,0,,,47,0
75585,control_change,105,0,4,,,,,,,,,0,64,0,,
75600,note_on,0,0,1,,,,,,,,,0,,,72,50
75600,note_on,0,0,3,,,,,,,,,0,,,50,40
75600,note_on,0,0,3,,,,,,,,,0,,,55,40
75600,note_on,0,0,3,,,,,,,,,0,,,57,0
75600,note_on,0,0,1,,,,,,,,,0,,,74,0
75600,note_on,40,0,3,,,,,,,,,0,,,47,0
75600,control_change,15,0,4,,,,,,,,,0,64,127,,
75600,note_on,60,0,1,,,,,,,,,0,,,79,0
75600,note_on,0,0,3,,,,,,,,,0,,,50,0
75600,note_on,0,0,3,,,,,,,,,0,,,47,40
75640,note_on,40,0,3,,,,,,,,,0,,,47,0
75640,note_on,0,0,3,,,,,,,,,0,,,50,0
75640,note_on,0,0,3,,,,,,,,,0,,,55,0
75640,note_on,0,0,3,,,,,,,,,0,,,55,40
75640,note_on,0,0,3,,,,,,,,,0,,,50,40
75640,note_on,0,0,3,,,,,,,,,0,,,47,40
75660,note_on,60,0,1,,,,,,,,,0,,,72,0
75660,note_on,0,0,1,,,,,,,,,0,,,71,50
75680,note_on,0,0,3,,,,,,,,,0,,,47,40
75680,note_on,0,0,3,,,,,,,,,0,,,55,40
75680,note_on,0,0,3,,,,,,,,,0,,,55,0
75680,note_on,40,0,3,,,,,,,,,0,,,47,0
75680,note_on,0,0,3,,,,,,,,,0,,,50,0
75680,note_on,0,0,3,,,,,,,,,0,,,50,40
75705,control_change,105,0,4,,,,,,,,,0,64,0,,
75720,note_on,0,0,3,,,,,,,,,0,,,50,40
75720,note_on,0,0,3,,,,,,,,,0,,,47,40
75720,note_on,0,0,3,,,,,,,,,0,,,55,0
75720,note_on,0,0,3,,,,,,,,,0,,,50,0
75720,note_on,40,0,3,,,,,,,,,0,,,47,0
75720,control_change,15,0,4,,,,,,,,,0,64,127,,
75720,note_on,60,0,1,,,,,,,,,0,,,71,0
75720,note_on,0,0,1,,,,,,,,,0,,,69,50
75720,note_on,0,0,3,,,,,,,,,0,,,55,40
75760,note_on,40,0,3,,,,,,,,,0,,,47,0
75760,note_on,0,0,3,,,,,,,,,0,,,50,0
75760,note_on,0,0,3,,,,,,,,,0,,,55,40
75760,note_on,0,0,3,,,,,,,,,0,,,50,40
75760,note_on,0,0,3,,,,,,,,,0,,,47,40
75760,note_on,0,0,3,,,,,,,,,0,,,55,0
75780,note_on,60,0,1,,,,,,,,,0,,,69,0
75780,note_on,0,0,1,,,,,,,,,0,,,67,50
75800,note_on,40,0,3,,,,,,,,,0,,,47,0
75800,note_on,0,0,3,,,,,,,,,0,,,50,0
75800,note_on,0,0,3,,,,,,,,,0,,,47,40
75800,note_on,0,0,3,,,,,,,,,0,,,50,40
75800,note_on,0,0,3,,,,,,,,,0,,,55,40
75800,note_on,0,0,3,,,,,,,,,0,,,55,0
75825,control_change,105,0,4,,,,,,,,,0,64,0,,
75840,note_on,0,0,3,,,,,,,,,0,,,55,0
75840,note_on,60,0,1,,,,,,,,,0,,,67,0
75840,note_on,0,0,1,,,,,,,,,0,,,78,50
75840,note_on,0,0,1,,,,,,,,,0,,,74,50
75840,note_on,0,0,1,,,,,,,,,0,,,66,50
75840,set_tempo,1440,1,0,,,,,,536241,,,,,,,
75840,note_on,0,0,3,,,,,,,,,0,,,50,0
75840,control_change,15,0,4,,,,,,,,,0,64,127,,
75840,note_on,0,0,3,,,,,,,,,0,,,36,40
75840,note_on,40,0,3,,,,,,,,,0,,,47,0
75854,set_tempo,14,1,0,,,,,,537683,,,,,,,
75861,set_tempo,7,1,0,,,,,,539132,,,,,,,
75868,set_tempo,7,1,0,,,,,,540589,,,,,,,
75875,set_tempo,7,1,0,,,,,,542054,,,,,,,
75880,note_on,40,0,3,,,,,,,,,0,,,36,0
75880,note_on,0,0,3,,,,,,,,,0,,,55,40
75880,note_on,0,0,3,,,,,,,,,0,,,52,40
75880,note_on,0,0,3,,,,,,,,,0,,,48,40
75882,set_tempo,7,1,0,,,,,,543527,,,,,,,
75889,set_tempo,7,1,0,,,,,,545009,,,,,,,
75896,set_tempo,7,1,0,,,,,,546498,,,,,,,
75900,note_on,60,0,1,,,,,,,,,0,,,66,0
75900,note_on,0,0,1,,,,,,,,,0,,,64,50
75900,note_on,0,0,1,,,,,,,,,0,,,78,0
75900,note_on,0,0,1,,,,,,,,,0,,,76,50
75900,note_on,0,0,1,,,,,,,,,0,,,72,50
75900,note_on,0,0,1,,,,,,,,,0,,,74,0
75903,set_tempo,7,1,0,,,,,,547995,,,,,,,
75910,set_tempo,7,1,0,,,,,,549501,,,,,,,
75917,set_tempo,7,1,0,,,,,,551015,,,,,,,
75920,note_on,0,0,3,,,,,,,,,0,,,52,40
75920,note_on,40,0,3,,,,,,,,,0,,,48,0
75920,note_on,0,0,3,,,,,,,,,0,,,52,0
75920,note_on,0,0,3,,,,,,,,,0,,,55,0
75920,note_on,0,0,3,,,,,,,,,0,,,55,40
75920,note_on,0,0,3,,,,,,,,,0,,,48,40
75924,set_tempo,7,1,0,,,,,,552537,,,,,,,
75931,set_tempo,7,1,0,,,,,,554068,,,,,,,
75938,set_tempo,7,1,0,,,,,,555607,,,,,,,
75945,set_tempo,7,1,0,,,,,,557155,,,,,,,
75952,set_tempo,7,1,0,,,,,,558711,,,,,,,
75960,note_on,0,0,1,,,,,,,,,0,,,71,50
75960,note_on,60,0,1,,,,,,,,,0,,,64,0
75960,note_on,0,0,1,,,,,,,,,0,,,72,0
75960,note_on,0,0,1,,,,,,,,,0,,,76,0
75960,note_on,0,0,1,,,,,,,,,0,,,74,50
75960,note_on,0,0,1,,,,,,,,,0,,,62,50
75960,set_tempo,8,1,0,,,,,,560276,,,,,,,
75960,note_on,0,0,3,,,,,,,,,0,,,55,0
75960,note_on,0,0,3,,,,,,,,,0,,,48,40
75960,note_on,0,0,3,,,,,,,,,0,,,52,40
75960,note_on,0,0,3,,,,,,,,,0,,,56,40
75960,note_on,0,0,3,,,,,,,,,0,,,52,0
75960,note_on,40,0,3,,,,,,,,,0,,,48,0
75967,set_tempo,7,1,0,,,,,,561850,,,,,,,
75974,set_tempo,7,1,0,,,,,,563433,,,,,,,
75981,set_tempo,7,1,0,,,,,,565025,,,,,,,
75988,set_tempo,7,1,0,,,,,,566626,,,,,,,
75995,set_tempo,7,1,0,,,,,,568236,,,,,,,
76000,note_on,40,0,3,,,,,,,,,0,,,48,0
76000,note_on,0,0,3,,,,,,,,,0,,,48,40
76000,note_on,0,0,3,,,,,,,,,0,,,52,0
76000,note_on,0,0,3,,,,,,,,,0,,,56,0
76000,note_on,0,0,3,,,,,,,,,0,,,56,40
76000,note_on,0,0,3,,,,,,,,,0,,,52,40
76002,set_tempo,7,1,0,,,,,,569855,,,,,,,
76009,set_tempo,7,1,0,,,,,,571483,,,,,,,
76016,set_tempo,7,1,0,,,,,,573121,,,,,,,
76020,note_on,0,0,1,,,,,,,,,0,,,71,0
76020,note_on,0,0,1,,,,,,,,,0,,,74,0
76020,note_on,0,0,1,,,,,,,,,0,,,72,50
76020,note_on,0,0,1,,,,,,,,,0,,,69,50
76020,note_on,0,0,1,,,,,,,,,0,,,60,50
76020,note_on,60,0,1,,,,,,,,,0,,,62,0
76023,set_tempo,7,1,0,,,,,,574768,,,,,,,
76030,set_tempo,7,1,0,,,,,,576424,,,,,,,
76037,set_tempo,7,1,0,,,,,,578090,,,,,,,
76040,note_on,40,0,3,,,,,,,,,0,,,48,0
76040,note_on,0,0,3,,,,,,,,,0,,,52,0
76040,note_on,0,0,3,,,,,,,,,0,,,56,0
76040,note_on,0,0,3,,,,,,,,,0,,,57,40
76040,note_on,0,0,3,,,,,,,,,0,,,52,40
76040,note_on,0,0,3,,,,,,,,,0,,,48,40
76044,set_tempo,7,1,0,,,,,,579766,,,,,,,
76051,set_tempo,7,1,0,,,,,,581452,,,,,,,
76058,set_tempo,7,1,0,,,,,,583147,,,,,,,
76065,set_tempo,7,1,0,,,,,,584852,,,,,,,
76065,control_change,225,0,4,,,,,,,,,0,64,0,,
76072,set_tempo,7,1,0,,,,,,586568,,,,,,,
76080,note_on,60,0,1,,,,,,,,,0,,,60,0
76080,note_on,0,0,1,,,,,,,,,0,,,69,0
76080,note_on,0,0,1,,,,,,,,,0,,,72,0
76080,note_on,0,0,1,,,,,,,,,0,,,59,50
76080,note_on,0,0,1,,,,,,,,,0,,,71,50
76080,note_on,0,0,3,,,,,,,,,0,,,52,0
76080,note_on,0,0,3,,,,,,,,,0,,,57,0
76080,note_on,0,0,3,,,,,,,,,0,,,38,40
76080,note_on,40,0,3,,,,,,,,,0,,,48,0
76080,set_tempo,8,1,0,,,,,,588293,,,,,,,
76080,note_on,0,0,1,,,,,,,,,0,,,67,50
76080,control_change,15,0,4,,,,,,,,,0,64,127,,
76087,set_tempo,7,1,0,,,,,,590029,,,,,,,
76094,set_tempo,7,1,0,,,,,,591774,,,,,,,
76101,set_tempo,7,1,0,,,,,,593531,,,,,,,
76108,set_tempo,7,1,0,,,,,,595297,,,,,,,
76115,set_tempo,7,1,0,,,,,,597074,,,,,,,
76120,note_on,0,0,3,,,,,,,,,0,,,50,40
76120,note_on,0,0,3,,,,,,,,,0,,,55,40
76120,note_on,40,0,3,,,,,,,,,0,,,38,0
76122,set_tempo,7,1,0,,,,,,598862,,,,,,,
76129,set_tempo,7,1,0,,,,,,600661,,,,,,,
76136,set_tempo,7,1,0,,,,,,602470,,,,,,,
76143,set_tempo,7,1,0,,,,,,604290,,,,,,,
76150,set_tempo,7,1,0,,,,,,606122,,,,,,,
76157,set_tempo,7,1,0,,,,,,607964,,,,,,,
76160,note_on,0,0,3,,,,,,,,,0,,,50,40
76160,note_on,0,0,3,,,,,,,,,0,,,55,0
76160,note_on,0,0,3,,,,,,,,,0,,,55,40
76160,note_on,40,0,3,,,,,,,,,0,,,50,0
76164,set_tempo,7,1,0,,,,,,609818,,,,,,,
76171,set_tempo,7,1,0,,,,,,611683,,,,,,,
76178,set_tempo,7,1,0,,,,,,613560,,,,,,,
76185,control_change,105,0,4,,,,,,,,,0,64,0,,
76185,set_tempo,7,1,0,,,,,,615448,,,,,,,
76192,set_tempo,7,1,0,,,,,,617347,,,,,,,
76200,note_on,0,0,1,,,,,,,,,0,,,72,50
76200,note_on,0,0,3,,,,,,,,,0,,,38,40
76200,note_on,0,0,3,,,,,,,,,0,,,55,0
76200,note_on,40,0,3,,,,,,,,,0,,,50,0
76200,control_change,15,0,4,,,,,,,,,0,64,127,,
76200,set_tempo,8,1,0,,,,,,619259,,,,,,,
76200,note_on,0,0,1,,,,,,,,,0,,,66,50
76200,note_on,120,0,1,,,,,,,,,0,,,71,0
76200,note_on,0,0,1,,,,,,,,,0,,,67,0
76200,note_on,0,0,1,,,,,,,,,0,,,60,50
76200,note_on,0,0,1,,,,,,,,,0,,,59,0
76207,set_tempo,7,1,0,,,,,,621182,,,,,,,
76214,set_tempo,7,1,0,,,,,,623118,,,,,,,
76221,set_tempo,7,1,0,,,,,,625065,,,,,,,
76228,set_tempo,7,1,0,,,,,,627025,,,,,,,
76235,set_tempo,7,1,0,,,,,,628997,,,,,,,
76240,note_on,0,0,3,,,,,,,,,0,,,57,40
76240,note_on,40,0,3,,,,,,,,,0,,,38,0
76240,note_on,0,0,3,,,,,,,,,0,,,50,40
76240,note_on,0,0,3,,,,,,,,,0,,,54,40
76242,set_tempo,7,1,0,,,,,,630981,,,,,,,
76249,set_tempo,7,1,0,,,,,,632978,,,,,,,
76256,set_tempo,7,1,0,,,,,,634988,,,,,,,
76263,set_tempo,7,1,0,,,,,,637010,,,,,,,
76270,set_tempo,7,1,0,,,,,,639046,,,,,,,
76277,set_tempo,7,1,0,,,,,,641094,,,,,,,
76280,note_on,40,0,3,,,,,,,,,0,,,50,0
76280,note_on,0,0,3,,,,,,,,,0,,,54,0
76280,note_on,0,0,3,,,,,,,,,0,,,57,0
76280,note_on,0,0,3,,,,,,,,,0,,,57,40
76280,note_on,0,0,3,,,,,,,,,0,,,54,40
76280,note_on,0,0,3,,,,,,,,,0,,,50,40
76284,set_tempo,7,1,0,,,,,,643156,,,,,,,
76290,note_on,0,0,1,,,,,,,,,0,,,69,50
76290,note_on,90,0,1,,,,,,,,,0,,,72,0
76291,set_tempo,7,1,0,,,,,,645231,,,,,,,
76298,set_tempo,7,1,0,,,,,,647319,,,,,,,
76305,set_tempo,7,1,0,,,,,,649421,,,,,,,
76305,control_change,105,0,4,,,,,,,,,0,64,0,,
76312,set_tempo,7,1,0,,,,,,651537,,,,,,,
76320,set_tempo,8,1,0,,,,,,535714,,,,,,,
76320,note_on,0,0,3,,,,,,,,,0,,,50,50
76320,note_on,0,0,3,,,,,,,,,0,,,43,50
76320,note_on,0,0,3,,,,,,,,,0,,,57,0
76320,note_on,0,0,3,,,,,,,,,0,,,54,0
76320,note_on,40,0,3,,,,,,,,,0,,,50,0
76320,note_on,0,0,1,,,,,,,,,0,,,67,40
76320,note_on,0,0,1,,,,,,,,,0,,,59,40
76320,note_on,0,0,1,,,,,,,,,0,,,60,0
76320,note_on,30,0,1,,,,,,,,,0,,,69,0
76320,note_on,0,0,3,,,,,,,,,0,,,55,50
76320,note_on,0,0,1,,,,,,,,,0,,,66,0
76360,note_on,0,0,1,,,,,,,,,0,,,67,40
76360,note_on,0,0,1,,,,,,,,,0,,,55,40
76360,note_on,0,0,1,,,,,,,,,0,,,59,0
76360,note_on,40,0,1,,,,,,,,,0,,,67,0
76400,note_on,0,0,1,,,,,,,,,0,,,55,0
76400,note_on,0,0,1,,,,,,,,,0,,,67,40
76400,note_on,0,0,1,,,,,,,,,0,,,55,40
76400,note_on,40,0,1,,,,,,,,,0,,,67,0
76440,note_on,0,0,3,,,,,,,,,0,,,50,0
76440,note_on,0,0,3,,,,,,,,,0,,,43,0
76440,note_on,120,0,3,,,,,,,,,0,,,55,0
76440,note_on,0,0,1,,,,,,,,,0,,,55,0
76440,note_on,0,0,1,,,,,,,,,0,,,67,40
76440,note_on,0,0,1,,,,,,,,,0,,,55,40
76440,note_on,40,0,1,,,,,,,,,0,,,67,0
76480,note_on,40,0,1,,,,,,,,,0,,,55,0
76480,note_on,0,0,1,,,,,,,,,0,,,67,0
76480,note_on,0,0,1,,,,,,,,,0,,,55,40
76480,note_on,0,0,1,,,,,,,,,0,,,67,40
76520,note_on,40,0,1,,,,,,,,,0,,,55,0
76520,note_on,0,0,1,,,,,,,,,0,,,55,40
76520,note_on,0,0,1,,,,,,,,,0,,,67,40
76520,note_on,0,0,1,,,,,,,,,0,,,67,0
76560,note_on,40,0,1,,,,,,,,,0,,,55,0
76560,note_on,0,0,1,,,,,,,,,0,,,67,40
76560,note_on,0,0,1,,,,,,,,,0,,,55,40
76560,note_on,0,0,1,,,,,,,,,0,,,67,0
76600,note_on,0,0,1,,,,,,,,,0,,,55,0
76600,note_on,40,0,1,,,,,,,,,0,,,67,0
76600,note_on,0,0,1,,,,,,,,,0,,,55,40
76600,note_on,0,0,1,,,,,,,,,0,,,67,40
76640,note_on,0,0,1,,,,,,,,,0,,,55,40
76640,note_on,0,0,1,,,,,,,,,0,,,55,0
76640,note_on,40,0,1,,,,,,,,,0,,,67,0
76640,note_on,0,0,1,,,,,,,,,0,,,67,40
76680,note_on,240,0,3,,,,,,,,,0,,,47,50
76680,note_on,40,0,1,,,,,,,,,0,,,67,0
76680,note_on,0,0,1,,,,,,,,,0,,,55,0
76680,note_on,0,0,1,,,,,,,,,0,,,67,40
76680,note_on,0,0,1,,,,,,,,,0,,,55,40
76720,note_on,40,0,1,,,,,,,,,0,,,55,0
76720,note_on,0,0,1,,,,,,,,,0,,,67,0
76720,note_on,0,0,1,,,,,,,,,0,,,67,40
76720,note_on,0,0,1,,,,,,,,,0,,,55,40
76760,note_on,40,0,1,,,,,,,,,0,,,55,0
76760,note_on,0,0,1,,,,,,,,,0,,,67,0
76760,note_on,0,0,1,,,,,,,,,0,,,67,40
76760,note_on,0,0,1,,,,,,,,,0,,,55,40
76770,note_on,0,0,3,,,,,,,,,0,,,48,50
76770,note_on,90,0,3,,,,,,,,,0,,,47,0
76800,note_on,40,0,1,,,,,,,,,0,,,55,0
76800,note_on,0,0,1,,,,,,,,,0,,,67,0
76800,note_on,0,0,3,,,,,,,,,0,,,50,50
76800,note_on,30,0,3,,,,,,,,,0,,,48,0
76800,note_on,0,0,1,,,,,,,,,0,,,55,40
76800,note_on,0,0,1,,,,,,,,,0,,,67,40
76840,note_on,0,0,1,,,,,,,,,0,,,67,40
76840,note_on,0,0,1,,,,,,,,,0,,,55,40
76840,note_on,0,0,1,,,,,,,,,0,,,55,0
76840,note_on,40,0,1,,,,,,,,,0,,,67,0
76880,note_on,0,0,1,,,,,,,,,0,,,55,0
76880,note_on,0,0,1,,,,,,,,,0,,,67,40
76880,note_on,0,0,1,,,,,,,,,0,,,55,40
76880,note_on,40,0,1,,,,,,,,,0,,,67,0
76920,note_on,0,0,1,,,,,,,,,0,,,55,40
76920,note_on,0,0,1,,,,,,,,,0,,,67,40
76920,note_on,0,0,1,,,,,,,,,0,,,55,0
76920,note_on,40,0,1,,,,,,,,,0,,,67,0
76920,note_on,0,0,3,,,,,,,,,0,,,50,50
76920,note_on,120,0,3,,,,,,,,,0,,,50,0
76960,note_on,0,0,1,,,,,,,,,0,,,67,40
76960,note_on,0,0,1,,,,,,,,,0,,,67,0
76960,note_on,40,0,1,,,,,,,,,0,,,55,0
76960,note_on,0,0,1,,,,,,,,,0,,,55,40
77000,note_on,40,0,1,,,,,,,,,0,,,55,0
77000,note_on,0,0,1,,,,,,,,,0,,,67,0
77000,note_on,0,0,1,,,,,,,,,0,,,55,40
77000,note_on,0,0,1,,,,,,,,,0,,,67,40
77040,note_on,0,0,1,,,,,,,,,0,,,55,40
77040,note_on,0,0,1,,,,,,,,,0,,,67,0
77040,note_on,40,0,1,,,,,,,,,0,,,55,0
77040,note_on,120,0,3,,,,,,,,,0,,,50,0
77040,note_on,0,0,3,,,,,,,,,0,,,50,50
77040,note_on,0,0,1,,,,,,,,,0,,,67,40
77080,note_on,0,0,1,,,,,,,,,0,,,55,40
77080,note_on,40,0,1,,,,,,,,,0,,,67,0
77080,note_on,0,0,1,,,,,,,,,0,,,67,40
77080,note_on,0,0,1,,,,,,,,,0,,,55,0
77120,note_on,0,0,1,,,,,,,,,0,,,55,0
77120,note_on,0,0,1,,,,,,,,,0,,,55,40
77120,note_on,0,0,1,,,,,,,,,0,,,67,40
77120,note_on,40,0,1,,,,,,,,,0,,,67,0
77160,note_on,40,0,1,,,,,,,,,0,,,67,0
77160,note_on,0,0,1,,,,,,,,,0,,,55,40
77160,note_on,0,0,1,,,,,,,,,0,,,55,0
77160,note_on,0,0,1,,,,,,,,,0,,,67,40
77160,note_on,0,0,3,,,,,,,,,0,,,48,50
77160,note_on,120,0,3,,,,,,,,,0,,,50,0
77200,note_on,40,0,1,,,,,,,,,0,,,55,0
77200,note_on,0,0,1,,,,,,,,,0,,,67,40
77200,note_on,0,0,1,,,,,,,,,0,,,55,40
77200,note_on,0,0,1,,,,,,,,,0,,,67,0
77240,note_on,40,0,1,,,,,,,,,0,,,55,0
77240,note_on,0,0,1,,,,,,,,,0,,,67,0
77240,note_on,0,0,1,,,,,,,,,0,,,67,40
77240,note_on,0,0,1,,,,,,,,,0,,,55,40
77250,note_on,0,0,3,,,,,,,,,0,,,50,50
77250,note_on,90,0,3,,,,,,,,,0,,,48,0
77280,note_on,30,0,3,,,,,,,,,0,,,50,0
77280,note_on,0,0,1,,,,,,,,,0,,,67,40
77280,note_on,0,0,3,,,,,,,,,0,,,51,50
77280,note_on,0,0,1,,,,,,,,,0,,,55,40
77280,note_on,40,0,1,,,,,,,,,0,,,55,0
77280,note_on,0,0,1,,,,,,,,,0,,,67,0
77320,note_on,40,0,1,,,,,,,,,0,,,67,0
77320,note_on,0,0,1,,,,,,,,,0,,,55,0
77320,note_on,0,0,1,,,,,,,,,0,,,55,40
77320,note_on,0,0,1,,,,,,,,,0,,,67,40
77360,note_on,0,0,1,,,,,,,,,0,,,67,40
77360,note_on,40,0,1,,,,,,,,,0,,,67,0
77360,note_on,0,0,1,,,,,,,,,0,,,55,0
77360,note_on,0,0,1,,,,,,,,,0,,,55,40
77400,note_on,0,0,1,,,,,,,,,0,,,67,40
77400,note_on,0,0,1,,,,,,,,,0,,,55,0
77400,note_on,0,0,1,,,,,,,,,0,,,55,40
77400,note_on,40,0,1,,,,,,,,,0,,,67,0
77440,note_on,40,0,1,,,,,,,,,0,,,55,0
77440,note_on,0,0,1,,,,,,,,,0,,,67,0
77440,note_on,0,0,1,,,,,,,,,0,,,67,40
77440,note_on,0,0,1,,,,,,,,,0,,,55,40
77460,note_on,0,0,3,,,,,,,,,0,,,50,50
77460,note_on,180,0,3,,,,,,,,,0,,,51,0
77480,note_on,0,0,1,,,,,,,,,0,,,55,40
77480,note_on,0,0,1,,,,,,,,,0,,,67,0
77480,note_on,40,0,1,,,,,,,,,0,,,55,0
77480,note_on,0,0,1,,,,,,,,,0,,,67,40
77520,note_on,0,0,1,,,,,,,,,0,,,67,0
77520,note_on,0,0,1,,,,,,,,,0,,,55,40
77520,note_on,0,0,1,,,,,,,,,0,,,67,40
77520,note_on,60,0,3,,,,,,,,,0,,,50,0
77520,note_on,0,0,3,,,,,,,,,0,,,48,50
77520,note_on,40,0,1,,,,,,,,,0,,,55,0
77560,note_on,40,0,1,,,,,,,,,0,,,67,0
77560,note_on,0,0,1,,,,,,,,,0,,,55,0
77560,note_on,0,0,1,,,,,,,,,0,,,55,40
77560,note_on,0,0,1,,,,,,,,,0,,,67,40
77600,note_on,40,0,1,,,,,,,,,0,,,67,0
77600,note_on,0,0,1,,,,,,,,,0,,,55,0
77600,note_on,0,0,1,,,,,,,,,0,,,55,40
77600,note_on,0,0,1,,,,,,,,,0,,,67,40
77640,note_on,0,0,1,,,,,,,,,0,,,55,40
77640,note_on,0,0,1,,,,,,,,,0,,,67,40
77640,note_on,0,0,1,,,,,,,,,0,,,55,0
77640,note_on,40,0,1,,,,,,,,,0,,,67,0
77640,note_on,0,0,3,,,,,,,,,0,,,46,50
77640,note_on,120,0,3,,,,,,,,,0,,,48,0
77680,note_on,40,0,1,,,,,,,,,0,,,55,0
77680,note_on,0,0,1,,,,,,,,,0,,,67,0
77680,note_on,0,0,1,,,,,,,,,0,,,67,40
77680,note_on,0,0,1,,,,,,,,,0,,,55,40
77720,note_on,0,0,1,,,,,,,,,0,,,53,40
77720,note_on,0,0,1,,,,,,,,,0,,,67,0
77720,note_on,40,0,1,,,,,,,,,0,,,55,0
77720,note_on,0,0,1,,,,,,,,,0,,,65,40
77730,note_on,90,0,3,,,,,,,,,0,,,46,0
77730,note_on,0,0,3,,,,,,,,,0,,,44,50
77760,note_on,30,0,3,,,,,,,,,0,,,44,0
77760,note_on,0,0,3,,,,,,,,,0,,,43,50
77760,note_on,40,0,1,,,,,,,,,0,,,53,0
77760,note_on,0,0,1,,,,,,,,,0,,,60,40
77760,note_on,0,0,1,,,,,,,,,0,,,67,40
77760,note_on,0,0,1,,,,,,,,,0,,,55,40
77760,note_on,0,0,1,,,,,,,,,0,,,63,40
77760,note_on,0,0,1,,,,,,,,,0,,,65,0
77800,note_on,0,0,1,,,,,,,,,0,,,67,40
77800,note_on,40,0,1,,,,,,,,,0,,,67,0
77800,note_on,0,0,1,,,,,,,,,0,,,60,40
77800,note_on,0,0,1,,,,,,,,,0,,,55,0
77800,note_on,0,0,1,,,,,,,,,0,,,60,0
77800,note_on,0,0,1,,,,,,,,,0,,,63,0
77800,note_on,0,0,1,,,,,,,,,0,,,55,40
77800,note_on,0,0,1,,,,,,,,,0,,,63,40
77840,note_on,0,0,1,,,,,,,,,0,,,63,40
77840,note_on,0,0,1,,,,,,,,,0,,,67,40
77840,note_on,0,0,1,,,,,,,,,0,,,55,40
77840,note_on,0,0,1,,,,,,,,,0,,,63,0
77840,note_on,0,0,1,,,,,,,,,0,,,60,0
77840,note_on,0,0,1,,,,,,,,,0,,,55,0
77840,note_on,40,0,1,,,,,,,,,0,,,67,0
77840,note_on,0,0,1,,,,,,,,,0,,,60,40
77880,note_on,0,0,3,,,,,,,,,0,,,43,50
77880,note_on,40,0,1,,,,,,,,,0,,,67,0
77880,note_on,0,0,1,,,,,,,,,0,,,55,0
77880,note_on,0,0,1,,,,,,,,,0,,,63,0
77880,note_on,0,0,1,,,,,,,,,0,,,55,40
77880,note_on,0,0,1,,,,,,,,,0,,,60,40
77880,note_on,0,0,1,,,,,,,,,0,,,63,40
77880,note_on,0,0,1,,,,,,,,,0,,,67,40
77880,note_on,120,0,3,,,,,,,,,0,,,43,0
77880,note_on,0,0,1,,,,,,,,,0,,,60,0
77920,note_on,0,0,1,,,,,,,,,0,,,55,40
77920,note_on,0,0,1,,,,,,,,,0,,,55,0
77920,note_on,40,0,1,,,,,,,,,0,,,67,0
77920,note_on,0,0,1,,,,,,,,,0,,,60,0
77920,note_on,0,0,1,,,,,,,,,0,,,63,0
77920,note_on,0,0,1,,,,,,,,,0,,,60,40
77920,note_on,0,0,1,,,,,,,,,0,,,63,40
77920,note_on,0,0,1,,,,,,,,,0,,,67,40
77960,note_on,40,0,1,,,,,,,,,0,,,67,0
77960,note_on,0,0,1,,,,,,,,,0,,,55,0
77960,note_on,0,0,1,,,,,,,,,0,,,60,0
77960,note_on,0,0,1,,,,,,,,,0,,,63,0
77960,note_on,0,0,1,,,,,,,,,0,,,63,40
77960,note_on,0,0,1,,,,,,,,,0,,,55,40
77960,note_on,0,0,1,,,,,,,,,0,,,60,40
77960,note_on,0,0,1,,,,,,,,,0,,,67,40
78000,note_on,40,0,1,,,,,,,,,0,,,67,0
78000,note_on,120,0,3,,,,,,,,,0,,,43,0
78000,note_on,0,0,3,,,,,,,,,0,,,43,50
78000,note_on,0,0,1,,,,,,,,,0,,,62,40
78000,note_on,0,0,1,,,,,,,,,0,,,59,40
78000,note_on,0,0,1,,,,,,,,,0,,,63,0
78000,note_on,0,0,1,,,,,,,,,0,,,60,0
78000,note_on,0,0,1,,,,,,,,,0,,,55,0
78000,note_on,0,0,1,,,,,,,,,0,,,67,40
78000,note_on,0,0,1,,,,,,,,,0,,,55,40
78040,note_on,0,0,1,,,,,,,,,0,,,55,0
78040,note_on,40,0,1,,,,,,,,,0,,,67,0
78040,note_on,0,0,1,,,,,,,,,0,,,59,0
78040,note_on,0,0,1,,,,,,,,,0,,,62,0
78040,note_on,0,0,1,,,,,,,,,0,,,55,40
78040,note_on,0,0,1,,,,,,,,,0,,,59,40
78040,note_on,0,0,1,,,,,,,,,0,,,62,40
78040,note_on,0,0,1,,,,,,,,,0,,,67,40
78080,note_on,40,0,1,,,,,,,,,0,,,67,0
78080,note_on,0,0,1,,,,,,,,,0,,,55,0
78080,note_on,0,0,1,,,,,,,,,0,,,59,0
78080,note_on,0,0,1,,,,,,,,,0,,,62,40
78080,note_on,0,0,1,,,,,,,,,0,,,62,0
78080,note_on,0,0,1,,,,,,,,,0,,,55,40
78080,note_on,0,0,1,,,,,,,,,0,,,59,40
78080,note_on,0,0,1,,,,,,,,,0,,,67,40
78120,note_on,0,0,3,,,,,,,,,0,,,43,50
78120,note_on,120,0,3,,,,,,,,,0,,,43,0
78120,note_on,0,0,1,,,,,,,,,0,,,62,0
78120,note_on,40,0,1,,,,,,,,,0,,,67,0
78120,note_on,0,0,1,,,,,,,,,0,,,55,0
78120,note_on,0,0,1,,,,,,,,,0,,,59,0
78120,note_on,0,0,1,,,,,,,,,0,,,55,40
78120,note_on,0,0,1,,,,,,,,,0,,,59,40
78120,note_on,0,0,1,,,,,,,,,0,,,67,40
78120,note_on,0,0,1,,,,,,,,,0,,,62,40
78160,note_on,0,0,1,,,,,,,,,0,,,62,40
78160,note_on,0,0,1,,,,,,,,,0,,,59,40
78160,note_on,0,0,1,,,,,,,,,0,,,55,40
78160,note_on,0,0,1,,,,,,,,,0,,,62,0
78160,note_on,0,0,1,,,,,,,,,0,,,59,0
78160,note_on,0,0,1,,,,,,,,,0,,,55,0
78160,note_on,40,0,1,,,,,,,,,0,,,67,0
78160,note_on,0,0,1,,,,,,,,,0,,,67,40
78200,note_on,0,0,1,,,,,,,,,0,,,55,40
78200,note_on,0,0,1,,,,,,,,,0,,,59,40
78200,note_on,0,0,1,,,,,,,,,0,,,62,40
78200,note_on,0,0,1,,,,,,,,,0,,,67,40
78200,note_on,40,0,1,,,,,,,,,0,,,67,0
78200,note_on,0,0,1,,,,,,,,,0,,,62,0
78200,note_on,0,0,1,,,,,,,,,0,,,59,0
78200,note_on,0,0,1,,,,,,,,,0,,,55,0
78240,note_on,0,0,1,,,,,,,,,0,,,62,0
78240,note_on,0,0,1,,,,,,,,,0,,,59,0
78240,note_on,0,0,1,,,,,,,,,0,,,55,0
78240,note_on,40,0,1,,,,,,,,,0,,,67,0
78240,note_on,0,0,1,,,,,,,,,0,,,63,40
78240,note_on,0,0,1,,,,,,,,,0,,,67,40
78240,note_on,0,0,1,,,,,,,,,0,,,60,40
78240,note_on,0,0,1,,,,,,,,,0,,,55,40
78240,note_on,0,0,3,,,,,,,,,0,,,48,50
78240,note_on,120,0,3,,,,,,,,,0,,,43,0
78280,note_on,40,0,1,,,,,,,,,0,,,67,0
78280,note_on,0,0,1,,,,,,,,,0,,,55,0
78280,note_on,0,0,1,,,,,,,,,0,,,60,0
78280,note_on,0,0,1,,,,,,,,,0,,,63,0
78280,note_on,0,0,1,,,,,,,,,0,,,55,42
78280,note_on,0,0,1,,,,,,,,,0,,,67,42
78320,note_on,0,0,1,,,,,,,,,0,,,55,0
78320,note_on,40,0,1,,,,,,,,,0,,,67,0
78320,note_on,0,0,1,,,,,,,,,0,,,55,45
78320,note_on,0,0,1,,,,,,,,,0,,,67,45
78360,note_on,0,0,1,,,,,,,,,0,,,67,47
78360,note_on,40,0,1,,,,,,,,,0,,,67,0
78360,note_on,0,0,1,,,,,,,,,0,,,55,0
78360,note_on,0,0,1,,,,,,,,,0,,,55,47
78400,note_on,0,0,1,,,,,,,,,0,,,55,50
78400,note_on,40,0,1,,,,,,,,,0,,,67,0
78400,note_on,0,0,1,,,,,,,,,0,,,55,0
78400,note_on,0,0,1,,,,,,,,,0,,,67,50
78440,note_on,40,0,1,,,,,,,,,0,,,67,0
78440,note_on,0,0,1,,,,,,,,,0,,,55,0
78440,note_on,0,0,1,,,,,,,,,0,,,55,53
78440,note_on,0,0,1,,,,,,,,,0,,,67,53
78480,note_on,240,0,3,,,,,,,,,0,,,48,0
78480,note_on,0,0,1,,,,,,,,,0,,,55,55
78480,note_on,0,0,1,,,,,,,,,0,,,67,55
78480,note_on,40,0,1,,,,,,,,,0,,,67,0
78480,note_on,0,0,1,,,,,,,,,0,,,55,0
78520,note_on,40,0,1,,,,,,,,,0,,,67,0
78520,note_on,0,0,1,,,,,,,,,0,,,55,0
78520,note_on,0,0,1,,,,,,,,,0,,,55,58
78520,note_on,0,0,1,,,,,,,,,0,,,67,58
78560,note_on,40,0,1,,,,,,,,,0,,,67,0
78560,note_on,0,0,1,,,,,,,,,0,,,55,0
78560,note_on,0,0,1,,,,,,,,,0,,,55,61
78560,note_on,0,0,1,,,,,,,,,0,,,67,61
78600,note_on,40,0,1,,,,,,,,,0,,,67,0
78600,note_on,0,0,1,,,,,,,,,0,,,55,63
78600,note_on,120,0,3,,,,,,,,,0,,,35,73
78600,note_on,0,0,3,,,,,,,,,0,,,47,73
78600,note_on,0,0,1,,,,,,,,,0,,,55,0
78600,note_on,0,0,1,,,,,,,,,0,,,67,63
78640,note_on,0,0,1,,,,,,,,,0,,,67,66
78640,note_on,0,0,1,,,,,,,,,0,,,55,66
78640,note_on,0,0,1,,,,,,,,,0,,,55,0
78640,note_on,40,0,1,,,,,,,,,0,,,67,0
78680,note_on,0,0,1,,,,,,,,,0,,,55,0
78680,note_on,40,0,1,,,,,,,,,0,,,67,0
78680,note_on,0,0,1,,,,,,,,,0,,,67,69
78680,note_on,0,0,1,,,,,,,,,0,,,55,69
78690,note_on,0,0,3,,,,,,,,,0,,,48,79
78690,note_on,0,0,3,,,,,,,,,0,,,36,79
78690,note_on,0,0,3,,,,,,,,,0,,,35,0
78690,note_on,90,0,3,,,,,,,,,0,,,47,0
78720,note_on,0,0,3,,,,,,,,,0,,,50,81
78720,note_on,0,0,1,,,,,,,,,0,,,67,71
78720,note_on,0,0,1,,,,,,,,,0,,,55,71
78720,note_on,0,0,1,,,,,,,,,0,,,55,0
78720,note_on,0,0,3,,,,,,,,,0,,,38,81
78720,note_on,30,0,3,,,,,,,,,0,,,48,0
78720,note_on,0,0,3,,,,,,,,,0,,,36,0
78720,note_on,40,0,1,,,,,,,,,0,,,67,0
78760,note_on,0,0,1,,,,,,,,,0,,,55,0
78760,note_on,0,0,1,,,,,,,,,0,,,55,74
78760,note_on,0,0,1,,,,,,,,,0,,,67,74
78760,note_on,40,0,1,,,,,,,,,0,,,67,0
78800,note_on,40,0,1,,,,,,,,,0,,,67,0
78800,note_on,0,0,1,,,,,,,,,0,,,55,0
78800,note_on,0,0,1,,,,,,,,,0,,,55,77
78800,note_on,0,0,1,,,,,,,,,0,,,67,77
78840,note_on,120,0,3,,,,,,,,,0,,,50,0
78840,note_on,40,0,1,,,,,,,,,0,,,67,0
78840,note_on,0,0,1,,,,,,,,,0,,,55,0
78840,note_on,0,0,1,,,,,,,,,0,,,67,79
78840,note_on,0,0,1,,,,,,,,,0,,,55,79
78840,note_on,0,0,3,,,,,,,,,0,,,38,0
78840,note_on,0,0,3,,,,,,,,,0,,,38,89
78840,note_on,0,0,3,,,,,,,,,0,,,50,89
78880,note_on,0,0,1,,,,,,,,,0,,,67,82
78880,note_on,0,0,1,,,,,,,,,0,,,67,0
78880,note_on,40,0,1,,,,,,,,,0,,,55,0
78880,note_on,0,0,1,,,,,,,,,0,,,55,82
78920,note_on,40,0,1,,,,,,,,,0,,,55,0
78920,note_on,0,0,1,,,,,,,,,0,,,67,0
78920,note_on,0,0,1,,,,,,,,,0,,,67,85
78920,note_on,0,0,1,,,,,,,,,0,,,55,85
78960,note_on,120,0,3,,,,,,,,,0,,,50,0
78960,note_on,0,0,3,,,,,,,,,0,,,38,0
78960,note_on,0,0,3,,,,,,,,,0,,,38,97
78960,note_on,0,0,3,,,,,,,,,0,,,50,97
78960,note_on,40,0,1,,,,,,,,,0,,,55,0
78960,note_on,0,0,1,,,,,,,,,0,,,55,87
78960,note_on,0,0,1,,,,,,,,,0,,,67,87
78960,note_on,0,0,1,,,,,,,,,0,,,67,0
79000,note_on,40,0,1,,,,,,,,,0,,,67,0
79000,note_on,0,0,1,,,,,,,,,0,,,55,0
79000,note_on,0,0,1,,,,,,,,,0,,,55,90
79000,note_on,0,0,1,,,,,,,,,0,,,67,90
79040,note_on,0,0,1,,,,,,,,,0,,,55,0
79040,note_on,0,0,1,,,,,,,,,0,,,55,93
79040,note_on,0,0,1,,,,,,,,,0,,,67,93
79040,note_on,40,0,1,,,,,,,,,0,,,67,0
79080,note_on,0,0,1,,,,,,,,,0,,,55,0
79080,note_on,0,0,1,,,,,,,,,0,,,68,95
79080,note_on,0,0,1,,,,,,,,,0,,,56,95
79080,note_on,40,0,1,,,,,,,,,0,,,67,0
79080,note_on,0,0,3,,,,,,,,,0,,,38,0
79080,note_on,0,0,3,,,,,,,,,0,,,36,105
79080,note_on,0,0,3,,,,,,,,,0,,,48,105
79080,note_on,120,0,3,,,,,,,,,0,,,50,0
79120,note_on,0,0,1,,,,,,,,,0,,,56,98
79120,note_on,0,0,1,,,,,,,,,0,,,68,98
79120,note_on,0,0,1,,,,,,,,,0,,,68,0
79120,note_on,40,0,1,,,,,,,,,0,,,56,0
79160,note_on,0,0,1,,,,,,,,,0,,,68,100
79160,note_on,0,0,1,,,,,,,,,0,,,68,0
79160,note_on,40,0,1,,,,,,,,,0,,,56,0
79160,note_on,0,0,1,,,,,,,,,0,,,56,100
79170,note_on,90,0,3,,,,,,,,,0,,,48,0
79170,note_on,0,0,3,,,,,,,,,0,,,50,110
79170,note_on,0,0,3,,,,,,,,,0,,,38,110
79170,note_on,0,0,3,,,,,,,,,0,,,36,0
79200,note_on,0,0,3,,,,,,,,,0,,,51,110
79200,note_on,0,0,1,,,,,,,,,0,,,67,100
79200,note_on,0,0,1,,,,,,,,,0,,,55,100
79200,note_on,0,0,3,,,,,,,,,0,,,39,110
79200,note_on,0,0,3,,,,,,,,,0,,,38,0
79200,note_on,30,0,3,,,,,,,,,0,,,50,0
79200,note_on,0,0,1,,,,,,,,,0,,,68,0
79200,note_on,40,0,1,,,,,,,,,0,,,56,0
79240,note_on,0,0,1,,,,,,,,,0,,,67,97
79240,note_on,0,0,1,,,,,,,,,0,,,55,97
79240,note_on,40,0,1,,,,,,,,,0,,,67,0
79240,note_on,0,0,1,,,,,,,,,0,,,55,0
79280,note_on,40,0,1,,,,,,,,,0,,,67,0
79280,note_on,0,0,1,,,,,,,,,0,,,55,0
79280,note_on,0,0,1,,,,,,,,,0,,,55,93
79280,note_on,0,0,1,,,,,,,,,0,,,67,93
79320,note_on,0,0,1,,,,,,,,,0,,,55,90
79320,note_on,0,0,1,,,,,,,,,0,,,67,90
79320,note_on,40,0,1,,,,,,,,,0,,,67,0
79320,note_on,0,0,1,,,,,,,,,0,,,55,0
79360,note_on,40,0,1,,,,,,,,,0,,,67,0
79360,note_on,0,0,1,,,,,,,,,0,,,55,0
79360,note_on,0,0,1,,,,,,,,,0,,,55,86
79360,note_on,0,0,1,,,,,,,,,0,,,67,86
79380,note_on,180,0,3,,,,,,,,,0,,,51,0
79380,note_on,0,0,3,,,,,,,,,0,,,50,94
79380,note_on,0,0,3,,,,,,,,,0,,,38,94
79380,note_on,0,0,3,,,,,,,,,0,,,39,0
79400,note_on,40,0,1,,,,,,,,,0,,,67,0
79400,note_on,0,0,1,,,,,,,,,0,,,55,0
79400,note_on,0,0,1,,,,,,,,,0,,,55,82
79400,note_on,0,0,1,,,,,,,,,0,,,67,82
79440,note_on,0,0,1,,,,,,,,,0,,,67,79
79440,note_on,0,0,1,,,,,,,,,0,,,55,79
79440,note_on,0,0,1,,,,,,,,,0,,,55,0
79440,note_on,0,0,3,,,,,,,,,0,,,38,0
79440,note_on,0,0,3,,,,,,,,,0,,,48,89
79440,note_on,60,0,3,,,,,,,,,0,,,50,0
79440,note_on,40,0,1,,,,,,,,,0,,,67,0
79440,note_on,0,0,3,,,,,,,,,0,,,36,89
79480,note_on,40,0,1,,,,,,,,,0,,,67,0
79480,note_on,0,0,1,,,,,,,,,0,,,55,0
79480,note_on,0,0,1,,,,,,,,,0,,,55,75
79480,note_on,0,0,1,,,,,,,,,0,,,67,75
79520,note_on,0,0,1,,,,,,,,,0,,,55,0
79520,note_on,0,0,1,,,,,,,,,0,,,67,71
79520,note_on,0,0,1,,,,,,,,,0,,,55,71
79520,note_on,40,0,1,,,,,,,,,0,,,67,0
79560,note_on,0,0,3,,,,,,,,,0,,,36,0
79560,note_on,0,0,1,,,,,,,,,0,,,55,68
79560,note_on,0,0,1,,,,,,,,,0,,,55,0
79560,note_on,40,0,1,,,,,,,,,0,,,67,0
79560,note_on,0,0,3,,,,,,,,,0,,,46,78
79560,note_on,0,0,3,,,,,,,,,0,,,34,78
79560,note_on,0,0,1,,,,,,,,,0,,,67,68
79560,note_on,120,0,3,,,,,,,,,0,,,48,0
79600,note_on,40,0,1,,,,,,,,,0,,,67,0
79600,note_on,0,0,1,,,,,,,,,0,,,55,64
79600,note_on,0,0,1,,,,,,,,,0,,,67,64
79600,note_on,0,0,1,,,,,,,,,0,,,55,0
79640,note_on,40,0,1,,,,,,,,,0,,,67,0
79640,note_on,0,0,1,,,,,,,,,0,,,53,61
79640,note_on,0,0,1,,,,,,,,,0,,,65,61
79640,note_on,0,0,1,,,,,,,,,0,,,55,0
79650,note_on,0,0,3,,,,,,,,,0,,,34,0
79650,note_on,0,0,3,,,,,,,,,0,,,32,70
79650,note_on,90,0,3,,,,,,,,,0,,,46,0
79650,note_on,0,0,3,,,,,,,,,0,,,44,70
79680,note_on,0,0,1,,,,,,,,,0,,,67,60
79680,note_on,0,0,1,,,,,,,,,0,,,63,60
79680,note_on,0,0,1,,,,,,,,,0,,,60,60
79680,note_on,0,0,1,,,,,,,,,0,,,55,60
79680,note_on,0,0,3,,,,,,,,,0,,,43,70
79680,note_on,40,0,1,,,,,,,,,0,,,65,0
79680,note_on,30,0,3,,,,,,,,,0,,,44,0
79680,note_on,0,0,3,,,,,,,,,0,,,32,0
79680,note_on,0,0,3,,,,,,,,,0,,,31,70
79680,note_on,0,0,1,,,,,,,,,0,,,53,0
79720,note_on,0,0,1,,,,,,,,,0,,,67,60
79720,note_on,0,0,1,,,,,,,,,0,,,63,60
79720,note_on,0,0,1,,,,,,,,,0,,,55,60
79720,note_on,0,0,1,,,,,,,,,0,,,60,60
79720,note_on,0,0,1,,,,,,,,,0,,,60,0
79720,note_on,40,0,1,,,,,,,,,0,,,67,0
79720,note_on,0,0,1,,,,,,,,,0,,,63,0
79720,note_on,0,0,1,,,,,,,,,0,,,55,0
79760,note_on,0,0,1,,,,,,,,,0,,,63,60
79760,note_on,40,0,1,,,,,,,,,0,,,67,0
79760,note_on,0,0,1,,,,,,,,,0,,,55,0
79760,note_on,0,0,1,,,,,,,,,0,,,60,0
79760,note_on,0,0,1,,,,,,,,,0,,,63,0
79760,note_on,0,0,1,,,,,,,,,0,,,55,60
79760,note_on,0,0,1,,,,,,,,,0,,,60,60
79760,note_on,0,0,1,,,,,,,,,0,,,67,60
79800,note_on,0,0,1,,,,,,,,,0,,,60,60
79800,note_on,0,0,1,,,,,,,,,0,,,55,60
79800,note_on,0,0,1,,,,,,,,,0,,,63,0
79800,note_on,0,0,1,,,,,,,,,0,,,60,0
79800,note_on,0,0,1,,,,,,,,,0,,,55,0
79800,note_on,40,0,1,,,,,,,,,0,,,67,0
79800,note_on,0,0,1,,,,,,,,,0,,,67,60
79800,note_on,120,0,3,,,,,,,,,0,,,43,0
79800,note_on,0,0,3,,,,,,,,,0,,,31,0
79800,note_on,0,0,3,,,,,,,,,0,,,31,70
79800,note_on,0,0,3,,,,,,,,,0,,,43,70
79800,note_on,0,0,1,,,,,,,,,0,,,63,60
79840,note_on,0,0,1,,,,,,,,,0,,,67,60
79840,note_on,40,0,1,,,,,,,,,0,,,67,0
79840,note_on,0,0,1,,,,,,,,,0,,,55,0
79840,note_on,0,0,1,,,,,,,,,0,,,60,0
79840,note_on,0,0,1,,,,,,,,,0,,,63,0
79840,note_on,0,0,1,,,,,,,,,0,,,63,60
79840,note_on,0,0,1,,,,,,,,,0,,,55,60
79840,note_on,0,0,1,,,,,,,,,0,,,60,60
79880,note_on,0,0,1,,,,,,,,,0,,,67,60
79880,note_on,40,0,1,,,,,,,,,0,,,67,0
79880,note_on,0,0,1,,,,,,,,,0,,,60,60
79880,note_on,0,0,1,,,,,,,,,0,,,55,60
79880,note_on,0,0,1,,,,,,,,,0,,,63,0
79880,note_on,0,0,1,,,,,,,,,0,,,60,0
79880,note_on,0,0,1,,,,,,,,,0,,,55,0
79880,note_on,0,0,1,,,,,,,,,0,,,63,60
79920,note_on,0,0,3,,,,,,,,,0,,,31,0
79920,note_on,120,0,3,,,,,,,,,0,,,43,0
79920,note_on,0,0,3,,,,,,,,,0,,,31,70
79920,note_on,0,0,1,,,,,,,,,0,,,55,60
79920,note_on,0,0,1,,,,,,,,,0,,,62,60
79920,note_on,0,0,1,,,,,,,,,0,,,59,60
79920,note_on,0,0,1,,,,,,,,,0,,,63,0
79920,note_on,0,0,1,,,,,,,,,0,,,60,0
79920,note_on,0,0,1,,,,,,,,,0,,,55,0
79920,note_on,40,0,1,,,,,,,,,0,,,67,0
79920,note_on,0,0,1,,,,,,,,,0,,,67,60
79920,note_on,0,0,3,,,,,,,,,0,,,43,70
79960,note_on,0,0,1,,,,,,,,,0,,,55,0
79960,note_on,0,0,1,,,,,,,,,0,,,59,60
79960,note_on,40,0,1,,,,,,,,,0,,,67,0
79960,note_on,0,0,1,,,,,,,,,0,,,59,0
79960,note_on,0,0,1,,,,,,,,,0,,,62,0
79960,note_on,0,0,1,,,,,,,,,0,,,55,60
79960,note_on,0,0,1,,,,,,,,,0,,,62,60
79960,note_on,0,0,1,,,,,,,,,0,,,67,60
80000,note_on,0,0,1,,,,,,,,,0,,,59,0
80000,note_on,0,0,1,,,,,,,,,0,,,62,0
80000,note_on,0,0,1,,,,,,,,,0,,,67,60
80000,note_on,0,0,1,,,,,,,,,0,,,62,60
80000,note_on,0,0,1,,,,,,,,,0,,,59,60
80000,note_on,0,0,1,,,,,,,,,0,,,55,60
80000,note_on,0,0,1,,,,,,,,,0,,,55,0
80000,note_on,40,0,1,,,,,,,,,0,,,67,0
80040,note_on,0,0,1,,,,,,,,,0,,,59,0
80040,note_on,40,0,1,,,,,,,,,0,,,67,0
80040,note_on,0,0,1,,,,,,,,,0,,,62,0
80040,note_on,0,0,1,,,,,,,,,0,,,55,60
80040,note_on,0,0,1,,,,,,,,,0,,,59,60
80040,note_on,0,0,1,,,,,,,,,0,,,62,60
80040,note_on,0,0,1,,,,,,,,,0,,,67,60
80040,note_on,0,0,1,,,,,,,,,0,,,55,0
80040,note_on,0,0,3,,,,,,,,,0,,,31,0
80040,note_on,0,0,3,,,,,,,,,0,,,31,70
80040,note_on,0,0,3,,,,,,,,,0,,,43,70
80040,note_on,120,0,3,,,,,,,,,0,,,43,0
80080,note_on,0,0,1,,,,,,,,,0,,,59,0
80080,note_on,0,0,1,,,,,,,,,0,,,62,0
80080,note_on,0,0,1,,,,,,,,,0,,,55,60
80080,note_on,0,0,1,,,,,,,,,0,,,59,60
80080,note_on,0,0,1,,,,,,,,,0,,,62,60
80080,note_on,0,0,1,,,,,,,,,0,,,67,60
80080,note_on,40,0,1,,,,,,,,,0,,,67,0
80080,note_on,0,0,1,,,,,,,,,0,,,55,0
80120,note_on,0,0,1,,,,,,,,,0,,,62,0
80120,note_on,0,0,1,,,,,,,,,0,,,55,60
80120,note_on,0,0,1,,,,,,,,,0,,,59,60
80120,note_on,0,0,1,,,,,,,,,0,,,62,60
80120,note_on,0,0,1,,,,,,,,,0,,,67,60
80120,note_on,40,0,1,,,,,,,,,0,,,67,0
80120,note_on,0,0,1,,,,,,,,,0,,,55,0
80120,note_on,0,0,1,,,,,,,,,0,,,59,0
80160,note_on,0,0,1,,,,,,,,,0,,,55,50
80160,note_on,0,0,3,,,,,,,,,0,,,48,40
80160,note_on,0,0,3,,,,,,,,,0,,,36,40
80160,note_on,0,0,3,,,,,,,,,0,,,31,0
80160,note_on,120,0,3,,,,,,,,,0,,,43,0
80160,note_on,40,0,1,,,,,,,,,0,,,67,0
80160,note_on,0,0,1,,,,,,,,,0,,,55,0
80160,note_on,0,0,1,,,,,,,,,0,,,59,0
80160,note_on,0,0,1,,,,,,,,,0,,,62,0
80160,marker,3840,1,0,,,,,,,,,,,,,
80160,note_on,0,0,1,,,,,,,,,0,,,60,50
80160,note_on,0,0,1,,,,,,,,,0,,,64,50
80160,note_on,0,0,1,,,,,,,,,0,,,67,50
80200,note_on,0,0,3,,,,,,,,,0,,,55,40
80200,note_on,40,0,3,,,,,,,,,0,,,48,0
80200,note_on,0,0,3,,,,,,,,,0,,,36,0
80240,note_on,40,0,3,,,,,,,,,0,,,55,0
80240,note_on,0,0,3,,,,,,,,,0,,,55,40
80280,note_on,40,0,3,,,,,,,,,0,,,55,0
80280,note_on,0,0,3,,,,,,,,,0,,,55,40
80320,note_on,40,0,3,,,,,,,,,0,,,55,0
80320,note_on,0,0,3,,,,,,,,,0,,,55,40
80360,note_on,40,0,3,,,,,,,,,0,,,55,0
80360,note_on,0,0,3,,,,,,,,,0,,,55,40
80400,note_on,0,0,1,,,,,,,,,0,,,60,0
80400,note_on,0,0,1,,,,,,,,,0,,,64,0
80400,note_on,40,0,3,,,,,,,,,0,,,55,0
80400,note_on,240,0,1,,,,,,,,,0,,,67,0
80400,note_on,0,0,1,,,,,,,,,0,,,55,0
80400,note_on,0,0,3,,,,,,,,,0,,,55,40
80440,note_on,40,0,3,,,,,,,,,0,,,55,0
80440,note_on,0,0,3,,,,,,,,,0,,,55,40
80480,note_on,0,0,3,,,,,,,,,0,,,55,40
80480,note_on,40,0,3,,,,,,,,,0,,,55,0
80520,note_on,0,0,3,,,,,,,,,0,,,55,40
80520,note_on,40,0,3,,,,,,,,,0,,,55,0
80520,note_on,0,0,1,,,,,,,,,0,,,62,50
80520,note_on,0,0,1,,,,,,,,,0,,,67,50
80520,note_on,120,0,1,,,,,,,,,0,,,71,50
80560,note_on,0,0,3,,,,,,,,,0,,,55,40
80560,note_on,40,0,3,,,,,,,,,0,,,55,0
80600,note_on,0,0,3,,,,,,,,,0,,,55,40
80600,note_on,40,0,3,,,,,,,,,0,,,55,0
80610,note_on,90,0,1,,,,,,,,,0,,,62,0
80610,note_on,0,0,1,,,,,,,,,0,,,71,0
80610,note_on,0,0,1,,,,,,,,,0,,,72,50
80610,note_on,0,0,1,,,,,,,,,0,,,64,50
80610,note_on,0,0,1,,,,,,,,,0,,,67,50
80610,note_on,0,0,1,,,,,,,,,0,,,67,0
80640,note_on,0,0,1,,,,,,,,,0,,,67,50
80640,note_on,0,0,1,,,,,,,,,0,,,65,50
80640,note_on,0,0,1,,,,,,,,,0,,,74,50
80640,note_on,0,0,1,,,,,,,,,0,,,72,0
80640,note_on,0,0,1,,,,,,,,,0,,,67,0
80640,note_on,30,0,1,,,,,,,,,0,,,64,0
80640,note_on,40,0,3,,,,,,,,,0,,,55,0
80640,note_on,0,0,3,,,,,,,,,0,,,55,40
80680,note_on,40,0,3,,,,,,,,,0,,,55,0
80680,note_on,0,0,3,,,,,,,,,0,,,55,40
80720,note_on,40,0,3,,,,,,,,,0,,,55,0
80720,note_on,0,0,3,,,,,,,,,0,,,55,40
80760,note_on,120,0,1,,,,,,,,,0,,,65,0
80760,note_on,0,0,1,,,,,,,,,0,,,67,0
80760,note_on,0,0,1,,,,,,,,,0,,,74,50
80760,note_on,0,0,1,,,,,,,,,0,,,74,0
80760,note_on,0,0,1,,,,,,,,,0,,,65,50
80760,note_on,0,0,1,,,,,,,,,0,,,67,50
80760,note_on,40,0,3,,,,,,,,,0,,,55,0
80760,note_on,0,0,3,,,,,,,,,0,,,55,40
80800,note_on,40,0,3,,,,,,,,,0,,,55,0
80800,note_on,0,0,3,,,,,,,,,0,,,55,40
80840,note_on,40,0,3,,,,,,,,,0,,,55,0
80840,note_on,0,0,3,,,,,,,,,0,,,55,40
80880,note_on,0,0,1,,,,,,,,,0,,,67,50
80880,note_on,0,0,1,,,,,,,,,0,,,74,50
80880,note_on,0,0,1,,,,,,,,,0,,,65,50
80880,note_on,0,0,3,,,,,,,,,0,,,55,40
80880,note_on,40,0,3,,,,,,,,,0,,,55,0
80880,note_on,0,0,1,,,,,,,,,0,,,67,0
80880,note_on,120,0,1,,,,,,,,,0,,,74,0
80880,note_on,0,0,1,,,,,,,,,0,,,65,0
80920,note_on,0,0,3,,,,,,,,,0,,,55,40
80920,note_on,40,0,3,,,,,,,,,0,,,55,0
80960,note_on,40,0,3,,,,,,,,,0,,,55,0
80960,note_on,0,0,3,,,,,,,,,0,,,55,40
81000,note_on,40,0,3,,,,,,,,,0,,,55,0
81000,note_on,120,0,1,,,,,,,,,0,,,74,0
81000,note_on,0,0,3,,,,,,,,,0,,,55,40
81000,note_on,0,0,1,,,,,,,,,0,,,67,50
81000,note_on,0,0,1,,,,,,,,,0,,,72,50
81000,note_on,0,0,1,,,,,,,,,0,,,65,0
81000,note_on,0,0,1,,,,,,,,,0,,,67,0
81000,note_on,0,0,1,,,,,,,,,0,,,64,50
81040,note_on,0,0,3,,,,,,,,,0,,,55,40
81040,note_on,40,0,3,,,,,,,,,0,,,55,0
81080,note_on,0,0,3,,,,,,,,,0,,,55,40
81080,note_on,40,0,3,,,,,,,,,0,,,55,0
81090,note_on,0,0,1,,,,,,,,,0,,,67,50
81090,note_on,0,0,1,,,,,,,,,0,,,74,50
81090,note_on,0,0,1,,,,,,,,,0,,,72,0
81090,note_on,0,0,1,,,,,,,,,0,,,67,0
81090,note_on,90,0,1,,,,,,,,,0,,,64,0
81090,note_on,0,0,1,,,,,,,,,0,,,65,50
81120,note_on,40,0,3,,,,,,,,,0,,,55,0
81120,note_on,0,0,3,,,,,,,,,0,,,55,40
81120,note_on,0,0,1,,,,,,,,,0,,,67,50
81120,note_on,0,0,1,,,,,,,,,0,,,76,50
81120,note_on,0,0,1,,,,,,,,,0,,,74,0
81120,note_on,0,0,1,,,,,,,,,0,,,67,0
81120,note_on,30,0,1,,,,,,,,,0,,,65,0
81160,note_on,0,0,3,,,,,,,,,0,,,55,40
81160,note_on,40,0,3,,,,,,,,,0,,,55,0
81200,note_on,40,0,3,,,,,,,,,0,,,55,0
81200,note_on,0,0,3,,,,,,,,,0,,,55,40
81240,note_on,40,0,3,,,,,,,,,0,,,55,0
81240,note_on,0,0,3,,,,,,,,,0,,,55,40
81280,note_on,40,0,3,,,,,,,,,0,,,55,0
81280,note_on,0,0,3,,,,,,,,,0,,,55,40
81300,note_on,0,0,1,,,,,,,,,0,,,76,0
81300,note_on,0,0,1,,,,,,,,,0,,,65,50
81300,note_on,0,0,1,,,,,,,,,0,,,67,50
81300,note_on,180,0,1,,,,,,,,,0,,,67,0
81300,note_on,0,0,1,,,,,,,,,0,,,74,50
81320,note_on,40,0,3,,,,,,,,,0,,,55,0
81320,note_on,0,0,3,,,,,,,,,0,,,55,40
81360,note_on,60,0,1,,,,,,,,,0,,,74,0
81360,note_on,0,0,1,,,,,,,,,0,,,64,50
81360,note_on,0,0,1,,,,,,,,,0,,,67,50
81360,note_on,0,0,1,,,,,,,,,0,,,72,50
81360,note_on,0,0,1,,,,,,,,,0,,,65,0
81360,note_on,0,0,1,,,,,,,,,0,,,67,0
81360,note_on,0,0,3,,,,,,,,,0,,,55,40
81360,note_on,40,0,3,,,,,,,,,0,,,55,0
81400,note_on,40,0,3,,,,,,,,,0,,,55,0
81400,note_on,0,0,3,,,,,,,,,0,,,55,40
81440,note_on,40,0,3,,,,,,,,,0,,,55,0
81440,note_on,0,0,3,,,,,,,,,0,,,55,40
81480,note_on,0,0,1,,,,,,,,,0,,,65,50
81480,note_on,0,0,1,,,,,,,,,0,,,67,50
81480,note_on,0,0,1,,,,,,,,,0,,,74,50
81480,note_on,0,0,1,,,,,,,,,0,,,72,0
81480,note_on,0,0,1,,,,,,,,,0,,,67,0
81480,note_on,40,0,3,,,,,,,,,0,,,55,0
81480,note_on,0,0,3,,,,,,,,,0,,,55,40
81480,note_on,120,0,1,,,,,,,,,0,,,64,0
81520,note_on,0,0,3,,,,,,,,,0,,,55,40
81520,note_on,40,0,3,,,,,,,,,0,,,55,0
81560,note_on,0,0,3,,,,,,,,,0,,,55,40
81560,note_on,40,0,3,,,,,,,,,0,,,55,0
81570,note_on,0,0,1,,,,,,,,,0,,,72,50
81570,note_on,0,0,1,,,,,,,,,0,,,67,0
81570,note_on,90,0,1,,,,,,,,,0,,,65,0
81570,note_on,0,0,1,,,,,,,,,0,,,67,50
81570,note_on,0,0,1,,,,,,,,,0,,,64,50
81570,note_on,0,0,1,,,,,,,,,0,,,74,0
81600,note_on,30,0,1,,,,,,,,,0,,,64,0
81600,note_on,0,0,1,,,,,,,,,0,,,67,0
81600,note_on,0,0,1,,,,,,,,,0,,,72,0
81600,note_on,0,0,1,,,,,,,,,0,,,71,50
81600,note_on,0,0,1,,,,,,,,,0,,,62,50
81600,note_on,40,0,3,,,,,,,,,0,,,55,0
81600,note_on,0,0,3,,,,,,,,,0,,,55,40
81600,note_on,0,0,1,,,,,,,,,0,,,67,50
81640,note_on,40,0,3,,,,,,,,,0,,,55,0
81640,note_on,0,0,3,,,,,,,,,0,,,55,40
81680,note_on,0,0,3,,,,,,,,,0,,,55,40
81680,note_on,40,0,3,,,,,,,,,0,,,55,0
81720,note_on,120,0,1,,,,,,,,,0,,,62,0
81720,note_on,0,0,1,,,,,,,,,0,,,67,0
81720,note_on,0,0,1,,,,,,,,,0,,,71,0
81720,note_on,0,0,1,,,,,,,,,0,,,67,50
81720,note_on,0,0,1,,,,,,,,,0,,,60,50
81720,note_on,0,0,1,,,,,,,,,0,,,69,50
81720,note_on,0,0,3,,,,,,,,,0,,,55,40
81720,note_on,40,0,3,,,,,,,,,0,,,55,0
81760,note_on,0,0,3,,,,,,,,,0,,,55,40
81760,note_on,40,0,3,,,,,,,,,0,,,55,0
81800,note_on,0,0,3,,,,,,,,,0,,,55,40
81800,note_on,0,0,3,,,,,,,,,0,,,53,40
81800,note_on,40,0,3,,,,,,,,,0,,,55,0
81810,note_on,0,0,1,,,,,,,,,0,,,67,0
81810,note_on,0,0,1,,,,,,,,,0,,,69,0
81810,note_on,90,0,1,,,,,,,,,0,,,60,0
81810,note_on,0,0,1,,,,,,,,,0,,,71,50
81810,note_on,0,0,1,,,,,,,,,0,,,62,50
81810,note_on,0,0,1,,,,,,,,,0,,,67,50
81840,note_on,0,0,1,,,,,,,,,0,,,67,0
81840,note_on,30,0,1,,,,,,,,,0,,,62,0
81840,note_on,0,0,1,,,,,,,,,0,,,72,50
81840,note_on,0,0,1,,,,,,,,,0,,,67,50
81840,note_on,0,0,3,,,,,,,,,0,,,52,40
81840,note_on,0,0,3,,,,,,,,,0,,,53,0
81840,note_on,40,0,3,,,,,,,,,0,,,55,0
81840,note_on,0,0,3,,,,,,,,,0,,,55,40
81840,note_on,0,0,1,,,,,,,,,0,,,64,50
81840,note_on,0,0,1,,,,,,,,,0,,,71,0
81880,note_on,40,0,3,,,,,,,,,0,,,55,0
81880,note_on,0,0,3,,,,,,,,,0,,,52,0
81880,note_on,0,0,3,,,,,,,,,0,,,55,40
81920,note_on,0,0,3,,,,,,,,,0,,,55,40
81920,note_on,40,0,3,,,,,,,,,0,,,55,0
81960,note_on,0,0,1,,,,,,,,,0,,,67,50
81960,note_on,0,0,1,,,,,,,,,0,,,74,50
81960,note_on,0,0,1,,,,,,,,,0,,,72,0
81960,note_on,0,0,3,,,,,,,,,0,,,55,40
81960,note_on,0,0,3,,,,,,,,,0,,,48,40
81960,note_on,40,0,3,,,,,,,,,0,,,55,0
81960,note_on,0,0,1,,,,,,,,,0,,,71,50
81960,note_on,120,0,1,,,,,,,,,0,,,64,0
81960,note_on,0,0,1,,,,,,,,,0,,,67,0
82000,note_on,0,0,3,,,,,,,,,0,,,55,40
82000,note_on,0,0,3,,,,,,,,,0,,,48,0
82000,note_on,40,0,3,,,,,,,,,0,,,55,0
82040,note_on,40,0,3,,,,,,,,,0,,,55,0
82040,note_on,0,0,3,,,,,,,,,0,,,55,40
82050,note_on,90,0,1,,,,,,,,,0,,,67,0
82050,note_on,0,0,1,,,,,,,,,0,,,67,50
82050,note_on,0,0,1,,,,,,,,,0,,,72,50
82050,note_on,0,0,1,,,,,,,,,0,,,76,50
82050,note_on,0,0,1,,,,,,,,,0,,,74,0
82050,note_on,0,0,1,,,,,,,,,0,,,71,0
82080,note_on,0,0,1,,,,,,,,,0,,,74,50
82080,note_on,0,0,1,,,,,,,,,0,,,76,0
82080,note_on,0,0,1,,,,,,,,,0,,,72,0
82080,note_on,30,0,1,,,,,,,,,0,,,67,0
82080,note_on,0,0,1,,,,,,,,,0,,,71,50
82080,note_on,0,0,3,,,,,,,,,0,,,43,40
82080,note_on,0,0,3,,,,,,,,,0,,,55,40
82080,note_on,40,0,3,,,,,,,,,0,,,55,0
82080,note_on,0,0,1,,,,,,,,,0,,,67,50
82120,note_on,0,0,3,,,,,,,,,0,,,43,0
82120,note_on,0,0,3,,,,,,,,,0,,,55,45
82120,note_on,40,0,3,,,,,,,,,0,,,55,0
82160,note_on,40,0,3,,,,,,,,,0,,,55,0
82160,note_on,0,0,3,,,,,,,,,0,,,55,51
82200,note_on,40,0,3,,,,,,,,,0,,,55,0
82200,note_on,0,0,3,,,,,,,,,0,,,55,57
82240,note_on,40,0,3,,,,,,,,,0,,,55,0
82240,note_on,0,0,3,,,,,,,,,0,,,55,62
82280,note_on,0,0,3,,,,,,,,,0,,,55,68
82280,note_on,40,0,3,,,,,,,,,0,,,55,0
82320,note_on,0,0,3,,,,,,,,,0,,,55,74
82320,note_on,40,0,3,,,,,,,,,0,,,55,0
82360,note_on,0,0,3,,,,,,,,,0,,,55,79
82360,note_on,40,0,3,,,,,,,,,0,,,55,0
82400,note_on,0,0,3,,,,,,,,,0,,,55,85
82400,note_on,40,0,3,,,,,,,,,0,,,55,0
82440,note_on,0,0,1,,,,,,,,,0,,,59,101
82440,note_on,0,0,3,,,,,,,,,0,,,55,91
82440,note_on,40,0,3,,,,,,,,,0,,,55,0
82440,note_on,0,0,1,,,,,,,,,0,,,71,101
82440,note_on,0,0,1,,,,,,,,,0,,,67,101
82440,note_on,0,0,1,,,,,,,,,0,,,74,0
82440,note_on,0,0,1,,,,,,,,,0,,,71,0
82440,note_on,360,0,1,,,,,,,,,0,,,67,0
82480,note_on,40,0,3,,,,,,,,,0,,,55,0
82480,note_on,0,0,3,,,,,,,,,0,,,55,97
82520,note_on,0,0,3,,,,,,,,,0,,,55,100
82520,note_on,40,0,3,,,,,,,,,0,,,55,0
82530,note_on,0,0,1,,,,,,,,,0,,,67,0
82530,note_on,0,0,1,,,,,,,,,0,,,59,0
82530,note_on,0,0,1,,,,,,,,,0,,,72,110
82530,note_on,0,0,1,,,,,,,,,0,,,69,110
82530,note_on,0,0,1,,,,,,,,,0,,,60,110
82530,note_on,90,0,1,,,,,,,,,0,,,71,0
82560,note_on,0,0,1,,,,,,,,,0,,,72,0
82560,note_on,0,0,1,,,,,,,,,0,,,74,110
82560,note_on,0,0,1,,,,,,,,,0,,,71,110
82560,note_on,0,0,1,,,,,,,,,0,,,62,110
82560,note_on,0,0,1,,,,,,,,,0,,,69,0
82560,note_on,30,0,1,,,,,,,,,0,,,60,0
82560,note_on,0,0,3,,,,,,,,,0,,,55,100
82560,note_on,40,0,3,,,,,,,,,0,,,55,0
82600,note_on,0,0,3,,,,,,,,,0,,,55,100
82600,note_on,40,0,3,,,,,,,,,0,,,55,0
82640,note_on,0,0,3,,,,,,,,,0,,,55,100
82640,note_on,40,0,3,,,,,,,,,0,,,55,0
82680,note_on,0,0,3,,,,,,,,,0,,,54,100
82680,note_on,40,0,3,,,,,,,,,0,,,55,0
82680,note_on,0,0,3,,,,,,,,,0,,,55,100
82680,note_on,0,0,1,,,,,,,,,0,,,74,0
82680,note_on,0,0,1,,,,,,,,,0,,,71,110
82680,note_on,120,0,1,,,,,,,,,0,,,62,0
82680,note_on,0,0,1,,,,,,,,,0,,,71,0
82680,note_on,0,0,1,,,,,,,,,0,,,74,110
82680,note_on,0,0,1,,,,,,,,,0,,,62,110
82720,note_on,0,0,3,,,,,,,,,0,,,55,100
82720,note_on,0,0,3,,,,,,,,,0,,,54,100
82720,note_on,40,0,3,,,,,,,,,0,,,55,0
82720,note_on,0,0,3,,,,,,,,,0,,,54,0
82760,note_on,40,0,3,,,,,,,,,0,,,55,0
82760,note_on,0,0,3,,,,,,,,,0,,,54,0
82760,note_on,0,0,3,,,,,,,,,0,,,54,100
82760,note_on,0,0,3,,,,,,,,,0,,,55,100
82800,note_on,0,0,1,,,,,,,,,0,,,71,110
82800,note_on,0,0,1,,,,,,,,,0,,,62,110
82800,note_on,0,0,1,,,,,,,,,0,,,71,0
82800,note_on,0,0,3,,,,,,,,,0,,,55,100
82800,note_on,0,0,1,,,,,,,,,0,,,74,0
82800,note_on,120,0,1,,,,,,,,,0,,,62,0
82800,note_on,40,0,3,,,,,,,,,0,,,55,0
82800,note_on,0,0,3,,,,,,,,,0,,,54,0
82800,note_on,0,0,3,,,,,,,,,0,,,53,100
82800,note_on,0,0,1,,,,,,,,,0,,,74,110
82840,note_on,0,0,3,,,,,,,,,0,,,53,0
82840,note_on,40,0,3,,,,,,,,,0,,,55,0
82840,note_on,0,0,3,,,,,,,,,0,,,55,100
82840,note_on,0,0,3,,,,,,,,,0,,,53,100
82880,note_on,40,0,3,,,,,,,,,0,,,55,0
82880,note_on,0,0,3,,,,,,,,,0,,,53,0
82880,note_on,0,0,3,,,,,,,,,0,,,53,100
82880,note_on,0,0,3,,,,,,,,,0,,,55,100
82920,note_on,0,0,1,,,,,,,,,0,,,72,110
82920,note_on,40,0,3,,,,,,,,,0,,,55,0
82920,note_on,0,0,3,,,,,,,,,0,,,53,0
82920,note_on,0,0,3,,,,,,,,,0,,,52,100
82920,note_on,0,0,3,,,,,,,,,0,,,55,100
82920,note_on,0,0,1,,,,,,,,,0,,,64,110
82920,note_on,0,0,1,,,,,,,,,0,,,71,0
82920,note_on,0,0,1,,,,,,,,,0,,,76,110
82920,note_on,120,0,1,,,,,,,,,0,,,62,0
82920,note_on,0,0,1,,,,,,,,,0,,,74,0
82960,note_on,0,0,3,,,,,,,,,0,,,52,0
82960,note_on,0,0,3,,,,,,,,,0,,,55,100
82960,note_on,0,0,3,,,,,,,,,0,,,52,100
82960,note_on,40,0,3,,,,,,,,,0,,,55,0
83000,note_on,0,0,3,,,,,,,,,0,,,52,0
83000,note_on,0,0,3,,,,,,,,,0,,,50,100
83000,note_on,0,0,3,,,,,,,,,0,,,53,100
83000,note_on,0,0,3,,,,,,,,,0,,,55,100
83000,note_on,40,0,3,,,,,,,,,0,,,55,0
83010,note_on,90,0,1,,,,,,,,,0,,,64,0
83010,note_on,0,0,1,,,,,,,,,0,,,72,0
83010,note_on,0,0,1,,,,,,,,,0,,,76,0
83010,note_on,0,0,1,,,,,,,,,0,,,77,110
83010,note_on,0,0,1,,,,,,,,,0,,,74,110
83010,note_on,0,0,1,,,,,,,,,0,,,65,110
83040,note_on,30,0,1,,,,,,,,,0,,,65,0
83040,note_on,0,0,1,,,,,,,,,0,,,74,0
83040,note_on,0,0,1,,,,,,,,,0,,,77,0
83040,note_on,0,0,1,,,,,,,,,0,,,79,110
83040,note_on,0,0,1,,,,,,,,,0,,,76,110
83040,note_on,0,0,1,,,,,,,,,0,,,67,110
83040,note_on,0,0,3,,,,,,,,,0,,,55,100
83040,note_on,0,0,3,,,,,,,,,0,,,52,100
83040,note_on,0,0,3,,,,,,,,,0,,,48,100
83040,note_on,0,0,3,,,,,,,,,0,,,50,0
83040,note_on,40,0,3,,,,,,,,,0,,,55,0
83040,note_on,0,0,3,,,,,,,,,0,,,53,0
83080,note_on,0,0,3,,,,,,,,,0,,,52,100
83080,note_on,0,0,3,,,,,,,,,0,,,48,100
83080,note_on,0,0,3,,,,,,,,,0,,,48,0
83080,note_on,0,0,3,,,,,,,,,0,,,52,0
83080,note_on,40,0,3,,,,,,,,,0,,,55,0
83080,note_on,0,0,3,,,,,,,,,0,,,55,100
83120,note_on,0,0,3,,,,,,,,,0,,,55,100
83120,note_on,0,0,3,,,,,,,,,0,,,52,100
83120,note_on,0,0,3,,,,,,,,,0,,,48,100
83120,note_on,0,0,3,,,,,,,,,0,,,48,0
83120,note_on,0,0,3,,,,,,,,,0,,,52,0
83120,note_on,40,0,3,,,,,,,,,0,,,55,0
83160,note_on,0,0,1,,,,,,,,,0,,,79,0
83160,note_on,0,0,1,,,,,,,,,0,,,76,0
83160,note_on,120,0,1,,,,,,,,,0,,,67,0
83160,note_on,0,0,3,,,,,,,,,0,,,52,0
83160,note_on,0,0,1,,,,,,,,,0,,,74,110
83160,note_on,0,0,1,,,,,,,,,0,,,77,110
83160,note_on,0,0,3,,,,,,,,,0,,,53,100
83160,note_on,0,0,3,,,,,,,,,0,,,50,100
83160,note_on,0,0,3,,,,,,,,,0,,,44,100
83160,note_on,0,0,3,,,,,,,,,0,,,48,0
83160,note_on,0,0,1,,,,,,,,,0,,,71,110
83160,note_on,40,0,3,,,,,,,,,0,,,55,0
83200,note_on,0,0,3,,,,,,,,,0,,,53,100
83200,note_on,40,0,3,,,,,,,,,0,,,53,0
83200,note_on,0,0,3,,,,,,,,,0,,,50,0
83200,note_on,0,0,3,,,,,,,,,0,,,44,0
83200,note_on,0,0,3,,,,,,,,,0,,,44,100
83200,note_on,0,0,3,,,,,,,,,0,,,50,100
83240,note_on,0,0,3,,,,,,,,,0,,,53,100
83240,note_on,0,0,3,,,,,,,,,0,,,50,100
83240,note_on,0,0,3,,,,,,,,,0,,,44,100
83240,note_on,0,0,3,,,,,,,,,0,,,50,0
83240,note_on,0,0,3,,,,,,,,,0,,,44,0
83240,note_on,40,0,3,,,,,,,,,0,,,53,0
83280,note_on,0,0,3,,,,,,,,,0,,,52,100
83280,note_on,0,0,1,,,,,,,,,0,,,71,0
83280,note_on,40,0,3,,,,,,,,,0,,,53,0
83280,note_on,0,0,3,,,,,,,,,0,,,50,0
83280,note_on,0,0,3,,,,,,,,,0,,,44,0
83280,note_on,0,0,3,,,,,,,,,0,,,45,100
83280,note_on,0,0,3,,,,,,,,,0,,,48,100
83280,note_on,0,0,1,,,,,,,,,0,,,74,0
83280,note_on,120,0,1,,,,,,,,,0,,,77,0
83280,note_on,0,0,1,,,,,,,,,0,,,76,110
83280,note_on,0,0,1,,,,,,,,,0,,,72,110
83320,note_on,40,0,3,,,,,,,,,0,,,52,0
83320,note_on,0,0,3,,,,,,,,,0,,,48,0
83320,note_on,0,0,3,,,,,,,,,0,,,45,0
83320,note_on,0,0,3,,,,,,,,,0,,,45,100
83320,note_on,0,0,3,,,,,,,,,0,,,48,100
83320,note_on,0,0,3,,,,,,,,,0,,,52,100
83360,note_on,0,0,3,,,,,,,,,0,,,48,0
83360,note_on,40,0,3,,,,,,,,,0,,,52,0
83360,note_on,0,0,3,,,,,,,,,0,,,45,0
83360,note_on,0,0,3,,,,,,,,,0,,,45,100
83360,note_on,0,0,3,,,,,,,,,0,,,48,100
83360,note_on,0,0,3,,,,,,,,,0,,,52,100
83400,note_on,0,0,1,,,,,,,,,0,,,77,110
83400,note_on,40,0,3,,,,,,,,,0,,,52,0
83400,note_on,0,0,1,,,,,,,,,0,,,76,0
83400,note_on,0,0,3,,,,,,,,,0,,,48,0
83400,note_on,120,0,1,,,,,,,,,0,,,72,0
83400,note_on,0,0,1,,,,,,,,,0,,,69,110
83400,note_on,0,0,3,,,,,,,,,0,,,45,0
83400,note_on,0,0,3,,,,,,,,,0,,,41,100
83440,note_on,0,0,3,,,,,,,,,0,,,53,100
83440,note_on,40,0,3,,,,,,,,,0,,,41,0
83440,note_on,0,0,3,,,,,,,,,0,,,57,100
83480,note_on,40,0,3,,,,,,,,,0,,,53,0
83480,note_on,0,0,3,,,,,,,,,0,,,57,0
83480,note_on,0,0,3,,,,,,,,,0,,,57,100
83480,note_on,0,0,3,,,,,,,,,0,,,53,100
83490,note_on,90,0,1,,,,,,,,,0,,,69,0
83490,note_on,0,0,1,,,,,,,,,0,,,77,0
83490,note_on,0,0,1,,,,,,,,,0,,,74,110
83490,note_on,0,0,1,,,,,,,,,0,,,69,110
83490,note_on,0,0,1,,,,,,,,,0,,,65,110
83520,note_on,0,0,3,,,,,,,,,0,,,43,100
83520,note_on,0,0,3,,,,,,,,,0,,,57,0
83520,set_tempo,3360,1,0,,,,,,536241,,,,,,,
83520,note_on,0,0,1,,,,,,,,,0,,,69,0
83520,note_on,0,0,1,,,,,,,,,0,,,74,0
83520,note_on,0,0,1,,,,,,,,,0,,,62,110
83520,note_on,0,0,1,,,,,,,,,0,,,67,110
83520,note_on,40,0,3,,,,,,,,,0,,,53,0
83520,note_on,30,0,1,,,,,,,,,0,,,65,0
83520,note_on,0,0,1,,,,,,,,,0,,,71,110
83534,set_tempo,14,1,0,,,,,,537683,,,,,,,
83541,set_tempo,7,1,0,,,,,,539132,,,,,,,
83548,set_tempo,7,1,0,,,,,,540589,,,,,,,
83555,set_tempo,7,1,0,,,,,,542054,,,,,,,
83560,note_on,40,0,3,,,,,,,,,0,,,43,0
83560,note_on,0,0,3,,,,,,,,,0,,,55,100
83562,set_tempo,7,1,0,,,,,,543527,,,,,,,
83569,set_tempo,7,1,0,,,,,,545009,,,,,,,
83576,set_tempo,7,1,0,,,,,,546498,,,,,,,
83583,set_tempo,7,1,0,,,,,,547995,,,,,,,
83590,set_tempo,7,1,0,,,,,,549501,,,,,,,
83597,set_tempo,7,1,0,,,,,,551015,,,,,,,
83600,note_on,40,0,3,,,,,,,,,0,,,55,0
83600,note_on,0,0,3,,,,,,,,,0,,,55,100
83604,set_tempo,7,1,0,,,,,,552537,,,,,,,
83611,set_tempo,7,1,0,,,,,,554068,,,,,,,
83618,set_tempo,7,1,0,,,,,,555607,,,,,,,
83625,set_tempo,7,1,0,,,,,,557155,,,,,,,
83632,set_tempo,7,1,0,,,,,,558711,,,,,,,
83640,note_on,0,0,1,,,,,,,,,0,,,62,0
83640,note_on,0,0,1,,,,,,,,,0,,,67,0
83640,note_on,0,0,3,,,,,,,,,0,,,43,100
83640,note_on,0,0,1,,,,,,,,,0,,,71,110
83640,note_on,0,0,1,,,,,,,,,0,,,67,110
83640,note_on,0,0,1,,,,,,,,,0,,,62,110
83640,note_on,40,0,3,,,,,,,,,0,,,55,0
83640,set_tempo,8,1,0,,,,,,560276,,,,,,,
83640,note_on,120,0,1,,,,,,,,,0,,,71,0
83647,set_tempo,7,1,0,,,,,,561850,,,,,,,
83654,set_tempo,7,1,0,,,,,,563433,,,,,,,
83661,set_tempo,7,1,0,,,,,,565025,,,,,,,
83668,set_tempo,7,1,0,,,,,,566626,,,,,,,
83675,set_tempo,7,1,0,,,,,,568236,,,,,,,
83680,note_on,40,0,3,,,,,,,,,0,,,43,0
83680,note_on,0,0,3,,,,,,,,,0,,,55,100
83682,set_tempo,7,1,0,,,,,,569855,,,,,,,
83689,set_tempo,7,1,0,,,,,,571483,,,,,,,
83696,set_tempo,7,1,0,,,,,,573121,,,,,,,
83703,set_tempo,7,1,0,,,,,,574768,,,,,,,
83710,set_tempo,7,1,0,,,,,,576424,,,,,,,
83717,set_tempo,7,1,0,,,,,,578090,,,,,,,
83720,note_on,40,0,3,,,,,,,,,0,,,55,0
83720,note_on,0,0,3,,,,,,,,,0,,,55,100
83724,set_tempo,7,1,0,,,,,,579766,,,,,,,
83731,set_tempo,7,1,0,,,,,,581452,,,,,,,
83738,set_tempo,7,1,0,,,,,,583147,,,,,,,
83745,set_tempo,7,1,0,,,,,,584852,,,,,,,
83752,set_tempo,7,1,0,,,,,,586568,,,,,,,
83760,note_on,40,0,3,,,,,,,,,0,,,55,0
83760,note_on,0,0,3,,,,,,,,,0,,,43,100
83760,set_tempo,8,1,0,,,,,,588293,,,,,,,
83760,note_on,0,0,1,,,,,,,,,0,,,62,110
83760,note_on,0,0,1,,,,,,,,,0,,,67,110
83760,note_on,0,0,1,,,,,,,,,0,,,71,110
83760,note_on,0,0,1,,,,,,,,,0,,,71,0
83760,note_on,0,0,1,,,,,,,,,0,,,67,0
83760,note_on,120,0,1,,,,,,,,,0,,,62,0
83767,set_tempo,7,1,0,,,,,,590029,,,,,,,
83774,set_tempo,7,1,0,,,,,,591774,,,,,,,
83781,set_tempo,7,1,0,,,,,,593531,,,,,,,
83788,set_tempo,7,1,0,,,,,,595297,,,,,,,
83795,set_tempo,7,1,0,,,,,,597074,,,,,,,
83800,note_on,0,0,3,,,,,,,,,0,,,55,100
83800,note_on,40,0,3,,,,,,,,,0,,,43,0
83802,set_tempo,7,1,0,,,,,,598862,,,,,,,
83809,set_tempo,7,1,0,,,,,,600661,,,,,,,
83816,set_tempo,7,1,0,,,,,,602470,,,,,,,
83823,set_tempo,7,1,0,,,,,,604290,,,,,,,
83830,set_tempo,7,1,0,,,,,,606122,,,,,,,
83837,set_tempo,7,1,0,,,,,,607964,,,,,,,
83840,note_on,40,0,3,,,,,,,,,0,,,55,0
83840,note_on,0,0,3,,,,,,,,,0,,,55,100
83844,set_tempo,7,1,0,,,,,,609818,,,,,,,
83851,set_tempo,7,1,0,,,,,,611683,,,,,,,
83858,set_tempo,7,1,0,,,,,,613560,,,,,,,
83865,set_tempo,7,1,0,,,,,,615448,,,,,,,
83872,set_tempo,7,1,0,,,,,,617347,,,,,,,
83880,note_on,0,0,1,,,,,,,,,0,,,71,0
83880,note_on,0,0,1,,,,,,,,,0,,,76,110
83880,note_on,0,0,1,,,,,,,,,0,,,67,110
83880,note_on,0,0,3,,,,,,,,,0,,,55,100
83880,note_on,120,0,1,,,,,,,,,0,,,62,0
83880,note_on,0,0,1,,,,,,,,,0,,,67,0
83880,set_tempo,8,1,0,,,,,,619259,,,,,,,
83880,note_on,40,0,3,,,,,,,,,0,,,55,0
83887,set_tempo,7,1,0,,,,,,621182,,,,,,,
83894,set_tempo,7,1,0,,,,,,623118,,,,,,,
83901,set_tempo,7,1,0,,,,,,625065,,,,,,,
83908,set_tempo,7,1,0,,,,,,627025,,,,,,,
83915,set_tempo,7,1,0,,,,,,628997,,,,,,,
83920,note_on,0,0,3,,,,,,,,,0,,,55,100
83920,note_on,40,0,3,,,,,,,,,0,,,55,0
83920,note_on,0,0,3,,,,,,,,,0,,,57,100
83922,set_tempo,7,1,0,,,,,,630981,,,,,,,
83929,set_tempo,7,1,0,,,,,,632978,,,,,,,
83936,set_tempo,7,1,0,,,,,,634988,,,,,,,
83943,set_tempo,7,1,0,,,,,,637010,,,,,,,
83950,set_tempo,7,1,0,,,,,,639046,,,,,,,
83957,set_tempo,7,1,0,,,,,,641094,,,,,,,
83960,note_on,0,0,3,,,,,,,,,0,,,57,0
83960,note_on,0,0,3,,,,,,,,,0,,,59,100
83960,note_on,0,0,3,,,,,,,,,0,,,55,100
83960,note_on,40,0,3,,,,,,,,,0,,,55,0
83964,set_tempo,7,1,0,,,,,,643156,,,,,,,
83970,note_on,90,0,1,,,,,,,,,0,,,67,0
83970,note_on,0,0,1,,,,,,,,,0,,,76,0
83970,note_on,0,0,1,,,,,,,,,0,,,74,110
83970,note_on,0,0,1,,,,,,,,,0,,,65,110
83970,note_on,0,0,1,,,,,,,,,0,,,67,110
83971,set_tempo,7,1,0,,,,,,645231,,,,,,,
83978,set_tempo,7,1,0,,,,,,647319,,,,,,,
83985,set_tempo,7,1,0,,,,,,649421,,,,,,,
83992,set_tempo,7,1,0,,,,,,651537,,,,,,,
84000,note_on,30,0,1,,,,,,,,,0,,,67,0
84000,note_on,40,0,3,,,,,,,,,0,,,55,0
84000,note_on,0,0,3,,,,,,,,,0,,,59,0
84000,note_on,0,0,3,,,,,,,,,0,,,60,100
84000,note_on,0,0,3,,,,,,,,,0,,,48,100
84000,note_on,0,0,3,,,,,,,,,0,,,55,100
84000,set_tempo,8,1,0,,,,,,535714,,,,,,,
84000,note_on,0,0,1,,,,,,,,,0,,,74,0
84000,note_on,0,0,1,,,,,,,,,0,,,72,110
84000,note_on,0,0,1,,,,,,,,,0,,,67,110
84000,note_on,0,0,1,,,,,,,,,0,,,64,110
84000,note_on,0,0,1,,,,,,,,,0,,,65,0
84040,note_on,0,0,3,,,,,,,,,0,,,55,95
84040,note_on,0,0,3,,,,,,,,,0,,,60,0
84040,note_on,0,0,3,,,,,,,,,0,,,48,0
84040,note_on,40,0,3,,,,,,,,,0,,,55,0
84080,note_on,40,0,3,,,,,,,,,0,,,55,0
84080,note_on,0,0,3,,,,,,,,,0,,,55,89
84120,note_on,0,0,3,,,,,,,,,0,,,55,83
84120,note_on,40,0,3,,,,,,,,,0,,,55,0
84160,note_on,0,0,3,,,,,,,,,0,,,55,78
84160,note_on,40,0,3,,,,,,,,,0,,,55,0
84200,note_on,0,0,3,,,,,,,,,0,,,55,72
84200,note_on,40,0,3,,,,,,,,,0,,,55,0
84240,note_on,0,0,1,,,,,,,,,0,,,72,0
84240,note_on,0,0,1,,,,,,,,,0,,,67,0
84240,note_on,240,0,1,,,,,,,,,0,,,64,0
84240,note_on,40,0,3,,,,,,,,,0,,,55,0
84240,note_on,0,0,3,,,,,,,,,0,,,55,66
84280,note_on,40,0,3,,,,,,,,,0,,,55,0
84280,note_on,0,0,3,,,,,,,,,0,,,55,61
84320,note_on,40,0,3,,,,,,,,,0,,,55,0
84320,note_on,0,0,3,,,,,,,,,0,,,55,55
84360,note_on,40,0,3,,,,,,,,,0,,,55,0
84360,note_on,0,0,3,,,,,,,,,0,,,55,49
84360,note_on,120,0,1,,,,,,,,,0,,,83,59
84400,note_on,0,0,3,,,,,,,,,0,,,55,43
84400,note_on,40,0,3,,,,,,,,,0,,,55,0
84440,note_on,0,0,3,,,,,,,,,0,,,55,40
84440,note_on,40,0,3,,,,,,,,,0,,,55,0
84450,note_on,90,0,1,,,,,,,,,0,,,83,0
84450,note_on,0,0,1,,,,,,,,,0,,,84,50
84480,note_on,0,0,3,,,,,,,,,0,,,55,40
84480,note_on,40,0,3,,,,,,,,,0,,,55,0
84480,note_on,30,0,1,,,,,,,,,0,,,84,0
84480,note_on,0,0,1,,,,,,,,,0,,,86,50
84520,note_on,0,0,3,,,,,,,,,0,,,55,40
84520,note_on,40,0,3,,,,,,,,,0,,,55,0
84560,note_on,40,0,3,,,,,,,,,0,,,55,0
84560,note_on,0,0,3,,,,,,,,,0,,,55,40
84600,note_on,0,0,1,,,,,,,,,0,,,86,50
84600,note_on,0,0,3,,,,,,,,,0,,,55,40
84600,note_on,120,0,1,,,,,,,,,0,,,86,0
84600,note_on,40,0,3,,,,,,,,,0,,,55,0
84600,note_on,0,0,1,,,,,,,,,0,,,83,40
84600,note_on,0,0,1,,,,,,,,,0,,,77,40
84600,note_on,0,0,1,,,,,,,,,0,,,80,40
84640,note_on,40,0,3,,,,,,,,,0,,,55,0
84640,note_on,0,0,3,,,,,,,,,0,,,55,40
84680,note_on,40,0,3,,,,,,,,,0,,,55,0
84680,note_on,0,0,3,,,,,,,,,0,,,55,40
84720,note_on,0,0,1,,,,,,,,,0,,,84,40
84720,note_on,0,0,1,,,,,,,,,0,,,81,40
84720,note_on,0,0,1,,,,,,,,,0,,,78,40
84720,note_on,120,0,1,,,,,,,,,0,,,86,0
84720,note_on,0,0,1,,,,,,,,,0,,,86,50
84720,note_on,0,0,1,,,,,,,,,0,,,80,0
84720,note_on,40,0,3,,,,,,,,,0,,,55,0
84720,note_on,0,0,3,,,,,,,,,0,,,55,40
84720,note_on,0,0,1,,,,,,,,,0,,,83,0
84720,note_on,0,0,1,,,,,,,,,0,,,77,0
84760,note_on,0,0,3,,,,,,,,,0,,,55,40
84760,note_on,40,0,3,,,,,,,,,0,,,55,0
84800,note_on,40,0,3,,,,,,,,,0,,,55,0
84800,note_on,0,0,3,,,,,,,,,0,,,55,40
84840,note_on,120,0,1,,,,,,,,,0,,,86,0
84840,note_on,0,0,1,,,,,,,,,0,,,84,0
84840,note_on,0,0,1,,,,,,,,,0,,,81,0
84840,note_on,0,0,1,,,,,,,,,0,,,78,0
84840,note_on,0,0,1,,,,,,,,,0,,,78,40
84840,note_on,0,0,1,,,,,,,,,0,,,81,40
84840,note_on,0,0,1,,,,,,,,,0,,,84,50
84840,note_on,40,0,3,,,,,,,,,0,,,55,0
84840,note_on,0,0,3,,,,,,,,,0,,,55,40
84840,note_on,0,0,3,,,,,,,,,0,,,62,50
84880,note_on,40,0,3,,,,,,,,,0,,,55,0
84880,note_on,0,0,3,,,,,,,,,0,,,55,40
84920,note_on,0,0,3,,,,,,,,,0,,,55,40
84920,note_on,40,0,3,,,,,,,,,0,,,55,0
84930,note_on,90,0,1,,,,,,,,,0,,,84,0
84930,note_on,0,0,1,,,,,,,,,0,,,86,50
84960,note_on,0,0,1,,,,,,,,,0,,,87,50
84960,note_on,0,0,1,,,,,,,,,0,,,77,40
84960,note_on,0,0,1,,,,,,,,,0,,,81,40
84960,note_on,0,0,1,,,,,,,,,0,,,78,0
84960,note_on,0,0,1,,,,,,,,,0,,,81,0
84960,note_on,30,0,1,,,,,,,,,0,,,86,0
84960,note_on,0,0,3,,,,,,,,,0,,,60,50
84960,note_on,0,0,3,,,,,,,,,0,,,55,40
84960,note_on,0,0,3,,,,,,,,,0,,,62,0
84960,note_on,40,0,3,,,,,,,,,0,,,55,0
85000,note_on,40,0,3,,,,,,,,,0,,,55,0
85000,note_on,0,0,3,,,,,,,,,0,,,55,40
85040,note_on,40,0,3,,,,,,,,,0,,,55,0
85040,note_on,0,0,3,,,,,,,,,0,,,55,40
85080,note_on,0,0,3,,,,,,,,,0,,,55,40
85080,note_on,40,0,3,,,,,,,,,0,,,55,0
85120,note_on,40,0,3,,,,,,,,,0,,,55,0
85120,note_on,0,0,3,,,,,,,,,0,,,55,40
85140,note_on,180,0,1,,,,,,,,,0,,,87,0
85140,note_on,20,0,3,,,,,,,,,0,,,60,0
85140,note_on,0,0,3,,,,,,,,,0,,,62,50
85140,note_on,0,0,1,,,,,,,,,0,,,86,50
85160,note_on,0,0,3,,,,,,,,,0,,,55,40
85160,note_on,20,0,3,,,,,,,,,0,,,55,0
85200,note_on,0,0,1,,,,,,,,,0,,,84,50
85200,note_on,0,0,1,,,,,,,,,0,,,81,0
85200,note_on,60,0,1,,,,,,,,,0,,,86,0
85200,note_on,0,0,3,,,,,,,,,0,,,55,40
85200,note_on,0,0,3,,,,,,,,,0,,,63,50
85200,note_on,0,0,3,,,,,,,,,0,,,62,0
85200,note_on,40,0,3,,,,,,,,,0,,,55,0
85200,note_on,0,0,1,,,,,,,,,0,,,77,0
85240,note_on,0,0,3,,,,,,,,,0,,,55,40
85240,note_on,40,0,3,,,,,,,,,0,,,55,0
85280,note_on,0,0,3,,,,,,,,,0,,,55,40
85280,note_on,40,0,3,,,,,,,,,0,,,55,0
85320,note_on,40,0,3,,,,,,,,,0,,,55,0
85320,note_on,0,0,3,,,,,,,,,0,,,63,0
85320,note_on,0,0,3,,,,,,,,,0,,,66,50
85320,note_on,120,0,1,,,,,,,,,0,,,84,0
85320,note_on,0,0,1,,,,,,,,,0,,,74,40
85320,note_on,0,0,1,,,,,,,,,0,,,81,40
85320,note_on,0,0,1,,,,,,,,,0,,,86,50
85320,note_on,0,0,3,,,,,,,,,0,,,55,40
85360,note_on,40,0,3,,,,,,,,,0,,,55,0
85360,note_on,0,0,3,,,,,,,,,0,,,55,40
85400,note_on,40,0,3,,,,,,,,,0,,,55,0
85400,note_on,0,0,3,,,,,,,,,0,,,55,40
85410,note_on,90,0,1,,,,,,,,,0,,,86,0
85410,note_on,0,0,1,,,,,,,,,0,,,84,50
85440,note_on,40,0,3,,,,,,,,,0,,,55,0
85440,note_on,0,0,3,,,,,,,,,0,,,66,0
85440,note_on,0,0,3,,,,,,,,,0,,,55,40
85440,note_on,0,0,3,,,,,,,,,0,,,67,50
85440,note_on,30,0,1,,,,,,,,,0,,,84,0
85440,note_on,0,0,1,,,,,,,,,0,,,81,0
85440,note_on,0,0,1,,,,,,,,,0,,,74,0
85440,note_on,0,0,1,,,,,,,,,0,,,74,40
85440,note_on,0,0,1,,,,,,,,,0,,,79,40
85440,note_on,0,0,1,,,,,,,,,0,,,83,50
85480,note_on,40,0,3,,,,,,,,,0,,,55,0
85480,note_on,0,0,3,,,,,,,,,0,,,55,40
85520,note_on,40,0,3,,,,,,,,,0,,,55,0
85520,note_on,0,0,3,,,,,,,,,0,,,55,40
85560,note_on,0,0,1,,,,,,,,,0,,,79,40
85560,note_on,40,0,3,,,,,,,,,0,,,55,0
85560,note_on,0,0,3,,,,,,,,,0,,,67,0
85560,note_on,0,0,3,,,,,,,,,0,,,55,40
85560,note_on,0,0,3,,,,,,,,,0,,,65,50
85560,note_on,120,0,1,,,,,,,,,0,,,83,0
85560,note_on,0,0,1,,,,,,,,,0,,,79,0
85560,note_on,0,0,1,,,,,,,,,0,,,81,50
85560,note_on,0,0,1,,,,,,,,,0,,,74,40
85560,note_on,0,0,1,,,,,,,,,0,,,74,0
85600,note_on,40,0,3,,,,,,,,,0,,,55,0
85600,note_on,0,0,3,,,,,,,,,0,,,55,40
85640,note_on,40,0,3,,,,,,,,,0,,,55,0
85640,note_on,0,0,3,,,,,,,,,0,,,55,40
85650,note_on,90,0,1,,,,,,,,,0,,,81,0
85650,note_on,0,0,1,,,,,,,,,0,,,83,50
85680,note_on,0,0,3,,,,,,,,,0,,,63,50
85680,note_on,0,0,1,,,,,,,,,0,,,79,0
85680,note_on,0,0,1,,,,,,,,,0,,,74,0
85680,note_on,30,0,1,,,,,,,,,0,,,83,0
85680,note_on,40,0,3,,,,,,,,,0,,,55,0
85680,note_on,0,0,3,,,,,,,,,0,,,65,0
85680,note_on,0,0,3,,,,,,,,,0,,,55,40
85680,note_on,0,0,1,,,,,,,,,0,,,84,50
85680,note_on,0,0,1,,,,,,,,,0,,,72,40
85680,note_on,0,0,1,,,,,,,,,0,,,79,40
85720,note_on,0,0,3,,,,,,,,,0,,,55,40
85720,note_on,40,0,3,,,,,,,,,0,,,55,0
85760,note_on,0,0,3,,,,,,,,,0,,,55,40
85760,note_on,40,0,3,,,,,,,,,0,,,55,0
85800,note_on,0,0,3,,,,,,,,,0,,,55,40
85800,note_on,40,0,3,,,,,,,,,0,,,55,0
85800,note_on,120,0,1,,,,,,,,,0,,,84,0
85800,note_on,0,0,1,,,,,,,,,0,,,79,0
85800,note_on,0,0,1,,,,,,,,,0,,,72,0
85800,note_on,0,0,1,,,,,,,,,0,,,79,40
85800,note_on,0,0,1,,,,,,,,,0,,,86,50
85800,note_on,0,0,1,,,,,,,,,0,,,83,50
85800,note_on,0,0,3,,,,,,,,,0,,,60,50
85800,note_on,0,0,3,,,,,,,,,0,,,63,0
85840,note_on,40,0,3,,,,,,,,,0,,,55,0
85840,note_on,0,0,3,,,,,,,,,0,,,55,40
85880,note_on,0,0,3,,,,,,,,,0,,,55,40
85880,note_on,40,0,3,,,,,,,,,0,,,55,0
85890,note_on,90,0,1,,,,,,,,,0,,,83,0
85890,note_on,0,0,1,,,,,,,,,0,,,86,0
85890,note_on,0,0,1,,,,,,,,,0,,,87,50
85890,note_on,0,0,1,,,,,,,,,0,,,84,50
85920,note_on,0,0,1,,,,,,,,,0,,,87,0
85920,note_on,40,0,3,,,,,,,,,0,,,55,0
85920,note_on,0,0,3,,,,,,,,,0,,,60,0
85920,note_on,0,0,3,,,,,,,,,0,,,55,40
85920,note_on,0,0,3,,,,,,,,,0,,,67,50
85920,note_on,30,0,1,,,,,,,,,0,,,84,0
85920,note_on,0,0,1,,,,,,,,,0,,,79,0
85920,note_on,0,0,1,,,,,,,,,0,,,86,50
85920,note_on,0,0,1,,,,,,,,,0,,,83,50
85920,note_on,0,0,1,,,,,,,,,0,,,79,50
85960,note_on,40,0,3,,,,,,,,,0,,,55,0
85960,note_on,0,0,3,,,,,,,,,0,,,55,40
86000,note_on,0,0,3,,,,,,,,,0,,,55,41
86000,note_on,40,0,3,,,,,,,,,0,,,55,0
86040,note_on,40,0,3,,,,,,,,,0,,,55,0
86040,note_on,0,0,3,,,,,,,,,0,,,55,41
86080,note_on,0,0,3,,,,,,,,,0,,,55,42
86080,note_on,40,0,3,,,,,,,,,0,,,55,0
86120,note_on,40,0,3,,,,,,,,,0,,,55,0
86120,note_on,0,0,3,,,,,,,,,0,,,55,42
86160,note_on,40,0,3,,,,,,,,,0,,,55,0
86160,note_on,0,0,3,,,,,,,,,0,,,55,43
86200,note_on,40,0,3,,,,,,,,,0,,,55,0
86200,note_on,0,0,3,,,,,,,,,0,,,56,44
86240,note_on,0,0,3,,,,,,,,,0,,,57,44
86240,note_on,40,0,3,,,,,,,,,0,,,56,0
86280,note_on,0,0,3,,,,,,,,,0,,,58,45
86280,note_on,0,0,1,,,,,,,,,0,,,83,0
86280,note_on,360,0,1,,,,,,,,,0,,,79,0
86280,note_on,40,0,3,,,,,,,,,0,,,57,0
86280,note_on,0,0,3,,,,,,,,,0,,,67,0
86280,note_on,0,0,1,,,,,,,,,0,,,74,55
86280,note_on,0,0,1,,,,,,,,,0,,,86,0
86320,note_on,0,0,3,,,,,,,,,0,,,58,45
86320,note_on,40,0,3,,,,,,,,,0,,,58,0
86360,note_on,0,0,3,,,,,,,,,0,,,58,46
86360,note_on,40,0,3,,,,,,,,,0,,,58,0
86370,note_on,0,0,1,,,,,,,,,0,,,75,56
86370,note_on,90,0,1,,,,,,,,,0,,,74,0
86400,note_on,40,0,3,,,,,,,,,0,,,58,0
86400,note_on,0,0,1,,,,,,,,,0,,,77,57
86400,note_on,30,0,1,,,,,,,,,0,,,75,0
86400,note_on,0,0,3,,,,,,,,,0,,,58,47
86440,note_on,40,0,3,,,,,,,,,0,,,58,0
86440,note_on,0,0,3,,,,,,,,,0,,,58,47
86480,note_on,40,0,3,,,,,,,,,0,,,58,0
86480,note_on,0,0,3,,,,,,,,,0,,,58,48
86520,note_on,0,0,3,,,,,,,,,0,,,65,48
86520,note_on,0,0,3,,,,,,,,,0,,,58,48
86520,note_on,40,0,3,,,,,,,,,0,,,58,0
86520,note_on,0,0,1,,,,,,,,,0,,,68,48
86520,note_on,0,0,1,,,,,,,,,0,,,77,58
86520,note_on,0,0,1,,,,,,,,,0,,,71,48
86520,note_on,0,0,1,,,,,,,,,0,,,74,48
86520,note_on,120,0,1,,,,,,,,,0,,,77,0
86560,note_on,0,0,3,,,,,,,,,0,,,65,0
86560,note_on,0,0,3,,,,,,,,,0,,,65,49
86560,note_on,0,0,3,,,,,,,,,0,,,58,49
86560,note_on,40,0,3,,,,,,,,,0,,,58,0
86600,note_on,40,0,3,,,,,,,,,0,,,58,0
86600,note_on,0,0,3,,,,,,,,,0,,,65,0
86600,note_on,0,0,3,,,,,,,,,0,,,58,49
86600,note_on,0,0,3,,,,,,,,,0,,,65,49
86640,note_on,0,0,1,,,,,,,,,0,,,77,60
86640,note_on,0,0,3,,,,,,,,,0,,,58,50
86640,note_on,0,0,3,,,,,,,,,0,,,62,50
86640,note_on,0,0,3,,,,,,,,,0,,,65,0
86640,note_on,40,0,3,,,,,,,,,0,,,58,0
86640,note_on,0,0,1,,,,,,,,,0,,,68,50
86640,note_on,0,0,1,,,,,,,,,0,,,70,50
86640,note_on,0,0,1,,,,,,,,,0,,,74,0
86640,note_on,0,0,1,,,,,,,,,0,,,71,0
86640,note_on,0,0,1,,,,,,,,,0,,,68,0
86640,note_on,120,0,1,,,,,,,,,0,,,77,0
86680,note_on,40,0,3,,,,,,,,,0,,,58,0
86680,note_on,0,0,3,,,,,,,,,0,,,62,0
86680,note_on,0,0,3,,,,,,,,,0,,,62,51
86680,note_on,0,0,3,,,,,,,,,0,,,58,51
86720,note_on,0,0,3,,,,,,,,,0,,,58,51
86720,note_on,0,0,3,,,,,,,,,0,,,62,51
86720,note_on,0,0,3,,,,,,,,,0,,,62,0
86720,note_on,40,0,3,,,,,,,,,0,,,58,0
86760,note_on,0,0,1,,,,,,,,,0,,,70,0
86760,note_on,0,0,3,,,,,,,,,0,,,58,52
86760,note_on,0,0,3,,,,,,,,,0,,,62,0
86760,note_on,40,0,3,,,,,,,,,0,,,58,0
86760,note_on,0,0,1,,,,,,,,,0,,,75,62
86760,note_on,120,0,1,,,,,,,,,0,,,77,0
86760,note_on,0,0,1,,,,,,,,,0,,,68,0
86760,note_on,0,0,1,,,,,,,,,0,,,68,52
86760,note_on,0,0,1,,,,,,,,,0,,,70,52
86775,note_on,0,0,1,,,,,,,,,0,,,77,62
86775,note_on,15,0,1,,,,,,,,,0,,,75,0
86790,note_on,0,0,1,,,,,,,,,0,,,75,62
86790,note_on,15,0,1,,,,,,,,,0,,,77,0
86800,note_on,0,0,3,,,,,,,,,0,,,58,52
86800,note_on,40,0,3,,,,,,,,,0,,,58,0
86840,note_on,40,0,3,,,,,,,,,0,,,58,0
86840,note_on,0,0,3,,,,,,,,,0,,,58,53
86850,note_on,0,0,1,,,,,,,,,0,,,74,63
86850,note_on,60,0,1,,,,,,,,,0,,,75,0
86880,note_on,0,0,1,,,,,,,,,0,,,79,64
86880,note_on,0,0,3,,,,,,,,,0,,,63,54
86880,note_on,0,0,1,,,,,,,,,0,,,70,54
86880,note_on,0,0,1,,,,,,,,,0,,,67,54
86880,note_on,0,0,1,,,,,,,,,0,,,70,0
86880,note_on,0,0,1,,,,,,,,,0,,,68,0
86880,note_on,30,0,1,,,,,,,,,0,,,74,0
86880,note_on,40,0,3,,,,,,,,,0,,,58,0
86920,note_on,0,0,3,,,,,,,,,0,,,63,54
86920,note_on,40,0,3,,,,,,,,,0,,,63,0
86960,note_on,40,0,3,,,,,,,,,0,,,63,0
86960,note_on,0,0,3,,,,,,,,,0,,,63,55
87000,note_on,120,0,1,,,,,,,,,0,,,67,0
87000,note_on,0,0,1,,,,,,,,,0,,,70,0
87000,note_on,0,0,1,,,,,,,,,0,,,74,55
87000,note_on,0,0,1,,,,,,,,,0,,,68,55
87000,note_on,0,0,3,,,,,,,,,0,,,62,55
87000,note_on,0,0,3,,,,,,,,,0,,,59,55
87000,note_on,0,0,3,,,,,,,,,0,,,65,55
87000,note_on,40,0,3,,,,,,,,,0,,,63,0
87040,note_on,0,0,3,,,,,,,,,0,,,59,56
87040,note_on,0,0,3,,,,,,,,,0,,,65,56
87040,note_on,0,0,3,,,,,,,,,0,,,65,0
87040,note_on,0,0,3,,,,,,,,,0,,,62,0
87040,note_on,40,0,3,,,,,,,,,0,,,59,0
87040,note_on,0,0,3,,,,,,,,,0,,,62,56
87060,note_on,0,0,1,,,,,,,,,0,,,77,66
87060,note_on,60,0,1,,,,,,,,,0,,,79,0
87080,note_on,0,0,3,,,,,,,,,0,,,65,57
87080,note_on,0,0,3,,,,,,,,,0,,,62,0
87080,note_on,0,0,3,,,,,,,,,0,,,65,0
87080,note_on,0,0,3,,,,,,,,,0,,,62,57
87080,note_on,0,0,3,,,,,,,,,0,,,59,57
87080,note_on,40,0,3,,,,,,,,,0,,,59,0
87120,note_on,60,0,1,,,,,,,,,0,,,77,0
87120,note_on,0,0,1,,,,,,,,,0,,,68,0
87120,note_on,0,0,1,,,,,,,,,0,,,74,0
87120,note_on,0,0,1,,,,,,,,,0,,,67,57
87120,note_on,0,0,1,,,,,,,,,0,,,75,67
87120,note_on,40,0,3,,,,,,,,,0,,,59,0
87120,note_on,0,0,3,,,,,,,,,0,,,60,57
87120,note_on,0,0,3,,,,,,,,,0,,,63,57
87120,note_on,0,0,3,,,,,,,,,0,,,62,0
87120,note_on,0,0,3,,,,,,,,,0,,,65,0
87160,note_on,0,0,3,,,,,,,,,0,,,60,58
87160,note_on,0,0,3,,,,,,,,,0,,,63,58
87160,note_on,40,0,3,,,,,,,,,0,,,60,0
87160,note_on,0,0,3,,,,,,,,,0,,,63,0
87200,note_on,0,0,3,,,,,,,,,0,,,63,58
87200,note_on,0,0,3,,,,,,,,,0,,,63,0
87200,note_on,40,0,3,,,,,,,,,0,,,60,0
87200,note_on,0,0,3,,,,,,,,,0,,,60,58
87240,note_on,0,0,1,,,,,,,,,0,,,68,59
87240,note_on,120,0,1,,,,,,,,,0,,,75,0
87240,note_on,0,0,1,,,,,,,,,0,,,67,0
87240,note_on,0,0,1,,,,,,,,,0,,,65,59
87240,note_on,0,0,1,,,,,,,,,0,,,74,69
87240,note_on,0,0,3,,,,,,,,,0,,,56,59
87240,note_on,0,0,3,,,,,,,,,0,,,53,59
87240,note_on,0,0,3,,,,,,,,,0,,,63,0
87240,note_on,40,0,3,,,,,,,,,0,,,60,0
87280,note_on,0,0,3,,,,,,,,,0,,,56,59
87280,note_on,0,0,3,,,,,,,,,0,,,53,59
87280,note_on,0,0,3,,,,,,,,,0,,,53,0
87280,note_on,40,0,3,,,,,,,,,0,,,56,0
87320,note_on,0,0,3,,,,,,,,,0,,,53,60
87320,note_on,40,0,3,,,,,,,,,0,,,56,0
87320,note_on,0,0,3,,,,,,,,,0,,,56,60
87320,note_on,0,0,3,,,,,,,,,0,,,53,0
87330,note_on,0,0,1,,,,,,,,,0,,,63,60
87330,note_on,90,0,1,,,,,,,,,0,,,74,0
87330,note_on,0,0,1,,,,,,,,,0,,,72,70
87330,note_on,0,0,1,,,,,,,,,0,,,65,0
87360,note_on,0,0,1,,,,,,,,,0,,,62,60
87360,note_on,0,0,1,,,,,,,,,0,,,67,60
87360,note_on,0,0,1,,,,,,,,,0,,,68,0
87360,note_on,0,0,1,,,,,,,,,0,,,63,0
87360,note_on,30,0,1,,,,,,,,,0,,,72,0
87360,note_on,40,0,3,,,,,,,,,0,,,56,0
87360,note_on,0,0,3,,,,,,,,,0,,,53,0
87360,note_on,0,0,1,,,,,,,,,0,,,71,70
87360,note_on,0,0,3,,,,,,,,,0,,,55,60
87400,note_on,0,0,3,,,,,,,,,0,,,55,61
87400,note_on,40,0,3,,,,,,,,,0,,,55,0
87440,note_on,40,0,3,,,,,,,,,0,,,55,0
87440,note_on,0,0,3,,,,,,,,,0,,,55,62
87480,note_on,0,0,1,,,,,,,,,0,,,69,74
87480,note_on,0,0,1,,,,,,,,,0,,,67,0
87480,note_on,0,0,1,,,,,,,,,0,,,62,64
87480,note_on,0,0,1,,,,,,,,,0,,,62,0
87480,note_on,0,0,3,,,,,,,,,0,,,55,64
87480,note_on,0,0,3,,,,,,,,,0,,,53,64
87480,note_on,40,0,3,,,,,,,,,0,,,55,0
87480,note_on,0,0,1,,,,,,,,,0,,,67,64
87480,note_on,120,0,1,,,,,,,,,0,,,71,0
87520,note_on,40,0,3,,,,,,,,,0,,,55,0
87520,note_on,0,0,3,,,,,,,,,0,,,53,0
87520,note_on,0,0,3,,,,,,,,,0,,,55,65
87560,note_on,40,0,3,,,,,,,,,0,,,55,0
87560,note_on,0,0,3,,,,,,,,,0,,,55,67
87570,note_on,90,0,1,,,,,,,,,0,,,69,0
87570,note_on,0,0,1,,,,,,,,,0,,,71,77
87600,note_on,0,0,3,,,,,,,,,0,,,55,68
87600,note_on,40,0,3,,,,,,,,,0,,,55,0
87600,note_on,0,0,3,,,,,,,,,0,,,51,68
87600,note_on,30,0,1,,,,,,,,,0,,,71,0
87600,note_on,0,0,1,,,,,,,,,0,,,67,0
87600,note_on,0,0,1,,,,,,,,,0,,,62,0
87600,note_on,0,0,1,,,,,,,,,0,,,67,68
87600,note_on,0,0,1,,,,,,,,,0,,,60,68
87600,note_on,0,0,1,,,,,,,,,0,,,72,78
87640,note_on,0,0,3,,,,,,,,,0,,,55,69
87640,note_on,0,0,3,,,,,,,,,0,,,51,0
87640,note_on,40,0,3,,,,,,,,,0,,,55,0
87680,note_on,40,0,3,,,,,,,,,0,,,55,0
87680,note_on,0,0,3,,,,,,,,,0,,,55,71
87720,note_on,40,0,3,,,,,,,,,0,,,55,0
87720,note_on,0,0,3,,,,,,,,,0,,,55,72
87720,note_on,120,0,1,,,,,,,,,0,,,72,0
87720,note_on,0,0,1,,,,,,,,,0,,,60,0
87720,note_on,0,0,3,,,,,,,,,0,,,48,72
87720,note_on,0,0,1,,,,,,,,,0,,,67,72
87720,note_on,0,0,1,,,,,,,,,0,,,77,82
87720,note_on,0,0,1,,,,,,,,,0,,,74,82
87720,note_on,0,0,1,,,,,,,,,0,,,67,0
87760,note_on,0,0,3,,,,,,,,,0,,,55,74
87760,note_on,0,0,3,,,,,,,,,0,,,48,0
87760,note_on,40,0,3,,,,,,,,,0,,,55,0
87800,note_on,40,0,3,,,,,,,,,0,,,55,0
87800,note_on,0,0,3,,,,,,,,,0,,,55,75
87810,note_on,0,0,1,,,,,,,,,0,,,72,86
87810,note_on,0,0,1,,,,,,,,,0,,,77,0
87810,note_on,0,0,1,,,,,,,,,0,,,75,86
87810,note_on,90,0,1,,,,,,,,,0,,,74,0
87840,note_on,0,0,1,,,,,,,,,0,,,72,0
87840,note_on,0,0,1,,,,,,,,,0,,,67,0
87840,note_on,0,0,1,,,,,,,,,0,,,74,87
87840,note_on,40,0,3,,,,,,,,,0,,,55,0
87840,note_on,0,0,1,,,,,,,,,0,,,71,87
87840,note_on,0,0,3,,,,,,,,,0,,,55,77
87840,note_on,0,0,1,,,,,,,,,0,,,67,87
87840,note_on,30,0,1,,,,,,,,,0,,,75,0
87840,note_on,0,0,3,,,,,,,,,0,,,43,77
87880,note_on,0,0,3,,,,,,,,,0,,,55,78
87880,note_on,0,0,3,,,,,,,,,0,,,43,0
87880,note_on,40,0,3,,,,,,,,,0,,,55,0
87920,note_on,0,0,3,,,,,,,,,0,,,55,79
87920,note_on,40,0,3,,,,,,,,,0,,,55,0
87960,note_on,0,0,3,,,,,,,,,0,,,55,81
87960,note_on,40,0,3,,,,,,,,,0,,,55,0
88000,note_on,40,0,3,,,,,,,,,0,,,55,0
88000,note_on,0,0,3,,,,,,,,,0,,,55,82
88040,note_on,40,0,3,,,,,,,,,0,,,55,0
88040,note_on,0,0,3,,,,,,,,,0,,,55,84
88080,note_on,40,0,3,,,,,,,,,0,,,55,0
88080,note_on,0,0,3,,,,,,,,,0,,,55,85
88120,note_on,40,0,3,,,,,,,,,0,,,55,0
88120,note_on,0,0,3,,,,,,,,,0,,,55,87
88160,note_on,40,0,3,,,,,,,,,0,,,55,0
88160,note_on,0,0,3,,,,,,,,,0,,,55,88
88200,note_on,0,0,1,,,,,,,,,0,,,74,0
88200,note_on,40,0,3,,,,,,,,,0,,,55,0
88200,note_on,0,0,3,,,,,,,,,0,,,55,89
88200,note_on,0,0,1,,,,,,,,,0,,,67,99
88200,note_on,0,0,1,,,,,,,,,0,,,59,99
88200,note_on,0,0,1,,,,,,,,,0,,,71,99
88200,note_on,360,0,1,,,,,,,,,0,,,67,0
88200,note_on,0,0,1,,,,,,,,,0,,,71,0
88240,note_on,40,0,3,,,,,,,,,0,,,55,0
88240,note_on,0,0,3,,,,,,,,,0,,,55,91
88280,note_on,0,0,3,,,,,,,,,0,,,55,92
88280,note_on,40,0,3,,,,,,,,,0,,,55,0
88290,note_on,0,0,1,,,,,,,,,0,,,67,0
88290,note_on,0,0,1,,,,,,,,,0,,,60,103
88290,note_on,0,0,1,,,,,,,,,0,,,69,103
88290,note_on,0,0,1,,,,,,,,,0,,,72,103
88290,note_on,0,0,1,,,,,,,,,0,,,71,0
88290,note_on,90,0,1,,,,,,,,,0,,,59,0
88320,note_on,0,0,1,,,,,,,,,0,,,71,104
88320,note_on,30,0,1,,,,,,,,,0,,,60,0
88320,note_on,0,0,1,,,,,,,,,0,,,69,0
88320,note_on,0,0,1,,,,,,,,,0,,,62,104
88320,note_on,0,0,1,,,,,,,,,0,,,72,0
88320,note_on,0,0,1,,,,,,,,,0,,,74,104
88320,note_on,40,0,3,,,,,,,,,0,,,55,0
88320,note_on,0,0,3,,,,,,,,,0,,,55,94
88360,note_on,0,0,3,,,,,,,,,0,,,55,95
88360,note_on,40,0,3,,,,,,,,,0,,,55,0
88400,note_on,40,0,3,,,,,,,,,0,,,55,0
88400,note_on,0,0,3,,,,,,,,,0,,,55,97
88440,note_on,0,0,1,,,,,,,,,0,,,74,108
88440,note_on,0,0,1,,,,,,,,,0,,,74,0
88440,note_on,0,0,1,,,,,,,,,0,,,71,0
88440,note_on,120,0,1,,,,,,,,,0,,,62,0
88440,note_on,0,0,1,,,,,,,,,0,,,71,108
88440,note_on,0,0,1,,,,,,,,,0,,,62,108
88440,note_on,40,0,3,,,,,,,,,0,,,55,0
88440,note_on,0,0,3,,,,,,,,,0,,,54,98
88440,note_on,0,0,3,,,,,,,,,0,,,55,98
88480,note_on,0,0,3,,,,,,,,,0,,,54,99
88480,note_on,40,0,3,,,,,,,,,0,,,55,0
88480,note_on,0,0,3,,,,,,,,,0,,,55,99
88480,note_on,0,0,3,,,,,,,,,0,,,54,0
88520,note_on,40,0,3,,,,,,,,,0,,,55,0
88520,note_on,0,0,3,,,,,,,,,0,,,54,0
88520,note_on,0,0,3,,,,,,,,,0,,,54,101
88520,note_on,0,0,3,,,,,,,,,0,,,55,101
88560,note_on,120,0,1,,,,,,,,,0,,,62,0
88560,note_on,0,0,1,,,,,,,,,0,,,71,0
88560,note_on,0,0,1,,,,,,,,,0,,,74,0
88560,note_on,0,0,1,,,,,,,,,0,,,74,112
88560,note_on,0,0,1,,,,,,,,,0,,,62,112
88560,note_on,0,0,3,,,,,,,,,0,,,53,102
88560,note_on,0,0,3,,,,,,,,,0,,,54,0
88560,note_on,40,0,3,,,,,,,,,0,,,55,0
88560,note_on,0,0,1,,,,,,,,,0,,,71,112
88560,note_on,0,0,3,,,,,,,,,0,,,55,102
88600,note_on,0,0,3,,,,,,,,,0,,,55,104
88600,note_on,0,0,3,,,,,,,,,0,,,52,104
88600,note_on,0,0,3,,,,,,,,,0,,,53,0
88600,note_on,40,0,3,,,,,,,,,0,,,55,0
88640,note_on,0,0,3,,,,,,,,,0,,,55,105
88640,note_on,0,0,3,,,,,,,,,0,,,50,105
88640,note_on,0,0,3,,,,,,,,,0,,,52,0
88640,note_on,40,0,3,,,,,,,,,0,,,55,0
88680,note_on,0,0,3,,,,,,,,,0,,,48,107
88680,note_on,0,0,3,,,,,,,,,0,,,50,0
88680,note_on,40,0,3,,,,,,,,,0,,,55,0
88680,note_on,120,0,1,,,,,,,,,0,,,62,0
88680,note_on,0,0,1,,,,,,,,,0,,,71,0
88680,note_on,0,0,1,,,,,,,,,0,,,74,0
88680,note_on,0,0,1,,,,,,,,,0,,,76,117
88680,note_on,0,0,1,,,,,,,,,0,,,72,117
88680,note_on,0,0,3,,,,,,,,,0,,,55,107
88680,note_on,0,0,1,,,,,,,,,0,,,64,117
88720,note_on,0,0,3,,,,,,,,,0,,,55,108
88720,note_on,0,0,3,,,,,,,,,0,,,48,0
88720,note_on,40,0,3,,,,,,,,,0,,,55,0
88720,note_on,0,0,3,,,,,,,,,0,,,47,108
88760,note_on,0,0,3,,,,,,,,,0,,,47,0
88760,note_on,40,0,3,,,,,,,,,0,,,55,0
88760,note_on,0,0,3,,,,,,,,,0,,,55,109
88760,note_on,0,0,3,,,,,,,,,0,,,46,109
88770,note_on,90,0,1,,,,,,,,,0,,,64,0
88770,note_on,0,0,1,,,,,,,,,0,,,72,0
88770,note_on,0,0,1,,,,,,,,,0,,,76,0
88770,note_on,0,0,1,,,,,,,,,0,,,77,120
88770,note_on,0,0,1,,,,,,,,,0,,,74,120
88770,note_on,0,0,1,,,,,,,,,0,,,65,120
88800,note_on,0,0,3,,,,,,,,,0,,,45,110
88800,note_on,0,0,3,,,,,,,,,0,,,55,110
88800,note_on,0,0,1,,,,,,,,,0,,,76,120
88800,note_on,0,0,1,,,,,,,,,0,,,79,120
88800,note_on,0,0,1,,,,,,,,,0,,,77,0
88800,note_on,0,0,1,,,,,,,,,0,,,67,120
88800,note_on,30,0,1,,,,,,,,,0,,,65,0
88800,note_on,40,0,3,,,,,,,,,0,,,55,0
88800,note_on,0,0,3,,,,,,,,,0,,,46,0
88800,note_on,0,0,1,,,,,,,,,0,,,74,0
88840,note_on,0,0,3,,,,,,,,,0,,,45,110
88840,note_on,0,0,3,,,,,,,,,0,,,55,110
88840,note_on,0,0,3,,,,,,,,,0,,,55,0
88840,note_on,40,0,3,,,,,,,,,0,,,45,0
88880,note_on,0,0,3,,,,,,,,,0,,,55,0
88880,note_on,40,0,3,,,,,,,,,0,,,45,0
88880,note_on,0,0,3,,,,,,,,,0,,,45,109
88880,note_on,0,0,3,,,,,,,,,0,,,55,109
88920,note_on,0,0,3,,,,,,,,,0,,,45,108
88920,note_on,0,0,3,,,,,,,,,0,,,55,0
88920,note_on,0,0,3,,,,,,,,,0,,,55,108
88920,note_on,40,0,3,,,,,,,,,0,,,45,0
88960,note_on,0,0,3,,,,,,,,,0,,,55,107
88960,note_on,0,0,3,,,,,,,,,0,,,55,0
88960,note_on,40,0,3,,,,,,,,,0,,,45,0
88960,note_on,0,0,3,,,,,,,,,0,,,45,107
88980,note_on,0,0,1,,,,,,,,,0,,,65,116
88980,note_on,0,0,1,,,,,,,,,0,,,74,116
88980,note_on,0,0,1,,,,,,,,,0,,,77,116
88980,note_on,0,0,1,,,,,,,,,0,,,79,0
88980,note_on,0,0,1,,,,,,,,,0,,,76,0
88980,note_on,180,0,1,,,,,,,,,0,,,67,0
89000,note_on,40,0,3,,,,,,,,,0,,,45,0
89000,note_on,0,0,3,,,,,,,,,0,,,55,106
89000,note_on,0,0,3,,,,,,,,,0,,,45,106
89000,note_on,0,0,3,,,,,,,,,0,,,55,0
89040,note_on,0,0,3,,,,,,,,,0,,,55,105
89040,note_on,0,0,1,,,,,,,,,0,,,77,0
89040,note_on,0,0,3,,,,,,,,,0,,,45,105
89040,note_on,0,0,1,,,,,,,,,0,,,64,115
89040,note_on,0,0,1,,,,,,,,,0,,,73,115
89040,note_on,0,0,1,,,,,,,,,0,,,76,115
89040,note_on,0,0,1,,,,,,,,,0,,,74,0
89040,note_on,60,0,1,,,,,,,,,0,,,65,0
89040,note_on,40,0,3,,,,,,,,,0,,,45,0
89040,note_on,0,0,3,,,,,,,,,0,,,55,0
89080,note_on,0,0,3,,,,,,,,,0,,,45,104
89080,note_on,40,0,3,,,,,,,,,0,,,45,0
89080,note_on,0,0,3,,,,,,,,,0,,,55,0
89120,note_on,0,0,3,,,,,,,,,0,,,45,103
89120,note_on,40,0,3,,,,,,,,,0,,,45,0
89160,note_on,120,0,1,,,,,,,,,0,,,64,0
89160,note_on,0,0,1,,,,,,,,,0,,,76,0
89160,note_on,0,0,1,,,,,,,,,0,,,73,0
89160,note_on,40,0,3,,,,,,,,,0,,,45,0
89160,note_on,0,0,3,,,,,,,,,0,,,45,102
89200,note_on,0,0,3,,,,,,,,,0,,,45,101
89200,note_on,40,0,3,,,,,,,,,0,,,45,0
89240,note_on,0,0,3,,,,,,,,,0,,,45,100
89240,note_on,40,0,3,,,,,,,,,0,,,45,0
89280,note_on,120,0,1,,,,,,,,,0,,,55,100
89280,note_on,0,0,3,,,,,,,,,0,,,46,100
89280,note_on,0,0,1,,,,,,,,,0,,,60,100
89280,note_on,0,0,1,,,,,,,,,0,,,64,110
89280,note_on,40,0,3,,,,,,,,,0,,,45,0
89320,note_on,40,0,3,,,,,,,,,0,,,46,0
89320,note_on,0,0,3,,,,,,,,,0,,,45,60
89360,note_on,40,0,3,,,,,,,,,0,,,45,0
89360,note_on,0,0,3,,,,,,,,,0,,,45,60
89400,note_on,40,0,3,,,,,,,,,0,,,45,0
89400,note_on,0,0,3,,,,,,,,,0,,,45,60
89440,note_on,40,0,3,,,,,,,,,0,,,45,0
89440,note_on,0,0,3,,,,,,,,,0,,,45,60
89460,note_on,180,0,1,,,,,,,,,0,,,64,0
89460,note_on,0,0,1,,,,,,,,,0,,,65,70
89480,note_on,40,0,3,,,,,,,,,0,,,45,0
89480,note_on,0,0,3,,,,,,,,,0,,,45,60
89520,note_on,40,0,3,,,,,,,,,0,,,45,0
89520,note_on,0,0,3,,,,,,,,,0,,,45,60
89520,note_on,60,0,1,,,,,,,,,0,,,65,0
89520,note_on,0,0,1,,,,,,,,,0,,,64,70
89560,note_on,0,0,3,,,,,,,,,0,,,45,60
89560,note_on,40,0,3,,,,,,,,,0,,,45,0
89600,note_on,0,0,3,,,,,,,,,0,,,45,60
89600,note_on,40,0,3,,,,,,,,,0,,,45,0
89640,note_on,40,0,3,,,,,,,,,0,,,45,0
89640,note_on,0,0,3,,,,,,,,,0,,,45,60
89640,note_on,120,0,1,,,,,,,,,0,,,64,0
89640,note_on,0,0,1,,,,,,,,,0,,,60,0
89640,note_on,0,0,1,,,,,,,,,0,,,55,0
89680,note_on,0,0,3,,,,,,,,,0,,,45,60
89680,note_on,40,0,3,,,,,,,,,0,,,45,0
89720,note_on,0,0,3,,,,,,,,,0,,,45,60
89720,note_on,40,0,3,,,,,,,,,0,,,45,0
89760,note_on,0,0,1,,,,,,,,,0,,,65,120
89760,note_on,0,0,3,,,,,,,,,0,,,44,110
89760,note_on,40,0,3,,,,,,,,,0,,,45,0
89760,note_on,120,0,1,,,,,,,,,0,,,77,120
89760,note_on,0,0,1,,,,,,,,,0,,,74,120
89800,note_on,0,0,3,,,,,,,,,0,,,44,110
89800,note_on,40,0,3,,,,,,,,,0,,,44,0
89840,note_on,40,0,3,,,,,,,,,0,,,44,0
89840,note_on,0,0,3,,,,,,,,,0,,,44,109
89880,note_on,0,0,3,,,,,,,,,0,,,44,108
89880,note_on,40,0,3,,,,,,,,,0,,,44,0
89920,note_on,40,0,3,,,,,,,,,0,,,44,0
89920,note_on,0,0,3,,,,,,,,,0,,,44,107
89940,note_on,0,0,1,,,,,,,,,0,,,74,0
89940,note_on,0,0,1,,,,,,,,,0,,,77,0
89940,note_on,0,0,1,,,,,,,,,0,,,63,116
89940,note_on,0,0,1,,,,,,,,,0,,,72,116
89940,note_on,0,0,1,,,,,,,,,0,,,75,116
89940,note_on,180,0,1,,,,,,,,,0,,,65,0
89960,note_on,0,0,3,,,,,,,,,0,,,44,106
89960,note_on,40,0,3,,,,,,,,,0,,,44,0
90000,note_on,0,0,1,,,,,,,,,0,,,63,0
90000,note_on,0,0,1,,,,,,,,,0,,,74,115
90000,note_on,0,0,1,,,,,,,,,0,,,71,115
90000,note_on,0,0,1,,,,,,,,,0,,,62,115
90000,note_on,0,0,3,,,,,,,,,0,,,44,105
90000,note_on,0,0,1,,,,,,,,,0,,,72,0
90000,note_on,60,0,1,,,,,,,,,0,,,75,0
90000,note_on,40,0,3,,,,,,,,,0,,,44,0
90040,note_on,0,0,3,,,,,,,,,0,,,44,104
90040,note_on,40,0,3,,,,,,,,,0,,,44,0
90080,note_on,40,0,3,,,,,,,,,0,,,44,0
90080,note_on,0,0,3,,,,,,,,,0,,,44,103
90120,note_on,40,0,3,,,,,,,,,0,,,44,0
90120,note_on,0,0,3,,,,,,,,,0,,,44,102
90120,note_on,120,0,1,,,,,,,,,0,,,62,0
90120,note_on,0,0,1,,,,,,,,,0,,,71,0
90120,note_on,0,0,1,,,,,,,,,0,,,74,0
90160,note_on,0,0,3,,,,,,,,,0,,,44,101
90160,note_on,40,0,3,,,,,,,,,0,,,44,0
90200,note_on,40,0,3,,,,,,,,,0,,,44,0
90200,note_on,0,0,3,,,,,,,,,0,,,44,100
90240,note_on,40,0,3,,,,,,,,,0,,,44,0
90240,note_on,0,0,3,,,,,,,,,0,,,43,100
90240,note_on,0,0,1,,,,,,,,,0,,,62,110
90240,note_on,120,0,1,,,,,,,,,0,,,53,100
90240,note_on,0,0,1,,,,,,,,,0,,,59,100
90280,note_on,40,0,3,,,,,,,,,0,,,43,0
90280,note_on,0,0,3,,,,,,,,,0,,,44,60
90320,note_on,40,0,3,,,,,,,,,0,,,44,0
90320,note_on,0,0,3,,,,,,,,,0,,,44,60
90360,note_on,0,0,3,,,,,,,,,0,,,44,60
90360,note_on,40,0,3,,,,,,,,,0,,,44,0
90400,note_on,40,0,3,,,,,,,,,0,,,44,0
90400,note_on,0,0,3,,,,,,,,,0,,,44,60
90420,note_on,0,0,1,,,,,,,,,0,,,63,70
90420,note_on,180,0,1,,,,,,,,,0,,,62,0
90440,note_on,40,0,3,,,,,,,,,0,,,44,0
90440,note_on,0,0,3,,,,,,,,,0,,,44,60
90480,note_on,0,0,1,,,,,,,,,0,,,62,70
90480,note_on,60,0,1,,,,,,,,,0,,,63,0
90480,note_on,0,0,3,,,,,,,,,0,,,44,60
90480,note_on,40,0,3,,,,,,,,,0,,,44,0
90520,note_on,40,0,3,,,,,,,,,0,,,44,0
90520,note_on,0,0,3,,,,,,,,,0,,,44,60
90560,note_on,0,0,3,,,,,,,,,0,,,44,60
90560,note_on,40,0,3,,,,,,,,,0,,,44,0
90600,note_on,40,0,3,,,,,,,,,0,,,44,0
90600,note_on,0,0,3,,,,,,,,,0,,,43,60
90600,note_on,0,0,1,,,,,,,,,0,,,53,0
90600,note_on,0,0,1,,,,,,,,,0,,,59,0
90600,note_on,120,0,1,,,,,,,,,0,,,62,0
90640,note_on,40,0,3,,,,,,,,,0,,,43,0
90640,note_on,0,0,3,,,,,,,,,0,,,43,60
90680,note_on,0,0,3,,,,,,,,,0,,,43,60
90680,note_on,40,0,3,,,,,,,,,0,,,43,0
90720,note_on,0,0,1,,,,,,,,,0,,,75,110
90720,note_on,0,0,3,,,,,,,,,0,,,42,100
90720,note_on,40,0,3,,,,,,,,,0,,,43,0
90720,note_on,0,0,3,,,,,,,,,0,,,48,110
90720,note_on,120,0,1,,,,,,,,,0,,,69,100
90760,note_on,40,0,3,,,,,,,,,0,,,42,0
90760,note_on,0,0,3,,,,,,,,,0,,,42,96
90800,note_on,40,0,3,,,,,,,,,0,,,42,0
90800,note_on,0,0,3,,,,,,,,,0,,,42,91
90840,note_on,40,0,3,,,,,,,,,0,,,42,0
90840,note_on,0,0,3,,,,,,,,,0,,,42,86
90880,note_on,40,0,3,,,,,,,,,0,,,42,0
90880,note_on,0,0,3,,,,,,,,,0,,,42,81
90920,note_on,0,0,3,,,,,,,,,0,,,42,76
90920,note_on,40,0,3,,,,,,,,,0,,,42,0
90960,note_on,0,0,3,,,,,,,,,0,,,48,0
90960,note_on,40,0,3,,,,,,,,,0,,,42,0
90960,note_on,0,0,3,,,,,,,,,0,,,50,81
90960,note_on,240,0,1,,,,,,,,,0,,,75,0
90960,note_on,0,0,1,,,,,,,,,0,,,74,81
90960,note_on,0,0,3,,,,,,,,,0,,,42,71
91000,note_on,0,0,3,,,,,,,,,0,,,42,66
91000,note_on,40,0,3,,,,,,,,,0,,,42,0
91040,note_on,40,0,3,,,,,,,,,0,,,42,0
91040,note_on,0,0,3,,,,,,,,,0,,,42,61
91080,note_on,0,0,1,,,,,,,,,0,,,72,70
91080,note_on,0,0,3,,,,,,,,,0,,,51,70
91080,note_on,0,0,3,,,,,,,,,0,,,42,60
91080,note_on,120,0,1,,,,,,,,,0,,,74,0
91080,note_on,40,0,3,,,,,,,,,0,,,42,0
91080,note_on,0,0,3,,,,,,,,,0,,,50,0
91120,note_on,40,0,3,,,,,,,,,0,,,42,0
91120,note_on,0,0,3,,,,,,,,,0,,,42,53
91160,note_on,40,0,3,,,,,,,,,0,,,42,0
91160,note_on,0,0,3,,,,,,,,,0,,,42,45
91200,note_on,0,0,1,,,,,,,,,0,,,69,0
91200,note_on,40,0,3,,,,,,,,,0,,,42,0
91200,note_on,0,0,3,,,,,,,,,0,,,51,0
91200,note_on,0,0,3,,,,,,,,,0,,,43,40
91200,note_on,0,0,3,,,,,,,,,0,,,52,50
91200,note_on,0,0,1,,,,,,,,,0,,,67,50
91200,note_on,120,0,1,,,,,,,,,0,,,72,0
91240,note_on,40,0,3,,,,,,,,,0,,,43,0
91240,note_on,0,0,3,,,,,,,,,0,,,43,40
91280,note_on,0,0,3,,,,,,,,,0,,,43,40
91280,note_on,40,0,3,,,,,,,,,0,,,43,0
91320,note_on,40,0,3,,,,,,,,,0,,,43,0
91320,note_on,0,0,3,,,,,,,,,0,,,43,40
91360,note_on,40,0,3,,,,,,,,,0,,,43,0
91360,note_on,0,0,3,,,,,,,,,0,,,43,40
91400,note_on,0,0,3,,,,,,,,,0,,,43,40
91400,note_on,40,0,3,,,,,,,,,0,,,43,0
91440,note_on,0,0,3,,,,,,,,,0,,,43,40
91440,note_on,0,0,3,,,,,,,,,0,,,52,0
91440,note_on,0,0,1,,,,,,,,,0,,,72,50
91440,note_on,40,0,3,,,,,,,,,0,,,43,0
91440,note_on,0,0,1,,,,,,,,,0,,,65,40
91440,note_on,240,0,1,,,,,,,,,0,,,67,0
91440,note_on,0,0,3,,,,,,,,,0,,,50,50
91480,note_on,0,0,3,,,,,,,,,0,,,43,40
91480,note_on,40,0,3,,,,,,,,,0,,,43,0
91500,note_on,0,0,1,,,,,,,,,0,,,71,50
91500,note_on,60,0,1,,,,,,,,,0,,,72,0
91520,note_on,0,0,3,,,,,,,,,0,,,43,40
91520,note_on,40,0,3,,,,,,,,,0,,,43,0
91560,note_on,0,0,1,,,,,,,,,0,,,69,50
91560,note_on,60,0,1,,,,,,,,,0,,,71,0
91560,note_on,40,0,3,,,,,,,,,0,,,43,0
91560,note_on,0,0,3,,,,,,,,,0,,,43,40
91600,note_on,40,0,3,,,,,,,,,0,,,43,0
91600,note_on,0,0,3,,,,,,,,,0,,,43,40
91620,note_on,0,0,1,,,,,,,,,0,,,71,50
91620,note_on,60,0,1,,,,,,,,,0,,,69,0
91640,note_on,0,0,3,,,,,,,,,0,,,43,40
91640,note_on,40,0,3,,,,,,,,,0,,,43,0
91680,note_on,0,0,3,,,,,,,,,0,,,36,40
91680,note_on,0,0,1,,,,,,,,,0,,,65,0
91680,note_on,0,0,1,,,,,,,,,0,,,64,40
91680,note_on,0,0,1,,,,,,,,,0,,,72,50
91680,note_on,0,0,3,,,,,,,,,0,,,48,50
91680,note_on,0,0,3,,,,,,,,,0,,,50,0
91680,note_on,40,0,3,,,,,,,,,0,,,43,0
91680,note_on,60,0,1,,,,,,,,,0,,,71,0
91720,note_on,40,0,3,,,,,,,,,0,,,36,0
91720,note_on,0,0,3,,,,,,,,,0,,,36,40
91760,note_on,40,0,3,,,,,,,,,0,,,36,0
91760,note_on,0,0,3,,,,,,,,,0,,,36,40
91800,note_on,40,0,3,,,,,,,,,0,,,36,0
91800,note_on,0,0,3,,,,,,,,,0,,,36,40
91840,note_on,40,0,3,,,,,,,,,0,,,36,0
91840,note_on,0,0,3,,,,,,,,,0,,,36,40
91880,note_on,40,0,3,,,,,,,,,0,,,36,0
91880,note_on,0,0,3,,,,,,,,,0,,,36,40
91920,note_on,40,0,3,,,,,,,,,0,,,36,0
91920,note_on,0,0,3,,,,,,,,,0,,,36,40
91960,note_on,0,0,3,,,,,,,,,0,,,36,40
91960,note_on,40,0,3,,,,,,,,,0,,,36,0
92000,note_on,40,0,3,,,,,,,,,0,,,36,0
92000,note_on,0,0,3,,,,,,,,,0,,,36,40
92040,note_on,40,0,3,,,,,,,,,0,,,36,0
92040,note_on,0,0,3,,,,,,,,,0,,,36,40
92080,note_on,0,0,3,,,,,,,,,0,,,36,40
92080,note_on,40,0,3,,,,,,,,,0,,,36,0
92120,note_on,0,0,3,,,,,,,,,0,,,36,40
92120,note_on,40,0,3,,,,,,,,,0,,,36,0
92160,note_on,0,0,3,,,,,,,,,0,,,36,40
92160,note_on,40,0,3,,,,,,,,,0,,,36,0
92200,note_on,0,0,3,,,,,,,,,0,,,36,40
92200,note_on,40,0,3,,,,,,,,,0,,,36,0
92240,note_on,0,0,3,,,,,,,,,0,,,36,40
92240,note_on,40,0,3,,,,,,,,,0,,,36,0
92280,note_on,0,0,3,,,,,,,,,0,,,36,40
92280,note_on,40,0,3,,,,,,,,,0,,,36,0
92320,note_on,0,0,3,,,,,,,,,0,,,36,40
92320,note_on,40,0,3,,,,,,,,,0,,,36,0
92360,note_on,0,0,3,,,,,,,,,0,,,36,40
92360,note_on,40,0,3,,,,,,,,,0,,,36,0
92400,note_on,40,0,3,,,,,,,,,0,,,36,0
92400,note_on,0,0,3,,,,,,,,,0,,,36,40
92520,note_on,0,0,1,,,,,,,,,0,,,71,40
92520,note_on,0,0,1,,,,,,,,,0,,,64,0
92520,note_on,840,0,1,,,,,,,,,0,,,72,0
92520,note_on,120,0,3,,,,,,,,,0,,,36,0
92520,note_on,0,0,3,,,,,,,,,0,,,48,0
92610,note_on,0,0,1,,,,,,,,,0,,,72,40
92610,note_on,90,0,1,,,,,,,,,0,,,71,0
92640,note_on,0,0,1,,,,,,,,,0,,,74,40
92640,note_on,30,0,1,,,,,,,,,0,,,72,0
92760,note_on,0,0,1,,,,,,,,,0,,,74,40
92760,note_on,120,0,1,,,,,,,,,0,,,74,0
92760,note_on,0,0,3,,,,,,,,,0,,,55,50
92760,note_on,240,0,3,,,,,,,,,0,,,67,50
92880,note_on,0,0,1,,,,,,,,,0,,,74,40
92880,note_on,120,0,1,,,,,,,,,0,,,74,0
93000,note_on,240,0,3,,,,,,,,,0,,,55,0
93000,note_on,0,0,3,,,,,,,,,0,,,67,0
93000,note_on,120,0,1,,,,,,,,,0,,,74,0
93000,note_on,0,0,1,,,,,,,,,0,,,72,40
93060,note_on,0,0,1,,,,,,,,,0,,,71,40
93060,note_on,60,0,1,,,,,,,,,0,,,72,0
93120,note_on,60,0,1,,,,,,,,,0,,,71,0
93120,note_on,0,0,1,,,,,,,,,0,,,75,40
93240,note_on,0,0,3,,,,,,,,,0,,,67,50
93240,note_on,240,0,3,,,,,,,,,0,,,55,50
93300,note_on,180,0,1,,,,,,,,,0,,,75,0
93300,note_on,0,0,1,,,,,,,,,0,,,74,40
93360,note_on,60,0,1,,,,,,,,,0,,,74,0
93360,note_on,0,0,1,,,,,,,,,0,,,72,40
93420,note_on,60,0,1,,,,,,,,,0,,,72,0
93420,note_on,0,0,1,,,,,,,,,0,,,67,59
93480,note_on,240,0,3,,,,,,,,,0,,,67,0
93480,note_on,0,0,1,,,,,,,,,0,,,72,79
93480,note_on,0,0,3,,,,,,,,,0,,,55,0
93480,note_on,60,0,1,,,,,,,,,0,,,67,0
93540,note_on,0,0,1,,,,,,,,,0,,,74,99
93540,note_on,60,0,1,,,,,,,,,0,,,72,0
93600,set_tempo,9600,1,0,,,,,,536241,,,,,,,
93600,note_on,60,0,1,,,,,,,,,0,,,74,0
93600,note_on,0,0,1,,,,,,,,,0,,,75,100
93600,note_on,120,0,3,,,,,,,,,0,,,63,100
93614,set_tempo,14,1,0,,,,,,537683,,,,,,,
93621,set_tempo,7,1,0,,,,,,539132,,,,,,,
93628,set_tempo,7,1,0,,,,,,540589,,,,,,,
93635,set_tempo,7,1,0,,,,,,542054,,,,,,,
93642,set_tempo,7,1,0,,,,,,543527,,,,,,,
93649,set_tempo,7,1,0,,,,,,545009,,,,,,,
93656,set_tempo,7,1,0,,,,,,546498,,,,,,,
93663,set_tempo,7,1,0,,,,,,547995,,,,,,,
93670,set_tempo,7,1,0,,,,,,549501,,,,,,,
93677,set_tempo,7,1,0,,,,,,551015,,,,,,,
93684,set_tempo,7,1,0,,,,,,552537,,,,,,,
93691,set_tempo,7,1,0,,,,,,554068,,,,,,,
93698,set_tempo,7,1,0,,,,,,555607,,,,,,,
93705,set_tempo,7,1,0,,,,,,557155,,,,,,,
93712,set_tempo,7,1,0,,,,,,558711,,,,,,,
93720,note_on,0,0,1,,,,,,,,,0,,,74,60
93720,note_on,120,0,1,,,,,,,,,0,,,75,0
93720,note_on,0,0,3,,,,,,,,,0,,,62,60
93720,set_tempo,8,1,0,,,,,,560276,,,,,,,
93720,note_on,120,0,3,,,,,,,,,0,,,63,0
93727,set_tempo,7,1,0,,,,,,561850,,,,,,,
93734,set_tempo,7,1,0,,,,,,563433,,,,,,,
93741,set_tempo,7,1,0,,,,,,565025,,,,,,,
93748,set_tempo,7,1,0,,,,,,566626,,,,,,,
93755,set_tempo,7,1,0,,,,,,568236,,,,,,,
93762,set_tempo,7,1,0,,,,,,569855,,,,,,,
93769,set_tempo,7,1,0,,,,,,571483,,,,,,,
93776,set_tempo,7,1,0,,,,,,573121,,,,,,,
93780,note_on,60,0,3,,,,,,,,,0,,,62,0
93780,note_on,0,0,1,,,,,,,,,0,,,72,60
93780,note_on,0,0,3,,,,,,,,,0,,,60,60
93780,note_on,60,0,1,,,,,,,,,0,,,74,0
93783,set_tempo,7,1,0,,,,,,574768,,,,,,,
93790,set_tempo,7,1,0,,,,,,576424,,,,,,,
93797,set_tempo,7,1,0,,,,,,578090,,,,,,,
93804,set_tempo,7,1,0,,,,,,579766,,,,,,,
93811,set_tempo,7,1,0,,,,,,581452,,,,,,,
93818,set_tempo,7,1,0,,,,,,583147,,,,,,,
93825,set_tempo,7,1,0,,,,,,584852,,,,,,,
93832,set_tempo,7,1,0,,,,,,586568,,,,,,,
93840,note_on,60,0,3,,,,,,,,,0,,,60,0
93840,note_on,0,0,1,,,,,,,,,0,,,67,60
93840,set_tempo,8,1,0,,,,,,588293,,,,,,,
93840,note_on,60,0,1,,,,,,,,,0,,,72,0
93840,note_on,0,0,3,,,,,,,,,0,,,55,60
93840,note_on,0,0,3,,,,,,,,,0,,,64,60
93847,set_tempo,7,1,0,,,,,,590029,,,,,,,
93854,set_tempo,7,1,0,,,,,,591774,,,,,,,
93861,set_tempo,7,1,0,,,,,,593531,,,,,,,
93868,set_tempo,7,1,0,,,,,,595297,,,,,,,
93875,set_tempo,7,1,0,,,,,,597074,,,,,,,
93882,set_tempo,7,1,0,,,,,,598862,,,,,,,
93889,set_tempo,7,1,0,,,,,,600661,,,,,,,
93896,set_tempo,7,1,0,,,,,,602470,,,,,,,
93903,set_tempo,7,1,0,,,,,,604290,,,,,,,
93910,set_tempo,7,1,0,,,,,,606122,,,,,,,
93917,set_tempo,7,1,0,,,,,,607964,,,,,,,
93924,set_tempo,7,1,0,,,,,,609818,,,,,,,
93931,set_tempo,7,1,0,,,,,,611683,,,,,,,
93938,set_tempo,7,1,0,,,,,,613560,,,,,,,
93945,set_tempo,7,1,0,,,,,,615448,,,,,,,
93952,set_tempo,7,1,0,,,,,,617347,,,,,,,
93960,note_on,0,0,1,,,,,,,,,0,,,71,60
93960,note_on,0,0,3,,,,,,,,,0,,,62,60
93960,note_on,0,0,3,,,,,,,,,0,,,55,0
93960,note_on,0,0,3,,,,,,,,,0,,,55,60
93960,note_on,120,0,3,,,,,,,,,0,,,64,0
93960,note_on,0,0,1,,,,,,,,,0,,,65,60
93960,set_tempo,8,1,0,,,,,,619259,,,,,,,
93960,note_on,120,0,1,,,,,,,,,0,,,67,0
93967,set_tempo,7,1,0,,,,,,621182,,,,,,,
93974,set_tempo,7,1,0,,,,,,623118,,,,,,,
93981,set_tempo,7,1,0,,,,,,625065,,,,,,,
93988,set_tempo,7,1,0,,,,,,627025,,,,,,,
93995,set_tempo,7,1,0,,,,,,628997,,,,,,,
94002,set_tempo,7,1,0,,,,,,630981,,,,,,,
94009,set_tempo,7,1,0,,,,,,632978,,,,,,,
94016,set_tempo,7,1,0,,,,,,634988,,,,,,,
94023,set_tempo,7,1,0,,,,,,637010,,,,,,,
94030,set_tempo,7,1,0,,,,,,639046,,,,,,,
94037,set_tempo,7,1,0,,,,,,641094,,,,,,,
94044,set_tempo,7,1,0,,,,,,643156,,,,,,,
94051,set_tempo,7,1,0,,,,,,645231,,,,,,,
94058,set_tempo,7,1,0,,,,,,647319,,,,,,,
94065,set_tempo,7,1,0,,,,,,649421,,,,,,,
94072,set_tempo,7,1,0,,,,,,651537,,,,,,,
94080,note_on,0,0,3,,,,,,,,,0,,,48,60
94080,note_on,0,0,1,,,,,,,,,0,,,72,60
94080,note_on,0,0,1,,,,,,,,,0,,,64,60
94080,note_on,120,0,1,,,,,,,,,0,,,65,0
94080,note_on,120,0,3,,,,,,,,,0,,,55,0
94080,note_on,0,0,3,,,,,,,,,0,,,62,0
94080,note_on,0,0,1,,,,,,,,,0,,,71,0
94080,note_on,0,0,3,,,,,,,,,0,,,55,60
94080,set_tempo,8,1,0,,,,,,535714,,,,,,,
94080,control_change,17775,0,4,,,,,,,,,0,64,127,,
94080,note_on,0,0,3,,,,,,,,,0,,,60,60
94440,note_on,360,0,3,,,,,,,,,0,,,60,0
94440,note_on,0,0,3,,,,,,,,,0,,,55,0
94440,note_on,0,0,3,,,,,,,,,0,,,48,0
94440,note_on,0,0,3,,,,,,,,,0,,,59,40
94440,note_on,0,0,1,,,,,,,,,0,,,72,0
94440,note_on,360,0,1,,,,,,,,,0,,,64,0
94440,control_change,360,0,4,,,,,,,,,0,64,0,,
94530,note_on,0,0,3,,,,,,,,,0,,,60,40
94530,note_on,90,0,3,,,,,,,,,0,,,59,0
94560,note_on,30,0,3,,,,,,,,,0,,,60,0
94560,note_on,0,0,3,,,,,,,,,0,,,62,40
94680,note_on,120,0,3,,,,,,,,,0,,,62,0
94680,note_on,0,0,3,,,,,,,,,0,,,62,40
94680,note_on,240,0,1,,,,,,,,,0,,,79,50
94680,note_on,0,0,1,,,,,,,,,0,,,67,50
94800,note_on,0,0,3,,,,,,,,,0,,,62,40
94800,note_on,120,0,3,,,,,,,,,0,,,62,0
94920,note_on,120,0,3,,,,,,,,,0,,,62,0
94920,note_on,240,0,1,,,,,,,,,0,,,67,0
94920,note_on,0,0,1,,,,,,,,,0,,,79,0
94920,note_on,0,0,3,,,,,,,,,0,,,60,40
95010,note_on,90,0,3,,,,,,,,,0,,,60,0
95010,note_on,0,0,3,,,,,,,,,0,,,62,40
95040,note_on,30,0,3,,,,,,,,,0,,,62,0
95040,note_on,0,0,3,,,,,,,,,0,,,63,40
95160,note_on,240,0,1,,,,,,,,,0,,,79,50
95160,note_on,0,0,1,,,,,,,,,0,,,67,50
95220,note_on,0,0,3,,,,,,,,,0,,,62,40
95220,note_on,180,0,3,,,,,,,,,0,,,63,0
95280,note_on,0,0,3,,,,,,,,,0,,,60,40
95280,note_on,60,0,3,,,,,,,,,0,,,62,0
95340,note_on,0,0,3,,,,,,,,,0,,,55,40
95340,note_on,60,0,3,,,,,,,,,0,,,60,0
95400,note_on,0,0,3,,,,,,,,,0,,,60,40
95400,note_on,240,0,1,,,,,,,,,0,,,67,0
95400,note_on,0,0,1,,,,,,,,,0,,,79,0
95400,note_on,0,0,1,,,,,,,,,0,,,75,40
95400,note_on,60,0,3,,,,,,,,,0,,,55,0
95460,note_on,0,0,3,,,,,,,,,0,,,62,40
95460,note_on,60,0,1,,,,,,,,,0,,,75,0
95460,note_on,0,0,1,,,,,,,,,0,,,77,40
95460,note_on,60,0,3,,,,,,,,,0,,,60,0
95520,note_on,60,0,3,,,,,,,,,0,,,62,0
95520,set_tempo,1440,1,0,,,,,,536241,,,,,,,
95520,note_on,0,0,3,,,,,,,,,0,,,63,40
95520,note_on,60,0,1,,,,,,,,,0,,,77,0
95520,note_on,0,0,1,,,,,,,,,0,,,79,40
95534,set_tempo,14,1,0,,,,,,537683,,,,,,,
95541,set_tempo,7,1,0,,,,,,539132,,,,,,,
95548,set_tempo,7,1,0,,,,,,540589,,,,,,,
95555,set_tempo,7,1,0,,,,,,542054,,,,,,,
95562,set_tempo,7,1,0,,,,,,543527,,,,,,,
95569,set_tempo,7,1,0,,,,,,545009,,,,,,,
95576,set_tempo,7,1,0,,,,,,546498,,,,,,,
95580,note_on,60,0,1,,,,,,,,,0,,,79,0
95580,note_on,0,0,1,,,,,,,,,0,,,75,40
95583,set_tempo,7,1,0,,,,,,547995,,,,,,,
95590,set_tempo,7,1,0,,,,,,549501,,,,,,,
95597,set_tempo,7,1,0,,,,,,551015,,,,,,,
95604,set_tempo,7,1,0,,,,,,552537,,,,,,,
95611,set_tempo,7,1,0,,,,,,554068,,,,,,,
95618,set_tempo,7,1,0,,,,,,555607,,,,,,,
95625,set_tempo,7,1,0,,,,,,557155,,,,,,,
95632,set_tempo,7,1,0,,,,,,558711,,,,,,,
95640,set_tempo,8,1,0,,,,,,560276,,,,,,,
95640,note_on,0,0,3,,,,,,,,,0,,,62,40
95640,note_on,120,0,3,,,,,,,,,0,,,63,0
95640,note_on,60,0,1,,,,,,,,,0,,,75,0
95640,note_on,0,0,1,,,,,,,,,0,,,71,40
95647,set_tempo,7,1,0,,,,,,561850,,,,,,,
95654,set_tempo,7,1,0,,,,,,563433,,,,,,,
95661,set_tempo,7,1,0,,,,,,565025,,,,,,,
95668,set_tempo,7,1,0,,,,,,566626,,,,,,,
95675,set_tempo,7,1,0,,,,,,568236,,,,,,,
95682,set_tempo,7,1,0,,,,,,569855,,,,,,,
95689,set_tempo,7,1,0,,,,,,571483,,,,,,,
95696,set_tempo,7,1,0,,,,,,573121,,,,,,,
95700,note_on,60,0,3,,,,,,,,,0,,,62,0
95700,note_on,0,0,3,,,,,,,,,0,,,60,40
95700,note_on,0,0,1,,,,,,,,,0,,,72,40
95700,note_on,60,0,1,,,,,,,,,0,,,71,0
95703,set_tempo,7,1,0,,,,,,574768,,,,,,,
95710,set_tempo,7,1,0,,,,,,576424,,,,,,,
95717,set_tempo,7,1,0,,,,,,578090,,,,,,,
95724,set_tempo,7,1,0,,,,,,579766,,,,,,,
95731,set_tempo,7,1,0,,,,,,581452,,,,,,,
95738,set_tempo,7,1,0,,,,,,583147,,,,,,,
95745,set_tempo,7,1,0,,,,,,584852,,,,,,,
95752,set_tempo,7,1,0,,,,,,586568,,,,,,,
95760,note_on,0,0,3,,,,,,,,,0,,,64,40
95760,note_on,0,0,3,,,,,,,,,0,,,55,40
95760,note_on,60,0,1,,,,,,,,,0,,,72,0
95760,note_on,0,0,1,,,,,,,,,0,,,67,40
95760,note_on,60,0,3,,,,,,,,,0,,,60,0
95760,set_tempo,8,1,0,,,,,,588293,,,,,,,
95767,set_tempo,7,1,0,,,,,,590029,,,,,,,
95774,set_tempo,7,1,0,,,,,,591774,,,,,,,
95781,set_tempo,7,1,0,,,,,,593531,,,,,,,
95788,set_tempo,7,1,0,,,,,,595297,,,,,,,
95795,set_tempo,7,1,0,,,,,,597074,,,,,,,
95802,set_tempo,7,1,0,,,,,,598862,,,,,,,
95809,set_tempo,7,1,0,,,,,,600661,,,,,,,
95816,set_tempo,7,1,0,,,,,,602470,,,,,,,
95823,set_tempo,7,1,0,,,,,,604290,,,,,,,
95830,set_tempo,7,1,0,,,,,,606122,,,,,,,
95837,set_tempo,7,1,0,,,,,,607964,,,,,,,
95844,set_tempo,7,1,0,,,,,,609818,,,,,,,
95851,set_tempo,7,1,0,,,,,,611683,,,,,,,
95858,set_tempo,7,1,0,,,,,,613560,,,,,,,
95865,set_tempo,7,1,0,,,,,,615448,,,,,,,
95872,set_tempo,7,1,0,,,,,,617347,,,,,,,
95880,set_tempo,8,1,0,,,,,,619259,,,,,,,
95880,note_on,0,0,3,,,,,,,,,0,,,55,0
95880,note_on,120,0,3,,,,,,,,,0,,,64,0
95880,note_on,0,0,3,,,,,,,,,0,,,55,40
95880,note_on,0,0,3,,,,,,,,,0,,,62,40
95880,note_on,120,0,1,,,,,,,,,0,,,67,0
95880,note_on,0,0,1,,,,,,,,,0,,,71,40
95880,note_on,0,0,1,,,,,,,,,0,,,65,40
95887,set_tempo,7,1,0,,,,,,621182,,,,,,,
95894,set_tempo,7,1,0,,,,,,623118,,,,,,,
95901,set_tempo,7,1,0,,,,,,625065,,,,,,,
95908,set_tempo,7,1,0,,,,,,627025,,,,,,,
95915,set_tempo,7,1,0,,,,,,628997,,,,,,,
95922,set_tempo,7,1,0,,,,,,630981,,,,,,,
95929,set_tempo,7,1,0,,,,,,632978,,,,,,,
95936,set_tempo,7,1,0,,,,,,634988,,,,,,,
95943,set_tempo,7,1,0,,,,,,637010,,,,,,,
95950,set_tempo,7,1,0,,,,,,639046,,,,,,,
95957,set_tempo,7,1,0,,,,,,641094,,,,,,,
95964,set_tempo,7,1,0,,,,,,643156,,,,,,,
95971,set_tempo,7,1,0,,,,,,645231,,,,,,,
95978,set_tempo,7,1,0,,,,,,647319,,,,,,,
95985,set_tempo,7,1,0,,,,,,649421,,,,,,,
95992,set_tempo,7,1,0,,,,,,651537,,,,,,,
96000,control_change,1560,0,4,,,,,,,,,0,64,127,,
96000,note_on,0,0,3,,,,,,,,,0,,,60,40
96000,set_tempo,8,1,0,,,,,,536241,,,,,,,
96000,note_on,0,0,1,,,,,,,,,0,,,72,40
96000,note_on,0,0,1,,,,,,,,,0,,,71,0
96000,note_on,120,0,1,,,,,,,,,0,,,65,0
96000,note_on,120,0,3,,,,,,,,,0,,,55,0
96000,note_on,0,0,1,,,,,,,,,0,,,64,40
96000,note_on,0,0,3,,,,,,,,,0,,,62,0
96000,note_on,0,0,3,,,,,,,,,0,,,48,40
96000,note_on,0,0,3,,,,,,,,,0,,,55,40
96014,set_tempo,14,1,0,,,,,,537683,,,,,,,
96021,set_tempo,7,1,0,,,,,,539132,,,,,,,
96028,set_tempo,7,1,0,,,,,,540589,,,,,,,
96035,set_tempo,7,1,0,,,,,,542054,,,,,,,
96042,set_tempo,7,1,0,,,,,,543527,,,,,,,
96049,set_tempo,7,1,0,,,,,,545009,,,,,,,
96056,set_tempo,7,1,0,,,,,,546498,,,,,,,
96063,set_tempo,7,1,0,,,,,,547995,,,,,,,
96070,set_tempo,7,1,0,,,,,,549501,,,,,,,
96077,set_tempo,7,1,0,,,,,,551015,,,,,,,
96084,set_tempo,7,1,0,,,,,,552537,,,,,,,
96091,set_tempo,7,1,0,,,,,,554068,,,,,,,
96098,set_tempo,7,1,0,,,,,,555607,,,,,,,
96105,set_tempo,7,1,0,,,,,,557155,,,,,,,
96112,set_tempo,7,1,0,,,,,,558711,,,,,,,
96120,set_tempo,8,1,0,,,,,,560276,,,,,,,
96127,set_tempo,7,1,0,,,,,,561850,,,,,,,
96134,set_tempo,7,1,0,,,,,,563433,,,,,,,
96141,set_tempo,7,1,0,,,,,,565025,,,,,,,
96148,set_tempo,7,1,0,,,,,,566626,,,,,,,
96155,set_tempo,7,1,0,,,,,,568236,,,,,,,
96162,set_tempo,7,1,0,,,,,,569855,,,,,,,
96169,set_tempo,7,1,0,,,,,,571483,,,,,,,
96176,set_tempo,7,1,0,,,,,,573121,,,,,,,
96183,set_tempo,7,1,0,,,,,,574768,,,,,,,
96190,set_tempo,7,1,0,,,,,,576424,,,,,,,
96197,set_tempo,7,1,0,,,,,,578090,,,,,,,
96204,set_tempo,7,1,0,,,,,,579766,,,,,,,
96211,set_tempo,7,1,0,,,,,,581452,,,,,,,
96218,set_tempo,7,1,0,,,,,,583147,,,,,,,
96225,set_tempo,7,1,0,,,,,,584852,,,,,,,
96232,set_tempo,7,1,0,,,,,,586568,,,,,,,
96240,note_on,0,0,3,,,,,,,,,0,,,55,40
96240,note_on,0,0,1,,,,,,,,,0,,,67,40
96240,note_on,0,0,1,,,,,,,,,0,,,72,0
96240,note_on,240,0,1,,,,,,,,,0,,,64,0
96240,note_on,240,0,3,,,,,,,,,0,,,60,0
96240,note_on,0,0,3,,,,,,,,,0,,,55,0
96240,note_on,0,0,3,,,,,,,,,0,,,48,0
96240,control_change,240,0,4,,,,,,,,,0,64,0,,
96240,set_tempo,8,1,0,,,,,,588293,,,,,,,
96240,note_on,0,0,3,,,,,,,,,0,,,64,40
96247,set_tempo,7,1,0,,,,,,590029,,,,,,,
96254,set_tempo,7,1,0,,,,,,591774,,,,,,,
96261,set_tempo,7,1,0,,,,,,593531,,,,,,,
96268,set_tempo,7,1,0,,,,,,595297,,,,,,,
96275,set_tempo,7,1,0,,,,,,597074,,,,,,,
96282,set_tempo,7,1,0,,,,,,598862,,,,,,,
96289,set_tempo,7,1,0,,,,,,600661,,,,,,,
96296,set_tempo,7,1,0,,,,,,602470,,,,,,,
96303,set_tempo,7,1,0,,,,,,604290,,,,,,,
96310,set_tempo,7,1,0,,,,,,606122,,,,,,,
96317,set_tempo,7,1,0,,,,,,607964,,,,,,,
96324,set_tempo,7,1,0,,,,,,609818,,,,,,,
96331,set_tempo,7,1,0,,,,,,611683,,,,,,,
96338,set_tempo,7,1,0,,,,,,613560,,,,,,,
96345,set_tempo,7,1,0,,,,,,615448,,,,,,,
96352,set_tempo,7,1,0,,,,,,617347,,,,,,,
96360,note_on,120,0,1,,,,,,,,,0,,,67,0
96360,note_on,0,0,1,,,,,,,,,0,,,71,40
96360,note_on,0,0,1,,,,,,,,,0,,,65,40
96360,note_on,0,0,3,,,,,,,,,0,,,55,40
96360,note_on,0,0,3,,,,,,,,,0,,,62,40
96360,note_on,0,0,3,,,,,,,,,0,,,64,0
96360,set_tempo,8,1,0,,,,,,619259,,,,,,,
96360,note_on,120,0,3,,,,,,,,,0,,,55,0
96367,set_tempo,7,1,0,,,,,,621182,,,,,,,
96374,set_tempo,7,1,0,,,,,,623118,,,,,,,
96381,set_tempo,7,1,0,,,,,,625065,,,,,,,
96388,set_tempo,7,1,0,,,,,,627025,,,,,,,
96395,set_tempo,7,1,0,,,,,,628997,,,,,,,
96402,set_tempo,7,1,0,,,,,,630981,,,,,,,
96409,set_tempo,7,1,0,,,,,,632978,,,,,,,
96416,set_tempo,7,1,0,,,,,,634988,,,,,,,
96423,set_tempo,7,1,0,,,,,,637010,,,,,,,
96430,set_tempo,7,1,0,,,,,,639046,,,,,,,
96437,set_tempo,7,1,0,,,,,,641094,,,,,,,
96444,set_tempo,7,1,0,,,,,,643156,,,,,,,
96451,set_tempo,7,1,0,,,,,,645231,,,,,,,
96458,set_tempo,7,1,0,,,,,,647319,,,,,,,
96465,set_tempo,7,1,0,,,,,,649421,,,,,,,
96472,set_tempo,7,1,0,,,,,,651537,,,,,,,
96480,note_on,0,0,3,,,,,,,,,0,,,48,40
96480,note_on,0,0,3,,,,,,,,,0,,,60,40
96480,note_on,0,0,3,,,,,,,,,0,,,62,0
96480,note_on,120,0,3,,,,,,,,,0,,,55,0
96480,note_on,0,0,3,,,,,,,,,0,,,55,40
96480,note_on,0,0,1,,,,,,,,,0,,,72,40
96480,control_change,240,0,4,,,,,,,,,0,64,127,,
96480,note_on,0,0,1,,,,,,,,,0,,,71,0
96480,note_on,0,0,1,,,,,,,,,0,,,64,40
96480,note_on,120,0,1,,,,,,,,,0,,,65,0
96480,set_tempo,8,1,0,,,,,,536241,,,,,,,
96494,set_tempo,14,1,0,,,,,,537683,,,,,,,
96501,set_tempo,7,1,0,,,,,,539132,,,,,,,
96508,set_tempo,7,1,0,,,,,,540589,,,,,,,
96515,set_tempo,7,1,0,,,,,,542054,,,,,,,
96522,set_tempo,7,1,0,,,,,,543527,,,,,,,
96529,set_tempo,7,1,0,,,,,,545009,,,,,,,
96536,set_tempo,7,1,0,,,,,,546498,,,,,,,
96543,set_tempo,7,1,0,,,,,,547995,,,,,,,
96550,set_tempo,7,1,0,,,,,,549501,,,,,,,
96557,set_tempo,7,1,0,,,,,,551015,,,,,,,
96564,set_tempo,7,1,0,,,,,,552537,,,,,,,
96571,set_tempo,7,1,0,,,,,,554068,,,,,,,
96578,set_tempo,7,1,0,,,,,,555607,,,,,,,
96585,set_tempo,7,1,0,,,,,,557155,,,,,,,
96592,set_tempo,7,1,0,,,,,,558711,,,,,,,
96600,set_tempo,8,1,0,,,,,,560276,,,,,,,
96607,set_tempo,7,1,0,,,,,,561850,,,,,,,
96614,set_tempo,7,1,0,,,,,,563433,,,,,,,
96621,set_tempo,7,1,0,,,,,,565025,,,,,,,
96628,set_tempo,7,1,0,,,,,,566626,,,,,,,
96635,set_tempo,7,1,0,,,,,,568236,,,,,,,
96642,set_tempo,7,1,0,,,,,,569855,,,,,,,
96649,set_tempo,7,1,0,,,,,,571483,,,,,,,
96656,set_tempo,7,1,0,,,,,,573121,,,,,,,
96663,set_tempo,7,1,0,,,,,,574768,,,,,,,
96670,set_tempo,7,1,0,,,,,,576424,,,,,,,
96677,set_tempo,7,1,0,,,,,,578090,,,,,,,
96684,set_tempo,7,1,0,,,,,,579766,,,,,,,
96691,set_tempo,7,1,0,,,,,,581452,,,,,,,
96698,set_tempo,7,1,0,,,,,,583147,,,,,,,
96705,set_tempo,7,1,0,,,,,,584852,,,,,,,
96712,set_tempo,7,1,0,,,,,,586568,,,,,,,
96720,end_of_track,0,1,1,,,,,,,,,,,,,
96720,control_change,240,0,4,,,,,,,,,0,64,0,,
96720,note_on,240,0,1,,,,,,,,,0,,,64,0
96720,note_on,0,0,1,,,,,,,,,0,,,72,0
96720,set_tempo,8,1,0,,,,,,588293,,,,,,,
96720,note_on,0,0,3,,,,,,,,,0,,,60,0
96720,note_on,0,0,3,,,,,,,,,0,,,43,50
96720,note_on,0,0,3,,,,,,,,,0,,,55,50
96720,note_on,0,0,3,,,,,,,,,0,,,52,50
96720,note_on,0,0,3,,,,,,,,,0,,,55,0
96720,note_on,240,0,3,,,,,,,,,0,,,48,0
96727,set_tempo,7,1,0,,,,,,590029,,,,,,,
96734,set_tempo,7,1,0,,,,,,591774,,,,,,,
96741,set_tempo,7,1,0,,,,,,593531,,,,,,,
96748,set_tempo,7,1,0,,,,,,595297,,,,,,,
96755,set_tempo,7,1,0,,,,,,597074,,,,,,,
96762,set_tempo,7,1,0,,,,,,598862,,,,,,,
96769,set_tempo,7,1,0,,,,,,600661,,,,,,,
96776,set_tempo,7,1,0,,,,,,602470,,,,,,,
96783,set_tempo,7,1,0,,,,,,604290,,,,,,,
96790,set_tempo,7,1,0,,,,,,606122,,,,,,,
96797,set_tempo,7,1,0,,,,,,607964,,,,,,,
96804,set_tempo,7,1,0,,,,,,609818,,,,,,,
96811,set_tempo,7,1,0,,,,,,611683,,,,,,,
96818,set_tempo,7,1,0,,,,,,613560,,,,,,,
96825,set_tempo,7,1,0,,,,,,615448,,,,,,,
96832,set_tempo,7,1,0,,,,,,617347,,,,,,,
96840,note_on,0,0,3,,,,,,,,,0,,,55,0
96840,note_on,120,0,3,,,,,,,,,0,,,52,0
96840,note_on,0,0,3,,,,,,,,,0,,,59,56
96840,note_on,0,0,3,,,,,,,,,0,,,50,56
96840,note_on,0,0,3,,,,,,,,,0,,,43,0
96840,note_on,0,0,3,,,,,,,,,0,,,43,56
96840,note_on,0,0,3,,,,,,,,,0,,,53,56
96840,set_tempo,8,1,0,,,,,,619259,,,,,,,
96847,set_tempo,7,1,0,,,,,,621182,,,,,,,
96854,set_tempo,7,1,0,,,,,,623118,,,,,,,
96861,set_tempo,7,1,0,,,,,,625065,,,,,,,
96868,set_tempo,7,1,0,,,,,,627025,,,,,,,
96875,set_tempo,7,1,0,,,,,,628997,,,,,,,
96882,set_tempo,7,1,0,,,,,,630981,,,,,,,
96889,set_tempo,7,1,0,,,,,,632978,,,,,,,
96896,set_tempo,7,1,0,,,,,,634988,,,,,,,
96903,set_tempo,7,1,0,,,,,,637010,,,,,,,
96910,set_tempo,7,1,0,,,,,,639046,,,,,,,
96917,set_tempo,7,1,0,,,,,,641094,,,,,,,
96924,set_tempo,7,1,0,,,,,,643156,,,,,,,
96931,set_tempo,7,1,0,,,,,,645231,,,,,,,
96938,set_tempo,7,1,0,,,,,,647319,,,,,,,
96945,set_tempo,7,1,0,,,,,,649421,,,,,,,
96952,set_tempo,7,1,0,,,,,,651537,,,,,,,
96960,note_on,0,0,3,,,,,,,,,0,,,60,60
96960,note_on,0,0,3,,,,,,,,,0,,,52,60
96960,note_on,0,0,3,,,,,,,,,0,,,48,60
96960,note_on,0,0,3,,,,,,,,,0,,,43,60
96960,note_on,0,0,3,,,,,,,,,0,,,36,60
96960,control_change,240,0,4,,,,,,,,,0,64,127,,
96960,note_on,0,0,3,,,,,,,,,0,,,53,0
96960,note_on,0,0,3,,,,,,,,,0,,,59,0
96960,note_on,120,0,3,,,,,,,,,0,,,43,0
96960,end_of_track,0,1,0,,,,,,,,,,,,,
96960,set_tempo,8,1,0,,,,,,652174,,,,,,,
96960,note_on,0,0,3,,,,,,,,,0,,,50,0
97200,note_on,0,0,3,,,,,,,,,0,,,52,60
97200,note_on,0,0,3,,,,,,,,,0,,,36,60
97200,note_on,0,0,3,,,,,,,,,0,,,43,60
97200,note_on,0,0,3,,,,,,,,,0,,,48,60
97200,note_on,0,0,3,,,,,,,,,0,,,55,60
97200,note_on,0,0,3,,,,,,,,,0,,,43,0
97200,note_on,0,0,3,,,,,,,,,0,,,52,0
97200,note_on,0,0,3,,,,,,,,,0,,,36,0
97200,note_on,0,0,3,,,,,,,,,0,,,48,0
97200,note_on,240,0,3,,,,,,,,,0,,,60,0
97200,note_on,0,0,3,,,,,,,,,0,,,60,60
97440,note_on,0,0,3,,,,,,,,,0,,,48,70
97440,note_on,0,0,3,,,,,,,,,0,,,52,70
97440,note_on,0,0,3,,,,,,,,,0,,,60,70
97440,note_on,0,0,3,,,,,,,,,0,,,43,70
97440,note_on,0,0,3,,,,,,,,,0,,,36,70
97440,note_on,0,0,3,,,,,,,,,0,,,55,70
97440,note_on,0,0,3,,,,,,,,,0,,,43,0
97440,note_on,0,0,3,,,,,,,,,0,,,60,0
97440,note_on,0,0,3,,,,,,,,,0,,,52,0
97440,note_on,0,0,3,,,,,,,,,0,,,55,0
97440,note_on,240,0,3,,,,,,,,,0,,,36,0
97440,note_on,0,0,3,,,,,,,,,0,,,48,0
97920,note_on,0,0,3,,,,,,,,,0,,,52,0
97920,note_on,0,0,3,,,,,,,,,0,,,36,0
97920,note_on,0,0,3,,,,,,,,,0,,,60,0
97920,note_on,0,0,3,,,,,,,,,0,,,43,0
97920,note_on,0,0,3,,,,,,,,,0,,,55,0
97920,end_of_track,0,1,3,,,,,,,,,,,,,
97920,note_on,480,0,3,,,,,,,,,0,,,48,0
98160,control_change,1200,0,4,,,,,,,,,0,64,0,,
98280,control_change,120,0,4,,,,,,,,,0,64,127,,
98520,control_change,240,0,4,,,,,,,,,0,64,0,,
98520,end_of_track,0,1,4,,,,,,,,,,,,,
