tick,type,time,meta,track,numerator,denominator,clocks_per_click,notated_32nd_notes_per_beat,key,tempo,port,program,channel,control,value,note,velocity
0,track_name,0,1,0,,,,,,,,,,,,,
0,program_change,0,0,1,,,,,,,,0,0,,,,
0,control_change,0,0,1,,,,,,,,,0,7,100,,
0,control_change,0,0,1,,,,,,,,,0,91,127,,
0,text,0,1,1,,,,,,,,,,,,,
0,track_name,0,1,7,,,,,,,,,,,,,
0,midi_port,0,1,2,,,,,,,0,,,,,,
0,track_name,0,1,2,,,,,,,,,,,,,
0,program_change,0,0,2,,,,,,,,0,0,,,,
0,control_change,0,0,2,,,,,,,,,0,7,100,,
0,control_change,0,0,2,,,,,,,,,0,91,127,,
0,control_change,0,0,2,,,,,,,,,0,64,0,,
0,track_name,0,1,1,,,,,,,,,,,,,
0,midi_port,0,1,3,,,,,,,0,,,,,,
0,end_of_track,0,1,3,,,,,,,,,,,,,
0,midi_port,0,1,4,,,,,,,0,,,,,,
0,track_name,0,1,4,,,,,,,,,,,,,
0,end_of_track,0,1,4,,,,,,,,,,,,,
0,midi_port,0,1,5,,,,,,,0,,,,,,
0,track_name,0,1,5,,,,,,,,,,,,,
0,end_of_track,0,1,5,,,,,,,,,,,,,
0,midi_port,0,1,6,,,,,,,0,,,,,,
0,track_name,0,1,6,,,,,,,,,,,,,
0,end_of_track,0,1,6,,,,,,,,,,,,,
0,midi_port,0,1,7,,,,,,,0,,,,,,
0,track_name,0,1,3,,,,,,,,,,,,,
0,midi_port,0,1,1,,,,,,,0,,,,,,
0,end_of_track,0,1,7,,,,,,,,,,,,,
0,track_name,0,1,0,,,,,,,,,,,,,
0,marker,0,1,0,,,,,,,,,,,,,
0,set_tempo,0,1,0,,,,,,300000,,,,,,,
0,key_signature,0,1,0,,,,,Eb,,,,,,,,
0,time_signature,0,1,0,3,4,24,8,,,,,,,,,
0,text,0,1,0,,,,,,,,,,,,,
0,text,0,1,0,,,,,,,,,,,,,
0,text,0,1,0,,,,,,,,,,,,,
0,text,0,1,0,,,,,,,,,,,,,
0,text,0,1,0,,,,,,,,,,,,,
0,text,0,1,0,,,,,,,,,,,,,
0,copyright,0,1,0,,,,,,,,,,,,,
0,text,0,1,0,,,,,,,,,,,,,
900,control_change,900,0,2,,,,,,,,,0,64,0,,
948,set_tempo,948,1,0,,,,,,332410,,,,,,,
960,note_on,960,0,1,,,,,,,,,0,,,82,54
1440,note_on,540,0,2,,,,,,,,,0,,,51,44
1440,note_on,480,0,1,,,,,,,,,0,,,82,0
1440,note_on,0,0,1,,,,,,,,,0,,,79,54
1600,note_on,160,0,1,,,,,,,,,0,,,79,0
1600,note_on,0,0,1,,,,,,,,,0,,,82,49
1760,note_on,0,0,1,,,,,,,,,0,,,80,45
1760,note_on,160,0,1,,,,,,,,,0,,,82,0
1920,note_on,0,0,1,,,,,,,,,0,,,79,54
1920,set_tempo,972,1,0,,,,,,300000,,,,,,,
1920,note_on,480,0,2,,,,,,,,,0,,,58,36
1920,note_on,160,0,1,,,,,,,,,0,,,80,0
2080,note_on,160,0,1,,,,,,,,,0,,,79,0
2080,note_on,0,0,1,,,,,,,,,0,,,77,50
2240,note_on,0,0,1,,,,,,,,,0,,,75,45
2240,note_on,160,0,1,,,,,,,,,0,,,77,0
2400,note_on,160,0,1,,,,,,,,,0,,,75,0
2400,note_on,0,0,1,,,,,,,,,0,,,74,54
2560,note_on,0,0,1,,,,,,,,,0,,,72,50
2560,note_on,160,0,1,,,,,,,,,0,,,74,0
2720,note_on,160,0,1,,,,,,,,,0,,,72,0
2720,note_on,0,0,1,,,,,,,,,0,,,70,47
2880,note_on,0,0,2,,,,,,,,,0,,,53,41
2880,note_on,0,0,2,,,,,,,,,0,,,51,0
2880,note_on,960,0,2,,,,,,,,,0,,,58,0
2880,set_tempo,960,1,0,,,,,,305344,,,,,,,
2880,note_on,160,0,1,,,,,,,,,0,,,70,0
2880,note_on,0,0,1,,,,,,,,,0,,,68,54
3040,note_on,160,0,1,,,,,,,,,0,,,68,0
3040,note_on,0,0,1,,,,,,,,,0,,,67,50
3200,note_on,160,0,1,,,,,,,,,0,,,67,0
3200,note_on,0,0,1,,,,,,,,,0,,,65,50
3360,note_on,0,0,1,,,,,,,,,0,,,63,54
3360,note_on,160,0,1,,,,,,,,,0,,,65,0
3360,note_on,480,0,2,,,,,,,,,0,,,58,35
3360,set_tempo,480,1,0,,,,,,300000,,,,,,,
3520,note_on,160,0,1,,,,,,,,,0,,,63,0
3520,note_on,0,0,1,,,,,,,,,0,,,62,48
3680,note_on,160,0,1,,,,,,,,,0,,,62,0
3680,note_on,0,0,1,,,,,,,,,0,,,60,48
3840,note_on,160,0,1,,,,,,,,,0,,,60,0
3840,note_on,0,0,1,,,,,,,,,0,,,58,54
4000,note_on,160,0,1,,,,,,,,,0,,,58,0
4000,note_on,0,0,1,,,,,,,,,0,,,60,49
4160,note_on,160,0,1,,,,,,,,,0,,,60,0
4160,note_on,0,0,1,,,,,,,,,0,,,62,46
4320,note_on,160,0,1,,,,,,,,,0,,,62,0
4320,note_on,0,0,1,,,,,,,,,0,,,63,54
4320,note_on,960,0,2,,,,,,,,,0,,,58,0
4320,set_tempo,960,1,0,,,,,,306905,,,,,,,
4320,note_on,0,0,2,,,,,,,,,0,,,53,0
4320,note_on,0,0,2,,,,,,,,,0,,,55,44
4480,note_on,0,0,1,,,,,,,,,0,,,62,49
4480,note_on,160,0,1,,,,,,,,,0,,,63,0
4640,note_on,0,0,1,,,,,,,,,0,,,63,49
4640,note_on,160,0,1,,,,,,,,,0,,,62,0
4800,set_tempo,480,1,0,,,,,,300000,,,,,,,
4800,note_on,480,0,2,,,,,,,,,0,,,58,35
4800,note_on,0,0,1,,,,,,,,,0,,,64,59
4800,note_on,160,0,1,,,,,,,,,0,,,63,0
4960,note_on,160,0,1,,,,,,,,,0,,,64,0
4960,note_on,0,0,1,,,,,,,,,0,,,63,56
5120,note_on,0,0,1,,,,,,,,,0,,,64,55
5120,note_on,160,0,1,,,,,,,,,0,,,63,0
5280,note_on,160,0,1,,,,,,,,,0,,,64,0
5280,note_on,0,0,1,,,,,,,,,0,,,65,62
5440,note_on,0,0,1,,,,,,,,,0,,,64,55
5440,note_on,160,0,1,,,,,,,,,0,,,65,0
5600,note_on,0,0,1,,,,,,,,,0,,,65,56
5600,note_on,160,0,1,,,,,,,,,0,,,64,0
5760,set_tempo,960,1,0,,,,,,305344,,,,,,,
5760,note_on,160,0,1,,,,,,,,,0,,,65,0
5760,note_on,960,0,2,,,,,,,,,0,,,58,0
5760,note_on,0,0,1,,,,,,,,,0,,,66,67
5760,note_on,0,0,2,,,,,,,,,0,,,50,44
5760,note_on,0,0,2,,,,,,,,,0,,,55,0
5920,note_on,160,0,1,,,,,,,,,0,,,66,0
5920,note_on,0,0,1,,,,,,,,,0,,,65,59
6080,note_on,0,0,1,,,,,,,,,0,,,66,59
6080,note_on,160,0,1,,,,,,,,,0,,,65,0
6240,note_on,0,0,1,,,,,,,,,0,,,67,61
6240,set_tempo,480,1,0,,,,,,300000,,,,,,,
6240,note_on,480,0,2,,,,,,,,,0,,,58,34
6240,note_on,160,0,1,,,,,,,,,0,,,66,0
6400,note_on,160,0,1,,,,,,,,,0,,,67,0
6400,note_on,0,0,1,,,,,,,,,0,,,66,57
6560,note_on,160,0,1,,,,,,,,,0,,,66,0
6560,note_on,0,0,1,,,,,,,,,0,,,67,56
6720,note_on,0,0,1,,,,,,,,,0,,,68,54
6720,note_on,160,0,1,,,,,,,,,0,,,67,0
6880,note_on,0,0,1,,,,,,,,,0,,,67,50
6880,note_on,160,0,1,,,,,,,,,0,,,68,0
7040,note_on,0,0,1,,,,,,,,,0,,,68,54
7040,note_on,160,0,1,,,,,,,,,0,,,67,0
7200,note_on,0,0,2,,,,,,,,,0,,,51,45
7200,note_on,960,0,2,,,,,,,,,0,,,58,0
7200,note_on,0,0,2,,,,,,,,,0,,,50,0
7200,set_tempo,960,1,0,,,,,,304569,,,,,,,
7200,note_on,160,0,1,,,,,,,,,0,,,68,0
7200,note_on,0,0,1,,,,,,,,,0,,,67,54
7360,note_on,160,0,1,,,,,,,,,0,,,67,0
7360,note_on,0,0,1,,,,,,,,,0,,,70,57
7520,note_on,160,0,1,,,,,,,,,0,,,70,0
7520,note_on,0,0,1,,,,,,,,,0,,,68,57
7680,note_on,160,0,1,,,,,,,,,0,,,68,0
7680,note_on,0,0,1,,,,,,,,,0,,,67,56
7680,note_on,480,0,2,,,,,,,,,0,,,58,35
7680,set_tempo,480,1,0,,,,,,300000,,,,,,,
7840,note_on,160,0,1,,,,,,,,,0,,,67,0
7840,note_on,0,0,1,,,,,,,,,0,,,68,53
8000,note_on,160,0,1,,,,,,,,,0,,,68,0
8000,note_on,0,0,1,,,,,,,,,0,,,70,53
8160,note_on,160,0,1,,,,,,,,,0,,,70,0
8160,note_on,0,0,1,,,,,,,,,0,,,72,55
8320,note_on,160,0,1,,,,,,,,,0,,,72,0
8320,note_on,0,0,1,,,,,,,,,0,,,74,52
8480,note_on,160,0,1,,,,,,,,,0,,,74,0
8480,note_on,0,0,1,,,,,,,,,0,,,75,52
8640,note_on,160,0,1,,,,,,,,,0,,,75,0
8640,note_on,0,0,1,,,,,,,,,0,,,77,54
8640,note_on,0,0,2,,,,,,,,,0,,,44,45
8640,note_on,0,0,2,,,,,,,,,0,,,51,0
8640,note_on,960,0,2,,,,,,,,,0,,,58,0
8640,set_tempo,960,1,0,,,,,,306905,,,,,,,
8800,note_on,160,0,1,,,,,,,,,0,,,77,0
8800,note_on,0,0,1,,,,,,,,,0,,,84,55
8960,note_on,160,0,1,,,,,,,,,0,,,84,0
8960,note_on,0,0,1,,,,,,,,,0,,,82,55
9120,note_on,480,0,2,,,,,,,,,0,,,44,0
9120,note_on,0,0,2,,,,,,,,,0,,,56,32
9120,note_on,160,0,1,,,,,,,,,0,,,82,0
9120,note_on,0,0,1,,,,,,,,,0,,,80,54
9120,note_on,0,0,2,,,,,,,,,0,,,60,36
9120,set_tempo,480,1,0,,,,,,300000,,,,,,,
9280,note_on,160,0,1,,,,,,,,,0,,,80,0
9280,note_on,0,0,1,,,,,,,,,0,,,79,51
9440,note_on,160,0,1,,,,,,,,,0,,,79,0
9440,note_on,0,0,1,,,,,,,,,0,,,77,48
9600,note_on,0,0,1,,,,,,,,,0,,,75,54
9600,note_on,160,0,1,,,,,,,,,0,,,77,0
9760,note_on,160,0,1,,,,,,,,,0,,,75,0
9760,note_on,0,0,1,,,,,,,,,0,,,74,51
9920,note_on,160,0,1,,,,,,,,,0,,,74,0
9920,note_on,0,0,1,,,,,,,,,0,,,72,48
10080,set_tempo,960,1,0,,,,,,305344,,,,,,,
10080,note_on,0,0,2,,,,,,,,,0,,,46,54
10080,note_on,0,0,2,,,,,,,,,0,,,60,0
10080,note_on,960,0,2,,,,,,,,,0,,,56,0
10080,note_on,160,0,1,,,,,,,,,0,,,72,0
10080,note_on,0,0,1,,,,,,,,,0,,,70,53
10240,note_on,160,0,1,,,,,,,,,0,,,70,0
10240,note_on,0,0,1,,,,,,,,,0,,,77,54
10400,note_on,160,0,1,,,,,,,,,0,,,77,0
10400,note_on,0,0,1,,,,,,,,,0,,,75,50
10560,note_on,0,0,2,,,,,,,,,0,,,56,37
10560,note_on,0,0,1,,,,,,,,,0,,,74,54
10560,note_on,160,0,1,,,,,,,,,0,,,75,0
10560,note_on,0,0,2,,,,,,,,,0,,,58,37
10560,set_tempo,480,1,0,,,,,,300000,,,,,,,
10560,note_on,480,0,2,,,,,,,,,0,,,46,0
10560,note_on,0,0,2,,,,,,,,,0,,,62,42
10720,note_on,160,0,1,,,,,,,,,0,,,74,0
10720,note_on,0,0,1,,,,,,,,,0,,,72,51
10880,note_on,0,0,1,,,,,,,,,0,,,70,48
10880,note_on,160,0,1,,,,,,,,,0,,,72,0
11040,note_on,0,0,1,,,,,,,,,0,,,68,54
11040,note_on,160,0,1,,,,,,,,,0,,,70,0
11200,note_on,160,0,1,,,,,,,,,0,,,68,0
11200,note_on,0,0,1,,,,,,,,,0,,,67,48
11360,note_on,160,0,1,,,,,,,,,0,,,67,0
11360,note_on,0,0,1,,,,,,,,,0,,,65,51
11520,note_on,160,0,1,,,,,,,,,0,,,65,0
11520,note_on,0,0,1,,,,,,,,,0,,,63,54
11520,note_on,0,0,2,,,,,,,,,0,,,62,0
11520,note_on,0,0,2,,,,,,,,,0,,,58,0
11520,note_on,960,0,2,,,,,,,,,0,,,56,0
11520,note_on,0,0,2,,,,,,,,,0,,,51,54
11520,set_tempo,960,1,0,,,,,,310078,,,,,,,
11680,note_on,160,0,1,,,,,,,,,0,,,63,0
11680,note_on,0,0,1,,,,,,,,,0,,,65,51
11840,note_on,0,0,1,,,,,,,,,0,,,67,48
11840,note_on,160,0,1,,,,,,,,,0,,,65,0
12000,note_on,160,0,1,,,,,,,,,0,,,67,0
12000,note_on,0,0,1,,,,,,,,,0,,,68,58
12000,note_on,480,0,2,,,,,,,,,0,,,51,0
12000,note_on,0,0,2,,,,,,,,,0,,,55,31
12000,note_on,0,0,2,,,,,,,,,0,,,63,42
12000,set_tempo,480,1,0,,,,,,300000,,,,,,,
12000,note_on,0,0,2,,,,,,,,,0,,,58,31
12160,note_on,160,0,1,,,,,,,,,0,,,68,0
12160,note_on,0,0,1,,,,,,,,,0,,,70,57
12320,note_on,160,0,1,,,,,,,,,0,,,70,0
12320,note_on,0,0,1,,,,,,,,,0,,,72,62
12480,note_on,160,0,1,,,,,,,,,0,,,72,0
12480,note_on,0,0,1,,,,,,,,,0,,,74,66
12640,note_on,160,0,1,,,,,,,,,0,,,74,0
12640,note_on,0,0,1,,,,,,,,,0,,,75,62
12800,note_on,160,0,1,,,,,,,,,0,,,75,0
12800,note_on,0,0,1,,,,,,,,,0,,,77,65
12960,set_tempo,960,1,0,,,,,,332410,,,,,,,
12960,note_on,960,0,2,,,,,,,,,0,,,63,0
12960,note_on,0,0,2,,,,,,,,,0,,,51,62
12960,note_on,0,0,2,,,,,,,,,0,,,58,0
12960,note_on,0,0,2,,,,,,,,,0,,,55,0
12960,note_on,160,0,1,,,,,,,,,0,,,77,0
12960,note_on,0,0,1,,,,,,,,,0,,,79,73
13120,note_on,160,0,1,,,,,,,,,0,,,79,0
13120,note_on,0,0,1,,,,,,,,,0,,,82,68
13280,note_on,160,0,1,,,,,,,,,0,,,82,0
13280,note_on,0,0,1,,,,,,,,,0,,,80,65
13440,note_on,160,0,1,,,,,,,,,0,,,80,0
13440,note_on,0,0,1,,,,,,,,,0,,,79,71
13440,note_on,480,0,2,,,,,,,,,0,,,58,52
13440,set_tempo,480,1,0,,,,,,300000,,,,,,,
13600,note_on,160,0,1,,,,,,,,,0,,,79,0
13600,note_on,0,0,1,,,,,,,,,0,,,77,64
13760,note_on,160,0,1,,,,,,,,,0,,,77,0
13760,note_on,0,0,1,,,,,,,,,0,,,75,60
13920,note_on,0,0,1,,,,,,,,,0,,,74,72
13920,note_on,160,0,1,,,,,,,,,0,,,75,0
14080,note_on,0,0,1,,,,,,,,,0,,,72,66
14080,note_on,160,0,1,,,,,,,,,0,,,74,0
14240,note_on,160,0,1,,,,,,,,,0,,,72,0
14240,note_on,0,0,1,,,,,,,,,0,,,70,65
14400,set_tempo,960,1,0,,,,,,303797,,,,,,,
14400,note_on,0,0,2,,,,,,,,,0,,,53,63
14400,note_on,0,0,2,,,,,,,,,0,,,51,0
14400,note_on,960,0,2,,,,,,,,,0,,,58,0
14400,note_on,160,0,1,,,,,,,,,0,,,70,0
14400,note_on,0,0,1,,,,,,,,,0,,,68,70
14560,note_on,0,0,1,,,,,,,,,0,,,67,66
14560,note_on,160,0,1,,,,,,,,,0,,,68,0
14720,note_on,0,0,1,,,,,,,,,0,,,65,60
14720,note_on,160,0,1,,,,,,,,,0,,,67,0
14880,set_tempo,480,1,0,,,,,,300000,,,,,,,
14880,note_on,160,0,1,,,,,,,,,0,,,65,0
14880,note_on,480,0,2,,,,,,,,,0,,,58,51
14880,note_on,0,0,1,,,,,,,,,0,,,63,70
15040,note_on,0,0,1,,,,,,,,,0,,,62,59
15040,note_on,160,0,1,,,,,,,,,0,,,63,0
15200,note_on,0,0,1,,,,,,,,,0,,,60,57
15200,note_on,160,0,1,,,,,,,,,0,,,62,0
15360,note_on,0,0,1,,,,,,,,,0,,,58,70
15360,note_on,160,0,1,,,,,,,,,0,,,60,0
15520,note_on,0,0,1,,,,,,,,,0,,,60,60
15520,note_on,160,0,1,,,,,,,,,0,,,58,0
15680,note_on,0,0,1,,,,,,,,,0,,,62,57
15680,note_on,160,0,1,,,,,,,,,0,,,60,0
15840,note_on,0,0,2,,,,,,,,,0,,,53,0
15840,note_on,960,0,2,,,,,,,,,0,,,58,0
15840,note_on,0,0,2,,,,,,,,,0,,,55,63
15840,note_on,160,0,1,,,,,,,,,0,,,62,0
15840,set_tempo,960,1,0,,,,,,305344,,,,,,,
15840,note_on,0,0,1,,,,,,,,,0,,,63,70
16000,note_on,0,0,1,,,,,,,,,0,,,62,62
16000,note_on,160,0,1,,,,,,,,,0,,,63,0
16160,note_on,0,0,1,,,,,,,,,0,,,63,57
16160,note_on,160,0,1,,,,,,,,,0,,,62,0
16320,note_on,480,0,2,,,,,,,,,0,,,58,50
16320,set_tempo,480,1,0,,,,,,300000,,,,,,,
16320,note_on,0,0,1,,,,,,,,,0,,,64,71
16320,note_on,160,0,1,,,,,,,,,0,,,63,0
16480,note_on,160,0,1,,,,,,,,,0,,,64,0
16480,note_on,0,0,1,,,,,,,,,0,,,63,63
16640,note_on,0,0,1,,,,,,,,,0,,,64,60
16640,note_on,160,0,1,,,,,,,,,0,,,63,0
16800,note_on,0,0,1,,,,,,,,,0,,,65,71
16800,note_on,160,0,1,,,,,,,,,0,,,64,0
16960,note_on,160,0,1,,,,,,,,,0,,,65,0
16960,note_on,0,0,1,,,,,,,,,0,,,64,66
17120,note_on,160,0,1,,,,,,,,,0,,,64,0
17120,note_on,0,0,1,,,,,,,,,0,,,65,62
17280,set_tempo,960,1,0,,,,,,303797,,,,,,,
17280,note_on,960,0,2,,,,,,,,,0,,,58,0
17280,note_on,0,0,2,,,,,,,,,0,,,55,0
17280,note_on,0,0,1,,,,,,,,,0,,,66,76
17280,note_on,160,0,1,,,,,,,,,0,,,65,0
17280,note_on,0,0,2,,,,,,,,,0,,,50,64
17440,note_on,0,0,1,,,,,,,,,0,,,65,68
17440,note_on,160,0,1,,,,,,,,,0,,,66,0
17600,note_on,0,0,1,,,,,,,,,0,,,66,66
17600,note_on,160,0,1,,,,,,,,,0,,,65,0
17760,note_on,160,0,1,,,,,,,,,0,,,66,0
17760,note_on,0,0,1,,,,,,,,,0,,,67,72
17760,note_on,480,0,2,,,,,,,,,0,,,58,52
17760,set_tempo,480,1,0,,,,,,300000,,,,,,,
17920,note_on,160,0,1,,,,,,,,,0,,,67,0
17920,note_on,0,0,1,,,,,,,,,0,,,66,68
18080,note_on,160,0,1,,,,,,,,,0,,,66,0
18080,note_on,0,0,1,,,,,,,,,0,,,67,66
18240,note_on,0,0,1,,,,,,,,,0,,,68,70
18240,note_on,160,0,1,,,,,,,,,0,,,67,0
18400,note_on,160,0,1,,,,,,,,,0,,,68,0
18400,note_on,0,0,1,,,,,,,,,0,,,67,67
18560,note_on,0,0,1,,,,,,,,,0,,,68,64
18560,note_on,160,0,1,,,,,,,,,0,,,67,0
18720,set_tempo,960,1,0,,,,,,305344,,,,,,,
18720,note_on,160,0,1,,,,,,,,,0,,,68,0
18720,note_on,0,0,1,,,,,,,,,0,,,67,70
18720,note_on,0,0,2,,,,,,,,,0,,,51,63
18720,note_on,960,0,2,,,,,,,,,0,,,58,0
18720,note_on,0,0,2,,,,,,,,,0,,,50,0
18880,note_on,160,0,1,,,,,,,,,0,,,67,0
18880,note_on,0,0,1,,,,,,,,,0,,,70,67
19040,note_on,0,0,1,,,,,,,,,0,,,68,65
19040,note_on,160,0,1,,,,,,,,,0,,,70,0
19200,note_on,0,0,1,,,,,,,,,0,,,67,70
19200,set_tempo,480,1,0,,,,,,300000,,,,,,,
19200,note_on,160,0,1,,,,,,,,,0,,,68,0
19200,note_on,480,0,2,,,,,,,,,0,,,58,50
19360,note_on,0,0,1,,,,,,,,,0,,,68,67
19360,note_on,160,0,1,,,,,,,,,0,,,67,0
19520,note_on,0,0,1,,,,,,,,,0,,,70,67
19520,note_on,160,0,1,,,,,,,,,0,,,68,0
19680,note_on,160,0,1,,,,,,,,,0,,,70,0
19680,note_on,0,0,1,,,,,,,,,0,,,72,70
19840,note_on,160,0,1,,,,,,,,,0,,,72,0
19840,note_on,0,0,1,,,,,,,,,0,,,74,65
20000,note_on,160,0,1,,,,,,,,,0,,,74,0
20000,note_on,0,0,1,,,,,,,,,0,,,75,65
20160,note_on,160,0,1,,,,,,,,,0,,,75,0
20160,note_on,0,0,1,,,,,,,,,0,,,77,70
20160,note_on,0,0,2,,,,,,,,,0,,,44,60
20160,note_on,0,0,2,,,,,,,,,0,,,51,0
20160,set_tempo,960,1,0,,,,,,307692,,,,,,,
20160,note_on,960,0,2,,,,,,,,,0,,,58,0
20320,note_on,160,0,1,,,,,,,,,0,,,77,0
20320,note_on,0,0,1,,,,,,,,,0,,,84,72
20480,note_on,160,0,1,,,,,,,,,0,,,84,0
20480,note_on,0,0,1,,,,,,,,,0,,,82,65
20640,note_on,0,0,2,,,,,,,,,0,,,56,38
20640,note_on,160,0,1,,,,,,,,,0,,,82,0
20640,note_on,0,0,1,,,,,,,,,0,,,80,72
20640,note_on,0,0,2,,,,,,,,,0,,,60,50
20640,set_tempo,480,1,0,,,,,,300000,,,,,,,
20640,note_on,480,0,2,,,,,,,,,0,,,44,0
20800,note_on,0,0,1,,,,,,,,,0,,,79,68
20800,note_on,160,0,1,,,,,,,,,0,,,80,0
20960,note_on,0,0,1,,,,,,,,,0,,,77,64
20960,note_on,160,0,1,,,,,,,,,0,,,79,0
21120,note_on,160,0,1,,,,,,,,,0,,,77,0
21120,note_on,0,0,1,,,,,,,,,0,,,75,70
21280,note_on,160,0,1,,,,,,,,,0,,,75,0
21280,note_on,0,0,1,,,,,,,,,0,,,74,67
21440,note_on,0,0,1,,,,,,,,,0,,,72,64
21440,note_on,160,0,1,,,,,,,,,0,,,74,0
21600,note_on,0,0,1,,,,,,,,,0,,,70,69
21600,note_on,160,0,1,,,,,,,,,0,,,72,0
21600,note_on,0,0,2,,,,,,,,,0,,,60,0
21600,note_on,960,0,2,,,,,,,,,0,,,56,0
21600,set_tempo,960,1,0,,,,,,305344,,,,,,,
21600,note_on,0,0,2,,,,,,,,,0,,,46,62
21760,note_on,0,0,1,,,,,,,,,0,,,77,70
21760,note_on,160,0,1,,,,,,,,,0,,,70,0
21920,note_on,160,0,1,,,,,,,,,0,,,77,0
21920,note_on,0,0,1,,,,,,,,,0,,,75,65
22080,note_on,0,0,2,,,,,,,,,0,,,56,35
22080,note_on,0,0,2,,,,,,,,,0,,,62,47
22080,note_on,0,0,2,,,,,,,,,0,,,58,35
22080,note_on,160,0,1,,,,,,,,,0,,,75,0
22080,set_tempo,480,1,0,,,,,,300000,,,,,,,
22080,note_on,0,0,1,,,,,,,,,0,,,74,70
22080,note_on,480,0,2,,,,,,,,,0,,,46,0
22240,note_on,0,0,1,,,,,,,,,0,,,75,66
22240,note_on,160,0,1,,,,,,,,,0,,,74,0
22400,note_on,0,0,1,,,,,,,,,0,,,77,66
22400,note_on,160,0,1,,,,,,,,,0,,,75,0
22560,note_on,160,0,1,,,,,,,,,0,,,77,0
22560,note_on,0,0,1,,,,,,,,,0,,,79,70
22720,note_on,160,0,1,,,,,,,,,0,,,79,0
22720,note_on,0,0,1,,,,,,,,,0,,,80,66
22880,note_on,0,0,1,,,,,,,,,0,,,82,66
22880,note_on,160,0,1,,,,,,,,,0,,,80,0
23040,note_on,0,0,1,,,,,,,,,0,,,75,70
23040,note_on,160,0,1,,,,,,,,,0,,,82,0
23040,note_on,0,0,2,,,,,,,,,0,,,62,0
23040,note_on,0,0,2,,,,,,,,,0,,,51,65
23040,set_tempo,960,1,0,,,,,,306905,,,,,,,
23040,note_on,960,0,2,,,,,,,,,0,,,58,0
23040,note_on,0,0,2,,,,,,,,,0,,,56,0
23200,note_on,160,0,1,,,,,,,,,0,,,75,0
23200,note_on,0,0,1,,,,,,,,,0,,,77,66
23360,note_on,0,0,1,,,,,,,,,0,,,79,66
23360,note_on,160,0,1,,,,,,,,,0,,,77,0
23520,note_on,0,0,2,,,,,,,,,0,,,63,53
23520,note_on,0,0,2,,,,,,,,,0,,,58,39
23520,note_on,0,0,2,,,,,,,,,0,,,55,39
23520,note_on,0,0,1,,,,,,,,,0,,,80,70
23520,note_on,160,0,1,,,,,,,,,0,,,79,0
23520,note_on,480,0,2,,,,,,,,,0,,,51,0
23520,set_tempo,480,1,0,,,,,,300000,,,,,,,
23680,note_on,160,0,1,,,,,,,,,0,,,80,0
23680,note_on,0,0,1,,,,,,,,,0,,,82,65
23840,note_on,0,0,1,,,,,,,,,0,,,84,65
23840,note_on,160,0,1,,,,,,,,,0,,,82,0
24000,note_on,160,0,1,,,,,,,,,0,,,84,0
24000,note_on,0,0,1,,,,,,,,,0,,,86,70
24160,note_on,0,0,1,,,,,,,,,0,,,87,65
24160,note_on,160,0,1,,,,,,,,,0,,,86,0
24320,note_on,160,0,1,,,,,,,,,0,,,87,0
24320,note_on,0,0,1,,,,,,,,,0,,,89,65
24480,note_on,160,0,1,,,,,,,,,0,,,89,0
24480,note_on,0,0,1,,,,,,,,,0,,,91,75
24480,note_on,0,0,2,,,,,,,,,0,,,51,63
24480,set_tempo,960,1,0,,,,,,334262,,,,,,,
24480,note_on,960,0,2,,,,,,,,,0,,,55,0
24480,note_on,0,0,2,,,,,,,,,0,,,58,0
24480,note_on,0,0,2,,,,,,,,,0,,,63,0
24640,note_on,160,0,1,,,,,,,,,0,,,91,0
24640,note_on,0,0,1,,,,,,,,,0,,,94,70
24800,note_on,160,0,1,,,,,,,,,0,,,94,0
24800,note_on,0,0,1,,,,,,,,,0,,,92,68
24960,note_on,0,0,1,,,,,,,,,0,,,91,75
24960,note_on,160,0,1,,,,,,,,,0,,,92,0
24960,set_tempo,480,1,0,,,,,,300752,,,,,,,
24960,note_on,480,0,2,,,,,,,,,0,,,58,50
25120,note_on,160,0,1,,,,,,,,,0,,,91,0
25120,note_on,0,0,1,,,,,,,,,0,,,89,70
25280,note_on,160,0,1,,,,,,,,,0,,,89,0
25280,note_on,0,0,1,,,,,,,,,0,,,87,66
25440,note_on,160,0,1,,,,,,,,,0,,,87,0
25440,note_on,0,0,1,,,,,,,,,0,,,86,72
25600,note_on,0,0,1,,,,,,,,,0,,,84,66
25600,note_on,160,0,1,,,,,,,,,0,,,86,0
25760,note_on,160,0,1,,,,,,,,,0,,,84,0
25760,note_on,0,0,1,,,,,,,,,0,,,82,63
25920,set_tempo,960,1,0,,,,,,307692,,,,,,,
25920,note_on,960,0,2,,,,,,,,,0,,,58,0
25920,note_on,0,0,2,,,,,,,,,0,,,51,0
25920,note_on,160,0,1,,,,,,,,,0,,,82,0
25920,note_on,0,0,1,,,,,,,,,0,,,80,70
25920,note_on,0,0,2,,,,,,,,,0,,,53,63
26080,note_on,160,0,1,,,,,,,,,0,,,80,0
26080,note_on,0,0,1,,,,,,,,,0,,,79,66
26240,note_on,160,0,1,,,,,,,,,0,,,79,0
26240,note_on,0,0,1,,,,,,,,,0,,,77,64
26400,note_on,0,0,1,,,,,,,,,0,,,75,70
26400,set_tempo,480,1,0,,,,,,300000,,,,,,,
26400,note_on,160,0,1,,,,,,,,,0,,,77,0
26400,note_on,480,0,2,,,,,,,,,0,,,58,49
26560,note_on,160,0,1,,,,,,,,,0,,,75,0
26560,note_on,0,0,1,,,,,,,,,0,,,74,66
26720,note_on,160,0,1,,,,,,,,,0,,,74,0
26720,note_on,0,0,1,,,,,,,,,0,,,72,63
26880,note_on,160,0,1,,,,,,,,,0,,,72,0
26880,note_on,0,0,1,,,,,,,,,0,,,70,70
27040,note_on,0,0,1,,,,,,,,,0,,,72,66
27040,note_on,160,0,1,,,,,,,,,0,,,70,0
27200,note_on,160,0,1,,,,,,,,,0,,,72,0
27200,note_on,0,0,1,,,,,,,,,0,,,74,66
27360,note_on,0,0,2,,,,,,,,,0,,,55,63
27360,note_on,0,0,2,,,,,,,,,0,,,53,0
27360,note_on,960,0,2,,,,,,,,,0,,,58,0
27360,note_on,0,0,1,,,,,,,,,0,,,75,74
27360,note_on,160,0,1,,,,,,,,,0,,,74,0
27360,set_tempo,960,1,0,,,,,,307692,,,,,,,
27520,note_on,160,0,1,,,,,,,,,0,,,75,0
27520,note_on,0,0,1,,,,,,,,,0,,,74,68
27680,note_on,160,0,1,,,,,,,,,0,,,74,0
27680,note_on,0,0,1,,,,,,,,,0,,,75,68
27840,set_tempo,480,1,0,,,,,,300000,,,,,,,
27840,note_on,480,0,2,,,,,,,,,0,,,58,51
27840,note_on,160,0,1,,,,,,,,,0,,,75,0
27840,note_on,0,0,1,,,,,,,,,0,,,76,74
28000,note_on,160,0,1,,,,,,,,,0,,,76,0
28000,note_on,0,0,1,,,,,,,,,0,,,75,71
28160,note_on,0,0,1,,,,,,,,,0,,,76,68
28160,note_on,160,0,1,,,,,,,,,0,,,75,0
28320,note_on,0,0,1,,,,,,,,,0,,,77,78
28320,note_on,160,0,1,,,,,,,,,0,,,76,0
28480,note_on,0,0,1,,,,,,,,,0,,,76,74
28480,note_on,160,0,1,,,,,,,,,0,,,77,0
28640,note_on,160,0,1,,,,,,,,,0,,,76,0
28640,note_on,0,0,1,,,,,,,,,0,,,77,71
28800,set_tempo,960,1,0,,,,,,306905,,,,,,,
28800,note_on,0,0,1,,,,,,,,,0,,,78,80
28800,note_on,0,0,2,,,,,,,,,0,,,50,73
28800,note_on,0,0,2,,,,,,,,,0,,,55,0
28800,note_on,960,0,2,,,,,,,,,0,,,58,0
28800,note_on,160,0,1,,,,,,,,,0,,,77,0
28960,note_on,0,0,1,,,,,,,,,0,,,77,75
28960,note_on,160,0,1,,,,,,,,,0,,,78,0
29120,note_on,0,0,1,,,,,,,,,0,,,78,73
29120,note_on,160,0,1,,,,,,,,,0,,,77,0
29280,set_tempo,480,1,0,,,,,,300000,,,,,,,
29280,note_on,480,0,2,,,,,,,,,0,,,58,52
29280,note_on,160,0,1,,,,,,,,,0,,,78,0
29280,note_on,0,0,1,,,,,,,,,0,,,79,78
29440,note_on,0,0,1,,,,,,,,,0,,,78,73
29440,note_on,160,0,1,,,,,,,,,0,,,79,0
29600,note_on,160,0,1,,,,,,,,,0,,,78,0
29600,note_on,0,0,1,,,,,,,,,0,,,79,71
29760,note_on,0,0,1,,,,,,,,,0,,,80,72
29760,note_on,160,0,1,,,,,,,,,0,,,79,0
29920,note_on,160,0,1,,,,,,,,,0,,,80,0
29920,note_on,0,0,1,,,,,,,,,0,,,79,68
30080,note_on,160,0,1,,,,,,,,,0,,,79,0
30080,note_on,0,0,1,,,,,,,,,0,,,80,68
30240,set_tempo,960,1,0,,,,,,306905,,,,,,,
30240,note_on,160,0,1,,,,,,,,,0,,,80,0
30240,note_on,0,0,1,,,,,,,,,0,,,79,70
30240,note_on,960,0,2,,,,,,,,,0,,,58,0
30240,note_on,0,0,2,,,,,,,,,0,,,51,65
30240,note_on,0,0,2,,,,,,,,,0,,,50,0
30400,note_on,160,0,1,,,,,,,,,0,,,79,0
30400,note_on,0,0,1,,,,,,,,,0,,,82,66
30560,note_on,0,0,1,,,,,,,,,0,,,80,66
30560,note_on,160,0,1,,,,,,,,,0,,,82,0
30720,note_on,160,0,1,,,,,,,,,0,,,80,0
30720,set_tempo,480,1,0,,,,,,300000,,,,,,,
30720,note_on,480,0,2,,,,,,,,,0,,,58,55
30720,note_on,0,0,1,,,,,,,,,0,,,79,70
30880,note_on,0,0,1,,,,,,,,,0,,,80,66
30880,note_on,160,0,1,,,,,,,,,0,,,79,0
31040,note_on,160,0,1,,,,,,,,,0,,,80,0
31040,note_on,0,0,1,,,,,,,,,0,,,82,66
31200,note_on,160,0,1,,,,,,,,,0,,,82,0
31200,note_on,0,0,1,,,,,,,,,0,,,84,70
31360,note_on,160,0,1,,,,,,,,,0,,,84,0
31360,note_on,0,0,1,,,,,,,,,0,,,86,67
31520,note_on,160,0,1,,,,,,,,,0,,,86,0
31520,note_on,0,0,1,,,,,,,,,0,,,87,67
31680,note_on,0,0,2,,,,,,,,,0,,,51,0
31680,note_on,960,0,2,,,,,,,,,0,,,58,0
31680,note_on,0,0,2,,,,,,,,,0,,,44,53
31680,note_on,0,0,1,,,,,,,,,0,,,89,72
31680,note_on,160,0,1,,,,,,,,,0,,,87,0
31688,set_tempo,968,1,0,,,,,,334262,,,,,,,
31840,note_on,160,0,1,,,,,,,,,0,,,89,0
31840,note_on,0,0,1,,,,,,,,,0,,,96,69
32000,note_on,160,0,1,,,,,,,,,0,,,96,0
32000,note_on,0,0,1,,,,,,,,,0,,,94,66
32160,note_on,0,0,1,,,,,,,,,0,,,92,69
32160,note_on,160,0,1,,,,,,,,,0,,,94,0
32160,note_on,480,0,2,,,,,,,,,0,,,44,0
32160,note_on,0,0,2,,,,,,,,,0,,,60,46
32160,note_on,0,0,2,,,,,,,,,0,,,56,34
32168,set_tempo,480,1,0,,,,,,300000,,,,,,,
32320,note_on,0,0,1,,,,,,,,,0,,,91,63
32320,note_on,160,0,1,,,,,,,,,0,,,92,0
32480,note_on,0,0,1,,,,,,,,,0,,,89,63
32480,note_on,160,0,1,,,,,,,,,0,,,91,0
32640,note_on,0,0,1,,,,,,,,,0,,,87,66
32640,note_on,160,0,1,,,,,,,,,0,,,89,0
32800,note_on,0,0,1,,,,,,,,,0,,,86,65
32800,note_on,160,0,1,,,,,,,,,0,,,87,0
32960,note_on,0,0,1,,,,,,,,,0,,,84,59
32960,note_on,160,0,1,,,,,,,,,0,,,86,0
33120,note_on,0,0,2,,,,,,,,,0,,,56,0
33120,note_on,960,0,2,,,,,,,,,0,,,60,0
33120,set_tempo,952,1,0,,,,,,303797,,,,,,,
33120,note_on,0,0,2,,,,,,,,,0,,,46,53
33120,note_on,0,0,1,,,,,,,,,0,,,82,59
33120,note_on,160,0,1,,,,,,,,,0,,,84,0
33280,note_on,0,0,1,,,,,,,,,0,,,89,62
33280,note_on,160,0,1,,,,,,,,,0,,,82,0
33440,note_on,160,0,1,,,,,,,,,0,,,89,0
33440,note_on,0,0,1,,,,,,,,,0,,,87,57
33600,note_on,0,0,2,,,,,,,,,0,,,56,34
33600,note_on,0,0,2,,,,,,,,,0,,,62,45
33600,note_on,0,0,1,,,,,,,,,0,,,86,60
33600,note_on,160,0,1,,,,,,,,,0,,,87,0
33600,note_on,0,0,2,,,,,,,,,0,,,58,34
33600,set_tempo,480,1,0,,,,,,300000,,,,,,,
33600,note_on,480,0,2,,,,,,,,,0,,,46,0
33760,note_on,160,0,1,,,,,,,,,0,,,86,0
33760,note_on,0,0,1,,,,,,,,,0,,,84,59
33920,note_on,0,0,1,,,,,,,,,0,,,82,54
33920,note_on,160,0,1,,,,,,,,,0,,,84,0
34080,note_on,160,0,1,,,,,,,,,0,,,82,0
34080,note_on,0,0,1,,,,,,,,,0,,,80,57
34240,note_on,160,0,1,,,,,,,,,0,,,80,0
34240,note_on,0,0,1,,,,,,,,,0,,,79,56
34400,note_on,0,0,1,,,,,,,,,0,,,77,55
34400,note_on,160,0,1,,,,,,,,,0,,,79,0
34560,note_on,0,0,1,,,,,,,,,0,,,75,54
34560,note_on,160,0,1,,,,,,,,,0,,,77,0
34560,set_tempo,960,1,0,,,,,,305344,,,,,,,
34560,note_on,960,0,2,,,,,,,,,0,,,56,0
34560,note_on,0,0,2,,,,,,,,,0,,,58,0
34560,note_on,0,0,2,,,,,,,,,0,,,62,0
34560,note_on,0,0,2,,,,,,,,,0,,,51,45
34720,note_on,160,0,1,,,,,,,,,0,,,75,0
34720,note_on,0,0,1,,,,,,,,,0,,,79,53
34880,note_on,0,0,1,,,,,,,,,0,,,77,52
34880,note_on,160,0,1,,,,,,,,,0,,,79,0
35040,note_on,160,0,1,,,,,,,,,0,,,77,0
35040,note_on,0,0,2,,,,,,,,,0,,,58,29
35040,note_on,480,0,2,,,,,,,,,0,,,51,0
35040,set_tempo,480,1,0,,,,,,300000,,,,,,,
35040,note_on,0,0,1,,,,,,,,,0,,,75,51
35040,note_on,0,0,2,,,,,,,,,0,,,63,39
35040,note_on,0,0,2,,,,,,,,,0,,,55,29
35200,note_on,160,0,1,,,,,,,,,0,,,75,0
35200,note_on,0,0,1,,,,,,,,,0,,,74,50
35360,note_on,160,0,1,,,,,,,,,0,,,74,0
35360,note_on,0,0,1,,,,,,,,,0,,,72,49
35520,note_on,160,0,1,,,,,,,,,0,,,72,0
35520,note_on,0,0,1,,,,,,,,,0,,,70,48
35680,note_on,160,0,1,,,,,,,,,0,,,70,0
35680,note_on,0,0,1,,,,,,,,,0,,,68,47
35840,note_on,160,0,1,,,,,,,,,0,,,68,0
35840,note_on,0,0,1,,,,,,,,,0,,,65,46
36000,set_tempo,960,1,0,,,,,,329670,,,,,,,
36000,note_on,160,0,1,,,,,,,,,0,,,65,0
36000,note_on,0,0,2,,,,,,,,,0,,,55,0
36000,note_on,0,0,2,,,,,,,,,0,,,58,0
36000,note_on,0,0,1,,,,,,,,,0,,,66,45
36000,note_on,960,0,2,,,,,,,,,0,,,63,0
36000,note_on,0,0,2,,,,,,,,,0,,,39,49
36160,note_on,160,0,1,,,,,,,,,0,,,66,0
36160,note_on,0,0,1,,,,,,,,,0,,,70,43
36320,note_on,0,0,1,,,,,,,,,0,,,68,44
36320,note_on,160,0,1,,,,,,,,,0,,,70,0
36480,note_on,160,0,1,,,,,,,,,0,,,68,0
36480,note_on,0,0,1,,,,,,,,,0,,,66,46
36480,set_tempo,480,1,0,,,,,,305344,,,,,,,
36480,note_on,480,0,2,,,,,,,,,0,,,51,36
36640,note_on,0,0,1,,,,,,,,,0,,,65,42
36640,note_on,160,0,1,,,,,,,,,0,,,66,0
36800,note_on,160,0,1,,,,,,,,,0,,,65,0
36800,note_on,0,0,1,,,,,,,,,0,,,63,36
36960,note_on,160,0,1,,,,,,,,,0,,,63,0
36960,note_on,0,0,1,,,,,,,,,0,,,61,46
37120,note_on,0,0,1,,,,,,,,,0,,,59,42
37120,note_on,160,0,1,,,,,,,,,0,,,61,0
37280,note_on,160,0,1,,,,,,,,,0,,,59,0
37280,note_on,0,0,1,,,,,,,,,0,,,58,36
37440,note_on,0,0,2,,,,,,,,,0,,,44,47
37440,control_change,0,0,2,,,,,,,,,0,64,127,,
37440,note_on,0,0,1,,,,,,,,,0,,,59,46
37440,note_on,960,0,2,,,,,,,,,0,,,51,0
37440,set_tempo,960,1,0,,,,,,342857,,,,,,,
37440,note_on,0,0,2,,,,,,,,,0,,,39,0
37440,note_on,160,0,1,,,,,,,,,0,,,58,0
37600,note_on,0,0,1,,,,,,,,,0,,,63,44
37600,note_on,160,0,1,,,,,,,,,0,,,59,0
37760,note_on,160,0,1,,,,,,,,,0,,,63,0
37760,note_on,0,0,1,,,,,,,,,0,,,68,44
37920,note_on,480,0,2,,,,,,,,,0,,,56,36
37920,note_on,160,0,1,,,,,,,,,0,,,68,0
37920,note_on,0,0,1,,,,,,,,,0,,,71,49
37920,set_tempo,480,1,0,,,,,,324324,,,,,,,
37966,control_change,46,0,2,,,,,,,,,0,64,0,,
37998,control_change,32,0,2,,,,,,,,,0,64,127,,
38080,note_on,160,0,1,,,,,,,,,0,,,63,42
38240,note_on,0,0,1,,,,,,,,,0,,,68,34
38240,note_on,160,0,1,,,,,,,,,0,,,63,0
38400,note_on,0,0,1,,,,,,,,,0,,,66,42
38400,note_on,160,0,1,,,,,,,,,0,,,68,0
38560,note_on,0,0,1,,,,,,,,,0,,,63,39
38560,note_on,160,0,1,,,,,,,,,0,,,66,0
38720,note_on,0,0,1,,,,,,,,,0,,,66,36
38720,note_on,160,0,1,,,,,,,,,0,,,63,0
38816,control_change,818,0,2,,,,,,,,,0,64,0,,
38880,note_on,64,0,2,,,,,,,,,0,,,56,0
38880,note_on,0,0,2,,,,,,,,,0,,,44,0
38880,note_on,0,0,1,,,,,,,,,0,,,65,46
38880,note_on,160,0,1,,,,,,,,,0,,,66,0
38880,note_on,0,0,1,,,,,,,,,0,,,71,0
38880,note_on,0,0,2,,,,,,,,,0,,,37,49
38880,set_tempo,960,1,0,,,,,,300000,,,,,,,
39040,note_on,160,0,1,,,,,,,,,0,,,65,0
39040,note_on,0,0,1,,,,,,,,,0,,,71,42
39200,note_on,160,0,1,,,,,,,,,0,,,71,0
39200,note_on,0,0,1,,,,,,,,,0,,,70,36
39360,note_on,480,0,2,,,,,,,,,0,,,49,36
39360,note_on,0,0,1,,,,,,,,,0,,,68,46
39360,note_on,160,0,1,,,,,,,,,0,,,70,0
39520,note_on,0,0,1,,,,,,,,,0,,,66,42
39520,note_on,160,0,1,,,,,,,,,0,,,68,0
39680,note_on,0,0,1,,,,,,,,,0,,,65,35
39680,note_on,160,0,1,,,,,,,,,0,,,66,0
39840,note_on,0,0,1,,,,,,,,,0,,,63,41
39840,note_on,160,0,1,,,,,,,,,0,,,65,0
40000,note_on,0,0,1,,,,,,,,,0,,,61,41
40000,note_on,160,0,1,,,,,,,,,0,,,63,0
40160,note_on,0,0,1,,,,,,,,,0,,,59,35
40160,note_on,160,0,1,,,,,,,,,0,,,61,0
40320,note_on,960,0,2,,,,,,,,,0,,,49,0
40320,set_tempo,1440,1,0,,,,,,333333,,,,,,,
40320,note_on,0,0,2,,,,,,,,,0,,,37,0
40320,note_on,0,0,2,,,,,,,,,0,,,42,48
40320,note_on,160,0,1,,,,,,,,,0,,,59,0
40320,note_on,0,0,1,,,,,,,,,0,,,58,46
40352,control_change,32,0,2,,,,,,,,,0,64,127,,
40480,note_on,0,0,1,,,,,,,,,0,,,61,43
40480,note_on,160,0,1,,,,,,,,,0,,,58,0
40640,note_on,0,0,1,,,,,,,,,0,,,66,34
40640,note_on,160,0,1,,,,,,,,,0,,,61,0
40788,set_tempo,468,1,0,,,,,,316623,,,,,,,
40800,note_on,448,0,2,,,,,,,,,0,,,54,36
40800,note_on,160,0,1,,,,,,,,,0,,,66,0
40800,note_on,0,0,1,,,,,,,,,0,,,70,49
40825,control_change,25,0,2,,,,,,,,,0,64,0,,
40846,control_change,21,0,2,,,,,,,,,0,64,127,,
40960,note_on,160,0,1,,,,,,,,,0,,,61,43
41120,note_on,160,0,1,,,,,,,,,0,,,61,0
41120,note_on,0,0,1,,,,,,,,,0,,,66,36
41280,note_on,0,0,1,,,,,,,,,0,,,65,41
41280,note_on,160,0,1,,,,,,,,,0,,,66,0
41440,note_on,0,0,1,,,,,,,,,0,,,61,38
41440,note_on,160,0,1,,,,,,,,,0,,,65,0
41600,note_on,160,0,1,,,,,,,,,0,,,61,0
41600,note_on,0,0,1,,,,,,,,,0,,,65,35
41679,control_change,833,0,2,,,,,,,,,0,64,0,,
41748,set_tempo,960,1,0,,,,,,300000,,,,,,,
41760,note_on,0,0,1,,,,,,,,,0,,,70,0
41760,note_on,160,0,1,,,,,,,,,0,,,65,0
41760,note_on,0,0,1,,,,,,,,,0,,,63,45
41760,set_tempo,12,1,0,,,,,,300000,,,,,,,
41760,note_on,81,0,2,,,,,,,,,0,,,54,0
41760,note_on,0,0,2,,,,,,,,,0,,,35,49
41760,note_on,0,0,2,,,,,,,,,0,,,42,0
41920,note_on,0,0,1,,,,,,,,,0,,,70,46
41920,note_on,160,0,1,,,,,,,,,0,,,63,0
42080,note_on,160,0,1,,,,,,,,,0,,,70,0
42080,note_on,0,0,1,,,,,,,,,0,,,68,42
42240,note_on,0,0,1,,,,,,,,,0,,,66,46
42240,note_on,480,0,2,,,,,,,,,0,,,47,36
42240,note_on,160,0,1,,,,,,,,,0,,,68,0
42400,note_on,160,0,1,,,,,,,,,0,,,66,0
42400,note_on,0,0,1,,,,,,,,,0,,,65,42
42560,note_on,160,0,1,,,,,,,,,0,,,65,0
42560,note_on,0,0,1,,,,,,,,,0,,,63,35
42720,note_on,160,0,1,,,,,,,,,0,,,63,0
42720,note_on,0,0,1,,,,,,,,,0,,,61,42
42880,note_on,160,0,1,,,,,,,,,0,,,61,0
42880,note_on,0,0,1,,,,,,,,,0,,,59,38
43040,note_on,0,0,1,,,,,,,,,0,,,58,35
43040,note_on,160,0,1,,,,,,,,,0,,,59,0
43200,note_on,960,0,2,,,,,,,,,0,,,47,0
43200,note_on,0,0,2,,,,,,,,,0,,,35,0
43200,note_on,0,0,2,,,,,,,,,0,,,41,47
43200,set_tempo,1440,1,0,,,,,,342857,,,,,,,
43200,note_on,160,0,1,,,,,,,,,0,,,58,0
43200,note_on,0,0,1,,,,,,,,,0,,,56,46
43225,control_change,25,0,2,,,,,,,,,0,64,127,,
43360,note_on,0,0,1,,,,,,,,,0,,,59,42
43360,note_on,160,0,1,,,,,,,,,0,,,56,0
43520,note_on,0,0,1,,,,,,,,,0,,,65,42
43520,note_on,160,0,1,,,,,,,,,0,,,59,0
43680,set_tempo,480,1,0,,,,,,322581,,,,,,,
43680,note_on,455,0,2,,,,,,,,,0,,,53,36
43680,note_on,0,0,1,,,,,,,,,0,,,68,49
43680,note_on,160,0,1,,,,,,,,,0,,,65,0
43729,control_change,49,0,2,,,,,,,,,0,64,0,,
43754,control_change,25,0,2,,,,,,,,,0,64,127,,
43840,note_on,160,0,1,,,,,,,,,0,,,59,44
44000,note_on,160,0,1,,,,,,,,,0,,,59,0
44000,note_on,0,0,1,,,,,,,,,0,,,65,37
44160,note_on,0,0,1,,,,,,,,,0,,,63,42
44160,note_on,160,0,1,,,,,,,,,0,,,65,0
44320,note_on,0,0,1,,,,,,,,,0,,,59,37
44320,note_on,160,0,1,,,,,,,,,0,,,63,0
44480,note_on,160,0,1,,,,,,,,,0,,,59,0
44480,note_on,0,0,1,,,,,,,,,0,,,63,38
44601,control_change,847,0,2,,,,,,,,,0,64,0,,
44640,note_on,39,0,2,,,,,,,,,0,,,53,0
44640,note_on,0,0,2,,,,,,,,,0,,,41,0
44640,note_on,160,0,1,,,,,,,,,0,,,63,0
44640,set_tempo,960,1,0,,,,,,300000,,,,,,,
44640,note_on,0,0,1,,,,,,,,,0,,,62,46
44640,note_on,0,0,1,,,,,,,,,0,,,68,0
44640,note_on,0,0,2,,,,,,,,,0,,,34,49
44800,note_on,0,0,1,,,,,,,,,0,,,68,42
44800,note_on,160,0,1,,,,,,,,,0,,,62,0
44960,note_on,0,0,1,,,,,,,,,0,,,66,42
44960,note_on,160,0,1,,,,,,,,,0,,,68,0
45120,note_on,480,0,2,,,,,,,,,0,,,46,36
45120,note_on,0,0,1,,,,,,,,,0,,,65,46
45120,note_on,160,0,1,,,,,,,,,0,,,66,0
45280,note_on,0,0,1,,,,,,,,,0,,,63,43
45280,note_on,160,0,1,,,,,,,,,0,,,65,0
45440,note_on,160,0,1,,,,,,,,,0,,,63,0
45440,note_on,0,0,1,,,,,,,,,0,,,62,37
45600,note_on,0,0,1,,,,,,,,,0,,,59,42
45600,note_on,160,0,1,,,,,,,,,0,,,62,0
45760,note_on,0,0,1,,,,,,,,,0,,,58,39
45760,note_on,160,0,1,,,,,,,,,0,,,59,0
45920,note_on,160,0,1,,,,,,,,,0,,,58,0
45920,note_on,0,0,1,,,,,,,,,0,,,56,39
46080,note_on,0,0,2,,,,,,,,,0,,,39,48
46080,note_on,160,0,1,,,,,,,,,0,,,56,0
46080,note_on,0,0,1,,,,,,,,,0,,,54,46
46080,note_on,0,0,2,,,,,,,,,0,,,34,0
46080,set_tempo,1440,1,0,,,,,,348837,,,,,,,
46080,note_on,960,0,2,,,,,,,,,0,,,46,0
46101,control_change,21,0,2,,,,,,,,,0,64,127,,
46240,note_on,160,0,1,,,,,,,,,0,,,54,0
46240,note_on,0,0,1,,,,,,,,,0,,,58,42
46400,note_on,160,0,1,,,,,,,,,0,,,58,0
46400,note_on,0,0,1,,,,,,,,,0,,,63,44
46560,note_on,459,0,2,,,,,,,,,0,,,51,36
46560,set_tempo,480,1,0,,,,,,327869,,,,,,,
46560,note_on,160,0,1,,,,,,,,,0,,,63,0
46560,note_on,0,0,1,,,,,,,,,0,,,66,49
46627,control_change,67,0,2,,,,,,,,,0,64,0,,
46655,control_change,28,0,2,,,,,,,,,0,64,127,,
46720,note_on,160,0,1,,,,,,,,,0,,,58,39
46880,note_on,160,0,1,,,,,,,,,0,,,58,0
46880,note_on,0,0,1,,,,,,,,,0,,,63,39
47040,note_on,0,0,1,,,,,,,,,0,,,61,45
47040,note_on,160,0,1,,,,,,,,,0,,,63,0
47200,note_on,160,0,1,,,,,,,,,0,,,61,0
47200,note_on,0,0,1,,,,,,,,,0,,,58,39
47360,note_on,160,0,1,,,,,,,,,0,,,58,0
47360,note_on,0,0,1,,,,,,,,,0,,,61,39
47471,control_change,816,0,2,,,,,,,,,0,64,0,,
47508,set_tempo,948,1,0,,,,,,300000,,,,,,,
47520,set_tempo,12,1,0,,,,,,333333,,,,,,,
47520,note_on,160,0,1,,,,,,,,,0,,,61,0
47520,note_on,49,0,2,,,,,,,,,0,,,51,0
47520,note_on,0,0,2,,,,,,,,,0,,,39,0
47520,note_on,0,0,2,,,,,,,,,0,,,44,48
47520,note_on,0,0,1,,,,,,,,,0,,,59,46
47520,note_on,0,0,1,,,,,,,,,0,,,66,0
47527,control_change,7,0,2,,,,,,,,,0,64,127,,
47680,note_on,160,0,1,,,,,,,,,0,,,59,0
47680,note_on,0,0,1,,,,,,,,,0,,,63,43
47840,note_on,160,0,1,,,,,,,,,0,,,63,0
47840,note_on,0,0,1,,,,,,,,,0,,,68,43
47988,set_tempo,468,1,0,,,,,,316623,,,,,,,
48000,note_on,473,0,2,,,,,,,,,0,,,56,36
48000,note_on,0,0,1,,,,,,,,,0,,,71,49
48000,note_on,160,0,1,,,,,,,,,0,,,68,0
48085,control_change,85,0,2,,,,,,,,,0,64,0,,
48109,control_change,24,0,2,,,,,,,,,0,64,127,,
48160,note_on,160,0,1,,,,,,,,,0,,,63,42
48320,note_on,160,0,1,,,,,,,,,0,,,63,0
48320,note_on,0,0,1,,,,,,,,,0,,,68,42
48480,note_on,0,0,1,,,,,,,,,0,,,66,44
48480,note_on,160,0,1,,,,,,,,,0,,,68,0
48640,note_on,160,0,1,,,,,,,,,0,,,66,0
48640,note_on,0,0,1,,,,,,,,,0,,,63,40
48800,note_on,0,0,1,,,,,,,,,0,,,66,40
48800,note_on,160,0,1,,,,,,,,,0,,,63,0
48896,control_change,787,0,2,,,,,,,,,0,64,0,,
48960,note_on,0,0,2,,,,,,,,,0,,,44,0
48960,note_on,0,0,1,,,,,,,,,0,,,71,54
48960,note_on,0,0,1,,,,,,,,,0,,,71,0
48960,note_on,160,0,1,,,,,,,,,0,,,66,0
48960,note_on,64,0,2,,,,,,,,,0,,,56,0
48960,control_change,0,0,2,,,,,,,,,0,64,127,,
48960,note_on,0,0,2,,,,,,,,,0,,,46,46
48968,set_tempo,980,1,0,,,,,,352941,,,,,,,
49120,note_on,160,0,1,,,,,,,,,0,,,65,46
49280,note_on,0,0,1,,,,,,,,,0,,,62,46
49280,note_on,160,0,1,,,,,,,,,0,,,65,0
49419,control_change,459,0,2,,,,,,,,,0,64,0,,
49440,note_on,0,0,1,,,,,,,,,0,,,71,0
49440,note_on,160,0,1,,,,,,,,,0,,,62,0
49440,note_on,21,0,2,,,,,,,,,0,,,58,46
49440,note_on,0,0,1,,,,,,,,,0,,,70,53
49504,control_change,64,0,2,,,,,,,,,0,64,127,,
49600,note_on,160,0,1,,,,,,,,,0,,,65,46
49760,note_on,160,0,1,,,,,,,,,0,,,65,0
49760,note_on,0,0,1,,,,,,,,,0,,,62,46
49864,control_change,360,0,2,,,,,,,,,0,64,0,,
49920,note_on,160,0,1,,,,,,,,,0,,,62,0
49920,note_on,0,0,1,,,,,,,,,0,,,70,0
49920,note_on,0,0,1,,,,,,,,,0,,,74,53
49962,control_change,98,0,2,,,,,,,,,0,64,127,,
50080,note_on,160,0,1,,,,,,,,,0,,,68,46
50240,note_on,0,0,1,,,,,,,,,0,,,65,46
50240,note_on,160,0,1,,,,,,,,,0,,,68,0
50322,control_change,360,0,2,,,,,,,,,0,64,0,,
50400,note_on,0,0,2,,,,,,,,,0,,,51,45
50400,note_on,0,0,1,,,,,,,,,0,,,74,0
50400,note_on,160,0,1,,,,,,,,,0,,,65,0
50400,note_on,0,0,1,,,,,,,,,0,,,75,53
50400,note_on,78,0,2,,,,,,,,,0,,,46,0
50560,set_tempo,1592,1,0,,,,,,300752,,,,,,,
50560,note_on,160,0,1,,,,,,,,,0,,,75,0
50560,note_on,0,0,1,,,,,,,,,0,,,78,44
50720,note_on,0,0,1,,,,,,,,,0,,,77,44
50720,note_on,160,0,1,,,,,,,,,0,,,78,0
50880,note_on,0,0,1,,,,,,,,,0,,,75,47
50880,note_on,160,0,1,,,,,,,,,0,,,77,0
51040,note_on,160,0,1,,,,,,,,,0,,,75,0
51040,note_on,0,0,1,,,,,,,,,0,,,73,40
51200,note_on,160,0,1,,,,,,,,,0,,,73,0
51200,note_on,0,0,1,,,,,,,,,0,,,71,40
51360,note_on,160,0,1,,,,,,,,,0,,,71,0
51360,note_on,0,0,1,,,,,,,,,0,,,70,48
51520,note_on,160,0,1,,,,,,,,,0,,,70,0
51520,note_on,0,0,1,,,,,,,,,0,,,68,42
51680,note_on,160,0,1,,,,,,,,,0,,,68,0
51680,note_on,0,0,1,,,,,,,,,0,,,65,40
51840,note_on,160,0,1,,,,,,,,,0,,,65,0
51840,note_on,0,0,1,,,,,,,,,0,,,66,44
51840,note_on,1440,0,2,,,,,,,,,0,,,51,0
51840,note_on,0,0,2,,,,,,,,,0,,,58,0
51840,note_on,0,0,2,,,,,,,,,0,,,42,46
52000,note_on,160,0,1,,,,,,,,,0,,,66,0
52000,note_on,0,0,1,,,,,,,,,0,,,70,44
52160,note_on,0,0,1,,,,,,,,,0,,,68,41
52160,note_on,160,0,1,,,,,,,,,0,,,70,0
52320,note_on,160,0,1,,,,,,,,,0,,,68,0
52320,note_on,0,0,1,,,,,,,,,0,,,66,44
52320,note_on,480,0,2,,,,,,,,,0,,,49,37
52480,note_on,160,0,1,,,,,,,,,0,,,66,0
52480,note_on,0,0,1,,,,,,,,,0,,,65,40
52640,note_on,160,0,1,,,,,,,,,0,,,65,0
52640,note_on,0,0,1,,,,,,,,,0,,,63,40
52800,note_on,160,0,1,,,,,,,,,0,,,63,0
52800,note_on,0,0,1,,,,,,,,,0,,,61,44
52960,note_on,0,0,1,,,,,,,,,0,,,59,41
52960,note_on,160,0,1,,,,,,,,,0,,,61,0
53120,note_on,160,0,1,,,,,,,,,0,,,59,0
53120,note_on,0,0,1,,,,,,,,,0,,,58,41
53280,note_on,960,0,2,,,,,,,,,0,,,49,0
53280,note_on,0,0,2,,,,,,,,,0,,,42,0
53280,control_change,0,0,2,,,,,,,,,0,64,127,,
53280,note_on,0,0,2,,,,,,,,,0,,,44,44
53280,note_on,0,0,1,,,,,,,,,0,,,59,45
53280,note_on,160,0,1,,,,,,,,,0,,,58,0
53280,set_tempo,2720,1,0,,,,,,333333,,,,,,,
53440,note_on,0,0,1,,,,,,,,,0,,,62,45
53440,note_on,160,0,1,,,,,,,,,0,,,59,0
53600,note_on,160,0,1,,,,,,,,,0,,,62,0
53600,note_on,0,0,1,,,,,,,,,0,,,65,42
53760,note_on,0,0,1,,,,,,,,,0,,,71,49
53760,note_on,160,0,1,,,,,,,,,0,,,65,0
53760,note_on,480,0,2,,,,,,,,,0,,,50,59
53768,set_tempo,488,1,0,,,,,,353982,,,,,,,
53781,control_change,21,0,2,,,,,,,,,0,64,0,,
53813,control_change,32,0,2,,,,,,,,,0,64,127,,
53920,note_on,160,0,1,,,,,,,,,0,,,65,45
54080,note_on,160,0,1,,,,,,,,,0,,,65,0
54080,note_on,0,0,1,,,,,,,,,0,,,62,42
54240,note_on,0,0,2,,,,,,,,,0,,,49,37
54240,note_on,427,0,2,,,,,,,,,0,,,50,0
54240,note_on,160,0,1,,,,,,,,,0,,,62,0
54240,note_on,0,0,1,,,,,,,,,0,,,65,45
54248,set_tempo,480,1,0,,,,,,316623,,,,,,,
54400,note_on,0,0,1,,,,,,,,,0,,,61,42
54400,note_on,160,0,1,,,,,,,,,0,,,65,0
54560,note_on,0,0,1,,,,,,,,,0,,,59,42
54560,note_on,160,0,1,,,,,,,,,0,,,61,0
54656,control_change,416,0,2,,,,,,,,,0,64,0,,
54720,note_on,0,0,2,,,,,,,,,0,,,44,0
54720,note_on,64,0,2,,,,,,,,,0,,,49,0
54720,note_on,160,0,1,,,,,,,,,0,,,59,0
54720,note_on,0,0,1,,,,,,,,,0,,,71,0
54720,note_on,0,0,1,,,,,,,,,0,,,58,45
54720,note_on,0,0,2,,,,,,,,,0,,,42,44
54728,set_tempo,480,1,0,,,,,,300000,,,,,,,
54880,note_on,160,0,1,,,,,,,,,0,,,58,0
54880,note_on,0,0,1,,,,,,,,,0,,,70,45
55040,note_on,160,0,1,,,,,,,,,0,,,70,0
55040,note_on,0,0,1,,,,,,,,,0,,,68,41
55200,note_on,0,0,1,,,,,,,,,0,,,66,45
55200,note_on,480,0,2,,,,,,,,,0,,,49,37
55200,note_on,160,0,1,,,,,,,,,0,,,68,0
55360,note_on,160,0,1,,,,,,,,,0,,,66,0
55360,note_on,0,0,1,,,,,,,,,0,,,65,45
55520,note_on,0,0,1,,,,,,,,,0,,,63,43
55520,note_on,160,0,1,,,,,,,,,0,,,65,0
55680,note_on,160,0,1,,,,,,,,,0,,,63,0
55680,note_on,0,0,1,,,,,,,,,0,,,61,45
55840,note_on,160,0,1,,,,,,,,,0,,,61,0
55840,note_on,0,0,1,,,,,,,,,0,,,59,42
56000,note_on,160,0,1,,,,,,,,,0,,,59,0
56000,note_on,0,0,1,,,,,,,,,0,,,58,39
56160,control_change,0,0,2,,,,,,,,,0,64,127,,
56160,note_on,0,0,2,,,,,,,,,0,,,44,45
56160,note_on,0,0,2,,,,,,,,,0,,,42,0
56160,note_on,960,0,2,,,,,,,,,0,,,49,0
56160,note_on,160,0,1,,,,,,,,,0,,,58,0
56160,set_tempo,1432,1,0,,,,,,333333,,,,,,,
56160,note_on,0,0,1,,,,,,,,,0,,,59,44
56320,note_on,160,0,1,,,,,,,,,0,,,59,0
56320,note_on,0,0,1,,,,,,,,,0,,,62,39
56480,note_on,160,0,1,,,,,,,,,0,,,62,0
56480,note_on,0,0,1,,,,,,,,,0,,,65,40
56640,note_on,160,0,1,,,,,,,,,0,,,65,0
56640,note_on,0,0,1,,,,,,,,,0,,,71,50
56640,note_on,480,0,2,,,,,,,,,0,,,50,62
56648,set_tempo,488,1,0,,,,,,353982,,,,,,,
56707,control_change,67,0,2,,,,,,,,,0,64,0,,
56739,control_change,32,0,2,,,,,,,,,0,64,127,,
56800,note_on,160,0,1,,,,,,,,,0,,,65,42
56960,note_on,160,0,1,,,,,,,,,0,,,65,0
56960,note_on,0,0,1,,,,,,,,,0,,,62,42
57120,note_on,0,0,2,,,,,,,,,0,,,49,37
57120,note_on,381,0,2,,,,,,,,,0,,,50,0
57120,set_tempo,472,1,0,,,,,,315789,,,,,,,
57120,note_on,160,0,1,,,,,,,,,0,,,62,0
57120,note_on,0,0,1,,,,,,,,,0,,,65,45
57280,note_on,160,0,1,,,,,,,,,0,,,65,0
57280,note_on,0,0,1,,,,,,,,,0,,,61,45
57440,note_on,0,0,1,,,,,,,,,0,,,59,40
57440,note_on,160,0,1,,,,,,,,,0,,,61,0
57547,control_change,427,0,2,,,,,,,,,0,64,0,,
57600,set_tempo,480,1,0,,,,,,333333,,,,,,,
57600,note_on,160,0,1,,,,,,,,,0,,,59,0
57600,note_on,0,0,1,,,,,,,,,0,,,71,0
57600,control_change,0,0,2,,,,,,,,,0,64,127,,
57600,note_on,0,0,1,,,,,,,,,0,,,61,45
57600,note_on,0,0,2,,,,,,,,,0,,,44,0
57600,note_on,53,0,2,,,,,,,,,0,,,49,0
57600,note_on,0,0,2,,,,,,,,,0,,,46,44
57760,note_on,0,0,1,,,,,,,,,0,,,66,42
57760,note_on,160,0,1,,,,,,,,,0,,,61,0
57920,note_on,0,0,1,,,,,,,,,0,,,70,42
57920,note_on,160,0,1,,,,,,,,,0,,,66,0
58068,set_tempo,468,1,0,,,,,,315789,,,,,,,
58080,note_on,0,0,1,,,,,,,,,0,,,73,50
58080,note_on,160,0,1,,,,,,,,,0,,,70,0
58080,note_on,480,0,2,,,,,,,,,0,,,54,48
58126,control_change,46,0,2,,,,,,,,,0,64,0,,
58240,note_on,160,0,1,,,,,,,,,0,,,70,45
58400,note_on,160,0,1,,,,,,,,,0,,,70,0
58400,note_on,0,0,1,,,,,,,,,0,,,66,41
58560,note_on,0,0,1,,,,,,,,,0,,,65,44
58560,note_on,160,0,1,,,,,,,,,0,,,66,0
58720,note_on,0,0,1,,,,,,,,,0,,,66,42
58720,note_on,160,0,1,,,,,,,,,0,,,65,0
58880,note_on,160,0,1,,,,,,,,,0,,,66,0
58880,note_on,0,0,1,,,,,,,,,0,,,64,43
59040,set_tempo,972,1,0,,,,,,334262,,,,,,,
59040,note_on,914,0,2,,,,,,,,,0,,,46,0
59040,note_on,0,0,2,,,,,,,,,0,,,47,45
59040,note_on,160,0,1,,,,,,,,,0,,,64,0
59040,note_on,0,0,1,,,,,,,,,0,,,73,0
59040,note_on,0,0,1,,,,,,,,,0,,,63,44
59047,control_change,7,0,2,,,,,,,,,0,64,127,,
59200,note_on,0,0,1,,,,,,,,,0,,,68,44
59200,note_on,160,0,1,,,,,,,,,0,,,63,0
59360,note_on,160,0,1,,,,,,,,,0,,,68,0
59360,note_on,0,0,1,,,,,,,,,0,,,71,44
59520,note_on,160,0,1,,,,,,,,,0,,,71,0
59520,note_on,0,0,1,,,,,,,,,0,,,75,52
59520,note_on,473,0,2,,,,,,,,,0,,,54,0
59520,note_on,0,0,2,,,,,,,,,0,,,56,48
59528,set_tempo,488,1,0,,,,,,315789,,,,,,,
59587,control_change,67,0,2,,,,,,,,,0,64,0,,
59633,control_change,46,0,2,,,,,,,,,0,64,127,,
59680,note_on,160,0,1,,,,,,,,,0,,,71,43
59840,note_on,0,0,1,,,,,,,,,0,,,68,43
59840,note_on,160,0,1,,,,,,,,,0,,,71,0
60000,note_on,160,0,1,,,,,,,,,0,,,68,0
60000,note_on,0,0,1,,,,,,,,,0,,,67,45
60160,note_on,160,0,1,,,,,,,,,0,,,67,0
60160,note_on,0,0,1,,,,,,,,,0,,,68,44
60320,note_on,160,0,1,,,,,,,,,0,,,68,0
60320,note_on,0,0,1,,,,,,,,,0,,,66,44
60431,control_change,798,0,2,,,,,,,,,0,64,0,,
60480,note_on,49,0,2,,,,,,,,,0,,,47,0
60480,note_on,160,0,1,,,,,,,,,0,,,66,0
60480,note_on,0,0,1,,,,,,,,,0,,,65,45
60480,note_on,0,0,1,,,,,,,,,0,,,75,0
60480,note_on,0,0,2,,,,,,,,,0,,,49,48
60480,set_tempo,952,1,0,,,,,,333333,,,,,,,
60640,note_on,160,0,1,,,,,,,,,0,,,65,0
60640,note_on,0,0,1,,,,,,,,,0,,,66,45
60800,note_on,160,0,1,,,,,,,,,0,,,66,0
60800,note_on,0,0,1,,,,,,,,,0,,,67,43
60960,set_tempo,480,1,0,,,,,,300000,,,,,,,
60960,note_on,160,0,1,,,,,,,,,0,,,67,0
60960,note_on,0,0,2,,,,,,,,,0,,,59,42
60960,note_on,480,0,2,,,,,,,,,0,,,56,0
60960,note_on,0,0,1,,,,,,,,,0,,,68,45
61120,note_on,0,0,1,,,,,,,,,0,,,70,45
61120,note_on,160,0,1,,,,,,,,,0,,,68,0
61280,note_on,0,0,1,,,,,,,,,0,,,71,44
61280,note_on,160,0,1,,,,,,,,,0,,,70,0
61440,note_on,0,0,1,,,,,,,,,0,,,73,45
61440,note_on,160,0,1,,,,,,,,,0,,,71,0
61600,note_on,0,0,1,,,,,,,,,0,,,75,45
61600,note_on,160,0,1,,,,,,,,,0,,,73,0
61760,note_on,0,0,1,,,,,,,,,0,,,77,44
61760,note_on,160,0,1,,,,,,,,,0,,,75,0
61920,note_on,0,0,1,,,,,,,,,0,,,78,44
61920,note_on,160,0,1,,,,,,,,,0,,,77,0
61920,note_on,960,0,2,,,,,,,,,0,,,59,0
61920,note_on,0,0,2,,,,,,,,,0,,,58,48
61920,note_on,0,0,2,,,,,,,,,0,,,49,0
61920,set_tempo,960,1,0,,,,,,319149,,,,,,,
61920,note_on,0,0,2,,,,,,,,,0,,,54,36
62080,note_on,160,0,1,,,,,,,,,0,,,78,0
62080,note_on,0,0,1,,,,,,,,,0,,,82,50
62240,note_on,0,0,1,,,,,,,,,0,,,80,47
62240,note_on,160,0,1,,,,,,,,,0,,,82,0
62400,note_on,160,0,1,,,,,,,,,0,,,80,0
62400,note_on,0,0,1,,,,,,,,,0,,,78,46
62400,set_tempo,480,1,0,,,,,,300000,,,,,,,
62560,note_on,0,0,1,,,,,,,,,0,,,77,46
62560,note_on,160,0,1,,,,,,,,,0,,,78,0
62720,note_on,160,0,1,,,,,,,,,0,,,77,0
62720,note_on,0,0,1,,,,,,,,,0,,,75,45
62880,note_on,960,0,2,,,,,,,,,0,,,54,0
62880,note_on,0,0,2,,,,,,,,,0,,,58,0
62880,note_on,160,0,1,,,,,,,,,0,,,75,0
62880,note_on,0,0,1,,,,,,,,,0,,,73,45
63040,note_on,160,0,1,,,,,,,,,0,,,73,0
63040,note_on,0,0,1,,,,,,,,,0,,,71,45
63200,note_on,160,0,1,,,,,,,,,0,,,71,0
63200,note_on,0,0,1,,,,,,,,,0,,,70,44
63360,note_on,480,0,2,,,,,,,,,0,,,46,48
63360,note_on,160,0,1,,,,,,,,,0,,,70,0
63360,note_on,0,0,1,,,,,,,,,0,,,68,45
63368,set_tempo,968,1,0,,,,,,334262,,,,,,,
63520,note_on,160,0,1,,,,,,,,,0,,,68,0
63520,note_on,0,0,1,,,,,,,,,0,,,71,43
63680,note_on,160,0,1,,,,,,,,,0,,,71,0
63680,note_on,0,0,1,,,,,,,,,0,,,70,43
63840,note_on,480,0,2,,,,,,,,,0,,,59,37
63840,note_on,160,0,1,,,,,,,,,0,,,70,0
63840,note_on,0,0,1,,,,,,,,,0,,,68,43
63840,note_on,0,0,2,,,,,,,,,0,,,56,28
63840,note_on,0,0,2,,,,,,,,,0,,,53,28
63840,set_tempo,472,1,0,,,,,,300000,,,,,,,
64000,note_on,160,0,1,,,,,,,,,0,,,68,0
64000,note_on,0,0,1,,,,,,,,,0,,,66,42
64160,note_on,0,0,1,,,,,,,,,0,,,65,39
64160,note_on,160,0,1,,,,,,,,,0,,,66,0
64320,note_on,160,0,1,,,,,,,,,0,,,65,0
64320,note_on,0,0,1,,,,,,,,,0,,,63,45
64480,note_on,160,0,1,,,,,,,,,0,,,63,0
64480,note_on,0,0,1,,,,,,,,,0,,,62,37
64640,note_on,160,0,1,,,,,,,,,0,,,62,0
64640,note_on,0,0,1,,,,,,,,,0,,,65,37
64800,note_on,0,0,2,,,,,,,,,0,,,46,48
64800,note_on,0,0,2,,,,,,,,,0,,,56,0
64800,note_on,0,0,2,,,,,,,,,0,,,59,0
64800,note_on,0,0,2,,,,,,,,,0,,,46,0
64800,note_on,960,0,2,,,,,,,,,0,,,53,0
64800,note_on,160,0,1,,,,,,,,,0,,,65,0
64800,note_on,0,0,1,,,,,,,,,0,,,68,37
64808,set_tempo,968,1,0,,,,,,334262,,,,,,,
64960,note_on,160,0,1,,,,,,,,,0,,,68,0
64960,note_on,0,0,1,,,,,,,,,0,,,71,37
65120,note_on,160,0,1,,,,,,,,,0,,,71,0
65120,note_on,0,0,1,,,,,,,,,0,,,70,37
65268,set_tempo,460,1,0,,,,,,300000,,,,,,,
65280,note_on,0,0,1,,,,,,,,,0,,,68,37
65280,note_on,480,0,2,,,,,,,,,0,,,59,36
65280,note_on,0,0,2,,,,,,,,,0,,,53,27
65280,note_on,0,0,2,,,,,,,,,0,,,56,27
65280,note_on,160,0,1,,,,,,,,,0,,,70,0
65440,note_on,160,0,1,,,,,,,,,0,,,68,0
65440,note_on,0,0,1,,,,,,,,,0,,,66,37
65600,note_on,160,0,1,,,,,,,,,0,,,66,0
65600,note_on,0,0,1,,,,,,,,,0,,,65,37
65760,note_on,160,0,1,,,,,,,,,0,,,65,0
65760,note_on,0,0,1,,,,,,,,,0,,,63,45
65920,note_on,160,0,1,,,,,,,,,0,,,63,0
65920,note_on,0,0,1,,,,,,,,,0,,,62,37
66080,note_on,160,0,1,,,,,,,,,0,,,62,0
66080,note_on,0,0,1,,,,,,,,,0,,,65,37
66240,note_on,0,0,1,,,,,,,,,0,,,68,36
66240,note_on,160,0,1,,,,,,,,,0,,,65,0
66240,note_on,0,0,2,,,,,,,,,0,,,46,0
66240,note_on,0,0,2,,,,,,,,,0,,,59,0
66240,note_on,0,0,2,,,,,,,,,0,,,56,0
66240,note_on,0,0,2,,,,,,,,,0,,,46,48
66240,note_on,960,0,2,,,,,,,,,0,,,53,0
66248,set_tempo,980,1,0,,,,,,351906,,,,,,,
66400,note_on,0,0,1,,,,,,,,,0,,,71,36
66400,note_on,160,0,1,,,,,,,,,0,,,68,0
66560,note_on,160,0,1,,,,,,,,,0,,,71,0
66560,note_on,0,0,1,,,,,,,,,0,,,70,36
66720,note_on,160,0,1,,,,,,,,,0,,,70,0
66720,note_on,0,0,1,,,,,,,,,0,,,68,36
66720,set_tempo,472,1,0,,,,,,300000,,,,,,,
66720,note_on,0,0,2,,,,,,,,,0,,,56,27
66720,note_on,0,0,2,,,,,,,,,0,,,59,36
66720,note_on,480,0,2,,,,,,,,,0,,,53,27
66880,note_on,0,0,1,,,,,,,,,0,,,66,36
66880,note_on,160,0,1,,,,,,,,,0,,,68,0
67040,note_on,0,0,1,,,,,,,,,0,,,65,36
67040,note_on,160,0,1,,,,,,,,,0,,,66,0
67200,note_on,0,0,1,,,,,,,,,0,,,63,44
67200,note_on,160,0,1,,,,,,,,,0,,,65,0
67360,note_on,0,0,1,,,,,,,,,0,,,62,36
67360,note_on,160,0,1,,,,,,,,,0,,,63,0
67520,note_on,160,0,1,,,,,,,,,0,,,62,0
67520,note_on,0,0,1,,,,,,,,,0,,,65,36
67680,note_on,0,0,1,,,,,,,,,0,,,68,36
67680,note_on,160,0,1,,,,,,,,,0,,,65,0
67840,note_on,0,0,1,,,,,,,,,0,,,71,38
67840,note_on,160,0,1,,,,,,,,,0,,,68,0
68000,note_on,0,0,1,,,,,,,,,0,,,74,41
68000,note_on,160,0,1,,,,,,,,,0,,,71,0
68160,note_on,160,0,1,,,,,,,,,0,,,74,0
68160,note_on,0,0,1,,,,,,,,,0,,,71,44
68320,note_on,160,0,1,,,,,,,,,0,,,71,0
68320,note_on,0,0,1,,,,,,,,,0,,,74,45
68480,note_on,0,0,1,,,,,,,,,0,,,77,46
68480,note_on,160,0,1,,,,,,,,,0,,,74,0
68640,note_on,160,0,1,,,,,,,,,0,,,77,0
68640,note_on,0,0,1,,,,,,,,,0,,,74,48
68800,note_on,0,0,1,,,,,,,,,0,,,77,51
68800,note_on,160,0,1,,,,,,,,,0,,,74,0
68960,note_on,160,0,1,,,,,,,,,0,,,77,0
68960,note_on,0,0,1,,,,,,,,,0,,,78,52
69120,note_on,160,0,1,,,,,,,,,0,,,78,0
69120,note_on,0,0,2,,,,,,,,,0,,,58,48
69120,note_on,0,0,2,,,,,,,,,0,,,59,0
69120,note_on,0,0,2,,,,,,,,,0,,,53,0
69120,note_on,0,0,2,,,,,,,,,0,,,46,0
69120,note_on,0,0,1,,,,,,,,,0,,,80,56
69120,note_on,2400,0,2,,,,,,,,,0,,,56,0
69128,set_tempo,2408,1,0,,,,,,332410,,,,,,,
69280,note_on,0,0,1,,,,,,,,,0,,,83,54
69280,note_on,160,0,1,,,,,,,,,0,,,80,0
69440,note_on,0,0,1,,,,,,,,,0,,,82,54
69440,note_on,160,0,1,,,,,,,,,0,,,83,0
69588,set_tempo,460,1,0,,,,,,300000,,,,,,,
69600,note_on,0,0,2,,,,,,,,,0,,,65,27
69600,note_on,0,0,2,,,,,,,,,0,,,71,36
69600,note_on,480,0,2,,,,,,,,,0,,,68,27
69600,note_on,0,0,1,,,,,,,,,0,,,80,56
69600,note_on,160,0,1,,,,,,,,,0,,,82,0
69760,note_on,0,0,1,,,,,,,,,0,,,78,54
69760,note_on,160,0,1,,,,,,,,,0,,,80,0
69920,note_on,0,0,1,,,,,,,,,0,,,77,54
69920,note_on,160,0,1,,,,,,,,,0,,,78,0
70080,note_on,0,0,1,,,,,,,,,0,,,75,59
70080,note_on,160,0,1,,,,,,,,,0,,,77,0
70240,note_on,0,0,1,,,,,,,,,0,,,74,53
70240,note_on,160,0,1,,,,,,,,,0,,,75,0
70400,note_on,0,0,1,,,,,,,,,0,,,77,53
70400,note_on,160,0,1,,,,,,,,,0,,,74,0
70548,set_tempo,960,1,0,,,,,,333333,,,,,,,
70560,note_on,960,0,2,,,,,,,,,0,,,71,0
70560,note_on,0,0,1,,,,,,,,,0,,,80,53
70560,note_on,0,0,2,,,,,,,,,0,,,58,0
70560,note_on,160,0,1,,,,,,,,,0,,,77,0
70560,note_on,0,0,2,,,,,,,,,0,,,65,0
70560,note_on,0,0,2,,,,,,,,,0,,,68,0
70560,note_on,0,0,2,,,,,,,,,0,,,58,48
70720,note_on,160,0,1,,,,,,,,,0,,,80,0
70720,note_on,0,0,1,,,,,,,,,0,,,83,53
70880,note_on,160,0,1,,,,,,,,,0,,,83,0
70880,note_on,0,0,1,,,,,,,,,0,,,82,52
71040,set_tempo,492,1,0,,,,,,300000,,,,,,,
71040,note_on,480,0,2,,,,,,,,,0,,,71,36
71040,note_on,0,0,2,,,,,,,,,0,,,68,27
71040,note_on,0,0,2,,,,,,,,,0,,,65,27
71040,note_on,160,0,1,,,,,,,,,0,,,82,0
71040,note_on,0,0,1,,,,,,,,,0,,,80,53
71200,note_on,160,0,1,,,,,,,,,0,,,80,0
71200,note_on,0,0,1,,,,,,,,,0,,,78,51
71360,note_on,0,0,1,,,,,,,,,0,,,77,51
71360,note_on,160,0,1,,,,,,,,,0,,,78,0
71520,note_on,160,0,1,,,,,,,,,0,,,77,0
71520,note_on,0,0,1,,,,,,,,,0,,,75,58
71680,note_on,160,0,1,,,,,,,,,0,,,75,0
71680,note_on,0,0,1,,,,,,,,,0,,,74,54
71840,note_on,160,0,1,,,,,,,,,0,,,74,0
71840,note_on,0,0,1,,,,,,,,,0,,,77,54
72000,note_on,160,0,1,,,,,,,,,0,,,77,0
72000,note_on,0,0,1,,,,,,,,,0,,,80,54
72000,set_tempo,960,1,0,,,,,,293399,,,,,,,
72160,note_on,160,0,1,,,,,,,,,0,,,80,0
72160,note_on,0,0,1,,,,,,,,,0,,,83,54
72320,note_on,160,0,1,,,,,,,,,0,,,83,0
72320,note_on,0,0,1,,,,,,,,,0,,,80,57
72480,note_on,160,0,1,,,,,,,,,0,,,80,0
72480,note_on,0,0,1,,,,,,,,,0,,,83,59
72640,note_on,160,0,1,,,,,,,,,0,,,83,0
72640,note_on,0,0,1,,,,,,,,,0,,,80,60
72800,note_on,160,0,1,,,,,,,,,0,,,80,0
72800,note_on,0,0,1,,,,,,,,,0,,,83,63
72960,note_on,160,0,1,,,,,,,,,0,,,83,0
72960,note_on,0,0,1,,,,,,,,,0,,,80,64
73120,note_on,160,0,1,,,,,,,,,0,,,80,0
73120,note_on,0,0,1,,,,,,,,,0,,,83,67
73280,note_on,160,0,1,,,,,,,,,0,,,83,0
73280,note_on,0,0,1,,,,,,,,,0,,,80,68
73440,note_on,0,0,2,,,,,,,,,0,,,70,45
73440,note_on,2400,0,2,,,,,,,,,0,,,71,0
73440,note_on,160,0,1,,,,,,,,,0,,,80,0
73440,note_on,0,0,1,,,,,,,,,0,,,82,68
73440,set_tempo,1440,1,0,,,,,,315789,,,,,,,
73460,set_tempo,20,1,0,,,,,,293399,,,,,,,
73480,set_tempo,20,1,0,,,,,,294840,,,,,,,
73500,set_tempo,20,1,0,,,,,,296296,,,,,,,
73520,set_tempo,20,1,0,,,,,,297767,,,,,,,
73540,set_tempo,20,1,0,,,,,,299252,,,,,,,
73560,set_tempo,20,1,0,,,,,,300752,,,,,,,
73580,set_tempo,20,1,0,,,,,,302267,,,,,,,
73600,set_tempo,20,1,0,,,,,,303797,,,,,,,
73600,note_on,160,0,1,,,,,,,,,0,,,82,0
73600,note_on,0,0,1,,,,,,,,,0,,,80,63
73620,set_tempo,20,1,0,,,,,,306122,,,,,,,
73640,set_tempo,20,1,0,,,,,,307692,,,,,,,
73660,set_tempo,20,1,0,,,,,,309278,,,,,,,
73680,set_tempo,20,1,0,,,,,,310881,,,,,,,
73700,set_tempo,20,1,0,,,,,,312500,,,,,,,
73720,set_tempo,20,1,0,,,,,,314136,,,,,,,
73740,set_tempo,20,1,0,,,,,,315789,,,,,,,
73760,note_on,160,0,1,,,,,,,,,0,,,80,0
73760,set_tempo,20,1,0,,,,,,317460,,,,,,,
73760,note_on,0,0,1,,,,,,,,,0,,,82,59
73780,set_tempo,20,1,0,,,,,,320000,,,,,,,
73800,set_tempo,20,1,0,,,,,,321716,,,,,,,
73820,set_tempo,20,1,0,,,,,,323450,,,,,,,
73840,set_tempo,20,1,0,,,,,,325203,,,,,,,
73860,set_tempo,20,1,0,,,,,,326975,,,,,,,
73880,set_tempo,20,1,0,,,,,,328767,,,,,,,
73900,set_tempo,20,1,0,,,,,,330579,,,,,,,
73920,note_on,0,0,1,,,,,,,,,0,,,80,54
73920,note_on,160,0,1,,,,,,,,,0,,,82,0
73920,set_tempo,20,1,0,,,,,,333333,,,,,,,
73940,set_tempo,20,1,0,,,,,,335196,,,,,,,
73960,set_tempo,20,1,0,,,,,,337079,,,,,,,
73980,set_tempo,20,1,0,,,,,,338983,,,,,,,
74000,set_tempo,20,1,0,,,,,,340909,,,,,,,
74020,set_tempo,20,1,0,,,,,,342857,,,,,,,
74040,set_tempo,20,1,0,,,,,,344828,,,,,,,
74060,set_tempo,20,1,0,,,,,,346821,,,,,,,
74080,set_tempo,20,1,0,,,,,,349854,,,,,,,
74080,note_on,0,0,1,,,,,,,,,0,,,82,49
74080,note_on,160,0,1,,,,,,,,,0,,,80,0
74100,set_tempo,20,1,0,,,,,,351906,,,,,,,
74120,set_tempo,20,1,0,,,,,,353982,,,,,,,
74140,set_tempo,20,1,0,,,,,,356083,,,,,,,
74160,set_tempo,20,1,0,,,,,,358209,,,,,,,
74180,set_tempo,20,1,0,,,,,,360360,,,,,,,
74200,set_tempo,20,1,0,,,,,,362538,,,,,,,
74220,set_tempo,20,1,0,,,,,,364742,,,,,,,
74240,note_on,0,0,1,,,,,,,,,0,,,80,45
74240,set_tempo,20,1,0,,,,,,368098,,,,,,,
74240,note_on,160,0,1,,,,,,,,,0,,,82,0
74260,set_tempo,20,1,0,,,,,,370370,,,,,,,
74280,set_tempo,20,1,0,,,,,,372671,,,,,,,
74300,set_tempo,20,1,0,,,,,,375000,,,,,,,
74320,set_tempo,20,1,0,,,,,,377358,,,,,,,
74340,set_tempo,20,1,0,,,,,,379747,,,,,,,
74360,set_tempo,20,1,0,,,,,,382166,,,,,,,
74380,set_tempo,20,1,0,,,,,,385852,,,,,,,
74400,note_on,160,0,1,,,,,,,,,0,,,80,0
74400,note_on,0,0,1,,,,,,,,,0,,,82,40
74400,set_tempo,20,1,0,,,,,,388350,,,,,,,
74420,set_tempo,20,1,0,,,,,,390879,,,,,,,
74440,set_tempo,20,1,0,,,,,,393443,,,,,,,
74460,set_tempo,20,1,0,,,,,,396040,,,,,,,
74480,set_tempo,20,1,0,,,,,,398671,,,,,,,
74500,set_tempo,20,1,0,,,,,,401338,,,,,,,
74520,set_tempo,20,1,0,,,,,,404040,,,,,,,
74540,set_tempo,20,1,0,,,,,,408163,,,,,,,
74560,note_on,160,0,1,,,,,,,,,0,,,82,0
74560,note_on,0,0,1,,,,,,,,,0,,,80,36
74560,set_tempo,20,1,0,,,,,,410959,,,,,,,
74580,set_tempo,20,1,0,,,,,,413793,,,,,,,
74600,set_tempo,20,1,0,,,,,,416667,,,,,,,
74620,set_tempo,20,1,0,,,,,,419580,,,,,,,
74640,set_tempo,20,1,0,,,,,,422535,,,,,,,
74660,set_tempo,20,1,0,,,,,,425532,,,,,,,
74680,set_tempo,20,1,0,,,,,,428571,,,,,,,
74700,set_tempo,20,1,0,,,,,,433213,,,,,,,
74720,set_tempo,20,1,0,,,,,,436364,,,,,,,
74720,note_on,160,0,1,,,,,,,,,0,,,80,0
74720,note_on,0,0,1,,,,,,,,,0,,,82,30
74740,set_tempo,20,1,0,,,,,,439560,,,,,,,
74760,set_tempo,20,1,0,,,,,,442804,,,,,,,
74780,set_tempo,20,1,0,,,,,,446097,,,,,,,
74800,set_tempo,20,1,0,,,,,,449438,,,,,,,
74820,set_tempo,20,1,0,,,,,,452830,,,,,,,
74840,set_tempo,20,1,0,,,,,,458015,,,,,,,
74860,set_tempo,20,1,0,,,,,,461538,,,,,,,
74880,note_on,1440,0,2,,,,,,,,,0,,,70,0
74880,note_on,0,0,2,,,,,,,,,0,,,65,0
74880,note_on,0,0,2,,,,,,,,,0,,,68,0
74880,control_change,0,0,1,,,,,,,,,0,91,126,,
74880,note_on,160,0,1,,,,,,,,,0,,,82,0
74880,note_on,0,0,1,,,,,,,,,0,,,79,54
74880,note_on,0,0,2,,,,,,,,,0,,,51,45
74880,note_on,0,0,2,,,,,,,,,0,,,58,0
74880,set_tempo,20,1,0,,,,,,353982,,,,,,,
74888,set_tempo,8,1,0,,,,,,375000,,,,,,,
74888,control_change,8,0,2,,,,,,,,,0,91,126,,
75040,note_on,160,0,1,,,,,,,,,0,,,79,0
75040,note_on,0,0,1,,,,,,,,,0,,,82,50
75200,note_on,0,0,1,,,,,,,,,0,,,80,48
75200,note_on,160,0,1,,,,,,,,,0,,,82,0
75360,note_on,0,0,1,,,,,,,,,0,,,79,54
75360,set_tempo,472,1,0,,,,,,300000,,,,,,,
75360,note_on,160,0,1,,,,,,,,,0,,,80,0
75360,note_on,472,0,2,,,,,,,,,0,,,58,36
75520,note_on,160,0,1,,,,,,,,,0,,,79,0
75520,note_on,0,0,1,,,,,,,,,0,,,77,51
75680,note_on,160,0,1,,,,,,,,,0,,,77,0
75680,note_on,0,0,1,,,,,,,,,0,,,75,48
75840,note_on,0,0,1,,,,,,,,,0,,,74,54
75840,note_on,160,0,1,,,,,,,,,0,,,75,0
76000,note_on,0,0,1,,,,,,,,,0,,,72,52
76000,note_on,160,0,1,,,,,,,,,0,,,74,0
76160,note_on,0,0,1,,,,,,,,,0,,,70,51
76160,note_on,160,0,1,,,,,,,,,0,,,72,0
76320,note_on,160,0,1,,,,,,,,,0,,,70,0
76320,note_on,0,0,1,,,,,,,,,0,,,68,54
76320,note_on,960,0,2,,,,,,,,,0,,,58,0
76320,note_on,0,0,2,,,,,,,,,0,,,51,0
76320,note_on,0,0,2,,,,,,,,,0,,,53,46
76320,set_tempo,960,1,0,,,,,,309278,,,,,,,
76480,note_on,160,0,1,,,,,,,,,0,,,68,0
76480,note_on,0,0,1,,,,,,,,,0,,,67,52
76640,note_on,160,0,1,,,,,,,,,0,,,67,0
76640,note_on,0,0,1,,,,,,,,,0,,,65,49
76800,set_tempo,480,1,0,,,,,,300000,,,,,,,
76800,note_on,480,0,2,,,,,,,,,0,,,58,35
76800,note_on,160,0,1,,,,,,,,,0,,,65,0
76800,note_on,0,0,1,,,,,,,,,0,,,63,54
76960,note_on,160,0,1,,,,,,,,,0,,,63,0
76960,note_on,0,0,1,,,,,,,,,0,,,62,51
77120,note_on,0,0,1,,,,,,,,,0,,,60,51
77120,note_on,160,0,1,,,,,,,,,0,,,62,0
77280,note_on,160,0,1,,,,,,,,,0,,,60,0
77280,note_on,0,0,1,,,,,,,,,0,,,58,54
77440,note_on,160,0,1,,,,,,,,,0,,,58,0
77440,note_on,0,0,1,,,,,,,,,0,,,60,52
77600,note_on,0,0,1,,,,,,,,,0,,,62,51
77600,note_on,160,0,1,,,,,,,,,0,,,60,0
77760,set_tempo,960,1,0,,,,,,305344,,,,,,,
77760,note_on,960,0,2,,,,,,,,,0,,,58,0
77760,note_on,160,0,1,,,,,,,,,0,,,62,0
77760,note_on,0,0,1,,,,,,,,,0,,,63,54
77760,note_on,0,0,2,,,,,,,,,0,,,55,45
77760,note_on,0,0,2,,,,,,,,,0,,,53,0
77920,note_on,160,0,1,,,,,,,,,0,,,63,0
77920,note_on,0,0,1,,,,,,,,,0,,,62,52
78080,note_on,160,0,1,,,,,,,,,0,,,62,0
78080,note_on,0,0,1,,,,,,,,,0,,,63,49
78240,note_on,0,0,1,,,,,,,,,0,,,64,56
78240,set_tempo,480,1,0,,,,,,300000,,,,,,,
78240,note_on,480,0,2,,,,,,,,,0,,,58,34
78240,note_on,160,0,1,,,,,,,,,0,,,63,0
78400,note_on,160,0,1,,,,,,,,,0,,,64,0
78400,note_on,0,0,1,,,,,,,,,0,,,63,55
78560,note_on,0,0,1,,,,,,,,,0,,,64,51
78560,note_on,160,0,1,,,,,,,,,0,,,63,0
78720,note_on,0,0,1,,,,,,,,,0,,,65,61
78720,note_on,160,0,1,,,,,,,,,0,,,64,0
78880,note_on,160,0,1,,,,,,,,,0,,,65,0
78880,note_on,0,0,1,,,,,,,,,0,,,64,57
79040,note_on,0,0,1,,,,,,,,,0,,,65,52
79040,note_on,160,0,1,,,,,,,,,0,,,64,0
79200,note_on,0,0,1,,,,,,,,,0,,,66,64
79200,set_tempo,960,1,0,,,,,,304569,,,,,,,
79200,note_on,160,0,1,,,,,,,,,0,,,65,0
79200,note_on,960,0,2,,,,,,,,,0,,,58,0
79200,note_on,0,0,2,,,,,,,,,0,,,55,0
79200,note_on,0,0,2,,,,,,,,,0,,,50,48
79360,note_on,160,0,1,,,,,,,,,0,,,66,0
79360,note_on,0,0,1,,,,,,,,,0,,,65,58
79520,note_on,160,0,1,,,,,,,,,0,,,65,0
79520,note_on,0,0,1,,,,,,,,,0,,,66,54
79680,note_on,0,0,1,,,,,,,,,0,,,67,63
79680,note_on,160,0,1,,,,,,,,,0,,,66,0
79680,note_on,480,0,2,,,,,,,,,0,,,58,36
79680,set_tempo,480,1,0,,,,,,300000,,,,,,,
79840,note_on,160,0,1,,,,,,,,,0,,,67,0
79840,note_on,0,0,1,,,,,,,,,0,,,66,58
80000,note_on,160,0,1,,,,,,,,,0,,,66,0
80000,note_on,0,0,1,,,,,,,,,0,,,67,54
80160,note_on,160,0,1,,,,,,,,,0,,,67,0
80160,note_on,0,0,1,,,,,,,,,0,,,68,54
80320,note_on,0,0,1,,,,,,,,,0,,,67,51
80320,note_on,160,0,1,,,,,,,,,0,,,68,0
80480,note_on,0,0,1,,,,,,,,,0,,,68,51
80480,note_on,160,0,1,,,,,,,,,0,,,67,0
80640,note_on,960,0,2,,,,,,,,,0,,,58,0
80640,note_on,0,0,2,,,,,,,,,0,,,51,45
80640,note_on,0,0,1,,,,,,,,,0,,,67,54
80640,note_on,160,0,1,,,,,,,,,0,,,68,0
80640,set_tempo,960,1,0,,,,,,308483,,,,,,,
80640,note_on,0,0,2,,,,,,,,,0,,,50,0
80800,note_on,0,0,1,,,,,,,,,0,,,70,54
80800,note_on,160,0,1,,,,,,,,,0,,,67,0
80960,note_on,0,0,1,,,,,,,,,0,,,68,51
80960,note_on,160,0,1,,,,,,,,,0,,,70,0
81120,set_tempo,480,1,0,,,,,,300000,,,,,,,
81120,note_on,160,0,1,,,,,,,,,0,,,68,0
81120,note_on,0,0,1,,,,,,,,,0,,,67,54
81120,note_on,480,0,2,,,,,,,,,0,,,58,41
81280,note_on,160,0,1,,,,,,,,,0,,,67,0
81280,note_on,0,0,1,,,,,,,,,0,,,68,50
81440,note_on,160,0,1,,,,,,,,,0,,,68,0
81440,note_on,0,0,1,,,,,,,,,0,,,70,48
81600,note_on,160,0,1,,,,,,,,,0,,,70,0
81600,note_on,0,0,1,,,,,,,,,0,,,72,54
81760,note_on,160,0,1,,,,,,,,,0,,,72,0
81760,note_on,0,0,1,,,,,,,,,0,,,74,51
81920,note_on,160,0,1,,,,,,,,,0,,,74,0
81920,note_on,0,0,1,,,,,,,,,0,,,75,49
82080,note_on,0,0,1,,,,,,,,,0,,,77,56
82080,note_on,160,0,1,,,,,,,,,0,,,75,0
82080,note_on,960,0,2,,,,,,,,,0,,,58,0
82080,note_on,0,0,2,,,,,,,,,0,,,51,0
82080,note_on,0,0,2,,,,,,,,,0,,,44,46
82080,set_tempo,960,1,0,,,,,,320856,,,,,,,
82240,note_on,0,0,1,,,,,,,,,0,,,84,56
82240,note_on,160,0,1,,,,,,,,,0,,,77,0
82400,note_on,0,0,1,,,,,,,,,0,,,82,52
82400,note_on,160,0,1,,,,,,,,,0,,,84,0
82560,set_tempo,480,1,0,,,,,,300000,,,,,,,
82560,note_on,0,0,2,,,,,,,,,0,,,60,36
82560,note_on,480,0,2,,,,,,,,,0,,,44,0
82560,note_on,160,0,1,,,,,,,,,0,,,82,0
82560,note_on,0,0,2,,,,,,,,,0,,,56,27
82560,note_on,0,0,1,,,,,,,,,0,,,80,57
82720,note_on,160,0,1,,,,,,,,,0,,,80,0
82720,note_on,0,0,1,,,,,,,,,0,,,79,54
82880,note_on,0,0,1,,,,,,,,,0,,,77,51
82880,note_on,160,0,1,,,,,,,,,0,,,79,0
83040,note_on,0,0,1,,,,,,,,,0,,,75,54
83040,note_on,160,0,1,,,,,,,,,0,,,77,0
83200,note_on,0,0,1,,,,,,,,,0,,,74,51
83200,note_on,160,0,1,,,,,,,,,0,,,75,0
83360,note_on,160,0,1,,,,,,,,,0,,,74,0
83360,note_on,0,0,1,,,,,,,,,0,,,72,51
83520,note_on,0,0,2,,,,,,,,,0,,,60,0
83520,note_on,960,0,2,,,,,,,,,0,,,56,0
83520,note_on,0,0,1,,,,,,,,,0,,,74,52
83520,note_on,0,0,2,,,,,,,,,0,,,46,45
83520,note_on,160,0,1,,,,,,,,,0,,,72,0
83520,set_tempo,960,1,0,,,,,,308483,,,,,,,
83680,note_on,0,0,1,,,,,,,,,0,,,77,52
83680,note_on,160,0,1,,,,,,,,,0,,,74,0
83840,note_on,160,0,1,,,,,,,,,0,,,77,0
83840,note_on,0,0,1,,,,,,,,,0,,,75,52
84000,set_tempo,480,1,0,,,,,,300000,,,,,,,
84000,note_on,0,0,2,,,,,,,,,0,,,58,26
84000,note_on,0,0,2,,,,,,,,,0,,,56,26
84000,note_on,0,0,2,,,,,,,,,0,,,65,35
84000,note_on,0,0,1,,,,,,,,,0,,,74,55
84000,note_on,160,0,1,,,,,,,,,0,,,75,0
84000,note_on,480,0,2,,,,,,,,,0,,,46,0
84160,note_on,0,0,1,,,,,,,,,0,,,75,56
84160,note_on,160,0,1,,,,,,,,,0,,,74,0
84320,note_on,160,0,1,,,,,,,,,0,,,75,0
84320,note_on,0,0,1,,,,,,,,,0,,,77,54
84480,note_on,160,0,1,,,,,,,,,0,,,77,0
84480,note_on,0,0,1,,,,,,,,,0,,,79,59
84640,note_on,160,0,1,,,,,,,,,0,,,79,0
84640,note_on,0,0,1,,,,,,,,,0,,,80,57
84800,note_on,0,0,1,,,,,,,,,0,,,82,57
84800,note_on,160,0,1,,,,,,,,,0,,,80,0
84960,note_on,960,0,2,,,,,,,,,0,,,58,0
84960,set_tempo,960,1,0,,,,,,308483,,,,,,,
84960,note_on,160,0,1,,,,,,,,,0,,,82,0
84960,note_on,0,0,2,,,,,,,,,0,,,51,53
84960,note_on,0,0,2,,,,,,,,,0,,,56,0
84960,note_on,0,0,2,,,,,,,,,0,,,65,0
84960,note_on,0,0,1,,,,,,,,,0,,,75,62
85120,note_on,0,0,1,,,,,,,,,0,,,77,63
85120,note_on,160,0,1,,,,,,,,,0,,,75,0
85280,note_on,0,0,1,,,,,,,,,0,,,79,63
85280,note_on,160,0,1,,,,,,,,,0,,,77,0
85440,note_on,0,0,1,,,,,,,,,0,,,80,65
85440,note_on,160,0,1,,,,,,,,,0,,,79,0
85440,note_on,0,0,2,,,,,,,,,0,,,58,34
85440,note_on,480,0,2,,,,,,,,,0,,,51,0
85440,note_on,0,0,2,,,,,,,,,0,,,63,45
85440,note_on,0,0,2,,,,,,,,,0,,,55,34
85440,set_tempo,480,1,0,,,,,,300000,,,,,,,
85600,note_on,160,0,1,,,,,,,,,0,,,80,0
85600,note_on,0,0,1,,,,,,,,,0,,,82,66
85760,note_on,0,0,1,,,,,,,,,0,,,84,64
85760,note_on,160,0,1,,,,,,,,,0,,,82,0
85920,note_on,0,0,1,,,,,,,,,0,,,86,68
85920,note_on,160,0,1,,,,,,,,,0,,,84,0
86080,note_on,160,0,1,,,,,,,,,0,,,86,0
86080,note_on,0,0,1,,,,,,,,,0,,,87,69
86240,note_on,160,0,1,,,,,,,,,0,,,87,0
86240,note_on,0,0,1,,,,,,,,,0,,,89,66
86400,note_on,0,0,2,,,,,,,,,0,,,55,0
86400,note_on,160,0,1,,,,,,,,,0,,,89,0
86400,note_on,0,0,1,,,,,,,,,0,,,91,72
86400,set_tempo,960,1,0,,,,,,334262,,,,,,,
86400,note_on,960,0,2,,,,,,,,,0,,,58,0
86400,note_on,0,0,2,,,,,,,,,0,,,51,52
86400,note_on,0,0,2,,,,,,,,,0,,,63,0
86560,note_on,160,0,1,,,,,,,,,0,,,91,0
86560,note_on,0,0,1,,,,,,,,,0,,,94,69
86720,note_on,160,0,1,,,,,,,,,0,,,94,0
86720,note_on,0,0,1,,,,,,,,,0,,,92,65
86880,note_on,480,0,2,,,,,,,,,0,,,58,45
86880,note_on,160,0,1,,,,,,,,,0,,,92,0
86880,note_on,0,0,1,,,,,,,,,0,,,91,72
86880,set_tempo,480,1,0,,,,,,300752,,,,,,,
87040,note_on,160,0,1,,,,,,,,,0,,,91,0
87040,note_on,0,0,1,,,,,,,,,0,,,89,68
87200,note_on,160,0,1,,,,,,,,,0,,,89,0
87200,note_on,0,0,1,,,,,,,,,0,,,87,67
87360,note_on,0,0,1,,,,,,,,,0,,,86,72
87360,note_on,160,0,1,,,,,,,,,0,,,87,0
87520,note_on,160,0,1,,,,,,,,,0,,,86,0
87520,note_on,0,0,1,,,,,,,,,0,,,84,65
87680,note_on,160,0,1,,,,,,,,,0,,,84,0
87680,note_on,0,0,1,,,,,,,,,0,,,82,62
87840,note_on,160,0,1,,,,,,,,,0,,,82,0
87840,note_on,0,0,2,,,,,,,,,0,,,53,48
87840,set_tempo,960,1,0,,,,,,306905,,,,,,,
87840,note_on,0,0,2,,,,,,,,,0,,,51,0
87840,note_on,960,0,2,,,,,,,,,0,,,58,0
87840,note_on,0,0,1,,,,,,,,,0,,,80,72
88000,note_on,0,0,1,,,,,,,,,0,,,79,69
88000,note_on,160,0,1,,,,,,,,,0,,,80,0
88160,note_on,160,0,1,,,,,,,,,0,,,79,0
88160,note_on,0,0,1,,,,,,,,,0,,,77,68
88320,note_on,160,0,1,,,,,,,,,0,,,77,0
88320,note_on,0,0,1,,,,,,,,,0,,,75,66
88320,set_tempo,480,1,0,,,,,,300000,,,,,,,
88320,note_on,480,0,2,,,,,,,,,0,,,58,36
88480,note_on,160,0,1,,,,,,,,,0,,,75,0
88480,note_on,0,0,1,,,,,,,,,0,,,74,64
88640,note_on,160,0,1,,,,,,,,,0,,,74,0
88640,note_on,0,0,1,,,,,,,,,0,,,72,62
88800,note_on,160,0,1,,,,,,,,,0,,,72,0
88800,note_on,0,0,1,,,,,,,,,0,,,70,60
88960,note_on,160,0,1,,,,,,,,,0,,,70,0
88960,note_on,0,0,1,,,,,,,,,0,,,72,58
89120,note_on,0,0,1,,,,,,,,,0,,,74,56
89120,note_on,160,0,1,,,,,,,,,0,,,72,0
89280,note_on,0,0,1,,,,,,,,,0,,,75,54
89280,note_on,160,0,1,,,,,,,,,0,,,74,0
89280,note_on,0,0,2,,,,,,,,,0,,,53,0
89280,note_on,960,0,2,,,,,,,,,0,,,58,0
89280,note_on,0,0,2,,,,,,,,,0,,,55,48
89280,set_tempo,960,1,0,,,,,,307692,,,,,,,
89440,note_on,0,0,1,,,,,,,,,0,,,74,54
89440,note_on,160,0,1,,,,,,,,,0,,,75,0
89600,note_on,0,0,1,,,,,,,,,0,,,75,54
89600,note_on,160,0,1,,,,,,,,,0,,,74,0
89760,note_on,0,0,1,,,,,,,,,0,,,76,58
89760,note_on,480,0,2,,,,,,,,,0,,,58,36
89760,set_tempo,480,1,0,,,,,,300000,,,,,,,
89760,note_on,160,0,1,,,,,,,,,0,,,75,0
89920,note_on,0,0,1,,,,,,,,,0,,,75,55
89920,note_on,160,0,1,,,,,,,,,0,,,76,0
90080,note_on,0,0,1,,,,,,,,,0,,,76,55
90080,note_on,160,0,1,,,,,,,,,0,,,75,0
90240,note_on,0,0,1,,,,,,,,,0,,,77,60
90240,note_on,160,0,1,,,,,,,,,0,,,76,0
90400,note_on,0,0,1,,,,,,,,,0,,,76,56
90400,note_on,160,0,1,,,,,,,,,0,,,77,0
90560,note_on,160,0,1,,,,,,,,,0,,,76,0
90560,note_on,0,0,1,,,,,,,,,0,,,77,55
90720,note_on,160,0,1,,,,,,,,,0,,,77,0
90720,set_tempo,960,1,0,,,,,,325203,,,,,,,
90720,note_on,0,0,1,,,,,,,,,0,,,78,63
90720,note_on,0,0,2,,,,,,,,,0,,,50,51
90720,note_on,0,0,2,,,,,,,,,0,,,55,0
90720,note_on,960,0,2,,,,,,,,,0,,,58,0
90880,note_on,0,0,1,,,,,,,,,0,,,77,58
90880,note_on,160,0,1,,,,,,,,,0,,,78,0
91040,note_on,160,0,1,,,,,,,,,0,,,77,0
91040,note_on,0,0,1,,,,,,,,,0,,,78,58
91200,note_on,160,0,1,,,,,,,,,0,,,78,0
91200,set_tempo,480,1,0,,,,,,300000,,,,,,,
91200,note_on,0,0,1,,,,,,,,,0,,,79,63
91200,note_on,480,0,2,,,,,,,,,0,,,58,39
91360,note_on,160,0,1,,,,,,,,,0,,,79,0
91360,note_on,0,0,1,,,,,,,,,0,,,78,57
91520,note_on,160,0,1,,,,,,,,,0,,,78,0
91520,note_on,0,0,1,,,,,,,,,0,,,79,57
91680,note_on,0,0,1,,,,,,,,,0,,,80,57
91680,note_on,160,0,1,,,,,,,,,0,,,79,0
91840,note_on,0,0,1,,,,,,,,,0,,,79,54
91840,note_on,160,0,1,,,,,,,,,0,,,80,0
92000,note_on,160,0,1,,,,,,,,,0,,,79,0
92000,note_on,0,0,1,,,,,,,,,0,,,80,54
92160,note_on,160,0,1,,,,,,,,,0,,,80,0
92160,note_on,0,0,1,,,,,,,,,0,,,79,54
92160,set_tempo,960,1,0,,,,,,303030,,,,,,,
92160,note_on,0,0,2,,,,,,,,,0,,,49,50
92160,note_on,0,0,2,,,,,,,,,0,,,50,0
92160,note_on,960,0,2,,,,,,,,,0,,,58,0
92320,note_on,160,0,1,,,,,,,,,0,,,79,0
92320,note_on,0,0,1,,,,,,,,,0,,,78,54
92480,note_on,160,0,1,,,,,,,,,0,,,78,0
92480,note_on,0,0,1,,,,,,,,,0,,,79,54
92640,note_on,160,0,1,,,,,,,,,0,,,79,0
92640,note_on,0,0,1,,,,,,,,,0,,,80,56
92640,set_tempo,480,1,0,,,,,,300000,,,,,,,
92640,note_on,0,0,2,,,,,,,,,0,,,58,43
92640,note_on,480,0,2,,,,,,,,,0,,,51,32
92800,note_on,160,0,1,,,,,,,,,0,,,80,0
92800,note_on,0,0,1,,,,,,,,,0,,,79,57
92960,note_on,160,0,1,,,,,,,,,0,,,79,0
92960,note_on,0,0,1,,,,,,,,,0,,,80,54
93120,note_on,0,0,1,,,,,,,,,0,,,82,59
93120,note_on,160,0,1,,,,,,,,,0,,,80,0
93280,note_on,160,0,1,,,,,,,,,0,,,82,0
93280,note_on,0,0,1,,,,,,,,,0,,,80,60
93440,note_on,160,0,1,,,,,,,,,0,,,80,0
93440,note_on,0,0,1,,,,,,,,,0,,,82,58
93600,note_on,0,0,2,,,,,,,,,0,,,48,69
93600,note_on,0,0,2,,,,,,,,,0,,,49,0
93600,note_on,0,0,2,,,,,,,,,0,,,51,0
93600,note_on,960,0,2,,,,,,,,,0,,,58,0
93600,set_tempo,960,1,0,,,,,,306122,,,,,,,
93600,note_on,160,0,1,,,,,,,,,0,,,82,0
93600,note_on,0,0,1,,,,,,,,,0,,,80,63
93760,note_on,160,0,1,,,,,,,,,0,,,80,0
93760,note_on,0,0,1,,,,,,,,,0,,,79,63
93920,note_on,160,0,1,,,,,,,,,0,,,79,0
93920,note_on,0,0,1,,,,,,,,,0,,,80,59
94080,set_tempo,480,1,0,,,,,,300000,,,,,,,
94080,note_on,0,0,2,,,,,,,,,0,,,56,46
94080,note_on,480,0,2,,,,,,,,,0,,,51,34
94080,note_on,160,0,1,,,,,,,,,0,,,80,0
94080,note_on,0,0,1,,,,,,,,,0,,,82,65
94240,note_on,160,0,1,,,,,,,,,0,,,82,0
94240,note_on,0,0,1,,,,,,,,,0,,,80,66
94400,note_on,160,0,1,,,,,,,,,0,,,80,0
94400,note_on,0,0,1,,,,,,,,,0,,,82,61
94560,note_on,0,0,1,,,,,,,,,0,,,84,68
94560,note_on,160,0,1,,,,,,,,,0,,,82,0
94720,note_on,0,0,1,,,,,,,,,0,,,83,67
94720,note_on,160,0,1,,,,,,,,,0,,,84,0
94880,note_on,0,0,1,,,,,,,,,0,,,84,67
94880,note_on,160,0,1,,,,,,,,,0,,,83,0
95040,note_on,0,0,2,,,,,,,,,0,,,51,0
95040,note_on,960,0,2,,,,,,,,,0,,,56,0
95040,note_on,0,0,2,,,,,,,,,0,,,48,0
95040,note_on,0,0,2,,,,,,,,,0,,,48,79
95040,set_tempo,960,1,0,,,,,,305344,,,,,,,
95040,note_on,0,0,1,,,,,,,,,0,,,86,72
95040,note_on,160,0,1,,,,,,,,,0,,,84,0
95200,note_on,160,0,1,,,,,,,,,0,,,86,0
95200,note_on,0,0,1,,,,,,,,,0,,,85,70
95360,note_on,160,0,1,,,,,,,,,0,,,85,0
95360,note_on,0,0,1,,,,,,,,,0,,,86,70
95520,note_on,160,0,1,,,,,,,,,0,,,86,0
95520,note_on,480,0,2,,,,,,,,,0,,,57,49
95520,note_on,0,0,2,,,,,,,,,0,,,50,37
95520,note_on,0,0,1,,,,,,,,,0,,,88,74
95520,set_tempo,480,1,0,,,,,,300000,,,,,,,
95680,note_on,0,0,1,,,,,,,,,0,,,86,73
95680,note_on,160,0,1,,,,,,,,,0,,,88,0
95840,note_on,0,0,1,,,,,,,,,0,,,88,69
95840,note_on,160,0,1,,,,,,,,,0,,,86,0
96000,note_on,160,0,1,,,,,,,,,0,,,88,0
96000,note_on,0,0,1,,,,,,,,,0,,,90,77
96160,note_on,160,0,1,,,,,,,,,0,,,90,0
96160,note_on,0,0,1,,,,,,,,,0,,,88,76
96320,note_on,160,0,1,,,,,,,,,0,,,88,0
96320,note_on,0,0,1,,,,,,,,,0,,,90,73
96480,set_tempo,960,1,0,,,,,,306905,,,,,,,
96480,note_on,160,0,1,,,,,,,,,0,,,90,0
96480,note_on,0,0,1,,,,,,,,,0,,,91,81
96480,note_on,0,0,2,,,,,,,,,0,,,48,0
96480,note_on,0,0,2,,,,,,,,,0,,,47,81
96480,note_on,0,0,2,,,,,,,,,0,,,57,0
96480,note_on,960,0,2,,,,,,,,,0,,,50,0
96640,note_on,0,0,1,,,,,,,,,0,,,90,81
96640,note_on,160,0,1,,,,,,,,,0,,,91,0
96800,note_on,160,0,1,,,,,,,,,0,,,90,0
96800,note_on,0,0,1,,,,,,,,,0,,,91,76
96960,note_on,0,0,1,,,,,,,,,0,,,93,83
96960,note_on,160,0,1,,,,,,,,,0,,,91,0
96960,note_on,0,0,2,,,,,,,,,0,,,55,47
96960,set_tempo,480,1,0,,,,,,300000,,,,,,,
96960,note_on,480,0,2,,,,,,,,,0,,,50,35
97120,note_on,0,0,1,,,,,,,,,0,,,91,82
97120,note_on,160,0,1,,,,,,,,,0,,,93,0
97280,note_on,0,0,1,,,,,,,,,0,,,93,78
97280,note_on,160,0,1,,,,,,,,,0,,,91,0
97440,note_on,0,0,1,,,,,,,,,0,,,95,86
97440,note_on,160,0,1,,,,,,,,,0,,,93,0
97600,note_on,0,0,1,,,,,,,,,0,,,93,85
97600,note_on,160,0,1,,,,,,,,,0,,,95,0
97760,note_on,0,0,1,,,,,,,,,0,,,95,81
97760,note_on,160,0,1,,,,,,,,,0,,,93,0
97920,note_on,0,0,1,,,,,,,,,0,,,96,90
97920,note_on,160,0,1,,,,,,,,,0,,,95,0
97920,set_tempo,960,1,0,,,,,,306122,,,,,,,
97920,note_on,0,0,2,,,,,,,,,0,,,50,0
97920,note_on,0,0,2,,,,,,,,,0,,,47,0
97920,note_on,0,0,2,,,,,,,,,0,,,46,80
97920,note_on,960,0,2,,,,,,,,,0,,,55,0
98080,note_on,0,0,1,,,,,,,,,0,,,95,86
98080,note_on,160,0,1,,,,,,,,,0,,,96,0
98240,note_on,0,0,1,,,,,,,,,0,,,96,82
98240,note_on,160,0,1,,,,,,,,,0,,,95,0
98400,set_tempo,480,1,0,,,,,,300000,,,,,,,
98400,note_on,0,0,1,,,,,,,,,0,,,98,90
98400,note_on,480,0,2,,,,,,,,,0,,,48,38
98400,note_on,0,0,2,,,,,,,,,0,,,55,51
98400,note_on,160,0,1,,,,,,,,,0,,,96,0
98560,note_on,0,0,1,,,,,,,,,0,,,96,86
98560,note_on,160,0,1,,,,,,,,,0,,,98,0
98720,note_on,160,0,1,,,,,,,,,0,,,96,0
98720,note_on,0,0,1,,,,,,,,,0,,,98,82
98880,note_on,160,0,1,,,,,,,,,0,,,98,0
98880,note_on,0,0,1,,,,,,,,,0,,,100,90
99040,note_on,160,0,1,,,,,,,,,0,,,100,0
99040,note_on,0,0,1,,,,,,,,,0,,,98,87
99200,note_on,160,0,1,,,,,,,,,0,,,98,0
99200,note_on,0,0,1,,,,,,,,,0,,,100,82
99360,note_on,0,0,2,,,,,,,,,0,,,46,0
99360,set_tempo,960,1,0,,,,,,320856,,,,,,,
99360,note_on,960,0,2,,,,,,,,,0,,,55,0
99360,note_on,0,0,1,,,,,,,,,0,,,101,90
99360,note_on,0,0,2,,,,,,,,,0,,,48,0
99360,note_on,0,0,2,,,,,,,,,0,,,44,80
99360,note_on,160,0,1,,,,,,,,,0,,,100,0
99520,note_on,160,0,1,,,,,,,,,0,,,101,0
99520,note_on,0,0,1,,,,,,,,,0,,,99,82
99680,note_on,160,0,1,,,,,,,,,0,,,99,0
99680,note_on,0,0,1,,,,,,,,,0,,,97,78
99840,note_on,0,0,1,,,,,,,,,0,,,96,90
99840,note_on,160,0,1,,,,,,,,,0,,,97,0
99840,note_on,480,0,2,,,,,,,,,0,,,48,38
99840,note_on,0,0,2,,,,,,,,,0,,,53,50
99840,set_tempo,480,1,0,,,,,,300000,,,,,,,
100000,note_on,160,0,1,,,,,,,,,0,,,96,0
100000,note_on,0,0,1,,,,,,,,,0,,,94,83
100160,note_on,160,0,1,,,,,,,,,0,,,94,0
100160,note_on,0,0,1,,,,,,,,,0,,,92,80
100320,note_on,160,0,1,,,,,,,,,0,,,92,0
100320,note_on,0,0,1,,,,,,,,,0,,,91,90
100480,note_on,160,0,1,,,,,,,,,0,,,91,0
100480,note_on,0,0,1,,,,,,,,,0,,,89,83
100640,note_on,0,0,1,,,,,,,,,0,,,87,79
100640,note_on,160,0,1,,,,,,,,,0,,,89,0
100800,set_tempo,960,1,0,,,,,,305344,,,,,,,
100800,note_on,0,0,1,,,,,,,,,0,,,86,90
100800,note_on,160,0,1,,,,,,,,,0,,,87,0
100800,note_on,0,0,2,,,,,,,,,0,,,46,79
100800,note_on,960,0,2,,,,,,,,,0,,,53,0
100800,note_on,0,0,2,,,,,,,,,0,,,48,0
100800,note_on,0,0,2,,,,,,,,,0,,,44,0
100960,note_on,160,0,1,,,,,,,,,0,,,86,0
100960,note_on,0,0,1,,,,,,,,,0,,,84,83
101120,note_on,160,0,1,,,,,,,,,0,,,84,0
101120,note_on,0,0,1,,,,,,,,,0,,,82,75
101280,note_on,160,0,1,,,,,,,,,0,,,82,0
101280,note_on,0,0,1,,,,,,,,,0,,,81,90
101280,set_tempo,480,1,0,,,,,,300000,,,,,,,
101280,note_on,0,0,2,,,,,,,,,0,,,53,39
101280,note_on,480,0,2,,,,,,,,,0,,,56,53
101440,note_on,160,0,1,,,,,,,,,0,,,81,0
101440,note_on,0,0,1,,,,,,,,,0,,,82,83
101600,note_on,160,0,1,,,,,,,,,0,,,82,0
101600,note_on,0,0,1,,,,,,,,,0,,,84,78
101760,note_on,160,0,1,,,,,,,,,0,,,84,0
101760,note_on,0,0,1,,,,,,,,,0,,,86,90
101920,note_on,0,0,1,,,,,,,,,0,,,87,84
101920,note_on,160,0,1,,,,,,,,,0,,,86,0
102080,note_on,160,0,1,,,,,,,,,0,,,87,0
102080,note_on,0,0,1,,,,,,,,,0,,,89,78
102240,note_on,160,0,1,,,,,,,,,0,,,89,0
102240,note_on,0,0,1,,,,,,,,,0,,,90,97
102240,set_tempo,960,1,0,,,,,,334262,,,,,,,
102240,note_on,960,0,2,,,,,,,,,0,,,53,0
102240,note_on,0,0,2,,,,,,,,,0,,,56,0
102240,note_on,0,0,2,,,,,,,,,0,,,46,0
102240,note_on,0,0,2,,,,,,,,,0,,,51,81
102400,note_on,160,0,1,,,,,,,,,0,,,90,0
102400,note_on,0,0,1,,,,,,,,,0,,,94,88
102560,note_on,0,0,1,,,,,,,,,0,,,92,86
102560,note_on,160,0,1,,,,,,,,,0,,,94,0
102720,note_on,0,0,1,,,,,,,,,0,,,90,90
102720,note_on,160,0,1,,,,,,,,,0,,,92,0
102720,note_on,480,0,2,,,,,,,,,0,,,63,64
102728,set_tempo,488,1,0,,,,,,300000,,,,,,,
102880,note_on,160,0,1,,,,,,,,,0,,,90,0
102880,note_on,0,0,1,,,,,,,,,0,,,89,81
103040,note_on,160,0,1,,,,,,,,,0,,,89,0
103040,note_on,0,0,1,,,,,,,,,0,,,87,77
103200,note_on,160,0,1,,,,,,,,,0,,,87,0
103200,note_on,0,0,1,,,,,,,,,0,,,85,88
103360,note_on,160,0,1,,,,,,,,,0,,,85,0
103360,note_on,0,0,1,,,,,,,,,0,,,83,80
103520,note_on,0,0,1,,,,,,,,,0,,,82,77
103520,note_on,160,0,1,,,,,,,,,0,,,83,0
103680,note_on,0,0,2,,,,,,,,,0,,,44,82
103680,note_on,0,0,1,,,,,,,,,0,,,83,97
103680,note_on,960,0,2,,,,,,,,,0,,,63,0
103680,note_on,0,0,2,,,,,,,,,0,,,51,0
103680,set_tempo,952,1,0,,,,,,334262,,,,,,,
103680,note_on,160,0,1,,,,,,,,,0,,,82,0
103840,note_on,0,0,1,,,,,,,,,0,,,87,87
103840,note_on,160,0,1,,,,,,,,,0,,,83,0
104000,note_on,0,0,1,,,,,,,,,0,,,85,80
104000,note_on,160,0,1,,,,,,,,,0,,,87,0
104160,note_on,0,0,1,,,,,,,,,0,,,83,90
104160,note_on,160,0,1,,,,,,,,,0,,,85,0
104160,note_on,480,0,2,,,,,,,,,0,,,56,64
104168,set_tempo,488,1,0,,,,,,300000,,,,,,,
104320,note_on,160,0,1,,,,,,,,,0,,,83,0
104320,note_on,0,0,1,,,,,,,,,0,,,82,84
104480,note_on,160,0,1,,,,,,,,,0,,,82,0
104480,note_on,0,0,1,,,,,,,,,0,,,80,84
104640,note_on,0,0,1,,,,,,,,,0,,,78,90
104640,note_on,160,0,1,,,,,,,,,0,,,80,0
104800,note_on,160,0,1,,,,,,,,,0,,,78,0
104800,note_on,0,0,1,,,,,,,,,0,,,77,80
104960,note_on,0,0,1,,,,,,,,,0,,,75,76
104960,note_on,160,0,1,,,,,,,,,0,,,77,0
105120,note_on,0,0,1,,,,,,,,,0,,,74,97
105120,set_tempo,952,1,0,,,,,,333333,,,,,,,
105120,note_on,160,0,1,,,,,,,,,0,,,75,0
105120,note_on,960,0,2,,,,,,,,,0,,,56,0
105120,note_on,0,0,2,,,,,,,,,0,,,44,0
105120,note_on,0,0,2,,,,,,,,,0,,,46,81
105280,note_on,160,0,1,,,,,,,,,0,,,74,0
105280,note_on,0,0,1,,,,,,,,,0,,,77,86
105440,note_on,0,0,1,,,,,,,,,0,,,75,83
105440,note_on,160,0,1,,,,,,,,,0,,,77,0
105600,note_on,480,0,2,,,,,,,,,0,,,58,63
105600,note_on,160,0,1,,,,,,,,,0,,,75,0
105600,note_on,0,0,1,,,,,,,,,0,,,74,90
105600,set_tempo,480,1,0,,,,,,300000,,,,,,,
105760,note_on,160,0,1,,,,,,,,,0,,,74,0
105760,note_on,0,0,1,,,,,,,,,0,,,71,81
105920,note_on,0,0,1,,,,,,,,,0,,,70,77
105920,note_on,160,0,1,,,,,,,,,0,,,71,0
106080,note_on,0,0,1,,,,,,,,,0,,,68,88
106080,note_on,160,0,1,,,,,,,,,0,,,70,0
106240,note_on,160,0,1,,,,,,,,,0,,,68,0
106240,note_on,0,0,1,,,,,,,,,0,,,66,76
106400,note_on,160,0,1,,,,,,,,,0,,,66,0
106400,note_on,0,0,1,,,,,,,,,0,,,65,71
106560,note_on,160,0,1,,,,,,,,,0,,,65,0
106560,note_on,0,0,1,,,,,,,,,0,,,78,99
106560,set_tempo,960,1,0,,,,,,341880,,,,,,,
106560,note_on,960,0,2,,,,,,,,,0,,,58,0
106560,note_on,0,0,2,,,,,,,,,0,,,46,0
106560,note_on,0,0,2,,,,,,,,,0,,,39,82
106720,note_on,160,0,1,,,,,,,,,0,,,78,0
106720,note_on,0,0,1,,,,,,,,,0,,,82,84
106880,note_on,160,0,1,,,,,,,,,0,,,82,0
106880,note_on,0,0,1,,,,,,,,,0,,,80,78
107040,set_tempo,480,1,0,,,,,,300000,,,,,,,
107040,note_on,160,0,1,,,,,,,,,0,,,80,0
107040,note_on,0,0,1,,,,,,,,,0,,,78,89
107040,note_on,480,0,2,,,,,,,,,0,,,51,60
107200,note_on,0,0,1,,,,,,,,,0,,,77,82
107200,note_on,160,0,1,,,,,,,,,0,,,78,0
107360,note_on,0,0,1,,,,,,,,,0,,,75,78
107360,note_on,160,0,1,,,,,,,,,0,,,77,0
107520,note_on,160,0,1,,,,,,,,,0,,,75,0
107520,note_on,0,0,1,,,,,,,,,0,,,73,88
107680,note_on,0,0,1,,,,,,,,,0,,,71,78
107680,note_on,160,0,1,,,,,,,,,0,,,73,0
107840,note_on,0,0,1,,,,,,,,,0,,,70,72
107840,note_on,160,0,1,,,,,,,,,0,,,71,0
108000,note_on,0,0,2,,,,,,,,,0,,,39,0
108000,note_on,960,0,2,,,,,,,,,0,,,51,0
108000,set_tempo,960,1,0,,,,,,362538,,,,,,,
108000,note_on,160,0,1,,,,,,,,,0,,,70,0
108000,note_on,0,0,1,,,,,,,,,0,,,71,95
108000,note_on,0,0,2,,,,,,,,,0,,,32,84
108160,note_on,160,0,1,,,,,,,,,0,,,71,0
108160,note_on,0,0,1,,,,,,,,,0,,,75,86
108320,note_on,160,0,1,,,,,,,,,0,,,75,0
108320,note_on,0,0,1,,,,,,,,,0,,,73,83
108480,set_tempo,480,1,0,,,,,,300000,,,,,,,
108480,note_on,480,0,2,,,,,,,,,0,,,44,72
108480,note_on,0,0,1,,,,,,,,,0,,,71,89
108480,note_on,160,0,1,,,,,,,,,0,,,73,0
108640,note_on,160,0,1,,,,,,,,,0,,,71,0
108640,note_on,0,0,1,,,,,,,,,0,,,70,83
108800,note_on,160,0,1,,,,,,,,,0,,,70,0
108800,note_on,0,0,1,,,,,,,,,0,,,68,79
108960,note_on,160,0,1,,,,,,,,,0,,,68,0
108960,note_on,0,0,1,,,,,,,,,0,,,66,87
109120,note_on,160,0,1,,,,,,,,,0,,,66,0
109120,note_on,0,0,1,,,,,,,,,0,,,65,78
109280,note_on,160,0,1,,,,,,,,,0,,,65,0
109280,note_on,0,0,1,,,,,,,,,0,,,63,75
109440,note_on,0,0,1,,,,,,,,,0,,,62,99
109440,note_on,0,0,2,,,,,,,,,0,,,34,85
109440,note_on,0,0,2,,,,,,,,,0,,,32,0
109440,note_on,960,0,2,,,,,,,,,0,,,44,0
109440,set_tempo,960,1,0,,,,,,333333,,,,,,,
109440,note_on,160,0,1,,,,,,,,,0,,,63,0
109600,note_on,0,0,1,,,,,,,,,0,,,65,86
109600,note_on,160,0,1,,,,,,,,,0,,,62,0
109760,note_on,160,0,1,,,,,,,,,0,,,65,0
109760,note_on,0,0,1,,,,,,,,,0,,,63,86
109920,set_tempo,480,1,0,,,,,,300000,,,,,,,
109920,note_on,480,0,2,,,,,,,,,0,,,46,64
109920,note_on,160,0,1,,,,,,,,,0,,,63,0
109920,note_on,0,0,1,,,,,,,,,0,,,62,90
110080,note_on,160,0,1,,,,,,,,,0,,,62,0
110080,note_on,0,0,1,,,,,,,,,0,,,59,86
110240,note_on,160,0,1,,,,,,,,,0,,,59,0
110240,note_on,0,0,1,,,,,,,,,0,,,58,82
110400,note_on,160,0,1,,,,,,,,,0,,,58,0
110400,note_on,0,0,1,,,,,,,,,0,,,56,90
110560,note_on,160,0,1,,,,,,,,,0,,,56,0
110560,note_on,0,0,1,,,,,,,,,0,,,54,85
110720,note_on,160,0,1,,,,,,,,,0,,,54,0
110720,note_on,0,0,1,,,,,,,,,0,,,53,81
110880,note_on,0,0,2,,,,,,,,,0,,,34,0
110880,note_on,960,0,2,,,,,,,,,0,,,46,0
110880,note_on,0,0,1,,,,,,,,,0,,,51,90
110880,note_on,160,0,1,,,,,,,,,0,,,53,0
110880,note_on,0,0,2,,,,,,,,,0,,,39,65
111040,note_on,160,0,1,,,,,,,,,0,,,51,0
111040,note_on,0,0,1,,,,,,,,,0,,,53,88
111200,note_on,160,0,1,,,,,,,,,0,,,53,0
111200,note_on,0,0,1,,,,,,,,,0,,,54,88
111360,note_on,480,0,2,,,,,,,,,0,,,39,0
111360,note_on,0,0,2,,,,,,,,,0,,,50,81
111360,note_on,0,0,2,,,,,,,,,0,,,46,61
111360,note_on,160,0,1,,,,,,,,,0,,,54,0
111360,note_on,0,0,1,,,,,,,,,0,,,56,99
111368,set_tempo,1448,1,0,,,,,,333333,,,,,,,
111520,note_on,0,0,1,,,,,,,,,0,,,59,90
111520,note_on,160,0,1,,,,,,,,,0,,,56,0
111680,note_on,0,0,1,,,,,,,,,0,,,58,90
111680,note_on,160,0,1,,,,,,,,,0,,,59,0
111840,note_on,0,0,1,,,,,,,,,0,,,56,90
111840,note_on,160,0,1,,,,,,,,,0,,,58,0
112000,note_on,160,0,1,,,,,,,,,0,,,56,0
112000,note_on,0,0,1,,,,,,,,,0,,,54,86
112160,note_on,0,0,1,,,,,,,,,0,,,53,86
112160,note_on,160,0,1,,,,,,,,,0,,,54,0
112320,note_on,160,0,1,,,,,,,,,0,,,53,0
112320,note_on,0,0,1,,,,,,,,,0,,,51,90
112320,note_on,960,0,2,,,,,,,,,0,,,46,0
112320,note_on,0,0,2,,,,,,,,,0,,,50,0
112320,note_on,0,0,2,,,,,,,,,0,,,39,63
112328,set_tempo,960,1,0,,,,,,300000,,,,,,,
112480,note_on,160,0,1,,,,,,,,,0,,,51,0
112480,note_on,0,0,1,,,,,,,,,0,,,53,85
112560,note_on,240,0,2,,,,,,,,,0,,,39,0
112640,note_on,160,0,1,,,,,,,,,0,,,53,0
112640,note_on,0,0,1,,,,,,,,,0,,,54,85
112800,note_on,0,0,2,,,,,,,,,0,,,46,68
112800,note_on,240,0,2,,,,,,,,,0,,,50,90
112800,note_on,160,0,1,,,,,,,,,0,,,54,0
112800,note_on,0,0,1,,,,,,,,,0,,,56,99
112808,set_tempo,480,1,0,,,,,,333333,,,,,,,
112960,note_on,0,0,1,,,,,,,,,0,,,59,86
112960,note_on,160,0,1,,,,,,,,,0,,,56,0
113120,note_on,160,0,1,,,,,,,,,0,,,59,0
113120,note_on,0,0,1,,,,,,,,,0,,,58,87
113280,note_on,160,0,1,,,,,,,,,0,,,58,0
113280,note_on,0,0,1,,,,,,,,,0,,,56,90
113440,note_on,160,0,1,,,,,,,,,0,,,56,0
113440,note_on,0,0,1,,,,,,,,,0,,,54,86
113600,note_on,160,0,1,,,,,,,,,0,,,54,0
113600,note_on,0,0,1,,,,,,,,,0,,,53,86
113760,set_tempo,952,1,0,,,,,,300752,,,,,,,
113760,note_on,160,0,1,,,,,,,,,0,,,53,0
113760,note_on,0,0,1,,,,,,,,,0,,,51,90
113760,note_on,0,0,2,,,,,,,,,0,,,39,72
113760,note_on,960,0,2,,,,,,,,,0,,,46,0
113760,note_on,0,0,2,,,,,,,,,0,,,50,0
113920,note_on,160,0,1,,,,,,,,,0,,,51,0
113920,note_on,0,0,1,,,,,,,,,0,,,53,87
114000,note_on,240,0,2,,,,,,,,,0,,,39,0
114080,note_on,160,0,1,,,,,,,,,0,,,53,0
114080,note_on,0,0,1,,,,,,,,,0,,,54,87
114240,set_tempo,480,1,0,,,,,,333333,,,,,,,
114240,note_on,0,0,2,,,,,,,,,0,,,50,90
114240,note_on,240,0,2,,,,,,,,,0,,,46,68
114240,note_on,160,0,1,,,,,,,,,0,,,54,0
114240,note_on,0,0,1,,,,,,,,,0,,,56,99
114400,note_on,160,0,1,,,,,,,,,0,,,56,0
114400,note_on,0,0,1,,,,,,,,,0,,,59,87
114560,note_on,160,0,1,,,,,,,,,0,,,59,0
114560,note_on,0,0,1,,,,,,,,,0,,,58,87
114720,note_on,0,0,1,,,,,,,,,0,,,56,90
114720,note_on,160,0,1,,,,,,,,,0,,,58,0
114880,note_on,160,0,1,,,,,,,,,0,,,56,0
114880,note_on,0,0,1,,,,,,,,,0,,,54,87
115040,note_on,160,0,1,,,,,,,,,0,,,54,0
115040,note_on,0,0,1,,,,,,,,,0,,,53,87
115200,note_on,0,0,2,,,,,,,,,0,,,46,0
115200,note_on,160,0,1,,,,,,,,,0,,,53,0
115200,note_on,0,0,1,,,,,,,,,0,,,51,90
115200,note_on,960,0,2,,,,,,,,,0,,,50,0
115200,note_on,0,0,2,,,,,,,,,0,,,39,81
115200,set_tempo,960,1,0,,,,,,300000,,,,,,,
115360,note_on,0,0,1,,,,,,,,,0,,,53,91
115360,note_on,160,0,1,,,,,,,,,0,,,51,0
115360,note_on,160,0,2,,,,,,,,,0,,,39,0
115360,note_on,0,0,2,,,,,,,,,0,,,41,81
115520,note_on,0,0,2,,,,,,,,,0,,,42,80
115520,note_on,0,0,1,,,,,,,,,0,,,54,87
115520,note_on,160,0,1,,,,,,,,,0,,,53,0
115520,note_on,160,0,2,,,,,,,,,0,,,41,0
115680,note_on,0,0,1,,,,,,,,,0,,,56,95
115680,note_on,160,0,1,,,,,,,,,0,,,54,0
115680,note_on,160,0,2,,,,,,,,,0,,,42,0
115680,note_on,0,0,2,,,,,,,,,0,,,44,85
115840,note_on,160,0,1,,,,,,,,,0,,,56,0
115840,note_on,160,0,2,,,,,,,,,0,,,44,0
115840,note_on,0,0,2,,,,,,,,,0,,,46,87
115840,note_on,0,0,1,,,,,,,,,0,,,58,97
116000,note_on,160,0,1,,,,,,,,,0,,,58,0
116000,note_on,0,0,2,,,,,,,,,0,,,48,83
116000,note_on,160,0,2,,,,,,,,,0,,,46,0
116000,note_on,0,0,1,,,,,,,,,0,,,60,95
116160,note_on,0,0,2,,,,,,,,,0,,,50,90
116160,note_on,160,0,2,,,,,,,,,0,,,48,0
116160,note_on,160,0,1,,,,,,,,,0,,,60,0
116160,note_on,0,0,1,,,,,,,,,0,,,62,101
116320,note_on,0,0,2,,,,,,,,,0,,,51,92
116320,note_on,160,0,2,,,,,,,,,0,,,50,0
116320,note_on,160,0,1,,,,,,,,,0,,,62,0
116320,note_on,0,0,1,,,,,,,,,0,,,63,103
116480,note_on,0,0,1,,,,,,,,,0,,,65,99
116480,note_on,160,0,1,,,,,,,,,0,,,63,0
116480,note_on,0,0,2,,,,,,,,,0,,,53,88
116480,note_on,160,0,2,,,,,,,,,0,,,51,0
116640,note_on,0,0,1,,,,,,,,,0,,,66,107
116640,note_on,160,0,2,,,,,,,,,0,,,53,0
116640,note_on,160,0,1,,,,,,,,,0,,,65,0
116640,note_on,0,0,2,,,,,,,,,0,,,54,96
117600,note_on,960,0,2,,,,,,,,,0,,,54,0
117600,note_on,960,0,1,,,,,,,,,0,,,66,0
118080,note_on,0,0,1,,,,,,,,,0,,,70,108
118080,note_on,480,0,2,,,,,,,,,0,,,42,91
118080,note_on,0,0,2,,,,,,,,,0,,,54,91
118080,note_on,0,0,1,,,,,,,,,0,,,66,91
118080,note_on,0,0,1,,,,,,,,,0,,,61,91
118080,note_on,480,0,1,,,,,,,,,0,,,58,91
119040,set_tempo,3840,1,0,,,,,,343840,,,,,,,
119040,note_on,0,0,1,,,,,,,,,0,,,66,0
119040,note_on,0,0,1,,,,,,,,,0,,,61,0
119040,note_on,0,0,1,,,,,,,,,0,,,58,0
119040,note_on,960,0,2,,,,,,,,,0,,,54,0
119040,note_on,0,0,2,,,,,,,,,0,,,42,0
119040,note_on,960,0,1,,,,,,,,,0,,,70,0
119520,note_on,480,0,2,,,,,,,,,0,,,35,73
119520,note_on,480,0,1,,,,,,,,,0,,,71,108
119520,key_signature,480,1,0,,,,,D,,,,,,,,
119520,control_change,0,0,2,,,,,,,,,0,64,127,,
119520,set_tempo,0,1,0,,,,,,333333,,,,,,,
119760,note_on,240,0,2,,,,,,,,,0,,,35,0
120000,note_on,240,0,2,,,,,,,,,0,,,47,59
120000,note_on,480,0,1,,,,,,,,,0,,,59,81
120000,note_on,0,0,2,,,,,,,,,0,,,50,59
120000,note_on,0,0,2,,,,,,,,,0,,,54,66
120160,note_on,160,0,1,,,,,,,,,0,,,59,0
120160,note_on,0,0,1,,,,,,,,,0,,,62,75
120320,note_on,160,0,1,,,,,,,,,0,,,62,0
120320,note_on,0,0,1,,,,,,,,,0,,,66,75
120480,note_on,0,0,1,,,,,,,,,0,,,59,81
120480,note_on,160,0,1,,,,,,,,,0,,,66,0
120832,control_change,832,0,2,,,,,,,,,0,64,0,,
120960,note_on,480,0,1,,,,,,,,,0,,,59,0
120960,note_on,0,0,1,,,,,,,,,0,,,71,109
120960,note_on,0,0,1,,,,,,,,,0,,,71,0
120960,note_on,0,0,2,,,,,,,,,0,,,35,75
120960,note_on,0,0,2,,,,,,,,,0,,,47,0
120960,note_on,0,0,2,,,,,,,,,0,,,50,0
120960,note_on,128,0,2,,,,,,,,,0,,,54,0
120968,control_change,8,0,2,,,,,,,,,0,64,127,,
121200,note_on,232,0,2,,,,,,,,,0,,,35,0
121440,note_on,0,0,2,,,,,,,,,0,,,55,64
121440,note_on,0,0,2,,,,,,,,,0,,,52,57
121440,note_on,0,0,2,,,,,,,,,0,,,49,57
121440,note_on,240,0,2,,,,,,,,,0,,,47,57
121440,note_on,480,0,1,,,,,,,,,0,,,59,81
121600,note_on,160,0,1,,,,,,,,,0,,,59,0
121600,note_on,0,0,1,,,,,,,,,0,,,61,76
121760,note_on,160,0,1,,,,,,,,,0,,,61,0
121760,note_on,0,0,1,,,,,,,,,0,,,67,76
121920,note_on,0,0,1,,,,,,,,,0,,,59,81
121920,note_on,160,0,1,,,,,,,,,0,,,67,0
122352,control_change,912,0,2,,,,,,,,,0,64,0,,
122400,note_on,0,0,1,,,,,,,,,0,,,71,99
122400,set_tempo,2880,1,0,,,,,,316623,,,,,,,
122400,note_on,480,0,1,,,,,,,,,0,,,59,0
122400,control_change,0,0,2,,,,,,,,,0,64,127,,
122400,note_on,0,0,1,,,,,,,,,0,,,71,0
122400,note_on,0,0,2,,,,,,,,,0,,,50,81
122400,note_on,0,0,2,,,,,,,,,0,,,52,0
122400,note_on,0,0,2,,,,,,,,,0,,,49,0
122400,note_on,48,0,2,,,,,,,,,0,,,55,0
122400,note_on,0,0,2,,,,,,,,,0,,,47,0
122640,note_on,0,0,2,,,,,,,,,0,,,59,65
122640,note_on,240,0,1,,,,,,,,,0,,,62,72
122640,note_on,0,0,1,,,,,,,,,0,,,66,81
122640,note_on,240,0,2,,,,,,,,,0,,,54,58
122766,control_change,126,0,2,,,,,,,,,0,64,0,,
122880,note_on,0,0,2,,,,,,,,,0,,,54,0
122880,note_on,0,0,2,,,,,,,,,0,,,50,0
122880,note_on,0,0,2,,,,,,,,,0,,,49,89
122880,control_change,0,0,2,,,,,,,,,0,64,127,,
122880,note_on,114,0,2,,,,,,,,,0,,,59,0
122880,note_on,0,0,1,,,,,,,,,0,,,73,107
122880,note_on,0,0,1,,,,,,,,,0,,,71,0
122880,note_on,0,0,1,,,,,,,,,0,,,62,0
122880,note_on,240,0,1,,,,,,,,,0,,,66,0
123120,note_on,240,0,1,,,,,,,,,0,,,64,79
123120,note_on,0,0,2,,,,,,,,,0,,,58,69
123120,note_on,240,0,2,,,,,,,,,0,,,54,62
123120,note_on,0,0,1,,,,,,,,,0,,,66,88
123269,control_change,149,0,2,,,,,,,,,0,64,0,,
123360,note_on,0,0,2,,,,,,,,,0,,,47,81
123360,note_on,0,0,2,,,,,,,,,0,,,49,0
123360,note_on,0,0,2,,,,,,,,,0,,,54,0
123360,note_on,91,0,2,,,,,,,,,0,,,58,0
123360,control_change,0,0,2,,,,,,,,,0,64,127,,
123360,note_on,0,0,1,,,,,,,,,0,,,64,0
123360,note_on,240,0,1,,,,,,,,,0,,,66,0
123360,note_on,0,0,1,,,,,,,,,0,,,73,0
123360,note_on,0,0,1,,,,,,,,,0,,,74,99
123600,note_on,0,0,2,,,,,,,,,0,,,59,64
123600,note_on,240,0,2,,,,,,,,,0,,,54,57
123600,note_on,0,0,1,,,,,,,,,0,,,66,81
123600,note_on,240,0,1,,,,,,,,,0,,,62,72
123726,control_change,126,0,2,,,,,,,,,0,64,0,,
123840,note_on,114,0,2,,,,,,,,,0,,,59,0
123840,control_change,0,0,2,,,,,,,,,0,64,126,,
123840,note_on,0,0,2,,,,,,,,,0,,,42,89
123840,note_on,0,0,2,,,,,,,,,0,,,47,0
123840,note_on,0,0,2,,,,,,,,,0,,,54,0
123840,set_tempo,1440,1,0,,,,,,333333,,,,,,,
123840,note_on,0,0,1,,,,,,,,,0,,,62,0
123840,note_on,0,0,1,,,,,,,,,0,,,74,0
123840,note_on,240,0,1,,,,,,,,,0,,,66,0
123840,note_on,0,0,1,,,,,,,,,0,,,73,98
124320,note_on,0,0,2,,,,,,,,,0,,,54,57
124320,note_on,480,0,2,,,,,,,,,0,,,42,0
124320,note_on,0,0,2,,,,,,,,,0,,,58,64
124320,note_on,480,0,1,,,,,,,,,0,,,61,81
124480,note_on,160,0,1,,,,,,,,,0,,,61,0
124480,note_on,0,0,1,,,,,,,,,0,,,66,76
124640,note_on,160,0,1,,,,,,,,,0,,,66,0
124640,note_on,0,0,1,,,,,,,,,0,,,70,76
124800,note_on,0,0,1,,,,,,,,,0,,,61,81
124800,note_on,160,0,1,,,,,,,,,0,,,70,0
125200,control_change,880,0,2,,,,,,,,,0,64,0,,
125280,note_on,80,0,2,,,,,,,,,0,,,58,0
125280,note_on,0,0,2,,,,,,,,,0,,,54,0
125280,note_on,0,0,2,,,,,,,,,0,,,42,90
125280,control_change,0,0,2,,,,,,,,,0,64,127,,
125280,note_on,0,0,1,,,,,,,,,0,,,73,0
125280,note_on,0,0,1,,,,,,,,,0,,,78,108
125280,note_on,480,0,1,,,,,,,,,0,,,61,0
125760,note_on,0,0,2,,,,,,,,,0,,,58,64
125760,note_on,480,0,1,,,,,,,,,0,,,66,90
125760,note_on,480,0,2,,,,,,,,,0,,,42,0
125760,note_on,0,0,2,,,,,,,,,0,,,54,64
125760,note_on,0,0,2,,,,,,,,,0,,,61,72
125920,note_on,0,0,1,,,,,,,,,0,,,70,84
125920,note_on,160,0,1,,,,,,,,,0,,,66,0
126080,note_on,0,0,1,,,,,,,,,0,,,73,84
126080,note_on,160,0,1,,,,,,,,,0,,,70,0
126240,note_on,0,0,1,,,,,,,,,0,,,66,90
126240,note_on,160,0,1,,,,,,,,,0,,,73,0
126648,control_change,888,0,2,,,,,,,,,0,64,0,,
126720,note_on,0,0,2,,,,,,,,,0,,,47,89
126720,note_on,0,0,2,,,,,,,,,0,,,54,0
126720,note_on,0,0,1,,,,,,,,,0,,,74,108
126720,note_on,72,0,2,,,,,,,,,0,,,61,0
126720,control_change,0,0,2,,,,,,,,,0,64,127,,
126720,note_on,0,0,2,,,,,,,,,0,,,58,0
126720,note_on,480,0,1,,,,,,,,,0,,,66,0
126720,note_on,0,0,1,,,,,,,,,0,,,78,0
127200,note_on,0,0,2,,,,,,,,,0,,,54,56
127200,note_on,0,0,2,,,,,,,,,0,,,59,63
127200,note_on,480,0,1,,,,,,,,,0,,,62,81
127200,note_on,480,0,2,,,,,,,,,0,,,47,0
127360,note_on,0,0,1,,,,,,,,,0,,,66,76
127360,note_on,160,0,1,,,,,,,,,0,,,62,0
127520,note_on,160,0,1,,,,,,,,,0,,,66,0
127520,note_on,0,0,1,,,,,,,,,0,,,71,76
127680,note_on,0,0,1,,,,,,,,,0,,,62,81
127680,note_on,160,0,1,,,,,,,,,0,,,71,0
128080,control_change,880,0,2,,,,,,,,,0,64,0,,
128160,note_on,0,0,1,,,,,,,,,0,,,73,99
128160,note_on,0,0,1,,,,,,,,,0,,,71,90
128160,note_on,0,0,1,,,,,,,,,0,,,74,0
128160,note_on,480,0,1,,,,,,,,,0,,,62,0
128160,note_on,0,0,2,,,,,,,,,0,,,43,81
128160,control_change,0,0,2,,,,,,,,,0,64,127,,
128160,set_tempo,4320,1,0,,,,,,322581,,,,,,,
128160,note_on,80,0,2,,,,,,,,,0,,,59,0
128160,note_on,0,0,2,,,,,,,,,0,,,54,0
128400,note_on,240,0,2,,,,,,,,,0,,,43,0
128400,note_on,240,0,1,,,,,,,,,0,,,71,0
128400,note_on,0,0,1,,,,,,,,,0,,,64,81
128400,note_on,0,0,2,,,,,,,,,0,,,55,63
128584,control_change,184,0,2,,,,,,,,,0,64,0,,
128640,note_on,0,0,1,,,,,,,,,0,,,71,90
128640,note_on,240,0,1,,,,,,,,,0,,,64,0
128640,note_on,56,0,2,,,,,,,,,0,,,55,0
128640,note_on,0,0,2,,,,,,,,,0,,,40,88
128640,note_on,0,0,1,,,,,,,,,0,,,76,99
128640,note_on,0,0,1,,,,,,,,,0,,,73,0
128696,control_change,56,0,2,,,,,,,,,0,64,127,,
128880,note_on,184,0,2,,,,,,,,,0,,,40,0
128880,note_on,0,0,2,,,,,,,,,0,,,52,66
128880,note_on,240,0,1,,,,,,,,,0,,,71,0
128880,note_on,0,0,1,,,,,,,,,0,,,64,81
129078,control_change,198,0,2,,,,,,,,,0,64,0,,
129120,note_on,240,0,1,,,,,,,,,0,,,64,0
129120,note_on,42,0,2,,,,,,,,,0,,,52,0
129120,note_on,0,0,2,,,,,,,,,0,,,43,81
129120,note_on,0,0,1,,,,,,,,,0,,,71,90
129120,note_on,0,0,1,,,,,,,,,0,,,73,99
129120,note_on,0,0,1,,,,,,,,,0,,,76,0
129191,control_change,71,0,2,,,,,,,,,0,64,127,,
129360,note_on,169,0,2,,,,,,,,,0,,,43,0
129360,note_on,0,0,2,,,,,,,,,0,,,55,64
129360,note_on,240,0,1,,,,,,,,,0,,,71,0
129360,note_on,0,0,1,,,,,,,,,0,,,64,81
129515,control_change,155,0,2,,,,,,,,,0,64,0,,
129600,note_on,85,0,2,,,,,,,,,0,,,55,0
129600,note_on,0,0,2,,,,,,,,,0,,,47,88
129600,note_on,0,0,1,,,,,,,,,0,,,74,108
129600,note_on,0,0,1,,,,,,,,,0,,,73,0
129600,note_on,240,0,1,,,,,,,,,0,,,64,0
129600,set_tempo,1440,1,0,,,,,,334262,,,,,,,
129642,control_change,42,0,2,,,,,,,,,0,64,125,,
130080,note_on,0,0,2,,,,,,,,,0,,,59,72
130080,note_on,0,0,2,,,,,,,,,0,,,54,64
130080,note_on,438,0,2,,,,,,,,,0,,,47,0
130080,note_on,480,0,1,,,,,,,,,0,,,62,81
130240,note_on,160,0,1,,,,,,,,,0,,,62,0
130240,note_on,0,0,1,,,,,,,,,0,,,66,75
130400,note_on,160,0,1,,,,,,,,,0,,,66,0
130400,note_on,0,0,1,,,,,,,,,0,,,71,75
130560,note_on,160,0,1,,,,,,,,,0,,,71,0
130560,set_tempo,960,1,0,,,,,,362538,,,,,,,
130560,note_on,0,0,1,,,,,,,,,0,,,62,81
130800,note_on,240,0,1,,,,,,,,,0,,,62,0
130892,control_change,812,0,2,,,,,,,,,0,64,0,,
131040,note_on,148,0,2,,,,,,,,,0,,,59,0
131040,control_change,0,0,2,,,,,,,,,0,64,127,,
131040,note_on,0,0,2,,,,,,,,,0,,,35,50
131040,note_on,0,0,2,,,,,,,,,0,,,54,0
131040,set_tempo,480,1,0,,,,,,333333,,,,,,,
131040,note_on,240,0,1,,,,,,,,,0,,,74,0
131040,note_on,0,0,1,,,,,,,,,0,,,71,60
131280,note_on,240,0,2,,,,,,,,,0,,,35,0
131520,note_on,0,0,2,,,,,,,,,0,,,50,32
131520,note_on,0,0,2,,,,,,,,,0,,,54,36
131520,note_on,480,0,1,,,,,,,,,0,,,59,36
131520,note_on,240,0,2,,,,,,,,,0,,,47,32
131680,note_on,160,0,1,,,,,,,,,0,,,59,0
131680,note_on,0,0,1,,,,,,,,,0,,,62,37
131840,note_on,160,0,1,,,,,,,,,0,,,62,0
131840,note_on,0,0,1,,,,,,,,,0,,,66,37
132000,note_on,0,0,1,,,,,,,,,0,,,59,37
132000,note_on,160,0,1,,,,,,,,,0,,,66,0
132352,control_change,832,0,2,,,,,,,,,0,64,0,,
132480,note_on,0,0,2,,,,,,,,,0,,,47,0
132480,note_on,0,0,1,,,,,,,,,0,,,71,61
132480,note_on,0,0,1,,,,,,,,,0,,,71,0
132480,note_on,480,0,1,,,,,,,,,0,,,59,0
132480,note_on,128,0,2,,,,,,,,,0,,,54,0
132480,note_on,0,0,2,,,,,,,,,0,,,50,0
132480,note_on,0,0,2,,,,,,,,,0,,,35,48
132488,control_change,8,0,2,,,,,,,,,0,64,127,,
132720,note_on,232,0,2,,,,,,,,,0,,,35,0
132960,note_on,0,0,2,,,,,,,,,0,,,49,32
132960,note_on,240,0,2,,,,,,,,,0,,,47,32
132960,note_on,0,0,2,,,,,,,,,0,,,55,36
132960,note_on,480,0,1,,,,,,,,,0,,,59,38
132960,note_on,0,0,2,,,,,,,,,0,,,52,32
133120,note_on,160,0,1,,,,,,,,,0,,,59,0
133120,note_on,0,0,1,,,,,,,,,0,,,61,37
133280,note_on,0,0,1,,,,,,,,,0,,,67,36
133280,note_on,160,0,1,,,,,,,,,0,,,61,0
133440,note_on,160,0,1,,,,,,,,,0,,,67,0
133440,note_on,0,0,1,,,,,,,,,0,,,59,36
133872,control_change,912,0,2,,,,,,,,,0,64,0,,
133920,note_on,0,0,2,,,,,,,,,0,,,47,0
133920,note_on,0,0,2,,,,,,,,,0,,,49,0
133920,note_on,0,0,2,,,,,,,,,0,,,52,0
133920,note_on,0,0,2,,,,,,,,,0,,,50,50
133920,note_on,480,0,1,,,,,,,,,0,,,59,0
133920,note_on,0,0,1,,,,,,,,,0,,,71,0
133920,note_on,0,0,1,,,,,,,,,0,,,71,54
133920,set_tempo,2880,1,0,,,,,,321716,,,,,,,
133920,note_on,48,0,2,,,,,,,,,0,,,55,0
133931,control_change,11,0,2,,,,,,,,,0,64,127,,
134160,note_on,240,0,1,,,,,,,,,0,,,62,37
134160,note_on,0,0,1,,,,,,,,,0,,,66,42
134160,note_on,229,0,2,,,,,,,,,0,,,54,40
134160,note_on,0,0,2,,,,,,,,,0,,,59,45
134331,control_change,171,0,2,,,,,,,,,0,64,0,,
134400,note_on,0,0,2,,,,,,,,,0,,,49,54
134400,note_on,0,0,1,,,,,,,,,0,,,73,59
134400,note_on,0,0,1,,,,,,,,,0,,,71,0
134400,note_on,0,0,1,,,,,,,,,0,,,62,0
134400,note_on,240,0,1,,,,,,,,,0,,,66,0
134400,note_on,0,0,2,,,,,,,,,0,,,50,0
134400,note_on,0,0,2,,,,,,,,,0,,,54,0
134400,note_on,69,0,2,,,,,,,,,0,,,59,0
134423,control_change,23,0,2,,,,,,,,,0,64,127,,
134640,note_on,0,0,2,,,,,,,,,0,,,58,47
134640,note_on,217,0,2,,,,,,,,,0,,,54,42
134640,note_on,0,0,1,,,,,,,,,0,,,66,47
134640,note_on,240,0,1,,,,,,,,,0,,,64,42
134811,control_change,171,0,2,,,,,,,,,0,64,0,,
134880,note_on,240,0,1,,,,,,,,,0,,,66,0
134880,note_on,69,0,2,,,,,,,,,0,,,58,0
134880,note_on,0,0,1,,,,,,,,,0,,,74,54
134880,note_on,0,0,1,,,,,,,,,0,,,73,0
134880,note_on,0,0,1,,,,,,,,,0,,,64,0
134880,note_on,0,0,2,,,,,,,,,0,,,49,0
134880,note_on,0,0,2,,,,,,,,,0,,,47,50
134880,note_on,0,0,2,,,,,,,,,0,,,54,0
134914,control_change,34,0,2,,,,,,,,,0,64,127,,
135120,note_on,0,0,1,,,,,,,,,0,,,66,41
135120,note_on,240,0,1,,,,,,,,,0,,,62,36
135120,note_on,206,0,2,,,,,,,,,0,,,54,40
135120,note_on,0,0,2,,,,,,,,,0,,,59,45
135189,control_change,69,0,2,,,,,,,,,0,64,0,,
135360,note_on,171,0,2,,,,,,,,,0,,,59,0
135360,note_on,0,0,1,,,,,,,,,0,,,73,54
135360,set_tempo,1440,1,0,,,,,,333333,,,,,,,
135360,note_on,0,0,1,,,,,,,,,0,,,74,0
135360,note_on,0,0,2,,,,,,,,,0,,,54,0
135360,note_on,0,0,2,,,,,,,,,0,,,47,0
135360,note_on,0,0,2,,,,,,,,,0,,,42,49
135360,note_on,240,0,1,,,,,,,,,0,,,66,0
135360,note_on,0,0,1,,,,,,,,,0,,,62,0
135394,control_change,34,0,2,,,,,,,,,0,64,126,,
135840,note_on,480,0,1,,,,,,,,,0,,,61,37
135840,note_on,0,0,2,,,,,,,,,0,,,58,39
135840,note_on,446,0,2,,,,,,,,,0,,,42,0
135840,note_on,0,0,2,,,,,,,,,0,,,54,35
136000,note_on,160,0,1,,,,,,,,,0,,,61,0
136000,note_on,0,0,1,,,,,,,,,0,,,66,38
136160,note_on,160,0,1,,,,,,,,,0,,,66,0
136160,note_on,0,0,1,,,,,,,,,0,,,70,39
136320,note_on,0,0,1,,,,,,,,,0,,,61,39
136320,note_on,160,0,1,,,,,,,,,0,,,70,0
136720,control_change,880,0,2,,,,,,,,,0,64,0,,
136800,set_tempo,1440,1,0,,,,,,333333,,,,,,,
136800,note_on,480,0,1,,,,,,,,,0,,,61,0
136800,note_on,0,0,1,,,,,,,,,0,,,78,90
136800,note_on,80,0,2,,,,,,,,,0,,,58,0
136800,note_on,0,0,2,,,,,,,,,0,,,54,0
136800,note_on,0,0,2,,,,,,,,,0,,,42,83
136800,control_change,0,0,2,,,,,,,,,0,64,127,,
136800,note_on,0,0,1,,,,,,,,,0,,,73,0
137280,note_on,480,0,1,,,,,,,,,0,,,66,72
137280,note_on,480,0,2,,,,,,,,,0,,,42,0
137280,note_on,0,0,2,,,,,,,,,0,,,54,64
137280,note_on,0,0,2,,,,,,,,,0,,,58,64
137280,note_on,0,0,2,,,,,,,,,0,,,61,72
137440,note_on,160,0,1,,,,,,,,,0,,,66,0
137440,note_on,0,0,1,,,,,,,,,0,,,70,65
137600,note_on,0,0,1,,,,,,,,,0,,,73,65
137600,note_on,160,0,1,,,,,,,,,0,,,70,0
137760,note_on,160,0,1,,,,,,,,,0,,,73,0
137760,note_on,0,0,1,,,,,,,,,0,,,66,72
138168,control_change,888,0,2,,,,,,,,,0,64,0,,
138240,note_on,0,0,1,,,,,,,,,0,,,74,90
138240,note_on,480,0,1,,,,,,,,,0,,,66,0
138240,note_on,0,0,1,,,,,,,,,0,,,78,0
138240,control_change,0,0,2,,,,,,,,,0,64,127,,
138240,note_on,0,0,2,,,,,,,,,0,,,47,82
138240,note_on,0,0,2,,,,,,,,,0,,,54,0
138240,note_on,72,0,2,,,,,,,,,0,,,61,0
138240,note_on,0,0,2,,,,,,,,,0,,,58,0
138720,note_on,0,0,2,,,,,,,,,0,,,59,71
138720,note_on,0,0,2,,,,,,,,,0,,,54,63
138720,note_on,480,0,1,,,,,,,,,0,,,62,72
138720,note_on,480,0,2,,,,,,,,,0,,,47,0
138880,note_on,160,0,1,,,,,,,,,0,,,62,0
138880,note_on,0,0,1,,,,,,,,,0,,,66,66
139040,note_on,0,0,1,,,,,,,,,0,,,71,72
139040,note_on,160,0,1,,,,,,,,,0,,,66,0
139200,note_on,0,0,1,,,,,,,,,0,,,62,72
139200,note_on,160,0,1,,,,,,,,,0,,,71,0
139600,control_change,880,0,2,,,,,,,,,0,64,0,,
139680,note_on,80,0,2,,,,,,,,,0,,,59,0
139680,note_on,0,0,2,,,,,,,,,0,,,54,0
139680,note_on,0,0,2,,,,,,,,,0,,,38,72
139680,note_on,0,0,1,,,,,,,,,0,,,71,89
139680,note_on,0,0,1,,,,,,,,,0,,,74,0
139680,note_on,480,0,1,,,,,,,,,0,,,62,0
139688,set_tempo,2888,1,0,,,,,,315789,,,,,,,
139713,control_change,33,0,2,,,,,,,,,0,64,127,,
139920,note_on,0,0,2,,,,,,,,,0,,,50,64
139920,note_on,207,0,2,,,,,,,,,0,,,38,0
139920,note_on,240,0,1,,,,,,,,,0,,,68,72
139920,note_on,0,0,1,,,,,,,,,0,,,66,64
140119,control_change,199,0,2,,,,,,,,,0,64,0,,
140160,note_on,240,0,1,,,,,,,,,0,,,66,0
140160,note_on,0,0,1,,,,,,,,,0,,,74,99
140160,note_on,41,0,2,,,,,,,,,0,,,50,0
140160,note_on,0,0,2,,,,,,,,,0,,,35,81
140160,note_on,0,0,1,,,,,,,,,0,,,68,0
140160,note_on,0,0,1,,,,,,,,,0,,,71,0
140185,control_change,25,0,2,,,,,,,,,0,64,127,,
140400,note_on,240,0,1,,,,,,,,,0,,,68,72
140400,note_on,0,0,2,,,,,,,,,0,,,47,67
140400,note_on,215,0,2,,,,,,,,,0,,,35,0
140400,note_on,0,0,1,,,,,,,,,0,,,66,64
140590,control_change,190,0,2,,,,,,,,,0,64,0,,
140640,note_on,50,0,2,,,,,,,,,0,,,47,0
140640,note_on,0,0,2,,,,,,,,,0,,,38,72
140640,note_on,0,0,1,,,,,,,,,0,,,68,0
140640,note_on,0,0,1,,,,,,,,,0,,,74,0
140640,note_on,0,0,1,,,,,,,,,0,,,71,90
140640,note_on,240,0,1,,,,,,,,,0,,,66,0
140698,control_change,58,0,2,,,,,,,,,0,64,127,,
140880,note_on,240,0,1,,,,,,,,,0,,,68,72
140880,note_on,0,0,2,,,,,,,,,0,,,50,64
140880,note_on,0,0,1,,,,,,,,,0,,,66,64
140880,note_on,182,0,2,,,,,,,,,0,,,38,0
140971,control_change,91,0,2,,,,,,,,,0,64,0,,
141120,set_tempo,1432,1,0,,,,,,334262,,,,,,,
141120,note_on,0,0,1,,,,,,,,,0,,,73,90
141120,note_on,240,0,1,,,,,,,,,0,,,66,0
141120,note_on,149,0,2,,,,,,,,,0,,,50,0
141120,note_on,0,0,1,,,,,,,,,0,,,71,0
141120,note_on,0,0,1,,,,,,,,,0,,,68,0
141120,note_on,0,0,2,,,,,,,,,0,,,37,90
141154,control_change,34,0,2,,,,,,,,,0,64,127,,
141600,note_on,446,0,2,,,,,,,,,0,,,37,0
141600,note_on,0,0,2,,,,,,,,,0,,,49,48
141600,note_on,480,0,1,,,,,,,,,0,,,61,54
141600,note_on,0,0,2,,,,,,,,,0,,,53,48
141600,set_tempo,480,1,0,,,,,,353982,,,,,,,
141600,note_on,0,0,2,,,,,,,,,0,,,56,54
141760,note_on,160,0,1,,,,,,,,,0,,,61,0
141760,note_on,0,0,1,,,,,,,,,0,,,65,54
141920,note_on,0,0,1,,,,,,,,,0,,,68,54
141920,note_on,160,0,1,,,,,,,,,0,,,65,0
142080,note_on,0,0,1,,,,,,,,,0,,,61,55
142080,note_on,160,0,1,,,,,,,,,0,,,68,0
142416,control_change,816,0,2,,,,,,,,,0,64,0,,
142560,note_on,144,0,2,,,,,,,,,0,,,56,0
142560,note_on,0,0,2,,,,,,,,,0,,,53,0
142560,note_on,0,0,2,,,,,,,,,0,,,49,0
142560,note_on,0,0,2,,,,,,,,,0,,,42,54
142560,note_on,0,0,1,,,,,,,,,0,,,69,54
142560,note_on,0,0,1,,,,,,,,,0,,,73,0
142560,note_on,480,0,1,,,,,,,,,0,,,61,0
142568,set_tempo,968,1,0,,,,,,332410,,,,,,,
142568,control_change,8,0,2,,,,,,,,,0,64,126,,
142800,note_on,232,0,2,,,,,,,,,0,,,42,0
143040,note_on,240,0,2,,,,,,,,,0,,,54,45
143040,note_on,480,0,1,,,,,,,,,0,,,57,36
143200,note_on,160,0,1,,,,,,,,,0,,,57,0
143200,note_on,0,0,1,,,,,,,,,0,,,61,36
143360,note_on,0,0,1,,,,,,,,,0,,,66,37
143360,note_on,160,0,1,,,,,,,,,0,,,61,0
143520,note_on,0,0,1,,,,,,,,,0,,,57,37
143520,note_on,160,0,1,,,,,,,,,0,,,66,0
143960,control_change,920,0,2,,,,,,,,,0,64,0,,
144000,note_on,0,0,1,,,,,,,,,0,,,67,54
144000,note_on,0,0,1,,,,,,,,,0,,,69,0
144000,note_on,480,0,1,,,,,,,,,0,,,57,0
144000,note_on,0,0,2,,,,,,,,,0,,,35,54
144000,note_on,40,0,2,,,,,,,,,0,,,54,0
144008,control_change,8,0,2,,,,,,,,,0,64,126,,
144240,note_on,232,0,2,,,,,,,,,0,,,35,0
144480,note_on,0,0,2,,,,,,,,,0,,,50,45
144480,note_on,240,0,2,,,,,,,,,0,,,47,40
144480,note_on,480,0,1,,,,,,,,,0,,,55,36
144640,note_on,0,0,1,,,,,,,,,0,,,59,36
144640,note_on,160,0,1,,,,,,,,,0,,,55,0
144800,note_on,0,0,1,,,,,,,,,0,,,62,36
144800,note_on,160,0,1,,,,,,,,,0,,,59,0
144960,note_on,160,0,1,,,,,,,,,0,,,62,0
144960,note_on,0,0,1,,,,,,,,,0,,,55,37
145368,control_change,888,0,2,,,,,,,,,0,64,0,,
145440,note_on,72,0,2,,,,,,,,,0,,,50,0
145440,note_on,0,0,2,,,,,,,,,0,,,47,0
145440,note_on,0,0,2,,,,,,,,,0,,,37,54
145440,control_change,0,0,2,,,,,,,,,0,64,125,,
145440,note_on,480,0,1,,,,,,,,,0,,,55,0
145440,note_on,0,0,1,,,,,,,,,0,,,67,0
145440,note_on,0,0,1,,,,,,,,,0,,,61,45
145440,note_on,0,0,1,,,,,,,,,0,,,65,55
145448,set_tempo,2880,1,0,,,,,,315789,,,,,,,
145680,note_on,0,0,1,,,,,,,,,0,,,56,45
145680,note_on,240,0,1,,,,,,,,,0,,,61,0
145920,note_on,240,0,1,,,,,,,,,0,,,56,0
145920,note_on,0,0,1,,,,,,,,,0,,,68,55
145920,note_on,0,0,1,,,,,,,,,0,,,61,45
145920,note_on,0,0,1,,,,,,,,,0,,,65,0
145920,note_on,480,0,2,,,,,,,,,0,,,37,0
145920,note_on,0,0,2,,,,,,,,,0,,,53,45
145920,note_on,0,0,2,,,,,,,,,0,,,49,40
146160,note_on,240,0,1,,,,,,,,,0,,,61,0
146160,note_on,0,0,1,,,,,,,,,0,,,56,45
146400,note_on,0,0,2,,,,,,,,,0,,,53,0
146400,note_on,0,0,1,,,,,,,,,0,,,65,54
146400,note_on,240,0,1,,,,,,,,,0,,,56,0
146400,note_on,480,0,2,,,,,,,,,0,,,49,0
146400,note_on,0,0,1,,,,,,,,,0,,,68,0
146400,note_on,0,0,2,,,,,,,,,0,,,37,45
146400,note_on,0,0,1,,,,,,,,,0,,,61,45
146640,note_on,0,0,1,,,,,,,,,0,,,56,45
146640,note_on,240,0,1,,,,,,,,,0,,,61,0
146720,control_change,320,0,2,,,,,,,,,0,64,0,,
146880,note_on,160,0,2,,,,,,,,,0,,,37,0
146880,note_on,0,0,2,,,,,,,,,0,,,42,45
146880,set_tempo,1432,1,0,,,,,,333333,,,,,,,
146880,note_on,0,0,1,,,,,,,,,0,,,66,54
146880,note_on,0,0,1,,,,,,,,,0,,,65,0
146880,note_on,240,0,1,,,,,,,,,0,,,56,0
146922,control_change,42,0,2,,,,,,,,,0,64,127,,
147360,note_on,438,0,2,,,,,,,,,0,,,42,0
147360,note_on,0,0,2,,,,,,,,,0,,,49,36
147360,note_on,0,0,2,,,,,,,,,0,,,45,32
147360,note_on,480,0,1,,,,,,,,,0,,,54,36
147520,note_on,160,0,1,,,,,,,,,0,,,54,0
147520,note_on,0,0,1,,,,,,,,,0,,,57,36
147680,note_on,160,0,1,,,,,,,,,0,,,57,0
147680,note_on,0,0,1,,,,,,,,,0,,,61,36
147840,note_on,160,0,1,,,,,,,,,0,,,61,0
147840,note_on,0,0,1,,,,,,,,,0,,,54,36
148232,control_change,872,0,2,,,,,,,,,0,64,0,,
148312,control_change,80,0,2,,,,,,,,,0,64,127,,
148320,note_on,0,0,2,,,,,,,,,0,,,35,86
148320,note_on,0,0,2,,,,,,,,,0,,,45,0
148320,note_on,8,0,2,,,,,,,,,0,,,49,0
148320,note_on,0,0,1,,,,,,,,,0,,,66,102
148320,note_on,0,0,1,,,,,,,,,0,,,66,0
148320,note_on,480,0,1,,,,,,,,,0,,,54,0
148328,set_tempo,1448,1,0,,,,,,400000,,,,,,,
148800,note_on,480,0,1,,,,,,,,,0,,,54,81
148800,note_on,0,0,2,,,,,,,,,0,,,47,64
148800,note_on,0,0,2,,,,,,,,,0,,,50,64
148800,note_on,0,0,2,,,,,,,,,0,,,53,72
148800,note_on,480,0,2,,,,,,,,,0,,,35,0
148808,set_tempo,480,1,0,,,,,,334262,,,,,,,
148960,note_on,160,0,1,,,,,,,,,0,,,54,0
148960,note_on,0,0,1,,,,,,,,,0,,,59,72
149120,note_on,0,0,1,,,,,,,,,0,,,62,72
149120,note_on,160,0,1,,,,,,,,,0,,,59,0
149280,note_on,160,0,1,,,,,,,,,0,,,62,0
149280,note_on,0,0,1,,,,,,,,,0,,,54,81
149680,control_change,880,0,2,,,,,,,,,0,64,0,,
149760,note_on,0,0,1,,,,,,,,,0,,,66,54
149760,note_on,0,0,2,,,,,,,,,0,,,30,72
149760,note_on,0,0,2,,,,,,,,,0,,,50,0
149760,note_on,0,0,2,,,,,,,,,0,,,53,0
149760,note_on,0,0,1,,,,,,,,,0,,,66,0
149760,note_on,480,0,1,,,,,,,,,0,,,54,0
149760,note_on,80,0,2,,,,,,,,,0,,,47,0
150240,note_on,480,0,2,,,,,,,,,0,,,30,0
150240,note_on,0,0,2,,,,,,,,,0,,,45,42
150240,note_on,0,0,2,,,,,,,,,0,,,49,47
150240,note_on,480,0,1,,,,,,,,,0,,,54,36
150400,note_on,0,0,1,,,,,,,,,0,,,57,36
150400,note_on,160,0,1,,,,,,,,,0,,,54,0
150560,note_on,160,0,1,,,,,,,,,0,,,57,0
150560,note_on,0,0,1,,,,,,,,,0,,,61,36
150720,note_on,0,0,1,,,,,,,,,0,,,54,36
150720,note_on,160,0,1,,,,,,,,,0,,,61,0
151192,control_change,952,0,2,,,,,,,,,0,64,126,,
151200,note_on,0,0,1,,,,,,,,,0,,,65,72
151200,note_on,0,0,1,,,,,,,,,0,,,56,54
151200,note_on,8,0,2,,,,,,,,,0,,,45,0
151200,note_on,0,0,2,,,,,,,,,0,,,49,0
151200,note_on,0,0,2,,,,,,,,,0,,,37,71
151200,note_on,480,0,1,,,,,,,,,0,,,54,0
151200,note_on,0,0,1,,,,,,,,,0,,,66,0
151208,set_tempo,2400,1,0,,,,,,316623,,,,,,,
151360,note_on,0,0,1,,,,,,,,,0,,,57,56
151360,note_on,160,0,1,,,,,,,,,0,,,56,0
151520,note_on,0,0,1,,,,,,,,,0,,,59,59
151520,note_on,160,0,1,,,,,,,,,0,,,57,0
151680,note_on,0,0,2,,,,,,,,,0,,,49,71
151680,note_on,160,0,1,,,,,,,,,0,,,59,0
151680,note_on,0,0,1,,,,,,,,,0,,,61,62
151680,note_on,480,0,2,,,,,,,,,0,,,37,0
151840,note_on,160,0,1,,,,,,,,,0,,,61,0
151840,note_on,0,0,1,,,,,,,,,0,,,62,64
152000,note_on,0,0,1,,,,,,,,,0,,,61,62
152000,note_on,160,0,1,,,,,,,,,0,,,62,0
152160,note_on,160,0,1,,,,,,,,,0,,,61,0
152160,note_on,0,0,1,,,,,,,,,0,,,59,59
152320,note_on,160,0,1,,,,,,,,,0,,,59,0
152320,note_on,0,0,1,,,,,,,,,0,,,57,56
152480,note_on,160,0,1,,,,,,,,,0,,,57,0
152480,note_on,0,0,1,,,,,,,,,0,,,56,54
152560,control_change,880,0,2,,,,,,,,,0,64,0,,
152640,note_on,80,0,2,,,,,,,,,0,,,49,0
152640,note_on,0,0,2,,,,,,,,,0,,,30,72
152640,note_on,0,0,1,,,,,,,,,0,,,66,54
152640,note_on,160,0,1,,,,,,,,,0,,,56,0
152640,set_tempo,1432,1,0,,,,,,333333,,,,,,,
152640,note_on,0,0,1,,,,,,,,,0,,,65,0
153120,note_on,480,0,1,,,,,,,,,0,,,54,36
153120,note_on,0,0,2,,,,,,,,,0,,,45,48
153120,note_on,480,0,2,,,,,,,,,0,,,30,0
153120,note_on,0,0,2,,,,,,,,,0,,,49,54
153120,note_on,0,0,2,,,,,,,,,0,,,42,48
153280,note_on,160,0,1,,,,,,,,,0,,,54,0
153280,note_on,0,0,1,,,,,,,,,0,,,57,36
153440,note_on,0,0,1,,,,,,,,,0,,,61,36
153440,note_on,160,0,1,,,,,,,,,0,,,57,0
153600,note_on,160,0,1,,,,,,,,,0,,,61,0
153600,note_on,0,0,1,,,,,,,,,0,,,54,36
154080,note_on,480,0,1,,,,,,,,,0,,,54,0
154080,note_on,0,0,1,,,,,,,,,0,,,66,0
154080,note_on,0,0,2,,,,,,,,,0,,,45,0
154080,note_on,0,0,2,,,,,,,,,0,,,49,0
154080,note_on,0,0,2,,,,,,,,,0,,,35,94
154080,note_on,0,0,1,,,,,,,,,0,,,66,101
154080,set_tempo,1440,1,0,,,,,,401338,,,,,,,
154080,note_on,960,0,2,,,,,,,,,0,,,42,0
154088,control_change,8,0,2,,,,,,,,,0,64,127,,
154560,note_on,480,0,1,,,,,,,,,0,,,54,81
154560,note_on,472,0,2,,,,,,,,,0,,,35,0
154560,note_on,0,0,2,,,,,,,,,0,,,47,72
154560,note_on,0,0,2,,,,,,,,,0,,,50,72
154560,note_on,0,0,2,,,,,,,,,0,,,53,81
154568,set_tempo,488,1,0,,,,,,333333,,,,,,,
154720,note_on,0,0,1,,,,,,,,,0,,,59,74
154720,note_on,160,0,1,,,,,,,,,0,,,54,0
154880,note_on,0,0,1,,,,,,,,,0,,,62,74
154880,note_on,160,0,1,,,,,,,,,0,,,59,0
155040,note_on,0,0,1,,,,,,,,,0,,,54,81
155040,note_on,160,0,1,,,,,,,,,0,,,62,0
155432,control_change,872,0,2,,,,,,,,,0,64,0,,
155520,note_on,480,0,1,,,,,,,,,0,,,54,0
155520,note_on,0,0,1,,,,,,,,,0,,,66,54
155520,note_on,0,0,1,,,,,,,,,0,,,66,0
155520,note_on,0,0,2,,,,,,,,,0,,,30,72
155520,note_on,88,0,2,,,,,,,,,0,,,47,0
155520,note_on,0,0,2,,,,,,,,,0,,,50,0
155520,note_on,0,0,2,,,,,,,,,0,,,53,0
156000,note_on,0,0,2,,,,,,,,,0,,,49,49
156000,note_on,480,0,2,,,,,,,,,0,,,30,0
156000,note_on,0,0,2,,,,,,,,,0,,,45,44
156000,note_on,480,0,1,,,,,,,,,0,,,54,36
156160,note_on,160,0,1,,,,,,,,,0,,,54,0
156160,note_on,0,0,1,,,,,,,,,0,,,57,36
156320,note_on,160,0,1,,,,,,,,,0,,,57,0
156320,note_on,0,0,1,,,,,,,,,0,,,61,36
156480,note_on,160,0,1,,,,,,,,,0,,,61,0
156480,note_on,0,0,1,,,,,,,,,0,,,54,36
156960,control_change,0,0,2,,,,,,,,,0,64,127,,
156960,note_on,0,0,1,,,,,,,,,0,,,65,72
156960,note_on,0,0,1,,,,,,,,,0,,,56,54
156960,note_on,0,0,1,,,,,,,,,0,,,66,0
156960,note_on,960,0,2,,,,,,,,,0,,,45,0
156960,note_on,0,0,2,,,,,,,,,0,,,49,0
156960,note_on,0,0,2,,,,,,,,,0,,,37,72
156960,set_tempo,2392,1,0,,,,,,322581,,,,,,,
156960,note_on,480,0,1,,,,,,,,,0,,,54,0
157120,note_on,0,0,1,,,,,,,,,0,,,57,56
157120,note_on,160,0,1,,,,,,,,,0,,,56,0
157280,note_on,160,0,1,,,,,,,,,0,,,57,0
157280,note_on,0,0,1,,,,,,,,,0,,,59,59
157440,note_on,160,0,1,,,,,,,,,0,,,59,0
157440,note_on,0,0,2,,,,,,,,,0,,,49,72
157440,note_on,480,0,2,,,,,,,,,0,,,37,0
157440,note_on,0,0,1,,,,,,,,,0,,,61,62
157600,note_on,160,0,1,,,,,,,,,0,,,61,0
157600,note_on,0,0,1,,,,,,,,,0,,,62,64
157760,note_on,160,0,1,,,,,,,,,0,,,62,0
157760,note_on,0,0,1,,,,,,,,,0,,,61,62
157920,note_on,160,0,1,,,,,,,,,0,,,61,0
157920,note_on,0,0,1,,,,,,,,,0,,,59,59
158080,note_on,0,0,1,,,,,,,,,0,,,57,56
158080,note_on,160,0,1,,,,,,,,,0,,,59,0
158240,note_on,0,0,1,,,,,,,,,0,,,56,54
158240,note_on,160,0,1,,,,,,,,,0,,,57,0
158304,control_change,864,0,2,,,,,,,,,0,64,0,,
158400,note_on,0,0,1,,,,,,,,,0,,,66,54
158400,note_on,0,0,2,,,,,,,,,0,,,30,72
158400,note_on,96,0,2,,,,,,,,,0,,,49,0
158400,note_on,0,0,1,,,,,,,,,0,,,65,0
158400,note_on,160,0,1,,,,,,,,,0,,,56,0
158408,set_tempo,1448,1,0,,,,,,333333,,,,,,,
158880,note_on,0,0,2,,,,,,,,,0,,,49,45
158880,note_on,0,0,2,,,,,,,,,0,,,45,40
158880,note_on,0,0,2,,,,,,,,,0,,,42,40
158880,note_on,480,0,1,,,,,,,,,0,,,54,36
158880,note_on,480,0,2,,,,,,,,,0,,,30,0
159040,note_on,0,0,1,,,,,,,,,0,,,57,36
159040,note_on,160,0,1,,,,,,,,,0,,,54,0
159200,note_on,0,0,1,,,,,,,,,0,,,61,36
159200,note_on,160,0,1,,,,,,,,,0,,,57,0
159360,set_tempo,952,1,0,,,,,,343840,,,,,,,
159360,note_on,160,0,1,,,,,,,,,0,,,61,0
159360,note_on,0,0,1,,,,,,,,,0,,,54,36
159840,note_on,0,0,2,,,,,,,,,0,,,49,0
159840,note_on,0,0,2,,,,,,,,,0,,,45,0
159840,note_on,960,0,2,,,,,,,,,0,,,42,0
159840,note_on,0,0,2,,,,,,,,,0,,,41,90
159840,note_on,480,0,1,,,,,,,,,0,,,54,0
159840,note_on,0,0,1,,,,,,,,,0,,,73,90
159840,note_on,0,0,1,,,,,,,,,0,,,66,0
159840,control_change,0,0,2,,,,,,,,,0,64,127,,
159840,set_tempo,480,1,0,,,,,,333333,,,,,,,
160320,note_on,480,0,1,,,,,,,,,0,,,61,72
160320,note_on,0,0,2,,,,,,,,,0,,,56,72
160320,note_on,0,0,2,,,,,,,,,0,,,53,64
160320,note_on,480,0,2,,,,,,,,,0,,,41,0
160480,note_on,160,0,1,,,,,,,,,0,,,61,0
160480,note_on,0,0,1,,,,,,,,,0,,,65,68
160640,note_on,160,0,1,,,,,,,,,0,,,65,0
160640,note_on,0,0,1,,,,,,,,,0,,,68,68
160800,note_on,160,0,1,,,,,,,,,0,,,68,0
160800,note_on,0,0,1,,,,,,,,,0,,,61,72
161144,control_change,824,0,2,,,,,,,,,0,64,0,,
161280,note_on,0,0,2,,,,,,,,,0,,,53,0
161280,note_on,0,0,2,,,,,,,,,0,,,40,91
161280,control_change,0,0,2,,,,,,,,,0,64,127,,
161280,note_on,136,0,2,,,,,,,,,0,,,56,0
161280,note_on,0,0,1,,,,,,,,,0,,,70,99
161280,note_on,0,0,1,,,,,,,,,0,,,73,0
161280,note_on,480,0,1,,,,,,,,,0,,,61,0
161760,note_on,0,0,2,,,,,,,,,0,,,52,60
161760,note_on,0,0,2,,,,,,,,,0,,,55,68
161760,note_on,480,0,1,,,,,,,,,0,,,58,85
161760,note_on,480,0,2,,,,,,,,,0,,,40,0
161920,note_on,160,0,1,,,,,,,,,0,,,58,0
161920,note_on,0,0,1,,,,,,,,,0,,,61,79
162080,note_on,160,0,1,,,,,,,,,0,,,61,0
162080,note_on,0,0,1,,,,,,,,,0,,,67,79
162240,note_on,160,0,1,,,,,,,,,0,,,67,0
162240,note_on,0,0,1,,,,,,,,,0,,,58,85
162616,control_change,856,0,2,,,,,,,,,0,64,0,,
162720,note_on,480,0,1,,,,,,,,,0,,,58,0
162720,note_on,0,0,1,,,,,,,,,0,,,70,0
162720,note_on,0,0,2,,,,,,,,,0,,,52,0
162720,note_on,104,0,2,,,,,,,,,0,,,55,0
162720,note_on,0,0,1,,,,,,,,,0,,,71,90
162720,note_on,0,0,2,,,,,,,,,0,,,50,81
162720,control_change,0,0,2,,,,,,,,,0,64,127,,
162728,set_tempo,2888,1,0,,,,,,315789,,,,,,,
162960,note_on,240,0,2,,,,,,,,,0,,,54,57
162960,note_on,0,0,2,,,,,,,,,0,,,59,64
162960,note_on,240,0,1,,,,,,,,,0,,,62,64
162960,note_on,0,0,1,,,,,,,,,0,,,66,72
163120,control_change,160,0,2,,,,,,,,,0,64,0,,
163200,note_on,240,0,1,,,,,,,,,0,,,66,0
163200,note_on,0,0,1,,,,,,,,,0,,,71,0
163200,note_on,0,0,2,,,,,,,,,0,,,49,81
163200,note_on,0,0,2,,,,,,,,,0,,,50,0
163200,note_on,80,0,2,,,,,,,,,0,,,59,0
163200,note_on,0,0,1,,,,,,,,,0,,,73,90
163200,note_on,0,0,1,,,,,,,,,0,,,62,0
163200,note_on,0,0,2,,,,,,,,,0,,,54,0
163234,control_change,34,0,2,,,,,,,,,0,64,127,,
163440,note_on,240,0,1,,,,,,,,,0,,,64,64
163440,note_on,0,0,2,,,,,,,,,0,,,58,64
163440,note_on,206,0,2,,,,,,,,,0,,,54,57
163440,note_on,0,0,1,,,,,,,,,0,,,66,72
163611,control_change,171,0,2,,,,,,,,,0,64,0,,
163680,note_on,0,0,1,,,,,,,,,0,,,74,90
163680,note_on,69,0,2,,,,,,,,,0,,,58,0
163680,note_on,0,0,2,,,,,,,,,0,,,54,0
163680,note_on,0,0,2,,,,,,,,,0,,,49,0
163680,note_on,0,0,2,,,,,,,,,0,,,47,81
163680,note_on,0,0,1,,,,,,,,,0,,,73,0
163680,note_on,0,0,1,,,,,,,,,0,,,64,0
163680,note_on,240,0,1,,,,,,,,,0,,,66,0
163737,control_change,57,0,2,,,,,,,,,0,64,127,,
163920,note_on,183,0,2,,,,,,,,,0,,,54,57
163920,note_on,0,0,2,,,,,,,,,0,,,59,64
163920,note_on,240,0,1,,,,,,,,,0,,,62,64
163920,note_on,0,0,1,,,,,,,,,0,,,66,72
164000,control_change,80,0,2,,,,,,,,,0,64,0,,
164160,note_on,0,0,1,,,,,,,,,0,,,62,0
164160,note_on,240,0,1,,,,,,,,,0,,,66,0
164160,note_on,0,0,1,,,,,,,,,0,,,73,90
164160,set_tempo,1432,1,0,,,,,,333333,,,,,,,
164160,note_on,160,0,2,,,,,,,,,0,,,59,0
164160,control_change,0,0,2,,,,,,,,,0,64,127,,
164160,note_on,0,0,2,,,,,,,,,0,,,42,81
164160,note_on,0,0,2,,,,,,,,,0,,,47,0
164160,note_on,0,0,1,,,,,,,,,0,,,74,0
164160,note_on,0,0,2,,,,,,,,,0,,,54,0
164640,note_on,0,0,2,,,,,,,,,0,,,58,72
164640,note_on,0,0,2,,,,,,,,,0,,,54,64
164640,note_on,480,0,2,,,,,,,,,0,,,42,0
164640,note_on,480,0,1,,,,,,,,,0,,,61,72
164800,note_on,0,0,1,,,,,,,,,0,,,66,72
164800,note_on,160,0,1,,,,,,,,,0,,,61,0
164960,note_on,160,0,1,,,,,,,,,0,,,66,0
164960,note_on,0,0,1,,,,,,,,,0,,,70,72
165120,note_on,160,0,1,,,,,,,,,0,,,70,0
165120,note_on,0,0,1,,,,,,,,,0,,,61,72
165120,set_tempo,960,1,0,,,,,,400000,,,,,,,
165520,control_change,880,0,2,,,,,,,,,0,64,0,,
165600,note_on,0,0,1,,,,,,,,,0,,,73,0
165600,note_on,0,0,1,,,,,,,,,0,,,78,90
165600,set_tempo,480,1,0,,,,,,333333,,,,,,,
165600,note_on,480,0,1,,,,,,,,,0,,,61,0
165600,note_on,80,0,2,,,,,,,,,0,,,58,0
165600,note_on,0,0,2,,,,,,,,,0,,,54,0
165600,note_on,0,0,2,,,,,,,,,0,,,46,81
165600,control_change,0,0,2,,,,,,,,,0,64,127,,
166080,note_on,480,0,2,,,,,,,,,0,,,46,0
166080,note_on,0,0,2,,,,,,,,,0,,,61,72
166080,note_on,0,0,2,,,,,,,,,0,,,58,64
166080,note_on,480,0,1,,,,,,,,,0,,,66,72
166240,note_on,160,0,1,,,,,,,,,0,,,66,0
166240,note_on,0,0,1,,,,,,,,,0,,,70,66
166400,note_on,160,0,1,,,,,,,,,0,,,70,0
166400,note_on,0,0,1,,,,,,,,,0,,,73,66
166560,note_on,160,0,1,,,,,,,,,0,,,73,0
166560,note_on,0,0,1,,,,,,,,,0,,,66,72
166936,control_change,856,0,2,,,,,,,,,0,64,0,,
167040,control_change,0,0,2,,,,,,,,,0,64,127,,
167040,note_on,104,0,2,,,,,,,,,0,,,58,0
167040,note_on,0,0,2,,,,,,,,,0,,,61,0
167040,note_on,480,0,1,,,,,,,,,0,,,66,0
167040,note_on,0,0,1,,,,,,,,,0,,,78,0
167040,note_on,0,0,1,,,,,,,,,0,,,75,101
167040,note_on,0,0,2,,,,,,,,,0,,,45,89
167520,note_on,480,0,1,,,,,,,,,0,,,63,85
167520,note_on,0,0,2,,,,,,,,,0,,,60,69
167520,note_on,0,0,2,,,,,,,,,0,,,57,61
167520,note_on,480,0,2,,,,,,,,,0,,,45,0
167680,note_on,0,0,1,,,,,,,,,0,,,66,73
167680,note_on,160,0,1,,,,,,,,,0,,,63,0
167840,note_on,0,0,1,,,,,,,,,0,,,72,68
167840,note_on,160,0,1,,,,,,,,,0,,,66,0
168000,note_on,160,0,1,,,,,,,,,0,,,72,0
168000,note_on,0,0,1,,,,,,,,,0,,,63,85
168416,control_change,896,0,2,,,,,,,,,0,64,0,,
168480,note_on,480,0,1,,,,,,,,,0,,,63,0
168480,note_on,0,0,1,,,,,,,,,0,,,75,0
168480,note_on,0,0,1,,,,,,,,,0,,,76,96
168480,note_on,0,0,2,,,,,,,,,0,,,55,90
168480,note_on,0,0,2,,,,,,,,,0,,,60,0
168480,note_on,64,0,2,,,,,,,,,0,,,57,0
168480,set_tempo,2880,1,0,,,,,,311688,,,,,,,
168480,control_change,0,0,2,,,,,,,,,0,64,127,,
168720,note_on,240,0,2,,,,,,,,,0,,,64,81
168720,note_on,0,0,2,,,,,,,,,0,,,59,72
168720,note_on,240,0,1,,,,,,,,,0,,,67,72
168720,note_on,0,0,1,,,,,,,,,0,,,71,81
168891,control_change,171,0,2,,,,,,,,,0,64,0,,
168960,note_on,69,0,2,,,,,,,,,0,,,59,0
168960,note_on,0,0,2,,,,,,,,,0,,,64,0
168960,note_on,0,0,2,,,,,,,,,0,,,55,0
168960,note_on,0,0,2,,,,,,,,,0,,,54,90
168960,note_on,0,0,1,,,,,,,,,0,,,78,96
168960,note_on,240,0,1,,,,,,,,,0,,,71,0
168960,note_on,0,0,1,,,,,,,,,0,,,67,0
168960,note_on,0,0,1,,,,,,,,,0,,,76,0
168971,control_change,11,0,2,,,,,,,,,0,64,127,,
169200,note_on,0,0,1,,,,,,,,,0,,,71,81
169200,note_on,229,0,2,,,,,,,,,0,,,63,81
169200,note_on,240,0,1,,,,,,,,,0,,,69,72
169200,note_on,0,0,2,,,,,,,,,0,,,59,72
169371,control_change,171,0,2,,,,,,,,,0,64,0,,
169440,note_on,69,0,2,,,,,,,,,0,,,59,0
169440,note_on,0,0,1,,,,,,,,,0,,,79,96
169440,note_on,0,0,1,,,,,,,,,0,,,69,0
169440,note_on,240,0,1,,,,,,,,,0,,,71,0
169440,note_on,0,0,2,,,,,,,,,0,,,52,90
169440,note_on,0,0,2,,,,,,,,,0,,,54,0
169440,note_on,0,0,2,,,,,,,,,0,,,63,0
169440,note_on,0,0,1,,,,,,,,,0,,,78,0
169463,control_change,23,0,2,,,,,,,,,0,64,126,,
169680,note_on,0,0,1,,,,,,,,,0,,,71,81
169680,note_on,240,0,1,,,,,,,,,0,,,67,72
169680,note_on,0,0,2,,,,,,,,,0,,,64,81
169680,note_on,217,0,2,,,,,,,,,0,,,59,72
169760,control_change,80,0,2,,,,,,,,,0,64,0,,
169920,note_on,0,0,2,,,,,,,,,0,,,47,90
169920,set_tempo,1440,1,0,,,,,,334262,,,,,,,
169920,note_on,0,0,1,,,,,,,,,0,,,67,0
169920,note_on,0,0,1,,,,,,,,,0,,,79,0
169920,note_on,0,0,1,,,,,,,,,0,,,78,94
169920,note_on,240,0,1,,,,,,,,,0,,,71,0
169920,note_on,0,0,2,,,,,,,,,0,,,52,0
169920,note_on,0,0,2,,,,,,,,,0,,,59,0
169920,note_on,160,0,2,,,,,,,,,0,,,64,0
169962,control_change,42,0,2,,,,,,,,,0,64,126,,
170400,note_on,0,0,2,,,,,,,,,0,,,62,76
170400,note_on,0,0,2,,,,,,,,,0,,,59,68
170400,note_on,480,0,1,,,,,,,,,0,,,66,76
170400,note_on,438,0,2,,,,,,,,,0,,,47,0
170560,note_on,160,0,1,,,,,,,,,0,,,66,0
170560,note_on,0,0,1,,,,,,,,,0,,,71,76
170720,note_on,160,0,1,,,,,,,,,0,,,71,0
170720,note_on,0,0,1,,,,,,,,,0,,,74,76
170868,set_tempo,948,1,0,,,,,,352941,,,,,,,
170880,note_on,160,0,1,,,,,,,,,0,,,74,0
170880,note_on,0,0,1,,,,,,,,,0,,,66,76
171280,control_change,880,0,2,,,,,,,,,0,64,0,,
171360,note_on,80,0,2,,,,,,,,,0,,,62,0
171360,note_on,0,0,2,,,,,,,,,0,,,59,0
171360,note_on,0,0,2,,,,,,,,,0,,,35,81
171360,set_tempo,492,1,0,,,,,,320856,,,,,,,
171360,note_on,0,0,1,,,,,,,,,0,,,74,90
171360,note_on,0,0,1,,,,,,,,,0,,,78,0
171360,note_on,480,0,1,,,,,,,,,0,,,66,0
171377,control_change,17,0,2,,,,,,,,,0,64,126,,
171600,note_on,0,0,2,,,,,,,,,0,,,47,65
171600,note_on,0,0,1,,,,,,,,,0,,,66,64
171600,note_on,240,0,1,,,,,,,,,0,,,68,72
171600,note_on,223,0,2,,,,,,,,,0,,,35,0
171807,control_change,207,0,2,,,,,,,,,0,64,0,,
171840,note_on,0,0,1,,,,,,,,,0,,,74,0
171840,note_on,0,0,2,,,,,,,,,0,,,37,81
171840,note_on,0,0,1,,,,,,,,,0,,,73,90
171840,note_on,240,0,1,,,,,,,,,0,,,66,0
171840,note_on,0,0,1,,,,,,,,,0,,,68,0
171840,note_on,33,0,2,,,,,,,,,0,,,47,0
171881,control_change,41,0,2,,,,,,,,,0,64,126,,
172080,note_on,0,0,2,,,,,,,,,0,,,49,64
172080,note_on,199,0,2,,,,,,,,,0,,,37,0
172080,note_on,240,0,1,,,,,,,,,0,,,68,72
172080,note_on,0,0,1,,,,,,,,,0,,,66,64
172287,control_change,207,0,2,,,,,,,,,0,64,0,,
172320,note_on,240,0,1,,,,,,,,,0,,,66,0
172320,note_on,0,0,1,,,,,,,,,0,,,71,90
172320,note_on,0,0,1,,,,,,,,,0,,,73,0
172320,note_on,0,0,1,,,,,,,,,0,,,68,0
172320,note_on,0,0,2,,,,,,,,,0,,,38,81
172320,note_on,33,0,2,,,,,,,,,0,,,49,0
172370,control_change,50,0,2,,,,,,,,,0,64,126,,
172560,note_on,0,0,2,,,,,,,,,0,,,50,64
172560,note_on,190,0,2,,,,,,,,,0,,,38,0
172560,note_on,0,0,1,,,,,,,,,0,,,66,64
172560,note_on,240,0,1,,,,,,,,,0,,,68,72
172750,control_change,190,0,2,,,,,,,,,0,64,0,,
172800,note_on,50,0,2,,,,,,,,,0,,,50,0
172800,note_on,240,0,1,,,,,,,,,0,,,66,0
172800,note_on,0,0,1,,,,,,,,,0,,,68,0
172800,note_on,0,0,1,,,,,,,,,0,,,71,0
172800,note_on,0,0,1,,,,,,,,,0,,,73,96
172800,note_on,0,0,2,,,,,,,,,0,,,37,81
172800,control_change,0,0,2,,,,,,,,,0,64,126,,
172800,set_tempo,1440,1,0,,,,,,333333,,,,,,,
173280,note_on,0,0,2,,,,,,,,,0,,,56,67
173280,note_on,0,0,2,,,,,,,,,0,,,53,59
173280,note_on,0,0,2,,,,,,,,,0,,,49,59
173280,note_on,480,0,2,,,,,,,,,0,,,37,0
173280,note_on,480,0,1,,,,,,,,,0,,,61,68
173440,note_on,0,0,1,,,,,,,,,0,,,65,68
173440,note_on,160,0,1,,,,,,,,,0,,,61,0
173600,note_on,0,0,1,,,,,,,,,0,,,68,68
173600,note_on,160,0,1,,,,,,,,,0,,,65,0
173760,note_on,0,0,1,,,,,,,,,0,,,61,68
173760,note_on,160,0,1,,,,,,,,,0,,,68,0
173768,set_tempo,968,1,0,,,,,,351906,,,,,,,
174128,control_change,848,0,2,,,,,,,,,0,64,0,,
174240,note_on,480,0,1,,,,,,,,,0,,,61,0
174240,set_tempo,472,1,0,,,,,,322581,,,,,,,
174240,note_on,0,0,1,,,,,,,,,0,,,73,0
174240,note_on,0,0,1,,,,,,,,,0,,,69,90
174240,note_on,0,0,2,,,,,,,,,0,,,30,81
174240,note_on,0,0,2,,,,,,,,,0,,,49,0
174240,note_on,0,0,2,,,,,,,,,0,,,53,0
174240,note_on,112,0,2,,,,,,,,,0,,,56,0
174248,control_change,8,0,2,,,,,,,,,0,64,126,,
174480,note_on,232,0,2,,,,,,,,,0,,,30,0
174480,note_on,240,0,1,,,,,,,,,0,,,61,64
174480,note_on,0,0,1,,,,,,,,,0,,,63,72
174480,note_on,0,0,2,,,,,,,,,0,,,42,64
174679,control_change,199,0,2,,,,,,,,,0,64,0,,
174720,note_on,41,0,2,,,,,,,,,0,,,42,0
174720,note_on,240,0,1,,,,,,,,,0,,,63,0
174720,note_on,0,0,1,,,,,,,,,0,,,69,0
174720,note_on,0,0,1,,,,,,,,,0,,,61,0
174720,note_on,0,0,1,,,,,,,,,0,,,68,90
174720,note_on,0,0,2,,,,,,,,,0,,,32,81
174753,control_change,33,0,2,,,,,,,,,0,64,126,,
174960,note_on,207,0,2,,,,,,,,,0,,,32,0
174960,note_on,240,0,1,,,,,,,,,0,,,61,64
174960,note_on,0,0,1,,,,,,,,,0,,,63,72
174960,note_on,0,0,2,,,,,,,,,0,,,44,63
175159,control_change,199,0,2,,,,,,,,,0,64,0,,
175200,note_on,0,0,1,,,,,,,,,0,,,68,0
175200,note_on,240,0,1,,,,,,,,,0,,,63,0
175200,note_on,0,0,1,,,,,,,,,0,,,61,0
175200,note_on,0,0,2,,,,,,,,,0,,,33,81
175200,note_on,41,0,2,,,,,,,,,0,,,44,0
175200,note_on,0,0,1,,,,,,,,,0,,,66,90
175233,control_change,33,0,2,,,,,,,,,0,64,126,,
175440,note_on,240,0,1,,,,,,,,,0,,,61,64
175440,note_on,0,0,2,,,,,,,,,0,,,45,63
175440,note_on,207,0,2,,,,,,,,,0,,,33,0
175440,note_on,0,0,1,,,,,,,,,0,,,63,72
175564,control_change,124,0,2,,,,,,,,,0,64,0,,
175680,note_on,240,0,1,,,,,,,,,0,,,63,0
175680,note_on,0,0,1,,,,,,,,,0,,,61,0
175680,note_on,0,0,2,,,,,,,,,0,,,32,81
175680,control_change,0,0,2,,,,,,,,,0,64,126,,
175680,set_tempo,1440,1,0,,,,,,333333,,,,,,,
175680,note_on,0,0,1,,,,,,,,,0,,,68,96
175680,note_on,0,0,1,,,,,,,,,0,,,66,0
175680,note_on,116,0,2,,,,,,,,,0,,,45,0
176160,note_on,480,0,2,,,,,,,,,0,,,32,0
176160,note_on,0,0,2,,,,,,,,,0,,,48,65
176160,note_on,0,0,2,,,,,,,,,0,,,51,73
176160,note_on,0,0,2,,,,,,,,,0,,,44,65
176160,note_on,480,0,1,,,,,,,,,0,,,56,72
176320,note_on,160,0,1,,,,,,,,,0,,,56,0
176320,note_on,0,0,1,,,,,,,,,0,,,60,72
176480,note_on,0,0,1,,,,,,,,,0,,,63,72
176480,note_on,160,0,1,,,,,,,,,0,,,60,0
176640,set_tempo,960,1,0,,,,,,376176,,,,,,,
176640,note_on,0,0,1,,,,,,,,,0,,,56,72
176640,note_on,160,0,1,,,,,,,,,0,,,63,0
177024,control_change,864,0,2,,,,,,,,,0,64,0,,
177120,note_on,0,0,1,,,,,,,,,0,,,68,0
177120,note_on,480,0,1,,,,,,,,,0,,,56,0
177120,note_on,0,0,1,,,,,,,,,0,,,65,72
177120,note_on,96,0,2,,,,,,,,,0,,,44,0
177120,note_on,0,0,2,,,,,,,,,0,,,51,0
177120,note_on,0,0,2,,,,,,,,,0,,,37,54
177120,control_change,0,0,2,,,,,,,,,0,64,127,,
177120,note_on,0,0,2,,,,,,,,,0,,,48,0
177128,set_tempo,488,1,0,,,,,,333333,,,,,,,
177600,note_on,480,0,2,,,,,,,,,0,,,37,0
177600,note_on,0,0,2,,,,,,,,,0,,,53,56
177600,note_on,0,0,2,,,,,,,,,0,,,49,50
177760,note_on,0,0,2,,,,,,,,,0,,,56,36
177760,note_on,160,0,2,,,,,,,,,0,,,53,0
177920,note_on,160,0,2,,,,,,,,,0,,,56,0
177920,note_on,0,0,2,,,,,,,,,0,,,61,36
178080,note_on,160,0,2,,,,,,,,,0,,,61,0
178080,note_on,0,0,2,,,,,,,,,0,,,53,36
178472,control_change,392,0,2,,,,,,,,,0,64,0,,
178560,note_on,0,0,2,,,,,,,,,0,,,49,0
178560,note_on,0,0,1,,,,,,,,,0,,,66,73
178560,note_on,1440,0,1,,,,,,,,,0,,,65,0
178560,note_on,88,0,2,,,,,,,,,0,,,53,0
178560,note_on,0,0,2,,,,,,,,,0,,,33,54
178560,control_change,0,0,2,,,,,,,,,0,64,127,,
179040,note_on,0,0,2,,,,,,,,,0,,,45,42
179040,note_on,0,0,2,,,,,,,,,0,,,54,52
179040,note_on,480,0,2,,,,,,,,,0,,,33,0
179200,note_on,160,0,2,,,,,,,,,0,,,54,0
179200,note_on,0,0,2,,,,,,,,,0,,,57,36
179360,note_on,0,0,2,,,,,,,,,0,,,61,36
179360,note_on,160,0,2,,,,,,,,,0,,,57,0
179520,note_on,0,0,2,,,,,,,,,0,,,54,36
179520,note_on,160,0,2,,,,,,,,,0,,,61,0
179520,set_tempo,2392,1,0,,,,,,376176,,,,,,,
179912,control_change,392,0,2,,,,,,,,,0,64,0,,
180000,note_on,0,0,2,,,,,,,,,0,,,35,90
180000,note_on,0,0,2,,,,,,,,,0,,,59,90
180000,note_on,0,0,2,,,,,,,,,0,,,55,81
180000,note_on,1440,0,1,,,,,,,,,0,,,66,0
180000,note_on,88,0,2,,,,,,,,,0,,,54,0
180000,set_tempo,480,1,0,,,,,,333333,,,,,,,
180000,note_on,0,0,2,,,,,,,,,0,,,45,0
180240,note_on,240,0,2,,,,,,,,,0,,,59,0
180240,note_on,0,0,2,,,,,,,,,0,,,35,0
180240,note_on,0,0,2,,,,,,,,,0,,,55,0
180240,note_on,0,0,2,,,,,,,,,0,,,47,72
180240,note_on,0,0,2,,,,,,,,,0,,,62,72
180480,note_on,0,0,2,,,,,,,,,0,,,37,90
180480,note_on,0,0,2,,,,,,,,,0,,,57,90
180480,note_on,240,0,2,,,,,,,,,0,,,62,0
180480,note_on,0,0,2,,,,,,,,,0,,,47,0
180480,note_on,0,0,2,,,,,,,,,0,,,54,81
180720,note_on,0,0,2,,,,,,,,,0,,,61,72
180720,note_on,0,0,2,,,,,,,,,0,,,57,0
180720,note_on,0,0,2,,,,,,,,,0,,,54,0
180720,note_on,0,0,2,,,,,,,,,0,,,49,72
180720,note_on,240,0,2,,,,,,,,,0,,,37,0
180960,note_on,0,0,2,,,,,,,,,0,,,37,90
180960,note_on,0,0,2,,,,,,,,,0,,,56,90
180960,note_on,0,0,2,,,,,,,,,0,,,53,81
180960,note_on,0,0,2,,,,,,,,,0,,,61,0
180960,note_on,240,0,2,,,,,,,,,0,,,49,0
181200,note_on,0,0,2,,,,,,,,,0,,,53,0
181200,note_on,0,0,2,,,,,,,,,0,,,56,0
181200,note_on,240,0,2,,,,,,,,,0,,,37,0
181200,note_on,0,0,2,,,,,,,,,0,,,49,72
181200,note_on,0,0,2,,,,,,,,,0,,,61,72
181440,note_on,240,0,2,,,,,,,,,0,,,49,0
181440,note_on,0,0,2,,,,,,,,,0,,,61,0
181440,note_on,0,0,2,,,,,,,,,0,,,54,88
181440,set_tempo,1440,1,0,,,,,,333333,,,,,,,
181440,note_on,0,0,2,,,,,,,,,0,,,42,79
181448,set_tempo,8,1,0,,,,,,333333,,,,,,,
181480,set_tempo,32,1,0,,,,,,334262,,,,,,,
181508,set_tempo,28,1,0,,,,,,335196,,,,,,,
181540,set_tempo,32,1,0,,,,,,336134,,,,,,,
181568,set_tempo,28,1,0,,,,,,337079,,,,,,,
181600,note_on,160,0,2,,,,,,,,,0,,,54,0
181600,note_on,0,0,2,,,,,,,,,0,,,50,82
181600,set_tempo,32,1,0,,,,,,338028,,,,,,,
181620,set_tempo,20,1,0,,,,,,338983,,,,,,,
181648,set_tempo,28,1,0,,,,,,339943,,,,,,,
181680,set_tempo,32,1,0,,,,,,340909,,,,,,,
181708,set_tempo,28,1,0,,,,,,341880,,,,,,,
181740,set_tempo,32,1,0,,,,,,342857,,,,,,,
181760,note_on,160,0,2,,,,,,,,,0,,,50,0
181760,note_on,0,0,2,,,,,,,,,0,,,49,87
181768,set_tempo,28,1,0,,,,,,343840,,,,,,,
181788,set_tempo,20,1,0,,,,,,344828,,,,,,,
181820,set_tempo,32,1,0,,,,,,345821,,,,,,,
181848,set_tempo,28,1,0,,,,,,346821,,,,,,,
181880,set_tempo,32,1,0,,,,,,347826,,,,,,,
181908,set_tempo,28,1,0,,,,,,348837,,,,,,,
181920,note_on,160,0,2,,,,,,,,,0,,,49,0
181920,note_on,0,0,2,,,,,,,,,0,,,47,88
181920,note_on,0,0,2,,,,,,,,,0,,,42,0
181940,set_tempo,32,1,0,,,,,,349854,,,,,,,
181960,set_tempo,20,1,0,,,,,,350877,,,,,,,
181988,set_tempo,28,1,0,,,,,,351906,,,,,,,
182020,set_tempo,32,1,0,,,,,,352941,,,,,,,
182048,set_tempo,28,1,0,,,,,,353982,,,,,,,
182080,note_on,0,0,2,,,,,,,,,0,,,45,82
182080,set_tempo,32,1,0,,,,,,355030,,,,,,,
182080,note_on,160,0,2,,,,,,,,,0,,,47,0
182108,set_tempo,28,1,0,,,,,,356083,,,,,,,
182128,set_tempo,20,1,0,,,,,,357143,,,,,,,
182160,set_tempo,32,1,0,,,,,,358209,,,,,,,
182188,set_tempo,28,1,0,,,,,,359281,,,,,,,
182220,set_tempo,32,1,0,,,,,,360360,,,,,,,
182240,note_on,160,0,2,,,,,,,,,0,,,45,0
182240,note_on,0,0,2,,,,,,,,,0,,,44,82
182248,set_tempo,28,1,0,,,,,,361446,,,,,,,
182280,set_tempo,32,1,0,,,,,,362538,,,,,,,
182300,set_tempo,20,1,0,,,,,,363636,,,,,,,
182328,set_tempo,28,1,0,,,,,,364742,,,,,,,
182360,set_tempo,32,1,0,,,,,,365854,,,,,,,
182388,set_tempo,28,1,0,,,,,,366972,,,,,,,
182400,note_on,0,0,2,,,,,,,,,0,,,42,94
182400,note_on,160,0,2,,,,,,,,,0,,,44,0
182420,set_tempo,32,1,0,,,,,,368098,,,,,,,
182448,set_tempo,28,1,0,,,,,,369231,,,,,,,
182468,set_tempo,20,1,0,,,,,,370370,,,,,,,
182500,set_tempo,32,1,0,,,,,,371517,,,,,,,
182528,set_tempo,28,1,0,,,,,,372671,,,,,,,
182560,set_tempo,32,1,0,,,,,,373832,,,,,,,
182640,set_tempo,80,1,0,,,,,,430108,,,,,,,
182640,note_on,240,0,2,,,,,,,,,0,,,42,0
182880,set_tempo,240,1,0,,,,,,333333,,,,,,,
182880,note_on,240,0,2,,,,,,,,,0,,,35,54
182880,control_change,0,0,2,,,,,,,,,0,64,126,,
182880,note_on,2880,0,1,,,,,,,,,0,,,71,54
183360,note_on,480,0,1,,,,,,,,,0,,,59,54
183360,note_on,480,0,2,,,,,,,,,0,,,35,0
183360,note_on,0,0,2,,,,,,,,,0,,,47,32
183360,note_on,0,0,2,,,,,,,,,0,,,50,32
183360,note_on,0,0,2,,,,,,,,,0,,,54,36
183520,note_on,0,0,1,,,,,,,,,0,,,62,36
183520,note_on,160,0,1,,,,,,,,,0,,,59,0
183680,note_on,160,0,1,,,,,,,,,0,,,62,0
183680,note_on,0,0,1,,,,,,,,,0,,,66,36
183840,note_on,160,0,1,,,,,,,,,0,,,66,0
183840,note_on,0,0,1,,,,,,,,,0,,,59,36
184240,control_change,880,0,2,,,,,,,,,0,64,0,,
184320,note_on,0,0,1,,,,,,,,,0,,,71,54
184320,note_on,0,0,2,,,,,,,,,0,,,47,0
184320,control_change,0,0,2,,,,,,,,,0,64,127,,
184320,note_on,0,0,2,,,,,,,,,0,,,35,54
184320,note_on,480,0,1,,,,,,,,,0,,,59,0
184320,note_on,0,0,2,,,,,,,,,0,,,50,0
184320,note_on,80,0,2,,,,,,,,,0,,,54,0
184320,note_on,0,0,1,,,,,,,,,0,,,71,0
184800,note_on,480,0,1,,,,,,,,,0,,,59,36
184800,note_on,0,0,2,,,,,,,,,0,,,49,32
184800,note_on,0,0,2,,,,,,,,,0,,,55,36
184800,note_on,0,0,2,,,,,,,,,0,,,52,32
184800,note_on,0,0,2,,,,,,,,,0,,,47,32
184800,note_on,480,0,2,,,,,,,,,0,,,35,0
184960,note_on,160,0,1,,,,,,,,,0,,,59,0
184960,note_on,0,0,1,,,,,,,,,0,,,61,36
185120,note_on,0,0,1,,,,,,,,,0,,,67,36
185120,note_on,160,0,1,,,,,,,,,0,,,61,0
185280,note_on,0,0,1,,,,,,,,,0,,,59,36
185280,note_on,160,0,1,,,,,,,,,0,,,67,0
185656,control_change,856,0,2,,,,,,,,,0,64,0,,
185760,note_on,0,0,2,,,,,,,,,0,,,52,0
185760,note_on,0,0,1,,,,,,,,,0,,,71,0
185760,note_on,0,0,1,,,,,,,,,0,,,71,54
185760,note_on,0,0,2,,,,,,,,,0,,,50,54
185760,note_on,0,0,2,,,,,,,,,0,,,49,0
185760,note_on,0,0,2,,,,,,,,,0,,,47,0
185760,note_on,480,0,1,,,,,,,,,0,,,59,0
185760,note_on,104,0,2,,,,,,,,,0,,,55,0
185768,set_tempo,2888,1,0,,,,,,315789,,,,,,,
185783,control_change,23,0,2,,,,,,,,,0,64,126,,
186000,note_on,0,0,1,,,,,,,,,0,,,66,36
186000,note_on,0,0,2,,,,,,,,,0,,,59,36
186000,note_on,240,0,1,,,,,,,,,0,,,62,32
186000,note_on,217,0,2,,,,,,,,,0,,,54,32
186126,control_change,126,0,2,,,,,,,,,0,64,0,,
186240,note_on,0,0,1,,,,,,,,,0,,,73,54
186240,note_on,0,0,1,,,,,,,,,0,,,62,0
186240,note_on,240,0,1,,,,,,,,,0,,,66,0
186240,note_on,0,0,2,,,,,,,,,0,,,50,0
186240,note_on,0,0,2,,,,,,,,,0,,,54,0
186240,note_on,114,0,2,,,,,,,,,0,,,59,0
186240,control_change,0,0,2,,,,,,,,,0,64,126,,
186240,note_on,0,0,1,,,,,,,,,0,,,71,0
186240,note_on,0,0,2,,,,,,,,,0,,,49,54
186480,note_on,0,0,2,,,,,,,,,0,,,58,36
186480,note_on,240,0,2,,,,,,,,,0,,,54,32
186480,note_on,0,0,1,,,,,,,,,0,,,66,36
186480,note_on,240,0,1,,,,,,,,,0,,,64,32
186640,control_change,160,0,2,,,,,,,,,0,64,0,,
186720,note_on,0,0,2,,,,,,,,,0,,,49,0
186720,note_on,0,0,1,,,,,,,,,0,,,74,54
186720,note_on,0,0,1,,,,,,,,,0,,,73,0
186720,note_on,0,0,1,,,,,,,,,0,,,64,0
186720,note_on,0,0,2,,,,,,,,,0,,,54,0
186720,note_on,80,0,2,,,,,,,,,0,,,58,0
186720,note_on,240,0,1,,,,,,,,,0,,,66,0
186720,note_on,0,0,2,,,,,,,,,0,,,47,54
186754,control_change,34,0,2,,,,,,,,,0,64,126,,
186960,note_on,206,0,2,,,,,,,,,0,,,54,32
186960,note_on,240,0,1,,,,,,,,,0,,,62,32
186960,note_on,0,0,1,,,,,,,,,0,,,66,36
186960,note_on,0,0,2,,,,,,,,,0,,,59,36
187097,control_change,137,0,2,,,,,,,,,0,64,0,,
187200,note_on,0,0,1,,,,,,,,,0,,,62,0
187200,note_on,0,0,1,,,,,,,,,0,,,74,0
187200,note_on,0,0,1,,,,,,,,,0,,,73,54
187200,note_on,240,0,1,,,,,,,,,0,,,66,0
187200,note_on,103,0,2,,,,,,,,,0,,,59,0
187200,note_on,0,0,2,,,,,,,,,0,,,54,0
187200,note_on,0,0,2,,,,,,,,,0,,,47,0
187200,note_on,0,0,2,,,,,,,,,0,,,42,54
187200,control_change,0,0,2,,,,,,,,,0,64,125,,
187220,set_tempo,1452,1,0,,,,,,333333,,,,,,,
187680,note_on,480,0,1,,,,,,,,,0,,,61,36
187680,note_on,480,0,2,,,,,,,,,0,,,42,0
187680,note_on,0,0,2,,,,,,,,,0,,,54,32
187680,note_on,0,0,2,,,,,,,,,0,,,58,36
187840,note_on,160,0,1,,,,,,,,,0,,,61,0
187840,note_on,0,0,1,,,,,,,,,0,,,66,36
188000,note_on,160,0,1,,,,,,,,,0,,,66,0
188000,note_on,0,0,1,,,,,,,,,0,,,70,36
188148,set_tempo,928,1,0,,,,,,376176,,,,,,,
188160,note_on,0,0,1,,,,,,,,,0,,,61,36
188160,note_on,160,0,1,,,,,,,,,0,,,70,0
188552,control_change,872,0,2,,,,,,,,,0,64,0,,
188640,note_on,88,0,2,,,,,,,,,0,,,58,0
188640,set_tempo,492,1,0,,,,,,333333,,,,,,,
188640,note_on,0,0,1,,,,,,,,,0,,,78,62
188640,note_on,0,0,1,,,,,,,,,0,,,73,0
188640,note_on,480,0,1,,,,,,,,,0,,,61,0
188640,note_on,0,0,2,,,,,,,,,0,,,54,0
188640,control_change,0,0,2,,,,,,,,,0,64,126,,
188640,note_on,0,0,2,,,,,,,,,0,,,42,54
189120,note_on,0,0,2,,,,,,,,,0,,,61,45
189120,note_on,0,0,2,,,,,,,,,0,,,54,40
189120,note_on,480,0,2,,,,,,,,,0,,,42,0
189120,note_on,480,0,1,,,,,,,,,0,,,66,36
189120,note_on,0,0,2,,,,,,,,,0,,,58,40
189280,note_on,160,0,1,,,,,,,,,0,,,66,0
189280,note_on,0,0,1,,,,,,,,,0,,,70,36
189440,note_on,160,0,1,,,,,,,,,0,,,70,0
189440,note_on,0,0,1,,,,,,,,,0,,,73,36
189600,note_on,160,0,1,,,,,,,,,0,,,73,0
189600,note_on,0,0,1,,,,,,,,,0,,,66,36
189968,control_change,848,0,2,,,,,,,,,0,64,0,,
190080,note_on,0,0,2,,,,,,,,,0,,,47,54
190080,note_on,112,0,2,,,,,,,,,0,,,61,0
190080,control_change,0,0,2,,,,,,,,,0,64,127,,
190080,note_on,0,0,2,,,,,,,,,0,,,54,0
190080,note_on,480,0,1,,,,,,,,,0,,,66,0
190080,note_on,0,0,1,,,,,,,,,0,,,78,0
190080,note_on,0,0,1,,,,,,,,,0,,,74,57
190080,note_on,0,0,2,,,,,,,,,0,,,58,0
190560,note_on,480,0,1,,,,,,,,,0,,,62,36
190560,note_on,0,0,2,,,,,,,,,0,,,59,36
190560,note_on,0,0,2,,,,,,,,,0,,,54,32
190560,note_on,480,0,2,,,,,,,,,0,,,47,0
190720,note_on,0,0,1,,,,,,,,,0,,,66,36
190720,note_on,160,0,1,,,,,,,,,0,,,62,0
190880,note_on,0,0,1,,,,,,,,,0,,,71,36
190880,note_on,160,0,1,,,,,,,,,0,,,66,0
191040,note_on,160,0,1,,,,,,,,,0,,,71,0
191040,note_on,0,0,1,,,,,,,,,0,,,62,36
191448,control_change,888,0,2,,,,,,,,,0,64,0,,
191520,note_on,480,0,1,,,,,,,,,0,,,62,0
191520,note_on,0,0,2,,,,,,,,,0,,,43,54
191520,note_on,72,0,2,,,,,,,,,0,,,59,0
191520,note_on,0,0,2,,,,,,,,,0,,,54,0
191520,set_tempo,2880,1,0,,,,,,316623,,,,,,,
191520,note_on,0,0,1,,,,,,,,,0,,,71,36
191520,note_on,0,0,1,,,,,,,,,0,,,74,0
191520,note_on,0,0,1,,,,,,,,,0,,,73,54
191548,control_change,28,0,2,,,,,,,,,0,64,126,,
191760,note_on,0,0,1,,,,,,,,,0,,,64,36
191760,note_on,0,0,2,,,,,,,,,0,,,55,36
191760,note_on,212,0,2,,,,,,,,,0,,,43,0
191760,note_on,240,0,1,,,,,,,,,0,,,71,0
191958,control_change,198,0,2,,,,,,,,,0,64,0,,
192000,note_on,0,0,1,,,,,,,,,0,,,76,54
192000,note_on,0,0,1,,,,,,,,,0,,,71,36
192000,note_on,240,0,1,,,,,,,,,0,,,64,0
192000,note_on,0,0,1,,,,,,,,,0,,,73,0
192000,note_on,42,0,2,,,,,,,,,0,,,55,0
192000,note_on,0,0,2,,,,,,,,,0,,,40,54
192056,control_change,56,0,2,,,,,,,,,0,64,126,,
192240,note_on,184,0,2,,,,,,,,,0,,,40,0
192240,note_on,0,0,2,,,,,,,,,0,,,52,36
192240,note_on,0,0,1,,,,,,,,,0,,,64,36
192240,note_on,240,0,1,,,,,,,,,0,,,71,0
192424,control_change,184,0,2,,,,,,,,,0,64,0,,
192480,note_on,0,0,1,,,,,,,,,0,,,76,0
192480,note_on,0,0,1,,,,,,,,,0,,,73,54
192480,note_on,0,0,1,,,,,,,,,0,,,71,36
192480,note_on,240,0,1,,,,,,,,,0,,,64,0
192480,note_on,0,0,2,,,,,,,,,0,,,43,54
192480,note_on,56,0,2,,,,,,,,,0,,,52,0
192536,control_change,56,0,2,,,,,,,,,0,64,126,,
192720,note_on,184,0,2,,,,,,,,,0,,,43,0
192720,note_on,0,0,2,,,,,,,,,0,,,55,36
192720,note_on,240,0,1,,,,,,,,,0,,,71,0
192720,note_on,0,0,1,,,,,,,,,0,,,64,36
192861,control_change,141,0,2,,,,,,,,,0,64,0,,
192960,note_on,0,0,1,,,,,,,,,0,,,73,0
192960,note_on,99,0,2,,,,,,,,,0,,,55,0
192960,note_on,0,0,2,,,,,,,,,0,,,47,54
192960,control_change,0,0,2,,,,,,,,,0,64,127,,
192960,note_on,240,0,1,,,,,,,,,0,,,64,0
192960,note_on,0,0,1,,,,,,,,,0,,,74,54
192960,set_tempo,1440,1,0,,,,,,333333,,,,,,,
193440,note_on,0,0,2,,,,,,,,,0,,,59,36
193440,note_on,0,0,2,,,,,,,,,0,,,54,32
193440,note_on,480,0,2,,,,,,,,,0,,,47,0
193440,note_on,480,0,1,,,,,,,,,0,,,62,36
193600,note_on,160,0,1,,,,,,,,,0,,,62,0
193600,note_on,0,0,1,,,,,,,,,0,,,66,36
193760,note_on,160,0,1,,,,,,,,,0,,,66,0
193760,note_on,0,0,1,,,,,,,,,0,,,71,36
193920,note_on,160,0,1,,,,,,,,,0,,,71,0
193920,note_on,0,0,1,,,,,,,,,0,,,62,36
193920,set_tempo,960,1,0,,,,,,400000,,,,,,,
194320,control_change,880,0,2,,,,,,,,,0,64,0,,
194400,note_on,80,0,2,,,,,,,,,0,,,59,0
194400,note_on,0,0,2,,,,,,,,,0,,,54,0
194400,note_on,0,0,1,,,,,,,,,0,,,76,90
194400,note_on,0,0,1,,,,,,,,,0,,,74,0
194400,note_on,480,0,1,,,,,,,,,0,,,62,0
194400,set_tempo,480,1,0,,,,,,333333,,,,,,,
194400,note_on,0,0,2,,,,,,,,,0,,,40,90
194400,control_change,0,0,2,,,,,,,,,0,64,125,,
194640,note_on,240,0,2,,,,,,,,,0,,,40,0
194880,note_on,480,0,1,,,,,,,,,0,,,64,72
194880,note_on,240,0,2,,,,,,,,,0,,,52,64
194880,note_on,0,0,2,,,,,,,,,0,,,55,64
194880,note_on,0,0,2,,,,,,,,,0,,,59,72
195040,note_on,0,0,1,,,,,,,,,0,,,67,65
195040,note_on,160,0,1,,,,,,,,,0,,,64,0
195200,note_on,0,0,1,,,,,,,,,0,,,71,65
195200,note_on,160,0,1,,,,,,,,,0,,,67,0
195360,note_on,160,0,1,,,,,,,,,0,,,71,0
195360,note_on,0,0,1,,,,,,,,,0,,,64,72
195744,control_change,864,0,2,,,,,,,,,0,64,0,,
195840,control_change,0,0,2,,,,,,,,,0,64,126,,
195840,note_on,0,0,2,,,,,,,,,0,,,40,90
195840,note_on,0,0,2,,,,,,,,,0,,,52,0
195840,note_on,0,0,2,,,,,,,,,0,,,55,0
195840,note_on,96,0,2,,,,,,,,,0,,,59,0
195840,note_on,480,0,1,,,,,,,,,0,,,64,0
195840,note_on,0,0,1,,,,,,,,,0,,,76,0
195840,note_on,0,0,1,,,,,,,,,0,,,76,90
196320,note_on,0,0,2,,,,,,,,,0,,,54,64
196320,note_on,480,0,2,,,,,,,,,0,,,40,0
196320,note_on,0,0,2,,,,,,,,,0,,,57,64
196320,note_on,0,0,2,,,,,,,,,0,,,60,72
196320,note_on,0,0,2,,,,,,,,,0,,,52,64
196320,note_on,480,0,1,,,,,,,,,0,,,64,72
196480,note_on,0,0,1,,,,,,,,,0,,,66,66
196480,note_on,160,0,1,,,,,,,,,0,,,64,0
196640,note_on,160,0,1,,,,,,,,,0,,,66,0
196640,note_on,0,0,1,,,,,,,,,0,,,72,66
196800,note_on,160,0,1,,,,,,,,,0,,,72,0
196800,note_on,0,0,1,,,,,,,,,0,,,64,72
197176,control_change,856,0,2,,,,,,,,,0,64,0,,
197280,set_tempo,2880,1,0,,,,,,322581,,,,,,,
197280,control_change,0,0,2,,,,,,,,,0,64,126,,
197280,note_on,0,0,2,,,,,,,,,0,,,55,72
197280,note_on,0,0,2,,,,,,,,,0,,,57,0
197280,note_on,0,0,2,,,,,,,,,0,,,54,0
197280,note_on,0,0,2,,,,,,,,,0,,,52,0
197280,note_on,480,0,1,,,,,,,,,0,,,64,0
197280,note_on,0,0,1,,,,,,,,,0,,,76,0
197280,note_on,0,0,1,,,,,,,,,0,,,76,81
197280,note_on,104,0,2,,,,,,,,,0,,,60,0
197520,note_on,0,0,1,,,,,,,,,0,,,71,72
197520,note_on,0,0,2,,,,,,,,,0,,,64,64
197520,note_on,240,0,2,,,,,,,,,0,,,59,57
197520,note_on,240,0,1,,,,,,,,,0,,,67,64
197680,control_change,160,0,2,,,,,,,,,0,64,0,,
197760,note_on,0,0,2,,,,,,,,,0,,,54,72
197760,note_on,0,0,2,,,,,,,,,0,,,55,0
197760,note_on,0,0,2,,,,,,,,,0,,,59,0
197760,note_on,80,0,2,,,,,,,,,0,,,64,0
197760,note_on,0,0,1,,,,,,,,,0,,,67,0
197760,note_on,240,0,1,,,,,,,,,0,,,71,0
197760,note_on,0,0,1,,,,,,,,,0,,,76,0
197760,note_on,0,0,1,,,,,,,,,0,,,78,81
197771,control_change,11,0,2,,,,,,,,,0,64,126,,
198000,note_on,0,0,1,,,,,,,,,0,,,71,72
198000,note_on,240,0,1,,,,,,,,,0,,,69,64
198000,note_on,229,0,2,,,,,,,,,0,,,59,57
198000,note_on,0,0,2,,,,,,,,,0,,,63,64
198171,control_change,171,0,2,,,,,,,,,0,64,0,,
198240,note_on,0,0,1,,,,,,,,,0,,,79,81
198240,note_on,0,0,1,,,,,,,,,0,,,78,0
198240,note_on,0,0,1,,,,,,,,,0,,,69,0
198240,note_on,240,0,1,,,,,,,,,0,,,71,0
198240,note_on,69,0,2,,,,,,,,,0,,,63,0
198240,note_on,0,0,2,,,,,,,,,0,,,54,0
198240,note_on,0,0,2,,,,,,,,,0,,,52,72
198240,note_on,0,0,2,,,,,,,,,0,,,59,0
198274,control_change,34,0,2,,,,,,,,,0,64,125,,
198480,note_on,0,0,2,,,,,,,,,0,,,64,64
198480,note_on,206,0,2,,,,,,,,,0,,,59,57
198480,note_on,240,0,1,,,,,,,,,0,,,67,64
198480,note_on,0,0,1,,,,,,,,,0,,,71,72
198571,control_change,91,0,2,,,,,,,,,0,64,0,,
198720,note_on,0,0,2,,,,,,,,,0,,,52,0
198720,note_on,240,0,1,,,,,,,,,0,,,71,0
198720,note_on,0,0,1,,,,,,,,,0,,,67,0
198720,note_on,0,0,1,,,,,,,,,0,,,79,0
198720,note_on,0,0,1,,,,,,,,,0,,,78,81
198720,note_on,149,0,2,,,,,,,,,0,,,64,0
198720,note_on,0,0,2,,,,,,,,,0,,,47,72
198720,note_on,0,0,2,,,,,,,,,0,,,59,0
198720,set_tempo,1440,1,0,,,,,,333333,,,,,,,
198754,control_change,34,0,2,,,,,,,,,0,64,125,,
199200,note_on,0,0,2,,,,,,,,,0,,,63,63
199200,note_on,0,0,2,,,,,,,,,0,,,59,56
199200,note_on,480,0,1,,,,,,,,,0,,,66,63
199200,note_on,446,0,2,,,,,,,,,0,,,47,0
199360,note_on,0,0,1,,,,,,,,,0,,,71,63
199360,note_on,160,0,1,,,,,,,,,0,,,66,0
199520,note_on,0,0,1,,,,,,,,,0,,,75,63
199520,note_on,160,0,1,,,,,,,,,0,,,71,0
199680,note_on,0,0,1,,,,,,,,,0,,,66,63
199680,note_on,160,0,1,,,,,,,,,0,,,75,0
199680,set_tempo,960,1,0,,,,,,398671,,,,,,,
200088,control_change,888,0,2,,,,,,,,,0,64,0,,
200160,note_on,72,0,2,,,,,,,,,0,,,59,0
200160,note_on,0,0,1,,,,,,,,,0,,,83,90
200160,set_tempo,480,1,0,,,,,,333333,,,,,,,
200160,control_change,0,0,2,,,,,,,,,0,64,127,,
200160,note_on,0,0,1,,,,,,,,,0,,,78,0
200160,note_on,0,0,2,,,,,,,,,0,,,47,90
200160,note_on,0,0,2,,,,,,,,,0,,,63,0
200160,note_on,480,0,1,,,,,,,,,0,,,66,0
200640,note_on,0,0,2,,,,,,,,,0,,,63,64
200640,note_on,0,0,2,,,,,,,,,0,,,66,72
200640,note_on,480,0,2,,,,,,,,,0,,,47,0
200640,note_on,0,0,2,,,,,,,,,0,,,59,64
200640,note_on,480,0,1,,,,,,,,,0,,,71,72
200800,note_on,0,0,1,,,,,,,,,0,,,75,67
200800,note_on,160,0,1,,,,,,,,,0,,,71,0
200960,note_on,160,0,1,,,,,,,,,0,,,75,0
200960,note_on,0,0,1,,,,,,,,,0,,,78,67
201120,note_on,160,0,1,,,,,,,,,0,,,78,0
201120,note_on,0,0,1,,,,,,,,,0,,,71,72
201512,control_change,872,0,2,,,,,,,,,0,64,0,,
201600,control_change,0,0,2,,,,,,,,,0,64,127,,
201600,note_on,0,0,2,,,,,,,,,0,,,52,90
201600,note_on,0,0,2,,,,,,,,,0,,,63,0
201600,note_on,88,0,2,,,,,,,,,0,,,66,0
201600,note_on,480,0,1,,,,,,,,,0,,,71,0
201600,note_on,0,0,2,,,,,,,,,0,,,59,0
201600,note_on,0,0,1,,,,,,,,,0,,,79,90
201600,note_on,0,0,1,,,,,,,,,0,,,83,0
202080,note_on,480,0,1,,,,,,,,,0,,,67,72
202080,note_on,480,0,2,,,,,,,,,0,,,52,0
202080,note_on,0,0,2,,,,,,,,,0,,,64,72
202080,note_on,0,0,2,,,,,,,,,0,,,59,64
202240,note_on,160,0,1,,,,,,,,,0,,,67,0
202240,note_on,0,0,1,,,,,,,,,0,,,71,65
202400,note_on,160,0,1,,,,,,,,,0,,,71,0
202400,note_on,0,0,1,,,,,,,,,0,,,76,65
202560,note_on,160,0,1,,,,,,,,,0,,,76,0
202560,note_on,0,0,1,,,,,,,,,0,,,67,72
202944,control_change,864,0,2,,,,,,,,,0,64,0,,
203040,note_on,0,0,2,,,,,,,,,0,,,43,64
203040,note_on,96,0,2,,,,,,,,,0,,,59,0
203040,note_on,480,0,1,,,,,,,,,0,,,67,0
203040,note_on,0,0,1,,,,,,,,,0,,,79,0
203040,set_tempo,2880,1,0,,,,,,321716,,,,,,,
203040,note_on,0,0,2,,,,,,,,,0,,,64,0
203040,note_on,0,0,1,,,,,,,,,0,,,76,72
203091,control_change,51,0,2,,,,,,,,,0,64,125,,
203280,note_on,0,0,2,,,,,,,,,0,,,55,50
203280,note_on,189,0,2,,,,,,,,,0,,,43,0
203280,note_on,240,0,1,,,,,,,,,0,,,69,50
203280,note_on,0,0,1,,,,,,,,,0,,,71,56
203482,control_change,202,0,2,,,,,,,,,0,64,0,,
203520,note_on,0,0,1,,,,,,,,,0,,,69,0
203520,note_on,38,0,2,,,,,,,,,0,,,55,0
203520,note_on,0,0,2,,,,,,,,,0,,,40,72
203520,note_on,0,0,1,,,,,,,,,0,,,79,81
203520,note_on,0,0,1,,,,,,,,,0,,,76,0
203520,note_on,240,0,1,,,,,,,,,0,,,71,0
203596,control_change,76,0,2,,,,,,,,,0,64,125,,
203760,note_on,0,0,2,,,,,,,,,0,,,52,61
203760,note_on,240,0,1,,,,,,,,,0,,,71,61
203760,note_on,0,0,1,,,,,,,,,0,,,73,68
203760,note_on,164,0,2,,,,,,,,,0,,,40,0
203949,control_change,189,0,2,,,,,,,,,0,64,0,,
204000,note_on,0,0,1,,,,,,,,,0,,,71,0
204000,note_on,0,0,1,,,,,,,,,0,,,79,0
204000,note_on,0,0,1,,,,,,,,,0,,,76,72
204000,note_on,0,0,2,,,,,,,,,0,,,43,64
204000,note_on,240,0,1,,,,,,,,,0,,,73,0
204000,note_on,51,0,2,,,,,,,,,0,,,52,0
204063,control_change,63,0,2,,,,,,,,,0,64,125,,
204240,note_on,0,0,1,,,,,,,,,0,,,71,57
204240,note_on,240,0,1,,,,,,,,,0,,,73,56
204240,note_on,0,0,2,,,,,,,,,0,,,55,50
204240,note_on,177,0,2,,,,,,,,,0,,,43,0
204417,control_change,177,0,2,,,,,,,,,0,64,0,,
204480,control_change,0,0,2,,,,,,,,,0,64,125,,
204480,note_on,240,0,1,,,,,,,,,0,,,71,0
204480,note_on,63,0,2,,,,,,,,,0,,,55,0
204480,note_on,0,0,1,,,,,,,,,0,,,73,0
204480,note_on,0,0,1,,,,,,,,,0,,,76,0
204480,note_on,0,0,2,,,,,,,,,0,,,42,72
204480,note_on,0,0,1,,,,,,,,,0,,,78,81
204480,set_tempo,1440,1,0,,,,,,333333,,,,,,,
204960,note_on,0,0,2,,,,,,,,,0,,,61,63
204960,note_on,480,0,1,,,,,,,,,0,,,66,72
204960,note_on,0,0,2,,,,,,,,,0,,,58,56
204960,note_on,0,0,2,,,,,,,,,0,,,54,56
204960,note_on,480,0,2,,,,,,,,,0,,,42,0
205120,note_on,0,0,1,,,,,,,,,0,,,70,67
205120,note_on,160,0,1,,,,,,,,,0,,,66,0
205280,note_on,0,0,1,,,,,,,,,0,,,73,67
205280,note_on,160,0,1,,,,,,,,,0,,,70,0
205440,set_tempo,960,1,0,,,,,,344828,,,,,,,
205440,note_on,160,0,1,,,,,,,,,0,,,73,0
205440,note_on,0,0,1,,,,,,,,,0,,,66,72
205816,control_change,856,0,2,,,,,,,,,0,64,0,,
205920,note_on,104,0,2,,,,,,,,,0,,,61,0
205920,control_change,0,0,2,,,,,,,,,0,64,126,,
205920,note_on,0,0,2,,,,,,,,,0,,,47,54
205920,note_on,0,0,2,,,,,,,,,0,,,54,0
205920,note_on,0,0,2,,,,,,,,,0,,,58,0
205920,note_on,480,0,1,,,,,,,,,0,,,66,0
205920,note_on,0,0,1,,,,,,,,,0,,,78,0
205920,note_on,0,0,1,,,,,,,,,0,,,74,58
205920,set_tempo,480,1,0,,,,,,333333,,,,,,,
206400,note_on,480,0,2,,,,,,,,,0,,,47,0
206400,note_on,0,0,2,,,,,,,,,0,,,59,36
206400,note_on,0,0,2,,,,,,,,,0,,,54,32
206400,note_on,480,0,1,,,,,,,,,0,,,62,36
206560,note_on,160,0,1,,,,,,,,,0,,,62,0
206560,note_on,0,0,1,,,,,,,,,0,,,66,36
206720,note_on,0,0,1,,,,,,,,,0,,,71,36
206720,note_on,160,0,1,,,,,,,,,0,,,66,0
206880,note_on,160,0,1,,,,,,,,,0,,,71,0
206880,note_on,0,0,1,,,,,,,,,0,,,62,36
206880,set_tempo,960,1,0,,,,,,382166,,,,,,,
207272,control_change,872,0,2,,,,,,,,,0,64,0,,
207360,note_on,480,0,1,,,,,,,,,0,,,62,0
207360,note_on,88,0,2,,,,,,,,,0,,,59,0
207360,note_on,0,0,2,,,,,,,,,0,,,54,0
207360,note_on,0,0,2,,,,,,,,,0,,,40,54
207360,control_change,0,0,2,,,,,,,,,0,64,126,,
207360,note_on,0,0,1,,,,,,,,,0,,,72,54
207360,note_on,0,0,1,,,,,,,,,0,,,74,0
207368,set_tempo,488,1,0,,,,,,333333,,,,,,,
207840,note_on,0,0,2,,,,,,,,,0,,,55,36
207840,note_on,480,0,1,,,,,,,,,0,,,60,36
207840,note_on,0,0,2,,,,,,,,,0,,,52,32
207840,note_on,480,0,2,,,,,,,,,0,,,40,0
208000,note_on,0,0,1,,,,,,,,,0,,,64,36
208000,note_on,160,0,1,,,,,,,,,0,,,60,0
208160,note_on,0,0,1,,,,,,,,,0,,,67,36
208160,note_on,160,0,1,,,,,,,,,0,,,64,0
208320,note_on,160,0,1,,,,,,,,,0,,,67,0
208320,note_on,0,0,1,,,,,,,,,0,,,60,36
208720,control_change,880,0,2,,,,,,,,,0,64,1,,
208800,note_on,480,0,1,,,,,,,,,0,,,60,0
208800,note_on,0,0,2,,,,,,,,,0,,,52,0
208800,note_on,80,0,2,,,,,,,,,0,,,55,0
208800,note_on,0,0,1,,,,,,,,,0,,,72,0
208800,note_on,0,0,2,,,,,,,,,0,,,42,54
208800,note_on,0,0,1,,,,,,,,,0,,,66,53
208800,note_on,0,0,1,,,,,,,,,0,,,70,53
208800,control_change,0,0,2,,,,,,,,,0,64,127,,
208808,set_tempo,1440,1,0,,,,,,316623,,,,,,,
209040,note_on,0,0,1,,,,,,,,,0,,,61,45
209040,note_on,240,0,1,,,,,,,,,0,,,66,0
209280,note_on,0,0,1,,,,,,,,,0,,,66,53
209280,note_on,0,0,1,,,,,,,,,0,,,73,53
209280,note_on,0,0,2,,,,,,,,,0,,,58,36
209280,note_on,0,0,2,,,,,,,,,0,,,54,32
209280,note_on,480,0,2,,,,,,,,,0,,,42,0
209280,note_on,240,0,1,,,,,,,,,0,,,61,0
209280,note_on,0,0,1,,,,,,,,,0,,,70,0
209520,note_on,240,0,1,,,,,,,,,0,,,66,0
209520,note_on,0,0,1,,,,,,,,,0,,,61,44
209760,note_on,240,0,1,,,,,,,,,0,,,61,0
209760,note_on,0,0,1,,,,,,,,,0,,,73,0
209760,note_on,0,0,1,,,,,,,,,0,,,66,53
209760,note_on,0,0,1,,,,,,,,,0,,,70,53
209760,note_on,0,0,2,,,,,,,,,0,,,42,54
209760,note_on,0,0,2,,,,,,,,,0,,,54,0
209760,note_on,480,0,2,,,,,,,,,0,,,58,0
210000,note_on,240,0,1,,,,,,,,,0,,,66,0
210000,note_on,0,0,1,,,,,,,,,0,,,61,43
210056,control_change,296,0,2,,,,,,,,,0,64,0,,
210240,note_on,240,0,1,,,,,,,,,0,,,61,0
210240,note_on,0,0,1,,,,,,,,,0,,,70,0
210240,note_on,184,0,2,,,,,,,,,0,,,42,0
210240,note_on,0,0,2,,,,,,,,,0,,,35,54
210240,control_change,0,0,2,,,,,,,,,0,64,126,,
210240,note_on,0,0,1,,,,,,,,,0,,,71,53
210248,set_tempo,1440,1,0,,,,,,333333,,,,,,,
210720,note_on,0,0,2,,,,,,,,,0,,,47,32
210720,note_on,480,0,1,,,,,,,,,0,,,59,36
210720,note_on,480,0,2,,,,,,,,,0,,,35,0
210720,note_on,0,0,2,,,,,,,,,0,,,50,32
210720,note_on,0,0,2,,,,,,,,,0,,,54,36
210880,note_on,0,0,1,,,,,,,,,0,,,62,36
210880,note_on,160,0,1,,,,,,,,,0,,,59,0
211040,note_on,0,0,1,,,,,,,,,0,,,66,36
211040,note_on,160,0,1,,,,,,,,,0,,,62,0
211200,set_tempo,952,1,0,,,,,,394737,,,,,,,
211200,note_on,160,0,1,,,,,,,,,0,,,66,0
211200,note_on,0,0,1,,,,,,,,,0,,,59,36
211584,control_change,864,0,2,,,,,,,,,0,64,0,,
211680,note_on,480,0,1,,,,,,,,,0,,,59,0
211680,note_on,0,0,1,,,,,,,,,0,,,71,100
211680,control_change,0,0,2,,,,,,,,,0,64,125,,
211680,note_on,0,0,2,,,,,,,,,0,,,40,82
211680,note_on,0,0,2,,,,,,,,,0,,,47,0
211680,note_on,0,0,2,,,,,,,,,0,,,50,0
211680,note_on,96,0,2,,,,,,,,,0,,,54,0
211680,set_tempo,480,1,0,,,,,,334262,,,,,,,
211680,note_on,0,0,1,,,,,,,,,0,,,71,0
211920,note_on,240,0,2,,,,,,,,,0,,,40,0
212160,note_on,0,0,2,,,,,,,,,0,,,55,67
212160,note_on,240,0,2,,,,,,,,,0,,,52,67
212160,note_on,480,0,1,,,,,,,,,0,,,59,75
212160,note_on,0,0,2,,,,,,,,,0,,,58,75
212320,note_on,160,0,1,,,,,,,,,0,,,59,0
212320,note_on,0,0,1,,,,,,,,,0,,,64,68
212480,note_on,160,0,1,,,,,,,,,0,,,64,0
212480,note_on,0,0,1,,,,,,,,,0,,,67,68
212640,note_on,160,0,1,,,,,,,,,0,,,67,0
212640,note_on,0,0,1,,,,,,,,,0,,,59,75
212640,set_tempo,960,1,0,,,,,,375000,,,,,,,
212993,control_change,833,0,2,,,,,,,,,0,64,0,,
213120,note_on,0,0,2,,,,,,,,,0,,,35,54
213120,note_on,0,0,2,,,,,,,,,0,,,55,0
213120,note_on,127,0,2,,,,,,,,,0,,,58,0
213120,note_on,0,0,2,,,,,,,,,0,,,52,0
213120,note_on,480,0,1,,,,,,,,,0,,,59,0
213120,note_on,0,0,1,,,,,,,,,0,,,71,0
213120,note_on,0,0,1,,,,,,,,,0,,,71,54
213128,set_tempo,488,1,0,,,,,,333333,,,,,,,
213162,control_change,42,0,2,,,,,,,,,0,64,127,,
213600,note_on,0,0,2,,,,,,,,,0,,,50,32
213600,note_on,0,0,2,,,,,,,,,0,,,54,36
213600,note_on,480,0,1,,,,,,,,,0,,,59,36
213600,note_on,438,0,2,,,,,,,,,0,,,35,0
213760,note_on,0,0,1,,,,,,,,,0,,,62,36
213760,note_on,160,0,1,,,,,,,,,0,,,59,0
213920,note_on,160,0,1,,,,,,,,,0,,,62,0
213920,note_on,0,0,1,,,,,,,,,0,,,66,36
214080,note_on,160,0,1,,,,,,,,,0,,,66,0
214080,note_on,0,0,1,,,,,,,,,0,,,59,36
214472,control_change,872,0,2,,,,,,,,,0,64,0,,
214560,note_on,88,0,2,,,,,,,,,0,,,54,0
214560,note_on,0,0,2,,,,,,,,,0,,,50,0
214560,note_on,0,0,2,,,,,,,,,0,,,42,54
214560,control_change,0,0,2,,,,,,,,,0,64,127,,
214560,note_on,0,0,1,,,,,,,,,0,,,70,54
214560,note_on,0,0,1,,,,,,,,,0,,,61,36
214560,note_on,0,0,1,,,,,,,,,0,,,71,0
214560,set_tempo,1432,1,0,,,,,,321716,,,,,,,
214560,note_on,480,0,1,,,,,,,,,0,,,59,0
214720,note_on,160,0,1,,,,,,,,,0,,,61,0
214720,note_on,0,0,1,,,,,,,,,0,,,62,38
214880,note_on,160,0,1,,,,,,,,,0,,,62,0
214880,note_on,0,0,1,,,,,,,,,0,,,64,41
215040,note_on,0,0,2,,,,,,,,,0,,,54,54
215040,note_on,160,0,1,,,,,,,,,0,,,64,0
215040,note_on,0,0,1,,,,,,,,,0,,,66,44
215040,note_on,480,0,2,,,,,,,,,0,,,42,0
215200,note_on,0,0,1,,,,,,,,,0,,,67,46
215200,note_on,160,0,1,,,,,,,,,0,,,66,0
215360,note_on,0,0,1,,,,,,,,,0,,,66,44
215360,note_on,160,0,1,,,,,,,,,0,,,67,0
215520,note_on,0,0,1,,,,,,,,,0,,,64,41
215520,note_on,160,0,1,,,,,,,,,0,,,66,0
215680,note_on,0,0,1,,,,,,,,,0,,,62,38
215680,note_on,160,0,1,,,,,,,,,0,,,64,0
215840,note_on,160,0,1,,,,,,,,,0,,,62,0
215840,note_on,0,0,1,,,,,,,,,0,,,61,36
215920,control_change,880,0,2,,,,,,,,,0,64,0,,
216000,note_on,0,0,1,,,,,,,,,0,,,71,54
216000,note_on,0,0,1,,,,,,,,,0,,,70,0
216000,set_tempo,1440,1,0,,,,,,333333,,,,,,,
216000,note_on,0,0,2,,,,,,,,,0,,,35,54
216000,control_change,0,0,2,,,,,,,,,0,64,125,,
216000,note_on,160,0,1,,,,,,,,,0,,,61,0
216000,note_on,80,0,2,,,,,,,,,0,,,54,0
216480,note_on,480,0,2,,,,,,,,,0,,,35,0
216480,note_on,0,0,2,,,,,,,,,0,,,47,32
216480,note_on,0,0,2,,,,,,,,,0,,,50,32
216480,note_on,0,0,2,,,,,,,,,0,,,54,36
216480,note_on,480,0,1,,,,,,,,,0,,,59,36
216640,note_on,160,0,1,,,,,,,,,0,,,59,0
216640,note_on,0,0,1,,,,,,,,,0,,,62,36
216800,note_on,0,0,1,,,,,,,,,0,,,66,36
216800,note_on,160,0,1,,,,,,,,,0,,,62,0
216960,note_on,0,0,1,,,,,,,,,0,,,59,36
216960,set_tempo,960,1,0,,,,,,390879,,,,,,,
216960,note_on,160,0,1,,,,,,,,,0,,,66,0
217352,control_change,872,0,2,,,,,,,,,0,64,0,,
217440,set_tempo,480,1,0,,,,,,333333,,,,,,,
217440,note_on,480,0,1,,,,,,,,,0,,,59,0
217440,note_on,0,0,1,,,,,,,,,0,,,71,101
217440,control_change,0,0,2,,,,,,,,,0,64,127,,
217440,note_on,0,0,1,,,,,,,,,0,,,71,0
217440,note_on,0,0,2,,,,,,,,,0,,,50,0
217440,note_on,0,0,2,,,,,,,,,0,,,47,0
217440,note_on,0,0,2,,,,,,,,,0,,,40,79
217440,note_on,88,0,2,,,,,,,,,0,,,54,0
217680,note_on,240,0,2,,,,,,,,,0,,,40,0
217920,note_on,480,0,1,,,,,,,,,0,,,59,72
217920,note_on,0,0,2,,,,,,,,,0,,,52,64
217920,note_on,0,0,2,,,,,,,,,0,,,55,64
217920,note_on,240,0,2,,,,,,,,,0,,,58,72
218080,note_on,0,0,1,,,,,,,,,0,,,64,65
218080,note_on,160,0,1,,,,,,,,,0,,,59,0
218240,note_on,160,0,1,,,,,,,,,0,,,64,0
218240,note_on,0,0,1,,,,,,,,,0,,,67,67
218400,note_on,160,0,1,,,,,,,,,0,,,67,0
218400,note_on,0,0,1,,,,,,,,,0,,,59,72
218408,set_tempo,968,1,0,,,,,,373832,,,,,,,
218696,control_change,776,0,2,,,,,,,,,0,64,0,,
218880,note_on,184,0,2,,,,,,,,,0,,,52,0
218880,note_on,0,0,1,,,,,,,,,0,,,71,0
218880,note_on,0,0,2,,,,,,,,,0,,,35,54
218880,note_on,0,0,2,,,,,,,,,0,,,58,0
218880,note_on,0,0,2,,,,,,,,,0,,,55,0
218880,note_on,480,0,1,,,,,,,,,0,,,59,0
218880,note_on,0,0,1,,,,,,,,,0,,,71,54
218888,set_tempo,480,1,0,,,,,,333333,,,,,,,
218929,control_change,49,0,2,,,,,,,,,0,64,126,,
219360,note_on,431,0,2,,,,,,,,,0,,,35,0
219360,note_on,0,0,2,,,,,,,,,0,,,50,32
219360,note_on,0,0,2,,,,,,,,,0,,,54,36
219360,note_on,480,0,1,,,,,,,,,0,,,59,36
219520,note_on,0,0,1,,,,,,,,,0,,,62,36
219520,note_on,160,0,1,,,,,,,,,0,,,59,0
219680,note_on,0,0,1,,,,,,,,,0,,,66,36
219680,note_on,160,0,1,,,,,,,,,0,,,62,0
219840,note_on,160,0,1,,,,,,,,,0,,,66,0
219840,note_on,0,0,1,,,,,,,,,0,,,59,36
220200,control_change,840,0,2,,,,,,,,,0,64,0,,
220320,note_on,0,0,2,,,,,,,,,0,,,50,0
220320,note_on,0,0,2,,,,,,,,,0,,,42,54
220320,control_change,0,0,2,,,,,,,,,0,64,127,,
220320,note_on,0,0,1,,,,,,,,,0,,,70,54
220320,set_tempo,1432,1,0,,,,,,324324,,,,,,,
220320,note_on,480,0,1,,,,,,,,,0,,,59,0
220320,note_on,0,0,1,,,,,,,,,0,,,71,0
220320,note_on,0,0,1,,,,,,,,,0,,,61,36
220320,note_on,120,0,2,,,,,,,,,0,,,54,0
220480,note_on,160,0,1,,,,,,,,,0,,,61,0
220480,note_on,0,0,1,,,,,,,,,0,,,62,38
220640,note_on,0,0,1,,,,,,,,,0,,,64,41
220640,note_on,160,0,1,,,,,,,,,0,,,62,0
220800,note_on,0,0,1,,,,,,,,,0,,,66,44
220800,note_on,480,0,2,,,,,,,,,0,,,42,0
220800,note_on,160,0,1,,,,,,,,,0,,,64,0
220800,note_on,0,0,2,,,,,,,,,0,,,54,53
220960,note_on,0,0,1,,,,,,,,,0,,,67,46
220960,note_on,160,0,1,,,,,,,,,0,,,66,0
221120,note_on,160,0,1,,,,,,,,,0,,,67,0
221120,note_on,0,0,1,,,,,,,,,0,,,66,44
221280,note_on,0,0,1,,,,,,,,,0,,,64,41
221280,note_on,160,0,1,,,,,,,,,0,,,66,0
221440,note_on,160,0,1,,,,,,,,,0,,,64,0
221440,note_on,0,0,1,,,,,,,,,0,,,62,38
221600,note_on,160,0,1,,,,,,,,,0,,,62,0
221600,note_on,0,0,1,,,,,,,,,0,,,61,36
221648,control_change,848,0,2,,,,,,,,,0,64,0,,
221760,set_tempo,1440,1,0,,,,,,333333,,,,,,,
221760,control_change,0,0,2,,,,,,,,,0,64,127,,
221760,note_on,160,0,1,,,,,,,,,0,,,61,0
221760,note_on,0,0,2,,,,,,,,,0,,,35,54
221760,note_on,112,0,2,,,,,,,,,0,,,54,0
221760,note_on,0,0,1,,,,,,,,,0,,,70,0
221760,note_on,0,0,1,,,,,,,,,0,,,71,54
222240,note_on,0,0,2,,,,,,,,,0,,,54,36
222240,note_on,0,0,2,,,,,,,,,0,,,50,32
222240,note_on,480,0,1,,,,,,,,,0,,,59,36
222240,note_on,480,0,2,,,,,,,,,0,,,35,0
222240,note_on,0,0,2,,,,,,,,,0,,,47,32
222400,note_on,0,0,1,,,,,,,,,0,,,62,36
222400,note_on,160,0,1,,,,,,,,,0,,,59,0
222560,note_on,0,0,1,,,,,,,,,0,,,66,36
222560,note_on,160,0,1,,,,,,,,,0,,,62,0
222720,note_on,160,0,1,,,,,,,,,0,,,66,0
222720,note_on,0,0,1,,,,,,,,,0,,,59,36
222728,set_tempo,968,1,0,,,,,,375000,,,,,,,
223064,control_change,824,0,2,,,,,,,,,0,64,0,,
223200,note_on,136,0,2,,,,,,,,,0,,,54,0
223200,note_on,0,0,1,,,,,,,,,0,,,71,90
223200,note_on,0,0,1,,,,,,,,,0,,,71,0
223200,note_on,480,0,1,,,,,,,,,0,,,59,0
223200,set_tempo,472,1,0,,,,,,333333,,,,,,,
223200,note_on,0,0,2,,,,,,,,,0,,,50,0
223200,note_on,0,0,2,,,,,,,,,0,,,35,90
223200,control_change,0,0,2,,,,,,,,,0,64,126,,
223200,note_on,0,0,2,,,,,,,,,0,,,47,0
223680,note_on,0,0,2,,,,,,,,,0,,,54,67
223680,note_on,0,0,2,,,,,,,,,0,,,50,60
223680,note_on,0,0,2,,,,,,,,,0,,,47,60
223680,note_on,480,0,2,,,,,,,,,0,,,35,0
223680,note_on,480,0,1,,,,,,,,,0,,,59,67
223840,note_on,160,0,1,,,,,,,,,0,,,59,0
223840,note_on,0,0,1,,,,,,,,,0,,,62,61
224000,note_on,0,0,1,,,,,,,,,0,,,66,61
224000,note_on,160,0,1,,,,,,,,,0,,,62,0
224160,note_on,0,0,1,,,,,,,,,0,,,59,67
224160,note_on,160,0,1,,,,,,,,,0,,,66,0
224160,set_tempo,960,1,0,,,,,,375000,,,,,,,
224568,control_change,888,0,2,,,,,,,,,0,64,0,,
224640,control_change,0,0,2,,,,,,,,,0,64,125,,
224640,note_on,0,0,1,,,,,,,,,0,,,71,90
224640,note_on,0,0,1,,,,,,,,,0,,,71,0
224640,note_on,72,0,2,,,,,,,,,0,,,54,0
224640,note_on,480,0,1,,,,,,,,,0,,,59,0
224640,set_tempo,480,1,0,,,,,,333333,,,,,,,
224640,note_on,0,0,2,,,,,,,,,0,,,50,0
224640,note_on,0,0,2,,,,,,,,,0,,,35,90
224640,note_on,0,0,2,,,,,,,,,0,,,47,0
225120,note_on,0,0,2,,,,,,,,,0,,,50,60
225120,note_on,480,0,1,,,,,,,,,0,,,59,67
225120,note_on,0,0,2,,,,,,,,,0,,,54,67
225120,note_on,0,0,2,,,,,,,,,0,,,47,60
225120,note_on,480,0,2,,,,,,,,,0,,,35,0
225280,note_on,160,0,1,,,,,,,,,0,,,59,0
225280,note_on,0,0,1,,,,,,,,,0,,,62,60
225440,note_on,160,0,1,,,,,,,,,0,,,62,0
225440,note_on,0,0,1,,,,,,,,,0,,,66,60
225600,note_on,160,0,1,,,,,,,,,0,,,66,0
225600,note_on,0,0,1,,,,,,,,,0,,,59,67
225608,set_tempo,968,1,0,,,,,,375000,,,,,,,
225984,control_change,864,0,2,,,,,,,,,0,64,0,,
226080,note_on,0,0,1,,,,,,,,,0,,,62,90
226080,note_on,480,0,1,,,,,,,,,0,,,59,0
226080,note_on,0,0,1,,,,,,,,,0,,,71,0
226080,note_on,96,0,2,,,,,,,,,0,,,54,0
226080,note_on,0,0,2,,,,,,,,,0,,,50,0
226080,note_on,0,0,2,,,,,,,,,0,,,47,0
226080,note_on,0,0,2,,,,,,,,,0,,,35,82
226080,control_change,0,0,2,,,,,,,,,0,64,125,,
226080,set_tempo,472,1,0,,,,,,333333,,,,,,,
226088,set_tempo,8,1,0,,,,,,315789,,,,,,,
226240,note_on,160,0,1,,,,,,,,,0,,,62,0
226240,note_on,0,0,1,,,,,,,,,0,,,66,72
226400,note_on,160,0,1,,,,,,,,,0,,,66,0
226400,note_on,0,0,1,,,,,,,,,0,,,71,72
226560,note_on,160,0,1,,,,,,,,,0,,,71,0
226560,note_on,0,0,2,,,,,,,,,0,,,47,60
226560,note_on,0,0,2,,,,,,,,,0,,,54,67
226560,note_on,0,0,2,,,,,,,,,0,,,50,60
226560,note_on,480,0,2,,,,,,,,,0,,,35,0
226560,note_on,0,0,1,,,,,,,,,0,,,59,83
226968,control_change,408,0,2,,,,,,,,,0,64,0,,
227040,note_on,480,0,1,,,,,,,,,0,,,59,0
227040,note_on,0,0,1,,,,,,,,,0,,,62,90
227040,note_on,72,0,2,,,,,,,,,0,,,54,0
227040,note_on,0,0,2,,,,,,,,,0,,,50,0
227040,note_on,0,0,2,,,,,,,,,0,,,47,0
227040,note_on,0,0,2,,,,,,,,,0,,,35,82
227040,control_change,0,0,2,,,,,,,,,0,64,126,,
227200,note_on,160,0,1,,,,,,,,,0,,,62,0
227200,note_on,0,0,1,,,,,,,,,0,,,66,72
227360,note_on,160,0,1,,,,,,,,,0,,,66,0
227360,note_on,0,0,1,,,,,,,,,0,,,71,72
227520,note_on,0,0,2,,,,,,,,,0,,,54,67
227520,note_on,0,0,2,,,,,,,,,0,,,47,60
227520,note_on,160,0,1,,,,,,,,,0,,,71,0
227520,note_on,480,0,2,,,,,,,,,0,,,35,0
227520,note_on,0,0,2,,,,,,,,,0,,,50,60
227520,note_on,0,0,1,,,,,,,,,0,,,59,79
227896,control_change,376,0,2,,,,,,,,,0,64,0,,
228000,note_on,480,0,1,,,,,,,,,0,,,59,0
228000,control_change,0,0,2,,,,,,,,,0,64,123,,
228000,note_on,0,0,2,,,,,,,,,0,,,35,83
228000,note_on,0,0,2,,,,,,,,,0,,,47,0
228000,note_on,104,0,2,,,,,,,,,0,,,54,0
228000,note_on,0,0,1,,,,,,,,,0,,,62,90
228000,note_on,0,0,2,,,,,,,,,0,,,50,0
228160,note_on,160,0,1,,,,,,,,,0,,,62,0
228160,note_on,0,0,1,,,,,,,,,0,,,66,72
228320,note_on,160,0,1,,,,,,,,,0,,,66,0
228320,note_on,0,0,1,,,,,,,,,0,,,71,72
228480,note_on,160,0,1,,,,,,,,,0,,,71,0
228480,note_on,0,0,1,,,,,,,,,0,,,62,81
228480,set_tempo,2392,1,0,,,,,,400000,,,,,,,
228480,note_on,0,0,2,,,,,,,,,0,,,50,60
228480,note_on,480,0,2,,,,,,,,,0,,,35,0
228480,note_on,0,0,2,,,,,,,,,0,,,47,60
228480,note_on,0,0,2,,,,,,,,,0,,,54,67
228808,control_change,328,0,2,,,,,,,,,0,64,0,,
228960,note_on,0,0,1,,,,,,,,,0,,,70,90
228960,note_on,480,0,1,,,,,,,,,0,,,62,0
228960,set_tempo,480,1,0,,,,,,333333,,,,,,,
228960,note_on,0,0,2,,,,,,,,,0,,,50,0
228960,note_on,0,0,2,,,,,,,,,0,,,47,0
228960,note_on,0,0,2,,,,,,,,,0,,,34,80
228960,note_on,152,0,2,,,,,,,,,0,,,54,0
229000,control_change,40,0,2,,,,,,,,,0,64,125,,
229440,note_on,0,0,2,,,,,,,,,0,,,54,67
229440,note_on,440,0,2,,,,,,,,,0,,,34,0
229440,note_on,0,0,2,,,,,,,,,0,,,46,60
229440,note_on,480,0,1,,,,,,,,,0,,,58,67
229440,note_on,0,0,2,,,,,,,,,0,,,51,60
229600,note_on,160,0,1,,,,,,,,,0,,,58,0
229600,note_on,0,0,1,,,,,,,,,0,,,63,62
229760,note_on,0,0,1,,,,,,,,,0,,,66,62
229760,note_on,160,0,1,,,,,,,,,0,,,63,0
229920,note_on,160,0,1,,,,,,,,,0,,,66,0
229920,note_on,0,0,1,,,,,,,,,0,,,58,67
229928,set_tempo,968,1,0,,,,,,376176,,,,,,,
230312,control_change,872,0,2,,,,,,,,,0,64,0,,
230400,control_change,0,0,2,,,,,,,,,0,64,126,,
230400,note_on,0,0,2,,,,,,,,,0,,,46,0
230400,note_on,0,0,2,,,,,,,,,0,,,51,0
230400,note_on,88,0,2,,,,,,,,,0,,,54,0
230400,note_on,480,0,1,,,,,,,,,0,,,58,0
230400,note_on,0,0,1,,,,,,,,,0,,,70,90
230400,note_on,0,0,1,,,,,,,,,0,,,70,0
230400,note_on,0,0,2,,,,,,,,,0,,,34,90
230408,set_tempo,480,1,0,,,,,,333333,,,,,,,
230880,note_on,480,0,1,,,,,,,,,0,,,58,67
230880,note_on,0,0,2,,,,,,,,,0,,,54,67
230880,note_on,0,0,2,,,,,,,,,0,,,51,60
230880,note_on,0,0,2,,,,,,,,,0,,,46,60
230880,note_on,480,0,2,,,,,,,,,0,,,34,0
231040,note_on,160,0,1,,,,,,,,,0,,,58,0
231040,note_on,0,0,1,,,,,,,,,0,,,63,62
231200,note_on,160,0,1,,,,,,,,,0,,,63,0
231200,note_on,0,0,1,,,,,,,,,0,,,66,62
231360,note_on,0,0,1,,,,,,,,,0,,,58,67
231360,note_on,160,0,1,,,,,,,,,0,,,66,0
231760,control_change,880,0,2,,,,,,,,,0,64,0,,
231840,set_tempo,1432,1,0,,,,,,319149,,,,,,,
231840,note_on,480,0,1,,,,,,,,,0,,,58,0
231840,note_on,0,0,1,,,,,,,,,0,,,70,0
231840,note_on,0,0,2,,,,,,,,,0,,,34,93
231840,note_on,0,0,2,,,,,,,,,0,,,46,0
231840,control_change,0,0,2,,,,,,,,,0,64,127,,
231840,note_on,0,0,1,,,,,,,,,0,,,63,93
231840,note_on,0,0,2,,,,,,,,,0,,,51,0
231840,note_on,80,0,2,,,,,,,,,0,,,54,0
232000,note_on,0,0,1,,,,,,,,,0,,,66,69
232000,note_on,160,0,1,,,,,,,,,0,,,63,0
232160,note_on,0,0,1,,,,,,,,,0,,,70,69
232160,note_on,160,0,1,,,,,,,,,0,,,66,0
232320,note_on,480,0,2,,,,,,,,,0,,,34,0
232320,note_on,0,0,2,,,,,,,,,0,,,46,65
232320,note_on,0,0,2,,,,,,,,,0,,,51,65
232320,note_on,160,0,1,,,,,,,,,0,,,70,0
232320,note_on,0,0,1,,,,,,,,,0,,,58,83
232320,note_on,0,0,2,,,,,,,,,0,,,54,73
232688,control_change,368,0,2,,,,,,,,,0,64,0,,
232800,note_on,0,0,1,,,,,,,,,0,,,63,99
232800,note_on,112,0,2,,,,,,,,,0,,,54,0
232800,note_on,0,0,2,,,,,,,,,0,,,51,0
232800,control_change,0,0,2,,,,,,,,,0,64,126,,
232800,note_on,0,0,2,,,,,,,,,0,,,46,0
232800,note_on,480,0,1,,,,,,,,,0,,,58,0
232800,note_on,0,0,2,,,,,,,,,0,,,34,96
232960,note_on,160,0,1,,,,,,,,,0,,,63,0
232960,note_on,0,0,1,,,,,,,,,0,,,66,74
233120,note_on,0,0,1,,,,,,,,,0,,,70,74
233120,note_on,160,0,1,,,,,,,,,0,,,66,0
233280,note_on,0,0,1,,,,,,,,,0,,,58,86
233280,note_on,0,0,2,,,,,,,,,0,,,54,75
233280,note_on,0,0,2,,,,,,,,,0,,,51,67
233280,note_on,0,0,2,,,,,,,,,0,,,46,67
233280,note_on,480,0,2,,,,,,,,,0,,,34,0
233280,note_on,160,0,1,,,,,,,,,0,,,70,0
233656,control_change,376,0,2,,,,,,,,,0,64,0,,
233760,note_on,480,0,1,,,,,,,,,0,,,58,0
233760,note_on,0,0,1,,,,,,,,,0,,,63,100
233760,note_on,104,0,2,,,,,,,,,0,,,54,0
233760,note_on,0,0,2,,,,,,,,,0,,,51,0
233760,note_on,0,0,2,,,,,,,,,0,,,46,0
233760,note_on,0,0,2,,,,,,,,,0,,,34,97
233760,control_change,0,0,2,,,,,,,,,0,64,126,,
233920,note_on,0,0,1,,,,,,,,,0,,,66,79
233920,note_on,160,0,1,,,,,,,,,0,,,63,0
234080,note_on,160,0,1,,,,,,,,,0,,,66,0
234080,note_on,0,0,1,,,,,,,,,0,,,70,79
234228,set_tempo,2388,1,0,,,,,,375000,,,,,,,
234240,note_on,480,0,2,,,,,,,,,0,,,34,0
234240,note_on,0,0,2,,,,,,,,,0,,,46,68
234240,note_on,160,0,1,,,,,,,,,0,,,70,0
234240,note_on,0,0,1,,,,,,,,,0,,,58,87
234240,note_on,0,0,2,,,,,,,,,0,,,54,76
234240,note_on,0,0,2,,,,,,,,,0,,,51,68
234640,control_change,400,0,2,,,,,,,,,0,64,0,,
234720,note_on,0,0,1,,,,,,,,,0,,,75,108
234720,note_on,0,0,2,,,,,,,,,0,,,51,0
234720,note_on,0,0,2,,,,,,,,,0,,,46,0
234720,note_on,0,0,2,,,,,,,,,0,,,32,99
234720,note_on,0,0,2,,,,,,,,,0,,,44,99
234720,note_on,0,0,1,,,,,,,,,0,,,63,108
234720,note_on,480,0,1,,,,,,,,,0,,,58,0
234720,note_on,80,0,2,,,,,,,,,0,,,54,0
234728,set_tempo,500,1,0,,,,,,333333,,,,,,,
235200,note_on,0,0,2,,,,,,,,,0,,,44,80
235200,note_on,0,0,2,,,,,,,,,0,,,47,80
235200,note_on,0,0,2,,,,,,,,,0,,,53,89
235200,note_on,480,0,2,,,,,,,,,0,,,44,0
235200,note_on,0,0,2,,,,,,,,,0,,,51,80
235200,note_on,0,0,2,,,,,,,,,0,,,32,0
235680,note_on,0,0,1,,,,,,,,,0,,,75,108
235680,note_on,0,0,1,,,,,,,,,0,,,87,108
235680,note_on,0,0,1,,,,,,,,,0,,,63,0
235680,note_on,960,0,1,,,,,,,,,0,,,75,0
236160,note_on,0,0,2,,,,,,,,,0,,,53,0
236160,note_on,0,0,2,,,,,,,,,0,,,51,0
236160,note_on,0,0,2,,,,,,,,,0,,,47,0
236160,note_on,0,0,2,,,,,,,,,0,,,47,71
236160,note_on,0,0,2,,,,,,,,,0,,,54,79
236160,note_on,0,0,2,,,,,,,,,0,,,51,71
236160,note_on,0,0,2,,,,,,,,,0,,,44,71
236160,note_on,960,0,2,,,,,,,,,0,,,44,0
236640,note_on,0,0,1,,,,,,,,,0,,,71,102
236640,note_on,0,0,1,,,,,,,,,0,,,83,102
236640,note_on,0,0,1,,,,,,,,,0,,,87,0
236640,note_on,960,0,1,,,,,,,,,0,,,75,0
237120,note_on,0,0,2,,,,,,,,,0,,,54,85
237120,note_on,0,0,2,,,,,,,,,0,,,51,76
237120,note_on,0,0,2,,,,,,,,,0,,,47,76
237120,note_on,0,0,2,,,,,,,,,0,,,44,76
237120,note_on,960,0,2,,,,,,,,,0,,,44,0
237120,note_on,0,0,2,,,,,,,,,0,,,54,0
237120,note_on,0,0,2,,,,,,,,,0,,,51,0
237120,note_on,0,0,2,,,,,,,,,0,,,47,0
237600,set_tempo,2872,1,0,,,,,,323450,,,,,,,
237600,note_on,960,0,1,,,,,,,,,0,,,83,0
237600,note_on,0,0,1,,,,,,,,,0,,,71,0
237600,note_on,0,0,1,,,,,,,,,0,,,80,90
237600,note_on,0,0,2,,,,,,,,,0,,,59,85
237600,note_on,0,0,2,,,,,,,,,0,,,53,76
237600,note_on,0,0,2,,,,,,,,,0,,,56,76
237600,note_on,0,0,2,,,,,,,,,0,,,47,0
237600,note_on,0,0,2,,,,,,,,,0,,,51,0
237600,note_on,0,0,2,,,,,,,,,0,,,54,0
237600,note_on,480,0,2,,,,,,,,,0,,,44,0
237600,note_on,0,0,2,,,,,,,,,0,,,46,76
237760,note_on,0,0,1,,,,,,,,,0,,,83,84
237760,note_on,160,0,1,,,,,,,,,0,,,80,0
237920,note_on,0,0,1,,,,,,,,,0,,,80,89
237920,note_on,160,0,1,,,,,,,,,0,,,83,0
238080,note_on,0,0,1,,,,,,,,,0,,,83,83
238080,note_on,160,0,1,,,,,,,,,0,,,80,0
238240,note_on,160,0,1,,,,,,,,,0,,,83,0
238240,note_on,0,0,1,,,,,,,,,0,,,80,87
238400,note_on,160,0,1,,,,,,,,,0,,,80,0
238400,note_on,0,0,1,,,,,,,,,0,,,83,80
238560,note_on,0,0,1,,,,,,,,,0,,,80,86
238560,note_on,160,0,1,,,,,,,,,0,,,83,0
238720,note_on,160,0,1,,,,,,,,,0,,,80,0
238720,note_on,0,0,1,,,,,,,,,0,,,83,77
238880,note_on,160,0,1,,,,,,,,,0,,,83,0
238880,note_on,0,0,1,,,,,,,,,0,,,80,84
239040,note_on,160,0,1,,,,,,,,,0,,,80,0
239040,note_on,0,0,1,,,,,,,,,0,,,83,77
239200,note_on,160,0,1,,,,,,,,,0,,,83,0
239200,note_on,0,0,1,,,,,,,,,0,,,80,83
239360,note_on,160,0,1,,,,,,,,,0,,,80,0
239360,note_on,0,0,1,,,,,,,,,0,,,83,75
239520,note_on,0,0,1,,,,,,,,,0,,,80,81
239520,note_on,160,0,1,,,,,,,,,0,,,83,0
239680,note_on,160,0,1,,,,,,,,,0,,,80,0
239680,note_on,0,0,1,,,,,,,,,0,,,83,75
239840,note_on,160,0,1,,,,,,,,,0,,,83,0
239840,note_on,0,0,1,,,,,,,,,0,,,80,80
240000,note_on,160,0,1,,,,,,,,,0,,,80,0
240000,note_on,0,0,1,,,,,,,,,0,,,83,73
240160,note_on,0,0,1,,,,,,,,,0,,,80,78
240160,note_on,160,0,1,,,,,,,,,0,,,83,0
240320,note_on,0,0,1,,,,,,,,,0,,,83,72
240320,note_on,160,0,1,,,,,,,,,0,,,80,0
240468,set_tempo,2868,1,0,,,,,,334262,,,,,,,
240480,note_on,0,0,1,,,,,,,,,0,,,80,78
240480,note_on,160,0,1,,,,,,,,,0,,,83,0
240480,note_on,2880,0,2,,,,,,,,,0,,,46,0
240480,set_tempo,12,1,0,,,,,,323450,,,,,,,
240480,note_on,0,0,2,,,,,,,,,0,,,59,0
240480,note_on,0,0,2,,,,,,,,,0,,,53,50
240480,note_on,0,0,2,,,,,,,,,0,,,56,0
240480,note_on,0,0,2,,,,,,,,,0,,,53,0
240480,note_on,0,0,2,,,,,,,,,0,,,58,56
240480,note_on,0,0,2,,,,,,,,,0,,,56,50
240480,note_on,0,0,2,,,,,,,,,0,,,46,50
240580,set_tempo,100,1,0,,,,,,324324,,,,,,,
240640,note_on,160,0,1,,,,,,,,,0,,,80,0
240640,note_on,0,0,1,,,,,,,,,0,,,82,69
240660,set_tempo,80,1,0,,,,,,325203,,,,,,,
240760,set_tempo,100,1,0,,,,,,326087,,,,,,,
240800,note_on,0,0,1,,,,,,,,,0,,,80,72
240800,note_on,160,0,1,,,,,,,,,0,,,82,0
240840,set_tempo,80,1,0,,,,,,326975,,,,,,,
240940,set_tempo,100,1,0,,,,,,327869,,,,,,,
240960,note_on,160,0,1,,,,,,,,,0,,,80,0
240960,note_on,0,0,1,,,,,,,,,0,,,82,63
241020,set_tempo,80,1,0,,,,,,328767,,,,,,,
241120,note_on,160,0,1,,,,,,,,,0,,,82,0
241120,note_on,0,0,1,,,,,,,,,0,,,80,65
241120,set_tempo,100,1,0,,,,,,329670,,,,,,,
241200,set_tempo,80,1,0,,,,,,330579,,,,,,,
241280,note_on,160,0,1,,,,,,,,,0,,,80,0
241280,note_on,0,0,1,,,,,,,,,0,,,82,57
241300,set_tempo,100,1,0,,,,,,331492,,,,,,,
241380,set_tempo,80,1,0,,,,,,332410,,,,,,,
241440,note_on,160,0,1,,,,,,,,,0,,,82,0
241440,note_on,0,0,1,,,,,,,,,0,,,80,59
241480,set_tempo,100,1,0,,,,,,333333,,,,,,,
241560,set_tempo,80,1,0,,,,,,334262,,,,,,,
241600,note_on,160,0,1,,,,,,,,,0,,,80,0
241600,note_on,0,0,1,,,,,,,,,0,,,82,50
241660,set_tempo,100,1,0,,,,,,335196,,,,,,,
241740,set_tempo,80,1,0,,,,,,336134,,,,,,,
241760,note_on,160,0,1,,,,,,,,,0,,,82,0
241760,note_on,0,0,1,,,,,,,,,0,,,80,53
241840,set_tempo,100,1,0,,,,,,337079,,,,,,,
241920,set_tempo,80,1,0,,,,,,338028,,,,,,,
241920,note_on,0,0,1,,,,,,,,,0,,,82,45
241920,note_on,160,0,1,,,,,,,,,0,,,80,0
241940,set_tempo,20,1,0,,,,,,339943,,,,,,,
241960,set_tempo,20,1,0,,,,,,341880,,,,,,,
241980,set_tempo,20,1,0,,,,,,343840,,,,,,,
242000,set_tempo,20,1,0,,,,,,345821,,,,,,,
242020,set_tempo,20,1,0,,,,,,347826,,,,,,,
242040,set_tempo,20,1,0,,,,,,350877,,,,,,,
242060,set_tempo,20,1,0,,,,,,352941,,,,,,,
242080,set_tempo,20,1,0,,,,,,355030,,,,,,,
242080,note_on,160,0,1,,,,,,,,,0,,,82,0
242080,note_on,0,0,1,,,,,,,,,0,,,80,46
242100,set_tempo,20,1,0,,,,,,357143,,,,,,,
242120,set_tempo,20,1,0,,,,,,359281,,,,,,,
242140,set_tempo,20,1,0,,,,,,362538,,,,,,,
242160,set_tempo,20,1,0,,,,,,364742,,,,,,,
242180,set_tempo,20,1,0,,,,,,366972,,,,,,,
242200,set_tempo,20,1,0,,,,,,369231,,,,,,,
242220,set_tempo,20,1,0,,,,,,371517,,,,,,,
242240,set_tempo,20,1,0,,,,,,373832,,,,,,,
242240,note_on,0,0,1,,,,,,,,,0,,,82,39
242240,note_on,160,0,1,,,,,,,,,0,,,80,0
242260,set_tempo,20,1,0,,,,,,377358,,,,,,,
242280,set_tempo,20,1,0,,,,,,379747,,,,,,,
242300,set_tempo,20,1,0,,,,,,382166,,,,,,,
242320,set_tempo,20,1,0,,,,,,384615,,,,,,,
242340,set_tempo,20,1,0,,,,,,387097,,,,,,,
242360,set_tempo,20,1,0,,,,,,390879,,,,,,,
242380,set_tempo,20,1,0,,,,,,393443,,,,,,,
242400,set_tempo,20,1,0,,,,,,396040,,,,,,,
242400,note_on,0,0,1,,,,,,,,,0,,,80,40
242400,note_on,160,0,1,,,,,,,,,0,,,82,0
242420,set_tempo,20,1,0,,,,,,398671,,,,,,,
242440,set_tempo,20,1,0,,,,,,401338,,,,,,,
242460,set_tempo,20,1,0,,,,,,404040,,,,,,,
242480,set_tempo,20,1,0,,,,,,408163,,,,,,,
242500,set_tempo,20,1,0,,,,,,410959,,,,,,,
242520,set_tempo,20,1,0,,,,,,413793,,,,,,,
242540,set_tempo,20,1,0,,,,,,416667,,,,,,,
242560,note_on,160,0,1,,,,,,,,,0,,,80,0
242560,set_tempo,20,1,0,,,,,,419580,,,,,,,
242560,note_on,0,0,1,,,,,,,,,0,,,82,32
242580,set_tempo,20,1,0,,,,,,424028,,,,,,,
242600,set_tempo,20,1,0,,,,,,427046,,,,,,,
242620,set_tempo,20,1,0,,,,,,430108,,,,,,,
242640,set_tempo,20,1,0,,,,,,433213,,,,,,,
242660,set_tempo,20,1,0,,,,,,436364,,,,,,,
242680,set_tempo,20,1,0,,,,,,441176,,,,,,,
242700,set_tempo,20,1,0,,,,,,444444,,,,,,,
242720,note_on,160,0,1,,,,,,,,,0,,,82,0
242720,set_tempo,20,1,0,,,,,,447761,,,,,,,
242720,note_on,0,0,1,,,,,,,,,0,,,80,34
242740,set_tempo,20,1,0,,,,,,451128,,,,,,,
242760,set_tempo,20,1,0,,,,,,454545,,,,,,,
242780,set_tempo,20,1,0,,,,,,458015,,,,,,,
242800,set_tempo,20,1,0,,,,,,463320,,,,,,,
242820,set_tempo,20,1,0,,,,,,466926,,,,,,,
242840,set_tempo,20,1,0,,,,,,470588,,,,,,,
242860,set_tempo,20,1,0,,,,,,474308,,,,,,,
242880,set_tempo,20,1,0,,,,,,478088,,,,,,,
242880,note_on,0,0,1,,,,,,,,,0,,,82,26
242880,note_on,160,0,1,,,,,,,,,0,,,80,0
242900,set_tempo,20,1,0,,,,,,483871,,,,,,,
242920,set_tempo,20,1,0,,,,,,487805,,,,,,,
242940,set_tempo,20,1,0,,,,,,491803,,,,,,,
242960,set_tempo,20,1,0,,,,,,495868,,,,,,,
242980,set_tempo,20,1,0,,,,,,500000,,,,,,,
243000,set_tempo,20,1,0,,,,,,504202,,,,,,,
243020,set_tempo,20,1,0,,,,,,510638,,,,,,,
243040,set_tempo,20,1,0,,,,,,515021,,,,,,,
243040,note_on,160,0,1,,,,,,,,,0,,,82,0
243040,note_on,0,0,1,,,,,,,,,0,,,80,27
243060,set_tempo,20,1,0,,,,,,519481,,,,,,,
243080,set_tempo,20,1,0,,,,,,524017,,,,,,,
243100,set_tempo,20,1,0,,,,,,528634,,,,,,,
243120,set_tempo,20,1,0,,,,,,535714,,,,,,,
243140,set_tempo,20,1,0,,,,,,540541,,,,,,,
243160,set_tempo,20,1,0,,,,,,545455,,,,,,,
243180,set_tempo,20,1,0,,,,,,550459,,,,,,,
243200,note_on,0,0,1,,,,,,,,,0,,,82,24
243200,note_on,160,0,1,,,,,,,,,0,,,80,0
243200,set_tempo,20,1,0,,,,,,555556,,,,,,,
243220,set_tempo,20,1,0,,,,,,563380,,,,,,,
243360,note_on,0,0,2,,,,,,,,,0,,,53,0
243360,note_on,0,0,2,,,,,,,,,0,,,51,36
243360,set_tempo,0,1,0,,,,,,332410,,,,,,,
243360,key_signature,140,1,0,,,,,Eb,,,,,,,,
243360,note_on,0,0,2,,,,,,,,,0,,,56,0
243360,note_on,2880,0,2,,,,,,,,,0,,,46,0
243360,note_on,160,0,1,,,,,,,,,0,,,82,0
243360,note_on,0,0,1,,,,,,,,,0,,,79,27
243360,note_on,0,0,2,,,,,,,,,0,,,58,0
243520,note_on,0,0,1,,,,,,,,,0,,,82,49
243520,note_on,160,0,1,,,,,,,,,0,,,79,0
243680,note_on,160,0,1,,,,,,,,,0,,,82,0
243680,note_on,0,0,1,,,,,,,,,0,,,80,48
243840,note_on,160,0,1,,,,,,,,,0,,,80,0
243840,note_on,0,0,1,,,,,,,,,0,,,79,48
243840,note_on,480,0,2,,,,,,,,,0,,,58,26
243840,set_tempo,480,1,0,,,,,,300000,,,,,,,
244000,note_on,0,0,1,,,,,,,,,0,,,77,47
244000,note_on,160,0,1,,,,,,,,,0,,,79,0
244160,note_on,0,0,1,,,,,,,,,0,,,75,46
244160,note_on,160,0,1,,,,,,,,,0,,,77,0
244320,note_on,0,0,1,,,,,,,,,0,,,74,45
244320,note_on,160,0,1,,,,,,,,,0,,,75,0
244480,note_on,160,0,1,,,,,,,,,0,,,74,0
244480,note_on,0,0,1,,,,,,,,,0,,,72,45
244640,note_on,160,0,1,,,,,,,,,0,,,72,0
244640,note_on,0,0,1,,,,,,,,,0,,,70,45
244800,note_on,0,0,2,,,,,,,,,0,,,51,0
244800,note_on,960,0,2,,,,,,,,,0,,,58,0
244800,set_tempo,960,1,0,,,,,,306122,,,,,,,
244800,note_on,0,0,2,,,,,,,,,0,,,53,40
244800,note_on,160,0,1,,,,,,,,,0,,,70,0
244800,note_on,0,0,1,,,,,,,,,0,,,68,44
244960,note_on,160,0,1,,,,,,,,,0,,,68,0
244960,note_on,0,0,1,,,,,,,,,0,,,67,44
245120,note_on,160,0,1,,,,,,,,,0,,,67,0
245120,note_on,0,0,1,,,,,,,,,0,,,65,43
245280,note_on,160,0,1,,,,,,,,,0,,,65,0
245280,note_on,0,0,1,,,,,,,,,0,,,63,42
245280,note_on,480,0,2,,,,,,,,,0,,,58,30
245280,set_tempo,480,1,0,,,,,,300000,,,,,,,
245440,note_on,160,0,1,,,,,,,,,0,,,63,0
245440,note_on,0,0,1,,,,,,,,,0,,,62,44
245600,note_on,160,0,1,,,,,,,,,0,,,62,0
245600,note_on,0,0,1,,,,,,,,,0,,,60,43
245760,note_on,0,0,1,,,,,,,,,0,,,58,45
245760,note_on,160,0,1,,,,,,,,,0,,,60,0
245920,note_on,160,0,1,,,,,,,,,0,,,58,0
245920,note_on,0,0,1,,,,,,,,,0,,,60,46
246080,note_on,160,0,1,,,,,,,,,0,,,60,0
246080,note_on,0,0,1,,,,,,,,,0,,,62,45
246240,note_on,160,0,1,,,,,,,,,0,,,62,0
246240,note_on,960,0,2,,,,,,,,,0,,,58,0
246240,note_on,0,0,2,,,,,,,,,0,,,53,0
246240,note_on,0,0,2,,,,,,,,,0,,,55,46
246240,set_tempo,960,1,0,,,,,,306905,,,,,,,
246240,note_on,0,0,1,,,,,,,,,0,,,63,49
246400,note_on,0,0,1,,,,,,,,,0,,,62,50
246400,note_on,160,0,1,,,,,,,,,0,,,63,0
246560,note_on,160,0,1,,,,,,,,,0,,,62,0
246560,note_on,0,0,1,,,,,,,,,0,,,63,51
246720,set_tempo,480,1,0,,,,,,300000,,,,,,,
246720,note_on,480,0,2,,,,,,,,,0,,,58,33
246720,note_on,160,0,1,,,,,,,,,0,,,63,0
246720,note_on,0,0,1,,,,,,,,,0,,,64,54
246880,note_on,160,0,1,,,,,,,,,0,,,64,0
246880,note_on,0,0,1,,,,,,,,,0,,,63,53
247040,note_on,160,0,1,,,,,,,,,0,,,63,0
247040,note_on,0,0,1,,,,,,,,,0,,,64,51
247200,note_on,160,0,1,,,,,,,,,0,,,64,0
247200,note_on,0,0,1,,,,,,,,,0,,,65,59
247360,note_on,0,0,1,,,,,,,,,0,,,64,57
247360,note_on,160,0,1,,,,,,,,,0,,,65,0
247520,note_on,160,0,1,,,,,,,,,0,,,64,0
247520,note_on,0,0,1,,,,,,,,,0,,,65,54
247680,note_on,960,0,2,,,,,,,,,0,,,58,0
247680,note_on,0,0,2,,,,,,,,,0,,,55,0
247680,set_tempo,960,1,0,,,,,,305344,,,,,,,
247680,note_on,0,0,1,,,,,,,,,0,,,66,63
247680,note_on,0,0,2,,,,,,,,,0,,,50,50
247680,note_on,160,0,1,,,,,,,,,0,,,65,0
247840,note_on,0,0,1,,,,,,,,,0,,,65,58
247840,note_on,160,0,1,,,,,,,,,0,,,66,0
248000,note_on,0,0,1,,,,,,,,,0,,,66,54
248000,note_on,160,0,1,,,,,,,,,0,,,65,0
248160,note_on,480,0,2,,,,,,,,,0,,,58,35
248160,note_on,0,0,1,,,,,,,,,0,,,67,63
248160,note_on,160,0,1,,,,,,,,,0,,,66,0
248160,set_tempo,480,1,0,,,,,,300000,,,,,,,
248320,note_on,160,0,1,,,,,,,,,0,,,67,0
248320,note_on,0,0,1,,,,,,,,,0,,,66,60
248480,note_on,160,0,1,,,,,,,,,0,,,66,0
248480,note_on,0,0,1,,,,,,,,,0,,,67,55
248640,note_on,160,0,1,,,,,,,,,0,,,67,0
248640,note_on,0,0,1,,,,,,,,,0,,,68,54
248800,note_on,0,0,1,,,,,,,,,0,,,67,50
248800,note_on,160,0,1,,,,,,,,,0,,,68,0
248960,note_on,160,0,1,,,,,,,,,0,,,67,0
248960,note_on,0,0,1,,,,,,,,,0,,,68,47
249120,note_on,0,0,2,,,,,,,,,0,,,51,47
249120,set_tempo,960,1,0,,,,,,304569,,,,,,,
249120,note_on,960,0,2,,,,,,,,,0,,,58,0
249120,note_on,0,0,1,,,,,,,,,0,,,67,54
249120,note_on,160,0,1,,,,,,,,,0,,,68,0
249120,note_on,0,0,2,,,,,,,,,0,,,50,0
249280,note_on,0,0,1,,,,,,,,,0,,,70,51
249280,note_on,160,0,1,,,,,,,,,0,,,67,0
249440,note_on,160,0,1,,,,,,,,,0,,,70,0
249440,note_on,0,0,1,,,,,,,,,0,,,68,49
249600,note_on,0,0,1,,,,,,,,,0,,,67,54
249600,note_on,160,0,1,,,,,,,,,0,,,68,0
249600,note_on,480,0,2,,,,,,,,,0,,,58,35
249600,set_tempo,480,1,0,,,,,,300000,,,,,,,
249760,note_on,160,0,1,,,,,,,,,0,,,67,0
249760,note_on,0,0,1,,,,,,,,,0,,,68,51
249920,note_on,160,0,1,,,,,,,,,0,,,68,0
249920,note_on,0,0,1,,,,,,,,,0,,,70,51
250080,note_on,160,0,1,,,,,,,,,0,,,70,0
250080,note_on,0,0,1,,,,,,,,,0,,,72,54
250240,note_on,0,0,1,,,,,,,,,0,,,74,49
250240,note_on,160,0,1,,,,,,,,,0,,,72,0
250400,note_on,160,0,1,,,,,,,,,0,,,74,0
250400,note_on,0,0,1,,,,,,,,,0,,,75,49
250560,set_tempo,960,1,0,,,,,,312500,,,,,,,
250560,note_on,0,0,2,,,,,,,,,0,,,51,0
250560,note_on,960,0,2,,,,,,,,,0,,,58,0
250560,note_on,0,0,2,,,,,,,,,0,,,44,46
250560,note_on,160,0,1,,,,,,,,,0,,,75,0
250560,note_on,0,0,1,,,,,,,,,0,,,77,54
250720,note_on,0,0,1,,,,,,,,,0,,,84,58
250720,note_on,160,0,1,,,,,,,,,0,,,77,0
250880,note_on,160,0,1,,,,,,,,,0,,,84,0
250880,note_on,0,0,1,,,,,,,,,0,,,82,52
251040,set_tempo,480,1,0,,,,,,300000,,,,,,,
251040,note_on,0,0,2,,,,,,,,,0,,,60,33
251040,note_on,480,0,2,,,,,,,,,0,,,44,0
251040,note_on,0,0,2,,,,,,,,,0,,,56,29
251040,note_on,0,0,1,,,,,,,,,0,,,80,57
251040,note_on,160,0,1,,,,,,,,,0,,,82,0
251200,note_on,0,0,1,,,,,,,,,0,,,79,53
251200,note_on,160,0,1,,,,,,,,,0,,,80,0
251360,note_on,0,0,1,,,,,,,,,0,,,77,51
251360,note_on,160,0,1,,,,,,,,,0,,,79,0
251520,note_on,160,0,1,,,,,,,,,0,,,77,0
251520,note_on,0,0,1,,,,,,,,,0,,,75,54
251680,note_on,160,0,1,,,,,,,,,0,,,75,0
251680,note_on,0,0,1,,,,,,,,,0,,,74,50
251840,note_on,160,0,1,,,,,,,,,0,,,74,0
251840,note_on,0,0,1,,,,,,,,,0,,,72,50
252000,set_tempo,960,1,0,,,,,,305344,,,,,,,
252000,note_on,0,0,1,,,,,,,,,0,,,70,53
252000,note_on,960,0,2,,,,,,,,,0,,,56,0
252000,note_on,0,0,2,,,,,,,,,0,,,46,45
252000,note_on,0,0,2,,,,,,,,,0,,,60,0
252000,note_on,160,0,1,,,,,,,,,0,,,72,0
252160,note_on,0,0,1,,,,,,,,,0,,,77,50
252160,note_on,160,0,1,,,,,,,,,0,,,70,0
252320,note_on,0,0,1,,,,,,,,,0,,,75,50
252320,note_on,160,0,1,,,,,,,,,0,,,77,0
252480,note_on,0,0,1,,,,,,,,,0,,,74,54
252480,note_on,160,0,1,,,,,,,,,0,,,75,0
252480,note_on,0,0,2,,,,,,,,,0,,,56,30
252480,note_on,0,0,2,,,,,,,,,0,,,58,30
252480,note_on,0,0,2,,,,,,,,,0,,,62,34
252480,note_on,480,0,2,,,,,,,,,0,,,46,0
252480,set_tempo,480,1,0,,,,,,300000,,,,,,,
252640,note_on,0,0,1,,,,,,,,,0,,,72,50
252640,note_on,160,0,1,,,,,,,,,0,,,74,0
252800,note_on,160,0,1,,,,,,,,,0,,,72,0
252800,note_on,0,0,1,,,,,,,,,0,,,70,50
252960,note_on,160,0,1,,,,,,,,,0,,,70,0
252960,note_on,0,0,1,,,,,,,,,0,,,68,54
253120,note_on,0,0,1,,,,,,,,,0,,,67,49
253120,note_on,160,0,1,,,,,,,,,0,,,68,0
253280,note_on,0,0,1,,,,,,,,,0,,,65,49
253280,note_on,160,0,1,,,,,,,,,0,,,67,0
253440,set_tempo,960,1,0,,,,,,304569,,,,,,,
253440,note_on,0,0,2,,,,,,,,,0,,,62,0
253440,note_on,0,0,2,,,,,,,,,0,,,56,0
253440,note_on,0,0,2,,,,,,,,,0,,,51,51
253440,note_on,160,0,1,,,,,,,,,0,,,65,0
253440,note_on,0,0,1,,,,,,,,,0,,,63,54
253440,note_on,960,0,2,,,,,,,,,0,,,58,0
253600,note_on,160,0,1,,,,,,,,,0,,,63,0
253600,note_on,0,0,1,,,,,,,,,0,,,65,54
253760,note_on,160,0,1,,,,,,,,,0,,,65,0
253760,note_on,0,0,1,,,,,,,,,0,,,67,54
253920,note_on,0,0,2,,,,,,,,,0,,,58,30
253920,set_tempo,480,1,0,,,,,,300000,,,,,,,
253920,note_on,0,0,2,,,,,,,,,0,,,55,30
253920,note_on,480,0,2,,,,,,,,,0,,,51,0
253920,note_on,0,0,2,,,,,,,,,0,,,63,34
253920,note_on,0,0,1,,,,,,,,,0,,,68,54
253920,note_on,160,0,1,,,,,,,,,0,,,67,0
254080,note_on,0,0,1,,,,,,,,,0,,,70,57
254080,note_on,160,0,1,,,,,,,,,0,,,68,0
254240,note_on,160,0,1,,,,,,,,,0,,,70,0
254240,note_on,0,0,1,,,,,,,,,0,,,72,62
254400,note_on,160,0,1,,,,,,,,,0,,,72,0
254400,note_on,0,0,1,,,,,,,,,0,,,74,63
254560,note_on,0,0,1,,,,,,,,,0,,,75,67
254560,note_on,160,0,1,,,,,,,,,0,,,74,0
254720,note_on,0,0,1,,,,,,,,,0,,,77,71
254720,note_on,160,0,1,,,,,,,,,0,,,75,0
254880,set_tempo,960,1,0,,,,,,332410,,,,,,,
254880,note_on,160,0,1,,,,,,,,,0,,,77,0
254880,note_on,960,0,2,,,,,,,,,0,,,55,0
254880,note_on,0,0,1,,,,,,,,,0,,,79,70
254880,note_on,0,0,2,,,,,,,,,0,,,58,0
254880,note_on,0,0,2,,,,,,,,,0,,,63,0
254880,note_on,0,0,2,,,,,,,,,0,,,51,54
255040,note_on,160,0,1,,,,,,,,,0,,,79,0
255040,note_on,0,0,1,,,,,,,,,0,,,82,65
255200,note_on,160,0,1,,,,,,,,,0,,,82,0
255200,note_on,0,0,1,,,,,,,,,0,,,80,59
255360,note_on,480,0,2,,,,,,,,,0,,,58,46
255360,note_on,0,0,1,,,,,,,,,0,,,79,69
255360,set_tempo,480,1,0,,,,,,300000,,,,,,,
255360,note_on,160,0,1,,,,,,,,,0,,,80,0
255520,note_on,160,0,1,,,,,,,,,0,,,79,0
255520,note_on,0,0,1,,,,,,,,,0,,,77,63
255680,note_on,0,0,1,,,,,,,,,0,,,75,60
255680,note_on,160,0,1,,,,,,,,,0,,,77,0
255840,note_on,0,0,1,,,,,,,,,0,,,74,70
255840,note_on,160,0,1,,,,,,,,,0,,,75,0
256000,note_on,0,0,1,,,,,,,,,0,,,72,65
256000,note_on,160,0,1,,,,,,,,,0,,,74,0
256160,note_on,0,0,1,,,,,,,,,0,,,70,61
256160,note_on,160,0,1,,,,,,,,,0,,,72,0
256320,note_on,0,0,2,,,,,,,,,0,,,53,58
256320,note_on,960,0,2,,,,,,,,,0,,,58,0
256320,note_on,0,0,1,,,,,,,,,0,,,68,70
256320,note_on,160,0,1,,,,,,,,,0,,,70,0
256320,note_on,0,0,2,,,,,,,,,0,,,51,0
256320,set_tempo,960,1,0,,,,,,305344,,,,,,,
256480,note_on,0,0,1,,,,,,,,,0,,,67,66
256480,note_on,160,0,1,,,,,,,,,0,,,68,0
256640,note_on,0,0,1,,,,,,,,,0,,,65,67
256640,note_on,160,0,1,,,,,,,,,0,,,67,0
256800,note_on,0,0,1,,,,,,,,,0,,,63,70
256800,note_on,160,0,1,,,,,,,,,0,,,65,0
256800,note_on,480,0,2,,,,,,,,,0,,,58,45
256800,set_tempo,480,1,0,,,,,,300000,,,,,,,
256960,note_on,0,0,1,,,,,,,,,0,,,62,66
256960,note_on,160,0,1,,,,,,,,,0,,,63,0
257120,note_on,0,0,1,,,,,,,,,0,,,60,66
257120,note_on,160,0,1,,,,,,,,,0,,,62,0
257280,note_on,0,0,1,,,,,,,,,0,,,58,70
257280,note_on,160,0,1,,,,,,,,,0,,,60,0
257440,note_on,160,0,1,,,,,,,,,0,,,58,0
257440,note_on,0,0,1,,,,,,,,,0,,,60,65
257600,note_on,160,0,1,,,,,,,,,0,,,60,0
257600,note_on,0,0,1,,,,,,,,,0,,,62,65
257760,note_on,160,0,1,,,,,,,,,0,,,62,0
257760,note_on,0,0,1,,,,,,,,,0,,,63,70
257760,note_on,960,0,2,,,,,,,,,0,,,58,0
257760,note_on,0,0,2,,,,,,,,,0,,,53,0
257760,note_on,0,0,2,,,,,,,,,0,,,55,63
257760,set_tempo,960,1,0,,,,,,305344,,,,,,,
257920,note_on,160,0,1,,,,,,,,,0,,,63,0
257920,note_on,0,0,1,,,,,,,,,0,,,62,67
258080,note_on,160,0,1,,,,,,,,,0,,,62,0
258080,note_on,0,0,1,,,,,,,,,0,,,63,67
258240,set_tempo,480,1,0,,,,,,300000,,,,,,,
258240,note_on,480,0,2,,,,,,,,,0,,,58,51
258240,note_on,160,0,1,,,,,,,,,0,,,63,0
258240,note_on,0,0,1,,,,,,,,,0,,,64,75
258400,note_on,160,0,1,,,,,,,,,0,,,64,0
258400,note_on,0,0,1,,,,,,,,,0,,,63,70
258560,note_on,160,0,1,,,,,,,,,0,,,63,0
258560,note_on,0,0,1,,,,,,,,,0,,,64,70
258720,note_on,160,0,1,,,,,,,,,0,,,64,0
258720,note_on,0,0,1,,,,,,,,,0,,,65,79
258880,note_on,0,0,1,,,,,,,,,0,,,64,76
258880,note_on,160,0,1,,,,,,,,,0,,,65,0
259040,note_on,160,0,1,,,,,,,,,0,,,64,0
259040,note_on,0,0,1,,,,,,,,,0,,,65,72
259200,note_on,160,0,1,,,,,,,,,0,,,65,0
259200,note_on,0,0,1,,,,,,,,,0,,,66,82
259200,note_on,960,0,2,,,,,,,,,0,,,58,0
259200,note_on,0,0,2,,,,,,,,,0,,,55,0
259200,note_on,0,0,2,,,,,,,,,0,,,50,63
259200,set_tempo,960,1,0,,,,,,304569,,,,,,,
259360,note_on,0,0,1,,,,,,,,,0,,,65,78
259360,note_on,160,0,1,,,,,,,,,0,,,66,0
259520,note_on,160,0,1,,,,,,,,,0,,,65,0
259520,note_on,0,0,1,,,,,,,,,0,,,66,75
259680,set_tempo,480,1,0,,,,,,300000,,,,,,,
259680,note_on,480,0,2,,,,,,,,,0,,,58,47
259680,note_on,160,0,1,,,,,,,,,0,,,66,0
259680,note_on,0,0,1,,,,,,,,,0,,,67,81
259840,note_on,160,0,1,,,,,,,,,0,,,67,0
259840,note_on,0,0,1,,,,,,,,,0,,,66,78
260000,note_on,160,0,1,,,,,,,,,0,,,66,0
260000,note_on,0,0,1,,,,,,,,,0,,,67,72
260160,note_on,0,0,1,,,,,,,,,0,,,68,70
260160,note_on,160,0,1,,,,,,,,,0,,,67,0
260320,note_on,0,0,1,,,,,,,,,0,,,67,65
260320,note_on,160,0,1,,,,,,,,,0,,,68,0
260480,note_on,160,0,1,,,,,,,,,0,,,67,0
260480,note_on,0,0,1,,,,,,,,,0,,,68,65
260640,note_on,0,0,2,,,,,,,,,0,,,51,57
260640,note_on,960,0,2,,,,,,,,,0,,,58,0
260640,set_tempo,960,1,0,,,,,,304569,,,,,,,
260640,note_on,160,0,1,,,,,,,,,0,,,68,0
260640,note_on,0,0,1,,,,,,,,,0,,,67,70
260640,note_on,0,0,2,,,,,,,,,0,,,50,0
260800,note_on,160,0,1,,,,,,,,,0,,,67,0
260800,note_on,0,0,1,,,,,,,,,0,,,70,67
260960,note_on,160,0,1,,,,,,,,,0,,,70,0
260960,note_on,0,0,1,,,,,,,,,0,,,68,67
261120,note_on,160,0,1,,,,,,,,,0,,,68,0
261120,note_on,480,0,2,,,,,,,,,0,,,58,45
261120,note_on,0,0,1,,,,,,,,,0,,,67,70
261120,set_tempo,480,1,0,,,,,,300000,,,,,,,
261280,note_on,160,0,1,,,,,,,,,0,,,67,0
261280,note_on,0,0,1,,,,,,,,,0,,,68,65
261440,note_on,160,0,1,,,,,,,,,0,,,68,0
261440,note_on,0,0,1,,,,,,,,,0,,,70,65
261600,note_on,160,0,1,,,,,,,,,0,,,70,0
261600,note_on,0,0,1,,,,,,,,,0,,,72,70
261760,note_on,160,0,1,,,,,,,,,0,,,72,0
261760,note_on,0,0,1,,,,,,,,,0,,,74,65
261920,note_on,0,0,1,,,,,,,,,0,,,75,65
261920,note_on,160,0,1,,,,,,,,,0,,,74,0
262080,note_on,160,0,1,,,,,,,,,0,,,75,0
262080,note_on,0,0,1,,,,,,,,,0,,,77,70
262080,note_on,0,0,2,,,,,,,,,0,,,51,0
262080,note_on,0,0,2,,,,,,,,,0,,,44,67
262080,set_tempo,960,1,0,,,,,,312500,,,,,,,
262080,note_on,960,0,2,,,,,,,,,0,,,58,0
262240,note_on,160,0,1,,,,,,,,,0,,,77,0
262240,note_on,0,0,1,,,,,,,,,0,,,84,74
262400,note_on,160,0,1,,,,,,,,,0,,,84,0
262400,note_on,0,0,1,,,,,,,,,0,,,82,73
262560,note_on,0,0,2,,,,,,,,,0,,,60,53
262560,note_on,160,0,1,,,,,,,,,0,,,82,0
262560,note_on,0,0,1,,,,,,,,,0,,,80,72
262560,note_on,480,0,2,,,,,,,,,0,,,44,0
262560,note_on,0,0,2,,,,,,,,,0,,,56,47
262560,set_tempo,480,1,0,,,,,,300000,,,,,,,
262720,note_on,160,0,1,,,,,,,,,0,,,80,0
262720,note_on,0,0,1,,,,,,,,,0,,,79,67
262880,note_on,160,0,1,,,,,,,,,0,,,79,0
262880,note_on,0,0,1,,,,,,,,,0,,,77,67
263040,note_on,160,0,1,,,,,,,,,0,,,77,0
263040,note_on,0,0,1,,,,,,,,,0,,,75,70
263200,note_on,0,0,1,,,,,,,,,0,,,74,65
263200,note_on,160,0,1,,,,,,,,,0,,,75,0
263360,note_on,0,0,1,,,,,,,,,0,,,72,68
263360,note_on,160,0,1,,,,,,,,,0,,,74,0
263520,note_on,960,0,2,,,,,,,,,0,,,56,0
263520,note_on,0,0,2,,,,,,,,,0,,,60,0
263520,note_on,0,0,2,,,,,,,,,0,,,46,66
263520,note_on,160,0,1,,,,,,,,,0,,,72,0
263520,note_on,0,0,1,,,,,,,,,0,,,70,66
263520,set_tempo,960,1,0,,,,,,306905,,,,,,,
263680,note_on,160,0,1,,,,,,,,,0,,,70,0
263680,note_on,0,0,1,,,,,,,,,0,,,77,69
263840,note_on,160,0,1,,,,,,,,,0,,,77,0
263840,note_on,0,0,1,,,,,,,,,0,,,75,65
264000,note_on,0,0,2,,,,,,,,,0,,,58,45
264000,note_on,0,0,2,,,,,,,,,0,,,62,50
264000,note_on,0,0,2,,,,,,,,,0,,,56,45
264000,note_on,480,0,2,,,,,,,,,0,,,46,0
264000,note_on,160,0,1,,,,,,,,,0,,,75,0
264000,set_tempo,480,1,0,,,,,,300000,,,,,,,
264000,note_on,0,0,1,,,,,,,,,0,,,74,70
264160,note_on,160,0,1,,,,,,,,,0,,,74,0
264160,note_on,0,0,1,,,,,,,,,0,,,75,66
264320,note_on,0,0,1,,,,,,,,,0,,,77,66
264320,note_on,160,0,1,,,,,,,,,0,,,75,0
264480,note_on,160,0,1,,,,,,,,,0,,,77,0
264480,note_on,0,0,1,,,,,,,,,0,,,79,70
264640,note_on,160,0,1,,,,,,,,,0,,,79,0
264640,note_on,0,0,1,,,,,,,,,0,,,80,64
264800,note_on,160,0,1,,,,,,,,,0,,,80,0
264800,note_on,0,0,1,,,,,,,,,0,,,82,64
264960,note_on,0,0,2,,,,,,,,,0,,,62,0
264960,note_on,0,0,2,,,,,,,,,0,,,56,0
264960,note_on,960,0,2,,,,,,,,,0,,,58,0
264960,set_tempo,960,1,0,,,,,,306122,,,,,,,
264960,note_on,0,0,1,,,,,,,,,0,,,75,70
264960,note_on,160,0,1,,,,,,,,,0,,,82,0
264960,note_on,0,0,2,,,,,,,,,0,,,51,67
265120,note_on,0,0,1,,,,,,,,,0,,,77,65
265120,note_on,160,0,1,,,,,,,,,0,,,75,0
265280,note_on,0,0,1,,,,,,,,,0,,,79,65
265280,note_on,160,0,1,,,,,,,,,0,,,77,0
265440,note_on,160,0,1,,,,,,,,,0,,,79,0
265440,note_on,480,0,2,,,,,,,,,0,,,51,0
265440,note_on,0,0,2,,,,,,,,,0,,,63,52
265440,note_on,0,0,2,,,,,,,,,0,,,58,46
265440,note_on,0,0,2,,,,,,,,,0,,,55,46
265440,set_tempo,480,1,0,,,,,,300000,,,,,,,
265440,note_on,0,0,1,,,,,,,,,0,,,80,70
265600,note_on,0,0,1,,,,,,,,,0,,,82,65
265600,note_on,160,0,1,,,,,,,,,0,,,80,0
265760,note_on,160,0,1,,,,,,,,,0,,,82,0
265760,note_on,0,0,1,,,,,,,,,0,,,84,65
265920,note_on,0,0,1,,,,,,,,,0,,,86,70
265920,note_on,160,0,1,,,,,,,,,0,,,84,0
266080,note_on,0,0,1,,,,,,,,,0,,,87,65
266080,note_on,160,0,1,,,,,,,,,0,,,86,0
266240,note_on,0,0,1,,,,,,,,,0,,,89,65
266240,note_on,160,0,1,,,,,,,,,0,,,87,0
266400,note_on,0,0,2,,,,,,,,,0,,,63,0
266400,note_on,0,0,1,,,,,,,,,0,,,91,70
266400,note_on,160,0,1,,,,,,,,,0,,,89,0
266400,note_on,0,0,2,,,,,,,,,0,,,51,65
266400,note_on,0,0,2,,,,,,,,,0,,,58,0
266400,set_tempo,960,1,0,,,,,,334262,,,,,,,
266400,note_on,960,0,2,,,,,,,,,0,,,55,0
266560,note_on,0,0,1,,,,,,,,,0,,,94,70
266560,note_on,160,0,1,,,,,,,,,0,,,91,0
266720,note_on,0,0,1,,,,,,,,,0,,,92,65
266720,note_on,160,0,1,,,,,,,,,0,,,94,0
266880,note_on,480,0,2,,,,,,,,,0,,,58,52
266880,note_on,160,0,1,,,,,,,,,0,,,92,0
266880,note_on,0,0,1,,,,,,,,,0,,,91,72
266880,set_tempo,480,1,0,,,,,,300752,,,,,,,
267040,note_on,160,0,1,,,,,,,,,0,,,91,0
267040,note_on,0,0,1,,,,,,,,,0,,,89,69
267200,note_on,160,0,1,,,,,,,,,0,,,89,0
267200,note_on,0,0,1,,,,,,,,,0,,,87,69
267360,note_on,160,0,1,,,,,,,,,0,,,87,0
267360,note_on,0,0,1,,,,,,,,,0,,,86,70
267520,note_on,160,0,1,,,,,,,,,0,,,86,0
267520,note_on,0,0,1,,,,,,,,,0,,,84,64
267680,note_on,160,0,1,,,,,,,,,0,,,84,0
267680,note_on,0,0,1,,,,,,,,,0,,,82,65
267840,note_on,0,0,2,,,,,,,,,0,,,51,0
267840,note_on,160,0,1,,,,,,,,,0,,,82,0
267840,note_on,0,0,1,,,,,,,,,0,,,80,67
267840,note_on,960,0,2,,,,,,,,,0,,,58,0
267840,set_tempo,960,1,0,,,,,,306122,,,,,,,
267840,note_on,0,0,2,,,,,,,,,0,,,53,63
268000,note_on,160,0,1,,,,,,,,,0,,,80,0
268000,note_on,0,0,1,,,,,,,,,0,,,79,65
268160,note_on,0,0,1,,,,,,,,,0,,,77,65
268160,note_on,160,0,1,,,,,,,,,0,,,79,0
268300,set_tempo,460,1,0,,,,,,300000,,,,,,,
268320,note_on,0,0,1,,,,,,,,,0,,,75,70
268320,note_on,160,0,1,,,,,,,,,0,,,77,0
268320,note_on,480,0,2,,,,,,,,,0,,,58,50
268480,note_on,160,0,1,,,,,,,,,0,,,75,0
268480,note_on,0,0,1,,,,,,,,,0,,,74,65
268640,note_on,0,0,1,,,,,,,,,0,,,72,65
268640,note_on,160,0,1,,,,,,,,,0,,,74,0
268800,note_on,160,0,1,,,,,,,,,0,,,72,0
268800,note_on,0,0,1,,,,,,,,,0,,,70,70
268960,note_on,160,0,1,,,,,,,,,0,,,70,0
268960,note_on,0,0,1,,,,,,,,,0,,,72,65
269120,note_on,0,0,1,,,,,,,,,0,,,74,65
269120,note_on,160,0,1,,,,,,,,,0,,,72,0
269280,note_on,960,0,2,,,,,,,,,0,,,58,0
269280,set_tempo,980,1,0,,,,,,305344,,,,,,,
269280,note_on,0,0,2,,,,,,,,,0,,,53,0
269280,note_on,0,0,2,,,,,,,,,0,,,55,63
269280,note_on,0,0,1,,,,,,,,,0,,,75,70
269280,note_on,160,0,1,,,,,,,,,0,,,74,0
269440,note_on,0,0,1,,,,,,,,,0,,,74,66
269440,note_on,160,0,1,,,,,,,,,0,,,75,0
269600,note_on,160,0,1,,,,,,,,,0,,,74,0
269600,note_on,0,0,1,,,,,,,,,0,,,75,66
269760,set_tempo,480,1,0,,,,,,300000,,,,,,,
269760,note_on,480,0,2,,,,,,,,,0,,,58,51
269760,note_on,0,0,1,,,,,,,,,0,,,76,72
269760,note_on,160,0,1,,,,,,,,,0,,,75,0
269920,note_on,0,0,1,,,,,,,,,0,,,75,68
269920,note_on,160,0,1,,,,,,,,,0,,,76,0
270080,note_on,0,0,1,,,,,,,,,0,,,76,69
270080,note_on,160,0,1,,,,,,,,,0,,,75,0
270240,note_on,160,0,1,,,,,,,,,0,,,76,0
270240,note_on,0,0,1,,,,,,,,,0,,,77,74
270400,note_on,160,0,1,,,,,,,,,0,,,77,0
270400,note_on,0,0,1,,,,,,,,,0,,,76,70
270560,note_on,0,0,1,,,,,,,,,0,,,77,70
270560,note_on,160,0,1,,,,,,,,,0,,,76,0
270720,note_on,0,0,2,,,,,,,,,0,,,50,78
270720,set_tempo,960,1,0,,,,,,307692,,,,,,,
270720,note_on,0,0,2,,,,,,,,,0,,,55,0
270720,note_on,960,0,2,,,,,,,,,0,,,58,0
270720,note_on,160,0,1,,,,,,,,,0,,,77,0
270720,note_on,0,0,1,,,,,,,,,0,,,78,78
270880,note_on,0,0,1,,,,,,,,,0,,,77,73
270880,note_on,160,0,1,,,,,,,,,0,,,78,0
271040,note_on,0,0,1,,,,,,,,,0,,,78,73
271040,note_on,160,0,1,,,,,,,,,0,,,77,0
271200,set_tempo,480,1,0,,,,,,300000,,,,,,,
271200,note_on,480,0,2,,,,,,,,,0,,,58,61
271200,note_on,0,0,1,,,,,,,,,0,,,79,82
271200,note_on,160,0,1,,,,,,,,,0,,,78,0
271360,note_on,160,0,1,,,,,,,,,0,,,79,0
271360,note_on,0,0,1,,,,,,,,,0,,,78,76
271520,note_on,0,0,1,,,,,,,,,0,,,79,71
271520,note_on,160,0,1,,,,,,,,,0,,,78,0
271680,note_on,0,0,1,,,,,,,,,0,,,80,72
271680,note_on,160,0,1,,,,,,,,,0,,,79,0
271840,note_on,0,0,1,,,,,,,,,0,,,79,68
271840,note_on,160,0,1,,,,,,,,,0,,,80,0
272000,note_on,160,0,1,,,,,,,,,0,,,79,0
272000,note_on,0,0,1,,,,,,,,,0,,,80,68
272160,set_tempo,960,1,0,,,,,,305344,,,,,,,
272160,note_on,960,0,2,,,,,,,,,0,,,58,0
272160,note_on,0,0,2,,,,,,,,,0,,,50,0
272160,note_on,160,0,1,,,,,,,,,0,,,80,0
272160,note_on,0,0,1,,,,,,,,,0,,,79,70
272160,note_on,0,0,2,,,,,,,,,0,,,51,61
272320,note_on,0,0,1,,,,,,,,,0,,,82,66
272320,note_on,160,0,1,,,,,,,,,0,,,79,0
272480,note_on,0,0,1,,,,,,,,,0,,,80,67
272480,note_on,160,0,1,,,,,,,,,0,,,82,0
272640,set_tempo,480,1,0,,,,,,300000,,,,,,,
272640,note_on,160,0,1,,,,,,,,,0,,,80,0
272640,note_on,0,0,1,,,,,,,,,0,,,79,70
272640,note_on,480,0,2,,,,,,,,,0,,,58,52
272800,note_on,0,0,1,,,,,,,,,0,,,80,67
272800,note_on,160,0,1,,,,,,,,,0,,,79,0
272960,note_on,160,0,1,,,,,,,,,0,,,80,0
272960,note_on,0,0,1,,,,,,,,,0,,,82,67
273120,note_on,0,0,1,,,,,,,,,0,,,84,70
273120,note_on,160,0,1,,,,,,,,,0,,,82,0
273280,note_on,0,0,1,,,,,,,,,0,,,86,66
273280,note_on,160,0,1,,,,,,,,,0,,,84,0
273440,note_on,0,0,1,,,,,,,,,0,,,87,66
273440,note_on,160,0,1,,,,,,,,,0,,,86,0
273600,note_on,0,0,1,,,,,,,,,0,,,89,72
273600,note_on,160,0,1,,,,,,,,,0,,,87,0
273600,note_on,960,0,2,,,,,,,,,0,,,58,0
273600,note_on,0,0,2,,,,,,,,,0,,,51,0
273600,note_on,0,0,2,,,,,,,,,0,,,44,53
273608,set_tempo,968,1,0,,,,,,334262,,,,,,,
273760,note_on,0,0,1,,,,,,,,,0,,,96,66
273760,note_on,160,0,1,,,,,,,,,0,,,89,0
273920,note_on,0,0,1,,,,,,,,,0,,,94,66
273920,note_on,160,0,1,,,,,,,,,0,,,96,0
274080,note_on,0,0,1,,,,,,,,,0,,,92,69
274080,note_on,160,0,1,,,,,,,,,0,,,94,0
274080,note_on,0,0,2,,,,,,,,,0,,,60,46
274080,note_on,0,0,2,,,,,,,,,0,,,56,41
274080,note_on,480,0,2,,,,,,,,,0,,,44,0
274088,set_tempo,480,1,0,,,,,,300000,,,,,,,
274240,note_on,160,0,1,,,,,,,,,0,,,92,0
274240,note_on,0,0,1,,,,,,,,,0,,,91,68
274400,note_on,160,0,1,,,,,,,,,0,,,91,0
274400,note_on,0,0,1,,,,,,,,,0,,,89,67
274560,note_on,160,0,1,,,,,,,,,0,,,89,0
274560,note_on,0,0,1,,,,,,,,,0,,,87,66
274720,note_on,160,0,1,,,,,,,,,0,,,87,0
274720,note_on,0,0,1,,,,,,,,,0,,,86,65
274880,note_on,160,0,1,,,,,,,,,0,,,86,0
274880,note_on,0,0,1,,,,,,,,,0,,,84,64
275040,note_on,160,0,1,,,,,,,,,0,,,84,0
275040,note_on,0,0,2,,,,,,,,,0,,,46,53
275040,note_on,960,0,2,,,,,,,,,0,,,56,0
275040,set_tempo,952,1,0,,,,,,306122,,,,,,,
275040,note_on,0,0,2,,,,,,,,,0,,,60,0
275040,note_on,0,0,1,,,,,,,,,0,,,82,63
275200,note_on,0,0,1,,,,,,,,,0,,,89,62
275200,note_on,160,0,1,,,,,,,,,0,,,82,0
275360,note_on,0,0,1,,,,,,,,,0,,,87,61
275360,note_on,160,0,1,,,,,,,,,0,,,89,0
275520,note_on,160,0,1,,,,,,,,,0,,,87,0
275520,note_on,0,0,1,,,,,,,,,0,,,86,60
275520,note_on,480,0,2,,,,,,,,,0,,,46,0
275520,note_on,0,0,2,,,,,,,,,0,,,56,40
275520,note_on,0,0,2,,,,,,,,,0,,,62,45
275520,note_on,0,0,2,,,,,,,,,0,,,58,40
275520,set_tempo,480,1,0,,,,,,300000,,,,,,,
275680,note_on,160,0,1,,,,,,,,,0,,,86,0
275680,note_on,0,0,1,,,,,,,,,0,,,84,59
275840,note_on,160,0,1,,,,,,,,,0,,,84,0
275840,note_on,0,0,1,,,,,,,,,0,,,82,58
276000,note_on,0,0,1,,,,,,,,,0,,,80,57
276000,note_on,160,0,1,,,,,,,,,0,,,82,0
276160,note_on,160,0,1,,,,,,,,,0,,,80,0
276160,note_on,0,0,1,,,,,,,,,0,,,79,56
276320,note_on,160,0,1,,,,,,,,,0,,,79,0
276320,note_on,0,0,1,,,,,,,,,0,,,77,55
276480,set_tempo,960,1,0,,,,,,306122,,,,,,,
276480,note_on,0,0,2,,,,,,,,,0,,,56,0
276480,note_on,0,0,2,,,,,,,,,0,,,51,45
276480,note_on,0,0,2,,,,,,,,,0,,,62,0
276480,note_on,0,0,1,,,,,,,,,0,,,75,54
276480,note_on,160,0,1,,,,,,,,,0,,,77,0
276480,note_on,960,0,2,,,,,,,,,0,,,58,0
276640,note_on,160,0,1,,,,,,,,,0,,,75,0
276640,note_on,0,0,1,,,,,,,,,0,,,79,53
276800,note_on,160,0,1,,,,,,,,,0,,,79,0
276800,note_on,0,0,1,,,,,,,,,0,,,77,52
276960,note_on,160,0,1,,,,,,,,,0,,,77,0
276960,note_on,0,0,1,,,,,,,,,0,,,75,51
276960,note_on,480,0,2,,,,,,,,,0,,,51,0
276960,note_on,0,0,2,,,,,,,,,0,,,55,35
276960,set_tempo,480,1,0,,,,,,300000,,,,,,,
276960,note_on,0,0,2,,,,,,,,,0,,,63,39
276960,note_on,0,0,2,,,,,,,,,0,,,58,35
277120,note_on,160,0,1,,,,,,,,,0,,,75,0
277120,note_on,0,0,1,,,,,,,,,0,,,74,50
277280,note_on,160,0,1,,,,,,,,,0,,,74,0
277280,note_on,0,0,1,,,,,,,,,0,,,72,49
277440,note_on,160,0,1,,,,,,,,,0,,,72,0
277440,note_on,0,0,1,,,,,,,,,0,,,70,48
277600,note_on,160,0,1,,,,,,,,,0,,,70,0
277600,note_on,0,0,1,,,,,,,,,0,,,68,47
277760,note_on,0,0,1,,,,,,,,,0,,,65,46
277760,note_on,160,0,1,,,,,,,,,0,,,68,0
277920,note_on,0,0,1,,,,,,,,,0,,,66,45
277920,note_on,160,0,1,,,,,,,,,0,,,65,0
277920,note_on,960,0,2,,,,,,,,,0,,,55,0
277920,set_tempo,960,1,0,,,,,,306905,,,,,,,
277920,note_on,0,0,2,,,,,,,,,0,,,39,49
277920,note_on,0,0,2,,,,,,,,,0,,,63,0
277920,note_on,0,0,2,,,,,,,,,0,,,58,0
278080,note_on,0,0,1,,,,,,,,,0,,,70,46
278080,note_on,160,0,1,,,,,,,,,0,,,66,0
278240,note_on,0,0,1,,,,,,,,,0,,,68,46
278240,note_on,160,0,1,,,,,,,,,0,,,70,0
278400,note_on,160,0,1,,,,,,,,,0,,,68,0
278400,set_tempo,480,1,0,,,,,,300000,,,,,,,
278400,note_on,480,0,2,,,,,,,,,0,,,51,36
278400,note_on,0,0,1,,,,,,,,,0,,,66,46
278560,note_on,160,0,1,,,,,,,,,0,,,66,0
278560,note_on,0,0,1,,,,,,,,,0,,,65,46
278720,note_on,0,0,1,,,,,,,,,0,,,63,46
278720,note_on,160,0,1,,,,,,,,,0,,,65,0
278880,note_on,0,0,1,,,,,,,,,0,,,61,46
278880,note_on,160,0,1,,,,,,,,,0,,,63,0
279040,note_on,160,0,1,,,,,,,,,0,,,61,0
279040,note_on,0,0,1,,,,,,,,,0,,,59,46
279200,note_on,0,0,1,,,,,,,,,0,,,58,46
279200,note_on,160,0,1,,,,,,,,,0,,,59,0
279360,note_on,960,0,2,,,,,,,,,0,,,51,0
279360,note_on,0,0,2,,,,,,,,,0,,,39,0
279360,note_on,160,0,1,,,,,,,,,0,,,58,0
279360,note_on,0,0,2,,,,,,,,,0,,,44,47
279360,control_change,0,0,2,,,,,,,,,0,64,127,,
279360,set_tempo,960,1,0,,,,,,338983,,,,,,,
279360,note_on,0,0,1,,,,,,,,,0,,,59,46
279520,note_on,0,0,1,,,,,,,,,0,,,63,46
279520,note_on,160,0,1,,,,,,,,,0,,,59,0
279680,note_on,160,0,1,,,,,,,,,0,,,63,0
279680,note_on,0,0,1,,,,,,,,,0,,,68,46
279840,note_on,160,0,1,,,,,,,,,0,,,68,0
279840,note_on,0,0,1,,,,,,,,,0,,,71,49
279840,set_tempo,480,1,0,,,,,,320000,,,,,,,
279840,note_on,480,0,2,,,,,,,,,0,,,56,36
279949,control_change,109,0,2,,,,,,,,,0,64,0,,
279978,control_change,29,0,2,,,,,,,,,0,64,127,,
280000,note_on,160,0,1,,,,,,,,,0,,,63,46
280160,note_on,160,0,1,,,,,,,,,0,,,63,0
280160,note_on,0,0,1,,,,,,,,,0,,,68,46
280320,note_on,160,0,1,,,,,,,,,0,,,68,0
280320,note_on,0,0,1,,,,,,,,,0,,,66,46
280480,note_on,160,0,1,,,,,,,,,0,,,66,0
280480,note_on,0,0,1,,,,,,,,,0,,,63,46
280640,note_on,160,0,1,,,,,,,,,0,,,63,0
280640,note_on,0,0,1,,,,,,,,,0,,,66,46
280754,control_change,776,0,2,,,,,,,,,0,64,0,,
280800,note_on,0,0,1,,,,,,,,,0,,,71,0
280800,set_tempo,960,1,0,,,,,,300000,,,,,,,
280800,note_on,46,0,2,,,,,,,,,0,,,56,0
280800,note_on,0,0,2,,,,,,,,,0,,,37,49
280800,note_on,0,0,2,,,,,,,,,0,,,44,0
280800,note_on,0,0,1,,,,,,,,,0,,,65,46
280800,note_on,160,0,1,,,,,,,,,0,,,66,0
280960,note_on,0,0,1,,,,,,,,,0,,,71,46
280960,note_on,160,0,1,,,,,,,,,0,,,65,0
281120,note_on,160,0,1,,,,,,,,,0,,,71,0
281120,note_on,0,0,1,,,,,,,,,0,,,70,46
281280,note_on,160,0,1,,,,,,,,,0,,,70,0
281280,note_on,0,0,1,,,,,,,,,0,,,68,46
281280,note_on,480,0,2,,,,,,,,,0,,,49,36
281440,note_on,160,0,1,,,,,,,,,0,,,68,0
281440,note_on,0,0,1,,,,,,,,,0,,,66,46
281600,note_on,0,0,1,,,,,,,,,0,,,65,46
281600,note_on,160,0,1,,,,,,,,,0,,,66,0
281760,note_on,160,0,1,,,,,,,,,0,,,65,0
281760,note_on,0,0,1,,,,,,,,,0,,,63,46
281920,note_on,160,0,1,,,,,,,,,0,,,63,0
281920,note_on,0,0,1,,,,,,,,,0,,,61,46
282080,note_on,160,0,1,,,,,,,,,0,,,61,0
282080,note_on,0,0,1,,,,,,,,,0,,,59,46
282240,set_tempo,1440,1,0,,,,,,333333,,,,,,,
282240,note_on,0,0,2,,,,,,,,,0,,,42,48
282240,note_on,0,0,2,,,,,,,,,0,,,37,0
282240,note_on,960,0,2,,,,,,,,,0,,,49,0
282240,note_on,160,0,1,,,,,,,,,0,,,59,0
282240,note_on,0,0,1,,,,,,,,,0,,,58,46
282254,control_change,14,0,2,,,,,,,,,0,64,127,,
282400,note_on,0,0,1,,,,,,,,,0,,,61,46
282400,note_on,160,0,1,,,,,,,,,0,,,58,0
282560,note_on,160,0,1,,,,,,,,,0,,,61,0
282560,note_on,0,0,1,,,,,,,,,0,,,66,46
282708,set_tempo,468,1,0,,,,,,316623,,,,,,,
282720,note_on,466,0,2,,,,,,,,,0,,,54,36
282720,note_on,160,0,1,,,,,,,,,0,,,66,0
282720,note_on,0,0,1,,,,,,,,,0,,,70,49
282798,control_change,78,0,2,,,,,,,,,0,64,0,,
282833,control_change,35,0,2,,,,,,,,,0,64,127,,
282880,note_on,160,0,1,,,,,,,,,0,,,61,46
283040,note_on,0,0,1,,,,,,,,,0,,,66,46
283040,note_on,160,0,1,,,,,,,,,0,,,61,0
283200,note_on,0,0,1,,,,,,,,,0,,,65,46
283200,note_on,160,0,1,,,,,,,,,0,,,66,0
283360,note_on,160,0,1,,,,,,,,,0,,,65,0
283360,note_on,0,0,1,,,,,,,,,0,,,61,46
283520,note_on,160,0,1,,,,,,,,,0,,,61,0
283520,note_on,0,0,1,,,,,,,,,0,,,65,46
283613,control_change,780,0,2,,,,,,,,,0,64,0,,
283668,set_tempo,960,1,0,,,,,,300000,,,,,,,
283680,note_on,0,0,1,,,,,,,,,0,,,63,45
283680,note_on,0,0,1,,,,,,,,,0,,,70,0
283680,note_on,67,0,2,,,,,,,,,0,,,54,0
283680,note_on,160,0,1,,,,,,,,,0,,,65,0
283680,note_on,0,0,2,,,,,,,,,0,,,35,49
283680,set_tempo,12,1,0,,,,,,300000,,,,,,,
283680,note_on,0,0,2,,,,,,,,,0,,,42,0
283840,note_on,160,0,1,,,,,,,,,0,,,63,0
283840,note_on,0,0,1,,,,,,,,,0,,,70,46
284000,note_on,160,0,1,,,,,,,,,0,,,70,0
284000,note_on,0,0,1,,,,,,,,,0,,,68,46
284160,note_on,480,0,2,,,,,,,,,0,,,47,36
284160,note_on,160,0,1,,,,,,,,,0,,,68,0
284160,note_on,0,0,1,,,,,,,,,0,,,66,46
284320,note_on,160,0,1,,,,,,,,,0,,,66,0
284320,note_on,0,0,1,,,,,,,,,0,,,65,46
284480,note_on,160,0,1,,,,,,,,,0,,,65,0
284480,note_on,0,0,1,,,,,,,,,0,,,63,46
284640,note_on,160,0,1,,,,,,,,,0,,,63,0
284640,note_on,0,0,1,,,,,,,,,0,,,61,46
284800,note_on,160,0,1,,,,,,,,,0,,,61,0
284800,note_on,0,0,1,,,,,,,,,0,,,59,46
284960,note_on,0,0,1,,,,,,,,,0,,,58,46
284960,note_on,160,0,1,,,,,,,,,0,,,59,0
285120,set_tempo,1440,1,0,,,,,,343840,,,,,,,
285120,note_on,960,0,2,,,,,,,,,0,,,47,0
285120,note_on,0,0,1,,,,,,,,,0,,,56,46
285120,note_on,160,0,1,,,,,,,,,0,,,58,0
285120,note_on,0,0,2,,,,,,,,,0,,,35,0
285120,note_on,0,0,2,,,,,,,,,0,,,41,47
285131,control_change,11,0,2,,,,,,,,,0,64,127,,
285280,note_on,0,0,1,,,,,,,,,0,,,59,46
285280,note_on,160,0,1,,,,,,,,,0,,,56,0
285440,note_on,0,0,1,,,,,,,,,0,,,65,46
285440,note_on,160,0,1,,,,,,,,,0,,,59,0
285600,set_tempo,480,1,0,,,,,,324324,,,,,,,
285600,note_on,160,0,1,,,,,,,,,0,,,65,0
285600,note_on,0,0,1,,,,,,,,,0,,,68,49
285600,note_on,469,0,2,,,,,,,,,0,,,53,36
285695,control_change,95,0,2,,,,,,,,,0,64,0,,
285720,control_change,25,0,2,,,,,,,,,0,64,127,,
285760,note_on,160,0,1,,,,,,,,,0,,,59,43
285920,note_on,160,0,1,,,,,,,,,0,,,59,0
285920,note_on,0,0,1,,,,,,,,,0,,,65,43
286080,note_on,160,0,1,,,,,,,,,0,,,65,0
286080,note_on,0,0,1,,,,,,,,,0,,,63,46
286240,note_on,0,0,1,,,,,,,,,0,,,59,43
286240,note_on,160,0,1,,,,,,,,,0,,,63,0
286400,note_on,160,0,1,,,,,,,,,0,,,59,0
286400,note_on,0,0,1,,,,,,,,,0,,,63,43
286511,control_change,791,0,2,,,,,,,,,0,64,0,,
286560,note_on,0,0,1,,,,,,,,,0,,,62,46
286560,note_on,0,0,1,,,,,,,,,0,,,68,0
286560,note_on,49,0,2,,,,,,,,,0,,,53,0
286560,note_on,0,0,2,,,,,,,,,0,,,34,49
286560,note_on,0,0,2,,,,,,,,,0,,,41,0
286560,set_tempo,960,1,0,,,,,,300000,,,,,,,
286560,note_on,160,0,1,,,,,,,,,0,,,63,0
286720,note_on,0,0,1,,,,,,,,,0,,,68,46
286720,note_on,160,0,1,,,,,,,,,0,,,62,0
286880,note_on,160,0,1,,,,,,,,,0,,,68,0
286880,note_on,0,0,1,,,,,,,,,0,,,66,46
287040,note_on,160,0,1,,,,,,,,,0,,,66,0
287040,note_on,0,0,1,,,,,,,,,0,,,65,46
287040,note_on,480,0,2,,,,,,,,,0,,,46,36
287200,note_on,160,0,1,,,,,,,,,0,,,65,0
287200,note_on,0,0,1,,,,,,,,,0,,,63,42
287360,note_on,0,0,1,,,,,,,,,0,,,62,42
287360,note_on,160,0,1,,,,,,,,,0,,,63,0
287520,note_on,160,0,1,,,,,,,,,0,,,62,0
287520,note_on,0,0,1,,,,,,,,,0,,,59,46
287680,note_on,0,0,1,,,,,,,,,0,,,58,42
287680,note_on,160,0,1,,,,,,,,,0,,,59,0
287840,note_on,0,0,1,,,,,,,,,0,,,56,42
287840,note_on,160,0,1,,,,,,,,,0,,,58,0
288000,note_on,0,0,1,,,,,,,,,0,,,54,46
288000,note_on,160,0,1,,,,,,,,,0,,,56,0
288000,note_on,960,0,2,,,,,,,,,0,,,46,0
288000,set_tempo,1440,1,0,,,,,,333333,,,,,,,
288000,note_on,0,0,2,,,,,,,,,0,,,39,48
288000,note_on,0,0,2,,,,,,,,,0,,,34,0
288025,control_change,25,0,2,,,,,,,,,0,64,127,,
288160,note_on,160,0,1,,,,,,,,,0,,,54,0
288160,note_on,0,0,1,,,,,,,,,0,,,58,46
288320,note_on,0,0,1,,,,,,,,,0,,,63,46
288320,note_on,160,0,1,,,,,,,,,0,,,58,0
288468,set_tempo,468,1,0,,,,,,316623,,,,,,,
288480,note_on,160,0,1,,,,,,,,,0,,,63,0
288480,note_on,0,0,1,,,,,,,,,0,,,66,49
288480,note_on,455,0,2,,,,,,,,,0,,,51,36
288526,control_change,46,0,2,,,,,,,,,0,64,0,,
288551,control_change,25,0,2,,,,,,,,,0,64,127,,
288640,note_on,160,0,1,,,,,,,,,0,,,58,46
288800,note_on,160,0,1,,,,,,,,,0,,,58,0
288800,note_on,0,0,1,,,,,,,,,0,,,63,46
288960,note_on,160,0,1,,,,,,,,,0,,,63,0
288960,note_on,0,0,1,,,,,,,,,0,,,61,49
289120,note_on,160,0,1,,,,,,,,,0,,,61,0
289120,note_on,0,0,1,,,,,,,,,0,,,58,46
289280,note_on,160,0,1,,,,,,,,,0,,,58,0
289280,note_on,0,0,1,,,,,,,,,0,,,61,46
289391,control_change,840,0,2,,,,,,,,,0,64,0,,
289428,set_tempo,960,1,0,,,,,,300000,,,,,,,
289440,note_on,160,0,1,,,,,,,,,0,,,61,0
289440,note_on,0,0,1,,,,,,,,,0,,,66,0
289440,set_tempo,12,1,0,,,,,,333333,,,,,,,
289440,note_on,0,0,1,,,,,,,,,0,,,59,46
289440,note_on,0,0,2,,,,,,,,,0,,,44,48
289440,note_on,0,0,2,,,,,,,,,0,,,39,0
289440,note_on,49,0,2,,,,,,,,,0,,,51,0
289458,control_change,18,0,2,,,,,,,,,0,64,127,,
289600,note_on,160,0,1,,,,,,,,,0,,,59,0
289600,note_on,0,0,1,,,,,,,,,0,,,63,46
289760,note_on,160,0,1,,,,,,,,,0,,,63,0
289760,note_on,0,0,1,,,,,,,,,0,,,68,46
289908,set_tempo,468,1,0,,,,,,316623,,,,,,,
289920,note_on,160,0,1,,,,,,,,,0,,,68,0
289920,note_on,0,0,1,,,,,,,,,0,,,71,49
289920,note_on,462,0,2,,,,,,,,,0,,,56,36
290012,control_change,92,0,2,,,,,,,,,0,64,0,,
290044,control_change,32,0,2,,,,,,,,,0,64,127,,
290080,note_on,160,0,1,,,,,,,,,0,,,63,46
290240,note_on,0,0,1,,,,,,,,,0,,,68,46
290240,note_on,160,0,1,,,,,,,,,0,,,63,0
290400,note_on,160,0,1,,,,,,,,,0,,,68,0
290400,note_on,0,0,1,,,,,,,,,0,,,66,49
290560,note_on,160,0,1,,,,,,,,,0,,,66,0
290560,note_on,0,0,1,,,,,,,,,0,,,63,46
290720,note_on,160,0,1,,,,,,,,,0,,,63,0
290720,note_on,0,0,1,,,,,,,,,0,,,66,46
290824,control_change,780,0,2,,,,,,,,,0,64,0,,
290880,control_change,0,0,2,,,,,,,,,0,64,127,,
290880,note_on,56,0,2,,,,,,,,,0,,,56,0
290880,note_on,0,0,1,,,,,,,,,0,,,71,0
290880,note_on,0,0,1,,,,,,,,,0,,,71,54
290880,note_on,0,0,2,,,,,,,,,0,,,46,46
290880,note_on,160,0,1,,,,,,,,,0,,,66,0
290880,note_on,0,0,2,,,,,,,,,0,,,44,0
290888,set_tempo,980,1,0,,,,,,352941,,,,,,,
291040,note_on,160,0,1,,,,,,,,,0,,,65,46
291200,note_on,0,0,1,,,,,,,,,0,,,62,46
291200,note_on,160,0,1,,,,,,,,,0,,,65,0
291296,control_change,416,0,2,,,,,,,,,0,64,0,,
291360,note_on,160,0,1,,,,,,,,,0,,,62,0
291360,note_on,0,0,1,,,,,,,,,0,,,70,53
291360,note_on,0,0,1,,,,,,,,,0,,,71,0
291360,note_on,64,0,2,,,,,,,,,0,,,58,46
291381,control_change,21,0,2,,,,,,,,,0,64,127,,
291520,note_on,160,0,1,,,,,,,,,0,,,65,46
291680,note_on,160,0,1,,,,,,,,,0,,,65,0
291680,note_on,0,0,1,,,,,,,,,0,,,62,46
291791,control_change,410,0,2,,,,,,,,,0,64,0,,
291840,note_on,160,0,1,,,,,,,,,0,,,62,0
291840,note_on,0,0,1,,,,,,,,,0,,,70,0
291840,note_on,0,0,1,,,,,,,,,0,,,74,53
291861,control_change,70,0,2,,,,,,,,,0,64,127,,
292000,note_on,160,0,1,,,,,,,,,0,,,68,46
292160,note_on,160,0,1,,,,,,,,,0,,,68,0
292160,note_on,0,0,1,,,,,,,,,0,,,65,46
292228,control_change,367,0,2,,,,,,,,,0,64,0,,
292320,note_on,0,0,1,,,,,,,,,0,,,75,53
292320,note_on,0,0,1,,,,,,,,,0,,,74,0
292320,note_on,0,0,2,,,,,,,,,0,,,51,45
292320,note_on,92,0,2,,,,,,,,,0,,,46,0
292320,note_on,160,0,1,,,,,,,,,0,,,65,0
292320,set_tempo,1432,1,0,,,,,,309278,,,,,,,
292480,note_on,160,0,1,,,,,,,,,0,,,75,0
292480,note_on,0,0,1,,,,,,,,,0,,,78,44
292640,note_on,160,0,1,,,,,,,,,0,,,78,0
292640,note_on,0,0,1,,,,,,,,,0,,,77,44
292800,set_tempo,480,1,0,,,,,,300000,,,,,,,
292800,note_on,0,0,1,,,,,,,,,0,,,75,44
292800,note_on,160,0,1,,,,,,,,,0,,,77,0
292960,note_on,0,0,1,,,,,,,,,0,,,73,44
292960,note_on,160,0,1,,,,,,,,,0,,,75,0
293120,note_on,0,0,1,,,,,,,,,0,,,71,44
293120,note_on,160,0,1,,,,,,,,,0,,,73,0
293280,note_on,0,0,1,,,,,,,,,0,,,70,44
293280,note_on,160,0,1,,,,,,,,,0,,,71,0
293440,note_on,160,0,1,,,,,,,,,0,,,70,0
293440,note_on,0,0,1,,,,,,,,,0,,,68,44
293600,note_on,0,0,1,,,,,,,,,0,,,65,44
293600,note_on,160,0,1,,,,,,,,,0,,,68,0
293760,note_on,0,0,1,,,,,,,,,0,,,66,44
293760,note_on,0,0,2,,,,,,,,,0,,,42,46
293760,note_on,0,0,2,,,,,,,,,0,,,58,0
293760,note_on,1440,0,2,,,,,,,,,0,,,51,0
293760,note_on,160,0,1,,,,,,,,,0,,,65,0
293920,note_on,0,0,1,,,,,,,,,0,,,70,44
293920,note_on,160,0,1,,,,,,,,,0,,,66,0
294080,note_on,160,0,1,,,,,,,,,0,,,70,0
294080,note_on,0,0,1,,,,,,,,,0,,,68,44
294240,note_on,0,0,1,,,,,,,,,0,,,66,44
294240,note_on,160,0,1,,,,,,,,,0,,,68,0
294240,note_on,480,0,2,,,,,,,,,0,,,49,37
294400,note_on,160,0,1,,,,,,,,,0,,,66,0
294400,note_on,0,0,1,,,,,,,,,0,,,65,44
294560,note_on,160,0,1,,,,,,,,,0,,,65,0
294560,note_on,0,0,1,,,,,,,,,0,,,63,44
294720,note_on,160,0,1,,,,,,,,,0,,,63,0
294720,note_on,0,0,1,,,,,,,,,0,,,61,44
294880,note_on,0,0,1,,,,,,,,,0,,,59,44
294880,note_on,160,0,1,,,,,,,,,0,,,61,0
295040,note_on,160,0,1,,,,,,,,,0,,,59,0
295040,note_on,0,0,1,,,,,,,,,0,,,58,45
295200,set_tempo,2400,1,0,,,,,,333333,,,,,,,
295200,note_on,960,0,2,,,,,,,,,0,,,49,0
295200,note_on,0,0,2,,,,,,,,,0,,,42,0
295200,note_on,0,0,2,,,,,,,,,0,,,44,44
295200,note_on,0,0,1,,,,,,,,,0,,,59,45
295200,note_on,160,0,1,,,,,,,,,0,,,58,0
295214,control_change,14,0,2,,,,,,,,,0,64,127,,
295360,note_on,160,0,1,,,,,,,,,0,,,59,0
295360,note_on,0,0,1,,,,,,,,,0,,,62,45
295520,note_on,160,0,1,,,,,,,,,0,,,62,0
295520,note_on,0,0,1,,,,,,,,,0,,,65,45
295680,note_on,160,0,1,,,,,,,,,0,,,65,0
295680,note_on,466,0,2,,,,,,,,,0,,,50,59
295680,note_on,0,0,1,,,,,,,,,0,,,71,49
295688,set_tempo,488,1,0,,,,,,353982,,,,,,,
295775,control_change,95,0,2,,,,,,,,,0,64,0,,
295804,control_change,29,0,2,,,,,,,,,0,64,127,,
295840,note_on,160,0,1,,,,,,,,,0,,,65,43
296000,note_on,160,0,1,,,,,,,,,0,,,65,0
296000,note_on,0,0,1,,,,,,,,,0,,,62,43
296160,note_on,0,0,1,,,,,,,,,0,,,65,45
296160,note_on,0,0,2,,,,,,,,,0,,,49,37
296160,note_on,356,0,2,,,,,,,,,0,,,50,0
296160,note_on,160,0,1,,,,,,,,,0,,,62,0
296168,set_tempo,480,1,0,,,,,,316623,,,,,,,
296320,note_on,0,0,1,,,,,,,,,0,,,61,43
296320,note_on,160,0,1,,,,,,,,,0,,,65,0
296480,note_on,0,0,1,,,,,,,,,0,,,59,43
296480,note_on,160,0,1,,,,,,,,,0,,,61,0
296576,control_change,416,0,2,,,,,,,,,0,64,0,,
296640,note_on,64,0,2,,,,,,,,,0,,,49,0
296640,note_on,0,0,2,,,,,,,,,0,,,42,44
296640,note_on,0,0,2,,,,,,,,,0,,,44,0
296640,note_on,0,0,1,,,,,,,,,0,,,71,0
296640,note_on,0,0,1,,,,,,,,,0,,,58,45
296640,note_on,160,0,1,,,,,,,,,0,,,59,0
296648,set_tempo,480,1,0,,,,,,300000,,,,,,,
296800,note_on,160,0,1,,,,,,,,,0,,,58,0
296800,note_on,0,0,1,,,,,,,,,0,,,70,45
296960,note_on,160,0,1,,,,,,,,,0,,,70,0
296960,note_on,0,0,1,,,,,,,,,0,,,68,45
297120,note_on,480,0,2,,,,,,,,,0,,,49,37
297120,note_on,160,0,1,,,,,,,,,0,,,68,0
297120,note_on,0,0,1,,,,,,,,,0,,,66,45
297280,note_on,0,0,1,,,,,,,,,0,,,65,41
297280,note_on,160,0,1,,,,,,,,,0,,,66,0
297440,note_on,160,0,1,,,,,,,,,0,,,65,0
297440,note_on,0,0,1,,,,,,,,,0,,,63,41
297600,note_on,160,0,1,,,,,,,,,0,,,63,0
297600,note_on,0,0,1,,,,,,,,,0,,,61,45
297760,note_on,160,0,1,,,,,,,,,0,,,61,0
297760,note_on,0,0,1,,,,,,,,,0,,,59,42
297920,note_on,0,0,1,,,,,,,,,0,,,58,42
297920,note_on,160,0,1,,,,,,,,,0,,,59,0
298080,note_on,0,0,2,,,,,,,,,0,,,42,0
298080,set_tempo,1432,1,0,,,,,,333333,,,,,,,
298080,note_on,960,0,2,,,,,,,,,0,,,49,0
298080,note_on,0,0,2,,,,,,,,,0,,,44,45
298080,note_on,160,0,1,,,,,,,,,0,,,58,0
298080,note_on,0,0,1,,,,,,,,,0,,,59,44
298094,control_change,14,0,2,,,,,,,,,0,64,127,,
298240,note_on,0,0,1,,,,,,,,,0,,,62,44
298240,note_on,160,0,1,,,,,,,,,0,,,59,0
298400,note_on,0,0,1,,,,,,,,,0,,,65,44
298400,note_on,160,0,1,,,,,,,,,0,,,62,0
298560,note_on,466,0,2,,,,,,,,,0,,,50,62
298560,note_on,0,0,1,,,,,,,,,0,,,71,50
298560,note_on,160,0,1,,,,,,,,,0,,,65,0
298568,set_tempo,488,1,0,,,,,,353982,,,,,,,
298659,control_change,99,0,2,,,,,,,,,0,64,0,,
298698,control_change,39,0,2,,,,,,,,,0,64,127,,
298720,note_on,160,0,1,,,,,,,,,0,,,65,41
298880,note_on,160,0,1,,,,,,,,,0,,,65,0
298880,note_on,0,0,1,,,,,,,,,0,,,62,41
299040,note_on,160,0,1,,,,,,,,,0,,,62,0
299040,note_on,0,0,2,,,,,,,,,0,,,49,37
299040,set_tempo,472,1,0,,,,,,315789,,,,,,,
299040,note_on,0,0,1,,,,,,,,,0,,,65,45
299040,note_on,342,0,2,,,,,,,,,0,,,50,0
299200,note_on,160,0,1,,,,,,,,,0,,,65,0
299200,note_on,0,0,1,,,,,,,,,0,,,61,43
299360,note_on,160,0,1,,,,,,,,,0,,,61,0
299360,note_on,0,0,1,,,,,,,,,0,,,59,43
299478,control_change,438,0,2,,,,,,,,,0,64,0,,
299520,note_on,42,0,2,,,,,,,,,0,,,49,0
299520,note_on,0,0,2,,,,,,,,,0,,,44,0
299520,note_on,0,0,2,,,,,,,,,0,,,46,44
299520,note_on,0,0,1,,,,,,,,,0,,,71,0
299520,note_on,0,0,1,,,,,,,,,0,,,61,45
299520,note_on,160,0,1,,,,,,,,,0,,,59,0
299520,set_tempo,480,1,0,,,,,,333333,,,,,,,
299538,control_change,18,0,2,,,,,,,,,0,64,127,,
299680,note_on,160,0,1,,,,,,,,,0,,,61,0
299680,note_on,0,0,1,,,,,,,,,0,,,66,45
299840,note_on,160,0,1,,,,,,,,,0,,,66,0
299840,note_on,0,0,1,,,,,,,,,0,,,70,45
299988,set_tempo,468,1,0,,,,,,315789,,,,,,,
300000,note_on,160,0,1,,,,,,,,,0,,,70,0
300000,note_on,462,0,2,,,,,,,,,0,,,54,48
300000,note_on,0,0,1,,,,,,,,,0,,,73,50
300109,control_change,109,0,2,,,,,,,,,0,64,0,,
300152,control_change,43,0,2,,,,,,,,,0,64,127,,
300160,note_on,160,0,1,,,,,,,,,0,,,70,42
300320,note_on,160,0,1,,,,,,,,,0,,,70,0
300320,note_on,0,0,1,,,,,,,,,0,,,66,42
300480,note_on,160,0,1,,,,,,,,,0,,,66,0
300480,note_on,0,0,1,,,,,,,,,0,,,65,45
300640,note_on,0,0,1,,,,,,,,,0,,,66,43
300640,note_on,160,0,1,,,,,,,,,0,,,65,0
300800,note_on,0,0,1,,,,,,,,,0,,,64,43
300800,note_on,160,0,1,,,,,,,,,0,,,66,0
300900,control_change,748,0,2,,,,,,,,,0,64,0,,
300960,note_on,160,0,1,,,,,,,,,0,,,64,0
300960,note_on,0,0,1,,,,,,,,,0,,,73,0
300960,note_on,0,0,1,,,,,,,,,0,,,63,44
300960,set_tempo,972,1,0,,,,,,334262,,,,,,,
300960,note_on,0,0,2,,,,,,,,,0,,,47,45
300960,note_on,60,0,2,,,,,,,,,0,,,46,0
300971,control_change,11,0,2,,,,,,,,,0,64,127,,
301120,note_on,160,0,1,,,,,,,,,0,,,63,0
301120,note_on,0,0,1,,,,,,,,,0,,,68,44
301280,note_on,0,0,1,,,,,,,,,0,,,71,44
301280,note_on,160,0,1,,,,,,,,,0,,,68,0
301440,note_on,469,0,2,,,,,,,,,0,,,54,0
301440,note_on,0,0,2,,,,,,,,,0,,,56,48
301440,note_on,160,0,1,,,,,,,,,0,,,71,0
301440,note_on,0,0,1,,,,,,,,,0,,,75,52
301448,set_tempo,488,1,0,,,,,,315789,,,,,,,
301581,control_change,141,0,2,,,,,,,,,0,64,0,,
301600,note_on,160,0,1,,,,,,,,,0,,,71,42
301620,control_change,39,0,2,,,,,,,,,0,64,127,,
301760,note_on,160,0,1,,,,,,,,,0,,,71,0
301760,note_on,0,0,1,,,,,,,,,0,,,68,42
301920,note_on,0,0,1,,,,,,,,,0,,,67,45
301920,note_on,160,0,1,,,,,,,,,0,,,68,0
302080,note_on,0,0,1,,,,,,,,,0,,,68,42
302080,note_on,160,0,1,,,,,,,,,0,,,67,0
302240,note_on,160,0,1,,,,,,,,,0,,,68,0
302240,note_on,0,0,1,,,,,,,,,0,,,66,42
302351,control_change,731,0,2,,,,,,,,,0,64,0,,
302400,note_on,0,0,1,,,,,,,,,0,,,65,45
302400,note_on,160,0,1,,,,,,,,,0,,,66,0
302400,note_on,0,0,1,,,,,,,,,0,,,75,0
302400,set_tempo,952,1,0,,,,,,333333,,,,,,,
302400,note_on,49,0,2,,,,,,,,,0,,,47,0
302400,note_on,0,0,2,,,,,,,,,0,,,49,48
302560,note_on,0,0,1,,,,,,,,,0,,,66,45
302560,note_on,160,0,1,,,,,,,,,0,,,65,0
302720,note_on,160,0,1,,,,,,,,,0,,,66,0
302720,note_on,0,0,1,,,,,,,,,0,,,67,45
302880,note_on,0,0,2,,,,,,,,,0,,,59,42
302880,set_tempo,480,1,0,,,,,,300000,,,,,,,
302880,note_on,480,0,2,,,,,,,,,0,,,56,0
302880,note_on,0,0,1,,,,,,,,,0,,,68,45
302880,note_on,160,0,1,,,,,,,,,0,,,67,0
303040,note_on,160,0,1,,,,,,,,,0,,,68,0
303040,note_on,0,0,1,,,,,,,,,0,,,70,45
303200,note_on,160,0,1,,,,,,,,,0,,,70,0
303200,note_on,0,0,1,,,,,,,,,0,,,71,45
303360,note_on,160,0,1,,,,,,,,,0,,,71,0
303360,note_on,0,0,1,,,,,,,,,0,,,73,45
303520,note_on,160,0,1,,,,,,,,,0,,,73,0
303520,note_on,0,0,1,,,,,,,,,0,,,75,45
303680,note_on,0,0,1,,,,,,,,,0,,,77,45
303680,note_on,160,0,1,,,,,,,,,0,,,75,0
303840,set_tempo,960,1,0,,,,,,321716,,,,,,,
303840,note_on,0,0,1,,,,,,,,,0,,,78,44
303840,note_on,0,0,2,,,,,,,,,0,,,49,0
303840,note_on,0,0,2,,,,,,,,,0,,,58,48
303840,note_on,960,0,2,,,,,,,,,0,,,59,0
303840,note_on,160,0,1,,,,,,,,,0,,,77,0
303840,note_on,0,0,2,,,,,,,,,0,,,54,43
304000,note_on,160,0,1,,,,,,,,,0,,,78,0
304000,note_on,0,0,1,,,,,,,,,0,,,82,44
304160,note_on,160,0,1,,,,,,,,,0,,,82,0
304160,note_on,0,0,1,,,,,,,,,0,,,80,45
304320,set_tempo,480,1,0,,,,,,300000,,,,,,,
304320,note_on,160,0,1,,,,,,,,,0,,,80,0
304320,note_on,0,0,1,,,,,,,,,0,,,78,45
304480,note_on,0,0,1,,,,,,,,,0,,,77,45
304480,note_on,160,0,1,,,,,,,,,0,,,78,0
304640,note_on,0,0,1,,,,,,,,,0,,,75,45
304640,note_on,160,0,1,,,,,,,,,0,,,77,0
304800,note_on,960,0,2,,,,,,,,,0,,,54,0
304800,note_on,0,0,2,,,,,,,,,0,,,58,0
304800,note_on,160,0,1,,,,,,,,,0,,,75,0
304800,note_on,0,0,1,,,,,,,,,0,,,73,45
304960,note_on,160,0,1,,,,,,,,,0,,,73,0
304960,note_on,0,0,1,,,,,,,,,0,,,71,45
305120,note_on,0,0,1,,,,,,,,,0,,,70,45
305120,note_on,160,0,1,,,,,,,,,0,,,71,0
305280,note_on,0,0,1,,,,,,,,,0,,,68,45
305280,note_on,160,0,1,,,,,,,,,0,,,70,0
305280,note_on,480,0,2,,,,,,,,,0,,,46,48
305288,set_tempo,968,1,0,,,,,,334262,,,,,,,
305440,note_on,0,0,1,,,,,,,,,0,,,71,45
305440,note_on,160,0,1,,,,,,,,,0,,,68,0
305600,note_on,0,0,1,,,,,,,,,0,,,70,45
305600,note_on,160,0,1,,,,,,,,,0,,,71,0
305760,note_on,0,0,2,,,,,,,,,0,,,53,33
305760,note_on,0,0,2,,,,,,,,,0,,,56,33
305760,note_on,480,0,2,,,,,,,,,0,,,59,37
305760,set_tempo,472,1,0,,,,,,300000,,,,,,,
305760,note_on,0,0,1,,,,,,,,,0,,,68,43
305760,note_on,160,0,1,,,,,,,,,0,,,70,0
305920,note_on,160,0,1,,,,,,,,,0,,,68,0
305920,note_on,0,0,1,,,,,,,,,0,,,66,42
306080,note_on,160,0,1,,,,,,,,,0,,,66,0
306080,note_on,0,0,1,,,,,,,,,0,,,65,39
306240,note_on,160,0,1,,,,,,,,,0,,,65,0
306240,note_on,0,0,1,,,,,,,,,0,,,63,45
306400,note_on,0,0,1,,,,,,,,,0,,,62,37
306400,note_on,160,0,1,,,,,,,,,0,,,63,0
306560,note_on,160,0,1,,,,,,,,,0,,,62,0
306560,note_on,0,0,1,,,,,,,,,0,,,65,37
306720,note_on,160,0,1,,,,,,,,,0,,,65,0
306720,note_on,960,0,2,,,,,,,,,0,,,53,0
306720,note_on,0,0,2,,,,,,,,,0,,,46,0
306720,note_on,0,0,2,,,,,,,,,0,,,59,0
306720,note_on,0,0,2,,,,,,,,,0,,,56,0
306720,note_on,0,0,2,,,,,,,,,0,,,46,48
306720,note_on,0,0,1,,,,,,,,,0,,,68,37
306728,set_tempo,968,1,0,,,,,,334262,,,,,,,
306880,note_on,160,0,1,,,,,,,,,0,,,68,0
306880,note_on,0,0,1,,,,,,,,,0,,,71,37
307040,note_on,160,0,1,,,,,,,,,0,,,71,0
307040,note_on,0,0,1,,,,,,,,,0,,,70,37
307188,set_tempo,460,1,0,,,,,,300000,,,,,,,
307200,note_on,0,0,1,,,,,,,,,0,,,68,37
307200,note_on,160,0,1,,,,,,,,,0,,,70,0
307200,note_on,480,0,2,,,,,,,,,0,,,59,36
307200,note_on,0,0,2,,,,,,,,,0,,,56,32
307200,note_on,0,0,2,,,,,,,,,0,,,53,32
307360,note_on,160,0,1,,,,,,,,,0,,,68,0
307360,note_on,0,0,1,,,,,,,,,0,,,66,37
307520,note_on,160,0,1,,,,,,,,,0,,,66,0
307520,note_on,0,0,1,,,,,,,,,0,,,65,37
307680,note_on,160,0,1,,,,,,,,,0,,,65,0
307680,note_on,0,0,1,,,,,,,,,0,,,63,45
307840,note_on,0,0,1,,,,,,,,,0,,,62,37
307840,note_on,160,0,1,,,,,,,,,0,,,63,0
308000,note_on,160,0,1,,,,,,,,,0,,,62,0
308000,note_on,0,0,1,,,,,,,,,0,,,65,37
308160,note_on,0,0,2,,,,,,,,,0,,,46,48
308160,note_on,0,0,2,,,,,,,,,0,,,59,0
308160,note_on,0,0,2,,,,,,,,,0,,,46,0
308160,note_on,960,0,2,,,,,,,,,0,,,53,0
308160,note_on,160,0,1,,,,,,,,,0,,,65,0
308160,note_on,0,0,1,,,,,,,,,0,,,68,36
308160,note_on,0,0,2,,,,,,,,,0,,,56,0
308168,set_tempo,980,1,0,,,,,,351906,,,,,,,
308320,note_on,160,0,1,,,,,,,,,0,,,68,0
308320,note_on,0,0,1,,,,,,,,,0,,,71,36
308480,note_on,160,0,1,,,,,,,,,0,,,71,0
308480,note_on,0,0,1,,,,,,,,,0,,,70,36
308640,note_on,160,0,1,,,,,,,,,0,,,70,0
308640,note_on,0,0,2,,,,,,,,,0,,,56,32
308640,note_on,0,0,2,,,,,,,,,0,,,59,36
308640,set_tempo,472,1,0,,,,,,300000,,,,,,,
308640,note_on,480,0,2,,,,,,,,,0,,,53,32
308640,note_on,0,0,1,,,,,,,,,0,,,68,36
308800,note_on,160,0,1,,,,,,,,,0,,,68,0
308800,note_on,0,0,1,,,,,,,,,0,,,66,36
308960,note_on,160,0,1,,,,,,,,,0,,,66,0
308960,note_on,0,0,1,,,,,,,,,0,,,65,36
309120,note_on,160,0,1,,,,,,,,,0,,,65,0
309120,note_on,0,0,1,,,,,,,,,0,,,63,44
309280,note_on,160,0,1,,,,,,,,,0,,,63,0
309280,note_on,0,0,1,,,,,,,,,0,,,62,36
309440,note_on,0,0,1,,,,,,,,,0,,,65,36
309440,note_on,160,0,1,,,,,,,,,0,,,62,0
309600,note_on,0,0,1,,,,,,,,,0,,,68,36
309600,note_on,160,0,1,,,,,,,,,0,,,65,0
309760,note_on,160,0,1,,,,,,,,,0,,,68,0
309760,note_on,0,0,1,,,,,,,,,0,,,71,38
309920,note_on,0,0,1,,,,,,,,,0,,,74,41
309920,note_on,160,0,1,,,,,,,,,0,,,71,0
310080,note_on,0,0,1,,,,,,,,,0,,,71,44
310080,note_on,160,0,1,,,,,,,,,0,,,74,0
310240,note_on,0,0,1,,,,,,,,,0,,,74,45
310240,note_on,160,0,1,,,,,,,,,0,,,71,0
310400,note_on,160,0,1,,,,,,,,,0,,,74,0
310400,note_on,0,0,1,,,,,,,,,0,,,77,46
310560,note_on,0,0,1,,,,,,,,,0,,,74,48
310560,note_on,160,0,1,,,,,,,,,0,,,77,0
310720,note_on,0,0,1,,,,,,,,,0,,,77,51
310720,note_on,160,0,1,,,,,,,,,0,,,74,0
310880,note_on,160,0,1,,,,,,,,,0,,,77,0
310880,note_on,0,0,1,,,,,,,,,0,,,78,52
311040,note_on,160,0,1,,,,,,,,,0,,,78,0
311040,note_on,0,0,1,,,,,,,,,0,,,80,52
311040,note_on,0,0,2,,,,,,,,,0,,,58,48
311040,note_on,0,0,2,,,,,,,,,0,,,56,0
311040,note_on,0,0,2,,,,,,,,,0,,,53,0
311040,note_on,0,0,2,,,,,,,,,0,,,46,0
311040,note_on,2400,0,2,,,,,,,,,0,,,59,0
311048,set_tempo,2408,1,0,,,,,,332410,,,,,,,
311200,note_on,160,0,1,,,,,,,,,0,,,80,0
311200,note_on,0,0,1,,,,,,,,,0,,,83,54
311360,note_on,0,0,1,,,,,,,,,0,,,82,50
311360,note_on,160,0,1,,,,,,,,,0,,,83,0
311508,set_tempo,460,1,0,,,,,,300000,,,,,,,
311520,note_on,160,0,1,,,,,,,,,0,,,82,0
311520,note_on,0,0,2,,,,,,,,,0,,,65,32
311520,note_on,0,0,2,,,,,,,,,0,,,68,32
311520,note_on,480,0,2,,,,,,,,,0,,,71,36
311520,note_on,0,0,1,,,,,,,,,0,,,80,54
311680,note_on,0,0,1,,,,,,,,,0,,,78,52
311680,note_on,160,0,1,,,,,,,,,0,,,80,0
311840,note_on,0,0,1,,,,,,,,,0,,,77,52
311840,note_on,160,0,1,,,,,,,,,0,,,78,0
312000,note_on,0,0,1,,,,,,,,,0,,,75,59
312000,note_on,160,0,1,,,,,,,,,0,,,77,0
312160,note_on,0,0,1,,,,,,,,,0,,,74,53
312160,note_on,160,0,1,,,,,,,,,0,,,75,0
312320,note_on,160,0,1,,,,,,,,,0,,,74,0
312320,note_on,0,0,1,,,,,,,,,0,,,77,53
312468,set_tempo,960,1,0,,,,,,333333,,,,,,,
312480,note_on,160,0,1,,,,,,,,,0,,,77,0
312480,note_on,0,0,2,,,,,,,,,0,,,58,0
312480,note_on,0,0,1,,,,,,,,,0,,,80,53
312480,note_on,0,0,2,,,,,,,,,0,,,58,48
312480,note_on,0,0,2,,,,,,,,,0,,,68,0
312480,note_on,0,0,2,,,,,,,,,0,,,71,0
312480,note_on,960,0,2,,,,,,,,,0,,,65,0
312640,note_on,0,0,1,,,,,,,,,0,,,83,49
312640,note_on,160,0,1,,,,,,,,,0,,,80,0
312800,note_on,160,0,1,,,,,,,,,0,,,83,0
312800,note_on,0,0,1,,,,,,,,,0,,,82,49
312960,note_on,0,0,2,,,,,,,,,0,,,65,32
312960,note_on,480,0,2,,,,,,,,,0,,,71,36
312960,note_on,160,0,1,,,,,,,,,0,,,82,0
312960,note_on,0,0,1,,,,,,,,,0,,,80,53
312960,set_tempo,492,1,0,,,,,,300000,,,,,,,
312960,note_on,0,0,2,,,,,,,,,0,,,68,32
313120,note_on,160,0,1,,,,,,,,,0,,,80,0
313120,note_on,0,0,1,,,,,,,,,0,,,78,49
313280,note_on,160,0,1,,,,,,,,,0,,,78,0
313280,note_on,0,0,1,,,,,,,,,0,,,77,49
313440,note_on,0,0,1,,,,,,,,,0,,,75,58
313440,note_on,160,0,1,,,,,,,,,0,,,77,0
313600,note_on,160,0,1,,,,,,,,,0,,,75,0
313600,note_on,0,0,1,,,,,,,,,0,,,74,54
313760,note_on,0,0,1,,,,,,,,,0,,,77,54
313760,note_on,160,0,1,,,,,,,,,0,,,74,0
313920,set_tempo,960,1,0,,,,,,291262,,,,,,,
313920,note_on,0,0,1,,,,,,,,,0,,,80,54
313920,note_on,160,0,1,,,,,,,,,0,,,77,0
314080,note_on,160,0,1,,,,,,,,,0,,,80,0
314080,note_on,0,0,1,,,,,,,,,0,,,83,54
314240,note_on,160,0,1,,,,,,,,,0,,,83,0
314240,note_on,0,0,1,,,,,,,,,0,,,80,57
314400,note_on,160,0,1,,,,,,,,,0,,,80,0
314400,note_on,0,0,1,,,,,,,,,0,,,83,59
314560,note_on,160,0,1,,,,,,,,,0,,,83,0
314560,note_on,0,0,1,,,,,,,,,0,,,80,60
314720,note_on,160,0,1,,,,,,,,,0,,,80,0
314720,note_on,0,0,1,,,,,,,,,0,,,83,63
314880,note_on,160,0,1,,,,,,,,,0,,,83,0
314880,note_on,0,0,1,,,,,,,,,0,,,80,64
315040,note_on,0,0,1,,,,,,,,,0,,,83,67
315040,note_on,160,0,1,,,,,,,,,0,,,80,0
315200,note_on,0,0,1,,,,,,,,,0,,,80,68
315200,note_on,160,0,1,,,,,,,,,0,,,83,0
315320,set_tempo,1400,1,0,,,,,,291262,,,,,,,
315340,set_tempo,20,1,0,,,,,,291971,,,,,,,
315360,note_on,2400,0,2,,,,,,,,,0,,,71,0
315360,note_on,0,0,1,,,,,,,,,0,,,82,69
315360,note_on,160,0,1,,,,,,,,,0,,,80,0
315360,note_on,0,0,2,,,,,,,,,0,,,70,48
315360,set_tempo,20,1,0,,,,,,293399,,,,,,,
315380,set_tempo,20,1,0,,,,,,294840,,,,,,,
315400,set_tempo,20,1,0,,,,,,296296,,,,,,,
315420,set_tempo,20,1,0,,,,,,297767,,,,,,,
315440,set_tempo,20,1,0,,,,,,299252,,,,,,,
315460,set_tempo,20,1,0,,,,,,300752,,,,,,,
315480,set_tempo,20,1,0,,,,,,302267,,,,,,,
315500,set_tempo,20,1,0,,,,,,303797,,,,,,,
315520,note_on,0,0,1,,,,,,,,,0,,,80,65
315520,set_tempo,20,1,0,,,,,,305344,,,,,,,
315520,note_on,160,0,1,,,,,,,,,0,,,82,0
315540,set_tempo,20,1,0,,,,,,306122,,,,,,,
315560,set_tempo,20,1,0,,,,,,307692,,,,,,,
315580,set_tempo,20,1,0,,,,,,309278,,,,,,,
315600,set_tempo,20,1,0,,,,,,310881,,,,,,,
315620,set_tempo,20,1,0,,,,,,312500,,,,,,,
315640,set_tempo,20,1,0,,,,,,314136,,,,,,,
315660,set_tempo,20,1,0,,,,,,315789,,,,,,,
315680,set_tempo,20,1,0,,,,,,317460,,,,,,,
315680,note_on,0,0,1,,,,,,,,,0,,,82,61
315680,note_on,160,0,1,,,,,,,,,0,,,80,0
315700,set_tempo,20,1,0,,,,,,319149,,,,,,,
315720,set_tempo,20,1,0,,,,,,320856,,,,,,,
315740,set_tempo,20,1,0,,,,,,321716,,,,,,,
315760,set_tempo,20,1,0,,,,,,323450,,,,,,,
315780,set_tempo,20,1,0,,,,,,325203,,,,,,,
315800,set_tempo,20,1,0,,,,,,326975,,,,,,,
315820,set_tempo,20,1,0,,,,,,328767,,,,,,,
315840,note_on,0,0,1,,,,,,,,,0,,,80,56
315840,set_tempo,20,1,0,,,,,,330579,,,,,,,
315840,note_on,160,0,1,,,,,,,,,0,,,82,0
315860,set_tempo,20,1,0,,,,,,332410,,,,,,,
315880,set_tempo,20,1,0,,,,,,334262,,,,,,,
315900,set_tempo,20,1,0,,,,,,336134,,,,,,,
315920,set_tempo,20,1,0,,,,,,338028,,,,,,,
315940,set_tempo,20,1,0,,,,,,338983,,,,,,,
315960,set_tempo,20,1,0,,,,,,340909,,,,,,,
315980,set_tempo,20,1,0,,,,,,342857,,,,,,,
316000,note_on,160,0,1,,,,,,,,,0,,,80,0
316000,set_tempo,20,1,0,,,,,,344828,,,,,,,
316000,note_on,0,0,1,,,,,,,,,0,,,82,52
316020,set_tempo,20,1,0,,,,,,346821,,,,,,,
316040,set_tempo,20,1,0,,,,,,348837,,,,,,,
316060,set_tempo,20,1,0,,,,,,350877,,,,,,,
316080,set_tempo,20,1,0,,,,,,352941,,,,,,,
316100,set_tempo,20,1,0,,,,,,355030,,,,,,,
316120,set_tempo,20,1,0,,,,,,357143,,,,,,,
316140,set_tempo,20,1,0,,,,,,359281,,,,,,,
316160,note_on,160,0,1,,,,,,,,,0,,,82,0
316160,set_tempo,20,1,0,,,,,,360360,,,,,,,
316160,note_on,0,0,1,,,,,,,,,0,,,80,47
316180,set_tempo,20,1,0,,,,,,362538,,,,,,,
316200,set_tempo,20,1,0,,,,,,364742,,,,,,,
316220,set_tempo,20,1,0,,,,,,366972,,,,,,,
316240,set_tempo,20,1,0,,,,,,369231,,,,,,,
316260,set_tempo,20,1,0,,,,,,371517,,,,,,,
316280,set_tempo,20,1,0,,,,,,373832,,,,,,,
316300,set_tempo,20,1,0,,,,,,376176,,,,,,,
316320,set_tempo,20,1,0,,,,,,378549,,,,,,,
316320,note_on,0,0,1,,,,,,,,,0,,,82,43
316320,note_on,160,0,1,,,,,,,,,0,,,80,0
316340,set_tempo,20,1,0,,,,,,380952,,,,,,,
316360,set_tempo,20,1,0,,,,,,382166,,,,,,,
316380,set_tempo,20,1,0,,,,,,384615,,,,,,,
316400,set_tempo,20,1,0,,,,,,387097,,,,,,,
316420,set_tempo,20,1,0,,,,,,389610,,,,,,,
316440,set_tempo,20,1,0,,,,,,392157,,,,,,,
316460,set_tempo,20,1,0,,,,,,394737,,,,,,,
316480,set_tempo,20,1,0,,,,,,397351,,,,,,,
316480,note_on,0,0,1,,,,,,,,,0,,,80,38
316480,note_on,160,0,1,,,,,,,,,0,,,82,0
316500,set_tempo,20,1,0,,,,,,400000,,,,,,,
316520,set_tempo,20,1,0,,,,,,402685,,,,,,,
316540,set_tempo,20,1,0,,,,,,405405,,,,,,,
316560,set_tempo,20,1,0,,,,,,406780,,,,,,,
316580,set_tempo,20,1,0,,,,,,409556,,,,,,,
316600,set_tempo,20,1,0,,,,,,412371,,,,,,,
316620,set_tempo,20,1,0,,,,,,415225,,,,,,,
316640,note_on,160,0,1,,,,,,,,,0,,,80,0
316640,note_on,0,0,1,,,,,,,,,0,,,82,34
316640,set_tempo,20,1,0,,,,,,418118,,,,,,,
316660,set_tempo,20,1,0,,,,,,421053,,,,,,,
316680,set_tempo,20,1,0,,,,,,424028,,,,,,,
316700,set_tempo,20,1,0,,,,,,427046,,,,,,,
316720,set_tempo,20,1,0,,,,,,430108,,,,,,,
316740,set_tempo,20,1,0,,,,,,433213,,,,,,,
316760,set_tempo,20,1,0,,,,,,436364,,,,,,,
316800,note_on,160,0,1,,,,,,,,,0,,,82,0
316800,note_on,0,0,1,,,,,,,,,0,,,79,54
316800,note_on,0,0,2,,,,,,,,,0,,,68,0
316800,set_tempo,40,1,0,,,,,,353982,,,,,,,
316800,note_on,0,0,2,,,,,,,,,0,,,51,46
316800,note_on,0,0,2,,,,,,,,,0,,,58,0
316800,note_on,0,0,2,,,,,,,,,0,,,65,0
316800,note_on,1440,0,2,,,,,,,,,0,,,70,0
316808,set_tempo,8,1,0,,,,,,375000,,,,,,,
316960,note_on,0,0,1,,,,,,,,,0,,,82,49
316960,note_on,160,0,1,,,,,,,,,0,,,79,0
317120,note_on,0,0,1,,,,,,,,,0,,,80,45
317120,note_on,160,0,1,,,,,,,,,0,,,82,0
317280,set_tempo,472,1,0,,,,,,300000,,,,,,,
317280,note_on,0,0,1,,,,,,,,,0,,,79,54
317280,note_on,480,0,2,,,,,,,,,0,,,58,34
317280,note_on,160,0,1,,,,,,,,,0,,,80,0
317440,note_on,160,0,1,,,,,,,,,0,,,79,0
317440,note_on,0,0,1,,,,,,,,,0,,,77,50
317600,note_on,0,0,1,,,,,,,,,0,,,75,46
317600,note_on,160,0,1,,,,,,,,,0,,,77,0
317760,note_on,0,0,1,,,,,,,,,0,,,74,54
317760,note_on,160,0,1,,,,,,,,,0,,,75,0
317920,note_on,160,0,1,,,,,,,,,0,,,74,0
317920,note_on,0,0,1,,,,,,,,,0,,,72,50
318080,note_on,160,0,1,,,,,,,,,0,,,72,0
318080,note_on,0,0,1,,,,,,,,,0,,,70,46
318240,note_on,160,0,1,,,,,,,,,0,,,70,0
318240,note_on,0,0,1,,,,,,,,,0,,,68,54
318240,note_on,0,0,2,,,,,,,,,0,,,51,0
318240,note_on,0,0,2,,,,,,,,,0,,,53,46
318240,note_on,960,0,2,,,,,,,,,0,,,58,0
318240,set_tempo,960,1,0,,,,,,306122,,,,,,,
318400,note_on,160,0,1,,,,,,,,,0,,,68,0
318400,note_on,0,0,1,,,,,,,,,0,,,67,49
318560,note_on,160,0,1,,,,,,,,,0,,,67,0
318560,note_on,0,0,1,,,,,,,,,0,,,65,46
318720,note_on,480,0,2,,,,,,,,,0,,,58,36
318720,set_tempo,480,1,0,,,,,,300000,,,,,,,
318720,note_on,0,0,1,,,,,,,,,0,,,63,54
318720,note_on,160,0,1,,,,,,,,,0,,,65,0
318880,note_on,0,0,1,,,,,,,,,0,,,62,50
318880,note_on,160,0,1,,,,,,,,,0,,,63,0
319040,note_on,0,0,1,,,,,,,,,0,,,60,47
319040,note_on,160,0,1,,,,,,,,,0,,,62,0
319200,note_on,0,0,1,,,,,,,,,0,,,58,54
319200,note_on,160,0,1,,,,,,,,,0,,,60,0
319360,note_on,160,0,1,,,,,,,,,0,,,58,0
319360,note_on,0,0,1,,,,,,,,,0,,,60,49
319520,note_on,0,0,1,,,,,,,,,0,,,62,47
319520,note_on,160,0,1,,,,,,,,,0,,,60,0
319680,note_on,0,0,1,,,,,,,,,0,,,63,54
319680,note_on,160,0,1,,,,,,,,,0,,,62,0
319680,note_on,960,0,2,,,,,,,,,0,,,58,0
319680,note_on,0,0,2,,,,,,,,,0,,,55,46
319680,set_tempo,960,1,0,,,,,,306905,,,,,,,
319680,note_on,0,0,2,,,,,,,,,0,,,53,0
319840,note_on,160,0,1,,,,,,,,,0,,,63,0
319840,note_on,0,0,1,,,,,,,,,0,,,62,49
320000,note_on,160,0,1,,,,,,,,,0,,,62,0
320000,note_on,0,0,1,,,,,,,,,0,,,63,49
320160,note_on,0,0,1,,,,,,,,,0,,,64,57
320160,note_on,160,0,1,,,,,,,,,0,,,63,0
320160,note_on,480,0,2,,,,,,,,,0,,,58,36
320160,set_tempo,480,1,0,,,,,,300000,,,,,,,
320320,note_on,160,0,1,,,,,,,,,0,,,64,0
320320,note_on,0,0,1,,,,,,,,,0,,,63,54
320480,note_on,160,0,1,,,,,,,,,0,,,63,0
320480,note_on,0,0,1,,,,,,,,,0,,,64,54
320640,note_on,160,0,1,,,,,,,,,0,,,64,0
320640,note_on,0,0,1,,,,,,,,,0,,,65,62
320800,note_on,0,0,1,,,,,,,,,0,,,64,58
320800,note_on,160,0,1,,,,,,,,,0,,,65,0
320960,note_on,160,0,1,,,,,,,,,0,,,64,0
320960,note_on,0,0,1,,,,,,,,,0,,,65,58
321120,note_on,160,0,1,,,,,,,,,0,,,65,0
321120,note_on,0,0,1,,,,,,,,,0,,,66,65
321120,set_tempo,960,1,0,,,,,,320000,,,,,,,
321120,note_on,0,0,2,,,,,,,,,0,,,50,46
321120,note_on,0,0,2,,,,,,,,,0,,,55,0
321120,note_on,960,0,2,,,,,,,,,0,,,58,0
321280,note_on,0,0,1,,,,,,,,,0,,,65,58
321280,note_on,160,0,1,,,,,,,,,0,,,66,0
321440,note_on,160,0,1,,,,,,,,,0,,,65,0
321440,note_on,0,0,1,,,,,,,,,0,,,66,54
321600,note_on,0,0,1,,,,,,,,,0,,,67,63
321600,note_on,160,0,1,,,,,,,,,0,,,66,0
321600,set_tempo,480,1,0,,,,,,300000,,,,,,,
321600,note_on,480,0,2,,,,,,,,,0,,,58,36
321760,note_on,160,0,1,,,,,,,,,0,,,67,0
321760,note_on,0,0,1,,,,,,,,,0,,,66,59
321920,note_on,0,0,1,,,,,,,,,0,,,67,54
321920,note_on,160,0,1,,,,,,,,,0,,,66,0
322080,note_on,0,0,1,,,,,,,,,0,,,68,54
322080,note_on,160,0,1,,,,,,,,,0,,,67,0
322240,note_on,0,0,1,,,,,,,,,0,,,67,52
322240,note_on,160,0,1,,,,,,,,,0,,,68,0
322400,note_on,0,0,1,,,,,,,,,0,,,68,52
322400,note_on,160,0,1,,,,,,,,,0,,,67,0
322560,note_on,160,0,1,,,,,,,,,0,,,68,0
322560,note_on,0,0,1,,,,,,,,,0,,,67,54
322560,note_on,960,0,2,,,,,,,,,0,,,58,0
322560,note_on,0,0,2,,,,,,,,,0,,,50,0
322560,note_on,0,0,2,,,,,,,,,0,,,51,45
322560,set_tempo,960,1,0,,,,,,306122,,,,,,,
322720,note_on,0,0,1,,,,,,,,,0,,,70,51
322720,note_on,160,0,1,,,,,,,,,0,,,67,0
322880,note_on,160,0,1,,,,,,,,,0,,,70,0
322880,note_on,0,0,1,,,,,,,,,0,,,68,51
323040,note_on,160,0,1,,,,,,,,,0,,,68,0
323040,note_on,0,0,1,,,,,,,,,0,,,67,54
323040,set_tempo,480,1,0,,,,,,300000,,,,,,,
323040,note_on,480,0,2,,,,,,,,,0,,,58,35
323200,note_on,160,0,1,,,,,,,,,0,,,67,0
323200,note_on,0,0,1,,,,,,,,,0,,,68,51
323360,note_on,160,0,1,,,,,,,,,0,,,68,0
323360,note_on,0,0,1,,,,,,,,,0,,,70,51
323520,note_on,160,0,1,,,,,,,,,0,,,70,0
323520,note_on,0,0,1,,,,,,,,,0,,,72,54
323680,note_on,160,0,1,,,,,,,,,0,,,72,0
323680,note_on,0,0,1,,,,,,,,,0,,,74,51
323840,note_on,160,0,1,,,,,,,,,0,,,74,0
323840,note_on,0,0,1,,,,,,,,,0,,,75,51
324000,note_on,960,0,2,,,,,,,,,0,,,58,0
324000,note_on,0,0,2,,,,,,,,,0,,,51,0
324000,note_on,0,0,2,,,,,,,,,0,,,44,46
324000,set_tempo,960,1,0,,,,,,306122,,,,,,,
324000,note_on,0,0,1,,,,,,,,,0,,,77,54
324000,note_on,160,0,1,,,,,,,,,0,,,75,0
324160,note_on,160,0,1,,,,,,,,,0,,,77,0
324160,note_on,0,0,1,,,,,,,,,0,,,84,56
324320,note_on,160,0,1,,,,,,,,,0,,,84,0
324320,note_on,0,0,1,,,,,,,,,0,,,82,51
324480,set_tempo,480,1,0,,,,,,300000,,,,,,,
324480,note_on,480,0,2,,,,,,,,,0,,,44,0
324480,note_on,0,0,2,,,,,,,,,0,,,60,36
324480,note_on,160,0,1,,,,,,,,,0,,,82,0
324480,note_on,0,0,1,,,,,,,,,0,,,80,55
324480,note_on,0,0,2,,,,,,,,,0,,,56,32
324640,note_on,160,0,1,,,,,,,,,0,,,80,0
324640,note_on,0,0,1,,,,,,,,,0,,,79,52
324800,note_on,160,0,1,,,,,,,,,0,,,79,0
324800,note_on,0,0,1,,,,,,,,,0,,,77,52
324960,note_on,0,0,1,,,,,,,,,0,,,75,54
324960,note_on,160,0,1,,,,,,,,,0,,,77,0
325120,note_on,160,0,1,,,,,,,,,0,,,75,0
325120,note_on,0,0,1,,,,,,,,,0,,,74,50
325280,note_on,0,0,1,,,,,,,,,0,,,72,50
325280,note_on,160,0,1,,,,,,,,,0,,,74,0
325440,note_on,0,0,2,,,,,,,,,0,,,60,0
325440,note_on,0,0,2,,,,,,,,,0,,,46,46
325440,set_tempo,960,1,0,,,,,,306905,,,,,,,
325440,note_on,960,0,2,,,,,,,,,0,,,56,0
325440,note_on,0,0,1,,,,,,,,,0,,,74,54
325440,note_on,160,0,1,,,,,,,,,0,,,72,0
325600,note_on,160,0,1,,,,,,,,,0,,,74,0
325600,note_on,0,0,1,,,,,,,,,0,,,77,51
325760,note_on,160,0,1,,,,,,,,,0,,,77,0
325760,note_on,0,0,1,,,,,,,,,0,,,75,51
325920,note_on,480,0,2,,,,,,,,,0,,,46,0
325920,note_on,0,0,2,,,,,,,,,0,,,56,32
325920,note_on,0,0,2,,,,,,,,,0,,,65,36
325920,note_on,0,0,1,,,,,,,,,0,,,74,55
325920,set_tempo,480,1,0,,,,,,300000,,,,,,,
325920,note_on,160,0,1,,,,,,,,,0,,,75,0
325920,note_on,0,0,2,,,,,,,,,0,,,58,32
326080,note_on,160,0,1,,,,,,,,,0,,,74,0
326080,note_on,0,0,1,,,,,,,,,0,,,75,53
326240,note_on,0,0,1,,,,,,,,,0,,,77,53
326240,note_on,160,0,1,,,,,,,,,0,,,75,0
326400,note_on,0,0,1,,,,,,,,,0,,,79,59
326400,note_on,160,0,1,,,,,,,,,0,,,77,0
326560,note_on,0,0,1,,,,,,,,,0,,,80,56
326560,note_on,160,0,1,,,,,,,,,0,,,79,0
326720,note_on,0,0,1,,,,,,,,,0,,,82,56
326720,note_on,160,0,1,,,,,,,,,0,,,80,0
326880,note_on,960,0,2,,,,,,,,,0,,,58,0
326880,note_on,0,0,2,,,,,,,,,0,,,65,0
326880,note_on,0,0,2,,,,,,,,,0,,,56,0
326880,note_on,0,0,2,,,,,,,,,0,,,51,51
326880,set_tempo,960,1,0,,,,,,304569,,,,,,,
326880,note_on,160,0,1,,,,,,,,,0,,,82,0
326880,note_on,0,0,1,,,,,,,,,0,,,75,62
327040,note_on,0,0,1,,,,,,,,,0,,,77,58
327040,note_on,160,0,1,,,,,,,,,0,,,75,0
327200,note_on,160,0,1,,,,,,,,,0,,,77,0
327200,note_on,0,0,1,,,,,,,,,0,,,79,58
327340,set_tempo,460,1,0,,,,,,300000,,,,,,,
327360,note_on,480,0,2,,,,,,,,,0,,,51,0
327360,note_on,0,0,2,,,,,,,,,0,,,63,41
327360,note_on,0,0,2,,,,,,,,,0,,,58,36
327360,note_on,0,0,2,,,,,,,,,0,,,55,36
327360,note_on,0,0,1,,,,,,,,,0,,,80,65
327360,note_on,160,0,1,,,,,,,,,0,,,79,0
327520,note_on,0,0,1,,,,,,,,,0,,,82,61
327520,note_on,160,0,1,,,,,,,,,0,,,80,0
327680,note_on,0,0,1,,,,,,,,,0,,,84,61
327680,note_on,160,0,1,,,,,,,,,0,,,82,0
327840,note_on,0,0,1,,,,,,,,,0,,,86,68
327840,note_on,160,0,1,,,,,,,,,0,,,84,0
328000,note_on,160,0,1,,,,,,,,,0,,,86,0
328000,note_on,0,0,1,,,,,,,,,0,,,87,66
328160,note_on,160,0,1,,,,,,,,,0,,,87,0
328160,note_on,0,0,1,,,,,,,,,0,,,89,66
328320,note_on,160,0,1,,,,,,,,,0,,,89,0
328320,note_on,0,0,2,,,,,,,,,0,,,63,0
328320,note_on,0,0,2,,,,,,,,,0,,,58,0
328320,note_on,960,0,2,,,,,,,,,0,,,55,0
328320,set_tempo,980,1,0,,,,,,334262,,,,,,,
328320,note_on,0,0,1,,,,,,,,,0,,,91,72
328320,note_on,0,0,2,,,,,,,,,0,,,51,49
328480,note_on,0,0,1,,,,,,,,,0,,,94,69
328480,note_on,160,0,1,,,,,,,,,0,,,91,0
328640,note_on,160,0,1,,,,,,,,,0,,,94,0
328640,note_on,0,0,1,,,,,,,,,0,,,92,65
328800,set_tempo,480,1,0,,,,,,300752,,,,,,,
328800,note_on,160,0,1,,,,,,,,,0,,,92,0
328800,note_on,0,0,1,,,,,,,,,0,,,91,72
328800,note_on,480,0,2,,,,,,,,,0,,,58,39
328960,note_on,160,0,1,,,,,,,,,0,,,91,0
328960,note_on,0,0,1,,,,,,,,,0,,,89,69
329120,note_on,160,0,1,,,,,,,,,0,,,89,0
329120,note_on,0,0,1,,,,,,,,,0,,,87,65
329280,note_on,0,0,1,,,,,,,,,0,,,86,69
329280,note_on,160,0,1,,,,,,,,,0,,,87,0
329440,note_on,160,0,1,,,,,,,,,0,,,86,0
329440,note_on,0,0,1,,,,,,,,,0,,,84,63
329600,note_on,0,0,1,,,,,,,,,0,,,82,63
329600,note_on,160,0,1,,,,,,,,,0,,,84,0
329760,set_tempo,960,1,0,,,,,,306122,,,,,,,
329760,note_on,960,0,2,,,,,,,,,0,,,58,0
329760,note_on,160,0,1,,,,,,,,,0,,,82,0
329760,note_on,0,0,1,,,,,,,,,0,,,80,72
329760,note_on,0,0,2,,,,,,,,,0,,,51,0
329760,note_on,0,0,2,,,,,,,,,0,,,53,47
329920,note_on,0,0,1,,,,,,,,,0,,,79,70
329920,note_on,160,0,1,,,,,,,,,0,,,80,0
330080,note_on,0,0,1,,,,,,,,,0,,,77,68
330080,note_on,160,0,1,,,,,,,,,0,,,79,0
330240,note_on,0,0,1,,,,,,,,,0,,,75,66
330240,note_on,160,0,1,,,,,,,,,0,,,77,0
330240,set_tempo,480,1,0,,,,,,300000,,,,,,,
330240,note_on,480,0,2,,,,,,,,,0,,,58,38
330400,note_on,0,0,1,,,,,,,,,0,,,74,64
330400,note_on,160,0,1,,,,,,,,,0,,,75,0
330560,note_on,0,0,1,,,,,,,,,0,,,72,62
330560,note_on,160,0,1,,,,,,,,,0,,,74,0
330720,note_on,160,0,1,,,,,,,,,0,,,72,0
330720,note_on,0,0,1,,,,,,,,,0,,,70,60
330880,note_on,160,0,1,,,,,,,,,0,,,70,0
330880,note_on,0,0,1,,,,,,,,,0,,,72,58
331040,note_on,160,0,1,,,,,,,,,0,,,72,0
331040,note_on,0,0,1,,,,,,,,,0,,,74,56
331200,set_tempo,960,1,0,,,,,,306905,,,,,,,
331200,note_on,0,0,2,,,,,,,,,0,,,53,0
331200,note_on,160,0,1,,,,,,,,,0,,,74,0
331200,note_on,0,0,1,,,,,,,,,0,,,75,54
331200,note_on,0,0,2,,,,,,,,,0,,,55,45
331200,note_on,960,0,2,,,,,,,,,0,,,58,0
331360,note_on,160,0,1,,,,,,,,,0,,,75,0
331360,note_on,0,0,1,,,,,,,,,0,,,74,54
331520,note_on,0,0,1,,,,,,,,,0,,,75,54
331520,note_on,160,0,1,,,,,,,,,0,,,74,0
331680,note_on,160,0,1,,,,,,,,,0,,,75,0
331680,note_on,0,0,1,,,,,,,,,0,,,76,54
331680,set_tempo,480,1,0,,,,,,300000,,,,,,,
331680,note_on,480,0,2,,,,,,,,,0,,,58,36
331840,note_on,160,0,1,,,,,,,,,0,,,76,0
331840,note_on,0,0,1,,,,,,,,,0,,,75,55
332000,note_on,160,0,1,,,,,,,,,0,,,75,0
332000,note_on,0,0,1,,,,,,,,,0,,,76,57
332160,note_on,160,0,1,,,,,,,,,0,,,76,0
332160,note_on,0,0,1,,,,,,,,,0,,,77,59
332320,note_on,160,0,1,,,,,,,,,0,,,77,0
332320,note_on,0,0,1,,,,,,,,,0,,,76,63
332480,note_on,0,0,1,,,,,,,,,0,,,77,65
332480,note_on,160,0,1,,,,,,,,,0,,,76,0
332640,note_on,960,0,2,,,,,,,,,0,,,58,0
332640,note_on,0,0,2,,,,,,,,,0,,,55,0
332640,set_tempo,960,1,0,,,,,,305344,,,,,,,
332640,note_on,160,0,1,,,,,,,,,0,,,77,0
332640,note_on,0,0,1,,,,,,,,,0,,,78,69
332640,note_on,0,0,2,,,,,,,,,0,,,50,54
332800,note_on,160,0,1,,,,,,,,,0,,,78,0
332800,note_on,0,0,1,,,,,,,,,0,,,77,68
332960,note_on,160,0,1,,,,,,,,,0,,,77,0
332960,note_on,0,0,1,,,,,,,,,0,,,78,65
333120,note_on,480,0,2,,,,,,,,,0,,,58,45
333120,set_tempo,480,1,0,,,,,,300000,,,,,,,
333120,note_on,160,0,1,,,,,,,,,0,,,78,0
333120,note_on,0,0,1,,,,,,,,,0,,,79,63
333280,note_on,160,0,1,,,,,,,,,0,,,79,0
333280,note_on,0,0,1,,,,,,,,,0,,,78,60
333440,note_on,160,0,1,,,,,,,,,0,,,78,0
333440,note_on,0,0,1,,,,,,,,,0,,,79,57
333600,note_on,160,0,1,,,,,,,,,0,,,79,0
333600,note_on,0,0,1,,,,,,,,,0,,,80,54
333760,note_on,160,0,1,,,,,,,,,0,,,80,0
333760,note_on,0,0,1,,,,,,,,,0,,,79,54
333920,note_on,0,0,1,,,,,,,,,0,,,80,54
333920,note_on,160,0,1,,,,,,,,,0,,,79,0
334080,set_tempo,960,1,0,,,,,,305344,,,,,,,
334080,note_on,0,0,1,,,,,,,,,0,,,79,54
334080,note_on,960,0,2,,,,,,,,,0,,,58,0
334080,note_on,0,0,2,,,,,,,,,0,,,49,53
334080,note_on,0,0,2,,,,,,,,,0,,,50,0
334080,note_on,160,0,1,,,,,,,,,0,,,80,0
334240,note_on,160,0,1,,,,,,,,,0,,,79,0
334240,note_on,0,0,1,,,,,,,,,0,,,78,54
334400,note_on,160,0,1,,,,,,,,,0,,,78,0
334400,note_on,0,0,1,,,,,,,,,0,,,79,55
334560,note_on,160,0,1,,,,,,,,,0,,,79,0
334560,note_on,0,0,1,,,,,,,,,0,,,80,56
334560,note_on,480,0,2,,,,,,,,,0,,,51,38
334560,note_on,0,0,2,,,,,,,,,0,,,58,43
334560,set_tempo,480,1,0,,,,,,300000,,,,,,,
334720,note_on,160,0,1,,,,,,,,,0,,,80,0
334720,note_on,0,0,1,,,,,,,,,0,,,79,55
334880,note_on,160,0,1,,,,,,,,,0,,,79,0
334880,note_on,0,0,1,,,,,,,,,0,,,80,55
335040,note_on,160,0,1,,,,,,,,,0,,,80,0
335040,note_on,0,0,1,,,,,,,,,0,,,82,59
335200,note_on,0,0,1,,,,,,,,,0,,,80,57
335200,note_on,160,0,1,,,,,,,,,0,,,82,0
335360,note_on,0,0,1,,,,,,,,,0,,,82,57
335360,note_on,160,0,1,,,,,,,,,0,,,80,0
335520,set_tempo,960,1,0,,,,,,306122,,,,,,,
335520,note_on,0,0,2,,,,,,,,,0,,,51,0
335520,note_on,0,0,1,,,,,,,,,0,,,80,63
335520,note_on,160,0,1,,,,,,,,,0,,,82,0
335520,note_on,960,0,2,,,,,,,,,0,,,58,0
335520,note_on,0,0,2,,,,,,,,,0,,,49,0
335520,note_on,0,0,2,,,,,,,,,0,,,48,63
335680,note_on,0,0,1,,,,,,,,,0,,,79,58
335680,note_on,160,0,1,,,,,,,,,0,,,80,0
335840,note_on,0,0,1,,,,,,,,,0,,,80,58
335840,note_on,160,0,1,,,,,,,,,0,,,79,0
336000,note_on,480,0,2,,,,,,,,,0,,,51,36
336000,set_tempo,480,1,0,,,,,,300000,,,,,,,
336000,note_on,160,0,1,,,,,,,,,0,,,80,0
336000,note_on,0,0,2,,,,,,,,,0,,,56,41
336000,note_on,0,0,1,,,,,,,,,0,,,82,65
336160,note_on,0,0,1,,,,,,,,,0,,,80,61
336160,note_on,160,0,1,,,,,,,,,0,,,82,0
336320,note_on,160,0,1,,,,,,,,,0,,,80,0
336320,note_on,0,0,1,,,,,,,,,0,,,82,57
336480,note_on,160,0,1,,,,,,,,,0,,,82,0
336480,note_on,0,0,1,,,,,,,,,0,,,84,68
336640,note_on,160,0,1,,,,,,,,,0,,,84,0
336640,note_on,0,0,1,,,,,,,,,0,,,83,64
336800,note_on,160,0,1,,,,,,,,,0,,,83,0
336800,note_on,0,0,1,,,,,,,,,0,,,84,59
336960,note_on,0,0,2,,,,,,,,,0,,,51,0
336960,set_tempo,960,1,0,,,,,,305344,,,,,,,
336960,note_on,160,0,1,,,,,,,,,0,,,84,0
336960,note_on,960,0,2,,,,,,,,,0,,,56,0
336960,note_on,0,0,2,,,,,,,,,0,,,48,67
336960,note_on,0,0,2,,,,,,,,,0,,,48,0
336960,note_on,0,0,1,,,,,,,,,0,,,86,72
337120,note_on,0,0,1,,,,,,,,,0,,,85,67
337120,note_on,160,0,1,,,,,,,,,0,,,86,0
337280,note_on,0,0,1,,,,,,,,,0,,,86,64
337280,note_on,160,0,1,,,,,,,,,0,,,85,0
337440,set_tempo,480,1,0,,,,,,300000,,,,,,,
337440,note_on,0,0,2,,,,,,,,,0,,,57,42
337440,note_on,0,0,1,,,,,,,,,0,,,88,74
337440,note_on,160,0,1,,,,,,,,,0,,,86,0
337440,note_on,480,0,2,,,,,,,,,0,,,50,37
337600,note_on,0,0,1,,,,,,,,,0,,,86,71
337600,note_on,160,0,1,,,,,,,,,0,,,88,0
337760,note_on,0,0,1,,,,,,,,,0,,,88,67
337760,note_on,160,0,1,,,,,,,,,0,,,86,0
337920,note_on,0,0,1,,,,,,,,,0,,,90,77
337920,note_on,160,0,1,,,,,,,,,0,,,88,0
338080,note_on,160,0,1,,,,,,,,,0,,,90,0
338080,note_on,0,0,1,,,,,,,,,0,,,88,73
338240,note_on,160,0,1,,,,,,,,,0,,,88,0
338240,note_on,0,0,1,,,,,,,,,0,,,90,71
338400,note_on,960,0,2,,,,,,,,,0,,,57,0
338400,note_on,0,0,2,,,,,,,,,0,,,50,0
338400,note_on,0,0,2,,,,,,,,,0,,,47,71
338400,note_on,0,0,2,,,,,,,,,0,,,48,0
338400,set_tempo,960,1,0,,,,,,306905,,,,,,,
338400,note_on,160,0,1,,,,,,,,,0,,,90,0
338400,note_on,0,0,1,,,,,,,,,0,,,91,81
338560,note_on,0,0,1,,,,,,,,,0,,,90,77
338560,note_on,160,0,1,,,,,,,,,0,,,91,0
338720,note_on,160,0,1,,,,,,,,,0,,,90,0
338720,note_on,0,0,1,,,,,,,,,0,,,91,70
338880,set_tempo,480,1,0,,,,,,300000,,,,,,,
338880,note_on,480,0,2,,,,,,,,,0,,,50,41
338880,note_on,160,0,1,,,,,,,,,0,,,91,0
338880,note_on,0,0,1,,,,,,,,,0,,,93,83
338880,note_on,0,0,2,,,,,,,,,0,,,55,46
339040,note_on,160,0,1,,,,,,,,,0,,,93,0
339040,note_on,0,0,1,,,,,,,,,0,,,91,79
339200,note_on,160,0,1,,,,,,,,,0,,,91,0
339200,note_on,0,0,1,,,,,,,,,0,,,93,74
339360,note_on,160,0,1,,,,,,,,,0,,,93,0
339360,note_on,0,0,1,,,,,,,,,0,,,95,86
339520,note_on,160,0,1,,,,,,,,,0,,,95,0
339520,note_on,0,0,1,,,,,,,,,0,,,93,79
339680,note_on,0,0,1,,,,,,,,,0,,,95,73
339680,note_on,160,0,1,,,,,,,,,0,,,93,0
339840,set_tempo,960,1,0,,,,,,309278,,,,,,,
339840,note_on,0,0,1,,,,,,,,,0,,,96,90
339840,note_on,160,0,1,,,,,,,,,0,,,95,0
339840,note_on,960,0,2,,,,,,,,,0,,,55,0
339840,note_on,0,0,2,,,,,,,,,0,,,50,0
339840,note_on,0,0,2,,,,,,,,,0,,,46,72
339840,note_on,0,0,2,,,,,,,,,0,,,47,0
340000,note_on,0,0,1,,,,,,,,,0,,,95,84
340000,note_on,160,0,1,,,,,,,,,0,,,96,0
340160,note_on,0,0,1,,,,,,,,,0,,,96,77
340160,note_on,160,0,1,,,,,,,,,0,,,95,0
340320,note_on,0,0,2,,,,,,,,,0,,,55,48
340320,note_on,480,0,2,,,,,,,,,0,,,48,43
340320,note_on,0,0,1,,,,,,,,,0,,,98,90
340320,note_on,160,0,1,,,,,,,,,0,,,96,0
340320,set_tempo,480,1,0,,,,,,300000,,,,,,,
340480,note_on,160,0,1,,,,,,,,,0,,,98,0
340480,note_on,0,0,1,,,,,,,,,0,,,96,85
340640,note_on,160,0,1,,,,,,,,,0,,,96,0
340640,note_on,0,0,1,,,,,,,,,0,,,98,79
340800,note_on,160,0,1,,,,,,,,,0,,,98,0
340800,note_on,0,0,1,,,,,,,,,0,,,100,90
340960,note_on,0,0,1,,,,,,,,,0,,,98,85
340960,note_on,160,0,1,,,,,,,,,0,,,100,0
341120,note_on,0,0,1,,,,,,,,,0,,,100,78
341120,note_on,160,0,1,,,,,,,,,0,,,98,0
341280,note_on,0,0,1,,,,,,,,,0,,,101,90
341280,note_on,160,0,1,,,,,,,,,0,,,100,0
341280,set_tempo,960,1,0,,,,,,315789,,,,,,,
341280,note_on,0,0,2,,,,,,,,,0,,,44,76
341280,note_on,0,0,2,,,,,,,,,0,,,48,0
341280,note_on,0,0,2,,,,,,,,,0,,,46,0
341280,note_on,960,0,2,,,,,,,,,0,,,55,0
341440,note_on,160,0,1,,,,,,,,,0,,,101,0
341440,note_on,0,0,1,,,,,,,,,0,,,99,84
341600,note_on,0,0,1,,,,,,,,,0,,,97,78
341600,note_on,160,0,1,,,,,,,,,0,,,99,0
341760,set_tempo,480,1,0,,,,,,300000,,,,,,,
341760,note_on,0,0,2,,,,,,,,,0,,,53,47
341760,note_on,0,0,1,,,,,,,,,0,,,96,90
341760,note_on,480,0,2,,,,,,,,,0,,,48,42
341760,note_on,160,0,1,,,,,,,,,0,,,97,0
341920,note_on,160,0,1,,,,,,,,,0,,,96,0
341920,note_on,0,0,1,,,,,,,,,0,,,94,85
342080,note_on,160,0,1,,,,,,,,,0,,,94,0
342080,note_on,0,0,1,,,,,,,,,0,,,92,78
342240,note_on,0,0,1,,,,,,,,,0,,,91,90
342240,note_on,160,0,1,,,,,,,,,0,,,92,0
342400,note_on,0,0,1,,,,,,,,,0,,,89,85
342400,note_on,160,0,1,,,,,,,,,0,,,91,0
342560,note_on,0,0,1,,,,,,,,,0,,,87,81
342560,note_on,160,0,1,,,,,,,,,0,,,89,0
342720,note_on,0,0,2,,,,,,,,,0,,,48,0
342720,note_on,160,0,1,,,,,,,,,0,,,87,0
342720,note_on,0,0,1,,,,,,,,,0,,,86,90
342720,set_tempo,960,1,0,,,,,,306122,,,,,,,
342720,note_on,0,0,2,,,,,,,,,0,,,46,76
342720,note_on,0,0,2,,,,,,,,,0,,,44,0
342720,note_on,960,0,2,,,,,,,,,0,,,53,0
342880,note_on,0,0,1,,,,,,,,,0,,,84,85
342880,note_on,160,0,1,,,,,,,,,0,,,86,0
343040,note_on,0,0,1,,,,,,,,,0,,,82,78
343040,note_on,160,0,1,,,,,,,,,0,,,84,0
343200,note_on,480,0,2,,,,,,,,,0,,,56,45
343200,note_on,0,0,2,,,,,,,,,0,,,53,40
343200,set_tempo,480,1,0,,,,,,300000,,,,,,,
343200,note_on,0,0,1,,,,,,,,,0,,,81,90
343200,note_on,160,0,1,,,,,,,,,0,,,82,0
343360,note_on,160,0,1,,,,,,,,,0,,,81,0
343360,note_on,0,0,1,,,,,,,,,0,,,82,85
343520,note_on,160,0,1,,,,,,,,,0,,,82,0
343520,note_on,0,0,1,,,,,,,,,0,,,84,80
343680,note_on,160,0,1,,,,,,,,,0,,,84,0
343680,note_on,0,0,1,,,,,,,,,0,,,86,90
343840,note_on,160,0,1,,,,,,,,,0,,,86,0
343840,note_on,0,0,1,,,,,,,,,0,,,87,85
344000,note_on,160,0,1,,,,,,,,,0,,,87,0
344000,note_on,0,0,1,,,,,,,,,0,,,89,80
344160,set_tempo,960,1,0,,,,,,334262,,,,,,,
344160,note_on,160,0,1,,,,,,,,,0,,,89,0
344160,note_on,0,0,1,,,,,,,,,0,,,90,99
344160,note_on,0,0,2,,,,,,,,,0,,,56,0
344160,note_on,960,0,2,,,,,,,,,0,,,53,0
344160,note_on,0,0,2,,,,,,,,,0,,,46,0
344160,note_on,0,0,2,,,,,,,,,0,,,51,80
344320,note_on,0,0,1,,,,,,,,,0,,,94,86
344320,note_on,160,0,1,,,,,,,,,0,,,90,0
344480,note_on,0,0,1,,,,,,,,,0,,,92,81
344480,note_on,160,0,1,,,,,,,,,0,,,94,0
344640,note_on,0,0,1,,,,,,,,,0,,,90,90
344640,note_on,480,0,2,,,,,,,,,0,,,63,63
344640,note_on,160,0,1,,,,,,,,,0,,,92,0
344648,set_tempo,488,1,0,,,,,,300000,,,,,,,
344800,note_on,160,0,1,,,,,,,,,0,,,90,0
344800,note_on,0,0,1,,,,,,,,,0,,,89,87
344960,note_on,160,0,1,,,,,,,,,0,,,89,0
344960,note_on,0,0,1,,,,,,,,,0,,,87,82
345120,note_on,160,0,1,,,,,,,,,0,,,87,0
345120,note_on,0,0,1,,,,,,,,,0,,,85,90
345280,note_on,0,0,1,,,,,,,,,0,,,83,86
345280,note_on,160,0,1,,,,,,,,,0,,,85,0
345440,note_on,0,0,1,,,,,,,,,0,,,82,82
345440,note_on,160,0,1,,,,,,,,,0,,,83,0
345600,note_on,0,0,1,,,,,,,,,0,,,83,99
345600,set_tempo,952,1,0,,,,,,334262,,,,,,,
345600,note_on,960,0,2,,,,,,,,,0,,,63,0
345600,note_on,0,0,2,,,,,,,,,0,,,51,0
345600,note_on,0,0,2,,,,,,,,,0,,,44,80
345600,note_on,160,0,1,,,,,,,,,0,,,82,0
345760,note_on,160,0,1,,,,,,,,,0,,,83,0
345760,note_on,0,0,1,,,,,,,,,0,,,87,86
345920,note_on,160,0,1,,,,,,,,,0,,,87,0
345920,note_on,0,0,1,,,,,,,,,0,,,85,84
346080,note_on,480,0,2,,,,,,,,,0,,,56,63
346080,note_on,160,0,1,,,,,,,,,0,,,85,0
346080,note_on,0,0,1,,,,,,,,,0,,,83,90
346088,set_tempo,488,1,0,,,,,,300000,,,,,,,
346240,note_on,160,0,1,,,,,,,,,0,,,83,0
346240,note_on,0,0,1,,,,,,,,,0,,,82,86
346400,note_on,160,0,1,,,,,,,,,0,,,82,0
346400,note_on,0,0,1,,,,,,,,,0,,,80,83
346560,note_on,160,0,1,,,,,,,,,0,,,80,0
346560,note_on,0,0,1,,,,,,,,,0,,,78,90
346720,note_on,0,0,1,,,,,,,,,0,,,77,86
346720,note_on,160,0,1,,,,,,,,,0,,,78,0
346880,note_on,0,0,1,,,,,,,,,0,,,75,82
346880,note_on,160,0,1,,,,,,,,,0,,,77,0
347040,note_on,160,0,1,,,,,,,,,0,,,75,0
347040,note_on,0,0,2,,,,,,,,,0,,,46,81
347040,note_on,0,0,1,,,,,,,,,0,,,74,99
347040,note_on,960,0,2,,,,,,,,,0,,,56,0
347040,note_on,0,0,2,,,,,,,,,0,,,44,0
347040,set_tempo,952,1,0,,,,,,333333,,,,,,,
347200,note_on,160,0,1,,,,,,,,,0,,,74,0
347200,note_on,0,0,1,,,,,,,,,0,,,77,85
347360,note_on,160,0,1,,,,,,,,,0,,,77,0
347360,note_on,0,0,1,,,,,,,,,0,,,75,81
347520,set_tempo,480,1,0,,,,,,300000,,,,,,,
347520,note_on,0,0,1,,,,,,,,,0,,,74,90
347520,note_on,160,0,1,,,,,,,,,0,,,75,0
347520,note_on,480,0,2,,,,,,,,,0,,,58,63
347680,note_on,0,0,1,,,,,,,,,0,,,71,86
347680,note_on,160,0,1,,,,,,,,,0,,,74,0
347840,note_on,0,0,1,,,,,,,,,0,,,70,83
347840,note_on,160,0,1,,,,,,,,,0,,,71,0
348000,note_on,160,0,1,,,,,,,,,0,,,70,0
348000,note_on,0,0,1,,,,,,,,,0,,,68,90
348160,note_on,160,0,1,,,,,,,,,0,,,68,0
348160,note_on,0,0,1,,,,,,,,,0,,,66,85
348320,note_on,160,0,1,,,,,,,,,0,,,66,0
348320,note_on,0,0,1,,,,,,,,,0,,,65,82
348480,note_on,0,0,2,,,,,,,,,0,,,39,80
348480,set_tempo,960,1,0,,,,,,342857,,,,,,,
348480,note_on,0,0,2,,,,,,,,,0,,,46,0
348480,note_on,960,0,2,,,,,,,,,0,,,58,0
348480,note_on,0,0,1,,,,,,,,,0,,,78,99
348480,note_on,160,0,1,,,,,,,,,0,,,65,0
348640,note_on,0,0,1,,,,,,,,,0,,,82,85
348640,note_on,160,0,1,,,,,,,,,0,,,78,0
348800,note_on,160,0,1,,,,,,,,,0,,,82,0
348800,note_on,0,0,1,,,,,,,,,0,,,80,82
348960,set_tempo,480,1,0,,,,,,300000,,,,,,,
348960,note_on,480,0,2,,,,,,,,,0,,,51,59
348960,note_on,0,0,1,,,,,,,,,0,,,78,90
348960,note_on,160,0,1,,,,,,,,,0,,,80,0
349120,note_on,0,0,1,,,,,,,,,0,,,77,84
349120,note_on,160,0,1,,,,,,,,,0,,,78,0
349280,note_on,160,0,1,,,,,,,,,0,,,77,0
349280,note_on,0,0,1,,,,,,,,,0,,,75,82
349440,note_on,160,0,1,,,,,,,,,0,,,75,0
349440,note_on,0,0,1,,,,,,,,,0,,,73,90
349600,note_on,0,0,1,,,,,,,,,0,,,71,86
349600,note_on,160,0,1,,,,,,,,,0,,,73,0
349760,note_on,0,0,1,,,,,,,,,0,,,70,81
349760,note_on,160,0,1,,,,,,,,,0,,,71,0
349920,note_on,0,0,1,,,,,,,,,0,,,71,99
349920,set_tempo,960,1,0,,,,,,362538,,,,,,,
349920,note_on,960,0,2,,,,,,,,,0,,,51,0
349920,note_on,0,0,2,,,,,,,,,0,,,39,0
349920,note_on,0,0,2,,,,,,,,,0,,,32,88
349920,note_on,160,0,1,,,,,,,,,0,,,70,0
350080,note_on,160,0,1,,,,,,,,,0,,,71,0
350080,note_on,0,0,1,,,,,,,,,0,,,75,86
350240,note_on,160,0,1,,,,,,,,,0,,,75,0
350240,note_on,0,0,1,,,,,,,,,0,,,73,82
350400,note_on,480,0,2,,,,,,,,,0,,,44,64
350400,note_on,160,0,1,,,,,,,,,0,,,73,0
350400,note_on,0,0,1,,,,,,,,,0,,,71,90
350400,set_tempo,480,1,0,,,,,,300000,,,,,,,
350560,note_on,0,0,1,,,,,,,,,0,,,70,86
350560,note_on,160,0,1,,,,,,,,,0,,,71,0
350720,note_on,0,0,1,,,,,,,,,0,,,68,82
350720,note_on,160,0,1,,,,,,,,,0,,,70,0
350880,note_on,0,0,1,,,,,,,,,0,,,66,90
350880,note_on,160,0,1,,,,,,,,,0,,,68,0
351040,note_on,0,0,1,,,,,,,,,0,,,65,86
351040,note_on,160,0,1,,,,,,,,,0,,,66,0
351200,note_on,160,0,1,,,,,,,,,0,,,65,0
351200,note_on,0,0,1,,,,,,,,,0,,,63,82
351360,note_on,0,0,2,,,,,,,,,0,,,34,85
351360,set_tempo,960,1,0,,,,,,333333,,,,,,,
351360,note_on,160,0,1,,,,,,,,,0,,,63,0
351360,note_on,0,0,1,,,,,,,,,0,,,62,99
351360,note_on,0,0,2,,,,,,,,,0,,,32,0
351360,note_on,960,0,2,,,,,,,,,0,,,44,0
351520,note_on,160,0,1,,,,,,,,,0,,,62,0
351520,note_on,0,0,1,,,,,,,,,0,,,65,86
351680,note_on,160,0,1,,,,,,,,,0,,,65,0
351680,note_on,0,0,1,,,,,,,,,0,,,63,81
351840,note_on,0,0,1,,,,,,,,,0,,,62,90
351840,note_on,160,0,1,,,,,,,,,0,,,63,0
351840,note_on,480,0,2,,,,,,,,,0,,,46,64
351840,set_tempo,480,1,0,,,,,,300000,,,,,,,
352000,note_on,0,0,1,,,,,,,,,0,,,59,86
352000,note_on,160,0,1,,,,,,,,,0,,,62,0
352160,note_on,0,0,1,,,,,,,,,0,,,58,81
352160,note_on,160,0,1,,,,,,,,,0,,,59,0
352320,note_on,0,0,1,,,,,,,,,0,,,56,90
352320,note_on,160,0,1,,,,,,,,,0,,,58,0
352480,note_on,160,0,1,,,,,,,,,0,,,56,0
352480,note_on,0,0,1,,,,,,,,,0,,,54,86
352640,note_on,0,0,1,,,,,,,,,0,,,53,82
352640,note_on,160,0,1,,,,,,,,,0,,,54,0
352800,note_on,160,0,1,,,,,,,,,0,,,53,0
352800,note_on,960,0,2,,,,,,,,,0,,,46,0
352800,note_on,0,0,2,,,,,,,,,0,,,34,0
352800,note_on,0,0,2,,,,,,,,,0,,,39,72
352800,note_on,0,0,1,,,,,,,,,0,,,51,90
352960,note_on,0,0,1,,,,,,,,,0,,,53,86
352960,note_on,160,0,1,,,,,,,,,0,,,51,0
353120,note_on,160,0,1,,,,,,,,,0,,,53,0
353120,note_on,0,0,1,,,,,,,,,0,,,54,81
353280,note_on,0,0,2,,,,,,,,,0,,,46,81
353280,note_on,160,0,1,,,,,,,,,0,,,54,0
353280,note_on,0,0,1,,,,,,,,,0,,,56,99
353280,note_on,0,0,2,,,,,,,,,0,,,50,90
353280,note_on,480,0,2,,,,,,,,,0,,,39,0
353288,set_tempo,1448,1,0,,,,,,333333,,,,,,,
353440,note_on,160,0,1,,,,,,,,,0,,,56,0
353440,note_on,0,0,1,,,,,,,,,0,,,59,87
353600,note_on,0,0,1,,,,,,,,,0,,,58,83
353600,note_on,160,0,1,,,,,,,,,0,,,59,0
353760,note_on,160,0,1,,,,,,,,,0,,,58,0
353760,note_on,0,0,1,,,,,,,,,0,,,56,90
353920,note_on,160,0,1,,,,,,,,,0,,,56,0
353920,note_on,0,0,1,,,,,,,,,0,,,54,85
354080,note_on,0,0,1,,,,,,,,,0,,,53,81
354080,note_on,160,0,1,,,,,,,,,0,,,54,0
354240,note_on,960,0,2,,,,,,,,,0,,,50,0
354240,note_on,0,0,2,,,,,,,,,0,,,46,0
354240,note_on,0,0,2,,,,,,,,,0,,,39,72
354240,note_on,0,0,1,,,,,,,,,0,,,51,90
354240,note_on,160,0,1,,,,,,,,,0,,,53,0
354248,set_tempo,960,1,0,,,,,,300000,,,,,,,
354400,note_on,160,0,1,,,,,,,,,0,,,51,0
354400,note_on,0,0,1,,,,,,,,,0,,,53,85
354480,note_on,240,0,2,,,,,,,,,0,,,39,0
354560,note_on,0,0,1,,,,,,,,,0,,,54,81
354560,note_on,160,0,1,,,,,,,,,0,,,53,0
354720,note_on,160,0,1,,,,,,,,,0,,,54,0
354720,note_on,0,0,1,,,,,,,,,0,,,56,99
354720,note_on,240,0,2,,,,,,,,,0,,,46,81
354720,note_on,0,0,2,,,,,,,,,0,,,50,90
354728,set_tempo,480,1,0,,,,,,333333,,,,,,,
354880,note_on,160,0,1,,,,,,,,,0,,,56,0
354880,note_on,0,0,1,,,,,,,,,0,,,59,86
355040,note_on,160,0,1,,,,,,,,,0,,,59,0
355040,note_on,0,0,1,,,,,,,,,0,,,58,81
355200,note_on,160,0,1,,,,,,,,,0,,,58,0
355200,note_on,0,0,1,,,,,,,,,0,,,56,90
355360,note_on,160,0,1,,,,,,,,,0,,,56,0
355360,note_on,0,0,1,,,,,,,,,0,,,54,86
355520,note_on,0,0,1,,,,,,,,,0,,,53,81
355520,note_on,160,0,1,,,,,,,,,0,,,54,0
355680,note_on,0,0,1,,,,,,,,,0,,,51,90
355680,set_tempo,952,1,0,,,,,,300752,,,,,,,
355680,note_on,160,0,1,,,,,,,,,0,,,53,0
355680,note_on,0,0,2,,,,,,,,,0,,,39,72
355680,note_on,960,0,2,,,,,,,,,0,,,50,0
355680,note_on,0,0,2,,,,,,,,,0,,,46,0
355840,note_on,0,0,1,,,,,,,,,0,,,53,86
355840,note_on,160,0,1,,,,,,,,,0,,,51,0
355920,note_on,240,0,2,,,,,,,,,0,,,39,0
356000,note_on,160,0,1,,,,,,,,,0,,,53,0
356000,note_on,0,0,1,,,,,,,,,0,,,54,81
356160,note_on,240,0,2,,,,,,,,,0,,,46,81
356160,note_on,0,0,2,,,,,,,,,0,,,50,90
356160,note_on,160,0,1,,,,,,,,,0,,,54,0
356160,note_on,0,0,1,,,,,,,,,0,,,56,99
356160,set_tempo,480,1,0,,,,,,333333,,,,,,,
356320,note_on,160,0,1,,,,,,,,,0,,,56,0
356320,note_on,0,0,1,,,,,,,,,0,,,59,86
356480,note_on,160,0,1,,,,,,,,,0,,,59,0
356480,note_on,0,0,1,,,,,,,,,0,,,58,79
356640,note_on,0,0,1,,,,,,,,,0,,,56,90
356640,note_on,160,0,1,,,,,,,,,0,,,58,0
356800,note_on,160,0,1,,,,,,,,,0,,,56,0
356800,note_on,0,0,1,,,,,,,,,0,,,54,86
356960,note_on,0,0,1,,,,,,,,,0,,,53,86
356960,note_on,160,0,1,,,,,,,,,0,,,54,0
357120,note_on,0,0,1,,,,,,,,,0,,,51,87
357120,note_on,0,0,2,,,,,,,,,0,,,46,0
357120,note_on,960,0,2,,,,,,,,,0,,,50,0
357120,set_tempo,960,1,0,,,,,,300000,,,,,,,
357120,note_on,160,0,1,,,,,,,,,0,,,53,0
357120,note_on,0,0,2,,,,,,,,,0,,,39,81
357280,note_on,0,0,1,,,,,,,,,0,,,53,89
357280,note_on,160,0,1,,,,,,,,,0,,,51,0
357280,note_on,160,0,2,,,,,,,,,0,,,39,0
357280,note_on,0,0,2,,,,,,,,,0,,,41,81
357440,note_on,0,0,1,,,,,,,,,0,,,54,92
357440,note_on,0,0,2,,,,,,,,,0,,,42,83
357440,note_on,160,0,2,,,,,,,,,0,,,41,0
357440,note_on,160,0,1,,,,,,,,,0,,,53,0
357600,note_on,160,0,1,,,,,,,,,0,,,54,0
357600,note_on,0,0,1,,,,,,,,,0,,,56,94
357600,note_on,0,0,2,,,,,,,,,0,,,44,85
357600,note_on,160,0,2,,,,,,,,,0,,,42,0
357760,note_on,160,0,1,,,,,,,,,0,,,56,0
357760,note_on,0,0,1,,,,,,,,,0,,,58,97
357760,note_on,0,0,2,,,,,,,,,0,,,46,87
357760,note_on,160,0,2,,,,,,,,,0,,,44,0
357920,note_on,160,0,2,,,,,,,,,0,,,46,0
357920,note_on,0,0,2,,,,,,,,,0,,,48,89
357920,note_on,160,0,1,,,,,,,,,0,,,58,0
357920,note_on,0,0,1,,,,,,,,,0,,,60,99
358080,note_on,160,0,2,,,,,,,,,0,,,48,0
358080,note_on,0,0,2,,,,,,,,,0,,,50,90
358080,note_on,160,0,1,,,,,,,,,0,,,60,0
358080,note_on,0,0,1,,,,,,,,,0,,,62,101
358240,note_on,0,0,2,,,,,,,,,0,,,51,92
358240,note_on,160,0,2,,,,,,,,,0,,,50,0
358240,note_on,160,0,1,,,,,,,,,0,,,62,0
358240,note_on,0,0,1,,,,,,,,,0,,,63,103
358400,note_on,160,0,2,,,,,,,,,0,,,51,0
358400,note_on,0,0,2,,,,,,,,,0,,,53,94
358400,note_on,0,0,1,,,,,,,,,0,,,65,105
358400,note_on,160,0,1,,,,,,,,,0,,,63,0
358560,note_on,160,0,1,,,,,,,,,0,,,65,0
358560,note_on,0,0,1,,,,,,,,,0,,,66,107
358560,note_on,0,0,2,,,,,,,,,0,,,54,96
358560,note_on,160,0,2,,,,,,,,,0,,,53,0
359520,note_on,960,0,2,,,,,,,,,0,,,54,0
359520,note_on,960,0,1,,,,,,,,,0,,,66,0
360000,note_on,480,0,1,,,,,,,,,0,,,58,97
360000,note_on,0,0,1,,,,,,,,,0,,,61,97
360000,note_on,0,0,1,,,,,,,,,0,,,66,97
360000,note_on,480,0,2,,,,,,,,,0,,,42,97
360000,note_on,0,0,2,,,,,,,,,0,,,54,108
360000,note_on,0,0,1,,,,,,,,,0,,,70,108
360960,note_on,0,0,1,,,,,,,,,0,,,66,0
360960,note_on,0,0,1,,,,,,,,,0,,,61,0
360960,note_on,0,0,2,,,,,,,,,0,,,42,0
360960,note_on,960,0,2,,,,,,,,,0,,,54,0
360960,set_tempo,3840,1,0,,,,,,361446,,,,,,,
360960,note_on,0,0,1,,,,,,,,,0,,,58,0
360960,note_on,960,0,1,,,,,,,,,0,,,70,0
361440,control_change,0,0,2,,,,,,,,,0,64,127,,
361440,note_on,480,0,2,,,,,,,,,0,,,35,73
361440,set_tempo,480,1,0,,,,,,333333,,,,,,,
361440,marker,0,1,0,,,,,,,,,,,,,
361440,note_on,480,0,1,,,,,,,,,0,,,71,108
361680,note_on,240,0,2,,,,,,,,,0,,,35,0
361920,note_on,480,0,1,,,,,,,,,0,,,59,90
361920,note_on,240,0,2,,,,,,,,,0,,,47,66
361920,note_on,0,0,2,,,,,,,,,0,,,50,66
361920,note_on,0,0,2,,,,,,,,,0,,,54,74
362080,note_on,160,0,1,,,,,,,,,0,,,59,0
362080,note_on,0,0,1,,,,,,,,,0,,,62,85
362240,note_on,160,0,1,,,,,,,,,0,,,62,0
362240,note_on,0,0,1,,,,,,,,,0,,,66,85
362400,note_on,160,0,1,,,,,,,,,0,,,66,0
362400,note_on,0,0,1,,,,,,,,,0,,,59,90
362752,control_change,832,0,2,,,,,,,,,0,64,0,,
362880,note_on,0,0,1,,,,,,,,,0,,,71,0
362880,note_on,0,0,1,,,,,,,,,0,,,71,109
362880,note_on,480,0,1,,,,,,,,,0,,,59,0
362880,note_on,0,0,2,,,,,,,,,0,,,47,0
362880,note_on,0,0,2,,,,,,,,,0,,,50,0
362880,note_on,128,0,2,,,,,,,,,0,,,54,0
362880,note_on,0,0,2,,,,,,,,,0,,,35,75
362888,control_change,8,0,2,,,,,,,,,0,64,127,,
363120,note_on,232,0,2,,,,,,,,,0,,,35,0
363360,note_on,480,0,1,,,,,,,,,0,,,59,90
363360,note_on,240,0,2,,,,,,,,,0,,,47,64
363360,note_on,0,0,2,,,,,,,,,0,,,55,72
363360,note_on,0,0,2,,,,,,,,,0,,,52,64
363360,note_on,0,0,2,,,,,,,,,0,,,49,64
363520,note_on,0,0,1,,,,,,,,,0,,,61,86
363520,note_on,160,0,1,,,,,,,,,0,,,59,0
363680,note_on,0,0,1,,,,,,,,,0,,,67,86
363680,note_on,160,0,1,,,,,,,,,0,,,61,0
363840,note_on,160,0,1,,,,,,,,,0,,,67,0
363840,note_on,0,0,1,,,,,,,,,0,,,59,90
364272,control_change,912,0,2,,,,,,,,,0,64,0,,
364320,note_on,0,0,1,,,,,,,,,0,,,71,0
364320,note_on,48,0,2,,,,,,,,,0,,,55,0
364320,note_on,0,0,2,,,,,,,,,0,,,49,0
364320,note_on,0,0,2,,,,,,,,,0,,,52,0
364320,note_on,0,0,1,,,,,,,,,0,,,71,99
364320,note_on,0,0,2,,,,,,,,,0,,,47,0
364320,set_tempo,2880,1,0,,,,,,316623,,,,,,,
364320,note_on,0,0,2,,,,,,,,,0,,,50,81
364320,note_on,480,0,1,,,,,,,,,0,,,59,0
364326,control_change,6,0,2,,,,,,,,,0,64,125,,
364560,note_on,0,0,1,,,,,,,,,0,,,66,90
364560,note_on,240,0,1,,,,,,,,,0,,,62,81
364560,note_on,0,0,2,,,,,,,,,0,,,59,73
364560,note_on,234,0,2,,,,,,,,,0,,,54,65
364709,control_change,149,0,2,,,,,,,,,0,64,0,,
364787,control_change,78,0,2,,,,,,,,,0,64,125,,
364800,note_on,0,0,1,,,,,,,,,0,,,73,107
364800,note_on,0,0,1,,,,,,,,,0,,,71,0
364800,note_on,0,0,1,,,,,,,,,0,,,62,0
364800,note_on,0,0,2,,,,,,,,,0,,,50,0
364800,note_on,13,0,2,,,,,,,,,0,,,59,0
364800,note_on,240,0,1,,,,,,,,,0,,,66,0
364800,note_on,0,0,2,,,,,,,,,0,,,49,89
364800,note_on,0,0,2,,,,,,,,,0,,,54,0
365040,note_on,240,0,1,,,,,,,,,0,,,64,88
365040,note_on,0,0,2,,,,,,,,,0,,,58,77
365040,note_on,240,0,2,,,,,,,,,0,,,54,69
365040,note_on,0,0,1,,,,,,,,,0,,,66,98
365228,control_change,188,0,2,,,,,,,,,0,64,0,,
365280,note_on,0,0,2,,,,,,,,,0,,,54,0
365280,note_on,0,0,2,,,,,,,,,0,,,49,0
365280,note_on,0,0,2,,,,,,,,,0,,,47,81
365280,control_change,0,0,2,,,,,,,,,0,64,125,,
365280,note_on,240,0,1,,,,,,,,,0,,,66,0
365280,note_on,0,0,1,,,,,,,,,0,,,64,0
365280,note_on,0,0,1,,,,,,,,,0,,,73,0
365280,note_on,0,0,1,,,,,,,,,0,,,74,99
365280,note_on,52,0,2,,,,,,,,,0,,,58,0
365520,note_on,0,0,1,,,,,,,,,0,,,66,90
365520,note_on,240,0,2,,,,,,,,,0,,,54,64
365520,note_on,0,0,2,,,,,,,,,0,,,59,72
365520,note_on,240,0,1,,,,,,,,,0,,,62,81
365611,control_change,91,0,2,,,,,,,,,0,64,0,,
365760,note_on,149,0,2,,,,,,,,,0,,,59,0
365760,note_on,0,0,2,,,,,,,,,0,,,54,0
365760,note_on,0,0,2,,,,,,,,,0,,,47,0
365760,note_on,0,0,2,,,,,,,,,0,,,42,80
365760,control_change,0,0,2,,,,,,,,,0,64,126,,
365760,note_on,240,0,1,,,,,,,,,0,,,66,0
365760,note_on,0,0,1,,,,,,,,,0,,,62,0
365760,note_on,0,0,1,,,,,,,,,0,,,73,98
365760,note_on,0,0,1,,,,,,,,,0,,,74,0
365760,set_tempo,1440,1,0,,,,,,333333,,,,,,,
366240,note_on,0,0,2,,,,,,,,,0,,,54,64
366240,note_on,480,0,2,,,,,,,,,0,,,42,0
366240,note_on,480,0,1,,,,,,,,,0,,,61,90
366240,note_on,0,0,2,,,,,,,,,0,,,58,72
366400,note_on,160,0,1,,,,,,,,,0,,,61,0
366400,note_on,0,0,1,,,,,,,,,0,,,66,85
366560,note_on,160,0,1,,,,,,,,,0,,,66,0
366560,note_on,0,0,1,,,,,,,,,0,,,70,85
366720,note_on,160,0,1,,,,,,,,,0,,,70,0
366720,set_tempo,960,1,0,,,,,,351906,,,,,,,
366720,note_on,0,0,1,,,,,,,,,0,,,61,90
367120,control_change,880,0,2,,,,,,,,,0,64,0,,
367200,note_on,0,0,2,,,,,,,,,0,,,54,0
367200,note_on,80,0,2,,,,,,,,,0,,,58,0
367200,note_on,0,0,2,,,,,,,,,0,,,46,89
367200,control_change,0,0,2,,,,,,,,,0,64,126,,
367200,note_on,0,0,1,,,,,,,,,0,,,73,0
367200,set_tempo,480,1,0,,,,,,333333,,,,,,,
367200,note_on,480,0,1,,,,,,,,,0,,,61,0
367200,note_on,0,0,1,,,,,,,,,0,,,74,98
367680,note_on,480,0,1,,,,,,,,,0,,,62,90
367680,note_on,0,0,2,,,,,,,,,0,,,56,64
367680,note_on,0,0,2,,,,,,,,,0,,,53,64
367680,note_on,0,0,2,,,,,,,,,0,,,58,72
367680,note_on,480,0,2,,,,,,,,,0,,,46,0
367840,note_on,160,0,1,,,,,,,,,0,,,62,0
367840,note_on,0,0,1,,,,,,,,,0,,,65,85
368000,note_on,160,0,1,,,,,,,,,0,,,65,0
368000,note_on,0,0,1,,,,,,,,,0,,,70,85
368160,note_on,0,0,1,,,,,,,,,0,,,62,90
368160,note_on,160,0,1,,,,,,,,,0,,,70,0
368560,control_change,880,0,2,,,,,,,,,0,64,0,,
368640,set_tempo,1440,1,0,,,,,,333333,,,,,,,
368640,control_change,0,0,2,,,,,,,,,0,64,125,,
368640,note_on,480,0,1,,,,,,,,,0,,,62,0
368640,note_on,0,0,1,,,,,,,,,0,,,74,0
368640,note_on,0,0,1,,,,,,,,,0,,,75,98
368640,note_on,80,0,2,,,,,,,,,0,,,58,0
368640,note_on,0,0,2,,,,,,,,,0,,,56,0
368640,note_on,0,0,2,,,,,,,,,0,,,53,0
368640,note_on,0,0,2,,,,,,,,,0,,,39,89
369120,note_on,480,0,1,,,,,,,,,0,,,63,90
369120,note_on,0,0,2,,,,,,,,,0,,,58,72
369120,note_on,0,0,2,,,,,,,,,0,,,54,64
369120,note_on,480,0,2,,,,,,,,,0,,,39,0
369120,note_on,0,0,2,,,,,,,,,0,,,51,64
369280,note_on,0,0,1,,,,,,,,,0,,,66,85
369280,note_on,160,0,1,,,,,,,,,0,,,63,0
369440,note_on,0,0,1,,,,,,,,,0,,,70,85
369440,note_on,160,0,1,,,,,,,,,0,,,66,0
369600,note_on,160,0,1,,,,,,,,,0,,,70,0
369600,note_on,0,0,1,,,,,,,,,0,,,63,90
370000,control_change,880,0,2,,,,,,,,,0,64,0,,
370072,control_change,72,0,2,,,,,,,,,0,64,126,,
370080,note_on,0,0,1,,,,,,,,,0,,,65,90
370080,note_on,0,0,2,,,,,,,,,0,,,46,72
370080,note_on,0,0,1,,,,,,,,,0,,,75,0
370080,note_on,0,0,2,,,,,,,,,0,,,51,0
370080,note_on,0,0,2,,,,,,,,,0,,,54,0
370080,note_on,480,0,1,,,,,,,,,0,,,63,0
370080,note_on,8,0,2,,,,,,,,,0,,,58,0
370088,set_tempo,1448,1,0,,,,,,315789,,,,,,,
370320,note_on,0,0,1,,,,,,,,,0,,,77,86
370320,note_on,240,0,1,,,,,,,,,0,,,65,0
370560,note_on,240,0,1,,,,,,,,,0,,,77,0
370560,note_on,0,0,1,,,,,,,,,0,,,66,90
370560,note_on,480,0,2,,,,,,,,,0,,,46,0
370560,note_on,0,0,2,,,,,,,,,0,,,56,64
370560,note_on,0,0,2,,,,,,,,,0,,,62,72
370560,note_on,0,0,2,,,,,,,,,0,,,58,64
370800,note_on,240,0,1,,,,,,,,,0,,,66,0
370800,note_on,0,0,1,,,,,,,,,0,,,78,86
371040,note_on,0,0,1,,,,,,,,,0,,,65,90
371040,note_on,240,0,1,,,,,,,,,0,,,78,0
371040,note_on,480,0,2,,,,,,,,,0,,,58,0
371040,note_on,0,0,2,,,,,,,,,0,,,56,0
371040,note_on,0,0,2,,,,,,,,,0,,,46,72
371040,note_on,0,0,2,,,,,,,,,0,,,62,0
371280,note_on,240,0,1,,,,,,,,,0,,,65,0
371280,note_on,0,0,1,,,,,,,,,0,,,77,86
371456,control_change,416,0,2,,,,,,,,,0,64,0,,
371520,note_on,0,0,1,,,,,,,,,0,,,75,90
371520,note_on,240,0,1,,,,,,,,,0,,,77,0
371520,control_change,0,0,2,,,,,,,,,0,64,127,,
371520,note_on,0,0,2,,,,,,,,,0,,,51,90
371520,note_on,64,0,2,,,,,,,,,0,,,46,0
371528,set_tempo,1440,1,0,,,,,,333333,,,,,,,
372000,note_on,0,0,2,,,,,,,,,0,,,54,64
372000,note_on,480,0,2,,,,,,,,,0,,,51,0
372000,note_on,480,0,1,,,,,,,,,0,,,63,72
372000,note_on,0,0,2,,,,,,,,,0,,,58,72
372160,note_on,0,0,1,,,,,,,,,0,,,66,68
372160,note_on,160,0,1,,,,,,,,,0,,,63,0
372320,note_on,0,0,1,,,,,,,,,0,,,70,69
372320,note_on,160,0,1,,,,,,,,,0,,,66,0
372480,note_on,160,0,1,,,,,,,,,0,,,70,0
372480,note_on,0,0,1,,,,,,,,,0,,,63,72
372480,set_tempo,952,1,0,,,,,,388350,,,,,,,
372840,control_change,840,0,2,,,,,,,,,0,64,0,,
372960,note_on,120,0,2,,,,,,,,,0,,,54,0
372960,control_change,0,0,2,,,,,,,,,0,64,127,,
372960,note_on,0,0,2,,,,,,,,,0,,,35,92
372960,note_on,0,0,2,,,,,,,,,0,,,58,0
372960,note_on,0,0,1,,,,,,,,,0,,,83,107
372960,note_on,0,0,1,,,,,,,,,0,,,75,0
372960,note_on,480,0,1,,,,,,,,,0,,,63,0
372960,set_tempo,480,1,0,,,,,,333333,,,,,,,
373440,note_on,480,0,2,,,,,,,,,0,,,35,0
373440,note_on,480,0,1,,,,,,,,,0,,,71,89
373440,note_on,0,0,2,,,,,,,,,0,,,54,88
373440,note_on,0,0,2,,,,,,,,,0,,,50,79
373440,note_on,0,0,2,,,,,,,,,0,,,47,79
373600,note_on,0,0,1,,,,,,,,,0,,,74,84
373600,note_on,160,0,1,,,,,,,,,0,,,71,0
373760,note_on,0,0,1,,,,,,,,,0,,,78,84
373760,note_on,160,0,1,,,,,,,,,0,,,74,0
373920,set_tempo,960,1,0,,,,,,344828,,,,,,,
373920,note_on,160,0,1,,,,,,,,,0,,,78,0
373920,note_on,0,0,1,,,,,,,,,0,,,71,89
374296,control_change,856,0,2,,,,,,,,,0,64,0,,
374400,note_on,104,0,2,,,,,,,,,0,,,47,0
374400,note_on,0,0,2,,,,,,,,,0,,,50,0
374400,note_on,0,0,2,,,,,,,,,0,,,54,0
374400,note_on,480,0,1,,,,,,,,,0,,,71,0
374400,note_on,0,0,1,,,,,,,,,0,,,83,0
374400,note_on,0,0,1,,,,,,,,,0,,,83,104
374400,note_on,0,0,2,,,,,,,,,0,,,35,95
374400,control_change,0,0,2,,,,,,,,,0,64,126,,
374400,set_tempo,480,1,0,,,,,,333333,,,,,,,
374880,note_on,0,0,2,,,,,,,,,0,,,52,77
374880,note_on,480,0,1,,,,,,,,,0,,,71,90
374880,note_on,0,0,2,,,,,,,,,0,,,49,77
374880,note_on,0,0,2,,,,,,,,,0,,,47,77
374880,note_on,0,0,2,,,,,,,,,0,,,55,86
374880,note_on,480,0,2,,,,,,,,,0,,,35,0
375040,note_on,0,0,1,,,,,,,,,0,,,73,85
375040,note_on,160,0,1,,,,,,,,,0,,,71,0
375200,note_on,160,0,1,,,,,,,,,0,,,73,0
375200,note_on,0,0,1,,,,,,,,,0,,,79,85
375360,note_on,0,0,1,,,,,,,,,0,,,71,90
375360,note_on,160,0,1,,,,,,,,,0,,,79,0
375760,control_change,880,0,2,,,,,,,,,0,64,0,,
375840,note_on,0,0,1,,,,,,,,,0,,,83,0
375840,note_on,480,0,1,,,,,,,,,0,,,71,0
375840,note_on,0,0,1,,,,,,,,,0,,,83,99
375840,note_on,80,0,2,,,,,,,,,0,,,47,0
375840,control_change,0,0,2,,,,,,,,,0,64,125,,
375840,note_on,0,0,2,,,,,,,,,0,,,52,0
375840,note_on,0,0,2,,,,,,,,,0,,,55,0
375840,note_on,0,0,2,,,,,,,,,0,,,50,72
375840,set_tempo,1440,1,0,,,,,,313316,,,,,,,
375840,note_on,0,0,2,,,,,,,,,0,,,49,0
376080,note_on,0,0,1,,,,,,,,,0,,,74,72
376080,note_on,0,0,2,,,,,,,,,0,,,59,81
376080,note_on,240,0,2,,,,,,,,,0,,,54,72
376080,note_on,240,0,1,,,,,,,,,0,,,78,81
376242,control_change,162,0,2,,,,,,,,,0,64,0,,
376288,control_change,46,0,2,,,,,,,,,0,64,125,,
376320,note_on,240,0,1,,,,,,,,,0,,,74,0
376320,note_on,0,0,1,,,,,,,,,0,,,78,0
376320,note_on,0,0,1,,,,,,,,,0,,,83,0
376320,note_on,0,0,1,,,,,,,,,0,,,85,99
376320,note_on,0,0,2,,,,,,,,,0,,,49,72
376320,note_on,32,0,2,,,,,,,,,0,,,59,0
376320,note_on,0,0,2,,,,,,,,,0,,,54,0
376320,note_on,0,0,2,,,,,,,,,0,,,50,0
376560,note_on,240,0,1,,,,,,,,,0,,,78,81
376560,note_on,0,0,1,,,,,,,,,0,,,76,72
376560,note_on,0,0,2,,,,,,,,,0,,,58,81
376560,note_on,240,0,2,,,,,,,,,0,,,54,72
376709,control_change,149,0,2,,,,,,,,,0,64,0,,
376781,control_change,72,0,2,,,,,,,,,0,64,125,,
376800,note_on,240,0,1,,,,,,,,,0,,,76,0
376800,note_on,0,0,1,,,,,,,,,0,,,78,0
376800,note_on,0,0,1,,,,,,,,,0,,,85,0
376800,note_on,0,0,1,,,,,,,,,0,,,86,99
376800,note_on,0,0,2,,,,,,,,,0,,,47,72
376800,note_on,19,0,2,,,,,,,,,0,,,58,0
376800,note_on,0,0,2,,,,,,,,,0,,,54,0
376800,note_on,0,0,2,,,,,,,,,0,,,49,0
377040,note_on,0,0,1,,,,,,,,,0,,,78,81
377040,note_on,240,0,1,,,,,,,,,0,,,74,72
377040,note_on,0,0,2,,,,,,,,,0,,,59,81
377040,note_on,240,0,2,,,,,,,,,0,,,54,72
377131,control_change,91,0,2,,,,,,,,,0,64,0,,
377280,note_on,0,0,2,,,,,,,,,0,,,47,0
377280,note_on,0,0,2,,,,,,,,,0,,,54,0
377280,note_on,149,0,2,,,,,,,,,0,,,59,0
377280,control_change,0,0,2,,,,,,,,,0,64,127,,
377280,set_tempo,1440,1,0,,,,,,333333,,,,,,,
377280,note_on,0,0,2,,,,,,,,,0,,,42,108
377280,note_on,240,0,1,,,,,,,,,0,,,78,0
377280,note_on,0,0,1,,,,,,,,,0,,,74,0
377280,note_on,0,0,1,,,,,,,,,0,,,86,0
377280,note_on,0,0,1,,,,,,,,,0,,,85,99
377760,note_on,480,0,2,,,,,,,,,0,,,42,0
377760,note_on,480,0,1,,,,,,,,,0,,,73,90
377760,note_on,0,0,2,,,,,,,,,0,,,58,90
377760,note_on,0,0,2,,,,,,,,,0,,,54,81
377920,note_on,160,0,1,,,,,,,,,0,,,73,0
377920,note_on,0,0,1,,,,,,,,,0,,,78,85
378080,note_on,0,0,1,,,,,,,,,0,,,82,85
378080,note_on,160,0,1,,,,,,,,,0,,,78,0
378240,set_tempo,960,1,0,,,,,,376176,,,,,,,
378240,note_on,0,0,1,,,,,,,,,0,,,73,90
378240,note_on,160,0,1,,,,,,,,,0,,,82,0
378624,control_change,864,0,2,,,,,,,,,0,64,0,,
378720,set_tempo,480,1,0,,,,,,333333,,,,,,,
378720,note_on,96,0,2,,,,,,,,,0,,,54,0
378720,note_on,0,0,2,,,,,,,,,0,,,58,0
378720,note_on,0,0,2,,,,,,,,,0,,,46,108
378720,control_change,0,0,2,,,,,,,,,0,64,127,,
378720,note_on,0,0,1,,,,,,,,,0,,,86,108
378720,note_on,480,0,1,,,,,,,,,0,,,73,0
378720,note_on,0,0,1,,,,,,,,,0,,,85,0
379200,note_on,480,0,2,,,,,,,,,0,,,46,0
379200,note_on,480,0,1,,,,,,,,,0,,,74,90
379200,note_on,0,0,2,,,,,,,,,0,,,58,90
379200,note_on,0,0,2,,,,,,,,,0,,,53,81
379200,note_on,0,0,2,,,,,,,,,0,,,56,81
379360,note_on,160,0,1,,,,,,,,,0,,,74,0
379360,note_on,0,0,1,,,,,,,,,0,,,77,86
379520,note_on,160,0,1,,,,,,,,,0,,,77,0
379520,note_on,0,0,1,,,,,,,,,0,,,82,86
379680,note_on,160,0,1,,,,,,,,,0,,,82,0
379680,note_on,0,0,1,,,,,,,,,0,,,74,90
380056,control_change,856,0,2,,,,,,,,,0,64,0,,
380160,note_on,0,0,2,,,,,,,,,0,,,56,0
380160,note_on,0,0,2,,,,,,,,,0,,,53,0
380160,note_on,0,0,2,,,,,,,,,0,,,39,108
380160,note_on,480,0,1,,,,,,,,,0,,,74,0
380160,note_on,104,0,2,,,,,,,,,0,,,58,0
380160,control_change,0,0,2,,,,,,,,,0,64,127,,
380160,note_on,0,0,1,,,,,,,,,0,,,86,0
380160,note_on,0,0,1,,,,,,,,,0,,,87,108
380640,note_on,0,0,2,,,,,,,,,0,,,54,81
380640,note_on,0,0,2,,,,,,,,,0,,,51,81
380640,note_on,480,0,2,,,,,,,,,0,,,39,0
380640,note_on,480,0,1,,,,,,,,,0,,,75,90
380640,note_on,0,0,2,,,,,,,,,0,,,58,90
380800,note_on,160,0,1,,,,,,,,,0,,,75,0
380800,note_on,0,0,1,,,,,,,,,0,,,78,86
380960,note_on,160,0,1,,,,,,,,,0,,,78,0
380960,note_on,0,0,1,,,,,,,,,0,,,82,86
381120,note_on,160,0,1,,,,,,,,,0,,,82,0
381120,note_on,0,0,1,,,,,,,,,0,,,75,90
381432,control_change,792,0,2,,,,,,,,,0,64,0,,
381600,note_on,0,0,2,,,,,,,,,0,,,51,0
381600,note_on,0,0,2,,,,,,,,,0,,,54,0
381600,note_on,0,0,1,,,,,,,,,0,,,87,0
381600,control_change,0,0,2,,,,,,,,,0,64,127,,
381600,note_on,0,0,1,,,,,,,,,0,,,77,81
381600,note_on,0,0,1,,,,,,,,,0,,,82,81
381600,note_on,0,0,1,,,,,,,,,0,,,86,90
381600,note_on,168,0,2,,,,,,,,,0,,,58,0
381600,note_on,0,0,2,,,,,,,,,0,,,46,81
381600,note_on,480,0,1,,,,,,,,,0,,,75,0
381600,set_tempo,2880,1,0,,,,,,320856,,,,,,,
381840,note_on,240,0,1,,,,,,,,,0,,,77,0
381840,note_on,0,0,1,,,,,,,,,0,,,82,0
381840,note_on,0,0,1,,,,,,,,,0,,,86,0
381840,note_on,0,0,1,,,,,,,,,0,,,89,80
382080,note_on,0,0,2,,,,,,,,,0,,,58,81
382080,note_on,0,0,2,,,,,,,,,0,,,62,90
382080,note_on,0,0,2,,,,,,,,,0,,,56,81
382080,note_on,480,0,2,,,,,,,,,0,,,46,0
382080,note_on,0,0,1,,,,,,,,,0,,,78,89
382080,note_on,0,0,1,,,,,,,,,0,,,82,89
382080,note_on,0,0,1,,,,,,,,,0,,,86,99
382080,note_on,240,0,1,,,,,,,,,0,,,89,0
382320,note_on,240,0,1,,,,,,,,,0,,,78,0
382320,note_on,0,0,1,,,,,,,,,0,,,82,0
382320,note_on,0,0,1,,,,,,,,,0,,,86,0
382320,note_on,0,0,1,,,,,,,,,0,,,90,88
382560,note_on,0,0,2,,,,,,,,,0,,,62,0
382560,note_on,480,0,2,,,,,,,,,0,,,58,0
382560,note_on,0,0,1,,,,,,,,,0,,,82,81
382560,note_on,0,0,2,,,,,,,,,0,,,46,81
382560,note_on,0,0,1,,,,,,,,,0,,,77,81
382560,note_on,0,0,1,,,,,,,,,0,,,86,90
382560,note_on,240,0,1,,,,,,,,,0,,,90,0
382560,note_on,0,0,2,,,,,,,,,0,,,56,0
382800,note_on,0,0,1,,,,,,,,,0,,,86,0
382800,note_on,0,0,1,,,,,,,,,0,,,89,81
382800,note_on,240,0,1,,,,,,,,,0,,,77,0
382800,note_on,0,0,1,,,,,,,,,0,,,82,0
382952,control_change,392,0,2,,,,,,,,,0,64,0,,
383040,note_on,240,0,1,,,,,,,,,0,,,89,0
383040,note_on,0,0,1,,,,,,,,,0,,,87,100
383040,note_on,88,0,2,,,,,,,,,0,,,46,0
383040,control_change,0,0,2,,,,,,,,,0,64,127,,
383040,note_on,0,0,2,,,,,,,,,0,,,51,95
383048,set_tempo,1448,1,0,,,,,,333333,,,,,,,
383520,note_on,0,0,2,,,,,,,,,0,,,54,74
383520,note_on,480,0,2,,,,,,,,,0,,,51,0
383520,note_on,0,0,2,,,,,,,,,0,,,63,83
383520,note_on,480,0,1,,,,,,,,,0,,,75,81
383520,note_on,0,0,2,,,,,,,,,0,,,58,74
383680,note_on,0,0,1,,,,,,,,,0,,,78,76
383680,note_on,160,0,1,,,,,,,,,0,,,75,0
383840,note_on,160,0,1,,,,,,,,,0,,,78,0
383840,note_on,0,0,1,,,,,,,,,0,,,82,76
384000,set_tempo,952,1,0,,,,,,390879,,,,,,,
384000,note_on,160,0,1,,,,,,,,,0,,,82,0
384000,note_on,0,0,1,,,,,,,,,0,,,75,81
384432,control_change,912,0,2,,,,,,,,,0,64,0,,
384468,set_tempo,468,1,0,,,,,,333333,,,,,,,
384480,note_on,0,0,1,,,,,,,,,0,,,94,108
384480,control_change,0,0,2,,,,,,,,,0,64,126,,
384480,note_on,0,0,2,,,,,,,,,0,,,46,100
384480,note_on,0,0,2,,,,,,,,,0,,,58,0
384480,note_on,48,0,2,,,,,,,,,0,,,54,0
384480,note_on,0,0,1,,,,,,,,,0,,,87,0
384480,note_on,0,0,2,,,,,,,,,0,,,63,0
384480,note_on,480,0,1,,,,,,,,,0,,,75,0
384960,note_on,480,0,1,,,,,,,,,0,,,82,84
384960,note_on,0,0,2,,,,,,,,,0,,,62,74
384960,note_on,0,0,2,,,,,,,,,0,,,58,74
384960,note_on,0,0,2,,,,,,,,,0,,,65,74
384960,note_on,480,0,2,,,,,,,,,0,,,46,0
384960,note_on,0,0,2,,,,,,,,,0,,,68,83
385120,note_on,160,0,1,,,,,,,,,0,,,82,0
385120,note_on,0,0,1,,,,,,,,,0,,,89,79
385280,note_on,160,0,1,,,,,,,,,0,,,89,0
385280,note_on,0,0,1,,,,,,,,,0,,,92,79
385440,note_on,160,0,1,,,,,,,,,0,,,92,0
385440,note_on,0,0,1,,,,,,,,,0,,,82,84
385848,control_change,888,0,2,,,,,,,,,0,64,0,,
385920,note_on,0,0,2,,,,,,,,,0,,,68,0
385920,note_on,0,0,1,,,,,,,,,0,,,94,108
385920,note_on,0,0,1,,,,,,,,,0,,,94,0
385920,note_on,72,0,2,,,,,,,,,0,,,58,0
385920,note_on,0,0,2,,,,,,,,,0,,,65,0
385920,note_on,480,0,1,,,,,,,,,0,,,82,0
385920,note_on,0,0,2,,,,,,,,,0,,,51,98
385920,control_change,0,0,2,,,,,,,,,0,64,126,,
385920,set_tempo,1452,1,0,,,,,,326087,,,,,,,
385920,note_on,0,0,2,,,,,,,,,0,,,62,0
386400,note_on,0,0,2,,,,,,,,,0,,,58,74
386400,note_on,480,0,1,,,,,,,,,0,,,82,83
386400,note_on,0,0,2,,,,,,,,,0,,,66,83
386400,note_on,480,0,2,,,,,,,,,0,,,51,0
386400,note_on,0,0,2,,,,,,,,,0,,,63,74
386560,note_on,0,0,1,,,,,,,,,0,,,87,78
386560,note_on,160,0,1,,,,,,,,,0,,,82,0
386720,note_on,0,0,1,,,,,,,,,0,,,90,78
386720,note_on,160,0,1,,,,,,,,,0,,,87,0
386880,note_on,0,0,1,,,,,,,,,0,,,82,83
386880,note_on,160,0,1,,,,,,,,,0,,,90,0
387248,control_change,848,0,2,,,,,,,,,0,64,0,,
387348,set_tempo,1428,1,0,,,,,,303797,,,,,,,
387360,note_on,0,0,1,,,,,,,,,0,,,94,0
387360,note_on,112,0,2,,,,,,,,,0,,,58,0
387360,note_on,0,0,2,,,,,,,,,0,,,63,0
387360,note_on,0,0,2,,,,,,,,,0,,,66,0
387360,note_on,0,0,2,,,,,,,,,0,,,65,81
387360,note_on,0,0,2,,,,,,,,,0,,,59,72
387360,note_on,480,0,1,,,,,,,,,0,,,82,0
387360,control_change,0,0,2,,,,,,,,,0,64,125,,
387360,note_on,0,0,1,,,,,,,,,0,,,80,81
387360,note_on,0,0,2,,,,,,,,,0,,,56,72
387360,note_on,0,0,1,,,,,,,,,0,,,89,90
387600,note_on,0,0,1,,,,,,,,,0,,,80,0
387600,note_on,240,0,1,,,,,,,,,0,,,89,0
387600,note_on,0,0,1,,,,,,,,,0,,,92,85
387714,control_change,354,0,2,,,,,,,,,0,64,0,,
387817,control_change,103,0,2,,,,,,,,,0,64,125,,
387840,note_on,0,0,1,,,,,,,,,0,,,78,81
387840,note_on,0,0,1,,,,,,,,,0,,,87,90
387840,note_on,0,0,2,,,,,,,,,0,,,66,82
387840,note_on,23,0,2,,,,,,,,,0,,,65,0
387840,note_on,0,0,2,,,,,,,,,0,,,59,0
387840,note_on,0,0,2,,,,,,,,,0,,,56,0
387840,note_on,0,0,2,,,,,,,,,0,,,63,73
387840,note_on,0,0,2,,,,,,,,,0,,,58,73
387840,note_on,240,0,1,,,,,,,,,0,,,92,0
388080,note_on,240,0,1,,,,,,,,,0,,,87,0
388080,note_on,0,0,1,,,,,,,,,0,,,78,0
388080,note_on,0,0,1,,,,,,,,,0,,,90,86
388229,control_change,389,0,2,,,,,,,,,0,64,0,,
388309,control_change,80,0,2,,,,,,,,,0,64,125,,
388320,note_on,0,0,2,,,,,,,,,0,,,65,73
388320,note_on,240,0,1,,,,,,,,,0,,,90,0
388320,note_on,0,0,1,,,,,,,,,0,,,77,81
388320,note_on,0,0,1,,,,,,,,,0,,,86,90
388320,note_on,11,0,2,,,,,,,,,0,,,58,0
388320,note_on,0,0,2,,,,,,,,,0,,,66,0
388320,note_on,0,0,2,,,,,,,,,0,,,68,82
388320,note_on,0,0,2,,,,,,,,,0,,,58,73
388320,note_on,0,0,2,,,,,,,,,0,,,63,0
388560,note_on,240,0,1,,,,,,,,,0,,,86,0
388560,note_on,0,0,1,,,,,,,,,0,,,77,0
388560,note_on,0,0,1,,,,,,,,,0,,,89,87
388629,control_change,309,0,2,,,,,,,,,0,64,0,,
388800,note_on,0,0,1,,,,,,,,,0,,,87,100
388800,set_tempo,1452,1,0,,,,,,316623,,,,,,,
388800,control_change,0,0,2,,,,,,,,,0,64,125,,
388800,note_on,0,0,2,,,,,,,,,0,,,51,95
388800,note_on,0,0,2,,,,,,,,,0,,,65,0
388800,note_on,171,0,2,,,,,,,,,0,,,68,0
388800,note_on,0,0,2,,,,,,,,,0,,,58,0
388800,note_on,240,0,1,,,,,,,,,0,,,89,0
389280,note_on,0,0,2,,,,,,,,,0,,,58,74
389280,note_on,480,0,2,,,,,,,,,0,,,51,0
389280,note_on,480,0,1,,,,,,,,,0,,,75,91
389280,note_on,0,0,2,,,,,,,,,0,,,66,83
389280,note_on,0,0,2,,,,,,,,,0,,,63,74
389440,note_on,0,0,1,,,,,,,,,0,,,78,73
389440,note_on,160,0,1,,,,,,,,,0,,,75,0
389600,note_on,160,0,1,,,,,,,,,0,,,78,0
389600,note_on,0,0,1,,,,,,,,,0,,,82,74
389760,note_on,160,0,1,,,,,,,,,0,,,82,0
389760,note_on,0,0,1,,,,,,,,,0,,,75,74
389768,set_tempo,968,1,0,,,,,,352941,,,,,,,
390152,control_change,872,0,2,,,,,,,,,0,64,0,,
390240,note_on,0,0,2,,,,,,,,,0,,,46,98
390240,note_on,0,0,2,,,,,,,,,0,,,63,0
390240,note_on,88,0,2,,,,,,,,,0,,,58,0
390240,control_change,0,0,2,,,,,,,,,0,64,124,,
390240,set_tempo,472,1,0,,,,,,316623,,,,,,,
390240,note_on,0,0,2,,,,,,,,,0,,,66,0
390240,note_on,0,0,1,,,,,,,,,0,,,94,108
390240,note_on,0,0,1,,,,,,,,,0,,,87,0
390240,note_on,480,0,1,,,,,,,,,0,,,75,0
390248,set_tempo,8,1,0,,,,,,315789,,,,,,,
390720,note_on,480,0,1,,,,,,,,,0,,,82,81
390720,note_on,0,0,2,,,,,,,,,0,,,58,74
390720,note_on,0,0,2,,,,,,,,,0,,,62,74
390720,note_on,0,0,2,,,,,,,,,0,,,65,74
390720,note_on,0,0,2,,,,,,,,,0,,,68,83
390720,note_on,480,0,2,,,,,,,,,0,,,46,0
390880,note_on,160,0,1,,,,,,,,,0,,,82,0
390880,note_on,0,0,1,,,,,,,,,0,,,89,76
391040,note_on,0,0,1,,,,,,,,,0,,,92,76
391040,note_on,160,0,1,,,,,,,,,0,,,89,0
391200,note_on,160,0,1,,,,,,,,,0,,,92,0
391200,note_on,0,0,1,,,,,,,,,0,,,82,81
391544,control_change,824,0,2,,,,,,,,,0,64,0,,
391680,set_tempo,1432,1,0,,,,,,310881,,,,,,,
391680,note_on,0,0,1,,,,,,,,,0,,,94,0
391680,note_on,136,0,2,,,,,,,,,0,,,58,0
391680,note_on,0,0,2,,,,,,,,,0,,,65,0
391680,note_on,0,0,2,,,,,,,,,0,,,62,0
391680,note_on,0,0,2,,,,,,,,,0,,,51,98
391680,control_change,0,0,2,,,,,,,,,0,64,126,,
391680,note_on,0,0,1,,,,,,,,,0,,,94,108
391680,note_on,480,0,1,,,,,,,,,0,,,82,0
391680,note_on,0,0,2,,,,,,,,,0,,,68,0
392160,note_on,480,0,2,,,,,,,,,0,,,51,0
392160,note_on,0,0,2,,,,,,,,,0,,,66,83
392160,note_on,0,0,2,,,,,,,,,0,,,63,74
392160,note_on,0,0,2,,,,,,,,,0,,,58,74
392160,note_on,480,0,1,,,,,,,,,0,,,82,80
392320,note_on,0,0,1,,,,,,,,,0,,,87,76
392320,note_on,160,0,1,,,,,,,,,0,,,82,0
392480,note_on,160,0,1,,,,,,,,,0,,,87,0
392480,note_on,0,0,1,,,,,,,,,0,,,90,76
392640,note_on,160,0,1,,,,,,,,,0,,,90,0
392640,note_on,0,0,1,,,,,,,,,0,,,82,80
392992,control_change,832,0,2,,,,,,,,,0,64,0,,
393120,note_on,0,0,2,,,,,,,,,0,,,59,73
393120,note_on,0,0,2,,,,,,,,,0,,,56,73
393120,note_on,0,0,2,,,,,,,,,0,,,66,0
393120,note_on,0,0,2,,,,,,,,,0,,,63,0
393120,note_on,128,0,2,,,,,,,,,0,,,58,0
393120,note_on,0,0,2,,,,,,,,,0,,,65,82
393120,note_on,0,0,1,,,,,,,,,0,,,89,91
393120,note_on,0,0,1,,,,,,,,,0,,,80,81
393120,set_tempo,1440,1,0,,,,,,290557,,,,,,,
393120,note_on,0,0,1,,,,,,,,,0,,,94,0
393120,note_on,480,0,1,,,,,,,,,0,,,82,0
393143,control_change,23,0,2,,,,,,,,,0,64,125,,
393360,note_on,0,0,1,,,,,,,,,0,,,80,0
393360,note_on,240,0,1,,,,,,,,,0,,,89,0
393360,note_on,0,0,1,,,,,,,,,0,,,92,90
393474,control_change,331,0,2,,,,,,,,,0,64,0,,
393577,control_change,103,0,2,,,,,,,,,0,64,125,,
393600,note_on,0,0,2,,,,,,,,,0,,,63,73
393600,note_on,0,0,2,,,,,,,,,0,,,59,0
393600,note_on,0,0,2,,,,,,,,,0,,,66,82
393600,note_on,0,0,1,,,,,,,,,0,,,87,91
393600,note_on,0,0,1,,,,,,,,,0,,,78,81
393600,note_on,240,0,1,,,,,,,,,0,,,92,0
393600,note_on,0,0,2,,,,,,,,,0,,,58,73
393600,note_on,23,0,2,,,,,,,,,0,,,65,0
393600,note_on,0,0,2,,,,,,,,,0,,,56,0
393840,note_on,0,0,1,,,,,,,,,0,,,90,90
393840,note_on,240,0,1,,,,,,,,,0,,,87,0
393840,note_on,0,0,1,,,,,,,,,0,,,78,0
393920,control_change,320,0,2,,,,,,,,,0,64,0,,
394023,control_change,103,0,2,,,,,,,,,0,64,125,,
394080,note_on,57,0,2,,,,,,,,,0,,,58,0
394080,note_on,0,0,2,,,,,,,,,0,,,66,0
394080,note_on,0,0,2,,,,,,,,,0,,,58,73
394080,note_on,0,0,2,,,,,,,,,0,,,65,73
394080,note_on,0,0,2,,,,,,,,,0,,,68,82
394080,note_on,0,0,1,,,,,,,,,0,,,77,81
394080,note_on,0,0,1,,,,,,,,,0,,,86,91
394080,note_on,0,0,2,,,,,,,,,0,,,63,0
394080,note_on,240,0,1,,,,,,,,,0,,,90,0
394320,note_on,0,0,1,,,,,,,,,0,,,89,89
394320,note_on,0,0,1,,,,,,,,,0,,,77,0
394320,note_on,240,0,1,,,,,,,,,0,,,86,0
394423,control_change,343,0,2,,,,,,,,,0,64,0,,
394560,set_tempo,1440,1,0,,,,,,300752,,,,,,,
394560,note_on,137,0,2,,,,,,,,,0,,,68,0
394560,note_on,0,0,2,,,,,,,,,0,,,65,0
394560,note_on,0,0,2,,,,,,,,,0,,,58,0
394560,note_on,0,0,2,,,,,,,,,0,,,51,95
394560,control_change,0,0,2,,,,,,,,,0,64,127,,
394560,note_on,240,0,1,,,,,,,,,0,,,89,0
394560,note_on,0,0,1,,,,,,,,,0,,,87,100
395040,note_on,0,0,2,,,,,,,,,0,,,58,74
395040,note_on,0,0,2,,,,,,,,,0,,,63,74
395040,note_on,480,0,2,,,,,,,,,0,,,51,0
395040,note_on,0,0,2,,,,,,,,,0,,,66,83
395040,note_on,480,0,1,,,,,,,,,0,,,75,72
395200,note_on,0,0,1,,,,,,,,,0,,,78,68
395200,note_on,160,0,1,,,,,,,,,0,,,75,0
395360,note_on,0,0,1,,,,,,,,,0,,,82,68
395360,note_on,160,0,1,,,,,,,,,0,,,78,0
395520,note_on,160,0,1,,,,,,,,,0,,,82,0
395520,note_on,0,0,1,,,,,,,,,0,,,75,71
395880,control_change,840,0,2,,,,,,,,,0,64,0,,
396000,note_on,480,0,1,,,,,,,,,0,,,75,0
396000,note_on,0,0,1,,,,,,,,,0,,,87,0
396000,note_on,0,0,1,,,,,,,,,0,,,80,81
396000,note_on,0,0,1,,,,,,,,,0,,,89,90
396000,note_on,0,0,2,,,,,,,,,0,,,63,0
396000,note_on,120,0,2,,,,,,,,,0,,,58,0
396000,note_on,0,0,2,,,,,,,,,0,,,66,0
396000,note_on,0,0,2,,,,,,,,,0,,,56,72
396000,note_on,0,0,2,,,,,,,,,0,,,59,72
396000,note_on,0,0,2,,,,,,,,,0,,,65,81
396000,control_change,0,0,2,,,,,,,,,0,64,125,,
396240,note_on,0,0,1,,,,,,,,,0,,,92,84
396240,note_on,0,0,1,,,,,,,,,0,,,80,0
396240,note_on,240,0,1,,,,,,,,,0,,,89,0
396377,control_change,377,0,2,,,,,,,,,0,64,0,,
396480,note_on,0,0,1,,,,,,,,,0,,,87,90
396480,note_on,240,0,1,,,,,,,,,0,,,92,0
396480,note_on,0,0,2,,,,,,,,,0,,,58,73
396480,note_on,0,0,2,,,,,,,,,0,,,66,82
396480,note_on,0,0,2,,,,,,,,,0,,,56,0
396480,note_on,0,0,2,,,,,,,,,0,,,59,0
396480,note_on,103,0,2,,,,,,,,,0,,,65,0
396480,note_on,0,0,2,,,,,,,,,0,,,63,73
396480,note_on,0,0,1,,,,,,,,,0,,,78,81
396503,control_change,23,0,2,,,,,,,,,0,64,125,,
396720,note_on,0,0,1,,,,,,,,,0,,,90,85
396720,note_on,0,0,1,,,,,,,,,0,,,78,0
396720,note_on,240,0,1,,,,,,,,,0,,,87,0
396869,control_change,366,0,2,,,,,,,,,0,64,0,,
396960,note_on,240,0,1,,,,,,,,,0,,,90,0
396960,note_on,91,0,2,,,,,,,,,0,,,58,0
396960,note_on,0,0,2,,,,,,,,,0,,,65,73
396960,note_on,0,0,2,,,,,,,,,0,,,58,73
396960,note_on,0,0,2,,,,,,,,,0,,,66,0
396960,note_on,0,0,1,,,,,,,,,0,,,77,81
396960,note_on,0,0,2,,,,,,,,,0,,,68,82
396960,note_on,0,0,1,,,,,,,,,0,,,86,90
396960,note_on,0,0,2,,,,,,,,,0,,,63,0
396971,control_change,11,0,2,,,,,,,,,0,64,125,,
397200,note_on,240,0,1,,,,,,,,,0,,,86,0
397200,note_on,0,0,1,,,,,,,,,0,,,89,85
397200,note_on,0,0,1,,,,,,,,,0,,,77,0
397337,control_change,366,0,2,,,,,,,,,0,64,0,,
397440,note_on,0,0,2,,,,,,,,,0,,,58,0
397440,note_on,0,0,2,,,,,,,,,0,,,63,90
397440,note_on,0,0,2,,,,,,,,,0,,,58,81
397440,note_on,0,0,2,,,,,,,,,0,,,54,81
397440,note_on,0,0,2,,,,,,,,,0,,,51,81
397440,note_on,0,0,1,,,,,,,,,0,,,99,90
397440,note_on,240,0,1,,,,,,,,,0,,,89,0
397440,note_on,103,0,2,,,,,,,,,0,,,68,0
397440,note_on,0,0,2,,,,,,,,,0,,,65,0
397448,set_tempo,2888,1,0,,,,,,285036,,,,,,,
397600,note_on,0,0,1,,,,,,,,,0,,,95,85
397600,note_on,160,0,1,,,,,,,,,0,,,99,0
397760,note_on,0,0,1,,,,,,,,,0,,,94,87
397760,note_on,160,0,1,,,,,,,,,0,,,95,0
397920,note_on,160,0,1,,,,,,,,,0,,,94,0
397920,note_on,0,0,1,,,,,,,,,0,,,92,90
398080,note_on,160,0,1,,,,,,,,,0,,,92,0
398080,note_on,0,0,1,,,,,,,,,0,,,90,85
398240,note_on,160,0,1,,,,,,,,,0,,,90,0
398240,note_on,0,0,1,,,,,,,,,0,,,89,85
398400,note_on,0,0,1,,,,,,,,,0,,,87,104
398400,note_on,960,0,2,,,,,,,,,0,,,51,0
398400,note_on,0,0,2,,,,,,,,,0,,,63,0
398400,note_on,0,0,2,,,,,,,,,0,,,58,0
398400,note_on,0,0,2,,,,,,,,,0,,,54,0
398400,note_on,0,0,2,,,,,,,,,0,,,56,64
398400,note_on,0,0,2,,,,,,,,,0,,,59,64
398400,note_on,160,0,1,,,,,,,,,0,,,89,0
398400,note_on,0,0,2,,,,,,,,,0,,,63,71
398400,note_on,0,0,2,,,,,,,,,0,,,51,64
398640,note_on,0,0,2,,,,,,,,,0,,,63,0
398640,note_on,0,0,2,,,,,,,,,0,,,59,0
398640,note_on,0,0,2,,,,,,,,,0,,,56,0
398640,note_on,240,0,2,,,,,,,,,0,,,51,0
398640,note_on,240,0,1,,,,,,,,,0,,,87,0
398868,set_tempo,1420,1,0,,,,,,282353,,,,,,,
398880,note_on,240,0,1,,,,,,,,,0,,,87,90
398880,note_on,0,0,2,,,,,,,,,0,,,58,82
398880,note_on,240,0,2,,,,,,,,,0,,,54,82
398880,note_on,0,0,2,,,,,,,,,0,,,63,92
398880,note_on,0,0,2,,,,,,,,,0,,,51,82
399040,note_on,160,0,1,,,,,,,,,0,,,87,0
399040,note_on,0,0,1,,,,,,,,,0,,,83,84
399200,note_on,160,0,1,,,,,,,,,0,,,83,0
399200,note_on,0,0,1,,,,,,,,,0,,,82,84
399360,note_on,160,0,1,,,,,,,,,0,,,82,0
399360,note_on,0,0,1,,,,,,,,,0,,,80,90
399520,note_on,160,0,1,,,,,,,,,0,,,80,0
399520,note_on,0,0,1,,,,,,,,,0,,,78,86
399680,note_on,160,0,1,,,,,,,,,0,,,78,0
399680,note_on,0,0,1,,,,,,,,,0,,,77,86
399840,note_on,960,0,2,,,,,,,,,0,,,51,0
399840,note_on,0,0,2,,,,,,,,,0,,,63,72
399840,note_on,0,0,2,,,,,,,,,0,,,56,64
399840,note_on,0,0,2,,,,,,,,,0,,,58,0
399840,note_on,0,0,2,,,,,,,,,0,,,63,0
399840,note_on,0,0,2,,,,,,,,,0,,,54,0
399840,note_on,160,0,1,,,,,,,,,0,,,77,0
399840,note_on,0,0,1,,,,,,,,,0,,,75,103
399840,note_on,0,0,2,,,,,,,,,0,,,59,64
399840,note_on,0,0,2,,,,,,,,,0,,,51,64
400080,note_on,0,0,2,,,,,,,,,0,,,56,0
400080,note_on,0,0,2,,,,,,,,,0,,,63,0
400080,note_on,240,0,2,,,,,,,,,0,,,51,0
400080,note_on,240,0,1,,,,,,,,,0,,,75,0
400080,note_on,0,0,2,,,,,,,,,0,,,59,0
400308,set_tempo,1440,1,0,,,,,,281030,,,,,,,
400320,note_on,0,0,2,,,,,,,,,0,,,42,86
400320,note_on,0,0,2,,,,,,,,,0,,,46,86
400320,set_tempo,12,1,0,,,,,,280374,,,,,,,
400320,note_on,240,0,1,,,,,,,,,0,,,75,90
400320,note_on,240,0,2,,,,,,,,,0,,,51,96
400320,note_on,0,0,2,,,,,,,,,0,,,39,86
400480,note_on,0,0,1,,,,,,,,,0,,,71,85
400480,note_on,160,0,1,,,,,,,,,0,,,75,0
400640,note_on,160,0,1,,,,,,,,,0,,,71,0
400640,note_on,0,0,1,,,,,,,,,0,,,70,85
400800,note_on,160,0,1,,,,,,,,,0,,,70,0
400800,note_on,0,0,1,,,,,,,,,0,,,68,90
400960,note_on,160,0,1,,,,,,,,,0,,,68,0
400960,note_on,0,0,1,,,,,,,,,0,,,66,85
401120,note_on,160,0,1,,,,,,,,,0,,,66,0
401120,note_on,0,0,1,,,,,,,,,0,,,65,85
401280,note_on,0,0,2,,,,,,,,,0,,,47,68
401280,note_on,0,0,2,,,,,,,,,0,,,51,76
401280,note_on,0,0,2,,,,,,,,,0,,,44,68
401280,note_on,0,0,2,,,,,,,,,0,,,42,0
401280,note_on,0,0,2,,,,,,,,,0,,,46,0
401280,note_on,0,0,2,,,,,,,,,0,,,39,68
401280,note_on,0,0,2,,,,,,,,,0,,,51,0
401280,note_on,0,0,1,,,,,,,,,0,,,63,102
401280,note_on,960,0,2,,,,,,,,,0,,,39,0
401280,note_on,160,0,1,,,,,,,,,0,,,65,0
401520,note_on,240,0,1,,,,,,,,,0,,,63,0
401520,note_on,0,0,2,,,,,,,,,0,,,51,0
401520,note_on,0,0,2,,,,,,,,,0,,,47,0
401520,note_on,0,0,2,,,,,,,,,0,,,44,0
401520,note_on,240,0,2,,,,,,,,,0,,,39,0
401748,set_tempo,1428,1,0,,,,,,278422,,,,,,,
401760,note_on,240,0,1,,,,,,,,,0,,,63,90
401760,note_on,240,0,2,,,,,,,,,0,,,51,90
401760,note_on,0,0,2,,,,,,,,,0,,,46,81
401760,note_on,0,0,2,,,,,,,,,0,,,42,81
401760,note_on,0,0,2,,,,,,,,,0,,,39,81
401920,note_on,160,0,1,,,,,,,,,0,,,63,0
401920,note_on,0,0,1,,,,,,,,,0,,,59,85
402080,note_on,0,0,1,,,,,,,,,0,,,58,85
402080,note_on,160,0,1,,,,,,,,,0,,,59,0
402240,note_on,0,0,1,,,,,,,,,0,,,56,90
402240,note_on,160,0,1,,,,,,,,,0,,,58,0
402400,note_on,0,0,1,,,,,,,,,0,,,54,85
402400,note_on,160,0,1,,,,,,,,,0,,,56,0
402560,note_on,160,0,1,,,,,,,,,0,,,54,0
402560,note_on,0,0,1,,,,,,,,,0,,,53,87
402720,note_on,0,0,1,,,,,,,,,0,,,51,102
402720,note_on,160,0,1,,,,,,,,,0,,,53,0
402720,note_on,960,0,2,,,,,,,,,0,,,39,0
402720,note_on,0,0,2,,,,,,,,,0,,,51,0
402720,note_on,0,0,2,,,,,,,,,0,,,46,0
402720,note_on,0,0,2,,,,,,,,,0,,,42,0
402720,note_on,0,0,2,,,,,,,,,0,,,47,72
402720,note_on,0,0,2,,,,,,,,,0,,,44,64
402720,note_on,0,0,2,,,,,,,,,0,,,39,64
402840,note_on,120,0,1,,,,,,,,,0,,,51,0
402960,note_on,0,0,2,,,,,,,,,0,,,47,0
402960,note_on,0,0,2,,,,,,,,,0,,,44,0
402960,note_on,240,0,2,,,,,,,,,0,,,39,0
403200,note_on,0,0,2,,,,,,,,,0,,,58,89
403200,note_on,0,0,2,,,,,,,,,0,,,54,80
403200,note_on,0,0,2,,,,,,,,,0,,,51,80
403200,note_on,0,0,2,,,,,,,,,0,,,46,80
403200,note_on,0,0,2,,,,,,,,,0,,,42,80
403200,note_on,240,0,2,,,,,,,,,0,,,39,80
403200,set_tempo,1452,1,0,,,,,,278422,,,,,,,
403200,note_on,360,0,1,,,,,,,,,0,,,63,99
403440,note_on,0,0,2,,,,,,,,,0,,,39,0
403440,note_on,240,0,2,,,,,,,,,0,,,58,0
403440,note_on,0,0,2,,,,,,,,,0,,,46,0
403440,note_on,240,0,1,,,,,,,,,0,,,63,0
403440,note_on,0,0,2,,,,,,,,,0,,,54,0
403440,note_on,0,0,2,,,,,,,,,0,,,51,0
403440,note_on,0,0,2,,,,,,,,,0,,,42,0
403480,set_tempo,280,1,0,,,,,,279070,,,,,,,
403680,note_on,0,0,2,,,,,,,,,0,,,44,80
403680,note_on,0,0,2,,,,,,,,,0,,,39,80
403680,note_on,240,0,2,,,,,,,,,0,,,59,89
403680,note_on,0,0,2,,,,,,,,,0,,,56,80
403680,note_on,0,0,2,,,,,,,,,0,,,51,80
403680,note_on,0,0,2,,,,,,,,,0,,,47,80
403680,note_on,240,0,1,,,,,,,,,0,,,63,99
403740,set_tempo,260,1,0,,,,,,279720,,,,,,,
403920,note_on,240,0,1,,,,,,,,,0,,,63,0
403920,note_on,0,0,2,,,,,,,,,0,,,44,0
403920,note_on,0,0,2,,,,,,,,,0,,,47,0
403920,note_on,240,0,2,,,,,,,,,0,,,39,0
403920,note_on,0,0,2,,,,,,,,,0,,,56,0
403920,note_on,0,0,2,,,,,,,,,0,,,51,0
403920,note_on,0,0,2,,,,,,,,,0,,,59,0
404000,set_tempo,260,1,0,,,,,,280374,,,,,,,
404160,note_on,240,0,1,,,,,,,,,0,,,63,99
404160,note_on,0,0,2,,,,,,,,,0,,,42,80
404160,note_on,240,0,2,,,,,,,,,0,,,51,80
404160,note_on,0,0,2,,,,,,,,,0,,,46,80
404160,note_on,0,0,2,,,,,,,,,0,,,39,80
404160,note_on,0,0,2,,,,,,,,,0,,,54,80
404160,note_on,0,0,2,,,,,,,,,0,,,58,89
404260,set_tempo,260,1,0,,,,,,281030,,,,,,,
404400,note_on,0,0,2,,,,,,,,,0,,,54,0
404400,note_on,0,0,2,,,,,,,,,0,,,51,0
404400,note_on,240,0,1,,,,,,,,,0,,,63,0
404400,note_on,0,0,2,,,,,,,,,0,,,42,0
404400,note_on,0,0,2,,,,,,,,,0,,,39,0
404400,note_on,240,0,2,,,,,,,,,0,,,58,0
404400,note_on,0,0,2,,,,,,,,,0,,,46,0
404520,set_tempo,260,1,0,,,,,,281690,,,,,,,
404640,note_on,0,0,2,,,,,,,,,0,,,44,80
404640,note_on,240,0,2,,,,,,,,,0,,,59,89
404640,note_on,0,0,2,,,,,,,,,0,,,56,80
404640,note_on,240,0,1,,,,,,,,,0,,,63,99
404640,note_on,0,0,2,,,,,,,,,0,,,51,80
404640,note_on,0,0,2,,,,,,,,,0,,,47,80
404640,note_on,0,0,2,,,,,,,,,0,,,39,80
404660,set_tempo,140,1,0,,,,,,281030,,,,,,,
404760,set_tempo,100,1,0,,,,,,281690,,,,,,,
404860,set_tempo,100,1,0,,,,,,282353,,,,,,,
404880,note_on,240,0,2,,,,,,,,,0,,,39,0
404880,note_on,0,0,2,,,,,,,,,0,,,51,0
404880,note_on,240,0,1,,,,,,,,,0,,,63,0
404880,note_on,0,0,2,,,,,,,,,0,,,59,0
404880,note_on,0,0,2,,,,,,,,,0,,,44,0
404880,note_on,0,0,2,,,,,,,,,0,,,47,0
404880,note_on,0,0,2,,,,,,,,,0,,,56,0
404960,set_tempo,100,1,0,,,,,,283019,,,,,,,
405040,set_tempo,80,1,0,,,,,,283688,,,,,,,
405120,note_on,0,0,2,,,,,,,,,0,,,58,89
405120,note_on,0,0,2,,,,,,,,,0,,,54,80
405120,note_on,0,0,2,,,,,,,,,0,,,46,80
405120,note_on,0,0,2,,,,,,,,,0,,,42,80
405120,note_on,0,0,2,,,,,,,,,0,,,39,80
405120,note_on,240,0,2,,,,,,,,,0,,,51,80
405120,note_on,240,0,1,,,,,,,,,0,,,63,99
405140,set_tempo,100,1,0,,,,,,284360,,,,,,,
405240,set_tempo,100,1,0,,,,,,285036,,,,,,,
405340,set_tempo,100,1,0,,,,,,285714,,,,,,,
405360,note_on,0,0,2,,,,,,,,,0,,,46,0
405360,note_on,240,0,2,,,,,,,,,0,,,58,0
405360,note_on,0,0,2,,,,,,,,,0,,,51,0
405360,note_on,240,0,1,,,,,,,,,0,,,63,0
405360,note_on,0,0,2,,,,,,,,,0,,,42,0
405360,note_on,0,0,2,,,,,,,,,0,,,39,0
405360,note_on,0,0,2,,,,,,,,,0,,,54,0
405420,set_tempo,80,1,0,,,,,,286396,,,,,,,
405520,set_tempo,100,1,0,,,,,,287081,,,,,,,
405600,note_on,240,0,2,,,,,,,,,0,,,51,80
405600,note_on,0,0,2,,,,,,,,,0,,,56,80
405600,note_on,0,0,2,,,,,,,,,0,,,47,80
405600,note_on,0,0,2,,,,,,,,,0,,,44,80
405600,note_on,0,0,2,,,,,,,,,0,,,39,80
405600,note_on,0,0,2,,,,,,,,,0,,,59,89
405600,note_on,240,0,1,,,,,,,,,0,,,63,99
405620,set_tempo,100,1,0,,,,,,287770,,,,,,,
405720,set_tempo,100,1,0,,,,,,288462,,,,,,,
405800,set_tempo,80,1,0,,,,,,289157,,,,,,,
405840,note_on,0,0,2,,,,,,,,,0,,,51,0
405840,note_on,0,0,2,,,,,,,,,0,,,47,0
405840,note_on,240,0,2,,,,,,,,,0,,,39,0
405840,note_on,0,0,2,,,,,,,,,0,,,59,0
405840,note_on,0,0,2,,,,,,,,,0,,,56,0
405840,note_on,240,0,1,,,,,,,,,0,,,63,0
405840,note_on,0,0,2,,,,,,,,,0,,,44,0
405900,set_tempo,100,1,0,,,,,,289855,,,,,,,
406000,set_tempo,100,1,0,,,,,,290557,,,,,,,
406080,note_on,0,0,1,,,,,,,,,0,,,62,97
406080,note_on,0,0,1,,,,,,,,,0,,,65,97
406080,note_on,0,0,2,,,,,,,,,0,,,46,97
406080,note_on,240,0,2,,,,,,,,,0,,,34,87
406080,note_on,240,0,1,,,,,,,,,0,,,74,108
406080,set_tempo,80,1,0,,,,,,306905,,,,,,,
406080,note_on,0,0,1,,,,,,,,,0,,,70,97
406133,control_change,53,0,2,,,,,,,,,0,64,125,,
406480,control_change,347,0,2,,,,,,,,,0,64,0,,
406560,note_on,0,0,1,,,,,,,,,0,,,74,0
406560,note_on,0,0,1,,,,,,,,,0,,,65,0
406560,note_on,80,0,2,,,,,,,,,0,,,46,0
406560,note_on,0,0,2,,,,,,,,,0,,,34,0
406560,note_on,480,0,1,,,,,,,,,0,,,62,0
406560,note_on,0,0,1,,,,,,,,,0,,,70,0
407520,note_on,0,0,1,,,,,,,,,0,,,70,97
407520,note_on,0,0,1,,,,,,,,,0,,,75,108
407520,note_on,0,0,1,,,,,,,,,0,,,66,97
407520,note_on,0,0,2,,,,,,,,,0,,,51,97
407520,note_on,0,0,2,,,,,,,,,0,,,39,87
407520,note_on,960,0,2,,,,,,,,,0,,,46,87
407520,note_on,960,0,1,,,,,,,,,0,,,63,97
407543,control_change,23,0,2,,,,,,,,,0,64,125,,
407909,control_change,366,0,2,,,,,,,,,0,64,0,,
408000,end_of_track,0,1,1,,,,,,,,,,,,,
408000,note_on,0,0,1,,,,,,,,,0,,,66,0
408000,note_on,480,0,1,,,,,,,,,0,,,75,0
408000,note_on,0,0,1,,,,,,,,,0,,,63,0
408000,end_of_track,0,1,2,,,,,,,,,,,,,
408000,note_on,0,0,2,,,,,,,,,0,,,46,0
408000,note_on,0,0,2,,,,,,,,,0,,,39,0
408000,note_on,91,0,2,,,,,,,,,0,,,51,0
408000,end_of_track,0,1,0,,,,,,,,,,,,,
408000,marker,1920,1,0,,,,,,,,,,,,,
408000,note_on,0,0,1,,,,,,,,,0,,,70,0
