tick,type,time,meta,track,numerator,denominator,clocks_per_click,notated_32nd_notes_per_beat,key,tempo,port,program,channel,control,value,note,velocity
0,track_name,0,1,0,,,,,,,,,,,,,
0,program_change,0,0,1,,,,,,,,0,0,,,,
0,control_change,0,0,1,,,,,,,,,0,7,100,,
0,control_change,0,0,1,,,,,,,,,0,91,127,,
0,text,0,1,1,,,,,,,,,,,,,
0,track_name,0,1,7,,,,,,,,,,,,,
0,midi_port,0,1,2,,,,,,,0,,,,,,
0,track_name,0,1,2,,,,,,,,,,,,,
0,program_change,0,0,2,,,,,,,,0,0,,,,
0,control_change,0,0,2,,,,,,,,,0,7,100,,
0,control_change,0,0,2,,,,,,,,,0,91,127,,
0,midi_port,0,1,3,,,,,,,0,,,,,,
0,track_name,0,1,3,,,,,,,,,,,,,
0,end_of_track,0,1,3,,,,,,,,,,,,,
0,midi_port,0,1,4,,,,,,,0,,,,,,
0,track_name,0,1,4,,,,,,,,,,,,,
0,end_of_track,0,1,4,,,,,,,,,,,,,
0,midi_port,0,1,5,,,,,,,0,,,,,,
0,track_name,0,1,5,,,,,,,,,,,,,
0,end_of_track,0,1,5,,,,,,,,,,,,,
0,midi_port,0,1,6,,,,,,,0,,,,,,
0,track_name,0,1,6,,,,,,,,,,,,,
0,end_of_track,0,1,6,,,,,,,,,,,,,
0,midi_port,0,1,7,,,,,,,0,,,,,,
0,track_name,0,1,1,,,,,,,,,,,,,
0,midi_port,0,1,1,,,,,,,0,,,,,,
0,end_of_track,0,1,7,,,,,,,,,,,,,
0,text,0,1,0,,,,,,,,,,,,,
0,text,0,1,0,,,,,,,,,,,,,
0,text,0,1,0,,,,,,,,,,,,,
0,marker,0,1,0,,,,,,,,,,,,,
0,key_signature,0,1,0,,,,,Ab,,,,,,,,
0,track_name,0,1,0,,,,,,,,,,,,,
0,time_signature,0,1,0,3,4,24,8,,,,,,,,,
0,text,0,1,0,,,,,,,,,,,,,
0,text,0,1,0,,,,,,,,,,,,,
0,text,0,1,0,,,,,,,,,,,,,
0,copyright,0,1,0,,,,,,,,,,,,,
0,set_tempo,0,1,0,,,,,,400000,,,,,,,
1,note_on,1,0,1,,,,,,,,,0,,,83,40
1,note_on,1,0,2,,,,,,,,,0,,,44,40
4,control_change,3,0,2,,,,,,,,,0,64,127,,
30,note_on,29,0,1,,,,,,,,,0,,,87,34
31,note_on,1,0,1,,,,,,,,,0,,,83,0
60,note_on,29,0,1,,,,,,,,,0,,,87,0
60,note_on,0,0,1,,,,,,,,,0,,,83,40
61,note_on,57,0,2,,,,,,,,,0,,,44,0
90,note_on,0,0,1,,,,,,,,,0,,,80,34
90,note_on,30,0,1,,,,,,,,,0,,,83,0
120,note_on,0,0,1,,,,,,,,,0,,,80,40
120,note_on,30,0,1,,,,,,,,,0,,,80,0
120,note_on,0,0,2,,,,,,,,,0,,,59,34
120,note_on,59,0,2,,,,,,,,,0,,,56,34
120,note_on,0,0,2,,,,,,,,,0,,,63,40
150,note_on,0,0,1,,,,,,,,,0,,,83,34
150,note_on,30,0,1,,,,,,,,,0,,,80,0
180,note_on,30,0,1,,,,,,,,,0,,,83,0
180,note_on,0,0,1,,,,,,,,,0,,,80,40
210,note_on,0,0,1,,,,,,,,,0,,,75,34
210,note_on,30,0,1,,,,,,,,,0,,,80,0
240,note_on,30,0,1,,,,,,,,,0,,,75,0
240,note_on,0,0,1,,,,,,,,,0,,,75,40
270,note_on,30,0,1,,,,,,,,,0,,,75,0
270,note_on,0,0,1,,,,,,,,,0,,,80,34
300,note_on,30,0,1,,,,,,,,,0,,,80,0
300,note_on,0,0,1,,,,,,,,,0,,,75,40
330,note_on,0,0,1,,,,,,,,,0,,,71,34
330,note_on,30,0,1,,,,,,,,,0,,,75,0
360,note_on,0,0,1,,,,,,,,,0,,,71,40
360,note_on,30,0,1,,,,,,,,,0,,,71,0
390,note_on,30,0,1,,,,,,,,,0,,,71,0
390,note_on,0,0,1,,,,,,,,,0,,,75,34
420,note_on,30,0,1,,,,,,,,,0,,,75,0
420,note_on,0,0,1,,,,,,,,,0,,,71,40
450,note_on,0,0,1,,,,,,,,,0,,,68,34
450,note_on,30,0,1,,,,,,,,,0,,,71,0
480,note_on,0,0,1,,,,,,,,,0,,,68,40
480,note_on,30,0,1,,,,,,,,,0,,,68,0
510,note_on,30,0,1,,,,,,,,,0,,,68,0
510,note_on,0,0,1,,,,,,,,,0,,,71,34
540,note_on,0,0,1,,,,,,,,,0,,,68,40
540,note_on,30,0,1,,,,,,,,,0,,,71,0
570,note_on,0,0,1,,,,,,,,,0,,,63,34
570,note_on,30,0,1,,,,,,,,,0,,,68,0
600,note_on,0,0,2,,,,,,,,,0,,,56,0
600,note_on,0,0,1,,,,,,,,,0,,,70,36
600,note_on,0,0,1,,,,,,,,,0,,,67,30
600,note_on,30,0,1,,,,,,,,,0,,,63,0
600,note_on,0,0,2,,,,,,,,,0,,,63,34
600,note_on,0,0,2,,,,,,,,,0,,,51,28
600,note_on,0,0,2,,,,,,,,,0,,,58,28
600,note_on,480,0,2,,,,,,,,,0,,,59,0
600,note_on,0,0,2,,,,,,,,,0,,,63,0
602,set_tempo,602,1,0,,,,,,480000,,,,,,,
627,control_change,27,0,2,,,,,,,,,0,64,0,,
660,note_on,0,0,2,,,,,,,,,0,,,58,0
660,note_on,0,0,2,,,,,,,,,0,,,51,0
660,note_on,33,0,2,,,,,,,,,0,,,63,0
660,note_on,0,0,1,,,,,,,,,0,,,67,0
660,note_on,60,0,1,,,,,,,,,0,,,70,0
720,note_on,60,0,2,,,,,,,,,0,,,44,40
720,note_on,60,0,1,,,,,,,,,0,,,83,40
722,set_tempo,120,1,0,,,,,,400000,,,,,,,
724,control_change,4,0,2,,,,,,,,,0,64,127,,
750,note_on,30,0,1,,,,,,,,,0,,,83,0
750,note_on,0,0,1,,,,,,,,,0,,,87,34
780,note_on,56,0,2,,,,,,,,,0,,,44,0
780,note_on,30,0,1,,,,,,,,,0,,,87,0
780,note_on,0,0,1,,,,,,,,,0,,,83,40
810,note_on,30,0,1,,,,,,,,,0,,,83,0
810,note_on,0,0,1,,,,,,,,,0,,,80,34
840,note_on,0,0,1,,,,,,,,,0,,,80,40
840,note_on,30,0,1,,,,,,,,,0,,,80,0
840,note_on,60,0,2,,,,,,,,,0,,,56,34
840,note_on,0,0,2,,,,,,,,,0,,,63,40
840,note_on,0,0,2,,,,,,,,,0,,,59,34
870,note_on,0,0,1,,,,,,,,,0,,,83,34
870,note_on,30,0,1,,,,,,,,,0,,,80,0
900,note_on,0,0,1,,,,,,,,,0,,,80,40
900,note_on,30,0,1,,,,,,,,,0,,,83,0
930,note_on,0,0,1,,,,,,,,,0,,,75,34
930,note_on,30,0,1,,,,,,,,,0,,,80,0
960,note_on,0,0,1,,,,,,,,,0,,,75,40
960,note_on,30,0,1,,,,,,,,,0,,,75,0
990,note_on,30,0,1,,,,,,,,,0,,,75,0
990,note_on,0,0,1,,,,,,,,,0,,,80,34
1020,note_on,30,0,1,,,,,,,,,0,,,80,0
1020,note_on,0,0,1,,,,,,,,,0,,,75,40
1050,note_on,30,0,1,,,,,,,,,0,,,75,0
1050,note_on,0,0,1,,,,,,,,,0,,,71,34
1080,note_on,30,0,1,,,,,,,,,0,,,71,0
1080,note_on,0,0,1,,,,,,,,,0,,,71,40
1110,note_on,30,0,1,,,,,,,,,0,,,71,0
1110,note_on,0,0,1,,,,,,,,,0,,,75,34
1140,note_on,0,0,1,,,,,,,,,0,,,71,40
1140,note_on,30,0,1,,,,,,,,,0,,,75,0
1170,note_on,0,0,1,,,,,,,,,0,,,68,34
1170,note_on,30,0,1,,,,,,,,,0,,,71,0
1200,note_on,30,0,1,,,,,,,,,0,,,68,0
1200,note_on,0,0,1,,,,,,,,,0,,,68,40
1230,note_on,0,0,1,,,,,,,,,0,,,71,34
1230,note_on,30,0,1,,,,,,,,,0,,,68,0
1260,note_on,30,0,1,,,,,,,,,0,,,71,0
1260,note_on,0,0,1,,,,,,,,,0,,,68,40
1290,note_on,30,0,1,,,,,,,,,0,,,68,0
1290,note_on,0,0,1,,,,,,,,,0,,,63,34
1318,set_tempo,596,1,0,,,,,,502092,,,,,,,
1320,note_on,0,0,2,,,,,,,,,0,,,63,0
1320,note_on,480,0,2,,,,,,,,,0,,,59,0
1320,note_on,0,0,2,,,,,,,,,0,,,63,34
1320,note_on,0,0,2,,,,,,,,,0,,,58,28
1320,note_on,30,0,1,,,,,,,,,0,,,63,0
1320,note_on,0,0,1,,,,,,,,,0,,,67,30
1320,note_on,0,0,1,,,,,,,,,0,,,70,36
1320,note_on,0,0,2,,,,,,,,,0,,,56,0
1320,note_on,0,0,2,,,,,,,,,0,,,51,28
1359,control_change,39,0,2,,,,,,,,,0,64,0,,
1380,note_on,60,0,1,,,,,,,,,0,,,70,0
1380,note_on,0,0,1,,,,,,,,,0,,,67,0
1380,note_on,21,0,2,,,,,,,,,0,,,58,0
1380,note_on,0,0,2,,,,,,,,,0,,,63,0
1380,note_on,0,0,2,,,,,,,,,0,,,51,0
1440,note_on,60,0,2,,,,,,,,,0,,,63,27
1440,note_on,0,0,2,,,,,,,,,0,,,56,27
1440,note_on,0,0,2,,,,,,,,,0,,,59,27
1440,note_on,0,0,1,,,,,,,,,0,,,71,31
1440,note_on,60,0,1,,,,,,,,,0,,,68,31
1442,set_tempo,124,1,0,,,,,,502092,,,,,,,
1558,set_tempo,116,1,0,,,,,,428571,,,,,,,
1560,note_on,0,0,1,,,,,,,,,0,,,67,31
1560,note_on,0,0,1,,,,,,,,,0,,,68,0
1560,note_on,120,0,1,,,,,,,,,0,,,71,0
1560,note_on,0,0,2,,,,,,,,,0,,,64,27
1560,note_on,120,0,2,,,,,,,,,0,,,59,0
1560,note_on,0,0,2,,,,,,,,,0,,,56,0
1560,note_on,0,0,2,,,,,,,,,0,,,63,0
1560,note_on,0,0,2,,,,,,,,,0,,,51,27
1560,note_on,0,0,2,,,,,,,,,0,,,58,27
1560,note_on,0,0,1,,,,,,,,,0,,,70,31
1560,note_on,0,0,1,,,,,,,,,0,,,76,31
1680,note_on,0,0,1,,,,,,,,,0,,,76,36
1680,note_on,0,0,2,,,,,,,,,0,,,51,31
1680,note_on,0,0,1,,,,,,,,,0,,,70,36
1680,note_on,0,0,1,,,,,,,,,0,,,67,36
1680,note_on,0,0,1,,,,,,,,,0,,,67,0
1680,note_on,0,0,1,,,,,,,,,0,,,70,0
1680,note_on,120,0,1,,,,,,,,,0,,,76,0
1680,note_on,0,0,2,,,,,,,,,0,,,64,31
1680,note_on,120,0,2,,,,,,,,,0,,,64,0
1680,note_on,0,0,2,,,,,,,,,0,,,58,0
1680,note_on,0,0,2,,,,,,,,,0,,,51,0
1680,note_on,0,0,2,,,,,,,,,0,,,58,31
1800,note_on,0,0,1,,,,,,,,,0,,,70,37
1800,note_on,0,0,2,,,,,,,,,0,,,51,31
1800,note_on,0,0,2,,,,,,,,,0,,,58,0
1800,note_on,0,0,2,,,,,,,,,0,,,64,0
1800,note_on,120,0,2,,,,,,,,,0,,,51,0
1800,note_on,0,0,2,,,,,,,,,0,,,64,31
1800,note_on,0,0,2,,,,,,,,,0,,,58,31
1800,note_on,120,0,1,,,,,,,,,0,,,76,0
1800,note_on,0,0,1,,,,,,,,,0,,,70,0
1800,note_on,0,0,1,,,,,,,,,0,,,67,0
1800,note_on,0,0,1,,,,,,,,,0,,,67,37
1800,note_on,0,0,1,,,,,,,,,0,,,76,37
1802,set_tempo,244,1,0,,,,,,500000,,,,,,,
1920,note_on,0,0,1,,,,,,,,,0,,,75,31
1920,note_on,0,0,1,,,,,,,,,0,,,70,31
1920,note_on,0,0,2,,,,,,,,,0,,,51,25
1920,note_on,0,0,2,,,,,,,,,0,,,58,25
1920,note_on,0,0,2,,,,,,,,,0,,,51,0
1920,note_on,0,0,2,,,,,,,,,0,,,64,0
1920,note_on,0,0,2,,,,,,,,,0,,,63,25
1920,note_on,120,0,1,,,,,,,,,0,,,76,0
1920,note_on,0,0,1,,,,,,,,,0,,,70,0
1920,note_on,0,0,1,,,,,,,,,0,,,67,0
1920,note_on,0,0,1,,,,,,,,,0,,,67,31
1920,note_on,120,0,2,,,,,,,,,0,,,58,0
2038,set_tempo,236,1,0,,,,,,545455,,,,,,,
2040,note_on,0,0,1,,,,,,,,,0,,,73,31
2040,note_on,0,0,2,,,,,,,,,0,,,58,25
2040,note_on,0,0,2,,,,,,,,,0,,,51,25
2040,note_on,0,0,2,,,,,,,,,0,,,51,0
2040,note_on,120,0,1,,,,,,,,,0,,,75,0
2040,note_on,0,0,1,,,,,,,,,0,,,70,0
2040,note_on,0,0,1,,,,,,,,,0,,,67,0
2040,note_on,0,0,1,,,,,,,,,0,,,67,31
2040,note_on,0,0,1,,,,,,,,,0,,,70,31
2040,note_on,0,0,2,,,,,,,,,0,,,61,25
2040,note_on,0,0,2,,,,,,,,,0,,,58,0
2040,note_on,120,0,2,,,,,,,,,0,,,63,0
2160,note_on,0,0,1,,,,,,,,,0,,,67,0
2160,set_tempo,122,1,0,,,,,,400000,,,,,,,
2160,note_on,0,0,2,,,,,,,,,0,,,44,40
2160,note_on,0,0,2,,,,,,,,,0,,,61,0
2160,note_on,0,0,1,,,,,,,,,0,,,83,40
2160,note_on,0,0,2,,,,,,,,,0,,,58,0
2160,note_on,0,0,1,,,,,,,,,0,,,70,0
2160,note_on,120,0,1,,,,,,,,,0,,,73,0
2160,note_on,120,0,2,,,,,,,,,0,,,51,0
2167,control_change,7,0,2,,,,,,,,,0,64,127,,
2190,note_on,0,0,1,,,,,,,,,0,,,87,34
2190,note_on,30,0,1,,,,,,,,,0,,,83,0
2220,note_on,53,0,2,,,,,,,,,0,,,44,0
2220,note_on,0,0,1,,,,,,,,,0,,,83,40
2220,note_on,30,0,1,,,,,,,,,0,,,87,0
2250,note_on,30,0,1,,,,,,,,,0,,,83,0
2250,note_on,0,0,1,,,,,,,,,0,,,80,34
2280,note_on,30,0,1,,,,,,,,,0,,,80,0
2280,note_on,0,0,1,,,,,,,,,0,,,80,40
2280,note_on,60,0,2,,,,,,,,,0,,,56,34
2280,note_on,0,0,2,,,,,,,,,0,,,59,34
2280,note_on,0,0,2,,,,,,,,,0,,,63,40
2310,note_on,30,0,1,,,,,,,,,0,,,80,0
2310,note_on,0,0,1,,,,,,,,,0,,,83,34
2340,note_on,30,0,1,,,,,,,,,0,,,83,0
2340,note_on,0,0,1,,,,,,,,,0,,,80,40
2370,note_on,0,0,1,,,,,,,,,0,,,75,34
2370,note_on,30,0,1,,,,,,,,,0,,,80,0
2400,note_on,30,0,1,,,,,,,,,0,,,75,0
2400,note_on,0,0,1,,,,,,,,,0,,,75,40
2430,note_on,0,0,1,,,,,,,,,0,,,80,34
2430,note_on,30,0,1,,,,,,,,,0,,,75,0
2460,note_on,30,0,1,,,,,,,,,0,,,80,0
2460,note_on,0,0,1,,,,,,,,,0,,,75,40
2490,note_on,30,0,1,,,,,,,,,0,,,75,0
2490,note_on,0,0,1,,,,,,,,,0,,,71,34
2520,note_on,0,0,1,,,,,,,,,0,,,71,40
2520,note_on,30,0,1,,,,,,,,,0,,,71,0
2550,note_on,0,0,1,,,,,,,,,0,,,75,34
2550,note_on,30,0,1,,,,,,,,,0,,,71,0
2580,note_on,30,0,1,,,,,,,,,0,,,75,0
2580,note_on,0,0,1,,,,,,,,,0,,,71,40
2610,note_on,30,0,1,,,,,,,,,0,,,71,0
2610,note_on,0,0,1,,,,,,,,,0,,,68,34
2640,note_on,30,0,1,,,,,,,,,0,,,68,0
2640,note_on,0,0,1,,,,,,,,,0,,,68,40
2670,note_on,0,0,1,,,,,,,,,0,,,71,34
2670,note_on,30,0,1,,,,,,,,,0,,,68,0
2700,note_on,30,0,1,,,,,,,,,0,,,71,0
2700,note_on,0,0,1,,,,,,,,,0,,,68,40
2730,note_on,30,0,1,,,,,,,,,0,,,68,0
2730,note_on,0,0,1,,,,,,,,,0,,,63,34
2760,note_on,0,0,1,,,,,,,,,0,,,70,36
2760,note_on,30,0,1,,,,,,,,,0,,,63,0
2760,note_on,0,0,1,,,,,,,,,0,,,67,30
2760,note_on,0,0,2,,,,,,,,,0,,,63,0
2760,set_tempo,600,1,0,,,,,,480000,,,,,,,
2760,note_on,480,0,2,,,,,,,,,0,,,59,0
2760,note_on,0,0,2,,,,,,,,,0,,,56,0
2760,note_on,0,0,2,,,,,,,,,0,,,58,26
2760,note_on,0,0,2,,,,,,,,,0,,,63,31
2760,note_on,0,0,2,,,,,,,,,0,,,51,26
2794,control_change,34,0,2,,,,,,,,,0,64,0,,
2820,note_on,26,0,2,,,,,,,,,0,,,58,0
2820,note_on,0,0,1,,,,,,,,,0,,,67,0
2820,note_on,60,0,1,,,,,,,,,0,,,70,0
2820,note_on,0,0,2,,,,,,,,,0,,,51,0
2820,note_on,0,0,2,,,,,,,,,0,,,63,0
2880,note_on,60,0,1,,,,,,,,,0,,,83,40
2880,note_on,60,0,2,,,,,,,,,0,,,44,40
2882,set_tempo,122,1,0,,,,,,400000,,,,,,,
2887,control_change,7,0,2,,,,,,,,,0,64,127,,
2910,note_on,0,0,1,,,,,,,,,0,,,87,34
2910,note_on,30,0,1,,,,,,,,,0,,,83,0
2940,note_on,53,0,2,,,,,,,,,0,,,44,0
2940,note_on,0,0,1,,,,,,,,,0,,,83,40
2940,note_on,30,0,1,,,,,,,,,0,,,87,0
2970,note_on,0,0,1,,,,,,,,,0,,,80,34
2970,note_on,30,0,1,,,,,,,,,0,,,83,0
3000,note_on,30,0,1,,,,,,,,,0,,,80,0
3000,note_on,0,0,1,,,,,,,,,0,,,80,40
3000,note_on,60,0,2,,,,,,,,,0,,,59,34
3000,note_on,0,0,2,,,,,,,,,0,,,63,40
3000,note_on,0,0,2,,,,,,,,,0,,,56,34
3030,note_on,30,0,1,,,,,,,,,0,,,80,0
3030,note_on,0,0,1,,,,,,,,,0,,,83,34
3060,note_on,30,0,1,,,,,,,,,0,,,83,0
3060,note_on,0,0,1,,,,,,,,,0,,,80,40
3090,note_on,30,0,1,,,,,,,,,0,,,80,0
3090,note_on,0,0,1,,,,,,,,,0,,,75,34
3120,note_on,0,0,1,,,,,,,,,0,,,75,40
3120,note_on,30,0,1,,,,,,,,,0,,,75,0
3150,note_on,0,0,1,,,,,,,,,0,,,80,34
3150,note_on,30,0,1,,,,,,,,,0,,,75,0
3180,note_on,0,0,1,,,,,,,,,0,,,75,40
3180,note_on,30,0,1,,,,,,,,,0,,,80,0
3210,note_on,30,0,1,,,,,,,,,0,,,75,0
3210,note_on,0,0,1,,,,,,,,,0,,,71,34
3240,note_on,30,0,1,,,,,,,,,0,,,71,0
3240,note_on,0,0,1,,,,,,,,,0,,,71,40
3270,note_on,30,0,1,,,,,,,,,0,,,71,0
3270,note_on,0,0,1,,,,,,,,,0,,,75,34
3300,note_on,30,0,1,,,,,,,,,0,,,75,0
3300,note_on,0,0,1,,,,,,,,,0,,,71,40
3330,note_on,30,0,1,,,,,,,,,0,,,71,0
3330,note_on,0,0,1,,,,,,,,,0,,,68,34
3360,note_on,30,0,1,,,,,,,,,0,,,68,0
3360,note_on,0,0,1,,,,,,,,,0,,,68,40
3390,note_on,30,0,1,,,,,,,,,0,,,68,0
3390,note_on,0,0,1,,,,,,,,,0,,,71,34
3420,note_on,30,0,1,,,,,,,,,0,,,71,0
3420,note_on,0,0,1,,,,,,,,,0,,,68,40
3450,note_on,0,0,1,,,,,,,,,0,,,63,34
3450,note_on,30,0,1,,,,,,,,,0,,,68,0
3480,set_tempo,598,1,0,,,,,,461538,,,,,,,
3480,note_on,0,0,1,,,,,,,,,0,,,70,36
3480,note_on,0,0,1,,,,,,,,,0,,,67,30
3480,note_on,0,0,2,,,,,,,,,0,,,51,27
3480,note_on,0,0,2,,,,,,,,,0,,,63,32
3480,note_on,0,0,2,,,,,,,,,0,,,58,27
3480,note_on,0,0,2,,,,,,,,,0,,,59,0
3480,note_on,0,0,2,,,,,,,,,0,,,63,0
3480,note_on,480,0,2,,,,,,,,,0,,,56,0
3480,note_on,30,0,1,,,,,,,,,0,,,63,0
3527,control_change,47,0,2,,,,,,,,,0,64,0,,
3540,note_on,0,0,2,,,,,,,,,0,,,58,0
3540,note_on,0,0,1,,,,,,,,,0,,,70,0
3540,note_on,60,0,1,,,,,,,,,0,,,67,0
3540,note_on,13,0,2,,,,,,,,,0,,,51,0
3540,note_on,0,0,2,,,,,,,,,0,,,63,0
3600,set_tempo,120,1,0,,,,,,502092,,,,,,,
3600,note_on,60,0,1,,,,,,,,,0,,,68,31
3600,note_on,0,0,2,,,,,,,,,0,,,56,27
3600,note_on,60,0,2,,,,,,,,,0,,,59,27
3600,note_on,0,0,1,,,,,,,,,0,,,71,31
3600,note_on,0,0,2,,,,,,,,,0,,,63,27
3602,set_tempo,2,1,0,,,,,,502092,,,,,,,
3718,set_tempo,116,1,0,,,,,,428571,,,,,,,
3720,note_on,0,0,2,,,,,,,,,0,,,58,27
3720,note_on,0,0,1,,,,,,,,,0,,,66,31
3720,note_on,0,0,1,,,,,,,,,0,,,70,31
3720,note_on,0,0,1,,,,,,,,,0,,,76,31
3720,note_on,0,0,1,,,,,,,,,0,,,68,0
3720,note_on,0,0,2,,,,,,,,,0,,,54,27
3720,note_on,120,0,2,,,,,,,,,0,,,63,0
3720,note_on,0,0,2,,,,,,,,,0,,,56,0
3720,note_on,120,0,1,,,,,,,,,0,,,71,0
3720,note_on,0,0,2,,,,,,,,,0,,,64,27
3720,note_on,0,0,2,,,,,,,,,0,,,59,0
3840,note_on,0,0,2,,,,,,,,,0,,,58,31
3840,note_on,0,0,2,,,,,,,,,0,,,54,0
3840,note_on,0,0,2,,,,,,,,,0,,,64,0
3840,note_on,0,0,2,,,,,,,,,0,,,64,31
3840,note_on,0,0,1,,,,,,,,,0,,,76,36
3840,note_on,0,0,1,,,,,,,,,0,,,70,36
3840,note_on,0,0,1,,,,,,,,,0,,,66,36
3840,note_on,0,0,1,,,,,,,,,0,,,76,0
3840,note_on,0,0,1,,,,,,,,,0,,,70,0
3840,note_on,120,0,1,,,,,,,,,0,,,66,0
3840,note_on,0,0,2,,,,,,,,,0,,,54,31
3840,note_on,120,0,2,,,,,,,,,0,,,58,0
3960,note_on,0,0,2,,,,,,,,,0,,,54,31
3960,note_on,0,0,2,,,,,,,,,0,,,64,0
3960,note_on,0,0,2,,,,,,,,,0,,,58,31
3960,note_on,120,0,2,,,,,,,,,0,,,58,0
3960,note_on,0,0,2,,,,,,,,,0,,,54,0
3960,note_on,0,0,1,,,,,,,,,0,,,76,37
3960,note_on,0,0,1,,,,,,,,,0,,,66,37
3960,note_on,0,0,1,,,,,,,,,0,,,66,0
3960,note_on,0,0,1,,,,,,,,,0,,,70,0
3960,note_on,120,0,1,,,,,,,,,0,,,76,0
3960,note_on,0,0,1,,,,,,,,,0,,,70,37
3960,note_on,0,0,2,,,,,,,,,0,,,64,31
3962,set_tempo,244,1,0,,,,,,500000,,,,,,,
4080,note_on,0,0,1,,,,,,,,,0,,,66,0
4080,note_on,0,0,2,,,,,,,,,0,,,58,25
4080,note_on,120,0,1,,,,,,,,,0,,,76,0
4080,note_on,0,0,1,,,,,,,,,0,,,70,0
4080,note_on,120,0,2,,,,,,,,,0,,,54,0
4080,note_on,0,0,2,,,,,,,,,0,,,64,0
4080,note_on,0,0,2,,,,,,,,,0,,,58,0
4080,note_on,0,0,2,,,,,,,,,0,,,54,25
4080,note_on,0,0,2,,,,,,,,,0,,,63,25
4080,note_on,0,0,1,,,,,,,,,0,,,75,31
4080,note_on,0,0,1,,,,,,,,,0,,,70,31
4080,note_on,0,0,1,,,,,,,,,0,,,66,31
4198,set_tempo,236,1,0,,,,,,545455,,,,,,,
4200,note_on,120,0,1,,,,,,,,,0,,,66,0
4200,note_on,0,0,1,,,,,,,,,0,,,70,0
4200,note_on,0,0,1,,,,,,,,,0,,,75,0
4200,note_on,0,0,1,,,,,,,,,0,,,70,31
4200,note_on,0,0,2,,,,,,,,,0,,,63,0
4200,note_on,120,0,2,,,,,,,,,0,,,58,0
4200,note_on,0,0,1,,,,,,,,,0,,,74,31
4200,note_on,0,0,2,,,,,,,,,0,,,54,25
4200,note_on,0,0,2,,,,,,,,,0,,,58,25
4200,note_on,0,0,1,,,,,,,,,0,,,66,31
4200,note_on,0,0,2,,,,,,,,,0,,,62,25
4200,note_on,0,0,2,,,,,,,,,0,,,54,0
4320,note_on,120,0,2,,,,,,,,,0,,,58,0
4320,note_on,0,0,2,,,,,,,,,0,,,54,0
4320,note_on,0,0,2,,,,,,,,,0,,,62,0
4320,note_on,0,0,2,,,,,,,,,0,,,47,50
4320,control_change,0,0,2,,,,,,,,,0,64,127,,
4320,set_tempo,122,1,0,,,,,,400000,,,,,,,
4320,control_change,0,0,1,,,,,,,,,0,91,127,,
4320,note_on,0,0,1,,,,,,,,,0,,,87,50
4320,note_on,0,0,1,,,,,,,,,0,,,66,0
4320,note_on,120,0,1,,,,,,,,,0,,,74,0
4320,note_on,0,0,1,,,,,,,,,0,,,70,0
4322,control_change,2,0,2,,,,,,,,,0,91,126,,
4350,note_on,30,0,1,,,,,,,,,0,,,87,0
4350,note_on,0,0,1,,,,,,,,,0,,,90,42
4380,note_on,58,0,2,,,,,,,,,0,,,47,0
4380,note_on,30,0,1,,,,,,,,,0,,,90,0
4380,note_on,0,0,1,,,,,,,,,0,,,87,50
4410,note_on,30,0,1,,,,,,,,,0,,,87,0
4410,note_on,0,0,1,,,,,,,,,0,,,83,42
4440,note_on,0,0,2,,,,,,,,,0,,,54,42
4440,note_on,60,0,2,,,,,,,,,0,,,63,50
4440,note_on,0,0,2,,,,,,,,,0,,,59,42
4440,note_on,30,0,1,,,,,,,,,0,,,83,0
4440,note_on,0,0,1,,,,,,,,,0,,,83,50
4470,note_on,0,0,1,,,,,,,,,0,,,87,42
4470,note_on,30,0,1,,,,,,,,,0,,,83,0
4500,note_on,0,0,1,,,,,,,,,0,,,83,50
4500,note_on,30,0,1,,,,,,,,,0,,,87,0
4530,note_on,0,0,1,,,,,,,,,0,,,78,42
4530,note_on,30,0,1,,,,,,,,,0,,,83,0
4560,note_on,0,0,1,,,,,,,,,0,,,78,50
4560,note_on,30,0,1,,,,,,,,,0,,,78,0
4590,note_on,0,0,1,,,,,,,,,0,,,83,42
4590,note_on,30,0,1,,,,,,,,,0,,,78,0
4620,note_on,0,0,1,,,,,,,,,0,,,78,50
4620,note_on,30,0,1,,,,,,,,,0,,,83,0
4650,note_on,30,0,1,,,,,,,,,0,,,78,0
4650,note_on,0,0,1,,,,,,,,,0,,,75,42
4680,note_on,0,0,1,,,,,,,,,0,,,75,50
4680,note_on,30,0,1,,,,,,,,,0,,,75,0
4710,note_on,0,0,1,,,,,,,,,0,,,78,42
4710,note_on,30,0,1,,,,,,,,,0,,,75,0
4740,note_on,0,0,1,,,,,,,,,0,,,75,50
4740,note_on,30,0,1,,,,,,,,,0,,,78,0
4770,note_on,0,0,1,,,,,,,,,0,,,71,42
4770,note_on,30,0,1,,,,,,,,,0,,,75,0
4800,note_on,0,0,1,,,,,,,,,0,,,71,50
4800,note_on,30,0,1,,,,,,,,,0,,,71,0
4830,note_on,0,0,1,,,,,,,,,0,,,75,42
4830,note_on,30,0,1,,,,,,,,,0,,,71,0
4860,note_on,30,0,1,,,,,,,,,0,,,75,0
4860,note_on,0,0,1,,,,,,,,,0,,,71,50
4890,note_on,30,0,1,,,,,,,,,0,,,71,0
4890,note_on,0,0,1,,,,,,,,,0,,,66,42
4920,note_on,30,0,1,,,,,,,,,0,,,66,0
4920,note_on,0,0,1,,,,,,,,,0,,,70,37
4920,note_on,0,0,1,,,,,,,,,0,,,73,45
4920,note_on,0,0,2,,,,,,,,,0,,,54,0
4920,note_on,0,0,2,,,,,,,,,0,,,54,35
4920,note_on,0,0,2,,,,,,,,,0,,,63,0
4920,note_on,480,0,2,,,,,,,,,0,,,59,0
4920,note_on,0,0,2,,,,,,,,,0,,,64,41
4922,set_tempo,602,1,0,,,,,,480000,,,,,,,
4944,control_change,24,0,2,,,,,,,,,0,64,0,,
4980,note_on,0,0,2,,,,,,,,,0,,,54,0
4980,note_on,36,0,2,,,,,,,,,0,,,64,0
4980,note_on,60,0,1,,,,,,,,,0,,,73,0
4980,note_on,0,0,1,,,,,,,,,0,,,70,0
5040,control_change,0,0,1,,,,,,,,,0,91,127,,
5040,set_tempo,118,1,0,,,,,,400000,,,,,,,
5040,note_on,60,0,1,,,,,,,,,0,,,87,50
5040,note_on,60,0,2,,,,,,,,,0,,,47,50
5042,control_change,2,0,2,,,,,,,,,0,91,126,,
5049,control_change,7,0,2,,,,,,,,,0,64,127,,
5070,note_on,0,0,1,,,,,,,,,0,,,90,42
5070,note_on,30,0,1,,,,,,,,,0,,,87,0
5100,note_on,0,0,1,,,,,,,,,0,,,87,50
5100,note_on,30,0,1,,,,,,,,,0,,,90,0
5100,note_on,51,0,2,,,,,,,,,0,,,47,0
5130,note_on,30,0,1,,,,,,,,,0,,,87,0
5130,note_on,0,0,1,,,,,,,,,0,,,83,42
5160,note_on,30,0,1,,,,,,,,,0,,,83,0
5160,note_on,60,0,2,,,,,,,,,0,,,59,42
5160,note_on,0,0,2,,,,,,,,,0,,,63,50
5160,note_on,0,0,2,,,,,,,,,0,,,54,42
5160,note_on,0,0,1,,,,,,,,,0,,,83,50
5190,note_on,30,0,1,,,,,,,,,0,,,83,0
5190,note_on,0,0,1,,,,,,,,,0,,,87,42
5220,note_on,30,0,1,,,,,,,,,0,,,87,0
5220,note_on,0,0,1,,,,,,,,,0,,,83,50
5250,note_on,30,0,1,,,,,,,,,0,,,83,0
5250,note_on,0,0,1,,,,,,,,,0,,,78,42
5280,note_on,0,0,1,,,,,,,,,0,,,78,50
5280,note_on,30,0,1,,,,,,,,,0,,,78,0
5310,note_on,30,0,1,,,,,,,,,0,,,78,0
5310,note_on,0,0,1,,,,,,,,,0,,,83,42
5340,note_on,30,0,1,,,,,,,,,0,,,83,0
5340,note_on,0,0,1,,,,,,,,,0,,,78,50
5370,note_on,30,0,1,,,,,,,,,0,,,78,0
5370,note_on,0,0,1,,,,,,,,,0,,,75,42
5400,note_on,30,0,1,,,,,,,,,0,,,75,0
5400,note_on,0,0,1,,,,,,,,,0,,,75,50
5430,note_on,30,0,1,,,,,,,,,0,,,75,0
5430,note_on,0,0,1,,,,,,,,,0,,,78,42
5460,note_on,30,0,1,,,,,,,,,0,,,78,0
5460,note_on,0,0,1,,,,,,,,,0,,,75,50
5490,note_on,30,0,1,,,,,,,,,0,,,75,0
5490,note_on,0,0,1,,,,,,,,,0,,,71,42
5520,note_on,30,0,1,,,,,,,,,0,,,71,0
5520,note_on,0,0,1,,,,,,,,,0,,,71,50
5550,note_on,30,0,1,,,,,,,,,0,,,71,0
5550,note_on,0,0,1,,,,,,,,,0,,,75,42
5580,note_on,30,0,1,,,,,,,,,0,,,75,0
5580,note_on,0,0,1,,,,,,,,,0,,,71,50
5610,note_on,30,0,1,,,,,,,,,0,,,71,0
5610,note_on,0,0,1,,,,,,,,,0,,,66,42
5640,note_on,0,0,2,,,,,,,,,0,,,63,0
5640,note_on,480,0,2,,,,,,,,,0,,,54,0
5640,note_on,0,0,2,,,,,,,,,0,,,54,35
5640,set_tempo,600,1,0,,,,,,461538,,,,,,,
5640,note_on,0,0,2,,,,,,,,,0,,,64,41
5640,note_on,30,0,1,,,,,,,,,0,,,66,0
5640,note_on,0,0,1,,,,,,,,,0,,,73,45
5640,note_on,0,0,2,,,,,,,,,0,,,59,0
5640,note_on,0,0,1,,,,,,,,,0,,,70,37
5667,control_change,27,0,2,,,,,,,,,0,64,0,,
5700,note_on,60,0,1,,,,,,,,,0,,,73,0
5700,note_on,0,0,1,,,,,,,,,0,,,70,0
5700,note_on,0,0,2,,,,,,,,,0,,,64,0
5700,note_on,33,0,2,,,,,,,,,0,,,54,0
5760,note_on,60,0,1,,,,,,,,,0,,,71,41
5760,note_on,0,0,1,,,,,,,,,0,,,75,41
5760,note_on,60,0,2,,,,,,,,,0,,,59,36
5760,note_on,0,0,2,,,,,,,,,0,,,63,36
5878,set_tempo,238,1,0,,,,,,428571,,,,,,,
5880,note_on,120,0,2,,,,,,,,,0,,,63,0
5880,note_on,0,0,2,,,,,,,,,0,,,59,0
5880,note_on,0,0,2,,,,,,,,,0,,,54,41
5880,note_on,0,0,2,,,,,,,,,0,,,64,41
5880,note_on,120,0,1,,,,,,,,,0,,,75,0
5880,note_on,0,0,1,,,,,,,,,0,,,70,47
5880,note_on,0,0,1,,,,,,,,,0,,,71,0
5880,note_on,0,0,1,,,,,,,,,0,,,80,47
5880,note_on,0,0,1,,,,,,,,,0,,,73,47
6000,note_on,120,0,1,,,,,,,,,0,,,73,0
6000,note_on,0,0,1,,,,,,,,,0,,,80,0
6000,note_on,0,0,1,,,,,,,,,0,,,70,0
6000,note_on,0,0,1,,,,,,,,,0,,,80,48
6000,note_on,120,0,2,,,,,,,,,0,,,64,0
6000,note_on,0,0,1,,,,,,,,,0,,,73,48
6000,note_on,0,0,2,,,,,,,,,0,,,54,0
6000,note_on,0,0,2,,,,,,,,,0,,,54,45
6000,note_on,0,0,2,,,,,,,,,0,,,64,45
6000,note_on,0,0,1,,,,,,,,,0,,,70,48
6114,set_tempo,236,1,0,,,,,,472441,,,,,,,
6120,note_on,0,0,1,,,,,,,,,0,,,70,49
6120,note_on,0,0,1,,,,,,,,,0,,,73,49
6120,note_on,0,0,1,,,,,,,,,0,,,80,49
6120,note_on,0,0,1,,,,,,,,,0,,,80,0
6120,note_on,0,0,1,,,,,,,,,0,,,73,0
6120,note_on,0,0,2,,,,,,,,,0,,,64,45
6120,note_on,0,0,2,,,,,,,,,0,,,54,0
6120,note_on,0,0,2,,,,,,,,,0,,,54,45
6120,note_on,120,0,1,,,,,,,,,0,,,70,0
6120,note_on,120,0,2,,,,,,,,,0,,,64,0
6240,note_on,120,0,2,,,,,,,,,0,,,64,0
6240,note_on,0,0,2,,,,,,,,,0,,,54,0
6240,note_on,0,0,2,,,,,,,,,0,,,63,36
6240,note_on,0,0,2,,,,,,,,,0,,,54,36
6240,note_on,0,0,1,,,,,,,,,0,,,70,39
6240,note_on,0,0,1,,,,,,,,,0,,,78,39
6240,note_on,0,0,1,,,,,,,,,0,,,80,0
6240,note_on,0,0,1,,,,,,,,,0,,,73,0
6240,note_on,120,0,1,,,,,,,,,0,,,70,0
6240,note_on,0,0,1,,,,,,,,,0,,,75,39
6358,set_tempo,244,1,0,,,,,,545455,,,,,,,
6360,note_on,0,0,1,,,,,,,,,0,,,70,0
6360,note_on,0,0,2,,,,,,,,,0,,,54,36
6360,note_on,0,0,2,,,,,,,,,0,,,61,36
6360,note_on,0,0,2,,,,,,,,,0,,,63,0
6360,note_on,120,0,2,,,,,,,,,0,,,54,0
6360,note_on,120,0,1,,,,,,,,,0,,,75,0
6360,note_on,0,0,1,,,,,,,,,0,,,78,0
6360,note_on,0,0,1,,,,,,,,,0,,,70,39
6360,note_on,0,0,1,,,,,,,,,0,,,76,39
6480,note_on,0,0,1,,,,,,,,,0,,,76,0
6480,note_on,120,0,1,,,,,,,,,0,,,70,0
6480,set_tempo,122,1,0,,,,,,400000,,,,,,,
6480,control_change,0,0,1,,,,,,,,,0,91,127,,
6480,note_on,0,0,2,,,,,,,,,0,,,47,50
6480,note_on,0,0,2,,,,,,,,,0,,,61,0
6480,note_on,120,0,2,,,,,,,,,0,,,54,0
6480,note_on,0,0,1,,,,,,,,,0,,,86,50
6482,control_change,2,0,2,,,,,,,,,0,91,126,,
6486,control_change,4,0,2,,,,,,,,,0,64,127,,
6510,note_on,0,0,1,,,,,,,,,0,,,90,42
6510,note_on,30,0,1,,,,,,,,,0,,,86,0
6540,note_on,30,0,1,,,,,,,,,0,,,90,0
6540,note_on,54,0,2,,,,,,,,,0,,,47,0
6540,note_on,0,0,1,,,,,,,,,0,,,86,50
6570,note_on,0,0,1,,,,,,,,,0,,,83,42
6570,note_on,30,0,1,,,,,,,,,0,,,86,0
6600,note_on,0,0,2,,,,,,,,,0,,,62,50
6600,note_on,60,0,2,,,,,,,,,0,,,59,42
6600,note_on,0,0,2,,,,,,,,,0,,,54,42
6600,note_on,0,0,1,,,,,,,,,0,,,83,50
6600,note_on,30,0,1,,,,,,,,,0,,,83,0
6630,note_on,30,0,1,,,,,,,,,0,,,83,0
6630,note_on,0,0,1,,,,,,,,,0,,,86,42
6660,note_on,0,0,1,,,,,,,,,0,,,83,50
6660,note_on,30,0,1,,,,,,,,,0,,,86,0
6690,note_on,30,0,1,,,,,,,,,0,,,83,0
6690,note_on,0,0,1,,,,,,,,,0,,,78,42
6720,note_on,30,0,1,,,,,,,,,0,,,78,0
6720,note_on,0,0,1,,,,,,,,,0,,,78,50
6750,note_on,30,0,1,,,,,,,,,0,,,78,0
6750,note_on,0,0,1,,,,,,,,,0,,,83,42
6780,note_on,30,0,1,,,,,,,,,0,,,83,0
6780,note_on,0,0,1,,,,,,,,,0,,,78,50
6810,note_on,30,0,1,,,,,,,,,0,,,78,0
6810,note_on,0,0,1,,,,,,,,,0,,,74,42
6840,note_on,0,0,1,,,,,,,,,0,,,74,50
6840,note_on,30,0,1,,,,,,,,,0,,,74,0
6870,note_on,30,0,1,,,,,,,,,0,,,74,0
6870,note_on,0,0,1,,,,,,,,,0,,,78,42
6900,note_on,30,0,1,,,,,,,,,0,,,78,0
6900,note_on,0,0,1,,,,,,,,,0,,,74,50
6930,note_on,30,0,1,,,,,,,,,0,,,74,0
6930,note_on,0,0,1,,,,,,,,,0,,,71,42
6960,note_on,30,0,1,,,,,,,,,0,,,71,0
6960,note_on,0,0,1,,,,,,,,,0,,,71,50
6990,note_on,30,0,1,,,,,,,,,0,,,71,0
6990,note_on,0,0,1,,,,,,,,,0,,,74,42
7020,note_on,30,0,1,,,,,,,,,0,,,74,0
7020,note_on,0,0,1,,,,,,,,,0,,,71,50
7050,note_on,0,0,1,,,,,,,,,0,,,66,42
7050,note_on,30,0,1,,,,,,,,,0,,,71,0
7080,note_on,0,0,1,,,,,,,,,0,,,70,37
7080,note_on,0,0,2,,,,,,,,,0,,,59,0
7080,note_on,0,0,2,,,,,,,,,0,,,54,34
7080,note_on,0,0,2,,,,,,,,,0,,,64,40
7080,note_on,480,0,2,,,,,,,,,0,,,54,0
7080,note_on,30,0,1,,,,,,,,,0,,,66,0
7080,note_on,0,0,1,,,,,,,,,0,,,73,45
7080,note_on,0,0,2,,,,,,,,,0,,,62,0
7082,set_tempo,602,1,0,,,,,,480000,,,,,,,
7120,control_change,40,0,2,,,,,,,,,0,64,0,,
7140,note_on,20,0,2,,,,,,,,,0,,,64,0
7140,note_on,0,0,2,,,,,,,,,0,,,54,0
7140,note_on,60,0,1,,,,,,,,,0,,,70,0
7140,note_on,0,0,1,,,,,,,,,0,,,73,0
7200,note_on,60,0,1,,,,,,,,,0,,,86,50
7200,control_change,0,0,1,,,,,,,,,0,91,127,,
7200,set_tempo,118,1,0,,,,,,400000,,,,,,,
7200,note_on,60,0,2,,,,,,,,,0,,,47,50
7202,control_change,2,0,2,,,,,,,,,0,91,126,,
7209,control_change,7,0,2,,,,,,,,,0,64,127,,
7230,note_on,30,0,1,,,,,,,,,0,,,86,0
7230,note_on,0,0,1,,,,,,,,,0,,,90,42
7260,note_on,30,0,1,,,,,,,,,0,,,90,0
7260,note_on,51,0,2,,,,,,,,,0,,,47,0
7260,note_on,0,0,1,,,,,,,,,0,,,86,50
7290,note_on,30,0,1,,,,,,,,,0,,,86,0
7290,note_on,0,0,1,,,,,,,,,0,,,83,42
7320,note_on,0,0,1,,,,,,,,,0,,,83,50
7320,note_on,30,0,1,,,,,,,,,0,,,83,0
7320,note_on,0,0,2,,,,,,,,,0,,,59,42
7320,note_on,60,0,2,,,,,,,,,0,,,62,50
7320,note_on,0,0,2,,,,,,,,,0,,,54,42
7350,note_on,0,0,1,,,,,,,,,0,,,86,42
7350,note_on,30,0,1,,,,,,,,,0,,,83,0
7380,note_on,0,0,1,,,,,,,,,0,,,83,50
7380,note_on,30,0,1,,,,,,,,,0,,,86,0
7410,note_on,30,0,1,,,,,,,,,0,,,83,0
7410,note_on,0,0,1,,,,,,,,,0,,,78,42
7440,note_on,30,0,1,,,,,,,,,0,,,78,0
7440,note_on,0,0,1,,,,,,,,,0,,,78,50
7470,note_on,30,0,1,,,,,,,,,0,,,78,0
7470,note_on,0,0,1,,,,,,,,,0,,,83,43
7500,note_on,30,0,1,,,,,,,,,0,,,83,0
7500,note_on,0,0,1,,,,,,,,,0,,,78,50
7530,note_on,0,0,1,,,,,,,,,0,,,74,42
7530,note_on,30,0,1,,,,,,,,,0,,,78,0
7560,note_on,0,0,1,,,,,,,,,0,,,74,50
7560,note_on,30,0,1,,,,,,,,,0,,,74,0
7590,note_on,0,0,1,,,,,,,,,0,,,78,42
7590,note_on,30,0,1,,,,,,,,,0,,,74,0
7620,note_on,30,0,1,,,,,,,,,0,,,78,0
7620,note_on,0,0,1,,,,,,,,,0,,,74,50
7650,note_on,0,0,1,,,,,,,,,0,,,71,42
7650,note_on,30,0,1,,,,,,,,,0,,,74,0
7680,note_on,0,0,1,,,,,,,,,0,,,71,50
7680,note_on,30,0,1,,,,,,,,,0,,,71,0
7710,note_on,0,0,1,,,,,,,,,0,,,74,42
7710,note_on,30,0,1,,,,,,,,,0,,,71,0
7740,note_on,0,0,1,,,,,,,,,0,,,71,50
7740,note_on,30,0,1,,,,,,,,,0,,,74,0
7770,note_on,30,0,1,,,,,,,,,0,,,71,0
7770,note_on,0,0,1,,,,,,,,,0,,,66,42
7800,note_on,0,0,2,,,,,,,,,0,,,54,35
7800,note_on,480,0,2,,,,,,,,,0,,,59,0
7800,note_on,0,0,2,,,,,,,,,0,,,54,0
7800,note_on,0,0,2,,,,,,,,,0,,,62,0
7800,note_on,0,0,2,,,,,,,,,0,,,64,41
7800,note_on,0,0,1,,,,,,,,,0,,,73,45
7800,note_on,0,0,1,,,,,,,,,0,,,70,45
7800,note_on,30,0,1,,,,,,,,,0,,,66,0
7802,set_tempo,602,1,0,,,,,,480000,,,,,,,
7837,control_change,37,0,2,,,,,,,,,0,64,0,,
7860,note_on,23,0,2,,,,,,,,,0,,,64,0
7860,note_on,0,0,2,,,,,,,,,0,,,54,0
7860,note_on,60,0,1,,,,,,,,,0,,,73,0
7860,note_on,0,0,1,,,,,,,,,0,,,70,0
7918,set_tempo,116,1,0,,,,,,517241,,,,,,,
7920,note_on,60,0,2,,,,,,,,,0,,,62,40
7920,note_on,0,0,2,,,,,,,,,0,,,59,40
7920,note_on,0,0,1,,,,,,,,,0,,,71,41
7920,note_on,0,0,1,,,,,,,,,0,,,66,41
7920,note_on,60,0,1,,,,,,,,,0,,,74,41
8038,set_tempo,120,1,0,,,,,,428571,,,,,,,
8040,note_on,0,0,1,,,,,,,,,0,,,73,50
8040,note_on,0,0,1,,,,,,,,,0,,,74,0
8040,note_on,0,0,1,,,,,,,,,0,,,76,50
8040,note_on,0,0,1,,,,,,,,,0,,,83,50
8040,note_on,120,0,1,,,,,,,,,0,,,71,0
8040,note_on,120,0,2,,,,,,,,,0,,,59,0
8040,note_on,0,0,1,,,,,,,,,0,,,66,0
8040,note_on,0,0,2,,,,,,,,,0,,,57,45
8040,note_on,0,0,2,,,,,,,,,0,,,67,45
8040,note_on,0,0,2,,,,,,,,,0,,,62,0
8160,note_on,0,0,1,,,,,,,,,0,,,73,48
8160,note_on,0,0,1,,,,,,,,,0,,,76,48
8160,note_on,0,0,1,,,,,,,,,0,,,83,48
8160,note_on,0,0,1,,,,,,,,,0,,,73,0
8160,note_on,120,0,1,,,,,,,,,0,,,83,0
8160,note_on,0,0,1,,,,,,,,,0,,,76,0
8160,note_on,0,0,2,,,,,,,,,0,,,57,43
8160,note_on,120,0,2,,,,,,,,,0,,,67,0
8160,note_on,0,0,2,,,,,,,,,0,,,57,0
8160,note_on,0,0,2,,,,,,,,,0,,,67,43
8280,note_on,0,0,1,,,,,,,,,0,,,76,46
8280,note_on,0,0,1,,,,,,,,,0,,,73,46
8280,note_on,0,0,1,,,,,,,,,0,,,83,46
8280,note_on,0,0,1,,,,,,,,,0,,,83,0
8280,note_on,0,0,1,,,,,,,,,0,,,76,0
8280,note_on,0,0,2,,,,,,,,,0,,,67,41
8280,note_on,120,0,2,,,,,,,,,0,,,67,0
8280,note_on,120,0,1,,,,,,,,,0,,,73,0
8280,note_on,0,0,2,,,,,,,,,0,,,57,41
8280,note_on,0,0,2,,,,,,,,,0,,,57,0
8400,note_on,0,0,1,,,,,,,,,0,,,81,44
8400,note_on,0,0,1,,,,,,,,,0,,,73,44
8400,note_on,0,0,2,,,,,,,,,0,,,57,39
8400,note_on,0,0,2,,,,,,,,,0,,,66,39
8400,note_on,0,0,2,,,,,,,,,0,,,67,0
8400,note_on,120,0,2,,,,,,,,,0,,,57,0
8400,note_on,120,0,1,,,,,,,,,0,,,76,0
8400,note_on,0,0,1,,,,,,,,,0,,,73,0
8400,note_on,0,0,1,,,,,,,,,0,,,83,0
8400,note_on,0,0,1,,,,,,,,,0,,,78,44
8520,note_on,120,0,1,,,,,,,,,0,,,81,0
8520,note_on,0,0,1,,,,,,,,,0,,,78,0
8520,note_on,0,0,1,,,,,,,,,0,,,73,0
8520,note_on,0,0,1,,,,,,,,,0,,,73,42
8520,note_on,0,0,2,,,,,,,,,0,,,64,37
8520,note_on,0,0,2,,,,,,,,,0,,,66,0
8520,note_on,120,0,2,,,,,,,,,0,,,57,0
8520,note_on,0,0,2,,,,,,,,,0,,,57,37
8520,note_on,0,0,1,,,,,,,,,0,,,79,42
8640,note_on,0,0,2,,,,,,,,,0,,,64,0
8640,note_on,0,0,2,,,,,,,,,0,,,59,36
8640,note_on,0,0,1,,,,,,,,,0,,,78,38
8640,note_on,0,0,2,,,,,,,,,0,,,62,36
8640,note_on,0,0,1,,,,,,,,,0,,,73,0
8640,note_on,120,0,1,,,,,,,,,0,,,79,0
8640,set_tempo,602,1,0,,,,,,447761,,,,,,,
8640,note_on,120,0,2,,,,,,,,,0,,,57,0
8640,note_on,0,0,1,,,,,,,,,0,,,74,38
8760,note_on,0,0,1,,,,,,,,,0,,,74,0
8760,note_on,0,0,1,,,,,,,,,0,,,79,46
8760,note_on,0,0,1,,,,,,,,,0,,,73,46
8760,note_on,0,0,1,,,,,,,,,0,,,70,46
8760,note_on,120,0,2,,,,,,,,,0,,,62,0
8760,set_tempo,120,1,0,,,,,,428571,,,,,,,
8760,note_on,120,0,1,,,,,,,,,0,,,78,0
8760,note_on,0,0,2,,,,,,,,,0,,,59,0
8760,note_on,0,0,2,,,,,,,,,0,,,64,42
8760,note_on,0,0,2,,,,,,,,,0,,,54,42
8880,note_on,0,0,1,,,,,,,,,0,,,73,46
8880,note_on,0,0,1,,,,,,,,,0,,,70,46
8880,note_on,0,0,1,,,,,,,,,0,,,79,46
8880,note_on,0,0,1,,,,,,,,,0,,,79,0
8880,note_on,120,0,1,,,,,,,,,0,,,70,0
8880,note_on,120,0,2,,,,,,,,,0,,,54,0
8880,note_on,0,0,2,,,,,,,,,0,,,64,0
8880,note_on,0,0,1,,,,,,,,,0,,,73,0
8880,note_on,0,0,2,,,,,,,,,0,,,54,41
8880,note_on,0,0,2,,,,,,,,,0,,,64,41
9000,note_on,0,0,1,,,,,,,,,0,,,79,46
9000,note_on,0,0,1,,,,,,,,,0,,,70,46
9000,note_on,0,0,1,,,,,,,,,0,,,73,46
9000,note_on,0,0,1,,,,,,,,,0,,,79,0
9000,note_on,0,0,1,,,,,,,,,0,,,73,0
9000,note_on,120,0,1,,,,,,,,,0,,,70,0
9000,note_on,0,0,2,,,,,,,,,0,,,54,41
9000,note_on,0,0,2,,,,,,,,,0,,,64,41
9000,note_on,0,0,2,,,,,,,,,0,,,64,0
9000,note_on,120,0,2,,,,,,,,,0,,,54,0
9120,note_on,0,0,2,,,,,,,,,0,,,54,39
9120,note_on,0,0,2,,,,,,,,,0,,,61,39
9120,note_on,120,0,2,,,,,,,,,0,,,54,0
9120,note_on,0,0,1,,,,,,,,,0,,,73,44
9120,note_on,120,0,1,,,,,,,,,0,,,79,0
9120,note_on,0,0,1,,,,,,,,,0,,,70,0
9120,note_on,0,0,1,,,,,,,,,0,,,73,0
9120,note_on,0,0,2,,,,,,,,,0,,,64,0
9120,note_on,0,0,1,,,,,,,,,0,,,78,44
9120,note_on,0,0,1,,,,,,,,,0,,,70,44
9240,note_on,0,0,1,,,,,,,,,0,,,73,0
9240,note_on,0,0,2,,,,,,,,,0,,,58,37
9240,note_on,0,0,2,,,,,,,,,0,,,54,37
9240,note_on,0,0,1,,,,,,,,,0,,,73,42
9240,note_on,0,0,1,,,,,,,,,0,,,76,42
9240,note_on,0,0,1,,,,,,,,,0,,,70,0
9240,note_on,0,0,2,,,,,,,,,0,,,54,0
9240,note_on,120,0,1,,,,,,,,,0,,,78,0
9240,note_on,120,0,2,,,,,,,,,0,,,61,0
9360,note_on,0,0,2,,,,,,,,,0,,,59,36
9360,note_on,120,0,2,,,,,,,,,0,,,58,0
9360,note_on,0,0,2,,,,,,,,,0,,,54,0
9360,note_on,120,0,1,,,,,,,,,0,,,73,0
9360,note_on,0,0,1,,,,,,,,,0,,,76,0
9360,note_on,0,0,1,,,,,,,,,0,,,75,41
9360,note_on,0,0,1,,,,,,,,,0,,,71,41
9360,note_on,0,0,2,,,,,,,,,0,,,56,36
9362,set_tempo,602,1,0,,,,,,463320,,,,,,,
9480,note_on,0,0,2,,,,,,,,,0,,,56,44
9480,note_on,0,0,2,,,,,,,,,0,,,56,0
9480,note_on,0,0,1,,,,,,,,,0,,,75,0
9480,note_on,0,0,2,,,,,,,,,0,,,61,44
9480,note_on,0,0,2,,,,,,,,,0,,,49,44
9480,note_on,120,0,2,,,,,,,,,0,,,59,0
9480,set_tempo,118,1,0,,,,,,428571,,,,,,,
9480,note_on,120,0,1,,,,,,,,,0,,,71,0
9480,note_on,0,0,1,,,,,,,,,0,,,76,49
9480,note_on,0,0,1,,,,,,,,,0,,,64,49
9480,note_on,0,0,1,,,,,,,,,0,,,68,49
9600,note_on,0,0,2,,,,,,,,,0,,,56,42
9600,note_on,0,0,2,,,,,,,,,0,,,56,0
9600,note_on,0,0,2,,,,,,,,,0,,,61,0
9600,note_on,120,0,2,,,,,,,,,0,,,49,0
9600,note_on,0,0,2,,,,,,,,,0,,,49,42
9600,note_on,120,0,1,,,,,,,,,0,,,68,0
9600,note_on,0,0,1,,,,,,,,,0,,,64,0
9600,note_on,0,0,1,,,,,,,,,0,,,76,0
9600,note_on,0,0,1,,,,,,,,,0,,,76,49
9600,note_on,0,0,1,,,,,,,,,0,,,68,49
9600,note_on,0,0,1,,,,,,,,,0,,,64,49
9600,note_on,0,0,2,,,,,,,,,0,,,61,42
9720,note_on,0,0,1,,,,,,,,,0,,,76,0
9720,note_on,120,0,2,,,,,,,,,0,,,56,0
9720,note_on,0,0,1,,,,,,,,,0,,,64,49
9720,note_on,0,0,1,,,,,,,,,0,,,68,49
9720,note_on,0,0,2,,,,,,,,,0,,,61,0
9720,note_on,0,0,2,,,,,,,,,0,,,49,0
9720,note_on,0,0,2,,,,,,,,,0,,,61,44
9720,note_on,0,0,2,,,,,,,,,0,,,49,44
9720,note_on,0,0,2,,,,,,,,,0,,,56,44
9720,note_on,120,0,1,,,,,,,,,0,,,64,0
9720,note_on,0,0,1,,,,,,,,,0,,,76,49
9720,note_on,0,0,1,,,,,,,,,0,,,68,0
9840,note_on,120,0,2,,,,,,,,,0,,,56,0
9840,note_on,0,0,2,,,,,,,,,0,,,49,0
9840,note_on,0,0,2,,,,,,,,,0,,,61,0
9840,note_on,0,0,2,,,,,,,,,0,,,51,43
9840,note_on,0,0,2,,,,,,,,,0,,,56,43
9840,note_on,0,0,2,,,,,,,,,0,,,59,43
9840,note_on,120,0,1,,,,,,,,,0,,,76,0
9840,note_on,0,0,1,,,,,,,,,0,,,68,0
9840,note_on,0,0,1,,,,,,,,,0,,,63,49
9840,note_on,0,0,1,,,,,,,,,0,,,75,49
9840,note_on,0,0,1,,,,,,,,,0,,,68,49
9840,note_on,0,0,1,,,,,,,,,0,,,64,0
9960,note_on,120,0,1,,,,,,,,,0,,,68,0
9960,note_on,0,0,1,,,,,,,,,0,,,75,0
9960,note_on,0,0,1,,,,,,,,,0,,,63,0
9960,note_on,0,0,1,,,,,,,,,0,,,68,47
9960,note_on,0,0,1,,,,,,,,,0,,,73,47
9960,note_on,0,0,1,,,,,,,,,0,,,61,47
9960,note_on,0,0,2,,,,,,,,,0,,,56,42
9960,note_on,0,0,2,,,,,,,,,0,,,52,42
9960,note_on,0,0,2,,,,,,,,,0,,,51,0
9960,note_on,120,0,2,,,,,,,,,0,,,59,0
9960,note_on,0,0,2,,,,,,,,,0,,,56,0
10080,note_on,120,0,1,,,,,,,,,0,,,61,0
10080,note_on,0,0,1,,,,,,,,,0,,,71,48
10080,note_on,0,0,1,,,,,,,,,0,,,73,0
10080,note_on,0,0,1,,,,,,,,,0,,,68,48
10080,note_on,0,0,1,,,,,,,,,0,,,63,48
10080,note_on,0,0,1,,,,,,,,,0,,,68,0
10080,note_on,0,0,2,,,,,,,,,0,,,52,0
10080,set_tempo,600,1,0,,,,,,447761,,,,,,,
10080,note_on,0,0,2,,,,,,,,,0,,,59,41
10080,note_on,120,0,2,,,,,,,,,0,,,56,0
10080,note_on,0,0,2,,,,,,,,,0,,,51,41
10080,note_on,0,0,2,,,,,,,,,0,,,56,41
10200,note_on,120,0,2,,,,,,,,,0,,,59,0
10200,note_on,0,0,1,,,,,,,,,0,,,71,48
10200,note_on,0,0,1,,,,,,,,,0,,,68,48
10200,note_on,0,0,1,,,,,,,,,0,,,63,48
10200,note_on,0,0,1,,,,,,,,,0,,,71,0
10200,note_on,0,0,1,,,,,,,,,0,,,68,0
10200,note_on,120,0,1,,,,,,,,,0,,,63,0
10200,note_on,0,0,2,,,,,,,,,0,,,51,40
10200,note_on,0,0,2,,,,,,,,,0,,,59,40
10200,note_on,0,0,2,,,,,,,,,0,,,56,40
10200,note_on,0,0,2,,,,,,,,,0,,,56,0
10200,note_on,0,0,2,,,,,,,,,0,,,51,0
10320,note_on,120,0,1,,,,,,,,,0,,,71,0
10320,note_on,0,0,1,,,,,,,,,0,,,68,0
10320,set_tempo,240,1,0,,,,,,502092,,,,,,,
10320,note_on,0,0,1,,,,,,,,,0,,,63,0
10320,note_on,0,0,1,,,,,,,,,0,,,68,48
10320,note_on,0,0,1,,,,,,,,,0,,,71,48
10320,note_on,0,0,2,,,,,,,,,0,,,56,40
10320,note_on,0,0,2,,,,,,,,,0,,,59,40
10320,note_on,0,0,2,,,,,,,,,0,,,51,40
10320,note_on,0,0,2,,,,,,,,,0,,,56,0
10320,note_on,0,0,2,,,,,,,,,0,,,59,0
10320,note_on,120,0,2,,,,,,,,,0,,,51,0
10320,note_on,0,0,1,,,,,,,,,0,,,63,48
10438,set_tempo,118,1,0,,,,,,446097,,,,,,,
10440,note_on,0,0,1,,,,,,,,,0,,,68,0
10440,note_on,0,0,1,,,,,,,,,0,,,63,0
10440,note_on,0,0,1,,,,,,,,,0,,,63,33
10440,note_on,0,0,1,,,,,,,,,0,,,70,33
10440,note_on,120,0,1,,,,,,,,,0,,,71,0
10440,note_on,0,0,1,,,,,,,,,0,,,67,33
10440,note_on,120,0,2,,,,,,,,,0,,,56,0
10440,note_on,0,0,2,,,,,,,,,0,,,59,0
10440,note_on,0,0,2,,,,,,,,,0,,,51,0
10440,note_on,0,0,2,,,,,,,,,0,,,55,31
10440,note_on,0,0,2,,,,,,,,,0,,,51,31
10440,note_on,0,0,2,,,,,,,,,0,,,58,31
10560,note_on,0,0,2,,,,,,,,,0,,,58,30
10560,note_on,120,0,1,,,,,,,,,0,,,63,0
10560,note_on,0,0,2,,,,,,,,,0,,,51,30
10560,note_on,0,0,2,,,,,,,,,0,,,55,0
10560,note_on,0,0,2,,,,,,,,,0,,,51,0
10560,note_on,120,0,2,,,,,,,,,0,,,58,0
10560,note_on,0,0,1,,,,,,,,,0,,,67,0
10560,note_on,0,0,1,,,,,,,,,0,,,63,34
10560,note_on,0,0,1,,,,,,,,,0,,,70,34
10560,note_on,0,0,2,,,,,,,,,0,,,55,30
10560,note_on,0,0,1,,,,,,,,,0,,,67,34
10560,note_on,0,0,1,,,,,,,,,0,,,70,0
10680,note_on,120,0,1,,,,,,,,,0,,,67,0
10680,note_on,0,0,1,,,,,,,,,0,,,63,0
10680,note_on,0,0,1,,,,,,,,,0,,,70,34
10680,note_on,0,0,1,,,,,,,,,0,,,67,34
10680,note_on,0,0,2,,,,,,,,,0,,,51,0
10680,note_on,0,0,1,,,,,,,,,0,,,70,0
10680,note_on,120,0,2,,,,,,,,,0,,,55,0
10680,note_on,0,0,1,,,,,,,,,0,,,63,34
10680,note_on,0,0,2,,,,,,,,,0,,,55,29
10680,note_on,0,0,2,,,,,,,,,0,,,58,29
10680,note_on,0,0,2,,,,,,,,,0,,,51,29
10680,note_on,0,0,2,,,,,,,,,0,,,58,0
10682,set_tempo,244,1,0,,,,,,524017,,,,,,,
10798,set_tempo,116,1,0,,,,,,400000,,,,,,,
10800,note_on,120,0,2,,,,,,,,,0,,,51,0
10800,note_on,0,0,2,,,,,,,,,0,,,44,40
10800,note_on,0,0,1,,,,,,,,,0,,,84,40
10800,note_on,0,0,1,,,,,,,,,0,,,63,0
10800,note_on,0,0,1,,,,,,,,,0,,,67,0
10800,note_on,120,0,1,,,,,,,,,0,,,70,0
10800,set_tempo,2,1,0,,,,,,400000,,,,,,,
10800,note_on,0,0,2,,,,,,,,,0,,,55,0
10800,note_on,0,0,2,,,,,,,,,0,,,58,0
10800,control_change,0,0,1,,,,,,,,,0,91,127,,
10802,control_change,2,0,2,,,,,,,,,0,91,126,,
10809,control_change,7,0,2,,,,,,,,,0,64,127,,
10830,note_on,0,0,1,,,,,,,,,0,,,87,34
10830,note_on,30,0,1,,,,,,,,,0,,,84,0
10860,note_on,30,0,1,,,,,,,,,0,,,87,0
10860,note_on,0,0,1,,,,,,,,,0,,,84,40
10890,note_on,30,0,1,,,,,,,,,0,,,84,0
10890,note_on,0,0,1,,,,,,,,,0,,,80,34
10920,note_on,0,0,2,,,,,,,,,0,,,60,40
10920,note_on,111,0,2,,,,,,,,,0,,,44,0
10920,note_on,0,0,2,,,,,,,,,0,,,51,34
10920,note_on,0,0,2,,,,,,,,,0,,,56,34
10920,note_on,0,0,1,,,,,,,,,0,,,80,40
10920,note_on,30,0,1,,,,,,,,,0,,,80,0
10950,note_on,30,0,1,,,,,,,,,0,,,80,0
10950,note_on,0,0,1,,,,,,,,,0,,,84,34
10980,note_on,0,0,1,,,,,,,,,0,,,80,40
10980,note_on,30,0,1,,,,,,,,,0,,,84,0
11010,note_on,30,0,1,,,,,,,,,0,,,80,0
11010,note_on,0,0,1,,,,,,,,,0,,,75,34
11040,note_on,0,0,1,,,,,,,,,0,,,75,40
11040,note_on,30,0,1,,,,,,,,,0,,,75,0
11070,note_on,30,0,1,,,,,,,,,0,,,75,0
11070,note_on,0,0,1,,,,,,,,,0,,,80,34
11100,note_on,0,0,1,,,,,,,,,0,,,75,40
11100,note_on,30,0,1,,,,,,,,,0,,,80,0
11130,note_on,30,0,1,,,,,,,,,0,,,75,0
11130,note_on,0,0,1,,,,,,,,,0,,,72,34
11160,note_on,30,0,1,,,,,,,,,0,,,72,0
11160,note_on,0,0,1,,,,,,,,,0,,,72,40
11190,note_on,30,0,1,,,,,,,,,0,,,72,0
11190,note_on,0,0,1,,,,,,,,,0,,,75,34
11220,note_on,0,0,1,,,,,,,,,0,,,72,40
11220,note_on,30,0,1,,,,,,,,,0,,,75,0
11250,note_on,30,0,1,,,,,,,,,0,,,72,0
11250,note_on,0,0,1,,,,,,,,,0,,,68,34
11280,note_on,30,0,1,,,,,,,,,0,,,68,0
11280,note_on,0,0,1,,,,,,,,,0,,,68,40
11310,note_on,30,0,1,,,,,,,,,0,,,68,0
11310,note_on,0,0,1,,,,,,,,,0,,,72,34
11340,note_on,30,0,1,,,,,,,,,0,,,72,0
11340,note_on,0,0,1,,,,,,,,,0,,,68,40
11370,note_on,30,0,1,,,,,,,,,0,,,68,0
11370,note_on,0,0,1,,,,,,,,,0,,,63,34
11400,note_on,0,0,1,,,,,,,,,0,,,67,30
11400,note_on,0,0,2,,,,,,,,,0,,,51,27
11400,note_on,0,0,2,,,,,,,,,0,,,61,32
11400,note_on,0,0,2,,,,,,,,,0,,,60,0
11400,note_on,0,0,2,,,,,,,,,0,,,56,0
11400,note_on,480,0,2,,,,,,,,,0,,,51,0
11400,note_on,30,0,1,,,,,,,,,0,,,63,0
11400,note_on,0,0,1,,,,,,,,,0,,,70,36
11402,set_tempo,602,1,0,,,,,,480000,,,,,,,
11430,control_change,30,0,2,,,,,,,,,0,64,0,,
11460,note_on,0,0,1,,,,,,,,,0,,,67,0
11460,note_on,30,0,2,,,,,,,,,0,,,51,0
11460,note_on,0,0,2,,,,,,,,,0,,,61,0
11460,note_on,60,0,1,,,,,,,,,0,,,70,0
11520,note_on,60,0,1,,,,,,,,,0,,,84,40
11520,control_change,0,0,1,,,,,,,,,0,91,127,,
11520,set_tempo,118,1,0,,,,,,400000,,,,,,,
11520,note_on,60,0,2,,,,,,,,,0,,,44,40
11522,control_change,2,0,2,,,,,,,,,0,91,126,,
11525,control_change,3,0,2,,,,,,,,,0,64,127,,
11550,note_on,0,0,1,,,,,,,,,0,,,87,34
11550,note_on,30,0,1,,,,,,,,,0,,,84,0
11580,note_on,0,0,1,,,,,,,,,0,,,84,40
11580,note_on,30,0,1,,,,,,,,,0,,,87,0
11610,note_on,30,0,1,,,,,,,,,0,,,84,0
11610,note_on,0,0,1,,,,,,,,,0,,,80,34
11640,note_on,30,0,1,,,,,,,,,0,,,80,0
11640,note_on,0,0,1,,,,,,,,,0,,,80,40
11640,note_on,115,0,2,,,,,,,,,0,,,44,0
11640,note_on,0,0,2,,,,,,,,,0,,,51,34
11640,note_on,0,0,2,,,,,,,,,0,,,56,34
11640,note_on,0,0,2,,,,,,,,,0,,,60,40
11670,note_on,0,0,1,,,,,,,,,0,,,84,34
11670,note_on,30,0,1,,,,,,,,,0,,,80,0
11700,note_on,30,0,1,,,,,,,,,0,,,84,0
11700,note_on,0,0,1,,,,,,,,,0,,,80,40
11730,note_on,30,0,1,,,,,,,,,0,,,80,0
11730,note_on,0,0,1,,,,,,,,,0,,,75,34
11760,note_on,30,0,1,,,,,,,,,0,,,75,0
11760,note_on,0,0,1,,,,,,,,,0,,,75,40
11790,note_on,30,0,1,,,,,,,,,0,,,75,0
11790,note_on,0,0,1,,,,,,,,,0,,,80,34
11820,note_on,30,0,1,,,,,,,,,0,,,80,0
11820,note_on,0,0,1,,,,,,,,,0,,,75,40
11850,note_on,0,0,1,,,,,,,,,0,,,72,34
11850,note_on,30,0,1,,,,,,,,,0,,,75,0
11880,note_on,0,0,1,,,,,,,,,0,,,72,40
11880,note_on,30,0,1,,,,,,,,,0,,,72,0
11910,note_on,30,0,1,,,,,,,,,0,,,72,0
11910,note_on,0,0,1,,,,,,,,,0,,,75,34
11940,note_on,30,0,1,,,,,,,,,0,,,75,0
11940,note_on,0,0,1,,,,,,,,,0,,,72,40
11970,note_on,30,0,1,,,,,,,,,0,,,72,0
11970,note_on,0,0,1,,,,,,,,,0,,,68,34
12000,note_on,0,0,1,,,,,,,,,0,,,68,40
12000,note_on,30,0,1,,,,,,,,,0,,,68,0
12030,note_on,0,0,1,,,,,,,,,0,,,72,34
12030,note_on,30,0,1,,,,,,,,,0,,,68,0
12060,note_on,0,0,1,,,,,,,,,0,,,68,40
12060,note_on,30,0,1,,,,,,,,,0,,,72,0
12090,note_on,30,0,1,,,,,,,,,0,,,68,0
12090,note_on,0,0,1,,,,,,,,,0,,,63,34
12120,note_on,0,0,2,,,,,,,,,0,,,61,34
12120,note_on,480,0,2,,,,,,,,,0,,,60,0
12120,note_on,0,0,2,,,,,,,,,0,,,56,0
12120,note_on,0,0,2,,,,,,,,,0,,,51,28
12120,note_on,30,0,1,,,,,,,,,0,,,63,0
12120,note_on,0,0,1,,,,,,,,,0,,,67,36
12120,note_on,0,0,1,,,,,,,,,0,,,70,36
12120,note_on,0,0,2,,,,,,,,,0,,,51,0
12122,set_tempo,602,1,0,,,,,,480000,,,,,,,
12136,control_change,16,0,2,,,,,,,,,0,64,0,,
12180,note_on,60,0,1,,,,,,,,,0,,,70,0
12180,note_on,0,0,1,,,,,,,,,0,,,67,0
12180,note_on,44,0,2,,,,,,,,,0,,,61,0
12180,note_on,0,0,2,,,,,,,,,0,,,51,0
12240,note_on,60,0,2,,,,,,,,,0,,,44,45
12240,set_tempo,118,1,0,,,,,,400000,,,,,,,
12240,control_change,60,0,1,,,,,,,,,0,91,127,,
12240,note_on,0,0,1,,,,,,,,,0,,,87,45
12242,control_change,2,0,2,,,,,,,,,0,91,126,,
12245,control_change,3,0,2,,,,,,,,,0,64,127,,
12270,note_on,0,0,1,,,,,,,,,0,,,92,38
12270,note_on,30,0,1,,,,,,,,,0,,,87,0
12300,note_on,30,0,1,,,,,,,,,0,,,92,0
12300,note_on,0,0,1,,,,,,,,,0,,,87,45
12330,note_on,30,0,1,,,,,,,,,0,,,87,0
12330,note_on,0,0,1,,,,,,,,,0,,,84,38
12360,note_on,0,0,1,,,,,,,,,0,,,84,45
12360,note_on,0,0,2,,,,,,,,,0,,,60,49
12360,note_on,0,0,2,,,,,,,,,0,,,56,41
12360,note_on,0,0,2,,,,,,,,,0,,,51,41
12360,note_on,30,0,1,,,,,,,,,0,,,84,0
12360,note_on,115,0,2,,,,,,,,,0,,,44,0
12390,note_on,30,0,1,,,,,,,,,0,,,84,0
12390,note_on,0,0,1,,,,,,,,,0,,,87,38
12420,note_on,30,0,1,,,,,,,,,0,,,87,0
12420,note_on,0,0,1,,,,,,,,,0,,,84,45
12450,note_on,30,0,1,,,,,,,,,0,,,84,0
12450,note_on,0,0,1,,,,,,,,,0,,,80,38
12480,note_on,0,0,1,,,,,,,,,0,,,80,45
12480,note_on,30,0,1,,,,,,,,,0,,,80,0
12510,note_on,0,0,1,,,,,,,,,0,,,84,38
12510,note_on,30,0,1,,,,,,,,,0,,,80,0
12540,note_on,0,0,1,,,,,,,,,0,,,80,45
12540,note_on,30,0,1,,,,,,,,,0,,,84,0
12570,note_on,30,0,1,,,,,,,,,0,,,80,0
12570,note_on,0,0,1,,,,,,,,,0,,,75,38
12600,note_on,0,0,1,,,,,,,,,0,,,75,45
12600,note_on,30,0,1,,,,,,,,,0,,,75,0
12630,note_on,30,0,1,,,,,,,,,0,,,75,0
12630,note_on,0,0,1,,,,,,,,,0,,,80,38
12660,note_on,30,0,1,,,,,,,,,0,,,80,0
12660,note_on,0,0,1,,,,,,,,,0,,,75,45
12690,note_on,30,0,1,,,,,,,,,0,,,75,0
12690,note_on,0,0,1,,,,,,,,,0,,,72,38
12720,note_on,30,0,1,,,,,,,,,0,,,72,0
12720,note_on,0,0,1,,,,,,,,,0,,,72,45
12750,note_on,0,0,1,,,,,,,,,0,,,75,38
12750,note_on,30,0,1,,,,,,,,,0,,,72,0
12780,note_on,30,0,1,,,,,,,,,0,,,75,0
12780,note_on,0,0,1,,,,,,,,,0,,,72,45
12810,note_on,30,0,1,,,,,,,,,0,,,72,0
12810,note_on,0,0,1,,,,,,,,,0,,,68,38
12840,note_on,0,0,1,,,,,,,,,0,,,70,40
12840,note_on,0,0,1,,,,,,,,,0,,,67,40
12840,note_on,30,0,1,,,,,,,,,0,,,68,0
12840,note_on,480,0,2,,,,,,,,,0,,,60,0
12840,note_on,0,0,2,,,,,,,,,0,,,56,0
12840,note_on,0,0,2,,,,,,,,,0,,,51,0
12840,note_on,0,0,2,,,,,,,,,0,,,51,33
12840,note_on,0,0,2,,,,,,,,,0,,,61,39
12842,set_tempo,602,1,0,,,,,,480000,,,,,,,
12861,control_change,21,0,2,,,,,,,,,0,64,0,,
12900,note_on,39,0,2,,,,,,,,,0,,,61,0
12900,note_on,0,0,2,,,,,,,,,0,,,51,0
12900,note_on,60,0,1,,,,,,,,,0,,,70,0
12900,note_on,0,0,1,,,,,,,,,0,,,67,0
12960,note_on,60,0,2,,,,,,,,,0,,,44,50
12960,set_tempo,118,1,0,,,,,,400000,,,,,,,
12960,control_change,0,0,1,,,,,,,,,0,91,127,,
12960,note_on,60,0,1,,,,,,,,,0,,,87,50
12962,control_change,2,0,2,,,,,,,,,0,91,126,,
12967,control_change,5,0,2,,,,,,,,,0,64,127,,
12990,note_on,0,0,1,,,,,,,,,0,,,92,42
12990,note_on,30,0,1,,,,,,,,,0,,,87,0
13020,note_on,0,0,1,,,,,,,,,0,,,87,50
13020,note_on,30,0,1,,,,,,,,,0,,,92,0
13050,note_on,0,0,1,,,,,,,,,0,,,84,42
13050,note_on,30,0,1,,,,,,,,,0,,,87,0
13080,note_on,113,0,2,,,,,,,,,0,,,44,0
13080,note_on,0,0,2,,,,,,,,,0,,,56,40
13080,note_on,30,0,1,,,,,,,,,0,,,84,0
13080,note_on,0,0,1,,,,,,,,,0,,,84,50
13080,note_on,0,0,2,,,,,,,,,0,,,60,48
13080,note_on,0,0,2,,,,,,,,,0,,,51,40
13110,note_on,30,0,1,,,,,,,,,0,,,84,0
13110,note_on,0,0,1,,,,,,,,,0,,,87,42
13140,note_on,30,0,1,,,,,,,,,0,,,87,0
13140,note_on,0,0,1,,,,,,,,,0,,,84,50
13170,note_on,30,0,1,,,,,,,,,0,,,84,0
13170,note_on,0,0,1,,,,,,,,,0,,,80,42
13200,note_on,30,0,1,,,,,,,,,0,,,80,0
13200,note_on,0,0,1,,,,,,,,,0,,,80,50
13230,note_on,0,0,1,,,,,,,,,0,,,84,42
13230,note_on,30,0,1,,,,,,,,,0,,,80,0
13260,note_on,0,0,1,,,,,,,,,0,,,80,50
13260,note_on,30,0,1,,,,,,,,,0,,,84,0
13290,note_on,0,0,1,,,,,,,,,0,,,75,42
13290,note_on,30,0,1,,,,,,,,,0,,,80,0
13320,note_on,0,0,1,,,,,,,,,0,,,75,50
13320,note_on,30,0,1,,,,,,,,,0,,,75,0
13350,note_on,30,0,1,,,,,,,,,0,,,75,0
13350,note_on,0,0,1,,,,,,,,,0,,,80,42
13380,note_on,30,0,1,,,,,,,,,0,,,80,0
13380,note_on,0,0,1,,,,,,,,,0,,,75,50
13410,note_on,0,0,1,,,,,,,,,0,,,72,42
13410,note_on,30,0,1,,,,,,,,,0,,,75,0
13440,note_on,30,0,1,,,,,,,,,0,,,72,0
13440,note_on,0,0,1,,,,,,,,,0,,,72,50
13470,note_on,30,0,1,,,,,,,,,0,,,72,0
13470,note_on,0,0,1,,,,,,,,,0,,,75,42
13500,note_on,30,0,1,,,,,,,,,0,,,75,0
13500,note_on,0,0,1,,,,,,,,,0,,,72,50
13530,note_on,30,0,1,,,,,,,,,0,,,72,0
13530,note_on,0,0,1,,,,,,,,,0,,,68,42
13560,note_on,0,0,1,,,,,,,,,0,,,70,45
13560,note_on,0,0,2,,,,,,,,,0,,,51,32
13560,note_on,0,0,2,,,,,,,,,0,,,61,38
13560,note_on,0,0,2,,,,,,,,,0,,,60,0
13560,note_on,0,0,1,,,,,,,,,0,,,67,45
13560,note_on,480,0,2,,,,,,,,,0,,,56,0
13560,note_on,0,0,2,,,,,,,,,0,,,51,0
13560,note_on,30,0,1,,,,,,,,,0,,,68,0
13562,set_tempo,602,1,0,,,,,,480000,,,,,,,
13579,control_change,19,0,2,,,,,,,,,0,64,0,,
13620,note_on,60,0,1,,,,,,,,,0,,,70,0
13620,note_on,0,0,1,,,,,,,,,0,,,67,0
13620,note_on,41,0,2,,,,,,,,,0,,,51,0
13620,note_on,0,0,2,,,,,,,,,0,,,61,0
13680,note_on,60,0,1,,,,,,,,,0,,,72,40
13680,set_tempo,118,1,0,,,,,,400000,,,,,,,
13680,note_on,60,0,2,,,,,,,,,0,,,44,40
13685,control_change,5,0,2,,,,,,,,,0,64,127,,
13710,note_on,0,0,1,,,,,,,,,0,,,75,34
13710,note_on,30,0,1,,,,,,,,,0,,,72,0
13740,note_on,0,0,1,,,,,,,,,0,,,72,40
13740,note_on,30,0,1,,,,,,,,,0,,,75,0
13770,note_on,0,0,1,,,,,,,,,0,,,68,34
13770,note_on,30,0,1,,,,,,,,,0,,,72,0
13800,note_on,115,0,2,,,,,,,,,0,,,44,0
13800,note_on,0,0,2,,,,,,,,,0,,,60,33
13800,note_on,0,0,2,,,,,,,,,0,,,54,27
13800,note_on,0,0,2,,,,,,,,,0,,,56,27
13800,note_on,30,0,1,,,,,,,,,0,,,68,0
13800,note_on,0,0,1,,,,,,,,,0,,,68,40
13830,note_on,0,0,1,,,,,,,,,0,,,72,34
13830,note_on,30,0,1,,,,,,,,,0,,,68,0
13860,note_on,30,0,1,,,,,,,,,0,,,72,0
13860,note_on,0,0,1,,,,,,,,,0,,,68,40
13890,note_on,30,0,1,,,,,,,,,0,,,68,0
13890,note_on,0,0,1,,,,,,,,,0,,,63,34
13920,set_tempo,240,1,0,,,,,,428571,,,,,,,
13920,note_on,30,0,1,,,,,,,,,0,,,63,0
13920,note_on,0,0,1,,,,,,,,,0,,,68,40
13943,control_change,143,0,2,,,,,,,,,0,64,0,,
13950,note_on,30,0,1,,,,,,,,,0,,,68,0
14040,note_on,0,0,2,,,,,,,,,0,,,60,0
14040,note_on,0,0,2,,,,,,,,,0,,,49,40
14040,control_change,0,0,2,,,,,,,,,0,64,127,,
14040,note_on,90,0,1,,,,,,,,,0,,,73,40
14040,set_tempo,120,1,0,,,,,,400000,,,,,,,
14040,note_on,0,0,2,,,,,,,,,0,,,56,0
14040,note_on,97,0,2,,,,,,,,,0,,,54,0
14070,note_on,0,0,1,,,,,,,,,0,,,77,34
14070,note_on,30,0,1,,,,,,,,,0,,,73,0
14100,note_on,0,0,1,,,,,,,,,0,,,73,40
14100,note_on,30,0,1,,,,,,,,,0,,,77,0
14130,note_on,0,0,1,,,,,,,,,0,,,68,34
14130,note_on,30,0,1,,,,,,,,,0,,,73,0
14160,note_on,120,0,2,,,,,,,,,0,,,49,0
14160,note_on,0,0,2,,,,,,,,,0,,,61,29
14160,note_on,30,0,1,,,,,,,,,0,,,68,0
14160,note_on,0,0,1,,,,,,,,,0,,,68,40
14160,note_on,0,0,2,,,,,,,,,0,,,53,25
14160,note_on,0,0,2,,,,,,,,,0,,,56,25
14190,note_on,0,0,1,,,,,,,,,0,,,73,34
14190,note_on,30,0,1,,,,,,,,,0,,,68,0
14220,note_on,0,0,1,,,,,,,,,0,,,68,40
14220,note_on,30,0,1,,,,,,,,,0,,,73,0
14250,note_on,30,0,1,,,,,,,,,0,,,68,0
14250,note_on,0,0,1,,,,,,,,,0,,,65,34
14280,set_tempo,240,1,0,,,,,,428571,,,,,,,
14280,note_on,0,0,1,,,,,,,,,0,,,68,40
14280,note_on,30,0,1,,,,,,,,,0,,,65,0
14301,control_change,141,0,2,,,,,,,,,0,64,0,,
14310,note_on,30,0,1,,,,,,,,,0,,,68,0
14398,set_tempo,118,1,0,,,,,,400000,,,,,,,
14400,note_on,0,0,2,,,,,,,,,0,,,39,40
14400,note_on,90,0,1,,,,,,,,,0,,,75,40
14400,note_on,0,0,2,,,,,,,,,0,,,61,0
14400,note_on,99,0,2,,,,,,,,,0,,,56,0
14400,note_on,0,0,2,,,,,,,,,0,,,53,0
14411,control_change,11,0,2,,,,,,,,,0,64,127,,
14430,note_on,30,0,1,,,,,,,,,0,,,75,0
14430,note_on,0,0,1,,,,,,,,,0,,,79,34
14460,note_on,30,0,1,,,,,,,,,0,,,79,0
14460,note_on,0,0,1,,,,,,,,,0,,,75,40
14490,note_on,30,0,1,,,,,,,,,0,,,75,0
14490,note_on,0,0,1,,,,,,,,,0,,,70,34
14520,note_on,0,0,1,,,,,,,,,0,,,70,40
14520,note_on,0,0,2,,,,,,,,,0,,,61,35
14520,note_on,0,0,2,,,,,,,,,0,,,58,29
14520,note_on,0,0,2,,,,,,,,,0,,,51,29
14520,note_on,109,0,2,,,,,,,,,0,,,39,0
14520,note_on,30,0,1,,,,,,,,,0,,,70,0
14550,note_on,30,0,1,,,,,,,,,0,,,70,0
14550,note_on,0,0,1,,,,,,,,,0,,,75,34
14580,note_on,30,0,1,,,,,,,,,0,,,75,0
14580,note_on,0,0,1,,,,,,,,,0,,,70,40
14610,note_on,30,0,1,,,,,,,,,0,,,70,0
14610,note_on,0,0,1,,,,,,,,,0,,,67,34
14640,note_on,0,0,1,,,,,,,,,0,,,70,40
14640,note_on,30,0,1,,,,,,,,,0,,,67,0
14642,set_tempo,244,1,0,,,,,,430108,,,,,,,
14666,control_change,146,0,2,,,,,,,,,0,64,0,,
14670,note_on,30,0,1,,,,,,,,,0,,,70,0
14760,note_on,0,0,2,,,,,,,,,0,,,58,0
14760,note_on,0,0,2,,,,,,,,,0,,,51,0
14760,note_on,0,0,2,,,,,,,,,0,,,44,40
14760,set_tempo,118,1,0,,,,,,401338,,,,,,,
14760,note_on,90,0,1,,,,,,,,,0,,,75,40
14760,note_on,94,0,2,,,,,,,,,0,,,61,0
14769,control_change,9,0,2,,,,,,,,,0,64,127,,
14790,note_on,30,0,1,,,,,,,,,0,,,75,0
14790,note_on,0,0,1,,,,,,,,,0,,,80,34
14820,note_on,30,0,1,,,,,,,,,0,,,80,0
14820,note_on,0,0,1,,,,,,,,,0,,,75,40
14850,note_on,30,0,1,,,,,,,,,0,,,75,0
14850,note_on,0,0,1,,,,,,,,,0,,,72,34
14880,note_on,0,0,1,,,,,,,,,0,,,72,40
14880,note_on,111,0,2,,,,,,,,,0,,,44,0
14880,note_on,0,0,2,,,,,,,,,0,,,60,37
14880,note_on,0,0,2,,,,,,,,,0,,,51,31
14880,note_on,0,0,2,,,,,,,,,0,,,56,31
14880,note_on,30,0,1,,,,,,,,,0,,,72,0
14910,note_on,0,0,1,,,,,,,,,0,,,75,34
14910,note_on,30,0,1,,,,,,,,,0,,,72,0
14940,note_on,0,0,1,,,,,,,,,0,,,72,40
14940,note_on,30,0,1,,,,,,,,,0,,,75,0
14970,note_on,30,0,1,,,,,,,,,0,,,72,0
14970,note_on,0,0,1,,,,,,,,,0,,,68,34
15000,set_tempo,240,1,0,,,,,,461538,,,,,,,
15000,note_on,30,0,1,,,,,,,,,0,,,68,0
15000,note_on,0,0,1,,,,,,,,,0,,,72,40
15019,control_change,139,0,2,,,,,,,,,0,64,0,,
15030,note_on,30,0,1,,,,,,,,,0,,,72,0
15120,note_on,0,0,2,,,,,,,,,0,,,56,0
15120,note_on,90,0,1,,,,,,,,,0,,,84,52
15120,note_on,101,0,2,,,,,,,,,0,,,60,0
15120,note_on,0,0,2,,,,,,,,,0,,,51,0
15120,note_on,0,0,2,,,,,,,,,0,,,44,52
15122,set_tempo,122,1,0,,,,,,401338,,,,,,,
15127,control_change,7,0,2,,,,,,,,,0,64,127,,
15150,note_on,0,0,1,,,,,,,,,0,,,87,44
15150,note_on,30,0,1,,,,,,,,,0,,,84,0
15180,note_on,30,0,1,,,,,,,,,0,,,87,0
15180,note_on,0,0,1,,,,,,,,,0,,,84,52
15210,note_on,30,0,1,,,,,,,,,0,,,84,0
15210,note_on,0,0,1,,,,,,,,,0,,,80,44
15240,note_on,30,0,1,,,,,,,,,0,,,80,0
15240,note_on,0,0,2,,,,,,,,,0,,,56,35
15240,note_on,0,0,2,,,,,,,,,0,,,54,35
15240,note_on,0,0,2,,,,,,,,,0,,,60,43
15240,note_on,113,0,2,,,,,,,,,0,,,44,0
15240,note_on,0,0,1,,,,,,,,,0,,,80,52
15270,note_on,30,0,1,,,,,,,,,0,,,80,0
15270,note_on,0,0,1,,,,,,,,,0,,,84,44
15300,note_on,0,0,1,,,,,,,,,0,,,80,52
15300,note_on,30,0,1,,,,,,,,,0,,,84,0
15330,note_on,30,0,1,,,,,,,,,0,,,80,0
15330,note_on,0,0,1,,,,,,,,,0,,,75,44
15360,note_on,30,0,1,,,,,,,,,0,,,75,0
15360,note_on,0,0,1,,,,,,,,,0,,,80,52
15360,set_tempo,238,1,0,,,,,,428571,,,,,,,
15381,control_change,141,0,2,,,,,,,,,0,64,0,,
15390,note_on,30,0,1,,,,,,,,,0,,,80,0
15480,note_on,0,0,2,,,,,,,,,0,,,49,60
15480,note_on,0,0,2,,,,,,,,,0,,,54,0
15480,note_on,99,0,2,,,,,,,,,0,,,56,0
15480,set_tempo,120,1,0,,,,,,402685,,,,,,,
15480,note_on,90,0,1,,,,,,,,,0,,,85,60
15480,control_change,0,0,2,,,,,,,,,0,64,127,,
15480,note_on,0,0,2,,,,,,,,,0,,,60,0
15510,note_on,30,0,1,,,,,,,,,0,,,85,0
15510,note_on,0,0,1,,,,,,,,,0,,,89,51
15540,note_on,0,0,1,,,,,,,,,0,,,85,60
15540,note_on,30,0,1,,,,,,,,,0,,,89,0
15570,note_on,0,0,1,,,,,,,,,0,,,80,51
15570,note_on,30,0,1,,,,,,,,,0,,,85,0
15600,note_on,0,0,1,,,,,,,,,0,,,80,60
15600,note_on,0,0,2,,,,,,,,,0,,,53,44
15600,note_on,120,0,2,,,,,,,,,0,,,49,0
15600,note_on,0,0,2,,,,,,,,,0,,,61,52
15600,note_on,0,0,2,,,,,,,,,0,,,56,44
15600,note_on,30,0,1,,,,,,,,,0,,,80,0
15630,note_on,30,0,1,,,,,,,,,0,,,80,0
15630,note_on,0,0,1,,,,,,,,,0,,,85,51
15660,note_on,30,0,1,,,,,,,,,0,,,85,0
15660,note_on,0,0,1,,,,,,,,,0,,,80,60
15690,note_on,30,0,1,,,,,,,,,0,,,80,0
15690,note_on,0,0,1,,,,,,,,,0,,,77,51
15720,note_on,0,0,1,,,,,,,,,0,,,80,60
15720,set_tempo,240,1,0,,,,,,428571,,,,,,,
15720,note_on,30,0,1,,,,,,,,,0,,,77,0
15739,control_change,139,0,2,,,,,,,,,0,64,0,,
15750,note_on,30,0,1,,,,,,,,,0,,,80,0
15840,set_tempo,120,1,0,,,,,,401338,,,,,,,
15840,note_on,101,0,2,,,,,,,,,0,,,56,0
15840,note_on,0,0,2,,,,,,,,,0,,,39,70
15840,note_on,0,0,2,,,,,,,,,0,,,53,0
15840,note_on,0,0,2,,,,,,,,,0,,,61,0
15840,note_on,90,0,1,,,,,,,,,0,,,87,70
15844,control_change,4,0,2,,,,,,,,,0,64,127,,
15870,note_on,30,0,1,,,,,,,,,0,,,87,0
15870,note_on,0,0,1,,,,,,,,,0,,,91,59
15900,note_on,0,0,1,,,,,,,,,0,,,87,70
15900,note_on,30,0,1,,,,,,,,,0,,,91,0
15930,note_on,30,0,1,,,,,,,,,0,,,87,0
15930,note_on,0,0,1,,,,,,,,,0,,,82,59
15960,note_on,116,0,2,,,,,,,,,0,,,39,0
15960,note_on,0,0,2,,,,,,,,,0,,,58,51
15960,note_on,0,0,1,,,,,,,,,0,,,82,70
15960,note_on,0,0,2,,,,,,,,,0,,,51,51
15960,note_on,0,0,2,,,,,,,,,0,,,61,61
15960,note_on,30,0,1,,,,,,,,,0,,,82,0
15990,note_on,30,0,1,,,,,,,,,0,,,82,0
15990,note_on,0,0,1,,,,,,,,,0,,,87,59
16020,note_on,30,0,1,,,,,,,,,0,,,87,0
16020,note_on,0,0,1,,,,,,,,,0,,,82,70
16050,note_on,30,0,1,,,,,,,,,0,,,82,0
16050,note_on,0,0,1,,,,,,,,,0,,,79,59
16080,note_on,30,0,1,,,,,,,,,0,,,79,0
16080,set_tempo,240,1,0,,,,,,428571,,,,,,,
16080,note_on,0,0,1,,,,,,,,,0,,,82,70
16084,control_change,124,0,2,,,,,,,,,0,64,0,,
16140,note_on,60,0,1,,,,,,,,,0,,,82,0
16200,note_on,60,0,1,,,,,,,,,0,,,87,80
16200,note_on,0,0,2,,,,,,,,,0,,,44,76
16200,note_on,0,0,2,,,,,,,,,0,,,58,0
16200,note_on,116,0,2,,,,,,,,,0,,,61,0
16200,set_tempo,120,1,0,,,,,,400000,,,,,,,
16200,note_on,0,0,2,,,,,,,,,0,,,51,0
16207,control_change,7,0,2,,,,,,,,,0,64,127,,
16230,note_on,0,0,1,,,,,,,,,0,,,92,68
16230,note_on,30,0,1,,,,,,,,,0,,,87,0
16260,note_on,0,0,1,,,,,,,,,0,,,87,80
16260,note_on,30,0,1,,,,,,,,,0,,,92,0
16290,note_on,0,0,1,,,,,,,,,0,,,84,68
16290,note_on,30,0,1,,,,,,,,,0,,,87,0
16320,note_on,0,0,2,,,,,,,,,0,,,51,53
16320,note_on,0,0,2,,,,,,,,,0,,,56,53
16320,note_on,113,0,2,,,,,,,,,0,,,44,0
16320,note_on,30,0,1,,,,,,,,,0,,,84,0
16320,note_on,0,0,1,,,,,,,,,0,,,84,80
16320,note_on,0,0,2,,,,,,,,,0,,,60,63
16350,note_on,30,0,1,,,,,,,,,0,,,84,0
16350,note_on,0,0,1,,,,,,,,,0,,,87,68
16380,note_on,30,0,1,,,,,,,,,0,,,87,0
16380,note_on,0,0,1,,,,,,,,,0,,,84,80
16410,note_on,0,0,1,,,,,,,,,0,,,80,68
16410,note_on,30,0,1,,,,,,,,,0,,,84,0
16438,set_tempo,238,1,0,,,,,,463320,,,,,,,
16440,note_on,0,0,1,,,,,,,,,0,,,84,80
16440,note_on,30,0,1,,,,,,,,,0,,,80,0
16466,control_change,146,0,2,,,,,,,,,0,64,0,,
16500,note_on,60,0,1,,,,,,,,,0,,,84,0
16560,note_on,94,0,2,,,,,,,,,0,,,51,0
16560,note_on,60,0,1,,,,,,,,,0,,,72,40
16560,note_on,0,0,2,,,,,,,,,0,,,51,50
16560,note_on,0,0,2,,,,,,,,,0,,,44,34
16560,note_on,0,0,2,,,,,,,,,0,,,56,0
16560,note_on,0,0,2,,,,,,,,,0,,,60,0
16561,set_tempo,123,1,0,,,,,,428571,,,,,,,
16565,control_change,5,0,2,,,,,,,,,0,64,127,,
16590,note_on,0,0,1,,,,,,,,,0,,,75,34
16590,note_on,30,0,1,,,,,,,,,0,,,72,0
16620,note_on,0,0,1,,,,,,,,,0,,,72,40
16620,note_on,30,0,1,,,,,,,,,0,,,75,0
16650,note_on,0,0,1,,,,,,,,,0,,,68,34
16650,note_on,30,0,1,,,,,,,,,0,,,72,0
16677,set_tempo,116,1,0,,,,,,400000,,,,,,,
16680,note_on,0,0,2,,,,,,,,,0,,,56,60
16680,note_on,30,0,1,,,,,,,,,0,,,68,0
16680,note_on,0,0,1,,,,,,,,,0,,,68,40
16680,note_on,115,0,2,,,,,,,,,0,,,51,0
16710,note_on,30,0,1,,,,,,,,,0,,,68,0
16710,note_on,0,0,1,,,,,,,,,0,,,72,34
16740,note_on,30,0,1,,,,,,,,,0,,,72,0
16740,note_on,0,0,1,,,,,,,,,0,,,68,40
16770,note_on,0,0,1,,,,,,,,,0,,,63,34
16770,note_on,30,0,1,,,,,,,,,0,,,68,0
16800,note_on,0,0,1,,,,,,,,,0,,,68,40
16800,note_on,30,0,1,,,,,,,,,0,,,63,0
16858,control_change,178,0,2,,,,,,,,,0,64,0,,
16860,note_on,2,0,2,,,,,,,,,0,,,56,0
16860,note_on,0,0,2,,,,,,,,,0,,,55,50
16860,note_on,60,0,1,,,,,,,,,0,,,68,0
16920,note_on,60,0,2,,,,,,,,,0,,,55,0
16920,note_on,0,0,2,,,,,,,,,0,,,44,0
16920,note_on,0,0,2,,,,,,,,,0,,,53,50
16920,note_on,0,0,2,,,,,,,,,0,,,49,34
16920,note_on,60,0,1,,,,,,,,,0,,,73,40
16920,set_tempo,243,1,0,,,,,,427046,,,,,,,
16920,control_change,0,0,2,,,,,,,,,0,64,127,,
16950,note_on,30,0,1,,,,,,,,,0,,,73,0
16950,note_on,0,0,1,,,,,,,,,0,,,77,34
16980,note_on,0,0,1,,,,,,,,,0,,,73,40
16980,note_on,30,0,1,,,,,,,,,0,,,77,0
17010,note_on,0,0,1,,,,,,,,,0,,,68,34
17010,note_on,30,0,1,,,,,,,,,0,,,73,0
17040,note_on,30,0,1,,,,,,,,,0,,,68,0
17040,note_on,0,0,1,,,,,,,,,0,,,68,40
17040,note_on,0,0,2,,,,,,,,,0,,,61,60
17040,note_on,120,0,2,,,,,,,,,0,,,53,0
17040,set_tempo,120,1,0,,,,,,400000,,,,,,,
17070,note_on,30,0,1,,,,,,,,,0,,,68,0
17070,note_on,0,0,1,,,,,,,,,0,,,73,34
17100,note_on,30,0,1,,,,,,,,,0,,,73,0
17100,note_on,0,0,1,,,,,,,,,0,,,68,40
17130,note_on,30,0,1,,,,,,,,,0,,,68,0
17130,note_on,0,0,1,,,,,,,,,0,,,65,34
17160,note_on,0,0,1,,,,,,,,,0,,,68,40
17160,note_on,30,0,1,,,,,,,,,0,,,65,0
17211,control_change,171,0,2,,,,,,,,,0,64,0,,
17220,note_on,9,0,2,,,,,,,,,0,,,61,0
17220,note_on,0,0,2,,,,,,,,,0,,,60,50
17220,note_on,60,0,1,,,,,,,,,0,,,68,0
17280,note_on,0,0,2,,,,,,,,,0,,,49,0
17280,note_on,60,0,2,,,,,,,,,0,,,60,0
17280,note_on,0,0,2,,,,,,,,,0,,,51,34
17280,note_on,0,0,2,,,,,,,,,0,,,58,50
17280,note_on,60,0,1,,,,,,,,,0,,,75,40
17282,set_tempo,242,1,0,,,,,,430108,,,,,,,
17284,control_change,4,0,2,,,,,,,,,0,64,127,,
17310,note_on,0,0,1,,,,,,,,,0,,,79,34
17310,note_on,30,0,1,,,,,,,,,0,,,75,0
17340,note_on,30,0,1,,,,,,,,,0,,,79,0
17340,note_on,0,0,1,,,,,,,,,0,,,75,40
17370,note_on,30,0,1,,,,,,,,,0,,,75,0
17370,note_on,0,0,1,,,,,,,,,0,,,70,34
17398,set_tempo,116,1,0,,,,,,400000,,,,,,,
17400,note_on,0,0,1,,,,,,,,,0,,,70,40
17400,note_on,116,0,2,,,,,,,,,0,,,58,0
17400,note_on,0,0,2,,,,,,,,,0,,,63,60
17400,note_on,30,0,1,,,,,,,,,0,,,70,0
17430,note_on,0,0,1,,,,,,,,,0,,,75,34
17430,note_on,30,0,1,,,,,,,,,0,,,70,0
17460,note_on,30,0,1,,,,,,,,,0,,,75,0
17460,note_on,0,0,1,,,,,,,,,0,,,70,40
17490,note_on,30,0,1,,,,,,,,,0,,,70,0
17490,note_on,0,0,1,,,,,,,,,0,,,67,34
17520,note_on,30,0,1,,,,,,,,,0,,,67,0
17520,note_on,0,0,1,,,,,,,,,0,,,70,40
17575,control_change,175,0,2,,,,,,,,,0,64,0,,
17580,note_on,0,0,2,,,,,,,,,0,,,61,50
17580,note_on,60,0,1,,,,,,,,,0,,,70,0
17580,note_on,5,0,2,,,,,,,,,0,,,63,0
17640,note_on,0,0,2,,,,,,,,,0,,,51,0
17640,set_tempo,242,1,0,,,,,,428571,,,,,,,
17640,note_on,0,0,2,,,,,,,,,0,,,56,34
17640,note_on,60,0,2,,,,,,,,,0,,,61,0
17640,control_change,0,0,2,,,,,,,,,0,64,127,,
17640,note_on,60,0,1,,,,,,,,,0,,,75,40
17640,note_on,0,0,2,,,,,,,,,0,,,60,50
17670,note_on,0,0,1,,,,,,,,,0,,,80,34
17670,note_on,30,0,1,,,,,,,,,0,,,75,0
17700,note_on,0,0,1,,,,,,,,,0,,,75,40
17700,note_on,30,0,1,,,,,,,,,0,,,80,0
17730,note_on,30,0,1,,,,,,,,,0,,,75,0
17730,note_on,0,0,1,,,,,,,,,0,,,72,34
17760,note_on,120,0,2,,,,,,,,,0,,,60,0
17760,note_on,0,0,1,,,,,,,,,0,,,72,40
17760,note_on,30,0,1,,,,,,,,,0,,,72,0
17760,note_on,0,0,2,,,,,,,,,0,,,63,60
17762,set_tempo,122,1,0,,,,,,400000,,,,,,,
17790,note_on,30,0,1,,,,,,,,,0,,,72,0
17790,note_on,0,0,1,,,,,,,,,0,,,75,34
17820,note_on,0,0,1,,,,,,,,,0,,,72,40
17820,note_on,30,0,1,,,,,,,,,0,,,75,0
17850,note_on,30,0,1,,,,,,,,,0,,,72,0
17850,note_on,0,0,1,,,,,,,,,0,,,68,34
17880,note_on,0,0,1,,,,,,,,,0,,,72,40
17880,note_on,30,0,1,,,,,,,,,0,,,68,0
17901,control_change,141,0,2,,,,,,,,,0,64,0,,
17940,note_on,60,0,1,,,,,,,,,0,,,72,0
18000,note_on,99,0,2,,,,,,,,,0,,,63,0
18000,note_on,0,0,2,,,,,,,,,0,,,56,0
18000,set_tempo,238,1,0,,,,,,483871,,,,,,,
18000,note_on,0,0,2,,,,,,,,,0,,,51,65
18000,note_on,0,0,2,,,,,,,,,0,,,44,55
18000,note_on,60,0,1,,,,,,,,,0,,,84,52
18004,control_change,4,0,2,,,,,,,,,0,64,127,,
18030,note_on,30,0,1,,,,,,,,,0,,,84,0
18030,note_on,0,0,1,,,,,,,,,0,,,87,44
18060,note_on,0,0,1,,,,,,,,,0,,,84,52
18060,note_on,30,0,1,,,,,,,,,0,,,87,0
18090,note_on,0,0,1,,,,,,,,,0,,,80,44
18090,note_on,30,0,1,,,,,,,,,0,,,84,0
18118,set_tempo,118,1,0,,,,,,398671,,,,,,,
18120,note_on,0,0,2,,,,,,,,,0,,,56,73
18120,note_on,116,0,2,,,,,,,,,0,,,51,0
18120,note_on,0,0,1,,,,,,,,,0,,,80,52
18120,note_on,30,0,1,,,,,,,,,0,,,80,0
18150,note_on,30,0,1,,,,,,,,,0,,,80,0
18150,note_on,0,0,1,,,,,,,,,0,,,84,44
18180,note_on,0,0,1,,,,,,,,,0,,,80,52
18180,note_on,30,0,1,,,,,,,,,0,,,84,0
18210,note_on,30,0,1,,,,,,,,,0,,,80,0
18210,note_on,0,0,1,,,,,,,,,0,,,75,44
18240,note_on,30,0,1,,,,,,,,,0,,,75,0
18240,note_on,0,0,1,,,,,,,,,0,,,80,52
18282,control_change,162,0,2,,,,,,,,,0,64,0,,
18300,note_on,60,0,1,,,,,,,,,0,,,80,0
18300,note_on,0,0,2,,,,,,,,,0,,,55,60
18300,note_on,18,0,2,,,,,,,,,0,,,56,0
18360,note_on,60,0,1,,,,,,,,,0,,,85,55
18360,note_on,0,0,2,,,,,,,,,0,,,53,67
18360,note_on,60,0,2,,,,,,,,,0,,,55,0
18360,note_on,0,0,2,,,,,,,,,0,,,44,0
18360,note_on,0,0,2,,,,,,,,,0,,,49,56
18362,set_tempo,244,1,0,,,,,,433213,,,,,,,
18364,control_change,4,0,2,,,,,,,,,0,64,127,,
18390,note_on,0,0,1,,,,,,,,,0,,,89,46
18390,note_on,30,0,1,,,,,,,,,0,,,85,0
18420,note_on,0,0,1,,,,,,,,,0,,,85,55
18420,note_on,30,0,1,,,,,,,,,0,,,89,0
18450,note_on,30,0,1,,,,,,,,,0,,,85,0
18450,note_on,0,0,1,,,,,,,,,0,,,80,46
18480,note_on,0,0,1,,,,,,,,,0,,,80,55
18480,set_tempo,118,1,0,,,,,,400000,,,,,,,
18480,note_on,0,0,2,,,,,,,,,0,,,61,76
18480,note_on,116,0,2,,,,,,,,,0,,,53,0
18480,note_on,30,0,1,,,,,,,,,0,,,80,0
18510,note_on,0,0,1,,,,,,,,,0,,,85,46
18510,note_on,30,0,1,,,,,,,,,0,,,80,0
18540,note_on,30,0,1,,,,,,,,,0,,,85,0
18540,note_on,0,0,1,,,,,,,,,0,,,80,55
18570,note_on,30,0,1,,,,,,,,,0,,,80,0
18570,note_on,0,0,1,,,,,,,,,0,,,77,46
18600,note_on,30,0,1,,,,,,,,,0,,,77,0
18600,note_on,0,0,1,,,,,,,,,0,,,80,55
18655,control_change,175,0,2,,,,,,,,,0,64,0,,
18660,note_on,5,0,2,,,,,,,,,0,,,61,0
18660,note_on,60,0,1,,,,,,,,,0,,,80,0
18660,note_on,0,0,2,,,,,,,,,0,,,60,66
18717,set_tempo,237,1,0,,,,,,421053,,,,,,,
18720,note_on,60,0,1,,,,,,,,,0,,,87,62
18720,note_on,60,0,2,,,,,,,,,0,,,60,0
18720,note_on,0,0,2,,,,,,,,,0,,,49,0
18720,note_on,0,0,2,,,,,,,,,0,,,58,71
18720,note_on,0,0,2,,,,,,,,,0,,,51,60
18722,control_change,2,0,2,,,,,,,,,0,64,127,,
18750,note_on,30,0,1,,,,,,,,,0,,,87,0
18750,note_on,0,0,1,,,,,,,,,0,,,91,52
18780,note_on,0,0,1,,,,,,,,,0,,,87,62
18780,note_on,30,0,1,,,,,,,,,0,,,91,0
18810,note_on,30,0,1,,,,,,,,,0,,,87,0
18810,note_on,0,0,1,,,,,,,,,0,,,82,52
18840,note_on,0,0,2,,,,,,,,,0,,,63,79
18840,note_on,30,0,1,,,,,,,,,0,,,82,0
18840,note_on,0,0,1,,,,,,,,,0,,,82,62
18840,note_on,118,0,2,,,,,,,,,0,,,58,0
18840,set_tempo,123,1,0,,,,,,400000,,,,,,,
18870,note_on,0,0,1,,,,,,,,,0,,,87,52
18870,note_on,30,0,1,,,,,,,,,0,,,82,0
18900,note_on,0,0,1,,,,,,,,,0,,,82,62
18900,note_on,30,0,1,,,,,,,,,0,,,87,0
18930,note_on,0,0,1,,,,,,,,,0,,,79,52
18930,note_on,30,0,1,,,,,,,,,0,,,82,0
18960,note_on,0,0,1,,,,,,,,,0,,,82,62
18960,note_on,30,0,1,,,,,,,,,0,,,79,0
19018,control_change,178,0,2,,,,,,,,,0,64,0,,
19020,note_on,0,0,2,,,,,,,,,0,,,61,69
19020,note_on,2,0,2,,,,,,,,,0,,,63,0
19020,note_on,60,0,1,,,,,,,,,0,,,82,0
19078,set_tempo,238,1,0,,,,,,422535,,,,,,,
19080,note_on,60,0,1,,,,,,,,,0,,,87,70
19080,note_on,0,0,2,,,,,,,,,0,,,51,0
19080,note_on,60,0,2,,,,,,,,,0,,,61,0
19080,note_on,0,0,2,,,,,,,,,0,,,56,61
19080,note_on,0,0,2,,,,,,,,,0,,,60,73
19080,control_change,0,0,2,,,,,,,,,0,64,127,,
19110,note_on,30,0,1,,,,,,,,,0,,,87,0
19110,note_on,0,0,1,,,,,,,,,0,,,92,59
19140,note_on,30,0,1,,,,,,,,,0,,,92,0
19140,note_on,0,0,1,,,,,,,,,0,,,87,70
19170,note_on,30,0,1,,,,,,,,,0,,,87,0
19170,note_on,0,0,1,,,,,,,,,0,,,84,58
19198,set_tempo,120,1,0,,,,,,400000,,,,,,,
19200,note_on,120,0,2,,,,,,,,,0,,,60,0
19200,note_on,0,0,2,,,,,,,,,0,,,63,82
19200,note_on,0,0,1,,,,,,,,,0,,,84,70
19200,note_on,30,0,1,,,,,,,,,0,,,84,0
19230,note_on,30,0,1,,,,,,,,,0,,,84,0
19230,note_on,0,0,1,,,,,,,,,0,,,87,59
19260,note_on,30,0,1,,,,,,,,,0,,,87,0
19260,note_on,0,0,1,,,,,,,,,0,,,84,70
19290,note_on,30,0,1,,,,,,,,,0,,,84,0
19290,note_on,0,0,1,,,,,,,,,0,,,80,59
19320,note_on,0,0,1,,,,,,,,,0,,,84,70
19320,note_on,30,0,1,,,,,,,,,0,,,80,0
19369,control_change,169,0,2,,,,,,,,,0,64,0,,
19380,note_on,11,0,2,,,,,,,,,0,,,63,0
19380,note_on,0,0,2,,,,,,,,,0,,,60,72
19380,note_on,60,0,1,,,,,,,,,0,,,84,0
19440,control_change,0,0,2,,,,,,,,,0,64,127,,
19440,note_on,60,0,2,,,,,,,,,0,,,60,0
19440,note_on,0,0,2,,,,,,,,,0,,,58,77
19440,note_on,0,0,2,,,,,,,,,0,,,56,0
19440,note_on,0,0,2,,,,,,,,,0,,,51,66
19440,note_on,60,0,1,,,,,,,,,0,,,87,77
19442,set_tempo,244,1,0,,,,,,439560,,,,,,,
19470,note_on,30,0,1,,,,,,,,,0,,,87,0
19470,note_on,0,0,1,,,,,,,,,0,,,91,65
19500,note_on,0,0,1,,,,,,,,,0,,,87,77
19500,note_on,30,0,1,,,,,,,,,0,,,91,0
19530,note_on,0,0,1,,,,,,,,,0,,,82,65
19530,note_on,30,0,1,,,,,,,,,0,,,87,0
19560,note_on,0,0,1,,,,,,,,,0,,,82,77
19560,set_tempo,118,1,0,,,,,,400000,,,,,,,
19560,note_on,0,0,2,,,,,,,,,0,,,63,84
19560,note_on,120,0,2,,,,,,,,,0,,,58,0
19560,note_on,30,0,1,,,,,,,,,0,,,82,0
19590,note_on,0,0,1,,,,,,,,,0,,,87,65
19590,note_on,30,0,1,,,,,,,,,0,,,82,0
19620,note_on,30,0,1,,,,,,,,,0,,,87,0
19620,note_on,0,0,1,,,,,,,,,0,,,82,77
19650,note_on,30,0,1,,,,,,,,,0,,,82,0
19650,note_on,0,0,1,,,,,,,,,0,,,79,65
19680,note_on,30,0,1,,,,,,,,,0,,,79,0
19680,note_on,0,0,1,,,,,,,,,0,,,82,77
19733,control_change,173,0,2,,,,,,,,,0,64,0,,
19740,note_on,60,0,1,,,,,,,,,0,,,82,0
19740,note_on,7,0,2,,,,,,,,,0,,,63,0
19740,note_on,0,0,2,,,,,,,,,0,,,61,79
19798,set_tempo,238,1,0,,,,,,430108,,,,,,,
19800,note_on,60,0,2,,,,,,,,,0,,,61,0
19800,note_on,0,0,2,,,,,,,,,0,,,56,66
19800,note_on,0,0,2,,,,,,,,,0,,,51,0
19800,note_on,0,0,2,,,,,,,,,0,,,60,78
19800,note_on,60,0,1,,,,,,,,,0,,,87,78
19802,control_change,2,0,2,,,,,,,,,0,64,127,,
19830,note_on,0,0,1,,,,,,,,,0,,,92,66
19830,note_on,30,0,1,,,,,,,,,0,,,87,0
19860,note_on,0,0,1,,,,,,,,,0,,,87,78
19860,note_on,30,0,1,,,,,,,,,0,,,92,0
19890,note_on,30,0,1,,,,,,,,,0,,,87,0
19890,note_on,0,0,1,,,,,,,,,0,,,84,66
19918,set_tempo,120,1,0,,,,,,400000,,,,,,,
19920,note_on,0,0,1,,,,,,,,,0,,,84,78
19920,note_on,0,0,2,,,,,,,,,0,,,63,83
19920,note_on,118,0,2,,,,,,,,,0,,,60,0
19920,note_on,30,0,1,,,,,,,,,0,,,84,0
19950,note_on,0,0,1,,,,,,,,,0,,,87,66
19950,note_on,30,0,1,,,,,,,,,0,,,84,0
19980,note_on,0,0,1,,,,,,,,,0,,,84,78
19980,note_on,30,0,1,,,,,,,,,0,,,87,0
20010,note_on,0,0,1,,,,,,,,,0,,,80,66
20010,note_on,30,0,1,,,,,,,,,0,,,84,0
20040,note_on,30,0,1,,,,,,,,,0,,,80,0
20040,note_on,0,0,1,,,,,,,,,0,,,84,78
20096,control_change,176,0,2,,,,,,,,,0,64,0,,
20100,note_on,0,0,2,,,,,,,,,0,,,60,76
20100,note_on,4,0,2,,,,,,,,,0,,,63,0
20100,note_on,60,0,1,,,,,,,,,0,,,84,0
20160,note_on,60,0,2,,,,,,,,,0,,,60,0
20160,note_on,0,0,2,,,,,,,,,0,,,56,0
20160,note_on,0,0,2,,,,,,,,,0,,,60,76
20160,note_on,0,0,2,,,,,,,,,0,,,53,63
20160,note_on,60,0,1,,,,,,,,,0,,,89,78
20161,control_change,1,0,2,,,,,,,,,0,64,127,,
20162,set_tempo,244,1,0,,,,,,451128,,,,,,,
20190,note_on,0,0,1,,,,,,,,,0,,,93,67
20190,note_on,30,0,1,,,,,,,,,0,,,89,0
20220,note_on,30,0,1,,,,,,,,,0,,,93,0
20220,note_on,0,0,1,,,,,,,,,0,,,89,78
20250,note_on,0,0,1,,,,,,,,,0,,,84,67
20250,note_on,30,0,1,,,,,,,,,0,,,89,0
20280,note_on,30,0,1,,,,,,,,,0,,,84,0
20280,note_on,0,0,1,,,,,,,,,0,,,84,78
20280,note_on,0,0,2,,,,,,,,,0,,,65,82
20280,note_on,119,0,2,,,,,,,,,0,,,60,0
20282,set_tempo,120,1,0,,,,,,400000,,,,,,,
20310,note_on,30,0,1,,,,,,,,,0,,,84,0
20310,note_on,0,0,1,,,,,,,,,0,,,89,67
20340,note_on,30,0,1,,,,,,,,,0,,,89,0
20340,note_on,0,0,1,,,,,,,,,0,,,84,78
20370,note_on,0,0,1,,,,,,,,,0,,,81,67
20370,note_on,30,0,1,,,,,,,,,0,,,84,0
20400,note_on,30,0,1,,,,,,,,,0,,,81,0
20400,note_on,0,0,1,,,,,,,,,0,,,84,78
20453,control_change,173,0,2,,,,,,,,,0,64,0,,
20460,note_on,7,0,2,,,,,,,,,0,,,65,0
20460,note_on,0,0,2,,,,,,,,,0,,,63,72
20460,note_on,60,0,1,,,,,,,,,0,,,84,0
20520,note_on,60,0,2,,,,,,,,,0,,,63,0
20520,note_on,0,0,2,,,,,,,,,0,,,53,0
20520,set_tempo,238,1,0,,,,,,428571,,,,,,,
20520,note_on,60,0,1,,,,,,,,,0,,,89,78
20520,note_on,0,0,2,,,,,,,,,0,,,58,64
20520,note_on,0,0,2,,,,,,,,,0,,,61,76
20529,control_change,9,0,2,,,,,,,,,0,64,127,,
20550,note_on,0,0,1,,,,,,,,,0,,,94,67
20550,note_on,30,0,1,,,,,,,,,0,,,89,0
20580,note_on,0,0,1,,,,,,,,,0,,,89,78
20580,note_on,30,0,1,,,,,,,,,0,,,94,0
20610,note_on,0,0,1,,,,,,,,,0,,,85,67
20610,note_on,30,0,1,,,,,,,,,0,,,89,0
20640,note_on,0,0,1,,,,,,,,,0,,,85,78
20640,note_on,111,0,2,,,,,,,,,0,,,61,0
20640,note_on,0,0,2,,,,,,,,,0,,,65,82
20640,note_on,30,0,1,,,,,,,,,0,,,85,0
20642,set_tempo,122,1,0,,,,,,400000,,,,,,,
20670,note_on,0,0,1,,,,,,,,,0,,,89,67
20670,note_on,30,0,1,,,,,,,,,0,,,85,0
20700,note_on,0,0,1,,,,,,,,,0,,,85,78
20700,note_on,30,0,1,,,,,,,,,0,,,89,0
20730,note_on,0,0,1,,,,,,,,,0,,,82,67
20730,note_on,30,0,1,,,,,,,,,0,,,85,0
20760,note_on,0,0,1,,,,,,,,,0,,,85,78
20760,note_on,30,0,1,,,,,,,,,0,,,82,0
20813,control_change,173,0,2,,,,,,,,,0,64,0,,
20820,note_on,60,0,1,,,,,,,,,0,,,85,0
20820,note_on,0,0,2,,,,,,,,,0,,,61,72
20820,note_on,7,0,2,,,,,,,,,0,,,65,0
20878,set_tempo,236,1,0,,,,,,439560,,,,,,,
20880,note_on,60,0,2,,,,,,,,,0,,,61,0
20880,note_on,60,0,1,,,,,,,,,0,,,89,78
20880,note_on,0,0,2,,,,,,,,,0,,,60,75
20880,note_on,0,0,2,,,,,,,,,0,,,58,0
20880,note_on,0,0,2,,,,,,,,,0,,,53,62
20881,control_change,1,0,2,,,,,,,,,0,64,127,,
20910,note_on,30,0,1,,,,,,,,,0,,,89,0
20910,note_on,0,0,1,,,,,,,,,0,,,93,67
20940,note_on,30,0,1,,,,,,,,,0,,,93,0
20940,note_on,0,0,1,,,,,,,,,0,,,89,78
20970,note_on,30,0,1,,,,,,,,,0,,,89,0
20970,note_on,0,0,1,,,,,,,,,0,,,84,67
21000,note_on,0,0,2,,,,,,,,,0,,,65,81
21000,note_on,30,0,1,,,,,,,,,0,,,84,0
21000,note_on,0,0,1,,,,,,,,,0,,,84,78
21000,note_on,119,0,2,,,,,,,,,0,,,60,0
21000,set_tempo,122,1,0,,,,,,400000,,,,,,,
21030,note_on,30,0,1,,,,,,,,,0,,,84,0
21030,note_on,0,0,1,,,,,,,,,0,,,89,67
21060,note_on,0,0,1,,,,,,,,,0,,,84,78
21060,note_on,30,0,1,,,,,,,,,0,,,89,0
21090,note_on,30,0,1,,,,,,,,,0,,,84,0
21090,note_on,0,0,1,,,,,,,,,0,,,81,67
21120,note_on,30,0,1,,,,,,,,,0,,,81,0
21120,note_on,0,0,1,,,,,,,,,0,,,84,78
21180,note_on,180,0,2,,,,,,,,,0,,,65,0
21180,note_on,60,0,1,,,,,,,,,0,,,84,0
21180,note_on,0,0,2,,,,,,,,,0,,,63,72
21181,control_change,1,0,2,,,,,,,,,0,64,0,,
21240,note_on,60,0,1,,,,,,,,,0,,,89,78
21240,note_on,59,0,2,,,,,,,,,0,,,63,0
21240,note_on,0,0,2,,,,,,,,,0,,,53,0
21240,note_on,0,0,2,,,,,,,,,0,,,58,59
21240,note_on,0,0,2,,,,,,,,,0,,,61,77
21240,set_tempo,240,1,0,,,,,,424028,,,,,,,
21242,control_change,2,0,2,,,,,,,,,0,64,127,,
21270,note_on,0,0,1,,,,,,,,,0,,,94,67
21270,note_on,30,0,1,,,,,,,,,0,,,89,0
21300,note_on,30,0,1,,,,,,,,,0,,,94,0
21300,note_on,0,0,1,,,,,,,,,0,,,89,78
21330,note_on,30,0,1,,,,,,,,,0,,,89,0
21330,note_on,0,0,1,,,,,,,,,0,,,85,67
21360,note_on,30,0,1,,,,,,,,,0,,,85,0
21360,note_on,0,0,1,,,,,,,,,0,,,85,78
21360,note_on,118,0,2,,,,,,,,,0,,,61,0
21360,note_on,0,0,2,,,,,,,,,0,,,65,81
21360,set_tempo,120,1,0,,,,,,400000,,,,,,,
21390,note_on,30,0,1,,,,,,,,,0,,,85,0
21390,note_on,0,0,1,,,,,,,,,0,,,89,67
21420,note_on,30,0,1,,,,,,,,,0,,,89,0
21420,note_on,0,0,1,,,,,,,,,0,,,85,78
21450,note_on,30,0,1,,,,,,,,,0,,,85,0
21450,note_on,0,0,1,,,,,,,,,0,,,82,67
21480,note_on,30,0,1,,,,,,,,,0,,,82,0
21480,note_on,0,0,1,,,,,,,,,0,,,85,78
21538,control_change,178,0,2,,,,,,,,,0,64,0,,
21540,note_on,2,0,2,,,,,,,,,0,,,65,0
21540,note_on,0,0,2,,,,,,,,,0,,,61,73
21540,note_on,60,0,1,,,,,,,,,0,,,85,0
21600,note_on,0,0,2,,,,,,,,,0,,,56,59
21600,note_on,60,0,2,,,,,,,,,0,,,61,0
21600,set_tempo,240,1,0,,,,,,480000,,,,,,,
21600,note_on,60,0,1,,,,,,,,,0,,,92,78
21600,note_on,0,0,2,,,,,,,,,0,,,58,0
21600,note_on,0,0,2,,,,,,,,,0,,,63,77
21607,control_change,7,0,2,,,,,,,,,0,64,127,,
21630,note_on,30,0,1,,,,,,,,,0,,,92,0
21630,note_on,0,0,1,,,,,,,,,0,,,96,67
21660,note_on,0,0,1,,,,,,,,,0,,,92,78
21660,note_on,30,0,1,,,,,,,,,0,,,96,0
21690,note_on,0,0,1,,,,,,,,,0,,,87,67
21690,note_on,30,0,1,,,,,,,,,0,,,92,0
21720,note_on,0,0,2,,,,,,,,,0,,,68,81
21720,set_tempo,120,1,0,,,,,,400000,,,,,,,
21720,note_on,30,0,1,,,,,,,,,0,,,87,0
21720,note_on,113,0,2,,,,,,,,,0,,,63,0
21720,note_on,0,0,1,,,,,,,,,0,,,87,78
21750,note_on,0,0,1,,,,,,,,,0,,,92,67
21750,note_on,30,0,1,,,,,,,,,0,,,87,0
21780,note_on,30,0,1,,,,,,,,,0,,,92,0
21780,note_on,0,0,1,,,,,,,,,0,,,87,78
21810,note_on,0,0,1,,,,,,,,,0,,,84,67
21810,note_on,30,0,1,,,,,,,,,0,,,87,0
21840,note_on,0,0,1,,,,,,,,,0,,,87,78
21840,note_on,30,0,1,,,,,,,,,0,,,84,0
21891,control_change,171,0,2,,,,,,,,,0,64,0,,
21900,note_on,60,0,1,,,,,,,,,0,,,87,0
21900,note_on,9,0,2,,,,,,,,,0,,,68,0
21900,note_on,0,0,2,,,,,,,,,0,,,66,73
21957,set_tempo,237,1,0,,,,,,424028,,,,,,,
21960,note_on,60,0,1,,,,,,,,,0,,,92,78
21960,note_on,0,0,2,,,,,,,,,0,,,61,67
21960,note_on,0,0,2,,,,,,,,,0,,,65,80
21960,note_on,60,0,2,,,,,,,,,0,,,66,0
21960,note_on,0,0,2,,,,,,,,,0,,,56,0
21964,control_change,4,0,2,,,,,,,,,0,64,127,,
21990,note_on,30,0,1,,,,,,,,,0,,,92,0
21990,note_on,0,0,1,,,,,,,,,0,,,97,67
22020,note_on,30,0,1,,,,,,,,,0,,,97,0
22020,note_on,0,0,1,,,,,,,,,0,,,92,78
22050,note_on,30,0,1,,,,,,,,,0,,,92,0
22050,note_on,0,0,1,,,,,,,,,0,,,89,67
22080,note_on,0,0,2,,,,,,,,,0,,,68,83
22080,note_on,30,0,1,,,,,,,,,0,,,89,0
22080,note_on,0,0,1,,,,,,,,,0,,,89,79
22080,note_on,116,0,2,,,,,,,,,0,,,65,0
22082,set_tempo,125,1,0,,,,,,400000,,,,,,,
22110,note_on,30,0,1,,,,,,,,,0,,,89,0
22110,note_on,0,0,1,,,,,,,,,0,,,92,68
22140,note_on,0,0,1,,,,,,,,,0,,,89,80
22140,note_on,30,0,1,,,,,,,,,0,,,92,0
22170,note_on,0,0,1,,,,,,,,,0,,,85,68
22170,note_on,30,0,1,,,,,,,,,0,,,89,0
22200,note_on,30,0,1,,,,,,,,,0,,,85,0
22200,note_on,0,0,1,,,,,,,,,0,,,89,81
22255,control_change,175,0,2,,,,,,,,,0,64,0,,
22260,note_on,5,0,2,,,,,,,,,0,,,68,0
22260,note_on,0,0,2,,,,,,,,,0,,,65,75
22260,note_on,60,0,1,,,,,,,,,0,,,89,0
22320,note_on,0,0,2,,,,,,,,,0,,,56,66
22320,note_on,60,0,1,,,,,,,,,0,,,92,82
22320,note_on,0,0,2,,,,,,,,,0,,,63,78
22320,note_on,0,0,2,,,,,,,,,0,,,61,0
22320,set_tempo,238,1,0,,,,,,430108,,,,,,,
22320,note_on,60,0,2,,,,,,,,,0,,,65,0
22327,control_change,7,0,2,,,,,,,,,0,64,127,,
22350,note_on,30,0,1,,,,,,,,,0,,,92,0
22350,note_on,0,0,1,,,,,,,,,0,,,96,70
22380,note_on,30,0,1,,,,,,,,,0,,,96,0
22380,note_on,0,0,1,,,,,,,,,0,,,92,83
22410,note_on,0,0,1,,,,,,,,,0,,,87,71
22410,note_on,30,0,1,,,,,,,,,0,,,92,0
22440,note_on,113,0,2,,,,,,,,,0,,,63,0
22440,note_on,0,0,2,,,,,,,,,0,,,68,84
22440,note_on,30,0,1,,,,,,,,,0,,,87,0
22440,note_on,0,0,1,,,,,,,,,0,,,87,84
22442,set_tempo,122,1,0,,,,,,400000,,,,,,,
22470,note_on,30,0,1,,,,,,,,,0,,,87,0
22470,note_on,0,0,1,,,,,,,,,0,,,92,72
22500,note_on,0,0,1,,,,,,,,,0,,,87,85
22500,note_on,30,0,1,,,,,,,,,0,,,92,0
22530,note_on,0,0,1,,,,,,,,,0,,,84,72
22530,note_on,30,0,1,,,,,,,,,0,,,87,0
22560,note_on,30,0,1,,,,,,,,,0,,,84,0
22560,note_on,0,0,1,,,,,,,,,0,,,87,85
22562,set_tempo,120,1,0,,,,,,428571,,,,,,,
22620,note_on,0,0,2,,,,,,,,,0,,,66,76
22620,note_on,60,0,1,,,,,,,,,0,,,87,0
22620,note_on,180,0,2,,,,,,,,,0,,,68,0
22622,control_change,2,0,2,,,,,,,,,0,64,0,,
22680,note_on,0,0,2,,,,,,,,,0,,,56,0
22680,note_on,60,0,1,,,,,,,,,0,,,92,86
22680,note_on,58,0,2,,,,,,,,,0,,,66,0
22680,note_on,0,0,2,,,,,,,,,0,,,61,85
22680,note_on,0,0,2,,,,,,,,,0,,,65,85
22682,set_tempo,120,1,0,,,,,,398671,,,,,,,
22687,control_change,7,0,2,,,,,,,,,0,64,127,,
22710,note_on,0,0,1,,,,,,,,,0,,,97,73
22710,note_on,30,0,1,,,,,,,,,0,,,92,0
22740,note_on,30,0,1,,,,,,,,,0,,,97,0
22740,note_on,0,0,1,,,,,,,,,0,,,92,86
22770,note_on,30,0,1,,,,,,,,,0,,,92,0
22770,note_on,0,0,1,,,,,,,,,0,,,89,73
22800,note_on,113,0,2,,,,,,,,,0,,,65,0
22800,note_on,0,0,2,,,,,,,,,0,,,61,0
22800,note_on,0,0,1,,,,,,,,,0,,,89,86
22800,note_on,30,0,1,,,,,,,,,0,,,89,0
22830,note_on,30,0,1,,,,,,,,,0,,,89,0
22830,note_on,0,0,1,,,,,,,,,0,,,92,73
22860,note_on,30,0,1,,,,,,,,,0,,,92,0
22860,note_on,0,0,1,,,,,,,,,0,,,89,86
22890,note_on,30,0,1,,,,,,,,,0,,,89,0
22890,note_on,0,0,1,,,,,,,,,0,,,85,73
22920,note_on,30,0,1,,,,,,,,,0,,,85,0
22920,note_on,0,0,1,,,,,,,,,0,,,85,86
22950,note_on,30,0,1,,,,,,,,,0,,,85,0
22950,note_on,0,0,1,,,,,,,,,0,,,89,73
22980,note_on,30,0,1,,,,,,,,,0,,,89,0
22980,note_on,0,0,1,,,,,,,,,0,,,85,86
23010,note_on,30,0,1,,,,,,,,,0,,,85,0
23010,note_on,0,0,1,,,,,,,,,0,,,80,73
23029,control_change,229,0,2,,,,,,,,,0,64,0,,
23040,note_on,0,0,1,,,,,,,,,0,,,80,86
23040,note_on,30,0,1,,,,,,,,,0,,,80,0
23040,control_change,11,0,2,,,,,,,,,0,64,127,,
23070,note_on,30,0,1,,,,,,,,,0,,,80,0
23070,note_on,0,0,1,,,,,,,,,0,,,85,73
23100,note_on,30,0,1,,,,,,,,,0,,,85,0
23100,note_on,0,0,1,,,,,,,,,0,,,80,86
23130,note_on,30,0,1,,,,,,,,,0,,,80,0
23130,note_on,0,0,1,,,,,,,,,0,,,77,73
23160,note_on,30,0,1,,,,,,,,,0,,,77,0
23160,note_on,0,0,1,,,,,,,,,0,,,77,86
23190,note_on,30,0,1,,,,,,,,,0,,,77,0
23190,note_on,0,0,1,,,,,,,,,0,,,80,73
23220,note_on,30,0,1,,,,,,,,,0,,,80,0
23220,note_on,0,0,1,,,,,,,,,0,,,77,86
23250,note_on,30,0,1,,,,,,,,,0,,,77,0
23250,note_on,0,0,1,,,,,,,,,0,,,73,73
23280,note_on,30,0,1,,,,,,,,,0,,,73,0
23280,note_on,0,0,1,,,,,,,,,0,,,73,86
23310,note_on,30,0,1,,,,,,,,,0,,,73,0
23310,note_on,0,0,1,,,,,,,,,0,,,77,73
23340,note_on,30,0,1,,,,,,,,,0,,,77,0
23340,note_on,0,0,1,,,,,,,,,0,,,73,86
23370,note_on,0,0,1,,,,,,,,,0,,,68,73
23370,note_on,30,0,1,,,,,,,,,0,,,73,0
23374,control_change,334,0,2,,,,,,,,,0,64,0,,
23400,control_change,0,0,2,,,,,,,,,0,64,127,,
23400,note_on,26,0,2,,,,,,,,,0,,,68,84
23400,note_on,0,0,1,,,,,,,,,0,,,80,86
23400,note_on,30,0,1,,,,,,,,,0,,,68,0
23430,note_on,0,0,1,,,,,,,,,0,,,85,73
23430,note_on,30,0,1,,,,,,,,,0,,,80,0
23460,note_on,0,0,1,,,,,,,,,0,,,80,86
23460,note_on,60,0,2,,,,,,,,,0,,,68,0
23460,note_on,30,0,1,,,,,,,,,0,,,85,0
23490,note_on,0,0,1,,,,,,,,,0,,,77,73
23490,note_on,30,0,1,,,,,,,,,0,,,80,0
23520,note_on,0,0,1,,,,,,,,,0,,,77,86
23520,note_on,30,0,1,,,,,,,,,0,,,77,0
23520,note_on,60,0,2,,,,,,,,,0,,,65,79
23550,note_on,30,0,1,,,,,,,,,0,,,77,0
23550,note_on,0,0,1,,,,,,,,,0,,,80,73
23580,note_on,30,0,1,,,,,,,,,0,,,80,0
23580,note_on,0,0,1,,,,,,,,,0,,,77,86
23580,note_on,60,0,2,,,,,,,,,0,,,65,0
23610,note_on,30,0,1,,,,,,,,,0,,,77,0
23610,note_on,0,0,1,,,,,,,,,0,,,73,73
23640,note_on,30,0,1,,,,,,,,,0,,,73,0
23640,note_on,0,0,1,,,,,,,,,0,,,73,86
23640,note_on,60,0,2,,,,,,,,,0,,,61,79
23670,note_on,30,0,1,,,,,,,,,0,,,73,0
23670,note_on,0,0,1,,,,,,,,,0,,,77,73
23700,note_on,30,0,1,,,,,,,,,0,,,77,0
23700,note_on,0,0,1,,,,,,,,,0,,,73,86
23700,note_on,60,0,2,,,,,,,,,0,,,61,0
23730,note_on,0,0,1,,,,,,,,,0,,,68,73
23730,note_on,30,0,1,,,,,,,,,0,,,73,0
23739,control_change,39,0,2,,,,,,,,,0,64,0,,
23760,note_on,0,0,1,,,,,,,,,0,,,68,86
23760,note_on,0,0,2,,,,,,,,,0,,,56,82
23760,control_change,21,0,2,,,,,,,,,0,64,127,,
23760,note_on,30,0,1,,,,,,,,,0,,,68,0
23790,note_on,0,0,1,,,,,,,,,0,,,73,73
23790,note_on,30,0,1,,,,,,,,,0,,,68,0
23820,note_on,0,0,1,,,,,,,,,0,,,68,86
23820,note_on,30,0,1,,,,,,,,,0,,,73,0
23820,note_on,60,0,2,,,,,,,,,0,,,56,0
23850,note_on,30,0,1,,,,,,,,,0,,,68,0
23850,note_on,0,0,1,,,,,,,,,0,,,65,73
23880,note_on,0,0,1,,,,,,,,,0,,,65,86
23880,note_on,30,0,1,,,,,,,,,0,,,65,0
23880,note_on,60,0,2,,,,,,,,,0,,,53,79
23910,note_on,0,0,1,,,,,,,,,0,,,68,73
23910,note_on,30,0,1,,,,,,,,,0,,,65,0
23940,note_on,60,0,2,,,,,,,,,0,,,53,0
23940,note_on,30,0,1,,,,,,,,,0,,,68,0
23940,note_on,0,0,1,,,,,,,,,0,,,65,86
23970,note_on,0,0,1,,,,,,,,,0,,,61,73
23970,note_on,30,0,1,,,,,,,,,0,,,65,0
24000,note_on,60,0,2,,,,,,,,,0,,,49,79
24000,note_on,0,0,1,,,,,,,,,0,,,61,86
24000,note_on,30,0,1,,,,,,,,,0,,,61,0
24030,note_on,0,0,1,,,,,,,,,0,,,65,73
24030,note_on,30,0,1,,,,,,,,,0,,,61,0
24060,note_on,0,0,1,,,,,,,,,0,,,61,86
24060,note_on,60,0,2,,,,,,,,,0,,,49,0
24060,note_on,30,0,1,,,,,,,,,0,,,65,0
24090,note_on,0,0,1,,,,,,,,,0,,,56,73
24090,note_on,30,0,1,,,,,,,,,0,,,61,0
24095,control_change,35,0,2,,,,,,,,,0,64,0,,
24120,note_on,0,0,2,,,,,,,,,0,,,46,58
24120,note_on,0,0,2,,,,,,,,,0,,,49,58
24120,note_on,0,0,1,,,,,,,,,0,,,61,88
24120,note_on,0,0,2,,,,,,,,,0,,,43,58
24120,note_on,25,0,2,,,,,,,,,0,,,52,68
24120,note_on,30,0,1,,,,,,,,,0,,,56,0
24127,control_change,7,0,2,,,,,,,,,0,64,127,,
24150,note_on,0,0,1,,,,,,,,,0,,,64,68
24150,note_on,30,0,1,,,,,,,,,0,,,61,0
24180,note_on,30,0,1,,,,,,,,,0,,,64,0
24180,note_on,0,0,1,,,,,,,,,0,,,61,80
24210,note_on,30,0,1,,,,,,,,,0,,,61,0
24210,note_on,0,0,1,,,,,,,,,0,,,58,68
24240,note_on,0,0,1,,,,,,,,,0,,,58,80
24240,note_on,30,0,1,,,,,,,,,0,,,58,0
24270,note_on,30,0,1,,,,,,,,,0,,,58,0
24270,note_on,0,0,1,,,,,,,,,0,,,61,68
24300,note_on,0,0,1,,,,,,,,,0,,,58,80
24300,note_on,30,0,1,,,,,,,,,0,,,61,0
24330,note_on,30,0,1,,,,,,,,,0,,,58,0
24330,note_on,0,0,1,,,,,,,,,0,,,55,68
24349,control_change,222,0,2,,,,,,,,,0,64,0,,
24360,note_on,0,0,2,,,,,,,,,0,,,43,58
24360,note_on,0,0,2,,,,,,,,,0,,,49,58
24360,note_on,0,0,2,,,,,,,,,0,,,46,58
24360,note_on,0,0,1,,,,,,,,,0,,,61,89
24360,note_on,0,0,2,,,,,,,,,0,,,52,68
24360,note_on,0,0,2,,,,,,,,,0,,,46,0
24360,note_on,0,0,2,,,,,,,,,0,,,49,0
24360,note_on,11,0,2,,,,,,,,,0,,,43,0
24360,note_on,0,0,2,,,,,,,,,0,,,52,0
24360,note_on,30,0,1,,,,,,,,,0,,,55,0
24369,control_change,9,0,2,,,,,,,,,0,64,127,,
24390,note_on,30,0,1,,,,,,,,,0,,,61,0
24390,note_on,0,0,1,,,,,,,,,0,,,64,68
24420,note_on,30,0,1,,,,,,,,,0,,,64,0
24420,note_on,0,0,1,,,,,,,,,0,,,61,80
24450,note_on,30,0,1,,,,,,,,,0,,,61,0
24450,note_on,0,0,1,,,,,,,,,0,,,58,68
24480,note_on,30,0,1,,,,,,,,,0,,,58,0
24480,note_on,0,0,1,,,,,,,,,0,,,58,80
24510,note_on,30,0,1,,,,,,,,,0,,,58,0
24510,note_on,0,0,1,,,,,,,,,0,,,61,68
24540,note_on,0,0,1,,,,,,,,,0,,,58,80
24540,note_on,30,0,1,,,,,,,,,0,,,61,0
24570,note_on,0,0,1,,,,,,,,,0,,,55,68
24570,note_on,30,0,1,,,,,,,,,0,,,58,0
24583,control_change,214,0,2,,,,,,,,,0,64,0,,
24600,note_on,0,0,2,,,,,,,,,0,,,49,58
24600,note_on,0,0,2,,,,,,,,,0,,,46,58
24600,note_on,0,0,2,,,,,,,,,0,,,52,68
24600,note_on,0,0,2,,,,,,,,,0,,,43,0
24600,note_on,0,0,2,,,,,,,,,0,,,46,0
24600,note_on,0,0,2,,,,,,,,,0,,,52,0
24600,note_on,17,0,2,,,,,,,,,0,,,49,0
24600,note_on,0,0,2,,,,,,,,,0,,,43,58
24600,note_on,0,0,1,,,,,,,,,0,,,61,88
24600,note_on,30,0,1,,,,,,,,,0,,,55,0
24601,control_change,1,0,2,,,,,,,,,0,64,127,,
24630,note_on,0,0,1,,,,,,,,,0,,,64,68
24630,note_on,30,0,1,,,,,,,,,0,,,61,0
24660,note_on,0,0,1,,,,,,,,,0,,,61,80
24660,note_on,30,0,1,,,,,,,,,0,,,64,0
24690,note_on,0,0,1,,,,,,,,,0,,,58,68
24690,note_on,30,0,1,,,,,,,,,0,,,61,0
24720,note_on,0,0,1,,,,,,,,,0,,,58,80
24720,note_on,30,0,1,,,,,,,,,0,,,58,0
24750,note_on,30,0,1,,,,,,,,,0,,,58,0
24750,note_on,0,0,1,,,,,,,,,0,,,61,68
24780,note_on,0,0,1,,,,,,,,,0,,,58,80
24780,note_on,30,0,1,,,,,,,,,0,,,61,0
24810,note_on,30,0,1,,,,,,,,,0,,,58,0
24810,note_on,0,0,1,,,,,,,,,0,,,55,68
24821,control_change,220,0,2,,,,,,,,,0,64,0,,
24840,note_on,0,0,1,,,,,,,,,0,,,61,80
24840,note_on,19,0,2,,,,,,,,,0,,,43,0
24840,note_on,0,0,2,,,,,,,,,0,,,52,0
24840,note_on,30,0,1,,,,,,,,,0,,,55,0
24840,note_on,0,0,2,,,,,,,,,0,,,49,0
24840,note_on,0,0,2,,,,,,,,,0,,,51,61
24840,note_on,0,0,2,,,,,,,,,0,,,46,51
24840,note_on,0,0,2,,,,,,,,,0,,,49,51
24840,note_on,0,0,2,,,,,,,,,0,,,43,51
24840,note_on,0,0,2,,,,,,,,,0,,,46,0
24844,control_change,4,0,2,,,,,,,,,0,64,127,,
24870,note_on,0,0,1,,,,,,,,,0,,,63,68
24870,note_on,30,0,1,,,,,,,,,0,,,61,0
24900,note_on,30,0,1,,,,,,,,,0,,,63,0
24900,note_on,0,0,1,,,,,,,,,0,,,61,79
24930,note_on,30,0,1,,,,,,,,,0,,,61,0
24930,note_on,0,0,1,,,,,,,,,0,,,58,66
24960,note_on,0,0,1,,,,,,,,,0,,,58,77
24960,note_on,30,0,1,,,,,,,,,0,,,58,0
24990,note_on,0,0,1,,,,,,,,,0,,,61,65
24990,note_on,30,0,1,,,,,,,,,0,,,58,0
25020,note_on,30,0,1,,,,,,,,,0,,,61,0
25020,note_on,0,0,1,,,,,,,,,0,,,58,76
25050,note_on,0,0,1,,,,,,,,,0,,,55,63
25050,note_on,30,0,1,,,,,,,,,0,,,58,0
25059,control_change,215,0,2,,,,,,,,,0,64,0,,
25080,note_on,0,0,2,,,,,,,,,0,,,49,0
25080,note_on,0,0,2,,,,,,,,,0,,,46,0
25080,note_on,0,0,2,,,,,,,,,0,,,51,50
25080,note_on,0,0,2,,,,,,,,,0,,,46,42
25080,note_on,0,0,2,,,,,,,,,0,,,43,42
25080,note_on,0,0,2,,,,,,,,,0,,,49,42
25080,note_on,0,0,2,,,,,,,,,0,,,51,0
25080,note_on,21,0,2,,,,,,,,,0,,,43,0
25080,note_on,30,0,1,,,,,,,,,0,,,55,0
25080,note_on,0,0,1,,,,,,,,,0,,,61,82
25089,control_change,9,0,2,,,,,,,,,0,64,127,,
25110,note_on,30,0,1,,,,,,,,,0,,,61,0
25110,note_on,0,0,1,,,,,,,,,0,,,63,64
25140,note_on,0,0,1,,,,,,,,,0,,,61,75
25140,note_on,30,0,1,,,,,,,,,0,,,63,0
25170,note_on,0,0,1,,,,,,,,,0,,,58,61
25170,note_on,30,0,1,,,,,,,,,0,,,61,0
25200,note_on,30,0,1,,,,,,,,,0,,,58,0
25200,note_on,0,0,1,,,,,,,,,0,,,58,76
25230,note_on,30,0,1,,,,,,,,,0,,,58,0
25230,note_on,0,0,1,,,,,,,,,0,,,61,63
25260,note_on,30,0,1,,,,,,,,,0,,,61,0
25260,note_on,0,0,1,,,,,,,,,0,,,58,73
25290,note_on,0,0,1,,,,,,,,,0,,,55,59
25290,note_on,30,0,1,,,,,,,,,0,,,58,0
25304,control_change,215,0,2,,,,,,,,,0,64,0,,
25320,note_on,0,0,2,,,,,,,,,0,,,49,38
25320,note_on,0,0,1,,,,,,,,,0,,,61,76
25320,note_on,0,0,2,,,,,,,,,0,,,43,38
25320,note_on,16,0,2,,,,,,,,,0,,,49,0
25320,note_on,0,0,2,,,,,,,,,0,,,51,0
25320,note_on,0,0,2,,,,,,,,,0,,,46,0
25320,note_on,0,0,2,,,,,,,,,0,,,43,0
25320,note_on,0,0,2,,,,,,,,,0,,,51,45
25320,note_on,0,0,2,,,,,,,,,0,,,46,38
25320,note_on,30,0,1,,,,,,,,,0,,,55,0
25329,control_change,9,0,2,,,,,,,,,0,64,127,,
25350,note_on,0,0,1,,,,,,,,,0,,,63,57
25350,note_on,30,0,1,,,,,,,,,0,,,61,0
25380,note_on,0,0,1,,,,,,,,,0,,,61,66
25380,note_on,30,0,1,,,,,,,,,0,,,63,0
25410,note_on,30,0,1,,,,,,,,,0,,,61,0
25410,note_on,0,0,1,,,,,,,,,0,,,58,55
25438,set_tempo,2756,1,0,,,,,,500000,,,,,,,
25440,note_on,0,0,1,,,,,,,,,0,,,58,63
25440,note_on,30,0,1,,,,,,,,,0,,,58,0
25470,note_on,0,0,1,,,,,,,,,0,,,61,52
25470,note_on,30,0,1,,,,,,,,,0,,,58,0
25500,note_on,30,0,1,,,,,,,,,0,,,61,0
25500,note_on,0,0,1,,,,,,,,,0,,,58,60
25530,note_on,30,0,1,,,,,,,,,0,,,58,0
25530,note_on,0,0,1,,,,,,,,,0,,,55,49
25541,control_change,212,0,2,,,,,,,,,0,64,0,,
25560,note_on,30,0,1,,,,,,,,,0,,,55,0
25560,control_change,0,0,1,,,,,,,,,0,64,125,,
25560,note_on,0,0,1,,,,,,,,,0,,,63,50
25560,note_on,0,0,2,,,,,,,,,0,,,51,0
25560,note_on,0,0,2,,,,,,,,,0,,,46,0
25560,note_on,0,0,2,,,,,,,,,0,,,49,0
25560,note_on,0,0,2,,,,,,,,,0,,,44,40
25560,set_tempo,122,1,0,,,,,,603015,,,,,,,
25560,note_on,19,0,2,,,,,,,,,0,,,43,0
25565,set_tempo,5,1,0,,,,,,600000,,,,,,,
25567,set_tempo,2,1,0,,,,,,597015,,,,,,,
25570,set_tempo,3,1,0,,,,,,594059,,,,,,,
25572,set_tempo,2,1,0,,,,,,591133,,,,,,,
25575,set_tempo,3,1,0,,,,,,588235,,,,,,,
25580,set_tempo,5,1,0,,,,,,585366,,,,,,,
25582,set_tempo,2,1,0,,,,,,582524,,,,,,,
25585,set_tempo,3,1,0,,,,,,579710,,,,,,,
25587,set_tempo,2,1,0,,,,,,576923,,,,,,,
25590,set_tempo,3,1,0,,,,,,574163,,,,,,,
25592,set_tempo,2,1,0,,,,,,571429,,,,,,,
25597,set_tempo,5,1,0,,,,,,568720,,,,,,,
25600,note_on,40,0,1,,,,,,,,,0,,,60,40
25600,set_tempo,3,1,0,,,,,,566038,,,,,,,
25602,set_tempo,2,1,0,,,,,,563380,,,,,,,
25605,set_tempo,3,1,0,,,,,,560748,,,,,,,
25607,set_tempo,2,1,0,,,,,,558140,,,,,,,
25610,set_tempo,3,1,0,,,,,,555556,,,,,,,
25615,set_tempo,5,1,0,,,,,,552995,,,,,,,
25617,set_tempo,2,1,0,,,,,,550459,,,,,,,
25620,set_tempo,3,1,0,,,,,,547945,,,,,,,
25622,set_tempo,2,1,0,,,,,,545455,,,,,,,
25625,set_tempo,3,1,0,,,,,,542986,,,,,,,
25630,set_tempo,5,1,0,,,,,,540541,,,,,,,
25632,set_tempo,2,1,0,,,,,,538117,,,,,,,
25635,set_tempo,3,1,0,,,,,,535714,,,,,,,
25637,set_tempo,2,1,0,,,,,,533333,,,,,,,
25640,set_tempo,3,1,0,,,,,,530973,,,,,,,
25640,note_on,40,0,1,,,,,,,,,0,,,60,0
25640,note_on,0,0,1,,,,,,,,,0,,,56,40
25642,set_tempo,2,1,0,,,,,,528634,,,,,,,
25647,set_tempo,5,1,0,,,,,,526316,,,,,,,
25650,set_tempo,3,1,0,,,,,,524017,,,,,,,
25652,set_tempo,2,1,0,,,,,,521739,,,,,,,
25655,set_tempo,3,1,0,,,,,,519481,,,,,,,
25657,set_tempo,2,1,0,,,,,,517241,,,,,,,
25660,set_tempo,3,1,0,,,,,,515021,,,,,,,
25665,set_tempo,5,1,0,,,,,,512821,,,,,,,
25667,set_tempo,2,1,0,,,,,,510638,,,,,,,
25668,control_change,28,0,1,,,,,,,,,0,64,0,,
25670,set_tempo,3,1,0,,,,,,508475,,,,,,,
25672,set_tempo,2,1,0,,,,,,506329,,,,,,,
25675,set_tempo,3,1,0,,,,,,504202,,,,,,,
25677,set_tempo,2,1,0,,,,,,502092,,,,,,,
25680,note_on,12,0,1,,,,,,,,,0,,,56,0
25680,note_on,0,0,1,,,,,,,,,0,,,63,0
25680,note_on,0,0,1,,,,,,,,,0,,,68,50
25680,control_change,0,0,1,,,,,,,,,0,64,127,,
25682,set_tempo,5,1,0,,,,,,428571,,,,,,,
25720,note_on,40,0,1,,,,,,,,,0,,,63,40
25760,note_on,40,0,1,,,,,,,,,0,,,63,0
25760,note_on,0,0,1,,,,,,,,,0,,,60,40
25782,control_change,22,0,1,,,,,,,,,0,64,0,,
25800,note_on,18,0,1,,,,,,,,,0,,,60,0
25800,note_on,0,0,1,,,,,,,,,0,,,68,0
25800,note_on,0,0,1,,,,,,,,,0,,,67,50
25800,note_on,0,0,2,,,,,,,,,0,,,48,40
25800,note_on,240,0,2,,,,,,,,,0,,,44,0
25800,control_change,0,0,1,,,,,,,,,0,64,126,,
25840,note_on,40,0,1,,,,,,,,,0,,,63,40
25880,note_on,40,0,1,,,,,,,,,0,,,63,0
25880,note_on,0,0,1,,,,,,,,,0,,,60,40
25902,control_change,22,0,1,,,,,,,,,0,64,0,,
25920,note_on,120,0,2,,,,,,,,,0,,,48,0
25920,note_on,0,0,2,,,,,,,,,0,,,49,40
25920,note_on,0,0,1,,,,,,,,,0,,,65,50
25920,note_on,0,0,1,,,,,,,,,0,,,67,0
25920,note_on,18,0,1,,,,,,,,,0,,,60,0
25920,control_change,0,0,1,,,,,,,,,0,64,126,,
25922,set_tempo,240,1,0,,,,,,474308,,,,,,,
25960,note_on,40,0,1,,,,,,,,,0,,,61,40
26000,note_on,0,0,1,,,,,,,,,0,,,56,40
26000,note_on,40,0,1,,,,,,,,,0,,,61,0
26026,control_change,26,0,1,,,,,,,,,0,64,0,,
26038,set_tempo,116,1,0,,,,,,428571,,,,,,,
26040,note_on,0,0,2,,,,,,,,,0,,,46,40
26040,note_on,14,0,1,,,,,,,,,0,,,56,0
26040,control_change,0,0,1,,,,,,,,,0,64,126,,
26040,note_on,0,0,1,,,,,,,,,0,,,65,0
26040,note_on,120,0,2,,,,,,,,,0,,,49,0
26040,note_on,0,0,1,,,,,,,,,0,,,73,50
26080,note_on,40,0,1,,,,,,,,,0,,,65,40
26120,note_on,40,0,1,,,,,,,,,0,,,65,0
26120,note_on,0,0,1,,,,,,,,,0,,,61,40
26144,control_change,24,0,1,,,,,,,,,0,64,0,,
26158,set_tempo,120,1,0,,,,,,472441,,,,,,,
26160,note_on,16,0,1,,,,,,,,,0,,,61,0
26160,note_on,0,0,1,,,,,,,,,0,,,73,0
26160,note_on,0,0,1,,,,,,,,,0,,,70,50
26160,control_change,0,0,1,,,,,,,,,0,64,125,,
26160,note_on,120,0,2,,,,,,,,,0,,,46,0
26160,note_on,0,0,2,,,,,,,,,0,,,49,40
26200,note_on,40,0,1,,,,,,,,,0,,,65,40
26240,note_on,40,0,1,,,,,,,,,0,,,65,0
26240,note_on,0,0,1,,,,,,,,,0,,,61,40
26262,control_change,22,0,1,,,,,,,,,0,64,0,,
26280,note_on,0,0,1,,,,,,,,,0,,,70,0
26280,note_on,0,0,1,,,,,,,,,0,,,70,50
26280,control_change,0,0,1,,,,,,,,,0,64,126,,
26280,note_on,18,0,1,,,,,,,,,0,,,61,0
26280,note_on,0,0,2,,,,,,,,,0,,,51,40
26280,note_on,120,0,2,,,,,,,,,0,,,49,0
26282,set_tempo,124,1,0,,,,,,430108,,,,,,,
26320,note_on,40,0,1,,,,,,,,,0,,,63,40
26360,note_on,40,0,1,,,,,,,,,0,,,63,0
26360,note_on,0,0,1,,,,,,,,,0,,,61,40
26380,control_change,20,0,1,,,,,,,,,0,64,0,,
26400,control_change,0,0,1,,,,,,,,,0,64,127,,
26400,note_on,0,0,1,,,,,,,,,0,,,68,50
26400,note_on,20,0,1,,,,,,,,,0,,,61,0
26400,note_on,0,0,1,,,,,,,,,0,,,70,0
26440,note_on,40,0,1,,,,,,,,,0,,,63,40
26480,note_on,40,0,1,,,,,,,,,0,,,63,0
26480,note_on,0,0,1,,,,,,,,,0,,,60,40
26500,control_change,20,0,1,,,,,,,,,0,64,0,,
26518,set_tempo,236,1,0,,,,,,430108,,,,,,,
26520,control_change,0,0,1,,,,,,,,,0,64,125,,
26520,note_on,0,0,1,,,,,,,,,0,,,68,50
26520,note_on,0,0,1,,,,,,,,,0,,,68,0
26520,note_on,20,0,1,,,,,,,,,0,,,60,0
26560,note_on,40,0,1,,,,,,,,,0,,,63,40
26600,note_on,0,0,1,,,,,,,,,0,,,60,40
26600,note_on,40,0,1,,,,,,,,,0,,,63,0
26626,control_change,26,0,1,,,,,,,,,0,64,0,,
26638,set_tempo,120,1,0,,,,,,401338,,,,,,,
26640,note_on,360,0,2,,,,,,,,,0,,,51,0
26640,note_on,0,0,1,,,,,,,,,0,,,68,0
26640,note_on,0,0,1,,,,,,,,,0,,,68,50
26640,control_change,0,0,1,,,,,,,,,0,64,125,,
26640,note_on,0,0,2,,,,,,,,,0,,,39,40
26640,note_on,14,0,1,,,,,,,,,0,,,60,0
26646,set_tempo,8,1,0,,,,,,402685,,,,,,,
26652,set_tempo,6,1,0,,,,,,404040,,,,,,,
26658,set_tempo,6,1,0,,,,,,405405,,,,,,,
26664,set_tempo,6,1,0,,,,,,406780,,,,,,,
26670,set_tempo,6,1,0,,,,,,408163,,,,,,,
26676,set_tempo,6,1,0,,,,,,409556,,,,,,,
26680,note_on,40,0,1,,,,,,,,,0,,,63,40
26682,set_tempo,6,1,0,,,,,,410959,,,,,,,
26688,set_tempo,6,1,0,,,,,,412371,,,,,,,
26694,set_tempo,6,1,0,,,,,,413793,,,,,,,
26700,set_tempo,6,1,0,,,,,,415225,,,,,,,
26706,set_tempo,6,1,0,,,,,,416667,,,,,,,
26712,set_tempo,6,1,0,,,,,,418118,,,,,,,
26718,set_tempo,6,1,0,,,,,,419580,,,,,,,
26720,note_on,40,0,1,,,,,,,,,0,,,63,0
26720,note_on,0,0,1,,,,,,,,,0,,,60,40
26726,set_tempo,8,1,0,,,,,,421053,,,,,,,
26732,set_tempo,6,1,0,,,,,,422535,,,,,,,
26738,set_tempo,6,1,0,,,,,,424028,,,,,,,
26744,set_tempo,6,1,0,,,,,,425532,,,,,,,
26746,control_change,26,0,1,,,,,,,,,0,64,0,,
26750,set_tempo,6,1,0,,,,,,427046,,,,,,,
26756,set_tempo,6,1,0,,,,,,428571,,,,,,,
26760,note_on,14,0,1,,,,,,,,,0,,,60,0
26760,note_on,0,0,1,,,,,,,,,0,,,68,0
26760,note_on,0,0,1,,,,,,,,,0,,,67,50
26760,control_change,0,0,1,,,,,,,,,0,64,124,,
26762,set_tempo,6,1,0,,,,,,430108,,,,,,,
26768,set_tempo,6,1,0,,,,,,431655,,,,,,,
26774,set_tempo,6,1,0,,,,,,433213,,,,,,,
26780,set_tempo,6,1,0,,,,,,434783,,,,,,,
26786,set_tempo,6,1,0,,,,,,436364,,,,,,,
26792,set_tempo,6,1,0,,,,,,437956,,,,,,,
26798,set_tempo,6,1,0,,,,,,439560,,,,,,,
26800,note_on,40,0,1,,,,,,,,,0,,,63,40
26806,set_tempo,8,1,0,,,,,,441176,,,,,,,
26812,set_tempo,6,1,0,,,,,,442804,,,,,,,
26818,set_tempo,6,1,0,,,,,,444444,,,,,,,
26824,set_tempo,6,1,0,,,,,,446097,,,,,,,
26830,set_tempo,6,1,0,,,,,,447761,,,,,,,
26836,set_tempo,6,1,0,,,,,,449438,,,,,,,
26840,note_on,0,0,1,,,,,,,,,0,,,58,40
26840,note_on,40,0,1,,,,,,,,,0,,,63,0
26842,set_tempo,6,1,0,,,,,,451128,,,,,,,
26848,set_tempo,6,1,0,,,,,,452830,,,,,,,
26854,set_tempo,6,1,0,,,,,,454545,,,,,,,
26860,set_tempo,6,1,0,,,,,,456274,,,,,,,
26860,control_change,20,0,1,,,,,,,,,0,64,0,,
26866,set_tempo,6,1,0,,,,,,458015,,,,,,,
26872,set_tempo,6,1,0,,,,,,459770,,,,,,,
26878,set_tempo,6,1,0,,,,,,461538,,,,,,,
26880,note_on,0,0,1,,,,,,,,,0,,,67,50
26880,note_on,0,0,1,,,,,,,,,0,,,67,0
26880,note_on,20,0,1,,,,,,,,,0,,,58,0
26880,set_tempo,2,1,0,,,,,,521739,,,,,,,
26880,control_change,0,0,1,,,,,,,,,0,64,126,,
26920,note_on,40,0,1,,,,,,,,,0,,,63,40
26960,note_on,40,0,1,,,,,,,,,0,,,63,0
26960,note_on,0,0,1,,,,,,,,,0,,,58,40
26984,control_change,24,0,1,,,,,,,,,0,64,0,,
27000,set_tempo,120,1,0,,,,,,430108,,,,,,,
27000,note_on,0,0,2,,,,,,,,,0,,,44,40
27000,note_on,360,0,2,,,,,,,,,0,,,39,0
27000,note_on,16,0,1,,,,,,,,,0,,,58,0
27000,note_on,0,0,1,,,,,,,,,0,,,67,0
27000,note_on,0,0,1,,,,,,,,,0,,,63,50
27000,control_change,0,0,1,,,,,,,,,0,64,127,,
27002,set_tempo,2,1,0,,,,,,428571,,,,,,,
27040,note_on,40,0,1,,,,,,,,,0,,,60,40
27080,note_on,0,0,1,,,,,,,,,0,,,56,40
27080,note_on,40,0,1,,,,,,,,,0,,,60,0
27102,control_change,22,0,1,,,,,,,,,0,64,0,,
27120,note_on,0,0,1,,,,,,,,,0,,,68,50
27120,control_change,0,0,1,,,,,,,,,0,64,126,,
27120,note_on,0,0,1,,,,,,,,,0,,,63,0
27120,note_on,18,0,1,,,,,,,,,0,,,56,0
27160,note_on,40,0,1,,,,,,,,,0,,,63,40
27200,note_on,0,0,1,,,,,,,,,0,,,60,40
27200,note_on,40,0,1,,,,,,,,,0,,,63,0
27224,control_change,24,0,1,,,,,,,,,0,64,0,,
27240,note_on,0,0,1,,,,,,,,,0,,,67,50
27240,note_on,0,0,2,,,,,,,,,0,,,48,40
27240,note_on,16,0,1,,,,,,,,,0,,,60,0
27240,note_on,0,0,1,,,,,,,,,0,,,68,0
27240,note_on,240,0,2,,,,,,,,,0,,,44,0
27240,control_change,0,0,1,,,,,,,,,0,64,127,,
27280,note_on,40,0,1,,,,,,,,,0,,,63,40
27320,note_on,0,0,1,,,,,,,,,0,,,60,40
27320,note_on,40,0,1,,,,,,,,,0,,,63,0
27360,note_on,0,0,2,,,,,,,,,0,,,49,40
27360,note_on,120,0,2,,,,,,,,,0,,,48,0
27360,control_change,0,0,1,,,,,,,,,0,64,126,,
27360,note_on,0,0,1,,,,,,,,,0,,,67,0
27360,note_on,0,0,1,,,,,,,,,0,,,65,50
27360,note_on,40,0,1,,,,,,,,,0,,,60,0
27362,set_tempo,360,1,0,,,,,,502092,,,,,,,
27400,note_on,40,0,1,,,,,,,,,0,,,61,40
27440,note_on,0,0,1,,,,,,,,,0,,,56,40
27440,note_on,40,0,1,,,,,,,,,0,,,61,0
27464,control_change,24,0,1,,,,,,,,,0,64,0,,
27480,note_on,16,0,1,,,,,,,,,0,,,56,0
27480,note_on,0,0,1,,,,,,,,,0,,,65,0
27480,note_on,120,0,2,,,,,,,,,0,,,49,0
27480,note_on,0,0,2,,,,,,,,,0,,,46,40
27480,note_on,0,0,1,,,,,,,,,0,,,77,50
27480,set_tempo,118,1,0,,,,,,428571,,,,,,,
27480,control_change,0,0,1,,,,,,,,,0,64,126,,
27520,note_on,40,0,1,,,,,,,,,0,,,68,40
27560,note_on,40,0,1,,,,,,,,,0,,,68,0
27560,note_on,0,0,1,,,,,,,,,0,,,65,40
27579,control_change,19,0,1,,,,,,,,,0,64,0,,
27600,note_on,0,0,2,,,,,,,,,0,,,49,40
27600,note_on,0,0,2,,,,,,,,,0,,,58,40
27600,note_on,120,0,2,,,,,,,,,0,,,46,0
27600,note_on,0,0,1,,,,,,,,,0,,,77,0
27600,note_on,0,0,1,,,,,,,,,0,,,73,50
27600,control_change,0,0,1,,,,,,,,,0,64,127,,
27600,note_on,21,0,1,,,,,,,,,0,,,65,0
27640,note_on,40,0,1,,,,,,,,,0,,,68,40
27680,note_on,0,0,1,,,,,,,,,0,,,65,40
27680,note_on,40,0,1,,,,,,,,,0,,,68,0
27702,control_change,22,0,1,,,,,,,,,0,64,0,,
27720,note_on,18,0,1,,,,,,,,,0,,,65,0
27720,set_tempo,240,1,0,,,,,,428571,,,,,,,
27720,note_on,0,0,2,,,,,,,,,0,,,51,40
27720,note_on,120,0,2,,,,,,,,,0,,,49,0
27720,note_on,0,0,1,,,,,,,,,0,,,73,50
27720,note_on,0,0,1,,,,,,,,,0,,,73,0
27720,control_change,0,0,1,,,,,,,,,0,64,126,,
27740,set_tempo,20,1,0,,,,,,430108,,,,,,,
27758,set_tempo,18,1,0,,,,,,431655,,,,,,,
27760,note_on,40,0,1,,,,,,,,,0,,,68,40
27776,set_tempo,18,1,0,,,,,,433213,,,,,,,
27794,set_tempo,18,1,0,,,,,,434783,,,,,,,
27800,note_on,0,0,1,,,,,,,,,0,,,63,40
27800,note_on,40,0,1,,,,,,,,,0,,,68,0
27812,set_tempo,18,1,0,,,,,,436364,,,,,,,
27820,control_change,20,0,1,,,,,,,,,0,64,0,,
27830,set_tempo,18,1,0,,,,,,437956,,,,,,,
27838,control_change,18,0,1,,,,,,,,,0,64,126,,
27840,note_on,0,0,1,,,,,,,,,0,,,73,0
27840,note_on,120,0,2,,,,,,,,,0,,,58,0
27840,note_on,2,0,1,,,,,,,,,0,,,63,0
27840,note_on,0,0,2,,,,,,,,,0,,,56,40
27840,note_on,0,0,1,,,,,,,,,0,,,72,50
27848,set_tempo,18,1,0,,,,,,439560,,,,,,,
27866,set_tempo,18,1,0,,,,,,441176,,,,,,,
27880,note_on,40,0,1,,,,,,,,,0,,,68,40
27884,set_tempo,18,1,0,,,,,,442804,,,,,,,
27902,set_tempo,18,1,0,,,,,,444444,,,,,,,
27920,note_on,40,0,1,,,,,,,,,0,,,68,0
27920,set_tempo,18,1,0,,,,,,446097,,,,,,,
27920,note_on,0,0,1,,,,,,,,,0,,,63,40
27938,set_tempo,18,1,0,,,,,,447761,,,,,,,
27946,control_change,26,0,1,,,,,,,,,0,64,0,,
27960,set_tempo,22,1,0,,,,,,461538,,,,,,,
27960,note_on,0,0,2,,,,,,,,,0,,,56,40
27960,note_on,0,0,1,,,,,,,,,0,,,72,0
27960,note_on,120,0,2,,,,,,,,,0,,,56,0
27960,note_on,0,0,1,,,,,,,,,0,,,72,50
27960,note_on,14,0,1,,,,,,,,,0,,,63,0
27960,control_change,0,0,1,,,,,,,,,0,64,125,,
28000,note_on,40,0,1,,,,,,,,,0,,,68,40
28040,note_on,40,0,1,,,,,,,,,0,,,68,0
28040,note_on,0,0,1,,,,,,,,,0,,,63,40
28056,control_change,16,0,1,,,,,,,,,0,64,0,,
28078,set_tempo,118,1,0,,,,,,428571,,,,,,,
28080,note_on,24,0,1,,,,,,,,,0,,,63,0
28080,note_on,0,0,1,,,,,,,,,0,,,72,0
28080,note_on,0,0,1,,,,,,,,,0,,,72,50
28080,note_on,0,0,2,,,,,,,,,0,,,51,40
28080,control_change,0,0,1,,,,,,,,,0,64,125,,
28080,note_on,120,0,2,,,,,,,,,0,,,51,0
28088,set_tempo,10,1,0,,,,,,430108,,,,,,,
28096,set_tempo,8,1,0,,,,,,431655,,,,,,,
28104,set_tempo,8,1,0,,,,,,433213,,,,,,,
28112,set_tempo,8,1,0,,,,,,434783,,,,,,,
28120,set_tempo,8,1,0,,,,,,436364,,,,,,,
28120,note_on,40,0,1,,,,,,,,,0,,,63,40
28130,set_tempo,10,1,0,,,,,,437956,,,,,,,
28138,set_tempo,8,1,0,,,,,,439560,,,,,,,
28146,set_tempo,8,1,0,,,,,,441176,,,,,,,
28154,set_tempo,8,1,0,,,,,,442804,,,,,,,
28160,note_on,40,0,1,,,,,,,,,0,,,63,0
28160,note_on,0,0,1,,,,,,,,,0,,,61,40
28162,set_tempo,8,1,0,,,,,,444444,,,,,,,
28172,set_tempo,10,1,0,,,,,,446097,,,,,,,
28180,set_tempo,8,1,0,,,,,,447761,,,,,,,
28186,control_change,26,0,1,,,,,,,,,0,64,0,,
28188,set_tempo,8,1,0,,,,,,449438,,,,,,,
28196,set_tempo,8,1,0,,,,,,451128,,,,,,,
28200,note_on,120,0,2,,,,,,,,,0,,,56,0
28200,note_on,0,0,2,,,,,,,,,0,,,55,40
28200,note_on,0,0,1,,,,,,,,,0,,,70,50
28200,note_on,14,0,1,,,,,,,,,0,,,61,0
28200,control_change,0,0,1,,,,,,,,,0,64,127,,
28200,note_on,0,0,1,,,,,,,,,0,,,72,0
28204,set_tempo,8,1,0,,,,,,452830,,,,,,,
28214,set_tempo,10,1,0,,,,,,454545,,,,,,,
28222,set_tempo,8,1,0,,,,,,456274,,,,,,,
28230,set_tempo,8,1,0,,,,,,458015,,,,,,,
28238,set_tempo,8,1,0,,,,,,459770,,,,,,,
28240,note_on,40,0,1,,,,,,,,,0,,,63,40
28246,set_tempo,8,1,0,,,,,,461538,,,,,,,
28256,set_tempo,10,1,0,,,,,,463320,,,,,,,
28264,set_tempo,8,1,0,,,,,,465116,,,,,,,
28272,set_tempo,8,1,0,,,,,,466926,,,,,,,
28280,note_on,0,0,1,,,,,,,,,0,,,61,40
28280,note_on,40,0,1,,,,,,,,,0,,,63,0
28280,set_tempo,8,1,0,,,,,,468750,,,,,,,
28288,set_tempo,8,1,0,,,,,,470588,,,,,,,
28298,set_tempo,10,1,0,,,,,,472441,,,,,,,
28302,control_change,22,0,1,,,,,,,,,0,64,0,,
28306,set_tempo,8,1,0,,,,,,474308,,,,,,,
28314,set_tempo,8,1,0,,,,,,476190,,,,,,,
28320,note_on,120,0,2,,,,,,,,,0,,,55,0
28320,note_on,0,0,2,,,,,,,,,0,,,55,40
28320,note_on,18,0,1,,,,,,,,,0,,,61,0
28320,note_on,0,0,1,,,,,,,,,0,,,70,0
28320,note_on,0,0,1,,,,,,,,,0,,,70,50
28320,control_change,0,0,1,,,,,,,,,0,64,126,,
28322,set_tempo,8,1,0,,,,,,478088,,,,,,,
28330,set_tempo,8,1,0,,,,,,480000,,,,,,,
28340,set_tempo,10,1,0,,,,,,481928,,,,,,,
28348,set_tempo,8,1,0,,,,,,483871,,,,,,,
28356,set_tempo,8,1,0,,,,,,485830,,,,,,,
28360,note_on,40,0,1,,,,,,,,,0,,,63,40
28364,set_tempo,8,1,0,,,,,,487805,,,,,,,
28372,set_tempo,8,1,0,,,,,,489796,,,,,,,
28380,set_tempo,8,1,0,,,,,,666667,,,,,,,
28400,note_on,40,0,1,,,,,,,,,0,,,63,0
28400,note_on,0,0,1,,,,,,,,,0,,,61,40
28426,control_change,26,0,1,,,,,,,,,0,64,0,,
28440,note_on,120,0,2,,,,,,,,,0,,,55,0
28440,note_on,0,0,1,,,,,,,,,0,,,70,0
28440,note_on,0,0,1,,,,,,,,,0,,,72,48
28440,set_tempo,60,1,0,,,,,,400000,,,,,,,
28440,note_on,14,0,1,,,,,,,,,0,,,61,0
28440,control_change,0,0,2,,,,,,,,,0,91,125,,
28440,note_on,0,0,2,,,,,,,,,0,,,51,0
28440,note_on,0,0,2,,,,,,,,,0,,,44,48
28442,control_change,2,0,1,,,,,,,,,0,91,126,,
28447,control_change,7,0,2,,,,,,,,,0,64,127,,
28470,note_on,28,0,1,,,,,,,,,0,,,72,0
28470,note_on,0,0,1,,,,,,,,,0,,,75,40
28500,note_on,30,0,1,,,,,,,,,0,,,75,0
28500,note_on,0,0,1,,,,,,,,,0,,,72,48
28530,note_on,30,0,1,,,,,,,,,0,,,72,0
28530,note_on,0,0,1,,,,,,,,,0,,,68,40
28530,note_on,83,0,2,,,,,,,,,0,,,44,0
28560,note_on,0,0,1,,,,,,,,,0,,,68,48
28560,note_on,30,0,2,,,,,,,,,0,,,60,39
28560,note_on,30,0,1,,,,,,,,,0,,,68,0
28560,note_on,0,0,2,,,,,,,,,0,,,54,33
28560,note_on,0,0,2,,,,,,,,,0,,,56,33
28590,note_on,0,0,1,,,,,,,,,0,,,72,40
28590,note_on,30,0,1,,,,,,,,,0,,,68,0
28620,note_on,30,0,1,,,,,,,,,0,,,72,0
28620,note_on,0,0,1,,,,,,,,,0,,,68,48
28650,note_on,0,0,1,,,,,,,,,0,,,63,40
28650,note_on,30,0,1,,,,,,,,,0,,,68,0
28680,note_on,30,0,1,,,,,,,,,0,,,63,0
28680,note_on,0,0,1,,,,,,,,,0,,,68,48
28680,set_tempo,240,1,0,,,,,,428571,,,,,,,
28687,control_change,127,0,2,,,,,,,,,0,64,0,,
28740,note_on,60,0,1,,,,,,,,,0,,,68,0
28800,note_on,0,0,2,,,,,,,,,0,,,60,0
28800,note_on,0,0,2,,,,,,,,,0,,,56,0
28800,set_tempo,120,1,0,,,,,,400000,,,,,,,
28800,note_on,113,0,2,,,,,,,,,0,,,54,0
28800,note_on,0,0,2,,,,,,,,,0,,,49,48
28800,note_on,60,0,1,,,,,,,,,0,,,73,48
28802,control_change,2,0,2,,,,,,,,,0,64,127,,
28830,note_on,30,0,1,,,,,,,,,0,,,73,0
28830,note_on,0,0,1,,,,,,,,,0,,,77,40
28860,note_on,0,0,1,,,,,,,,,0,,,73,48
28860,note_on,30,0,1,,,,,,,,,0,,,77,0
28890,note_on,88,0,2,,,,,,,,,0,,,49,0
28890,note_on,0,0,1,,,,,,,,,0,,,68,40
28890,note_on,30,0,1,,,,,,,,,0,,,73,0
28920,note_on,30,0,2,,,,,,,,,0,,,56,29
28920,note_on,0,0,2,,,,,,,,,0,,,61,35
28920,note_on,0,0,2,,,,,,,,,0,,,53,29
28920,note_on,0,0,1,,,,,,,,,0,,,68,48
28920,note_on,30,0,1,,,,,,,,,0,,,68,0
28950,note_on,0,0,1,,,,,,,,,0,,,73,40
28950,note_on,30,0,1,,,,,,,,,0,,,68,0
28980,note_on,30,0,1,,,,,,,,,0,,,73,0
28980,note_on,0,0,1,,,,,,,,,0,,,68,48
29010,note_on,0,0,1,,,,,,,,,0,,,65,40
29010,note_on,30,0,1,,,,,,,,,0,,,68,0
29040,note_on,0,0,1,,,,,,,,,0,,,68,48
29040,set_tempo,240,1,0,,,,,,428571,,,,,,,
29040,note_on,30,0,1,,,,,,,,,0,,,65,0
29042,control_change,122,0,2,,,,,,,,,0,64,0,,
29100,note_on,60,0,1,,,,,,,,,0,,,68,0
29158,set_tempo,118,1,0,,,,,,400000,,,,,,,
29160,note_on,0,0,2,,,,,,,,,0,,,61,0
29160,note_on,0,0,2,,,,,,,,,0,,,56,0
29160,note_on,0,0,2,,,,,,,,,0,,,39,48
29160,note_on,118,0,2,,,,,,,,,0,,,53,0
29160,note_on,60,0,1,,,,,,,,,0,,,75,48
29164,control_change,4,0,2,,,,,,,,,0,64,127,,
29190,note_on,30,0,1,,,,,,,,,0,,,75,0
29190,note_on,0,0,1,,,,,,,,,0,,,79,40
29220,note_on,30,0,1,,,,,,,,,0,,,79,0
29220,note_on,0,0,1,,,,,,,,,0,,,75,48
29250,note_on,0,0,1,,,,,,,,,0,,,70,40
29250,note_on,30,0,1,,,,,,,,,0,,,75,0
29250,note_on,86,0,2,,,,,,,,,0,,,39,0
29280,note_on,30,0,1,,,,,,,,,0,,,70,0
29280,note_on,0,0,2,,,,,,,,,0,,,51,35
29280,note_on,0,0,2,,,,,,,,,0,,,58,35
29280,note_on,30,0,2,,,,,,,,,0,,,61,42
29280,note_on,0,0,1,,,,,,,,,0,,,70,48
29310,note_on,30,0,1,,,,,,,,,0,,,70,0
29310,note_on,0,0,1,,,,,,,,,0,,,75,40
29340,note_on,30,0,1,,,,,,,,,0,,,75,0
29340,note_on,0,0,1,,,,,,,,,0,,,70,48
29370,note_on,0,0,1,,,,,,,,,0,,,67,40
29370,note_on,30,0,1,,,,,,,,,0,,,70,0
29400,note_on,30,0,1,,,,,,,,,0,,,67,0
29400,note_on,0,0,1,,,,,,,,,0,,,70,48
29402,set_tempo,244,1,0,,,,,,430108,,,,,,,
29404,control_change,124,0,2,,,,,,,,,0,64,0,,
29460,note_on,60,0,1,,,,,,,,,0,,,70,0
29520,note_on,0,0,2,,,,,,,,,0,,,44,48
29520,note_on,60,0,1,,,,,,,,,0,,,75,48
29520,note_on,0,0,2,,,,,,,,,0,,,61,0
29520,set_tempo,118,1,0,,,,,,401338,,,,,,,
29520,note_on,0,0,2,,,,,,,,,0,,,58,0
29520,note_on,116,0,2,,,,,,,,,0,,,51,0
29525,control_change,5,0,2,,,,,,,,,0,64,127,,
29550,note_on,30,0,1,,,,,,,,,0,,,75,0
29550,note_on,0,0,1,,,,,,,,,0,,,80,40
29580,note_on,30,0,1,,,,,,,,,0,,,80,0
29580,note_on,0,0,1,,,,,,,,,0,,,75,48
29610,note_on,85,0,2,,,,,,,,,0,,,44,0
29610,note_on,0,0,1,,,,,,,,,0,,,72,40
29610,note_on,30,0,1,,,,,,,,,0,,,75,0
29640,note_on,30,0,2,,,,,,,,,0,,,60,44
29640,note_on,30,0,1,,,,,,,,,0,,,72,0
29640,note_on,0,0,2,,,,,,,,,0,,,56,37
29640,note_on,0,0,2,,,,,,,,,0,,,51,37
29640,note_on,0,0,1,,,,,,,,,0,,,72,48
29670,note_on,30,0,1,,,,,,,,,0,,,72,0
29670,note_on,0,0,1,,,,,,,,,0,,,75,40
29700,note_on,0,0,1,,,,,,,,,0,,,72,48
29700,note_on,30,0,1,,,,,,,,,0,,,75,0
29730,note_on,0,0,1,,,,,,,,,0,,,68,40
29730,note_on,30,0,1,,,,,,,,,0,,,72,0
29760,note_on,0,0,1,,,,,,,,,0,,,72,48
29760,note_on,30,0,1,,,,,,,,,0,,,68,0
29760,set_tempo,240,1,0,,,,,,461538,,,,,,,
29765,control_change,125,0,2,,,,,,,,,0,64,0,,
29820,note_on,60,0,1,,,,,,,,,0,,,72,0
29880,note_on,115,0,2,,,,,,,,,0,,,56,0
29880,note_on,0,0,2,,,,,,,,,0,,,44,60
29880,note_on,0,0,2,,,,,,,,,0,,,60,0
29880,note_on,0,0,2,,,,,,,,,0,,,51,0
29880,note_on,60,0,1,,,,,,,,,0,,,84,64
29882,set_tempo,122,1,0,,,,,,401338,,,,,,,
29885,control_change,5,0,2,,,,,,,,,0,64,127,,
29910,note_on,30,0,1,,,,,,,,,0,,,84,0
29910,note_on,0,0,1,,,,,,,,,0,,,87,54
29940,note_on,30,0,1,,,,,,,,,0,,,87,0
29940,note_on,0,0,1,,,,,,,,,0,,,84,64
29970,note_on,85,0,2,,,,,,,,,0,,,44,0
29970,note_on,30,0,1,,,,,,,,,0,,,84,0
29970,note_on,0,0,1,,,,,,,,,0,,,80,54
30000,note_on,30,0,2,,,,,,,,,0,,,54,41
30000,note_on,0,0,2,,,,,,,,,0,,,60,49
30000,note_on,0,0,2,,,,,,,,,0,,,56,41
30000,note_on,30,0,1,,,,,,,,,0,,,80,0
30000,note_on,0,0,1,,,,,,,,,0,,,80,64
30030,note_on,30,0,1,,,,,,,,,0,,,80,0
30030,note_on,0,0,1,,,,,,,,,0,,,84,54
30060,note_on,0,0,1,,,,,,,,,0,,,80,64
30060,note_on,30,0,1,,,,,,,,,0,,,84,0
30090,note_on,0,0,1,,,,,,,,,0,,,75,54
30090,note_on,30,0,1,,,,,,,,,0,,,80,0
30120,set_tempo,238,1,0,,,,,,428571,,,,,,,
30120,note_on,0,0,1,,,,,,,,,0,,,80,64
30120,note_on,30,0,1,,,,,,,,,0,,,75,0
30125,control_change,125,0,2,,,,,,,,,0,64,0,,
30180,note_on,60,0,1,,,,,,,,,0,,,80,0
30240,note_on,115,0,2,,,,,,,,,0,,,60,0
30240,note_on,0,0,2,,,,,,,,,0,,,54,0
30240,note_on,0,0,2,,,,,,,,,0,,,49,72
30240,note_on,60,0,1,,,,,,,,,0,,,85,72
30240,set_tempo,120,1,0,,,,,,402685,,,,,,,
30240,note_on,0,0,2,,,,,,,,,0,,,56,0
30244,control_change,4,0,2,,,,,,,,,0,64,127,,
30270,note_on,0,0,1,,,,,,,,,0,,,89,61
30270,note_on,30,0,1,,,,,,,,,0,,,85,0
30300,note_on,0,0,1,,,,,,,,,0,,,85,72
30300,note_on,30,0,1,,,,,,,,,0,,,89,0
30330,note_on,86,0,2,,,,,,,,,0,,,49,0
30330,note_on,30,0,1,,,,,,,,,0,,,85,0
30330,note_on,0,0,1,,,,,,,,,0,,,80,61
30360,note_on,30,0,2,,,,,,,,,0,,,61,62
30360,note_on,0,0,1,,,,,,,,,0,,,80,72
30360,note_on,0,0,2,,,,,,,,,0,,,56,52
30360,note_on,0,0,2,,,,,,,,,0,,,53,52
30360,note_on,30,0,1,,,,,,,,,0,,,80,0
30390,note_on,0,0,1,,,,,,,,,0,,,85,61
30390,note_on,30,0,1,,,,,,,,,0,,,80,0
30420,note_on,0,0,1,,,,,,,,,0,,,80,72
30420,note_on,30,0,1,,,,,,,,,0,,,85,0
30450,note_on,0,0,1,,,,,,,,,0,,,77,61
30450,note_on,30,0,1,,,,,,,,,0,,,80,0
30480,set_tempo,240,1,0,,,,,,428571,,,,,,,
30480,note_on,0,0,1,,,,,,,,,0,,,80,72
30480,note_on,30,0,1,,,,,,,,,0,,,77,0
30484,control_change,124,0,2,,,,,,,,,0,64,0,,
30540,note_on,60,0,1,,,,,,,,,0,,,80,0
30600,note_on,116,0,2,,,,,,,,,0,,,56,0
30600,note_on,0,0,2,,,,,,,,,0,,,53,0
30600,note_on,0,0,2,,,,,,,,,0,,,61,0
30600,note_on,0,0,2,,,,,,,,,0,,,39,84
30600,set_tempo,120,1,0,,,,,,401338,,,,,,,
30600,note_on,60,0,1,,,,,,,,,0,,,87,84
30607,control_change,7,0,2,,,,,,,,,0,64,127,,
30630,note_on,30,0,1,,,,,,,,,0,,,87,0
30630,note_on,0,0,1,,,,,,,,,0,,,91,71
30660,note_on,30,0,1,,,,,,,,,0,,,91,0
30660,note_on,0,0,1,,,,,,,,,0,,,87,84
30690,note_on,30,0,1,,,,,,,,,0,,,87,0
30690,note_on,0,0,1,,,,,,,,,0,,,82,71
30690,note_on,83,0,2,,,,,,,,,0,,,39,0
30720,note_on,0,0,2,,,,,,,,,0,,,58,62
30720,note_on,30,0,2,,,,,,,,,0,,,61,73
30720,note_on,0,0,2,,,,,,,,,0,,,51,62
30720,note_on,30,0,1,,,,,,,,,0,,,82,0
30720,note_on,0,0,1,,,,,,,,,0,,,82,84
30750,note_on,0,0,1,,,,,,,,,0,,,87,71
30750,note_on,30,0,1,,,,,,,,,0,,,82,0
30780,note_on,30,0,1,,,,,,,,,0,,,87,0
30780,note_on,0,0,1,,,,,,,,,0,,,82,84
30810,note_on,30,0,1,,,,,,,,,0,,,82,0
30810,note_on,0,0,1,,,,,,,,,0,,,79,71
30840,note_on,0,0,1,,,,,,,,,0,,,82,84
30840,set_tempo,240,1,0,,,,,,428571,,,,,,,
30840,note_on,30,0,1,,,,,,,,,0,,,79,0
30847,control_change,127,0,2,,,,,,,,,0,64,0,,
30900,note_on,60,0,1,,,,,,,,,0,,,82,0
30960,set_tempo,120,1,0,,,,,,400000,,,,,,,
30960,note_on,113,0,2,,,,,,,,,0,,,58,0
30960,note_on,0,0,2,,,,,,,,,0,,,51,0
30960,note_on,0,0,2,,,,,,,,,0,,,61,0
30960,note_on,0,0,2,,,,,,,,,0,,,44,88
30960,note_on,60,0,1,,,,,,,,,0,,,87,91
30965,control_change,5,0,2,,,,,,,,,0,64,127,,
30990,note_on,30,0,1,,,,,,,,,0,,,87,0
30990,note_on,0,0,1,,,,,,,,,0,,,92,76
31020,note_on,30,0,1,,,,,,,,,0,,,92,0
31020,note_on,0,0,1,,,,,,,,,0,,,87,91
31050,note_on,30,0,1,,,,,,,,,0,,,87,0
31050,note_on,0,0,1,,,,,,,,,0,,,84,76
31050,note_on,85,0,2,,,,,,,,,0,,,44,0
31080,note_on,0,0,2,,,,,,,,,0,,,56,64
31080,note_on,0,0,2,,,,,,,,,0,,,51,64
31080,note_on,30,0,2,,,,,,,,,0,,,60,76
31080,note_on,30,0,1,,,,,,,,,0,,,84,0
31080,note_on,0,0,1,,,,,,,,,0,,,84,91
31110,note_on,30,0,1,,,,,,,,,0,,,84,0
31110,note_on,0,0,1,,,,,,,,,0,,,87,76
31140,note_on,0,0,1,,,,,,,,,0,,,84,91
31140,note_on,30,0,1,,,,,,,,,0,,,87,0
31170,note_on,0,0,1,,,,,,,,,0,,,80,76
31170,note_on,30,0,1,,,,,,,,,0,,,84,0
31198,set_tempo,238,1,0,,,,,,463320,,,,,,,
31200,note_on,0,0,1,,,,,,,,,0,,,84,91
31200,note_on,30,0,1,,,,,,,,,0,,,80,0
31205,control_change,125,0,2,,,,,,,,,0,64,0,,
31260,note_on,60,0,1,,,,,,,,,0,,,84,0
31320,note_on,0,0,2,,,,,,,,,0,,,51,0
31320,note_on,0,0,2,,,,,,,,,0,,,60,0
31320,note_on,0,0,2,,,,,,,,,0,,,51,60
31320,note_on,0,0,2,,,,,,,,,0,,,44,40
31320,note_on,60,0,1,,,,,,,,,0,,,72,48
31320,note_on,115,0,2,,,,,,,,,0,,,56,0
31321,set_tempo,123,1,0,,,,,,428571,,,,,,,
31327,control_change,7,0,2,,,,,,,,,0,64,127,,
31350,note_on,30,0,1,,,,,,,,,0,,,72,0
31350,note_on,0,0,1,,,,,,,,,0,,,75,40
31380,note_on,30,0,1,,,,,,,,,0,,,75,0
31380,note_on,0,0,1,,,,,,,,,0,,,72,48
31410,note_on,30,0,1,,,,,,,,,0,,,72,0
31410,note_on,0,0,1,,,,,,,,,0,,,68,40
31437,set_tempo,116,1,0,,,,,,400000,,,,,,,
31440,note_on,0,0,1,,,,,,,,,0,,,68,48
31440,note_on,0,0,2,,,,,,,,,0,,,56,72
31440,note_on,113,0,2,,,,,,,,,0,,,51,0
31440,note_on,30,0,1,,,,,,,,,0,,,68,0
31470,note_on,30,0,1,,,,,,,,,0,,,68,0
31470,note_on,0,0,1,,,,,,,,,0,,,72,40
31500,note_on,30,0,1,,,,,,,,,0,,,72,0
31500,note_on,0,0,1,,,,,,,,,0,,,68,48
31530,note_on,0,0,1,,,,,,,,,0,,,63,40
31530,note_on,30,0,1,,,,,,,,,0,,,68,0
31560,note_on,30,0,1,,,,,,,,,0,,,63,0
31560,note_on,0,0,1,,,,,,,,,0,,,68,48
31613,control_change,173,0,2,,,,,,,,,0,64,0,,
31620,note_on,0,0,2,,,,,,,,,0,,,55,60
31620,note_on,7,0,2,,,,,,,,,0,,,56,0
31620,note_on,60,0,1,,,,,,,,,0,,,68,0
31680,note_on,0,0,2,,,,,,,,,0,,,44,0
31680,note_on,0,0,2,,,,,,,,,0,,,53,60
31680,note_on,60,0,2,,,,,,,,,0,,,55,0
31680,note_on,60,0,1,,,,,,,,,0,,,73,48
31680,note_on,0,0,2,,,,,,,,,0,,,49,40
31680,set_tempo,243,1,0,,,,,,427046,,,,,,,
31682,control_change,2,0,2,,,,,,,,,0,64,127,,
31710,note_on,30,0,1,,,,,,,,,0,,,73,0
31710,note_on,0,0,1,,,,,,,,,0,,,77,40
31740,note_on,0,0,1,,,,,,,,,0,,,73,48
31740,note_on,30,0,1,,,,,,,,,0,,,77,0
31770,note_on,30,0,1,,,,,,,,,0,,,73,0
31770,note_on,0,0,1,,,,,,,,,0,,,68,40
31800,set_tempo,120,1,0,,,,,,400000,,,,,,,
31800,note_on,118,0,2,,,,,,,,,0,,,53,0
31800,note_on,30,0,1,,,,,,,,,0,,,68,0
31800,note_on,0,0,1,,,,,,,,,0,,,68,48
31800,note_on,0,0,2,,,,,,,,,0,,,61,72
31830,note_on,0,0,1,,,,,,,,,0,,,73,40
31830,note_on,30,0,1,,,,,,,,,0,,,68,0
31860,note_on,0,0,1,,,,,,,,,0,,,68,48
31860,note_on,30,0,1,,,,,,,,,0,,,73,0
31890,note_on,30,0,1,,,,,,,,,0,,,68,0
31890,note_on,0,0,1,,,,,,,,,0,,,65,40
31920,note_on,30,0,1,,,,,,,,,0,,,65,0
31920,note_on,0,0,1,,,,,,,,,0,,,68,48
31978,control_change,178,0,2,,,,,,,,,0,64,0,,
31980,note_on,2,0,2,,,,,,,,,0,,,61,0
31980,note_on,0,0,2,,,,,,,,,0,,,60,60
31980,note_on,60,0,1,,,,,,,,,0,,,68,0
32040,note_on,60,0,1,,,,,,,,,0,,,75,48
32040,note_on,60,0,2,,,,,,,,,0,,,60,0
32040,note_on,0,0,2,,,,,,,,,0,,,49,0
32040,note_on,0,0,2,,,,,,,,,0,,,51,40
32040,note_on,0,0,2,,,,,,,,,0,,,58,60
32042,set_tempo,242,1,0,,,,,,430108,,,,,,,
32044,control_change,4,0,2,,,,,,,,,0,64,127,,
32070,note_on,30,0,1,,,,,,,,,0,,,75,0
32070,note_on,0,0,1,,,,,,,,,0,,,79,40
32100,note_on,30,0,1,,,,,,,,,0,,,79,0
32100,note_on,0,0,1,,,,,,,,,0,,,75,48
32130,note_on,30,0,1,,,,,,,,,0,,,75,0
32130,note_on,0,0,1,,,,,,,,,0,,,70,40
32158,set_tempo,116,1,0,,,,,,400000,,,,,,,
32160,note_on,0,0,2,,,,,,,,,0,,,63,72
32160,note_on,116,0,2,,,,,,,,,0,,,58,0
32160,note_on,0,0,1,,,,,,,,,0,,,70,48
32160,note_on,30,0,1,,,,,,,,,0,,,70,0
32190,note_on,30,0,1,,,,,,,,,0,,,70,0
32190,note_on,0,0,1,,,,,,,,,0,,,75,40
32220,note_on,30,0,1,,,,,,,,,0,,,75,0
32220,note_on,0,0,1,,,,,,,,,0,,,70,48
32250,note_on,30,0,1,,,,,,,,,0,,,70,0
32250,note_on,0,0,1,,,,,,,,,0,,,67,40
32280,note_on,0,0,1,,,,,,,,,0,,,70,48
32280,note_on,30,0,1,,,,,,,,,0,,,67,0
32333,control_change,173,0,2,,,,,,,,,0,64,0,,
32340,note_on,60,0,1,,,,,,,,,0,,,70,0
32340,note_on,7,0,2,,,,,,,,,0,,,63,0
32340,note_on,0,0,2,,,,,,,,,0,,,61,60
32400,note_on,60,0,2,,,,,,,,,0,,,61,0
32400,note_on,0,0,2,,,,,,,,,0,,,51,0
32400,note_on,0,0,2,,,,,,,,,0,,,56,40
32400,note_on,0,0,2,,,,,,,,,0,,,60,60
32400,set_tempo,242,1,0,,,,,,428571,,,,,,,
32400,note_on,60,0,1,,,,,,,,,0,,,75,48
32405,control_change,5,0,2,,,,,,,,,0,64,127,,
32430,note_on,0,0,1,,,,,,,,,0,,,80,40
32430,note_on,30,0,1,,,,,,,,,0,,,75,0
32460,note_on,0,0,1,,,,,,,,,0,,,75,48
32460,note_on,30,0,1,,,,,,,,,0,,,80,0
32490,note_on,30,0,1,,,,,,,,,0,,,75,0
32490,note_on,0,0,1,,,,,,,,,0,,,72,40
32520,note_on,30,0,1,,,,,,,,,0,,,72,0
32520,note_on,115,0,2,,,,,,,,,0,,,60,0
32520,note_on,0,0,2,,,,,,,,,0,,,63,72
32520,note_on,0,0,1,,,,,,,,,0,,,72,48
32522,set_tempo,122,1,0,,,,,,400000,,,,,,,
32550,note_on,30,0,1,,,,,,,,,0,,,72,0
32550,note_on,0,0,1,,,,,,,,,0,,,75,40
32580,note_on,30,0,1,,,,,,,,,0,,,75,0
32580,note_on,0,0,1,,,,,,,,,0,,,72,48
32610,note_on,30,0,1,,,,,,,,,0,,,72,0
32610,note_on,0,0,1,,,,,,,,,0,,,68,40
32640,note_on,0,0,1,,,,,,,,,0,,,72,48
32640,note_on,30,0,1,,,,,,,,,0,,,68,0
32661,control_change,141,0,2,,,,,,,,,0,64,0,,
32700,note_on,60,0,1,,,,,,,,,0,,,72,0
32760,note_on,99,0,2,,,,,,,,,0,,,63,0
32760,note_on,0,0,2,,,,,,,,,0,,,56,0
32760,note_on,0,0,2,,,,,,,,,0,,,44,57
32760,note_on,0,0,2,,,,,,,,,0,,,51,68
32760,set_tempo,238,1,0,,,,,,483871,,,,,,,
32760,note_on,60,0,1,,,,,,,,,0,,,84,68
32765,control_change,5,0,2,,,,,,,,,0,64,127,,
32790,note_on,30,0,1,,,,,,,,,0,,,84,0
32790,note_on,0,0,1,,,,,,,,,0,,,87,57
32820,note_on,0,0,1,,,,,,,,,0,,,84,68
32820,note_on,30,0,1,,,,,,,,,0,,,87,0
32850,note_on,30,0,1,,,,,,,,,0,,,84,0
32850,note_on,0,0,1,,,,,,,,,0,,,80,57
32878,set_tempo,118,1,0,,,,,,398671,,,,,,,
32880,note_on,0,0,2,,,,,,,,,0,,,56,78
32880,note_on,115,0,2,,,,,,,,,0,,,51,0
32880,note_on,30,0,1,,,,,,,,,0,,,80,0
32880,note_on,0,0,1,,,,,,,,,0,,,80,68
32910,note_on,0,0,1,,,,,,,,,0,,,84,57
32910,note_on,30,0,1,,,,,,,,,0,,,80,0
32940,note_on,0,0,1,,,,,,,,,0,,,80,68
32940,note_on,30,0,1,,,,,,,,,0,,,84,0
32970,note_on,30,0,1,,,,,,,,,0,,,80,0
32970,note_on,0,0,1,,,,,,,,,0,,,75,57
33000,note_on,30,0,1,,,,,,,,,0,,,75,0
33000,note_on,0,0,1,,,,,,,,,0,,,80,68
33058,control_change,178,0,2,,,,,,,,,0,64,0,,
33060,note_on,60,0,1,,,,,,,,,0,,,80,0
33060,note_on,2,0,2,,,,,,,,,0,,,56,0
33060,note_on,0,0,2,,,,,,,,,0,,,55,68
33120,note_on,0,0,2,,,,,,,,,0,,,53,68
33120,note_on,0,0,2,,,,,,,,,0,,,44,0
33120,note_on,0,0,2,,,,,,,,,0,,,49,57
33120,note_on,60,0,2,,,,,,,,,0,,,55,0
33120,note_on,60,0,1,,,,,,,,,0,,,85,68
33122,set_tempo,244,1,0,,,,,,436364,,,,,,,
33124,control_change,4,0,2,,,,,,,,,0,64,127,,
33150,note_on,30,0,1,,,,,,,,,0,,,85,0
33150,note_on,0,0,1,,,,,,,,,0,,,89,57
33180,note_on,30,0,1,,,,,,,,,0,,,89,0
33180,note_on,0,0,1,,,,,,,,,0,,,85,68
33210,note_on,30,0,1,,,,,,,,,0,,,85,0
33210,note_on,0,0,1,,,,,,,,,0,,,80,57
33240,set_tempo,118,1,0,,,,,,400000,,,,,,,
33240,note_on,0,0,2,,,,,,,,,0,,,61,79
33240,note_on,116,0,2,,,,,,,,,0,,,53,0
33240,note_on,30,0,1,,,,,,,,,0,,,80,0
33240,note_on,0,0,1,,,,,,,,,0,,,80,68
33270,note_on,30,0,1,,,,,,,,,0,,,80,0
33270,note_on,0,0,1,,,,,,,,,0,,,85,57
33300,note_on,30,0,1,,,,,,,,,0,,,85,0
33300,note_on,0,0,1,,,,,,,,,0,,,80,68
33330,note_on,30,0,1,,,,,,,,,0,,,80,0
33330,note_on,0,0,1,,,,,,,,,0,,,77,57
33360,note_on,30,0,1,,,,,,,,,0,,,77,0
33360,note_on,0,0,1,,,,,,,,,0,,,80,68
33411,control_change,171,0,2,,,,,,,,,0,64,0,,
33420,note_on,0,0,2,,,,,,,,,0,,,60,68
33420,note_on,60,0,1,,,,,,,,,0,,,80,0
33420,note_on,9,0,2,,,,,,,,,0,,,61,0
33480,note_on,60,0,1,,,,,,,,,0,,,87,68
33480,note_on,0,0,2,,,,,,,,,0,,,49,0
33480,note_on,0,0,2,,,,,,,,,0,,,51,59
33480,note_on,60,0,2,,,,,,,,,0,,,60,0
33480,note_on,0,0,2,,,,,,,,,0,,,58,71
33482,set_tempo,242,1,0,,,,,,421053,,,,,,,
33491,control_change,11,0,2,,,,,,,,,0,64,127,,
33510,note_on,30,0,1,,,,,,,,,0,,,87,0
33510,note_on,0,0,1,,,,,,,,,0,,,91,57
33540,note_on,30,0,1,,,,,,,,,0,,,91,0
33540,note_on,0,0,1,,,,,,,,,0,,,87,68
33570,note_on,30,0,1,,,,,,,,,0,,,87,0
33570,note_on,0,0,1,,,,,,,,,0,,,82,57
33600,set_tempo,118,1,0,,,,,,400000,,,,,,,
33600,note_on,109,0,2,,,,,,,,,0,,,58,0
33600,note_on,30,0,1,,,,,,,,,0,,,82,0
33600,note_on,0,0,1,,,,,,,,,0,,,82,68
33600,note_on,0,0,2,,,,,,,,,0,,,63,81
33630,note_on,0,0,1,,,,,,,,,0,,,87,57
33630,note_on,30,0,1,,,,,,,,,0,,,82,0
33660,note_on,0,0,1,,,,,,,,,0,,,82,68
33660,note_on,30,0,1,,,,,,,,,0,,,87,0
33690,note_on,30,0,1,,,,,,,,,0,,,82,0
33690,note_on,0,0,1,,,,,,,,,0,,,79,57
33720,note_on,0,0,1,,,,,,,,,0,,,82,68
33720,note_on,30,0,1,,,,,,,,,0,,,79,0
33775,control_change,175,0,2,,,,,,,,,0,64,0,,
33780,note_on,60,0,1,,,,,,,,,0,,,82,0
33780,note_on,0,0,2,,,,,,,,,0,,,61,68
33780,note_on,5,0,2,,,,,,,,,0,,,63,0
33840,note_on,60,0,1,,,,,,,,,0,,,87,80
33840,note_on,0,0,2,,,,,,,,,0,,,56,64
33840,note_on,0,0,2,,,,,,,,,0,,,60,76
33840,note_on,0,0,2,,,,,,,,,0,,,51,0
33840,note_on,60,0,2,,,,,,,,,0,,,61,0
33842,set_tempo,242,1,0,,,,,,412371,,,,,,,
33844,control_change,4,0,2,,,,,,,,,0,64,127,,
33870,note_on,30,0,1,,,,,,,,,0,,,87,0
33870,note_on,0,0,1,,,,,,,,,0,,,92,68
33900,note_on,0,0,1,,,,,,,,,0,,,87,80
33900,note_on,30,0,1,,,,,,,,,0,,,92,0
33930,note_on,30,0,1,,,,,,,,,0,,,87,0
33930,note_on,0,0,1,,,,,,,,,0,,,84,68
33958,set_tempo,116,1,0,,,,,,400000,,,,,,,
33960,note_on,30,0,1,,,,,,,,,0,,,84,0
33960,note_on,0,0,1,,,,,,,,,0,,,84,80
33960,note_on,116,0,2,,,,,,,,,0,,,60,0
33960,note_on,0,0,2,,,,,,,,,0,,,63,86
33990,note_on,30,0,1,,,,,,,,,0,,,84,0
33990,note_on,0,0,1,,,,,,,,,0,,,87,68
34020,note_on,30,0,1,,,,,,,,,0,,,87,0
34020,note_on,0,0,1,,,,,,,,,0,,,84,80
34050,note_on,0,0,1,,,,,,,,,0,,,80,68
34050,note_on,30,0,1,,,,,,,,,0,,,84,0
34080,note_on,30,0,1,,,,,,,,,0,,,80,0
34080,note_on,0,0,1,,,,,,,,,0,,,84,80
34138,control_change,178,0,2,,,,,,,,,0,64,0,,
34140,note_on,60,0,1,,,,,,,,,0,,,84,0
34140,note_on,2,0,2,,,,,,,,,0,,,63,0
34140,note_on,0,0,2,,,,,,,,,0,,,60,80
34200,set_tempo,242,1,0,,,,,,409556,,,,,,,
34200,note_on,0,0,2,,,,,,,,,0,,,51,60
34200,note_on,0,0,2,,,,,,,,,0,,,58,80
34200,note_on,0,0,2,,,,,,,,,0,,,56,0
34200,note_on,60,0,2,,,,,,,,,0,,,60,0
34200,note_on,60,0,1,,,,,,,,,0,,,87,84
34205,control_change,5,0,2,,,,,,,,,0,64,127,,
34230,note_on,0,0,1,,,,,,,,,0,,,91,71
34230,note_on,30,0,1,,,,,,,,,0,,,87,0
34260,note_on,30,0,1,,,,,,,,,0,,,91,0
34260,note_on,0,0,1,,,,,,,,,0,,,87,84
34290,note_on,30,0,1,,,,,,,,,0,,,87,0
34290,note_on,0,0,1,,,,,,,,,0,,,82,71
34320,set_tempo,120,1,0,,,,,,400000,,,,,,,
34320,note_on,115,0,2,,,,,,,,,0,,,58,0
34320,note_on,0,0,2,,,,,,,,,0,,,63,88
34320,note_on,30,0,1,,,,,,,,,0,,,82,0
34320,note_on,0,0,1,,,,,,,,,0,,,82,84
34350,note_on,30,0,1,,,,,,,,,0,,,82,0
34350,note_on,0,0,1,,,,,,,,,0,,,87,71
34380,note_on,0,0,1,,,,,,,,,0,,,82,84
34380,note_on,30,0,1,,,,,,,,,0,,,87,0
34410,note_on,0,0,1,,,,,,,,,0,,,79,71
34410,note_on,30,0,1,,,,,,,,,0,,,82,0
34440,note_on,30,0,1,,,,,,,,,0,,,79,0
34440,note_on,0,0,1,,,,,,,,,0,,,82,84
34493,control_change,173,0,2,,,,,,,,,0,64,0,,
34500,note_on,7,0,2,,,,,,,,,0,,,63,0
34500,note_on,0,0,2,,,,,,,,,0,,,61,80
34500,note_on,60,0,1,,,,,,,,,0,,,82,0
34560,note_on,0,0,2,,,,,,,,,0,,,51,0
34560,note_on,60,0,1,,,,,,,,,0,,,87,90
34560,note_on,60,0,2,,,,,,,,,0,,,61,0
34560,note_on,0,0,2,,,,,,,,,0,,,56,73
34560,note_on,0,0,2,,,,,,,,,0,,,60,86
34560,control_change,0,0,2,,,,,,,,,0,64,127,,
34562,set_tempo,242,1,0,,,,,,410959,,,,,,,
34590,note_on,0,0,1,,,,,,,,,0,,,92,76
34590,note_on,30,0,1,,,,,,,,,0,,,87,0
34620,note_on,0,0,1,,,,,,,,,0,,,87,90
34620,note_on,30,0,1,,,,,,,,,0,,,92,0
34650,note_on,0,0,1,,,,,,,,,0,,,84,76
34650,note_on,30,0,1,,,,,,,,,0,,,87,0
34678,set_tempo,116,1,0,,,,,,400000,,,,,,,
34680,note_on,30,0,1,,,,,,,,,0,,,84,0
34680,note_on,120,0,2,,,,,,,,,0,,,60,0
34680,note_on,0,0,1,,,,,,,,,0,,,84,90
34680,note_on,0,0,2,,,,,,,,,0,,,63,93
34710,note_on,0,0,1,,,,,,,,,0,,,87,76
34710,note_on,30,0,1,,,,,,,,,0,,,84,0
34740,note_on,0,0,1,,,,,,,,,0,,,84,90
34740,note_on,30,0,1,,,,,,,,,0,,,87,0
34770,note_on,30,0,1,,,,,,,,,0,,,84,0
34770,note_on,0,0,1,,,,,,,,,0,,,80,76
34800,note_on,0,0,1,,,,,,,,,0,,,84,90
34800,note_on,30,0,1,,,,,,,,,0,,,80,0
34853,control_change,173,0,2,,,,,,,,,0,64,0,,
34860,note_on,7,0,2,,,,,,,,,0,,,63,0
34860,note_on,0,0,2,,,,,,,,,0,,,60,85
34860,note_on,60,0,1,,,,,,,,,0,,,84,0
34920,note_on,60,0,1,,,,,,,,,0,,,87,96
34920,note_on,0,0,2,,,,,,,,,0,,,58,89
34920,note_on,0,0,2,,,,,,,,,0,,,51,75
34920,note_on,0,0,2,,,,,,,,,0,,,56,0
34920,note_on,60,0,2,,,,,,,,,0,,,60,0
34922,set_tempo,244,1,0,,,,,,412371,,,,,,,
34927,control_change,7,0,2,,,,,,,,,0,64,127,,
34950,note_on,0,0,1,,,,,,,,,0,,,91,81
34950,note_on,30,0,1,,,,,,,,,0,,,87,0
34980,note_on,0,0,1,,,,,,,,,0,,,87,96
34980,note_on,30,0,1,,,,,,,,,0,,,91,0
35010,note_on,0,0,1,,,,,,,,,0,,,82,81
35010,note_on,30,0,1,,,,,,,,,0,,,87,0
35040,set_tempo,118,1,0,,,,,,400000,,,,,,,
35040,note_on,113,0,2,,,,,,,,,0,,,58,0
35040,note_on,0,0,2,,,,,,,,,0,,,63,95
35040,note_on,30,0,1,,,,,,,,,0,,,82,0
35040,note_on,0,0,1,,,,,,,,,0,,,82,96
35070,note_on,30,0,1,,,,,,,,,0,,,82,0
35070,note_on,0,0,1,,,,,,,,,0,,,87,81
35100,note_on,0,0,1,,,,,,,,,0,,,82,96
35100,note_on,30,0,1,,,,,,,,,0,,,87,0
35130,note_on,0,0,1,,,,,,,,,0,,,79,81
35130,note_on,30,0,1,,,,,,,,,0,,,82,0
35160,note_on,0,0,1,,,,,,,,,0,,,82,96
35160,note_on,30,0,1,,,,,,,,,0,,,79,0
35216,control_change,176,0,2,,,,,,,,,0,64,0,,
35220,note_on,60,0,1,,,,,,,,,0,,,82,0
35220,note_on,4,0,2,,,,,,,,,0,,,63,0
35220,note_on,0,0,2,,,,,,,,,0,,,61,87
35280,note_on,60,0,2,,,,,,,,,0,,,61,0
35280,note_on,0,0,2,,,,,,,,,0,,,51,0
35280,note_on,0,0,2,,,,,,,,,0,,,56,81
35280,note_on,0,0,2,,,,,,,,,0,,,60,96
35280,note_on,60,0,1,,,,,,,,,0,,,87,96
35284,control_change,4,0,2,,,,,,,,,0,64,127,,
35310,note_on,30,0,1,,,,,,,,,0,,,87,0
35310,note_on,0,0,1,,,,,,,,,0,,,92,81
35340,note_on,30,0,1,,,,,,,,,0,,,92,0
35340,note_on,0,0,1,,,,,,,,,0,,,87,96
35370,note_on,30,0,1,,,,,,,,,0,,,87,0
35370,note_on,0,0,1,,,,,,,,,0,,,84,81
35400,note_on,116,0,2,,,,,,,,,0,,,60,0
35400,note_on,0,0,2,,,,,,,,,0,,,56,0
35400,note_on,30,0,1,,,,,,,,,0,,,84,0
35400,note_on,0,0,1,,,,,,,,,0,,,84,96
35430,note_on,0,0,1,,,,,,,,,0,,,87,81
35430,note_on,30,0,1,,,,,,,,,0,,,84,0
35460,note_on,0,0,1,,,,,,,,,0,,,84,96
35460,note_on,30,0,1,,,,,,,,,0,,,87,0
35490,note_on,0,0,1,,,,,,,,,0,,,80,81
35490,note_on,30,0,1,,,,,,,,,0,,,84,0
35520,note_on,0,0,1,,,,,,,,,0,,,80,96
35520,note_on,30,0,1,,,,,,,,,0,,,80,0
35550,note_on,0,0,1,,,,,,,,,0,,,84,81
35550,note_on,30,0,1,,,,,,,,,0,,,80,0
35580,note_on,0,0,1,,,,,,,,,0,,,80,96
35580,note_on,30,0,1,,,,,,,,,0,,,84,0
35610,note_on,0,0,1,,,,,,,,,0,,,75,81
35610,note_on,30,0,1,,,,,,,,,0,,,80,0
35612,control_change,212,0,2,,,,,,,,,0,64,0,,
35640,note_on,0,0,1,,,,,,,,,0,,,75,96
35640,note_on,30,0,1,,,,,,,,,0,,,75,0
35640,control_change,28,0,2,,,,,,,,,0,64,127,,
35670,note_on,30,0,1,,,,,,,,,0,,,75,0
35670,note_on,0,0,1,,,,,,,,,0,,,80,81
35700,note_on,30,0,1,,,,,,,,,0,,,80,0
35700,note_on,0,0,1,,,,,,,,,0,,,75,96
35730,note_on,30,0,1,,,,,,,,,0,,,75,0
35730,note_on,0,0,1,,,,,,,,,0,,,72,81
35760,note_on,30,0,1,,,,,,,,,0,,,72,0
35760,note_on,0,0,1,,,,,,,,,0,,,72,96
35790,note_on,30,0,1,,,,,,,,,0,,,72,0
35790,note_on,0,0,1,,,,,,,,,0,,,75,81
35820,note_on,30,0,1,,,,,,,,,0,,,75,0
35820,note_on,0,0,1,,,,,,,,,0,,,72,96
35850,note_on,30,0,1,,,,,,,,,0,,,72,0
35850,note_on,0,0,1,,,,,,,,,0,,,68,81
35880,note_on,0,0,1,,,,,,,,,0,,,68,96
35880,note_on,30,0,1,,,,,,,,,0,,,68,0
35910,note_on,30,0,1,,,,,,,,,0,,,68,0
35910,note_on,0,0,1,,,,,,,,,0,,,72,81
35940,note_on,30,0,1,,,,,,,,,0,,,72,0
35940,note_on,0,0,1,,,,,,,,,0,,,68,96
35970,note_on,30,0,1,,,,,,,,,0,,,68,0
35970,note_on,0,0,1,,,,,,,,,0,,,63,80
35972,control_change,332,0,2,,,,,,,,,0,64,0,,
36000,note_on,30,0,1,,,,,,,,,0,,,63,0
36000,note_on,0,0,1,,,,,,,,,0,,,75,95
36000,note_on,28,0,2,,,,,,,,,0,,,63,99
36004,control_change,4,0,2,,,,,,,,,0,64,127,,
36030,note_on,30,0,1,,,,,,,,,0,,,75,0
36030,note_on,0,0,1,,,,,,,,,0,,,80,79
36060,note_on,0,0,1,,,,,,,,,0,,,75,93
36060,note_on,30,0,1,,,,,,,,,0,,,80,0
36060,note_on,56,0,2,,,,,,,,,0,,,63,0
36090,note_on,0,0,1,,,,,,,,,0,,,72,77
36090,note_on,30,0,1,,,,,,,,,0,,,75,0
36120,note_on,30,0,1,,,,,,,,,0,,,72,0
36120,note_on,0,0,1,,,,,,,,,0,,,72,91
36120,note_on,60,0,2,,,,,,,,,0,,,60,99
36150,note_on,30,0,1,,,,,,,,,0,,,72,0
36150,note_on,0,0,1,,,,,,,,,0,,,75,76
36180,note_on,60,0,2,,,,,,,,,0,,,60,0
36180,note_on,30,0,1,,,,,,,,,0,,,75,0
36180,note_on,0,0,1,,,,,,,,,0,,,72,89
36210,note_on,0,0,1,,,,,,,,,0,,,68,75
36210,note_on,30,0,1,,,,,,,,,0,,,72,0
36240,note_on,60,0,2,,,,,,,,,0,,,56,93
36240,note_on,30,0,1,,,,,,,,,0,,,68,0
36240,note_on,0,0,1,,,,,,,,,0,,,68,87
36270,note_on,30,0,1,,,,,,,,,0,,,68,0
36270,note_on,0,0,1,,,,,,,,,0,,,72,73
36300,note_on,60,0,2,,,,,,,,,0,,,56,0
36300,note_on,30,0,1,,,,,,,,,0,,,72,0
36300,note_on,0,0,1,,,,,,,,,0,,,68,85
36330,note_on,0,0,1,,,,,,,,,0,,,63,71
36330,note_on,30,0,1,,,,,,,,,0,,,68,0
36337,control_change,37,0,2,,,,,,,,,0,64,0,,
36360,note_on,0,0,2,,,,,,,,,0,,,51,88
36360,note_on,0,0,1,,,,,,,,,0,,,63,83
36360,note_on,30,0,1,,,,,,,,,0,,,63,0
36360,control_change,23,0,2,,,,,,,,,0,64,127,,
36390,note_on,0,0,1,,,,,,,,,0,,,68,70
36390,note_on,30,0,1,,,,,,,,,0,,,63,0
36420,note_on,30,0,1,,,,,,,,,0,,,68,0
36420,note_on,0,0,1,,,,,,,,,0,,,63,79
36420,note_on,60,0,2,,,,,,,,,0,,,51,0
36450,note_on,0,0,1,,,,,,,,,0,,,60,68
36450,note_on,30,0,1,,,,,,,,,0,,,63,0
36480,note_on,60,0,2,,,,,,,,,0,,,48,84
36480,note_on,0,0,1,,,,,,,,,0,,,60,77
36480,note_on,30,0,1,,,,,,,,,0,,,60,0
36510,note_on,0,0,1,,,,,,,,,0,,,63,66
36510,note_on,30,0,1,,,,,,,,,0,,,60,0
36540,note_on,0,0,1,,,,,,,,,0,,,60,75
36540,note_on,30,0,1,,,,,,,,,0,,,63,0
36540,note_on,60,0,2,,,,,,,,,0,,,48,0
36570,note_on,0,0,1,,,,,,,,,0,,,56,62
36570,note_on,30,0,1,,,,,,,,,0,,,60,0
36600,note_on,60,0,2,,,,,,,,,0,,,51,80
36600,note_on,30,0,1,,,,,,,,,0,,,56,0
36600,note_on,0,0,1,,,,,,,,,0,,,63,70
36630,note_on,30,0,1,,,,,,,,,0,,,63,0
36630,note_on,0,0,1,,,,,,,,,0,,,68,57
36660,note_on,0,0,1,,,,,,,,,0,,,63,65
36660,note_on,30,0,1,,,,,,,,,0,,,68,0
36660,note_on,60,0,2,,,,,,,,,0,,,51,0
36685,control_change,25,0,2,,,,,,,,,0,64,0,,
36690,note_on,0,0,1,,,,,,,,,0,,,60,53
36690,note_on,30,0,1,,,,,,,,,0,,,63,0
36720,note_on,35,0,2,,,,,,,,,0,,,44,72
36720,note_on,30,0,1,,,,,,,,,0,,,60,0
36720,note_on,0,0,1,,,,,,,,,0,,,56,60
36732,control_change,12,0,2,,,,,,,,,0,64,127,,
36750,note_on,30,0,1,,,,,,,,,0,,,56,0
36750,note_on,0,0,1,,,,,,,,,0,,,60,51
36780,note_on,30,0,1,,,,,,,,,0,,,60,0
36780,note_on,0,0,1,,,,,,,,,0,,,56,60
36810,note_on,30,0,1,,,,,,,,,0,,,56,0
36810,note_on,0,0,1,,,,,,,,,0,,,51,51
36840,note_on,30,0,1,,,,,,,,,0,,,51,0
36840,note_on,108,0,2,,,,,,,,,0,,,44,0
36840,note_on,0,0,1,,,,,,,,,0,,,56,60
36870,note_on,0,0,1,,,,,,,,,0,,,60,51
36870,note_on,30,0,1,,,,,,,,,0,,,56,0
36900,note_on,0,0,1,,,,,,,,,0,,,56,60
36900,note_on,30,0,1,,,,,,,,,0,,,60,0
36930,note_on,0,0,1,,,,,,,,,0,,,51,51
36930,note_on,30,0,1,,,,,,,,,0,,,56,0
36960,note_on,0,0,1,,,,,,,,,0,,,56,60
36960,note_on,30,0,1,,,,,,,,,0,,,51,0
36990,note_on,30,0,1,,,,,,,,,0,,,56,0
36990,note_on,0,0,1,,,,,,,,,0,,,60,51
37020,note_on,30,0,1,,,,,,,,,0,,,60,0
37020,note_on,0,0,1,,,,,,,,,0,,,56,60
37050,note_on,30,0,1,,,,,,,,,0,,,56,0
37050,note_on,0,0,1,,,,,,,,,0,,,51,51
37080,note_on,30,0,1,,,,,,,,,0,,,51,0
37080,note_on,0,0,1,,,,,,,,,0,,,56,60
37110,note_on,30,0,1,,,,,,,,,0,,,56,0
37110,note_on,0,0,1,,,,,,,,,0,,,60,51
37140,note_on,0,0,1,,,,,,,,,0,,,56,60
37140,note_on,30,0,1,,,,,,,,,0,,,60,0
37170,note_on,0,0,1,,,,,,,,,0,,,51,51
37170,note_on,30,0,1,,,,,,,,,0,,,56,0
37200,note_on,0,0,1,,,,,,,,,0,,,56,60
37200,note_on,30,0,1,,,,,,,,,0,,,51,0
37230,note_on,30,0,1,,,,,,,,,0,,,56,0
37230,note_on,0,0,1,,,,,,,,,0,,,60,51
37260,note_on,30,0,1,,,,,,,,,0,,,60,0
37260,note_on,0,0,1,,,,,,,,,0,,,56,60
37290,note_on,30,0,1,,,,,,,,,0,,,56,0
37290,note_on,0,0,1,,,,,,,,,0,,,51,51
37320,note_on,30,0,1,,,,,,,,,0,,,51,0
37320,note_on,0,0,1,,,,,,,,,0,,,56,60
37350,note_on,30,0,1,,,,,,,,,0,,,56,0
37350,note_on,0,0,1,,,,,,,,,0,,,60,51
37380,note_on,0,0,1,,,,,,,,,0,,,56,60
37380,note_on,30,0,1,,,,,,,,,0,,,60,0
37410,note_on,0,0,1,,,,,,,,,0,,,51,51
37410,note_on,30,0,1,,,,,,,,,0,,,56,0
37412,control_change,572,0,2,,,,,,,,,0,64,0,,
37438,set_tempo,2398,1,0,,,,,,400000,,,,,,,
37440,note_on,0,0,2,,,,,,,,,0,,,48,60
37440,note_on,0,0,2,,,,,,,,,0,,,44,60
37440,note_on,30,0,1,,,,,,,,,0,,,51,0
37440,note_on,0,0,1,,,,,,,,,0,,,68,60
37440,note_on,28,0,2,,,,,,,,,0,,,36,60
37440,note_on,0,0,1,,,,,,,,,0,,,63,60
37449,control_change,9,0,2,,,,,,,,,0,64,127,,
37456,set_tempo,18,1,0,,,,,,401338,,,,,,,
37470,note_on,30,0,1,,,,,,,,,0,,,63,0
37470,note_on,0,0,1,,,,,,,,,0,,,66,51
37474,set_tempo,18,1,0,,,,,,402685,,,,,,,
37492,set_tempo,18,1,0,,,,,,404040,,,,,,,
37500,note_on,30,0,1,,,,,,,,,0,,,66,0
37500,note_on,0,0,1,,,,,,,,,0,,,63,59
37510,set_tempo,18,1,0,,,,,,405405,,,,,,,
37528,set_tempo,18,1,0,,,,,,406780,,,,,,,
37530,note_on,30,0,1,,,,,,,,,0,,,63,0
37530,note_on,0,0,1,,,,,,,,,0,,,56,49
37546,set_tempo,18,1,0,,,,,,408163,,,,,,,
37560,note_on,30,0,1,,,,,,,,,0,,,56,0
37560,note_on,0,0,1,,,,,,,,,0,,,63,57
37564,set_tempo,18,1,0,,,,,,409556,,,,,,,
37582,set_tempo,18,1,0,,,,,,410959,,,,,,,
37590,note_on,30,0,1,,,,,,,,,0,,,63,0
37590,note_on,0,0,1,,,,,,,,,0,,,66,47
37600,set_tempo,18,1,0,,,,,,412371,,,,,,,
37618,set_tempo,18,1,0,,,,,,413793,,,,,,,
37620,note_on,0,0,1,,,,,,,,,0,,,63,55
37620,note_on,30,0,1,,,,,,,,,0,,,66,0
37636,set_tempo,18,1,0,,,,,,415225,,,,,,,
37650,note_on,0,0,1,,,,,,,,,0,,,56,46
37650,note_on,30,0,1,,,,,,,,,0,,,63,0
37654,set_tempo,18,1,0,,,,,,416667,,,,,,,
37672,set_tempo,18,1,0,,,,,,418118,,,,,,,
37680,note_on,0,0,1,,,,,,,,,0,,,63,54
37680,note_on,30,0,1,,,,,,,,,0,,,56,0
37690,set_tempo,18,1,0,,,,,,419580,,,,,,,
37708,set_tempo,18,1,0,,,,,,421053,,,,,,,
37710,note_on,0,0,1,,,,,,,,,0,,,66,45
37710,note_on,30,0,1,,,,,,,,,0,,,63,0
37726,set_tempo,18,1,0,,,,,,422535,,,,,,,
37740,note_on,30,0,1,,,,,,,,,0,,,66,0
37740,note_on,0,0,1,,,,,,,,,0,,,63,52
37744,set_tempo,18,1,0,,,,,,424028,,,,,,,
37762,set_tempo,18,1,0,,,,,,425532,,,,,,,
37770,note_on,30,0,1,,,,,,,,,0,,,63,0
37770,note_on,0,0,1,,,,,,,,,0,,,56,43
37780,set_tempo,18,1,0,,,,,,427046,,,,,,,
37798,set_tempo,18,1,0,,,,,,428571,,,,,,,
37800,note_on,30,0,1,,,,,,,,,0,,,56,0
37800,note_on,0,0,1,,,,,,,,,0,,,63,50
37816,set_tempo,18,1,0,,,,,,430108,,,,,,,
37830,note_on,0,0,1,,,,,,,,,0,,,66,42
37830,note_on,30,0,1,,,,,,,,,0,,,63,0
37834,set_tempo,18,1,0,,,,,,431655,,,,,,,
37852,set_tempo,18,1,0,,,,,,433213,,,,,,,
37860,note_on,0,0,1,,,,,,,,,0,,,63,49
37860,note_on,30,0,1,,,,,,,,,0,,,66,0
37870,set_tempo,18,1,0,,,,,,434783,,,,,,,
37888,set_tempo,18,1,0,,,,,,436364,,,,,,,
37890,note_on,30,0,1,,,,,,,,,0,,,63,0
37890,note_on,0,0,1,,,,,,,,,0,,,56,40
37906,set_tempo,18,1,0,,,,,,437956,,,,,,,
37920,note_on,30,0,1,,,,,,,,,0,,,56,0
37920,note_on,0,0,1,,,,,,,,,0,,,63,47
37924,set_tempo,18,1,0,,,,,,439560,,,,,,,
37942,set_tempo,18,1,0,,,,,,441176,,,,,,,
37950,note_on,30,0,1,,,,,,,,,0,,,63,0
37950,note_on,0,0,1,,,,,,,,,0,,,66,39
37960,set_tempo,18,1,0,,,,,,442804,,,,,,,
37978,set_tempo,18,1,0,,,,,,444444,,,,,,,
37980,note_on,0,0,1,,,,,,,,,0,,,63,45
37980,note_on,30,0,1,,,,,,,,,0,,,66,0
37996,set_tempo,18,1,0,,,,,,446097,,,,,,,
38010,note_on,0,0,1,,,,,,,,,0,,,56,38
38010,note_on,30,0,1,,,,,,,,,0,,,63,0
38014,set_tempo,18,1,0,,,,,,447761,,,,,,,
38032,set_tempo,18,1,0,,,,,,449438,,,,,,,
38040,set_tempo,8,1,0,,,,,,597015,,,,,,,
38040,note_on,0,0,1,,,,,,,,,0,,,63,44
38040,note_on,30,0,1,,,,,,,,,0,,,56,0
38070,note_on,30,0,1,,,,,,,,,0,,,63,0
38070,note_on,0,0,1,,,,,,,,,0,,,66,36
38100,note_on,0,0,1,,,,,,,,,0,,,63,42
38100,note_on,30,0,1,,,,,,,,,0,,,66,0
38130,note_on,0,0,1,,,,,,,,,0,,,56,34
38130,note_on,30,0,1,,,,,,,,,0,,,63,0
38136,control_change,687,0,2,,,,,,,,,0,64,0,,
38160,note_on,0,0,1,,,,,,,,,0,,,68,61
38160,note_on,0,0,1,,,,,,,,,0,,,68,0
38160,note_on,30,0,1,,,,,,,,,0,,,56,0
38160,note_on,0,0,2,,,,,,,,,0,,,37,42
38160,note_on,0,0,2,,,,,,,,,0,,,48,0
38160,marker,0,1,0,,,,,,,,,,,,,
38160,set_tempo,0,1,0,,,,,,458015,,,,,,,
38160,key_signature,120,1,0,,,,,E,,,,,,,,
38160,note_on,24,0,2,,,,,,,,,0,,,44,0
38160,control_change,0,0,2,,,,,,,,,0,64,126,,
38160,note_on,0,0,2,,,,,,,,,0,,,36,0
38162,control_change,2,0,2,,,,,,,,,0,91,127,,
38164,control_change,4,0,1,,,,,,,,,0,91,127,,
38220,note_on,58,0,2,,,,,,,,,0,,,37,0
38220,note_on,0,0,2,,,,,,,,,0,,,52,26
38220,note_on,0,0,2,,,,,,,,,0,,,49,22
38220,note_on,0,0,2,,,,,,,,,0,,,44,22
38220,note_on,0,0,1,,,,,,,,,0,,,64,27
38220,note_on,56,0,1,,,,,,,,,0,,,56,27
38280,note_on,0,0,1,,,,,,,,,0,,,64,26
38280,note_on,60,0,1,,,,,,,,,0,,,64,0
38280,set_tempo,120,1,0,,,,,,444444,,,,,,,
38280,note_on,0,0,1,,,,,,,,,0,,,56,26
38280,note_on,0,0,1,,,,,,,,,0,,,56,0
38280,note_on,0,0,2,,,,,,,,,0,,,52,0
38280,note_on,60,0,2,,,,,,,,,0,,,44,0
38280,note_on,0,0,2,,,,,,,,,0,,,52,26
38280,note_on,0,0,2,,,,,,,,,0,,,49,22
38280,note_on,0,0,2,,,,,,,,,0,,,44,22
38280,note_on,0,0,2,,,,,,,,,0,,,49,0
38340,note_on,60,0,1,,,,,,,,,0,,,64,0
38340,note_on,0,0,1,,,,,,,,,0,,,56,0
38340,note_on,0,0,1,,,,,,,,,0,,,56,26
38340,note_on,0,0,1,,,,,,,,,0,,,64,26
38340,note_on,0,0,2,,,,,,,,,0,,,44,22
38340,note_on,60,0,2,,,,,,,,,0,,,52,0
38340,note_on,0,0,2,,,,,,,,,0,,,49,0
38340,note_on,0,0,2,,,,,,,,,0,,,44,0
38340,note_on,0,0,2,,,,,,,,,0,,,49,22
38340,note_on,0,0,2,,,,,,,,,0,,,52,26
38400,note_on,0,0,1,,,,,,,,,0,,,64,26
38400,note_on,0,0,2,,,,,,,,,0,,,49,22
38400,note_on,0,0,1,,,,,,,,,0,,,56,0
38400,note_on,0,0,1,,,,,,,,,0,,,56,26
38400,note_on,0,0,2,,,,,,,,,0,,,52,26
38400,note_on,0,0,2,,,,,,,,,0,,,44,22
38400,note_on,0,0,2,,,,,,,,,0,,,49,0
38400,note_on,60,0,2,,,,,,,,,0,,,52,0
38400,note_on,60,0,1,,,,,,,,,0,,,64,0
38400,note_on,0,0,2,,,,,,,,,0,,,44,0
38460,note_on,0,0,1,,,,,,,,,0,,,64,26
38460,note_on,0,0,1,,,,,,,,,0,,,56,0
38460,note_on,60,0,1,,,,,,,,,0,,,64,0
38460,note_on,60,0,2,,,,,,,,,0,,,52,0
38460,note_on,0,0,2,,,,,,,,,0,,,49,0
38460,note_on,0,0,2,,,,,,,,,0,,,44,0
38460,note_on,0,0,2,,,,,,,,,0,,,44,22
38460,note_on,0,0,2,,,,,,,,,0,,,49,22
38460,note_on,0,0,1,,,,,,,,,0,,,56,26
38460,note_on,0,0,2,,,,,,,,,0,,,52,26
38471,control_change,11,0,2,,,,,,,,,0,64,0,,
38520,note_on,0,0,1,,,,,,,,,0,,,56,0
38520,control_change,0,0,2,,,,,,,,,0,64,127,,
38520,note_on,0,0,2,,,,,,,,,0,,,52,26
38520,note_on,0,0,2,,,,,,,,,0,,,49,22
38520,note_on,0,0,2,,,,,,,,,0,,,44,22
38520,note_on,0,0,2,,,,,,,,,0,,,44,0
38520,note_on,0,0,2,,,,,,,,,0,,,49,0
38520,set_tempo,240,1,0,,,,,,428571,,,,,,,
38520,note_on,0,0,1,,,,,,,,,0,,,68,0
38520,note_on,60,0,1,,,,,,,,,0,,,64,0
38520,note_on,49,0,2,,,,,,,,,0,,,52,0
38520,note_on,0,0,1,,,,,,,,,0,,,68,61
38580,note_on,60,0,1,,,,,,,,,0,,,56,26
38580,note_on,0,0,1,,,,,,,,,0,,,64,26
38580,note_on,0,0,2,,,,,,,,,0,,,44,0
38580,note_on,0,0,2,,,,,,,,,0,,,44,22
38580,note_on,0,0,2,,,,,,,,,0,,,49,22
38580,note_on,0,0,2,,,,,,,,,0,,,52,26
38580,note_on,60,0,2,,,,,,,,,0,,,52,0
38580,note_on,0,0,2,,,,,,,,,0,,,49,0
38640,note_on,60,0,2,,,,,,,,,0,,,52,0
38640,note_on,0,0,2,,,,,,,,,0,,,49,0
38640,note_on,0,0,2,,,,,,,,,0,,,44,0
38640,note_on,0,0,1,,,,,,,,,0,,,69,59
38640,note_on,0,0,1,,,,,,,,,0,,,68,0
38640,note_on,0,0,1,,,,,,,,,0,,,56,0
38640,note_on,60,0,1,,,,,,,,,0,,,64,0
38640,note_on,0,0,2,,,,,,,,,0,,,44,22
38640,note_on,0,0,2,,,,,,,,,0,,,52,26
38640,note_on,0,0,2,,,,,,,,,0,,,49,22
38700,note_on,0,0,2,,,,,,,,,0,,,49,22
38700,note_on,0,0,1,,,,,,,,,0,,,64,27
38700,note_on,60,0,1,,,,,,,,,0,,,57,27
38700,note_on,0,0,2,,,,,,,,,0,,,52,26
38700,note_on,0,0,2,,,,,,,,,0,,,44,22
38700,note_on,0,0,2,,,,,,,,,0,,,44,0
38700,note_on,0,0,2,,,,,,,,,0,,,49,0
38700,note_on,60,0,2,,,,,,,,,0,,,52,0
38760,note_on,0,0,1,,,,,,,,,0,,,69,0
38760,note_on,0,0,1,,,,,,,,,0,,,57,0
38760,note_on,0,0,1,,,,,,,,,0,,,68,59
38760,note_on,60,0,1,,,,,,,,,0,,,64,0
38760,note_on,60,0,2,,,,,,,,,0,,,52,0
38760,note_on,0,0,2,,,,,,,,,0,,,49,0
38760,note_on,0,0,2,,,,,,,,,0,,,44,0
38760,note_on,0,0,2,,,,,,,,,0,,,44,22
38760,note_on,0,0,2,,,,,,,,,0,,,49,22
38760,note_on,0,0,2,,,,,,,,,0,,,52,26
38762,set_tempo,242,1,0,,,,,,497925,,,,,,,
38809,control_change,49,0,2,,,,,,,,,0,64,0,,
38820,note_on,0,0,2,,,,,,,,,0,,,44,0
38820,note_on,11,0,2,,,,,,,,,0,,,52,0
38820,note_on,0,0,2,,,,,,,,,0,,,49,0
38820,note_on,0,0,1,,,,,,,,,0,,,64,26
38820,note_on,0,0,2,,,,,,,,,0,,,49,22
38820,note_on,0,0,2,,,,,,,,,0,,,44,22
38820,note_on,0,0,2,,,,,,,,,0,,,52,26
38820,note_on,60,0,1,,,,,,,,,0,,,56,26
38878,set_tempo,116,1,0,,,,,,446097,,,,,,,
38880,note_on,0,0,1,,,,,,,,,0,,,68,0
38880,control_change,0,0,2,,,,,,,,,0,64,126,,
38880,note_on,0,0,1,,,,,,,,,0,,,69,60
38880,note_on,0,0,1,,,,,,,,,0,,,56,0
38880,note_on,0,0,2,,,,,,,,,0,,,36,41
38880,note_on,0,0,2,,,,,,,,,0,,,49,0
38880,note_on,0,0,2,,,,,,,,,0,,,44,0
38880,note_on,60,0,2,,,,,,,,,0,,,52,0
38880,note_on,60,0,1,,,,,,,,,0,,,64,0
38940,note_on,0,0,2,,,,,,,,,0,,,54,26
38940,note_on,60,0,1,,,,,,,,,0,,,57,26
38940,note_on,0,0,1,,,,,,,,,0,,,66,26
38940,note_on,60,0,2,,,,,,,,,0,,,36,0
38940,note_on,0,0,2,,,,,,,,,0,,,44,22
38940,note_on,0,0,2,,,,,,,,,0,,,51,22
39000,note_on,0,0,2,,,,,,,,,0,,,54,26
39000,note_on,0,0,2,,,,,,,,,0,,,51,22
39000,note_on,0,0,2,,,,,,,,,0,,,44,22
39000,note_on,0,0,2,,,,,,,,,0,,,51,0
39000,note_on,60,0,2,,,,,,,,,0,,,44,0
39000,note_on,0,0,1,,,,,,,,,0,,,66,26
39000,note_on,0,0,1,,,,,,,,,0,,,57,26
39000,note_on,0,0,1,,,,,,,,,0,,,57,0
39000,note_on,60,0,1,,,,,,,,,0,,,66,0
39000,note_on,0,0,2,,,,,,,,,0,,,54,0
39060,note_on,0,0,2,,,,,,,,,0,,,51,0
39060,note_on,60,0,2,,,,,,,,,0,,,54,0
39060,note_on,0,0,2,,,,,,,,,0,,,44,0
39060,note_on,0,0,1,,,,,,,,,0,,,57,0
39060,note_on,0,0,2,,,,,,,,,0,,,51,22
39060,note_on,0,0,2,,,,,,,,,0,,,54,26
39060,note_on,0,0,1,,,,,,,,,0,,,66,26
39060,note_on,0,0,1,,,,,,,,,0,,,57,26
39060,note_on,60,0,1,,,,,,,,,0,,,66,0
39060,note_on,0,0,2,,,,,,,,,0,,,44,22
39120,note_on,60,0,2,,,,,,,,,0,,,54,0
39120,note_on,0,0,2,,,,,,,,,0,,,51,0
39120,note_on,0,0,2,,,,,,,,,0,,,44,0
39120,note_on,0,0,2,,,,,,,,,0,,,54,26
39120,note_on,0,0,2,,,,,,,,,0,,,44,22
39120,note_on,0,0,1,,,,,,,,,0,,,66,26
39120,note_on,0,0,1,,,,,,,,,0,,,57,26
39120,note_on,0,0,1,,,,,,,,,0,,,57,0
39120,note_on,60,0,1,,,,,,,,,0,,,66,0
39120,note_on,0,0,2,,,,,,,,,0,,,51,22
39180,note_on,60,0,1,,,,,,,,,0,,,66,0
39180,note_on,0,0,2,,,,,,,,,0,,,51,0
39180,note_on,0,0,2,,,,,,,,,0,,,44,0
39180,note_on,0,0,2,,,,,,,,,0,,,44,22
39180,note_on,0,0,2,,,,,,,,,0,,,51,22
39180,note_on,0,0,2,,,,,,,,,0,,,54,26
39180,note_on,0,0,1,,,,,,,,,0,,,66,26
39180,note_on,0,0,1,,,,,,,,,0,,,57,26
39180,note_on,0,0,1,,,,,,,,,0,,,57,0
39180,note_on,60,0,2,,,,,,,,,0,,,54,0
39211,control_change,31,0,2,,,,,,,,,0,64,0,,
39240,note_on,29,0,2,,,,,,,,,0,,,54,0
39240,note_on,0,0,2,,,,,,,,,0,,,51,0
39240,note_on,0,0,1,,,,,,,,,0,,,69,0
39240,note_on,0,0,2,,,,,,,,,0,,,44,22
39240,note_on,0,0,2,,,,,,,,,0,,,54,26
39240,control_change,0,0,2,,,,,,,,,0,64,127,,
39240,note_on,0,0,1,,,,,,,,,0,,,68,59
39240,note_on,0,0,2,,,,,,,,,0,,,44,0
39240,note_on,0,0,1,,,,,,,,,0,,,57,0
39240,note_on,60,0,1,,,,,,,,,0,,,66,0
39240,note_on,0,0,2,,,,,,,,,0,,,51,22
39300,note_on,60,0,2,,,,,,,,,0,,,54,0
39300,note_on,0,0,2,,,,,,,,,0,,,51,0
39300,note_on,0,0,2,,,,,,,,,0,,,44,0
39300,note_on,0,0,2,,,,,,,,,0,,,54,26
39300,note_on,0,0,2,,,,,,,,,0,,,44,22
39300,note_on,0,0,2,,,,,,,,,0,,,51,22
39300,note_on,0,0,1,,,,,,,,,0,,,66,28
39300,note_on,60,0,1,,,,,,,,,0,,,56,28
39360,note_on,0,0,1,,,,,,,,,0,,,56,29
39360,note_on,0,0,1,,,,,,,,,0,,,56,0
39360,note_on,0,0,1,,,,,,,,,0,,,66,29
39360,note_on,60,0,1,,,,,,,,,0,,,66,0
39360,note_on,0,0,2,,,,,,,,,0,,,51,22
39360,note_on,60,0,2,,,,,,,,,0,,,54,0
39360,note_on,0,0,2,,,,,,,,,0,,,51,0
39360,note_on,0,0,2,,,,,,,,,0,,,44,0
39360,note_on,0,0,2,,,,,,,,,0,,,44,22
39360,note_on,0,0,2,,,,,,,,,0,,,54,26
39420,note_on,0,0,1,,,,,,,,,0,,,56,29
39420,note_on,0,0,1,,,,,,,,,0,,,66,29
39420,note_on,0,0,2,,,,,,,,,0,,,54,26
39420,note_on,0,0,2,,,,,,,,,0,,,51,22
39420,note_on,0,0,2,,,,,,,,,0,,,44,0
39420,note_on,0,0,1,,,,,,,,,0,,,56,0
39420,note_on,0,0,2,,,,,,,,,0,,,51,0
39420,note_on,60,0,2,,,,,,,,,0,,,54,0
39420,note_on,0,0,2,,,,,,,,,0,,,44,22
39420,note_on,60,0,1,,,,,,,,,0,,,66,0
39480,note_on,0,0,1,,,,,,,,,0,,,56,0
39480,note_on,60,0,1,,,,,,,,,0,,,66,0
39480,note_on,0,0,1,,,,,,,,,0,,,66,29
39480,note_on,0,0,1,,,,,,,,,0,,,56,29
39480,note_on,0,0,2,,,,,,,,,0,,,54,26
39480,note_on,0,0,2,,,,,,,,,0,,,51,22
39480,note_on,0,0,2,,,,,,,,,0,,,44,0
39480,note_on,0,0,2,,,,,,,,,0,,,51,0
39480,note_on,60,0,2,,,,,,,,,0,,,54,0
39480,note_on,0,0,2,,,,,,,,,0,,,44,22
39540,note_on,60,0,1,,,,,,,,,0,,,66,0
39540,note_on,0,0,1,,,,,,,,,0,,,56,0
39540,note_on,0,0,1,,,,,,,,,0,,,56,29
39540,note_on,0,0,1,,,,,,,,,0,,,66,29
39540,note_on,0,0,2,,,,,,,,,0,,,44,0
39540,note_on,60,0,2,,,,,,,,,0,,,54,0
39540,note_on,0,0,2,,,,,,,,,0,,,54,26
39540,note_on,0,0,2,,,,,,,,,0,,,51,22
39540,note_on,0,0,2,,,,,,,,,0,,,44,22
39540,note_on,0,0,2,,,,,,,,,0,,,51,0
39562,control_change,22,0,2,,,,,,,,,0,64,0,,
39600,note_on,0,0,1,,,,,,,,,0,,,68,0
39600,note_on,0,0,1,,,,,,,,,0,,,56,0
39600,note_on,60,0,1,,,,,,,,,0,,,66,0
39600,note_on,0,0,1,,,,,,,,,0,,,68,60
39600,control_change,0,0,2,,,,,,,,,0,64,126,,
39600,note_on,0,0,2,,,,,,,,,0,,,37,40
39600,note_on,0,0,2,,,,,,,,,0,,,44,0
39600,note_on,0,0,2,,,,,,,,,0,,,51,0
39600,note_on,38,0,2,,,,,,,,,0,,,54,0
39660,note_on,0,0,2,,,,,,,,,0,,,44,22
39660,note_on,0,0,2,,,,,,,,,0,,,49,22
39660,note_on,0,0,2,,,,,,,,,0,,,52,26
39660,note_on,60,0,2,,,,,,,,,0,,,37,0
39660,note_on,60,0,1,,,,,,,,,0,,,56,26
39660,note_on,0,0,1,,,,,,,,,0,,,64,26
39720,note_on,0,0,1,,,,,,,,,0,,,56,0
39720,note_on,0,0,2,,,,,,,,,0,,,52,0
39720,note_on,0,0,2,,,,,,,,,0,,,49,0
39720,note_on,60,0,2,,,,,,,,,0,,,44,0
39720,note_on,60,0,1,,,,,,,,,0,,,64,0
39720,note_on,0,0,2,,,,,,,,,0,,,49,22
39720,note_on,0,0,1,,,,,,,,,0,,,56,26
39720,note_on,0,0,1,,,,,,,,,0,,,64,26
39720,note_on,0,0,2,,,,,,,,,0,,,52,26
39720,note_on,0,0,2,,,,,,,,,0,,,44,22
39780,note_on,0,0,2,,,,,,,,,0,,,49,0
39780,note_on,0,0,2,,,,,,,,,0,,,44,0
39780,note_on,0,0,2,,,,,,,,,0,,,44,22
39780,note_on,0,0,2,,,,,,,,,0,,,49,22
39780,note_on,0,0,2,,,,,,,,,0,,,52,26
39780,note_on,60,0,2,,,,,,,,,0,,,52,0
39780,note_on,0,0,1,,,,,,,,,0,,,64,26
39780,note_on,0,0,1,,,,,,,,,0,,,56,26
39780,note_on,0,0,1,,,,,,,,,0,,,56,0
39780,note_on,60,0,1,,,,,,,,,0,,,64,0
39840,note_on,0,0,1,,,,,,,,,0,,,56,0
39840,note_on,0,0,1,,,,,,,,,0,,,64,26
39840,note_on,0,0,1,,,,,,,,,0,,,56,26
39840,note_on,60,0,1,,,,,,,,,0,,,64,0
39840,note_on,0,0,2,,,,,,,,,0,,,52,26
39840,note_on,0,0,2,,,,,,,,,0,,,49,22
39840,note_on,0,0,2,,,,,,,,,0,,,44,22
39840,note_on,0,0,2,,,,,,,,,0,,,49,0
39840,note_on,60,0,2,,,,,,,,,0,,,52,0
39840,note_on,0,0,2,,,,,,,,,0,,,44,0
39900,note_on,0,0,2,,,,,,,,,0,,,52,26
39900,note_on,0,0,2,,,,,,,,,0,,,49,22
39900,note_on,0,0,2,,,,,,,,,0,,,44,22
39900,note_on,0,0,2,,,,,,,,,0,,,44,0
39900,note_on,0,0,2,,,,,,,,,0,,,49,0
39900,note_on,0,0,1,,,,,,,,,0,,,64,27
39900,note_on,0,0,1,,,,,,,,,0,,,56,27
39900,note_on,0,0,1,,,,,,,,,0,,,56,0
39900,note_on,60,0,1,,,,,,,,,0,,,64,0
39900,note_on,60,0,2,,,,,,,,,0,,,52,0
39928,control_change,28,0,2,,,,,,,,,0,64,1,,
39960,note_on,0,0,2,,,,,,,,,0,,,44,22
39960,note_on,0,0,2,,,,,,,,,0,,,49,0
39960,note_on,32,0,2,,,,,,,,,0,,,52,0
39960,control_change,0,0,2,,,,,,,,,0,64,127,,
39960,note_on,0,0,2,,,,,,,,,0,,,49,22
39960,note_on,60,0,1,,,,,,,,,0,,,64,0
39960,note_on,0,0,1,,,,,,,,,0,,,56,0
39960,note_on,0,0,1,,,,,,,,,0,,,68,0
39960,note_on,0,0,1,,,,,,,,,0,,,76,68
39960,note_on,0,0,2,,,,,,,,,0,,,52,26
39960,note_on,0,0,2,,,,,,,,,0,,,44,0
39962,set_tempo,1084,1,0,,,,,,428571,,,,,,,
40020,note_on,0,0,1,,,,,,,,,0,,,68,28
40020,note_on,0,0,2,,,,,,,,,0,,,49,0
40020,note_on,0,0,2,,,,,,,,,0,,,52,26
40020,note_on,0,0,2,,,,,,,,,0,,,49,22
40020,note_on,0,0,2,,,,,,,,,0,,,44,22
40020,note_on,60,0,1,,,,,,,,,0,,,64,28
40020,note_on,0,0,2,,,,,,,,,0,,,44,0
40020,note_on,60,0,2,,,,,,,,,0,,,52,0
40080,note_on,0,0,2,,,,,,,,,0,,,44,22
40080,note_on,60,0,1,,,,,,,,,0,,,68,0
40080,note_on,0,0,1,,,,,,,,,0,,,64,0
40080,note_on,0,0,1,,,,,,,,,0,,,76,0
40080,note_on,0,0,2,,,,,,,,,0,,,44,0
40080,note_on,60,0,2,,,,,,,,,0,,,52,0
40080,note_on,0,0,2,,,,,,,,,0,,,49,0
40080,note_on,0,0,1,,,,,,,,,0,,,75,63
40080,note_on,0,0,2,,,,,,,,,0,,,49,22
40080,note_on,0,0,2,,,,,,,,,0,,,52,26
40140,note_on,0,0,2,,,,,,,,,0,,,49,22
40140,note_on,0,0,1,,,,,,,,,0,,,68,27
40140,note_on,60,0,1,,,,,,,,,0,,,63,27
40140,note_on,60,0,2,,,,,,,,,0,,,52,0
40140,note_on,0,0,2,,,,,,,,,0,,,49,0
40140,note_on,0,0,2,,,,,,,,,0,,,44,22
40140,note_on,0,0,2,,,,,,,,,0,,,44,0
40140,note_on,0,0,2,,,,,,,,,0,,,52,26
40200,note_on,0,0,1,,,,,,,,,0,,,75,0
40200,note_on,60,0,2,,,,,,,,,0,,,52,0
40200,note_on,0,0,2,,,,,,,,,0,,,49,0
40200,note_on,0,0,2,,,,,,,,,0,,,44,0
40200,note_on,0,0,2,,,,,,,,,0,,,52,26
40200,note_on,60,0,1,,,,,,,,,0,,,68,0
40200,note_on,0,0,1,,,,,,,,,0,,,63,0
40200,note_on,0,0,2,,,,,,,,,0,,,49,22
40200,note_on,0,0,1,,,,,,,,,0,,,73,60
40200,note_on,0,0,2,,,,,,,,,0,,,44,22
40202,set_tempo,240,1,0,,,,,,524017,,,,,,,
40260,note_on,0,0,2,,,,,,,,,0,,,52,26
40260,note_on,0,0,1,,,,,,,,,0,,,68,27
40260,note_on,60,0,1,,,,,,,,,0,,,61,27
40260,note_on,0,0,2,,,,,,,,,0,,,44,22
40260,note_on,60,0,2,,,,,,,,,0,,,52,0
40260,note_on,0,0,2,,,,,,,,,0,,,49,0
40260,note_on,0,0,2,,,,,,,,,0,,,44,0
40260,note_on,0,0,2,,,,,,,,,0,,,49,22
40288,control_change,28,0,2,,,,,,,,,0,64,0,,
40318,control_change,30,0,2,,,,,,,,,0,64,126,,
40320,note_on,0,0,1,,,,,,,,,0,,,73,0
40320,note_on,0,0,2,,,,,,,,,0,,,39,39
40320,note_on,0,0,2,,,,,,,,,0,,,49,0
40320,note_on,0,0,2,,,,,,,,,0,,,44,0
40320,note_on,2,0,2,,,,,,,,,0,,,52,0
40320,note_on,0,0,1,,,,,,,,,0,,,61,0
40320,note_on,60,0,1,,,,,,,,,0,,,68,0
40320,note_on,0,0,1,,,,,,,,,0,,,73,60
40322,set_tempo,120,1,0,,,,,,444444,,,,,,,
40380,note_on,0,0,2,,,,,,,,,0,,,51,22
40380,note_on,0,0,2,,,,,,,,,0,,,54,26
40380,note_on,0,0,2,,,,,,,,,0,,,44,22
40380,note_on,60,0,2,,,,,,,,,0,,,39,0
40380,note_on,0,0,1,,,,,,,,,0,,,68,27
40380,note_on,60,0,1,,,,,,,,,0,,,61,27
40440,note_on,60,0,1,,,,,,,,,0,,,68,0
40440,note_on,0,0,1,,,,,,,,,0,,,68,27
40440,note_on,0,0,2,,,,,,,,,0,,,51,22
40440,note_on,0,0,2,,,,,,,,,0,,,44,22
40440,note_on,0,0,2,,,,,,,,,0,,,51,0
40440,note_on,0,0,2,,,,,,,,,0,,,54,0
40440,note_on,60,0,2,,,,,,,,,0,,,44,0
40440,note_on,0,0,1,,,,,,,,,0,,,61,0
40440,note_on,0,0,1,,,,,,,,,0,,,61,27
40440,note_on,0,0,2,,,,,,,,,0,,,54,26
40500,note_on,60,0,2,,,,,,,,,0,,,54,0
40500,note_on,0,0,2,,,,,,,,,0,,,51,0
40500,note_on,0,0,2,,,,,,,,,0,,,44,0
40500,note_on,0,0,2,,,,,,,,,0,,,44,22
40500,note_on,0,0,2,,,,,,,,,0,,,51,22
40500,note_on,0,0,2,,,,,,,,,0,,,54,26
40500,note_on,0,0,1,,,,,,,,,0,,,68,27
40500,note_on,0,0,1,,,,,,,,,0,,,61,27
40500,note_on,0,0,1,,,,,,,,,0,,,61,0
40500,note_on,60,0,1,,,,,,,,,0,,,68,0
40560,note_on,0,0,1,,,,,,,,,0,,,61,27
40560,note_on,0,0,1,,,,,,,,,0,,,61,0
40560,note_on,0,0,2,,,,,,,,,0,,,51,0
40560,note_on,0,0,1,,,,,,,,,0,,,68,27
40560,note_on,0,0,2,,,,,,,,,0,,,44,0
40560,note_on,60,0,1,,,,,,,,,0,,,68,0
40560,note_on,0,0,2,,,,,,,,,0,,,44,22
40560,note_on,60,0,2,,,,,,,,,0,,,54,0
40560,note_on,0,0,2,,,,,,,,,0,,,54,26
40560,note_on,0,0,2,,,,,,,,,0,,,51,22
40620,note_on,0,0,1,,,,,,,,,0,,,68,27
40620,note_on,0,0,1,,,,,,,,,0,,,61,27
40620,note_on,0,0,1,,,,,,,,,0,,,61,0
40620,note_on,60,0,1,,,,,,,,,0,,,68,0
40620,note_on,0,0,2,,,,,,,,,0,,,51,0
40620,note_on,0,0,2,,,,,,,,,0,,,44,0
40620,note_on,0,0,2,,,,,,,,,0,,,44,22
40620,note_on,0,0,2,,,,,,,,,0,,,51,22
40620,note_on,60,0,2,,,,,,,,,0,,,54,0
40620,note_on,0,0,2,,,,,,,,,0,,,54,26
40648,control_change,28,0,2,,,,,,,,,0,64,0,,
40680,note_on,0,0,1,,,,,,,,,0,,,73,0
40680,note_on,0,0,1,,,,,,,,,0,,,72,61
40680,note_on,32,0,2,,,,,,,,,0,,,54,0
40680,note_on,0,0,2,,,,,,,,,0,,,51,0
40680,note_on,0,0,1,,,,,,,,,0,,,61,0
40680,note_on,0,0,2,,,,,,,,,0,,,44,22
40680,note_on,0,0,2,,,,,,,,,0,,,51,22
40680,note_on,0,0,2,,,,,,,,,0,,,44,0
40680,control_change,0,0,2,,,,,,,,,0,64,127,,
40680,note_on,0,0,2,,,,,,,,,0,,,54,26
40680,note_on,60,0,1,,,,,,,,,0,,,68,0
40740,note_on,60,0,2,,,,,,,,,0,,,54,0
40740,note_on,0,0,2,,,,,,,,,0,,,51,0
40740,note_on,0,0,2,,,,,,,,,0,,,44,0
40740,note_on,0,0,2,,,,,,,,,0,,,44,22
40740,note_on,0,0,2,,,,,,,,,0,,,51,22
40740,note_on,0,0,1,,,,,,,,,0,,,68,27
40740,note_on,60,0,1,,,,,,,,,0,,,60,27
40740,note_on,0,0,2,,,,,,,,,0,,,54,26
40800,note_on,0,0,1,,,,,,,,,0,,,60,27
40800,note_on,0,0,1,,,,,,,,,0,,,60,0
40800,note_on,60,0,1,,,,,,,,,0,,,68,0
40800,note_on,0,0,1,,,,,,,,,0,,,68,27
40800,note_on,0,0,2,,,,,,,,,0,,,51,0
40800,note_on,60,0,2,,,,,,,,,0,,,54,0
40800,note_on,0,0,2,,,,,,,,,0,,,44,0
40800,note_on,0,0,2,,,,,,,,,0,,,54,26
40800,note_on,0,0,2,,,,,,,,,0,,,51,22
40800,note_on,0,0,2,,,,,,,,,0,,,44,22
40860,note_on,0,0,1,,,,,,,,,0,,,68,27
40860,note_on,0,0,1,,,,,,,,,0,,,60,27
40860,note_on,0,0,1,,,,,,,,,0,,,60,0
40860,note_on,60,0,1,,,,,,,,,0,,,68,0
40860,note_on,0,0,2,,,,,,,,,0,,,51,22
40860,note_on,60,0,2,,,,,,,,,0,,,54,0
40860,note_on,0,0,2,,,,,,,,,0,,,51,0
40860,note_on,0,0,2,,,,,,,,,0,,,44,22
40860,note_on,0,0,2,,,,,,,,,0,,,54,26
40860,note_on,0,0,2,,,,,,,,,0,,,44,0
40920,note_on,0,0,1,,,,,,,,,0,,,68,27
40920,note_on,0,0,2,,,,,,,,,0,,,54,26
40920,note_on,0,0,2,,,,,,,,,0,,,44,22
40920,note_on,0,0,2,,,,,,,,,0,,,44,0
40920,note_on,0,0,1,,,,,,,,,0,,,60,27
40920,note_on,0,0,2,,,,,,,,,0,,,51,22
40920,note_on,60,0,1,,,,,,,,,0,,,68,0
40920,note_on,0,0,1,,,,,,,,,0,,,60,0
40920,note_on,60,0,2,,,,,,,,,0,,,54,0
40920,note_on,0,0,2,,,,,,,,,0,,,51,0
40980,note_on,0,0,1,,,,,,,,,0,,,60,27
40980,note_on,0,0,1,,,,,,,,,0,,,60,0
40980,note_on,0,0,1,,,,,,,,,0,,,68,27
40980,note_on,60,0,1,,,,,,,,,0,,,68,0
40980,note_on,0,0,2,,,,,,,,,0,,,54,26
40980,note_on,0,0,2,,,,,,,,,0,,,44,22
40980,note_on,0,0,2,,,,,,,,,0,,,51,0
40980,note_on,60,0,2,,,,,,,,,0,,,54,0
40980,note_on,0,0,2,,,,,,,,,0,,,51,22
40980,note_on,0,0,2,,,,,,,,,0,,,44,0
41011,control_change,31,0,2,,,,,,,,,0,64,0,,
41038,set_tempo,716,1,0,,,,,,481928,,,,,,,
41040,control_change,0,0,2,,,,,,,,,0,64,124,,
41040,note_on,0,0,2,,,,,,,,,0,,,40,42
41040,note_on,0,0,1,,,,,,,,,0,,,72,0
41040,note_on,0,0,1,,,,,,,,,0,,,60,0
41040,note_on,0,0,2,,,,,,,,,0,,,44,0
41040,note_on,60,0,1,,,,,,,,,0,,,68,0
41040,note_on,0,0,1,,,,,,,,,0,,,72,58
41040,note_on,29,0,2,,,,,,,,,0,,,54,0
41040,note_on,0,0,2,,,,,,,,,0,,,51,0
41100,note_on,60,0,1,,,,,,,,,0,,,60,35
41100,note_on,0,0,2,,,,,,,,,0,,,45,29
41100,note_on,0,0,2,,,,,,,,,0,,,52,35
41100,note_on,60,0,2,,,,,,,,,0,,,40,0
41100,note_on,0,0,1,,,,,,,,,0,,,69,35
41154,control_change,54,0,2,,,,,,,,,0,64,0,,
41158,set_tempo,120,1,0,,,,,,430108,,,,,,,
41160,note_on,60,0,1,,,,,,,,,0,,,69,0
41160,note_on,0,0,1,,,,,,,,,0,,,72,0
41160,note_on,0,0,2,,,,,,,,,0,,,52,35
41160,note_on,0,0,2,,,,,,,,,0,,,45,29
41160,note_on,0,0,2,,,,,,,,,0,,,52,0
41160,note_on,6,0,2,,,,,,,,,0,,,45,0
41160,note_on,0,0,1,,,,,,,,,0,,,73,68
41160,note_on,0,0,1,,,,,,,,,0,,,60,0
41186,control_change,26,0,2,,,,,,,,,0,64,124,,
41220,note_on,60,0,1,,,,,,,,,0,,,61,35
41220,note_on,0,0,1,,,,,,,,,0,,,69,35
41220,note_on,34,0,2,,,,,,,,,0,,,52,0
41220,note_on,0,0,2,,,,,,,,,0,,,45,0
41220,note_on,0,0,2,,,,,,,,,0,,,45,29
41220,note_on,0,0,2,,,,,,,,,0,,,52,35
41280,note_on,0,0,1,,,,,,,,,0,,,61,35
41280,note_on,60,0,2,,,,,,,,,0,,,52,0
41280,note_on,0,0,2,,,,,,,,,0,,,45,0
41280,note_on,0,0,2,,,,,,,,,0,,,45,29
41280,note_on,0,0,1,,,,,,,,,0,,,69,35
41280,note_on,0,0,2,,,,,,,,,0,,,52,35
41280,note_on,60,0,1,,,,,,,,,0,,,69,0
41280,note_on,0,0,1,,,,,,,,,0,,,61,0
41340,note_on,0,0,2,,,,,,,,,0,,,45,0
41340,note_on,0,0,2,,,,,,,,,0,,,52,35
41340,note_on,0,0,1,,,,,,,,,0,,,69,35
41340,note_on,0,0,1,,,,,,,,,0,,,61,35
41340,note_on,0,0,1,,,,,,,,,0,,,61,0
41340,note_on,60,0,1,,,,,,,,,0,,,69,0
41340,note_on,60,0,2,,,,,,,,,0,,,52,0
41340,note_on,0,0,2,,,,,,,,,0,,,45,29
41400,note_on,60,0,1,,,,,,,,,0,,,69,0
41400,note_on,0,0,1,,,,,,,,,0,,,61,0
41400,note_on,0,0,2,,,,,,,,,0,,,45,29
41400,note_on,0,0,2,,,,,,,,,0,,,52,35
41400,note_on,0,0,2,,,,,,,,,0,,,45,0
41400,note_on,60,0,2,,,,,,,,,0,,,52,0
41400,note_on,0,0,1,,,,,,,,,0,,,69,35
41400,note_on,0,0,1,,,,,,,,,0,,,61,35
41460,note_on,0,0,2,,,,,,,,,0,,,45,29
41460,note_on,0,0,2,,,,,,,,,0,,,52,0
41460,note_on,60,0,2,,,,,,,,,0,,,45,0
41460,note_on,0,0,2,,,,,,,,,0,,,52,35
41460,note_on,60,0,1,,,,,,,,,0,,,69,0
41460,note_on,0,0,1,,,,,,,,,0,,,61,0
41460,note_on,0,0,1,,,,,,,,,0,,,61,35
41460,note_on,0,0,1,,,,,,,,,0,,,69,35
41520,note_on,60,0,1,,,,,,,,,0,,,69,0
41520,note_on,0,0,2,,,,,,,,,0,,,40,35
41520,note_on,0,0,2,,,,,,,,,0,,,45,0
41520,note_on,60,0,2,,,,,,,,,0,,,52,0
41520,note_on,0,0,1,,,,,,,,,0,,,61,0
41520,note_on,0,0,1,,,,,,,,,0,,,73,0
41520,note_on,0,0,1,,,,,,,,,0,,,73,70
41580,note_on,60,0,1,,,,,,,,,0,,,61,35
41580,note_on,0,0,1,,,,,,,,,0,,,69,35
41580,note_on,60,0,2,,,,,,,,,0,,,52,35
41580,note_on,0,0,2,,,,,,,,,0,,,45,29
41640,note_on,60,0,1,,,,,,,,,0,,,69,0
41640,note_on,0,0,1,,,,,,,,,0,,,61,0
41640,note_on,0,0,1,,,,,,,,,0,,,73,0
41640,note_on,0,0,1,,,,,,,,,0,,,73,69
41640,note_on,60,0,2,,,,,,,,,0,,,45,0
41640,note_on,0,0,2,,,,,,,,,0,,,40,0
41640,note_on,0,0,2,,,,,,,,,0,,,40,35
41640,note_on,0,0,2,,,,,,,,,0,,,52,0
41700,note_on,0,0,1,,,,,,,,,0,,,69,35
41700,note_on,60,0,2,,,,,,,,,0,,,52,35
41700,note_on,0,0,2,,,,,,,,,0,,,45,29
41700,note_on,60,0,1,,,,,,,,,0,,,61,35
41748,control_change,48,0,2,,,,,,,,,0,64,0,,
41758,set_tempo,600,1,0,,,,,,480000,,,,,,,
41760,note_on,0,0,2,,,,,,,,,0,,,35,52
41760,note_on,0,0,1,,,,,,,,,0,,,73,70
41760,note_on,0,0,1,,,,,,,,,0,,,73,0
41760,note_on,0,0,2,,,,,,,,,0,,,40,0
41760,note_on,0,0,2,,,,,,,,,0,,,52,0
41760,note_on,12,0,2,,,,,,,,,0,,,45,0
41760,control_change,0,0,2,,,,,,,,,0,64,126,,
41760,note_on,0,0,1,,,,,,,,,0,,,61,0
41760,note_on,60,0,1,,,,,,,,,0,,,69,0
41820,note_on,60,0,1,,,,,,,,,0,,,61,44
41820,note_on,0,0,1,,,,,,,,,0,,,68,44
41820,note_on,60,0,2,,,,,,,,,0,,,35,0
41820,note_on,0,0,2,,,,,,,,,0,,,40,37
41820,note_on,0,0,2,,,,,,,,,0,,,47,44
41860,control_change,40,0,2,,,,,,,,,0,64,0,,
41880,note_on,0,0,2,,,,,,,,,0,,,47,0
41880,note_on,20,0,2,,,,,,,,,0,,,40,0
41880,note_on,60,0,1,,,,,,,,,0,,,68,0
41880,note_on,0,0,1,,,,,,,,,0,,,61,0
41880,note_on,0,0,1,,,,,,,,,0,,,73,0
41880,note_on,0,0,1,,,,,,,,,0,,,74,78
41880,note_on,0,0,2,,,,,,,,,0,,,40,37
41880,note_on,0,0,2,,,,,,,,,0,,,47,44
41880,set_tempo,122,1,0,,,,,,431655,,,,,,,
41886,control_change,6,0,2,,,,,,,,,0,64,124,,
41940,note_on,0,0,2,,,,,,,,,0,,,40,0
41940,note_on,60,0,1,,,,,,,,,0,,,62,44
41940,note_on,0,0,1,,,,,,,,,0,,,68,44
41940,note_on,54,0,2,,,,,,,,,0,,,47,0
41940,note_on,0,0,2,,,,,,,,,0,,,40,37
41940,note_on,0,0,2,,,,,,,,,0,,,47,44
42000,note_on,0,0,1,,,,,,,,,0,,,62,44
42000,note_on,60,0,2,,,,,,,,,0,,,47,0
42000,note_on,0,0,2,,,,,,,,,0,,,47,44
42000,note_on,60,0,1,,,,,,,,,0,,,68,0
42000,note_on,0,0,2,,,,,,,,,0,,,40,37
42000,note_on,0,0,1,,,,,,,,,0,,,68,44
42000,note_on,0,0,2,,,,,,,,,0,,,40,0
42000,note_on,0,0,1,,,,,,,,,0,,,62,0
42060,note_on,60,0,1,,,,,,,,,0,,,68,0
42060,note_on,0,0,1,,,,,,,,,0,,,62,0
42060,note_on,0,0,1,,,,,,,,,0,,,68,44
42060,note_on,0,0,1,,,,,,,,,0,,,62,44
42060,note_on,60,0,2,,,,,,,,,0,,,40,0
42060,note_on,0,0,2,,,,,,,,,0,,,47,0
42060,note_on,0,0,2,,,,,,,,,0,,,40,37
42060,note_on,0,0,2,,,,,,,,,0,,,47,44
42120,note_on,0,0,2,,,,,,,,,0,,,47,44
42120,note_on,60,0,1,,,,,,,,,0,,,68,0
42120,note_on,0,0,1,,,,,,,,,0,,,62,0
42120,note_on,0,0,1,,,,,,,,,0,,,62,44
42120,note_on,0,0,1,,,,,,,,,0,,,68,44
42120,note_on,0,0,2,,,,,,,,,0,,,40,37
42120,note_on,0,0,2,,,,,,,,,0,,,40,0
42120,note_on,60,0,2,,,,,,,,,0,,,47,0
42180,note_on,0,0,1,,,,,,,,,0,,,68,44
42180,note_on,0,0,1,,,,,,,,,0,,,62,44
42180,note_on,0,0,1,,,,,,,,,0,,,62,0
42180,note_on,60,0,2,,,,,,,,,0,,,47,0
42180,note_on,0,0,2,,,,,,,,,0,,,40,37
42180,note_on,60,0,1,,,,,,,,,0,,,68,0
42180,note_on,0,0,2,,,,,,,,,0,,,40,0
42180,note_on,0,0,2,,,,,,,,,0,,,47,44
42211,control_change,31,0,2,,,,,,,,,0,64,0,,
42234,control_change,23,0,2,,,,,,,,,0,64,126,,
42240,note_on,0,0,1,,,,,,,,,0,,,62,0
42240,note_on,6,0,2,,,,,,,,,0,,,47,0
42240,note_on,0,0,2,,,,,,,,,0,,,35,44
42240,note_on,60,0,1,,,,,,,,,0,,,68,0
42240,note_on,0,0,1,,,,,,,,,0,,,74,0
42240,note_on,0,0,2,,,,,,,,,0,,,40,0
42240,note_on,0,0,1,,,,,,,,,0,,,74,81
42300,note_on,60,0,1,,,,,,,,,0,,,62,44
42300,note_on,0,0,1,,,,,,,,,0,,,68,44
42300,note_on,60,0,2,,,,,,,,,0,,,40,37
42300,note_on,0,0,2,,,,,,,,,0,,,47,44
42360,note_on,0,0,2,,,,,,,,,0,,,40,0
42360,note_on,0,0,1,,,,,,,,,0,,,74,80
42360,note_on,0,0,2,,,,,,,,,0,,,35,0
42360,note_on,0,0,2,,,,,,,,,0,,,40,44
42360,note_on,60,0,2,,,,,,,,,0,,,47,0
42360,note_on,60,0,1,,,,,,,,,0,,,68,0
42360,note_on,0,0,1,,,,,,,,,0,,,62,0
42360,note_on,0,0,1,,,,,,,,,0,,,74,0
42420,note_on,0,0,1,,,,,,,,,0,,,68,44
42420,note_on,60,0,1,,,,,,,,,0,,,62,44
42420,note_on,60,0,2,,,,,,,,,0,,,52,44
42420,note_on,0,0,2,,,,,,,,,0,,,47,37
42451,control_change,31,0,2,,,,,,,,,0,64,0,,
42478,set_tempo,598,1,0,,,,,,478088,,,,,,,
42480,note_on,0,0,2,,,,,,,,,0,,,39,61
42480,note_on,0,0,2,,,,,,,,,0,,,40,0
42480,note_on,60,0,1,,,,,,,,,0,,,68,0
42480,note_on,0,0,1,,,,,,,,,0,,,62,0
42480,note_on,0,0,1,,,,,,,,,0,,,74,0
42480,note_on,0,0,1,,,,,,,,,0,,,76,88
42480,note_on,29,0,2,,,,,,,,,0,,,47,0
42480,control_change,0,0,2,,,,,,,,,0,64,127,,
42480,note_on,0,0,2,,,,,,,,,0,,,52,0
42540,note_on,60,0,2,,,,,,,,,0,,,51,45
42540,note_on,0,0,2,,,,,,,,,0,,,47,39
42540,note_on,60,0,1,,,,,,,,,0,,,64,51
42540,note_on,0,0,1,,,,,,,,,0,,,68,51
42575,control_change,35,0,2,,,,,,,,,0,64,0,,
42598,set_tempo,120,1,0,,,,,,428571,,,,,,,
42600,note_on,0,0,1,,,,,,,,,0,,,64,0
42600,note_on,60,0,1,,,,,,,,,0,,,68,0
42600,note_on,0,0,1,,,,,,,,,0,,,76,0
42600,note_on,0,0,2,,,,,,,,,0,,,51,45
42600,note_on,0,0,2,,,,,,,,,0,,,47,39
42600,note_on,0,0,1,,,,,,,,,0,,,75,84
42600,note_on,25,0,2,,,,,,,,,0,,,47,0
42600,note_on,0,0,2,,,,,,,,,0,,,51,0
42621,control_change,21,0,2,,,,,,,,,0,64,127,,
42660,note_on,0,0,2,,,,,,,,,0,,,51,46
42660,note_on,0,0,2,,,,,,,,,0,,,47,39
42660,note_on,39,0,2,,,,,,,,,0,,,51,0
42660,note_on,0,0,2,,,,,,,,,0,,,47,0
42660,note_on,0,0,1,,,,,,,,,0,,,68,51
42660,note_on,60,0,1,,,,,,,,,0,,,63,51
42720,note_on,60,0,1,,,,,,,,,0,,,68,0
42720,note_on,0,0,1,,,,,,,,,0,,,63,0
42720,note_on,0,0,1,,,,,,,,,0,,,63,44
42720,note_on,0,0,1,,,,,,,,,0,,,68,44
42720,note_on,60,0,2,,,,,,,,,0,,,51,0
42720,note_on,0,0,2,,,,,,,,,0,,,47,0
42720,note_on,0,0,2,,,,,,,,,0,,,47,46
42720,note_on,0,0,2,,,,,,,,,0,,,51,46
42780,note_on,0,0,2,,,,,,,,,0,,,51,46
42780,note_on,0,0,2,,,,,,,,,0,,,47,39
42780,note_on,0,0,1,,,,,,,,,0,,,63,51
42780,note_on,0,0,2,,,,,,,,,0,,,47,0
42780,note_on,60,0,2,,,,,,,,,0,,,51,0
42780,note_on,60,0,1,,,,,,,,,0,,,68,0
42780,note_on,0,0,1,,,,,,,,,0,,,63,0
42780,note_on,0,0,1,,,,,,,,,0,,,68,51
42808,control_change,28,0,2,,,,,,,,,0,64,0,,
42838,set_tempo,240,1,0,,,,,,446097,,,,,,,
42840,note_on,32,0,2,,,,,,,,,0,,,51,0
42840,note_on,0,0,2,,,,,,,,,0,,,39,0
42840,note_on,0,0,2,,,,,,,,,0,,,39,61
42840,note_on,0,0,2,,,,,,,,,0,,,47,0
42840,note_on,60,0,1,,,,,,,,,0,,,68,0
42840,note_on,0,0,1,,,,,,,,,0,,,63,0
42840,note_on,0,0,1,,,,,,,,,0,,,75,0
42840,note_on,0,0,1,,,,,,,,,0,,,76,88
42842,control_change,2,0,2,,,,,,,,,0,64,126,,
42900,note_on,0,0,2,,,,,,,,,0,,,46,39
42900,note_on,0,0,2,,,,,,,,,0,,,51,46
42900,note_on,0,0,1,,,,,,,,,0,,,67,52
42900,note_on,60,0,1,,,,,,,,,0,,,64,52
42900,note_on,58,0,2,,,,,,,,,0,,,49,39
42952,control_change,52,0,2,,,,,,,,,0,64,0,,
42960,set_tempo,122,1,0,,,,,,428571,,,,,,,
42960,note_on,0,0,2,,,,,,,,,0,,,46,39
42960,note_on,0,0,2,,,,,,,,,0,,,49,39
42960,note_on,0,0,2,,,,,,,,,0,,,49,0
42960,note_on,0,0,2,,,,,,,,,0,,,51,0
42960,note_on,8,0,2,,,,,,,,,0,,,46,0
42960,note_on,0,0,2,,,,,,,,,0,,,51,46
42960,note_on,0,0,1,,,,,,,,,0,,,64,0
42960,note_on,0,0,1,,,,,,,,,0,,,75,84
42960,note_on,0,0,1,,,,,,,,,0,,,76,0
42960,note_on,60,0,1,,,,,,,,,0,,,67,0
42979,control_change,19,0,2,,,,,,,,,0,64,126,,
43020,note_on,0,0,2,,,,,,,,,0,,,51,46
43020,note_on,0,0,2,,,,,,,,,0,,,51,0
43020,note_on,0,0,2,,,,,,,,,0,,,49,0
43020,note_on,41,0,2,,,,,,,,,0,,,46,0
43020,note_on,60,0,1,,,,,,,,,0,,,63,52
43020,note_on,0,0,1,,,,,,,,,0,,,67,52
43020,note_on,0,0,2,,,,,,,,,0,,,49,39
43020,note_on,0,0,2,,,,,,,,,0,,,46,39
43076,set_tempo,116,1,0,,,,,,502092,,,,,,,
43080,note_on,0,0,2,,,,,,,,,0,,,49,0
43080,note_on,60,0,2,,,,,,,,,0,,,46,0
43080,note_on,0,0,2,,,,,,,,,0,,,51,0
43080,note_on,0,0,2,,,,,,,,,0,,,51,45
43080,note_on,0,0,1,,,,,,,,,0,,,63,0
43080,note_on,0,0,2,,,,,,,,,0,,,49,45
43080,note_on,0,0,1,,,,,,,,,0,,,67,52
43080,note_on,0,0,1,,,,,,,,,0,,,63,52
43080,note_on,60,0,1,,,,,,,,,0,,,67,0
43080,note_on,0,0,2,,,,,,,,,0,,,46,39
43140,note_on,0,0,2,,,,,,,,,0,,,46,45
43140,note_on,0,0,2,,,,,,,,,0,,,49,0
43140,note_on,0,0,2,,,,,,,,,0,,,51,0
43140,note_on,0,0,2,,,,,,,,,0,,,51,45
43140,note_on,0,0,2,,,,,,,,,0,,,49,45
43140,note_on,60,0,1,,,,,,,,,0,,,67,0
43140,note_on,0,0,1,,,,,,,,,0,,,63,0
43140,note_on,0,0,1,,,,,,,,,0,,,63,52
43140,note_on,0,0,1,,,,,,,,,0,,,67,52
43140,note_on,60,0,2,,,,,,,,,0,,,46,0
43179,control_change,39,0,2,,,,,,,,,0,64,0,,
43198,set_tempo,122,1,0,,,,,,502092,,,,,,,
43200,note_on,60,0,1,,,,,,,,,0,,,67,0
43200,note_on,0,0,1,,,,,,,,,0,,,63,0
43200,note_on,0,0,2,,,,,,,,,0,,,49,0
43200,note_on,0,0,1,,,,,,,,,0,,,68,73
43200,note_on,0,0,2,,,,,,,,,0,,,44,52
43200,note_on,0,0,2,,,,,,,,,0,,,51,0
43200,note_on,0,0,2,,,,,,,,,0,,,39,0
43200,note_on,21,0,2,,,,,,,,,0,,,46,0
43200,note_on,0,0,1,,,,,,,,,0,,,75,0
43225,control_change,25,0,2,,,,,,,,,0,64,127,,
43260,note_on,0,0,2,,,,,,,,,0,,,47,22
43260,note_on,35,0,2,,,,,,,,,0,,,51,26
43260,set_tempo,62,1,0,,,,,,444444,,,,,,,
43260,note_on,0,0,1,,,,,,,,,0,,,63,26
43260,note_on,60,0,1,,,,,,,,,0,,,59,26
43320,note_on,60,0,1,,,,,,,,,0,,,63,0
43320,note_on,0,0,1,,,,,,,,,0,,,63,26
43320,note_on,0,0,1,,,,,,,,,0,,,59,26
43320,note_on,0,0,1,,,,,,,,,0,,,59,0
43320,note_on,0,0,2,,,,,,,,,0,,,51,0
43320,note_on,60,0,2,,,,,,,,,0,,,47,0
43320,note_on,0,0,2,,,,,,,,,0,,,47,22
43320,note_on,0,0,2,,,,,,,,,0,,,51,26
43380,note_on,0,0,1,,,,,,,,,0,,,59,26
43380,note_on,60,0,2,,,,,,,,,0,,,47,0
43380,note_on,0,0,2,,,,,,,,,0,,,51,0
43380,note_on,0,0,2,,,,,,,,,0,,,51,26
43380,note_on,0,0,2,,,,,,,,,0,,,47,22
43380,note_on,0,0,1,,,,,,,,,0,,,59,0
43380,note_on,0,0,1,,,,,,,,,0,,,63,26
43380,note_on,60,0,1,,,,,,,,,0,,,63,0
43440,note_on,0,0,1,,,,,,,,,0,,,59,0
43440,note_on,60,0,2,,,,,,,,,0,,,47,0
43440,note_on,0,0,2,,,,,,,,,0,,,51,0
43440,note_on,0,0,2,,,,,,,,,0,,,51,26
43440,note_on,0,0,2,,,,,,,,,0,,,47,26
43440,note_on,60,0,1,,,,,,,,,0,,,63,0
43440,note_on,0,0,1,,,,,,,,,0,,,59,26
43440,note_on,0,0,1,,,,,,,,,0,,,63,26
43500,note_on,0,0,2,,,,,,,,,0,,,51,26
43500,control_change,0,0,2,,,,,,,,,0,64,0,,
43500,note_on,60,0,2,,,,,,,,,0,,,47,0
43500,note_on,0,0,2,,,,,,,,,0,,,47,22
43500,note_on,0,0,1,,,,,,,,,0,,,59,0
43500,note_on,0,0,1,,,,,,,,,0,,,59,26
43500,note_on,0,0,1,,,,,,,,,0,,,63,26
43500,note_on,0,0,2,,,,,,,,,0,,,51,0
43500,note_on,60,0,1,,,,,,,,,0,,,63,0
43558,control_change,58,0,2,,,,,,,,,0,64,127,,
43560,note_on,0,0,2,,,,,,,,,0,,,44,0
43560,note_on,60,0,1,,,,,,,,,0,,,63,0
43560,note_on,0,0,1,,,,,,,,,0,,,59,0
43560,note_on,0,0,1,,,,,,,,,0,,,68,0
43560,note_on,0,0,1,,,,,,,,,0,,,68,52
43560,note_on,2,0,2,,,,,,,,,0,,,47,0
43560,note_on,0,0,2,,,,,,,,,0,,,51,0
43560,note_on,0,0,2,,,,,,,,,0,,,44,52
43620,note_on,0,0,1,,,,,,,,,0,,,66,24
43620,note_on,60,0,2,,,,,,,,,0,,,51,22
43620,note_on,0,0,2,,,,,,,,,0,,,54,26
43620,note_on,60,0,1,,,,,,,,,0,,,60,24
43620,note_on,0,0,1,,,,,,,,,0,,,63,24
43680,note_on,60,0,2,,,,,,,,,0,,,54,0
43680,note_on,0,0,2,,,,,,,,,0,,,51,0
43680,note_on,0,0,2,,,,,,,,,0,,,54,29
43680,note_on,0,0,1,,,,,,,,,0,,,63,28
43680,note_on,0,0,1,,,,,,,,,0,,,60,28
43680,note_on,0,0,2,,,,,,,,,0,,,51,24
43680,note_on,0,0,1,,,,,,,,,0,,,60,0
43680,note_on,0,0,1,,,,,,,,,0,,,66,0
43680,note_on,60,0,1,,,,,,,,,0,,,63,0
43680,note_on,0,0,1,,,,,,,,,0,,,66,28
43740,note_on,0,0,1,,,,,,,,,0,,,60,35
43740,note_on,0,0,2,,,,,,,,,0,,,51,29
43740,note_on,0,0,1,,,,,,,,,0,,,66,35
43740,note_on,0,0,1,,,,,,,,,0,,,63,35
43740,note_on,0,0,1,,,,,,,,,0,,,60,0
43740,note_on,0,0,2,,,,,,,,,0,,,54,0
43740,note_on,0,0,1,,,,,,,,,0,,,63,0
43740,note_on,60,0,1,,,,,,,,,0,,,66,0
43740,note_on,0,0,2,,,,,,,,,0,,,54,35
43740,note_on,60,0,2,,,,,,,,,0,,,51,0
43797,set_tempo,537,1,0,,,,,,521739,,,,,,,
43800,note_on,60,0,2,,,,,,,,,0,,,51,0
43800,note_on,0,0,2,,,,,,,,,0,,,54,0
43800,note_on,0,0,1,,,,,,,,,0,,,66,30
43800,note_on,60,0,1,,,,,,,,,0,,,66,0
43800,note_on,0,0,1,,,,,,,,,0,,,60,30
43800,note_on,0,0,1,,,,,,,,,0,,,63,30
43800,note_on,0,0,1,,,,,,,,,0,,,60,0
43800,note_on,0,0,2,,,,,,,,,0,,,54,35
43800,note_on,0,0,2,,,,,,,,,0,,,51,29
43800,note_on,0,0,1,,,,,,,,,0,,,63,0
43860,note_on,0,0,1,,,,,,,,,0,,,63,26
43860,note_on,0,0,2,,,,,,,,,0,,,51,24
43860,note_on,60,0,1,,,,,,,,,0,,,66,0
43860,note_on,0,0,2,,,,,,,,,0,,,54,29
43860,note_on,0,0,1,,,,,,,,,0,,,63,0
43860,note_on,0,0,1,,,,,,,,,0,,,60,0
43860,note_on,0,0,1,,,,,,,,,0,,,60,26
43860,note_on,0,0,2,,,,,,,,,0,,,54,0
43860,note_on,0,0,1,,,,,,,,,0,,,66,26
43860,note_on,60,0,2,,,,,,,,,0,,,51,0
43908,control_change,48,0,2,,,,,,,,,0,64,0,,
43920,note_on,0,0,2,,,,,,,,,0,,,37,42
43920,note_on,0,0,2,,,,,,,,,0,,,44,0
43920,note_on,12,0,2,,,,,,,,,0,,,51,0
43920,note_on,0,0,2,,,,,,,,,0,,,54,0
43920,note_on,0,0,1,,,,,,,,,0,,,68,61
43920,set_tempo,123,1,0,,,,,,458015,,,,,,,
43920,note_on,60,0,1,,,,,,,,,0,,,66,0
43920,note_on,0,0,1,,,,,,,,,0,,,68,0
43920,note_on,0,0,1,,,,,,,,,0,,,60,0
43920,note_on,0,0,1,,,,,,,,,0,,,63,0
43920,control_change,0,0,2,,,,,,,,,0,64,126,,
43922,control_change,2,0,2,,,,,,,,,0,91,127,,
43924,control_change,4,0,1,,,,,,,,,0,91,127,,
43980,note_on,0,0,2,,,,,,,,,0,,,52,26
43980,note_on,0,0,1,,,,,,,,,0,,,64,27
43980,note_on,0,0,2,,,,,,,,,0,,,49,22
43980,note_on,0,0,2,,,,,,,,,0,,,44,22
43980,note_on,56,0,1,,,,,,,,,0,,,56,27
43980,note_on,58,0,2,,,,,,,,,0,,,37,0
44040,note_on,0,0,1,,,,,,,,,0,,,56,26
44040,note_on,0,0,1,,,,,,,,,0,,,64,26
44040,set_tempo,120,1,0,,,,,,444444,,,,,,,
44040,note_on,0,0,2,,,,,,,,,0,,,52,26
44040,note_on,0,0,2,,,,,,,,,0,,,49,22
44040,note_on,0,0,2,,,,,,,,,0,,,44,22
44040,note_on,0,0,2,,,,,,,,,0,,,52,0
44040,note_on,0,0,2,,,,,,,,,0,,,49,0
44040,note_on,60,0,2,,,,,,,,,0,,,44,0
44040,note_on,60,0,1,,,,,,,,,0,,,64,0
44040,note_on,0,0,1,,,,,,,,,0,,,56,0
44100,note_on,0,0,1,,,,,,,,,0,,,56,0
44100,note_on,60,0,1,,,,,,,,,0,,,64,0
44100,note_on,0,0,1,,,,,,,,,0,,,56,26
44100,note_on,0,0,2,,,,,,,,,0,,,44,22
44100,note_on,0,0,2,,,,,,,,,0,,,49,22
44100,note_on,0,0,2,,,,,,,,,0,,,44,0
44100,note_on,0,0,2,,,,,,,,,0,,,49,0
44100,note_on,60,0,2,,,,,,,,,0,,,52,0
44100,note_on,0,0,1,,,,,,,,,0,,,64,26
44100,note_on,0,0,2,,,,,,,,,0,,,52,26
44160,note_on,60,0,1,,,,,,,,,0,,,64,0
44160,note_on,0,0,2,,,,,,,,,0,,,49,22
44160,note_on,0,0,1,,,,,,,,,0,,,56,26
44160,note_on,0,0,1,,,,,,,,,0,,,64,26
44160,note_on,0,0,2,,,,,,,,,0,,,44,22
44160,note_on,0,0,2,,,,,,,,,0,,,44,0
44160,note_on,0,0,2,,,,,,,,,0,,,49,0
44160,note_on,60,0,2,,,,,,,,,0,,,52,0
44160,note_on,0,0,2,,,,,,,,,0,,,52,26
44160,note_on,0,0,1,,,,,,,,,0,,,56,0
44220,note_on,60,0,2,,,,,,,,,0,,,52,0
44220,note_on,0,0,2,,,,,,,,,0,,,49,0
44220,note_on,0,0,2,,,,,,,,,0,,,44,0
44220,note_on,0,0,2,,,,,,,,,0,,,44,22
44220,note_on,0,0,2,,,,,,,,,0,,,52,26
44220,note_on,0,0,1,,,,,,,,,0,,,64,26
44220,note_on,0,0,1,,,,,,,,,0,,,56,26
44220,note_on,0,0,1,,,,,,,,,0,,,56,0
44220,note_on,60,0,1,,,,,,,,,0,,,64,0
44220,note_on,0,0,2,,,,,,,,,0,,,49,22
44248,control_change,28,0,2,,,,,,,,,0,64,0,,
44280,note_on,0,0,1,,,,,,,,,0,,,68,61
44280,note_on,0,0,1,,,,,,,,,0,,,68,0
44280,note_on,0,0,1,,,,,,,,,0,,,56,0
44280,note_on,60,0,1,,,,,,,,,0,,,64,0
44280,set_tempo,240,1,0,,,,,,428571,,,,,,,
44280,note_on,0,0,2,,,,,,,,,0,,,49,22
44280,control_change,0,0,2,,,,,,,,,0,64,126,,
44280,note_on,0,0,2,,,,,,,,,0,,,52,26
44280,note_on,0,0,2,,,,,,,,,0,,,44,0
44280,note_on,0,0,2,,,,,,,,,0,,,49,0
44280,note_on,32,0,2,,,,,,,,,0,,,52,0
44280,note_on,0,0,2,,,,,,,,,0,,,44,22
44340,note_on,0,0,1,,,,,,,,,0,,,64,26
44340,note_on,60,0,1,,,,,,,,,0,,,56,26
44340,note_on,0,0,2,,,,,,,,,0,,,52,26
44340,note_on,0,0,2,,,,,,,,,0,,,49,22
44340,note_on,0,0,2,,,,,,,,,0,,,44,22
44340,note_on,0,0,2,,,,,,,,,0,,,44,0
44340,note_on,0,0,2,,,,,,,,,0,,,49,0
44340,note_on,60,0,2,,,,,,,,,0,,,52,0
44400,note_on,0,0,1,,,,,,,,,0,,,68,0
44400,note_on,0,0,1,,,,,,,,,0,,,56,0
44400,note_on,60,0,1,,,,,,,,,0,,,64,0
44400,note_on,0,0,1,,,,,,,,,0,,,69,59
44400,note_on,0,0,2,,,,,,,,,0,,,49,22
44400,note_on,60,0,2,,,,,,,,,0,,,52,0
44400,note_on,0,0,2,,,,,,,,,0,,,49,0
44400,note_on,0,0,2,,,,,,,,,0,,,44,0
44400,note_on,0,0,2,,,,,,,,,0,,,44,22
44400,note_on,0,0,2,,,,,,,,,0,,,52,26
44460,note_on,0,0,2,,,,,,,,,0,,,44,22
44460,note_on,0,0,2,,,,,,,,,0,,,44,0
44460,note_on,0,0,2,,,,,,,,,0,,,52,26
44460,note_on,0,0,1,,,,,,,,,0,,,64,27
44460,note_on,0,0,2,,,,,,,,,0,,,49,0
44460,note_on,60,0,2,,,,,,,,,0,,,52,0
44460,note_on,60,0,1,,,,,,,,,0,,,57,27
44460,note_on,0,0,2,,,,,,,,,0,,,49,22
44520,note_on,60,0,1,,,,,,,,,0,,,64,0
44520,note_on,0,0,1,,,,,,,,,0,,,57,0
44520,note_on,0,0,1,,,,,,,,,0,,,69,0
44520,note_on,0,0,1,,,,,,,,,0,,,68,59
44520,note_on,0,0,2,,,,,,,,,0,,,44,22
44520,note_on,0,0,2,,,,,,,,,0,,,52,26
44520,note_on,0,0,2,,,,,,,,,0,,,49,0
44520,note_on,60,0,2,,,,,,,,,0,,,52,0
44520,note_on,0,0,2,,,,,,,,,0,,,49,22
44520,note_on,0,0,2,,,,,,,,,0,,,44,0
44522,set_tempo,242,1,0,,,,,,497925,,,,,,,
44580,note_on,0,0,1,,,,,,,,,0,,,64,26
44580,note_on,60,0,2,,,,,,,,,0,,,52,0
44580,note_on,0,0,2,,,,,,,,,0,,,49,0
44580,note_on,0,0,2,,,,,,,,,0,,,44,0
44580,note_on,0,0,2,,,,,,,,,0,,,49,22
44580,note_on,0,0,2,,,,,,,,,0,,,44,22
44580,note_on,0,0,2,,,,,,,,,0,,,52,26
44580,note_on,60,0,1,,,,,,,,,0,,,56,26
44598,control_change,18,0,2,,,,,,,,,0,64,0,,
44638,set_tempo,116,1,0,,,,,,446097,,,,,,,
44640,note_on,0,0,1,,,,,,,,,0,,,68,0
44640,note_on,0,0,2,,,,,,,,,0,,,36,41
44640,note_on,0,0,2,,,,,,,,,0,,,49,0
44640,note_on,0,0,2,,,,,,,,,0,,,44,0
44640,note_on,42,0,2,,,,,,,,,0,,,52,0
44640,control_change,0,0,2,,,,,,,,,0,64,126,,
44640,note_on,60,0,1,,,,,,,,,0,,,64,0
44640,note_on,0,0,1,,,,,,,,,0,,,56,0
44640,note_on,0,0,1,,,,,,,,,0,,,69,60
44700,note_on,0,0,2,,,,,,,,,0,,,54,26
44700,note_on,60,0,1,,,,,,,,,0,,,57,26
44700,note_on,0,0,1,,,,,,,,,0,,,66,26
44700,note_on,60,0,2,,,,,,,,,0,,,36,0
44700,note_on,0,0,2,,,,,,,,,0,,,51,22
44700,note_on,0,0,2,,,,,,,,,0,,,44,22
44760,note_on,0,0,2,,,,,,,,,0,,,54,26
44760,note_on,60,0,2,,,,,,,,,0,,,44,0
44760,note_on,0,0,2,,,,,,,,,0,,,51,0
44760,note_on,0,0,2,,,,,,,,,0,,,54,0
44760,note_on,0,0,2,,,,,,,,,0,,,44,22
44760,note_on,60,0,1,,,,,,,,,0,,,66,0
44760,note_on,0,0,1,,,,,,,,,0,,,57,0
44760,note_on,0,0,1,,,,,,,,,0,,,57,26
44760,note_on,0,0,1,,,,,,,,,0,,,66,26
44760,note_on,0,0,2,,,,,,,,,0,,,51,22
44820,note_on,60,0,1,,,,,,,,,0,,,66,0
44820,note_on,0,0,1,,,,,,,,,0,,,57,0
44820,note_on,0,0,1,,,,,,,,,0,,,57,26
44820,note_on,0,0,2,,,,,,,,,0,,,54,26
44820,note_on,0,0,2,,,,,,,,,0,,,51,22
44820,note_on,0,0,2,,,,,,,,,0,,,44,22
44820,note_on,0,0,2,,,,,,,,,0,,,44,0
44820,note_on,0,0,2,,,,,,,,,0,,,51,0
44820,note_on,60,0,2,,,,,,,,,0,,,54,0
44820,note_on,0,0,1,,,,,,,,,0,,,66,26
44880,note_on,0,0,2,,,,,,,,,0,,,51,0
44880,note_on,0,0,2,,,,,,,,,0,,,51,22
44880,note_on,0,0,2,,,,,,,,,0,,,44,0
44880,note_on,0,0,2,,,,,,,,,0,,,44,22
44880,note_on,0,0,2,,,,,,,,,0,,,54,26
44880,note_on,0,0,1,,,,,,,,,0,,,66,26
44880,note_on,0,0,1,,,,,,,,,0,,,57,26
44880,note_on,0,0,1,,,,,,,,,0,,,57,0
44880,note_on,60,0,1,,,,,,,,,0,,,66,0
44880,note_on,60,0,2,,,,,,,,,0,,,54,0
44940,note_on,0,0,2,,,,,,,,,0,,,54,26
44940,note_on,0,0,1,,,,,,,,,0,,,57,26
44940,note_on,0,0,1,,,,,,,,,0,,,57,0
44940,note_on,60,0,1,,,,,,,,,0,,,66,0
44940,note_on,0,0,1,,,,,,,,,0,,,66,26
44940,note_on,0,0,2,,,,,,,,,0,,,44,22
44940,note_on,0,0,2,,,,,,,,,0,,,44,0
44940,note_on,0,0,2,,,,,,,,,0,,,51,0
44940,note_on,60,0,2,,,,,,,,,0,,,54,0
44940,note_on,0,0,2,,,,,,,,,0,,,51,22
44969,control_change,29,0,2,,,,,,,,,0,64,0,,
45000,note_on,0,0,2,,,,,,,,,0,,,51,22
45000,note_on,0,0,1,,,,,,,,,0,,,68,59
45000,note_on,0,0,1,,,,,,,,,0,,,69,0
45000,note_on,0,0,1,,,,,,,,,0,,,57,0
45000,note_on,31,0,2,,,,,,,,,0,,,54,0
45000,note_on,60,0,1,,,,,,,,,0,,,66,0
45000,note_on,0,0,2,,,,,,,,,0,,,54,26
45000,note_on,0,0,2,,,,,,,,,0,,,44,22
45000,note_on,0,0,2,,,,,,,,,0,,,44,0
45000,note_on,0,0,2,,,,,,,,,0,,,51,0
45000,control_change,0,0,2,,,,,,,,,0,64,126,,
45060,note_on,0,0,2,,,,,,,,,0,,,44,22
45060,note_on,0,0,1,,,,,,,,,0,,,66,28
45060,note_on,60,0,1,,,,,,,,,0,,,56,28
45060,note_on,60,0,2,,,,,,,,,0,,,54,0
45060,note_on,0,0,2,,,,,,,,,0,,,54,26
45060,note_on,0,0,2,,,,,,,,,0,,,51,22
45060,note_on,0,0,2,,,,,,,,,0,,,51,0
45060,note_on,0,0,2,,,,,,,,,0,,,44,0
45120,note_on,0,0,1,,,,,,,,,0,,,66,29
45120,note_on,0,0,1,,,,,,,,,0,,,56,29
45120,note_on,0,0,1,,,,,,,,,0,,,56,0
45120,note_on,60,0,1,,,,,,,,,0,,,66,0
45120,note_on,0,0,2,,,,,,,,,0,,,44,22
45120,note_on,60,0,2,,,,,,,,,0,,,54,0
45120,note_on,0,0,2,,,,,,,,,0,,,51,0
45120,note_on,0,0,2,,,,,,,,,0,,,44,0
45120,note_on,0,0,2,,,,,,,,,0,,,51,22
45120,note_on,0,0,2,,,,,,,,,0,,,54,26
45180,note_on,0,0,2,,,,,,,,,0,,,51,22
45180,note_on,60,0,2,,,,,,,,,0,,,54,0
45180,note_on,0,0,2,,,,,,,,,0,,,51,0
45180,note_on,60,0,1,,,,,,,,,0,,,66,0
45180,note_on,0,0,1,,,,,,,,,0,,,56,0
45180,note_on,0,0,1,,,,,,,,,0,,,56,29
45180,note_on,0,0,1,,,,,,,,,0,,,66,29
45180,note_on,0,0,2,,,,,,,,,0,,,44,22
45180,note_on,0,0,2,,,,,,,,,0,,,44,0
45180,note_on,0,0,2,,,,,,,,,0,,,54,26
45240,note_on,60,0,1,,,,,,,,,0,,,66,0
45240,note_on,0,0,2,,,,,,,,,0,,,44,22
45240,note_on,0,0,2,,,,,,,,,0,,,51,22
45240,note_on,0,0,2,,,,,,,,,0,,,44,0
45240,note_on,0,0,2,,,,,,,,,0,,,51,0
45240,note_on,60,0,2,,,,,,,,,0,,,54,0
45240,note_on,0,0,2,,,,,,,,,0,,,54,26
45240,note_on,0,0,1,,,,,,,,,0,,,56,0
45240,note_on,0,0,1,,,,,,,,,0,,,66,29
45240,note_on,0,0,1,,,,,,,,,0,,,56,29
45300,note_on,0,0,2,,,,,,,,,0,,,54,26
45300,note_on,0,0,2,,,,,,,,,0,,,51,22
45300,note_on,0,0,1,,,,,,,,,0,,,66,29
45300,note_on,0,0,2,,,,,,,,,0,,,51,0
45300,note_on,0,0,1,,,,,,,,,0,,,56,29
45300,note_on,60,0,2,,,,,,,,,0,,,54,0
45300,note_on,60,0,1,,,,,,,,,0,,,66,0
45300,note_on,0,0,1,,,,,,,,,0,,,56,0
45300,note_on,0,0,2,,,,,,,,,0,,,44,0
45300,note_on,0,0,2,,,,,,,,,0,,,44,22
45328,control_change,28,0,2,,,,,,,,,0,64,0,,
45360,note_on,0,0,2,,,,,,,,,0,,,51,0
45360,note_on,0,0,2,,,,,,,,,0,,,44,0
45360,note_on,0,0,2,,,,,,,,,0,,,37,40
45360,control_change,0,0,2,,,,,,,,,0,64,126,,
45360,note_on,32,0,2,,,,,,,,,0,,,54,0
45360,note_on,60,0,1,,,,,,,,,0,,,66,0
45360,note_on,0,0,1,,,,,,,,,0,,,56,0
45360,note_on,0,0,1,,,,,,,,,0,,,68,0
45360,note_on,0,0,1,,,,,,,,,0,,,68,60
45420,note_on,60,0,1,,,,,,,,,0,,,56,26
45420,note_on,0,0,1,,,,,,,,,0,,,64,26
45420,note_on,0,0,2,,,,,,,,,0,,,44,22
45420,note_on,0,0,2,,,,,,,,,0,,,49,22
45420,note_on,0,0,2,,,,,,,,,0,,,52,26
45420,note_on,60,0,2,,,,,,,,,0,,,37,0
45480,note_on,0,0,2,,,,,,,,,0,,,49,22
45480,note_on,0,0,2,,,,,,,,,0,,,52,26
45480,note_on,0,0,2,,,,,,,,,0,,,49,0
45480,note_on,60,0,2,,,,,,,,,0,,,44,0
45480,note_on,0,0,2,,,,,,,,,0,,,44,22
45480,note_on,0,0,2,,,,,,,,,0,,,52,0
45480,note_on,0,0,1,,,,,,,,,0,,,56,26
45480,note_on,60,0,1,,,,,,,,,0,,,64,0
45480,note_on,0,0,1,,,,,,,,,0,,,56,0
45480,note_on,0,0,1,,,,,,,,,0,,,64,26
45540,note_on,0,0,1,,,,,,,,,0,,,64,26
45540,note_on,0,0,1,,,,,,,,,0,,,56,26
45540,note_on,0,0,1,,,,,,,,,0,,,56,0
45540,note_on,60,0,2,,,,,,,,,0,,,52,0
45540,note_on,0,0,2,,,,,,,,,0,,,49,0
45540,note_on,0,0,2,,,,,,,,,0,,,44,0
45540,note_on,0,0,2,,,,,,,,,0,,,44,22
45540,note_on,0,0,2,,,,,,,,,0,,,49,22
45540,note_on,60,0,1,,,,,,,,,0,,,64,0
45540,note_on,0,0,2,,,,,,,,,0,,,52,26
45600,note_on,60,0,2,,,,,,,,,0,,,52,0
45600,note_on,0,0,1,,,,,,,,,0,,,56,26
45600,note_on,0,0,2,,,,,,,,,0,,,44,0
45600,note_on,0,0,1,,,,,,,,,0,,,56,0
45600,note_on,0,0,2,,,,,,,,,0,,,44,22
45600,note_on,0,0,2,,,,,,,,,0,,,49,22
45600,note_on,60,0,1,,,,,,,,,0,,,64,0
45600,note_on,0,0,1,,,,,,,,,0,,,64,26
45600,note_on,0,0,2,,,,,,,,,0,,,49,0
45600,note_on,0,0,2,,,,,,,,,0,,,52,26
45660,note_on,0,0,1,,,,,,,,,0,,,56,27
45660,note_on,0,0,1,,,,,,,,,0,,,56,0
45660,note_on,60,0,1,,,,,,,,,0,,,64,0
45660,note_on,0,0,1,,,,,,,,,0,,,64,27
45660,note_on,60,0,2,,,,,,,,,0,,,52,0
45660,note_on,0,0,2,,,,,,,,,0,,,49,0
45660,note_on,0,0,2,,,,,,,,,0,,,44,0
45660,note_on,0,0,2,,,,,,,,,0,,,44,22
45660,note_on,0,0,2,,,,,,,,,0,,,49,22
45660,note_on,0,0,2,,,,,,,,,0,,,52,26
45692,control_change,32,0,2,,,,,,,,,0,64,1,,
45720,note_on,0,0,2,,,,,,,,,0,,,49,22
45720,note_on,0,0,2,,,,,,,,,0,,,52,26
45720,control_change,0,0,2,,,,,,,,,0,64,126,,
45720,note_on,0,0,1,,,,,,,,,0,,,76,70
45720,note_on,0,0,1,,,,,,,,,0,,,68,0
45720,note_on,0,0,2,,,,,,,,,0,,,44,0
45720,note_on,28,0,2,,,,,,,,,0,,,52,0
45720,note_on,0,0,2,,,,,,,,,0,,,44,22
45720,note_on,0,0,2,,,,,,,,,0,,,49,0
45720,note_on,60,0,1,,,,,,,,,0,,,64,0
45720,note_on,0,0,1,,,,,,,,,0,,,56,0
45722,set_tempo,1084,1,0,,,,,,428571,,,,,,,
45780,note_on,0,0,2,,,,,,,,,0,,,49,0
45780,note_on,60,0,2,,,,,,,,,0,,,52,0
45780,note_on,0,0,2,,,,,,,,,0,,,49,22
45780,note_on,60,0,1,,,,,,,,,0,,,64,28
45780,note_on,0,0,1,,,,,,,,,0,,,68,28
45780,note_on,0,0,2,,,,,,,,,0,,,44,0
45780,note_on,0,0,2,,,,,,,,,0,,,52,26
45780,note_on,0,0,2,,,,,,,,,0,,,44,22
45840,note_on,60,0,2,,,,,,,,,0,,,52,0
45840,note_on,0,0,2,,,,,,,,,0,,,49,0
45840,note_on,0,0,2,,,,,,,,,0,,,44,0
45840,note_on,0,0,2,,,,,,,,,0,,,44,22
45840,note_on,0,0,1,,,,,,,,,0,,,76,0
45840,note_on,0,0,1,,,,,,,,,0,,,75,64
45840,note_on,0,0,2,,,,,,,,,0,,,49,22
45840,note_on,0,0,1,,,,,,,,,0,,,64,0
45840,note_on,60,0,1,,,,,,,,,0,,,68,0
45840,note_on,0,0,2,,,,,,,,,0,,,52,26
45900,note_on,0,0,2,,,,,,,,,0,,,44,0
45900,note_on,0,0,2,,,,,,,,,0,,,49,0
45900,note_on,60,0,1,,,,,,,,,0,,,63,27
45900,note_on,0,0,1,,,,,,,,,0,,,68,27
45900,note_on,0,0,2,,,,,,,,,0,,,44,22
45900,note_on,60,0,2,,,,,,,,,0,,,52,0
45900,note_on,0,0,2,,,,,,,,,0,,,52,26
45900,note_on,0,0,2,,,,,,,,,0,,,49,22
45960,note_on,0,0,2,,,,,,,,,0,,,49,22
45960,note_on,0,0,1,,,,,,,,,0,,,73,60
45960,note_on,0,0,1,,,,,,,,,0,,,75,0
45960,note_on,0,0,1,,,,,,,,,0,,,63,0
45960,note_on,60,0,1,,,,,,,,,0,,,68,0
45960,note_on,60,0,2,,,,,,,,,0,,,52,0
45960,note_on,0,0,2,,,,,,,,,0,,,49,0
45960,note_on,0,0,2,,,,,,,,,0,,,44,0
45960,note_on,0,0,2,,,,,,,,,0,,,52,26
45960,note_on,0,0,2,,,,,,,,,0,,,44,22
45962,set_tempo,240,1,0,,,,,,524017,,,,,,,
46020,note_on,60,0,2,,,,,,,,,0,,,52,0
46020,note_on,0,0,2,,,,,,,,,0,,,49,0
46020,note_on,0,0,2,,,,,,,,,0,,,44,0
46020,note_on,0,0,2,,,,,,,,,0,,,49,22
46020,note_on,0,0,2,,,,,,,,,0,,,44,22
46020,note_on,0,0,2,,,,,,,,,0,,,52,26
46020,note_on,60,0,1,,,,,,,,,0,,,61,27
46020,note_on,0,0,1,,,,,,,,,0,,,68,27
46048,control_change,28,0,2,,,,,,,,,0,64,0,,
46078,control_change,30,0,2,,,,,,,,,0,64,126,,
46080,note_on,0,0,1,,,,,,,,,0,,,61,0
46080,note_on,0,0,1,,,,,,,,,0,,,73,60
46080,note_on,0,0,1,,,,,,,,,0,,,73,0
46080,note_on,60,0,1,,,,,,,,,0,,,68,0
46080,note_on,2,0,2,,,,,,,,,0,,,52,0
46080,note_on,0,0,2,,,,,,,,,0,,,49,0
46080,note_on,0,0,2,,,,,,,,,0,,,44,0
46080,note_on,0,0,2,,,,,,,,,0,,,39,39
46082,set_tempo,120,1,0,,,,,,444444,,,,,,,
46140,note_on,60,0,2,,,,,,,,,0,,,39,0
46140,note_on,0,0,2,,,,,,,,,0,,,51,22
46140,note_on,0,0,2,,,,,,,,,0,,,54,26
46140,note_on,60,0,1,,,,,,,,,0,,,61,27
46140,note_on,0,0,1,,,,,,,,,0,,,68,27
46140,note_on,0,0,2,,,,,,,,,0,,,44,22
46200,note_on,60,0,1,,,,,,,,,0,,,68,0
46200,note_on,0,0,1,,,,,,,,,0,,,61,0
46200,note_on,0,0,1,,,,,,,,,0,,,61,27
46200,note_on,0,0,1,,,,,,,,,0,,,68,27
46200,note_on,0,0,2,,,,,,,,,0,,,54,26
46200,note_on,0,0,2,,,,,,,,,0,,,51,0
46200,note_on,0,0,2,,,,,,,,,0,,,54,0
46200,note_on,0,0,2,,,,,,,,,0,,,44,22
46200,note_on,60,0,2,,,,,,,,,0,,,44,0
46200,note_on,0,0,2,,,,,,,,,0,,,51,22
46260,note_on,0,0,1,,,,,,,,,0,,,61,27
46260,note_on,0,0,1,,,,,,,,,0,,,61,0
46260,note_on,60,0,1,,,,,,,,,0,,,68,0
46260,note_on,0,0,2,,,,,,,,,0,,,54,26
46260,note_on,0,0,2,,,,,,,,,0,,,51,22
46260,note_on,0,0,2,,,,,,,,,0,,,44,22
46260,note_on,0,0,2,,,,,,,,,0,,,44,0
46260,note_on,0,0,2,,,,,,,,,0,,,51,0
46260,note_on,60,0,2,,,,,,,,,0,,,54,0
46260,note_on,0,0,1,,,,,,,,,0,,,68,27
46320,note_on,0,0,2,,,,,,,,,0,,,44,0
46320,note_on,0,0,2,,,,,,,,,0,,,44,22
46320,note_on,0,0,2,,,,,,,,,0,,,51,22
46320,note_on,0,0,2,,,,,,,,,0,,,54,26
46320,note_on,0,0,1,,,,,,,,,0,,,68,27
46320,note_on,60,0,2,,,,,,,,,0,,,54,0
46320,note_on,0,0,2,,,,,,,,,0,,,51,0
46320,note_on,60,0,1,,,,,,,,,0,,,68,0
46320,note_on,0,0,1,,,,,,,,,0,,,61,0
46320,note_on,0,0,1,,,,,,,,,0,,,61,27
46380,note_on,0,0,1,,,,,,,,,0,,,68,27
46380,note_on,0,0,1,,,,,,,,,0,,,61,27
46380,note_on,60,0,2,,,,,,,,,0,,,54,0
46380,note_on,0,0,2,,,,,,,,,0,,,51,0
46380,note_on,0,0,2,,,,,,,,,0,,,44,0
46380,note_on,0,0,2,,,,,,,,,0,,,44,22
46380,note_on,0,0,2,,,,,,,,,0,,,51,22
46380,note_on,0,0,2,,,,,,,,,0,,,54,26
46380,note_on,60,0,1,,,,,,,,,0,,,68,0
46380,note_on,0,0,1,,,,,,,,,0,,,61,0
46401,control_change,21,0,2,,,,,,,,,0,64,0,,
46440,note_on,0,0,2,,,,,,,,,0,,,44,22
46440,note_on,0,0,1,,,,,,,,,0,,,61,0
46440,note_on,0,0,1,,,,,,,,,0,,,73,0
46440,note_on,0,0,1,,,,,,,,,0,,,72,61
46440,note_on,60,0,1,,,,,,,,,0,,,68,0
46440,control_change,0,0,2,,,,,,,,,0,64,126,,
46440,note_on,0,0,2,,,,,,,,,0,,,54,26
46440,note_on,0,0,2,,,,,,,,,0,,,51,22
46440,note_on,0,0,2,,,,,,,,,0,,,44,0
46440,note_on,0,0,2,,,,,,,,,0,,,51,0
46440,note_on,39,0,2,,,,,,,,,0,,,54,0
46500,note_on,0,0,2,,,,,,,,,0,,,54,26
46500,note_on,0,0,2,,,,,,,,,0,,,51,22
46500,note_on,0,0,2,,,,,,,,,0,,,44,0
46500,note_on,0,0,2,,,,,,,,,0,,,51,0
46500,note_on,60,0,2,,,,,,,,,0,,,54,0
46500,note_on,0,0,2,,,,,,,,,0,,,44,22
46500,note_on,0,0,1,,,,,,,,,0,,,68,27
46500,note_on,60,0,1,,,,,,,,,0,,,60,27
46560,note_on,0,0,2,,,,,,,,,0,,,54,26
46560,note_on,0,0,1,,,,,,,,,0,,,60,27
46560,note_on,0,0,1,,,,,,,,,0,,,68,27
46560,note_on,60,0,2,,,,,,,,,0,,,54,0
46560,note_on,0,0,2,,,,,,,,,0,,,51,0
46560,note_on,0,0,2,,,,,,,,,0,,,44,0
46560,note_on,0,0,2,,,,,,,,,0,,,44,22
46560,note_on,0,0,1,,,,,,,,,0,,,60,0
46560,note_on,0,0,2,,,,,,,,,0,,,51,22
46560,note_on,60,0,1,,,,,,,,,0,,,68,0
46620,note_on,60,0,2,,,,,,,,,0,,,54,0
46620,note_on,0,0,2,,,,,,,,,0,,,44,0
46620,note_on,0,0,2,,,,,,,,,0,,,44,22
46620,note_on,0,0,2,,,,,,,,,0,,,51,22
46620,note_on,0,0,2,,,,,,,,,0,,,54,26
46620,note_on,0,0,1,,,,,,,,,0,,,68,27
46620,note_on,0,0,1,,,,,,,,,0,,,60,27
46620,note_on,0,0,1,,,,,,,,,0,,,60,0
46620,note_on,60,0,1,,,,,,,,,0,,,68,0
46620,note_on,0,0,2,,,,,,,,,0,,,51,0
46680,note_on,0,0,1,,,,,,,,,0,,,60,27
46680,note_on,60,0,2,,,,,,,,,0,,,54,0
46680,note_on,0,0,2,,,,,,,,,0,,,54,26
46680,note_on,0,0,2,,,,,,,,,0,,,44,22
46680,note_on,0,0,2,,,,,,,,,0,,,51,22
46680,note_on,0,0,1,,,,,,,,,0,,,68,27
46680,note_on,60,0,1,,,,,,,,,0,,,68,0
46680,note_on,0,0,2,,,,,,,,,0,,,44,0
46680,note_on,0,0,2,,,,,,,,,0,,,51,0
46680,note_on,0,0,1,,,,,,,,,0,,,60,0
46740,note_on,0,0,2,,,,,,,,,0,,,51,0
46740,note_on,60,0,1,,,,,,,,,0,,,68,0
46740,note_on,0,0,1,,,,,,,,,0,,,60,0
46740,note_on,0,0,1,,,,,,,,,0,,,60,27
46740,note_on,60,0,2,,,,,,,,,0,,,54,0
46740,note_on,0,0,2,,,,,,,,,0,,,54,26
46740,note_on,0,0,2,,,,,,,,,0,,,51,22
46740,note_on,0,0,2,,,,,,,,,0,,,44,22
46740,note_on,0,0,2,,,,,,,,,0,,,44,0
46740,note_on,0,0,1,,,,,,,,,0,,,68,27
46760,control_change,20,0,2,,,,,,,,,0,64,0,,
46798,set_tempo,716,1,0,,,,,,481928,,,,,,,
46800,note_on,0,0,1,,,,,,,,,0,,,60,0
46800,note_on,40,0,2,,,,,,,,,0,,,54,0
46800,note_on,0,0,1,,,,,,,,,0,,,72,0
46800,note_on,0,0,1,,,,,,,,,0,,,72,58
46800,control_change,0,0,2,,,,,,,,,0,64,124,,
46800,note_on,0,0,2,,,,,,,,,0,,,40,42
46800,note_on,0,0,2,,,,,,,,,0,,,44,0
46800,note_on,0,0,2,,,,,,,,,0,,,51,0
46800,note_on,60,0,1,,,,,,,,,0,,,68,0
46860,note_on,60,0,1,,,,,,,,,0,,,60,35
46860,note_on,0,0,1,,,,,,,,,0,,,69,35
46860,note_on,0,0,2,,,,,,,,,0,,,52,35
46860,note_on,60,0,2,,,,,,,,,0,,,40,0
46860,note_on,0,0,2,,,,,,,,,0,,,45,29
46918,set_tempo,120,1,0,,,,,,430108,,,,,,,
46920,note_on,0,0,2,,,,,,,,,0,,,45,29
46920,note_on,0,0,2,,,,,,,,,0,,,52,35
46920,note_on,60,0,1,,,,,,,,,0,,,69,0
46920,note_on,0,0,1,,,,,,,,,0,,,60,0
46920,note_on,0,0,1,,,,,,,,,0,,,72,0
46920,note_on,0,0,1,,,,,,,,,0,,,73,68
46920,note_on,0,0,2,,,,,,,,,0,,,52,0
46920,note_on,60,0,2,,,,,,,,,0,,,45,0
46923,control_change,3,0,2,,,,,,,,,0,64,0,,
46951,control_change,28,0,2,,,,,,,,,0,64,126,,
46980,note_on,29,0,2,,,,,,,,,0,,,52,0
46980,note_on,0,0,2,,,,,,,,,0,,,45,29
46980,note_on,0,0,2,,,,,,,,,0,,,52,35
46980,note_on,60,0,1,,,,,,,,,0,,,61,35
46980,note_on,0,0,1,,,,,,,,,0,,,69,35
46980,note_on,0,0,2,,,,,,,,,0,,,45,0
47040,note_on,60,0,2,,,,,,,,,0,,,52,0
47040,note_on,0,0,2,,,,,,,,,0,,,45,0
47040,note_on,0,0,2,,,,,,,,,0,,,45,29
47040,note_on,0,0,2,,,,,,,,,0,,,52,35
47040,note_on,60,0,1,,,,,,,,,0,,,69,0
47040,note_on,0,0,1,,,,,,,,,0,,,61,0
47040,note_on,0,0,1,,,,,,,,,0,,,61,35
47040,note_on,0,0,1,,,,,,,,,0,,,69,35
47100,note_on,60,0,1,,,,,,,,,0,,,69,0
47100,note_on,0,0,1,,,,,,,,,0,,,61,0
47100,note_on,0,0,1,,,,,,,,,0,,,61,35
47100,note_on,0,0,2,,,,,,,,,0,,,45,0
47100,note_on,0,0,2,,,,,,,,,0,,,52,35
47100,note_on,0,0,2,,,,,,,,,0,,,45,29
47100,note_on,60,0,2,,,,,,,,,0,,,52,0
47100,note_on,0,0,1,,,,,,,,,0,,,69,35
47160,note_on,0,0,1,,,,,,,,,0,,,61,0
47160,note_on,0,0,1,,,,,,,,,0,,,61,35
47160,note_on,0,0,1,,,,,,,,,0,,,69,35
47160,note_on,0,0,2,,,,,,,,,0,,,52,35
47160,note_on,0,0,2,,,,,,,,,0,,,45,0
47160,note_on,60,0,2,,,,,,,,,0,,,52,0
47160,note_on,0,0,2,,,,,,,,,0,,,45,29
47160,note_on,60,0,1,,,,,,,,,0,,,69,0
47220,note_on,60,0,2,,,,,,,,,0,,,45,0
47220,note_on,0,0,2,,,,,,,,,0,,,52,35
47220,note_on,0,0,2,,,,,,,,,0,,,52,0
47220,note_on,0,0,1,,,,,,,,,0,,,61,0
47220,note_on,0,0,1,,,,,,,,,0,,,61,35
47220,note_on,0,0,1,,,,,,,,,0,,,69,35
47220,note_on,60,0,1,,,,,,,,,0,,,69,0
47220,note_on,0,0,2,,,,,,,,,0,,,45,29
47280,note_on,0,0,2,,,,,,,,,0,,,40,35
47280,note_on,0,0,2,,,,,,,,,0,,,45,0
47280,note_on,60,0,2,,,,,,,,,0,,,52,0
47280,note_on,0,0,1,,,,,,,,,0,,,73,70
47280,note_on,0,0,1,,,,,,,,,0,,,73,0
47280,note_on,60,0,1,,,,,,,,,0,,,69,0
47280,note_on,0,0,1,,,,,,,,,0,,,61,0
47340,note_on,60,0,2,,,,,,,,,0,,,52,35
47340,note_on,0,0,2,,,,,,,,,0,,,45,29
47340,note_on,60,0,1,,,,,,,,,0,,,61,35
47340,note_on,0,0,1,,,,,,,,,0,,,69,35
47400,note_on,0,0,1,,,,,,,,,0,,,73,69
47400,note_on,0,0,1,,,,,,,,,0,,,73,0
47400,note_on,0,0,2,,,,,,,,,0,,,40,35
47400,note_on,0,0,2,,,,,,,,,0,,,40,0
47400,note_on,0,0,2,,,,,,,,,0,,,52,0
47400,note_on,60,0,2,,,,,,,,,0,,,45,0
47400,note_on,0,0,1,,,,,,,,,0,,,61,0
47400,note_on,60,0,1,,,,,,,,,0,,,69,0
47460,note_on,60,0,1,,,,,,,,,0,,,61,35
47460,note_on,60,0,2,,,,,,,,,0,,,52,35
47460,note_on,0,0,1,,,,,,,,,0,,,69,35
47460,note_on,0,0,2,,,,,,,,,0,,,45,29
47481,control_change,21,0,2,,,,,,,,,0,64,0,,
47518,set_tempo,600,1,0,,,,,,480000,,,,,,,
47520,note_on,0,0,2,,,,,,,,,0,,,35,52
47520,note_on,0,0,2,,,,,,,,,0,,,52,0
47520,note_on,0,0,2,,,,,,,,,0,,,40,0
47520,note_on,0,0,1,,,,,,,,,0,,,73,70
47520,control_change,0,0,2,,,,,,,,,0,64,126,,
47520,note_on,39,0,2,,,,,,,,,0,,,45,0
47520,note_on,0,0,1,,,,,,,,,0,,,73,0
47520,note_on,0,0,1,,,,,,,,,0,,,61,0
47520,note_on,60,0,1,,,,,,,,,0,,,69,0
47580,note_on,60,0,1,,,,,,,,,0,,,61,44
47580,note_on,0,0,2,,,,,,,,,0,,,40,37
47580,note_on,0,0,2,,,,,,,,,0,,,47,44
47580,note_on,60,0,2,,,,,,,,,0,,,35,0
47580,note_on,0,0,1,,,,,,,,,0,,,68,44
47640,note_on,60,0,1,,,,,,,,,0,,,68,0
47640,set_tempo,122,1,0,,,,,,431655,,,,,,,
47640,note_on,0,0,1,,,,,,,,,0,,,73,0
47640,note_on,0,0,1,,,,,,,,,0,,,74,78
47640,note_on,0,0,1,,,,,,,,,0,,,61,0
47640,note_on,0,0,2,,,,,,,,,0,,,40,37
47640,note_on,60,0,2,,,,,,,,,0,,,40,0
47640,note_on,0,0,2,,,,,,,,,0,,,47,0
47640,note_on,0,0,2,,,,,,,,,0,,,47,44
47640,control_change,0,0,2,,,,,,,,,0,64,0,,
47680,control_change,40,0,2,,,,,,,,,0,64,126,,
47700,note_on,20,0,2,,,,,,,,,0,,,47,0
47700,note_on,0,0,2,,,,,,,,,0,,,40,0
47700,note_on,0,0,2,,,,,,,,,0,,,40,37
47700,note_on,60,0,1,,,,,,,,,0,,,62,44
47700,note_on,0,0,1,,,,,,,,,0,,,68,44
47700,note_on,0,0,2,,,,,,,,,0,,,47,44
47760,note_on,0,0,1,,,,,,,,,0,,,62,44
47760,note_on,60,0,1,,,,,,,,,0,,,68,0
47760,note_on,0,0,1,,,,,,,,,0,,,68,44
47760,note_on,60,0,2,,,,,,,,,0,,,47,0
47760,note_on,0,0,2,,,,,,,,,0,,,47,44
47760,note_on,0,0,2,,,,,,,,,0,,,40,0
47760,note_on,0,0,2,,,,,,,,,0,,,40,37
47760,note_on,0,0,1,,,,,,,,,0,,,62,0
47820,note_on,60,0,2,,,,,,,,,0,,,40,0
47820,note_on,0,0,2,,,,,,,,,0,,,47,0
47820,note_on,0,0,2,,,,,,,,,0,,,40,37
47820,note_on,0,0,2,,,,,,,,,0,,,47,44
47820,note_on,0,0,1,,,,,,,,,0,,,68,44
47820,note_on,0,0,1,,,,,,,,,0,,,62,44
47820,note_on,0,0,1,,,,,,,,,0,,,62,0
47820,note_on,60,0,1,,,,,,,,,0,,,68,0
47880,note_on,0,0,1,,,,,,,,,0,,,68,44
47880,note_on,0,0,1,,,,,,,,,0,,,62,0
47880,note_on,60,0,1,,,,,,,,,0,,,68,0
47880,note_on,0,0,1,,,,,,,,,0,,,62,44
47880,note_on,0,0,2,,,,,,,,,0,,,40,37
47880,note_on,60,0,2,,,,,,,,,0,,,47,0
47880,note_on,0,0,2,,,,,,,,,0,,,47,44
47880,note_on,0,0,2,,,,,,,,,0,,,40,0
47940,note_on,0,0,2,,,,,,,,,0,,,40,37
47940,note_on,0,0,2,,,,,,,,,0,,,47,44
47940,note_on,0,0,2,,,,,,,,,0,,,40,0
47940,note_on,60,0,2,,,,,,,,,0,,,47,0
47940,note_on,0,0,1,,,,,,,,,0,,,68,44
47940,note_on,0,0,1,,,,,,,,,0,,,62,44
47940,note_on,0,0,1,,,,,,,,,0,,,62,0
47940,note_on,60,0,1,,,,,,,,,0,,,68,0
47974,control_change,34,0,2,,,,,,,,,0,64,0,,
48000,note_on,60,0,1,,,,,,,,,0,,,68,0
48000,note_on,0,0,1,,,,,,,,,0,,,74,80
48000,note_on,0,0,2,,,,,,,,,0,,,40,0
48000,note_on,0,0,1,,,,,,,,,0,,,62,0
48000,note_on,0,0,1,,,,,,,,,0,,,74,0
48000,note_on,0,0,2,,,,,,,,,0,,,35,44
48000,note_on,26,0,2,,,,,,,,,0,,,47,0
48014,control_change,14,0,2,,,,,,,,,0,64,126,,
48060,note_on,60,0,1,,,,,,,,,0,,,62,44
48060,note_on,46,0,2,,,,,,,,,0,,,40,37
48060,note_on,0,0,1,,,,,,,,,0,,,68,44
48060,note_on,0,0,2,,,,,,,,,0,,,47,44
48120,note_on,0,0,1,,,,,,,,,0,,,74,0
48120,note_on,0,0,1,,,,,,,,,0,,,62,0
48120,note_on,60,0,1,,,,,,,,,0,,,68,0
48120,note_on,60,0,2,,,,,,,,,0,,,47,0
48120,note_on,0,0,2,,,,,,,,,0,,,40,44
48120,note_on,0,0,2,,,,,,,,,0,,,35,0
48120,note_on,0,0,2,,,,,,,,,0,,,40,0
48120,note_on,0,0,1,,,,,,,,,0,,,74,75
48180,note_on,60,0,1,,,,,,,,,0,,,62,44
48180,note_on,0,0,1,,,,,,,,,0,,,68,44
48180,note_on,0,0,2,,,,,,,,,0,,,47,44
48180,note_on,60,0,2,,,,,,,,,0,,,52,44
48217,control_change,37,0,2,,,,,,,,,0,64,0,,
48238,set_tempo,598,1,0,,,,,,478088,,,,,,,
48240,control_change,0,0,2,,,,,,,,,0,64,126,,
48240,note_on,0,0,2,,,,,,,,,0,,,39,61
48240,note_on,23,0,2,,,,,,,,,0,,,47,0
48240,note_on,0,0,2,,,,,,,,,0,,,40,0
48240,note_on,0,0,2,,,,,,,,,0,,,52,0
48240,note_on,0,0,1,,,,,,,,,0,,,62,0
48240,note_on,0,0,1,,,,,,,,,0,,,74,0
48240,note_on,0,0,1,,,,,,,,,0,,,76,88
48240,note_on,60,0,1,,,,,,,,,0,,,68,0
48300,note_on,0,0,1,,,,,,,,,0,,,68,51
48300,note_on,60,0,2,,,,,,,,,0,,,51,45
48300,note_on,60,0,1,,,,,,,,,0,,,64,51
48300,note_on,0,0,2,,,,,,,,,0,,,47,39
48358,set_tempo,120,1,0,,,,,,428571,,,,,,,
48360,note_on,0,0,2,,,,,,,,,0,,,51,0
48360,note_on,0,0,2,,,,,,,,,0,,,47,39
48360,note_on,60,0,2,,,,,,,,,0,,,47,0
48360,note_on,0,0,2,,,,,,,,,0,,,51,45
48360,note_on,60,0,1,,,,,,,,,0,,,68,0
48360,note_on,0,0,1,,,,,,,,,0,,,64,0
48360,note_on,0,0,1,,,,,,,,,0,,,76,0
48360,note_on,0,0,1,,,,,,,,,0,,,75,83
48420,note_on,0,0,2,,,,,,,,,0,,,51,46
48420,note_on,60,0,2,,,,,,,,,0,,,51,0
48420,note_on,60,0,1,,,,,,,,,0,,,63,51
48420,note_on,0,0,2,,,,,,,,,0,,,47,39
48420,note_on,0,0,1,,,,,,,,,0,,,68,51
48420,note_on,0,0,2,,,,,,,,,0,,,47,0
48480,note_on,60,0,2,,,,,,,,,0,,,51,0
48480,note_on,0,0,1,,,,,,,,,0,,,68,44
48480,note_on,0,0,1,,,,,,,,,0,,,63,44
48480,note_on,0,0,1,,,,,,,,,0,,,63,0
48480,note_on,60,0,1,,,,,,,,,0,,,68,0
48480,note_on,0,0,2,,,,,,,,,0,,,47,0
48480,note_on,0,0,2,,,,,,,,,0,,,47,39
48480,note_on,0,0,2,,,,,,,,,0,,,51,46
48540,note_on,60,0,2,,,,,,,,,0,,,51,0
48540,note_on,0,0,2,,,,,,,,,0,,,47,0
48540,note_on,0,0,2,,,,,,,,,0,,,47,39
48540,note_on,60,0,1,,,,,,,,,0,,,68,0
48540,note_on,0,0,1,,,,,,,,,0,,,63,0
48540,note_on,0,0,1,,,,,,,,,0,,,68,51
48540,note_on,0,0,1,,,,,,,,,0,,,63,51
48540,note_on,0,0,2,,,,,,,,,0,,,51,46
48578,control_change,38,0,2,,,,,,,,,0,64,0,,
48598,set_tempo,240,1,0,,,,,,446097,,,,,,,
48600,note_on,0,0,1,,,,,,,,,0,,,63,0
48600,note_on,60,0,1,,,,,,,,,0,,,68,0
48600,note_on,0,0,1,,,,,,,,,0,,,75,0
48600,note_on,0,0,1,,,,,,,,,0,,,76,88
48600,note_on,22,0,2,,,,,,,,,0,,,51,0
48600,note_on,0,0,2,,,,,,,,,0,,,47,0
48600,note_on,0,0,2,,,,,,,,,0,,,39,0
48600,note_on,0,0,2,,,,,,,,,0,,,39,61
48602,control_change,2,0,2,,,,,,,,,0,64,126,,
48660,note_on,58,0,2,,,,,,,,,0,,,49,39
48660,note_on,0,0,2,,,,,,,,,0,,,51,46
48660,note_on,0,0,2,,,,,,,,,0,,,46,39
48660,note_on,0,0,1,,,,,,,,,0,,,67,52
48660,note_on,60,0,1,,,,,,,,,0,,,64,52
48701,control_change,41,0,2,,,,,,,,,0,64,0,,
48720,note_on,60,0,1,,,,,,,,,0,,,67,0
48720,note_on,0,0,1,,,,,,,,,0,,,64,0
48720,note_on,0,0,1,,,,,,,,,0,,,76,0
48720,note_on,0,0,1,,,,,,,,,0,,,75,83
48720,note_on,0,0,2,,,,,,,,,0,,,51,0
48720,note_on,0,0,2,,,,,,,,,0,,,49,39
48720,note_on,0,0,2,,,,,,,,,0,,,51,46
48720,note_on,0,0,2,,,,,,,,,0,,,49,0
48720,note_on,19,0,2,,,,,,,,,0,,,46,0
48720,set_tempo,122,1,0,,,,,,428571,,,,,,,
48720,note_on,0,0,2,,,,,,,,,0,,,46,39
48722,control_change,2,0,2,,,,,,,,,0,64,127,,
48780,note_on,0,0,2,,,,,,,,,0,,,49,0
48780,note_on,0,0,2,,,,,,,,,0,,,49,39
48780,note_on,0,0,1,,,,,,,,,0,,,67,52
48780,note_on,58,0,2,,,,,,,,,0,,,46,0
48780,note_on,0,0,2,,,,,,,,,0,,,51,46
48780,note_on,0,0,2,,,,,,,,,0,,,46,39
48780,note_on,60,0,1,,,,,,,,,0,,,63,52
48780,note_on,0,0,2,,,,,,,,,0,,,51,0
48836,set_tempo,116,1,0,,,,,,502092,,,,,,,
48840,note_on,0,0,2,,,,,,,,,0,,,46,39
48840,note_on,0,0,2,,,,,,,,,0,,,49,39
48840,note_on,0,0,1,,,,,,,,,0,,,67,52
48840,note_on,0,0,2,,,,,,,,,0,,,51,0
48840,note_on,0,0,2,,,,,,,,,0,,,49,0
48840,note_on,60,0,2,,,,,,,,,0,,,46,0
48840,note_on,0,0,1,,,,,,,,,0,,,63,52
48840,note_on,0,0,1,,,,,,,,,0,,,63,0
48840,note_on,60,0,1,,,,,,,,,0,,,67,0
48840,note_on,0,0,2,,,,,,,,,0,,,51,45
48900,note_on,60,0,2,,,,,,,,,0,,,46,0
48900,note_on,0,0,2,,,,,,,,,0,,,51,0
48900,note_on,60,0,1,,,,,,,,,0,,,67,0
48900,note_on,0,0,1,,,,,,,,,0,,,63,0
48900,note_on,0,0,1,,,,,,,,,0,,,63,52
48900,note_on,0,0,1,,,,,,,,,0,,,67,52
48900,note_on,0,0,2,,,,,,,,,0,,,49,0
48900,note_on,0,0,2,,,,,,,,,0,,,49,39
48900,note_on,0,0,2,,,,,,,,,0,,,51,45
48900,note_on,0,0,2,,,,,,,,,0,,,46,39
48937,control_change,37,0,2,,,,,,,,,0,64,0,,
48958,set_tempo,122,1,0,,,,,,502092,,,,,,,
48960,note_on,0,0,2,,,,,,,,,0,,,49,0
48960,note_on,0,0,1,,,,,,,,,0,,,75,0
48960,note_on,0,0,2,,,,,,,,,0,,,51,0
48960,note_on,0,0,1,,,,,,,,,0,,,63,0
48960,note_on,60,0,1,,,,,,,,,0,,,67,0
48960,note_on,0,0,2,,,,,,,,,0,,,39,0
48960,note_on,0,0,1,,,,,,,,,0,,,68,70
48960,note_on,23,0,2,,,,,,,,,0,,,46,0
48960,note_on,0,0,2,,,,,,,,,0,,,44,52
48985,control_change,25,0,2,,,,,,,,,0,64,127,,
49020,note_on,0,0,2,,,,,,,,,0,,,51,22
49020,note_on,35,0,2,,,,,,,,,0,,,56,26
49020,note_on,0,0,1,,,,,,,,,0,,,63,26
49020,note_on,60,0,1,,,,,,,,,0,,,59,26
49020,set_tempo,62,1,0,,,,,,444444,,,,,,,
49080,note_on,0,0,1,,,,,,,,,0,,,59,0
49080,note_on,0,0,1,,,,,,,,,0,,,59,26
49080,note_on,0,0,1,,,,,,,,,0,,,63,26
49080,note_on,0,0,2,,,,,,,,,0,,,51,22
49080,note_on,0,0,2,,,,,,,,,0,,,56,26
49080,note_on,0,0,2,,,,,,,,,0,,,56,0
49080,note_on,60,0,2,,,,,,,,,0,,,51,0
49080,note_on,60,0,1,,,,,,,,,0,,,63,0
49140,note_on,0,0,2,,,,,,,,,0,,,56,26
49140,note_on,0,0,2,,,,,,,,,0,,,56,0
49140,note_on,0,0,2,,,,,,,,,0,,,51,22
49140,note_on,60,0,2,,,,,,,,,0,,,51,0
49140,note_on,0,0,1,,,,,,,,,0,,,59,26
49140,note_on,0,0,1,,,,,,,,,0,,,63,26
49140,note_on,60,0,1,,,,,,,,,0,,,63,0
49140,note_on,0,0,1,,,,,,,,,0,,,59,0
49200,note_on,0,0,2,,,,,,,,,0,,,56,26
49200,note_on,60,0,1,,,,,,,,,0,,,63,0
49200,note_on,0,0,1,,,,,,,,,0,,,59,0
49200,note_on,0,0,1,,,,,,,,,0,,,59,26
49200,note_on,0,0,1,,,,,,,,,0,,,63,26
49200,note_on,0,0,2,,,,,,,,,0,,,56,0
49200,note_on,60,0,2,,,,,,,,,0,,,51,0
49200,note_on,0,0,2,,,,,,,,,0,,,51,22
49260,note_on,0,0,1,,,,,,,,,0,,,63,26
49260,note_on,0,0,1,,,,,,,,,0,,,59,26
49260,note_on,0,0,1,,,,,,,,,0,,,59,0
49260,note_on,60,0,1,,,,,,,,,0,,,63,0
49260,note_on,60,0,2,,,,,,,,,0,,,51,0
49260,note_on,0,0,2,,,,,,,,,0,,,56,26
49260,note_on,0,0,2,,,,,,,,,0,,,51,22
49260,control_change,0,0,2,,,,,,,,,0,64,0,,
49260,note_on,0,0,2,,,,,,,,,0,,,56,0
49318,control_change,58,0,2,,,,,,,,,0,64,127,,
49320,note_on,0,0,1,,,,,,,,,0,,,59,0
49320,note_on,2,0,2,,,,,,,,,0,,,51,0
49320,note_on,0,0,2,,,,,,,,,0,,,56,0
49320,note_on,0,0,2,,,,,,,,,0,,,51,22
49320,note_on,0,0,2,,,,,,,,,0,,,56,26
49320,note_on,0,0,1,,,,,,,,,0,,,63,26
49320,note_on,0,0,1,,,,,,,,,0,,,59,26
49320,note_on,60,0,1,,,,,,,,,0,,,63,0
49380,note_on,0,0,2,,,,,,,,,0,,,56,26
49380,note_on,0,0,1,,,,,,,,,0,,,59,0
49380,note_on,0,0,1,,,,,,,,,0,,,59,26
49380,note_on,60,0,2,,,,,,,,,0,,,56,0
49380,note_on,0,0,2,,,,,,,,,0,,,51,0
49380,note_on,0,0,2,,,,,,,,,0,,,51,22
49380,note_on,60,0,1,,,,,,,,,0,,,63,0
49380,note_on,0,0,1,,,,,,,,,0,,,63,26
49440,note_on,60,0,2,,,,,,,,,0,,,56,0
49440,note_on,0,0,2,,,,,,,,,0,,,51,0
49440,note_on,0,0,2,,,,,,,,,0,,,44,0
49440,note_on,0,0,2,,,,,,,,,0,,,44,26
49440,note_on,60,0,1,,,,,,,,,0,,,63,0
49440,note_on,0,0,1,,,,,,,,,0,,,59,0
49440,note_on,0,0,1,,,,,,,,,0,,,68,0
49440,note_on,0,0,1,,,,,,,,,0,,,68,48
49500,note_on,0,0,2,,,,,,,,,0,,,56,26
49500,note_on,60,0,1,,,,,,,,,0,,,59,26
49500,note_on,0,0,1,,,,,,,,,0,,,63,26
49500,note_on,60,0,2,,,,,,,,,0,,,51,22
49557,set_tempo,537,1,0,,,,,,547945,,,,,,,
49560,note_on,0,0,2,,,,,,,,,0,,,44,0
49560,note_on,0,0,2,,,,,,,,,0,,,44,26
49560,note_on,0,0,1,,,,,,,,,0,,,68,42
49560,note_on,0,0,1,,,,,,,,,0,,,68,0
49560,note_on,0,0,1,,,,,,,,,0,,,59,0
49560,note_on,60,0,1,,,,,,,,,0,,,63,0
49560,note_on,60,0,2,,,,,,,,,0,,,56,0
49560,note_on,0,0,2,,,,,,,,,0,,,51,0
49620,note_on,60,0,1,,,,,,,,,0,,,59,26
49620,note_on,0,0,1,,,,,,,,,0,,,63,26
49620,note_on,0,0,2,,,,,,,,,0,,,56,26
49620,note_on,60,0,2,,,,,,,,,0,,,51,22
49658,control_change,38,0,2,,,,,,,,,0,64,0,,
49680,note_on,22,0,2,,,,,,,,,0,,,56,0
49680,note_on,0,0,2,,,,,,,,,0,,,51,0
49680,note_on,0,0,1,,,,,,,,,0,,,68,0
49680,note_on,0,0,1,,,,,,,,,0,,,68,59
49680,note_on,0,0,2,,,,,,,,,0,,,44,0
49680,note_on,0,0,1,,,,,,,,,0,,,59,0
49680,note_on,60,0,1,,,,,,,,,0,,,63,0
49680,set_tempo,123,1,0,,,,,,481928,,,,,,,
49680,note_on,0,0,2,,,,,,,,,0,,,32,26
49682,control_change,2,0,2,,,,,,,,,0,64,125,,
49740,note_on,58,0,2,,,,,,,,,0,,,32,0
49740,note_on,60,0,1,,,,,,,,,0,,,63,26
49740,note_on,0,0,2,,,,,,,,,0,,,54,26
49740,note_on,0,0,1,,,,,,,,,0,,,60,26
49740,note_on,0,0,2,,,,,,,,,0,,,44,22
49740,note_on,0,0,2,,,,,,,,,0,,,51,22
49789,control_change,49,0,2,,,,,,,,,0,64,1,,
49800,note_on,0,0,2,,,,,,,,,0,,,54,0
49800,note_on,0,0,1,,,,,,,,,0,,,69,61
49800,note_on,0,0,1,,,,,,,,,0,,,68,0
49800,note_on,0,0,1,,,,,,,,,0,,,63,0
49800,note_on,11,0,2,,,,,,,,,0,,,44,0
49800,note_on,0,0,2,,,,,,,,,0,,,51,0
49800,note_on,0,0,2,,,,,,,,,0,,,54,26
49800,note_on,0,0,2,,,,,,,,,0,,,51,22
49800,note_on,0,0,2,,,,,,,,,0,,,44,22
49800,note_on,60,0,1,,,,,,,,,0,,,60,0
49802,set_tempo,122,1,0,,,,,,444444,,,,,,,
49811,control_change,11,0,2,,,,,,,,,0,64,126,,
49860,note_on,0,0,1,,,,,,,,,0,,,63,26
49860,note_on,60,0,1,,,,,,,,,0,,,60,26
49860,note_on,0,0,2,,,,,,,,,0,,,54,0
49860,note_on,0,0,2,,,,,,,,,0,,,51,0
49860,note_on,0,0,2,,,,,,,,,0,,,44,22
49860,note_on,49,0,2,,,,,,,,,0,,,44,0
49860,note_on,0,0,2,,,,,,,,,0,,,51,22
49860,note_on,0,0,2,,,,,,,,,0,,,54,26
49920,note_on,60,0,1,,,,,,,,,0,,,63,0
49920,note_on,0,0,1,,,,,,,,,0,,,63,26
49920,note_on,0,0,1,,,,,,,,,0,,,60,26
49920,note_on,0,0,1,,,,,,,,,0,,,60,0
49920,note_on,0,0,2,,,,,,,,,0,,,54,26
49920,note_on,0,0,2,,,,,,,,,0,,,44,22
49920,note_on,0,0,2,,,,,,,,,0,,,54,0
49920,note_on,0,0,2,,,,,,,,,0,,,51,0
49920,note_on,60,0,2,,,,,,,,,0,,,44,0
49920,note_on,0,0,2,,,,,,,,,0,,,51,22
49980,note_on,0,0,2,,,,,,,,,0,,,51,0
49980,note_on,60,0,1,,,,,,,,,0,,,63,0
49980,note_on,0,0,1,,,,,,,,,0,,,60,0
49980,note_on,0,0,1,,,,,,,,,0,,,60,26
49980,note_on,0,0,1,,,,,,,,,0,,,63,26
49980,note_on,60,0,2,,,,,,,,,0,,,54,0
49980,note_on,0,0,2,,,,,,,,,0,,,44,0
49980,note_on,0,0,2,,,,,,,,,0,,,51,22
49980,note_on,0,0,2,,,,,,,,,0,,,44,22
49980,note_on,0,0,2,,,,,,,,,0,,,54,26
50040,note_on,0,0,1,,,,,,,,,0,,,60,0
50040,note_on,0,0,1,,,,,,,,,0,,,63,26
50040,note_on,0,0,2,,,,,,,,,0,,,54,26
50040,note_on,0,0,2,,,,,,,,,0,,,51,22
50040,note_on,0,0,2,,,,,,,,,0,,,44,22
50040,note_on,0,0,2,,,,,,,,,0,,,51,0
50040,note_on,0,0,2,,,,,,,,,0,,,44,0
50040,note_on,60,0,2,,,,,,,,,0,,,54,0
50040,note_on,0,0,1,,,,,,,,,0,,,60,26
50040,note_on,60,0,1,,,,,,,,,0,,,63,0
50100,note_on,60,0,2,,,,,,,,,0,,,54,0
50100,note_on,0,0,2,,,,,,,,,0,,,51,0
50100,note_on,0,0,2,,,,,,,,,0,,,44,0
50100,note_on,0,0,2,,,,,,,,,0,,,44,22
50100,note_on,60,0,1,,,,,,,,,0,,,63,0
50100,note_on,0,0,1,,,,,,,,,0,,,60,0
50100,note_on,0,0,1,,,,,,,,,0,,,60,26
50100,note_on,0,0,1,,,,,,,,,0,,,63,26
50100,note_on,0,0,2,,,,,,,,,0,,,51,22
50100,note_on,0,0,2,,,,,,,,,0,,,54,26
50160,note_on,60,0,1,,,,,,,,,0,,,63,0
50160,note_on,0,0,1,,,,,,,,,0,,,60,0
50160,note_on,0,0,2,,,,,,,,,0,,,44,22
50160,note_on,0,0,2,,,,,,,,,0,,,51,22
50160,note_on,0,0,2,,,,,,,,,0,,,54,26
50160,note_on,0,0,2,,,,,,,,,0,,,54,0
50160,note_on,0,0,2,,,,,,,,,0,,,51,0
50160,note_on,0,0,1,,,,,,,,,0,,,69,0
50160,note_on,0,0,1,,,,,,,,,0,,,68,60
50160,note_on,60,0,2,,,,,,,,,0,,,44,0
50220,note_on,60,0,1,,,,,,,,,0,,,60,26
50220,note_on,60,0,2,,,,,,,,,0,,,44,0
50220,note_on,0,0,2,,,,,,,,,0,,,51,0
50220,note_on,0,0,2,,,,,,,,,0,,,54,0
50220,note_on,0,0,2,,,,,,,,,0,,,54,26
50220,note_on,0,0,2,,,,,,,,,0,,,51,22
50220,note_on,0,0,2,,,,,,,,,0,,,44,22
50220,note_on,0,0,1,,,,,,,,,0,,,63,26
50280,note_on,0,0,1,,,,,,,,,0,,,60,0
50280,note_on,0,0,2,,,,,,,,,0,,,44,22
50280,note_on,0,0,2,,,,,,,,,0,,,51,22
50280,note_on,0,0,2,,,,,,,,,0,,,54,26
50280,note_on,0,0,1,,,,,,,,,0,,,66,56
50280,note_on,0,0,2,,,,,,,,,0,,,54,0
50280,note_on,0,0,2,,,,,,,,,0,,,51,0
50280,note_on,60,0,2,,,,,,,,,0,,,44,0
50280,note_on,60,0,1,,,,,,,,,0,,,63,0
50280,note_on,0,0,1,,,,,,,,,0,,,68,0
50340,note_on,0,0,2,,,,,,,,,0,,,44,0
50340,note_on,0,0,2,,,,,,,,,0,,,51,0
50340,note_on,60,0,2,,,,,,,,,0,,,54,0
50340,note_on,0,0,2,,,,,,,,,0,,,54,26
50340,note_on,0,0,2,,,,,,,,,0,,,51,22
50340,note_on,0,0,2,,,,,,,,,0,,,44,22
50340,note_on,0,0,1,,,,,,,,,0,,,63,26
50340,note_on,60,0,1,,,,,,,,,0,,,60,34
50369,control_change,29,0,2,,,,,,,,,0,64,0,,
50400,note_on,0,0,1,,,,,,,,,0,,,60,0
50400,note_on,60,0,1,,,,,,,,,0,,,63,0
50400,note_on,0,0,2,,,,,,,,,0,,,32,26
50400,note_on,0,0,2,,,,,,,,,0,,,51,0
50400,note_on,0,0,2,,,,,,,,,0,,,44,0
50400,note_on,31,0,2,,,,,,,,,0,,,54,0
50400,set_tempo,598,1,0,,,,,,428571,,,,,,,
50400,note_on,0,0,1,,,,,,,,,0,,,64,70
50400,note_on,0,0,1,,,,,,,,,0,,,66,0
50402,control_change,2,0,2,,,,,,,,,0,64,127,,
50460,note_on,0,0,2,,,,,,,,,0,,,49,22
50460,note_on,0,0,1,,,,,,,,,0,,,61,26
50460,note_on,60,0,1,,,,,,,,,0,,,56,26
50460,note_on,58,0,2,,,,,,,,,0,,,32,0
50460,note_on,0,0,2,,,,,,,,,0,,,52,26
50460,note_on,0,0,2,,,,,,,,,0,,,44,22
50520,note_on,0,0,2,,,,,,,,,0,,,52,28
50520,note_on,0,0,1,,,,,,,,,0,,,68,64
50520,note_on,0,0,1,,,,,,,,,0,,,64,0
50520,note_on,0,0,1,,,,,,,,,0,,,56,0
50520,note_on,60,0,1,,,,,,,,,0,,,61,0
50520,note_on,0,0,2,,,,,,,,,0,,,49,24
50520,note_on,0,0,2,,,,,,,,,0,,,44,24
50520,note_on,0,0,2,,,,,,,,,0,,,52,0
50520,note_on,0,0,2,,,,,,,,,0,,,49,0
50520,note_on,60,0,2,,,,,,,,,0,,,44,0
50580,note_on,60,0,1,,,,,,,,,0,,,64,29
50580,note_on,0,0,1,,,,,,,,,0,,,61,29
50580,note_on,0,0,2,,,,,,,,,0,,,49,24
50580,note_on,60,0,2,,,,,,,,,0,,,52,0
50580,note_on,0,0,2,,,,,,,,,0,,,49,0
50580,note_on,0,0,2,,,,,,,,,0,,,44,0
50580,note_on,0,0,2,,,,,,,,,0,,,44,24
50580,note_on,0,0,2,,,,,,,,,0,,,52,29
50640,note_on,0,0,1,,,,,,,,,0,,,68,0
50640,note_on,0,0,1,,,,,,,,,0,,,73,68
50640,note_on,60,0,1,,,,,,,,,0,,,61,0
50640,note_on,0,0,1,,,,,,,,,0,,,64,0
50640,note_on,0,0,2,,,,,,,,,0,,,52,30
50640,note_on,0,0,2,,,,,,,,,0,,,44,0
50640,note_on,0,0,2,,,,,,,,,0,,,44,26
50640,note_on,0,0,2,,,,,,,,,0,,,49,0
50640,note_on,60,0,2,,,,,,,,,0,,,52,0
50640,note_on,0,0,2,,,,,,,,,0,,,49,26
50700,note_on,60,0,1,,,,,,,,,0,,,64,31
50700,note_on,0,0,1,,,,,,,,,0,,,68,31
50700,note_on,0,0,2,,,,,,,,,0,,,52,31
50700,note_on,0,0,2,,,,,,,,,0,,,44,26
50700,note_on,0,0,2,,,,,,,,,0,,,44,0
50700,note_on,0,0,2,,,,,,,,,0,,,49,0
50700,note_on,0,0,2,,,,,,,,,0,,,49,26
50700,note_on,60,0,2,,,,,,,,,0,,,52,0
50760,note_on,60,0,1,,,,,,,,,0,,,68,0
50760,note_on,0,0,1,,,,,,,,,0,,,64,0
50760,note_on,0,0,1,,,,,,,,,0,,,73,0
50760,note_on,0,0,2,,,,,,,,,0,,,52,0
50760,note_on,0,0,2,,,,,,,,,0,,,44,0
50760,note_on,60,0,2,,,,,,,,,0,,,49,0
50760,note_on,0,0,2,,,,,,,,,0,,,49,28
50760,note_on,0,0,2,,,,,,,,,0,,,52,34
50760,note_on,0,0,1,,,,,,,,,0,,,76,77
50760,note_on,0,0,2,,,,,,,,,0,,,44,28
50820,note_on,60,0,1,,,,,,,,,0,,,68,34
50820,note_on,0,0,1,,,,,,,,,0,,,73,34
50820,note_on,60,0,2,,,,,,,,,0,,,52,0
50820,note_on,0,0,2,,,,,,,,,0,,,49,0
50820,note_on,0,0,2,,,,,,,,,0,,,44,0
50820,note_on,0,0,2,,,,,,,,,0,,,49,29
50820,note_on,0,0,2,,,,,,,,,0,,,44,29
50820,note_on,0,0,2,,,,,,,,,0,,,52,35
50880,note_on,0,0,1,,,,,,,,,0,,,76,0
50880,note_on,0,0,1,,,,,,,,,0,,,80,75
50880,note_on,0,0,2,,,,,,,,,0,,,52,36
50880,note_on,0,0,2,,,,,,,,,0,,,49,30
50880,note_on,0,0,2,,,,,,,,,0,,,44,0
50880,note_on,0,0,2,,,,,,,,,0,,,49,0
50880,note_on,0,0,1,,,,,,,,,0,,,68,0
50880,note_on,60,0,2,,,,,,,,,0,,,52,0
50880,note_on,0,0,2,,,,,,,,,0,,,44,30
50880,note_on,60,0,1,,,,,,,,,0,,,73,0
50940,note_on,0,0,1,,,,,,,,,0,,,76,37
50940,note_on,60,0,1,,,,,,,,,0,,,73,37
50940,note_on,60,0,2,,,,,,,,,0,,,52,0
50940,note_on,0,0,2,,,,,,,,,0,,,44,30
50940,note_on,0,0,2,,,,,,,,,0,,,52,37
50940,note_on,0,0,2,,,,,,,,,0,,,44,0
50940,note_on,0,0,2,,,,,,,,,0,,,49,0
50940,note_on,0,0,2,,,,,,,,,0,,,49,30
51000,note_on,0,0,1,,,,,,,,,0,,,80,0
51000,note_on,60,0,1,,,,,,,,,0,,,76,0
51000,note_on,0,0,1,,,,,,,,,0,,,85,79
51000,note_on,0,0,1,,,,,,,,,0,,,73,0
51000,note_on,0,0,2,,,,,,,,,0,,,44,33
51000,note_on,0,0,2,,,,,,,,,0,,,52,39
51000,note_on,0,0,2,,,,,,,,,0,,,52,0
51000,note_on,0,0,2,,,,,,,,,0,,,44,0
51000,note_on,60,0,2,,,,,,,,,0,,,49,0
51000,note_on,0,0,2,,,,,,,,,0,,,49,33
51060,note_on,60,0,2,,,,,,,,,0,,,52,0
51060,note_on,0,0,2,,,,,,,,,0,,,49,0
51060,note_on,0,0,2,,,,,,,,,0,,,44,0
51060,note_on,60,0,1,,,,,,,,,0,,,76,39
51060,note_on,0,0,1,,,,,,,,,0,,,80,39
51060,note_on,0,0,2,,,,,,,,,0,,,52,39
51060,note_on,0,0,2,,,,,,,,,0,,,44,34
51060,note_on,0,0,2,,,,,,,,,0,,,49,34
51102,control_change,42,0,2,,,,,,,,,0,64,0,,
51120,note_on,0,0,1,,,,,,,,,0,,,87,99
51120,note_on,18,0,2,,,,,,,,,0,,,49,0
51120,note_on,0,0,2,,,,,,,,,0,,,44,0
51120,note_on,0,0,2,,,,,,,,,0,,,52,0
51120,note_on,0,0,2,,,,,,,,,0,,,33,47
51120,set_tempo,720,1,0,,,,,,478088,,,,,,,
51120,note_on,60,0,1,,,,,,,,,0,,,80,0
51120,note_on,0,0,1,,,,,,,,,0,,,76,0
51120,note_on,0,0,1,,,,,,,,,0,,,85,0
51122,control_change,2,0,2,,,,,,,,,0,64,125,,
51180,note_on,0,0,2,,,,,,,,,0,,,49,35
51180,note_on,60,0,1,,,,,,,,,0,,,75,51
51180,note_on,0,0,1,,,,,,,,,0,,,79,51
51180,note_on,58,0,2,,,,,,,,,0,,,33,0
51180,note_on,0,0,2,,,,,,,,,0,,,52,42
51180,note_on,0,0,2,,,,,,,,,0,,,45,35
51226,control_change,46,0,2,,,,,,,,,0,64,0,,
51237,set_tempo,117,1,0,,,,,,444444,,,,,,,
51240,note_on,0,0,2,,,,,,,,,0,,,52,45
51240,note_on,0,0,2,,,,,,,,,0,,,49,38
51240,note_on,0,0,2,,,,,,,,,0,,,49,0
51240,note_on,0,0,2,,,,,,,,,0,,,45,38
51240,note_on,0,0,2,,,,,,,,,0,,,52,0
51240,note_on,14,0,2,,,,,,,,,0,,,45,0
51240,note_on,60,0,1,,,,,,,,,0,,,79,0
51240,note_on,0,0,1,,,,,,,,,0,,,75,0
51240,note_on,0,0,1,,,,,,,,,0,,,87,0
51240,note_on,0,0,1,,,,,,,,,0,,,88,96
51260,control_change,20,0,2,,,,,,,,,0,64,126,,
51300,note_on,0,0,2,,,,,,,,,0,,,45,36
51300,note_on,0,0,2,,,,,,,,,0,,,52,44
51300,note_on,60,0,1,,,,,,,,,0,,,79,45
51300,note_on,0,0,1,,,,,,,,,0,,,76,45
51300,note_on,0,0,2,,,,,,,,,0,,,45,0
51300,note_on,0,0,2,,,,,,,,,0,,,49,0
51300,note_on,40,0,2,,,,,,,,,0,,,52,0
51300,note_on,0,0,2,,,,,,,,,0,,,49,36
51360,note_on,0,0,2,,,,,,,,,0,,,49,34
51360,note_on,0,0,1,,,,,,,,,0,,,76,40
51360,note_on,0,0,2,,,,,,,,,0,,,52,40
51360,note_on,0,0,1,,,,,,,,,0,,,79,40
51360,note_on,0,0,1,,,,,,,,,0,,,79,0
51360,note_on,60,0,1,,,,,,,,,0,,,76,0
51360,note_on,0,0,2,,,,,,,,,0,,,52,0
51360,note_on,0,0,2,,,,,,,,,0,,,45,0
51360,note_on,60,0,2,,,,,,,,,0,,,49,0
51360,note_on,0,0,2,,,,,,,,,0,,,45,34
51420,note_on,60,0,2,,,,,,,,,0,,,49,0
51420,note_on,0,0,2,,,,,,,,,0,,,52,0
51420,note_on,0,0,2,,,,,,,,,0,,,52,39
51420,note_on,0,0,2,,,,,,,,,0,,,45,0
51420,note_on,0,0,1,,,,,,,,,0,,,76,39
51420,note_on,0,0,2,,,,,,,,,0,,,49,33
51420,note_on,60,0,1,,,,,,,,,0,,,76,0
51420,note_on,0,0,1,,,,,,,,,0,,,79,0
51420,note_on,0,0,1,,,,,,,,,0,,,79,39
51420,note_on,0,0,2,,,,,,,,,0,,,45,33
51480,note_on,0,0,1,,,,,,,,,0,,,76,37
51480,note_on,60,0,1,,,,,,,,,0,,,76,0
51480,note_on,60,0,2,,,,,,,,,0,,,49,0
51480,note_on,0,0,2,,,,,,,,,0,,,45,0
51480,note_on,0,0,2,,,,,,,,,0,,,52,0
51480,note_on,0,0,2,,,,,,,,,0,,,52,37
51480,note_on,0,0,2,,,,,,,,,0,,,49,30
51480,note_on,0,0,2,,,,,,,,,0,,,45,30
51480,note_on,0,0,1,,,,,,,,,0,,,79,0
51480,note_on,0,0,1,,,,,,,,,0,,,79,37
51540,note_on,60,0,2,,,,,,,,,0,,,49,0
51540,note_on,0,0,2,,,,,,,,,0,,,45,0
51540,note_on,0,0,2,,,,,,,,,0,,,52,0
51540,note_on,0,0,1,,,,,,,,,0,,,79,0
51540,note_on,0,0,2,,,,,,,,,0,,,52,35
51540,note_on,0,0,2,,,,,,,,,0,,,49,29
51540,note_on,0,0,1,,,,,,,,,0,,,76,37
51540,note_on,0,0,2,,,,,,,,,0,,,45,29
51540,note_on,60,0,1,,,,,,,,,0,,,76,0
51540,note_on,0,0,1,,,,,,,,,0,,,79,37
51583,control_change,43,0,2,,,,,,,,,0,64,0,,
51600,note_on,0,0,2,,,,,,,,,0,,,51,34
51600,note_on,0,0,2,,,,,,,,,0,,,45,0
51600,note_on,0,0,2,,,,,,,,,0,,,49,0
51600,note_on,17,0,2,,,,,,,,,0,,,52,0
51600,note_on,0,0,2,,,,,,,,,0,,,45,28
51600,note_on,0,0,1,,,,,,,,,0,,,87,88
51600,note_on,0,0,1,,,,,,,,,0,,,88,0
51600,note_on,0,0,1,,,,,,,,,0,,,76,0
51600,note_on,60,0,1,,,,,,,,,0,,,79,0
51612,control_change,12,0,2,,,,,,,,,0,64,126,,
51660,note_on,0,0,1,,,,,,,,,0,,,79,31
51660,note_on,60,0,1,,,,,,,,,0,,,75,31
51660,note_on,48,0,2,,,,,,,,,0,,,45,0
51660,note_on,0,0,2,,,,,,,,,0,,,51,0
51660,note_on,0,0,2,,,,,,,,,0,,,51,31
51660,note_on,0,0,2,,,,,,,,,0,,,45,26
51717,set_tempo,480,1,0,,,,,,487805,,,,,,,
51720,note_on,0,0,2,,,,,,,,,0,,,45,25
51720,note_on,0,0,1,,,,,,,,,0,,,87,0
51720,note_on,60,0,2,,,,,,,,,0,,,45,0
51720,note_on,0,0,2,,,,,,,,,0,,,51,0
51720,note_on,0,0,2,,,,,,,,,0,,,51,30
51720,note_on,0,0,1,,,,,,,,,0,,,75,0
51720,note_on,0,0,1,,,,,,,,,0,,,85,81
51720,note_on,60,0,1,,,,,,,,,0,,,79,0
51780,note_on,0,0,2,,,,,,,,,0,,,51,28
51780,note_on,0,0,2,,,,,,,,,0,,,51,0
51780,note_on,60,0,2,,,,,,,,,0,,,45,0
51780,note_on,60,0,1,,,,,,,,,0,,,73,28
51780,note_on,0,0,1,,,,,,,,,0,,,79,28
51780,note_on,0,0,2,,,,,,,,,0,,,45,24
51815,control_change,35,0,2,,,,,,,,,0,64,0,,
51837,set_tempo,120,1,0,,,,,,428571,,,,,,,
51840,note_on,60,0,1,,,,,,,,,0,,,79,0
51840,note_on,0,0,1,,,,,,,,,0,,,73,0
51840,note_on,0,0,1,,,,,,,,,0,,,85,0
51840,note_on,0,0,1,,,,,,,,,0,,,85,68
51840,note_on,25,0,2,,,,,,,,,0,,,45,0
51840,note_on,0,0,2,,,,,,,,,0,,,32,26
51840,note_on,0,0,2,,,,,,,,,0,,,51,0
51843,control_change,3,0,2,,,,,,,,,0,64,126,,
51900,note_on,0,0,1,,,,,,,,,0,,,80,26
51900,note_on,60,0,1,,,,,,,,,0,,,75,26
51900,note_on,57,0,2,,,,,,,,,0,,,32,0
51900,note_on,0,0,2,,,,,,,,,0,,,44,26
51960,note_on,0,0,1,,,,,,,,,0,,,84,59
51960,note_on,0,0,2,,,,,,,,,0,,,44,22
51960,note_on,0,0,2,,,,,,,,,0,,,51,26
51960,note_on,60,0,2,,,,,,,,,0,,,44,0
51960,note_on,60,0,1,,,,,,,,,0,,,80,0
51960,note_on,0,0,1,,,,,,,,,0,,,85,0
51960,note_on,0,0,2,,,,,,,,,0,,,48,22
51960,note_on,0,0,1,,,,,,,,,0,,,75,0
52020,note_on,60,0,2,,,,,,,,,0,,,44,0
52020,note_on,0,0,2,,,,,,,,,0,,,51,0
52020,note_on,0,0,2,,,,,,,,,0,,,48,0
52020,note_on,0,0,2,,,,,,,,,0,,,51,26
52020,note_on,0,0,2,,,,,,,,,0,,,48,22
52020,note_on,60,0,1,,,,,,,,,0,,,75,26
52020,note_on,0,0,2,,,,,,,,,0,,,44,22
52020,note_on,0,0,1,,,,,,,,,0,,,80,26
52080,note_on,60,0,1,,,,,,,,,0,,,80,0
52080,note_on,60,0,2,,,,,,,,,0,,,44,0
52080,note_on,0,0,2,,,,,,,,,0,,,44,22
52080,note_on,0,0,2,,,,,,,,,0,,,48,22
52080,note_on,0,0,2,,,,,,,,,0,,,48,0
52080,note_on,0,0,2,,,,,,,,,0,,,51,26
52080,note_on,0,0,1,,,,,,,,,0,,,80,58
52080,note_on,0,0,1,,,,,,,,,0,,,84,0
52080,note_on,0,0,1,,,,,,,,,0,,,75,0
52080,note_on,0,0,2,,,,,,,,,0,,,51,0
52140,note_on,0,0,1,,,,,,,,,0,,,75,26
52140,note_on,60,0,1,,,,,,,,,0,,,72,26
52140,note_on,0,0,2,,,,,,,,,0,,,44,22
52140,note_on,60,0,2,,,,,,,,,0,,,44,0
52140,note_on,0,0,2,,,,,,,,,0,,,51,0
52140,note_on,0,0,2,,,,,,,,,0,,,48,0
52140,note_on,0,0,2,,,,,,,,,0,,,48,22
52140,note_on,0,0,2,,,,,,,,,0,,,51,26
52200,note_on,0,0,2,,,,,,,,,0,,,48,0
52200,note_on,0,0,2,,,,,,,,,0,,,51,0
52200,note_on,0,0,2,,,,,,,,,0,,,51,26
52200,note_on,0,0,2,,,,,,,,,0,,,44,22
52200,note_on,0,0,1,,,,,,,,,0,,,75,58
52200,note_on,0,0,1,,,,,,,,,0,,,80,0
52200,note_on,0,0,1,,,,,,,,,0,,,72,0
52200,note_on,60,0,1,,,,,,,,,0,,,75,0
52200,note_on,60,0,2,,,,,,,,,0,,,44,0
52200,note_on,0,0,2,,,,,,,,,0,,,48,22
52260,note_on,60,0,1,,,,,,,,,0,,,68,26
52260,note_on,0,0,1,,,,,,,,,0,,,72,26
52260,note_on,0,0,2,,,,,,,,,0,,,51,0
52260,note_on,0,0,2,,,,,,,,,0,,,48,0
52260,note_on,0,0,2,,,,,,,,,0,,,48,22
52260,note_on,0,0,2,,,,,,,,,0,,,51,26
52260,note_on,0,0,2,,,,,,,,,0,,,44,22
52260,note_on,60,0,2,,,,,,,,,0,,,44,0
52320,note_on,60,0,1,,,,,,,,,0,,,72,0
52320,note_on,0,0,1,,,,,,,,,0,,,72,58
52320,note_on,0,0,2,,,,,,,,,0,,,44,22
52320,note_on,0,0,2,,,,,,,,,0,,,51,26
52320,note_on,0,0,2,,,,,,,,,0,,,48,0
52320,note_on,0,0,1,,,,,,,,,0,,,75,0
52320,note_on,0,0,2,,,,,,,,,0,,,51,0
52320,note_on,60,0,2,,,,,,,,,0,,,44,0
52320,note_on,0,0,2,,,,,,,,,0,,,48,22
52320,note_on,0,0,1,,,,,,,,,0,,,68,0
52380,note_on,0,0,1,,,,,,,,,0,,,68,26
52380,note_on,60,0,1,,,,,,,,,0,,,63,26
52380,note_on,0,0,2,,,,,,,,,0,,,44,22
52380,note_on,0,0,2,,,,,,,,,0,,,48,0
52380,note_on,60,0,2,,,,,,,,,0,,,44,0
52380,note_on,0,0,2,,,,,,,,,0,,,51,26
52380,note_on,0,0,2,,,,,,,,,0,,,48,22
52380,note_on,0,0,2,,,,,,,,,0,,,51,0
52440,note_on,0,0,1,,,,,,,,,0,,,68,58
52440,note_on,0,0,1,,,,,,,,,0,,,72,0
52440,note_on,0,0,1,,,,,,,,,0,,,63,0
52440,note_on,60,0,1,,,,,,,,,0,,,68,0
52440,note_on,0,0,2,,,,,,,,,0,,,51,0
52440,note_on,0,0,2,,,,,,,,,0,,,44,22
52440,note_on,0,0,2,,,,,,,,,0,,,51,26
52440,note_on,0,0,2,,,,,,,,,0,,,48,22
52440,note_on,0,0,2,,,,,,,,,0,,,48,0
52440,note_on,60,0,2,,,,,,,,,0,,,44,0
52500,note_on,60,0,1,,,,,,,,,0,,,60,26
52500,note_on,0,0,1,,,,,,,,,0,,,63,26
52500,note_on,60,0,2,,,,,,,,,0,,,44,0
52500,note_on,0,0,2,,,,,,,,,0,,,51,0
52500,note_on,0,0,2,,,,,,,,,0,,,48,0
52500,note_on,0,0,2,,,,,,,,,0,,,48,22
52500,note_on,0,0,2,,,,,,,,,0,,,51,26
52500,note_on,0,0,2,,,,,,,,,0,,,44,22
52532,control_change,32,0,2,,,,,,,,,0,64,0,,
52557,set_tempo,720,1,0,,,,,,480000,,,,,,,
52560,control_change,0,0,2,,,,,,,,,0,64,124,,
52560,set_tempo,3,1,0,,,,,,519481,,,,,,,
52560,note_on,0,0,2,,,,,,,,,0,,,51,0
52560,note_on,0,0,2,,,,,,,,,0,,,48,0
52560,note_on,60,0,1,,,,,,,,,0,,,63,0
52560,note_on,0,0,1,,,,,,,,,0,,,60,0
52560,note_on,0,0,2,,,,,,,,,0,,,32,26
52560,note_on,0,0,1,,,,,,,,,0,,,68,0
52560,note_on,0,0,1,,,,,,,,,0,,,68,59
52560,note_on,28,0,2,,,,,,,,,0,,,44,0
52620,note_on,60,0,1,,,,,,,,,0,,,63,26
52620,note_on,0,0,1,,,,,,,,,0,,,60,26
52620,note_on,0,0,2,,,,,,,,,0,,,44,22
52620,note_on,0,0,2,,,,,,,,,0,,,51,22
52620,note_on,0,0,2,,,,,,,,,0,,,54,26
52620,note_on,60,0,2,,,,,,,,,0,,,32,0
52654,control_change,34,0,2,,,,,,,,,0,64,0,,
52677,control_change,23,0,2,,,,,,,,,0,64,126,,
52680,note_on,0,0,2,,,,,,,,,0,,,51,22
52680,note_on,0,0,2,,,,,,,,,0,,,54,26
52680,note_on,0,0,2,,,,,,,,,0,,,54,0
52680,note_on,0,0,2,,,,,,,,,0,,,51,0
52680,note_on,3,0,2,,,,,,,,,0,,,44,0
52680,set_tempo,120,1,0,,,,,,444444,,,,,,,
52680,note_on,0,0,2,,,,,,,,,0,,,44,22
52680,note_on,0,0,1,,,,,,,,,0,,,63,0
52680,note_on,0,0,1,,,,,,,,,0,,,68,0
52680,note_on,0,0,1,,,,,,,,,0,,,69,61
52680,note_on,60,0,1,,,,,,,,,0,,,60,0
52740,note_on,0,0,2,,,,,,,,,0,,,51,22
52740,note_on,0,0,2,,,,,,,,,0,,,44,22
52740,note_on,0,0,2,,,,,,,,,0,,,54,26
52740,note_on,0,0,2,,,,,,,,,0,,,54,0
52740,note_on,0,0,2,,,,,,,,,0,,,51,0
52740,note_on,0,0,1,,,,,,,,,0,,,63,26
52740,note_on,60,0,1,,,,,,,,,0,,,60,26
52740,note_on,60,0,2,,,,,,,,,0,,,44,0
52800,note_on,0,0,2,,,,,,,,,0,,,51,22
52800,note_on,0,0,2,,,,,,,,,0,,,54,0
52800,note_on,0,0,2,,,,,,,,,0,,,51,0
52800,note_on,60,0,2,,,,,,,,,0,,,44,0
52800,note_on,0,0,2,,,,,,,,,0,,,54,26
52800,note_on,0,0,2,,,,,,,,,0,,,44,22
52800,note_on,0,0,1,,,,,,,,,0,,,63,26
52800,note_on,60,0,1,,,,,,,,,0,,,63,0
52800,note_on,0,0,1,,,,,,,,,0,,,60,0
52800,note_on,0,0,1,,,,,,,,,0,,,60,26
52860,note_on,60,0,2,,,,,,,,,0,,,54,0
52860,note_on,0,0,2,,,,,,,,,0,,,44,0
52860,note_on,60,0,1,,,,,,,,,0,,,63,0
52860,note_on,0,0,1,,,,,,,,,0,,,60,0
52860,note_on,0,0,1,,,,,,,,,0,,,60,26
52860,note_on,0,0,2,,,,,,,,,0,,,51,0
52860,note_on,0,0,2,,,,,,,,,0,,,51,22
52860,note_on,0,0,1,,,,,,,,,0,,,63,26
52860,note_on,0,0,2,,,,,,,,,0,,,54,26
52860,note_on,0,0,2,,,,,,,,,0,,,44,22
52920,note_on,0,0,2,,,,,,,,,0,,,54,26
52920,note_on,0,0,1,,,,,,,,,0,,,63,26
52920,note_on,0,0,2,,,,,,,,,0,,,51,22
52920,note_on,0,0,2,,,,,,,,,0,,,44,22
52920,note_on,60,0,1,,,,,,,,,0,,,63,0
52920,note_on,60,0,2,,,,,,,,,0,,,54,0
52920,note_on,0,0,2,,,,,,,,,0,,,44,0
52920,note_on,0,0,1,,,,,,,,,0,,,60,26
52920,note_on,0,0,1,,,,,,,,,0,,,60,0
52920,note_on,0,0,2,,,,,,,,,0,,,51,0
52980,note_on,0,0,2,,,,,,,,,0,,,54,26
52980,note_on,60,0,2,,,,,,,,,0,,,54,0
52980,note_on,0,0,2,,,,,,,,,0,,,51,0
52980,note_on,0,0,2,,,,,,,,,0,,,44,0
52980,note_on,0,0,2,,,,,,,,,0,,,51,22
52980,note_on,60,0,1,,,,,,,,,0,,,63,0
52980,note_on,0,0,1,,,,,,,,,0,,,63,26
52980,note_on,0,0,1,,,,,,,,,0,,,60,26
52980,note_on,0,0,1,,,,,,,,,0,,,60,0
52980,note_on,0,0,2,,,,,,,,,0,,,44,22
53020,control_change,40,0,2,,,,,,,,,0,64,0,,
53040,note_on,20,0,2,,,,,,,,,0,,,44,0
53040,note_on,0,0,2,,,,,,,,,0,,,51,0
53040,note_on,0,0,2,,,,,,,,,0,,,54,0
53040,note_on,0,0,2,,,,,,,,,0,,,54,26
53040,note_on,0,0,2,,,,,,,,,0,,,51,22
53040,note_on,0,0,2,,,,,,,,,0,,,44,22
53040,note_on,0,0,1,,,,,,,,,0,,,69,0
53040,note_on,0,0,1,,,,,,,,,0,,,60,0
53040,note_on,60,0,1,,,,,,,,,0,,,63,0
53040,note_on,0,0,1,,,,,,,,,0,,,68,60
53051,control_change,11,0,2,,,,,,,,,0,64,126,,
53100,note_on,0,0,2,,,,,,,,,0,,,51,0
53100,note_on,0,0,2,,,,,,,,,0,,,54,26
53100,note_on,0,0,2,,,,,,,,,0,,,51,22
53100,note_on,0,0,2,,,,,,,,,0,,,44,22
53100,note_on,49,0,2,,,,,,,,,0,,,44,0
53100,note_on,0,0,2,,,,,,,,,0,,,54,0
53100,note_on,60,0,1,,,,,,,,,0,,,60,26
53100,note_on,0,0,1,,,,,,,,,0,,,63,26
53160,note_on,60,0,2,,,,,,,,,0,,,44,0
53160,note_on,0,0,2,,,,,,,,,0,,,51,0
53160,note_on,0,0,2,,,,,,,,,0,,,54,0
53160,note_on,0,0,2,,,,,,,,,0,,,44,22
53160,note_on,0,0,2,,,,,,,,,0,,,54,26
53160,note_on,0,0,2,,,,,,,,,0,,,51,22
53160,note_on,0,0,1,,,,,,,,,0,,,66,56
53160,note_on,0,0,1,,,,,,,,,0,,,68,0
53160,note_on,0,0,1,,,,,,,,,0,,,60,0
53160,note_on,60,0,1,,,,,,,,,0,,,63,0
53220,note_on,0,0,2,,,,,,,,,0,,,51,0
53220,note_on,60,0,2,,,,,,,,,0,,,54,0
53220,note_on,0,0,2,,,,,,,,,0,,,44,0
53220,note_on,0,0,2,,,,,,,,,0,,,51,22
53220,note_on,0,0,2,,,,,,,,,0,,,44,22
53220,note_on,0,0,2,,,,,,,,,0,,,54,26
53220,note_on,60,0,1,,,,,,,,,0,,,60,34
53220,note_on,0,0,1,,,,,,,,,0,,,63,26
53246,control_change,26,0,2,,,,,,,,,0,64,0,,
53280,note_on,60,0,1,,,,,,,,,0,,,63,0
53280,note_on,0,0,1,,,,,,,,,0,,,60,0
53280,note_on,0,0,1,,,,,,,,,0,,,66,0
53280,note_on,0,0,1,,,,,,,,,0,,,64,70
53280,set_tempo,600,1,0,,,,,,428571,,,,,,,
53280,note_on,0,0,2,,,,,,,,,0,,,51,0
53280,note_on,0,0,2,,,,,,,,,0,,,32,26
53280,note_on,34,0,2,,,,,,,,,0,,,54,0
53280,note_on,0,0,2,,,,,,,,,0,,,44,0
53287,control_change,7,0,2,,,,,,,,,0,64,127,,
53340,note_on,60,0,1,,,,,,,,,0,,,56,26
53340,note_on,0,0,1,,,,,,,,,0,,,61,26
53340,note_on,53,0,2,,,,,,,,,0,,,32,0
53340,note_on,0,0,2,,,,,,,,,0,,,52,26
53340,note_on,0,0,2,,,,,,,,,0,,,49,22
53340,note_on,0,0,2,,,,,,,,,0,,,44,22
53400,note_on,0,0,1,,,,,,,,,0,,,56,0
53400,note_on,0,0,1,,,,,,,,,0,,,64,0
53400,note_on,0,0,1,,,,,,,,,0,,,68,64
53400,note_on,60,0,1,,,,,,,,,0,,,61,0
53400,note_on,0,0,2,,,,,,,,,0,,,44,22
53400,note_on,0,0,2,,,,,,,,,0,,,49,22
53400,note_on,0,0,2,,,,,,,,,0,,,52,0
53400,note_on,0,0,2,,,,,,,,,0,,,49,0
53400,note_on,60,0,2,,,,,,,,,0,,,44,0
53400,note_on,0,0,2,,,,,,,,,0,,,52,26
53460,note_on,0,0,2,,,,,,,,,0,,,49,0
53460,note_on,0,0,2,,,,,,,,,0,,,44,0
53460,note_on,0,0,2,,,,,,,,,0,,,44,22
53460,note_on,0,0,2,,,,,,,,,0,,,49,22
53460,note_on,60,0,2,,,,,,,,,0,,,52,0
53460,note_on,0,0,2,,,,,,,,,0,,,52,26
53460,note_on,0,0,1,,,,,,,,,0,,,61,29
53460,note_on,60,0,1,,,,,,,,,0,,,64,29
53520,note_on,0,0,2,,,,,,,,,0,,,49,0
53520,note_on,0,0,2,,,,,,,,,0,,,44,0
53520,note_on,0,0,2,,,,,,,,,0,,,44,22
53520,note_on,0,0,2,,,,,,,,,0,,,49,22
53520,note_on,0,0,2,,,,,,,,,0,,,52,26
53520,note_on,0,0,1,,,,,,,,,0,,,68,0
53520,note_on,0,0,1,,,,,,,,,0,,,64,0
53520,note_on,60,0,2,,,,,,,,,0,,,52,0
53520,note_on,0,0,1,,,,,,,,,0,,,73,68
53520,note_on,60,0,1,,,,,,,,,0,,,61,0
53580,note_on,0,0,1,,,,,,,,,0,,,68,31
53580,note_on,0,0,2,,,,,,,,,0,,,52,26
53580,note_on,0,0,2,,,,,,,,,0,,,49,22
53580,note_on,0,0,2,,,,,,,,,0,,,44,22
53580,note_on,60,0,1,,,,,,,,,0,,,64,31
53580,note_on,0,0,2,,,,,,,,,0,,,49,0
53580,note_on,60,0,2,,,,,,,,,0,,,52,0
53580,note_on,0,0,2,,,,,,,,,0,,,44,0
53640,note_on,0,0,2,,,,,,,,,0,,,52,26
53640,note_on,60,0,2,,,,,,,,,0,,,52,0
53640,note_on,0,0,2,,,,,,,,,0,,,49,0
53640,note_on,0,0,2,,,,,,,,,0,,,44,22
53640,note_on,0,0,2,,,,,,,,,0,,,44,0
53640,note_on,60,0,1,,,,,,,,,0,,,68,0
53640,note_on,0,0,1,,,,,,,,,0,,,64,0
53640,note_on,0,0,1,,,,,,,,,0,,,73,0
53640,note_on,0,0,1,,,,,,,,,0,,,76,77
53640,note_on,0,0,2,,,,,,,,,0,,,49,22
53700,note_on,0,0,2,,,,,,,,,0,,,49,24
53700,note_on,0,0,2,,,,,,,,,0,,,44,0
53700,note_on,60,0,1,,,,,,,,,0,,,68,34
53700,note_on,0,0,2,,,,,,,,,0,,,44,24
53700,note_on,0,0,1,,,,,,,,,0,,,73,34
53700,note_on,0,0,2,,,,,,,,,0,,,52,28
53700,note_on,0,0,2,,,,,,,,,0,,,49,0
53700,note_on,60,0,2,,,,,,,,,0,,,52,0
53760,note_on,0,0,2,,,,,,,,,0,,,44,0
53760,note_on,0,0,2,,,,,,,,,0,,,52,30
53760,note_on,0,0,2,,,,,,,,,0,,,49,26
53760,note_on,0,0,2,,,,,,,,,0,,,44,26
53760,note_on,60,0,1,,,,,,,,,0,,,73,0
53760,note_on,60,0,2,,,,,,,,,0,,,52,0
53760,note_on,0,0,1,,,,,,,,,0,,,76,0
53760,note_on,0,0,1,,,,,,,,,0,,,80,75
53760,note_on,0,0,1,,,,,,,,,0,,,68,0
53760,note_on,0,0,2,,,,,,,,,0,,,49,0
53820,note_on,0,0,2,,,,,,,,,0,,,52,35
53820,note_on,0,0,2,,,,,,,,,0,,,44,29
53820,note_on,0,0,2,,,,,,,,,0,,,49,29
53820,note_on,0,0,2,,,,,,,,,0,,,49,0
53820,note_on,0,0,1,,,,,,,,,0,,,76,37
53820,note_on,60,0,1,,,,,,,,,0,,,73,37
53820,note_on,0,0,2,,,,,,,,,0,,,44,0
53820,note_on,60,0,2,,,,,,,,,0,,,52,0
53880,note_on,0,0,2,,,,,,,,,0,,,52,37
53880,note_on,60,0,2,,,,,,,,,0,,,52,0
53880,note_on,0,0,2,,,,,,,,,0,,,49,0
53880,note_on,0,0,2,,,,,,,,,0,,,44,0
53880,note_on,0,0,2,,,,,,,,,0,,,44,30
53880,note_on,0,0,2,,,,,,,,,0,,,49,30
53880,note_on,60,0,1,,,,,,,,,0,,,76,0
53880,note_on,0,0,1,,,,,,,,,0,,,73,0
53880,note_on,0,0,1,,,,,,,,,0,,,80,0
53880,note_on,0,0,1,,,,,,,,,0,,,85,79
53940,note_on,0,0,2,,,,,,,,,0,,,52,39
53940,note_on,0,0,2,,,,,,,,,0,,,49,34
53940,note_on,0,0,2,,,,,,,,,0,,,44,0
53940,note_on,0,0,2,,,,,,,,,0,,,49,0
53940,note_on,60,0,2,,,,,,,,,0,,,52,0
53940,note_on,0,0,2,,,,,,,,,0,,,44,34
53940,note_on,60,0,1,,,,,,,,,0,,,76,39
53940,note_on,0,0,1,,,,,,,,,0,,,80,39
53984,control_change,44,0,2,,,,,,,,,0,64,0,,
54000,note_on,16,0,2,,,,,,,,,0,,,52,0
54000,note_on,0,0,2,,,,,,,,,0,,,49,0
54000,set_tempo,720,1,0,,,,,,478088,,,,,,,
54000,note_on,0,0,1,,,,,,,,,0,,,87,99
54000,note_on,60,0,1,,,,,,,,,0,,,80,0
54000,note_on,0,0,1,,,,,,,,,0,,,85,0
54000,note_on,0,0,2,,,,,,,,,0,,,33,41
54000,note_on,0,0,2,,,,,,,,,0,,,44,0
54000,note_on,0,0,1,,,,,,,,,0,,,76,0
54002,control_change,2,0,2,,,,,,,,,0,64,125,,
54060,note_on,0,0,2,,,,,,,,,0,,,52,41
54060,note_on,58,0,2,,,,,,,,,0,,,33,0
54060,note_on,0,0,2,,,,,,,,,0,,,49,35
54060,note_on,0,0,2,,,,,,,,,0,,,45,35
54060,note_on,60,0,1,,,,,,,,,0,,,75,51
54060,note_on,0,0,1,,,,,,,,,0,,,79,51
54106,control_change,46,0,2,,,,,,,,,0,64,0,,
54117,set_tempo,117,1,0,,,,,,444444,,,,,,,
54120,note_on,0,0,2,,,,,,,,,0,,,52,0
54120,note_on,0,0,2,,,,,,,,,0,,,49,0
54120,note_on,14,0,2,,,,,,,,,0,,,45,0
54120,note_on,0,0,2,,,,,,,,,0,,,49,36
54120,note_on,0,0,1,,,,,,,,,0,,,88,96
54120,note_on,0,0,1,,,,,,,,,0,,,87,0
54120,note_on,0,0,1,,,,,,,,,0,,,75,0
54120,note_on,60,0,1,,,,,,,,,0,,,79,0
54120,note_on,0,0,2,,,,,,,,,0,,,45,36
54120,note_on,0,0,2,,,,,,,,,0,,,52,44
54126,control_change,6,0,2,,,,,,,,,0,64,127,,
54180,note_on,0,0,2,,,,,,,,,0,,,49,0
54180,note_on,0,0,2,,,,,,,,,0,,,45,0
54180,note_on,0,0,2,,,,,,,,,0,,,45,35
54180,note_on,0,0,2,,,,,,,,,0,,,52,42
54180,note_on,0,0,1,,,,,,,,,0,,,76,45
54180,note_on,60,0,1,,,,,,,,,0,,,79,45
54180,note_on,54,0,2,,,,,,,,,0,,,52,0
54180,note_on,0,0,2,,,,,,,,,0,,,49,35
54240,note_on,0,0,2,,,,,,,,,0,,,45,34
54240,note_on,60,0,2,,,,,,,,,0,,,52,0
54240,note_on,0,0,2,,,,,,,,,0,,,49,0
54240,note_on,0,0,2,,,,,,,,,0,,,45,0
54240,note_on,0,0,2,,,,,,,,,0,,,49,34
54240,note_on,0,0,2,,,,,,,,,0,,,52,40
54240,note_on,0,0,1,,,,,,,,,0,,,76,40
54240,note_on,0,0,1,,,,,,,,,0,,,79,40
54240,note_on,0,0,1,,,,,,,,,0,,,79,0
54240,note_on,60,0,1,,,,,,,,,0,,,76,0
54300,note_on,0,0,1,,,,,,,,,0,,,79,0
54300,note_on,60,0,1,,,,,,,,,0,,,76,0
54300,note_on,0,0,1,,,,,,,,,0,,,76,39
54300,note_on,0,0,1,,,,,,,,,0,,,79,39
54300,note_on,0,0,2,,,,,,,,,0,,,49,33
54300,note_on,60,0,2,,,,,,,,,0,,,52,0
54300,note_on,0,0,2,,,,,,,,,0,,,49,0
54300,note_on,0,0,2,,,,,,,,,0,,,52,39
54300,note_on,0,0,2,,,,,,,,,0,,,45,0
54300,note_on,0,0,2,,,,,,,,,0,,,45,33
54360,note_on,0,0,1,,,,,,,,,0,,,76,37
54360,note_on,0,0,1,,,,,,,,,0,,,79,37
54360,note_on,60,0,1,,,,,,,,,0,,,76,0
54360,note_on,60,0,2,,,,,,,,,0,,,52,0
54360,note_on,0,0,1,,,,,,,,,0,,,79,0
54360,note_on,0,0,2,,,,,,,,,0,,,49,0
54360,note_on,0,0,2,,,,,,,,,0,,,52,37
54360,note_on,0,0,2,,,,,,,,,0,,,49,30
54360,note_on,0,0,2,,,,,,,,,0,,,45,30
54360,note_on,0,0,2,,,,,,,,,0,,,45,0
54420,note_on,0,0,2,,,,,,,,,0,,,52,35
54420,note_on,0,0,2,,,,,,,,,0,,,49,29
54420,note_on,0,0,2,,,,,,,,,0,,,45,29
54420,note_on,0,0,2,,,,,,,,,0,,,45,0
54420,note_on,60,0,2,,,,,,,,,0,,,52,0
54420,note_on,60,0,1,,,,,,,,,0,,,76,0
54420,note_on,0,0,1,,,,,,,,,0,,,79,0
54420,note_on,0,0,1,,,,,,,,,0,,,76,37
54420,note_on,0,0,1,,,,,,,,,0,,,79,37
54420,note_on,0,0,2,,,,,,,,,0,,,49,0
54470,control_change,50,0,2,,,,,,,,,0,64,0,,
54480,note_on,0,0,2,,,,,,,,,0,,,49,0
54480,note_on,0,0,2,,,,,,,,,0,,,45,0
54480,note_on,0,0,2,,,,,,,,,0,,,45,28
54480,note_on,0,0,2,,,,,,,,,0,,,49,28
54480,note_on,0,0,2,,,,,,,,,0,,,52,34
54480,note_on,0,0,1,,,,,,,,,0,,,88,0
54480,note_on,0,0,1,,,,,,,,,0,,,76,0
54480,note_on,60,0,1,,,,,,,,,0,,,79,0
54480,note_on,10,0,2,,,,,,,,,0,,,52,0
54480,note_on,0,0,1,,,,,,,,,0,,,87,88
54494,control_change,14,0,2,,,,,,,,,0,64,127,,
54540,note_on,0,0,1,,,,,,,,,0,,,79,31
54540,note_on,60,0,1,,,,,,,,,0,,,75,31
54540,note_on,0,0,2,,,,,,,,,0,,,52,31
54540,note_on,46,0,2,,,,,,,,,0,,,52,0
54540,note_on,0,0,2,,,,,,,,,0,,,49,0
54540,note_on,0,0,2,,,,,,,,,0,,,45,0
54540,note_on,0,0,2,,,,,,,,,0,,,45,26
54540,note_on,0,0,2,,,,,,,,,0,,,49,26
54600,note_on,0,0,2,,,,,,,,,0,,,49,0
54600,note_on,0,0,2,,,,,,,,,0,,,45,0
54600,note_on,0,0,2,,,,,,,,,0,,,45,25
54600,note_on,0,0,2,,,,,,,,,0,,,49,25
54600,note_on,0,0,2,,,,,,,,,0,,,52,30
54600,note_on,60,0,1,,,,,,,,,0,,,79,0
54600,note_on,60,0,2,,,,,,,,,0,,,52,0
54600,note_on,0,0,1,,,,,,,,,0,,,85,81
54600,note_on,0,0,1,,,,,,,,,0,,,87,0
54600,note_on,0,0,1,,,,,,,,,0,,,75,0
54660,note_on,0,0,1,,,,,,,,,0,,,79,28
54660,note_on,0,0,2,,,,,,,,,0,,,52,28
54660,note_on,0,0,2,,,,,,,,,0,,,49,24
54660,note_on,0,0,2,,,,,,,,,0,,,45,24
54660,note_on,0,0,2,,,,,,,,,0,,,45,0
54660,note_on,0,0,2,,,,,,,,,0,,,49,0
54660,note_on,60,0,1,,,,,,,,,0,,,73,28
54660,note_on,60,0,2,,,,,,,,,0,,,52,0
54689,control_change,29,0,2,,,,,,,,,0,64,0,,
54720,note_on,0,0,2,,,,,,,,,0,,,32,27
54720,note_on,0,0,2,,,,,,,,,0,,,45,0
54720,note_on,0,0,2,,,,,,,,,0,,,49,0
54720,note_on,31,0,2,,,,,,,,,0,,,52,0
54720,note_on,0,0,1,,,,,,,,,0,,,85,0
54720,note_on,60,0,1,,,,,,,,,0,,,79,0
54720,note_on,0,0,1,,,,,,,,,0,,,85,71
54720,note_on,0,0,1,,,,,,,,,0,,,73,0
54741,control_change,21,0,2,,,,,,,,,0,64,125,,
54780,note_on,0,0,1,,,,,,,,,0,,,80,27
54780,note_on,0,0,1,,,,,,,,,0,,,76,23
54780,note_on,60,0,1,,,,,,,,,0,,,73,23
54780,note_on,39,0,2,,,,,,,,,0,,,32,0
54780,note_on,0,0,2,,,,,,,,,0,,,52,26
54780,note_on,0,0,2,,,,,,,,,0,,,49,22
54780,note_on,0,0,2,,,,,,,,,0,,,44,22
54840,note_on,60,0,1,,,,,,,,,0,,,80,0
54840,note_on,0,0,1,,,,,,,,,0,,,76,0
54840,note_on,0,0,1,,,,,,,,,0,,,73,0
54840,note_on,0,0,1,,,,,,,,,0,,,73,23
54840,note_on,0,0,1,,,,,,,,,0,,,76,23
54840,note_on,0,0,1,,,,,,,,,0,,,80,27
54840,note_on,0,0,2,,,,,,,,,0,,,44,22
54840,note_on,0,0,2,,,,,,,,,0,,,49,0
54840,note_on,0,0,2,,,,,,,,,0,,,52,0
54840,note_on,0,0,2,,,,,,,,,0,,,49,22
54840,note_on,0,0,2,,,,,,,,,0,,,52,26
54840,note_on,60,0,2,,,,,,,,,0,,,44,0
54900,note_on,0,0,2,,,,,,,,,0,,,52,26
54900,note_on,0,0,2,,,,,,,,,0,,,52,0
54900,note_on,0,0,2,,,,,,,,,0,,,49,0
54900,note_on,60,0,2,,,,,,,,,0,,,44,0
54900,note_on,60,0,1,,,,,,,,,0,,,80,0
54900,note_on,0,0,1,,,,,,,,,0,,,73,0
54900,note_on,0,0,1,,,,,,,,,0,,,73,23
54900,note_on,0,0,1,,,,,,,,,0,,,76,23
54900,note_on,0,0,1,,,,,,,,,0,,,80,27
54900,note_on,0,0,2,,,,,,,,,0,,,44,22
54900,note_on,0,0,1,,,,,,,,,0,,,76,0
54900,note_on,0,0,2,,,,,,,,,0,,,49,22
54960,note_on,0,0,2,,,,,,,,,0,,,49,22
54960,note_on,0,0,2,,,,,,,,,0,,,49,0
54960,note_on,0,0,1,,,,,,,,,0,,,76,0
54960,note_on,0,0,1,,,,,,,,,0,,,73,0
54960,note_on,0,0,1,,,,,,,,,0,,,73,23
54960,note_on,0,0,1,,,,,,,,,0,,,76,23
54960,note_on,0,0,1,,,,,,,,,0,,,80,27
54960,note_on,60,0,1,,,,,,,,,0,,,80,0
54960,note_on,60,0,2,,,,,,,,,0,,,44,0
54960,note_on,0,0,2,,,,,,,,,0,,,52,0
54960,note_on,0,0,2,,,,,,,,,0,,,44,22
54960,note_on,0,0,2,,,,,,,,,0,,,52,26
55020,note_on,0,0,1,,,,,,,,,0,,,76,20
55020,note_on,0,0,1,,,,,,,,,0,,,73,20
55020,note_on,0,0,1,,,,,,,,,0,,,73,0
55020,note_on,0,0,2,,,,,,,,,0,,,52,0
55020,note_on,0,0,1,,,,,,,,,0,,,76,0
55020,note_on,60,0,1,,,,,,,,,0,,,80,0
55020,note_on,60,0,2,,,,,,,,,0,,,44,0
55020,note_on,0,0,2,,,,,,,,,0,,,49,0
55020,note_on,0,0,1,,,,,,,,,0,,,80,25
55020,note_on,0,0,2,,,,,,,,,0,,,52,26
55020,note_on,0,0,2,,,,,,,,,0,,,49,22
55020,note_on,0,0,2,,,,,,,,,0,,,44,22
55062,control_change,42,0,2,,,,,,,,,0,64,0,,
55078,control_change,16,0,2,,,,,,,,,0,64,126,,
55080,note_on,0,0,1,,,,,,,,,0,,,85,0
55080,note_on,0,0,1,,,,,,,,,0,,,73,0
55080,note_on,0,0,1,,,,,,,,,0,,,76,0
55080,note_on,0,0,1,,,,,,,,,0,,,80,60
55080,note_on,2,0,2,,,,,,,,,0,,,44,0
55080,note_on,0,0,2,,,,,,,,,0,,,49,0
55080,note_on,0,0,2,,,,,,,,,0,,,52,0
55080,note_on,0,0,2,,,,,,,,,0,,,32,26
55080,note_on,60,0,1,,,,,,,,,0,,,80,0
55140,note_on,0,0,2,,,,,,,,,0,,,51,24
55140,note_on,60,0,2,,,,,,,,,0,,,32,0
55140,note_on,0,0,2,,,,,,,,,0,,,44,19
55140,note_on,60,0,1,,,,,,,,,0,,,72,22
55140,note_on,0,0,1,,,,,,,,,0,,,75,22
55140,note_on,0,0,2,,,,,,,,,0,,,48,19
55200,note_on,0,0,2,,,,,,,,,0,,,48,0
55200,note_on,0,0,2,,,,,,,,,0,,,51,0
55200,note_on,0,0,2,,,,,,,,,0,,,51,24
55200,note_on,0,0,2,,,,,,,,,0,,,48,19
55200,note_on,60,0,1,,,,,,,,,0,,,75,0
55200,note_on,0,0,1,,,,,,,,,0,,,72,0
55200,note_on,0,0,1,,,,,,,,,0,,,72,20
55200,note_on,0,0,1,,,,,,,,,0,,,75,20
55200,note_on,60,0,2,,,,,,,,,0,,,44,0
55200,note_on,0,0,2,,,,,,,,,0,,,44,19
55260,note_on,0,0,1,,,,,,,,,0,,,72,20
55260,note_on,0,0,1,,,,,,,,,0,,,75,20
55260,note_on,60,0,2,,,,,,,,,0,,,44,0
55260,note_on,0,0,2,,,,,,,,,0,,,48,0
55260,note_on,0,0,2,,,,,,,,,0,,,51,0
55260,note_on,0,0,2,,,,,,,,,0,,,51,22
55260,note_on,0,0,2,,,,,,,,,0,,,48,18
55260,note_on,0,0,2,,,,,,,,,0,,,44,18
55260,note_on,60,0,1,,,,,,,,,0,,,75,0
55260,note_on,0,0,1,,,,,,,,,0,,,72,0
55320,note_on,0,0,1,,,,,,,,,0,,,75,20
55320,note_on,60,0,1,,,,,,,,,0,,,75,0
55320,note_on,0,0,1,,,,,,,,,0,,,72,0
55320,note_on,0,0,1,,,,,,,,,0,,,72,20
55320,note_on,0,0,2,,,,,,,,,0,,,44,17
55320,note_on,0,0,2,,,,,,,,,0,,,48,17
55320,note_on,0,0,2,,,,,,,,,0,,,51,0
55320,note_on,0,0,2,,,,,,,,,0,,,48,0
55320,note_on,60,0,2,,,,,,,,,0,,,44,0
55320,note_on,0,0,2,,,,,,,,,0,,,51,22
55322,set_tempo,1205,1,0,,,,,,547945,,,,,,,
55380,note_on,0,0,1,,,,,,,,,0,,,75,20
55380,note_on,0,0,1,,,,,,,,,0,,,72,20
55380,note_on,0,0,1,,,,,,,,,0,,,72,0
55380,note_on,0,0,2,,,,,,,,,0,,,48,17
55380,note_on,60,0,1,,,,,,,,,0,,,75,0
55380,note_on,60,0,2,,,,,,,,,0,,,44,0
55380,note_on,0,0,2,,,,,,,,,0,,,44,17
55380,note_on,0,0,2,,,,,,,,,0,,,51,22
55380,note_on,0,0,2,,,,,,,,,0,,,51,0
55380,note_on,0,0,2,,,,,,,,,0,,,48,0
55426,control_change,46,0,2,,,,,,,,,0,64,0,,
55440,note_on,0,0,2,,,,,,,,,0,,,37,42
55440,control_change,0,0,2,,,,,,,,,0,64,126,,
55440,set_tempo,118,1,0,,,,,,458015,,,,,,,
55440,note_on,14,0,2,,,,,,,,,0,,,44,0
55440,note_on,0,0,2,,,,,,,,,0,,,51,0
55440,note_on,0,0,2,,,,,,,,,0,,,48,0
55440,note_on,0,0,1,,,,,,,,,0,,,68,48
55440,note_on,60,0,1,,,,,,,,,0,,,75,0
55440,note_on,0,0,1,,,,,,,,,0,,,72,0
55440,note_on,0,0,1,,,,,,,,,0,,,80,0
55442,control_change,2,0,2,,,,,,,,,0,91,127,,
55444,control_change,4,0,1,,,,,,,,,0,91,127,,
55500,note_on,56,0,1,,,,,,,,,0,,,65,27
55500,note_on,0,0,1,,,,,,,,,0,,,56,27
55500,note_on,0,0,2,,,,,,,,,0,,,49,22
55500,note_on,0,0,2,,,,,,,,,0,,,44,22
55500,note_on,0,0,2,,,,,,,,,0,,,53,26
55500,note_on,58,0,2,,,,,,,,,0,,,37,0
55560,note_on,0,0,2,,,,,,,,,0,,,53,0
55560,note_on,60,0,2,,,,,,,,,0,,,44,0
55560,set_tempo,120,1,0,,,,,,444444,,,,,,,
55560,note_on,0,0,1,,,,,,,,,0,,,56,26
55560,note_on,0,0,1,,,,,,,,,0,,,65,26
55560,note_on,0,0,1,,,,,,,,,0,,,65,0
55560,note_on,60,0,1,,,,,,,,,0,,,56,0
55560,note_on,0,0,2,,,,,,,,,0,,,53,26
55560,note_on,0,0,2,,,,,,,,,0,,,44,22
55560,note_on,0,0,2,,,,,,,,,0,,,49,22
55560,note_on,0,0,2,,,,,,,,,0,,,49,0
55620,note_on,60,0,2,,,,,,,,,0,,,49,0
55620,note_on,0,0,2,,,,,,,,,0,,,44,0
55620,note_on,60,0,1,,,,,,,,,0,,,56,0
55620,note_on,0,0,2,,,,,,,,,0,,,53,26
55620,note_on,0,0,1,,,,,,,,,0,,,65,0
55620,note_on,0,0,1,,,,,,,,,0,,,65,26
55620,note_on,0,0,1,,,,,,,,,0,,,56,26
55620,note_on,0,0,2,,,,,,,,,0,,,53,0
55620,note_on,0,0,2,,,,,,,,,0,,,44,22
55620,note_on,0,0,2,,,,,,,,,0,,,49,22
55680,note_on,0,0,2,,,,,,,,,0,,,53,0
55680,note_on,0,0,1,,,,,,,,,0,,,65,26
55680,note_on,0,0,1,,,,,,,,,0,,,65,0
55680,note_on,0,0,2,,,,,,,,,0,,,49,22
55680,note_on,60,0,1,,,,,,,,,0,,,56,0
55680,note_on,0,0,2,,,,,,,,,0,,,44,0
55680,note_on,60,0,2,,,,,,,,,0,,,49,0
55680,note_on,0,0,2,,,,,,,,,0,,,44,22
55680,note_on,0,0,2,,,,,,,,,0,,,53,26
55680,note_on,0,0,1,,,,,,,,,0,,,56,26
55740,note_on,0,0,1,,,,,,,,,0,,,56,26
55740,note_on,0,0,1,,,,,,,,,0,,,65,26
55740,note_on,0,0,1,,,,,,,,,0,,,65,0
55740,note_on,60,0,1,,,,,,,,,0,,,56,0
55740,note_on,60,0,2,,,,,,,,,0,,,49,0
55740,note_on,0,0,2,,,,,,,,,0,,,44,0
55740,note_on,0,0,2,,,,,,,,,0,,,53,0
55740,note_on,0,0,2,,,,,,,,,0,,,53,26
55740,note_on,0,0,2,,,,,,,,,0,,,44,22
55740,note_on,0,0,2,,,,,,,,,0,,,49,22
55780,control_change,40,0,2,,,,,,,,,0,64,0,,
55800,note_on,0,0,2,,,,,,,,,0,,,53,26
55800,note_on,0,0,1,,,,,,,,,0,,,68,0
55800,note_on,0,0,1,,,,,,,,,0,,,68,45
55800,set_tempo,240,1,0,,,,,,500000,,,,,,,
55800,note_on,0,0,2,,,,,,,,,0,,,49,22
55800,note_on,0,0,2,,,,,,,,,0,,,44,0
55800,control_change,0,0,2,,,,,,,,,0,64,125,,
55800,note_on,0,0,2,,,,,,,,,0,,,53,0
55800,note_on,0,0,1,,,,,,,,,0,,,65,0
55800,note_on,20,0,2,,,,,,,,,0,,,49,0
55800,note_on,0,0,2,,,,,,,,,0,,,44,22
55800,note_on,60,0,1,,,,,,,,,0,,,56,0
55860,note_on,0,0,2,,,,,,,,,0,,,53,0
55860,note_on,0,0,2,,,,,,,,,0,,,53,26
55860,note_on,0,0,2,,,,,,,,,0,,,44,0
55860,note_on,0,0,1,,,,,,,,,0,,,56,26
55860,note_on,60,0,1,,,,,,,,,0,,,65,26
55860,note_on,0,0,2,,,,,,,,,0,,,44,22
55860,note_on,60,0,2,,,,,,,,,0,,,49,0
55860,note_on,0,0,2,,,,,,,,,0,,,49,22
55920,set_tempo,120,1,0,,,,,,428571,,,,,,,
55920,note_on,0,0,2,,,,,,,,,0,,,44,0
55920,note_on,60,0,2,,,,,,,,,0,,,49,0
55920,note_on,0,0,1,,,,,,,,,0,,,68,0
55920,note_on,0,0,1,,,,,,,,,0,,,65,0
55920,note_on,60,0,1,,,,,,,,,0,,,56,0
55920,note_on,0,0,1,,,,,,,,,0,,,70,52
55920,note_on,0,0,2,,,,,,,,,0,,,49,22
55920,note_on,0,0,2,,,,,,,,,0,,,44,22
55920,note_on,0,0,2,,,,,,,,,0,,,53,26
55920,note_on,0,0,2,,,,,,,,,0,,,53,0
55980,note_on,60,0,1,,,,,,,,,0,,,58,27
55980,note_on,0,0,1,,,,,,,,,0,,,65,27
55980,note_on,0,0,2,,,,,,,,,0,,,44,0
55980,note_on,0,0,2,,,,,,,,,0,,,53,0
55980,note_on,0,0,2,,,,,,,,,0,,,53,26
55980,note_on,0,0,2,,,,,,,,,0,,,44,22
55980,note_on,0,0,2,,,,,,,,,0,,,49,22
55980,note_on,60,0,2,,,,,,,,,0,,,49,0
56040,note_on,0,0,2,,,,,,,,,0,,,44,22
56040,note_on,0,0,2,,,,,,,,,0,,,44,0
56040,note_on,0,0,1,,,,,,,,,0,,,68,45
56040,note_on,0,0,1,,,,,,,,,0,,,70,0
56040,note_on,0,0,1,,,,,,,,,0,,,58,0
56040,note_on,60,0,1,,,,,,,,,0,,,65,0
56040,note_on,60,0,2,,,,,,,,,0,,,49,0
56040,note_on,0,0,2,,,,,,,,,0,,,53,26
56040,note_on,0,0,2,,,,,,,,,0,,,53,0
56040,note_on,0,0,2,,,,,,,,,0,,,49,22
56042,set_tempo,122,1,0,,,,,,444444,,,,,,,
56100,note_on,60,0,2,,,,,,,,,0,,,49,0
56100,note_on,60,0,1,,,,,,,,,0,,,65,26
56100,note_on,0,0,1,,,,,,,,,0,,,56,26
56100,note_on,0,0,2,,,,,,,,,0,,,44,0
56100,note_on,0,0,2,,,,,,,,,0,,,53,0
56100,note_on,0,0,2,,,,,,,,,0,,,53,26
56100,note_on,0,0,2,,,,,,,,,0,,,49,22
56100,note_on,0,0,2,,,,,,,,,0,,,44,22
56114,control_change,14,0,2,,,,,,,,,0,64,0,,
56158,set_tempo,116,1,0,,,,,,446097,,,,,,,
56160,control_change,0,0,2,,,,,,,,,0,64,126,,
56160,note_on,46,0,2,,,,,,,,,0,,,44,0
56160,note_on,0,0,2,,,,,,,,,0,,,49,0
56160,note_on,60,0,1,,,,,,,,,0,,,56,0
56160,note_on,0,0,1,,,,,,,,,0,,,65,0
56160,note_on,0,0,2,,,,,,,,,0,,,53,0
56160,note_on,0,0,1,,,,,,,,,0,,,68,0
56160,note_on,0,0,1,,,,,,,,,0,,,70,57
56160,note_on,0,0,2,,,,,,,,,0,,,36,41
56220,note_on,60,0,1,,,,,,,,,0,,,56,26
56220,note_on,0,0,1,,,,,,,,,0,,,66,26
56220,note_on,0,0,2,,,,,,,,,0,,,44,22
56220,note_on,0,0,2,,,,,,,,,0,,,54,26
56220,note_on,0,0,2,,,,,,,,,0,,,51,22
56220,note_on,60,0,2,,,,,,,,,0,,,36,0
56280,note_on,0,0,1,,,,,,,,,0,,,56,0
56280,note_on,0,0,1,,,,,,,,,0,,,66,26
56280,note_on,0,0,1,,,,,,,,,0,,,56,26
56280,note_on,0,0,2,,,,,,,,,0,,,51,22
56280,note_on,0,0,2,,,,,,,,,0,,,44,22
56280,note_on,0,0,2,,,,,,,,,0,,,51,0
56280,note_on,0,0,2,,,,,,,,,0,,,54,0
56280,note_on,60,0,2,,,,,,,,,0,,,44,0
56280,note_on,60,0,1,,,,,,,,,0,,,66,0
56280,note_on,0,0,2,,,,,,,,,0,,,54,26
56340,note_on,60,0,1,,,,,,,,,0,,,66,0
56340,note_on,0,0,1,,,,,,,,,0,,,56,26
56340,note_on,0,0,1,,,,,,,,,0,,,66,26
56340,note_on,0,0,2,,,,,,,,,0,,,54,26
56340,note_on,0,0,2,,,,,,,,,0,,,51,22
56340,note_on,0,0,2,,,,,,,,,0,,,44,22
56340,note_on,0,0,2,,,,,,,,,0,,,44,0
56340,note_on,0,0,2,,,,,,,,,0,,,51,0
56340,note_on,60,0,2,,,,,,,,,0,,,54,0
56340,note_on,0,0,1,,,,,,,,,0,,,56,0
56400,note_on,60,0,1,,,,,,,,,0,,,66,0
56400,note_on,0,0,1,,,,,,,,,0,,,56,0
56400,note_on,0,0,1,,,,,,,,,0,,,56,26
56400,note_on,0,0,1,,,,,,,,,0,,,66,26
56400,note_on,0,0,2,,,,,,,,,0,,,51,22
56400,note_on,0,0,2,,,,,,,,,0,,,54,26
56400,note_on,0,0,2,,,,,,,,,0,,,44,22
56400,note_on,0,0,2,,,,,,,,,0,,,44,0
56400,note_on,60,0,2,,,,,,,,,0,,,54,0
56400,note_on,0,0,2,,,,,,,,,0,,,51,0
56460,note_on,0,0,1,,,,,,,,,0,,,56,26
56460,note_on,0,0,1,,,,,,,,,0,,,66,26
56460,note_on,60,0,1,,,,,,,,,0,,,66,0
56460,note_on,0,0,1,,,,,,,,,0,,,56,0
56460,note_on,60,0,2,,,,,,,,,0,,,54,0
56460,note_on,0,0,2,,,,,,,,,0,,,51,0
56460,note_on,0,0,2,,,,,,,,,0,,,44,0
56460,note_on,0,0,2,,,,,,,,,0,,,44,22
56460,note_on,0,0,2,,,,,,,,,0,,,51,22
56460,note_on,0,0,2,,,,,,,,,0,,,54,26
56480,control_change,20,0,2,,,,,,,,,0,64,0,,
56520,note_on,0,0,1,,,,,,,,,0,,,56,0
56520,note_on,0,0,1,,,,,,,,,0,,,68,50
56520,note_on,0,0,1,,,,,,,,,0,,,70,0
56520,note_on,60,0,1,,,,,,,,,0,,,66,0
56520,note_on,0,0,2,,,,,,,,,0,,,54,26
56520,control_change,0,0,2,,,,,,,,,0,64,125,,
56520,note_on,0,0,2,,,,,,,,,0,,,44,22
56520,note_on,40,0,2,,,,,,,,,0,,,54,0
56520,note_on,0,0,2,,,,,,,,,0,,,51,0
56520,note_on,0,0,2,,,,,,,,,0,,,51,22
56520,note_on,0,0,2,,,,,,,,,0,,,44,0
56580,note_on,0,0,2,,,,,,,,,0,,,44,22
56580,note_on,0,0,2,,,,,,,,,0,,,51,22
56580,note_on,0,0,2,,,,,,,,,0,,,54,26
56580,note_on,0,0,2,,,,,,,,,0,,,51,0
56580,note_on,60,0,2,,,,,,,,,0,,,54,0
56580,note_on,60,0,1,,,,,,,,,0,,,56,28
56580,note_on,0,0,1,,,,,,,,,0,,,66,28
56580,note_on,0,0,2,,,,,,,,,0,,,44,0
56640,note_on,0,0,1,,,,,,,,,0,,,56,29
56640,note_on,60,0,1,,,,,,,,,0,,,66,0
56640,note_on,0,0,1,,,,,,,,,0,,,56,0
56640,note_on,0,0,1,,,,,,,,,0,,,66,29
56640,note_on,0,0,2,,,,,,,,,0,,,51,0
56640,note_on,0,0,2,,,,,,,,,0,,,54,26
56640,note_on,0,0,2,,,,,,,,,0,,,51,22
56640,note_on,0,0,2,,,,,,,,,0,,,44,22
56640,note_on,0,0,2,,,,,,,,,0,,,44,0
56640,note_on,60,0,2,,,,,,,,,0,,,54,0
56700,note_on,0,0,1,,,,,,,,,0,,,56,0
56700,note_on,60,0,1,,,,,,,,,0,,,66,0
56700,note_on,0,0,1,,,,,,,,,0,,,66,29
56700,note_on,0,0,2,,,,,,,,,0,,,51,0
56700,note_on,60,0,2,,,,,,,,,0,,,54,0
56700,note_on,0,0,2,,,,,,,,,0,,,44,0
56700,note_on,0,0,2,,,,,,,,,0,,,51,22
56700,note_on,0,0,1,,,,,,,,,0,,,56,29
56700,note_on,0,0,2,,,,,,,,,0,,,44,22
56700,note_on,0,0,2,,,,,,,,,0,,,54,26
56760,note_on,60,0,1,,,,,,,,,0,,,66,0
56760,note_on,60,0,2,,,,,,,,,0,,,54,0
56760,note_on,0,0,2,,,,,,,,,0,,,51,0
56760,note_on,0,0,2,,,,,,,,,0,,,44,0
56760,note_on,0,0,2,,,,,,,,,0,,,51,22
56760,note_on,0,0,2,,,,,,,,,0,,,44,22
56760,note_on,0,0,2,,,,,,,,,0,,,54,26
56760,note_on,0,0,1,,,,,,,,,0,,,66,29
56760,note_on,0,0,1,,,,,,,,,0,,,56,29
56760,note_on,0,0,1,,,,,,,,,0,,,56,0
56820,note_on,0,0,1,,,,,,,,,0,,,66,29
56820,note_on,0,0,1,,,,,,,,,0,,,56,29
56820,note_on,0,0,1,,,,,,,,,0,,,56,0
56820,note_on,60,0,1,,,,,,,,,0,,,66,0
56820,note_on,0,0,2,,,,,,,,,0,,,51,22
56820,note_on,0,0,2,,,,,,,,,0,,,54,26
56820,note_on,0,0,2,,,,,,,,,0,,,44,22
56820,note_on,0,0,2,,,,,,,,,0,,,51,0
56820,note_on,0,0,2,,,,,,,,,0,,,44,0
56820,note_on,60,0,2,,,,,,,,,0,,,54,0
56855,control_change,35,0,2,,,,,,,,,0,64,0,,
56880,note_on,0,0,1,,,,,,,,,0,,,56,0
56880,note_on,60,0,1,,,,,,,,,0,,,66,0
56880,note_on,0,0,1,,,,,,,,,0,,,68,52
56880,note_on,0,0,1,,,,,,,,,0,,,68,0
56880,note_on,25,0,2,,,,,,,,,0,,,54,0
56880,note_on,0,0,2,,,,,,,,,0,,,51,0
56880,note_on,0,0,2,,,,,,,,,0,,,44,0
56880,note_on,0,0,2,,,,,,,,,0,,,37,40
56880,control_change,0,0,2,,,,,,,,,0,64,126,,
56940,note_on,60,0,2,,,,,,,,,0,,,37,0
56940,note_on,0,0,2,,,,,,,,,0,,,53,26
56940,note_on,0,0,2,,,,,,,,,0,,,49,22
56940,note_on,0,0,2,,,,,,,,,0,,,44,22
56940,note_on,60,0,1,,,,,,,,,0,,,65,26
56940,note_on,0,0,1,,,,,,,,,0,,,56,26
57000,note_on,0,0,2,,,,,,,,,0,,,53,0
57000,note_on,0,0,2,,,,,,,,,0,,,49,0
57000,note_on,60,0,1,,,,,,,,,0,,,56,0
57000,note_on,0,0,1,,,,,,,,,0,,,65,0
57000,note_on,0,0,1,,,,,,,,,0,,,65,26
57000,note_on,60,0,2,,,,,,,,,0,,,44,0
57000,note_on,0,0,2,,,,,,,,,0,,,44,22
57000,note_on,0,0,2,,,,,,,,,0,,,53,26
57000,note_on,0,0,1,,,,,,,,,0,,,56,26
57000,note_on,0,0,2,,,,,,,,,0,,,49,22
57060,note_on,0,0,2,,,,,,,,,0,,,44,0
57060,note_on,0,0,2,,,,,,,,,0,,,53,0
57060,note_on,0,0,2,,,,,,,,,0,,,53,26
57060,note_on,0,0,2,,,,,,,,,0,,,44,22
57060,note_on,0,0,2,,,,,,,,,0,,,49,22
57060,note_on,60,0,1,,,,,,,,,0,,,56,0
57060,note_on,0,0,1,,,,,,,,,0,,,65,0
57060,note_on,0,0,1,,,,,,,,,0,,,65,26
57060,note_on,0,0,1,,,,,,,,,0,,,56,26
57060,note_on,60,0,2,,,,,,,,,0,,,49,0
57120,note_on,0,0,2,,,,,,,,,0,,,53,0
57120,note_on,60,0,1,,,,,,,,,0,,,56,0
57120,note_on,60,0,2,,,,,,,,,0,,,49,0
57120,note_on,0,0,2,,,,,,,,,0,,,44,0
57120,note_on,0,0,1,,,,,,,,,0,,,65,0
57120,note_on,0,0,2,,,,,,,,,0,,,44,22
57120,note_on,0,0,2,,,,,,,,,0,,,49,22
57120,note_on,0,0,1,,,,,,,,,0,,,65,26
57120,note_on,0,0,1,,,,,,,,,0,,,56,26
57120,note_on,0,0,2,,,,,,,,,0,,,53,26
57180,note_on,60,0,1,,,,,,,,,0,,,56,0
57180,note_on,0,0,2,,,,,,,,,0,,,44,22
57180,note_on,0,0,1,,,,,,,,,0,,,56,27
57180,note_on,0,0,1,,,,,,,,,0,,,65,27
57180,note_on,0,0,1,,,,,,,,,0,,,65,0
57180,note_on,0,0,2,,,,,,,,,0,,,49,22
57180,note_on,0,0,2,,,,,,,,,0,,,44,0
57180,note_on,0,0,2,,,,,,,,,0,,,53,26
57180,note_on,60,0,2,,,,,,,,,0,,,49,0
57180,note_on,0,0,2,,,,,,,,,0,,,53,0
57206,control_change,26,0,2,,,,,,,,,0,64,1,,
57240,note_on,34,0,2,,,,,,,,,0,,,49,0
57240,note_on,0,0,1,,,,,,,,,0,,,68,0
57240,note_on,0,0,1,,,,,,,,,0,,,77,64
57240,note_on,0,0,1,,,,,,,,,0,,,65,0
57240,control_change,0,0,2,,,,,,,,,0,64,125,,
57240,note_on,60,0,1,,,,,,,,,0,,,56,0
57240,note_on,0,0,2,,,,,,,,,0,,,44,0
57240,note_on,0,0,2,,,,,,,,,0,,,53,0
57240,note_on,0,0,2,,,,,,,,,0,,,44,22
57240,note_on,0,0,2,,,,,,,,,0,,,53,26
57240,note_on,0,0,2,,,,,,,,,0,,,49,22
57242,set_tempo,1084,1,0,,,,,,428571,,,,,,,
57300,note_on,60,0,2,,,,,,,,,0,,,49,0
57300,note_on,60,0,1,,,,,,,,,0,,,65,28
57300,note_on,0,0,1,,,,,,,,,0,,,68,28
57300,note_on,0,0,2,,,,,,,,,0,,,44,22
57300,note_on,0,0,2,,,,,,,,,0,,,49,22
57300,note_on,0,0,2,,,,,,,,,0,,,53,26
57300,note_on,0,0,2,,,,,,,,,0,,,53,0
57300,note_on,0,0,2,,,,,,,,,0,,,44,0
57360,note_on,0,0,1,,,,,,,,,0,,,77,0
57360,note_on,0,0,1,,,,,,,,,0,,,75,59
57360,note_on,60,0,1,,,,,,,,,0,,,68,0
57360,note_on,0,0,1,,,,,,,,,0,,,65,0
57360,note_on,0,0,2,,,,,,,,,0,,,44,22
57360,note_on,0,0,2,,,,,,,,,0,,,49,22
57360,note_on,0,0,2,,,,,,,,,0,,,53,26
57360,note_on,0,0,2,,,,,,,,,0,,,44,0
57360,note_on,60,0,2,,,,,,,,,0,,,49,0
57360,note_on,0,0,2,,,,,,,,,0,,,53,0
57420,note_on,0,0,2,,,,,,,,,0,,,53,26
57420,note_on,0,0,2,,,,,,,,,0,,,53,0
57420,note_on,60,0,2,,,,,,,,,0,,,49,0
57420,note_on,0,0,2,,,,,,,,,0,,,49,22
57420,note_on,0,0,2,,,,,,,,,0,,,44,22
57420,note_on,0,0,2,,,,,,,,,0,,,44,0
57420,note_on,60,0,1,,,,,,,,,0,,,63,27
57420,note_on,0,0,1,,,,,,,,,0,,,68,27
57480,note_on,0,0,2,,,,,,,,,0,,,44,0
57480,note_on,0,0,2,,,,,,,,,0,,,53,0
57480,note_on,0,0,2,,,,,,,,,0,,,53,26
57480,note_on,0,0,2,,,,,,,,,0,,,44,22
57480,note_on,0,0,2,,,,,,,,,0,,,49,22
57480,note_on,60,0,1,,,,,,,,,0,,,68,0
57480,note_on,0,0,1,,,,,,,,,0,,,63,0
57480,note_on,0,0,1,,,,,,,,,0,,,73,60
57480,note_on,0,0,1,,,,,,,,,0,,,75,0
57480,note_on,60,0,2,,,,,,,,,0,,,49,0
57482,set_tempo,240,1,0,,,,,,524017,,,,,,,
57540,note_on,0,0,2,,,,,,,,,0,,,53,26
57540,note_on,60,0,2,,,,,,,,,0,,,49,0
57540,note_on,0,0,2,,,,,,,,,0,,,49,22
57540,note_on,0,0,2,,,,,,,,,0,,,44,22
57540,note_on,0,0,2,,,,,,,,,0,,,53,0
57540,note_on,0,0,2,,,,,,,,,0,,,44,0
57540,note_on,60,0,1,,,,,,,,,0,,,61,27
57540,note_on,0,0,1,,,,,,,,,0,,,68,27
57569,control_change,29,0,2,,,,,,,,,0,64,0,,
57598,control_change,29,0,2,,,,,,,,,0,64,126,,
57600,note_on,0,0,2,,,,,,,,,0,,,53,0
57600,note_on,0,0,2,,,,,,,,,0,,,49,0
57600,note_on,2,0,2,,,,,,,,,0,,,44,0
57600,note_on,60,0,1,,,,,,,,,0,,,68,0
57600,note_on,0,0,2,,,,,,,,,0,,,39,39
57600,note_on,0,0,1,,,,,,,,,0,,,73,0
57600,note_on,0,0,1,,,,,,,,,0,,,73,60
57600,note_on,0,0,1,,,,,,,,,0,,,61,0
57602,set_tempo,120,1,0,,,,,,444444,,,,,,,
57660,note_on,0,0,2,,,,,,,,,0,,,54,26
57660,note_on,0,0,2,,,,,,,,,0,,,51,22
57660,note_on,0,0,2,,,,,,,,,0,,,44,22
57660,note_on,0,0,1,,,,,,,,,0,,,68,27
57660,note_on,60,0,1,,,,,,,,,0,,,61,27
57660,note_on,60,0,2,,,,,,,,,0,,,39,0
57720,note_on,0,0,1,,,,,,,,,0,,,68,27
57720,note_on,60,0,1,,,,,,,,,0,,,68,0
57720,note_on,60,0,2,,,,,,,,,0,,,44,0
57720,note_on,0,0,2,,,,,,,,,0,,,54,0
57720,note_on,0,0,2,,,,,,,,,0,,,51,0
57720,note_on,0,0,2,,,,,,,,,0,,,44,22
57720,note_on,0,0,1,,,,,,,,,0,,,61,0
57720,note_on,0,0,2,,,,,,,,,0,,,51,22
57720,note_on,0,0,2,,,,,,,,,0,,,54,26
57720,note_on,0,0,1,,,,,,,,,0,,,61,27
57780,note_on,0,0,2,,,,,,,,,0,,,44,0
57780,note_on,0,0,2,,,,,,,,,0,,,51,0
57780,note_on,0,0,1,,,,,,,,,0,,,68,27
57780,note_on,0,0,1,,,,,,,,,0,,,61,27
57780,note_on,0,0,1,,,,,,,,,0,,,61,0
57780,note_on,60,0,1,,,,,,,,,0,,,68,0
57780,note_on,60,0,2,,,,,,,,,0,,,54,0
57780,note_on,0,0,2,,,,,,,,,0,,,44,22
57780,note_on,0,0,2,,,,,,,,,0,,,51,22
57780,note_on,0,0,2,,,,,,,,,0,,,54,26
57840,note_on,0,0,2,,,,,,,,,0,,,44,0
57840,note_on,0,0,2,,,,,,,,,0,,,44,22
57840,note_on,0,0,2,,,,,,,,,0,,,51,22
57840,note_on,0,0,2,,,,,,,,,0,,,54,26
57840,note_on,0,0,1,,,,,,,,,0,,,68,27
57840,note_on,0,0,1,,,,,,,,,0,,,61,27
57840,note_on,0,0,1,,,,,,,,,0,,,61,0
57840,note_on,60,0,1,,,,,,,,,0,,,68,0
57840,note_on,60,0,2,,,,,,,,,0,,,54,0
57840,note_on,0,0,2,,,,,,,,,0,,,51,0
57900,note_on,60,0,1,,,,,,,,,0,,,68,0
57900,note_on,0,0,1,,,,,,,,,0,,,68,27
57900,note_on,0,0,1,,,,,,,,,0,,,61,0
57900,note_on,0,0,1,,,,,,,,,0,,,61,27
57900,note_on,0,0,2,,,,,,,,,0,,,51,0
57900,note_on,0,0,2,,,,,,,,,0,,,54,26
57900,note_on,0,0,2,,,,,,,,,0,,,51,22
57900,note_on,0,0,2,,,,,,,,,0,,,44,22
57900,note_on,0,0,2,,,,,,,,,0,,,44,0
57900,note_on,60,0,2,,,,,,,,,0,,,54,0
57935,control_change,35,0,2,,,,,,,,,0,64,0,,
57960,note_on,0,0,1,,,,,,,,,0,,,72,61
57960,note_on,0,0,2,,,,,,,,,0,,,44,22
57960,note_on,60,0,1,,,,,,,,,0,,,68,0
57960,note_on,0,0,2,,,,,,,,,0,,,44,0
57960,note_on,0,0,2,,,,,,,,,0,,,51,0
57960,note_on,0,0,2,,,,,,,,,0,,,54,26
57960,note_on,25,0,2,,,,,,,,,0,,,54,0
57960,note_on,0,0,1,,,,,,,,,0,,,73,0
57960,note_on,0,0,2,,,,,,,,,0,,,51,22
57960,control_change,0,0,2,,,,,,,,,0,64,125,,
57960,note_on,0,0,1,,,,,,,,,0,,,61,0
58020,note_on,60,0,2,,,,,,,,,0,,,54,0
58020,note_on,60,0,1,,,,,,,,,0,,,60,27
58020,note_on,0,0,1,,,,,,,,,0,,,68,27
58020,note_on,0,0,2,,,,,,,,,0,,,51,0
58020,note_on,0,0,2,,,,,,,,,0,,,44,0
58020,note_on,0,0,2,,,,,,,,,0,,,51,22
58020,note_on,0,0,2,,,,,,,,,0,,,54,26
58020,note_on,0,0,2,,,,,,,,,0,,,44,22
58080,note_on,0,0,2,,,,,,,,,0,,,54,26
58080,note_on,0,0,2,,,,,,,,,0,,,51,22
58080,note_on,0,0,2,,,,,,,,,0,,,44,22
58080,note_on,0,0,2,,,,,,,,,0,,,44,0
58080,note_on,0,0,2,,,,,,,,,0,,,51,0
58080,note_on,60,0,2,,,,,,,,,0,,,54,0
58080,note_on,60,0,1,,,,,,,,,0,,,68,0
58080,note_on,0,0,1,,,,,,,,,0,,,60,0
58080,note_on,0,0,1,,,,,,,,,0,,,60,27
58080,note_on,0,0,1,,,,,,,,,0,,,68,27
58140,note_on,0,0,2,,,,,,,,,0,,,51,0
58140,note_on,0,0,2,,,,,,,,,0,,,54,26
58140,note_on,60,0,1,,,,,,,,,0,,,68,0
58140,note_on,0,0,1,,,,,,,,,0,,,60,0
58140,note_on,0,0,1,,,,,,,,,0,,,60,27
58140,note_on,0,0,2,,,,,,,,,0,,,51,22
58140,note_on,0,0,2,,,,,,,,,0,,,44,0
58140,note_on,0,0,2,,,,,,,,,0,,,44,22
58140,note_on,60,0,2,,,,,,,,,0,,,54,0
58140,note_on,0,0,1,,,,,,,,,0,,,68,27
58200,note_on,0,0,1,,,,,,,,,0,,,60,0
58200,note_on,0,0,1,,,,,,,,,0,,,60,27
58200,note_on,0,0,1,,,,,,,,,0,,,68,27
58200,note_on,0,0,2,,,,,,,,,0,,,51,22
58200,note_on,0,0,2,,,,,,,,,0,,,44,22
58200,note_on,0,0,2,,,,,,,,,0,,,54,26
58200,note_on,0,0,2,,,,,,,,,0,,,44,0
58200,note_on,0,0,2,,,,,,,,,0,,,51,0
58200,note_on,60,0,2,,,,,,,,,0,,,54,0
58200,note_on,60,0,1,,,,,,,,,0,,,68,0
58260,note_on,0,0,1,,,,,,,,,0,,,60,27
58260,note_on,60,0,1,,,,,,,,,0,,,68,0
58260,note_on,0,0,1,,,,,,,,,0,,,60,0
58260,note_on,0,0,1,,,,,,,,,0,,,68,27
58260,note_on,0,0,2,,,,,,,,,0,,,54,26
58260,note_on,0,0,2,,,,,,,,,0,,,51,22
58260,note_on,0,0,2,,,,,,,,,0,,,44,22
58260,note_on,0,0,2,,,,,,,,,0,,,51,0
58260,note_on,0,0,2,,,,,,,,,0,,,44,0
58260,note_on,60,0,2,,,,,,,,,0,,,54,0
58291,control_change,31,0,2,,,,,,,,,0,64,0,,
58318,set_tempo,716,1,0,,,,,,481928,,,,,,,
58320,note_on,60,0,1,,,,,,,,,0,,,68,0
58320,note_on,0,0,1,,,,,,,,,0,,,72,0
58320,note_on,29,0,2,,,,,,,,,0,,,54,0
58320,note_on,0,0,2,,,,,,,,,0,,,51,0
58320,note_on,0,0,2,,,,,,,,,0,,,44,0
58320,note_on,0,0,2,,,,,,,,,0,,,40,42
58320,control_change,0,0,2,,,,,,,,,0,64,124,,
58320,note_on,0,0,1,,,,,,,,,0,,,60,0
58320,note_on,0,0,1,,,,,,,,,0,,,72,58
58380,note_on,60,0,1,,,,,,,,,0,,,60,35
58380,note_on,60,0,2,,,,,,,,,0,,,40,0
58380,note_on,0,0,2,,,,,,,,,0,,,45,29
58380,note_on,0,0,2,,,,,,,,,0,,,52,35
58380,note_on,0,0,1,,,,,,,,,0,,,69,35
58437,control_change,57,0,2,,,,,,,,,0,64,0,,
58438,set_tempo,120,1,0,,,,,,430108,,,,,,,
58440,note_on,0,0,2,,,,,,,,,0,,,45,29
58440,note_on,3,0,2,,,,,,,,,0,,,45,0
58440,note_on,0,0,1,,,,,,,,,0,,,73,68
58440,note_on,0,0,1,,,,,,,,,0,,,72,0
58440,note_on,0,0,1,,,,,,,,,0,,,60,0
58440,note_on,60,0,1,,,,,,,,,0,,,69,0
58440,note_on,0,0,2,,,,,,,,,0,,,52,35
58440,note_on,0,0,2,,,,,,,,,0,,,52,0
58460,control_change,20,0,2,,,,,,,,,0,64,125,,
58500,note_on,0,0,1,,,,,,,,,0,,,69,35
58500,note_on,60,0,1,,,,,,,,,0,,,61,35
58500,note_on,0,0,2,,,,,,,,,0,,,45,0
58500,note_on,40,0,2,,,,,,,,,0,,,52,0
58500,note_on,0,0,2,,,,,,,,,0,,,45,29
58500,note_on,0,0,2,,,,,,,,,0,,,52,35
58560,note_on,0,0,1,,,,,,,,,0,,,61,35
58560,note_on,0,0,1,,,,,,,,,0,,,69,35
58560,note_on,0,0,1,,,,,,,,,0,,,61,0
58560,note_on,60,0,1,,,,,,,,,0,,,69,0
58560,note_on,60,0,2,,,,,,,,,0,,,52,0
58560,note_on,0,0,2,,,,,,,,,0,,,45,29
58560,note_on,0,0,2,,,,,,,,,0,,,52,35
58560,note_on,0,0,2,,,,,,,,,0,,,45,0
58620,note_on,0,0,2,,,,,,,,,0,,,52,35
58620,note_on,60,0,2,,,,,,,,,0,,,52,0
58620,note_on,60,0,1,,,,,,,,,0,,,69,0
58620,note_on,0,0,1,,,,,,,,,0,,,61,0
58620,note_on,0,0,1,,,,,,,,,0,,,61,35
58620,note_on,0,0,1,,,,,,,,,0,,,69,35
58620,note_on,0,0,2,,,,,,,,,0,,,45,0
58620,note_on,0,0,2,,,,,,,,,0,,,45,29
58680,note_on,60,0,1,,,,,,,,,0,,,69,0
58680,note_on,0,0,1,,,,,,,,,0,,,61,0
58680,note_on,0,0,1,,,,,,,,,0,,,61,35
58680,note_on,0,0,1,,,,,,,,,0,,,69,35
58680,note_on,60,0,2,,,,,,,,,0,,,52,0
58680,note_on,0,0,2,,,,,,,,,0,,,45,0
58680,note_on,0,0,2,,,,,,,,,0,,,52,35
58680,note_on,0,0,2,,,,,,,,,0,,,45,29
58740,note_on,0,0,1,,,,,,,,,0,,,61,35
58740,note_on,60,0,1,,,,,,,,,0,,,69,0
58740,note_on,60,0,2,,,,,,,,,0,,,45,0
58740,note_on,0,0,2,,,,,,,,,0,,,52,0
58740,note_on,0,0,2,,,,,,,,,0,,,45,29
58740,note_on,0,0,2,,,,,,,,,0,,,52,35
58740,note_on,0,0,1,,,,,,,,,0,,,69,35
58740,note_on,0,0,1,,,,,,,,,0,,,61,0
58800,note_on,60,0,1,,,,,,,,,0,,,69,0
58800,note_on,0,0,1,,,,,,,,,0,,,61,0
58800,note_on,0,0,1,,,,,,,,,0,,,73,0
58800,note_on,0,0,1,,,,,,,,,0,,,73,70
58800,note_on,0,0,2,,,,,,,,,0,,,45,0
58800,note_on,0,0,2,,,,,,,,,0,,,40,35
58800,note_on,60,0,2,,,,,,,,,0,,,52,0
58860,note_on,0,0,2,,,,,,,,,0,,,45,29
58860,note_on,60,0,2,,,,,,,,,0,,,52,35
58860,note_on,60,0,1,,,,,,,,,0,,,61,35
58860,note_on,0,0,1,,,,,,,,,0,,,69,35
58920,note_on,0,0,1,,,,,,,,,0,,,73,69
58920,note_on,60,0,2,,,,,,,,,0,,,45,0
58920,note_on,0,0,1,,,,,,,,,0,,,61,0
58920,note_on,60,0,1,,,,,,,,,0,,,69,0
58920,note_on,0,0,2,,,,,,,,,0,,,40,35
58920,note_on,0,0,2,,,,,,,,,0,,,40,0
58920,note_on,0,0,2,,,,,,,,,0,,,52,0
58920,note_on,0,0,1,,,,,,,,,0,,,73,0
58980,note_on,60,0,1,,,,,,,,,0,,,61,35
58980,note_on,60,0,2,,,,,,,,,0,,,52,35
58980,note_on,0,0,2,,,,,,,,,0,,,45,29
58980,note_on,0,0,1,,,,,,,,,0,,,69,35
58998,control_change,18,0,2,,,,,,,,,0,64,0,,
59038,set_tempo,600,1,0,,,,,,480000,,,,,,,
59040,note_on,0,0,1,,,,,,,,,0,,,73,0
59040,note_on,0,0,1,,,,,,,,,0,,,73,70
59040,control_change,0,0,2,,,,,,,,,0,64,126,,
59040,note_on,0,0,2,,,,,,,,,0,,,35,42
59040,note_on,0,0,2,,,,,,,,,0,,,40,0
59040,note_on,0,0,2,,,,,,,,,0,,,52,0
59040,note_on,42,0,2,,,,,,,,,0,,,45,0
59040,note_on,0,0,1,,,,,,,,,0,,,61,0
59040,note_on,60,0,1,,,,,,,,,0,,,69,0
59100,note_on,0,0,2,,,,,,,,,0,,,40,31
59100,note_on,0,0,2,,,,,,,,,0,,,47,38
59100,note_on,60,0,2,,,,,,,,,0,,,35,0
59100,note_on,60,0,1,,,,,,,,,0,,,61,44
59100,note_on,0,0,1,,,,,,,,,0,,,68,44
59149,control_change,49,0,2,,,,,,,,,0,64,0,,
59160,note_on,60,0,1,,,,,,,,,0,,,68,0
59160,note_on,0,0,1,,,,,,,,,0,,,61,0
59160,set_tempo,122,1,0,,,,,,431655,,,,,,,
59160,note_on,0,0,1,,,,,,,,,0,,,74,78
59160,note_on,11,0,2,,,,,,,,,0,,,40,0
59160,note_on,0,0,2,,,,,,,,,0,,,47,0
59160,note_on,0,0,2,,,,,,,,,0,,,40,31
59160,note_on,0,0,2,,,,,,,,,0,,,47,38
59160,note_on,0,0,1,,,,,,,,,0,,,73,0
59177,control_change,17,0,2,,,,,,,,,0,64,125,,
59220,note_on,43,0,2,,,,,,,,,0,,,47,0
59220,note_on,0,0,2,,,,,,,,,0,,,40,0
59220,note_on,0,0,2,,,,,,,,,0,,,40,31
59220,note_on,0,0,2,,,,,,,,,0,,,47,38
59220,note_on,0,0,1,,,,,,,,,0,,,68,44
59220,note_on,60,0,1,,,,,,,,,0,,,62,44
59280,note_on,0,0,2,,,,,,,,,0,,,40,31
59280,note_on,60,0,2,,,,,,,,,0,,,47,0
59280,note_on,0,0,1,,,,,,,,,0,,,68,44
59280,note_on,0,0,1,,,,,,,,,0,,,62,44
59280,note_on,0,0,1,,,,,,,,,0,,,62,0
59280,note_on,60,0,1,,,,,,,,,0,,,68,0
59280,note_on,0,0,2,,,,,,,,,0,,,47,38
59280,note_on,0,0,2,,,,,,,,,0,,,40,0
59340,note_on,0,0,1,,,,,,,,,0,,,62,0
59340,note_on,60,0,1,,,,,,,,,0,,,68,0
59340,note_on,0,0,1,,,,,,,,,0,,,62,44
59340,note_on,0,0,1,,,,,,,,,0,,,68,44
59340,note_on,0,0,2,,,,,,,,,0,,,47,38
59340,note_on,0,0,2,,,,,,,,,0,,,40,31
59340,note_on,0,0,2,,,,,,,,,0,,,47,0
59340,note_on,60,0,2,,,,,,,,,0,,,40,0
59400,note_on,0,0,1,,,,,,,,,0,,,62,0
59400,note_on,0,0,2,,,,,,,,,0,,,47,39
59400,note_on,0,0,2,,,,,,,,,0,,,40,34
59400,note_on,0,0,2,,,,,,,,,0,,,40,0
59400,note_on,60,0,2,,,,,,,,,0,,,47,0
59400,note_on,0,0,1,,,,,,,,,0,,,68,44
59400,note_on,60,0,1,,,,,,,,,0,,,68,0
59400,note_on,0,0,1,,,,,,,,,0,,,62,44
59460,note_on,0,0,1,,,,,,,,,0,,,68,44
59460,note_on,0,0,1,,,,,,,,,0,,,62,44
59460,note_on,0,0,1,,,,,,,,,0,,,62,0
59460,note_on,60,0,1,,,,,,,,,0,,,68,0
59460,note_on,0,0,2,,,,,,,,,0,,,47,39
59460,note_on,60,0,2,,,,,,,,,0,,,47,0
59460,note_on,0,0,2,,,,,,,,,0,,,40,0
59460,note_on,0,0,2,,,,,,,,,0,,,40,34
59506,control_change,46,0,2,,,,,,,,,0,64,0,,
59520,note_on,60,0,1,,,,,,,,,0,,,68,0
59520,note_on,0,0,1,,,,,,,,,0,,,62,0
59520,note_on,0,0,1,,,,,,,,,0,,,74,0
59520,note_on,0,0,1,,,,,,,,,0,,,74,75
59520,note_on,0,0,2,,,,,,,,,0,,,35,39
59520,note_on,0,0,2,,,,,,,,,0,,,40,0
59520,note_on,14,0,2,,,,,,,,,0,,,47,0
59523,control_change,3,0,2,,,,,,,,,0,64,125,,
59580,note_on,0,0,2,,,,,,,,,0,,,47,39
59580,note_on,60,0,1,,,,,,,,,0,,,62,44
59580,note_on,0,0,1,,,,,,,,,0,,,68,44
59580,note_on,57,0,2,,,,,,,,,0,,,40,34
59640,note_on,60,0,2,,,,,,,,,0,,,47,0
59640,note_on,0,0,2,,,,,,,,,0,,,35,39
59640,note_on,0,0,2,,,,,,,,,0,,,35,0
59640,note_on,60,0,1,,,,,,,,,0,,,68,0
59640,note_on,0,0,1,,,,,,,,,0,,,74,0
59640,note_on,0,0,1,,,,,,,,,0,,,74,75
59640,note_on,0,0,1,,,,,,,,,0,,,62,0
59640,note_on,0,0,2,,,,,,,,,0,,,40,0
59700,note_on,60,0,2,,,,,,,,,0,,,47,39
59700,note_on,0,0,1,,,,,,,,,0,,,68,44
59700,note_on,60,0,1,,,,,,,,,0,,,62,44
59700,note_on,0,0,2,,,,,,,,,0,,,40,34
59731,control_change,31,0,2,,,,,,,,,0,64,0,,
59758,set_tempo,598,1,0,,,,,,478088,,,,,,,
59760,set_tempo,2,1,0,,,,,,480000,,,,,,,
59760,note_on,0,0,1,,,,,,,,,0,,,62,0
59760,note_on,60,0,1,,,,,,,,,0,,,68,0
59760,note_on,29,0,2,,,,,,,,,0,,,40,0
59760,note_on,0,0,2,,,,,,,,,0,,,47,0
59760,note_on,0,0,2,,,,,,,,,0,,,35,0
59760,note_on,0,0,2,,,,,,,,,0,,,38,49
59760,note_on,0,0,1,,,,,,,,,0,,,74,0
59760,note_on,0,0,1,,,,,,,,,0,,,77,84
59771,control_change,11,0,2,,,,,,,,,0,64,126,,
59820,note_on,60,0,1,,,,,,,,,0,,,65,46
59820,note_on,0,0,1,,,,,,,,,0,,,74,46
59820,note_on,49,0,2,,,,,,,,,0,,,38,0
59820,note_on,0,0,2,,,,,,,,,0,,,45,35
59820,note_on,0,0,2,,,,,,,,,0,,,50,42
59871,control_change,51,0,2,,,,,,,,,0,64,0,,
59880,note_on,60,0,1,,,,,,,,,0,,,74,0
59880,note_on,0,0,1,,,,,,,,,0,,,65,0
59880,note_on,0,0,1,,,,,,,,,0,,,77,0
59880,note_on,0,0,1,,,,,,,,,0,,,78,88
59880,set_tempo,120,1,0,,,,,,431655,,,,,,,
59880,note_on,0,0,2,,,,,,,,,0,,,50,42
59880,note_on,0,0,2,,,,,,,,,0,,,45,35
59880,note_on,0,0,2,,,,,,,,,0,,,45,0
59880,note_on,9,0,2,,,,,,,,,0,,,50,0
59889,control_change,9,0,2,,,,,,,,,0,64,126,,
59940,note_on,0,0,2,,,,,,,,,0,,,45,0
59940,note_on,60,0,1,,,,,,,,,0,,,66,48
59940,note_on,0,0,1,,,,,,,,,0,,,74,48
59940,note_on,0,0,2,,,,,,,,,0,,,45,35
59940,note_on,0,0,2,,,,,,,,,0,,,50,42
59940,note_on,51,0,2,,,,,,,,,0,,,50,0
60000,note_on,0,0,2,,,,,,,,,0,,,45,35
60000,note_on,60,0,1,,,,,,,,,0,,,74,0
60000,note_on,0,0,1,,,,,,,,,0,,,66,0
60000,note_on,0,0,1,,,,,,,,,0,,,66,47
60000,note_on,0,0,1,,,,,,,,,0,,,74,47
60000,note_on,60,0,2,,,,,,,,,0,,,50,0
60000,note_on,0,0,2,,,,,,,,,0,,,45,0
60000,note_on,0,0,2,,,,,,,,,0,,,50,42
60060,note_on,0,0,2,,,,,,,,,0,,,45,35
60060,note_on,0,0,2,,,,,,,,,0,,,45,0
60060,note_on,0,0,2,,,,,,,,,0,,,50,42
60060,note_on,60,0,1,,,,,,,,,0,,,74,0
60060,note_on,0,0,1,,,,,,,,,0,,,66,0
60060,note_on,0,0,1,,,,,,,,,0,,,66,47
60060,note_on,0,0,1,,,,,,,,,0,,,74,47
60060,note_on,60,0,2,,,,,,,,,0,,,50,0
60120,note_on,0,0,2,,,,,,,,,0,,,50,46
60120,note_on,60,0,2,,,,,,,,,0,,,50,0
60120,note_on,0,0,2,,,,,,,,,0,,,45,39
60120,note_on,0,0,2,,,,,,,,,0,,,45,0
60120,note_on,60,0,1,,,,,,,,,0,,,74,0
60120,note_on,0,0,1,,,,,,,,,0,,,66,0
60120,note_on,0,0,1,,,,,,,,,0,,,66,47
60120,note_on,0,0,1,,,,,,,,,0,,,74,47
60180,note_on,60,0,1,,,,,,,,,0,,,74,0
60180,note_on,0,0,1,,,,,,,,,0,,,66,0
60180,note_on,0,0,1,,,,,,,,,0,,,66,47
60180,note_on,0,0,1,,,,,,,,,0,,,74,47
60180,note_on,60,0,2,,,,,,,,,0,,,45,0
60180,note_on,0,0,2,,,,,,,,,0,,,50,45
60180,note_on,0,0,2,,,,,,,,,0,,,45,38
60180,note_on,0,0,2,,,,,,,,,0,,,50,0
60226,control_change,46,0,2,,,,,,,,,0,64,0,,
60240,note_on,0,0,2,,,,,,,,,0,,,50,0
60240,note_on,14,0,2,,,,,,,,,0,,,45,0
60240,note_on,60,0,1,,,,,,,,,0,,,74,0
60240,note_on,0,0,1,,,,,,,,,0,,,66,0
60240,note_on,0,0,1,,,,,,,,,0,,,78,86
60240,note_on,0,0,1,,,,,,,,,0,,,78,0
60240,note_on,0,0,2,,,,,,,,,0,,,38,45
60260,control_change,20,0,2,,,,,,,,,0,64,126,,
60300,note_on,0,0,1,,,,,,,,,0,,,74,48
60300,note_on,0,0,2,,,,,,,,,0,,,45,38
60300,note_on,40,0,2,,,,,,,,,0,,,50,45
60300,note_on,60,0,1,,,,,,,,,0,,,66,48
60360,note_on,0,0,1,,,,,,,,,0,,,78,0
60360,note_on,0,0,1,,,,,,,,,0,,,78,86
60360,note_on,60,0,1,,,,,,,,,0,,,74,0
60360,note_on,0,0,2,,,,,,,,,0,,,38,45
60360,note_on,0,0,2,,,,,,,,,0,,,38,0
60360,note_on,0,0,2,,,,,,,,,0,,,50,0
60360,note_on,60,0,2,,,,,,,,,0,,,45,0
60360,note_on,0,0,1,,,,,,,,,0,,,66,0
60420,note_on,60,0,2,,,,,,,,,0,,,50,45
60420,note_on,0,0,2,,,,,,,,,0,,,45,38
60420,note_on,60,0,1,,,,,,,,,0,,,66,47
60420,note_on,0,0,1,,,,,,,,,0,,,74,47
60446,control_change,26,0,2,,,,,,,,,0,64,0,,
60478,set_tempo,598,1,0,,,,,,478088,,,,,,,
60480,note_on,34,0,2,,,,,,,,,0,,,45,0
60480,note_on,0,0,1,,,,,,,,,0,,,78,86
60480,note_on,0,0,1,,,,,,,,,0,,,78,0
60480,note_on,0,0,1,,,,,,,,,0,,,66,0
60480,note_on,60,0,1,,,,,,,,,0,,,74,0
60480,set_tempo,2,1,0,,,,,,480000,,,,,,,
60480,note_on,0,0,2,,,,,,,,,0,,,50,0
60480,note_on,0,0,2,,,,,,,,,0,,,38,0
60480,note_on,0,0,2,,,,,,,,,0,,,33,45
60480,control_change,0,0,2,,,,,,,,,0,64,126,,
60540,note_on,0,0,1,,,,,,,,,0,,,73,47
60540,note_on,60,0,1,,,,,,,,,0,,,66,47
60540,note_on,0,0,2,,,,,,,,,0,,,40,38
60540,note_on,60,0,2,,,,,,,,,0,,,45,45
60589,control_change,49,0,2,,,,,,,,,0,64,0,,
60600,set_tempo,120,1,0,,,,,,431655,,,,,,,
60600,note_on,0,0,1,,,,,,,,,0,,,66,0
60600,note_on,0,0,1,,,,,,,,,0,,,78,0
60600,note_on,60,0,1,,,,,,,,,0,,,73,0
60600,note_on,0,0,1,,,,,,,,,0,,,79,96
60600,note_on,0,0,2,,,,,,,,,0,,,33,0
60600,note_on,0,0,2,,,,,,,,,0,,,45,0
60600,note_on,0,0,2,,,,,,,,,0,,,33,45
60600,note_on,11,0,2,,,,,,,,,0,,,40,0
60617,control_change,17,0,2,,,,,,,,,0,64,126,,
60660,note_on,43,0,2,,,,,,,,,0,,,33,0
60660,note_on,0,0,1,,,,,,,,,0,,,73,49
60660,note_on,0,0,2,,,,,,,,,0,,,45,45
60660,note_on,0,0,2,,,,,,,,,0,,,40,38
60660,note_on,60,0,1,,,,,,,,,0,,,67,49
60720,note_on,0,0,1,,,,,,,,,0,,,67,0
60720,note_on,0,0,2,,,,,,,,,0,,,40,38
60720,note_on,0,0,2,,,,,,,,,0,,,45,45
60720,note_on,0,0,2,,,,,,,,,0,,,45,0
60720,note_on,60,0,1,,,,,,,,,0,,,73,0
60720,note_on,0,0,1,,,,,,,,,0,,,67,49
60720,note_on,60,0,2,,,,,,,,,0,,,40,0
60720,note_on,0,0,1,,,,,,,,,0,,,73,49
60780,note_on,0,0,2,,,,,,,,,0,,,45,0
60780,note_on,60,0,2,,,,,,,,,0,,,40,0
60780,note_on,0,0,2,,,,,,,,,0,,,40,38
60780,note_on,0,0,2,,,,,,,,,0,,,45,45
60780,note_on,0,0,1,,,,,,,,,0,,,67,0
60780,note_on,0,0,1,,,,,,,,,0,,,67,49
60780,note_on,0,0,1,,,,,,,,,0,,,73,49
60780,note_on,60,0,1,,,,,,,,,0,,,73,0
60840,note_on,60,0,1,,,,,,,,,0,,,73,0
60840,note_on,0,0,1,,,,,,,,,0,,,67,0
60840,note_on,0,0,1,,,,,,,,,0,,,67,49
60840,note_on,0,0,1,,,,,,,,,0,,,73,49
60840,note_on,0,0,2,,,,,,,,,0,,,40,41
60840,note_on,0,0,2,,,,,,,,,0,,,45,49
60840,note_on,0,0,2,,,,,,,,,0,,,45,0
60840,note_on,60,0,2,,,,,,,,,0,,,40,0
60900,note_on,60,0,1,,,,,,,,,0,,,73,0
60900,note_on,60,0,2,,,,,,,,,0,,,40,0
60900,note_on,0,0,2,,,,,,,,,0,,,45,0
60900,note_on,0,0,2,,,,,,,,,0,,,45,49
60900,note_on,0,0,2,,,,,,,,,0,,,40,41
60900,note_on,0,0,1,,,,,,,,,0,,,73,49
60900,note_on,0,0,1,,,,,,,,,0,,,67,49
60900,note_on,0,0,1,,,,,,,,,0,,,67,0
60951,control_change,51,0,2,,,,,,,,,0,64,0,,
60960,note_on,60,0,1,,,,,,,,,0,,,73,0
60960,note_on,0,0,1,,,,,,,,,0,,,67,0
60960,note_on,0,0,1,,,,,,,,,0,,,79,0
60960,note_on,0,0,1,,,,,,,,,0,,,79,93
60960,note_on,0,0,2,,,,,,,,,0,,,33,49
60960,note_on,0,0,2,,,,,,,,,0,,,45,0
60960,note_on,9,0,2,,,,,,,,,0,,,40,0
60974,control_change,14,0,2,,,,,,,,,0,64,126,,
61020,note_on,0,0,2,,,,,,,,,0,,,40,41
61020,note_on,0,0,1,,,,,,,,,0,,,73,48
61020,note_on,60,0,1,,,,,,,,,0,,,67,48
61020,note_on,46,0,2,,,,,,,,,0,,,45,49
61080,note_on,0,0,1,,,,,,,,,0,,,67,0
61080,note_on,60,0,1,,,,,,,,,0,,,73,0
61080,note_on,0,0,1,,,,,,,,,0,,,79,96
61080,note_on,0,0,2,,,,,,,,,0,,,33,49
61080,note_on,0,0,2,,,,,,,,,0,,,33,0
61080,note_on,0,0,2,,,,,,,,,0,,,45,0
61080,note_on,60,0,2,,,,,,,,,0,,,40,0
61080,note_on,0,0,1,,,,,,,,,0,,,79,0
61140,note_on,60,0,1,,,,,,,,,0,,,67,50
61140,note_on,0,0,2,,,,,,,,,0,,,40,41
61140,note_on,60,0,2,,,,,,,,,0,,,45,49
61140,note_on,0,0,1,,,,,,,,,0,,,73,50
61163,control_change,23,0,2,,,,,,,,,0,64,0,,
61198,set_tempo,598,1,0,,,,,,478088,,,,,,,
61200,note_on,37,0,2,,,,,,,,,0,,,40,0
61200,note_on,0,0,2,,,,,,,,,0,,,45,0
61200,note_on,0,0,2,,,,,,,,,0,,,33,0
61200,note_on,0,0,2,,,,,,,,,0,,,32,61
61200,set_tempo,2,1,0,,,,,,478088,,,,,,,
61200,note_on,60,0,1,,,,,,,,,0,,,73,0
61200,note_on,0,0,1,,,,,,,,,0,,,67,0
61200,note_on,0,0,1,,,,,,,,,0,,,79,0
61200,note_on,0,0,1,,,,,,,,,0,,,81,98
61211,control_change,11,0,2,,,,,,,,,0,64,126,,
61260,note_on,49,0,2,,,,,,,,,0,,,32,0
61260,note_on,0,0,2,,,,,,,,,0,,,44,44
61260,note_on,0,0,2,,,,,,,,,0,,,49,44
61260,note_on,0,0,2,,,,,,,,,0,,,52,51
61260,note_on,60,0,1,,,,,,,,,0,,,73,51
61260,note_on,0,0,1,,,,,,,,,0,,,69,51
61318,set_tempo,118,1,0,,,,,,428571,,,,,,,
61320,note_on,0,0,2,,,,,,,,,0,,,44,0
61320,note_on,0,0,2,,,,,,,,,0,,,49,0
61320,note_on,60,0,1,,,,,,,,,0,,,69,0
61320,note_on,0,0,2,,,,,,,,,0,,,44,44
61320,note_on,0,0,1,,,,,,,,,0,,,80,95
61320,note_on,0,0,1,,,,,,,,,0,,,81,0
61320,note_on,0,0,2,,,,,,,,,0,,,49,44
61320,note_on,0,0,2,,,,,,,,,0,,,52,51
61320,note_on,0,0,1,,,,,,,,,0,,,73,0
61320,note_on,60,0,2,,,,,,,,,0,,,52,0
61380,note_on,60,0,2,,,,,,,,,0,,,52,0
61380,note_on,0,0,2,,,,,,,,,0,,,44,44
61380,note_on,0,0,2,,,,,,,,,0,,,44,0
61380,note_on,0,0,2,,,,,,,,,0,,,49,44
61380,note_on,0,0,2,,,,,,,,,0,,,52,52
61380,note_on,60,0,1,,,,,,,,,0,,,68,51
61380,note_on,0,0,1,,,,,,,,,0,,,73,51
61380,note_on,0,0,2,,,,,,,,,0,,,49,0
61440,note_on,60,0,1,,,,,,,,,0,,,73,0
61440,note_on,0,0,1,,,,,,,,,0,,,73,44
61440,note_on,0,0,1,,,,,,,,,0,,,68,44
61440,note_on,0,0,1,,,,,,,,,0,,,68,0
61440,note_on,0,0,2,,,,,,,,,0,,,52,52
61440,note_on,60,0,2,,,,,,,,,0,,,52,0
61440,note_on,0,0,2,,,,,,,,,0,,,49,0
61440,note_on,0,0,2,,,,,,,,,0,,,44,0
61440,note_on,0,0,2,,,,,,,,,0,,,44,44
61440,note_on,0,0,2,,,,,,,,,0,,,49,44
61500,note_on,0,0,1,,,,,,,,,0,,,68,0
61500,note_on,60,0,1,,,,,,,,,0,,,73,0
61500,note_on,0,0,1,,,,,,,,,0,,,73,51
61500,note_on,0,0,1,,,,,,,,,0,,,68,51
61500,note_on,60,0,2,,,,,,,,,0,,,52,0
61500,note_on,0,0,2,,,,,,,,,0,,,49,44
61500,note_on,0,0,2,,,,,,,,,0,,,44,44
61500,note_on,0,0,2,,,,,,,,,0,,,44,0
61500,note_on,0,0,2,,,,,,,,,0,,,49,0
61500,note_on,0,0,2,,,,,,,,,0,,,52,52
61538,control_change,38,0,2,,,,,,,,,0,64,0,,
61558,set_tempo,240,1,0,,,,,,446097,,,,,,,
61560,note_on,22,0,2,,,,,,,,,0,,,52,0
61560,note_on,60,0,1,,,,,,,,,0,,,73,0
61560,note_on,0,0,1,,,,,,,,,0,,,68,0
61560,note_on,0,0,1,,,,,,,,,0,,,80,0
61560,note_on,0,0,1,,,,,,,,,0,,,81,97
61560,note_on,0,0,2,,,,,,,,,0,,,44,0
61560,note_on,0,0,2,,,,,,,,,0,,,49,0
61560,note_on,0,0,2,,,,,,,,,0,,,32,61
61562,control_change,2,0,2,,,,,,,,,0,64,126,,
61620,note_on,60,0,1,,,,,,,,,0,,,69,52
61620,note_on,58,0,2,,,,,,,,,0,,,32,0
61620,note_on,0,0,1,,,,,,,,,0,,,72,52
61620,note_on,0,0,2,,,,,,,,,0,,,51,44
61620,note_on,0,0,2,,,,,,,,,0,,,44,44
61620,note_on,0,0,2,,,,,,,,,0,,,54,52
61676,control_change,56,0,2,,,,,,,,,0,64,0,,
61680,note_on,0,0,1,,,,,,,,,0,,,80,93
61680,note_on,60,0,1,,,,,,,,,0,,,72,0
61680,note_on,0,0,2,,,,,,,,,0,,,44,0
61680,note_on,0,0,2,,,,,,,,,0,,,51,0
61680,note_on,0,0,1,,,,,,,,,0,,,81,0
61680,note_on,0,0,2,,,,,,,,,0,,,44,44
61680,note_on,0,0,2,,,,,,,,,0,,,51,44
61680,note_on,0,0,2,,,,,,,,,0,,,54,52
61680,set_tempo,122,1,0,,,,,,428571,,,,,,,
61680,note_on,4,0,2,,,,,,,,,0,,,54,0
61680,note_on,0,0,1,,,,,,,,,0,,,69,0
61697,control_change,17,0,2,,,,,,,,,0,64,126,,
61740,note_on,0,0,1,,,,,,,,,0,,,72,52
61740,note_on,0,0,2,,,,,,,,,0,,,54,52
61740,note_on,0,0,2,,,,,,,,,0,,,51,44
61740,note_on,0,0,2,,,,,,,,,0,,,44,44
61740,note_on,0,0,2,,,,,,,,,0,,,44,0
61740,note_on,0,0,2,,,,,,,,,0,,,51,0
61740,note_on,43,0,2,,,,,,,,,0,,,54,0
61740,note_on,60,0,1,,,,,,,,,0,,,68,52
61796,set_tempo,116,1,0,,,,,,502092,,,,,,,
61800,note_on,0,0,1,,,,,,,,,0,,,72,52
61800,note_on,0,0,1,,,,,,,,,0,,,68,52
61800,note_on,0,0,1,,,,,,,,,0,,,68,0
61800,note_on,60,0,1,,,,,,,,,0,,,72,0
61800,note_on,0,0,2,,,,,,,,,0,,,51,44
61800,note_on,60,0,2,,,,,,,,,0,,,54,0
61800,note_on,0,0,2,,,,,,,,,0,,,51,0
61800,note_on,0,0,2,,,,,,,,,0,,,44,0
61800,note_on,0,0,2,,,,,,,,,0,,,44,44
61800,note_on,0,0,2,,,,,,,,,0,,,54,51
61860,note_on,0,0,2,,,,,,,,,0,,,51,44
61860,note_on,0,0,2,,,,,,,,,0,,,54,51
61860,note_on,0,0,2,,,,,,,,,0,,,44,0
61860,note_on,0,0,2,,,,,,,,,0,,,51,0
61860,note_on,0,0,2,,,,,,,,,0,,,44,44
61860,note_on,0,0,1,,,,,,,,,0,,,68,52
61860,note_on,60,0,1,,,,,,,,,0,,,72,0
61860,note_on,0,0,1,,,,,,,,,0,,,68,0
61860,note_on,0,0,1,,,,,,,,,0,,,72,52
61860,note_on,60,0,2,,,,,,,,,0,,,54,0
61899,control_change,39,0,2,,,,,,,,,0,64,0,,
61918,set_tempo,122,1,0,,,,,,502092,,,,,,,
61920,note_on,0,0,2,,,,,,,,,0,,,37,52
61920,note_on,0,0,2,,,,,,,,,0,,,44,0
61920,note_on,0,0,2,,,,,,,,,0,,,51,0
61920,note_on,21,0,2,,,,,,,,,0,,,54,0
61920,note_on,0,0,1,,,,,,,,,0,,,73,86
61920,note_on,0,0,1,,,,,,,,,0,,,68,0
61920,note_on,60,0,1,,,,,,,,,0,,,72,0
61920,note_on,0,0,1,,,,,,,,,0,,,80,0
61941,control_change,21,0,2,,,,,,,,,0,64,127,,
61980,set_tempo,62,1,0,,,,,,444444,,,,,,,
61980,note_on,39,0,2,,,,,,,,,0,,,37,0
61980,note_on,0,0,2,,,,,,,,,0,,,52,40
61980,note_on,0,0,2,,,,,,,,,0,,,49,34
61980,note_on,0,0,2,,,,,,,,,0,,,44,34
61980,note_on,60,0,1,,,,,,,,,0,,,68,44
61980,note_on,0,0,1,,,,,,,,,0,,,61,44
61980,note_on,0,0,1,,,,,,,,,0,,,64,44
62040,note_on,0,0,2,,,,,,,,,0,,,44,34
62040,note_on,0,0,2,,,,,,,,,0,,,44,0
62040,note_on,0,0,1,,,,,,,,,0,,,64,44
62040,note_on,0,0,1,,,,,,,,,0,,,61,44
62040,note_on,0,0,1,,,,,,,,,0,,,68,44
62040,note_on,0,0,2,,,,,,,,,0,,,52,40
62040,note_on,0,0,1,,,,,,,,,0,,,68,0
62040,note_on,60,0,1,,,,,,,,,0,,,64,0
62040,note_on,0,0,2,,,,,,,,,0,,,49,0
62040,note_on,60,0,2,,,,,,,,,0,,,52,0
62040,note_on,0,0,1,,,,,,,,,0,,,61,0
62040,note_on,0,0,2,,,,,,,,,0,,,49,34
62100,note_on,0,0,2,,,,,,,,,0,,,44,34
62100,note_on,0,0,2,,,,,,,,,0,,,44,0
62100,note_on,0,0,2,,,,,,,,,0,,,49,0
62100,note_on,0,0,2,,,,,,,,,0,,,49,34
62100,note_on,60,0,2,,,,,,,,,0,,,52,0
62100,note_on,0,0,1,,,,,,,,,0,,,61,0
62100,note_on,0,0,1,,,,,,,,,0,,,61,44
62100,note_on,0,0,1,,,,,,,,,0,,,68,44
62100,note_on,0,0,1,,,,,,,,,0,,,68,0
62100,note_on,0,0,2,,,,,,,,,0,,,52,40
62100,note_on,60,0,1,,,,,,,,,0,,,64,0
62100,note_on,0,0,1,,,,,,,,,0,,,64,44
62160,note_on,0,0,2,,,,,,,,,0,,,52,40
62160,note_on,60,0,2,,,,,,,,,0,,,52,0
62160,note_on,0,0,2,,,,,,,,,0,,,49,34
62160,note_on,0,0,2,,,,,,,,,0,,,44,0
62160,note_on,0,0,2,,,,,,,,,0,,,44,34
62160,note_on,0,0,1,,,,,,,,,0,,,64,44
62160,note_on,0,0,1,,,,,,,,,0,,,61,44
62160,note_on,0,0,1,,,,,,,,,0,,,68,44
62160,note_on,0,0,1,,,,,,,,,0,,,68,0
62160,note_on,60,0,1,,,,,,,,,0,,,64,0
62160,note_on,0,0,2,,,,,,,,,0,,,49,0
62160,note_on,0,0,1,,,,,,,,,0,,,61,0
62220,note_on,0,0,2,,,,,,,,,0,,,52,40
62220,note_on,0,0,2,,,,,,,,,0,,,44,34
62220,note_on,0,0,2,,,,,,,,,0,,,49,34
62220,control_change,0,0,2,,,,,,,,,0,64,0,,
62220,note_on,0,0,2,,,,,,,,,0,,,44,0
62220,note_on,0,0,1,,,,,,,,,0,,,68,0
62220,note_on,0,0,1,,,,,,,,,0,,,61,0
62220,note_on,0,0,1,,,,,,,,,0,,,68,44
62220,note_on,0,0,1,,,,,,,,,0,,,61,44
62220,note_on,0,0,1,,,,,,,,,0,,,64,44
62220,note_on,60,0,1,,,,,,,,,0,,,64,0
62220,note_on,0,0,2,,,,,,,,,0,,,49,0
62220,note_on,60,0,2,,,,,,,,,0,,,52,0
62278,control_change,58,0,2,,,,,,,,,0,64,127,,
62280,note_on,0,0,2,,,,,,,,,0,,,44,0
62280,note_on,60,0,1,,,,,,,,,0,,,64,0
62280,note_on,0,0,2,,,,,,,,,0,,,49,34
62280,note_on,0,0,1,,,,,,,,,0,,,68,0
62280,note_on,0,0,1,,,,,,,,,0,,,68,44
62280,note_on,0,0,1,,,,,,,,,0,,,61,0
62280,note_on,0,0,2,,,,,,,,,0,,,52,39
62280,note_on,2,0,2,,,,,,,,,0,,,52,0
62280,note_on,0,0,2,,,,,,,,,0,,,49,0
62280,note_on,0,0,2,,,,,,,,,0,,,44,34
62280,note_on,0,0,1,,,,,,,,,0,,,61,44
62280,note_on,0,0,1,,,,,,,,,0,,,64,44
62340,note_on,60,0,2,,,,,,,,,0,,,52,0
62340,note_on,0,0,2,,,,,,,,,0,,,44,0
62340,note_on,0,0,2,,,,,,,,,0,,,49,0
62340,note_on,0,0,2,,,,,,,,,0,,,52,39
62340,note_on,0,0,1,,,,,,,,,0,,,68,44
62340,note_on,60,0,1,,,,,,,,,0,,,64,0
62340,note_on,0,0,1,,,,,,,,,0,,,61,44
62340,note_on,0,0,2,,,,,,,,,0,,,49,34
62340,note_on,0,0,1,,,,,,,,,0,,,64,44
62340,note_on,0,0,1,,,,,,,,,0,,,68,0
62340,note_on,0,0,1,,,,,,,,,0,,,61,0
62340,note_on,0,0,2,,,,,,,,,0,,,44,34
62400,note_on,0,0,1,,,,,,,,,0,,,61,0
62400,note_on,0,0,1,,,,,,,,,0,,,68,0
62400,note_on,0,0,1,,,,,,,,,0,,,73,0
62400,note_on,60,0,1,,,,,,,,,0,,,64,0
62400,note_on,0,0,2,,,,,,,,,0,,,52,37
62400,note_on,0,0,2,,,,,,,,,0,,,49,30
62400,note_on,0,0,2,,,,,,,,,0,,,44,30
62400,note_on,0,0,2,,,,,,,,,0,,,44,0
62400,note_on,0,0,2,,,,,,,,,0,,,49,0
62400,note_on,60,0,2,,,,,,,,,0,,,52,0
62400,note_on,0,0,1,,,,,,,,,0,,,68,48
62460,note_on,0,0,1,,,,,,,,,0,,,64,26
62460,note_on,0,0,2,,,,,,,,,0,,,49,0
62460,note_on,0,0,2,,,,,,,,,0,,,44,0
62460,note_on,0,0,2,,,,,,,,,0,,,44,30
62460,note_on,0,0,2,,,,,,,,,0,,,49,30
62460,note_on,0,0,2,,,,,,,,,0,,,52,36
62460,note_on,60,0,2,,,,,,,,,0,,,52,0
62460,note_on,60,0,1,,,,,,,,,0,,,61,26
62517,set_tempo,537,1,0,,,,,,547945,,,,,,,
62520,note_on,0,0,1,,,,,,,,,0,,,61,0
62520,note_on,0,0,1,,,,,,,,,0,,,68,42
62520,note_on,60,0,1,,,,,,,,,0,,,64,0
62520,note_on,0,0,2,,,,,,,,,0,,,44,28
62520,note_on,0,0,2,,,,,,,,,0,,,49,28
62520,note_on,0,0,2,,,,,,,,,0,,,44,0
62520,note_on,0,0,2,,,,,,,,,0,,,49,0
62520,note_on,60,0,2,,,,,,,,,0,,,52,0
62520,note_on,0,0,2,,,,,,,,,0,,,52,34
62520,note_on,0,0,1,,,,,,,,,0,,,68,0
62580,note_on,0,0,2,,,,,,,,,0,,,49,25
62580,note_on,0,0,2,,,,,,,,,0,,,49,0
62580,note_on,0,0,2,,,,,,,,,0,,,44,0
62580,note_on,0,0,2,,,,,,,,,0,,,44,25
62580,note_on,0,0,2,,,,,,,,,0,,,52,30
62580,note_on,0,0,1,,,,,,,,,0,,,64,26
62580,note_on,60,0,2,,,,,,,,,0,,,52,0
62580,note_on,60,0,1,,,,,,,,,0,,,61,26
62618,control_change,38,0,2,,,,,,,,,0,64,0,,
62640,note_on,0,0,1,,,,,,,,,0,,,61,0
62640,note_on,60,0,1,,,,,,,,,0,,,64,0
62640,set_tempo,123,1,0,,,,,,481928,,,,,,,
62640,note_on,0,0,2,,,,,,,,,0,,,44,0
62640,note_on,0,0,2,,,,,,,,,0,,,32,26
62640,note_on,0,0,2,,,,,,,,,0,,,49,0
62640,note_on,22,0,2,,,,,,,,,0,,,52,0
62640,note_on,0,0,1,,,,,,,,,0,,,68,59
62640,note_on,0,0,1,,,,,,,,,0,,,68,0
62642,control_change,2,0,2,,,,,,,,,0,64,125,,
62700,note_on,0,0,1,,,,,,,,,0,,,60,26
62700,note_on,0,0,2,,,,,,,,,0,,,54,26
62700,note_on,0,0,2,,,,,,,,,0,,,51,22
62700,note_on,0,0,2,,,,,,,,,0,,,44,22
62700,note_on,60,0,1,,,,,,,,,0,,,63,26
62700,note_on,58,0,2,,,,,,,,,0,,,32,0
62754,control_change,54,0,2,,,,,,,,,0,64,1,,
62760,note_on,60,0,1,,,,,,,,,0,,,60,0
62760,note_on,0,0,1,,,,,,,,,0,,,63,0
62760,note_on,0,0,1,,,,,,,,,0,,,68,0
62760,note_on,0,0,1,,,,,,,,,0,,,69,61
62760,note_on,0,0,2,,,,,,,,,0,,,51,0
62760,note_on,6,0,2,,,,,,,,,0,,,44,0
62760,note_on,0,0,2,,,,,,,,,0,,,51,22
62760,note_on,0,0,2,,,,,,,,,0,,,44,22
62760,note_on,0,0,2,,,,,,,,,0,,,54,26
62760,note_on,0,0,2,,,,,,,,,0,,,54,0
62762,set_tempo,122,1,0,,,,,,444444,,,,,,,
62780,control_change,20,0,2,,,,,,,,,0,64,127,,
62820,note_on,0,0,1,,,,,,,,,0,,,63,26
62820,note_on,60,0,1,,,,,,,,,0,,,60,26
62820,note_on,40,0,2,,,,,,,,,0,,,44,0
62820,note_on,0,0,2,,,,,,,,,0,,,51,22
62820,note_on,0,0,2,,,,,,,,,0,,,51,0
62820,note_on,0,0,2,,,,,,,,,0,,,54,0
62820,note_on,0,0,2,,,,,,,,,0,,,54,26
62820,note_on,0,0,2,,,,,,,,,0,,,44,22
62880,note_on,0,0,1,,,,,,,,,0,,,63,26
62880,note_on,0,0,1,,,,,,,,,0,,,60,26
62880,note_on,0,0,1,,,,,,,,,0,,,60,0
62880,note_on,60,0,1,,,,,,,,,0,,,63,0
62880,note_on,0,0,2,,,,,,,,,0,,,44,22
62880,note_on,60,0,2,,,,,,,,,0,,,44,0
62880,note_on,0,0,2,,,,,,,,,0,,,51,22
62880,note_on,0,0,2,,,,,,,,,0,,,54,0
62880,note_on,0,0,2,,,,,,,,,0,,,54,26
62880,note_on,0,0,2,,,,,,,,,0,,,51,0
62940,note_on,0,0,2,,,,,,,,,0,,,54,26
62940,note_on,0,0,2,,,,,,,,,0,,,44,22
62940,note_on,0,0,2,,,,,,,,,0,,,51,22
62940,note_on,0,0,2,,,,,,,,,0,,,44,0
62940,note_on,0,0,2,,,,,,,,,0,,,51,0
62940,note_on,60,0,2,,,,,,,,,0,,,54,0
62940,note_on,60,0,1,,,,,,,,,0,,,63,0
62940,note_on,0,0,1,,,,,,,,,0,,,60,0
62940,note_on,0,0,1,,,,,,,,,0,,,60,26
62940,note_on,0,0,1,,,,,,,,,0,,,63,26
63000,note_on,60,0,1,,,,,,,,,0,,,63,0
63000,note_on,0,0,1,,,,,,,,,0,,,60,0
63000,note_on,0,0,2,,,,,,,,,0,,,51,22
63000,note_on,0,0,1,,,,,,,,,0,,,63,26
63000,note_on,60,0,2,,,,,,,,,0,,,54,0
63000,note_on,0,0,2,,,,,,,,,0,,,44,0
63000,note_on,0,0,2,,,,,,,,,0,,,51,0
63000,note_on,0,0,2,,,,,,,,,0,,,44,22
63000,note_on,0,0,2,,,,,,,,,0,,,54,26
63000,note_on,0,0,1,,,,,,,,,0,,,60,26
63060,note_on,60,0,2,,,,,,,,,0,,,54,0
63060,note_on,0,0,2,,,,,,,,,0,,,51,0
63060,note_on,0,0,2,,,,,,,,,0,,,44,0
63060,note_on,0,0,2,,,,,,,,,0,,,44,22
63060,note_on,0,0,1,,,,,,,,,0,,,63,26
63060,note_on,0,0,1,,,,,,,,,0,,,60,26
63060,note_on,0,0,1,,,,,,,,,0,,,60,0
63060,note_on,60,0,1,,,,,,,,,0,,,63,0
63060,note_on,0,0,2,,,,,,,,,0,,,54,26
63060,note_on,0,0,2,,,,,,,,,0,,,51,22
63120,note_on,0,0,1,,,,,,,,,0,,,60,0
63120,note_on,60,0,1,,,,,,,,,0,,,63,0
63120,note_on,0,0,1,,,,,,,,,0,,,69,0
63120,note_on,0,0,1,,,,,,,,,0,,,68,60
63120,note_on,0,0,2,,,,,,,,,0,,,51,0
63120,note_on,0,0,2,,,,,,,,,0,,,54,0
63120,note_on,0,0,2,,,,,,,,,0,,,54,26
63120,note_on,0,0,2,,,,,,,,,0,,,51,22
63120,note_on,0,0,2,,,,,,,,,0,,,44,22
63120,note_on,60,0,2,,,,,,,,,0,,,44,0
63180,note_on,0,0,2,,,,,,,,,0,,,51,0
63180,note_on,0,0,2,,,,,,,,,0,,,54,0
63180,note_on,0,0,2,,,,,,,,,0,,,54,26
63180,note_on,60,0,2,,,,,,,,,0,,,44,0
63180,note_on,0,0,1,,,,,,,,,0,,,63,26
63180,note_on,60,0,1,,,,,,,,,0,,,60,26
63180,note_on,0,0,2,,,,,,,,,0,,,44,22
63180,note_on,0,0,2,,,,,,,,,0,,,51,22
63240,note_on,60,0,2,,,,,,,,,0,,,44,0
63240,note_on,0,0,2,,,,,,,,,0,,,51,0
63240,note_on,0,0,2,,,,,,,,,0,,,54,0
63240,note_on,0,0,2,,,,,,,,,0,,,44,22
63240,note_on,0,0,2,,,,,,,,,0,,,54,26
63240,note_on,0,0,2,,,,,,,,,0,,,51,22
63240,note_on,0,0,1,,,,,,,,,0,,,60,0
63240,note_on,0,0,1,,,,,,,,,0,,,66,56
63240,note_on,60,0,1,,,,,,,,,0,,,63,0
63240,note_on,0,0,1,,,,,,,,,0,,,68,0
63300,note_on,60,0,2,,,,,,,,,0,,,54,0
63300,note_on,0,0,2,,,,,,,,,0,,,54,26
63300,note_on,0,0,2,,,,,,,,,0,,,44,22
63300,note_on,0,0,2,,,,,,,,,0,,,51,22
63300,note_on,0,0,2,,,,,,,,,0,,,44,0
63300,note_on,60,0,1,,,,,,,,,0,,,60,34
63300,note_on,0,0,2,,,,,,,,,0,,,51,0
63300,note_on,0,0,1,,,,,,,,,0,,,63,26
63336,control_change,36,0,2,,,,,,,,,0,64,0,,
63360,set_tempo,598,1,0,,,,,,428571,,,,,,,
63360,note_on,0,0,1,,,,,,,,,0,,,60,0
63360,note_on,0,0,1,,,,,,,,,0,,,66,0
63360,note_on,0,0,1,,,,,,,,,0,,,64,69
63360,note_on,24,0,2,,,,,,,,,0,,,54,0
63360,note_on,0,0,2,,,,,,,,,0,,,44,0
63360,note_on,0,0,2,,,,,,,,,0,,,51,0
63360,note_on,0,0,2,,,,,,,,,0,,,32,26
63360,note_on,60,0,1,,,,,,,,,0,,,63,0
63362,control_change,2,0,2,,,,,,,,,0,64,127,,
63420,note_on,0,0,1,,,,,,,,,0,,,61,26
63420,note_on,0,0,2,,,,,,,,,0,,,49,22
63420,note_on,58,0,2,,,,,,,,,0,,,32,0
63420,note_on,0,0,2,,,,,,,,,0,,,44,22
63420,note_on,60,0,1,,,,,,,,,0,,,56,26
63420,note_on,0,0,2,,,,,,,,,0,,,52,26
63480,note_on,60,0,2,,,,,,,,,0,,,44,0
63480,note_on,0,0,2,,,,,,,,,0,,,49,0
63480,note_on,0,0,1,,,,,,,,,0,,,64,0
63480,note_on,0,0,1,,,,,,,,,0,,,68,64
63480,note_on,0,0,2,,,,,,,,,0,,,52,0
63480,note_on,0,0,2,,,,,,,,,0,,,44,24
63480,note_on,0,0,2,,,,,,,,,0,,,49,24
63480,note_on,0,0,2,,,,,,,,,0,,,52,28
63480,note_on,0,0,1,,,,,,,,,0,,,56,0
63480,note_on,60,0,1,,,,,,,,,0,,,61,0
63540,note_on,60,0,2,,,,,,,,,0,,,52,0
63540,note_on,0,0,2,,,,,,,,,0,,,44,24
63540,note_on,0,0,2,,,,,,,,,0,,,49,0
63540,note_on,60,0,1,,,,,,,,,0,,,64,29
63540,note_on,0,0,1,,,,,,,,,0,,,61,29
63540,note_on,0,0,2,,,,,,,,,0,,,49,24
63540,note_on,0,0,2,,,,,,,,,0,,,52,29
63540,note_on,0,0,2,,,,,,,,,0,,,44,0
63600,note_on,0,0,2,,,,,,,,,0,,,49,26
63600,note_on,0,0,2,,,,,,,,,0,,,44,26
63600,note_on,0,0,2,,,,,,,,,0,,,44,0
63600,note_on,0,0,2,,,,,,,,,0,,,49,0
63600,note_on,0,0,2,,,,,,,,,0,,,52,30
63600,note_on,60,0,2,,,,,,,,,0,,,52,0
63600,note_on,60,0,1,,,,,,,,,0,,,61,0
63600,note_on,0,0,1,,,,,,,,,0,,,64,0
63600,note_on,0,0,1,,,,,,,,,0,,,68,0
63600,note_on,0,0,1,,,,,,,,,0,,,73,68
63660,note_on,0,0,2,,,,,,,,,0,,,49,26
63660,note_on,0,0,2,,,,,,,,,0,,,44,26
63660,note_on,0,0,2,,,,,,,,,0,,,52,31
63660,note_on,0,0,2,,,,,,,,,0,,,44,0
63660,note_on,0,0,2,,,,,,,,,0,,,49,0
63660,note_on,0,0,1,,,,,,,,,0,,,68,31
63660,note_on,60,0,1,,,,,,,,,0,,,64,31
63660,note_on,60,0,2,,,,,,,,,0,,,52,0
63720,note_on,0,0,2,,,,,,,,,0,,,49,28
63720,note_on,0,0,1,,,,,,,,,0,,,73,0
63720,note_on,0,0,1,,,,,,,,,0,,,76,77
63720,note_on,60,0,2,,,,,,,,,0,,,49,0
63720,note_on,0,0,2,,,,,,,,,0,,,44,0
63720,note_on,0,0,1,,,,,,,,,0,,,64,0
63720,note_on,0,0,2,,,,,,,,,0,,,44,28
63720,note_on,0,0,2,,,,,,,,,0,,,52,34
63720,note_on,0,0,2,,,,,,,,,0,,,52,0
63720,note_on,60,0,1,,,,,,,,,0,,,68,0
63780,note_on,0,0,2,,,,,,,,,0,,,52,35
63780,note_on,0,0,2,,,,,,,,,0,,,44,29
63780,note_on,0,0,2,,,,,,,,,0,,,49,29
63780,note_on,0,0,2,,,,,,,,,0,,,44,0
63780,note_on,60,0,2,,,,,,,,,0,,,52,0
63780,note_on,0,0,2,,,,,,,,,0,,,49,0
63780,note_on,0,0,1,,,,,,,,,0,,,73,34
63780,note_on,60,0,1,,,,,,,,,0,,,68,34
63840,note_on,0,0,2,,,,,,,,,0,,,44,30
63840,note_on,60,0,1,,,,,,,,,0,,,73,0
63840,note_on,0,0,1,,,,,,,,,0,,,68,0
63840,note_on,0,0,1,,,,,,,,,0,,,76,0
63840,note_on,0,0,1,,,,,,,,,0,,,80,75
63840,note_on,60,0,2,,,,,,,,,0,,,52,0
63840,note_on,0,0,2,,,,,,,,,0,,,44,0
63840,note_on,0,0,2,,,,,,,,,0,,,49,0
63840,note_on,0,0,2,,,,,,,,,0,,,52,36
63840,note_on,0,0,2,,,,,,,,,0,,,49,30
63900,note_on,0,0,1,,,,,,,,,0,,,76,37
63900,note_on,0,0,2,,,,,,,,,0,,,49,30
63900,note_on,0,0,2,,,,,,,,,0,,,44,30
63900,note_on,0,0,2,,,,,,,,,0,,,52,37
63900,note_on,0,0,2,,,,,,,,,0,,,44,0
63900,note_on,0,0,2,,,,,,,,,0,,,49,0
63900,note_on,60,0,2,,,,,,,,,0,,,52,0
63900,note_on,60,0,1,,,,,,,,,0,,,73,37
63960,note_on,60,0,1,,,,,,,,,0,,,76,0
63960,note_on,0,0,1,,,,,,,,,0,,,73,0
63960,note_on,0,0,1,,,,,,,,,0,,,80,0
63960,note_on,0,0,1,,,,,,,,,0,,,85,79
63960,note_on,0,0,2,,,,,,,,,0,,,49,33
63960,note_on,0,0,2,,,,,,,,,0,,,44,33
63960,note_on,0,0,2,,,,,,,,,0,,,52,0
63960,note_on,0,0,2,,,,,,,,,0,,,44,0
63960,note_on,60,0,2,,,,,,,,,0,,,49,0
63960,note_on,0,0,2,,,,,,,,,0,,,52,39
64020,note_on,0,0,2,,,,,,,,,0,,,44,0
64020,note_on,60,0,1,,,,,,,,,0,,,76,39
64020,note_on,0,0,1,,,,,,,,,0,,,80,39
64020,note_on,0,0,2,,,,,,,,,0,,,49,0
64020,note_on,0,0,2,,,,,,,,,0,,,52,39
64020,note_on,0,0,2,,,,,,,,,0,,,49,34
64020,note_on,0,0,2,,,,,,,,,0,,,44,34
64020,note_on,60,0,2,,,,,,,,,0,,,52,0
64062,control_change,42,0,2,,,,,,,,,0,64,0,,
64080,note_on,0,0,1,,,,,,,,,0,,,76,0
64080,note_on,0,0,1,,,,,,,,,0,,,85,0
64080,note_on,0,0,1,,,,,,,,,0,,,87,99
64080,note_on,60,0,1,,,,,,,,,0,,,80,0
64080,note_on,0,0,2,,,,,,,,,0,,,52,0
64080,note_on,0,0,2,,,,,,,,,0,,,33,47
64080,set_tempo,720,1,0,,,,,,478088,,,,,,,
64080,note_on,0,0,2,,,,,,,,,0,,,44,0
64080,note_on,18,0,2,,,,,,,,,0,,,49,0
64082,control_change,2,0,2,,,,,,,,,0,64,125,,
64140,note_on,0,0,2,,,,,,,,,0,,,49,35
64140,note_on,0,0,2,,,,,,,,,0,,,52,42
64140,note_on,58,0,2,,,,,,,,,0,,,33,0
64140,note_on,60,0,1,,,,,,,,,0,,,75,51
64140,note_on,0,0,2,,,,,,,,,0,,,45,35
64140,note_on,0,0,1,,,,,,,,,0,,,79,51
64183,control_change,43,0,2,,,,,,,,,0,64,0,,
64197,set_tempo,117,1,0,,,,,,444444,,,,,,,
64200,note_on,0,0,2,,,,,,,,,0,,,52,45
64200,note_on,0,0,2,,,,,,,,,0,,,49,38
64200,note_on,0,0,2,,,,,,,,,0,,,45,38
64200,note_on,0,0,2,,,,,,,,,0,,,52,0
64200,note_on,0,0,2,,,,,,,,,0,,,49,0
64200,note_on,17,0,2,,,,,,,,,0,,,45,0
64200,note_on,60,0,1,,,,,,,,,0,,,79,0
64200,note_on,0,0,1,,,,,,,,,0,,,75,0
64200,note_on,0,0,1,,,,,,,,,0,,,87,0
64200,note_on,0,0,1,,,,,,,,,0,,,88,96
64211,control_change,11,0,2,,,,,,,,,0,64,127,,
64260,note_on,0,0,2,,,,,,,,,0,,,45,36
64260,note_on,49,0,2,,,,,,,,,0,,,52,0
64260,note_on,0,0,2,,,,,,,,,0,,,52,44
64260,note_on,0,0,2,,,,,,,,,0,,,45,0
64260,note_on,0,0,2,,,,,,,,,0,,,49,0
64260,note_on,0,0,2,,,,,,,,,0,,,49,36
64260,note_on,0,0,1,,,,,,,,,0,,,76,45
64260,note_on,60,0,1,,,,,,,,,0,,,79,45
64320,note_on,0,0,1,,,,,,,,,0,,,76,40
64320,note_on,0,0,1,,,,,,,,,0,,,79,40
64320,note_on,0,0,1,,,,,,,,,0,,,79,0
64320,note_on,60,0,1,,,,,,,,,0,,,76,0
64320,note_on,0,0,2,,,,,,,,,0,,,49,34
64320,note_on,0,0,2,,,,,,,,,0,,,45,34
64320,note_on,60,0,2,,,,,,,,,0,,,49,0
64320,note_on,0,0,2,,,,,,,,,0,,,45,0
64320,note_on,0,0,2,,,,,,,,,0,,,52,0
64320,note_on,0,0,2,,,,,,,,,0,,,52,40
64380,note_on,0,0,2,,,,,,,,,0,,,45,0
64380,note_on,0,0,1,,,,,,,,,0,,,76,39
64380,note_on,0,0,2,,,,,,,,,0,,,52,39
64380,note_on,60,0,1,,,,,,,,,0,,,76,0
64380,note_on,0,0,1,,,,,,,,,0,,,79,0
64380,note_on,0,0,2,,,,,,,,,0,,,52,0
64380,note_on,60,0,2,,,,,,,,,0,,,49,0
64380,note_on,0,0,2,,,,,,,,,0,,,45,33
64380,note_on,0,0,1,,,,,,,,,0,,,79,39
64380,note_on,0,0,2,,,,,,,,,0,,,49,33
64440,note_on,60,0,1,,,,,,,,,0,,,76,0
64440,note_on,0,0,1,,,,,,,,,0,,,79,0
64440,note_on,0,0,1,,,,,,,,,0,,,79,37
64440,note_on,0,0,1,,,,,,,,,0,,,76,37
64440,note_on,60,0,2,,,,,,,,,0,,,49,0
64440,note_on,0,0,2,,,,,,,,,0,,,45,0
64440,note_on,0,0,2,,,,,,,,,0,,,52,0
64440,note_on,0,0,2,,,,,,,,,0,,,45,30
64440,note_on,0,0,2,,,,,,,,,0,,,49,30
64440,note_on,0,0,2,,,,,,,,,0,,,52,37
64500,note_on,60,0,1,,,,,,,,,0,,,76,0
64500,note_on,0,0,1,,,,,,,,,0,,,76,37
64500,note_on,0,0,2,,,,,,,,,0,,,52,35
64500,note_on,0,0,2,,,,,,,,,0,,,49,29
64500,note_on,0,0,2,,,,,,,,,0,,,45,29
64500,note_on,0,0,2,,,,,,,,,0,,,52,0
64500,note_on,0,0,2,,,,,,,,,0,,,45,0
64500,note_on,60,0,2,,,,,,,,,0,,,49,0
64500,note_on,0,0,1,,,,,,,,,0,,,79,37
64500,note_on,0,0,1,,,,,,,,,0,,,79,0
64537,control_change,37,0,2,,,,,,,,,0,64,0,,
64560,note_on,60,0,1,,,,,,,,,0,,,79,0
64560,note_on,0,0,1,,,,,,,,,0,,,76,0
64560,note_on,0,0,1,,,,,,,,,0,,,88,0
64560,note_on,0,0,1,,,,,,,,,0,,,87,88
64560,note_on,0,0,2,,,,,,,,,0,,,49,0
64560,note_on,23,0,2,,,,,,,,,0,,,52,0
64560,note_on,0,0,2,,,,,,,,,0,,,45,28
64560,note_on,0,0,2,,,,,,,,,0,,,51,34
64560,note_on,0,0,2,,,,,,,,,0,,,45,0
64570,control_change,10,0,2,,,,,,,,,0,64,127,,
64620,note_on,0,0,2,,,,,,,,,0,,,51,0
64620,note_on,0,0,2,,,,,,,,,0,,,45,26
64620,note_on,0,0,2,,,,,,,,,0,,,51,31
64620,note_on,0,0,1,,,,,,,,,0,,,79,31
64620,note_on,60,0,1,,,,,,,,,0,,,75,31
64620,note_on,50,0,2,,,,,,,,,0,,,45,0
64677,set_tempo,480,1,0,,,,,,487805,,,,,,,
64680,note_on,0,0,2,,,,,,,,,0,,,51,0
64680,note_on,60,0,2,,,,,,,,,0,,,45,0
64680,note_on,0,0,1,,,,,,,,,0,,,87,0
64680,note_on,0,0,1,,,,,,,,,0,,,75,0
64680,note_on,0,0,1,,,,,,,,,0,,,85,81
64680,note_on,0,0,2,,,,,,,,,0,,,45,25
64680,note_on,60,0,1,,,,,,,,,0,,,79,0
64680,note_on,0,0,2,,,,,,,,,0,,,51,30
64740,note_on,60,0,2,,,,,,,,,0,,,45,0
64740,note_on,0,0,1,,,,,,,,,0,,,79,28
64740,note_on,0,0,2,,,,,,,,,0,,,51,0
64740,note_on,0,0,2,,,,,,,,,0,,,51,28
64740,note_on,0,0,2,,,,,,,,,0,,,45,24
64740,note_on,60,0,1,,,,,,,,,0,,,73,28
64777,control_change,37,0,2,,,,,,,,,0,64,0,,
64797,set_tempo,120,1,0,,,,,,428571,,,,,,,
64800,note_on,23,0,2,,,,,,,,,0,,,45,0
64800,note_on,0,0,2,,,,,,,,,0,,,51,0
64800,note_on,0,0,2,,,,,,,,,0,,,32,26
64800,control_change,0,0,2,,,,,,,,,0,64,126,,
64800,note_on,0,0,1,,,,,,,,,0,,,85,68
64800,note_on,60,0,1,,,,,,,,,0,,,79,0
64800,note_on,0,0,1,,,,,,,,,0,,,73,0
64800,note_on,0,0,1,,,,,,,,,0,,,85,0
64860,note_on,0,0,2,,,,,,,,,0,,,44,26
64860,note_on,60,0,1,,,,,,,,,0,,,75,26
64860,note_on,0,0,1,,,,,,,,,0,,,80,26
64860,note_on,60,0,2,,,,,,,,,0,,,32,0
64920,note_on,0,0,1,,,,,,,,,0,,,84,59
64920,note_on,0,0,2,,,,,,,,,0,,,44,26
64920,note_on,0,0,2,,,,,,,,,0,,,51,26
64920,note_on,0,0,2,,,,,,,,,0,,,48,26
64920,note_on,60,0,2,,,,,,,,,0,,,44,0
64920,note_on,60,0,1,,,,,,,,,0,,,80,0
64920,note_on,0,0,1,,,,,,,,,0,,,85,0
64920,note_on,0,0,1,,,,,,,,,0,,,75,0
64980,note_on,60,0,1,,,,,,,,,0,,,75,26
64980,note_on,60,0,2,,,,,,,,,0,,,44,0
64980,note_on,0,0,2,,,,,,,,,0,,,48,0
64980,note_on,0,0,2,,,,,,,,,0,,,48,22
64980,note_on,0,0,2,,,,,,,,,0,,,51,26
64980,note_on,0,0,2,,,,,,,,,0,,,44,22
64980,note_on,0,0,1,,,,,,,,,0,,,80,26
64980,note_on,0,0,2,,,,,,,,,0,,,51,0
65040,note_on,0,0,2,,,,,,,,,0,,,48,0
65040,note_on,0,0,1,,,,,,,,,0,,,75,0
65040,note_on,0,0,2,,,,,,,,,0,,,44,22
65040,note_on,60,0,1,,,,,,,,,0,,,80,0
65040,note_on,0,0,2,,,,,,,,,0,,,48,22
65040,note_on,0,0,2,,,,,,,,,0,,,51,0
65040,note_on,60,0,2,,,,,,,,,0,,,44,0
65040,note_on,0,0,2,,,,,,,,,0,,,51,26
65040,note_on,0,0,1,,,,,,,,,0,,,80,58
65040,note_on,0,0,1,,,,,,,,,0,,,84,0
65100,note_on,0,0,2,,,,,,,,,0,,,51,0
65100,note_on,0,0,1,,,,,,,,,0,,,75,26
65100,note_on,60,0,1,,,,,,,,,0,,,72,26
65100,note_on,60,0,2,,,,,,,,,0,,,44,0
65100,note_on,0,0,2,,,,,,,,,0,,,48,0
65100,note_on,0,0,2,,,,,,,,,0,,,48,22
65100,note_on,0,0,2,,,,,,,,,0,,,51,26
65100,note_on,0,0,2,,,,,,,,,0,,,44,22
65160,note_on,0,0,2,,,,,,,,,0,,,48,22
65160,note_on,0,0,2,,,,,,,,,0,,,48,0
65160,note_on,0,0,2,,,,,,,,,0,,,51,0
65160,note_on,60,0,2,,,,,,,,,0,,,44,0
65160,note_on,0,0,1,,,,,,,,,0,,,80,0
65160,note_on,60,0,1,,,,,,,,,0,,,75,0
65160,note_on,0,0,2,,,,,,,,,0,,,44,22
65160,note_on,0,0,1,,,,,,,,,0,,,75,58
65160,note_on,0,0,1,,,,,,,,,0,,,72,0
65160,note_on,0,0,2,,,,,,,,,0,,,51,26
65220,note_on,60,0,1,,,,,,,,,0,,,68,26
65220,note_on,60,0,2,,,,,,,,,0,,,44,0
65220,note_on,0,0,2,,,,,,,,,0,,,48,0
65220,note_on,0,0,2,,,,,,,,,0,,,48,22
65220,note_on,0,0,2,,,,,,,,,0,,,51,26
65220,note_on,0,0,2,,,,,,,,,0,,,44,22
65220,note_on,0,0,2,,,,,,,,,0,,,51,0
65220,note_on,0,0,1,,,,,,,,,0,,,72,26
65280,note_on,60,0,2,,,,,,,,,0,,,44,0
65280,note_on,0,0,2,,,,,,,,,0,,,51,0
65280,note_on,0,0,2,,,,,,,,,0,,,48,0
65280,note_on,0,0,2,,,,,,,,,0,,,48,22
65280,note_on,0,0,2,,,,,,,,,0,,,51,26
65280,note_on,0,0,2,,,,,,,,,0,,,44,22
65280,note_on,60,0,1,,,,,,,,,0,,,72,0
65280,note_on,0,0,1,,,,,,,,,0,,,68,0
65280,note_on,0,0,1,,,,,,,,,0,,,75,0
65280,note_on,0,0,1,,,,,,,,,0,,,72,58
65340,note_on,60,0,1,,,,,,,,,0,,,63,26
65340,note_on,0,0,1,,,,,,,,,0,,,68,26
65340,note_on,0,0,2,,,,,,,,,0,,,44,22
65340,note_on,0,0,2,,,,,,,,,0,,,51,26
65340,note_on,60,0,2,,,,,,,,,0,,,44,0
65340,note_on,0,0,2,,,,,,,,,0,,,51,0
65340,note_on,0,0,2,,,,,,,,,0,,,48,0
65340,note_on,0,0,2,,,,,,,,,0,,,48,22
65400,note_on,0,0,2,,,,,,,,,0,,,51,26
65400,note_on,0,0,2,,,,,,,,,0,,,48,0
65400,note_on,0,0,2,,,,,,,,,0,,,51,0
65400,note_on,60,0,2,,,,,,,,,0,,,44,0
65400,note_on,0,0,2,,,,,,,,,0,,,48,22
65400,note_on,0,0,1,,,,,,,,,0,,,68,58
65400,note_on,0,0,1,,,,,,,,,0,,,72,0
65400,note_on,0,0,1,,,,,,,,,0,,,63,0
65400,note_on,60,0,1,,,,,,,,,0,,,68,0
65400,note_on,0,0,2,,,,,,,,,0,,,44,22
65460,note_on,60,0,1,,,,,,,,,0,,,60,26
65460,note_on,0,0,2,,,,,,,,,0,,,44,22
65460,note_on,60,0,2,,,,,,,,,0,,,44,0
65460,note_on,0,0,2,,,,,,,,,0,,,51,0
65460,note_on,0,0,2,,,,,,,,,0,,,48,0
65460,note_on,0,0,2,,,,,,,,,0,,,48,22
65460,note_on,0,0,2,,,,,,,,,0,,,51,26
65460,note_on,0,0,1,,,,,,,,,0,,,63,26
65492,control_change,32,0,2,,,,,,,,,0,64,0,,
65517,set_tempo,720,1,0,,,,,,480000,,,,,,,
65520,note_on,0,0,1,,,,,,,,,0,,,68,59
65520,note_on,60,0,1,,,,,,,,,0,,,63,0
65520,set_tempo,3,1,0,,,,,,519481,,,,,,,
65520,note_on,0,0,2,,,,,,,,,0,,,32,26
65520,note_on,0,0,1,,,,,,,,,0,,,60,0
65520,note_on,0,0,2,,,,,,,,,0,,,48,0
65520,note_on,0,0,2,,,,,,,,,0,,,51,0
65520,note_on,28,0,2,,,,,,,,,0,,,44,0
65520,control_change,0,0,2,,,,,,,,,0,64,124,,
65520,note_on,0,0,1,,,,,,,,,0,,,68,0
65580,note_on,0,0,2,,,,,,,,,0,,,54,26
65580,note_on,0,0,2,,,,,,,,,0,,,51,22
65580,note_on,0,0,2,,,,,,,,,0,,,44,22
65580,note_on,60,0,2,,,,,,,,,0,,,32,0
65580,note_on,60,0,1,,,,,,,,,0,,,63,26
65580,note_on,0,0,1,,,,,,,,,0,,,60,26
65626,control_change,46,0,2,,,,,,,,,0,64,0,,
65640,note_on,0,0,2,,,,,,,,,0,,,44,22
65640,note_on,0,0,2,,,,,,,,,0,,,51,22
65640,note_on,0,0,2,,,,,,,,,0,,,54,26
65640,note_on,0,0,2,,,,,,,,,0,,,54,0
65640,note_on,0,0,2,,,,,,,,,0,,,51,0
65640,note_on,14,0,2,,,,,,,,,0,,,44,0
65640,note_on,0,0,1,,,,,,,,,0,,,63,0
65640,note_on,0,0,1,,,,,,,,,0,,,68,0
65640,note_on,0,0,1,,,,,,,,,0,,,69,61
65640,note_on,60,0,1,,,,,,,,,0,,,60,0
65640,set_tempo,120,1,0,,,,,,444444,,,,,,,
65646,control_change,6,0,2,,,,,,,,,0,64,126,,
65700,note_on,60,0,1,,,,,,,,,0,,,60,26
65700,note_on,0,0,1,,,,,,,,,0,,,63,26
65700,note_on,54,0,2,,,,,,,,,0,,,44,0
65700,note_on,0,0,2,,,,,,,,,0,,,51,0
65700,note_on,0,0,2,,,,,,,,,0,,,54,26
65700,note_on,0,0,2,,,,,,,,,0,,,51,22
65700,note_on,0,0,2,,,,,,,,,0,,,44,22
65700,note_on,0,0,2,,,,,,,,,0,,,54,0
65760,note_on,0,0,1,,,,,,,,,0,,,60,26
65760,note_on,0,0,1,,,,,,,,,0,,,60,0
65760,note_on,60,0,1,,,,,,,,,0,,,63,0
65760,note_on,0,0,2,,,,,,,,,0,,,51,22
65760,note_on,0,0,2,,,,,,,,,0,,,54,26
65760,note_on,0,0,2,,,,,,,,,0,,,54,0
65760,note_on,0,0,2,,,,,,,,,0,,,51,0
65760,note_on,60,0,2,,,,,,,,,0,,,44,0
65760,note_on,0,0,2,,,,,,,,,0,,,44,22
65760,note_on,0,0,1,,,,,,,,,0,,,63,26
65820,note_on,60,0,2,,,,,,,,,0,,,54,0
65820,note_on,0,0,2,,,,,,,,,0,,,51,0
65820,note_on,0,0,2,,,,,,,,,0,,,44,0
65820,note_on,0,0,2,,,,,,,,,0,,,51,22
65820,note_on,0,0,2,,,,,,,,,0,,,44,22
65820,note_on,0,0,2,,,,,,,,,0,,,54,26
65820,note_on,0,0,1,,,,,,,,,0,,,60,0
65820,note_on,0,0,1,,,,,,,,,0,,,60,26
65820,note_on,0,0,1,,,,,,,,,0,,,63,26
65820,note_on,60,0,1,,,,,,,,,0,,,63,0
65880,note_on,0,0,2,,,,,,,,,0,,,54,26
65880,note_on,0,0,2,,,,,,,,,0,,,51,22
65880,note_on,0,0,2,,,,,,,,,0,,,44,22
65880,note_on,0,0,2,,,,,,,,,0,,,51,0
65880,note_on,0,0,2,,,,,,,,,0,,,44,0
65880,note_on,60,0,2,,,,,,,,,0,,,54,0
65880,note_on,60,0,1,,,,,,,,,0,,,63,0
65880,note_on,0,0,1,,,,,,,,,0,,,60,0
65880,note_on,0,0,1,,,,,,,,,0,,,60,26
65880,note_on,0,0,1,,,,,,,,,0,,,63,26
65940,note_on,0,0,2,,,,,,,,,0,,,44,22
65940,note_on,0,0,2,,,,,,,,,0,,,51,22
65940,note_on,0,0,2,,,,,,,,,0,,,54,26
65940,note_on,0,0,2,,,,,,,,,0,,,44,0
65940,note_on,0,0,2,,,,,,,,,0,,,51,0
65940,note_on,60,0,2,,,,,,,,,0,,,54,0
65940,note_on,0,0,1,,,,,,,,,0,,,60,0
65940,note_on,60,0,1,,,,,,,,,0,,,63,0
65940,note_on,0,0,1,,,,,,,,,0,,,60,26
65940,note_on,0,0,1,,,,,,,,,0,,,63,26
66000,note_on,0,0,2,,,,,,,,,0,,,51,0
66000,note_on,60,0,2,,,,,,,,,0,,,44,0
66000,note_on,60,0,1,,,,,,,,,0,,,63,0
66000,note_on,0,0,1,,,,,,,,,0,,,60,0
66000,note_on,0,0,1,,,,,,,,,0,,,69,0
66000,note_on,0,0,1,,,,,,,,,0,,,68,60
66000,note_on,0,0,2,,,,,,,,,0,,,51,22
66000,note_on,0,0,2,,,,,,,,,0,,,44,22
66000,note_on,0,0,2,,,,,,,,,0,,,54,0
66000,note_on,0,0,2,,,,,,,,,0,,,54,26
66060,note_on,0,0,2,,,,,,,,,0,,,51,0
66060,note_on,60,0,2,,,,,,,,,0,,,44,0
66060,note_on,0,0,2,,,,,,,,,0,,,54,0
66060,note_on,0,0,2,,,,,,,,,0,,,54,26
66060,note_on,0,0,2,,,,,,,,,0,,,51,22
66060,note_on,0,0,1,,,,,,,,,0,,,63,26
66060,note_on,60,0,1,,,,,,,,,0,,,60,26
66060,note_on,0,0,2,,,,,,,,,0,,,44,22
66120,note_on,0,0,1,,,,,,,,,0,,,66,56
66120,note_on,60,0,2,,,,,,,,,0,,,44,0
66120,note_on,0,0,2,,,,,,,,,0,,,54,0
66120,note_on,0,0,2,,,,,,,,,0,,,54,26
66120,note_on,60,0,1,,,,,,,,,0,,,63,0
66120,note_on,0,0,2,,,,,,,,,0,,,44,22
66120,note_on,0,0,2,,,,,,,,,0,,,51,22
66120,note_on,0,0,1,,,,,,,,,0,,,68,0
66120,note_on,0,0,2,,,,,,,,,0,,,51,0
66120,note_on,0,0,1,,,,,,,,,0,,,60,0
66180,note_on,60,0,1,,,,,,,,,0,,,60,34
66180,note_on,0,0,2,,,,,,,,,0,,,51,0
66180,note_on,0,0,1,,,,,,,,,0,,,63,26
66180,note_on,0,0,2,,,,,,,,,0,,,44,0
66180,note_on,0,0,2,,,,,,,,,0,,,51,22
66180,note_on,0,0,2,,,,,,,,,0,,,44,22
66180,note_on,0,0,2,,,,,,,,,0,,,54,26
66180,note_on,60,0,2,,,,,,,,,0,,,54,0
66203,control_change,23,0,2,,,,,,,,,0,64,0,,
66240,set_tempo,600,1,0,,,,,,428571,,,,,,,
66240,control_change,0,0,2,,,,,,,,,0,64,127,,
66240,note_on,0,0,2,,,,,,,,,0,,,51,0
66240,note_on,0,0,2,,,,,,,,,0,,,44,0
66240,note_on,37,0,2,,,,,,,,,0,,,54,0
66240,note_on,0,0,1,,,,,,,,,0,,,64,68
66240,note_on,0,0,1,,,,,,,,,0,,,66,0
66240,note_on,0,0,1,,,,,,,,,0,,,60,0
66240,note_on,60,0,1,,,,,,,,,0,,,63,0
66240,note_on,0,0,2,,,,,,,,,0,,,32,26
66300,note_on,0,0,2,,,,,,,,,0,,,49,22
66300,note_on,0,0,2,,,,,,,,,0,,,44,22
66300,note_on,0,0,2,,,,,,,,,0,,,52,26
66300,note_on,0,0,1,,,,,,,,,0,,,61,26
66300,note_on,60,0,1,,,,,,,,,0,,,56,26
66300,note_on,60,0,2,,,,,,,,,0,,,32,0
66360,note_on,0,0,1,,,,,,,,,0,,,56,0
66360,note_on,0,0,1,,,,,,,,,0,,,64,0
66360,note_on,0,0,1,,,,,,,,,0,,,68,64
66360,note_on,0,0,2,,,,,,,,,0,,,52,26
66360,note_on,0,0,2,,,,,,,,,0,,,49,22
66360,note_on,0,0,2,,,,,,,,,0,,,44,22
66360,note_on,0,0,2,,,,,,,,,0,,,52,0
66360,note_on,0,0,2,,,,,,,,,0,,,49,0
66360,note_on,60,0,2,,,,,,,,,0,,,44,0
66360,note_on,60,0,1,,,,,,,,,0,,,61,0
66420,note_on,60,0,1,,,,,,,,,0,,,64,29
66420,note_on,0,0,1,,,,,,,,,0,,,61,29
66420,note_on,0,0,2,,,,,,,,,0,,,52,26
66420,note_on,0,0,2,,,,,,,,,0,,,49,22
66420,note_on,0,0,2,,,,,,,,,0,,,44,22
66420,note_on,0,0,2,,,,,,,,,0,,,44,0
66420,note_on,0,0,2,,,,,,,,,0,,,49,0
66420,note_on,60,0,2,,,,,,,,,0,,,52,0
66480,note_on,60,0,2,,,,,,,,,0,,,52,0
66480,note_on,0,0,2,,,,,,,,,0,,,49,22
66480,note_on,0,0,2,,,,,,,,,0,,,44,22
66480,note_on,0,0,2,,,,,,,,,0,,,44,0
66480,note_on,0,0,2,,,,,,,,,0,,,49,0
66480,note_on,0,0,2,,,,,,,,,0,,,52,26
66480,note_on,0,0,1,,,,,,,,,0,,,73,68
66480,note_on,0,0,1,,,,,,,,,0,,,68,0
66480,note_on,0,0,1,,,,,,,,,0,,,64,0
66480,note_on,60,0,1,,,,,,,,,0,,,61,0
66540,note_on,60,0,2,,,,,,,,,0,,,52,0
66540,note_on,0,0,2,,,,,,,,,0,,,49,22
66540,note_on,0,0,2,,,,,,,,,0,,,44,22
66540,note_on,0,0,2,,,,,,,,,0,,,44,0
66540,note_on,0,0,2,,,,,,,,,0,,,52,26
66540,note_on,0,0,2,,,,,,,,,0,,,49,0
66540,note_on,0,0,1,,,,,,,,,0,,,68,31
66540,note_on,60,0,1,,,,,,,,,0,,,64,31
66600,note_on,0,0,1,,,,,,,,,0,,,73,0
66600,note_on,0,0,2,,,,,,,,,0,,,52,26
66600,note_on,0,0,2,,,,,,,,,0,,,49,22
66600,note_on,0,0,2,,,,,,,,,0,,,44,22
66600,note_on,0,0,2,,,,,,,,,0,,,44,0
66600,note_on,0,0,2,,,,,,,,,0,,,49,0
66600,note_on,60,0,2,,,,,,,,,0,,,52,0
66600,note_on,0,0,1,,,,,,,,,0,,,64,0
66600,note_on,60,0,1,,,,,,,,,0,,,68,0
66600,note_on,0,0,1,,,,,,,,,0,,,76,71
66660,note_on,0,0,1,,,,,,,,,0,,,73,34
66660,note_on,60,0,2,,,,,,,,,0,,,52,0
66660,note_on,0,0,2,,,,,,,,,0,,,49,0
66660,note_on,0,0,2,,,,,,,,,0,,,44,0
66660,note_on,0,0,2,,,,,,,,,0,,,49,24
66660,note_on,0,0,2,,,,,,,,,0,,,44,24
66660,note_on,0,0,2,,,,,,,,,0,,,52,28
66660,note_on,60,0,1,,,,,,,,,0,,,68,34
66720,note_on,60,0,2,,,,,,,,,0,,,52,0
66720,note_on,0,0,2,,,,,,,,,0,,,44,0
66720,note_on,0,0,2,,,,,,,,,0,,,49,0
66720,note_on,0,0,2,,,,,,,,,0,,,44,26
66720,note_on,0,0,2,,,,,,,,,0,,,49,26
66720,note_on,0,0,2,,,,,,,,,0,,,52,30
66720,note_on,60,0,1,,,,,,,,,0,,,73,0
66720,note_on,0,0,1,,,,,,,,,0,,,68,0
66720,note_on,0,0,1,,,,,,,,,0,,,76,0
66720,note_on,0,0,1,,,,,,,,,0,,,80,75
66780,note_on,0,0,1,,,,,,,,,0,,,76,37
66780,note_on,0,0,2,,,,,,,,,0,,,52,35
66780,note_on,0,0,2,,,,,,,,,0,,,49,29
66780,note_on,0,0,2,,,,,,,,,0,,,44,29
66780,note_on,0,0,2,,,,,,,,,0,,,44,0
66780,note_on,0,0,2,,,,,,,,,0,,,49,0
66780,note_on,60,0,2,,,,,,,,,0,,,52,0
66780,note_on,60,0,1,,,,,,,,,0,,,73,37
66840,note_on,60,0,2,,,,,,,,,0,,,52,0
66840,note_on,0,0,2,,,,,,,,,0,,,44,30
66840,note_on,60,0,1,,,,,,,,,0,,,76,0
66840,note_on,0,0,1,,,,,,,,,0,,,73,0
66840,note_on,0,0,1,,,,,,,,,0,,,80,0
66840,note_on,0,0,1,,,,,,,,,0,,,85,79
66840,note_on,0,0,2,,,,,,,,,0,,,52,37
66840,note_on,0,0,2,,,,,,,,,0,,,49,30
66840,note_on,0,0,2,,,,,,,,,0,,,49,0
66840,note_on,0,0,2,,,,,,,,,0,,,44,0
66900,note_on,0,0,2,,,,,,,,,0,,,49,34
66900,note_on,0,0,2,,,,,,,,,0,,,44,0
66900,note_on,0,0,2,,,,,,,,,0,,,49,0
66900,note_on,60,0,2,,,,,,,,,0,,,52,0
66900,note_on,0,0,2,,,,,,,,,0,,,52,39
66900,note_on,0,0,2,,,,,,,,,0,,,44,34
66900,note_on,0,0,1,,,,,,,,,0,,,80,39
66900,note_on,60,0,1,,,,,,,,,0,,,76,39
66944,control_change,44,0,2,,,,,,,,,0,64,0,,
66960,note_on,0,0,1,,,,,,,,,0,,,87,99
66960,note_on,0,0,1,,,,,,,,,0,,,85,0
66960,note_on,0,0,1,,,,,,,,,0,,,76,0
66960,note_on,60,0,1,,,,,,,,,0,,,80,0
66960,set_tempo,720,1,0,,,,,,478088,,,,,,,
66960,note_on,16,0,2,,,,,,,,,0,,,52,0
66960,note_on,0,0,2,,,,,,,,,0,,,49,0
66960,note_on,0,0,2,,,,,,,,,0,,,44,0
66960,note_on,0,0,2,,,,,,,,,0,,,33,41
66962,control_change,2,0,2,,,,,,,,,0,64,125,,
67020,note_on,60,0,1,,,,,,,,,0,,,75,51
67020,note_on,0,0,2,,,,,,,,,0,,,45,35
67020,note_on,0,0,2,,,,,,,,,0,,,49,35
67020,note_on,0,0,1,,,,,,,,,0,,,79,51
67020,note_on,58,0,2,,,,,,,,,0,,,33,0
67020,note_on,0,0,2,,,,,,,,,0,,,52,41
67066,control_change,46,0,2,,,,,,,,,0,64,0,,
67077,set_tempo,117,1,0,,,,,,444444,,,,,,,
67080,note_on,0,0,1,,,,,,,,,0,,,75,0
67080,note_on,0,0,1,,,,,,,,,0,,,87,0
67080,note_on,0,0,1,,,,,,,,,0,,,88,96
67080,note_on,60,0,1,,,,,,,,,0,,,79,0
67080,note_on,0,0,2,,,,,,,,,0,,,45,36
67080,note_on,0,0,2,,,,,,,,,0,,,52,0
67080,note_on,0,0,2,,,,,,,,,0,,,49,0
67080,note_on,14,0,2,,,,,,,,,0,,,45,0
67080,note_on,0,0,2,,,,,,,,,0,,,49,36
67080,note_on,0,0,2,,,,,,,,,0,,,52,44
67091,control_change,11,0,2,,,,,,,,,0,64,126,,
67140,note_on,60,0,1,,,,,,,,,0,,,79,45
67140,note_on,0,0,1,,,,,,,,,0,,,76,45
67140,note_on,0,0,2,,,,,,,,,0,,,52,42
67140,note_on,0,0,2,,,,,,,,,0,,,49,0
67140,note_on,49,0,2,,,,,,,,,0,,,52,0
67140,note_on,0,0,2,,,,,,,,,0,,,45,0
67140,note_on,0,0,2,,,,,,,,,0,,,45,35
67140,note_on,0,0,2,,,,,,,,,0,,,49,35
67200,note_on,0,0,1,,,,,,,,,0,,,76,40
67200,note_on,0,0,1,,,,,,,,,0,,,79,40
67200,note_on,0,0,1,,,,,,,,,0,,,79,0
67200,note_on,60,0,1,,,,,,,,,0,,,76,0
67200,note_on,0,0,2,,,,,,,,,0,,,45,0
67200,note_on,0,0,2,,,,,,,,,0,,,45,34
67200,note_on,0,0,2,,,,,,,,,0,,,49,0
67200,note_on,0,0,2,,,,,,,,,0,,,49,34
67200,note_on,60,0,2,,,,,,,,,0,,,52,0
67200,note_on,0,0,2,,,,,,,,,0,,,52,40
67260,note_on,0,0,2,,,,,,,,,0,,,45,0
67260,note_on,0,0,2,,,,,,,,,0,,,49,0
67260,note_on,60,0,2,,,,,,,,,0,,,52,0
67260,note_on,0,0,2,,,,,,,,,0,,,49,33
67260,note_on,0,0,2,,,,,,,,,0,,,52,39
67260,note_on,60,0,1,,,,,,,,,0,,,76,0
67260,note_on,0,0,1,,,,,,,,,0,,,79,0
67260,note_on,0,0,1,,,,,,,,,0,,,79,39
67260,note_on,0,0,1,,,,,,,,,0,,,76,39
67260,note_on,0,0,2,,,,,,,,,0,,,45,33
67320,note_on,0,0,1,,,,,,,,,0,,,79,37
67320,note_on,60,0,1,,,,,,,,,0,,,76,0
67320,note_on,0,0,1,,,,,,,,,0,,,79,0
67320,note_on,0,0,1,,,,,,,,,0,,,76,37
67320,note_on,0,0,2,,,,,,,,,0,,,52,37
67320,note_on,60,0,2,,,,,,,,,0,,,52,0
67320,note_on,0,0,2,,,,,,,,,0,,,49,0
67320,note_on,0,0,2,,,,,,,,,0,,,45,0
67320,note_on,0,0,2,,,,,,,,,0,,,45,30
67320,note_on,0,0,2,,,,,,,,,0,,,49,30
67380,note_on,0,0,1,,,,,,,,,0,,,79,37
67380,note_on,0,0,1,,,,,,,,,0,,,76,37
67380,note_on,0,0,2,,,,,,,,,0,,,52,35
67380,note_on,0,0,2,,,,,,,,,0,,,49,29
67380,note_on,0,0,2,,,,,,,,,0,,,45,29
67380,note_on,0,0,2,,,,,,,,,0,,,45,0
67380,note_on,0,0,2,,,,,,,,,0,,,49,0
67380,note_on,60,0,2,,,,,,,,,0,,,52,0
67380,note_on,0,0,1,,,,,,,,,0,,,79,0
67380,note_on,60,0,1,,,,,,,,,0,,,76,0
67428,control_change,48,0,2,,,,,,,,,0,64,0,,
67440,note_on,0,0,1,,,,,,,,,0,,,87,88
67440,note_on,0,0,1,,,,,,,,,0,,,88,0
67440,note_on,0,0,1,,,,,,,,,0,,,76,0
67440,note_on,60,0,1,,,,,,,,,0,,,79,0
67440,note_on,0,0,2,,,,,,,,,0,,,49,0
67440,note_on,0,0,2,,,,,,,,,0,,,52,34
67440,note_on,0,0,2,,,,,,,,,0,,,49,28
67440,note_on,0,0,2,,,,,,,,,0,,,45,28
67440,note_on,0,0,2,,,,,,,,,0,,,45,0
67440,note_on,12,0,2,,,,,,,,,0,,,52,0
67457,control_change,17,0,2,,,,,,,,,0,64,126,,
67500,note_on,43,0,2,,,,,,,,,0,,,52,0
67500,note_on,60,0,1,,,,,,,,,0,,,75,31
67500,note_on,0,0,1,,,,,,,,,0,,,79,31
67500,note_on,0,0,2,,,,,,,,,0,,,49,0
67500,note_on,0,0,2,,,,,,,,,0,,,52,31
67500,note_on,0,0,2,,,,,,,,,0,,,45,0
67500,note_on,0,0,2,,,,,,,,,0,,,45,26
67500,note_on,0,0,2,,,,,,,,,0,,,49,26
67560,note_on,0,0,2,,,,,,,,,0,,,52,30
67560,note_on,0,0,2,,,,,,,,,0,,,49,25
67560,note_on,0,0,2,,,,,,,,,0,,,45,25
67560,note_on,0,0,2,,,,,,,,,0,,,49,0
67560,note_on,60,0,2,,,,,,,,,0,,,52,0
67560,note_on,0,0,2,,,,,,,,,0,,,45,0
67560,note_on,60,0,1,,,,,,,,,0,,,79,0
67560,note_on,0,0,1,,,,,,,,,0,,,75,0
67560,note_on,0,0,1,,,,,,,,,0,,,87,0
67560,note_on,0,0,1,,,,,,,,,0,,,85,81
67620,note_on,0,0,1,,,,,,,,,0,,,79,28
67620,note_on,60,0,2,,,,,,,,,0,,,52,0
67620,note_on,0,0,2,,,,,,,,,0,,,49,0
67620,note_on,0,0,2,,,,,,,,,0,,,45,0
67620,note_on,0,0,2,,,,,,,,,0,,,49,24
67620,note_on,0,0,2,,,,,,,,,0,,,45,24
67620,note_on,0,0,2,,,,,,,,,0,,,52,28
67620,note_on,60,0,1,,,,,,,,,0,,,73,28
67666,control_change,46,0,2,,,,,,,,,0,64,0,,
67680,note_on,14,0,2,,,,,,,,,0,,,52,0
67680,note_on,0,0,2,,,,,,,,,0,,,49,0
67680,note_on,0,0,2,,,,,,,,,0,,,45,0
67680,note_on,0,0,2,,,,,,,,,0,,,32,27
67680,control_change,0,0,2,,,,,,,,,0,64,125,,
67680,note_on,0,0,1,,,,,,,,,0,,,85,71
67680,note_on,0,0,1,,,,,,,,,0,,,85,0
67680,note_on,0,0,1,,,,,,,,,0,,,73,0
67680,note_on,60,0,1,,,,,,,,,0,,,79,0
67740,note_on,0,0,1,,,,,,,,,0,,,76,27
67740,note_on,60,0,1,,,,,,,,,0,,,73,27
67740,note_on,0,0,2,,,,,,,,,0,,,44,22
67740,note_on,0,0,2,,,,,,,,,0,,,49,22
67740,note_on,0,0,2,,,,,,,,,0,,,52,26
67740,note_on,60,0,2,,,,,,,,,0,,,32,0
67740,note_on,0,0,1,,,,,,,,,0,,,80,27
67800,note_on,0,0,1,,,,,,,,,0,,,80,27
67800,note_on,0,0,1,,,,,,,,,0,,,73,27
67800,note_on,0,0,1,,,,,,,,,0,,,73,0
67800,note_on,0,0,1,,,,,,,,,0,,,76,27
67800,note_on,0,0,1,,,,,,,,,0,,,76,0
67800,note_on,0,0,2,,,,,,,,,0,,,49,22
67800,note_on,0,0,2,,,,,,,,,0,,,52,26
67800,note_on,60,0,2,,,,,,,,,0,,,44,0
67800,note_on,0,0,2,,,,,,,,,0,,,49,0
67800,note_on,0,0,2,,,,,,,,,0,,,44,22
67800,note_on,60,0,1,,,,,,,,,0,,,80,0
67800,note_on,0,0,2,,,,,,,,,0,,,52,0
67860,note_on,60,0,1,,,,,,,,,0,,,80,0
67860,note_on,0,0,1,,,,,,,,,0,,,76,0
67860,note_on,0,0,1,,,,,,,,,0,,,73,0
67860,note_on,0,0,1,,,,,,,,,0,,,73,27
67860,note_on,0,0,1,,,,,,,,,0,,,76,27
67860,note_on,0,0,1,,,,,,,,,0,,,80,27
67860,note_on,60,0,2,,,,,,,,,0,,,44,0
67860,note_on,0,0,2,,,,,,,,,0,,,49,0
67860,note_on,0,0,2,,,,,,,,,0,,,52,0
67860,note_on,0,0,2,,,,,,,,,0,,,52,26
67860,note_on,0,0,2,,,,,,,,,0,,,49,22
67860,note_on,0,0,2,,,,,,,,,0,,,44,22
67920,note_on,0,0,2,,,,,,,,,0,,,49,0
67920,note_on,0,0,1,,,,,,,,,0,,,73,27
67920,note_on,0,0,1,,,,,,,,,0,,,73,0
67920,note_on,0,0,1,,,,,,,,,0,,,76,0
67920,note_on,60,0,1,,,,,,,,,0,,,80,0
67920,note_on,60,0,2,,,,,,,,,0,,,44,0
67920,note_on,0,0,2,,,,,,,,,0,,,52,0
67920,note_on,0,0,2,,,,,,,,,0,,,52,26
67920,note_on,0,0,2,,,,,,,,,0,,,49,22
67920,note_on,0,0,2,,,,,,,,,0,,,44,22
67920,note_on,0,0,1,,,,,,,,,0,,,76,27
67920,note_on,0,0,1,,,,,,,,,0,,,80,27
67980,note_on,60,0,2,,,,,,,,,0,,,44,0
67980,note_on,0,0,1,,,,,,,,,0,,,73,25
67980,note_on,0,0,1,,,,,,,,,0,,,73,0
67980,note_on,0,0,1,,,,,,,,,0,,,76,0
67980,note_on,60,0,1,,,,,,,,,0,,,80,0
67980,note_on,0,0,1,,,,,,,,,0,,,76,25
67980,note_on,0,0,1,,,,,,,,,0,,,80,25
67980,note_on,0,0,2,,,,,,,,,0,,,52,0
67980,note_on,0,0,2,,,,,,,,,0,,,52,26
67980,note_on,0,0,2,,,,,,,,,0,,,49,22
67980,note_on,0,0,2,,,,,,,,,0,,,44,22
67980,note_on,0,0,2,,,,,,,,,0,,,49,0
68022,control_change,42,0,2,,,,,,,,,0,64,0,,
68038,control_change,16,0,2,,,,,,,,,0,64,126,,
68040,note_on,0,0,2,,,,,,,,,0,,,52,0
68040,note_on,0,0,2,,,,,,,,,0,,,49,0
68040,note_on,2,0,2,,,,,,,,,0,,,44,0
68040,note_on,60,0,1,,,,,,,,,0,,,80,0
68040,note_on,0,0,2,,,,,,,,,0,,,32,26
68040,note_on,0,0,1,,,,,,,,,0,,,85,0
68040,note_on,0,0,1,,,,,,,,,0,,,73,0
68040,note_on,0,0,1,,,,,,,,,0,,,76,0
68040,note_on,0,0,1,,,,,,,,,0,,,80,62
68100,note_on,0,0,1,,,,,,,,,0,,,75,22
68100,note_on,0,0,2,,,,,,,,,0,,,44,19
68100,note_on,0,0,2,,,,,,,,,0,,,48,19
68100,note_on,0,0,2,,,,,,,,,0,,,51,24
68100,note_on,60,0,2,,,,,,,,,0,,,32,0
68100,note_on,60,0,1,,,,,,,,,0,,,72,22
68160,note_on,0,0,2,,,,,,,,,0,,,44,19
68160,note_on,0,0,1,,,,,,,,,0,,,72,0
68160,note_on,0,0,1,,,,,,,,,0,,,72,20
68160,note_on,0,0,2,,,,,,,,,0,,,48,19
68160,note_on,0,0,2,,,,,,,,,0,,,51,24
68160,note_on,0,0,2,,,,,,,,,0,,,51,0
68160,note_on,0,0,2,,,,,,,,,0,,,48,0
68160,note_on,60,0,2,,,,,,,,,0,,,44,0
68160,note_on,0,0,1,,,,,,,,,0,,,75,20
68160,note_on,60,0,1,,,,,,,,,0,,,75,0
68220,note_on,60,0,1,,,,,,,,,0,,,75,0
68220,note_on,0,0,1,,,,,,,,,0,,,72,0
68220,note_on,0,0,1,,,,,,,,,0,,,72,20
68220,note_on,0,0,1,,,,,,,,,0,,,75,20
68220,note_on,60,0,2,,,,,,,,,0,,,44,0
68220,note_on,0,0,2,,,,,,,,,0,,,51,0
68220,note_on,0,0,2,,,,,,,,,0,,,48,0
68220,note_on,0,0,2,,,,,,,,,0,,,51,22
68220,note_on,0,0,2,,,,,,,,,0,,,48,18
68220,note_on,0,0,2,,,,,,,,,0,,,44,18
68280,note_on,0,0,2,,,,,,,,,0,,,44,17
68280,note_on,0,0,1,,,,,,,,,0,,,75,20
68280,note_on,0,0,1,,,,,,,,,0,,,72,20
68280,note_on,60,0,1,,,,,,,,,0,,,75,0
68280,note_on,60,0,2,,,,,,,,,0,,,44,0
68280,note_on,0,0,2,,,,,,,,,0,,,48,0
68280,note_on,0,0,2,,,,,,,,,0,,,51,0
68280,note_on,0,0,2,,,,,,,,,0,,,48,17
68280,note_on,0,0,1,,,,,,,,,0,,,72,0
68280,note_on,0,0,2,,,,,,,,,0,,,51,22
68282,set_tempo,1205,1,0,,,,,,547945,,,,,,,
68340,note_on,0,0,1,,,,,,,,,0,,,72,20
68340,note_on,0,0,1,,,,,,,,,0,,,75,20
68340,note_on,0,0,2,,,,,,,,,0,,,44,17
68340,note_on,60,0,1,,,,,,,,,0,,,75,0
68340,note_on,60,0,2,,,,,,,,,0,,,44,0
68340,note_on,0,0,2,,,,,,,,,0,,,48,0
68340,note_on,0,0,2,,,,,,,,,0,,,51,0
68340,note_on,0,0,2,,,,,,,,,0,,,51,22
68340,note_on,0,0,2,,,,,,,,,0,,,48,17
68340,note_on,0,0,1,,,,,,,,,0,,,72,0
68386,control_change,46,0,2,,,,,,,,,0,64,0,,
68400,set_tempo,118,1,0,,,,,,458015,,,,,,,
68400,note_on,0,0,1,,,,,,,,,0,,,80,0
68400,note_on,0,0,1,,,,,,,,,0,,,68,48
68400,note_on,0,0,1,,,,,,,,,0,,,72,0
68400,note_on,60,0,1,,,,,,,,,0,,,75,0
68400,note_on,14,0,2,,,,,,,,,0,,,44,0
68400,note_on,0,0,2,,,,,,,,,0,,,48,0
68400,note_on,0,0,2,,,,,,,,,0,,,51,0
68400,note_on,0,0,2,,,,,,,,,0,,,37,42
68400,control_change,0,0,2,,,,,,,,,0,64,126,,
68402,control_change,2,0,2,,,,,,,,,0,91,127,,
68404,control_change,4,0,1,,,,,,,,,0,91,127,,
68460,note_on,0,0,1,,,,,,,,,0,,,56,27
68460,note_on,56,0,1,,,,,,,,,0,,,65,27
68460,note_on,58,0,2,,,,,,,,,0,,,37,0
68460,note_on,0,0,2,,,,,,,,,0,,,49,22
68460,note_on,0,0,2,,,,,,,,,0,,,53,26
68460,note_on,0,0,2,,,,,,,,,0,,,44,22
68520,note_on,0,0,1,,,,,,,,,0,,,65,26
68520,note_on,0,0,1,,,,,,,,,0,,,65,0
68520,note_on,60,0,1,,,,,,,,,0,,,56,0
68520,set_tempo,120,1,0,,,,,,444444,,,,,,,
68520,note_on,0,0,1,,,,,,,,,0,,,56,26
68520,note_on,60,0,2,,,,,,,,,0,,,44,0
68520,note_on,0,0,2,,,,,,,,,0,,,49,22
68520,note_on,0,0,2,,,,,,,,,0,,,44,22
68520,note_on,0,0,2,,,,,,,,,0,,,53,26
68520,note_on,0,0,2,,,,,,,,,0,,,53,0
68520,note_on,0,0,2,,,,,,,,,0,,,49,0
68580,note_on,0,0,1,,,,,,,,,0,,,56,26
68580,note_on,0,0,1,,,,,,,,,0,,,65,26
68580,note_on,0,0,1,,,,,,,,,0,,,65,0
68580,note_on,60,0,1,,,,,,,,,0,,,56,0
68580,note_on,0,0,2,,,,,,,,,0,,,53,0
68580,note_on,0,0,2,,,,,,,,,0,,,49,22
68580,note_on,0,0,2,,,,,,,,,0,,,44,22
68580,note_on,0,0,2,,,,,,,,,0,,,53,26
68580,note_on,60,0,2,,,,,,,,,0,,,49,0
68580,note_on,0,0,2,,,,,,,,,0,,,44,0
68640,note_on,60,0,1,,,,,,,,,0,,,56,0
68640,note_on,0,0,1,,,,,,,,,0,,,65,0
68640,note_on,0,0,1,,,,,,,,,0,,,65,26
68640,note_on,0,0,1,,,,,,,,,0,,,56,26
68640,note_on,0,0,2,,,,,,,,,0,,,49,22
68640,note_on,60,0,2,,,,,,,,,0,,,49,0
68640,note_on,0,0,2,,,,,,,,,0,,,44,0
68640,note_on,0,0,2,,,,,,,,,0,,,53,0
68640,note_on,0,0,2,,,,,,,,,0,,,53,26
68640,note_on,0,0,2,,,,,,,,,0,,,44,22
68700,note_on,0,0,1,,,,,,,,,0,,,56,26
68700,note_on,60,0,2,,,,,,,,,0,,,49,0
68700,note_on,0,0,2,,,,,,,,,0,,,44,0
68700,note_on,0,0,2,,,,,,,,,0,,,53,0
68700,note_on,0,0,2,,,,,,,,,0,,,53,26
68700,note_on,0,0,2,,,,,,,,,0,,,44,22
68700,note_on,0,0,2,,,,,,,,,0,,,49,22
68700,note_on,60,0,1,,,,,,,,,0,,,56,0
68700,note_on,0,0,1,,,,,,,,,0,,,65,26
68700,note_on,0,0,1,,,,,,,,,0,,,65,0
68717,control_change,17,0,2,,,,,,,,,0,64,0,,
68760,note_on,0,0,1,,,,,,,,,0,,,68,50
68760,note_on,0,0,1,,,,,,,,,0,,,68,0
68760,note_on,0,0,1,,,,,,,,,0,,,65,0
68760,note_on,60,0,1,,,,,,,,,0,,,56,0
68760,note_on,0,0,2,,,,,,,,,0,,,53,26
68760,control_change,0,0,2,,,,,,,,,0,64,125,,
68760,note_on,0,0,2,,,,,,,,,0,,,49,22
68760,note_on,0,0,2,,,,,,,,,0,,,44,22
68760,set_tempo,240,1,0,,,,,,500000,,,,,,,
68760,note_on,0,0,2,,,,,,,,,0,,,53,0
68760,note_on,0,0,2,,,,,,,,,0,,,44,0
68760,note_on,43,0,2,,,,,,,,,0,,,49,0
68820,note_on,0,0,2,,,,,,,,,0,,,44,0
68820,note_on,0,0,2,,,,,,,,,0,,,53,26
68820,note_on,0,0,2,,,,,,,,,0,,,44,22
68820,note_on,60,0,2,,,,,,,,,0,,,49,0
68820,note_on,0,0,2,,,,,,,,,0,,,49,22
68820,note_on,0,0,1,,,,,,,,,0,,,56,26
68820,note_on,0,0,2,,,,,,,,,0,,,53,0
68820,note_on,60,0,1,,,,,,,,,0,,,65,26
68877,set_tempo,117,1,0,,,,,,428571,,,,,,,
68880,note_on,0,0,2,,,,,,,,,0,,,44,0
68880,note_on,0,0,2,,,,,,,,,0,,,53,26
68880,note_on,0,0,2,,,,,,,,,0,,,53,0
68880,note_on,60,0,2,,,,,,,,,0,,,49,0
68880,note_on,0,0,2,,,,,,,,,0,,,49,22
68880,note_on,0,0,2,,,,,,,,,0,,,44,22
68880,note_on,60,0,1,,,,,,,,,0,,,56,0
68880,note_on,0,0,1,,,,,,,,,0,,,65,0
68880,note_on,0,0,1,,,,,,,,,0,,,68,0
68880,note_on,0,0,1,,,,,,,,,0,,,70,52
68940,note_on,0,0,1,,,,,,,,,0,,,65,27
68940,note_on,0,0,2,,,,,,,,,0,,,49,22
68940,note_on,0,0,2,,,,,,,,,0,,,44,22
68940,note_on,0,0,2,,,,,,,,,0,,,53,26
68940,note_on,0,0,2,,,,,,,,,0,,,53,0
68940,note_on,0,0,2,,,,,,,,,0,,,44,0
68940,note_on,60,0,1,,,,,,,,,0,,,58,27
68940,note_on,60,0,2,,,,,,,,,0,,,49,0
69000,note_on,60,0,2,,,,,,,,,0,,,49,0
69000,note_on,0,0,2,,,,,,,,,0,,,49,22
69000,note_on,0,0,2,,,,,,,,,0,,,44,22
69000,note_on,0,0,2,,,,,,,,,0,,,53,26
69000,note_on,0,0,2,,,,,,,,,0,,,53,0
69000,note_on,0,0,2,,,,,,,,,0,,,44,0
69000,note_on,60,0,1,,,,,,,,,0,,,65,0
69000,note_on,0,0,1,,,,,,,,,0,,,58,0
69000,note_on,0,0,1,,,,,,,,,0,,,70,0
69000,note_on,0,0,1,,,,,,,,,0,,,68,45
69000,set_tempo,123,1,0,,,,,,444444,,,,,,,
69060,note_on,0,0,2,,,,,,,,,0,,,44,22
69060,note_on,0,0,2,,,,,,,,,0,,,53,0
69060,note_on,0,0,2,,,,,,,,,0,,,44,0
69060,note_on,60,0,2,,,,,,,,,0,,,49,0
69060,note_on,60,0,1,,,,,,,,,0,,,65,26
69060,note_on,0,0,2,,,,,,,,,0,,,53,26
69060,note_on,0,0,2,,,,,,,,,0,,,49,22
69060,note_on,0,0,1,,,,,,,,,0,,,56,26
69094,control_change,34,0,2,,,,,,,,,0,64,0,,
69118,set_tempo,118,1,0,,,,,,446097,,,,,,,
69120,note_on,26,0,2,,,,,,,,,0,,,44,0
69120,note_on,0,0,2,,,,,,,,,0,,,49,0
69120,note_on,0,0,2,,,,,,,,,0,,,53,0
69120,note_on,0,0,2,,,,,,,,,0,,,36,41
69120,note_on,60,0,1,,,,,,,,,0,,,56,0
69120,note_on,0,0,1,,,,,,,,,0,,,65,0
69120,note_on,0,0,1,,,,,,,,,0,,,68,0
69120,note_on,0,0,1,,,,,,,,,0,,,70,57
69120,control_change,0,0,2,,,,,,,,,0,64,126,,
69180,note_on,60,0,2,,,,,,,,,0,,,36,0
69180,note_on,0,0,2,,,,,,,,,0,,,51,22
69180,note_on,0,0,2,,,,,,,,,0,,,54,26
69180,note_on,0,0,1,,,,,,,,,0,,,66,26
69180,note_on,60,0,1,,,,,,,,,0,,,56,26
69180,note_on,0,0,2,,,,,,,,,0,,,44,22
69240,note_on,60,0,2,,,,,,,,,0,,,44,0
69240,note_on,0,0,1,,,,,,,,,0,,,56,0
69240,note_on,0,0,1,,,,,,,,,0,,,56,26
69240,note_on,0,0,1,,,,,,,,,0,,,66,26
69240,note_on,0,0,2,,,,,,,,,0,,,51,0
69240,note_on,0,0,2,,,,,,,,,0,,,44,22
69240,note_on,0,0,2,,,,,,,,,0,,,51,22
69240,note_on,0,0,2,,,,,,,,,0,,,54,26
69240,note_on,60,0,1,,,,,,,,,0,,,66,0
69240,note_on,0,0,2,,,,,,,,,0,,,54,0
69300,note_on,0,0,2,,,,,,,,,0,,,54,26
69300,note_on,0,0,2,,,,,,,,,0,,,44,22
69300,note_on,0,0,2,,,,,,,,,0,,,44,0
69300,note_on,0,0,2,,,,,,,,,0,,,51,0
69300,note_on,60,0,2,,,,,,,,,0,,,54,0
69300,note_on,60,0,1,,,,,,,,,0,,,66,0
69300,note_on,0,0,1,,,,,,,,,0,,,56,0
69300,note_on,0,0,1,,,,,,,,,0,,,56,26
69300,note_on,0,0,1,,,,,,,,,0,,,66,26
69300,note_on,0,0,2,,,,,,,,,0,,,51,22
69360,note_on,0,0,1,,,,,,,,,0,,,56,0
69360,note_on,0,0,2,,,,,,,,,0,,,54,26
69360,note_on,0,0,2,,,,,,,,,0,,,51,22
69360,note_on,0,0,2,,,,,,,,,0,,,44,22
69360,note_on,60,0,1,,,,,,,,,0,,,66,0
69360,note_on,0,0,1,,,,,,,,,0,,,56,26
69360,note_on,0,0,1,,,,,,,,,0,,,66,26
69360,note_on,0,0,2,,,,,,,,,0,,,44,0
69360,note_on,60,0,2,,,,,,,,,0,,,54,0
69360,note_on,0,0,2,,,,,,,,,0,,,51,0
69420,note_on,0,0,1,,,,,,,,,0,,,56,0
69420,note_on,60,0,1,,,,,,,,,0,,,66,0
69420,note_on,0,0,2,,,,,,,,,0,,,44,22
69420,note_on,0,0,2,,,,,,,,,0,,,44,0
69420,note_on,0,0,2,,,,,,,,,0,,,51,0
69420,note_on,60,0,2,,,,,,,,,0,,,54,0
69420,note_on,0,0,2,,,,,,,,,0,,,51,22
69420,note_on,0,0,2,,,,,,,,,0,,,54,26
69420,note_on,0,0,1,,,,,,,,,0,,,66,26
69420,note_on,0,0,1,,,,,,,,,0,,,56,26
69457,control_change,37,0,2,,,,,,,,,0,64,0,,
69480,control_change,0,0,2,,,,,,,,,0,64,125,,
69480,note_on,0,0,2,,,,,,,,,0,,,54,26
69480,note_on,0,0,2,,,,,,,,,0,,,51,22
69480,note_on,0,0,2,,,,,,,,,0,,,51,0
69480,note_on,23,0,2,,,,,,,,,0,,,54,0
69480,note_on,0,0,2,,,,,,,,,0,,,44,22
69480,note_on,0,0,1,,,,,,,,,0,,,56,0
69480,note_on,0,0,1,,,,,,,,,0,,,70,0
69480,note_on,0,0,1,,,,,,,,,0,,,68,50
69480,note_on,0,0,2,,,,,,,,,0,,,44,0
69480,note_on,60,0,1,,,,,,,,,0,,,66,0
69540,note_on,0,0,2,,,,,,,,,0,,,44,0
69540,note_on,60,0,1,,,,,,,,,0,,,56,28
69540,note_on,0,0,1,,,,,,,,,0,,,66,28
69540,note_on,60,0,2,,,,,,,,,0,,,54,0
69540,note_on,0,0,2,,,,,,,,,0,,,54,26
69540,note_on,0,0,2,,,,,,,,,0,,,51,22
69540,note_on,0,0,2,,,,,,,,,0,,,44,22
69540,note_on,0,0,2,,,,,,,,,0,,,51,0
69600,note_on,60,0,1,,,,,,,,,0,,,66,0
69600,note_on,0,0,2,,,,,,,,,0,,,44,0
69600,note_on,0,0,2,,,,,,,,,0,,,44,22
69600,note_on,0,0,2,,,,,,,,,0,,,51,22
69600,note_on,0,0,2,,,,,,,,,0,,,54,26
69600,note_on,0,0,1,,,,,,,,,0,,,66,29
69600,note_on,0,0,1,,,,,,,,,0,,,56,29
69600,note_on,0,0,1,,,,,,,,,0,,,56,0
69600,note_on,60,0,2,,,,,,,,,0,,,54,0
69600,note_on,0,0,2,,,,,,,,,0,,,51,0
69660,note_on,0,0,1,,,,,,,,,0,,,56,29
69660,note_on,0,0,2,,,,,,,,,0,,,51,0
69660,note_on,0,0,1,,,,,,,,,0,,,66,29
69660,note_on,0,0,2,,,,,,,,,0,,,44,22
69660,note_on,0,0,2,,,,,,,,,0,,,51,22
69660,note_on,0,0,2,,,,,,,,,0,,,54,26
69660,note_on,60,0,1,,,,,,,,,0,,,66,0
69660,note_on,0,0,1,,,,,,,,,0,,,56,0
69660,note_on,60,0,2,,,,,,,,,0,,,54,0
69660,note_on,0,0,2,,,,,,,,,0,,,44,0
69720,note_on,60,0,2,,,,,,,,,0,,,54,0
69720,note_on,0,0,2,,,,,,,,,0,,,51,0
69720,note_on,0,0,2,,,,,,,,,0,,,44,0
69720,note_on,0,0,2,,,,,,,,,0,,,44,22
69720,note_on,0,0,2,,,,,,,,,0,,,51,22
69720,note_on,0,0,2,,,,,,,,,0,,,54,26
69720,note_on,0,0,1,,,,,,,,,0,,,66,29
69720,note_on,0,0,1,,,,,,,,,0,,,56,29
69720,note_on,0,0,1,,,,,,,,,0,,,56,0
69720,note_on,60,0,1,,,,,,,,,0,,,66,0
69780,note_on,0,0,1,,,,,,,,,0,,,66,29
69780,note_on,0,0,1,,,,,,,,,0,,,56,29
69780,note_on,0,0,1,,,,,,,,,0,,,56,0
69780,note_on,60,0,1,,,,,,,,,0,,,66,0
69780,note_on,60,0,2,,,,,,,,,0,,,54,0
69780,note_on,0,0,2,,,,,,,,,0,,,44,0
69780,note_on,0,0,2,,,,,,,,,0,,,51,0
69780,note_on,0,0,2,,,,,,,,,0,,,44,22
69780,note_on,0,0,2,,,,,,,,,0,,,51,22
69780,note_on,0,0,2,,,,,,,,,0,,,54,26
69805,control_change,25,0,2,,,,,,,,,0,64,0,,
69840,control_change,0,0,2,,,,,,,,,0,64,126,,
69840,note_on,0,0,2,,,,,,,,,0,,,37,40
69840,note_on,0,0,1,,,,,,,,,0,,,68,0
69840,note_on,0,0,1,,,,,,,,,0,,,56,0
69840,note_on,60,0,1,,,,,,,,,0,,,66,0
69840,note_on,35,0,2,,,,,,,,,0,,,54,0
69840,note_on,0,0,2,,,,,,,,,0,,,51,0
69840,note_on,0,0,2,,,,,,,,,0,,,44,0
69840,note_on,0,0,1,,,,,,,,,0,,,68,52
69900,note_on,0,0,1,,,,,,,,,0,,,56,26
69900,note_on,60,0,2,,,,,,,,,0,,,37,0
69900,note_on,0,0,2,,,,,,,,,0,,,53,26
69900,note_on,0,0,2,,,,,,,,,0,,,44,22
69900,note_on,0,0,2,,,,,,,,,0,,,49,22
69900,note_on,60,0,1,,,,,,,,,0,,,65,26
69960,note_on,0,0,2,,,,,,,,,0,,,49,22
69960,note_on,0,0,2,,,,,,,,,0,,,44,22
69960,note_on,0,0,2,,,,,,,,,0,,,53,26
69960,note_on,0,0,2,,,,,,,,,0,,,53,0
69960,note_on,0,0,2,,,,,,,,,0,,,49,0
69960,note_on,60,0,2,,,,,,,,,0,,,44,0
69960,note_on,0,0,1,,,,,,,,,0,,,65,26
69960,note_on,60,0,1,,,,,,,,,0,,,56,0
69960,note_on,0,0,1,,,,,,,,,0,,,65,0
69960,note_on,0,0,1,,,,,,,,,0,,,56,26
70020,note_on,60,0,1,,,,,,,,,0,,,56,0
70020,note_on,0,0,1,,,,,,,,,0,,,65,0
70020,note_on,0,0,1,,,,,,,,,0,,,65,26
70020,note_on,0,0,1,,,,,,,,,0,,,56,26
70020,note_on,0,0,2,,,,,,,,,0,,,53,26
70020,note_on,60,0,2,,,,,,,,,0,,,49,0
70020,note_on,0,0,2,,,,,,,,,0,,,44,0
70020,note_on,0,0,2,,,,,,,,,0,,,53,0
70020,note_on,0,0,2,,,,,,,,,0,,,44,22
70020,note_on,0,0,2,,,,,,,,,0,,,49,22
70080,note_on,0,0,1,,,,,,,,,0,,,65,26
70080,note_on,0,0,2,,,,,,,,,0,,,49,22
70080,note_on,0,0,2,,,,,,,,,0,,,44,22
70080,note_on,0,0,2,,,,,,,,,0,,,53,0
70080,note_on,0,0,2,,,,,,,,,0,,,44,0
70080,note_on,60,0,1,,,,,,,,,0,,,56,0
70080,note_on,0,0,1,,,,,,,,,0,,,65,0
70080,note_on,60,0,2,,,,,,,,,0,,,49,0
70080,note_on,0,0,1,,,,,,,,,0,,,56,26
70080,note_on,0,0,2,,,,,,,,,0,,,53,26
70140,note_on,0,0,1,,,,,,,,,0,,,65,0
70140,note_on,0,0,2,,,,,,,,,0,,,49,22
70140,note_on,0,0,2,,,,,,,,,0,,,44,22
70140,note_on,0,0,2,,,,,,,,,0,,,53,26
70140,note_on,0,0,1,,,,,,,,,0,,,65,27
70140,note_on,0,0,2,,,,,,,,,0,,,44,0
70140,note_on,60,0,2,,,,,,,,,0,,,49,0
70140,note_on,0,0,2,,,,,,,,,0,,,53,0
70140,note_on,0,0,1,,,,,,,,,0,,,56,27
70140,note_on,60,0,1,,,,,,,,,0,,,56,0
70169,control_change,29,0,2,,,,,,,,,0,64,1,,
70200,control_change,0,0,2,,,,,,,,,0,64,125,,
70200,note_on,0,0,2,,,,,,,,,0,,,49,22
70200,note_on,0,0,1,,,,,,,,,0,,,77,66
70200,note_on,0,0,1,,,,,,,,,0,,,68,0
70200,note_on,0,0,1,,,,,,,,,0,,,65,0
70200,note_on,60,0,1,,,,,,,,,0,,,56,0
70200,note_on,0,0,2,,,,,,,,,0,,,44,22
70200,note_on,31,0,2,,,,,,,,,0,,,49,0
70200,note_on,0,0,2,,,,,,,,,0,,,44,0
70200,note_on,0,0,2,,,,,,,,,0,,,53,0
70200,note_on,0,0,2,,,,,,,,,0,,,53,26
70202,set_tempo,1084,1,0,,,,,,428571,,,,,,,
70260,note_on,0,0,2,,,,,,,,,0,,,53,0
70260,note_on,0,0,1,,,,,,,,,0,,,68,28
70260,note_on,60,0,2,,,,,,,,,0,,,49,0
70260,note_on,60,0,1,,,,,,,,,0,,,65,28
70260,note_on,0,0,2,,,,,,,,,0,,,44,0
70260,note_on,0,0,2,,,,,,,,,0,,,53,26
70260,note_on,0,0,2,,,,,,,,,0,,,44,22
70260,note_on,0,0,2,,,,,,,,,0,,,49,22
70320,note_on,60,0,1,,,,,,,,,0,,,68,0
70320,note_on,0,0,1,,,,,,,,,0,,,77,0
70320,note_on,0,0,1,,,,,,,,,0,,,65,0
70320,note_on,60,0,2,,,,,,,,,0,,,49,0
70320,note_on,0,0,2,,,,,,,,,0,,,44,0
70320,note_on,0,0,2,,,,,,,,,0,,,53,0
70320,note_on,0,0,2,,,,,,,,,0,,,53,26
70320,note_on,0,0,2,,,,,,,,,0,,,44,22
70320,note_on,0,0,2,,,,,,,,,0,,,49,22
70320,note_on,0,0,1,,,,,,,,,0,,,75,62
70380,note_on,0,0,2,,,,,,,,,0,,,44,0
70380,note_on,0,0,2,,,,,,,,,0,,,53,0
70380,note_on,0,0,2,,,,,,,,,0,,,53,26
70380,note_on,0,0,2,,,,,,,,,0,,,44,22
70380,note_on,0,0,2,,,,,,,,,0,,,49,22
70380,note_on,60,0,1,,,,,,,,,0,,,63,27
70380,note_on,60,0,2,,,,,,,,,0,,,49,0
70380,note_on,0,0,1,,,,,,,,,0,,,68,27
70440,note_on,60,0,1,,,,,,,,,0,,,68,0
70440,note_on,0,0,2,,,,,,,,,0,,,49,22
70440,note_on,0,0,2,,,,,,,,,0,,,53,26
70440,note_on,0,0,2,,,,,,,,,0,,,53,0
70440,note_on,0,0,2,,,,,,,,,0,,,44,0
70440,note_on,60,0,2,,,,,,,,,0,,,49,0
70440,note_on,0,0,2,,,,,,,,,0,,,44,22
70440,note_on,0,0,1,,,,,,,,,0,,,63,0
70440,note_on,0,0,1,,,,,,,,,0,,,75,0
70440,note_on,0,0,1,,,,,,,,,0,,,73,60
70442,set_tempo,240,1,0,,,,,,524017,,,,,,,
70500,note_on,0,0,2,,,,,,,,,0,,,53,0
70500,note_on,60,0,2,,,,,,,,,0,,,49,0
70500,note_on,60,0,1,,,,,,,,,0,,,61,27
70500,note_on,0,0,1,,,,,,,,,0,,,68,27
70500,note_on,0,0,2,,,,,,,,,0,,,49,22
70500,note_on,0,0,2,,,,,,,,,0,,,44,22
70500,note_on,0,0,2,,,,,,,,,0,,,44,0
70500,note_on,0,0,2,,,,,,,,,0,,,53,26
70532,control_change,32,0,2,,,,,,,,,0,64,0,,
70558,control_change,26,0,2,,,,,,,,,0,64,126,,
70560,note_on,2,0,2,,,,,,,,,0,,,44,0
70560,note_on,0,0,2,,,,,,,,,0,,,49,0
70560,note_on,0,0,2,,,,,,,,,0,,,53,0
70560,note_on,0,0,2,,,,,,,,,0,,,39,39
70560,note_on,0,0,1,,,,,,,,,0,,,73,0
70560,note_on,60,0,1,,,,,,,,,0,,,68,0
70560,note_on,0,0,1,,,,,,,,,0,,,73,60
70560,note_on,0,0,1,,,,,,,,,0,,,61,0
70562,set_tempo,120,1,0,,,,,,444444,,,,,,,
70620,note_on,0,0,1,,,,,,,,,0,,,68,27
70620,note_on,60,0,1,,,,,,,,,0,,,61,27
70620,note_on,60,0,2,,,,,,,,,0,,,39,0
70620,note_on,0,0,2,,,,,,,,,0,,,51,22
70620,note_on,0,0,2,,,,,,,,,0,,,54,26
70620,note_on,0,0,2,,,,,,,,,0,,,44,22
70680,note_on,0,0,1,,,,,,,,,0,,,68,27
70680,note_on,0,0,2,,,,,,,,,0,,,51,0
70680,note_on,0,0,1,,,,,,,,,0,,,61,0
70680,note_on,60,0,1,,,,,,,,,0,,,68,0
70680,note_on,60,0,2,,,,,,,,,0,,,44,0
70680,note_on,0,0,2,,,,,,,,,0,,,54,0
70680,note_on,0,0,2,,,,,,,,,0,,,44,22
70680,note_on,0,0,1,,,,,,,,,0,,,61,27
70680,note_on,0,0,2,,,,,,,,,0,,,51,22
70680,note_on,0,0,2,,,,,,,,,0,,,54,26
70740,note_on,0,0,1,,,,,,,,,0,,,68,27
70740,note_on,0,0,1,,,,,,,,,0,,,61,27
70740,note_on,0,0,1,,,,,,,,,0,,,61,0
70740,note_on,60,0,1,,,,,,,,,0,,,68,0
70740,note_on,60,0,2,,,,,,,,,0,,,54,0
70740,note_on,0,0,2,,,,,,,,,0,,,51,0
70740,note_on,0,0,2,,,,,,,,,0,,,44,0
70740,note_on,0,0,2,,,,,,,,,0,,,51,22
70740,note_on,0,0,2,,,,,,,,,0,,,54,26
70740,note_on,0,0,2,,,,,,,,,0,,,44,22
70800,note_on,0,0,1,,,,,,,,,0,,,61,27
70800,note_on,60,0,2,,,,,,,,,0,,,54,0
70800,note_on,0,0,2,,,,,,,,,0,,,51,0
70800,note_on,0,0,2,,,,,,,,,0,,,44,0
70800,note_on,0,0,2,,,,,,,,,0,,,51,22
70800,note_on,0,0,2,,,,,,,,,0,,,54,26
70800,note_on,60,0,1,,,,,,,,,0,,,68,0
70800,note_on,0,0,1,,,,,,,,,0,,,61,0
70800,note_on,0,0,1,,,,,,,,,0,,,68,27
70800,note_on,0,0,2,,,,,,,,,0,,,44,22
70860,note_on,0,0,1,,,,,,,,,0,,,68,27
70860,note_on,0,0,2,,,,,,,,,0,,,44,0
70860,note_on,0,0,2,,,,,,,,,0,,,44,22
70860,note_on,0,0,2,,,,,,,,,0,,,51,22
70860,note_on,0,0,2,,,,,,,,,0,,,54,26
70860,note_on,0,0,2,,,,,,,,,0,,,51,0
70860,note_on,60,0,2,,,,,,,,,0,,,54,0
70860,note_on,60,0,1,,,,,,,,,0,,,68,0
70860,note_on,0,0,1,,,,,,,,,0,,,61,0
70860,note_on,0,0,1,,,,,,,,,0,,,61,27
70885,control_change,25,0,2,,,,,,,,,0,64,0,,
70920,note_on,0,0,2,,,,,,,,,0,,,44,22
70920,note_on,0,0,2,,,,,,,,,0,,,54,26
70920,note_on,0,0,2,,,,,,,,,0,,,51,0
70920,note_on,35,0,2,,,,,,,,,0,,,54,0
70920,control_change,0,0,2,,,,,,,,,0,64,125,,
70920,note_on,0,0,2,,,,,,,,,0,,,51,22
70920,note_on,60,0,1,,,,,,,,,0,,,68,0
70920,note_on,0,0,2,,,,,,,,,0,,,44,0
70920,note_on,0,0,1,,,,,,,,,0,,,73,0
70920,note_on,0,0,1,,,,,,,,,0,,,61,0
70920,note_on,0,0,1,,,,,,,,,0,,,72,61
70980,note_on,0,0,2,,,,,,,,,0,,,54,26
70980,note_on,0,0,2,,,,,,,,,0,,,44,22
70980,note_on,0,0,2,,,,,,,,,0,,,44,0
70980,note_on,0,0,2,,,,,,,,,0,,,51,0
70980,note_on,60,0,2,,,,,,,,,0,,,54,0
70980,note_on,60,0,1,,,,,,,,,0,,,60,27
70980,note_on,0,0,1,,,,,,,,,0,,,68,27
70980,note_on,0,0,2,,,,,,,,,0,,,51,22
71040,note_on,0,0,1,,,,,,,,,0,,,68,27
71040,note_on,0,0,1,,,,,,,,,0,,,60,27
71040,note_on,0,0,1,,,,,,,,,0,,,60,0
71040,note_on,60,0,1,,,,,,,,,0,,,68,0
71040,note_on,0,0,2,,,,,,,,,0,,,54,26
71040,note_on,0,0,2,,,,,,,,,0,,,51,22
71040,note_on,0,0,2,,,,,,,,,0,,,44,22
71040,note_on,0,0,2,,,,,,,,,0,,,44,0
71040,note_on,0,0,2,,,,,,,,,0,,,51,0
71040,note_on,60,0,2,,,,,,,,,0,,,54,0
71100,note_on,0,0,2,,,,,,,,,0,,,44,0
71100,note_on,0,0,2,,,,,,,,,0,,,51,0
71100,note_on,60,0,2,,,,,,,,,0,,,54,0
71100,note_on,0,0,2,,,,,,,,,0,,,51,22
71100,note_on,60,0,1,,,,,,,,,0,,,68,0
71100,note_on,0,0,2,,,,,,,,,0,,,44,22
71100,note_on,0,0,1,,,,,,,,,0,,,68,27
71100,note_on,0,0,1,,,,,,,,,0,,,60,27
71100,note_on,0,0,1,,,,,,,,,0,,,60,0
71100,note_on,0,0,2,,,,,,,,,0,,,54,26
71160,note_on,0,0,2,,,,,,,,,0,,,54,26
71160,note_on,0,0,2,,,,,,,,,0,,,51,22
71160,note_on,0,0,2,,,,,,,,,0,,,44,0
71160,note_on,0,0,2,,,,,,,,,0,,,51,0
71160,note_on,60,0,2,,,,,,,,,0,,,54,0
71160,note_on,0,0,2,,,,,,,,,0,,,44,22
71160,note_on,0,0,1,,,,,,,,,0,,,60,27
71160,note_on,60,0,1,,,,,,,,,0,,,68,0
71160,note_on,0,0,1,,,,,,,,,0,,,68,27
71160,note_on,0,0,1,,,,,,,,,0,,,60,0
71220,note_on,0,0,1,,,,,,,,,0,,,68,27
71220,note_on,0,0,1,,,,,,,,,0,,,60,27
71220,note_on,0,0,2,,,,,,,,,0,,,51,22
71220,note_on,0,0,1,,,,,,,,,0,,,60,0
71220,note_on,60,0,2,,,,,,,,,0,,,54,0
71220,note_on,0,0,2,,,,,,,,,0,,,44,0
71220,note_on,0,0,2,,,,,,,,,0,,,51,0
71220,note_on,0,0,2,,,,,,,,,0,,,44,22
71220,note_on,0,0,2,,,,,,,,,0,,,54,26
71220,note_on,60,0,1,,,,,,,,,0,,,68,0
71249,control_change,29,0,2,,,,,,,,,0,64,0,,
71278,set_tempo,716,1,0,,,,,,481928,,,,,,,
71280,note_on,0,0,2,,,,,,,,,0,,,40,42
71280,note_on,31,0,2,,,,,,,,,0,,,54,0
71280,note_on,60,0,1,,,,,,,,,0,,,68,0
71280,note_on,0,0,1,,,,,,,,,0,,,60,0
71280,note_on,0,0,1,,,,,,,,,0,,,72,0
71280,note_on,0,0,1,,,,,,,,,0,,,72,58
71280,note_on,0,0,2,,,,,,,,,0,,,44,0
71280,note_on,0,0,2,,,,,,,,,0,,,51,0
71280,control_change,0,0,2,,,,,,,,,0,64,124,,
71340,note_on,0,0,2,,,,,,,,,0,,,45,29
71340,note_on,0,0,2,,,,,,,,,0,,,52,35
71340,note_on,60,0,2,,,,,,,,,0,,,40,0
71340,note_on,60,0,1,,,,,,,,,0,,,60,35
71340,note_on,0,0,1,,,,,,,,,0,,,69,35
71380,control_change,40,0,2,,,,,,,,,0,64,0,,
71398,set_tempo,120,1,0,,,,,,430108,,,,,,,
71400,note_on,0,0,2,,,,,,,,,0,,,45,29
71400,note_on,0,0,2,,,,,,,,,0,,,52,0
71400,note_on,20,0,2,,,,,,,,,0,,,45,0
71400,note_on,60,0,1,,,,,,,,,0,,,69,0
71400,note_on,0,0,1,,,,,,,,,0,,,60,0
71400,note_on,0,0,1,,,,,,,,,0,,,72,0
71400,note_on,0,0,1,,,,,,,,,0,,,73,68
71400,note_on,0,0,2,,,,,,,,,0,,,52,35
71406,control_change,6,0,2,,,,,,,,,0,64,125,,
71460,note_on,0,0,2,,,,,,,,,0,,,45,0
71460,note_on,0,0,2,,,,,,,,,0,,,45,29
71460,note_on,0,0,2,,,,,,,,,0,,,52,35
71460,note_on,0,0,1,,,,,,,,,0,,,69,35
71460,note_on,60,0,1,,,,,,,,,0,,,61,35
71460,note_on,54,0,2,,,,,,,,,0,,,52,0
71520,note_on,60,0,2,,,,,,,,,0,,,52,0
71520,note_on,0,0,2,,,,,,,,,0,,,45,0
71520,note_on,0,0,2,,,,,,,,,0,,,52,35
71520,note_on,0,0,2,,,,,,,,,0,,,45,29
71520,note_on,60,0,1,,,,,,,,,0,,,69,0
71520,note_on,0,0,1,,,,,,,,,0,,,61,0
71520,note_on,0,0,1,,,,,,,,,0,,,61,35
71520,note_on,0,0,1,,,,,,,,,0,,,69,35
71580,note_on,0,0,1,,,,,,,,,0,,,69,35
71580,note_on,0,0,2,,,,,,,,,0,,,45,29
71580,note_on,0,0,2,,,,,,,,,0,,,52,35
71580,note_on,60,0,2,,,,,,,,,0,,,52,0
71580,note_on,0,0,2,,,,,,,,,0,,,45,0
71580,note_on,0,0,1,,,,,,,,,0,,,61,35
71580,note_on,60,0,1,,,,,,,,,0,,,69,0
71580,note_on,0,0,1,,,,,,,,,0,,,61,0
71640,note_on,0,0,2,,,,,,,,,0,,,52,35
71640,note_on,60,0,1,,,,,,,,,0,,,69,0
71640,note_on,0,0,1,,,,,,,,,0,,,61,0
71640,note_on,0,0,1,,,,,,,,,0,,,61,35
71640,note_on,0,0,1,,,,,,,,,0,,,69,35
71640,note_on,0,0,2,,,,,,,,,0,,,45,0
71640,note_on,0,0,2,,,,,,,,,0,,,45,29
71640,note_on,60,0,2,,,,,,,,,0,,,52,0
71700,note_on,0,0,1,,,,,,,,,0,,,61,35
71700,note_on,0,0,1,,,,,,,,,0,,,69,35
71700,note_on,0,0,1,,,,,,,,,0,,,61,0
71700,note_on,60,0,1,,,,,,,,,0,,,69,0
71700,note_on,0,0,2,,,,,,,,,0,,,45,29
71700,note_on,0,0,2,,,,,,,,,0,,,52,35
71700,note_on,60,0,2,,,,,,,,,0,,,45,0
71700,note_on,0,0,2,,,,,,,,,0,,,52,0
71760,note_on,60,0,2,,,,,,,,,0,,,52,0
71760,note_on,0,0,2,,,,,,,,,0,,,45,0
71760,note_on,0,0,2,,,,,,,,,0,,,40,35
71760,note_on,60,0,1,,,,,,,,,0,,,69,0
71760,note_on,0,0,1,,,,,,,,,0,,,73,70
71760,note_on,0,0,1,,,,,,,,,0,,,73,0
71760,note_on,0,0,1,,,,,,,,,0,,,61,0
71820,note_on,0,0,1,,,,,,,,,0,,,69,35
71820,note_on,60,0,1,,,,,,,,,0,,,61,35
71820,note_on,60,0,2,,,,,,,,,0,,,52,35
71820,note_on,0,0,2,,,,,,,,,0,,,45,29
71880,note_on,0,0,2,,,,,,,,,0,,,40,35
71880,note_on,60,0,1,,,,,,,,,0,,,69,0
71880,note_on,0,0,1,,,,,,,,,0,,,73,69
71880,note_on,0,0,2,,,,,,,,,0,,,40,0
71880,note_on,0,0,2,,,,,,,,,0,,,52,0
71880,note_on,0,0,1,,,,,,,,,0,,,61,0
71880,note_on,0,0,1,,,,,,,,,0,,,73,0
71880,note_on,60,0,2,,,,,,,,,0,,,45,0
71940,note_on,60,0,2,,,,,,,,,0,,,52,35
71940,note_on,0,0,2,,,,,,,,,0,,,45,29
71940,note_on,0,0,1,,,,,,,,,0,,,69,35
71940,note_on,60,0,1,,,,,,,,,0,,,61,35
71961,control_change,21,0,2,,,,,,,,,0,64,0,,
71998,set_tempo,600,1,0,,,,,,480000,,,,,,,
72000,note_on,0,0,1,,,,,,,,,0,,,61,0
72000,note_on,39,0,2,,,,,,,,,0,,,45,0
72000,note_on,0,0,2,,,,,,,,,0,,,52,0
72000,note_on,0,0,2,,,,,,,,,0,,,40,0
72000,note_on,0,0,2,,,,,,,,,0,,,35,42
72000,control_change,0,0,2,,,,,,,,,0,64,126,,
72000,note_on,60,0,1,,,,,,,,,0,,,69,0
72000,note_on,0,0,1,,,,,,,,,0,,,73,70
72000,note_on,0,0,1,,,,,,,,,0,,,73,0
72060,note_on,0,0,2,,,,,,,,,0,,,47,38
72060,note_on,0,0,1,,,,,,,,,0,,,68,44
72060,note_on,60,0,1,,,,,,,,,0,,,61,44
72060,note_on,60,0,2,,,,,,,,,0,,,35,0
72060,note_on,0,0,2,,,,,,,,,0,,,40,31
72117,control_change,57,0,2,,,,,,,,,0,64,0,,
72120,note_on,60,0,1,,,,,,,,,0,,,68,0
72120,note_on,0,0,1,,,,,,,,,0,,,74,78
72120,set_tempo,122,1,0,,,,,,431655,,,,,,,
72120,note_on,3,0,2,,,,,,,,,0,,,40,0
72120,note_on,0,0,2,,,,,,,,,0,,,47,0
72120,note_on,0,0,2,,,,,,,,,0,,,40,31
72120,note_on,0,0,2,,,,,,,,,0,,,47,38
72120,note_on,0,0,1,,,,,,,,,0,,,61,0
72120,note_on,0,0,1,,,,,,,,,0,,,73,0
72140,control_change,20,0,2,,,,,,,,,0,64,125,,
72180,note_on,60,0,1,,,,,,,,,0,,,62,44
72180,note_on,0,0,2,,,,,,,,,0,,,40,31
72180,note_on,0,0,1,,,,,,,,,0,,,68,44
72180,note_on,0,0,2,,,,,,,,,0,,,47,38
72180,note_on,40,0,2,,,,,,,,,0,,,47,0
72180,note_on,0,0,2,,,,,,,,,0,,,40,0
72240,note_on,0,0,1,,,,,,,,,0,,,68,44
72240,note_on,60,0,2,,,,,,,,,0,,,47,0
72240,note_on,0,0,2,,,,,,,,,0,,,40,0
72240,note_on,0,0,2,,,,,,,,,0,,,47,38
72240,note_on,0,0,2,,,,,,,,,0,,,40,31
72240,note_on,60,0,1,,,,,,,,,0,,,68,0
72240,note_on,0,0,1,,,,,,,,,0,,,62,0
72240,note_on,0,0,1,,,,,,,,,0,,,62,44
72300,note_on,0,0,2,,,,,,,,,0,,,47,38
72300,note_on,0,0,2,,,,,,,,,0,,,40,31
72300,note_on,60,0,1,,,,,,,,,0,,,68,0
72300,note_on,0,0,1,,,,,,,,,0,,,62,0
72300,note_on,0,0,1,,,,,,,,,0,,,68,44
72300,note_on,0,0,1,,,,,,,,,0,,,62,44
72300,note_on,60,0,2,,,,,,,,,0,,,40,0
72300,note_on,0,0,2,,,,,,,,,0,,,47,0
72360,note_on,0,0,2,,,,,,,,,0,,,47,39
72360,note_on,0,0,2,,,,,,,,,0,,,40,34
72360,note_on,0,0,2,,,,,,,,,0,,,40,0
72360,note_on,60,0,2,,,,,,,,,0,,,47,0
72360,note_on,0,0,1,,,,,,,,,0,,,62,0
72360,note_on,60,0,1,,,,,,,,,0,,,68,0
72360,note_on,0,0,1,,,,,,,,,0,,,68,44
72360,note_on,0,0,1,,,,,,,,,0,,,62,44
72420,note_on,0,0,1,,,,,,,,,0,,,62,44
72420,note_on,0,0,1,,,,,,,,,0,,,62,0
72420,note_on,60,0,1,,,,,,,,,0,,,68,0
72420,note_on,0,0,2,,,,,,,,,0,,,47,39
72420,note_on,60,0,2,,,,,,,,,0,,,47,0
72420,note_on,0,0,2,,,,,,,,,0,,,40,0
72420,note_on,0,0,1,,,,,,,,,0,,,68,44
72420,note_on,0,0,2,,,,,,,,,0,,,40,34
72460,control_change,40,0,2,,,,,,,,,0,64,0,,
72480,control_change,0,0,2,,,,,,,,,0,64,125,,
72480,note_on,0,0,2,,,,,,,,,0,,,35,39
72480,note_on,0,0,2,,,,,,,,,0,,,40,0
72480,note_on,20,0,2,,,,,,,,,0,,,47,0
72480,note_on,0,0,1,,,,,,,,,0,,,74,75
72480,note_on,0,0,1,,,,,,,,,0,,,74,0
72480,note_on,60,0,1,,,,,,,,,0,,,68,0
72480,note_on,0,0,1,,,,,,,,,0,,,62,0
72540,note_on,0,0,2,,,,,,,,,0,,,47,39
72540,note_on,60,0,2,,,,,,,,,0,,,40,34
72540,note_on,60,0,1,,,,,,,,,0,,,62,44
72540,note_on,0,0,1,,,,,,,,,0,,,68,44
72600,note_on,0,0,1,,,,,,,,,0,,,74,75
72600,note_on,0,0,1,,,,,,,,,0,,,62,0
72600,note_on,60,0,2,,,,,,,,,0,,,47,0
72600,note_on,0,0,2,,,,,,,,,0,,,40,0
72600,note_on,0,0,2,,,,,,,,,0,,,35,0
72600,note_on,0,0,2,,,,,,,,,0,,,35,39
72600,note_on,0,0,1,,,,,,,,,0,,,74,0
72600,note_on,60,0,1,,,,,,,,,0,,,68,0
72660,note_on,60,0,1,,,,,,,,,0,,,62,44
72660,note_on,0,0,1,,,,,,,,,0,,,68,44
72660,note_on,60,0,2,,,,,,,,,0,,,47,39
72660,note_on,0,0,2,,,,,,,,,0,,,40,34
72691,control_change,31,0,2,,,,,,,,,0,64,0,,
72718,set_tempo,598,1,0,,,,,,478088,,,,,,,
72720,note_on,29,0,2,,,,,,,,,0,,,40,0
72720,set_tempo,2,1,0,,,,,,480000,,,,,,,
72720,note_on,0,0,2,,,,,,,,,0,,,35,0
72720,note_on,60,0,1,,,,,,,,,0,,,68,0
72720,note_on,0,0,2,,,,,,,,,0,,,47,0
72720,note_on,0,0,1,,,,,,,,,0,,,74,0
72720,note_on,0,0,1,,,,,,,,,0,,,77,84
72720,control_change,0,0,2,,,,,,,,,0,64,126,,
72720,note_on,0,0,1,,,,,,,,,0,,,62,0
72720,note_on,0,0,2,,,,,,,,,0,,,38,49
72780,note_on,0,0,1,,,,,,,,,0,,,74,46
72780,note_on,0,0,2,,,,,,,,,0,,,50,42
72780,note_on,0,0,2,,,,,,,,,0,,,45,35
72780,note_on,60,0,2,,,,,,,,,0,,,38,0
72780,note_on,60,0,1,,,,,,,,,0,,,65,46
72837,control_change,57,0,2,,,,,,,,,0,64,0,,
72840,note_on,60,0,1,,,,,,,,,0,,,74,0
72840,note_on,0,0,1,,,,,,,,,0,,,77,0
72840,note_on,0,0,1,,,,,,,,,0,,,78,88
72840,set_tempo,120,1,0,,,,,,431655,,,,,,,
72840,note_on,0,0,1,,,,,,,,,0,,,65,0
72840,note_on,3,0,2,,,,,,,,,0,,,50,0
72840,note_on,0,0,2,,,,,,,,,0,,,45,0
72840,note_on,0,0,2,,,,,,,,,0,,,45,35
72840,note_on,0,0,2,,,,,,,,,0,,,50,42
72860,control_change,20,0,2,,,,,,,,,0,64,125,,
72900,note_on,0,0,1,,,,,,,,,0,,,74,48
72900,note_on,0,0,2,,,,,,,,,0,,,50,42
72900,note_on,60,0,1,,,,,,,,,0,,,66,48
72900,note_on,0,0,2,,,,,,,,,0,,,45,0
72900,note_on,40,0,2,,,,,,,,,0,,,50,0
72900,note_on,0,0,2,,,,,,,,,0,,,45,35
72960,note_on,0,0,2,,,,,,,,,0,,,50,42
72960,note_on,0,0,1,,,,,,,,,0,,,66,0
72960,note_on,0,0,1,,,,,,,,,0,,,66,47
72960,note_on,0,0,1,,,,,,,,,0,,,74,47
72960,note_on,60,0,2,,,,,,,,,0,,,50,0
72960,note_on,0,0,2,,,,,,,,,0,,,45,0
72960,note_on,0,0,2,,,,,,,,,0,,,45,35
72960,note_on,60,0,1,,,,,,,,,0,,,74,0
73020,note_on,60,0,2,,,,,,,,,0,,,50,0
73020,note_on,0,0,1,,,,,,,,,0,,,74,47
73020,note_on,0,0,1,,,,,,,,,0,,,66,47
73020,note_on,0,0,1,,,,,,,,,0,,,66,0
73020,note_on,0,0,2,,,,,,,,,0,,,50,42
73020,note_on,0,0,2,,,,,,,,,0,,,45,35
73020,note_on,0,0,2,,,,,,,,,0,,,45,0
73020,note_on,60,0,1,,,,,,,,,0,,,74,0
73080,note_on,0,0,1,,,,,,,,,0,,,74,47
73080,note_on,0,0,1,,,,,,,,,0,,,66,47
73080,note_on,0,0,1,,,,,,,,,0,,,66,0
73080,note_on,60,0,1,,,,,,,,,0,,,74,0
73080,note_on,0,0,2,,,,,,,,,0,,,45,0
73080,note_on,60,0,2,,,,,,,,,0,,,50,0
73080,note_on,0,0,2,,,,,,,,,0,,,50,46
73080,note_on,0,0,2,,,,,,,,,0,,,45,39
73140,note_on,60,0,2,,,,,,,,,0,,,45,0
73140,note_on,0,0,2,,,,,,,,,0,,,50,0
73140,note_on,0,0,2,,,,,,,,,0,,,50,45
73140,note_on,0,0,2,,,,,,,,,0,,,45,38
73140,note_on,60,0,1,,,,,,,,,0,,,74,0
73140,note_on,0,0,1,,,,,,,,,0,,,66,47
73140,note_on,0,0,1,,,,,,,,,0,,,74,47
73140,note_on,0,0,1,,,,,,,,,0,,,66,0
73186,control_change,46,0,2,,,,,,,,,0,64,0,,
73200,note_on,0,0,1,,,,,,,,,0,,,78,0
73200,note_on,0,0,2,,,,,,,,,0,,,50,0
73200,note_on,14,0,2,,,,,,,,,0,,,45,0
73200,note_on,60,0,1,,,,,,,,,0,,,74,0
73200,note_on,0,0,1,,,,,,,,,0,,,66,0
73200,note_on,0,0,2,,,,,,,,,0,,,38,45
73200,note_on,0,0,1,,,,,,,,,0,,,78,86
73209,control_change,9,0,2,,,,,,,,,0,64,125,,
73260,note_on,51,0,2,,,,,,,,,0,,,50,45
73260,note_on,0,0,2,,,,,,,,,0,,,45,38
73260,note_on,60,0,1,,,,,,,,,0,,,66,48
73260,note_on,0,0,1,,,,,,,,,0,,,74,48
73320,note_on,0,0,2,,,,,,,,,0,,,38,45
73320,note_on,0,0,2,,,,,,,,,0,,,38,0
73320,note_on,0,0,2,,,,,,,,,0,,,50,0
73320,note_on,60,0,2,,,,,,,,,0,,,45,0
73320,note_on,60,0,1,,,,,,,,,0,,,74,0
73320,note_on,0,0,1,,,,,,,,,0,,,66,0
73320,note_on,0,0,1,,,,,,,,,0,,,78,0
73320,note_on,0,0,1,,,,,,,,,0,,,78,86
73380,note_on,0,0,2,,,,,,,,,0,,,45,38
73380,note_on,60,0,2,,,,,,,,,0,,,50,45
73380,note_on,0,0,1,,,,,,,,,0,,,74,47
73380,note_on,60,0,1,,,,,,,,,0,,,66,47
73414,control_change,34,0,2,,,,,,,,,0,64,0,,
73438,set_tempo,598,1,0,,,,,,478088,,,,,,,
73440,note_on,0,0,1,,,,,,,,,0,,,66,0
73440,control_change,0,0,2,,,,,,,,,0,64,126,,
73440,note_on,0,0,2,,,,,,,,,0,,,33,45
73440,note_on,0,0,2,,,,,,,,,0,,,38,0
73440,note_on,26,0,2,,,,,,,,,0,,,45,0
73440,note_on,0,0,2,,,,,,,,,0,,,50,0
73440,note_on,0,0,1,,,,,,,,,0,,,78,86
73440,note_on,0,0,1,,,,,,,,,0,,,78,0
73440,set_tempo,2,1,0,,,,,,480000,,,,,,,
73440,note_on,60,0,1,,,,,,,,,0,,,74,0
73500,note_on,0,0,1,,,,,,,,,0,,,73,47
73500,note_on,60,0,1,,,,,,,,,0,,,66,47
73500,note_on,60,0,2,,,,,,,,,0,,,45,45
73500,note_on,0,0,2,,,,,,,,,0,,,40,38
73554,control_change,54,0,2,,,,,,,,,0,64,0,,
73560,set_tempo,120,1,0,,,,,,431655,,,,,,,
73560,note_on,0,0,2,,,,,,,,,0,,,33,0
73560,note_on,6,0,2,,,,,,,,,0,,,40,0
73560,note_on,0,0,2,,,,,,,,,0,,,45,0
73560,note_on,0,0,2,,,,,,,,,0,,,33,45
73560,note_on,0,0,1,,,,,,,,,0,,,79,96
73560,note_on,60,0,1,,,,,,,,,0,,,73,0
73560,note_on,0,0,1,,,,,,,,,0,,,66,0
73560,note_on,0,0,1,,,,,,,,,0,,,78,0
73577,control_change,17,0,2,,,,,,,,,0,64,126,,
73620,note_on,0,0,1,,,,,,,,,0,,,73,49
73620,note_on,60,0,1,,,,,,,,,0,,,67,49
73620,note_on,43,0,2,,,,,,,,,0,,,33,0
73620,note_on,0,0,2,,,,,,,,,0,,,40,38
73620,note_on,0,0,2,,,,,,,,,0,,,45,45
73680,note_on,0,0,2,,,,,,,,,0,,,40,38
73680,note_on,0,0,2,,,,,,,,,0,,,45,45
73680,note_on,0,0,2,,,,,,,,,0,,,45,0
73680,note_on,60,0,2,,,,,,,,,0,,,40,0
73680,note_on,0,0,1,,,,,,,,,0,,,73,49
73680,note_on,60,0,1,,,,,,,,,0,,,73,0
73680,note_on,0,0,1,,,,,,,,,0,,,67,49
73680,note_on,0,0,1,,,,,,,,,0,,,67,0
73740,note_on,60,0,2,,,,,,,,,0,,,40,0
73740,note_on,60,0,1,,,,,,,,,0,,,73,0
73740,note_on,0,0,1,,,,,,,,,0,,,67,0
73740,note_on,0,0,1,,,,,,,,,0,,,67,49
73740,note_on,0,0,1,,,,,,,,,0,,,73,49
73740,note_on,0,0,2,,,,,,,,,0,,,45,45
73740,note_on,0,0,2,,,,,,,,,0,,,40,38
73740,note_on,0,0,2,,,,,,,,,0,,,45,0
73800,note_on,0,0,1,,,,,,,,,0,,,67,49
73800,note_on,0,0,2,,,,,,,,,0,,,45,0
73800,note_on,0,0,1,,,,,,,,,0,,,67,0
73800,note_on,0,0,2,,,,,,,,,0,,,45,49
73800,note_on,60,0,1,,,,,,,,,0,,,73,0
73800,note_on,0,0,1,,,,,,,,,0,,,73,49
73800,note_on,0,0,2,,,,,,,,,0,,,40,41
73800,note_on,60,0,2,,,,,,,,,0,,,40,0
73860,note_on,60,0,1,,,,,,,,,0,,,73,0
73860,note_on,0,0,1,,,,,,,,,0,,,67,0
73860,note_on,0,0,2,,,,,,,,,0,,,40,41
73860,note_on,0,0,2,,,,,,,,,0,,,45,49
73860,note_on,0,0,2,,,,,,,,,0,,,45,0
73860,note_on,60,0,2,,,,,,,,,0,,,40,0
73860,note_on,0,0,1,,,,,,,,,0,,,67,49
73860,note_on,0,0,1,,,,,,,,,0,,,73,49
73894,control_change,34,0,2,,,,,,,,,0,64,0,,
73920,note_on,0,0,1,,,,,,,,,0,,,79,94
73920,note_on,0,0,1,,,,,,,,,0,,,67,0
73920,note_on,0,0,1,,,,,,,,,0,,,79,0
73920,note_on,26,0,2,,,,,,,,,0,,,40,0
73920,note_on,0,0,2,,,,,,,,,0,,,45,0
73920,note_on,0,0,2,,,,,,,,,0,,,33,49
73920,note_on,60,0,1,,,,,,,,,0,,,73,0
73931,control_change,11,0,2,,,,,,,,,0,64,126,,
73980,note_on,0,0,2,,,,,,,,,0,,,40,41
73980,note_on,49,0,2,,,,,,,,,0,,,45,49
73980,note_on,60,0,1,,,,,,,,,0,,,67,48
73980,note_on,0,0,1,,,,,,,,,0,,,73,48
74040,note_on,0,0,2,,,,,,,,,0,,,33,0
74040,note_on,0,0,2,,,,,,,,,0,,,33,49
74040,note_on,0,0,2,,,,,,,,,0,,,45,0
74040,note_on,0,0,1,,,,,,,,,0,,,79,97
74040,note_on,60,0,2,,,,,,,,,0,,,40,0
74040,note_on,60,0,1,,,,,,,,,0,,,73,0
74040,note_on,0,0,1,,,,,,,,,0,,,79,0
74040,note_on,0,0,1,,,,,,,,,0,,,67,0
74100,note_on,0,0,2,,,,,,,,,0,,,40,41
74100,note_on,60,0,2,,,,,,,,,0,,,45,49
74100,note_on,60,0,1,,,,,,,,,0,,,67,50
74100,note_on,0,0,1,,,,,,,,,0,,,73,50
74134,control_change,34,0,2,,,,,,,,,0,64,0,,
74158,set_tempo,598,1,0,,,,,,478088,,,,,,,
74160,note_on,0,0,2,,,,,,,,,0,,,45,0
74160,note_on,0,0,1,,,,,,,,,0,,,79,0
74160,control_change,0,0,2,,,,,,,,,0,64,126,,
74160,note_on,0,0,1,,,,,,,,,0,,,67,0
74160,note_on,60,0,1,,,,,,,,,0,,,73,0
74160,set_tempo,2,1,0,,,,,,478088,,,,,,,
74160,note_on,0,0,2,,,,,,,,,0,,,32,61
74160,note_on,0,0,2,,,,,,,,,0,,,33,0
74160,note_on,0,0,1,,,,,,,,,0,,,81,99
74160,note_on,26,0,2,,,,,,,,,0,,,40,0
74220,note_on,0,0,2,,,,,,,,,0,,,44,44
74220,note_on,0,0,1,,,,,,,,,0,,,69,51
74220,note_on,60,0,1,,,,,,,,,0,,,73,51
74220,note_on,0,0,2,,,,,,,,,0,,,52,51
74220,note_on,60,0,2,,,,,,,,,0,,,32,0
74220,note_on,0,0,2,,,,,,,,,0,,,49,44
74252,control_change,32,0,2,,,,,,,,,0,64,0,,
74273,control_change,21,0,2,,,,,,,,,0,64,126,,
74278,set_tempo,118,1,0,,,,,,428571,,,,,,,
74280,note_on,0,0,2,,,,,,,,,0,,,49,44
74280,note_on,0,0,1,,,,,,,,,0,,,80,96
74280,note_on,0,0,1,,,,,,,,,0,,,81,0
74280,note_on,0,0,1,,,,,,,,,0,,,73,0
74280,note_on,60,0,1,,,,,,,,,0,,,69,0
74280,note_on,7,0,2,,,,,,,,,0,,,52,0
74280,note_on,0,0,2,,,,,,,,,0,,,49,0
74280,note_on,0,0,2,,,,,,,,,0,,,44,0
74280,note_on,0,0,2,,,,,,,,,0,,,44,44
74280,note_on,0,0,2,,,,,,,,,0,,,52,51
74340,note_on,0,0,1,,,,,,,,,0,,,73,51
74340,note_on,60,0,1,,,,,,,,,0,,,68,51
74340,note_on,60,0,2,,,,,,,,,0,,,52,0
74340,note_on,0,0,2,,,,,,,,,0,,,49,0
74340,note_on,0,0,2,,,,,,,,,0,,,44,0
74340,note_on,0,0,2,,,,,,,,,0,,,44,44
74340,note_on,0,0,2,,,,,,,,,0,,,49,44
74340,note_on,0,0,2,,,,,,,,,0,,,52,52
74400,note_on,60,0,2,,,,,,,,,0,,,52,0
74400,note_on,0,0,2,,,,,,,,,0,,,49,0
74400,note_on,0,0,2,,,,,,,,,0,,,44,0
74400,note_on,0,0,2,,,,,,,,,0,,,49,44
74400,note_on,0,0,2,,,,,,,,,0,,,52,52
74400,note_on,60,0,1,,,,,,,,,0,,,73,0
74400,note_on,0,0,1,,,,,,,,,0,,,68,0
74400,note_on,0,0,1,,,,,,,,,0,,,68,44
74400,note_on,0,0,1,,,,,,,,,0,,,73,44
74400,note_on,0,0,2,,,,,,,,,0,,,44,44
74460,note_on,0,0,1,,,,,,,,,0,,,73,51
74460,note_on,60,0,2,,,,,,,,,0,,,52,0
74460,note_on,0,0,2,,,,,,,,,0,,,49,0
74460,note_on,0,0,2,,,,,,,,,0,,,44,0
74460,note_on,0,0,2,,,,,,,,,0,,,44,44
74460,note_on,0,0,2,,,,,,,,,0,,,52,52
74460,note_on,0,0,2,,,,,,,,,0,,,49,44
74460,note_on,60,0,1,,,,,,,,,0,,,73,0
74460,note_on,0,0,1,,,,,,,,,0,,,68,0
74460,note_on,0,0,1,,,,,,,,,0,,,68,51
74488,control_change,28,0,2,,,,,,,,,0,64,0,,
74518,set_tempo,240,1,0,,,,,,446097,,,,,,,
74520,note_on,0,0,2,,,,,,,,,0,,,44,0
74520,note_on,0,0,2,,,,,,,,,0,,,32,61
74520,note_on,0,0,1,,,,,,,,,0,,,81,99
74520,note_on,32,0,2,,,,,,,,,0,,,52,0
74520,note_on,0,0,1,,,,,,,,,0,,,68,0
74520,note_on,60,0,1,,,,,,,,,0,,,73,0
74520,note_on,0,0,1,,,,,,,,,0,,,80,0
74520,note_on,0,0,2,,,,,,,,,0,,,49,0
74522,control_change,2,0,2,,,,,,,,,0,64,126,,
74580,note_on,60,0,1,,,,,,,,,0,,,69,52
74580,note_on,0,0,2,,,,,,,,,0,,,51,44
74580,note_on,0,0,2,,,,,,,,,0,,,44,44
74580,note_on,0,0,1,,,,,,,,,0,,,72,52
74580,note_on,0,0,2,,,,,,,,,0,,,54,52
74580,note_on,58,0,2,,,,,,,,,0,,,32,0
74628,control_change,48,0,2,,,,,,,,,0,64,0,,
74640,note_on,0,0,2,,,,,,,,,0,,,44,44
74640,set_tempo,122,1,0,,,,,,428571,,,,,,,
74640,note_on,0,0,2,,,,,,,,,0,,,54,52
74640,note_on,0,0,2,,,,,,,,,0,,,51,44
74640,note_on,0,0,2,,,,,,,,,0,,,51,0
74640,note_on,12,0,2,,,,,,,,,0,,,54,0
74640,note_on,0,0,2,,,,,,,,,0,,,44,0
74640,note_on,0,0,1,,,,,,,,,0,,,69,0
74640,note_on,0,0,1,,,,,,,,,0,,,81,0
74640,note_on,0,0,1,,,,,,,,,0,,,80,95
74640,note_on,60,0,1,,,,,,,,,0,,,72,0
74650,control_change,10,0,2,,,,,,,,,0,64,126,,
74700,note_on,0,0,2,,,,,,,,,0,,,51,44
74700,note_on,60,0,1,,,,,,,,,0,,,68,52
74700,note_on,50,0,2,,,,,,,,,0,,,54,0
74700,note_on,0,0,2,,,,,,,,,0,,,51,0
74700,note_on,0,0,2,,,,,,,,,0,,,44,0
74700,note_on,0,0,1,,,,,,,,,0,,,72,52
74700,note_on,0,0,2,,,,,,,,,0,,,44,44
74700,note_on,0,0,2,,,,,,,,,0,,,54,52
74756,set_tempo,116,1,0,,,,,,502092,,,,,,,
74760,note_on,0,0,2,,,,,,,,,0,,,51,44
74760,note_on,0,0,2,,,,,,,,,0,,,54,51
74760,note_on,60,0,1,,,,,,,,,0,,,72,0
74760,note_on,0,0,2,,,,,,,,,0,,,44,44
74760,note_on,0,0,2,,,,,,,,,0,,,44,0
74760,note_on,60,0,2,,,,,,,,,0,,,54,0
74760,note_on,0,0,2,,,,,,,,,0,,,51,0
74760,note_on,0,0,1,,,,,,,,,0,,,72,52
74760,note_on,0,0,1,,,,,,,,,0,,,68,52
74760,note_on,0,0,1,,,,,,,,,0,,,68,0
74820,note_on,0,0,1,,,,,,,,,0,,,68,0
74820,note_on,0,0,1,,,,,,,,,0,,,68,52
74820,note_on,0,0,1,,,,,,,,,0,,,72,52
74820,note_on,60,0,2,,,,,,,,,0,,,54,0
74820,note_on,0,0,2,,,,,,,,,0,,,51,0
74820,note_on,0,0,2,,,,,,,,,0,,,44,0
74820,note_on,0,0,2,,,,,,,,,0,,,44,44
74820,note_on,0,0,2,,,,,,,,,0,,,51,44
74820,note_on,60,0,1,,,,,,,,,0,,,72,0
74820,note_on,0,0,2,,,,,,,,,0,,,54,51
74861,control_change,41,0,2,,,,,,,,,0,64,0,,
74878,set_tempo,122,1,0,,,,,,502092,,,,,,,
74880,note_on,60,0,1,,,,,,,,,0,,,72,0
74880,note_on,19,0,2,,,,,,,,,0,,,54,0
74880,note_on,0,0,2,,,,,,,,,0,,,51,0
74880,note_on,0,0,2,,,,,,,,,0,,,44,0
74880,note_on,0,0,1,,,,,,,,,0,,,73,86
74880,note_on,0,0,1,,,,,,,,,0,,,80,0
74880,note_on,0,0,1,,,,,,,,,0,,,68,0
74880,note_on,0,0,2,,,,,,,,,0,,,37,52
74901,control_change,21,0,2,,,,,,,,,0,64,127,,
74940,note_on,0,0,1,,,,,,,,,0,,,64,44
74940,note_on,0,0,1,,,,,,,,,0,,,61,44
74940,note_on,60,0,1,,,,,,,,,0,,,68,44
74940,note_on,39,0,2,,,,,,,,,0,,,37,0
74940,set_tempo,62,1,0,,,,,,444444,,,,,,,
74940,note_on,0,0,2,,,,,,,,,0,,,49,34
74940,note_on,0,0,2,,,,,,,,,0,,,52,40
74940,note_on,0,0,2,,,,,,,,,0,,,44,34
75000,note_on,0,0,1,,,,,,,,,0,,,64,44
75000,note_on,0,0,1,,,,,,,,,0,,,61,44
75000,note_on,0,0,1,,,,,,,,,0,,,68,44
75000,note_on,0,0,1,,,,,,,,,0,,,68,0
75000,note_on,0,0,1,,,,,,,,,0,,,61,0
75000,note_on,0,0,2,,,,,,,,,0,,,49,34
75000,note_on,0,0,2,,,,,,,,,0,,,44,34
75000,note_on,0,0,2,,,,,,,,,0,,,44,0
75000,note_on,0,0,2,,,,,,,,,0,,,49,0
75000,note_on,60,0,2,,,,,,,,,0,,,52,0
75000,note_on,0,0,2,,,,,,,,,0,,,52,40
75000,note_on,60,0,1,,,,,,,,,0,,,64,0
75060,note_on,0,0,2,,,,,,,,,0,,,49,0
75060,note_on,0,0,2,,,,,,,,,0,,,44,0
75060,note_on,0,0,2,,,,,,,,,0,,,52,40
75060,note_on,0,0,2,,,,,,,,,0,,,44,34
75060,note_on,60,0,1,,,,,,,,,0,,,64,0
75060,note_on,0,0,1,,,,,,,,,0,,,61,0
75060,note_on,0,0,1,,,,,,,,,0,,,68,0
75060,note_on,0,0,1,,,,,,,,,0,,,68,44
75060,note_on,0,0,1,,,,,,,,,0,,,61,44
75060,note_on,0,0,1,,,,,,,,,0,,,64,44
75060,note_on,60,0,2,,,,,,,,,0,,,52,0
75060,note_on,0,0,2,,,,,,,,,0,,,49,34
75120,note_on,60,0,1,,,,,,,,,0,,,64,0
75120,note_on,0,0,1,,,,,,,,,0,,,61,0
75120,note_on,0,0,1,,,,,,,,,0,,,68,0
75120,note_on,0,0,1,,,,,,,,,0,,,68,44
75120,note_on,0,0,1,,,,,,,,,0,,,61,44
75120,note_on,0,0,1,,,,,,,,,0,,,64,44
75120,note_on,60,0,2,,,,,,,,,0,,,52,0
75120,note_on,0,0,2,,,,,,,,,0,,,49,0
75120,note_on,0,0,2,,,,,,,,,0,,,44,0
75120,note_on,0,0,2,,,,,,,,,0,,,49,34
75120,note_on,0,0,2,,,,,,,,,0,,,52,40
75120,note_on,0,0,2,,,,,,,,,0,,,44,34
75180,note_on,0,0,2,,,,,,,,,0,,,52,40
75180,note_on,60,0,2,,,,,,,,,0,,,52,0
75180,note_on,0,0,2,,,,,,,,,0,,,49,0
75180,control_change,0,0,2,,,,,,,,,0,64,0,,
75180,note_on,0,0,2,,,,,,,,,0,,,44,0
75180,note_on,0,0,2,,,,,,,,,0,,,44,34
75180,note_on,0,0,2,,,,,,,,,0,,,49,34
75180,note_on,0,0,1,,,,,,,,,0,,,64,44
75180,note_on,60,0,1,,,,,,,,,0,,,64,0
75180,note_on,0,0,1,,,,,,,,,0,,,61,0
75180,note_on,0,0,1,,,,,,,,,0,,,68,0
75180,note_on,0,0,1,,,,,,,,,0,,,68,44
75180,note_on,0,0,1,,,,,,,,,0,,,61,44
75238,control_change,58,0,2,,,,,,,,,0,64,127,,
75240,note_on,0,0,2,,,,,,,,,0,,,44,0
75240,note_on,0,0,2,,,,,,,,,0,,,52,39
75240,note_on,0,0,2,,,,,,,,,0,,,49,0
75240,note_on,0,0,2,,,,,,,,,0,,,44,34
75240,note_on,0,0,1,,,,,,,,,0,,,64,44
75240,note_on,0,0,1,,,,,,,,,0,,,61,44
75240,note_on,0,0,1,,,,,,,,,0,,,61,0
75240,note_on,0,0,1,,,,,,,,,0,,,68,0
75240,note_on,60,0,1,,,,,,,,,0,,,64,0
75240,note_on,0,0,2,,,,,,,,,0,,,49,34
75240,note_on,2,0,2,,,,,,,,,0,,,52,0
75240,note_on,0,0,1,,,,,,,,,0,,,68,44
75300,note_on,0,0,2,,,,,,,,,0,,,49,0
75300,note_on,60,0,2,,,,,,,,,0,,,52,0
75300,note_on,0,0,2,,,,,,,,,0,,,44,0
75300,note_on,0,0,2,,,,,,,,,0,,,44,34
75300,note_on,0,0,1,,,,,,,,,0,,,61,0
75300,note_on,0,0,1,,,,,,,,,0,,,64,44
75300,note_on,0,0,1,,,,,,,,,0,,,61,44
75300,note_on,0,0,1,,,,,,,,,0,,,68,44
75300,note_on,0,0,1,,,,,,,,,0,,,68,0
75300,note_on,60,0,1,,,,,,,,,0,,,64,0
75300,note_on,0,0,2,,,,,,,,,0,,,52,39
75300,note_on,0,0,2,,,,,,,,,0,,,49,34
75360,note_on,60,0,2,,,,,,,,,0,,,52,0
75360,note_on,0,0,2,,,,,,,,,0,,,49,0
75360,note_on,0,0,2,,,,,,,,,0,,,52,37
75360,note_on,0,0,1,,,,,,,,,0,,,73,0
75360,note_on,0,0,1,,,,,,,,,0,,,68,48
75360,note_on,0,0,1,,,,,,,,,0,,,61,0
75360,note_on,0,0,1,,,,,,,,,0,,,68,0
75360,note_on,0,0,2,,,,,,,,,0,,,49,30
75360,note_on,60,0,1,,,,,,,,,0,,,64,0
75360,note_on,0,0,2,,,,,,,,,0,,,44,0
75360,note_on,0,0,2,,,,,,,,,0,,,44,30
75420,note_on,0,0,1,,,,,,,,,0,,,64,26
75420,note_on,60,0,1,,,,,,,,,0,,,61,26
75420,note_on,0,0,2,,,,,,,,,0,,,52,36
75420,note_on,0,0,2,,,,,,,,,0,,,44,0
75420,note_on,0,0,2,,,,,,,,,0,,,49,30
75420,note_on,0,0,2,,,,,,,,,0,,,44,30
75420,note_on,60,0,2,,,,,,,,,0,,,52,0
75420,note_on,0,0,2,,,,,,,,,0,,,49,0
75480,note_on,60,0,1,,,,,,,,,0,,,64,0
75480,note_on,0,0,2,,,,,,,,,0,,,52,34
75480,note_on,0,0,2,,,,,,,,,0,,,49,28
75480,note_on,0,0,2,,,,,,,,,0,,,44,28
75480,note_on,0,0,2,,,,,,,,,0,,,44,0
75480,note_on,0,0,2,,,,,,,,,0,,,49,0
75480,note_on,60,0,2,,,,,,,,,0,,,52,0
75480,note_on,0,0,1,,,,,,,,,0,,,61,0
75480,note_on,0,0,1,,,,,,,,,0,,,68,42
75480,note_on,0,0,1,,,,,,,,,0,,,68,0
75540,note_on,0,0,2,,,,,,,,,0,,,52,30
75540,note_on,0,0,2,,,,,,,,,0,,,49,25
75540,note_on,0,0,2,,,,,,,,,0,,,44,25
75540,note_on,0,0,2,,,,,,,,,0,,,44,0
75540,note_on,0,0,2,,,,,,,,,0,,,49,0
75540,note_on,60,0,2,,,,,,,,,0,,,52,0
75540,note_on,60,0,1,,,,,,,,,0,,,61,26
75540,note_on,0,0,1,,,,,,,,,0,,,64,26
75578,control_change,38,0,2,,,,,,,,,0,64,0,,
75600,note_on,60,0,1,,,,,,,,,0,,,64,0
75600,note_on,0,0,2,,,,,,,,,0,,,49,0
75600,note_on,22,0,2,,,,,,,,,0,,,52,0
75600,note_on,0,0,2,,,,,,,,,0,,,37,26
75600,note_on,0,0,1,,,,,,,,,0,,,61,0
75600,note_on,0,0,1,,,,,,,,,0,,,68,0
75600,note_on,0,0,1,,,,,,,,,0,,,68,42
75600,note_on,0,0,2,,,,,,,,,0,,,44,0
75602,control_change,2,0,2,,,,,,,,,0,64,126,,
75660,note_on,58,0,2,,,,,,,,,0,,,37,0
75660,note_on,0,0,2,,,,,,,,,0,,,52,26
75660,note_on,0,0,2,,,,,,,,,0,,,49,22
75660,note_on,60,0,1,,,,,,,,,0,,,61,26
75660,note_on,0,0,1,,,,,,,,,0,,,64,26
75720,note_on,60,0,2,,,,,,,,,0,,,49,0
75720,note_on,0,0,2,,,,,,,,,0,,,52,0
75720,note_on,0,0,2,,,,,,,,,0,,,49,22
75720,note_on,0,0,2,,,,,,,,,0,,,52,26
75720,note_on,60,0,1,,,,,,,,,0,,,64,0
75720,note_on,0,0,1,,,,,,,,,0,,,64,26
75720,note_on,0,0,1,,,,,,,,,0,,,61,0
75720,note_on,0,0,1,,,,,,,,,0,,,61,26
75780,note_on,0,0,1,,,,,,,,,0,,,64,26
75780,note_on,0,0,1,,,,,,,,,0,,,61,26
75780,note_on,0,0,1,,,,,,,,,0,,,61,0
75780,note_on,60,0,1,,,,,,,,,0,,,64,0
75780,note_on,60,0,2,,,,,,,,,0,,,49,0
75780,note_on,0,0,2,,,,,,,,,0,,,52,0
75780,note_on,0,0,2,,,,,,,,,0,,,52,26
75780,note_on,0,0,2,,,,,,,,,0,,,49,22
75840,note_on,60,0,1,,,,,,,,,0,,,64,0
75840,note_on,0,0,1,,,,,,,,,0,,,61,0
75840,note_on,0,0,1,,,,,,,,,0,,,61,26
75840,note_on,0,0,2,,,,,,,,,0,,,52,26
75840,note_on,0,0,2,,,,,,,,,0,,,52,0
75840,note_on,60,0,2,,,,,,,,,0,,,49,0
75840,note_on,0,0,2,,,,,,,,,0,,,49,22
75840,note_on,0,0,1,,,,,,,,,0,,,64,26
75900,note_on,60,0,2,,,,,,,,,0,,,49,0
75900,note_on,0,0,2,,,,,,,,,0,,,52,0
75900,note_on,0,0,2,,,,,,,,,0,,,52,26
75900,note_on,0,0,2,,,,,,,,,0,,,49,22
75900,note_on,60,0,1,,,,,,,,,0,,,64,0
75900,note_on,0,0,1,,,,,,,,,0,,,61,0
75900,note_on,0,0,1,,,,,,,,,0,,,61,26
75900,note_on,0,0,1,,,,,,,,,0,,,64,26
75960,note_on,60,0,1,,,,,,,,,0,,,64,0
75960,note_on,0,0,1,,,,,,,,,0,,,61,0
75960,note_on,60,0,2,,,,,,,,,0,,,49,0
75960,note_on,0,0,1,,,,,,,,,0,,,64,26
75960,note_on,0,0,2,,,,,,,,,0,,,52,26
75960,note_on,0,0,2,,,,,,,,,0,,,49,22
75960,note_on,0,0,2,,,,,,,,,0,,,52,0
75960,note_on,0,0,1,,,,,,,,,0,,,61,26
76020,note_on,60,0,1,,,,,,,,,0,,,64,0
76020,note_on,0,0,1,,,,,,,,,0,,,61,26
76020,note_on,0,0,1,,,,,,,,,0,,,64,26
76020,note_on,0,0,1,,,,,,,,,0,,,61,0
76020,note_on,0,0,2,,,,,,,,,0,,,52,26
76020,note_on,60,0,2,,,,,,,,,0,,,52,0
76020,note_on,0,0,2,,,,,,,,,0,,,49,0
76020,note_on,0,0,2,,,,,,,,,0,,,49,22
76080,note_on,0,0,1,,,,,,,,,0,,,61,0
76080,set_tempo,1140,1,0,,,,,,502092,,,,,,,
76080,note_on,0,0,1,,,,,,,,,0,,,68,42
76080,note_on,0,0,1,,,,,,,,,0,,,68,0
76080,note_on,60,0,1,,,,,,,,,0,,,64,0
76080,note_on,60,0,2,,,,,,,,,0,,,52,0
76080,note_on,0,0,2,,,,,,,,,0,,,49,0
76080,note_on,0,0,2,,,,,,,,,0,,,49,22
76080,note_on,0,0,2,,,,,,,,,0,,,52,26
76140,note_on,0,0,1,,,,,,,,,0,,,64,26
76140,note_on,60,0,1,,,,,,,,,0,,,61,26
76140,note_on,0,0,2,,,,,,,,,0,,,49,0
76140,note_on,0,0,2,,,,,,,,,0,,,49,22
76140,note_on,60,0,2,,,,,,,,,0,,,52,0
76140,note_on,0,0,2,,,,,,,,,0,,,52,26
76200,note_on,60,0,2,,,,,,,,,0,,,52,0
76200,note_on,0,0,1,,,,,,,,,0,,,68,0
76200,note_on,0,0,1,,,,,,,,,0,,,61,0
76200,note_on,60,0,1,,,,,,,,,0,,,64,0
76200,note_on,0,0,1,,,,,,,,,0,,,70,42
76200,note_on,0,0,2,,,,,,,,,0,,,49,0
76200,note_on,0,0,2,,,,,,,,,0,,,49,22
76200,note_on,0,0,2,,,,,,,,,0,,,52,26
76260,note_on,60,0,2,,,,,,,,,0,,,52,0
76260,note_on,0,0,2,,,,,,,,,0,,,52,26
76260,note_on,0,0,1,,,,,,,,,0,,,64,26
76260,note_on,60,0,1,,,,,,,,,0,,,61,26
76260,note_on,0,0,2,,,,,,,,,0,,,49,22
76260,note_on,0,0,2,,,,,,,,,0,,,49,0
76298,control_change,38,0,2,,,,,,,,,0,64,0,,
76318,control_change,20,0,2,,,,,,,,,0,64,125,,
76320,note_on,0,0,2,,,,,,,,,0,,,49,0
76320,note_on,2,0,2,,,,,,,,,0,,,52,0
76320,note_on,0,0,1,,,,,,,,,0,,,68,37
76320,note_on,0,0,1,,,,,,,,,0,,,70,0
76320,note_on,60,0,1,,,,,,,,,0,,,64,0
76320,set_tempo,240,1,0,,,,,,444444,,,,,,,
76320,note_on,0,0,2,,,,,,,,,0,,,39,26
76320,note_on,0,0,1,,,,,,,,,0,,,61,0
76380,note_on,60,0,2,,,,,,,,,0,,,39,0
76380,note_on,0,0,1,,,,,,,,,0,,,61,26
76380,note_on,0,0,2,,,,,,,,,0,,,51,26
76380,note_on,60,0,1,,,,,,,,,0,,,58,26
76440,note_on,60,0,1,,,,,,,,,0,,,61,0
76440,note_on,0,0,1,,,,,,,,,0,,,58,0
76440,note_on,0,0,1,,,,,,,,,0,,,58,26
76440,note_on,0,0,1,,,,,,,,,0,,,61,26
76440,note_on,60,0,2,,,,,,,,,0,,,51,0
76440,note_on,0,0,2,,,,,,,,,0,,,51,26
76500,note_on,0,0,2,,,,,,,,,0,,,51,25
76500,note_on,60,0,2,,,,,,,,,0,,,51,0
76500,note_on,0,0,1,,,,,,,,,0,,,61,25
76500,note_on,0,0,1,,,,,,,,,0,,,58,25
76500,note_on,60,0,1,,,,,,,,,0,,,61,0
76500,note_on,0,0,1,,,,,,,,,0,,,58,0
76560,note_on,0,0,1,,,,,,,,,0,,,58,0
76560,note_on,60,0,2,,,,,,,,,0,,,51,0
76560,note_on,0,0,2,,,,,,,,,0,,,51,25
76560,note_on,0,0,1,,,,,,,,,0,,,58,25
76560,note_on,60,0,1,,,,,,,,,0,,,61,0
76560,note_on,0,0,1,,,,,,,,,0,,,61,25
76620,note_on,60,0,2,,,,,,,,,0,,,51,0
76620,note_on,0,0,2,,,,,,,,,0,,,51,24
76620,note_on,60,0,1,,,,,,,,,0,,,61,0
76620,note_on,0,0,1,,,,,,,,,0,,,61,24
76620,note_on,0,0,1,,,,,,,,,0,,,58,24
76620,note_on,0,0,1,,,,,,,,,0,,,58,0
76680,note_on,0,0,1,,,,,,,,,0,,,58,24
76680,set_tempo,360,1,0,,,,,,442804,,,,,,,
76680,note_on,0,0,2,,,,,,,,,0,,,51,24
76680,note_on,60,0,1,,,,,,,,,0,,,61,0
76680,note_on,0,0,1,,,,,,,,,0,,,61,24
76680,note_on,0,0,1,,,,,,,,,0,,,58,0
76680,note_on,60,0,2,,,,,,,,,0,,,51,0
76707,set_tempo,27,1,0,,,,,,444444,,,,,,,
76732,set_tempo,25,1,0,,,,,,446097,,,,,,,
76740,note_on,0,0,1,,,,,,,,,0,,,58,0
76740,note_on,60,0,1,,,,,,,,,0,,,61,0
76740,note_on,0,0,1,,,,,,,,,0,,,61,24
76740,note_on,60,0,2,,,,,,,,,0,,,51,0
76740,note_on,0,0,2,,,,,,,,,0,,,51,24
76740,note_on,0,0,1,,,,,,,,,0,,,58,24
76757,set_tempo,25,1,0,,,,,,447761,,,,,,,
76785,set_tempo,28,1,0,,,,,,449438,,,,,,,
76800,note_on,60,0,2,,,,,,,,,0,,,51,0
76800,note_on,0,0,2,,,,,,,,,0,,,51,23
76800,note_on,0,0,1,,,,,,,,,0,,,61,23
76800,note_on,0,0,1,,,,,,,,,0,,,58,23
76800,note_on,0,0,1,,,,,,,,,0,,,58,0
76800,note_on,60,0,1,,,,,,,,,0,,,61,0
76810,set_tempo,25,1,0,,,,,,451128,,,,,,,
76835,set_tempo,25,1,0,,,,,,452830,,,,,,,
76860,set_tempo,25,1,0,,,,,,454545,,,,,,,
76860,note_on,0,0,1,,,,,,,,,0,,,61,23
76860,note_on,60,0,1,,,,,,,,,0,,,61,0
76860,note_on,60,0,2,,,,,,,,,0,,,51,0
76860,note_on,0,0,1,,,,,,,,,0,,,58,23
76860,note_on,0,0,2,,,,,,,,,0,,,51,23
76860,note_on,0,0,1,,,,,,,,,0,,,58,0
76887,set_tempo,27,1,0,,,,,,456274,,,,,,,
76912,set_tempo,25,1,0,,,,,,458015,,,,,,,
76920,note_on,0,0,2,,,,,,,,,0,,,51,22
76920,note_on,0,0,1,,,,,,,,,0,,,61,22
76920,note_on,60,0,1,,,,,,,,,0,,,61,0
76920,note_on,0,0,1,,,,,,,,,0,,,58,0
76920,note_on,0,0,1,,,,,,,,,0,,,58,22
76920,note_on,60,0,2,,,,,,,,,0,,,51,0
76937,set_tempo,25,1,0,,,,,,459770,,,,,,,
76965,set_tempo,28,1,0,,,,,,461538,,,,,,,
76980,note_on,60,0,2,,,,,,,,,0,,,51,0
76980,note_on,0,0,2,,,,,,,,,0,,,51,22
76980,note_on,0,0,1,,,,,,,,,0,,,58,22
76980,note_on,0,0,1,,,,,,,,,0,,,58,0
76980,note_on,60,0,1,,,,,,,,,0,,,61,0
76980,note_on,0,0,1,,,,,,,,,0,,,61,22
76990,set_tempo,25,1,0,,,,,,463320,,,,,,,
77015,set_tempo,25,1,0,,,,,,465116,,,,,,,
77020,control_change,40,0,2,,,,,,,,,0,64,0,,
77040,note_on,60,0,1,,,,,,,,,0,,,61,0
77040,note_on,0,0,1,,,,,,,,,0,,,67,31
77040,control_change,0,0,2,,,,,,,,,0,64,127,,
77040,note_on,0,0,2,,,,,,,,,0,,,39,22
77040,note_on,0,0,1,,,,,,,,,0,,,58,0
77040,note_on,20,0,2,,,,,,,,,0,,,51,0
77040,set_tempo,25,1,0,,,,,,466926,,,,,,,
77040,note_on,0,0,1,,,,,,,,,0,,,68,0
77067,set_tempo,27,1,0,,,,,,468750,,,,,,,
77092,set_tempo,25,1,0,,,,,,470588,,,,,,,
77100,note_on,0,0,1,,,,,,,,,0,,,61,22
77100,note_on,60,0,1,,,,,,,,,0,,,58,22
77100,note_on,0,0,2,,,,,,,,,0,,,51,22
77100,note_on,60,0,2,,,,,,,,,0,,,39,0
77117,set_tempo,25,1,0,,,,,,472441,,,,,,,
77145,set_tempo,28,1,0,,,,,,474308,,,,,,,
77160,note_on,0,0,1,,,,,,,,,0,,,58,22
77160,note_on,0,0,1,,,,,,,,,0,,,58,0
77160,note_on,60,0,1,,,,,,,,,0,,,61,0
77160,note_on,0,0,1,,,,,,,,,0,,,61,22
77160,note_on,0,0,2,,,,,,,,,0,,,51,22
77160,note_on,60,0,2,,,,,,,,,0,,,51,0
77170,set_tempo,25,1,0,,,,,,476190,,,,,,,
77195,set_tempo,25,1,0,,,,,,478088,,,,,,,
77220,note_on,0,0,2,,,,,,,,,0,,,51,20
77220,note_on,60,0,2,,,,,,,,,0,,,51,0
77220,note_on,0,0,1,,,,,,,,,0,,,61,20
77220,note_on,0,0,1,,,,,,,,,0,,,58,20
77220,set_tempo,25,1,0,,,,,,480000,,,,,,,
77220,note_on,60,0,1,,,,,,,,,0,,,61,0
77220,note_on,0,0,1,,,,,,,,,0,,,58,0
77247,set_tempo,27,1,0,,,,,,481928,,,,,,,
77272,set_tempo,25,1,0,,,,,,483871,,,,,,,
77280,note_on,0,0,2,,,,,,,,,0,,,51,20
77280,note_on,0,0,1,,,,,,,,,0,,,58,0
77280,note_on,60,0,2,,,,,,,,,0,,,51,0
77280,note_on,0,0,1,,,,,,,,,0,,,58,20
77280,note_on,60,0,1,,,,,,,,,0,,,61,0
77280,note_on,0,0,1,,,,,,,,,0,,,61,20
77297,set_tempo,25,1,0,,,,,,485830,,,,,,,
77325,set_tempo,28,1,0,,,,,,487805,,,,,,,
77340,note_on,60,0,1,,,,,,,,,0,,,61,0
77340,note_on,0,0,1,,,,,,,,,0,,,58,0
77340,note_on,0,0,1,,,,,,,,,0,,,58,19
77340,note_on,0,0,1,,,,,,,,,0,,,61,19
77340,note_on,0,0,2,,,,,,,,,0,,,51,19
77340,note_on,60,0,2,,,,,,,,,0,,,51,0
77350,set_tempo,25,1,0,,,,,,489796,,,,,,,
77375,set_tempo,25,1,0,,,,,,491803,,,,,,,
77400,note_on,60,0,1,,,,,,,,,0,,,61,0
77400,note_on,0,0,1,,,,,,,,,0,,,58,0
77400,note_on,0,0,1,,,,,,,,,0,,,58,19
77400,note_on,0,0,1,,,,,,,,,0,,,61,19
77400,set_tempo,25,1,0,,,,,,493827,,,,,,,
77400,note_on,60,0,2,,,,,,,,,0,,,51,0
77400,note_on,0,0,2,,,,,,,,,0,,,51,19
77460,note_on,60,0,2,,,,,,,,,0,,,51,0
77460,note_on,0,0,2,,,,,,,,,0,,,51,19
77460,note_on,0,0,1,,,,,,,,,0,,,58,0
77460,note_on,0,0,1,,,,,,,,,0,,,58,19
77460,note_on,0,0,1,,,,,,,,,0,,,61,19
77460,note_on,60,0,1,,,,,,,,,0,,,61,0
77520,note_on,60,0,1,,,,,,,,,0,,,61,0
77520,note_on,0,0,1,,,,,,,,,0,,,58,0
77520,note_on,0,0,1,,,,,,,,,0,,,61,18
77520,note_on,0,0,1,,,,,,,,,0,,,58,18
77520,note_on,60,0,2,,,,,,,,,0,,,51,0
77520,note_on,0,0,2,,,,,,,,,0,,,51,18
77580,note_on,60,0,1,,,,,,,,,0,,,61,0
77580,note_on,0,0,1,,,,,,,,,0,,,58,0
77580,note_on,0,0,1,,,,,,,,,0,,,58,18
77580,note_on,0,0,2,,,,,,,,,0,,,51,18
77580,note_on,60,0,2,,,,,,,,,0,,,51,0
77580,note_on,0,0,1,,,,,,,,,0,,,61,18
77640,note_on,0,0,1,,,,,,,,,0,,,61,17
77640,note_on,0,0,2,,,,,,,,,0,,,51,17
77640,note_on,60,0,2,,,,,,,,,0,,,51,0
77640,note_on,60,0,1,,,,,,,,,0,,,61,0
77640,note_on,0,0,1,,,,,,,,,0,,,58,0
77640,note_on,0,0,1,,,,,,,,,0,,,58,17
77642,set_tempo,242,1,0,,,,,,603015,,,,,,,
77700,note_on,60,0,2,,,,,,,,,0,,,51,0
77700,note_on,0,0,2,,,,,,,,,0,,,51,17
77700,note_on,60,0,1,,,,,,,,,0,,,61,0
77700,note_on,0,0,1,,,,,,,,,0,,,58,17
77700,note_on,0,0,1,,,,,,,,,0,,,61,17
77700,note_on,0,0,1,,,,,,,,,0,,,58,0
77726,control_change,26,0,2,,,,,,,,,0,64,0,,
77760,note_on,60,0,1,,,,,,,,,0,,,61,0
77760,key_signature,118,1,0,,,,,Ab,,,,,,,,
77760,set_tempo,0,1,0,,,,,,459770,,,,,,,
77760,marker,0,1,0,,,,,,,,,,,,,
77760,control_change,0,0,2,,,,,,,,,0,91,126,,
77760,note_on,0,0,1,,,,,,,,,0,,,67,0
77760,note_on,0,0,1,,,,,,,,,0,,,58,0
77760,note_on,0,0,2,,,,,,,,,0,,,39,46
77760,note_on,34,0,2,,,,,,,,,0,,,51,0
77760,note_on,0,0,1,,,,,,,,,0,,,67,41
77762,control_change,2,0,1,,,,,,,,,0,91,127,,
77767,control_change,7,0,2,,,,,,,,,0,64,127,,
77770,set_tempo,10,1,0,,,,,,458015,,,,,,,
77780,set_tempo,10,1,0,,,,,,456274,,,,,,,
77790,set_tempo,10,1,0,,,,,,454545,,,,,,,
77790,note_on,28,0,1,,,,,,,,,0,,,67,0
77790,note_on,0,0,1,,,,,,,,,0,,,70,34
77800,set_tempo,10,1,0,,,,,,452830,,,,,,,
77810,set_tempo,10,1,0,,,,,,451128,,,,,,,
77815,set_tempo,5,1,0,,,,,,449438,,,,,,,
77820,note_on,30,0,1,,,,,,,,,0,,,70,0
77820,note_on,0,0,1,,,,,,,,,0,,,67,41
77825,set_tempo,10,1,0,,,,,,447761,,,,,,,
77835,set_tempo,10,1,0,,,,,,446097,,,,,,,
77845,set_tempo,10,1,0,,,,,,444444,,,,,,,
77850,note_on,83,0,2,,,,,,,,,0,,,39,0
77850,note_on,0,0,1,,,,,,,,,0,,,64,34
77850,note_on,30,0,1,,,,,,,,,0,,,67,0
77855,set_tempo,10,1,0,,,,,,442804,,,,,,,
77865,set_tempo,10,1,0,,,,,,441176,,,,,,,
77870,set_tempo,5,1,0,,,,,,439560,,,,,,,
77880,note_on,30,0,1,,,,,,,,,0,,,64,0
77880,note_on,0,0,1,,,,,,,,,0,,,70,41
77880,set_tempo,10,1,0,,,,,,437956,,,,,,,
77880,note_on,30,0,2,,,,,,,,,0,,,61,42
77880,note_on,0,0,2,,,,,,,,,0,,,51,35
77880,note_on,0,0,2,,,,,,,,,0,,,58,35
77890,set_tempo,10,1,0,,,,,,436364,,,,,,,
77900,set_tempo,10,1,0,,,,,,434783,,,,,,,
77910,note_on,30,0,1,,,,,,,,,0,,,70,0
77910,note_on,0,0,1,,,,,,,,,0,,,73,34
77910,set_tempo,10,1,0,,,,,,433213,,,,,,,
77915,set_tempo,5,1,0,,,,,,431655,,,,,,,
77925,set_tempo,10,1,0,,,,,,430108,,,,,,,
77935,set_tempo,10,1,0,,,,,,428571,,,,,,,
77940,note_on,30,0,1,,,,,,,,,0,,,73,0
77940,note_on,0,0,1,,,,,,,,,0,,,70,41
77945,set_tempo,10,1,0,,,,,,427046,,,,,,,
77955,set_tempo,10,1,0,,,,,,425532,,,,,,,
77965,set_tempo,10,1,0,,,,,,424028,,,,,,,
77970,set_tempo,5,1,0,,,,,,422535,,,,,,,
77970,note_on,30,0,1,,,,,,,,,0,,,70,0
77970,note_on,0,0,1,,,,,,,,,0,,,67,34
77980,set_tempo,10,1,0,,,,,,421053,,,,,,,
77990,set_tempo,10,1,0,,,,,,419580,,,,,,,
78000,set_tempo,10,1,0,,,,,,418118,,,,,,,
78000,note_on,0,0,1,,,,,,,,,0,,,73,41
78000,note_on,30,0,1,,,,,,,,,0,,,67,0
78010,set_tempo,10,1,0,,,,,,416667,,,,,,,
78015,set_tempo,5,1,0,,,,,,415225,,,,,,,
78025,set_tempo,10,1,0,,,,,,413793,,,,,,,
78030,note_on,0,0,1,,,,,,,,,0,,,76,34
78030,note_on,30,0,1,,,,,,,,,0,,,73,0
78035,set_tempo,10,1,0,,,,,,412371,,,,,,,
78045,set_tempo,10,1,0,,,,,,410959,,,,,,,
78055,set_tempo,10,1,0,,,,,,409556,,,,,,,
78060,note_on,30,0,1,,,,,,,,,0,,,76,0
78060,note_on,0,0,1,,,,,,,,,0,,,73,41
78065,set_tempo,10,1,0,,,,,,408163,,,,,,,
78070,set_tempo,5,1,0,,,,,,406780,,,,,,,
78080,set_tempo,10,1,0,,,,,,405405,,,,,,,
78090,note_on,0,0,1,,,,,,,,,0,,,70,34
78090,set_tempo,10,1,0,,,,,,404040,,,,,,,
78090,note_on,30,0,1,,,,,,,,,0,,,73,0
78100,set_tempo,10,1,0,,,,,,402685,,,,,,,
78107,control_change,227,0,2,,,,,,,,,0,64,0,,
78120,control_change,13,0,2,,,,,,,,,0,64,127,,
78120,note_on,0,0,1,,,,,,,,,0,,,76,40
78120,note_on,30,0,1,,,,,,,,,0,,,70,0
78150,note_on,0,0,1,,,,,,,,,0,,,79,36
78150,note_on,30,0,1,,,,,,,,,0,,,76,0
78180,note_on,0,0,1,,,,,,,,,0,,,76,46
78180,note_on,30,0,1,,,,,,,,,0,,,79,0
78210,note_on,0,0,1,,,,,,,,,0,,,73,42
78210,note_on,30,0,1,,,,,,,,,0,,,76,0
78240,note_on,0,0,1,,,,,,,,,0,,,79,53
78240,note_on,30,0,1,,,,,,,,,0,,,73,0
78270,note_on,0,0,1,,,,,,,,,0,,,82,47
78270,note_on,30,0,1,,,,,,,,,0,,,79,0
78300,note_on,30,0,1,,,,,,,,,0,,,82,0
78300,note_on,0,0,1,,,,,,,,,0,,,79,60
78330,note_on,30,0,1,,,,,,,,,0,,,79,0
78330,note_on,0,0,1,,,,,,,,,0,,,76,53
78360,note_on,0,0,1,,,,,,,,,0,,,82,66
78360,note_on,30,0,1,,,,,,,,,0,,,76,0
78390,note_on,0,0,1,,,,,,,,,0,,,85,59
78390,note_on,30,0,1,,,,,,,,,0,,,82,0
78420,note_on,30,0,1,,,,,,,,,0,,,85,0
78420,note_on,0,0,1,,,,,,,,,0,,,82,73
78450,note_on,30,0,1,,,,,,,,,0,,,82,0
78450,note_on,0,0,1,,,,,,,,,0,,,79,64
78460,control_change,340,0,2,,,,,,,,,0,64,0,,
78480,note_on,30,0,1,,,,,,,,,0,,,79,0
78480,note_on,0,0,1,,,,,,,,,0,,,85,80
78480,note_on,0,0,2,,,,,,,,,0,,,61,60
78480,note_on,20,0,2,,,,,,,,,0,,,51,0
78480,note_on,0,0,2,,,,,,,,,0,,,58,0
78480,note_on,0,0,2,,,,,,,,,0,,,61,0
78480,note_on,0,0,2,,,,,,,,,0,,,55,51
78480,note_on,0,0,2,,,,,,,,,0,,,51,51
78480,note_on,0,0,2,,,,,,,,,0,,,58,51
78480,control_change,0,0,2,,,,,,,,,0,64,127,,
78510,note_on,0,0,1,,,,,,,,,0,,,88,68
78510,note_on,30,0,1,,,,,,,,,0,,,85,0
78540,note_on,0,0,1,,,,,,,,,0,,,85,79
78540,note_on,30,0,1,,,,,,,,,0,,,88,0
78570,note_on,0,0,1,,,,,,,,,0,,,82,66
78570,note_on,30,0,1,,,,,,,,,0,,,85,0
78600,note_on,0,0,1,,,,,,,,,0,,,85,77
78600,note_on,30,0,1,,,,,,,,,0,,,82,0
78630,note_on,0,0,1,,,,,,,,,0,,,88,64
78630,note_on,30,0,1,,,,,,,,,0,,,85,0
78660,note_on,0,0,1,,,,,,,,,0,,,85,75
78660,note_on,30,0,1,,,,,,,,,0,,,88,0
78690,note_on,0,0,1,,,,,,,,,0,,,82,63
78690,note_on,30,0,1,,,,,,,,,0,,,85,0
78720,note_on,0,0,1,,,,,,,,,0,,,85,74
78720,note_on,30,0,1,,,,,,,,,0,,,82,0
78750,note_on,0,0,1,,,,,,,,,0,,,88,62
78750,note_on,30,0,1,,,,,,,,,0,,,85,0
78780,note_on,0,0,1,,,,,,,,,0,,,85,72
78780,note_on,30,0,1,,,,,,,,,0,,,88,0
78810,note_on,30,0,1,,,,,,,,,0,,,85,0
78810,note_on,0,0,1,,,,,,,,,0,,,82,60
78829,control_change,349,0,2,,,,,,,,,0,64,0,,
78840,control_change,11,0,2,,,,,,,,,0,64,127,,
78840,note_on,0,0,1,,,,,,,,,0,,,85,70
78840,note_on,30,0,1,,,,,,,,,0,,,82,0
78870,note_on,0,0,1,,,,,,,,,0,,,88,59
78870,note_on,30,0,1,,,,,,,,,0,,,85,0
78900,note_on,30,0,1,,,,,,,,,0,,,88,0
78900,note_on,0,0,1,,,,,,,,,0,,,85,69
78930,note_on,0,0,1,,,,,,,,,0,,,82,57
78930,note_on,30,0,1,,,,,,,,,0,,,85,0
78960,note_on,30,0,1,,,,,,,,,0,,,82,0
78960,note_on,0,0,1,,,,,,,,,0,,,85,67
78990,note_on,30,0,1,,,,,,,,,0,,,85,0
78990,note_on,0,0,1,,,,,,,,,0,,,88,56
79020,note_on,30,0,1,,,,,,,,,0,,,88,0
79020,note_on,0,0,1,,,,,,,,,0,,,85,65
79050,note_on,0,0,1,,,,,,,,,0,,,82,55
79050,note_on,30,0,1,,,,,,,,,0,,,85,0
79080,note_on,30,0,1,,,,,,,,,0,,,82,0
79080,note_on,0,0,1,,,,,,,,,0,,,85,64
79110,note_on,30,0,1,,,,,,,,,0,,,85,0
79110,note_on,0,0,1,,,,,,,,,0,,,88,53
79140,note_on,30,0,1,,,,,,,,,0,,,88,0
79140,note_on,0,0,1,,,,,,,,,0,,,85,62
79170,note_on,30,0,1,,,,,,,,,0,,,85,0
79170,note_on,0,0,1,,,,,,,,,0,,,82,51
79186,control_change,346,0,2,,,,,,,,,0,64,0,,
79200,note_on,0,0,2,,,,,,,,,0,,,58,42
79200,note_on,0,0,2,,,,,,,,,0,,,51,42
79200,note_on,0,0,2,,,,,,,,,0,,,61,50
79200,note_on,14,0,2,,,,,,,,,0,,,61,0
79200,note_on,0,0,2,,,,,,,,,0,,,55,42
79200,note_on,0,0,2,,,,,,,,,0,,,55,0
79200,control_change,0,0,2,,,,,,,,,0,64,127,,
79200,note_on,0,0,2,,,,,,,,,0,,,58,0
79200,note_on,0,0,1,,,,,,,,,0,,,85,60
79200,note_on,30,0,1,,,,,,,,,0,,,82,0
79200,note_on,0,0,2,,,,,,,,,0,,,51,0
79230,note_on,0,0,1,,,,,,,,,0,,,87,51
79230,note_on,30,0,1,,,,,,,,,0,,,85,0
79260,note_on,0,0,1,,,,,,,,,0,,,85,59
79260,note_on,30,0,1,,,,,,,,,0,,,87,0
79290,note_on,0,0,1,,,,,,,,,0,,,82,49
79290,note_on,30,0,1,,,,,,,,,0,,,85,0
79320,note_on,30,0,1,,,,,,,,,0,,,82,0
79320,note_on,0,0,1,,,,,,,,,0,,,85,57
79350,note_on,30,0,1,,,,,,,,,0,,,85,0
79350,note_on,0,0,1,,,,,,,,,0,,,87,47
79380,note_on,30,0,1,,,,,,,,,0,,,87,0
79380,note_on,0,0,1,,,,,,,,,0,,,85,55
79410,note_on,0,0,1,,,,,,,,,0,,,82,46
79410,note_on,30,0,1,,,,,,,,,0,,,85,0
79440,note_on,0,0,1,,,,,,,,,0,,,85,54
79440,note_on,30,0,1,,,,,,,,,0,,,82,0
79470,note_on,30,0,1,,,,,,,,,0,,,85,0
79470,note_on,0,0,1,,,,,,,,,0,,,87,45
79500,note_on,30,0,1,,,,,,,,,0,,,87,0
79500,note_on,0,0,1,,,,,,,,,0,,,85,52
79530,note_on,30,0,1,,,,,,,,,0,,,85,0
79530,note_on,0,0,1,,,,,,,,,0,,,82,43
79560,note_on,30,0,1,,,,,,,,,0,,,82,0
79560,note_on,0,0,1,,,,,,,,,0,,,85,50
79590,note_on,30,0,1,,,,,,,,,0,,,85,0
79590,note_on,0,0,1,,,,,,,,,0,,,87,42
79620,note_on,0,0,1,,,,,,,,,0,,,85,49
79620,note_on,30,0,1,,,,,,,,,0,,,87,0
79650,note_on,30,0,1,,,,,,,,,0,,,85,0
79650,note_on,0,0,1,,,,,,,,,0,,,82,40
79680,note_on,0,0,1,,,,,,,,,0,,,85,47
79680,note_on,30,0,1,,,,,,,,,0,,,82,0
79710,note_on,30,0,1,,,,,,,,,0,,,85,0
79710,note_on,0,0,1,,,,,,,,,0,,,87,39
79740,note_on,30,0,1,,,,,,,,,0,,,87,0
79740,note_on,0,0,1,,,,,,,,,0,,,85,45
79770,note_on,30,0,1,,,,,,,,,0,,,85,0
79770,note_on,0,0,1,,,,,,,,,0,,,82,38
79800,note_on,0,0,1,,,,,,,,,0,,,85,44
79800,set_tempo,1700,1,0,,,,,,500000,,,,,,,
79800,note_on,30,0,1,,,,,,,,,0,,,82,0
79830,note_on,0,0,1,,,,,,,,,0,,,87,36
79830,note_on,30,0,1,,,,,,,,,0,,,85,0
79860,note_on,0,0,1,,,,,,,,,0,,,85,42
79860,note_on,30,0,1,,,,,,,,,0,,,87,0
79888,control_change,688,0,2,,,,,,,,,0,64,0,,
79890,note_on,30,0,1,,,,,,,,,0,,,85,0
79890,note_on,0,0,1,,,,,,,,,0,,,82,34
79920,note_on,0,0,2,,,,,,,,,0,,,44,40
79920,note_on,0,0,2,,,,,,,,,0,,,58,0
79920,note_on,0,0,2,,,,,,,,,0,,,61,0
79920,note_on,30,0,1,,,,,,,,,0,,,82,0
79920,set_tempo,120,1,0,,,,,,400000,,,,,,,
79920,note_on,0,0,1,,,,,,,,,0,,,83,40
79920,control_change,0,0,1,,,,,,,,,0,91,127,,
79920,note_on,0,0,2,,,,,,,,,0,,,51,0
79920,note_on,32,0,2,,,,,,,,,0,,,55,0
79922,control_change,2,0,2,,,,,,,,,0,91,126,,
79926,control_change,4,0,2,,,,,,,,,0,64,127,,
79950,note_on,30,0,1,,,,,,,,,0,,,83,0
79950,note_on,0,0,1,,,,,,,,,0,,,87,34
79980,note_on,54,0,2,,,,,,,,,0,,,44,0
79980,note_on,30,0,1,,,,,,,,,0,,,87,0
79980,note_on,0,0,1,,,,,,,,,0,,,83,40
80010,note_on,30,0,1,,,,,,,,,0,,,83,0
80010,note_on,0,0,1,,,,,,,,,0,,,80,34
80040,note_on,0,0,2,,,,,,,,,0,,,63,40
80040,note_on,30,0,1,,,,,,,,,0,,,80,0
80040,note_on,0,0,1,,,,,,,,,0,,,80,40
80040,note_on,0,0,2,,,,,,,,,0,,,56,34
80040,note_on,60,0,2,,,,,,,,,0,,,59,34
80070,note_on,30,0,1,,,,,,,,,0,,,80,0
80070,note_on,0,0,1,,,,,,,,,0,,,83,34
80100,note_on,30,0,1,,,,,,,,,0,,,83,0
80100,note_on,0,0,1,,,,,,,,,0,,,80,40
80130,note_on,0,0,1,,,,,,,,,0,,,75,34
80130,note_on,30,0,1,,,,,,,,,0,,,80,0
80160,note_on,30,0,1,,,,,,,,,0,,,75,0
80160,note_on,0,0,1,,,,,,,,,0,,,75,40
80190,note_on,30,0,1,,,,,,,,,0,,,75,0
80190,note_on,0,0,1,,,,,,,,,0,,,80,34
80220,note_on,30,0,1,,,,,,,,,0,,,80,0
80220,note_on,0,0,1,,,,,,,,,0,,,75,40
80250,note_on,30,0,1,,,,,,,,,0,,,75,0
80250,note_on,0,0,1,,,,,,,,,0,,,71,34
80280,note_on,0,0,1,,,,,,,,,0,,,71,40
80280,note_on,30,0,1,,,,,,,,,0,,,71,0
80310,note_on,0,0,1,,,,,,,,,0,,,75,34
80310,note_on,30,0,1,,,,,,,,,0,,,71,0
80340,note_on,0,0,1,,,,,,,,,0,,,71,40
80340,note_on,30,0,1,,,,,,,,,0,,,75,0
80370,note_on,0,0,1,,,,,,,,,0,,,68,34
80370,note_on,30,0,1,,,,,,,,,0,,,71,0
80400,note_on,30,0,1,,,,,,,,,0,,,68,0
80400,note_on,0,0,1,,,,,,,,,0,,,68,40
80430,note_on,30,0,1,,,,,,,,,0,,,68,0
80430,note_on,0,0,1,,,,,,,,,0,,,71,34
80460,note_on,30,0,1,,,,,,,,,0,,,71,0
80460,note_on,0,0,1,,,,,,,,,0,,,68,40
80490,note_on,30,0,1,,,,,,,,,0,,,68,0
80490,note_on,0,0,1,,,,,,,,,0,,,63,34
80520,note_on,0,0,2,,,,,,,,,0,,,59,0
80520,note_on,30,0,1,,,,,,,,,0,,,63,0
80520,note_on,0,0,2,,,,,,,,,0,,,56,0
80520,note_on,0,0,1,,,,,,,,,0,,,67,30
80520,note_on,0,0,1,,,,,,,,,0,,,70,36
80520,note_on,480,0,2,,,,,,,,,0,,,63,0
80520,note_on,0,0,2,,,,,,,,,0,,,51,27
80520,note_on,0,0,2,,,,,,,,,0,,,58,27
80520,note_on,0,0,2,,,,,,,,,0,,,63,33
80522,set_tempo,602,1,0,,,,,,480000,,,,,,,
80529,control_change,9,0,2,,,,,,,,,0,64,0,,
80580,note_on,0,0,2,,,,,,,,,0,,,58,0
80580,note_on,51,0,2,,,,,,,,,0,,,63,0
80580,note_on,0,0,2,,,,,,,,,0,,,51,0
80580,note_on,0,0,1,,,,,,,,,0,,,67,0
80580,note_on,60,0,1,,,,,,,,,0,,,70,0
80640,note_on,60,0,1,,,,,,,,,0,,,83,40
80640,note_on,60,0,2,,,,,,,,,0,,,44,40
80642,set_tempo,120,1,0,,,,,,400000,,,,,,,
80644,control_change,4,0,2,,,,,,,,,0,64,127,,
80670,note_on,0,0,1,,,,,,,,,0,,,87,34
80670,note_on,30,0,1,,,,,,,,,0,,,83,0
80700,note_on,56,0,2,,,,,,,,,0,,,44,0
80700,note_on,0,0,1,,,,,,,,,0,,,83,40
80700,note_on,30,0,1,,,,,,,,,0,,,87,0
80730,note_on,0,0,1,,,,,,,,,0,,,80,34
80730,note_on,30,0,1,,,,,,,,,0,,,83,0
80760,note_on,0,0,2,,,,,,,,,0,,,56,34
80760,note_on,0,0,2,,,,,,,,,0,,,63,40
80760,note_on,0,0,1,,,,,,,,,0,,,80,40
80760,note_on,30,0,1,,,,,,,,,0,,,80,0
80760,note_on,60,0,2,,,,,,,,,0,,,59,34
80790,note_on,0,0,1,,,,,,,,,0,,,83,34
80790,note_on,30,0,1,,,,,,,,,0,,,80,0
80820,note_on,0,0,1,,,,,,,,,0,,,80,40
80820,note_on,30,0,1,,,,,,,,,0,,,83,0
80850,note_on,30,0,1,,,,,,,,,0,,,80,0
80850,note_on,0,0,1,,,,,,,,,0,,,75,34
80880,note_on,30,0,1,,,,,,,,,0,,,75,0
80880,note_on,0,0,1,,,,,,,,,0,,,75,40
80910,note_on,30,0,1,,,,,,,,,0,,,75,0
80910,note_on,0,0,1,,,,,,,,,0,,,80,34
80940,note_on,30,0,1,,,,,,,,,0,,,80,0
80940,note_on,0,0,1,,,,,,,,,0,,,75,40
80970,note_on,30,0,1,,,,,,,,,0,,,75,0
80970,note_on,0,0,1,,,,,,,,,0,,,71,34
81000,note_on,30,0,1,,,,,,,,,0,,,71,0
81000,note_on,0,0,1,,,,,,,,,0,,,71,40
81030,note_on,0,0,1,,,,,,,,,0,,,75,34
81030,note_on,30,0,1,,,,,,,,,0,,,71,0
81060,note_on,30,0,1,,,,,,,,,0,,,75,0
81060,note_on,0,0,1,,,,,,,,,0,,,71,40
81090,note_on,30,0,1,,,,,,,,,0,,,71,0
81090,note_on,0,0,1,,,,,,,,,0,,,68,34
81120,note_on,30,0,1,,,,,,,,,0,,,68,0
81120,note_on,0,0,1,,,,,,,,,0,,,68,40
81150,note_on,0,0,1,,,,,,,,,0,,,71,34
81150,note_on,30,0,1,,,,,,,,,0,,,68,0
81180,note_on,30,0,1,,,,,,,,,0,,,71,0
81180,note_on,0,0,1,,,,,,,,,0,,,68,40
81210,note_on,0,0,1,,,,,,,,,0,,,63,34
81210,note_on,30,0,1,,,,,,,,,0,,,68,0
81238,set_tempo,596,1,0,,,,,,502092,,,,,,,
81240,note_on,30,0,1,,,,,,,,,0,,,63,0
81240,note_on,0,0,2,,,,,,,,,0,,,58,27
81240,note_on,0,0,2,,,,,,,,,0,,,51,27
81240,note_on,0,0,2,,,,,,,,,0,,,59,0
81240,note_on,0,0,2,,,,,,,,,0,,,56,0
81240,note_on,480,0,2,,,,,,,,,0,,,63,0
81240,note_on,0,0,2,,,,,,,,,0,,,63,33
81240,note_on,0,0,1,,,,,,,,,0,,,70,36
81240,note_on,0,0,1,,,,,,,,,0,,,67,30
81253,control_change,13,0,2,,,,,,,,,0,64,0,,
81300,note_on,47,0,2,,,,,,,,,0,,,63,0
81300,note_on,0,0,2,,,,,,,,,0,,,58,0
81300,note_on,0,0,2,,,,,,,,,0,,,51,0
81300,note_on,0,0,1,,,,,,,,,0,,,67,0
81300,note_on,60,0,1,,,,,,,,,0,,,70,0
81360,note_on,60,0,2,,,,,,,,,0,,,63,27
81360,note_on,0,0,2,,,,,,,,,0,,,56,27
81360,note_on,0,0,1,,,,,,,,,0,,,71,31
81360,note_on,0,0,2,,,,,,,,,0,,,59,27
81360,note_on,60,0,1,,,,,,,,,0,,,68,31
81362,set_tempo,124,1,0,,,,,,502092,,,,,,,
81478,set_tempo,116,1,0,,,,,,428571,,,,,,,
81480,note_on,0,0,1,,,,,,,,,0,,,76,31
81480,note_on,0,0,2,,,,,,,,,0,,,58,27
81480,note_on,0,0,2,,,,,,,,,0,,,64,27
81480,note_on,0,0,2,,,,,,,,,0,,,63,0
81480,note_on,0,0,2,,,,,,,,,0,,,59,0
81480,note_on,0,0,2,,,,,,,,,0,,,51,27
81480,note_on,0,0,1,,,,,,,,,0,,,70,31
81480,note_on,0,0,1,,,,,,,,,0,,,67,31
81480,note_on,0,0,1,,,,,,,,,0,,,68,0
81480,note_on,120,0,1,,,,,,,,,0,,,71,0
81480,note_on,120,0,2,,,,,,,,,0,,,56,0
81600,note_on,120,0,1,,,,,,,,,0,,,76,0
81600,note_on,0,0,1,,,,,,,,,0,,,67,36
81600,note_on,0,0,1,,,,,,,,,0,,,67,0
81600,note_on,0,0,1,,,,,,,,,0,,,70,0
81600,note_on,0,0,1,,,,,,,,,0,,,70,36
81600,note_on,0,0,1,,,,,,,,,0,,,76,36
81600,note_on,120,0,2,,,,,,,,,0,,,58,0
81600,note_on,0,0,2,,,,,,,,,0,,,64,0
81600,note_on,0,0,2,,,,,,,,,0,,,51,0
81600,note_on,0,0,2,,,,,,,,,0,,,51,31
81600,note_on,0,0,2,,,,,,,,,0,,,58,31
81600,note_on,0,0,2,,,,,,,,,0,,,64,31
81720,note_on,0,0,2,,,,,,,,,0,,,64,31
81720,note_on,120,0,2,,,,,,,,,0,,,64,0
81720,note_on,0,0,2,,,,,,,,,0,,,58,0
81720,note_on,0,0,2,,,,,,,,,0,,,51,0
81720,note_on,120,0,1,,,,,,,,,0,,,76,0
81720,note_on,0,0,1,,,,,,,,,0,,,70,0
81720,note_on,0,0,1,,,,,,,,,0,,,67,0
81720,note_on,0,0,1,,,,,,,,,0,,,70,37
81720,note_on,0,0,2,,,,,,,,,0,,,51,31
81720,note_on,0,0,1,,,,,,,,,0,,,76,37
81720,note_on,0,0,2,,,,,,,,,0,,,58,31
81720,note_on,0,0,1,,,,,,,,,0,,,67,37
81722,set_tempo,244,1,0,,,,,,500000,,,,,,,
81840,note_on,0,0,2,,,,,,,,,0,,,58,25
81840,note_on,0,0,1,,,,,,,,,0,,,75,31
81840,note_on,0,0,2,,,,,,,,,0,,,63,25
81840,note_on,0,0,1,,,,,,,,,0,,,67,31
81840,note_on,0,0,1,,,,,,,,,0,,,70,0
81840,note_on,0,0,1,,,,,,,,,0,,,67,0
81840,note_on,0,0,1,,,,,,,,,0,,,70,31
81840,note_on,120,0,2,,,,,,,,,0,,,64,0
81840,note_on,0,0,2,,,,,,,,,0,,,58,0
81840,note_on,0,0,2,,,,,,,,,0,,,51,0
81840,note_on,0,0,2,,,,,,,,,0,,,51,25
81840,note_on,120,0,1,,,,,,,,,0,,,76,0
81958,set_tempo,236,1,0,,,,,,545455,,,,,,,
81960,note_on,120,0,1,,,,,,,,,0,,,75,0
81960,note_on,0,0,1,,,,,,,,,0,,,70,0
81960,note_on,0,0,1,,,,,,,,,0,,,67,0
81960,note_on,0,0,1,,,,,,,,,0,,,67,31
81960,note_on,0,0,1,,,,,,,,,0,,,70,31
81960,note_on,0,0,1,,,,,,,,,0,,,73,31
81960,note_on,0,0,2,,,,,,,,,0,,,58,25
81960,note_on,0,0,2,,,,,,,,,0,,,51,25
81960,note_on,0,0,2,,,,,,,,,0,,,61,25
81960,note_on,0,0,2,,,,,,,,,0,,,51,0
81960,note_on,0,0,2,,,,,,,,,0,,,58,0
81960,note_on,120,0,2,,,,,,,,,0,,,63,0
82080,set_tempo,122,1,0,,,,,,400000,,,,,,,
82080,note_on,0,0,1,,,,,,,,,0,,,83,40
82080,note_on,0,0,1,,,,,,,,,0,,,67,0
82080,note_on,0,0,1,,,,,,,,,0,,,70,0
82080,note_on,120,0,1,,,,,,,,,0,,,73,0
82080,note_on,0,0,2,,,,,,,,,0,,,51,0
82080,note_on,0,0,2,,,,,,,,,0,,,61,0
82080,note_on,0,0,2,,,,,,,,,0,,,44,40
82080,note_on,120,0,2,,,,,,,,,0,,,58,0
82090,control_change,10,0,2,,,,,,,,,0,64,127,,
82110,note_on,0,0,1,,,,,,,,,0,,,87,34
82110,note_on,30,0,1,,,,,,,,,0,,,83,0
82140,note_on,30,0,1,,,,,,,,,0,,,87,0
82140,note_on,0,0,1,,,,,,,,,0,,,83,40
82140,note_on,50,0,2,,,,,,,,,0,,,44,0
82170,note_on,30,0,1,,,,,,,,,0,,,83,0
82170,note_on,0,0,1,,,,,,,,,0,,,80,34
82200,note_on,60,0,2,,,,,,,,,0,,,59,34
82200,note_on,30,0,1,,,,,,,,,0,,,80,0
82200,note_on,0,0,2,,,,,,,,,0,,,56,34
82200,note_on,0,0,1,,,,,,,,,0,,,80,40
82200,note_on,0,0,2,,,,,,,,,0,,,63,40
82230,note_on,30,0,1,,,,,,,,,0,,,80,0
82230,note_on,0,0,1,,,,,,,,,0,,,83,34
82260,note_on,0,0,1,,,,,,,,,0,,,80,40
82260,note_on,30,0,1,,,,,,,,,0,,,83,0
82290,note_on,0,0,1,,,,,,,,,0,,,75,34
82290,note_on,30,0,1,,,,,,,,,0,,,80,0
82320,note_on,0,0,1,,,,,,,,,0,,,75,40
82320,note_on,30,0,1,,,,,,,,,0,,,75,0
82350,note_on,0,0,1,,,,,,,,,0,,,80,34
82350,note_on,30,0,1,,,,,,,,,0,,,75,0
82380,note_on,30,0,1,,,,,,,,,0,,,80,0
82380,note_on,0,0,1,,,,,,,,,0,,,75,40
82410,note_on,30,0,1,,,,,,,,,0,,,75,0
82410,note_on,0,0,1,,,,,,,,,0,,,71,34
82440,note_on,30,0,1,,,,,,,,,0,,,71,0
82440,note_on,0,0,1,,,,,,,,,0,,,71,40
82470,note_on,30,0,1,,,,,,,,,0,,,71,0
82470,note_on,0,0,1,,,,,,,,,0,,,75,34
82500,note_on,30,0,1,,,,,,,,,0,,,75,0
82500,note_on,0,0,1,,,,,,,,,0,,,71,40
82530,note_on,30,0,1,,,,,,,,,0,,,71,0
82530,note_on,0,0,1,,,,,,,,,0,,,68,34
82560,note_on,30,0,1,,,,,,,,,0,,,68,0
82560,note_on,0,0,1,,,,,,,,,0,,,68,40
82590,note_on,30,0,1,,,,,,,,,0,,,68,0
82590,note_on,0,0,1,,,,,,,,,0,,,71,34
82620,note_on,30,0,1,,,,,,,,,0,,,71,0
82620,note_on,0,0,1,,,,,,,,,0,,,68,40
82650,note_on,30,0,1,,,,,,,,,0,,,68,0
82650,note_on,0,0,1,,,,,,,,,0,,,63,34
82680,note_on,0,0,1,,,,,,,,,0,,,70,36
82680,note_on,30,0,1,,,,,,,,,0,,,63,0
82680,note_on,0,0,1,,,,,,,,,0,,,67,30
82680,note_on,480,0,2,,,,,,,,,0,,,63,0
82680,note_on,0,0,2,,,,,,,,,0,,,58,27
82680,note_on,0,0,2,,,,,,,,,0,,,59,0
82680,note_on,0,0,2,,,,,,,,,0,,,51,27
82680,set_tempo,600,1,0,,,,,,480000,,,,,,,
82680,note_on,0,0,2,,,,,,,,,0,,,63,32
82680,note_on,0,0,2,,,,,,,,,0,,,56,0
82693,control_change,13,0,2,,,,,,,,,0,64,0,,
82740,note_on,60,0,1,,,,,,,,,0,,,70,0
82740,note_on,0,0,1,,,,,,,,,0,,,67,0
82740,note_on,0,0,2,,,,,,,,,0,,,51,0
82740,note_on,47,0,2,,,,,,,,,0,,,63,0
82740,note_on,0,0,2,,,,,,,,,0,,,58,0
82800,note_on,60,0,2,,,,,,,,,0,,,44,40
82800,note_on,60,0,1,,,,,,,,,0,,,83,40
82802,set_tempo,122,1,0,,,,,,400000,,,,,,,
82811,control_change,11,0,2,,,,,,,,,0,64,127,,
82830,note_on,30,0,1,,,,,,,,,0,,,83,0
82830,note_on,0,0,1,,,,,,,,,0,,,87,34
82860,note_on,49,0,2,,,,,,,,,0,,,44,0
82860,note_on,30,0,1,,,,,,,,,0,,,87,0
82860,note_on,0,0,1,,,,,,,,,0,,,83,40
82890,note_on,30,0,1,,,,,,,,,0,,,83,0
82890,note_on,0,0,1,,,,,,,,,0,,,80,34
82920,note_on,30,0,1,,,,,,,,,0,,,80,0
82920,note_on,0,0,1,,,,,,,,,0,,,80,40
82920,note_on,60,0,2,,,,,,,,,0,,,59,34
82920,note_on,0,0,2,,,,,,,,,0,,,56,34
82920,note_on,0,0,2,,,,,,,,,0,,,63,40
82950,note_on,30,0,1,,,,,,,,,0,,,80,0
82950,note_on,0,0,1,,,,,,,,,0,,,83,34
82980,note_on,30,0,1,,,,,,,,,0,,,83,0
82980,note_on,0,0,1,,,,,,,,,0,,,80,40
83010,note_on,30,0,1,,,,,,,,,0,,,80,0
83010,note_on,0,0,1,,,,,,,,,0,,,75,34
83040,note_on,30,0,1,,,,,,,,,0,,,75,0
83040,note_on,0,0,1,,,,,,,,,0,,,75,40
83070,note_on,0,0,1,,,,,,,,,0,,,80,34
83070,note_on,30,0,1,,,,,,,,,0,,,75,0
83100,note_on,30,0,1,,,,,,,,,0,,,80,0
83100,note_on,0,0,1,,,,,,,,,0,,,75,40
83130,note_on,30,0,1,,,,,,,,,0,,,75,0
83130,note_on,0,0,1,,,,,,,,,0,,,71,34
83160,note_on,30,0,1,,,,,,,,,0,,,71,0
83160,note_on,0,0,1,,,,,,,,,0,,,71,40
83190,note_on,30,0,1,,,,,,,,,0,,,71,0
83190,note_on,0,0,1,,,,,,,,,0,,,75,34
83220,note_on,30,0,1,,,,,,,,,0,,,75,0
83220,note_on,0,0,1,,,,,,,,,0,,,71,40
83250,note_on,30,0,1,,,,,,,,,0,,,71,0
83250,note_on,0,0,1,,,,,,,,,0,,,68,34
83280,note_on,30,0,1,,,,,,,,,0,,,68,0
83280,note_on,0,0,1,,,,,,,,,0,,,68,40
83310,note_on,30,0,1,,,,,,,,,0,,,68,0
83310,note_on,0,0,1,,,,,,,,,0,,,71,34
83340,note_on,30,0,1,,,,,,,,,0,,,71,0
83340,note_on,0,0,1,,,,,,,,,0,,,68,40
83370,note_on,0,0,1,,,,,,,,,0,,,63,34
83370,note_on,30,0,1,,,,,,,,,0,,,68,0
83400,set_tempo,598,1,0,,,,,,461538,,,,,,,
83400,note_on,0,0,2,,,,,,,,,0,,,56,0
83400,note_on,0,0,2,,,,,,,,,0,,,59,0
83400,note_on,30,0,1,,,,,,,,,0,,,63,0
83400,note_on,0,0,2,,,,,,,,,0,,,51,27
83400,note_on,0,0,1,,,,,,,,,0,,,70,36
83400,note_on,0,0,1,,,,,,,,,0,,,67,30
83400,note_on,480,0,2,,,,,,,,,0,,,63,0
83400,note_on,0,0,2,,,,,,,,,0,,,58,27
83400,note_on,0,0,2,,,,,,,,,0,,,63,32
83416,control_change,16,0,2,,,,,,,,,0,64,0,,
83460,note_on,0,0,2,,,,,,,,,0,,,51,0
83460,note_on,0,0,2,,,,,,,,,0,,,58,0
83460,note_on,0,0,1,,,,,,,,,0,,,67,0
83460,note_on,60,0,1,,,,,,,,,0,,,70,0
83460,note_on,44,0,2,,,,,,,,,0,,,63,0
83520,note_on,0,0,2,,,,,,,,,0,,,59,27
83520,note_on,60,0,2,,,,,,,,,0,,,63,27
83520,note_on,0,0,2,,,,,,,,,0,,,56,27
83520,note_on,0,0,1,,,,,,,,,0,,,71,31
83520,note_on,60,0,1,,,,,,,,,0,,,68,31
83520,set_tempo,120,1,0,,,,,,502092,,,,,,,
83522,set_tempo,2,1,0,,,,,,502092,,,,,,,
83638,set_tempo,116,1,0,,,,,,428571,,,,,,,
83640,note_on,0,0,2,,,,,,,,,0,,,58,27
83640,note_on,0,0,1,,,,,,,,,0,,,68,0
83640,note_on,0,0,1,,,,,,,,,0,,,66,31
83640,note_on,0,0,1,,,,,,,,,0,,,70,31
83640,note_on,0,0,1,,,,,,,,,0,,,76,31
83640,note_on,120,0,2,,,,,,,,,0,,,56,0
83640,note_on,0,0,2,,,,,,,,,0,,,59,0
83640,note_on,0,0,2,,,,,,,,,0,,,63,0
83640,note_on,0,0,2,,,,,,,,,0,,,54,27
83640,note_on,0,0,2,,,,,,,,,0,,,64,27
83640,note_on,120,0,1,,,,,,,,,0,,,71,0
83760,note_on,120,0,1,,,,,,,,,0,,,76,0
83760,note_on,0,0,1,,,,,,,,,0,,,70,36
83760,note_on,0,0,1,,,,,,,,,0,,,66,0
83760,note_on,0,0,1,,,,,,,,,0,,,66,36
83760,note_on,0,0,2,,,,,,,,,0,,,64,0
83760,note_on,0,0,1,,,,,,,,,0,,,76,36
83760,note_on,0,0,1,,,,,,,,,0,,,70,0
83760,note_on,0,0,2,,,,,,,,,0,,,54,0
83760,note_on,0,0,2,,,,,,,,,0,,,54,31
83760,note_on,0,0,2,,,,,,,,,0,,,58,31
83760,note_on,0,0,2,,,,,,,,,0,,,64,31
83760,note_on,120,0,2,,,,,,,,,0,,,58,0
83880,note_on,0,0,1,,,,,,,,,0,,,76,37
83880,note_on,120,0,1,,,,,,,,,0,,,76,0
83880,note_on,120,0,2,,,,,,,,,0,,,64,0
83880,note_on,0,0,2,,,,,,,,,0,,,58,0
83880,note_on,0,0,2,,,,,,,,,0,,,54,0
83880,note_on,0,0,2,,,,,,,,,0,,,54,31
83880,note_on,0,0,2,,,,,,,,,0,,,58,31
83880,note_on,0,0,2,,,,,,,,,0,,,64,31
83880,note_on,0,0,1,,,,,,,,,0,,,70,0
83880,note_on,0,0,1,,,,,,,,,0,,,70,37
83880,note_on,0,0,1,,,,,,,,,0,,,66,37
83880,note_on,0,0,1,,,,,,,,,0,,,66,0
83882,set_tempo,244,1,0,,,,,,500000,,,,,,,
84000,note_on,120,0,1,,,,,,,,,0,,,76,0
84000,note_on,0,0,1,,,,,,,,,0,,,75,31
84000,note_on,0,0,1,,,,,,,,,0,,,70,31
84000,note_on,120,0,2,,,,,,,,,0,,,64,0
84000,note_on,0,0,2,,,,,,,,,0,,,58,0
84000,note_on,0,0,1,,,,,,,,,0,,,66,31
84000,note_on,0,0,2,,,,,,,,,0,,,54,25
84000,note_on,0,0,2,,,,,,,,,0,,,58,25
84000,note_on,0,0,2,,,,,,,,,0,,,63,25
84000,note_on,0,0,1,,,,,,,,,0,,,70,0
84000,note_on,0,0,2,,,,,,,,,0,,,54,0
84000,note_on,0,0,1,,,,,,,,,0,,,66,0
84118,set_tempo,236,1,0,,,,,,545455,,,,,,,
84120,note_on,0,0,2,,,,,,,,,0,,,54,25
84120,note_on,120,0,1,,,,,,,,,0,,,75,0
84120,note_on,0,0,1,,,,,,,,,0,,,70,0
84120,note_on,0,0,1,,,,,,,,,0,,,66,0
84120,note_on,0,0,1,,,,,,,,,0,,,66,31
84120,note_on,0,0,1,,,,,,,,,0,,,74,31
84120,note_on,0,0,1,,,,,,,,,0,,,70,31
84120,note_on,0,0,2,,,,,,,,,0,,,62,25
84120,note_on,0,0,2,,,,,,,,,0,,,58,0
84120,note_on,120,0,2,,,,,,,,,0,,,63,0
84120,note_on,0,0,2,,,,,,,,,0,,,58,25
84120,note_on,0,0,2,,,,,,,,,0,,,54,0
84240,set_tempo,122,1,0,,,,,,400000,,,,,,,
84240,note_on,0,0,2,,,,,,,,,0,,,47,50
84240,note_on,0,0,2,,,,,,,,,0,,,54,0
84240,note_on,0,0,2,,,,,,,,,0,,,62,0
84240,note_on,120,0,2,,,,,,,,,0,,,58,0
84240,note_on,120,0,1,,,,,,,,,0,,,70,0
84240,note_on,0,0,1,,,,,,,,,0,,,74,0
84240,note_on,0,0,1,,,,,,,,,0,,,66,0
84240,note_on,0,0,1,,,,,,,,,0,,,87,50
84240,control_change,0,0,1,,,,,,,,,0,91,127,,
84242,control_change,2,0,2,,,,,,,,,0,91,126,,
84244,control_change,2,0,2,,,,,,,,,0,64,127,,
84270,note_on,0,0,1,,,,,,,,,0,,,90,42
84270,note_on,30,0,1,,,,,,,,,0,,,87,0
84300,note_on,30,0,1,,,,,,,,,0,,,90,0
84300,note_on,0,0,1,,,,,,,,,0,,,87,50
84300,note_on,56,0,2,,,,,,,,,0,,,47,0
84330,note_on,30,0,1,,,,,,,,,0,,,87,0
84330,note_on,0,0,1,,,,,,,,,0,,,83,42
84360,note_on,0,0,1,,,,,,,,,0,,,83,50
84360,note_on,30,0,1,,,,,,,,,0,,,83,0
84360,note_on,0,0,2,,,,,,,,,0,,,59,42
84360,note_on,60,0,2,,,,,,,,,0,,,63,50
84360,note_on,0,0,2,,,,,,,,,0,,,54,42
84390,note_on,30,0,1,,,,,,,,,0,,,83,0
84390,note_on,0,0,1,,,,,,,,,0,,,87,42
84420,note_on,30,0,1,,,,,,,,,0,,,87,0
84420,note_on,0,0,1,,,,,,,,,0,,,83,50
84450,note_on,30,0,1,,,,,,,,,0,,,83,0
84450,note_on,0,0,1,,,,,,,,,0,,,78,42
84480,note_on,30,0,1,,,,,,,,,0,,,78,0
84480,note_on,0,0,1,,,,,,,,,0,,,78,50
84510,note_on,30,0,1,,,,,,,,,0,,,78,0
84510,note_on,0,0,1,,,,,,,,,0,,,83,42
84540,note_on,30,0,1,,,,,,,,,0,,,83,0
84540,note_on,0,0,1,,,,,,,,,0,,,78,50
84570,note_on,30,0,1,,,,,,,,,0,,,78,0
84570,note_on,0,0,1,,,,,,,,,0,,,75,42
84600,note_on,0,0,1,,,,,,,,,0,,,75,50
84600,note_on,30,0,1,,,,,,,,,0,,,75,0
84630,note_on,0,0,1,,,,,,,,,0,,,78,42
84630,note_on,30,0,1,,,,,,,,,0,,,75,0
84660,note_on,0,0,1,,,,,,,,,0,,,75,50
84660,note_on,30,0,1,,,,,,,,,0,,,78,0
84690,note_on,0,0,1,,,,,,,,,0,,,71,42
84690,note_on,30,0,1,,,,,,,,,0,,,75,0
84720,note_on,0,0,1,,,,,,,,,0,,,71,50
84720,note_on,30,0,1,,,,,,,,,0,,,71,0
84750,note_on,0,0,1,,,,,,,,,0,,,75,42
84750,note_on,30,0,1,,,,,,,,,0,,,71,0
84780,note_on,0,0,1,,,,,,,,,0,,,71,50
84780,note_on,30,0,1,,,,,,,,,0,,,75,0
84810,note_on,30,0,1,,,,,,,,,0,,,71,0
84810,note_on,0,0,1,,,,,,,,,0,,,66,42
84840,note_on,0,0,1,,,,,,,,,0,,,70,37
84840,note_on,0,0,2,,,,,,,,,0,,,63,0
84840,note_on,0,0,2,,,,,,,,,0,,,59,0
84840,note_on,480,0,2,,,,,,,,,0,,,54,0
84840,note_on,30,0,1,,,,,,,,,0,,,66,0
84840,note_on,0,0,2,,,,,,,,,0,,,64,41
84840,note_on,0,0,2,,,,,,,,,0,,,54,35
84840,note_on,0,0,1,,,,,,,,,0,,,73,45
84842,set_tempo,602,1,0,,,,,,480000,,,,,,,
84850,control_change,10,0,2,,,,,,,,,0,64,0,,
84900,note_on,0,0,2,,,,,,,,,0,,,64,0
84900,note_on,60,0,1,,,,,,,,,0,,,73,0
84900,note_on,0,0,1,,,,,,,,,0,,,70,0
84900,note_on,50,0,2,,,,,,,,,0,,,54,0
84960,note_on,60,0,1,,,,,,,,,0,,,87,50
84960,note_on,60,0,2,,,,,,,,,0,,,47,50
84960,control_change,0,0,1,,,,,,,,,0,91,127,,
84960,set_tempo,118,1,0,,,,,,400000,,,,,,,
84962,control_change,2,0,2,,,,,,,,,0,91,126,,
84964,control_change,2,0,2,,,,,,,,,0,64,127,,
84990,note_on,30,0,1,,,,,,,,,0,,,87,0
84990,note_on,0,0,1,,,,,,,,,0,,,90,42
85020,note_on,0,0,1,,,,,,,,,0,,,87,50
85020,note_on,30,0,1,,,,,,,,,0,,,90,0
85020,note_on,56,0,2,,,,,,,,,0,,,47,0
85050,note_on,0,0,1,,,,,,,,,0,,,83,42
85050,note_on,30,0,1,,,,,,,,,0,,,87,0
85080,note_on,60,0,2,,,,,,,,,0,,,63,50
85080,note_on,0,0,2,,,,,,,,,0,,,59,42
85080,note_on,0,0,2,,,,,,,,,0,,,54,42
85080,note_on,30,0,1,,,,,,,,,0,,,83,0
85080,note_on,0,0,1,,,,,,,,,0,,,83,50
85110,note_on,30,0,1,,,,,,,,,0,,,83,0
85110,note_on,0,0,1,,,,,,,,,0,,,87,42
85140,note_on,30,0,1,,,,,,,,,0,,,87,0
85140,note_on,0,0,1,,,,,,,,,0,,,83,50
85170,note_on,0,0,1,,,,,,,,,0,,,78,42
85170,note_on,30,0,1,,,,,,,,,0,,,83,0
85200,note_on,0,0,1,,,,,,,,,0,,,78,50
85200,note_on,30,0,1,,,,,,,,,0,,,78,0
85230,note_on,30,0,1,,,,,,,,,0,,,78,0
85230,note_on,0,0,1,,,,,,,,,0,,,83,42
85260,note_on,0,0,1,,,,,,,,,0,,,78,50
85260,note_on,30,0,1,,,,,,,,,0,,,83,0
85290,note_on,0,0,1,,,,,,,,,0,,,75,42
85290,note_on,30,0,1,,,,,,,,,0,,,78,0
85320,note_on,30,0,1,,,,,,,,,0,,,75,0
85320,note_on,0,0,1,,,,,,,,,0,,,75,50
85350,note_on,0,0,1,,,,,,,,,0,,,78,42
85350,note_on,30,0,1,,,,,,,,,0,,,75,0
85380,note_on,0,0,1,,,,,,,,,0,,,75,50
85380,note_on,30,0,1,,,,,,,,,0,,,78,0
85410,note_on,0,0,1,,,,,,,,,0,,,71,42
85410,note_on,30,0,1,,,,,,,,,0,,,75,0
85440,note_on,30,0,1,,,,,,,,,0,,,71,0
85440,note_on,0,0,1,,,,,,,,,0,,,71,50
85470,note_on,0,0,1,,,,,,,,,0,,,75,42
85470,note_on,30,0,1,,,,,,,,,0,,,71,0
85500,note_on,30,0,1,,,,,,,,,0,,,75,0
85500,note_on,0,0,1,,,,,,,,,0,,,71,50
85530,note_on,30,0,1,,,,,,,,,0,,,71,0
85530,note_on,0,0,1,,,,,,,,,0,,,66,42
85560,set_tempo,600,1,0,,,,,,461538,,,,,,,
85560,note_on,0,0,2,,,,,,,,,0,,,59,0
85560,note_on,0,0,1,,,,,,,,,0,,,70,37
85560,note_on,0,0,1,,,,,,,,,0,,,73,45
85560,note_on,0,0,2,,,,,,,,,0,,,54,35
85560,note_on,0,0,2,,,,,,,,,0,,,64,41
85560,note_on,0,0,2,,,,,,,,,0,,,63,0
85560,note_on,480,0,2,,,,,,,,,0,,,54,0
85560,note_on,30,0,1,,,,,,,,,0,,,66,0
85579,control_change,19,0,2,,,,,,,,,0,64,0,,
85620,note_on,41,0,2,,,,,,,,,0,,,54,0
85620,note_on,0,0,2,,,,,,,,,0,,,64,0
85620,note_on,60,0,1,,,,,,,,,0,,,73,0
85620,note_on,0,0,1,,,,,,,,,0,,,70,0
85680,note_on,60,0,1,,,,,,,,,0,,,71,41
85680,note_on,0,0,2,,,,,,,,,0,,,59,36
85680,note_on,60,0,2,,,,,,,,,0,,,63,36
85680,note_on,0,0,1,,,,,,,,,0,,,75,41
85798,set_tempo,238,1,0,,,,,,428571,,,,,,,
85800,note_on,0,0,1,,,,,,,,,0,,,80,47
85800,note_on,0,0,1,,,,,,,,,0,,,73,47
85800,note_on,0,0,1,,,,,,,,,0,,,70,47
85800,note_on,0,0,1,,,,,,,,,0,,,71,0
85800,note_on,120,0,1,,,,,,,,,0,,,75,0
85800,note_on,120,0,2,,,,,,,,,0,,,59,0
85800,note_on,0,0,2,,,,,,,,,0,,,63,0
85800,note_on,0,0,2,,,,,,,,,0,,,54,41
85800,note_on,0,0,2,,,,,,,,,0,,,64,41
85920,note_on,120,0,1,,,,,,,,,0,,,80,0
85920,note_on,0,0,1,,,,,,,,,0,,,80,48
85920,note_on,120,0,2,,,,,,,,,0,,,64,0
85920,note_on,0,0,2,,,,,,,,,0,,,64,45
85920,note_on,0,0,2,,,,,,,,,0,,,54,45
85920,note_on,0,0,1,,,,,,,,,0,,,73,0
85920,note_on,0,0,1,,,,,,,,,0,,,73,48
85920,note_on,0,0,1,,,,,,,,,0,,,70,48
85920,note_on,0,0,1,,,,,,,,,0,,,70,0
85920,note_on,0,0,2,,,,,,,,,0,,,54,0
86034,set_tempo,236,1,0,,,,,,472441,,,,,,,
86040,note_on,0,0,1,,,,,,,,,0,,,73,49
86040,note_on,0,0,2,,,,,,,,,0,,,54,0
86040,note_on,0,0,2,,,,,,,,,0,,,54,45
86040,note_on,0,0,2,,,,,,,,,0,,,64,45
86040,note_on,120,0,1,,,,,,,,,0,,,80,0
86040,note_on,0,0,1,,,,,,,,,0,,,73,0
86040,note_on,0,0,1,,,,,,,,,0,,,70,0
86040,note_on,0,0,1,,,,,,,,,0,,,70,49
86040,note_on,0,0,1,,,,,,,,,0,,,80,49
86040,note_on,120,0,2,,,,,,,,,0,,,64,0
86160,note_on,120,0,1,,,,,,,,,0,,,80,0
86160,note_on,0,0,1,,,,,,,,,0,,,73,0
86160,note_on,0,0,1,,,,,,,,,0,,,70,0
86160,note_on,0,0,1,,,,,,,,,0,,,78,39
86160,note_on,0,0,1,,,,,,,,,0,,,70,39
86160,note_on,0,0,1,,,,,,,,,0,,,75,39
86160,note_on,120,0,2,,,,,,,,,0,,,64,0
86160,note_on,0,0,2,,,,,,,,,0,,,54,0
86160,note_on,0,0,2,,,,,,,,,0,,,63,36
86160,note_on,0,0,2,,,,,,,,,0,,,54,36
86278,set_tempo,244,1,0,,,,,,545455,,,,,,,
86280,note_on,0,0,1,,,,,,,,,0,,,70,0
86280,note_on,120,0,1,,,,,,,,,0,,,75,0
86280,note_on,120,0,2,,,,,,,,,0,,,54,0
86280,note_on,0,0,2,,,,,,,,,0,,,63,0
86280,note_on,0,0,2,,,,,,,,,0,,,61,36
86280,note_on,0,0,1,,,,,,,,,0,,,70,39
86280,note_on,0,0,1,,,,,,,,,0,,,76,39
86280,note_on,0,0,1,,,,,,,,,0,,,78,0
86280,note_on,0,0,2,,,,,,,,,0,,,54,36
86400,note_on,0,0,2,,,,,,,,,0,,,61,0
86400,set_tempo,122,1,0,,,,,,400000,,,,,,,
86400,note_on,0,0,2,,,,,,,,,0,,,47,50
86400,note_on,120,0,2,,,,,,,,,0,,,54,0
86400,control_change,0,0,1,,,,,,,,,0,91,127,,
86400,note_on,0,0,1,,,,,,,,,0,,,86,50
86400,note_on,120,0,1,,,,,,,,,0,,,70,0
86400,note_on,0,0,1,,,,,,,,,0,,,76,0
86402,control_change,2,0,2,,,,,,,,,0,91,126,,
86409,control_change,7,0,2,,,,,,,,,0,64,127,,
86430,note_on,0,0,1,,,,,,,,,0,,,90,42
86430,note_on,30,0,1,,,,,,,,,0,,,86,0
86460,note_on,30,0,1,,,,,,,,,0,,,90,0
86460,note_on,0,0,1,,,,,,,,,0,,,86,50
86460,note_on,51,0,2,,,,,,,,,0,,,47,0
86490,note_on,30,0,1,,,,,,,,,0,,,86,0
86490,note_on,0,0,1,,,,,,,,,0,,,83,42
86520,note_on,60,0,2,,,,,,,,,0,,,62,50
86520,note_on,0,0,2,,,,,,,,,0,,,59,42
86520,note_on,0,0,2,,,,,,,,,0,,,54,42
86520,note_on,30,0,1,,,,,,,,,0,,,83,0
86520,note_on,0,0,1,,,,,,,,,0,,,83,50
86550,note_on,0,0,1,,,,,,,,,0,,,86,42
86550,note_on,30,0,1,,,,,,,,,0,,,83,0
86580,note_on,30,0,1,,,,,,,,,0,,,86,0
86580,note_on,0,0,1,,,,,,,,,0,,,83,50
86610,note_on,30,0,1,,,,,,,,,0,,,83,0
86610,note_on,0,0,1,,,,,,,,,0,,,78,42
86640,note_on,0,0,1,,,,,,,,,0,,,78,50
86640,note_on,30,0,1,,,,,,,,,0,,,78,0
86670,note_on,0,0,1,,,,,,,,,0,,,83,42
86670,note_on,30,0,1,,,,,,,,,0,,,78,0
86700,note_on,0,0,1,,,,,,,,,0,,,78,50
86700,note_on,30,0,1,,,,,,,,,0,,,83,0
86730,note_on,30,0,1,,,,,,,,,0,,,78,0
86730,note_on,0,0,1,,,,,,,,,0,,,74,42
86760,note_on,0,0,1,,,,,,,,,0,,,74,50
86760,note_on,30,0,1,,,,,,,,,0,,,74,0
86790,note_on,30,0,1,,,,,,,,,0,,,74,0
86790,note_on,0,0,1,,,,,,,,,0,,,78,42
86820,note_on,0,0,1,,,,,,,,,0,,,74,50
86820,note_on,30,0,1,,,,,,,,,0,,,78,0
86850,note_on,30,0,1,,,,,,,,,0,,,74,0
86850,note_on,0,0,1,,,,,,,,,0,,,71,42
86880,note_on,30,0,1,,,,,,,,,0,,,71,0
86880,note_on,0,0,1,,,,,,,,,0,,,71,50
86910,note_on,30,0,1,,,,,,,,,0,,,71,0
86910,note_on,0,0,1,,,,,,,,,0,,,74,42
86940,note_on,30,0,1,,,,,,,,,0,,,74,0
86940,note_on,0,0,1,,,,,,,,,0,,,71,50
86970,note_on,0,0,1,,,,,,,,,0,,,66,42
86970,note_on,30,0,1,,,,,,,,,0,,,71,0
87000,note_on,0,0,2,,,,,,,,,0,,,64,42
87000,note_on,480,0,2,,,,,,,,,0,,,54,0
87000,note_on,0,0,2,,,,,,,,,0,,,59,0
87000,note_on,0,0,1,,,,,,,,,0,,,70,37
87000,note_on,0,0,2,,,,,,,,,0,,,54,35
87000,note_on,0,0,2,,,,,,,,,0,,,62,0
87000,note_on,30,0,1,,,,,,,,,0,,,66,0
87000,note_on,0,0,1,,,,,,,,,0,,,73,45
87002,set_tempo,602,1,0,,,,,,480000,,,,,,,
87029,control_change,29,0,2,,,,,,,,,0,64,0,,
87060,note_on,0,0,1,,,,,,,,,0,,,70,0
87060,note_on,31,0,2,,,,,,,,,0,,,54,0
87060,note_on,0,0,2,,,,,,,,,0,,,64,0
87060,note_on,60,0,1,,,,,,,,,0,,,73,0
87120,note_on,60,0,2,,,,,,,,,0,,,47,50
87120,set_tempo,118,1,0,,,,,,400000,,,,,,,
87120,control_change,0,0,1,,,,,,,,,0,91,127,,
87120,note_on,60,0,1,,,,,,,,,0,,,86,50
87122,control_change,2,0,2,,,,,,,,,0,91,126,,
87126,control_change,4,0,2,,,,,,,,,0,64,127,,
87150,note_on,30,0,1,,,,,,,,,0,,,86,0
87150,note_on,0,0,1,,,,,,,,,0,,,90,42
87180,note_on,30,0,1,,,,,,,,,0,,,90,0
87180,note_on,0,0,1,,,,,,,,,0,,,86,50
87180,note_on,54,0,2,,,,,,,,,0,,,47,0
87210,note_on,30,0,1,,,,,,,,,0,,,86,0
87210,note_on,0,0,1,,,,,,,,,0,,,83,42
87240,note_on,60,0,2,,,,,,,,,0,,,62,50
87240,note_on,30,0,1,,,,,,,,,0,,,83,0
87240,note_on,0,0,1,,,,,,,,,0,,,83,50
87240,note_on,0,0,2,,,,,,,,,0,,,54,42
87240,note_on,0,0,2,,,,,,,,,0,,,59,42
87270,note_on,0,0,1,,,,,,,,,0,,,86,42
87270,note_on,30,0,1,,,,,,,,,0,,,83,0
87300,note_on,0,0,1,,,,,,,,,0,,,83,50
87300,note_on,30,0,1,,,,,,,,,0,,,86,0
87330,note_on,0,0,1,,,,,,,,,0,,,78,42
87330,note_on,30,0,1,,,,,,,,,0,,,83,0
87360,note_on,0,0,1,,,,,,,,,0,,,78,50
87360,note_on,30,0,1,,,,,,,,,0,,,78,0
87390,note_on,30,0,1,,,,,,,,,0,,,78,0
87390,note_on,0,0,1,,,,,,,,,0,,,83,42
87420,note_on,30,0,1,,,,,,,,,0,,,83,0
87420,note_on,0,0,1,,,,,,,,,0,,,78,50
87450,note_on,30,0,1,,,,,,,,,0,,,78,0
87450,note_on,0,0,1,,,,,,,,,0,,,74,42
87480,note_on,30,0,1,,,,,,,,,0,,,74,0
87480,note_on,0,0,1,,,,,,,,,0,,,74,50
87510,note_on,0,0,1,,,,,,,,,0,,,78,42
87510,note_on,30,0,1,,,,,,,,,0,,,74,0
87540,note_on,0,0,1,,,,,,,,,0,,,74,50
87540,note_on,30,0,1,,,,,,,,,0,,,78,0
87570,note_on,0,0,1,,,,,,,,,0,,,71,42
87570,note_on,30,0,1,,,,,,,,,0,,,74,0
87600,note_on,30,0,1,,,,,,,,,0,,,71,0
87600,note_on,0,0,1,,,,,,,,,0,,,71,50
87630,note_on,0,0,1,,,,,,,,,0,,,74,42
87630,note_on,30,0,1,,,,,,,,,0,,,71,0
87660,note_on,0,0,1,,,,,,,,,0,,,71,50
87660,note_on,30,0,1,,,,,,,,,0,,,74,0
87690,note_on,30,0,1,,,,,,,,,0,,,71,0
87690,note_on,0,0,1,,,,,,,,,0,,,66,42
87720,note_on,30,0,1,,,,,,,,,0,,,66,0
87720,note_on,0,0,1,,,,,,,,,0,,,70,37
87720,note_on,480,0,2,,,,,,,,,0,,,54,0
87720,note_on,0,0,1,,,,,,,,,0,,,73,45
87720,note_on,0,0,2,,,,,,,,,0,,,59,0
87720,note_on,0,0,2,,,,,,,,,0,,,54,35
87720,note_on,0,0,2,,,,,,,,,0,,,64,41
87720,note_on,0,0,2,,,,,,,,,0,,,62,0
87722,set_tempo,602,1,0,,,,,,480000,,,,,,,
87743,control_change,23,0,2,,,,,,,,,0,64,0,,
87780,note_on,0,0,1,,,,,,,,,0,,,70,0
87780,note_on,0,0,2,,,,,,,,,0,,,64,0
87780,note_on,37,0,2,,,,,,,,,0,,,54,0
87780,note_on,60,0,1,,,,,,,,,0,,,73,0
87838,set_tempo,116,1,0,,,,,,517241,,,,,,,
87840,note_on,60,0,1,,,,,,,,,0,,,74,41
87840,note_on,60,0,2,,,,,,,,,0,,,62,40
87840,note_on,0,0,1,,,,,,,,,0,,,71,41
87840,note_on,0,0,2,,,,,,,,,0,,,59,40
87840,note_on,0,0,1,,,,,,,,,0,,,66,41
87958,set_tempo,120,1,0,,,,,,428571,,,,,,,
87960,note_on,120,0,2,,,,,,,,,0,,,59,0
87960,note_on,0,0,2,,,,,,,,,0,,,62,0
87960,note_on,0,0,2,,,,,,,,,0,,,57,45
87960,note_on,0,0,2,,,,,,,,,0,,,67,45
87960,note_on,0,0,1,,,,,,,,,0,,,74,0
87960,note_on,120,0,1,,,,,,,,,0,,,71,0
87960,note_on,0,0,1,,,,,,,,,0,,,66,0
87960,note_on,0,0,1,,,,,,,,,0,,,73,50
87960,note_on,0,0,1,,,,,,,,,0,,,76,50
87960,note_on,0,0,1,,,,,,,,,0,,,83,50
88080,note_on,0,0,1,,,,,,,,,0,,,73,48
88080,note_on,120,0,2,,,,,,,,,0,,,67,0
88080,note_on,0,0,2,,,,,,,,,0,,,57,0
88080,note_on,0,0,1,,,,,,,,,0,,,73,0
88080,note_on,0,0,2,,,,,,,,,0,,,57,43
88080,note_on,120,0,1,,,,,,,,,0,,,83,0
88080,note_on,0,0,1,,,,,,,,,0,,,76,0
88080,note_on,0,0,1,,,,,,,,,0,,,83,48
88080,note_on,0,0,1,,,,,,,,,0,,,76,48
88080,note_on,0,0,2,,,,,,,,,0,,,67,43
88200,note_on,120,0,2,,,,,,,,,0,,,67,0
88200,note_on,0,0,2,,,,,,,,,0,,,57,0
88200,note_on,0,0,2,,,,,,,,,0,,,57,41
88200,note_on,0,0,2,,,,,,,,,0,,,67,41
88200,note_on,0,0,1,,,,,,,,,0,,,83,46
88200,note_on,120,0,1,,,,,,,,,0,,,83,0
88200,note_on,0,0,1,,,,,,,,,0,,,76,0
88200,note_on,0,0,1,,,,,,,,,0,,,73,0
88200,note_on,0,0,1,,,,,,,,,0,,,73,46
88200,note_on,0,0,1,,,,,,,,,0,,,76,46
88320,note_on,0,0,1,,,,,,,,,0,,,81,44
88320,note_on,0,0,2,,,,,,,,,0,,,66,39
88320,note_on,0,0,2,,,,,,,,,0,,,57,39
88320,note_on,0,0,2,,,,,,,,,0,,,57,0
88320,note_on,0,0,1,,,,,,,,,0,,,78,44
88320,note_on,0,0,1,,,,,,,,,0,,,76,0
88320,note_on,0,0,1,,,,,,,,,0,,,73,0
88320,note_on,120,0,1,,,,,,,,,0,,,83,0
88320,note_on,120,0,2,,,,,,,,,0,,,67,0
88320,note_on,0,0,1,,,,,,,,,0,,,73,44
88440,note_on,120,0,2,,,,,,,,,0,,,66,0
88440,note_on,0,0,2,,,,,,,,,0,,,57,0
88440,note_on,0,0,1,,,,,,,,,0,,,78,0
88440,note_on,0,0,2,,,,,,,,,0,,,64,37
88440,note_on,0,0,1,,,,,,,,,0,,,73,42
88440,note_on,0,0,1,,,,,,,,,0,,,79,42
88440,note_on,120,0,1,,,,,,,,,0,,,81,0
88440,note_on,0,0,2,,,,,,,,,0,,,57,37
88440,note_on,0,0,1,,,,,,,,,0,,,73,0
88560,note_on,120,0,1,,,,,,,,,0,,,79,0
88560,note_on,0,0,1,,,,,,,,,0,,,73,0
88560,note_on,120,0,2,,,,,,,,,0,,,64,0
88560,note_on,0,0,2,,,,,,,,,0,,,62,36
88560,note_on,0,0,2,,,,,,,,,0,,,59,36
88560,set_tempo,602,1,0,,,,,,447761,,,,,,,
88560,note_on,0,0,1,,,,,,,,,0,,,74,38
88560,note_on,0,0,1,,,,,,,,,0,,,78,38
88560,note_on,0,0,2,,,,,,,,,0,,,57,0
88680,note_on,0,0,1,,,,,,,,,0,,,70,46
88680,set_tempo,120,1,0,,,,,,428571,,,,,,,
88680,note_on,0,0,1,,,,,,,,,0,,,73,46
88680,note_on,0,0,2,,,,,,,,,0,,,54,42
88680,note_on,0,0,2,,,,,,,,,0,,,62,0
88680,note_on,120,0,2,,,,,,,,,0,,,59,0
88680,note_on,0,0,2,,,,,,,,,0,,,64,42
88680,note_on,0,0,1,,,,,,,,,0,,,74,0
88680,note_on,120,0,1,,,,,,,,,0,,,78,0
88680,note_on,0,0,1,,,,,,,,,0,,,79,46
88800,note_on,0,0,1,,,,,,,,,0,,,70,46
88800,note_on,0,0,2,,,,,,,,,0,,,64,41
88800,note_on,0,0,1,,,,,,,,,0,,,70,0
88800,note_on,0,0,2,,,,,,,,,0,,,54,0
88800,note_on,120,0,2,,,,,,,,,0,,,64,0
88800,note_on,120,0,1,,,,,,,,,0,,,79,0
88800,note_on,0,0,1,,,,,,,,,0,,,73,0
88800,note_on,0,0,2,,,,,,,,,0,,,54,41
88800,note_on,0,0,1,,,,,,,,,0,,,73,46
88800,note_on,0,0,1,,,,,,,,,0,,,79,46
88920,note_on,0,0,2,,,,,,,,,0,,,64,41
88920,note_on,0,0,2,,,,,,,,,0,,,54,41
88920,note_on,0,0,2,,,,,,,,,0,,,54,0
88920,note_on,0,0,1,,,,,,,,,0,,,70,46
88920,note_on,0,0,1,,,,,,,,,0,,,79,46
88920,note_on,0,0,1,,,,,,,,,0,,,73,46
88920,note_on,0,0,1,,,,,,,,,0,,,70,0
88920,note_on,0,0,1,,,,,,,,,0,,,73,0
88920,note_on,120,0,1,,,,,,,,,0,,,79,0
88920,note_on,120,0,2,,,,,,,,,0,,,64,0
89040,note_on,0,0,1,,,,,,,,,0,,,73,0
89040,note_on,0,0,2,,,,,,,,,0,,,61,39
89040,note_on,0,0,2,,,,,,,,,0,,,54,39
89040,note_on,0,0,1,,,,,,,,,0,,,79,0
89040,note_on,0,0,2,,,,,,,,,0,,,54,0
89040,note_on,0,0,1,,,,,,,,,0,,,78,44
89040,note_on,0,0,1,,,,,,,,,0,,,73,44
89040,note_on,0,0,1,,,,,,,,,0,,,70,44
89040,note_on,120,0,1,,,,,,,,,0,,,70,0
89040,note_on,120,0,2,,,,,,,,,0,,,64,0
89160,note_on,0,0,1,,,,,,,,,0,,,73,0
89160,note_on,120,0,2,,,,,,,,,0,,,54,0
89160,note_on,0,0,1,,,,,,,,,0,,,78,0
89160,note_on,0,0,2,,,,,,,,,0,,,61,0
89160,note_on,0,0,2,,,,,,,,,0,,,54,37
89160,note_on,120,0,1,,,,,,,,,0,,,70,0
89160,note_on,0,0,1,,,,,,,,,0,,,73,42
89160,note_on,0,0,2,,,,,,,,,0,,,58,37
89160,note_on,0,0,1,,,,,,,,,0,,,76,42
89280,note_on,120,0,2,,,,,,,,,0,,,54,0
89280,note_on,0,0,2,,,,,,,,,0,,,58,0
89280,note_on,0,0,2,,,,,,,,,0,,,59,36
89280,note_on,0,0,2,,,,,,,,,0,,,56,36
89280,note_on,120,0,1,,,,,,,,,0,,,73,0
89280,note_on,0,0,1,,,,,,,,,0,,,71,41
89280,note_on,0,0,1,,,,,,,,,0,,,75,41
89280,note_on,0,0,1,,,,,,,,,0,,,76,0
89282,set_tempo,602,1,0,,,,,,463320,,,,,,,
89400,note_on,0,0,2,,,,,,,,,0,,,61,44
89400,note_on,0,0,2,,,,,,,,,0,,,56,44
89400,note_on,0,0,2,,,,,,,,,0,,,49,44
89400,set_tempo,118,1,0,,,,,,428571,,,,,,,
89400,note_on,120,0,2,,,,,,,,,0,,,56,0
89400,note_on,0,0,2,,,,,,,,,0,,,59,0
89400,note_on,120,0,1,,,,,,,,,0,,,71,0
89400,note_on,0,0,1,,,,,,,,,0,,,75,0
89400,note_on,0,0,1,,,,,,,,,0,,,68,49
89400,note_on,0,0,1,,,,,,,,,0,,,76,49
89400,note_on,0,0,1,,,,,,,,,0,,,64,49
89520,note_on,0,0,2,,,,,,,,,0,,,61,42
89520,note_on,120,0,2,,,,,,,,,0,,,61,0
89520,note_on,0,0,2,,,,,,,,,0,,,56,0
89520,note_on,0,0,2,,,,,,,,,0,,,49,0
89520,note_on,0,0,2,,,,,,,,,0,,,49,42
89520,note_on,0,0,2,,,,,,,,,0,,,56,42
89520,note_on,0,0,1,,,,,,,,,0,,,76,49
89520,note_on,120,0,1,,,,,,,,,0,,,76,0
89520,note_on,0,0,1,,,,,,,,,0,,,64,0
89520,note_on,0,0,1,,,,,,,,,0,,,68,0
89520,note_on,0,0,1,,,,,,,,,0,,,68,49
89520,note_on,0,0,1,,,,,,,,,0,,,64,49
89640,note_on,0,0,2,,,,,,,,,0,,,56,0
89640,note_on,120,0,2,,,,,,,,,0,,,61,0
89640,note_on,0,0,2,,,,,,,,,0,,,49,44
89640,note_on,0,0,2,,,,,,,,,0,,,56,44
89640,note_on,0,0,2,,,,,,,,,0,,,49,0
89640,note_on,0,0,2,,,,,,,,,0,,,61,44
89640,note_on,0,0,1,,,,,,,,,0,,,64,49
89640,note_on,0,0,1,,,,,,,,,0,,,68,49
89640,note_on,0,0,1,,,,,,,,,0,,,76,0
89640,note_on,0,0,1,,,,,,,,,0,,,68,0
89640,note_on,120,0,1,,,,,,,,,0,,,64,0
89640,note_on,0,0,1,,,,,,,,,0,,,76,49
89760,note_on,0,0,2,,,,,,,,,0,,,51,43
89760,note_on,120,0,2,,,,,,,,,0,,,56,0
89760,note_on,0,0,2,,,,,,,,,0,,,61,0
89760,note_on,0,0,2,,,,,,,,,0,,,49,0
89760,note_on,0,0,2,,,,,,,,,0,,,59,43
89760,note_on,0,0,1,,,,,,,,,0,,,68,49
89760,note_on,0,0,1,,,,,,,,,0,,,63,49
89760,note_on,0,0,1,,,,,,,,,0,,,75,49
89760,note_on,0,0,1,,,,,,,,,0,,,68,0
89760,note_on,0,0,1,,,,,,,,,0,,,64,0
89760,note_on,120,0,1,,,,,,,,,0,,,76,0
89760,note_on,0,0,2,,,,,,,,,0,,,56,43
89880,note_on,120,0,2,,,,,,,,,0,,,56,0
89880,note_on,0,0,2,,,,,,,,,0,,,52,42
89880,note_on,0,0,2,,,,,,,,,0,,,56,42
89880,note_on,0,0,2,,,,,,,,,0,,,51,0
89880,note_on,0,0,2,,,,,,,,,0,,,59,0
89880,note_on,0,0,1,,,,,,,,,0,,,61,47
89880,note_on,120,0,1,,,,,,,,,0,,,63,0
89880,note_on,0,0,1,,,,,,,,,0,,,68,0
89880,note_on,0,0,1,,,,,,,,,0,,,73,47
89880,note_on,0,0,1,,,,,,,,,0,,,68,47
89880,note_on,0,0,1,,,,,,,,,0,,,75,0
90000,note_on,120,0,1,,,,,,,,,0,,,68,0
90000,note_on,0,0,1,,,,,,,,,0,,,73,0
90000,note_on,0,0,1,,,,,,,,,0,,,61,0
90000,set_tempo,600,1,0,,,,,,447761,,,,,,,
90000,note_on,0,0,1,,,,,,,,,0,,,63,48
90000,note_on,0,0,1,,,,,,,,,0,,,68,48
90000,note_on,0,0,2,,,,,,,,,0,,,59,41
90000,note_on,0,0,2,,,,,,,,,0,,,56,41
90000,note_on,0,0,2,,,,,,,,,0,,,51,41
90000,note_on,0,0,2,,,,,,,,,0,,,56,0
90000,note_on,120,0,2,,,,,,,,,0,,,52,0
90000,note_on,0,0,1,,,,,,,,,0,,,71,48
90120,note_on,0,0,2,,,,,,,,,0,,,56,0
90120,note_on,120,0,2,,,,,,,,,0,,,59,0
90120,note_on,0,0,2,,,,,,,,,0,,,51,0
90120,note_on,0,0,2,,,,,,,,,0,,,51,40
90120,note_on,0,0,2,,,,,,,,,0,,,56,40
90120,note_on,0,0,2,,,,,,,,,0,,,59,40
90120,note_on,0,0,1,,,,,,,,,0,,,68,48
90120,note_on,0,0,1,,,,,,,,,0,,,68,0
90120,note_on,0,0,1,,,,,,,,,0,,,71,48
90120,note_on,0,0,1,,,,,,,,,0,,,63,0
90120,note_on,0,0,1,,,,,,,,,0,,,63,48
90120,note_on,120,0,1,,,,,,,,,0,,,71,0
90240,note_on,120,0,1,,,,,,,,,0,,,71,0
90240,note_on,0,0,1,,,,,,,,,0,,,68,0
90240,note_on,0,0,1,,,,,,,,,0,,,63,48
90240,note_on,0,0,1,,,,,,,,,0,,,68,48
90240,note_on,0,0,1,,,,,,,,,0,,,71,48
90240,note_on,0,0,2,,,,,,,,,0,,,51,40
90240,set_tempo,240,1,0,,,,,,502092,,,,,,,
90240,note_on,0,0,2,,,,,,,,,0,,,59,40
90240,note_on,120,0,2,,,,,,,,,0,,,59,0
90240,note_on,0,0,2,,,,,,,,,0,,,56,0
90240,note_on,0,0,2,,,,,,,,,0,,,51,0
90240,note_on,0,0,2,,,,,,,,,0,,,56,40
90240,note_on,0,0,1,,,,,,,,,0,,,63,0
90358,set_tempo,118,1,0,,,,,,446097,,,,,,,
90360,note_on,0,0,1,,,,,,,,,0,,,70,33
90360,note_on,0,0,2,,,,,,,,,0,,,56,0
90360,note_on,0,0,2,,,,,,,,,0,,,51,0
90360,note_on,0,0,2,,,,,,,,,0,,,51,31
90360,note_on,0,0,2,,,,,,,,,0,,,55,31
90360,note_on,0,0,2,,,,,,,,,0,,,58,31
90360,note_on,0,0,1,,,,,,,,,0,,,67,33
90360,note_on,0,0,1,,,,,,,,,0,,,63,33
90360,note_on,0,0,1,,,,,,,,,0,,,68,0
90360,note_on,120,0,1,,,,,,,,,0,,,71,0
90360,note_on,120,0,2,,,,,,,,,0,,,59,0
90360,note_on,0,0,1,,,,,,,,,0,,,63,0
90480,note_on,120,0,2,,,,,,,,,0,,,58,0
90480,note_on,0,0,2,,,,,,,,,0,,,55,0
90480,note_on,0,0,2,,,,,,,,,0,,,51,0
90480,note_on,0,0,2,,,,,,,,,0,,,58,30
90480,note_on,0,0,2,,,,,,,,,0,,,51,30
90480,note_on,0,0,2,,,,,,,,,0,,,55,30
90480,note_on,120,0,1,,,,,,,,,0,,,70,0
90480,note_on,0,0,1,,,,,,,,,0,,,67,0
90480,note_on,0,0,1,,,,,,,,,0,,,63,0
90480,note_on,0,0,1,,,,,,,,,0,,,63,34
90480,note_on,0,0,1,,,,,,,,,0,,,67,34
90480,note_on,0,0,1,,,,,,,,,0,,,70,34
90600,note_on,0,0,2,,,,,,,,,0,,,51,29
90600,note_on,0,0,2,,,,,,,,,0,,,55,29
90600,note_on,0,0,2,,,,,,,,,0,,,51,0
90600,note_on,0,0,2,,,,,,,,,0,,,55,0
90600,note_on,0,0,1,,,,,,,,,0,,,70,34
90600,note_on,0,0,1,,,,,,,,,0,,,67,34
90600,note_on,120,0,2,,,,,,,,,0,,,58,0
90600,note_on,0,0,1,,,,,,,,,0,,,63,0
90600,note_on,120,0,1,,,,,,,,,0,,,70,0
90600,note_on,0,0,2,,,,,,,,,0,,,58,29
90600,note_on,0,0,1,,,,,,,,,0,,,67,0
90600,note_on,0,0,1,,,,,,,,,0,,,63,34
90602,set_tempo,244,1,0,,,,,,524017,,,,,,,
90718,set_tempo,116,1,0,,,,,,400000,,,,,,,
90720,set_tempo,2,1,0,,,,,,400000,,,,,,,
90720,note_on,0,0,2,,,,,,,,,0,,,44,40
90720,note_on,0,0,2,,,,,,,,,0,,,51,0
90720,note_on,120,0,2,,,,,,,,,0,,,58,0
90720,note_on,0,0,2,,,,,,,,,0,,,55,0
90720,control_change,0,0,1,,,,,,,,,0,91,127,,
90720,note_on,0,0,1,,,,,,,,,0,,,84,40
90720,note_on,0,0,1,,,,,,,,,0,,,63,0
90720,note_on,0,0,1,,,,,,,,,0,,,67,0
90720,note_on,120,0,1,,,,,,,,,0,,,70,0
90722,control_change,2,0,2,,,,,,,,,0,91,126,,
90731,control_change,9,0,2,,,,,,,,,0,64,127,,
90750,note_on,30,0,1,,,,,,,,,0,,,84,0
90750,note_on,0,0,1,,,,,,,,,0,,,87,34
90780,note_on,0,0,1,,,,,,,,,0,,,84,40
90780,note_on,30,0,1,,,,,,,,,0,,,87,0
90810,note_on,30,0,1,,,,,,,,,0,,,84,0
90810,note_on,0,0,1,,,,,,,,,0,,,80,34
90840,note_on,0,0,2,,,,,,,,,0,,,51,34
90840,note_on,0,0,2,,,,,,,,,0,,,60,40
90840,note_on,0,0,2,,,,,,,,,0,,,56,34
90840,note_on,109,0,2,,,,,,,,,0,,,44,0
90840,note_on,30,0,1,,,,,,,,,0,,,80,0
90840,note_on,0,0,1,,,,,,,,,0,,,80,40
90870,note_on,30,0,1,,,,,,,,,0,,,80,0
90870,note_on,0,0,1,,,,,,,,,0,,,84,34
90900,note_on,30,0,1,,,,,,,,,0,,,84,0
90900,note_on,0,0,1,,,,,,,,,0,,,80,40
90930,note_on,0,0,1,,,,,,,,,0,,,75,34
90930,note_on,30,0,1,,,,,,,,,0,,,80,0
90960,note_on,0,0,1,,,,,,,,,0,,,75,40
90960,note_on,30,0,1,,,,,,,,,0,,,75,0
90990,note_on,30,0,1,,,,,,,,,0,,,75,0
90990,note_on,0,0,1,,,,,,,,,0,,,80,34
91020,note_on,0,0,1,,,,,,,,,0,,,75,40
91020,note_on,30,0,1,,,,,,,,,0,,,80,0
91050,note_on,0,0,1,,,,,,,,,0,,,72,34
91050,note_on,30,0,1,,,,,,,,,0,,,75,0
91080,note_on,0,0,1,,,,,,,,,0,,,72,40
91080,note_on,30,0,1,,,,,,,,,0,,,72,0
91110,note_on,30,0,1,,,,,,,,,0,,,72,0
91110,note_on,0,0,1,,,,,,,,,0,,,75,34
91140,note_on,0,0,1,,,,,,,,,0,,,72,40
91140,note_on,30,0,1,,,,,,,,,0,,,75,0
91170,note_on,30,0,1,,,,,,,,,0,,,72,0
91170,note_on,0,0,1,,,,,,,,,0,,,68,34
91200,note_on,0,0,1,,,,,,,,,0,,,68,40
91200,note_on,30,0,1,,,,,,,,,0,,,68,0
91230,note_on,30,0,1,,,,,,,,,0,,,68,0
91230,note_on,0,0,1,,,,,,,,,0,,,72,34
91260,note_on,30,0,1,,,,,,,,,0,,,72,0
91260,note_on,0,0,1,,,,,,,,,0,,,68,40
91290,note_on,30,0,1,,,,,,,,,0,,,68,0
91290,note_on,0,0,1,,,,,,,,,0,,,63,34
91320,note_on,480,0,2,,,,,,,,,0,,,56,0
91320,note_on,30,0,1,,,,,,,,,0,,,63,0
91320,note_on,0,0,1,,,,,,,,,0,,,70,36
91320,note_on,0,0,1,,,,,,,,,0,,,67,30
91320,note_on,0,0,2,,,,,,,,,0,,,60,0
91320,note_on,0,0,2,,,,,,,,,0,,,51,0
91320,note_on,0,0,2,,,,,,,,,0,,,61,32
91320,note_on,0,0,2,,,,,,,,,0,,,51,27
91322,set_tempo,602,1,0,,,,,,480000,,,,,,,
91341,control_change,21,0,2,,,,,,,,,0,64,0,,
91380,note_on,39,0,2,,,,,,,,,0,,,51,0
91380,note_on,0,0,2,,,,,,,,,0,,,61,0
91380,note_on,60,0,1,,,,,,,,,0,,,70,0
91380,note_on,0,0,1,,,,,,,,,0,,,67,0
91440,note_on,60,0,2,,,,,,,,,0,,,44,40
91440,set_tempo,118,1,0,,,,,,400000,,,,,,,
91440,note_on,60,0,1,,,,,,,,,0,,,84,40
91440,control_change,0,0,1,,,,,,,,,0,91,127,,
91442,control_change,2,0,2,,,,,,,,,0,91,126,,
91452,control_change,10,0,2,,,,,,,,,0,64,127,,
91470,note_on,30,0,1,,,,,,,,,0,,,84,0
91470,note_on,0,0,1,,,,,,,,,0,,,87,34
91500,note_on,0,0,1,,,,,,,,,0,,,84,40
91500,note_on,30,0,1,,,,,,,,,0,,,87,0
91530,note_on,0,0,1,,,,,,,,,0,,,80,34
91530,note_on,30,0,1,,,,,,,,,0,,,84,0
91560,note_on,108,0,2,,,,,,,,,0,,,44,0
91560,note_on,0,0,1,,,,,,,,,0,,,80,40
91560,note_on,0,0,2,,,,,,,,,0,,,56,34
91560,note_on,0,0,2,,,,,,,,,0,,,60,40
91560,note_on,0,0,2,,,,,,,,,0,,,51,34
91560,note_on,30,0,1,,,,,,,,,0,,,80,0
91590,note_on,30,0,1,,,,,,,,,0,,,80,0
91590,note_on,0,0,1,,,,,,,,,0,,,84,34
91620,note_on,30,0,1,,,,,,,,,0,,,84,0
91620,note_on,0,0,1,,,,,,,,,0,,,80,40
91650,note_on,30,0,1,,,,,,,,,0,,,80,0
91650,note_on,0,0,1,,,,,,,,,0,,,75,34
91680,note_on,30,0,1,,,,,,,,,0,,,75,0
91680,note_on,0,0,1,,,,,,,,,0,,,75,40
91710,note_on,30,0,1,,,,,,,,,0,,,75,0
91710,note_on,0,0,1,,,,,,,,,0,,,80,34
91740,note_on,30,0,1,,,,,,,,,0,,,80,0
91740,note_on,0,0,1,,,,,,,,,0,,,75,40
91770,note_on,30,0,1,,,,,,,,,0,,,75,0
91770,note_on,0,0,1,,,,,,,,,0,,,72,34
91800,note_on,30,0,1,,,,,,,,,0,,,72,0
91800,note_on,0,0,1,,,,,,,,,0,,,72,40
91830,note_on,30,0,1,,,,,,,,,0,,,72,0
91830,note_on,0,0,1,,,,,,,,,0,,,75,34
91860,note_on,30,0,1,,,,,,,,,0,,,75,0
91860,note_on,0,0,1,,,,,,,,,0,,,72,40
91890,note_on,0,0,1,,,,,,,,,0,,,68,34
91890,note_on,30,0,1,,,,,,,,,0,,,72,0
91920,note_on,0,0,1,,,,,,,,,0,,,68,40
91920,note_on,30,0,1,,,,,,,,,0,,,68,0
91950,note_on,30,0,1,,,,,,,,,0,,,68,0
91950,note_on,0,0,1,,,,,,,,,0,,,72,34
91980,note_on,30,0,1,,,,,,,,,0,,,72,0
91980,note_on,0,0,1,,,,,,,,,0,,,68,40
92010,note_on,30,0,1,,,,,,,,,0,,,68,0
92010,note_on,0,0,1,,,,,,,,,0,,,63,34
92040,note_on,0,0,2,,,,,,,,,0,,,60,0
92040,note_on,480,0,2,,,,,,,,,0,,,56,0
92040,note_on,0,0,2,,,,,,,,,0,,,51,27
92040,note_on,0,0,1,,,,,,,,,0,,,70,36
92040,note_on,0,0,1,,,,,,,,,0,,,67,30
92040,note_on,30,0,1,,,,,,,,,0,,,63,0
92040,note_on,0,0,2,,,,,,,,,0,,,51,0
92040,note_on,0,0,2,,,,,,,,,0,,,61,32
92042,set_tempo,602,1,0,,,,,,480000,,,,,,,
92051,control_change,11,0,2,,,,,,,,,0,64,0,,
92100,note_on,60,0,1,,,,,,,,,0,,,70,0
92100,note_on,0,0,1,,,,,,,,,0,,,67,0
92100,note_on,49,0,2,,,,,,,,,0,,,51,0
92100,note_on,0,0,2,,,,,,,,,0,,,61,0
92160,note_on,60,0,2,,,,,,,,,0,,,44,45
92160,control_change,0,0,1,,,,,,,,,0,91,127,,
92160,set_tempo,118,1,0,,,,,,400000,,,,,,,
92160,note_on,60,0,1,,,,,,,,,0,,,87,45
92162,control_change,2,0,2,,,,,,,,,0,91,126,,
92169,control_change,7,0,2,,,,,,,,,0,64,127,,
92190,note_on,0,0,1,,,,,,,,,0,,,92,38
92190,note_on,30,0,1,,,,,,,,,0,,,87,0
92220,note_on,30,0,1,,,,,,,,,0,,,92,0
92220,note_on,0,0,1,,,,,,,,,0,,,87,45
92250,note_on,30,0,1,,,,,,,,,0,,,87,0
92250,note_on,0,0,1,,,,,,,,,0,,,84,38
92280,note_on,111,0,2,,,,,,,,,0,,,44,0
92280,note_on,0,0,2,,,,,,,,,0,,,56,41
92280,note_on,0,0,2,,,,,,,,,0,,,60,49
92280,note_on,0,0,2,,,,,,,,,0,,,51,41
92280,note_on,30,0,1,,,,,,,,,0,,,84,0
92280,note_on,0,0,1,,,,,,,,,0,,,84,45
92310,note_on,30,0,1,,,,,,,,,0,,,84,0
92310,note_on,0,0,1,,,,,,,,,0,,,87,38
92340,note_on,0,0,1,,,,,,,,,0,,,84,45
92340,note_on,30,0,1,,,,,,,,,0,,,87,0
92370,note_on,0,0,1,,,,,,,,,0,,,80,38
92370,note_on,30,0,1,,,,,,,,,0,,,84,0
92400,note_on,30,0,1,,,,,,,,,0,,,80,0
92400,note_on,0,0,1,,,,,,,,,0,,,80,45
92430,note_on,30,0,1,,,,,,,,,0,,,80,0
92430,note_on,0,0,1,,,,,,,,,0,,,84,38
92460,note_on,30,0,1,,,,,,,,,0,,,84,0
92460,note_on,0,0,1,,,,,,,,,0,,,80,45
92490,note_on,30,0,1,,,,,,,,,0,,,80,0
92490,note_on,0,0,1,,,,,,,,,0,,,75,38
92520,note_on,0,0,1,,,,,,,,,0,,,75,45
92520,note_on,30,0,1,,,,,,,,,0,,,75,0
92550,note_on,30,0,1,,,,,,,,,0,,,75,0
92550,note_on,0,0,1,,,,,,,,,0,,,80,38
92580,note_on,30,0,1,,,,,,,,,0,,,80,0
92580,note_on,0,0,1,,,,,,,,,0,,,75,45
92610,note_on,30,0,1,,,,,,,,,0,,,75,0
92610,note_on,0,0,1,,,,,,,,,0,,,72,38
92640,note_on,30,0,1,,,,,,,,,0,,,72,0
92640,note_on,0,0,1,,,,,,,,,0,,,72,45
92670,note_on,30,0,1,,,,,,,,,0,,,72,0
92670,note_on,0,0,1,,,,,,,,,0,,,75,38
92700,note_on,30,0,1,,,,,,,,,0,,,75,0
92700,note_on,0,0,1,,,,,,,,,0,,,72,45
92730,note_on,30,0,1,,,,,,,,,0,,,72,0
92730,note_on,0,0,1,,,,,,,,,0,,,68,38
92760,note_on,0,0,2,,,,,,,,,0,,,51,30
92760,note_on,0,0,2,,,,,,,,,0,,,61,36
92760,note_on,0,0,2,,,,,,,,,0,,,51,0
92760,note_on,480,0,2,,,,,,,,,0,,,56,0
92760,note_on,0,0,1,,,,,,,,,0,,,70,40
92760,note_on,0,0,1,,,,,,,,,0,,,67,40
92760,note_on,30,0,1,,,,,,,,,0,,,68,0
92760,note_on,0,0,2,,,,,,,,,0,,,60,0
92762,set_tempo,602,1,0,,,,,,480000,,,,,,,
92771,control_change,11,0,2,,,,,,,,,0,64,0,,
92820,note_on,49,0,2,,,,,,,,,0,,,51,0
92820,note_on,0,0,2,,,,,,,,,0,,,61,0
92820,note_on,0,0,1,,,,,,,,,0,,,67,0
92820,note_on,60,0,1,,,,,,,,,0,,,70,0
92880,note_on,60,0,1,,,,,,,,,0,,,87,50
92880,control_change,0,0,1,,,,,,,,,0,91,127,,
92880,set_tempo,118,1,0,,,,,,400000,,,,,,,
92880,note_on,60,0,2,,,,,,,,,0,,,44,50
92882,control_change,2,0,2,,,,,,,,,0,91,126,,
92894,control_change,12,0,2,,,,,,,,,0,64,127,,
92910,note_on,0,0,1,,,,,,,,,0,,,92,42
92910,note_on,30,0,1,,,,,,,,,0,,,87,0
92940,note_on,30,0,1,,,,,,,,,0,,,92,0
92940,note_on,0,0,1,,,,,,,,,0,,,87,50
92970,note_on,0,0,1,,,,,,,,,0,,,84,42
92970,note_on,30,0,1,,,,,,,,,0,,,87,0
93000,note_on,30,0,1,,,,,,,,,0,,,84,0
93000,note_on,0,0,1,,,,,,,,,0,,,84,50
93000,note_on,0,0,2,,,,,,,,,0,,,56,40
93000,note_on,106,0,2,,,,,,,,,0,,,44,0
93000,note_on,0,0,2,,,,,,,,,0,,,51,40
93000,note_on,0,0,2,,,,,,,,,0,,,60,48
93030,note_on,30,0,1,,,,,,,,,0,,,84,0
93030,note_on,0,0,1,,,,,,,,,0,,,87,42
93060,note_on,0,0,1,,,,,,,,,0,,,84,50
93060,note_on,30,0,1,,,,,,,,,0,,,87,0
93090,note_on,0,0,1,,,,,,,,,0,,,80,42
93090,note_on,30,0,1,,,,,,,,,0,,,84,0
93120,note_on,30,0,1,,,,,,,,,0,,,80,0
93120,note_on,0,0,1,,,,,,,,,0,,,80,50
93150,note_on,30,0,1,,,,,,,,,0,,,80,0
93150,note_on,0,0,1,,,,,,,,,0,,,84,42
93180,note_on,30,0,1,,,,,,,,,0,,,84,0
93180,note_on,0,0,1,,,,,,,,,0,,,80,50
93210,note_on,30,0,1,,,,,,,,,0,,,80,0
93210,note_on,0,0,1,,,,,,,,,0,,,75,42
93240,note_on,30,0,1,,,,,,,,,0,,,75,0
93240,note_on,0,0,1,,,,,,,,,0,,,75,50
93270,note_on,30,0,1,,,,,,,,,0,,,75,0
93270,note_on,0,0,1,,,,,,,,,0,,,80,42
93300,note_on,30,0,1,,,,,,,,,0,,,80,0
93300,note_on,0,0,1,,,,,,,,,0,,,75,50
93330,note_on,30,0,1,,,,,,,,,0,,,75,0
93330,note_on,0,0,1,,,,,,,,,0,,,72,42
93360,note_on,30,0,1,,,,,,,,,0,,,72,0
93360,note_on,0,0,1,,,,,,,,,0,,,72,50
93390,note_on,0,0,1,,,,,,,,,0,,,75,42
93390,note_on,30,0,1,,,,,,,,,0,,,72,0
93420,note_on,30,0,1,,,,,,,,,0,,,75,0
93420,note_on,0,0,1,,,,,,,,,0,,,72,50
93450,note_on,0,0,1,,,,,,,,,0,,,68,42
93450,note_on,30,0,1,,,,,,,,,0,,,72,0
93480,note_on,480,0,2,,,,,,,,,0,,,56,0
93480,note_on,0,0,1,,,,,,,,,0,,,67,45
93480,note_on,0,0,2,,,,,,,,,0,,,51,0
93480,note_on,0,0,1,,,,,,,,,0,,,70,45
93480,note_on,30,0,1,,,,,,,,,0,,,68,0
93480,note_on,0,0,2,,,,,,,,,0,,,60,0
93480,note_on,0,0,2,,,,,,,,,0,,,51,34
93480,note_on,0,0,2,,,,,,,,,0,,,61,40
93482,set_tempo,602,1,0,,,,,,480000,,,,,,,
93512,control_change,32,0,2,,,,,,,,,0,64,0,,
93540,note_on,28,0,2,,,,,,,,,0,,,51,0
93540,note_on,0,0,2,,,,,,,,,0,,,61,0
93540,note_on,0,0,1,,,,,,,,,0,,,67,0
93540,note_on,60,0,1,,,,,,,,,0,,,70,0
93600,set_tempo,118,1,0,,,,,,400000,,,,,,,
93600,note_on,60,0,2,,,,,,,,,0,,,44,40
93600,note_on,60,0,1,,,,,,,,,0,,,72,40
93602,control_change,2,0,2,,,,,,,,,0,64,127,,
93630,note_on,0,0,1,,,,,,,,,0,,,75,34
93630,note_on,30,0,1,,,,,,,,,0,,,72,0
93660,note_on,0,0,1,,,,,,,,,0,,,72,40
93660,note_on,30,0,1,,,,,,,,,0,,,75,0
93690,note_on,0,0,1,,,,,,,,,0,,,68,34
93690,note_on,30,0,1,,,,,,,,,0,,,72,0
93720,note_on,0,0,1,,,,,,,,,0,,,68,40
93720,note_on,30,0,1,,,,,,,,,0,,,68,0
93720,note_on,118,0,2,,,,,,,,,0,,,44,0
93720,note_on,0,0,2,,,,,,,,,0,,,54,27
93720,note_on,0,0,2,,,,,,,,,0,,,60,33
93720,note_on,0,0,2,,,,,,,,,0,,,56,27
93750,note_on,0,0,1,,,,,,,,,0,,,72,34
93750,note_on,30,0,1,,,,,,,,,0,,,68,0
93780,note_on,30,0,1,,,,,,,,,0,,,72,0
93780,note_on,0,0,1,,,,,,,,,0,,,68,40
93810,note_on,0,0,1,,,,,,,,,0,,,63,34
93810,note_on,30,0,1,,,,,,,,,0,,,68,0
93840,note_on,30,0,1,,,,,,,,,0,,,63,0
93840,note_on,0,0,1,,,,,,,,,0,,,68,40
93840,set_tempo,240,1,0,,,,,,428571,,,,,,,
93842,control_change,122,0,2,,,,,,,,,0,64,0,,
93870,note_on,30,0,1,,,,,,,,,0,,,68,0
93960,note_on,90,0,1,,,,,,,,,0,,,73,40
93960,set_tempo,120,1,0,,,,,,400000,,,,,,,
93960,note_on,118,0,2,,,,,,,,,0,,,56,0
93960,note_on,0,0,2,,,,,,,,,0,,,49,40
93960,note_on,0,0,2,,,,,,,,,0,,,54,0
93960,note_on,0,0,2,,,,,,,,,0,,,60,0
93964,control_change,4,0,2,,,,,,,,,0,64,127,,
93990,note_on,0,0,1,,,,,,,,,0,,,77,34
93990,note_on,30,0,1,,,,,,,,,0,,,73,0
94020,note_on,30,0,1,,,,,,,,,0,,,77,0
94020,note_on,0,0,1,,,,,,,,,0,,,73,40
94050,note_on,30,0,1,,,,,,,,,0,,,73,0
94050,note_on,0,0,1,,,,,,,,,0,,,68,34
94080,note_on,0,0,2,,,,,,,,,0,,,61,29
94080,note_on,0,0,2,,,,,,,,,0,,,56,25
94080,note_on,116,0,2,,,,,,,,,0,,,49,0
94080,note_on,0,0,2,,,,,,,,,0,,,53,25
94080,note_on,30,0,1,,,,,,,,,0,,,68,0
94080,note_on,0,0,1,,,,,,,,,0,,,68,40
94110,note_on,30,0,1,,,,,,,,,0,,,68,0
94110,note_on,0,0,1,,,,,,,,,0,,,73,34
94140,note_on,30,0,1,,,,,,,,,0,,,73,0
94140,note_on,0,0,1,,,,,,,,,0,,,68,40
94170,note_on,30,0,1,,,,,,,,,0,,,68,0
94170,note_on,0,0,1,,,,,,,,,0,,,65,34
94200,note_on,0,0,1,,,,,,,,,0,,,68,40
94200,set_tempo,240,1,0,,,,,,428571,,,,,,,
94200,note_on,30,0,1,,,,,,,,,0,,,65,0
94204,control_change,124,0,2,,,,,,,,,0,64,0,,
94230,note_on,30,0,1,,,,,,,,,0,,,68,0
94318,set_tempo,118,1,0,,,,,,400000,,,,,,,
94320,note_on,90,0,1,,,,,,,,,0,,,75,40
94320,note_on,0,0,2,,,,,,,,,0,,,39,40
94320,note_on,0,0,2,,,,,,,,,0,,,61,0
94320,note_on,0,0,2,,,,,,,,,0,,,56,0
94320,note_on,116,0,2,,,,,,,,,0,,,53,0
94325,control_change,5,0,2,,,,,,,,,0,64,127,,
94350,note_on,30,0,1,,,,,,,,,0,,,75,0
94350,note_on,0,0,1,,,,,,,,,0,,,79,34
94380,note_on,0,0,1,,,,,,,,,0,,,75,40
94380,note_on,30,0,1,,,,,,,,,0,,,79,0
94410,note_on,0,0,1,,,,,,,,,0,,,70,34
94410,note_on,30,0,1,,,,,,,,,0,,,75,0
94440,note_on,0,0,1,,,,,,,,,0,,,70,40
94440,note_on,0,0,2,,,,,,,,,0,,,51,29
94440,note_on,30,0,1,,,,,,,,,0,,,70,0
94440,note_on,115,0,2,,,,,,,,,0,,,39,0
94440,note_on,0,0,2,,,,,,,,,0,,,58,29
94440,note_on,0,0,2,,,,,,,,,0,,,61,35
94470,note_on,30,0,1,,,,,,,,,0,,,70,0
94470,note_on,0,0,1,,,,,,,,,0,,,75,34
94500,note_on,0,0,1,,,,,,,,,0,,,70,40
94500,note_on,30,0,1,,,,,,,,,0,,,75,0
94530,note_on,0,0,1,,,,,,,,,0,,,67,34
94530,note_on,30,0,1,,,,,,,,,0,,,70,0
94560,note_on,0,0,1,,,,,,,,,0,,,70,40
94560,note_on,30,0,1,,,,,,,,,0,,,67,0
94562,set_tempo,244,1,0,,,,,,430108,,,,,,,
94565,control_change,125,0,2,,,,,,,,,0,64,0,,
94590,note_on,30,0,1,,,,,,,,,0,,,70,0
94680,set_tempo,118,1,0,,,,,,401338,,,,,,,
94680,note_on,0,0,2,,,,,,,,,0,,,44,40
94680,note_on,0,0,2,,,,,,,,,0,,,61,0
94680,note_on,0,0,2,,,,,,,,,0,,,51,0
94680,note_on,115,0,2,,,,,,,,,0,,,58,0
94680,note_on,90,0,1,,,,,,,,,0,,,75,40
94689,control_change,9,0,2,,,,,,,,,0,64,127,,
94710,note_on,30,0,1,,,,,,,,,0,,,75,0
94710,note_on,0,0,1,,,,,,,,,0,,,80,34
94740,note_on,30,0,1,,,,,,,,,0,,,80,0
94740,note_on,0,0,1,,,,,,,,,0,,,75,40
94770,note_on,30,0,1,,,,,,,,,0,,,75,0
94770,note_on,0,0,1,,,,,,,,,0,,,72,34
94800,note_on,0,0,1,,,,,,,,,0,,,72,40
94800,note_on,30,0,1,,,,,,,,,0,,,72,0
94800,note_on,0,0,2,,,,,,,,,0,,,51,31
94800,note_on,0,0,2,,,,,,,,,0,,,56,31
94800,note_on,0,0,2,,,,,,,,,0,,,60,37
94800,note_on,111,0,2,,,,,,,,,0,,,44,0
94830,note_on,30,0,1,,,,,,,,,0,,,72,0
94830,note_on,0,0,1,,,,,,,,,0,,,75,34
94860,note_on,30,0,1,,,,,,,,,0,,,75,0
94860,note_on,0,0,1,,,,,,,,,0,,,72,40
94890,note_on,0,0,1,,,,,,,,,0,,,68,34
94890,note_on,30,0,1,,,,,,,,,0,,,72,0
94920,note_on,0,0,1,,,,,,,,,0,,,72,40
94920,note_on,30,0,1,,,,,,,,,0,,,68,0
94920,set_tempo,240,1,0,,,,,,461538,,,,,,,
94929,control_change,129,0,2,,,,,,,,,0,64,0,,
94950,note_on,30,0,1,,,,,,,,,0,,,72,0
95040,note_on,111,0,2,,,,,,,,,0,,,51,0
95040,note_on,0,0,2,,,,,,,,,0,,,56,0
95040,note_on,0,0,2,,,,,,,,,0,,,60,0
95040,note_on,0,0,2,,,,,,,,,0,,,44,50
95040,note_on,90,0,1,,,,,,,,,0,,,84,53
95042,set_tempo,122,1,0,,,,,,401338,,,,,,,
95049,control_change,9,0,2,,,,,,,,,0,64,127,,
95070,note_on,30,0,1,,,,,,,,,0,,,84,0
95070,note_on,0,0,1,,,,,,,,,0,,,87,45
95100,note_on,30,0,1,,,,,,,,,0,,,87,0
95100,note_on,0,0,1,,,,,,,,,0,,,84,53
95130,note_on,30,0,1,,,,,,,,,0,,,84,0
95130,note_on,0,0,1,,,,,,,,,0,,,80,45
95160,note_on,0,0,2,,,,,,,,,0,,,54,34
95160,note_on,0,0,2,,,,,,,,,0,,,60,41
95160,note_on,0,0,2,,,,,,,,,0,,,56,34
95160,note_on,30,0,1,,,,,,,,,0,,,80,0
95160,note_on,0,0,1,,,,,,,,,0,,,80,53
95160,note_on,111,0,2,,,,,,,,,0,,,44,0
95190,note_on,30,0,1,,,,,,,,,0,,,80,0
95190,note_on,0,0,1,,,,,,,,,0,,,84,45
95220,note_on,30,0,1,,,,,,,,,0,,,84,0
95220,note_on,0,0,1,,,,,,,,,0,,,80,53
95250,note_on,30,0,1,,,,,,,,,0,,,80,0
95250,note_on,0,0,1,,,,,,,,,0,,,75,45
95280,note_on,0,0,1,,,,,,,,,0,,,80,53
95280,set_tempo,238,1,0,,,,,,428571,,,,,,,
95280,note_on,30,0,1,,,,,,,,,0,,,75,0
95289,control_change,129,0,2,,,,,,,,,0,64,0,,
95310,note_on,30,0,1,,,,,,,,,0,,,80,0
95400,note_on,0,0,2,,,,,,,,,0,,,60,0
95400,note_on,111,0,2,,,,,,,,,0,,,56,0
95400,note_on,0,0,2,,,,,,,,,0,,,54,0
95400,note_on,90,0,1,,,,,,,,,0,,,85,60
95400,set_tempo,120,1,0,,,,,,402685,,,,,,,
95400,note_on,0,0,2,,,,,,,,,0,,,49,60
95405,control_change,5,0,2,,,,,,,,,0,64,127,,
95430,note_on,30,0,1,,,,,,,,,0,,,85,0
95430,note_on,0,0,1,,,,,,,,,0,,,89,51
95460,note_on,0,0,1,,,,,,,,,0,,,85,60
95460,note_on,30,0,1,,,,,,,,,0,,,89,0
95490,note_on,30,0,1,,,,,,,,,0,,,85,0
95490,note_on,0,0,1,,,,,,,,,0,,,80,51
95520,note_on,0,0,2,,,,,,,,,0,,,61,52
95520,note_on,0,0,2,,,,,,,,,0,,,53,44
95520,note_on,0,0,2,,,,,,,,,0,,,56,44
95520,note_on,30,0,1,,,,,,,,,0,,,80,0
95520,note_on,0,0,1,,,,,,,,,0,,,80,60
95520,note_on,115,0,2,,,,,,,,,0,,,49,0
95550,note_on,0,0,1,,,,,,,,,0,,,85,51
95550,note_on,30,0,1,,,,,,,,,0,,,80,0
95580,note_on,0,0,1,,,,,,,,,0,,,80,60
95580,note_on,30,0,1,,,,,,,,,0,,,85,0
95610,note_on,30,0,1,,,,,,,,,0,,,80,0
95610,note_on,0,0,1,,,,,,,,,0,,,77,51
95640,set_tempo,240,1,0,,,,,,428571,,,,,,,
95640,note_on,30,0,1,,,,,,,,,0,,,77,0
95640,note_on,0,0,1,,,,,,,,,0,,,80,60
95645,control_change,125,0,2,,,,,,,,,0,64,0,,
95670,note_on,30,0,1,,,,,,,,,0,,,80,0
95760,note_on,115,0,2,,,,,,,,,0,,,53,0
95760,note_on,0,0,2,,,,,,,,,0,,,61,0
95760,note_on,0,0,2,,,,,,,,,0,,,39,70
95760,set_tempo,120,1,0,,,,,,401338,,,,,,,
95760,note_on,0,0,2,,,,,,,,,0,,,56,0
95760,note_on,90,0,1,,,,,,,,,0,,,87,70
95769,control_change,9,0,2,,,,,,,,,0,64,127,,
95790,note_on,0,0,1,,,,,,,,,0,,,91,59
95790,note_on,30,0,1,,,,,,,,,0,,,87,0
95820,note_on,30,0,1,,,,,,,,,0,,,91,0
95820,note_on,0,0,1,,,,,,,,,0,,,87,70
95850,note_on,0,0,1,,,,,,,,,0,,,82,59
95850,note_on,30,0,1,,,,,,,,,0,,,87,0
95880,note_on,0,0,2,,,,,,,,,0,,,58,51
95880,note_on,0,0,2,,,,,,,,,0,,,51,51
95880,note_on,111,0,2,,,,,,,,,0,,,39,0
95880,note_on,0,0,2,,,,,,,,,0,,,61,61
95880,note_on,0,0,1,,,,,,,,,0,,,82,70
95880,note_on,30,0,1,,,,,,,,,0,,,82,0
95910,note_on,0,0,1,,,,,,,,,0,,,87,59
95910,note_on,30,0,1,,,,,,,,,0,,,82,0
95940,note_on,0,0,1,,,,,,,,,0,,,82,70
95940,note_on,30,0,1,,,,,,,,,0,,,87,0
95970,note_on,30,0,1,,,,,,,,,0,,,82,0
95970,note_on,0,0,1,,,,,,,,,0,,,79,59
96000,note_on,0,0,1,,,,,,,,,0,,,82,70
96000,note_on,30,0,1,,,,,,,,,0,,,79,0
96000,set_tempo,240,1,0,,,,,,428571,,,,,,,
96009,control_change,129,0,2,,,,,,,,,0,64,0,,
96060,note_on,60,0,1,,,,,,,,,0,,,82,0
96120,note_on,60,0,1,,,,,,,,,0,,,87,80
96120,set_tempo,120,1,0,,,,,,400000,,,,,,,
96120,note_on,0,0,2,,,,,,,,,0,,,44,76
96120,note_on,0,0,2,,,,,,,,,0,,,61,0
96120,note_on,0,0,2,,,,,,,,,0,,,58,0
96120,note_on,111,0,2,,,,,,,,,0,,,51,0
96131,control_change,11,0,2,,,,,,,,,0,64,127,,
96150,note_on,30,0,1,,,,,,,,,0,,,87,0
96150,note_on,0,0,1,,,,,,,,,0,,,92,68
96180,note_on,30,0,1,,,,,,,,,0,,,92,0
96180,note_on,0,0,1,,,,,,,,,0,,,87,80
96210,note_on,0,0,1,,,,,,,,,0,,,84,68
96210,note_on,30,0,1,,,,,,,,,0,,,87,0
96240,note_on,0,0,2,,,,,,,,,0,,,60,63
96240,note_on,0,0,2,,,,,,,,,0,,,56,53
96240,note_on,0,0,1,,,,,,,,,0,,,84,80
96240,note_on,30,0,1,,,,,,,,,0,,,84,0
96240,note_on,109,0,2,,,,,,,,,0,,,44,0
96240,note_on,0,0,2,,,,,,,,,0,,,51,53
96270,note_on,0,0,1,,,,,,,,,0,,,87,68
96270,note_on,30,0,1,,,,,,,,,0,,,84,0
96300,note_on,30,0,1,,,,,,,,,0,,,87,0
96300,note_on,0,0,1,,,,,,,,,0,,,84,80
96330,note_on,0,0,1,,,,,,,,,0,,,80,68
96330,note_on,30,0,1,,,,,,,,,0,,,84,0
96358,set_tempo,238,1,0,,,,,,463320,,,,,,,
96360,note_on,30,0,1,,,,,,,,,0,,,80,0
96360,note_on,0,0,1,,,,,,,,,0,,,84,80
96371,control_change,131,0,2,,,,,,,,,0,64,0,,
96420,note_on,60,0,1,,,,,,,,,0,,,84,0
96480,note_on,0,0,2,,,,,,,,,0,,,44,34
96480,note_on,0,0,2,,,,,,,,,0,,,51,50
96480,note_on,0,0,2,,,,,,,,,0,,,60,0
96480,note_on,0,0,2,,,,,,,,,0,,,56,0
96480,note_on,109,0,2,,,,,,,,,0,,,51,0
96480,note_on,60,0,1,,,,,,,,,0,,,72,40
96481,set_tempo,123,1,0,,,,,,428571,,,,,,,
96487,control_change,7,0,2,,,,,,,,,0,64,127,,
96510,note_on,0,0,1,,,,,,,,,0,,,75,34
96510,note_on,30,0,1,,,,,,,,,0,,,72,0
96540,note_on,30,0,1,,,,,,,,,0,,,75,0
96540,note_on,0,0,1,,,,,,,,,0,,,72,40
96570,note_on,30,0,1,,,,,,,,,0,,,72,0
96570,note_on,0,0,1,,,,,,,,,0,,,68,34
96597,set_tempo,116,1,0,,,,,,400000,,,,,,,
96600,note_on,0,0,2,,,,,,,,,0,,,56,60
96600,note_on,113,0,2,,,,,,,,,0,,,51,0
96600,note_on,0,0,1,,,,,,,,,0,,,68,40
96600,note_on,30,0,1,,,,,,,,,0,,,68,0
96630,note_on,0,0,1,,,,,,,,,0,,,72,34
96630,note_on,30,0,1,,,,,,,,,0,,,68,0
96660,note_on,0,0,1,,,,,,,,,0,,,68,40
96660,note_on,30,0,1,,,,,,,,,0,,,72,0
96690,note_on,0,0,1,,,,,,,,,0,,,63,34
96690,note_on,30,0,1,,,,,,,,,0,,,68,0
96720,note_on,30,0,1,,,,,,,,,0,,,63,0
96720,note_on,0,0,1,,,,,,,,,0,,,68,40
96780,note_on,60,0,1,,,,,,,,,0,,,68,0
96780,note_on,0,0,2,,,,,,,,,0,,,55,50
96780,note_on,180,0,2,,,,,,,,,0,,,56,0
96787,control_change,7,0,2,,,,,,,,,0,64,0,,
96840,note_on,60,0,1,,,,,,,,,0,,,73,40
96840,control_change,0,0,2,,,,,,,,,0,64,127,,
96840,note_on,0,0,2,,,,,,,,,0,,,49,34
96840,note_on,0,0,2,,,,,,,,,0,,,53,50
96840,note_on,0,0,2,,,,,,,,,0,,,44,0
96840,note_on,53,0,2,,,,,,,,,0,,,55,0
96840,set_tempo,243,1,0,,,,,,427046,,,,,,,
96870,note_on,30,0,1,,,,,,,,,0,,,73,0
96870,note_on,0,0,1,,,,,,,,,0,,,77,34
96900,note_on,0,0,1,,,,,,,,,0,,,73,40
96900,note_on,30,0,1,,,,,,,,,0,,,77,0
96930,note_on,30,0,1,,,,,,,,,0,,,73,0
96930,note_on,0,0,1,,,,,,,,,0,,,68,34
96960,note_on,120,0,2,,,,,,,,,0,,,53,0
96960,note_on,0,0,2,,,,,,,,,0,,,61,60
96960,set_tempo,120,1,0,,,,,,400000,,,,,,,
96960,note_on,30,0,1,,,,,,,,,0,,,68,0
96960,note_on,0,0,1,,,,,,,,,0,,,68,40
96990,note_on,0,0,1,,,,,,,,,0,,,73,34
96990,note_on,30,0,1,,,,,,,,,0,,,68,0
97020,note_on,0,0,1,,,,,,,,,0,,,68,40
97020,note_on,30,0,1,,,,,,,,,0,,,73,0
97050,note_on,30,0,1,,,,,,,,,0,,,68,0
97050,note_on,0,0,1,,,,,,,,,0,,,65,34
97080,note_on,0,0,1,,,,,,,,,0,,,68,40
97080,note_on,30,0,1,,,,,,,,,0,,,65,0
97138,control_change,178,0,2,,,,,,,,,0,64,0,,
97140,note_on,2,0,2,,,,,,,,,0,,,61,0
97140,note_on,60,0,1,,,,,,,,,0,,,68,0
97140,note_on,0,0,2,,,,,,,,,0,,,60,50
97200,note_on,60,0,2,,,,,,,,,0,,,60,0
97200,note_on,0,0,2,,,,,,,,,0,,,49,0
97200,note_on,0,0,2,,,,,,,,,0,,,58,50
97200,note_on,60,0,1,,,,,,,,,0,,,75,40
97200,note_on,0,0,2,,,,,,,,,0,,,51,34
97202,set_tempo,242,1,0,,,,,,430108,,,,,,,
97207,control_change,7,0,2,,,,,,,,,0,64,127,,
97230,note_on,0,0,1,,,,,,,,,0,,,79,34
97230,note_on,30,0,1,,,,,,,,,0,,,75,0
97260,note_on,0,0,1,,,,,,,,,0,,,75,40
97260,note_on,30,0,1,,,,,,,,,0,,,79,0
97290,note_on,0,0,1,,,,,,,,,0,,,70,34
97290,note_on,30,0,1,,,,,,,,,0,,,75,0
97318,set_tempo,116,1,0,,,,,,400000,,,,,,,
97320,note_on,30,0,1,,,,,,,,,0,,,70,0
97320,note_on,0,0,1,,,,,,,,,0,,,70,40
97320,note_on,0,0,2,,,,,,,,,0,,,63,60
97320,note_on,113,0,2,,,,,,,,,0,,,58,0
97350,note_on,30,0,1,,,,,,,,,0,,,70,0
97350,note_on,0,0,1,,,,,,,,,0,,,75,34
97380,note_on,30,0,1,,,,,,,,,0,,,75,0
97380,note_on,0,0,1,,,,,,,,,0,,,70,40
97410,note_on,30,0,1,,,,,,,,,0,,,70,0
97410,note_on,0,0,1,,,,,,,,,0,,,67,34
97440,note_on,0,0,1,,,,,,,,,0,,,70,40
97440,note_on,30,0,1,,,,,,,,,0,,,67,0
97500,note_on,0,0,2,,,,,,,,,0,,,61,50
97500,note_on,60,0,1,,,,,,,,,0,,,70,0
97500,note_on,180,0,2,,,,,,,,,0,,,63,0
97504,control_change,4,0,2,,,,,,,,,0,64,0,,
97560,note_on,0,0,2,,,,,,,,,0,,,56,34
97560,note_on,0,0,2,,,,,,,,,0,,,60,50
97560,set_tempo,242,1,0,,,,,,428571,,,,,,,
97560,note_on,0,0,2,,,,,,,,,0,,,51,0
97560,note_on,56,0,2,,,,,,,,,0,,,61,0
97560,note_on,60,0,1,,,,,,,,,0,,,75,40
97564,control_change,4,0,2,,,,,,,,,0,64,127,,
97590,note_on,0,0,1,,,,,,,,,0,,,80,34
97590,note_on,30,0,1,,,,,,,,,0,,,75,0
97620,note_on,30,0,1,,,,,,,,,0,,,80,0
97620,note_on,0,0,1,,,,,,,,,0,,,75,40
97650,note_on,30,0,1,,,,,,,,,0,,,75,0
97650,note_on,0,0,1,,,,,,,,,0,,,72,34
97680,note_on,0,0,2,,,,,,,,,0,,,63,60
97680,note_on,30,0,1,,,,,,,,,0,,,72,0
97680,note_on,0,0,1,,,,,,,,,0,,,72,40
97680,note_on,116,0,2,,,,,,,,,0,,,60,0
97682,set_tempo,122,1,0,,,,,,400000,,,,,,,
97710,note_on,30,0,1,,,,,,,,,0,,,72,0
97710,note_on,0,0,1,,,,,,,,,0,,,75,34
97740,note_on,0,0,1,,,,,,,,,0,,,72,40
97740,note_on,30,0,1,,,,,,,,,0,,,75,0
97770,note_on,30,0,1,,,,,,,,,0,,,72,0
97770,note_on,0,0,1,,,,,,,,,0,,,68,34
97800,note_on,30,0,1,,,,,,,,,0,,,68,0
97800,note_on,0,0,1,,,,,,,,,0,,,72,40
97818,control_change,138,0,2,,,,,,,,,0,64,0,,
97860,note_on,60,0,1,,,,,,,,,0,,,72,0
97920,note_on,60,0,1,,,,,,,,,0,,,84,50
97920,set_tempo,238,1,0,,,,,,483871,,,,,,,
97920,note_on,0,0,2,,,,,,,,,0,,,44,56
97920,note_on,0,0,2,,,,,,,,,0,,,51,66
97920,note_on,0,0,2,,,,,,,,,0,,,56,0
97920,note_on,102,0,2,,,,,,,,,0,,,63,0
97925,control_change,5,0,2,,,,,,,,,0,64,127,,
97950,note_on,30,0,1,,,,,,,,,0,,,84,0
97950,note_on,0,0,1,,,,,,,,,0,,,87,42
97980,note_on,30,0,1,,,,,,,,,0,,,87,0
97980,note_on,0,0,1,,,,,,,,,0,,,84,50
98010,note_on,30,0,1,,,,,,,,,0,,,84,0
98010,note_on,0,0,1,,,,,,,,,0,,,80,42
98038,set_tempo,118,1,0,,,,,,398671,,,,,,,
98040,note_on,0,0,1,,,,,,,,,0,,,80,50
98040,note_on,115,0,2,,,,,,,,,0,,,51,0
98040,note_on,30,0,1,,,,,,,,,0,,,80,0
98040,note_on,0,0,2,,,,,,,,,0,,,56,73
98070,note_on,30,0,1,,,,,,,,,0,,,80,0
98070,note_on,0,0,1,,,,,,,,,0,,,84,42
98100,note_on,30,0,1,,,,,,,,,0,,,84,0
98100,note_on,0,0,1,,,,,,,,,0,,,80,50
98130,note_on,30,0,1,,,,,,,,,0,,,80,0
98130,note_on,0,0,1,,,,,,,,,0,,,75,42
98160,note_on,0,0,1,,,,,,,,,0,,,80,50
98160,note_on,30,0,1,,,,,,,,,0,,,75,0
98216,control_change,176,0,2,,,,,,,,,0,64,0,,
98220,note_on,4,0,2,,,,,,,,,0,,,56,0
98220,note_on,0,0,2,,,,,,,,,0,,,55,60
98220,note_on,60,0,1,,,,,,,,,0,,,80,0
98280,note_on,0,0,2,,,,,,,,,0,,,53,68
98280,note_on,0,0,2,,,,,,,,,0,,,49,57
98280,note_on,0,0,2,,,,,,,,,0,,,44,0
98280,note_on,60,0,2,,,,,,,,,0,,,55,0
98280,note_on,60,0,1,,,,,,,,,0,,,85,56
98282,set_tempo,244,1,0,,,,,,433213,,,,,,,
98285,control_change,5,0,2,,,,,,,,,0,64,127,,
98310,note_on,0,0,1,,,,,,,,,0,,,89,47
98310,note_on,30,0,1,,,,,,,,,0,,,85,0
98340,note_on,0,0,1,,,,,,,,,0,,,85,56
98340,note_on,30,0,1,,,,,,,,,0,,,89,0
98370,note_on,30,0,1,,,,,,,,,0,,,85,0
98370,note_on,0,0,1,,,,,,,,,0,,,80,47
98400,note_on,115,0,2,,,,,,,,,0,,,53,0
98400,note_on,0,0,2,,,,,,,,,0,,,61,76
98400,set_tempo,118,1,0,,,,,,400000,,,,,,,
98400,note_on,30,0,1,,,,,,,,,0,,,80,0
98400,note_on,0,0,1,,,,,,,,,0,,,80,56
98430,note_on,30,0,1,,,,,,,,,0,,,80,0
98430,note_on,0,0,1,,,,,,,,,0,,,85,47
98460,note_on,0,0,1,,,,,,,,,0,,,80,56
98460,note_on,30,0,1,,,,,,,,,0,,,85,0
98490,note_on,0,0,1,,,,,,,,,0,,,77,47
98490,note_on,30,0,1,,,,,,,,,0,,,80,0
98520,note_on,0,0,1,,,,,,,,,0,,,80,56
98520,note_on,30,0,1,,,,,,,,,0,,,77,0
98580,note_on,0,0,2,,,,,,,,,0,,,60,70
98580,note_on,180,0,2,,,,,,,,,0,,,61,0
98580,control_change,0,0,2,,,,,,,,,0,64,0,,
98580,note_on,60,0,1,,,,,,,,,0,,,80,0
98637,set_tempo,237,1,0,,,,,,421053,,,,,,,
98640,note_on,60,0,1,,,,,,,,,0,,,87,60
98640,note_on,0,0,2,,,,,,,,,0,,,49,0
98640,note_on,0,0,2,,,,,,,,,0,,,58,72
98640,note_on,0,0,2,,,,,,,,,0,,,51,61
98640,control_change,0,0,2,,,,,,,,,0,64,127,,
98640,note_on,60,0,2,,,,,,,,,0,,,60,0
98670,note_on,30,0,1,,,,,,,,,0,,,87,0
98670,note_on,0,0,1,,,,,,,,,0,,,91,51
98700,note_on,30,0,1,,,,,,,,,0,,,91,0
98700,note_on,0,0,1,,,,,,,,,0,,,87,60
98730,note_on,0,0,1,,,,,,,,,0,,,82,51
98730,note_on,30,0,1,,,,,,,,,0,,,87,0
98760,note_on,120,0,2,,,,,,,,,0,,,58,0
98760,set_tempo,123,1,0,,,,,,400000,,,,,,,
98760,note_on,30,0,1,,,,,,,,,0,,,82,0
98760,note_on,0,0,2,,,,,,,,,0,,,63,78
98760,note_on,0,0,1,,,,,,,,,0,,,82,60
98790,note_on,0,0,1,,,,,,,,,0,,,87,51
98790,note_on,30,0,1,,,,,,,,,0,,,82,0
98820,note_on,0,0,1,,,,,,,,,0,,,82,60
98820,note_on,30,0,1,,,,,,,,,0,,,87,0
98850,note_on,30,0,1,,,,,,,,,0,,,82,0
98850,note_on,0,0,1,,,,,,,,,0,,,79,51
98880,note_on,0,0,1,,,,,,,,,0,,,82,60
98880,note_on,30,0,1,,,,,,,,,0,,,79,0
98940,note_on,60,0,1,,,,,,,,,0,,,82,0
98940,note_on,180,0,2,,,,,,,,,0,,,63,0
98940,note_on,0,0,2,,,,,,,,,0,,,61,71
98945,control_change,5,0,2,,,,,,,,,0,64,0,,
98998,set_tempo,238,1,0,,,,,,422535,,,,,,,
99000,note_on,60,0,1,,,,,,,,,0,,,87,70
99000,note_on,0,0,2,,,,,,,,,0,,,56,60
99000,note_on,0,0,2,,,,,,,,,0,,,60,72
99000,note_on,55,0,2,,,,,,,,,0,,,61,0
99000,note_on,0,0,2,,,,,,,,,0,,,51,0
99004,control_change,4,0,2,,,,,,,,,0,64,127,,
99030,note_on,0,0,1,,,,,,,,,0,,,92,59
99030,note_on,30,0,1,,,,,,,,,0,,,87,0
99060,note_on,0,0,1,,,,,,,,,0,,,87,70
99060,note_on,30,0,1,,,,,,,,,0,,,92,0
99090,note_on,0,0,1,,,,,,,,,0,,,84,59
99090,note_on,30,0,1,,,,,,,,,0,,,87,0
99118,set_tempo,120,1,0,,,,,,400000,,,,,,,
99120,note_on,116,0,2,,,,,,,,,0,,,60,0
99120,note_on,0,0,2,,,,,,,,,0,,,63,79
99120,note_on,0,0,1,,,,,,,,,0,,,84,70
99120,note_on,30,0,1,,,,,,,,,0,,,84,0
99150,note_on,30,0,1,,,,,,,,,0,,,84,0
99150,note_on,0,0,1,,,,,,,,,0,,,87,59
99180,note_on,30,0,1,,,,,,,,,0,,,87,0
99180,note_on,0,0,1,,,,,,,,,0,,,84,70
99210,note_on,0,0,1,,,,,,,,,0,,,80,59
99210,note_on,30,0,1,,,,,,,,,0,,,84,0
99240,note_on,0,0,1,,,,,,,,,0,,,84,70
99240,note_on,30,0,1,,,,,,,,,0,,,80,0
99298,control_change,178,0,2,,,,,,,,,0,64,0,,
99300,note_on,2,0,2,,,,,,,,,0,,,63,0
99300,note_on,60,0,1,,,,,,,,,0,,,84,0
99300,note_on,0,0,2,,,,,,,,,0,,,60,69
99360,note_on,0,0,2,,,,,,,,,0,,,51,66
99360,note_on,0,0,2,,,,,,,,,0,,,58,78
99360,note_on,0,0,2,,,,,,,,,0,,,56,0
99360,note_on,60,0,2,,,,,,,,,0,,,60,0
99360,note_on,60,0,1,,,,,,,,,0,,,87,76
99362,set_tempo,244,1,0,,,,,,439560,,,,,,,
99364,control_change,4,0,2,,,,,,,,,0,64,127,,
99390,note_on,0,0,1,,,,,,,,,0,,,91,64
99390,note_on,30,0,1,,,,,,,,,0,,,87,0
99420,note_on,30,0,1,,,,,,,,,0,,,91,0
99420,note_on,0,0,1,,,,,,,,,0,,,87,76
99450,note_on,30,0,1,,,,,,,,,0,,,87,0
99450,note_on,0,0,1,,,,,,,,,0,,,82,64
99480,note_on,30,0,1,,,,,,,,,0,,,82,0
99480,note_on,0,0,1,,,,,,,,,0,,,82,76
99480,set_tempo,118,1,0,,,,,,400000,,,,,,,
99480,note_on,0,0,2,,,,,,,,,0,,,63,86
99480,note_on,116,0,2,,,,,,,,,0,,,58,0
99510,note_on,30,0,1,,,,,,,,,0,,,82,0
99510,note_on,0,0,1,,,,,,,,,0,,,87,64
99540,note_on,30,0,1,,,,,,,,,0,,,87,0
99540,note_on,0,0,1,,,,,,,,,0,,,82,76
99570,note_on,0,0,1,,,,,,,,,0,,,79,64
99570,note_on,30,0,1,,,,,,,,,0,,,82,0
99600,note_on,0,0,1,,,,,,,,,0,,,82,76
99600,note_on,30,0,1,,,,,,,,,0,,,79,0
99656,control_change,176,0,2,,,,,,,,,0,64,0,,
99660,note_on,60,0,1,,,,,,,,,0,,,82,0
99660,note_on,0,0,2,,,,,,,,,0,,,61,79
99660,note_on,4,0,2,,,,,,,,,0,,,63,0
99718,set_tempo,238,1,0,,,,,,430108,,,,,,,
99720,note_on,60,0,1,,,,,,,,,0,,,87,80
99720,note_on,60,0,2,,,,,,,,,0,,,61,0
99720,note_on,0,0,2,,,,,,,,,0,,,51,0
99720,note_on,0,0,2,,,,,,,,,0,,,60,80
99720,note_on,0,0,2,,,,,,,,,0,,,56,67
99725,control_change,5,0,2,,,,,,,,,0,64,127,,
99750,note_on,30,0,1,,,,,,,,,0,,,87,0
99750,note_on,0,0,1,,,,,,,,,0,,,92,67
99780,note_on,30,0,1,,,,,,,,,0,,,92,0
99780,note_on,0,0,1,,,,,,,,,0,,,87,80
99810,note_on,0,0,1,,,,,,,,,0,,,84,67
99810,note_on,30,0,1,,,,,,,,,0,,,87,0
99838,set_tempo,120,1,0,,,,,,400000,,,,,,,
99840,note_on,0,0,1,,,,,,,,,0,,,84,80
99840,note_on,30,0,1,,,,,,,,,0,,,84,0
99840,note_on,115,0,2,,,,,,,,,0,,,60,0
99840,note_on,0,0,2,,,,,,,,,0,,,63,87
99870,note_on,30,0,1,,,,,,,,,0,,,84,0
99870,note_on,0,0,1,,,,,,,,,0,,,87,67
99900,note_on,30,0,1,,,,,,,,,0,,,87,0
99900,note_on,0,0,1,,,,,,,,,0,,,84,80
99930,note_on,30,0,1,,,,,,,,,0,,,84,0
99930,note_on,0,0,1,,,,,,,,,0,,,80,67
99960,note_on,30,0,1,,,,,,,,,0,,,80,0
99960,note_on,0,0,1,,,,,,,,,0,,,84,80
100020,note_on,180,0,2,,,,,,,,,0,,,63,0
100020,note_on,60,0,1,,,,,,,,,0,,,84,0
100020,note_on,0,0,2,,,,,,,,,0,,,60,78
100029,control_change,9,0,2,,,,,,,,,0,64,0,,
100080,note_on,0,0,2,,,,,,,,,0,,,53,61
100080,note_on,0,0,2,,,,,,,,,0,,,56,0
100080,note_on,51,0,2,,,,,,,,,0,,,60,0
100080,note_on,60,0,1,,,,,,,,,0,,,89,79
100080,note_on,0,0,2,,,,,,,,,0,,,60,74
100082,set_tempo,244,1,0,,,,,,451128,,,,,,,
100084,control_change,4,0,2,,,,,,,,,0,64,127,,
100110,note_on,30,0,1,,,,,,,,,0,,,89,0
100110,note_on,0,0,1,,,,,,,,,0,,,93,67
100140,note_on,0,0,1,,,,,,,,,0,,,89,79
100140,note_on,30,0,1,,,,,,,,,0,,,93,0
100170,note_on,30,0,1,,,,,,,,,0,,,89,0
100170,note_on,0,0,1,,,,,,,,,0,,,84,67
100200,note_on,116,0,2,,,,,,,,,0,,,60,0
100200,note_on,0,0,1,,,,,,,,,0,,,84,79
100200,note_on,0,0,2,,,,,,,,,0,,,65,79
100200,note_on,30,0,1,,,,,,,,,0,,,84,0
100202,set_tempo,120,1,0,,,,,,400000,,,,,,,
100230,note_on,30,0,1,,,,,,,,,0,,,84,0
100230,note_on,0,0,1,,,,,,,,,0,,,89,67
100260,note_on,30,0,1,,,,,,,,,0,,,89,0
100260,note_on,0,0,1,,,,,,,,,0,,,84,79
100290,note_on,30,0,1,,,,,,,,,0,,,84,0
100290,note_on,0,0,1,,,,,,,,,0,,,81,67
100320,note_on,30,0,1,,,,,,,,,0,,,81,0
100320,note_on,0,0,1,,,,,,,,,0,,,84,79
100380,note_on,0,0,2,,,,,,,,,0,,,63,71
100380,note_on,180,0,2,,,,,,,,,0,,,65,0
100380,note_on,60,0,1,,,,,,,,,0,,,84,0
100393,control_change,13,0,2,,,,,,,,,0,64,0,,
100440,note_on,0,0,2,,,,,,,,,0,,,61,76
100440,note_on,0,0,2,,,,,,,,,0,,,58,58
100440,note_on,47,0,2,,,,,,,,,0,,,63,0
100440,note_on,0,0,2,,,,,,,,,0,,,53,0
100440,set_tempo,238,1,0,,,,,,428571,,,,,,,
100440,note_on,60,0,1,,,,,,,,,0,,,89,80
100452,control_change,12,0,2,,,,,,,,,0,64,127,,
100470,note_on,0,0,1,,,,,,,,,0,,,94,68
100470,note_on,30,0,1,,,,,,,,,0,,,89,0
100500,note_on,30,0,1,,,,,,,,,0,,,94,0
100500,note_on,0,0,1,,,,,,,,,0,,,89,80
100530,note_on,30,0,1,,,,,,,,,0,,,89,0
100530,note_on,0,0,1,,,,,,,,,0,,,85,68
100560,note_on,30,0,1,,,,,,,,,0,,,85,0
100560,note_on,0,0,2,,,,,,,,,0,,,65,80
100560,note_on,108,0,2,,,,,,,,,0,,,61,0
100560,note_on,0,0,1,,,,,,,,,0,,,85,80
100562,set_tempo,122,1,0,,,,,,400000,,,,,,,
100590,note_on,30,0,1,,,,,,,,,0,,,85,0
100590,note_on,0,0,1,,,,,,,,,0,,,89,68
100620,note_on,0,0,1,,,,,,,,,0,,,85,80
100620,note_on,30,0,1,,,,,,,,,0,,,89,0
100650,note_on,30,0,1,,,,,,,,,0,,,85,0
100650,note_on,0,0,1,,,,,,,,,0,,,82,68
100680,note_on,30,0,1,,,,,,,,,0,,,82,0
100680,note_on,0,0,1,,,,,,,,,0,,,85,80
100740,note_on,0,0,2,,,,,,,,,0,,,61,71
100740,note_on,180,0,2,,,,,,,,,0,,,65,0
100740,note_on,60,0,1,,,,,,,,,0,,,85,0
100749,control_change,9,0,2,,,,,,,,,0,64,0,,
100798,set_tempo,236,1,0,,,,,,439560,,,,,,,
100800,note_on,60,0,1,,,,,,,,,0,,,89,80
100800,note_on,0,0,2,,,,,,,,,0,,,53,58
100800,note_on,0,0,2,,,,,,,,,0,,,60,76
100800,note_on,0,0,2,,,,,,,,,0,,,58,0
100800,note_on,51,0,2,,,,,,,,,0,,,61,0
100804,control_change,4,0,2,,,,,,,,,0,64,127,,
100830,note_on,0,0,1,,,,,,,,,0,,,93,68
100830,note_on,30,0,1,,,,,,,,,0,,,89,0
100860,note_on,0,0,1,,,,,,,,,0,,,89,80
100860,note_on,30,0,1,,,,,,,,,0,,,93,0
100890,note_on,30,0,1,,,,,,,,,0,,,89,0
100890,note_on,0,0,1,,,,,,,,,0,,,84,68
100920,note_on,0,0,2,,,,,,,,,0,,,65,80
100920,set_tempo,122,1,0,,,,,,400000,,,,,,,
100920,note_on,116,0,2,,,,,,,,,0,,,60,0
100920,note_on,0,0,1,,,,,,,,,0,,,84,80
100920,note_on,30,0,1,,,,,,,,,0,,,84,0
100950,note_on,0,0,1,,,,,,,,,0,,,89,68
100950,note_on,30,0,1,,,,,,,,,0,,,84,0
100980,note_on,30,0,1,,,,,,,,,0,,,89,0
100980,note_on,0,0,1,,,,,,,,,0,,,84,80
101010,note_on,30,0,1,,,,,,,,,0,,,84,0
101010,note_on,0,0,1,,,,,,,,,0,,,81,68
101040,note_on,30,0,1,,,,,,,,,0,,,81,0
101040,note_on,0,0,1,,,,,,,,,0,,,84,80
101100,note_on,180,0,2,,,,,,,,,0,,,65,0
101100,note_on,0,0,2,,,,,,,,,0,,,63,71
101100,note_on,60,0,1,,,,,,,,,0,,,84,0
101113,control_change,13,0,2,,,,,,,,,0,64,0,,
101160,note_on,60,0,1,,,,,,,,,0,,,89,80
101160,set_tempo,240,1,0,,,,,,424028,,,,,,,
101160,control_change,0,0,2,,,,,,,,,0,64,127,,
101160,note_on,0,0,2,,,,,,,,,0,,,58,58
101160,note_on,0,0,2,,,,,,,,,0,,,53,0
101160,note_on,47,0,2,,,,,,,,,0,,,63,0
101160,note_on,0,0,2,,,,,,,,,0,,,61,76
101190,note_on,30,0,1,,,,,,,,,0,,,89,0
101190,note_on,0,0,1,,,,,,,,,0,,,94,68
101220,note_on,30,0,1,,,,,,,,,0,,,94,0
101220,note_on,0,0,1,,,,,,,,,0,,,89,80
101250,note_on,30,0,1,,,,,,,,,0,,,89,0
101250,note_on,0,0,1,,,,,,,,,0,,,85,68
101280,set_tempo,120,1,0,,,,,,400000,,,,,,,
101280,note_on,0,0,2,,,,,,,,,0,,,65,79
101280,note_on,120,0,2,,,,,,,,,0,,,61,0
101280,note_on,30,0,1,,,,,,,,,0,,,85,0
101280,note_on,0,0,1,,,,,,,,,0,,,85,80
101310,note_on,30,0,1,,,,,,,,,0,,,85,0
101310,note_on,0,0,1,,,,,,,,,0,,,89,68
101340,note_on,0,0,1,,,,,,,,,0,,,85,80
101340,note_on,30,0,1,,,,,,,,,0,,,89,0
101370,note_on,0,0,1,,,,,,,,,0,,,82,68
101370,note_on,30,0,1,,,,,,,,,0,,,85,0
101400,note_on,0,0,1,,,,,,,,,0,,,85,80
101400,note_on,30,0,1,,,,,,,,,0,,,82,0
101456,control_change,176,0,2,,,,,,,,,0,64,0,,
101460,note_on,60,0,1,,,,,,,,,0,,,85,0
101460,note_on,4,0,2,,,,,,,,,0,,,65,0
101460,note_on,0,0,2,,,,,,,,,0,,,61,71
101520,set_tempo,240,1,0,,,,,,480000,,,,,,,
101520,note_on,0,0,2,,,,,,,,,0,,,63,76
101520,note_on,60,0,1,,,,,,,,,0,,,92,80
101520,note_on,0,0,2,,,,,,,,,0,,,56,58
101520,note_on,60,0,2,,,,,,,,,0,,,61,0
101520,note_on,0,0,2,,,,,,,,,0,,,58,0
101531,control_change,11,0,2,,,,,,,,,0,64,127,,
101550,note_on,30,0,1,,,,,,,,,0,,,92,0
101550,note_on,0,0,1,,,,,,,,,0,,,96,68
101580,note_on,0,0,1,,,,,,,,,0,,,92,80
101580,note_on,30,0,1,,,,,,,,,0,,,96,0
101610,note_on,0,0,1,,,,,,,,,0,,,87,68
101610,note_on,30,0,1,,,,,,,,,0,,,92,0
101640,set_tempo,120,1,0,,,,,,400000,,,,,,,
101640,note_on,30,0,1,,,,,,,,,0,,,87,0
101640,note_on,0,0,2,,,,,,,,,0,,,68,80
101640,note_on,109,0,2,,,,,,,,,0,,,63,0
101640,note_on,0,0,1,,,,,,,,,0,,,87,80
101670,note_on,0,0,1,,,,,,,,,0,,,92,68
101670,note_on,30,0,1,,,,,,,,,0,,,87,0
101700,note_on,30,0,1,,,,,,,,,0,,,92,0
101700,note_on,0,0,1,,,,,,,,,0,,,87,80
101730,note_on,0,0,1,,,,,,,,,0,,,84,68
101730,note_on,30,0,1,,,,,,,,,0,,,87,0
101760,note_on,0,0,1,,,,,,,,,0,,,87,80
101760,note_on,30,0,1,,,,,,,,,0,,,84,0
101820,note_on,180,0,2,,,,,,,,,0,,,68,0
101820,note_on,0,0,2,,,,,,,,,0,,,66,73
101820,note_on,60,0,1,,,,,,,,,0,,,87,0
101836,control_change,16,0,2,,,,,,,,,0,64,0,,
101877,set_tempo,237,1,0,,,,,,424028,,,,,,,
101880,note_on,0,0,2,,,,,,,,,0,,,56,0
101880,note_on,44,0,2,,,,,,,,,0,,,66,0
101880,note_on,60,0,1,,,,,,,,,0,,,92,80
101880,note_on,0,0,2,,,,,,,,,0,,,61,65
101880,note_on,0,0,2,,,,,,,,,0,,,65,78
101884,control_change,4,0,2,,,,,,,,,0,64,127,,
101910,note_on,0,0,1,,,,,,,,,0,,,97,68
101910,note_on,30,0,1,,,,,,,,,0,,,92,0
101940,note_on,30,0,1,,,,,,,,,0,,,97,0
101940,note_on,0,0,1,,,,,,,,,0,,,92,80
101970,note_on,30,0,1,,,,,,,,,0,,,92,0
101970,note_on,0,0,1,,,,,,,,,0,,,89,68
102000,note_on,30,0,1,,,,,,,,,0,,,89,0
102000,note_on,0,0,2,,,,,,,,,0,,,68,81
102000,note_on,116,0,2,,,,,,,,,0,,,65,0
102000,note_on,0,0,1,,,,,,,,,0,,,89,81
102002,set_tempo,125,1,0,,,,,,400000,,,,,,,
102030,note_on,0,0,1,,,,,,,,,0,,,92,69
102030,note_on,30,0,1,,,,,,,,,0,,,89,0
102060,note_on,30,0,1,,,,,,,,,0,,,92,0
102060,note_on,0,0,1,,,,,,,,,0,,,89,82
102090,note_on,0,0,1,,,,,,,,,0,,,85,69
102090,note_on,30,0,1,,,,,,,,,0,,,89,0
102120,note_on,0,0,1,,,,,,,,,0,,,89,83
102120,note_on,30,0,1,,,,,,,,,0,,,85,0
102180,note_on,0,0,2,,,,,,,,,0,,,65,72
102180,note_on,60,0,1,,,,,,,,,0,,,89,0
102180,note_on,180,0,2,,,,,,,,,0,,,68,0
102185,control_change,5,0,2,,,,,,,,,0,64,0,,
102240,note_on,0,0,2,,,,,,,,,0,,,61,0
102240,note_on,0,0,2,,,,,,,,,0,,,56,64
102240,note_on,55,0,2,,,,,,,,,0,,,65,0
102240,set_tempo,238,1,0,,,,,,430108,,,,,,,
102240,note_on,0,0,2,,,,,,,,,0,,,63,76
102240,note_on,60,0,1,,,,,,,,,0,,,92,84
102244,control_change,4,0,2,,,,,,,,,0,64,127,,
102270,note_on,30,0,1,,,,,,,,,0,,,92,0
102270,note_on,0,0,1,,,,,,,,,0,,,96,71
102300,note_on,30,0,1,,,,,,,,,0,,,96,0
102300,note_on,0,0,1,,,,,,,,,0,,,92,85
102330,note_on,0,0,1,,,,,,,,,0,,,87,72
102330,note_on,30,0,1,,,,,,,,,0,,,92,0
102360,note_on,116,0,2,,,,,,,,,0,,,63,0
102360,note_on,0,0,2,,,,,,,,,0,,,68,82
102360,note_on,0,0,1,,,,,,,,,0,,,87,86
102360,note_on,30,0,1,,,,,,,,,0,,,87,0
102362,set_tempo,122,1,0,,,,,,400000,,,,,,,
102390,note_on,30,0,1,,,,,,,,,0,,,87,0
102390,note_on,0,0,1,,,,,,,,,0,,,92,73
102420,note_on,30,0,1,,,,,,,,,0,,,92,0
102420,note_on,0,0,1,,,,,,,,,0,,,87,87
102450,note_on,30,0,1,,,,,,,,,0,,,87,0
102450,note_on,0,0,1,,,,,,,,,0,,,84,73
102480,note_on,30,0,1,,,,,,,,,0,,,84,0
102480,note_on,0,0,1,,,,,,,,,0,,,87,87
102482,set_tempo,120,1,0,,,,,,428571,,,,,,,
102540,note_on,60,0,1,,,,,,,,,0,,,87,0
102540,note_on,180,0,2,,,,,,,,,0,,,68,0
102540,note_on,0,0,2,,,,,,,,,0,,,66,71
102556,control_change,16,0,2,,,,,,,,,0,64,0,,
102600,note_on,0,0,2,,,,,,,,,0,,,61,67
102600,note_on,0,0,2,,,,,,,,,0,,,65,80
102600,note_on,0,0,2,,,,,,,,,0,,,56,0
102600,note_on,44,0,2,,,,,,,,,0,,,66,0
102600,note_on,60,0,1,,,,,,,,,0,,,92,88
102602,set_tempo,120,1,0,,,,,,398671,,,,,,,
102607,control_change,7,0,2,,,,,,,,,0,64,127,,
102630,note_on,30,0,1,,,,,,,,,0,,,92,0
102630,note_on,0,0,1,,,,,,,,,0,,,97,74
102660,note_on,0,0,1,,,,,,,,,0,,,92,88
102660,note_on,30,0,1,,,,,,,,,0,,,97,0
102690,note_on,30,0,1,,,,,,,,,0,,,92,0
102690,note_on,0,0,1,,,,,,,,,0,,,89,74
102720,note_on,0,0,1,,,,,,,,,0,,,89,88
102720,note_on,30,0,1,,,,,,,,,0,,,89,0
102720,note_on,113,0,2,,,,,,,,,0,,,61,0
102720,note_on,0,0,2,,,,,,,,,0,,,65,0
102750,note_on,30,0,1,,,,,,,,,0,,,89,0
102750,note_on,0,0,1,,,,,,,,,0,,,92,74
102780,note_on,30,0,1,,,,,,,,,0,,,92,0
102780,note_on,0,0,1,,,,,,,,,0,,,89,88
102810,note_on,30,0,1,,,,,,,,,0,,,89,0
102810,note_on,0,0,1,,,,,,,,,0,,,85,74
102840,note_on,30,0,1,,,,,,,,,0,,,85,0
102840,note_on,0,0,1,,,,,,,,,0,,,85,88
102870,note_on,30,0,1,,,,,,,,,0,,,85,0
102870,note_on,0,0,1,,,,,,,,,0,,,89,74
102900,note_on,0,0,1,,,,,,,,,0,,,85,88
102900,note_on,30,0,1,,,,,,,,,0,,,89,0
102930,note_on,30,0,1,,,,,,,,,0,,,85,0
102930,note_on,0,0,1,,,,,,,,,0,,,80,74
102942,control_change,222,0,2,,,,,,,,,0,64,0,,
102960,note_on,30,0,1,,,,,,,,,0,,,80,0
102960,control_change,18,0,2,,,,,,,,,0,64,127,,
102960,note_on,0,0,1,,,,,,,,,0,,,80,88
102990,note_on,0,0,1,,,,,,,,,0,,,85,74
102990,note_on,30,0,1,,,,,,,,,0,,,80,0
103020,note_on,30,0,1,,,,,,,,,0,,,85,0
103020,note_on,0,0,1,,,,,,,,,0,,,80,88
103050,note_on,0,0,1,,,,,,,,,0,,,77,74
103050,note_on,30,0,1,,,,,,,,,0,,,80,0
103080,note_on,0,0,1,,,,,,,,,0,,,77,88
103080,note_on,30,0,1,,,,,,,,,0,,,77,0
103110,note_on,30,0,1,,,,,,,,,0,,,77,0
103110,note_on,0,0,1,,,,,,,,,0,,,80,74
103140,note_on,30,0,1,,,,,,,,,0,,,80,0
103140,note_on,0,0,1,,,,,,,,,0,,,77,88
103170,note_on,0,0,1,,,,,,,,,0,,,73,74
103170,note_on,30,0,1,,,,,,,,,0,,,77,0
103200,note_on,0,0,1,,,,,,,,,0,,,73,88
103200,note_on,30,0,1,,,,,,,,,0,,,73,0
103230,note_on,0,0,1,,,,,,,,,0,,,77,74
103230,note_on,30,0,1,,,,,,,,,0,,,73,0
103260,note_on,30,0,1,,,,,,,,,0,,,77,0
103260,note_on,0,0,1,,,,,,,,,0,,,73,88
103290,note_on,0,0,1,,,,,,,,,0,,,68,74
103290,note_on,30,0,1,,,,,,,,,0,,,73,0
103294,control_change,334,0,2,,,,,,,,,0,64,0,,
103320,note_on,0,0,2,,,,,,,,,0,,,68,88
103320,control_change,26,0,2,,,,,,,,,0,64,127,,
103320,note_on,30,0,1,,,,,,,,,0,,,68,0
103320,note_on,0,0,1,,,,,,,,,0,,,80,88
103350,note_on,30,0,1,,,,,,,,,0,,,80,0
103350,note_on,0,0,1,,,,,,,,,0,,,85,74
103380,note_on,30,0,1,,,,,,,,,0,,,85,0
103380,note_on,60,0,2,,,,,,,,,0,,,68,0
103380,note_on,0,0,1,,,,,,,,,0,,,80,88
103410,note_on,0,0,1,,,,,,,,,0,,,77,74
103410,note_on,30,0,1,,,,,,,,,0,,,80,0
103440,note_on,0,0,1,,,,,,,,,0,,,77,88
103440,note_on,30,0,1,,,,,,,,,0,,,77,0
103440,note_on,60,0,2,,,,,,,,,0,,,65,84
103470,note_on,30,0,1,,,,,,,,,0,,,77,0
103470,note_on,0,0,1,,,,,,,,,0,,,80,74
103500,note_on,60,0,2,,,,,,,,,0,,,65,0
103500,note_on,30,0,1,,,,,,,,,0,,,80,0
103500,note_on,0,0,1,,,,,,,,,0,,,77,88
103530,note_on,30,0,1,,,,,,,,,0,,,77,0
103530,note_on,0,0,1,,,,,,,,,0,,,73,74
103560,note_on,0,0,1,,,,,,,,,0,,,73,88
103560,note_on,60,0,2,,,,,,,,,0,,,61,84
103560,note_on,30,0,1,,,,,,,,,0,,,73,0
103590,note_on,30,0,1,,,,,,,,,0,,,73,0
103590,note_on,0,0,1,,,,,,,,,0,,,77,74
103620,note_on,60,0,2,,,,,,,,,0,,,61,0
103620,note_on,30,0,1,,,,,,,,,0,,,77,0
103620,note_on,0,0,1,,,,,,,,,0,,,73,88
103650,note_on,0,0,1,,,,,,,,,0,,,68,74
103650,note_on,30,0,1,,,,,,,,,0,,,73,0
103659,control_change,39,0,2,,,,,,,,,0,64,0,,
103680,note_on,0,0,1,,,,,,,,,0,,,68,88
103680,note_on,30,0,1,,,,,,,,,0,,,68,0
103680,control_change,21,0,2,,,,,,,,,0,64,127,,
103680,note_on,0,0,2,,,,,,,,,0,,,56,88
103710,note_on,0,0,1,,,,,,,,,0,,,73,74
103710,note_on,30,0,1,,,,,,,,,0,,,68,0
103740,note_on,0,0,1,,,,,,,,,0,,,68,88
103740,note_on,60,0,2,,,,,,,,,0,,,56,0
103740,note_on,30,0,1,,,,,,,,,0,,,73,0
103770,note_on,30,0,1,,,,,,,,,0,,,68,0
103770,note_on,0,0,1,,,,,,,,,0,,,65,74
103800,note_on,60,0,2,,,,,,,,,0,,,53,84
103800,note_on,0,0,1,,,,,,,,,0,,,65,88
103800,note_on,30,0,1,,,,,,,,,0,,,65,0
103830,note_on,30,0,1,,,,,,,,,0,,,65,0
103830,note_on,0,0,1,,,,,,,,,0,,,68,74
103860,note_on,60,0,2,,,,,,,,,0,,,53,0
103860,note_on,30,0,1,,,,,,,,,0,,,68,0
103860,note_on,0,0,1,,,,,,,,,0,,,65,88
103890,note_on,0,0,1,,,,,,,,,0,,,61,74
103890,note_on,30,0,1,,,,,,,,,0,,,65,0
103920,note_on,0,0,1,,,,,,,,,0,,,61,88
103920,note_on,30,0,1,,,,,,,,,0,,,61,0
103920,note_on,60,0,2,,,,,,,,,0,,,49,84
103950,note_on,0,0,1,,,,,,,,,0,,,65,74
103950,note_on,30,0,1,,,,,,,,,0,,,61,0
103980,note_on,30,0,1,,,,,,,,,0,,,65,0
103980,note_on,60,0,2,,,,,,,,,0,,,49,0
103980,note_on,0,0,1,,,,,,,,,0,,,61,88
104010,note_on,30,0,1,,,,,,,,,0,,,61,0
104010,note_on,0,0,1,,,,,,,,,0,,,56,74
104010,control_change,30,0,2,,,,,,,,,0,64,0,,
104040,note_on,30,0,2,,,,,,,,,0,,,52,70
104040,note_on,0,0,1,,,,,,,,,0,,,61,90
104040,note_on,0,0,2,,,,,,,,,0,,,46,59
104040,note_on,0,0,2,,,,,,,,,0,,,43,59
104040,note_on,30,0,1,,,,,,,,,0,,,56,0
104040,note_on,0,0,2,,,,,,,,,0,,,49,59
104050,control_change,10,0,2,,,,,,,,,0,64,127,,
104070,note_on,0,0,1,,,,,,,,,0,,,64,69
104070,note_on,30,0,1,,,,,,,,,0,,,61,0
104100,note_on,0,0,1,,,,,,,,,0,,,61,82
104100,note_on,30,0,1,,,,,,,,,0,,,64,0
104130,note_on,0,0,1,,,,,,,,,0,,,58,69
104130,note_on,30,0,1,,,,,,,,,0,,,61,0
104160,note_on,30,0,1,,,,,,,,,0,,,58,0
104160,note_on,0,0,1,,,,,,,,,0,,,58,82
104190,note_on,30,0,1,,,,,,,,,0,,,58,0
104190,note_on,0,0,1,,,,,,,,,0,,,61,69
104220,note_on,30,0,1,,,,,,,,,0,,,61,0
104220,note_on,0,0,1,,,,,,,,,0,,,58,82
104250,note_on,30,0,1,,,,,,,,,0,,,58,0
104250,note_on,0,0,1,,,,,,,,,0,,,55,69
104266,control_change,216,0,2,,,,,,,,,0,64,0,,
104280,note_on,0,0,2,,,,,,,,,0,,,43,59
104280,note_on,30,0,1,,,,,,,,,0,,,55,0
104280,note_on,0,0,2,,,,,,,,,0,,,52,0
104280,note_on,0,0,2,,,,,,,,,0,,,49,0
104280,note_on,0,0,2,,,,,,,,,0,,,46,0
104280,note_on,0,0,2,,,,,,,,,0,,,52,70
104280,note_on,0,0,2,,,,,,,,,0,,,49,59
104280,note_on,0,0,2,,,,,,,,,0,,,46,59
104280,note_on,0,0,1,,,,,,,,,0,,,61,91
104280,note_on,14,0,2,,,,,,,,,0,,,43,0
104289,control_change,9,0,2,,,,,,,,,0,64,127,,
104310,note_on,0,0,1,,,,,,,,,0,,,64,69
104310,note_on,30,0,1,,,,,,,,,0,,,61,0
104340,note_on,30,0,1,,,,,,,,,0,,,64,0
104340,note_on,0,0,1,,,,,,,,,0,,,61,82
104370,note_on,30,0,1,,,,,,,,,0,,,61,0
104370,note_on,0,0,1,,,,,,,,,0,,,58,69
104400,note_on,30,0,1,,,,,,,,,0,,,58,0
104400,note_on,0,0,1,,,,,,,,,0,,,58,82
104430,note_on,30,0,1,,,,,,,,,0,,,58,0
104430,note_on,0,0,1,,,,,,,,,0,,,61,69
104460,note_on,30,0,1,,,,,,,,,0,,,61,0
104460,note_on,0,0,1,,,,,,,,,0,,,58,82
104490,note_on,30,0,1,,,,,,,,,0,,,58,0
104490,note_on,0,0,1,,,,,,,,,0,,,55,69
104510,control_change,221,0,2,,,,,,,,,0,64,0,,
104520,note_on,30,0,1,,,,,,,,,0,,,55,0
104520,note_on,0,0,2,,,,,,,,,0,,,52,0
104520,note_on,0,0,2,,,,,,,,,0,,,43,59
104520,note_on,0,0,2,,,,,,,,,0,,,46,59
104520,note_on,0,0,2,,,,,,,,,0,,,49,59
104520,note_on,0,0,2,,,,,,,,,0,,,52,70
104520,note_on,0,0,2,,,,,,,,,0,,,46,0
104520,note_on,0,0,2,,,,,,,,,0,,,49,0
104520,note_on,0,0,1,,,,,,,,,0,,,61,90
104520,note_on,10,0,2,,,,,,,,,0,,,43,0
104524,control_change,4,0,2,,,,,,,,,0,64,127,,
104550,note_on,0,0,1,,,,,,,,,0,,,64,69
104550,note_on,30,0,1,,,,,,,,,0,,,61,0
104580,note_on,30,0,1,,,,,,,,,0,,,64,0
104580,note_on,0,0,1,,,,,,,,,0,,,61,82
104610,note_on,30,0,1,,,,,,,,,0,,,61,0
104610,note_on,0,0,1,,,,,,,,,0,,,58,69
104640,note_on,30,0,1,,,,,,,,,0,,,58,0
104640,note_on,0,0,1,,,,,,,,,0,,,58,82
104670,note_on,0,0,1,,,,,,,,,0,,,61,69
104670,note_on,30,0,1,,,,,,,,,0,,,58,0
104700,note_on,0,0,1,,,,,,,,,0,,,58,82
104700,note_on,30,0,1,,,,,,,,,0,,,61,0
104730,note_on,30,0,1,,,,,,,,,0,,,58,0
104730,note_on,0,0,1,,,,,,,,,0,,,55,69
104741,control_change,217,0,2,,,,,,,,,0,64,0,,
104760,note_on,0,0,2,,,,,,,,,0,,,49,55
104760,note_on,0,0,2,,,,,,,,,0,,,43,55
104760,note_on,0,0,2,,,,,,,,,0,,,46,55
104760,note_on,0,0,2,,,,,,,,,0,,,51,65
104760,note_on,0,0,1,,,,,,,,,0,,,61,81
104760,note_on,0,0,2,,,,,,,,,0,,,49,0
104760,note_on,0,0,2,,,,,,,,,0,,,52,0
104760,note_on,19,0,2,,,,,,,,,0,,,43,0
104760,note_on,0,0,2,,,,,,,,,0,,,46,0
104760,note_on,30,0,1,,,,,,,,,0,,,55,0
104769,control_change,9,0,2,,,,,,,,,0,64,127,,
104790,note_on,0,0,1,,,,,,,,,0,,,63,68
104790,note_on,30,0,1,,,,,,,,,0,,,61,0
104820,note_on,0,0,1,,,,,,,,,0,,,61,81
104820,note_on,30,0,1,,,,,,,,,0,,,63,0
104850,note_on,0,0,1,,,,,,,,,0,,,58,67
104850,note_on,30,0,1,,,,,,,,,0,,,61,0
104880,note_on,0,0,1,,,,,,,,,0,,,58,80
104880,note_on,30,0,1,,,,,,,,,0,,,58,0
104910,note_on,30,0,1,,,,,,,,,0,,,58,0
104910,note_on,0,0,1,,,,,,,,,0,,,61,66
104940,note_on,30,0,1,,,,,,,,,0,,,61,0
104940,note_on,0,0,1,,,,,,,,,0,,,58,79
104970,note_on,30,0,1,,,,,,,,,0,,,58,0
104970,note_on,0,0,1,,,,,,,,,0,,,55,66
104986,control_change,217,0,2,,,,,,,,,0,64,0,,
105000,note_on,30,0,1,,,,,,,,,0,,,55,0
105000,note_on,14,0,2,,,,,,,,,0,,,43,0
105000,note_on,0,0,2,,,,,,,,,0,,,51,0
105000,note_on,0,0,1,,,,,,,,,0,,,61,84
105000,note_on,0,0,2,,,,,,,,,0,,,49,0
105000,note_on,0,0,2,,,,,,,,,0,,,51,51
105000,note_on,0,0,2,,,,,,,,,0,,,46,0
105000,note_on,0,0,2,,,,,,,,,0,,,46,43
105000,note_on,0,0,2,,,,,,,,,0,,,43,43
105000,note_on,0,0,2,,,,,,,,,0,,,49,43
105009,control_change,9,0,2,,,,,,,,,0,64,127,,
105030,note_on,30,0,1,,,,,,,,,0,,,61,0
105030,note_on,0,0,1,,,,,,,,,0,,,63,65
105060,note_on,30,0,1,,,,,,,,,0,,,63,0
105060,note_on,0,0,1,,,,,,,,,0,,,61,76
105090,note_on,30,0,1,,,,,,,,,0,,,61,0
105090,note_on,0,0,1,,,,,,,,,0,,,58,62
105120,note_on,0,0,1,,,,,,,,,0,,,58,76
105120,note_on,30,0,1,,,,,,,,,0,,,58,0
105150,note_on,0,0,1,,,,,,,,,0,,,61,63
105150,note_on,30,0,1,,,,,,,,,0,,,58,0
105180,note_on,0,0,1,,,,,,,,,0,,,58,73
105180,note_on,30,0,1,,,,,,,,,0,,,61,0
105210,note_on,0,0,1,,,,,,,,,0,,,55,59
105210,note_on,30,0,1,,,,,,,,,0,,,58,0
105224,control_change,215,0,2,,,,,,,,,0,64,0,,
105240,note_on,0,0,2,,,,,,,,,0,,,43,38
105240,note_on,30,0,1,,,,,,,,,0,,,55,0
105240,note_on,0,0,1,,,,,,,,,0,,,61,76
105240,note_on,16,0,2,,,,,,,,,0,,,43,0
105240,note_on,0,0,2,,,,,,,,,0,,,51,0
105240,note_on,0,0,2,,,,,,,,,0,,,49,0
105240,note_on,0,0,2,,,,,,,,,0,,,46,0
105240,note_on,0,0,2,,,,,,,,,0,,,51,45
105240,note_on,0,0,2,,,,,,,,,0,,,46,38
105240,note_on,0,0,2,,,,,,,,,0,,,49,38
105251,control_change,11,0,2,,,,,,,,,0,64,127,,
105270,note_on,0,0,1,,,,,,,,,0,,,63,57
105270,note_on,30,0,1,,,,,,,,,0,,,61,0
105300,note_on,0,0,1,,,,,,,,,0,,,61,66
105300,note_on,30,0,1,,,,,,,,,0,,,63,0
105330,note_on,0,0,1,,,,,,,,,0,,,58,55
105330,note_on,30,0,1,,,,,,,,,0,,,61,0
105358,set_tempo,2756,1,0,,,,,,500000,,,,,,,
105360,note_on,0,0,1,,,,,,,,,0,,,58,63
105360,note_on,30,0,1,,,,,,,,,0,,,58,0
105390,note_on,30,0,1,,,,,,,,,0,,,58,0
105390,note_on,0,0,1,,,,,,,,,0,,,61,52
105420,note_on,30,0,1,,,,,,,,,0,,,61,0
105420,note_on,0,0,1,,,,,,,,,0,,,58,60
105450,note_on,0,0,1,,,,,,,,,0,,,55,49
105450,note_on,30,0,1,,,,,,,,,0,,,58,0
105454,control_change,203,0,2,,,,,,,,,0,64,0,,
105480,note_on,0,0,2,,,,,,,,,0,,,46,0
105480,note_on,30,0,1,,,,,,,,,0,,,55,0
105480,note_on,26,0,2,,,,,,,,,0,,,43,0
105480,note_on,0,0,2,,,,,,,,,0,,,51,0
105480,note_on,0,0,2,,,,,,,,,0,,,49,0
105480,note_on,0,0,2,,,,,,,,,0,,,44,40
105480,note_on,0,0,1,,,,,,,,,0,,,63,50
105480,control_change,0,0,1,,,,,,,,,0,64,125,,
105480,set_tempo,122,1,0,,,,,,603015,,,,,,,
105485,set_tempo,5,1,0,,,,,,600000,,,,,,,
105487,set_tempo,2,1,0,,,,,,597015,,,,,,,
105490,set_tempo,3,1,0,,,,,,594059,,,,,,,
105492,set_tempo,2,1,0,,,,,,591133,,,,,,,
105495,set_tempo,3,1,0,,,,,,588235,,,,,,,
105500,set_tempo,5,1,0,,,,,,585366,,,,,,,
105502,set_tempo,2,1,0,,,,,,582524,,,,,,,
105505,set_tempo,3,1,0,,,,,,579710,,,,,,,
105507,set_tempo,2,1,0,,,,,,576923,,,,,,,
105510,set_tempo,3,1,0,,,,,,574163,,,,,,,
105512,set_tempo,2,1,0,,,,,,571429,,,,,,,
105517,set_tempo,5,1,0,,,,,,568720,,,,,,,
105520,set_tempo,3,1,0,,,,,,566038,,,,,,,
105520,note_on,40,0,1,,,,,,,,,0,,,60,40
105522,set_tempo,2,1,0,,,,,,563380,,,,,,,
105525,set_tempo,3,1,0,,,,,,560748,,,,,,,
105527,set_tempo,2,1,0,,,,,,558140,,,,,,,
105530,set_tempo,3,1,0,,,,,,555556,,,,,,,
105535,set_tempo,5,1,0,,,,,,552995,,,,,,,
105537,set_tempo,2,1,0,,,,,,550459,,,,,,,
105540,set_tempo,3,1,0,,,,,,547945,,,,,,,
105542,set_tempo,2,1,0,,,,,,545455,,,,,,,
105545,set_tempo,3,1,0,,,,,,542986,,,,,,,
105550,set_tempo,5,1,0,,,,,,540541,,,,,,,
105552,set_tempo,2,1,0,,,,,,538117,,,,,,,
105555,set_tempo,3,1,0,,,,,,535714,,,,,,,
105557,set_tempo,2,1,0,,,,,,533333,,,,,,,
105560,note_on,0,0,1,,,,,,,,,0,,,56,40
105560,set_tempo,3,1,0,,,,,,530973,,,,,,,
105560,note_on,40,0,1,,,,,,,,,0,,,60,0
105562,set_tempo,2,1,0,,,,,,528634,,,,,,,
105567,set_tempo,5,1,0,,,,,,526316,,,,,,,
105570,set_tempo,3,1,0,,,,,,524017,,,,,,,
105572,set_tempo,2,1,0,,,,,,521739,,,,,,,
105575,set_tempo,3,1,0,,,,,,519481,,,,,,,
105577,set_tempo,2,1,0,,,,,,517241,,,,,,,
105580,set_tempo,3,1,0,,,,,,515021,,,,,,,
105585,set_tempo,5,1,0,,,,,,512821,,,,,,,
105587,set_tempo,2,1,0,,,,,,510638,,,,,,,
105588,control_change,28,0,1,,,,,,,,,0,64,0,,
105590,set_tempo,3,1,0,,,,,,508475,,,,,,,
105592,set_tempo,2,1,0,,,,,,506329,,,,,,,
105595,set_tempo,3,1,0,,,,,,504202,,,,,,,
105597,set_tempo,2,1,0,,,,,,502092,,,,,,,
105600,note_on,12,0,1,,,,,,,,,0,,,56,0
105600,note_on,0,0,1,,,,,,,,,0,,,63,0
105600,control_change,0,0,1,,,,,,,,,0,64,127,,
105600,note_on,0,0,1,,,,,,,,,0,,,68,50
105602,set_tempo,5,1,0,,,,,,428571,,,,,,,
105640,note_on,40,0,1,,,,,,,,,0,,,63,40
105680,note_on,40,0,1,,,,,,,,,0,,,63,0
105680,note_on,0,0,1,,,,,,,,,0,,,60,40
105702,control_change,22,0,1,,,,,,,,,0,64,0,,
105720,note_on,18,0,1,,,,,,,,,0,,,60,0
105720,note_on,0,0,1,,,,,,,,,0,,,67,50
105720,control_change,0,0,1,,,,,,,,,0,64,126,,
105720,note_on,240,0,2,,,,,,,,,0,,,44,0
105720,note_on,0,0,2,,,,,,,,,0,,,48,40
105720,note_on,0,0,1,,,,,,,,,0,,,68,0
105760,note_on,40,0,1,,,,,,,,,0,,,63,40
105800,note_on,40,0,1,,,,,,,,,0,,,63,0
105800,note_on,0,0,1,,,,,,,,,0,,,60,40
105822,control_change,22,0,1,,,,,,,,,0,64,0,,
105840,note_on,0,0,2,,,,,,,,,0,,,49,40
105840,control_change,0,0,1,,,,,,,,,0,64,126,,
105840,note_on,0,0,1,,,,,,,,,0,,,65,50
105840,note_on,18,0,1,,,,,,,,,0,,,60,0
105840,note_on,0,0,1,,,,,,,,,0,,,67,0
105840,note_on,120,0,2,,,,,,,,,0,,,48,0
105842,set_tempo,240,1,0,,,,,,474308,,,,,,,
105880,note_on,40,0,1,,,,,,,,,0,,,61,40
105920,note_on,40,0,1,,,,,,,,,0,,,61,0
105920,note_on,0,0,1,,,,,,,,,0,,,56,40
105946,control_change,26,0,1,,,,,,,,,0,64,0,,
105958,set_tempo,116,1,0,,,,,,428571,,,,,,,
105960,note_on,120,0,2,,,,,,,,,0,,,49,0
105960,note_on,14,0,1,,,,,,,,,0,,,56,0
105960,note_on,0,0,1,,,,,,,,,0,,,65,0
105960,control_change,0,0,1,,,,,,,,,0,64,126,,
105960,note_on,0,0,1,,,,,,,,,0,,,73,50
105960,note_on,0,0,2,,,,,,,,,0,,,46,40
106000,note_on,40,0,1,,,,,,,,,0,,,65,40
106040,note_on,40,0,1,,,,,,,,,0,,,65,0
106040,note_on,0,0,1,,,,,,,,,0,,,61,40
106064,control_change,24,0,1,,,,,,,,,0,64,0,,
106078,set_tempo,120,1,0,,,,,,472441,,,,,,,
106080,note_on,120,0,2,,,,,,,,,0,,,46,0
106080,note_on,16,0,1,,,,,,,,,0,,,61,0
106080,control_change,0,0,1,,,,,,,,,0,64,125,,
106080,note_on,0,0,1,,,,,,,,,0,,,70,50
106080,note_on,0,0,1,,,,,,,,,0,,,73,0
106080,note_on,0,0,2,,,,,,,,,0,,,49,40
106120,note_on,40,0,1,,,,,,,,,0,,,65,40
106160,note_on,40,0,1,,,,,,,,,0,,,65,0
106160,note_on,0,0,1,,,,,,,,,0,,,61,40
106182,control_change,22,0,1,,,,,,,,,0,64,0,,
106200,note_on,18,0,1,,,,,,,,,0,,,61,0
106200,note_on,0,0,1,,,,,,,,,0,,,70,0
106200,note_on,0,0,1,,,,,,,,,0,,,70,50
106200,control_change,0,0,1,,,,,,,,,0,64,126,,
106200,note_on,120,0,2,,,,,,,,,0,,,49,0
106200,note_on,0,0,2,,,,,,,,,0,,,51,40
106202,set_tempo,124,1,0,,,,,,430108,,,,,,,
106240,note_on,40,0,1,,,,,,,,,0,,,63,40
106280,note_on,0,0,1,,,,,,,,,0,,,61,40
106280,note_on,40,0,1,,,,,,,,,0,,,63,0
106300,control_change,20,0,1,,,,,,,,,0,64,0,,
106320,note_on,0,0,1,,,,,,,,,0,,,68,50
106320,note_on,0,0,1,,,,,,,,,0,,,70,0
106320,note_on,20,0,1,,,,,,,,,0,,,61,0
106320,control_change,0,0,1,,,,,,,,,0,64,127,,
106360,note_on,40,0,1,,,,,,,,,0,,,63,40
106400,note_on,0,0,1,,,,,,,,,0,,,60,40
106400,note_on,40,0,1,,,,,,,,,0,,,63,0
106420,control_change,20,0,1,,,,,,,,,0,64,0,,
106438,set_tempo,236,1,0,,,,,,430108,,,,,,,
106440,note_on,20,0,1,,,,,,,,,0,,,60,0
106440,control_change,0,0,1,,,,,,,,,0,64,125,,
106440,note_on,0,0,1,,,,,,,,,0,,,68,0
106440,note_on,0,0,1,,,,,,,,,0,,,68,50
106480,note_on,40,0,1,,,,,,,,,0,,,63,40
106520,note_on,0,0,1,,,,,,,,,0,,,60,40
106520,note_on,40,0,1,,,,,,,,,0,,,63,0
106546,control_change,26,0,1,,,,,,,,,0,64,0,,
106558,set_tempo,120,1,0,,,,,,401338,,,,,,,
106560,note_on,360,0,2,,,,,,,,,0,,,51,0
106560,note_on,0,0,2,,,,,,,,,0,,,39,40
106560,note_on,0,0,1,,,,,,,,,0,,,68,50
106560,note_on,0,0,1,,,,,,,,,0,,,68,0
106560,note_on,14,0,1,,,,,,,,,0,,,60,0
106560,control_change,0,0,1,,,,,,,,,0,64,125,,
106566,set_tempo,8,1,0,,,,,,402685,,,,,,,
106572,set_tempo,6,1,0,,,,,,404040,,,,,,,
106578,set_tempo,6,1,0,,,,,,405405,,,,,,,
106584,set_tempo,6,1,0,,,,,,406780,,,,,,,
106590,set_tempo,6,1,0,,,,,,408163,,,,,,,
106596,set_tempo,6,1,0,,,,,,409556,,,,,,,
106600,note_on,40,0,1,,,,,,,,,0,,,63,40
106602,set_tempo,6,1,0,,,,,,410959,,,,,,,
106608,set_tempo,6,1,0,,,,,,412371,,,,,,,
106614,set_tempo,6,1,0,,,,,,413793,,,,,,,
106620,set_tempo,6,1,0,,,,,,415225,,,,,,,
106626,set_tempo,6,1,0,,,,,,416667,,,,,,,
106632,set_tempo,6,1,0,,,,,,418118,,,,,,,
106638,set_tempo,6,1,0,,,,,,419580,,,,,,,
106640,note_on,40,0,1,,,,,,,,,0,,,63,0
106640,note_on,0,0,1,,,,,,,,,0,,,60,40
106646,set_tempo,8,1,0,,,,,,421053,,,,,,,
106652,set_tempo,6,1,0,,,,,,422535,,,,,,,
106658,set_tempo,6,1,0,,,,,,424028,,,,,,,
106664,set_tempo,6,1,0,,,,,,425532,,,,,,,
106666,control_change,26,0,1,,,,,,,,,0,64,0,,
106670,set_tempo,6,1,0,,,,,,427046,,,,,,,
106676,set_tempo,6,1,0,,,,,,428571,,,,,,,
106680,control_change,0,0,1,,,,,,,,,0,64,124,,
106680,note_on,0,0,1,,,,,,,,,0,,,67,50
106680,note_on,14,0,1,,,,,,,,,0,,,60,0
106680,note_on,0,0,1,,,,,,,,,0,,,68,0
106682,set_tempo,6,1,0,,,,,,430108,,,,,,,
106688,set_tempo,6,1,0,,,,,,431655,,,,,,,
106694,set_tempo,6,1,0,,,,,,433213,,,,,,,
106700,set_tempo,6,1,0,,,,,,434783,,,,,,,
106706,set_tempo,6,1,0,,,,,,436364,,,,,,,
106712,set_tempo,6,1,0,,,,,,437956,,,,,,,
106718,set_tempo,6,1,0,,,,,,439560,,,,,,,
106720,note_on,40,0,1,,,,,,,,,0,,,63,40
106726,set_tempo,8,1,0,,,,,,441176,,,,,,,
106732,set_tempo,6,1,0,,,,,,442804,,,,,,,
106738,set_tempo,6,1,0,,,,,,444444,,,,,,,
106744,set_tempo,6,1,0,,,,,,446097,,,,,,,
106750,set_tempo,6,1,0,,,,,,447761,,,,,,,
106756,set_tempo,6,1,0,,,,,,449438,,,,,,,
106760,note_on,0,0,1,,,,,,,,,0,,,58,40
106760,note_on,40,0,1,,,,,,,,,0,,,63,0
106762,set_tempo,6,1,0,,,,,,451128,,,,,,,
106768,set_tempo,6,1,0,,,,,,452830,,,,,,,
106774,set_tempo,6,1,0,,,,,,454545,,,,,,,
106780,set_tempo,6,1,0,,,,,,456274,,,,,,,
106780,control_change,20,0,1,,,,,,,,,0,64,0,,
106786,set_tempo,6,1,0,,,,,,458015,,,,,,,
106792,set_tempo,6,1,0,,,,,,459770,,,,,,,
106798,set_tempo,6,1,0,,,,,,461538,,,,,,,
106800,control_change,0,0,1,,,,,,,,,0,64,126,,
106800,set_tempo,2,1,0,,,,,,521739,,,,,,,
106800,note_on,0,0,1,,,,,,,,,0,,,67,50
106800,note_on,20,0,1,,,,,,,,,0,,,58,0
106800,note_on,0,0,1,,,,,,,,,0,,,67,0
106840,note_on,40,0,1,,,,,,,,,0,,,63,40
106880,note_on,40,0,1,,,,,,,,,0,,,63,0
106880,note_on,0,0,1,,,,,,,,,0,,,58,40
106904,control_change,24,0,1,,,,,,,,,0,64,0,,
106920,note_on,360,0,2,,,,,,,,,0,,,39,0
106920,note_on,16,0,1,,,,,,,,,0,,,58,0
106920,note_on,0,0,1,,,,,,,,,0,,,67,0
106920,note_on,0,0,1,,,,,,,,,0,,,63,50
106920,control_change,0,0,1,,,,,,,,,0,64,127,,
106920,set_tempo,120,1,0,,,,,,430108,,,,,,,
106920,note_on,0,0,2,,,,,,,,,0,,,44,40
106922,set_tempo,2,1,0,,,,,,428571,,,,,,,
106960,note_on,40,0,1,,,,,,,,,0,,,60,40
107000,note_on,0,0,1,,,,,,,,,0,,,56,40
107000,note_on,40,0,1,,,,,,,,,0,,,60,0
107022,control_change,22,0,1,,,,,,,,,0,64,0,,
107040,note_on,0,0,1,,,,,,,,,0,,,63,0
107040,note_on,0,0,1,,,,,,,,,0,,,68,50
107040,control_change,0,0,1,,,,,,,,,0,64,126,,
107040,note_on,18,0,1,,,,,,,,,0,,,56,0
107080,note_on,40,0,1,,,,,,,,,0,,,63,40
107120,note_on,40,0,1,,,,,,,,,0,,,63,0
107120,note_on,0,0,1,,,,,,,,,0,,,60,40
107144,control_change,24,0,1,,,,,,,,,0,64,0,,
107160,control_change,0,0,1,,,,,,,,,0,64,127,,
107160,note_on,240,0,2,,,,,,,,,0,,,44,0
107160,note_on,0,0,2,,,,,,,,,0,,,48,40
107160,note_on,0,0,1,,,,,,,,,0,,,67,50
107160,note_on,0,0,1,,,,,,,,,0,,,68,0
107160,note_on,16,0,1,,,,,,,,,0,,,60,0
107200,note_on,40,0,1,,,,,,,,,0,,,63,40
107240,note_on,40,0,1,,,,,,,,,0,,,63,0
107240,note_on,0,0,1,,,,,,,,,0,,,60,40
107252,control_change,12,0,1,,,,,,,,,0,64,0,,
107280,control_change,0,0,1,,,,,,,,,0,64,126,,
107280,note_on,0,0,1,,,,,,,,,0,,,67,0
107280,note_on,28,0,1,,,,,,,,,0,,,60,0
107280,note_on,0,0,1,,,,,,,,,0,,,65,50
107280,note_on,0,0,2,,,,,,,,,0,,,49,40
107280,note_on,120,0,2,,,,,,,,,0,,,48,0
107282,set_tempo,360,1,0,,,,,,502092,,,,,,,
107320,note_on,40,0,1,,,,,,,,,0,,,61,40
107360,note_on,40,0,1,,,,,,,,,0,,,61,0
107360,note_on,0,0,1,,,,,,,,,0,,,56,40
107384,control_change,24,0,1,,,,,,,,,0,64,0,,
107400,note_on,120,0,2,,,,,,,,,0,,,49,0
107400,note_on,16,0,1,,,,,,,,,0,,,56,0
107400,note_on,0,0,1,,,,,,,,,0,,,65,0
107400,note_on,0,0,1,,,,,,,,,0,,,77,50
107400,set_tempo,118,1,0,,,,,,428571,,,,,,,
107400,control_change,0,0,1,,,,,,,,,0,64,126,,
107400,note_on,0,0,2,,,,,,,,,0,,,46,40
107440,note_on,40,0,1,,,,,,,,,0,,,68,40
107480,note_on,40,0,1,,,,,,,,,0,,,68,0
107480,note_on,0,0,1,,,,,,,,,0,,,65,40
107499,control_change,19,0,1,,,,,,,,,0,64,0,,
107520,control_change,0,0,1,,,,,,,,,0,64,127,,
107520,note_on,0,0,1,,,,,,,,,0,,,73,50
107520,note_on,0,0,1,,,,,,,,,0,,,77,0
107520,note_on,21,0,1,,,,,,,,,0,,,65,0
107520,note_on,120,0,2,,,,,,,,,0,,,46,0
107520,note_on,0,0,2,,,,,,,,,0,,,58,40
107520,note_on,0,0,2,,,,,,,,,0,,,49,40
107560,note_on,40,0,1,,,,,,,,,0,,,68,40
107600,note_on,0,0,1,,,,,,,,,0,,,65,40
107600,note_on,40,0,1,,,,,,,,,0,,,68,0
107622,control_change,22,0,1,,,,,,,,,0,64,0,,
107640,note_on,120,0,2,,,,,,,,,0,,,49,0
107640,note_on,0,0,2,,,,,,,,,0,,,51,40
107640,control_change,0,0,1,,,,,,,,,0,64,126,,
107640,set_tempo,240,1,0,,,,,,428571,,,,,,,
107640,note_on,0,0,1,,,,,,,,,0,,,73,0
107640,note_on,0,0,1,,,,,,,,,0,,,73,50
107640,note_on,18,0,1,,,,,,,,,0,,,65,0
107660,set_tempo,20,1,0,,,,,,430108,,,,,,,
107678,set_tempo,18,1,0,,,,,,431655,,,,,,,
107680,note_on,40,0,1,,,,,,,,,0,,,68,40
107696,set_tempo,18,1,0,,,,,,433213,,,,,,,
107714,set_tempo,18,1,0,,,,,,434783,,,,,,,
107720,note_on,40,0,1,,,,,,,,,0,,,68,0
107720,note_on,0,0,1,,,,,,,,,0,,,63,40
107732,set_tempo,18,1,0,,,,,,436364,,,,,,,
107740,control_change,20,0,1,,,,,,,,,0,64,0,,
107750,set_tempo,18,1,0,,,,,,437956,,,,,,,
107758,control_change,18,0,1,,,,,,,,,0,64,126,,
107760,note_on,0,0,2,,,,,,,,,0,,,56,40
107760,note_on,120,0,2,,,,,,,,,0,,,58,0
107760,note_on,0,0,1,,,,,,,,,0,,,73,0
107760,note_on,0,0,1,,,,,,,,,0,,,72,50
107760,note_on,2,0,1,,,,,,,,,0,,,63,0
107768,set_tempo,18,1,0,,,,,,439560,,,,,,,
107786,set_tempo,18,1,0,,,,,,441176,,,,,,,
107800,note_on,40,0,1,,,,,,,,,0,,,68,40
107804,set_tempo,18,1,0,,,,,,442804,,,,,,,
107822,set_tempo,18,1,0,,,,,,444444,,,,,,,
107840,note_on,0,0,1,,,,,,,,,0,,,63,40
107840,set_tempo,18,1,0,,,,,,446097,,,,,,,
107840,note_on,40,0,1,,,,,,,,,0,,,68,0
107858,set_tempo,18,1,0,,,,,,447761,,,,,,,
107866,control_change,26,0,1,,,,,,,,,0,64,0,,
107880,set_tempo,22,1,0,,,,,,461538,,,,,,,
107880,note_on,120,0,2,,,,,,,,,0,,,56,0
107880,note_on,14,0,1,,,,,,,,,0,,,63,0
107880,note_on,0,0,1,,,,,,,,,0,,,72,0
107880,note_on,0,0,1,,,,,,,,,0,,,72,50
107880,control_change,0,0,1,,,,,,,,,0,64,125,,
107880,note_on,0,0,2,,,,,,,,,0,,,56,40
107920,note_on,40,0,1,,,,,,,,,0,,,68,40
107960,note_on,0,0,1,,,,,,,,,0,,,63,40
107960,note_on,40,0,1,,,,,,,,,0,,,68,0
107976,control_change,16,0,1,,,,,,,,,0,64,0,,
107998,set_tempo,118,1,0,,,,,,428571,,,,,,,
108000,note_on,120,0,2,,,,,,,,,0,,,51,0
108000,note_on,0,0,2,,,,,,,,,0,,,51,40
108000,note_on,24,0,1,,,,,,,,,0,,,63,0
108000,note_on,0,0,1,,,,,,,,,0,,,72,0
108000,note_on,0,0,1,,,,,,,,,0,,,72,50
108000,control_change,0,0,1,,,,,,,,,0,64,125,,
108008,set_tempo,10,1,0,,,,,,430108,,,,,,,
108016,set_tempo,8,1,0,,,,,,431655,,,,,,,
108024,set_tempo,8,1,0,,,,,,433213,,,,,,,
108032,set_tempo,8,1,0,,,,,,434783,,,,,,,
108040,set_tempo,8,1,0,,,,,,436364,,,,,,,
108040,note_on,40,0,1,,,,,,,,,0,,,63,40
108050,set_tempo,10,1,0,,,,,,437956,,,,,,,
108058,set_tempo,8,1,0,,,,,,439560,,,,,,,
108066,set_tempo,8,1,0,,,,,,441176,,,,,,,
108074,set_tempo,8,1,0,,,,,,442804,,,,,,,
108080,note_on,0,0,1,,,,,,,,,0,,,61,40
108080,note_on,40,0,1,,,,,,,,,0,,,63,0
108082,set_tempo,8,1,0,,,,,,444444,,,,,,,
108092,set_tempo,10,1,0,,,,,,446097,,,,,,,
108100,set_tempo,8,1,0,,,,,,447761,,,,,,,
108106,control_change,26,0,1,,,,,,,,,0,64,0,,
108108,set_tempo,8,1,0,,,,,,449438,,,,,,,
108116,set_tempo,8,1,0,,,,,,451128,,,,,,,
108120,note_on,0,0,2,,,,,,,,,0,,,55,40
108120,note_on,120,0,2,,,,,,,,,0,,,56,0
108120,control_change,0,0,1,,,,,,,,,0,64,127,,
108120,note_on,0,0,1,,,,,,,,,0,,,70,50
108120,note_on,0,0,1,,,,,,,,,0,,,72,0
108120,note_on,14,0,1,,,,,,,,,0,,,61,0
108124,set_tempo,8,1,0,,,,,,452830,,,,,,,
108134,set_tempo,10,1,0,,,,,,454545,,,,,,,
108142,set_tempo,8,1,0,,,,,,456274,,,,,,,
108150,set_tempo,8,1,0,,,,,,458015,,,,,,,
108158,set_tempo,8,1,0,,,,,,459770,,,,,,,
108160,note_on,40,0,1,,,,,,,,,0,,,63,40
108166,set_tempo,8,1,0,,,,,,461538,,,,,,,
108176,set_tempo,10,1,0,,,,,,463320,,,,,,,
108184,set_tempo,8,1,0,,,,,,465116,,,,,,,
108192,set_tempo,8,1,0,,,,,,466926,,,,,,,
108200,note_on,0,0,1,,,,,,,,,0,,,61,40
108200,set_tempo,8,1,0,,,,,,468750,,,,,,,
108200,note_on,40,0,1,,,,,,,,,0,,,63,0
108208,set_tempo,8,1,0,,,,,,470588,,,,,,,
108218,set_tempo,10,1,0,,,,,,472441,,,,,,,
108222,control_change,22,0,1,,,,,,,,,0,64,0,,
108226,set_tempo,8,1,0,,,,,,474308,,,,,,,
108234,set_tempo,8,1,0,,,,,,476190,,,,,,,
108240,note_on,0,0,1,,,,,,,,,0,,,70,0
108240,note_on,0,0,1,,,,,,,,,0,,,70,50
108240,control_change,0,0,1,,,,,,,,,0,64,126,,
108240,note_on,0,0,2,,,,,,,,,0,,,55,40
108240,note_on,120,0,2,,,,,,,,,0,,,55,0
108240,note_on,18,0,1,,,,,,,,,0,,,61,0
108242,set_tempo,8,1,0,,,,,,478088,,,,,,,
108250,set_tempo,8,1,0,,,,,,480000,,,,,,,
108260,set_tempo,10,1,0,,,,,,481928,,,,,,,
108268,set_tempo,8,1,0,,,,,,483871,,,,,,,
108276,set_tempo,8,1,0,,,,,,485830,,,,,,,
108280,note_on,40,0,1,,,,,,,,,0,,,63,40
108284,set_tempo,8,1,0,,,,,,487805,,,,,,,
108292,set_tempo,8,1,0,,,,,,489796,,,,,,,
108300,set_tempo,8,1,0,,,,,,666667,,,,,,,
108320,note_on,0,0,1,,,,,,,,,0,,,61,40
108320,note_on,40,0,1,,,,,,,,,0,,,63,0
108346,control_change,26,0,1,,,,,,,,,0,64,0,,
108360,note_on,0,0,1,,,,,,,,,0,,,72,48
108360,note_on,0,0,1,,,,,,,,,0,,,70,0
108360,note_on,14,0,1,,,,,,,,,0,,,61,0
108360,note_on,120,0,2,,,,,,,,,0,,,55,0
108360,note_on,0,0,2,,,,,,,,,0,,,51,0
108360,note_on,0,0,2,,,,,,,,,0,,,44,48
108360,control_change,0,0,2,,,,,,,,,0,91,125,,
108360,set_tempo,60,1,0,,,,,,400000,,,,,,,
108362,control_change,2,0,1,,,,,,,,,0,91,126,,
108374,control_change,14,0,2,,,,,,,,,0,64,127,,
108390,note_on,28,0,1,,,,,,,,,0,,,72,0
108390,note_on,0,0,1,,,,,,,,,0,,,75,40
108420,note_on,30,0,1,,,,,,,,,0,,,75,0
108420,note_on,0,0,1,,,,,,,,,0,,,72,48
108450,note_on,30,0,1,,,,,,,,,0,,,72,0
108450,note_on,76,0,2,,,,,,,,,0,,,44,0
108450,note_on,0,0,1,,,,,,,,,0,,,68,40
108480,note_on,0,0,2,,,,,,,,,0,,,60,39
108480,note_on,30,0,2,,,,,,,,,0,,,54,36
108480,note_on,0,0,2,,,,,,,,,0,,,56,36
108480,note_on,0,0,1,,,,,,,,,0,,,68,48
108480,note_on,30,0,1,,,,,,,,,0,,,68,0
108510,note_on,0,0,1,,,,,,,,,0,,,72,40
108510,note_on,30,0,1,,,,,,,,,0,,,68,0
108540,note_on,30,0,1,,,,,,,,,0,,,72,0
108540,note_on,0,0,1,,,,,,,,,0,,,68,48
108570,note_on,0,0,1,,,,,,,,,0,,,63,40
108570,note_on,30,0,1,,,,,,,,,0,,,68,0
108600,note_on,0,0,1,,,,,,,,,0,,,68,48
108600,note_on,30,0,1,,,,,,,,,0,,,63,0
108600,set_tempo,240,1,0,,,,,,428571,,,,,,,
108614,control_change,134,0,2,,,,,,,,,0,64,0,,
108660,note_on,60,0,1,,,,,,,,,0,,,68,0
108720,note_on,0,0,2,,,,,,,,,0,,,49,48
108720,note_on,0,0,2,,,,,,,,,0,,,54,0
108720,note_on,0,0,2,,,,,,,,,0,,,60,0
108720,note_on,106,0,2,,,,,,,,,0,,,56,0
108720,set_tempo,120,1,0,,,,,,400000,,,,,,,
108720,note_on,60,0,1,,,,,,,,,0,,,73,48
108725,control_change,5,0,2,,,,,,,,,0,64,127,,
108750,note_on,0,0,1,,,,,,,,,0,,,77,40
108750,note_on,30,0,1,,,,,,,,,0,,,73,0
108780,note_on,0,0,1,,,,,,,,,0,,,73,48
108780,note_on,30,0,1,,,,,,,,,0,,,77,0
108810,note_on,30,0,1,,,,,,,,,0,,,73,0
108810,note_on,0,0,1,,,,,,,,,0,,,68,40
108810,note_on,85,0,2,,,,,,,,,0,,,49,0
108840,note_on,30,0,1,,,,,,,,,0,,,68,0
108840,note_on,0,0,1,,,,,,,,,0,,,68,48
108840,note_on,0,0,2,,,,,,,,,0,,,53,32
108840,note_on,30,0,2,,,,,,,,,0,,,61,35
108840,note_on,0,0,2,,,,,,,,,0,,,56,32
108870,note_on,30,0,1,,,,,,,,,0,,,68,0
108870,note_on,0,0,1,,,,,,,,,0,,,73,40
108900,note_on,30,0,1,,,,,,,,,0,,,73,0
108900,note_on,0,0,1,,,,,,,,,0,,,68,48
108930,note_on,30,0,1,,,,,,,,,0,,,68,0
108930,note_on,0,0,1,,,,,,,,,0,,,65,40
108960,note_on,30,0,1,,,,,,,,,0,,,65,0
108960,note_on,0,0,1,,,,,,,,,0,,,68,48
108960,set_tempo,240,1,0,,,,,,428571,,,,,,,
108965,control_change,125,0,2,,,,,,,,,0,64,0,,
109020,note_on,60,0,1,,,,,,,,,0,,,68,0
109078,set_tempo,118,1,0,,,,,,400000,,,,,,,
109080,note_on,60,0,1,,,,,,,,,0,,,75,48
109080,note_on,115,0,2,,,,,,,,,0,,,53,0
109080,note_on,0,0,2,,,,,,,,,0,,,56,0
109080,note_on,0,0,2,,,,,,,,,0,,,61,0
109080,note_on,0,0,2,,,,,,,,,0,,,39,48
109089,control_change,9,0,2,,,,,,,,,0,64,127,,
109110,note_on,0,0,1,,,,,,,,,0,,,79,40
109110,note_on,30,0,1,,,,,,,,,0,,,75,0
109140,note_on,0,0,1,,,,,,,,,0,,,75,48
109140,note_on,30,0,1,,,,,,,,,0,,,79,0
109170,note_on,30,0,1,,,,,,,,,0,,,75,0
109170,note_on,81,0,2,,,,,,,,,0,,,39,0
109170,note_on,0,0,1,,,,,,,,,0,,,70,40
109200,note_on,0,0,1,,,,,,,,,0,,,70,48
109200,note_on,30,0,2,,,,,,,,,0,,,51,34
109200,note_on,0,0,2,,,,,,,,,0,,,61,37
109200,note_on,0,0,2,,,,,,,,,0,,,58,34
109200,note_on,30,0,1,,,,,,,,,0,,,70,0
109230,note_on,30,0,1,,,,,,,,,0,,,70,0
109230,note_on,0,0,1,,,,,,,,,0,,,75,40
109260,note_on,30,0,1,,,,,,,,,0,,,75,0
109260,note_on,0,0,1,,,,,,,,,0,,,70,48
109290,note_on,30,0,1,,,,,,,,,0,,,70,0
109290,note_on,0,0,1,,,,,,,,,0,,,67,40
109320,note_on,30,0,1,,,,,,,,,0,,,67,0
109320,note_on,0,0,1,,,,,,,,,0,,,70,48
109322,set_tempo,244,1,0,,,,,,430108,,,,,,,
109329,control_change,129,0,2,,,,,,,,,0,64,0,,
109380,note_on,60,0,1,,,,,,,,,0,,,70,0
109440,set_tempo,118,1,0,,,,,,401338,,,,,,,
109440,note_on,0,0,2,,,,,,,,,0,,,44,48
109440,note_on,0,0,2,,,,,,,,,0,,,51,0
109440,note_on,0,0,2,,,,,,,,,0,,,61,0
109440,note_on,111,0,2,,,,,,,,,0,,,58,0
109440,note_on,60,0,1,,,,,,,,,0,,,75,48
109444,control_change,4,0,2,,,,,,,,,0,64,127,,
109470,note_on,0,0,1,,,,,,,,,0,,,80,40
109470,note_on,30,0,1,,,,,,,,,0,,,75,0
109500,note_on,30,0,1,,,,,,,,,0,,,80,0
109500,note_on,0,0,1,,,,,,,,,0,,,75,48
109530,note_on,86,0,2,,,,,,,,,0,,,44,0
109530,note_on,30,0,1,,,,,,,,,0,,,75,0
109530,note_on,0,0,1,,,,,,,,,0,,,72,40
109560,note_on,0,0,2,,,,,,,,,0,,,56,36
109560,note_on,0,0,2,,,,,,,,,0,,,51,36
109560,note_on,30,0,2,,,,,,,,,0,,,60,39
109560,note_on,30,0,1,,,,,,,,,0,,,72,0
109560,note_on,0,0,1,,,,,,,,,0,,,72,48
109590,note_on,30,0,1,,,,,,,,,0,,,72,0
109590,note_on,0,0,1,,,,,,,,,0,,,75,40
109620,note_on,30,0,1,,,,,,,,,0,,,75,0
109620,note_on,0,0,1,,,,,,,,,0,,,72,48
109650,note_on,30,0,1,,,,,,,,,0,,,72,0
109650,note_on,0,0,1,,,,,,,,,0,,,68,40
109680,note_on,0,0,1,,,,,,,,,0,,,72,48
109680,set_tempo,240,1,0,,,,,,461538,,,,,,,
109680,note_on,30,0,1,,,,,,,,,0,,,68,0
109684,control_change,124,0,2,,,,,,,,,0,64,0,,
109740,note_on,60,0,1,,,,,,,,,0,,,72,0
109800,note_on,0,0,2,,,,,,,,,0,,,56,0
109800,note_on,60,0,1,,,,,,,,,0,,,84,60
109800,note_on,0,0,2,,,,,,,,,0,,,60,0
109800,note_on,0,0,2,,,,,,,,,0,,,44,60
109800,note_on,116,0,2,,,,,,,,,0,,,51,0
109802,set_tempo,122,1,0,,,,,,401338,,,,,,,
109805,control_change,5,0,2,,,,,,,,,0,64,127,,
109830,note_on,0,0,1,,,,,,,,,0,,,87,51
109830,note_on,30,0,1,,,,,,,,,0,,,84,0
109860,note_on,0,0,1,,,,,,,,,0,,,84,60
109860,note_on,30,0,1,,,,,,,,,0,,,87,0
109890,note_on,30,0,1,,,,,,,,,0,,,84,0
109890,note_on,85,0,2,,,,,,,,,0,,,44,0
109890,note_on,0,0,1,,,,,,,,,0,,,80,51
109920,note_on,30,0,2,,,,,,,,,0,,,54,45
109920,note_on,0,0,2,,,,,,,,,0,,,56,45
109920,note_on,0,0,1,,,,,,,,,0,,,80,60
109920,note_on,30,0,1,,,,,,,,,0,,,80,0
109920,note_on,0,0,2,,,,,,,,,0,,,60,49
109950,note_on,30,0,1,,,,,,,,,0,,,80,0
109950,note_on,0,0,1,,,,,,,,,0,,,84,51
109980,note_on,0,0,1,,,,,,,,,0,,,80,60
109980,note_on,30,0,1,,,,,,,,,0,,,84,0
110010,note_on,0,0,1,,,,,,,,,0,,,75,51
110010,note_on,30,0,1,,,,,,,,,0,,,80,0
110040,note_on,30,0,1,,,,,,,,,0,,,75,0
110040,note_on,0,0,1,,,,,,,,,0,,,80,60
110040,set_tempo,238,1,0,,,,,,428571,,,,,,,
110045,control_change,125,0,2,,,,,,,,,0,64,0,,
110100,note_on,60,0,1,,,,,,,,,0,,,80,0
110160,set_tempo,120,1,0,,,,,,402685,,,,,,,
110160,note_on,115,0,2,,,,,,,,,0,,,56,0
110160,note_on,60,0,1,,,,,,,,,0,,,85,72
110160,note_on,0,0,2,,,,,,,,,0,,,54,0
110160,note_on,0,0,2,,,,,,,,,0,,,49,72
110160,note_on,0,0,2,,,,,,,,,0,,,60,0
110171,control_change,11,0,2,,,,,,,,,0,64,127,,
110190,note_on,30,0,1,,,,,,,,,0,,,85,0
110190,note_on,0,0,1,,,,,,,,,0,,,89,61
110220,note_on,30,0,1,,,,,,,,,0,,,89,0
110220,note_on,0,0,1,,,,,,,,,0,,,85,72
110250,note_on,30,0,1,,,,,,,,,0,,,85,0
110250,note_on,79,0,2,,,,,,,,,0,,,49,0
110250,note_on,0,0,1,,,,,,,,,0,,,80,61
110280,note_on,30,0,1,,,,,,,,,0,,,80,0
110280,note_on,0,0,1,,,,,,,,,0,,,80,72
110280,note_on,0,0,2,,,,,,,,,0,,,53,57
110280,note_on,30,0,2,,,,,,,,,0,,,56,57
110280,note_on,0,0,2,,,,,,,,,0,,,61,62
110310,note_on,0,0,1,,,,,,,,,0,,,85,61
110310,note_on,30,0,1,,,,,,,,,0,,,80,0
110340,note_on,0,0,1,,,,,,,,,0,,,80,72
110340,note_on,30,0,1,,,,,,,,,0,,,85,0
110370,note_on,0,0,1,,,,,,,,,0,,,77,61
110370,note_on,30,0,1,,,,,,,,,0,,,80,0
110400,note_on,0,0,1,,,,,,,,,0,,,80,72
110400,note_on,30,0,1,,,,,,,,,0,,,77,0
110400,set_tempo,240,1,0,,,,,,428571,,,,,,,
110411,control_change,131,0,2,,,,,,,,,0,64,0,,
110460,note_on,60,0,1,,,,,,,,,0,,,80,0
110520,note_on,109,0,2,,,,,,,,,0,,,53,0
110520,note_on,0,0,2,,,,,,,,,0,,,61,0
110520,note_on,0,0,2,,,,,,,,,0,,,56,0
110520,note_on,0,0,2,,,,,,,,,0,,,39,84
110520,note_on,60,0,1,,,,,,,,,0,,,87,84
110520,set_tempo,120,1,0,,,,,,401338,,,,,,,
110531,control_change,11,0,2,,,,,,,,,0,64,127,,
110550,note_on,30,0,1,,,,,,,,,0,,,87,0
110550,note_on,0,0,1,,,,,,,,,0,,,91,71
110580,note_on,0,0,1,,,,,,,,,0,,,87,84
110580,note_on,30,0,1,,,,,,,,,0,,,91,0
110610,note_on,0,0,1,,,,,,,,,0,,,82,71
110610,note_on,79,0,2,,,,,,,,,0,,,39,0
110610,note_on,30,0,1,,,,,,,,,0,,,87,0
110640,note_on,0,0,1,,,,,,,,,0,,,82,84
110640,note_on,30,0,2,,,,,,,,,0,,,61,73
110640,note_on,0,0,2,,,,,,,,,0,,,58,68
110640,note_on,30,0,1,,,,,,,,,0,,,82,0
110640,note_on,0,0,2,,,,,,,,,0,,,51,68
110670,note_on,0,0,1,,,,,,,,,0,,,87,71
110670,note_on,30,0,1,,,,,,,,,0,,,82,0
110700,note_on,30,0,1,,,,,,,,,0,,,87,0
110700,note_on,0,0,1,,,,,,,,,0,,,82,84
110730,note_on,30,0,1,,,,,,,,,0,,,82,0
110730,note_on,0,0,1,,,,,,,,,0,,,79,71
110760,set_tempo,240,1,0,,,,,,428571,,,,,,,
110760,note_on,30,0,1,,,,,,,,,0,,,79,0
110760,note_on,0,0,1,,,,,,,,,0,,,82,84
110771,control_change,131,0,2,,,,,,,,,0,64,0,,
110820,note_on,60,0,1,,,,,,,,,0,,,82,0
110880,note_on,0,0,2,,,,,,,,,0,,,61,0
110880,set_tempo,120,1,0,,,,,,400000,,,,,,,
110880,note_on,0,0,2,,,,,,,,,0,,,44,88
110880,note_on,60,0,1,,,,,,,,,0,,,87,93
110880,note_on,109,0,2,,,,,,,,,0,,,51,0
110880,note_on,0,0,2,,,,,,,,,0,,,58,0
110892,control_change,12,0,2,,,,,,,,,0,64,127,,
110910,note_on,30,0,1,,,,,,,,,0,,,87,0
110910,note_on,0,0,1,,,,,,,,,0,,,92,79
110940,note_on,30,0,1,,,,,,,,,0,,,92,0
110940,note_on,0,0,1,,,,,,,,,0,,,87,93
110970,note_on,78,0,2,,,,,,,,,0,,,44,0
110970,note_on,0,0,1,,,,,,,,,0,,,84,79
110970,note_on,30,0,1,,,,,,,,,0,,,87,0
111000,note_on,0,0,1,,,,,,,,,0,,,84,93
111000,note_on,0,0,2,,,,,,,,,0,,,51,70
111000,note_on,0,0,2,,,,,,,,,0,,,56,70
111000,note_on,30,0,2,,,,,,,,,0,,,60,76
111000,note_on,30,0,1,,,,,,,,,0,,,84,0
111030,note_on,0,0,1,,,,,,,,,0,,,87,79
111030,note_on,30,0,1,,,,,,,,,0,,,84,0
111060,note_on,0,0,1,,,,,,,,,0,,,84,93
111060,note_on,30,0,1,,,,,,,,,0,,,87,0
111090,note_on,0,0,1,,,,,,,,,0,,,80,79
111090,note_on,30,0,1,,,,,,,,,0,,,84,0
111118,set_tempo,238,1,0,,,,,,463320,,,,,,,
111120,note_on,0,0,1,,,,,,,,,0,,,84,93
111120,note_on,30,0,1,,,,,,,,,0,,,80,0
111132,control_change,132,0,2,,,,,,,,,0,64,0,,
111180,note_on,60,0,1,,,,,,,,,0,,,84,0
111240,note_on,60,0,1,,,,,,,,,0,,,72,48
111240,note_on,0,0,2,,,,,,,,,0,,,44,48
111240,note_on,108,0,2,,,,,,,,,0,,,51,0
111240,note_on,0,0,2,,,,,,,,,0,,,56,0
111240,note_on,0,0,2,,,,,,,,,0,,,60,0
111240,note_on,0,0,2,,,,,,,,,0,,,51,60
111241,set_tempo,123,1,0,,,,,,428571,,,,,,,
111247,control_change,7,0,2,,,,,,,,,0,64,127,,
111270,note_on,30,0,1,,,,,,,,,0,,,72,0
111270,note_on,0,0,1,,,,,,,,,0,,,75,40
111300,note_on,0,0,1,,,,,,,,,0,,,72,48
111300,note_on,30,0,1,,,,,,,,,0,,,75,0
111330,note_on,0,0,1,,,,,,,,,0,,,68,40
111330,note_on,30,0,1,,,,,,,,,0,,,72,0
111357,set_tempo,116,1,0,,,,,,400000,,,,,,,
111360,note_on,113,0,2,,,,,,,,,0,,,51,0
111360,note_on,0,0,2,,,,,,,,,0,,,56,72
111360,note_on,30,0,1,,,,,,,,,0,,,68,0
111360,note_on,0,0,1,,,,,,,,,0,,,68,48
111390,note_on,0,0,1,,,,,,,,,0,,,72,40
111390,note_on,30,0,1,,,,,,,,,0,,,68,0
111420,note_on,30,0,1,,,,,,,,,0,,,72,0
111420,note_on,0,0,1,,,,,,,,,0,,,68,48
111450,note_on,30,0,1,,,,,,,,,0,,,68,0
111450,note_on,0,0,1,,,,,,,,,0,,,63,40
111480,note_on,30,0,1,,,,,,,,,0,,,63,0
111480,note_on,0,0,1,,,,,,,,,0,,,68,48
111535,control_change,175,0,2,,,,,,,,,0,64,0,,
111540,note_on,60,0,1,,,,,,,,,0,,,68,0
111540,note_on,0,0,2,,,,,,,,,0,,,55,60
111540,note_on,5,0,2,,,,,,,,,0,,,56,0
111600,note_on,0,0,2,,,,,,,,,0,,,53,60
111600,note_on,0,0,2,,,,,,,,,0,,,44,0
111600,note_on,60,0,2,,,,,,,,,0,,,55,0
111600,note_on,0,0,2,,,,,,,,,0,,,49,48
111600,note_on,60,0,1,,,,,,,,,0,,,73,48
111600,set_tempo,243,1,0,,,,,,427046,,,,,,,
111605,control_change,5,0,2,,,,,,,,,0,64,127,,
111630,note_on,30,0,1,,,,,,,,,0,,,73,0
111630,note_on,0,0,1,,,,,,,,,0,,,77,40
111660,note_on,0,0,1,,,,,,,,,0,,,73,48
111660,note_on,30,0,1,,,,,,,,,0,,,77,0
111690,note_on,30,0,1,,,,,,,,,0,,,73,0
111690,note_on,0,0,1,,,,,,,,,0,,,68,40
111720,set_tempo,120,1,0,,,,,,400000,,,,,,,
111720,note_on,0,0,1,,,,,,,,,0,,,68,48
111720,note_on,30,0,1,,,,,,,,,0,,,68,0
111720,note_on,115,0,2,,,,,,,,,0,,,53,0
111720,note_on,0,0,2,,,,,,,,,0,,,61,72
111750,note_on,0,0,1,,,,,,,,,0,,,73,40
111750,note_on,30,0,1,,,,,,,,,0,,,68,0
111780,note_on,30,0,1,,,,,,,,,0,,,73,0
111780,note_on,0,0,1,,,,,,,,,0,,,68,48
111810,note_on,0,0,1,,,,,,,,,0,,,65,40
111810,note_on,30,0,1,,,,,,,,,0,,,68,0
111840,note_on,0,0,1,,,,,,,,,0,,,68,48
111840,note_on,30,0,1,,,,,,,,,0,,,65,0
111900,note_on,0,0,2,,,,,,,,,0,,,60,60
111900,note_on,60,0,1,,,,,,,,,0,,,68,0
111900,note_on,180,0,2,,,,,,,,,0,,,61,0
111909,control_change,9,0,2,,,,,,,,,0,64,0,,
111960,note_on,60,0,1,,,,,,,,,0,,,75,48
111960,note_on,0,0,2,,,,,,,,,0,,,51,48
111960,note_on,0,0,2,,,,,,,,,0,,,58,60
111960,note_on,0,0,2,,,,,,,,,0,,,49,0
111960,note_on,51,0,2,,,,,,,,,0,,,60,0
111962,set_tempo,242,1,0,,,,,,430108,,,,,,,
111971,control_change,11,0,2,,,,,,,,,0,64,127,,
111990,note_on,30,0,1,,,,,,,,,0,,,75,0
111990,note_on,0,0,1,,,,,,,,,0,,,79,40
112020,note_on,30,0,1,,,,,,,,,0,,,79,0
112020,note_on,0,0,1,,,,,,,,,0,,,75,48
112050,note_on,30,0,1,,,,,,,,,0,,,75,0
112050,note_on,0,0,1,,,,,,,,,0,,,70,40
112078,set_tempo,116,1,0,,,,,,400000,,,,,,,
112080,note_on,109,0,2,,,,,,,,,0,,,58,0
112080,note_on,0,0,2,,,,,,,,,0,,,63,72
112080,note_on,30,0,1,,,,,,,,,0,,,70,0
112080,note_on,0,0,1,,,,,,,,,0,,,70,48
112110,note_on,30,0,1,,,,,,,,,0,,,70,0
112110,note_on,0,0,1,,,,,,,,,0,,,75,40
112140,note_on,0,0,1,,,,,,,,,0,,,70,48
112140,note_on,30,0,1,,,,,,,,,0,,,75,0
112170,note_on,0,0,1,,,,,,,,,0,,,67,40
112170,note_on,30,0,1,,,,,,,,,0,,,70,0
112200,note_on,0,0,1,,,,,,,,,0,,,70,48
112200,note_on,30,0,1,,,,,,,,,0,,,67,0
112260,note_on,60,0,1,,,,,,,,,0,,,70,0
112260,note_on,180,0,2,,,,,,,,,0,,,63,0
112260,note_on,0,0,2,,,,,,,,,0,,,61,60
112283,control_change,23,0,2,,,,,,,,,0,64,0,,
112320,set_tempo,242,1,0,,,,,,428571,,,,,,,
112320,note_on,60,0,1,,,,,,,,,0,,,75,48
112320,note_on,0,0,2,,,,,,,,,0,,,56,48
112320,note_on,0,0,2,,,,,,,,,0,,,60,60
112320,note_on,0,0,2,,,,,,,,,0,,,51,0
112320,note_on,37,0,2,,,,,,,,,0,,,61,0
112325,control_change,5,0,2,,,,,,,,,0,64,127,,
112350,note_on,0,0,1,,,,,,,,,0,,,80,40
112350,note_on,30,0,1,,,,,,,,,0,,,75,0
112380,note_on,30,0,1,,,,,,,,,0,,,80,0
112380,note_on,0,0,1,,,,,,,,,0,,,75,48
112410,note_on,30,0,1,,,,,,,,,0,,,75,0
112410,note_on,0,0,1,,,,,,,,,0,,,72,40
112440,note_on,0,0,1,,,,,,,,,0,,,72,48
112440,note_on,30,0,1,,,,,,,,,0,,,72,0
112440,note_on,0,0,2,,,,,,,,,0,,,63,72
112440,note_on,115,0,2,,,,,,,,,0,,,60,0
112442,set_tempo,122,1,0,,,,,,400000,,,,,,,
112470,note_on,0,0,1,,,,,,,,,0,,,75,40
112470,note_on,30,0,1,,,,,,,,,0,,,72,0
112500,note_on,0,0,1,,,,,,,,,0,,,72,48
112500,note_on,30,0,1,,,,,,,,,0,,,75,0
112530,note_on,0,0,1,,,,,,,,,0,,,68,40
112530,note_on,30,0,1,,,,,,,,,0,,,72,0
112560,note_on,0,0,1,,,,,,,,,0,,,72,48
112560,note_on,30,0,1,,,,,,,,,0,,,68,0
112620,note_on,60,0,1,,,,,,,,,0,,,72,0
112646,control_change,206,0,2,,,,,,,,,0,64,0,,
112680,note_on,0,0,2,,,,,,,,,0,,,56,0
112680,note_on,0,0,2,,,,,,,,,0,,,51,80
112680,note_on,0,0,2,,,,,,,,,0,,,44,68
112680,set_tempo,238,1,0,,,,,,483871,,,,,,,
112680,control_change,0,0,2,,,,,,,,,0,64,127,,
112680,note_on,60,0,1,,,,,,,,,0,,,84,68
112680,note_on,34,0,2,,,,,,,,,0,,,63,0
112710,note_on,30,0,1,,,,,,,,,0,,,84,0
112710,note_on,0,0,1,,,,,,,,,0,,,87,57
112740,note_on,30,0,1,,,,,,,,,0,,,87,0
112740,note_on,0,0,1,,,,,,,,,0,,,84,68
112770,note_on,30,0,1,,,,,,,,,0,,,84,0
112770,note_on,0,0,1,,,,,,,,,0,,,80,57
112798,set_tempo,118,1,0,,,,,,398671,,,,,,,
112800,note_on,30,0,1,,,,,,,,,0,,,80,0
112800,note_on,0,0,1,,,,,,,,,0,,,80,68
112800,note_on,0,0,2,,,,,,,,,0,,,56,79
112800,note_on,120,0,2,,,,,,,,,0,,,51,0
112830,note_on,30,0,1,,,,,,,,,0,,,80,0
112830,note_on,0,0,1,,,,,,,,,0,,,84,57
112860,note_on,30,0,1,,,,,,,,,0,,,84,0
112860,note_on,0,0,1,,,,,,,,,0,,,80,68
112890,note_on,0,0,1,,,,,,,,,0,,,75,57
112890,note_on,30,0,1,,,,,,,,,0,,,80,0
112920,note_on,30,0,1,,,,,,,,,0,,,75,0
112920,note_on,0,0,1,,,,,,,,,0,,,80,68
112980,note_on,60,0,1,,,,,,,,,0,,,80,0
112980,note_on,180,0,2,,,,,,,,,0,,,56,0
112980,note_on,0,0,2,,,,,,,,,0,,,55,68
112985,control_change,5,0,2,,,,,,,,,0,64,0,,
113040,note_on,60,0,1,,,,,,,,,0,,,85,68
113040,control_change,0,0,2,,,,,,,,,0,64,127,,
113040,note_on,0,0,2,,,,,,,,,0,,,49,63
113040,note_on,0,0,2,,,,,,,,,0,,,53,75
113040,note_on,0,0,2,,,,,,,,,0,,,44,0
113040,note_on,55,0,2,,,,,,,,,0,,,55,0
113042,set_tempo,244,1,0,,,,,,436364,,,,,,,
113070,note_on,30,0,1,,,,,,,,,0,,,85,0
113070,note_on,0,0,1,,,,,,,,,0,,,89,57
113100,note_on,0,0,1,,,,,,,,,0,,,85,68
113100,note_on,30,0,1,,,,,,,,,0,,,89,0
113130,note_on,0,0,1,,,,,,,,,0,,,80,57
113130,note_on,30,0,1,,,,,,,,,0,,,85,0
113160,note_on,0,0,1,,,,,,,,,0,,,80,68
113160,note_on,30,0,1,,,,,,,,,0,,,80,0
113160,note_on,0,0,2,,,,,,,,,0,,,61,79
113160,note_on,120,0,2,,,,,,,,,0,,,53,0
113160,set_tempo,118,1,0,,,,,,400000,,,,,,,
113190,note_on,0,0,1,,,,,,,,,0,,,85,57
113190,note_on,30,0,1,,,,,,,,,0,,,80,0
113220,note_on,0,0,1,,,,,,,,,0,,,80,68
113220,note_on,30,0,1,,,,,,,,,0,,,85,0
113250,note_on,30,0,1,,,,,,,,,0,,,80,0
113250,note_on,0,0,1,,,,,,,,,0,,,77,57
113280,note_on,0,0,1,,,,,,,,,0,,,80,68
113280,note_on,30,0,1,,,,,,,,,0,,,77,0
113340,note_on,60,0,1,,,,,,,,,0,,,80,0
113340,note_on,180,0,2,,,,,,,,,0,,,61,0
113340,note_on,0,0,2,,,,,,,,,0,,,60,68
113344,control_change,4,0,2,,,,,,,,,0,64,0,,
113400,note_on,0,0,2,,,,,,,,,0,,,58,78
113400,note_on,60,0,1,,,,,,,,,0,,,87,68
113400,note_on,0,0,2,,,,,,,,,0,,,49,0
113400,note_on,0,0,2,,,,,,,,,0,,,51,66
113400,note_on,56,0,2,,,,,,,,,0,,,60,0
113402,set_tempo,242,1,0,,,,,,421053,,,,,,,
113412,control_change,12,0,2,,,,,,,,,0,64,127,,
113430,note_on,0,0,1,,,,,,,,,0,,,91,57
113430,note_on,30,0,1,,,,,,,,,0,,,87,0
113460,note_on,0,0,1,,,,,,,,,0,,,87,68
113460,note_on,30,0,1,,,,,,,,,0,,,91,0
113490,note_on,0,0,1,,,,,,,,,0,,,82,57
113490,note_on,30,0,1,,,,,,,,,0,,,87,0
113520,note_on,108,0,2,,,,,,,,,0,,,58,0
113520,note_on,0,0,2,,,,,,,,,0,,,63,85
113520,set_tempo,118,1,0,,,,,,400000,,,,,,,
113520,note_on,30,0,1,,,,,,,,,0,,,82,0
113520,note_on,0,0,1,,,,,,,,,0,,,82,68
113550,note_on,30,0,1,,,,,,,,,0,,,82,0
113550,note_on,0,0,1,,,,,,,,,0,,,87,57
113580,note_on,30,0,1,,,,,,,,,0,,,87,0
113580,note_on,0,0,1,,,,,,,,,0,,,82,68
113610,note_on,30,0,1,,,,,,,,,0,,,82,0
113610,note_on,0,0,1,,,,,,,,,0,,,79,57
113640,note_on,30,0,1,,,,,,,,,0,,,79,0
113640,note_on,0,0,1,,,,,,,,,0,,,82,68
113698,control_change,178,0,2,,,,,,,,,0,64,0,,
113700,note_on,0,0,2,,,,,,,,,0,,,61,68
113700,note_on,2,0,2,,,,,,,,,0,,,63,0
113700,note_on,60,0,1,,,,,,,,,0,,,82,0
113760,note_on,60,0,1,,,,,,,,,0,,,87,82
113760,note_on,0,0,2,,,,,,,,,0,,,56,65
113760,note_on,0,0,2,,,,,,,,,0,,,60,77
113760,note_on,0,0,2,,,,,,,,,0,,,51,0
113760,note_on,60,0,2,,,,,,,,,0,,,61,0
113762,set_tempo,242,1,0,,,,,,412371,,,,,,,
113767,control_change,7,0,2,,,,,,,,,0,64,127,,
113790,note_on,0,0,1,,,,,,,,,0,,,92,69
113790,note_on,30,0,1,,,,,,,,,0,,,87,0
113820,note_on,30,0,1,,,,,,,,,0,,,92,0
113820,note_on,0,0,1,,,,,,,,,0,,,87,82
113850,note_on,30,0,1,,,,,,,,,0,,,87,0
113850,note_on,0,0,1,,,,,,,,,0,,,84,69
113878,set_tempo,116,1,0,,,,,,400000,,,,,,,
113880,note_on,0,0,1,,,,,,,,,0,,,84,82
113880,note_on,113,0,2,,,,,,,,,0,,,60,0
113880,note_on,30,0,1,,,,,,,,,0,,,84,0
113880,note_on,0,0,2,,,,,,,,,0,,,63,85
113910,note_on,0,0,1,,,,,,,,,0,,,87,69
113910,note_on,30,0,1,,,,,,,,,0,,,84,0
113940,note_on,30,0,1,,,,,,,,,0,,,87,0
113940,note_on,0,0,1,,,,,,,,,0,,,84,82
113970,note_on,0,0,1,,,,,,,,,0,,,80,69
113970,note_on,30,0,1,,,,,,,,,0,,,84,0
114000,note_on,0,0,1,,,,,,,,,0,,,84,82
114000,note_on,30,0,1,,,,,,,,,0,,,80,0
114056,control_change,176,0,2,,,,,,,,,0,64,0,,
114060,note_on,0,0,2,,,,,,,,,0,,,60,77
114060,note_on,4,0,2,,,,,,,,,0,,,63,0
114060,note_on,60,0,1,,,,,,,,,0,,,84,0
114120,note_on,0,0,2,,,,,,,,,0,,,58,82
114120,note_on,0,0,2,,,,,,,,,0,,,56,0
114120,note_on,60,0,2,,,,,,,,,0,,,60,0
114120,set_tempo,242,1,0,,,,,,409556,,,,,,,
114120,note_on,0,0,2,,,,,,,,,0,,,51,62
114120,note_on,60,0,1,,,,,,,,,0,,,87,86
114122,control_change,2,0,2,,,,,,,,,0,64,127,,
114150,note_on,0,0,1,,,,,,,,,0,,,91,72
114150,note_on,30,0,1,,,,,,,,,0,,,87,0
114180,note_on,0,0,1,,,,,,,,,0,,,87,86
114180,note_on,30,0,1,,,,,,,,,0,,,91,0
114210,note_on,0,0,1,,,,,,,,,0,,,82,72
114210,note_on,30,0,1,,,,,,,,,0,,,87,0
114240,note_on,30,0,1,,,,,,,,,0,,,82,0
114240,note_on,0,0,1,,,,,,,,,0,,,82,86
114240,note_on,118,0,2,,,,,,,,,0,,,58,0
114240,note_on,0,0,2,,,,,,,,,0,,,63,90
114240,set_tempo,120,1,0,,,,,,400000,,,,,,,
114270,note_on,0,0,1,,,,,,,,,0,,,87,72
114270,note_on,30,0,1,,,,,,,,,0,,,82,0
114300,note_on,0,0,1,,,,,,,,,0,,,82,86
114300,note_on,30,0,1,,,,,,,,,0,,,87,0
114330,note_on,0,0,1,,,,,,,,,0,,,79,72
114330,note_on,30,0,1,,,,,,,,,0,,,82,0
114360,note_on,0,0,1,,,,,,,,,0,,,82,86
114360,note_on,30,0,1,,,,,,,,,0,,,79,0
114420,note_on,60,0,1,,,,,,,,,0,,,82,0
114420,note_on,0,0,2,,,,,,,,,0,,,61,82
114420,note_on,180,0,2,,,,,,,,,0,,,63,0
114425,control_change,5,0,2,,,,,,,,,0,64,0,,
114480,note_on,55,0,2,,,,,,,,,0,,,61,0
114480,note_on,0,0,2,,,,,,,,,0,,,56,69
114480,note_on,0,0,2,,,,,,,,,0,,,60,90
114480,note_on,0,0,2,,,,,,,,,0,,,51,0
114480,note_on,60,0,1,,,,,,,,,0,,,87,92
114482,set_tempo,242,1,0,,,,,,410959,,,,,,,
114485,control_change,5,0,2,,,,,,,,,0,64,127,,
114510,note_on,30,0,1,,,,,,,,,0,,,87,0
114510,note_on,0,0,1,,,,,,,,,0,,,92,77
114540,note_on,30,0,1,,,,,,,,,0,,,92,0
114540,note_on,0,0,1,,,,,,,,,0,,,87,92
114570,note_on,0,0,1,,,,,,,,,0,,,84,77
114570,note_on,30,0,1,,,,,,,,,0,,,87,0
114598,set_tempo,116,1,0,,,,,,400000,,,,,,,
114600,note_on,0,0,1,,,,,,,,,0,,,84,92
114600,note_on,30,0,1,,,,,,,,,0,,,84,0
114600,note_on,115,0,2,,,,,,,,,0,,,60,0
114600,note_on,0,0,2,,,,,,,,,0,,,63,94
114630,note_on,30,0,1,,,,,,,,,0,,,84,0
114630,note_on,0,0,1,,,,,,,,,0,,,87,77
114660,note_on,0,0,1,,,,,,,,,0,,,84,92
114660,note_on,30,0,1,,,,,,,,,0,,,87,0
114690,note_on,0,0,1,,,,,,,,,0,,,80,77
114690,note_on,30,0,1,,,,,,,,,0,,,84,0
114720,note_on,0,0,1,,,,,,,,,0,,,84,92
114720,note_on,30,0,1,,,,,,,,,0,,,80,0
114780,note_on,0,0,2,,,,,,,,,0,,,60,90
114780,note_on,180,0,2,,,,,,,,,0,,,63,0
114780,note_on,60,0,1,,,,,,,,,0,,,84,0
114782,control_change,2,0,2,,,,,,,,,0,64,0,,
114840,note_on,0,0,2,,,,,,,,,0,,,51,79
114840,note_on,0,0,2,,,,,,,,,0,,,58,94
114840,note_on,0,0,2,,,,,,,,,0,,,56,0
114840,note_on,58,0,2,,,,,,,,,0,,,60,0
114840,note_on,60,0,1,,,,,,,,,0,,,87,98
114842,set_tempo,244,1,0,,,,,,412371,,,,,,,
114845,control_change,5,0,2,,,,,,,,,0,64,127,,
114870,note_on,0,0,1,,,,,,,,,0,,,91,83
114870,note_on,30,0,1,,,,,,,,,0,,,87,0
114900,note_on,0,0,1,,,,,,,,,0,,,87,98
114900,note_on,30,0,1,,,,,,,,,0,,,91,0
114930,note_on,30,0,1,,,,,,,,,0,,,87,0
114930,note_on,0,0,1,,,,,,,,,0,,,82,83
114960,set_tempo,118,1,0,,,,,,400000,,,,,,,
114960,note_on,30,0,1,,,,,,,,,0,,,82,0
114960,note_on,0,0,2,,,,,,,,,0,,,63,96
114960,note_on,115,0,2,,,,,,,,,0,,,58,0
114960,note_on,0,0,1,,,,,,,,,0,,,82,98
114990,note_on,0,0,1,,,,,,,,,0,,,87,83
114990,note_on,30,0,1,,,,,,,,,0,,,82,0
115020,note_on,0,0,1,,,,,,,,,0,,,82,98
115020,note_on,30,0,1,,,,,,,,,0,,,87,0
115050,note_on,0,0,1,,,,,,,,,0,,,79,83
115050,note_on,30,0,1,,,,,,,,,0,,,82,0
115080,note_on,30,0,1,,,,,,,,,0,,,79,0
115080,note_on,0,0,1,,,,,,,,,0,,,82,98
115140,note_on,0,0,2,,,,,,,,,0,,,61,91
115140,note_on,60,0,1,,,,,,,,,0,,,82,0
115140,note_on,180,0,2,,,,,,,,,0,,,63,0
115145,control_change,5,0,2,,,,,,,,,0,64,0,,
115200,control_change,0,0,2,,,,,,,,,0,64,127,,
115200,note_on,0,0,2,,,,,,,,,0,,,60,98
115200,note_on,0,0,2,,,,,,,,,0,,,56,83
115200,note_on,0,0,2,,,,,,,,,0,,,51,0
115200,note_on,55,0,2,,,,,,,,,0,,,61,0
115200,note_on,60,0,1,,,,,,,,,0,,,87,98
115230,note_on,30,0,1,,,,,,,,,0,,,87,0
115230,note_on,0,0,1,,,,,,,,,0,,,92,83
115260,note_on,30,0,1,,,,,,,,,0,,,92,0
115260,note_on,0,0,1,,,,,,,,,0,,,87,98
115290,note_on,30,0,1,,,,,,,,,0,,,87,0
115290,note_on,0,0,1,,,,,,,,,0,,,84,83
115320,note_on,0,0,1,,,,,,,,,0,,,84,98
115320,note_on,120,0,2,,,,,,,,,0,,,60,0
115320,note_on,0,0,2,,,,,,,,,0,,,56,0
115320,note_on,30,0,1,,,,,,,,,0,,,84,0
115350,note_on,30,0,1,,,,,,,,,0,,,84,0
115350,note_on,0,0,1,,,,,,,,,0,,,87,83
115380,note_on,30,0,1,,,,,,,,,0,,,87,0
115380,note_on,0,0,1,,,,,,,,,0,,,84,98
115410,note_on,30,0,1,,,,,,,,,0,,,84,0
115410,note_on,0,0,1,,,,,,,,,0,,,80,83
115440,note_on,30,0,1,,,,,,,,,0,,,80,0
115440,note_on,0,0,1,,,,,,,,,0,,,80,98
115470,note_on,30,0,1,,,,,,,,,0,,,80,0
115470,note_on,0,0,1,,,,,,,,,0,,,84,83
115500,note_on,0,0,1,,,,,,,,,0,,,80,98
115500,note_on,30,0,1,,,,,,,,,0,,,84,0
115530,note_on,0,0,1,,,,,,,,,0,,,75,83
115530,note_on,30,0,1,,,,,,,,,0,,,80,0
115560,note_on,0,0,1,,,,,,,,,0,,,75,98
115560,note_on,30,0,1,,,,,,,,,0,,,75,0
115590,note_on,30,0,1,,,,,,,,,0,,,75,0
115590,note_on,0,0,1,,,,,,,,,0,,,80,83
115620,note_on,30,0,1,,,,,,,,,0,,,80,0
115620,note_on,0,0,1,,,,,,,,,0,,,75,98
115650,note_on,30,0,1,,,,,,,,,0,,,75,0
115650,note_on,0,0,1,,,,,,,,,0,,,72,83
115680,note_on,0,0,1,,,,,,,,,0,,,72,98
115680,note_on,30,0,1,,,,,,,,,0,,,72,0
115710,note_on,30,0,1,,,,,,,,,0,,,72,0
115710,note_on,0,0,1,,,,,,,,,0,,,75,83
115740,note_on,30,0,1,,,,,,,,,0,,,75,0
115740,note_on,0,0,1,,,,,,,,,0,,,72,98
115770,note_on,30,0,1,,,,,,,,,0,,,72,0
115770,note_on,0,0,1,,,,,,,,,0,,,68,83
115800,note_on,0,0,1,,,,,,,,,0,,,68,98
115800,note_on,30,0,1,,,,,,,,,0,,,68,0
115830,note_on,30,0,1,,,,,,,,,0,,,68,0
115830,note_on,0,0,1,,,,,,,,,0,,,72,83
115860,note_on,30,0,1,,,,,,,,,0,,,72,0
115860,note_on,0,0,1,,,,,,,,,0,,,68,98
115890,note_on,30,0,1,,,,,,,,,0,,,68,0
115890,note_on,0,0,1,,,,,,,,,0,,,63,83
115892,control_change,572,0,2,,,,,,,,,0,64,0,,
115920,note_on,0,0,2,,,,,,,,,0,,,63,98
115920,note_on,0,0,1,,,,,,,,,0,,,75,98
115920,control_change,28,0,2,,,,,,,,,0,64,127,,
115920,note_on,30,0,1,,,,,,,,,0,,,63,0
115950,note_on,30,0,1,,,,,,,,,0,,,75,0
115950,note_on,0,0,1,,,,,,,,,0,,,80,83
115980,note_on,60,0,2,,,,,,,,,0,,,63,0
115980,note_on,30,0,1,,,,,,,,,0,,,80,0
115980,note_on,0,0,1,,,,,,,,,0,,,75,97
116010,note_on,30,0,1,,,,,,,,,0,,,75,0
116010,note_on,0,0,1,,,,,,,,,0,,,72,82
116040,note_on,30,0,1,,,,,,,,,0,,,72,0
116040,note_on,0,0,1,,,,,,,,,0,,,72,96
116040,note_on,60,0,2,,,,,,,,,0,,,60,96
116070,note_on,0,0,1,,,,,,,,,0,,,75,80
116070,note_on,30,0,1,,,,,,,,,0,,,72,0
116100,note_on,30,0,1,,,,,,,,,0,,,75,0
116100,note_on,0,0,1,,,,,,,,,0,,,72,94
116100,note_on,60,0,2,,,,,,,,,0,,,60,0
116130,note_on,30,0,1,,,,,,,,,0,,,72,0
116130,note_on,0,0,1,,,,,,,,,0,,,68,79
116160,note_on,60,0,2,,,,,,,,,0,,,56,93
116160,note_on,30,0,1,,,,,,,,,0,,,68,0
116160,note_on,0,0,1,,,,,,,,,0,,,68,93
116190,note_on,30,0,1,,,,,,,,,0,,,68,0
116190,note_on,0,0,1,,,,,,,,,0,,,72,78
116220,note_on,0,0,1,,,,,,,,,0,,,68,92
116220,note_on,30,0,1,,,,,,,,,0,,,72,0
116220,note_on,60,0,2,,,,,,,,,0,,,56,0
116250,note_on,30,0,1,,,,,,,,,0,,,68,0
116250,note_on,0,0,1,,,,,,,,,0,,,63,76
116262,control_change,42,0,2,,,,,,,,,0,64,0,,
116280,note_on,0,0,1,,,,,,,,,0,,,63,90
116280,note_on,0,0,2,,,,,,,,,0,,,51,91
116280,control_change,18,0,2,,,,,,,,,0,64,127,,
116280,note_on,30,0,1,,,,,,,,,0,,,63,0
116310,note_on,30,0,1,,,,,,,,,0,,,63,0
116310,note_on,0,0,1,,,,,,,,,0,,,68,76
116340,note_on,0,0,1,,,,,,,,,0,,,63,89
116340,note_on,30,0,1,,,,,,,,,0,,,68,0
116340,note_on,60,0,2,,,,,,,,,0,,,51,0
116370,note_on,0,0,1,,,,,,,,,0,,,60,74
116370,note_on,30,0,1,,,,,,,,,0,,,63,0
116400,note_on,0,0,1,,,,,,,,,0,,,60,87
116400,note_on,30,0,1,,,,,,,,,0,,,60,0
116400,note_on,60,0,2,,,,,,,,,0,,,48,88
116430,note_on,30,0,1,,,,,,,,,0,,,60,0
116430,note_on,0,0,1,,,,,,,,,0,,,63,73
116460,note_on,60,0,2,,,,,,,,,0,,,48,0
116460,note_on,0,0,1,,,,,,,,,0,,,60,86
116460,note_on,30,0,1,,,,,,,,,0,,,63,0
116490,note_on,0,0,1,,,,,,,,,0,,,56,72
116490,note_on,30,0,1,,,,,,,,,0,,,60,0
116520,note_on,0,0,1,,,,,,,,,0,,,63,85
116520,note_on,60,0,2,,,,,,,,,0,,,51,85
116520,note_on,30,0,1,,,,,,,,,0,,,56,0
116550,note_on,0,0,1,,,,,,,,,0,,,68,70
116550,note_on,30,0,1,,,,,,,,,0,,,63,0
116580,note_on,60,0,2,,,,,,,,,0,,,51,0
116580,note_on,0,0,1,,,,,,,,,0,,,63,83
116580,note_on,30,0,1,,,,,,,,,0,,,68,0
116610,note_on,0,0,1,,,,,,,,,0,,,60,69
116610,note_on,30,0,1,,,,,,,,,0,,,63,0
116619,control_change,39,0,2,,,,,,,,,0,64,0,,
116640,note_on,0,0,1,,,,,,,,,0,,,56,81
116640,note_on,30,0,1,,,,,,,,,0,,,60,0
116640,note_on,21,0,2,,,,,,,,,0,,,44,82
116653,control_change,13,0,2,,,,,,,,,0,64,127,,
116760,note_on,107,0,2,,,,,,,,,0,,,44,0
116760,note_on,120,0,1,,,,,,,,,0,,,56,0
116787,control_change,27,0,2,,,,,,,,,0,64,0,,
117000,note_on,0,0,1,,,,,,,,,0,,,79,102
117000,note_on,0,0,2,,,,,,,,,0,,,51,91
117000,note_on,213,0,2,,,,,,,,,0,,,39,91
117000,note_on,0,0,1,,,,,,,,,0,,,75,102
117000,note_on,240,0,1,,,,,,,,,0,,,87,112
117000,note_on,0,0,1,,,,,,,,,0,,,82,102
117033,control_change,33,0,2,,,,,,,,,0,64,127,,
117120,note_on,87,0,2,,,,,,,,,0,,,51,0
117120,note_on,0,0,2,,,,,,,,,0,,,39,0
117120,note_on,0,0,1,,,,,,,,,0,,,82,0
117120,note_on,0,0,1,,,,,,,,,0,,,87,0
117120,note_on,120,0,1,,,,,,,,,0,,,75,0
117120,note_on,0,0,1,,,,,,,,,0,,,79,0
117127,control_change,7,0,2,,,,,,,,,0,64,0,,
117360,note_on,0,0,1,,,,,,,,,0,,,80,98
117360,note_on,0,0,1,,,,,,,,,0,,,72,98
117360,note_on,240,0,1,,,,,,,,,0,,,84,108
117360,note_on,0,0,2,,,,,,,,,0,,,44,88
117360,note_on,233,0,2,,,,,,,,,0,,,32,88
117360,note_on,0,0,1,,,,,,,,,0,,,75,98
117380,control_change,20,0,2,,,,,,,,,0,64,127,,
117480,note_on,120,0,1,,,,,,,,,0,,,75,0
117480,note_on,0,0,1,,,,,,,,,0,,,80,0
117480,note_on,0,0,1,,,,,,,,,0,,,84,0
117480,marker,2520,1,0,,,,,,,,,,,,,
117480,end_of_track,0,1,0,,,,,,,,,,,,,
117480,end_of_track,0,1,2,,,,,,,,,,,,,
117480,control_change,0,0,2,,,,,,,,,0,64,0,,
117480,note_on,0,0,2,,,,,,,,,0,,,32,0
117480,note_on,100,0,2,,,,,,,,,0,,,44,0
117480,end_of_track,0,1,1,,,,,,,,,,,,,
117480,note_on,0,0,1,,,,,,,,,0,,,72,0
