tick,type,time,meta,track,numerator,denominator,clocks_per_click,notated_32nd_notes_per_beat,key,tempo,port,program,channel,control,value,note,velocity
0,track_name,0,1,0,,,,,,,,,,,,,
0,program_change,0,0,1,,,,,,,,0,0,,,,
0,control_change,0,0,1,,,,,,,,,0,7,127,,
0,control_change,0,0,1,,,,,,,,,0,10,64,,
0,track_name,0,1,7,,,,,,,,,,,,,
0,midi_port,0,1,2,,,,,,,0,,,,,,
0,track_name,0,1,2,,,,,,,,,,,,,
0,program_change,0,0,2,,,,,,,,0,0,,,,
0,control_change,0,0,2,,,,,,,,,0,7,127,,
0,control_change,0,0,2,,,,,,,,,0,10,64,,
0,midi_port,0,1,3,,,,,,,0,,,,,,
0,track_name,0,1,3,,,,,,,,,,,,,
0,program_change,0,0,3,,,,,,,,0,0,,,,
0,control_change,0,0,3,,,,,,,,,0,7,127,,
0,track_name,0,1,1,,,,,,,,,,,,,
0,control_change,0,0,3,,,,,,,,,0,10,64,,
0,track_name,0,1,4,,,,,,,,,,,,,
0,program_change,0,0,4,,,,,,,,0,0,,,,
0,control_change,0,0,4,,,,,,,,,0,7,127,,
0,control_change,0,0,4,,,,,,,,,0,10,64,,
0,midi_port,0,1,5,,,,,,,0,,,,,,
0,track_name,0,1,5,,,,,,,,,,,,,
0,program_change,0,0,5,,,,,,,,0,0,,,,
0,control_change,0,0,5,,,,,,,,,0,7,127,,
0,control_change,0,0,5,,,,,,,,,0,10,64,,
0,midi_port,0,1,6,,,,,,,0,,,,,,
0,track_name,0,1,6,,,,,,,,,,,,,
0,end_of_track,0,1,6,,,,,,,,,,,,,
0,midi_port,0,1,7,,,,,,,0,,,,,,
0,midi_port,0,1,4,,,,,,,0,,,,,,
0,midi_port,0,1,1,,,,,,,0,,,,,,
0,end_of_track,0,1,7,,,,,,,,,,,,,
0,copyright,0,1,0,,,,,,,,,,,,,
0,time_signature,0,1,0,4,4,24,8,,,,,,,,,
0,key_signature,0,1,0,,,,,Ab,,,,,,,,
0,text,0,1,0,,,,,,,,,,,,,
0,set_tempo,0,1,0,,,,,,500000,,,,,,,
0,marker,0,1,0,,,,,,,,,,,,,
435,note_on,435,0,1,,,,,,,,,0,,,60,100
450,note_on,0,0,1,,,,,,,,,0,,,65,100
450,note_on,15,0,1,,,,,,,,,0,,,60,0
465,note_on,15,0,1,,,,,,,,,0,,,65,0
465,note_on,0,0,1,,,,,,,,,0,,,68,100
480,note_on,0,0,4,,,,,,,,,0,,,48,100
480,note_on,15,0,1,,,,,,,,,0,,,68,0
480,note_on,0,0,4,,,,,,,,,0,,,41,100
480,note_on,0,0,1,,,,,,,,,0,,,72,100
480,control_change,480,0,5,,,,,,,,,0,64,127,,
480,note_on,480,0,4,,,,,,,,,0,,,56,100
690,note_on,0,0,1,,,,,,,,,0,,,70,60
690,note_on,210,0,1,,,,,,,,,0,,,72,0
720,note_on,30,0,1,,,,,,,,,0,,,70,0
720,note_on,0,0,1,,,,,,,,,0,,,68,60
810,note_on,90,0,1,,,,,,,,,0,,,68,0
810,note_on,0,0,1,,,,,,,,,0,,,70,60
825,control_change,345,0,5,,,,,,,,,0,64,0,,
840,control_change,15,0,5,,,,,,,,,0,64,127,,
840,note_on,0,0,4,,,,,,,,,0,,,43,60
840,note_on,0,0,4,,,,,,,,,0,,,52,60
840,note_on,30,0,1,,,,,,,,,0,,,70,0
840,note_on,360,0,4,,,,,,,,,0,,,56,0
840,note_on,0,0,1,,,,,,,,,0,,,67,60
930,note_on,0,0,1,,,,,,,,,0,,,68,60
930,note_on,90,0,1,,,,,,,,,0,,,67,0
945,control_change,105,0,5,,,,,,,,,0,64,0,,
960,note_on,30,0,1,,,,,,,,,0,,,68,0
960,note_on,0,0,1,,,,,,,,,0,,,65,60
960,note_on,120,0,4,,,,,,,,,0,,,43,0
960,note_on,0,0,4,,,,,,,,,0,,,52,0
960,note_on,0,0,4,,,,,,,,,0,,,48,0
960,note_on,0,0,4,,,,,,,,,0,,,44,60
960,note_on,0,0,4,,,,,,,,,0,,,53,60
960,control_change,15,0,5,,,,,,,,,0,64,127,,
1050,note_on,90,0,1,,,,,,,,,0,,,65,0
1050,note_on,0,0,1,,,,,,,,,0,,,66,60
1080,note_on,0,0,1,,,,,,,,,0,,,63,60
1080,note_on,30,0,1,,,,,,,,,0,,,66,0
1080,note_on,120,0,4,,,,,,,,,0,,,44,0
1080,note_on,0,0,4,,,,,,,,,0,,,45,60
1080,control_change,120,0,5,,,,,,,,,0,64,0,,
1170,note_on,90,0,1,,,,,,,,,0,,,63,0
1170,note_on,0,0,1,,,,,,,,,0,,,65,60
1200,note_on,120,0,4,,,,,,,,,0,,,45,0
1200,note_on,30,0,1,,,,,,,,,0,,,65,0
1200,note_on,0,0,1,,,,,,,,,0,,,61,60
1200,note_on,0,0,4,,,,,,,,,0,,,46,60
1290,note_on,90,0,1,,,,,,,,,0,,,61,0
1290,note_on,0,0,1,,,,,,,,,0,,,63,60
1320,note_on,120,0,4,,,,,,,,,0,,,46,0
1320,note_on,30,0,1,,,,,,,,,0,,,63,0
1320,note_on,0,0,1,,,,,,,,,0,,,60,60
1320,note_on,0,0,4,,,,,,,,,0,,,48,60
1410,note_on,0,0,1,,,,,,,,,0,,,61,60
1410,note_on,90,0,1,,,,,,,,,0,,,60,0
1440,note_on,0,0,4,,,,,,,,,0,,,49,60
1440,note_on,0,0,4,,,,,,,,,0,,,53,60
1440,note_on,0,0,4,,,,,,,,,0,,,53,0
1440,note_on,120,0,4,,,,,,,,,0,,,48,0
1440,note_on,1440,0,2,,,,,,,,,0,,,58,60
1440,note_on,30,0,1,,,,,,,,,0,,,61,0
1530,note_on,0,0,2,,,,,,,,,0,,,60,68
1530,note_on,90,0,2,,,,,,,,,0,,,58,0
1560,note_on,30,0,2,,,,,,,,,0,,,60,0
1560,note_on,0,0,2,,,,,,,,,0,,,56,70
1560,note_on,120,0,4,,,,,,,,,0,,,49,0
1560,note_on,0,0,4,,,,,,,,,0,,,48,70
1650,note_on,90,0,2,,,,,,,,,0,,,56,0
1650,note_on,0,0,2,,,,,,,,,0,,,58,79
1680,note_on,120,0,4,,,,,,,,,0,,,48,0
1680,note_on,0,0,4,,,,,,,,,0,,,53,0
1680,note_on,0,0,4,,,,,,,,,0,,,41,0
1680,note_on,0,0,4,,,,,,,,,0,,,49,81
1680,note_on,0,0,4,,,,,,,,,0,,,46,81
1680,note_on,30,0,2,,,,,,,,,0,,,58,0
1680,note_on,0,0,2,,,,,,,,,0,,,54,81
1770,note_on,0,0,2,,,,,,,,,0,,,56,89
1770,note_on,90,0,2,,,,,,,,,0,,,54,0
1800,note_on,30,0,2,,,,,,,,,0,,,56,0
1800,note_on,0,0,4,,,,,,,,,0,,,44,92
1800,note_on,0,0,2,,,,,,,,,0,,,53,92
1800,note_on,0,0,4,,,,,,,,,0,,,49,0
1800,note_on,120,0,4,,,,,,,,,0,,,46,0
1800,note_on,0,0,4,,,,,,,,,0,,,48,92
1890,note_on,90,0,2,,,,,,,,,0,,,53,0
1890,note_on,0,0,2,,,,,,,,,0,,,55,100
1920,note_on,120,0,4,,,,,,,,,0,,,44,0
1920,note_on,0,0,4,,,,,,,,,0,,,43,100
1920,note_on,0,0,4,,,,,,,,,0,,,46,100
1920,note_on,30,0,2,,,,,,,,,0,,,55,0
1920,note_on,0,0,4,,,,,,,,,0,,,48,0
1920,note_on,0,0,2,,,,,,,,,0,,,52,100
1950,note_on,30,0,2,,,,,,,,,0,,,52,0
1950,note_on,0,0,4,,,,,,,,,0,,,46,0
1950,note_on,30,0,4,,,,,,,,,0,,,43,0
2040,note_on,0,0,4,,,,,,,,,0,,,58,110
2040,note_on,0,0,4,,,,,,,,,0,,,52,110
2040,note_on,90,0,4,,,,,,,,,0,,,61,110
2040,note_on,600,0,1,,,,,,,,,0,,,73,110
2040,note_on,0,0,1,,,,,,,,,0,,,70,110
2040,note_on,0,0,1,,,,,,,,,0,,,67,110
2040,note_on,0,0,4,,,,,,,,,0,,,55,110
2070,note_on,0,0,1,,,,,,,,,0,,,70,0
2070,note_on,30,0,4,,,,,,,,,0,,,52,0
2070,note_on,0,0,1,,,,,,,,,0,,,73,0
2070,note_on,0,0,4,,,,,,,,,0,,,61,0
2070,note_on,30,0,1,,,,,,,,,0,,,67,0
2070,note_on,0,0,4,,,,,,,,,0,,,58,0
2070,note_on,0,0,4,,,,,,,,,0,,,55,0
2235,note_on,165,0,1,,,,,,,,,0,,,72,60
2250,note_on,0,0,1,,,,,,,,,0,,,73,60
2250,note_on,15,0,1,,,,,,,,,0,,,72,0
2265,note_on,0,0,1,,,,,,,,,0,,,75,60
2265,note_on,15,0,1,,,,,,,,,0,,,73,0
2280,note_on,0,0,1,,,,,,,,,0,,,73,60
2280,note_on,15,0,1,,,,,,,,,0,,,75,0
2370,note_on,90,0,1,,,,,,,,,0,,,73,0
2370,note_on,0,0,1,,,,,,,,,0,,,72,60
2400,note_on,30,0,1,,,,,,,,,0,,,72,0
2400,note_on,0,0,1,,,,,,,,,0,,,72,60
2400,note_on,0,0,4,,,,,,,,,0,,,53,60
2400,note_on,330,0,4,,,,,,,,,0,,,56,60
2400,set_tempo,2400,1,0,,,,,,500042,,,,,,,
2414,set_tempo,14,1,0,,,,,,501295,,,,,,,
2428,set_tempo,14,1,0,,,,,,502555,,,,,,,
2442,set_tempo,14,1,0,,,,,,503821,,,,,,,
2449,set_tempo,7,1,0,,,,,,505093,,,,,,,
2463,set_tempo,14,1,0,,,,,,506372,,,,,,,
2477,set_tempo,14,1,0,,,,,,507657,,,,,,,
2484,set_tempo,7,1,0,,,,,,508949,,,,,,,
2498,set_tempo,14,1,0,,,,,,510247,,,,,,,
2512,set_tempo,14,1,0,,,,,,511553,,,,,,,
2520,note_on,0,0,4,,,,,,,,,0,,,56,0
2520,note_on,0,0,1,,,,,,,,,0,,,77,70
2520,note_on,120,0,1,,,,,,,,,0,,,72,0
2520,note_on,120,0,4,,,,,,,,,0,,,53,0
2527,set_tempo,15,1,0,,,,,,512864,,,,,,,
2534,set_tempo,7,1,0,,,,,,514183,,,,,,,
2548,set_tempo,14,1,0,,,,,,515508,,,,,,,
2562,set_tempo,14,1,0,,,,,,516840,,,,,,,
2569,set_tempo,7,1,0,,,,,,518179,,,,,,,
2583,set_tempo,14,1,0,,,,,,519526,,,,,,,
2597,set_tempo,14,1,0,,,,,,520879,,,,,,,
2611,set_tempo,14,1,0,,,,,,522239,,,,,,,
2618,set_tempo,7,1,0,,,,,,523606,,,,,,,
2632,set_tempo,14,1,0,,,,,,524980,,,,,,,
2640,note_on,120,0,4,,,,,,,,,0,,,46,60
2640,note_on,0,0,4,,,,,,,,,0,,,49,60
2640,note_on,0,0,4,,,,,,,,,0,,,55,60
2647,set_tempo,15,1,0,,,,,,526362,,,,,,,
2654,set_tempo,7,1,0,,,,,,527751,,,,,,,
2668,set_tempo,14,1,0,,,,,,529147,,,,,,,
2680,note_on,160,0,1,,,,,,,,,0,,,77,0
2680,note_on,0,0,1,,,,,,,,,0,,,67,60
2682,set_tempo,14,1,0,,,,,,530551,,,,,,,
2696,set_tempo,14,1,0,,,,,,531962,,,,,,,
2703,set_tempo,7,1,0,,,,,,533381,,,,,,,
2717,set_tempo,14,1,0,,,,,,534807,,,,,,,
2720,note_on,40,0,1,,,,,,,,,0,,,67,0
2720,note_on,0,0,1,,,,,,,,,0,,,70,60
2731,set_tempo,14,1,0,,,,,,536241,,,,,,,
2738,set_tempo,7,1,0,,,,,,537683,,,,,,,
2752,set_tempo,14,1,0,,,,,,539132,,,,,,,
2760,note_on,120,0,4,,,,,,,,,0,,,55,0
2760,note_on,0,0,4,,,,,,,,,0,,,46,0
2760,note_on,0,0,1,,,,,,,,,0,,,73,60
2760,note_on,40,0,1,,,,,,,,,0,,,70,0
2760,note_on,0,0,4,,,,,,,,,0,,,49,0
2767,set_tempo,15,1,0,,,,,,540589,,,,,,,
2774,set_tempo,7,1,0,,,,,,542054,,,,,,,
2788,set_tempo,14,1,0,,,,,,543527,,,,,,,
2800,note_on,40,0,1,,,,,,,,,0,,,73,0
2800,note_on,0,0,1,,,,,,,,,0,,,70,60
2802,set_tempo,14,1,0,,,,,,545009,,,,,,,
2816,set_tempo,14,1,0,,,,,,546498,,,,,,,
2823,set_tempo,7,1,0,,,,,,547995,,,,,,,
2837,set_tempo,14,1,0,,,,,,549501,,,,,,,
2840,note_on,40,0,1,,,,,,,,,0,,,70,0
2840,note_on,0,0,1,,,,,,,,,0,,,67,60
2851,set_tempo,14,1,0,,,,,,551015,,,,,,,
2858,set_tempo,7,1,0,,,,,,552537,,,,,,,
2872,set_tempo,14,1,0,,,,,,554068,,,,,,,
2880,note_on,120,0,4,,,,,,,,,0,,,48,70
2880,note_on,0,0,1,,,,,,,,,0,,,65,70
2880,note_on,40,0,1,,,,,,,,,0,,,67,0
2887,set_tempo,15,1,0,,,,,,555607,,,,,,,
2901,set_tempo,14,1,0,,,,,,557155,,,,,,,
2908,set_tempo,7,1,0,,,,,,558711,,,,,,,
2920,note_on,40,0,4,,,,,,,,,0,,,53,60
2922,set_tempo,14,1,0,,,,,,560276,,,,,,,
2936,set_tempo,14,1,0,,,,,,561850,,,,,,,
2943,set_tempo,7,1,0,,,,,,563433,,,,,,,
2957,set_tempo,14,1,0,,,,,,565025,,,,,,,
2960,note_on,0,0,4,,,,,,,,,0,,,56,60
2960,note_on,40,0,4,,,,,,,,,0,,,53,0
2971,set_tempo,14,1,0,,,,,,566626,,,,,,,
2985,set_tempo,14,1,0,,,,,,568236,,,,,,,
2992,set_tempo,7,1,0,,,,,,569855,,,,,,,
3000,note_on,0,0,4,,,,,,,,,0,,,60,60
3000,note_on,40,0,4,,,,,,,,,0,,,56,0
3007,set_tempo,15,1,0,,,,,,571483,,,,,,,
3021,set_tempo,14,1,0,,,,,,573121,,,,,,,
3028,set_tempo,7,1,0,,,,,,574768,,,,,,,
3040,note_on,40,0,4,,,,,,,,,0,,,60,0
3040,note_on,0,0,4,,,,,,,,,0,,,58,60
3042,set_tempo,14,1,0,,,,,,576424,,,,,,,
3056,set_tempo,14,1,0,,,,,,578090,,,,,,,
3063,set_tempo,7,1,0,,,,,,579766,,,,,,,
3077,set_tempo,14,1,0,,,,,,581452,,,,,,,
3080,note_on,0,0,4,,,,,,,,,0,,,56,60
3080,note_on,40,0,4,,,,,,,,,0,,,58,0
3091,set_tempo,14,1,0,,,,,,583147,,,,,,,
3105,set_tempo,14,1,0,,,,,,584852,,,,,,,
3112,set_tempo,7,1,0,,,,,,586568,,,,,,,
3120,note_on,240,0,1,,,,,,,,,0,,,65,0
3120,note_on,0,0,1,,,,,,,,,0,,,64,70
3120,note_on,40,0,4,,,,,,,,,0,,,56,0
3120,note_on,0,0,4,,,,,,,,,0,,,55,60
3127,set_tempo,15,1,0,,,,,,588293,,,,,,,
3141,set_tempo,14,1,0,,,,,,590029,,,,,,,
3148,set_tempo,7,1,0,,,,,,591774,,,,,,,
3150,note_on,30,0,4,,,,,,,,,0,,,55,0
3150,note_on,30,0,1,,,,,,,,,0,,,64,0
3162,set_tempo,14,1,0,,,,,,593531,,,,,,,
3176,set_tempo,14,1,0,,,,,,595297,,,,,,,
3180,note_on,30,0,1,,,,,,,,,0,,,78,71
3180,note_on,30,0,4,,,,,,,,,0,,,48,0
3190,set_tempo,14,1,0,,,,,,597074,,,,,,,
3197,set_tempo,7,1,0,,,,,,598862,,,,,,,
3210,note_on,30,0,1,,,,,,,,,0,,,78,0
3210,note_on,0,0,1,,,,,,,,,0,,,79,77
3211,set_tempo,14,1,0,,,,,,600661,,,,,,,
3225,set_tempo,14,1,0,,,,,,602470,,,,,,,
3232,set_tempo,7,1,0,,,,,,604290,,,,,,,
3240,note_on,30,0,1,,,,,,,,,0,,,79,0
3240,note_on,0,0,1,,,,,,,,,0,,,80,83
3247,set_tempo,15,1,0,,,,,,606122,,,,,,,
3261,set_tempo,14,1,0,,,,,,607964,,,,,,,
3270,note_on,30,0,1,,,,,,,,,0,,,80,0
3270,note_on,0,0,1,,,,,,,,,0,,,81,89
3275,set_tempo,14,1,0,,,,,,609818,,,,,,,
3282,set_tempo,7,1,0,,,,,,611683,,,,,,,
3296,set_tempo,14,1,0,,,,,,613560,,,,,,,
3300,note_on,0,0,1,,,,,,,,,0,,,82,95
3300,note_on,30,0,1,,,,,,,,,0,,,81,0
3310,set_tempo,14,1,0,,,,,,615448,,,,,,,
3317,set_tempo,7,1,0,,,,,,617347,,,,,,,
3330,note_on,0,0,1,,,,,,,,,0,,,83,100
3330,note_on,30,0,1,,,,,,,,,0,,,82,0
3331,set_tempo,14,1,0,,,,,,619259,,,,,,,
3345,set_tempo,14,1,0,,,,,,621182,,,,,,,
3352,set_tempo,7,1,0,,,,,,623118,,,,,,,
3360,note_on,180,0,4,,,,,,,,,0,,,56,100
3360,note_on,0,0,4,,,,,,,,,0,,,48,100
3360,control_change,2280,0,5,,,,,,,,,0,64,127,,
3360,note_on,0,0,1,,,,,,,,,0,,,72,100
3360,note_on,30,0,1,,,,,,,,,0,,,83,0
3360,note_on,0,0,4,,,,,,,,,0,,,41,100
3360,set_tempo,8,1,0,,,,,,500000,,,,,,,
3375,note_on,0,0,1,,,,,,,,,0,,,77,100
3375,note_on,15,0,1,,,,,,,,,0,,,72,0
3390,note_on,15,0,1,,,,,,,,,0,,,77,0
3390,note_on,0,0,1,,,,,,,,,0,,,80,100
3405,note_on,15,0,1,,,,,,,,,0,,,80,0
3405,note_on,0,0,1,,,,,,,,,0,,,84,100
3570,note_on,165,0,1,,,,,,,,,0,,,84,0
3570,note_on,0,0,1,,,,,,,,,0,,,82,60
3600,note_on,0,0,1,,,,,,,,,0,,,80,60
3600,note_on,30,0,1,,,,,,,,,0,,,82,0
3612,note_on,0,0,1,,,,,,,,,0,,,82,60
3612,note_on,12,0,1,,,,,,,,,0,,,80,0
3624,note_on,0,0,1,,,,,,,,,0,,,80,60
3624,note_on,12,0,1,,,,,,,,,0,,,82,0
3636,note_on,0,0,1,,,,,,,,,0,,,79,60
3636,note_on,12,0,1,,,,,,,,,0,,,80,0
3648,note_on,12,0,1,,,,,,,,,0,,,79,0
3648,note_on,0,0,1,,,,,,,,,0,,,80,60
3690,note_on,0,0,1,,,,,,,,,0,,,82,60
3690,note_on,42,0,1,,,,,,,,,0,,,80,0
3705,control_change,345,0,5,,,,,,,,,0,64,0,,
3720,note_on,30,0,1,,,,,,,,,0,,,82,0
3720,note_on,0,0,1,,,,,,,,,0,,,79,60
3720,note_on,360,0,4,,,,,,,,,0,,,56,0
3720,note_on,0,0,4,,,,,,,,,0,,,52,60
3720,control_change,15,0,5,,,,,,,,,0,64,127,,
3720,note_on,0,0,4,,,,,,,,,0,,,43,60
3732,note_on,12,0,1,,,,,,,,,0,,,79,0
3732,note_on,0,0,1,,,,,,,,,0,,,80,60
3744,note_on,12,0,1,,,,,,,,,0,,,80,0
3744,note_on,0,0,1,,,,,,,,,0,,,79,60
3756,note_on,0,0,1,,,,,,,,,0,,,77,60
3756,note_on,12,0,1,,,,,,,,,0,,,79,0
3768,note_on,12,0,1,,,,,,,,,0,,,77,0
3768,note_on,0,0,1,,,,,,,,,0,,,79,60
3810,note_on,42,0,1,,,,,,,,,0,,,79,0
3810,note_on,0,0,1,,,,,,,,,0,,,80,60
3825,control_change,105,0,5,,,,,,,,,0,64,0,,
3840,note_on,30,0,1,,,,,,,,,0,,,80,0
3840,control_change,15,0,5,,,,,,,,,0,64,127,,
3840,note_on,0,0,1,,,,,,,,,0,,,77,60
3840,note_on,120,0,4,,,,,,,,,0,,,43,0
3840,note_on,0,0,4,,,,,,,,,0,,,52,0
3840,note_on,0,0,4,,,,,,,,,0,,,48,0
3840,note_on,0,0,4,,,,,,,,,0,,,44,60
3840,note_on,0,0,4,,,,,,,,,0,,,53,60
3852,note_on,0,0,1,,,,,,,,,0,,,79,60
3852,note_on,12,0,1,,,,,,,,,0,,,77,0
3864,note_on,0,0,1,,,,,,,,,0,,,77,60
3864,note_on,12,0,1,,,,,,,,,0,,,79,0
3876,note_on,12,0,1,,,,,,,,,0,,,77,0
3876,note_on,0,0,1,,,,,,,,,0,,,76,60
3888,note_on,0,0,1,,,,,,,,,0,,,77,60
3888,note_on,12,0,1,,,,,,,,,0,,,76,0
3930,note_on,0,0,1,,,,,,,,,0,,,78,60
3930,note_on,42,0,1,,,,,,,,,0,,,77,0
3960,note_on,30,0,1,,,,,,,,,0,,,78,0
3960,control_change,120,0,5,,,,,,,,,0,64,0,,
3960,note_on,0,0,4,,,,,,,,,0,,,45,60
3960,note_on,120,0,4,,,,,,,,,0,,,44,0
3960,note_on,0,0,1,,,,,,,,,0,,,75,60
3972,note_on,0,0,1,,,,,,,,,0,,,77,60
3972,note_on,12,0,1,,,,,,,,,0,,,75,0
3984,note_on,12,0,1,,,,,,,,,0,,,77,0
3984,note_on,0,0,1,,,,,,,,,0,,,75,60
3996,note_on,12,0,1,,,,,,,,,0,,,75,0
3996,note_on,0,0,1,,,,,,,,,0,,,74,60
4008,note_on,12,0,1,,,,,,,,,0,,,74,0
4008,note_on,0,0,1,,,,,,,,,0,,,75,60
4050,note_on,42,0,1,,,,,,,,,0,,,75,0
4050,note_on,0,0,1,,,,,,,,,0,,,77,60
4080,note_on,30,0,1,,,,,,,,,0,,,77,0
4080,note_on,0,0,1,,,,,,,,,0,,,73,60
4080,note_on,120,0,4,,,,,,,,,0,,,45,0
4080,note_on,0,0,4,,,,,,,,,0,,,46,60
4092,note_on,12,0,1,,,,,,,,,0,,,73,0
4092,note_on,0,0,1,,,,,,,,,0,,,75,60
4104,note_on,12,0,1,,,,,,,,,0,,,75,0
4104,note_on,0,0,1,,,,,,,,,0,,,73,60
4116,note_on,12,0,1,,,,,,,,,0,,,73,0
4116,note_on,0,0,1,,,,,,,,,0,,,72,60
4128,note_on,12,0,1,,,,,,,,,0,,,72,0
4128,note_on,0,0,1,,,,,,,,,0,,,73,60
4170,note_on,42,0,1,,,,,,,,,0,,,73,0
4170,note_on,0,0,1,,,,,,,,,0,,,75,60
4200,note_on,0,0,4,,,,,,,,,0,,,48,60
4200,note_on,120,0,4,,,,,,,,,0,,,46,0
4200,note_on,30,0,1,,,,,,,,,0,,,75,0
4200,note_on,0,0,1,,,,,,,,,0,,,72,60
4212,note_on,12,0,1,,,,,,,,,0,,,72,0
4212,note_on,0,0,1,,,,,,,,,0,,,73,60
4224,note_on,0,0,1,,,,,,,,,0,,,72,60
4224,note_on,12,0,1,,,,,,,,,0,,,73,0
4236,note_on,12,0,1,,,,,,,,,0,,,72,0
4236,note_on,0,0,1,,,,,,,,,0,,,71,60
4248,note_on,0,0,1,,,,,,,,,0,,,72,60
4248,note_on,12,0,1,,,,,,,,,0,,,71,0
4290,note_on,0,0,1,,,,,,,,,0,,,73,60
4290,note_on,42,0,1,,,,,,,,,0,,,72,0
4320,note_on,0,0,1,,,,,,,,,0,,,70,60
4320,note_on,30,0,1,,,,,,,,,0,,,73,0
4320,note_on,120,0,4,,,,,,,,,0,,,48,0
4320,note_on,0,0,4,,,,,,,,,0,,,49,60
4350,note_on,0,0,1,,,,,,,,,0,,,73,62
4350,note_on,30,0,1,,,,,,,,,0,,,70,0
4380,note_on,30,0,1,,,,,,,,,0,,,73,0
4380,note_on,0,0,1,,,,,,,,,0,,,70,65
4380,note_on,60,0,4,,,,,,,,,0,,,49,0
4380,note_on,0,0,4,,,,,,,,,0,,,53,0
4380,note_on,0,0,4,,,,,,,,,0,,,41,0
4380,note_on,0,0,4,,,,,,,,,0,,,53,65
4380,note_on,0,0,4,,,,,,,,,0,,,49,65
4410,note_on,30,0,1,,,,,,,,,0,,,70,0
4410,note_on,0,0,1,,,,,,,,,0,,,73,68
4410,note_on,30,0,4,,,,,,,,,0,,,49,0
4410,note_on,0,0,4,,,,,,,,,0,,,53,0
4440,note_on,0,0,4,,,,,,,,,0,,,51,70
4440,note_on,30,0,4,,,,,,,,,0,,,48,70
4440,note_on,0,0,1,,,,,,,,,0,,,68,70
4440,note_on,30,0,1,,,,,,,,,0,,,73,0
4470,note_on,30,0,4,,,,,,,,,0,,,51,0
4470,note_on,0,0,4,,,,,,,,,0,,,48,0
4470,note_on,0,0,1,,,,,,,,,0,,,73,73
4470,note_on,30,0,1,,,,,,,,,0,,,68,0
4500,note_on,0,0,4,,,,,,,,,0,,,48,76
4500,note_on,0,0,1,,,,,,,,,0,,,68,76
4500,note_on,30,0,1,,,,,,,,,0,,,73,0
4500,note_on,30,0,4,,,,,,,,,0,,,51,76
4530,note_on,30,0,4,,,,,,,,,0,,,48,0
4530,note_on,0,0,4,,,,,,,,,0,,,51,0
4530,note_on,0,0,1,,,,,,,,,0,,,73,79
4530,note_on,30,0,1,,,,,,,,,0,,,68,0
4560,note_on,30,0,4,,,,,,,,,0,,,46,81
4560,note_on,0,0,4,,,,,,,,,0,,,49,81
4560,note_on,0,0,1,,,,,,,,,0,,,66,81
4560,note_on,30,0,1,,,,,,,,,0,,,73,0
4590,note_on,30,0,1,,,,,,,,,0,,,66,0
4590,note_on,0,0,1,,,,,,,,,0,,,73,84
4590,note_on,30,0,4,,,,,,,,,0,,,49,0
4590,note_on,0,0,4,,,,,,,,,0,,,46,0
4620,note_on,30,0,4,,,,,,,,,0,,,49,87
4620,note_on,0,0,4,,,,,,,,,0,,,46,87
4620,note_on,30,0,1,,,,,,,,,0,,,73,0
4620,note_on,0,0,1,,,,,,,,,0,,,66,87
4650,note_on,30,0,4,,,,,,,,,0,,,46,0
4650,note_on,0,0,4,,,,,,,,,0,,,49,0
4650,note_on,0,0,1,,,,,,,,,0,,,73,89
4650,note_on,30,0,1,,,,,,,,,0,,,66,0
4680,note_on,30,0,1,,,,,,,,,0,,,73,0
4680,note_on,30,0,4,,,,,,,,,0,,,44,92
4680,note_on,0,0,4,,,,,,,,,0,,,48,92
4680,note_on,0,0,1,,,,,,,,,0,,,65,92
4710,note_on,30,0,1,,,,,,,,,0,,,65,0
4710,note_on,0,0,1,,,,,,,,,0,,,73,95
4710,note_on,0,0,4,,,,,,,,,0,,,44,0
4710,note_on,30,0,4,,,,,,,,,0,,,48,0
4740,note_on,0,0,4,,,,,,,,,0,,,44,98
4740,note_on,30,0,4,,,,,,,,,0,,,48,98
4740,note_on,0,0,1,,,,,,,,,0,,,65,98
4740,note_on,30,0,1,,,,,,,,,0,,,73,0
4770,note_on,0,0,1,,,,,,,,,0,,,73,100
4770,note_on,30,0,1,,,,,,,,,0,,,65,0
4770,note_on,0,0,4,,,,,,,,,0,,,48,0
4770,note_on,30,0,4,,,,,,,,,0,,,44,0
4800,note_on,0,0,1,,,,,,,,,0,,,64,100
4800,note_on,30,0,4,,,,,,,,,0,,,43,100
4800,note_on,30,0,1,,,,,,,,,0,,,73,0
4800,note_on,0,0,4,,,,,,,,,0,,,46,100
4830,note_on,30,0,1,,,,,,,,,0,,,64,0
4830,note_on,0,0,4,,,,,,,,,0,,,43,0
4830,note_on,30,0,4,,,,,,,,,0,,,46,0
4920,note_on,0,0,4,,,,,,,,,0,,,55,110
4920,note_on,0,0,1,,,,,,,,,0,,,82,110
4920,note_on,0,0,1,,,,,,,,,0,,,79,110
4920,note_on,0,0,4,,,,,,,,,0,,,52,110
4920,note_on,0,0,4,,,,,,,,,0,,,58,110
4920,note_on,90,0,4,,,,,,,,,0,,,61,110
4920,note_on,90,0,1,,,,,,,,,0,,,85,110
4950,note_on,30,0,1,,,,,,,,,0,,,79,0
4950,note_on,0,0,4,,,,,,,,,0,,,55,0
4950,note_on,0,0,4,,,,,,,,,0,,,61,0
4950,note_on,0,0,4,,,,,,,,,0,,,58,0
4950,note_on,0,0,1,,,,,,,,,0,,,82,0
4950,note_on,30,0,4,,,,,,,,,0,,,52,0
4950,note_on,0,0,1,,,,,,,,,0,,,85,0
5115,note_on,165,0,1,,,,,,,,,0,,,72,60
5130,note_on,15,0,1,,,,,,,,,0,,,72,0
5130,note_on,0,0,1,,,,,,,,,0,,,73,60
5145,note_on,0,0,1,,,,,,,,,0,,,75,60
5145,note_on,15,0,1,,,,,,,,,0,,,73,0
5160,note_on,15,0,1,,,,,,,,,0,,,75,0
5160,note_on,0,0,1,,,,,,,,,0,,,73,60
5250,note_on,90,0,1,,,,,,,,,0,,,73,0
5250,note_on,0,0,1,,,,,,,,,0,,,72,60
5280,set_tempo,1920,1,0,,,,,,500042,,,,,,,
5280,note_on,330,0,4,,,,,,,,,0,,,56,60
5280,note_on,30,0,1,,,,,,,,,0,,,72,0
5280,note_on,0,0,1,,,,,,,,,0,,,72,60
5280,note_on,0,0,4,,,,,,,,,0,,,53,60
5294,set_tempo,14,1,0,,,,,,501295,,,,,,,
5308,set_tempo,14,1,0,,,,,,502555,,,,,,,
5320,note_on,0,0,1,,,,,,,,,0,,,80,70
5320,note_on,40,0,1,,,,,,,,,0,,,72,0
5322,set_tempo,14,1,0,,,,,,503821,,,,,,,
5329,set_tempo,7,1,0,,,,,,505093,,,,,,,
5343,set_tempo,14,1,0,,,,,,506372,,,,,,,
5357,set_tempo,14,1,0,,,,,,507657,,,,,,,
5360,note_on,40,0,1,,,,,,,,,0,,,80,0
5360,note_on,0,0,1,,,,,,,,,0,,,79,60
5364,set_tempo,7,1,0,,,,,,508949,,,,,,,
5378,set_tempo,14,1,0,,,,,,510247,,,,,,,
5392,set_tempo,14,1,0,,,,,,511553,,,,,,,
5400,note_on,0,0,4,,,,,,,,,0,,,56,0
5400,note_on,120,0,4,,,,,,,,,0,,,53,0
5400,note_on,40,0,1,,,,,,,,,0,,,79,0
5400,note_on,0,0,1,,,,,,,,,0,,,77,60
5407,set_tempo,15,1,0,,,,,,512864,,,,,,,
5414,set_tempo,7,1,0,,,,,,514183,,,,,,,
5428,set_tempo,14,1,0,,,,,,515508,,,,,,,
5440,note_on,0,0,1,,,,,,,,,0,,,72,60
5440,note_on,40,0,1,,,,,,,,,0,,,77,0
5442,set_tempo,14,1,0,,,,,,516840,,,,,,,
5449,set_tempo,7,1,0,,,,,,518179,,,,,,,
5463,set_tempo,14,1,0,,,,,,519526,,,,,,,
5477,set_tempo,14,1,0,,,,,,520879,,,,,,,
5480,note_on,0,0,1,,,,,,,,,0,,,68,60
5480,note_on,40,0,1,,,,,,,,,0,,,72,0
5491,set_tempo,14,1,0,,,,,,522239,,,,,,,
5498,set_tempo,7,1,0,,,,,,523606,,,,,,,
5512,set_tempo,14,1,0,,,,,,524980,,,,,,,
5520,note_on,0,0,4,,,,,,,,,0,,,46,60
5520,note_on,0,0,4,,,,,,,,,0,,,49,60
5520,note_on,40,0,1,,,,,,,,,0,,,68,0
5520,note_on,0,0,1,,,,,,,,,0,,,67,60
5520,note_on,120,0,4,,,,,,,,,0,,,55,60
5527,set_tempo,15,1,0,,,,,,526362,,,,,,,
5534,set_tempo,7,1,0,,,,,,527751,,,,,,,
5548,set_tempo,14,1,0,,,,,,529147,,,,,,,
5560,note_on,0,0,1,,,,,,,,,0,,,75,70
5560,note_on,40,0,1,,,,,,,,,0,,,67,0
5562,set_tempo,14,1,0,,,,,,530551,,,,,,,
5576,set_tempo,14,1,0,,,,,,531962,,,,,,,
5583,set_tempo,7,1,0,,,,,,533381,,,,,,,
5597,set_tempo,14,1,0,,,,,,534807,,,,,,,
5600,note_on,40,0,1,,,,,,,,,0,,,75,0
5600,note_on,0,0,1,,,,,,,,,0,,,72,60
5611,set_tempo,14,1,0,,,,,,536241,,,,,,,
5618,set_tempo,7,1,0,,,,,,537683,,,,,,,
5632,set_tempo,14,1,0,,,,,,539132,,,,,,,
5640,note_on,120,0,4,,,,,,,,,0,,,46,0
5640,note_on,0,0,4,,,,,,,,,0,,,55,0
5640,note_on,0,0,1,,,,,,,,,0,,,73,60
5640,note_on,40,0,1,,,,,,,,,0,,,72,0
5640,note_on,0,0,4,,,,,,,,,0,,,49,0
5647,set_tempo,15,1,0,,,,,,540589,,,,,,,
5654,set_tempo,7,1,0,,,,,,542054,,,,,,,
5668,set_tempo,14,1,0,,,,,,543527,,,,,,,
5680,note_on,0,0,1,,,,,,,,,0,,,70,60
5680,note_on,40,0,1,,,,,,,,,0,,,73,0
5682,set_tempo,14,1,0,,,,,,545009,,,,,,,
5696,set_tempo,14,1,0,,,,,,546498,,,,,,,
5703,set_tempo,7,1,0,,,,,,547995,,,,,,,
5717,set_tempo,14,1,0,,,,,,549501,,,,,,,
5720,note_on,40,0,1,,,,,,,,,0,,,70,0
5720,note_on,0,0,1,,,,,,,,,0,,,67,60
5731,set_tempo,14,1,0,,,,,,551015,,,,,,,
5738,set_tempo,7,1,0,,,,,,552537,,,,,,,
5752,set_tempo,14,1,0,,,,,,554068,,,,,,,
5760,note_on,120,0,4,,,,,,,,,0,,,56,60
5760,note_on,0,0,4,,,,,,,,,0,,,53,60
5760,note_on,0,0,4,,,,,,,,,0,,,48,60
5760,note_on,0,0,1,,,,,,,,,0,,,65,60
5760,note_on,40,0,1,,,,,,,,,0,,,67,0
5767,set_tempo,15,1,0,,,,,,555607,,,,,,,
5781,set_tempo,14,1,0,,,,,,557155,,,,,,,
5788,set_tempo,7,1,0,,,,,,558711,,,,,,,
5790,note_on,0,0,4,,,,,,,,,0,,,56,0
5790,note_on,0,0,4,,,,,,,,,0,,,53,0
5790,note_on,30,0,4,,,,,,,,,0,,,48,0
5800,note_on,40,0,1,,,,,,,,,0,,,65,0
5800,note_on,0,0,1,,,,,,,,,0,,,60,63
5802,set_tempo,14,1,0,,,,,,560276,,,,,,,
5816,set_tempo,14,1,0,,,,,,561850,,,,,,,
5823,set_tempo,7,1,0,,,,,,563433,,,,,,,
5837,set_tempo,14,1,0,,,,,,565025,,,,,,,
5840,note_on,40,0,1,,,,,,,,,0,,,60,0
5840,note_on,0,0,1,,,,,,,,,0,,,65,67
5851,set_tempo,14,1,0,,,,,,566626,,,,,,,
5865,set_tempo,14,1,0,,,,,,568236,,,,,,,
5872,set_tempo,7,1,0,,,,,,569855,,,,,,,
5880,note_on,90,0,4,,,,,,,,,0,,,56,70
5880,note_on,0,0,1,,,,,,,,,0,,,68,70
5880,note_on,40,0,1,,,,,,,,,0,,,65,0
5887,set_tempo,15,1,0,,,,,,571483,,,,,,,
5901,set_tempo,14,1,0,,,,,,573121,,,,,,,
5908,set_tempo,7,1,0,,,,,,574768,,,,,,,
5920,note_on,0,0,1,,,,,,,,,0,,,65,74
5920,note_on,40,0,1,,,,,,,,,0,,,68,0
5920,note_on,0,0,4,,,,,,,,,0,,,53,74
5920,note_on,40,0,4,,,,,,,,,0,,,56,0
5922,set_tempo,14,1,0,,,,,,576424,,,,,,,
5936,set_tempo,14,1,0,,,,,,578090,,,,,,,
5943,set_tempo,7,1,0,,,,,,579766,,,,,,,
5957,set_tempo,14,1,0,,,,,,581452,,,,,,,
5960,note_on,40,0,4,,,,,,,,,0,,,53,0
5960,note_on,40,0,1,,,,,,,,,0,,,65,0
5960,note_on,0,0,1,,,,,,,,,0,,,73,78
5960,note_on,0,0,4,,,,,,,,,0,,,61,78
5971,set_tempo,14,1,0,,,,,,583147,,,,,,,
5985,set_tempo,14,1,0,,,,,,584852,,,,,,,
5992,set_tempo,7,1,0,,,,,,586568,,,,,,,
6000,note_on,40,0,4,,,,,,,,,0,,,61,0
6000,note_on,0,0,4,,,,,,,,,0,,,60,81
6000,note_on,40,0,1,,,,,,,,,0,,,73,0
6000,note_on,0,0,1,,,,,,,,,0,,,72,81
6007,set_tempo,15,1,0,,,,,,588293,,,,,,,
6021,set_tempo,14,1,0,,,,,,590029,,,,,,,
6028,set_tempo,7,1,0,,,,,,591774,,,,,,,
6030,note_on,30,0,4,,,,,,,,,0,,,60,0
6030,note_on,30,0,1,,,,,,,,,0,,,72,0
6042,set_tempo,14,1,0,,,,,,593531,,,,,,,
6056,set_tempo,14,1,0,,,,,,595297,,,,,,,
6070,set_tempo,14,1,0,,,,,,597074,,,,,,,
6077,set_tempo,7,1,0,,,,,,598862,,,,,,,
6091,set_tempo,14,1,0,,,,,,600661,,,,,,,
6105,set_tempo,14,1,0,,,,,,602470,,,,,,,
6112,set_tempo,7,1,0,,,,,,604290,,,,,,,
6120,note_on,0,0,4,,,,,,,,,0,,,60,102
6120,note_on,0,0,1,,,,,,,,,0,,,67,102
6120,note_on,0,0,1,,,,,,,,,0,,,72,102
6120,note_on,90,0,1,,,,,,,,,0,,,76,102
6120,note_on,90,0,4,,,,,,,,,0,,,48,102
6127,set_tempo,15,1,0,,,,,,606122,,,,,,,
6141,set_tempo,14,1,0,,,,,,607964,,,,,,,
6150,note_on,0,0,1,,,,,,,,,0,,,76,0
6150,note_on,0,0,1,,,,,,,,,0,,,72,0
6150,note_on,30,0,1,,,,,,,,,0,,,67,0
6150,note_on,0,0,4,,,,,,,,,0,,,48,0
6150,note_on,30,0,4,,,,,,,,,0,,,60,0
6155,set_tempo,14,1,0,,,,,,609818,,,,,,,
6162,set_tempo,7,1,0,,,,,,611683,,,,,,,
6176,set_tempo,14,1,0,,,,,,613560,,,,,,,
6190,set_tempo,14,1,0,,,,,,615448,,,,,,,
6197,set_tempo,7,1,0,,,,,,617347,,,,,,,
6211,set_tempo,14,1,0,,,,,,619259,,,,,,,
6225,set_tempo,14,1,0,,,,,,621182,,,,,,,
6232,set_tempo,7,1,0,,,,,,623118,,,,,,,
6240,note_on,0,0,1,,,,,,,,,0,,,68,110
6240,note_on,0,0,4,,,,,,,,,0,,,53,110
6240,note_on,0,0,1,,,,,,,,,0,,,72,110
6240,note_on,90,0,1,,,,,,,,,0,,,77,110
6240,note_on,90,0,4,,,,,,,,,0,,,41,110
6240,marker,0,1,0,,,,,,,,,,,,,
6240,set_tempo,8,1,0,,,,,,500000,,,,,,,
6270,note_on,30,0,4,,,,,,,,,0,,,53,0
6270,note_on,0,0,4,,,,,,,,,0,,,41,0
6270,note_on,0,0,1,,,,,,,,,0,,,77,0
6270,note_on,0,0,1,,,,,,,,,0,,,72,0
6270,note_on,30,0,1,,,,,,,,,0,,,68,0
6300,note_on,30,0,1,,,,,,,,,0,,,68,40
6330,note_on,30,0,1,,,,,,,,,0,,,68,0
6330,note_on,0,0,1,,,,,,,,,0,,,72,40
6360,note_on,90,0,4,,,,,,,,,0,,,65,50
6360,control_change,2400,0,5,,,,,,,,,0,64,127,,
6360,note_on,30,0,1,,,,,,,,,0,,,72,0
6360,note_on,0,0,1,,,,,,,,,0,,,68,40
6360,note_on,0,0,4,,,,,,,,,0,,,53,50
6390,note_on,30,0,1,,,,,,,,,0,,,68,0
6390,note_on,0,0,1,,,,,,,,,0,,,72,40
6420,note_on,30,0,1,,,,,,,,,0,,,72,0
6420,note_on,0,0,1,,,,,,,,,0,,,68,40
6450,note_on,0,0,1,,,,,,,,,0,,,72,40
6450,note_on,30,0,1,,,,,,,,,0,,,68,0
6480,note_on,0,0,1,,,,,,,,,0,,,67,40
6480,note_on,30,0,1,,,,,,,,,0,,,72,0
6480,control_change,120,0,5,,,,,,,,,0,64,0,,
6480,note_on,0,0,4,,,,,,,,,0,,,65,0
6480,note_on,120,0,4,,,,,,,,,0,,,53,0
6510,note_on,0,0,1,,,,,,,,,0,,,71,40
6510,note_on,30,0,1,,,,,,,,,0,,,67,0
6540,note_on,30,0,1,,,,,,,,,0,,,71,0
6540,note_on,0,0,1,,,,,,,,,0,,,68,40
6570,note_on,0,0,1,,,,,,,,,0,,,72,40
6570,note_on,30,0,1,,,,,,,,,0,,,68,0
6600,note_on,120,0,4,,,,,,,,,0,,,53,50
6600,note_on,0,0,1,,,,,,,,,0,,,68,40
6600,note_on,30,0,1,,,,,,,,,0,,,72,0
6600,note_on,0,0,4,,,,,,,,,0,,,65,50
6600,control_change,120,0,5,,,,,,,,,0,64,127,,
6630,note_on,0,0,1,,,,,,,,,0,,,72,40
6630,note_on,30,0,1,,,,,,,,,0,,,68,0
6660,note_on,30,0,1,,,,,,,,,0,,,72,0
6660,note_on,0,0,1,,,,,,,,,0,,,68,40
6690,note_on,0,0,1,,,,,,,,,0,,,72,40
6690,note_on,30,0,1,,,,,,,,,0,,,68,0
6720,note_on,30,0,1,,,,,,,,,0,,,72,0
6720,note_on,0,0,4,,,,,,,,,0,,,53,0
6720,note_on,120,0,4,,,,,,,,,0,,,65,0
6720,control_change,120,0,5,,,,,,,,,0,64,0,,
6720,note_on,0,0,1,,,,,,,,,0,,,69,40
6750,note_on,0,0,1,,,,,,,,,0,,,75,40
6750,note_on,30,0,1,,,,,,,,,0,,,69,0
6780,note_on,30,0,1,,,,,,,,,0,,,75,0
6780,note_on,0,0,1,,,,,,,,,0,,,70,40
6810,note_on,30,0,1,,,,,,,,,0,,,70,0
6810,note_on,0,0,1,,,,,,,,,0,,,73,40
6840,note_on,30,0,1,,,,,,,,,0,,,73,0
6840,control_change,120,0,5,,,,,,,,,0,64,127,,
6840,note_on,0,0,4,,,,,,,,,0,,,53,50
6840,note_on,120,0,4,,,,,,,,,0,,,65,50
6840,note_on,0,0,1,,,,,,,,,0,,,70,40
6870,note_on,0,0,1,,,,,,,,,0,,,73,40
6870,note_on,30,0,1,,,,,,,,,0,,,70,0
6900,note_on,0,0,1,,,,,,,,,0,,,70,40
6900,note_on,30,0,1,,,,,,,,,0,,,73,0
6930,note_on,0,0,1,,,,,,,,,0,,,73,40
6930,note_on,30,0,1,,,,,,,,,0,,,70,0
6960,control_change,120,0,5,,,,,,,,,0,64,0,,
6960,note_on,0,0,1,,,,,,,,,0,,,73,40
6960,note_on,30,0,1,,,,,,,,,0,,,73,0
6960,note_on,120,0,4,,,,,,,,,0,,,53,0
6960,note_on,0,0,4,,,,,,,,,0,,,65,0
6990,note_on,0,0,1,,,,,,,,,0,,,77,40
6990,note_on,30,0,1,,,,,,,,,0,,,73,0
7020,note_on,0,0,1,,,,,,,,,0,,,70,40
7020,note_on,30,0,1,,,,,,,,,0,,,77,0
7050,note_on,0,0,1,,,,,,,,,0,,,73,40
7050,note_on,30,0,1,,,,,,,,,0,,,70,0
7080,note_on,30,0,1,,,,,,,,,0,,,73,0
7080,note_on,0,0,1,,,,,,,,,0,,,68,40
7080,note_on,0,0,4,,,,,,,,,0,,,65,50
7080,note_on,120,0,4,,,,,,,,,0,,,53,50
7080,control_change,120,0,5,,,,,,,,,0,64,127,,
7110,note_on,30,0,1,,,,,,,,,0,,,68,0
7110,note_on,0,0,1,,,,,,,,,0,,,73,40
7140,note_on,30,0,1,,,,,,,,,0,,,73,0
7140,note_on,0,0,1,,,,,,,,,0,,,67,40
7170,note_on,0,0,1,,,,,,,,,0,,,73,40
7170,note_on,30,0,1,,,,,,,,,0,,,67,0
7200,control_change,120,0,5,,,,,,,,,0,64,0,,
7200,note_on,0,0,4,,,,,,,,,0,,,53,0
7200,note_on,120,0,4,,,,,,,,,0,,,65,0
7200,note_on,30,0,1,,,,,,,,,0,,,73,0
7200,note_on,0,0,1,,,,,,,,,0,,,68,40
7230,note_on,0,0,1,,,,,,,,,0,,,73,40
7230,note_on,30,0,1,,,,,,,,,0,,,68,0
7260,note_on,0,0,1,,,,,,,,,0,,,68,40
7260,note_on,30,0,1,,,,,,,,,0,,,73,0
7290,note_on,30,0,1,,,,,,,,,0,,,68,0
7290,note_on,0,0,1,,,,,,,,,0,,,72,40
7320,note_on,120,0,4,,,,,,,,,0,,,65,50
7320,control_change,120,0,5,,,,,,,,,0,64,127,,
7320,note_on,0,0,1,,,,,,,,,0,,,68,40
7320,note_on,0,0,4,,,,,,,,,0,,,53,50
7320,note_on,30,0,1,,,,,,,,,0,,,72,0
7350,note_on,0,0,1,,,,,,,,,0,,,72,40
7350,note_on,30,0,1,,,,,,,,,0,,,68,0
7380,note_on,0,0,1,,,,,,,,,0,,,68,40
7380,note_on,30,0,1,,,,,,,,,0,,,72,0
7410,note_on,0,0,1,,,,,,,,,0,,,72,40
7410,note_on,30,0,1,,,,,,,,,0,,,68,0
7440,control_change,120,0,5,,,,,,,,,0,64,0,,
7440,note_on,0,0,4,,,,,,,,,0,,,65,0
7440,note_on,0,0,4,,,,,,,,,0,,,46,50
7440,note_on,120,0,4,,,,,,,,,0,,,53,0
7440,note_on,0,0,1,,,,,,,,,0,,,68,40
7440,note_on,30,0,1,,,,,,,,,0,,,72,0
7470,note_on,0,0,1,,,,,,,,,0,,,72,40
7470,note_on,30,0,1,,,,,,,,,0,,,68,0
7470,note_on,30,0,4,,,,,,,,,0,,,46,0
7500,note_on,0,0,1,,,,,,,,,0,,,66,40
7500,note_on,30,0,1,,,,,,,,,0,,,72,0
7530,note_on,0,0,1,,,,,,,,,0,,,70,40
7530,note_on,30,0,1,,,,,,,,,0,,,66,0
7560,note_on,90,0,4,,,,,,,,,0,,,58,50
7560,note_on,0,0,4,,,,,,,,,0,,,54,50
7560,note_on,0,0,1,,,,,,,,,0,,,66,40
7560,note_on,30,0,1,,,,,,,,,0,,,70,0
7590,note_on,30,0,4,,,,,,,,,0,,,54,0
7590,note_on,0,0,4,,,,,,,,,0,,,58,0
7590,note_on,0,0,1,,,,,,,,,0,,,70,40
7590,note_on,30,0,1,,,,,,,,,0,,,66,0
7620,note_on,0,0,1,,,,,,,,,0,,,66,40
7620,note_on,30,0,1,,,,,,,,,0,,,70,0
7650,note_on,30,0,1,,,,,,,,,0,,,66,0
7650,note_on,0,0,1,,,,,,,,,0,,,70,40
7680,note_on,30,0,1,,,,,,,,,0,,,70,0
7680,note_on,0,0,1,,,,,,,,,0,,,66,40
7680,note_on,90,0,4,,,,,,,,,0,,,48,50
7710,note_on,30,0,4,,,,,,,,,0,,,48,0
7710,note_on,0,0,1,,,,,,,,,0,,,70,40
7710,note_on,30,0,1,,,,,,,,,0,,,66,0
7740,note_on,0,0,1,,,,,,,,,0,,,65,40
7740,note_on,30,0,1,,,,,,,,,0,,,70,0
7770,note_on,0,0,1,,,,,,,,,0,,,68,40
7770,note_on,30,0,1,,,,,,,,,0,,,65,0
7800,note_on,90,0,4,,,,,,,,,0,,,56,50
7800,note_on,0,0,4,,,,,,,,,0,,,53,50
7800,note_on,0,0,1,,,,,,,,,0,,,65,40
7800,note_on,30,0,1,,,,,,,,,0,,,68,0
7830,note_on,30,0,4,,,,,,,,,0,,,53,0
7830,note_on,0,0,4,,,,,,,,,0,,,56,0
7830,note_on,30,0,1,,,,,,,,,0,,,65,0
7830,note_on,0,0,1,,,,,,,,,0,,,68,40
7860,note_on,30,0,1,,,,,,,,,0,,,68,0
7860,note_on,0,0,1,,,,,,,,,0,,,65,40
7890,note_on,30,0,1,,,,,,,,,0,,,65,0
7890,note_on,0,0,1,,,,,,,,,0,,,68,40
7920,note_on,0,0,1,,,,,,,,,0,,,65,40
7920,note_on,30,0,1,,,,,,,,,0,,,68,0
7920,note_on,90,0,4,,,,,,,,,0,,,48,50
7950,note_on,0,0,1,,,,,,,,,0,,,68,40
7950,note_on,30,0,1,,,,,,,,,0,,,65,0
7950,note_on,30,0,4,,,,,,,,,0,,,48,0
7980,note_on,0,0,1,,,,,,,,,0,,,64,40
7980,note_on,30,0,1,,,,,,,,,0,,,68,0
8010,note_on,0,0,1,,,,,,,,,0,,,67,40
8010,note_on,30,0,1,,,,,,,,,0,,,64,0
8040,note_on,0,0,4,,,,,,,,,0,,,52,50
8040,note_on,90,0,4,,,,,,,,,0,,,55,50
8040,note_on,30,0,1,,,,,,,,,0,,,67,0
8040,note_on,0,0,1,,,,,,,,,0,,,64,40
8070,note_on,0,0,1,,,,,,,,,0,,,67,40
8070,note_on,30,0,4,,,,,,,,,0,,,52,0
8070,note_on,0,0,4,,,,,,,,,0,,,55,0
8070,note_on,30,0,1,,,,,,,,,0,,,64,0
8100,note_on,30,0,1,,,,,,,,,0,,,67,0
8100,note_on,0,0,1,,,,,,,,,0,,,64,40
8130,note_on,30,0,1,,,,,,,,,0,,,64,0
8130,note_on,0,0,1,,,,,,,,,0,,,67,40
8160,note_on,90,0,4,,,,,,,,,0,,,41,50
8160,note_on,30,0,1,,,,,,,,,0,,,67,0
8160,note_on,0,0,1,,,,,,,,,0,,,65,40
8190,note_on,30,0,4,,,,,,,,,0,,,41,0
8190,note_on,30,0,1,,,,,,,,,0,,,65,0
8220,note_on,30,0,1,,,,,,,,,0,,,68,40
8250,note_on,30,0,1,,,,,,,,,0,,,68,0
8250,note_on,0,0,1,,,,,,,,,0,,,72,40
8280,note_on,0,0,4,,,,,,,,,0,,,53,50
8280,note_on,30,0,1,,,,,,,,,0,,,72,0
8280,note_on,0,0,1,,,,,,,,,0,,,68,40
8280,control_change,840,0,5,,,,,,,,,0,64,127,,
8280,note_on,90,0,4,,,,,,,,,0,,,65,50
8310,note_on,30,0,1,,,,,,,,,0,,,68,0
8310,note_on,0,0,1,,,,,,,,,0,,,72,40
8340,note_on,30,0,1,,,,,,,,,0,,,72,0
8340,note_on,0,0,1,,,,,,,,,0,,,68,40
8370,note_on,0,0,1,,,,,,,,,0,,,72,40
8370,note_on,30,0,1,,,,,,,,,0,,,68,0
8400,note_on,30,0,1,,,,,,,,,0,,,72,0
8400,note_on,0,0,4,,,,,,,,,0,,,65,0
8400,control_change,120,0,5,,,,,,,,,0,64,0,,
8400,note_on,120,0,4,,,,,,,,,0,,,53,0
8400,note_on,0,0,1,,,,,,,,,0,,,67,40
8430,note_on,30,0,1,,,,,,,,,0,,,67,0
8430,note_on,0,0,1,,,,,,,,,0,,,71,40
8460,note_on,0,0,1,,,,,,,,,0,,,68,40
8460,note_on,30,0,1,,,,,,,,,0,,,71,0
8490,note_on,0,0,1,,,,,,,,,0,,,72,40
8490,note_on,30,0,1,,,,,,,,,0,,,68,0
8520,note_on,30,0,1,,,,,,,,,0,,,72,0
8520,note_on,0,0,1,,,,,,,,,0,,,68,40
8520,note_on,120,0,4,,,,,,,,,0,,,65,50
8520,note_on,0,0,4,,,,,,,,,0,,,53,50
8520,control_change,120,0,5,,,,,,,,,0,64,127,,
8550,note_on,0,0,1,,,,,,,,,0,,,72,40
8550,note_on,30,0,1,,,,,,,,,0,,,68,0
8580,note_on,0,0,1,,,,,,,,,0,,,68,40
8580,note_on,30,0,1,,,,,,,,,0,,,72,0
8610,note_on,30,0,1,,,,,,,,,0,,,68,0
8610,note_on,0,0,1,,,,,,,,,0,,,72,40
8640,note_on,120,0,4,,,,,,,,,0,,,53,0
8640,note_on,30,0,1,,,,,,,,,0,,,72,0
8640,note_on,0,0,4,,,,,,,,,0,,,65,0
8640,note_on,0,0,1,,,,,,,,,0,,,69,40
8640,control_change,120,0,5,,,,,,,,,0,64,0,,
8670,note_on,30,0,1,,,,,,,,,0,,,69,0
8670,note_on,0,0,1,,,,,,,,,0,,,75,40
8700,note_on,30,0,1,,,,,,,,,0,,,75,0
8700,note_on,0,0,1,,,,,,,,,0,,,70,40
8730,note_on,30,0,1,,,,,,,,,0,,,70,0
8730,note_on,0,0,1,,,,,,,,,0,,,73,40
8760,note_on,0,0,1,,,,,,,,,0,,,70,40
8760,note_on,30,0,1,,,,,,,,,0,,,73,0
8760,control_change,120,0,5,,,,,,,,,0,64,127,,
8760,note_on,120,0,4,,,,,,,,,0,,,65,50
8760,note_on,0,0,4,,,,,,,,,0,,,58,50
8790,note_on,30,0,1,,,,,,,,,0,,,70,0
8790,note_on,0,0,1,,,,,,,,,0,,,73,40
8820,note_on,30,0,1,,,,,,,,,0,,,73,0
8820,note_on,0,0,1,,,,,,,,,0,,,70,40
8850,note_on,30,0,1,,,,,,,,,0,,,70,0
8850,note_on,0,0,1,,,,,,,,,0,,,73,40
8880,note_on,30,0,1,,,,,,,,,0,,,73,0
8880,control_change,120,0,5,,,,,,,,,0,64,0,,
8880,note_on,0,0,1,,,,,,,,,0,,,73,40
8880,note_on,0,0,4,,,,,,,,,0,,,65,0
8880,note_on,120,0,4,,,,,,,,,0,,,58,0
8910,note_on,0,0,1,,,,,,,,,0,,,77,40
8910,note_on,30,0,1,,,,,,,,,0,,,73,0
8940,note_on,0,0,1,,,,,,,,,0,,,70,40
8940,note_on,30,0,1,,,,,,,,,0,,,77,0
8970,note_on,30,0,1,,,,,,,,,0,,,70,0
8970,note_on,0,0,1,,,,,,,,,0,,,73,40
9000,note_on,30,0,1,,,,,,,,,0,,,73,0
9000,note_on,0,0,1,,,,,,,,,0,,,68,40
9000,note_on,120,0,4,,,,,,,,,0,,,63,50
9000,note_on,0,0,4,,,,,,,,,0,,,51,50
9000,control_change,120,0,5,,,,,,,,,0,64,127,,
9030,note_on,30,0,1,,,,,,,,,0,,,68,0
9030,note_on,0,0,1,,,,,,,,,0,,,73,40
9060,note_on,30,0,1,,,,,,,,,0,,,73,0
9060,note_on,0,0,1,,,,,,,,,0,,,67,40
9090,note_on,30,0,1,,,,,,,,,0,,,67,0
9090,note_on,0,0,1,,,,,,,,,0,,,73,40
9120,note_on,120,0,4,,,,,,,,,0,,,51,0
9120,note_on,0,0,4,,,,,,,,,0,,,63,0
9120,note_on,0,0,1,,,,,,,,,0,,,68,40
9120,control_change,120,0,5,,,,,,,,,0,64,0,,
9120,note_on,30,0,1,,,,,,,,,0,,,73,0
9150,note_on,0,0,1,,,,,,,,,0,,,73,40
9150,note_on,30,0,1,,,,,,,,,0,,,68,0
9180,note_on,0,0,1,,,,,,,,,0,,,68,40
9180,note_on,30,0,1,,,,,,,,,0,,,73,0
9210,note_on,30,0,1,,,,,,,,,0,,,68,0
9210,note_on,0,0,1,,,,,,,,,0,,,72,40
9240,note_on,0,0,1,,,,,,,,,0,,,68,40
9240,note_on,30,0,1,,,,,,,,,0,,,72,0
9240,note_on,0,0,4,,,,,,,,,0,,,56,50
9240,note_on,120,0,4,,,,,,,,,0,,,63,50
9240,control_change,120,0,5,,,,,,,,,0,64,127,,
9270,note_on,30,0,1,,,,,,,,,0,,,68,0
9270,note_on,0,0,1,,,,,,,,,0,,,72,40
9300,note_on,0,0,1,,,,,,,,,0,,,68,40
9300,note_on,30,0,1,,,,,,,,,0,,,72,0
9330,note_on,0,0,1,,,,,,,,,0,,,72,40
9330,note_on,30,0,1,,,,,,,,,0,,,68,0
9360,note_on,30,0,1,,,,,,,,,0,,,72,0
9360,note_on,0,0,4,,,,,,,,,0,,,63,0
9360,control_change,120,0,5,,,,,,,,,0,64,0,,
9360,note_on,120,0,4,,,,,,,,,0,,,56,0
9360,note_on,0,0,4,,,,,,,,,0,,,49,50
9360,note_on,0,0,1,,,,,,,,,0,,,72,40
9390,note_on,30,0,4,,,,,,,,,0,,,49,0
9390,note_on,30,0,1,,,,,,,,,0,,,72,0
9390,note_on,0,0,1,,,,,,,,,0,,,75,40
9420,note_on,0,0,1,,,,,,,,,0,,,65,40
9420,note_on,30,0,1,,,,,,,,,0,,,75,0
9450,note_on,0,0,1,,,,,,,,,0,,,70,40
9450,note_on,30,0,1,,,,,,,,,0,,,65,0
9480,note_on,90,0,4,,,,,,,,,0,,,65,50
9480,note_on,0,0,1,,,,,,,,,0,,,73,40
9480,note_on,30,0,1,,,,,,,,,0,,,70,0
9480,note_on,0,0,4,,,,,,,,,0,,,61,50
9510,note_on,0,0,1,,,,,,,,,0,,,77,40
9510,note_on,30,0,1,,,,,,,,,0,,,73,0
9510,note_on,30,0,4,,,,,,,,,0,,,61,0
9510,note_on,0,0,4,,,,,,,,,0,,,65,0
9540,note_on,0,0,1,,,,,,,,,0,,,75,40
9540,note_on,30,0,1,,,,,,,,,0,,,77,0
9570,note_on,30,0,1,,,,,,,,,0,,,75,0
9570,note_on,0,0,1,,,,,,,,,0,,,73,40
9600,note_on,30,0,1,,,,,,,,,0,,,73,0
9600,note_on,90,0,4,,,,,,,,,0,,,51,50
9600,note_on,0,0,1,,,,,,,,,0,,,70,40
9630,note_on,30,0,1,,,,,,,,,0,,,70,0
9630,note_on,0,0,1,,,,,,,,,0,,,73,40
9630,note_on,30,0,4,,,,,,,,,0,,,51,0
9660,note_on,30,0,1,,,,,,,,,0,,,73,0
9660,note_on,0,0,1,,,,,,,,,0,,,63,40
9690,note_on,30,0,1,,,,,,,,,0,,,63,0
9690,note_on,0,0,1,,,,,,,,,0,,,68,40
9720,note_on,0,0,1,,,,,,,,,0,,,72,40
9720,note_on,30,0,1,,,,,,,,,0,,,68,0
9720,note_on,90,0,4,,,,,,,,,0,,,63,50
9720,note_on,0,0,4,,,,,,,,,0,,,60,50
9750,note_on,0,0,1,,,,,,,,,0,,,75,40
9750,note_on,30,0,1,,,,,,,,,0,,,72,0
9750,note_on,0,0,4,,,,,,,,,0,,,63,0
9750,note_on,30,0,4,,,,,,,,,0,,,60,0
9780,note_on,0,0,1,,,,,,,,,0,,,73,40
9780,note_on,30,0,1,,,,,,,,,0,,,75,0
9810,note_on,30,0,1,,,,,,,,,0,,,73,0
9810,note_on,0,0,1,,,,,,,,,0,,,72,40
9840,note_on,90,0,4,,,,,,,,,0,,,51,50
9840,note_on,0,0,1,,,,,,,,,0,,,69,40
9840,note_on,30,0,1,,,,,,,,,0,,,72,0
9870,note_on,30,0,4,,,,,,,,,0,,,51,0
9870,note_on,30,0,1,,,,,,,,,0,,,69,0
9870,note_on,0,0,1,,,,,,,,,0,,,72,40
9900,note_on,0,0,1,,,,,,,,,0,,,63,40
9900,note_on,30,0,1,,,,,,,,,0,,,72,0
9930,note_on,30,0,1,,,,,,,,,0,,,63,0
9930,note_on,0,0,1,,,,,,,,,0,,,67,40
9960,note_on,0,0,4,,,,,,,,,0,,,55,50
9960,note_on,90,0,4,,,,,,,,,0,,,61,50
9960,note_on,30,0,1,,,,,,,,,0,,,67,0
9960,note_on,0,0,1,,,,,,,,,0,,,70,40
9990,note_on,30,0,4,,,,,,,,,0,,,55,0
9990,note_on,0,0,4,,,,,,,,,0,,,61,0
9990,note_on,0,0,1,,,,,,,,,0,,,73,40
9990,note_on,30,0,1,,,,,,,,,0,,,70,0
10020,note_on,30,0,1,,,,,,,,,0,,,73,0
10020,note_on,0,0,1,,,,,,,,,0,,,72,40
10050,note_on,30,0,1,,,,,,,,,0,,,72,0
10050,note_on,0,0,1,,,,,,,,,0,,,70,40
10080,note_on,30,0,1,,,,,,,,,0,,,70,0
10080,note_on,0,0,1,,,,,,,,,0,,,68,40
10080,note_on,0,0,4,,,,,,,,,0,,,56,50
10080,note_on,90,0,4,,,,,,,,,0,,,60,50
10110,note_on,30,0,1,,,,,,,,,0,,,68,0
10110,note_on,0,0,4,,,,,,,,,0,,,60,0
10110,note_on,30,0,4,,,,,,,,,0,,,56,0
10140,note_on,30,0,1,,,,,,,,,0,,,72,40
10140,note_on,30,0,4,,,,,,,,,0,,,63,50
10170,note_on,30,0,4,,,,,,,,,0,,,63,0
10170,note_on,0,0,1,,,,,,,,,0,,,75,40
10170,note_on,30,0,1,,,,,,,,,0,,,72,0
10200,note_on,0,0,1,,,,,,,,,0,,,72,40
10200,note_on,30,0,1,,,,,,,,,0,,,75,0
10200,note_on,30,0,4,,,,,,,,,0,,,63,50
10230,note_on,0,0,1,,,,,,,,,0,,,75,40
10230,note_on,30,0,4,,,,,,,,,0,,,63,0
10230,note_on,30,0,1,,,,,,,,,0,,,72,0
10260,note_on,30,0,1,,,,,,,,,0,,,75,0
10260,note_on,30,0,4,,,,,,,,,0,,,63,50
10260,note_on,0,0,1,,,,,,,,,0,,,72,40
10290,note_on,0,0,1,,,,,,,,,0,,,75,40
10290,note_on,30,0,4,,,,,,,,,0,,,63,0
10290,note_on,30,0,1,,,,,,,,,0,,,72,0
10320,note_on,0,0,1,,,,,,,,,0,,,71,40
10320,note_on,30,0,1,,,,,,,,,0,,,75,0
10320,note_on,30,0,4,,,,,,,,,0,,,64,60
10350,note_on,0,0,1,,,,,,,,,0,,,74,40
10350,note_on,30,0,1,,,,,,,,,0,,,71,0
10380,note_on,0,0,1,,,,,,,,,0,,,72,40
10380,note_on,30,0,1,,,,,,,,,0,,,74,0
10380,note_on,0,0,4,,,,,,,,,0,,,63,50
10380,note_on,60,0,4,,,,,,,,,0,,,64,0
10410,note_on,30,0,1,,,,,,,,,0,,,72,0
10410,note_on,0,0,1,,,,,,,,,0,,,75,40
10410,note_on,30,0,4,,,,,,,,,0,,,63,0
10440,note_on,0,0,1,,,,,,,,,0,,,72,40
10440,note_on,30,0,1,,,,,,,,,0,,,75,0
10440,note_on,30,0,4,,,,,,,,,0,,,63,50
10470,note_on,30,0,1,,,,,,,,,0,,,72,0
10470,note_on,0,0,1,,,,,,,,,0,,,75,40
10470,note_on,30,0,4,,,,,,,,,0,,,63,0
10500,note_on,0,0,1,,,,,,,,,0,,,72,40
10500,note_on,30,0,1,,,,,,,,,0,,,75,0
10500,note_on,30,0,4,,,,,,,,,0,,,63,50
10530,note_on,30,0,4,,,,,,,,,0,,,63,0
10530,note_on,0,0,1,,,,,,,,,0,,,75,40
10530,note_on,30,0,1,,,,,,,,,0,,,72,0
10560,note_on,30,0,4,,,,,,,,,0,,,51,50
10560,note_on,0,0,1,,,,,,,,,0,,,72,40
10560,note_on,30,0,1,,,,,,,,,0,,,75,0
10590,note_on,30,0,1,,,,,,,,,0,,,72,0
10590,note_on,0,0,1,,,,,,,,,0,,,75,40
10590,note_on,30,0,4,,,,,,,,,0,,,51,0
10620,note_on,0,0,1,,,,,,,,,0,,,73,40
10620,note_on,30,0,1,,,,,,,,,0,,,75,0
10620,note_on,30,0,4,,,,,,,,,0,,,63,50
10650,note_on,30,0,4,,,,,,,,,0,,,63,0
10650,note_on,0,0,1,,,,,,,,,0,,,76,40
10650,note_on,30,0,1,,,,,,,,,0,,,73,0
10680,note_on,30,0,1,,,,,,,,,0,,,76,0
10680,note_on,30,0,4,,,,,,,,,0,,,63,50
10680,note_on,0,0,1,,,,,,,,,0,,,79,40
10710,note_on,0,0,1,,,,,,,,,0,,,82,40
10710,note_on,30,0,4,,,,,,,,,0,,,63,0
10710,note_on,30,0,1,,,,,,,,,0,,,79,0
10740,note_on,30,0,4,,,,,,,,,0,,,63,50
10740,note_on,30,0,1,,,,,,,,,0,,,82,0
10740,note_on,0,0,1,,,,,,,,,0,,,72,40
10770,note_on,30,0,1,,,,,,,,,0,,,72,0
10770,note_on,30,0,4,,,,,,,,,0,,,63,0
10770,note_on,0,0,1,,,,,,,,,0,,,75,40
10800,note_on,30,0,4,,,,,,,,,0,,,51,50
10800,note_on,30,0,1,,,,,,,,,0,,,75,0
10800,note_on,0,0,1,,,,,,,,,0,,,73,40
10830,note_on,30,0,1,,,,,,,,,0,,,73,0
10830,note_on,0,0,1,,,,,,,,,0,,,76,40
10830,note_on,30,0,4,,,,,,,,,0,,,51,0
10860,note_on,30,0,4,,,,,,,,,0,,,63,50
10860,note_on,0,0,1,,,,,,,,,0,,,79,40
10860,note_on,30,0,1,,,,,,,,,0,,,76,0
10890,note_on,30,0,4,,,,,,,,,0,,,63,0
10890,note_on,30,0,1,,,,,,,,,0,,,79,0
10890,note_on,0,0,1,,,,,,,,,0,,,82,40
10920,note_on,30,0,4,,,,,,,,,0,,,63,50
10920,note_on,30,0,1,,,,,,,,,0,,,82,0
10920,note_on,0,0,1,,,,,,,,,0,,,80,40
10950,note_on,30,0,1,,,,,,,,,0,,,80,0
10950,note_on,30,0,4,,,,,,,,,0,,,63,0
10950,note_on,0,0,1,,,,,,,,,0,,,79,40
10980,note_on,0,0,1,,,,,,,,,0,,,77,40
10980,note_on,30,0,1,,,,,,,,,0,,,79,0
10980,note_on,0,0,4,,,,,,,,,0,,,61,60
10980,note_on,0,0,4,,,,,,,,,0,,,63,60
10980,note_on,30,0,4,,,,,,,,,0,,,51,60
11010,note_on,30,0,4,,,,,,,,,0,,,63,0
11010,note_on,0,0,4,,,,,,,,,0,,,51,0
11010,note_on,30,0,1,,,,,,,,,0,,,77,0
11010,note_on,0,0,1,,,,,,,,,0,,,79,40
11010,note_on,0,0,4,,,,,,,,,0,,,61,0
11040,note_on,30,0,1,,,,,,,,,0,,,79,0
11040,note_on,0,0,1,,,,,,,,,0,,,80,40
11040,set_tempo,4800,1,0,,,,,,498795,,,,,,,
11040,note_on,30,0,4,,,,,,,,,0,,,63,60
11040,note_on,0,0,4,,,,,,,,,0,,,60,60
11040,note_on,0,0,4,,,,,,,,,0,,,56,60
11068,set_tempo,28,1,0,,,,,,497554,,,,,,,
11070,note_on,30,0,4,,,,,,,,,0,,,56,0
11070,note_on,0,0,4,,,,,,,,,0,,,60,0
11070,note_on,0,0,4,,,,,,,,,0,,,63,0
11089,set_tempo,21,1,0,,,,,,496319,,,,,,,
11100,note_on,0,0,1,,,,,,,,,0,,,72,40
11100,note_on,30,0,4,,,,,,,,,0,,,63,50
11100,note_on,60,0,1,,,,,,,,,0,,,80,0
11117,set_tempo,28,1,0,,,,,,495090,,,,,,,
11130,note_on,30,0,4,,,,,,,,,0,,,63,0
11130,note_on,0,0,1,,,,,,,,,0,,,75,40
11130,note_on,30,0,1,,,,,,,,,0,,,72,0
11138,set_tempo,21,1,0,,,,,,493868,,,,,,,
11160,note_on,0,0,1,,,,,,,,,0,,,72,40
11160,note_on,30,0,1,,,,,,,,,0,,,75,0
11160,note_on,30,0,4,,,,,,,,,0,,,63,50
11167,set_tempo,29,1,0,,,,,,492651,,,,,,,
11188,set_tempo,21,1,0,,,,,,491441,,,,,,,
11190,note_on,0,0,1,,,,,,,,,0,,,75,40
11190,note_on,30,0,4,,,,,,,,,0,,,63,0
11190,note_on,30,0,1,,,,,,,,,0,,,72,0
11216,set_tempo,28,1,0,,,,,,490236,,,,,,,
11220,note_on,0,0,1,,,,,,,,,0,,,72,40
11220,note_on,30,0,4,,,,,,,,,0,,,63,50
11220,note_on,30,0,1,,,,,,,,,0,,,75,0
11237,set_tempo,21,1,0,,,,,,489037,,,,,,,
11250,note_on,30,0,1,,,,,,,,,0,,,72,0
11250,note_on,0,0,1,,,,,,,,,0,,,75,40
11250,note_on,30,0,4,,,,,,,,,0,,,63,0
11258,set_tempo,21,1,0,,,,,,487845,,,,,,,
11280,note_on,30,0,1,,,,,,,,,0,,,75,0
11280,note_on,0,0,1,,,,,,,,,0,,,71,40
11280,note_on,30,0,4,,,,,,,,,0,,,64,60
11287,set_tempo,29,1,0,,,,,,486657,,,,,,,
11308,set_tempo,21,1,0,,,,,,485476,,,,,,,
11310,note_on,0,0,1,,,,,,,,,0,,,74,40
11310,note_on,30,0,1,,,,,,,,,0,,,71,0
11336,set_tempo,28,1,0,,,,,,484301,,,,,,,
11340,note_on,0,0,1,,,,,,,,,0,,,72,40
11340,note_on,30,0,1,,,,,,,,,0,,,74,0
11340,note_on,60,0,4,,,,,,,,,0,,,64,0
11340,note_on,0,0,4,,,,,,,,,0,,,63,50
11357,set_tempo,21,1,0,,,,,,483131,,,,,,,
11370,note_on,30,0,4,,,,,,,,,0,,,63,0
11370,note_on,0,0,1,,,,,,,,,0,,,75,40
11370,note_on,30,0,1,,,,,,,,,0,,,72,0
11385,set_tempo,28,1,0,,,,,,481966,,,,,,,
11400,note_on,0,0,1,,,,,,,,,0,,,72,40
11400,note_on,30,0,1,,,,,,,,,0,,,75,0
11400,note_on,30,0,4,,,,,,,,,0,,,63,60
11407,set_tempo,22,1,0,,,,,,480808,,,,,,,
11430,note_on,30,0,1,,,,,,,,,0,,,72,0
11430,note_on,0,0,1,,,,,,,,,0,,,75,40
11435,set_tempo,28,1,0,,,,,,479655,,,,,,,
11456,set_tempo,21,1,0,,,,,,478507,,,,,,,
11460,note_on,0,0,1,,,,,,,,,0,,,72,40
11460,note_on,0,0,4,,,,,,,,,0,,,66,50
11460,note_on,60,0,4,,,,,,,,,0,,,63,0
11460,note_on,30,0,1,,,,,,,,,0,,,75,0
11477,set_tempo,21,1,0,,,,,,477365,,,,,,,
11490,note_on,30,0,1,,,,,,,,,0,,,72,0
11490,note_on,0,0,1,,,,,,,,,0,,,75,40
11490,note_on,30,0,4,,,,,,,,,0,,,66,0
11505,set_tempo,28,1,0,,,,,,476228,,,,,,,
11520,note_on,0,0,1,,,,,,,,,0,,,73,40
11520,note_on,30,0,1,,,,,,,,,0,,,75,0
11520,note_on,30,0,4,,,,,,,,,0,,,53,50
11527,set_tempo,22,1,0,,,,,,475097,,,,,,,
11550,note_on,30,0,1,,,,,,,,,0,,,73,0
11550,note_on,0,0,1,,,,,,,,,0,,,77,40
11550,note_on,30,0,4,,,,,,,,,0,,,53,0
11555,set_tempo,28,1,0,,,,,,473971,,,,,,,
11576,set_tempo,21,1,0,,,,,,472851,,,,,,,
11580,note_on,30,0,1,,,,,,,,,0,,,77,0
11580,note_on,0,0,1,,,,,,,,,0,,,75,40
11580,note_on,30,0,4,,,,,,,,,0,,,65,50
11604,set_tempo,28,1,0,,,,,,471735,,,,,,,
11610,note_on,30,0,4,,,,,,,,,0,,,65,0
11610,note_on,30,0,1,,,,,,,,,0,,,75,0
11610,note_on,0,0,1,,,,,,,,,0,,,78,40
11625,set_tempo,21,1,0,,,,,,470625,,,,,,,
11640,note_on,30,0,1,,,,,,,,,0,,,78,0
11640,note_on,30,0,4,,,,,,,,,0,,,65,50
11640,note_on,0,0,1,,,,,,,,,0,,,81,40
11654,set_tempo,29,1,0,,,,,,469520,,,,,,,
11670,note_on,0,0,1,,,,,,,,,0,,,84,40
11670,note_on,30,0,4,,,,,,,,,0,,,65,0
11670,note_on,30,0,1,,,,,,,,,0,,,81,0
11675,set_tempo,21,1,0,,,,,,468421,,,,,,,
11696,set_tempo,21,1,0,,,,,,467326,,,,,,,
11700,note_on,30,0,4,,,,,,,,,0,,,65,50
11700,note_on,0,0,1,,,,,,,,,0,,,73,40
11700,note_on,30,0,1,,,,,,,,,0,,,84,0
11724,set_tempo,28,1,0,,,,,,466237,,,,,,,
11730,note_on,0,0,1,,,,,,,,,0,,,77,40
11730,note_on,30,0,1,,,,,,,,,0,,,73,0
11730,note_on,30,0,4,,,,,,,,,0,,,65,0
11745,set_tempo,21,1,0,,,,,,465152,,,,,,,
11760,note_on,30,0,4,,,,,,,,,0,,,53,50
11760,note_on,0,0,1,,,,,,,,,0,,,75,40
11760,note_on,30,0,1,,,,,,,,,0,,,77,0
11774,set_tempo,29,1,0,,,,,,464073,,,,,,,
11790,note_on,30,0,4,,,,,,,,,0,,,53,0
11790,note_on,0,0,1,,,,,,,,,0,,,78,40
11790,note_on,30,0,1,,,,,,,,,0,,,75,0
11795,set_tempo,21,1,0,,,,,,462999,,,,,,,
11820,note_on,30,0,1,,,,,,,,,0,,,78,0
11820,note_on,30,0,4,,,,,,,,,0,,,65,50
11820,note_on,0,0,1,,,,,,,,,0,,,81,40
11823,set_tempo,28,1,0,,,,,,461929,,,,,,,
11844,set_tempo,21,1,0,,,,,,460865,,,,,,,
11850,note_on,30,0,1,,,,,,,,,0,,,81,0
11850,note_on,30,0,4,,,,,,,,,0,,,65,0
11850,note_on,0,0,1,,,,,,,,,0,,,84,40
11865,set_tempo,21,1,0,,,,,,459805,,,,,,,
11880,note_on,30,0,1,,,,,,,,,0,,,84,0
11880,note_on,0,0,1,,,,,,,,,0,,,82,40
11880,note_on,30,0,4,,,,,,,,,0,,,65,50
11894,set_tempo,29,1,0,,,,,,458751,,,,,,,
11910,note_on,30,0,1,,,,,,,,,0,,,82,0
11910,note_on,30,0,4,,,,,,,,,0,,,65,0
11910,note_on,0,0,1,,,,,,,,,0,,,80,40
11915,set_tempo,21,1,0,,,,,,457701,,,,,,,
11940,note_on,0,0,1,,,,,,,,,0,,,79,40
11940,note_on,30,0,1,,,,,,,,,0,,,80,0
11940,note_on,30,0,4,,,,,,,,,0,,,53,60
11940,note_on,0,0,4,,,,,,,,,0,,,65,60
11940,note_on,0,0,4,,,,,,,,,0,,,63,60
11943,set_tempo,28,1,0,,,,,,456656,,,,,,,
11964,set_tempo,21,1,0,,,,,,455615,,,,,,,
11970,note_on,30,0,4,,,,,,,,,0,,,65,0
11970,note_on,0,0,4,,,,,,,,,0,,,53,0
11970,note_on,0,0,4,,,,,,,,,0,,,63,0
11970,note_on,30,0,1,,,,,,,,,0,,,79,0
11970,note_on,0,0,1,,,,,,,,,0,,,80,40
11992,set_tempo,28,1,0,,,,,,454580,,,,,,,
12000,note_on,0,0,1,,,,,,,,,0,,,82,40
12000,note_on,30,0,4,,,,,,,,,0,,,65,60
12000,note_on,0,0,4,,,,,,,,,0,,,58,60
12000,note_on,0,0,4,,,,,,,,,0,,,61,60
12000,note_on,30,0,1,,,,,,,,,0,,,80,0
12014,set_tempo,22,1,0,,,,,,453549,,,,,,,
12030,note_on,30,0,1,,,,,,,,,0,,,82,0
12030,note_on,0,0,4,,,,,,,,,0,,,61,0
12030,note_on,30,0,4,,,,,,,,,0,,,58,0
12030,note_on,0,0,4,,,,,,,,,0,,,65,0
12042,set_tempo,28,1,0,,,,,,452523,,,,,,,
12060,note_on,30,0,4,,,,,,,,,0,,,65,50
12060,note_on,30,0,1,,,,,,,,,0,,,73,40
12063,set_tempo,21,1,0,,,,,,451501,,,,,,,
12084,set_tempo,21,1,0,,,,,,450484,,,,,,,
12090,note_on,0,0,1,,,,,,,,,0,,,77,40
12090,note_on,30,0,1,,,,,,,,,0,,,73,0
12090,note_on,30,0,4,,,,,,,,,0,,,65,0
12112,set_tempo,28,1,0,,,,,,449472,,,,,,,
12120,note_on,0,0,1,,,,,,,,,0,,,73,40
12120,note_on,30,0,4,,,,,,,,,0,,,65,50
12120,note_on,30,0,1,,,,,,,,,0,,,77,0
12134,set_tempo,22,1,0,,,,,,448464,,,,,,,
12150,note_on,30,0,4,,,,,,,,,0,,,65,0
12150,note_on,0,0,1,,,,,,,,,0,,,77,40
12150,note_on,30,0,1,,,,,,,,,0,,,73,0
12162,set_tempo,28,1,0,,,,,,447461,,,,,,,
12180,note_on,0,0,1,,,,,,,,,0,,,73,40
12180,note_on,30,0,1,,,,,,,,,0,,,77,0
12180,note_on,30,0,4,,,,,,,,,0,,,65,50
12183,set_tempo,21,1,0,,,,,,446462,,,,,,,
12210,note_on,0,0,1,,,,,,,,,0,,,77,40
12210,note_on,30,0,1,,,,,,,,,0,,,73,0
12210,note_on,30,0,4,,,,,,,,,0,,,65,0
12211,set_tempo,28,1,0,,,,,,445467,,,,,,,
12232,set_tempo,21,1,0,,,,,,444477,,,,,,,
12240,note_on,30,0,4,,,,,,,,,0,,,66,60
12240,note_on,30,0,1,,,,,,,,,0,,,77,0
12240,note_on,0,0,1,,,,,,,,,0,,,72,40
12261,set_tempo,29,1,0,,,,,,443492,,,,,,,
12270,note_on,30,0,1,,,,,,,,,0,,,72,0
12270,note_on,0,0,1,,,,,,,,,0,,,76,40
12282,set_tempo,21,1,0,,,,,,442511,,,,,,,
12300,note_on,60,0,4,,,,,,,,,0,,,66,0
12300,note_on,30,0,1,,,,,,,,,0,,,76,0
12300,note_on,0,0,4,,,,,,,,,0,,,65,50
12300,note_on,0,0,1,,,,,,,,,0,,,73,40
12303,set_tempo,21,1,0,,,,,,441534,,,,,,,
12330,note_on,30,0,1,,,,,,,,,0,,,73,0
12330,note_on,30,0,4,,,,,,,,,0,,,65,0
12330,note_on,0,0,1,,,,,,,,,0,,,77,40
12331,set_tempo,28,1,0,,,,,,440561,,,,,,,
12352,set_tempo,21,1,0,,,,,,439593,,,,,,,
12360,note_on,30,0,4,,,,,,,,,0,,,65,50
12360,note_on,30,0,1,,,,,,,,,0,,,77,0
12360,note_on,0,0,1,,,,,,,,,0,,,73,40
12381,set_tempo,29,1,0,,,,,,438629,,,,,,,
12390,note_on,30,0,4,,,,,,,,,0,,,65,0
12390,note_on,0,0,1,,,,,,,,,0,,,77,40
12390,note_on,30,0,1,,,,,,,,,0,,,73,0
12402,set_tempo,21,1,0,,,,,,437669,,,,,,,
12420,note_on,30,0,4,,,,,,,,,0,,,65,50
12420,note_on,0,0,1,,,,,,,,,0,,,73,40
12420,note_on,30,0,1,,,,,,,,,0,,,77,0
12430,set_tempo,28,1,0,,,,,,436713,,,,,,,
12450,note_on,30,0,1,,,,,,,,,0,,,73,0
12450,note_on,0,0,1,,,,,,,,,0,,,77,40
12450,note_on,30,0,4,,,,,,,,,0,,,65,0
12451,set_tempo,21,1,0,,,,,,435761,,,,,,,
12472,set_tempo,21,1,0,,,,,,434814,,,,,,,
12480,note_on,30,0,1,,,,,,,,,0,,,77,0
12480,note_on,12480,0,3,,,,,,,,,0,,,55,60
12480,note_on,0,0,1,,,,,,,,,0,,,82,40
12480,set_tempo,8,1,0,,,,,,434783,,,,,,,
12480,control_change,3120,0,5,,,,,,,,,0,64,127,,
12510,note_on,0,0,1,,,,,,,,,0,,,73,40
12510,note_on,30,0,1,,,,,,,,,0,,,82,0
12540,note_on,0,0,3,,,,,,,,,0,,,64,50
12540,note_on,30,0,1,,,,,,,,,0,,,73,0
12540,note_on,0,0,1,,,,,,,,,0,,,76,40
12540,note_on,60,0,3,,,,,,,,,0,,,61,40
12570,note_on,30,0,1,,,,,,,,,0,,,76,0
12570,note_on,0,0,1,,,,,,,,,0,,,73,40
12600,note_on,0,0,3,,,,,,,,,0,,,63,50
12600,note_on,60,0,3,,,,,,,,,0,,,64,0
12600,note_on,30,0,1,,,,,,,,,0,,,73,0
12600,note_on,0,0,1,,,,,,,,,0,,,75,40
12630,note_on,30,0,1,,,,,,,,,0,,,75,0
12630,note_on,0,0,1,,,,,,,,,0,,,73,40
12660,note_on,60,0,3,,,,,,,,,0,,,63,0
12660,note_on,30,0,1,,,,,,,,,0,,,73,0
12660,note_on,0,0,1,,,,,,,,,0,,,76,40
12660,note_on,0,0,3,,,,,,,,,0,,,64,50
12690,note_on,30,0,1,,,,,,,,,0,,,76,0
12690,note_on,0,0,1,,,,,,,,,0,,,73,40
12705,control_change,225,0,5,,,,,,,,,0,64,0,,
12720,note_on,0,0,3,,,,,,,,,0,,,61,0
12720,note_on,0,0,3,,,,,,,,,0,,,55,0
12720,control_change,15,0,5,,,,,,,,,0,64,127,,
12720,note_on,60,0,3,,,,,,,,,0,,,64,0
12720,note_on,30,0,1,,,,,,,,,0,,,73,0
12720,note_on,0,0,3,,,,,,,,,0,,,56,60
12720,note_on,0,0,1,,,,,,,,,0,,,80,40
12750,note_on,0,0,1,,,,,,,,,0,,,72,40
12750,note_on,30,0,1,,,,,,,,,0,,,80,0
12780,note_on,0,0,3,,,,,,,,,0,,,65,50
12780,note_on,60,0,3,,,,,,,,,0,,,60,40
12780,note_on,30,0,1,,,,,,,,,0,,,72,0
12780,note_on,0,0,1,,,,,,,,,0,,,77,40
12810,note_on,0,0,1,,,,,,,,,0,,,72,40
12810,note_on,30,0,1,,,,,,,,,0,,,77,0
12840,note_on,30,0,1,,,,,,,,,0,,,72,0
12840,note_on,60,0,3,,,,,,,,,0,,,65,0
12840,note_on,0,0,3,,,,,,,,,0,,,63,50
12840,note_on,0,0,1,,,,,,,,,0,,,75,40
12870,note_on,30,0,1,,,,,,,,,0,,,75,0
12870,note_on,0,0,1,,,,,,,,,0,,,72,40
12900,note_on,60,0,3,,,,,,,,,0,,,63,0
12900,note_on,30,0,1,,,,,,,,,0,,,72,0
12900,note_on,0,0,3,,,,,,,,,0,,,68,50
12900,note_on,0,0,1,,,,,,,,,0,,,80,40
12930,note_on,30,0,1,,,,,,,,,0,,,80,0
12930,note_on,0,0,1,,,,,,,,,0,,,72,40
12945,control_change,225,0,5,,,,,,,,,0,64,0,,
12960,note_on,0,0,3,,,,,,,,,0,,,60,0
12960,note_on,60,0,3,,,,,,,,,0,,,68,0
12960,note_on,0,0,3,,,,,,,,,0,,,55,60
12960,note_on,0,0,1,,,,,,,,,0,,,82,40
12960,note_on,0,0,1,,,,,,,,,0,,,85,40
12960,note_on,30,0,1,,,,,,,,,0,,,72,0
12960,control_change,15,0,5,,,,,,,,,0,64,127,,
12960,note_on,0,0,3,,,,,,,,,0,,,56,0
12990,note_on,30,0,1,,,,,,,,,0,,,82,0
12990,note_on,0,0,1,,,,,,,,,0,,,85,0
12990,note_on,0,0,1,,,,,,,,,0,,,73,40
13020,note_on,30,0,1,,,,,,,,,0,,,73,0
13020,note_on,0,0,1,,,,,,,,,0,,,76,40
13020,note_on,0,0,3,,,,,,,,,0,,,64,50
13020,note_on,60,0,3,,,,,,,,,0,,,61,40
13050,note_on,0,0,1,,,,,,,,,0,,,73,40
13050,note_on,30,0,1,,,,,,,,,0,,,76,0
13080,note_on,30,0,1,,,,,,,,,0,,,73,0
13080,note_on,60,0,3,,,,,,,,,0,,,64,0
13080,note_on,0,0,3,,,,,,,,,0,,,63,50
13080,note_on,0,0,1,,,,,,,,,0,,,75,40
13110,note_on,30,0,1,,,,,,,,,0,,,75,0
13110,note_on,0,0,1,,,,,,,,,0,,,73,40
13140,note_on,30,0,1,,,,,,,,,0,,,73,0
13140,note_on,0,0,1,,,,,,,,,0,,,76,40
13140,note_on,60,0,3,,,,,,,,,0,,,63,0
13140,note_on,0,0,3,,,,,,,,,0,,,64,50
13170,note_on,30,0,1,,,,,,,,,0,,,76,0
13170,note_on,0,0,1,,,,,,,,,0,,,73,40
13185,control_change,225,0,5,,,,,,,,,0,64,0,,
13200,note_on,30,0,1,,,,,,,,,0,,,73,0
13200,note_on,0,0,1,,,,,,,,,0,,,84,40
13200,note_on,0,0,1,,,,,,,,,0,,,80,40
13200,note_on,60,0,3,,,,,,,,,0,,,64,0
13200,note_on,0,0,3,,,,,,,,,0,,,61,0
13200,note_on,0,0,3,,,,,,,,,0,,,55,0
13200,note_on,0,0,3,,,,,,,,,0,,,56,60
13200,control_change,15,0,5,,,,,,,,,0,64,127,,
13230,note_on,0,0,1,,,,,,,,,0,,,84,0
13230,note_on,30,0,1,,,,,,,,,0,,,80,0
13230,note_on,0,0,1,,,,,,,,,0,,,72,40
13260,note_on,30,0,1,,,,,,,,,0,,,72,0
13260,note_on,0,0,3,,,,,,,,,0,,,65,50
13260,note_on,60,0,3,,,,,,,,,0,,,60,40
13260,note_on,0,0,1,,,,,,,,,0,,,77,40
13290,note_on,30,0,1,,,,,,,,,0,,,77,0
13290,note_on,0,0,1,,,,,,,,,0,,,72,40
13320,note_on,60,0,3,,,,,,,,,0,,,65,0
13320,note_on,0,0,3,,,,,,,,,0,,,63,50
13320,note_on,0,0,1,,,,,,,,,0,,,75,40
13320,note_on,30,0,1,,,,,,,,,0,,,72,0
13350,note_on,30,0,1,,,,,,,,,0,,,75,0
13350,note_on,0,0,1,,,,,,,,,0,,,72,40
13380,note_on,30,0,1,,,,,,,,,0,,,72,0
13380,note_on,0,0,1,,,,,,,,,0,,,80,40
13380,note_on,0,0,3,,,,,,,,,0,,,68,50
13380,note_on,60,0,3,,,,,,,,,0,,,63,0
13410,note_on,0,0,1,,,,,,,,,0,,,72,40
13410,note_on,30,0,1,,,,,,,,,0,,,80,0
13425,control_change,225,0,5,,,,,,,,,0,64,0,,
13440,note_on,60,0,3,,,,,,,,,0,,,68,0
13440,note_on,990,0,4,,,,,,,,,0,,,49,50
13440,note_on,30,0,1,,,,,,,,,0,,,72,0
13440,note_on,0,0,1,,,,,,,,,0,,,84,40
13440,note_on,0,0,3,,,,,,,,,0,,,60,0
13440,note_on,0,0,3,,,,,,,,,0,,,56,0
13470,note_on,30,0,1,,,,,,,,,0,,,84,0
13470,note_on,30,0,4,,,,,,,,,0,,,49,0
13470,note_on,0,0,1,,,,,,,,,0,,,87,40
13500,note_on,0,0,1,,,,,,,,,0,,,77,40
13500,note_on,30,0,1,,,,,,,,,0,,,87,0
13500,note_on,30,0,4,,,,,,,,,0,,,65,50
13500,note_on,0,0,4,,,,,,,,,0,,,61,50
13530,note_on,0,0,1,,,,,,,,,0,,,82,40
13530,note_on,30,0,1,,,,,,,,,0,,,77,0
13560,note_on,0,0,1,,,,,,,,,0,,,85,40
13560,note_on,30,0,1,,,,,,,,,0,,,82,0
13590,note_on,30,0,1,,,,,,,,,0,,,85,0
13590,note_on,0,0,1,,,,,,,,,0,,,89,40
13620,note_on,0,0,4,,,,,,,,,0,,,61,50
13620,note_on,30,0,1,,,,,,,,,0,,,89,0
13620,note_on,0,0,4,,,,,,,,,0,,,65,50
13620,note_on,0,0,4,,,,,,,,,0,,,65,0
13620,note_on,120,0,4,,,,,,,,,0,,,61,0
13620,note_on,0,0,1,,,,,,,,,0,,,87,40
13650,note_on,30,0,1,,,,,,,,,0,,,87,0
13650,note_on,0,0,1,,,,,,,,,0,,,85,40
13680,note_on,30,0,1,,,,,,,,,0,,,85,0
13680,note_on,0,0,1,,,,,,,,,0,,,82,40
13680,note_on,0,0,4,,,,,,,,,0,,,51,50
13680,note_on,0,0,4,,,,,,,,,0,,,65,0
13680,note_on,60,0,4,,,,,,,,,0,,,61,0
13710,note_on,30,0,1,,,,,,,,,0,,,82,0
13710,note_on,0,0,1,,,,,,,,,0,,,85,40
13710,note_on,30,0,4,,,,,,,,,0,,,51,0
13740,note_on,0,0,4,,,,,,,,,0,,,60,50
13740,note_on,30,0,4,,,,,,,,,0,,,63,50
13740,note_on,0,0,1,,,,,,,,,0,,,75,40
13740,note_on,30,0,1,,,,,,,,,0,,,85,0
13770,note_on,0,0,1,,,,,,,,,0,,,80,40
13770,note_on,30,0,1,,,,,,,,,0,,,75,0
13800,note_on,0,0,1,,,,,,,,,0,,,84,40
13800,note_on,30,0,1,,,,,,,,,0,,,80,0
13830,note_on,0,0,1,,,,,,,,,0,,,87,40
13830,note_on,30,0,1,,,,,,,,,0,,,84,0
13860,note_on,0,0,4,,,,,,,,,0,,,63,0
13860,note_on,120,0,4,,,,,,,,,0,,,60,0
13860,note_on,30,0,1,,,,,,,,,0,,,87,0
13860,note_on,0,0,1,,,,,,,,,0,,,85,40
13860,note_on,0,0,4,,,,,,,,,0,,,63,50
13860,note_on,0,0,4,,,,,,,,,0,,,60,50
13890,note_on,30,0,1,,,,,,,,,0,,,85,0
13890,note_on,0,0,1,,,,,,,,,0,,,84,40
13920,note_on,30,0,1,,,,,,,,,0,,,84,0
13920,note_on,0,0,1,,,,,,,,,0,,,81,40
13920,note_on,60,0,4,,,,,,,,,0,,,60,0
13920,note_on,0,0,4,,,,,,,,,0,,,63,0
13920,note_on,0,0,4,,,,,,,,,0,,,51,50
13950,note_on,0,0,1,,,,,,,,,0,,,84,44
13950,note_on,30,0,4,,,,,,,,,0,,,51,0
13950,note_on,30,0,1,,,,,,,,,0,,,81,0
13980,note_on,0,0,4,,,,,,,,,0,,,61,58
13980,note_on,0,0,4,,,,,,,,,0,,,63,58
13980,note_on,30,0,4,,,,,,,,,0,,,55,58
13980,note_on,0,0,1,,,,,,,,,0,,,75,48
13980,note_on,30,0,1,,,,,,,,,0,,,84,0
14010,note_on,30,0,1,,,,,,,,,0,,,75,0
14010,note_on,0,0,1,,,,,,,,,0,,,79,52
14040,note_on,0,0,1,,,,,,,,,0,,,82,57
14040,note_on,30,0,1,,,,,,,,,0,,,79,0
14070,note_on,0,0,1,,,,,,,,,0,,,85,61
14070,note_on,30,0,1,,,,,,,,,0,,,82,0
14100,note_on,0,0,1,,,,,,,,,0,,,84,65
14100,note_on,30,0,1,,,,,,,,,0,,,85,0
14100,note_on,0,0,4,,,,,,,,,0,,,56,75
14100,note_on,120,0,4,,,,,,,,,0,,,55,0
14130,note_on,0,0,1,,,,,,,,,0,,,82,69
14130,note_on,30,0,1,,,,,,,,,0,,,84,0
14160,note_on,30,0,1,,,,,,,,,0,,,82,0
14160,note_on,0,0,1,,,,,,,,,0,,,80,74
14160,note_on,60,0,4,,,,,,,,,0,,,56,0
14160,note_on,0,0,4,,,,,,,,,0,,,58,84
14190,note_on,30,0,1,,,,,,,,,0,,,80,0
14190,note_on,0,0,1,,,,,,,,,0,,,79,78
14190,note_on,30,0,4,,,,,,,,,0,,,58,0
14220,note_on,0,0,4,,,,,,,,,0,,,63,92
14220,note_on,0,0,4,,,,,,,,,0,,,61,92
14220,note_on,0,0,4,,,,,,,,,0,,,56,92
14220,note_on,30,0,4,,,,,,,,,0,,,61,0
14220,note_on,0,0,4,,,,,,,,,0,,,63,0
14220,note_on,30,0,1,,,,,,,,,0,,,79,0
14220,note_on,0,0,1,,,,,,,,,0,,,77,82
14250,note_on,30,0,1,,,,,,,,,0,,,77,0
14250,note_on,0,0,1,,,,,,,,,0,,,76,87
14280,note_on,0,0,4,,,,,,,,,0,,,63,101
14280,note_on,0,0,1,,,,,,,,,0,,,75,91
14280,note_on,0,0,4,,,,,,,,,0,,,61,101
14280,note_on,60,0,4,,,,,,,,,0,,,56,0
14280,note_on,0,0,4,,,,,,,,,0,,,61,0
14280,note_on,0,0,4,,,,,,,,,0,,,63,0
14280,note_on,0,0,4,,,,,,,,,0,,,55,101
14280,note_on,30,0,1,,,,,,,,,0,,,76,0
14310,note_on,30,0,1,,,,,,,,,0,,,75,0
14310,note_on,0,0,1,,,,,,,,,0,,,73,95
14340,note_on,60,0,4,,,,,,,,,0,,,55,0
14340,note_on,0,0,1,,,,,,,,,0,,,72,99
14340,note_on,0,0,4,,,,,,,,,0,,,63,0
14340,note_on,0,0,4,,,,,,,,,0,,,51,109
14340,note_on,0,0,4,,,,,,,,,0,,,63,109
14340,note_on,0,0,4,,,,,,,,,0,,,61,109
14340,note_on,0,0,4,,,,,,,,,0,,,61,0
14340,note_on,30,0,1,,,,,,,,,0,,,73,0
14370,note_on,30,0,1,,,,,,,,,0,,,72,0
14370,note_on,0,0,1,,,,,,,,,0,,,70,100
14400,note_on,0,0,4,,,,,,,,,0,,,60,110
14400,note_on,0,0,4,,,,,,,,,0,,,63,110
14400,note_on,0,0,4,,,,,,,,,0,,,61,0
14400,note_on,0,0,4,,,,,,,,,0,,,63,0
14400,note_on,60,0,4,,,,,,,,,0,,,51,0
14400,note_on,0,0,4,,,,,,,,,0,,,56,110
14400,set_tempo,1920,1,0,,,,,,500000,,,,,,,
14400,note_on,30,0,1,,,,,,,,,0,,,70,0
14400,note_on,0,0,1,,,,,,,,,0,,,68,110
14430,note_on,30,0,4,,,,,,,,,0,,,56,0
14430,note_on,0,0,4,,,,,,,,,0,,,63,0
14430,note_on,0,0,4,,,,,,,,,0,,,60,0
14430,note_on,30,0,1,,,,,,,,,0,,,68,0
14460,note_on,30,0,4,,,,,,,,,0,,,44,100
14460,note_on,30,0,1,,,,,,,,,0,,,56,100
14490,note_on,30,0,1,,,,,,,,,0,,,56,0
14490,note_on,30,0,4,,,,,,,,,0,,,44,0
14520,note_on,30,0,1,,,,,,,,,0,,,56,100
14520,note_on,30,0,4,,,,,,,,,0,,,44,100
14550,note_on,30,0,1,,,,,,,,,0,,,56,0
14550,note_on,30,0,4,,,,,,,,,0,,,44,0
14580,note_on,30,0,1,,,,,,,,,0,,,56,100
14580,note_on,30,0,4,,,,,,,,,0,,,44,100
14610,note_on,30,0,4,,,,,,,,,0,,,44,0
14610,note_on,30,0,1,,,,,,,,,0,,,56,0
14640,note_on,30,0,1,,,,,,,,,0,,,55,120
14640,note_on,30,0,4,,,,,,,,,0,,,43,120
14700,note_on,0,0,4,,,,,,,,,0,,,44,100
14700,note_on,60,0,4,,,,,,,,,0,,,43,0
14700,note_on,0,0,1,,,,,,,,,0,,,56,100
14700,note_on,60,0,1,,,,,,,,,0,,,55,0
14730,note_on,30,0,1,,,,,,,,,0,,,56,0
14730,note_on,30,0,4,,,,,,,,,0,,,44,0
14760,note_on,30,0,4,,,,,,,,,0,,,44,100
14760,note_on,30,0,1,,,,,,,,,0,,,56,100
14790,note_on,30,0,4,,,,,,,,,0,,,44,0
14790,note_on,30,0,1,,,,,,,,,0,,,56,0
14820,note_on,30,0,4,,,,,,,,,0,,,44,100
14820,note_on,30,0,1,,,,,,,,,0,,,56,100
14850,note_on,30,0,4,,,,,,,,,0,,,44,0
14850,note_on,30,0,1,,,,,,,,,0,,,56,0
14880,note_on,30,0,4,,,,,,,,,0,,,45,120
14880,note_on,30,0,1,,,,,,,,,0,,,57,120
14970,note_on,90,0,4,,,,,,,,,0,,,45,0
14970,note_on,0,0,1,,,,,,,,,0,,,58,100
14970,note_on,90,0,1,,,,,,,,,0,,,57,0
14970,note_on,0,0,4,,,,,,,,,0,,,46,100
14985,note_on,0,0,4,,,,,,,,,0,,,48,100
14985,note_on,15,0,4,,,,,,,,,0,,,46,0
14985,note_on,15,0,1,,,,,,,,,0,,,58,0
14985,note_on,0,0,1,,,,,,,,,0,,,60,100
15000,note_on,15,0,4,,,,,,,,,0,,,48,0
15000,note_on,15,0,1,,,,,,,,,0,,,60,0
15000,note_on,0,0,1,,,,,,,,,0,,,58,120
15000,note_on,0,0,4,,,,,,,,,0,,,46,120
15090,note_on,90,0,4,,,,,,,,,0,,,46,0
15090,note_on,0,0,1,,,,,,,,,0,,,60,100
15090,note_on,90,0,1,,,,,,,,,0,,,58,0
15090,note_on,0,0,4,,,,,,,,,0,,,48,100
15105,note_on,15,0,4,,,,,,,,,0,,,48,0
15105,note_on,0,0,1,,,,,,,,,0,,,61,100
15105,note_on,15,0,1,,,,,,,,,0,,,60,0
15105,note_on,0,0,4,,,,,,,,,0,,,49,100
15120,note_on,15,0,4,,,,,,,,,0,,,49,0
15120,note_on,0,0,4,,,,,,,,,0,,,51,100
15120,note_on,0,0,1,,,,,,,,,0,,,63,100
15120,note_on,15,0,1,,,,,,,,,0,,,61,0
15150,note_on,30,0,4,,,,,,,,,0,,,51,0
15150,note_on,30,0,1,,,,,,,,,0,,,63,0
15180,note_on,0,0,4,,,,,,,,,0,,,58,100
15180,note_on,30,0,4,,,,,,,,,0,,,61,100
15180,note_on,0,0,4,,,,,,,,,0,,,51,100
15180,note_on,30,0,1,,,,,,,,,0,,,67,100
15210,note_on,0,0,4,,,,,,,,,0,,,58,0
15210,note_on,30,0,1,,,,,,,,,0,,,67,0
15210,note_on,0,0,1,,,,,,,,,0,,,70,100
15210,note_on,0,0,4,,,,,,,,,0,,,61,0
15210,note_on,30,0,4,,,,,,,,,0,,,51,0
15240,note_on,0,0,1,,,,,,,,,0,,,75,100
15240,note_on,30,0,1,,,,,,,,,0,,,70,0
15240,note_on,30,0,4,,,,,,,,,0,,,61,100
15240,note_on,0,0,4,,,,,,,,,0,,,51,100
15240,note_on,0,0,4,,,,,,,,,0,,,58,100
15270,note_on,0,0,1,,,,,,,,,0,,,79,100
15270,note_on,30,0,1,,,,,,,,,0,,,75,0
15270,note_on,0,0,4,,,,,,,,,0,,,61,0
15270,note_on,0,0,4,,,,,,,,,0,,,58,0
15270,note_on,30,0,4,,,,,,,,,0,,,51,0
15300,note_on,0,0,1,,,,,,,,,0,,,82,100
15300,note_on,0,0,4,,,,,,,,,0,,,51,100
15300,note_on,30,0,1,,,,,,,,,0,,,79,0
15300,note_on,0,0,4,,,,,,,,,0,,,58,100
15300,note_on,30,0,4,,,,,,,,,0,,,61,100
15330,note_on,0,0,1,,,,,,,,,0,,,87,100
15330,note_on,0,0,4,,,,,,,,,0,,,58,0
15330,note_on,0,0,4,,,,,,,,,0,,,61,0
15330,note_on,30,0,1,,,,,,,,,0,,,82,0
15330,note_on,30,0,4,,,,,,,,,0,,,51,0
15360,note_on,30,0,4,,,,,,,,,0,,,60,100
15360,note_on,0,0,1,,,,,,,,,0,,,80,100
15360,note_on,30,0,1,,,,,,,,,0,,,87,0
15360,note_on,0,0,4,,,,,,,,,0,,,56,100
15390,note_on,0,0,4,,,,,,,,,0,,,60,0
15390,note_on,30,0,1,,,,,,,,,0,,,80,0
15390,note_on,30,0,4,,,,,,,,,0,,,56,0
15420,note_on,30,0,4,,,,,,,,,0,,,44,100
15420,note_on,30,0,1,,,,,,,,,0,,,56,100
15450,note_on,30,0,4,,,,,,,,,0,,,44,0
15450,note_on,30,0,1,,,,,,,,,0,,,56,0
15480,note_on,30,0,4,,,,,,,,,0,,,44,100
15480,note_on,30,0,1,,,,,,,,,0,,,56,100
15510,note_on,30,0,4,,,,,,,,,0,,,44,0
15510,note_on,30,0,1,,,,,,,,,0,,,56,0
15540,note_on,30,0,4,,,,,,,,,0,,,44,100
15540,note_on,30,0,1,,,,,,,,,0,,,56,100
15570,note_on,30,0,4,,,,,,,,,0,,,44,0
15570,note_on,30,0,1,,,,,,,,,0,,,56,0
15600,note_on,30,0,4,,,,,,,,,0,,,43,120
15600,note_on,30,0,1,,,,,,,,,0,,,55,120
15660,note_on,0,0,1,,,,,,,,,0,,,56,100
15660,note_on,0,0,4,,,,,,,,,0,,,44,100
15660,note_on,60,0,1,,,,,,,,,0,,,55,0
15660,note_on,60,0,4,,,,,,,,,0,,,43,0
15690,note_on,30,0,1,,,,,,,,,0,,,56,0
15690,note_on,30,0,4,,,,,,,,,0,,,44,0
15720,note_on,30,0,4,,,,,,,,,0,,,44,100
15720,note_on,30,0,1,,,,,,,,,0,,,56,100
15750,note_on,30,0,4,,,,,,,,,0,,,44,0
15750,note_on,30,0,1,,,,,,,,,0,,,56,0
15780,note_on,30,0,4,,,,,,,,,0,,,44,100
15780,note_on,30,0,1,,,,,,,,,0,,,56,100
15810,note_on,30,0,1,,,,,,,,,0,,,56,0
15810,note_on,30,0,4,,,,,,,,,0,,,44,0
15840,note_on,30,0,4,,,,,,,,,0,,,45,120
15840,note_on,30,0,1,,,,,,,,,0,,,57,120
15930,note_on,0,0,4,,,,,,,,,0,,,46,100
15930,note_on,90,0,4,,,,,,,,,0,,,45,0
15930,note_on,90,0,1,,,,,,,,,0,,,57,0
15930,note_on,0,0,1,,,,,,,,,0,,,58,100
15945,note_on,15,0,4,,,,,,,,,0,,,46,0
15945,note_on,0,0,4,,,,,,,,,0,,,48,100
15945,note_on,0,0,1,,,,,,,,,0,,,60,100
15945,note_on,15,0,1,,,,,,,,,0,,,58,0
15960,note_on,15,0,4,,,,,,,,,0,,,48,0
15960,note_on,0,0,4,,,,,,,,,0,,,46,120
15960,note_on,15,0,1,,,,,,,,,0,,,60,0
15960,note_on,0,0,1,,,,,,,,,0,,,58,120
16050,note_on,90,0,1,,,,,,,,,0,,,58,0
16050,note_on,0,0,1,,,,,,,,,0,,,60,100
16050,note_on,0,0,4,,,,,,,,,0,,,48,100
16050,note_on,90,0,4,,,,,,,,,0,,,46,0
16065,note_on,0,0,4,,,,,,,,,0,,,49,100
16065,note_on,15,0,4,,,,,,,,,0,,,48,0
16065,note_on,15,0,1,,,,,,,,,0,,,60,0
16065,note_on,0,0,1,,,,,,,,,0,,,61,100
16080,note_on,15,0,1,,,,,,,,,0,,,61,0
16080,note_on,0,0,1,,,,,,,,,0,,,63,100
16080,note_on,0,0,4,,,,,,,,,0,,,51,100
16080,note_on,15,0,4,,,,,,,,,0,,,49,0
16110,note_on,30,0,4,,,,,,,,,0,,,51,0
16110,note_on,30,0,1,,,,,,,,,0,,,63,0
16140,note_on,30,0,1,,,,,,,,,0,,,64,100
16140,note_on,0,0,4,,,,,,,,,0,,,48,100
16140,note_on,0,0,4,,,,,,,,,0,,,55,100
16140,note_on,30,0,4,,,,,,,,,0,,,58,100
16170,note_on,30,0,1,,,,,,,,,0,,,64,0
16170,note_on,0,0,4,,,,,,,,,0,,,58,0
16170,note_on,0,0,4,,,,,,,,,0,,,55,0
16170,note_on,30,0,4,,,,,,,,,0,,,48,0
16170,note_on,0,0,1,,,,,,,,,0,,,67,100
16200,note_on,0,0,4,,,,,,,,,0,,,48,100
16200,note_on,0,0,4,,,,,,,,,0,,,55,100
16200,note_on,30,0,4,,,,,,,,,0,,,58,100
16200,note_on,30,0,1,,,,,,,,,0,,,67,0
16200,note_on,0,0,1,,,,,,,,,0,,,72,100
16230,note_on,0,0,4,,,,,,,,,0,,,55,0
16230,note_on,30,0,1,,,,,,,,,0,,,72,0
16230,note_on,0,0,1,,,,,,,,,0,,,76,100
16230,note_on,30,0,4,,,,,,,,,0,,,48,0
16230,note_on,0,0,4,,,,,,,,,0,,,58,0
16260,note_on,30,0,4,,,,,,,,,0,,,58,100
16260,note_on,0,0,4,,,,,,,,,0,,,55,100
16260,note_on,0,0,4,,,,,,,,,0,,,48,100
16260,note_on,30,0,1,,,,,,,,,0,,,76,0
16260,note_on,0,0,1,,,,,,,,,0,,,79,100
16290,note_on,0,0,1,,,,,,,,,0,,,84,100
16290,note_on,0,0,4,,,,,,,,,0,,,55,0
16290,note_on,30,0,4,,,,,,,,,0,,,48,0
16290,note_on,0,0,4,,,,,,,,,0,,,58,0
16290,note_on,30,0,1,,,,,,,,,0,,,79,0
16320,note_on,30,0,4,,,,,,,,,0,,,56,100
16320,note_on,0,0,1,,,,,,,,,0,,,77,100
16320,note_on,0,0,4,,,,,,,,,0,,,53,100
16320,note_on,30,0,1,,,,,,,,,0,,,84,0
16350,note_on,30,0,1,,,,,,,,,0,,,77,0
16350,note_on,0,0,4,,,,,,,,,0,,,56,0
16350,note_on,30,0,4,,,,,,,,,0,,,53,0
16380,note_on,30,0,4,,,,,,,,,0,,,49,100
16380,note_on,0,0,4,,,,,,,,,0,,,53,100
16380,note_on,30,0,1,,,,,,,,,0,,,56,100
16380,note_on,0,0,1,,,,,,,,,0,,,65,100
16410,note_on,30,0,4,,,,,,,,,0,,,53,0
16410,note_on,30,0,1,,,,,,,,,0,,,65,0
16410,note_on,0,0,1,,,,,,,,,0,,,56,0
16410,note_on,0,0,4,,,,,,,,,0,,,49,0
16440,note_on,0,0,4,,,,,,,,,0,,,53,100
16440,note_on,30,0,1,,,,,,,,,0,,,56,100
16440,note_on,0,0,1,,,,,,,,,0,,,65,100
16440,note_on,30,0,4,,,,,,,,,0,,,49,100
16470,note_on,0,0,1,,,,,,,,,0,,,56,0
16470,note_on,30,0,4,,,,,,,,,0,,,53,0
16470,note_on,0,0,4,,,,,,,,,0,,,49,0
16470,note_on,30,0,1,,,,,,,,,0,,,65,0
16500,note_on,30,0,1,,,,,,,,,0,,,56,100
16500,note_on,0,0,4,,,,,,,,,0,,,53,100
16500,note_on,0,0,1,,,,,,,,,0,,,65,100
16500,note_on,30,0,4,,,,,,,,,0,,,49,100
16530,note_on,30,0,4,,,,,,,,,0,,,53,0
16530,note_on,30,0,1,,,,,,,,,0,,,65,0
16530,note_on,0,0,1,,,,,,,,,0,,,56,0
16530,note_on,0,0,4,,,,,,,,,0,,,49,0
16560,note_on,0,0,4,,,,,,,,,0,,,52,120
16560,note_on,30,0,4,,,,,,,,,0,,,48,120
16560,note_on,0,0,1,,,,,,,,,0,,,64,120
16560,note_on,30,0,1,,,,,,,,,0,,,56,120
16620,note_on,60,0,4,,,,,,,,,0,,,52,0
16620,note_on,0,0,4,,,,,,,,,0,,,48,0
16620,note_on,0,0,4,,,,,,,,,0,,,49,100
16620,note_on,0,0,4,,,,,,,,,0,,,53,100
16620,note_on,0,0,1,,,,,,,,,0,,,65,100
16620,note_on,60,0,1,,,,,,,,,0,,,64,0
16650,note_on,30,0,4,,,,,,,,,0,,,53,0
16650,note_on,0,0,4,,,,,,,,,0,,,49,0
16650,note_on,30,0,1,,,,,,,,,0,,,65,0
16680,note_on,0,0,1,,,,,,,,,0,,,65,100
16680,note_on,0,0,1,,,,,,,,,0,,,56,100
16680,note_on,30,0,1,,,,,,,,,0,,,56,0
16680,note_on,30,0,4,,,,,,,,,0,,,49,100
16680,note_on,0,0,4,,,,,,,,,0,,,53,100
16710,note_on,0,0,1,,,,,,,,,0,,,56,0
16710,note_on,30,0,1,,,,,,,,,0,,,65,0
16710,note_on,30,0,4,,,,,,,,,0,,,53,0
16710,note_on,0,0,4,,,,,,,,,0,,,49,0
16740,note_on,0,0,4,,,,,,,,,0,,,53,100
16740,note_on,30,0,4,,,,,,,,,0,,,49,100
16740,note_on,0,0,1,,,,,,,,,0,,,65,100
16740,note_on,30,0,1,,,,,,,,,0,,,56,100
16770,note_on,30,0,4,,,,,,,,,0,,,53,0
16770,note_on,0,0,4,,,,,,,,,0,,,49,0
16770,note_on,30,0,1,,,,,,,,,0,,,65,0
16770,note_on,0,0,1,,,,,,,,,0,,,56,0
16800,note_on,0,0,1,,,,,,,,,0,,,59,120
16800,note_on,0,0,4,,,,,,,,,0,,,50,120
16800,note_on,30,0,4,,,,,,,,,0,,,53,120
16800,note_on,30,0,1,,,,,,,,,0,,,65,120
16890,note_on,0,0,4,,,,,,,,,0,,,54,100
16890,note_on,90,0,4,,,,,,,,,0,,,53,0
16890,note_on,0,0,1,,,,,,,,,0,,,66,100
16890,note_on,90,0,1,,,,,,,,,0,,,65,0
16905,note_on,0,0,1,,,,,,,,,0,,,68,100
16905,note_on,15,0,1,,,,,,,,,0,,,66,0
16905,note_on,15,0,4,,,,,,,,,0,,,54,0
16905,note_on,0,0,4,,,,,,,,,0,,,56,100
16920,note_on,0,0,4,,,,,,,,,0,,,50,0
16920,note_on,15,0,1,,,,,,,,,0,,,68,0
16920,note_on,0,0,1,,,,,,,,,0,,,59,0
16920,note_on,0,0,1,,,,,,,,,0,,,66,120
16920,note_on,0,0,1,,,,,,,,,0,,,58,120
16920,note_on,0,0,4,,,,,,,,,0,,,51,120
16920,note_on,0,0,4,,,,,,,,,0,,,54,120
16920,note_on,15,0,4,,,,,,,,,0,,,56,0
17010,note_on,90,0,4,,,,,,,,,0,,,54,0
17010,note_on,0,0,4,,,,,,,,,0,,,56,100
17010,note_on,90,0,1,,,,,,,,,0,,,66,0
17010,note_on,0,0,1,,,,,,,,,0,,,68,100
17025,note_on,0,0,4,,,,,,,,,0,,,57,100
17025,note_on,15,0,4,,,,,,,,,0,,,56,0
17025,note_on,15,0,1,,,,,,,,,0,,,68,0
17025,note_on,0,0,1,,,,,,,,,0,,,69,100
17040,note_on,0,0,1,,,,,,,,,0,,,68,100
17040,note_on,0,0,4,,,,,,,,,0,,,51,100
17040,note_on,0,0,4,,,,,,,,,0,,,44,100
17040,note_on,0,0,4,,,,,,,,,0,,,51,0
17040,note_on,15,0,4,,,,,,,,,0,,,57,0
17040,note_on,0,0,1,,,,,,,,,0,,,58,0
17040,note_on,15,0,1,,,,,,,,,0,,,69,0
17040,note_on,0,0,1,,,,,,,,,0,,,60,100
17040,note_on,0,0,1,,,,,,,,,0,,,66,100
17070,note_on,30,0,4,,,,,,,,,0,,,51,0
17070,note_on,0,0,1,,,,,,,,,0,,,68,0
17070,note_on,30,0,1,,,,,,,,,0,,,66,0
17070,note_on,0,0,4,,,,,,,,,0,,,44,0
17100,note_on,0,0,4,,,,,,,,,0,,,56,100
17100,note_on,0,0,4,,,,,,,,,0,,,63,100
17100,note_on,30,0,4,,,,,,,,,0,,,66,100
17100,note_on,0,0,1,,,,,,,,,0,,,72,100
17100,note_on,30,0,1,,,,,,,,,0,,,60,0
17130,note_on,0,0,4,,,,,,,,,0,,,63,0
17130,note_on,30,0,4,,,,,,,,,0,,,56,0
17130,note_on,0,0,4,,,,,,,,,0,,,66,0
17130,note_on,0,0,1,,,,,,,,,0,,,75,100
17130,note_on,30,0,1,,,,,,,,,0,,,72,0
17160,note_on,30,0,1,,,,,,,,,0,,,75,0
17160,note_on,0,0,1,,,,,,,,,0,,,80,100
17160,note_on,30,0,4,,,,,,,,,0,,,66,100
17160,note_on,0,0,4,,,,,,,,,0,,,63,100
17160,note_on,0,0,4,,,,,,,,,0,,,56,100
17190,note_on,30,0,1,,,,,,,,,0,,,80,0
17190,note_on,0,0,1,,,,,,,,,0,,,84,100
17190,note_on,30,0,4,,,,,,,,,0,,,56,0
17190,note_on,0,0,4,,,,,,,,,0,,,63,0
17190,note_on,0,0,4,,,,,,,,,0,,,66,0
17220,note_on,30,0,1,,,,,,,,,0,,,84,0
17220,note_on,0,0,4,,,,,,,,,0,,,56,100
17220,note_on,0,0,1,,,,,,,,,0,,,87,100
17220,note_on,30,0,4,,,,,,,,,0,,,66,100
17220,note_on,0,0,4,,,,,,,,,0,,,63,100
17250,note_on,0,0,1,,,,,,,,,0,,,92,100
17250,note_on,30,0,1,,,,,,,,,0,,,87,0
17250,note_on,30,0,4,,,,,,,,,0,,,56,0
17250,note_on,0,0,4,,,,,,,,,0,,,66,0
17250,note_on,0,0,4,,,,,,,,,0,,,63,0
17280,note_on,30,0,4,,,,,,,,,0,,,65,100
17280,note_on,30,0,1,,,,,,,,,0,,,92,0
17280,note_on,0,0,1,,,,,,,,,0,,,85,100
17280,note_on,0,0,4,,,,,,,,,0,,,61,100
17310,note_on,30,0,4,,,,,,,,,0,,,61,0
17310,note_on,0,0,4,,,,,,,,,0,,,65,0
17310,note_on,30,0,1,,,,,,,,,0,,,85,0
17340,note_on,30,0,4,,,,,,,,,0,,,49,100
17340,note_on,0,0,4,,,,,,,,,0,,,53,100
17340,note_on,30,0,1,,,,,,,,,0,,,56,100
17340,note_on,0,0,1,,,,,,,,,0,,,65,100
17370,note_on,30,0,1,,,,,,,,,0,,,65,0
17370,note_on,0,0,1,,,,,,,,,0,,,56,0
17370,note_on,30,0,4,,,,,,,,,0,,,53,0
17370,note_on,0,0,4,,,,,,,,,0,,,49,0
17400,note_on,0,0,1,,,,,,,,,0,,,65,100
17400,note_on,30,0,1,,,,,,,,,0,,,56,100
17400,note_on,0,0,4,,,,,,,,,0,,,53,100
17400,note_on,30,0,4,,,,,,,,,0,,,49,100
17430,note_on,0,0,1,,,,,,,,,0,,,56,0
17430,note_on,0,0,4,,,,,,,,,0,,,49,0
17430,note_on,30,0,4,,,,,,,,,0,,,53,0
17430,note_on,30,0,1,,,,,,,,,0,,,65,0
17460,note_on,30,0,1,,,,,,,,,0,,,56,100
17460,note_on,0,0,1,,,,,,,,,0,,,65,100
17460,note_on,30,0,4,,,,,,,,,0,,,49,100
17460,note_on,0,0,4,,,,,,,,,0,,,53,100
17490,note_on,0,0,1,,,,,,,,,0,,,56,0
17490,note_on,30,0,1,,,,,,,,,0,,,65,0
17490,note_on,30,0,4,,,,,,,,,0,,,53,0
17490,note_on,0,0,4,,,,,,,,,0,,,49,0
17520,note_on,30,0,4,,,,,,,,,0,,,52,120
17520,note_on,30,0,1,,,,,,,,,0,,,56,120
17520,note_on,0,0,1,,,,,,,,,0,,,64,120
17520,note_on,0,0,4,,,,,,,,,0,,,48,120
17580,note_on,60,0,4,,,,,,,,,0,,,48,0
17580,note_on,0,0,4,,,,,,,,,0,,,52,0
17580,note_on,0,0,4,,,,,,,,,0,,,53,100
17580,note_on,0,0,4,,,,,,,,,0,,,49,100
17580,note_on,60,0,1,,,,,,,,,0,,,64,0
17580,note_on,0,0,1,,,,,,,,,0,,,65,100
17610,note_on,0,0,4,,,,,,,,,0,,,53,0
17610,note_on,30,0,4,,,,,,,,,0,,,49,0
17610,note_on,30,0,1,,,,,,,,,0,,,65,0
17640,note_on,0,0,4,,,,,,,,,0,,,49,100
17640,note_on,30,0,4,,,,,,,,,0,,,53,100
17640,note_on,0,0,1,,,,,,,,,0,,,65,100
17640,note_on,0,0,1,,,,,,,,,0,,,56,100
17640,note_on,30,0,1,,,,,,,,,0,,,56,0
17670,note_on,30,0,4,,,,,,,,,0,,,49,0
17670,note_on,30,0,1,,,,,,,,,0,,,65,0
17670,note_on,0,0,1,,,,,,,,,0,,,56,0
17670,note_on,0,0,4,,,,,,,,,0,,,53,0
17700,note_on,0,0,4,,,,,,,,,0,,,49,100
17700,note_on,30,0,4,,,,,,,,,0,,,53,100
17700,note_on,0,0,1,,,,,,,,,0,,,65,100
17700,note_on,30,0,1,,,,,,,,,0,,,56,100
17730,note_on,30,0,4,,,,,,,,,0,,,49,0
17730,note_on,0,0,1,,,,,,,,,0,,,56,0
17730,note_on,30,0,1,,,,,,,,,0,,,65,0
17730,note_on,0,0,4,,,,,,,,,0,,,53,0
17760,note_on,30,0,4,,,,,,,,,0,,,56,120
17760,note_on,0,0,1,,,,,,,,,0,,,65,120
17760,note_on,0,0,1,,,,,,,,,0,,,62,120
17760,note_on,0,0,4,,,,,,,,,0,,,47,120
17760,note_on,0,0,4,,,,,,,,,0,,,53,120
17760,note_on,30,0,1,,,,,,,,,0,,,71,120
17820,note_on,0,0,4,,,,,,,,,0,,,56,0
17820,note_on,0,0,4,,,,,,,,,0,,,46,100
17820,note_on,0,0,4,,,,,,,,,0,,,53,100
17820,note_on,0,0,4,,,,,,,,,0,,,56,100
17820,note_on,0,0,4,,,,,,,,,0,,,53,0
17820,note_on,60,0,4,,,,,,,,,0,,,47,0
17820,note_on,0,0,1,,,,,,,,,0,,,65,0
17820,note_on,60,0,1,,,,,,,,,0,,,62,0
17820,note_on,0,0,1,,,,,,,,,0,,,71,0
17820,note_on,0,0,1,,,,,,,,,0,,,65,100
17820,note_on,0,0,1,,,,,,,,,0,,,62,100
17820,note_on,0,0,1,,,,,,,,,0,,,70,100
17850,note_on,0,0,1,,,,,,,,,0,,,65,0
17850,note_on,0,0,1,,,,,,,,,0,,,70,0
17850,note_on,30,0,4,,,,,,,,,0,,,56,0
17850,note_on,0,0,4,,,,,,,,,0,,,53,0
17850,note_on,0,0,4,,,,,,,,,0,,,46,0
17850,note_on,30,0,1,,,,,,,,,0,,,62,0
17880,note_on,0,0,4,,,,,,,,,0,,,53,100
17880,note_on,0,0,1,,,,,,,,,0,,,62,100
17880,note_on,0,0,1,,,,,,,,,0,,,65,100
17880,note_on,0,0,4,,,,,,,,,0,,,56,100
17880,note_on,30,0,1,,,,,,,,,0,,,70,100
17880,note_on,30,0,4,,,,,,,,,0,,,46,100
17910,note_on,0,0,4,,,,,,,,,0,,,53,0
17910,note_on,30,0,4,,,,,,,,,0,,,56,0
17910,note_on,30,0,1,,,,,,,,,0,,,62,0
17910,note_on,0,0,1,,,,,,,,,0,,,65,0
17910,note_on,0,0,1,,,,,,,,,0,,,70,0
17910,note_on,0,0,4,,,,,,,,,0,,,46,0
17940,note_on,0,0,1,,,,,,,,,0,,,65,100
17940,note_on,0,0,4,,,,,,,,,0,,,56,100
17940,note_on,30,0,4,,,,,,,,,0,,,46,100
17940,note_on,30,0,1,,,,,,,,,0,,,70,100
17940,note_on,0,0,1,,,,,,,,,0,,,62,100
17940,note_on,0,0,4,,,,,,,,,0,,,53,100
17970,note_on,0,0,1,,,,,,,,,0,,,65,0
17970,note_on,30,0,4,,,,,,,,,0,,,56,0
17970,note_on,0,0,4,,,,,,,,,0,,,53,0
17970,note_on,0,0,4,,,,,,,,,0,,,46,0
17970,note_on,30,0,1,,,,,,,,,0,,,62,0
17970,note_on,0,0,1,,,,,,,,,0,,,70,0
18000,note_on,0,0,4,,,,,,,,,0,,,51,100
18000,note_on,30,0,4,,,,,,,,,0,,,55,100
18000,note_on,30,0,1,,,,,,,,,0,,,63,100
18000,note_on,0,0,1,,,,,,,,,0,,,67,100
18030,note_on,0,0,4,,,,,,,,,0,,,55,0
18030,note_on,30,0,4,,,,,,,,,0,,,51,0
18030,note_on,30,0,1,,,,,,,,,0,,,67,0
18030,note_on,0,0,1,,,,,,,,,0,,,63,0
18060,note_on,4620,0,3,,,,,,,,,0,,,67,100
18060,note_on,30,0,1,,,,,,,,,0,,,67,100
18060,note_on,0,0,3,,,,,,,,,0,,,63,100
18090,note_on,30,0,1,,,,,,,,,0,,,67,0
18090,note_on,0,0,3,,,,,,,,,0,,,67,0
18090,note_on,0,0,1,,,,,,,,,0,,,70,100
18090,note_on,30,0,3,,,,,,,,,0,,,63,0
18120,note_on,30,0,3,,,,,,,,,0,,,63,100
18120,note_on,30,0,1,,,,,,,,,0,,,70,0
18120,note_on,0,0,1,,,,,,,,,0,,,75,100
18120,note_on,0,0,3,,,,,,,,,0,,,67,100
18150,note_on,0,0,1,,,,,,,,,0,,,79,100
18150,note_on,0,0,3,,,,,,,,,0,,,63,0
18150,note_on,30,0,1,,,,,,,,,0,,,75,0
18150,note_on,30,0,3,,,,,,,,,0,,,67,0
18180,note_on,0,0,3,,,,,,,,,0,,,67,100
18180,note_on,30,0,3,,,,,,,,,0,,,63,100
18180,note_on,0,0,1,,,,,,,,,0,,,82,100
18180,note_on,30,0,1,,,,,,,,,0,,,79,0
18210,note_on,0,0,1,,,,,,,,,0,,,87,100
18210,note_on,30,0,3,,,,,,,,,0,,,67,0
18210,note_on,30,0,1,,,,,,,,,0,,,82,0
18210,note_on,0,0,3,,,,,,,,,0,,,63,0
18240,note_on,0,0,1,,,,,,,,,0,,,67,120
18240,note_on,210,0,4,,,,,,,,,0,,,58,120
18240,note_on,0,0,4,,,,,,,,,0,,,55,120
18240,note_on,30,0,1,,,,,,,,,0,,,87,0
18240,note_on,0,0,1,,,,,,,,,0,,,64,120
18240,note_on,0,0,1,,,,,,,,,0,,,73,120
18240,note_on,0,0,4,,,,,,,,,0,,,49,120
18300,note_on,0,0,4,,,,,,,,,0,,,58,0
18300,note_on,0,0,4,,,,,,,,,0,,,55,100
18300,note_on,0,0,4,,,,,,,,,0,,,48,100
18300,note_on,0,0,4,,,,,,,,,0,,,55,0
18300,note_on,0,0,4,,,,,,,,,0,,,58,100
18300,note_on,60,0,4,,,,,,,,,0,,,49,0
18300,note_on,0,0,1,,,,,,,,,0,,,72,100
18300,note_on,0,0,1,,,,,,,,,0,,,73,0
18300,note_on,0,0,1,,,,,,,,,0,,,67,100
18300,note_on,0,0,1,,,,,,,,,0,,,67,0
18300,note_on,60,0,1,,,,,,,,,0,,,64,0
18300,note_on,0,0,1,,,,,,,,,0,,,64,100
18330,note_on,0,0,1,,,,,,,,,0,,,67,0
18330,note_on,30,0,4,,,,,,,,,0,,,58,0
18330,note_on,0,0,4,,,,,,,,,0,,,55,0
18330,note_on,0,0,4,,,,,,,,,0,,,48,0
18330,note_on,30,0,1,,,,,,,,,0,,,64,0
18330,note_on,0,0,1,,,,,,,,,0,,,72,0
18360,note_on,30,0,1,,,,,,,,,0,,,72,100
18360,note_on,0,0,1,,,,,,,,,0,,,67,100
18360,note_on,0,0,1,,,,,,,,,0,,,64,100
18360,note_on,30,0,4,,,,,,,,,0,,,48,100
18360,note_on,0,0,4,,,,,,,,,0,,,55,100
18360,note_on,0,0,4,,,,,,,,,0,,,58,100
18390,note_on,0,0,4,,,,,,,,,0,,,48,0
18390,note_on,30,0,1,,,,,,,,,0,,,64,0
18390,note_on,0,0,1,,,,,,,,,0,,,67,0
18390,note_on,0,0,4,,,,,,,,,0,,,55,0
18390,note_on,30,0,4,,,,,,,,,0,,,58,0
18390,note_on,0,0,1,,,,,,,,,0,,,72,0
18420,note_on,30,0,1,,,,,,,,,0,,,72,100
18420,note_on,0,0,1,,,,,,,,,0,,,67,100
18420,note_on,0,0,1,,,,,,,,,0,,,64,100
18420,note_on,0,0,4,,,,,,,,,0,,,58,100
18420,note_on,0,0,4,,,,,,,,,0,,,55,100
18420,note_on,30,0,4,,,,,,,,,0,,,48,100
18450,note_on,0,0,4,,,,,,,,,0,,,48,0
18450,note_on,0,0,4,,,,,,,,,0,,,55,0
18450,note_on,30,0,4,,,,,,,,,0,,,58,0
18450,note_on,0,0,1,,,,,,,,,0,,,72,0
18450,note_on,30,0,1,,,,,,,,,0,,,64,0
18450,note_on,0,0,1,,,,,,,,,0,,,67,0
18480,note_on,0,0,4,,,,,,,,,0,,,53,100
18480,note_on,30,0,4,,,,,,,,,0,,,57,100
18480,note_on,30,0,1,,,,,,,,,0,,,69,100
18480,note_on,0,0,1,,,,,,,,,0,,,65,100
18510,note_on,0,0,1,,,,,,,,,0,,,69,0
18510,note_on,30,0,4,,,,,,,,,0,,,53,0
18510,note_on,0,0,4,,,,,,,,,0,,,57,0
18510,note_on,30,0,1,,,,,,,,,0,,,65,0
18540,note_on,330,0,3,,,,,,,,,0,,,69,100
18540,note_on,30,0,1,,,,,,,,,0,,,69,100
18540,note_on,0,0,3,,,,,,,,,0,,,65,100
18570,note_on,0,0,1,,,,,,,,,0,,,72,100
18570,note_on,0,0,3,,,,,,,,,0,,,69,0
18570,note_on,30,0,1,,,,,,,,,0,,,69,0
18570,note_on,30,0,3,,,,,,,,,0,,,65,0
18600,note_on,30,0,3,,,,,,,,,0,,,69,100
18600,note_on,0,0,3,,,,,,,,,0,,,65,100
18600,note_on,30,0,1,,,,,,,,,0,,,72,0
18600,note_on,0,0,1,,,,,,,,,0,,,77,100
18630,note_on,30,0,3,,,,,,,,,0,,,65,0
18630,note_on,0,0,3,,,,,,,,,0,,,69,0
18630,note_on,0,0,1,,,,,,,,,0,,,81,100
18630,note_on,30,0,1,,,,,,,,,0,,,77,0
18660,note_on,30,0,3,,,,,,,,,0,,,65,100
18660,note_on,30,0,1,,,,,,,,,0,,,81,0
18660,note_on,0,0,3,,,,,,,,,0,,,69,100
18660,note_on,0,0,1,,,,,,,,,0,,,84,100
18690,note_on,0,0,3,,,,,,,,,0,,,65,0
18690,note_on,0,0,1,,,,,,,,,0,,,89,100
18690,note_on,30,0,1,,,,,,,,,0,,,84,0
18690,note_on,30,0,3,,,,,,,,,0,,,69,0
18720,note_on,210,0,4,,,,,,,,,0,,,54,110
18720,note_on,0,0,4,,,,,,,,,0,,,66,110
18720,note_on,0,0,1,,,,,,,,,0,,,90,110
18720,note_on,0,0,1,,,,,,,,,0,,,78,110
18720,note_on,30,0,1,,,,,,,,,0,,,89,0
18780,note_on,0,0,1,,,,,,,,,0,,,77,109
18780,note_on,0,0,1,,,,,,,,,0,,,89,109
18780,note_on,0,0,1,,,,,,,,,0,,,78,0
18780,note_on,60,0,1,,,,,,,,,0,,,90,0
18780,note_on,0,0,4,,,,,,,,,0,,,53,109
18780,note_on,60,0,4,,,,,,,,,0,,,66,0
18780,note_on,0,0,4,,,,,,,,,0,,,65,109
18780,note_on,0,0,4,,,,,,,,,0,,,54,0
18810,note_on,30,0,1,,,,,,,,,0,,,89,0
18810,note_on,0,0,1,,,,,,,,,0,,,77,0
18810,note_on,0,0,4,,,,,,,,,0,,,53,0
18810,note_on,30,0,4,,,,,,,,,0,,,65,0
18840,note_on,30,0,1,,,,,,,,,0,,,77,107
18840,note_on,0,0,1,,,,,,,,,0,,,89,107
18840,note_on,0,0,4,,,,,,,,,0,,,65,107
18840,note_on,30,0,4,,,,,,,,,0,,,53,107
18900,note_on,60,0,1,,,,,,,,,0,,,89,0
18900,note_on,0,0,1,,,,,,,,,0,,,77,0
18900,note_on,0,0,1,,,,,,,,,0,,,76,106
18900,note_on,0,0,1,,,,,,,,,0,,,88,106
18900,note_on,0,0,4,,,,,,,,,0,,,53,0
18900,note_on,60,0,4,,,,,,,,,0,,,65,0
18900,note_on,0,0,4,,,,,,,,,0,,,64,106
18900,note_on,0,0,4,,,,,,,,,0,,,52,106
18930,note_on,0,0,4,,,,,,,,,0,,,52,0
18930,note_on,30,0,4,,,,,,,,,0,,,64,0
18930,note_on,30,0,1,,,,,,,,,0,,,88,0
18930,note_on,0,0,1,,,,,,,,,0,,,76,0
18960,note_on,30,0,1,,,,,,,,,0,,,76,104
18960,note_on,0,0,4,,,,,,,,,0,,,64,104
18960,note_on,30,0,4,,,,,,,,,0,,,52,104
18960,note_on,0,0,1,,,,,,,,,0,,,88,104
19020,note_on,0,0,1,,,,,,,,,0,,,76,0
19020,note_on,0,0,4,,,,,,,,,0,,,52,0
19020,note_on,0,0,1,,,,,,,,,0,,,89,102
19020,note_on,0,0,4,,,,,,,,,0,,,65,102
19020,note_on,0,0,4,,,,,,,,,0,,,53,102
19020,note_on,60,0,1,,,,,,,,,0,,,88,0
19020,note_on,60,0,4,,,,,,,,,0,,,64,0
19020,note_on,0,0,1,,,,,,,,,0,,,77,102
19050,note_on,0,0,1,,,,,,,,,0,,,77,0
19050,note_on,30,0,1,,,,,,,,,0,,,89,0
19050,note_on,30,0,4,,,,,,,,,0,,,65,0
19050,note_on,0,0,4,,,,,,,,,0,,,53,0
19080,note_on,30,0,1,,,,,,,,,0,,,77,101
19080,note_on,0,0,1,,,,,,,,,0,,,89,101
19080,note_on,0,0,4,,,,,,,,,0,,,65,101
19080,note_on,30,0,4,,,,,,,,,0,,,53,101
19140,note_on,60,0,1,,,,,,,,,0,,,89,0
19140,note_on,0,0,1,,,,,,,,,0,,,77,0
19140,note_on,0,0,1,,,,,,,,,0,,,72,99
19140,note_on,0,0,4,,,,,,,,,0,,,60,99
19140,note_on,60,0,4,,,,,,,,,0,,,65,0
19140,note_on,0,0,4,,,,,,,,,0,,,53,0
19140,note_on,0,0,4,,,,,,,,,0,,,48,99
19140,note_on,0,0,1,,,,,,,,,0,,,84,99
19170,note_on,0,0,4,,,,,,,,,0,,,48,0
19170,note_on,30,0,4,,,,,,,,,0,,,60,0
19170,note_on,30,0,1,,,,,,,,,0,,,84,0
19170,note_on,0,0,1,,,,,,,,,0,,,72,0
19200,note_on,30,0,4,,,,,,,,,0,,,46,98
19200,note_on,0,0,4,,,,,,,,,0,,,58,98
19200,note_on,0,0,1,,,,,,,,,0,,,82,98
19200,note_on,30,0,1,,,,,,,,,0,,,70,98
19260,note_on,0,0,1,,,,,,,,,0,,,70,0
19260,note_on,0,0,4,,,,,,,,,0,,,46,0
19260,note_on,0,0,4,,,,,,,,,0,,,45,96
19260,note_on,0,0,4,,,,,,,,,0,,,57,96
19260,note_on,0,0,1,,,,,,,,,0,,,81,96
19260,note_on,0,0,1,,,,,,,,,0,,,69,96
19260,note_on,60,0,4,,,,,,,,,0,,,58,0
19260,note_on,60,0,1,,,,,,,,,0,,,82,0
19290,note_on,30,0,1,,,,,,,,,0,,,81,0
19290,note_on,0,0,1,,,,,,,,,0,,,69,0
19290,note_on,30,0,4,,,,,,,,,0,,,57,0
19290,note_on,0,0,4,,,,,,,,,0,,,45,0
19320,note_on,0,0,4,,,,,,,,,0,,,57,94
19320,note_on,30,0,1,,,,,,,,,0,,,69,94
19320,note_on,0,0,1,,,,,,,,,0,,,81,94
19320,note_on,30,0,4,,,,,,,,,0,,,45,94
19380,note_on,60,0,1,,,,,,,,,0,,,81,0
19380,note_on,0,0,1,,,,,,,,,0,,,69,0
19380,note_on,0,0,1,,,,,,,,,0,,,67,93
19380,note_on,0,0,1,,,,,,,,,0,,,79,93
19380,note_on,60,0,4,,,,,,,,,0,,,57,0
19380,note_on,0,0,4,,,,,,,,,0,,,55,93
19380,note_on,0,0,4,,,,,,,,,0,,,43,93
19380,note_on,0,0,4,,,,,,,,,0,,,45,0
19410,note_on,0,0,1,,,,,,,,,0,,,67,0
19410,note_on,30,0,1,,,,,,,,,0,,,79,0
19410,note_on,0,0,4,,,,,,,,,0,,,43,0
19410,note_on,30,0,4,,,,,,,,,0,,,55,0
19440,note_on,30,0,1,,,,,,,,,0,,,67,91
19440,note_on,0,0,1,,,,,,,,,0,,,79,91
19440,note_on,30,0,4,,,,,,,,,0,,,43,91
19440,note_on,0,0,4,,,,,,,,,0,,,55,91
19500,note_on,0,0,1,,,,,,,,,0,,,67,0
19500,note_on,0,0,1,,,,,,,,,0,,,77,89
19500,note_on,0,0,1,,,,,,,,,0,,,65,89
19500,note_on,60,0,4,,,,,,,,,0,,,55,0
19500,note_on,0,0,4,,,,,,,,,0,,,43,0
19500,note_on,0,0,4,,,,,,,,,0,,,41,89
19500,note_on,0,0,4,,,,,,,,,0,,,53,89
19500,note_on,60,0,1,,,,,,,,,0,,,79,0
19530,note_on,0,0,4,,,,,,,,,0,,,41,0
19530,note_on,30,0,4,,,,,,,,,0,,,53,0
19530,note_on,30,0,1,,,,,,,,,0,,,77,0
19530,note_on,0,0,1,,,,,,,,,0,,,65,0
19560,note_on,30,0,1,,,,,,,,,0,,,65,88
19560,note_on,0,0,1,,,,,,,,,0,,,77,88
19560,note_on,0,0,4,,,,,,,,,0,,,53,88
19560,note_on,30,0,4,,,,,,,,,0,,,41,88
19590,note_on,30,0,4,,,,,,,,,0,,,53,0
19590,note_on,0,0,4,,,,,,,,,0,,,41,0
19590,note_on,30,0,1,,,,,,,,,0,,,77,0
19590,note_on,0,0,1,,,,,,,,,0,,,65,0
19620,note_on,30,0,4,,,,,,,,,0,,,41,86
19620,note_on,0,0,4,,,,,,,,,0,,,53,86
19620,note_on,30,0,1,,,,,,,,,0,,,65,86
19620,note_on,0,0,1,,,,,,,,,0,,,77,86
19650,note_on,30,0,1,,,,,,,,,0,,,77,0
19650,note_on,30,0,4,,,,,,,,,0,,,53,0
19650,note_on,0,0,1,,,,,,,,,0,,,65,0
19650,note_on,0,0,4,,,,,,,,,0,,,41,0
19680,note_on,30,0,4,,,,,,,,,0,,,42,85
19680,note_on,0,0,4,,,,,,,,,0,,,54,85
19680,note_on,30,0,1,,,,,,,,,0,,,66,85
19680,note_on,0,0,1,,,,,,,,,0,,,78,85
19740,note_on,60,0,1,,,,,,,,,0,,,78,0
19740,note_on,0,0,1,,,,,,,,,0,,,65,83
19740,note_on,0,0,1,,,,,,,,,0,,,77,83
19740,note_on,0,0,4,,,,,,,,,0,,,53,83
19740,note_on,0,0,4,,,,,,,,,0,,,41,83
19740,note_on,0,0,4,,,,,,,,,0,,,42,0
19740,note_on,60,0,4,,,,,,,,,0,,,54,0
19740,note_on,0,0,1,,,,,,,,,0,,,66,0
19770,note_on,0,0,1,,,,,,,,,0,,,65,0
19770,note_on,0,0,4,,,,,,,,,0,,,41,0
19770,note_on,30,0,4,,,,,,,,,0,,,53,0
19770,note_on,30,0,1,,,,,,,,,0,,,77,0
19800,note_on,30,0,1,,,,,,,,,0,,,65,81
19800,note_on,0,0,1,,,,,,,,,0,,,77,81
19800,note_on,30,0,4,,,,,,,,,0,,,41,81
19800,note_on,0,0,4,,,,,,,,,0,,,53,81
19860,note_on,0,0,4,,,,,,,,,0,,,40,80
19860,note_on,0,0,1,,,,,,,,,0,,,65,0
19860,note_on,0,0,1,,,,,,,,,0,,,64,80
19860,note_on,0,0,1,,,,,,,,,0,,,76,80
19860,note_on,0,0,4,,,,,,,,,0,,,41,0
19860,note_on,60,0,4,,,,,,,,,0,,,53,0
19860,note_on,0,0,4,,,,,,,,,0,,,52,80
19860,note_on,60,0,1,,,,,,,,,0,,,77,0
19890,note_on,0,0,1,,,,,,,,,0,,,64,0
19890,note_on,0,0,4,,,,,,,,,0,,,40,0
19890,note_on,30,0,4,,,,,,,,,0,,,52,0
19890,note_on,30,0,1,,,,,,,,,0,,,76,0
19920,note_on,30,0,1,,,,,,,,,0,,,64,78
19920,note_on,0,0,1,,,,,,,,,0,,,76,78
19920,note_on,0,0,4,,,,,,,,,0,,,52,78
19920,note_on,30,0,4,,,,,,,,,0,,,40,78
19980,note_on,0,0,4,,,,,,,,,0,,,53,76
19980,note_on,0,0,1,,,,,,,,,0,,,64,0
19980,note_on,0,0,1,,,,,,,,,0,,,65,76
19980,note_on,0,0,1,,,,,,,,,0,,,77,76
19980,note_on,0,0,4,,,,,,,,,0,,,41,76
19980,note_on,0,0,4,,,,,,,,,0,,,40,0
19980,note_on,60,0,4,,,,,,,,,0,,,52,0
19980,note_on,60,0,1,,,,,,,,,0,,,76,0
20010,note_on,30,0,1,,,,,,,,,0,,,77,0
20010,note_on,0,0,4,,,,,,,,,0,,,41,0
20010,note_on,30,0,4,,,,,,,,,0,,,53,0
20010,note_on,0,0,1,,,,,,,,,0,,,65,0
20040,note_on,30,0,4,,,,,,,,,0,,,41,75
20040,note_on,0,0,1,,,,,,,,,0,,,77,75
20040,note_on,0,0,4,,,,,,,,,0,,,53,75
20040,note_on,30,0,1,,,,,,,,,0,,,65,75
20100,note_on,0,0,4,,,,,,,,,0,,,48,73
20100,note_on,0,0,4,,,,,,,,,0,,,41,0
20100,note_on,0,0,4,,,,,,,,,0,,,36,73
20100,note_on,60,0,4,,,,,,,,,0,,,53,0
20100,note_on,0,0,1,,,,,,,,,0,,,65,0
20100,note_on,0,0,1,,,,,,,,,0,,,60,73
20100,note_on,0,0,1,,,,,,,,,0,,,72,73
20100,note_on,60,0,1,,,,,,,,,0,,,77,0
20130,note_on,30,0,1,,,,,,,,,0,,,72,0
20130,note_on,0,0,1,,,,,,,,,0,,,60,0
20130,note_on,0,0,4,,,,,,,,,0,,,36,0
20130,note_on,30,0,4,,,,,,,,,0,,,48,0
20160,note_on,0,0,4,,,,,,,,,0,,,46,72
20160,note_on,30,0,4,,,,,,,,,0,,,34,72
20160,note_on,0,0,1,,,,,,,,,0,,,70,72
20160,note_on,30,0,1,,,,,,,,,0,,,58,72
20220,note_on,0,0,1,,,,,,,,,0,,,69,70
20220,note_on,0,0,1,,,,,,,,,0,,,58,0
20220,note_on,60,0,1,,,,,,,,,0,,,70,0
20220,note_on,0,0,4,,,,,,,,,0,,,45,70
20220,note_on,0,0,4,,,,,,,,,0,,,33,70
20220,note_on,0,0,4,,,,,,,,,0,,,34,0
20220,note_on,60,0,4,,,,,,,,,0,,,46,0
20220,note_on,0,0,1,,,,,,,,,0,,,57,70
20250,note_on,0,0,1,,,,,,,,,0,,,57,0
20250,note_on,0,0,4,,,,,,,,,0,,,33,0
20250,note_on,30,0,4,,,,,,,,,0,,,45,0
20250,note_on,30,0,1,,,,,,,,,0,,,69,0
20280,note_on,30,0,4,,,,,,,,,0,,,33,68
20280,note_on,30,0,1,,,,,,,,,0,,,57,68
20280,note_on,0,0,1,,,,,,,,,0,,,69,68
20280,note_on,0,0,4,,,,,,,,,0,,,45,68
20340,note_on,0,0,4,,,,,,,,,0,,,33,0
20340,note_on,0,0,4,,,,,,,,,0,,,31,67
20340,note_on,0,0,4,,,,,,,,,0,,,43,67
20340,note_on,60,0,4,,,,,,,,,0,,,45,0
20340,note_on,60,0,1,,,,,,,,,0,,,69,0
20340,note_on,0,0,1,,,,,,,,,0,,,57,0
20340,note_on,0,0,1,,,,,,,,,0,,,55,67
20340,note_on,0,0,1,,,,,,,,,0,,,67,67
20370,note_on,30,0,1,,,,,,,,,0,,,67,0
20370,note_on,30,0,4,,,,,,,,,0,,,43,0
20370,note_on,0,0,4,,,,,,,,,0,,,31,0
20370,note_on,0,0,1,,,,,,,,,0,,,55,0
20400,note_on,30,0,1,,,,,,,,,0,,,55,65
20400,note_on,0,0,1,,,,,,,,,0,,,67,65
20400,note_on,30,0,4,,,,,,,,,0,,,31,65
20400,note_on,0,0,4,,,,,,,,,0,,,43,65
20460,note_on,60,0,1,,,,,,,,,0,,,67,0
20460,note_on,0,0,1,,,,,,,,,0,,,55,0
20460,note_on,0,0,1,,,,,,,,,0,,,53,63
20460,note_on,0,0,1,,,,,,,,,0,,,65,63
20460,note_on,0,0,4,,,,,,,,,0,,,31,0
20460,note_on,0,0,4,,,,,,,,,0,,,29,63
20460,note_on,0,0,4,,,,,,,,,0,,,41,63
20460,note_on,60,0,4,,,,,,,,,0,,,43,0
20490,note_on,30,0,4,,,,,,,,,0,,,41,0
20490,note_on,0,0,1,,,,,,,,,0,,,53,0
20490,note_on,30,0,1,,,,,,,,,0,,,65,0
20490,note_on,0,0,4,,,,,,,,,0,,,29,0
20520,note_on,30,0,4,,,,,,,,,0,,,29,62
20520,note_on,0,0,4,,,,,,,,,0,,,41,62
20520,note_on,0,0,1,,,,,,,,,0,,,65,62
20520,note_on,30,0,1,,,,,,,,,0,,,53,62
20550,note_on,0,0,1,,,,,,,,,0,,,53,0
20550,note_on,30,0,4,,,,,,,,,0,,,41,0
20550,note_on,0,0,4,,,,,,,,,0,,,29,0
20550,note_on,30,0,1,,,,,,,,,0,,,65,0
20580,note_on,30,0,4,,,,,,,,,0,,,29,60
20580,note_on,0,0,4,,,,,,,,,0,,,41,60
20580,note_on,0,0,1,,,,,,,,,0,,,65,60
20580,note_on,30,0,1,,,,,,,,,0,,,53,60
20610,note_on,0,0,4,,,,,,,,,0,,,29,0
20610,note_on,30,0,1,,,,,,,,,0,,,65,0
20610,note_on,0,0,1,,,,,,,,,0,,,53,0
20610,note_on,30,0,4,,,,,,,,,0,,,41,0
20640,note_on,30,0,1,,,,,,,,,0,,,65,60
20640,note_on,0,0,1,,,,,,,,,0,,,53,60
20640,note_on,30,0,4,,,,,,,,,0,,,41,60
20700,note_on,60,0,4,,,,,,,,,0,,,41,0
20700,note_on,0,0,4,,,,,,,,,0,,,41,60
20700,note_on,60,0,1,,,,,,,,,0,,,53,0
20700,note_on,0,0,1,,,,,,,,,0,,,65,0
20700,note_on,0,0,1,,,,,,,,,0,,,53,60
20700,note_on,0,0,1,,,,,,,,,0,,,65,60
20760,note_on,60,0,1,,,,,,,,,0,,,53,0
20760,note_on,0,0,1,,,,,,,,,0,,,53,60
20760,note_on,0,0,4,,,,,,,,,0,,,41,60
20760,note_on,60,0,4,,,,,,,,,0,,,41,0
20760,note_on,0,0,1,,,,,,,,,0,,,65,60
20760,note_on,0,0,1,,,,,,,,,0,,,65,0
20820,note_on,0,0,4,,,,,,,,,0,,,41,60
20820,note_on,60,0,4,,,,,,,,,0,,,41,0
20820,note_on,0,0,1,,,,,,,,,0,,,65,60
20820,note_on,0,0,1,,,,,,,,,0,,,53,60
20820,note_on,0,0,1,,,,,,,,,0,,,65,0
20820,note_on,60,0,1,,,,,,,,,0,,,53,0
20880,note_on,0,0,1,,,,,,,,,0,,,65,60
20880,note_on,0,0,1,,,,,,,,,0,,,65,0
20880,note_on,60,0,1,,,,,,,,,0,,,53,0
20880,note_on,60,0,4,,,,,,,,,0,,,41,0
20880,note_on,0,0,4,,,,,,,,,0,,,41,60
20880,note_on,0,0,1,,,,,,,,,0,,,53,60
20940,note_on,0,0,4,,,,,,,,,0,,,41,60
20940,note_on,60,0,4,,,,,,,,,0,,,41,0
20940,note_on,0,0,1,,,,,,,,,0,,,53,60
20940,note_on,0,0,1,,,,,,,,,0,,,65,60
20940,note_on,0,0,1,,,,,,,,,0,,,65,0
20940,note_on,60,0,1,,,,,,,,,0,,,53,0
21000,note_on,0,0,1,,,,,,,,,0,,,65,0
21000,note_on,0,0,1,,,,,,,,,0,,,53,60
21000,note_on,60,0,1,,,,,,,,,0,,,53,0
21000,note_on,0,0,1,,,,,,,,,0,,,65,60
21000,note_on,60,0,4,,,,,,,,,0,,,41,0
21000,note_on,0,0,4,,,,,,,,,0,,,41,60
21060,note_on,0,0,1,,,,,,,,,0,,,53,60
21060,note_on,60,0,4,,,,,,,,,0,,,41,0
21060,note_on,0,0,4,,,,,,,,,0,,,41,60
21060,note_on,60,0,1,,,,,,,,,0,,,53,0
21060,note_on,0,0,1,,,,,,,,,0,,,65,0
21060,note_on,0,0,1,,,,,,,,,0,,,65,60
21120,note_on,0,0,4,,,,,,,,,0,,,52,60
21120,note_on,0,0,1,,,,,,,,,0,,,58,60
21120,note_on,0,0,1,,,,,,,,,0,,,65,0
21120,note_on,0,0,1,,,,,,,,,0,,,55,60
21120,note_on,60,0,4,,,,,,,,,0,,,41,0
21120,note_on,0,0,1,,,,,,,,,0,,,61,60
21120,note_on,0,0,1,,,,,,,,,0,,,64,60
21120,note_on,60,0,1,,,,,,,,,0,,,53,0
21180,note_on,60,0,1,,,,,,,,,0,,,64,0
21180,note_on,0,0,1,,,,,,,,,0,,,55,0
21180,note_on,0,0,1,,,,,,,,,0,,,63,40
21180,note_on,0,0,1,,,,,,,,,0,,,61,0
21180,note_on,0,0,1,,,,,,,,,0,,,58,0
21180,note_on,0,0,4,,,,,,,,,0,,,51,40
21180,note_on,60,0,4,,,,,,,,,0,,,52,0
21210,note_on,30,0,1,,,,,,,,,0,,,63,0
21210,note_on,30,0,4,,,,,,,,,0,,,51,0
21240,note_on,0,0,1,,,,,,,,,0,,,63,40
21240,note_on,0,0,1,,,,,,,,,0,,,61,40
21240,note_on,0,0,1,,,,,,,,,0,,,58,40
21240,note_on,30,0,1,,,,,,,,,0,,,55,40
21240,note_on,30,0,4,,,,,,,,,0,,,51,40
21300,note_on,0,0,1,,,,,,,,,0,,,63,40
21300,note_on,0,0,1,,,,,,,,,0,,,61,0
21300,note_on,0,0,1,,,,,,,,,0,,,58,0
21300,note_on,0,0,1,,,,,,,,,0,,,55,0
21300,note_on,60,0,1,,,,,,,,,0,,,63,0
21300,note_on,0,0,1,,,,,,,,,0,,,61,40
21300,note_on,60,0,4,,,,,,,,,0,,,51,0
21300,note_on,0,0,4,,,,,,,,,0,,,51,40
21300,note_on,0,0,1,,,,,,,,,0,,,58,40
21300,note_on,0,0,1,,,,,,,,,0,,,55,40
21360,note_on,0,0,1,,,,,,,,,0,,,63,40
21360,note_on,60,0,4,,,,,,,,,0,,,51,0
21360,note_on,0,0,4,,,,,,,,,0,,,51,40
21360,note_on,0,0,1,,,,,,,,,0,,,55,40
21360,note_on,0,0,1,,,,,,,,,0,,,61,0
21360,note_on,0,0,1,,,,,,,,,0,,,55,0
21360,note_on,0,0,1,,,,,,,,,0,,,58,0
21360,note_on,60,0,1,,,,,,,,,0,,,63,0
21360,note_on,0,0,1,,,,,,,,,0,,,58,40
21360,note_on,0,0,1,,,,,,,,,0,,,61,40
21420,note_on,0,0,1,,,,,,,,,0,,,58,0
21420,note_on,0,0,1,,,,,,,,,0,,,61,0
21420,note_on,60,0,1,,,,,,,,,0,,,63,0
21420,note_on,0,0,1,,,,,,,,,0,,,58,40
21420,note_on,0,0,1,,,,,,,,,0,,,55,40
21420,note_on,0,0,1,,,,,,,,,0,,,61,40
21420,note_on,0,0,1,,,,,,,,,0,,,63,40
21420,note_on,0,0,4,,,,,,,,,0,,,51,40
21420,note_on,60,0,4,,,,,,,,,0,,,51,0
21420,note_on,0,0,1,,,,,,,,,0,,,55,0
21480,note_on,60,0,1,,,,,,,,,0,,,63,0
21480,note_on,0,0,1,,,,,,,,,0,,,58,0
21480,note_on,0,0,1,,,,,,,,,0,,,55,0
21480,note_on,0,0,1,,,,,,,,,0,,,61,0
21480,note_on,0,0,1,,,,,,,,,0,,,63,40
21480,note_on,0,0,1,,,,,,,,,0,,,55,40
21480,note_on,0,0,1,,,,,,,,,0,,,61,40
21480,note_on,60,0,4,,,,,,,,,0,,,51,0
21480,note_on,0,0,4,,,,,,,,,0,,,51,40
21480,note_on,0,0,1,,,,,,,,,0,,,58,40
21540,note_on,0,0,1,,,,,,,,,0,,,55,40
21540,note_on,0,0,1,,,,,,,,,0,,,58,40
21540,note_on,0,0,1,,,,,,,,,0,,,61,0
21540,note_on,0,0,1,,,,,,,,,0,,,58,0
21540,note_on,0,0,1,,,,,,,,,0,,,55,0
21540,note_on,60,0,1,,,,,,,,,0,,,63,0
21540,note_on,0,0,1,,,,,,,,,0,,,63,40
21540,note_on,0,0,1,,,,,,,,,0,,,61,40
21540,note_on,0,0,4,,,,,,,,,0,,,51,40
21540,note_on,60,0,4,,,,,,,,,0,,,51,0
21600,note_on,0,0,1,,,,,,,,,0,,,56,40
21600,note_on,0,0,1,,,,,,,,,0,,,61,0
21600,note_on,0,0,1,,,,,,,,,0,,,55,0
21600,note_on,0,0,1,,,,,,,,,0,,,58,0
21600,note_on,60,0,1,,,,,,,,,0,,,63,0
21600,note_on,0,0,1,,,,,,,,,0,,,60,40
21600,note_on,0,0,1,,,,,,,,,0,,,63,40
21600,note_on,60,0,4,,,,,,,,,0,,,51,0
21600,note_on,0,0,4,,,,,,,,,0,,,44,60
21660,note_on,0,0,1,,,,,,,,,0,,,63,40
21660,note_on,0,0,1,,,,,,,,,0,,,68,40
21660,note_on,0,0,1,,,,,,,,,0,,,72,40
21660,note_on,0,0,1,,,,,,,,,0,,,60,0
21660,note_on,60,0,1,,,,,,,,,0,,,63,0
21660,note_on,0,0,1,,,,,,,,,0,,,56,0
21660,note_on,60,0,4,,,,,,,,,0,,,51,40
21690,note_on,30,0,1,,,,,,,,,0,,,63,0
21690,note_on,0,0,1,,,,,,,,,0,,,68,0
21690,note_on,0,0,1,,,,,,,,,0,,,72,0
21720,note_on,60,0,4,,,,,,,,,0,,,51,0
21720,note_on,30,0,1,,,,,,,,,0,,,63,40
21720,note_on,0,0,1,,,,,,,,,0,,,68,40
21720,note_on,0,0,4,,,,,,,,,0,,,51,40
21720,note_on,0,0,1,,,,,,,,,0,,,72,40
21780,note_on,0,0,1,,,,,,,,,0,,,72,40
21780,note_on,60,0,1,,,,,,,,,0,,,72,0
21780,note_on,0,0,1,,,,,,,,,0,,,68,0
21780,note_on,0,0,1,,,,,,,,,0,,,68,40
21780,note_on,0,0,1,,,,,,,,,0,,,63,0
21780,note_on,0,0,4,,,,,,,,,0,,,51,40
21780,note_on,60,0,4,,,,,,,,,0,,,51,0
21780,note_on,0,0,1,,,,,,,,,0,,,63,40
21840,note_on,0,0,4,,,,,,,,,0,,,51,40
21840,note_on,60,0,1,,,,,,,,,0,,,72,0
21840,note_on,60,0,4,,,,,,,,,0,,,51,0
21840,note_on,0,0,1,,,,,,,,,0,,,62,40
21840,note_on,0,0,1,,,,,,,,,0,,,71,40
21840,note_on,0,0,1,,,,,,,,,0,,,63,0
21840,note_on,0,0,1,,,,,,,,,0,,,68,40
21840,note_on,0,0,1,,,,,,,,,0,,,68,0
21900,note_on,60,0,4,,,,,,,,,0,,,51,0
21900,note_on,0,0,4,,,,,,,,,0,,,56,40
21900,note_on,0,0,1,,,,,,,,,0,,,72,40
21900,note_on,0,0,1,,,,,,,,,0,,,63,40
21900,note_on,0,0,1,,,,,,,,,0,,,71,0
21900,note_on,0,0,1,,,,,,,,,0,,,68,0
21900,note_on,60,0,1,,,,,,,,,0,,,62,0
21900,note_on,0,0,1,,,,,,,,,0,,,68,40
21930,note_on,30,0,1,,,,,,,,,0,,,72,0
21930,note_on,0,0,1,,,,,,,,,0,,,63,0
21930,note_on,30,0,4,,,,,,,,,0,,,56,0
21930,note_on,0,0,1,,,,,,,,,0,,,68,0
21960,note_on,30,0,1,,,,,,,,,0,,,63,40
21960,note_on,0,0,1,,,,,,,,,0,,,72,40
21960,note_on,0,0,1,,,,,,,,,0,,,68,40
21960,note_on,30,0,4,,,,,,,,,0,,,56,40
22020,note_on,0,0,1,,,,,,,,,0,,,63,0
22020,note_on,0,0,1,,,,,,,,,0,,,68,40
22020,note_on,0,0,1,,,,,,,,,0,,,72,40
22020,note_on,0,0,4,,,,,,,,,0,,,56,40
22020,note_on,60,0,4,,,,,,,,,0,,,56,0
22020,note_on,60,0,1,,,,,,,,,0,,,72,0
22020,note_on,0,0,1,,,,,,,,,0,,,68,0
22020,note_on,0,0,1,,,,,,,,,0,,,63,40
22080,note_on,0,0,4,,,,,,,,,0,,,49,60
22080,note_on,0,0,1,,,,,,,,,0,,,68,0
22080,note_on,60,0,1,,,,,,,,,0,,,72,0
22080,note_on,0,0,1,,,,,,,,,0,,,75,40
22080,note_on,0,0,1,,,,,,,,,0,,,66,40
22080,note_on,60,0,4,,,,,,,,,0,,,56,0
22080,note_on,0,0,4,,,,,,,,,0,,,44,0
22080,note_on,0,0,1,,,,,,,,,0,,,63,0
22080,note_on,0,0,1,,,,,,,,,0,,,68,40
22140,note_on,0,0,1,,,,,,,,,0,,,68,40
22140,note_on,0,0,1,,,,,,,,,0,,,66,0
22140,note_on,0,0,1,,,,,,,,,0,,,75,0
22140,note_on,0,0,1,,,,,,,,,0,,,65,40
22140,note_on,0,0,1,,,,,,,,,0,,,73,40
22140,note_on,60,0,1,,,,,,,,,0,,,68,0
22140,note_on,60,0,4,,,,,,,,,0,,,56,40
22170,note_on,30,0,1,,,,,,,,,0,,,73,0
22170,note_on,0,0,1,,,,,,,,,0,,,65,0
22170,note_on,0,0,1,,,,,,,,,0,,,68,0
22200,note_on,0,0,4,,,,,,,,,0,,,56,40
22200,note_on,0,0,1,,,,,,,,,0,,,73,40
22200,note_on,0,0,1,,,,,,,,,0,,,68,40
22200,note_on,30,0,1,,,,,,,,,0,,,65,40
22200,note_on,60,0,4,,,,,,,,,0,,,56,0
22260,note_on,0,0,4,,,,,,,,,0,,,56,40
22260,note_on,0,0,1,,,,,,,,,0,,,73,40
22260,note_on,0,0,1,,,,,,,,,0,,,65,40
22260,note_on,0,0,1,,,,,,,,,0,,,68,40
22260,note_on,0,0,1,,,,,,,,,0,,,65,0
22260,note_on,0,0,1,,,,,,,,,0,,,68,0
22260,note_on,60,0,1,,,,,,,,,0,,,73,0
22260,note_on,60,0,4,,,,,,,,,0,,,56,0
22320,note_on,0,0,1,,,,,,,,,0,,,68,40
22320,note_on,0,0,1,,,,,,,,,0,,,73,40
22320,note_on,0,0,1,,,,,,,,,0,,,68,0
22320,note_on,0,0,1,,,,,,,,,0,,,65,0
22320,note_on,60,0,1,,,,,,,,,0,,,73,0
22320,note_on,0,0,1,,,,,,,,,0,,,65,40
22320,note_on,60,0,4,,,,,,,,,0,,,56,0
22320,note_on,0,0,4,,,,,,,,,0,,,56,40
22380,note_on,60,0,4,,,,,,,,,0,,,56,0
22380,note_on,0,0,1,,,,,,,,,0,,,72,40
22380,note_on,0,0,1,,,,,,,,,0,,,65,40
22380,note_on,0,0,1,,,,,,,,,0,,,63,40
22380,note_on,0,0,1,,,,,,,,,0,,,73,0
22380,note_on,0,0,1,,,,,,,,,0,,,68,0
22380,note_on,60,0,1,,,,,,,,,0,,,65,0
22380,note_on,0,0,4,,,,,,,,,0,,,57,40
22440,note_on,60,0,1,,,,,,,,,0,,,72,0
22440,note_on,0,0,1,,,,,,,,,0,,,65,40
22440,note_on,0,0,1,,,,,,,,,0,,,63,0
22440,note_on,60,0,4,,,,,,,,,0,,,57,0
22440,note_on,0,0,4,,,,,,,,,0,,,58,40
22440,note_on,0,0,1,,,,,,,,,0,,,70,40
22440,note_on,0,0,1,,,,,,,,,0,,,65,0
22440,note_on,0,0,1,,,,,,,,,0,,,61,40
22500,note_on,60,0,1,,,,,,,,,0,,,70,0
22500,note_on,0,0,1,,,,,,,,,0,,,65,0
22500,note_on,0,0,1,,,,,,,,,0,,,61,0
22500,note_on,0,0,1,,,,,,,,,0,,,60,40
22500,note_on,0,0,1,,,,,,,,,0,,,68,40
22500,note_on,0,0,1,,,,,,,,,0,,,65,40
22500,note_on,60,0,4,,,,,,,,,0,,,58,0
22500,note_on,0,0,4,,,,,,,,,0,,,49,0
22500,note_on,0,0,4,,,,,,,,,0,,,53,40
22500,note_on,0,0,4,,,,,,,,,0,,,50,60
22560,note_on,0,0,4,,,,,,,,,0,,,53,0
22560,note_on,60,0,1,,,,,,,,,0,,,60,0
22560,note_on,0,0,1,,,,,,,,,0,,,65,0
22560,note_on,0,0,1,,,,,,,,,0,,,68,0
22560,note_on,0,0,1,,,,,,,,,0,,,60,40
22560,note_on,0,0,1,,,,,,,,,0,,,63,40
22560,note_on,0,0,1,,,,,,,,,0,,,68,40
22560,note_on,0,0,4,,,,,,,,,0,,,39,60
22560,note_on,60,0,4,,,,,,,,,0,,,50,0
22620,note_on,60,0,4,,,,,,,,,0,,,51,40
22620,note_on,0,0,1,,,,,,,,,0,,,60,0
22620,note_on,0,0,1,,,,,,,,,0,,,67,40
22620,note_on,0,0,1,,,,,,,,,0,,,63,40
22620,note_on,0,0,1,,,,,,,,,0,,,58,40
22620,note_on,60,0,1,,,,,,,,,0,,,68,0
22620,note_on,0,0,1,,,,,,,,,0,,,63,0
22650,note_on,30,0,1,,,,,,,,,0,,,58,0
22650,note_on,0,0,1,,,,,,,,,0,,,67,0
22650,note_on,0,0,1,,,,,,,,,0,,,63,0
22680,note_on,30,0,1,,,,,,,,,0,,,63,40
22680,note_on,0,0,1,,,,,,,,,0,,,67,40
22680,note_on,0,0,1,,,,,,,,,0,,,58,40
22680,note_on,0,0,4,,,,,,,,,0,,,51,40
22680,note_on,60,0,4,,,,,,,,,0,,,51,0
22740,note_on,0,0,4,,,,,,,,,0,,,51,40
22740,note_on,60,0,4,,,,,,,,,0,,,51,0
22740,note_on,0,0,1,,,,,,,,,0,,,67,40
22740,note_on,0,0,1,,,,,,,,,0,,,63,40
22740,note_on,0,0,1,,,,,,,,,0,,,63,0
22740,note_on,0,0,1,,,,,,,,,0,,,67,0
22740,note_on,60,0,1,,,,,,,,,0,,,58,0
22740,note_on,0,0,1,,,,,,,,,0,,,58,40
22800,note_on,60,0,4,,,,,,,,,0,,,51,0
22800,note_on,0,0,4,,,,,,,,,0,,,51,40
22800,note_on,0,0,1,,,,,,,,,0,,,67,40
22800,note_on,0,0,1,,,,,,,,,0,,,63,40
22800,note_on,0,0,1,,,,,,,,,0,,,58,40
22800,note_on,0,0,1,,,,,,,,,0,,,67,0
22800,note_on,60,0,1,,,,,,,,,0,,,58,0
22800,note_on,0,0,1,,,,,,,,,0,,,63,0
22860,note_on,0,0,1,,,,,,,,,0,,,58,0
22860,note_on,0,0,1,,,,,,,,,0,,,58,40
22860,note_on,0,0,1,,,,,,,,,0,,,63,40
22860,note_on,0,0,1,,,,,,,,,0,,,67,40
22860,note_on,60,0,4,,,,,,,,,0,,,51,0
22860,note_on,60,0,1,,,,,,,,,0,,,67,0
22860,note_on,0,0,4,,,,,,,,,0,,,51,40
22860,note_on,0,0,1,,,,,,,,,0,,,63,0
22920,note_on,60,0,4,,,,,,,,,0,,,51,0
22920,note_on,0,0,4,,,,,,,,,0,,,51,40
22920,note_on,0,0,1,,,,,,,,,0,,,60,40
22920,note_on,60,0,1,,,,,,,,,0,,,67,0
22920,note_on,0,0,1,,,,,,,,,0,,,63,0
22920,note_on,0,0,1,,,,,,,,,0,,,58,0
22920,note_on,0,0,1,,,,,,,,,0,,,68,40
22920,note_on,0,0,1,,,,,,,,,0,,,63,40
22980,note_on,0,0,1,,,,,,,,,0,,,61,40
22980,note_on,0,0,1,,,,,,,,,0,,,63,40
22980,note_on,0,0,1,,,,,,,,,0,,,70,40
22980,note_on,0,0,1,,,,,,,,,0,,,68,0
22980,note_on,0,0,1,,,,,,,,,0,,,63,0
22980,note_on,60,0,4,,,,,,,,,0,,,51,0
22980,note_on,60,0,1,,,,,,,,,0,,,60,0
22980,note_on,0,0,4,,,,,,,,,0,,,51,40
23040,note_on,0,0,1,,,,,,,,,0,,,61,40
23040,note_on,0,0,4,,,,,,,,,0,,,44,60
23040,note_on,0,0,4,,,,,,,,,0,,,39,0
23040,note_on,60,0,4,,,,,,,,,0,,,51,0
23040,note_on,0,0,1,,,,,,,,,0,,,63,40
23040,note_on,0,0,1,,,,,,,,,0,,,70,0
23040,note_on,60,0,1,,,,,,,,,0,,,61,0
23040,note_on,0,0,1,,,,,,,,,0,,,63,0
23100,note_on,60,0,1,,,,,,,,,0,,,63,0
23100,note_on,0,0,1,,,,,,,,,0,,,61,0
23100,note_on,0,0,1,,,,,,,,,0,,,68,40
23100,note_on,0,0,1,,,,,,,,,0,,,63,40
23100,note_on,0,0,1,,,,,,,,,0,,,60,40
23100,note_on,60,0,4,,,,,,,,,0,,,51,40
23130,note_on,0,0,1,,,,,,,,,0,,,68,0
23130,note_on,30,0,1,,,,,,,,,0,,,60,0
23130,note_on,0,0,1,,,,,,,,,0,,,63,0
23160,note_on,30,0,1,,,,,,,,,0,,,60,40
23160,note_on,0,0,1,,,,,,,,,0,,,63,40
23160,note_on,60,0,4,,,,,,,,,0,,,51,0
23160,note_on,0,0,4,,,,,,,,,0,,,51,40
23160,note_on,0,0,1,,,,,,,,,0,,,68,40
23220,note_on,60,0,4,,,,,,,,,0,,,51,0
23220,note_on,0,0,4,,,,,,,,,0,,,51,40
23220,note_on,60,0,1,,,,,,,,,0,,,68,0
23220,note_on,0,0,1,,,,,,,,,0,,,63,0
23220,note_on,0,0,1,,,,,,,,,0,,,60,0
23220,note_on,0,0,1,,,,,,,,,0,,,63,40
23220,note_on,0,0,1,,,,,,,,,0,,,60,40
23220,note_on,0,0,1,,,,,,,,,0,,,68,40
23280,note_on,60,0,1,,,,,,,,,0,,,68,0
23280,note_on,0,0,4,,,,,,,,,0,,,51,40
23280,note_on,60,0,4,,,,,,,,,0,,,51,0
23280,note_on,0,0,1,,,,,,,,,0,,,68,40
23280,note_on,0,0,1,,,,,,,,,0,,,60,40
23280,note_on,0,0,1,,,,,,,,,0,,,63,40
23280,note_on,0,0,1,,,,,,,,,0,,,63,0
23280,note_on,0,0,1,,,,,,,,,0,,,60,0
23340,note_on,0,0,1,,,,,,,,,0,,,63,40
23340,note_on,0,0,1,,,,,,,,,0,,,60,40
23340,note_on,0,0,1,,,,,,,,,0,,,68,0
23340,note_on,0,0,1,,,,,,,,,0,,,63,0
23340,note_on,60,0,1,,,,,,,,,0,,,60,0
23340,note_on,60,0,4,,,,,,,,,0,,,51,0
23340,note_on,0,0,4,,,,,,,,,0,,,51,40
23340,note_on,0,0,1,,,,,,,,,0,,,68,40
23385,note_on,45,0,1,,,,,,,,,0,,,68,40
23400,note_on,0,0,4,,,,,,,,,0,,,51,40
23400,note_on,0,0,4,,,,,,,,,0,,,44,60
23400,note_on,60,0,4,,,,,,,,,0,,,51,0
23400,note_on,0,0,4,,,,,,,,,0,,,44,0
23400,note_on,0,0,1,,,,,,,,,0,,,68,0
23400,note_on,0,0,1,,,,,,,,,0,,,63,40
23400,note_on,0,0,1,,,,,,,,,0,,,72,40
23400,note_on,0,0,1,,,,,,,,,0,,,63,0
23400,note_on,15,0,1,,,,,,,,,0,,,60,0
23460,note_on,0,0,4,,,,,,,,,0,,,48,60
23460,note_on,0,0,4,,,,,,,,,0,,,51,40
23460,note_on,0,0,4,,,,,,,,,0,,,51,0
23460,note_on,60,0,4,,,,,,,,,0,,,44,0
23490,note_on,0,0,1,,,,,,,,,0,,,63,40
23490,note_on,90,0,1,,,,,,,,,0,,,63,0
23490,note_on,0,0,1,,,,,,,,,0,,,72,0
23490,note_on,0,0,1,,,,,,,,,0,,,68,0
23490,note_on,0,0,1,,,,,,,,,0,,,68,40
23490,note_on,0,0,1,,,,,,,,,0,,,60,40
23520,note_on,0,0,4,,,,,,,,,0,,,51,0
23520,note_on,60,0,4,,,,,,,,,0,,,48,0
23520,note_on,0,0,4,,,,,,,,,0,,,39,60
23520,note_on,0,0,1,,,,,,,,,0,,,68,0
23520,note_on,30,0,1,,,,,,,,,0,,,60,0
23520,note_on,0,0,1,,,,,,,,,0,,,63,0
23520,note_on,0,0,1,,,,,,,,,0,,,68,40
23520,note_on,0,0,1,,,,,,,,,0,,,63,40
23520,note_on,0,0,1,,,,,,,,,0,,,60,40
23580,note_on,0,0,1,,,,,,,,,0,,,63,40
23580,note_on,0,0,1,,,,,,,,,0,,,67,40
23580,note_on,60,0,4,,,,,,,,,0,,,51,40
23580,note_on,0,0,1,,,,,,,,,0,,,58,40
23580,note_on,0,0,1,,,,,,,,,0,,,63,0
23580,note_on,60,0,1,,,,,,,,,0,,,60,0
23580,note_on,0,0,1,,,,,,,,,0,,,68,0
23610,note_on,30,0,1,,,,,,,,,0,,,67,0
23610,note_on,0,0,1,,,,,,,,,0,,,63,0
23610,note_on,0,0,1,,,,,,,,,0,,,58,0
23640,note_on,0,0,4,,,,,,,,,0,,,51,40
23640,note_on,30,0,1,,,,,,,,,0,,,58,40
23640,note_on,0,0,1,,,,,,,,,0,,,63,40
23640,note_on,0,0,1,,,,,,,,,0,,,67,40
23640,note_on,60,0,4,,,,,,,,,0,,,51,0
23700,note_on,0,0,1,,,,,,,,,0,,,63,40
23700,note_on,60,0,1,,,,,,,,,0,,,67,0
23700,note_on,0,0,1,,,,,,,,,0,,,63,0
23700,note_on,0,0,1,,,,,,,,,0,,,58,0
23700,note_on,60,0,4,,,,,,,,,0,,,51,0
23700,note_on,0,0,4,,,,,,,,,0,,,51,40
23700,note_on,0,0,1,,,,,,,,,0,,,67,40
23700,note_on,0,0,1,,,,,,,,,0,,,58,40
23760,note_on,60,0,1,,,,,,,,,0,,,67,0
23760,note_on,0,0,1,,,,,,,,,0,,,58,0
23760,note_on,0,0,1,,,,,,,,,0,,,67,40
23760,note_on,0,0,1,,,,,,,,,0,,,63,40
23760,note_on,0,0,1,,,,,,,,,0,,,58,40
23760,note_on,0,0,4,,,,,,,,,0,,,51,40
23760,note_on,60,0,4,,,,,,,,,0,,,51,0
23760,note_on,0,0,1,,,,,,,,,0,,,63,0
23820,note_on,60,0,1,,,,,,,,,0,,,58,0
23820,note_on,0,0,1,,,,,,,,,0,,,67,0
23820,note_on,0,0,1,,,,,,,,,0,,,63,40
23820,note_on,0,0,1,,,,,,,,,0,,,67,40
23820,note_on,0,0,1,,,,,,,,,0,,,58,40
23820,note_on,60,0,4,,,,,,,,,0,,,51,0
23820,note_on,0,0,4,,,,,,,,,0,,,51,40
23820,note_on,0,0,1,,,,,,,,,0,,,63,0
23880,note_on,60,0,4,,,,,,,,,0,,,51,0
23880,note_on,0,0,4,,,,,,,,,0,,,51,40
23880,note_on,0,0,1,,,,,,,,,0,,,63,40
23880,note_on,60,0,1,,,,,,,,,0,,,58,0
23880,note_on,0,0,1,,,,,,,,,0,,,67,0
23880,note_on,0,0,1,,,,,,,,,0,,,63,0
23880,note_on,0,0,1,,,,,,,,,0,,,68,40
23880,note_on,0,0,1,,,,,,,,,0,,,60,40
23940,note_on,60,0,1,,,,,,,,,0,,,60,0
23940,note_on,0,0,4,,,,,,,,,0,,,51,40
23940,note_on,60,0,4,,,,,,,,,0,,,51,0
23940,note_on,0,0,1,,,,,,,,,0,,,68,0
23940,note_on,0,0,1,,,,,,,,,0,,,70,40
23940,note_on,0,0,1,,,,,,,,,0,,,63,40
23940,note_on,0,0,1,,,,,,,,,0,,,61,40
23940,note_on,0,0,1,,,,,,,,,0,,,63,0
24000,note_on,0,0,1,,,,,,,,,0,,,61,40
24000,note_on,0,0,4,,,,,,,,,0,,,44,60
24000,note_on,0,0,1,,,,,,,,,0,,,63,40
24000,note_on,60,0,4,,,,,,,,,0,,,51,0
24000,note_on,0,0,1,,,,,,,,,0,,,70,0
24000,note_on,0,0,4,,,,,,,,,0,,,39,0
24000,note_on,60,0,1,,,,,,,,,0,,,61,0
24000,note_on,0,0,1,,,,,,,,,0,,,63,0
24060,note_on,60,0,4,,,,,,,,,0,,,51,40
24060,note_on,0,0,1,,,,,,,,,0,,,60,40
24060,note_on,0,0,1,,,,,,,,,0,,,63,40
24060,note_on,0,0,1,,,,,,,,,0,,,68,40
24060,note_on,0,0,1,,,,,,,,,0,,,61,0
24060,note_on,60,0,1,,,,,,,,,0,,,63,0
24090,note_on,0,0,1,,,,,,,,,0,,,68,0
24090,note_on,0,0,1,,,,,,,,,0,,,63,0
24090,note_on,30,0,1,,,,,,,,,0,,,60,0
24120,note_on,0,0,1,,,,,,,,,0,,,60,40
24120,note_on,30,0,1,,,,,,,,,0,,,68,40
24120,note_on,0,0,1,,,,,,,,,0,,,63,40
24120,note_on,60,0,4,,,,,,,,,0,,,51,0
24120,note_on,0,0,4,,,,,,,,,0,,,48,40
24180,note_on,0,0,1,,,,,,,,,0,,,63,0
24180,note_on,0,0,1,,,,,,,,,0,,,68,0
24180,note_on,0,0,1,,,,,,,,,0,,,68,40
24180,note_on,0,0,4,,,,,,,,,0,,,51,40
24180,note_on,60,0,4,,,,,,,,,0,,,48,0
24180,note_on,0,0,1,,,,,,,,,0,,,63,40
24180,note_on,0,0,1,,,,,,,,,0,,,60,40
24180,note_on,60,0,1,,,,,,,,,0,,,60,0
24240,note_on,0,0,1,,,,,,,,,0,,,60,40
24240,note_on,0,0,1,,,,,,,,,0,,,63,40
24240,note_on,0,0,1,,,,,,,,,0,,,68,0
24240,note_on,0,0,4,,,,,,,,,0,,,56,40
24240,note_on,60,0,4,,,,,,,,,0,,,51,0
24240,note_on,0,0,1,,,,,,,,,0,,,68,40
24240,note_on,60,0,1,,,,,,,,,0,,,60,0
24240,note_on,0,0,1,,,,,,,,,0,,,63,0
24270,note_on,30,0,4,,,,,,,,,0,,,56,0
24270,note_on,0,0,1,,,,,,,,,0,,,63,0
24270,note_on,0,0,1,,,,,,,,,0,,,68,0
24270,note_on,30,0,1,,,,,,,,,0,,,60,0
24300,note_on,30,0,1,,,,,,,,,0,,,75,45
24300,note_on,5610,0,3,,,,,,,,,0,,,60,45
24300,note_on,0,0,3,,,,,,,,,0,,,63,45
24300,note_on,30,0,4,,,,,,,,,0,,,44,0
24300,note_on,0,0,1,,,,,,,,,0,,,72,45
24360,note_on,0,0,1,,,,,,,,,0,,,72,50
24360,note_on,60,0,1,,,,,,,,,0,,,72,0
24360,note_on,0,0,1,,,,,,,,,0,,,75,50
24360,note_on,0,0,1,,,,,,,,,0,,,80,50
24360,note_on,0,0,1,,,,,,,,,0,,,75,0
24360,note_on,0,0,3,,,,,,,,,0,,,60,0
24360,note_on,0,0,3,,,,,,,,,0,,,63,50
24360,note_on,0,0,3,,,,,,,,,0,,,68,50
24360,note_on,60,0,3,,,,,,,,,0,,,63,0
24360,note_on,0,0,3,,,,,,,,,0,,,60,50
24420,note_on,0,0,1,,,,,,,,,0,,,82,56
24420,note_on,60,0,1,,,,,,,,,0,,,72,0
24420,note_on,0,0,1,,,,,,,,,0,,,75,0
24420,note_on,0,0,1,,,,,,,,,0,,,80,0
24420,note_on,0,0,1,,,,,,,,,0,,,75,56
24420,note_on,0,0,1,,,,,,,,,0,,,79,56
24420,note_on,0,0,3,,,,,,,,,0,,,63,0
24420,note_on,0,0,3,,,,,,,,,0,,,63,56
24420,note_on,0,0,3,,,,,,,,,0,,,67,56
24420,note_on,0,0,3,,,,,,,,,0,,,70,56
24420,note_on,0,0,3,,,,,,,,,0,,,68,0
24420,note_on,60,0,3,,,,,,,,,0,,,60,0
24480,note_on,0,0,3,,,,,,,,,0,,,56,80
24480,note_on,0,0,3,,,,,,,,,0,,,70,0
24480,note_on,0,0,3,,,,,,,,,0,,,67,0
24480,note_on,60,0,3,,,,,,,,,0,,,63,0
24480,note_on,60,0,1,,,,,,,,,0,,,75,0
24480,note_on,0,0,1,,,,,,,,,0,,,79,0
24480,note_on,0,0,1,,,,,,,,,0,,,82,0
24510,note_on,30,0,3,,,,,,,,,0,,,56,0
24540,note_on,30,0,3,,,,,,,,,0,,,72,60
24540,note_on,0,0,3,,,,,,,,,0,,,68,60
24540,note_on,0,0,1,,,,,,,,,0,,,75,60
24540,note_on,0,0,1,,,,,,,,,0,,,80,60
24540,note_on,60,0,1,,,,,,,,,0,,,84,60
24540,note_on,0,0,3,,,,,,,,,0,,,63,60
24600,note_on,0,0,1,,,,,,,,,0,,,84,0
24600,note_on,0,0,1,,,,,,,,,0,,,80,60
24600,note_on,0,0,1,,,,,,,,,0,,,75,60
24600,note_on,0,0,1,,,,,,,,,0,,,80,0
24600,note_on,0,0,3,,,,,,,,,0,,,68,0
24600,note_on,60,0,3,,,,,,,,,0,,,63,0
24600,note_on,0,0,3,,,,,,,,,0,,,68,60
24600,note_on,0,0,3,,,,,,,,,0,,,72,60
24600,note_on,0,0,3,,,,,,,,,0,,,63,60
24600,note_on,60,0,1,,,,,,,,,0,,,75,0
24600,note_on,0,0,3,,,,,,,,,0,,,72,0
24600,note_on,0,0,1,,,,,,,,,0,,,84,60
24660,note_on,0,0,1,,,,,,,,,0,,,75,60
24660,note_on,0,0,1,,,,,,,,,0,,,80,60
24660,note_on,0,0,1,,,,,,,,,0,,,84,60
24660,note_on,0,0,1,,,,,,,,,0,,,84,0
24660,note_on,0,0,1,,,,,,,,,0,,,80,0
24660,note_on,60,0,1,,,,,,,,,0,,,75,0
24660,note_on,0,0,3,,,,,,,,,0,,,68,60
24660,note_on,60,0,3,,,,,,,,,0,,,63,0
24660,note_on,0,0,3,,,,,,,,,0,,,72,0
24660,note_on,0,0,3,,,,,,,,,0,,,68,0
24660,note_on,0,0,3,,,,,,,,,0,,,72,60
24660,note_on,0,0,3,,,,,,,,,0,,,63,60
24720,note_on,0,0,1,,,,,,,,,0,,,74,60
24720,note_on,0,0,1,,,,,,,,,0,,,83,60
24720,note_on,0,0,1,,,,,,,,,0,,,84,0
24720,note_on,0,0,1,,,,,,,,,0,,,80,0
24720,note_on,60,0,1,,,,,,,,,0,,,75,0
24720,note_on,0,0,3,,,,,,,,,0,,,62,60
24720,note_on,0,0,1,,,,,,,,,0,,,80,60
24720,note_on,0,0,3,,,,,,,,,0,,,72,0
24720,note_on,60,0,3,,,,,,,,,0,,,63,0
24720,note_on,0,0,3,,,,,,,,,0,,,68,0
24720,note_on,0,0,3,,,,,,,,,0,,,68,60
24720,note_on,0,0,3,,,,,,,,,0,,,71,60
24780,note_on,60,0,1,,,,,,,,,0,,,74,0
24780,note_on,0,0,1,,,,,,,,,0,,,80,0
24780,note_on,0,0,1,,,,,,,,,0,,,83,0
24780,note_on,0,0,1,,,,,,,,,0,,,84,60
24780,note_on,0,0,1,,,,,,,,,0,,,80,60
24780,note_on,0,0,1,,,,,,,,,0,,,75,60
24780,note_on,60,0,3,,,,,,,,,0,,,62,0
24780,note_on,0,0,3,,,,,,,,,0,,,68,0
24780,note_on,0,0,3,,,,,,,,,0,,,71,0
24780,note_on,0,0,3,,,,,,,,,0,,,63,60
24780,note_on,0,0,3,,,,,,,,,0,,,68,60
24780,note_on,0,0,3,,,,,,,,,0,,,72,60
24810,note_on,0,0,1,,,,,,,,,0,,,84,0
24810,note_on,0,0,3,,,,,,,,,0,,,63,0
24810,note_on,0,0,3,,,,,,,,,0,,,68,0
24810,note_on,30,0,3,,,,,,,,,0,,,72,0
24810,note_on,30,0,1,,,,,,,,,0,,,75,0
24810,note_on,0,0,1,,,,,,,,,0,,,80,0
24840,note_on,0,0,3,,,,,,,,,0,,,68,60
24840,note_on,30,0,1,,,,,,,,,0,,,84,60
24840,note_on,0,0,1,,,,,,,,,0,,,80,60
24840,note_on,0,0,1,,,,,,,,,0,,,75,60
24840,note_on,30,0,3,,,,,,,,,0,,,63,60
24840,note_on,0,0,3,,,,,,,,,0,,,72,60
24900,note_on,0,0,3,,,,,,,,,0,,,63,60
24900,note_on,0,0,3,,,,,,,,,0,,,63,0
24900,note_on,0,0,3,,,,,,,,,0,,,68,0
24900,note_on,60,0,3,,,,,,,,,0,,,72,0
24900,note_on,0,0,1,,,,,,,,,0,,,80,0
24900,note_on,0,0,3,,,,,,,,,0,,,68,60
24900,note_on,0,0,1,,,,,,,,,0,,,84,0
24900,note_on,0,0,1,,,,,,,,,0,,,84,60
24900,note_on,0,0,1,,,,,,,,,0,,,80,60
24900,note_on,0,0,1,,,,,,,,,0,,,75,60
24900,note_on,60,0,1,,,,,,,,,0,,,75,0
24900,note_on,0,0,3,,,,,,,,,0,,,72,60
24960,note_on,60,0,1,,,,,,,,,0,,,75,0
24960,note_on,60,0,3,,,,,,,,,0,,,72,0
24960,note_on,0,0,1,,,,,,,,,0,,,84,0
24960,note_on,0,0,1,,,,,,,,,0,,,87,60
24960,note_on,0,0,1,,,,,,,,,0,,,80,60
24960,note_on,0,0,1,,,,,,,,,0,,,78,60
24960,note_on,0,0,3,,,,,,,,,0,,,68,0
24960,note_on,0,0,1,,,,,,,,,0,,,80,0
24960,note_on,0,0,3,,,,,,,,,0,,,63,0
24960,note_on,0,0,3,,,,,,,,,0,,,61,80
25020,note_on,0,0,1,,,,,,,,,0,,,80,0
25020,note_on,0,0,1,,,,,,,,,0,,,87,0
25020,note_on,0,0,1,,,,,,,,,0,,,85,60
25020,note_on,0,0,1,,,,,,,,,0,,,80,60
25020,note_on,0,0,1,,,,,,,,,0,,,77,60
25020,note_on,0,0,3,,,,,,,,,0,,,65,60
25020,note_on,0,0,3,,,,,,,,,0,,,68,60
25020,note_on,60,0,3,,,,,,,,,0,,,73,60
25020,note_on,60,0,1,,,,,,,,,0,,,78,0
25050,note_on,30,0,1,,,,,,,,,0,,,77,0
25050,note_on,0,0,1,,,,,,,,,0,,,80,0
25050,note_on,0,0,1,,,,,,,,,0,,,85,0
25080,note_on,30,0,1,,,,,,,,,0,,,85,60
25080,note_on,0,0,1,,,,,,,,,0,,,80,60
25080,note_on,0,0,1,,,,,,,,,0,,,77,60
25080,note_on,60,0,3,,,,,,,,,0,,,65,0
25080,note_on,0,0,3,,,,,,,,,0,,,68,0
25080,note_on,0,0,3,,,,,,,,,0,,,73,0
25080,note_on,0,0,3,,,,,,,,,0,,,73,60
25080,note_on,0,0,3,,,,,,,,,0,,,68,60
25080,note_on,0,0,3,,,,,,,,,0,,,65,60
25140,note_on,0,0,3,,,,,,,,,0,,,73,0
25140,note_on,0,0,3,,,,,,,,,0,,,68,0
25140,note_on,0,0,1,,,,,,,,,0,,,80,0
25140,note_on,0,0,1,,,,,,,,,0,,,85,0
25140,note_on,0,0,1,,,,,,,,,0,,,85,60
25140,note_on,0,0,1,,,,,,,,,0,,,80,60
25140,note_on,60,0,1,,,,,,,,,0,,,77,0
25140,note_on,0,0,3,,,,,,,,,0,,,73,60
25140,note_on,0,0,3,,,,,,,,,0,,,68,60
25140,note_on,60,0,3,,,,,,,,,0,,,65,0
25140,note_on,0,0,3,,,,,,,,,0,,,65,60
25140,note_on,0,0,1,,,,,,,,,0,,,77,60
25200,note_on,60,0,1,,,,,,,,,0,,,77,0
25200,note_on,60,0,3,,,,,,,,,0,,,65,0
25200,note_on,0,0,3,,,,,,,,,0,,,68,0
25200,note_on,0,0,1,,,,,,,,,0,,,77,60
25200,note_on,0,0,3,,,,,,,,,0,,,73,60
25200,note_on,0,0,3,,,,,,,,,0,,,68,60
25200,note_on,0,0,3,,,,,,,,,0,,,65,60
25200,note_on,0,0,1,,,,,,,,,0,,,80,60
25200,note_on,0,0,1,,,,,,,,,0,,,85,0
25200,note_on,0,0,1,,,,,,,,,0,,,80,0
25200,note_on,0,0,3,,,,,,,,,0,,,73,0
25200,note_on,0,0,1,,,,,,,,,0,,,85,60
25260,note_on,60,0,1,,,,,,,,,0,,,77,0
25260,note_on,0,0,1,,,,,,,,,0,,,85,0
25260,note_on,0,0,1,,,,,,,,,0,,,84,60
25260,note_on,0,0,1,,,,,,,,,0,,,77,60
25260,note_on,0,0,1,,,,,,,,,0,,,75,60
25260,note_on,0,0,1,,,,,,,,,0,,,80,0
25260,note_on,0,0,3,,,,,,,,,0,,,68,0
25260,note_on,0,0,3,,,,,,,,,0,,,73,0
25260,note_on,0,0,3,,,,,,,,,0,,,72,60
25260,note_on,0,0,3,,,,,,,,,0,,,69,60
25260,note_on,0,0,3,,,,,,,,,0,,,65,60
25260,note_on,60,0,3,,,,,,,,,0,,,65,0
25320,note_on,0,0,1,,,,,,,,,0,,,73,60
25320,note_on,0,0,1,,,,,,,,,0,,,77,60
25320,note_on,0,0,1,,,,,,,,,0,,,84,0
25320,note_on,0,0,1,,,,,,,,,0,,,77,0
25320,note_on,60,0,1,,,,,,,,,0,,,75,0
25320,note_on,0,0,1,,,,,,,,,0,,,82,60
25320,note_on,0,0,3,,,,,,,,,0,,,70,60
25320,note_on,60,0,3,,,,,,,,,0,,,65,0
25320,note_on,0,0,3,,,,,,,,,0,,,69,0
25320,note_on,0,0,3,,,,,,,,,0,,,72,0
25320,note_on,0,0,3,,,,,,,,,0,,,65,60
25380,note_on,0,0,1,,,,,,,,,0,,,72,60
25380,note_on,0,0,1,,,,,,,,,0,,,77,60
25380,note_on,0,0,3,,,,,,,,,0,,,70,0
25380,note_on,0,0,1,,,,,,,,,0,,,82,0
25380,note_on,0,0,1,,,,,,,,,0,,,77,0
25380,note_on,60,0,1,,,,,,,,,0,,,73,0
25380,note_on,60,0,3,,,,,,,,,0,,,65,0
25380,note_on,0,0,1,,,,,,,,,0,,,80,60
25380,note_on,0,0,3,,,,,,,,,0,,,65,60
25380,note_on,0,0,3,,,,,,,,,0,,,61,0
25380,note_on,0,0,3,,,,,,,,,0,,,68,60
25380,note_on,0,0,3,,,,,,,,,0,,,61,80
25440,note_on,0,0,1,,,,,,,,,0,,,80,0
25440,note_on,0,0,1,,,,,,,,,0,,,77,0
25440,note_on,60,0,1,,,,,,,,,0,,,72,0
25440,note_on,60,0,3,,,,,,,,,0,,,61,0
25440,note_on,0,0,3,,,,,,,,,0,,,65,0
25440,note_on,0,0,3,,,,,,,,,0,,,68,0
25440,note_on,0,0,3,,,,,,,,,0,,,51,80
25440,note_on,0,0,1,,,,,,,,,0,,,80,60
25440,note_on,0,0,1,,,,,,,,,0,,,72,60
25440,note_on,0,0,1,,,,,,,,,0,,,75,60
25470,note_on,30,0,3,,,,,,,,,0,,,51,0
25500,note_on,60,0,1,,,,,,,,,0,,,72,0
25500,note_on,0,0,1,,,,,,,,,0,,,75,0
25500,note_on,0,0,3,,,,,,,,,0,,,63,60
25500,note_on,0,0,1,,,,,,,,,0,,,80,0
25500,note_on,0,0,1,,,,,,,,,0,,,79,60
25500,note_on,0,0,1,,,,,,,,,0,,,75,60
25500,note_on,0,0,3,,,,,,,,,0,,,58,60
25500,note_on,0,0,1,,,,,,,,,0,,,70,60
25500,note_on,30,0,3,,,,,,,,,0,,,67,60
25530,note_on,30,0,1,,,,,,,,,0,,,70,0
25530,note_on,0,0,1,,,,,,,,,0,,,75,0
25530,note_on,0,0,1,,,,,,,,,0,,,79,0
25560,note_on,30,0,1,,,,,,,,,0,,,79,60
25560,note_on,60,0,3,,,,,,,,,0,,,58,0
25560,note_on,0,0,3,,,,,,,,,0,,,58,60
25560,note_on,0,0,3,,,,,,,,,0,,,63,60
25560,note_on,0,0,3,,,,,,,,,0,,,67,60
25560,note_on,0,0,3,,,,,,,,,0,,,67,0
25560,note_on,0,0,3,,,,,,,,,0,,,63,0
25560,note_on,0,0,1,,,,,,,,,0,,,75,60
25560,note_on,0,0,1,,,,,,,,,0,,,70,60
25620,note_on,0,0,1,,,,,,,,,0,,,75,0
25620,note_on,0,0,1,,,,,,,,,0,,,79,0
25620,note_on,0,0,1,,,,,,,,,0,,,79,60
25620,note_on,0,0,1,,,,,,,,,0,,,75,60
25620,note_on,0,0,1,,,,,,,,,0,,,70,60
25620,note_on,0,0,3,,,,,,,,,0,,,63,60
25620,note_on,0,0,3,,,,,,,,,0,,,67,60
25620,note_on,0,0,3,,,,,,,,,0,,,67,0
25620,note_on,0,0,3,,,,,,,,,0,,,63,0
25620,note_on,60,0,3,,,,,,,,,0,,,58,0
25620,note_on,60,0,1,,,,,,,,,0,,,70,0
25620,note_on,0,0,3,,,,,,,,,0,,,58,60
25680,note_on,0,0,1,,,,,,,,,0,,,70,60
25680,note_on,60,0,1,,,,,,,,,0,,,70,0
25680,note_on,0,0,1,,,,,,,,,0,,,75,0
25680,note_on,0,0,1,,,,,,,,,0,,,79,0
25680,note_on,0,0,1,,,,,,,,,0,,,79,60
25680,note_on,0,0,1,,,,,,,,,0,,,75,60
25680,note_on,0,0,3,,,,,,,,,0,,,63,0
25680,note_on,60,0,3,,,,,,,,,0,,,58,0
25680,note_on,0,0,3,,,,,,,,,0,,,67,0
25680,note_on,0,0,3,,,,,,,,,0,,,67,60
25680,note_on,0,0,3,,,,,,,,,0,,,63,60
25680,note_on,0,0,3,,,,,,,,,0,,,58,60
25740,note_on,60,0,1,,,,,,,,,0,,,70,0
25740,note_on,0,0,1,,,,,,,,,0,,,79,60
25740,note_on,0,0,1,,,,,,,,,0,,,79,0
25740,note_on,0,0,1,,,,,,,,,0,,,75,0
25740,note_on,60,0,3,,,,,,,,,0,,,58,0
25740,note_on,0,0,3,,,,,,,,,0,,,63,0
25740,note_on,0,0,3,,,,,,,,,0,,,67,0
25740,note_on,0,0,3,,,,,,,,,0,,,67,60
25740,note_on,0,0,3,,,,,,,,,0,,,63,60
25740,note_on,0,0,1,,,,,,,,,0,,,70,60
25740,note_on,0,0,3,,,,,,,,,0,,,58,60
25740,note_on,0,0,1,,,,,,,,,0,,,75,60
25800,note_on,60,0,1,,,,,,,,,0,,,70,0
25800,note_on,0,0,1,,,,,,,,,0,,,75,0
25800,note_on,0,0,1,,,,,,,,,0,,,79,0
25800,note_on,0,0,1,,,,,,,,,0,,,80,60
25800,note_on,0,0,1,,,,,,,,,0,,,75,60
25800,note_on,0,0,1,,,,,,,,,0,,,72,60
25800,note_on,0,0,3,,,,,,,,,0,,,63,0
25800,note_on,60,0,3,,,,,,,,,0,,,58,0
25800,note_on,0,0,3,,,,,,,,,0,,,60,60
25800,note_on,0,0,3,,,,,,,,,0,,,63,60
25800,note_on,0,0,3,,,,,,,,,0,,,68,60
25800,note_on,0,0,3,,,,,,,,,0,,,67,0
25860,note_on,0,0,3,,,,,,,,,0,,,68,0
25860,note_on,0,0,3,,,,,,,,,0,,,61,60
25860,note_on,0,0,3,,,,,,,,,0,,,63,0
25860,note_on,60,0,3,,,,,,,,,0,,,60,0
25860,note_on,0,0,3,,,,,,,,,0,,,70,60
25860,note_on,0,0,3,,,,,,,,,0,,,63,60
25860,note_on,0,0,1,,,,,,,,,0,,,82,60
25860,note_on,0,0,1,,,,,,,,,0,,,75,0
25860,note_on,0,0,1,,,,,,,,,0,,,80,0
25860,note_on,0,0,1,,,,,,,,,0,,,75,60
25860,note_on,0,0,1,,,,,,,,,0,,,73,60
25860,note_on,60,0,1,,,,,,,,,0,,,72,0
25920,note_on,60,0,1,,,,,,,,,0,,,73,0
25920,note_on,0,0,1,,,,,,,,,0,,,75,0
25920,note_on,0,0,1,,,,,,,,,0,,,82,0
25920,note_on,0,0,1,,,,,,,,,0,,,75,60
25920,note_on,0,0,1,,,,,,,,,0,,,73,60
25920,note_on,0,0,3,,,,,,,,,0,,,56,80
25920,note_on,0,0,3,,,,,,,,,0,,,70,0
25920,note_on,0,0,3,,,,,,,,,0,,,63,0
25920,note_on,60,0,3,,,,,,,,,0,,,61,0
25980,note_on,0,0,3,,,,,,,,,0,,,63,60
25980,note_on,60,0,3,,,,,,,,,0,,,68,60
25980,note_on,0,0,1,,,,,,,,,0,,,72,60
25980,note_on,0,0,3,,,,,,,,,0,,,60,60
25980,note_on,0,0,1,,,,,,,,,0,,,75,60
25980,note_on,0,0,1,,,,,,,,,0,,,80,60
25980,note_on,0,0,1,,,,,,,,,0,,,75,0
25980,note_on,60,0,1,,,,,,,,,0,,,73,0
26010,note_on,0,0,1,,,,,,,,,0,,,80,0
26010,note_on,30,0,1,,,,,,,,,0,,,72,0
26010,note_on,0,0,1,,,,,,,,,0,,,75,0
26040,note_on,0,0,3,,,,,,,,,0,,,63,60
26040,note_on,0,0,3,,,,,,,,,0,,,68,60
26040,note_on,0,0,3,,,,,,,,,0,,,60,60
26040,note_on,0,0,3,,,,,,,,,0,,,68,0
26040,note_on,0,0,1,,,,,,,,,0,,,72,60
26040,note_on,60,0,3,,,,,,,,,0,,,60,0
26040,note_on,0,0,1,,,,,,,,,0,,,75,60
26040,note_on,30,0,1,,,,,,,,,0,,,80,60
26040,note_on,0,0,3,,,,,,,,,0,,,63,0
26100,note_on,0,0,3,,,,,,,,,0,,,60,60
26100,note_on,60,0,3,,,,,,,,,0,,,60,0
26100,note_on,0,0,3,,,,,,,,,0,,,63,0
26100,note_on,0,0,3,,,,,,,,,0,,,68,0
26100,note_on,0,0,3,,,,,,,,,0,,,68,60
26100,note_on,0,0,3,,,,,,,,,0,,,63,60
26100,note_on,0,0,1,,,,,,,,,0,,,72,60
26100,note_on,0,0,1,,,,,,,,,0,,,75,60
26100,note_on,0,0,1,,,,,,,,,0,,,80,60
26100,note_on,0,0,1,,,,,,,,,0,,,80,0
26100,note_on,0,0,1,,,,,,,,,0,,,75,0
26100,note_on,60,0,1,,,,,,,,,0,,,72,0
26160,note_on,0,0,1,,,,,,,,,0,,,75,60
26160,note_on,60,0,1,,,,,,,,,0,,,72,0
26160,note_on,0,0,1,,,,,,,,,0,,,75,0
26160,note_on,0,0,1,,,,,,,,,0,,,80,0
26160,note_on,0,0,1,,,,,,,,,0,,,80,60
26160,note_on,0,0,3,,,,,,,,,0,,,60,60
26160,note_on,0,0,3,,,,,,,,,0,,,63,60
26160,note_on,0,0,1,,,,,,,,,0,,,72,60
26160,note_on,0,0,3,,,,,,,,,0,,,68,60
26160,note_on,60,0,3,,,,,,,,,0,,,60,0
26160,note_on,0,0,3,,,,,,,,,0,,,63,0
26160,note_on,0,0,3,,,,,,,,,0,,,68,0
26220,note_on,0,0,3,,,,,,,,,0,,,63,0
26220,note_on,0,0,3,,,,,,,,,0,,,68,60
26220,note_on,0,0,1,,,,,,,,,0,,,75,60
26220,note_on,0,0,3,,,,,,,,,0,,,68,0
26220,note_on,0,0,1,,,,,,,,,0,,,80,0
26220,note_on,60,0,3,,,,,,,,,0,,,60,0
26220,note_on,0,0,3,,,,,,,,,0,,,63,60
26220,note_on,0,0,1,,,,,,,,,0,,,72,60
26220,note_on,0,0,3,,,,,,,,,0,,,56,0
26220,note_on,0,0,3,,,,,,,,,0,,,60,60
26220,note_on,0,0,1,,,,,,,,,0,,,80,60
26220,note_on,60,0,1,,,,,,,,,0,,,72,0
26220,note_on,0,0,1,,,,,,,,,0,,,75,0
26265,note_on,45,0,1,,,,,,,,,0,,,80,60
26280,note_on,0,0,1,,,,,,,,,0,,,80,0
26280,note_on,0,0,3,,,,,,,,,0,,,63,60
26280,note_on,0,0,3,,,,,,,,,0,,,68,60
26280,note_on,0,0,3,,,,,,,,,0,,,72,60
26280,note_on,0,0,3,,,,,,,,,0,,,68,0
26280,note_on,0,0,3,,,,,,,,,0,,,63,0
26280,note_on,60,0,3,,,,,,,,,0,,,60,0
26280,note_on,0,0,1,,,,,,,,,0,,,75,60
26280,note_on,0,0,1,,,,,,,,,0,,,84,60
26280,note_on,0,0,1,,,,,,,,,0,,,75,0
26280,note_on,15,0,1,,,,,,,,,0,,,72,0
26340,note_on,0,0,3,,,,,,,,,0,,,68,0
26340,note_on,60,0,3,,,,,,,,,0,,,63,0
26340,note_on,0,0,3,,,,,,,,,0,,,72,0
26340,note_on,0,0,3,,,,,,,,,0,,,60,60
26340,note_on,0,0,3,,,,,,,,,0,,,63,60
26340,note_on,0,0,3,,,,,,,,,0,,,68,60
26370,note_on,0,0,1,,,,,,,,,0,,,84,0
26370,note_on,0,0,1,,,,,,,,,0,,,72,60
26370,note_on,0,0,1,,,,,,,,,0,,,80,0
26370,note_on,90,0,1,,,,,,,,,0,,,75,0
26370,note_on,0,0,1,,,,,,,,,0,,,80,60
26370,note_on,0,0,1,,,,,,,,,0,,,75,60
26400,note_on,0,0,3,,,,,,,,,0,,,63,0
26400,note_on,0,0,1,,,,,,,,,0,,,72,60
26400,note_on,0,0,1,,,,,,,,,0,,,75,60
26400,note_on,0,0,1,,,,,,,,,0,,,80,60
26400,note_on,0,0,1,,,,,,,,,0,,,80,0
26400,note_on,0,0,1,,,,,,,,,0,,,75,0
26400,note_on,30,0,1,,,,,,,,,0,,,72,0
26400,note_on,0,0,3,,,,,,,,,0,,,68,0
26400,note_on,60,0,3,,,,,,,,,0,,,60,0
26400,note_on,0,0,3,,,,,,,,,0,,,51,80
26430,note_on,30,0,3,,,,,,,,,0,,,51,0
26460,note_on,0,0,1,,,,,,,,,0,,,79,60
26460,note_on,0,0,1,,,,,,,,,0,,,75,0
26460,note_on,0,0,1,,,,,,,,,0,,,80,0
26460,note_on,0,0,1,,,,,,,,,0,,,75,60
26460,note_on,0,0,3,,,,,,,,,0,,,58,60
26460,note_on,0,0,3,,,,,,,,,0,,,63,60
26460,note_on,30,0,3,,,,,,,,,0,,,67,60
26460,note_on,60,0,1,,,,,,,,,0,,,72,0
26460,note_on,0,0,1,,,,,,,,,0,,,70,60
26490,note_on,30,0,1,,,,,,,,,0,,,70,0
26490,note_on,0,0,1,,,,,,,,,0,,,75,0
26490,note_on,0,0,1,,,,,,,,,0,,,79,0
26520,note_on,0,0,1,,,,,,,,,0,,,75,60
26520,note_on,60,0,3,,,,,,,,,0,,,58,0
26520,note_on,30,0,1,,,,,,,,,0,,,79,60
26520,note_on,0,0,3,,,,,,,,,0,,,58,60
26520,note_on,0,0,1,,,,,,,,,0,,,70,60
26520,note_on,0,0,3,,,,,,,,,0,,,67,0
26520,note_on,0,0,3,,,,,,,,,0,,,63,60
26520,note_on,0,0,3,,,,,,,,,0,,,63,0
26520,note_on,0,0,3,,,,,,,,,0,,,67,60
26580,note_on,0,0,3,,,,,,,,,0,,,67,60
26580,note_on,0,0,3,,,,,,,,,0,,,63,60
26580,note_on,0,0,3,,,,,,,,,0,,,58,60
26580,note_on,0,0,3,,,,,,,,,0,,,63,0
26580,note_on,60,0,1,,,,,,,,,0,,,70,0
26580,note_on,60,0,3,,,,,,,,,0,,,58,0
26580,note_on,0,0,1,,,,,,,,,0,,,79,0
26580,note_on,0,0,1,,,,,,,,,0,,,79,60
26580,note_on,0,0,1,,,,,,,,,0,,,75,60
26580,note_on,0,0,1,,,,,,,,,0,,,70,60
26580,note_on,0,0,3,,,,,,,,,0,,,67,0
26580,note_on,0,0,1,,,,,,,,,0,,,75,0
26640,note_on,0,0,3,,,,,,,,,0,,,58,60
26640,note_on,0,0,3,,,,,,,,,0,,,63,60
26640,note_on,0,0,3,,,,,,,,,0,,,67,60
26640,note_on,0,0,3,,,,,,,,,0,,,67,0
26640,note_on,60,0,1,,,,,,,,,0,,,70,0
26640,note_on,0,0,1,,,,,,,,,0,,,70,60
26640,note_on,0,0,1,,,,,,,,,0,,,75,60
26640,note_on,0,0,1,,,,,,,,,0,,,79,60
26640,note_on,0,0,1,,,,,,,,,0,,,79,0
26640,note_on,0,0,1,,,,,,,,,0,,,75,0
26640,note_on,60,0,3,,,,,,,,,0,,,58,0
26640,note_on,0,0,3,,,,,,,,,0,,,63,0
26700,note_on,0,0,1,,,,,,,,,0,,,70,60
26700,note_on,0,0,1,,,,,,,,,0,,,75,60
26700,note_on,0,0,1,,,,,,,,,0,,,79,60
26700,note_on,0,0,1,,,,,,,,,0,,,79,0
26700,note_on,0,0,1,,,,,,,,,0,,,75,0
26700,note_on,60,0,1,,,,,,,,,0,,,70,0
26700,note_on,0,0,3,,,,,,,,,0,,,63,0
26700,note_on,0,0,3,,,,,,,,,0,,,67,0
26700,note_on,0,0,3,,,,,,,,,0,,,67,60
26700,note_on,0,0,3,,,,,,,,,0,,,63,60
26700,note_on,0,0,3,,,,,,,,,0,,,58,60
26700,note_on,60,0,3,,,,,,,,,0,,,58,0
26760,note_on,0,0,3,,,,,,,,,0,,,68,60
26760,note_on,60,0,1,,,,,,,,,0,,,70,0
26760,note_on,0,0,1,,,,,,,,,0,,,80,60
26760,note_on,0,0,1,,,,,,,,,0,,,75,60
26760,note_on,0,0,1,,,,,,,,,0,,,72,60
26760,note_on,0,0,3,,,,,,,,,0,,,60,60
26760,note_on,0,0,1,,,,,,,,,0,,,79,0
26760,note_on,0,0,1,,,,,,,,,0,,,75,0
26760,note_on,0,0,3,,,,,,,,,0,,,67,0
26760,note_on,0,0,3,,,,,,,,,0,,,63,0
26760,note_on,60,0,3,,,,,,,,,0,,,58,0
26760,note_on,0,0,3,,,,,,,,,0,,,63,60
26820,note_on,0,0,1,,,,,,,,,0,,,73,60
26820,note_on,0,0,3,,,,,,,,,0,,,63,0
26820,note_on,0,0,3,,,,,,,,,0,,,61,60
26820,note_on,0,0,3,,,,,,,,,0,,,70,60
26820,note_on,0,0,3,,,,,,,,,0,,,63,60
26820,note_on,0,0,1,,,,,,,,,0,,,75,60
26820,note_on,0,0,3,,,,,,,,,0,,,68,0
26820,note_on,0,0,1,,,,,,,,,0,,,82,60
26820,note_on,60,0,3,,,,,,,,,0,,,60,0
26820,note_on,0,0,1,,,,,,,,,0,,,75,0
26820,note_on,60,0,1,,,,,,,,,0,,,72,0
26820,note_on,0,0,1,,,,,,,,,0,,,80,0
26880,note_on,0,0,3,,,,,,,,,0,,,63,0
26880,note_on,60,0,3,,,,,,,,,0,,,61,0
26880,note_on,0,0,3,,,,,,,,,0,,,70,0
26880,note_on,0,0,3,,,,,,,,,0,,,56,80
26880,note_on,0,0,1,,,,,,,,,0,,,75,0
26880,note_on,0,0,1,,,,,,,,,0,,,73,60
26880,note_on,0,0,1,,,,,,,,,0,,,75,60
26880,note_on,0,0,1,,,,,,,,,0,,,82,0
26880,note_on,60,0,1,,,,,,,,,0,,,73,0
26940,note_on,0,0,3,,,,,,,,,0,,,60,60
26940,note_on,0,0,3,,,,,,,,,0,,,63,60
26940,note_on,60,0,3,,,,,,,,,0,,,68,60
26940,note_on,60,0,1,,,,,,,,,0,,,73,0
26940,note_on,0,0,1,,,,,,,,,0,,,75,60
26940,note_on,0,0,1,,,,,,,,,0,,,75,0
26940,note_on,0,0,1,,,,,,,,,0,,,80,60
26940,note_on,0,0,1,,,,,,,,,0,,,72,60
26970,note_on,0,0,1,,,,,,,,,0,,,80,0
26970,note_on,0,0,1,,,,,,,,,0,,,75,0
26970,note_on,30,0,1,,,,,,,,,0,,,72,0
27000,note_on,0,0,3,,,,,,,,,0,,,68,60
27000,note_on,0,0,3,,,,,,,,,0,,,68,0
27000,note_on,0,0,3,,,,,,,,,0,,,63,0
27000,note_on,60,0,3,,,,,,,,,0,,,60,0
27000,note_on,30,0,1,,,,,,,,,0,,,80,60
27000,note_on,0,0,1,,,,,,,,,0,,,75,60
27000,note_on,0,0,1,,,,,,,,,0,,,72,60
27000,note_on,0,0,3,,,,,,,,,0,,,60,60
27000,note_on,0,0,3,,,,,,,,,0,,,63,60
27060,note_on,0,0,1,,,,,,,,,0,,,72,60
27060,note_on,0,0,1,,,,,,,,,0,,,75,60
27060,note_on,0,0,1,,,,,,,,,0,,,80,60
27060,note_on,0,0,1,,,,,,,,,0,,,80,0
27060,note_on,0,0,1,,,,,,,,,0,,,75,0
27060,note_on,60,0,1,,,,,,,,,0,,,72,0
27060,note_on,0,0,3,,,,,,,,,0,,,60,60
27060,note_on,0,0,3,,,,,,,,,0,,,63,60
27060,note_on,0,0,3,,,,,,,,,0,,,68,60
27060,note_on,0,0,3,,,,,,,,,0,,,68,0
27060,note_on,0,0,3,,,,,,,,,0,,,63,0
27060,note_on,60,0,3,,,,,,,,,0,,,60,0
27120,note_on,0,0,3,,,,,,,,,0,,,68,60
27120,note_on,60,0,3,,,,,,,,,0,,,60,0
27120,note_on,0,0,3,,,,,,,,,0,,,63,0
27120,note_on,0,0,3,,,,,,,,,0,,,68,0
27120,note_on,0,0,3,,,,,,,,,0,,,63,60
27120,note_on,0,0,1,,,,,,,,,0,,,72,60
27120,note_on,0,0,1,,,,,,,,,0,,,75,60
27120,note_on,0,0,1,,,,,,,,,0,,,80,0
27120,note_on,0,0,1,,,,,,,,,0,,,75,0
27120,note_on,60,0,1,,,,,,,,,0,,,72,0
27120,note_on,0,0,3,,,,,,,,,0,,,60,60
27120,note_on,0,0,1,,,,,,,,,0,,,80,60
27180,note_on,60,0,3,,,,,,,,,0,,,60,0
27180,note_on,0,0,3,,,,,,,,,0,,,68,0
27180,note_on,0,0,1,,,,,,,,,0,,,75,60
27180,note_on,0,0,3,,,,,,,,,0,,,56,0
27180,note_on,60,0,1,,,,,,,,,0,,,72,0
27180,note_on,0,0,1,,,,,,,,,0,,,80,0
27180,note_on,0,0,1,,,,,,,,,0,,,75,0
27180,note_on,0,0,3,,,,,,,,,0,,,60,60
27180,note_on,0,0,3,,,,,,,,,0,,,63,60
27180,note_on,0,0,3,,,,,,,,,0,,,63,0
27210,note_on,0,0,1,,,,,,,,,0,,,87,60
27210,note_on,30,0,1,,,,,,,,,0,,,75,0
27240,note_on,0,0,3,,,,,,,,,0,,,68,60
27240,note_on,0,0,3,,,,,,,,,0,,,63,60
27240,note_on,60,0,3,,,,,,,,,0,,,60,0
27240,note_on,0,0,1,,,,,,,,,0,,,80,60
27240,note_on,30,0,1,,,,,,,,,0,,,87,0
27240,note_on,0,0,3,,,,,,,,,0,,,63,0
27240,note_on,0,0,3,,,,,,,,,0,,,60,60
27270,note_on,0,0,1,,,,,,,,,0,,,87,60
27270,note_on,30,0,1,,,,,,,,,0,,,80,0
27300,note_on,60,0,3,,,,,,,,,0,,,60,0
27300,note_on,0,0,3,,,,,,,,,0,,,68,0
27300,note_on,0,0,3,,,,,,,,,0,,,67,60
27300,note_on,0,0,3,,,,,,,,,0,,,63,60
27300,note_on,0,0,3,,,,,,,,,0,,,63,0
27300,note_on,0,0,1,,,,,,,,,0,,,82,60
27300,note_on,30,0,1,,,,,,,,,0,,,87,0
27300,note_on,0,0,3,,,,,,,,,0,,,70,60
27330,note_on,0,0,1,,,,,,,,,0,,,87,60
27330,note_on,30,0,1,,,,,,,,,0,,,82,0
27360,note_on,60,0,3,,,,,,,,,0,,,63,0
27360,note_on,0,0,3,,,,,,,,,0,,,67,0
27360,note_on,0,0,3,,,,,,,,,0,,,56,80
27360,note_on,0,0,3,,,,,,,,,0,,,70,0
27360,control_change,13935,0,5,,,,,,,,,0,64,127,,
27360,note_on,0,0,1,,,,,,,,,0,,,75,60
27360,note_on,30,0,1,,,,,,,,,0,,,87,0
27390,note_on,0,0,1,,,,,,,,,0,,,87,60
27390,note_on,30,0,1,,,,,,,,,0,,,75,0
27390,note_on,30,0,3,,,,,,,,,0,,,56,0
27420,note_on,0,0,1,,,,,,,,,0,,,84,60
27420,note_on,30,0,1,,,,,,,,,0,,,87,0
27420,note_on,30,0,3,,,,,,,,,0,,,72,60
27420,note_on,0,0,3,,,,,,,,,0,,,68,60
27420,note_on,0,0,3,,,,,,,,,0,,,63,60
27450,note_on,30,0,1,,,,,,,,,0,,,84,0
27450,note_on,0,0,1,,,,,,,,,0,,,75,60
27465,control_change,105,0,5,,,,,,,,,0,64,0,,
27480,note_on,0,0,3,,,,,,,,,0,,,72,60
27480,note_on,0,0,3,,,,,,,,,0,,,72,0
27480,note_on,0,0,3,,,,,,,,,0,,,68,0
27480,note_on,60,0,3,,,,,,,,,0,,,63,0
27480,note_on,0,0,3,,,,,,,,,0,,,63,60
27480,note_on,0,0,1,,,,,,,,,0,,,75,60
27480,note_on,30,0,1,,,,,,,,,0,,,75,0
27480,note_on,0,0,3,,,,,,,,,0,,,68,60
27480,control_change,15,0,5,,,,,,,,,0,64,127,,
27510,note_on,30,0,1,,,,,,,,,0,,,75,0
27510,note_on,0,0,1,,,,,,,,,0,,,87,60
27540,note_on,0,0,3,,,,,,,,,0,,,68,60
27540,note_on,0,0,3,,,,,,,,,0,,,72,60
27540,note_on,60,0,3,,,,,,,,,0,,,63,0
27540,note_on,0,0,3,,,,,,,,,0,,,68,0
27540,note_on,30,0,1,,,,,,,,,0,,,87,0
27540,note_on,0,0,1,,,,,,,,,0,,,84,60
27540,note_on,0,0,3,,,,,,,,,0,,,63,60
27540,note_on,0,0,3,,,,,,,,,0,,,72,0
27570,note_on,30,0,1,,,,,,,,,0,,,84,0
27570,note_on,0,0,1,,,,,,,,,0,,,75,60
27585,control_change,105,0,5,,,,,,,,,0,64,0,,
27600,note_on,0,0,3,,,,,,,,,0,,,72,0
27600,note_on,0,0,3,,,,,,,,,0,,,68,0
27600,note_on,0,0,3,,,,,,,,,0,,,71,60
27600,note_on,0,0,3,,,,,,,,,0,,,62,60
27600,note_on,60,0,3,,,,,,,,,0,,,63,0
27600,note_on,0,0,3,,,,,,,,,0,,,68,60
27600,note_on,0,0,1,,,,,,,,,0,,,75,60
27600,note_on,30,0,1,,,,,,,,,0,,,75,0
27600,control_change,15,0,5,,,,,,,,,0,64,127,,
27630,note_on,30,0,1,,,,,,,,,0,,,75,0
27630,note_on,0,0,1,,,,,,,,,0,,,87,60
27660,note_on,0,0,3,,,,,,,,,0,,,68,0
27660,note_on,30,0,1,,,,,,,,,0,,,87,0
27660,note_on,0,0,1,,,,,,,,,0,,,84,60
27660,note_on,60,0,3,,,,,,,,,0,,,62,0
27660,note_on,0,0,3,,,,,,,,,0,,,63,60
27660,note_on,0,0,3,,,,,,,,,0,,,71,0
27660,note_on,0,0,3,,,,,,,,,0,,,72,60
27660,note_on,0,0,3,,,,,,,,,0,,,68,60
27690,note_on,30,0,1,,,,,,,,,0,,,84,0
27690,note_on,0,0,1,,,,,,,,,0,,,75,60
27690,note_on,0,0,3,,,,,,,,,0,,,72,0
27690,note_on,0,0,3,,,,,,,,,0,,,68,0
27690,note_on,30,0,3,,,,,,,,,0,,,63,0
27705,control_change,105,0,5,,,,,,,,,0,64,0,,
27720,note_on,0,0,1,,,,,,,,,0,,,75,60
27720,note_on,30,0,3,,,,,,,,,0,,,72,60
27720,note_on,30,0,1,,,,,,,,,0,,,75,0
27720,control_change,15,0,5,,,,,,,,,0,64,127,,
27720,note_on,0,0,3,,,,,,,,,0,,,63,60
27720,note_on,0,0,3,,,,,,,,,0,,,68,60
27750,note_on,30,0,1,,,,,,,,,0,,,75,0
27750,note_on,0,0,1,,,,,,,,,0,,,87,60
27780,note_on,30,0,1,,,,,,,,,0,,,87,0
27780,note_on,0,0,1,,,,,,,,,0,,,80,60
27780,note_on,60,0,3,,,,,,,,,0,,,63,0
27780,note_on,0,0,3,,,,,,,,,0,,,63,60
27780,note_on,0,0,3,,,,,,,,,0,,,72,0
27780,note_on,0,0,3,,,,,,,,,0,,,68,60
27780,note_on,0,0,3,,,,,,,,,0,,,72,60
27780,note_on,0,0,3,,,,,,,,,0,,,68,0
27810,note_on,30,0,1,,,,,,,,,0,,,80,0
27810,note_on,0,0,1,,,,,,,,,0,,,92,60
27825,control_change,105,0,5,,,,,,,,,0,64,0,,
27840,note_on,30,0,1,,,,,,,,,0,,,92,0
27840,note_on,0,0,1,,,,,,,,,0,,,80,60
27840,control_change,15,0,5,,,,,,,,,0,64,127,,
27840,note_on,60,0,3,,,,,,,,,0,,,63,0
27840,note_on,0,0,3,,,,,,,,,0,,,68,0
27840,note_on,0,0,3,,,,,,,,,0,,,61,80
27840,note_on,0,0,3,,,,,,,,,0,,,66,60
27840,note_on,0,0,3,,,,,,,,,0,,,68,60
27840,note_on,0,0,3,,,,,,,,,0,,,75,60
27840,note_on,0,0,3,,,,,,,,,0,,,72,0
27870,note_on,0,0,1,,,,,,,,,0,,,92,60
27870,note_on,30,0,1,,,,,,,,,0,,,80,0
27900,note_on,0,0,3,,,,,,,,,0,,,65,60
27900,note_on,30,0,1,,,,,,,,,0,,,92,0
27900,note_on,0,0,3,,,,,,,,,0,,,68,60
27900,note_on,60,0,3,,,,,,,,,0,,,66,0
27900,note_on,0,0,3,,,,,,,,,0,,,75,0
27900,note_on,0,0,3,,,,,,,,,0,,,73,60
27900,note_on,0,0,3,,,,,,,,,0,,,68,0
27900,note_on,0,0,1,,,,,,,,,0,,,89,60
27930,note_on,0,0,1,,,,,,,,,0,,,80,60
27930,note_on,30,0,3,,,,,,,,,0,,,65,0
27930,note_on,0,0,3,,,,,,,,,0,,,68,0
27930,note_on,30,0,1,,,,,,,,,0,,,89,0
27930,note_on,0,0,3,,,,,,,,,0,,,73,0
27945,control_change,105,0,5,,,,,,,,,0,64,0,,
27960,note_on,0,0,3,,,,,,,,,0,,,65,60
27960,control_change,15,0,5,,,,,,,,,0,64,127,,
27960,note_on,0,0,3,,,,,,,,,0,,,68,60
27960,note_on,30,0,3,,,,,,,,,0,,,73,60
27960,note_on,30,0,1,,,,,,,,,0,,,80,0
27960,note_on,0,0,1,,,,,,,,,0,,,80,60
27990,note_on,30,0,1,,,,,,,,,0,,,80,0
27990,note_on,0,0,1,,,,,,,,,0,,,92,60
28020,note_on,0,0,3,,,,,,,,,0,,,73,60
28020,note_on,30,0,1,,,,,,,,,0,,,92,0
28020,note_on,0,0,3,,,,,,,,,0,,,68,60
28020,note_on,60,0,3,,,,,,,,,0,,,65,0
28020,note_on,0,0,3,,,,,,,,,0,,,73,0
28020,note_on,0,0,3,,,,,,,,,0,,,68,0
28020,note_on,0,0,3,,,,,,,,,0,,,65,60
28020,note_on,0,0,1,,,,,,,,,0,,,89,60
28050,note_on,30,0,1,,,,,,,,,0,,,89,0
28050,note_on,0,0,1,,,,,,,,,0,,,80,60
28065,control_change,105,0,5,,,,,,,,,0,64,0,,
28080,note_on,0,0,3,,,,,,,,,0,,,73,60
28080,note_on,0,0,1,,,,,,,,,0,,,80,60
28080,control_change,15,0,5,,,,,,,,,0,64,127,,
28080,note_on,0,0,3,,,,,,,,,0,,,65,60
28080,note_on,0,0,3,,,,,,,,,0,,,68,60
28080,note_on,0,0,3,,,,,,,,,0,,,73,0
28080,note_on,0,0,3,,,,,,,,,0,,,68,0
28080,note_on,60,0,3,,,,,,,,,0,,,65,0
28080,note_on,30,0,1,,,,,,,,,0,,,80,0
28110,note_on,30,0,1,,,,,,,,,0,,,80,0
28110,note_on,0,0,1,,,,,,,,,0,,,92,60
28140,note_on,0,0,3,,,,,,,,,0,,,61,0
28140,note_on,0,0,1,,,,,,,,,0,,,81,60
28140,note_on,0,0,3,,,,,,,,,0,,,63,60
28140,note_on,30,0,1,,,,,,,,,0,,,92,0
28140,note_on,0,0,3,,,,,,,,,0,,,72,60
28140,note_on,0,0,3,,,,,,,,,0,,,68,0
28140,note_on,0,0,3,,,,,,,,,0,,,73,0
28140,note_on,0,0,3,,,,,,,,,0,,,65,60
28140,note_on,60,0,3,,,,,,,,,0,,,65,0
28170,note_on,0,0,1,,,,,,,,,0,,,93,60
28170,note_on,30,0,1,,,,,,,,,0,,,81,0
28185,control_change,105,0,5,,,,,,,,,0,64,0,,
28200,note_on,0,0,1,,,,,,,,,0,,,82,60
28200,note_on,30,0,1,,,,,,,,,0,,,93,0
28200,note_on,60,0,3,,,,,,,,,0,,,63,0
28200,note_on,0,0,3,,,,,,,,,0,,,65,0
28200,note_on,0,0,3,,,,,,,,,0,,,72,0
28200,note_on,0,0,3,,,,,,,,,0,,,70,60
28200,note_on,0,0,3,,,,,,,,,0,,,65,60
28200,note_on,0,0,3,,,,,,,,,0,,,61,60
28200,control_change,15,0,5,,,,,,,,,0,64,127,,
28230,note_on,30,0,1,,,,,,,,,0,,,82,0
28230,note_on,0,0,1,,,,,,,,,0,,,94,60
28260,note_on,0,0,1,,,,,,,,,0,,,84,60
28260,note_on,60,0,3,,,,,,,,,0,,,61,0
28260,note_on,0,0,3,,,,,,,,,0,,,65,0
28260,note_on,0,0,3,,,,,,,,,0,,,70,0
28260,note_on,0,0,3,,,,,,,,,0,,,68,60
28260,note_on,0,0,3,,,,,,,,,0,,,65,60
28260,note_on,0,0,3,,,,,,,,,0,,,60,60
28260,note_on,30,0,1,,,,,,,,,0,,,94,0
28260,note_on,0,0,1,,,,,,,,,0,,,96,60
28290,note_on,0,0,1,,,,,,,,,0,,,85,60
28290,note_on,30,0,1,,,,,,,,,0,,,84,0
28290,note_on,0,0,1,,,,,,,,,0,,,96,0
28290,note_on,0,0,1,,,,,,,,,0,,,97,60
28305,control_change,105,0,5,,,,,,,,,0,64,0,,
28320,note_on,0,0,3,,,,,,,,,0,,,65,0
28320,note_on,0,0,3,,,,,,,,,0,,,68,0
28320,note_on,0,0,3,,,,,,,,,0,,,51,80
28320,control_change,15,0,5,,,,,,,,,0,64,127,,
28320,note_on,60,0,3,,,,,,,,,0,,,60,0
28320,note_on,30,0,1,,,,,,,,,0,,,85,0
28320,note_on,0,0,1,,,,,,,,,0,,,97,0
28320,note_on,0,0,1,,,,,,,,,0,,,87,60
28350,note_on,0,0,1,,,,,,,,,0,,,99,60
28350,note_on,30,0,3,,,,,,,,,0,,,51,0
28350,note_on,30,0,1,,,,,,,,,0,,,87,0
28380,note_on,0,0,1,,,,,,,,,0,,,97,60
28380,note_on,30,0,1,,,,,,,,,0,,,99,0
28380,note_on,30,0,3,,,,,,,,,0,,,67,60
28380,note_on,0,0,3,,,,,,,,,0,,,58,60
28380,note_on,0,0,3,,,,,,,,,0,,,63,60
28410,note_on,30,0,1,,,,,,,,,0,,,97,0
28410,note_on,0,0,1,,,,,,,,,0,,,87,60
28425,control_change,105,0,5,,,,,,,,,0,64,0,,
28440,control_change,15,0,5,,,,,,,,,0,64,127,,
28440,note_on,60,0,3,,,,,,,,,0,,,58,0
28440,note_on,0,0,3,,,,,,,,,0,,,67,0
28440,note_on,0,0,3,,,,,,,,,0,,,67,60
28440,note_on,0,0,3,,,,,,,,,0,,,63,60
28440,note_on,0,0,3,,,,,,,,,0,,,58,60
28440,note_on,0,0,3,,,,,,,,,0,,,63,0
28440,note_on,0,0,1,,,,,,,,,0,,,87,60
28440,note_on,30,0,1,,,,,,,,,0,,,87,0
28470,note_on,0,0,1,,,,,,,,,0,,,99,60
28470,note_on,30,0,1,,,,,,,,,0,,,87,0
28500,note_on,0,0,3,,,,,,,,,0,,,58,60
28500,note_on,0,0,3,,,,,,,,,0,,,63,60
28500,note_on,0,0,3,,,,,,,,,0,,,67,60
28500,note_on,30,0,1,,,,,,,,,0,,,99,0
28500,note_on,0,0,3,,,,,,,,,0,,,67,0
28500,note_on,0,0,3,,,,,,,,,0,,,63,0
28500,note_on,60,0,3,,,,,,,,,0,,,58,0
28500,note_on,0,0,1,,,,,,,,,0,,,97,60
28530,note_on,0,0,1,,,,,,,,,0,,,87,60
28530,note_on,30,0,1,,,,,,,,,0,,,97,0
28545,control_change,105,0,5,,,,,,,,,0,64,0,,
28560,note_on,0,0,3,,,,,,,,,0,,,58,60
28560,note_on,0,0,3,,,,,,,,,0,,,63,60
28560,control_change,15,0,5,,,,,,,,,0,64,127,,
28560,note_on,0,0,3,,,,,,,,,0,,,67,60
28560,note_on,0,0,3,,,,,,,,,0,,,67,0
28560,note_on,0,0,3,,,,,,,,,0,,,63,0
28560,note_on,60,0,3,,,,,,,,,0,,,58,0
28560,note_on,0,0,1,,,,,,,,,0,,,87,60
28560,note_on,30,0,1,,,,,,,,,0,,,87,0
28590,note_on,0,0,1,,,,,,,,,0,,,99,60
28590,note_on,30,0,1,,,,,,,,,0,,,87,0
28620,note_on,30,0,1,,,,,,,,,0,,,99,0
28620,note_on,0,0,1,,,,,,,,,0,,,97,60
28620,note_on,0,0,3,,,,,,,,,0,,,58,60
28620,note_on,0,0,3,,,,,,,,,0,,,67,60
28620,note_on,60,0,3,,,,,,,,,0,,,58,0
28620,note_on,0,0,3,,,,,,,,,0,,,63,0
28620,note_on,0,0,3,,,,,,,,,0,,,67,0
28620,note_on,0,0,3,,,,,,,,,0,,,63,60
28650,note_on,0,0,1,,,,,,,,,0,,,87,60
28650,note_on,30,0,1,,,,,,,,,0,,,97,0
28665,control_change,105,0,5,,,,,,,,,0,64,0,,
28680,note_on,0,0,3,,,,,,,,,0,,,63,0
28680,note_on,60,0,3,,,,,,,,,0,,,58,0
28680,control_change,15,0,5,,,,,,,,,0,64,127,,
28680,note_on,0,0,3,,,,,,,,,0,,,60,60
28680,note_on,0,0,3,,,,,,,,,0,,,63,60
28680,note_on,0,0,3,,,,,,,,,0,,,68,60
28680,note_on,0,0,3,,,,,,,,,0,,,67,0
28680,note_on,0,0,1,,,,,,,,,0,,,96,60
28680,note_on,30,0,1,,,,,,,,,0,,,87,0
28710,note_on,0,0,1,,,,,,,,,0,,,99,60
28710,note_on,30,0,1,,,,,,,,,0,,,96,0
28740,note_on,30,0,1,,,,,,,,,0,,,99,0
28740,note_on,0,0,1,,,,,,,,,0,,,94,60
28740,note_on,0,0,3,,,,,,,,,0,,,61,60
28740,note_on,0,0,3,,,,,,,,,0,,,70,60
28740,note_on,0,0,3,,,,,,,,,0,,,68,0
28740,note_on,0,0,3,,,,,,,,,0,,,63,0
28740,note_on,60,0,3,,,,,,,,,0,,,60,0
28740,note_on,0,0,3,,,,,,,,,0,,,63,60
28770,note_on,0,0,1,,,,,,,,,0,,,99,60
28770,note_on,30,0,1,,,,,,,,,0,,,94,0
28785,control_change,105,0,5,,,,,,,,,0,64,0,,
28800,control_change,15,0,5,,,,,,,,,0,64,127,,
28800,note_on,30,0,1,,,,,,,,,0,,,99,0
28800,note_on,0,0,1,,,,,,,,,0,,,87,60
28800,note_on,0,0,3,,,,,,,,,0,,,56,80
28800,note_on,0,0,3,,,,,,,,,0,,,63,60
28800,note_on,0,0,3,,,,,,,,,0,,,70,0
28800,note_on,0,0,3,,,,,,,,,0,,,63,0
28800,note_on,60,0,3,,,,,,,,,0,,,61,0
28800,note_on,0,0,3,,,,,,,,,0,,,61,60
28830,note_on,0,0,1,,,,,,,,,0,,,99,60
28830,note_on,30,0,1,,,,,,,,,0,,,87,0
28860,note_on,0,0,3,,,,,,,,,0,,,60,60
28860,note_on,0,0,3,,,,,,,,,0,,,63,60
28860,note_on,0,0,3,,,,,,,,,0,,,63,0
28860,note_on,60,0,3,,,,,,,,,0,,,61,0
28860,note_on,30,0,1,,,,,,,,,0,,,99,0
28860,note_on,0,0,3,,,,,,,,,0,,,68,60
28860,note_on,0,0,1,,,,,,,,,0,,,96,60
28890,note_on,0,0,3,,,,,,,,,0,,,63,0
28890,note_on,0,0,3,,,,,,,,,0,,,68,0
28890,note_on,30,0,1,,,,,,,,,0,,,96,0
28890,note_on,0,0,1,,,,,,,,,0,,,87,60
28890,note_on,30,0,3,,,,,,,,,0,,,60,0
28905,control_change,105,0,5,,,,,,,,,0,64,0,,
28920,note_on,30,0,3,,,,,,,,,0,,,68,60
28920,note_on,0,0,3,,,,,,,,,0,,,63,60
28920,note_on,0,0,3,,,,,,,,,0,,,60,60
28920,note_on,0,0,1,,,,,,,,,0,,,87,60
28920,note_on,30,0,1,,,,,,,,,0,,,87,0
28920,control_change,15,0,5,,,,,,,,,0,64,127,,
28950,note_on,0,0,1,,,,,,,,,0,,,99,60
28950,note_on,30,0,1,,,,,,,,,0,,,87,0
28980,note_on,0,0,3,,,,,,,,,0,,,68,60
28980,note_on,0,0,3,,,,,,,,,0,,,63,60
28980,note_on,0,0,3,,,,,,,,,0,,,60,60
28980,note_on,60,0,3,,,,,,,,,0,,,60,0
28980,note_on,30,0,1,,,,,,,,,0,,,99,0
28980,note_on,0,0,1,,,,,,,,,0,,,96,60
28980,note_on,0,0,3,,,,,,,,,0,,,68,0
28980,note_on,0,0,3,,,,,,,,,0,,,63,0
29010,note_on,30,0,1,,,,,,,,,0,,,96,0
29010,note_on,0,0,1,,,,,,,,,0,,,87,60
29025,note_on,45,0,3,,,,,,,,,0,,,68,60
29025,control_change,105,0,5,,,,,,,,,0,64,0,,
29040,note_on,15,0,3,,,,,,,,,0,,,60,0
29040,note_on,0,0,3,,,,,,,,,0,,,63,0
29040,note_on,0,0,3,,,,,,,,,0,,,56,0
29040,note_on,0,0,3,,,,,,,,,0,,,68,0
29040,control_change,15,0,5,,,,,,,,,0,64,127,,
29040,note_on,0,0,3,,,,,,,,,0,,,72,60
29040,note_on,0,0,3,,,,,,,,,0,,,63,60
29040,note_on,0,0,1,,,,,,,,,0,,,87,60
29040,note_on,30,0,1,,,,,,,,,0,,,87,0
29070,note_on,30,0,1,,,,,,,,,0,,,87,0
29070,note_on,0,0,1,,,,,,,,,0,,,99,60
29100,note_on,0,0,3,,,,,,,,,0,,,60,60
29100,note_on,0,0,3,,,,,,,,,0,,,72,0
29100,note_on,0,0,3,,,,,,,,,0,,,68,60
29100,note_on,0,0,3,,,,,,,,,0,,,68,0
29100,note_on,60,0,3,,,,,,,,,0,,,63,0
29100,note_on,0,0,3,,,,,,,,,0,,,63,60
29100,note_on,30,0,1,,,,,,,,,0,,,99,0
29100,note_on,0,0,1,,,,,,,,,0,,,96,60
29130,note_on,30,0,3,,,,,,,,,0,,,60,0
29130,note_on,0,0,3,,,,,,,,,0,,,68,0
29130,note_on,0,0,1,,,,,,,,,0,,,87,60
29130,note_on,0,0,3,,,,,,,,,0,,,63,0
29130,note_on,30,0,1,,,,,,,,,0,,,96,0
29145,control_change,105,0,5,,,,,,,,,0,64,0,,
29160,control_change,15,0,5,,,,,,,,,0,64,127,,
29160,note_on,0,0,3,,,,,,,,,0,,,60,60
29160,note_on,0,0,3,,,,,,,,,0,,,63,60
29160,note_on,0,0,1,,,,,,,,,0,,,92,60
29160,note_on,30,0,1,,,,,,,,,0,,,87,0
29160,note_on,30,0,3,,,,,,,,,0,,,68,60
29190,note_on,0,0,1,,,,,,,,,0,,,104,60
29190,note_on,30,0,1,,,,,,,,,0,,,92,0
29220,note_on,0,0,3,,,,,,,,,0,,,68,0
29220,note_on,0,0,3,,,,,,,,,0,,,60,60
29220,note_on,0,0,3,,,,,,,,,0,,,68,60
29220,note_on,60,0,3,,,,,,,,,0,,,60,0
29220,note_on,30,0,1,,,,,,,,,0,,,104,0
29220,note_on,0,0,3,,,,,,,,,0,,,63,60
29220,note_on,0,0,1,,,,,,,,,0,,,87,60
29220,note_on,0,0,3,,,,,,,,,0,,,63,0
29250,note_on,0,0,1,,,,,,,,,0,,,99,60
29250,note_on,30,0,1,,,,,,,,,0,,,87,0
29265,control_change,105,0,5,,,,,,,,,0,64,0,,
29280,note_on,30,0,1,,,,,,,,,0,,,99,0
29280,note_on,0,0,1,,,,,,,,,0,,,87,60
29280,note_on,60,0,3,,,,,,,,,0,,,60,0
29280,note_on,0,0,3,,,,,,,,,0,,,68,0
29280,note_on,0,0,3,,,,,,,,,0,,,51,80
29280,control_change,15,0,5,,,,,,,,,0,64,127,,
29280,note_on,0,0,3,,,,,,,,,0,,,63,0
29310,note_on,0,0,1,,,,,,,,,0,,,99,60
29310,note_on,30,0,1,,,,,,,,,0,,,87,0
29310,note_on,30,0,3,,,,,,,,,0,,,51,0
29340,note_on,0,0,1,,,,,,,,,0,,,97,60
29340,note_on,0,0,3,,,,,,,,,0,,,58,60
29340,note_on,30,0,1,,,,,,,,,0,,,99,0
29340,note_on,30,0,3,,,,,,,,,0,,,67,60
29340,note_on,0,0,3,,,,,,,,,0,,,63,60
29370,note_on,0,0,1,,,,,,,,,0,,,87,60
29370,note_on,30,0,1,,,,,,,,,0,,,97,0
29385,control_change,105,0,5,,,,,,,,,0,64,0,,
29400,control_change,15,0,5,,,,,,,,,0,64,127,,
29400,note_on,0,0,1,,,,,,,,,0,,,87,60
29400,note_on,30,0,1,,,,,,,,,0,,,87,0
29400,note_on,60,0,3,,,,,,,,,0,,,58,0
29400,note_on,0,0,3,,,,,,,,,0,,,67,60
29400,note_on,0,0,3,,,,,,,,,0,,,63,0
29400,note_on,0,0,3,,,,,,,,,0,,,67,0
29400,note_on,0,0,3,,,,,,,,,0,,,63,60
29400,note_on,0,0,3,,,,,,,,,0,,,58,60
29430,note_on,0,0,1,,,,,,,,,0,,,99,60
29430,note_on,30,0,1,,,,,,,,,0,,,87,0
29460,note_on,0,0,1,,,,,,,,,0,,,97,60
29460,note_on,60,0,3,,,,,,,,,0,,,58,0
29460,note_on,30,0,1,,,,,,,,,0,,,99,0
29460,note_on,0,0,3,,,,,,,,,0,,,67,0
29460,note_on,0,0,3,,,,,,,,,0,,,67,60
29460,note_on,0,0,3,,,,,,,,,0,,,63,60
29460,note_on,0,0,3,,,,,,,,,0,,,58,60
29460,note_on,0,0,3,,,,,,,,,0,,,63,0
29490,note_on,30,0,1,,,,,,,,,0,,,97,0
29490,note_on,0,0,1,,,,,,,,,0,,,87,60
29505,control_change,105,0,5,,,,,,,,,0,64,0,,
29520,control_change,15,0,5,,,,,,,,,0,64,127,,
29520,note_on,0,0,3,,,,,,,,,0,,,67,60
29520,note_on,0,0,3,,,,,,,,,0,,,63,60
29520,note_on,0,0,3,,,,,,,,,0,,,58,60
29520,note_on,0,0,1,,,,,,,,,0,,,87,60
29520,note_on,30,0,1,,,,,,,,,0,,,87,0
29520,note_on,60,0,3,,,,,,,,,0,,,58,0
29520,note_on,0,0,3,,,,,,,,,0,,,63,0
29520,note_on,0,0,3,,,,,,,,,0,,,67,0
29550,note_on,30,0,1,,,,,,,,,0,,,87,0
29550,note_on,0,0,1,,,,,,,,,0,,,99,60
29580,note_on,0,0,3,,,,,,,,,0,,,67,0
29580,note_on,60,0,3,,,,,,,,,0,,,58,0
29580,note_on,0,0,3,,,,,,,,,0,,,63,0
29580,note_on,0,0,3,,,,,,,,,0,,,67,60
29580,note_on,0,0,3,,,,,,,,,0,,,63,60
29580,note_on,0,0,3,,,,,,,,,0,,,58,60
29580,note_on,30,0,1,,,,,,,,,0,,,99,0
29580,note_on,0,0,1,,,,,,,,,0,,,97,60
29610,note_on,0,0,1,,,,,,,,,0,,,87,60
29610,note_on,30,0,1,,,,,,,,,0,,,97,0
29625,control_change,105,0,5,,,,,,,,,0,64,0,,
29640,control_change,15,0,5,,,,,,,,,0,64,127,,
29640,note_on,0,0,1,,,,,,,,,0,,,96,60
29640,note_on,30,0,1,,,,,,,,,0,,,87,0
29640,note_on,0,0,3,,,,,,,,,0,,,60,60
29640,note_on,0,0,3,,,,,,,,,0,,,63,60
29640,note_on,0,0,3,,,,,,,,,0,,,68,60
29640,note_on,0,0,3,,,,,,,,,0,,,67,0
29640,note_on,0,0,3,,,,,,,,,0,,,63,0
29640,note_on,60,0,3,,,,,,,,,0,,,58,0
29670,note_on,0,0,1,,,,,,,,,0,,,99,60
29670,note_on,30,0,1,,,,,,,,,0,,,96,0
29700,note_on,0,0,3,,,,,,,,,0,,,70,60
29700,note_on,0,0,3,,,,,,,,,0,,,63,0
29700,note_on,0,0,3,,,,,,,,,0,,,68,0
29700,note_on,0,0,3,,,,,,,,,0,,,63,60
29700,note_on,0,0,3,,,,,,,,,0,,,61,60
29700,note_on,0,0,1,,,,,,,,,0,,,94,60
29700,note_on,30,0,1,,,,,,,,,0,,,99,0
29700,note_on,60,0,3,,,,,,,,,0,,,60,0
29730,note_on,0,0,1,,,,,,,,,0,,,99,60
29730,note_on,30,0,1,,,,,,,,,0,,,94,0
29745,control_change,105,0,5,,,,,,,,,0,64,0,,
29760,note_on,60,0,3,,,,,,,,,0,,,61,0
29760,note_on,0,0,3,,,,,,,,,0,,,63,0
29760,note_on,0,0,3,,,,,,,,,0,,,70,0
29760,note_on,0,0,3,,,,,,,,,0,,,63,60
29760,note_on,0,0,3,,,,,,,,,0,,,61,60
29760,note_on,0,0,3,,,,,,,,,0,,,56,80
29760,control_change,15,0,5,,,,,,,,,0,64,127,,
29760,note_on,30,0,1,,,,,,,,,0,,,99,0
29760,note_on,0,0,1,,,,,,,,,0,,,87,60
29790,note_on,30,0,1,,,,,,,,,0,,,87,0
29790,note_on,0,0,1,,,,,,,,,0,,,99,60
29820,note_on,0,0,3,,,,,,,,,0,,,60,60
29820,note_on,0,0,3,,,,,,,,,0,,,63,60
29820,note_on,30,0,1,,,,,,,,,0,,,99,0
29820,note_on,0,0,1,,,,,,,,,0,,,96,60
29820,note_on,0,0,3,,,,,,,,,0,,,68,60
29820,note_on,0,0,3,,,,,,,,,0,,,63,0
29820,note_on,60,0,3,,,,,,,,,0,,,61,0
29850,note_on,0,0,3,,,,,,,,,0,,,68,0
29850,note_on,0,0,3,,,,,,,,,0,,,63,0
29850,note_on,30,0,3,,,,,,,,,0,,,60,0
29850,note_on,30,0,1,,,,,,,,,0,,,96,0
29850,note_on,0,0,1,,,,,,,,,0,,,87,60
29865,control_change,105,0,5,,,,,,,,,0,64,0,,
29880,note_on,0,0,1,,,,,,,,,0,,,87,60
29880,note_on,30,0,1,,,,,,,,,0,,,87,0
29880,note_on,30,0,3,,,,,,,,,0,,,68,60
29880,note_on,0,0,3,,,,,,,,,0,,,63,60
29880,note_on,0,0,3,,,,,,,,,0,,,60,60
29880,control_change,15,0,5,,,,,,,,,0,64,127,,
29910,note_on,0,0,1,,,,,,,,,0,,,99,60
29910,note_on,30,0,1,,,,,,,,,0,,,87,0
29940,note_on,30,0,1,,,,,,,,,0,,,99,0
29940,note_on,60,0,3,,,,,,,,,0,,,60,0
29940,note_on,0,0,3,,,,,,,,,0,,,63,0
29940,note_on,0,0,3,,,,,,,,,0,,,68,0
29940,note_on,0,0,3,,,,,,,,,0,,,63,60
29940,note_on,0,0,3,,,,,,,,,0,,,60,60
29940,note_on,0,0,1,,,,,,,,,0,,,96,60
29940,note_on,0,0,3,,,,,,,,,0,,,68,60
29970,note_on,0,0,1,,,,,,,,,0,,,87,60
29970,note_on,30,0,1,,,,,,,,,0,,,96,0
29985,note_on,45,0,3,,,,,,,,,0,,,68,60
29985,control_change,105,0,5,,,,,,,,,0,64,0,,
30000,note_on,15,0,3,,,,,,,,,0,,,60,0
30000,note_on,0,0,3,,,,,,,,,0,,,63,0
30000,note_on,0,0,3,,,,,,,,,0,,,56,0
30000,note_on,0,0,3,,,,,,,,,0,,,68,0
30000,control_change,15,0,5,,,,,,,,,0,64,127,,
30000,note_on,0,0,3,,,,,,,,,0,,,63,60
30000,note_on,0,0,3,,,,,,,,,0,,,72,60
30000,note_on,30,0,1,,,,,,,,,0,,,87,0
30000,note_on,0,0,1,,,,,,,,,0,,,87,60
30030,note_on,30,0,1,,,,,,,,,0,,,87,0
30030,note_on,0,0,1,,,,,,,,,0,,,99,60
30060,note_on,60,0,3,,,,,,,,,0,,,63,0
30060,note_on,0,0,3,,,,,,,,,0,,,72,0
30060,note_on,0,0,3,,,,,,,,,0,,,68,0
30060,note_on,0,0,3,,,,,,,,,0,,,68,60
30060,note_on,0,0,3,,,,,,,,,0,,,63,60
30060,note_on,0,0,3,,,,,,,,,0,,,60,60
30060,note_on,0,0,1,,,,,,,,,0,,,96,60
30060,note_on,30,0,1,,,,,,,,,0,,,99,0
30090,note_on,0,0,3,,,,,,,,,0,,,68,0
30090,note_on,0,0,3,,,,,,,,,0,,,63,0
30090,note_on,30,0,1,,,,,,,,,0,,,96,0
30090,note_on,0,0,1,,,,,,,,,0,,,87,60
30090,note_on,30,0,3,,,,,,,,,0,,,60,0
30105,control_change,105,0,5,,,,,,,,,0,64,0,,
30120,note_on,30,0,3,,,,,,,,,0,,,68,60
30120,note_on,0,0,3,,,,,,,,,0,,,60,60
30120,note_on,0,0,3,,,,,,,,,0,,,63,60
30120,control_change,15,0,5,,,,,,,,,0,64,127,,
30120,note_on,0,0,1,,,,,,,,,0,,,92,60
30120,note_on,30,0,1,,,,,,,,,0,,,87,0
30150,note_on,30,0,1,,,,,,,,,0,,,92,0
30150,note_on,0,0,1,,,,,,,,,0,,,104,60
30180,note_on,60,0,3,,,,,,,,,0,,,60,0
30180,note_on,0,0,3,,,,,,,,,0,,,63,0
30180,note_on,0,0,3,,,,,,,,,0,,,68,0
30180,note_on,30,0,1,,,,,,,,,0,,,104,0
30180,note_on,0,0,3,,,,,,,,,0,,,63,60
30180,note_on,0,0,1,,,,,,,,,0,,,87,60
30180,note_on,0,0,3,,,,,,,,,0,,,60,60
30180,note_on,0,0,3,,,,,,,,,0,,,68,60
30210,note_on,0,0,1,,,,,,,,,0,,,99,60
30210,note_on,30,0,1,,,,,,,,,0,,,87,0
30225,control_change,105,0,5,,,,,,,,,0,64,0,,
30240,note_on,60,0,3,,,,,,,,,0,,,60,0
30240,note_on,0,0,3,,,,,,,,,0,,,51,80
30240,note_on,0,0,3,,,,,,,,,0,,,63,0
30240,note_on,0,0,1,,,,,,,,,0,,,87,60
30240,note_on,30,0,1,,,,,,,,,0,,,99,0
30240,note_on,0,0,3,,,,,,,,,0,,,68,0
30240,set_tempo,15840,1,0,,,,,,500042,,,,,,,
30240,control_change,15,0,5,,,,,,,,,0,64,127,,
30247,set_tempo,7,1,0,,,,,,501295,,,,,,,
30254,set_tempo,7,1,0,,,,,,502555,,,,,,,
30261,set_tempo,7,1,0,,,,,,505093,,,,,,,
30268,set_tempo,7,1,0,,,,,,506372,,,,,,,
30270,note_on,30,0,3,,,,,,,,,0,,,51,0
30270,note_on,0,0,1,,,,,,,,,0,,,99,60
30270,note_on,30,0,1,,,,,,,,,0,,,87,0
30275,set_tempo,7,1,0,,,,,,507657,,,,,,,
30282,set_tempo,7,1,0,,,,,,510247,,,,,,,
30289,set_tempo,7,1,0,,,,,,511553,,,,,,,
30296,set_tempo,7,1,0,,,,,,514183,,,,,,,
30300,note_on,0,0,3,,,,,,,,,0,,,63,60
30300,note_on,30,0,3,,,,,,,,,0,,,67,60
30300,note_on,0,0,1,,,,,,,,,0,,,97,60
30300,note_on,30,0,1,,,,,,,,,0,,,99,0
30300,note_on,0,0,3,,,,,,,,,0,,,58,60
30303,set_tempo,7,1,0,,,,,,515508,,,,,,,
30310,set_tempo,7,1,0,,,,,,516840,,,,,,,
30317,set_tempo,7,1,0,,,,,,519526,,,,,,,
30324,set_tempo,7,1,0,,,,,,520879,,,,,,,
30330,note_on,0,0,1,,,,,,,,,0,,,87,60
30330,note_on,30,0,1,,,,,,,,,0,,,97,0
30331,set_tempo,7,1,0,,,,,,523606,,,,,,,
30338,set_tempo,7,1,0,,,,,,524980,,,,,,,
30345,control_change,105,0,5,,,,,,,,,0,64,0,,
30345,set_tempo,7,1,0,,,,,,526362,,,,,,,
30352,set_tempo,7,1,0,,,,,,529147,,,,,,,
30360,note_on,0,0,1,,,,,,,,,0,,,87,60
30360,note_on,30,0,1,,,,,,,,,0,,,87,0
30360,note_on,0,0,3,,,,,,,,,0,,,63,60
30360,note_on,0,0,3,,,,,,,,,0,,,63,0
30360,note_on,0,0,3,,,,,,,,,0,,,67,0
30360,note_on,0,0,3,,,,,,,,,0,,,67,60
30360,note_on,60,0,3,,,,,,,,,0,,,58,0
30360,note_on,0,0,3,,,,,,,,,0,,,58,60
30360,set_tempo,8,1,0,,,,,,530551,,,,,,,
30360,control_change,15,0,5,,,,,,,,,0,64,127,,
30367,set_tempo,7,1,0,,,,,,531962,,,,,,,
30374,set_tempo,7,1,0,,,,,,534807,,,,,,,
30381,set_tempo,7,1,0,,,,,,536241,,,,,,,
30388,set_tempo,7,1,0,,,,,,539132,,,,,,,
30390,note_on,0,0,1,,,,,,,,,0,,,99,60
30390,note_on,30,0,1,,,,,,,,,0,,,87,0
30395,set_tempo,7,1,0,,,,,,540589,,,,,,,
30402,set_tempo,7,1,0,,,,,,542054,,,,,,,
30409,set_tempo,7,1,0,,,,,,545009,,,,,,,
30416,set_tempo,7,1,0,,,,,,546498,,,,,,,
30420,note_on,0,0,3,,,,,,,,,0,,,67,0
30420,note_on,0,0,3,,,,,,,,,0,,,58,60
30420,note_on,0,0,1,,,,,,,,,0,,,97,60
30420,note_on,30,0,1,,,,,,,,,0,,,99,0
30420,note_on,0,0,3,,,,,,,,,0,,,63,60
30420,note_on,0,0,3,,,,,,,,,0,,,67,60
30420,note_on,60,0,3,,,,,,,,,0,,,58,0
30420,note_on,0,0,3,,,,,,,,,0,,,63,0
30423,set_tempo,7,1,0,,,,,,549501,,,,,,,
30430,set_tempo,7,1,0,,,,,,551015,,,,,,,
30437,set_tempo,7,1,0,,,,,,552537,,,,,,,
30444,set_tempo,7,1,0,,,,,,555607,,,,,,,
30450,note_on,30,0,1,,,,,,,,,0,,,97,0
30450,note_on,0,0,1,,,,,,,,,0,,,87,60
30451,set_tempo,7,1,0,,,,,,557155,,,,,,,
30458,set_tempo,7,1,0,,,,,,560276,,,,,,,
30465,set_tempo,7,1,0,,,,,,561850,,,,,,,
30465,control_change,105,0,5,,,,,,,,,0,64,0,,
30472,set_tempo,7,1,0,,,,,,563433,,,,,,,
30480,set_tempo,8,1,0,,,,,,566626,,,,,,,
30480,note_on,60,0,3,,,,,,,,,0,,,58,0
30480,control_change,15,0,5,,,,,,,,,0,64,127,,
30480,note_on,0,0,3,,,,,,,,,0,,,58,60
30480,note_on,0,0,3,,,,,,,,,0,,,63,60
30480,note_on,0,0,3,,,,,,,,,0,,,67,60
30480,note_on,0,0,3,,,,,,,,,0,,,67,0
30480,note_on,0,0,3,,,,,,,,,0,,,63,0
30480,note_on,30,0,1,,,,,,,,,0,,,87,0
30480,note_on,0,0,1,,,,,,,,,0,,,87,60
30487,set_tempo,7,1,0,,,,,,568236,,,,,,,
30494,set_tempo,7,1,0,,,,,,569855,,,,,,,
30501,set_tempo,7,1,0,,,,,,573121,,,,,,,
30508,set_tempo,7,1,0,,,,,,574768,,,,,,,
30510,note_on,0,0,1,,,,,,,,,0,,,99,60
30510,note_on,30,0,1,,,,,,,,,0,,,87,0
30515,set_tempo,7,1,0,,,,,,578090,,,,,,,
30522,set_tempo,7,1,0,,,,,,579766,,,,,,,
30529,set_tempo,7,1,0,,,,,,581452,,,,,,,
30536,set_tempo,7,1,0,,,,,,584852,,,,,,,
30540,note_on,60,0,3,,,,,,,,,0,,,58,0
30540,note_on,30,0,1,,,,,,,,,0,,,99,0
30540,note_on,0,0,1,,,,,,,,,0,,,97,60
30540,note_on,0,0,3,,,,,,,,,0,,,58,60
30540,note_on,0,0,3,,,,,,,,,0,,,63,60
30540,note_on,0,0,3,,,,,,,,,0,,,67,60
30540,note_on,0,0,3,,,,,,,,,0,,,67,0
30540,note_on,0,0,3,,,,,,,,,0,,,63,0
30543,set_tempo,7,1,0,,,,,,586568,,,,,,,
30550,set_tempo,7,1,0,,,,,,590029,,,,,,,
30557,set_tempo,7,1,0,,,,,,591774,,,,,,,
30564,set_tempo,7,1,0,,,,,,593531,,,,,,,
30570,note_on,30,0,1,,,,,,,,,0,,,97,0
30570,note_on,0,0,1,,,,,,,,,0,,,87,60
30571,set_tempo,7,1,0,,,,,,597074,,,,,,,
30578,set_tempo,7,1,0,,,,,,598862,,,,,,,
30585,control_change,105,0,5,,,,,,,,,0,64,0,,
30585,set_tempo,7,1,0,,,,,,602470,,,,,,,
30592,set_tempo,7,1,0,,,,,,604290,,,,,,,
30600,note_on,0,0,1,,,,,,,,,0,,,96,60
30600,note_on,0,0,3,,,,,,,,,0,,,67,0
30600,control_change,15,0,5,,,,,,,,,0,64,127,,
30600,note_on,0,0,3,,,,,,,,,0,,,68,60
30600,note_on,0,0,3,,,,,,,,,0,,,63,60
30600,note_on,0,0,3,,,,,,,,,0,,,60,60
30600,note_on,60,0,3,,,,,,,,,0,,,58,0
30600,note_on,0,0,3,,,,,,,,,0,,,63,0
30600,note_on,30,0,1,,,,,,,,,0,,,87,0
30600,set_tempo,8,1,0,,,,,,606122,,,,,,,
30607,set_tempo,7,1,0,,,,,,609818,,,,,,,
30614,set_tempo,7,1,0,,,,,,611683,,,,,,,
30621,set_tempo,7,1,0,,,,,,613560,,,,,,,
30628,set_tempo,7,1,0,,,,,,617347,,,,,,,
30630,note_on,0,0,1,,,,,,,,,0,,,99,60
30630,note_on,30,0,1,,,,,,,,,0,,,96,0
30635,set_tempo,7,1,0,,,,,,619259,,,,,,,
30642,set_tempo,7,1,0,,,,,,623118,,,,,,,
30649,set_tempo,7,1,0,,,,,,625065,,,,,,,
30656,set_tempo,7,1,0,,,,,,627025,,,,,,,
30660,note_on,0,0,3,,,,,,,,,0,,,70,60
30660,note_on,0,0,3,,,,,,,,,0,,,68,0
30660,note_on,60,0,3,,,,,,,,,0,,,60,0
30660,note_on,0,0,3,,,,,,,,,0,,,61,60
30660,note_on,0,0,3,,,,,,,,,0,,,63,60
30660,note_on,0,0,3,,,,,,,,,0,,,63,0
30660,note_on,0,0,1,,,,,,,,,0,,,94,60
30660,note_on,30,0,1,,,,,,,,,0,,,99,0
30663,set_tempo,7,1,0,,,,,,630981,,,,,,,
30670,set_tempo,7,1,0,,,,,,632978,,,,,,,
30677,set_tempo,7,1,0,,,,,,637010,,,,,,,
30684,set_tempo,7,1,0,,,,,,639046,,,,,,,
30690,note_on,0,0,1,,,,,,,,,0,,,99,60
30690,note_on,30,0,1,,,,,,,,,0,,,94,0
30691,set_tempo,7,1,0,,,,,,641094,,,,,,,
30698,set_tempo,7,1,0,,,,,,645231,,,,,,,
30705,set_tempo,7,1,0,,,,,,647319,,,,,,,
30705,control_change,105,0,5,,,,,,,,,0,64,0,,
30712,set_tempo,7,1,0,,,,,,651537,,,,,,,
30720,note_on,0,0,3,,,,,,,,,0,,,51,80
30720,note_on,30,0,1,,,,,,,,,0,,,99,0
30720,control_change,15,0,5,,,,,,,,,0,64,127,,
30720,set_tempo,8,1,0,,,,,,652174,,,,,,,
30720,note_on,60,0,3,,,,,,,,,0,,,61,0
30720,note_on,0,0,3,,,,,,,,,0,,,70,0
30720,note_on,0,0,3,,,,,,,,,0,,,63,0
30720,note_on,0,0,1,,,,,,,,,0,,,94,60
30750,note_on,30,0,3,,,,,,,,,0,,,51,0
30840,note_on,0,0,3,,,,,,,,,0,,,70,60
30840,note_on,0,0,3,,,,,,,,,0,,,63,60
30840,note_on,90,0,3,,,,,,,,,0,,,61,60
31020,note_on,0,0,1,,,,,,,,,0,,,96,60
31020,note_on,300,0,1,,,,,,,,,0,,,94,0
31080,note_on,0,0,1,,,,,,,,,0,,,97,60
31080,note_on,60,0,1,,,,,,,,,0,,,96,0
31140,note_on,0,0,1,,,,,,,,,0,,,98,60
31140,note_on,60,0,1,,,,,,,,,0,,,97,0
31200,note_on,0,0,1,,,,,,,,,0,,,99,60
31200,note_on,60,0,1,,,,,,,,,0,,,98,0
31560,control_change,840,0,5,,,,,,,,,0,64,0,,
31560,note_on,0,0,1,,,,,,,,,0,,,91,60
31560,note_on,360,0,1,,,,,,,,,0,,,99,0
31680,note_on,0,0,3,,,,,,,,,0,,,68,60
31680,control_change,120,0,5,,,,,,,,,0,64,127,,
31680,note_on,0,0,1,,,,,,,,,0,,,96,60
31680,note_on,0,0,3,,,,,,,,,0,,,63,0
31680,note_on,0,0,3,,,,,,,,,0,,,56,60
31680,note_on,120,0,1,,,,,,,,,0,,,91,0
31680,note_on,0,0,3,,,,,,,,,0,,,61,0
31680,note_on,0,0,3,,,,,,,,,0,,,60,60
31680,note_on,0,0,3,,,,,,,,,0,,,63,60
31680,note_on,840,0,3,,,,,,,,,0,,,70,0
31680,marker,0,1,0,,,,,,,,,,,,,
31680,set_tempo,960,1,0,,,,,,500000,,,,,,,
31710,note_on,30,0,1,,,,,,,,,0,,,96,0
31710,note_on,0,0,1,,,,,,,,,0,,,99,60
31740,note_on,30,0,1,,,,,,,,,0,,,99,0
31740,note_on,0,0,1,,,,,,,,,0,,,92,60
31770,note_on,0,0,1,,,,,,,,,0,,,96,60
31770,note_on,30,0,1,,,,,,,,,0,,,92,0
31800,note_on,30,0,1,,,,,,,,,0,,,96,0
31800,note_on,0,0,1,,,,,,,,,0,,,87,60
31830,note_on,30,0,1,,,,,,,,,0,,,87,0
31830,note_on,0,0,1,,,,,,,,,0,,,92,60
31860,note_on,30,0,1,,,,,,,,,0,,,92,0
31860,note_on,0,0,1,,,,,,,,,0,,,84,60
31890,note_on,30,0,1,,,,,,,,,0,,,84,0
31890,note_on,0,0,1,,,,,,,,,0,,,87,60
31920,note_on,30,0,1,,,,,,,,,0,,,87,0
31920,note_on,0,0,1,,,,,,,,,0,,,80,60
31950,note_on,30,0,1,,,,,,,,,0,,,80,0
31950,note_on,0,0,1,,,,,,,,,0,,,84,60
31980,note_on,0,0,1,,,,,,,,,0,,,75,60
31980,note_on,30,0,1,,,,,,,,,0,,,84,0
32010,note_on,0,0,1,,,,,,,,,0,,,80,60
32010,note_on,30,0,1,,,,,,,,,0,,,75,0
32040,note_on,0,0,3,,,,,,,,,0,,,60,0
32040,note_on,0,0,3,,,,,,,,,0,,,56,0
32040,note_on,360,0,3,,,,,,,,,0,,,68,0
32040,note_on,0,0,3,,,,,,,,,0,,,63,0
32040,note_on,0,0,1,,,,,,,,,0,,,72,60
32040,note_on,30,0,1,,,,,,,,,0,,,80,0
32070,note_on,0,0,1,,,,,,,,,0,,,75,60
32070,note_on,30,0,1,,,,,,,,,0,,,72,0
32100,note_on,30,0,1,,,,,,,,,0,,,75,0
32100,note_on,0,0,1,,,,,,,,,0,,,68,60
32130,note_on,0,0,1,,,,,,,,,0,,,72,60
32130,note_on,30,0,1,,,,,,,,,0,,,68,0
32160,control_change,480,0,5,,,,,,,,,0,64,0,,
32160,note_on,0,0,1,,,,,,,,,0,,,63,60
32160,note_on,30,0,1,,,,,,,,,0,,,72,0
32190,note_on,0,0,1,,,,,,,,,0,,,68,60
32190,note_on,30,0,1,,,,,,,,,0,,,63,0
32220,note_on,0,0,1,,,,,,,,,0,,,60,60
32220,note_on,30,0,1,,,,,,,,,0,,,68,0
32250,note_on,0,0,1,,,,,,,,,0,,,63,60
32250,note_on,30,0,1,,,,,,,,,0,,,60,0
32280,note_on,30,0,1,,,,,,,,,0,,,63,0
32280,note_on,7980,0,4,,,,,,,,,0,,,56,60
32310,note_on,0,0,4,,,,,,,,,0,,,60,60
32310,note_on,30,0,4,,,,,,,,,0,,,56,0
32340,note_on,0,0,4,,,,,,,,,0,,,51,60
32340,note_on,30,0,4,,,,,,,,,0,,,60,0
32370,note_on,0,0,4,,,,,,,,,0,,,56,60
32370,note_on,30,0,4,,,,,,,,,0,,,51,0
32400,note_on,0,0,4,,,,,,,,,0,,,60,60
32400,note_on,30,0,4,,,,,,,,,0,,,56,0
32430,note_on,30,0,4,,,,,,,,,0,,,60,0
32430,note_on,0,0,4,,,,,,,,,0,,,63,60
32460,note_on,30,0,4,,,,,,,,,0,,,63,0
32460,note_on,0,0,4,,,,,,,,,0,,,51,60
32490,note_on,0,0,4,,,,,,,,,0,,,56,60
32490,note_on,30,0,4,,,,,,,,,0,,,51,0
32520,note_on,0,0,4,,,,,,,,,0,,,60,60
32520,note_on,30,0,4,,,,,,,,,0,,,56,0
32550,note_on,30,0,4,,,,,,,,,0,,,60,0
32550,note_on,0,0,4,,,,,,,,,0,,,63,60
32580,note_on,30,0,4,,,,,,,,,0,,,63,0
32580,note_on,0,0,4,,,,,,,,,0,,,51,60
32610,note_on,0,0,4,,,,,,,,,0,,,56,60
32610,note_on,30,0,4,,,,,,,,,0,,,51,0
32640,note_on,0,0,4,,,,,,,,,0,,,60,60
32640,note_on,30,0,4,,,,,,,,,0,,,56,0
32670,note_on,0,0,4,,,,,,,,,0,,,63,59
32670,note_on,30,0,4,,,,,,,,,0,,,60,0
32700,note_on,0,0,4,,,,,,,,,0,,,51,58
32700,note_on,30,0,4,,,,,,,,,0,,,63,0
32730,note_on,0,0,4,,,,,,,,,0,,,56,56
32730,note_on,30,0,4,,,,,,,,,0,,,51,0
32760,note_on,0,0,4,,,,,,,,,0,,,60,55
32760,note_on,30,0,4,,,,,,,,,0,,,56,0
32790,note_on,0,0,4,,,,,,,,,0,,,63,54
32790,note_on,30,0,4,,,,,,,,,0,,,60,0
32820,note_on,0,0,4,,,,,,,,,0,,,51,52
32820,note_on,30,0,4,,,,,,,,,0,,,63,0
32850,note_on,30,0,4,,,,,,,,,0,,,51,0
32850,note_on,0,0,4,,,,,,,,,0,,,56,51
32880,note_on,0,0,4,,,,,,,,,0,,,60,50
32880,note_on,30,0,4,,,,,,,,,0,,,56,0
32910,note_on,0,0,4,,,,,,,,,0,,,63,48
32910,note_on,30,0,4,,,,,,,,,0,,,60,0
32940,note_on,30,0,4,,,,,,,,,0,,,63,0
32940,note_on,0,0,4,,,,,,,,,0,,,51,47
32970,note_on,30,0,4,,,,,,,,,0,,,51,0
32970,note_on,0,0,4,,,,,,,,,0,,,56,46
33000,note_on,0,0,4,,,,,,,,,0,,,60,44
33000,note_on,30,0,4,,,,,,,,,0,,,56,0
33030,note_on,30,0,4,,,,,,,,,0,,,60,0
33030,note_on,0,0,4,,,,,,,,,0,,,63,43
33060,note_on,30,0,4,,,,,,,,,0,,,63,0
33060,note_on,0,0,4,,,,,,,,,0,,,51,41
33090,note_on,0,0,4,,,,,,,,,0,,,56,40
33090,note_on,30,0,4,,,,,,,,,0,,,51,0
33120,note_on,0,0,4,,,,,,,,,0,,,32,60
33120,note_on,30,0,4,,,,,,,,,0,,,56,0
33120,control_change,960,0,5,,,,,,,,,0,64,127,,
33120,note_on,0,0,4,,,,,,,,,0,,,59,40
33120,note_on,0,0,4,,,,,,,,,0,,,44,60
33150,note_on,0,0,4,,,,,,,,,0,,,63,40
33150,note_on,30,0,4,,,,,,,,,0,,,59,0
33180,note_on,30,0,4,,,,,,,,,0,,,63,0
33180,note_on,0,0,4,,,,,,,,,0,,,51,40
33210,note_on,0,0,4,,,,,,,,,0,,,56,40
33210,note_on,30,0,4,,,,,,,,,0,,,51,0
33240,note_on,30,0,4,,,,,,,,,0,,,56,0
33240,note_on,0,0,4,,,,,,,,,0,,,59,40
33240,note_on,0,0,4,,,,,,,,,0,,,44,0
33240,note_on,0,0,4,,,,,,,,,0,,,32,0
33270,note_on,30,0,4,,,,,,,,,0,,,59,0
33270,note_on,0,0,4,,,,,,,,,0,,,63,40
33300,note_on,30,0,4,,,,,,,,,0,,,63,0
33300,note_on,0,0,4,,,,,,,,,0,,,51,40
33330,note_on,30,0,4,,,,,,,,,0,,,51,0
33330,note_on,0,0,4,,,,,,,,,0,,,56,40
33360,note_on,30,0,4,,,,,,,,,0,,,56,0
33360,note_on,0,0,4,,,,,,,,,0,,,59,40
33390,note_on,30,0,4,,,,,,,,,0,,,59,0
33390,note_on,0,0,4,,,,,,,,,0,,,63,40
33420,note_on,30,0,4,,,,,,,,,0,,,63,0
33420,note_on,0,0,4,,,,,,,,,0,,,51,40
33450,note_on,30,0,4,,,,,,,,,0,,,51,0
33450,note_on,0,0,4,,,,,,,,,0,,,56,40
33480,note_on,0,0,1,,,,,,,,,0,,,68,60
33480,control_change,360,0,5,,,,,,,,,0,64,0,,
33480,note_on,1200,0,1,,,,,,,,,0,,,71,60
33480,note_on,30,0,4,,,,,,,,,0,,,56,0
33480,note_on,0,0,4,,,,,,,,,0,,,59,40
33510,note_on,0,0,4,,,,,,,,,0,,,63,40
33510,note_on,30,0,4,,,,,,,,,0,,,59,0
33540,note_on,0,0,1,,,,,,,,,0,,,73,60
33540,note_on,0,0,4,,,,,,,,,0,,,61,40
33540,note_on,60,0,1,,,,,,,,,0,,,68,0
33540,note_on,0,0,1,,,,,,,,,0,,,71,0
33540,note_on,30,0,4,,,,,,,,,0,,,63,0
33540,note_on,0,0,1,,,,,,,,,0,,,70,60
33570,note_on,30,0,4,,,,,,,,,0,,,61,0
33570,note_on,0,0,4,,,,,,,,,0,,,63,40
33600,note_on,30,0,4,,,,,,,,,0,,,63,0
33600,note_on,0,0,4,,,,,,,,,0,,,59,40
33600,control_change,120,0,5,,,,,,,,,0,64,127,,
33600,note_on,0,0,1,,,,,,,,,0,,,73,0
33600,note_on,0,0,1,,,,,,,,,0,,,75,60
33600,note_on,0,0,1,,,,,,,,,0,,,71,60
33600,note_on,60,0,1,,,,,,,,,0,,,70,0
33630,note_on,0,0,4,,,,,,,,,0,,,63,40
33630,note_on,30,0,4,,,,,,,,,0,,,59,0
33660,note_on,0,0,4,,,,,,,,,0,,,51,40
33660,note_on,30,0,4,,,,,,,,,0,,,63,0
33690,note_on,30,0,4,,,,,,,,,0,,,51,0
33690,note_on,0,0,4,,,,,,,,,0,,,56,40
33720,note_on,120,0,1,,,,,,,,,0,,,71,0
33720,note_on,0,0,4,,,,,,,,,0,,,59,40
33720,note_on,30,0,4,,,,,,,,,0,,,56,0
33720,note_on,0,0,1,,,,,,,,,0,,,75,0
33750,note_on,0,0,4,,,,,,,,,0,,,63,40
33750,note_on,30,0,4,,,,,,,,,0,,,59,0
33780,note_on,0,0,4,,,,,,,,,0,,,51,40
33780,note_on,30,0,4,,,,,,,,,0,,,63,0
33810,note_on,0,0,4,,,,,,,,,0,,,56,40
33810,note_on,30,0,4,,,,,,,,,0,,,51,0
33840,note_on,30,0,4,,,,,,,,,0,,,56,0
33840,note_on,0,0,4,,,,,,,,,0,,,59,40
33870,note_on,0,0,4,,,,,,,,,0,,,63,40
33870,note_on,30,0,4,,,,,,,,,0,,,59,0
33900,note_on,0,0,4,,,,,,,,,0,,,59,40
33900,note_on,0,0,4,,,,,,,,,0,,,56,40
33900,note_on,30,0,4,,,,,,,,,0,,,63,0
33900,note_on,0,0,4,,,,,,,,,0,,,51,60
33900,note_on,0,0,4,,,,,,,,,0,,,47,60
33930,note_on,30,0,4,,,,,,,,,0,,,59,0
33930,note_on,0,0,4,,,,,,,,,0,,,56,0
33930,note_on,0,0,4,,,,,,,,,0,,,63,40
33960,control_change,360,0,5,,,,,,,,,0,64,0,,
33960,note_on,30,0,4,,,,,,,,,0,,,63,0
33960,note_on,0,0,4,,,,,,,,,0,,,51,0
33960,note_on,0,0,4,,,,,,,,,0,,,47,0
33960,note_on,0,0,4,,,,,,,,,0,,,55,40
33960,note_on,0,0,4,,,,,,,,,0,,,61,40
33960,note_on,0,0,4,,,,,,,,,0,,,46,60
33960,note_on,0,0,4,,,,,,,,,0,,,51,60
33990,note_on,0,0,4,,,,,,,,,0,,,63,40
33990,note_on,0,0,4,,,,,,,,,0,,,55,0
33990,note_on,30,0,4,,,,,,,,,0,,,61,0
34020,note_on,30,0,4,,,,,,,,,0,,,63,0
34020,note_on,0,0,4,,,,,,,,,0,,,46,0
34020,note_on,0,0,4,,,,,,,,,0,,,51,0
34020,note_on,0,0,4,,,,,,,,,0,,,56,40
34020,note_on,0,0,4,,,,,,,,,0,,,59,40
34020,note_on,0,0,4,,,,,,,,,0,,,44,60
34020,note_on,0,0,4,,,,,,,,,0,,,51,60
34050,note_on,30,0,4,,,,,,,,,0,,,59,0
34050,note_on,0,0,4,,,,,,,,,0,,,56,0
34050,note_on,0,0,4,,,,,,,,,0,,,63,40
34080,note_on,30,0,4,,,,,,,,,0,,,63,0
34080,note_on,0,0,4,,,,,,,,,0,,,44,0
34080,note_on,0,0,4,,,,,,,,,0,,,51,0
34080,note_on,0,0,4,,,,,,,,,0,,,55,40
34080,note_on,0,0,4,,,,,,,,,0,,,58,40
34080,note_on,0,0,4,,,,,,,,,0,,,51,60
34080,note_on,0,0,4,,,,,,,,,0,,,39,60
34080,control_change,120,0,5,,,,,,,,,0,64,127,,
34110,note_on,0,0,4,,,,,,,,,0,,,63,40
34110,note_on,30,0,4,,,,,,,,,0,,,58,0
34110,note_on,0,0,4,,,,,,,,,0,,,55,0
34140,note_on,30,0,4,,,,,,,,,0,,,63,0
34140,note_on,0,0,4,,,,,,,,,0,,,51,0
34140,note_on,0,0,4,,,,,,,,,0,,,51,40
34140,note_on,0,0,4,,,,,,,,,0,,,39,0
34170,note_on,0,0,4,,,,,,,,,0,,,55,40
34170,note_on,30,0,4,,,,,,,,,0,,,51,0
34200,note_on,0,0,4,,,,,,,,,0,,,58,40
34200,note_on,30,0,4,,,,,,,,,0,,,55,0
34230,note_on,0,0,4,,,,,,,,,0,,,63,40
34230,note_on,30,0,4,,,,,,,,,0,,,58,0
34260,note_on,0,0,4,,,,,,,,,0,,,51,40
34260,note_on,30,0,4,,,,,,,,,0,,,63,0
34290,note_on,30,0,4,,,,,,,,,0,,,51,0
34290,note_on,0,0,4,,,,,,,,,0,,,55,40
34320,note_on,30,0,4,,,,,,,,,0,,,55,0
34320,note_on,0,0,4,,,,,,,,,0,,,58,40
34350,note_on,0,0,4,,,,,,,,,0,,,63,40
34350,note_on,30,0,4,,,,,,,,,0,,,58,0
34380,note_on,0,0,4,,,,,,,,,0,,,51,40
34380,note_on,30,0,4,,,,,,,,,0,,,63,0
34410,note_on,30,0,4,,,,,,,,,0,,,51,0
34410,note_on,0,0,4,,,,,,,,,0,,,55,40
34440,note_on,720,0,1,,,,,,,,,0,,,73,60
34440,note_on,0,0,1,,,,,,,,,0,,,70,60
34440,control_change,360,0,5,,,,,,,,,0,64,0,,
34440,note_on,30,0,4,,,,,,,,,0,,,55,0
34440,note_on,0,0,4,,,,,,,,,0,,,58,40
34470,note_on,0,0,4,,,,,,,,,0,,,63,40
34470,note_on,30,0,4,,,,,,,,,0,,,58,0
34500,note_on,30,0,4,,,,,,,,,0,,,63,0
34500,note_on,0,0,4,,,,,,,,,0,,,61,40
34500,note_on,60,0,1,,,,,,,,,0,,,70,0
34500,note_on,0,0,1,,,,,,,,,0,,,73,0
34500,note_on,0,0,1,,,,,,,,,0,,,76,60
34500,note_on,0,0,1,,,,,,,,,0,,,73,60
34530,note_on,0,0,4,,,,,,,,,0,,,63,40
34530,note_on,30,0,4,,,,,,,,,0,,,61,0
34560,note_on,0,0,1,,,,,,,,,0,,,76,0
34560,note_on,0,0,1,,,,,,,,,0,,,71,60
34560,note_on,0,0,4,,,,,,,,,0,,,59,40
34560,note_on,30,0,4,,,,,,,,,0,,,63,0
34560,note_on,60,0,1,,,,,,,,,0,,,73,0
34560,note_on,0,0,1,,,,,,,,,0,,,75,60
34560,control_change,120,0,5,,,,,,,,,0,64,127,,
34590,note_on,30,0,4,,,,,,,,,0,,,59,0
34590,note_on,0,0,4,,,,,,,,,0,,,63,40
34620,note_on,0,0,4,,,,,,,,,0,,,51,40
34620,note_on,30,0,4,,,,,,,,,0,,,63,0
34650,note_on,0,0,4,,,,,,,,,0,,,56,40
34650,note_on,30,0,4,,,,,,,,,0,,,51,0
34680,note_on,120,0,1,,,,,,,,,0,,,71,0
34680,note_on,30,0,4,,,,,,,,,0,,,56,0
34680,note_on,0,0,1,,,,,,,,,0,,,75,0
34680,note_on,0,0,4,,,,,,,,,0,,,59,40
34710,note_on,30,0,4,,,,,,,,,0,,,59,0
34710,note_on,0,0,4,,,,,,,,,0,,,63,40
34740,note_on,30,0,4,,,,,,,,,0,,,63,0
34740,note_on,0,0,4,,,,,,,,,0,,,51,40
34770,note_on,30,0,4,,,,,,,,,0,,,51,0
34770,note_on,0,0,4,,,,,,,,,0,,,56,40
34800,note_on,30,0,4,,,,,,,,,0,,,56,0
34800,note_on,0,0,4,,,,,,,,,0,,,59,40
34830,note_on,30,0,4,,,,,,,,,0,,,59,0
34830,note_on,0,0,4,,,,,,,,,0,,,63,40
34860,note_on,30,0,4,,,,,,,,,0,,,63,0
34860,note_on,0,0,4,,,,,,,,,0,,,51,40
34890,note_on,0,0,4,,,,,,,,,0,,,56,40
34890,note_on,30,0,4,,,,,,,,,0,,,51,0
34920,control_change,360,0,5,,,,,,,,,0,64,0,,
34920,note_on,0,0,4,,,,,,,,,0,,,47,60
34920,note_on,0,0,4,,,,,,,,,0,,,51,60
34920,note_on,0,0,4,,,,,,,,,0,,,59,40
34920,note_on,30,0,4,,,,,,,,,0,,,56,0
34950,note_on,0,0,4,,,,,,,,,0,,,63,40
34950,note_on,30,0,4,,,,,,,,,0,,,59,0
34980,note_on,0,0,4,,,,,,,,,0,,,47,0
34980,note_on,0,0,4,,,,,,,,,0,,,51,0
34980,note_on,0,0,4,,,,,,,,,0,,,55,40
34980,note_on,0,0,4,,,,,,,,,0,,,61,40
34980,note_on,0,0,4,,,,,,,,,0,,,46,60
34980,note_on,0,0,4,,,,,,,,,0,,,51,60
34980,note_on,30,0,4,,,,,,,,,0,,,63,0
35010,note_on,30,0,4,,,,,,,,,0,,,61,0
35010,note_on,0,0,4,,,,,,,,,0,,,55,0
35010,note_on,0,0,4,,,,,,,,,0,,,63,40
35040,control_change,120,0,5,,,,,,,,,0,64,127,,
35040,note_on,0,0,4,,,,,,,,,0,,,44,60
35040,note_on,0,0,4,,,,,,,,,0,,,51,60
35040,note_on,0,0,4,,,,,,,,,0,,,59,40
35040,note_on,0,0,4,,,,,,,,,0,,,56,40
35040,note_on,0,0,4,,,,,,,,,0,,,51,0
35040,note_on,0,0,4,,,,,,,,,0,,,46,0
35040,note_on,30,0,4,,,,,,,,,0,,,63,0
35070,note_on,30,0,4,,,,,,,,,0,,,59,0
35070,note_on,0,0,4,,,,,,,,,0,,,56,0
35070,note_on,0,0,4,,,,,,,,,0,,,63,41
35100,note_on,30,0,4,,,,,,,,,0,,,63,0
35100,note_on,0,0,4,,,,,,,,,0,,,51,0
35100,note_on,0,0,4,,,,,,,,,0,,,44,0
35100,note_on,0,0,4,,,,,,,,,0,,,51,42
35130,note_on,30,0,4,,,,,,,,,0,,,51,0
35130,note_on,0,0,4,,,,,,,,,0,,,56,43
35160,note_on,30,0,4,,,,,,,,,0,,,56,0
35160,note_on,0,0,4,,,,,,,,,0,,,59,45
35190,note_on,30,0,4,,,,,,,,,0,,,59,0
35190,note_on,0,0,4,,,,,,,,,0,,,63,46
35220,note_on,30,0,4,,,,,,,,,0,,,63,0
35220,note_on,0,0,4,,,,,,,,,0,,,51,47
35250,note_on,30,0,4,,,,,,,,,0,,,51,0
35250,note_on,0,0,4,,,,,,,,,0,,,56,49
35280,note_on,30,0,4,,,,,,,,,0,,,56,0
35280,note_on,0,0,4,,,,,,,,,0,,,59,50
35310,note_on,30,0,4,,,,,,,,,0,,,59,0
35310,note_on,0,0,4,,,,,,,,,0,,,63,51
35340,note_on,30,0,4,,,,,,,,,0,,,63,0
35340,note_on,0,0,4,,,,,,,,,0,,,51,53
35370,note_on,30,0,4,,,,,,,,,0,,,51,0
35370,note_on,0,0,4,,,,,,,,,0,,,56,54
35400,note_on,0,0,1,,,,,,,,,0,,,68,75
35400,note_on,0,0,1,,,,,,,,,0,,,71,75
35400,note_on,30,0,4,,,,,,,,,0,,,56,0
35400,control_change,360,0,5,,,,,,,,,0,64,0,,
35400,note_on,720,0,1,,,,,,,,,0,,,59,55
35430,note_on,0,0,1,,,,,,,,,0,,,63,56
35430,note_on,30,0,1,,,,,,,,,0,,,59,0
35460,note_on,0,0,1,,,,,,,,,0,,,70,78
35460,note_on,0,0,1,,,,,,,,,0,,,61,58
35460,note_on,0,0,1,,,,,,,,,0,,,54,58
35460,note_on,0,0,1,,,,,,,,,0,,,71,0
35460,note_on,0,0,1,,,,,,,,,0,,,68,0
35460,note_on,30,0,1,,,,,,,,,0,,,63,0
35460,note_on,0,0,1,,,,,,,,,0,,,73,78
35490,note_on,0,0,1,,,,,,,,,0,,,54,0
35490,note_on,30,0,1,,,,,,,,,0,,,61,0
35490,note_on,0,0,1,,,,,,,,,0,,,66,59
35520,note_on,0,0,1,,,,,,,,,0,,,73,0
35520,control_change,120,0,5,,,,,,,,,0,64,127,,
35520,note_on,30,0,1,,,,,,,,,0,,,66,0
35520,note_on,0,0,1,,,,,,,,,0,,,70,0
35520,note_on,0,0,1,,,,,,,,,0,,,59,60
35520,note_on,0,0,1,,,,,,,,,0,,,63,60
35520,note_on,0,0,1,,,,,,,,,0,,,75,80
35520,note_on,0,0,1,,,,,,,,,0,,,71,80
35550,note_on,30,0,1,,,,,,,,,0,,,63,0
35550,note_on,0,0,1,,,,,,,,,0,,,59,0
35550,note_on,0,0,1,,,,,,,,,0,,,66,62
35580,note_on,30,0,1,,,,,,,,,0,,,66,0
35580,note_on,0,0,1,,,,,,,,,0,,,54,63
35610,note_on,30,0,1,,,,,,,,,0,,,54,0
35610,note_on,0,0,1,,,,,,,,,0,,,59,64
35640,note_on,0,0,1,,,,,,,,,0,,,63,66
35640,note_on,0,0,1,,,,,,,,,0,,,71,0
35640,note_on,0,0,1,,,,,,,,,0,,,75,0
35640,note_on,30,0,1,,,,,,,,,0,,,59,0
35670,note_on,30,0,1,,,,,,,,,0,,,63,0
35670,note_on,0,0,1,,,,,,,,,0,,,66,67
35700,note_on,30,0,1,,,,,,,,,0,,,66,0
35700,note_on,0,0,1,,,,,,,,,0,,,54,68
35730,note_on,30,0,1,,,,,,,,,0,,,54,0
35730,note_on,0,0,1,,,,,,,,,0,,,59,69
35760,note_on,30,0,1,,,,,,,,,0,,,59,0
35760,note_on,0,0,1,,,,,,,,,0,,,63,71
35790,note_on,30,0,1,,,,,,,,,0,,,63,0
35790,note_on,0,0,1,,,,,,,,,0,,,66,72
35820,note_on,0,0,4,,,,,,,,,0,,,54,93
35820,note_on,420,0,4,,,,,,,,,0,,,51,93
35820,note_on,0,0,1,,,,,,,,,0,,,63,73
35820,note_on,30,0,1,,,,,,,,,0,,,66,0
35820,note_on,0,0,1,,,,,,,,,0,,,59,73
35850,note_on,30,0,1,,,,,,,,,0,,,63,0
35850,note_on,0,0,1,,,,,,,,,0,,,59,0
35850,note_on,0,0,1,,,,,,,,,0,,,66,75
35880,note_on,30,0,1,,,,,,,,,0,,,66,0
35880,note_on,0,0,1,,,,,,,,,0,,,58,76
35880,note_on,0,0,1,,,,,,,,,0,,,64,76
35880,note_on,60,0,4,,,,,,,,,0,,,54,0
35880,note_on,0,0,4,,,,,,,,,0,,,51,0
35880,control_change,360,0,5,,,,,,,,,0,64,0,,
35880,note_on,0,0,4,,,,,,,,,0,,,49,96
35880,note_on,0,0,4,,,,,,,,,0,,,54,96
35910,note_on,0,0,1,,,,,,,,,0,,,66,77
35910,note_on,0,0,1,,,,,,,,,0,,,58,0
35910,note_on,30,0,1,,,,,,,,,0,,,64,0
35940,note_on,0,0,4,,,,,,,,,0,,,49,0
35940,note_on,60,0,4,,,,,,,,,0,,,54,0
35940,note_on,0,0,4,,,,,,,,,0,,,54,99
35940,note_on,0,0,4,,,,,,,,,0,,,47,99
35940,note_on,0,0,1,,,,,,,,,0,,,63,79
35940,note_on,0,0,1,,,,,,,,,0,,,59,79
35940,note_on,30,0,1,,,,,,,,,0,,,66,0
35970,note_on,0,0,1,,,,,,,,,0,,,66,80
35970,note_on,30,0,1,,,,,,,,,0,,,63,0
35970,note_on,0,0,1,,,,,,,,,0,,,59,0
36000,note_on,0,0,1,,,,,,,,,0,,,58,80
36000,note_on,30,0,1,,,,,,,,,0,,,66,0
36000,note_on,0,0,1,,,,,,,,,0,,,61,80
36000,note_on,60,0,4,,,,,,,,,0,,,54,0
36000,note_on,0,0,4,,,,,,,,,0,,,42,100
36000,control_change,120,0,5,,,,,,,,,0,64,127,,
36000,note_on,0,0,4,,,,,,,,,0,,,47,0
36000,note_on,0,0,4,,,,,,,,,0,,,54,100
36030,note_on,0,0,1,,,,,,,,,0,,,58,0
36030,note_on,0,0,1,,,,,,,,,0,,,66,80
36030,note_on,30,0,1,,,,,,,,,0,,,61,0
36060,note_on,0,0,4,,,,,,,,,0,,,42,0
36060,note_on,30,0,1,,,,,,,,,0,,,66,0
36060,note_on,0,0,1,,,,,,,,,0,,,54,79
36060,note_on,60,0,4,,,,,,,,,0,,,54,0
36090,note_on,30,0,1,,,,,,,,,0,,,54,0
36090,note_on,0,0,1,,,,,,,,,0,,,58,78
36120,note_on,30,0,1,,,,,,,,,0,,,58,0
36120,note_on,0,0,1,,,,,,,,,0,,,61,77
36150,note_on,0,0,1,,,,,,,,,0,,,66,76
36150,note_on,30,0,1,,,,,,,,,0,,,61,0
36180,note_on,30,0,1,,,,,,,,,0,,,66,0
36180,note_on,0,0,1,,,,,,,,,0,,,54,75
36210,note_on,30,0,1,,,,,,,,,0,,,54,0
36210,note_on,0,0,1,,,,,,,,,0,,,58,75
36240,note_on,30,0,1,,,,,,,,,0,,,58,0
36240,note_on,0,0,1,,,,,,,,,0,,,61,74
36270,note_on,0,0,1,,,,,,,,,0,,,66,73
36270,note_on,30,0,1,,,,,,,,,0,,,61,0
36300,note_on,30,0,1,,,,,,,,,0,,,66,0
36300,note_on,0,0,1,,,,,,,,,0,,,54,72
36330,note_on,0,0,1,,,,,,,,,0,,,58,71
36330,note_on,30,0,1,,,,,,,,,0,,,54,0
36360,note_on,0,0,1,,,,,,,,,0,,,76,90
36360,control_change,360,0,5,,,,,,,,,0,64,0,,
36360,note_on,0,0,1,,,,,,,,,0,,,73,90
36360,note_on,0,0,1,,,,,,,,,0,,,61,70
36360,note_on,30,0,1,,,,,,,,,0,,,58,0
36390,note_on,0,0,1,,,,,,,,,0,,,66,69
36390,note_on,30,0,1,,,,,,,,,0,,,61,0
36420,note_on,0,0,1,,,,,,,,,0,,,76,89
36420,note_on,0,0,1,,,,,,,,,0,,,80,89
36420,note_on,0,0,1,,,,,,,,,0,,,76,0
36420,note_on,0,0,1,,,,,,,,,0,,,73,0
36420,note_on,30,0,1,,,,,,,,,0,,,66,0
36420,note_on,0,0,1,,,,,,,,,0,,,64,69
36450,note_on,30,0,1,,,,,,,,,0,,,64,0
36450,note_on,0,0,1,,,,,,,,,0,,,66,68
36480,note_on,30,0,1,,,,,,,,,0,,,66,0
36480,note_on,0,0,1,,,,,,,,,0,,,76,0
36480,note_on,0,0,1,,,,,,,,,0,,,80,0
36480,note_on,0,0,1,,,,,,,,,0,,,63,67
36480,note_on,0,0,1,,,,,,,,,0,,,78,87
36480,control_change,120,0,5,,,,,,,,,0,64,127,,
36480,note_on,0,0,1,,,,,,,,,0,,,75,87
36510,note_on,0,0,1,,,,,,,,,0,,,66,66
36510,note_on,30,0,1,,,,,,,,,0,,,63,0
36540,note_on,0,0,1,,,,,,,,,0,,,54,65
36540,note_on,30,0,1,,,,,,,,,0,,,66,0
36570,note_on,0,0,1,,,,,,,,,0,,,59,64
36570,note_on,30,0,1,,,,,,,,,0,,,54,0
36600,note_on,0,0,1,,,,,,,,,0,,,75,0
36600,note_on,0,0,1,,,,,,,,,0,,,78,0
36600,note_on,0,0,1,,,,,,,,,0,,,63,63
36600,note_on,30,0,1,,,,,,,,,0,,,59,0
36630,note_on,0,0,1,,,,,,,,,0,,,66,63
36630,note_on,30,0,1,,,,,,,,,0,,,63,0
36660,note_on,0,0,1,,,,,,,,,0,,,54,62
36660,note_on,30,0,1,,,,,,,,,0,,,66,0
36690,note_on,0,0,1,,,,,,,,,0,,,59,61
36690,note_on,30,0,1,,,,,,,,,0,,,54,0
36720,note_on,0,0,1,,,,,,,,,0,,,63,60
36720,note_on,30,0,1,,,,,,,,,0,,,59,0
36750,note_on,0,0,1,,,,,,,,,0,,,66,59
36750,note_on,30,0,1,,,,,,,,,0,,,63,0
36780,note_on,0,0,1,,,,,,,,,0,,,54,58
36780,note_on,30,0,1,,,,,,,,,0,,,66,0
36810,note_on,30,0,1,,,,,,,,,0,,,54,0
36810,note_on,0,0,1,,,,,,,,,0,,,59,57
36840,note_on,30,0,1,,,,,,,,,0,,,59,0
36840,note_on,0,0,1,,,,,,,,,0,,,59,57
36840,note_on,0,0,1,,,,,,,,,0,,,63,57
36840,control_change,360,0,5,,,,,,,,,0,64,0,,
36840,note_on,0,0,4,,,,,,,,,0,,,54,77
36840,note_on,780,0,4,,,,,,,,,0,,,51,77
36870,note_on,30,0,1,,,,,,,,,0,,,63,0
36870,note_on,0,0,1,,,,,,,,,0,,,59,0
36870,note_on,0,0,1,,,,,,,,,0,,,66,56
36900,note_on,0,0,4,,,,,,,,,0,,,49,75
36900,note_on,0,0,1,,,,,,,,,0,,,58,55
36900,note_on,0,0,4,,,,,,,,,0,,,54,75
36900,note_on,30,0,1,,,,,,,,,0,,,66,0
36900,note_on,0,0,4,,,,,,,,,0,,,51,0
36900,note_on,60,0,4,,,,,,,,,0,,,54,0
36900,note_on,0,0,1,,,,,,,,,0,,,64,55
36930,note_on,0,0,1,,,,,,,,,0,,,58,0
36930,note_on,0,0,1,,,,,,,,,0,,,66,54
36930,note_on,30,0,1,,,,,,,,,0,,,64,0
36960,note_on,0,0,1,,,,,,,,,0,,,63,53
36960,note_on,0,0,1,,,,,,,,,0,,,59,53
36960,note_on,30,0,1,,,,,,,,,0,,,66,0
36960,note_on,0,0,4,,,,,,,,,0,,,47,73
36960,control_change,120,0,5,,,,,,,,,0,64,127,,
36960,note_on,0,0,4,,,,,,,,,0,,,54,73
36960,note_on,0,0,4,,,,,,,,,0,,,49,0
36960,note_on,60,0,4,,,,,,,,,0,,,54,0
36990,note_on,0,0,1,,,,,,,,,0,,,66,52
36990,note_on,0,0,1,,,,,,,,,0,,,59,0
36990,note_on,30,0,1,,,,,,,,,0,,,63,0
37020,note_on,0,0,4,,,,,,,,,0,,,54,0
37020,note_on,60,0,4,,,,,,,,,0,,,47,0
37020,note_on,0,0,1,,,,,,,,,0,,,54,51
37020,note_on,30,0,1,,,,,,,,,0,,,66,0
37050,note_on,30,0,1,,,,,,,,,0,,,54,0
37050,note_on,0,0,1,,,,,,,,,0,,,59,51
37080,note_on,0,0,1,,,,,,,,,0,,,63,50
37080,note_on,30,0,1,,,,,,,,,0,,,59,0
37110,note_on,0,0,1,,,,,,,,,0,,,66,49
37110,note_on,30,0,1,,,,,,,,,0,,,63,0
37140,note_on,0,0,1,,,,,,,,,0,,,54,48
37140,note_on,30,0,1,,,,,,,,,0,,,66,0
37170,note_on,0,0,1,,,,,,,,,0,,,59,47
37170,note_on,30,0,1,,,,,,,,,0,,,54,0
37200,note_on,30,0,1,,,,,,,,,0,,,59,0
37200,note_on,0,0,1,,,,,,,,,0,,,63,46
37230,note_on,30,0,1,,,,,,,,,0,,,63,0
37230,note_on,0,0,1,,,,,,,,,0,,,66,45
37260,note_on,0,0,1,,,,,,,,,0,,,75,65
37260,note_on,0,0,1,,,,,,,,,0,,,54,45
37260,note_on,30,0,1,,,,,,,,,0,,,66,0
37290,note_on,0,0,1,,,,,,,,,0,,,59,44
37290,note_on,30,0,1,,,,,,,,,0,,,54,0
37320,note_on,30,0,1,,,,,,,,,0,,,59,0
37320,control_change,360,0,5,,,,,,,,,0,64,0,,
37320,note_on,0,0,1,,,,,,,,,0,,,73,63
37320,note_on,0,0,1,,,,,,,,,0,,,63,43
37320,note_on,0,0,1,,,,,,,,,0,,,75,0
37350,note_on,30,0,1,,,,,,,,,0,,,63,0
37350,note_on,0,0,1,,,,,,,,,0,,,66,42
37380,note_on,0,0,1,,,,,,,,,0,,,73,0
37380,note_on,30,0,1,,,,,,,,,0,,,66,0
37380,note_on,0,0,1,,,,,,,,,0,,,54,41
37380,note_on,0,0,1,,,,,,,,,0,,,71,61
37410,note_on,0,0,1,,,,,,,,,0,,,59,40
37410,note_on,30,0,1,,,,,,,,,0,,,54,0
37440,note_on,0,0,1,,,,,,,,,0,,,68,60
37440,note_on,0,0,1,,,,,,,,,0,,,64,40
37440,note_on,0,0,1,,,,,,,,,0,,,71,0
37440,note_on,30,0,1,,,,,,,,,0,,,59,0
37440,control_change,120,0,5,,,,,,,,,0,64,127,,
37470,note_on,30,0,1,,,,,,,,,0,,,64,0
37470,note_on,0,0,1,,,,,,,,,0,,,59,40
37500,note_on,30,0,1,,,,,,,,,0,,,59,0
37500,note_on,0,0,1,,,,,,,,,0,,,56,40
37530,note_on,30,0,1,,,,,,,,,0,,,56,0
37530,note_on,0,0,1,,,,,,,,,0,,,59,40
37560,note_on,0,0,1,,,,,,,,,0,,,64,40
37560,note_on,0,0,1,,,,,,,,,0,,,68,0
37560,note_on,30,0,1,,,,,,,,,0,,,59,0
37590,note_on,0,0,1,,,,,,,,,0,,,68,40
37590,note_on,30,0,1,,,,,,,,,0,,,64,0
37620,note_on,30,0,1,,,,,,,,,0,,,68,0
37620,note_on,0,0,1,,,,,,,,,0,,,56,40
37650,note_on,0,0,1,,,,,,,,,0,,,59,40
37650,note_on,30,0,1,,,,,,,,,0,,,56,0
37680,note_on,30,0,1,,,,,,,,,0,,,59,0
37680,note_on,0,0,1,,,,,,,,,0,,,64,40
37710,note_on,30,0,1,,,,,,,,,0,,,64,0
37710,note_on,0,0,1,,,,,,,,,0,,,68,40
37740,note_on,30,0,1,,,,,,,,,0,,,68,0
37740,note_on,0,0,1,,,,,,,,,0,,,56,40
37740,note_on,720,0,4,,,,,,,,,0,,,52,60
37770,note_on,30,0,1,,,,,,,,,0,,,56,0
37770,note_on,0,0,1,,,,,,,,,0,,,61,40
37800,note_on,60,0,4,,,,,,,,,0,,,52,0
37800,note_on,0,0,4,,,,,,,,,0,,,51,60
37800,control_change,360,0,5,,,,,,,,,0,64,0,,
37800,note_on,30,0,1,,,,,,,,,0,,,61,0
37800,note_on,0,0,1,,,,,,,,,0,,,64,40
37830,note_on,30,0,1,,,,,,,,,0,,,64,0
37830,note_on,0,0,1,,,,,,,,,0,,,68,40
37860,note_on,0,0,4,,,,,,,,,0,,,49,60
37860,note_on,60,0,4,,,,,,,,,0,,,51,0
37860,note_on,30,0,1,,,,,,,,,0,,,68,0
37860,note_on,0,0,1,,,,,,,,,0,,,56,40
37890,note_on,30,0,1,,,,,,,,,0,,,56,0
37890,note_on,0,0,1,,,,,,,,,0,,,61,40
37920,note_on,30,0,1,,,,,,,,,0,,,61,0
37920,control_change,120,0,5,,,,,,,,,0,64,127,,
37920,note_on,60,0,4,,,,,,,,,0,,,49,0
37920,note_on,0,0,4,,,,,,,,,0,,,46,60
37920,note_on,0,0,1,,,,,,,,,0,,,64,40
37950,note_on,0,0,1,,,,,,,,,0,,,66,40
37950,note_on,30,0,1,,,,,,,,,0,,,64,0
37980,note_on,0,0,1,,,,,,,,,0,,,54,40
37980,note_on,30,0,1,,,,,,,,,0,,,66,0
38010,note_on,0,0,1,,,,,,,,,0,,,61,40
38010,note_on,30,0,1,,,,,,,,,0,,,54,0
38040,note_on,0,0,1,,,,,,,,,0,,,64,40
38040,note_on,30,0,1,,,,,,,,,0,,,61,0
38070,note_on,30,0,1,,,,,,,,,0,,,64,0
38070,note_on,0,0,1,,,,,,,,,0,,,66,40
38100,note_on,0,0,1,,,,,,,,,0,,,54,40
38100,note_on,30,0,1,,,,,,,,,0,,,66,0
38130,note_on,0,0,1,,,,,,,,,0,,,61,40
38130,note_on,30,0,1,,,,,,,,,0,,,54,0
38160,note_on,240,0,4,,,,,,,,,0,,,46,0
38160,note_on,0,0,4,,,,,,,,,0,,,47,60
38160,note_on,0,0,1,,,,,,,,,0,,,63,40
38160,note_on,30,0,1,,,,,,,,,0,,,61,0
38190,note_on,0,0,1,,,,,,,,,0,,,66,40
38190,note_on,30,0,1,,,,,,,,,0,,,63,0
38220,note_on,0,0,1,,,,,,,,,0,,,54,40
38220,note_on,30,0,1,,,,,,,,,0,,,66,0
38220,note_on,0,0,1,,,,,,,,,0,,,75,60
38220,note_on,60,0,4,,,,,,,,,0,,,47,0
38250,note_on,30,0,1,,,,,,,,,0,,,54,0
38250,note_on,0,0,1,,,,,,,,,0,,,59,40
38280,note_on,30,0,1,,,,,,,,,0,,,59,0
38280,note_on,0,0,1,,,,,,,,,0,,,75,0
38280,note_on,0,0,1,,,,,,,,,0,,,63,40
38280,note_on,0,0,1,,,,,,,,,0,,,76,60
38280,control_change,360,0,5,,,,,,,,,0,64,0,,
38310,note_on,30,0,1,,,,,,,,,0,,,63,0
38310,note_on,0,0,1,,,,,,,,,0,,,67,40
38340,note_on,30,0,1,,,,,,,,,0,,,67,0
38340,note_on,0,0,1,,,,,,,,,0,,,76,0
38340,note_on,0,0,1,,,,,,,,,0,,,54,40
38340,note_on,0,0,1,,,,,,,,,0,,,77,60
38370,note_on,0,0,1,,,,,,,,,0,,,59,40
38370,note_on,30,0,1,,,,,,,,,0,,,54,0
38400,note_on,30,0,1,,,,,,,,,0,,,59,0
38400,note_on,0,0,1,,,,,,,,,0,,,77,0
38400,note_on,0,0,1,,,,,,,,,0,,,61,40
38400,control_change,120,0,5,,,,,,,,,0,64,127,,
38400,note_on,0,0,1,,,,,,,,,0,,,78,60
38430,note_on,30,0,1,,,,,,,,,0,,,61,0
38430,note_on,0,0,1,,,,,,,,,0,,,66,40
38460,note_on,30,0,1,,,,,,,,,0,,,66,0
38460,note_on,0,0,1,,,,,,,,,0,,,54,40
38490,note_on,30,0,1,,,,,,,,,0,,,54,0
38490,note_on,0,0,1,,,,,,,,,0,,,59,40
38520,note_on,30,0,1,,,,,,,,,0,,,59,0
38520,note_on,0,0,1,,,,,,,,,0,,,61,40
38550,note_on,30,0,1,,,,,,,,,0,,,61,0
38550,note_on,0,0,1,,,,,,,,,0,,,66,40
38580,note_on,30,0,1,,,,,,,,,0,,,66,0
38580,note_on,0,0,1,,,,,,,,,0,,,54,40
38610,note_on,30,0,1,,,,,,,,,0,,,54,0
38610,note_on,0,0,1,,,,,,,,,0,,,59,40
38640,note_on,30,0,1,,,,,,,,,0,,,59,0
38640,note_on,0,0,1,,,,,,,,,0,,,61,40
38670,note_on,30,0,1,,,,,,,,,0,,,61,0
38670,note_on,0,0,1,,,,,,,,,0,,,66,40
38700,note_on,30,0,1,,,,,,,,,0,,,66,0
38700,note_on,0,0,1,,,,,,,,,0,,,54,40
38730,note_on,30,0,1,,,,,,,,,0,,,54,0
38730,note_on,0,0,1,,,,,,,,,0,,,58,40
38760,note_on,30,0,1,,,,,,,,,0,,,58,0
38760,note_on,0,0,1,,,,,,,,,0,,,61,40
38760,control_change,360,0,5,,,,,,,,,0,64,0,,
38790,note_on,30,0,1,,,,,,,,,0,,,61,0
38790,note_on,0,0,1,,,,,,,,,0,,,66,40
38820,note_on,30,0,1,,,,,,,,,0,,,66,0
38820,note_on,0,0,1,,,,,,,,,0,,,54,40
38850,note_on,30,0,1,,,,,,,,,0,,,54,0
38850,note_on,0,0,1,,,,,,,,,0,,,58,40
38880,note_on,0,0,1,,,,,,,,,0,,,75,60
38880,note_on,0,0,1,,,,,,,,,0,,,63,40
38880,note_on,0,0,1,,,,,,,,,0,,,78,0
38880,note_on,30,0,1,,,,,,,,,0,,,58,0
38880,control_change,120,0,5,,,,,,,,,0,64,127,,
38910,note_on,30,0,1,,,,,,,,,0,,,63,0
38910,note_on,0,0,1,,,,,,,,,0,,,66,40
38940,note_on,30,0,1,,,,,,,,,0,,,66,0
38940,note_on,0,0,1,,,,,,,,,0,,,54,40
38970,note_on,30,0,1,,,,,,,,,0,,,54,0
38970,note_on,0,0,1,,,,,,,,,0,,,59,40
39000,note_on,0,0,1,,,,,,,,,0,,,75,0
39000,note_on,0,0,1,,,,,,,,,0,,,63,40
39000,note_on,30,0,1,,,,,,,,,0,,,59,0
39030,note_on,30,0,1,,,,,,,,,0,,,63,0
39030,note_on,0,0,1,,,,,,,,,0,,,66,40
39060,note_on,30,0,1,,,,,,,,,0,,,66,0
39060,note_on,0,0,1,,,,,,,,,0,,,54,40
39090,note_on,0,0,1,,,,,,,,,0,,,59,40
39090,note_on,30,0,1,,,,,,,,,0,,,54,0
39120,note_on,0,0,1,,,,,,,,,0,,,62,40
39120,note_on,30,0,1,,,,,,,,,0,,,59,0
39150,note_on,0,0,1,,,,,,,,,0,,,66,40
39150,note_on,30,0,1,,,,,,,,,0,,,62,0
39180,note_on,960,0,4,,,,,,,,,0,,,47,60
39180,note_on,30,0,1,,,,,,,,,0,,,66,0
39180,note_on,0,0,1,,,,,,,,,0,,,54,40
39210,note_on,30,0,1,,,,,,,,,0,,,54,0
39210,note_on,0,0,1,,,,,,,,,0,,,59,40
39240,note_on,60,0,4,,,,,,,,,0,,,47,0
39240,control_change,360,0,5,,,,,,,,,0,64,0,,
39240,note_on,30,0,1,,,,,,,,,0,,,59,0
39240,note_on,0,0,1,,,,,,,,,0,,,62,40
39240,note_on,0,0,4,,,,,,,,,0,,,49,60
39270,note_on,30,0,1,,,,,,,,,0,,,62,0
39270,note_on,0,0,1,,,,,,,,,0,,,66,40
39300,note_on,60,0,4,,,,,,,,,0,,,49,0
39300,note_on,30,0,1,,,,,,,,,0,,,66,0
39300,note_on,0,0,1,,,,,,,,,0,,,54,40
39300,note_on,0,0,4,,,,,,,,,0,,,50,60
39330,note_on,0,0,1,,,,,,,,,0,,,59,40
39330,note_on,30,0,1,,,,,,,,,0,,,54,0
39360,note_on,0,0,1,,,,,,,,,0,,,61,40
39360,note_on,30,0,1,,,,,,,,,0,,,59,0
39360,note_on,0,0,4,,,,,,,,,0,,,42,60
39360,note_on,60,0,4,,,,,,,,,0,,,50,0
39360,control_change,120,0,5,,,,,,,,,0,64,127,,
39390,note_on,30,0,1,,,,,,,,,0,,,61,0
39390,note_on,0,0,1,,,,,,,,,0,,,66,40
39420,note_on,30,0,1,,,,,,,,,0,,,66,0
39420,note_on,0,0,1,,,,,,,,,0,,,54,40
39450,note_on,30,0,1,,,,,,,,,0,,,54,0
39450,note_on,0,0,1,,,,,,,,,0,,,59,40
39480,note_on,30,0,1,,,,,,,,,0,,,59,0
39480,note_on,0,0,1,,,,,,,,,0,,,61,40
39510,note_on,30,0,1,,,,,,,,,0,,,61,0
39510,note_on,0,0,1,,,,,,,,,0,,,66,40
39540,note_on,30,0,1,,,,,,,,,0,,,66,0
39540,note_on,0,0,1,,,,,,,,,0,,,54,40
39570,note_on,0,0,1,,,,,,,,,0,,,59,40
39570,note_on,30,0,1,,,,,,,,,0,,,54,0
39600,note_on,30,0,1,,,,,,,,,0,,,59,0
39600,note_on,0,0,1,,,,,,,,,0,,,61,40
39630,note_on,30,0,1,,,,,,,,,0,,,61,0
39630,note_on,0,0,1,,,,,,,,,0,,,66,40
39660,note_on,30,0,1,,,,,,,,,0,,,66,0
39660,note_on,0,0,1,,,,,,,,,0,,,54,40
39690,note_on,0,0,1,,,,,,,,,0,,,58,40
39690,note_on,30,0,1,,,,,,,,,0,,,54,0
39720,note_on,0,0,1,,,,,,,,,0,,,61,40
39720,control_change,360,0,5,,,,,,,,,0,64,0,,
39720,note_on,30,0,1,,,,,,,,,0,,,58,0
39750,note_on,30,0,1,,,,,,,,,0,,,61,0
39750,note_on,0,0,1,,,,,,,,,0,,,66,40
39780,note_on,30,0,1,,,,,,,,,0,,,66,0
39780,note_on,0,0,1,,,,,,,,,0,,,54,40
39810,note_on,30,0,1,,,,,,,,,0,,,54,0
39810,note_on,0,0,1,,,,,,,,,0,,,58,40
39840,note_on,30,0,1,,,,,,,,,0,,,58,0
39840,note_on,480,0,4,,,,,,,,,0,,,42,0
39840,note_on,0,0,4,,,,,,,,,0,,,59,40
39840,note_on,0,0,4,,,,,,,,,0,,,35,60
39840,control_change,120,0,5,,,,,,,,,0,64,127,,
39870,note_on,30,0,4,,,,,,,,,0,,,59,0
39870,note_on,0,0,4,,,,,,,,,0,,,63,40
39900,note_on,30,0,4,,,,,,,,,0,,,63,0
39900,note_on,0,0,4,,,,,,,,,0,,,51,40
39930,note_on,30,0,4,,,,,,,,,0,,,51,0
39930,note_on,0,0,4,,,,,,,,,0,,,54,40
39960,note_on,0,0,4,,,,,,,,,0,,,59,40
39960,note_on,30,0,4,,,,,,,,,0,,,54,0
39960,note_on,0,0,4,,,,,,,,,0,,,35,0
39990,note_on,30,0,4,,,,,,,,,0,,,59,0
39990,note_on,0,0,4,,,,,,,,,0,,,63,40
40020,note_on,30,0,4,,,,,,,,,0,,,63,0
40020,note_on,0,0,4,,,,,,,,,0,,,51,40
40050,note_on,0,0,4,,,,,,,,,0,,,54,40
40050,note_on,30,0,4,,,,,,,,,0,,,51,0
40065,control_change,225,0,5,,,,,,,,,0,64,0,,
40080,note_on,0,0,4,,,,,,,,,0,,,39,60
40080,note_on,0,0,4,,,,,,,,,0,,,61,40
40080,control_change,15,0,5,,,,,,,,,0,64,127,,
40080,note_on,30,0,4,,,,,,,,,0,,,54,0
40110,note_on,30,0,4,,,,,,,,,0,,,61,0
40110,note_on,0,0,4,,,,,,,,,0,,,63,40
40140,note_on,0,0,4,,,,,,,,,0,,,51,40
40140,note_on,30,0,4,,,,,,,,,0,,,63,0
40170,note_on,30,0,4,,,,,,,,,0,,,51,0
40170,note_on,0,0,4,,,,,,,,,0,,,55,40
40200,note_on,30,0,4,,,,,,,,,0,,,55,0
40200,note_on,0,0,4,,,,,,,,,0,,,61,40
40230,note_on,30,0,4,,,,,,,,,0,,,61,0
40230,note_on,0,0,4,,,,,,,,,0,,,63,40
40260,note_on,30,0,4,,,,,,,,,0,,,63,0
40260,note_on,0,0,4,,,,,,,,,0,,,39,0
40260,note_on,0,0,4,,,,,,,,,0,,,51,40
40260,note_on,0,0,4,,,,,,,,,0,,,37,60
40280,note_on,0,0,4,,,,,,,,,0,,,35,60
40280,note_on,20,0,4,,,,,,,,,0,,,37,0
40290,note_on,0,0,4,,,,,,,,,0,,,55,40
40290,note_on,10,0,4,,,,,,,,,0,,,51,0
40300,note_on,10,0,4,,,,,,,,,0,,,35,0
40300,note_on,0,0,4,,,,,,,,,0,,,34,60
40305,control_change,225,0,5,,,,,,,,,0,64,0,,
40320,control_change,15,0,5,,,,,,,,,0,64,127,,
40320,note_on,20,0,4,,,,,,,,,0,,,34,0
40320,note_on,0,0,4,,,,,,,,,0,,,55,0
40320,note_on,0,0,4,,,,,,,,,0,,,59,40
40320,note_on,0,0,4,,,,,,,,,0,,,32,60
40320,note_on,0,0,4,,,,,,,,,0,,,44,60
40350,note_on,30,0,4,,,,,,,,,0,,,59,0
40350,note_on,0,0,4,,,,,,,,,0,,,63,40
40380,note_on,30,0,4,,,,,,,,,0,,,63,0
40380,note_on,0,0,4,,,,,,,,,0,,,51,40
40410,note_on,0,0,4,,,,,,,,,0,,,56,40
40410,note_on,30,0,4,,,,,,,,,0,,,51,0
40440,note_on,0,0,4,,,,,,,,,0,,,59,40
40440,note_on,0,0,4,,,,,,,,,0,,,44,0
40440,note_on,0,0,4,,,,,,,,,0,,,32,0
40440,note_on,30,0,4,,,,,,,,,0,,,56,0
40470,note_on,0,0,4,,,,,,,,,0,,,63,40
40470,note_on,30,0,4,,,,,,,,,0,,,59,0
40500,note_on,0,0,4,,,,,,,,,0,,,51,40
40500,note_on,30,0,4,,,,,,,,,0,,,63,0
40530,note_on,0,0,4,,,,,,,,,0,,,56,40
40530,note_on,30,0,4,,,,,,,,,0,,,51,0
40560,note_on,30,0,4,,,,,,,,,0,,,56,0
40560,note_on,0,0,4,,,,,,,,,0,,,59,40
40590,note_on,30,0,4,,,,,,,,,0,,,59,0
40590,note_on,0,0,4,,,,,,,,,0,,,63,40
40620,note_on,0,0,4,,,,,,,,,0,,,51,40
40620,note_on,30,0,4,,,,,,,,,0,,,63,0
40650,note_on,30,0,4,,,,,,,,,0,,,51,0
40650,note_on,0,0,4,,,,,,,,,0,,,56,40
40680,note_on,840,0,1,,,,,,,,,0,,,71,60
40680,note_on,30,0,4,,,,,,,,,0,,,56,0
40680,note_on,0,0,4,,,,,,,,,0,,,59,40
40680,control_change,360,0,5,,,,,,,,,0,64,0,,
40680,note_on,0,0,1,,,,,,,,,0,,,68,60
40710,note_on,30,0,4,,,,,,,,,0,,,59,0
40710,note_on,0,0,4,,,,,,,,,0,,,63,40
40740,note_on,30,0,4,,,,,,,,,0,,,63,0
40740,note_on,0,0,1,,,,,,,,,0,,,73,60
40740,note_on,0,0,1,,,,,,,,,0,,,71,0
40740,note_on,60,0,1,,,,,,,,,0,,,68,0
40740,note_on,0,0,1,,,,,,,,,0,,,70,60
40740,note_on,0,0,4,,,,,,,,,0,,,61,40
40770,note_on,30,0,4,,,,,,,,,0,,,61,0
40770,note_on,0,0,4,,,,,,,,,0,,,63,40
40800,note_on,0,0,4,,,,,,,,,0,,,59,40
40800,note_on,30,0,4,,,,,,,,,0,,,63,0
40800,note_on,60,0,1,,,,,,,,,0,,,70,0
40800,note_on,0,0,1,,,,,,,,,0,,,73,0
40800,control_change,120,0,5,,,,,,,,,0,64,127,,
40800,note_on,0,0,1,,,,,,,,,0,,,75,60
40800,note_on,0,0,1,,,,,,,,,0,,,71,60
40830,note_on,30,0,4,,,,,,,,,0,,,59,0
40830,note_on,0,0,4,,,,,,,,,0,,,63,40
40860,note_on,30,0,4,,,,,,,,,0,,,63,0
40860,note_on,0,0,4,,,,,,,,,0,,,51,40
40890,note_on,30,0,4,,,,,,,,,0,,,51,0
40890,note_on,0,0,4,,,,,,,,,0,,,56,40
40920,note_on,120,0,1,,,,,,,,,0,,,71,0
40920,note_on,30,0,4,,,,,,,,,0,,,56,0
40920,note_on,0,0,4,,,,,,,,,0,,,59,40
40920,note_on,0,0,1,,,,,,,,,0,,,75,0
40950,note_on,30,0,4,,,,,,,,,0,,,59,0
40950,note_on,0,0,4,,,,,,,,,0,,,63,40
40980,note_on,30,0,4,,,,,,,,,0,,,63,0
40980,note_on,0,0,4,,,,,,,,,0,,,51,40
41010,note_on,0,0,4,,,,,,,,,0,,,56,40
41010,note_on,30,0,4,,,,,,,,,0,,,51,0
41040,note_on,0,0,4,,,,,,,,,0,,,59,40
41040,note_on,30,0,4,,,,,,,,,0,,,56,0
41070,note_on,30,0,4,,,,,,,,,0,,,59,0
41070,note_on,0,0,4,,,,,,,,,0,,,63,40
41100,note_on,30,0,4,,,,,,,,,0,,,63,0
41100,note_on,0,0,4,,,,,,,,,0,,,47,60
41100,note_on,0,0,4,,,,,,,,,0,,,59,40
41100,note_on,0,0,4,,,,,,,,,0,,,56,40
41100,note_on,0,0,4,,,,,,,,,0,,,51,60
41130,note_on,30,0,4,,,,,,,,,0,,,59,0
41130,note_on,0,0,4,,,,,,,,,0,,,63,40
41130,note_on,0,0,4,,,,,,,,,0,,,56,0
41160,note_on,30,0,4,,,,,,,,,0,,,63,0
41160,note_on,0,0,4,,,,,,,,,0,,,51,60
41160,control_change,360,0,5,,,,,,,,,0,64,0,,
41160,note_on,0,0,4,,,,,,,,,0,,,51,0
41160,note_on,0,0,4,,,,,,,,,0,,,47,0
41160,note_on,0,0,4,,,,,,,,,0,,,55,40
41160,note_on,0,0,4,,,,,,,,,0,,,61,40
41160,note_on,0,0,4,,,,,,,,,0,,,46,60
41190,note_on,0,0,4,,,,,,,,,0,,,63,40
41190,note_on,0,0,4,,,,,,,,,0,,,55,0
41190,note_on,30,0,4,,,,,,,,,0,,,61,0
41220,note_on,30,0,4,,,,,,,,,0,,,63,0
41220,note_on,0,0,4,,,,,,,,,0,,,46,0
41220,note_on,0,0,4,,,,,,,,,0,,,51,0
41220,note_on,0,0,4,,,,,,,,,0,,,56,40
41220,note_on,0,0,4,,,,,,,,,0,,,59,40
41220,note_on,0,0,4,,,,,,,,,0,,,44,60
41220,note_on,0,0,4,,,,,,,,,0,,,51,60
41250,note_on,30,0,4,,,,,,,,,0,,,59,0
41250,note_on,0,0,4,,,,,,,,,0,,,56,0
41250,note_on,0,0,4,,,,,,,,,0,,,63,40
41280,note_on,30,0,4,,,,,,,,,0,,,63,0
41280,note_on,0,0,4,,,,,,,,,0,,,44,0
41280,note_on,0,0,4,,,,,,,,,0,,,51,0
41280,note_on,0,0,4,,,,,,,,,0,,,55,40
41280,control_change,120,0,5,,,,,,,,,0,64,127,,
41280,note_on,0,0,4,,,,,,,,,0,,,51,60
41280,note_on,0,0,4,,,,,,,,,0,,,39,60
41280,note_on,0,0,4,,,,,,,,,0,,,58,40
41310,note_on,30,0,4,,,,,,,,,0,,,58,0
41310,note_on,0,0,4,,,,,,,,,0,,,63,40
41310,note_on,0,0,4,,,,,,,,,0,,,55,0
41340,note_on,0,0,4,,,,,,,,,0,,,51,0
41340,note_on,0,0,4,,,,,,,,,0,,,39,0
41340,note_on,0,0,4,,,,,,,,,0,,,51,40
41340,note_on,30,0,4,,,,,,,,,0,,,63,0
41370,note_on,30,0,4,,,,,,,,,0,,,51,0
41370,note_on,0,0,4,,,,,,,,,0,,,55,40
41400,note_on,30,0,4,,,,,,,,,0,,,55,0
41400,note_on,0,0,4,,,,,,,,,0,,,58,40
41430,note_on,30,0,4,,,,,,,,,0,,,58,0
41430,note_on,0,0,4,,,,,,,,,0,,,63,40
41460,note_on,30,0,4,,,,,,,,,0,,,63,0
41460,note_on,0,0,4,,,,,,,,,0,,,51,40
41490,note_on,0,0,4,,,,,,,,,0,,,55,40
41490,note_on,30,0,4,,,,,,,,,0,,,51,0
41520,note_on,30,0,4,,,,,,,,,0,,,55,0
41520,note_on,0,0,4,,,,,,,,,0,,,58,40
41550,note_on,30,0,4,,,,,,,,,0,,,58,0
41550,note_on,0,0,4,,,,,,,,,0,,,63,40
41580,note_on,30,0,4,,,,,,,,,0,,,63,0
41580,note_on,0,0,4,,,,,,,,,0,,,51,40
41610,note_on,30,0,4,,,,,,,,,0,,,51,0
41610,note_on,0,0,4,,,,,,,,,0,,,55,40
41640,control_change,360,0,5,,,,,,,,,0,64,0,,
41640,note_on,0,0,1,,,,,,,,,0,,,70,60
41640,note_on,30,0,4,,,,,,,,,0,,,55,0
41640,note_on,0,0,4,,,,,,,,,0,,,58,40
41640,note_on,720,0,1,,,,,,,,,0,,,73,60
41670,note_on,0,0,4,,,,,,,,,0,,,63,40
41670,note_on,30,0,4,,,,,,,,,0,,,58,0
41700,note_on,30,0,4,,,,,,,,,0,,,63,0
41700,note_on,0,0,4,,,,,,,,,0,,,61,40
41700,note_on,0,0,1,,,,,,,,,0,,,73,60
41700,note_on,60,0,1,,,,,,,,,0,,,70,0
41700,note_on,0,0,1,,,,,,,,,0,,,73,0
41700,note_on,0,0,1,,,,,,,,,0,,,76,60
41730,note_on,30,0,4,,,,,,,,,0,,,61,0
41730,note_on,0,0,4,,,,,,,,,0,,,63,40
41760,note_on,0,0,1,,,,,,,,,0,,,76,0
41760,note_on,60,0,1,,,,,,,,,0,,,73,0
41760,note_on,0,0,1,,,,,,,,,0,,,75,60
41760,note_on,0,0,4,,,,,,,,,0,,,59,40
41760,note_on,30,0,4,,,,,,,,,0,,,63,0
41760,control_change,120,0,5,,,,,,,,,0,64,127,,
41760,note_on,0,0,1,,,,,,,,,0,,,71,60
41790,note_on,0,0,4,,,,,,,,,0,,,63,40
41790,note_on,30,0,4,,,,,,,,,0,,,59,0
41820,note_on,30,0,4,,,,,,,,,0,,,63,0
41820,note_on,0,0,4,,,,,,,,,0,,,51,40
41850,note_on,30,0,4,,,,,,,,,0,,,51,0
41850,note_on,0,0,4,,,,,,,,,0,,,56,40
41880,note_on,30,0,4,,,,,,,,,0,,,56,0
41880,note_on,0,0,4,,,,,,,,,0,,,59,40
41880,note_on,0,0,1,,,,,,,,,0,,,75,0
41880,note_on,120,0,1,,,,,,,,,0,,,71,0
41910,note_on,0,0,4,,,,,,,,,0,,,63,40
41910,note_on,30,0,4,,,,,,,,,0,,,59,0
41940,note_on,30,0,4,,,,,,,,,0,,,63,0
41940,note_on,0,0,4,,,,,,,,,0,,,51,40
41970,note_on,0,0,4,,,,,,,,,0,,,56,40
41970,note_on,30,0,4,,,,,,,,,0,,,51,0
42000,note_on,0,0,4,,,,,,,,,0,,,59,40
42000,note_on,30,0,4,,,,,,,,,0,,,56,0
42030,note_on,0,0,4,,,,,,,,,0,,,63,40
42030,note_on,30,0,4,,,,,,,,,0,,,59,0
42060,note_on,0,0,4,,,,,,,,,0,,,51,40
42060,note_on,30,0,4,,,,,,,,,0,,,63,0
42090,note_on,30,0,4,,,,,,,,,0,,,51,0
42090,note_on,0,0,4,,,,,,,,,0,,,56,40
42120,note_on,0,0,4,,,,,,,,,0,,,59,40
42120,note_on,0,0,4,,,,,,,,,0,,,51,60
42120,note_on,0,0,4,,,,,,,,,0,,,47,60
42120,note_on,30,0,4,,,,,,,,,0,,,56,0
42120,control_change,360,0,5,,,,,,,,,0,64,0,,
42150,note_on,30,0,4,,,,,,,,,0,,,59,0
42150,note_on,0,0,4,,,,,,,,,0,,,63,40
42180,note_on,30,0,4,,,,,,,,,0,,,63,0
42180,note_on,0,0,4,,,,,,,,,0,,,47,0
42180,note_on,0,0,4,,,,,,,,,0,,,51,0
42180,note_on,0,0,4,,,,,,,,,0,,,55,40
42180,note_on,0,0,4,,,,,,,,,0,,,61,40
42180,note_on,0,0,4,,,,,,,,,0,,,46,60
42180,note_on,0,0,4,,,,,,,,,0,,,51,60
42210,note_on,30,0,4,,,,,,,,,0,,,61,0
42210,note_on,0,0,4,,,,,,,,,0,,,55,0
42210,note_on,0,0,4,,,,,,,,,0,,,63,40
42240,note_on,0,0,4,,,,,,,,,0,,,44,60
42240,note_on,0,0,4,,,,,,,,,0,,,51,60
42240,note_on,0,0,4,,,,,,,,,0,,,59,40
42240,note_on,0,0,4,,,,,,,,,0,,,56,40
42240,note_on,0,0,4,,,,,,,,,0,,,51,0
42240,note_on,30,0,4,,,,,,,,,0,,,63,0
42240,note_on,0,0,4,,,,,,,,,0,,,46,0
42240,control_change,120,0,5,,,,,,,,,0,64,127,,
42270,note_on,30,0,4,,,,,,,,,0,,,59,0
42270,note_on,0,0,4,,,,,,,,,0,,,63,40
42270,note_on,0,0,4,,,,,,,,,0,,,56,0
42300,note_on,0,0,4,,,,,,,,,0,,,51,41
42300,note_on,0,0,4,,,,,,,,,0,,,44,0
42300,note_on,30,0,4,,,,,,,,,0,,,63,0
42300,note_on,0,0,4,,,,,,,,,0,,,51,0
42330,note_on,0,0,4,,,,,,,,,0,,,56,42
42330,note_on,30,0,4,,,,,,,,,0,,,51,0
42360,note_on,0,0,4,,,,,,,,,0,,,59,43
42360,note_on,30,0,4,,,,,,,,,0,,,56,0
42390,note_on,0,0,4,,,,,,,,,0,,,63,44
42390,note_on,30,0,4,,,,,,,,,0,,,59,0
42420,note_on,0,0,4,,,,,,,,,0,,,51,45
42420,note_on,30,0,4,,,,,,,,,0,,,63,0
42450,note_on,0,0,4,,,,,,,,,0,,,56,45
42450,note_on,30,0,4,,,,,,,,,0,,,51,0
42480,note_on,0,0,4,,,,,,,,,0,,,59,46
42480,note_on,30,0,4,,,,,,,,,0,,,56,0
42510,note_on,0,0,4,,,,,,,,,0,,,63,47
42510,note_on,30,0,4,,,,,,,,,0,,,59,0
42540,note_on,30,0,4,,,,,,,,,0,,,63,0
42540,note_on,0,0,4,,,,,,,,,0,,,51,48
42570,note_on,30,0,4,,,,,,,,,0,,,51,0
42570,note_on,0,0,4,,,,,,,,,0,,,56,49
42600,note_on,0,0,1,,,,,,,,,0,,,68,70
42600,note_on,0,0,1,,,,,,,,,0,,,71,70
42600,note_on,720,0,1,,,,,,,,,0,,,59,50
42600,control_change,360,0,5,,,,,,,,,0,64,0,,
42600,note_on,30,0,4,,,,,,,,,0,,,56,0
42630,note_on,0,0,1,,,,,,,,,0,,,63,51
42630,note_on,30,0,1,,,,,,,,,0,,,59,0
42660,note_on,0,0,1,,,,,,,,,0,,,71,0
42660,note_on,0,0,1,,,,,,,,,0,,,54,51
42660,note_on,0,0,1,,,,,,,,,0,,,73,71
42660,note_on,0,0,1,,,,,,,,,0,,,70,71
42660,note_on,30,0,1,,,,,,,,,0,,,63,0
42660,note_on,0,0,1,,,,,,,,,0,,,68,0
42660,note_on,0,0,1,,,,,,,,,0,,,61,51
42690,note_on,30,0,1,,,,,,,,,0,,,61,0
42690,note_on,0,0,1,,,,,,,,,0,,,54,0
42690,note_on,0,0,1,,,,,,,,,0,,,66,52
42720,note_on,0,0,1,,,,,,,,,0,,,59,53
42720,note_on,0,0,1,,,,,,,,,0,,,63,53
42720,control_change,120,0,5,,,,,,,,,0,64,127,,
42720,note_on,0,0,1,,,,,,,,,0,,,75,73
42720,note_on,0,0,1,,,,,,,,,0,,,73,0
42720,note_on,30,0,1,,,,,,,,,0,,,66,0
42720,note_on,0,0,1,,,,,,,,,0,,,71,73
42720,note_on,0,0,1,,,,,,,,,0,,,70,0
42750,note_on,30,0,1,,,,,,,,,0,,,63,0
42750,note_on,0,0,1,,,,,,,,,0,,,59,0
42750,note_on,0,0,1,,,,,,,,,0,,,66,54
42780,note_on,30,0,1,,,,,,,,,0,,,66,0
42780,note_on,0,0,1,,,,,,,,,0,,,54,55
42810,note_on,30,0,1,,,,,,,,,0,,,54,0
42810,note_on,0,0,1,,,,,,,,,0,,,59,56
42840,note_on,30,0,1,,,,,,,,,0,,,59,0
42840,note_on,0,0,1,,,,,,,,,0,,,75,0
42840,note_on,0,0,1,,,,,,,,,0,,,63,57
42840,note_on,0,0,1,,,,,,,,,0,,,71,0
42870,note_on,30,0,1,,,,,,,,,0,,,63,0
42870,note_on,0,0,1,,,,,,,,,0,,,66,57
42900,note_on,30,0,1,,,,,,,,,0,,,66,0
42900,note_on,0,0,1,,,,,,,,,0,,,54,58
42930,note_on,0,0,1,,,,,,,,,0,,,59,59
42930,note_on,30,0,1,,,,,,,,,0,,,54,0
42960,note_on,0,0,1,,,,,,,,,0,,,63,60
42960,note_on,30,0,1,,,,,,,,,0,,,59,0
42990,note_on,30,0,1,,,,,,,,,0,,,63,0
42990,note_on,0,0,1,,,,,,,,,0,,,66,61
43020,note_on,0,0,1,,,,,,,,,0,,,63,62
43020,note_on,420,0,4,,,,,,,,,0,,,51,82
43020,note_on,0,0,1,,,,,,,,,0,,,59,62
43020,note_on,0,0,4,,,,,,,,,0,,,54,82
43020,note_on,30,0,1,,,,,,,,,0,,,66,0
43050,note_on,0,0,1,,,,,,,,,0,,,59,0
43050,note_on,30,0,1,,,,,,,,,0,,,63,0
43050,note_on,0,0,1,,,,,,,,,0,,,66,63
43080,control_change,360,0,5,,,,,,,,,0,64,0,,
43080,note_on,0,0,1,,,,,,,,,0,,,58,63
43080,note_on,60,0,4,,,,,,,,,0,,,54,0
43080,note_on,0,0,4,,,,,,,,,0,,,51,0
43080,note_on,0,0,4,,,,,,,,,0,,,49,83
43080,note_on,0,0,4,,,,,,,,,0,,,54,83
43080,note_on,30,0,1,,,,,,,,,0,,,66,0
43080,note_on,0,0,1,,,,,,,,,0,,,64,63
43110,note_on,30,0,1,,,,,,,,,0,,,64,0
43110,note_on,0,0,1,,,,,,,,,0,,,58,0
43110,note_on,0,0,1,,,,,,,,,0,,,66,64
43140,note_on,30,0,1,,,,,,,,,0,,,66,0
43140,note_on,60,0,4,,,,,,,,,0,,,54,0
43140,note_on,0,0,4,,,,,,,,,0,,,49,0
43140,note_on,0,0,4,,,,,,,,,0,,,47,85
43140,note_on,0,0,4,,,,,,,,,0,,,54,85
43140,note_on,0,0,1,,,,,,,,,0,,,59,65
43140,note_on,0,0,1,,,,,,,,,0,,,63,65
43170,note_on,30,0,1,,,,,,,,,0,,,63,0
43170,note_on,0,0,1,,,,,,,,,0,,,66,66
43170,note_on,0,0,1,,,,,,,,,0,,,59,0
43200,note_on,0,0,1,,,,,,,,,0,,,58,67
43200,note_on,60,0,4,,,,,,,,,0,,,54,0
43200,note_on,0,0,4,,,,,,,,,0,,,47,0
43200,note_on,0,0,4,,,,,,,,,0,,,42,87
43200,note_on,0,0,4,,,,,,,,,0,,,54,87
43200,note_on,0,0,1,,,,,,,,,0,,,61,67
43200,note_on,30,0,1,,,,,,,,,0,,,66,0
43200,control_change,120,0,5,,,,,,,,,0,64,127,,
43230,note_on,30,0,1,,,,,,,,,0,,,61,0
43230,note_on,0,0,1,,,,,,,,,0,,,58,0
43230,note_on,0,0,1,,,,,,,,,0,,,66,68
43260,note_on,30,0,1,,,,,,,,,0,,,66,0
43260,note_on,0,0,1,,,,,,,,,0,,,54,69
43260,note_on,60,0,4,,,,,,,,,0,,,54,0
43260,note_on,0,0,4,,,,,,,,,0,,,42,0
43290,note_on,0,0,1,,,,,,,,,0,,,58,69
43290,note_on,30,0,1,,,,,,,,,0,,,54,0
43320,note_on,0,0,1,,,,,,,,,0,,,61,70
43320,note_on,30,0,1,,,,,,,,,0,,,58,0
43350,note_on,30,0,1,,,,,,,,,0,,,61,0
43350,note_on,0,0,1,,,,,,,,,0,,,66,71
43380,note_on,30,0,1,,,,,,,,,0,,,66,0
43380,note_on,0,0,1,,,,,,,,,0,,,54,72
43410,note_on,0,0,1,,,,,,,,,0,,,58,73
43410,note_on,30,0,1,,,,,,,,,0,,,54,0
43440,note_on,30,0,1,,,,,,,,,0,,,58,0
43440,note_on,0,0,1,,,,,,,,,0,,,61,74
43470,note_on,30,0,1,,,,,,,,,0,,,61,0
43470,note_on,0,0,1,,,,,,,,,0,,,66,75
43500,note_on,30,0,1,,,,,,,,,0,,,66,0
43500,note_on,0,0,1,,,,,,,,,0,,,54,75
43530,note_on,30,0,1,,,,,,,,,0,,,54,0
43530,note_on,0,0,1,,,,,,,,,0,,,58,76
43560,note_on,30,0,1,,,,,,,,,0,,,58,0
43560,note_on,0,0,1,,,,,,,,,0,,,61,77
43560,note_on,0,0,1,,,,,,,,,0,,,76,97
43560,note_on,0,0,1,,,,,,,,,0,,,73,97
43560,control_change,360,0,5,,,,,,,,,0,64,0,,
43590,note_on,30,0,1,,,,,,,,,0,,,61,0
43590,note_on,0,0,1,,,,,,,,,0,,,66,78
43620,note_on,0,0,1,,,,,,,,,0,,,80,99
43620,note_on,0,0,1,,,,,,,,,0,,,64,79
43620,note_on,0,0,1,,,,,,,,,0,,,76,99
43620,note_on,0,0,1,,,,,,,,,0,,,73,0
43620,note_on,30,0,1,,,,,,,,,0,,,66,0
43620,note_on,0,0,1,,,,,,,,,0,,,76,0
43650,note_on,30,0,1,,,,,,,,,0,,,64,0
43650,note_on,0,0,1,,,,,,,,,0,,,66,80
43680,note_on,0,0,1,,,,,,,,,0,,,75,100
43680,note_on,0,0,1,,,,,,,,,0,,,78,100
43680,note_on,0,0,1,,,,,,,,,0,,,80,0
43680,note_on,0,0,1,,,,,,,,,0,,,63,80
43680,note_on,30,0,1,,,,,,,,,0,,,66,0
43680,control_change,120,0,5,,,,,,,,,0,64,127,,
43680,note_on,0,0,1,,,,,,,,,0,,,76,0
43710,note_on,30,0,1,,,,,,,,,0,,,63,0
43710,note_on,0,0,1,,,,,,,,,0,,,66,79
43740,note_on,30,0,1,,,,,,,,,0,,,66,0
43740,note_on,0,0,1,,,,,,,,,0,,,54,78
43770,note_on,30,0,1,,,,,,,,,0,,,54,0
43770,note_on,0,0,1,,,,,,,,,0,,,59,77
43800,note_on,0,0,1,,,,,,,,,0,,,78,0
43800,note_on,30,0,1,,,,,,,,,0,,,59,0
43800,note_on,0,0,1,,,,,,,,,0,,,75,0
43800,note_on,0,0,1,,,,,,,,,0,,,63,75
43830,note_on,30,0,1,,,,,,,,,0,,,63,0
43830,note_on,0,0,1,,,,,,,,,0,,,66,74
43860,note_on,30,0,1,,,,,,,,,0,,,66,0
43860,note_on,0,0,1,,,,,,,,,0,,,54,73
43890,note_on,30,0,1,,,,,,,,,0,,,54,0
43890,note_on,0,0,1,,,,,,,,,0,,,59,71
43920,note_on,30,0,1,,,,,,,,,0,,,59,0
43920,note_on,0,0,1,,,,,,,,,0,,,63,70
43950,note_on,30,0,1,,,,,,,,,0,,,63,0
43950,note_on,0,0,1,,,,,,,,,0,,,66,69
43980,note_on,0,0,1,,,,,,,,,0,,,54,67
43980,note_on,30,0,1,,,,,,,,,0,,,66,0
44010,note_on,30,0,1,,,,,,,,,0,,,54,0
44010,note_on,0,0,1,,,,,,,,,0,,,59,66
44040,control_change,360,0,5,,,,,,,,,0,64,0,,
44040,note_on,0,0,1,,,,,,,,,0,,,63,65
44040,note_on,0,0,1,,,,,,,,,0,,,59,65
44040,note_on,30,0,1,,,,,,,,,0,,,59,0
44040,note_on,0,0,4,,,,,,,,,0,,,54,85
44040,note_on,780,0,4,,,,,,,,,0,,,51,85
44070,note_on,30,0,1,,,,,,,,,0,,,63,0
44070,note_on,0,0,1,,,,,,,,,0,,,59,0
44070,note_on,0,0,1,,,,,,,,,0,,,66,64
44100,note_on,0,0,1,,,,,,,,,0,,,64,62
44100,note_on,60,0,4,,,,,,,,,0,,,54,0
44100,note_on,0,0,4,,,,,,,,,0,,,51,0
44100,note_on,0,0,4,,,,,,,,,0,,,49,82
44100,note_on,0,0,4,,,,,,,,,0,,,54,82
44100,note_on,30,0,1,,,,,,,,,0,,,66,0
44100,note_on,0,0,1,,,,,,,,,0,,,58,62
44130,note_on,0,0,1,,,,,,,,,0,,,58,0
44130,note_on,0,0,1,,,,,,,,,0,,,66,61
44130,note_on,30,0,1,,,,,,,,,0,,,64,0
44160,note_on,60,0,4,,,,,,,,,0,,,54,0
44160,note_on,0,0,4,,,,,,,,,0,,,49,0
44160,note_on,0,0,4,,,,,,,,,0,,,54,80
44160,note_on,0,0,4,,,,,,,,,0,,,47,80
44160,note_on,0,0,1,,,,,,,,,0,,,63,60
44160,control_change,120,0,5,,,,,,,,,0,64,127,,
44160,note_on,30,0,1,,,,,,,,,0,,,66,0
44160,note_on,0,0,1,,,,,,,,,0,,,59,60
44190,note_on,0,0,1,,,,,,,,,0,,,66,58
44190,note_on,30,0,1,,,,,,,,,0,,,63,0
44190,note_on,0,0,1,,,,,,,,,0,,,59,0
44220,note_on,0,0,1,,,,,,,,,0,,,54,57
44220,note_on,30,0,1,,,,,,,,,0,,,66,0
44220,note_on,0,0,4,,,,,,,,,0,,,54,0
44220,note_on,60,0,4,,,,,,,,,0,,,47,0
44250,note_on,30,0,1,,,,,,,,,0,,,54,0
44250,note_on,0,0,1,,,,,,,,,0,,,59,56
44280,note_on,30,0,1,,,,,,,,,0,,,59,0
44280,note_on,0,0,1,,,,,,,,,0,,,63,54
44310,note_on,30,0,1,,,,,,,,,0,,,63,0
44310,note_on,0,0,1,,,,,,,,,0,,,66,53
44340,note_on,0,0,1,,,,,,,,,0,,,54,52
44340,note_on,30,0,1,,,,,,,,,0,,,66,0
44370,note_on,30,0,1,,,,,,,,,0,,,54,0
44370,note_on,0,0,1,,,,,,,,,0,,,59,51
44400,note_on,30,0,1,,,,,,,,,0,,,59,0
44400,note_on,0,0,1,,,,,,,,,0,,,63,49
44430,note_on,30,0,1,,,,,,,,,0,,,63,0
44430,note_on,0,0,1,,,,,,,,,0,,,66,48
44460,note_on,0,0,1,,,,,,,,,0,,,54,47
44460,note_on,30,0,1,,,,,,,,,0,,,66,0
44460,note_on,0,0,1,,,,,,,,,0,,,75,67
44490,note_on,30,0,1,,,,,,,,,0,,,54,0
44490,note_on,0,0,1,,,,,,,,,0,,,59,45
44520,note_on,0,0,1,,,,,,,,,0,,,63,44
44520,note_on,0,0,1,,,,,,,,,0,,,75,0
44520,control_change,360,0,5,,,,,,,,,0,64,0,,
44520,note_on,30,0,1,,,,,,,,,0,,,59,0
44520,note_on,0,0,1,,,,,,,,,0,,,73,64
44550,note_on,30,0,1,,,,,,,,,0,,,63,0
44550,note_on,0,0,1,,,,,,,,,0,,,66,43
44580,note_on,30,0,1,,,,,,,,,0,,,66,0
44580,note_on,0,0,1,,,,,,,,,0,,,71,61
44580,note_on,0,0,1,,,,,,,,,0,,,73,0
44580,note_on,0,0,1,,,,,,,,,0,,,54,41
44610,note_on,30,0,1,,,,,,,,,0,,,54,0
44610,note_on,0,0,1,,,,,,,,,0,,,59,40
44640,control_change,120,0,5,,,,,,,,,0,64,127,,
44640,note_on,0,0,1,,,,,,,,,0,,,64,40
44640,note_on,0,0,1,,,,,,,,,0,,,68,60
44640,note_on,30,0,1,,,,,,,,,0,,,59,0
44640,note_on,0,0,1,,,,,,,,,0,,,71,0
44670,note_on,30,0,1,,,,,,,,,0,,,64,0
44670,note_on,0,0,1,,,,,,,,,0,,,59,40
44700,note_on,30,0,1,,,,,,,,,0,,,59,0
44700,note_on,0,0,1,,,,,,,,,0,,,56,40
44730,note_on,30,0,1,,,,,,,,,0,,,56,0
44730,note_on,0,0,1,,,,,,,,,0,,,59,40
44760,note_on,0,0,1,,,,,,,,,0,,,64,40
44760,note_on,30,0,1,,,,,,,,,0,,,59,0
44760,note_on,0,0,1,,,,,,,,,0,,,68,0
44790,note_on,30,0,1,,,,,,,,,0,,,64,0
44790,note_on,0,0,1,,,,,,,,,0,,,68,40
44820,note_on,30,0,1,,,,,,,,,0,,,68,0
44820,note_on,0,0,1,,,,,,,,,0,,,56,40
44850,note_on,30,0,1,,,,,,,,,0,,,56,0
44850,note_on,0,0,1,,,,,,,,,0,,,59,40
44880,note_on,30,0,1,,,,,,,,,0,,,59,0
44880,note_on,0,0,1,,,,,,,,,0,,,64,40
44910,note_on,30,0,1,,,,,,,,,0,,,64,0
44910,note_on,0,0,1,,,,,,,,,0,,,68,40
44940,note_on,0,0,1,,,,,,,,,0,,,56,40
44940,note_on,30,0,1,,,,,,,,,0,,,68,0
44940,note_on,720,0,4,,,,,,,,,0,,,52,60
44970,note_on,30,0,1,,,,,,,,,0,,,56,0
44970,note_on,0,0,1,,,,,,,,,0,,,61,40
45000,note_on,30,0,1,,,,,,,,,0,,,61,0
45000,note_on,0,0,1,,,,,,,,,0,,,64,40
45000,note_on,60,0,4,,,,,,,,,0,,,52,0
45000,control_change,360,0,5,,,,,,,,,0,64,0,,
45000,note_on,0,0,4,,,,,,,,,0,,,51,60
45030,note_on,0,0,1,,,,,,,,,0,,,68,40
45030,note_on,30,0,1,,,,,,,,,0,,,64,0
45060,note_on,60,0,4,,,,,,,,,0,,,51,0
45060,note_on,0,0,4,,,,,,,,,0,,,49,60
45060,note_on,0,0,1,,,,,,,,,0,,,56,40
45060,note_on,30,0,1,,,,,,,,,0,,,68,0
45090,note_on,0,0,1,,,,,,,,,0,,,61,40
45090,note_on,30,0,1,,,,,,,,,0,,,56,0
45120,note_on,0,0,4,,,,,,,,,0,,,46,60
45120,note_on,30,0,1,,,,,,,,,0,,,61,0
45120,control_change,120,0,5,,,,,,,,,0,64,127,,
45120,note_on,0,0,1,,,,,,,,,0,,,64,40
45120,note_on,60,0,4,,,,,,,,,0,,,49,0
45150,note_on,30,0,1,,,,,,,,,0,,,64,0
45150,note_on,0,0,1,,,,,,,,,0,,,66,40
45180,note_on,0,0,1,,,,,,,,,0,,,54,40
45180,note_on,30,0,1,,,,,,,,,0,,,66,0
45210,note_on,30,0,1,,,,,,,,,0,,,54,0
45210,note_on,0,0,1,,,,,,,,,0,,,61,40
45240,note_on,0,0,1,,,,,,,,,0,,,64,40
45240,note_on,30,0,1,,,,,,,,,0,,,61,0
45270,note_on,0,0,1,,,,,,,,,0,,,66,40
45270,note_on,30,0,1,,,,,,,,,0,,,64,0
45300,note_on,0,0,1,,,,,,,,,0,,,54,40
45300,note_on,30,0,1,,,,,,,,,0,,,66,0
45330,note_on,30,0,1,,,,,,,,,0,,,54,0
45330,note_on,0,0,1,,,,,,,,,0,,,61,40
45360,note_on,30,0,1,,,,,,,,,0,,,61,0
45360,note_on,240,0,4,,,,,,,,,0,,,46,0
45360,note_on,0,0,1,,,,,,,,,0,,,63,40
45360,note_on,0,0,4,,,,,,,,,0,,,47,60
45390,note_on,0,0,1,,,,,,,,,0,,,66,40
45390,note_on,30,0,1,,,,,,,,,0,,,63,0
45420,note_on,0,0,1,,,,,,,,,0,,,75,60
45420,note_on,0,0,1,,,,,,,,,0,,,54,40
45420,note_on,30,0,1,,,,,,,,,0,,,66,0
45420,note_on,60,0,4,,,,,,,,,0,,,47,0
45450,note_on,30,0,1,,,,,,,,,0,,,54,0
45450,note_on,0,0,1,,,,,,,,,0,,,59,40
45480,note_on,0,0,1,,,,,,,,,0,,,63,40
45480,control_change,360,0,5,,,,,,,,,0,64,0,,
45480,note_on,30,0,1,,,,,,,,,0,,,59,0
45480,note_on,0,0,1,,,,,,,,,0,,,75,0
45480,note_on,0,0,1,,,,,,,,,0,,,76,60
45510,note_on,30,0,1,,,,,,,,,0,,,63,0
45510,note_on,0,0,1,,,,,,,,,0,,,67,40
45540,note_on,0,0,1,,,,,,,,,0,,,77,60
45540,note_on,0,0,1,,,,,,,,,0,,,54,40
45540,note_on,30,0,1,,,,,,,,,0,,,67,0
45540,note_on,0,0,1,,,,,,,,,0,,,76,0
45570,note_on,0,0,1,,,,,,,,,0,,,59,40
45570,note_on,30,0,1,,,,,,,,,0,,,54,0
45600,control_change,120,0,5,,,,,,,,,0,64,127,,
45600,note_on,30,0,1,,,,,,,,,0,,,59,0
45600,note_on,0,0,1,,,,,,,,,0,,,77,0
45600,note_on,0,0,1,,,,,,,,,0,,,61,40
45600,note_on,0,0,1,,,,,,,,,0,,,78,60
45630,note_on,0,0,1,,,,,,,,,0,,,66,40
45630,note_on,30,0,1,,,,,,,,,0,,,61,0
45660,note_on,0,0,1,,,,,,,,,0,,,54,40
45660,note_on,30,0,1,,,,,,,,,0,,,66,0
45690,note_on,30,0,1,,,,,,,,,0,,,54,0
45690,note_on,0,0,1,,,,,,,,,0,,,59,40
45720,note_on,30,0,1,,,,,,,,,0,,,59,0
45720,note_on,0,0,1,,,,,,,,,0,,,61,40
45750,note_on,30,0,1,,,,,,,,,0,,,61,0
45750,note_on,0,0,1,,,,,,,,,0,,,66,40
45780,note_on,30,0,1,,,,,,,,,0,,,66,0
45780,note_on,0,0,1,,,,,,,,,0,,,54,40
45810,note_on,30,0,1,,,,,,,,,0,,,54,0
45810,note_on,0,0,1,,,,,,,,,0,,,59,40
45840,note_on,30,0,1,,,,,,,,,0,,,59,0
45840,note_on,0,0,1,,,,,,,,,0,,,61,40
45870,note_on,0,0,1,,,,,,,,,0,,,66,40
45870,note_on,30,0,1,,,,,,,,,0,,,61,0
45900,note_on,0,0,1,,,,,,,,,0,,,54,40
45900,note_on,30,0,1,,,,,,,,,0,,,66,0
45930,note_on,0,0,1,,,,,,,,,0,,,58,40
45930,note_on,30,0,1,,,,,,,,,0,,,54,0
45960,control_change,360,0,5,,,,,,,,,0,64,0,,
45960,note_on,0,0,1,,,,,,,,,0,,,61,40
45960,note_on,30,0,1,,,,,,,,,0,,,58,0
45990,note_on,30,0,1,,,,,,,,,0,,,61,0
45990,note_on,0,0,1,,,,,,,,,0,,,66,40
46020,note_on,30,0,1,,,,,,,,,0,,,66,0
46020,note_on,0,0,1,,,,,,,,,0,,,54,40
46050,note_on,30,0,1,,,,,,,,,0,,,54,0
46050,note_on,0,0,1,,,,,,,,,0,,,58,40
46080,note_on,0,0,1,,,,,,,,,0,,,78,0
46080,note_on,30,0,1,,,,,,,,,0,,,58,0
46080,control_change,120,0,5,,,,,,,,,0,64,127,,
46080,note_on,0,0,1,,,,,,,,,0,,,63,40
46080,note_on,0,0,1,,,,,,,,,0,,,75,60
46110,note_on,30,0,1,,,,,,,,,0,,,63,0
46110,note_on,0,0,1,,,,,,,,,0,,,66,40
46140,note_on,30,0,1,,,,,,,,,0,,,66,0
46140,note_on,0,0,1,,,,,,,,,0,,,54,40
46170,note_on,0,0,1,,,,,,,,,0,,,59,40
46170,note_on,30,0,1,,,,,,,,,0,,,54,0
46200,note_on,0,0,1,,,,,,,,,0,,,63,40
46200,note_on,0,0,1,,,,,,,,,0,,,75,0
46200,note_on,30,0,1,,,,,,,,,0,,,59,0
46230,note_on,0,0,1,,,,,,,,,0,,,66,40
46230,note_on,30,0,1,,,,,,,,,0,,,63,0
46260,note_on,0,0,1,,,,,,,,,0,,,54,40
46260,note_on,30,0,1,,,,,,,,,0,,,66,0
46290,note_on,30,0,1,,,,,,,,,0,,,54,0
46290,note_on,0,0,1,,,,,,,,,0,,,59,40
46320,note_on,30,0,1,,,,,,,,,0,,,59,0
46320,note_on,0,0,1,,,,,,,,,0,,,62,40
46350,note_on,30,0,1,,,,,,,,,0,,,62,0
46350,note_on,0,0,1,,,,,,,,,0,,,66,40
46380,note_on,960,0,4,,,,,,,,,0,,,47,60
46380,note_on,30,0,1,,,,,,,,,0,,,66,0
46380,note_on,0,0,1,,,,,,,,,0,,,54,40
46410,note_on,30,0,1,,,,,,,,,0,,,54,0
46410,note_on,0,0,1,,,,,,,,,0,,,59,40
46440,note_on,0,0,1,,,,,,,,,0,,,62,40
46440,note_on,30,0,1,,,,,,,,,0,,,59,0
46440,control_change,360,0,5,,,,,,,,,0,64,0,,
46440,note_on,0,0,4,,,,,,,,,0,,,49,60
46440,note_on,60,0,4,,,,,,,,,0,,,47,0
46470,note_on,30,0,1,,,,,,,,,0,,,62,0
46470,note_on,0,0,1,,,,,,,,,0,,,66,40
46500,note_on,0,0,4,,,,,,,,,0,,,50,60
46500,note_on,30,0,1,,,,,,,,,0,,,66,0
46500,note_on,0,0,1,,,,,,,,,0,,,54,40
46500,note_on,60,0,4,,,,,,,,,0,,,49,0
46530,note_on,30,0,1,,,,,,,,,0,,,54,0
46530,note_on,0,0,1,,,,,,,,,0,,,59,40
46560,note_on,60,0,4,,,,,,,,,0,,,50,0
46560,note_on,0,0,1,,,,,,,,,0,,,61,40
46560,note_on,0,0,4,,,,,,,,,0,,,42,60
46560,control_change,120,0,5,,,,,,,,,0,64,127,,
46560,note_on,30,0,1,,,,,,,,,0,,,59,0
46590,note_on,0,0,1,,,,,,,,,0,,,66,40
46590,note_on,30,0,1,,,,,,,,,0,,,61,0
46620,note_on,0,0,1,,,,,,,,,0,,,54,40
46620,note_on,30,0,1,,,,,,,,,0,,,66,0
46650,note_on,0,0,1,,,,,,,,,0,,,59,40
46650,note_on,30,0,1,,,,,,,,,0,,,54,0
46680,note_on,30,0,1,,,,,,,,,0,,,59,0
46680,note_on,0,0,1,,,,,,,,,0,,,61,40
46710,note_on,30,0,1,,,,,,,,,0,,,61,0
46710,note_on,0,0,1,,,,,,,,,0,,,66,40
46740,note_on,30,0,1,,,,,,,,,0,,,66,0
46740,note_on,0,0,1,,,,,,,,,0,,,54,40
46770,note_on,30,0,1,,,,,,,,,0,,,54,0
46770,note_on,0,0,1,,,,,,,,,0,,,59,40
46800,note_on,30,0,1,,,,,,,,,0,,,59,0
46800,note_on,0,0,1,,,,,,,,,0,,,61,40
46830,note_on,0,0,1,,,,,,,,,0,,,66,40
46830,note_on,30,0,1,,,,,,,,,0,,,61,0
46860,note_on,30,0,1,,,,,,,,,0,,,66,0
46860,note_on,0,0,1,,,,,,,,,0,,,54,40
46890,note_on,0,0,1,,,,,,,,,0,,,58,40
46890,note_on,30,0,1,,,,,,,,,0,,,54,0
46920,note_on,30,0,1,,,,,,,,,0,,,58,0
46920,note_on,0,0,1,,,,,,,,,0,,,61,40
46920,control_change,360,0,5,,,,,,,,,0,64,0,,
46950,note_on,30,0,1,,,,,,,,,0,,,61,0
46950,note_on,0,0,1,,,,,,,,,0,,,66,40
46980,note_on,30,0,1,,,,,,,,,0,,,66,0
46980,note_on,0,0,1,,,,,,,,,0,,,54,40
47010,note_on,30,0,1,,,,,,,,,0,,,54,0
47010,note_on,0,0,1,,,,,,,,,0,,,58,40
47040,note_on,480,0,4,,,,,,,,,0,,,42,0
47040,note_on,0,0,1,,,,,,,,,0,,,63,40
47040,note_on,0,0,4,,,,,,,,,0,,,35,60
47040,control_change,120,0,5,,,,,,,,,0,64,127,,
47040,note_on,30,0,1,,,,,,,,,0,,,58,0
47070,note_on,30,0,4,,,,,,,,,0,,,35,0
47070,note_on,30,0,1,,,,,,,,,0,,,63,0
47070,note_on,0,0,1,,,,,,,,,0,,,66,42
47100,note_on,0,0,1,,,,,,,,,0,,,54,45
47100,note_on,30,0,1,,,,,,,,,0,,,66,0
47130,note_on,30,0,1,,,,,,,,,0,,,54,0
47130,note_on,0,0,1,,,,,,,,,0,,,59,48
47160,note_on,30,0,1,,,,,,,,,0,,,59,0
47160,note_on,0,0,1,,,,,,,,,0,,,63,50
47190,note_on,0,0,1,,,,,,,,,0,,,66,53
47190,note_on,30,0,1,,,,,,,,,0,,,63,0
47220,note_on,30,0,1,,,,,,,,,0,,,66,0
47220,note_on,0,0,1,,,,,,,,,0,,,54,56
47250,note_on,30,0,1,,,,,,,,,0,,,54,0
47250,note_on,0,0,1,,,,,,,,,0,,,59,59
47280,note_on,30,0,1,,,,,,,,,0,,,59,0
47280,note_on,0,0,1,,,,,,,,,0,,,63,61
47310,note_on,30,0,1,,,,,,,,,0,,,63,0
47310,note_on,0,0,1,,,,,,,,,0,,,66,64
47340,note_on,0,0,1,,,,,,,,,0,,,71,87
47340,note_on,0,0,1,,,,,,,,,0,,,75,87
47340,note_on,0,0,1,,,,,,,,,0,,,54,67
47340,note_on,30,0,1,,,,,,,,,0,,,66,0
47370,note_on,0,0,1,,,,,,,,,0,,,59,69
47370,note_on,30,0,1,,,,,,,,,0,,,54,0
47400,note_on,0,0,1,,,,,,,,,0,,,71,92
47400,note_on,0,0,1,,,,,,,,,0,,,75,92
47400,note_on,0,0,1,,,,,,,,,0,,,63,72
47400,note_on,0,0,1,,,,,,,,,0,,,75,0
47400,note_on,0,0,1,,,,,,,,,0,,,71,0
47400,note_on,30,0,1,,,,,,,,,0,,,59,0
47400,control_change,360,0,5,,,,,,,,,0,64,0,,
47430,note_on,0,0,1,,,,,,,,,0,,,66,75
47430,note_on,30,0,1,,,,,,,,,0,,,63,0
47460,note_on,30,0,1,,,,,,,,,0,,,66,0
47460,note_on,0,0,1,,,,,,,,,0,,,71,0
47460,note_on,0,0,1,,,,,,,,,0,,,75,0
47460,note_on,0,0,1,,,,,,,,,0,,,76,98
47460,note_on,0,0,1,,,,,,,,,0,,,71,98
47460,note_on,0,0,1,,,,,,,,,0,,,54,78
47490,note_on,30,0,1,,,,,,,,,0,,,54,0
47490,note_on,0,0,1,,,,,,,,,0,,,59,80
47520,control_change,120,0,5,,,,,,,,,0,64,127,,
47520,note_on,30,0,1,,,,,,,,,0,,,59,0
47520,note_on,0,0,1,,,,,,,,,0,,,71,0
47520,note_on,0,0,1,,,,,,,,,0,,,76,0
47520,note_on,0,0,1,,,,,,,,,0,,,63,80
47520,note_on,0,0,1,,,,,,,,,0,,,70,100
47520,note_on,0,0,1,,,,,,,,,0,,,73,100
47520,note_on,0,0,1,,,,,,,,,0,,,75,100
47550,note_on,30,0,1,,,,,,,,,0,,,63,0
47550,note_on,0,0,1,,,,,,,,,0,,,67,80
47580,note_on,0,0,1,,,,,,,,,0,,,55,80
47580,note_on,30,0,1,,,,,,,,,0,,,67,0
47610,note_on,0,0,1,,,,,,,,,0,,,58,80
47610,note_on,30,0,1,,,,,,,,,0,,,55,0
47640,note_on,0,0,1,,,,,,,,,0,,,70,100
47640,note_on,0,0,1,,,,,,,,,0,,,63,80
47640,note_on,0,0,1,,,,,,,,,0,,,70,0
47640,note_on,0,0,1,,,,,,,,,0,,,75,0
47640,note_on,30,0,1,,,,,,,,,0,,,58,0
47640,note_on,0,0,1,,,,,,,,,0,,,73,0
47670,note_on,0,0,1,,,,,,,,,0,,,67,80
47670,note_on,30,0,1,,,,,,,,,0,,,63,0
47700,note_on,0,0,1,,,,,,,,,0,,,55,80
47700,note_on,0,0,1,,,,,,,,,0,,,70,0
47700,note_on,30,0,1,,,,,,,,,0,,,67,0
47730,note_on,0,0,1,,,,,,,,,0,,,58,80
47730,note_on,30,0,1,,,,,,,,,0,,,55,0
47760,note_on,30,0,1,,,,,,,,,0,,,58,0
47760,note_on,0,0,1,,,,,,,,,0,,,63,80
47790,note_on,0,0,1,,,,,,,,,0,,,67,80
47790,note_on,30,0,1,,,,,,,,,0,,,63,0
47820,note_on,0,0,4,,,,,,,,,0,,,51,100
47820,note_on,750,0,4,,,,,,,,,0,,,39,100
47820,note_on,30,0,1,,,,,,,,,0,,,67,0
47820,note_on,0,0,1,,,,,,,,,0,,,55,80
47850,note_on,0,0,4,,,,,,,,,0,,,39,0
47850,note_on,30,0,1,,,,,,,,,0,,,55,0
47850,note_on,0,0,1,,,,,,,,,0,,,58,80
47850,note_on,30,0,4,,,,,,,,,0,,,51,0
47880,note_on,0,0,4,,,,,,,,,0,,,51,100
47880,note_on,0,0,1,,,,,,,,,0,,,63,80
47880,note_on,30,0,4,,,,,,,,,0,,,39,100
47880,control_change,360,0,5,,,,,,,,,0,64,0,,
47880,note_on,30,0,1,,,,,,,,,0,,,58,0
47910,note_on,30,0,1,,,,,,,,,0,,,63,0
47910,note_on,0,0,1,,,,,,,,,0,,,67,80
47940,note_on,30,0,1,,,,,,,,,0,,,67,0
47940,note_on,0,0,1,,,,,,,,,0,,,55,80
47940,note_on,0,0,4,,,,,,,,,0,,,46,100
47940,note_on,0,0,4,,,,,,,,,0,,,34,100
47940,note_on,0,0,4,,,,,,,,,0,,,39,0
47940,note_on,60,0,4,,,,,,,,,0,,,51,0
47970,note_on,30,0,1,,,,,,,,,0,,,55,0
47970,note_on,0,0,1,,,,,,,,,0,,,58,80
48000,note_on,0,0,1,,,,,,,,,0,,,63,80
48000,note_on,30,0,1,,,,,,,,,0,,,58,0
48000,note_on,0,0,4,,,,,,,,,0,,,34,0
48000,control_change,120,0,5,,,,,,,,,0,64,127,,
48000,note_on,60,0,4,,,,,,,,,0,,,46,0
48000,note_on,0,0,4,,,,,,,,,0,,,47,100
48000,note_on,0,0,4,,,,,,,,,0,,,35,100
48030,note_on,30,0,1,,,,,,,,,0,,,63,0
48030,note_on,0,0,1,,,,,,,,,0,,,68,80
48060,note_on,30,0,1,,,,,,,,,0,,,68,0
48060,note_on,0,0,1,,,,,,,,,0,,,56,80
48090,note_on,0,0,1,,,,,,,,,0,,,59,80
48090,note_on,30,0,1,,,,,,,,,0,,,56,0
48120,note_on,30,0,1,,,,,,,,,0,,,59,0
48120,note_on,0,0,1,,,,,,,,,0,,,63,80
48120,note_on,120,0,4,,,,,,,,,0,,,47,0
48120,note_on,0,0,4,,,,,,,,,0,,,32,100
48120,note_on,0,0,4,,,,,,,,,0,,,44,100
48120,note_on,0,0,4,,,,,,,,,0,,,35,0
48150,note_on,30,0,1,,,,,,,,,0,,,63,0
48150,note_on,0,0,1,,,,,,,,,0,,,68,80
48180,note_on,60,0,4,,,,,,,,,0,,,44,0
48180,note_on,30,0,1,,,,,,,,,0,,,68,0
48180,note_on,0,0,1,,,,,,,,,0,,,56,80
48180,note_on,0,0,4,,,,,,,,,0,,,32,0
48210,note_on,30,0,1,,,,,,,,,0,,,56,0
48210,note_on,0,0,1,,,,,,,,,0,,,59,80
48240,note_on,30,0,1,,,,,,,,,0,,,59,0
48240,note_on,0,0,1,,,,,,,,,0,,,63,80
48270,note_on,30,0,1,,,,,,,,,0,,,63,0
48270,note_on,0,0,1,,,,,,,,,0,,,68,80
48300,note_on,0,0,1,,,,,,,,,0,,,71,100
48300,note_on,30,0,1,,,,,,,,,0,,,68,0
48300,note_on,0,0,1,,,,,,,,,0,,,56,80
48300,note_on,0,0,1,,,,,,,,,0,,,75,100
48330,note_on,30,0,1,,,,,,,,,0,,,56,0
48330,note_on,0,0,1,,,,,,,,,0,,,59,80
48360,note_on,0,0,1,,,,,,,,,0,,,71,100
48360,control_change,360,0,5,,,,,,,,,0,64,0,,
48360,note_on,0,0,1,,,,,,,,,0,,,75,100
48360,note_on,0,0,1,,,,,,,,,0,,,75,0
48360,note_on,0,0,1,,,,,,,,,0,,,71,0
48360,note_on,30,0,1,,,,,,,,,0,,,59,0
48360,note_on,0,0,1,,,,,,,,,0,,,63,80
48390,note_on,30,0,1,,,,,,,,,0,,,63,0
48390,note_on,0,0,1,,,,,,,,,0,,,68,80
48420,note_on,30,0,1,,,,,,,,,0,,,68,0
48420,note_on,0,0,1,,,,,,,,,0,,,71,0
48420,note_on,0,0,1,,,,,,,,,0,,,75,0
48420,note_on,0,0,1,,,,,,,,,0,,,56,80
48420,note_on,0,0,1,,,,,,,,,0,,,76,100
48420,note_on,0,0,1,,,,,,,,,0,,,71,100
48450,note_on,30,0,1,,,,,,,,,0,,,56,0
48450,note_on,0,0,1,,,,,,,,,0,,,59,80
48480,note_on,0,0,1,,,,,,,,,0,,,75,100
48480,control_change,120,0,5,,,,,,,,,0,64,127,,
48480,note_on,0,0,1,,,,,,,,,0,,,73,100
48480,note_on,0,0,1,,,,,,,,,0,,,70,100
48480,note_on,0,0,1,,,,,,,,,0,,,63,80
48480,note_on,30,0,1,,,,,,,,,0,,,59,0
48480,note_on,0,0,1,,,,,,,,,0,,,71,0
48480,note_on,0,0,1,,,,,,,,,0,,,76,0
48510,note_on,0,0,1,,,,,,,,,0,,,67,80
48510,note_on,30,0,1,,,,,,,,,0,,,63,0
48540,note_on,0,0,1,,,,,,,,,0,,,55,80
48540,note_on,30,0,1,,,,,,,,,0,,,67,0
48570,note_on,30,0,1,,,,,,,,,0,,,55,0
48570,note_on,0,0,1,,,,,,,,,0,,,58,80
48600,note_on,30,0,1,,,,,,,,,0,,,58,0
48600,note_on,0,0,1,,,,,,,,,0,,,73,0
48600,note_on,0,0,1,,,,,,,,,0,,,70,0
48600,note_on,0,0,1,,,,,,,,,0,,,63,80
48600,note_on,0,0,1,,,,,,,,,0,,,70,100
48600,note_on,0,0,1,,,,,,,,,0,,,75,0
48630,note_on,30,0,1,,,,,,,,,0,,,63,0
48630,note_on,0,0,1,,,,,,,,,0,,,67,80
48660,note_on,0,0,1,,,,,,,,,0,,,70,0
48660,note_on,0,0,1,,,,,,,,,0,,,55,80
48660,note_on,30,0,1,,,,,,,,,0,,,67,0
48690,note_on,0,0,1,,,,,,,,,0,,,58,80
48690,note_on,30,0,1,,,,,,,,,0,,,55,0
48720,note_on,0,0,1,,,,,,,,,0,,,63,80
48720,note_on,30,0,1,,,,,,,,,0,,,58,0
48750,note_on,0,0,1,,,,,,,,,0,,,67,80
48750,note_on,30,0,1,,,,,,,,,0,,,63,0
48780,note_on,0,0,1,,,,,,,,,0,,,55,80
48780,note_on,30,0,1,,,,,,,,,0,,,67,0
48780,note_on,0,0,4,,,,,,,,,0,,,51,100
48780,note_on,600,0,4,,,,,,,,,0,,,39,100
48810,note_on,0,0,1,,,,,,,,,0,,,58,80
48810,note_on,30,0,1,,,,,,,,,0,,,55,0
48810,note_on,0,0,4,,,,,,,,,0,,,39,0
48810,note_on,30,0,4,,,,,,,,,0,,,51,0
48840,note_on,0,0,4,,,,,,,,,0,,,51,100
48840,note_on,30,0,4,,,,,,,,,0,,,39,100
48840,note_on,30,0,1,,,,,,,,,0,,,58,0
48840,note_on,0,0,1,,,,,,,,,0,,,63,80
48840,control_change,360,0,5,,,,,,,,,0,64,0,,
48870,note_on,30,0,1,,,,,,,,,0,,,63,0
48870,note_on,0,0,1,,,,,,,,,0,,,67,80
48900,note_on,30,0,1,,,,,,,,,0,,,67,0
48900,note_on,0,0,1,,,,,,,,,0,,,55,80
48900,note_on,60,0,4,,,,,,,,,0,,,51,0
48900,note_on,0,0,4,,,,,,,,,0,,,46,100
48900,note_on,0,0,4,,,,,,,,,0,,,39,0
48900,note_on,0,0,4,,,,,,,,,0,,,34,100
48930,note_on,0,0,1,,,,,,,,,0,,,58,80
48930,note_on,30,0,1,,,,,,,,,0,,,55,0
48960,note_on,0,0,4,,,,,,,,,0,,,35,100
48960,note_on,0,0,4,,,,,,,,,0,,,47,100
48960,note_on,0,0,1,,,,,,,,,0,,,63,80
48960,note_on,30,0,1,,,,,,,,,0,,,58,0
48960,note_on,60,0,4,,,,,,,,,0,,,46,0
48960,control_change,120,0,5,,,,,,,,,0,64,127,,
48960,note_on,0,0,4,,,,,,,,,0,,,34,0
48990,note_on,30,0,1,,,,,,,,,0,,,63,0
48990,note_on,0,0,1,,,,,,,,,0,,,68,81
49020,note_on,0,0,1,,,,,,,,,0,,,56,82
49020,note_on,30,0,1,,,,,,,,,0,,,68,0
49050,note_on,0,0,1,,,,,,,,,0,,,59,84
49050,note_on,30,0,1,,,,,,,,,0,,,56,0
49080,note_on,30,0,1,,,,,,,,,0,,,59,0
49080,note_on,0,0,4,,,,,,,,,0,,,32,105
49080,note_on,0,0,4,,,,,,,,,0,,,35,0
49080,note_on,120,0,4,,,,,,,,,0,,,47,0
49080,note_on,0,0,1,,,,,,,,,0,,,63,85
49080,note_on,0,0,4,,,,,,,,,0,,,44,105
49110,note_on,30,0,1,,,,,,,,,0,,,63,0
49110,note_on,0,0,1,,,,,,,,,0,,,68,86
49140,note_on,0,0,4,,,,,,,,,0,,,32,0
49140,note_on,60,0,4,,,,,,,,,0,,,44,0
49140,note_on,30,0,1,,,,,,,,,0,,,68,0
49140,note_on,0,0,1,,,,,,,,,0,,,56,88
49170,note_on,30,0,1,,,,,,,,,0,,,56,0
49170,note_on,0,0,1,,,,,,,,,0,,,59,89
49200,note_on,30,0,1,,,,,,,,,0,,,59,0
49200,note_on,0,0,1,,,,,,,,,0,,,63,90
49230,note_on,30,0,1,,,,,,,,,0,,,63,0
49230,note_on,0,0,1,,,,,,,,,0,,,68,92
49260,note_on,0,0,1,,,,,,,,,0,,,75,113
49260,note_on,0,0,1,,,,,,,,,0,,,56,93
49260,note_on,30,0,1,,,,,,,,,0,,,68,0
49290,note_on,0,0,1,,,,,,,,,0,,,59,94
49290,note_on,30,0,1,,,,,,,,,0,,,56,0
49320,control_change,360,0,5,,,,,,,,,0,64,0,,
49320,note_on,30,0,1,,,,,,,,,0,,,59,0
49320,note_on,0,0,1,,,,,,,,,0,,,75,0
49320,note_on,0,0,1,,,,,,,,,0,,,63,96
49320,note_on,0,0,1,,,,,,,,,0,,,75,116
49350,note_on,30,0,1,,,,,,,,,0,,,63,0
49350,note_on,0,0,1,,,,,,,,,0,,,68,97
49380,note_on,30,0,1,,,,,,,,,0,,,68,0
49380,note_on,0,0,1,,,,,,,,,0,,,75,0
49380,note_on,0,0,1,,,,,,,,,0,,,56,99
49380,note_on,0,0,1,,,,,,,,,0,,,75,119
49410,note_on,30,0,1,,,,,,,,,0,,,56,0
49410,note_on,0,0,1,,,,,,,,,0,,,59,100
49440,note_on,0,0,1,,,,,,,,,0,,,76,120
49440,note_on,0,0,1,,,,,,,,,0,,,64,100
49440,note_on,0,0,1,,,,,,,,,0,,,75,0
49440,control_change,120,0,5,,,,,,,,,0,64,127,,
49440,note_on,30,0,1,,,,,,,,,0,,,59,0
49470,note_on,30,0,1,,,,,,,,,0,,,64,0
49470,note_on,0,0,1,,,,,,,,,0,,,68,100
49500,note_on,30,0,1,,,,,,,,,0,,,68,0
49500,note_on,0,0,1,,,,,,,,,0,,,76,0
49500,note_on,0,0,1,,,,,,,,,0,,,56,100
49530,note_on,30,0,1,,,,,,,,,0,,,56,0
49530,note_on,0,0,1,,,,,,,,,0,,,59,100
49560,note_on,420,0,4,,,,,,,,,0,,,40,120
49560,note_on,30,0,1,,,,,,,,,0,,,59,0
49560,note_on,0,0,1,,,,,,,,,0,,,64,100
49590,note_on,30,0,1,,,,,,,,,0,,,64,0
49590,note_on,0,0,1,,,,,,,,,0,,,68,100
49620,note_on,0,0,1,,,,,,,,,0,,,56,100
49620,note_on,30,0,1,,,,,,,,,0,,,68,0
49650,note_on,30,0,1,,,,,,,,,0,,,56,0
49650,note_on,0,0,1,,,,,,,,,0,,,59,100
49680,note_on,30,0,1,,,,,,,,,0,,,59,0
49680,note_on,0,0,1,,,,,,,,,0,,,64,100
49710,note_on,0,0,1,,,,,,,,,0,,,69,100
49710,note_on,30,0,1,,,,,,,,,0,,,64,0
49740,note_on,0,0,1,,,,,,,,,0,,,57,100
49740,note_on,30,0,1,,,,,,,,,0,,,69,0
49770,note_on,0,0,1,,,,,,,,,0,,,60,100
49770,note_on,30,0,1,,,,,,,,,0,,,57,0
49800,control_change,360,0,5,,,,,,,,,0,64,0,,
49800,note_on,0,0,1,,,,,,,,,0,,,64,100
49800,note_on,30,0,1,,,,,,,,,0,,,60,0
49800,note_on,0,0,1,,,,,,,,,0,,,72,120
49800,note_on,240,0,4,,,,,,,,,0,,,40,0
49830,note_on,0,0,1,,,,,,,,,0,,,69,100
49830,note_on,30,0,1,,,,,,,,,0,,,64,0
49860,note_on,30,0,1,,,,,,,,,0,,,69,0
49860,note_on,0,0,1,,,,,,,,,0,,,57,100
49890,note_on,30,0,1,,,,,,,,,0,,,57,0
49890,note_on,0,0,1,,,,,,,,,0,,,72,0
49890,note_on,0,0,1,,,,,,,,,0,,,60,100
49890,note_on,0,0,1,,,,,,,,,0,,,74,120
49920,note_on,30,0,1,,,,,,,,,0,,,74,0
49920,control_change,120,0,5,,,,,,,,,0,64,127,,
49920,note_on,0,0,1,,,,,,,,,0,,,64,100
49920,note_on,0,0,1,,,,,,,,,0,,,76,120
49920,note_on,0,0,1,,,,,,,,,0,,,60,0
49950,note_on,0,0,1,,,,,,,,,0,,,68,100
49950,note_on,30,0,1,,,,,,,,,0,,,64,0
49980,note_on,0,0,1,,,,,,,,,0,,,76,0
49980,note_on,0,0,1,,,,,,,,,0,,,56,100
49980,note_on,30,0,1,,,,,,,,,0,,,68,0
50010,note_on,0,0,1,,,,,,,,,0,,,59,100
50010,note_on,30,0,1,,,,,,,,,0,,,56,0
50040,note_on,30,0,1,,,,,,,,,0,,,59,0
50040,note_on,240,0,4,,,,,,,,,0,,,40,120
50040,note_on,0,0,1,,,,,,,,,0,,,64,100
50070,note_on,30,0,1,,,,,,,,,0,,,64,0
50070,note_on,0,0,1,,,,,,,,,0,,,68,100
50100,note_on,30,0,1,,,,,,,,,0,,,68,0
50100,note_on,0,0,1,,,,,,,,,0,,,56,100
50130,note_on,30,0,1,,,,,,,,,0,,,56,0
50130,note_on,0,0,1,,,,,,,,,0,,,59,100
50160,note_on,0,0,1,,,,,,,,,0,,,64,100
50160,note_on,30,0,1,,,,,,,,,0,,,59,0
50190,note_on,0,0,1,,,,,,,,,0,,,69,100
50190,note_on,30,0,1,,,,,,,,,0,,,64,0
50220,note_on,0,0,1,,,,,,,,,0,,,57,100
50220,note_on,30,0,1,,,,,,,,,0,,,69,0
50250,note_on,0,0,1,,,,,,,,,0,,,60,100
50250,note_on,30,0,1,,,,,,,,,0,,,57,0
50280,control_change,360,0,5,,,,,,,,,0,64,0,,
50280,note_on,0,0,1,,,,,,,,,0,,,72,120
50280,note_on,0,0,1,,,,,,,,,0,,,64,100
50280,note_on,30,0,1,,,,,,,,,0,,,60,0
50280,note_on,240,0,4,,,,,,,,,0,,,40,0
50310,note_on,30,0,1,,,,,,,,,0,,,64,0
50310,note_on,0,0,1,,,,,,,,,0,,,69,100
50340,note_on,30,0,1,,,,,,,,,0,,,69,0
50340,note_on,0,0,1,,,,,,,,,0,,,57,100
50370,note_on,0,0,1,,,,,,,,,0,,,72,0
50370,note_on,30,0,1,,,,,,,,,0,,,57,0
50370,note_on,0,0,1,,,,,,,,,0,,,60,100
50370,note_on,0,0,1,,,,,,,,,0,,,74,120
50400,note_on,0,0,1,,,,,,,,,0,,,76,120
50400,control_change,120,0,5,,,,,,,,,0,64,127,,
50400,note_on,30,0,1,,,,,,,,,0,,,74,0
50400,note_on,0,0,1,,,,,,,,,0,,,60,0
50400,note_on,0,0,1,,,,,,,,,0,,,64,100
50430,note_on,30,0,1,,,,,,,,,0,,,64,0
50430,note_on,0,0,1,,,,,,,,,0,,,68,98
50460,note_on,0,0,1,,,,,,,,,0,,,76,0
50460,note_on,30,0,1,,,,,,,,,0,,,68,0
50460,note_on,0,0,1,,,,,,,,,0,,,56,95
50490,note_on,0,0,1,,,,,,,,,0,,,59,92
50490,note_on,30,0,1,,,,,,,,,0,,,56,0
50520,note_on,30,0,1,,,,,,,,,0,,,59,0
50520,note_on,240,0,4,,,,,,,,,0,,,40,110
50520,note_on,0,0,1,,,,,,,,,0,,,64,90
50550,note_on,30,0,1,,,,,,,,,0,,,64,0
50550,note_on,0,0,1,,,,,,,,,0,,,68,87
50580,note_on,0,0,1,,,,,,,,,0,,,56,84
50580,note_on,30,0,1,,,,,,,,,0,,,68,0
50610,note_on,0,0,1,,,,,,,,,0,,,59,81
50610,note_on,30,0,1,,,,,,,,,0,,,56,0
50640,note_on,30,0,1,,,,,,,,,0,,,59,0
50640,note_on,0,0,1,,,,,,,,,0,,,64,79
50670,note_on,0,0,1,,,,,,,,,0,,,68,76
50670,note_on,30,0,1,,,,,,,,,0,,,64,0
50700,note_on,0,0,1,,,,,,,,,0,,,56,73
50700,note_on,30,0,1,,,,,,,,,0,,,68,0
50730,note_on,30,0,1,,,,,,,,,0,,,56,0
50730,note_on,0,0,1,,,,,,,,,0,,,59,71
50760,note_on,0,0,1,,,,,,,,,0,,,63,68
50760,note_on,0,0,4,,,,,,,,,0,,,39,88
50760,note_on,240,0,4,,,,,,,,,0,,,40,0
50760,control_change,360,0,5,,,,,,,,,0,64,0,,
50760,note_on,30,0,1,,,,,,,,,0,,,59,0
50790,note_on,0,0,1,,,,,,,,,0,,,68,65
50790,note_on,30,0,1,,,,,,,,,0,,,63,0
50820,note_on,30,0,1,,,,,,,,,0,,,68,0
50820,note_on,0,0,1,,,,,,,,,0,,,56,62
50850,note_on,30,0,1,,,,,,,,,0,,,56,0
50850,note_on,0,0,1,,,,,,,,,0,,,59,60
50880,note_on,120,0,4,,,,,,,,,0,,,39,0
50880,note_on,30,0,1,,,,,,,,,0,,,59,0
50880,note_on,0,0,1,,,,,,,,,0,,,65,60
50880,control_change,120,0,5,,,,,,,,,0,64,127,,
50880,note_on,0,0,4,,,,,,,,,0,,,38,80
50910,note_on,30,0,1,,,,,,,,,0,,,65,0
50910,note_on,0,0,1,,,,,,,,,0,,,68,60
50940,note_on,60,0,4,,,,,,,,,0,,,38,0
50940,note_on,30,0,1,,,,,,,,,0,,,68,0
50940,note_on,0,0,1,,,,,,,,,0,,,56,59
50970,note_on,0,0,1,,,,,,,,,0,,,58,59
50970,note_on,30,0,1,,,,,,,,,0,,,56,0
51000,note_on,0,0,1,,,,,,,,,0,,,65,58
51000,note_on,0,0,1,,,,,,,,,0,,,77,78
51000,note_on,30,0,1,,,,,,,,,0,,,58,0
51030,note_on,30,0,1,,,,,,,,,0,,,65,0
51030,note_on,0,0,1,,,,,,,,,0,,,68,57
51060,note_on,30,0,1,,,,,,,,,0,,,68,0
51060,note_on,0,0,1,,,,,,,,,0,,,56,57
51090,note_on,30,0,1,,,,,,,,,0,,,56,0
51090,note_on,0,0,1,,,,,,,,,0,,,58,56
51120,note_on,30,0,1,,,,,,,,,0,,,58,0
51120,note_on,0,0,1,,,,,,,,,0,,,65,55
51150,note_on,0,0,1,,,,,,,,,0,,,68,55
51150,note_on,30,0,1,,,,,,,,,0,,,65,0
51180,note_on,0,0,1,,,,,,,,,0,,,56,54
51180,note_on,0,0,1,,,,,,,,,0,,,77,0
51180,note_on,0,0,1,,,,,,,,,0,,,77,74
51180,note_on,30,0,1,,,,,,,,,0,,,68,0
51210,note_on,30,0,1,,,,,,,,,0,,,56,0
51210,note_on,0,0,1,,,,,,,,,0,,,58,53
51240,control_change,360,0,5,,,,,,,,,0,64,0,,
51240,note_on,0,0,1,,,,,,,,,0,,,79,73
51240,note_on,0,0,1,,,,,,,,,0,,,65,53
51240,note_on,0,0,1,,,,,,,,,0,,,77,0
51240,note_on,30,0,1,,,,,,,,,0,,,58,0
51270,note_on,30,0,1,,,,,,,,,0,,,65,0
51270,note_on,0,0,1,,,,,,,,,0,,,68,52
51300,note_on,30,0,1,,,,,,,,,0,,,68,0
51300,note_on,0,0,1,,,,,,,,,0,,,79,0
51300,note_on,0,0,1,,,,,,,,,0,,,56,51
51300,note_on,0,0,1,,,,,,,,,0,,,80,71
51330,note_on,30,0,1,,,,,,,,,0,,,56,0
51330,note_on,0,0,1,,,,,,,,,0,,,58,51
51360,note_on,0,0,1,,,,,,,,,0,,,80,0
51360,note_on,30,0,1,,,,,,,,,0,,,58,0
51360,note_on,0,0,1,,,,,,,,,0,,,63,50
51360,control_change,120,0,5,,,,,,,,,0,64,127,,
51360,note_on,0,0,1,,,,,,,,,0,,,79,70
51390,note_on,30,0,1,,,,,,,,,0,,,63,0
51390,note_on,0,0,1,,,,,,,,,0,,,67,49
51420,note_on,30,0,1,,,,,,,,,0,,,67,0
51420,note_on,0,0,1,,,,,,,,,0,,,79,0
51420,note_on,0,0,1,,,,,,,,,0,,,55,49
51450,note_on,0,0,1,,,,,,,,,0,,,58,48
51450,note_on,30,0,1,,,,,,,,,0,,,55,0
51480,note_on,540,0,4,,,,,,,,,0,,,39,67
51480,note_on,30,0,1,,,,,,,,,0,,,58,0
51480,note_on,0,0,1,,,,,,,,,0,,,63,47
51510,note_on,30,0,1,,,,,,,,,0,,,63,0
51510,note_on,0,0,1,,,,,,,,,0,,,67,47
51540,note_on,30,0,1,,,,,,,,,0,,,67,0
51540,note_on,0,0,1,,,,,,,,,0,,,55,46
51570,note_on,30,0,1,,,,,,,,,0,,,55,0
51570,note_on,0,0,1,,,,,,,,,0,,,58,45
51600,note_on,30,0,1,,,,,,,,,0,,,58,0
51600,note_on,120,0,4,,,,,,,,,0,,,39,0
51600,note_on,0,0,1,,,,,,,,,0,,,63,45
51630,note_on,30,0,1,,,,,,,,,0,,,63,0
51630,note_on,0,0,1,,,,,,,,,0,,,67,44
51660,note_on,0,0,1,,,,,,,,,0,,,55,43
51660,note_on,0,0,1,,,,,,,,,0,,,77,63
51660,note_on,30,0,1,,,,,,,,,0,,,67,0
51690,note_on,0,0,1,,,,,,,,,0,,,58,43
51690,note_on,30,0,1,,,,,,,,,0,,,55,0
51720,control_change,360,0,5,,,,,,,,,0,64,0,,
51720,note_on,30,0,1,,,,,,,,,0,,,58,0
51720,note_on,0,0,1,,,,,,,,,0,,,77,0
51720,note_on,0,0,1,,,,,,,,,0,,,75,62
51720,note_on,0,0,1,,,,,,,,,0,,,63,42
51750,note_on,30,0,1,,,,,,,,,0,,,63,0
51750,note_on,0,0,1,,,,,,,,,0,,,67,41
51780,note_on,0,0,1,,,,,,,,,0,,,55,41
51780,note_on,0,0,1,,,,,,,,,0,,,75,0
51780,note_on,0,0,1,,,,,,,,,0,,,74,61
51780,note_on,30,0,1,,,,,,,,,0,,,67,0
51810,note_on,0,0,1,,,,,,,,,0,,,58,40
51810,note_on,30,0,1,,,,,,,,,0,,,55,0
51840,control_change,120,0,5,,,,,,,,,0,64,127,,
51840,note_on,0,0,1,,,,,,,,,0,,,72,60
51840,note_on,0,0,1,,,,,,,,,0,,,63,40
51840,note_on,0,0,1,,,,,,,,,0,,,74,0
51840,note_on,30,0,1,,,,,,,,,0,,,58,0
51870,note_on,0,0,1,,,,,,,,,0,,,68,40
51870,note_on,30,0,1,,,,,,,,,0,,,63,0
51900,note_on,0,0,1,,,,,,,,,0,,,56,40
51900,note_on,0,0,1,,,,,,,,,0,,,72,0
51900,note_on,30,0,1,,,,,,,,,0,,,68,0
51930,note_on,30,0,1,,,,,,,,,0,,,56,0
51930,note_on,0,0,1,,,,,,,,,0,,,60,40
51960,note_on,0,0,1,,,,,,,,,0,,,63,40
51960,note_on,360,0,4,,,,,,,,,0,,,44,60
51960,note_on,30,0,1,,,,,,,,,0,,,60,0
51990,note_on,0,0,1,,,,,,,,,0,,,68,40
51990,note_on,30,0,1,,,,,,,,,0,,,63,0
52020,note_on,0,0,1,,,,,,,,,0,,,56,40
52020,note_on,30,0,1,,,,,,,,,0,,,68,0
52050,note_on,0,0,1,,,,,,,,,0,,,60,40
52050,note_on,30,0,1,,,,,,,,,0,,,56,0
52080,note_on,0,0,1,,,,,,,,,0,,,65,40
52080,note_on,30,0,1,,,,,,,,,0,,,60,0
52080,note_on,0,0,4,,,,,,,,,0,,,41,60
52080,note_on,120,0,4,,,,,,,,,0,,,44,0
52110,note_on,0,0,1,,,,,,,,,0,,,68,40
52110,note_on,30,0,1,,,,,,,,,0,,,65,0
52140,note_on,0,0,1,,,,,,,,,0,,,56,40
52140,note_on,30,0,1,,,,,,,,,0,,,68,0
52140,note_on,60,0,4,,,,,,,,,0,,,41,0
52170,note_on,0,0,1,,,,,,,,,0,,,60,40
52170,note_on,30,0,1,,,,,,,,,0,,,56,0
52200,note_on,0,0,1,,,,,,,,,0,,,65,40
52200,note_on,30,0,1,,,,,,,,,0,,,60,0
52200,control_change,360,0,5,,,,,,,,,0,64,0,,
52200,note_on,0,0,1,,,,,,,,,0,,,72,60
52230,note_on,0,0,1,,,,,,,,,0,,,68,40
52230,note_on,30,0,1,,,,,,,,,0,,,65,0
52260,note_on,0,0,1,,,,,,,,,0,,,56,40
52260,note_on,30,0,1,,,,,,,,,0,,,68,0
52290,note_on,0,0,1,,,,,,,,,0,,,60,40
52290,note_on,30,0,1,,,,,,,,,0,,,56,0
52320,note_on,0,0,1,,,,,,,,,0,,,65,40
52320,note_on,0,0,1,,,,,,,,,0,,,72,0
52320,note_on,30,0,1,,,,,,,,,0,,,60,0
52320,control_change,120,0,5,,,,,,,,,0,64,127,,
52320,note_on,0,0,1,,,,,,,,,0,,,74,60
52350,note_on,30,0,1,,,,,,,,,0,,,65,0
52350,note_on,0,0,1,,,,,,,,,0,,,68,40
52380,note_on,30,0,1,,,,,,,,,0,,,68,0
52380,note_on,0,0,1,,,,,,,,,0,,,74,0
52380,note_on,0,0,1,,,,,,,,,0,,,56,40
52410,note_on,30,0,1,,,,,,,,,0,,,56,0
52410,note_on,0,0,1,,,,,,,,,0,,,62,40
52440,note_on,0,0,1,,,,,,,,,0,,,65,40
52440,note_on,300,0,4,,,,,,,,,0,,,46,60
52440,note_on,30,0,1,,,,,,,,,0,,,62,0
52470,note_on,30,0,1,,,,,,,,,0,,,65,0
52470,note_on,0,0,1,,,,,,,,,0,,,68,40
52500,note_on,0,0,1,,,,,,,,,0,,,56,40
52500,note_on,30,0,1,,,,,,,,,0,,,68,0
52530,note_on,0,0,1,,,,,,,,,0,,,62,40
52530,note_on,30,0,1,,,,,,,,,0,,,56,0
52560,note_on,0,0,1,,,,,,,,,0,,,65,40
52560,note_on,30,0,1,,,,,,,,,0,,,62,0
52560,note_on,120,0,4,,,,,,,,,0,,,46,0
52560,note_on,0,0,4,,,,,,,,,0,,,47,60
52590,note_on,30,0,1,,,,,,,,,0,,,65,0
52590,note_on,0,0,1,,,,,,,,,0,,,68,40
52620,note_on,30,0,1,,,,,,,,,0,,,68,0
52620,note_on,0,0,1,,,,,,,,,0,,,56,40
52650,note_on,0,0,1,,,,,,,,,0,,,62,40
52650,note_on,30,0,1,,,,,,,,,0,,,56,0
52680,note_on,30,0,1,,,,,,,,,0,,,62,0
52680,note_on,0,0,1,,,,,,,,,0,,,65,40
52680,control_change,360,0,5,,,,,,,,,0,64,0,,
52680,note_on,120,0,4,,,,,,,,,0,,,47,0
52680,note_on,0,0,4,,,,,,,,,0,,,46,60
52710,note_on,30,0,1,,,,,,,,,0,,,65,0
52710,note_on,0,0,1,,,,,,,,,0,,,68,40
52740,note_on,30,0,1,,,,,,,,,0,,,68,0
52740,note_on,0,0,1,,,,,,,,,0,,,56,40
52770,note_on,0,0,1,,,,,,,,,0,,,62,40
52770,note_on,30,0,1,,,,,,,,,0,,,56,0
52800,note_on,120,0,4,,,,,,,,,0,,,46,0
52800,control_change,120,0,5,,,,,,,,,0,64,127,,
52800,note_on,0,0,1,,,,,,,,,0,,,75,60
52800,note_on,0,0,1,,,,,,,,,0,,,63,40
52800,note_on,30,0,1,,,,,,,,,0,,,62,0
52830,note_on,0,0,1,,,,,,,,,0,,,67,40
52830,note_on,30,0,1,,,,,,,,,0,,,63,0
52860,note_on,30,0,1,,,,,,,,,0,,,67,0
52860,note_on,0,0,1,,,,,,,,,0,,,55,40
52890,note_on,30,0,1,,,,,,,,,0,,,55,0
52890,note_on,0,0,1,,,,,,,,,0,,,58,40
52920,note_on,30,0,1,,,,,,,,,0,,,58,0
52920,note_on,0,0,1,,,,,,,,,0,,,75,0
52920,note_on,0,0,1,,,,,,,,,0,,,63,40
52950,note_on,30,0,1,,,,,,,,,0,,,63,0
52950,note_on,0,0,1,,,,,,,,,0,,,67,40
52980,note_on,30,0,1,,,,,,,,,0,,,67,0
52980,note_on,0,0,1,,,,,,,,,0,,,55,40
53010,note_on,30,0,1,,,,,,,,,0,,,55,0
53010,note_on,0,0,1,,,,,,,,,0,,,58,40
53040,note_on,30,0,1,,,,,,,,,0,,,58,0
53040,note_on,0,0,1,,,,,,,,,0,,,63,40
53040,note_on,240,0,4,,,,,,,,,0,,,39,60
53070,note_on,30,0,1,,,,,,,,,0,,,63,0
53070,note_on,0,0,1,,,,,,,,,0,,,67,40
53100,note_on,0,0,1,,,,,,,,,0,,,55,40
53100,note_on,30,0,1,,,,,,,,,0,,,67,0
53130,note_on,30,0,1,,,,,,,,,0,,,55,0
53130,note_on,0,0,1,,,,,,,,,0,,,58,40
53160,note_on,30,0,1,,,,,,,,,0,,,58,0
53160,note_on,0,0,1,,,,,,,,,0,,,63,40
53160,control_change,360,0,5,,,,,,,,,0,64,0,,
53190,note_on,30,0,1,,,,,,,,,0,,,63,0
53190,note_on,0,0,1,,,,,,,,,0,,,67,40
53220,note_on,30,0,1,,,,,,,,,0,,,67,0
53220,note_on,0,0,1,,,,,,,,,0,,,55,40
53250,note_on,30,0,1,,,,,,,,,0,,,55,0
53250,note_on,0,0,1,,,,,,,,,0,,,58,40
53280,note_on,240,0,4,,,,,,,,,0,,,39,0
53280,control_change,120,0,5,,,,,,,,,0,64,127,,
53280,note_on,0,0,4,,,,,,,,,0,,,41,60
53280,note_on,30,0,1,,,,,,,,,0,,,58,0
53280,note_on,0,0,1,,,,,,,,,0,,,62,40
53310,note_on,0,0,1,,,,,,,,,0,,,68,40
53310,note_on,30,0,1,,,,,,,,,0,,,62,0
53340,note_on,0,0,1,,,,,,,,,0,,,56,40
53340,note_on,30,0,1,,,,,,,,,0,,,68,0
53370,note_on,30,0,1,,,,,,,,,0,,,56,0
53370,note_on,0,0,1,,,,,,,,,0,,,58,40
53400,note_on,0,0,1,,,,,,,,,0,,,62,40
53400,note_on,30,0,1,,,,,,,,,0,,,58,0
53430,note_on,30,0,1,,,,,,,,,0,,,62,0
53430,note_on,0,0,1,,,,,,,,,0,,,68,40
53460,note_on,30,0,1,,,,,,,,,0,,,68,0
53460,note_on,0,0,1,,,,,,,,,0,,,56,40
53490,note_on,30,0,1,,,,,,,,,0,,,56,0
53490,note_on,0,0,1,,,,,,,,,0,,,58,40
53520,note_on,0,0,4,,,,,,,,,0,,,43,60
53520,note_on,0,0,4,,,,,,,,,0,,,61,40
53520,note_on,240,0,4,,,,,,,,,0,,,41,0
53520,note_on,30,0,1,,,,,,,,,0,,,58,0
53550,note_on,0,0,4,,,,,,,,,0,,,63,40
53550,note_on,30,0,4,,,,,,,,,0,,,61,0
53580,note_on,0,0,4,,,,,,,,,0,,,51,40
53580,note_on,30,0,4,,,,,,,,,0,,,63,0
53610,note_on,0,0,4,,,,,,,,,0,,,58,40
53610,note_on,30,0,4,,,,,,,,,0,,,51,0
53640,control_change,360,0,5,,,,,,,,,0,64,0,,
53640,note_on,0,0,4,,,,,,,,,0,,,61,40
53640,note_on,30,0,4,,,,,,,,,0,,,58,0
53670,note_on,30,0,4,,,,,,,,,0,,,61,0
53670,note_on,0,0,4,,,,,,,,,0,,,63,40
53700,note_on,30,0,4,,,,,,,,,0,,,63,0
53700,note_on,0,0,4,,,,,,,,,0,,,51,40
53730,note_on,30,0,4,,,,,,,,,0,,,51,0
53730,note_on,0,0,4,,,,,,,,,0,,,58,40
53760,note_on,0,0,4,,,,,,,,,0,,,43,0
53760,note_on,0,0,4,,,,,,,,,0,,,44,60
53760,note_on,30,0,4,,,,,,,,,0,,,58,0
53760,note_on,0,0,4,,,,,,,,,0,,,60,40
53760,control_change,120,0,5,,,,,,,,,0,64,127,,
53790,note_on,0,0,4,,,,,,,,,0,,,63,40
53790,note_on,30,0,4,,,,,,,,,0,,,60,0
53820,note_on,0,0,4,,,,,,,,,0,,,51,40
53820,note_on,30,0,4,,,,,,,,,0,,,63,0
53850,note_on,0,0,4,,,,,,,,,0,,,56,40
53850,note_on,30,0,4,,,,,,,,,0,,,51,0
53880,note_on,0,0,4,,,,,,,,,0,,,60,40
53880,note_on,0,0,4,,,,,,,,,0,,,44,0
53880,note_on,30,0,4,,,,,,,,,0,,,56,0
53910,note_on,0,0,4,,,,,,,,,0,,,63,40
53910,note_on,30,0,4,,,,,,,,,0,,,60,0
53940,note_on,0,0,4,,,,,,,,,0,,,51,40
53940,note_on,30,0,4,,,,,,,,,0,,,63,0
53970,note_on,0,0,4,,,,,,,,,0,,,56,40
53970,note_on,30,0,4,,,,,,,,,0,,,51,0
54000,note_on,30,0,4,,,,,,,,,0,,,56,0
54000,note_on,0,0,4,,,,,,,,,0,,,60,40
54030,note_on,30,0,4,,,,,,,,,0,,,60,0
54030,note_on,0,0,4,,,,,,,,,0,,,63,40
54060,note_on,0,0,4,,,,,,,,,0,,,51,40
54060,note_on,30,0,4,,,,,,,,,0,,,63,0
54090,note_on,30,0,4,,,,,,,,,0,,,51,0
54090,note_on,0,0,4,,,,,,,,,0,,,56,40
54120,note_on,30,0,4,,,,,,,,,0,,,56,0
54120,note_on,0,0,4,,,,,,,,,0,,,60,40
54120,note_on,600,0,1,,,,,,,,,0,,,68,60
54120,control_change,360,0,5,,,,,,,,,0,64,0,,
54150,note_on,30,0,4,,,,,,,,,0,,,60,0
54150,note_on,0,0,4,,,,,,,,,0,,,63,40
54180,note_on,0,0,1,,,,,,,,,0,,,70,60
54180,note_on,0,0,1,,,,,,,,,0,,,67,60
54180,note_on,60,0,1,,,,,,,,,0,,,68,0
54180,note_on,0,0,4,,,,,,,,,0,,,58,40
54180,note_on,30,0,4,,,,,,,,,0,,,63,0
54210,note_on,0,0,4,,,,,,,,,0,,,63,40
54210,note_on,30,0,4,,,,,,,,,0,,,58,0
54240,note_on,0,0,4,,,,,,,,,0,,,60,40
54240,control_change,120,0,5,,,,,,,,,0,64,127,,
54240,note_on,30,0,4,,,,,,,,,0,,,63,0
54240,note_on,0,0,1,,,,,,,,,0,,,68,60
54240,note_on,0,0,1,,,,,,,,,0,,,72,60
54240,note_on,60,0,1,,,,,,,,,0,,,67,0
54240,note_on,0,0,1,,,,,,,,,0,,,70,0
54270,note_on,30,0,4,,,,,,,,,0,,,60,0
54270,note_on,0,0,4,,,,,,,,,0,,,63,40
54300,note_on,30,0,4,,,,,,,,,0,,,63,0
54300,note_on,0,0,4,,,,,,,,,0,,,51,40
54330,note_on,30,0,4,,,,,,,,,0,,,51,0
54330,note_on,0,0,4,,,,,,,,,0,,,56,40
54360,note_on,120,0,1,,,,,,,,,0,,,68,0
54360,note_on,0,0,1,,,,,,,,,0,,,72,0
54360,note_on,30,0,4,,,,,,,,,0,,,56,0
54360,note_on,0,0,4,,,,,,,,,0,,,60,40
54390,note_on,0,0,4,,,,,,,,,0,,,63,40
54390,note_on,30,0,4,,,,,,,,,0,,,60,0
54420,note_on,30,0,4,,,,,,,,,0,,,63,0
54420,note_on,0,0,4,,,,,,,,,0,,,51,40
54450,note_on,30,0,4,,,,,,,,,0,,,51,0
54450,note_on,0,0,4,,,,,,,,,0,,,56,40
54480,note_on,30,0,4,,,,,,,,,0,,,56,0
54480,note_on,0,0,4,,,,,,,,,0,,,60,40
54510,note_on,30,0,4,,,,,,,,,0,,,60,0
54510,note_on,0,0,4,,,,,,,,,0,,,63,40
54540,note_on,0,0,4,,,,,,,,,0,,,56,40
54540,note_on,0,0,4,,,,,,,,,0,,,60,40
54540,note_on,0,0,4,,,,,,,,,0,,,48,60
54540,note_on,30,0,4,,,,,,,,,0,,,63,0
54540,note_on,0,0,4,,,,,,,,,0,,,51,60
54570,note_on,30,0,4,,,,,,,,,0,,,60,0
54570,note_on,0,0,4,,,,,,,,,0,,,56,0
54570,note_on,0,0,4,,,,,,,,,0,,,63,40
54600,note_on,30,0,4,,,,,,,,,0,,,63,0
54600,note_on,0,0,4,,,,,,,,,0,,,51,0
54600,note_on,0,0,4,,,,,,,,,0,,,48,0
54600,note_on,0,0,4,,,,,,,,,0,,,55,40
54600,note_on,0,0,4,,,,,,,,,0,,,61,40
54600,note_on,0,0,4,,,,,,,,,0,,,46,60
54600,note_on,0,0,4,,,,,,,,,0,,,51,60
54600,control_change,360,0,5,,,,,,,,,0,64,0,,
54630,note_on,0,0,4,,,,,,,,,0,,,63,40
54630,note_on,0,0,4,,,,,,,,,0,,,55,0
54630,note_on,30,0,4,,,,,,,,,0,,,61,0
54660,note_on,0,0,4,,,,,,,,,0,,,46,0
54660,note_on,0,0,4,,,,,,,,,0,,,51,0
54660,note_on,0,0,4,,,,,,,,,0,,,56,40
54660,note_on,0,0,4,,,,,,,,,0,,,60,40
54660,note_on,0,0,4,,,,,,,,,0,,,44,60
54660,note_on,0,0,4,,,,,,,,,0,,,51,60
54660,note_on,30,0,4,,,,,,,,,0,,,63,0
54690,note_on,30,0,4,,,,,,,,,0,,,60,0
54690,note_on,0,0,4,,,,,,,,,0,,,56,0
54690,note_on,0,0,4,,,,,,,,,0,,,63,40
54720,control_change,120,0,5,,,,,,,,,0,64,127,,
54720,note_on,0,0,4,,,,,,,,,0,,,51,60
54720,note_on,0,0,4,,,,,,,,,0,,,39,60
54720,note_on,0,0,4,,,,,,,,,0,,,55,40
54720,note_on,0,0,4,,,,,,,,,0,,,51,0
54720,note_on,30,0,4,,,,,,,,,0,,,63,0
54720,note_on,0,0,4,,,,,,,,,0,,,44,0
54720,note_on,0,0,4,,,,,,,,,0,,,58,40
54750,note_on,30,0,4,,,,,,,,,0,,,55,0
54750,note_on,0,0,4,,,,,,,,,0,,,58,0
54750,note_on,0,0,4,,,,,,,,,0,,,63,40
54780,note_on,30,0,4,,,,,,,,,0,,,63,0
54780,note_on,0,0,4,,,,,,,,,0,,,39,0
54780,note_on,0,0,4,,,,,,,,,0,,,51,0
54780,note_on,0,0,4,,,,,,,,,0,,,51,40
54810,note_on,30,0,4,,,,,,,,,0,,,51,0
54810,note_on,0,0,4,,,,,,,,,0,,,55,40
54840,note_on,0,0,4,,,,,,,,,0,,,58,40
54840,note_on,30,0,4,,,,,,,,,0,,,55,0
54870,note_on,0,0,4,,,,,,,,,0,,,63,40
54870,note_on,30,0,4,,,,,,,,,0,,,58,0
54900,note_on,30,0,4,,,,,,,,,0,,,63,0
54900,note_on,0,0,4,,,,,,,,,0,,,51,40
54930,note_on,30,0,4,,,,,,,,,0,,,51,0
54930,note_on,0,0,4,,,,,,,,,0,,,55,40
54960,note_on,30,0,4,,,,,,,,,0,,,55,0
54960,note_on,0,0,4,,,,,,,,,0,,,58,40
54990,note_on,30,0,4,,,,,,,,,0,,,58,0
54990,note_on,0,0,4,,,,,,,,,0,,,63,40
55020,note_on,30,0,4,,,,,,,,,0,,,63,0
55020,note_on,0,0,4,,,,,,,,,0,,,51,40
55050,note_on,30,0,4,,,,,,,,,0,,,51,0
55050,note_on,0,0,4,,,,,,,,,0,,,55,40
55080,note_on,30,0,4,,,,,,,,,0,,,55,0
55080,note_on,720,0,1,,,,,,,,,0,,,70,60
55080,note_on,0,0,1,,,,,,,,,0,,,73,60
55080,control_change,360,0,5,,,,,,,,,0,64,0,,
55080,note_on,0,0,4,,,,,,,,,0,,,58,40
55110,note_on,0,0,4,,,,,,,,,0,,,63,40
55110,note_on,30,0,4,,,,,,,,,0,,,58,0
55140,note_on,0,0,1,,,,,,,,,0,,,77,60
55140,note_on,0,0,1,,,,,,,,,0,,,70,0
55140,note_on,60,0,1,,,,,,,,,0,,,73,0
55140,note_on,30,0,4,,,,,,,,,0,,,63,0
55140,note_on,0,0,1,,,,,,,,,0,,,73,60
55140,note_on,0,0,4,,,,,,,,,0,,,61,40
55170,note_on,30,0,4,,,,,,,,,0,,,61,0
55170,note_on,0,0,4,,,,,,,,,0,,,63,40
55200,note_on,60,0,1,,,,,,,,,0,,,73,0
55200,note_on,0,0,1,,,,,,,,,0,,,77,0
55200,note_on,0,0,1,,,,,,,,,0,,,75,60
55200,note_on,0,0,1,,,,,,,,,0,,,72,60
55200,control_change,120,0,5,,,,,,,,,0,64,127,,
55200,note_on,0,0,4,,,,,,,,,0,,,60,40
55200,note_on,30,0,4,,,,,,,,,0,,,63,0
55230,note_on,0,0,4,,,,,,,,,0,,,63,40
55230,note_on,30,0,4,,,,,,,,,0,,,60,0
55260,note_on,30,0,4,,,,,,,,,0,,,63,0
55260,note_on,0,0,4,,,,,,,,,0,,,51,40
55290,note_on,30,0,4,,,,,,,,,0,,,51,0
55290,note_on,0,0,4,,,,,,,,,0,,,56,40
55320,note_on,30,0,4,,,,,,,,,0,,,56,0
55320,note_on,120,0,1,,,,,,,,,0,,,72,0
55320,note_on,0,0,4,,,,,,,,,0,,,60,40
55320,note_on,0,0,1,,,,,,,,,0,,,75,0
55350,note_on,0,0,4,,,,,,,,,0,,,63,40
55350,note_on,30,0,4,,,,,,,,,0,,,60,0
55380,note_on,0,0,4,,,,,,,,,0,,,51,40
55380,note_on,30,0,4,,,,,,,,,0,,,63,0
55410,note_on,0,0,4,,,,,,,,,0,,,56,40
55410,note_on,30,0,4,,,,,,,,,0,,,51,0
55440,note_on,0,0,4,,,,,,,,,0,,,60,40
55440,note_on,30,0,4,,,,,,,,,0,,,56,0
55470,note_on,0,0,4,,,,,,,,,0,,,63,40
55470,note_on,30,0,4,,,,,,,,,0,,,60,0
55500,note_on,0,0,4,,,,,,,,,0,,,51,40
55500,note_on,30,0,4,,,,,,,,,0,,,63,0
55530,note_on,0,0,4,,,,,,,,,0,,,56,40
55530,note_on,30,0,4,,,,,,,,,0,,,51,0
55560,note_on,0,0,4,,,,,,,,,0,,,51,60
55560,control_change,360,0,5,,,,,,,,,0,64,0,,
55560,note_on,30,0,4,,,,,,,,,0,,,56,0
55560,note_on,0,0,4,,,,,,,,,0,,,60,40
55560,note_on,0,0,4,,,,,,,,,0,,,48,60
55590,note_on,30,0,4,,,,,,,,,0,,,60,0
55590,note_on,0,0,4,,,,,,,,,0,,,63,40
55620,note_on,30,0,4,,,,,,,,,0,,,63,0
55620,note_on,0,0,4,,,,,,,,,0,,,51,0
55620,note_on,0,0,4,,,,,,,,,0,,,48,0
55620,note_on,0,0,4,,,,,,,,,0,,,55,40
55620,note_on,0,0,4,,,,,,,,,0,,,51,60
55620,note_on,0,0,4,,,,,,,,,0,,,46,60
55620,note_on,0,0,4,,,,,,,,,0,,,61,40
55650,note_on,0,0,4,,,,,,,,,0,,,55,0
55650,note_on,0,0,4,,,,,,,,,0,,,63,40
55650,note_on,30,0,4,,,,,,,,,0,,,61,0
55680,note_on,0,0,4,,,,,,,,,0,,,51,60
55680,note_on,0,0,4,,,,,,,,,0,,,44,60
55680,note_on,0,0,4,,,,,,,,,0,,,60,40
55680,note_on,0,0,4,,,,,,,,,0,,,56,40
55680,note_on,0,0,4,,,,,,,,,0,,,46,0
55680,note_on,0,0,4,,,,,,,,,0,,,51,0
55680,note_on,30,0,4,,,,,,,,,0,,,63,0
55680,control_change,120,0,5,,,,,,,,,0,64,127,,
55710,note_on,0,0,4,,,,,,,,,0,,,56,0
55710,note_on,0,0,4,,,,,,,,,0,,,63,41
55710,note_on,30,0,4,,,,,,,,,0,,,60,0
55740,note_on,30,0,4,,,,,,,,,0,,,63,0
55740,note_on,0,0,4,,,,,,,,,0,,,44,0
55740,note_on,0,0,4,,,,,,,,,0,,,51,0
55740,note_on,0,0,4,,,,,,,,,0,,,51,42
55770,note_on,0,0,4,,,,,,,,,0,,,56,43
55770,note_on,30,0,4,,,,,,,,,0,,,51,0
55800,note_on,30,0,4,,,,,,,,,0,,,56,0
55800,note_on,0,0,4,,,,,,,,,0,,,60,44
55830,note_on,30,0,4,,,,,,,,,0,,,60,0
55830,note_on,0,0,4,,,,,,,,,0,,,63,46
55860,note_on,30,0,4,,,,,,,,,0,,,63,0
55860,note_on,0,0,4,,,,,,,,,0,,,51,47
55890,note_on,0,0,4,,,,,,,,,0,,,56,48
55890,note_on,30,0,4,,,,,,,,,0,,,51,0
55920,note_on,0,0,4,,,,,,,,,0,,,60,49
55920,note_on,30,0,4,,,,,,,,,0,,,56,0
55950,note_on,0,0,4,,,,,,,,,0,,,63,51
55950,note_on,30,0,4,,,,,,,,,0,,,60,0
55980,note_on,0,0,4,,,,,,,,,0,,,51,52
55980,note_on,30,0,4,,,,,,,,,0,,,63,0
56010,note_on,0,0,4,,,,,,,,,0,,,56,53
56010,note_on,30,0,4,,,,,,,,,0,,,51,0
56040,control_change,360,0,5,,,,,,,,,0,64,0,,
56040,note_on,0,0,1,,,,,,,,,0,,,68,74
56040,note_on,0,0,4,,,,,,,,,0,,,60,54
56040,note_on,30,0,4,,,,,,,,,0,,,56,0
56040,note_on,720,0,1,,,,,,,,,0,,,72,74
56070,note_on,0,0,4,,,,,,,,,0,,,63,56
56070,note_on,30,0,4,,,,,,,,,0,,,60,0
56100,note_on,0,0,1,,,,,,,,,0,,,73,77
56100,note_on,0,0,1,,,,,,,,,0,,,70,77
56100,note_on,0,0,1,,,,,,,,,0,,,72,0
56100,note_on,0,0,4,,,,,,,,,0,,,61,57
56100,note_on,30,0,4,,,,,,,,,0,,,63,0
56100,note_on,60,0,1,,,,,,,,,0,,,68,0
56130,note_on,30,0,4,,,,,,,,,0,,,61,0
56130,note_on,0,0,4,,,,,,,,,0,,,63,58
56160,note_on,60,0,1,,,,,,,,,0,,,70,0
56160,note_on,0,0,1,,,,,,,,,0,,,72,79
56160,note_on,0,0,1,,,,,,,,,0,,,75,79
56160,note_on,0,0,1,,,,,,,,,0,,,73,0
56160,control_change,120,0,5,,,,,,,,,0,64,127,,
56160,note_on,0,0,4,,,,,,,,,0,,,60,59
56160,note_on,30,0,4,,,,,,,,,0,,,63,0
56190,note_on,30,0,4,,,,,,,,,0,,,60,0
56190,note_on,0,0,4,,,,,,,,,0,,,63,61
56220,note_on,0,0,4,,,,,,,,,0,,,51,62
56220,note_on,30,0,4,,,,,,,,,0,,,63,0
56250,note_on,30,0,4,,,,,,,,,0,,,51,0
56250,note_on,0,0,4,,,,,,,,,0,,,56,63
56280,note_on,120,0,1,,,,,,,,,0,,,72,0
56280,note_on,0,0,1,,,,,,,,,0,,,75,0
56280,note_on,30,0,4,,,,,,,,,0,,,56,0
56280,note_on,0,0,4,,,,,,,,,0,,,60,64
56310,note_on,30,0,4,,,,,,,,,0,,,60,0
56310,note_on,0,0,4,,,,,,,,,0,,,63,66
56340,note_on,30,0,4,,,,,,,,,0,,,63,0
56340,note_on,0,0,4,,,,,,,,,0,,,51,67
56370,note_on,30,0,4,,,,,,,,,0,,,51,0
56370,note_on,0,0,4,,,,,,,,,0,,,56,68
56400,note_on,30,0,4,,,,,,,,,0,,,56,0
56400,note_on,120,0,1,,,,,,,,,0,,,60,69
56430,note_on,30,0,1,,,,,,,,,0,,,60,0
56430,note_on,0,0,1,,,,,,,,,0,,,63,71
56460,note_on,0,0,4,,,,,,,,,0,,,48,92
56460,note_on,0,0,4,,,,,,,,,0,,,44,92
56460,note_on,30,0,1,,,,,,,,,0,,,63,0
56460,note_on,0,0,1,,,,,,,,,0,,,60,72
56460,note_on,60,0,4,,,,,,,,,0,,,51,92
56490,note_on,30,0,1,,,,,,,,,0,,,60,0
56490,note_on,0,0,1,,,,,,,,,0,,,63,73
56520,note_on,0,0,1,,,,,,,,,0,,,61,74
56520,note_on,30,0,1,,,,,,,,,0,,,63,0
56520,control_change,360,0,5,,,,,,,,,0,64,0,,
56520,note_on,0,0,4,,,,,,,,,0,,,51,0
56520,note_on,0,0,4,,,,,,,,,0,,,49,94
56520,note_on,0,0,4,,,,,,,,,0,,,53,94
56520,note_on,60,0,4,,,,,,,,,0,,,48,0
56550,note_on,30,0,1,,,,,,,,,0,,,61,0
56550,note_on,0,0,1,,,,,,,,,0,,,65,76
56580,note_on,0,0,4,,,,,,,,,0,,,46,97
56580,note_on,0,0,4,,,,,,,,,0,,,53,0
56580,note_on,60,0,4,,,,,,,,,0,,,49,0
56580,note_on,0,0,1,,,,,,,,,0,,,58,77
56580,note_on,0,0,4,,,,,,,,,0,,,55,97
56580,note_on,30,0,1,,,,,,,,,0,,,65,0
56610,note_on,0,0,1,,,,,,,,,0,,,67,78
56610,note_on,30,0,1,,,,,,,,,0,,,58,0
56640,note_on,0,0,1,,,,,,,,,0,,,60,80
56640,note_on,30,0,1,,,,,,,,,0,,,67,0
56640,note_on,60,0,4,,,,,,,,,0,,,55,0
56640,control_change,120,0,5,,,,,,,,,0,64,127,,
56640,note_on,0,0,4,,,,,,,,,0,,,48,100
56640,note_on,0,0,4,,,,,,,,,0,,,56,100
56640,note_on,0,0,4,,,,,,,,,0,,,46,0
56670,note_on,0,0,1,,,,,,,,,0,,,68,80
56670,note_on,30,0,1,,,,,,,,,0,,,60,0
56700,note_on,0,0,1,,,,,,,,,0,,,56,79
56700,note_on,60,0,4,,,,,,,,,0,,,48,0
56700,note_on,0,0,4,,,,,,,,,0,,,56,0
56700,note_on,0,0,4,,,,,,,,,0,,,44,0
56700,note_on,30,0,1,,,,,,,,,0,,,68,0
56730,note_on,0,0,1,,,,,,,,,0,,,60,78
56730,note_on,30,0,1,,,,,,,,,0,,,56,0
56760,note_on,0,0,1,,,,,,,,,0,,,63,77
56760,note_on,30,0,1,,,,,,,,,0,,,60,0
56790,note_on,0,0,1,,,,,,,,,0,,,68,76
56790,note_on,30,0,1,,,,,,,,,0,,,63,0
56820,note_on,0,0,1,,,,,,,,,0,,,56,75
56820,note_on,30,0,1,,,,,,,,,0,,,68,0
56850,note_on,0,0,1,,,,,,,,,0,,,60,75
56850,note_on,30,0,1,,,,,,,,,0,,,56,0
56880,note_on,30,0,1,,,,,,,,,0,,,60,0
56880,note_on,0,0,1,,,,,,,,,0,,,63,74
56910,note_on,30,0,1,,,,,,,,,0,,,63,0
56910,note_on,0,0,1,,,,,,,,,0,,,68,73
56940,note_on,30,0,1,,,,,,,,,0,,,68,0
56940,note_on,0,0,1,,,,,,,,,0,,,60,72
56940,note_on,0,0,1,,,,,,,,,0,,,80,92
56940,note_on,0,0,1,,,,,,,,,0,,,72,92
56970,note_on,30,0,1,,,,,,,,,0,,,60,0
56970,note_on,0,0,1,,,,,,,,,0,,,68,71
57000,note_on,0,0,1,,,,,,,,,0,,,72,0
57000,note_on,0,0,1,,,,,,,,,0,,,80,0
57000,note_on,0,0,1,,,,,,,,,0,,,75,90
57000,note_on,0,0,1,,,,,,,,,0,,,63,70
57000,control_change,360,0,5,,,,,,,,,0,64,0,,
57000,note_on,30,0,1,,,,,,,,,0,,,68,0
57000,note_on,0,0,1,,,,,,,,,0,,,79,90
57030,note_on,30,0,1,,,,,,,,,0,,,63,0
57030,note_on,0,0,1,,,,,,,,,0,,,67,69
57060,note_on,30,0,1,,,,,,,,,0,,,67,0
57060,note_on,0,0,1,,,,,,,,,0,,,79,0
57060,note_on,0,0,1,,,,,,,,,0,,,73,89
57060,note_on,0,0,1,,,,,,,,,0,,,75,0
57060,note_on,0,0,1,,,,,,,,,0,,,61,69
57060,note_on,0,0,1,,,,,,,,,0,,,77,89
57090,note_on,0,0,1,,,,,,,,,0,,,65,68
57090,note_on,30,0,1,,,,,,,,,0,,,61,0
57120,note_on,0,0,1,,,,,,,,,0,,,77,0
57120,control_change,120,0,5,,,,,,,,,0,64,127,,
57120,note_on,0,0,1,,,,,,,,,0,,,73,0
57120,note_on,420,0,4,,,,,,,,,0,,,60,67
57120,note_on,0,0,1,,,,,,,,,0,,,72,87
57120,note_on,0,0,1,,,,,,,,,0,,,75,87
57120,note_on,30,0,1,,,,,,,,,0,,,65,0
57150,note_on,30,0,4,,,,,,,,,0,,,60,0
57150,note_on,0,0,4,,,,,,,,,0,,,63,66
57180,note_on,30,0,4,,,,,,,,,0,,,63,0
57180,note_on,0,0,4,,,,,,,,,0,,,51,65
57210,note_on,30,0,4,,,,,,,,,0,,,51,0
57210,note_on,0,0,4,,,,,,,,,0,,,56,64
57240,note_on,120,0,1,,,,,,,,,0,,,72,0
57240,note_on,30,0,4,,,,,,,,,0,,,56,0
57240,note_on,0,0,4,,,,,,,,,0,,,60,63
57240,note_on,0,0,1,,,,,,,,,0,,,75,0
57270,note_on,30,0,4,,,,,,,,,0,,,60,0
57270,note_on,0,0,4,,,,,,,,,0,,,63,63
57300,note_on,30,0,4,,,,,,,,,0,,,63,0
57300,note_on,0,0,4,,,,,,,,,0,,,51,62
57330,note_on,30,0,4,,,,,,,,,0,,,51,0
57330,note_on,0,0,4,,,,,,,,,0,,,56,61
57360,note_on,30,0,4,,,,,,,,,0,,,56,0
57360,note_on,0,0,4,,,,,,,,,0,,,60,60
57390,note_on,0,0,4,,,,,,,,,0,,,63,59
57390,note_on,30,0,4,,,,,,,,,0,,,60,0
57420,note_on,0,0,4,,,,,,,,,0,,,48,78
57420,note_on,0,0,4,,,,,,,,,0,,,51,78
57420,note_on,30,0,4,,,,,,,,,0,,,63,0
57420,note_on,0,0,4,,,,,,,,,0,,,56,58
57420,note_on,0,0,4,,,,,,,,,0,,,60,58
57450,note_on,30,0,4,,,,,,,,,0,,,60,0
57450,note_on,0,0,4,,,,,,,,,0,,,56,0
57450,note_on,0,0,4,,,,,,,,,0,,,63,57
57480,control_change,360,0,5,,,,,,,,,0,64,0,,
57480,note_on,30,0,4,,,,,,,,,0,,,63,0
57480,note_on,0,0,4,,,,,,,,,0,,,51,0
57480,note_on,0,0,4,,,,,,,,,0,,,48,0
57480,note_on,0,0,4,,,,,,,,,0,,,55,57
57480,note_on,0,0,4,,,,,,,,,0,,,61,57
57480,note_on,0,0,4,,,,,,,,,0,,,46,77
57480,note_on,0,0,4,,,,,,,,,0,,,49,77
57510,note_on,30,0,4,,,,,,,,,0,,,61,0
57510,note_on,0,0,4,,,,,,,,,0,,,55,0
57510,note_on,0,0,4,,,,,,,,,0,,,63,56
57540,note_on,0,0,4,,,,,,,,,0,,,46,0
57540,note_on,0,0,4,,,,,,,,,0,,,49,0
57540,note_on,0,0,4,,,,,,,,,0,,,46,75
57540,note_on,0,0,4,,,,,,,,,0,,,55,55
57540,note_on,0,0,4,,,,,,,,,0,,,58,55
57540,note_on,30,0,4,,,,,,,,,0,,,63,0
57540,note_on,0,0,4,,,,,,,,,0,,,39,75
57570,note_on,30,0,4,,,,,,,,,0,,,58,0
57570,note_on,0,0,4,,,,,,,,,0,,,55,0
57570,note_on,0,0,4,,,,,,,,,0,,,63,54
57600,control_change,120,0,5,,,,,,,,,0,64,127,,
57600,note_on,0,0,4,,,,,,,,,0,,,48,73
57600,note_on,0,0,4,,,,,,,,,0,,,44,73
57600,note_on,0,0,4,,,,,,,,,0,,,60,53
57600,note_on,0,0,4,,,,,,,,,0,,,39,0
57600,note_on,30,0,4,,,,,,,,,0,,,63,0
57600,note_on,0,0,4,,,,,,,,,0,,,56,53
57600,note_on,0,0,4,,,,,,,,,0,,,46,0
57630,note_on,30,0,4,,,,,,,,,0,,,60,0
57630,note_on,0,0,4,,,,,,,,,0,,,56,0
57630,note_on,0,0,4,,,,,,,,,0,,,63,52
57660,note_on,0,0,4,,,,,,,,,0,,,51,51
57660,note_on,30,0,4,,,,,,,,,0,,,63,0
57660,note_on,0,0,4,,,,,,,,,0,,,44,0
57660,note_on,0,0,4,,,,,,,,,0,,,48,0
57690,note_on,30,0,4,,,,,,,,,0,,,51,0
57690,note_on,0,0,4,,,,,,,,,0,,,56,51
57720,note_on,0,0,4,,,,,,,,,0,,,60,50
57720,note_on,30,0,4,,,,,,,,,0,,,56,0
57750,note_on,30,0,4,,,,,,,,,0,,,60,0
57750,note_on,0,0,4,,,,,,,,,0,,,63,49
57780,note_on,30,0,4,,,,,,,,,0,,,63,0
57780,note_on,0,0,4,,,,,,,,,0,,,51,48
57810,note_on,30,0,4,,,,,,,,,0,,,51,0
57810,note_on,0,0,4,,,,,,,,,0,,,56,47
57840,note_on,30,0,4,,,,,,,,,0,,,56,0
57840,note_on,0,0,4,,,,,,,,,0,,,60,46
57870,note_on,30,0,4,,,,,,,,,0,,,60,0
57870,note_on,0,0,4,,,,,,,,,0,,,63,45
57900,note_on,30,0,4,,,,,,,,,0,,,63,0
57900,note_on,0,0,4,,,,,,,,,0,,,51,45
57930,note_on,30,0,4,,,,,,,,,0,,,51,0
57930,note_on,0,0,4,,,,,,,,,0,,,56,44
57960,control_change,360,0,5,,,,,,,,,0,64,0,,
57960,note_on,30,0,4,,,,,,,,,0,,,56,0
57960,note_on,0,0,4,,,,,,,,,0,,,60,43
57960,note_on,0,0,1,,,,,,,,,0,,,68,63
57960,note_on,720,0,1,,,,,,,,,0,,,72,63
57990,note_on,30,0,4,,,,,,,,,0,,,60,0
57990,note_on,0,0,4,,,,,,,,,0,,,63,42
58020,note_on,60,0,1,,,,,,,,,0,,,68,0
58020,note_on,30,0,4,,,,,,,,,0,,,63,0
58020,note_on,0,0,1,,,,,,,,,0,,,73,61
58020,note_on,0,0,1,,,,,,,,,0,,,72,0
58020,note_on,0,0,4,,,,,,,,,0,,,61,41
58020,note_on,0,0,1,,,,,,,,,0,,,70,61
58050,note_on,30,0,4,,,,,,,,,0,,,61,0
58050,note_on,0,0,4,,,,,,,,,0,,,63,40
58080,note_on,30,0,4,,,,,,,,,0,,,63,0
58080,note_on,0,0,4,,,,,,,,,0,,,60,40
58080,control_change,120,0,5,,,,,,,,,0,64,127,,
58080,note_on,60,0,1,,,,,,,,,0,,,70,0
58080,note_on,0,0,1,,,,,,,,,0,,,73,0
58080,note_on,0,0,1,,,,,,,,,0,,,75,60
58080,note_on,0,0,1,,,,,,,,,0,,,72,60
58110,note_on,30,0,4,,,,,,,,,0,,,60,0
58110,note_on,0,0,4,,,,,,,,,0,,,63,40
58140,note_on,30,0,4,,,,,,,,,0,,,63,0
58140,note_on,0,0,4,,,,,,,,,0,,,51,40
58170,note_on,30,0,4,,,,,,,,,0,,,51,0
58170,note_on,0,0,4,,,,,,,,,0,,,56,40
58200,note_on,120,0,1,,,,,,,,,0,,,72,0
58200,note_on,0,0,1,,,,,,,,,0,,,75,0
58200,note_on,0,0,4,,,,,,,,,0,,,60,40
58200,note_on,30,0,4,,,,,,,,,0,,,56,0
58230,note_on,0,0,4,,,,,,,,,0,,,63,40
58230,note_on,30,0,4,,,,,,,,,0,,,60,0
58260,note_on,30,0,4,,,,,,,,,0,,,63,0
58260,note_on,0,0,4,,,,,,,,,0,,,51,40
58290,note_on,30,0,4,,,,,,,,,0,,,51,0
58290,note_on,0,0,4,,,,,,,,,0,,,56,40
58320,note_on,120,0,1,,,,,,,,,0,,,60,40
58320,note_on,30,0,4,,,,,,,,,0,,,56,0
58350,note_on,30,0,1,,,,,,,,,0,,,60,0
58350,note_on,0,0,1,,,,,,,,,0,,,63,40
58380,note_on,30,0,1,,,,,,,,,0,,,63,0
58380,note_on,0,0,1,,,,,,,,,0,,,60,40
58380,note_on,60,0,4,,,,,,,,,0,,,51,60
58380,note_on,0,0,4,,,,,,,,,0,,,48,60
58380,note_on,0,0,4,,,,,,,,,0,,,44,60
58410,note_on,30,0,1,,,,,,,,,0,,,60,0
58410,note_on,0,0,1,,,,,,,,,0,,,63,40
58440,note_on,0,0,4,,,,,,,,,0,,,49,60
58440,control_change,360,0,5,,,,,,,,,0,64,0,,
58440,note_on,60,0,4,,,,,,,,,0,,,48,0
58440,note_on,0,0,4,,,,,,,,,0,,,51,0
58440,note_on,0,0,1,,,,,,,,,0,,,61,40
58440,note_on,30,0,1,,,,,,,,,0,,,63,0
58440,note_on,0,0,4,,,,,,,,,0,,,53,60
58470,note_on,0,0,1,,,,,,,,,0,,,65,40
58470,note_on,30,0,1,,,,,,,,,0,,,61,0
58500,note_on,60,0,4,,,,,,,,,0,,,49,0
58500,note_on,0,0,4,,,,,,,,,0,,,53,0
58500,note_on,0,0,4,,,,,,,,,0,,,46,60
58500,note_on,0,0,4,,,,,,,,,0,,,55,60
58500,note_on,30,0,1,,,,,,,,,0,,,65,0
58500,note_on,0,0,1,,,,,,,,,0,,,58,40
58530,note_on,30,0,1,,,,,,,,,0,,,58,0
58530,note_on,0,0,1,,,,,,,,,0,,,67,40
58560,note_on,0,0,1,,,,,,,,,0,,,60,40
58560,control_change,120,0,5,,,,,,,,,0,64,127,,
58560,note_on,0,0,4,,,,,,,,,0,,,48,60
58560,note_on,0,0,4,,,,,,,,,0,,,56,60
58560,note_on,0,0,4,,,,,,,,,0,,,46,0
58560,note_on,60,0,4,,,,,,,,,0,,,55,0
58560,note_on,30,0,1,,,,,,,,,0,,,67,0
58590,note_on,30,0,1,,,,,,,,,0,,,60,0
58590,note_on,0,0,1,,,,,,,,,0,,,68,40
58620,note_on,60,0,4,,,,,,,,,0,,,48,0
58620,note_on,0,0,4,,,,,,,,,0,,,44,0
58620,note_on,0,0,4,,,,,,,,,0,,,56,0
58620,note_on,0,0,1,,,,,,,,,0,,,56,40
58620,note_on,30,0,1,,,,,,,,,0,,,68,0
58650,note_on,0,0,1,,,,,,,,,0,,,60,40
58650,note_on,30,0,1,,,,,,,,,0,,,56,0
58680,note_on,30,0,1,,,,,,,,,0,,,60,0
58680,note_on,0,0,1,,,,,,,,,0,,,63,40
58710,note_on,30,0,1,,,,,,,,,0,,,63,0
58710,note_on,0,0,1,,,,,,,,,0,,,68,40
58740,note_on,30,0,1,,,,,,,,,0,,,68,0
58740,note_on,0,0,1,,,,,,,,,0,,,56,40
58770,note_on,30,0,1,,,,,,,,,0,,,56,0
58770,note_on,0,0,1,,,,,,,,,0,,,60,40
58800,note_on,30,0,1,,,,,,,,,0,,,60,0
58800,note_on,0,0,1,,,,,,,,,0,,,63,40
58830,note_on,30,0,1,,,,,,,,,0,,,63,0
58830,note_on,0,0,1,,,,,,,,,0,,,68,40
58860,note_on,0,0,1,,,,,,,,,0,,,72,60
58860,note_on,0,0,1,,,,,,,,,0,,,80,60
58860,note_on,0,0,1,,,,,,,,,0,,,60,40
58860,note_on,30,0,1,,,,,,,,,0,,,68,0
58890,note_on,0,0,1,,,,,,,,,0,,,68,40
58890,note_on,30,0,1,,,,,,,,,0,,,60,0
58920,note_on,30,0,1,,,,,,,,,0,,,68,0
58920,note_on,0,0,1,,,,,,,,,0,,,72,0
58920,note_on,0,0,1,,,,,,,,,0,,,80,0
58920,note_on,0,0,1,,,,,,,,,0,,,63,40
58920,note_on,0,0,1,,,,,,,,,0,,,75,60
58920,note_on,0,0,1,,,,,,,,,0,,,79,60
58920,control_change,360,0,5,,,,,,,,,0,64,0,,
58950,note_on,30,0,1,,,,,,,,,0,,,63,0
58950,note_on,0,0,1,,,,,,,,,0,,,67,40
58980,note_on,30,0,1,,,,,,,,,0,,,67,0
58980,note_on,0,0,1,,,,,,,,,0,,,79,0
58980,note_on,0,0,1,,,,,,,,,0,,,61,40
58980,note_on,0,0,1,,,,,,,,,0,,,73,60
58980,note_on,0,0,1,,,,,,,,,0,,,77,60
58980,note_on,0,0,1,,,,,,,,,0,,,75,0
59010,note_on,30,0,1,,,,,,,,,0,,,61,0
59010,note_on,0,0,1,,,,,,,,,0,,,65,40
59040,note_on,0,0,1,,,,,,,,,0,,,77,0
59040,note_on,0,0,1,,,,,,,,,0,,,73,0
59040,note_on,0,0,1,,,,,,,,,0,,,75,60
59040,note_on,0,0,1,,,,,,,,,0,,,72,60
59040,note_on,420,0,4,,,,,,,,,0,,,60,40
59040,control_change,120,0,5,,,,,,,,,0,64,127,,
59040,note_on,30,0,1,,,,,,,,,0,,,65,0
59070,note_on,30,0,4,,,,,,,,,0,,,60,0
59070,note_on,0,0,4,,,,,,,,,0,,,63,40
59100,note_on,0,0,4,,,,,,,,,0,,,51,40
59100,note_on,30,0,4,,,,,,,,,0,,,63,0
59130,note_on,0,0,4,,,,,,,,,0,,,56,40
59130,note_on,30,0,4,,,,,,,,,0,,,51,0
59160,note_on,0,0,1,,,,,,,,,0,,,75,0
59160,note_on,0,0,4,,,,,,,,,0,,,60,40
59160,note_on,30,0,4,,,,,,,,,0,,,56,0
59160,note_on,120,0,1,,,,,,,,,0,,,72,0
59190,note_on,0,0,4,,,,,,,,,0,,,63,40
59190,note_on,30,0,4,,,,,,,,,0,,,60,0
59220,note_on,30,0,4,,,,,,,,,0,,,63,0
59220,note_on,0,0,4,,,,,,,,,0,,,51,40
59250,note_on,30,0,4,,,,,,,,,0,,,51,0
59250,note_on,0,0,4,,,,,,,,,0,,,56,40
59280,note_on,30,0,4,,,,,,,,,0,,,56,0
59280,note_on,0,0,4,,,,,,,,,0,,,60,40
59310,note_on,30,0,4,,,,,,,,,0,,,60,0
59310,note_on,0,0,4,,,,,,,,,0,,,63,40
59340,note_on,0,0,4,,,,,,,,,0,,,48,60
59340,note_on,30,0,4,,,,,,,,,0,,,63,0
59340,note_on,0,0,4,,,,,,,,,0,,,56,40
59340,note_on,0,0,4,,,,,,,,,0,,,60,40
59340,note_on,0,0,4,,,,,,,,,0,,,51,60
59370,note_on,0,0,4,,,,,,,,,0,,,56,0
59370,note_on,0,0,4,,,,,,,,,0,,,63,40
59370,note_on,30,0,4,,,,,,,,,0,,,60,0
59400,note_on,0,0,4,,,,,,,,,0,,,61,40
59400,note_on,0,0,4,,,,,,,,,0,,,49,60
59400,note_on,0,0,4,,,,,,,,,0,,,46,60
59400,note_on,30,0,4,,,,,,,,,0,,,63,0
59400,note_on,0,0,4,,,,,,,,,0,,,51,0
59400,note_on,0,0,4,,,,,,,,,0,,,48,0
59400,note_on,0,0,4,,,,,,,,,0,,,55,40
59400,control_change,360,0,5,,,,,,,,,0,64,0,,
59430,note_on,30,0,4,,,,,,,,,0,,,61,0
59430,note_on,0,0,4,,,,,,,,,0,,,55,0
59430,note_on,0,0,4,,,,,,,,,0,,,63,40
59460,note_on,0,0,4,,,,,,,,,0,,,46,60
59460,note_on,0,0,4,,,,,,,,,0,,,58,40
59460,note_on,0,0,4,,,,,,,,,0,,,55,40
59460,note_on,30,0,4,,,,,,,,,0,,,63,0
59460,note_on,0,0,4,,,,,,,,,0,,,39,60
59460,note_on,0,0,4,,,,,,,,,0,,,46,0
59460,note_on,0,0,4,,,,,,,,,0,,,49,0
59490,note_on,30,0,4,,,,,,,,,0,,,58,0
59490,note_on,0,0,4,,,,,,,,,0,,,55,0
59490,note_on,0,0,4,,,,,,,,,0,,,63,40
59520,note_on,0,0,4,,,,,,,,,0,,,46,0
59520,control_change,120,0,5,,,,,,,,,0,64,127,,
59520,note_on,30,0,4,,,,,,,,,0,,,63,0
59520,note_on,0,0,4,,,,,,,,,0,,,39,0
59520,note_on,0,0,4,,,,,,,,,0,,,56,40
59520,note_on,0,0,4,,,,,,,,,0,,,60,40
59520,note_on,0,0,4,,,,,,,,,0,,,44,60
59520,note_on,0,0,4,,,,,,,,,0,,,48,60
59550,note_on,30,0,4,,,,,,,,,0,,,60,0
59550,note_on,0,0,4,,,,,,,,,0,,,56,0
59550,note_on,0,0,4,,,,,,,,,0,,,63,40
59580,note_on,30,0,4,,,,,,,,,0,,,63,0
59580,note_on,0,0,4,,,,,,,,,0,,,51,40
59610,note_on,30,0,4,,,,,,,,,0,,,51,0
59610,note_on,0,0,4,,,,,,,,,0,,,56,40
59640,note_on,30,0,4,,,,,,,,,0,,,56,0
59640,note_on,0,0,4,,,,,,,,,0,,,48,0
59640,note_on,0,0,4,,,,,,,,,0,,,44,0
59640,note_on,0,0,4,,,,,,,,,0,,,60,40
59670,note_on,0,0,4,,,,,,,,,0,,,63,40
59670,note_on,30,0,4,,,,,,,,,0,,,60,0
59700,note_on,30,0,4,,,,,,,,,0,,,63,0
59700,note_on,0,0,4,,,,,,,,,0,,,51,40
59730,note_on,30,0,4,,,,,,,,,0,,,51,0
59730,note_on,0,0,4,,,,,,,,,0,,,56,40
59760,note_on,30,0,4,,,,,,,,,0,,,56,0
59760,note_on,0,0,4,,,,,,,,,0,,,60,40
59790,note_on,30,0,4,,,,,,,,,0,,,60,0
59790,note_on,0,0,4,,,,,,,,,0,,,63,40
59820,note_on,0,0,4,,,,,,,,,0,,,48,60
59820,note_on,0,0,4,,,,,,,,,0,,,51,60
59820,note_on,0,0,4,,,,,,,,,0,,,60,40
59820,note_on,0,0,4,,,,,,,,,0,,,56,40
59820,note_on,30,0,4,,,,,,,,,0,,,63,0
59850,note_on,0,0,4,,,,,,,,,0,,,56,0
59850,note_on,0,0,4,,,,,,,,,0,,,63,40
59850,note_on,30,0,4,,,,,,,,,0,,,60,0
59880,note_on,0,0,4,,,,,,,,,0,,,48,0
59880,note_on,0,0,4,,,,,,,,,0,,,55,40
59880,note_on,0,0,4,,,,,,,,,0,,,61,40
59880,note_on,0,0,4,,,,,,,,,0,,,46,60
59880,note_on,0,0,4,,,,,,,,,0,,,49,60
59880,control_change,360,0,5,,,,,,,,,0,64,0,,
59880,note_on,30,0,4,,,,,,,,,0,,,63,0
59880,note_on,0,0,4,,,,,,,,,0,,,51,0
59910,note_on,30,0,4,,,,,,,,,0,,,61,0
59910,note_on,0,0,4,,,,,,,,,0,,,55,0
59910,note_on,0,0,4,,,,,,,,,0,,,63,40
59940,note_on,30,0,4,,,,,,,,,0,,,63,0
59940,note_on,0,0,4,,,,,,,,,0,,,46,0
59940,note_on,0,0,4,,,,,,,,,0,,,49,0
59940,note_on,0,0,4,,,,,,,,,0,,,55,40
59940,note_on,0,0,4,,,,,,,,,0,,,58,40
59940,note_on,0,0,4,,,,,,,,,0,,,39,60
59940,note_on,0,0,4,,,,,,,,,0,,,46,60
59970,note_on,30,0,4,,,,,,,,,0,,,58,0
59970,note_on,0,0,4,,,,,,,,,0,,,55,0
59970,note_on,0,0,4,,,,,,,,,0,,,63,40
60000,note_on,0,0,4,,,,,,,,,0,,,56,40
60000,note_on,0,0,4,,,,,,,,,0,,,44,60
60000,note_on,0,0,4,,,,,,,,,0,,,48,60
60000,note_on,0,0,4,,,,,,,,,0,,,60,40
60000,control_change,120,0,5,,,,,,,,,0,64,127,,
60000,note_on,0,0,4,,,,,,,,,0,,,46,0
60000,note_on,0,0,4,,,,,,,,,0,,,39,0
60000,note_on,30,0,4,,,,,,,,,0,,,63,0
60030,note_on,30,0,4,,,,,,,,,0,,,60,0
60030,note_on,0,0,4,,,,,,,,,0,,,56,0
60030,note_on,0,0,4,,,,,,,,,0,,,63,40
60060,note_on,30,0,4,,,,,,,,,0,,,63,0
60060,note_on,0,0,4,,,,,,,,,0,,,51,40
60090,note_on,30,0,4,,,,,,,,,0,,,51,0
60090,note_on,0,0,4,,,,,,,,,0,,,56,40
60120,note_on,30,0,4,,,,,,,,,0,,,56,0
60120,note_on,0,0,4,,,,,,,,,0,,,48,0
60120,note_on,0,0,4,,,,,,,,,0,,,44,0
60120,note_on,0,0,4,,,,,,,,,0,,,60,40
60150,note_on,0,0,4,,,,,,,,,0,,,63,40
60150,note_on,30,0,4,,,,,,,,,0,,,60,0
60180,note_on,30,0,4,,,,,,,,,0,,,63,0
60180,note_on,0,0,4,,,,,,,,,0,,,51,40
60210,note_on,0,0,4,,,,,,,,,0,,,56,40
60210,note_on,30,0,4,,,,,,,,,0,,,51,0
60240,note_on,0,0,4,,,,,,,,,0,,,60,40
60240,note_on,30,0,4,,,,,,,,,0,,,56,0
60270,note_on,0,0,4,,,,,,,,,0,,,63,40
60270,note_on,30,0,4,,,,,,,,,0,,,60,0
60300,note_on,0,0,4,,,,,,,,,0,,,48,60
60300,note_on,0,0,4,,,,,,,,,0,,,51,60
60300,note_on,0,0,4,,,,,,,,,0,,,60,40
60300,note_on,0,0,4,,,,,,,,,0,,,56,40
60300,note_on,30,0,4,,,,,,,,,0,,,63,0
60330,note_on,0,0,4,,,,,,,,,0,,,56,0
60330,note_on,0,0,4,,,,,,,,,0,,,63,40
60330,note_on,30,0,4,,,,,,,,,0,,,60,0
60360,note_on,30,0,4,,,,,,,,,0,,,63,0
60360,note_on,0,0,4,,,,,,,,,0,,,51,0
60360,note_on,0,0,4,,,,,,,,,0,,,48,0
60360,note_on,0,0,4,,,,,,,,,0,,,55,40
60360,note_on,0,0,4,,,,,,,,,0,,,61,40
60360,note_on,0,0,4,,,,,,,,,0,,,46,60
60360,control_change,360,0,5,,,,,,,,,0,64,0,,
60360,note_on,0,0,4,,,,,,,,,0,,,49,60
60390,note_on,30,0,4,,,,,,,,,0,,,61,0
60390,note_on,0,0,4,,,,,,,,,0,,,63,40
60390,note_on,0,0,4,,,,,,,,,0,,,55,0
60420,note_on,0,0,4,,,,,,,,,0,,,49,0
60420,note_on,30,0,4,,,,,,,,,0,,,63,0
60420,note_on,0,0,4,,,,,,,,,0,,,46,0
60420,note_on,0,0,4,,,,,,,,,0,,,58,40
60420,note_on,0,0,4,,,,,,,,,0,,,55,40
60420,note_on,0,0,4,,,,,,,,,0,,,39,60
60420,note_on,0,0,4,,,,,,,,,0,,,46,60
60450,note_on,0,0,4,,,,,,,,,0,,,63,40
60450,note_on,30,0,4,,,,,,,,,0,,,58,0
60450,note_on,0,0,4,,,,,,,,,0,,,55,0
60480,note_on,0,0,4,,,,,,,,,0,,,44,60
60480,control_change,120,0,5,,,,,,,,,0,64,127,,
60480,note_on,0,0,4,,,,,,,,,0,,,36,60
60480,note_on,30,0,4,,,,,,,,,0,,,63,0
60480,note_on,0,0,4,,,,,,,,,0,,,39,0
60480,note_on,0,0,4,,,,,,,,,0,,,46,0
60480,note_on,0,0,4,,,,,,,,,0,,,56,40
60480,note_on,0,0,4,,,,,,,,,0,,,32,60
60510,note_on,30,0,4,,,,,,,,,0,,,56,0
60510,note_on,0,0,4,,,,,,,,,0,,,60,40
60540,note_on,30,0,4,,,,,,,,,0,,,60,0
60540,note_on,0,0,4,,,,,,,,,0,,,48,40
60570,note_on,0,0,4,,,,,,,,,0,,,51,40
60570,note_on,30,0,4,,,,,,,,,0,,,48,0
60600,note_on,30,0,4,,,,,,,,,0,,,51,0
60600,note_on,0,0,4,,,,,,,,,0,,,44,0
60600,note_on,0,0,4,,,,,,,,,0,,,36,0
60600,note_on,0,0,4,,,,,,,,,0,,,32,0
60600,note_on,0,0,4,,,,,,,,,0,,,56,40
60630,note_on,30,0,4,,,,,,,,,0,,,56,0
60630,note_on,0,0,4,,,,,,,,,0,,,60,40
60660,note_on,0,0,4,,,,,,,,,0,,,48,40
60660,note_on,30,0,4,,,,,,,,,0,,,60,0
60690,note_on,0,0,4,,,,,,,,,0,,,51,40
60690,note_on,30,0,4,,,,,,,,,0,,,48,0
60720,note_on,0,0,4,,,,,,,,,0,,,56,40
60720,note_on,30,0,4,,,,,,,,,0,,,51,0
60750,note_on,30,0,4,,,,,,,,,0,,,56,0
60750,note_on,0,0,4,,,,,,,,,0,,,60,40
60780,note_on,0,0,4,,,,,,,,,0,,,48,40
60780,note_on,30,0,4,,,,,,,,,0,,,60,0
60810,note_on,30,0,4,,,,,,,,,0,,,48,0
60810,note_on,0,0,4,,,,,,,,,0,,,51,40
60840,note_on,0,0,4,,,,,,,,,0,,,56,40
60840,note_on,30,0,4,,,,,,,,,0,,,51,0
60870,note_on,30,0,4,,,,,,,,,0,,,56,0
60870,note_on,0,0,4,,,,,,,,,0,,,60,40
60900,note_on,30,0,4,,,,,,,,,0,,,60,0
60900,note_on,0,0,4,,,,,,,,,0,,,48,40
60930,note_on,30,0,4,,,,,,,,,0,,,48,0
60930,note_on,0,0,4,,,,,,,,,0,,,51,40
60945,control_change,465,0,5,,,,,,,,,0,64,0,,
60960,control_change,15,0,5,,,,,,,,,0,64,127,,
60960,note_on,0,0,4,,,,,,,,,0,,,56,40
60960,note_on,30,0,4,,,,,,,,,0,,,51,0
60990,note_on,0,0,4,,,,,,,,,0,,,60,40
60990,note_on,30,0,4,,,,,,,,,0,,,56,0
61020,note_on,30,0,4,,,,,,,,,0,,,60,0
61020,note_on,0,0,4,,,,,,,,,0,,,48,40
61050,note_on,30,0,4,,,,,,,,,0,,,48,0
61050,note_on,0,0,4,,,,,,,,,0,,,51,40
61080,note_on,0,0,4,,,,,,,,,0,,,32,60
61080,note_on,30,0,4,,,,,,,,,0,,,51,0
61080,note_on,0,0,4,,,,,,,,,0,,,56,40
61110,note_on,30,0,4,,,,,,,,,0,,,56,0
61110,note_on,0,0,4,,,,,,,,,0,,,60,40
61140,note_on,30,0,4,,,,,,,,,0,,,60,0
61140,note_on,0,0,4,,,,,,,,,0,,,48,40
61170,note_on,30,0,4,,,,,,,,,0,,,48,0
61170,note_on,0,0,4,,,,,,,,,0,,,51,40
61200,note_on,30,0,4,,,,,,,,,0,,,51,0
61200,note_on,0,0,4,,,,,,,,,0,,,32,0
61200,note_on,0,0,4,,,,,,,,,0,,,56,40
61200,note_on,0,0,4,,,,,,,,,0,,,32,60
61230,note_on,30,0,4,,,,,,,,,0,,,56,0
61230,note_on,0,0,4,,,,,,,,,0,,,60,40
61260,note_on,30,0,4,,,,,,,,,0,,,60,0
61260,note_on,0,0,4,,,,,,,,,0,,,48,40
61290,note_on,0,0,4,,,,,,,,,0,,,51,40
61290,note_on,30,0,4,,,,,,,,,0,,,48,0
61320,note_on,30,0,4,,,,,,,,,0,,,51,0
61320,note_on,0,0,4,,,,,,,,,0,,,32,0
61320,note_on,0,0,4,,,,,,,,,0,,,56,40
61320,note_on,0,0,4,,,,,,,,,0,,,32,60
61350,note_on,30,0,4,,,,,,,,,0,,,56,0
61350,note_on,0,0,4,,,,,,,,,0,,,60,40
61380,note_on,30,0,4,,,,,,,,,0,,,60,0
61380,note_on,0,0,4,,,,,,,,,0,,,48,40
61410,note_on,30,0,4,,,,,,,,,0,,,48,0
61410,note_on,0,0,4,,,,,,,,,0,,,51,40
61425,control_change,465,0,5,,,,,,,,,0,64,0,,
61440,note_on,0,0,4,,,,,,,,,0,,,43,60
61440,note_on,0,0,4,,,,,,,,,0,,,36,60
61440,note_on,0,0,4,,,,,,,,,0,,,31,60
61440,control_change,15,0,5,,,,,,,,,0,64,127,,
61440,note_on,0,0,4,,,,,,,,,0,,,32,0
61440,note_on,30,0,4,,,,,,,,,0,,,51,0
61440,note_on,0,0,4,,,,,,,,,0,,,58,40
61470,note_on,30,0,4,,,,,,,,,0,,,58,0
61470,note_on,0,0,4,,,,,,,,,0,,,60,41
61500,note_on,30,0,4,,,,,,,,,0,,,60,0
61500,note_on,0,0,4,,,,,,,,,0,,,48,43
61530,note_on,30,0,4,,,,,,,,,0,,,48,0
61530,note_on,0,0,4,,,,,,,,,0,,,52,45
61560,note_on,30,0,4,,,,,,,,,0,,,52,0
61560,note_on,0,0,4,,,,,,,,,0,,,58,47
61590,note_on,30,0,4,,,,,,,,,0,,,58,0
61590,note_on,0,0,4,,,,,,,,,0,,,60,49
61620,note_on,30,0,4,,,,,,,,,0,,,60,0
61620,note_on,0,0,4,,,,,,,,,0,,,52,51
61650,note_on,0,0,4,,,,,,,,,0,,,58,53
61650,note_on,30,0,4,,,,,,,,,0,,,52,0
61680,note_on,2520,0,1,,,,,,,,,0,,,60,55
61680,note_on,30,0,4,,,,,,,,,0,,,58,0
61710,note_on,30,0,1,,,,,,,,,0,,,60,0
61710,note_on,0,0,1,,,,,,,,,0,,,64,57
61740,note_on,30,0,1,,,,,,,,,0,,,64,0
61740,note_on,0,0,1,,,,,,,,,0,,,58,59
61770,note_on,30,0,1,,,,,,,,,0,,,58,0
61770,note_on,0,0,1,,,,,,,,,0,,,60,61
61800,note_on,0,0,1,,,,,,,,,0,,,64,63
61800,note_on,30,0,1,,,,,,,,,0,,,60,0
61830,note_on,30,0,1,,,,,,,,,0,,,64,0
61830,note_on,0,0,1,,,,,,,,,0,,,70,65
61860,note_on,30,0,1,,,,,,,,,0,,,70,0
61860,note_on,0,0,1,,,,,,,,,0,,,60,67
61890,note_on,30,0,1,,,,,,,,,0,,,60,0
61890,note_on,0,0,1,,,,,,,,,0,,,64,69
61905,control_change,465,0,5,,,,,,,,,0,64,0,,
61920,note_on,30,0,1,,,,,,,,,0,,,64,0
61920,note_on,0,0,1,,,,,,,,,0,,,70,71
61920,control_change,15,0,5,,,,,,,,,0,64,127,,
61950,note_on,30,0,1,,,,,,,,,0,,,70,0
61950,note_on,0,0,1,,,,,,,,,0,,,72,73
61980,note_on,0,0,1,,,,,,,,,0,,,60,75
61980,note_on,30,0,1,,,,,,,,,0,,,72,0
62010,note_on,0,0,1,,,,,,,,,0,,,64,77
62010,note_on,30,0,1,,,,,,,,,0,,,60,0
62040,note_on,0,0,4,,,,,,,,,0,,,55,99
62040,note_on,0,0,1,,,,,,,,,0,,,70,79
62040,note_on,0,0,4,,,,,,,,,0,,,48,99
62040,note_on,0,0,4,,,,,,,,,0,,,43,99
62040,note_on,0,0,4,,,,,,,,,0,,,31,0
62040,note_on,0,0,4,,,,,,,,,0,,,36,0
62040,note_on,360,0,4,,,,,,,,,0,,,43,0
62040,note_on,30,0,1,,,,,,,,,0,,,64,0
62070,note_on,30,0,1,,,,,,,,,0,,,70,0
62070,note_on,0,0,1,,,,,,,,,0,,,72,81
62100,note_on,30,0,1,,,,,,,,,0,,,72,0
62100,note_on,0,0,1,,,,,,,,,0,,,60,83
62130,note_on,0,0,1,,,,,,,,,0,,,64,85
62130,note_on,30,0,1,,,,,,,,,0,,,60,0
62160,note_on,30,0,1,,,,,,,,,0,,,64,0
62160,note_on,0,0,1,,,,,,,,,0,,,70,87
62160,note_on,0,0,4,,,,,,,,,0,,,55,107
62160,note_on,0,0,4,,,,,,,,,0,,,48,107
62160,note_on,0,0,4,,,,,,,,,0,,,43,107
62160,note_on,120,0,4,,,,,,,,,0,,,55,0
62160,note_on,0,0,4,,,,,,,,,0,,,48,0
62160,note_on,0,0,4,,,,,,,,,0,,,43,0
62190,note_on,30,0,1,,,,,,,,,0,,,70,0
62190,note_on,0,0,1,,,,,,,,,0,,,72,89
62220,note_on,30,0,1,,,,,,,,,0,,,72,0
62220,note_on,0,0,1,,,,,,,,,0,,,60,91
62250,note_on,30,0,1,,,,,,,,,0,,,60,0
62250,note_on,0,0,1,,,,,,,,,0,,,64,93
62280,note_on,0,0,4,,,,,,,,,0,,,43,0
62280,note_on,0,0,4,,,,,,,,,0,,,55,115
62280,note_on,0,0,4,,,,,,,,,0,,,48,115
62280,note_on,0,0,4,,,,,,,,,0,,,43,115
62280,note_on,120,0,4,,,,,,,,,0,,,55,0
62280,note_on,0,0,4,,,,,,,,,0,,,48,0
62280,note_on,0,0,1,,,,,,,,,0,,,70,95
62280,note_on,30,0,1,,,,,,,,,0,,,64,0
62310,note_on,0,0,1,,,,,,,,,0,,,72,97
62310,note_on,30,0,1,,,,,,,,,0,,,70,0
62340,note_on,30,0,1,,,,,,,,,0,,,72,0
62340,note_on,0,0,1,,,,,,,,,0,,,60,99
62370,note_on,30,0,1,,,,,,,,,0,,,60,0
62370,note_on,0,0,1,,,,,,,,,0,,,64,100
62385,control_change,465,0,5,,,,,,,,,0,64,0,,
62400,note_on,30,0,1,,,,,,,,,0,,,64,0
62400,note_on,0,0,1,,,,,,,,,0,,,72,100
62400,note_on,0,0,4,,,,,,,,,0,,,43,0
62400,note_on,0,0,4,,,,,,,,,0,,,56,100
62400,note_on,0,0,4,,,,,,,,,0,,,41,100
62400,marker,30720,1,0,,,,,,,,,,,,,
62400,note_on,0,0,4,,,,,,,,,0,,,48,100
62400,control_change,15,0,5,,,,,,,,,0,64,127,,
62400,note_on,0,0,4,,,,,,,,,0,,,48,0
62400,note_on,120,0,4,,,,,,,,,0,,,55,0
62415,note_on,15,0,1,,,,,,,,,0,,,72,0
62415,note_on,0,0,1,,,,,,,,,0,,,77,100
62430,note_on,0,0,1,,,,,,,,,0,,,80,100
62430,note_on,15,0,1,,,,,,,,,0,,,77,0
62445,note_on,0,0,1,,,,,,,,,0,,,84,100
62445,note_on,15,0,1,,,,,,,,,0,,,80,0
62610,note_on,0,0,1,,,,,,,,,0,,,82,60
62610,note_on,165,0,1,,,,,,,,,0,,,84,0
62640,note_on,0,0,1,,,,,,,,,0,,,68,60
62640,note_on,30,0,1,,,,,,,,,0,,,82,0
62730,note_on,0,0,1,,,,,,,,,0,,,70,60
62730,note_on,90,0,1,,,,,,,,,0,,,68,0
62745,control_change,345,0,5,,,,,,,,,0,64,0,,
62760,note_on,0,0,1,,,,,,,,,0,,,67,60
62760,control_change,15,0,5,,,,,,,,,0,64,127,,
62760,note_on,0,0,4,,,,,,,,,0,,,52,60
62760,note_on,0,0,4,,,,,,,,,0,,,43,60
62760,note_on,360,0,4,,,,,,,,,0,,,56,0
62760,note_on,30,0,1,,,,,,,,,0,,,70,0
62850,note_on,0,0,1,,,,,,,,,0,,,68,60
62850,note_on,90,0,1,,,,,,,,,0,,,67,0
62865,control_change,105,0,5,,,,,,,,,0,64,0,,
62880,note_on,0,0,1,,,,,,,,,0,,,65,60
62880,control_change,15,0,5,,,,,,,,,0,64,127,,
62880,note_on,30,0,1,,,,,,,,,0,,,68,0
62880,note_on,0,0,4,,,,,,,,,0,,,48,0
62880,note_on,0,0,4,,,,,,,,,0,,,53,60
62880,note_on,120,0,4,,,,,,,,,0,,,43,0
62880,note_on,0,0,4,,,,,,,,,0,,,52,0
62880,note_on,0,0,4,,,,,,,,,0,,,44,60
62970,note_on,90,0,1,,,,,,,,,0,,,65,0
62970,note_on,0,0,1,,,,,,,,,0,,,66,60
63000,note_on,0,0,1,,,,,,,,,0,,,63,60
63000,note_on,120,0,4,,,,,,,,,0,,,44,0
63000,note_on,0,0,4,,,,,,,,,0,,,45,60
63000,note_on,30,0,1,,,,,,,,,0,,,66,0
63000,control_change,120,0,5,,,,,,,,,0,64,0,,
63090,note_on,0,0,1,,,,,,,,,0,,,65,60
63090,note_on,90,0,1,,,,,,,,,0,,,63,0
63120,note_on,120,0,4,,,,,,,,,0,,,45,0
63120,note_on,0,0,4,,,,,,,,,0,,,46,60
63120,note_on,0,0,1,,,,,,,,,0,,,61,60
63120,note_on,30,0,1,,,,,,,,,0,,,65,0
63210,note_on,90,0,1,,,,,,,,,0,,,61,0
63210,note_on,0,0,1,,,,,,,,,0,,,63,60
63240,note_on,0,0,1,,,,,,,,,0,,,60,60
63240,note_on,120,0,4,,,,,,,,,0,,,46,0
63240,note_on,0,0,4,,,,,,,,,0,,,48,60
63240,note_on,30,0,1,,,,,,,,,0,,,63,0
63330,note_on,0,0,1,,,,,,,,,0,,,61,60
63330,note_on,90,0,1,,,,,,,,,0,,,60,0
63360,note_on,0,0,4,,,,,,,,,0,,,49,60
63360,note_on,30,0,1,,,,,,,,,0,,,61,0
63360,note_on,61410,0,2,,,,,,,,,0,,,58,60
63360,note_on,0,0,4,,,,,,,,,0,,,53,0
63360,note_on,0,0,4,,,,,,,,,0,,,53,60
63360,note_on,120,0,4,,,,,,,,,0,,,48,0
63450,note_on,0,0,2,,,,,,,,,0,,,60,68
63450,note_on,90,0,2,,,,,,,,,0,,,58,0
63480,note_on,0,0,2,,,,,,,,,0,,,56,70
63480,note_on,30,0,2,,,,,,,,,0,,,60,0
63480,note_on,120,0,4,,,,,,,,,0,,,49,0
63480,note_on,0,0,4,,,,,,,,,0,,,48,70
63570,note_on,0,0,2,,,,,,,,,0,,,58,79
63570,note_on,90,0,2,,,,,,,,,0,,,56,0
63600,note_on,120,0,4,,,,,,,,,0,,,48,0
63600,note_on,0,0,4,,,,,,,,,0,,,53,0
63600,note_on,0,0,4,,,,,,,,,0,,,41,0
63600,note_on,0,0,4,,,,,,,,,0,,,49,81
63600,note_on,0,0,4,,,,,,,,,0,,,46,81
63600,note_on,0,0,2,,,,,,,,,0,,,54,81
63600,note_on,30,0,2,,,,,,,,,0,,,58,0
63690,note_on,0,0,2,,,,,,,,,0,,,56,89
63690,note_on,90,0,2,,,,,,,,,0,,,54,0
63720,note_on,0,0,2,,,,,,,,,0,,,53,92
63720,note_on,0,0,4,,,,,,,,,0,,,49,0
63720,note_on,30,0,2,,,,,,,,,0,,,56,0
63720,note_on,0,0,4,,,,,,,,,0,,,48,92
63720,note_on,120,0,4,,,,,,,,,0,,,46,0
63720,note_on,0,0,4,,,,,,,,,0,,,44,92
63810,note_on,90,0,2,,,,,,,,,0,,,53,0
63810,note_on,0,0,2,,,,,,,,,0,,,55,100
63840,note_on,0,0,4,,,,,,,,,0,,,46,100
63840,note_on,0,0,4,,,,,,,,,0,,,43,100
63840,note_on,0,0,4,,,,,,,,,0,,,48,0
63840,note_on,0,0,2,,,,,,,,,0,,,52,100
63840,note_on,30,0,2,,,,,,,,,0,,,55,0
63840,note_on,120,0,4,,,,,,,,,0,,,44,0
63870,note_on,30,0,2,,,,,,,,,0,,,52,0
63870,note_on,0,0,4,,,,,,,,,0,,,46,0
63870,note_on,30,0,4,,,,,,,,,0,,,43,0
63960,note_on,0,0,4,,,,,,,,,0,,,52,110
63960,note_on,0,0,4,,,,,,,,,0,,,55,110
63960,note_on,0,0,1,,,,,,,,,0,,,67,110
63960,note_on,0,0,4,,,,,,,,,0,,,58,110
63960,note_on,0,0,1,,,,,,,,,0,,,70,110
63960,note_on,600,0,1,,,,,,,,,0,,,73,110
63960,note_on,90,0,4,,,,,,,,,0,,,61,110
63990,note_on,30,0,1,,,,,,,,,0,,,67,0
63990,note_on,0,0,4,,,,,,,,,0,,,58,0
63990,note_on,0,0,4,,,,,,,,,0,,,55,0
63990,note_on,0,0,4,,,,,,,,,0,,,61,0
63990,note_on,30,0,4,,,,,,,,,0,,,52,0
63990,note_on,0,0,1,,,,,,,,,0,,,73,0
63990,note_on,0,0,1,,,,,,,,,0,,,70,0
64155,note_on,165,0,1,,,,,,,,,0,,,72,60
64170,note_on,0,0,1,,,,,,,,,0,,,73,60
64170,note_on,15,0,1,,,,,,,,,0,,,72,0
64185,note_on,15,0,1,,,,,,,,,0,,,73,0
64185,note_on,0,0,1,,,,,,,,,0,,,75,60
64200,note_on,15,0,1,,,,,,,,,0,,,75,0
64200,note_on,0,0,1,,,,,,,,,0,,,73,60
64290,note_on,0,0,1,,,,,,,,,0,,,72,60
64290,note_on,90,0,1,,,,,,,,,0,,,73,0
64320,set_tempo,1920,1,0,,,,,,500042,,,,,,,
64320,note_on,0,0,4,,,,,,,,,0,,,53,60
64320,note_on,330,0,4,,,,,,,,,0,,,56,60
64320,note_on,0,0,1,,,,,,,,,0,,,72,60
64320,note_on,30,0,1,,,,,,,,,0,,,72,0
64334,set_tempo,14,1,0,,,,,,501295,,,,,,,
64348,set_tempo,14,1,0,,,,,,502555,,,,,,,
64362,set_tempo,14,1,0,,,,,,503821,,,,,,,
64369,set_tempo,7,1,0,,,,,,505093,,,,,,,
64383,set_tempo,14,1,0,,,,,,506372,,,,,,,
64397,set_tempo,14,1,0,,,,,,507657,,,,,,,
64404,set_tempo,7,1,0,,,,,,508949,,,,,,,
64418,set_tempo,14,1,0,,,,,,510247,,,,,,,
64432,set_tempo,14,1,0,,,,,,511553,,,,,,,
64440,note_on,120,0,4,,,,,,,,,0,,,53,0
64440,note_on,0,0,4,,,,,,,,,0,,,56,0
64440,note_on,0,0,1,,,,,,,,,0,,,77,70
64440,note_on,120,0,1,,,,,,,,,0,,,72,0
64447,set_tempo,15,1,0,,,,,,512864,,,,,,,
64454,set_tempo,7,1,0,,,,,,514183,,,,,,,
64468,set_tempo,14,1,0,,,,,,515508,,,,,,,
64482,set_tempo,14,1,0,,,,,,516840,,,,,,,
64489,set_tempo,7,1,0,,,,,,518179,,,,,,,
64503,set_tempo,14,1,0,,,,,,519526,,,,,,,
64517,set_tempo,14,1,0,,,,,,520879,,,,,,,
64531,set_tempo,14,1,0,,,,,,522239,,,,,,,
64538,set_tempo,7,1,0,,,,,,523606,,,,,,,
64552,set_tempo,14,1,0,,,,,,524980,,,,,,,
64560,note_on,0,0,4,,,,,,,,,0,,,49,60
64560,note_on,120,0,4,,,,,,,,,0,,,46,60
64560,note_on,0,0,4,,,,,,,,,0,,,55,60
64567,set_tempo,15,1,0,,,,,,526362,,,,,,,
64574,set_tempo,7,1,0,,,,,,527751,,,,,,,
64588,set_tempo,14,1,0,,,,,,529147,,,,,,,
64600,note_on,0,0,1,,,,,,,,,0,,,67,60
64600,note_on,160,0,1,,,,,,,,,0,,,77,0
64602,set_tempo,14,1,0,,,,,,530551,,,,,,,
64616,set_tempo,14,1,0,,,,,,531962,,,,,,,
64623,set_tempo,7,1,0,,,,,,533381,,,,,,,
64637,set_tempo,14,1,0,,,,,,534807,,,,,,,
64640,note_on,40,0,1,,,,,,,,,0,,,67,0
64640,note_on,0,0,1,,,,,,,,,0,,,70,60
64651,set_tempo,14,1,0,,,,,,536241,,,,,,,
64658,set_tempo,7,1,0,,,,,,537683,,,,,,,
64672,set_tempo,14,1,0,,,,,,539132,,,,,,,
64680,note_on,120,0,4,,,,,,,,,0,,,55,0
64680,note_on,0,0,4,,,,,,,,,0,,,46,0
64680,note_on,0,0,4,,,,,,,,,0,,,49,0
64680,note_on,40,0,1,,,,,,,,,0,,,70,0
64680,note_on,0,0,1,,,,,,,,,0,,,73,60
64687,set_tempo,15,1,0,,,,,,540589,,,,,,,
64694,set_tempo,7,1,0,,,,,,542054,,,,,,,
64708,set_tempo,14,1,0,,,,,,543527,,,,,,,
64720,note_on,0,0,1,,,,,,,,,0,,,70,60
64720,note_on,40,0,1,,,,,,,,,0,,,73,0
64722,set_tempo,14,1,0,,,,,,545009,,,,,,,
64736,set_tempo,14,1,0,,,,,,546498,,,,,,,
64743,set_tempo,7,1,0,,,,,,547995,,,,,,,
64757,set_tempo,14,1,0,,,,,,549501,,,,,,,
64760,note_on,0,0,1,,,,,,,,,0,,,67,60
64760,note_on,40,0,1,,,,,,,,,0,,,70,0
64771,set_tempo,14,1,0,,,,,,551015,,,,,,,
64778,set_tempo,7,1,0,,,,,,552537,,,,,,,
64792,set_tempo,14,1,0,,,,,,554068,,,,,,,
64800,note_on,0,0,1,,,,,,,,,0,,,65,70
64800,note_on,40,0,1,,,,,,,,,0,,,67,0
64800,note_on,120,0,4,,,,,,,,,0,,,48,70
64807,set_tempo,15,1,0,,,,,,555607,,,,,,,
64821,set_tempo,14,1,0,,,,,,557155,,,,,,,
64828,set_tempo,7,1,0,,,,,,558711,,,,,,,
64840,note_on,40,0,4,,,,,,,,,0,,,53,60
64842,set_tempo,14,1,0,,,,,,560276,,,,,,,
64856,set_tempo,14,1,0,,,,,,561850,,,,,,,
64863,set_tempo,7,1,0,,,,,,563433,,,,,,,
64877,set_tempo,14,1,0,,,,,,565025,,,,,,,
64880,note_on,40,0,4,,,,,,,,,0,,,53,0
64880,note_on,0,0,4,,,,,,,,,0,,,56,60
64891,set_tempo,14,1,0,,,,,,566626,,,,,,,
64905,set_tempo,14,1,0,,,,,,568236,,,,,,,
64912,set_tempo,7,1,0,,,,,,569855,,,,,,,
64920,note_on,0,0,4,,,,,,,,,0,,,60,60
64920,note_on,40,0,4,,,,,,,,,0,,,56,0
64927,set_tempo,15,1,0,,,,,,571483,,,,,,,
64941,set_tempo,14,1,0,,,,,,573121,,,,,,,
64948,set_tempo,7,1,0,,,,,,574768,,,,,,,
64960,note_on,0,0,4,,,,,,,,,0,,,58,60
64960,note_on,40,0,4,,,,,,,,,0,,,60,0
64962,set_tempo,14,1,0,,,,,,576424,,,,,,,
64976,set_tempo,14,1,0,,,,,,578090,,,,,,,
64983,set_tempo,7,1,0,,,,,,579766,,,,,,,
64997,set_tempo,14,1,0,,,,,,581452,,,,,,,
65000,note_on,40,0,4,,,,,,,,,0,,,58,0
65000,note_on,0,0,4,,,,,,,,,0,,,56,60
65011,set_tempo,14,1,0,,,,,,583147,,,,,,,
65025,set_tempo,14,1,0,,,,,,584852,,,,,,,
65032,set_tempo,7,1,0,,,,,,586568,,,,,,,
65040,note_on,0,0,4,,,,,,,,,0,,,55,60
65040,note_on,40,0,4,,,,,,,,,0,,,56,0
65040,note_on,0,0,1,,,,,,,,,0,,,64,70
65040,note_on,240,0,1,,,,,,,,,0,,,65,0
65047,set_tempo,15,1,0,,,,,,588293,,,,,,,
65061,set_tempo,14,1,0,,,,,,590029,,,,,,,
65068,set_tempo,7,1,0,,,,,,591774,,,,,,,
65070,note_on,30,0,4,,,,,,,,,0,,,55,0
65070,note_on,30,0,1,,,,,,,,,0,,,64,0
65082,set_tempo,14,1,0,,,,,,593531,,,,,,,
65096,set_tempo,14,1,0,,,,,,595297,,,,,,,
65100,note_on,30,0,1,,,,,,,,,0,,,78,71
65100,note_on,30,0,4,,,,,,,,,0,,,48,0
65110,set_tempo,14,1,0,,,,,,597074,,,,,,,
65117,set_tempo,7,1,0,,,,,,598862,,,,,,,
65130,note_on,30,0,1,,,,,,,,,0,,,78,0
65130,note_on,0,0,1,,,,,,,,,0,,,79,77
65131,set_tempo,14,1,0,,,,,,600661,,,,,,,
65145,set_tempo,14,1,0,,,,,,602470,,,,,,,
65152,set_tempo,7,1,0,,,,,,604290,,,,,,,
65160,note_on,0,0,1,,,,,,,,,0,,,80,83
65160,note_on,30,0,1,,,,,,,,,0,,,79,0
65167,set_tempo,15,1,0,,,,,,606122,,,,,,,
65181,set_tempo,14,1,0,,,,,,607964,,,,,,,
65190,note_on,0,0,1,,,,,,,,,0,,,81,89
65190,note_on,30,0,1,,,,,,,,,0,,,80,0
65195,set_tempo,14,1,0,,,,,,609818,,,,,,,
65202,set_tempo,7,1,0,,,,,,611683,,,,,,,
65216,set_tempo,14,1,0,,,,,,613560,,,,,,,
65220,note_on,30,0,1,,,,,,,,,0,,,81,0
65220,note_on,0,0,1,,,,,,,,,0,,,82,95
65230,set_tempo,14,1,0,,,,,,615448,,,,,,,
65237,set_tempo,7,1,0,,,,,,617347,,,,,,,
65250,note_on,30,0,1,,,,,,,,,0,,,82,0
65250,note_on,0,0,1,,,,,,,,,0,,,83,100
65251,set_tempo,14,1,0,,,,,,619259,,,,,,,
65265,set_tempo,14,1,0,,,,,,621182,,,,,,,
65272,set_tempo,7,1,0,,,,,,623118,,,,,,,
65280,set_tempo,8,1,0,,,,,,500000,,,,,,,
65280,control_change,2280,0,5,,,,,,,,,0,64,127,,
65280,note_on,180,0,4,,,,,,,,,0,,,56,100
65280,note_on,0,0,4,,,,,,,,,0,,,41,100
65280,note_on,0,0,4,,,,,,,,,0,,,48,100
65280,note_on,30,0,1,,,,,,,,,0,,,83,0
65280,note_on,0,0,1,,,,,,,,,0,,,72,100
65295,note_on,15,0,1,,,,,,,,,0,,,72,0
65295,note_on,0,0,1,,,,,,,,,0,,,77,100
65310,note_on,15,0,1,,,,,,,,,0,,,77,0
65310,note_on,0,0,1,,,,,,,,,0,,,80,100
65325,note_on,15,0,1,,,,,,,,,0,,,80,0
65325,note_on,0,0,1,,,,,,,,,0,,,84,100
65490,note_on,165,0,1,,,,,,,,,0,,,84,0
65490,note_on,0,0,1,,,,,,,,,0,,,82,60
65520,note_on,30,0,1,,,,,,,,,0,,,82,0
65520,note_on,0,0,1,,,,,,,,,0,,,80,60
65610,note_on,90,0,1,,,,,,,,,0,,,80,0
65610,note_on,0,0,1,,,,,,,,,0,,,92,60
65625,control_change,345,0,5,,,,,,,,,0,64,0,,
65640,note_on,0,0,1,,,,,,,,,0,,,79,60
65640,note_on,30,0,1,,,,,,,,,0,,,92,0
65640,control_change,15,0,5,,,,,,,,,0,64,127,,
65640,note_on,360,0,4,,,,,,,,,0,,,56,0
65640,note_on,0,0,4,,,,,,,,,0,,,52,60
65640,note_on,0,0,4,,,,,,,,,0,,,43,60
65730,note_on,90,0,1,,,,,,,,,0,,,79,0
65730,note_on,0,0,1,,,,,,,,,0,,,91,60
65745,control_change,105,0,5,,,,,,,,,0,64,0,,
65760,control_change,15,0,5,,,,,,,,,0,64,127,,
65760,note_on,0,0,1,,,,,,,,,0,,,77,60
65760,note_on,30,0,1,,,,,,,,,0,,,91,0
65760,note_on,0,0,4,,,,,,,,,0,,,53,60
65760,note_on,0,0,4,,,,,,,,,0,,,48,0
65760,note_on,0,0,4,,,,,,,,,0,,,52,0
65760,note_on,120,0,4,,,,,,,,,0,,,43,0
65760,note_on,0,0,4,,,,,,,,,0,,,44,60
65850,note_on,90,0,1,,,,,,,,,0,,,77,0
65850,note_on,0,0,1,,,,,,,,,0,,,89,60
65880,note_on,0,0,1,,,,,,,,,0,,,75,60
65880,note_on,30,0,1,,,,,,,,,0,,,89,0
65880,note_on,120,0,4,,,,,,,,,0,,,44,0
65880,note_on,0,0,4,,,,,,,,,0,,,45,60
65880,control_change,120,0,5,,,,,,,,,0,64,0,,
65970,note_on,90,0,1,,,,,,,,,0,,,75,0
65970,note_on,0,0,1,,,,,,,,,0,,,87,60
66000,note_on,30,0,1,,,,,,,,,0,,,87,0
66000,note_on,0,0,1,,,,,,,,,0,,,73,60
66000,note_on,0,0,4,,,,,,,,,0,,,46,60
66000,note_on,120,0,4,,,,,,,,,0,,,45,0
66090,note_on,90,0,1,,,,,,,,,0,,,73,0
66090,note_on,0,0,1,,,,,,,,,0,,,85,60
66120,note_on,30,0,1,,,,,,,,,0,,,85,0
66120,note_on,0,0,1,,,,,,,,,0,,,72,60
66120,note_on,120,0,4,,,,,,,,,0,,,46,0
66120,note_on,0,0,4,,,,,,,,,0,,,48,60
66210,note_on,90,0,1,,,,,,,,,0,,,72,0
66210,note_on,0,0,1,,,,,,,,,0,,,84,60
66240,note_on,0,0,1,,,,,,,,,0,,,70,60
66240,note_on,0,0,4,,,,,,,,,0,,,49,60
66240,note_on,120,0,4,,,,,,,,,0,,,48,0
66240,note_on,30,0,1,,,,,,,,,0,,,84,0
66270,note_on,0,0,1,,,,,,,,,0,,,82,62
66270,note_on,30,0,1,,,,,,,,,0,,,70,0
66300,note_on,30,0,1,,,,,,,,,0,,,82,0
66300,note_on,60,0,4,,,,,,,,,0,,,49,0
66300,note_on,0,0,4,,,,,,,,,0,,,41,0
66300,note_on,0,0,4,,,,,,,,,0,,,53,65
66300,note_on,0,0,4,,,,,,,,,0,,,49,65
66300,note_on,0,0,1,,,,,,,,,0,,,70,65
66300,note_on,0,0,4,,,,,,,,,0,,,53,0
66330,note_on,30,0,1,,,,,,,,,0,,,70,0
66330,note_on,0,0,1,,,,,,,,,0,,,82,68
66330,note_on,0,0,4,,,,,,,,,0,,,53,0
66330,note_on,30,0,4,,,,,,,,,0,,,49,0
66360,note_on,0,0,4,,,,,,,,,0,,,51,70
66360,note_on,30,0,4,,,,,,,,,0,,,48,70
66360,note_on,30,0,1,,,,,,,,,0,,,82,0
66360,note_on,0,0,1,,,,,,,,,0,,,68,70
66390,note_on,0,0,4,,,,,,,,,0,,,48,0
66390,note_on,30,0,4,,,,,,,,,0,,,51,0
66390,note_on,30,0,1,,,,,,,,,0,,,68,0
66390,note_on,0,0,1,,,,,,,,,0,,,80,73
66420,note_on,0,0,4,,,,,,,,,0,,,48,76
66420,note_on,30,0,4,,,,,,,,,0,,,51,76
66420,note_on,30,0,1,,,,,,,,,0,,,80,0
66420,note_on,0,0,1,,,,,,,,,0,,,68,76
66450,note_on,30,0,4,,,,,,,,,0,,,48,0
66450,note_on,30,0,1,,,,,,,,,0,,,68,0
66450,note_on,0,0,1,,,,,,,,,0,,,80,79
66450,note_on,0,0,4,,,,,,,,,0,,,51,0
66480,note_on,30,0,4,,,,,,,,,0,,,46,81
66480,note_on,0,0,4,,,,,,,,,0,,,49,81
66480,note_on,30,0,1,,,,,,,,,0,,,80,0
66480,note_on,0,0,1,,,,,,,,,0,,,66,81
66510,note_on,30,0,1,,,,,,,,,0,,,66,0
66510,note_on,30,0,4,,,,,,,,,0,,,49,0
66510,note_on,0,0,4,,,,,,,,,0,,,46,0
66510,note_on,0,0,1,,,,,,,,,0,,,78,84
66540,note_on,0,0,1,,,,,,,,,0,,,66,87
66540,note_on,30,0,4,,,,,,,,,0,,,49,87
66540,note_on,30,0,1,,,,,,,,,0,,,78,0
66540,note_on,0,0,4,,,,,,,,,0,,,46,87
66570,note_on,0,0,4,,,,,,,,,0,,,49,0
66570,note_on,30,0,4,,,,,,,,,0,,,46,0
66570,note_on,30,0,1,,,,,,,,,0,,,66,0
66570,note_on,0,0,1,,,,,,,,,0,,,78,89
66600,note_on,0,0,4,,,,,,,,,0,,,48,92
66600,note_on,0,0,4,,,,,,,,,0,,,44,92
66600,note_on,30,0,4,,,,,,,,,0,,,49,92
66600,note_on,30,0,1,,,,,,,,,0,,,78,0
66600,note_on,0,0,1,,,,,,,,,0,,,65,92
66630,note_on,30,0,1,,,,,,,,,0,,,65,0
66630,note_on,30,0,4,,,,,,,,,0,,,48,0
66630,note_on,0,0,4,,,,,,,,,0,,,44,0
66630,note_on,0,0,4,,,,,,,,,0,,,49,0
66630,note_on,0,0,1,,,,,,,,,0,,,77,95
66660,note_on,0,0,1,,,,,,,,,0,,,65,98
66660,note_on,0,0,4,,,,,,,,,0,,,48,98
66660,note_on,30,0,4,,,,,,,,,0,,,49,98
66660,note_on,0,0,4,,,,,,,,,0,,,44,98
66660,note_on,30,0,1,,,,,,,,,0,,,77,0
66690,note_on,30,0,4,,,,,,,,,0,,,44,0
66690,note_on,0,0,4,,,,,,,,,0,,,49,0
66690,note_on,0,0,4,,,,,,,,,0,,,48,0
66690,note_on,30,0,1,,,,,,,,,0,,,65,0
66690,note_on,0,0,1,,,,,,,,,0,,,77,100
66720,note_on,0,0,4,,,,,,,,,0,,,46,100
66720,note_on,0,0,4,,,,,,,,,0,,,43,100
66720,note_on,30,0,4,,,,,,,,,0,,,49,100
66720,note_on,30,0,1,,,,,,,,,0,,,77,0
66720,note_on,0,0,1,,,,,,,,,0,,,76,100
66720,note_on,0,0,1,,,,,,,,,0,,,64,100
66750,note_on,30,0,4,,,,,,,,,0,,,46,0
66750,note_on,0,0,4,,,,,,,,,0,,,49,0
66750,note_on,0,0,4,,,,,,,,,0,,,43,0
66750,note_on,30,0,1,,,,,,,,,0,,,64,0
66750,note_on,0,0,1,,,,,,,,,0,,,76,0
66840,note_on,0,0,1,,,,,,,,,0,,,82,110
66840,note_on,0,0,1,,,,,,,,,0,,,79,110
66840,note_on,0,0,4,,,,,,,,,0,,,52,110
66840,note_on,90,0,4,,,,,,,,,0,,,61,110
66840,note_on,0,0,4,,,,,,,,,0,,,58,110
66840,note_on,0,0,4,,,,,,,,,0,,,55,110
66840,note_on,90,0,1,,,,,,,,,0,,,85,110
66870,note_on,0,0,4,,,,,,,,,0,,,58,0
66870,note_on,30,0,4,,,,,,,,,0,,,52,0
66870,note_on,0,0,4,,,,,,,,,0,,,61,0
66870,note_on,30,0,1,,,,,,,,,0,,,79,0
66870,note_on,0,0,1,,,,,,,,,0,,,82,0
66870,note_on,0,0,1,,,,,,,,,0,,,85,0
66870,note_on,0,0,4,,,,,,,,,0,,,55,0
67035,note_on,165,0,1,,,,,,,,,0,,,72,60
67050,note_on,15,0,1,,,,,,,,,0,,,72,0
67050,note_on,0,0,1,,,,,,,,,0,,,73,60
67065,note_on,15,0,1,,,,,,,,,0,,,73,0
67065,note_on,0,0,1,,,,,,,,,0,,,75,60
67080,note_on,0,0,1,,,,,,,,,0,,,73,60
67080,note_on,15,0,1,,,,,,,,,0,,,75,0
67170,note_on,0,0,1,,,,,,,,,0,,,72,60
67170,note_on,90,0,1,,,,,,,,,0,,,73,0
67200,set_tempo,1920,1,0,,,,,,500042,,,,,,,
67200,note_on,0,0,4,,,,,,,,,0,,,53,60
67200,note_on,30,0,1,,,,,,,,,0,,,72,0
67200,note_on,0,0,1,,,,,,,,,0,,,72,60
67200,note_on,330,0,4,,,,,,,,,0,,,56,60
67214,set_tempo,14,1,0,,,,,,501295,,,,,,,
67228,set_tempo,14,1,0,,,,,,502555,,,,,,,
67240,note_on,40,0,1,,,,,,,,,0,,,72,0
67240,note_on,0,0,1,,,,,,,,,0,,,80,70
67242,set_tempo,14,1,0,,,,,,503821,,,,,,,
67249,set_tempo,7,1,0,,,,,,505093,,,,,,,
67263,set_tempo,14,1,0,,,,,,506372,,,,,,,
67277,set_tempo,14,1,0,,,,,,507657,,,,,,,
67280,note_on,40,0,1,,,,,,,,,0,,,80,0
67280,note_on,0,0,1,,,,,,,,,0,,,79,60
67284,set_tempo,7,1,0,,,,,,508949,,,,,,,
67298,set_tempo,14,1,0,,,,,,510247,,,,,,,
67312,set_tempo,14,1,0,,,,,,511553,,,,,,,
67320,note_on,120,0,4,,,,,,,,,0,,,53,0
67320,note_on,0,0,4,,,,,,,,,0,,,56,0
67320,note_on,0,0,1,,,,,,,,,0,,,77,60
67320,note_on,40,0,1,,,,,,,,,0,,,79,0
67327,set_tempo,15,1,0,,,,,,512864,,,,,,,
67334,set_tempo,7,1,0,,,,,,514183,,,,,,,
67348,set_tempo,14,1,0,,,,,,515508,,,,,,,
67360,note_on,0,0,1,,,,,,,,,0,,,72,60
67360,note_on,40,0,1,,,,,,,,,0,,,77,0
67362,set_tempo,14,1,0,,,,,,516840,,,,,,,
67369,set_tempo,7,1,0,,,,,,518179,,,,,,,
67383,set_tempo,14,1,0,,,,,,519526,,,,,,,
67397,set_tempo,14,1,0,,,,,,520879,,,,,,,
67400,note_on,0,0,1,,,,,,,,,0,,,68,60
67400,note_on,40,0,1,,,,,,,,,0,,,72,0
67411,set_tempo,14,1,0,,,,,,522239,,,,,,,
67418,set_tempo,7,1,0,,,,,,523606,,,,,,,
67432,set_tempo,14,1,0,,,,,,524980,,,,,,,
67440,note_on,40,0,1,,,,,,,,,0,,,68,0
67440,note_on,0,0,1,,,,,,,,,0,,,67,60
67440,note_on,120,0,4,,,,,,,,,0,,,55,60
67440,note_on,0,0,4,,,,,,,,,0,,,49,60
67440,note_on,0,0,4,,,,,,,,,0,,,46,60
67447,set_tempo,15,1,0,,,,,,526362,,,,,,,
67454,set_tempo,7,1,0,,,,,,527751,,,,,,,
67468,set_tempo,14,1,0,,,,,,529147,,,,,,,
67480,note_on,0,0,1,,,,,,,,,0,,,75,70
67480,note_on,40,0,1,,,,,,,,,0,,,67,0
67482,set_tempo,14,1,0,,,,,,530551,,,,,,,
67496,set_tempo,14,1,0,,,,,,531962,,,,,,,
67503,set_tempo,7,1,0,,,,,,533381,,,,,,,
67517,set_tempo,14,1,0,,,,,,534807,,,,,,,
67520,note_on,40,0,1,,,,,,,,,0,,,75,0
67520,note_on,0,0,1,,,,,,,,,0,,,72,60
67531,set_tempo,14,1,0,,,,,,536241,,,,,,,
67538,set_tempo,7,1,0,,,,,,537683,,,,,,,
67552,set_tempo,14,1,0,,,,,,539132,,,,,,,
67560,note_on,120,0,4,,,,,,,,,0,,,46,0
67560,note_on,0,0,1,,,,,,,,,0,,,73,60
67560,note_on,0,0,4,,,,,,,,,0,,,55,0
67560,note_on,40,0,1,,,,,,,,,0,,,72,0
67560,note_on,0,0,4,,,,,,,,,0,,,49,0
67567,set_tempo,15,1,0,,,,,,540589,,,,,,,
67574,set_tempo,7,1,0,,,,,,542054,,,,,,,
67588,set_tempo,14,1,0,,,,,,543527,,,,,,,
67600,note_on,40,0,1,,,,,,,,,0,,,73,0
67600,note_on,0,0,1,,,,,,,,,0,,,70,60
67602,set_tempo,14,1,0,,,,,,545009,,,,,,,
67616,set_tempo,14,1,0,,,,,,546498,,,,,,,
67623,set_tempo,7,1,0,,,,,,547995,,,,,,,
67637,set_tempo,14,1,0,,,,,,549501,,,,,,,
67640,note_on,40,0,1,,,,,,,,,0,,,70,0
67640,note_on,0,0,1,,,,,,,,,0,,,67,60
67651,set_tempo,14,1,0,,,,,,551015,,,,,,,
67658,set_tempo,7,1,0,,,,,,552537,,,,,,,
67672,set_tempo,14,1,0,,,,,,554068,,,,,,,
67680,note_on,120,0,4,,,,,,,,,0,,,56,60
67680,note_on,0,0,1,,,,,,,,,0,,,65,60
67680,note_on,0,0,4,,,,,,,,,0,,,48,60
67680,note_on,40,0,1,,,,,,,,,0,,,67,0
67680,note_on,0,0,4,,,,,,,,,0,,,53,60
67687,set_tempo,15,1,0,,,,,,555607,,,,,,,
67701,set_tempo,14,1,0,,,,,,557155,,,,,,,
67708,set_tempo,7,1,0,,,,,,558711,,,,,,,
67710,note_on,0,0,4,,,,,,,,,0,,,56,0
67710,note_on,30,0,4,,,,,,,,,0,,,48,0
67710,note_on,0,0,4,,,,,,,,,0,,,53,0
67720,note_on,0,0,1,,,,,,,,,0,,,60,63
67720,note_on,40,0,1,,,,,,,,,0,,,65,0
67722,set_tempo,14,1,0,,,,,,560276,,,,,,,
67736,set_tempo,14,1,0,,,,,,561850,,,,,,,
67743,set_tempo,7,1,0,,,,,,563433,,,,,,,
67757,set_tempo,14,1,0,,,,,,565025,,,,,,,
67760,note_on,40,0,1,,,,,,,,,0,,,60,0
67760,note_on,0,0,1,,,,,,,,,0,,,65,67
67771,set_tempo,14,1,0,,,,,,566626,,,,,,,
67785,set_tempo,14,1,0,,,,,,568236,,,,,,,
67792,set_tempo,7,1,0,,,,,,569855,,,,,,,
67800,note_on,0,0,1,,,,,,,,,0,,,68,70
67800,note_on,90,0,4,,,,,,,,,0,,,56,70
67800,note_on,40,0,1,,,,,,,,,0,,,65,0
67807,set_tempo,15,1,0,,,,,,571483,,,,,,,
67821,set_tempo,14,1,0,,,,,,573121,,,,,,,
67828,set_tempo,7,1,0,,,,,,574768,,,,,,,
67840,note_on,0,0,1,,,,,,,,,0,,,65,74
67840,note_on,0,0,4,,,,,,,,,0,,,53,74
67840,note_on,40,0,1,,,,,,,,,0,,,68,0
67840,note_on,40,0,4,,,,,,,,,0,,,56,0
67842,set_tempo,14,1,0,,,,,,576424,,,,,,,
67856,set_tempo,14,1,0,,,,,,578090,,,,,,,
67863,set_tempo,7,1,0,,,,,,579766,,,,,,,
67877,set_tempo,14,1,0,,,,,,581452,,,,,,,
67880,note_on,40,0,4,,,,,,,,,0,,,53,0
67880,note_on,0,0,4,,,,,,,,,0,,,61,78
67880,note_on,0,0,1,,,,,,,,,0,,,73,78
67880,note_on,40,0,1,,,,,,,,,0,,,65,0
67891,set_tempo,14,1,0,,,,,,583147,,,,,,,
67905,set_tempo,14,1,0,,,,,,584852,,,,,,,
67912,set_tempo,7,1,0,,,,,,586568,,,,,,,
67920,note_on,40,0,1,,,,,,,,,0,,,73,0
67920,note_on,40,0,4,,,,,,,,,0,,,61,0
67920,note_on,0,0,4,,,,,,,,,0,,,60,81
67920,note_on,0,0,1,,,,,,,,,0,,,72,81
67927,set_tempo,15,1,0,,,,,,588293,,,,,,,
67941,set_tempo,14,1,0,,,,,,590029,,,,,,,
67948,set_tempo,7,1,0,,,,,,591774,,,,,,,
67950,note_on,30,0,1,,,,,,,,,0,,,72,0
67950,note_on,30,0,4,,,,,,,,,0,,,60,0
67962,set_tempo,14,1,0,,,,,,593531,,,,,,,
67976,set_tempo,14,1,0,,,,,,595297,,,,,,,
67990,set_tempo,14,1,0,,,,,,597074,,,,,,,
67997,set_tempo,7,1,0,,,,,,598862,,,,,,,
68011,set_tempo,14,1,0,,,,,,600661,,,,,,,
68025,set_tempo,14,1,0,,,,,,602470,,,,,,,
68032,set_tempo,7,1,0,,,,,,604290,,,,,,,
68040,note_on,0,0,4,,,,,,,,,0,,,60,102
68040,note_on,90,0,4,,,,,,,,,0,,,48,102
68040,note_on,0,0,1,,,,,,,,,0,,,72,102
68040,note_on,90,0,1,,,,,,,,,0,,,76,102
68040,note_on,0,0,1,,,,,,,,,0,,,67,102
68047,set_tempo,15,1,0,,,,,,606122,,,,,,,
68061,set_tempo,14,1,0,,,,,,607964,,,,,,,
68070,note_on,30,0,4,,,,,,,,,0,,,60,0
68070,note_on,0,0,1,,,,,,,,,0,,,72,0
68070,note_on,0,0,4,,,,,,,,,0,,,48,0
68070,note_on,30,0,1,,,,,,,,,0,,,67,0
68070,note_on,0,0,1,,,,,,,,,0,,,76,0
68075,set_tempo,14,1,0,,,,,,609818,,,,,,,
68082,set_tempo,7,1,0,,,,,,611683,,,,,,,
68096,set_tempo,14,1,0,,,,,,613560,,,,,,,
68110,set_tempo,14,1,0,,,,,,615448,,,,,,,
68117,set_tempo,7,1,0,,,,,,617347,,,,,,,
68131,set_tempo,14,1,0,,,,,,619259,,,,,,,
68145,set_tempo,14,1,0,,,,,,621182,,,,,,,
68152,set_tempo,7,1,0,,,,,,623118,,,,,,,
68160,set_tempo,8,1,0,,,,,,500000,,,,,,,
68160,note_on,90,0,4,,,,,,,,,0,,,41,110
68160,note_on,0,0,4,,,,,,,,,0,,,53,110
68160,note_on,0,0,1,,,,,,,,,0,,,68,110
68160,note_on,0,0,1,,,,,,,,,0,,,72,110
68160,note_on,90,0,1,,,,,,,,,0,,,77,110
68160,marker,0,1,0,,,,,,,,,,,,,
68190,note_on,30,0,4,,,,,,,,,0,,,53,0
68190,note_on,0,0,4,,,,,,,,,0,,,41,0
68190,note_on,30,0,1,,,,,,,,,0,,,68,0
68190,note_on,0,0,1,,,,,,,,,0,,,72,0
68190,note_on,0,0,1,,,,,,,,,0,,,77,0
68220,note_on,30,0,1,,,,,,,,,0,,,68,40
68250,note_on,30,0,1,,,,,,,,,0,,,68,0
68250,note_on,0,0,1,,,,,,,,,0,,,72,40
68280,note_on,30,0,1,,,,,,,,,0,,,72,0
68280,note_on,0,0,1,,,,,,,,,0,,,68,40
68280,control_change,2400,0,5,,,,,,,,,0,64,127,,
68280,note_on,90,0,4,,,,,,,,,0,,,65,50
68280,note_on,0,0,4,,,,,,,,,0,,,53,50
68310,note_on,30,0,1,,,,,,,,,0,,,68,0
68310,note_on,0,0,1,,,,,,,,,0,,,72,40
68340,note_on,0,0,1,,,,,,,,,0,,,68,40
68340,note_on,30,0,1,,,,,,,,,0,,,72,0
68370,note_on,0,0,1,,,,,,,,,0,,,72,40
68370,note_on,30,0,1,,,,,,,,,0,,,68,0
68400,note_on,30,0,1,,,,,,,,,0,,,72,0
68400,control_change,120,0,5,,,,,,,,,0,64,0,,
68400,note_on,0,0,1,,,,,,,,,0,,,67,40
68400,note_on,0,0,4,,,,,,,,,0,,,65,0
68400,note_on,120,0,4,,,,,,,,,0,,,53,0
68430,note_on,30,0,1,,,,,,,,,0,,,67,0
68430,note_on,0,0,1,,,,,,,,,0,,,71,40
68460,note_on,30,0,1,,,,,,,,,0,,,71,0
68460,note_on,0,0,1,,,,,,,,,0,,,68,40
68490,note_on,30,0,1,,,,,,,,,0,,,68,0
68490,note_on,0,0,1,,,,,,,,,0,,,72,40
68520,note_on,0,0,4,,,,,,,,,0,,,65,50
68520,note_on,120,0,4,,,,,,,,,0,,,53,50
68520,control_change,120,0,5,,,,,,,,,0,64,127,,
68520,note_on,30,0,1,,,,,,,,,0,,,72,0
68520,note_on,0,0,1,,,,,,,,,0,,,68,40
68550,note_on,0,0,1,,,,,,,,,0,,,72,40
68550,note_on,30,0,1,,,,,,,,,0,,,68,0
68580,note_on,30,0,1,,,,,,,,,0,,,72,0
68580,note_on,0,0,1,,,,,,,,,0,,,68,40
68610,note_on,0,0,1,,,,,,,,,0,,,72,40
68610,note_on,30,0,1,,,,,,,,,0,,,68,0
68640,note_on,0,0,1,,,,,,,,,0,,,69,40
68640,note_on,120,0,4,,,,,,,,,0,,,65,0
68640,note_on,30,0,1,,,,,,,,,0,,,72,0
68640,note_on,0,0,4,,,,,,,,,0,,,53,0
68640,control_change,120,0,5,,,,,,,,,0,64,0,,
68670,note_on,30,0,1,,,,,,,,,0,,,69,0
68670,note_on,0,0,1,,,,,,,,,0,,,75,40
68700,note_on,30,0,1,,,,,,,,,0,,,75,0
68700,note_on,0,0,1,,,,,,,,,0,,,70,40
68730,note_on,30,0,1,,,,,,,,,0,,,70,0
68730,note_on,0,0,1,,,,,,,,,0,,,73,40
68760,note_on,120,0,4,,,,,,,,,0,,,65,50
68760,note_on,30,0,1,,,,,,,,,0,,,73,0
68760,note_on,0,0,1,,,,,,,,,0,,,70,40
68760,note_on,0,0,4,,,,,,,,,0,,,53,50
68760,control_change,120,0,5,,,,,,,,,0,64,127,,
68790,note_on,30,0,1,,,,,,,,,0,,,70,0
68790,note_on,0,0,1,,,,,,,,,0,,,73,40
68820,note_on,30,0,1,,,,,,,,,0,,,73,0
68820,note_on,0,0,1,,,,,,,,,0,,,70,40
68850,note_on,30,0,1,,,,,,,,,0,,,70,0
68850,note_on,0,0,1,,,,,,,,,0,,,73,40
68880,note_on,0,0,1,,,,,,,,,0,,,73,40
68880,note_on,30,0,1,,,,,,,,,0,,,73,0
68880,note_on,120,0,4,,,,,,,,,0,,,53,0
68880,note_on,0,0,4,,,,,,,,,0,,,65,0
68880,control_change,120,0,5,,,,,,,,,0,64,0,,
68910,note_on,30,0,1,,,,,,,,,0,,,73,0
68910,note_on,0,0,1,,,,,,,,,0,,,77,40
68940,note_on,30,0,1,,,,,,,,,0,,,77,0
68940,note_on,0,0,1,,,,,,,,,0,,,70,40
68970,note_on,0,0,1,,,,,,,,,0,,,73,40
68970,note_on,30,0,1,,,,,,,,,0,,,70,0
69000,note_on,0,0,1,,,,,,,,,0,,,68,40
69000,note_on,0,0,4,,,,,,,,,0,,,53,50
69000,note_on,120,0,4,,,,,,,,,0,,,65,50
69000,control_change,120,0,5,,,,,,,,,0,64,127,,
69000,note_on,30,0,1,,,,,,,,,0,,,73,0
69030,note_on,30,0,1,,,,,,,,,0,,,68,0
69030,note_on,0,0,1,,,,,,,,,0,,,73,40
69060,note_on,0,0,1,,,,,,,,,0,,,67,40
69060,note_on,30,0,1,,,,,,,,,0,,,73,0
69090,note_on,0,0,1,,,,,,,,,0,,,73,40
69090,note_on,30,0,1,,,,,,,,,0,,,67,0
69120,note_on,0,0,4,,,,,,,,,0,,,65,0
69120,note_on,0,0,1,,,,,,,,,0,,,68,40
69120,note_on,30,0,1,,,,,,,,,0,,,73,0
69120,control_change,120,0,5,,,,,,,,,0,64,0,,
69120,note_on,120,0,4,,,,,,,,,0,,,53,0
69150,note_on,30,0,1,,,,,,,,,0,,,68,0
69150,note_on,0,0,1,,,,,,,,,0,,,73,40
69180,note_on,0,0,1,,,,,,,,,0,,,68,40
69180,note_on,30,0,1,,,,,,,,,0,,,73,0
69210,note_on,30,0,1,,,,,,,,,0,,,68,0
69210,note_on,0,0,1,,,,,,,,,0,,,72,40
69240,note_on,0,0,1,,,,,,,,,0,,,68,40
69240,note_on,120,0,4,,,,,,,,,0,,,65,50
69240,control_change,120,0,5,,,,,,,,,0,64,127,,
69240,note_on,30,0,1,,,,,,,,,0,,,72,0
69240,note_on,0,0,4,,,,,,,,,0,,,53,50
69270,note_on,30,0,1,,,,,,,,,0,,,68,0
69270,note_on,0,0,1,,,,,,,,,0,,,72,40
69300,note_on,30,0,1,,,,,,,,,0,,,72,0
69300,note_on,0,0,1,,,,,,,,,0,,,68,40
69330,note_on,0,0,1,,,,,,,,,0,,,72,40
69330,note_on,30,0,1,,,,,,,,,0,,,68,0
69360,note_on,0,0,4,,,,,,,,,0,,,65,0
69360,note_on,0,0,4,,,,,,,,,0,,,46,50
69360,control_change,120,0,5,,,,,,,,,0,64,0,,
69360,note_on,120,0,4,,,,,,,,,0,,,53,0
69360,note_on,0,0,1,,,,,,,,,0,,,68,40
69360,note_on,30,0,1,,,,,,,,,0,,,72,0
69390,note_on,30,0,1,,,,,,,,,0,,,68,0
69390,note_on,0,0,1,,,,,,,,,0,,,72,40
69390,note_on,30,0,4,,,,,,,,,0,,,46,0
69420,note_on,0,0,1,,,,,,,,,0,,,66,40
69420,note_on,30,0,1,,,,,,,,,0,,,72,0
69450,note_on,0,0,1,,,,,,,,,0,,,70,40
69450,note_on,30,0,1,,,,,,,,,0,,,66,0
69480,note_on,30,0,1,,,,,,,,,0,,,70,0
69480,note_on,0,0,1,,,,,,,,,0,,,66,40
69480,note_on,0,0,4,,,,,,,,,0,,,54,50
69480,note_on,90,0,4,,,,,,,,,0,,,58,50
69510,note_on,30,0,4,,,,,,,,,0,,,54,0
69510,note_on,0,0,4,,,,,,,,,0,,,58,0
69510,note_on,0,0,1,,,,,,,,,0,,,70,40
69510,note_on,30,0,1,,,,,,,,,0,,,66,0
69540,note_on,0,0,1,,,,,,,,,0,,,66,40
69540,note_on,30,0,1,,,,,,,,,0,,,70,0
69570,note_on,0,0,1,,,,,,,,,0,,,70,40
69570,note_on,30,0,1,,,,,,,,,0,,,66,0
69600,note_on,90,0,4,,,,,,,,,0,,,48,50
69600,note_on,0,0,1,,,,,,,,,0,,,66,40
69600,note_on,30,0,1,,,,,,,,,0,,,70,0
69630,note_on,30,0,1,,,,,,,,,0,,,66,0
69630,note_on,30,0,4,,,,,,,,,0,,,48,0
69630,note_on,0,0,1,,,,,,,,,0,,,70,40
69660,note_on,0,0,1,,,,,,,,,0,,,65,40
69660,note_on,30,0,1,,,,,,,,,0,,,70,0
69690,note_on,0,0,1,,,,,,,,,0,,,68,40
69690,note_on,30,0,1,,,,,,,,,0,,,65,0
69720,note_on,90,0,4,,,,,,,,,0,,,56,50
69720,note_on,0,0,4,,,,,,,,,0,,,53,50
69720,note_on,0,0,1,,,,,,,,,0,,,65,40
69720,note_on,30,0,1,,,,,,,,,0,,,68,0
69750,note_on,30,0,4,,,,,,,,,0,,,53,0
69750,note_on,0,0,4,,,,,,,,,0,,,56,0
69750,note_on,30,0,1,,,,,,,,,0,,,65,0
69750,note_on,0,0,1,,,,,,,,,0,,,68,40
69780,note_on,0,0,1,,,,,,,,,0,,,65,40
69780,note_on,30,0,1,,,,,,,,,0,,,68,0
69810,note_on,0,0,1,,,,,,,,,0,,,68,40
69810,note_on,30,0,1,,,,,,,,,0,,,65,0
69840,note_on,30,0,1,,,,,,,,,0,,,68,0
69840,note_on,90,0,4,,,,,,,,,0,,,48,50
69840,note_on,0,0,1,,,,,,,,,0,,,65,40
69870,note_on,30,0,4,,,,,,,,,0,,,48,0
69870,note_on,0,0,1,,,,,,,,,0,,,68,40
69870,note_on,30,0,1,,,,,,,,,0,,,65,0
69900,note_on,0,0,1,,,,,,,,,0,,,64,40
69900,note_on,30,0,1,,,,,,,,,0,,,68,0
69930,note_on,0,0,1,,,,,,,,,0,,,67,40
69930,note_on,30,0,1,,,,,,,,,0,,,64,0
69960,note_on,0,0,1,,,,,,,,,0,,,64,40
69960,note_on,30,0,1,,,,,,,,,0,,,67,0
69960,note_on,90,0,4,,,,,,,,,0,,,55,50
69960,note_on,0,0,4,,,,,,,,,0,,,52,50
69990,note_on,30,0,1,,,,,,,,,0,,,64,0
69990,note_on,0,0,4,,,,,,,,,0,,,55,0
69990,note_on,0,0,1,,,,,,,,,0,,,67,40
69990,note_on,30,0,4,,,,,,,,,0,,,52,0
70020,note_on,30,0,1,,,,,,,,,0,,,67,0
70020,note_on,0,0,1,,,,,,,,,0,,,64,40
70050,note_on,30,0,1,,,,,,,,,0,,,64,0
70050,note_on,0,0,1,,,,,,,,,0,,,67,40
70080,note_on,90,0,4,,,,,,,,,0,,,41,50
70080,note_on,30,0,1,,,,,,,,,0,,,67,0
70080,note_on,0,0,1,,,,,,,,,0,,,65,40
70080,key_signature,1920,1,0,,,,,F,,,,,,,,
70110,note_on,30,0,4,,,,,,,,,0,,,41,0
70110,note_on,30,0,1,,,,,,,,,0,,,65,0
70140,note_on,30,0,1,,,,,,,,,0,,,69,40
70170,note_on,30,0,1,,,,,,,,,0,,,69,0
70170,note_on,0,0,1,,,,,,,,,0,,,72,40
70200,control_change,840,0,5,,,,,,,,,0,64,127,,
70200,note_on,90,0,4,,,,,,,,,0,,,65,50
70200,note_on,0,0,4,,,,,,,,,0,,,53,50
70200,note_on,30,0,1,,,,,,,,,0,,,72,0
70200,note_on,0,0,1,,,,,,,,,0,,,69,40
70230,note_on,0,0,1,,,,,,,,,0,,,72,40
70230,note_on,30,0,1,,,,,,,,,0,,,69,0
70260,note_on,30,0,1,,,,,,,,,0,,,72,0
70260,note_on,0,0,1,,,,,,,,,0,,,69,40
70290,note_on,30,0,1,,,,,,,,,0,,,69,0
70290,note_on,0,0,1,,,,,,,,,0,,,72,40
70320,note_on,120,0,4,,,,,,,,,0,,,53,0
70320,note_on,0,0,4,,,,,,,,,0,,,65,0
70320,control_change,120,0,5,,,,,,,,,0,64,0,,
70320,note_on,0,0,1,,,,,,,,,0,,,68,40
70320,note_on,30,0,1,,,,,,,,,0,,,72,0
70350,note_on,0,0,1,,,,,,,,,0,,,71,40
70350,note_on,30,0,1,,,,,,,,,0,,,68,0
70380,note_on,30,0,1,,,,,,,,,0,,,71,0
70380,note_on,0,0,1,,,,,,,,,0,,,69,40
70410,note_on,30,0,1,,,,,,,,,0,,,69,0
70410,note_on,0,0,1,,,,,,,,,0,,,72,40
70440,control_change,120,0,5,,,,,,,,,0,64,127,,
70440,note_on,0,0,1,,,,,,,,,0,,,69,40
70440,note_on,30,0,1,,,,,,,,,0,,,72,0
70440,note_on,120,0,4,,,,,,,,,0,,,53,50
70440,note_on,0,0,4,,,,,,,,,0,,,65,50
70470,note_on,0,0,1,,,,,,,,,0,,,72,40
70470,note_on,30,0,1,,,,,,,,,0,,,69,0
70500,note_on,0,0,1,,,,,,,,,0,,,69,40
70500,note_on,30,0,1,,,,,,,,,0,,,72,0
70530,note_on,0,0,1,,,,,,,,,0,,,72,40
70530,note_on,30,0,1,,,,,,,,,0,,,69,0
70560,note_on,120,0,4,,,,,,,,,0,,,65,0
70560,note_on,0,0,4,,,,,,,,,0,,,53,0
70560,note_on,30,0,1,,,,,,,,,0,,,72,0
70560,control_change,120,0,5,,,,,,,,,0,64,0,,
70560,note_on,0,0,1,,,,,,,,,0,,,69,40
70590,note_on,0,0,1,,,,,,,,,0,,,75,40
70590,note_on,30,0,1,,,,,,,,,0,,,69,0
70620,note_on,0,0,1,,,,,,,,,0,,,70,40
70620,note_on,30,0,1,,,,,,,,,0,,,75,0
70650,note_on,0,0,1,,,,,,,,,0,,,74,40
70650,note_on,30,0,1,,,,,,,,,0,,,70,0
70680,note_on,30,0,1,,,,,,,,,0,,,74,0
70680,note_on,0,0,1,,,,,,,,,0,,,70,40
70680,control_change,120,0,5,,,,,,,,,0,64,127,,
70680,note_on,0,0,4,,,,,,,,,0,,,53,50
70680,note_on,120,0,4,,,,,,,,,0,,,65,50
70710,note_on,0,0,1,,,,,,,,,0,,,74,40
70710,note_on,30,0,1,,,,,,,,,0,,,70,0
70740,note_on,30,0,1,,,,,,,,,0,,,74,0
70740,note_on,0,0,1,,,,,,,,,0,,,70,40
70770,note_on,0,0,1,,,,,,,,,0,,,74,40
70770,note_on,30,0,1,,,,,,,,,0,,,70,0
70800,control_change,120,0,5,,,,,,,,,0,64,0,,
70800,note_on,30,0,1,,,,,,,,,0,,,74,0
70800,note_on,0,0,1,,,,,,,,,0,,,74,40
70800,note_on,120,0,4,,,,,,,,,0,,,53,0
70800,note_on,0,0,4,,,,,,,,,0,,,65,0
70830,note_on,0,0,1,,,,,,,,,0,,,77,40
70830,note_on,30,0,1,,,,,,,,,0,,,74,0
70860,note_on,0,0,1,,,,,,,,,0,,,70,40
70860,note_on,30,0,1,,,,,,,,,0,,,77,0
70890,note_on,0,0,1,,,,,,,,,0,,,74,40
70890,note_on,30,0,1,,,,,,,,,0,,,70,0
70920,note_on,0,0,1,,,,,,,,,0,,,69,40
70920,note_on,30,0,1,,,,,,,,,0,,,74,0
70920,note_on,120,0,4,,,,,,,,,0,,,65,50
70920,note_on,0,0,4,,,,,,,,,0,,,53,50
70920,control_change,120,0,5,,,,,,,,,0,64,127,,
70950,note_on,30,0,1,,,,,,,,,0,,,69,0
70950,note_on,0,0,1,,,,,,,,,0,,,74,40
70980,note_on,30,0,1,,,,,,,,,0,,,74,0
70980,note_on,0,0,1,,,,,,,,,0,,,68,40
71010,note_on,30,0,1,,,,,,,,,0,,,68,0
71010,note_on,0,0,1,,,,,,,,,0,,,74,40
71040,note_on,0,0,1,,,,,,,,,0,,,69,40
71040,note_on,30,0,1,,,,,,,,,0,,,74,0
71040,note_on,120,0,4,,,,,,,,,0,,,53,0
71040,control_change,120,0,5,,,,,,,,,0,64,0,,
71040,note_on,0,0,4,,,,,,,,,0,,,65,0
71070,note_on,30,0,1,,,,,,,,,0,,,69,0
71070,note_on,0,0,1,,,,,,,,,0,,,74,40
71100,note_on,30,0,1,,,,,,,,,0,,,74,0
71100,note_on,0,0,1,,,,,,,,,0,,,69,40
71130,note_on,30,0,1,,,,,,,,,0,,,69,0
71130,note_on,0,0,1,,,,,,,,,0,,,72,40
71160,note_on,120,0,4,,,,,,,,,0,,,65,50
71160,control_change,120,0,5,,,,,,,,,0,64,127,,
71160,note_on,30,0,1,,,,,,,,,0,,,72,0
71160,note_on,0,0,1,,,,,,,,,0,,,69,40
71160,note_on,0,0,4,,,,,,,,,0,,,53,50
71190,note_on,30,0,1,,,,,,,,,0,,,69,0
71190,note_on,0,0,1,,,,,,,,,0,,,72,40
71220,note_on,30,0,1,,,,,,,,,0,,,72,0
71220,note_on,0,0,1,,,,,,,,,0,,,69,40
71250,note_on,30,0,1,,,,,,,,,0,,,69,0
71250,note_on,0,0,1,,,,,,,,,0,,,72,40
71280,note_on,30,0,1,,,,,,,,,0,,,72,0
71280,note_on,0,0,4,,,,,,,,,0,,,46,50
71280,note_on,0,0,4,,,,,,,,,0,,,65,0
71280,note_on,0,0,1,,,,,,,,,0,,,69,40
71280,note_on,120,0,4,,,,,,,,,0,,,53,0
71280,control_change,120,0,5,,,,,,,,,0,64,0,,
71310,note_on,0,0,1,,,,,,,,,0,,,72,40
71310,note_on,30,0,1,,,,,,,,,0,,,69,0
71310,note_on,30,0,4,,,,,,,,,0,,,46,0
71340,note_on,30,0,1,,,,,,,,,0,,,72,0
71340,note_on,0,0,1,,,,,,,,,0,,,62,40
71370,note_on,30,0,1,,,,,,,,,0,,,62,0
71370,note_on,0,0,1,,,,,,,,,0,,,67,40
71400,note_on,0,0,4,,,,,,,,,0,,,55,50
71400,note_on,90,0,4,,,,,,,,,0,,,58,50
71400,note_on,0,0,1,,,,,,,,,0,,,70,40
71400,note_on,30,0,1,,,,,,,,,0,,,67,0
71430,note_on,30,0,1,,,,,,,,,0,,,70,0
71430,note_on,30,0,4,,,,,,,,,0,,,55,0
71430,note_on,0,0,4,,,,,,,,,0,,,58,0
71430,note_on,0,0,1,,,,,,,,,0,,,74,40
71460,note_on,0,0,1,,,,,,,,,0,,,72,40
71460,note_on,30,0,1,,,,,,,,,0,,,74,0
71490,note_on,0,0,1,,,,,,,,,0,,,70,40
71490,note_on,30,0,1,,,,,,,,,0,,,72,0
71520,note_on,0,0,1,,,,,,,,,0,,,67,40
71520,note_on,30,0,1,,,,,,,,,0,,,70,0
71520,note_on,90,0,4,,,,,,,,,0,,,48,50
71550,note_on,0,0,1,,,,,,,,,0,,,70,40
71550,note_on,30,0,1,,,,,,,,,0,,,67,0
71550,note_on,30,0,4,,,,,,,,,0,,,48,0
71580,note_on,0,0,1,,,,,,,,,0,,,60,40
71580,note_on,30,0,1,,,,,,,,,0,,,70,0
71610,note_on,30,0,1,,,,,,,,,0,,,60,0
71610,note_on,0,0,1,,,,,,,,,0,,,65,40
71640,note_on,0,0,4,,,,,,,,,0,,,53,50
71640,note_on,90,0,4,,,,,,,,,0,,,57,50
71640,note_on,0,0,1,,,,,,,,,0,,,69,40
71640,note_on,30,0,1,,,,,,,,,0,,,65,0
71670,note_on,30,0,4,,,,,,,,,0,,,53,0
71670,note_on,0,0,4,,,,,,,,,0,,,57,0
71670,note_on,0,0,1,,,,,,,,,0,,,72,40
71670,note_on,30,0,1,,,,,,,,,0,,,69,0
71700,note_on,0,0,1,,,,,,,,,0,,,70,40
71700,note_on,30,0,1,,,,,,,,,0,,,72,0
71730,note_on,30,0,1,,,,,,,,,0,,,70,0
71730,note_on,0,0,1,,,,,,,,,0,,,69,40
71760,note_on,30,0,1,,,,,,,,,0,,,69,0
71760,note_on,90,0,4,,,,,,,,,0,,,48,50
71760,note_on,0,0,1,,,,,,,,,0,,,66,40
71790,note_on,0,0,1,,,,,,,,,0,,,69,40
71790,note_on,30,0,4,,,,,,,,,0,,,48,0
71790,note_on,30,0,1,,,,,,,,,0,,,66,0
71820,note_on,30,0,1,,,,,,,,,0,,,69,0
71820,note_on,0,0,1,,,,,,,,,0,,,60,40
71850,note_on,30,0,1,,,,,,,,,0,,,60,0
71850,note_on,0,0,1,,,,,,,,,0,,,64,40
71880,note_on,0,0,4,,,,,,,,,0,,,52,50
71880,note_on,90,0,4,,,,,,,,,0,,,58,50
71880,note_on,30,0,1,,,,,,,,,0,,,64,0
71880,note_on,0,0,1,,,,,,,,,0,,,67,40
71910,note_on,0,0,4,,,,,,,,,0,,,58,0
71910,note_on,30,0,4,,,,,,,,,0,,,52,0
71910,note_on,30,0,1,,,,,,,,,0,,,67,0
71910,note_on,0,0,1,,,,,,,,,0,,,70,40
71940,note_on,30,0,1,,,,,,,,,0,,,70,0
71940,note_on,0,0,1,,,,,,,,,0,,,69,40
71970,note_on,30,0,1,,,,,,,,,0,,,69,0
71970,note_on,0,0,1,,,,,,,,,0,,,67,40
72000,note_on,0,0,4,,,,,,,,,0,,,53,50
72000,note_on,90,0,4,,,,,,,,,0,,,57,50
72000,note_on,30,0,1,,,,,,,,,0,,,67,0
72000,note_on,0,0,1,,,,,,,,,0,,,65,40
72030,note_on,30,0,1,,,,,,,,,0,,,65,0
72030,note_on,30,0,4,,,,,,,,,0,,,53,0
72030,note_on,0,0,4,,,,,,,,,0,,,57,0
72060,note_on,30,0,4,,,,,,,,,0,,,60,50
72060,note_on,30,0,1,,,,,,,,,0,,,69,40
72090,note_on,0,0,1,,,,,,,,,0,,,72,40
72090,note_on,30,0,4,,,,,,,,,0,,,60,0
72090,note_on,30,0,1,,,,,,,,,0,,,69,0
72120,note_on,0,0,1,,,,,,,,,0,,,69,40
72120,note_on,30,0,4,,,,,,,,,0,,,60,50
72120,note_on,30,0,1,,,,,,,,,0,,,72,0
72150,note_on,30,0,1,,,,,,,,,0,,,69,0
72150,note_on,0,0,1,,,,,,,,,0,,,72,40
72150,note_on,30,0,4,,,,,,,,,0,,,60,0
72180,note_on,30,0,1,,,,,,,,,0,,,72,0
72180,note_on,30,0,4,,,,,,,,,0,,,60,50
72180,note_on,0,0,1,,,,,,,,,0,,,69,40
72210,note_on,30,0,4,,,,,,,,,0,,,60,0
72210,note_on,0,0,1,,,,,,,,,0,,,72,40
72210,note_on,30,0,1,,,,,,,,,0,,,69,0
72240,note_on,30,0,4,,,,,,,,,0,,,61,60
72240,note_on,30,0,1,,,,,,,,,0,,,72,0
72240,note_on,0,0,1,,,,,,,,,0,,,68,40
72270,note_on,30,0,1,,,,,,,,,0,,,68,0
72270,note_on,0,0,1,,,,,,,,,0,,,71,40
72300,note_on,0,0,1,,,,,,,,,0,,,69,40
72300,note_on,0,0,4,,,,,,,,,0,,,60,50
72300,note_on,60,0,4,,,,,,,,,0,,,61,0
72300,note_on,30,0,1,,,,,,,,,0,,,71,0
72330,note_on,30,0,4,,,,,,,,,0,,,60,0
72330,note_on,30,0,1,,,,,,,,,0,,,69,0
72330,note_on,0,0,1,,,,,,,,,0,,,72,40
72360,note_on,0,0,1,,,,,,,,,0,,,69,40
72360,note_on,30,0,1,,,,,,,,,0,,,72,0
72360,note_on,30,0,4,,,,,,,,,0,,,60,50
72390,note_on,30,0,1,,,,,,,,,0,,,69,0
72390,note_on,0,0,1,,,,,,,,,0,,,72,40
72390,note_on,30,0,4,,,,,,,,,0,,,60,0
72420,note_on,0,0,1,,,,,,,,,0,,,69,40
72420,note_on,30,0,1,,,,,,,,,0,,,72,0
72420,note_on,30,0,4,,,,,,,,,0,,,60,50
72450,note_on,30,0,4,,,,,,,,,0,,,60,0
72450,note_on,0,0,1,,,,,,,,,0,,,72,40
72450,note_on,30,0,1,,,,,,,,,0,,,69,0
72480,note_on,30,0,1,,,,,,,,,0,,,72,0
72480,note_on,30,0,4,,,,,,,,,0,,,48,50
72480,note_on,0,0,1,,,,,,,,,0,,,69,40
72510,note_on,30,0,1,,,,,,,,,0,,,69,0
72510,note_on,0,0,1,,,,,,,,,0,,,72,40
72510,note_on,30,0,4,,,,,,,,,0,,,48,0
72540,note_on,30,0,4,,,,,,,,,0,,,60,50
72540,note_on,30,0,1,,,,,,,,,0,,,72,0
72540,note_on,0,0,1,,,,,,,,,0,,,70,40
72570,note_on,0,0,1,,,,,,,,,0,,,73,40
72570,note_on,30,0,1,,,,,,,,,0,,,70,0
72570,note_on,30,0,4,,,,,,,,,0,,,60,0
72600,note_on,30,0,4,,,,,,,,,0,,,60,50
72600,note_on,0,0,1,,,,,,,,,0,,,76,40
72600,note_on,30,0,1,,,,,,,,,0,,,73,0
72630,note_on,0,0,1,,,,,,,,,0,,,79,40
72630,note_on,30,0,1,,,,,,,,,0,,,76,0
72630,note_on,30,0,4,,,,,,,,,0,,,60,0
72660,note_on,30,0,4,,,,,,,,,0,,,60,50
72660,note_on,0,0,1,,,,,,,,,0,,,69,40
72660,note_on,30,0,1,,,,,,,,,0,,,79,0
72690,note_on,30,0,1,,,,,,,,,0,,,69,0
72690,note_on,0,0,1,,,,,,,,,0,,,72,40
72690,note_on,30,0,4,,,,,,,,,0,,,60,0
72720,note_on,30,0,4,,,,,,,,,0,,,48,50
72720,note_on,30,0,1,,,,,,,,,0,,,72,0
72720,note_on,0,0,1,,,,,,,,,0,,,70,40
72750,note_on,30,0,1,,,,,,,,,0,,,70,0
72750,note_on,0,0,1,,,,,,,,,0,,,73,40
72750,note_on,30,0,4,,,,,,,,,0,,,48,0
72780,note_on,30,0,1,,,,,,,,,0,,,73,0
72780,note_on,30,0,4,,,,,,,,,0,,,60,50
72780,note_on,0,0,1,,,,,,,,,0,,,76,40
72810,note_on,30,0,4,,,,,,,,,0,,,60,0
72810,note_on,0,0,1,,,,,,,,,0,,,79,40
72810,note_on,30,0,1,,,,,,,,,0,,,76,0
72840,note_on,30,0,1,,,,,,,,,0,,,79,0
72840,note_on,0,0,1,,,,,,,,,0,,,77,40
72840,note_on,30,0,4,,,,,,,,,0,,,60,50
72870,note_on,30,0,1,,,,,,,,,0,,,77,0
72870,note_on,0,0,1,,,,,,,,,0,,,76,40
72870,note_on,30,0,4,,,,,,,,,0,,,60,0
72900,note_on,30,0,1,,,,,,,,,0,,,76,0
72900,note_on,0,0,1,,,,,,,,,0,,,74,40
72900,note_on,0,0,4,,,,,,,,,0,,,60,60
72900,note_on,0,0,4,,,,,,,,,0,,,58,60
72900,note_on,30,0,4,,,,,,,,,0,,,48,60
72930,note_on,30,0,4,,,,,,,,,0,,,60,0
72930,note_on,0,0,4,,,,,,,,,0,,,58,0
72930,note_on,0,0,4,,,,,,,,,0,,,48,0
72930,note_on,0,0,1,,,,,,,,,0,,,76,40
72930,note_on,30,0,1,,,,,,,,,0,,,74,0
72960,note_on,30,0,4,,,,,,,,,0,,,60,60
72960,note_on,0,0,4,,,,,,,,,0,,,57,60
72960,note_on,0,0,4,,,,,,,,,0,,,53,60
72960,note_on,0,0,1,,,,,,,,,0,,,77,40
72960,note_on,30,0,1,,,,,,,,,0,,,76,0
72960,set_tempo,2880,1,0,,,,,,498795,,,,,,,
72988,set_tempo,28,1,0,,,,,,497554,,,,,,,
72990,note_on,0,0,4,,,,,,,,,0,,,60,0
72990,note_on,0,0,4,,,,,,,,,0,,,57,0
72990,note_on,30,0,4,,,,,,,,,0,,,53,0
73009,set_tempo,21,1,0,,,,,,496319,,,,,,,
73020,note_on,30,0,4,,,,,,,,,0,,,60,50
73020,note_on,60,0,1,,,,,,,,,0,,,77,0
73020,note_on,0,0,1,,,,,,,,,0,,,69,40
73037,set_tempo,28,1,0,,,,,,495090,,,,,,,
73050,note_on,0,0,1,,,,,,,,,0,,,72,40
73050,note_on,30,0,1,,,,,,,,,0,,,69,0
73050,note_on,30,0,4,,,,,,,,,0,,,60,0
73058,set_tempo,21,1,0,,,,,,493868,,,,,,,
73080,note_on,30,0,4,,,,,,,,,0,,,60,50
73080,note_on,0,0,1,,,,,,,,,0,,,69,40
73080,note_on,30,0,1,,,,,,,,,0,,,72,0
73087,set_tempo,29,1,0,,,,,,492651,,,,,,,
73108,set_tempo,21,1,0,,,,,,491441,,,,,,,
73110,note_on,30,0,1,,,,,,,,,0,,,69,0
73110,note_on,30,0,4,,,,,,,,,0,,,60,0
73110,note_on,0,0,1,,,,,,,,,0,,,72,40
73136,set_tempo,28,1,0,,,,,,490236,,,,,,,
73140,note_on,0,0,1,,,,,,,,,0,,,69,40
73140,note_on,30,0,1,,,,,,,,,0,,,72,0
73140,note_on,30,0,4,,,,,,,,,0,,,60,50
73157,set_tempo,21,1,0,,,,,,489037,,,,,,,
73170,note_on,30,0,1,,,,,,,,,0,,,69,0
73170,note_on,0,0,1,,,,,,,,,0,,,72,40
73170,note_on,30,0,4,,,,,,,,,0,,,60,0
73178,set_tempo,21,1,0,,,,,,487845,,,,,,,
73200,note_on,30,0,1,,,,,,,,,0,,,72,0
73200,note_on,0,0,1,,,,,,,,,0,,,68,40
73200,note_on,30,0,4,,,,,,,,,0,,,61,60
73207,set_tempo,29,1,0,,,,,,486657,,,,,,,
73228,set_tempo,21,1,0,,,,,,485476,,,,,,,
73230,note_on,0,0,1,,,,,,,,,0,,,71,40
73230,note_on,30,0,1,,,,,,,,,0,,,68,0
73256,set_tempo,28,1,0,,,,,,484301,,,,,,,
73260,note_on,0,0,4,,,,,,,,,0,,,60,50
73260,note_on,0,0,1,,,,,,,,,0,,,69,40
73260,note_on,30,0,1,,,,,,,,,0,,,71,0
73260,note_on,60,0,4,,,,,,,,,0,,,61,0
73277,set_tempo,21,1,0,,,,,,483131,,,,,,,
73290,note_on,30,0,4,,,,,,,,,0,,,60,0
73290,note_on,30,0,1,,,,,,,,,0,,,69,0
73290,note_on,0,0,1,,,,,,,,,0,,,72,40
73305,set_tempo,28,1,0,,,,,,481966,,,,,,,
73320,note_on,0,0,1,,,,,,,,,0,,,69,40
73320,note_on,30,0,1,,,,,,,,,0,,,72,0
73320,note_on,30,0,4,,,,,,,,,0,,,60,60
73327,set_tempo,22,1,0,,,,,,480808,,,,,,,
73350,note_on,0,0,1,,,,,,,,,0,,,72,40
73350,note_on,30,0,1,,,,,,,,,0,,,69,0
73355,set_tempo,28,1,0,,,,,,479655,,,,,,,
73376,set_tempo,21,1,0,,,,,,478507,,,,,,,
73380,note_on,30,0,1,,,,,,,,,0,,,72,0
73380,note_on,60,0,4,,,,,,,,,0,,,60,0
73380,note_on,0,0,4,,,,,,,,,0,,,63,50
73380,note_on,0,0,1,,,,,,,,,0,,,69,40
73397,set_tempo,21,1,0,,,,,,477365,,,,,,,
73410,note_on,30,0,1,,,,,,,,,0,,,69,0
73410,note_on,30,0,4,,,,,,,,,0,,,63,0
73410,note_on,0,0,1,,,,,,,,,0,,,72,40
73425,set_tempo,28,1,0,,,,,,476228,,,,,,,
73440,note_on,0,0,1,,,,,,,,,0,,,70,40
73440,note_on,30,0,1,,,,,,,,,0,,,72,0
73440,note_on,30,0,4,,,,,,,,,0,,,50,50
73447,set_tempo,22,1,0,,,,,,475097,,,,,,,
73470,note_on,30,0,4,,,,,,,,,0,,,50,0
73470,note_on,0,0,1,,,,,,,,,0,,,74,40
73470,note_on,30,0,1,,,,,,,,,0,,,70,0
73475,set_tempo,28,1,0,,,,,,473971,,,,,,,
73496,set_tempo,21,1,0,,,,,,472851,,,,,,,
73500,note_on,30,0,1,,,,,,,,,0,,,74,0
73500,note_on,30,0,4,,,,,,,,,0,,,62,50
73500,note_on,0,0,1,,,,,,,,,0,,,72,40
73524,set_tempo,28,1,0,,,,,,471735,,,,,,,
73530,note_on,30,0,4,,,,,,,,,0,,,62,0
73530,note_on,0,0,1,,,,,,,,,0,,,75,40
73530,note_on,30,0,1,,,,,,,,,0,,,72,0
73545,set_tempo,21,1,0,,,,,,470625,,,,,,,
73560,note_on,0,0,1,,,,,,,,,0,,,78,40
73560,note_on,30,0,1,,,,,,,,,0,,,75,0
73560,note_on,30,0,4,,,,,,,,,0,,,62,50
73574,set_tempo,29,1,0,,,,,,469520,,,,,,,
73590,note_on,0,0,1,,,,,,,,,0,,,81,40
73590,note_on,30,0,1,,,,,,,,,0,,,78,0
73590,note_on,30,0,4,,,,,,,,,0,,,62,0
73595,set_tempo,21,1,0,,,,,,468421,,,,,,,
73616,set_tempo,21,1,0,,,,,,467326,,,,,,,
73620,note_on,30,0,1,,,,,,,,,0,,,81,0
73620,note_on,0,0,1,,,,,,,,,0,,,70,40
73620,note_on,30,0,4,,,,,,,,,0,,,62,50
73644,set_tempo,28,1,0,,,,,,466237,,,,,,,
73650,note_on,30,0,1,,,,,,,,,0,,,70,0
73650,note_on,30,0,4,,,,,,,,,0,,,62,0
73650,note_on,0,0,1,,,,,,,,,0,,,74,40
73665,set_tempo,21,1,0,,,,,,465152,,,,,,,
73680,note_on,30,0,1,,,,,,,,,0,,,74,0
73680,note_on,0,0,1,,,,,,,,,0,,,72,40
73680,note_on,30,0,4,,,,,,,,,0,,,50,50
73694,set_tempo,29,1,0,,,,,,464073,,,,,,,
73710,note_on,0,0,1,,,,,,,,,0,,,75,40
73710,note_on,30,0,1,,,,,,,,,0,,,72,0
73710,note_on,30,0,4,,,,,,,,,0,,,50,0
73715,set_tempo,21,1,0,,,,,,462999,,,,,,,
73740,note_on,30,0,4,,,,,,,,,0,,,62,50
73740,note_on,0,0,1,,,,,,,,,0,,,78,40
73740,note_on,30,0,1,,,,,,,,,0,,,75,0
73743,set_tempo,28,1,0,,,,,,461929,,,,,,,
73764,set_tempo,21,1,0,,,,,,460865,,,,,,,
73770,note_on,30,0,4,,,,,,,,,0,,,62,0
73770,note_on,30,0,1,,,,,,,,,0,,,78,0
73770,note_on,0,0,1,,,,,,,,,0,,,81,40
73785,set_tempo,21,1,0,,,,,,459805,,,,,,,
73800,note_on,30,0,4,,,,,,,,,0,,,62,50
73800,note_on,30,0,1,,,,,,,,,0,,,81,0
73800,note_on,0,0,1,,,,,,,,,0,,,79,40
73814,set_tempo,29,1,0,,,,,,458751,,,,,,,
73830,note_on,30,0,4,,,,,,,,,0,,,62,0
73830,note_on,30,0,1,,,,,,,,,0,,,79,0
73830,note_on,0,0,1,,,,,,,,,0,,,77,40
73835,set_tempo,21,1,0,,,,,,457701,,,,,,,
73860,note_on,0,0,4,,,,,,,,,0,,,62,60
73860,note_on,0,0,4,,,,,,,,,0,,,60,60
73860,note_on,30,0,4,,,,,,,,,0,,,50,60
73860,note_on,30,0,1,,,,,,,,,0,,,77,0
73860,note_on,0,0,1,,,,,,,,,0,,,76,40
73863,set_tempo,28,1,0,,,,,,456656,,,,,,,
73884,set_tempo,21,1,0,,,,,,455615,,,,,,,
73890,note_on,30,0,4,,,,,,,,,0,,,62,0
73890,note_on,0,0,1,,,,,,,,,0,,,77,40
73890,note_on,30,0,1,,,,,,,,,0,,,76,0
73890,note_on,0,0,4,,,,,,,,,0,,,60,0
73890,note_on,0,0,4,,,,,,,,,0,,,50,0
73912,set_tempo,28,1,0,,,,,,454580,,,,,,,
73920,note_on,30,0,4,,,,,,,,,0,,,62,60
73920,note_on,0,0,4,,,,,,,,,0,,,58,60
73920,note_on,0,0,4,,,,,,,,,0,,,55,60
73920,note_on,30,0,1,,,,,,,,,0,,,77,0
73920,note_on,0,0,1,,,,,,,,,0,,,79,40
73934,set_tempo,22,1,0,,,,,,453549,,,,,,,
73950,note_on,30,0,4,,,,,,,,,0,,,55,0
73950,note_on,0,0,4,,,,,,,,,0,,,58,0
73950,note_on,0,0,4,,,,,,,,,0,,,62,0
73950,note_on,30,0,1,,,,,,,,,0,,,79,0
73962,set_tempo,28,1,0,,,,,,452523,,,,,,,
73980,note_on,30,0,4,,,,,,,,,0,,,62,50
73980,note_on,30,0,1,,,,,,,,,0,,,70,40
73983,set_tempo,21,1,0,,,,,,451501,,,,,,,
74004,set_tempo,21,1,0,,,,,,450484,,,,,,,
74010,note_on,0,0,1,,,,,,,,,0,,,74,40
74010,note_on,30,0,1,,,,,,,,,0,,,70,0
74010,note_on,30,0,4,,,,,,,,,0,,,62,0
74032,set_tempo,28,1,0,,,,,,449472,,,,,,,
74040,note_on,30,0,4,,,,,,,,,0,,,62,50
74040,note_on,0,0,1,,,,,,,,,0,,,70,40
74040,note_on,30,0,1,,,,,,,,,0,,,74,0
74054,set_tempo,22,1,0,,,,,,448464,,,,,,,
74070,note_on,30,0,1,,,,,,,,,0,,,70,0
74070,note_on,30,0,4,,,,,,,,,0,,,62,0
74070,note_on,0,0,1,,,,,,,,,0,,,74,40
74082,set_tempo,28,1,0,,,,,,447461,,,,,,,
74100,note_on,30,0,4,,,,,,,,,0,,,62,50
74100,note_on,30,0,1,,,,,,,,,0,,,74,0
74100,note_on,0,0,1,,,,,,,,,0,,,70,40
74103,set_tempo,21,1,0,,,,,,446462,,,,,,,
74130,note_on,0,0,1,,,,,,,,,0,,,74,40
74130,note_on,30,0,4,,,,,,,,,0,,,62,0
74130,note_on,30,0,1,,,,,,,,,0,,,70,0
74131,set_tempo,28,1,0,,,,,,445467,,,,,,,
74152,set_tempo,21,1,0,,,,,,444477,,,,,,,
74160,note_on,30,0,1,,,,,,,,,0,,,74,0
74160,note_on,0,0,1,,,,,,,,,0,,,69,40
74160,note_on,30,0,4,,,,,,,,,0,,,63,60
74181,set_tempo,29,1,0,,,,,,443492,,,,,,,
74190,note_on,30,0,1,,,,,,,,,0,,,69,0
74190,note_on,0,0,1,,,,,,,,,0,,,73,40
74202,set_tempo,21,1,0,,,,,,442511,,,,,,,
74220,note_on,60,0,4,,,,,,,,,0,,,63,0
74220,note_on,0,0,4,,,,,,,,,0,,,62,50
74220,note_on,30,0,1,,,,,,,,,0,,,73,0
74220,note_on,0,0,1,,,,,,,,,0,,,70,40
74223,set_tempo,21,1,0,,,,,,441534,,,,,,,
74250,note_on,30,0,4,,,,,,,,,0,,,62,0
74250,note_on,30,0,1,,,,,,,,,0,,,70,0
74250,note_on,0,0,1,,,,,,,,,0,,,74,40
74251,set_tempo,28,1,0,,,,,,440561,,,,,,,
74272,set_tempo,21,1,0,,,,,,439593,,,,,,,
74280,note_on,30,0,4,,,,,,,,,0,,,62,50
74280,note_on,30,0,1,,,,,,,,,0,,,74,0
74280,note_on,0,0,1,,,,,,,,,0,,,70,40
74301,set_tempo,29,1,0,,,,,,438629,,,,,,,
74310,note_on,0,0,1,,,,,,,,,0,,,74,40
74310,note_on,30,0,1,,,,,,,,,0,,,70,0
74310,note_on,30,0,4,,,,,,,,,0,,,62,0
74322,set_tempo,21,1,0,,,,,,437669,,,,,,,
74340,note_on,30,0,4,,,,,,,,,0,,,62,50
74340,note_on,30,0,1,,,,,,,,,0,,,74,0
74340,note_on,0,0,1,,,,,,,,,0,,,70,40
74350,set_tempo,28,1,0,,,,,,436713,,,,,,,
74370,note_on,30,0,1,,,,,,,,,0,,,70,0
74370,note_on,0,0,1,,,,,,,,,0,,,74,40
74370,note_on,30,0,4,,,,,,,,,0,,,62,0
74371,set_tempo,21,1,0,,,,,,435761,,,,,,,
74392,set_tempo,21,1,0,,,,,,434814,,,,,,,
74400,note_on,30,0,1,,,,,,,,,0,,,74,0
74400,note_on,0,0,1,,,,,,,,,0,,,79,40
74400,note_on,30,0,4,,,,,,,,,0,,,52,60
74400,control_change,3120,0,5,,,,,,,,,0,64,127,,
74400,set_tempo,8,1,0,,,,,,434783,,,,,,,
74430,note_on,0,0,1,,,,,,,,,0,,,70,40
74430,note_on,30,0,1,,,,,,,,,0,,,79,0
74460,note_on,0,0,1,,,,,,,,,0,,,73,40
74460,note_on,60,0,4,,,,,,,,,0,,,58,40
74460,note_on,0,0,4,,,,,,,,,0,,,61,50
74460,note_on,30,0,1,,,,,,,,,0,,,70,0
74490,note_on,30,0,1,,,,,,,,,0,,,73,0
74490,note_on,0,0,1,,,,,,,,,0,,,70,40
74520,note_on,30,0,1,,,,,,,,,0,,,70,0
74520,note_on,0,0,1,,,,,,,,,0,,,72,40
74520,note_on,0,0,4,,,,,,,,,0,,,60,50
74520,note_on,60,0,4,,,,,,,,,0,,,61,0
74550,note_on,30,0,1,,,,,,,,,0,,,72,0
74550,note_on,0,0,1,,,,,,,,,0,,,70,40
74580,note_on,30,0,1,,,,,,,,,0,,,70,0
74580,note_on,0,0,1,,,,,,,,,0,,,73,40
74580,note_on,60,0,4,,,,,,,,,0,,,60,0
74580,note_on,0,0,4,,,,,,,,,0,,,61,50
74610,note_on,30,0,1,,,,,,,,,0,,,73,0
74610,note_on,0,0,1,,,,,,,,,0,,,70,40
74625,control_change,225,0,5,,,,,,,,,0,64,0,,
74640,note_on,60,0,4,,,,,,,,,0,,,61,0
74640,note_on,30,0,1,,,,,,,,,0,,,70,0
74640,note_on,0,0,1,,,,,,,,,0,,,77,40
74640,note_on,0,0,4,,,,,,,,,0,,,53,60
74640,note_on,0,0,4,,,,,,,,,0,,,52,0
74640,note_on,0,0,4,,,,,,,,,0,,,58,0
74640,control_change,15,0,5,,,,,,,,,0,64,127,,
74670,note_on,0,0,1,,,,,,,,,0,,,69,40
74670,note_on,30,0,1,,,,,,,,,0,,,77,0
74700,note_on,30,0,1,,,,,,,,,0,,,69,0
74700,note_on,0,0,4,,,,,,,,,0,,,62,50
74700,note_on,0,0,1,,,,,,,,,0,,,74,40
74700,note_on,60,0,4,,,,,,,,,0,,,57,40
74730,note_on,30,0,1,,,,,,,,,0,,,74,0
74730,note_on,0,0,1,,,,,,,,,0,,,69,40
74760,note_on,60,0,4,,,,,,,,,0,,,62,0
74760,note_on,0,0,4,,,,,,,,,0,,,60,50
74760,note_on,30,0,1,,,,,,,,,0,,,69,0
74760,note_on,0,0,1,,,,,,,,,0,,,72,40
74790,note_on,30,0,1,,,,,,,,,0,,,72,0
74790,note_on,0,0,1,,,,,,,,,0,,,69,40
74820,note_on,30,0,1,,,,,,,,,0,,,69,0
74820,note_on,0,0,1,,,,,,,,,0,,,77,40
74820,note_on,60,0,4,,,,,,,,,0,,,60,0
74820,note_on,0,0,4,,,,,,,,,0,,,65,50
74850,note_on,30,0,1,,,,,,,,,0,,,77,0
74850,note_on,0,0,1,,,,,,,,,0,,,69,40
74865,control_change,225,0,5,,,,,,,,,0,64,0,,
74880,note_on,30,0,1,,,,,,,,,0,,,69,0
74880,note_on,0,0,4,,,,,,,,,0,,,53,0
74880,note_on,60,0,4,,,,,,,,,0,,,65,0
74880,note_on,0,0,4,,,,,,,,,0,,,57,0
74880,note_on,0,0,1,,,,,,,,,0,,,82,40
74880,note_on,0,0,1,,,,,,,,,0,,,79,40
74880,control_change,15,0,5,,,,,,,,,0,64,127,,
74880,note_on,0,0,4,,,,,,,,,0,,,52,60
74910,note_on,30,0,1,,,,,,,,,0,,,79,0
74910,note_on,0,0,1,,,,,,,,,0,,,70,40
74910,note_on,0,0,1,,,,,,,,,0,,,82,0
74940,note_on,30,0,1,,,,,,,,,0,,,70,0
74940,note_on,0,0,4,,,,,,,,,0,,,61,50
74940,note_on,60,0,4,,,,,,,,,0,,,58,40
74940,note_on,0,0,1,,,,,,,,,0,,,73,40
74970,note_on,0,0,1,,,,,,,,,0,,,70,40
74970,note_on,30,0,1,,,,,,,,,0,,,73,0
75000,note_on,30,0,1,,,,,,,,,0,,,70,0
75000,note_on,0,0,4,,,,,,,,,0,,,60,50
75000,note_on,60,0,4,,,,,,,,,0,,,61,0
75000,note_on,0,0,1,,,,,,,,,0,,,72,40
75030,note_on,0,0,1,,,,,,,,,0,,,70,40
75030,note_on,30,0,1,,,,,,,,,0,,,72,0
75060,note_on,0,0,4,,,,,,,,,0,,,61,50
75060,note_on,60,0,4,,,,,,,,,0,,,60,0
75060,note_on,0,0,1,,,,,,,,,0,,,73,40
75060,note_on,30,0,1,,,,,,,,,0,,,70,0
75090,note_on,30,0,1,,,,,,,,,0,,,73,0
75090,note_on,0,0,1,,,,,,,,,0,,,70,40
75105,control_change,225,0,5,,,,,,,,,0,64,0,,
75120,note_on,0,0,4,,,,,,,,,0,,,53,60
75120,note_on,0,0,4,,,,,,,,,0,,,58,0
75120,note_on,60,0,4,,,,,,,,,0,,,61,0
75120,note_on,30,0,1,,,,,,,,,0,,,70,0
75120,note_on,0,0,1,,,,,,,,,0,,,81,40
75120,note_on,0,0,1,,,,,,,,,0,,,77,40
75120,note_on,0,0,4,,,,,,,,,0,,,52,0
75120,control_change,15,0,5,,,,,,,,,0,64,127,,
75150,note_on,30,0,1,,,,,,,,,0,,,77,0
75150,note_on,0,0,1,,,,,,,,,0,,,81,0
75150,note_on,0,0,1,,,,,,,,,0,,,69,40
75180,note_on,0,0,4,,,,,,,,,0,,,62,50
75180,note_on,0,0,1,,,,,,,,,0,,,74,40
75180,note_on,30,0,1,,,,,,,,,0,,,69,0
75180,note_on,60,0,4,,,,,,,,,0,,,57,40
75210,note_on,0,0,1,,,,,,,,,0,,,69,40
75210,note_on,30,0,1,,,,,,,,,0,,,74,0
75240,note_on,30,0,1,,,,,,,,,0,,,69,0
75240,note_on,60,0,4,,,,,,,,,0,,,62,0
75240,note_on,0,0,1,,,,,,,,,0,,,72,40
75240,note_on,0,0,4,,,,,,,,,0,,,60,50
75270,note_on,30,0,1,,,,,,,,,0,,,72,0
75270,note_on,0,0,1,,,,,,,,,0,,,69,40
75300,note_on,30,0,1,,,,,,,,,0,,,69,0
75300,note_on,0,0,4,,,,,,,,,0,,,65,50
75300,note_on,0,0,1,,,,,,,,,0,,,77,40
75300,note_on,60,0,4,,,,,,,,,0,,,60,0
75330,note_on,0,0,1,,,,,,,,,0,,,69,40
75330,note_on,30,0,1,,,,,,,,,0,,,77,0
75345,control_change,225,0,5,,,,,,,,,0,64,0,,
75360,note_on,60,0,4,,,,,,,,,0,,,65,0
75360,note_on,0,0,4,,,,,,,,,0,,,57,0
75360,note_on,0,0,4,,,,,,,,,0,,,53,0
75360,note_on,0,0,4,,,,,,,,,0,,,46,50
75360,note_on,0,0,1,,,,,,,,,0,,,81,40
75360,note_on,30,0,1,,,,,,,,,0,,,69,0
75390,note_on,0,0,1,,,,,,,,,0,,,84,40
75390,note_on,30,0,1,,,,,,,,,0,,,81,0
75390,note_on,30,0,4,,,,,,,,,0,,,46,0
75420,note_on,30,0,4,,,,,,,,,0,,,62,50
75420,note_on,0,0,4,,,,,,,,,0,,,58,50
75420,note_on,30,0,1,,,,,,,,,0,,,84,0
75420,note_on,0,0,1,,,,,,,,,0,,,74,40
75450,note_on,30,0,1,,,,,,,,,0,,,74,0
75450,note_on,0,0,1,,,,,,,,,0,,,79,40
75480,note_on,30,0,1,,,,,,,,,0,,,79,0
75480,note_on,0,0,1,,,,,,,,,0,,,82,40
75510,note_on,30,0,1,,,,,,,,,0,,,82,0
75510,note_on,0,0,1,,,,,,,,,0,,,86,40
75540,note_on,30,0,1,,,,,,,,,0,,,86,0
75540,note_on,120,0,4,,,,,,,,,0,,,58,0
75540,note_on,0,0,4,,,,,,,,,0,,,62,0
75540,note_on,0,0,1,,,,,,,,,0,,,84,40
75540,note_on,0,0,4,,,,,,,,,0,,,58,50
75540,note_on,0,0,4,,,,,,,,,0,,,62,50
75570,note_on,0,0,1,,,,,,,,,0,,,82,40
75570,note_on,30,0,1,,,,,,,,,0,,,84,0
75600,note_on,0,0,1,,,,,,,,,0,,,79,40
75600,note_on,0,0,4,,,,,,,,,0,,,48,50
75600,note_on,0,0,4,,,,,,,,,0,,,62,0
75600,note_on,60,0,4,,,,,,,,,0,,,58,0
75600,note_on,30,0,1,,,,,,,,,0,,,82,0
75630,note_on,30,0,1,,,,,,,,,0,,,79,0
75630,note_on,30,0,4,,,,,,,,,0,,,48,0
75630,note_on,0,0,1,,,,,,,,,0,,,82,40
75660,note_on,30,0,1,,,,,,,,,0,,,82,0
75660,note_on,0,0,1,,,,,,,,,0,,,72,40
75660,note_on,0,0,4,,,,,,,,,0,,,57,50
75660,note_on,30,0,4,,,,,,,,,0,,,60,50
75690,note_on,30,0,1,,,,,,,,,0,,,72,0
75690,note_on,0,0,1,,,,,,,,,0,,,77,40
75720,note_on,30,0,1,,,,,,,,,0,,,77,0
75720,note_on,0,0,1,,,,,,,,,0,,,81,40
75750,note_on,0,0,1,,,,,,,,,0,,,84,40
75750,note_on,30,0,1,,,,,,,,,0,,,81,0
75780,note_on,30,0,1,,,,,,,,,0,,,84,0
75780,note_on,120,0,4,,,,,,,,,0,,,57,0
75780,note_on,0,0,4,,,,,,,,,0,,,60,0
75780,note_on,0,0,4,,,,,,,,,0,,,60,50
75780,note_on,0,0,4,,,,,,,,,0,,,57,50
75780,note_on,0,0,1,,,,,,,,,0,,,82,40
75810,note_on,0,0,1,,,,,,,,,0,,,81,40
75810,note_on,30,0,1,,,,,,,,,0,,,82,0
75840,note_on,30,0,1,,,,,,,,,0,,,81,0
75840,note_on,0,0,4,,,,,,,,,0,,,48,50
75840,note_on,0,0,1,,,,,,,,,0,,,78,40
75840,note_on,0,0,4,,,,,,,,,0,,,60,0
75840,note_on,60,0,4,,,,,,,,,0,,,57,0
75870,note_on,0,0,1,,,,,,,,,0,,,81,44
75870,note_on,30,0,4,,,,,,,,,0,,,48,0
75870,note_on,30,0,1,,,,,,,,,0,,,78,0
75900,note_on,0,0,4,,,,,,,,,0,,,60,58
75900,note_on,30,0,4,,,,,,,,,0,,,52,58
75900,note_on,30,0,1,,,,,,,,,0,,,81,0
75900,note_on,0,0,4,,,,,,,,,0,,,58,58
75900,note_on,0,0,1,,,,,,,,,0,,,72,48
75930,note_on,0,0,1,,,,,,,,,0,,,76,52
75930,note_on,30,0,1,,,,,,,,,0,,,72,0
75960,note_on,0,0,1,,,,,,,,,0,,,79,57
75960,note_on,30,0,1,,,,,,,,,0,,,76,0
75990,note_on,0,0,1,,,,,,,,,0,,,82,61
75990,note_on,30,0,1,,,,,,,,,0,,,79,0
76020,note_on,0,0,1,,,,,,,,,0,,,81,65
76020,note_on,30,0,1,,,,,,,,,0,,,82,0
76020,note_on,120,0,4,,,,,,,,,0,,,52,0
76020,note_on,0,0,4,,,,,,,,,0,,,53,75
76050,note_on,30,0,1,,,,,,,,,0,,,81,0
76050,note_on,0,0,1,,,,,,,,,0,,,79,69
76080,note_on,0,0,4,,,,,,,,,0,,,55,84
76080,note_on,30,0,1,,,,,,,,,0,,,79,0
76080,note_on,0,0,1,,,,,,,,,0,,,77,74
76080,note_on,60,0,4,,,,,,,,,0,,,53,0
76110,note_on,30,0,4,,,,,,,,,0,,,55,0
76110,note_on,30,0,1,,,,,,,,,0,,,77,0
76110,note_on,0,0,1,,,,,,,,,0,,,76,78
76140,note_on,30,0,1,,,,,,,,,0,,,76,0
76140,note_on,0,0,1,,,,,,,,,0,,,74,82
76140,note_on,0,0,4,,,,,,,,,0,,,60,0
76140,note_on,30,0,4,,,,,,,,,0,,,58,0
76140,note_on,0,0,4,,,,,,,,,0,,,60,92
76140,note_on,0,0,4,,,,,,,,,0,,,58,92
76140,note_on,0,0,4,,,,,,,,,0,,,53,92
76170,note_on,0,0,1,,,,,,,,,0,,,73,87
76170,note_on,30,0,1,,,,,,,,,0,,,74,0
76200,note_on,0,0,1,,,,,,,,,0,,,72,91
76200,note_on,60,0,4,,,,,,,,,0,,,53,0
76200,note_on,0,0,4,,,,,,,,,0,,,58,0
76200,note_on,0,0,4,,,,,,,,,0,,,60,0
76200,note_on,0,0,4,,,,,,,,,0,,,58,101
76200,note_on,0,0,4,,,,,,,,,0,,,60,101
76200,note_on,0,0,4,,,,,,,,,0,,,52,101
76200,note_on,30,0,1,,,,,,,,,0,,,73,0
76230,note_on,30,0,1,,,,,,,,,0,,,72,0
76230,note_on,0,0,1,,,,,,,,,0,,,70,95
76260,note_on,0,0,4,,,,,,,,,0,,,48,109
76260,note_on,30,0,1,,,,,,,,,0,,,70,0
76260,note_on,0,0,1,,,,,,,,,0,,,69,99
76260,note_on,0,0,4,,,,,,,,,0,,,60,109
76260,note_on,0,0,4,,,,,,,,,0,,,58,109
76260,note_on,0,0,4,,,,,,,,,0,,,58,0
76260,note_on,60,0,4,,,,,,,,,0,,,52,0
76260,note_on,0,0,4,,,,,,,,,0,,,60,0
76290,note_on,30,0,1,,,,,,,,,0,,,69,0
76290,note_on,0,0,1,,,,,,,,,0,,,67,100
76320,note_on,30,0,1,,,,,,,,,0,,,67,0
76320,note_on,0,0,4,,,,,,,,,0,,,53,110
76320,note_on,0,0,4,,,,,,,,,0,,,57,110
76320,note_on,0,0,4,,,,,,,,,0,,,60,110
76320,note_on,0,0,4,,,,,,,,,0,,,58,0
76320,note_on,0,0,4,,,,,,,,,0,,,60,0
76320,set_tempo,1920,1,0,,,,,,500000,,,,,,,
76320,note_on,60,0,4,,,,,,,,,0,,,48,0
76320,note_on,0,0,1,,,,,,,,,0,,,65,110
76350,note_on,0,0,4,,,,,,,,,0,,,60,0
76350,note_on,30,0,4,,,,,,,,,0,,,53,0
76350,note_on,30,0,1,,,,,,,,,0,,,65,0
76350,note_on,0,0,4,,,,,,,,,0,,,57,0
76380,note_on,30,0,4,,,,,,,,,0,,,41,100
76380,note_on,12510,0,2,,,,,,,,,0,,,53,100
76410,note_on,30,0,2,,,,,,,,,0,,,53,0
76410,note_on,30,0,4,,,,,,,,,0,,,41,0
76440,note_on,30,0,2,,,,,,,,,0,,,53,100
76440,note_on,30,0,4,,,,,,,,,0,,,41,100
76470,note_on,30,0,4,,,,,,,,,0,,,41,0
76470,note_on,30,0,2,,,,,,,,,0,,,53,0
76500,note_on,30,0,2,,,,,,,,,0,,,53,100
76500,note_on,30,0,4,,,,,,,,,0,,,41,100
76530,note_on,30,0,4,,,,,,,,,0,,,41,0
76530,note_on,30,0,2,,,,,,,,,0,,,53,0
76560,note_on,30,0,2,,,,,,,,,0,,,52,110
76560,note_on,30,0,4,,,,,,,,,0,,,40,110
76620,note_on,0,0,2,,,,,,,,,0,,,53,100
76620,note_on,60,0,2,,,,,,,,,0,,,52,0
76620,note_on,60,0,4,,,,,,,,,0,,,40,0
76620,note_on,0,0,4,,,,,,,,,0,,,41,100
76650,note_on,30,0,4,,,,,,,,,0,,,41,0
76650,note_on,30,0,2,,,,,,,,,0,,,53,0
76680,note_on,30,0,2,,,,,,,,,0,,,53,100
76680,note_on,30,0,4,,,,,,,,,0,,,41,100
76710,note_on,30,0,2,,,,,,,,,0,,,53,0
76710,note_on,30,0,4,,,,,,,,,0,,,41,0
76740,note_on,30,0,4,,,,,,,,,0,,,41,100
76740,note_on,30,0,2,,,,,,,,,0,,,53,100
76770,note_on,30,0,4,,,,,,,,,0,,,41,0
76770,note_on,30,0,2,,,,,,,,,0,,,53,0
76800,note_on,30,0,2,,,,,,,,,0,,,54,110
76800,note_on,30,0,4,,,,,,,,,0,,,42,110
76890,note_on,90,0,4,,,,,,,,,0,,,42,0
76890,note_on,0,0,2,,,,,,,,,0,,,55,100
76890,note_on,90,0,2,,,,,,,,,0,,,54,0
76890,note_on,0,0,4,,,,,,,,,0,,,43,100
76905,note_on,15,0,4,,,,,,,,,0,,,43,0
76905,note_on,0,0,4,,,,,,,,,0,,,45,100
76905,note_on,0,0,2,,,,,,,,,0,,,57,100
76905,note_on,15,0,2,,,,,,,,,0,,,55,0
76920,note_on,15,0,4,,,,,,,,,0,,,45,0
76920,note_on,0,0,4,,,,,,,,,0,,,43,110
76920,note_on,0,0,2,,,,,,,,,0,,,55,110
76920,note_on,15,0,2,,,,,,,,,0,,,57,0
77010,note_on,90,0,2,,,,,,,,,0,,,55,0
77010,note_on,0,0,2,,,,,,,,,0,,,57,100
77010,note_on,90,0,4,,,,,,,,,0,,,43,0
77010,note_on,0,0,4,,,,,,,,,0,,,45,100
77025,note_on,15,0,2,,,,,,,,,0,,,57,0
77025,note_on,0,0,2,,,,,,,,,0,,,58,100
77025,note_on,0,0,4,,,,,,,,,0,,,46,100
77025,note_on,15,0,4,,,,,,,,,0,,,45,0
77040,note_on,15,0,2,,,,,,,,,0,,,58,0
77040,note_on,0,0,2,,,,,,,,,0,,,60,100
77040,note_on,0,0,4,,,,,,,,,0,,,48,100
77040,note_on,15,0,4,,,,,,,,,0,,,46,0
77070,note_on,30,0,2,,,,,,,,,0,,,60,0
77070,note_on,30,0,4,,,,,,,,,0,,,48,0
77100,note_on,0,0,4,,,,,,,,,0,,,48,100
77100,note_on,0,0,4,,,,,,,,,0,,,55,100
77100,note_on,750,0,1,,,,,,,,,0,,,64,100
77100,note_on,30,0,4,,,,,,,,,0,,,58,100
77130,note_on,0,0,1,,,,,,,,,0,,,67,100
77130,note_on,30,0,1,,,,,,,,,0,,,64,0
77130,note_on,0,0,4,,,,,,,,,0,,,58,0
77130,note_on,0,0,4,,,,,,,,,0,,,55,0
77130,note_on,30,0,4,,,,,,,,,0,,,48,0
77160,note_on,0,0,4,,,,,,,,,0,,,55,100
77160,note_on,30,0,4,,,,,,,,,0,,,58,100
77160,note_on,0,0,4,,,,,,,,,0,,,48,100
77160,note_on,0,0,1,,,,,,,,,0,,,72,100
77160,note_on,30,0,1,,,,,,,,,0,,,67,0
77190,note_on,0,0,1,,,,,,,,,0,,,76,100
77190,note_on,30,0,1,,,,,,,,,0,,,72,0
77190,note_on,30,0,4,,,,,,,,,0,,,48,0
77190,note_on,0,0,4,,,,,,,,,0,,,55,0
77190,note_on,0,0,4,,,,,,,,,0,,,58,0
77220,note_on,30,0,4,,,,,,,,,0,,,58,100
77220,note_on,0,0,1,,,,,,,,,0,,,79,100
77220,note_on,30,0,1,,,,,,,,,0,,,76,0
77220,note_on,0,0,4,,,,,,,,,0,,,55,100
77220,note_on,0,0,4,,,,,,,,,0,,,48,100
77250,note_on,0,0,4,,,,,,,,,0,,,58,0
77250,note_on,0,0,4,,,,,,,,,0,,,55,0
77250,note_on,0,0,1,,,,,,,,,0,,,84,100
77250,note_on,30,0,1,,,,,,,,,0,,,79,0
77250,note_on,30,0,4,,,,,,,,,0,,,48,0
77280,note_on,30,0,4,,,,,,,,,0,,,57,100
77280,note_on,30,0,1,,,,,,,,,0,,,84,0
77280,note_on,0,0,1,,,,,,,,,0,,,77,100
77280,note_on,0,0,4,,,,,,,,,0,,,53,100
77310,note_on,30,0,4,,,,,,,,,0,,,53,0
77310,note_on,30,0,1,,,,,,,,,0,,,77,0
77310,note_on,0,0,4,,,,,,,,,0,,,57,0
77340,note_on,30,0,4,,,,,,,,,0,,,41,100
77340,note_on,270,0,2,,,,,,,,,0,,,53,100
77370,note_on,30,0,2,,,,,,,,,0,,,53,0
77370,note_on,30,0,4,,,,,,,,,0,,,41,0
77400,note_on,30,0,4,,,,,,,,,0,,,41,100
77400,note_on,30,0,2,,,,,,,,,0,,,53,100
77430,note_on,30,0,2,,,,,,,,,0,,,53,0
77430,note_on,30,0,4,,,,,,,,,0,,,41,0
77460,note_on,30,0,4,,,,,,,,,0,,,41,100
77460,note_on,30,0,2,,,,,,,,,0,,,53,100
77490,note_on,30,0,4,,,,,,,,,0,,,41,0
77490,note_on,30,0,2,,,,,,,,,0,,,53,0
77520,note_on,30,0,2,,,,,,,,,0,,,52,110
77520,note_on,30,0,4,,,,,,,,,0,,,40,110
77580,note_on,60,0,4,,,,,,,,,0,,,40,0
77580,note_on,0,0,4,,,,,,,,,0,,,41,100
77580,note_on,0,0,2,,,,,,,,,0,,,53,100
77580,note_on,60,0,2,,,,,,,,,0,,,52,0
77610,note_on,30,0,2,,,,,,,,,0,,,53,0
77610,note_on,30,0,4,,,,,,,,,0,,,41,0
77640,note_on,30,0,2,,,,,,,,,0,,,53,100
77640,note_on,30,0,4,,,,,,,,,0,,,41,100
77670,note_on,30,0,4,,,,,,,,,0,,,41,0
77670,note_on,30,0,2,,,,,,,,,0,,,53,0
77700,note_on,30,0,2,,,,,,,,,0,,,53,100
77700,note_on,30,0,4,,,,,,,,,0,,,41,100
77730,note_on,30,0,4,,,,,,,,,0,,,41,0
77730,note_on,30,0,2,,,,,,,,,0,,,53,0
77760,note_on,30,0,4,,,,,,,,,0,,,42,110
77760,note_on,30,0,2,,,,,,,,,0,,,54,110
77850,note_on,90,0,4,,,,,,,,,0,,,42,0
77850,note_on,90,0,2,,,,,,,,,0,,,54,0
77850,note_on,0,0,2,,,,,,,,,0,,,55,100
77850,note_on,0,0,4,,,,,,,,,0,,,43,100
77865,note_on,15,0,4,,,,,,,,,0,,,43,0
77865,note_on,0,0,2,,,,,,,,,0,,,57,100
77865,note_on,15,0,2,,,,,,,,,0,,,55,0
77865,note_on,0,0,4,,,,,,,,,0,,,45,100
77880,note_on,15,0,4,,,,,,,,,0,,,45,0
77880,note_on,0,0,4,,,,,,,,,0,,,43,110
77880,note_on,15,0,2,,,,,,,,,0,,,57,0
77880,note_on,0,0,2,,,,,,,,,0,,,55,110
77970,note_on,90,0,2,,,,,,,,,0,,,55,0
77970,note_on,0,0,2,,,,,,,,,0,,,57,100
77970,note_on,90,0,4,,,,,,,,,0,,,43,0
77970,note_on,0,0,4,,,,,,,,,0,,,45,100
77985,note_on,15,0,2,,,,,,,,,0,,,57,0
77985,note_on,0,0,2,,,,,,,,,0,,,58,100
77985,note_on,15,0,4,,,,,,,,,0,,,45,0
77985,note_on,0,0,4,,,,,,,,,0,,,46,100
78000,note_on,0,0,2,,,,,,,,,0,,,60,100
78000,note_on,15,0,4,,,,,,,,,0,,,46,0
78000,note_on,15,0,2,,,,,,,,,0,,,58,0
78000,note_on,0,0,4,,,,,,,,,0,,,48,100
78030,note_on,30,0,2,,,,,,,,,0,,,60,0
78030,note_on,30,0,4,,,,,,,,,0,,,48,0
78060,note_on,750,0,1,,,,,,,,,0,,,61,100
78060,note_on,30,0,4,,,,,,,,,0,,,55,100
78060,note_on,0,0,4,,,,,,,,,0,,,52,100
78060,note_on,0,0,4,,,,,,,,,0,,,45,100
78090,note_on,30,0,4,,,,,,,,,0,,,45,0
78090,note_on,0,0,1,,,,,,,,,0,,,64,100
78090,note_on,0,0,4,,,,,,,,,0,,,55,0
78090,note_on,30,0,1,,,,,,,,,0,,,61,0
78090,note_on,0,0,4,,,,,,,,,0,,,52,0
78120,note_on,30,0,4,,,,,,,,,0,,,55,100
78120,note_on,0,0,1,,,,,,,,,0,,,69,100
78120,note_on,0,0,4,,,,,,,,,0,,,52,100
78120,note_on,0,0,4,,,,,,,,,0,,,45,100
78120,note_on,30,0,1,,,,,,,,,0,,,64,0
78150,note_on,0,0,4,,,,,,,,,0,,,52,0
78150,note_on,0,0,4,,,,,,,,,0,,,55,0
78150,note_on,30,0,4,,,,,,,,,0,,,45,0
78150,note_on,30,0,1,,,,,,,,,0,,,69,0
78150,note_on,0,0,1,,,,,,,,,0,,,73,100
78180,note_on,0,0,4,,,,,,,,,0,,,45,100
78180,note_on,0,0,4,,,,,,,,,0,,,52,100
78180,note_on,30,0,4,,,,,,,,,0,,,55,100
78180,note_on,0,0,1,,,,,,,,,0,,,76,100
78180,note_on,30,0,1,,,,,,,,,0,,,73,0
78210,note_on,30,0,1,,,,,,,,,0,,,76,0
78210,note_on,0,0,4,,,,,,,,,0,,,55,0
78210,note_on,0,0,4,,,,,,,,,0,,,52,0
78210,note_on,0,0,1,,,,,,,,,0,,,81,100
78210,note_on,30,0,4,,,,,,,,,0,,,45,0
78240,note_on,0,0,4,,,,,,,,,0,,,50,100
78240,note_on,30,0,1,,,,,,,,,0,,,81,0
78240,note_on,0,0,1,,,,,,,,,0,,,74,100
78240,note_on,30,0,4,,,,,,,,,0,,,53,100
78270,note_on,0,0,4,,,,,,,,,0,,,53,0
78270,note_on,30,0,1,,,,,,,,,0,,,74,0
78270,note_on,30,0,4,,,,,,,,,0,,,50,0
78300,note_on,30,0,4,,,,,,,,,0,,,46,100
78300,note_on,0,0,4,,,,,,,,,0,,,50,100
78300,note_on,270,0,2,,,,,,,,,0,,,53,100
78300,note_on,0,0,2,,,,,,,,,0,,,62,100
78330,note_on,30,0,4,,,,,,,,,0,,,50,0
78330,note_on,0,0,4,,,,,,,,,0,,,46,0
78330,note_on,30,0,2,,,,,,,,,0,,,62,0
78330,note_on,0,0,2,,,,,,,,,0,,,53,0
78360,note_on,0,0,2,,,,,,,,,0,,,62,100
78360,note_on,30,0,2,,,,,,,,,0,,,53,100
78360,note_on,30,0,4,,,,,,,,,0,,,46,100
78360,note_on,0,0,4,,,,,,,,,0,,,50,100
78390,note_on,0,0,2,,,,,,,,,0,,,53,0
78390,note_on,0,0,4,,,,,,,,,0,,,46,0
78390,note_on,30,0,4,,,,,,,,,0,,,50,0
78390,note_on,30,0,2,,,,,,,,,0,,,62,0
78420,note_on,30,0,4,,,,,,,,,0,,,46,100
78420,note_on,0,0,4,,,,,,,,,0,,,50,100
78420,note_on,30,0,2,,,,,,,,,0,,,53,100
78420,note_on,0,0,2,,,,,,,,,0,,,62,100
78450,note_on,30,0,4,,,,,,,,,0,,,50,0
78450,note_on,0,0,4,,,,,,,,,0,,,46,0
78450,note_on,0,0,2,,,,,,,,,0,,,53,0
78450,note_on,30,0,2,,,,,,,,,0,,,62,0
78480,note_on,0,0,4,,,,,,,,,0,,,49,110
78480,note_on,0,0,2,,,,,,,,,0,,,61,110
78480,note_on,30,0,2,,,,,,,,,0,,,53,110
78480,note_on,30,0,4,,,,,,,,,0,,,45,110
78540,note_on,0,0,2,,,,,,,,,0,,,53,100
78540,note_on,0,0,2,,,,,,,,,0,,,53,0
78540,note_on,60,0,2,,,,,,,,,0,,,61,0
78540,note_on,0,0,4,,,,,,,,,0,,,46,100
78540,note_on,60,0,4,,,,,,,,,0,,,49,0
78540,note_on,0,0,4,,,,,,,,,0,,,45,0
78540,note_on,0,0,2,,,,,,,,,0,,,62,100
78540,note_on,0,0,4,,,,,,,,,0,,,50,100
78570,note_on,30,0,2,,,,,,,,,0,,,62,0
78570,note_on,30,0,4,,,,,,,,,0,,,50,0
78570,note_on,0,0,4,,,,,,,,,0,,,46,0
78570,note_on,0,0,2,,,,,,,,,0,,,53,0
78600,note_on,0,0,2,,,,,,,,,0,,,62,100
78600,note_on,30,0,4,,,,,,,,,0,,,46,100
78600,note_on,0,0,4,,,,,,,,,0,,,50,100
78600,note_on,30,0,2,,,,,,,,,0,,,53,100
78630,note_on,0,0,4,,,,,,,,,0,,,46,0
78630,note_on,30,0,4,,,,,,,,,0,,,50,0
78630,note_on,0,0,2,,,,,,,,,0,,,53,0
78630,note_on,30,0,2,,,,,,,,,0,,,62,0
78660,note_on,30,0,4,,,,,,,,,0,,,46,100
78660,note_on,30,0,2,,,,,,,,,0,,,53,100
78660,note_on,0,0,2,,,,,,,,,0,,,62,100
78660,note_on,0,0,4,,,,,,,,,0,,,50,100
78690,note_on,30,0,2,,,,,,,,,0,,,62,0
78690,note_on,0,0,2,,,,,,,,,0,,,53,0
78690,note_on,0,0,4,,,,,,,,,0,,,46,0
78690,note_on,30,0,4,,,,,,,,,0,,,50,0
78720,note_on,0,0,4,,,,,,,,,0,,,47,110
78720,note_on,30,0,4,,,,,,,,,0,,,50,110
78720,note_on,0,0,1,,,,,,,,,0,,,56,110
78720,note_on,450,0,1,,,,,,,,,0,,,62,110
78810,note_on,90,0,1,,,,,,,,,0,,,62,0
78810,note_on,0,0,1,,,,,,,,,0,,,63,100
78810,note_on,0,0,4,,,,,,,,,0,,,51,100
78810,note_on,90,0,4,,,,,,,,,0,,,50,0
78825,note_on,15,0,4,,,,,,,,,0,,,51,0
78825,note_on,0,0,4,,,,,,,,,0,,,53,100
78825,note_on,0,0,1,,,,,,,,,0,,,65,100
78825,note_on,15,0,1,,,,,,,,,0,,,63,0
78840,note_on,0,0,4,,,,,,,,,0,,,47,0
78840,note_on,0,0,1,,,,,,,,,0,,,63,110
78840,note_on,0,0,4,,,,,,,,,0,,,48,110
78840,note_on,15,0,1,,,,,,,,,0,,,65,0
78840,note_on,0,0,1,,,,,,,,,0,,,56,0
78840,note_on,15,0,4,,,,,,,,,0,,,53,0
78840,note_on,0,0,4,,,,,,,,,0,,,51,110
78840,note_on,0,0,1,,,,,,,,,0,,,55,110
78930,note_on,90,0,4,,,,,,,,,0,,,51,0
78930,note_on,0,0,4,,,,,,,,,0,,,53,100
78930,note_on,0,0,1,,,,,,,,,0,,,65,100
78930,note_on,90,0,1,,,,,,,,,0,,,63,0
78945,note_on,15,0,4,,,,,,,,,0,,,53,0
78945,note_on,0,0,1,,,,,,,,,0,,,66,100
78945,note_on,15,0,1,,,,,,,,,0,,,65,0
78945,note_on,0,0,4,,,,,,,,,0,,,54,100
78960,note_on,15,0,4,,,,,,,,,0,,,54,0
78960,note_on,0,0,1,,,,,,,,,0,,,65,100
78960,note_on,0,0,4,,,,,,,,,0,,,41,100
78960,note_on,0,0,1,,,,,,,,,0,,,55,0
78960,note_on,15,0,1,,,,,,,,,0,,,66,0
78960,note_on,0,0,1,,,,,,,,,0,,,57,100
78960,note_on,0,0,1,,,,,,,,,0,,,63,100
78960,note_on,0,0,4,,,,,,,,,0,,,48,0
78960,note_on,0,0,4,,,,,,,,,0,,,48,100
78990,note_on,0,0,4,,,,,,,,,0,,,41,0
78990,note_on,30,0,4,,,,,,,,,0,,,48,0
78990,note_on,0,0,1,,,,,,,,,0,,,65,0
78990,note_on,30,0,1,,,,,,,,,0,,,63,0
79020,note_on,30,0,1,,,,,,,,,0,,,57,0
79020,note_on,0,0,4,,,,,,,,,0,,,60,100
79020,note_on,0,0,4,,,,,,,,,0,,,53,100
79020,note_on,0,0,1,,,,,,,,,0,,,69,100
79020,note_on,30,0,4,,,,,,,,,0,,,63,100
79050,note_on,30,0,4,,,,,,,,,0,,,53,0
79050,note_on,0,0,4,,,,,,,,,0,,,60,0
79050,note_on,0,0,4,,,,,,,,,0,,,63,0
79050,note_on,0,0,1,,,,,,,,,0,,,72,100
79050,note_on,30,0,1,,,,,,,,,0,,,69,0
79080,note_on,0,0,4,,,,,,,,,0,,,60,100
79080,note_on,0,0,4,,,,,,,,,0,,,53,100
79080,note_on,0,0,1,,,,,,,,,0,,,77,100
79080,note_on,30,0,1,,,,,,,,,0,,,72,0
79080,note_on,30,0,4,,,,,,,,,0,,,63,100
79110,note_on,0,0,4,,,,,,,,,0,,,60,0
79110,note_on,30,0,1,,,,,,,,,0,,,77,0
79110,note_on,0,0,4,,,,,,,,,0,,,63,0
79110,note_on,0,0,1,,,,,,,,,0,,,81,100
79110,note_on,30,0,4,,,,,,,,,0,,,53,0
79140,note_on,30,0,4,,,,,,,,,0,,,63,100
79140,note_on,0,0,4,,,,,,,,,0,,,60,100
79140,note_on,0,0,4,,,,,,,,,0,,,53,100
79140,note_on,30,0,1,,,,,,,,,0,,,81,0
79140,note_on,0,0,1,,,,,,,,,0,,,84,100
79170,note_on,30,0,1,,,,,,,,,0,,,84,0
79170,note_on,0,0,1,,,,,,,,,0,,,89,100
79170,note_on,30,0,4,,,,,,,,,0,,,53,0
79170,note_on,0,0,4,,,,,,,,,0,,,63,0
79170,note_on,0,0,4,,,,,,,,,0,,,60,0
79200,note_on,0,0,1,,,,,,,,,0,,,82,100
79200,note_on,30,0,1,,,,,,,,,0,,,89,0
79200,note_on,30,0,4,,,,,,,,,0,,,62,100
79200,note_on,0,0,4,,,,,,,,,0,,,58,100
79230,note_on,0,0,4,,,,,,,,,0,,,62,0
79230,note_on,30,0,1,,,,,,,,,0,,,82,0
79230,note_on,30,0,4,,,,,,,,,0,,,58,0
79260,note_on,30,0,4,,,,,,,,,0,,,46,100
79260,note_on,0,0,2,,,,,,,,,0,,,62,100
79260,note_on,570,0,2,,,,,,,,,0,,,53,100
79260,note_on,0,0,4,,,,,,,,,0,,,50,100
79290,note_on,30,0,4,,,,,,,,,0,,,50,0
79290,note_on,0,0,4,,,,,,,,,0,,,46,0
79290,note_on,0,0,2,,,,,,,,,0,,,53,0
79290,note_on,30,0,2,,,,,,,,,0,,,62,0
79320,note_on,0,0,4,,,,,,,,,0,,,50,100
79320,note_on,30,0,4,,,,,,,,,0,,,46,100
79320,note_on,0,0,2,,,,,,,,,0,,,62,100
79320,note_on,30,0,2,,,,,,,,,0,,,53,100
79350,note_on,0,0,4,,,,,,,,,0,,,46,0
79350,note_on,0,0,2,,,,,,,,,0,,,53,0
79350,note_on,30,0,2,,,,,,,,,0,,,62,0
79350,note_on,30,0,4,,,,,,,,,0,,,50,0
79380,note_on,30,0,4,,,,,,,,,0,,,46,100
79380,note_on,0,0,2,,,,,,,,,0,,,62,100
79380,note_on,30,0,2,,,,,,,,,0,,,53,100
79380,note_on,0,0,4,,,,,,,,,0,,,50,100
79410,note_on,30,0,4,,,,,,,,,0,,,50,0
79410,note_on,0,0,4,,,,,,,,,0,,,46,0
79410,note_on,0,0,2,,,,,,,,,0,,,53,0
79410,note_on,30,0,2,,,,,,,,,0,,,62,0
79440,note_on,30,0,4,,,,,,,,,0,,,49,110
79440,note_on,0,0,4,,,,,,,,,0,,,45,110
79440,note_on,0,0,2,,,,,,,,,0,,,61,110
79440,note_on,30,0,2,,,,,,,,,0,,,53,110
79500,note_on,0,0,2,,,,,,,,,0,,,62,100
79500,note_on,0,0,2,,,,,,,,,0,,,53,100
79500,note_on,0,0,2,,,,,,,,,0,,,53,0
79500,note_on,60,0,2,,,,,,,,,0,,,61,0
79500,note_on,60,0,4,,,,,,,,,0,,,45,0
79500,note_on,0,0,4,,,,,,,,,0,,,49,0
79500,note_on,0,0,4,,,,,,,,,0,,,50,100
79500,note_on,0,0,4,,,,,,,,,0,,,46,100
79530,note_on,30,0,2,,,,,,,,,0,,,62,0
79530,note_on,0,0,4,,,,,,,,,0,,,50,0
79530,note_on,0,0,2,,,,,,,,,0,,,53,0
79530,note_on,30,0,4,,,,,,,,,0,,,46,0
79560,note_on,30,0,2,,,,,,,,,0,,,53,100
79560,note_on,0,0,4,,,,,,,,,0,,,46,100
79560,note_on,0,0,2,,,,,,,,,0,,,62,100
79560,note_on,30,0,4,,,,,,,,,0,,,50,100
79590,note_on,30,0,4,,,,,,,,,0,,,46,0
79590,note_on,0,0,4,,,,,,,,,0,,,50,0
79590,note_on,30,0,2,,,,,,,,,0,,,62,0
79590,note_on,0,0,2,,,,,,,,,0,,,53,0
79620,note_on,30,0,4,,,,,,,,,0,,,50,100
79620,note_on,0,0,4,,,,,,,,,0,,,46,100
79620,note_on,30,0,2,,,,,,,,,0,,,53,100
79620,note_on,0,0,2,,,,,,,,,0,,,62,100
79650,note_on,0,0,2,,,,,,,,,0,,,53,0
79650,note_on,30,0,2,,,,,,,,,0,,,62,0
79650,note_on,30,0,4,,,,,,,,,0,,,46,0
79650,note_on,0,0,4,,,,,,,,,0,,,50,0
79680,note_on,0,0,1,,,,,,,,,0,,,62,110
79680,note_on,30,0,4,,,,,,,,,0,,,53,110
79680,note_on,0,0,4,,,,,,,,,0,,,50,110
79680,note_on,0,0,4,,,,,,,,,0,,,44,110
79680,note_on,450,0,1,,,,,,,,,0,,,68,110
79680,note_on,0,0,1,,,,,,,,,0,,,59,110
79740,note_on,0,0,4,,,,,,,,,0,,,50,0
79740,note_on,0,0,4,,,,,,,,,0,,,53,0
79740,note_on,0,0,4,,,,,,,,,0,,,50,100
79740,note_on,60,0,1,,,,,,,,,0,,,59,0
79740,note_on,0,0,1,,,,,,,,,0,,,62,0
79740,note_on,0,0,1,,,,,,,,,0,,,68,0
79740,note_on,0,0,1,,,,,,,,,0,,,67,100
79740,note_on,0,0,1,,,,,,,,,0,,,62,100
79740,note_on,0,0,1,,,,,,,,,0,,,59,100
79740,note_on,0,0,4,,,,,,,,,0,,,53,100
79740,note_on,0,0,4,,,,,,,,,0,,,43,100
79740,note_on,60,0,4,,,,,,,,,0,,,44,0
79770,note_on,30,0,1,,,,,,,,,0,,,59,0
79770,note_on,0,0,1,,,,,,,,,0,,,67,0
79770,note_on,30,0,4,,,,,,,,,0,,,53,0
79770,note_on,0,0,4,,,,,,,,,0,,,50,0
79770,note_on,0,0,4,,,,,,,,,0,,,43,0
79770,note_on,0,0,1,,,,,,,,,0,,,62,0
79800,note_on,0,0,1,,,,,,,,,0,,,62,100
79800,note_on,0,0,4,,,,,,,,,0,,,50,100
79800,note_on,0,0,4,,,,,,,,,0,,,53,100
79800,note_on,30,0,1,,,,,,,,,0,,,67,100
79800,note_on,30,0,4,,,,,,,,,0,,,43,100
79800,note_on,0,0,1,,,,,,,,,0,,,59,100
79830,note_on,0,0,4,,,,,,,,,0,,,43,0
79830,note_on,0,0,1,,,,,,,,,0,,,67,0
79830,note_on,0,0,1,,,,,,,,,0,,,62,0
79830,note_on,30,0,1,,,,,,,,,0,,,59,0
79830,note_on,0,0,4,,,,,,,,,0,,,50,0
79830,note_on,30,0,4,,,,,,,,,0,,,53,0
79860,note_on,30,0,1,,,,,,,,,0,,,67,100
79860,note_on,0,0,4,,,,,,,,,0,,,50,100
79860,note_on,0,0,4,,,,,,,,,0,,,53,100
79860,note_on,0,0,1,,,,,,,,,0,,,59,100
79860,note_on,30,0,4,,,,,,,,,0,,,43,100
79860,note_on,0,0,1,,,,,,,,,0,,,62,100
79890,note_on,0,0,4,,,,,,,,,0,,,43,0
79890,note_on,0,0,4,,,,,,,,,0,,,50,0
79890,note_on,30,0,4,,,,,,,,,0,,,53,0
79890,note_on,0,0,1,,,,,,,,,0,,,67,0
79890,note_on,0,0,1,,,,,,,,,0,,,62,0
79890,note_on,30,0,1,,,,,,,,,0,,,59,0
79920,note_on,30,0,4,,,,,,,,,0,,,52,100
79920,note_on,0,0,1,,,,,,,,,0,,,64,100
79920,note_on,30,0,1,,,,,,,,,0,,,60,100
79920,note_on,0,0,4,,,,,,,,,0,,,48,100
79950,note_on,0,0,4,,,,,,,,,0,,,52,0
79950,note_on,0,0,1,,,,,,,,,0,,,60,0
79950,note_on,30,0,1,,,,,,,,,0,,,64,0
79950,note_on,30,0,4,,,,,,,,,0,,,48,0
79980,note_on,30,0,1,,,,,,,,,0,,,64,100
79980,note_on,30,0,4,,,,,,,,,0,,,64,100
79980,note_on,0,0,4,,,,,,,,,0,,,60,100
80010,note_on,30,0,1,,,,,,,,,0,,,64,0
80010,note_on,0,0,1,,,,,,,,,0,,,67,100
80010,note_on,30,0,4,,,,,,,,,0,,,60,0
80010,note_on,0,0,4,,,,,,,,,0,,,64,0
80040,note_on,0,0,1,,,,,,,,,0,,,72,100
80040,note_on,30,0,1,,,,,,,,,0,,,67,0
80040,note_on,0,0,4,,,,,,,,,0,,,64,100
80040,note_on,30,0,4,,,,,,,,,0,,,60,100
80070,note_on,0,0,4,,,,,,,,,0,,,60,0
80070,note_on,30,0,4,,,,,,,,,0,,,64,0
80070,note_on,0,0,1,,,,,,,,,0,,,76,100
80070,note_on,30,0,1,,,,,,,,,0,,,72,0
80100,note_on,0,0,4,,,,,,,,,0,,,64,100
80100,note_on,30,0,4,,,,,,,,,0,,,60,100
80100,note_on,0,0,1,,,,,,,,,0,,,79,100
80100,note_on,30,0,1,,,,,,,,,0,,,76,0
80130,note_on,0,0,4,,,,,,,,,0,,,60,0
80130,note_on,0,0,1,,,,,,,,,0,,,84,100
80130,note_on,30,0,1,,,,,,,,,0,,,79,0
80130,note_on,30,0,4,,,,,,,,,0,,,64,0
80160,note_on,30,0,1,,,,,,,,,0,,,84,0
80160,note_on,0,0,1,,,,,,,,,0,,,64,110
80160,note_on,0,0,1,,,,,,,,,0,,,61,110
80160,note_on,0,0,4,,,,,,,,,0,,,46,110
80160,note_on,0,0,4,,,,,,,,,0,,,52,110
80160,note_on,30,0,4,,,,,,,,,0,,,55,110
80160,note_on,0,0,1,,,,,,,,,0,,,70,110
80220,note_on,0,0,1,,,,,,,,,0,,,64,100
80220,note_on,0,0,1,,,,,,,,,0,,,61,100
80220,note_on,0,0,1,,,,,,,,,0,,,64,0
80220,note_on,60,0,1,,,,,,,,,0,,,61,0
80220,note_on,0,0,1,,,,,,,,,0,,,69,100
80220,note_on,0,0,1,,,,,,,,,0,,,70,0
80220,note_on,0,0,4,,,,,,,,,0,,,52,100
80220,note_on,0,0,4,,,,,,,,,0,,,52,0
80220,note_on,0,0,4,,,,,,,,,0,,,55,0
80220,note_on,0,0,4,,,,,,,,,0,,,45,100
80220,note_on,0,0,4,,,,,,,,,0,,,55,100
80220,note_on,60,0,4,,,,,,,,,0,,,46,0
80250,note_on,30,0,4,,,,,,,,,0,,,55,0
80250,note_on,0,0,4,,,,,,,,,0,,,52,0
80250,note_on,30,0,1,,,,,,,,,0,,,61,0
80250,note_on,0,0,1,,,,,,,,,0,,,64,0
80250,note_on,0,0,1,,,,,,,,,0,,,69,0
80250,note_on,0,0,4,,,,,,,,,0,,,45,0
80280,note_on,30,0,1,,,,,,,,,0,,,69,100
80280,note_on,0,0,1,,,,,,,,,0,,,64,100
80280,note_on,0,0,1,,,,,,,,,0,,,61,100
80280,note_on,0,0,4,,,,,,,,,0,,,55,100
80280,note_on,0,0,4,,,,,,,,,0,,,52,100
80280,note_on,30,0,4,,,,,,,,,0,,,45,100
80310,note_on,0,0,4,,,,,,,,,0,,,45,0
80310,note_on,0,0,4,,,,,,,,,0,,,52,0
80310,note_on,30,0,4,,,,,,,,,0,,,55,0
80310,note_on,30,0,1,,,,,,,,,0,,,61,0
80310,note_on,0,0,1,,,,,,,,,0,,,64,0
80310,note_on,0,0,1,,,,,,,,,0,,,69,0
80340,note_on,0,0,4,,,,,,,,,0,,,52,100
80340,note_on,30,0,4,,,,,,,,,0,,,45,100
80340,note_on,0,0,4,,,,,,,,,0,,,55,100
80340,note_on,0,0,1,,,,,,,,,0,,,64,100
80340,note_on,0,0,1,,,,,,,,,0,,,61,100
80340,note_on,30,0,1,,,,,,,,,0,,,69,100
80370,note_on,30,0,1,,,,,,,,,0,,,61,0
80370,note_on,0,0,1,,,,,,,,,0,,,64,0
80370,note_on,30,0,4,,,,,,,,,0,,,55,0
80370,note_on,0,0,4,,,,,,,,,0,,,52,0
80370,note_on,0,0,1,,,,,,,,,0,,,69,0
80370,note_on,0,0,4,,,,,,,,,0,,,45,0
80400,note_on,30,0,1,,,,,,,,,0,,,66,100
80400,note_on,0,0,1,,,,,,,,,0,,,62,100
80400,note_on,30,0,4,,,,,,,,,0,,,50,100
80400,note_on,0,0,4,,,,,,,,,0,,,54,100
80430,note_on,30,0,4,,,,,,,,,0,,,54,0
80430,note_on,0,0,1,,,,,,,,,0,,,66,0
80430,note_on,30,0,1,,,,,,,,,0,,,62,0
80430,note_on,0,0,4,,,,,,,,,0,,,50,0
80460,note_on,30,0,4,,,,,,,,,0,,,66,100
80460,note_on,0,0,4,,,,,,,,,0,,,62,100
80460,note_on,30,0,1,,,,,,,,,0,,,66,100
80490,note_on,0,0,1,,,,,,,,,0,,,69,100
80490,note_on,30,0,1,,,,,,,,,0,,,66,0
80490,note_on,0,0,4,,,,,,,,,0,,,66,0
80490,note_on,30,0,4,,,,,,,,,0,,,62,0
80520,note_on,30,0,4,,,,,,,,,0,,,66,100
80520,note_on,0,0,4,,,,,,,,,0,,,62,100
80520,note_on,30,0,1,,,,,,,,,0,,,69,0
80520,note_on,0,0,1,,,,,,,,,0,,,74,100
80550,note_on,30,0,4,,,,,,,,,0,,,62,0
80550,note_on,0,0,4,,,,,,,,,0,,,66,0
80550,note_on,30,0,1,,,,,,,,,0,,,74,0
80550,note_on,0,0,1,,,,,,,,,0,,,78,100
80580,note_on,30,0,4,,,,,,,,,0,,,62,100
80580,note_on,0,0,4,,,,,,,,,0,,,66,100
80580,note_on,30,0,1,,,,,,,,,0,,,78,0
80580,note_on,0,0,1,,,,,,,,,0,,,81,100
80610,note_on,0,0,4,,,,,,,,,0,,,62,0
80610,note_on,0,0,1,,,,,,,,,0,,,86,100
80610,note_on,30,0,4,,,,,,,,,0,,,66,0
80610,note_on,30,0,1,,,,,,,,,0,,,81,0
80640,note_on,30,0,1,,,,,,,,,0,,,86,0
80640,note_on,0,0,1,,,,,,,,,0,,,75,110
80640,note_on,0,0,1,,,,,,,,,0,,,87,110
80640,note_on,0,0,4,,,,,,,,,0,,,63,110
80640,note_on,30,0,4,,,,,,,,,0,,,51,110
80700,note_on,60,0,1,,,,,,,,,0,,,87,0
80700,note_on,0,0,1,,,,,,,,,0,,,75,0
80700,note_on,0,0,1,,,,,,,,,0,,,74,109
80700,note_on,0,0,1,,,,,,,,,0,,,86,109
80700,note_on,0,0,4,,,,,,,,,0,,,62,109
80700,note_on,0,0,4,,,,,,,,,0,,,50,109
80700,note_on,0,0,4,,,,,,,,,0,,,51,0
80700,note_on,60,0,4,,,,,,,,,0,,,63,0
80730,note_on,30,0,4,,,,,,,,,0,,,62,0
80730,note_on,0,0,4,,,,,,,,,0,,,50,0
80730,note_on,30,0,1,,,,,,,,,0,,,86,0
80730,note_on,0,0,1,,,,,,,,,0,,,74,0
80760,note_on,0,0,1,,,,,,,,,0,,,86,107
80760,note_on,30,0,1,,,,,,,,,0,,,74,107
80760,note_on,30,0,4,,,,,,,,,0,,,50,107
80760,note_on,0,0,4,,,,,,,,,0,,,62,107
80820,note_on,0,0,1,,,,,,,,,0,,,85,106
80820,note_on,0,0,1,,,,,,,,,0,,,73,106
80820,note_on,0,0,1,,,,,,,,,0,,,74,0
80820,note_on,60,0,1,,,,,,,,,0,,,86,0
80820,note_on,0,0,4,,,,,,,,,0,,,49,106
80820,note_on,0,0,4,,,,,,,,,0,,,61,106
80820,note_on,60,0,4,,,,,,,,,0,,,62,0
80820,note_on,0,0,4,,,,,,,,,0,,,50,0
80850,note_on,30,0,4,,,,,,,,,0,,,61,0
80850,note_on,30,0,1,,,,,,,,,0,,,85,0
80850,note_on,0,0,1,,,,,,,,,0,,,73,0
80850,note_on,0,0,4,,,,,,,,,0,,,49,0
80880,note_on,0,0,4,,,,,,,,,0,,,61,104
80880,note_on,30,0,4,,,,,,,,,0,,,49,104
80880,note_on,0,0,1,,,,,,,,,0,,,85,104
80880,note_on,30,0,1,,,,,,,,,0,,,73,104
80940,note_on,0,0,1,,,,,,,,,0,,,86,102
80940,note_on,0,0,1,,,,,,,,,0,,,74,102
80940,note_on,0,0,1,,,,,,,,,0,,,73,0
80940,note_on,60,0,4,,,,,,,,,0,,,61,0
80940,note_on,0,0,4,,,,,,,,,0,,,49,0
80940,note_on,0,0,4,,,,,,,,,0,,,50,102
80940,note_on,0,0,4,,,,,,,,,0,,,62,102
80940,note_on,60,0,1,,,,,,,,,0,,,85,0
80970,note_on,0,0,1,,,,,,,,,0,,,74,0
80970,note_on,30,0,1,,,,,,,,,0,,,86,0
80970,note_on,0,0,4,,,,,,,,,0,,,50,0
80970,note_on,30,0,4,,,,,,,,,0,,,62,0
81000,note_on,30,0,1,,,,,,,,,0,,,74,101
81000,note_on,0,0,4,,,,,,,,,0,,,62,101
81000,note_on,30,0,4,,,,,,,,,0,,,50,101
81000,note_on,0,0,1,,,,,,,,,0,,,86,101
81060,note_on,0,0,4,,,,,,,,,0,,,57,99
81060,note_on,0,0,1,,,,,,,,,0,,,74,0
81060,note_on,0,0,1,,,,,,,,,0,,,69,99
81060,note_on,0,0,1,,,,,,,,,0,,,81,99
81060,note_on,60,0,1,,,,,,,,,0,,,86,0
81060,note_on,60,0,4,,,,,,,,,0,,,62,0
81060,note_on,0,0,4,,,,,,,,,0,,,50,0
81060,note_on,0,0,4,,,,,,,,,0,,,45,99
81090,note_on,30,0,1,,,,,,,,,0,,,81,0
81090,note_on,0,0,4,,,,,,,,,0,,,45,0
81090,note_on,30,0,4,,,,,,,,,0,,,57,0
81090,note_on,0,0,1,,,,,,,,,0,,,69,0
81120,note_on,0,0,4,,,,,,,,,0,,,55,98
81120,note_on,0,0,1,,,,,,,,,0,,,79,98
81120,note_on,30,0,4,,,,,,,,,0,,,43,98
81120,note_on,30,0,1,,,,,,,,,0,,,67,98
81180,note_on,0,0,1,,,,,,,,,0,,,66,96
81180,note_on,0,0,4,,,,,,,,,0,,,54,96
81180,note_on,0,0,4,,,,,,,,,0,,,42,96
81180,note_on,0,0,4,,,,,,,,,0,,,43,0
81180,note_on,0,0,1,,,,,,,,,0,,,78,96
81180,note_on,60,0,4,,,,,,,,,0,,,55,0
81180,note_on,0,0,1,,,,,,,,,0,,,67,0
81180,note_on,60,0,1,,,,,,,,,0,,,79,0
81210,note_on,0,0,4,,,,,,,,,0,,,42,0
81210,note_on,30,0,1,,,,,,,,,0,,,78,0
81210,note_on,30,0,4,,,,,,,,,0,,,54,0
81210,note_on,0,0,1,,,,,,,,,0,,,66,0
81240,note_on,0,0,1,,,,,,,,,0,,,78,94
81240,note_on,0,0,4,,,,,,,,,0,,,54,94
81240,note_on,30,0,4,,,,,,,,,0,,,42,94
81240,note_on,30,0,1,,,,,,,,,0,,,66,94
81300,note_on,0,0,1,,,,,,,,,0,,,64,93
81300,note_on,60,0,1,,,,,,,,,0,,,78,0
81300,note_on,0,0,1,,,,,,,,,0,,,76,93
81300,note_on,0,0,1,,,,,,,,,0,,,66,0
81300,note_on,60,0,4,,,,,,,,,0,,,54,0
81300,note_on,0,0,4,,,,,,,,,0,,,42,0
81300,note_on,0,0,4,,,,,,,,,0,,,40,93
81300,note_on,0,0,4,,,,,,,,,0,,,52,93
81330,note_on,30,0,4,,,,,,,,,0,,,52,0
81330,note_on,30,0,1,,,,,,,,,0,,,76,0
81330,note_on,0,0,1,,,,,,,,,0,,,64,0
81330,note_on,0,0,4,,,,,,,,,0,,,40,0
81360,note_on,0,0,1,,,,,,,,,0,,,76,91
81360,note_on,30,0,1,,,,,,,,,0,,,64,91
81360,note_on,0,0,4,,,,,,,,,0,,,52,91
81360,note_on,30,0,4,,,,,,,,,0,,,40,91
81420,note_on,0,0,1,,,,,,,,,0,,,74,89
81420,note_on,0,0,1,,,,,,,,,0,,,62,89
81420,note_on,60,0,4,,,,,,,,,0,,,52,0
81420,note_on,0,0,4,,,,,,,,,0,,,40,0
81420,note_on,0,0,4,,,,,,,,,0,,,38,89
81420,note_on,0,0,4,,,,,,,,,0,,,50,89
81420,note_on,60,0,1,,,,,,,,,0,,,76,0
81420,note_on,0,0,1,,,,,,,,,0,,,64,0
81450,note_on,30,0,4,,,,,,,,,0,,,50,0
81450,note_on,0,0,4,,,,,,,,,0,,,38,0
81450,note_on,30,0,1,,,,,,,,,0,,,74,0
81450,note_on,0,0,1,,,,,,,,,0,,,62,0
81480,note_on,30,0,1,,,,,,,,,0,,,62,88
81480,note_on,0,0,1,,,,,,,,,0,,,74,88
81480,note_on,30,0,4,,,,,,,,,0,,,38,88
81480,note_on,0,0,4,,,,,,,,,0,,,50,88
81510,note_on,30,0,1,,,,,,,,,0,,,74,0
81510,note_on,30,0,4,,,,,,,,,0,,,50,0
81510,note_on,0,0,4,,,,,,,,,0,,,38,0
81510,note_on,0,0,1,,,,,,,,,0,,,62,0
81540,note_on,30,0,4,,,,,,,,,0,,,38,86
81540,note_on,0,0,4,,,,,,,,,0,,,50,86
81540,note_on,0,0,1,,,,,,,,,0,,,74,86
81540,note_on,30,0,1,,,,,,,,,0,,,62,86
81570,note_on,30,0,1,,,,,,,,,0,,,74,0
81570,note_on,0,0,1,,,,,,,,,0,,,62,0
81570,note_on,0,0,4,,,,,,,,,0,,,38,0
81570,note_on,30,0,4,,,,,,,,,0,,,50,0
81600,note_on,0,0,4,,,,,,,,,0,,,51,85
81600,note_on,30,0,1,,,,,,,,,0,,,63,85
81600,note_on,30,0,4,,,,,,,,,0,,,39,85
81600,note_on,0,0,1,,,,,,,,,0,,,75,85
81660,note_on,0,0,4,,,,,,,,,0,,,39,0
81660,note_on,0,0,1,,,,,,,,,0,,,63,0
81660,note_on,0,0,1,,,,,,,,,0,,,62,83
81660,note_on,0,0,1,,,,,,,,,0,,,74,83
81660,note_on,60,0,4,,,,,,,,,0,,,51,0
81660,note_on,60,0,1,,,,,,,,,0,,,75,0
81660,note_on,0,0,4,,,,,,,,,0,,,38,83
81660,note_on,0,0,4,,,,,,,,,0,,,50,83
81690,note_on,30,0,1,,,,,,,,,0,,,74,0
81690,note_on,0,0,1,,,,,,,,,0,,,62,0
81690,note_on,0,0,4,,,,,,,,,0,,,38,0
81690,note_on,30,0,4,,,,,,,,,0,,,50,0
81720,note_on,0,0,4,,,,,,,,,0,,,50,81
81720,note_on,30,0,1,,,,,,,,,0,,,62,81
81720,note_on,30,0,4,,,,,,,,,0,,,38,81
81720,note_on,0,0,1,,,,,,,,,0,,,74,81
81780,note_on,0,0,1,,,,,,,,,0,,,73,80
81780,note_on,0,0,1,,,,,,,,,0,,,62,0
81780,note_on,0,0,1,,,,,,,,,0,,,61,80
81780,note_on,60,0,1,,,,,,,,,0,,,74,0
81780,note_on,0,0,4,,,,,,,,,0,,,49,80
81780,note_on,0,0,4,,,,,,,,,0,,,38,0
81780,note_on,0,0,4,,,,,,,,,0,,,37,80
81780,note_on,60,0,4,,,,,,,,,0,,,50,0
81810,note_on,30,0,1,,,,,,,,,0,,,73,0
81810,note_on,0,0,1,,,,,,,,,0,,,61,0
81810,note_on,0,0,4,,,,,,,,,0,,,37,0
81810,note_on,30,0,4,,,,,,,,,0,,,49,0
81840,note_on,30,0,1,,,,,,,,,0,,,61,78
81840,note_on,0,0,1,,,,,,,,,0,,,73,78
81840,note_on,30,0,4,,,,,,,,,0,,,37,78
81840,note_on,0,0,4,,,,,,,,,0,,,49,78
81900,note_on,0,0,4,,,,,,,,,0,,,50,76
81900,note_on,0,0,4,,,,,,,,,0,,,38,76
81900,note_on,0,0,1,,,,,,,,,0,,,74,76
81900,note_on,60,0,4,,,,,,,,,0,,,49,0
81900,note_on,0,0,4,,,,,,,,,0,,,37,0
81900,note_on,0,0,1,,,,,,,,,0,,,61,0
81900,note_on,60,0,1,,,,,,,,,0,,,73,0
81900,note_on,0,0,1,,,,,,,,,0,,,62,76
81930,note_on,30,0,4,,,,,,,,,0,,,50,0
81930,note_on,0,0,1,,,,,,,,,0,,,62,0
81930,note_on,30,0,1,,,,,,,,,0,,,74,0
81930,note_on,0,0,4,,,,,,,,,0,,,38,0
81960,note_on,30,0,4,,,,,,,,,0,,,38,75
81960,note_on,0,0,4,,,,,,,,,0,,,50,75
81960,note_on,30,0,1,,,,,,,,,0,,,62,75
81960,note_on,0,0,1,,,,,,,,,0,,,74,75
82020,note_on,60,0,4,,,,,,,,,0,,,50,0
82020,note_on,0,0,4,,,,,,,,,0,,,38,0
82020,note_on,0,0,4,,,,,,,,,0,,,45,73
82020,note_on,0,0,4,,,,,,,,,0,,,33,73
82020,note_on,0,0,1,,,,,,,,,0,,,69,73
82020,note_on,0,0,1,,,,,,,,,0,,,57,73
82020,note_on,0,0,1,,,,,,,,,0,,,62,0
82020,note_on,60,0,1,,,,,,,,,0,,,74,0
82050,note_on,0,0,4,,,,,,,,,0,,,33,0
82050,note_on,0,0,1,,,,,,,,,0,,,57,0
82050,note_on,30,0,1,,,,,,,,,0,,,69,0
82050,note_on,30,0,4,,,,,,,,,0,,,45,0
82080,note_on,2430,0,2,,,,,,,,,0,,,55,72
82080,note_on,0,0,2,,,,,,,,,0,,,67,72
82080,note_on,30,0,4,,,,,,,,,0,,,43,72
82140,note_on,0,0,2,,,,,,,,,0,,,55,0
82140,note_on,0,0,4,,,,,,,,,0,,,42,70
82140,note_on,60,0,4,,,,,,,,,0,,,43,0
82140,note_on,0,0,2,,,,,,,,,0,,,66,70
82140,note_on,0,0,2,,,,,,,,,0,,,54,70
82140,note_on,60,0,2,,,,,,,,,0,,,67,0
82170,note_on,30,0,2,,,,,,,,,0,,,66,0
82170,note_on,30,0,4,,,,,,,,,0,,,42,0
82170,note_on,0,0,2,,,,,,,,,0,,,54,0
82200,note_on,30,0,2,,,,,,,,,0,,,54,68
82200,note_on,0,0,2,,,,,,,,,0,,,66,68
82200,note_on,30,0,4,,,,,,,,,0,,,42,68
82260,note_on,60,0,2,,,,,,,,,0,,,66,0
82260,note_on,0,0,2,,,,,,,,,0,,,54,0
82260,note_on,0,0,2,,,,,,,,,0,,,52,67
82260,note_on,0,0,2,,,,,,,,,0,,,64,67
82260,note_on,0,0,4,,,,,,,,,0,,,40,67
82260,note_on,60,0,4,,,,,,,,,0,,,42,0
82290,note_on,30,0,2,,,,,,,,,0,,,64,0
82290,note_on,0,0,2,,,,,,,,,0,,,52,0
82290,note_on,30,0,4,,,,,,,,,0,,,40,0
82320,note_on,30,0,4,,,,,,,,,0,,,40,65
82320,note_on,0,0,2,,,,,,,,,0,,,64,65
82320,note_on,30,0,2,,,,,,,,,0,,,52,65
82380,note_on,0,0,4,,,,,,,,,0,,,38,63
82380,note_on,60,0,4,,,,,,,,,0,,,40,0
82380,note_on,60,0,2,,,,,,,,,0,,,64,0
82380,note_on,0,0,2,,,,,,,,,0,,,52,0
82380,note_on,0,0,2,,,,,,,,,0,,,50,63
82380,note_on,0,0,2,,,,,,,,,0,,,62,63
82410,note_on,30,0,2,,,,,,,,,0,,,62,0
82410,note_on,30,0,4,,,,,,,,,0,,,38,0
82410,note_on,0,0,2,,,,,,,,,0,,,50,0
82440,note_on,30,0,4,,,,,,,,,0,,,38,62
82440,note_on,30,0,2,,,,,,,,,0,,,50,62
82440,note_on,0,0,2,,,,,,,,,0,,,62,62
82470,note_on,30,0,4,,,,,,,,,0,,,38,0
82470,note_on,30,0,2,,,,,,,,,0,,,62,0
82470,note_on,0,0,2,,,,,,,,,0,,,50,0
82500,note_on,30,0,2,,,,,,,,,0,,,50,60
82500,note_on,30,0,4,,,,,,,,,0,,,38,60
82500,note_on,0,0,2,,,,,,,,,0,,,62,60
82530,note_on,30,0,4,,,,,,,,,0,,,38,0
82530,note_on,0,0,2,,,,,,,,,0,,,50,0
82530,note_on,30,0,2,,,,,,,,,0,,,62,0
82560,note_on,30,0,4,,,,,,,,,0,,,38,60
82560,note_on,0,0,2,,,,,,,,,0,,,50,60
82560,note_on,30,0,2,,,,,,,,,0,,,62,60
82620,note_on,0,0,4,,,,,,,,,0,,,38,60
82620,note_on,60,0,4,,,,,,,,,0,,,38,0
82620,note_on,0,0,2,,,,,,,,,0,,,50,60
82620,note_on,60,0,2,,,,,,,,,0,,,50,0
82620,note_on,0,0,2,,,,,,,,,0,,,62,0
82620,note_on,0,0,2,,,,,,,,,0,,,62,60
82680,note_on,0,0,2,,,,,,,,,0,,,50,60
82680,note_on,0,0,2,,,,,,,,,0,,,62,60
82680,note_on,0,0,2,,,,,,,,,0,,,62,0
82680,note_on,60,0,4,,,,,,,,,0,,,38,0
82680,note_on,0,0,4,,,,,,,,,0,,,38,60
82680,note_on,60,0,2,,,,,,,,,0,,,50,0
82740,note_on,0,0,2,,,,,,,,,0,,,50,60
82740,note_on,0,0,2,,,,,,,,,0,,,62,60
82740,note_on,0,0,2,,,,,,,,,0,,,62,0
82740,note_on,60,0,4,,,,,,,,,0,,,38,0
82740,note_on,0,0,4,,,,,,,,,0,,,38,60
82740,note_on,60,0,2,,,,,,,,,0,,,50,0
82800,note_on,60,0,2,,,,,,,,,0,,,50,0
82800,note_on,0,0,4,,,,,,,,,0,,,38,60
82800,note_on,0,0,2,,,,,,,,,0,,,62,0
82800,note_on,0,0,2,,,,,,,,,0,,,62,60
82800,note_on,0,0,2,,,,,,,,,0,,,50,60
82800,note_on,60,0,4,,,,,,,,,0,,,38,0
82860,note_on,60,0,4,,,,,,,,,0,,,38,0
82860,note_on,0,0,4,,,,,,,,,0,,,38,60
82860,note_on,60,0,2,,,,,,,,,0,,,50,0
82860,note_on,0,0,2,,,,,,,,,0,,,62,0
82860,note_on,0,0,2,,,,,,,,,0,,,50,60
82860,note_on,0,0,2,,,,,,,,,0,,,62,60
82920,note_on,60,0,2,,,,,,,,,0,,,50,0
82920,note_on,60,0,4,,,,,,,,,0,,,38,0
82920,note_on,0,0,4,,,,,,,,,0,,,38,60
82920,note_on,0,0,2,,,,,,,,,0,,,62,0
82920,note_on,0,0,2,,,,,,,,,0,,,62,60
82920,note_on,0,0,2,,,,,,,,,0,,,50,60
82980,note_on,0,0,2,,,,,,,,,0,,,50,60
82980,note_on,0,0,2,,,,,,,,,0,,,62,0
82980,note_on,60,0,4,,,,,,,,,0,,,38,0
82980,note_on,60,0,2,,,,,,,,,0,,,50,0
82980,note_on,0,0,2,,,,,,,,,0,,,62,60
82980,note_on,0,0,4,,,,,,,,,0,,,38,60
83040,note_on,60,0,2,,,,,,,,,0,,,50,0
83040,note_on,0,0,2,,,,,,,,,0,,,62,0
83040,note_on,0,0,2,,,,,,,,,0,,,52,50
83040,note_on,0,0,2,,,,,,,,,0,,,58,50
83040,note_on,0,0,2,,,,,,,,,0,,,61,50
83040,note_on,0,0,2,,,,,,,,,0,,,55,50
83040,note_on,60,0,4,,,,,,,,,0,,,38,0
83040,note_on,0,0,4,,,,,,,,,0,,,49,50
83100,note_on,0,0,2,,,,,,,,,0,,,52,0
83100,note_on,0,0,2,,,,,,,,,0,,,55,0
83100,note_on,0,0,2,,,,,,,,,0,,,52,40
83100,note_on,0,0,2,,,,,,,,,0,,,55,40
83100,note_on,0,0,4,,,,,,,,,0,,,48,40
83100,note_on,60,0,4,,,,,,,,,0,,,49,0
83100,note_on,60,0,2,,,,,,,,,0,,,61,0
83100,note_on,0,0,2,,,,,,,,,0,,,58,0
83100,note_on,0,0,2,,,,,,,,,0,,,60,40
83100,note_on,0,0,2,,,,,,,,,0,,,58,40
83130,note_on,30,0,2,,,,,,,,,0,,,60,0
83130,note_on,0,0,2,,,,,,,,,0,,,52,0
83130,note_on,30,0,4,,,,,,,,,0,,,48,0
83130,note_on,0,0,2,,,,,,,,,0,,,55,0
83130,note_on,0,0,2,,,,,,,,,0,,,58,0
83160,note_on,30,0,2,,,,,,,,,0,,,52,40
83160,note_on,0,0,2,,,,,,,,,0,,,55,40
83160,note_on,0,0,2,,,,,,,,,0,,,58,40
83160,note_on,0,0,2,,,,,,,,,0,,,60,40
83160,note_on,30,0,4,,,,,,,,,0,,,48,40
83220,note_on,60,0,2,,,,,,,,,0,,,60,0
83220,note_on,0,0,2,,,,,,,,,0,,,60,40
83220,note_on,0,0,2,,,,,,,,,0,,,58,40
83220,note_on,0,0,2,,,,,,,,,0,,,52,40
83220,note_on,0,0,2,,,,,,,,,0,,,55,40
83220,note_on,0,0,2,,,,,,,,,0,,,58,0
83220,note_on,0,0,2,,,,,,,,,0,,,55,0
83220,note_on,0,0,2,,,,,,,,,0,,,52,0
83220,note_on,0,0,4,,,,,,,,,0,,,48,40
83220,note_on,60,0,4,,,,,,,,,0,,,48,0
83280,note_on,0,0,2,,,,,,,,,0,,,60,40
83280,note_on,0,0,2,,,,,,,,,0,,,58,40
83280,note_on,0,0,2,,,,,,,,,0,,,55,40
83280,note_on,0,0,2,,,,,,,,,0,,,52,40
83280,note_on,0,0,2,,,,,,,,,0,,,55,0
83280,note_on,60,0,4,,,,,,,,,0,,,48,0
83280,note_on,0,0,2,,,,,,,,,0,,,58,0
83280,note_on,0,0,4,,,,,,,,,0,,,48,40
83280,note_on,0,0,2,,,,,,,,,0,,,52,0
83280,note_on,60,0,2,,,,,,,,,0,,,60,0
83340,note_on,60,0,2,,,,,,,,,0,,,60,0
83340,note_on,0,0,2,,,,,,,,,0,,,52,0
83340,note_on,0,0,2,,,,,,,,,0,,,55,0
83340,note_on,0,0,2,,,,,,,,,0,,,58,0
83340,note_on,0,0,2,,,,,,,,,0,,,52,40
83340,note_on,0,0,2,,,,,,,,,0,,,55,40
83340,note_on,0,0,2,,,,,,,,,0,,,58,40
83340,note_on,0,0,4,,,,,,,,,0,,,48,40
83340,note_on,60,0,4,,,,,,,,,0,,,48,0
83340,note_on,0,0,2,,,,,,,,,0,,,60,40
83400,note_on,0,0,2,,,,,,,,,0,,,55,40
83400,note_on,0,0,2,,,,,,,,,0,,,52,40
83400,note_on,0,0,2,,,,,,,,,0,,,58,0
83400,note_on,0,0,2,,,,,,,,,0,,,52,0
83400,note_on,0,0,2,,,,,,,,,0,,,55,0
83400,note_on,60,0,2,,,,,,,,,0,,,60,0
83400,note_on,0,0,2,,,,,,,,,0,,,58,40
83400,note_on,0,0,2,,,,,,,,,0,,,60,40
83400,note_on,60,0,4,,,,,,,,,0,,,48,0
83400,note_on,0,0,4,,,,,,,,,0,,,48,40
83460,note_on,0,0,2,,,,,,,,,0,,,52,0
83460,note_on,0,0,2,,,,,,,,,0,,,55,0
83460,note_on,0,0,2,,,,,,,,,0,,,58,0
83460,note_on,0,0,2,,,,,,,,,0,,,55,40
83460,note_on,60,0,2,,,,,,,,,0,,,60,0
83460,note_on,0,0,2,,,,,,,,,0,,,52,40
83460,note_on,0,0,2,,,,,,,,,0,,,60,40
83460,note_on,0,0,4,,,,,,,,,0,,,48,40
83460,note_on,60,0,4,,,,,,,,,0,,,48,0
83460,note_on,0,0,2,,,,,,,,,0,,,58,40
83520,note_on,60,0,2,,,,,,,,,0,,,60,0
83520,note_on,0,0,4,,,,,,,,,0,,,41,60
83520,note_on,60,0,4,,,,,,,,,0,,,48,0
83520,note_on,0,0,2,,,,,,,,,0,,,53,40
83520,note_on,0,0,2,,,,,,,,,0,,,57,40
83520,note_on,0,0,2,,,,,,,,,0,,,58,0
83520,note_on,0,0,2,,,,,,,,,0,,,52,0
83520,note_on,0,0,2,,,,,,,,,0,,,55,0
83520,note_on,0,0,2,,,,,,,,,0,,,60,40
83580,note_on,60,0,2,,,,,,,,,0,,,60,0
83580,note_on,0,0,2,,,,,,,,,0,,,53,0
83580,note_on,1530,0,1,,,,,,,,,0,,,69,40
83580,note_on,60,0,4,,,,,,,,,0,,,48,40
83580,note_on,0,0,2,,,,,,,,,0,,,57,0
83580,note_on,0,0,1,,,,,,,,,0,,,65,40
83580,note_on,0,0,1,,,,,,,,,0,,,60,40
83610,note_on,30,0,1,,,,,,,,,0,,,60,0
83610,note_on,0,0,1,,,,,,,,,0,,,65,0
83610,note_on,0,0,1,,,,,,,,,0,,,69,0
83640,note_on,60,0,4,,,,,,,,,0,,,48,0
83640,note_on,30,0,1,,,,,,,,,0,,,60,40
83640,note_on,0,0,1,,,,,,,,,0,,,65,40
83640,note_on,0,0,1,,,,,,,,,0,,,69,40
83640,note_on,0,0,4,,,,,,,,,0,,,48,40
83700,note_on,60,0,1,,,,,,,,,0,,,69,0
83700,note_on,0,0,1,,,,,,,,,0,,,60,0
83700,note_on,60,0,4,,,,,,,,,0,,,48,0
83700,note_on,0,0,1,,,,,,,,,0,,,65,0
83700,note_on,0,0,1,,,,,,,,,0,,,65,40
83700,note_on,0,0,1,,,,,,,,,0,,,69,40
83700,note_on,0,0,1,,,,,,,,,0,,,60,40
83700,note_on,0,0,4,,,,,,,,,0,,,48,40
83760,note_on,60,0,1,,,,,,,,,0,,,69,0
83760,note_on,60,0,4,,,,,,,,,0,,,48,0
83760,note_on,0,0,1,,,,,,,,,0,,,65,0
83760,note_on,0,0,1,,,,,,,,,0,,,60,0
83760,note_on,0,0,1,,,,,,,,,0,,,68,40
83760,note_on,0,0,1,,,,,,,,,0,,,65,40
83760,note_on,0,0,1,,,,,,,,,0,,,59,40
83760,note_on,0,0,4,,,,,,,,,0,,,48,40
83820,note_on,60,0,4,,,,,,,,,0,,,48,0
83820,note_on,0,0,1,,,,,,,,,0,,,69,40
83820,note_on,0,0,1,,,,,,,,,0,,,65,40
83820,note_on,0,0,1,,,,,,,,,0,,,60,40
83820,note_on,60,0,1,,,,,,,,,0,,,59,0
83820,note_on,0,0,1,,,,,,,,,0,,,65,0
83820,note_on,0,0,4,,,,,,,,,0,,,53,40
83820,note_on,0,0,1,,,,,,,,,0,,,68,0
83850,note_on,0,0,1,,,,,,,,,0,,,60,0
83850,note_on,30,0,1,,,,,,,,,0,,,69,0
83850,note_on,30,0,4,,,,,,,,,0,,,53,0
83850,note_on,0,0,1,,,,,,,,,0,,,65,0
83880,note_on,30,0,4,,,,,,,,,0,,,53,40
83880,note_on,0,0,1,,,,,,,,,0,,,69,40
83880,note_on,0,0,1,,,,,,,,,0,,,65,40
83880,note_on,30,0,1,,,,,,,,,0,,,60,40
83940,note_on,0,0,1,,,,,,,,,0,,,60,0
83940,note_on,0,0,1,,,,,,,,,0,,,65,0
83940,note_on,0,0,1,,,,,,,,,0,,,65,40
83940,note_on,60,0,1,,,,,,,,,0,,,69,0
83940,note_on,0,0,1,,,,,,,,,0,,,69,40
83940,note_on,0,0,1,,,,,,,,,0,,,60,40
83940,note_on,60,0,4,,,,,,,,,0,,,53,0
83940,note_on,0,0,4,,,,,,,,,0,,,53,40
84000,note_on,0,0,1,,,,,,,,,0,,,63,40
84000,note_on,0,0,1,,,,,,,,,0,,,65,40
84000,note_on,0,0,1,,,,,,,,,0,,,72,40
84000,note_on,0,0,1,,,,,,,,,0,,,60,0
84000,note_on,0,0,1,,,,,,,,,0,,,65,0
84000,note_on,60,0,1,,,,,,,,,0,,,69,0
84000,note_on,60,0,4,,,,,,,,,0,,,53,0
84000,note_on,0,0,4,,,,,,,,,0,,,41,0
84000,note_on,0,0,4,,,,,,,,,0,,,46,60
84060,note_on,60,0,4,,,,,,,,,0,,,53,40
84060,note_on,60,0,1,,,,,,,,,0,,,65,0
84060,note_on,0,0,1,,,,,,,,,0,,,63,0
84060,note_on,0,0,1,,,,,,,,,0,,,70,40
84060,note_on,0,0,1,,,,,,,,,0,,,65,40
84060,note_on,0,0,1,,,,,,,,,0,,,62,40
84060,note_on,0,0,1,,,,,,,,,0,,,72,0
84090,note_on,0,0,1,,,,,,,,,0,,,65,0
84090,note_on,0,0,1,,,,,,,,,0,,,62,0
84090,note_on,30,0,1,,,,,,,,,0,,,70,0
84120,note_on,0,0,4,,,,,,,,,0,,,53,40
84120,note_on,60,0,4,,,,,,,,,0,,,53,0
84120,note_on,30,0,1,,,,,,,,,0,,,62,40
84120,note_on,0,0,1,,,,,,,,,0,,,65,40
84120,note_on,0,0,1,,,,,,,,,0,,,70,40
84180,note_on,0,0,4,,,,,,,,,0,,,53,40
84180,note_on,0,0,1,,,,,,,,,0,,,70,40
84180,note_on,60,0,4,,,,,,,,,0,,,53,0
84180,note_on,0,0,1,,,,,,,,,0,,,65,40
84180,note_on,0,0,1,,,,,,,,,0,,,62,40
84180,note_on,0,0,1,,,,,,,,,0,,,65,0
84180,note_on,60,0,1,,,,,,,,,0,,,70,0
84180,note_on,0,0,1,,,,,,,,,0,,,62,0
84240,note_on,0,0,4,,,,,,,,,0,,,53,40
84240,note_on,60,0,4,,,,,,,,,0,,,53,0
84240,note_on,60,0,1,,,,,,,,,0,,,70,0
84240,note_on,0,0,1,,,,,,,,,0,,,62,0
84240,note_on,0,0,1,,,,,,,,,0,,,65,0
84240,note_on,0,0,1,,,,,,,,,0,,,70,40
84240,note_on,0,0,1,,,,,,,,,0,,,65,40
84240,note_on,0,0,1,,,,,,,,,0,,,62,40
84300,note_on,60,0,1,,,,,,,,,0,,,62,0
84300,note_on,0,0,1,,,,,,,,,0,,,70,0
84300,note_on,0,0,1,,,,,,,,,0,,,60,40
84300,note_on,0,0,1,,,,,,,,,0,,,62,40
84300,note_on,0,0,1,,,,,,,,,0,,,69,40
84300,note_on,60,0,4,,,,,,,,,0,,,53,0
84300,note_on,0,0,4,,,,,,,,,0,,,54,40
84300,note_on,0,0,1,,,,,,,,,0,,,65,0
84360,note_on,60,0,4,,,,,,,,,0,,,54,0
84360,note_on,0,0,4,,,,,,,,,0,,,55,40
84360,note_on,0,0,1,,,,,,,,,0,,,62,40
84360,note_on,0,0,1,,,,,,,,,0,,,58,40
84360,note_on,0,0,1,,,,,,,,,0,,,60,0
84360,note_on,0,0,1,,,,,,,,,0,,,62,0
84360,note_on,60,0,1,,,,,,,,,0,,,69,0
84360,note_on,0,0,1,,,,,,,,,0,,,67,40
84420,note_on,0,0,4,,,,,,,,,0,,,46,0
84420,note_on,60,0,4,,,,,,,,,0,,,55,0
84420,note_on,0,0,4,,,,,,,,,0,,,47,60
84420,note_on,0,0,4,,,,,,,,,0,,,50,40
84420,note_on,0,0,1,,,,,,,,,0,,,57,40
84420,note_on,0,0,1,,,,,,,,,0,,,62,40
84420,note_on,0,0,1,,,,,,,,,0,,,65,40
84420,note_on,0,0,1,,,,,,,,,0,,,58,0
84420,note_on,0,0,1,,,,,,,,,0,,,62,0
84420,note_on,60,0,1,,,,,,,,,0,,,67,0
84480,note_on,0,0,1,,,,,,,,,0,,,60,40
84480,note_on,0,0,1,,,,,,,,,0,,,57,40
84480,note_on,0,0,1,,,,,,,,,0,,,65,0
84480,note_on,0,0,1,,,,,,,,,0,,,62,0
84480,note_on,60,0,1,,,,,,,,,0,,,57,0
84480,note_on,0,0,4,,,,,,,,,0,,,36,60
84480,note_on,60,0,4,,,,,,,,,0,,,47,0
84480,note_on,0,0,4,,,,,,,,,0,,,50,0
84480,note_on,0,0,1,,,,,,,,,0,,,65,40
84540,note_on,60,0,4,,,,,,,,,0,,,48,40
84540,note_on,0,0,1,,,,,,,,,0,,,57,0
84540,note_on,0,0,1,,,,,,,,,0,,,64,40
84540,note_on,0,0,1,,,,,,,,,0,,,60,40
84540,note_on,0,0,1,,,,,,,,,0,,,55,40
84540,note_on,60,0,1,,,,,,,,,0,,,65,0
84540,note_on,0,0,1,,,,,,,,,0,,,60,0
84570,note_on,0,0,1,,,,,,,,,0,,,64,0
84570,note_on,0,0,1,,,,,,,,,0,,,60,0
84570,note_on,30,0,1,,,,,,,,,0,,,55,0
84600,note_on,0,0,4,,,,,,,,,0,,,48,40
84600,note_on,60,0,4,,,,,,,,,0,,,48,0
84600,note_on,0,0,1,,,,,,,,,0,,,64,40
84600,note_on,30,0,1,,,,,,,,,0,,,60,40
84600,note_on,0,0,1,,,,,,,,,0,,,55,40
84660,note_on,60,0,1,,,,,,,,,0,,,55,0
84660,note_on,0,0,1,,,,,,,,,0,,,60,40
84660,note_on,0,0,1,,,,,,,,,0,,,64,40
84660,note_on,0,0,1,,,,,,,,,0,,,55,40
84660,note_on,0,0,1,,,,,,,,,0,,,60,0
84660,note_on,0,0,1,,,,,,,,,0,,,64,0
84660,note_on,60,0,4,,,,,,,,,0,,,48,0
84660,note_on,0,0,4,,,,,,,,,0,,,48,40
84720,note_on,0,0,4,,,,,,,,,0,,,48,40
84720,note_on,0,0,1,,,,,,,,,0,,,60,40
84720,note_on,0,0,1,,,,,,,,,0,,,64,40
84720,note_on,0,0,1,,,,,,,,,0,,,60,0
84720,note_on,0,0,1,,,,,,,,,0,,,64,0
84720,note_on,0,0,1,,,,,,,,,0,,,55,40
84720,note_on,60,0,4,,,,,,,,,0,,,48,0
84720,note_on,60,0,1,,,,,,,,,0,,,55,0
84780,note_on,0,0,1,,,,,,,,,0,,,64,40
84780,note_on,0,0,1,,,,,,,,,0,,,60,40
84780,note_on,0,0,1,,,,,,,,,0,,,55,40
84780,note_on,0,0,4,,,,,,,,,0,,,48,40
84780,note_on,0,0,1,,,,,,,,,0,,,55,0
84780,note_on,0,0,1,,,,,,,,,0,,,60,0
84780,note_on,60,0,1,,,,,,,,,0,,,64,0
84780,note_on,60,0,4,,,,,,,,,0,,,48,0
84840,note_on,0,0,1,,,,,,,,,0,,,65,40
84840,note_on,0,0,4,,,,,,,,,0,,,48,40
84840,note_on,60,0,4,,,,,,,,,0,,,48,0
84840,note_on,60,0,1,,,,,,,,,0,,,64,0
84840,note_on,0,0,1,,,,,,,,,0,,,60,0
84840,note_on,0,0,1,,,,,,,,,0,,,57,40
84840,note_on,0,0,1,,,,,,,,,0,,,60,40
84840,note_on,0,0,1,,,,,,,,,0,,,55,0
84900,note_on,0,0,1,,,,,,,,,0,,,67,40
84900,note_on,0,0,1,,,,,,,,,0,,,60,0
84900,note_on,0,0,1,,,,,,,,,0,,,65,0
84900,note_on,0,0,1,,,,,,,,,0,,,58,40
84900,note_on,0,0,1,,,,,,,,,0,,,60,40
84900,note_on,60,0,4,,,,,,,,,0,,,48,0
84900,note_on,0,0,4,,,,,,,,,0,,,48,40
84900,note_on,60,0,1,,,,,,,,,0,,,57,0
84960,note_on,0,0,1,,,,,,,,,0,,,60,40
84960,note_on,0,0,1,,,,,,,,,0,,,58,40
84960,note_on,0,0,1,,,,,,,,,0,,,67,0
84960,note_on,60,0,1,,,,,,,,,0,,,58,0
84960,note_on,0,0,1,,,,,,,,,0,,,60,0
84960,note_on,60,0,4,,,,,,,,,0,,,48,0
84960,note_on,0,0,4,,,,,,,,,0,,,36,0
84960,note_on,0,0,4,,,,,,,,,0,,,41,60
85020,note_on,0,0,1,,,,,,,,,0,,,57,40
85020,note_on,0,0,1,,,,,,,,,0,,,60,40
85020,note_on,0,0,1,,,,,,,,,0,,,65,40
85020,note_on,0,0,1,,,,,,,,,0,,,58,0
85020,note_on,60,0,1,,,,,,,,,0,,,60,0
85020,note_on,60,0,4,,,,,,,,,0,,,48,40
85050,note_on,0,0,1,,,,,,,,,0,,,65,0
85050,note_on,30,0,1,,,,,,,,,0,,,57,0
85050,note_on,0,0,1,,,,,,,,,0,,,60,0
85080,note_on,0,0,4,,,,,,,,,0,,,48,40
85080,note_on,30,0,1,,,,,,,,,0,,,57,40
85080,note_on,0,0,1,,,,,,,,,0,,,60,40
85080,note_on,0,0,1,,,,,,,,,0,,,65,40
85080,note_on,60,0,4,,,,,,,,,0,,,48,0
85140,note_on,0,0,1,,,,,,,,,0,,,57,0
85140,note_on,60,0,1,,,,,,,,,0,,,65,0
85140,note_on,0,0,1,,,,,,,,,0,,,60,0
85140,note_on,0,0,1,,,,,,,,,0,,,60,40
85140,note_on,0,0,1,,,,,,,,,0,,,65,40
85140,note_on,0,0,1,,,,,,,,,0,,,57,40
85140,note_on,0,0,4,,,,,,,,,0,,,48,40
85140,note_on,60,0,4,,,,,,,,,0,,,48,0
85200,note_on,60,0,1,,,,,,,,,0,,,65,0
85200,note_on,0,0,1,,,,,,,,,0,,,57,0
85200,note_on,0,0,1,,,,,,,,,0,,,60,0
85200,note_on,0,0,1,,,,,,,,,0,,,65,40
85200,note_on,0,0,1,,,,,,,,,0,,,60,40
85200,note_on,0,0,1,,,,,,,,,0,,,57,40
85200,note_on,0,0,4,,,,,,,,,0,,,48,40
85200,note_on,60,0,4,,,,,,,,,0,,,48,0
85260,note_on,0,0,1,,,,,,,,,0,,,60,0
85260,note_on,0,0,1,,,,,,,,,0,,,60,40
85260,note_on,0,0,1,,,,,,,,,0,,,65,40
85260,note_on,60,0,1,,,,,,,,,0,,,57,0
85260,note_on,0,0,1,,,,,,,,,0,,,57,40
85260,note_on,0,0,4,,,,,,,,,0,,,48,40
85260,note_on,0,0,1,,,,,,,,,0,,,65,0
85260,note_on,60,0,4,,,,,,,,,0,,,48,0
85305,note_on,45,0,1,,,,,,,,,0,,,65,40
85320,note_on,0,0,4,,,,,,,,,0,,,41,0
85320,note_on,0,0,4,,,,,,,,,0,,,48,40
85320,note_on,0,0,4,,,,,,,,,0,,,41,60
85320,note_on,60,0,4,,,,,,,,,0,,,48,0
85320,note_on,0,0,1,,,,,,,,,0,,,60,0
85320,note_on,15,0,1,,,,,,,,,0,,,57,0
85320,note_on,0,0,1,,,,,,,,,0,,,60,40
85320,note_on,0,0,1,,,,,,,,,0,,,69,40
85320,note_on,0,0,1,,,,,,,,,0,,,65,0
85380,note_on,0,0,4,,,,,,,,,0,,,45,60
85380,note_on,0,0,4,,,,,,,,,0,,,48,40
85380,note_on,0,0,4,,,,,,,,,0,,,48,0
85380,note_on,60,0,4,,,,,,,,,0,,,41,0
85410,note_on,90,0,1,,,,,,,,,0,,,60,0
85410,note_on,0,0,1,,,,,,,,,0,,,65,0
85410,note_on,0,0,1,,,,,,,,,0,,,65,40
85410,note_on,0,0,1,,,,,,,,,0,,,60,40
85410,note_on,0,0,1,,,,,,,,,0,,,57,40
85410,note_on,0,0,1,,,,,,,,,0,,,69,0
85440,note_on,30,0,1,,,,,,,,,0,,,57,0
85440,note_on,0,0,1,,,,,,,,,0,,,60,0
85440,note_on,0,0,1,,,,,,,,,0,,,65,0
85440,note_on,0,0,1,,,,,,,,,0,,,60,40
85440,note_on,0,0,1,,,,,,,,,0,,,65,40
85440,note_on,0,0,4,,,,,,,,,0,,,48,0
85440,note_on,0,0,4,,,,,,,,,0,,,36,60
85440,note_on,60,0,4,,,,,,,,,0,,,45,0
85440,note_on,0,0,1,,,,,,,,,0,,,57,40
85500,note_on,0,0,1,,,,,,,,,0,,,60,40
85500,note_on,0,0,1,,,,,,,,,0,,,55,40
85500,note_on,0,0,1,,,,,,,,,0,,,65,0
85500,note_on,0,0,1,,,,,,,,,0,,,60,0
85500,note_on,60,0,1,,,,,,,,,0,,,57,0
85500,note_on,0,0,1,,,,,,,,,0,,,64,40
85500,note_on,60,0,4,,,,,,,,,0,,,48,40
85530,note_on,0,0,1,,,,,,,,,0,,,60,0
85530,note_on,30,0,1,,,,,,,,,0,,,64,0
85530,note_on,0,0,1,,,,,,,,,0,,,55,0
85560,note_on,0,0,1,,,,,,,,,0,,,64,40
85560,note_on,0,0,4,,,,,,,,,0,,,48,40
85560,note_on,60,0,4,,,,,,,,,0,,,48,0
85560,note_on,30,0,1,,,,,,,,,0,,,55,40
85560,note_on,0,0,1,,,,,,,,,0,,,60,40
85620,note_on,0,0,1,,,,,,,,,0,,,55,40
85620,note_on,0,0,1,,,,,,,,,0,,,60,40
85620,note_on,0,0,1,,,,,,,,,0,,,64,40
85620,note_on,60,0,1,,,,,,,,,0,,,64,0
85620,note_on,0,0,1,,,,,,,,,0,,,60,0
85620,note_on,60,0,4,,,,,,,,,0,,,48,0
85620,note_on,0,0,4,,,,,,,,,0,,,48,40
85620,note_on,0,0,1,,,,,,,,,0,,,55,0
85680,note_on,0,0,1,,,,,,,,,0,,,55,40
85680,note_on,0,0,1,,,,,,,,,0,,,60,40
85680,note_on,0,0,4,,,,,,,,,0,,,48,40
85680,note_on,0,0,1,,,,,,,,,0,,,55,0
85680,note_on,0,0,1,,,,,,,,,0,,,60,0
85680,note_on,60,0,1,,,,,,,,,0,,,64,0
85680,note_on,60,0,4,,,,,,,,,0,,,48,0
85680,note_on,0,0,1,,,,,,,,,0,,,64,40
85740,note_on,60,0,4,,,,,,,,,0,,,48,0
85740,note_on,0,0,1,,,,,,,,,0,,,60,0
85740,note_on,0,0,1,,,,,,,,,0,,,60,40
85740,note_on,0,0,1,,,,,,,,,0,,,64,40
85740,note_on,0,0,1,,,,,,,,,0,,,55,40
85740,note_on,0,0,4,,,,,,,,,0,,,48,40
85740,note_on,60,0,1,,,,,,,,,0,,,55,0
85740,note_on,0,0,1,,,,,,,,,0,,,64,0
85800,note_on,0,0,4,,,,,,,,,0,,,48,40
85800,note_on,0,0,1,,,,,,,,,0,,,64,0
85800,note_on,0,0,1,,,,,,,,,0,,,60,0
85800,note_on,0,0,1,,,,,,,,,0,,,65,40
85800,note_on,0,0,1,,,,,,,,,0,,,60,40
85800,note_on,60,0,4,,,,,,,,,0,,,48,0
85800,note_on,60,0,1,,,,,,,,,0,,,55,0
85800,note_on,0,0,1,,,,,,,,,0,,,57,40
85860,note_on,0,0,1,,,,,,,,,0,,,67,40
85860,note_on,0,0,1,,,,,,,,,0,,,60,0
85860,note_on,60,0,1,,,,,,,,,0,,,57,0
85860,note_on,0,0,4,,,,,,,,,0,,,48,40
85860,note_on,60,0,4,,,,,,,,,0,,,48,0
85860,note_on,0,0,1,,,,,,,,,0,,,58,40
85860,note_on,0,0,1,,,,,,,,,0,,,60,40
85860,note_on,0,0,1,,,,,,,,,0,,,65,0
85920,note_on,60,0,1,,,,,,,,,0,,,58,0
85920,note_on,60,0,4,,,,,,,,,0,,,48,0
85920,note_on,0,0,4,,,,,,,,,0,,,36,0
85920,note_on,0,0,4,,,,,,,,,0,,,41,60
85920,note_on,0,0,1,,,,,,,,,0,,,60,0
85920,note_on,0,0,1,,,,,,,,,0,,,67,0
85920,note_on,0,0,1,,,,,,,,,0,,,60,40
85920,note_on,0,0,1,,,,,,,,,0,,,58,40
85980,note_on,0,0,1,,,,,,,,,0,,,65,40
85980,note_on,0,0,1,,,,,,,,,0,,,60,40
85980,note_on,0,0,1,,,,,,,,,0,,,57,40
85980,note_on,60,0,1,,,,,,,,,0,,,60,0
85980,note_on,0,0,1,,,,,,,,,0,,,58,0
85980,note_on,60,0,4,,,,,,,,,0,,,48,40
86010,note_on,30,0,1,,,,,,,,,0,,,57,0
86010,note_on,0,0,1,,,,,,,,,0,,,60,0
86010,note_on,0,0,1,,,,,,,,,0,,,65,0
86040,note_on,30,0,1,,,,,,,,,0,,,65,40
86040,note_on,0,0,4,,,,,,,,,0,,,45,40
86040,note_on,0,0,1,,,,,,,,,0,,,57,40
86040,note_on,0,0,1,,,,,,,,,0,,,60,40
86040,note_on,60,0,4,,,,,,,,,0,,,48,0
86100,note_on,60,0,4,,,,,,,,,0,,,45,0
86100,note_on,0,0,4,,,,,,,,,0,,,48,40
86100,note_on,0,0,1,,,,,,,,,0,,,60,0
86100,note_on,0,0,1,,,,,,,,,0,,,60,40
86100,note_on,0,0,1,,,,,,,,,0,,,65,40
86100,note_on,0,0,1,,,,,,,,,0,,,65,0
86100,note_on,60,0,1,,,,,,,,,0,,,57,0
86100,note_on,0,0,1,,,,,,,,,0,,,57,40
86160,note_on,60,0,4,,,,,,,,,0,,,48,0
86160,note_on,0,0,4,,,,,,,,,0,,,53,40
86160,note_on,0,0,1,,,,,,,,,0,,,65,0
86160,note_on,0,0,1,,,,,,,,,0,,,57,40
86160,note_on,0,0,1,,,,,,,,,0,,,60,40
86160,note_on,0,0,1,,,,,,,,,0,,,65,40
86160,note_on,0,0,1,,,,,,,,,0,,,60,0
86160,note_on,60,0,1,,,,,,,,,0,,,57,0
86190,note_on,30,0,4,,,,,,,,,0,,,53,0
86190,note_on,0,0,1,,,,,,,,,0,,,65,0
86190,note_on,0,0,1,,,,,,,,,0,,,60,0
86190,note_on,30,0,1,,,,,,,,,0,,,57,0
86220,note_on,0,0,1,,,,,,,,,0,,,60,45
86220,note_on,0,0,1,,,,,,,,,0,,,57,45
86220,note_on,0,0,1,,,,,,,,,0,,,69,45
86220,note_on,30,0,1,,,,,,,,,0,,,72,45
86220,note_on,30,0,4,,,,,,,,,0,,,41,0
86280,note_on,0,0,1,,,,,,,,,0,,,72,50
86280,note_on,60,0,1,,,,,,,,,0,,,60,0
86280,note_on,0,0,1,,,,,,,,,0,,,72,0
86280,note_on,0,0,1,,,,,,,,,0,,,69,0
86280,note_on,0,0,1,,,,,,,,,0,,,57,0
86280,note_on,0,0,1,,,,,,,,,0,,,77,50
86280,note_on,0,0,1,,,,,,,,,0,,,69,50
86280,note_on,0,0,1,,,,,,,,,0,,,65,50
86280,note_on,0,0,1,,,,,,,,,0,,,60,50
86280,note_on,0,0,1,,,,,,,,,0,,,57,50
86340,note_on,0,0,1,,,,,,,,,0,,,79,56
86340,note_on,60,0,1,,,,,,,,,0,,,57,0
86340,note_on,0,0,1,,,,,,,,,0,,,65,0
86340,note_on,0,0,1,,,,,,,,,0,,,69,0
86340,note_on,0,0,1,,,,,,,,,0,,,77,0
86340,note_on,0,0,1,,,,,,,,,0,,,72,0
86340,note_on,0,0,1,,,,,,,,,0,,,64,56
86340,note_on,0,0,1,,,,,,,,,0,,,76,56
86340,note_on,0,0,1,,,,,,,,,0,,,72,56
86340,note_on,0,0,1,,,,,,,,,0,,,67,56
86340,note_on,0,0,1,,,,,,,,,0,,,60,0
86340,note_on,0,0,1,,,,,,,,,0,,,60,56
86400,note_on,180,0,4,,,,,,,,,0,,,53,80
86400,note_on,0,0,1,,,,,,,,,0,,,67,0
86400,note_on,0,0,1,,,,,,,,,0,,,76,0
86400,note_on,0,0,1,,,,,,,,,0,,,72,0
86400,note_on,0,0,1,,,,,,,,,0,,,79,0
86400,note_on,0,0,1,,,,,,,,,0,,,64,0
86400,note_on,60,0,1,,,,,,,,,0,,,60,0
86430,note_on,30,0,4,,,,,,,,,0,,,53,0
86460,note_on,60,0,1,,,,,,,,,0,,,81,60
86460,note_on,0,0,1,,,,,,,,,0,,,77,60
86460,note_on,0,0,3,,,,,,,,,0,,,60,60
86460,note_on,0,0,3,,,,,,,,,0,,,65,60
86460,note_on,54420,0,3,,,,,,,,,0,,,69,60
86460,note_on,0,0,1,,,,,,,,,0,,,72,60
86520,note_on,0,0,1,,,,,,,,,0,,,77,60
86520,note_on,0,0,3,,,,,,,,,0,,,65,0
86520,note_on,0,0,3,,,,,,,,,0,,,69,0
86520,note_on,0,0,3,,,,,,,,,0,,,65,60
86520,note_on,0,0,3,,,,,,,,,0,,,69,60
86520,note_on,0,0,3,,,,,,,,,0,,,60,60
86520,note_on,0,0,1,,,,,,,,,0,,,72,60
86520,note_on,0,0,1,,,,,,,,,0,,,81,60
86520,note_on,0,0,1,,,,,,,,,0,,,81,0
86520,note_on,0,0,1,,,,,,,,,0,,,77,0
86520,note_on,60,0,1,,,,,,,,,0,,,72,0
86520,note_on,60,0,3,,,,,,,,,0,,,60,0
86580,note_on,0,0,1,,,,,,,,,0,,,81,60
86580,note_on,0,0,1,,,,,,,,,0,,,77,60
86580,note_on,0,0,1,,,,,,,,,0,,,72,60
86580,note_on,60,0,1,,,,,,,,,0,,,72,0
86580,note_on,0,0,1,,,,,,,,,0,,,77,0
86580,note_on,0,0,3,,,,,,,,,0,,,60,60
86580,note_on,60,0,3,,,,,,,,,0,,,60,0
86580,note_on,0,0,3,,,,,,,,,0,,,69,0
86580,note_on,0,0,3,,,,,,,,,0,,,65,0
86580,note_on,0,0,1,,,,,,,,,0,,,81,0
86580,note_on,0,0,3,,,,,,,,,0,,,69,60
86580,note_on,0,0,3,,,,,,,,,0,,,65,60
86640,note_on,0,0,3,,,,,,,,,0,,,59,60
86640,note_on,0,0,3,,,,,,,,,0,,,65,60
86640,note_on,0,0,3,,,,,,,,,0,,,68,60
86640,note_on,0,0,3,,,,,,,,,0,,,69,0
86640,note_on,0,0,3,,,,,,,,,0,,,65,0
86640,note_on,60,0,3,,,,,,,,,0,,,60,0
86640,note_on,60,0,1,,,,,,,,,0,,,72,0
86640,note_on,0,0,1,,,,,,,,,0,,,77,0
86640,note_on,0,0,1,,,,,,,,,0,,,81,0
86640,note_on,0,0,1,,,,,,,,,0,,,71,60
86640,note_on,0,0,1,,,,,,,,,0,,,77,60
86640,note_on,0,0,1,,,,,,,,,0,,,80,60
86700,note_on,0,0,3,,,,,,,,,0,,,69,60
86700,note_on,0,0,3,,,,,,,,,0,,,65,60
86700,note_on,0,0,3,,,,,,,,,0,,,60,60
86700,note_on,0,0,3,,,,,,,,,0,,,68,0
86700,note_on,0,0,1,,,,,,,,,0,,,77,0
86700,note_on,0,0,1,,,,,,,,,0,,,80,0
86700,note_on,60,0,1,,,,,,,,,0,,,71,0
86700,note_on,0,0,1,,,,,,,,,0,,,72,60
86700,note_on,0,0,1,,,,,,,,,0,,,77,60
86700,note_on,0,0,1,,,,,,,,,0,,,81,60
86700,note_on,60,0,3,,,,,,,,,0,,,59,0
86700,note_on,0,0,3,,,,,,,,,0,,,65,0
86730,note_on,0,0,1,,,,,,,,,0,,,81,0
86730,note_on,0,0,1,,,,,,,,,0,,,77,0
86730,note_on,30,0,1,,,,,,,,,0,,,72,0
86730,note_on,30,0,3,,,,,,,,,0,,,69,0
86730,note_on,0,0,3,,,,,,,,,0,,,65,0
86730,note_on,0,0,3,,,,,,,,,0,,,60,0
86760,note_on,0,0,3,,,,,,,,,0,,,65,60
86760,note_on,30,0,3,,,,,,,,,0,,,60,60
86760,note_on,0,0,3,,,,,,,,,0,,,69,60
86760,note_on,30,0,1,,,,,,,,,0,,,81,60
86760,note_on,0,0,1,,,,,,,,,0,,,77,60
86760,note_on,0,0,1,,,,,,,,,0,,,72,60
86820,note_on,0,0,3,,,,,,,,,0,,,65,0
86820,note_on,0,0,3,,,,,,,,,0,,,69,60
86820,note_on,0,0,3,,,,,,,,,0,,,60,0
86820,note_on,60,0,3,,,,,,,,,0,,,69,0
86820,note_on,0,0,1,,,,,,,,,0,,,72,60
86820,note_on,0,0,1,,,,,,,,,0,,,77,60
86820,note_on,0,0,1,,,,,,,,,0,,,81,60
86820,note_on,0,0,1,,,,,,,,,0,,,81,0
86820,note_on,0,0,1,,,,,,,,,0,,,77,0
86820,note_on,60,0,1,,,,,,,,,0,,,72,0
86820,note_on,0,0,3,,,,,,,,,0,,,65,60
86820,note_on,0,0,3,,,,,,,,,0,,,60,60
86880,note_on,0,0,1,,,,,,,,,0,,,84,60
86880,note_on,0,0,1,,,,,,,,,0,,,81,0
86880,note_on,0,0,1,,,,,,,,,0,,,77,0
86880,note_on,0,0,3,,,,,,,,,0,,,60,0
86880,note_on,0,0,3,,,,,,,,,0,,,65,0
86880,note_on,0,0,1,,,,,,,,,0,,,77,60
86880,note_on,0,0,3,,,,,,,,,0,,,58,80
86880,note_on,60,0,1,,,,,,,,,0,,,72,0
86880,note_on,60,0,3,,,,,,,,,0,,,69,0
86880,note_on,0,0,1,,,,,,,,,0,,,75,60
86940,note_on,0,0,1,,,,,,,,,0,,,77,60
86940,note_on,0,0,1,,,,,,,,,0,,,77,0
86940,note_on,0,0,1,,,,,,,,,0,,,74,60
86940,note_on,0,0,1,,,,,,,,,0,,,84,0
86940,note_on,60,0,3,,,,,,,,,0,,,70,60
86940,note_on,0,0,3,,,,,,,,,0,,,65,60
86940,note_on,0,0,1,,,,,,,,,0,,,82,60
86940,note_on,0,0,3,,,,,,,,,0,,,62,60
86940,note_on,60,0,1,,,,,,,,,0,,,75,0
86970,note_on,0,0,1,,,,,,,,,0,,,82,0
86970,note_on,0,0,1,,,,,,,,,0,,,77,0
86970,note_on,30,0,1,,,,,,,,,0,,,74,0
87000,note_on,60,0,3,,,,,,,,,0,,,62,0
87000,note_on,0,0,3,,,,,,,,,0,,,65,0
87000,note_on,0,0,3,,,,,,,,,0,,,70,0
87000,note_on,0,0,3,,,,,,,,,0,,,70,60
87000,note_on,0,0,3,,,,,,,,,0,,,65,60
87000,note_on,0,0,3,,,,,,,,,0,,,62,60
87000,note_on,30,0,1,,,,,,,,,0,,,82,60
87000,note_on,0,0,1,,,,,,,,,0,,,77,60
87000,note_on,0,0,1,,,,,,,,,0,,,74,60
87060,note_on,0,0,3,,,,,,,,,0,,,70,0
87060,note_on,0,0,3,,,,,,,,,0,,,65,0
87060,note_on,60,0,3,,,,,,,,,0,,,62,0
87060,note_on,0,0,3,,,,,,,,,0,,,70,60
87060,note_on,60,0,1,,,,,,,,,0,,,74,0
87060,note_on,0,0,1,,,,,,,,,0,,,77,0
87060,note_on,0,0,1,,,,,,,,,0,,,82,0
87060,note_on,0,0,1,,,,,,,,,0,,,82,60
87060,note_on,0,0,1,,,,,,,,,0,,,74,60
87060,note_on,0,0,1,,,,,,,,,0,,,77,60
87060,note_on,0,0,3,,,,,,,,,0,,,62,60
87060,note_on,0,0,3,,,,,,,,,0,,,65,60
87120,note_on,60,0,1,,,,,,,,,0,,,74,0
87120,note_on,0,0,1,,,,,,,,,0,,,82,0
87120,note_on,0,0,3,,,,,,,,,0,,,65,60
87120,note_on,0,0,1,,,,,,,,,0,,,82,60
87120,note_on,0,0,1,,,,,,,,,0,,,77,60
87120,note_on,0,0,1,,,,,,,,,0,,,74,60
87120,note_on,60,0,3,,,,,,,,,0,,,62,0
87120,note_on,0,0,3,,,,,,,,,0,,,65,0
87120,note_on,0,0,3,,,,,,,,,0,,,70,0
87120,note_on,0,0,3,,,,,,,,,0,,,70,60
87120,note_on,0,0,1,,,,,,,,,0,,,77,0
87120,note_on,0,0,3,,,,,,,,,0,,,62,60
87180,note_on,0,0,3,,,,,,,,,0,,,62,60
87180,note_on,0,0,1,,,,,,,,,0,,,74,60
87180,note_on,0,0,3,,,,,,,,,0,,,65,0
87180,note_on,0,0,3,,,,,,,,,0,,,70,0
87180,note_on,0,0,3,,,,,,,,,0,,,69,60
87180,note_on,0,0,3,,,,,,,,,0,,,66,60
87180,note_on,60,0,1,,,,,,,,,0,,,74,0
87180,note_on,0,0,1,,,,,,,,,0,,,77,0
87180,note_on,0,0,1,,,,,,,,,0,,,82,0
87180,note_on,0,0,1,,,,,,,,,0,,,81,60
87180,note_on,60,0,3,,,,,,,,,0,,,62,0
87180,note_on,0,0,1,,,,,,,,,0,,,72,60
87240,note_on,0,0,3,,,,,,,,,0,,,62,60
87240,note_on,0,0,3,,,,,,,,,0,,,69,0
87240,note_on,0,0,3,,,,,,,,,0,,,67,60
87240,note_on,0,0,3,,,,,,,,,0,,,66,0
87240,note_on,60,0,3,,,,,,,,,0,,,62,0
87240,note_on,0,0,1,,,,,,,,,0,,,74,60
87240,note_on,0,0,1,,,,,,,,,0,,,70,60
87240,note_on,0,0,1,,,,,,,,,0,,,81,0
87240,note_on,0,0,1,,,,,,,,,0,,,79,60
87240,note_on,60,0,1,,,,,,,,,0,,,72,0
87240,note_on,0,0,1,,,,,,,,,0,,,74,0
87300,note_on,0,0,1,,,,,,,,,0,,,77,60
87300,note_on,0,0,3,,,,,,,,,0,,,58,80
87300,note_on,0,0,3,,,,,,,,,0,,,62,60
87300,note_on,0,0,3,,,,,,,,,0,,,65,60
87300,note_on,0,0,3,,,,,,,,,0,,,58,0
87300,note_on,0,0,3,,,,,,,,,0,,,67,0
87300,note_on,60,0,3,,,,,,,,,0,,,62,0
87300,note_on,0,0,1,,,,,,,,,0,,,79,0
87300,note_on,0,0,1,,,,,,,,,0,,,74,0
87300,note_on,60,0,1,,,,,,,,,0,,,70,0
87300,note_on,0,0,1,,,,,,,,,0,,,69,60
87300,note_on,0,0,1,,,,,,,,,0,,,74,60
87360,note_on,0,0,1,,,,,,,,,0,,,69,60
87360,note_on,60,0,1,,,,,,,,,0,,,69,0
87360,note_on,0,0,3,,,,,,,,,0,,,62,0
87360,note_on,60,0,3,,,,,,,,,0,,,58,0
87360,note_on,0,0,1,,,,,,,,,0,,,74,0
87360,note_on,0,0,1,,,,,,,,,0,,,77,0
87360,note_on,0,0,1,,,,,,,,,0,,,77,60
87360,note_on,0,0,1,,,,,,,,,0,,,72,60
87360,note_on,930,0,4,,,,,,,,,0,,,48,80
87360,note_on,0,0,3,,,,,,,,,0,,,65,0
87390,note_on,30,0,4,,,,,,,,,0,,,48,0
87420,note_on,60,0,1,,,,,,,,,0,,,69,0
87420,note_on,0,0,1,,,,,,,,,0,,,72,60
87420,note_on,0,0,1,,,,,,,,,0,,,76,60
87420,note_on,0,0,1,,,,,,,,,0,,,77,0
87420,note_on,60,0,3,,,,,,,,,0,,,64,60
87420,note_on,0,0,3,,,,,,,,,0,,,55,60
87420,note_on,0,0,3,,,,,,,,,0,,,60,60
87420,note_on,0,0,1,,,,,,,,,0,,,72,0
87420,note_on,0,0,1,,,,,,,,,0,,,67,60
87450,note_on,0,0,1,,,,,,,,,0,,,76,0
87450,note_on,0,0,1,,,,,,,,,0,,,72,0
87450,note_on,30,0,1,,,,,,,,,0,,,67,0
87480,note_on,60,0,3,,,,,,,,,0,,,55,0
87480,note_on,0,0,3,,,,,,,,,0,,,64,0
87480,note_on,0,0,1,,,,,,,,,0,,,67,60
87480,note_on,0,0,1,,,,,,,,,0,,,72,60
87480,note_on,0,0,3,,,,,,,,,0,,,60,0
87480,note_on,30,0,1,,,,,,,,,0,,,76,60
87480,note_on,0,0,3,,,,,,,,,0,,,55,60
87480,note_on,0,0,3,,,,,,,,,0,,,60,60
87480,note_on,0,0,3,,,,,,,,,0,,,64,60
87540,note_on,0,0,3,,,,,,,,,0,,,64,0
87540,note_on,0,0,3,,,,,,,,,0,,,64,60
87540,note_on,0,0,3,,,,,,,,,0,,,60,60
87540,note_on,0,0,3,,,,,,,,,0,,,55,60
87540,note_on,60,0,1,,,,,,,,,0,,,67,0
87540,note_on,0,0,1,,,,,,,,,0,,,72,0
87540,note_on,0,0,1,,,,,,,,,0,,,76,0
87540,note_on,0,0,1,,,,,,,,,0,,,76,60
87540,note_on,0,0,1,,,,,,,,,0,,,72,60
87540,note_on,0,0,1,,,,,,,,,0,,,67,60
87540,note_on,0,0,3,,,,,,,,,0,,,60,0
87540,note_on,60,0,3,,,,,,,,,0,,,55,0
87600,note_on,0,0,1,,,,,,,,,0,,,72,60
87600,note_on,60,0,3,,,,,,,,,0,,,55,0
87600,note_on,0,0,3,,,,,,,,,0,,,60,0
87600,note_on,0,0,3,,,,,,,,,0,,,64,0
87600,note_on,0,0,3,,,,,,,,,0,,,64,60
87600,note_on,0,0,3,,,,,,,,,0,,,60,60
87600,note_on,0,0,3,,,,,,,,,0,,,55,60
87600,note_on,0,0,1,,,,,,,,,0,,,72,0
87600,note_on,0,0,1,,,,,,,,,0,,,76,0
87600,note_on,0,0,1,,,,,,,,,0,,,76,60
87600,note_on,0,0,1,,,,,,,,,0,,,67,60
87600,note_on,60,0,1,,,,,,,,,0,,,67,0
87660,note_on,0,0,3,,,,,,,,,0,,,55,60
87660,note_on,0,0,3,,,,,,,,,0,,,60,0
87660,note_on,60,0,3,,,,,,,,,0,,,55,0
87660,note_on,0,0,1,,,,,,,,,0,,,67,60
87660,note_on,0,0,1,,,,,,,,,0,,,72,60
87660,note_on,0,0,1,,,,,,,,,0,,,76,60
87660,note_on,0,0,1,,,,,,,,,0,,,76,0
87660,note_on,60,0,1,,,,,,,,,0,,,67,0
87660,note_on,0,0,1,,,,,,,,,0,,,72,0
87660,note_on,0,0,3,,,,,,,,,0,,,60,60
87660,note_on,0,0,3,,,,,,,,,0,,,64,60
87660,note_on,0,0,3,,,,,,,,,0,,,64,0
87720,note_on,0,0,3,,,,,,,,,0,,,60,60
87720,note_on,0,0,3,,,,,,,,,0,,,57,60
87720,note_on,0,0,3,,,,,,,,,0,,,64,0
87720,note_on,0,0,1,,,,,,,,,0,,,72,60
87720,note_on,0,0,3,,,,,,,,,0,,,60,0
87720,note_on,60,0,3,,,,,,,,,0,,,55,0
87720,note_on,60,0,1,,,,,,,,,0,,,67,0
87720,note_on,0,0,1,,,,,,,,,0,,,72,0
87720,note_on,0,0,1,,,,,,,,,0,,,76,0
87720,note_on,0,0,1,,,,,,,,,0,,,77,60
87720,note_on,0,0,3,,,,,,,,,0,,,65,60
87720,note_on,0,0,1,,,,,,,,,0,,,69,60
87780,note_on,0,0,1,,,,,,,,,0,,,70,60
87780,note_on,0,0,1,,,,,,,,,0,,,77,0
87780,note_on,0,0,1,,,,,,,,,0,,,79,60
87780,note_on,0,0,1,,,,,,,,,0,,,72,60
87780,note_on,0,0,3,,,,,,,,,0,,,58,60
87780,note_on,0,0,3,,,,,,,,,0,,,60,60
87780,note_on,0,0,3,,,,,,,,,0,,,67,60
87780,note_on,0,0,3,,,,,,,,,0,,,65,0
87780,note_on,0,0,3,,,,,,,,,0,,,60,0
87780,note_on,60,0,3,,,,,,,,,0,,,57,0
87780,note_on,60,0,1,,,,,,,,,0,,,69,0
87780,note_on,0,0,1,,,,,,,,,0,,,72,0
87840,note_on,0,0,3,,,,,,,,,0,,,60,0
87840,note_on,60,0,3,,,,,,,,,0,,,58,0
87840,note_on,0,0,3,,,,,,,,,0,,,53,80
87840,note_on,0,0,3,,,,,,,,,0,,,67,0
87840,note_on,0,0,1,,,,,,,,,0,,,70,60
87840,note_on,60,0,1,,,,,,,,,0,,,70,0
87840,note_on,0,0,1,,,,,,,,,0,,,72,0
87840,note_on,0,0,1,,,,,,,,,0,,,79,0
87840,note_on,0,0,1,,,,,,,,,0,,,72,60
87900,note_on,0,0,3,,,,,,,,,0,,,60,60
87900,note_on,60,0,3,,,,,,,,,0,,,65,60
87900,note_on,0,0,1,,,,,,,,,0,,,69,60
87900,note_on,0,0,1,,,,,,,,,0,,,72,60
87900,note_on,0,0,1,,,,,,,,,0,,,77,60
87900,note_on,60,0,1,,,,,,,,,0,,,70,0
87900,note_on,0,0,1,,,,,,,,,0,,,72,0
87900,note_on,0,0,3,,,,,,,,,0,,,57,60
87930,note_on,30,0,1,,,,,,,,,0,,,69,0
87930,note_on,0,0,1,,,,,,,,,0,,,72,0
87930,note_on,0,0,1,,,,,,,,,0,,,77,0
87960,note_on,0,0,3,,,,,,,,,0,,,60,60
87960,note_on,60,0,3,,,,,,,,,0,,,57,0
87960,note_on,0,0,1,,,,,,,,,0,,,69,60
87960,note_on,0,0,1,,,,,,,,,0,,,72,60
87960,note_on,30,0,1,,,,,,,,,0,,,77,60
87960,note_on,0,0,3,,,,,,,,,0,,,60,0
87960,note_on,0,0,3,,,,,,,,,0,,,65,0
87960,note_on,0,0,3,,,,,,,,,0,,,65,60
87960,note_on,0,0,3,,,,,,,,,0,,,57,60
88020,note_on,60,0,1,,,,,,,,,0,,,69,0
88020,note_on,0,0,1,,,,,,,,,0,,,72,0
88020,note_on,0,0,1,,,,,,,,,0,,,77,60
88020,note_on,0,0,1,,,,,,,,,0,,,72,60
88020,note_on,0,0,1,,,,,,,,,0,,,77,0
88020,note_on,60,0,3,,,,,,,,,0,,,57,0
88020,note_on,0,0,3,,,,,,,,,0,,,60,0
88020,note_on,0,0,3,,,,,,,,,0,,,65,0
88020,note_on,0,0,3,,,,,,,,,0,,,65,60
88020,note_on,0,0,3,,,,,,,,,0,,,60,60
88020,note_on,0,0,3,,,,,,,,,0,,,57,60
88020,note_on,0,0,1,,,,,,,,,0,,,69,60
88080,note_on,60,0,1,,,,,,,,,0,,,69,0
88080,note_on,60,0,3,,,,,,,,,0,,,57,0
88080,note_on,0,0,3,,,,,,,,,0,,,60,0
88080,note_on,0,0,3,,,,,,,,,0,,,65,0
88080,note_on,0,0,3,,,,,,,,,0,,,65,60
88080,note_on,0,0,3,,,,,,,,,0,,,57,60
88080,note_on,0,0,1,,,,,,,,,0,,,69,60
88080,note_on,0,0,1,,,,,,,,,0,,,72,60
88080,note_on,0,0,1,,,,,,,,,0,,,77,60
88080,note_on,0,0,1,,,,,,,,,0,,,72,0
88080,note_on,0,0,3,,,,,,,,,0,,,60,60
88080,note_on,0,0,1,,,,,,,,,0,,,77,0
88140,note_on,60,0,3,,,,,,,,,0,,,57,0
88140,note_on,0,0,3,,,,,,,,,0,,,53,0
88140,note_on,0,0,3,,,,,,,,,0,,,65,0
88140,note_on,0,0,3,,,,,,,,,0,,,60,0
88140,note_on,0,0,1,,,,,,,,,0,,,72,60
88140,note_on,0,0,3,,,,,,,,,0,,,60,60
88140,note_on,60,0,1,,,,,,,,,0,,,69,0
88140,note_on,0,0,1,,,,,,,,,0,,,72,0
88140,note_on,0,0,1,,,,,,,,,0,,,77,0
88140,note_on,0,0,1,,,,,,,,,0,,,77,60
88140,note_on,0,0,3,,,,,,,,,0,,,65,60
88140,note_on,0,0,1,,,,,,,,,0,,,69,60
88140,note_on,0,0,3,,,,,,,,,0,,,57,60
88185,note_on,45,0,1,,,,,,,,,0,,,77,60
88200,note_on,15,0,1,,,,,,,,,0,,,69,0
88200,note_on,0,0,1,,,,,,,,,0,,,77,0
88200,note_on,0,0,1,,,,,,,,,0,,,72,0
88200,note_on,60,0,3,,,,,,,,,0,,,57,0
88200,note_on,0,0,3,,,,,,,,,0,,,60,60
88200,note_on,0,0,3,,,,,,,,,0,,,65,60
88200,note_on,0,0,3,,,,,,,,,0,,,69,60
88200,note_on,0,0,3,,,,,,,,,0,,,65,0
88200,note_on,0,0,3,,,,,,,,,0,,,60,0
88200,note_on,0,0,1,,,,,,,,,0,,,72,60
88200,note_on,0,0,1,,,,,,,,,0,,,81,60
88260,note_on,0,0,3,,,,,,,,,0,,,60,60
88260,note_on,0,0,3,,,,,,,,,0,,,65,60
88260,note_on,0,0,3,,,,,,,,,0,,,69,0
88260,note_on,0,0,3,,,,,,,,,0,,,65,0
88260,note_on,60,0,3,,,,,,,,,0,,,60,0
88260,note_on,0,0,3,,,,,,,,,0,,,57,60
88290,note_on,90,0,1,,,,,,,,,0,,,72,0
88290,note_on,0,0,1,,,,,,,,,0,,,69,60
88290,note_on,0,0,1,,,,,,,,,0,,,72,60
88290,note_on,0,0,1,,,,,,,,,0,,,77,60
88290,note_on,0,0,1,,,,,,,,,0,,,77,0
88290,note_on,0,0,1,,,,,,,,,0,,,81,0
88320,note_on,0,0,1,,,,,,,,,0,,,72,60
88320,note_on,0,0,1,,,,,,,,,0,,,77,60
88320,note_on,0,0,1,,,,,,,,,0,,,77,0
88320,note_on,0,0,1,,,,,,,,,0,,,72,0
88320,note_on,30,0,1,,,,,,,,,0,,,69,0
88320,note_on,0,0,3,,,,,,,,,0,,,60,0
88320,note_on,930,0,4,,,,,,,,,0,,,48,80
88320,note_on,60,0,3,,,,,,,,,0,,,57,0
88320,note_on,0,0,1,,,,,,,,,0,,,69,60
88320,note_on,0,0,3,,,,,,,,,0,,,65,0
88350,note_on,30,0,4,,,,,,,,,0,,,48,0
88380,note_on,0,0,1,,,,,,,,,0,,,77,0
88380,note_on,0,0,1,,,,,,,,,0,,,67,60
88380,note_on,0,0,1,,,,,,,,,0,,,72,60
88380,note_on,0,0,1,,,,,,,,,0,,,76,60
88380,note_on,0,0,1,,,,,,,,,0,,,72,0
88380,note_on,60,0,3,,,,,,,,,0,,,64,60
88380,note_on,0,0,3,,,,,,,,,0,,,60,60
88380,note_on,60,0,1,,,,,,,,,0,,,69,0
88380,note_on,0,0,3,,,,,,,,,0,,,55,60
88410,note_on,30,0,1,,,,,,,,,0,,,67,0
88410,note_on,0,0,1,,,,,,,,,0,,,72,0
88410,note_on,0,0,1,,,,,,,,,0,,,76,0
88440,note_on,60,0,3,,,,,,,,,0,,,55,0
88440,note_on,0,0,1,,,,,,,,,0,,,72,60
88440,note_on,0,0,3,,,,,,,,,0,,,64,0
88440,note_on,0,0,3,,,,,,,,,0,,,64,60
88440,note_on,0,0,3,,,,,,,,,0,,,60,60
88440,note_on,0,0,3,,,,,,,,,0,,,55,60
88440,note_on,30,0,1,,,,,,,,,0,,,76,60
88440,note_on,0,0,1,,,,,,,,,0,,,67,60
88440,note_on,0,0,3,,,,,,,,,0,,,60,0
88500,note_on,0,0,1,,,,,,,,,0,,,67,60
88500,note_on,60,0,3,,,,,,,,,0,,,55,0
88500,note_on,0,0,3,,,,,,,,,0,,,60,0
88500,note_on,0,0,3,,,,,,,,,0,,,64,0
88500,note_on,0,0,3,,,,,,,,,0,,,64,60
88500,note_on,0,0,3,,,,,,,,,0,,,60,60
88500,note_on,0,0,3,,,,,,,,,0,,,55,60
88500,note_on,60,0,1,,,,,,,,,0,,,67,0
88500,note_on,0,0,1,,,,,,,,,0,,,72,0
88500,note_on,0,0,1,,,,,,,,,0,,,76,0
88500,note_on,0,0,1,,,,,,,,,0,,,76,60
88500,note_on,0,0,1,,,,,,,,,0,,,72,60
88560,note_on,60,0,3,,,,,,,,,0,,,55,0
88560,note_on,60,0,1,,,,,,,,,0,,,67,0
88560,note_on,0,0,3,,,,,,,,,0,,,60,60
88560,note_on,0,0,3,,,,,,,,,0,,,55,60
88560,note_on,0,0,3,,,,,,,,,0,,,60,0
88560,note_on,0,0,3,,,,,,,,,0,,,64,0
88560,note_on,0,0,3,,,,,,,,,0,,,64,60
88560,note_on,0,0,1,,,,,,,,,0,,,72,0
88560,note_on,0,0,1,,,,,,,,,0,,,76,0
88560,note_on,0,0,1,,,,,,,,,0,,,76,60
88560,note_on,0,0,1,,,,,,,,,0,,,72,60
88560,note_on,0,0,1,,,,,,,,,0,,,67,60
88620,note_on,0,0,1,,,,,,,,,0,,,67,60
88620,note_on,60,0,1,,,,,,,,,0,,,67,0
88620,note_on,0,0,1,,,,,,,,,0,,,72,0
88620,note_on,0,0,1,,,,,,,,,0,,,76,0
88620,note_on,0,0,1,,,,,,,,,0,,,76,60
88620,note_on,60,0,3,,,,,,,,,0,,,55,0
88620,note_on,0,0,1,,,,,,,,,0,,,72,60
88620,note_on,0,0,3,,,,,,,,,0,,,60,0
88620,note_on,0,0,3,,,,,,,,,0,,,64,0
88620,note_on,0,0,3,,,,,,,,,0,,,64,60
88620,note_on,0,0,3,,,,,,,,,0,,,60,60
88620,note_on,0,0,3,,,,,,,,,0,,,55,60
88680,note_on,0,0,3,,,,,,,,,0,,,64,0
88680,note_on,0,0,3,,,,,,,,,0,,,60,0
88680,note_on,60,0,3,,,,,,,,,0,,,55,0
88680,note_on,0,0,1,,,,,,,,,0,,,72,60
88680,note_on,0,0,1,,,,,,,,,0,,,69,60
88680,note_on,0,0,3,,,,,,,,,0,,,57,60
88680,note_on,0,0,1,,,,,,,,,0,,,77,60
88680,note_on,0,0,1,,,,,,,,,0,,,76,0
88680,note_on,0,0,1,,,,,,,,,0,,,72,0
88680,note_on,60,0,1,,,,,,,,,0,,,67,0
88680,note_on,0,0,3,,,,,,,,,0,,,65,60
88680,note_on,0,0,3,,,,,,,,,0,,,60,60
88740,note_on,0,0,3,,,,,,,,,0,,,65,0
88740,note_on,60,0,3,,,,,,,,,0,,,57,0
88740,note_on,0,0,3,,,,,,,,,0,,,60,0
88740,note_on,0,0,3,,,,,,,,,0,,,67,60
88740,note_on,0,0,1,,,,,,,,,0,,,72,60
88740,note_on,0,0,1,,,,,,,,,0,,,70,60
88740,note_on,0,0,3,,,,,,,,,0,,,60,60
88740,note_on,60,0,1,,,,,,,,,0,,,69,0
88740,note_on,0,0,1,,,,,,,,,0,,,72,0
88740,note_on,0,0,1,,,,,,,,,0,,,77,0
88740,note_on,0,0,3,,,,,,,,,0,,,58,60
88740,note_on,0,0,1,,,,,,,,,0,,,79,60
88800,note_on,0,0,1,,,,,,,,,0,,,72,60
88800,note_on,0,0,3,,,,,,,,,0,,,67,0
88800,note_on,0,0,3,,,,,,,,,0,,,53,80
88800,note_on,60,0,3,,,,,,,,,0,,,58,0
88800,note_on,0,0,3,,,,,,,,,0,,,60,0
88800,note_on,60,0,1,,,,,,,,,0,,,70,0
88800,note_on,0,0,1,,,,,,,,,0,,,72,0
88800,note_on,0,0,1,,,,,,,,,0,,,79,0
88800,note_on,0,0,1,,,,,,,,,0,,,70,60
88860,note_on,0,0,1,,,,,,,,,0,,,69,60
88860,note_on,0,0,1,,,,,,,,,0,,,77,60
88860,note_on,0,0,1,,,,,,,,,0,,,72,0
88860,note_on,60,0,1,,,,,,,,,0,,,70,0
88860,note_on,0,0,1,,,,,,,,,0,,,72,60
88860,note_on,60,0,3,,,,,,,,,0,,,65,60
88860,note_on,0,0,3,,,,,,,,,0,,,60,60
88860,note_on,0,0,3,,,,,,,,,0,,,57,60
88890,note_on,30,0,1,,,,,,,,,0,,,69,0
88890,note_on,0,0,1,,,,,,,,,0,,,72,0
88890,note_on,0,0,1,,,,,,,,,0,,,77,0
88920,note_on,60,0,3,,,,,,,,,0,,,57,0
88920,note_on,0,0,3,,,,,,,,,0,,,65,60
88920,note_on,0,0,3,,,,,,,,,0,,,60,60
88920,note_on,30,0,1,,,,,,,,,0,,,77,60
88920,note_on,0,0,1,,,,,,,,,0,,,72,60
88920,note_on,0,0,3,,,,,,,,,0,,,57,60
88920,note_on,0,0,3,,,,,,,,,0,,,60,0
88920,note_on,0,0,1,,,,,,,,,0,,,69,60
88920,note_on,0,0,3,,,,,,,,,0,,,65,0
88980,note_on,60,0,3,,,,,,,,,0,,,57,0
88980,note_on,0,0,3,,,,,,,,,0,,,60,0
88980,note_on,0,0,3,,,,,,,,,0,,,65,0
88980,note_on,0,0,3,,,,,,,,,0,,,65,60
88980,note_on,0,0,3,,,,,,,,,0,,,60,60
88980,note_on,60,0,1,,,,,,,,,0,,,69,0
88980,note_on,0,0,3,,,,,,,,,0,,,57,60
88980,note_on,0,0,1,,,,,,,,,0,,,77,0
88980,note_on,0,0,1,,,,,,,,,0,,,77,60
88980,note_on,0,0,1,,,,,,,,,0,,,72,60
88980,note_on,0,0,1,,,,,,,,,0,,,69,60
88980,note_on,0,0,1,,,,,,,,,0,,,72,0
89040,note_on,0,0,3,,,,,,,,,0,,,65,60
89040,note_on,0,0,3,,,,,,,,,0,,,60,60
89040,note_on,0,0,3,,,,,,,,,0,,,65,0
89040,note_on,60,0,1,,,,,,,,,0,,,69,0
89040,note_on,60,0,3,,,,,,,,,0,,,57,0
89040,note_on,0,0,3,,,,,,,,,0,,,57,60
89040,note_on,0,0,1,,,,,,,,,0,,,72,0
89040,note_on,0,0,3,,,,,,,,,0,,,60,0
89040,note_on,0,0,1,,,,,,,,,0,,,69,60
89040,note_on,0,0,1,,,,,,,,,0,,,72,60
89040,note_on,0,0,1,,,,,,,,,0,,,77,60
89040,note_on,0,0,1,,,,,,,,,0,,,77,0
89100,note_on,0,0,3,,,,,,,,,0,,,65,0
89100,note_on,0,0,1,,,,,,,,,0,,,72,60
89100,note_on,0,0,1,,,,,,,,,0,,,77,0
89100,note_on,60,0,3,,,,,,,,,0,,,57,0
89100,note_on,0,0,3,,,,,,,,,0,,,53,0
89100,note_on,60,0,1,,,,,,,,,0,,,69,0
89100,note_on,0,0,3,,,,,,,,,0,,,60,0
89100,note_on,0,0,3,,,,,,,,,0,,,60,60
89100,note_on,0,0,3,,,,,,,,,0,,,57,60
89100,note_on,0,0,1,,,,,,,,,0,,,72,0
89130,note_on,0,0,1,,,,,,,,,0,,,84,60
89130,note_on,30,0,1,,,,,,,,,0,,,72,0
89160,note_on,0,0,3,,,,,,,,,0,,,60,0
89160,note_on,60,0,3,,,,,,,,,0,,,57,0
89160,note_on,30,0,1,,,,,,,,,0,,,84,0
89160,note_on,0,0,1,,,,,,,,,0,,,77,60
89160,note_on,0,0,3,,,,,,,,,0,,,57,60
89160,note_on,0,0,3,,,,,,,,,0,,,60,60
89160,note_on,0,0,3,,,,,,,,,0,,,65,60
89190,note_on,30,0,1,,,,,,,,,0,,,77,0
89190,note_on,0,0,1,,,,,,,,,0,,,84,60
89220,note_on,30,0,1,,,,,,,,,0,,,84,0
89220,note_on,0,0,3,,,,,,,,,0,,,65,0
89220,note_on,0,0,3,,,,,,,,,0,,,67,60
89220,note_on,60,0,3,,,,,,,,,0,,,57,0
89220,note_on,0,0,3,,,,,,,,,0,,,60,0
89220,note_on,0,0,1,,,,,,,,,0,,,79,60
89220,note_on,0,0,3,,,,,,,,,0,,,60,60
89220,note_on,0,0,3,,,,,,,,,0,,,64,60
89250,note_on,30,0,1,,,,,,,,,0,,,79,0
89250,note_on,0,0,1,,,,,,,,,0,,,84,60
89280,control_change,13935,0,5,,,,,,,,,0,64,127,,
89280,note_on,30,0,1,,,,,,,,,0,,,84,0
89280,note_on,0,0,1,,,,,,,,,0,,,72,60
89280,note_on,0,0,3,,,,,,,,,0,,,64,0
89280,note_on,60,0,3,,,,,,,,,0,,,60,0
89280,note_on,0,0,3,,,,,,,,,0,,,67,0
89280,note_on,0,0,3,,,,,,,,,0,,,53,80
89310,note_on,30,0,1,,,,,,,,,0,,,72,0
89310,note_on,30,0,3,,,,,,,,,0,,,53,0
89310,note_on,0,0,1,,,,,,,,,0,,,84,60
89340,note_on,0,0,1,,,,,,,,,0,,,81,60
89340,note_on,30,0,1,,,,,,,,,0,,,84,0
89340,note_on,30,0,3,,,,,,,,,0,,,69,60
89340,note_on,0,0,3,,,,,,,,,0,,,60,60
89340,note_on,0,0,3,,,,,,,,,0,,,65,60
89370,note_on,0,0,1,,,,,,,,,0,,,72,60
89370,note_on,30,0,1,,,,,,,,,0,,,81,0
89385,control_change,105,0,5,,,,,,,,,0,64,0,,
89400,note_on,0,0,3,,,,,,,,,0,,,60,60
89400,note_on,0,0,3,,,,,,,,,0,,,65,0
89400,note_on,0,0,3,,,,,,,,,0,,,65,60
89400,note_on,30,0,1,,,,,,,,,0,,,72,0
89400,note_on,0,0,1,,,,,,,,,0,,,72,60
89400,note_on,0,0,3,,,,,,,,,0,,,69,0
89400,note_on,0,0,3,,,,,,,,,0,,,69,60
89400,note_on,60,0,3,,,,,,,,,0,,,60,0
89400,control_change,15,0,5,,,,,,,,,0,64,127,,
89430,note_on,30,0,1,,,,,,,,,0,,,72,0
89430,note_on,0,0,1,,,,,,,,,0,,,84,60
89460,note_on,30,0,1,,,,,,,,,0,,,84,0
89460,note_on,0,0,1,,,,,,,,,0,,,81,60
89460,note_on,0,0,3,,,,,,,,,0,,,65,60
89460,note_on,0,0,3,,,,,,,,,0,,,60,60
89460,note_on,0,0,3,,,,,,,,,0,,,69,60
89460,note_on,0,0,3,,,,,,,,,0,,,69,0
89460,note_on,0,0,3,,,,,,,,,0,,,65,0
89460,note_on,60,0,3,,,,,,,,,0,,,60,0
89490,note_on,30,0,1,,,,,,,,,0,,,81,0
89490,note_on,0,0,1,,,,,,,,,0,,,72,60
89505,control_change,105,0,5,,,,,,,,,0,64,0,,
89520,note_on,0,0,3,,,,,,,,,0,,,68,60
89520,note_on,30,0,1,,,,,,,,,0,,,72,0
89520,note_on,0,0,1,,,,,,,,,0,,,72,60
89520,note_on,60,0,3,,,,,,,,,0,,,60,0
89520,note_on,0,0,3,,,,,,,,,0,,,65,0
89520,note_on,0,0,3,,,,,,,,,0,,,59,60
89520,note_on,0,0,3,,,,,,,,,0,,,65,60
89520,note_on,0,0,3,,,,,,,,,0,,,69,0
89520,control_change,15,0,5,,,,,,,,,0,64,127,,
89550,note_on,30,0,1,,,,,,,,,0,,,72,0
89550,note_on,0,0,1,,,,,,,,,0,,,84,60
89580,note_on,30,0,1,,,,,,,,,0,,,84,0
89580,note_on,0,0,1,,,,,,,,,0,,,81,60
89580,note_on,60,0,3,,,,,,,,,0,,,59,0
89580,note_on,0,0,3,,,,,,,,,0,,,65,0
89580,note_on,0,0,3,,,,,,,,,0,,,68,0
89580,note_on,0,0,3,,,,,,,,,0,,,69,60
89580,note_on,0,0,3,,,,,,,,,0,,,65,60
89580,note_on,0,0,3,,,,,,,,,0,,,60,60
89610,note_on,30,0,3,,,,,,,,,0,,,60,0
89610,note_on,30,0,1,,,,,,,,,0,,,81,0
89610,note_on,0,0,1,,,,,,,,,0,,,72,60
89610,note_on,0,0,3,,,,,,,,,0,,,65,0
89610,note_on,0,0,3,,,,,,,,,0,,,69,0
89625,control_change,105,0,5,,,,,,,,,0,64,0,,
89640,note_on,0,0,3,,,,,,,,,0,,,60,60
89640,control_change,15,0,5,,,,,,,,,0,64,127,,
89640,note_on,30,0,3,,,,,,,,,0,,,69,60
89640,note_on,30,0,1,,,,,,,,,0,,,72,0
89640,note_on,0,0,1,,,,,,,,,0,,,72,60
89640,note_on,0,0,3,,,,,,,,,0,,,65,60
89670,note_on,30,0,1,,,,,,,,,0,,,72,0
89670,note_on,0,0,1,,,,,,,,,0,,,84,60
89700,note_on,0,0,1,,,,,,,,,0,,,77,60
89700,note_on,0,0,3,,,,,,,,,0,,,65,60
89700,note_on,30,0,1,,,,,,,,,0,,,84,0
89700,note_on,0,0,3,,,,,,,,,0,,,69,60
89700,note_on,0,0,3,,,,,,,,,0,,,60,60
89700,note_on,60,0,3,,,,,,,,,0,,,60,0
89700,note_on,0,0,3,,,,,,,,,0,,,65,0
89700,note_on,0,0,3,,,,,,,,,0,,,69,0
89730,note_on,0,0,1,,,,,,,,,0,,,89,60
89730,note_on,30,0,1,,,,,,,,,0,,,77,0
89745,control_change,105,0,5,,,,,,,,,0,64,0,,
89760,note_on,0,0,3,,,,,,,,,0,,,72,60
89760,note_on,0,0,3,,,,,,,,,0,,,69,0
89760,note_on,0,0,3,,,,,,,,,0,,,65,0
89760,note_on,60,0,3,,,,,,,,,0,,,60,0
89760,note_on,30,0,1,,,,,,,,,0,,,89,0
89760,note_on,0,0,1,,,,,,,,,0,,,77,60
89760,note_on,0,0,3,,,,,,,,,0,,,63,60
89760,note_on,0,0,3,,,,,,,,,0,,,58,80
89760,note_on,0,0,3,,,,,,,,,0,,,65,60
89760,control_change,15,0,5,,,,,,,,,0,64,127,,
89790,note_on,0,0,1,,,,,,,,,0,,,89,60
89790,note_on,30,0,1,,,,,,,,,0,,,77,0
89820,note_on,0,0,3,,,,,,,,,0,,,65,60
89820,note_on,0,0,3,,,,,,,,,0,,,65,0
89820,note_on,0,0,3,,,,,,,,,0,,,70,60
89820,note_on,0,0,1,,,,,,,,,0,,,86,60
89820,note_on,60,0,3,,,,,,,,,0,,,63,0
89820,note_on,0,0,3,,,,,,,,,0,,,62,60
89820,note_on,0,0,3,,,,,,,,,0,,,72,0
89820,note_on,30,0,1,,,,,,,,,0,,,89,0
89850,note_on,30,0,1,,,,,,,,,0,,,86,0
89850,note_on,0,0,1,,,,,,,,,0,,,77,60
89850,note_on,0,0,3,,,,,,,,,0,,,65,0
89850,note_on,30,0,3,,,,,,,,,0,,,62,0
89850,note_on,0,0,3,,,,,,,,,0,,,70,0
89865,control_change,105,0,5,,,,,,,,,0,64,0,,
89880,note_on,30,0,1,,,,,,,,,0,,,77,0
89880,note_on,0,0,1,,,,,,,,,0,,,77,60
89880,control_change,15,0,5,,,,,,,,,0,64,127,,
89880,note_on,0,0,3,,,,,,,,,0,,,62,60
89880,note_on,0,0,3,,,,,,,,,0,,,65,60
89880,note_on,30,0,3,,,,,,,,,0,,,70,60
89910,note_on,30,0,1,,,,,,,,,0,,,77,0
89910,note_on,0,0,1,,,,,,,,,0,,,89,60
89940,note_on,0,0,3,,,,,,,,,0,,,70,0
89940,note_on,0,0,3,,,,,,,,,0,,,62,60
89940,note_on,30,0,1,,,,,,,,,0,,,89,0
89940,note_on,0,0,1,,,,,,,,,0,,,86,60
89940,note_on,0,0,3,,,,,,,,,0,,,65,60
89940,note_on,0,0,3,,,,,,,,,0,,,70,60
89940,note_on,0,0,3,,,,,,,,,0,,,65,0
89940,note_on,60,0,3,,,,,,,,,0,,,62,0
89970,note_on,0,0,1,,,,,,,,,0,,,77,60
89970,note_on,30,0,1,,,,,,,,,0,,,86,0
89985,control_change,105,0,5,,,,,,,,,0,64,0,,
90000,note_on,0,0,3,,,,,,,,,0,,,62,60
90000,note_on,0,0,3,,,,,,,,,0,,,65,0
90000,note_on,60,0,3,,,,,,,,,0,,,62,0
90000,note_on,0,0,3,,,,,,,,,0,,,65,60
90000,control_change,15,0,5,,,,,,,,,0,64,127,,
90000,note_on,0,0,3,,,,,,,,,0,,,70,60
90000,note_on,0,0,3,,,,,,,,,0,,,70,0
90000,note_on,30,0,1,,,,,,,,,0,,,77,0
90000,note_on,0,0,1,,,,,,,,,0,,,77,60
90030,note_on,0,0,1,,,,,,,,,0,,,89,60
90030,note_on,30,0,1,,,,,,,,,0,,,77,0
90060,note_on,0,0,3,,,,,,,,,0,,,65,0
90060,note_on,60,0,3,,,,,,,,,0,,,62,0
90060,note_on,0,0,3,,,,,,,,,0,,,62,60
90060,note_on,0,0,3,,,,,,,,,0,,,58,0
90060,note_on,0,0,3,,,,,,,,,0,,,60,60
90060,note_on,0,0,3,,,,,,,,,0,,,70,0
90060,note_on,0,0,3,,,,,,,,,0,,,69,60
90060,note_on,30,0,1,,,,,,,,,0,,,89,0
90060,note_on,0,0,1,,,,,,,,,0,,,78,60
90090,note_on,30,0,1,,,,,,,,,0,,,78,0
90090,note_on,0,0,1,,,,,,,,,0,,,90,60
90105,control_change,105,0,5,,,,,,,,,0,64,0,,
90120,note_on,0,0,1,,,,,,,,,0,,,79,60
90120,note_on,30,0,1,,,,,,,,,0,,,90,0
90120,control_change,15,0,5,,,,,,,,,0,64,127,,
90120,note_on,60,0,3,,,,,,,,,0,,,60,0
90120,note_on,0,0,3,,,,,,,,,0,,,62,0
90120,note_on,0,0,3,,,,,,,,,0,,,69,0
90120,note_on,0,0,3,,,,,,,,,0,,,67,60
90120,note_on,0,0,3,,,,,,,,,0,,,62,60
90120,note_on,0,0,3,,,,,,,,,0,,,58,60
90150,note_on,0,0,1,,,,,,,,,0,,,91,60
90150,note_on,30,0,1,,,,,,,,,0,,,79,0
90180,note_on,0,0,3,,,,,,,,,0,,,57,60
90180,note_on,0,0,3,,,,,,,,,0,,,62,60
90180,note_on,0,0,3,,,,,,,,,0,,,67,0
90180,note_on,0,0,1,,,,,,,,,0,,,81,60
90180,note_on,30,0,1,,,,,,,,,0,,,91,0
90180,note_on,0,0,3,,,,,,,,,0,,,65,60
90180,note_on,0,0,1,,,,,,,,,0,,,93,60
90180,note_on,60,0,3,,,,,,,,,0,,,58,0
90180,note_on,0,0,3,,,,,,,,,0,,,62,0
90210,note_on,0,0,1,,,,,,,,,0,,,93,0
90210,note_on,0,0,1,,,,,,,,,0,,,82,60
90210,note_on,0,0,1,,,,,,,,,0,,,94,60
90210,note_on,30,0,1,,,,,,,,,0,,,81,0
90225,control_change,105,0,5,,,,,,,,,0,64,0,,
90240,note_on,0,0,1,,,,,,,,,0,,,84,60
90240,note_on,0,0,1,,,,,,,,,0,,,94,0
90240,note_on,30,0,1,,,,,,,,,0,,,82,0
90240,control_change,15,0,5,,,,,,,,,0,64,127,,
90240,note_on,1890,0,4,,,,,,,,,0,,,48,80
90240,note_on,60,0,3,,,,,,,,,0,,,57,0
90240,note_on,0,0,3,,,,,,,,,0,,,62,0
90240,note_on,0,0,3,,,,,,,,,0,,,65,0
90270,note_on,30,0,1,,,,,,,,,0,,,84,0
90270,note_on,0,0,1,,,,,,,,,0,,,96,60
90270,note_on,30,0,4,,,,,,,,,0,,,48,0
90300,note_on,0,0,3,,,,,,,,,0,,,55,60
90300,note_on,60,0,3,,,,,,,,,0,,,64,60
90300,note_on,30,0,1,,,,,,,,,0,,,96,0
90300,note_on,0,0,1,,,,,,,,,0,,,94,60
90300,note_on,0,0,3,,,,,,,,,0,,,60,60
90330,note_on,30,0,1,,,,,,,,,0,,,94,0
90330,note_on,0,0,1,,,,,,,,,0,,,84,60
90345,control_change,105,0,5,,,,,,,,,0,64,0,,
90360,note_on,30,0,1,,,,,,,,,0,,,84,0
90360,note_on,0,0,3,,,,,,,,,0,,,55,60
90360,control_change,15,0,5,,,,,,,,,0,64,127,,
90360,note_on,0,0,3,,,,,,,,,0,,,60,60
90360,note_on,0,0,3,,,,,,,,,0,,,64,60
90360,note_on,0,0,3,,,,,,,,,0,,,64,0
90360,note_on,0,0,3,,,,,,,,,0,,,60,0
90360,note_on,0,0,1,,,,,,,,,0,,,84,60
90360,note_on,60,0,3,,,,,,,,,0,,,55,0
90390,note_on,30,0,1,,,,,,,,,0,,,84,0
90390,note_on,0,0,1,,,,,,,,,0,,,96,60
90420,note_on,0,0,3,,,,,,,,,0,,,55,60
90420,note_on,0,0,3,,,,,,,,,0,,,60,60
90420,note_on,60,0,3,,,,,,,,,0,,,55,0
90420,note_on,0,0,1,,,,,,,,,0,,,94,60
90420,note_on,0,0,3,,,,,,,,,0,,,64,0
90420,note_on,0,0,3,,,,,,,,,0,,,64,60
90420,note_on,30,0,1,,,,,,,,,0,,,96,0
90420,note_on,0,0,3,,,,,,,,,0,,,60,0
90450,note_on,0,0,1,,,,,,,,,0,,,84,60
90450,note_on,30,0,1,,,,,,,,,0,,,94,0
90465,control_change,105,0,5,,,,,,,,,0,64,0,,
90480,control_change,15,0,5,,,,,,,,,0,64,127,,
90480,note_on,0,0,3,,,,,,,,,0,,,60,60
90480,note_on,0,0,3,,,,,,,,,0,,,64,60
90480,note_on,0,0,3,,,,,,,,,0,,,64,0
90480,note_on,0,0,3,,,,,,,,,0,,,60,0
90480,note_on,60,0,3,,,,,,,,,0,,,55,0
90480,note_on,0,0,1,,,,,,,,,0,,,84,60
90480,note_on,0,0,3,,,,,,,,,0,,,55,60
90480,note_on,30,0,1,,,,,,,,,0,,,84,0
90510,note_on,0,0,1,,,,,,,,,0,,,96,60
90510,note_on,30,0,1,,,,,,,,,0,,,84,0
90540,note_on,0,0,3,,,,,,,,,0,,,64,0
90540,note_on,0,0,3,,,,,,,,,0,,,55,60
90540,note_on,30,0,1,,,,,,,,,0,,,96,0
90540,note_on,0,0,1,,,,,,,,,0,,,94,60
90540,note_on,0,0,3,,,,,,,,,0,,,60,60
90540,note_on,0,0,3,,,,,,,,,0,,,64,60
90540,note_on,0,0,3,,,,,,,,,0,,,60,0
90540,note_on,60,0,3,,,,,,,,,0,,,55,0
90570,note_on,30,0,1,,,,,,,,,0,,,94,0
90570,note_on,0,0,1,,,,,,,,,0,,,84,60
90585,control_change,105,0,5,,,,,,,,,0,64,0,,
90600,note_on,0,0,1,,,,,,,,,0,,,93,60
90600,note_on,30,0,1,,,,,,,,,0,,,84,0
90600,control_change,15,0,5,,,,,,,,,0,64,127,,
90600,note_on,60,0,3,,,,,,,,,0,,,55,0
90600,note_on,0,0,3,,,,,,,,,0,,,60,0
90600,note_on,0,0,3,,,,,,,,,0,,,64,0
90600,note_on,0,0,3,,,,,,,,,0,,,65,60
90600,note_on,0,0,3,,,,,,,,,0,,,60,60
90600,note_on,0,0,3,,,,,,,,,0,,,57,60
90630,note_on,0,0,1,,,,,,,,,0,,,96,60
90630,note_on,30,0,1,,,,,,,,,0,,,93,0
90660,note_on,0,0,3,,,,,,,,,0,,,67,60
90660,note_on,30,0,1,,,,,,,,,0,,,96,0
90660,note_on,0,0,1,,,,,,,,,0,,,91,60
90660,note_on,0,0,3,,,,,,,,,0,,,65,0
90660,note_on,0,0,3,,,,,,,,,0,,,60,0
90660,note_on,0,0,3,,,,,,,,,0,,,60,60
90660,note_on,0,0,3,,,,,,,,,0,,,58,60
90660,note_on,60,0,3,,,,,,,,,0,,,57,0
90690,note_on,0,0,1,,,,,,,,,0,,,96,60
90690,note_on,30,0,1,,,,,,,,,0,,,91,0
90705,control_change,105,0,5,,,,,,,,,0,64,0,,
90720,note_on,0,0,1,,,,,,,,,0,,,84,60
90720,note_on,30,0,1,,,,,,,,,0,,,96,0
90720,note_on,60,0,3,,,,,,,,,0,,,58,0
90720,note_on,0,0,3,,,,,,,,,0,,,60,0
90720,note_on,0,0,3,,,,,,,,,0,,,60,60
90720,note_on,0,0,3,,,,,,,,,0,,,58,60
90720,note_on,0,0,3,,,,,,,,,0,,,53,80
90720,control_change,15,0,5,,,,,,,,,0,64,127,,
90720,note_on,0,0,3,,,,,,,,,0,,,67,0
90750,note_on,0,0,1,,,,,,,,,0,,,96,60
90750,note_on,30,0,1,,,,,,,,,0,,,84,0
90780,note_on,60,0,3,,,,,,,,,0,,,58,0
90780,note_on,0,0,3,,,,,,,,,0,,,60,0
90780,note_on,30,0,1,,,,,,,,,0,,,96,0
90780,note_on,0,0,1,,,,,,,,,0,,,93,60
90780,note_on,0,0,3,,,,,,,,,0,,,65,60
90780,note_on,0,0,3,,,,,,,,,0,,,60,60
90780,note_on,0,0,3,,,,,,,,,0,,,57,60
90810,note_on,30,0,3,,,,,,,,,0,,,57,0
90810,note_on,0,0,3,,,,,,,,,0,,,60,0
90810,note_on,0,0,3,,,,,,,,,0,,,65,0
90810,note_on,0,0,1,,,,,,,,,0,,,84,60
90810,note_on,30,0,1,,,,,,,,,0,,,93,0
90825,control_change,105,0,5,,,,,,,,,0,64,0,,
90840,note_on,30,0,1,,,,,,,,,0,,,84,0
90840,note_on,0,0,3,,,,,,,,,0,,,57,60
90840,note_on,30,0,3,,,,,,,,,0,,,65,60
90840,note_on,0,0,1,,,,,,,,,0,,,84,60
90840,note_on,0,0,3,,,,,,,,,0,,,60,60
90840,control_change,15,0,5,,,,,,,,,0,64,127,,
90870,note_on,30,0,1,,,,,,,,,0,,,84,0
90870,note_on,0,0,1,,,,,,,,,0,,,96,60
90900,note_on,60,0,3,,,,,,,,,0,,,57,0
90900,note_on,0,0,3,,,,,,,,,0,,,65,60
90900,note_on,0,0,3,,,,,,,,,0,,,65,0
90900,note_on,0,0,3,,,,,,,,,0,,,60,0
90900,note_on,30,0,1,,,,,,,,,0,,,96,0
90900,note_on,0,0,1,,,,,,,,,0,,,93,60
90900,note_on,0,0,3,,,,,,,,,0,,,57,60
90900,note_on,0,0,3,,,,,,,,,0,,,60,60
90930,note_on,30,0,1,,,,,,,,,0,,,93,0
90930,note_on,0,0,1,,,,,,,,,0,,,84,60
90945,note_on,45,0,3,,,,,,,,,0,,,65,60
90945,control_change,105,0,5,,,,,,,,,0,64,0,,
90960,control_change,15,0,5,,,,,,,,,0,64,127,,
90960,note_on,30,0,1,,,,,,,,,0,,,84,0
90960,note_on,0,0,3,,,,,,,,,0,,,53,0
90960,note_on,15,0,3,,,,,,,,,0,,,57,0
90960,note_on,0,0,3,,,,,,,,,0,,,60,0
90960,note_on,0,0,1,,,,,,,,,0,,,84,60
90960,note_on,0,0,3,,,,,,,,,0,,,60,60
90960,note_on,0,0,3,,,,,,,,,0,,,65,0
90960,note_on,0,0,3,,,,,,,,,0,,,69,60
90990,note_on,0,0,1,,,,,,,,,0,,,96,60
90990,note_on,30,0,1,,,,,,,,,0,,,84,0
91020,note_on,30,0,1,,,,,,,,,0,,,96,0
91020,note_on,0,0,1,,,,,,,,,0,,,93,60
91020,note_on,60,0,3,,,,,,,,,0,,,60,0
91020,note_on,0,0,3,,,,,,,,,0,,,69,0
91020,note_on,0,0,3,,,,,,,,,0,,,60,60
91020,note_on,0,0,3,,,,,,,,,0,,,65,0
91020,note_on,0,0,3,,,,,,,,,0,,,65,60
91020,note_on,0,0,3,,,,,,,,,0,,,57,60
91050,note_on,30,0,3,,,,,,,,,0,,,57,0
91050,note_on,0,0,3,,,,,,,,,0,,,60,0
91050,note_on,0,0,3,,,,,,,,,0,,,65,0
91050,note_on,30,0,1,,,,,,,,,0,,,93,0
91050,note_on,0,0,1,,,,,,,,,0,,,84,60
91065,control_change,105,0,5,,,,,,,,,0,64,0,,
91080,note_on,0,0,1,,,,,,,,,0,,,89,60
91080,note_on,30,0,1,,,,,,,,,0,,,84,0
91080,control_change,15,0,5,,,,,,,,,0,64,127,,
91080,note_on,30,0,3,,,,,,,,,0,,,65,60
91080,note_on,0,0,3,,,,,,,,,0,,,60,60
91080,note_on,0,0,3,,,,,,,,,0,,,57,60
91110,note_on,0,0,1,,,,,,,,,0,,,101,60
91110,note_on,30,0,1,,,,,,,,,0,,,89,0
91140,note_on,30,0,1,,,,,,,,,0,,,101,0
91140,note_on,0,0,3,,,,,,,,,0,,,57,60
91140,note_on,0,0,3,,,,,,,,,0,,,65,0
91140,note_on,0,0,3,,,,,,,,,0,,,60,0
91140,note_on,0,0,1,,,,,,,,,0,,,84,60
91140,note_on,0,0,3,,,,,,,,,0,,,65,60
91140,note_on,60,0,3,,,,,,,,,0,,,57,0
91140,note_on,0,0,3,,,,,,,,,0,,,60,60
91170,note_on,0,0,1,,,,,,,,,0,,,96,60
91170,note_on,30,0,1,,,,,,,,,0,,,84,0
91185,control_change,105,0,5,,,,,,,,,0,64,0,,
91200,note_on,0,0,3,,,,,,,,,0,,,60,0
91200,note_on,60,0,3,,,,,,,,,0,,,57,0
91200,note_on,0,0,3,,,,,,,,,0,,,65,0
91200,control_change,15,0,5,,,,,,,,,0,64,127,,
91200,note_on,930,0,4,,,,,,,,,0,,,48,80
91200,note_on,0,0,1,,,,,,,,,0,,,84,60
91200,note_on,30,0,1,,,,,,,,,0,,,96,0
91230,note_on,30,0,4,,,,,,,,,0,,,48,0
91230,note_on,0,0,1,,,,,,,,,0,,,96,60
91230,note_on,30,0,1,,,,,,,,,0,,,84,0
91260,note_on,0,0,3,,,,,,,,,0,,,55,60
91260,note_on,0,0,3,,,,,,,,,0,,,60,60
91260,note_on,30,0,1,,,,,,,,,0,,,96,0
91260,note_on,0,0,1,,,,,,,,,0,,,94,60
91260,note_on,60,0,3,,,,,,,,,0,,,64,60
91290,note_on,30,0,1,,,,,,,,,0,,,94,0
91290,note_on,0,0,1,,,,,,,,,0,,,84,60
91305,control_change,105,0,5,,,,,,,,,0,64,0,,
91320,control_change,15,0,5,,,,,,,,,0,64,127,,
91320,note_on,0,0,3,,,,,,,,,0,,,60,60
91320,note_on,0,0,3,,,,,,,,,0,,,55,60
91320,note_on,30,0,1,,,,,,,,,0,,,84,0
91320,note_on,0,0,1,,,,,,,,,0,,,84,60
91320,note_on,0,0,3,,,,,,,,,0,,,64,0
91320,note_on,0,0,3,,,,,,,,,0,,,60,0
91320,note_on,60,0,3,,,,,,,,,0,,,55,0
91320,note_on,0,0,3,,,,,,,,,0,,,64,60
91350,note_on,30,0,1,,,,,,,,,0,,,84,0
91350,note_on,0,0,1,,,,,,,,,0,,,96,60
91380,note_on,60,0,3,,,,,,,,,0,,,55,0
91380,note_on,30,0,1,,,,,,,,,0,,,96,0
91380,note_on,0,0,3,,,,,,,,,0,,,64,60
91380,note_on,0,0,3,,,,,,,,,0,,,60,60
91380,note_on,0,0,3,,,,,,,,,0,,,55,60
91380,note_on,0,0,1,,,,,,,,,0,,,94,60
91380,note_on,0,0,3,,,,,,,,,0,,,60,0
91380,note_on,0,0,3,,,,,,,,,0,,,64,0
91410,note_on,30,0,1,,,,,,,,,0,,,94,0
91410,note_on,0,0,1,,,,,,,,,0,,,84,60
91425,control_change,105,0,5,,,,,,,,,0,64,0,,
91440,note_on,60,0,3,,,,,,,,,0,,,55,0
91440,note_on,0,0,3,,,,,,,,,0,,,60,0
91440,note_on,0,0,3,,,,,,,,,0,,,64,0
91440,note_on,0,0,3,,,,,,,,,0,,,55,60
91440,note_on,0,0,1,,,,,,,,,0,,,84,60
91440,note_on,0,0,3,,,,,,,,,0,,,60,60
91440,control_change,15,0,5,,,,,,,,,0,64,127,,
91440,note_on,30,0,1,,,,,,,,,0,,,84,0
91440,note_on,0,0,3,,,,,,,,,0,,,64,60
91470,note_on,30,0,1,,,,,,,,,0,,,84,0
91470,note_on,0,0,1,,,,,,,,,0,,,96,60
91500,note_on,30,0,1,,,,,,,,,0,,,96,0
91500,note_on,0,0,1,,,,,,,,,0,,,94,60
91500,note_on,0,0,3,,,,,,,,,0,,,60,0
91500,note_on,0,0,3,,,,,,,,,0,,,64,0
91500,note_on,0,0,3,,,,,,,,,0,,,64,60
91500,note_on,0,0,3,,,,,,,,,0,,,60,60
91500,note_on,0,0,3,,,,,,,,,0,,,55,60
91500,note_on,60,0,3,,,,,,,,,0,,,55,0
91530,note_on,0,0,1,,,,,,,,,0,,,84,60
91530,note_on,30,0,1,,,,,,,,,0,,,94,0
91545,control_change,105,0,5,,,,,,,,,0,64,0,,
91560,control_change,15,0,5,,,,,,,,,0,64,127,,
91560,note_on,30,0,1,,,,,,,,,0,,,84,0
91560,note_on,0,0,1,,,,,,,,,0,,,93,60
91560,note_on,0,0,3,,,,,,,,,0,,,65,60
91560,note_on,60,0,3,,,,,,,,,0,,,55,0
91560,note_on,0,0,3,,,,,,,,,0,,,60,0
91560,note_on,0,0,3,,,,,,,,,0,,,60,60
91560,note_on,0,0,3,,,,,,,,,0,,,64,0
91560,note_on,0,0,3,,,,,,,,,0,,,57,60
91590,note_on,30,0,1,,,,,,,,,0,,,93,0
91590,note_on,0,0,1,,,,,,,,,0,,,96,60
91620,note_on,30,0,1,,,,,,,,,0,,,96,0
91620,note_on,60,0,3,,,,,,,,,0,,,57,0
91620,note_on,0,0,3,,,,,,,,,0,,,58,60
91620,note_on,0,0,3,,,,,,,,,0,,,60,60
91620,note_on,0,0,3,,,,,,,,,0,,,65,0
91620,note_on,0,0,3,,,,,,,,,0,,,60,0
91620,note_on,0,0,1,,,,,,,,,0,,,91,60
91620,note_on,0,0,3,,,,,,,,,0,,,67,60
91650,note_on,30,0,1,,,,,,,,,0,,,91,0
91650,note_on,0,0,1,,,,,,,,,0,,,96,60
91665,control_change,105,0,5,,,,,,,,,0,64,0,,
91680,note_on,0,0,3,,,,,,,,,0,,,53,80
91680,note_on,0,0,3,,,,,,,,,0,,,58,60
91680,note_on,0,0,3,,,,,,,,,0,,,60,60
91680,note_on,0,0,3,,,,,,,,,0,,,60,0
91680,note_on,60,0,3,,,,,,,,,0,,,58,0
91680,note_on,30,0,1,,,,,,,,,0,,,96,0
91680,note_on,0,0,1,,,,,,,,,0,,,84,60
91680,control_change,15,0,5,,,,,,,,,0,64,127,,
91680,note_on,0,0,3,,,,,,,,,0,,,67,0
91710,note_on,0,0,1,,,,,,,,,0,,,96,60
91710,note_on,30,0,1,,,,,,,,,0,,,84,0
91740,note_on,30,0,1,,,,,,,,,0,,,96,0
91740,note_on,0,0,3,,,,,,,,,0,,,65,60
91740,note_on,0,0,3,,,,,,,,,0,,,60,60
91740,note_on,0,0,3,,,,,,,,,0,,,57,60
91740,note_on,0,0,1,,,,,,,,,0,,,93,60
91740,note_on,60,0,3,,,,,,,,,0,,,58,0
91740,note_on,0,0,3,,,,,,,,,0,,,60,0
91770,note_on,30,0,3,,,,,,,,,0,,,57,0
91770,note_on,0,0,3,,,,,,,,,0,,,60,0
91770,note_on,0,0,3,,,,,,,,,0,,,65,0
91770,note_on,0,0,1,,,,,,,,,0,,,84,60
91770,note_on,30,0,1,,,,,,,,,0,,,93,0
91785,control_change,105,0,5,,,,,,,,,0,64,0,,
91800,note_on,0,0,3,,,,,,,,,0,,,57,60
91800,note_on,0,0,3,,,,,,,,,0,,,60,60
91800,control_change,15,0,5,,,,,,,,,0,64,127,,
91800,note_on,0,0,1,,,,,,,,,0,,,84,60
91800,note_on,30,0,1,,,,,,,,,0,,,84,0
91800,note_on,30,0,3,,,,,,,,,0,,,65,60
91830,note_on,30,0,1,,,,,,,,,0,,,84,0
91830,note_on,0,0,1,,,,,,,,,0,,,96,60
91860,note_on,0,0,3,,,,,,,,,0,,,60,60
91860,note_on,0,0,3,,,,,,,,,0,,,65,0
91860,note_on,0,0,3,,,,,,,,,0,,,60,0
91860,note_on,30,0,1,,,,,,,,,0,,,96,0
91860,note_on,0,0,1,,,,,,,,,0,,,93,60
91860,note_on,0,0,3,,,,,,,,,0,,,57,60
91860,note_on,60,0,3,,,,,,,,,0,,,57,0
91860,note_on,0,0,3,,,,,,,,,0,,,65,60
91890,note_on,30,0,1,,,,,,,,,0,,,93,0
91890,note_on,0,0,1,,,,,,,,,0,,,84,60
91905,note_on,45,0,3,,,,,,,,,0,,,65,60
91905,control_change,105,0,5,,,,,,,,,0,64,0,,
91920,control_change,15,0,5,,,,,,,,,0,64,127,,
91920,note_on,0,0,1,,,,,,,,,0,,,84,60
91920,note_on,30,0,1,,,,,,,,,0,,,84,0
91920,note_on,0,0,3,,,,,,,,,0,,,60,60
91920,note_on,0,0,3,,,,,,,,,0,,,69,60
91920,note_on,0,0,3,,,,,,,,,0,,,65,0
91920,note_on,0,0,3,,,,,,,,,0,,,53,0
91920,note_on,0,0,3,,,,,,,,,0,,,60,0
91920,note_on,15,0,3,,,,,,,,,0,,,57,0
91950,note_on,30,0,1,,,,,,,,,0,,,84,0
91950,note_on,0,0,1,,,,,,,,,0,,,96,60
91980,note_on,0,0,3,,,,,,,,,0,,,57,60
91980,note_on,0,0,3,,,,,,,,,0,,,60,60
91980,note_on,0,0,3,,,,,,,,,0,,,65,60
91980,note_on,0,0,3,,,,,,,,,0,,,69,0
91980,note_on,60,0,3,,,,,,,,,0,,,60,0
91980,note_on,0,0,3,,,,,,,,,0,,,65,0
91980,note_on,30,0,1,,,,,,,,,0,,,96,0
91980,note_on,0,0,1,,,,,,,,,0,,,93,60
92010,note_on,0,0,3,,,,,,,,,0,,,65,0
92010,note_on,0,0,3,,,,,,,,,0,,,60,0
92010,note_on,30,0,3,,,,,,,,,0,,,57,0
92010,note_on,30,0,1,,,,,,,,,0,,,93,0
92010,note_on,0,0,1,,,,,,,,,0,,,84,60
92025,control_change,105,0,5,,,,,,,,,0,64,0,,
92040,note_on,0,0,3,,,,,,,,,0,,,60,60
92040,note_on,0,0,3,,,,,,,,,0,,,57,60
92040,note_on,30,0,3,,,,,,,,,0,,,65,60
92040,note_on,30,0,1,,,,,,,,,0,,,84,0
92040,note_on,0,0,1,,,,,,,,,0,,,89,60
92040,control_change,15,0,5,,,,,,,,,0,64,127,,
92070,note_on,0,0,1,,,,,,,,,0,,,101,60
92070,note_on,30,0,1,,,,,,,,,0,,,89,0
92100,note_on,0,0,3,,,,,,,,,0,,,60,0
92100,note_on,60,0,3,,,,,,,,,0,,,57,0
92100,note_on,0,0,3,,,,,,,,,0,,,60,60
92100,note_on,30,0,1,,,,,,,,,0,,,101,0
92100,note_on,0,0,3,,,,,,,,,0,,,65,60
92100,note_on,0,0,3,,,,,,,,,0,,,57,60
92100,note_on,0,0,1,,,,,,,,,0,,,84,60
92100,note_on,0,0,3,,,,,,,,,0,,,65,0
92130,note_on,30,0,1,,,,,,,,,0,,,84,0
92130,note_on,0,0,1,,,,,,,,,0,,,96,60
92145,control_change,105,0,5,,,,,,,,,0,64,0,,
92160,note_on,60,0,3,,,,,,,,,0,,,57,0
92160,note_on,0,0,3,,,,,,,,,0,,,60,0
92160,note_on,0,0,3,,,,,,,,,0,,,65,0
92160,set_tempo,15840,1,0,,,,,,500042,,,,,,,
92160,note_on,0,0,1,,,,,,,,,0,,,84,60
92160,note_on,930,0,4,,,,,,,,,0,,,48,80
92160,control_change,15,0,5,,,,,,,,,0,64,127,,
92160,note_on,30,0,1,,,,,,,,,0,,,96,0
92167,set_tempo,7,1,0,,,,,,501295,,,,,,,
92174,set_tempo,7,1,0,,,,,,502555,,,,,,,
92181,set_tempo,7,1,0,,,,,,505093,,,,,,,
92188,set_tempo,7,1,0,,,,,,506372,,,,,,,
92190,note_on,30,0,1,,,,,,,,,0,,,84,0
92190,note_on,30,0,4,,,,,,,,,0,,,48,0
92190,note_on,0,0,1,,,,,,,,,0,,,96,60
92195,set_tempo,7,1,0,,,,,,507657,,,,,,,
92202,set_tempo,7,1,0,,,,,,510247,,,,,,,
92209,set_tempo,7,1,0,,,,,,511553,,,,,,,
92216,set_tempo,7,1,0,,,,,,514183,,,,,,,
92220,note_on,0,0,3,,,,,,,,,0,,,55,60
92220,note_on,0,0,3,,,,,,,,,0,,,60,60
92220,note_on,60,0,3,,,,,,,,,0,,,64,60
92220,note_on,30,0,1,,,,,,,,,0,,,96,0
92220,note_on,0,0,1,,,,,,,,,0,,,94,60
92223,set_tempo,7,1,0,,,,,,515508,,,,,,,
92230,set_tempo,7,1,0,,,,,,516840,,,,,,,
92237,set_tempo,7,1,0,,,,,,519526,,,,,,,
92244,set_tempo,7,1,0,,,,,,520879,,,,,,,
92250,note_on,0,0,1,,,,,,,,,0,,,84,60
92250,note_on,30,0,1,,,,,,,,,0,,,94,0
92251,set_tempo,7,1,0,,,,,,523606,,,,,,,
92258,set_tempo,7,1,0,,,,,,524980,,,,,,,
92265,control_change,105,0,5,,,,,,,,,0,64,0,,
92265,set_tempo,7,1,0,,,,,,526362,,,,,,,
92272,set_tempo,7,1,0,,,,,,529147,,,,,,,
92280,note_on,0,0,3,,,,,,,,,0,,,64,60
92280,set_tempo,8,1,0,,,,,,530551,,,,,,,
92280,note_on,60,0,3,,,,,,,,,0,,,55,0
92280,note_on,0,0,3,,,,,,,,,0,,,60,60
92280,note_on,30,0,1,,,,,,,,,0,,,84,0
92280,note_on,0,0,1,,,,,,,,,0,,,84,60
92280,control_change,15,0,5,,,,,,,,,0,64,127,,
92280,note_on,0,0,3,,,,,,,,,0,,,60,0
92280,note_on,0,0,3,,,,,,,,,0,,,64,0
92280,note_on,0,0,3,,,,,,,,,0,,,55,60
92287,set_tempo,7,1,0,,,,,,531962,,,,,,,
92294,set_tempo,7,1,0,,,,,,534807,,,,,,,
92301,set_tempo,7,1,0,,,,,,536241,,,,,,,
92308,set_tempo,7,1,0,,,,,,539132,,,,,,,
92310,note_on,30,0,1,,,,,,,,,0,,,84,0
92310,note_on,0,0,1,,,,,,,,,0,,,96,60
92315,set_tempo,7,1,0,,,,,,540589,,,,,,,
92322,set_tempo,7,1,0,,,,,,542054,,,,,,,
92329,set_tempo,7,1,0,,,,,,545009,,,,,,,
92336,set_tempo,7,1,0,,,,,,546498,,,,,,,
92340,note_on,60,0,3,,,,,,,,,0,,,55,0
92340,note_on,0,0,3,,,,,,,,,0,,,55,60
92340,note_on,0,0,3,,,,,,,,,0,,,60,60
92340,note_on,0,0,3,,,,,,,,,0,,,64,60
92340,note_on,0,0,3,,,,,,,,,0,,,64,0
92340,note_on,0,0,3,,,,,,,,,0,,,60,0
92340,note_on,30,0,1,,,,,,,,,0,,,96,0
92340,note_on,0,0,1,,,,,,,,,0,,,94,60
92343,set_tempo,7,1,0,,,,,,549501,,,,,,,
92350,set_tempo,7,1,0,,,,,,551015,,,,,,,
92357,set_tempo,7,1,0,,,,,,552537,,,,,,,
92364,set_tempo,7,1,0,,,,,,555607,,,,,,,
92370,note_on,0,0,1,,,,,,,,,0,,,84,60
92370,note_on,30,0,1,,,,,,,,,0,,,94,0
92371,set_tempo,7,1,0,,,,,,557155,,,,,,,
92378,set_tempo,7,1,0,,,,,,560276,,,,,,,
92385,set_tempo,7,1,0,,,,,,561850,,,,,,,
92385,control_change,105,0,5,,,,,,,,,0,64,0,,
92392,set_tempo,7,1,0,,,,,,563433,,,,,,,
92400,note_on,0,0,3,,,,,,,,,0,,,64,60
92400,set_tempo,8,1,0,,,,,,566626,,,,,,,
92400,note_on,0,0,3,,,,,,,,,0,,,60,60
92400,note_on,0,0,3,,,,,,,,,0,,,55,60
92400,control_change,15,0,5,,,,,,,,,0,64,127,,
92400,note_on,30,0,1,,,,,,,,,0,,,84,0
92400,note_on,0,0,3,,,,,,,,,0,,,64,0
92400,note_on,60,0,3,,,,,,,,,0,,,55,0
92400,note_on,0,0,3,,,,,,,,,0,,,60,0
92400,note_on,0,0,1,,,,,,,,,0,,,84,60
92407,set_tempo,7,1,0,,,,,,568236,,,,,,,
92414,set_tempo,7,1,0,,,,,,569855,,,,,,,
92421,set_tempo,7,1,0,,,,,,573121,,,,,,,
92428,set_tempo,7,1,0,,,,,,574768,,,,,,,
92430,note_on,30,0,1,,,,,,,,,0,,,84,0
92430,note_on,0,0,1,,,,,,,,,0,,,96,60
92435,set_tempo,7,1,0,,,,,,578090,,,,,,,
92442,set_tempo,7,1,0,,,,,,579766,,,,,,,
92449,set_tempo,7,1,0,,,,,,581452,,,,,,,
92456,set_tempo,7,1,0,,,,,,584852,,,,,,,
92460,note_on,0,0,1,,,,,,,,,0,,,94,60
92460,note_on,0,0,3,,,,,,,,,0,,,55,60
92460,note_on,0,0,3,,,,,,,,,0,,,60,60
92460,note_on,0,0,3,,,,,,,,,0,,,64,60
92460,note_on,0,0,3,,,,,,,,,0,,,64,0
92460,note_on,0,0,3,,,,,,,,,0,,,60,0
92460,note_on,60,0,3,,,,,,,,,0,,,55,0
92460,note_on,30,0,1,,,,,,,,,0,,,96,0
92463,set_tempo,7,1,0,,,,,,586568,,,,,,,
92470,set_tempo,7,1,0,,,,,,590029,,,,,,,
92477,set_tempo,7,1,0,,,,,,591774,,,,,,,
92484,set_tempo,7,1,0,,,,,,593531,,,,,,,
92490,note_on,30,0,1,,,,,,,,,0,,,94,0
92490,note_on,0,0,1,,,,,,,,,0,,,84,60
92491,set_tempo,7,1,0,,,,,,597074,,,,,,,
92498,set_tempo,7,1,0,,,,,,598862,,,,,,,
92505,set_tempo,7,1,0,,,,,,602470,,,,,,,
92505,control_change,105,0,5,,,,,,,,,0,64,0,,
92512,set_tempo,7,1,0,,,,,,604290,,,,,,,
92520,note_on,0,0,1,,,,,,,,,0,,,93,60
92520,note_on,60,0,3,,,,,,,,,0,,,55,0
92520,note_on,30,0,1,,,,,,,,,0,,,84,0
92520,note_on,0,0,3,,,,,,,,,0,,,64,0
92520,note_on,0,0,3,,,,,,,,,0,,,65,60
92520,note_on,0,0,3,,,,,,,,,0,,,60,60
92520,note_on,0,0,3,,,,,,,,,0,,,60,0
92520,control_change,15,0,5,,,,,,,,,0,64,127,,
92520,note_on,0,0,3,,,,,,,,,0,,,57,60
92520,set_tempo,8,1,0,,,,,,606122,,,,,,,
92527,set_tempo,7,1,0,,,,,,609818,,,,,,,
92534,set_tempo,7,1,0,,,,,,611683,,,,,,,
92541,set_tempo,7,1,0,,,,,,613560,,,,,,,
92548,set_tempo,7,1,0,,,,,,617347,,,,,,,
92550,note_on,0,0,1,,,,,,,,,0,,,96,60
92550,note_on,30,0,1,,,,,,,,,0,,,93,0
92555,set_tempo,7,1,0,,,,,,619259,,,,,,,
92562,set_tempo,7,1,0,,,,,,623118,,,,,,,
92569,set_tempo,7,1,0,,,,,,625065,,,,,,,
92576,set_tempo,7,1,0,,,,,,627025,,,,,,,
92580,note_on,0,0,1,,,,,,,,,0,,,91,60
92580,note_on,0,0,3,,,,,,,,,0,,,67,60
92580,note_on,60,0,3,,,,,,,,,0,,,57,0
92580,note_on,0,0,3,,,,,,,,,0,,,58,60
92580,note_on,0,0,3,,,,,,,,,0,,,65,0
92580,note_on,0,0,3,,,,,,,,,0,,,60,0
92580,note_on,30,0,1,,,,,,,,,0,,,96,0
92580,note_on,0,0,3,,,,,,,,,0,,,60,60
92583,set_tempo,7,1,0,,,,,,630981,,,,,,,
92590,set_tempo,7,1,0,,,,,,632978,,,,,,,
92597,set_tempo,7,1,0,,,,,,637010,,,,,,,
92604,set_tempo,7,1,0,,,,,,639046,,,,,,,
92610,note_on,30,0,1,,,,,,,,,0,,,91,0
92610,note_on,0,0,1,,,,,,,,,0,,,96,60
92611,set_tempo,7,1,0,,,,,,641094,,,,,,,
92618,set_tempo,7,1,0,,,,,,645231,,,,,,,
92625,set_tempo,7,1,0,,,,,,647319,,,,,,,
92625,control_change,105,0,5,,,,,,,,,0,64,0,,
92632,set_tempo,7,1,0,,,,,,651537,,,,,,,
92640,note_on,30,0,1,,,,,,,,,0,,,96,0
92640,note_on,0,0,1,,,,,,,,,0,,,91,60
92640,set_tempo,8,1,0,,,,,,652174,,,,,,,
92640,note_on,450,0,4,,,,,,,,,0,,,48,80
92640,control_change,15,0,5,,,,,,,,,0,64,127,,
92640,note_on,60,0,3,,,,,,,,,0,,,58,0
92640,note_on,0,0,3,,,,,,,,,0,,,67,0
92640,note_on,0,0,3,,,,,,,,,0,,,60,0
92670,note_on,30,0,4,,,,,,,,,0,,,48,0
92760,note_on,0,0,3,,,,,,,,,0,,,60,60
92760,note_on,0,0,3,,,,,,,,,0,,,67,60
92760,note_on,120,0,3,,,,,,,,,0,,,58,60
92940,note_on,0,0,1,,,,,,,,,0,,,93,60
92940,note_on,300,0,1,,,,,,,,,0,,,91,0
93000,note_on,0,0,1,,,,,,,,,0,,,94,60
93000,note_on,60,0,1,,,,,,,,,0,,,93,0
93060,note_on,60,0,1,,,,,,,,,0,,,94,0
93060,note_on,0,0,1,,,,,,,,,0,,,95,60
93120,note_on,0,0,1,,,,,,,,,0,,,96,60
93120,note_on,60,0,1,,,,,,,,,0,,,95,0
93480,note_on,360,0,1,,,,,,,,,0,,,96,0
93480,note_on,0,0,1,,,,,,,,,0,,,88,60
93480,control_change,840,0,5,,,,,,,,,0,64,0,,
93600,note_on,840,0,3,,,,,,,,,0,,,67,0
93600,note_on,120,0,1,,,,,,,,,0,,,88,0
93600,note_on,0,0,1,,,,,,,,,0,,,89,60
93600,note_on,0,0,4,,,,,,,,,0,,,53,60
93600,marker,0,1,0,,,,,,,,,,,,,
93600,note_on,0,0,4,,,,,,,,,0,,,60,60
93600,note_on,930,0,4,,,,,,,,,0,,,65,60
93600,note_on,0,0,4,,,,,,,,,0,,,57,60
93600,control_change,120,0,5,,,,,,,,,0,64,127,,
93600,end_of_track,0,1,3,,,,,,,,,,,,,
93600,note_on,0,0,3,,,,,,,,,0,,,58,0
93600,note_on,0,0,3,,,,,,,,,0,,,60,0
93600,set_tempo,960,1,0,,,,,,500000,,,,,,,
93630,note_on,0,0,1,,,,,,,,,0,,,93,60
93630,note_on,30,0,1,,,,,,,,,0,,,89,0
93660,note_on,30,0,1,,,,,,,,,0,,,93,0
93660,note_on,0,0,1,,,,,,,,,0,,,84,60
93690,note_on,0,0,1,,,,,,,,,0,,,89,60
93690,note_on,30,0,1,,,,,,,,,0,,,84,0
93720,note_on,0,0,1,,,,,,,,,0,,,81,60
93720,note_on,30,0,1,,,,,,,,,0,,,89,0
93750,note_on,0,0,1,,,,,,,,,0,,,84,60
93750,note_on,30,0,1,,,,,,,,,0,,,81,0
93780,note_on,0,0,1,,,,,,,,,0,,,77,60
93780,note_on,30,0,1,,,,,,,,,0,,,84,0
93810,note_on,30,0,1,,,,,,,,,0,,,77,0
93810,note_on,0,0,1,,,,,,,,,0,,,81,60
93840,note_on,30,0,1,,,,,,,,,0,,,81,0
93840,note_on,0,0,1,,,,,,,,,0,,,72,60
93870,note_on,30,0,1,,,,,,,,,0,,,72,0
93870,note_on,0,0,1,,,,,,,,,0,,,77,60
93900,note_on,30,0,1,,,,,,,,,0,,,77,0
93900,note_on,0,0,1,,,,,,,,,0,,,69,60
93930,note_on,30,0,1,,,,,,,,,0,,,69,0
93930,note_on,0,0,1,,,,,,,,,0,,,72,60
93960,note_on,0,0,4,,,,,,,,,0,,,65,0
93960,note_on,0,0,4,,,,,,,,,0,,,60,0
93960,note_on,0,0,4,,,,,,,,,0,,,57,0
93960,note_on,360,0,4,,,,,,,,,0,,,53,0
93960,note_on,30,0,1,,,,,,,,,0,,,72,0
93960,note_on,0,0,1,,,,,,,,,0,,,65,60
93990,note_on,30,0,1,,,,,,,,,0,,,65,0
93990,note_on,0,0,1,,,,,,,,,0,,,69,60
94020,note_on,30,0,1,,,,,,,,,0,,,69,0
94020,note_on,0,0,1,,,,,,,,,0,,,60,60
94050,note_on,0,0,1,,,,,,,,,0,,,65,60
94050,note_on,30,0,1,,,,,,,,,0,,,60,0
94080,control_change,480,0,5,,,,,,,,,0,64,0,,
94080,note_on,0,0,1,,,,,,,,,0,,,69,60
94080,note_on,30,0,1,,,,,,,,,0,,,65,0
94110,note_on,30,0,1,,,,,,,,,0,,,69,0
94110,note_on,0,0,1,,,,,,,,,0,,,72,59
94140,note_on,0,0,1,,,,,,,,,0,,,60,58
94140,note_on,30,0,1,,,,,,,,,0,,,72,0
94170,note_on,0,0,1,,,,,,,,,0,,,65,56
94170,note_on,30,0,1,,,,,,,,,0,,,60,0
94200,note_on,30,0,1,,,,,,,,,0,,,65,0
94200,note_on,0,0,1,,,,,,,,,0,,,69,55
94230,note_on,30,0,1,,,,,,,,,0,,,69,0
94230,note_on,0,0,1,,,,,,,,,0,,,72,54
94260,note_on,30,0,1,,,,,,,,,0,,,72,0
94260,note_on,0,0,1,,,,,,,,,0,,,60,52
94290,note_on,30,0,1,,,,,,,,,0,,,60,0
94290,note_on,0,0,1,,,,,,,,,0,,,65,51
94320,note_on,30,0,1,,,,,,,,,0,,,65,0
94320,note_on,0,0,1,,,,,,,,,0,,,69,50
94350,note_on,30,0,1,,,,,,,,,0,,,69,0
94350,note_on,0,0,1,,,,,,,,,0,,,72,48
94380,note_on,30,0,1,,,,,,,,,0,,,72,0
94380,note_on,0,0,1,,,,,,,,,0,,,60,47
94410,note_on,0,0,1,,,,,,,,,0,,,65,46
94410,note_on,30,0,1,,,,,,,,,0,,,60,0
94440,note_on,0,0,1,,,,,,,,,0,,,69,44
94440,note_on,30,0,1,,,,,,,,,0,,,65,0
94470,note_on,30,0,1,,,,,,,,,0,,,69,0
94470,note_on,0,0,1,,,,,,,,,0,,,72,43
94500,note_on,30,0,1,,,,,,,,,0,,,72,0
94500,note_on,0,0,1,,,,,,,,,0,,,60,41
94530,note_on,30,0,1,,,,,,,,,0,,,60,0
94530,note_on,0,0,1,,,,,,,,,0,,,65,40
94560,control_change,480,0,5,,,,,,,,,0,64,127,,
94560,note_on,600,0,4,,,,,,,,,0,,,41,60
94560,key_signature,960,1,0,,,,,Ab,,,,,,,,
94560,note_on,0,0,1,,,,,,,,,0,,,68,40
94560,note_on,30,0,1,,,,,,,,,0,,,65,0
94590,note_on,0,0,1,,,,,,,,,0,,,72,40
94590,note_on,30,0,1,,,,,,,,,0,,,68,0
94620,note_on,0,0,1,,,,,,,,,0,,,60,40
94620,note_on,30,0,1,,,,,,,,,0,,,72,0
94650,note_on,30,0,1,,,,,,,,,0,,,60,0
94650,note_on,0,0,1,,,,,,,,,0,,,65,40
94680,note_on,0,0,1,,,,,,,,,0,,,68,40
94680,note_on,120,0,4,,,,,,,,,0,,,41,0
94680,note_on,30,0,1,,,,,,,,,0,,,65,0
94710,note_on,30,0,1,,,,,,,,,0,,,68,0
94710,note_on,0,0,1,,,,,,,,,0,,,72,40
94740,note_on,0,0,1,,,,,,,,,0,,,60,40
94740,note_on,30,0,1,,,,,,,,,0,,,72,0
94770,note_on,0,0,1,,,,,,,,,0,,,65,40
94770,note_on,30,0,1,,,,,,,,,0,,,60,0
94800,note_on,0,0,1,,,,,,,,,0,,,68,40
94800,note_on,30,0,1,,,,,,,,,0,,,65,0
94830,note_on,30,0,1,,,,,,,,,0,,,68,0
94830,note_on,0,0,1,,,,,,,,,0,,,72,40
94860,note_on,0,0,1,,,,,,,,,0,,,60,40
94860,note_on,30,0,1,,,,,,,,,0,,,72,0
94890,note_on,0,0,1,,,,,,,,,0,,,65,40
94890,note_on,30,0,1,,,,,,,,,0,,,60,0
94920,control_change,360,0,5,,,,,,,,,0,64,0,,
94920,note_on,0,0,1,,,,,,,,,0,,,77,60
94920,note_on,0,0,1,,,,,,,,,0,,,80,60
94920,note_on,0,0,1,,,,,,,,,0,,,68,40
94920,note_on,30,0,1,,,,,,,,,0,,,65,0
94950,note_on,30,0,1,,,,,,,,,0,,,68,0
94950,note_on,0,0,1,,,,,,,,,0,,,72,40
94980,note_on,0,0,1,,,,,,,,,0,,,79,60
94980,note_on,30,0,1,,,,,,,,,0,,,72,0
94980,note_on,0,0,1,,,,,,,,,0,,,77,0
94980,note_on,0,0,1,,,,,,,,,0,,,80,0
94980,note_on,0,0,1,,,,,,,,,0,,,70,40
94980,note_on,0,0,1,,,,,,,,,0,,,82,60
95010,note_on,30,0,1,,,,,,,,,0,,,70,0
95010,note_on,0,0,1,,,,,,,,,0,,,72,40
95040,note_on,0,0,1,,,,,,,,,0,,,84,60
95040,note_on,30,0,1,,,,,,,,,0,,,72,0
95040,note_on,0,0,1,,,,,,,,,0,,,79,0
95040,control_change,120,0,5,,,,,,,,,0,64,127,,
95040,note_on,0,0,1,,,,,,,,,0,,,80,60
95040,note_on,0,0,1,,,,,,,,,0,,,68,40
95040,note_on,0,0,1,,,,,,,,,0,,,82,0
95070,note_on,0,0,1,,,,,,,,,0,,,72,40
95070,note_on,30,0,1,,,,,,,,,0,,,68,0
95100,note_on,0,0,1,,,,,,,,,0,,,60,40
95100,note_on,30,0,1,,,,,,,,,0,,,72,0
95130,note_on,0,0,1,,,,,,,,,0,,,65,40
95130,note_on,30,0,1,,,,,,,,,0,,,60,0
95160,note_on,0,0,1,,,,,,,,,0,,,80,0
95160,note_on,0,0,1,,,,,,,,,0,,,68,40
95160,note_on,0,0,1,,,,,,,,,0,,,84,0
95160,note_on,30,0,1,,,,,,,,,0,,,65,0
95190,note_on,0,0,1,,,,,,,,,0,,,72,40
95190,note_on,30,0,1,,,,,,,,,0,,,68,0
95220,note_on,0,0,1,,,,,,,,,0,,,60,40
95220,note_on,30,0,1,,,,,,,,,0,,,72,0
95250,note_on,0,0,1,,,,,,,,,0,,,65,40
95250,note_on,30,0,1,,,,,,,,,0,,,60,0
95280,note_on,30,0,1,,,,,,,,,0,,,65,0
95280,note_on,0,0,1,,,,,,,,,0,,,68,40
95310,note_on,0,0,1,,,,,,,,,0,,,72,40
95310,note_on,30,0,1,,,,,,,,,0,,,68,0
95340,note_on,30,0,1,,,,,,,,,0,,,72,0
95340,note_on,0,0,1,,,,,,,,,0,,,65,40
95340,note_on,0,0,1,,,,,,,,,0,,,68,40
95340,note_on,660,0,4,,,,,,,,,0,,,60,60
95340,note_on,0,0,4,,,,,,,,,0,,,56,60
95370,note_on,0,0,1,,,,,,,,,0,,,72,40
95370,note_on,0,0,1,,,,,,,,,0,,,65,0
95370,note_on,30,0,1,,,,,,,,,0,,,68,0
95400,note_on,0,0,4,,,,,,,,,0,,,60,0
95400,note_on,60,0,4,,,,,,,,,0,,,56,0
95400,control_change,360,0,5,,,,,,,,,0,64,0,,
95400,note_on,0,0,4,,,,,,,,,0,,,60,60
95400,note_on,30,0,1,,,,,,,,,0,,,72,0
95400,note_on,0,0,1,,,,,,,,,0,,,64,40
95400,note_on,0,0,4,,,,,,,,,0,,,55,60
95400,note_on,0,0,1,,,,,,,,,0,,,70,40
95430,note_on,30,0,1,,,,,,,,,0,,,70,0
95430,note_on,0,0,1,,,,,,,,,0,,,64,0
95430,note_on,0,0,1,,,,,,,,,0,,,72,40
95460,note_on,0,0,4,,,,,,,,,0,,,53,60
95460,note_on,0,0,4,,,,,,,,,0,,,55,0
95460,note_on,0,0,1,,,,,,,,,0,,,68,40
95460,note_on,0,0,4,,,,,,,,,0,,,60,60
95460,note_on,60,0,4,,,,,,,,,0,,,60,0
95460,note_on,0,0,1,,,,,,,,,0,,,65,40
95460,note_on,30,0,1,,,,,,,,,0,,,72,0
95490,note_on,30,0,1,,,,,,,,,0,,,68,0
95490,note_on,0,0,1,,,,,,,,,0,,,65,0
95490,note_on,0,0,1,,,,,,,,,0,,,72,40
95520,note_on,0,0,1,,,,,,,,,0,,,64,40
95520,note_on,0,0,4,,,,,,,,,0,,,48,60
95520,note_on,0,0,4,,,,,,,,,0,,,60,60
95520,note_on,0,0,4,,,,,,,,,0,,,53,0
95520,note_on,60,0,4,,,,,,,,,0,,,60,0
95520,note_on,30,0,1,,,,,,,,,0,,,72,0
95520,note_on,0,0,1,,,,,,,,,0,,,67,40
95520,control_change,120,0,5,,,,,,,,,0,64,127,,
95550,note_on,0,0,1,,,,,,,,,0,,,72,40
95550,note_on,0,0,1,,,,,,,,,0,,,64,0
95550,note_on,30,0,1,,,,,,,,,0,,,67,0
95580,note_on,30,0,1,,,,,,,,,0,,,72,0
95580,note_on,0,0,1,,,,,,,,,0,,,60,40
95580,note_on,60,0,4,,,,,,,,,0,,,48,0
95580,note_on,0,0,4,,,,,,,,,0,,,60,0
95610,note_on,30,0,1,,,,,,,,,0,,,60,0
95610,note_on,0,0,1,,,,,,,,,0,,,64,40
95640,note_on,0,0,1,,,,,,,,,0,,,67,40
95640,note_on,30,0,1,,,,,,,,,0,,,64,0
95670,note_on,0,0,1,,,,,,,,,0,,,72,40
95670,note_on,30,0,1,,,,,,,,,0,,,67,0
95700,note_on,0,0,1,,,,,,,,,0,,,60,40
95700,note_on,30,0,1,,,,,,,,,0,,,72,0
95730,note_on,0,0,1,,,,,,,,,0,,,64,40
95730,note_on,30,0,1,,,,,,,,,0,,,60,0
95760,note_on,0,0,1,,,,,,,,,0,,,67,40
95760,note_on,30,0,1,,,,,,,,,0,,,64,0
95790,note_on,0,0,1,,,,,,,,,0,,,72,40
95790,note_on,30,0,1,,,,,,,,,0,,,67,0
95820,note_on,0,0,1,,,,,,,,,0,,,60,40
95820,note_on,30,0,1,,,,,,,,,0,,,72,0
95850,note_on,0,0,1,,,,,,,,,0,,,64,40
95850,note_on,30,0,1,,,,,,,,,0,,,60,0
95880,control_change,360,0,5,,,,,,,,,0,64,0,,
95880,note_on,0,0,1,,,,,,,,,0,,,79,60
95880,note_on,30,0,1,,,,,,,,,0,,,64,0
95880,note_on,0,0,1,,,,,,,,,0,,,67,40
95880,note_on,0,0,1,,,,,,,,,0,,,82,60
95910,note_on,30,0,1,,,,,,,,,0,,,67,0
95910,note_on,0,0,1,,,,,,,,,0,,,72,40
95940,note_on,0,0,1,,,,,,,,,0,,,82,60
95940,note_on,30,0,1,,,,,,,,,0,,,72,0
95940,note_on,0,0,1,,,,,,,,,0,,,79,0
95940,note_on,0,0,1,,,,,,,,,0,,,82,0
95940,note_on,0,0,1,,,,,,,,,0,,,70,40
95940,note_on,0,0,1,,,,,,,,,0,,,85,60
95970,note_on,30,0,1,,,,,,,,,0,,,70,0
95970,note_on,0,0,1,,,,,,,,,0,,,72,40
96000,control_change,120,0,5,,,,,,,,,0,64,127,,
96000,note_on,0,0,1,,,,,,,,,0,,,80,60
96000,note_on,0,0,1,,,,,,,,,0,,,84,60
96000,note_on,0,0,1,,,,,,,,,0,,,85,0
96000,note_on,0,0,1,,,,,,,,,0,,,82,0
96000,note_on,30,0,1,,,,,,,,,0,,,72,0
96000,note_on,0,0,1,,,,,,,,,0,,,68,40
96030,note_on,30,0,1,,,,,,,,,0,,,68,0
96030,note_on,0,0,1,,,,,,,,,0,,,72,40
96060,note_on,30,0,1,,,,,,,,,0,,,72,0
96060,note_on,0,0,1,,,,,,,,,0,,,60,40
96090,note_on,30,0,1,,,,,,,,,0,,,60,0
96090,note_on,0,0,1,,,,,,,,,0,,,65,40
96120,note_on,30,0,1,,,,,,,,,0,,,65,0
96120,note_on,0,0,1,,,,,,,,,0,,,80,0
96120,note_on,0,0,1,,,,,,,,,0,,,84,0
96120,note_on,0,0,1,,,,,,,,,0,,,68,40
96150,note_on,30,0,1,,,,,,,,,0,,,68,0
96150,note_on,0,0,1,,,,,,,,,0,,,72,40
96180,note_on,30,0,1,,,,,,,,,0,,,72,0
96180,note_on,0,0,1,,,,,,,,,0,,,60,40
96210,note_on,0,0,1,,,,,,,,,0,,,65,40
96210,note_on,30,0,1,,,,,,,,,0,,,60,0
96240,note_on,0,0,1,,,,,,,,,0,,,68,40
96240,note_on,30,0,1,,,,,,,,,0,,,65,0
96270,note_on,0,0,1,,,,,,,,,0,,,72,40
96270,note_on,30,0,1,,,,,,,,,0,,,68,0
96300,note_on,0,0,1,,,,,,,,,0,,,60,40
96300,note_on,30,0,1,,,,,,,,,0,,,72,0
96330,note_on,0,0,1,,,,,,,,,0,,,65,40
96330,note_on,30,0,1,,,,,,,,,0,,,60,0
96360,control_change,360,0,5,,,,,,,,,0,64,0,,
96360,note_on,0,0,1,,,,,,,,,0,,,68,40
96360,note_on,30,0,1,,,,,,,,,0,,,65,0
96360,note_on,0,0,4,,,,,,,,,0,,,56,60
96360,note_on,780,0,4,,,,,,,,,0,,,60,60
96390,note_on,0,0,1,,,,,,,,,0,,,72,40
96390,note_on,30,0,1,,,,,,,,,0,,,68,0
96420,note_on,0,0,4,,,,,,,,,0,,,60,0
96420,note_on,60,0,4,,,,,,,,,0,,,56,0
96420,note_on,30,0,1,,,,,,,,,0,,,72,0
96420,note_on,0,0,1,,,,,,,,,0,,,64,40
96420,note_on,0,0,1,,,,,,,,,0,,,70,40
96420,note_on,0,0,4,,,,,,,,,0,,,60,60
96420,note_on,0,0,4,,,,,,,,,0,,,55,60
96450,note_on,0,0,1,,,,,,,,,0,,,72,40
96450,note_on,30,0,1,,,,,,,,,0,,,70,0
96450,note_on,0,0,1,,,,,,,,,0,,,64,0
96480,note_on,0,0,4,,,,,,,,,0,,,60,60
96480,note_on,0,0,4,,,,,,,,,0,,,53,60
96480,note_on,60,0,4,,,,,,,,,0,,,60,0
96480,note_on,30,0,1,,,,,,,,,0,,,72,0
96480,note_on,0,0,1,,,,,,,,,0,,,65,40
96480,note_on,0,0,1,,,,,,,,,0,,,68,40
96480,note_on,0,0,4,,,,,,,,,0,,,55,0
96480,control_change,120,0,5,,,,,,,,,0,64,127,,
96510,note_on,0,0,1,,,,,,,,,0,,,65,0
96510,note_on,0,0,1,,,,,,,,,0,,,72,40
96510,note_on,30,0,1,,,,,,,,,0,,,68,0
96540,note_on,30,0,1,,,,,,,,,0,,,72,0
96540,note_on,0,0,4,,,,,,,,,0,,,60,0
96540,note_on,60,0,4,,,,,,,,,0,,,53,0
96540,note_on,0,0,1,,,,,,,,,0,,,60,41
96570,note_on,30,0,1,,,,,,,,,0,,,60,0
96570,note_on,0,0,1,,,,,,,,,0,,,65,42
96600,note_on,30,0,1,,,,,,,,,0,,,65,0
96600,note_on,0,0,1,,,,,,,,,0,,,68,43
96630,note_on,0,0,1,,,,,,,,,0,,,72,44
96630,note_on,30,0,1,,,,,,,,,0,,,68,0
96660,note_on,30,0,1,,,,,,,,,0,,,72,0
96660,note_on,0,0,1,,,,,,,,,0,,,60,45
96690,note_on,30,0,1,,,,,,,,,0,,,60,0
96690,note_on,0,0,1,,,,,,,,,0,,,65,45
96720,note_on,30,0,1,,,,,,,,,0,,,65,0
96720,note_on,0,0,1,,,,,,,,,0,,,68,46
96750,note_on,30,0,1,,,,,,,,,0,,,68,0
96750,note_on,0,0,1,,,,,,,,,0,,,72,47
96780,note_on,30,0,1,,,,,,,,,0,,,72,0
96780,note_on,0,0,1,,,,,,,,,0,,,60,48
96810,note_on,30,0,1,,,,,,,,,0,,,60,0
96810,note_on,0,0,1,,,,,,,,,0,,,65,49
96840,note_on,0,0,1,,,,,,,,,0,,,80,70
96840,note_on,0,0,1,,,,,,,,,0,,,77,70
96840,note_on,0,0,1,,,,,,,,,0,,,68,50
96840,note_on,30,0,1,,,,,,,,,0,,,65,0
96840,control_change,360,0,5,,,,,,,,,0,64,0,,
96870,note_on,0,0,1,,,,,,,,,0,,,72,51
96870,note_on,30,0,1,,,,,,,,,0,,,68,0
96900,note_on,0,0,1,,,,,,,,,0,,,79,71
96900,note_on,0,0,1,,,,,,,,,0,,,82,71
96900,note_on,0,0,1,,,,,,,,,0,,,70,51
96900,note_on,0,0,1,,,,,,,,,0,,,63,51
96900,note_on,0,0,1,,,,,,,,,0,,,80,0
96900,note_on,0,0,1,,,,,,,,,0,,,77,0
96900,note_on,30,0,1,,,,,,,,,0,,,72,0
96930,note_on,30,0,1,,,,,,,,,0,,,70,0
96930,note_on,0,0,1,,,,,,,,,0,,,63,0
96930,note_on,0,0,1,,,,,,,,,0,,,75,52
96960,note_on,0,0,1,,,,,,,,,0,,,79,0
96960,note_on,0,0,1,,,,,,,,,0,,,68,53
96960,note_on,30,0,1,,,,,,,,,0,,,75,0
96960,note_on,0,0,1,,,,,,,,,0,,,82,0
96960,note_on,0,0,1,,,,,,,,,0,,,84,73
96960,note_on,0,0,1,,,,,,,,,0,,,80,73
96960,note_on,0,0,1,,,,,,,,,0,,,72,53
96960,control_change,120,0,5,,,,,,,,,0,64,127,,
96990,note_on,30,0,1,,,,,,,,,0,,,72,0
96990,note_on,0,0,1,,,,,,,,,0,,,68,0
96990,note_on,0,0,1,,,,,,,,,0,,,75,54
97020,note_on,30,0,1,,,,,,,,,0,,,75,0
97020,note_on,0,0,1,,,,,,,,,0,,,63,55
97050,note_on,0,0,1,,,,,,,,,0,,,68,56
97050,note_on,30,0,1,,,,,,,,,0,,,63,0
97080,note_on,30,0,1,,,,,,,,,0,,,68,0
97080,note_on,0,0,1,,,,,,,,,0,,,84,0
97080,note_on,0,0,1,,,,,,,,,0,,,80,0
97080,note_on,0,0,1,,,,,,,,,0,,,72,57
97110,note_on,0,0,1,,,,,,,,,0,,,75,57
97110,note_on,30,0,1,,,,,,,,,0,,,72,0
97140,note_on,30,0,1,,,,,,,,,0,,,75,0
97140,note_on,0,0,1,,,,,,,,,0,,,63,58
97170,note_on,30,0,1,,,,,,,,,0,,,63,0
97170,note_on,0,0,1,,,,,,,,,0,,,68,59
97200,note_on,30,0,1,,,,,,,,,0,,,68,0
97200,note_on,0,0,1,,,,,,,,,0,,,72,60
97230,note_on,30,0,1,,,,,,,,,0,,,72,0
97230,note_on,0,0,1,,,,,,,,,0,,,75,61
97260,note_on,0,0,1,,,,,,,,,0,,,68,62
97260,note_on,30,0,1,,,,,,,,,0,,,75,0
97260,note_on,0,0,4,,,,,,,,,0,,,63,82
97260,note_on,0,0,1,,,,,,,,,0,,,72,62
97260,note_on,720,0,4,,,,,,,,,0,,,60,82
97290,note_on,0,0,1,,,,,,,,,0,,,68,0
97290,note_on,30,0,1,,,,,,,,,0,,,72,0
97290,note_on,0,0,1,,,,,,,,,0,,,75,63
97320,note_on,0,0,1,,,,,,,,,0,,,67,63
97320,note_on,60,0,4,,,,,,,,,0,,,63,0
97320,note_on,0,0,4,,,,,,,,,0,,,60,0
97320,note_on,0,0,1,,,,,,,,,0,,,73,63
97320,note_on,0,0,4,,,,,,,,,0,,,63,83
97320,control_change,360,0,5,,,,,,,,,0,64,0,,
97320,note_on,0,0,4,,,,,,,,,0,,,58,83
97320,note_on,30,0,1,,,,,,,,,0,,,75,0
97350,note_on,0,0,1,,,,,,,,,0,,,75,64
97350,note_on,0,0,1,,,,,,,,,0,,,67,0
97350,note_on,30,0,1,,,,,,,,,0,,,73,0
97380,note_on,60,0,4,,,,,,,,,0,,,63,0
97380,note_on,30,0,1,,,,,,,,,0,,,75,0
97380,note_on,0,0,1,,,,,,,,,0,,,68,65
97380,note_on,0,0,4,,,,,,,,,0,,,58,0
97380,note_on,0,0,4,,,,,,,,,0,,,63,85
97380,note_on,0,0,4,,,,,,,,,0,,,56,85
97380,note_on,0,0,1,,,,,,,,,0,,,72,65
97410,note_on,30,0,1,,,,,,,,,0,,,72,0
97410,note_on,0,0,1,,,,,,,,,0,,,75,66
97410,note_on,0,0,1,,,,,,,,,0,,,68,0
97440,control_change,120,0,5,,,,,,,,,0,64,127,,
97440,note_on,60,0,4,,,,,,,,,0,,,63,0
97440,note_on,0,0,4,,,,,,,,,0,,,56,0
97440,note_on,0,0,4,,,,,,,,,0,,,51,87
97440,note_on,0,0,4,,,,,,,,,0,,,63,87
97440,note_on,0,0,1,,,,,,,,,0,,,70,67
97440,note_on,0,0,1,,,,,,,,,0,,,67,67
97440,note_on,30,0,1,,,,,,,,,0,,,75,0
97470,note_on,0,0,1,,,,,,,,,0,,,75,68
97470,note_on,0,0,1,,,,,,,,,0,,,67,0
97470,note_on,30,0,1,,,,,,,,,0,,,70,0
97500,note_on,0,0,4,,,,,,,,,0,,,51,0
97500,note_on,30,0,1,,,,,,,,,0,,,75,0
97500,note_on,0,0,1,,,,,,,,,0,,,63,69
97500,note_on,60,0,4,,,,,,,,,0,,,63,0
97530,note_on,30,0,1,,,,,,,,,0,,,63,0
97530,note_on,0,0,1,,,,,,,,,0,,,67,69
97560,note_on,30,0,1,,,,,,,,,0,,,67,0
97560,note_on,0,0,1,,,,,,,,,0,,,70,70
97590,note_on,30,0,1,,,,,,,,,0,,,70,0
97590,note_on,0,0,1,,,,,,,,,0,,,75,71
97620,note_on,30,0,1,,,,,,,,,0,,,75,0
97620,note_on,0,0,1,,,,,,,,,0,,,63,72
97650,note_on,30,0,1,,,,,,,,,0,,,63,0
97650,note_on,0,0,1,,,,,,,,,0,,,67,73
97680,note_on,0,0,1,,,,,,,,,0,,,70,74
97680,note_on,30,0,1,,,,,,,,,0,,,67,0
97710,note_on,0,0,1,,,,,,,,,0,,,75,75
97710,note_on,30,0,1,,,,,,,,,0,,,70,0
97740,note_on,0,0,1,,,,,,,,,0,,,63,75
97740,note_on,30,0,1,,,,,,,,,0,,,75,0
97770,note_on,30,0,1,,,,,,,,,0,,,63,0
97770,note_on,0,0,1,,,,,,,,,0,,,67,76
97800,note_on,30,0,1,,,,,,,,,0,,,67,0
97800,note_on,0,0,1,,,,,,,,,0,,,70,77
97800,note_on,0,0,1,,,,,,,,,0,,,85,97
97800,note_on,0,0,1,,,,,,,,,0,,,82,97
97800,control_change,360,0,5,,,,,,,,,0,64,0,,
97830,note_on,30,0,1,,,,,,,,,0,,,70,0
97830,note_on,0,0,1,,,,,,,,,0,,,75,78
97860,note_on,0,0,1,,,,,,,,,0,,,85,99
97860,note_on,0,0,1,,,,,,,,,0,,,89,99
97860,note_on,0,0,1,,,,,,,,,0,,,73,79
97860,note_on,0,0,1,,,,,,,,,0,,,82,0
97860,note_on,30,0,1,,,,,,,,,0,,,75,0
97860,note_on,0,0,1,,,,,,,,,0,,,85,0
97890,note_on,30,0,1,,,,,,,,,0,,,73,0
97890,note_on,0,0,1,,,,,,,,,0,,,75,80
97920,note_on,0,0,1,,,,,,,,,0,,,87,100
97920,note_on,0,0,1,,,,,,,,,0,,,84,100
97920,note_on,0,0,1,,,,,,,,,0,,,72,80
97920,control_change,120,0,5,,,,,,,,,0,64,127,,
97920,note_on,0,0,1,,,,,,,,,0,,,85,0
97920,note_on,30,0,1,,,,,,,,,0,,,75,0
97920,note_on,0,0,1,,,,,,,,,0,,,89,0
97950,note_on,30,0,1,,,,,,,,,0,,,72,0
97950,note_on,0,0,1,,,,,,,,,0,,,75,80
97980,note_on,30,0,1,,,,,,,,,0,,,75,0
97980,note_on,0,0,1,,,,,,,,,0,,,63,79
98010,note_on,0,0,1,,,,,,,,,0,,,68,78
98010,note_on,30,0,1,,,,,,,,,0,,,63,0
98040,note_on,30,0,1,,,,,,,,,0,,,68,0
98040,note_on,0,0,1,,,,,,,,,0,,,84,0
98040,note_on,0,0,1,,,,,,,,,0,,,87,0
98040,note_on,0,0,1,,,,,,,,,0,,,72,77
98070,note_on,30,0,1,,,,,,,,,0,,,72,0
98070,note_on,0,0,1,,,,,,,,,0,,,75,76
98100,note_on,0,0,1,,,,,,,,,0,,,63,75
98100,note_on,30,0,1,,,,,,,,,0,,,75,0
98130,note_on,0,0,1,,,,,,,,,0,,,68,75
98130,note_on,30,0,1,,,,,,,,,0,,,63,0
98160,note_on,30,0,1,,,,,,,,,0,,,68,0
98160,note_on,0,0,1,,,,,,,,,0,,,72,74
98190,note_on,30,0,1,,,,,,,,,0,,,72,0
98190,note_on,0,0,1,,,,,,,,,0,,,75,73
98220,note_on,30,0,1,,,,,,,,,0,,,75,0
98220,note_on,0,0,1,,,,,,,,,0,,,63,72
98250,note_on,0,0,1,,,,,,,,,0,,,68,71
98250,note_on,30,0,1,,,,,,,,,0,,,63,0
98280,control_change,360,0,5,,,,,,,,,0,64,0,,
98280,note_on,780,0,4,,,,,,,,,0,,,60,90
98280,note_on,30,0,1,,,,,,,,,0,,,68,0
98280,note_on,0,0,1,,,,,,,,,0,,,68,70
98280,note_on,0,0,1,,,,,,,,,0,,,72,70
98280,note_on,0,0,4,,,,,,,,,0,,,63,90
98310,note_on,30,0,1,,,,,,,,,0,,,72,0
98310,note_on,0,0,1,,,,,,,,,0,,,68,0
98310,note_on,0,0,1,,,,,,,,,0,,,75,69
98340,note_on,0,0,4,,,,,,,,,0,,,58,89
98340,note_on,0,0,4,,,,,,,,,0,,,60,0
98340,note_on,30,0,1,,,,,,,,,0,,,75,0
98340,note_on,0,0,1,,,,,,,,,0,,,67,69
98340,note_on,0,0,1,,,,,,,,,0,,,73,69
98340,note_on,60,0,4,,,,,,,,,0,,,63,0
98340,note_on,0,0,4,,,,,,,,,0,,,63,89
98370,note_on,0,0,1,,,,,,,,,0,,,75,68
98370,note_on,0,0,1,,,,,,,,,0,,,67,0
98370,note_on,30,0,1,,,,,,,,,0,,,73,0
98400,note_on,0,0,1,,,,,,,,,0,,,68,67
98400,note_on,0,0,1,,,,,,,,,0,,,72,67
98400,note_on,0,0,4,,,,,,,,,0,,,63,87
98400,note_on,0,0,4,,,,,,,,,0,,,58,0
98400,note_on,60,0,4,,,,,,,,,0,,,63,0
98400,control_change,120,0,5,,,,,,,,,0,64,127,,
98400,note_on,30,0,1,,,,,,,,,0,,,75,0
98400,note_on,0,0,4,,,,,,,,,0,,,56,87
98430,note_on,30,0,1,,,,,,,,,0,,,72,0
98430,note_on,0,0,1,,,,,,,,,0,,,68,0
98430,note_on,0,0,1,,,,,,,,,0,,,75,66
98460,note_on,60,0,4,,,,,,,,,0,,,56,0
98460,note_on,0,0,4,,,,,,,,,0,,,63,0
98460,note_on,30,0,1,,,,,,,,,0,,,75,0
98460,note_on,0,0,1,,,,,,,,,0,,,63,65
98490,note_on,30,0,1,,,,,,,,,0,,,63,0
98490,note_on,0,0,1,,,,,,,,,0,,,68,64
98520,note_on,30,0,1,,,,,,,,,0,,,68,0
98520,note_on,0,0,1,,,,,,,,,0,,,72,63
98550,note_on,30,0,1,,,,,,,,,0,,,72,0
98550,note_on,0,0,1,,,,,,,,,0,,,75,63
98580,note_on,30,0,1,,,,,,,,,0,,,75,0
98580,note_on,0,0,1,,,,,,,,,0,,,63,62
98610,note_on,0,0,1,,,,,,,,,0,,,68,61
98610,note_on,30,0,1,,,,,,,,,0,,,63,0
98640,note_on,30,0,1,,,,,,,,,0,,,68,0
98640,note_on,0,0,1,,,,,,,,,0,,,72,60
98670,note_on,30,0,1,,,,,,,,,0,,,72,0
98670,note_on,0,0,1,,,,,,,,,0,,,75,59
98700,note_on,30,0,1,,,,,,,,,0,,,75,0
98700,note_on,0,0,1,,,,,,,,,0,,,63,58
98700,note_on,0,0,1,,,,,,,,,0,,,84,78
98730,note_on,30,0,1,,,,,,,,,0,,,63,0
98730,note_on,0,0,1,,,,,,,,,0,,,68,57
98760,note_on,0,0,1,,,,,,,,,0,,,72,57
98760,note_on,30,0,1,,,,,,,,,0,,,68,0
98760,note_on,0,0,1,,,,,,,,,0,,,84,0
98760,control_change,360,0,5,,,,,,,,,0,64,0,,
98760,note_on,0,0,1,,,,,,,,,0,,,82,77
98790,note_on,0,0,1,,,,,,,,,0,,,75,56
98790,note_on,30,0,1,,,,,,,,,0,,,72,0
98820,note_on,30,0,1,,,,,,,,,0,,,75,0
98820,note_on,0,0,1,,,,,,,,,0,,,82,0
98820,note_on,0,0,1,,,,,,,,,0,,,63,55
98820,note_on,0,0,1,,,,,,,,,0,,,80,75
98850,note_on,30,0,1,,,,,,,,,0,,,63,0
98850,note_on,0,0,1,,,,,,,,,0,,,68,54
98880,control_change,120,0,5,,,,,,,,,0,64,127,,
98880,note_on,0,0,1,,,,,,,,,0,,,73,53
98880,note_on,0,0,1,,,,,,,,,0,,,80,0
98880,note_on,30,0,1,,,,,,,,,0,,,68,0
98880,note_on,0,0,1,,,,,,,,,0,,,77,73
98910,note_on,30,0,1,,,,,,,,,0,,,73,0
98910,note_on,0,0,1,,,,,,,,,0,,,68,52
98940,note_on,0,0,1,,,,,,,,,0,,,65,51
98940,note_on,30,0,1,,,,,,,,,0,,,68,0
98970,note_on,30,0,1,,,,,,,,,0,,,65,0
98970,note_on,0,0,1,,,,,,,,,0,,,68,51
99000,note_on,30,0,1,,,,,,,,,0,,,68,0
99000,note_on,0,0,1,,,,,,,,,0,,,77,0
99000,note_on,0,0,1,,,,,,,,,0,,,73,50
99030,note_on,30,0,1,,,,,,,,,0,,,73,0
99030,note_on,0,0,1,,,,,,,,,0,,,77,49
99060,note_on,30,0,1,,,,,,,,,0,,,77,0
99060,note_on,0,0,1,,,,,,,,,0,,,65,48
99090,note_on,30,0,1,,,,,,,,,0,,,65,0
99090,note_on,0,0,1,,,,,,,,,0,,,68,47
99120,note_on,30,0,1,,,,,,,,,0,,,68,0
99120,note_on,0,0,1,,,,,,,,,0,,,73,46
99150,note_on,30,0,1,,,,,,,,,0,,,73,0
99150,note_on,0,0,1,,,,,,,,,0,,,77,45
99180,note_on,720,0,4,,,,,,,,,0,,,61,65
99180,note_on,30,0,1,,,,,,,,,0,,,77,0
99180,note_on,0,0,1,,,,,,,,,0,,,65,45
99210,note_on,30,0,1,,,,,,,,,0,,,65,0
99210,note_on,0,0,1,,,,,,,,,0,,,70,44
99240,note_on,60,0,4,,,,,,,,,0,,,61,0
99240,note_on,0,0,4,,,,,,,,,0,,,60,63
99240,control_change,360,0,5,,,,,,,,,0,64,0,,
99240,note_on,30,0,1,,,,,,,,,0,,,70,0
99240,note_on,0,0,1,,,,,,,,,0,,,73,43
99270,note_on,0,0,1,,,,,,,,,0,,,77,42
99270,note_on,30,0,1,,,,,,,,,0,,,73,0
99300,note_on,30,0,1,,,,,,,,,0,,,77,0
99300,note_on,0,0,1,,,,,,,,,0,,,65,41
99300,note_on,0,0,4,,,,,,,,,0,,,58,61
99300,note_on,60,0,4,,,,,,,,,0,,,60,0
99330,note_on,30,0,1,,,,,,,,,0,,,65,0
99330,note_on,0,0,1,,,,,,,,,0,,,70,40
99360,note_on,30,0,1,,,,,,,,,0,,,70,0
99360,note_on,0,0,1,,,,,,,,,0,,,73,40
99360,note_on,0,0,4,,,,,,,,,0,,,55,60
99360,note_on,60,0,4,,,,,,,,,0,,,58,0
99360,control_change,120,0,5,,,,,,,,,0,64,127,,
99390,note_on,0,0,1,,,,,,,,,0,,,75,40
99390,note_on,30,0,1,,,,,,,,,0,,,73,0
99420,note_on,0,0,1,,,,,,,,,0,,,63,40
99420,note_on,30,0,1,,,,,,,,,0,,,75,0
99450,note_on,30,0,1,,,,,,,,,0,,,63,0
99450,note_on,0,0,1,,,,,,,,,0,,,70,40
99480,note_on,30,0,1,,,,,,,,,0,,,70,0
99480,note_on,0,0,1,,,,,,,,,0,,,73,40
99510,note_on,30,0,1,,,,,,,,,0,,,73,0
99510,note_on,0,0,1,,,,,,,,,0,,,75,40
99540,note_on,30,0,1,,,,,,,,,0,,,75,0
99540,note_on,0,0,1,,,,,,,,,0,,,63,40
99570,note_on,30,0,1,,,,,,,,,0,,,63,0
99570,note_on,0,0,1,,,,,,,,,0,,,70,40
99600,note_on,240,0,4,,,,,,,,,0,,,55,0
99600,note_on,30,0,1,,,,,,,,,0,,,70,0
99600,note_on,0,0,1,,,,,,,,,0,,,72,40
99600,note_on,0,0,4,,,,,,,,,0,,,56,60
99630,note_on,30,0,1,,,,,,,,,0,,,72,0
99630,note_on,0,0,1,,,,,,,,,0,,,75,40
99660,note_on,30,0,1,,,,,,,,,0,,,75,0
99660,note_on,0,0,1,,,,,,,,,0,,,63,40
99660,note_on,0,0,1,,,,,,,,,0,,,84,60
99660,note_on,60,0,4,,,,,,,,,0,,,56,0
99690,note_on,30,0,1,,,,,,,,,0,,,63,0
99690,note_on,0,0,1,,,,,,,,,0,,,68,40
99720,note_on,30,0,1,,,,,,,,,0,,,68,0
99720,note_on,0,0,1,,,,,,,,,0,,,84,0
99720,note_on,0,0,1,,,,,,,,,0,,,72,40
99720,note_on,0,0,1,,,,,,,,,0,,,85,60
99720,control_change,360,0,5,,,,,,,,,0,64,0,,
99750,note_on,30,0,1,,,,,,,,,0,,,72,0
99750,note_on,0,0,1,,,,,,,,,0,,,76,40
99780,note_on,30,0,1,,,,,,,,,0,,,76,0
99780,note_on,0,0,1,,,,,,,,,0,,,63,40
99780,note_on,0,0,1,,,,,,,,,0,,,86,60
99780,note_on,0,0,1,,,,,,,,,0,,,85,0
99810,note_on,30,0,1,,,,,,,,,0,,,63,0
99810,note_on,0,0,1,,,,,,,,,0,,,68,40
99840,note_on,30,0,1,,,,,,,,,0,,,68,0
99840,note_on,0,0,1,,,,,,,,,0,,,86,0
99840,note_on,0,0,1,,,,,,,,,0,,,70,40
99840,note_on,0,0,1,,,,,,,,,0,,,87,60
99840,control_change,120,0,5,,,,,,,,,0,64,127,,
99870,note_on,30,0,1,,,,,,,,,0,,,70,0
99870,note_on,0,0,1,,,,,,,,,0,,,75,40
99900,note_on,30,0,1,,,,,,,,,0,,,75,0
99900,note_on,0,0,1,,,,,,,,,0,,,63,40
99930,note_on,0,0,1,,,,,,,,,0,,,68,40
99930,note_on,30,0,1,,,,,,,,,0,,,63,0
99960,note_on,0,0,1,,,,,,,,,0,,,70,40
99960,note_on,30,0,1,,,,,,,,,0,,,68,0
99990,note_on,0,0,1,,,,,,,,,0,,,75,40
99990,note_on,30,0,1,,,,,,,,,0,,,70,0
100020,note_on,30,0,1,,,,,,,,,0,,,75,0
100020,note_on,0,0,1,,,,,,,,,0,,,63,40
100050,note_on,30,0,1,,,,,,,,,0,,,63,0
100050,note_on,0,0,1,,,,,,,,,0,,,68,40
100080,note_on,0,0,1,,,,,,,,,0,,,70,40
100080,note_on,30,0,1,,,,,,,,,0,,,68,0
100110,note_on,0,0,1,,,,,,,,,0,,,75,40
100110,note_on,30,0,1,,,,,,,,,0,,,70,0
100140,note_on,0,0,1,,,,,,,,,0,,,63,40
100140,note_on,30,0,1,,,,,,,,,0,,,75,0
100170,note_on,30,0,1,,,,,,,,,0,,,63,0
100170,note_on,0,0,1,,,,,,,,,0,,,67,40
100200,control_change,360,0,5,,,,,,,,,0,64,0,,
100200,note_on,0,0,1,,,,,,,,,0,,,70,40
100200,note_on,30,0,1,,,,,,,,,0,,,67,0
100230,note_on,0,0,1,,,,,,,,,0,,,75,40
100230,note_on,30,0,1,,,,,,,,,0,,,70,0
100260,note_on,30,0,1,,,,,,,,,0,,,75,0
100260,note_on,0,0,1,,,,,,,,,0,,,63,40
100290,note_on,30,0,1,,,,,,,,,0,,,63,0
100290,note_on,0,0,1,,,,,,,,,0,,,67,40
100320,note_on,0,0,1,,,,,,,,,0,,,84,60
100320,note_on,0,0,1,,,,,,,,,0,,,72,40
100320,note_on,0,0,1,,,,,,,,,0,,,87,0
100320,note_on,30,0,1,,,,,,,,,0,,,67,0
100320,control_change,120,0,5,,,,,,,,,0,64,127,,
100350,note_on,30,0,1,,,,,,,,,0,,,72,0
100350,note_on,0,0,1,,,,,,,,,0,,,75,40
100380,note_on,30,0,1,,,,,,,,,0,,,75,0
100380,note_on,0,0,1,,,,,,,,,0,,,63,40
100410,note_on,0,0,1,,,,,,,,,0,,,68,40
100410,note_on,30,0,1,,,,,,,,,0,,,63,0
100440,note_on,0,0,1,,,,,,,,,0,,,72,40
100440,note_on,0,0,1,,,,,,,,,0,,,84,0
100440,note_on,30,0,1,,,,,,,,,0,,,68,0
100470,note_on,30,0,1,,,,,,,,,0,,,72,0
100470,note_on,0,0,1,,,,,,,,,0,,,75,40
100500,note_on,30,0,1,,,,,,,,,0,,,75,0
100500,note_on,0,0,1,,,,,,,,,0,,,63,40
100530,note_on,30,0,1,,,,,,,,,0,,,63,0
100530,note_on,0,0,1,,,,,,,,,0,,,68,40
100560,note_on,30,0,1,,,,,,,,,0,,,68,0
100560,note_on,0,0,1,,,,,,,,,0,,,71,40
100590,note_on,0,0,1,,,,,,,,,0,,,75,40
100590,note_on,30,0,1,,,,,,,,,0,,,71,0
100620,note_on,30,0,1,,,,,,,,,0,,,75,0
100620,note_on,0,0,1,,,,,,,,,0,,,63,40
100620,note_on,960,0,4,,,,,,,,,0,,,44,60
100650,note_on,30,0,1,,,,,,,,,0,,,63,0
100650,note_on,0,0,1,,,,,,,,,0,,,68,40
100680,note_on,0,0,4,,,,,,,,,0,,,46,60
100680,note_on,60,0,4,,,,,,,,,0,,,44,0
100680,control_change,360,0,5,,,,,,,,,0,64,0,,
100680,note_on,30,0,1,,,,,,,,,0,,,68,0
100680,note_on,0,0,1,,,,,,,,,0,,,71,40
100710,note_on,30,0,1,,,,,,,,,0,,,71,0
100710,note_on,0,0,1,,,,,,,,,0,,,75,40
100740,note_on,60,0,4,,,,,,,,,0,,,46,0
100740,note_on,30,0,1,,,,,,,,,0,,,75,0
100740,note_on,0,0,1,,,,,,,,,0,,,63,40
100740,note_on,0,0,4,,,,,,,,,0,,,47,60
100770,note_on,30,0,1,,,,,,,,,0,,,63,0
100770,note_on,0,0,1,,,,,,,,,0,,,68,40
100800,note_on,60,0,4,,,,,,,,,0,,,47,0
100800,note_on,0,0,4,,,,,,,,,0,,,39,60
100800,control_change,120,0,5,,,,,,,,,0,64,127,,
100800,note_on,30,0,1,,,,,,,,,0,,,68,0
100800,note_on,0,0,1,,,,,,,,,0,,,70,40
100830,note_on,30,0,1,,,,,,,,,0,,,70,0
100830,note_on,0,0,1,,,,,,,,,0,,,75,40
100860,note_on,30,0,1,,,,,,,,,0,,,75,0
100860,note_on,0,0,1,,,,,,,,,0,,,63,40
100890,note_on,30,0,1,,,,,,,,,0,,,63,0
100890,note_on,0,0,1,,,,,,,,,0,,,68,40
100920,note_on,30,0,1,,,,,,,,,0,,,68,0
100920,note_on,0,0,1,,,,,,,,,0,,,70,40
100950,note_on,30,0,1,,,,,,,,,0,,,70,0
100950,note_on,0,0,1,,,,,,,,,0,,,75,40
100980,note_on,0,0,1,,,,,,,,,0,,,63,40
100980,note_on,30,0,1,,,,,,,,,0,,,75,0
101010,note_on,30,0,1,,,,,,,,,0,,,63,0
101010,note_on,0,0,1,,,,,,,,,0,,,68,40
101040,note_on,30,0,1,,,,,,,,,0,,,68,0
101040,note_on,0,0,1,,,,,,,,,0,,,70,40
101070,note_on,30,0,1,,,,,,,,,0,,,70,0
101070,note_on,0,0,1,,,,,,,,,0,,,75,40
101100,note_on,30,0,1,,,,,,,,,0,,,75,0
101100,note_on,0,0,1,,,,,,,,,0,,,63,40
101130,note_on,30,0,1,,,,,,,,,0,,,63,0
101130,note_on,0,0,1,,,,,,,,,0,,,67,40
101160,control_change,360,0,5,,,,,,,,,0,64,0,,
101160,note_on,0,0,1,,,,,,,,,0,,,70,40
101160,note_on,30,0,1,,,,,,,,,0,,,67,0
101190,note_on,30,0,1,,,,,,,,,0,,,70,0
101190,note_on,0,0,1,,,,,,,,,0,,,75,40
101220,note_on,30,0,1,,,,,,,,,0,,,75,0
101220,note_on,0,0,1,,,,,,,,,0,,,63,40
101250,note_on,30,0,1,,,,,,,,,0,,,63,0
101250,note_on,0,0,1,,,,,,,,,0,,,67,40
101280,note_on,0,0,1,,,,,,,,,0,,,72,40
101280,note_on,480,0,4,,,,,,,,,0,,,39,0
101280,note_on,0,0,4,,,,,,,,,0,,,32,60
101280,control_change,120,0,5,,,,,,,,,0,64,127,,
101280,note_on,30,0,1,,,,,,,,,0,,,67,0
101310,note_on,0,0,1,,,,,,,,,0,,,75,42
101310,note_on,30,0,1,,,,,,,,,0,,,72,0
101310,note_on,30,0,4,,,,,,,,,0,,,32,0
101340,note_on,30,0,1,,,,,,,,,0,,,75,0
101340,note_on,0,0,1,,,,,,,,,0,,,63,45
101370,note_on,30,0,1,,,,,,,,,0,,,63,0
101370,note_on,0,0,1,,,,,,,,,0,,,68,48
101400,note_on,30,0,1,,,,,,,,,0,,,68,0
101400,note_on,0,0,1,,,,,,,,,0,,,72,50
101430,note_on,0,0,1,,,,,,,,,0,,,75,53
101430,note_on,30,0,1,,,,,,,,,0,,,72,0
101460,note_on,0,0,1,,,,,,,,,0,,,63,56
101460,note_on,30,0,1,,,,,,,,,0,,,75,0
101490,note_on,0,0,1,,,,,,,,,0,,,68,59
101490,note_on,30,0,1,,,,,,,,,0,,,63,0
101520,note_on,30,0,1,,,,,,,,,0,,,68,0
101520,note_on,0,0,1,,,,,,,,,0,,,72,61
101550,note_on,0,0,1,,,,,,,,,0,,,75,64
101550,note_on,30,0,1,,,,,,,,,0,,,72,0
101580,note_on,0,0,1,,,,,,,,,0,,,80,87
101580,note_on,30,0,1,,,,,,,,,0,,,75,0
101580,note_on,0,0,1,,,,,,,,,0,,,63,67
101580,note_on,0,0,1,,,,,,,,,0,,,84,87
101610,note_on,30,0,1,,,,,,,,,0,,,63,0
101610,note_on,0,0,1,,,,,,,,,0,,,68,69
101640,note_on,0,0,1,,,,,,,,,0,,,80,0
101640,control_change,360,0,5,,,,,,,,,0,64,0,,
101640,note_on,0,0,1,,,,,,,,,0,,,84,0
101640,note_on,0,0,1,,,,,,,,,0,,,72,72
101640,note_on,0,0,1,,,,,,,,,0,,,84,92
101640,note_on,0,0,1,,,,,,,,,0,,,80,92
101640,note_on,30,0,1,,,,,,,,,0,,,68,0
101670,note_on,0,0,1,,,,,,,,,0,,,75,75
101670,note_on,30,0,1,,,,,,,,,0,,,72,0
101700,note_on,0,0,1,,,,,,,,,0,,,84,0
101700,note_on,0,0,1,,,,,,,,,0,,,80,98
101700,note_on,0,0,1,,,,,,,,,0,,,85,98
101700,note_on,30,0,1,,,,,,,,,0,,,75,0
101700,note_on,0,0,1,,,,,,,,,0,,,80,0
101700,note_on,0,0,1,,,,,,,,,0,,,63,78
101730,note_on,30,0,1,,,,,,,,,0,,,63,0
101730,note_on,0,0,1,,,,,,,,,0,,,68,80
101760,note_on,0,0,1,,,,,,,,,0,,,84,100
101760,control_change,120,0,5,,,,,,,,,0,64,127,,
101760,note_on,0,0,1,,,,,,,,,0,,,82,100
101760,note_on,0,0,1,,,,,,,,,0,,,85,0
101760,note_on,0,0,1,,,,,,,,,0,,,72,80
101760,note_on,30,0,1,,,,,,,,,0,,,68,0
101760,note_on,0,0,1,,,,,,,,,0,,,80,0
101760,note_on,0,0,1,,,,,,,,,0,,,79,100
101790,note_on,30,0,1,,,,,,,,,0,,,72,0
101790,note_on,0,0,1,,,,,,,,,0,,,76,80
101820,note_on,30,0,1,,,,,,,,,0,,,76,0
101820,note_on,0,0,1,,,,,,,,,0,,,64,80
101850,note_on,30,0,1,,,,,,,,,0,,,64,0
101850,note_on,0,0,1,,,,,,,,,0,,,67,80
101880,note_on,30,0,1,,,,,,,,,0,,,67,0
101880,note_on,0,0,1,,,,,,,,,0,,,84,0
101880,note_on,0,0,1,,,,,,,,,0,,,82,0
101880,note_on,0,0,1,,,,,,,,,0,,,72,80
101880,note_on,0,0,1,,,,,,,,,0,,,79,100
101880,note_on,0,0,1,,,,,,,,,0,,,79,0
101910,note_on,30,0,1,,,,,,,,,0,,,72,0
101910,note_on,0,0,1,,,,,,,,,0,,,76,80
101940,note_on,30,0,1,,,,,,,,,0,,,76,0
101940,note_on,0,0,1,,,,,,,,,0,,,79,0
101940,note_on,0,0,1,,,,,,,,,0,,,64,80
101970,note_on,30,0,1,,,,,,,,,0,,,64,0
101970,note_on,0,0,1,,,,,,,,,0,,,67,80
102000,note_on,30,0,1,,,,,,,,,0,,,67,0
102000,note_on,0,0,1,,,,,,,,,0,,,72,80
102030,note_on,30,0,1,,,,,,,,,0,,,72,0
102030,note_on,0,0,1,,,,,,,,,0,,,76,80
102060,note_on,0,0,4,,,,,,,,,0,,,60,100
102060,note_on,750,0,4,,,,,,,,,0,,,48,100
102060,note_on,30,0,1,,,,,,,,,0,,,76,0
102060,note_on,0,0,1,,,,,,,,,0,,,64,80
102090,note_on,0,0,1,,,,,,,,,0,,,67,80
102090,note_on,30,0,1,,,,,,,,,0,,,64,0
102090,note_on,0,0,4,,,,,,,,,0,,,48,0
102090,note_on,30,0,4,,,,,,,,,0,,,60,0
102120,control_change,360,0,5,,,,,,,,,0,64,0,,
102120,note_on,30,0,1,,,,,,,,,0,,,67,0
102120,note_on,0,0,1,,,,,,,,,0,,,72,80
102120,note_on,0,0,4,,,,,,,,,0,,,60,100
102120,note_on,30,0,4,,,,,,,,,0,,,48,100
102150,note_on,30,0,1,,,,,,,,,0,,,72,0
102150,note_on,0,0,1,,,,,,,,,0,,,76,80
102180,note_on,0,0,1,,,,,,,,,0,,,64,80
102180,note_on,0,0,4,,,,,,,,,0,,,43,100
102180,note_on,0,0,4,,,,,,,,,0,,,55,100
102180,note_on,0,0,4,,,,,,,,,0,,,48,0
102180,note_on,60,0,4,,,,,,,,,0,,,60,0
102180,note_on,30,0,1,,,,,,,,,0,,,76,0
102210,note_on,0,0,1,,,,,,,,,0,,,67,80
102210,note_on,30,0,1,,,,,,,,,0,,,64,0
102240,note_on,0,0,4,,,,,,,,,0,,,43,0
102240,note_on,60,0,4,,,,,,,,,0,,,55,0
102240,note_on,0,0,4,,,,,,,,,0,,,56,100
102240,note_on,0,0,1,,,,,,,,,0,,,72,80
102240,note_on,30,0,1,,,,,,,,,0,,,67,0
102240,note_on,0,0,4,,,,,,,,,0,,,44,100
102240,control_change,120,0,5,,,,,,,,,0,64,127,,
102270,note_on,30,0,1,,,,,,,,,0,,,72,0
102270,note_on,0,0,1,,,,,,,,,0,,,77,80
102300,note_on,0,0,1,,,,,,,,,0,,,65,80
102300,note_on,30,0,1,,,,,,,,,0,,,77,0
102330,note_on,30,0,1,,,,,,,,,0,,,65,0
102330,note_on,0,0,1,,,,,,,,,0,,,68,80
102360,note_on,0,0,4,,,,,,,,,0,,,41,100
102360,note_on,0,0,4,,,,,,,,,0,,,44,0
102360,note_on,0,0,4,,,,,,,,,0,,,53,100
102360,note_on,120,0,4,,,,,,,,,0,,,56,0
102360,note_on,30,0,1,,,,,,,,,0,,,68,0
102360,note_on,0,0,1,,,,,,,,,0,,,72,80
102390,note_on,30,0,1,,,,,,,,,0,,,72,0
102390,note_on,0,0,1,,,,,,,,,0,,,77,80
102420,note_on,0,0,4,,,,,,,,,0,,,41,0
102420,note_on,30,0,1,,,,,,,,,0,,,77,0
102420,note_on,60,0,4,,,,,,,,,0,,,53,0
102420,note_on,0,0,1,,,,,,,,,0,,,65,80
102450,note_on,0,0,1,,,,,,,,,0,,,68,80
102450,note_on,30,0,1,,,,,,,,,0,,,65,0
102480,note_on,30,0,1,,,,,,,,,0,,,68,0
102480,note_on,0,0,1,,,,,,,,,0,,,72,80
102510,note_on,30,0,1,,,,,,,,,0,,,72,0
102510,note_on,0,0,1,,,,,,,,,0,,,77,80
102540,note_on,30,0,1,,,,,,,,,0,,,77,0
102540,note_on,0,0,1,,,,,,,,,0,,,65,80
102540,note_on,0,0,1,,,,,,,,,0,,,84,100
102540,note_on,0,0,1,,,,,,,,,0,,,80,100
102570,note_on,30,0,1,,,,,,,,,0,,,65,0
102570,note_on,0,0,1,,,,,,,,,0,,,68,80
102600,control_change,360,0,5,,,,,,,,,0,64,0,,
102600,note_on,0,0,1,,,,,,,,,0,,,80,100
102600,note_on,0,0,1,,,,,,,,,0,,,72,80
102600,note_on,0,0,1,,,,,,,,,0,,,84,100
102600,note_on,0,0,1,,,,,,,,,0,,,80,0
102600,note_on,30,0,1,,,,,,,,,0,,,68,0
102600,note_on,0,0,1,,,,,,,,,0,,,84,0
102630,note_on,0,0,1,,,,,,,,,0,,,77,80
102630,note_on,30,0,1,,,,,,,,,0,,,72,0
102660,note_on,30,0,1,,,,,,,,,0,,,77,0
102660,note_on,0,0,1,,,,,,,,,0,,,80,0
102660,note_on,0,0,1,,,,,,,,,0,,,84,0
102660,note_on,0,0,1,,,,,,,,,0,,,65,80
102660,note_on,0,0,1,,,,,,,,,0,,,85,100
102660,note_on,0,0,1,,,,,,,,,0,,,80,100
102690,note_on,30,0,1,,,,,,,,,0,,,65,0
102690,note_on,0,0,1,,,,,,,,,0,,,68,80
102720,note_on,30,0,1,,,,,,,,,0,,,68,0
102720,note_on,0,0,1,,,,,,,,,0,,,80,0
102720,note_on,0,0,1,,,,,,,,,0,,,85,0
102720,control_change,120,0,5,,,,,,,,,0,64,127,,
102720,note_on,0,0,1,,,,,,,,,0,,,82,100
102720,note_on,0,0,1,,,,,,,,,0,,,84,100
102720,note_on,0,0,1,,,,,,,,,0,,,72,80
102720,note_on,0,0,1,,,,,,,,,0,,,79,100
102750,note_on,30,0,1,,,,,,,,,0,,,72,0
102750,note_on,0,0,1,,,,,,,,,0,,,76,80
102780,note_on,30,0,1,,,,,,,,,0,,,76,0
102780,note_on,0,0,1,,,,,,,,,0,,,64,80
102810,note_on,30,0,1,,,,,,,,,0,,,64,0
102810,note_on,0,0,1,,,,,,,,,0,,,67,80
102840,note_on,30,0,1,,,,,,,,,0,,,67,0
102840,note_on,0,0,1,,,,,,,,,0,,,82,0
102840,note_on,0,0,1,,,,,,,,,0,,,79,0
102840,note_on,0,0,1,,,,,,,,,0,,,72,80
102840,note_on,0,0,1,,,,,,,,,0,,,79,100
102840,note_on,0,0,1,,,,,,,,,0,,,84,0
102870,note_on,30,0,1,,,,,,,,,0,,,72,0
102870,note_on,0,0,1,,,,,,,,,0,,,76,80
102900,note_on,0,0,1,,,,,,,,,0,,,79,0
102900,note_on,0,0,1,,,,,,,,,0,,,64,80
102900,note_on,30,0,1,,,,,,,,,0,,,76,0
102930,note_on,30,0,1,,,,,,,,,0,,,64,0
102930,note_on,0,0,1,,,,,,,,,0,,,67,80
102960,note_on,0,0,1,,,,,,,,,0,,,72,80
102960,note_on,30,0,1,,,,,,,,,0,,,67,0
102990,note_on,0,0,1,,,,,,,,,0,,,76,80
102990,note_on,30,0,1,,,,,,,,,0,,,72,0
103020,note_on,0,0,1,,,,,,,,,0,,,64,80
103020,note_on,30,0,1,,,,,,,,,0,,,76,0
103020,note_on,600,0,4,,,,,,,,,0,,,48,100
103020,note_on,0,0,4,,,,,,,,,0,,,60,100
103050,note_on,30,0,1,,,,,,,,,0,,,64,0
103050,note_on,30,0,4,,,,,,,,,0,,,60,0
103050,note_on,0,0,4,,,,,,,,,0,,,48,0
103050,note_on,0,0,1,,,,,,,,,0,,,67,80
103080,note_on,0,0,4,,,,,,,,,0,,,60,100
103080,control_change,360,0,5,,,,,,,,,0,64,0,,
103080,note_on,0,0,1,,,,,,,,,0,,,72,80
103080,note_on,30,0,1,,,,,,,,,0,,,67,0
103080,note_on,30,0,4,,,,,,,,,0,,,48,100
103110,note_on,0,0,1,,,,,,,,,0,,,76,80
103110,note_on,30,0,1,,,,,,,,,0,,,72,0
103140,note_on,0,0,1,,,,,,,,,0,,,64,80
103140,note_on,30,0,1,,,,,,,,,0,,,76,0
103140,note_on,0,0,4,,,,,,,,,0,,,48,0
103140,note_on,0,0,4,,,,,,,,,0,,,43,100
103140,note_on,0,0,4,,,,,,,,,0,,,55,100
103140,note_on,60,0,4,,,,,,,,,0,,,60,0
103170,note_on,30,0,1,,,,,,,,,0,,,64,0
103170,note_on,0,0,1,,,,,,,,,0,,,67,80
103200,note_on,0,0,4,,,,,,,,,0,,,43,0
103200,control_change,120,0,5,,,,,,,,,0,64,127,,
103200,note_on,0,0,1,,,,,,,,,0,,,72,80
103200,note_on,60,0,4,,,,,,,,,0,,,55,0
103200,note_on,0,0,4,,,,,,,,,0,,,56,100
103200,note_on,30,0,1,,,,,,,,,0,,,67,0
103200,note_on,0,0,4,,,,,,,,,0,,,44,100
103230,note_on,30,0,1,,,,,,,,,0,,,72,0
103230,note_on,0,0,1,,,,,,,,,0,,,77,81
103260,note_on,30,0,1,,,,,,,,,0,,,77,0
103260,note_on,0,0,1,,,,,,,,,0,,,65,82
103290,note_on,30,0,1,,,,,,,,,0,,,65,0
103290,note_on,0,0,1,,,,,,,,,0,,,68,84
103320,note_on,120,0,4,,,,,,,,,0,,,56,0
103320,note_on,0,0,4,,,,,,,,,0,,,44,0
103320,note_on,0,0,4,,,,,,,,,0,,,41,105
103320,note_on,0,0,4,,,,,,,,,0,,,53,105
103320,note_on,0,0,1,,,,,,,,,0,,,72,85
103320,note_on,30,0,1,,,,,,,,,0,,,68,0
103350,note_on,30,0,1,,,,,,,,,0,,,72,0
103350,note_on,0,0,1,,,,,,,,,0,,,77,86
103380,note_on,60,0,4,,,,,,,,,0,,,53,0
103380,note_on,0,0,4,,,,,,,,,0,,,41,0
103380,note_on,30,0,1,,,,,,,,,0,,,77,0
103380,note_on,0,0,1,,,,,,,,,0,,,65,88
103410,note_on,0,0,1,,,,,,,,,0,,,68,89
103410,note_on,30,0,1,,,,,,,,,0,,,65,0
103440,note_on,0,0,1,,,,,,,,,0,,,72,90
103440,note_on,30,0,1,,,,,,,,,0,,,68,0
103470,note_on,30,0,1,,,,,,,,,0,,,72,0
103470,note_on,0,0,1,,,,,,,,,0,,,77,92
103500,note_on,30,0,1,,,,,,,,,0,,,77,0
103500,note_on,0,0,1,,,,,,,,,0,,,65,93
103500,note_on,0,0,1,,,,,,,,,0,,,84,113
103530,note_on,30,0,1,,,,,,,,,0,,,65,0
103530,note_on,0,0,1,,,,,,,,,0,,,68,94
103560,control_change,360,0,5,,,,,,,,,0,64,0,,
103560,note_on,0,0,1,,,,,,,,,0,,,84,116
103560,note_on,0,0,1,,,,,,,,,0,,,72,96
103560,note_on,30,0,1,,,,,,,,,0,,,68,0
103560,note_on,0,0,1,,,,,,,,,0,,,84,0
103590,note_on,30,0,1,,,,,,,,,0,,,72,0
103590,note_on,0,0,1,,,,,,,,,0,,,77,97
103620,note_on,30,0,1,,,,,,,,,0,,,77,0
103620,note_on,0,0,1,,,,,,,,,0,,,84,0
103620,note_on,0,0,1,,,,,,,,,0,,,84,119
103620,note_on,0,0,1,,,,,,,,,0,,,65,99
103650,note_on,30,0,1,,,,,,,,,0,,,65,0
103650,note_on,0,0,1,,,,,,,,,0,,,68,100
103680,note_on,0,0,1,,,,,,,,,0,,,84,0
103680,note_on,0,0,1,,,,,,,,,0,,,73,100
103680,note_on,0,0,1,,,,,,,,,0,,,85,120
103680,note_on,30,0,1,,,,,,,,,0,,,68,0
103680,control_change,120,0,5,,,,,,,,,0,64,127,,
103710,note_on,0,0,1,,,,,,,,,0,,,77,100
103710,note_on,30,0,1,,,,,,,,,0,,,73,0
103740,note_on,0,0,1,,,,,,,,,0,,,65,100
103740,note_on,0,0,1,,,,,,,,,0,,,85,0
103740,note_on,30,0,1,,,,,,,,,0,,,77,0
103770,note_on,0,0,1,,,,,,,,,0,,,68,100
103770,note_on,30,0,1,,,,,,,,,0,,,65,0
103800,note_on,0,0,1,,,,,,,,,0,,,73,100
103800,note_on,30,0,1,,,,,,,,,0,,,68,0
103800,note_on,420,0,4,,,,,,,,,0,,,49,100
103830,note_on,30,0,1,,,,,,,,,0,,,73,0
103830,note_on,0,0,1,,,,,,,,,0,,,77,100
103860,note_on,30,0,1,,,,,,,,,0,,,77,0
103860,note_on,0,0,1,,,,,,,,,0,,,65,100
103890,note_on,30,0,1,,,,,,,,,0,,,65,0
103890,note_on,0,0,1,,,,,,,,,0,,,68,100
103920,note_on,30,0,1,,,,,,,,,0,,,68,0
103920,note_on,0,0,1,,,,,,,,,0,,,73,100
103950,note_on,30,0,1,,,,,,,,,0,,,73,0
103950,note_on,0,0,1,,,,,,,,,0,,,78,100
103980,note_on,30,0,1,,,,,,,,,0,,,78,0
103980,note_on,0,0,1,,,,,,,,,0,,,66,100
104010,note_on,30,0,1,,,,,,,,,0,,,66,0
104010,note_on,0,0,1,,,,,,,,,0,,,69,100
104040,note_on,30,0,1,,,,,,,,,0,,,69,0
104040,note_on,0,0,1,,,,,,,,,0,,,81,100
104040,note_on,0,0,1,,,,,,,,,0,,,73,100
104040,control_change,360,0,5,,,,,,,,,0,64,0,,
104040,note_on,240,0,4,,,,,,,,,0,,,49,0
104070,note_on,0,0,1,,,,,,,,,0,,,78,100
104070,note_on,30,0,1,,,,,,,,,0,,,73,0
104100,note_on,0,0,1,,,,,,,,,0,,,66,100
104100,note_on,30,0,1,,,,,,,,,0,,,78,0
104130,note_on,0,0,1,,,,,,,,,0,,,81,0
104130,note_on,0,0,1,,,,,,,,,0,,,83,120
104130,note_on,0,0,1,,,,,,,,,0,,,69,100
104130,note_on,30,0,1,,,,,,,,,0,,,66,0
104160,control_change,120,0,5,,,,,,,,,0,64,127,,
104160,note_on,30,0,1,,,,,,,,,0,,,83,0
104160,note_on,0,0,1,,,,,,,,,0,,,73,100
104160,note_on,0,0,1,,,,,,,,,0,,,85,120
104160,note_on,0,0,1,,,,,,,,,0,,,69,0
104190,note_on,30,0,1,,,,,,,,,0,,,73,0
104190,note_on,0,0,1,,,,,,,,,0,,,77,100
104220,note_on,30,0,1,,,,,,,,,0,,,77,0
104220,note_on,0,0,1,,,,,,,,,0,,,85,0
104220,note_on,0,0,1,,,,,,,,,0,,,65,100
104250,note_on,30,0,1,,,,,,,,,0,,,65,0
104250,note_on,0,0,1,,,,,,,,,0,,,68,100
104280,note_on,30,0,1,,,,,,,,,0,,,68,0
104280,note_on,0,0,1,,,,,,,,,0,,,73,100
104280,note_on,240,0,4,,,,,,,,,0,,,49,120
104310,note_on,0,0,1,,,,,,,,,0,,,77,100
104310,note_on,30,0,1,,,,,,,,,0,,,73,0
104340,note_on,0,0,1,,,,,,,,,0,,,65,100
104340,note_on,30,0,1,,,,,,,,,0,,,77,0
104370,note_on,30,0,1,,,,,,,,,0,,,65,0
104370,note_on,0,0,1,,,,,,,,,0,,,68,100
104400,note_on,30,0,1,,,,,,,,,0,,,68,0
104400,note_on,0,0,1,,,,,,,,,0,,,73,100
104430,note_on,30,0,1,,,,,,,,,0,,,73,0
104430,note_on,0,0,1,,,,,,,,,0,,,78,100
104460,note_on,30,0,1,,,,,,,,,0,,,78,0
104460,note_on,0,0,1,,,,,,,,,0,,,66,100
104490,note_on,0,0,1,,,,,,,,,0,,,69,100
104490,note_on,30,0,1,,,,,,,,,0,,,66,0
104520,control_change,360,0,5,,,,,,,,,0,64,0,,
104520,note_on,0,0,1,,,,,,,,,0,,,73,100
104520,note_on,0,0,1,,,,,,,,,0,,,81,100
104520,note_on,30,0,1,,,,,,,,,0,,,69,0
104520,note_on,240,0,4,,,,,,,,,0,,,49,0
104550,note_on,0,0,1,,,,,,,,,0,,,78,100
104550,note_on,30,0,1,,,,,,,,,0,,,73,0
104580,note_on,30,0,1,,,,,,,,,0,,,78,0
104580,note_on,0,0,1,,,,,,,,,0,,,66,100
104610,note_on,0,0,1,,,,,,,,,0,,,69,100
104610,note_on,0,0,1,,,,,,,,,0,,,83,120
104610,note_on,0,0,1,,,,,,,,,0,,,81,0
104610,note_on,30,0,1,,,,,,,,,0,,,66,0
104640,note_on,30,0,1,,,,,,,,,0,,,83,0
104640,note_on,0,0,1,,,,,,,,,0,,,69,0
104640,note_on,0,0,1,,,,,,,,,0,,,73,100
104640,note_on,0,0,1,,,,,,,,,0,,,85,120
104640,control_change,120,0,5,,,,,,,,,0,64,127,,
104670,note_on,30,0,1,,,,,,,,,0,,,73,0
104670,note_on,0,0,1,,,,,,,,,0,,,77,98
104700,note_on,0,0,1,,,,,,,,,0,,,65,95
104700,note_on,0,0,1,,,,,,,,,0,,,85,0
104700,note_on,30,0,1,,,,,,,,,0,,,77,0
104730,note_on,0,0,1,,,,,,,,,0,,,68,92
104730,note_on,30,0,1,,,,,,,,,0,,,65,0
104760,note_on,0,0,1,,,,,,,,,0,,,73,90
104760,note_on,30,0,1,,,,,,,,,0,,,68,0
104760,note_on,240,0,4,,,,,,,,,0,,,49,110
104790,note_on,30,0,1,,,,,,,,,0,,,73,0
104790,note_on,0,0,1,,,,,,,,,0,,,77,87
104820,note_on,30,0,1,,,,,,,,,0,,,77,0
104820,note_on,0,0,1,,,,,,,,,0,,,65,84
104850,note_on,0,0,1,,,,,,,,,0,,,68,81
104850,note_on,30,0,1,,,,,,,,,0,,,65,0
104880,note_on,30,0,1,,,,,,,,,0,,,68,0
104880,note_on,0,0,1,,,,,,,,,0,,,73,79
104910,note_on,0,0,1,,,,,,,,,0,,,77,76
104910,note_on,30,0,1,,,,,,,,,0,,,73,0
104940,note_on,30,0,1,,,,,,,,,0,,,77,0
104940,note_on,0,0,1,,,,,,,,,0,,,65,73
104970,note_on,30,0,1,,,,,,,,,0,,,65,0
104970,note_on,0,0,1,,,,,,,,,0,,,68,71
105000,note_on,0,0,4,,,,,,,,,0,,,48,88
105000,control_change,360,0,5,,,,,,,,,0,64,0,,
105000,note_on,30,0,1,,,,,,,,,0,,,68,0
105000,note_on,0,0,1,,,,,,,,,0,,,72,68
105000,note_on,240,0,4,,,,,,,,,0,,,49,0
105030,note_on,0,0,1,,,,,,,,,0,,,77,65
105030,note_on,30,0,1,,,,,,,,,0,,,72,0
105060,note_on,30,0,1,,,,,,,,,0,,,77,0
105060,note_on,0,0,1,,,,,,,,,0,,,65,62
105090,note_on,0,0,1,,,,,,,,,0,,,68,60
105090,note_on,30,0,1,,,,,,,,,0,,,65,0
105120,note_on,0,0,1,,,,,,,,,0,,,74,60
105120,note_on,30,0,1,,,,,,,,,0,,,68,0
105120,note_on,120,0,4,,,,,,,,,0,,,48,0
105120,note_on,0,0,4,,,,,,,,,0,,,47,80
105120,control_change,120,0,5,,,,,,,,,0,64,127,,
105150,note_on,30,0,1,,,,,,,,,0,,,74,0
105150,note_on,0,0,1,,,,,,,,,0,,,77,60
105180,note_on,0,0,1,,,,,,,,,0,,,65,60
105180,note_on,30,0,1,,,,,,,,,0,,,77,0
105180,note_on,60,0,4,,,,,,,,,0,,,47,0
105210,note_on,30,0,1,,,,,,,,,0,,,65,0
105210,note_on,0,0,1,,,,,,,,,0,,,67,60
105240,note_on,0,0,1,,,,,,,,,0,,,86,80
105240,note_on,30,0,1,,,,,,,,,0,,,67,0
105240,note_on,0,0,1,,,,,,,,,0,,,74,60
105270,note_on,30,0,1,,,,,,,,,0,,,74,0
105270,note_on,0,0,1,,,,,,,,,0,,,77,60
105300,note_on,30,0,1,,,,,,,,,0,,,77,0
105300,note_on,0,0,1,,,,,,,,,0,,,65,60
105330,note_on,30,0,1,,,,,,,,,0,,,65,0
105330,note_on,0,0,1,,,,,,,,,0,,,67,60
105360,note_on,30,0,1,,,,,,,,,0,,,67,0
105360,note_on,0,0,1,,,,,,,,,0,,,74,60
105390,note_on,30,0,1,,,,,,,,,0,,,74,0
105390,note_on,0,0,1,,,,,,,,,0,,,77,60
105420,note_on,0,0,1,,,,,,,,,0,,,86,80
105420,note_on,30,0,1,,,,,,,,,0,,,77,0
105420,note_on,0,0,1,,,,,,,,,0,,,86,0
105420,note_on,0,0,1,,,,,,,,,0,,,65,60
105450,note_on,30,0,1,,,,,,,,,0,,,65,0
105450,note_on,0,0,1,,,,,,,,,0,,,67,60
105480,control_change,360,0,5,,,,,,,,,0,64,0,,
105480,note_on,30,0,1,,,,,,,,,0,,,67,0
105480,note_on,0,0,1,,,,,,,,,0,,,86,0
105480,note_on,0,0,1,,,,,,,,,0,,,74,60
105480,note_on,0,0,1,,,,,,,,,0,,,88,80
105510,note_on,30,0,1,,,,,,,,,0,,,74,0
105510,note_on,0,0,1,,,,,,,,,0,,,77,60
105540,note_on,30,0,1,,,,,,,,,0,,,77,0
105540,note_on,0,0,1,,,,,,,,,0,,,88,0
105540,note_on,0,0,1,,,,,,,,,0,,,65,60
105540,note_on,0,0,1,,,,,,,,,0,,,89,80
105570,note_on,0,0,1,,,,,,,,,0,,,67,60
105570,note_on,30,0,1,,,,,,,,,0,,,65,0
105600,note_on,0,0,1,,,,,,,,,0,,,89,0
105600,note_on,0,0,1,,,,,,,,,0,,,72,60
105600,note_on,0,0,1,,,,,,,,,0,,,88,80
105600,control_change,120,0,5,,,,,,,,,0,64,127,,
105600,note_on,30,0,1,,,,,,,,,0,,,67,0
105630,note_on,30,0,1,,,,,,,,,0,,,72,0
105630,note_on,0,0,1,,,,,,,,,0,,,76,59
105660,note_on,30,0,1,,,,,,,,,0,,,76,0
105660,note_on,0,0,1,,,,,,,,,0,,,88,0
105660,note_on,0,0,1,,,,,,,,,0,,,64,58
105690,note_on,30,0,1,,,,,,,,,0,,,64,0
105690,note_on,0,0,1,,,,,,,,,0,,,67,56
105720,note_on,30,0,1,,,,,,,,,0,,,67,0
105720,note_on,0,0,1,,,,,,,,,0,,,72,55
105720,note_on,540,0,4,,,,,,,,,0,,,48,75
105750,note_on,30,0,1,,,,,,,,,0,,,72,0
105750,note_on,0,0,1,,,,,,,,,0,,,76,54
105780,note_on,30,0,1,,,,,,,,,0,,,76,0
105780,note_on,0,0,1,,,,,,,,,0,,,64,52
105810,note_on,0,0,1,,,,,,,,,0,,,67,51
105810,note_on,30,0,1,,,,,,,,,0,,,64,0
105840,note_on,0,0,1,,,,,,,,,0,,,72,50
105840,note_on,30,0,1,,,,,,,,,0,,,67,0
105840,note_on,120,0,4,,,,,,,,,0,,,48,0
105870,note_on,30,0,1,,,,,,,,,0,,,72,0
105870,note_on,0,0,1,,,,,,,,,0,,,76,48
105900,note_on,30,0,1,,,,,,,,,0,,,76,0
105900,note_on,0,0,1,,,,,,,,,0,,,64,47
105900,note_on,0,0,1,,,,,,,,,0,,,86,67
105930,note_on,0,0,1,,,,,,,,,0,,,67,46
105930,note_on,30,0,1,,,,,,,,,0,,,64,0
105960,note_on,0,0,1,,,,,,,,,0,,,84,64
105960,control_change,360,0,5,,,,,,,,,0,64,0,,
105960,note_on,30,0,1,,,,,,,,,0,,,67,0
105960,note_on,0,0,1,,,,,,,,,0,,,86,0
105960,note_on,0,0,1,,,,,,,,,0,,,72,44
105990,note_on,30,0,1,,,,,,,,,0,,,72,0
105990,note_on,0,0,1,,,,,,,,,0,,,76,43
106020,note_on,30,0,1,,,,,,,,,0,,,76,0
106020,note_on,0,0,1,,,,,,,,,0,,,84,0
106020,note_on,0,0,1,,,,,,,,,0,,,64,41
106020,note_on,0,0,1,,,,,,,,,0,,,83,61
106050,note_on,0,0,1,,,,,,,,,0,,,67,40
106050,note_on,30,0,1,,,,,,,,,0,,,64,0
106080,control_change,120,0,5,,,,,,,,,0,64,127,,
106080,note_on,30,0,1,,,,,,,,,0,,,67,0
106080,note_on,0,0,1,,,,,,,,,0,,,83,0
106080,note_on,0,0,1,,,,,,,,,0,,,72,40
106080,note_on,0,0,1,,,,,,,,,0,,,81,60
106110,note_on,0,0,1,,,,,,,,,0,,,77,40
106110,note_on,30,0,1,,,,,,,,,0,,,72,0
106140,note_on,0,0,1,,,,,,,,,0,,,81,0
106140,note_on,0,0,1,,,,,,,,,0,,,65,40
106140,note_on,30,0,1,,,,,,,,,0,,,77,0
106170,note_on,30,0,1,,,,,,,,,0,,,65,0
106170,note_on,0,0,1,,,,,,,,,0,,,69,40
106200,note_on,30,0,1,,,,,,,,,0,,,69,0
106200,note_on,0,0,1,,,,,,,,,0,,,72,40
106200,note_on,360,0,4,,,,,,,,,0,,,53,60
106230,note_on,0,0,1,,,,,,,,,0,,,77,40
106230,note_on,30,0,1,,,,,,,,,0,,,72,0
106260,note_on,0,0,1,,,,,,,,,0,,,65,40
106260,note_on,30,0,1,,,,,,,,,0,,,77,0
106290,note_on,30,0,1,,,,,,,,,0,,,65,0
106290,note_on,0,0,1,,,,,,,,,0,,,69,40
106320,note_on,120,0,4,,,,,,,,,0,,,53,0
106320,note_on,0,0,1,,,,,,,,,0,,,74,40
106320,note_on,30,0,1,,,,,,,,,0,,,69,0
106320,note_on,0,0,4,,,,,,,,,0,,,50,60
106350,note_on,30,0,1,,,,,,,,,0,,,74,0
106350,note_on,0,0,1,,,,,,,,,0,,,77,40
106380,note_on,0,0,1,,,,,,,,,0,,,65,40
106380,note_on,30,0,1,,,,,,,,,0,,,77,0
106380,note_on,60,0,4,,,,,,,,,0,,,50,0
106410,note_on,0,0,1,,,,,,,,,0,,,69,40
106410,note_on,30,0,1,,,,,,,,,0,,,65,0
106440,control_change,360,0,5,,,,,,,,,0,64,0,,
106440,note_on,0,0,1,,,,,,,,,0,,,81,60
106440,note_on,0,0,1,,,,,,,,,0,,,74,40
106440,note_on,30,0,1,,,,,,,,,0,,,69,0
106470,note_on,30,0,1,,,,,,,,,0,,,74,0
106470,note_on,0,0,1,,,,,,,,,0,,,77,40
106500,note_on,30,0,1,,,,,,,,,0,,,77,0
106500,note_on,0,0,1,,,,,,,,,0,,,65,40
106530,note_on,0,0,1,,,,,,,,,0,,,69,40
106530,note_on,30,0,1,,,,,,,,,0,,,65,0
106560,control_change,120,0,5,,,,,,,,,0,64,127,,
106560,note_on,30,0,1,,,,,,,,,0,,,69,0
106560,note_on,0,0,1,,,,,,,,,0,,,81,0
106560,note_on,0,0,1,,,,,,,,,0,,,74,40
106560,note_on,0,0,1,,,,,,,,,0,,,83,60
106590,note_on,30,0,1,,,,,,,,,0,,,74,0
106590,note_on,0,0,1,,,,,,,,,0,,,77,40
106620,note_on,30,0,1,,,,,,,,,0,,,77,0
106620,note_on,0,0,1,,,,,,,,,0,,,83,0
106620,note_on,0,0,1,,,,,,,,,0,,,65,40
106650,note_on,30,0,1,,,,,,,,,0,,,65,0
106650,note_on,0,0,1,,,,,,,,,0,,,71,40
106680,note_on,300,0,4,,,,,,,,,0,,,55,60
106680,note_on,0,0,1,,,,,,,,,0,,,74,40
106680,note_on,30,0,1,,,,,,,,,0,,,71,0
106710,note_on,0,0,1,,,,,,,,,0,,,77,40
106710,note_on,30,0,1,,,,,,,,,0,,,74,0
106740,note_on,0,0,1,,,,,,,,,0,,,65,40
106740,note_on,30,0,1,,,,,,,,,0,,,77,0
106770,note_on,0,0,1,,,,,,,,,0,,,71,40
106770,note_on,30,0,1,,,,,,,,,0,,,65,0
106800,note_on,0,0,1,,,,,,,,,0,,,74,40
106800,note_on,30,0,1,,,,,,,,,0,,,71,0
106800,note_on,0,0,4,,,,,,,,,0,,,56,60
106800,note_on,120,0,4,,,,,,,,,0,,,55,0
106830,note_on,0,0,1,,,,,,,,,0,,,77,40
106830,note_on,30,0,1,,,,,,,,,0,,,74,0
106860,note_on,0,0,1,,,,,,,,,0,,,65,40
106860,note_on,30,0,1,,,,,,,,,0,,,77,0
106890,note_on,0,0,1,,,,,,,,,0,,,71,40
106890,note_on,30,0,1,,,,,,,,,0,,,65,0
106920,control_change,360,0,5,,,,,,,,,0,64,0,,
106920,note_on,0,0,1,,,,,,,,,0,,,74,40
106920,note_on,30,0,1,,,,,,,,,0,,,71,0
106920,note_on,120,0,4,,,,,,,,,0,,,56,0
106920,note_on,0,0,4,,,,,,,,,0,,,55,60
106950,note_on,0,0,1,,,,,,,,,0,,,77,40
106950,note_on,30,0,1,,,,,,,,,0,,,74,0
106980,note_on,0,0,1,,,,,,,,,0,,,65,40
106980,note_on,30,0,1,,,,,,,,,0,,,77,0
107010,note_on,0,0,1,,,,,,,,,0,,,71,40
107010,note_on,30,0,1,,,,,,,,,0,,,65,0
107040,note_on,0,0,1,,,,,,,,,0,,,84,60
107040,note_on,30,0,1,,,,,,,,,0,,,71,0
107040,note_on,120,0,4,,,,,,,,,0,,,55,0
107040,control_change,120,0,5,,,,,,,,,0,64,127,,
107040,note_on,0,0,1,,,,,,,,,0,,,72,40
107070,note_on,0,0,1,,,,,,,,,0,,,76,40
107070,note_on,30,0,1,,,,,,,,,0,,,72,0
107100,note_on,0,0,1,,,,,,,,,0,,,64,40
107100,note_on,30,0,1,,,,,,,,,0,,,76,0
107130,note_on,0,0,1,,,,,,,,,0,,,67,40
107130,note_on,30,0,1,,,,,,,,,0,,,64,0
107160,note_on,0,0,1,,,,,,,,,0,,,84,0
107160,note_on,30,0,1,,,,,,,,,0,,,67,0
107160,note_on,0,0,1,,,,,,,,,0,,,72,40
107190,note_on,30,0,1,,,,,,,,,0,,,72,0
107190,note_on,0,0,1,,,,,,,,,0,,,76,40
107220,note_on,30,0,1,,,,,,,,,0,,,76,0
107220,note_on,0,0,1,,,,,,,,,0,,,64,40
107250,note_on,0,0,1,,,,,,,,,0,,,67,40
107250,note_on,30,0,1,,,,,,,,,0,,,64,0
107280,note_on,240,0,4,,,,,,,,,0,,,48,60
107280,note_on,0,0,1,,,,,,,,,0,,,72,40
107280,note_on,30,0,1,,,,,,,,,0,,,67,0
107310,note_on,0,0,1,,,,,,,,,0,,,76,40
107310,note_on,30,0,1,,,,,,,,,0,,,72,0
107340,note_on,0,0,1,,,,,,,,,0,,,64,40
107340,note_on,30,0,1,,,,,,,,,0,,,76,0
107370,note_on,0,0,1,,,,,,,,,0,,,67,40
107370,note_on,30,0,1,,,,,,,,,0,,,64,0
107400,note_on,0,0,1,,,,,,,,,0,,,72,40
107400,note_on,30,0,1,,,,,,,,,0,,,67,0
107400,control_change,360,0,5,,,,,,,,,0,64,0,,
107430,note_on,0,0,1,,,,,,,,,0,,,76,40
107430,note_on,30,0,1,,,,,,,,,0,,,72,0
107460,note_on,0,0,1,,,,,,,,,0,,,64,40
107460,note_on,30,0,1,,,,,,,,,0,,,76,0
107490,note_on,0,0,1,,,,,,,,,0,,,67,40
107490,note_on,30,0,1,,,,,,,,,0,,,64,0
107520,control_change,120,0,5,,,,,,,,,0,64,127,,
107520,note_on,30,0,1,,,,,,,,,0,,,67,0
107520,note_on,0,0,1,,,,,,,,,0,,,71,40
107520,note_on,0,0,4,,,,,,,,,0,,,50,60
107520,note_on,240,0,4,,,,,,,,,0,,,48,0
107550,note_on,0,0,1,,,,,,,,,0,,,77,40
107550,note_on,30,0,1,,,,,,,,,0,,,71,0
107580,note_on,30,0,1,,,,,,,,,0,,,77,0
107580,note_on,0,0,1,,,,,,,,,0,,,65,40
107610,note_on,30,0,1,,,,,,,,,0,,,65,0
107610,note_on,0,0,1,,,,,,,,,0,,,67,40
107640,note_on,30,0,1,,,,,,,,,0,,,67,0
107640,note_on,0,0,1,,,,,,,,,0,,,71,40
107670,note_on,30,0,1,,,,,,,,,0,,,71,0
107670,note_on,0,0,1,,,,,,,,,0,,,77,40
107700,note_on,30,0,1,,,,,,,,,0,,,77,0
107700,note_on,0,0,1,,,,,,,,,0,,,65,40
107730,note_on,30,0,1,,,,,,,,,0,,,65,0
107730,note_on,0,0,1,,,,,,,,,0,,,67,40
107760,note_on,30,0,1,,,,,,,,,0,,,67,0
107760,note_on,0,0,1,,,,,,,,,0,,,70,40
107760,note_on,0,0,4,,,,,,,,,0,,,52,60
107760,note_on,240,0,4,,,,,,,,,0,,,50,0
107790,note_on,30,0,1,,,,,,,,,0,,,70,0
107790,note_on,0,0,1,,,,,,,,,0,,,72,40
107820,note_on,0,0,1,,,,,,,,,0,,,60,40
107820,note_on,30,0,1,,,,,,,,,0,,,72,0
107850,note_on,30,0,1,,,,,,,,,0,,,60,0
107850,note_on,0,0,1,,,,,,,,,0,,,67,40
107880,control_change,360,0,5,,,,,,,,,0,64,0,,
107880,note_on,30,0,1,,,,,,,,,0,,,67,0
107880,note_on,0,0,1,,,,,,,,,0,,,70,40
107910,note_on,30,0,1,,,,,,,,,0,,,70,0
107910,note_on,0,0,1,,,,,,,,,0,,,72,40
107940,note_on,30,0,1,,,,,,,,,0,,,72,0
107940,note_on,0,0,1,,,,,,,,,0,,,60,40
107970,note_on,0,0,1,,,,,,,,,0,,,67,40
107970,note_on,30,0,1,,,,,,,,,0,,,60,0
108000,control_change,120,0,5,,,,,,,,,0,64,127,,
108000,key_signature,13440,1,0,,,,,F,,,,,,,,
108000,note_on,0,0,4,,,,,,,,,0,,,53,60
108000,note_on,30,0,1,,,,,,,,,0,,,67,0
108000,note_on,0,0,1,,,,,,,,,0,,,69,40
108000,note_on,240,0,4,,,,,,,,,0,,,52,0
108030,note_on,30,0,1,,,,,,,,,0,,,69,0
108030,note_on,0,0,1,,,,,,,,,0,,,72,40
108060,note_on,30,0,1,,,,,,,,,0,,,72,0
108060,note_on,0,0,1,,,,,,,,,0,,,60,40
108090,note_on,30,0,1,,,,,,,,,0,,,60,0
108090,note_on,0,0,1,,,,,,,,,0,,,65,40
108120,note_on,30,0,1,,,,,,,,,0,,,65,0
108120,note_on,0,0,1,,,,,,,,,0,,,69,40
108120,note_on,120,0,4,,,,,,,,,0,,,53,0
108150,note_on,0,0,1,,,,,,,,,0,,,72,40
108150,note_on,30,0,1,,,,,,,,,0,,,69,0
108180,note_on,30,0,1,,,,,,,,,0,,,72,0
108180,note_on,0,0,1,,,,,,,,,0,,,60,40
108210,note_on,30,0,1,,,,,,,,,0,,,60,0
108210,note_on,0,0,1,,,,,,,,,0,,,65,40
108240,note_on,30,0,1,,,,,,,,,0,,,65,0
108240,note_on,0,0,1,,,,,,,,,0,,,69,40
108270,note_on,30,0,1,,,,,,,,,0,,,69,0
108270,note_on,0,0,1,,,,,,,,,0,,,72,40
108300,note_on,30,0,1,,,,,,,,,0,,,72,0
108300,note_on,0,0,1,,,,,,,,,0,,,60,40
108330,note_on,30,0,1,,,,,,,,,0,,,60,0
108330,note_on,0,0,1,,,,,,,,,0,,,65,40
108360,control_change,360,0,5,,,,,,,,,0,64,0,,
108360,note_on,30,0,1,,,,,,,,,0,,,65,0
108360,note_on,0,0,1,,,,,,,,,0,,,69,40
108360,note_on,0,0,1,,,,,,,,,0,,,77,60
108390,note_on,30,0,1,,,,,,,,,0,,,69,0
108390,note_on,0,0,1,,,,,,,,,0,,,72,40
108420,note_on,30,0,1,,,,,,,,,0,,,72,0
108420,note_on,0,0,1,,,,,,,,,0,,,77,0
108420,note_on,0,0,1,,,,,,,,,0,,,67,40
108420,note_on,0,0,1,,,,,,,,,0,,,79,60
108420,note_on,0,0,1,,,,,,,,,0,,,76,60
108450,note_on,30,0,1,,,,,,,,,0,,,67,0
108450,note_on,0,0,1,,,,,,,,,0,,,72,40
108480,control_change,120,0,5,,,,,,,,,0,64,127,,
108480,note_on,0,0,1,,,,,,,,,0,,,77,60
108480,note_on,0,0,1,,,,,,,,,0,,,81,60
108480,note_on,0,0,1,,,,,,,,,0,,,69,40
108480,note_on,30,0,1,,,,,,,,,0,,,72,0
108480,note_on,0,0,1,,,,,,,,,0,,,76,0
108480,note_on,0,0,1,,,,,,,,,0,,,79,0
108510,note_on,0,0,1,,,,,,,,,0,,,72,40
108510,note_on,30,0,1,,,,,,,,,0,,,69,0
108540,note_on,30,0,1,,,,,,,,,0,,,72,0
108540,note_on,0,0,1,,,,,,,,,0,,,60,40
108570,note_on,30,0,1,,,,,,,,,0,,,60,0
108570,note_on,0,0,1,,,,,,,,,0,,,65,40
108600,note_on,30,0,1,,,,,,,,,0,,,65,0
108600,note_on,0,0,1,,,,,,,,,0,,,77,0
108600,note_on,0,0,1,,,,,,,,,0,,,81,0
108600,note_on,0,0,1,,,,,,,,,0,,,69,40
108630,note_on,30,0,1,,,,,,,,,0,,,69,0
108630,note_on,0,0,1,,,,,,,,,0,,,72,40
108660,note_on,30,0,1,,,,,,,,,0,,,72,0
108660,note_on,0,0,1,,,,,,,,,0,,,60,40
108690,note_on,30,0,1,,,,,,,,,0,,,60,0
108690,note_on,0,0,1,,,,,,,,,0,,,65,40
108720,note_on,30,0,1,,,,,,,,,0,,,65,0
108720,note_on,0,0,1,,,,,,,,,0,,,69,40
108750,note_on,0,0,1,,,,,,,,,0,,,72,40
108750,note_on,30,0,1,,,,,,,,,0,,,69,0
108780,note_on,30,0,1,,,,,,,,,0,,,72,0
108780,note_on,0,0,1,,,,,,,,,0,,,65,40
108780,note_on,0,0,1,,,,,,,,,0,,,69,40
108780,note_on,660,0,4,,,,,,,,,0,,,60,60
108780,note_on,0,0,4,,,,,,,,,0,,,57,60
108810,note_on,30,0,1,,,,,,,,,0,,,69,0
108810,note_on,0,0,1,,,,,,,,,0,,,65,0
108810,note_on,0,0,1,,,,,,,,,0,,,72,40
108840,note_on,30,0,1,,,,,,,,,0,,,72,0
108840,note_on,0,0,1,,,,,,,,,0,,,64,40
108840,note_on,0,0,1,,,,,,,,,0,,,70,40
108840,note_on,60,0,4,,,,,,,,,0,,,57,0
108840,note_on,0,0,4,,,,,,,,,0,,,60,0
108840,control_change,360,0,5,,,,,,,,,0,64,0,,
108840,note_on,0,0,4,,,,,,,,,0,,,55,60
108840,note_on,0,0,4,,,,,,,,,0,,,60,60
108870,note_on,0,0,1,,,,,,,,,0,,,72,40
108870,note_on,0,0,1,,,,,,,,,0,,,64,0
108870,note_on,30,0,1,,,,,,,,,0,,,70,0
108900,note_on,30,0,1,,,,,,,,,0,,,72,0
108900,note_on,60,0,4,,,,,,,,,0,,,60,0
108900,note_on,0,0,4,,,,,,,,,0,,,55,0
108900,note_on,0,0,4,,,,,,,,,0,,,53,60
108900,note_on,0,0,4,,,,,,,,,0,,,60,60
108900,note_on,0,0,1,,,,,,,,,0,,,65,40
108900,note_on,0,0,1,,,,,,,,,0,,,69,40
108930,note_on,0,0,1,,,,,,,,,0,,,65,0
108930,note_on,30,0,1,,,,,,,,,0,,,69,0
108930,note_on,0,0,1,,,,,,,,,0,,,72,40
108960,control_change,120,0,5,,,,,,,,,0,64,127,,
108960,note_on,0,0,4,,,,,,,,,0,,,60,60
108960,note_on,0,0,1,,,,,,,,,0,,,64,40
108960,note_on,0,0,4,,,,,,,,,0,,,48,60
108960,note_on,30,0,1,,,,,,,,,0,,,72,0
108960,note_on,0,0,4,,,,,,,,,0,,,53,0
108960,note_on,0,0,1,,,,,,,,,0,,,67,40
108960,note_on,60,0,4,,,,,,,,,0,,,60,0
108990,note_on,30,0,1,,,,,,,,,0,,,64,0
108990,note_on,0,0,1,,,,,,,,,0,,,67,0
108990,note_on,0,0,1,,,,,,,,,0,,,72,40
109020,note_on,0,0,4,,,,,,,,,0,,,48,0
109020,note_on,60,0,4,,,,,,,,,0,,,60,0
109020,note_on,30,0,1,,,,,,,,,0,,,72,0
109020,note_on,0,0,1,,,,,,,,,0,,,60,40
109050,note_on,30,0,1,,,,,,,,,0,,,60,0
109050,note_on,0,0,1,,,,,,,,,0,,,64,40
109080,note_on,0,0,1,,,,,,,,,0,,,67,40
109080,note_on,30,0,1,,,,,,,,,0,,,64,0
109110,note_on,0,0,1,,,,,,,,,0,,,72,40
109110,note_on,30,0,1,,,,,,,,,0,,,67,0
109140,note_on,30,0,1,,,,,,,,,0,,,72,0
109140,note_on,0,0,1,,,,,,,,,0,,,60,40
109170,note_on,30,0,1,,,,,,,,,0,,,60,0
109170,note_on,0,0,1,,,,,,,,,0,,,64,40
109200,note_on,30,0,1,,,,,,,,,0,,,64,0
109200,note_on,0,0,1,,,,,,,,,0,,,67,40
109230,note_on,30,0,1,,,,,,,,,0,,,67,0
109230,note_on,0,0,1,,,,,,,,,0,,,72,40
109260,note_on,30,0,1,,,,,,,,,0,,,72,0
109260,note_on,0,0,1,,,,,,,,,0,,,60,40
109290,note_on,30,0,1,,,,,,,,,0,,,60,0
109290,note_on,0,0,1,,,,,,,,,0,,,64,40
109320,note_on,0,0,1,,,,,,,,,0,,,82,60
109320,note_on,0,0,1,,,,,,,,,0,,,79,60
109320,note_on,0,0,1,,,,,,,,,0,,,67,40
109320,note_on,30,0,1,,,,,,,,,0,,,64,0
109320,control_change,360,0,5,,,,,,,,,0,64,0,,
109350,note_on,0,0,1,,,,,,,,,0,,,72,40
109350,note_on,30,0,1,,,,,,,,,0,,,67,0
109380,note_on,0,0,1,,,,,,,,,0,,,86,60
109380,note_on,0,0,1,,,,,,,,,0,,,79,0
109380,note_on,0,0,1,,,,,,,,,0,,,82,60
109380,note_on,0,0,1,,,,,,,,,0,,,70,40
109380,note_on,0,0,1,,,,,,,,,0,,,82,0
109380,note_on,30,0,1,,,,,,,,,0,,,72,0
109410,note_on,0,0,1,,,,,,,,,0,,,72,40
109410,note_on,30,0,1,,,,,,,,,0,,,70,0
109440,note_on,30,0,1,,,,,,,,,0,,,72,0
109440,note_on,0,0,1,,,,,,,,,0,,,81,60
109440,note_on,0,0,1,,,,,,,,,0,,,82,0
109440,note_on,0,0,1,,,,,,,,,0,,,69,40
109440,note_on,0,0,1,,,,,,,,,0,,,86,0
109440,control_change,120,0,5,,,,,,,,,0,64,127,,
109440,note_on,0,0,1,,,,,,,,,0,,,84,60
109470,note_on,30,0,1,,,,,,,,,0,,,69,0
109470,note_on,0,0,1,,,,,,,,,0,,,72,40
109500,note_on,0,0,1,,,,,,,,,0,,,60,40
109500,note_on,30,0,1,,,,,,,,,0,,,72,0
109530,note_on,0,0,1,,,,,,,,,0,,,65,40
109530,note_on,30,0,1,,,,,,,,,0,,,60,0
109560,note_on,0,0,1,,,,,,,,,0,,,69,40
109560,note_on,0,0,1,,,,,,,,,0,,,84,0
109560,note_on,0,0,1,,,,,,,,,0,,,81,0
109560,note_on,30,0,1,,,,,,,,,0,,,65,0
109590,note_on,0,0,1,,,,,,,,,0,,,72,40
109590,note_on,30,0,1,,,,,,,,,0,,,69,0
109620,note_on,0,0,1,,,,,,,,,0,,,60,40
109620,note_on,30,0,1,,,,,,,,,0,,,72,0
109650,note_on,30,0,1,,,,,,,,,0,,,60,0
109650,note_on,0,0,1,,,,,,,,,0,,,65,40
109680,note_on,0,0,1,,,,,,,,,0,,,69,40
109680,note_on,30,0,1,,,,,,,,,0,,,65,0
109710,note_on,30,0,1,,,,,,,,,0,,,69,0
109710,note_on,0,0,1,,,,,,,,,0,,,72,40
109740,note_on,30,0,1,,,,,,,,,0,,,72,0
109740,note_on,0,0,1,,,,,,,,,0,,,60,40
109770,note_on,30,0,1,,,,,,,,,0,,,60,0
109770,note_on,0,0,1,,,,,,,,,0,,,65,40
109800,note_on,30,0,1,,,,,,,,,0,,,65,0
109800,note_on,0,0,1,,,,,,,,,0,,,69,40
109800,control_change,360,0,5,,,,,,,,,0,64,0,,
109800,note_on,780,0,4,,,,,,,,,0,,,57,60
109800,note_on,0,0,4,,,,,,,,,0,,,60,60
109830,note_on,0,0,1,,,,,,,,,0,,,72,40
109830,note_on,30,0,1,,,,,,,,,0,,,69,0
109860,note_on,60,0,4,,,,,,,,,0,,,60,0
109860,note_on,0,0,4,,,,,,,,,0,,,57,0
109860,note_on,0,0,4,,,,,,,,,0,,,60,60
109860,note_on,0,0,4,,,,,,,,,0,,,55,60
109860,note_on,30,0,1,,,,,,,,,0,,,72,0
109860,note_on,0,0,1,,,,,,,,,0,,,64,40
109860,note_on,0,0,1,,,,,,,,,0,,,70,40
109890,note_on,0,0,1,,,,,,,,,0,,,72,40
109890,note_on,30,0,1,,,,,,,,,0,,,70,0
109890,note_on,0,0,1,,,,,,,,,0,,,64,0
109920,note_on,0,0,1,,,,,,,,,0,,,65,40
109920,note_on,30,0,1,,,,,,,,,0,,,72,0
109920,note_on,0,0,1,,,,,,,,,0,,,69,40
109920,note_on,0,0,4,,,,,,,,,0,,,60,0
109920,note_on,60,0,4,,,,,,,,,0,,,55,0
109920,control_change,120,0,5,,,,,,,,,0,64,127,,
109920,note_on,0,0,4,,,,,,,,,0,,,60,60
109920,note_on,0,0,4,,,,,,,,,0,,,53,60
109950,note_on,30,0,1,,,,,,,,,0,,,69,0
109950,note_on,0,0,1,,,,,,,,,0,,,65,0
109950,note_on,0,0,1,,,,,,,,,0,,,72,41
109980,note_on,0,0,4,,,,,,,,,0,,,53,0
109980,note_on,30,0,1,,,,,,,,,0,,,72,0
109980,note_on,0,0,1,,,,,,,,,0,,,60,42
109980,note_on,60,0,4,,,,,,,,,0,,,60,0
110010,note_on,0,0,1,,,,,,,,,0,,,65,43
110010,note_on,30,0,1,,,,,,,,,0,,,60,0
110040,note_on,30,0,1,,,,,,,,,0,,,65,0
110040,note_on,0,0,1,,,,,,,,,0,,,69,45
110070,note_on,30,0,1,,,,,,,,,0,,,69,0
110070,note_on,0,0,1,,,,,,,,,0,,,72,46
110100,note_on,0,0,1,,,,,,,,,0,,,60,47
110100,note_on,30,0,1,,,,,,,,,0,,,72,0
110130,note_on,30,0,1,,,,,,,,,0,,,60,0
110130,note_on,0,0,1,,,,,,,,,0,,,65,49
110160,note_on,30,0,1,,,,,,,,,0,,,65,0
110160,note_on,0,0,1,,,,,,,,,0,,,69,50
110190,note_on,30,0,1,,,,,,,,,0,,,69,0
110190,note_on,0,0,1,,,,,,,,,0,,,72,51
110220,note_on,30,0,1,,,,,,,,,0,,,72,0
110220,note_on,0,0,1,,,,,,,,,0,,,60,53
110250,note_on,30,0,1,,,,,,,,,0,,,60,0
110250,note_on,0,0,1,,,,,,,,,0,,,65,54
110280,note_on,0,0,1,,,,,,,,,0,,,81,75
110280,note_on,30,0,1,,,,,,,,,0,,,65,0
110280,note_on,0,0,1,,,,,,,,,0,,,69,55
110280,control_change,360,0,5,,,,,,,,,0,64,0,,
110280,note_on,0,0,1,,,,,,,,,0,,,77,75
110310,note_on,0,0,1,,,,,,,,,0,,,72,56
110310,note_on,30,0,1,,,,,,,,,0,,,69,0
110340,note_on,30,0,1,,,,,,,,,0,,,72,0
110340,note_on,0,0,1,,,,,,,,,0,,,77,0
110340,note_on,0,0,1,,,,,,,,,0,,,81,0
110340,note_on,0,0,1,,,,,,,,,0,,,70,58
110340,note_on,0,0,1,,,,,,,,,0,,,82,78
110340,note_on,0,0,1,,,,,,,,,0,,,79,78
110370,note_on,30,0,1,,,,,,,,,0,,,70,0
110370,note_on,0,0,1,,,,,,,,,0,,,72,59
110400,control_change,120,0,5,,,,,,,,,0,64,127,,
110400,note_on,0,0,1,,,,,,,,,0,,,84,80
110400,note_on,0,0,1,,,,,,,,,0,,,81,80
110400,note_on,0,0,1,,,,,,,,,0,,,82,0
110400,note_on,0,0,1,,,,,,,,,0,,,79,0
110400,note_on,0,0,1,,,,,,,,,0,,,69,60
110400,note_on,30,0,1,,,,,,,,,0,,,72,0
110430,note_on,30,0,1,,,,,,,,,0,,,69,0
110430,note_on,0,0,1,,,,,,,,,0,,,72,62
110460,note_on,30,0,1,,,,,,,,,0,,,72,0
110460,note_on,0,0,1,,,,,,,,,0,,,60,63
110490,note_on,30,0,1,,,,,,,,,0,,,60,0
110490,note_on,0,0,1,,,,,,,,,0,,,65,64
110520,note_on,0,0,1,,,,,,,,,0,,,69,66
110520,note_on,30,0,1,,,,,,,,,0,,,65,0
110520,note_on,0,0,1,,,,,,,,,0,,,81,0
110520,note_on,0,0,1,,,,,,,,,0,,,84,0
110550,note_on,30,0,1,,,,,,,,,0,,,69,0
110550,note_on,0,0,1,,,,,,,,,0,,,72,67
110580,note_on,0,0,1,,,,,,,,,0,,,60,68
110580,note_on,30,0,1,,,,,,,,,0,,,72,0
110610,note_on,0,0,1,,,,,,,,,0,,,65,69
110610,note_on,30,0,1,,,,,,,,,0,,,60,0
110640,note_on,30,0,1,,,,,,,,,0,,,65,0
110640,note_on,0,0,1,,,,,,,,,0,,,69,71
110670,note_on,0,0,1,,,,,,,,,0,,,72,72
110670,note_on,30,0,1,,,,,,,,,0,,,69,0
110700,note_on,0,0,4,,,,,,,,,0,,,53,93
110700,note_on,0,0,4,,,,,,,,,0,,,57,93
110700,note_on,720,0,4,,,,,,,,,0,,,60,93
110700,note_on,30,0,1,,,,,,,,,0,,,72,0
110700,note_on,0,0,1,,,,,,,,,0,,,69,73
110730,note_on,30,0,1,,,,,,,,,0,,,69,0
110730,note_on,0,0,1,,,,,,,,,0,,,72,75
110760,note_on,0,0,4,,,,,,,,,0,,,62,96
110760,control_change,360,0,5,,,,,,,,,0,64,0,,
110760,note_on,0,0,4,,,,,,,,,0,,,58,96
110760,note_on,30,0,1,,,,,,,,,0,,,72,0
110760,note_on,60,0,4,,,,,,,,,0,,,57,0
110760,note_on,0,0,1,,,,,,,,,0,,,70,76
110760,note_on,0,0,4,,,,,,,,,0,,,60,0
110790,note_on,30,0,1,,,,,,,,,0,,,70,0
110790,note_on,0,0,1,,,,,,,,,0,,,74,77
110820,note_on,30,0,1,,,,,,,,,0,,,74,0
110820,note_on,60,0,4,,,,,,,,,0,,,58,0
110820,note_on,0,0,4,,,,,,,,,0,,,62,0
110820,note_on,0,0,4,,,,,,,,,0,,,55,99
110820,note_on,0,0,4,,,,,,,,,0,,,64,99
110820,note_on,0,0,1,,,,,,,,,0,,,67,79
110850,note_on,30,0,1,,,,,,,,,0,,,67,0
110850,note_on,0,0,1,,,,,,,,,0,,,76,80
110880,note_on,0,0,4,,,,,,,,,0,,,57,100
110880,note_on,60,0,4,,,,,,,,,0,,,64,0
110880,note_on,0,0,4,,,,,,,,,0,,,65,100
110880,note_on,0,0,4,,,,,,,,,0,,,55,0
110880,control_change,120,0,5,,,,,,,,,0,64,127,,
110880,note_on,0,0,1,,,,,,,,,0,,,69,80
110880,note_on,30,0,1,,,,,,,,,0,,,76,0
110910,note_on,30,0,1,,,,,,,,,0,,,69,0
110910,note_on,0,0,1,,,,,,,,,0,,,77,80
110940,note_on,30,0,1,,,,,,,,,0,,,77,0
110940,note_on,0,0,1,,,,,,,,,0,,,65,79
110940,note_on,0,0,4,,,,,,,,,0,,,65,0
110940,note_on,0,0,4,,,,,,,,,0,,,53,0
110940,note_on,60,0,4,,,,,,,,,0,,,57,0
110970,note_on,0,0,1,,,,,,,,,0,,,69,78
110970,note_on,30,0,1,,,,,,,,,0,,,65,0
111000,note_on,0,0,1,,,,,,,,,0,,,72,77
111000,note_on,30,0,1,,,,,,,,,0,,,69,0
111030,note_on,30,0,1,,,,,,,,,0,,,72,0
111030,note_on,0,0,1,,,,,,,,,0,,,77,76
111060,note_on,0,0,1,,,,,,,,,0,,,65,75
111060,note_on,30,0,1,,,,,,,,,0,,,77,0
111090,note_on,30,0,1,,,,,,,,,0,,,65,0
111090,note_on,0,0,1,,,,,,,,,0,,,69,75
111120,note_on,0,0,1,,,,,,,,,0,,,72,74
111120,note_on,30,0,1,,,,,,,,,0,,,69,0
111150,note_on,0,0,1,,,,,,,,,0,,,77,73
111150,note_on,30,0,1,,,,,,,,,0,,,72,0
111180,note_on,0,0,1,,,,,,,,,0,,,81,92
111180,note_on,0,0,1,,,,,,,,,0,,,89,92
111180,note_on,0,0,1,,,,,,,,,0,,,69,72
111180,note_on,30,0,1,,,,,,,,,0,,,77,0
111210,note_on,0,0,1,,,,,,,,,0,,,77,71
111210,note_on,30,0,1,,,,,,,,,0,,,69,0
111240,control_change,360,0,5,,,,,,,,,0,64,0,,
111240,note_on,0,0,1,,,,,,,,,0,,,88,90
111240,note_on,0,0,1,,,,,,,,,0,,,84,90
111240,note_on,0,0,1,,,,,,,,,0,,,72,70
111240,note_on,0,0,1,,,,,,,,,0,,,81,0
111240,note_on,30,0,1,,,,,,,,,0,,,77,0
111240,note_on,0,0,1,,,,,,,,,0,,,89,0
111270,note_on,30,0,1,,,,,,,,,0,,,72,0
111270,note_on,0,0,1,,,,,,,,,0,,,76,69
111300,note_on,0,0,1,,,,,,,,,0,,,70,69
111300,note_on,30,0,1,,,,,,,,,0,,,76,0
111300,note_on,0,0,1,,,,,,,,,0,,,88,0
111300,note_on,0,0,1,,,,,,,,,0,,,84,0
111300,note_on,0,0,1,,,,,,,,,0,,,82,89
111300,note_on,0,0,1,,,,,,,,,0,,,86,89
111330,note_on,30,0,1,,,,,,,,,0,,,70,0
111330,note_on,0,0,1,,,,,,,,,0,,,74,68
111360,note_on,30,0,1,,,,,,,,,0,,,74,0
111360,note_on,0,0,1,,,,,,,,,0,,,86,0
111360,control_change,120,0,5,,,,,,,,,0,64,127,,
111360,note_on,0,0,1,,,,,,,,,0,,,82,0
111360,note_on,0,0,1,,,,,,,,,0,,,69,67
111360,note_on,0,0,1,,,,,,,,,0,,,84,87
111360,note_on,0,0,1,,,,,,,,,0,,,81,87
111390,note_on,0,0,1,,,,,,,,,0,,,72,66
111390,note_on,30,0,1,,,,,,,,,0,,,69,0
111420,note_on,30,0,1,,,,,,,,,0,,,72,0
111420,note_on,0,0,1,,,,,,,,,0,,,60,65
111450,note_on,30,0,1,,,,,,,,,0,,,60,0
111450,note_on,0,0,1,,,,,,,,,0,,,65,64
111480,note_on,30,0,1,,,,,,,,,0,,,65,0
111480,note_on,0,0,1,,,,,,,,,0,,,81,0
111480,note_on,0,0,1,,,,,,,,,0,,,84,0
111480,note_on,0,0,1,,,,,,,,,0,,,69,63
111510,note_on,30,0,1,,,,,,,,,0,,,69,0
111510,note_on,0,0,1,,,,,,,,,0,,,72,63
111540,note_on,30,0,1,,,,,,,,,0,,,72,0
111540,note_on,0,0,1,,,,,,,,,0,,,60,62
111570,note_on,30,0,1,,,,,,,,,0,,,60,0
111570,note_on,0,0,1,,,,,,,,,0,,,65,61
111600,note_on,30,0,1,,,,,,,,,0,,,65,0
111600,note_on,0,0,1,,,,,,,,,0,,,69,60
111630,note_on,0,0,1,,,,,,,,,0,,,72,59
111630,note_on,30,0,1,,,,,,,,,0,,,69,0
111660,note_on,30,0,1,,,,,,,,,0,,,72,0
111660,note_on,0,0,1,,,,,,,,,0,,,65,58
111660,note_on,0,0,1,,,,,,,,,0,,,69,58
111660,note_on,720,0,4,,,,,,,,,0,,,60,78
111660,note_on,0,0,4,,,,,,,,,0,,,57,78
111690,note_on,0,0,1,,,,,,,,,0,,,65,0
111690,note_on,30,0,1,,,,,,,,,0,,,69,0
111690,note_on,0,0,1,,,,,,,,,0,,,72,57
111720,control_change,360,0,5,,,,,,,,,0,64,0,,
111720,note_on,0,0,4,,,,,,,,,0,,,60,0
111720,note_on,0,0,1,,,,,,,,,0,,,64,57
111720,note_on,0,0,1,,,,,,,,,0,,,70,57
111720,note_on,60,0,4,,,,,,,,,0,,,57,0
111720,note_on,0,0,4,,,,,,,,,0,,,55,77
111720,note_on,30,0,1,,,,,,,,,0,,,72,0
111720,note_on,0,0,4,,,,,,,,,0,,,58,77
111750,note_on,0,0,1,,,,,,,,,0,,,64,0
111750,note_on,0,0,1,,,,,,,,,0,,,72,56
111750,note_on,30,0,1,,,,,,,,,0,,,70,0
111780,note_on,0,0,1,,,,,,,,,0,,,64,55
111780,note_on,30,0,1,,,,,,,,,0,,,72,0
111780,note_on,0,0,1,,,,,,,,,0,,,67,55
111780,note_on,0,0,4,,,,,,,,,0,,,55,75
111780,note_on,0,0,4,,,,,,,,,0,,,48,75
111780,note_on,0,0,4,,,,,,,,,0,,,55,0
111780,note_on,60,0,4,,,,,,,,,0,,,58,0
111810,note_on,30,0,1,,,,,,,,,0,,,67,0
111810,note_on,0,0,1,,,,,,,,,0,,,64,0
111810,note_on,0,0,1,,,,,,,,,0,,,72,54
111840,control_change,120,0,5,,,,,,,,,0,64,127,,
111840,note_on,0,0,4,,,,,,,,,0,,,57,73
111840,note_on,0,0,4,,,,,,,,,0,,,53,73
111840,note_on,0,0,4,,,,,,,,,0,,,48,0
111840,note_on,60,0,4,,,,,,,,,0,,,55,0
111840,note_on,30,0,1,,,,,,,,,0,,,72,0
111840,note_on,0,0,1,,,,,,,,,0,,,65,53
111840,note_on,0,0,1,,,,,,,,,0,,,69,53
111870,note_on,30,0,1,,,,,,,,,0,,,69,0
111870,note_on,0,0,1,,,,,,,,,0,,,65,0
111870,note_on,0,0,1,,,,,,,,,0,,,72,52
111900,note_on,60,0,4,,,,,,,,,0,,,57,0
111900,note_on,0,0,4,,,,,,,,,0,,,53,0
111900,note_on,0,0,1,,,,,,,,,0,,,60,51
111900,note_on,30,0,1,,,,,,,,,0,,,72,0
111930,note_on,30,0,1,,,,,,,,,0,,,60,0
111930,note_on,0,0,1,,,,,,,,,0,,,65,51
111960,note_on,30,0,1,,,,,,,,,0,,,65,0
111960,note_on,0,0,1,,,,,,,,,0,,,69,50
111990,note_on,30,0,1,,,,,,,,,0,,,69,0
111990,note_on,0,0,1,,,,,,,,,0,,,72,49
112020,note_on,0,0,1,,,,,,,,,0,,,60,48
112020,note_on,30,0,1,,,,,,,,,0,,,72,0
112050,note_on,30,0,1,,,,,,,,,0,,,60,0
112050,note_on,0,0,1,,,,,,,,,0,,,65,47
112080,note_on,30,0,1,,,,,,,,,0,,,65,0
112080,note_on,0,0,1,,,,,,,,,0,,,69,46
112110,note_on,30,0,1,,,,,,,,,0,,,69,0
112110,note_on,0,0,1,,,,,,,,,0,,,72,45
112140,note_on,30,0,1,,,,,,,,,0,,,72,0
112140,note_on,0,0,1,,,,,,,,,0,,,60,45
112170,note_on,30,0,1,,,,,,,,,0,,,60,0
112170,note_on,0,0,1,,,,,,,,,0,,,65,44
112200,control_change,360,0,5,,,,,,,,,0,64,0,,
112200,note_on,30,0,1,,,,,,,,,0,,,65,0
112200,note_on,0,0,1,,,,,,,,,0,,,69,43
112200,note_on,0,0,1,,,,,,,,,0,,,81,63
112200,note_on,0,0,1,,,,,,,,,0,,,77,63
112230,note_on,30,0,1,,,,,,,,,0,,,69,0
112230,note_on,0,0,1,,,,,,,,,0,,,72,42
112260,note_on,0,0,1,,,,,,,,,0,,,79,61
112260,note_on,0,0,1,,,,,,,,,0,,,82,61
112260,note_on,0,0,1,,,,,,,,,0,,,70,41
112260,note_on,30,0,1,,,,,,,,,0,,,72,0
112260,note_on,0,0,1,,,,,,,,,0,,,77,0
112260,note_on,0,0,1,,,,,,,,,0,,,81,0
112290,note_on,30,0,1,,,,,,,,,0,,,70,0
112290,note_on,0,0,1,,,,,,,,,0,,,72,40
112320,control_change,120,0,5,,,,,,,,,0,64,127,,
112320,note_on,0,0,1,,,,,,,,,0,,,84,60
112320,note_on,0,0,1,,,,,,,,,0,,,69,40
112320,note_on,0,0,1,,,,,,,,,0,,,81,60
112320,note_on,0,0,1,,,,,,,,,0,,,79,0
112320,note_on,30,0,1,,,,,,,,,0,,,72,0
112320,note_on,0,0,1,,,,,,,,,0,,,82,0
112350,note_on,30,0,1,,,,,,,,,0,,,69,0
112350,note_on,0,0,1,,,,,,,,,0,,,72,40
112380,note_on,0,0,1,,,,,,,,,0,,,60,40
112380,note_on,30,0,1,,,,,,,,,0,,,72,0
112410,note_on,30,0,1,,,,,,,,,0,,,60,0
112410,note_on,0,0,1,,,,,,,,,0,,,65,40
112440,note_on,0,0,1,,,,,,,,,0,,,69,40
112440,note_on,0,0,1,,,,,,,,,0,,,81,0
112440,note_on,30,0,1,,,,,,,,,0,,,65,0
112440,note_on,0,0,1,,,,,,,,,0,,,84,0
112470,note_on,0,0,1,,,,,,,,,0,,,72,40
112470,note_on,30,0,1,,,,,,,,,0,,,69,0
112500,note_on,30,0,1,,,,,,,,,0,,,72,0
112500,note_on,0,0,1,,,,,,,,,0,,,60,40
112530,note_on,30,0,1,,,,,,,,,0,,,60,0
112530,note_on,0,0,1,,,,,,,,,0,,,65,40
112560,note_on,30,0,1,,,,,,,,,0,,,65,0
112560,note_on,0,0,1,,,,,,,,,0,,,69,40
112590,note_on,30,0,1,,,,,,,,,0,,,69,0
112590,note_on,0,0,1,,,,,,,,,0,,,72,40
112620,note_on,0,0,4,,,,,,,,,0,,,53,60
112620,note_on,30,0,1,,,,,,,,,0,,,72,0
112620,note_on,0,0,1,,,,,,,,,0,,,69,40
112620,note_on,720,0,4,,,,,,,,,0,,,60,60
112620,note_on,0,0,4,,,,,,,,,0,,,57,60
112650,note_on,30,0,1,,,,,,,,,0,,,69,0
112650,note_on,0,0,1,,,,,,,,,0,,,72,40
112680,note_on,0,0,4,,,,,,,,,0,,,60,0
112680,control_change,360,0,5,,,,,,,,,0,64,0,,
112680,note_on,0,0,4,,,,,,,,,0,,,58,60
112680,note_on,0,0,4,,,,,,,,,0,,,62,60
112680,note_on,60,0,4,,,,,,,,,0,,,57,0
112680,note_on,30,0,1,,,,,,,,,0,,,72,0
112680,note_on,0,0,1,,,,,,,,,0,,,70,40
112710,note_on,30,0,1,,,,,,,,,0,,,70,0
112710,note_on,0,0,1,,,,,,,,,0,,,74,40
112740,note_on,0,0,4,,,,,,,,,0,,,64,60
112740,note_on,0,0,4,,,,,,,,,0,,,55,60
112740,note_on,60,0,4,,,,,,,,,0,,,58,0
112740,note_on,0,0,4,,,,,,,,,0,,,62,0
112740,note_on,0,0,1,,,,,,,,,0,,,67,40
112740,note_on,30,0,1,,,,,,,,,0,,,74,0
112770,note_on,0,0,1,,,,,,,,,0,,,76,40
112770,note_on,30,0,1,,,,,,,,,0,,,67,0
112800,control_change,120,0,5,,,,,,,,,0,64,127,,
112800,note_on,0,0,4,,,,,,,,,0,,,57,60
112800,note_on,30,0,1,,,,,,,,,0,,,76,0
112800,note_on,0,0,4,,,,,,,,,0,,,55,0
112800,note_on,60,0,4,,,,,,,,,0,,,64,0
112800,note_on,0,0,1,,,,,,,,,0,,,69,40
112800,note_on,0,0,4,,,,,,,,,0,,,65,60
112830,note_on,0,0,1,,,,,,,,,0,,,77,40
112830,note_on,30,0,1,,,,,,,,,0,,,69,0
112860,note_on,0,0,4,,,,,,,,,0,,,53,0
112860,note_on,0,0,4,,,,,,,,,0,,,65,0
112860,note_on,60,0,4,,,,,,,,,0,,,57,0
112860,note_on,0,0,1,,,,,,,,,0,,,65,40
112860,note_on,30,0,1,,,,,,,,,0,,,77,0
112890,note_on,0,0,1,,,,,,,,,0,,,69,40
112890,note_on,30,0,1,,,,,,,,,0,,,65,0
112920,note_on,30,0,1,,,,,,,,,0,,,69,0
112920,note_on,0,0,1,,,,,,,,,0,,,72,40
112950,note_on,30,0,1,,,,,,,,,0,,,72,0
112950,note_on,0,0,1,,,,,,,,,0,,,77,40
112980,note_on,30,0,1,,,,,,,,,0,,,77,0
112980,note_on,0,0,1,,,,,,,,,0,,,65,40
113010,note_on,0,0,1,,,,,,,,,0,,,69,40
113010,note_on,30,0,1,,,,,,,,,0,,,65,0
113040,note_on,0,0,1,,,,,,,,,0,,,72,40
113040,note_on,30,0,1,,,,,,,,,0,,,69,0
113070,note_on,30,0,1,,,,,,,,,0,,,72,0
113070,note_on,0,0,1,,,,,,,,,0,,,77,40
113100,note_on,0,0,1,,,,,,,,,0,,,89,60
113100,note_on,0,0,1,,,,,,,,,0,,,81,60
113100,note_on,0,0,1,,,,,,,,,0,,,69,40
113100,note_on,30,0,1,,,,,,,,,0,,,77,0
113130,note_on,0,0,1,,,,,,,,,0,,,77,40
113130,note_on,30,0,1,,,,,,,,,0,,,69,0
113160,note_on,30,0,1,,,,,,,,,0,,,77,0
113160,note_on,0,0,1,,,,,,,,,0,,,81,0
113160,note_on,0,0,1,,,,,,,,,0,,,89,0
113160,note_on,0,0,1,,,,,,,,,0,,,72,40
113160,note_on,0,0,1,,,,,,,,,0,,,84,60
113160,note_on,0,0,1,,,,,,,,,0,,,88,60
113160,control_change,360,0,5,,,,,,,,,0,64,0,,
113190,note_on,30,0,1,,,,,,,,,0,,,72,0
113190,note_on,0,0,1,,,,,,,,,0,,,76,40
113220,note_on,0,0,1,,,,,,,,,0,,,82,60
113220,note_on,0,0,1,,,,,,,,,0,,,86,60
113220,note_on,0,0,1,,,,,,,,,0,,,70,40
113220,note_on,0,0,1,,,,,,,,,0,,,84,0
113220,note_on,30,0,1,,,,,,,,,0,,,76,0
113220,note_on,0,0,1,,,,,,,,,0,,,88,0
113250,note_on,30,0,1,,,,,,,,,0,,,70,0
113250,note_on,0,0,1,,,,,,,,,0,,,74,40
113280,note_on,0,0,1,,,,,,,,,0,,,82,0
113280,note_on,0,0,1,,,,,,,,,0,,,69,40
113280,control_change,120,0,5,,,,,,,,,0,64,127,,
113280,note_on,30,0,1,,,,,,,,,0,,,74,0
113280,note_on,0,0,1,,,,,,,,,0,,,86,0
113280,note_on,0,0,1,,,,,,,,,0,,,84,60
113280,note_on,0,0,1,,,,,,,,,0,,,81,60
113310,note_on,0,0,1,,,,,,,,,0,,,72,40
113310,note_on,30,0,1,,,,,,,,,0,,,69,0
113340,note_on,30,0,1,,,,,,,,,0,,,72,0
113340,note_on,0,0,1,,,,,,,,,0,,,60,40
113370,note_on,30,0,1,,,,,,,,,0,,,60,0
113370,note_on,0,0,1,,,,,,,,,0,,,65,40
113400,note_on,30,0,1,,,,,,,,,0,,,65,0
113400,note_on,0,0,1,,,,,,,,,0,,,81,0
113400,note_on,0,0,1,,,,,,,,,0,,,84,0
113400,note_on,0,0,1,,,,,,,,,0,,,69,40
113430,note_on,0,0,1,,,,,,,,,0,,,72,40
113430,note_on,30,0,1,,,,,,,,,0,,,69,0
113460,note_on,0,0,1,,,,,,,,,0,,,60,40
113460,note_on,30,0,1,,,,,,,,,0,,,72,0
113490,note_on,0,0,1,,,,,,,,,0,,,65,40
113490,note_on,30,0,1,,,,,,,,,0,,,60,0
113520,note_on,30,0,1,,,,,,,,,0,,,65,0
113520,note_on,0,0,1,,,,,,,,,0,,,69,40
113550,note_on,30,0,1,,,,,,,,,0,,,69,0
113550,note_on,0,0,1,,,,,,,,,0,,,72,40
113580,note_on,0,0,4,,,,,,,,,0,,,57,60
113580,note_on,30,0,1,,,,,,,,,0,,,72,0
113580,note_on,0,0,1,,,,,,,,,0,,,65,40
113580,note_on,0,0,1,,,,,,,,,0,,,69,40
113580,note_on,720,0,4,,,,,,,,,0,,,60,60
113610,note_on,30,0,1,,,,,,,,,0,,,69,0
113610,note_on,0,0,1,,,,,,,,,0,,,65,0
113610,note_on,0,0,1,,,,,,,,,0,,,72,40
113640,note_on,0,0,4,,,,,,,,,0,,,58,60
113640,note_on,0,0,1,,,,,,,,,0,,,64,40
113640,note_on,0,0,1,,,,,,,,,0,,,70,40
113640,control_change,360,0,5,,,,,,,,,0,64,0,,
113640,note_on,0,0,4,,,,,,,,,0,,,55,60
113640,note_on,30,0,1,,,,,,,,,0,,,72,0
113640,note_on,0,0,4,,,,,,,,,0,,,60,0
113640,note_on,60,0,4,,,,,,,,,0,,,57,0
113670,note_on,30,0,1,,,,,,,,,0,,,70,0
113670,note_on,0,0,1,,,,,,,,,0,,,64,0
113670,note_on,0,0,1,,,,,,,,,0,,,72,40
113700,note_on,0,0,4,,,,,,,,,0,,,55,60
113700,note_on,60,0,4,,,,,,,,,0,,,58,0
113700,note_on,0,0,4,,,,,,,,,0,,,55,0
113700,note_on,0,0,4,,,,,,,,,0,,,48,60
113700,note_on,0,0,1,,,,,,,,,0,,,67,40
113700,note_on,0,0,1,,,,,,,,,0,,,64,40
113700,note_on,30,0,1,,,,,,,,,0,,,72,0
113730,note_on,30,0,1,,,,,,,,,0,,,67,0
113730,note_on,0,0,1,,,,,,,,,0,,,72,40
113730,note_on,0,0,1,,,,,,,,,0,,,64,0
113760,note_on,0,0,1,,,,,,,,,0,,,69,40
113760,note_on,0,0,4,,,,,,,,,0,,,53,60
113760,note_on,0,0,4,,,,,,,,,0,,,48,0
113760,note_on,0,0,4,,,,,,,,,0,,,57,60
113760,note_on,0,0,1,,,,,,,,,0,,,65,40
113760,note_on,30,0,1,,,,,,,,,0,,,72,0
113760,note_on,60,0,4,,,,,,,,,0,,,55,0
113760,control_change,120,0,5,,,,,,,,,0,64,127,,
113790,note_on,0,0,1,,,,,,,,,0,,,72,40
113790,note_on,0,0,1,,,,,,,,,0,,,65,0
113790,note_on,30,0,1,,,,,,,,,0,,,69,0
113820,note_on,30,0,1,,,,,,,,,0,,,72,0
113820,note_on,0,0,1,,,,,,,,,0,,,60,40
113850,note_on,0,0,1,,,,,,,,,0,,,65,40
113850,note_on,30,0,1,,,,,,,,,0,,,60,0
113880,note_on,30,0,1,,,,,,,,,0,,,65,0
113880,note_on,120,0,4,,,,,,,,,0,,,53,0
113880,note_on,0,0,4,,,,,,,,,0,,,57,0
113880,note_on,0,0,1,,,,,,,,,0,,,69,40
113910,note_on,30,0,1,,,,,,,,,0,,,69,0
113910,note_on,0,0,1,,,,,,,,,0,,,72,40
113940,note_on,30,0,1,,,,,,,,,0,,,72,0
113940,note_on,0,0,1,,,,,,,,,0,,,60,40
113970,note_on,30,0,1,,,,,,,,,0,,,60,0
113970,note_on,0,0,1,,,,,,,,,0,,,65,40
114000,note_on,0,0,1,,,,,,,,,0,,,69,40
114000,note_on,30,0,1,,,,,,,,,0,,,65,0
114030,note_on,0,0,1,,,,,,,,,0,,,72,40
114030,note_on,30,0,1,,,,,,,,,0,,,69,0
114060,note_on,0,0,1,,,,,,,,,0,,,69,40
114060,note_on,0,0,4,,,,,,,,,0,,,57,60
114060,note_on,180,0,4,,,,,,,,,0,,,60,60
114060,note_on,0,0,1,,,,,,,,,0,,,65,40
114060,note_on,30,0,1,,,,,,,,,0,,,72,0
114090,note_on,30,0,1,,,,,,,,,0,,,69,0
114090,note_on,0,0,1,,,,,,,,,0,,,65,0
114090,note_on,0,0,1,,,,,,,,,0,,,72,40
114120,note_on,30,0,1,,,,,,,,,0,,,72,0
114120,note_on,0,0,1,,,,,,,,,0,,,64,40
114120,note_on,0,0,1,,,,,,,,,0,,,70,40
114120,control_change,360,0,5,,,,,,,,,0,64,0,,
114120,note_on,60,0,4,,,,,,,,,0,,,57,0
114120,note_on,0,0,4,,,,,,,,,0,,,60,0
114120,note_on,0,0,4,,,,,,,,,0,,,55,60
114120,note_on,0,0,4,,,,,,,,,0,,,58,60
114150,note_on,0,0,1,,,,,,,,,0,,,72,40
114150,note_on,0,0,1,,,,,,,,,0,,,64,0
114150,note_on,30,0,1,,,,,,,,,0,,,70,0
114180,note_on,0,0,1,,,,,,,,,0,,,67,40
114180,note_on,60,0,4,,,,,,,,,0,,,58,0
114180,note_on,0,0,4,,,,,,,,,0,,,55,0
114180,note_on,0,0,4,,,,,,,,,0,,,48,60
114180,note_on,0,0,4,,,,,,,,,0,,,55,60
114180,note_on,0,0,1,,,,,,,,,0,,,64,40
114180,note_on,30,0,1,,,,,,,,,0,,,72,0
114210,note_on,30,0,1,,,,,,,,,0,,,67,0
114210,note_on,0,0,1,,,,,,,,,0,,,64,0
114210,note_on,0,0,1,,,,,,,,,0,,,72,40
114240,note_on,30,0,1,,,,,,,,,0,,,72,0
114240,note_on,0,0,1,,,,,,,,,0,,,65,40
114240,note_on,0,0,1,,,,,,,,,0,,,69,40
114240,control_change,120,0,5,,,,,,,,,0,64,127,,
114240,note_on,60,0,4,,,,,,,,,0,,,55,0
114240,note_on,0,0,4,,,,,,,,,0,,,48,0
114240,note_on,0,0,4,,,,,,,,,0,,,57,60
114240,note_on,0,0,4,,,,,,,,,0,,,53,60
114270,note_on,30,0,1,,,,,,,,,0,,,69,0
114270,note_on,0,0,1,,,,,,,,,0,,,72,40
114270,note_on,0,0,1,,,,,,,,,0,,,65,0
114300,note_on,0,0,1,,,,,,,,,0,,,60,40
114300,note_on,30,0,1,,,,,,,,,0,,,72,0
114330,note_on,0,0,1,,,,,,,,,0,,,65,40
114330,note_on,30,0,1,,,,,,,,,0,,,60,0
114360,note_on,0,0,1,,,,,,,,,0,,,69,40
114360,note_on,30,0,1,,,,,,,,,0,,,65,0
114360,note_on,0,0,4,,,,,,,,,0,,,57,0
114360,note_on,120,0,4,,,,,,,,,0,,,53,0
114390,note_on,0,0,1,,,,,,,,,0,,,72,40
114390,note_on,30,0,1,,,,,,,,,0,,,69,0
114420,note_on,30,0,1,,,,,,,,,0,,,72,0
114420,note_on,0,0,1,,,,,,,,,0,,,60,40
114450,note_on,30,0,1,,,,,,,,,0,,,60,0
114450,note_on,0,0,1,,,,,,,,,0,,,65,40
114480,note_on,30,0,1,,,,,,,,,0,,,65,0
114480,note_on,0,0,1,,,,,,,,,0,,,69,40
114510,note_on,30,0,1,,,,,,,,,0,,,69,0
114510,note_on,0,0,1,,,,,,,,,0,,,72,40
114540,note_on,0,0,1,,,,,,,,,0,,,69,40
114540,note_on,0,0,4,,,,,,,,,0,,,57,60
114540,note_on,0,0,1,,,,,,,,,0,,,65,40
114540,note_on,30,0,1,,,,,,,,,0,,,72,0
114540,note_on,180,0,4,,,,,,,,,0,,,60,60
114570,note_on,0,0,1,,,,,,,,,0,,,72,40
114570,note_on,30,0,1,,,,,,,,,0,,,69,0
114570,note_on,0,0,1,,,,,,,,,0,,,65,0
114600,note_on,60,0,4,,,,,,,,,0,,,57,0
114600,note_on,0,0,1,,,,,,,,,0,,,70,40
114600,note_on,30,0,1,,,,,,,,,0,,,72,0
114600,note_on,0,0,4,,,,,,,,,0,,,60,0
114600,control_change,360,0,5,,,,,,,,,0,64,0,,
114600,note_on,0,0,4,,,,,,,,,0,,,58,60
114600,note_on,0,0,1,,,,,,,,,0,,,64,40
114600,note_on,0,0,4,,,,,,,,,0,,,55,60
114630,note_on,0,0,1,,,,,,,,,0,,,64,0
114630,note_on,0,0,1,,,,,,,,,0,,,72,40
114630,note_on,30,0,1,,,,,,,,,0,,,70,0
114660,note_on,0,0,1,,,,,,,,,0,,,64,40
114660,note_on,30,0,1,,,,,,,,,0,,,72,0
114660,note_on,0,0,4,,,,,,,,,0,,,55,60
114660,note_on,60,0,4,,,,,,,,,0,,,58,0
114660,note_on,0,0,4,,,,,,,,,0,,,55,0
114660,note_on,0,0,4,,,,,,,,,0,,,48,60
114660,note_on,0,0,1,,,,,,,,,0,,,67,40
114690,note_on,30,0,1,,,,,,,,,0,,,67,0
114690,note_on,0,0,1,,,,,,,,,0,,,64,0
114690,note_on,0,0,1,,,,,,,,,0,,,72,40
114720,note_on,0,0,4,,,,,,,,,0,,,41,60
114720,note_on,0,0,4,,,,,,,,,0,,,45,60
114720,note_on,60,0,4,,,,,,,,,0,,,55,0
114720,note_on,0,0,4,,,,,,,,,0,,,48,0
114720,note_on,0,0,4,,,,,,,,,0,,,53,60
114720,control_change,120,0,5,,,,,,,,,0,64,127,,
114720,note_on,0,0,1,,,,,,,,,0,,,65,40
114720,note_on,30,0,1,,,,,,,,,0,,,72,0
114750,note_on,30,0,1,,,,,,,,,0,,,65,0
114750,note_on,0,0,1,,,,,,,,,0,,,69,40
114780,note_on,30,0,1,,,,,,,,,0,,,69,0
114780,note_on,0,0,1,,,,,,,,,0,,,57,40
114810,note_on,30,0,1,,,,,,,,,0,,,57,0
114810,note_on,0,0,1,,,,,,,,,0,,,60,40
114840,note_on,0,0,4,,,,,,,,,0,,,45,0
114840,note_on,120,0,4,,,,,,,,,0,,,53,0
114840,note_on,0,0,1,,,,,,,,,0,,,65,40
114840,note_on,30,0,1,,,,,,,,,0,,,60,0
114840,note_on,0,0,4,,,,,,,,,0,,,41,0
114870,note_on,30,0,1,,,,,,,,,0,,,65,0
114870,note_on,0,0,1,,,,,,,,,0,,,69,40
114900,note_on,30,0,1,,,,,,,,,0,,,69,0
114900,note_on,0,0,1,,,,,,,,,0,,,57,40
114930,note_on,30,0,1,,,,,,,,,0,,,57,0
114930,note_on,0,0,1,,,,,,,,,0,,,60,40
114960,note_on,30,0,1,,,,,,,,,0,,,60,0
114960,note_on,0,0,1,,,,,,,,,0,,,65,40
114990,note_on,30,0,1,,,,,,,,,0,,,65,0
114990,note_on,0,0,1,,,,,,,,,0,,,69,40
115020,note_on,0,0,1,,,,,,,,,0,,,57,40
115020,note_on,30,0,1,,,,,,,,,0,,,69,0
115050,note_on,30,0,1,,,,,,,,,0,,,57,0
115050,note_on,0,0,1,,,,,,,,,0,,,60,40
115080,note_on,30,0,1,,,,,,,,,0,,,60,0
115080,note_on,0,0,1,,,,,,,,,0,,,65,40
115110,note_on,30,0,1,,,,,,,,,0,,,65,0
115110,note_on,0,0,1,,,,,,,,,0,,,69,40
115140,note_on,30,0,1,,,,,,,,,0,,,69,0
115140,note_on,0,0,1,,,,,,,,,0,,,57,40
115170,note_on,30,0,1,,,,,,,,,0,,,57,0
115170,note_on,0,0,1,,,,,,,,,0,,,60,40
115185,control_change,465,0,5,,,,,,,,,0,64,0,,
115200,note_on,0,0,1,,,,,,,,,0,,,65,40
115200,note_on,30,0,1,,,,,,,,,0,,,60,0
115230,note_on,0,0,1,,,,,,,,,0,,,68,44
115230,note_on,30,0,1,,,,,,,,,0,,,65,0
115260,note_on,420,0,4,,,,,,,,,0,,,40,68
115260,note_on,0,0,1,,,,,,,,,0,,,56,48
115260,note_on,30,0,1,,,,,,,,,0,,,68,0
115290,note_on,30,0,1,,,,,,,,,0,,,56,0
115290,note_on,0,0,1,,,,,,,,,0,,,60,52
115320,note_on,0,0,1,,,,,,,,,0,,,65,57
115320,note_on,0,0,4,,,,,,,,,0,,,41,77
115320,note_on,60,0,4,,,,,,,,,0,,,40,0
115320,note_on,30,0,1,,,,,,,,,0,,,60,0
115350,note_on,0,0,1,,,,,,,,,0,,,68,61
115350,note_on,30,0,1,,,,,,,,,0,,,65,0
115380,note_on,30,0,1,,,,,,,,,0,,,68,0
115380,note_on,0,0,1,,,,,,,,,0,,,56,65
115380,note_on,60,0,4,,,,,,,,,0,,,41,0
115380,note_on,0,0,4,,,,,,,,,0,,,44,85
115410,note_on,30,0,1,,,,,,,,,0,,,56,0
115410,note_on,0,0,1,,,,,,,,,0,,,60,69
115440,note_on,0,0,4,,,,,,,,,0,,,47,94
115440,note_on,60,0,4,,,,,,,,,0,,,44,0
115440,note_on,0,0,1,,,,,,,,,0,,,65,74
115440,note_on,30,0,1,,,,,,,,,0,,,60,0
115470,note_on,0,0,1,,,,,,,,,0,,,68,78
115470,note_on,30,0,1,,,,,,,,,0,,,65,0
115500,note_on,30,0,1,,,,,,,,,0,,,68,0
115500,note_on,0,0,4,,,,,,,,,0,,,48,102
115500,note_on,60,0,4,,,,,,,,,0,,,47,0
115500,note_on,0,0,1,,,,,,,,,0,,,60,82
115530,note_on,30,0,1,,,,,,,,,0,,,60,0
115530,note_on,0,0,1,,,,,,,,,0,,,65,87
115560,note_on,30,0,1,,,,,,,,,0,,,65,0
115560,note_on,0,0,4,,,,,,,,,0,,,53,111
115560,note_on,60,0,4,,,,,,,,,0,,,48,0
115560,note_on,0,0,1,,,,,,,,,0,,,68,91
115590,note_on,0,0,1,,,,,,,,,0,,,72,95
115590,note_on,30,0,1,,,,,,,,,0,,,68,0
115620,note_on,0,0,1,,,,,,,,,0,,,60,99
115620,note_on,30,0,1,,,,,,,,,0,,,72,0
115620,note_on,60,0,4,,,,,,,,,0,,,53,0
115620,note_on,0,0,4,,,,,,,,,0,,,55,119
115650,note_on,30,0,1,,,,,,,,,0,,,60,0
115650,note_on,0,0,1,,,,,,,,,0,,,65,100
115680,key_signature,7680,1,0,,,,,Ab,,,,,,,,
115680,marker,0,1,0,,,,,,,,,,,,,
115680,control_change,495,0,5,,,,,,,,,0,64,127,,
115680,end_of_track,0,1,0,,,,,,,,,,,,,
115680,note_on,0,0,4,,,,,,,,,0,,,48,100
115680,note_on,0,0,4,,,,,,,,,0,,,56,100
115680,note_on,0,0,4,,,,,,,,,0,,,41,100
115680,note_on,0,0,1,,,,,,,,,0,,,72,100
115680,note_on,30,0,1,,,,,,,,,0,,,65,0
115680,note_on,60,0,4,,,,,,,,,0,,,55,0
115695,note_on,0,0,1,,,,,,,,,0,,,77,100
115695,note_on,15,0,1,,,,,,,,,0,,,72,0
115710,note_on,15,0,1,,,,,,,,,0,,,77,0
115710,note_on,0,0,1,,,,,,,,,0,,,80,100
115725,note_on,0,0,1,,,,,,,,,0,,,84,100
115725,note_on,15,0,1,,,,,,,,,0,,,80,0
115890,note_on,0,0,1,,,,,,,,,0,,,82,60
115890,note_on,165,0,1,,,,,,,,,0,,,84,0
115920,note_on,0,0,1,,,,,,,,,0,,,68,60
115920,note_on,30,0,1,,,,,,,,,0,,,82,0
116010,note_on,0,0,1,,,,,,,,,0,,,70,60
116010,note_on,90,0,1,,,,,,,,,0,,,68,0
116025,control_change,345,0,5,,,,,,,,,0,64,0,,
116040,note_on,0,0,4,,,,,,,,,0,,,43,60
116040,control_change,15,0,5,,,,,,,,,0,64,127,,
116040,note_on,0,0,1,,,,,,,,,0,,,67,60
116040,note_on,30,0,1,,,,,,,,,0,,,70,0
116040,note_on,0,0,4,,,,,,,,,0,,,52,60
116040,note_on,360,0,4,,,,,,,,,0,,,56,0
116130,note_on,0,0,1,,,,,,,,,0,,,68,60
116130,note_on,90,0,1,,,,,,,,,0,,,67,0
116145,control_change,105,0,5,,,,,,,,,0,64,0,,
116160,note_on,120,0,4,,,,,,,,,0,,,43,0
116160,note_on,0,0,4,,,,,,,,,0,,,52,0
116160,note_on,0,0,4,,,,,,,,,0,,,48,0
116160,note_on,0,0,4,,,,,,,,,0,,,44,60
116160,note_on,0,0,4,,,,,,,,,0,,,53,60
116160,control_change,15,0,5,,,,,,,,,0,64,127,,
116160,note_on,30,0,1,,,,,,,,,0,,,68,0
116160,note_on,0,0,1,,,,,,,,,0,,,65,60
116172,note_on,0,0,1,,,,,,,,,0,,,67,60
116172,note_on,12,0,1,,,,,,,,,0,,,65,0
116184,note_on,0,0,1,,,,,,,,,0,,,65,60
116184,note_on,12,0,1,,,,,,,,,0,,,67,0
116196,note_on,12,0,1,,,,,,,,,0,,,65,0
116196,note_on,0,0,1,,,,,,,,,0,,,64,60
116208,note_on,0,0,1,,,,,,,,,0,,,65,60
116208,note_on,12,0,1,,,,,,,,,0,,,64,0
116250,note_on,42,0,1,,,,,,,,,0,,,65,0
116250,note_on,0,0,1,,,,,,,,,0,,,66,60
116280,control_change,120,0,5,,,,,,,,,0,64,0,,
116280,note_on,30,0,1,,,,,,,,,0,,,66,0
116280,note_on,0,0,4,,,,,,,,,0,,,45,60
116280,note_on,120,0,4,,,,,,,,,0,,,44,0
116280,note_on,0,0,1,,,,,,,,,0,,,63,60
116292,note_on,12,0,1,,,,,,,,,0,,,63,0
116292,note_on,0,0,1,,,,,,,,,0,,,65,60
116304,note_on,12,0,1,,,,,,,,,0,,,65,0
116304,note_on,0,0,1,,,,,,,,,0,,,63,60
116316,note_on,12,0,1,,,,,,,,,0,,,63,0
116316,note_on,0,0,1,,,,,,,,,0,,,62,60
116328,note_on,0,0,1,,,,,,,,,0,,,63,60
116328,note_on,12,0,1,,,,,,,,,0,,,62,0
116370,note_on,0,0,1,,,,,,,,,0,,,65,60
116370,note_on,42,0,1,,,,,,,,,0,,,63,0
116400,note_on,0,0,1,,,,,,,,,0,,,61,60
116400,note_on,0,0,4,,,,,,,,,0,,,46,60
116400,note_on,120,0,4,,,,,,,,,0,,,45,0
116400,note_on,30,0,1,,,,,,,,,0,,,65,0
116412,note_on,0,0,1,,,,,,,,,0,,,63,60
116412,note_on,12,0,1,,,,,,,,,0,,,61,0
116424,note_on,12,0,1,,,,,,,,,0,,,63,0
116424,note_on,0,0,1,,,,,,,,,0,,,61,60
116436,note_on,0,0,1,,,,,,,,,0,,,60,60
116436,note_on,12,0,1,,,,,,,,,0,,,61,0
116448,note_on,12,0,1,,,,,,,,,0,,,60,0
116448,note_on,0,0,1,,,,,,,,,0,,,61,60
116490,note_on,42,0,1,,,,,,,,,0,,,61,0
116490,note_on,0,0,1,,,,,,,,,0,,,63,60
116520,note_on,0,0,1,,,,,,,,,0,,,60,60
116520,note_on,30,0,1,,,,,,,,,0,,,63,0
116520,note_on,120,0,4,,,,,,,,,0,,,46,0
116520,note_on,0,0,4,,,,,,,,,0,,,48,60
116532,note_on,12,0,1,,,,,,,,,0,,,60,0
116532,note_on,0,0,1,,,,,,,,,0,,,61,60
116544,note_on,0,0,1,,,,,,,,,0,,,60,60
116544,note_on,12,0,1,,,,,,,,,0,,,61,0
116556,note_on,0,0,1,,,,,,,,,0,,,59,60
116556,note_on,12,0,1,,,,,,,,,0,,,60,0
116568,note_on,0,0,1,,,,,,,,,0,,,60,60
116568,note_on,12,0,1,,,,,,,,,0,,,59,0
116610,note_on,0,0,1,,,,,,,,,0,,,61,60
116610,note_on,42,0,1,,,,,,,,,0,,,60,0
116640,note_on,30,0,1,,,,,,,,,0,,,61,0
116640,note_on,33060,0,2,,,,,,,,,0,,,58,60
116640,note_on,0,0,4,,,,,,,,,0,,,49,60
116640,note_on,120,0,4,,,,,,,,,0,,,48,0
116670,note_on,0,0,2,,,,,,,,,0,,,61,62
116670,note_on,30,0,2,,,,,,,,,0,,,58,0
116700,note_on,30,0,2,,,,,,,,,0,,,61,0
116700,note_on,0,0,2,,,,,,,,,0,,,58,65
116700,note_on,60,0,4,,,,,,,,,0,,,49,0
116700,note_on,0,0,4,,,,,,,,,0,,,53,0
116700,note_on,0,0,4,,,,,,,,,0,,,41,0
116700,note_on,0,0,4,,,,,,,,,0,,,53,65
116700,note_on,0,0,4,,,,,,,,,0,,,49,65
116730,note_on,30,0,2,,,,,,,,,0,,,58,0
116730,note_on,0,0,2,,,,,,,,,0,,,61,68
116730,note_on,30,0,4,,,,,,,,,0,,,49,0
116730,note_on,0,0,4,,,,,,,,,0,,,53,0
116760,note_on,30,0,4,,,,,,,,,0,,,48,70
116760,note_on,30,0,2,,,,,,,,,0,,,61,0
116760,note_on,0,0,2,,,,,,,,,0,,,56,70
116760,note_on,0,0,4,,,,,,,,,0,,,51,70
116790,note_on,30,0,4,,,,,,,,,0,,,51,0
116790,note_on,0,0,4,,,,,,,,,0,,,48,0
116790,note_on,30,0,2,,,,,,,,,0,,,56,0
116790,note_on,0,0,2,,,,,,,,,0,,,61,73
116820,note_on,30,0,2,,,,,,,,,0,,,61,0
116820,note_on,30,0,4,,,,,,,,,0,,,48,76
116820,note_on,0,0,4,,,,,,,,,0,,,51,76
116820,note_on,0,0,2,,,,,,,,,0,,,56,76
116850,note_on,0,0,2,,,,,,,,,0,,,61,79
116850,note_on,30,0,4,,,,,,,,,0,,,51,0
116850,note_on,0,0,4,,,,,,,,,0,,,48,0
116850,note_on,30,0,2,,,,,,,,,0,,,56,0
116880,note_on,30,0,2,,,,,,,,,0,,,61,0
116880,note_on,0,0,2,,,,,,,,,0,,,54,81
116880,note_on,30,0,4,,,,,,,,,0,,,46,81
116880,note_on,0,0,4,,,,,,,,,0,,,49,81
116910,note_on,0,0,4,,,,,,,,,0,,,46,0
116910,note_on,30,0,4,,,,,,,,,0,,,49,0
116910,note_on,0,0,2,,,,,,,,,0,,,61,84
116910,note_on,30,0,2,,,,,,,,,0,,,54,0
116940,note_on,30,0,4,,,,,,,,,0,,,46,87
116940,note_on,0,0,4,,,,,,,,,0,,,49,87
116940,note_on,0,0,2,,,,,,,,,0,,,54,87
116940,note_on,30,0,2,,,,,,,,,0,,,61,0
116970,note_on,0,0,2,,,,,,,,,0,,,61,89
116970,note_on,0,0,4,,,,,,,,,0,,,46,0
116970,note_on,30,0,4,,,,,,,,,0,,,49,0
116970,note_on,30,0,2,,,,,,,,,0,,,54,0
117000,note_on,0,0,2,,,,,,,,,0,,,53,92
117000,note_on,30,0,4,,,,,,,,,0,,,44,92
117000,note_on,30,0,2,,,,,,,,,0,,,61,0
117000,note_on,0,0,4,,,,,,,,,0,,,48,92
117030,note_on,0,0,2,,,,,,,,,0,,,61,95
117030,note_on,30,0,2,,,,,,,,,0,,,53,0
117030,note_on,30,0,4,,,,,,,,,0,,,48,0
117030,note_on,0,0,4,,,,,,,,,0,,,44,0
117060,note_on,30,0,2,,,,,,,,,0,,,61,0
117060,note_on,30,0,4,,,,,,,,,0,,,44,98
117060,note_on,0,0,4,,,,,,,,,0,,,48,98
117060,note_on,0,0,2,,,,,,,,,0,,,53,98
117090,note_on,30,0,2,,,,,,,,,0,,,53,0
117090,note_on,0,0,2,,,,,,,,,0,,,61,100
117090,note_on,30,0,4,,,,,,,,,0,,,48,0
117090,note_on,0,0,4,,,,,,,,,0,,,44,0
117120,note_on,30,0,2,,,,,,,,,0,,,61,0
117120,note_on,0,0,2,,,,,,,,,0,,,52,100
117120,note_on,0,0,4,,,,,,,,,0,,,46,100
117120,note_on,30,0,4,,,,,,,,,0,,,43,100
117150,end_of_track,0,1,2,,,,,,,,,,,,,
117150,note_on,30,0,2,,,,,,,,,0,,,52,0
117150,note_on,0,0,4,,,,,,,,,0,,,43,0
117150,note_on,30,0,4,,,,,,,,,0,,,46,0
117240,note_on,90,0,4,,,,,,,,,0,,,61,110
117240,note_on,0,0,4,,,,,,,,,0,,,58,110
117240,note_on,0,0,4,,,,,,,,,0,,,55,110
117240,note_on,0,0,4,,,,,,,,,0,,,52,110
117240,note_on,600,0,1,,,,,,,,,0,,,73,110
117240,note_on,0,0,1,,,,,,,,,0,,,70,110
117240,note_on,0,0,1,,,,,,,,,0,,,67,110
117270,note_on,0,0,4,,,,,,,,,0,,,55,0
117270,note_on,0,0,4,,,,,,,,,0,,,58,0
117270,note_on,0,0,4,,,,,,,,,0,,,61,0
117270,note_on,30,0,1,,,,,,,,,0,,,67,0
117270,note_on,0,0,1,,,,,,,,,0,,,70,0
117270,note_on,0,0,1,,,,,,,,,0,,,73,0
117270,note_on,30,0,4,,,,,,,,,0,,,52,0
117435,note_on,165,0,1,,,,,,,,,0,,,72,60
117450,note_on,15,0,1,,,,,,,,,0,,,72,0
117450,note_on,0,0,1,,,,,,,,,0,,,73,60
117465,note_on,15,0,1,,,,,,,,,0,,,73,0
117465,note_on,0,0,1,,,,,,,,,0,,,75,60
117480,note_on,15,0,1,,,,,,,,,0,,,75,0
117480,note_on,0,0,1,,,,,,,,,0,,,73,60
117570,note_on,0,0,1,,,,,,,,,0,,,72,60
117570,note_on,90,0,1,,,,,,,,,0,,,73,0
117600,note_on,30,0,1,,,,,,,,,0,,,72,0
117600,note_on,330,0,4,,,,,,,,,0,,,56,60
117600,note_on,0,0,4,,,,,,,,,0,,,53,60
117600,note_on,0,0,1,,,,,,,,,0,,,72,60
117640,note_on,40,0,1,,,,,,,,,0,,,72,0
117640,note_on,0,0,1,,,,,,,,,0,,,80,70
117680,note_on,40,0,1,,,,,,,,,0,,,80,0
117680,note_on,0,0,1,,,,,,,,,0,,,79,60
117720,note_on,0,0,4,,,,,,,,,0,,,56,0
117720,note_on,0,0,1,,,,,,,,,0,,,77,60
117720,note_on,120,0,4,,,,,,,,,0,,,53,0
117720,note_on,40,0,1,,,,,,,,,0,,,79,0
117760,note_on,40,0,1,,,,,,,,,0,,,77,0
117760,note_on,0,0,1,,,,,,,,,0,,,72,60
117800,note_on,0,0,1,,,,,,,,,0,,,68,60
117800,note_on,40,0,1,,,,,,,,,0,,,72,0
117840,note_on,120,0,4,,,,,,,,,0,,,55,60
117840,note_on,0,0,4,,,,,,,,,0,,,46,60
117840,note_on,0,0,1,,,,,,,,,0,,,67,60
117840,note_on,40,0,1,,,,,,,,,0,,,68,0
117840,note_on,0,0,4,,,,,,,,,0,,,49,60
117880,note_on,0,0,1,,,,,,,,,0,,,75,70
117880,note_on,40,0,1,,,,,,,,,0,,,67,0
117920,note_on,0,0,1,,,,,,,,,0,,,72,60
117920,note_on,40,0,1,,,,,,,,,0,,,75,0
117960,note_on,0,0,4,,,,,,,,,0,,,55,0
117960,note_on,0,0,4,,,,,,,,,0,,,49,0
117960,note_on,120,0,4,,,,,,,,,0,,,46,0
117960,note_on,40,0,1,,,,,,,,,0,,,72,0
117960,note_on,0,0,1,,,,,,,,,0,,,73,60
118000,note_on,40,0,1,,,,,,,,,0,,,73,0
118000,note_on,0,0,1,,,,,,,,,0,,,70,60
118040,note_on,0,0,1,,,,,,,,,0,,,67,60
118040,note_on,40,0,1,,,,,,,,,0,,,70,0
118080,control_change,1800,0,5,,,,,,,,,0,64,127,,
118080,note_on,0,0,1,,,,,,,,,0,,,65,70
118080,note_on,40,0,1,,,,,,,,,0,,,67,0
118080,note_on,120,0,4,,,,,,,,,0,,,48,70
118120,note_on,40,0,4,,,,,,,,,0,,,53,60
118120,note_on,40,0,1,,,,,,,,,0,,,56,60
118160,note_on,0,0,1,,,,,,,,,0,,,58,60
118160,note_on,40,0,1,,,,,,,,,0,,,56,0
118160,note_on,40,0,4,,,,,,,,,0,,,53,0
118160,note_on,0,0,4,,,,,,,,,0,,,55,60
118200,note_on,0,0,1,,,,,,,,,0,,,60,60
118200,note_on,40,0,1,,,,,,,,,0,,,58,0
118200,note_on,40,0,4,,,,,,,,,0,,,55,0
118200,note_on,0,0,4,,,,,,,,,0,,,56,60
118240,note_on,40,0,1,,,,,,,,,0,,,60,0
118240,note_on,0,0,1,,,,,,,,,0,,,58,60
118240,note_on,40,0,4,,,,,,,,,0,,,56,0
118240,note_on,0,0,4,,,,,,,,,0,,,55,60
118280,note_on,0,0,1,,,,,,,,,0,,,56,60
118280,note_on,40,0,4,,,,,,,,,0,,,55,0
118280,note_on,0,0,4,,,,,,,,,0,,,53,60
118280,note_on,40,0,1,,,,,,,,,0,,,58,0
118305,control_change,225,0,5,,,,,,,,,0,64,0,,
118320,note_on,40,0,1,,,,,,,,,0,,,56,0
118320,note_on,0,0,1,,,,,,,,,0,,,65,0
118320,note_on,0,0,1,,,,,,,,,0,,,61,60
118320,note_on,0,0,1,,,,,,,,,0,,,64,70
118320,note_on,0,0,4,,,,,,,,,0,,,48,0
118320,note_on,0,0,4,,,,,,,,,0,,,48,70
118320,note_on,0,0,4,,,,,,,,,0,,,58,60
118320,note_on,40,0,4,,,,,,,,,0,,,53,0
118320,control_change,15,0,5,,,,,,,,,0,64,127,,
118440,note_on,0,0,4,,,,,,,,,0,,,56,60
118440,note_on,120,0,4,,,,,,,,,0,,,58,0
118440,note_on,120,0,1,,,,,,,,,0,,,61,0
118440,note_on,0,0,1,,,,,,,,,0,,,60,60
118500,note_on,0,0,4,,,,,,,,,0,,,55,60
118500,note_on,60,0,4,,,,,,,,,0,,,56,0
118500,note_on,60,0,1,,,,,,,,,0,,,60,0
118500,note_on,0,0,1,,,,,,,,,0,,,58,60
118545,control_change,225,0,5,,,,,,,,,0,64,0,,
118560,control_change,15,0,5,,,,,,,,,0,64,127,,
118560,note_on,60,0,1,,,,,,,,,0,,,58,0
118560,note_on,0,0,1,,,,,,,,,0,,,64,0
118560,note_on,0,0,1,,,,,,,,,0,,,65,50
118560,note_on,0,0,4,,,,,,,,,0,,,48,50
118560,note_on,0,0,4,,,,,,,,,0,,,48,0
118560,note_on,60,0,4,,,,,,,,,0,,,55,0
118600,note_on,40,0,1,,,,,,,,,0,,,56,40
118600,note_on,40,0,4,,,,,,,,,0,,,53,40
118640,note_on,0,0,1,,,,,,,,,0,,,58,40
118640,note_on,40,0,4,,,,,,,,,0,,,53,0
118640,note_on,0,0,4,,,,,,,,,0,,,55,40
118640,note_on,40,0,1,,,,,,,,,0,,,56,0
118680,note_on,0,0,4,,,,,,,,,0,,,56,40
118680,note_on,40,0,4,,,,,,,,,0,,,55,0
118680,note_on,0,0,1,,,,,,,,,0,,,60,40
118680,note_on,40,0,1,,,,,,,,,0,,,58,0
118720,note_on,0,0,4,,,,,,,,,0,,,55,40
118720,note_on,0,0,1,,,,,,,,,0,,,58,40
118720,note_on,40,0,1,,,,,,,,,0,,,60,0
118720,note_on,40,0,4,,,,,,,,,0,,,56,0
118760,note_on,40,0,4,,,,,,,,,0,,,55,0
118760,note_on,0,0,4,,,,,,,,,0,,,53,40
118760,note_on,40,0,1,,,,,,,,,0,,,58,0
118760,note_on,0,0,1,,,,,,,,,0,,,56,40
118785,control_change,225,0,5,,,,,,,,,0,64,0,,
118800,note_on,0,0,4,,,,,,,,,0,,,58,40
118800,control_change,15,0,5,,,,,,,,,0,64,127,,
118800,note_on,40,0,1,,,,,,,,,0,,,56,0
118800,note_on,0,0,1,,,,,,,,,0,,,65,0
118800,note_on,0,0,1,,,,,,,,,0,,,61,40
118800,note_on,0,0,1,,,,,,,,,0,,,64,50
118800,note_on,0,0,4,,,,,,,,,0,,,48,50
118800,note_on,0,0,4,,,,,,,,,0,,,48,0
118800,note_on,40,0,4,,,,,,,,,0,,,53,0
118920,note_on,0,0,1,,,,,,,,,0,,,60,40
118920,note_on,120,0,1,,,,,,,,,0,,,61,0
118920,note_on,0,0,4,,,,,,,,,0,,,56,40
118920,note_on,120,0,4,,,,,,,,,0,,,58,0
118980,note_on,60,0,1,,,,,,,,,0,,,60,0
118980,note_on,60,0,4,,,,,,,,,0,,,56,0
118980,note_on,0,0,1,,,,,,,,,0,,,58,40
118980,note_on,0,0,4,,,,,,,,,0,,,55,40
119025,control_change,225,0,5,,,,,,,,,0,64,0,,
119040,note_on,0,0,1,,,,,,,,,0,,,64,0
119040,note_on,60,0,1,,,,,,,,,0,,,58,0
119040,note_on,0,0,4,,,,,,,,,0,,,41,40
119040,note_on,0,0,4,,,,,,,,,0,,,48,0
119040,note_on,60,0,4,,,,,,,,,0,,,55,0
119040,note_on,0,0,4,,,,,,,,,0,,,53,40
119040,control_change,15,0,5,,,,,,,,,0,64,127,,
119040,note_on,0,0,1,,,,,,,,,0,,,56,40
119040,note_on,0,0,1,,,,,,,,,0,,,65,40
119160,note_on,0,0,4,,,,,,,,,0,,,41,0
119160,note_on,120,0,4,,,,,,,,,0,,,53,0
119160,note_on,0,0,1,,,,,,,,,0,,,65,0
119160,note_on,120,0,1,,,,,,,,,0,,,56,0
119280,note_on,0,0,4,,,,,,,,,0,,,41,40
119280,note_on,0,0,1,,,,,,,,,0,,,60,40
119280,note_on,120,0,4,,,,,,,,,0,,,53,40
119280,note_on,120,0,1,,,,,,,,,0,,,56,40
119280,note_on,0,0,1,,,,,,,,,0,,,65,40
119280,note_on,0,0,4,,,,,,,,,0,,,48,40
119400,note_on,0,0,1,,,,,,,,,0,,,56,0
119400,note_on,0,0,1,,,,,,,,,0,,,60,0
119400,note_on,120,0,1,,,,,,,,,0,,,65,0
119400,note_on,120,0,4,,,,,,,,,0,,,41,0
119400,note_on,0,0,4,,,,,,,,,0,,,48,0
119400,note_on,0,0,4,,,,,,,,,0,,,53,0
119520,note_on,120,0,4,,,,,,,,,0,,,53,50
119520,note_on,120,0,1,,,,,,,,,0,,,65,50
119520,note_on,0,0,1,,,,,,,,,0,,,60,50
119520,note_on,0,0,1,,,,,,,,,0,,,56,50
119520,note_on,0,0,4,,,,,,,,,0,,,41,50
119520,note_on,0,0,4,,,,,,,,,0,,,48,50
119760,note_on,240,0,4,,,,,,,,,0,,,41,0
119760,note_on,0,0,4,,,,,,,,,0,,,48,0
119760,end_of_track,0,1,1,,,,,,,,,,,,,
119760,end_of_track,0,1,4,,,,,,,,,,,,,
119760,note_on,240,0,1,,,,,,,,,0,,,56,0
119760,note_on,0,0,1,,,,,,,,,0,,,60,0
119760,note_on,0,0,1,,,,,,,,,0,,,65,0
119760,note_on,0,0,4,,,,,,,,,0,,,53,0
120960,control_change,1920,0,5,,,,,,,,,0,64,0,,
121200,control_change,240,0,5,,,,,,,,,0,64,127,,
121440,control_change,240,0,5,,,,,,,,,0,64,0,,
121440,end_of_track,0,1,5,,,,,,,,,,,,,
