tick,type,time,meta,track,numerator,denominator,clocks_per_click,notated_32nd_notes_per_beat,key,tempo,port,program,channel,control,value,note,velocity
0,track_name,0,1,0,,,,,,,,,,,,,
0,program_change,0,0,1,,,,,,,,0,0,,,,
0,control_change,0,0,1,,,,,,,,,0,7,127,,
0,control_change,0,0,1,,,,,,,,,0,10,64,,
0,track_name,0,1,5,,,,,,,,,,,,,
0,midi_port,0,1,2,,,,,,,0,,,,,,
0,track_name,0,1,2,,,,,,,,,,,,,
0,program_change,0,0,2,,,,,,,,0,0,,,,
0,control_change,0,0,2,,,,,,,,,0,7,127,,
0,track_name,0,1,1,,,,,,,,,,,,,
0,control_change,0,0,2,,,,,,,,,0,10,64,,
0,track_name,0,1,3,,,,,,,,,,,,,
0,program_change,0,0,3,,,,,,,,0,0,,,,
0,control_change,0,0,3,,,,,,,,,0,7,127,,
0,control_change,0,0,3,,,,,,,,,0,10,64,,
0,midi_port,0,1,4,,,,,,,0,,,,,,
0,track_name,0,1,4,,,,,,,,,,,,,
0,end_of_track,0,1,4,,,,,,,,,,,,,
0,midi_port,0,1,5,,,,,,,0,,,,,,
0,midi_port,0,1,3,,,,,,,0,,,,,,
0,midi_port,0,1,1,,,,,,,0,,,,,,
0,end_of_track,0,1,5,,,,,,,,,,,,,
0,text,0,1,0,,,,,,,,,,,,,
0,set_tempo,0,1,0,,,,,,454545,,,,,,,
0,time_signature,0,1,0,3,4,24,8,,,,,,,,,
0,key_signature,0,1,0,,,,,Ab,,,,,,,,
0,marker,0,1,0,,,,,,,,,,,,,
0,copyright,0,1,0,,,,,,,,,,,,,
240,control_change,240,0,3,,,,,,,,,0,64,127,,
240,note_on,240,0,2,,,,,,,,,0,,,51,50
240,note_on,240,0,1,,,,,,,,,0,,,63,50
360,note_on,0,0,2,,,,,,,,,0,,,44,52
360,note_on,120,0,1,,,,,,,,,0,,,63,0
360,note_on,0,0,1,,,,,,,,,0,,,60,42
360,note_on,0,0,1,,,,,,,,,0,,,68,52
360,note_on,0,0,2,,,,,,,,,0,,,51,42
360,note_on,0,0,1,,,,,,,,,0,,,63,42
360,note_on,120,0,2,,,,,,,,,0,,,51,0
480,note_on,120,0,1,,,,,,,,,0,,,68,0
480,note_on,0,0,1,,,,,,,,,0,,,63,0
480,note_on,0,0,1,,,,,,,,,0,,,60,0
480,note_on,0,0,1,,,,,,,,,0,,,60,44
480,note_on,0,0,1,,,,,,,,,0,,,63,44
480,note_on,0,0,2,,,,,,,,,0,,,51,44
480,note_on,0,0,1,,,,,,,,,0,,,68,54
480,note_on,120,0,2,,,,,,,,,0,,,51,0
660,note_on,0,0,1,,,,,,,,,0,,,70,57
660,note_on,180,0,1,,,,,,,,,0,,,68,0
660,control_change,420,0,3,,,,,,,,,0,64,0,,
720,note_on,240,0,2,,,,,,,,,0,,,51,0
720,note_on,0,0,2,,,,,,,,,0,,,44,0
720,note_on,0,0,2,,,,,,,,,0,,,46,58
720,note_on,0,0,1,,,,,,,,,0,,,68,58
720,note_on,0,0,1,,,,,,,,,0,,,63,48
720,note_on,0,0,1,,,,,,,,,0,,,61,48
720,note_on,0,0,1,,,,,,,,,0,,,60,0
720,note_on,0,0,1,,,,,,,,,0,,,63,0
720,note_on,60,0,1,,,,,,,,,0,,,70,0
720,note_on,0,0,2,,,,,,,,,0,,,51,48
840,note_on,120,0,2,,,,,,,,,0,,,51,0
840,note_on,0,0,1,,,,,,,,,0,,,67,60
840,note_on,0,0,1,,,,,,,,,0,,,63,50
840,control_change,180,0,3,,,,,,,,,0,64,127,,
840,note_on,0,0,2,,,,,,,,,0,,,51,50
840,note_on,0,0,1,,,,,,,,,0,,,61,0
840,note_on,0,0,1,,,,,,,,,0,,,63,0
840,note_on,120,0,1,,,,,,,,,0,,,68,0
840,note_on,0,0,1,,,,,,,,,0,,,61,50
1020,note_on,180,0,1,,,,,,,,,0,,,67,0
1020,note_on,0,0,1,,,,,,,,,0,,,70,64
1080,control_change,240,0,3,,,,,,,,,0,64,0,,
1080,note_on,0,0,2,,,,,,,,,0,,,46,0
1080,note_on,0,0,2,,,,,,,,,0,,,51,55
1080,note_on,0,0,2,,,,,,,,,0,,,48,65
1080,note_on,0,0,1,,,,,,,,,0,,,70,65
1080,note_on,240,0,2,,,,,,,,,0,,,51,0
1080,note_on,0,0,1,,,,,,,,,0,,,61,0
1080,note_on,0,0,1,,,,,,,,,0,,,63,0
1080,note_on,60,0,1,,,,,,,,,0,,,70,0
1200,note_on,0,0,1,,,,,,,,,0,,,63,57
1200,note_on,0,0,1,,,,,,,,,0,,,68,67
1200,note_on,0,0,2,,,,,,,,,0,,,51,57
1200,note_on,120,0,2,,,,,,,,,0,,,51,0
1200,note_on,120,0,1,,,,,,,,,0,,,70,0
1320,note_on,0,0,2,,,,,,,,,0,,,51,59
1320,note_on,0,0,2,,,,,,,,,0,,,48,0
1320,note_on,120,0,2,,,,,,,,,0,,,51,0
1320,note_on,0,0,2,,,,,,,,,0,,,43,69
1320,note_on,0,0,1,,,,,,,,,0,,,63,0
1320,note_on,0,0,1,,,,,,,,,0,,,70,69
1320,note_on,0,0,1,,,,,,,,,0,,,63,59
1320,note_on,0,0,1,,,,,,,,,0,,,61,59
1320,note_on,120,0,1,,,,,,,,,0,,,68,0
1440,note_on,0,0,1,,,,,,,,,0,,,61,0
1440,note_on,0,0,1,,,,,,,,,0,,,63,0
1440,note_on,120,0,1,,,,,,,,,0,,,70,0
1440,note_on,0,0,2,,,,,,,,,0,,,44,71
1440,note_on,0,0,1,,,,,,,,,0,,,60,61
1440,note_on,0,0,1,,,,,,,,,0,,,63,61
1440,note_on,0,0,1,,,,,,,,,0,,,72,71
1440,note_on,120,0,2,,,,,,,,,0,,,43,0
1440,note_on,0,0,2,,,,,,,,,0,,,51,0
1440,note_on,0,0,2,,,,,,,,,0,,,51,61
1680,note_on,0,0,2,,,,,,,,,0,,,51,76
1680,note_on,0,0,2,,,,,,,,,0,,,51,0
1680,note_on,240,0,2,,,,,,,,,0,,,44,0
1680,note_on,240,0,1,,,,,,,,,0,,,72,0
1680,note_on,0,0,1,,,,,,,,,0,,,63,76
1680,note_on,0,0,1,,,,,,,,,0,,,60,0
1680,note_on,0,0,1,,,,,,,,,0,,,63,0
1800,note_on,0,0,1,,,,,,,,,0,,,60,68
1800,note_on,0,0,1,,,,,,,,,0,,,63,68
1800,control_change,720,0,3,,,,,,,,,0,64,127,,
1800,note_on,120,0,1,,,,,,,,,0,,,63,0
1800,note_on,0,0,1,,,,,,,,,0,,,72,78
1800,note_on,120,0,2,,,,,,,,,0,,,51,0
1800,note_on,0,0,2,,,,,,,,,0,,,51,68
1800,note_on,0,0,2,,,,,,,,,0,,,44,78
1920,note_on,120,0,2,,,,,,,,,0,,,51,0
1920,note_on,0,0,1,,,,,,,,,0,,,63,0
1920,note_on,0,0,2,,,,,,,,,0,,,51,70
1920,note_on,0,0,1,,,,,,,,,0,,,60,0
1920,note_on,120,0,1,,,,,,,,,0,,,72,0
1920,note_on,0,0,1,,,,,,,,,0,,,72,80
1920,note_on,0,0,1,,,,,,,,,0,,,63,70
1920,note_on,0,0,1,,,,,,,,,0,,,60,70
2100,note_on,0,0,1,,,,,,,,,0,,,60,0
2100,note_on,180,0,1,,,,,,,,,0,,,72,0
2100,note_on,0,0,1,,,,,,,,,0,,,61,73
2100,note_on,0,0,1,,,,,,,,,0,,,63,73
2100,note_on,0,0,1,,,,,,,,,0,,,73,83
2100,note_on,0,0,1,,,,,,,,,0,,,63,0
2160,control_change,360,0,3,,,,,,,,,0,64,0,,
2160,note_on,0,0,1,,,,,,,,,0,,,60,74
2160,note_on,0,0,1,,,,,,,,,0,,,72,84
2160,note_on,0,0,2,,,,,,,,,0,,,49,84
2160,note_on,240,0,2,,,,,,,,,0,,,51,0
2160,note_on,0,0,2,,,,,,,,,0,,,44,0
2160,note_on,60,0,1,,,,,,,,,0,,,73,0
2160,note_on,0,0,1,,,,,,,,,0,,,63,0
2160,note_on,0,0,1,,,,,,,,,0,,,61,0
2160,note_on,0,0,2,,,,,,,,,0,,,51,74
2160,note_on,0,0,1,,,,,,,,,0,,,63,74
2280,note_on,0,0,2,,,,,,,,,0,,,51,77
2280,note_on,120,0,2,,,,,,,,,0,,,51,0
2280,note_on,120,0,1,,,,,,,,,0,,,72,0
2280,note_on,0,0,1,,,,,,,,,0,,,60,0
2280,note_on,0,0,1,,,,,,,,,0,,,63,0
2280,note_on,0,0,1,,,,,,,,,0,,,63,77
2280,note_on,0,0,1,,,,,,,,,0,,,58,77
2280,note_on,0,0,1,,,,,,,,,0,,,70,87
2460,note_on,180,0,1,,,,,,,,,0,,,70,0
2460,note_on,0,0,1,,,,,,,,,0,,,58,0
2460,note_on,0,0,1,,,,,,,,,0,,,60,80
2460,note_on,0,0,1,,,,,,,,,0,,,72,90
2460,note_on,0,0,1,,,,,,,,,0,,,63,80
2460,note_on,0,0,1,,,,,,,,,0,,,63,0
2520,note_on,0,0,2,,,,,,,,,0,,,48,90
2520,note_on,240,0,2,,,,,,,,,0,,,51,0
2520,note_on,0,0,1,,,,,,,,,0,,,70,90
2520,note_on,0,0,1,,,,,,,,,0,,,58,80
2520,note_on,0,0,1,,,,,,,,,0,,,63,80
2520,note_on,0,0,1,,,,,,,,,0,,,63,0
2520,note_on,0,0,1,,,,,,,,,0,,,60,0
2520,note_on,60,0,1,,,,,,,,,0,,,72,0
2520,note_on,0,0,2,,,,,,,,,0,,,49,0
2520,note_on,0,0,2,,,,,,,,,0,,,51,80
2640,note_on,0,0,1,,,,,,,,,0,,,63,0
2640,note_on,120,0,2,,,,,,,,,0,,,51,0
2640,note_on,0,0,2,,,,,,,,,0,,,51,66
2640,note_on,0,0,1,,,,,,,,,0,,,58,0
2640,note_on,0,0,1,,,,,,,,,0,,,68,76
2640,note_on,0,0,1,,,,,,,,,0,,,63,66
2640,note_on,0,0,1,,,,,,,,,0,,,56,66
2640,note_on,120,0,1,,,,,,,,,0,,,70,0
2760,note_on,0,0,1,,,,,,,,,0,,,63,51
2760,note_on,0,0,2,,,,,,,,,0,,,43,61
2760,note_on,120,0,2,,,,,,,,,0,,,51,0
2760,note_on,0,0,1,,,,,,,,,0,,,63,0
2760,note_on,0,0,1,,,,,,,,,0,,,56,0
2760,note_on,120,0,1,,,,,,,,,0,,,68,0
2760,note_on,0,0,2,,,,,,,,,0,,,51,51
2760,note_on,0,0,2,,,,,,,,,0,,,48,0
2760,note_on,0,0,1,,,,,,,,,0,,,70,51
2760,control_change,600,0,3,,,,,,,,,0,64,127,,
2760,note_on,0,0,1,,,,,,,,,0,,,75,61
2850,note_on,0,0,1,,,,,,,,,0,,,73,50
2850,note_on,90,0,1,,,,,,,,,0,,,75,0
2880,note_on,0,0,1,,,,,,,,,0,,,70,0
2880,note_on,0,0,1,,,,,,,,,0,,,63,40
2880,note_on,0,0,1,,,,,,,,,0,,,72,50
2880,control_change,120,0,3,,,,,,,,,0,64,0,,
2880,note_on,0,0,1,,,,,,,,,0,,,63,0
2880,note_on,30,0,1,,,,,,,,,0,,,73,0
2880,note_on,0,0,1,,,,,,,,,0,,,68,40
2880,note_on,0,0,2,,,,,,,,,0,,,51,0
2880,note_on,120,0,2,,,,,,,,,0,,,43,0
2880,note_on,0,0,2,,,,,,,,,0,,,51,40
2880,note_on,0,0,2,,,,,,,,,0,,,44,50
3120,note_on,0,0,2,,,,,,,,,0,,,51,0
3120,note_on,0,0,2,,,,,,,,,0,,,51,50
3120,note_on,240,0,2,,,,,,,,,0,,,44,0
3120,note_on,0,0,1,,,,,,,,,0,,,75,50
3120,note_on,0,0,1,,,,,,,,,0,,,68,0
3120,note_on,240,0,1,,,,,,,,,0,,,72,0
3120,note_on,0,0,1,,,,,,,,,0,,,63,0
3240,note_on,0,0,1,,,,,,,,,0,,,75,42
3240,note_on,120,0,1,,,,,,,,,0,,,75,0
3240,control_change,360,0,3,,,,,,,,,0,64,127,,
3240,note_on,0,0,1,,,,,,,,,0,,,80,52
3240,note_on,0,0,1,,,,,,,,,0,,,72,42
3240,note_on,0,0,2,,,,,,,,,0,,,44,52
3240,note_on,0,0,2,,,,,,,,,0,,,51,42
3240,note_on,120,0,2,,,,,,,,,0,,,51,0
3360,note_on,0,0,1,,,,,,,,,0,,,72,44
3360,note_on,0,0,1,,,,,,,,,0,,,75,44
3360,note_on,0,0,1,,,,,,,,,0,,,72,0
3360,note_on,0,0,1,,,,,,,,,0,,,75,0
3360,note_on,120,0,1,,,,,,,,,0,,,80,0
3360,note_on,0,0,1,,,,,,,,,0,,,80,54
3360,note_on,0,0,2,,,,,,,,,0,,,51,44
3360,note_on,120,0,2,,,,,,,,,0,,,51,0
3540,control_change,300,0,3,,,,,,,,,0,64,0,,
3540,note_on,180,0,1,,,,,,,,,0,,,80,0
3540,note_on,0,0,1,,,,,,,,,0,,,82,57
3600,note_on,0,0,1,,,,,,,,,0,,,80,58
3600,note_on,0,0,1,,,,,,,,,0,,,75,48
3600,note_on,0,0,1,,,,,,,,,0,,,73,48
3600,note_on,0,0,1,,,,,,,,,0,,,75,0
3600,note_on,60,0,1,,,,,,,,,0,,,82,0
3600,note_on,0,0,2,,,,,,,,,0,,,51,48
3600,note_on,0,0,2,,,,,,,,,0,,,44,0
3600,note_on,240,0,2,,,,,,,,,0,,,51,0
3600,note_on,0,0,1,,,,,,,,,0,,,72,0
3600,note_on,0,0,2,,,,,,,,,0,,,46,58
3720,note_on,120,0,1,,,,,,,,,0,,,80,0
3720,note_on,0,0,1,,,,,,,,,0,,,79,60
3720,note_on,0,0,1,,,,,,,,,0,,,75,50
3720,note_on,0,0,1,,,,,,,,,0,,,73,50
3720,note_on,0,0,1,,,,,,,,,0,,,75,0
3720,control_change,180,0,3,,,,,,,,,0,64,127,,
3720,note_on,0,0,1,,,,,,,,,0,,,73,0
3720,note_on,120,0,2,,,,,,,,,0,,,51,0
3720,note_on,0,0,2,,,,,,,,,0,,,51,50
3900,note_on,180,0,1,,,,,,,,,0,,,79,0
3900,note_on,0,0,1,,,,,,,,,0,,,82,64
3960,control_change,240,0,3,,,,,,,,,0,64,0,,
3960,note_on,0,0,1,,,,,,,,,0,,,75,0
3960,note_on,0,0,1,,,,,,,,,0,,,82,65
3960,note_on,240,0,2,,,,,,,,,0,,,51,0
3960,note_on,0,0,2,,,,,,,,,0,,,46,0
3960,note_on,0,0,2,,,,,,,,,0,,,51,55
3960,note_on,0,0,2,,,,,,,,,0,,,48,65
3960,note_on,0,0,1,,,,,,,,,0,,,73,0
3960,note_on,60,0,1,,,,,,,,,0,,,82,0
4080,note_on,120,0,2,,,,,,,,,0,,,51,0
4080,note_on,0,0,2,,,,,,,,,0,,,51,57
4080,note_on,0,0,1,,,,,,,,,0,,,80,67
4080,note_on,0,0,1,,,,,,,,,0,,,75,57
4080,note_on,120,0,1,,,,,,,,,0,,,82,0
4200,note_on,0,0,1,,,,,,,,,0,,,82,69
4200,note_on,0,0,1,,,,,,,,,0,,,75,59
4200,note_on,0,0,1,,,,,,,,,0,,,75,0
4200,note_on,120,0,1,,,,,,,,,0,,,80,0
4200,note_on,0,0,1,,,,,,,,,0,,,73,59
4200,note_on,120,0,2,,,,,,,,,0,,,51,0
4200,note_on,0,0,2,,,,,,,,,0,,,43,69
4200,note_on,0,0,2,,,,,,,,,0,,,48,0
4200,note_on,0,0,2,,,,,,,,,0,,,51,59
4320,note_on,0,0,1,,,,,,,,,0,,,75,0
4320,note_on,120,0,1,,,,,,,,,0,,,82,0
4320,note_on,0,0,1,,,,,,,,,0,,,75,61
4320,note_on,0,0,1,,,,,,,,,0,,,72,61
4320,note_on,0,0,1,,,,,,,,,0,,,84,71
4320,note_on,0,0,1,,,,,,,,,0,,,73,0
4320,note_on,0,0,2,,,,,,,,,0,,,51,61
4320,note_on,0,0,2,,,,,,,,,0,,,44,71
4320,note_on,120,0,2,,,,,,,,,0,,,43,0
4320,note_on,0,0,2,,,,,,,,,0,,,51,0
4560,note_on,0,0,1,,,,,,,,,0,,,75,0
4560,note_on,0,0,1,,,,,,,,,0,,,75,76
4560,note_on,240,0,1,,,,,,,,,0,,,84,0
4560,note_on,0,0,1,,,,,,,,,0,,,72,0
4560,note_on,240,0,2,,,,,,,,,0,,,44,0
4560,note_on,0,0,2,,,,,,,,,0,,,51,0
4560,note_on,0,0,2,,,,,,,,,0,,,51,76
4680,control_change,720,0,3,,,,,,,,,0,64,127,,
4680,note_on,0,0,2,,,,,,,,,0,,,44,78
4680,note_on,120,0,2,,,,,,,,,0,,,51,0
4680,note_on,120,0,1,,,,,,,,,0,,,75,0
4680,note_on,0,0,1,,,,,,,,,0,,,72,68
4680,note_on,0,0,1,,,,,,,,,0,,,75,68
4680,note_on,0,0,1,,,,,,,,,0,,,84,78
4680,note_on,0,0,2,,,,,,,,,0,,,51,68
4800,note_on,0,0,1,,,,,,,,,0,,,84,80
4800,note_on,0,0,1,,,,,,,,,0,,,72,70
4800,note_on,0,0,1,,,,,,,,,0,,,75,70
4800,note_on,0,0,1,,,,,,,,,0,,,72,0
4800,note_on,0,0,1,,,,,,,,,0,,,75,0
4800,note_on,120,0,1,,,,,,,,,0,,,84,0
4800,note_on,120,0,2,,,,,,,,,0,,,51,0
4800,note_on,0,0,2,,,,,,,,,0,,,51,70
4980,note_on,0,0,1,,,,,,,,,0,,,85,83
4980,note_on,180,0,1,,,,,,,,,0,,,84,0
4980,control_change,300,0,3,,,,,,,,,0,64,0,,
5040,note_on,0,0,1,,,,,,,,,0,,,72,0
5040,note_on,0,0,1,,,,,,,,,0,,,75,0
5040,note_on,0,0,1,,,,,,,,,0,,,84,84
5040,note_on,60,0,1,,,,,,,,,0,,,85,0
5040,note_on,240,0,2,,,,,,,,,0,,,51,0
5040,note_on,0,0,2,,,,,,,,,0,,,44,0
5040,note_on,0,0,2,,,,,,,,,0,,,48,74
5040,note_on,0,0,2,,,,,,,,,0,,,43,84
5040,note_on,0,0,1,,,,,,,,,0,,,72,74
5040,note_on,0,0,1,,,,,,,,,0,,,76,74
5160,note_on,120,0,1,,,,,,,,,0,,,84,0
5160,note_on,0,0,1,,,,,,,,,0,,,76,0
5160,note_on,0,0,1,,,,,,,,,0,,,72,0
5160,note_on,0,0,1,,,,,,,,,0,,,76,77
5160,note_on,0,0,1,,,,,,,,,0,,,82,87
5160,note_on,0,0,1,,,,,,,,,0,,,72,77
5160,note_on,120,0,2,,,,,,,,,0,,,48,0
5160,note_on,0,0,2,,,,,,,,,0,,,48,77
5340,note_on,180,0,1,,,,,,,,,0,,,82,0
5340,note_on,0,0,1,,,,,,,,,0,,,84,90
5400,note_on,240,0,2,,,,,,,,,0,,,48,0
5400,note_on,0,0,2,,,,,,,,,0,,,48,80
5400,note_on,0,0,2,,,,,,,,,0,,,41,90
5400,note_on,60,0,1,,,,,,,,,0,,,84,0
5400,note_on,0,0,1,,,,,,,,,0,,,72,0
5400,note_on,0,0,1,,,,,,,,,0,,,76,0
5400,note_on,0,0,1,,,,,,,,,0,,,72,80
5400,note_on,0,0,1,,,,,,,,,0,,,77,80
5400,note_on,0,0,1,,,,,,,,,0,,,82,90
5400,note_on,0,0,2,,,,,,,,,0,,,43,0
5520,note_on,0,0,1,,,,,,,,,0,,,77,0
5520,note_on,120,0,1,,,,,,,,,0,,,82,0
5520,note_on,0,0,2,,,,,,,,,0,,,48,66
5520,note_on,0,0,1,,,,,,,,,0,,,80,76
5520,note_on,120,0,2,,,,,,,,,0,,,48,0
5520,note_on,0,0,1,,,,,,,,,0,,,77,66
5520,note_on,0,0,1,,,,,,,,,0,,,72,0
5520,note_on,0,0,1,,,,,,,,,0,,,72,66
5580,note_on,60,0,1,,,,,,,,,0,,,80,0
5580,note_on,0,0,1,,,,,,,,,0,,,82,68
5595,note_on,15,0,1,,,,,,,,,0,,,82,0
5595,note_on,0,0,1,,,,,,,,,0,,,80,66
5610,note_on,15,0,1,,,,,,,,,0,,,80,0
5610,note_on,0,0,1,,,,,,,,,0,,,79,64
5625,note_on,15,0,1,,,,,,,,,0,,,79,0
5625,note_on,0,0,1,,,,,,,,,0,,,80,62
5640,note_on,120,0,2,,,,,,,,,0,,,48,0
5640,note_on,0,0,2,,,,,,,,,0,,,41,0
5640,note_on,0,0,2,,,,,,,,,0,,,51,51
5640,note_on,0,0,2,,,,,,,,,0,,,39,61
5640,control_change,660,0,3,,,,,,,,,0,64,127,,
5640,note_on,0,0,1,,,,,,,,,0,,,84,61
5640,note_on,0,0,1,,,,,,,,,0,,,79,51
5640,note_on,0,0,1,,,,,,,,,0,,,73,51
5640,note_on,0,0,1,,,,,,,,,0,,,72,0
5640,note_on,15,0,1,,,,,,,,,0,,,80,0
5640,note_on,0,0,1,,,,,,,,,0,,,77,0
5730,note_on,90,0,1,,,,,,,,,0,,,84,0
5730,note_on,0,0,1,,,,,,,,,0,,,82,50
5745,control_change,105,0,3,,,,,,,,,0,64,0,,
5760,note_on,0,0,2,,,,,,,,,0,,,51,0
5760,note_on,120,0,2,,,,,,,,,0,,,39,0
5760,note_on,0,0,2,,,,,,,,,0,,,44,50
5760,note_on,0,0,2,,,,,,,,,0,,,51,40
5760,note_on,30,0,1,,,,,,,,,0,,,82,0
5760,note_on,0,0,1,,,,,,,,,0,,,79,0
5760,note_on,0,0,1,,,,,,,,,0,,,80,50
5760,note_on,0,0,1,,,,,,,,,0,,,72,40
5760,note_on,0,0,1,,,,,,,,,0,,,73,0
6000,note_on,0,0,1,,,,,,,,,0,,,63,50
6000,note_on,0,0,1,,,,,,,,,0,,,72,0
6000,note_on,240,0,1,,,,,,,,,0,,,80,0
6000,note_on,0,0,2,,,,,,,,,0,,,51,50
6000,control_change,255,0,3,,,,,,,,,0,64,127,,
6000,note_on,0,0,2,,,,,,,,,0,,,51,0
6000,note_on,240,0,2,,,,,,,,,0,,,44,0
6120,note_on,120,0,2,,,,,,,,,0,,,51,0
6120,note_on,0,0,1,,,,,,,,,0,,,68,52
6120,note_on,0,0,1,,,,,,,,,0,,,63,42
6120,note_on,0,0,1,,,,,,,,,0,,,60,42
6120,note_on,0,0,2,,,,,,,,,0,,,51,42
6120,note_on,0,0,2,,,,,,,,,0,,,44,52
6120,note_on,120,0,1,,,,,,,,,0,,,63,0
6240,note_on,0,0,1,,,,,,,,,0,,,60,44
6240,note_on,120,0,1,,,,,,,,,0,,,68,0
6240,note_on,0,0,1,,,,,,,,,0,,,68,54
6240,note_on,0,0,1,,,,,,,,,0,,,63,44
6240,note_on,0,0,2,,,,,,,,,0,,,51,44
6240,note_on,120,0,2,,,,,,,,,0,,,51,0
6240,note_on,0,0,1,,,,,,,,,0,,,63,0
6240,note_on,0,0,1,,,,,,,,,0,,,60,0
6420,note_on,0,0,1,,,,,,,,,0,,,70,57
6420,note_on,180,0,1,,,,,,,,,0,,,68,0
6420,control_change,420,0,3,,,,,,,,,0,64,0,,
6480,note_on,0,0,1,,,,,,,,,0,,,68,58
6480,note_on,240,0,2,,,,,,,,,0,,,51,0
6480,note_on,0,0,2,,,,,,,,,0,,,44,0
6480,note_on,0,0,2,,,,,,,,,0,,,51,48
6480,note_on,0,0,2,,,,,,,,,0,,,46,58
6480,note_on,60,0,1,,,,,,,,,0,,,70,0
6480,note_on,0,0,1,,,,,,,,,0,,,63,0
6480,note_on,0,0,1,,,,,,,,,0,,,60,0
6480,note_on,0,0,1,,,,,,,,,0,,,61,48
6480,note_on,0,0,1,,,,,,,,,0,,,63,48
6600,note_on,120,0,1,,,,,,,,,0,,,68,0
6600,note_on,0,0,2,,,,,,,,,0,,,51,50
6600,control_change,180,0,3,,,,,,,,,0,64,127,,
6600,note_on,0,0,1,,,,,,,,,0,,,63,0
6600,note_on,0,0,1,,,,,,,,,0,,,61,0
6600,note_on,0,0,1,,,,,,,,,0,,,67,60
6600,note_on,0,0,1,,,,,,,,,0,,,63,50
6600,note_on,120,0,2,,,,,,,,,0,,,51,0
6600,note_on,0,0,1,,,,,,,,,0,,,61,50
6780,note_on,180,0,1,,,,,,,,,0,,,67,0
6780,note_on,0,0,1,,,,,,,,,0,,,70,64
6840,note_on,0,0,2,,,,,,,,,0,,,46,0
6840,note_on,0,0,2,,,,,,,,,0,,,51,55
6840,note_on,0,0,2,,,,,,,,,0,,,48,65
6840,control_change,240,0,3,,,,,,,,,0,64,0,,
6840,note_on,240,0,2,,,,,,,,,0,,,51,0
6840,note_on,0,0,1,,,,,,,,,0,,,70,65
6840,note_on,0,0,1,,,,,,,,,0,,,61,0
6840,note_on,0,0,1,,,,,,,,,0,,,63,0
6840,note_on,60,0,1,,,,,,,,,0,,,70,0
6960,note_on,0,0,1,,,,,,,,,0,,,68,67
6960,note_on,0,0,2,,,,,,,,,0,,,51,57
6960,note_on,120,0,2,,,,,,,,,0,,,51,0
6960,note_on,120,0,1,,,,,,,,,0,,,70,0
6960,note_on,0,0,1,,,,,,,,,0,,,63,57
7080,note_on,120,0,1,,,,,,,,,0,,,68,0
7080,note_on,0,0,1,,,,,,,,,0,,,63,59
7080,note_on,0,0,1,,,,,,,,,0,,,70,69
7080,note_on,0,0,1,,,,,,,,,0,,,61,59
7080,note_on,0,0,2,,,,,,,,,0,,,43,69
7080,note_on,120,0,2,,,,,,,,,0,,,51,0
7080,note_on,0,0,2,,,,,,,,,0,,,48,0
7080,note_on,0,0,1,,,,,,,,,0,,,63,0
7080,note_on,0,0,2,,,,,,,,,0,,,51,59
7200,note_on,0,0,1,,,,,,,,,0,,,72,71
7200,note_on,0,0,2,,,,,,,,,0,,,44,71
7200,note_on,0,0,2,,,,,,,,,0,,,51,61
7200,note_on,0,0,2,,,,,,,,,0,,,51,0
7200,note_on,0,0,1,,,,,,,,,0,,,60,61
7200,note_on,120,0,2,,,,,,,,,0,,,43,0
7200,note_on,0,0,1,,,,,,,,,0,,,63,61
7200,note_on,0,0,1,,,,,,,,,0,,,63,0
7200,note_on,0,0,1,,,,,,,,,0,,,61,0
7200,note_on,120,0,1,,,,,,,,,0,,,70,0
7440,note_on,240,0,1,,,,,,,,,0,,,72,0
7440,note_on,0,0,1,,,,,,,,,0,,,63,0
7440,note_on,0,0,2,,,,,,,,,0,,,51,76
7440,note_on,240,0,2,,,,,,,,,0,,,44,0
7440,note_on,0,0,1,,,,,,,,,0,,,60,0
7440,note_on,0,0,1,,,,,,,,,0,,,63,76
7440,note_on,0,0,2,,,,,,,,,0,,,51,0
7560,note_on,0,0,1,,,,,,,,,0,,,63,68
7560,note_on,0,0,1,,,,,,,,,0,,,60,68
7560,note_on,0,0,1,,,,,,,,,0,,,72,78
7560,note_on,120,0,2,,,,,,,,,0,,,51,0
7560,note_on,0,0,2,,,,,,,,,0,,,51,68
7560,note_on,0,0,2,,,,,,,,,0,,,44,78
7560,control_change,720,0,3,,,,,,,,,0,64,127,,
7560,note_on,120,0,1,,,,,,,,,0,,,63,0
7680,note_on,0,0,1,,,,,,,,,0,,,60,0
7680,note_on,120,0,1,,,,,,,,,0,,,72,0
7680,note_on,0,0,1,,,,,,,,,0,,,72,80
7680,note_on,120,0,2,,,,,,,,,0,,,51,0
7680,note_on,0,0,2,,,,,,,,,0,,,51,70
7680,note_on,0,0,1,,,,,,,,,0,,,60,70
7680,note_on,0,0,1,,,,,,,,,0,,,63,70
7680,note_on,0,0,1,,,,,,,,,0,,,63,0
7860,note_on,0,0,1,,,,,,,,,0,,,61,73
7860,note_on,180,0,1,,,,,,,,,0,,,72,0
7860,note_on,0,0,1,,,,,,,,,0,,,60,0
7860,note_on,0,0,1,,,,,,,,,0,,,63,0
7860,note_on,0,0,1,,,,,,,,,0,,,63,73
7860,note_on,0,0,1,,,,,,,,,0,,,73,83
7920,note_on,0,0,2,,,,,,,,,0,,,49,84
7920,note_on,240,0,2,,,,,,,,,0,,,51,0
7920,note_on,0,0,2,,,,,,,,,0,,,44,0
7920,note_on,0,0,1,,,,,,,,,0,,,72,84
7920,note_on,0,0,1,,,,,,,,,0,,,60,74
7920,note_on,0,0,1,,,,,,,,,0,,,63,74
7920,note_on,0,0,1,,,,,,,,,0,,,63,0
7920,control_change,360,0,3,,,,,,,,,0,64,0,,
7920,note_on,60,0,1,,,,,,,,,0,,,73,0
7920,note_on,0,0,2,,,,,,,,,0,,,51,74
7920,note_on,0,0,1,,,,,,,,,0,,,61,0
8040,note_on,0,0,2,,,,,,,,,0,,,51,77
8040,note_on,0,0,1,,,,,,,,,0,,,58,77
8040,note_on,0,0,1,,,,,,,,,0,,,70,87
8040,note_on,120,0,1,,,,,,,,,0,,,72,0
8040,note_on,0,0,1,,,,,,,,,0,,,63,77
8040,note_on,0,0,1,,,,,,,,,0,,,63,0
8040,note_on,0,0,1,,,,,,,,,0,,,60,0
8040,note_on,120,0,2,,,,,,,,,0,,,51,0
8220,note_on,0,0,1,,,,,,,,,0,,,58,0
8220,note_on,0,0,1,,,,,,,,,0,,,63,80
8220,note_on,0,0,1,,,,,,,,,0,,,63,0
8220,note_on,0,0,1,,,,,,,,,0,,,72,90
8220,note_on,180,0,1,,,,,,,,,0,,,70,0
8220,note_on,0,0,1,,,,,,,,,0,,,60,80
8280,note_on,0,0,2,,,,,,,,,0,,,49,0
8280,note_on,0,0,2,,,,,,,,,0,,,51,80
8280,note_on,60,0,1,,,,,,,,,0,,,72,0
8280,note_on,0,0,1,,,,,,,,,0,,,60,0
8280,note_on,0,0,1,,,,,,,,,0,,,63,0
8280,note_on,0,0,1,,,,,,,,,0,,,63,80
8280,note_on,0,0,1,,,,,,,,,0,,,70,90
8280,note_on,240,0,2,,,,,,,,,0,,,51,0
8280,note_on,0,0,1,,,,,,,,,0,,,58,80
8280,note_on,0,0,2,,,,,,,,,0,,,48,90
8400,note_on,0,0,1,,,,,,,,,0,,,56,66
8400,note_on,0,0,1,,,,,,,,,0,,,63,0
8400,note_on,0,0,1,,,,,,,,,0,,,68,76
8400,note_on,120,0,1,,,,,,,,,0,,,70,0
8400,note_on,0,0,2,,,,,,,,,0,,,51,66
8400,note_on,120,0,2,,,,,,,,,0,,,51,0
8400,note_on,0,0,1,,,,,,,,,0,,,63,66
8400,note_on,0,0,1,,,,,,,,,0,,,58,0
8520,note_on,120,0,1,,,,,,,,,0,,,68,0
8520,note_on,0,0,1,,,,,,,,,0,,,63,0
8520,note_on,0,0,1,,,,,,,,,0,,,56,0
8520,note_on,0,0,1,,,,,,,,,0,,,75,61
8520,note_on,0,0,1,,,,,,,,,0,,,70,51
8520,control_change,600,0,3,,,,,,,,,0,64,127,,
8520,note_on,0,0,1,,,,,,,,,0,,,63,51
8520,note_on,120,0,2,,,,,,,,,0,,,51,0
8520,note_on,0,0,2,,,,,,,,,0,,,48,0
8520,note_on,0,0,2,,,,,,,,,0,,,51,51
8520,note_on,0,0,2,,,,,,,,,0,,,43,61
8610,note_on,0,0,1,,,,,,,,,0,,,73,50
8610,note_on,90,0,1,,,,,,,,,0,,,75,0
8640,note_on,0,0,1,,,,,,,,,0,,,63,40
8640,note_on,0,0,1,,,,,,,,,0,,,72,50
8640,note_on,0,0,1,,,,,,,,,0,,,68,40
8640,note_on,0,0,1,,,,,,,,,0,,,70,0
8640,note_on,0,0,1,,,,,,,,,0,,,63,0
8640,note_on,0,0,2,,,,,,,,,0,,,44,50
8640,note_on,0,0,2,,,,,,,,,0,,,51,40
8640,note_on,30,0,1,,,,,,,,,0,,,73,0
8640,note_on,120,0,2,,,,,,,,,0,,,43,0
8640,control_change,120,0,3,,,,,,,,,0,64,0,,
8640,note_on,0,0,2,,,,,,,,,0,,,51,0
8880,note_on,0,0,1,,,,,,,,,0,,,68,0
8880,note_on,0,0,1,,,,,,,,,0,,,75,50
8880,note_on,0,0,1,,,,,,,,,0,,,63,0
8880,note_on,240,0,1,,,,,,,,,0,,,72,0
8880,note_on,0,0,2,,,,,,,,,0,,,51,50
8880,note_on,0,0,2,,,,,,,,,0,,,51,0
8880,note_on,240,0,2,,,,,,,,,0,,,44,0
9000,note_on,0,0,2,,,,,,,,,0,,,51,42
9000,note_on,120,0,2,,,,,,,,,0,,,51,0
9000,note_on,0,0,1,,,,,,,,,0,,,80,52
9000,control_change,360,0,3,,,,,,,,,0,64,127,,
9000,note_on,0,0,1,,,,,,,,,0,,,75,42
9000,note_on,0,0,1,,,,,,,,,0,,,72,42
9000,note_on,120,0,1,,,,,,,,,0,,,75,0
9000,note_on,0,0,2,,,,,,,,,0,,,44,52
9120,note_on,0,0,1,,,,,,,,,0,,,80,54
9120,note_on,0,0,1,,,,,,,,,0,,,72,44
9120,note_on,0,0,1,,,,,,,,,0,,,72,0
9120,note_on,120,0,1,,,,,,,,,0,,,80,0
9120,note_on,0,0,1,,,,,,,,,0,,,75,0
9120,note_on,0,0,1,,,,,,,,,0,,,75,44
9120,note_on,120,0,2,,,,,,,,,0,,,51,0
9120,note_on,0,0,2,,,,,,,,,0,,,51,44
9300,note_on,0,0,1,,,,,,,,,0,,,82,57
9300,note_on,180,0,1,,,,,,,,,0,,,80,0
9300,control_change,300,0,3,,,,,,,,,0,64,0,,
9360,note_on,0,0,1,,,,,,,,,0,,,73,48
9360,note_on,0,0,1,,,,,,,,,0,,,75,0
9360,note_on,0,0,1,,,,,,,,,0,,,72,0
9360,note_on,60,0,1,,,,,,,,,0,,,82,0
9360,note_on,240,0,2,,,,,,,,,0,,,51,0
9360,note_on,0,0,2,,,,,,,,,0,,,44,0
9360,note_on,0,0,2,,,,,,,,,0,,,51,48
9360,note_on,0,0,2,,,,,,,,,0,,,46,58
9360,note_on,0,0,1,,,,,,,,,0,,,75,48
9360,note_on,0,0,1,,,,,,,,,0,,,80,58
9480,control_change,180,0,3,,,,,,,,,0,64,127,,
9480,note_on,0,0,1,,,,,,,,,0,,,75,50
9480,note_on,0,0,1,,,,,,,,,0,,,75,0
9480,note_on,0,0,1,,,,,,,,,0,,,79,60
9480,note_on,120,0,2,,,,,,,,,0,,,51,0
9480,note_on,0,0,1,,,,,,,,,0,,,73,50
9480,note_on,0,0,1,,,,,,,,,0,,,73,0
9480,note_on,120,0,1,,,,,,,,,0,,,80,0
9480,note_on,0,0,2,,,,,,,,,0,,,51,50
9660,note_on,180,0,1,,,,,,,,,0,,,79,0
9660,note_on,0,0,1,,,,,,,,,0,,,82,64
9720,note_on,0,0,1,,,,,,,,,0,,,73,0
9720,note_on,240,0,2,,,,,,,,,0,,,51,0
9720,control_change,240,0,3,,,,,,,,,0,64,0,,
9720,note_on,0,0,2,,,,,,,,,0,,,46,0
9720,note_on,0,0,1,,,,,,,,,0,,,75,0
9720,note_on,60,0,1,,,,,,,,,0,,,82,0
9720,note_on,0,0,1,,,,,,,,,0,,,82,65
9720,note_on,0,0,2,,,,,,,,,0,,,51,55
9720,note_on,0,0,2,,,,,,,,,0,,,48,65
9840,note_on,0,0,1,,,,,,,,,0,,,80,67
9840,note_on,120,0,1,,,,,,,,,0,,,82,0
9840,note_on,120,0,2,,,,,,,,,0,,,51,0
9840,note_on,0,0,2,,,,,,,,,0,,,51,57
9840,note_on,0,0,1,,,,,,,,,0,,,75,57
9960,note_on,0,0,1,,,,,,,,,0,,,75,59
9960,note_on,120,0,1,,,,,,,,,0,,,80,0
9960,note_on,0,0,1,,,,,,,,,0,,,75,0
9960,note_on,0,0,1,,,,,,,,,0,,,73,59
9960,note_on,0,0,1,,,,,,,,,0,,,82,69
9960,note_on,0,0,2,,,,,,,,,0,,,43,69
9960,note_on,0,0,2,,,,,,,,,0,,,51,59
9960,note_on,0,0,2,,,,,,,,,0,,,48,0
9960,note_on,120,0,2,,,,,,,,,0,,,51,0
10080,note_on,0,0,1,,,,,,,,,0,,,75,0
10080,note_on,0,0,2,,,,,,,,,0,,,44,71
10080,note_on,0,0,2,,,,,,,,,0,,,51,61
10080,note_on,0,0,2,,,,,,,,,0,,,51,0
10080,note_on,120,0,1,,,,,,,,,0,,,82,0
10080,note_on,0,0,1,,,,,,,,,0,,,73,0
10080,note_on,0,0,1,,,,,,,,,0,,,75,61
10080,note_on,0,0,1,,,,,,,,,0,,,72,61
10080,note_on,0,0,1,,,,,,,,,0,,,84,71
10080,note_on,120,0,2,,,,,,,,,0,,,43,0
10320,note_on,240,0,1,,,,,,,,,0,,,84,0
10320,note_on,0,0,1,,,,,,,,,0,,,72,0
10320,note_on,0,0,1,,,,,,,,,0,,,75,0
10320,note_on,0,0,1,,,,,,,,,0,,,75,76
10320,note_on,0,0,2,,,,,,,,,0,,,51,76
10320,note_on,240,0,2,,,,,,,,,0,,,44,0
10320,note_on,0,0,2,,,,,,,,,0,,,51,0
10440,control_change,720,0,3,,,,,,,,,0,64,127,,
10440,note_on,120,0,2,,,,,,,,,0,,,51,0
10440,note_on,0,0,2,,,,,,,,,0,,,51,68
10440,note_on,120,0,1,,,,,,,,,0,,,75,0
10440,note_on,0,0,1,,,,,,,,,0,,,72,68
10440,note_on,0,0,1,,,,,,,,,0,,,75,68
10440,note_on,0,0,1,,,,,,,,,0,,,84,78
10440,note_on,0,0,2,,,,,,,,,0,,,44,78
10560,note_on,0,0,1,,,,,,,,,0,,,75,0
10560,note_on,0,0,1,,,,,,,,,0,,,84,80
10560,note_on,0,0,2,,,,,,,,,0,,,51,70
10560,note_on,0,0,1,,,,,,,,,0,,,72,0
10560,note_on,0,0,1,,,,,,,,,0,,,72,70
10560,note_on,0,0,1,,,,,,,,,0,,,75,70
10560,note_on,120,0,1,,,,,,,,,0,,,84,0
10560,note_on,120,0,2,,,,,,,,,0,,,51,0
10740,control_change,300,0,3,,,,,,,,,0,64,0,,
10740,note_on,0,0,1,,,,,,,,,0,,,85,83
10740,note_on,180,0,1,,,,,,,,,0,,,84,0
10800,note_on,0,0,1,,,,,,,,,0,,,75,0
10800,note_on,0,0,1,,,,,,,,,0,,,72,0
10800,note_on,0,0,1,,,,,,,,,0,,,72,74
10800,note_on,0,0,1,,,,,,,,,0,,,76,74
10800,note_on,0,0,1,,,,,,,,,0,,,84,84
10800,note_on,240,0,2,,,,,,,,,0,,,51,0
10800,note_on,0,0,2,,,,,,,,,0,,,44,0
10800,note_on,0,0,2,,,,,,,,,0,,,48,74
10800,note_on,0,0,2,,,,,,,,,0,,,43,84
10800,note_on,60,0,1,,,,,,,,,0,,,85,0
10920,note_on,120,0,2,,,,,,,,,0,,,48,0
10920,note_on,0,0,2,,,,,,,,,0,,,48,77
10920,note_on,0,0,1,,,,,,,,,0,,,76,0
10920,note_on,0,0,1,,,,,,,,,0,,,82,87
10920,note_on,0,0,1,,,,,,,,,0,,,72,77
10920,note_on,0,0,1,,,,,,,,,0,,,76,77
10920,note_on,0,0,1,,,,,,,,,0,,,72,0
10920,note_on,120,0,1,,,,,,,,,0,,,84,0
11100,note_on,0,0,1,,,,,,,,,0,,,84,90
11100,note_on,180,0,1,,,,,,,,,0,,,82,0
11160,note_on,0,0,2,,,,,,,,,0,,,43,0
11160,note_on,0,0,2,,,,,,,,,0,,,41,90
11160,note_on,0,0,1,,,,,,,,,0,,,72,0
11160,note_on,0,0,1,,,,,,,,,0,,,76,0
11160,note_on,0,0,1,,,,,,,,,0,,,72,80
11160,note_on,0,0,1,,,,,,,,,0,,,77,80
11160,note_on,0,0,1,,,,,,,,,0,,,82,90
11160,note_on,240,0,2,,,,,,,,,0,,,48,0
11160,note_on,60,0,1,,,,,,,,,0,,,84,0
11160,note_on,0,0,2,,,,,,,,,0,,,48,80
11280,note_on,0,0,1,,,,,,,,,0,,,72,66
11280,note_on,0,0,1,,,,,,,,,0,,,77,0
11280,note_on,0,0,2,,,,,,,,,0,,,48,66
11280,note_on,120,0,2,,,,,,,,,0,,,48,0
11280,note_on,120,0,1,,,,,,,,,0,,,82,0
11280,note_on,0,0,1,,,,,,,,,0,,,72,0
11280,note_on,0,0,1,,,,,,,,,0,,,80,76
11280,note_on,0,0,1,,,,,,,,,0,,,77,66
11340,note_on,60,0,1,,,,,,,,,0,,,80,0
11340,note_on,0,0,1,,,,,,,,,0,,,82,68
11355,note_on,0,0,1,,,,,,,,,0,,,80,66
11355,note_on,15,0,1,,,,,,,,,0,,,82,0
11370,note_on,15,0,1,,,,,,,,,0,,,80,0
11370,note_on,0,0,1,,,,,,,,,0,,,79,64
11385,note_on,15,0,1,,,,,,,,,0,,,79,0
11385,note_on,0,0,1,,,,,,,,,0,,,80,62
11400,note_on,0,0,2,,,,,,,,,0,,,39,61
11400,note_on,120,0,2,,,,,,,,,0,,,48,0
11400,control_change,660,0,3,,,,,,,,,0,64,127,,
11400,note_on,0,0,1,,,,,,,,,0,,,79,51
11400,note_on,0,0,2,,,,,,,,,0,,,51,51
11400,note_on,0,0,1,,,,,,,,,0,,,73,51
11400,note_on,0,0,1,,,,,,,,,0,,,77,0
11400,note_on,0,0,1,,,,,,,,,0,,,72,0
11400,note_on,15,0,1,,,,,,,,,0,,,80,0
11400,note_on,0,0,1,,,,,,,,,0,,,84,61
11400,note_on,0,0,2,,,,,,,,,0,,,41,0
11490,note_on,0,0,1,,,,,,,,,0,,,82,50
11490,note_on,90,0,1,,,,,,,,,0,,,84,0
11505,control_change,105,0,3,,,,,,,,,0,64,0,,
11520,note_on,0,0,2,,,,,,,,,0,,,51,0
11520,note_on,120,0,2,,,,,,,,,0,,,39,0
11520,note_on,0,0,2,,,,,,,,,0,,,44,50
11520,note_on,0,0,2,,,,,,,,,0,,,51,40
11520,note_on,0,0,1,,,,,,,,,0,,,79,0
11520,note_on,30,0,1,,,,,,,,,0,,,82,0
11520,note_on,0,0,1,,,,,,,,,0,,,73,0
11520,note_on,0,0,1,,,,,,,,,0,,,72,40
11520,note_on,0,0,1,,,,,,,,,0,,,80,50
11760,note_on,240,0,1,,,,,,,,,0,,,80,0
11760,note_on,0,0,1,,,,,,,,,0,,,72,0
11760,note_on,0,0,2,,,,,,,,,0,,,51,0
11760,note_on,240,0,2,,,,,,,,,0,,,44,0
11820,control_change,315,0,3,,,,,,,,,0,64,127,,
11820,note_on,60,0,1,,,,,,,,,0,,,63,100
11820,note_on,0,0,1,,,,,,,,,0,,,75,100
11820,note_on,0,0,2,,,,,,,,,0,,,56,100
11820,note_on,60,0,2,,,,,,,,,0,,,48,100
11820,note_on,0,0,2,,,,,,,,,0,,,60,100
11820,note_on,0,0,1,,,,,,,,,0,,,68,100
11880,note_on,0,0,2,,,,,,,,,0,,,56,0
11880,note_on,60,0,2,,,,,,,,,0,,,60,0
11880,note_on,0,0,2,,,,,,,,,0,,,48,0
11880,note_on,0,0,1,,,,,,,,,0,,,63,100
11880,note_on,0,0,2,,,,,,,,,0,,,56,100
11880,note_on,0,0,2,,,,,,,,,0,,,60,100
11880,note_on,0,0,1,,,,,,,,,0,,,63,0
11880,note_on,60,0,1,,,,,,,,,0,,,75,0
11880,marker,11880,1,0,,,,,,,,,,,,,
11880,note_on,0,0,1,,,,,,,,,0,,,75,100
11880,note_on,0,0,1,,,,,,,,,0,,,68,0
11880,note_on,0,0,2,,,,,,,,,0,,,48,100
11880,note_on,0,0,1,,,,,,,,,0,,,68,100
12000,note_on,0,0,1,,,,,,,,,0,,,75,100
12000,note_on,0,0,2,,,,,,,,,0,,,56,0
12000,note_on,0,0,2,,,,,,,,,0,,,48,0
12000,note_on,0,0,2,,,,,,,,,0,,,48,100
12000,note_on,0,0,2,,,,,,,,,0,,,56,100
12000,note_on,0,0,2,,,,,,,,,0,,,60,100
12000,note_on,0,0,1,,,,,,,,,0,,,68,100
12000,note_on,0,0,1,,,,,,,,,0,,,63,0
12000,note_on,0,0,1,,,,,,,,,0,,,68,0
12000,note_on,120,0,1,,,,,,,,,0,,,75,0
12000,note_on,120,0,2,,,,,,,,,0,,,60,0
12000,note_on,0,0,1,,,,,,,,,0,,,63,100
12180,note_on,180,0,2,,,,,,,,,0,,,60,0
12180,note_on,0,0,2,,,,,,,,,0,,,48,0
12180,note_on,0,0,2,,,,,,,,,0,,,56,0
12180,note_on,0,0,2,,,,,,,,,0,,,56,100
12180,note_on,0,0,2,,,,,,,,,0,,,51,100
12180,note_on,0,0,2,,,,,,,,,0,,,44,100
12180,note_on,180,0,1,,,,,,,,,0,,,75,0
12180,note_on,0,0,1,,,,,,,,,0,,,68,0
12180,note_on,0,0,1,,,,,,,,,0,,,63,0
12180,note_on,0,0,1,,,,,,,,,0,,,72,100
12180,note_on,0,0,1,,,,,,,,,0,,,63,100
12180,note_on,0,0,1,,,,,,,,,0,,,60,100
12180,control_change,360,0,3,,,,,,,,,0,64,0,,
12240,note_on,60,0,1,,,,,,,,,0,,,60,0
12240,note_on,0,0,1,,,,,,,,,0,,,63,0
12240,note_on,0,0,1,,,,,,,,,0,,,72,0
12240,note_on,0,0,1,,,,,,,,,0,,,72,100
12240,control_change,60,0,3,,,,,,,,,0,64,127,,
12240,note_on,0,0,2,,,,,,,,,0,,,44,100
12240,note_on,0,0,2,,,,,,,,,0,,,51,100
12240,note_on,0,0,2,,,,,,,,,0,,,56,100
12240,note_on,0,0,2,,,,,,,,,0,,,56,0
12240,note_on,0,0,2,,,,,,,,,0,,,51,0
12240,note_on,60,0,2,,,,,,,,,0,,,44,0
12240,note_on,0,0,1,,,,,,,,,0,,,63,100
12240,note_on,0,0,1,,,,,,,,,0,,,60,100
12360,note_on,0,0,2,,,,,,,,,0,,,56,0
12360,note_on,0,0,2,,,,,,,,,0,,,51,0
12360,note_on,120,0,2,,,,,,,,,0,,,44,0
12360,note_on,0,0,2,,,,,,,,,0,,,51,100
12360,note_on,0,0,2,,,,,,,,,0,,,56,100
12360,note_on,0,0,1,,,,,,,,,0,,,60,100
12360,note_on,0,0,1,,,,,,,,,0,,,63,100
12360,note_on,0,0,1,,,,,,,,,0,,,72,100
12360,note_on,0,0,1,,,,,,,,,0,,,72,0
12360,note_on,0,0,1,,,,,,,,,0,,,63,0
12360,note_on,120,0,1,,,,,,,,,0,,,60,0
12360,note_on,0,0,2,,,,,,,,,0,,,44,100
12540,note_on,180,0,2,,,,,,,,,0,,,44,0
12540,note_on,0,0,2,,,,,,,,,0,,,51,0
12540,note_on,0,0,2,,,,,,,,,0,,,56,0
12540,note_on,0,0,2,,,,,,,,,0,,,41,100
12540,note_on,0,0,2,,,,,,,,,0,,,53,100
12540,note_on,0,0,1,,,,,,,,,0,,,60,100
12540,note_on,0,0,1,,,,,,,,,0,,,65,100
12540,note_on,0,0,1,,,,,,,,,0,,,72,0
12540,note_on,0,0,1,,,,,,,,,0,,,63,0
12540,note_on,180,0,1,,,,,,,,,0,,,60,0
12540,control_change,300,0,3,,,,,,,,,0,64,0,,
12540,note_on,0,0,1,,,,,,,,,0,,,68,100
12600,note_on,0,0,2,,,,,,,,,0,,,53,100
12600,note_on,60,0,2,,,,,,,,,0,,,53,0
12600,note_on,0,0,2,,,,,,,,,0,,,41,0
12600,note_on,0,0,2,,,,,,,,,0,,,41,100
12600,note_on,0,0,1,,,,,,,,,0,,,65,0
12600,note_on,0,0,1,,,,,,,,,0,,,68,100
12600,note_on,0,0,1,,,,,,,,,0,,,60,100
12600,note_on,0,0,1,,,,,,,,,0,,,65,100
12600,note_on,60,0,1,,,,,,,,,0,,,60,0
12600,note_on,0,0,1,,,,,,,,,0,,,68,0
12630,note_on,0,0,1,,,,,,,,,0,,,68,0
12630,note_on,0,0,1,,,,,,,,,0,,,65,0
12630,note_on,30,0,1,,,,,,,,,0,,,60,0
12630,note_on,30,0,2,,,,,,,,,0,,,53,0
12630,note_on,0,0,2,,,,,,,,,0,,,41,0
12720,note_on,0,0,2,,,,,,,,,0,,,55,100
12720,note_on,90,0,2,,,,,,,,,0,,,43,100
12720,note_on,90,0,1,,,,,,,,,0,,,70,100
12720,note_on,0,0,1,,,,,,,,,0,,,63,100
12720,note_on,0,0,1,,,,,,,,,0,,,61,100
12750,note_on,30,0,1,,,,,,,,,0,,,61,0
12750,note_on,0,0,1,,,,,,,,,0,,,70,0
12750,note_on,0,0,1,,,,,,,,,0,,,63,0
12750,note_on,0,0,2,,,,,,,,,0,,,43,0
12750,note_on,30,0,2,,,,,,,,,0,,,55,0
12840,note_on,90,0,1,,,,,,,,,0,,,73,100
12840,note_on,0,0,1,,,,,,,,,0,,,70,100
12840,note_on,0,0,1,,,,,,,,,0,,,67,100
12840,note_on,0,0,1,,,,,,,,,0,,,63,100
12840,note_on,0,0,1,,,,,,,,,0,,,61,100
12840,note_on,90,0,2,,,,,,,,,0,,,39,100
12840,note_on,0,0,2,,,,,,,,,0,,,51,100
12870,note_on,0,0,1,,,,,,,,,0,,,73,0
12870,note_on,30,0,1,,,,,,,,,0,,,61,0
12870,note_on,0,0,1,,,,,,,,,0,,,67,0
12870,note_on,0,0,1,,,,,,,,,0,,,70,0
12870,note_on,0,0,1,,,,,,,,,0,,,63,0
12870,note_on,30,0,2,,,,,,,,,0,,,51,0
12870,note_on,0,0,2,,,,,,,,,0,,,39,0
12960,note_on,0,0,2,,,,,,,,,0,,,51,100
12960,note_on,90,0,2,,,,,,,,,0,,,44,100
12960,note_on,0,0,2,,,,,,,,,0,,,56,100
12960,note_on,90,0,1,,,,,,,,,0,,,72,100
12960,control_change,420,0,3,,,,,,,,,0,64,127,,
12960,note_on,0,0,1,,,,,,,,,0,,,68,100
12960,note_on,0,0,1,,,,,,,,,0,,,63,100
12960,note_on,0,0,1,,,,,,,,,0,,,60,100
13200,control_change,240,0,3,,,,,,,,,0,64,0,,
13260,note_on,0,0,1,,,,,,,,,0,,,77,110
13260,control_change,60,0,3,,,,,,,,,0,64,127,,
13260,note_on,300,0,1,,,,,,,,,0,,,60,0
13260,note_on,0,0,1,,,,,,,,,0,,,63,0
13260,note_on,0,0,1,,,,,,,,,0,,,68,0
13260,note_on,0,0,1,,,,,,,,,0,,,72,0
13260,note_on,0,0,2,,,,,,,,,0,,,51,0
13260,note_on,0,0,2,,,,,,,,,0,,,44,0
13260,note_on,0,0,2,,,,,,,,,0,,,49,110
13260,note_on,0,0,2,,,,,,,,,0,,,44,110
13260,note_on,0,0,2,,,,,,,,,0,,,37,110
13260,note_on,0,0,1,,,,,,,,,0,,,65,110
13260,note_on,0,0,1,,,,,,,,,0,,,68,110
13260,note_on,300,0,2,,,,,,,,,0,,,56,0
13320,note_on,0,0,2,,,,,,,,,0,,,44,110
13320,note_on,0,0,2,,,,,,,,,0,,,49,110
13320,note_on,0,0,2,,,,,,,,,0,,,49,0
13320,note_on,0,0,2,,,,,,,,,0,,,37,110
13320,note_on,60,0,2,,,,,,,,,0,,,37,0
13320,note_on,0,0,2,,,,,,,,,0,,,44,0
13320,note_on,0,0,1,,,,,,,,,0,,,68,110
13320,note_on,0,0,1,,,,,,,,,0,,,65,110
13320,note_on,0,0,1,,,,,,,,,0,,,77,110
13320,note_on,0,0,1,,,,,,,,,0,,,77,0
13320,note_on,60,0,1,,,,,,,,,0,,,65,0
13320,note_on,0,0,1,,,,,,,,,0,,,68,0
13440,note_on,120,0,2,,,,,,,,,0,,,37,0
13440,note_on,120,0,1,,,,,,,,,0,,,65,0
13440,note_on,0,0,1,,,,,,,,,0,,,68,0
13440,note_on,0,0,2,,,,,,,,,0,,,49,0
13440,note_on,0,0,1,,,,,,,,,0,,,77,110
13440,note_on,0,0,1,,,,,,,,,0,,,68,110
13440,note_on,0,0,1,,,,,,,,,0,,,65,110
13440,note_on,0,0,2,,,,,,,,,0,,,44,110
13440,note_on,0,0,2,,,,,,,,,0,,,49,110
13440,note_on,0,0,2,,,,,,,,,0,,,44,0
13440,note_on,0,0,2,,,,,,,,,0,,,37,110
13440,note_on,0,0,1,,,,,,,,,0,,,77,0
13620,note_on,180,0,2,,,,,,,,,0,,,49,0
13620,note_on,0,0,2,,,,,,,,,0,,,44,0
13620,note_on,0,0,2,,,,,,,,,0,,,37,110
13620,note_on,0,0,2,,,,,,,,,0,,,44,110
13620,note_on,0,0,1,,,,,,,,,0,,,68,0
13620,note_on,180,0,1,,,,,,,,,0,,,65,0
13620,note_on,0,0,1,,,,,,,,,0,,,77,0
13620,note_on,0,0,1,,,,,,,,,0,,,73,110
13620,note_on,0,0,1,,,,,,,,,0,,,68,110
13620,note_on,0,0,1,,,,,,,,,0,,,65,110
13620,control_change,360,0,3,,,,,,,,,0,64,0,,
13620,note_on,0,0,2,,,,,,,,,0,,,49,110
13620,note_on,0,0,2,,,,,,,,,0,,,37,0
13680,control_change,60,0,3,,,,,,,,,0,64,127,,
13680,note_on,0,0,1,,,,,,,,,0,,,73,110
13680,note_on,0,0,2,,,,,,,,,0,,,44,0
13680,note_on,0,0,2,,,,,,,,,0,,,49,0
13680,note_on,0,0,2,,,,,,,,,0,,,37,110
13680,note_on,0,0,2,,,,,,,,,0,,,44,110
13680,note_on,0,0,1,,,,,,,,,0,,,73,0
13680,note_on,60,0,1,,,,,,,,,0,,,65,0
13680,note_on,0,0,1,,,,,,,,,0,,,68,0
13680,note_on,0,0,1,,,,,,,,,0,,,65,110
13680,note_on,0,0,1,,,,,,,,,0,,,68,110
13680,note_on,60,0,2,,,,,,,,,0,,,37,0
13680,note_on,0,0,2,,,,,,,,,0,,,49,110
13800,note_on,0,0,1,,,,,,,,,0,,,68,0
13800,note_on,120,0,1,,,,,,,,,0,,,65,0
13800,note_on,0,0,1,,,,,,,,,0,,,68,110
13800,note_on,120,0,2,,,,,,,,,0,,,49,0
13800,note_on,0,0,1,,,,,,,,,0,,,73,110
13800,note_on,0,0,1,,,,,,,,,0,,,65,110
13800,note_on,0,0,2,,,,,,,,,0,,,49,110
13800,note_on,0,0,1,,,,,,,,,0,,,73,0
13800,note_on,0,0,2,,,,,,,,,0,,,37,110
13800,note_on,0,0,2,,,,,,,,,0,,,44,110
13800,note_on,0,0,2,,,,,,,,,0,,,37,0
13800,note_on,0,0,2,,,,,,,,,0,,,44,0
13980,note_on,0,0,2,,,,,,,,,0,,,49,110
13980,note_on,0,0,1,,,,,,,,,0,,,65,110
13980,note_on,0,0,1,,,,,,,,,0,,,68,110
13980,note_on,0,0,1,,,,,,,,,0,,,73,0
13980,note_on,0,0,1,,,,,,,,,0,,,68,0
13980,note_on,180,0,2,,,,,,,,,0,,,49,0
13980,note_on,0,0,2,,,,,,,,,0,,,37,0
13980,note_on,0,0,2,,,,,,,,,0,,,44,0
13980,control_change,300,0,3,,,,,,,,,0,64,0,,
13980,note_on,180,0,1,,,,,,,,,0,,,65,0
13980,note_on,0,0,2,,,,,,,,,0,,,37,110
14040,note_on,0,0,1,,,,,,,,,0,,,68,0
14040,note_on,0,0,2,,,,,,,,,0,,,37,110
14040,note_on,0,0,1,,,,,,,,,0,,,65,110
14040,note_on,0,0,2,,,,,,,,,0,,,49,110
14040,note_on,0,0,2,,,,,,,,,0,,,49,0
14040,note_on,60,0,2,,,,,,,,,0,,,37,0
14040,note_on,60,0,1,,,,,,,,,0,,,65,0
14040,note_on,0,0,1,,,,,,,,,0,,,68,110
14070,note_on,0,0,2,,,,,,,,,0,,,49,0
14070,note_on,0,0,1,,,,,,,,,0,,,68,0
14070,note_on,30,0,1,,,,,,,,,0,,,65,0
14070,note_on,30,0,2,,,,,,,,,0,,,37,0
14160,note_on,90,0,1,,,,,,,,,0,,,73,110
14160,note_on,0,0,1,,,,,,,,,0,,,66,110
14160,note_on,0,0,1,,,,,,,,,0,,,69,110
14160,note_on,90,0,2,,,,,,,,,0,,,45,110
14160,note_on,0,0,2,,,,,,,,,0,,,33,110
14190,note_on,0,0,1,,,,,,,,,0,,,73,0
14190,note_on,0,0,1,,,,,,,,,0,,,69,0
14190,note_on,30,0,2,,,,,,,,,0,,,33,0
14190,note_on,0,0,2,,,,,,,,,0,,,45,0
14190,note_on,30,0,1,,,,,,,,,0,,,66,0
14280,note_on,0,0,1,,,,,,,,,0,,,73,110
14280,note_on,0,0,2,,,,,,,,,0,,,30,110
14280,note_on,90,0,2,,,,,,,,,0,,,42,110
14280,note_on,90,0,1,,,,,,,,,0,,,78,110
14280,note_on,0,0,1,,,,,,,,,0,,,69,110
14280,note_on,0,0,1,,,,,,,,,0,,,66,110
14310,note_on,30,0,2,,,,,,,,,0,,,30,0
14310,note_on,30,0,1,,,,,,,,,0,,,66,0
14310,note_on,0,0,2,,,,,,,,,0,,,42,0
14310,note_on,0,0,1,,,,,,,,,0,,,69,0
14310,note_on,0,0,1,,,,,,,,,0,,,78,0
14310,note_on,0,0,1,,,,,,,,,0,,,73,0
14400,control_change,420,0,3,,,,,,,,,0,64,127,,
14400,note_on,0,0,2,,,,,,,,,0,,,49,110
14400,note_on,90,0,2,,,,,,,,,0,,,37,110
14400,note_on,90,0,1,,,,,,,,,0,,,77,110
14400,note_on,0,0,1,,,,,,,,,0,,,68,110
14400,note_on,0,0,1,,,,,,,,,0,,,65,110
14400,note_on,0,0,1,,,,,,,,,0,,,73,110
14700,note_on,0,0,1,,,,,,,,,0,,,78,110
14700,note_on,0,0,2,,,,,,,,,0,,,45,110
14700,note_on,0,0,2,,,,,,,,,0,,,33,110
14700,note_on,0,0,2,,,,,,,,,0,,,37,0
14700,note_on,300,0,2,,,,,,,,,0,,,49,0
14700,note_on,0,0,1,,,,,,,,,0,,,68,0
14700,note_on,300,0,1,,,,,,,,,0,,,65,0
14700,note_on,0,0,1,,,,,,,,,0,,,77,0
14700,note_on,0,0,1,,,,,,,,,0,,,73,0
14700,control_change,300,0,3,,,,,,,,,0,64,0,,
14700,note_on,0,0,1,,,,,,,,,0,,,73,110
14700,note_on,0,0,1,,,,,,,,,0,,,66,110
14760,note_on,0,0,1,,,,,,,,,0,,,78,0
14760,note_on,0,0,2,,,,,,,,,0,,,45,110
14760,note_on,0,0,2,,,,,,,,,0,,,33,110
14760,note_on,0,0,2,,,,,,,,,0,,,33,0
14760,note_on,0,0,1,,,,,,,,,0,,,66,110
14760,note_on,60,0,2,,,,,,,,,0,,,45,0
14760,note_on,0,0,1,,,,,,,,,0,,,73,110
14760,note_on,0,0,1,,,,,,,,,0,,,78,110
14760,note_on,0,0,1,,,,,,,,,0,,,73,0
14760,note_on,60,0,1,,,,,,,,,0,,,66,0
15120,note_on,0,0,1,,,,,,,,,0,,,73,0
15120,set_tempo,3240,1,0,,,,,,454580,,,,,,,
15120,note_on,0,0,1,,,,,,,,,0,,,76,60
15120,note_on,0,0,1,,,,,,,,,0,,,67,60
15120,note_on,360,0,1,,,,,,,,,0,,,66,0
15120,control_change,420,0,3,,,,,,,,,0,64,127,,
15120,note_on,0,0,1,,,,,,,,,0,,,78,0
15120,note_on,0,0,1,,,,,,,,,0,,,73,60
15134,set_tempo,14,1,0,,,,,,455615,,,,,,,
15141,set_tempo,7,1,0,,,,,,456656,,,,,,,
15148,set_tempo,7,1,0,,,,,,457701,,,,,,,
15155,set_tempo,7,1,0,,,,,,458751,,,,,,,
15162,set_tempo,7,1,0,,,,,,459805,,,,,,,
15169,set_tempo,7,1,0,,,,,,460865,,,,,,,
15176,set_tempo,7,1,0,,,,,,461929,,,,,,,
15183,set_tempo,7,1,0,,,,,,462999,,,,,,,
15190,set_tempo,7,1,0,,,,,,464073,,,,,,,
15197,set_tempo,7,1,0,,,,,,465152,,,,,,,
15204,set_tempo,7,1,0,,,,,,466237,,,,,,,
15211,set_tempo,7,1,0,,,,,,467326,,,,,,,
15218,set_tempo,7,1,0,,,,,,468421,,,,,,,
15225,set_tempo,7,1,0,,,,,,469520,,,,,,,
15232,set_tempo,7,1,0,,,,,,470625,,,,,,,
15240,note_on,0,0,1,,,,,,,,,0,,,75,60
15240,note_on,120,0,1,,,,,,,,,0,,,76,0
15240,set_tempo,8,1,0,,,,,,471735,,,,,,,
15247,set_tempo,7,1,0,,,,,,472851,,,,,,,
15254,set_tempo,7,1,0,,,,,,473971,,,,,,,
15261,set_tempo,7,1,0,,,,,,475097,,,,,,,
15268,set_tempo,7,1,0,,,,,,476228,,,,,,,
15275,set_tempo,7,1,0,,,,,,477365,,,,,,,
15282,set_tempo,7,1,0,,,,,,478507,,,,,,,
15289,set_tempo,7,1,0,,,,,,479655,,,,,,,
15296,set_tempo,7,1,0,,,,,,480808,,,,,,,
15303,set_tempo,7,1,0,,,,,,481966,,,,,,,
15310,set_tempo,7,1,0,,,,,,483131,,,,,,,
15317,set_tempo,7,1,0,,,,,,484301,,,,,,,
15324,set_tempo,7,1,0,,,,,,485476,,,,,,,
15331,set_tempo,7,1,0,,,,,,486657,,,,,,,
15338,set_tempo,7,1,0,,,,,,487845,,,,,,,
15345,set_tempo,7,1,0,,,,,,489037,,,,,,,
15352,set_tempo,7,1,0,,,,,,490236,,,,,,,
15360,note_on,0,0,1,,,,,,,,,0,,,73,60
15360,note_on,0,0,1,,,,,,,,,0,,,73,0
15360,note_on,120,0,1,,,,,,,,,0,,,75,0
15360,set_tempo,8,1,0,,,,,,491441,,,,,,,
15360,control_change,240,0,3,,,,,,,,,0,64,0,,
15367,set_tempo,7,1,0,,,,,,492651,,,,,,,
15374,set_tempo,7,1,0,,,,,,493868,,,,,,,
15381,set_tempo,7,1,0,,,,,,495090,,,,,,,
15388,set_tempo,7,1,0,,,,,,496319,,,,,,,
15395,set_tempo,7,1,0,,,,,,497554,,,,,,,
15402,set_tempo,7,1,0,,,,,,498795,,,,,,,
15409,set_tempo,7,1,0,,,,,,500042,,,,,,,
15416,set_tempo,7,1,0,,,,,,501295,,,,,,,
15420,note_on,660,0,2,,,,,,,,,0,,,45,0
15420,note_on,0,0,2,,,,,,,,,0,,,33,0
15420,note_on,0,0,2,,,,,,,,,0,,,40,60
15420,note_on,0,0,2,,,,,,,,,0,,,52,60
15420,note_on,0,0,1,,,,,,,,,0,,,67,0
15420,note_on,0,0,1,,,,,,,,,0,,,68,60
15420,note_on,0,0,1,,,,,,,,,0,,,61,60
15420,note_on,60,0,1,,,,,,,,,0,,,73,0
15423,set_tempo,7,1,0,,,,,,502555,,,,,,,
15430,set_tempo,7,1,0,,,,,,503821,,,,,,,
15437,set_tempo,7,1,0,,,,,,505093,,,,,,,
15444,set_tempo,7,1,0,,,,,,506372,,,,,,,
15450,note_on,0,0,1,,,,,,,,,0,,,61,0
15450,note_on,30,0,1,,,,,,,,,0,,,68,0
15450,note_on,30,0,2,,,,,,,,,0,,,52,0
15450,note_on,0,0,2,,,,,,,,,0,,,40,0
15451,set_tempo,7,1,0,,,,,,507657,,,,,,,
15458,set_tempo,7,1,0,,,,,,508949,,,,,,,
15465,set_tempo,7,1,0,,,,,,510247,,,,,,,
15472,set_tempo,7,1,0,,,,,,511553,,,,,,,
15480,note_on,30,0,2,,,,,,,,,0,,,40,110
15480,note_on,0,0,2,,,,,,,,,0,,,52,110
15480,control_change,120,0,3,,,,,,,,,0,64,127,,
15480,note_on,30,0,1,,,,,,,,,0,,,61,110
15480,note_on,0,0,1,,,,,,,,,0,,,68,110
15487,set_tempo,15,1,0,,,,,,512864,,,,,,,
15494,set_tempo,7,1,0,,,,,,514183,,,,,,,
15501,set_tempo,7,1,0,,,,,,515508,,,,,,,
15508,set_tempo,7,1,0,,,,,,516840,,,,,,,
15515,set_tempo,7,1,0,,,,,,518179,,,,,,,
15522,set_tempo,7,1,0,,,,,,519526,,,,,,,
15529,set_tempo,7,1,0,,,,,,520879,,,,,,,
15536,set_tempo,7,1,0,,,,,,522239,,,,,,,
15543,set_tempo,7,1,0,,,,,,523606,,,,,,,
15550,set_tempo,7,1,0,,,,,,524980,,,,,,,
15557,set_tempo,7,1,0,,,,,,526362,,,,,,,
15564,set_tempo,7,1,0,,,,,,527751,,,,,,,
15571,set_tempo,7,1,0,,,,,,529147,,,,,,,
15578,set_tempo,7,1,0,,,,,,530551,,,,,,,
15585,set_tempo,7,1,0,,,,,,531962,,,,,,,
15592,set_tempo,7,1,0,,,,,,533381,,,,,,,
15600,note_on,0,0,1,,,,,,,,,0,,,70,93
15600,note_on,120,0,1,,,,,,,,,0,,,68,0
15600,set_tempo,8,1,0,,,,,,534807,,,,,,,
15607,set_tempo,7,1,0,,,,,,536241,,,,,,,
15614,set_tempo,7,1,0,,,,,,537683,,,,,,,
15621,set_tempo,7,1,0,,,,,,539132,,,,,,,
15628,set_tempo,7,1,0,,,,,,540589,,,,,,,
15635,set_tempo,7,1,0,,,,,,542054,,,,,,,
15642,set_tempo,7,1,0,,,,,,543527,,,,,,,
15649,set_tempo,7,1,0,,,,,,545009,,,,,,,
15656,set_tempo,7,1,0,,,,,,546498,,,,,,,
15660,note_on,0,0,1,,,,,,,,,0,,,68,85
15660,note_on,60,0,1,,,,,,,,,0,,,70,0
15663,set_tempo,7,1,0,,,,,,547995,,,,,,,
15670,set_tempo,7,1,0,,,,,,549501,,,,,,,
15677,set_tempo,7,1,0,,,,,,551015,,,,,,,
15684,set_tempo,7,1,0,,,,,,552537,,,,,,,
15691,set_tempo,7,1,0,,,,,,554068,,,,,,,
15698,set_tempo,7,1,0,,,,,,555607,,,,,,,
15705,set_tempo,7,1,0,,,,,,557155,,,,,,,
15712,set_tempo,7,1,0,,,,,,558711,,,,,,,
15720,set_tempo,8,1,0,,,,,,560276,,,,,,,
15720,note_on,60,0,1,,,,,,,,,0,,,68,0
15720,note_on,0,0,1,,,,,,,,,0,,,67,76
15727,set_tempo,7,1,0,,,,,,561850,,,,,,,
15734,set_tempo,7,1,0,,,,,,563433,,,,,,,
15741,set_tempo,7,1,0,,,,,,565025,,,,,,,
15748,set_tempo,7,1,0,,,,,,566626,,,,,,,
15755,set_tempo,7,1,0,,,,,,568236,,,,,,,
15762,set_tempo,7,1,0,,,,,,569855,,,,,,,
15769,set_tempo,7,1,0,,,,,,571483,,,,,,,
15776,set_tempo,7,1,0,,,,,,573121,,,,,,,
15780,note_on,60,0,1,,,,,,,,,0,,,67,0
15780,note_on,0,0,1,,,,,,,,,0,,,68,68
15783,set_tempo,7,1,0,,,,,,574768,,,,,,,
15790,set_tempo,7,1,0,,,,,,576424,,,,,,,
15797,set_tempo,7,1,0,,,,,,578090,,,,,,,
15804,set_tempo,7,1,0,,,,,,579766,,,,,,,
15811,set_tempo,7,1,0,,,,,,581452,,,,,,,
15818,set_tempo,7,1,0,,,,,,583147,,,,,,,
15825,note_on,45,0,1,,,,,,,,,0,,,68,61
15825,control_change,345,0,3,,,,,,,,,0,64,0,,
15825,set_tempo,7,1,0,,,,,,584852,,,,,,,
15832,set_tempo,7,1,0,,,,,,586568,,,,,,,
15840,note_on,15,0,1,,,,,,,,,0,,,68,0
15840,note_on,0,0,1,,,,,,,,,0,,,61,0
15840,note_on,0,0,1,,,,,,,,,0,,,72,60
15840,note_on,0,0,1,,,,,,,,,0,,,62,60
15847,set_tempo,15,1,0,,,,,,588293,,,,,,,
15854,set_tempo,7,1,0,,,,,,590029,,,,,,,
15861,set_tempo,7,1,0,,,,,,591774,,,,,,,
15868,set_tempo,7,1,0,,,,,,593531,,,,,,,
15875,set_tempo,7,1,0,,,,,,595297,,,,,,,
15882,set_tempo,7,1,0,,,,,,597074,,,,,,,
15889,set_tempo,7,1,0,,,,,,598862,,,,,,,
15896,set_tempo,7,1,0,,,,,,600661,,,,,,,
15903,set_tempo,7,1,0,,,,,,602470,,,,,,,
15910,set_tempo,7,1,0,,,,,,604290,,,,,,,
15917,set_tempo,7,1,0,,,,,,606122,,,,,,,
15924,set_tempo,7,1,0,,,,,,607964,,,,,,,
15931,set_tempo,7,1,0,,,,,,609818,,,,,,,
15938,set_tempo,7,1,0,,,,,,611683,,,,,,,
15945,set_tempo,7,1,0,,,,,,613560,,,,,,,
15952,set_tempo,7,1,0,,,,,,615448,,,,,,,
15960,set_tempo,8,1,0,,,,,,617347,,,,,,,
15960,note_on,0,0,1,,,,,,,,,0,,,70,58
15960,note_on,120,0,1,,,,,,,,,0,,,72,0
15967,set_tempo,7,1,0,,,,,,619259,,,,,,,
15974,set_tempo,7,1,0,,,,,,621182,,,,,,,
15981,set_tempo,7,1,0,,,,,,623118,,,,,,,
15988,set_tempo,7,1,0,,,,,,625065,,,,,,,
15995,set_tempo,7,1,0,,,,,,627025,,,,,,,
16002,set_tempo,7,1,0,,,,,,628997,,,,,,,
16009,set_tempo,7,1,0,,,,,,630981,,,,,,,
16016,set_tempo,7,1,0,,,,,,632978,,,,,,,
16023,set_tempo,7,1,0,,,,,,634988,,,,,,,
16030,set_tempo,7,1,0,,,,,,637010,,,,,,,
16037,set_tempo,7,1,0,,,,,,639046,,,,,,,
16044,set_tempo,7,1,0,,,,,,641094,,,,,,,
16051,set_tempo,7,1,0,,,,,,643156,,,,,,,
16058,set_tempo,7,1,0,,,,,,645231,,,,,,,
16065,set_tempo,7,1,0,,,,,,647319,,,,,,,
16072,set_tempo,7,1,0,,,,,,649421,,,,,,,
16080,note_on,0,0,1,,,,,,,,,0,,,68,55
16080,note_on,120,0,1,,,,,,,,,0,,,70,0
16080,set_tempo,8,1,0,,,,,,651537,,,,,,,
16087,set_tempo,7,1,0,,,,,,653666,,,,,,,
16094,set_tempo,7,1,0,,,,,,655809,,,,,,,
16101,set_tempo,7,1,0,,,,,,657967,,,,,,,
16108,set_tempo,7,1,0,,,,,,660139,,,,,,,
16115,set_tempo,7,1,0,,,,,,662325,,,,,,,
16122,set_tempo,7,1,0,,,,,,664525,,,,,,,
16129,set_tempo,7,1,0,,,,,,666741,,,,,,,
16136,set_tempo,7,1,0,,,,,,668971,,,,,,,
16143,set_tempo,7,1,0,,,,,,671216,,,,,,,
16150,set_tempo,7,1,0,,,,,,673476,,,,,,,
16157,set_tempo,7,1,0,,,,,,675752,,,,,,,
16164,set_tempo,7,1,0,,,,,,678043,,,,,,,
16171,set_tempo,7,1,0,,,,,,680349,,,,,,,
16178,set_tempo,7,1,0,,,,,,682672,,,,,,,
16185,set_tempo,7,1,0,,,,,,685010,,,,,,,
16192,set_tempo,7,1,0,,,,,,687364,,,,,,,
16200,control_change,375,0,3,,,,,,,,,0,64,127,,
16200,note_on,0,0,2,,,,,,,,,0,,,51,53
16200,note_on,0,0,1,,,,,,,,,0,,,60,53
16200,note_on,0,0,1,,,,,,,,,0,,,56,53
16200,note_on,0,0,1,,,,,,,,,0,,,63,53
16200,note_on,0,0,1,,,,,,,,,0,,,68,0
16200,note_on,0,0,1,,,,,,,,,0,,,62,0
16200,note_on,120,0,1,,,,,,,,,0,,,68,0
16200,note_on,720,0,2,,,,,,,,,0,,,52,0
16200,note_on,0,0,2,,,,,,,,,0,,,39,63
16200,note_on,0,0,2,,,,,,,,,0,,,40,0
16207,set_tempo,15,1,0,,,,,,689734,,,,,,,
16214,set_tempo,7,1,0,,,,,,692121,,,,,,,
16221,set_tempo,7,1,0,,,,,,694525,,,,,,,
16228,set_tempo,7,1,0,,,,,,696945,,,,,,,
16235,set_tempo,7,1,0,,,,,,699382,,,,,,,
16242,set_tempo,7,1,0,,,,,,701836,,,,,,,
16249,set_tempo,7,1,0,,,,,,704308,,,,,,,
16256,set_tempo,7,1,0,,,,,,706797,,,,,,,
16263,set_tempo,7,1,0,,,,,,709304,,,,,,,
16270,set_tempo,7,1,0,,,,,,711828,,,,,,,
16277,set_tempo,7,1,0,,,,,,714371,,,,,,,
16284,set_tempo,7,1,0,,,,,,716932,,,,,,,
16291,set_tempo,7,1,0,,,,,,719511,,,,,,,
16298,set_tempo,7,1,0,,,,,,722109,,,,,,,
16305,set_tempo,7,1,0,,,,,,724725,,,,,,,
16312,set_tempo,7,1,0,,,,,,727361,,,,,,,
16320,set_tempo,8,1,0,,,,,,730016,,,,,,,
16320,note_on,0,0,2,,,,,,,,,0,,,51,50
16320,note_on,120,0,1,,,,,,,,,0,,,63,0
16320,note_on,120,0,2,,,,,,,,,0,,,51,0
16320,note_on,0,0,1,,,,,,,,,0,,,63,50
16327,set_tempo,7,1,0,,,,,,732690,,,,,,,
16334,set_tempo,7,1,0,,,,,,735384,,,,,,,
16341,set_tempo,7,1,0,,,,,,738098,,,,,,,
16348,set_tempo,7,1,0,,,,,,740832,,,,,,,
16355,set_tempo,7,1,0,,,,,,743587,,,,,,,
16362,set_tempo,7,1,0,,,,,,746361,,,,,,,
16369,set_tempo,7,1,0,,,,,,749157,,,,,,,
16376,set_tempo,7,1,0,,,,,,751974,,,,,,,
16383,set_tempo,7,1,0,,,,,,754812,,,,,,,
16390,set_tempo,7,1,0,,,,,,757671,,,,,,,
16397,set_tempo,7,1,0,,,,,,760553,,,,,,,
16404,set_tempo,7,1,0,,,,,,763456,,,,,,,
16411,set_tempo,7,1,0,,,,,,766381,,,,,,,
16418,set_tempo,7,1,0,,,,,,769329,,,,,,,
16425,set_tempo,7,1,0,,,,,,772300,,,,,,,
16432,set_tempo,7,1,0,,,,,,775294,,,,,,,
16440,control_change,240,0,3,,,,,,,,,0,64,0,,
16440,set_tempo,8,1,0,,,,,,778311,,,,,,,
16447,set_tempo,7,1,0,,,,,,781352,,,,,,,
16454,set_tempo,7,1,0,,,,,,784416,,,,,,,
16461,set_tempo,7,1,0,,,,,,787505,,,,,,,
16468,set_tempo,7,1,0,,,,,,790618,,,,,,,
16475,set_tempo,7,1,0,,,,,,793756,,,,,,,
16482,set_tempo,7,1,0,,,,,,796919,,,,,,,
16489,set_tempo,7,1,0,,,,,,800107,,,,,,,
16496,set_tempo,7,1,0,,,,,,803320,,,,,,,
16503,set_tempo,7,1,0,,,,,,806560,,,,,,,
16510,set_tempo,7,1,0,,,,,,809826,,,,,,,
16517,set_tempo,7,1,0,,,,,,813118,,,,,,,
16524,set_tempo,7,1,0,,,,,,816438,,,,,,,
16531,set_tempo,7,1,0,,,,,,819784,,,,,,,
16538,set_tempo,7,1,0,,,,,,823158,,,,,,,
16545,set_tempo,7,1,0,,,,,,826560,,,,,,,
16552,set_tempo,7,1,0,,,,,,829990,,,,,,,
16560,set_tempo,8,1,0,,,,,,833333,,,,,,,
16560,note_on,0,0,2,,,,,,,,,0,,,39,55
16560,note_on,0,0,2,,,,,,,,,0,,,51,45
16560,note_on,0,0,2,,,,,,,,,0,,,39,0
16560,note_on,240,0,2,,,,,,,,,0,,,51,0
16560,note_on,0,0,1,,,,,,,,,0,,,63,45
16560,note_on,0,0,1,,,,,,,,,0,,,55,45
16560,note_on,0,0,1,,,,,,,,,0,,,58,45
16560,note_on,0,0,1,,,,,,,,,0,,,61,45
16560,note_on,0,0,1,,,,,,,,,0,,,60,0
16560,note_on,240,0,1,,,,,,,,,0,,,63,0
16560,note_on,0,0,1,,,,,,,,,0,,,56,0
16560,control_change,120,0,3,,,,,,,,,0,64,127,,
16680,set_tempo,120,1,0,,,,,,1250000,,,,,,,
16680,note_on,0,0,2,,,,,,,,,0,,,51,42
16680,note_on,120,0,2,,,,,,,,,0,,,51,0
16680,note_on,120,0,1,,,,,,,,,0,,,63,0
16680,note_on,0,0,1,,,,,,,,,0,,,63,42
16800,note_on,0,0,1,,,,,,,,,0,,,63,50
16800,control_change,240,0,3,,,,,,,,,0,64,0,,
16800,set_tempo,120,1,0,,,,,,454545,,,,,,,
16800,note_on,0,0,2,,,,,,,,,0,,,51,50
16800,note_on,0,0,2,,,,,,,,,0,,,39,0
16800,note_on,120,0,2,,,,,,,,,0,,,51,0
16800,note_on,120,0,1,,,,,,,,,0,,,63,0
16800,note_on,0,0,1,,,,,,,,,0,,,61,0
16800,note_on,0,0,1,,,,,,,,,0,,,58,0
16800,note_on,0,0,1,,,,,,,,,0,,,55,0
16920,note_on,120,0,1,,,,,,,,,0,,,63,0
16920,note_on,0,0,2,,,,,,,,,0,,,44,52
16920,note_on,0,0,2,,,,,,,,,0,,,51,42
16920,note_on,120,0,2,,,,,,,,,0,,,51,0
16920,note_on,0,0,1,,,,,,,,,0,,,68,52
16920,control_change,120,0,3,,,,,,,,,0,64,127,,
16920,note_on,0,0,1,,,,,,,,,0,,,60,42
16920,note_on,0,0,1,,,,,,,,,0,,,63,42
17040,note_on,0,0,1,,,,,,,,,0,,,63,44
17040,note_on,0,0,1,,,,,,,,,0,,,60,44
17040,note_on,0,0,1,,,,,,,,,0,,,68,54
17040,note_on,120,0,1,,,,,,,,,0,,,68,0
17040,note_on,120,0,2,,,,,,,,,0,,,51,0
17040,note_on,0,0,2,,,,,,,,,0,,,51,44
17040,note_on,0,0,1,,,,,,,,,0,,,63,0
17040,note_on,0,0,1,,,,,,,,,0,,,60,0
17160,control_change,240,0,3,,,,,,,,,0,64,0,,
17220,note_on,0,0,1,,,,,,,,,0,,,70,57
17220,note_on,180,0,1,,,,,,,,,0,,,68,0
17280,note_on,0,0,2,,,,,,,,,0,,,46,58
17280,note_on,240,0,2,,,,,,,,,0,,,51,0
17280,note_on,0,0,2,,,,,,,,,0,,,51,48
17280,note_on,0,0,2,,,,,,,,,0,,,44,0
17280,note_on,0,0,1,,,,,,,,,0,,,60,0
17280,note_on,0,0,1,,,,,,,,,0,,,63,0
17280,note_on,0,0,1,,,,,,,,,0,,,61,48
17280,note_on,0,0,1,,,,,,,,,0,,,63,48
17280,note_on,0,0,1,,,,,,,,,0,,,68,58
17280,note_on,60,0,1,,,,,,,,,0,,,70,0
17400,note_on,0,0,1,,,,,,,,,0,,,61,0
17400,note_on,0,0,1,,,,,,,,,0,,,63,0
17400,note_on,120,0,2,,,,,,,,,0,,,51,0
17400,note_on,0,0,2,,,,,,,,,0,,,51,50
17400,note_on,0,0,1,,,,,,,,,0,,,63,50
17400,note_on,0,0,1,,,,,,,,,0,,,61,50
17400,control_change,240,0,3,,,,,,,,,0,64,127,,
17400,note_on,120,0,1,,,,,,,,,0,,,68,0
17400,note_on,0,0,1,,,,,,,,,0,,,67,60
17580,note_on,0,0,1,,,,,,,,,0,,,70,64
17580,note_on,180,0,1,,,,,,,,,0,,,67,0
17640,note_on,240,0,2,,,,,,,,,0,,,51,0
17640,note_on,0,0,2,,,,,,,,,0,,,48,65
17640,control_change,240,0,3,,,,,,,,,0,64,0,,
17640,note_on,0,0,2,,,,,,,,,0,,,46,0
17640,note_on,60,0,1,,,,,,,,,0,,,70,0
17640,note_on,0,0,1,,,,,,,,,0,,,61,0
17640,note_on,0,0,1,,,,,,,,,0,,,63,0
17640,note_on,0,0,1,,,,,,,,,0,,,70,65
17640,note_on,0,0,2,,,,,,,,,0,,,51,55
17760,note_on,0,0,1,,,,,,,,,0,,,68,67
17760,note_on,120,0,2,,,,,,,,,0,,,51,0
17760,note_on,0,0,1,,,,,,,,,0,,,63,57
17760,note_on,120,0,1,,,,,,,,,0,,,70,0
17760,note_on,0,0,2,,,,,,,,,0,,,51,57
17880,note_on,120,0,2,,,,,,,,,0,,,51,0
17880,note_on,0,0,2,,,,,,,,,0,,,48,0
17880,note_on,0,0,2,,,,,,,,,0,,,51,59
17880,note_on,0,0,2,,,,,,,,,0,,,43,69
17880,note_on,0,0,1,,,,,,,,,0,,,61,59
17880,note_on,0,0,1,,,,,,,,,0,,,70,69
17880,note_on,0,0,1,,,,,,,,,0,,,63,59
17880,note_on,0,0,1,,,,,,,,,0,,,63,0
17880,note_on,120,0,1,,,,,,,,,0,,,68,0
18000,note_on,0,0,1,,,,,,,,,0,,,60,61
18000,note_on,0,0,1,,,,,,,,,0,,,61,0
18000,note_on,0,0,1,,,,,,,,,0,,,63,0
18000,note_on,120,0,1,,,,,,,,,0,,,70,0
18000,note_on,0,0,2,,,,,,,,,0,,,51,61
18000,note_on,120,0,2,,,,,,,,,0,,,43,0
18000,note_on,0,0,2,,,,,,,,,0,,,51,0
18000,note_on,0,0,1,,,,,,,,,0,,,63,61
18000,note_on,0,0,2,,,,,,,,,0,,,44,71
18000,note_on,0,0,1,,,,,,,,,0,,,72,71
18240,note_on,240,0,1,,,,,,,,,0,,,72,0
18240,note_on,240,0,2,,,,,,,,,0,,,44,0
18240,note_on,0,0,2,,,,,,,,,0,,,51,0
18240,note_on,0,0,2,,,,,,,,,0,,,51,76
18240,note_on,0,0,1,,,,,,,,,0,,,63,76
18240,note_on,0,0,1,,,,,,,,,0,,,63,0
18240,note_on,0,0,1,,,,,,,,,0,,,60,0
18360,note_on,120,0,2,,,,,,,,,0,,,51,0
18360,note_on,0,0,2,,,,,,,,,0,,,51,68
18360,control_change,720,0,3,,,,,,,,,0,64,127,,
18360,note_on,120,0,1,,,,,,,,,0,,,63,0
18360,note_on,0,0,1,,,,,,,,,0,,,63,68
18360,note_on,0,0,1,,,,,,,,,0,,,60,68
18360,note_on,0,0,1,,,,,,,,,0,,,72,78
18360,note_on,0,0,2,,,,,,,,,0,,,42,78
18480,note_on,0,0,1,,,,,,,,,0,,,60,70
18480,note_on,0,0,1,,,,,,,,,0,,,63,70
18480,note_on,0,0,1,,,,,,,,,0,,,63,0
18480,note_on,0,0,1,,,,,,,,,0,,,72,80
18480,note_on,120,0,1,,,,,,,,,0,,,72,0
18480,note_on,120,0,2,,,,,,,,,0,,,51,0
18480,note_on,0,0,2,,,,,,,,,0,,,51,70
18480,note_on,0,0,1,,,,,,,,,0,,,60,0
18660,note_on,0,0,1,,,,,,,,,0,,,60,0
18660,note_on,180,0,1,,,,,,,,,0,,,72,0
18660,note_on,0,0,1,,,,,,,,,0,,,63,0
18660,note_on,0,0,1,,,,,,,,,0,,,58,73
18660,note_on,0,0,1,,,,,,,,,0,,,61,73
18660,note_on,0,0,1,,,,,,,,,0,,,70,83
18720,note_on,0,0,1,,,,,,,,,0,,,70,84
18720,note_on,60,0,1,,,,,,,,,0,,,70,0
18720,note_on,0,0,1,,,,,,,,,0,,,61,0
18720,note_on,0,0,1,,,,,,,,,0,,,58,0
18720,note_on,0,0,1,,,,,,,,,0,,,61,74
18720,control_change,360,0,3,,,,,,,,,0,64,0,,
18720,note_on,0,0,1,,,,,,,,,0,,,58,74
18720,note_on,240,0,2,,,,,,,,,0,,,51,0
18720,note_on,0,0,2,,,,,,,,,0,,,41,84
18720,note_on,0,0,2,,,,,,,,,0,,,51,74
18720,note_on,0,0,2,,,,,,,,,0,,,42,0
18840,note_on,120,0,1,,,,,,,,,0,,,70,0
18840,note_on,0,0,1,,,,,,,,,0,,,58,0
18840,note_on,0,0,1,,,,,,,,,0,,,61,0
18840,note_on,0,0,1,,,,,,,,,0,,,60,77
18840,note_on,0,0,1,,,,,,,,,0,,,57,77
18840,note_on,0,0,2,,,,,,,,,0,,,51,77
18840,note_on,120,0,2,,,,,,,,,0,,,51,0
18840,note_on,0,0,1,,,,,,,,,0,,,69,87
19020,note_on,0,0,1,,,,,,,,,0,,,70,90
19020,note_on,0,0,1,,,,,,,,,0,,,60,0
19020,note_on,0,0,2,,,,,,,,,0,,,49,80
19020,note_on,180,0,1,,,,,,,,,0,,,69,0
19020,note_on,0,0,1,,,,,,,,,0,,,57,0
19020,note_on,0,0,1,,,,,,,,,0,,,61,80
19020,note_on,0,0,2,,,,,,,,,0,,,41,0
19020,note_on,0,0,1,,,,,,,,,0,,,58,80
19020,note_on,180,0,2,,,,,,,,,0,,,51,0
19020,note_on,0,0,2,,,,,,,,,0,,,40,90
19080,note_on,60,0,1,,,,,,,,,0,,,70,0
19080,note_on,0,0,1,,,,,,,,,0,,,58,0
19080,note_on,0,0,1,,,,,,,,,0,,,61,0
19080,note_on,0,0,1,,,,,,,,,0,,,61,80
19080,note_on,0,0,1,,,,,,,,,0,,,58,80
19080,note_on,0,0,1,,,,,,,,,0,,,70,90
19080,note_on,0,0,2,,,,,,,,,0,,,40,90
19080,note_on,0,0,2,,,,,,,,,0,,,49,80
19080,note_on,0,0,2,,,,,,,,,0,,,49,0
19080,note_on,60,0,2,,,,,,,,,0,,,40,0
19200,note_on,0,0,2,,,,,,,,,0,,,49,0
19200,note_on,120,0,2,,,,,,,,,0,,,40,0
19200,note_on,0,0,1,,,,,,,,,0,,,60,66
19200,note_on,0,0,2,,,,,,,,,0,,,39,76
19200,note_on,0,0,1,,,,,,,,,0,,,56,66
19200,note_on,0,0,1,,,,,,,,,0,,,61,0
19200,note_on,0,0,1,,,,,,,,,0,,,58,0
19200,note_on,120,0,1,,,,,,,,,0,,,70,0
19200,note_on,0,0,1,,,,,,,,,0,,,68,76
19200,note_on,0,0,2,,,,,,,,,0,,,51,66
19320,note_on,120,0,1,,,,,,,,,0,,,68,0
19320,note_on,0,0,1,,,,,,,,,0,,,58,51
19320,note_on,0,0,2,,,,,,,,,0,,,39,61
19320,note_on,0,0,2,,,,,,,,,0,,,51,51
19320,note_on,0,0,2,,,,,,,,,0,,,49,51
19320,note_on,0,0,1,,,,,,,,,0,,,60,0
19320,note_on,0,0,1,,,,,,,,,0,,,56,0
19320,note_on,120,0,2,,,,,,,,,0,,,39,0
19320,note_on,0,0,1,,,,,,,,,0,,,67,61
19320,note_on,0,0,1,,,,,,,,,0,,,55,51
19320,note_on,0,0,2,,,,,,,,,0,,,51,0
19350,note_on,30,0,2,,,,,,,,,0,,,39,0
19350,note_on,30,0,1,,,,,,,,,0,,,67,0
19350,note_on,0,0,1,,,,,,,,,0,,,55,0
19350,note_on,0,0,1,,,,,,,,,0,,,58,0
19350,note_on,0,0,2,,,,,,,,,0,,,51,0
19350,note_on,0,0,2,,,,,,,,,0,,,49,0
19440,note_on,0,0,2,,,,,,,,,0,,,44,50
19440,note_on,90,0,1,,,,,,,,,0,,,60,40
19440,note_on,0,0,1,,,,,,,,,0,,,56,40
19440,note_on,0,0,1,,,,,,,,,0,,,68,50
19440,note_on,0,0,2,,,,,,,,,0,,,51,40
19440,note_on,90,0,2,,,,,,,,,0,,,48,40
19680,note_on,0,0,1,,,,,,,,,0,,,56,0
19680,note_on,240,0,1,,,,,,,,,0,,,68,0
19680,note_on,240,0,2,,,,,,,,,0,,,44,0
19680,note_on,0,0,2,,,,,,,,,0,,,51,0
19680,note_on,0,0,2,,,,,,,,,0,,,48,0
19680,note_on,0,0,2,,,,,,,,,0,,,51,50
19680,note_on,0,0,1,,,,,,,,,0,,,60,0
19680,control_change,960,0,3,,,,,,,,,0,64,127,,
19680,note_on,0,0,1,,,,,,,,,0,,,75,50
19800,note_on,120,0,1,,,,,,,,,0,,,75,0
19800,note_on,0,0,2,,,,,,,,,0,,,44,52
19800,note_on,0,0,2,,,,,,,,,0,,,51,42
19800,note_on,120,0,2,,,,,,,,,0,,,51,0
19800,note_on,0,0,1,,,,,,,,,0,,,80,52
19800,note_on,0,0,1,,,,,,,,,0,,,72,42
19800,note_on,0,0,1,,,,,,,,,0,,,75,42
19920,note_on,0,0,1,,,,,,,,,0,,,75,44
19920,note_on,0,0,1,,,,,,,,,0,,,72,44
19920,note_on,0,0,1,,,,,,,,,0,,,80,54
19920,note_on,0,0,1,,,,,,,,,0,,,72,0
19920,note_on,120,0,1,,,,,,,,,0,,,80,0
19920,note_on,0,0,1,,,,,,,,,0,,,75,0
19920,note_on,120,0,2,,,,,,,,,0,,,51,0
19920,note_on,0,0,2,,,,,,,,,0,,,51,44
20100,note_on,0,0,1,,,,,,,,,0,,,82,57
20100,control_change,420,0,3,,,,,,,,,0,64,0,,
20100,note_on,180,0,1,,,,,,,,,0,,,80,0
20160,note_on,240,0,2,,,,,,,,,0,,,51,0
20160,note_on,0,0,2,,,,,,,,,0,,,44,0
20160,note_on,0,0,2,,,,,,,,,0,,,51,48
20160,note_on,0,0,2,,,,,,,,,0,,,46,58
20160,note_on,60,0,1,,,,,,,,,0,,,82,0
20160,note_on,0,0,1,,,,,,,,,0,,,72,0
20160,note_on,0,0,1,,,,,,,,,0,,,80,58
20160,note_on,0,0,1,,,,,,,,,0,,,75,48
20160,note_on,0,0,1,,,,,,,,,0,,,75,0
20160,note_on,0,0,1,,,,,,,,,0,,,73,48
20280,note_on,120,0,1,,,,,,,,,0,,,80,0
20280,note_on,0,0,1,,,,,,,,,0,,,75,0
20280,note_on,0,0,1,,,,,,,,,0,,,73,0
20280,note_on,0,0,1,,,,,,,,,0,,,73,50
20280,note_on,0,0,1,,,,,,,,,0,,,75,50
20280,note_on,0,0,1,,,,,,,,,0,,,79,60
20280,control_change,180,0,3,,,,,,,,,0,64,127,,
20280,note_on,0,0,2,,,,,,,,,0,,,51,50
20280,note_on,120,0,2,,,,,,,,,0,,,51,0
20460,note_on,0,0,1,,,,,,,,,0,,,82,64
20460,note_on,180,0,1,,,,,,,,,0,,,79,0
20520,note_on,0,0,1,,,,,,,,,0,,,82,65
20520,note_on,0,0,1,,,,,,,,,0,,,75,0
20520,note_on,60,0,1,,,,,,,,,0,,,82,0
20520,note_on,0,0,2,,,,,,,,,0,,,48,65
20520,note_on,0,0,1,,,,,,,,,0,,,73,0
20520,note_on,0,0,2,,,,,,,,,0,,,51,55
20520,control_change,240,0,3,,,,,,,,,0,64,0,,
20520,note_on,240,0,2,,,,,,,,,0,,,51,0
20520,note_on,0,0,2,,,,,,,,,0,,,46,0
20640,note_on,120,0,2,,,,,,,,,0,,,51,0
20640,note_on,0,0,1,,,,,,,,,0,,,75,57
20640,note_on,120,0,1,,,,,,,,,0,,,82,0
20640,note_on,0,0,1,,,,,,,,,0,,,80,67
20640,note_on,0,0,2,,,,,,,,,0,,,51,57
20760,note_on,0,0,2,,,,,,,,,0,,,51,59
20760,note_on,0,0,2,,,,,,,,,0,,,48,0
20760,note_on,120,0,2,,,,,,,,,0,,,51,0
20760,note_on,120,0,1,,,,,,,,,0,,,80,0
20760,note_on,0,0,1,,,,,,,,,0,,,75,0
20760,note_on,0,0,1,,,,,,,,,0,,,73,59
20760,note_on,0,0,1,,,,,,,,,0,,,75,59
20760,note_on,0,0,1,,,,,,,,,0,,,82,69
20760,note_on,0,0,2,,,,,,,,,0,,,43,69
20880,note_on,120,0,1,,,,,,,,,0,,,82,0
20880,note_on,0,0,1,,,,,,,,,0,,,75,0
20880,note_on,0,0,1,,,,,,,,,0,,,73,0
20880,note_on,0,0,1,,,,,,,,,0,,,75,61
20880,note_on,0,0,1,,,,,,,,,0,,,84,71
20880,note_on,0,0,2,,,,,,,,,0,,,51,0
20880,note_on,0,0,2,,,,,,,,,0,,,51,61
20880,note_on,0,0,2,,,,,,,,,0,,,44,71
20880,note_on,0,0,1,,,,,,,,,0,,,72,61
20880,note_on,120,0,2,,,,,,,,,0,,,43,0
21120,note_on,0,0,1,,,,,,,,,0,,,72,0
21120,note_on,240,0,2,,,,,,,,,0,,,44,0
21120,note_on,0,0,2,,,,,,,,,0,,,51,0
21120,note_on,0,0,2,,,,,,,,,0,,,51,66
21120,note_on,240,0,1,,,,,,,,,0,,,84,0
21120,note_on,0,0,1,,,,,,,,,0,,,75,0
21120,note_on,0,0,1,,,,,,,,,0,,,75,76
21240,note_on,120,0,2,,,,,,,,,0,,,51,0
21240,note_on,120,0,1,,,,,,,,,0,,,75,0
21240,control_change,720,0,3,,,,,,,,,0,64,127,,
21240,note_on,0,0,1,,,,,,,,,0,,,72,68
21240,note_on,0,0,2,,,,,,,,,0,,,42,78
21240,note_on,0,0,2,,,,,,,,,0,,,51,68
21240,note_on,0,0,1,,,,,,,,,0,,,75,68
21240,note_on,0,0,1,,,,,,,,,0,,,84,78
21360,note_on,0,0,1,,,,,,,,,0,,,75,70
21360,note_on,0,0,1,,,,,,,,,0,,,72,0
21360,note_on,120,0,2,,,,,,,,,0,,,51,0
21360,note_on,0,0,1,,,,,,,,,0,,,75,0
21360,note_on,0,0,1,,,,,,,,,0,,,84,80
21360,note_on,0,0,1,,,,,,,,,0,,,72,70
21360,note_on,120,0,1,,,,,,,,,0,,,84,0
21360,note_on,0,0,2,,,,,,,,,0,,,51,70
21540,note_on,0,0,1,,,,,,,,,0,,,82,83
21540,note_on,0,0,1,,,,,,,,,0,,,72,0
21540,note_on,0,0,1,,,,,,,,,0,,,70,73
21540,note_on,0,0,1,,,,,,,,,0,,,73,73
21540,note_on,0,0,1,,,,,,,,,0,,,75,0
21540,note_on,180,0,1,,,,,,,,,0,,,84,0
21600,note_on,0,0,1,,,,,,,,,0,,,70,74
21600,note_on,0,0,1,,,,,,,,,0,,,73,0
21600,note_on,0,0,1,,,,,,,,,0,,,70,0
21600,note_on,60,0,1,,,,,,,,,0,,,82,0
21600,note_on,0,0,1,,,,,,,,,0,,,73,74
21600,control_change,360,0,3,,,,,,,,,0,64,0,,
21600,note_on,240,0,2,,,,,,,,,0,,,51,0
21600,note_on,0,0,2,,,,,,,,,0,,,42,0
21600,note_on,0,0,2,,,,,,,,,0,,,51,74
21600,note_on,0,0,2,,,,,,,,,0,,,41,84
21600,note_on,0,0,1,,,,,,,,,0,,,82,84
21720,note_on,120,0,2,,,,,,,,,0,,,51,0
21720,note_on,0,0,1,,,,,,,,,0,,,70,0
21720,note_on,0,0,2,,,,,,,,,0,,,51,77
21720,note_on,120,0,1,,,,,,,,,0,,,82,0
21720,note_on,0,0,1,,,,,,,,,0,,,73,0
21720,note_on,0,0,1,,,,,,,,,0,,,72,77
21720,note_on,0,0,1,,,,,,,,,0,,,81,87
21720,note_on,0,0,1,,,,,,,,,0,,,69,77
21900,note_on,0,0,1,,,,,,,,,0,,,82,90
21900,note_on,0,0,1,,,,,,,,,0,,,72,0
21900,note_on,180,0,1,,,,,,,,,0,,,81,0
21900,note_on,0,0,1,,,,,,,,,0,,,70,80
21900,note_on,180,0,2,,,,,,,,,0,,,51,0
21900,note_on,0,0,2,,,,,,,,,0,,,41,0
21900,note_on,0,0,2,,,,,,,,,0,,,49,80
21900,note_on,0,0,1,,,,,,,,,0,,,69,0
21900,note_on,0,0,1,,,,,,,,,0,,,73,80
21900,note_on,0,0,2,,,,,,,,,0,,,40,90
21960,note_on,60,0,1,,,,,,,,,0,,,82,0
21960,note_on,0,0,1,,,,,,,,,0,,,70,0
21960,note_on,0,0,1,,,,,,,,,0,,,73,0
21960,note_on,0,0,1,,,,,,,,,0,,,73,80
21960,note_on,0,0,1,,,,,,,,,0,,,70,80
21960,note_on,60,0,2,,,,,,,,,0,,,40,0
21960,note_on,0,0,2,,,,,,,,,0,,,40,90
21960,note_on,0,0,2,,,,,,,,,0,,,49,80
21960,note_on,0,0,2,,,,,,,,,0,,,49,0
21960,note_on,0,0,1,,,,,,,,,0,,,82,90
22080,note_on,0,0,1,,,,,,,,,0,,,68,66
22080,note_on,0,0,2,,,,,,,,,0,,,49,0
22080,note_on,120,0,2,,,,,,,,,0,,,40,0
22080,note_on,0,0,2,,,,,,,,,0,,,39,76
22080,note_on,0,0,2,,,,,,,,,0,,,51,66
22080,note_on,0,0,1,,,,,,,,,0,,,80,76
22080,note_on,0,0,1,,,,,,,,,0,,,70,0
22080,note_on,0,0,1,,,,,,,,,0,,,73,0
22080,note_on,120,0,1,,,,,,,,,0,,,82,0
22080,note_on,0,0,1,,,,,,,,,0,,,72,66
22200,note_on,0,0,2,,,,,,,,,0,,,39,61
22200,note_on,0,0,2,,,,,,,,,0,,,51,51
22200,note_on,0,0,2,,,,,,,,,0,,,49,51
22200,note_on,0,0,2,,,,,,,,,0,,,51,0
22200,note_on,120,0,2,,,,,,,,,0,,,39,0
22200,note_on,120,0,1,,,,,,,,,0,,,80,0
22200,note_on,0,0,1,,,,,,,,,0,,,68,0
22200,note_on,0,0,1,,,,,,,,,0,,,67,51
22200,note_on,0,0,1,,,,,,,,,0,,,72,0
22200,note_on,0,0,1,,,,,,,,,0,,,70,51
22200,note_on,0,0,1,,,,,,,,,0,,,79,61
22230,note_on,0,0,2,,,,,,,,,0,,,49,0
22230,note_on,0,0,2,,,,,,,,,0,,,51,0
22230,note_on,30,0,2,,,,,,,,,0,,,39,0
22230,note_on,30,0,1,,,,,,,,,0,,,79,0
22230,note_on,0,0,1,,,,,,,,,0,,,70,0
22230,note_on,0,0,1,,,,,,,,,0,,,67,0
22320,note_on,0,0,1,,,,,,,,,0,,,68,40
22320,note_on,90,0,1,,,,,,,,,0,,,72,40
22320,note_on,90,0,2,,,,,,,,,0,,,51,40
22320,note_on,0,0,2,,,,,,,,,0,,,48,40
22320,note_on,0,0,2,,,,,,,,,0,,,44,50
22320,note_on,0,0,1,,,,,,,,,0,,,80,50
22560,note_on,240,0,1,,,,,,,,,0,,,80,0
22560,note_on,0,0,1,,,,,,,,,0,,,68,0
22560,note_on,0,0,1,,,,,,,,,0,,,72,0
22560,note_on,240,0,2,,,,,,,,,0,,,44,0
22560,note_on,0,0,2,,,,,,,,,0,,,48,0
22560,note_on,0,0,2,,,,,,,,,0,,,51,0
22620,note_on,0,0,1,,,,,,,,,0,,,68,100
22620,set_tempo,5820,1,0,,,,,,454545,,,,,,,
22620,note_on,0,0,1,,,,,,,,,0,,,75,100
22620,note_on,60,0,2,,,,,,,,,0,,,48,100
22620,note_on,0,0,2,,,,,,,,,0,,,56,100
22620,note_on,0,0,2,,,,,,,,,0,,,60,100
22620,control_change,1020,0,3,,,,,,,,,0,64,127,,
22620,note_on,60,0,1,,,,,,,,,0,,,63,100
22680,note_on,0,0,1,,,,,,,,,0,,,75,100
22680,note_on,0,0,1,,,,,,,,,0,,,68,100
22680,note_on,0,0,1,,,,,,,,,0,,,63,100
22680,note_on,0,0,1,,,,,,,,,0,,,63,0
22680,note_on,0,0,2,,,,,,,,,0,,,60,100
22680,note_on,0,0,1,,,,,,,,,0,,,68,0
22680,note_on,0,0,2,,,,,,,,,0,,,48,100
22680,note_on,0,0,2,,,,,,,,,0,,,48,0
22680,note_on,0,0,2,,,,,,,,,0,,,56,0
22680,note_on,60,0,1,,,,,,,,,0,,,75,0
22680,note_on,60,0,2,,,,,,,,,0,,,60,0
22680,note_on,0,0,2,,,,,,,,,0,,,56,100
22800,note_on,0,0,1,,,,,,,,,0,,,75,100
22800,note_on,0,0,1,,,,,,,,,0,,,68,100
22800,note_on,0,0,2,,,,,,,,,0,,,60,100
22800,note_on,0,0,2,,,,,,,,,0,,,56,100
22800,note_on,0,0,2,,,,,,,,,0,,,48,100
22800,note_on,0,0,2,,,,,,,,,0,,,48,0
22800,note_on,0,0,1,,,,,,,,,0,,,63,100
22800,note_on,0,0,1,,,,,,,,,0,,,68,0
22800,note_on,120,0,1,,,,,,,,,0,,,75,0
22800,note_on,0,0,2,,,,,,,,,0,,,56,0
22800,note_on,120,0,2,,,,,,,,,0,,,60,0
22800,note_on,0,0,1,,,,,,,,,0,,,63,0
22980,note_on,0,0,2,,,,,,,,,0,,,51,100
22980,note_on,180,0,2,,,,,,,,,0,,,60,0
22980,note_on,0,0,2,,,,,,,,,0,,,56,0
22980,note_on,0,0,2,,,,,,,,,0,,,48,0
22980,note_on,0,0,2,,,,,,,,,0,,,56,100
22980,note_on,0,0,2,,,,,,,,,0,,,44,100
22980,note_on,180,0,1,,,,,,,,,0,,,75,0
22980,control_change,360,0,3,,,,,,,,,0,64,0,,
22980,note_on,0,0,1,,,,,,,,,0,,,68,0
22980,note_on,0,0,1,,,,,,,,,0,,,63,0
22980,note_on,0,0,1,,,,,,,,,0,,,72,100
22980,note_on,0,0,1,,,,,,,,,0,,,63,100
22980,note_on,0,0,1,,,,,,,,,0,,,60,100
23040,note_on,0,0,2,,,,,,,,,0,,,51,0
23040,note_on,0,0,1,,,,,,,,,0,,,60,100
23040,note_on,0,0,1,,,,,,,,,0,,,63,100
23040,control_change,60,0,3,,,,,,,,,0,64,127,,
23040,note_on,0,0,1,,,,,,,,,0,,,72,100
23040,note_on,60,0,2,,,,,,,,,0,,,44,0
23040,note_on,0,0,1,,,,,,,,,0,,,72,0
23040,note_on,60,0,1,,,,,,,,,0,,,60,0
23040,note_on,0,0,2,,,,,,,,,0,,,44,100
23040,note_on,0,0,2,,,,,,,,,0,,,51,100
23040,note_on,0,0,2,,,,,,,,,0,,,56,100
23040,note_on,0,0,2,,,,,,,,,0,,,56,0
23040,note_on,0,0,1,,,,,,,,,0,,,63,0
23160,note_on,120,0,1,,,,,,,,,0,,,60,0
23160,note_on,0,0,1,,,,,,,,,0,,,63,0
23160,note_on,0,0,1,,,,,,,,,0,,,72,0
23160,note_on,0,0,1,,,,,,,,,0,,,72,100
23160,note_on,0,0,1,,,,,,,,,0,,,63,100
23160,note_on,0,0,1,,,,,,,,,0,,,60,100
23160,note_on,0,0,2,,,,,,,,,0,,,51,100
23160,note_on,0,0,2,,,,,,,,,0,,,44,100
23160,note_on,0,0,2,,,,,,,,,0,,,56,100
23160,note_on,0,0,2,,,,,,,,,0,,,56,0
23160,note_on,0,0,2,,,,,,,,,0,,,51,0
23160,note_on,120,0,2,,,,,,,,,0,,,44,0
23340,control_change,300,0,3,,,,,,,,,0,64,0,,
23340,note_on,180,0,2,,,,,,,,,0,,,44,0
23340,note_on,0,0,2,,,,,,,,,0,,,51,0
23340,note_on,0,0,2,,,,,,,,,0,,,56,0
23340,note_on,0,0,2,,,,,,,,,0,,,41,100
23340,note_on,0,0,2,,,,,,,,,0,,,53,100
23340,note_on,0,0,1,,,,,,,,,0,,,63,0
23340,note_on,0,0,1,,,,,,,,,0,,,72,0
23340,note_on,0,0,1,,,,,,,,,0,,,68,100
23340,note_on,0,0,1,,,,,,,,,0,,,65,100
23340,note_on,0,0,1,,,,,,,,,0,,,60,100
23340,note_on,180,0,1,,,,,,,,,0,,,60,0
23400,note_on,0,0,2,,,,,,,,,0,,,41,100
23400,note_on,60,0,1,,,,,,,,,0,,,60,0
23400,note_on,0,0,1,,,,,,,,,0,,,65,0
23400,note_on,60,0,2,,,,,,,,,0,,,53,0
23400,note_on,0,0,2,,,,,,,,,0,,,41,0
23400,note_on,0,0,1,,,,,,,,,0,,,60,100
23400,note_on,0,0,1,,,,,,,,,0,,,68,0
23400,note_on,0,0,1,,,,,,,,,0,,,65,100
23400,note_on,0,0,1,,,,,,,,,0,,,68,100
23400,note_on,0,0,2,,,,,,,,,0,,,53,100
23430,note_on,30,0,2,,,,,,,,,0,,,53,0
23430,note_on,0,0,2,,,,,,,,,0,,,41,0
23430,note_on,0,0,1,,,,,,,,,0,,,65,0
23430,note_on,30,0,1,,,,,,,,,0,,,60,0
23430,note_on,0,0,1,,,,,,,,,0,,,68,0
23520,note_on,90,0,1,,,,,,,,,0,,,70,100
23520,note_on,0,0,1,,,,,,,,,0,,,61,100
23520,note_on,0,0,2,,,,,,,,,0,,,55,100
23520,note_on,90,0,2,,,,,,,,,0,,,43,100
23520,note_on,0,0,1,,,,,,,,,0,,,63,100
23550,note_on,30,0,1,,,,,,,,,0,,,61,0
23550,note_on,0,0,1,,,,,,,,,0,,,70,0
23550,note_on,0,0,2,,,,,,,,,0,,,43,0
23550,note_on,30,0,2,,,,,,,,,0,,,55,0
23550,note_on,0,0,1,,,,,,,,,0,,,63,0
23640,note_on,90,0,1,,,,,,,,,0,,,73,100
23640,note_on,0,0,1,,,,,,,,,0,,,67,100
23640,note_on,0,0,1,,,,,,,,,0,,,63,100
23640,note_on,0,0,1,,,,,,,,,0,,,61,100
23640,note_on,0,0,1,,,,,,,,,0,,,70,100
23640,note_on,0,0,2,,,,,,,,,0,,,51,100
23640,note_on,90,0,2,,,,,,,,,0,,,39,100
23670,note_on,0,0,1,,,,,,,,,0,,,63,0
23670,note_on,0,0,1,,,,,,,,,0,,,70,0
23670,note_on,0,0,1,,,,,,,,,0,,,67,0
23670,note_on,30,0,1,,,,,,,,,0,,,61,0
23670,note_on,30,0,2,,,,,,,,,0,,,51,0
23670,note_on,0,0,1,,,,,,,,,0,,,73,0
23670,note_on,0,0,2,,,,,,,,,0,,,39,0
23760,note_on,0,0,1,,,,,,,,,0,,,60,100
23760,note_on,0,0,1,,,,,,,,,0,,,63,100
23760,note_on,90,0,2,,,,,,,,,0,,,44,100
23760,note_on,90,0,1,,,,,,,,,0,,,72,100
23760,note_on,0,0,2,,,,,,,,,0,,,51,100
23760,note_on,0,0,2,,,,,,,,,0,,,56,100
23760,control_change,420,0,3,,,,,,,,,0,64,127,,
23760,note_on,0,0,1,,,,,,,,,0,,,68,100
24000,control_change,240,0,3,,,,,,,,,0,64,0,,
24060,note_on,0,0,2,,,,,,,,,0,,,37,110
24060,control_change,60,0,3,,,,,,,,,0,64,127,,
24060,note_on,300,0,2,,,,,,,,,0,,,56,0
24060,note_on,0,0,2,,,,,,,,,0,,,51,0
24060,note_on,0,0,2,,,,,,,,,0,,,44,0
24060,note_on,0,0,2,,,,,,,,,0,,,44,110
24060,note_on,0,0,2,,,,,,,,,0,,,49,110
24060,note_on,0,0,1,,,,,,,,,0,,,65,110
24060,note_on,300,0,1,,,,,,,,,0,,,60,0
24060,note_on,0,0,1,,,,,,,,,0,,,72,0
24060,note_on,0,0,1,,,,,,,,,0,,,68,0
24060,note_on,0,0,1,,,,,,,,,0,,,63,0
24060,note_on,0,0,1,,,,,,,,,0,,,77,110
24060,note_on,0,0,1,,,,,,,,,0,,,68,110
24120,note_on,0,0,2,,,,,,,,,0,,,44,0
24120,note_on,0,0,1,,,,,,,,,0,,,68,0
24120,note_on,0,0,1,,,,,,,,,0,,,77,0
24120,note_on,0,0,1,,,,,,,,,0,,,77,110
24120,note_on,0,0,1,,,,,,,,,0,,,68,110
24120,note_on,0,0,1,,,,,,,,,0,,,65,110
24120,note_on,60,0,2,,,,,,,,,0,,,37,0
24120,note_on,60,0,1,,,,,,,,,0,,,65,0
24120,note_on,0,0,2,,,,,,,,,0,,,49,110
24120,note_on,0,0,2,,,,,,,,,0,,,44,110
24120,note_on,0,0,2,,,,,,,,,0,,,37,110
24120,note_on,0,0,2,,,,,,,,,0,,,49,0
24240,note_on,0,0,2,,,,,,,,,0,,,49,0
24240,note_on,0,0,2,,,,,,,,,0,,,44,0
24240,note_on,0,0,2,,,,,,,,,0,,,49,110
24240,note_on,0,0,2,,,,,,,,,0,,,44,110
24240,note_on,0,0,2,,,,,,,,,0,,,37,110
24240,note_on,120,0,2,,,,,,,,,0,,,37,0
24240,note_on,0,0,1,,,,,,,,,0,,,68,110
24240,note_on,120,0,1,,,,,,,,,0,,,65,0
24240,note_on,0,0,1,,,,,,,,,0,,,68,0
24240,note_on,0,0,1,,,,,,,,,0,,,77,0
24240,note_on,0,0,1,,,,,,,,,0,,,77,110
24240,note_on,0,0,1,,,,,,,,,0,,,65,110
24420,note_on,0,0,1,,,,,,,,,0,,,65,110
24420,note_on,0,0,1,,,,,,,,,0,,,68,110
24420,note_on,0,0,1,,,,,,,,,0,,,73,110
24420,note_on,0,0,1,,,,,,,,,0,,,77,0
24420,note_on,0,0,1,,,,,,,,,0,,,68,0
24420,note_on,180,0,1,,,,,,,,,0,,,65,0
24420,note_on,0,0,2,,,,,,,,,0,,,37,110
24420,note_on,0,0,2,,,,,,,,,0,,,44,110
24420,note_on,0,0,2,,,,,,,,,0,,,49,110
24420,note_on,0,0,2,,,,,,,,,0,,,37,0
24420,note_on,0,0,2,,,,,,,,,0,,,44,0
24420,note_on,180,0,2,,,,,,,,,0,,,49,0
24420,control_change,360,0,3,,,,,,,,,0,64,0,,
24480,note_on,60,0,1,,,,,,,,,0,,,65,0
24480,note_on,0,0,1,,,,,,,,,0,,,68,0
24480,note_on,0,0,1,,,,,,,,,0,,,73,0
24480,note_on,0,0,1,,,,,,,,,0,,,73,110
24480,note_on,0,0,1,,,,,,,,,0,,,68,110
24480,control_change,60,0,3,,,,,,,,,0,64,127,,
24480,note_on,0,0,2,,,,,,,,,0,,,49,110
24480,note_on,0,0,2,,,,,,,,,0,,,44,110
24480,note_on,0,0,2,,,,,,,,,0,,,37,110
24480,note_on,0,0,2,,,,,,,,,0,,,49,0
24480,note_on,0,0,2,,,,,,,,,0,,,44,0
24480,note_on,60,0,2,,,,,,,,,0,,,37,0
24480,note_on,0,0,1,,,,,,,,,0,,,65,110
24600,note_on,0,0,2,,,,,,,,,0,,,49,110
24600,note_on,0,0,2,,,,,,,,,0,,,44,110
24600,note_on,0,0,2,,,,,,,,,0,,,37,110
24600,note_on,0,0,2,,,,,,,,,0,,,37,0
24600,note_on,120,0,2,,,,,,,,,0,,,49,0
24600,note_on,0,0,2,,,,,,,,,0,,,44,0
24600,note_on,0,0,1,,,,,,,,,0,,,68,0
24600,note_on,0,0,1,,,,,,,,,0,,,73,110
24600,note_on,120,0,1,,,,,,,,,0,,,65,0
24600,note_on,0,0,1,,,,,,,,,0,,,68,110
24600,note_on,0,0,1,,,,,,,,,0,,,73,0
24600,note_on,0,0,1,,,,,,,,,0,,,65,110
24780,note_on,180,0,1,,,,,,,,,0,,,65,0
24780,note_on,0,0,1,,,,,,,,,0,,,68,110
24780,note_on,0,0,1,,,,,,,,,0,,,73,0
24780,note_on,0,0,1,,,,,,,,,0,,,68,0
24780,control_change,300,0,3,,,,,,,,,0,64,0,,
24780,note_on,180,0,2,,,,,,,,,0,,,49,0
24780,note_on,0,0,2,,,,,,,,,0,,,44,0
24780,note_on,0,0,1,,,,,,,,,0,,,65,110
24780,note_on,0,0,2,,,,,,,,,0,,,49,110
24780,note_on,0,0,2,,,,,,,,,0,,,37,110
24780,note_on,0,0,2,,,,,,,,,0,,,37,0
24840,note_on,60,0,1,,,,,,,,,0,,,65,0
24840,note_on,60,0,2,,,,,,,,,0,,,37,0
24840,note_on,0,0,2,,,,,,,,,0,,,49,0
24840,note_on,0,0,2,,,,,,,,,0,,,49,110
24840,note_on,0,0,1,,,,,,,,,0,,,65,110
24840,note_on,0,0,1,,,,,,,,,0,,,68,110
24840,note_on,0,0,1,,,,,,,,,0,,,68,0
24840,note_on,0,0,2,,,,,,,,,0,,,37,110
24870,note_on,0,0,2,,,,,,,,,0,,,49,0
24870,note_on,30,0,2,,,,,,,,,0,,,37,0
24870,note_on,0,0,1,,,,,,,,,0,,,68,0
24870,note_on,30,0,1,,,,,,,,,0,,,65,0
24960,note_on,0,0,2,,,,,,,,,0,,,33,110
24960,note_on,0,0,1,,,,,,,,,0,,,69,110
24960,note_on,90,0,2,,,,,,,,,0,,,45,110
24960,note_on,90,0,1,,,,,,,,,0,,,73,110
24960,note_on,0,0,1,,,,,,,,,0,,,66,110
24990,note_on,30,0,2,,,,,,,,,0,,,33,0
24990,note_on,0,0,1,,,,,,,,,0,,,69,0
24990,note_on,0,0,1,,,,,,,,,0,,,73,0
24990,note_on,30,0,1,,,,,,,,,0,,,66,0
24990,note_on,0,0,2,,,,,,,,,0,,,45,0
25080,note_on,0,0,2,,,,,,,,,0,,,30,110
25080,note_on,0,0,1,,,,,,,,,0,,,66,110
25080,note_on,90,0,1,,,,,,,,,0,,,78,110
25080,note_on,0,0,1,,,,,,,,,0,,,73,110
25080,note_on,90,0,2,,,,,,,,,0,,,42,110
25080,note_on,0,0,1,,,,,,,,,0,,,69,110
25110,note_on,0,0,1,,,,,,,,,0,,,69,0
25110,note_on,0,0,1,,,,,,,,,0,,,73,0
25110,note_on,0,0,1,,,,,,,,,0,,,78,0
25110,note_on,30,0,1,,,,,,,,,0,,,66,0
25110,note_on,0,0,2,,,,,,,,,0,,,42,0
25110,note_on,30,0,2,,,,,,,,,0,,,30,0
25200,note_on,90,0,1,,,,,,,,,0,,,77,110
25200,note_on,0,0,1,,,,,,,,,0,,,68,110
25200,note_on,0,0,1,,,,,,,,,0,,,65,110
25200,control_change,420,0,3,,,,,,,,,0,64,127,,
25200,note_on,90,0,2,,,,,,,,,0,,,37,110
25200,note_on,0,0,2,,,,,,,,,0,,,49,110
25200,note_on,0,0,1,,,,,,,,,0,,,73,110
25500,note_on,300,0,2,,,,,,,,,0,,,49,0
25500,note_on,0,0,2,,,,,,,,,0,,,33,110
25500,note_on,0,0,2,,,,,,,,,0,,,45,110
25500,note_on,0,0,2,,,,,,,,,0,,,37,0
25500,note_on,0,0,1,,,,,,,,,0,,,68,0
25500,control_change,300,0,3,,,,,,,,,0,64,0,,
25500,note_on,300,0,1,,,,,,,,,0,,,65,0
25500,note_on,0,0,1,,,,,,,,,0,,,77,0
25500,note_on,0,0,1,,,,,,,,,0,,,73,0
25500,note_on,0,0,1,,,,,,,,,0,,,66,110
25500,note_on,0,0,1,,,,,,,,,0,,,78,110
25500,note_on,0,0,1,,,,,,,,,0,,,73,110
25560,note_on,0,0,1,,,,,,,,,0,,,78,0
25560,note_on,0,0,1,,,,,,,,,0,,,73,0
25560,note_on,60,0,1,,,,,,,,,0,,,66,0
25560,note_on,0,0,2,,,,,,,,,0,,,33,0
25560,note_on,60,0,2,,,,,,,,,0,,,45,0
25560,note_on,0,0,2,,,,,,,,,0,,,33,110
25560,note_on,0,0,2,,,,,,,,,0,,,45,110
25560,note_on,0,0,1,,,,,,,,,0,,,73,110
25560,note_on,0,0,1,,,,,,,,,0,,,66,110
25560,note_on,0,0,1,,,,,,,,,0,,,78,110
25920,control_change,420,0,3,,,,,,,,,0,64,127,,
25920,set_tempo,3300,1,0,,,,,,454580,,,,,,,
25920,note_on,360,0,1,,,,,,,,,0,,,66,0
25920,note_on,0,0,1,,,,,,,,,0,,,73,0
25920,note_on,0,0,1,,,,,,,,,0,,,78,0
25920,note_on,0,0,1,,,,,,,,,0,,,67,60
25920,note_on,0,0,1,,,,,,,,,0,,,73,60
25920,note_on,0,0,1,,,,,,,,,0,,,76,60
25934,set_tempo,14,1,0,,,,,,455615,,,,,,,
25941,set_tempo,7,1,0,,,,,,456656,,,,,,,
25948,set_tempo,7,1,0,,,,,,457701,,,,,,,
25955,set_tempo,7,1,0,,,,,,458751,,,,,,,
25962,set_tempo,7,1,0,,,,,,459805,,,,,,,
25969,set_tempo,7,1,0,,,,,,460865,,,,,,,
25976,set_tempo,7,1,0,,,,,,461929,,,,,,,
25983,set_tempo,7,1,0,,,,,,462999,,,,,,,
25990,set_tempo,7,1,0,,,,,,464073,,,,,,,
25997,set_tempo,7,1,0,,,,,,465152,,,,,,,
26004,set_tempo,7,1,0,,,,,,466237,,,,,,,
26011,set_tempo,7,1,0,,,,,,467326,,,,,,,
26018,set_tempo,7,1,0,,,,,,468421,,,,,,,
26025,set_tempo,7,1,0,,,,,,469520,,,,,,,
26032,set_tempo,7,1,0,,,,,,470625,,,,,,,
26040,note_on,0,0,1,,,,,,,,,0,,,75,60
26040,set_tempo,8,1,0,,,,,,471735,,,,,,,
26040,note_on,120,0,1,,,,,,,,,0,,,76,0
26047,set_tempo,7,1,0,,,,,,472851,,,,,,,
26054,set_tempo,7,1,0,,,,,,473971,,,,,,,
26061,set_tempo,7,1,0,,,,,,475097,,,,,,,
26068,set_tempo,7,1,0,,,,,,476228,,,,,,,
26075,set_tempo,7,1,0,,,,,,477365,,,,,,,
26082,set_tempo,7,1,0,,,,,,478507,,,,,,,
26089,set_tempo,7,1,0,,,,,,479655,,,,,,,
26096,set_tempo,7,1,0,,,,,,480808,,,,,,,
26103,set_tempo,7,1,0,,,,,,481966,,,,,,,
26110,set_tempo,7,1,0,,,,,,483131,,,,,,,
26117,set_tempo,7,1,0,,,,,,484301,,,,,,,
26124,set_tempo,7,1,0,,,,,,485476,,,,,,,
26131,set_tempo,7,1,0,,,,,,486657,,,,,,,
26138,set_tempo,7,1,0,,,,,,487845,,,,,,,
26145,set_tempo,7,1,0,,,,,,489037,,,,,,,
26152,set_tempo,7,1,0,,,,,,490236,,,,,,,
26160,control_change,240,0,3,,,,,,,,,0,64,0,,
26160,set_tempo,8,1,0,,,,,,491441,,,,,,,
26160,note_on,120,0,1,,,,,,,,,0,,,75,0
26160,note_on,0,0,1,,,,,,,,,0,,,73,0
26160,note_on,0,0,1,,,,,,,,,0,,,73,60
26167,set_tempo,7,1,0,,,,,,492651,,,,,,,
26174,set_tempo,7,1,0,,,,,,493868,,,,,,,
26181,set_tempo,7,1,0,,,,,,495090,,,,,,,
26188,set_tempo,7,1,0,,,,,,496319,,,,,,,
26195,set_tempo,7,1,0,,,,,,497554,,,,,,,
26202,set_tempo,7,1,0,,,,,,498795,,,,,,,
26209,set_tempo,7,1,0,,,,,,500042,,,,,,,
26216,set_tempo,7,1,0,,,,,,501295,,,,,,,
26220,note_on,0,0,2,,,,,,,,,0,,,40,60
26220,note_on,0,0,2,,,,,,,,,0,,,52,60
26220,note_on,60,0,1,,,,,,,,,0,,,73,0
26220,note_on,0,0,1,,,,,,,,,0,,,67,0
26220,note_on,0,0,1,,,,,,,,,0,,,61,60
26220,note_on,0,0,1,,,,,,,,,0,,,68,60
26220,note_on,660,0,2,,,,,,,,,0,,,45,0
26220,note_on,0,0,2,,,,,,,,,0,,,33,0
26223,set_tempo,7,1,0,,,,,,502555,,,,,,,
26230,set_tempo,7,1,0,,,,,,503821,,,,,,,
26237,set_tempo,7,1,0,,,,,,505093,,,,,,,
26244,set_tempo,7,1,0,,,,,,506372,,,,,,,
26250,note_on,0,0,2,,,,,,,,,0,,,40,0
26250,note_on,30,0,2,,,,,,,,,0,,,52,0
26250,note_on,30,0,1,,,,,,,,,0,,,68,0
26250,note_on,0,0,1,,,,,,,,,0,,,61,0
26251,set_tempo,7,1,0,,,,,,507657,,,,,,,
26258,set_tempo,7,1,0,,,,,,508949,,,,,,,
26265,set_tempo,7,1,0,,,,,,510247,,,,,,,
26272,set_tempo,7,1,0,,,,,,511553,,,,,,,
26280,note_on,0,0,2,,,,,,,,,0,,,52,110
26280,note_on,30,0,2,,,,,,,,,0,,,40,110
26280,control_change,120,0,3,,,,,,,,,0,64,127,,
26280,note_on,30,0,1,,,,,,,,,0,,,61,110
26280,note_on,0,0,1,,,,,,,,,0,,,68,110
26287,set_tempo,15,1,0,,,,,,512864,,,,,,,
26294,set_tempo,7,1,0,,,,,,514183,,,,,,,
26301,set_tempo,7,1,0,,,,,,515508,,,,,,,
26308,set_tempo,7,1,0,,,,,,516840,,,,,,,
26315,set_tempo,7,1,0,,,,,,518179,,,,,,,
26322,set_tempo,7,1,0,,,,,,519526,,,,,,,
26329,set_tempo,7,1,0,,,,,,520879,,,,,,,
26336,set_tempo,7,1,0,,,,,,522239,,,,,,,
26343,set_tempo,7,1,0,,,,,,523606,,,,,,,
26350,set_tempo,7,1,0,,,,,,524980,,,,,,,
26357,set_tempo,7,1,0,,,,,,526362,,,,,,,
26364,set_tempo,7,1,0,,,,,,527751,,,,,,,
26371,set_tempo,7,1,0,,,,,,529147,,,,,,,
26378,set_tempo,7,1,0,,,,,,530551,,,,,,,
26385,set_tempo,7,1,0,,,,,,531962,,,,,,,
26392,set_tempo,7,1,0,,,,,,533381,,,,,,,
26400,note_on,0,0,1,,,,,,,,,0,,,70,93
26400,note_on,120,0,1,,,,,,,,,0,,,68,0
26400,set_tempo,8,1,0,,,,,,534807,,,,,,,
26407,set_tempo,7,1,0,,,,,,536241,,,,,,,
26414,set_tempo,7,1,0,,,,,,537683,,,,,,,
26421,set_tempo,7,1,0,,,,,,539132,,,,,,,
26428,set_tempo,7,1,0,,,,,,540589,,,,,,,
26435,set_tempo,7,1,0,,,,,,542054,,,,,,,
26442,set_tempo,7,1,0,,,,,,543527,,,,,,,
26449,set_tempo,7,1,0,,,,,,545009,,,,,,,
26456,set_tempo,7,1,0,,,,,,546498,,,,,,,
26460,note_on,60,0,1,,,,,,,,,0,,,70,0
26460,note_on,0,0,1,,,,,,,,,0,,,68,85
26463,set_tempo,7,1,0,,,,,,547995,,,,,,,
26470,set_tempo,7,1,0,,,,,,549501,,,,,,,
26477,set_tempo,7,1,0,,,,,,551015,,,,,,,
26484,set_tempo,7,1,0,,,,,,552537,,,,,,,
26491,set_tempo,7,1,0,,,,,,554068,,,,,,,
26498,set_tempo,7,1,0,,,,,,555607,,,,,,,
26505,set_tempo,7,1,0,,,,,,557155,,,,,,,
26512,set_tempo,7,1,0,,,,,,558711,,,,,,,
26520,set_tempo,8,1,0,,,,,,560276,,,,,,,
26520,note_on,0,0,1,,,,,,,,,0,,,67,76
26520,note_on,60,0,1,,,,,,,,,0,,,68,0
26527,set_tempo,7,1,0,,,,,,561850,,,,,,,
26534,set_tempo,7,1,0,,,,,,563433,,,,,,,
26541,set_tempo,7,1,0,,,,,,565025,,,,,,,
26548,set_tempo,7,1,0,,,,,,566626,,,,,,,
26555,set_tempo,7,1,0,,,,,,568236,,,,,,,
26562,set_tempo,7,1,0,,,,,,569855,,,,,,,
26569,set_tempo,7,1,0,,,,,,571483,,,,,,,
26576,set_tempo,7,1,0,,,,,,573121,,,,,,,
26580,note_on,60,0,1,,,,,,,,,0,,,67,0
26580,note_on,0,0,1,,,,,,,,,0,,,68,68
26583,set_tempo,7,1,0,,,,,,574768,,,,,,,
26590,set_tempo,7,1,0,,,,,,576424,,,,,,,
26597,set_tempo,7,1,0,,,,,,578090,,,,,,,
26604,set_tempo,7,1,0,,,,,,579766,,,,,,,
26611,set_tempo,7,1,0,,,,,,581452,,,,,,,
26618,set_tempo,7,1,0,,,,,,583147,,,,,,,
26625,set_tempo,7,1,0,,,,,,584852,,,,,,,
26625,note_on,45,0,1,,,,,,,,,0,,,68,61
26625,control_change,345,0,3,,,,,,,,,0,64,0,,
26632,set_tempo,7,1,0,,,,,,586568,,,,,,,
26640,note_on,0,0,1,,,,,,,,,0,,,62,60
26640,note_on,0,0,1,,,,,,,,,0,,,61,0
26640,note_on,15,0,1,,,,,,,,,0,,,68,0
26640,note_on,0,0,1,,,,,,,,,0,,,72,60
26647,set_tempo,15,1,0,,,,,,588293,,,,,,,
26654,set_tempo,7,1,0,,,,,,590029,,,,,,,
26661,set_tempo,7,1,0,,,,,,591774,,,,,,,
26668,set_tempo,7,1,0,,,,,,593531,,,,,,,
26675,set_tempo,7,1,0,,,,,,595297,,,,,,,
26682,set_tempo,7,1,0,,,,,,597074,,,,,,,
26689,set_tempo,7,1,0,,,,,,598862,,,,,,,
26696,set_tempo,7,1,0,,,,,,600661,,,,,,,
26703,set_tempo,7,1,0,,,,,,602470,,,,,,,
26710,set_tempo,7,1,0,,,,,,604290,,,,,,,
26717,set_tempo,7,1,0,,,,,,606122,,,,,,,
26724,set_tempo,7,1,0,,,,,,607964,,,,,,,
26731,set_tempo,7,1,0,,,,,,609818,,,,,,,
26738,set_tempo,7,1,0,,,,,,611683,,,,,,,
26745,set_tempo,7,1,0,,,,,,613560,,,,,,,
26752,set_tempo,7,1,0,,,,,,615448,,,,,,,
26760,note_on,120,0,1,,,,,,,,,0,,,72,0
26760,note_on,0,0,1,,,,,,,,,0,,,70,58
26760,set_tempo,8,1,0,,,,,,617347,,,,,,,
26767,set_tempo,7,1,0,,,,,,619259,,,,,,,
26774,set_tempo,7,1,0,,,,,,621182,,,,,,,
26781,set_tempo,7,1,0,,,,,,623118,,,,,,,
26788,set_tempo,7,1,0,,,,,,625065,,,,,,,
26795,set_tempo,7,1,0,,,,,,627025,,,,,,,
26802,set_tempo,7,1,0,,,,,,628997,,,,,,,
26809,set_tempo,7,1,0,,,,,,630981,,,,,,,
26816,set_tempo,7,1,0,,,,,,632978,,,,,,,
26823,set_tempo,7,1,0,,,,,,634988,,,,,,,
26830,set_tempo,7,1,0,,,,,,637010,,,,,,,
26837,set_tempo,7,1,0,,,,,,639046,,,,,,,
26844,set_tempo,7,1,0,,,,,,641094,,,,,,,
26851,set_tempo,7,1,0,,,,,,643156,,,,,,,
26858,set_tempo,7,1,0,,,,,,645231,,,,,,,
26865,set_tempo,7,1,0,,,,,,647319,,,,,,,
26872,set_tempo,7,1,0,,,,,,649421,,,,,,,
26880,note_on,0,0,1,,,,,,,,,0,,,68,55
26880,set_tempo,8,1,0,,,,,,651537,,,,,,,
26880,note_on,120,0,1,,,,,,,,,0,,,70,0
26887,set_tempo,7,1,0,,,,,,653666,,,,,,,
26894,set_tempo,7,1,0,,,,,,655809,,,,,,,
26901,set_tempo,7,1,0,,,,,,657967,,,,,,,
26908,set_tempo,7,1,0,,,,,,660139,,,,,,,
26915,set_tempo,7,1,0,,,,,,662325,,,,,,,
26922,set_tempo,7,1,0,,,,,,664525,,,,,,,
26929,set_tempo,7,1,0,,,,,,666741,,,,,,,
26936,set_tempo,7,1,0,,,,,,668971,,,,,,,
26943,set_tempo,7,1,0,,,,,,671216,,,,,,,
26950,set_tempo,7,1,0,,,,,,673476,,,,,,,
26957,set_tempo,7,1,0,,,,,,675752,,,,,,,
26964,set_tempo,7,1,0,,,,,,678043,,,,,,,
26971,set_tempo,7,1,0,,,,,,680349,,,,,,,
26978,set_tempo,7,1,0,,,,,,682672,,,,,,,
26985,set_tempo,7,1,0,,,,,,685010,,,,,,,
26992,set_tempo,7,1,0,,,,,,687364,,,,,,,
27000,note_on,120,0,1,,,,,,,,,0,,,68,0
27000,note_on,0,0,1,,,,,,,,,0,,,62,0
27000,note_on,0,0,1,,,,,,,,,0,,,68,0
27000,note_on,0,0,1,,,,,,,,,0,,,63,53
27000,note_on,0,0,1,,,,,,,,,0,,,56,53
27000,note_on,0,0,1,,,,,,,,,0,,,60,53
27000,control_change,375,0,3,,,,,,,,,0,64,127,,
27000,note_on,720,0,2,,,,,,,,,0,,,52,0
27000,note_on,0,0,2,,,,,,,,,0,,,40,0
27000,note_on,0,0,2,,,,,,,,,0,,,51,53
27000,note_on,0,0,2,,,,,,,,,0,,,39,63
27007,set_tempo,15,1,0,,,,,,689734,,,,,,,
27014,set_tempo,7,1,0,,,,,,692121,,,,,,,
27021,set_tempo,7,1,0,,,,,,694525,,,,,,,
27028,set_tempo,7,1,0,,,,,,696945,,,,,,,
27035,set_tempo,7,1,0,,,,,,699382,,,,,,,
27042,set_tempo,7,1,0,,,,,,701836,,,,,,,
27049,set_tempo,7,1,0,,,,,,704308,,,,,,,
27056,set_tempo,7,1,0,,,,,,706797,,,,,,,
27063,set_tempo,7,1,0,,,,,,709304,,,,,,,
27070,set_tempo,7,1,0,,,,,,711828,,,,,,,
27077,set_tempo,7,1,0,,,,,,714371,,,,,,,
27084,set_tempo,7,1,0,,,,,,716932,,,,,,,
27091,set_tempo,7,1,0,,,,,,719511,,,,,,,
27098,set_tempo,7,1,0,,,,,,722109,,,,,,,
27105,set_tempo,7,1,0,,,,,,724725,,,,,,,
27112,set_tempo,7,1,0,,,,,,727361,,,,,,,
27120,note_on,0,0,2,,,,,,,,,0,,,51,50
27120,note_on,0,0,1,,,,,,,,,0,,,63,50
27120,note_on,120,0,1,,,,,,,,,0,,,63,0
27120,note_on,120,0,2,,,,,,,,,0,,,51,0
27120,set_tempo,8,1,0,,,,,,730016,,,,,,,
27127,set_tempo,7,1,0,,,,,,732690,,,,,,,
27134,set_tempo,7,1,0,,,,,,735384,,,,,,,
27141,set_tempo,7,1,0,,,,,,738098,,,,,,,
27148,set_tempo,7,1,0,,,,,,740832,,,,,,,
27155,set_tempo,7,1,0,,,,,,743587,,,,,,,
27162,set_tempo,7,1,0,,,,,,746361,,,,,,,
27169,set_tempo,7,1,0,,,,,,749157,,,,,,,
27176,set_tempo,7,1,0,,,,,,751974,,,,,,,
27183,set_tempo,7,1,0,,,,,,754812,,,,,,,
27190,set_tempo,7,1,0,,,,,,757671,,,,,,,
27197,set_tempo,7,1,0,,,,,,760553,,,,,,,
27204,set_tempo,7,1,0,,,,,,763456,,,,,,,
27211,set_tempo,7,1,0,,,,,,766381,,,,,,,
27218,set_tempo,7,1,0,,,,,,769329,,,,,,,
27225,set_tempo,7,1,0,,,,,,772300,,,,,,,
27232,set_tempo,7,1,0,,,,,,775294,,,,,,,
27240,control_change,240,0,3,,,,,,,,,0,64,0,,
27240,set_tempo,8,1,0,,,,,,778311,,,,,,,
27247,set_tempo,7,1,0,,,,,,781352,,,,,,,
27254,set_tempo,7,1,0,,,,,,784416,,,,,,,
27261,set_tempo,7,1,0,,,,,,787505,,,,,,,
27268,set_tempo,7,1,0,,,,,,790618,,,,,,,
27275,set_tempo,7,1,0,,,,,,793756,,,,,,,
27282,set_tempo,7,1,0,,,,,,796919,,,,,,,
27289,set_tempo,7,1,0,,,,,,800107,,,,,,,
27296,set_tempo,7,1,0,,,,,,803320,,,,,,,
27303,set_tempo,7,1,0,,,,,,806560,,,,,,,
27310,set_tempo,7,1,0,,,,,,809826,,,,,,,
27317,set_tempo,7,1,0,,,,,,813118,,,,,,,
27324,set_tempo,7,1,0,,,,,,816438,,,,,,,
27331,set_tempo,7,1,0,,,,,,819784,,,,,,,
27338,set_tempo,7,1,0,,,,,,823158,,,,,,,
27345,set_tempo,7,1,0,,,,,,826560,,,,,,,
27352,set_tempo,7,1,0,,,,,,829990,,,,,,,
27360,note_on,0,0,1,,,,,,,,,0,,,63,45
27360,note_on,0,0,2,,,,,,,,,0,,,51,45
27360,note_on,0,0,2,,,,,,,,,0,,,39,55
27360,note_on,0,0,1,,,,,,,,,0,,,58,45
27360,note_on,0,0,1,,,,,,,,,0,,,61,45
27360,note_on,0,0,1,,,,,,,,,0,,,55,45
27360,note_on,0,0,1,,,,,,,,,0,,,60,0
27360,note_on,0,0,1,,,,,,,,,0,,,56,0
27360,note_on,0,0,2,,,,,,,,,0,,,39,0
27360,note_on,240,0,1,,,,,,,,,0,,,63,0
27360,set_tempo,8,1,0,,,,,,833333,,,,,,,
27360,control_change,120,0,3,,,,,,,,,0,64,127,,
27360,note_on,240,0,2,,,,,,,,,0,,,51,0
27480,note_on,120,0,1,,,,,,,,,0,,,63,0
27480,note_on,0,0,2,,,,,,,,,0,,,51,42
27480,set_tempo,120,1,0,,,,,,1250000,,,,,,,
27480,note_on,0,0,1,,,,,,,,,0,,,63,42
27480,note_on,120,0,2,,,,,,,,,0,,,51,0
27600,set_tempo,120,1,0,,,,,,454545,,,,,,,
27600,control_change,240,0,3,,,,,,,,,0,64,0,,
27600,note_on,0,0,2,,,,,,,,,0,,,51,50
27600,note_on,120,0,2,,,,,,,,,0,,,51,0
27600,note_on,0,0,2,,,,,,,,,0,,,39,0
27600,note_on,0,0,1,,,,,,,,,0,,,55,0
27600,note_on,0,0,1,,,,,,,,,0,,,63,50
27600,note_on,120,0,1,,,,,,,,,0,,,63,0
27600,note_on,0,0,1,,,,,,,,,0,,,61,0
27600,note_on,0,0,1,,,,,,,,,0,,,58,0
27720,note_on,120,0,1,,,,,,,,,0,,,63,0
27720,note_on,120,0,2,,,,,,,,,0,,,51,0
27720,note_on,0,0,2,,,,,,,,,0,,,51,42
27720,note_on,0,0,2,,,,,,,,,0,,,44,52
27720,control_change,120,0,3,,,,,,,,,0,64,127,,
27720,note_on,0,0,1,,,,,,,,,0,,,68,52
27720,note_on,0,0,1,,,,,,,,,0,,,60,42
27720,note_on,0,0,1,,,,,,,,,0,,,63,42
27840,note_on,0,0,2,,,,,,,,,0,,,51,44
27840,note_on,0,0,1,,,,,,,,,0,,,60,44
27840,note_on,0,0,1,,,,,,,,,0,,,63,44
27840,note_on,120,0,2,,,,,,,,,0,,,51,0
27840,note_on,0,0,1,,,,,,,,,0,,,63,0
27840,note_on,0,0,1,,,,,,,,,0,,,60,0
27840,note_on,120,0,1,,,,,,,,,0,,,68,0
27840,note_on,0,0,1,,,,,,,,,0,,,68,54
27960,control_change,240,0,3,,,,,,,,,0,64,0,,
28020,note_on,180,0,1,,,,,,,,,0,,,68,0
28020,note_on,0,0,1,,,,,,,,,0,,,70,57
28080,note_on,240,0,2,,,,,,,,,0,,,51,0
28080,note_on,0,0,2,,,,,,,,,0,,,44,0
28080,note_on,0,0,2,,,,,,,,,0,,,46,58
28080,note_on,0,0,2,,,,,,,,,0,,,51,48
28080,note_on,0,0,1,,,,,,,,,0,,,68,58
28080,note_on,0,0,1,,,,,,,,,0,,,63,48
28080,note_on,0,0,1,,,,,,,,,0,,,61,48
28080,note_on,0,0,1,,,,,,,,,0,,,63,0
28080,note_on,0,0,1,,,,,,,,,0,,,60,0
28080,note_on,60,0,1,,,,,,,,,0,,,70,0
28200,note_on,0,0,2,,,,,,,,,0,,,51,50
28200,control_change,240,0,3,,,,,,,,,0,64,127,,
28200,note_on,0,0,1,,,,,,,,,0,,,67,60
28200,note_on,0,0,1,,,,,,,,,0,,,63,50
28200,note_on,0,0,1,,,,,,,,,0,,,61,0
28200,note_on,0,0,1,,,,,,,,,0,,,63,0
28200,note_on,120,0,1,,,,,,,,,0,,,68,0
28200,note_on,120,0,2,,,,,,,,,0,,,51,0
28200,note_on,0,0,1,,,,,,,,,0,,,61,50
28380,note_on,180,0,1,,,,,,,,,0,,,67,0
28380,note_on,0,0,1,,,,,,,,,0,,,70,64
28440,note_on,0,0,2,,,,,,,,,0,,,51,55
28440,note_on,240,0,2,,,,,,,,,0,,,51,0
28440,note_on,0,0,2,,,,,,,,,0,,,46,0
28440,control_change,240,0,3,,,,,,,,,0,64,0,,
28440,note_on,0,0,2,,,,,,,,,0,,,48,65
28440,note_on,0,0,1,,,,,,,,,0,,,70,65
28440,note_on,60,0,1,,,,,,,,,0,,,70,0
28440,note_on,0,0,1,,,,,,,,,0,,,63,0
28440,note_on,0,0,1,,,,,,,,,0,,,61,0
28560,note_on,0,0,2,,,,,,,,,0,,,51,57
28560,note_on,120,0,1,,,,,,,,,0,,,70,0
28560,note_on,0,0,1,,,,,,,,,0,,,68,67
28560,note_on,0,0,1,,,,,,,,,0,,,63,57
28560,note_on,120,0,2,,,,,,,,,0,,,51,0
28680,note_on,0,0,1,,,,,,,,,0,,,63,0
28680,note_on,120,0,1,,,,,,,,,0,,,68,0
28680,note_on,120,0,2,,,,,,,,,0,,,51,0
28680,note_on,0,0,1,,,,,,,,,0,,,61,59
28680,note_on,0,0,2,,,,,,,,,0,,,48,0
28680,note_on,0,0,2,,,,,,,,,0,,,51,59
28680,note_on,0,0,2,,,,,,,,,0,,,43,69
28680,note_on,0,0,1,,,,,,,,,0,,,70,69
28680,note_on,0,0,1,,,,,,,,,0,,,63,59
28800,note_on,0,0,1,,,,,,,,,0,,,63,61
28800,note_on,120,0,1,,,,,,,,,0,,,70,0
28800,note_on,0,0,1,,,,,,,,,0,,,63,0
28800,note_on,0,0,1,,,,,,,,,0,,,72,71
28800,note_on,0,0,1,,,,,,,,,0,,,60,61
28800,note_on,120,0,2,,,,,,,,,0,,,43,0
28800,note_on,0,0,2,,,,,,,,,0,,,51,0
28800,note_on,0,0,2,,,,,,,,,0,,,51,61
28800,note_on,0,0,2,,,,,,,,,0,,,44,71
28800,note_on,0,0,1,,,,,,,,,0,,,61,0
29040,note_on,0,0,2,,,,,,,,,0,,,51,0
29040,note_on,240,0,1,,,,,,,,,0,,,72,0
29040,note_on,0,0,1,,,,,,,,,0,,,60,0
29040,note_on,0,0,1,,,,,,,,,0,,,63,0
29040,note_on,0,0,1,,,,,,,,,0,,,63,76
29040,note_on,0,0,2,,,,,,,,,0,,,51,76
29040,note_on,240,0,2,,,,,,,,,0,,,44,0
29160,note_on,120,0,2,,,,,,,,,0,,,51,0
29160,note_on,0,0,2,,,,,,,,,0,,,51,68
29160,note_on,0,0,2,,,,,,,,,0,,,42,78
29160,note_on,0,0,1,,,,,,,,,0,,,72,78
29160,control_change,720,0,3,,,,,,,,,0,64,127,,
29160,note_on,120,0,1,,,,,,,,,0,,,63,0
29160,note_on,0,0,1,,,,,,,,,0,,,63,68
29160,note_on,0,0,1,,,,,,,,,0,,,60,68
29280,note_on,0,0,1,,,,,,,,,0,,,60,70
29280,note_on,0,0,2,,,,,,,,,0,,,51,70
29280,note_on,120,0,2,,,,,,,,,0,,,51,0
29280,note_on,120,0,1,,,,,,,,,0,,,72,0
29280,note_on,0,0,1,,,,,,,,,0,,,60,0
29280,note_on,0,0,1,,,,,,,,,0,,,63,0
29280,note_on,0,0,1,,,,,,,,,0,,,63,70
29280,note_on,0,0,1,,,,,,,,,0,,,72,80
29460,note_on,0,0,1,,,,,,,,,0,,,60,0
29460,note_on,0,0,1,,,,,,,,,0,,,63,0
29460,note_on,0,0,1,,,,,,,,,0,,,58,73
29460,note_on,180,0,1,,,,,,,,,0,,,72,0
29460,note_on,0,0,1,,,,,,,,,0,,,70,83
29460,note_on,0,0,1,,,,,,,,,0,,,61,73
29520,note_on,60,0,1,,,,,,,,,0,,,70,0
29520,note_on,0,0,2,,,,,,,,,0,,,41,84
29520,note_on,0,0,1,,,,,,,,,0,,,61,0
29520,note_on,0,0,2,,,,,,,,,0,,,51,74
29520,note_on,0,0,1,,,,,,,,,0,,,58,0
29520,note_on,0,0,1,,,,,,,,,0,,,61,74
29520,note_on,0,0,1,,,,,,,,,0,,,58,74
29520,note_on,0,0,1,,,,,,,,,0,,,70,84
29520,note_on,0,0,2,,,,,,,,,0,,,42,0
29520,note_on,240,0,2,,,,,,,,,0,,,51,0
29520,control_change,360,0,3,,,,,,,,,0,64,0,,
29640,note_on,0,0,1,,,,,,,,,0,,,69,87
29640,note_on,0,0,1,,,,,,,,,0,,,57,77
29640,note_on,120,0,1,,,,,,,,,0,,,70,0
29640,note_on,0,0,1,,,,,,,,,0,,,61,0
29640,note_on,0,0,1,,,,,,,,,0,,,58,0
29640,note_on,0,0,2,,,,,,,,,0,,,51,77
29640,note_on,0,0,1,,,,,,,,,0,,,60,77
29640,note_on,120,0,2,,,,,,,,,0,,,51,0
29820,note_on,180,0,2,,,,,,,,,0,,,51,0
29820,note_on,180,0,1,,,,,,,,,0,,,69,0
29820,note_on,0,0,1,,,,,,,,,0,,,57,0
29820,note_on,0,0,2,,,,,,,,,0,,,49,80
29820,note_on,0,0,2,,,,,,,,,0,,,40,90
29820,note_on,0,0,2,,,,,,,,,0,,,41,0
29820,note_on,0,0,1,,,,,,,,,0,,,60,0
29820,note_on,0,0,1,,,,,,,,,0,,,58,80
29820,note_on,0,0,1,,,,,,,,,0,,,70,90
29820,note_on,0,0,1,,,,,,,,,0,,,61,80
29880,note_on,60,0,1,,,,,,,,,0,,,70,0
29880,note_on,0,0,1,,,,,,,,,0,,,58,0
29880,note_on,0,0,1,,,,,,,,,0,,,61,0
29880,note_on,0,0,1,,,,,,,,,0,,,61,80
29880,note_on,0,0,1,,,,,,,,,0,,,58,80
29880,note_on,0,0,1,,,,,,,,,0,,,70,90
29880,note_on,0,0,2,,,,,,,,,0,,,49,0
29880,note_on,60,0,2,,,,,,,,,0,,,40,0
29880,note_on,0,0,2,,,,,,,,,0,,,40,90
29880,note_on,0,0,2,,,,,,,,,0,,,49,80
30000,note_on,0,0,1,,,,,,,,,0,,,56,66
30000,note_on,120,0,2,,,,,,,,,0,,,40,0
30000,note_on,0,0,2,,,,,,,,,0,,,49,0
30000,note_on,0,0,2,,,,,,,,,0,,,51,66
30000,note_on,0,0,2,,,,,,,,,0,,,39,76
30000,note_on,120,0,1,,,,,,,,,0,,,70,0
30000,note_on,0,0,1,,,,,,,,,0,,,68,76
30000,note_on,0,0,1,,,,,,,,,0,,,60,66
30000,note_on,0,0,1,,,,,,,,,0,,,58,0
30000,note_on,0,0,1,,,,,,,,,0,,,61,0
30120,note_on,120,0,2,,,,,,,,,0,,,39,0
30120,note_on,0,0,2,,,,,,,,,0,,,51,51
30120,note_on,120,0,1,,,,,,,,,0,,,68,0
30120,note_on,0,0,1,,,,,,,,,0,,,60,0
30120,note_on,0,0,2,,,,,,,,,0,,,51,0
30120,note_on,0,0,1,,,,,,,,,0,,,58,51
30120,note_on,0,0,1,,,,,,,,,0,,,55,51
30120,note_on,0,0,1,,,,,,,,,0,,,67,61
30120,note_on,0,0,2,,,,,,,,,0,,,39,61
30120,note_on,0,0,2,,,,,,,,,0,,,49,51
30120,note_on,0,0,1,,,,,,,,,0,,,56,0
30150,note_on,30,0,1,,,,,,,,,0,,,67,0
30150,note_on,0,0,1,,,,,,,,,0,,,55,0
30150,note_on,0,0,1,,,,,,,,,0,,,58,0
30150,note_on,30,0,2,,,,,,,,,0,,,39,0
30150,note_on,0,0,2,,,,,,,,,0,,,51,0
30150,note_on,0,0,2,,,,,,,,,0,,,49,0
30240,note_on,90,0,2,,,,,,,,,0,,,48,40
30240,note_on,90,0,1,,,,,,,,,0,,,60,40
30240,note_on,0,0,1,,,,,,,,,0,,,56,40
30240,note_on,0,0,2,,,,,,,,,0,,,51,40
30240,note_on,0,0,1,,,,,,,,,0,,,68,50
30240,note_on,0,0,2,,,,,,,,,0,,,44,50
30480,note_on,240,0,2,,,,,,,,,0,,,44,0
30480,note_on,0,0,2,,,,,,,,,0,,,51,0
30480,note_on,0,0,2,,,,,,,,,0,,,48,0
30480,note_on,0,0,2,,,,,,,,,0,,,51,50
30480,control_change,960,0,3,,,,,,,,,0,64,127,,
30480,note_on,0,0,1,,,,,,,,,0,,,75,50
30480,note_on,0,0,1,,,,,,,,,0,,,60,0
30480,note_on,0,0,1,,,,,,,,,0,,,56,0
30480,note_on,240,0,1,,,,,,,,,0,,,68,0
30600,note_on,120,0,2,,,,,,,,,0,,,51,0
30600,note_on,120,0,1,,,,,,,,,0,,,75,0
30600,note_on,0,0,1,,,,,,,,,0,,,75,42
30600,note_on,0,0,1,,,,,,,,,0,,,72,42
30600,note_on,0,0,1,,,,,,,,,0,,,80,52
30600,note_on,0,0,2,,,,,,,,,0,,,44,52
30600,note_on,0,0,2,,,,,,,,,0,,,51,42
30720,note_on,120,0,1,,,,,,,,,0,,,80,0
30720,note_on,0,0,1,,,,,,,,,0,,,72,0
30720,note_on,0,0,1,,,,,,,,,0,,,75,0
30720,note_on,0,0,1,,,,,,,,,0,,,75,44
30720,note_on,0,0,1,,,,,,,,,0,,,72,44
30720,note_on,0,0,1,,,,,,,,,0,,,80,54
30720,note_on,0,0,2,,,,,,,,,0,,,51,44
30720,note_on,120,0,2,,,,,,,,,0,,,51,0
30900,note_on,180,0,1,,,,,,,,,0,,,80,0
30900,note_on,0,0,1,,,,,,,,,0,,,82,57
30900,control_change,420,0,3,,,,,,,,,0,64,0,,
30960,note_on,240,0,2,,,,,,,,,0,,,51,0
30960,note_on,60,0,1,,,,,,,,,0,,,82,0
30960,note_on,0,0,1,,,,,,,,,0,,,72,0
30960,note_on,0,0,1,,,,,,,,,0,,,73,48
30960,note_on,0,0,1,,,,,,,,,0,,,80,58
30960,note_on,0,0,1,,,,,,,,,0,,,75,48
30960,note_on,0,0,1,,,,,,,,,0,,,75,0
30960,note_on,0,0,2,,,,,,,,,0,,,44,0
30960,note_on,0,0,2,,,,,,,,,0,,,46,58
30960,note_on,0,0,2,,,,,,,,,0,,,51,48
31080,note_on,0,0,1,,,,,,,,,0,,,75,50
31080,note_on,0,0,2,,,,,,,,,0,,,51,50
31080,note_on,120,0,2,,,,,,,,,0,,,51,0
31080,note_on,120,0,1,,,,,,,,,0,,,80,0
31080,note_on,0,0,1,,,,,,,,,0,,,75,0
31080,note_on,0,0,1,,,,,,,,,0,,,73,0
31080,note_on,0,0,1,,,,,,,,,0,,,73,50
31080,note_on,0,0,1,,,,,,,,,0,,,79,60
31080,control_change,180,0,3,,,,,,,,,0,64,127,,
31260,note_on,180,0,1,,,,,,,,,0,,,79,0
31260,note_on,0,0,1,,,,,,,,,0,,,82,64
31320,note_on,0,0,2,,,,,,,,,0,,,48,65
31320,control_change,240,0,3,,,,,,,,,0,64,0,,
31320,note_on,0,0,2,,,,,,,,,0,,,46,0
31320,note_on,0,0,1,,,,,,,,,0,,,82,65
31320,note_on,0,0,1,,,,,,,,,0,,,73,0
31320,note_on,0,0,1,,,,,,,,,0,,,75,0
31320,note_on,240,0,2,,,,,,,,,0,,,51,0
31320,note_on,0,0,2,,,,,,,,,0,,,51,55
31320,note_on,60,0,1,,,,,,,,,0,,,82,0
31440,note_on,0,0,1,,,,,,,,,0,,,75,57
31440,note_on,0,0,1,,,,,,,,,0,,,80,67
31440,note_on,120,0,1,,,,,,,,,0,,,82,0
31440,note_on,120,0,2,,,,,,,,,0,,,51,0
31440,note_on,0,0,2,,,,,,,,,0,,,51,57
31560,note_on,120,0,2,,,,,,,,,0,,,51,0
31560,note_on,0,0,2,,,,,,,,,0,,,48,0
31560,note_on,0,0,2,,,,,,,,,0,,,51,59
31560,note_on,0,0,1,,,,,,,,,0,,,75,59
31560,note_on,0,0,1,,,,,,,,,0,,,73,59
31560,note_on,0,0,1,,,,,,,,,0,,,75,0
31560,note_on,120,0,1,,,,,,,,,0,,,80,0
31560,note_on,0,0,2,,,,,,,,,0,,,43,69
31560,note_on,0,0,1,,,,,,,,,0,,,82,69
31680,note_on,0,0,1,,,,,,,,,0,,,72,61
31680,note_on,120,0,2,,,,,,,,,0,,,43,0
31680,note_on,0,0,2,,,,,,,,,0,,,51,0
31680,note_on,0,0,1,,,,,,,,,0,,,75,0
31680,note_on,0,0,2,,,,,,,,,0,,,44,71
31680,note_on,0,0,1,,,,,,,,,0,,,73,0
31680,note_on,0,0,1,,,,,,,,,0,,,75,61
31680,note_on,0,0,1,,,,,,,,,0,,,84,71
31680,note_on,0,0,2,,,,,,,,,0,,,51,61
31680,note_on,120,0,1,,,,,,,,,0,,,82,0
31920,note_on,240,0,1,,,,,,,,,0,,,84,0
31920,note_on,0,0,1,,,,,,,,,0,,,72,0
31920,note_on,0,0,1,,,,,,,,,0,,,75,76
31920,note_on,0,0,1,,,,,,,,,0,,,75,0
31920,note_on,0,0,2,,,,,,,,,0,,,51,0
31920,note_on,0,0,2,,,,,,,,,0,,,51,66
31920,note_on,240,0,2,,,,,,,,,0,,,44,0
32040,note_on,120,0,2,,,,,,,,,0,,,51,0
32040,note_on,0,0,2,,,,,,,,,0,,,51,68
32040,note_on,0,0,2,,,,,,,,,0,,,42,78
32040,note_on,0,0,1,,,,,,,,,0,,,84,78
32040,note_on,0,0,1,,,,,,,,,0,,,75,68
32040,note_on,120,0,1,,,,,,,,,0,,,75,0
32040,note_on,0,0,1,,,,,,,,,0,,,72,68
32040,control_change,720,0,3,,,,,,,,,0,64,127,,
32160,note_on,120,0,1,,,,,,,,,0,,,84,0
32160,note_on,0,0,1,,,,,,,,,0,,,75,70
32160,note_on,0,0,1,,,,,,,,,0,,,84,80
32160,note_on,0,0,2,,,,,,,,,0,,,51,70
32160,note_on,0,0,1,,,,,,,,,0,,,75,0
32160,note_on,120,0,2,,,,,,,,,0,,,51,0
32160,note_on,0,0,1,,,,,,,,,0,,,72,70
32160,note_on,0,0,1,,,,,,,,,0,,,72,0
32340,note_on,180,0,1,,,,,,,,,0,,,84,0
32340,note_on,0,0,1,,,,,,,,,0,,,72,0
32340,note_on,0,0,1,,,,,,,,,0,,,73,73
32340,note_on,0,0,1,,,,,,,,,0,,,82,83
32340,note_on,0,0,1,,,,,,,,,0,,,75,0
32340,note_on,0,0,1,,,,,,,,,0,,,70,73
32400,note_on,0,0,1,,,,,,,,,0,,,73,74
32400,note_on,0,0,1,,,,,,,,,0,,,70,0
32400,note_on,60,0,1,,,,,,,,,0,,,82,0
32400,note_on,0,0,1,,,,,,,,,0,,,73,0
32400,note_on,0,0,1,,,,,,,,,0,,,70,74
32400,control_change,360,0,3,,,,,,,,,0,64,0,,
32400,note_on,0,0,1,,,,,,,,,0,,,82,84
32400,note_on,240,0,2,,,,,,,,,0,,,51,0
32400,note_on,0,0,2,,,,,,,,,0,,,42,0
32400,note_on,0,0,2,,,,,,,,,0,,,51,74
32400,note_on,0,0,2,,,,,,,,,0,,,41,84
32520,note_on,0,0,2,,,,,,,,,0,,,51,77
32520,note_on,120,0,2,,,,,,,,,0,,,51,0
32520,note_on,0,0,1,,,,,,,,,0,,,73,0
32520,note_on,0,0,1,,,,,,,,,0,,,69,77
32520,note_on,0,0,1,,,,,,,,,0,,,81,87
32520,note_on,0,0,1,,,,,,,,,0,,,70,0
32520,note_on,0,0,1,,,,,,,,,0,,,72,77
32520,note_on,120,0,1,,,,,,,,,0,,,82,0
32700,note_on,180,0,1,,,,,,,,,0,,,81,0
32700,note_on,0,0,1,,,,,,,,,0,,,72,0
32700,note_on,0,0,1,,,,,,,,,0,,,73,80
32700,note_on,0,0,1,,,,,,,,,0,,,70,80
32700,note_on,0,0,1,,,,,,,,,0,,,82,90
32700,note_on,180,0,2,,,,,,,,,0,,,51,0
32700,note_on,0,0,1,,,,,,,,,0,,,69,0
32700,note_on,0,0,2,,,,,,,,,0,,,49,80
32700,note_on,0,0,2,,,,,,,,,0,,,40,90
32700,note_on,0,0,2,,,,,,,,,0,,,41,0
32760,note_on,0,0,2,,,,,,,,,0,,,40,90
32760,note_on,0,0,2,,,,,,,,,0,,,49,80
32760,note_on,60,0,2,,,,,,,,,0,,,40,0
32760,note_on,0,0,2,,,,,,,,,0,,,49,0
32760,note_on,0,0,1,,,,,,,,,0,,,70,0
32760,note_on,0,0,1,,,,,,,,,0,,,73,0
32760,note_on,0,0,1,,,,,,,,,0,,,73,80
32760,note_on,0,0,1,,,,,,,,,0,,,70,80
32760,note_on,60,0,1,,,,,,,,,0,,,82,0
32760,note_on,0,0,1,,,,,,,,,0,,,82,90
32880,note_on,120,0,2,,,,,,,,,0,,,40,0
32880,note_on,0,0,2,,,,,,,,,0,,,49,0
32880,note_on,0,0,2,,,,,,,,,0,,,51,66
32880,note_on,0,0,2,,,,,,,,,0,,,39,76
32880,note_on,0,0,1,,,,,,,,,0,,,73,0
32880,note_on,120,0,1,,,,,,,,,0,,,82,0
32880,note_on,0,0,1,,,,,,,,,0,,,70,0
32880,note_on,0,0,1,,,,,,,,,0,,,72,66
32880,note_on,0,0,1,,,,,,,,,0,,,68,66
32880,note_on,0,0,1,,,,,,,,,0,,,80,76
33000,note_on,0,0,2,,,,,,,,,0,,,51,51
33000,note_on,0,0,2,,,,,,,,,0,,,49,51
33000,note_on,0,0,2,,,,,,,,,0,,,51,0
33000,note_on,120,0,2,,,,,,,,,0,,,39,0
33000,note_on,0,0,1,,,,,,,,,0,,,79,61
33000,note_on,0,0,1,,,,,,,,,0,,,67,51
33000,note_on,0,0,1,,,,,,,,,0,,,70,51
33000,note_on,0,0,1,,,,,,,,,0,,,72,0
33000,note_on,0,0,1,,,,,,,,,0,,,68,0
33000,note_on,120,0,1,,,,,,,,,0,,,80,0
33000,note_on,0,0,2,,,,,,,,,0,,,39,61
33030,note_on,30,0,1,,,,,,,,,0,,,79,0
33030,note_on,0,0,1,,,,,,,,,0,,,70,0
33030,note_on,30,0,2,,,,,,,,,0,,,39,0
33030,note_on,0,0,1,,,,,,,,,0,,,67,0
33030,note_on,0,0,2,,,,,,,,,0,,,49,0
33030,note_on,0,0,2,,,,,,,,,0,,,51,0
33120,note_on,90,0,2,,,,,,,,,0,,,51,40
33120,note_on,0,0,2,,,,,,,,,0,,,48,40
33120,note_on,0,0,2,,,,,,,,,0,,,44,50
33120,note_on,0,0,1,,,,,,,,,0,,,80,50
33120,note_on,0,0,1,,,,,,,,,0,,,68,40
33120,note_on,90,0,1,,,,,,,,,0,,,72,40
33360,note_on,0,0,1,,,,,,,,,0,,,68,0
33360,note_on,240,0,1,,,,,,,,,0,,,80,0
33360,note_on,0,0,1,,,,,,,,,0,,,56,60
33360,note_on,0,0,2,,,,,,,,,0,,,44,60
33360,note_on,0,0,2,,,,,,,,,0,,,51,0
33360,note_on,0,0,2,,,,,,,,,0,,,48,0
33360,note_on,240,0,2,,,,,,,,,0,,,44,0
33360,note_on,0,0,1,,,,,,,,,0,,,72,0
33480,key_signature,5880,1,0,,,,,Db,,,,,,,,
33480,control_change,1080,0,3,,,,,,,,,0,64,127,,
33480,note_on,0,0,1,,,,,,,,,0,,,53,60
33480,marker,0,1,0,,,,,,,,,,,,,
33480,note_on,0,0,2,,,,,,,,,0,,,37,70
33480,note_on,120,0,2,,,,,,,,,0,,,44,0
33480,note_on,120,0,1,,,,,,,,,0,,,56,0
33520,note_on,40,0,1,,,,,,,,,0,,,53,0
33520,note_on,0,0,1,,,,,,,,,0,,,56,60
33560,note_on,40,0,1,,,,,,,,,0,,,56,0
33560,note_on,0,0,1,,,,,,,,,0,,,61,60
33585,control_change,105,0,3,,,,,,,,,0,64,0,,
33600,control_change,15,0,3,,,,,,,,,0,64,127,,
33600,note_on,120,0,2,,,,,,,,,0,,,44,80
33600,note_on,40,0,1,,,,,,,,,0,,,61,0
33600,note_on,0,0,1,,,,,,,,,0,,,65,60
33640,note_on,40,0,1,,,,,,,,,0,,,65,0
33640,note_on,0,0,1,,,,,,,,,0,,,61,60
33680,note_on,40,0,1,,,,,,,,,0,,,61,0
33680,note_on,0,0,1,,,,,,,,,0,,,56,60
33705,control_change,105,0,3,,,,,,,,,0,64,0,,
33720,note_on,40,0,1,,,,,,,,,0,,,56,0
33720,control_change,15,0,3,,,,,,,,,0,64,127,,
33720,note_on,0,0,1,,,,,,,,,0,,,53,60
33760,note_on,40,0,1,,,,,,,,,0,,,53,0
33760,note_on,0,0,1,,,,,,,,,0,,,56,60
33800,note_on,40,0,1,,,,,,,,,0,,,56,0
33800,note_on,0,0,1,,,,,,,,,0,,,61,60
33825,control_change,105,0,3,,,,,,,,,0,64,0,,
33840,note_on,0,0,1,,,,,,,,,0,,,56,60
33840,note_on,40,0,1,,,,,,,,,0,,,61,0
33840,note_on,0,0,2,,,,,,,,,0,,,41,70
33840,control_change,15,0,3,,,,,,,,,0,64,127,,
33840,note_on,240,0,2,,,,,,,,,0,,,37,0
33880,note_on,40,0,1,,,,,,,,,0,,,56,0
33880,note_on,0,0,1,,,,,,,,,0,,,61,60
33920,note_on,40,0,1,,,,,,,,,0,,,61,0
33920,note_on,0,0,1,,,,,,,,,0,,,65,60
33945,control_change,105,0,3,,,,,,,,,0,64,0,,
33960,control_change,15,0,3,,,,,,,,,0,64,127,,
33960,note_on,120,0,2,,,,,,,,,0,,,44,0
33960,note_on,0,0,2,,,,,,,,,0,,,44,80
33960,note_on,40,0,1,,,,,,,,,0,,,65,0
33960,note_on,0,0,1,,,,,,,,,0,,,68,60
34000,note_on,0,0,1,,,,,,,,,0,,,65,60
34000,note_on,40,0,1,,,,,,,,,0,,,68,0
34040,note_on,40,0,1,,,,,,,,,0,,,65,0
34040,note_on,0,0,1,,,,,,,,,0,,,61,60
34065,control_change,105,0,3,,,,,,,,,0,64,0,,
34080,control_change,15,0,3,,,,,,,,,0,64,127,,
34080,note_on,0,0,1,,,,,,,,,0,,,56,60
34080,note_on,40,0,1,,,,,,,,,0,,,61,0
34120,note_on,0,0,1,,,,,,,,,0,,,61,60
34120,note_on,40,0,1,,,,,,,,,0,,,56,0
34160,note_on,0,0,1,,,,,,,,,0,,,65,60
34160,note_on,40,0,1,,,,,,,,,0,,,61,0
34185,control_change,105,0,3,,,,,,,,,0,64,0,,
34200,note_on,40,0,1,,,,,,,,,0,,,65,0
34200,note_on,0,0,1,,,,,,,,,0,,,62,60
34200,note_on,240,0,2,,,,,,,,,0,,,41,0
34200,control_change,15,0,3,,,,,,,,,0,64,127,,
34200,note_on,0,0,2,,,,,,,,,0,,,36,70
34240,note_on,40,0,1,,,,,,,,,0,,,62,0
34240,note_on,0,0,1,,,,,,,,,0,,,65,60
34280,note_on,0,0,1,,,,,,,,,0,,,68,60
34280,note_on,40,0,1,,,,,,,,,0,,,65,0
34305,control_change,105,0,3,,,,,,,,,0,64,0,,
34320,note_on,0,0,1,,,,,,,,,0,,,63,60
34320,note_on,120,0,2,,,,,,,,,0,,,44,0
34320,note_on,0,0,2,,,,,,,,,0,,,44,80
34320,control_change,15,0,3,,,,,,,,,0,64,127,,
34320,note_on,40,0,1,,,,,,,,,0,,,68,0
34360,note_on,0,0,1,,,,,,,,,0,,,66,60
34360,note_on,40,0,1,,,,,,,,,0,,,63,0
34400,note_on,40,0,1,,,,,,,,,0,,,66,0
34400,note_on,0,0,1,,,,,,,,,0,,,68,60
34425,control_change,105,0,3,,,,,,,,,0,64,0,,
34440,control_change,15,0,3,,,,,,,,,0,64,127,,
34440,note_on,0,0,1,,,,,,,,,0,,,63,60
34440,note_on,40,0,1,,,,,,,,,0,,,68,0
34480,note_on,40,0,1,,,,,,,,,0,,,63,0
34480,note_on,0,0,1,,,,,,,,,0,,,66,60
34520,note_on,0,0,1,,,,,,,,,0,,,69,60
34520,note_on,40,0,1,,,,,,,,,0,,,66,0
34545,control_change,105,0,3,,,,,,,,,0,64,0,,
34560,note_on,0,0,1,,,,,,,,,0,,,60,60
34560,note_on,40,0,1,,,,,,,,,0,,,69,0
34560,control_change,15,0,3,,,,,,,,,0,64,127,,
34560,note_on,240,0,2,,,,,,,,,0,,,36,0
34560,note_on,0,0,2,,,,,,,,,0,,,32,70
34600,note_on,40,0,1,,,,,,,,,0,,,60,0
34600,note_on,0,0,1,,,,,,,,,0,,,66,60
34640,note_on,40,0,1,,,,,,,,,0,,,66,0
34640,note_on,0,0,1,,,,,,,,,0,,,70,61
34665,control_change,105,0,3,,,,,,,,,0,64,0,,
34680,note_on,0,0,2,,,,,,,,,0,,,44,81
34680,control_change,15,0,3,,,,,,,,,0,64,127,,
34680,note_on,0,0,1,,,,,,,,,0,,,60,61
34680,note_on,120,0,2,,,,,,,,,0,,,44,0
34680,note_on,40,0,1,,,,,,,,,0,,,70,0
34720,note_on,40,0,1,,,,,,,,,0,,,60,0
34720,note_on,0,0,1,,,,,,,,,0,,,65,62
34760,note_on,40,0,1,,,,,,,,,0,,,65,0
34760,note_on,0,0,1,,,,,,,,,0,,,68,62
34785,control_change,105,0,3,,,,,,,,,0,64,0,,
34800,note_on,0,0,1,,,,,,,,,0,,,60,63
34800,note_on,40,0,1,,,,,,,,,0,,,68,0
34800,control_change,15,0,3,,,,,,,,,0,64,127,,
34840,note_on,40,0,1,,,,,,,,,0,,,60,0
34840,note_on,0,0,1,,,,,,,,,0,,,63,64
34880,note_on,40,0,1,,,,,,,,,0,,,63,0
34880,note_on,0,0,1,,,,,,,,,0,,,66,64
34905,control_change,105,0,3,,,,,,,,,0,64,0,,
34920,control_change,15,0,3,,,,,,,,,0,64,127,,
34920,note_on,40,0,1,,,,,,,,,0,,,66,0
34920,note_on,0,0,1,,,,,,,,,0,,,65,65
34920,note_on,240,0,2,,,,,,,,,0,,,32,0
34920,note_on,0,0,2,,,,,,,,,0,,,37,75
34960,note_on,40,0,1,,,,,,,,,0,,,65,0
34960,note_on,0,0,1,,,,,,,,,0,,,68,65
35000,note_on,40,0,1,,,,,,,,,0,,,68,0
35000,note_on,0,0,1,,,,,,,,,0,,,73,66
35025,control_change,105,0,3,,,,,,,,,0,64,0,,
35040,note_on,40,0,1,,,,,,,,,0,,,73,0
35040,note_on,0,0,1,,,,,,,,,0,,,77,67
35040,control_change,15,0,3,,,,,,,,,0,64,127,,
35040,note_on,0,0,2,,,,,,,,,0,,,44,87
35040,note_on,120,0,2,,,,,,,,,0,,,44,0
35080,note_on,40,0,1,,,,,,,,,0,,,77,0
35080,note_on,0,0,1,,,,,,,,,0,,,73,67
35120,note_on,40,0,1,,,,,,,,,0,,,73,0
35120,note_on,0,0,1,,,,,,,,,0,,,68,68
35145,control_change,105,0,3,,,,,,,,,0,64,0,,
35160,control_change,15,0,3,,,,,,,,,0,64,127,,
35160,note_on,0,0,1,,,,,,,,,0,,,65,68
35160,note_on,40,0,1,,,,,,,,,0,,,68,0
35200,note_on,40,0,1,,,,,,,,,0,,,65,0
35200,note_on,0,0,1,,,,,,,,,0,,,68,69
35240,note_on,0,0,1,,,,,,,,,0,,,73,69
35240,note_on,40,0,1,,,,,,,,,0,,,68,0
35265,control_change,105,0,3,,,,,,,,,0,64,0,,
35280,note_on,0,0,1,,,,,,,,,0,,,68,70
35280,note_on,0,0,2,,,,,,,,,0,,,41,80
35280,note_on,240,0,2,,,,,,,,,0,,,37,0
35280,note_on,40,0,1,,,,,,,,,0,,,73,0
35280,control_change,15,0,3,,,,,,,,,0,64,127,,
35320,note_on,40,0,1,,,,,,,,,0,,,68,0
35320,note_on,0,0,1,,,,,,,,,0,,,73,71
35360,note_on,40,0,1,,,,,,,,,0,,,73,0
35360,note_on,0,0,1,,,,,,,,,0,,,77,71
35385,control_change,105,0,3,,,,,,,,,0,64,0,,
35400,control_change,15,0,3,,,,,,,,,0,64,127,,
35400,note_on,40,0,1,,,,,,,,,0,,,77,0
35400,note_on,120,0,2,,,,,,,,,0,,,44,0
35400,note_on,0,0,2,,,,,,,,,0,,,44,92
35400,note_on,0,0,1,,,,,,,,,0,,,80,72
35440,note_on,40,0,1,,,,,,,,,0,,,80,0
35440,note_on,0,0,1,,,,,,,,,0,,,77,72
35480,note_on,40,0,1,,,,,,,,,0,,,77,0
35480,note_on,0,0,1,,,,,,,,,0,,,73,73
35505,control_change,105,0,3,,,,,,,,,0,64,0,,
35520,control_change,15,0,3,,,,,,,,,0,64,127,,
35520,note_on,40,0,1,,,,,,,,,0,,,73,0
35520,note_on,0,0,1,,,,,,,,,0,,,68,74
35560,note_on,0,0,1,,,,,,,,,0,,,73,74
35560,note_on,40,0,1,,,,,,,,,0,,,68,0
35600,note_on,0,0,1,,,,,,,,,0,,,77,75
35600,note_on,40,0,1,,,,,,,,,0,,,73,0
35625,control_change,105,0,3,,,,,,,,,0,64,0,,
35640,note_on,0,0,2,,,,,,,,,0,,,36,85
35640,note_on,0,0,1,,,,,,,,,0,,,73,75
35640,note_on,240,0,2,,,,,,,,,0,,,41,0
35640,note_on,40,0,1,,,,,,,,,0,,,77,0
35640,control_change,15,0,3,,,,,,,,,0,64,127,,
35680,note_on,0,0,1,,,,,,,,,0,,,77,76
35680,note_on,40,0,1,,,,,,,,,0,,,73,0
35720,note_on,0,0,1,,,,,,,,,0,,,80,77
35720,note_on,40,0,1,,,,,,,,,0,,,77,0
35745,control_change,105,0,3,,,,,,,,,0,64,0,,
35760,note_on,0,0,1,,,,,,,,,0,,,75,77
35760,note_on,40,0,1,,,,,,,,,0,,,80,0
35760,note_on,120,0,2,,,,,,,,,0,,,44,0
35760,control_change,15,0,3,,,,,,,,,0,64,127,,
35760,note_on,0,0,2,,,,,,,,,0,,,44,97
35800,note_on,40,0,1,,,,,,,,,0,,,75,0
35800,note_on,0,0,1,,,,,,,,,0,,,78,78
35840,note_on,40,0,1,,,,,,,,,0,,,78,0
35840,note_on,0,0,1,,,,,,,,,0,,,80,78
35865,control_change,105,0,3,,,,,,,,,0,64,0,,
35880,note_on,40,0,1,,,,,,,,,0,,,80,0
35880,control_change,15,0,3,,,,,,,,,0,64,127,,
35880,note_on,0,0,1,,,,,,,,,0,,,75,79
35920,note_on,40,0,1,,,,,,,,,0,,,75,0
35920,note_on,0,0,1,,,,,,,,,0,,,78,79
35960,note_on,0,0,1,,,,,,,,,0,,,81,80
35960,note_on,40,0,1,,,,,,,,,0,,,78,0
35985,control_change,105,0,3,,,,,,,,,0,64,0,,
36000,note_on,0,0,2,,,,,,,,,0,,,32,90
36000,control_change,15,0,3,,,,,,,,,0,64,127,,
36000,note_on,40,0,1,,,,,,,,,0,,,81,0
36000,note_on,0,0,1,,,,,,,,,0,,,72,80
36000,note_on,240,0,2,,,,,,,,,0,,,36,0
36040,note_on,0,0,1,,,,,,,,,0,,,78,79
36040,note_on,40,0,1,,,,,,,,,0,,,72,0
36080,note_on,40,0,1,,,,,,,,,0,,,78,0
36080,note_on,0,0,1,,,,,,,,,0,,,82,77
36105,control_change,105,0,3,,,,,,,,,0,64,0,,
36120,note_on,40,0,1,,,,,,,,,0,,,82,0
36120,note_on,120,0,2,,,,,,,,,0,,,44,0
36120,note_on,0,0,2,,,,,,,,,0,,,44,96
36120,note_on,0,0,1,,,,,,,,,0,,,72,76
36120,control_change,15,0,3,,,,,,,,,0,64,127,,
36160,note_on,0,0,1,,,,,,,,,0,,,77,74
36160,note_on,40,0,1,,,,,,,,,0,,,72,0
36200,note_on,0,0,1,,,,,,,,,0,,,80,73
36200,note_on,40,0,1,,,,,,,,,0,,,77,0
36225,control_change,105,0,3,,,,,,,,,0,64,0,,
36240,note_on,0,0,1,,,,,,,,,0,,,72,71
36240,control_change,15,0,3,,,,,,,,,0,64,127,,
36240,note_on,40,0,1,,,,,,,,,0,,,80,0
36280,note_on,40,0,1,,,,,,,,,0,,,72,0
36280,note_on,0,0,1,,,,,,,,,0,,,75,70
36320,note_on,40,0,1,,,,,,,,,0,,,75,0
36320,note_on,0,0,1,,,,,,,,,0,,,78,68
36345,control_change,105,0,3,,,,,,,,,0,64,0,,
36360,control_change,15,0,3,,,,,,,,,0,64,127,,
36360,note_on,40,0,1,,,,,,,,,0,,,78,0
36360,note_on,0,0,2,,,,,,,,,0,,,34,77
36360,note_on,0,0,1,,,,,,,,,0,,,72,67
36360,note_on,240,0,2,,,,,,,,,0,,,44,0
36360,note_on,0,0,2,,,,,,,,,0,,,32,0
36400,note_on,40,0,1,,,,,,,,,0,,,72,0
36400,note_on,0,0,1,,,,,,,,,0,,,75,65
36440,note_on,40,0,1,,,,,,,,,0,,,75,0
36440,note_on,0,0,1,,,,,,,,,0,,,77,64
36465,control_change,105,0,3,,,,,,,,,0,64,0,,
36480,control_change,15,0,3,,,,,,,,,0,64,127,,
36480,note_on,0,0,1,,,,,,,,,0,,,70,62
36480,note_on,40,0,1,,,,,,,,,0,,,77,0
36480,note_on,120,0,2,,,,,,,,,0,,,46,72
36520,note_on,40,0,1,,,,,,,,,0,,,70,0
36520,note_on,0,0,1,,,,,,,,,0,,,73,61
36560,note_on,0,0,1,,,,,,,,,0,,,77,59
36560,note_on,40,0,1,,,,,,,,,0,,,73,0
36585,control_change,105,0,3,,,,,,,,,0,64,0,,
36600,note_on,0,0,1,,,,,,,,,0,,,68,57
36600,control_change,15,0,3,,,,,,,,,0,64,127,,
36600,note_on,40,0,1,,,,,,,,,0,,,77,0
36640,note_on,40,0,1,,,,,,,,,0,,,68,0
36640,note_on,0,0,1,,,,,,,,,0,,,72,56
36680,note_on,0,0,1,,,,,,,,,0,,,77,54
36680,note_on,40,0,1,,,,,,,,,0,,,72,0
36705,control_change,105,0,3,,,,,,,,,0,64,0,,
36720,note_on,0,0,1,,,,,,,,,0,,,68,53
36720,note_on,240,0,2,,,,,,,,,0,,,46,0
36720,note_on,0,0,2,,,,,,,,,0,,,34,0
36720,note_on,0,0,2,,,,,,,,,0,,,39,63
36720,note_on,40,0,1,,,,,,,,,0,,,77,0
36720,control_change,15,0,3,,,,,,,,,0,64,127,,
36760,note_on,0,0,1,,,,,,,,,0,,,70,51
36760,note_on,40,0,1,,,,,,,,,0,,,68,0
36800,note_on,40,0,1,,,,,,,,,0,,,70,0
36800,note_on,0,0,1,,,,,,,,,0,,,77,50
36825,control_change,105,0,3,,,,,,,,,0,64,0,,
36840,note_on,120,0,2,,,,,,,,,0,,,51,58
36840,note_on,0,0,1,,,,,,,,,0,,,66,48
36840,control_change,15,0,3,,,,,,,,,0,64,127,,
36840,note_on,40,0,1,,,,,,,,,0,,,77,0
36880,note_on,0,0,1,,,,,,,,,0,,,70,47
36880,note_on,40,0,1,,,,,,,,,0,,,66,0
36920,note_on,40,0,1,,,,,,,,,0,,,70,0
36920,note_on,0,0,1,,,,,,,,,0,,,75,45
36945,control_change,105,0,3,,,,,,,,,0,64,0,,
36960,note_on,0,0,2,,,,,,,,,0,,,39,0
36960,note_on,0,0,2,,,,,,,,,0,,,42,54
36960,note_on,0,0,2,,,,,,,,,0,,,54,54
36960,note_on,120,0,2,,,,,,,,,0,,,51,0
36960,note_on,0,0,1,,,,,,,,,0,,,65,44
36960,note_on,40,0,1,,,,,,,,,0,,,75,0
36960,control_change,15,0,3,,,,,,,,,0,64,127,,
37000,note_on,40,0,1,,,,,,,,,0,,,65,0
37000,note_on,0,0,1,,,,,,,,,0,,,70,42
37040,note_on,40,0,1,,,,,,,,,0,,,70,0
37040,note_on,0,0,1,,,,,,,,,0,,,73,41
37065,control_change,105,0,3,,,,,,,,,0,64,0,,
37080,note_on,40,0,1,,,,,,,,,0,,,73,0
37080,note_on,0,0,1,,,,,,,,,0,,,63,40
37080,note_on,0,0,2,,,,,,,,,0,,,44,50
37080,note_on,0,0,2,,,,,,,,,0,,,42,0
37080,note_on,120,0,2,,,,,,,,,0,,,54,0
37080,control_change,15,0,3,,,,,,,,,0,64,127,,
37120,note_on,40,0,1,,,,,,,,,0,,,63,0
37120,note_on,0,0,1,,,,,,,,,0,,,68,40
37160,note_on,40,0,1,,,,,,,,,0,,,68,0
37160,note_on,0,0,1,,,,,,,,,0,,,72,40
37185,control_change,105,0,3,,,,,,,,,0,64,0,,
37200,note_on,120,0,2,,,,,,,,,0,,,56,50
37200,control_change,15,0,3,,,,,,,,,0,64,127,,
37200,note_on,0,0,1,,,,,,,,,0,,,65,40
37200,note_on,40,0,1,,,,,,,,,0,,,72,0
37240,note_on,0,0,1,,,,,,,,,0,,,68,40
37240,note_on,40,0,1,,,,,,,,,0,,,65,0
37280,note_on,0,0,1,,,,,,,,,0,,,73,40
37280,note_on,40,0,1,,,,,,,,,0,,,68,0
37305,control_change,105,0,3,,,,,,,,,0,64,0,,
37320,control_change,15,0,3,,,,,,,,,0,64,127,,
37320,note_on,0,0,1,,,,,,,,,0,,,66,40
37320,note_on,40,0,1,,,,,,,,,0,,,73,0
37360,note_on,0,0,1,,,,,,,,,0,,,68,40
37360,note_on,40,0,1,,,,,,,,,0,,,66,0
37400,note_on,40,0,1,,,,,,,,,0,,,68,0
37400,note_on,0,0,1,,,,,,,,,0,,,75,40
37425,control_change,105,0,3,,,,,,,,,0,64,0,,
37440,note_on,0,0,2,,,,,,,,,0,,,49,50
37440,note_on,240,0,2,,,,,,,,,0,,,44,0
37440,note_on,40,0,1,,,,,,,,,0,,,75,0
37440,note_on,0,0,1,,,,,,,,,0,,,65,40
37440,control_change,15,0,3,,,,,,,,,0,64,127,,
37480,note_on,0,0,1,,,,,,,,,0,,,68,40
37480,note_on,40,0,1,,,,,,,,,0,,,65,0
37520,note_on,40,0,1,,,,,,,,,0,,,68,0
37520,note_on,0,0,1,,,,,,,,,0,,,73,40
37545,control_change,105,0,3,,,,,,,,,0,64,0,,
37560,control_change,15,0,3,,,,,,,,,0,64,127,,
37560,note_on,0,0,1,,,,,,,,,0,,,68,40
37560,note_on,40,0,1,,,,,,,,,0,,,73,0
37600,note_on,40,0,1,,,,,,,,,0,,,68,0
37600,note_on,0,0,1,,,,,,,,,0,,,65,40
37640,note_on,0,0,1,,,,,,,,,0,,,61,40
37640,note_on,40,0,1,,,,,,,,,0,,,65,0
37665,control_change,105,0,3,,,,,,,,,0,64,0,,
37680,note_on,0,0,2,,,,,,,,,0,,,56,0
37680,note_on,0,0,1,,,,,,,,,0,,,65,40
37680,note_on,40,0,1,,,,,,,,,0,,,61,0
37680,note_on,240,0,2,,,,,,,,,0,,,49,0
37680,control_change,15,0,3,,,,,,,,,0,64,127,,
37720,note_on,0,0,1,,,,,,,,,0,,,61,40
37720,note_on,40,0,1,,,,,,,,,0,,,65,0
37760,note_on,0,0,1,,,,,,,,,0,,,56,40
37760,note_on,40,0,1,,,,,,,,,0,,,61,0
37785,control_change,105,0,3,,,,,,,,,0,64,0,,
37800,note_on,40,0,1,,,,,,,,,0,,,56,0
37800,note_on,0,0,1,,,,,,,,,0,,,53,60
37800,note_on,120,0,2,,,,,,,,,0,,,37,70
37800,control_change,15,0,3,,,,,,,,,0,64,127,,
37840,note_on,40,0,1,,,,,,,,,0,,,53,0
37840,note_on,0,0,1,,,,,,,,,0,,,56,60
37880,note_on,40,0,1,,,,,,,,,0,,,56,0
37880,note_on,0,0,1,,,,,,,,,0,,,61,60
37905,control_change,105,0,3,,,,,,,,,0,64,0,,
37920,note_on,0,0,1,,,,,,,,,0,,,65,60
37920,note_on,40,0,1,,,,,,,,,0,,,61,0
37920,control_change,15,0,3,,,,,,,,,0,64,127,,
37920,note_on,120,0,2,,,,,,,,,0,,,44,80
37960,note_on,0,0,1,,,,,,,,,0,,,61,60
37960,note_on,40,0,1,,,,,,,,,0,,,65,0
38000,note_on,0,0,1,,,,,,,,,0,,,56,60
38000,note_on,40,0,1,,,,,,,,,0,,,61,0
38025,control_change,105,0,3,,,,,,,,,0,64,0,,
38040,note_on,40,0,1,,,,,,,,,0,,,56,0
38040,control_change,15,0,3,,,,,,,,,0,64,127,,
38040,note_on,0,0,1,,,,,,,,,0,,,53,60
38080,note_on,40,0,1,,,,,,,,,0,,,53,0
38080,note_on,0,0,1,,,,,,,,,0,,,56,60
38120,note_on,40,0,1,,,,,,,,,0,,,56,0
38120,note_on,0,0,1,,,,,,,,,0,,,61,60
38145,control_change,105,0,3,,,,,,,,,0,64,0,,
38160,note_on,0,0,1,,,,,,,,,0,,,56,60
38160,note_on,40,0,1,,,,,,,,,0,,,61,0
38160,note_on,240,0,2,,,,,,,,,0,,,37,0
38160,note_on,0,0,2,,,,,,,,,0,,,41,70
38160,control_change,15,0,3,,,,,,,,,0,64,127,,
38200,note_on,0,0,1,,,,,,,,,0,,,61,60
38200,note_on,40,0,1,,,,,,,,,0,,,56,0
38240,note_on,0,0,1,,,,,,,,,0,,,65,60
38240,note_on,40,0,1,,,,,,,,,0,,,61,0
38265,control_change,105,0,3,,,,,,,,,0,64,0,,
38280,note_on,0,0,2,,,,,,,,,0,,,44,80
38280,note_on,120,0,2,,,,,,,,,0,,,44,0
38280,control_change,15,0,3,,,,,,,,,0,64,127,,
38280,note_on,0,0,1,,,,,,,,,0,,,68,60
38280,note_on,40,0,1,,,,,,,,,0,,,65,0
38320,note_on,0,0,1,,,,,,,,,0,,,65,60
38320,note_on,40,0,1,,,,,,,,,0,,,68,0
38360,note_on,40,0,1,,,,,,,,,0,,,65,0
38360,note_on,0,0,1,,,,,,,,,0,,,61,60
38385,control_change,105,0,3,,,,,,,,,0,64,0,,
38400,control_change,15,0,3,,,,,,,,,0,64,127,,
38400,note_on,0,0,1,,,,,,,,,0,,,56,60
38400,note_on,40,0,1,,,,,,,,,0,,,61,0
38440,note_on,0,0,1,,,,,,,,,0,,,61,60
38440,note_on,40,0,1,,,,,,,,,0,,,56,0
38480,note_on,0,0,1,,,,,,,,,0,,,65,60
38480,note_on,40,0,1,,,,,,,,,0,,,61,0
38505,control_change,105,0,3,,,,,,,,,0,64,0,,
38520,control_change,15,0,3,,,,,,,,,0,64,127,,
38520,note_on,40,0,1,,,,,,,,,0,,,65,0
38520,note_on,240,0,2,,,,,,,,,0,,,41,0
38520,note_on,0,0,2,,,,,,,,,0,,,36,70
38520,note_on,0,0,1,,,,,,,,,0,,,62,60
38560,note_on,0,0,1,,,,,,,,,0,,,65,60
38560,note_on,40,0,1,,,,,,,,,0,,,62,0
38600,note_on,40,0,1,,,,,,,,,0,,,65,0
38600,note_on,0,0,1,,,,,,,,,0,,,68,60
38625,control_change,105,0,3,,,,,,,,,0,64,0,,
38640,note_on,0,0,2,,,,,,,,,0,,,44,80
38640,note_on,120,0,2,,,,,,,,,0,,,44,0
38640,note_on,0,0,1,,,,,,,,,0,,,63,60
38640,note_on,40,0,1,,,,,,,,,0,,,68,0
38640,control_change,15,0,3,,,,,,,,,0,64,127,,
38680,note_on,0,0,1,,,,,,,,,0,,,66,60
38680,note_on,40,0,1,,,,,,,,,0,,,63,0
38720,note_on,0,0,1,,,,,,,,,0,,,68,60
38720,note_on,40,0,1,,,,,,,,,0,,,66,0
38745,control_change,105,0,3,,,,,,,,,0,64,0,,
38760,control_change,15,0,3,,,,,,,,,0,64,127,,
38760,note_on,40,0,1,,,,,,,,,0,,,68,0
38760,note_on,0,0,1,,,,,,,,,0,,,63,60
38800,note_on,0,0,1,,,,,,,,,0,,,66,60
38800,note_on,40,0,1,,,,,,,,,0,,,63,0
38840,note_on,40,0,1,,,,,,,,,0,,,66,0
38840,note_on,0,0,1,,,,,,,,,0,,,69,60
38865,control_change,105,0,3,,,,,,,,,0,64,0,,
38880,note_on,0,0,2,,,,,,,,,0,,,32,70
38880,note_on,0,0,1,,,,,,,,,0,,,60,60
38880,note_on,40,0,1,,,,,,,,,0,,,69,0
38880,control_change,15,0,3,,,,,,,,,0,64,127,,
38880,note_on,240,0,2,,,,,,,,,0,,,36,0
38920,note_on,0,0,1,,,,,,,,,0,,,66,60
38920,note_on,40,0,1,,,,,,,,,0,,,60,0
38960,note_on,40,0,1,,,,,,,,,0,,,66,0
38960,note_on,0,0,1,,,,,,,,,0,,,70,61
38985,control_change,105,0,3,,,,,,,,,0,64,0,,
39000,note_on,120,0,2,,,,,,,,,0,,,44,0
39000,note_on,0,0,2,,,,,,,,,0,,,44,81
39000,note_on,40,0,1,,,,,,,,,0,,,70,0
39000,note_on,0,0,1,,,,,,,,,0,,,60,61
39000,control_change,15,0,3,,,,,,,,,0,64,127,,
39040,note_on,40,0,1,,,,,,,,,0,,,60,0
39040,note_on,0,0,1,,,,,,,,,0,,,65,62
39080,note_on,40,0,1,,,,,,,,,0,,,65,0
39080,note_on,0,0,1,,,,,,,,,0,,,68,62
39105,control_change,105,0,3,,,,,,,,,0,64,0,,
39120,control_change,15,0,3,,,,,,,,,0,64,127,,
39120,note_on,40,0,1,,,,,,,,,0,,,68,0
39120,note_on,0,0,1,,,,,,,,,0,,,60,63
39160,note_on,40,0,1,,,,,,,,,0,,,60,0
39160,note_on,0,0,1,,,,,,,,,0,,,63,64
39200,note_on,0,0,1,,,,,,,,,0,,,66,64
39200,note_on,40,0,1,,,,,,,,,0,,,63,0
39225,control_change,105,0,3,,,,,,,,,0,64,0,,
39240,note_on,40,0,1,,,,,,,,,0,,,66,0
39240,note_on,0,0,1,,,,,,,,,0,,,65,65
39240,note_on,240,0,2,,,,,,,,,0,,,32,0
39240,note_on,0,0,2,,,,,,,,,0,,,37,75
39240,control_change,15,0,3,,,,,,,,,0,64,127,,
39280,note_on,40,0,1,,,,,,,,,0,,,65,0
39280,note_on,0,0,1,,,,,,,,,0,,,68,65
39320,note_on,40,0,1,,,,,,,,,0,,,68,0
39320,note_on,0,0,1,,,,,,,,,0,,,73,66
39345,control_change,105,0,3,,,,,,,,,0,64,0,,
39360,control_change,15,0,3,,,,,,,,,0,64,127,,
39360,note_on,120,0,2,,,,,,,,,0,,,44,0
39360,note_on,0,0,2,,,,,,,,,0,,,44,87
39360,note_on,40,0,1,,,,,,,,,0,,,73,0
39360,note_on,0,0,1,,,,,,,,,0,,,77,67
39400,note_on,40,0,1,,,,,,,,,0,,,77,0
39400,note_on,0,0,1,,,,,,,,,0,,,73,67
39440,note_on,40,0,1,,,,,,,,,0,,,73,0
39440,note_on,0,0,1,,,,,,,,,0,,,68,68
39465,control_change,105,0,3,,,,,,,,,0,64,0,,
39480,control_change,15,0,3,,,,,,,,,0,64,127,,
39480,note_on,0,0,1,,,,,,,,,0,,,65,68
39480,note_on,40,0,1,,,,,,,,,0,,,68,0
39520,note_on,0,0,1,,,,,,,,,0,,,68,69
39520,note_on,40,0,1,,,,,,,,,0,,,65,0
39560,note_on,40,0,1,,,,,,,,,0,,,68,0
39560,note_on,0,0,1,,,,,,,,,0,,,73,69
39585,control_change,105,0,3,,,,,,,,,0,64,0,,
39600,control_change,15,0,3,,,,,,,,,0,64,127,,
39600,note_on,240,0,2,,,,,,,,,0,,,37,0
39600,note_on,40,0,1,,,,,,,,,0,,,73,0
39600,note_on,0,0,1,,,,,,,,,0,,,68,70
39600,note_on,0,0,2,,,,,,,,,0,,,41,80
39640,note_on,40,0,1,,,,,,,,,0,,,68,0
39640,note_on,0,0,1,,,,,,,,,0,,,73,71
39680,note_on,40,0,1,,,,,,,,,0,,,73,0
39680,note_on,0,0,1,,,,,,,,,0,,,77,71
39705,control_change,105,0,3,,,,,,,,,0,64,0,,
39720,note_on,0,0,2,,,,,,,,,0,,,44,92
39720,note_on,40,0,1,,,,,,,,,0,,,77,0
39720,note_on,0,0,1,,,,,,,,,0,,,80,72
39720,note_on,120,0,2,,,,,,,,,0,,,44,0
39720,control_change,15,0,3,,,,,,,,,0,64,127,,
39760,note_on,0,0,1,,,,,,,,,0,,,77,72
39760,note_on,40,0,1,,,,,,,,,0,,,80,0
39800,note_on,40,0,1,,,,,,,,,0,,,77,0
39800,note_on,0,0,1,,,,,,,,,0,,,73,73
39825,control_change,105,0,3,,,,,,,,,0,64,0,,
39840,control_change,15,0,3,,,,,,,,,0,64,127,,
39840,note_on,40,0,1,,,,,,,,,0,,,73,0
39840,note_on,0,0,1,,,,,,,,,0,,,68,74
39880,note_on,40,0,1,,,,,,,,,0,,,68,0
39880,note_on,0,0,1,,,,,,,,,0,,,73,74
39920,note_on,40,0,1,,,,,,,,,0,,,73,0
39920,note_on,0,0,1,,,,,,,,,0,,,77,75
39945,control_change,105,0,3,,,,,,,,,0,64,0,,
39960,control_change,15,0,3,,,,,,,,,0,64,127,,
39960,note_on,0,0,1,,,,,,,,,0,,,73,75
39960,note_on,40,0,1,,,,,,,,,0,,,77,0
39960,note_on,240,0,2,,,,,,,,,0,,,41,0
39960,note_on,0,0,2,,,,,,,,,0,,,36,85
40000,note_on,40,0,1,,,,,,,,,0,,,73,0
40000,note_on,0,0,1,,,,,,,,,0,,,77,76
40040,note_on,40,0,1,,,,,,,,,0,,,77,0
40040,note_on,0,0,1,,,,,,,,,0,,,80,77
40065,control_change,105,0,3,,,,,,,,,0,64,0,,
40080,note_on,0,0,1,,,,,,,,,0,,,75,77
40080,note_on,120,0,2,,,,,,,,,0,,,44,0
40080,note_on,40,0,1,,,,,,,,,0,,,80,0
40080,note_on,0,0,2,,,,,,,,,0,,,44,97
40080,control_change,15,0,3,,,,,,,,,0,64,127,,
40120,note_on,40,0,1,,,,,,,,,0,,,75,0
40120,note_on,0,0,1,,,,,,,,,0,,,78,78
40160,note_on,40,0,1,,,,,,,,,0,,,78,0
40160,note_on,0,0,1,,,,,,,,,0,,,80,78
40185,control_change,105,0,3,,,,,,,,,0,64,0,,
40200,note_on,0,0,1,,,,,,,,,0,,,75,79
40200,note_on,40,0,1,,,,,,,,,0,,,80,0
40200,control_change,15,0,3,,,,,,,,,0,64,127,,
40240,note_on,0,0,1,,,,,,,,,0,,,78,79
40240,note_on,40,0,1,,,,,,,,,0,,,75,0
40280,note_on,0,0,1,,,,,,,,,0,,,81,80
40280,note_on,40,0,1,,,,,,,,,0,,,78,0
40305,control_change,105,0,3,,,,,,,,,0,64,0,,
40320,control_change,15,0,3,,,,,,,,,0,64,127,,
40320,note_on,0,0,1,,,,,,,,,0,,,72,80
40320,note_on,40,0,1,,,,,,,,,0,,,81,0
40320,note_on,0,0,2,,,,,,,,,0,,,32,90
40320,note_on,240,0,2,,,,,,,,,0,,,36,0
40360,note_on,0,0,1,,,,,,,,,0,,,78,79
40360,note_on,40,0,1,,,,,,,,,0,,,72,0
40400,note_on,0,0,1,,,,,,,,,0,,,82,77
40400,note_on,40,0,1,,,,,,,,,0,,,78,0
40425,control_change,105,0,3,,,,,,,,,0,64,0,,
40440,control_change,15,0,3,,,,,,,,,0,64,127,,
40440,note_on,0,0,1,,,,,,,,,0,,,72,76
40440,note_on,40,0,1,,,,,,,,,0,,,82,0
40440,note_on,0,0,2,,,,,,,,,0,,,44,96
40440,note_on,120,0,2,,,,,,,,,0,,,44,0
40480,note_on,40,0,1,,,,,,,,,0,,,72,0
40480,note_on,0,0,1,,,,,,,,,0,,,77,74
40520,note_on,40,0,1,,,,,,,,,0,,,77,0
40520,note_on,0,0,1,,,,,,,,,0,,,80,73
40545,control_change,105,0,3,,,,,,,,,0,64,0,,
40560,note_on,40,0,1,,,,,,,,,0,,,80,0
40560,note_on,0,0,1,,,,,,,,,0,,,72,71
40560,control_change,15,0,3,,,,,,,,,0,64,127,,
40600,note_on,40,0,1,,,,,,,,,0,,,72,0
40600,note_on,0,0,1,,,,,,,,,0,,,75,70
40640,note_on,40,0,1,,,,,,,,,0,,,75,0
40640,note_on,0,0,1,,,,,,,,,0,,,78,68
40665,control_change,105,0,3,,,,,,,,,0,64,0,,
40680,control_change,15,0,3,,,,,,,,,0,64,127,,
40680,note_on,240,0,2,,,,,,,,,0,,,44,0
40680,note_on,0,0,1,,,,,,,,,0,,,72,67
40680,note_on,0,0,2,,,,,,,,,0,,,32,0
40680,note_on,0,0,2,,,,,,,,,0,,,34,77
40680,note_on,40,0,1,,,,,,,,,0,,,78,0
40720,note_on,0,0,1,,,,,,,,,0,,,75,65
40720,note_on,40,0,1,,,,,,,,,0,,,72,0
40760,note_on,40,0,1,,,,,,,,,0,,,75,0
40760,note_on,0,0,1,,,,,,,,,0,,,77,64
40785,control_change,105,0,3,,,,,,,,,0,64,0,,
40800,note_on,0,0,1,,,,,,,,,0,,,70,62
40800,note_on,120,0,2,,,,,,,,,0,,,46,72
40800,control_change,15,0,3,,,,,,,,,0,64,127,,
40800,note_on,40,0,1,,,,,,,,,0,,,77,0
40840,note_on,0,0,1,,,,,,,,,0,,,73,61
40840,note_on,40,0,1,,,,,,,,,0,,,70,0
40880,note_on,0,0,1,,,,,,,,,0,,,77,59
40880,note_on,40,0,1,,,,,,,,,0,,,73,0
40905,control_change,105,0,3,,,,,,,,,0,64,0,,
40920,note_on,0,0,1,,,,,,,,,0,,,68,57
40920,note_on,40,0,1,,,,,,,,,0,,,77,0
40920,control_change,15,0,3,,,,,,,,,0,64,127,,
40960,note_on,40,0,1,,,,,,,,,0,,,68,0
40960,note_on,0,0,1,,,,,,,,,0,,,72,56
41000,note_on,40,0,1,,,,,,,,,0,,,72,0
41000,note_on,0,0,1,,,,,,,,,0,,,77,54
41025,control_change,105,0,3,,,,,,,,,0,64,0,,
41040,note_on,40,0,1,,,,,,,,,0,,,77,0
41040,note_on,0,0,2,,,,,,,,,0,,,39,63
41040,control_change,15,0,3,,,,,,,,,0,64,127,,
41040,note_on,0,0,1,,,,,,,,,0,,,68,53
41040,note_on,240,0,2,,,,,,,,,0,,,46,0
41040,note_on,0,0,2,,,,,,,,,0,,,34,0
41080,note_on,0,0,1,,,,,,,,,0,,,70,51
41080,note_on,40,0,1,,,,,,,,,0,,,68,0
41120,note_on,40,0,1,,,,,,,,,0,,,70,0
41120,note_on,0,0,1,,,,,,,,,0,,,77,50
41145,control_change,105,0,3,,,,,,,,,0,64,0,,
41160,control_change,15,0,3,,,,,,,,,0,64,127,,
41160,note_on,40,0,1,,,,,,,,,0,,,77,0
41160,note_on,0,0,1,,,,,,,,,0,,,66,48
41160,note_on,120,0,2,,,,,,,,,0,,,51,58
41200,note_on,0,0,1,,,,,,,,,0,,,70,47
41200,note_on,40,0,1,,,,,,,,,0,,,66,0
41240,note_on,0,0,1,,,,,,,,,0,,,75,45
41240,note_on,40,0,1,,,,,,,,,0,,,70,0
41265,control_change,105,0,3,,,,,,,,,0,64,0,,
41280,note_on,0,0,2,,,,,,,,,0,,,42,54
41280,note_on,0,0,2,,,,,,,,,0,,,54,54
41280,note_on,0,0,1,,,,,,,,,0,,,65,44
41280,note_on,40,0,1,,,,,,,,,0,,,75,0
41280,note_on,120,0,2,,,,,,,,,0,,,51,0
41280,control_change,15,0,3,,,,,,,,,0,64,127,,
41280,note_on,0,0,2,,,,,,,,,0,,,39,0
41320,note_on,0,0,1,,,,,,,,,0,,,70,42
41320,note_on,40,0,1,,,,,,,,,0,,,65,0
41360,note_on,40,0,1,,,,,,,,,0,,,70,0
41360,note_on,0,0,1,,,,,,,,,0,,,73,41
41385,control_change,105,0,3,,,,,,,,,0,64,0,,
41400,control_change,15,0,3,,,,,,,,,0,64,127,,
41400,note_on,40,0,1,,,,,,,,,0,,,73,0
41400,note_on,0,0,2,,,,,,,,,0,,,44,50
41400,note_on,0,0,2,,,,,,,,,0,,,42,0
41400,note_on,120,0,2,,,,,,,,,0,,,54,0
41400,note_on,0,0,1,,,,,,,,,0,,,63,40
41440,note_on,40,0,1,,,,,,,,,0,,,63,0
41440,note_on,0,0,1,,,,,,,,,0,,,68,40
41480,note_on,40,0,1,,,,,,,,,0,,,68,0
41480,note_on,0,0,1,,,,,,,,,0,,,72,40
41505,control_change,105,0,3,,,,,,,,,0,64,0,,
41520,control_change,15,0,3,,,,,,,,,0,64,127,,
41520,note_on,120,0,2,,,,,,,,,0,,,56,50
41520,note_on,40,0,1,,,,,,,,,0,,,72,0
41520,note_on,0,0,1,,,,,,,,,0,,,65,40
41560,note_on,0,0,1,,,,,,,,,0,,,68,40
41560,note_on,40,0,1,,,,,,,,,0,,,65,0
41600,note_on,40,0,1,,,,,,,,,0,,,68,0
41600,note_on,0,0,1,,,,,,,,,0,,,73,40
41625,control_change,105,0,3,,,,,,,,,0,64,0,,
41640,control_change,15,0,3,,,,,,,,,0,64,127,,
41640,note_on,0,0,1,,,,,,,,,0,,,66,40
41640,note_on,40,0,1,,,,,,,,,0,,,73,0
41680,note_on,40,0,1,,,,,,,,,0,,,66,0
41680,note_on,0,0,1,,,,,,,,,0,,,68,40
41720,note_on,0,0,1,,,,,,,,,0,,,75,40
41720,note_on,40,0,1,,,,,,,,,0,,,68,0
41745,control_change,105,0,3,,,,,,,,,0,64,0,,
41760,control_change,15,0,3,,,,,,,,,0,64,127,,
41760,note_on,0,0,2,,,,,,,,,0,,,49,50
41760,note_on,240,0,2,,,,,,,,,0,,,44,0
41760,note_on,0,0,1,,,,,,,,,0,,,65,40
41760,note_on,40,0,1,,,,,,,,,0,,,75,0
41800,note_on,0,0,1,,,,,,,,,0,,,68,40
41800,note_on,40,0,1,,,,,,,,,0,,,65,0
41840,note_on,40,0,1,,,,,,,,,0,,,68,0
41840,note_on,0,0,1,,,,,,,,,0,,,73,40
41865,control_change,105,0,3,,,,,,,,,0,64,0,,
41880,note_on,0,0,1,,,,,,,,,0,,,68,40
41880,control_change,15,0,3,,,,,,,,,0,64,127,,
41880,note_on,40,0,1,,,,,,,,,0,,,73,0
41920,note_on,40,0,1,,,,,,,,,0,,,68,0
41920,note_on,0,0,1,,,,,,,,,0,,,65,40
41960,note_on,40,0,1,,,,,,,,,0,,,65,0
41960,note_on,0,0,1,,,,,,,,,0,,,61,40
41985,control_change,105,0,3,,,,,,,,,0,64,0,,
42000,note_on,40,0,1,,,,,,,,,0,,,61,0
42000,note_on,240,0,2,,,,,,,,,0,,,49,0
42000,note_on,0,0,2,,,,,,,,,0,,,56,0
42000,control_change,15,0,3,,,,,,,,,0,64,127,,
42000,note_on,0,0,1,,,,,,,,,0,,,65,40
42040,note_on,0,0,1,,,,,,,,,0,,,61,40
42040,note_on,40,0,1,,,,,,,,,0,,,65,0
42080,note_on,40,0,1,,,,,,,,,0,,,61,0
42080,note_on,0,0,1,,,,,,,,,0,,,56,40
42105,control_change,105,0,3,,,,,,,,,0,64,0,,
42120,note_on,120,0,2,,,,,,,,,0,,,37,110
42120,control_change,15,0,3,,,,,,,,,0,64,127,,
42120,note_on,40,0,1,,,,,,,,,0,,,56,0
42120,note_on,0,0,1,,,,,,,,,0,,,52,100
42120,marker,8640,1,0,,,,,,,,,,,,,
42160,note_on,40,0,1,,,,,,,,,0,,,52,0
42160,note_on,0,0,1,,,,,,,,,0,,,56,100
42200,note_on,0,0,1,,,,,,,,,0,,,61,100
42200,note_on,40,0,1,,,,,,,,,0,,,56,0
42225,control_change,105,0,3,,,,,,,,,0,64,0,,
42240,note_on,40,0,1,,,,,,,,,0,,,61,0
42240,control_change,15,0,3,,,,,,,,,0,64,127,,
42240,note_on,0,0,1,,,,,,,,,0,,,64,100
42240,note_on,120,0,2,,,,,,,,,0,,,44,120
42280,note_on,40,0,1,,,,,,,,,0,,,64,0
42280,note_on,0,0,1,,,,,,,,,0,,,61,100
42320,note_on,0,0,1,,,,,,,,,0,,,56,100
42320,note_on,40,0,1,,,,,,,,,0,,,61,0
42345,control_change,105,0,3,,,,,,,,,0,64,0,,
42360,note_on,40,0,1,,,,,,,,,0,,,56,0
42360,note_on,0,0,1,,,,,,,,,0,,,52,100
42360,control_change,15,0,3,,,,,,,,,0,64,127,,
42400,note_on,40,0,1,,,,,,,,,0,,,52,0
42400,note_on,0,0,1,,,,,,,,,0,,,56,100
42440,note_on,0,0,1,,,,,,,,,0,,,61,100
42440,note_on,40,0,1,,,,,,,,,0,,,56,0
42465,control_change,105,0,3,,,,,,,,,0,64,0,,
42480,note_on,0,0,2,,,,,,,,,0,,,40,110
42480,note_on,240,0,2,,,,,,,,,0,,,37,0
42480,note_on,0,0,1,,,,,,,,,0,,,56,100
42480,note_on,40,0,1,,,,,,,,,0,,,61,0
42480,control_change,15,0,3,,,,,,,,,0,64,127,,
42520,note_on,0,0,1,,,,,,,,,0,,,61,100
42520,note_on,40,0,1,,,,,,,,,0,,,56,0
42560,note_on,40,0,1,,,,,,,,,0,,,61,0
42560,note_on,0,0,1,,,,,,,,,0,,,64,100
42585,control_change,105,0,3,,,,,,,,,0,64,0,,
42600,control_change,15,0,3,,,,,,,,,0,64,127,,
42600,note_on,0,0,2,,,,,,,,,0,,,44,120
42600,note_on,120,0,2,,,,,,,,,0,,,44,0
42600,note_on,40,0,1,,,,,,,,,0,,,64,0
42600,note_on,0,0,1,,,,,,,,,0,,,68,100
42640,note_on,40,0,1,,,,,,,,,0,,,68,0
42640,note_on,0,0,1,,,,,,,,,0,,,64,100
42680,note_on,0,0,1,,,,,,,,,0,,,61,100
42680,note_on,40,0,1,,,,,,,,,0,,,64,0
42705,control_change,105,0,3,,,,,,,,,0,64,0,,
42720,note_on,0,0,1,,,,,,,,,0,,,56,100
42720,note_on,40,0,1,,,,,,,,,0,,,61,0
42720,control_change,15,0,3,,,,,,,,,0,64,127,,
42760,note_on,0,0,1,,,,,,,,,0,,,61,100
42760,note_on,40,0,1,,,,,,,,,0,,,56,0
42800,note_on,40,0,1,,,,,,,,,0,,,61,0
42800,note_on,0,0,1,,,,,,,,,0,,,64,100
42825,control_change,105,0,3,,,,,,,,,0,64,0,,
42840,note_on,0,0,2,,,,,,,,,0,,,36,110
42840,note_on,240,0,2,,,,,,,,,0,,,40,0
42840,control_change,15,0,3,,,,,,,,,0,64,127,,
42840,note_on,0,0,1,,,,,,,,,0,,,62,100
42840,note_on,40,0,1,,,,,,,,,0,,,64,0
42880,note_on,0,0,1,,,,,,,,,0,,,65,100
42880,note_on,40,0,1,,,,,,,,,0,,,62,0
42920,note_on,40,0,1,,,,,,,,,0,,,65,0
42920,note_on,0,0,1,,,,,,,,,0,,,68,100
42945,control_change,105,0,3,,,,,,,,,0,64,0,,
42960,note_on,0,0,1,,,,,,,,,0,,,63,100
42960,note_on,40,0,1,,,,,,,,,0,,,68,0
42960,note_on,120,0,2,,,,,,,,,0,,,44,0
42960,note_on,0,0,2,,,,,,,,,0,,,44,120
42960,control_change,15,0,3,,,,,,,,,0,64,127,,
43000,note_on,40,0,1,,,,,,,,,0,,,63,0
43000,note_on,0,0,1,,,,,,,,,0,,,66,100
43040,note_on,40,0,1,,,,,,,,,0,,,66,0
43040,note_on,0,0,1,,,,,,,,,0,,,68,100
43065,control_change,105,0,3,,,,,,,,,0,64,0,,
43080,note_on,0,0,1,,,,,,,,,0,,,61,100
43080,control_change,15,0,3,,,,,,,,,0,64,127,,
43080,note_on,40,0,1,,,,,,,,,0,,,68,0
43120,note_on,0,0,1,,,,,,,,,0,,,65,100
43120,note_on,40,0,1,,,,,,,,,0,,,61,0
43160,note_on,0,0,1,,,,,,,,,0,,,68,100
43160,note_on,40,0,1,,,,,,,,,0,,,65,0
43185,control_change,105,0,3,,,,,,,,,0,64,0,,
43200,control_change,15,0,3,,,,,,,,,0,64,127,,
43200,note_on,0,0,2,,,,,,,,,0,,,32,110
43200,note_on,240,0,2,,,,,,,,,0,,,36,0
43200,note_on,0,0,1,,,,,,,,,0,,,63,100
43200,note_on,40,0,1,,,,,,,,,0,,,68,0
43240,note_on,40,0,1,,,,,,,,,0,,,63,0
43240,note_on,0,0,1,,,,,,,,,0,,,66,100
43280,note_on,0,0,1,,,,,,,,,0,,,69,100
43280,note_on,40,0,1,,,,,,,,,0,,,66,0
43305,control_change,105,0,3,,,,,,,,,0,64,0,,
43320,control_change,15,0,3,,,,,,,,,0,64,127,,
43320,note_on,0,0,1,,,,,,,,,0,,,60,100
43320,note_on,40,0,1,,,,,,,,,0,,,69,0
43320,note_on,0,0,2,,,,,,,,,0,,,44,120
43320,note_on,120,0,2,,,,,,,,,0,,,44,0
43360,note_on,0,0,1,,,,,,,,,0,,,64,100
43360,note_on,40,0,1,,,,,,,,,0,,,60,0
43400,note_on,40,0,1,,,,,,,,,0,,,64,0
43400,note_on,0,0,1,,,,,,,,,0,,,68,100
43425,control_change,105,0,3,,,,,,,,,0,64,0,,
43440,note_on,0,0,1,,,,,,,,,0,,,60,100
43440,note_on,40,0,1,,,,,,,,,0,,,68,0
43440,control_change,15,0,3,,,,,,,,,0,64,127,,
43480,note_on,0,0,1,,,,,,,,,0,,,63,100
43480,note_on,40,0,1,,,,,,,,,0,,,60,0
43520,note_on,40,0,1,,,,,,,,,0,,,63,0
43520,note_on,0,0,1,,,,,,,,,0,,,66,100
43545,control_change,105,0,3,,,,,,,,,0,64,0,,
43560,control_change,15,0,3,,,,,,,,,0,64,127,,
43560,note_on,0,0,2,,,,,,,,,0,,,37,110
43560,note_on,40,0,1,,,,,,,,,0,,,66,0
43560,note_on,0,0,1,,,,,,,,,0,,,64,100
43560,note_on,240,0,2,,,,,,,,,0,,,32,0
43600,note_on,40,0,1,,,,,,,,,0,,,64,0
43600,note_on,0,0,1,,,,,,,,,0,,,68,100
43640,note_on,0,0,1,,,,,,,,,0,,,73,100
43640,note_on,40,0,1,,,,,,,,,0,,,68,0
43665,control_change,105,0,3,,,,,,,,,0,64,0,,
43680,control_change,15,0,3,,,,,,,,,0,64,127,,
43680,note_on,40,0,1,,,,,,,,,0,,,73,0
43680,note_on,120,0,2,,,,,,,,,0,,,44,0
43680,note_on,0,0,1,,,,,,,,,0,,,76,100
43680,note_on,0,0,2,,,,,,,,,0,,,44,120
43720,note_on,40,0,1,,,,,,,,,0,,,76,0
43720,note_on,0,0,1,,,,,,,,,0,,,73,100
43760,note_on,40,0,1,,,,,,,,,0,,,73,0
43760,note_on,0,0,1,,,,,,,,,0,,,68,100
43785,control_change,105,0,3,,,,,,,,,0,64,0,,
43800,control_change,15,0,3,,,,,,,,,0,64,127,,
43800,note_on,40,0,1,,,,,,,,,0,,,68,0
43800,note_on,0,0,1,,,,,,,,,0,,,64,100
43840,note_on,40,0,1,,,,,,,,,0,,,64,0
43840,note_on,0,0,1,,,,,,,,,0,,,68,100
43880,note_on,40,0,1,,,,,,,,,0,,,68,0
43880,note_on,0,0,1,,,,,,,,,0,,,73,100
43905,control_change,105,0,3,,,,,,,,,0,64,0,,
43920,note_on,0,0,1,,,,,,,,,0,,,68,100
43920,note_on,240,0,2,,,,,,,,,0,,,37,0
43920,note_on,0,0,2,,,,,,,,,0,,,40,110
43920,note_on,40,0,1,,,,,,,,,0,,,73,0
43920,control_change,15,0,3,,,,,,,,,0,64,127,,
43960,note_on,0,0,1,,,,,,,,,0,,,73,100
43960,note_on,40,0,1,,,,,,,,,0,,,68,0
44000,note_on,0,0,1,,,,,,,,,0,,,76,100
44000,note_on,40,0,1,,,,,,,,,0,,,73,0
44025,control_change,105,0,3,,,,,,,,,0,64,0,,
44040,note_on,40,0,1,,,,,,,,,0,,,76,0
44040,note_on,0,0,1,,,,,,,,,0,,,80,100
44040,control_change,15,0,3,,,,,,,,,0,64,127,,
44040,note_on,0,0,2,,,,,,,,,0,,,44,120
44040,note_on,120,0,2,,,,,,,,,0,,,44,0
44080,note_on,40,0,1,,,,,,,,,0,,,80,0
44080,note_on,0,0,1,,,,,,,,,0,,,76,100
44120,note_on,0,0,1,,,,,,,,,0,,,73,100
44120,note_on,40,0,1,,,,,,,,,0,,,76,0
44145,control_change,105,0,3,,,,,,,,,0,64,0,,
44160,note_on,0,0,1,,,,,,,,,0,,,68,100
44160,note_on,40,0,1,,,,,,,,,0,,,73,0
44160,control_change,15,0,3,,,,,,,,,0,64,127,,
44200,note_on,40,0,1,,,,,,,,,0,,,68,0
44200,note_on,0,0,1,,,,,,,,,0,,,73,100
44240,note_on,0,0,1,,,,,,,,,0,,,76,100
44240,note_on,40,0,1,,,,,,,,,0,,,73,0
44265,control_change,105,0,3,,,,,,,,,0,64,0,,
44280,control_change,15,0,3,,,,,,,,,0,64,127,,
44280,note_on,40,0,1,,,,,,,,,0,,,76,0
44280,note_on,0,0,1,,,,,,,,,0,,,75,100
44280,note_on,0,0,2,,,,,,,,,0,,,32,110
44280,note_on,240,0,2,,,,,,,,,0,,,40,0
44320,note_on,0,0,1,,,,,,,,,0,,,78,100
44320,note_on,40,0,1,,,,,,,,,0,,,75,0
44360,note_on,0,0,1,,,,,,,,,0,,,80,100
44360,note_on,40,0,1,,,,,,,,,0,,,78,0
44385,control_change,105,0,3,,,,,,,,,0,64,0,,
44400,note_on,40,0,1,,,,,,,,,0,,,80,0
44400,note_on,0,0,1,,,,,,,,,0,,,75,100
44400,note_on,0,0,2,,,,,,,,,0,,,44,120
44400,control_change,15,0,3,,,,,,,,,0,64,127,,
44400,note_on,120,0,2,,,,,,,,,0,,,44,0
44440,note_on,40,0,1,,,,,,,,,0,,,75,0
44440,note_on,0,0,1,,,,,,,,,0,,,78,101
44480,note_on,40,0,1,,,,,,,,,0,,,78,0
44480,note_on,0,0,1,,,,,,,,,0,,,82,101
44505,control_change,105,0,3,,,,,,,,,0,64,0,,
44520,control_change,15,0,3,,,,,,,,,0,64,127,,
44520,note_on,40,0,1,,,,,,,,,0,,,82,0
44520,note_on,0,0,1,,,,,,,,,0,,,75,101
44560,note_on,40,0,1,,,,,,,,,0,,,75,0
44560,note_on,0,0,1,,,,,,,,,0,,,78,102
44600,note_on,40,0,1,,,,,,,,,0,,,78,0
44600,note_on,0,0,1,,,,,,,,,0,,,84,102
44625,control_change,105,0,3,,,,,,,,,0,64,0,,
44640,note_on,0,0,1,,,,,,,,,0,,,73,102
44640,note_on,40,0,1,,,,,,,,,0,,,84,0
44640,note_on,0,0,2,,,,,,,,,0,,,37,112
44640,note_on,240,0,2,,,,,,,,,0,,,32,0
44640,control_change,15,0,3,,,,,,,,,0,64,127,,
44680,note_on,0,0,1,,,,,,,,,0,,,76,103
44680,note_on,40,0,1,,,,,,,,,0,,,73,0
44720,note_on,40,0,1,,,,,,,,,0,,,76,0
44720,note_on,0,0,1,,,,,,,,,0,,,85,103
44745,control_change,105,0,3,,,,,,,,,0,64,0,,
44760,note_on,0,0,2,,,,,,,,,0,,,44,123
44760,note_on,120,0,2,,,,,,,,,0,,,44,0
44760,control_change,15,0,3,,,,,,,,,0,64,127,,
44760,note_on,0,0,1,,,,,,,,,0,,,75,103
44760,note_on,40,0,1,,,,,,,,,0,,,85,0
44800,note_on,40,0,1,,,,,,,,,0,,,75,0
44800,note_on,0,0,1,,,,,,,,,0,,,78,103
44840,note_on,40,0,1,,,,,,,,,0,,,78,0
44840,note_on,0,0,1,,,,,,,,,0,,,87,104
44865,control_change,105,0,3,,,,,,,,,0,64,0,,
44880,note_on,0,0,1,,,,,,,,,0,,,76,104
44880,note_on,40,0,1,,,,,,,,,0,,,87,0
44880,control_change,15,0,3,,,,,,,,,0,64,127,,
44920,note_on,0,0,1,,,,,,,,,0,,,80,104
44920,note_on,40,0,1,,,,,,,,,0,,,76,0
44960,note_on,0,0,1,,,,,,,,,0,,,88,105
44960,note_on,40,0,1,,,,,,,,,0,,,80,0
44985,control_change,105,0,3,,,,,,,,,0,64,0,,
45000,note_on,0,0,1,,,,,,,,,0,,,78,105
45000,note_on,40,0,1,,,,,,,,,0,,,88,0
45000,note_on,240,0,2,,,,,,,,,0,,,44,0
45000,key_signature,2880,1,0,,,,,C,,,,,,,,
45000,control_change,15,0,3,,,,,,,,,0,64,127,,
45000,note_on,0,0,2,,,,,,,,,0,,,30,115
45000,note_on,0,0,2,,,,,,,,,0,,,37,0
45040,note_on,0,0,1,,,,,,,,,0,,,81,105
45040,note_on,40,0,1,,,,,,,,,0,,,78,0
45080,note_on,40,0,1,,,,,,,,,0,,,81,0
45080,note_on,0,0,1,,,,,,,,,0,,,90,106
45105,control_change,105,0,3,,,,,,,,,0,64,0,,
45120,control_change,15,0,3,,,,,,,,,0,64,127,,
45120,note_on,40,0,1,,,,,,,,,0,,,90,0
45120,note_on,0,0,1,,,,,,,,,0,,,80,106
45120,note_on,120,0,2,,,,,,,,,0,,,42,126
45160,note_on,40,0,1,,,,,,,,,0,,,80,0
45160,note_on,0,0,1,,,,,,,,,0,,,83,106
45200,note_on,40,0,1,,,,,,,,,0,,,83,0
45200,note_on,0,0,1,,,,,,,,,0,,,92,107
45225,control_change,105,0,3,,,,,,,,,0,64,0,,
45240,control_change,15,0,3,,,,,,,,,0,64,127,,
45240,note_on,0,0,1,,,,,,,,,0,,,81,107
45240,note_on,40,0,1,,,,,,,,,0,,,92,0
45280,note_on,0,0,1,,,,,,,,,0,,,85,107
45280,note_on,40,0,1,,,,,,,,,0,,,81,0
45320,note_on,0,0,1,,,,,,,,,0,,,93,107
45320,note_on,40,0,1,,,,,,,,,0,,,85,0
45345,control_change,105,0,3,,,,,,,,,0,64,0,,
45360,note_on,0,0,1,,,,,,,,,0,,,80,108
45360,note_on,40,0,1,,,,,,,,,0,,,93,0
45360,control_change,15,0,3,,,,,,,,,0,64,127,,
45360,note_on,0,0,2,,,,,,,,,0,,,40,118
45360,note_on,0,0,2,,,,,,,,,0,,,30,0
45360,note_on,240,0,2,,,,,,,,,0,,,42,0
45400,note_on,40,0,1,,,,,,,,,0,,,80,0
45400,note_on,0,0,1,,,,,,,,,0,,,88,108
45440,note_on,0,0,1,,,,,,,,,0,,,92,108
45440,note_on,40,0,1,,,,,,,,,0,,,88,0
45465,control_change,105,0,3,,,,,,,,,0,64,0,,
45480,note_on,0,0,1,,,,,,,,,0,,,81,109
45480,note_on,40,0,1,,,,,,,,,0,,,92,0
45480,control_change,15,0,3,,,,,,,,,0,64,127,,
45480,note_on,120,0,2,,,,,,,,,0,,,52,127
45520,note_on,0,0,1,,,,,,,,,0,,,90,109
45520,note_on,40,0,1,,,,,,,,,0,,,81,0
45560,note_on,40,0,1,,,,,,,,,0,,,90,0
45560,note_on,0,0,1,,,,,,,,,0,,,93,109
45585,control_change,105,0,3,,,,,,,,,0,64,0,,
45600,note_on,0,0,1,,,,,,,,,0,,,83,110
45600,control_change,15,0,3,,,,,,,,,0,64,127,,
45600,note_on,40,0,1,,,,,,,,,0,,,93,0
45640,note_on,40,0,1,,,,,,,,,0,,,83,0
45640,note_on,0,0,1,,,,,,,,,0,,,91,110
45680,note_on,40,0,1,,,,,,,,,0,,,91,0
45680,note_on,0,0,1,,,,,,,,,0,,,95,110
45705,control_change,105,0,3,,,,,,,,,0,64,0,,
45720,note_on,0,0,2,,,,,,,,,0,,,45,120
45720,note_on,40,0,1,,,,,,,,,0,,,95,0
45720,note_on,0,0,2,,,,,,,,,0,,,33,120
45720,note_on,0,0,2,,,,,,,,,0,,,40,0
45720,note_on,240,0,2,,,,,,,,,0,,,52,0
45720,note_on,0,0,1,,,,,,,,,0,,,85,110
45720,note_on,0,0,2,,,,,,,,,0,,,40,120
45750,note_on,0,0,2,,,,,,,,,0,,,40,0
45750,note_on,0,0,2,,,,,,,,,0,,,33,0
45750,note_on,30,0,2,,,,,,,,,0,,,45,0
45760,note_on,0,0,1,,,,,,,,,0,,,88,110
45760,note_on,40,0,1,,,,,,,,,0,,,85,0
45800,note_on,0,0,1,,,,,,,,,0,,,93,110
45800,note_on,40,0,1,,,,,,,,,0,,,88,0
45840,note_on,90,0,2,,,,,,,,,0,,,33,127
45840,note_on,0,0,2,,,,,,,,,0,,,40,127
45840,note_on,0,0,2,,,,,,,,,0,,,45,127
45840,note_on,40,0,1,,,,,,,,,0,,,93,0
45840,note_on,0,0,1,,,,,,,,,0,,,97,110
45840,control_change,135,0,3,,,,,,,,,0,64,127,,
45880,note_on,0,0,1,,,,,,,,,0,,,93,110
45880,note_on,40,0,1,,,,,,,,,0,,,97,0
45920,note_on,0,0,1,,,,,,,,,0,,,88,110
45920,note_on,40,0,1,,,,,,,,,0,,,93,0
45960,note_on,0,0,1,,,,,,,,,0,,,93,110
45960,note_on,40,0,1,,,,,,,,,0,,,88,0
46000,note_on,0,0,1,,,,,,,,,0,,,88,110
46000,note_on,40,0,1,,,,,,,,,0,,,93,0
46040,note_on,0,0,1,,,,,,,,,0,,,85,110
46040,note_on,40,0,1,,,,,,,,,0,,,88,0
46080,note_on,240,0,2,,,,,,,,,0,,,45,0
46080,note_on,0,0,2,,,,,,,,,0,,,40,120
46080,note_on,40,0,1,,,,,,,,,0,,,85,0
46080,control_change,240,0,3,,,,,,,,,0,64,0,,
46080,note_on,0,0,2,,,,,,,,,0,,,33,120
46080,note_on,0,0,2,,,,,,,,,0,,,33,0
46080,note_on,0,0,1,,,,,,,,,0,,,81,110
46080,note_on,0,0,2,,,,,,,,,0,,,45,120
46080,note_on,0,0,2,,,,,,,,,0,,,40,0
46110,note_on,0,0,2,,,,,,,,,0,,,40,0
46110,note_on,30,0,2,,,,,,,,,0,,,45,0
46110,note_on,0,0,2,,,,,,,,,0,,,33,0
46120,note_on,0,0,1,,,,,,,,,0,,,85,110
46120,note_on,40,0,1,,,,,,,,,0,,,81,0
46160,note_on,0,0,1,,,,,,,,,0,,,88,110
46160,note_on,40,0,1,,,,,,,,,0,,,85,0
46200,note_on,0,0,2,,,,,,,,,0,,,40,127
46200,note_on,90,0,2,,,,,,,,,0,,,33,127
46200,control_change,120,0,3,,,,,,,,,0,64,127,,
46200,note_on,40,0,1,,,,,,,,,0,,,88,0
46200,note_on,0,0,1,,,,,,,,,0,,,93,110
46200,note_on,0,0,2,,,,,,,,,0,,,45,127
46240,note_on,40,0,1,,,,,,,,,0,,,93,0
46240,note_on,0,0,1,,,,,,,,,0,,,88,110
46280,note_on,0,0,1,,,,,,,,,0,,,85,110
46280,note_on,40,0,1,,,,,,,,,0,,,88,0
46320,note_on,0,0,1,,,,,,,,,0,,,88,110
46320,note_on,40,0,1,,,,,,,,,0,,,85,0
46360,note_on,0,0,1,,,,,,,,,0,,,85,110
46360,note_on,40,0,1,,,,,,,,,0,,,88,0
46400,note_on,0,0,1,,,,,,,,,0,,,81,110
46400,note_on,40,0,1,,,,,,,,,0,,,85,0
46440,note_on,240,0,2,,,,,,,,,0,,,45,0
46440,note_on,0,0,2,,,,,,,,,0,,,40,0
46440,note_on,40,0,1,,,,,,,,,0,,,81,0
46440,note_on,0,0,2,,,,,,,,,0,,,33,120
46440,note_on,0,0,2,,,,,,,,,0,,,40,120
46440,note_on,0,0,2,,,,,,,,,0,,,45,120
46440,note_on,0,0,1,,,,,,,,,0,,,73,110
46440,control_change,240,0,3,,,,,,,,,0,64,0,,
46440,note_on,0,0,2,,,,,,,,,0,,,33,0
46470,note_on,30,0,2,,,,,,,,,0,,,45,0
46470,note_on,0,0,2,,,,,,,,,0,,,40,0
46470,note_on,0,0,2,,,,,,,,,0,,,33,0
46480,note_on,0,0,1,,,,,,,,,0,,,76,110
46480,note_on,40,0,1,,,,,,,,,0,,,73,0
46520,note_on,0,0,1,,,,,,,,,0,,,81,110
46520,note_on,40,0,1,,,,,,,,,0,,,76,0
46560,note_on,0,0,1,,,,,,,,,0,,,85,110
46560,note_on,40,0,1,,,,,,,,,0,,,81,0
46560,control_change,120,0,3,,,,,,,,,0,64,127,,
46560,note_on,0,0,2,,,,,,,,,0,,,40,127
46560,note_on,0,0,2,,,,,,,,,0,,,45,127
46560,note_on,90,0,2,,,,,,,,,0,,,33,127
46600,note_on,40,0,1,,,,,,,,,0,,,85,0
46600,note_on,0,0,1,,,,,,,,,0,,,81,110
46640,note_on,0,0,1,,,,,,,,,0,,,76,110
46640,note_on,40,0,1,,,,,,,,,0,,,81,0
46680,note_on,0,0,1,,,,,,,,,0,,,81,110
46680,note_on,40,0,1,,,,,,,,,0,,,76,0
46720,note_on,0,0,1,,,,,,,,,0,,,76,110
46720,note_on,40,0,1,,,,,,,,,0,,,81,0
46760,note_on,0,0,1,,,,,,,,,0,,,73,110
46760,note_on,40,0,1,,,,,,,,,0,,,76,0
46800,note_on,0,0,1,,,,,,,,,0,,,69,110
46800,note_on,40,0,1,,,,,,,,,0,,,73,0
46800,note_on,240,0,2,,,,,,,,,0,,,45,0
46800,note_on,0,0,2,,,,,,,,,0,,,33,120
46800,control_change,240,0,3,,,,,,,,,0,64,0,,
46800,note_on,0,0,2,,,,,,,,,0,,,40,0
46800,note_on,0,0,2,,,,,,,,,0,,,45,120
46800,note_on,0,0,2,,,,,,,,,0,,,40,120
46800,note_on,0,0,2,,,,,,,,,0,,,33,0
46830,note_on,0,0,2,,,,,,,,,0,,,33,0
46830,note_on,0,0,2,,,,,,,,,0,,,40,0
46830,note_on,30,0,2,,,,,,,,,0,,,45,0
46840,note_on,40,0,1,,,,,,,,,0,,,69,0
46840,note_on,0,0,1,,,,,,,,,0,,,73,110
46880,note_on,0,0,1,,,,,,,,,0,,,76,110
46880,note_on,40,0,1,,,,,,,,,0,,,73,0
46920,note_on,40,0,1,,,,,,,,,0,,,76,0
46920,note_on,0,0,1,,,,,,,,,0,,,81,110
46920,note_on,90,0,2,,,,,,,,,0,,,33,127
46920,note_on,0,0,2,,,,,,,,,0,,,40,127
46920,control_change,120,0,3,,,,,,,,,0,64,127,,
46920,note_on,0,0,2,,,,,,,,,0,,,45,127
46960,note_on,40,0,1,,,,,,,,,0,,,81,0
46960,note_on,0,0,1,,,,,,,,,0,,,76,110
47000,note_on,40,0,1,,,,,,,,,0,,,76,0
47000,note_on,0,0,1,,,,,,,,,0,,,73,110
47040,note_on,0,0,1,,,,,,,,,0,,,76,110
47040,note_on,40,0,1,,,,,,,,,0,,,73,0
47080,note_on,0,0,1,,,,,,,,,0,,,73,110
47080,note_on,40,0,1,,,,,,,,,0,,,76,0
47120,note_on,40,0,1,,,,,,,,,0,,,73,0
47120,note_on,0,0,1,,,,,,,,,0,,,69,110
47160,note_on,0,0,1,,,,,,,,,0,,,76,110
47160,note_on,40,0,1,,,,,,,,,0,,,69,0
47200,note_on,40,0,1,,,,,,,,,0,,,76,0
47200,note_on,0,0,1,,,,,,,,,0,,,73,108
47240,note_on,40,0,1,,,,,,,,,0,,,73,0
47240,note_on,0,0,1,,,,,,,,,0,,,69,105
47280,note_on,0,0,2,,,,,,,,,0,,,40,0
47280,note_on,0,0,2,,,,,,,,,0,,,33,112
47280,note_on,0,0,2,,,,,,,,,0,,,40,112
47280,note_on,0,0,2,,,,,,,,,0,,,45,112
47280,note_on,0,0,2,,,,,,,,,0,,,33,0
47280,note_on,360,0,2,,,,,,,,,0,,,45,0
47280,note_on,0,0,1,,,,,,,,,0,,,73,102
47280,note_on,40,0,1,,,,,,,,,0,,,69,0
47320,note_on,0,0,1,,,,,,,,,0,,,69,99
47320,note_on,40,0,1,,,,,,,,,0,,,73,0
47360,note_on,40,0,1,,,,,,,,,0,,,69,0
47360,note_on,0,0,1,,,,,,,,,0,,,64,96
47400,note_on,0,0,2,,,,,,,,,0,,,40,103
47400,note_on,0,0,2,,,,,,,,,0,,,33,103
47400,note_on,0,0,2,,,,,,,,,0,,,33,0
47400,note_on,0,0,2,,,,,,,,,0,,,40,0
47400,note_on,120,0,2,,,,,,,,,0,,,45,0
47400,note_on,0,0,2,,,,,,,,,0,,,45,103
47400,note_on,0,0,1,,,,,,,,,0,,,69,93
47400,note_on,40,0,1,,,,,,,,,0,,,64,0
47440,note_on,40,0,1,,,,,,,,,0,,,69,0
47440,note_on,0,0,1,,,,,,,,,0,,,64,91
47480,note_on,40,0,1,,,,,,,,,0,,,64,0
47480,note_on,0,0,1,,,,,,,,,0,,,61,88
47520,note_on,40,0,1,,,,,,,,,0,,,61,0
47520,note_on,120,0,2,,,,,,,,,0,,,45,0
47520,note_on,0,0,1,,,,,,,,,0,,,69,85
47520,note_on,0,0,2,,,,,,,,,0,,,45,95
47520,note_on,0,0,2,,,,,,,,,0,,,40,95
47520,note_on,0,0,2,,,,,,,,,0,,,33,95
47520,note_on,0,0,2,,,,,,,,,0,,,33,0
47520,note_on,0,0,2,,,,,,,,,0,,,40,0
47560,note_on,40,0,1,,,,,,,,,0,,,69,0
47560,note_on,0,0,1,,,,,,,,,0,,,64,82
47600,note_on,40,0,1,,,,,,,,,0,,,64,0
47600,note_on,0,0,1,,,,,,,,,0,,,61,79
47640,note_on,0,0,2,,,,,,,,,0,,,40,0
47640,note_on,0,0,2,,,,,,,,,0,,,33,0
47640,note_on,120,0,2,,,,,,,,,0,,,45,0
47640,note_on,0,0,2,,,,,,,,,0,,,33,86
47640,note_on,0,0,2,,,,,,,,,0,,,40,86
47640,note_on,0,0,2,,,,,,,,,0,,,45,86
47640,note_on,0,0,1,,,,,,,,,0,,,64,76
47640,note_on,40,0,1,,,,,,,,,0,,,61,0
47680,note_on,0,0,1,,,,,,,,,0,,,61,73
47680,note_on,40,0,1,,,,,,,,,0,,,64,0
47720,note_on,0,0,1,,,,,,,,,0,,,57,71
47720,note_on,40,0,1,,,,,,,,,0,,,61,0
47760,note_on,0,0,2,,,,,,,,,0,,,40,78
47760,note_on,0,0,2,,,,,,,,,0,,,33,78
47760,note_on,0,0,2,,,,,,,,,0,,,61,68
47760,note_on,0,0,2,,,,,,,,,0,,,33,0
47760,note_on,0,0,2,,,,,,,,,0,,,40,0
47760,note_on,120,0,2,,,,,,,,,0,,,45,0
47760,note_on,0,0,2,,,,,,,,,0,,,45,78
47760,note_on,40,0,1,,,,,,,,,0,,,57,0
47800,note_on,40,0,2,,,,,,,,,0,,,61,0
47800,note_on,0,0,2,,,,,,,,,0,,,57,65
47840,note_on,0,0,2,,,,,,,,,0,,,52,62
47840,note_on,40,0,2,,,,,,,,,0,,,57,0
47865,control_change,945,0,3,,,,,,,,,0,64,0,,
47880,note_on,0,0,2,,,,,,,,,0,,,33,0
47880,control_change,15,0,3,,,,,,,,,0,64,127,,
47880,note_on,0,0,2,,,,,,,,,0,,,45,0
47880,note_on,0,0,2,,,,,,,,,0,,,49,60
47880,note_on,0,0,2,,,,,,,,,0,,,33,70
47880,note_on,40,0,2,,,,,,,,,0,,,52,0
47880,note_on,0,0,2,,,,,,,,,0,,,40,0
47920,note_on,40,0,2,,,,,,,,,0,,,49,0
47920,note_on,0,0,2,,,,,,,,,0,,,52,60
47960,note_on,40,0,2,,,,,,,,,0,,,52,0
47960,note_on,0,0,2,,,,,,,,,0,,,57,60
48000,note_on,40,0,2,,,,,,,,,0,,,57,0
48000,note_on,0,0,2,,,,,,,,,0,,,61,60
48040,note_on,0,0,2,,,,,,,,,0,,,57,60
48040,note_on,40,0,2,,,,,,,,,0,,,61,0
48080,note_on,40,0,2,,,,,,,,,0,,,57,0
48080,note_on,0,0,2,,,,,,,,,0,,,52,60
48120,note_on,40,0,2,,,,,,,,,0,,,52,0
48120,note_on,0,0,2,,,,,,,,,0,,,49,60
48160,note_on,0,0,2,,,,,,,,,0,,,52,60
48160,note_on,40,0,2,,,,,,,,,0,,,49,0
48200,note_on,40,0,2,,,,,,,,,0,,,52,0
48200,note_on,0,0,2,,,,,,,,,0,,,57,60
48225,control_change,345,0,3,,,,,,,,,0,64,0,,
48240,note_on,0,0,2,,,,,,,,,0,,,32,70
48240,note_on,0,0,2,,,,,,,,,0,,,49,60
48240,note_on,0,0,2,,,,,,,,,0,,,33,0
48240,note_on,40,0,2,,,,,,,,,0,,,57,0
48270,note_on,0,0,2,,,,,,,,,0,,,30,70
48270,note_on,30,0,2,,,,,,,,,0,,,32,0
48280,note_on,0,0,2,,,,,,,,,0,,,54,60
48280,note_on,10,0,2,,,,,,,,,0,,,49,0
48300,note_on,20,0,2,,,,,,,,,0,,,30,0
48300,note_on,0,0,2,,,,,,,,,0,,,32,70
48320,note_on,20,0,2,,,,,,,,,0,,,32,0
48320,note_on,0,0,2,,,,,,,,,0,,,30,70
48320,note_on,0,0,2,,,,,,,,,0,,,57,60
48320,note_on,0,0,2,,,,,,,,,0,,,54,0
48340,note_on,0,0,2,,,,,,,,,0,,,32,70
48340,note_on,20,0,2,,,,,,,,,0,,,30,0
48360,note_on,0,0,2,,,,,,,,,0,,,30,70
48360,note_on,0,0,2,,,,,,,,,0,,,61,60
48360,note_on,0,0,2,,,,,,,,,0,,,57,0
48360,note_on,20,0,2,,,,,,,,,0,,,32,0
48380,note_on,20,0,2,,,,,,,,,0,,,30,0
48380,note_on,0,0,2,,,,,,,,,0,,,32,70
48400,note_on,0,0,2,,,,,,,,,0,,,57,60
48400,note_on,0,0,2,,,,,,,,,0,,,30,70
48400,note_on,0,0,2,,,,,,,,,0,,,61,0
48400,note_on,20,0,2,,,,,,,,,0,,,32,0
48420,note_on,20,0,2,,,,,,,,,0,,,30,0
48420,note_on,0,0,2,,,,,,,,,0,,,32,70
48440,note_on,20,0,2,,,,,,,,,0,,,32,0
48440,note_on,0,0,2,,,,,,,,,0,,,57,0
48440,note_on,0,0,2,,,,,,,,,0,,,54,60
48440,note_on,0,0,2,,,,,,,,,0,,,30,70
48460,note_on,0,0,2,,,,,,,,,0,,,32,70
48460,note_on,20,0,2,,,,,,,,,0,,,30,0
48480,note_on,0,0,2,,,,,,,,,0,,,30,70
48480,note_on,20,0,2,,,,,,,,,0,,,32,0
48480,note_on,0,0,2,,,,,,,,,0,,,49,60
48480,note_on,0,0,2,,,,,,,,,0,,,54,0
48500,note_on,0,0,2,,,,,,,,,0,,,32,70
48500,note_on,20,0,2,,,,,,,,,0,,,30,0
48520,note_on,0,0,2,,,,,,,,,0,,,30,70
48520,note_on,0,0,2,,,,,,,,,0,,,49,0
48520,note_on,20,0,2,,,,,,,,,0,,,32,0
48520,note_on,0,0,2,,,,,,,,,0,,,54,60
48540,note_on,0,0,2,,,,,,,,,0,,,29,70
48540,note_on,20,0,2,,,,,,,,,0,,,30,0
48560,note_on,0,0,2,,,,,,,,,0,,,57,60
48560,note_on,20,0,2,,,,,,,,,0,,,54,0
48570,note_on,10,0,2,,,,,,,,,0,,,29,0
48570,note_on,0,0,2,,,,,,,,,0,,,30,70
48600,note_on,30,0,2,,,,,,,,,0,,,30,0
48600,note_on,0,0,2,,,,,,,,,0,,,57,0
48600,control_change,375,0,3,,,,,,,,,0,64,127,,
48600,key_signature,3600,1,0,,,,,Db,,,,,,,,
48600,note_on,0,0,2,,,,,,,,,0,,,32,70
48600,note_on,0,0,2,,,,,,,,,0,,,49,60
48640,note_on,40,0,2,,,,,,,,,0,,,49,0
48640,note_on,0,0,2,,,,,,,,,0,,,53,60
48680,note_on,40,0,2,,,,,,,,,0,,,53,0
48680,note_on,0,0,2,,,,,,,,,0,,,56,60
48720,note_on,0,0,2,,,,,,,,,0,,,61,60
48720,note_on,40,0,2,,,,,,,,,0,,,56,0
48760,note_on,40,0,2,,,,,,,,,0,,,61,0
48760,note_on,0,0,2,,,,,,,,,0,,,56,60
48800,note_on,40,0,2,,,,,,,,,0,,,56,0
48800,note_on,0,0,2,,,,,,,,,0,,,53,60
48840,note_on,40,0,2,,,,,,,,,0,,,53,0
48840,note_on,0,0,2,,,,,,,,,0,,,49,60
48880,note_on,40,0,2,,,,,,,,,0,,,49,0
48880,note_on,0,0,2,,,,,,,,,0,,,53,60
48920,note_on,40,0,2,,,,,,,,,0,,,53,0
48920,note_on,0,0,2,,,,,,,,,0,,,56,60
48945,control_change,345,0,3,,,,,,,,,0,64,0,,
48960,control_change,15,0,3,,,,,,,,,0,64,127,,
48960,note_on,0,0,2,,,,,,,,,0,,,51,60
48960,note_on,40,0,2,,,,,,,,,0,,,56,0
49000,note_on,0,0,2,,,,,,,,,0,,,54,60
49000,note_on,40,0,2,,,,,,,,,0,,,51,0
49040,note_on,0,0,2,,,,,,,,,0,,,56,60
49040,note_on,40,0,2,,,,,,,,,0,,,54,0
49080,note_on,40,0,2,,,,,,,,,0,,,56,0
49080,note_on,0,0,2,,,,,,,,,0,,,60,60
49120,note_on,40,0,2,,,,,,,,,0,,,60,0
49120,note_on,0,0,2,,,,,,,,,0,,,56,60
49160,note_on,40,0,2,,,,,,,,,0,,,56,0
49160,note_on,0,0,2,,,,,,,,,0,,,54,60
49200,note_on,40,0,2,,,,,,,,,0,,,54,0
49200,note_on,0,0,2,,,,,,,,,0,,,51,60
49240,note_on,40,0,2,,,,,,,,,0,,,51,0
49240,note_on,0,0,2,,,,,,,,,0,,,54,60
49280,note_on,40,0,2,,,,,,,,,0,,,54,0
49280,note_on,0,0,2,,,,,,,,,0,,,56,60
49305,control_change,345,0,3,,,,,,,,,0,64,0,,
49320,note_on,0,0,2,,,,,,,,,0,,,37,70
49320,control_change,15,0,3,,,,,,,,,0,64,127,,
49320,note_on,0,0,2,,,,,,,,,0,,,53,60
49320,note_on,0,0,2,,,,,,,,,0,,,32,0
49320,note_on,40,0,2,,,,,,,,,0,,,56,0
49360,note_on,0,0,2,,,,,,,,,0,,,56,60
49360,note_on,40,0,2,,,,,,,,,0,,,53,0
49400,note_on,0,0,2,,,,,,,,,0,,,61,60
49400,note_on,40,0,2,,,,,,,,,0,,,56,0
49425,control_change,105,0,3,,,,,,,,,0,64,0,,
49440,note_on,40,0,2,,,,,,,,,0,,,61,0
49440,note_on,0,0,2,,,,,,,,,0,,,65,60
49440,note_on,0,0,2,,,,,,,,,0,,,44,80
49440,control_change,15,0,3,,,,,,,,,0,64,127,,
49480,note_on,0,0,2,,,,,,,,,0,,,61,60
49480,note_on,40,0,2,,,,,,,,,0,,,65,0
49520,note_on,0,0,2,,,,,,,,,0,,,56,60
49520,note_on,40,0,2,,,,,,,,,0,,,61,0
49545,control_change,105,0,3,,,,,,,,,0,64,0,,
49560,note_on,0,0,2,,,,,,,,,0,,,53,60
49560,note_on,40,0,2,,,,,,,,,0,,,56,0
49560,control_change,15,0,3,,,,,,,,,0,64,127,,
49600,note_on,0,0,2,,,,,,,,,0,,,56,60
49600,note_on,40,0,2,,,,,,,,,0,,,53,0
49640,note_on,1880,0,1,,,,,,,,,0,,,61,60
49640,note_on,40,0,2,,,,,,,,,0,,,56,0
49665,control_change,105,0,3,,,,,,,,,0,64,0,,
49680,note_on,40,0,2,,,,,,,,,0,,,37,0
49680,note_on,0,0,2,,,,,,,,,0,,,41,70
49680,note_on,0,0,1,,,,,,,,,0,,,56,60
49680,note_on,40,0,1,,,,,,,,,0,,,61,0
49680,control_change,15,0,3,,,,,,,,,0,64,127,,
49720,note_on,40,0,1,,,,,,,,,0,,,56,0
49720,note_on,0,0,1,,,,,,,,,0,,,61,60
49760,note_on,0,0,1,,,,,,,,,0,,,65,60
49760,note_on,40,0,1,,,,,,,,,0,,,61,0
49785,control_change,105,0,3,,,,,,,,,0,64,0,,
49800,note_on,0,0,1,,,,,,,,,0,,,68,60
49800,note_on,40,0,1,,,,,,,,,0,,,65,0
49800,control_change,15,0,3,,,,,,,,,0,64,127,,
49800,note_on,0,0,2,,,,,,,,,0,,,44,80
49800,note_on,120,0,2,,,,,,,,,0,,,44,0
49840,note_on,40,0,1,,,,,,,,,0,,,68,0
49840,note_on,0,0,1,,,,,,,,,0,,,65,60
49880,note_on,0,0,1,,,,,,,,,0,,,61,60
49880,note_on,40,0,1,,,,,,,,,0,,,65,0
49905,control_change,105,0,3,,,,,,,,,0,64,0,,
49920,control_change,15,0,3,,,,,,,,,0,64,127,,
49920,note_on,40,0,1,,,,,,,,,0,,,61,0
49920,note_on,0,0,1,,,,,,,,,0,,,56,60
49960,note_on,40,0,1,,,,,,,,,0,,,56,0
49960,note_on,0,0,1,,,,,,,,,0,,,61,60
50000,note_on,40,0,1,,,,,,,,,0,,,61,0
50000,note_on,0,0,1,,,,,,,,,0,,,65,60
50025,control_change,105,0,3,,,,,,,,,0,64,0,,
50040,control_change,15,0,3,,,,,,,,,0,64,127,,
50040,note_on,240,0,2,,,,,,,,,0,,,41,0
50040,note_on,0,0,2,,,,,,,,,0,,,36,70
50040,note_on,0,0,1,,,,,,,,,0,,,62,60
50040,note_on,40,0,1,,,,,,,,,0,,,65,0
50080,note_on,0,0,1,,,,,,,,,0,,,65,60
50080,note_on,40,0,1,,,,,,,,,0,,,62,0
50120,note_on,40,0,1,,,,,,,,,0,,,65,0
50120,note_on,0,0,1,,,,,,,,,0,,,68,60
50145,control_change,105,0,3,,,,,,,,,0,64,0,,
50160,control_change,15,0,3,,,,,,,,,0,64,127,,
50160,note_on,120,0,2,,,,,,,,,0,,,44,0
50160,note_on,0,0,2,,,,,,,,,0,,,44,80
50160,note_on,0,0,1,,,,,,,,,0,,,63,60
50160,note_on,40,0,1,,,,,,,,,0,,,68,0
50200,note_on,0,0,1,,,,,,,,,0,,,66,60
50200,note_on,40,0,1,,,,,,,,,0,,,63,0
50240,note_on,40,0,1,,,,,,,,,0,,,66,0
50240,note_on,0,0,1,,,,,,,,,0,,,68,60
50265,control_change,105,0,3,,,,,,,,,0,64,0,,
50280,note_on,40,0,1,,,,,,,,,0,,,68,0
50280,note_on,0,0,1,,,,,,,,,0,,,63,60
50280,control_change,15,0,3,,,,,,,,,0,64,127,,
50320,note_on,40,0,1,,,,,,,,,0,,,63,0
50320,note_on,0,0,1,,,,,,,,,0,,,66,60
50360,note_on,0,0,1,,,,,,,,,0,,,69,60
50360,note_on,40,0,1,,,,,,,,,0,,,66,0
50385,control_change,105,0,3,,,,,,,,,0,64,0,,
50400,note_on,240,0,2,,,,,,,,,0,,,36,0
50400,note_on,0,0,2,,,,,,,,,0,,,32,70
50400,note_on,40,0,1,,,,,,,,,0,,,69,0
50400,note_on,0,0,1,,,,,,,,,0,,,60,60
50400,control_change,15,0,3,,,,,,,,,0,64,127,,
50440,note_on,0,0,1,,,,,,,,,0,,,66,60
50440,note_on,40,0,1,,,,,,,,,0,,,60,0
50480,note_on,0,0,1,,,,,,,,,0,,,70,61
50480,note_on,40,0,1,,,,,,,,,0,,,66,0
50505,control_change,105,0,3,,,,,,,,,0,64,0,,
50520,control_change,15,0,3,,,,,,,,,0,64,127,,
50520,note_on,0,0,1,,,,,,,,,0,,,60,61
50520,note_on,0,0,2,,,,,,,,,0,,,44,81
50520,note_on,120,0,2,,,,,,,,,0,,,44,0
50520,note_on,40,0,1,,,,,,,,,0,,,70,0
50560,note_on,40,0,1,,,,,,,,,0,,,60,0
50560,note_on,0,0,1,,,,,,,,,0,,,65,62
50600,note_on,40,0,1,,,,,,,,,0,,,65,0
50600,note_on,0,0,1,,,,,,,,,0,,,68,62
50625,control_change,105,0,3,,,,,,,,,0,64,0,,
50640,note_on,40,0,1,,,,,,,,,0,,,68,0
50640,note_on,0,0,1,,,,,,,,,0,,,60,63
50640,control_change,15,0,3,,,,,,,,,0,64,127,,
50680,note_on,40,0,1,,,,,,,,,0,,,60,0
50680,note_on,0,0,1,,,,,,,,,0,,,63,64
50720,note_on,40,0,1,,,,,,,,,0,,,63,0
50720,note_on,0,0,1,,,,,,,,,0,,,66,64
50745,control_change,105,0,3,,,,,,,,,0,64,0,,
50760,note_on,0,0,1,,,,,,,,,0,,,65,65
50760,control_change,15,0,3,,,,,,,,,0,64,127,,
50760,note_on,40,0,1,,,,,,,,,0,,,66,0
50760,note_on,0,0,2,,,,,,,,,0,,,37,75
50760,note_on,240,0,2,,,,,,,,,0,,,32,0
50800,note_on,0,0,1,,,,,,,,,0,,,68,65
50800,note_on,40,0,1,,,,,,,,,0,,,65,0
50840,note_on,40,0,1,,,,,,,,,0,,,68,0
50840,note_on,0,0,1,,,,,,,,,0,,,73,66
50865,control_change,105,0,3,,,,,,,,,0,64,0,,
50880,note_on,0,0,1,,,,,,,,,0,,,77,67
50880,note_on,40,0,1,,,,,,,,,0,,,73,0
50880,control_change,15,0,3,,,,,,,,,0,64,127,,
50880,note_on,120,0,2,,,,,,,,,0,,,44,0
50880,note_on,0,0,2,,,,,,,,,0,,,44,87
50920,note_on,0,0,1,,,,,,,,,0,,,73,67
50920,note_on,40,0,1,,,,,,,,,0,,,77,0
50960,note_on,0,0,1,,,,,,,,,0,,,68,68
50960,note_on,40,0,1,,,,,,,,,0,,,73,0
50985,control_change,105,0,3,,,,,,,,,0,64,0,,
51000,control_change,15,0,3,,,,,,,,,0,64,127,,
51000,note_on,40,0,1,,,,,,,,,0,,,68,0
51000,note_on,0,0,1,,,,,,,,,0,,,65,68
51040,note_on,40,0,1,,,,,,,,,0,,,65,0
51040,note_on,0,0,1,,,,,,,,,0,,,68,69
51080,note_on,40,0,1,,,,,,,,,0,,,68,0
51080,note_on,0,0,1,,,,,,,,,0,,,73,69
51105,control_change,105,0,3,,,,,,,,,0,64,0,,
51120,note_on,0,0,1,,,,,,,,,0,,,68,70
51120,note_on,40,0,1,,,,,,,,,0,,,73,0
51120,note_on,240,0,2,,,,,,,,,0,,,37,0
51120,control_change,15,0,3,,,,,,,,,0,64,127,,
51120,note_on,0,0,2,,,,,,,,,0,,,41,80
51160,note_on,40,0,1,,,,,,,,,0,,,68,0
51160,note_on,0,0,1,,,,,,,,,0,,,73,71
51200,note_on,40,0,1,,,,,,,,,0,,,73,0
51200,note_on,0,0,1,,,,,,,,,0,,,77,71
51225,control_change,105,0,3,,,,,,,,,0,64,0,,
51240,note_on,40,0,1,,,,,,,,,0,,,77,0
51240,note_on,0,0,1,,,,,,,,,0,,,80,72
51240,control_change,15,0,3,,,,,,,,,0,64,127,,
51240,note_on,120,0,2,,,,,,,,,0,,,44,0
51240,note_on,0,0,2,,,,,,,,,0,,,44,92
51280,note_on,0,0,1,,,,,,,,,0,,,77,72
51280,note_on,40,0,1,,,,,,,,,0,,,80,0
51320,note_on,40,0,1,,,,,,,,,0,,,77,0
51320,note_on,0,0,1,,,,,,,,,0,,,73,73
51345,control_change,105,0,3,,,,,,,,,0,64,0,,
51360,note_on,0,0,1,,,,,,,,,0,,,68,74
51360,note_on,40,0,1,,,,,,,,,0,,,73,0
51360,control_change,15,0,3,,,,,,,,,0,64,127,,
51400,note_on,0,0,1,,,,,,,,,0,,,73,74
51400,note_on,40,0,1,,,,,,,,,0,,,68,0
51440,note_on,0,0,1,,,,,,,,,0,,,77,75
51440,note_on,40,0,1,,,,,,,,,0,,,73,0
51465,control_change,105,0,3,,,,,,,,,0,64,0,,
51480,note_on,0,0,1,,,,,,,,,0,,,73,75
51480,note_on,240,0,2,,,,,,,,,0,,,41,0
51480,note_on,40,0,1,,,,,,,,,0,,,77,0
51480,control_change,15,0,3,,,,,,,,,0,64,127,,
51480,note_on,0,0,2,,,,,,,,,0,,,36,85
51520,note_on,40,0,1,,,,,,,,,0,,,73,0
51520,note_on,0,0,1,,,,,,,,,0,,,77,76
51560,note_on,0,0,1,,,,,,,,,0,,,80,77
51560,note_on,40,0,1,,,,,,,,,0,,,77,0
51585,control_change,105,0,3,,,,,,,,,0,64,0,,
51600,note_on,120,0,2,,,,,,,,,0,,,44,0
51600,note_on,0,0,2,,,,,,,,,0,,,44,97
51600,control_change,15,0,3,,,,,,,,,0,64,127,,
51600,note_on,0,0,1,,,,,,,,,0,,,75,77
51600,note_on,40,0,1,,,,,,,,,0,,,80,0
51640,note_on,40,0,1,,,,,,,,,0,,,75,0
51640,note_on,0,0,1,,,,,,,,,0,,,78,78
51680,note_on,0,0,1,,,,,,,,,0,,,80,78
51680,note_on,40,0,1,,,,,,,,,0,,,78,0
51705,control_change,105,0,3,,,,,,,,,0,64,0,,
51720,control_change,15,0,3,,,,,,,,,0,64,127,,
51720,note_on,0,0,1,,,,,,,,,0,,,75,79
51720,note_on,40,0,1,,,,,,,,,0,,,80,0
51760,note_on,0,0,1,,,,,,,,,0,,,78,79
51760,note_on,40,0,1,,,,,,,,,0,,,75,0
51800,note_on,0,0,1,,,,,,,,,0,,,81,80
51800,note_on,40,0,1,,,,,,,,,0,,,78,0
51825,control_change,105,0,3,,,,,,,,,0,64,0,,
51840,note_on,0,0,2,,,,,,,,,0,,,32,90
51840,note_on,240,0,2,,,,,,,,,0,,,36,0
51840,note_on,40,0,1,,,,,,,,,0,,,81,0
51840,control_change,15,0,3,,,,,,,,,0,64,127,,
51840,note_on,0,0,1,,,,,,,,,0,,,72,80
51880,note_on,40,0,1,,,,,,,,,0,,,72,0
51880,note_on,0,0,1,,,,,,,,,0,,,78,79
51920,note_on,40,0,1,,,,,,,,,0,,,78,0
51920,note_on,0,0,1,,,,,,,,,0,,,82,77
51945,control_change,105,0,3,,,,,,,,,0,64,0,,
51960,note_on,120,0,2,,,,,,,,,0,,,44,0
51960,note_on,0,0,2,,,,,,,,,0,,,44,96
51960,note_on,40,0,1,,,,,,,,,0,,,82,0
51960,note_on,0,0,1,,,,,,,,,0,,,72,76
51960,control_change,15,0,3,,,,,,,,,0,64,127,,
52000,note_on,0,0,1,,,,,,,,,0,,,77,74
52000,note_on,40,0,1,,,,,,,,,0,,,72,0
52040,note_on,0,0,1,,,,,,,,,0,,,80,73
52040,note_on,40,0,1,,,,,,,,,0,,,77,0
52065,control_change,105,0,3,,,,,,,,,0,64,0,,
52080,control_change,15,0,3,,,,,,,,,0,64,127,,
52080,note_on,0,0,1,,,,,,,,,0,,,72,71
52080,note_on,40,0,1,,,,,,,,,0,,,80,0
52120,note_on,0,0,1,,,,,,,,,0,,,75,70
52120,note_on,40,0,1,,,,,,,,,0,,,72,0
52160,note_on,40,0,1,,,,,,,,,0,,,75,0
52160,note_on,0,0,1,,,,,,,,,0,,,78,68
52185,control_change,105,0,3,,,,,,,,,0,64,0,,
52200,note_on,40,0,1,,,,,,,,,0,,,78,0
52200,control_change,15,0,3,,,,,,,,,0,64,127,,
52200,note_on,0,0,2,,,,,,,,,0,,,34,77
52200,note_on,240,0,2,,,,,,,,,0,,,44,0
52200,note_on,0,0,2,,,,,,,,,0,,,32,0
52200,note_on,0,0,1,,,,,,,,,0,,,72,67
52240,note_on,40,0,1,,,,,,,,,0,,,72,0
52240,note_on,0,0,1,,,,,,,,,0,,,75,65
52280,note_on,0,0,1,,,,,,,,,0,,,77,64
52280,note_on,40,0,1,,,,,,,,,0,,,75,0
52305,control_change,105,0,3,,,,,,,,,0,64,0,,
52320,control_change,15,0,3,,,,,,,,,0,64,127,,
52320,note_on,120,0,2,,,,,,,,,0,,,46,72
52320,note_on,0,0,1,,,,,,,,,0,,,70,62
52320,note_on,40,0,1,,,,,,,,,0,,,77,0
52360,note_on,40,0,1,,,,,,,,,0,,,70,0
52360,note_on,0,0,1,,,,,,,,,0,,,73,61
52400,note_on,40,0,1,,,,,,,,,0,,,73,0
52400,note_on,0,0,1,,,,,,,,,0,,,77,59
52425,control_change,105,0,3,,,,,,,,,0,64,0,,
52440,control_change,15,0,3,,,,,,,,,0,64,127,,
52440,note_on,40,0,1,,,,,,,,,0,,,77,0
52440,note_on,0,0,1,,,,,,,,,0,,,68,57
52480,note_on,40,0,1,,,,,,,,,0,,,68,0
52480,note_on,0,0,1,,,,,,,,,0,,,72,56
52520,note_on,40,0,1,,,,,,,,,0,,,72,0
52520,note_on,0,0,1,,,,,,,,,0,,,77,54
52545,control_change,105,0,3,,,,,,,,,0,64,0,,
52560,note_on,40,0,1,,,,,,,,,0,,,77,0
52560,control_change,15,0,3,,,,,,,,,0,64,127,,
52560,note_on,240,0,2,,,,,,,,,0,,,46,0
52560,note_on,0,0,2,,,,,,,,,0,,,34,0
52560,note_on,0,0,2,,,,,,,,,0,,,39,63
52560,note_on,0,0,1,,,,,,,,,0,,,68,53
52600,note_on,40,0,1,,,,,,,,,0,,,68,0
52600,note_on,0,0,1,,,,,,,,,0,,,70,51
52640,note_on,40,0,1,,,,,,,,,0,,,70,0
52640,note_on,0,0,1,,,,,,,,,0,,,77,50
52665,control_change,105,0,3,,,,,,,,,0,64,0,,
52680,note_on,120,0,2,,,,,,,,,0,,,51,58
52680,note_on,40,0,1,,,,,,,,,0,,,77,0
52680,note_on,0,0,1,,,,,,,,,0,,,66,48
52680,control_change,15,0,3,,,,,,,,,0,64,127,,
52720,note_on,40,0,1,,,,,,,,,0,,,66,0
52720,note_on,0,0,1,,,,,,,,,0,,,70,47
52760,note_on,40,0,1,,,,,,,,,0,,,70,0
52760,note_on,0,0,1,,,,,,,,,0,,,75,45
52785,control_change,105,0,3,,,,,,,,,0,64,0,,
52800,note_on,0,0,1,,,,,,,,,0,,,65,44
52800,note_on,40,0,1,,,,,,,,,0,,,75,0
52800,note_on,120,0,2,,,,,,,,,0,,,51,0
52800,note_on,0,0,2,,,,,,,,,0,,,39,0
52800,note_on,0,0,2,,,,,,,,,0,,,42,54
52800,note_on,0,0,2,,,,,,,,,0,,,54,54
52800,control_change,15,0,3,,,,,,,,,0,64,127,,
52840,note_on,0,0,1,,,,,,,,,0,,,70,42
52840,note_on,40,0,1,,,,,,,,,0,,,65,0
52880,note_on,40,0,1,,,,,,,,,0,,,70,0
52880,note_on,0,0,1,,,,,,,,,0,,,73,41
52905,control_change,105,0,3,,,,,,,,,0,64,0,,
52920,note_on,0,0,1,,,,,,,,,0,,,63,40
52920,control_change,15,0,3,,,,,,,,,0,64,127,,
52920,note_on,0,0,2,,,,,,,,,0,,,44,50
52920,note_on,0,0,2,,,,,,,,,0,,,42,0
52920,note_on,120,0,2,,,,,,,,,0,,,54,0
52920,note_on,40,0,1,,,,,,,,,0,,,73,0
52960,note_on,0,0,1,,,,,,,,,0,,,68,40
52960,note_on,40,0,1,,,,,,,,,0,,,63,0
53000,note_on,0,0,1,,,,,,,,,0,,,72,40
53000,note_on,40,0,1,,,,,,,,,0,,,68,0
53025,control_change,105,0,3,,,,,,,,,0,64,0,,
53040,note_on,0,0,1,,,,,,,,,0,,,65,40
53040,note_on,120,0,2,,,,,,,,,0,,,56,50
53040,note_on,40,0,1,,,,,,,,,0,,,72,0
53040,control_change,15,0,3,,,,,,,,,0,64,127,,
53080,note_on,40,0,1,,,,,,,,,0,,,65,0
53080,note_on,0,0,1,,,,,,,,,0,,,68,40
53120,note_on,0,0,1,,,,,,,,,0,,,73,40
53120,note_on,40,0,1,,,,,,,,,0,,,68,0
53145,control_change,105,0,3,,,,,,,,,0,64,0,,
53160,note_on,0,0,1,,,,,,,,,0,,,66,40
53160,note_on,40,0,1,,,,,,,,,0,,,73,0
53160,control_change,15,0,3,,,,,,,,,0,64,127,,
53200,note_on,40,0,1,,,,,,,,,0,,,66,0
53200,note_on,0,0,1,,,,,,,,,0,,,68,40
53240,note_on,40,0,1,,,,,,,,,0,,,68,0
53240,note_on,0,0,1,,,,,,,,,0,,,75,40
53265,control_change,105,0,3,,,,,,,,,0,64,0,,
53280,note_on,0,0,2,,,,,,,,,0,,,49,50
53280,note_on,240,0,2,,,,,,,,,0,,,44,0
53280,control_change,15,0,3,,,,,,,,,0,64,127,,
53280,note_on,0,0,1,,,,,,,,,0,,,65,40
53280,note_on,40,0,1,,,,,,,,,0,,,75,0
53320,note_on,0,0,1,,,,,,,,,0,,,68,40
53320,note_on,40,0,1,,,,,,,,,0,,,65,0
53360,note_on,40,0,1,,,,,,,,,0,,,68,0
53360,note_on,0,0,1,,,,,,,,,0,,,73,40
53385,control_change,105,0,3,,,,,,,,,0,64,0,,
53400,control_change,15,0,3,,,,,,,,,0,64,127,,
53400,note_on,40,0,1,,,,,,,,,0,,,73,0
53400,note_on,0,0,1,,,,,,,,,0,,,68,40
53440,note_on,40,0,1,,,,,,,,,0,,,68,0
53440,note_on,0,0,1,,,,,,,,,0,,,65,40
53480,note_on,0,0,1,,,,,,,,,0,,,61,40
53480,note_on,40,0,1,,,,,,,,,0,,,65,0
53505,control_change,105,0,3,,,,,,,,,0,64,0,,
53520,note_on,240,0,2,,,,,,,,,0,,,49,0
53520,note_on,0,0,1,,,,,,,,,0,,,65,40
53520,control_change,15,0,3,,,,,,,,,0,64,127,,
53520,note_on,40,0,1,,,,,,,,,0,,,61,0
53520,note_on,0,0,2,,,,,,,,,0,,,56,0
53560,note_on,40,0,1,,,,,,,,,0,,,65,0
53560,note_on,0,0,1,,,,,,,,,0,,,61,40
53600,note_on,40,0,1,,,,,,,,,0,,,61,0
53600,note_on,80,0,2,,,,,,,,,0,,,56,40
53625,control_change,105,0,3,,,,,,,,,0,64,0,,
53640,note_on,40,0,1,,,,,,,,,0,,,52,100
53640,control_change,15,0,3,,,,,,,,,0,64,127,,
53640,note_on,40,0,2,,,,,,,,,0,,,56,0
53640,note_on,0,0,2,,,,,,,,,0,,,37,110
53680,note_on,40,0,1,,,,,,,,,0,,,52,0
53680,note_on,0,0,1,,,,,,,,,0,,,56,100
53720,note_on,40,0,1,,,,,,,,,0,,,56,0
53720,note_on,0,0,1,,,,,,,,,0,,,61,100
53745,control_change,105,0,3,,,,,,,,,0,64,0,,
53760,control_change,15,0,3,,,,,,,,,0,64,127,,
53760,note_on,120,0,2,,,,,,,,,0,,,44,120
53760,note_on,0,0,1,,,,,,,,,0,,,64,100
53760,note_on,40,0,1,,,,,,,,,0,,,61,0
53800,note_on,0,0,1,,,,,,,,,0,,,61,100
53800,note_on,40,0,1,,,,,,,,,0,,,64,0
53840,note_on,0,0,1,,,,,,,,,0,,,56,100
53840,note_on,40,0,1,,,,,,,,,0,,,61,0
53865,control_change,105,0,3,,,,,,,,,0,64,0,,
53880,control_change,15,0,3,,,,,,,,,0,64,127,,
53880,note_on,40,0,1,,,,,,,,,0,,,56,0
53880,note_on,0,0,1,,,,,,,,,0,,,52,100
53920,note_on,40,0,1,,,,,,,,,0,,,52,0
53920,note_on,0,0,1,,,,,,,,,0,,,56,100
53960,note_on,0,0,1,,,,,,,,,0,,,61,100
53960,note_on,40,0,1,,,,,,,,,0,,,56,0
53985,control_change,105,0,3,,,,,,,,,0,64,0,,
54000,note_on,0,0,1,,,,,,,,,0,,,56,100
54000,note_on,0,0,2,,,,,,,,,0,,,40,110
54000,control_change,15,0,3,,,,,,,,,0,64,127,,
54000,note_on,240,0,2,,,,,,,,,0,,,37,0
54000,note_on,40,0,1,,,,,,,,,0,,,61,0
54040,note_on,40,0,1,,,,,,,,,0,,,56,0
54040,note_on,0,0,1,,,,,,,,,0,,,61,100
54080,note_on,40,0,1,,,,,,,,,0,,,61,0
54080,note_on,0,0,1,,,,,,,,,0,,,64,100
54105,control_change,105,0,3,,,,,,,,,0,64,0,,
54120,note_on,0,0,2,,,,,,,,,0,,,44,120
54120,note_on,120,0,2,,,,,,,,,0,,,44,0
54120,control_change,15,0,3,,,,,,,,,0,64,127,,
54120,note_on,0,0,1,,,,,,,,,0,,,68,100
54120,note_on,40,0,1,,,,,,,,,0,,,64,0
54160,note_on,40,0,1,,,,,,,,,0,,,68,0
54160,note_on,0,0,1,,,,,,,,,0,,,64,100
54200,note_on,40,0,1,,,,,,,,,0,,,64,0
54200,note_on,0,0,1,,,,,,,,,0,,,61,100
54225,control_change,105,0,3,,,,,,,,,0,64,0,,
54240,note_on,0,0,1,,,,,,,,,0,,,56,100
54240,note_on,40,0,1,,,,,,,,,0,,,61,0
54240,control_change,15,0,3,,,,,,,,,0,64,127,,
54280,note_on,40,0,1,,,,,,,,,0,,,56,0
54280,note_on,0,0,1,,,,,,,,,0,,,61,100
54320,note_on,40,0,1,,,,,,,,,0,,,61,0
54320,note_on,0,0,1,,,,,,,,,0,,,64,100
54345,control_change,105,0,3,,,,,,,,,0,64,0,,
54360,note_on,0,0,1,,,,,,,,,0,,,62,100
54360,note_on,40,0,1,,,,,,,,,0,,,64,0
54360,note_on,240,0,2,,,,,,,,,0,,,40,0
54360,note_on,0,0,2,,,,,,,,,0,,,36,110
54360,control_change,15,0,3,,,,,,,,,0,64,127,,
54400,note_on,40,0,1,,,,,,,,,0,,,62,0
54400,note_on,0,0,1,,,,,,,,,0,,,65,100
54440,note_on,0,0,1,,,,,,,,,0,,,68,100
54440,note_on,40,0,1,,,,,,,,,0,,,65,0
54465,control_change,105,0,3,,,,,,,,,0,64,0,,
54480,note_on,0,0,2,,,,,,,,,0,,,44,120
54480,note_on,40,0,1,,,,,,,,,0,,,68,0
54480,note_on,0,0,1,,,,,,,,,0,,,63,100
54480,control_change,15,0,3,,,,,,,,,0,64,127,,
54480,note_on,120,0,2,,,,,,,,,0,,,44,0
54520,note_on,40,0,1,,,,,,,,,0,,,63,0
54520,note_on,0,0,1,,,,,,,,,0,,,66,100
54560,note_on,40,0,1,,,,,,,,,0,,,66,0
54560,note_on,0,0,1,,,,,,,,,0,,,68,100
54585,control_change,105,0,3,,,,,,,,,0,64,0,,
54600,control_change,15,0,3,,,,,,,,,0,64,127,,
54600,note_on,0,0,1,,,,,,,,,0,,,61,100
54600,note_on,40,0,1,,,,,,,,,0,,,68,0
54640,note_on,40,0,1,,,,,,,,,0,,,61,0
54640,note_on,0,0,1,,,,,,,,,0,,,65,100
54680,note_on,40,0,1,,,,,,,,,0,,,65,0
54680,note_on,0,0,1,,,,,,,,,0,,,68,100
54705,control_change,105,0,3,,,,,,,,,0,64,0,,
54720,control_change,15,0,3,,,,,,,,,0,64,127,,
54720,note_on,40,0,1,,,,,,,,,0,,,68,0
54720,note_on,0,0,1,,,,,,,,,0,,,63,100
54720,note_on,240,0,2,,,,,,,,,0,,,36,0
54720,note_on,0,0,2,,,,,,,,,0,,,32,110
54760,note_on,0,0,1,,,,,,,,,0,,,66,100
54760,note_on,40,0,1,,,,,,,,,0,,,63,0
54800,note_on,0,0,1,,,,,,,,,0,,,69,100
54800,note_on,40,0,1,,,,,,,,,0,,,66,0
54825,control_change,105,0,3,,,,,,,,,0,64,0,,
54840,note_on,120,0,2,,,,,,,,,0,,,44,0
54840,note_on,40,0,1,,,,,,,,,0,,,69,0
54840,note_on,0,0,1,,,,,,,,,0,,,60,100
54840,note_on,0,0,2,,,,,,,,,0,,,44,120
54840,control_change,15,0,3,,,,,,,,,0,64,127,,
54880,note_on,40,0,1,,,,,,,,,0,,,60,0
54880,note_on,0,0,1,,,,,,,,,0,,,64,100
54920,note_on,0,0,1,,,,,,,,,0,,,68,100
54920,note_on,40,0,1,,,,,,,,,0,,,64,0
54945,control_change,105,0,3,,,,,,,,,0,64,0,,
54960,control_change,15,0,3,,,,,,,,,0,64,127,,
54960,note_on,0,0,1,,,,,,,,,0,,,60,100
54960,note_on,40,0,1,,,,,,,,,0,,,68,0
55000,note_on,40,0,1,,,,,,,,,0,,,60,0
55000,note_on,0,0,1,,,,,,,,,0,,,63,100
55040,note_on,40,0,1,,,,,,,,,0,,,63,0
55040,note_on,0,0,1,,,,,,,,,0,,,66,100
55065,control_change,105,0,3,,,,,,,,,0,64,0,,
55080,note_on,240,0,2,,,,,,,,,0,,,32,0
55080,note_on,40,0,1,,,,,,,,,0,,,66,0
55080,note_on,0,0,1,,,,,,,,,0,,,64,100
55080,control_change,15,0,3,,,,,,,,,0,64,127,,
55080,note_on,0,0,2,,,,,,,,,0,,,37,110
55120,note_on,0,0,1,,,,,,,,,0,,,68,100
55120,note_on,40,0,1,,,,,,,,,0,,,64,0
55160,note_on,0,0,1,,,,,,,,,0,,,73,100
55160,note_on,40,0,1,,,,,,,,,0,,,68,0
55185,control_change,105,0,3,,,,,,,,,0,64,0,,
55200,note_on,120,0,2,,,,,,,,,0,,,44,0
55200,control_change,15,0,3,,,,,,,,,0,64,127,,
55200,note_on,40,0,1,,,,,,,,,0,,,73,0
55200,note_on,0,0,1,,,,,,,,,0,,,76,100
55200,note_on,0,0,2,,,,,,,,,0,,,44,120
55240,note_on,40,0,1,,,,,,,,,0,,,76,0
55240,note_on,0,0,1,,,,,,,,,0,,,73,100
55280,note_on,40,0,1,,,,,,,,,0,,,73,0
55280,note_on,0,0,1,,,,,,,,,0,,,68,100
55305,control_change,105,0,3,,,,,,,,,0,64,0,,
55320,note_on,40,0,1,,,,,,,,,0,,,68,0
55320,note_on,0,0,1,,,,,,,,,0,,,64,100
55320,control_change,15,0,3,,,,,,,,,0,64,127,,
55360,note_on,40,0,1,,,,,,,,,0,,,64,0
55360,note_on,0,0,1,,,,,,,,,0,,,68,100
55400,note_on,0,0,1,,,,,,,,,0,,,73,100
55400,note_on,40,0,1,,,,,,,,,0,,,68,0
55425,control_change,105,0,3,,,,,,,,,0,64,0,,
55440,note_on,40,0,1,,,,,,,,,0,,,73,0
55440,note_on,0,0,2,,,,,,,,,0,,,40,110
55440,note_on,240,0,2,,,,,,,,,0,,,37,0
55440,control_change,15,0,3,,,,,,,,,0,64,127,,
55440,note_on,0,0,1,,,,,,,,,0,,,68,100
55480,note_on,0,0,1,,,,,,,,,0,,,73,100
55480,note_on,40,0,1,,,,,,,,,0,,,68,0
55520,note_on,0,0,1,,,,,,,,,0,,,76,100
55520,note_on,40,0,1,,,,,,,,,0,,,73,0
55545,control_change,105,0,3,,,,,,,,,0,64,0,,
55560,note_on,40,0,1,,,,,,,,,0,,,76,0
55560,note_on,120,0,2,,,,,,,,,0,,,44,0
55560,control_change,15,0,3,,,,,,,,,0,64,127,,
55560,note_on,0,0,2,,,,,,,,,0,,,44,120
55560,note_on,0,0,1,,,,,,,,,0,,,80,100
55600,note_on,0,0,1,,,,,,,,,0,,,76,100
55600,note_on,40,0,1,,,,,,,,,0,,,80,0
55640,note_on,0,0,1,,,,,,,,,0,,,73,100
55640,note_on,40,0,1,,,,,,,,,0,,,76,0
55665,control_change,105,0,3,,,,,,,,,0,64,0,,
55680,control_change,15,0,3,,,,,,,,,0,64,127,,
55680,note_on,0,0,1,,,,,,,,,0,,,68,100
55680,note_on,40,0,1,,,,,,,,,0,,,73,0
55720,note_on,0,0,1,,,,,,,,,0,,,73,100
55720,note_on,40,0,1,,,,,,,,,0,,,68,0
55760,note_on,40,0,1,,,,,,,,,0,,,73,0
55760,note_on,0,0,1,,,,,,,,,0,,,76,100
55785,control_change,105,0,3,,,,,,,,,0,64,0,,
55800,note_on,40,0,1,,,,,,,,,0,,,76,0
55800,note_on,0,0,1,,,,,,,,,0,,,75,100
55800,control_change,15,0,3,,,,,,,,,0,64,127,,
55800,note_on,240,0,2,,,,,,,,,0,,,40,0
55800,note_on,0,0,2,,,,,,,,,0,,,32,110
55840,note_on,40,0,1,,,,,,,,,0,,,75,0
55840,note_on,0,0,1,,,,,,,,,0,,,78,100
55880,note_on,40,0,1,,,,,,,,,0,,,78,0
55880,note_on,0,0,1,,,,,,,,,0,,,80,100
55905,control_change,105,0,3,,,,,,,,,0,64,0,,
55920,note_on,0,0,1,,,,,,,,,0,,,75,100
55920,note_on,0,0,2,,,,,,,,,0,,,44,120
55920,note_on,40,0,1,,,,,,,,,0,,,80,0
55920,control_change,15,0,3,,,,,,,,,0,64,127,,
55920,note_on,120,0,2,,,,,,,,,0,,,44,0
55960,note_on,40,0,1,,,,,,,,,0,,,75,0
55960,note_on,0,0,1,,,,,,,,,0,,,78,101
56000,note_on,40,0,1,,,,,,,,,0,,,78,0
56000,note_on,0,0,1,,,,,,,,,0,,,82,101
56025,control_change,105,0,3,,,,,,,,,0,64,0,,
56040,note_on,40,0,1,,,,,,,,,0,,,82,0
56040,note_on,0,0,1,,,,,,,,,0,,,75,101
56040,control_change,15,0,3,,,,,,,,,0,64,127,,
56080,note_on,0,0,1,,,,,,,,,0,,,78,102
56080,note_on,40,0,1,,,,,,,,,0,,,75,0
56120,note_on,0,0,1,,,,,,,,,0,,,84,102
56120,note_on,40,0,1,,,,,,,,,0,,,78,0
56145,control_change,105,0,3,,,,,,,,,0,64,0,,
56160,note_on,0,0,2,,,,,,,,,0,,,37,112
56160,note_on,0,0,1,,,,,,,,,0,,,73,102
56160,note_on,240,0,2,,,,,,,,,0,,,32,0
56160,note_on,40,0,1,,,,,,,,,0,,,84,0
56160,control_change,15,0,3,,,,,,,,,0,64,127,,
56200,note_on,0,0,1,,,,,,,,,0,,,76,103
56200,note_on,40,0,1,,,,,,,,,0,,,73,0
56240,note_on,40,0,1,,,,,,,,,0,,,76,0
56240,note_on,0,0,1,,,,,,,,,0,,,85,103
56265,control_change,105,0,3,,,,,,,,,0,64,0,,
56280,note_on,0,0,2,,,,,,,,,0,,,44,123
56280,note_on,0,0,1,,,,,,,,,0,,,75,103
56280,note_on,40,0,1,,,,,,,,,0,,,85,0
56280,note_on,120,0,2,,,,,,,,,0,,,44,0
56280,control_change,15,0,3,,,,,,,,,0,64,127,,
56320,note_on,0,0,1,,,,,,,,,0,,,78,103
56320,note_on,40,0,1,,,,,,,,,0,,,75,0
56360,note_on,0,0,1,,,,,,,,,0,,,87,104
56360,note_on,40,0,1,,,,,,,,,0,,,78,0
56385,control_change,105,0,3,,,,,,,,,0,64,0,,
56400,control_change,15,0,3,,,,,,,,,0,64,127,,
56400,note_on,0,0,1,,,,,,,,,0,,,76,104
56400,note_on,40,0,1,,,,,,,,,0,,,87,0
56440,note_on,0,0,1,,,,,,,,,0,,,80,104
56440,note_on,40,0,1,,,,,,,,,0,,,76,0
56480,note_on,0,0,1,,,,,,,,,0,,,88,105
56480,note_on,40,0,1,,,,,,,,,0,,,80,0
56505,control_change,105,0,3,,,,,,,,,0,64,0,,
56520,note_on,0,0,1,,,,,,,,,0,,,78,105
56520,note_on,40,0,1,,,,,,,,,0,,,88,0
56520,control_change,15,0,3,,,,,,,,,0,64,127,,
56520,key_signature,7920,1,0,,,,,C,,,,,,,,
56520,note_on,240,0,2,,,,,,,,,0,,,44,0
56520,note_on,0,0,2,,,,,,,,,0,,,30,115
56520,note_on,0,0,2,,,,,,,,,0,,,37,0
56560,note_on,40,0,1,,,,,,,,,0,,,78,0
56560,note_on,0,0,1,,,,,,,,,0,,,81,105
56600,note_on,40,0,1,,,,,,,,,0,,,81,0
56600,note_on,0,0,1,,,,,,,,,0,,,90,106
56625,control_change,105,0,3,,,,,,,,,0,64,0,,
56640,note_on,0,0,1,,,,,,,,,0,,,80,106
56640,note_on,40,0,1,,,,,,,,,0,,,90,0
56640,note_on,120,0,2,,,,,,,,,0,,,42,126
56640,control_change,15,0,3,,,,,,,,,0,64,127,,
56680,note_on,0,0,1,,,,,,,,,0,,,83,106
56680,note_on,40,0,1,,,,,,,,,0,,,80,0
56720,note_on,40,0,1,,,,,,,,,0,,,83,0
56720,note_on,0,0,1,,,,,,,,,0,,,92,107
56745,control_change,105,0,3,,,,,,,,,0,64,0,,
56760,note_on,0,0,1,,,,,,,,,0,,,81,107
56760,control_change,15,0,3,,,,,,,,,0,64,127,,
56760,note_on,40,0,1,,,,,,,,,0,,,92,0
56800,note_on,0,0,1,,,,,,,,,0,,,85,107
56800,note_on,40,0,1,,,,,,,,,0,,,81,0
56840,note_on,0,0,1,,,,,,,,,0,,,93,107
56840,note_on,40,0,1,,,,,,,,,0,,,85,0
56865,control_change,105,0,3,,,,,,,,,0,64,0,,
56880,note_on,40,0,1,,,,,,,,,0,,,93,0
56880,note_on,0,0,1,,,,,,,,,0,,,80,108
56880,note_on,240,0,2,,,,,,,,,0,,,42,0
56880,control_change,15,0,3,,,,,,,,,0,64,127,,
56880,note_on,0,0,2,,,,,,,,,0,,,30,0
56880,note_on,0,0,2,,,,,,,,,0,,,40,118
56920,note_on,0,0,1,,,,,,,,,0,,,88,108
56920,note_on,40,0,1,,,,,,,,,0,,,80,0
56960,note_on,0,0,1,,,,,,,,,0,,,92,108
56960,note_on,40,0,1,,,,,,,,,0,,,88,0
56985,control_change,105,0,3,,,,,,,,,0,64,0,,
57000,note_on,40,0,1,,,,,,,,,0,,,92,0
57000,note_on,120,0,2,,,,,,,,,0,,,52,127
57000,control_change,15,0,3,,,,,,,,,0,64,127,,
57000,note_on,0,0,1,,,,,,,,,0,,,81,109
57040,note_on,40,0,1,,,,,,,,,0,,,81,0
57040,note_on,0,0,1,,,,,,,,,0,,,90,109
57080,note_on,0,0,1,,,,,,,,,0,,,93,109
57080,note_on,40,0,1,,,,,,,,,0,,,90,0
57105,control_change,105,0,3,,,,,,,,,0,64,0,,
57120,note_on,0,0,1,,,,,,,,,0,,,83,110
57120,note_on,40,0,1,,,,,,,,,0,,,93,0
57120,control_change,15,0,3,,,,,,,,,0,64,127,,
57160,note_on,0,0,1,,,,,,,,,0,,,91,110
57160,note_on,40,0,1,,,,,,,,,0,,,83,0
57200,note_on,40,0,1,,,,,,,,,0,,,91,0
57200,note_on,0,0,1,,,,,,,,,0,,,95,110
57225,control_change,105,0,3,,,,,,,,,0,64,0,,
57240,note_on,240,0,2,,,,,,,,,0,,,52,0
57240,note_on,0,0,2,,,,,,,,,0,,,40,0
57240,note_on,0,0,2,,,,,,,,,0,,,33,120
57240,note_on,40,0,1,,,,,,,,,0,,,95,0
57240,note_on,0,0,1,,,,,,,,,0,,,85,110
57240,note_on,0,0,2,,,,,,,,,0,,,40,120
57240,note_on,0,0,2,,,,,,,,,0,,,45,120
57270,note_on,0,0,2,,,,,,,,,0,,,33,0
57270,note_on,0,0,2,,,,,,,,,0,,,40,0
57270,note_on,30,0,2,,,,,,,,,0,,,45,0
57280,note_on,0,0,1,,,,,,,,,0,,,88,110
57280,note_on,40,0,1,,,,,,,,,0,,,85,0
57320,note_on,0,0,1,,,,,,,,,0,,,93,110
57320,note_on,40,0,1,,,,,,,,,0,,,88,0
57360,note_on,0,0,1,,,,,,,,,0,,,97,110
57360,note_on,90,0,2,,,,,,,,,0,,,33,127
57360,control_change,135,0,3,,,,,,,,,0,64,127,,
57360,note_on,40,0,1,,,,,,,,,0,,,93,0
57360,note_on,0,0,2,,,,,,,,,0,,,45,127
57360,note_on,0,0,2,,,,,,,,,0,,,40,127
57400,note_on,0,0,1,,,,,,,,,0,,,93,110
57400,note_on,40,0,1,,,,,,,,,0,,,97,0
57440,note_on,40,0,1,,,,,,,,,0,,,93,0
57440,note_on,0,0,1,,,,,,,,,0,,,88,110
57480,note_on,40,0,1,,,,,,,,,0,,,88,0
57480,note_on,0,0,1,,,,,,,,,0,,,93,110
57520,note_on,0,0,1,,,,,,,,,0,,,88,110
57520,note_on,40,0,1,,,,,,,,,0,,,93,0
57560,note_on,0,0,1,,,,,,,,,0,,,85,110
57560,note_on,40,0,1,,,,,,,,,0,,,88,0
57600,note_on,0,0,2,,,,,,,,,0,,,33,120
57600,note_on,0,0,2,,,,,,,,,0,,,33,0
57600,note_on,0,0,2,,,,,,,,,0,,,40,0
57600,note_on,240,0,2,,,,,,,,,0,,,45,0
57600,note_on,0,0,2,,,,,,,,,0,,,40,120
57600,note_on,40,0,1,,,,,,,,,0,,,85,0
57600,note_on,0,0,1,,,,,,,,,0,,,81,110
57600,note_on,0,0,2,,,,,,,,,0,,,45,120
57600,control_change,240,0,3,,,,,,,,,0,64,0,,
57630,note_on,30,0,2,,,,,,,,,0,,,45,0
57630,note_on,0,0,2,,,,,,,,,0,,,33,0
57630,note_on,0,0,2,,,,,,,,,0,,,40,0
57640,note_on,40,0,1,,,,,,,,,0,,,81,0
57640,note_on,0,0,1,,,,,,,,,0,,,85,110
57680,note_on,40,0,1,,,,,,,,,0,,,85,0
57680,note_on,0,0,1,,,,,,,,,0,,,88,110
57720,note_on,40,0,1,,,,,,,,,0,,,88,0
57720,note_on,0,0,1,,,,,,,,,0,,,93,110
57720,control_change,120,0,3,,,,,,,,,0,64,127,,
57720,note_on,0,0,2,,,,,,,,,0,,,40,127
57720,note_on,90,0,2,,,,,,,,,0,,,33,127
57720,note_on,0,0,2,,,,,,,,,0,,,45,127
57760,note_on,40,0,1,,,,,,,,,0,,,93,0
57760,note_on,0,0,1,,,,,,,,,0,,,88,110
57800,note_on,0,0,1,,,,,,,,,0,,,85,110
57800,note_on,40,0,1,,,,,,,,,0,,,88,0
57840,note_on,40,0,1,,,,,,,,,0,,,85,0
57840,note_on,0,0,1,,,,,,,,,0,,,88,110
57880,note_on,40,0,1,,,,,,,,,0,,,88,0
57880,note_on,0,0,1,,,,,,,,,0,,,85,110
57920,note_on,40,0,1,,,,,,,,,0,,,85,0
57920,note_on,0,0,1,,,,,,,,,0,,,81,110
57960,note_on,240,0,2,,,,,,,,,0,,,45,0
57960,note_on,0,0,2,,,,,,,,,0,,,40,0
57960,note_on,0,0,2,,,,,,,,,0,,,33,0
57960,note_on,0,0,2,,,,,,,,,0,,,33,120
57960,control_change,240,0,3,,,,,,,,,0,64,0,,
57960,note_on,0,0,2,,,,,,,,,0,,,40,120
57960,note_on,0,0,2,,,,,,,,,0,,,45,120
57960,note_on,40,0,1,,,,,,,,,0,,,81,0
57960,note_on,0,0,1,,,,,,,,,0,,,73,110
57990,note_on,0,0,2,,,,,,,,,0,,,33,0
57990,note_on,0,0,2,,,,,,,,,0,,,40,0
57990,note_on,30,0,2,,,,,,,,,0,,,45,0
58000,note_on,0,0,1,,,,,,,,,0,,,76,110
58000,note_on,40,0,1,,,,,,,,,0,,,73,0
58040,note_on,40,0,1,,,,,,,,,0,,,76,0
58040,note_on,0,0,1,,,,,,,,,0,,,81,110
58080,note_on,90,0,2,,,,,,,,,0,,,33,127
58080,note_on,0,0,2,,,,,,,,,0,,,45,127
58080,note_on,40,0,1,,,,,,,,,0,,,81,0
58080,note_on,0,0,1,,,,,,,,,0,,,85,110
58080,control_change,120,0,3,,,,,,,,,0,64,127,,
58080,note_on,0,0,2,,,,,,,,,0,,,40,127
58120,note_on,0,0,1,,,,,,,,,0,,,81,110
58120,note_on,40,0,1,,,,,,,,,0,,,85,0
58160,note_on,0,0,1,,,,,,,,,0,,,76,110
58160,note_on,40,0,1,,,,,,,,,0,,,81,0
58200,note_on,0,0,1,,,,,,,,,0,,,81,110
58200,note_on,40,0,1,,,,,,,,,0,,,76,0
58240,note_on,0,0,1,,,,,,,,,0,,,76,110
58240,note_on,40,0,1,,,,,,,,,0,,,81,0
58280,note_on,0,0,1,,,,,,,,,0,,,73,110
58280,note_on,40,0,1,,,,,,,,,0,,,76,0
58320,control_change,240,0,3,,,,,,,,,0,64,0,,
58320,note_on,40,0,1,,,,,,,,,0,,,73,0
58320,note_on,0,0,2,,,,,,,,,0,,,45,120
58320,note_on,0,0,2,,,,,,,,,0,,,40,0
58320,note_on,0,0,2,,,,,,,,,0,,,33,0
58320,note_on,0,0,2,,,,,,,,,0,,,33,120
58320,note_on,0,0,2,,,,,,,,,0,,,40,120
58320,note_on,240,0,2,,,,,,,,,0,,,45,0
58320,note_on,0,0,1,,,,,,,,,0,,,69,110
58350,note_on,0,0,2,,,,,,,,,0,,,40,0
58350,note_on,0,0,2,,,,,,,,,0,,,33,0
58350,note_on,30,0,2,,,,,,,,,0,,,45,0
58360,note_on,0,0,1,,,,,,,,,0,,,73,110
58360,note_on,40,0,1,,,,,,,,,0,,,69,0
58400,note_on,0,0,1,,,,,,,,,0,,,76,110
58400,note_on,40,0,1,,,,,,,,,0,,,73,0
58440,note_on,40,0,1,,,,,,,,,0,,,76,0
58440,note_on,0,0,1,,,,,,,,,0,,,81,110
58440,note_on,90,0,2,,,,,,,,,0,,,33,127
58440,control_change,120,0,3,,,,,,,,,0,64,127,,
58440,note_on,0,0,2,,,,,,,,,0,,,45,127
58440,note_on,0,0,2,,,,,,,,,0,,,40,127
58480,note_on,40,0,1,,,,,,,,,0,,,81,0
58480,note_on,0,0,1,,,,,,,,,0,,,76,110
58520,note_on,40,0,1,,,,,,,,,0,,,76,0
58520,note_on,0,0,1,,,,,,,,,0,,,73,110
58560,note_on,40,0,1,,,,,,,,,0,,,73,0
58560,note_on,0,0,1,,,,,,,,,0,,,76,110
58600,note_on,0,0,1,,,,,,,,,0,,,73,110
58600,note_on,40,0,1,,,,,,,,,0,,,76,0
58640,note_on,40,0,1,,,,,,,,,0,,,73,0
58640,note_on,0,0,1,,,,,,,,,0,,,69,110
58680,note_on,40,0,1,,,,,,,,,0,,,69,0
58680,note_on,0,0,1,,,,,,,,,0,,,76,110
58720,note_on,40,0,1,,,,,,,,,0,,,76,0
58720,note_on,0,0,1,,,,,,,,,0,,,73,108
58760,note_on,40,0,1,,,,,,,,,0,,,73,0
58760,note_on,0,0,1,,,,,,,,,0,,,69,105
58800,note_on,0,0,2,,,,,,,,,0,,,33,0
58800,note_on,0,0,2,,,,,,,,,0,,,45,112
58800,note_on,0,0,2,,,,,,,,,0,,,33,112
58800,note_on,40,0,1,,,,,,,,,0,,,69,0
58800,note_on,0,0,2,,,,,,,,,0,,,40,0
58800,note_on,0,0,2,,,,,,,,,0,,,40,112
58800,note_on,0,0,1,,,,,,,,,0,,,73,102
58800,note_on,360,0,2,,,,,,,,,0,,,45,0
58840,note_on,0,0,1,,,,,,,,,0,,,69,99
58840,note_on,40,0,1,,,,,,,,,0,,,73,0
58880,note_on,40,0,1,,,,,,,,,0,,,69,0
58880,note_on,0,0,1,,,,,,,,,0,,,64,96
58920,note_on,40,0,1,,,,,,,,,0,,,64,0
58920,note_on,0,0,1,,,,,,,,,0,,,69,93
58920,note_on,120,0,2,,,,,,,,,0,,,45,0
58920,note_on,0,0,2,,,,,,,,,0,,,40,0
58920,note_on,0,0,2,,,,,,,,,0,,,33,0
58920,note_on,0,0,2,,,,,,,,,0,,,33,103
58920,note_on,0,0,2,,,,,,,,,0,,,40,103
58920,note_on,0,0,2,,,,,,,,,0,,,45,103
58960,note_on,40,0,1,,,,,,,,,0,,,69,0
58960,note_on,0,0,1,,,,,,,,,0,,,64,91
59000,note_on,40,0,1,,,,,,,,,0,,,64,0
59000,note_on,0,0,1,,,,,,,,,0,,,61,88
59040,note_on,0,0,2,,,,,,,,,0,,,40,95
59040,note_on,0,0,2,,,,,,,,,0,,,45,95
59040,note_on,0,0,2,,,,,,,,,0,,,33,95
59040,note_on,0,0,2,,,,,,,,,0,,,33,0
59040,note_on,0,0,2,,,,,,,,,0,,,40,0
59040,note_on,120,0,2,,,,,,,,,0,,,45,0
59040,note_on,0,0,1,,,,,,,,,0,,,69,85
59040,note_on,40,0,1,,,,,,,,,0,,,61,0
59080,note_on,0,0,1,,,,,,,,,0,,,64,82
59080,note_on,40,0,1,,,,,,,,,0,,,69,0
59120,note_on,40,0,1,,,,,,,,,0,,,64,0
59120,note_on,0,0,1,,,,,,,,,0,,,61,79
59160,note_on,0,0,2,,,,,,,,,0,,,40,0
59160,note_on,0,0,2,,,,,,,,,0,,,40,86
59160,note_on,0,0,2,,,,,,,,,0,,,33,86
59160,note_on,0,0,2,,,,,,,,,0,,,33,0
59160,note_on,0,0,2,,,,,,,,,0,,,45,86
59160,note_on,120,0,2,,,,,,,,,0,,,45,0
59160,note_on,0,0,1,,,,,,,,,0,,,64,76
59160,note_on,40,0,1,,,,,,,,,0,,,61,0
59200,note_on,0,0,1,,,,,,,,,0,,,61,73
59200,note_on,40,0,1,,,,,,,,,0,,,64,0
59240,note_on,40,0,1,,,,,,,,,0,,,61,0
59240,note_on,0,0,1,,,,,,,,,0,,,57,71
59280,note_on,0,0,2,,,,,,,,,0,,,33,78
59280,note_on,120,0,2,,,,,,,,,0,,,45,0
59280,note_on,0,0,2,,,,,,,,,0,,,40,0
59280,note_on,0,0,2,,,,,,,,,0,,,33,0
59280,note_on,0,0,2,,,,,,,,,0,,,61,68
59280,note_on,0,0,2,,,,,,,,,0,,,40,78
59280,note_on,0,0,2,,,,,,,,,0,,,45,78
59280,note_on,40,0,1,,,,,,,,,0,,,57,0
59320,note_on,0,0,2,,,,,,,,,0,,,57,65
59320,note_on,40,0,2,,,,,,,,,0,,,61,0
59360,note_on,0,0,2,,,,,,,,,0,,,52,62
59360,note_on,40,0,2,,,,,,,,,0,,,57,0
59385,control_change,945,0,3,,,,,,,,,0,64,0,,
59400,note_on,0,0,2,,,,,,,,,0,,,33,0
59400,note_on,0,0,2,,,,,,,,,0,,,40,0
59400,control_change,15,0,3,,,,,,,,,0,64,127,,
59400,note_on,0,0,2,,,,,,,,,0,,,33,70
59400,note_on,0,0,2,,,,,,,,,0,,,49,60
59400,note_on,0,0,2,,,,,,,,,0,,,45,0
59400,note_on,40,0,2,,,,,,,,,0,,,52,0
59440,note_on,0,0,2,,,,,,,,,0,,,52,60
59440,note_on,40,0,2,,,,,,,,,0,,,49,0
59480,note_on,40,0,2,,,,,,,,,0,,,52,0
59480,note_on,0,0,2,,,,,,,,,0,,,57,60
59520,note_on,0,0,2,,,,,,,,,0,,,61,60
59520,note_on,40,0,2,,,,,,,,,0,,,57,0
59560,note_on,40,0,2,,,,,,,,,0,,,61,0
59560,note_on,0,0,2,,,,,,,,,0,,,57,60
59600,note_on,40,0,2,,,,,,,,,0,,,57,0
59600,note_on,0,0,2,,,,,,,,,0,,,52,60
59640,note_on,40,0,2,,,,,,,,,0,,,52,0
59640,note_on,0,0,2,,,,,,,,,0,,,49,60
59680,note_on,40,0,2,,,,,,,,,0,,,49,0
59680,note_on,0,0,2,,,,,,,,,0,,,52,60
59720,note_on,0,0,2,,,,,,,,,0,,,57,60
59720,note_on,40,0,2,,,,,,,,,0,,,52,0
59745,control_change,345,0,3,,,,,,,,,0,64,0,,
59760,note_on,40,0,2,,,,,,,,,0,,,57,0
59760,note_on,0,0,2,,,,,,,,,0,,,33,0
59760,note_on,0,0,2,,,,,,,,,0,,,49,60
59760,note_on,0,0,2,,,,,,,,,0,,,32,70
59790,note_on,0,0,2,,,,,,,,,0,,,30,70
59790,note_on,30,0,2,,,,,,,,,0,,,32,0
59800,note_on,0,0,2,,,,,,,,,0,,,54,60
59800,note_on,10,0,2,,,,,,,,,0,,,49,0
59820,note_on,0,0,2,,,,,,,,,0,,,32,70
59820,note_on,20,0,2,,,,,,,,,0,,,30,0
59840,note_on,0,0,2,,,,,,,,,0,,,30,70
59840,note_on,0,0,2,,,,,,,,,0,,,54,0
59840,note_on,20,0,2,,,,,,,,,0,,,32,0
59840,note_on,0,0,2,,,,,,,,,0,,,57,60
59860,note_on,0,0,2,,,,,,,,,0,,,32,70
59860,note_on,20,0,2,,,,,,,,,0,,,30,0
59880,note_on,0,0,2,,,,,,,,,0,,,30,70
59880,note_on,20,0,2,,,,,,,,,0,,,32,0
59880,note_on,0,0,2,,,,,,,,,0,,,57,0
59880,note_on,0,0,2,,,,,,,,,0,,,61,60
59900,note_on,0,0,2,,,,,,,,,0,,,32,70
59900,note_on,20,0,2,,,,,,,,,0,,,30,0
59920,note_on,0,0,2,,,,,,,,,0,,,30,70
59920,note_on,20,0,2,,,,,,,,,0,,,32,0
59920,note_on,0,0,2,,,,,,,,,0,,,61,0
59920,note_on,0,0,2,,,,,,,,,0,,,57,60
59940,note_on,20,0,2,,,,,,,,,0,,,30,0
59940,note_on,0,0,2,,,,,,,,,0,,,32,70
59960,note_on,20,0,2,,,,,,,,,0,,,32,0
59960,note_on,0,0,2,,,,,,,,,0,,,57,0
59960,note_on,0,0,2,,,,,,,,,0,,,54,60
59960,note_on,0,0,2,,,,,,,,,0,,,30,70
59980,note_on,0,0,2,,,,,,,,,0,,,32,70
59980,note_on,20,0,2,,,,,,,,,0,,,30,0
60000,note_on,0,0,2,,,,,,,,,0,,,49,60
60000,note_on,0,0,2,,,,,,,,,0,,,54,0
60000,note_on,20,0,2,,,,,,,,,0,,,32,0
60000,note_on,0,0,2,,,,,,,,,0,,,30,70
60020,note_on,0,0,2,,,,,,,,,0,,,32,70
60020,note_on,20,0,2,,,,,,,,,0,,,30,0
60040,note_on,0,0,2,,,,,,,,,0,,,49,0
60040,note_on,20,0,2,,,,,,,,,0,,,32,0
60040,note_on,0,0,2,,,,,,,,,0,,,54,60
60040,note_on,0,0,2,,,,,,,,,0,,,30,70
60060,note_on,20,0,2,,,,,,,,,0,,,30,0
60060,note_on,0,0,2,,,,,,,,,0,,,29,70
60080,note_on,0,0,2,,,,,,,,,0,,,57,60
60080,note_on,20,0,2,,,,,,,,,0,,,54,0
60090,note_on,10,0,2,,,,,,,,,0,,,29,0
60090,note_on,0,0,2,,,,,,,,,0,,,30,70
60120,control_change,375,0,3,,,,,,,,,0,64,127,,
60120,key_signature,3600,1,0,,,,,Db,,,,,,,,
60120,note_on,30,0,2,,,,,,,,,0,,,30,0
60120,note_on,0,0,2,,,,,,,,,0,,,57,0
60120,note_on,0,0,2,,,,,,,,,0,,,49,60
60120,note_on,0,0,2,,,,,,,,,0,,,32,70
60160,note_on,40,0,2,,,,,,,,,0,,,49,0
60160,note_on,0,0,2,,,,,,,,,0,,,53,60
60200,note_on,40,0,2,,,,,,,,,0,,,53,0
60200,note_on,0,0,2,,,,,,,,,0,,,56,60
60240,note_on,0,0,2,,,,,,,,,0,,,61,60
60240,note_on,40,0,2,,,,,,,,,0,,,56,0
60280,note_on,40,0,2,,,,,,,,,0,,,61,0
60280,note_on,0,0,2,,,,,,,,,0,,,56,60
60320,note_on,40,0,2,,,,,,,,,0,,,56,0
60320,note_on,0,0,2,,,,,,,,,0,,,53,60
60360,note_on,40,0,2,,,,,,,,,0,,,53,0
60360,note_on,0,0,2,,,,,,,,,0,,,49,60
60400,note_on,0,0,2,,,,,,,,,0,,,53,60
60400,note_on,40,0,2,,,,,,,,,0,,,49,0
60440,note_on,40,0,2,,,,,,,,,0,,,53,0
60440,note_on,0,0,2,,,,,,,,,0,,,56,60
60465,control_change,345,0,3,,,,,,,,,0,64,0,,
60480,note_on,40,0,2,,,,,,,,,0,,,56,0
60480,control_change,15,0,3,,,,,,,,,0,64,127,,
60480,note_on,0,0,2,,,,,,,,,0,,,51,60
60520,note_on,0,0,2,,,,,,,,,0,,,54,60
60520,note_on,40,0,2,,,,,,,,,0,,,51,0
60560,note_on,40,0,2,,,,,,,,,0,,,54,0
60560,note_on,0,0,2,,,,,,,,,0,,,56,60
60600,note_on,40,0,2,,,,,,,,,0,,,56,0
60600,note_on,0,0,2,,,,,,,,,0,,,60,60
60640,note_on,40,0,2,,,,,,,,,0,,,60,0
60640,note_on,0,0,2,,,,,,,,,0,,,56,60
60680,note_on,40,0,2,,,,,,,,,0,,,56,0
60680,note_on,0,0,2,,,,,,,,,0,,,54,60
60720,note_on,40,0,2,,,,,,,,,0,,,54,0
60720,note_on,0,0,2,,,,,,,,,0,,,51,60
60760,note_on,0,0,2,,,,,,,,,0,,,54,60
60760,note_on,40,0,2,,,,,,,,,0,,,51,0
60800,note_on,40,0,2,,,,,,,,,0,,,54,0
60800,note_on,0,0,2,,,,,,,,,0,,,56,60
60825,control_change,345,0,3,,,,,,,,,0,64,0,,
60840,control_change,15,0,3,,,,,,,,,0,64,127,,
60840,note_on,40,0,2,,,,,,,,,0,,,56,0
60840,note_on,0,0,2,,,,,,,,,0,,,32,0
60840,note_on,0,0,2,,,,,,,,,0,,,53,60
60840,note_on,0,0,2,,,,,,,,,0,,,37,70
60880,note_on,40,0,2,,,,,,,,,0,,,53,0
60880,note_on,0,0,2,,,,,,,,,0,,,56,60
60920,note_on,40,0,2,,,,,,,,,0,,,56,0
60920,note_on,0,0,2,,,,,,,,,0,,,61,60
60945,control_change,105,0,3,,,,,,,,,0,64,0,,
60960,note_on,40,0,2,,,,,,,,,0,,,61,0
60960,note_on,0,0,2,,,,,,,,,0,,,65,60
60960,note_on,0,0,2,,,,,,,,,0,,,44,80
60960,control_change,15,0,3,,,,,,,,,0,64,127,,
61000,note_on,40,0,2,,,,,,,,,0,,,65,0
61000,note_on,0,0,2,,,,,,,,,0,,,61,60
61040,note_on,40,0,2,,,,,,,,,0,,,61,0
61040,note_on,0,0,2,,,,,,,,,0,,,56,60
61065,control_change,105,0,3,,,,,,,,,0,64,0,,
61080,control_change,15,0,3,,,,,,,,,0,64,127,,
61080,note_on,40,0,2,,,,,,,,,0,,,56,0
61080,note_on,0,0,2,,,,,,,,,0,,,53,60
61120,note_on,0,0,2,,,,,,,,,0,,,56,60
61120,note_on,40,0,2,,,,,,,,,0,,,53,0
61160,note_on,40,0,2,,,,,,,,,0,,,56,0
61160,note_on,1880,0,1,,,,,,,,,0,,,61,60
61185,control_change,105,0,3,,,,,,,,,0,64,0,,
61200,note_on,0,0,2,,,,,,,,,0,,,41,70
61200,note_on,40,0,1,,,,,,,,,0,,,61,0
61200,note_on,0,0,1,,,,,,,,,0,,,56,60
61200,note_on,40,0,2,,,,,,,,,0,,,37,0
61200,control_change,15,0,3,,,,,,,,,0,64,127,,
61240,note_on,40,0,1,,,,,,,,,0,,,56,0
61240,note_on,0,0,1,,,,,,,,,0,,,61,60
61280,note_on,0,0,1,,,,,,,,,0,,,65,60
61280,note_on,40,0,1,,,,,,,,,0,,,61,0
61305,control_change,105,0,3,,,,,,,,,0,64,0,,
61320,control_change,15,0,3,,,,,,,,,0,64,127,,
61320,note_on,120,0,2,,,,,,,,,0,,,44,0
61320,note_on,0,0,2,,,,,,,,,0,,,44,80
61320,note_on,0,0,1,,,,,,,,,0,,,68,60
61320,note_on,40,0,1,,,,,,,,,0,,,65,0
61360,note_on,0,0,1,,,,,,,,,0,,,65,60
61360,note_on,40,0,1,,,,,,,,,0,,,68,0
61400,note_on,0,0,1,,,,,,,,,0,,,61,60
61400,note_on,40,0,1,,,,,,,,,0,,,65,0
61425,control_change,105,0,3,,,,,,,,,0,64,0,,
61440,control_change,15,0,3,,,,,,,,,0,64,127,,
61440,note_on,40,0,1,,,,,,,,,0,,,61,0
61440,note_on,0,0,1,,,,,,,,,0,,,56,60
61480,note_on,40,0,1,,,,,,,,,0,,,56,0
61480,note_on,0,0,1,,,,,,,,,0,,,61,60
61520,note_on,40,0,1,,,,,,,,,0,,,61,0
61520,note_on,0,0,1,,,,,,,,,0,,,65,60
61545,control_change,105,0,3,,,,,,,,,0,64,0,,
61560,note_on,40,0,1,,,,,,,,,0,,,65,0
61560,note_on,0,0,1,,,,,,,,,0,,,62,60
61560,control_change,15,0,3,,,,,,,,,0,64,127,,
61560,note_on,0,0,2,,,,,,,,,0,,,36,70
61560,note_on,240,0,2,,,,,,,,,0,,,41,0
61600,note_on,40,0,1,,,,,,,,,0,,,62,0
61600,note_on,0,0,1,,,,,,,,,0,,,65,60
61640,note_on,40,0,1,,,,,,,,,0,,,65,0
61640,note_on,0,0,1,,,,,,,,,0,,,68,60
61665,control_change,105,0,3,,,,,,,,,0,64,0,,
61680,note_on,120,0,2,,,,,,,,,0,,,44,0
61680,control_change,15,0,3,,,,,,,,,0,64,127,,
61680,note_on,0,0,2,,,,,,,,,0,,,44,80
61680,note_on,0,0,1,,,,,,,,,0,,,63,60
61680,note_on,40,0,1,,,,,,,,,0,,,68,0
61720,note_on,0,0,1,,,,,,,,,0,,,66,60
61720,note_on,40,0,1,,,,,,,,,0,,,63,0
61760,note_on,40,0,1,,,,,,,,,0,,,66,0
61760,note_on,0,0,1,,,,,,,,,0,,,68,60
61785,control_change,105,0,3,,,,,,,,,0,64,0,,
61800,note_on,40,0,1,,,,,,,,,0,,,68,0
61800,note_on,0,0,1,,,,,,,,,0,,,63,60
61800,control_change,15,0,3,,,,,,,,,0,64,127,,
61840,note_on,40,0,1,,,,,,,,,0,,,63,0
61840,note_on,0,0,1,,,,,,,,,0,,,66,60
61880,note_on,40,0,1,,,,,,,,,0,,,66,0
61880,note_on,0,0,1,,,,,,,,,0,,,69,60
61905,control_change,105,0,3,,,,,,,,,0,64,0,,
61920,note_on,0,0,2,,,,,,,,,0,,,32,70
61920,note_on,240,0,2,,,,,,,,,0,,,36,0
61920,note_on,0,0,1,,,,,,,,,0,,,60,60
61920,note_on,40,0,1,,,,,,,,,0,,,69,0
61920,control_change,15,0,3,,,,,,,,,0,64,127,,
61960,note_on,0,0,1,,,,,,,,,0,,,66,60
61960,note_on,40,0,1,,,,,,,,,0,,,60,0
62000,note_on,0,0,1,,,,,,,,,0,,,70,61
62000,note_on,40,0,1,,,,,,,,,0,,,66,0
62025,control_change,105,0,3,,,,,,,,,0,64,0,,
62040,note_on,120,0,2,,,,,,,,,0,,,44,0
62040,note_on,0,0,2,,,,,,,,,0,,,44,81
62040,note_on,0,0,1,,,,,,,,,0,,,60,61
62040,note_on,40,0,1,,,,,,,,,0,,,70,0
62040,control_change,15,0,3,,,,,,,,,0,64,127,,
62080,note_on,0,0,1,,,,,,,,,0,,,65,62
62080,note_on,40,0,1,,,,,,,,,0,,,60,0
62120,note_on,0,0,1,,,,,,,,,0,,,68,62
62120,note_on,40,0,1,,,,,,,,,0,,,65,0
62145,control_change,105,0,3,,,,,,,,,0,64,0,,
62160,note_on,0,0,1,,,,,,,,,0,,,60,63
62160,note_on,40,0,1,,,,,,,,,0,,,68,0
62160,control_change,15,0,3,,,,,,,,,0,64,127,,
62200,note_on,0,0,1,,,,,,,,,0,,,63,64
62200,note_on,40,0,1,,,,,,,,,0,,,60,0
62240,note_on,0,0,1,,,,,,,,,0,,,66,64
62240,note_on,40,0,1,,,,,,,,,0,,,63,0
62265,control_change,105,0,3,,,,,,,,,0,64,0,,
62280,note_on,0,0,2,,,,,,,,,0,,,37,75
62280,note_on,0,0,1,,,,,,,,,0,,,65,65
62280,note_on,40,0,1,,,,,,,,,0,,,66,0
62280,note_on,240,0,2,,,,,,,,,0,,,32,0
62280,control_change,15,0,3,,,,,,,,,0,64,127,,
62320,note_on,0,0,1,,,,,,,,,0,,,68,65
62320,note_on,40,0,1,,,,,,,,,0,,,65,0
62360,note_on,40,0,1,,,,,,,,,0,,,68,0
62360,note_on,0,0,1,,,,,,,,,0,,,73,66
62385,control_change,105,0,3,,,,,,,,,0,64,0,,
62400,control_change,15,0,3,,,,,,,,,0,64,127,,
62400,note_on,120,0,2,,,,,,,,,0,,,44,0
62400,note_on,40,0,1,,,,,,,,,0,,,73,0
62400,note_on,0,0,1,,,,,,,,,0,,,77,67
62400,note_on,0,0,2,,,,,,,,,0,,,44,87
62440,note_on,40,0,1,,,,,,,,,0,,,77,0
62440,note_on,0,0,1,,,,,,,,,0,,,73,67
62480,note_on,0,0,1,,,,,,,,,0,,,68,68
62480,note_on,40,0,1,,,,,,,,,0,,,73,0
62505,control_change,105,0,3,,,,,,,,,0,64,0,,
62520,note_on,40,0,1,,,,,,,,,0,,,68,0
62520,note_on,0,0,1,,,,,,,,,0,,,65,68
62520,control_change,15,0,3,,,,,,,,,0,64,127,,
62560,note_on,40,0,1,,,,,,,,,0,,,65,0
62560,note_on,0,0,1,,,,,,,,,0,,,68,69
62600,note_on,40,0,1,,,,,,,,,0,,,68,0
62600,note_on,0,0,1,,,,,,,,,0,,,73,69
62625,control_change,105,0,3,,,,,,,,,0,64,0,,
62640,note_on,240,0,2,,,,,,,,,0,,,37,0
62640,control_change,15,0,3,,,,,,,,,0,64,127,,
62640,note_on,0,0,2,,,,,,,,,0,,,41,80
62640,note_on,0,0,1,,,,,,,,,0,,,68,70
62640,note_on,40,0,1,,,,,,,,,0,,,73,0
62680,note_on,0,0,1,,,,,,,,,0,,,73,71
62680,note_on,40,0,1,,,,,,,,,0,,,68,0
62720,note_on,40,0,1,,,,,,,,,0,,,73,0
62720,note_on,0,0,1,,,,,,,,,0,,,77,71
62745,control_change,105,0,3,,,,,,,,,0,64,0,,
62760,note_on,0,0,1,,,,,,,,,0,,,80,72
62760,note_on,120,0,2,,,,,,,,,0,,,44,0
62760,note_on,40,0,1,,,,,,,,,0,,,77,0
62760,control_change,15,0,3,,,,,,,,,0,64,127,,
62760,note_on,0,0,2,,,,,,,,,0,,,44,92
62800,note_on,0,0,1,,,,,,,,,0,,,77,72
62800,note_on,40,0,1,,,,,,,,,0,,,80,0
62840,note_on,0,0,1,,,,,,,,,0,,,73,73
62840,note_on,40,0,1,,,,,,,,,0,,,77,0
62865,control_change,105,0,3,,,,,,,,,0,64,0,,
62880,note_on,40,0,1,,,,,,,,,0,,,73,0
62880,note_on,0,0,1,,,,,,,,,0,,,68,74
62880,control_change,15,0,3,,,,,,,,,0,64,127,,
62920,note_on,40,0,1,,,,,,,,,0,,,68,0
62920,note_on,0,0,1,,,,,,,,,0,,,73,74
62960,note_on,40,0,1,,,,,,,,,0,,,73,0
62960,note_on,0,0,1,,,,,,,,,0,,,77,75
62985,control_change,105,0,3,,,,,,,,,0,64,0,,
63000,note_on,0,0,2,,,,,,,,,0,,,36,85
63000,control_change,15,0,3,,,,,,,,,0,64,127,,
63000,note_on,0,0,1,,,,,,,,,0,,,73,75
63000,note_on,240,0,2,,,,,,,,,0,,,41,0
63000,note_on,40,0,1,,,,,,,,,0,,,77,0
63040,note_on,0,0,1,,,,,,,,,0,,,77,76
63040,note_on,40,0,1,,,,,,,,,0,,,73,0
63080,note_on,0,0,1,,,,,,,,,0,,,80,77
63080,note_on,40,0,1,,,,,,,,,0,,,77,0
63105,control_change,105,0,3,,,,,,,,,0,64,0,,
63120,control_change,15,0,3,,,,,,,,,0,64,127,,
63120,note_on,40,0,1,,,,,,,,,0,,,80,0
63120,note_on,0,0,1,,,,,,,,,0,,,75,77
63120,note_on,120,0,2,,,,,,,,,0,,,44,0
63120,note_on,0,0,2,,,,,,,,,0,,,44,97
63160,note_on,40,0,1,,,,,,,,,0,,,75,0
63160,note_on,0,0,1,,,,,,,,,0,,,78,78
63200,note_on,40,0,1,,,,,,,,,0,,,78,0
63200,note_on,0,0,1,,,,,,,,,0,,,80,78
63225,control_change,105,0,3,,,,,,,,,0,64,0,,
63240,control_change,15,0,3,,,,,,,,,0,64,127,,
63240,note_on,40,0,1,,,,,,,,,0,,,80,0
63240,note_on,0,0,1,,,,,,,,,0,,,75,79
63280,note_on,40,0,1,,,,,,,,,0,,,75,0
63280,note_on,0,0,1,,,,,,,,,0,,,78,79
63320,note_on,40,0,1,,,,,,,,,0,,,78,0
63320,note_on,0,0,1,,,,,,,,,0,,,81,80
63345,control_change,105,0,3,,,,,,,,,0,64,0,,
63360,control_change,15,0,3,,,,,,,,,0,64,127,,
63360,note_on,40,0,1,,,,,,,,,0,,,81,0
63360,note_on,0,0,2,,,,,,,,,0,,,32,90
63360,note_on,240,0,2,,,,,,,,,0,,,36,0
63360,note_on,0,0,1,,,,,,,,,0,,,72,80
63400,note_on,0,0,1,,,,,,,,,0,,,78,79
63400,note_on,40,0,1,,,,,,,,,0,,,72,0
63440,note_on,40,0,1,,,,,,,,,0,,,78,0
63440,note_on,0,0,1,,,,,,,,,0,,,82,77
63465,control_change,105,0,3,,,,,,,,,0,64,0,,
63480,note_on,0,0,2,,,,,,,,,0,,,44,96
63480,note_on,120,0,2,,,,,,,,,0,,,44,0
63480,note_on,40,0,1,,,,,,,,,0,,,82,0
63480,note_on,0,0,1,,,,,,,,,0,,,72,76
63480,control_change,15,0,3,,,,,,,,,0,64,127,,
63520,note_on,40,0,1,,,,,,,,,0,,,72,0
63520,note_on,0,0,1,,,,,,,,,0,,,77,74
63560,note_on,40,0,1,,,,,,,,,0,,,77,0
63560,note_on,0,0,1,,,,,,,,,0,,,80,73
63585,control_change,105,0,3,,,,,,,,,0,64,0,,
63600,control_change,15,0,3,,,,,,,,,0,64,127,,
63600,note_on,40,0,1,,,,,,,,,0,,,80,0
63600,note_on,0,0,1,,,,,,,,,0,,,72,71
63640,note_on,40,0,1,,,,,,,,,0,,,72,0
63640,note_on,0,0,1,,,,,,,,,0,,,75,70
63680,note_on,40,0,1,,,,,,,,,0,,,75,0
63680,note_on,0,0,1,,,,,,,,,0,,,78,68
63705,control_change,105,0,3,,,,,,,,,0,64,0,,
63720,note_on,0,0,1,,,,,,,,,0,,,72,67
63720,control_change,15,0,3,,,,,,,,,0,64,127,,
63720,note_on,240,0,2,,,,,,,,,0,,,44,0
63720,note_on,0,0,2,,,,,,,,,0,,,32,0
63720,note_on,0,0,2,,,,,,,,,0,,,34,77
63720,note_on,40,0,1,,,,,,,,,0,,,78,0
63760,note_on,0,0,1,,,,,,,,,0,,,75,65
63760,note_on,40,0,1,,,,,,,,,0,,,72,0
63800,note_on,40,0,1,,,,,,,,,0,,,75,0
63800,note_on,0,0,1,,,,,,,,,0,,,77,64
63825,control_change,105,0,3,,,,,,,,,0,64,0,,
63840,note_on,40,0,1,,,,,,,,,0,,,77,0
63840,note_on,0,0,1,,,,,,,,,0,,,70,62
63840,note_on,120,0,2,,,,,,,,,0,,,46,72
63840,control_change,15,0,3,,,,,,,,,0,64,127,,
63880,note_on,40,0,1,,,,,,,,,0,,,70,0
63880,note_on,0,0,1,,,,,,,,,0,,,73,61
63920,note_on,40,0,1,,,,,,,,,0,,,73,0
63920,note_on,0,0,1,,,,,,,,,0,,,77,59
63945,control_change,105,0,3,,,,,,,,,0,64,0,,
63960,note_on,0,0,1,,,,,,,,,0,,,68,57
63960,control_change,15,0,3,,,,,,,,,0,64,127,,
63960,note_on,40,0,1,,,,,,,,,0,,,77,0
64000,note_on,0,0,1,,,,,,,,,0,,,72,56
64000,note_on,40,0,1,,,,,,,,,0,,,68,0
64040,note_on,0,0,1,,,,,,,,,0,,,77,54
64040,note_on,40,0,1,,,,,,,,,0,,,72,0
64065,control_change,105,0,3,,,,,,,,,0,64,0,,
64080,note_on,0,0,2,,,,,,,,,0,,,39,63
64080,note_on,0,0,1,,,,,,,,,0,,,68,53
64080,note_on,40,0,1,,,,,,,,,0,,,77,0
64080,note_on,0,0,2,,,,,,,,,0,,,34,0
64080,control_change,15,0,3,,,,,,,,,0,64,127,,
64080,note_on,240,0,2,,,,,,,,,0,,,46,0
64120,note_on,0,0,1,,,,,,,,,0,,,70,51
64120,note_on,40,0,1,,,,,,,,,0,,,68,0
64160,note_on,0,0,1,,,,,,,,,0,,,77,50
64160,note_on,40,0,1,,,,,,,,,0,,,70,0
64185,control_change,105,0,3,,,,,,,,,0,64,0,,
64200,control_change,15,0,3,,,,,,,,,0,64,127,,
64200,note_on,120,0,2,,,,,,,,,0,,,51,58
64200,note_on,40,0,1,,,,,,,,,0,,,77,0
64200,note_on,0,0,1,,,,,,,,,0,,,66,48
64240,note_on,40,0,1,,,,,,,,,0,,,66,0
64240,note_on,0,0,1,,,,,,,,,0,,,70,47
64280,note_on,0,0,1,,,,,,,,,0,,,75,45
64280,note_on,40,0,1,,,,,,,,,0,,,70,0
64305,control_change,105,0,3,,,,,,,,,0,64,0,,
64320,control_change,15,0,3,,,,,,,,,0,64,127,,
64320,note_on,120,0,2,,,,,,,,,0,,,51,0
64320,note_on,0,0,2,,,,,,,,,0,,,39,0
64320,note_on,0,0,2,,,,,,,,,0,,,42,54
64320,note_on,0,0,2,,,,,,,,,0,,,54,54
64320,note_on,0,0,1,,,,,,,,,0,,,65,44
64320,note_on,40,0,1,,,,,,,,,0,,,75,0
64360,note_on,40,0,1,,,,,,,,,0,,,65,0
64360,note_on,0,0,1,,,,,,,,,0,,,70,42
64400,note_on,40,0,1,,,,,,,,,0,,,70,0
64400,note_on,0,0,1,,,,,,,,,0,,,73,41
64425,control_change,105,0,3,,,,,,,,,0,64,0,,
64440,note_on,0,0,2,,,,,,,,,0,,,44,50
64440,note_on,0,0,2,,,,,,,,,0,,,42,0
64440,control_change,15,0,3,,,,,,,,,0,64,127,,
64440,note_on,120,0,2,,,,,,,,,0,,,54,0
64440,note_on,40,0,1,,,,,,,,,0,,,73,0
64440,note_on,0,0,1,,,,,,,,,0,,,63,40
64480,note_on,0,0,1,,,,,,,,,0,,,68,40
64480,note_on,40,0,1,,,,,,,,,0,,,63,0
64520,note_on,40,0,1,,,,,,,,,0,,,68,0
64520,note_on,0,0,1,,,,,,,,,0,,,72,40
64545,control_change,105,0,3,,,,,,,,,0,64,0,,
64560,control_change,15,0,3,,,,,,,,,0,64,127,,
64560,note_on,120,0,2,,,,,,,,,0,,,56,50
64560,note_on,40,0,1,,,,,,,,,0,,,72,0
64560,note_on,0,0,1,,,,,,,,,0,,,65,40
64600,note_on,0,0,1,,,,,,,,,0,,,68,40
64600,note_on,40,0,1,,,,,,,,,0,,,65,0
64640,note_on,0,0,1,,,,,,,,,0,,,73,40
64640,note_on,40,0,1,,,,,,,,,0,,,68,0
64665,control_change,105,0,3,,,,,,,,,0,64,0,,
64680,note_on,40,0,1,,,,,,,,,0,,,73,0
64680,note_on,0,0,1,,,,,,,,,0,,,66,40
64680,control_change,15,0,3,,,,,,,,,0,64,127,,
64720,note_on,40,0,1,,,,,,,,,0,,,66,0
64720,note_on,0,0,1,,,,,,,,,0,,,68,40
64760,note_on,40,0,1,,,,,,,,,0,,,68,0
64760,note_on,0,0,1,,,,,,,,,0,,,75,40
64785,control_change,105,0,3,,,,,,,,,0,64,0,,
64800,note_on,40,0,1,,,,,,,,,0,,,75,0
64800,note_on,0,0,2,,,,,,,,,0,,,49,50
64800,note_on,240,0,2,,,,,,,,,0,,,44,0
64800,control_change,15,0,3,,,,,,,,,0,64,127,,
64800,note_on,0,0,1,,,,,,,,,0,,,65,40
64840,note_on,40,0,1,,,,,,,,,0,,,65,0
64840,note_on,0,0,1,,,,,,,,,0,,,68,40
64880,note_on,40,0,1,,,,,,,,,0,,,68,0
64880,note_on,0,0,1,,,,,,,,,0,,,73,40
64905,control_change,105,0,3,,,,,,,,,0,64,0,,
64920,control_change,15,0,3,,,,,,,,,0,64,127,,
64920,note_on,40,0,1,,,,,,,,,0,,,73,0
64920,note_on,0,0,1,,,,,,,,,0,,,68,40
64960,note_on,40,0,1,,,,,,,,,0,,,68,0
64960,note_on,0,0,1,,,,,,,,,0,,,65,40
65000,note_on,40,0,1,,,,,,,,,0,,,65,0
65000,note_on,0,0,1,,,,,,,,,0,,,61,40
65025,control_change,105,0,3,,,,,,,,,0,64,0,,
65040,note_on,240,0,2,,,,,,,,,0,,,49,0
65040,control_change,15,0,3,,,,,,,,,0,64,127,,
65040,note_on,40,0,1,,,,,,,,,0,,,61,0
65040,note_on,0,0,2,,,,,,,,,0,,,56,0
65040,note_on,0,0,1,,,,,,,,,0,,,65,40
65080,note_on,40,0,1,,,,,,,,,0,,,65,0
65080,note_on,0,0,1,,,,,,,,,0,,,61,40
65120,note_on,40,0,1,,,,,,,,,0,,,61,0
65120,note_on,80,0,2,,,,,,,,,0,,,56,40
65145,control_change,105,0,3,,,,,,,,,0,64,0,,
65160,control_change,15,0,3,,,,,,,,,0,64,127,,
65160,marker,5040,1,0,,,,,,,,,,,,,
65160,note_on,40,0,2,,,,,,,,,0,,,56,0
65160,note_on,0,0,2,,,,,,,,,0,,,53,40
65160,note_on,0,0,2,,,,,,,,,0,,,49,50
65160,note_on,0,0,2,,,,,,,,,0,,,44,50
65160,note_on,0,0,2,,,,,,,,,0,,,37,50
65200,note_on,0,0,2,,,,,,,,,0,,,56,40
65200,note_on,40,0,2,,,,,,,,,0,,,53,0
65240,note_on,0,0,2,,,,,,,,,0,,,61,40
65240,note_on,40,0,2,,,,,,,,,0,,,56,0
65280,note_on,0,0,2,,,,,,,,,0,,,65,40
65280,note_on,40,0,2,,,,,,,,,0,,,61,0
65320,note_on,0,0,2,,,,,,,,,0,,,61,40
65320,note_on,40,0,2,,,,,,,,,0,,,65,0
65360,note_on,0,0,2,,,,,,,,,0,,,56,40
65360,note_on,40,0,2,,,,,,,,,0,,,61,0
65400,note_on,40,0,2,,,,,,,,,0,,,56,0
65400,note_on,0,0,2,,,,,,,,,0,,,53,40
65440,note_on,40,0,2,,,,,,,,,0,,,53,0
65440,note_on,0,0,2,,,,,,,,,0,,,56,40
65480,note_on,40,0,2,,,,,,,,,0,,,56,0
65480,note_on,0,0,2,,,,,,,,,0,,,61,40
65520,note_on,40,0,2,,,,,,,,,0,,,61,0
65520,note_on,0,0,2,,,,,,,,,0,,,53,40
65560,note_on,40,0,2,,,,,,,,,0,,,53,0
65560,note_on,0,0,2,,,,,,,,,0,,,56,40
65600,note_on,40,0,2,,,,,,,,,0,,,56,0
65600,note_on,0,0,2,,,,,,,,,0,,,61,40
65640,note_on,0,0,2,,,,,,,,,0,,,65,40
65640,note_on,40,0,2,,,,,,,,,0,,,61,0
65680,note_on,40,0,2,,,,,,,,,0,,,65,0
65680,note_on,0,0,2,,,,,,,,,0,,,61,40
65720,note_on,0,0,2,,,,,,,,,0,,,56,40
65720,note_on,40,0,2,,,,,,,,,0,,,61,0
65760,note_on,0,0,2,,,,,,,,,0,,,53,40
65760,note_on,40,0,2,,,,,,,,,0,,,56,0
65800,note_on,0,0,2,,,,,,,,,0,,,56,40
65800,note_on,40,0,2,,,,,,,,,0,,,53,0
65840,note_on,0,0,2,,,,,,,,,0,,,61,40
65840,note_on,40,0,2,,,,,,,,,0,,,56,0
65865,control_change,705,0,3,,,,,,,,,0,64,0,,
65880,control_change,15,0,3,,,,,,,,,0,64,127,,
65880,note_on,0,0,2,,,,,,,,,0,,,49,50
65880,note_on,0,0,2,,,,,,,,,0,,,37,50
65880,note_on,0,0,2,,,,,,,,,0,,,52,40
65880,note_on,0,0,2,,,,,,,,,0,,,37,0
65880,note_on,0,0,2,,,,,,,,,0,,,44,0
65880,note_on,0,0,2,,,,,,,,,0,,,49,0
65880,note_on,40,0,2,,,,,,,,,0,,,61,0
65920,note_on,0,0,2,,,,,,,,,0,,,56,40
65920,note_on,40,0,2,,,,,,,,,0,,,52,0
65960,note_on,40,0,2,,,,,,,,,0,,,56,0
65960,note_on,0,0,2,,,,,,,,,0,,,61,40
66000,note_on,40,0,2,,,,,,,,,0,,,61,0
66000,note_on,0,0,2,,,,,,,,,0,,,64,40
66040,note_on,40,0,2,,,,,,,,,0,,,64,0
66040,note_on,0,0,2,,,,,,,,,0,,,61,40
66080,note_on,40,0,2,,,,,,,,,0,,,61,0
66080,note_on,0,0,2,,,,,,,,,0,,,56,40
66120,note_on,0,0,2,,,,,,,,,0,,,52,40
66120,note_on,40,0,2,,,,,,,,,0,,,56,0
66160,note_on,40,0,2,,,,,,,,,0,,,52,0
66160,note_on,0,0,2,,,,,,,,,0,,,56,40
66200,note_on,40,0,2,,,,,,,,,0,,,56,0
66200,note_on,0,0,2,,,,,,,,,0,,,61,40
66225,control_change,345,0,3,,,,,,,,,0,64,0,,
66240,note_on,40,0,2,,,,,,,,,0,,,61,0
66240,note_on,0,0,2,,,,,,,,,0,,,37,0
66240,note_on,0,0,2,,,,,,,,,0,,,52,40
66240,note_on,0,0,2,,,,,,,,,0,,,34,50
66240,note_on,0,0,2,,,,,,,,,0,,,46,50
66240,note_on,0,0,2,,,,,,,,,0,,,49,0
66240,control_change,15,0,3,,,,,,,,,0,64,127,,
66280,note_on,40,0,2,,,,,,,,,0,,,52,0
66280,note_on,0,0,2,,,,,,,,,0,,,58,40
66320,note_on,40,0,2,,,,,,,,,0,,,58,0
66320,note_on,0,0,2,,,,,,,,,0,,,61,40
66360,note_on,40,0,2,,,,,,,,,0,,,61,0
66360,note_on,0,0,2,,,,,,,,,0,,,64,40
66400,note_on,0,0,2,,,,,,,,,0,,,61,40
66400,note_on,40,0,2,,,,,,,,,0,,,64,0
66440,note_on,40,0,2,,,,,,,,,0,,,61,0
66440,note_on,0,0,2,,,,,,,,,0,,,58,40
66480,note_on,0,0,2,,,,,,,,,0,,,52,40
66480,note_on,40,0,2,,,,,,,,,0,,,58,0
66520,note_on,0,0,2,,,,,,,,,0,,,58,40
66520,note_on,40,0,2,,,,,,,,,0,,,52,0
66560,note_on,40,0,2,,,,,,,,,0,,,58,0
66560,note_on,0,0,2,,,,,,,,,0,,,61,40
66585,control_change,345,0,3,,,,,,,,,0,64,0,,
66600,note_on,0,0,2,,,,,,,,,0,,,43,50
66600,control_change,15,0,3,,,,,,,,,0,64,127,,
66600,note_on,0,0,2,,,,,,,,,0,,,39,50
66600,note_on,0,0,2,,,,,,,,,0,,,31,50
66600,note_on,0,0,2,,,,,,,,,0,,,51,40
66600,note_on,0,0,2,,,,,,,,,0,,,46,0
66600,note_on,40,0,2,,,,,,,,,0,,,61,0
66600,note_on,0,0,2,,,,,,,,,0,,,34,0
66640,note_on,0,0,2,,,,,,,,,0,,,58,40
66640,note_on,40,0,2,,,,,,,,,0,,,51,0
66680,note_on,40,0,2,,,,,,,,,0,,,58,0
66680,note_on,0,0,2,,,,,,,,,0,,,61,40
66720,note_on,40,0,2,,,,,,,,,0,,,61,0
66720,note_on,0,0,2,,,,,,,,,0,,,63,40
66760,note_on,0,0,2,,,,,,,,,0,,,61,40
66760,note_on,40,0,2,,,,,,,,,0,,,63,0
66800,note_on,0,0,2,,,,,,,,,0,,,58,40
66800,note_on,40,0,2,,,,,,,,,0,,,61,0
66840,note_on,40,0,2,,,,,,,,,0,,,58,0
66840,note_on,0,0,2,,,,,,,,,0,,,51,40
66880,note_on,0,0,2,,,,,,,,,0,,,58,40
66880,note_on,40,0,2,,,,,,,,,0,,,51,0
66920,note_on,0,0,2,,,,,,,,,0,,,61,40
66920,note_on,40,0,2,,,,,,,,,0,,,58,0
66960,note_on,40,0,2,,,,,,,,,0,,,61,0
66960,note_on,0,0,2,,,,,,,,,0,,,51,40
67000,note_on,0,0,2,,,,,,,,,0,,,58,40
67000,note_on,40,0,2,,,,,,,,,0,,,51,0
67040,note_on,0,0,2,,,,,,,,,0,,,61,40
67040,note_on,40,0,2,,,,,,,,,0,,,58,0
67080,note_on,40,0,2,,,,,,,,,0,,,61,0
67080,note_on,0,0,2,,,,,,,,,0,,,63,40
67120,note_on,40,0,2,,,,,,,,,0,,,63,0
67120,note_on,0,0,2,,,,,,,,,0,,,61,40
67160,note_on,40,0,2,,,,,,,,,0,,,61,0
67160,note_on,0,0,2,,,,,,,,,0,,,58,40
67200,note_on,40,0,2,,,,,,,,,0,,,58,0
67200,note_on,0,0,2,,,,,,,,,0,,,51,40
67240,note_on,0,0,2,,,,,,,,,0,,,58,40
67240,note_on,40,0,2,,,,,,,,,0,,,51,0
67280,note_on,40,0,2,,,,,,,,,0,,,58,0
67280,note_on,0,0,2,,,,,,,,,0,,,61,40
67305,control_change,705,0,3,,,,,,,,,0,64,0,,
67320,note_on,2200,0,1,,,,,,,,,0,,,63,40
67320,note_on,0,0,2,,,,,,,,,0,,,39,50
67320,note_on,40,0,2,,,,,,,,,0,,,61,0
67320,note_on,0,0,2,,,,,,,,,0,,,43,0
67320,note_on,0,0,2,,,,,,,,,0,,,39,0
67320,note_on,0,0,2,,,,,,,,,0,,,31,0
67320,note_on,0,0,2,,,,,,,,,0,,,61,40
67320,set_tempo,2160,1,0,,,,,,454580,,,,,,,
67320,note_on,0,0,2,,,,,,,,,0,,,58,40
67320,note_on,0,0,2,,,,,,,,,0,,,43,50
67320,note_on,0,0,2,,,,,,,,,0,,,51,40
67320,note_on,0,0,2,,,,,,,,,0,,,31,50
67327,set_tempo,7,1,0,,,,,,455615,,,,,,,
67334,set_tempo,7,1,0,,,,,,457701,,,,,,,
67341,set_tempo,7,1,0,,,,,,458751,,,,,,,
67348,set_tempo,7,1,0,,,,,,460865,,,,,,,
67355,set_tempo,7,1,0,,,,,,461929,,,,,,,
67362,set_tempo,7,1,0,,,,,,464073,,,,,,,
67369,set_tempo,7,1,0,,,,,,466237,,,,,,,
67376,set_tempo,7,1,0,,,,,,467326,,,,,,,
67383,set_tempo,7,1,0,,,,,,469520,,,,,,,
67390,set_tempo,7,1,0,,,,,,470625,,,,,,,
67397,set_tempo,7,1,0,,,,,,472851,,,,,,,
67404,set_tempo,7,1,0,,,,,,475097,,,,,,,
67411,set_tempo,7,1,0,,,,,,476228,,,,,,,
67418,set_tempo,7,1,0,,,,,,478507,,,,,,,
67425,set_tempo,7,1,0,,,,,,479655,,,,,,,
67432,set_tempo,7,1,0,,,,,,481966,,,,,,,
67440,note_on,0,0,1,,,,,,,,,0,,,63,40
67440,note_on,120,0,1,,,,,,,,,0,,,63,0
67440,set_tempo,8,1,0,,,,,,483131,,,,,,,
67447,set_tempo,7,1,0,,,,,,485476,,,,,,,
67454,set_tempo,7,1,0,,,,,,487845,,,,,,,
67461,set_tempo,7,1,0,,,,,,489037,,,,,,,
67468,set_tempo,7,1,0,,,,,,491441,,,,,,,
67475,set_tempo,7,1,0,,,,,,492651,,,,,,,
67482,set_tempo,7,1,0,,,,,,495090,,,,,,,
67489,set_tempo,7,1,0,,,,,,497554,,,,,,,
67496,set_tempo,7,1,0,,,,,,498795,,,,,,,
67503,set_tempo,7,1,0,,,,,,501295,,,,,,,
67510,set_tempo,7,1,0,,,,,,502555,,,,,,,
67517,set_tempo,7,1,0,,,,,,505093,,,,,,,
67524,set_tempo,7,1,0,,,,,,506372,,,,,,,
67531,set_tempo,7,1,0,,,,,,508949,,,,,,,
67538,set_tempo,7,1,0,,,,,,511553,,,,,,,
67545,set_tempo,7,1,0,,,,,,512864,,,,,,,
67552,set_tempo,7,1,0,,,,,,515508,,,,,,,
67560,note_on,240,0,2,,,,,,,,,0,,,43,0
67560,note_on,0,0,2,,,,,,,,,0,,,51,0
67560,note_on,0,0,2,,,,,,,,,0,,,61,0
67560,note_on,0,0,2,,,,,,,,,0,,,39,0
67560,note_on,0,0,2,,,,,,,,,0,,,31,0
67560,note_on,0,0,2,,,,,,,,,0,,,51,40
67560,note_on,0,0,2,,,,,,,,,0,,,58,0
67560,note_on,0,0,1,,,,,,,,,0,,,63,40
67560,note_on,120,0,1,,,,,,,,,0,,,63,0
67560,set_tempo,8,1,0,,,,,,516840,,,,,,,
67567,set_tempo,7,1,0,,,,,,519526,,,,,,,
67574,set_tempo,7,1,0,,,,,,522239,,,,,,,
67581,set_tempo,7,1,0,,,,,,523606,,,,,,,
67588,set_tempo,7,1,0,,,,,,526362,,,,,,,
67595,set_tempo,7,1,0,,,,,,527751,,,,,,,
67602,set_tempo,7,1,0,,,,,,530551,,,,,,,
67609,set_tempo,7,1,0,,,,,,531962,,,,,,,
67616,set_tempo,7,1,0,,,,,,534807,,,,,,,
67623,set_tempo,7,1,0,,,,,,537683,,,,,,,
67630,set_tempo,7,1,0,,,,,,539132,,,,,,,
67637,set_tempo,7,1,0,,,,,,542054,,,,,,,
67644,set_tempo,7,1,0,,,,,,543527,,,,,,,
67651,set_tempo,7,1,0,,,,,,546498,,,,,,,
67658,set_tempo,7,1,0,,,,,,549501,,,,,,,
67665,set_tempo,7,1,0,,,,,,551015,,,,,,,
67672,set_tempo,7,1,0,,,,,,554068,,,,,,,
67680,note_on,0,0,2,,,,,,,,,0,,,51,40
67680,note_on,120,0,1,,,,,,,,,0,,,63,0
67680,note_on,0,0,1,,,,,,,,,0,,,63,40
67680,set_tempo,8,1,0,,,,,,555607,,,,,,,
67680,note_on,120,0,2,,,,,,,,,0,,,51,0
67687,set_tempo,7,1,0,,,,,,558711,,,,,,,
67694,set_tempo,7,1,0,,,,,,560276,,,,,,,
67701,set_tempo,7,1,0,,,,,,563433,,,,,,,
67708,set_tempo,7,1,0,,,,,,566626,,,,,,,
67715,set_tempo,7,1,0,,,,,,568236,,,,,,,
67722,set_tempo,7,1,0,,,,,,571483,,,,,,,
67729,set_tempo,7,1,0,,,,,,573121,,,,,,,
67736,set_tempo,7,1,0,,,,,,576424,,,,,,,
67743,set_tempo,7,1,0,,,,,,579766,,,,,,,
67750,set_tempo,7,1,0,,,,,,581452,,,,,,,
67757,set_tempo,7,1,0,,,,,,584852,,,,,,,
67764,set_tempo,7,1,0,,,,,,586568,,,,,,,
67771,set_tempo,7,1,0,,,,,,590029,,,,,,,
67778,set_tempo,7,1,0,,,,,,591774,,,,,,,
67785,set_tempo,7,1,0,,,,,,595297,,,,,,,
67792,set_tempo,7,1,0,,,,,,598862,,,,,,,
67800,set_tempo,8,1,0,,,,,,600661,,,,,,,
67800,note_on,120,0,1,,,,,,,,,0,,,63,0
67800,note_on,0,0,1,,,,,,,,,0,,,63,40
67800,note_on,0,0,2,,,,,,,,,0,,,51,40
67800,note_on,120,0,2,,,,,,,,,0,,,51,0
67807,set_tempo,7,1,0,,,,,,604290,,,,,,,
67814,set_tempo,7,1,0,,,,,,606122,,,,,,,
67821,set_tempo,7,1,0,,,,,,609818,,,,,,,
67828,set_tempo,7,1,0,,,,,,613560,,,,,,,
67835,set_tempo,7,1,0,,,,,,615448,,,,,,,
67842,set_tempo,7,1,0,,,,,,619259,,,,,,,
67849,set_tempo,7,1,0,,,,,,621182,,,,,,,
67856,set_tempo,7,1,0,,,,,,625065,,,,,,,
67863,set_tempo,7,1,0,,,,,,627025,,,,,,,
67870,set_tempo,7,1,0,,,,,,630981,,,,,,,
67877,set_tempo,7,1,0,,,,,,634988,,,,,,,
67884,set_tempo,7,1,0,,,,,,637010,,,,,,,
67891,set_tempo,7,1,0,,,,,,641094,,,,,,,
67898,set_tempo,7,1,0,,,,,,643156,,,,,,,
67905,set_tempo,7,1,0,,,,,,647319,,,,,,,
67912,set_tempo,7,1,0,,,,,,651537,,,,,,,
67920,note_on,120,0,2,,,,,,,,,0,,,51,0
67920,note_on,0,0,2,,,,,,,,,0,,,51,50
67920,note_on,0,0,1,,,,,,,,,0,,,63,50
67920,control_change,615,0,3,,,,,,,,,0,64,127,,
67920,note_on,120,0,1,,,,,,,,,0,,,63,0
67920,set_tempo,8,1,0,,,,,,454545,,,,,,,
68040,key_signature,120,1,0,,,,,Ab,,,,,,,,
68040,marker,0,1,0,,,,,,,,,,,,,
68040,note_on,0,0,1,,,,,,,,,0,,,60,42
68040,note_on,0,0,1,,,,,,,,,0,,,63,42
68040,note_on,0,0,1,,,,,,,,,0,,,68,52
68040,note_on,120,0,1,,,,,,,,,0,,,63,0
68040,note_on,0,0,2,,,,,,,,,0,,,44,52
68040,note_on,0,0,2,,,,,,,,,0,,,51,42
68040,note_on,120,0,2,,,,,,,,,0,,,51,0
68160,note_on,0,0,1,,,,,,,,,0,,,63,44
68160,note_on,120,0,2,,,,,,,,,0,,,51,0
68160,note_on,0,0,2,,,,,,,,,0,,,51,44
68160,note_on,120,0,1,,,,,,,,,0,,,68,0
68160,note_on,0,0,1,,,,,,,,,0,,,63,0
68160,note_on,0,0,1,,,,,,,,,0,,,60,44
68160,note_on,0,0,1,,,,,,,,,0,,,60,0
68160,note_on,0,0,1,,,,,,,,,0,,,68,54
68340,note_on,180,0,1,,,,,,,,,0,,,68,0
68340,control_change,420,0,3,,,,,,,,,0,64,0,,
68340,note_on,0,0,1,,,,,,,,,0,,,70,57
68400,note_on,240,0,2,,,,,,,,,0,,,51,0
68400,note_on,0,0,2,,,,,,,,,0,,,44,0
68400,note_on,0,0,2,,,,,,,,,0,,,51,48
68400,note_on,0,0,2,,,,,,,,,0,,,46,58
68400,note_on,0,0,1,,,,,,,,,0,,,63,48
68400,note_on,0,0,1,,,,,,,,,0,,,63,0
68400,note_on,0,0,1,,,,,,,,,0,,,60,0
68400,note_on,0,0,1,,,,,,,,,0,,,61,48
68400,note_on,0,0,1,,,,,,,,,0,,,68,58
68400,note_on,60,0,1,,,,,,,,,0,,,70,0
68520,note_on,0,0,2,,,,,,,,,0,,,51,50
68520,note_on,120,0,2,,,,,,,,,0,,,51,0
68520,note_on,0,0,1,,,,,,,,,0,,,67,60
68520,note_on,0,0,1,,,,,,,,,0,,,63,50
68520,note_on,0,0,1,,,,,,,,,0,,,61,50
68520,note_on,0,0,1,,,,,,,,,0,,,61,0
68520,note_on,0,0,1,,,,,,,,,0,,,63,0
68520,note_on,120,0,1,,,,,,,,,0,,,68,0
68520,control_change,180,0,3,,,,,,,,,0,64,127,,
68700,note_on,180,0,1,,,,,,,,,0,,,67,0
68700,note_on,0,0,1,,,,,,,,,0,,,70,64
68760,control_change,240,0,3,,,,,,,,,0,64,0,,
68760,note_on,0,0,2,,,,,,,,,0,,,48,65
68760,note_on,240,0,2,,,,,,,,,0,,,51,0
68760,note_on,0,0,2,,,,,,,,,0,,,46,0
68760,note_on,0,0,2,,,,,,,,,0,,,51,55
68760,note_on,0,0,1,,,,,,,,,0,,,63,0
68760,note_on,60,0,1,,,,,,,,,0,,,70,0
68760,note_on,0,0,1,,,,,,,,,0,,,61,0
68760,note_on,0,0,1,,,,,,,,,0,,,70,65
68880,note_on,120,0,2,,,,,,,,,0,,,51,0
68880,note_on,120,0,1,,,,,,,,,0,,,70,0
68880,note_on,0,0,1,,,,,,,,,0,,,63,57
68880,note_on,0,0,1,,,,,,,,,0,,,68,67
68880,note_on,0,0,2,,,,,,,,,0,,,51,57
69000,note_on,0,0,2,,,,,,,,,0,,,51,59
69000,note_on,0,0,2,,,,,,,,,0,,,48,0
69000,note_on,120,0,2,,,,,,,,,0,,,51,0
69000,note_on,0,0,1,,,,,,,,,0,,,63,59
69000,note_on,0,0,1,,,,,,,,,0,,,61,59
69000,note_on,0,0,1,,,,,,,,,0,,,63,0
69000,note_on,120,0,1,,,,,,,,,0,,,68,0
69000,note_on,0,0,1,,,,,,,,,0,,,70,69
69000,note_on,0,0,2,,,,,,,,,0,,,43,69
69120,note_on,0,0,1,,,,,,,,,0,,,63,0
69120,note_on,0,0,1,,,,,,,,,0,,,61,0
69120,note_on,0,0,1,,,,,,,,,0,,,60,61
69120,note_on,0,0,1,,,,,,,,,0,,,63,61
69120,note_on,0,0,1,,,,,,,,,0,,,72,71
69120,note_on,120,0,1,,,,,,,,,0,,,70,0
69120,note_on,120,0,2,,,,,,,,,0,,,43,0
69120,note_on,0,0,2,,,,,,,,,0,,,51,61
69120,note_on,0,0,2,,,,,,,,,0,,,44,71
69120,note_on,0,0,2,,,,,,,,,0,,,51,0
69360,note_on,0,0,2,,,,,,,,,0,,,51,76
69360,note_on,0,0,2,,,,,,,,,0,,,51,0
69360,note_on,240,0,1,,,,,,,,,0,,,72,0
69360,note_on,0,0,1,,,,,,,,,0,,,60,0
69360,note_on,0,0,1,,,,,,,,,0,,,63,0
69360,note_on,240,0,2,,,,,,,,,0,,,44,0
69360,note_on,0,0,1,,,,,,,,,0,,,63,76
69480,note_on,120,0,1,,,,,,,,,0,,,63,0
69480,note_on,0,0,1,,,,,,,,,0,,,63,68
69480,note_on,0,0,1,,,,,,,,,0,,,72,78
69480,note_on,120,0,2,,,,,,,,,0,,,51,0
69480,note_on,0,0,2,,,,,,,,,0,,,51,68
69480,note_on,0,0,2,,,,,,,,,0,,,44,78
69480,note_on,0,0,1,,,,,,,,,0,,,60,68
69480,control_change,720,0,3,,,,,,,,,0,64,127,,
69600,note_on,120,0,1,,,,,,,,,0,,,72,0
69600,note_on,0,0,2,,,,,,,,,0,,,51,70
69600,note_on,0,0,1,,,,,,,,,0,,,60,70
69600,note_on,0,0,1,,,,,,,,,0,,,63,70
69600,note_on,0,0,1,,,,,,,,,0,,,63,0
69600,note_on,0,0,1,,,,,,,,,0,,,60,0
69600,note_on,120,0,2,,,,,,,,,0,,,51,0
69600,note_on,0,0,1,,,,,,,,,0,,,72,80
69780,note_on,0,0,1,,,,,,,,,0,,,63,0
69780,note_on,0,0,1,,,,,,,,,0,,,60,0
69780,note_on,180,0,1,,,,,,,,,0,,,72,0
69780,note_on,0,0,1,,,,,,,,,0,,,61,73
69780,note_on,0,0,1,,,,,,,,,0,,,63,73
69780,note_on,0,0,1,,,,,,,,,0,,,73,83
69840,note_on,0,0,2,,,,,,,,,0,,,44,0
69840,note_on,240,0,2,,,,,,,,,0,,,51,0
69840,note_on,0,0,2,,,,,,,,,0,,,51,74
69840,note_on,0,0,2,,,,,,,,,0,,,49,84
69840,control_change,360,0,3,,,,,,,,,0,64,0,,
69840,note_on,60,0,1,,,,,,,,,0,,,73,0
69840,note_on,0,0,1,,,,,,,,,0,,,63,0
69840,note_on,0,0,1,,,,,,,,,0,,,61,0
69840,note_on,0,0,1,,,,,,,,,0,,,63,74
69840,note_on,0,0,1,,,,,,,,,0,,,60,74
69840,note_on,0,0,1,,,,,,,,,0,,,72,84
69960,note_on,0,0,2,,,,,,,,,0,,,51,77
69960,note_on,120,0,2,,,,,,,,,0,,,51,0
69960,note_on,0,0,1,,,,,,,,,0,,,70,87
69960,note_on,0,0,1,,,,,,,,,0,,,58,77
69960,note_on,0,0,1,,,,,,,,,0,,,60,0
69960,note_on,0,0,1,,,,,,,,,0,,,63,0
69960,note_on,0,0,1,,,,,,,,,0,,,63,77
69960,note_on,120,0,1,,,,,,,,,0,,,72,0
70140,note_on,180,0,1,,,,,,,,,0,,,70,0
70140,note_on,0,0,1,,,,,,,,,0,,,58,0
70140,note_on,0,0,1,,,,,,,,,0,,,63,0
70140,note_on,0,0,1,,,,,,,,,0,,,63,80
70140,note_on,0,0,1,,,,,,,,,0,,,60,80
70140,note_on,0,0,1,,,,,,,,,0,,,72,90
70200,note_on,0,0,1,,,,,,,,,0,,,63,80
70200,note_on,0,0,1,,,,,,,,,0,,,63,0
70200,note_on,0,0,2,,,,,,,,,0,,,48,90
70200,note_on,0,0,1,,,,,,,,,0,,,58,80
70200,note_on,0,0,2,,,,,,,,,0,,,49,0
70200,note_on,240,0,2,,,,,,,,,0,,,51,0
70200,note_on,0,0,2,,,,,,,,,0,,,51,80
70200,note_on,0,0,1,,,,,,,,,0,,,70,90
70200,note_on,0,0,1,,,,,,,,,0,,,60,0
70200,note_on,60,0,1,,,,,,,,,0,,,72,0
70320,note_on,0,0,1,,,,,,,,,0,,,63,66
70320,note_on,120,0,2,,,,,,,,,0,,,51,0
70320,note_on,0,0,1,,,,,,,,,0,,,68,76
70320,note_on,0,0,2,,,,,,,,,0,,,51,66
70320,note_on,0,0,1,,,,,,,,,0,,,56,66
70320,note_on,120,0,1,,,,,,,,,0,,,70,0
70320,note_on,0,0,1,,,,,,,,,0,,,63,0
70320,note_on,0,0,1,,,,,,,,,0,,,58,0
70440,note_on,120,0,1,,,,,,,,,0,,,68,0
70440,control_change,600,0,3,,,,,,,,,0,64,127,,
70440,note_on,0,0,1,,,,,,,,,0,,,63,51
70440,note_on,0,0,1,,,,,,,,,0,,,75,61
70440,note_on,0,0,2,,,,,,,,,0,,,48,0
70440,note_on,0,0,2,,,,,,,,,0,,,51,51
70440,note_on,0,0,2,,,,,,,,,0,,,43,61
70440,note_on,0,0,1,,,,,,,,,0,,,56,0
70440,note_on,0,0,1,,,,,,,,,0,,,63,0
70440,note_on,120,0,2,,,,,,,,,0,,,51,0
70440,note_on,0,0,1,,,,,,,,,0,,,70,51
70530,note_on,90,0,1,,,,,,,,,0,,,75,0
70530,note_on,0,0,1,,,,,,,,,0,,,73,50
70560,note_on,30,0,1,,,,,,,,,0,,,73,0
70560,note_on,0,0,1,,,,,,,,,0,,,63,0
70560,note_on,0,0,1,,,,,,,,,0,,,70,0
70560,note_on,0,0,1,,,,,,,,,0,,,72,50
70560,note_on,0,0,1,,,,,,,,,0,,,68,40
70560,note_on,120,0,2,,,,,,,,,0,,,43,0
70560,note_on,0,0,2,,,,,,,,,0,,,51,0
70560,note_on,0,0,2,,,,,,,,,0,,,51,40
70560,note_on,0,0,2,,,,,,,,,0,,,44,50
70560,note_on,0,0,1,,,,,,,,,0,,,63,40
70560,control_change,120,0,3,,,,,,,,,0,64,0,,
70800,note_on,0,0,1,,,,,,,,,0,,,75,50
70800,note_on,0,0,1,,,,,,,,,0,,,68,0
70800,note_on,240,0,1,,,,,,,,,0,,,72,0
70800,note_on,0,0,1,,,,,,,,,0,,,63,0
70800,note_on,240,0,2,,,,,,,,,0,,,44,0
70800,note_on,0,0,2,,,,,,,,,0,,,51,50
70800,note_on,0,0,2,,,,,,,,,0,,,51,0
70920,note_on,0,0,1,,,,,,,,,0,,,75,42
70920,note_on,0,0,1,,,,,,,,,0,,,80,52
70920,note_on,0,0,2,,,,,,,,,0,,,51,42
70920,note_on,120,0,2,,,,,,,,,0,,,51,0
70920,control_change,360,0,3,,,,,,,,,0,64,127,,
70920,note_on,0,0,2,,,,,,,,,0,,,44,52
70920,note_on,120,0,1,,,,,,,,,0,,,75,0
70920,note_on,0,0,1,,,,,,,,,0,,,72,42
71040,note_on,0,0,1,,,,,,,,,0,,,72,0
71040,note_on,0,0,1,,,,,,,,,0,,,75,44
71040,note_on,0,0,1,,,,,,,,,0,,,72,44
71040,note_on,0,0,1,,,,,,,,,0,,,80,54
71040,note_on,120,0,2,,,,,,,,,0,,,51,0
71040,note_on,0,0,2,,,,,,,,,0,,,51,44
71040,note_on,0,0,1,,,,,,,,,0,,,75,0
71040,note_on,120,0,1,,,,,,,,,0,,,80,0
71220,control_change,300,0,3,,,,,,,,,0,64,0,,
71220,note_on,0,0,1,,,,,,,,,0,,,82,57
71220,note_on,180,0,1,,,,,,,,,0,,,80,0
71280,note_on,0,0,2,,,,,,,,,0,,,46,58
71280,note_on,0,0,1,,,,,,,,,0,,,80,58
71280,note_on,0,0,1,,,,,,,,,0,,,75,48
71280,note_on,0,0,1,,,,,,,,,0,,,73,48
71280,note_on,0,0,1,,,,,,,,,0,,,75,0
71280,note_on,0,0,1,,,,,,,,,0,,,72,0
71280,note_on,60,0,1,,,,,,,,,0,,,82,0
71280,note_on,0,0,2,,,,,,,,,0,,,51,48
71280,note_on,0,0,2,,,,,,,,,0,,,44,0
71280,note_on,240,0,2,,,,,,,,,0,,,51,0
71400,note_on,0,0,1,,,,,,,,,0,,,75,0
71400,note_on,0,0,1,,,,,,,,,0,,,73,0
71400,note_on,0,0,1,,,,,,,,,0,,,73,50
71400,note_on,0,0,1,,,,,,,,,0,,,75,50
71400,note_on,0,0,1,,,,,,,,,0,,,79,60
71400,note_on,0,0,2,,,,,,,,,0,,,51,50
71400,note_on,120,0,2,,,,,,,,,0,,,51,0
71400,note_on,120,0,1,,,,,,,,,0,,,80,0
71400,control_change,180,0,3,,,,,,,,,0,64,127,,
71580,note_on,180,0,1,,,,,,,,,0,,,79,0
71580,note_on,0,0,1,,,,,,,,,0,,,82,64
71640,note_on,0,0,1,,,,,,,,,0,,,82,65
71640,note_on,0,0,1,,,,,,,,,0,,,75,0
71640,note_on,240,0,2,,,,,,,,,0,,,51,0
71640,note_on,60,0,1,,,,,,,,,0,,,82,0
71640,note_on,0,0,2,,,,,,,,,0,,,48,65
71640,note_on,0,0,2,,,,,,,,,0,,,46,0
71640,note_on,0,0,2,,,,,,,,,0,,,51,55
71640,note_on,0,0,1,,,,,,,,,0,,,73,0
71640,control_change,240,0,3,,,,,,,,,0,64,0,,
71760,note_on,120,0,1,,,,,,,,,0,,,82,0
71760,note_on,120,0,2,,,,,,,,,0,,,51,0
71760,note_on,0,0,1,,,,,,,,,0,,,75,57
71760,note_on,0,0,2,,,,,,,,,0,,,51,57
71760,note_on,0,0,1,,,,,,,,,0,,,80,67
71880,note_on,120,0,1,,,,,,,,,0,,,80,0
71880,note_on,120,0,2,,,,,,,,,0,,,51,0
71880,note_on,0,0,2,,,,,,,,,0,,,51,59
71880,note_on,0,0,2,,,,,,,,,0,,,43,69
71880,note_on,0,0,1,,,,,,,,,0,,,82,69
71880,note_on,0,0,1,,,,,,,,,0,,,75,59
71880,note_on,0,0,1,,,,,,,,,0,,,73,59
71880,note_on,0,0,1,,,,,,,,,0,,,75,0
71880,note_on,0,0,2,,,,,,,,,0,,,48,0
72000,note_on,120,0,2,,,,,,,,,0,,,43,0
72000,note_on,0,0,2,,,,,,,,,0,,,51,0
72000,note_on,0,0,2,,,,,,,,,0,,,44,71
72000,note_on,0,0,2,,,,,,,,,0,,,51,61
72000,note_on,0,0,1,,,,,,,,,0,,,84,71
72000,note_on,0,0,1,,,,,,,,,0,,,72,61
72000,note_on,0,0,1,,,,,,,,,0,,,75,61
72000,note_on,0,0,1,,,,,,,,,0,,,73,0
72000,note_on,0,0,1,,,,,,,,,0,,,75,0
72000,note_on,120,0,1,,,,,,,,,0,,,82,0
72240,note_on,0,0,2,,,,,,,,,0,,,51,0
72240,note_on,240,0,2,,,,,,,,,0,,,44,0
72240,note_on,0,0,2,,,,,,,,,0,,,51,76
72240,note_on,0,0,1,,,,,,,,,0,,,75,66
72240,note_on,0,0,1,,,,,,,,,0,,,72,0
72240,note_on,240,0,1,,,,,,,,,0,,,84,0
72240,note_on,0,0,1,,,,,,,,,0,,,75,0
72360,note_on,0,0,2,,,,,,,,,0,,,51,68
72360,note_on,0,0,2,,,,,,,,,0,,,44,78
72360,control_change,720,0,3,,,,,,,,,0,64,127,,
72360,note_on,120,0,2,,,,,,,,,0,,,51,0
72360,note_on,0,0,1,,,,,,,,,0,,,72,68
72360,note_on,0,0,1,,,,,,,,,0,,,75,68
72360,note_on,0,0,1,,,,,,,,,0,,,84,78
72360,note_on,120,0,1,,,,,,,,,0,,,75,0
72480,note_on,0,0,2,,,,,,,,,0,,,51,70
72480,note_on,0,0,1,,,,,,,,,0,,,84,80
72480,note_on,0,0,1,,,,,,,,,0,,,72,70
72480,note_on,120,0,2,,,,,,,,,0,,,51,0
72480,note_on,0,0,1,,,,,,,,,0,,,72,0
72480,note_on,0,0,1,,,,,,,,,0,,,75,0
72480,note_on,0,0,1,,,,,,,,,0,,,75,70
72480,note_on,120,0,1,,,,,,,,,0,,,84,0
72660,note_on,180,0,1,,,,,,,,,0,,,84,0
72660,note_on,0,0,1,,,,,,,,,0,,,85,83
72660,control_change,300,0,3,,,,,,,,,0,64,0,,
72720,note_on,0,0,2,,,,,,,,,0,,,48,74
72720,note_on,0,0,2,,,,,,,,,0,,,43,84
72720,note_on,240,0,2,,,,,,,,,0,,,51,0
72720,note_on,0,0,2,,,,,,,,,0,,,44,0
72720,note_on,0,0,1,,,,,,,,,0,,,72,0
72720,note_on,0,0,1,,,,,,,,,0,,,72,74
72720,note_on,0,0,1,,,,,,,,,0,,,75,0
72720,note_on,0,0,1,,,,,,,,,0,,,76,74
72720,note_on,60,0,1,,,,,,,,,0,,,85,0
72720,note_on,0,0,1,,,,,,,,,0,,,84,84
72840,note_on,0,0,2,,,,,,,,,0,,,48,77
72840,note_on,0,0,1,,,,,,,,,0,,,76,0
72840,note_on,0,0,1,,,,,,,,,0,,,76,77
72840,note_on,120,0,1,,,,,,,,,0,,,84,0
72840,note_on,120,0,2,,,,,,,,,0,,,48,0
72840,note_on,0,0,1,,,,,,,,,0,,,72,77
72840,note_on,0,0,1,,,,,,,,,0,,,82,87
72840,note_on,0,0,1,,,,,,,,,0,,,72,0
73020,note_on,0,0,1,,,,,,,,,0,,,84,90
73020,note_on,180,0,1,,,,,,,,,0,,,82,0
73080,note_on,0,0,1,,,,,,,,,0,,,82,90
73080,note_on,0,0,1,,,,,,,,,0,,,77,80
73080,note_on,0,0,1,,,,,,,,,0,,,72,80
73080,note_on,240,0,2,,,,,,,,,0,,,48,0
73080,note_on,0,0,2,,,,,,,,,0,,,43,0
73080,note_on,0,0,2,,,,,,,,,0,,,48,80
73080,note_on,0,0,2,,,,,,,,,0,,,41,90
73080,note_on,0,0,1,,,,,,,,,0,,,76,0
73080,note_on,0,0,1,,,,,,,,,0,,,72,0
73080,note_on,60,0,1,,,,,,,,,0,,,84,0
73200,note_on,120,0,2,,,,,,,,,0,,,48,0
73200,note_on,0,0,2,,,,,,,,,0,,,48,66
73200,note_on,0,0,1,,,,,,,,,0,,,80,76
73200,note_on,120,0,1,,,,,,,,,0,,,82,0
73200,note_on,0,0,1,,,,,,,,,0,,,77,0
73200,note_on,0,0,1,,,,,,,,,0,,,72,0
73200,note_on,0,0,1,,,,,,,,,0,,,77,66
73200,note_on,0,0,1,,,,,,,,,0,,,72,66
73260,note_on,60,0,1,,,,,,,,,0,,,80,0
73260,note_on,0,0,1,,,,,,,,,0,,,82,68
73275,note_on,15,0,1,,,,,,,,,0,,,82,0
73275,note_on,0,0,1,,,,,,,,,0,,,80,66
73290,note_on,0,0,1,,,,,,,,,0,,,79,64
73290,note_on,15,0,1,,,,,,,,,0,,,80,0
73305,note_on,15,0,1,,,,,,,,,0,,,79,0
73305,note_on,0,0,1,,,,,,,,,0,,,80,62
73320,note_on,120,0,2,,,,,,,,,0,,,48,0
73320,control_change,660,0,3,,,,,,,,,0,64,127,,
73320,note_on,0,0,2,,,,,,,,,0,,,41,0
73320,note_on,0,0,2,,,,,,,,,0,,,39,61
73320,note_on,0,0,2,,,,,,,,,0,,,51,51
73320,note_on,0,0,1,,,,,,,,,0,,,84,61
73320,note_on,15,0,1,,,,,,,,,0,,,80,0
73320,note_on,0,0,1,,,,,,,,,0,,,72,0
73320,note_on,0,0,1,,,,,,,,,0,,,77,0
73320,note_on,0,0,1,,,,,,,,,0,,,79,51
73320,note_on,0,0,1,,,,,,,,,0,,,73,51
73410,note_on,0,0,1,,,,,,,,,0,,,82,50
73410,note_on,90,0,1,,,,,,,,,0,,,84,0
73425,control_change,105,0,3,,,,,,,,,0,64,0,,
73440,note_on,0,0,2,,,,,,,,,0,,,44,50
73440,note_on,0,0,2,,,,,,,,,0,,,51,40
73440,note_on,0,0,2,,,,,,,,,0,,,51,0
73440,note_on,120,0,2,,,,,,,,,0,,,39,0
73440,note_on,0,0,1,,,,,,,,,0,,,79,0
73440,note_on,0,0,1,,,,,,,,,0,,,73,0
73440,note_on,0,0,1,,,,,,,,,0,,,72,40
73440,note_on,0,0,1,,,,,,,,,0,,,80,50
73440,note_on,30,0,1,,,,,,,,,0,,,82,0
73680,note_on,240,0,2,,,,,,,,,0,,,44,0
73680,note_on,0,0,2,,,,,,,,,0,,,51,0
73680,note_on,0,0,1,,,,,,,,,0,,,72,0
73680,note_on,240,0,1,,,,,,,,,0,,,80,0
73740,note_on,60,0,1,,,,,,,,,0,,,63,100
73740,control_change,315,0,3,,,,,,,,,0,64,127,,
73740,note_on,0,0,1,,,,,,,,,0,,,68,100
73740,note_on,0,0,2,,,,,,,,,0,,,60,100
73740,note_on,0,0,2,,,,,,,,,0,,,56,100
73740,note_on,60,0,2,,,,,,,,,0,,,48,100
73740,note_on,0,0,1,,,,,,,,,0,,,75,100
73800,note_on,0,0,2,,,,,,,,,0,,,48,0
73800,note_on,0,0,2,,,,,,,,,0,,,48,100
73800,note_on,0,0,2,,,,,,,,,0,,,56,100
73800,note_on,0,0,2,,,,,,,,,0,,,60,100
73800,note_on,60,0,2,,,,,,,,,0,,,60,0
73800,note_on,0,0,2,,,,,,,,,0,,,56,0
73800,marker,5760,1,0,,,,,,,,,,,,,
73800,note_on,0,0,1,,,,,,,,,0,,,75,100
73800,note_on,0,0,1,,,,,,,,,0,,,68,100
73800,note_on,0,0,1,,,,,,,,,0,,,63,100
73800,note_on,0,0,1,,,,,,,,,0,,,63,0
73800,note_on,0,0,1,,,,,,,,,0,,,68,0
73800,note_on,60,0,1,,,,,,,,,0,,,75,0
73920,note_on,0,0,1,,,,,,,,,0,,,68,100
73920,note_on,0,0,1,,,,,,,,,0,,,63,100
73920,note_on,0,0,1,,,,,,,,,0,,,63,0
73920,note_on,0,0,1,,,,,,,,,0,,,68,0
73920,note_on,120,0,1,,,,,,,,,0,,,75,0
73920,note_on,0,0,2,,,,,,,,,0,,,56,100
73920,note_on,0,0,2,,,,,,,,,0,,,48,100
73920,note_on,0,0,2,,,,,,,,,0,,,48,0
73920,note_on,0,0,2,,,,,,,,,0,,,56,0
73920,note_on,120,0,2,,,,,,,,,0,,,60,0
73920,note_on,0,0,1,,,,,,,,,0,,,75,100
73920,note_on,0,0,2,,,,,,,,,0,,,60,100
74100,note_on,0,0,1,,,,,,,,,0,,,63,100
74100,note_on,0,0,2,,,,,,,,,0,,,51,100
74100,note_on,180,0,1,,,,,,,,,0,,,75,0
74100,note_on,0,0,1,,,,,,,,,0,,,68,0
74100,note_on,0,0,1,,,,,,,,,0,,,60,100
74100,control_change,360,0,3,,,,,,,,,0,64,0,,
74100,note_on,0,0,1,,,,,,,,,0,,,72,100
74100,note_on,0,0,2,,,,,,,,,0,,,48,0
74100,note_on,0,0,1,,,,,,,,,0,,,63,0
74100,note_on,0,0,2,,,,,,,,,0,,,44,100
74100,note_on,180,0,2,,,,,,,,,0,,,60,0
74100,note_on,0,0,2,,,,,,,,,0,,,56,0
74100,note_on,0,0,2,,,,,,,,,0,,,56,100
74160,note_on,60,0,2,,,,,,,,,0,,,44,0
74160,note_on,0,0,2,,,,,,,,,0,,,51,0
74160,note_on,0,0,2,,,,,,,,,0,,,56,0
74160,note_on,0,0,2,,,,,,,,,0,,,56,100
74160,note_on,0,0,2,,,,,,,,,0,,,51,100
74160,note_on,60,0,1,,,,,,,,,0,,,60,0
74160,control_change,60,0,3,,,,,,,,,0,64,127,,
74160,note_on,0,0,1,,,,,,,,,0,,,60,100
74160,note_on,0,0,1,,,,,,,,,0,,,63,100
74160,note_on,0,0,1,,,,,,,,,0,,,72,100
74160,note_on,0,0,2,,,,,,,,,0,,,44,100
74160,note_on,0,0,1,,,,,,,,,0,,,63,0
74160,note_on,0,0,1,,,,,,,,,0,,,72,0
74280,note_on,0,0,2,,,,,,,,,0,,,44,100
74280,note_on,0,0,1,,,,,,,,,0,,,60,100
74280,note_on,0,0,1,,,,,,,,,0,,,63,100
74280,note_on,0,0,1,,,,,,,,,0,,,72,100
74280,note_on,120,0,2,,,,,,,,,0,,,44,0
74280,note_on,0,0,1,,,,,,,,,0,,,72,0
74280,note_on,0,0,2,,,,,,,,,0,,,51,0
74280,note_on,0,0,2,,,,,,,,,0,,,56,0
74280,note_on,0,0,2,,,,,,,,,0,,,56,100
74280,note_on,0,0,2,,,,,,,,,0,,,51,100
74280,note_on,0,0,1,,,,,,,,,0,,,63,0
74280,note_on,120,0,1,,,,,,,,,0,,,60,0
74460,note_on,0,0,1,,,,,,,,,0,,,63,0
74460,note_on,180,0,1,,,,,,,,,0,,,60,0
74460,note_on,0,0,2,,,,,,,,,0,,,56,0
74460,note_on,0,0,2,,,,,,,,,0,,,51,0
74460,note_on,180,0,2,,,,,,,,,0,,,44,0
74460,note_on,0,0,2,,,,,,,,,0,,,41,100
74460,note_on,0,0,1,,,,,,,,,0,,,72,0
74460,control_change,300,0,3,,,,,,,,,0,64,0,,
74460,note_on,0,0,1,,,,,,,,,0,,,68,100
74460,note_on,0,0,1,,,,,,,,,0,,,65,100
74460,note_on,0,0,1,,,,,,,,,0,,,60,100
74460,note_on,0,0,2,,,,,,,,,0,,,53,100
74520,note_on,0,0,2,,,,,,,,,0,,,41,0
74520,note_on,0,0,2,,,,,,,,,0,,,41,100
74520,note_on,60,0,2,,,,,,,,,0,,,53,0
74520,note_on,0,0,1,,,,,,,,,0,,,68,0
74520,note_on,0,0,1,,,,,,,,,0,,,60,100
74520,note_on,0,0,1,,,,,,,,,0,,,65,100
74520,note_on,0,0,2,,,,,,,,,0,,,53,100
74520,note_on,0,0,1,,,,,,,,,0,,,65,0
74520,note_on,0,0,1,,,,,,,,,0,,,68,100
74520,note_on,60,0,1,,,,,,,,,0,,,60,0
74550,note_on,30,0,2,,,,,,,,,0,,,53,0
74550,note_on,30,0,1,,,,,,,,,0,,,60,0
74550,note_on,0,0,1,,,,,,,,,0,,,65,0
74550,note_on,0,0,1,,,,,,,,,0,,,68,0
74550,note_on,0,0,2,,,,,,,,,0,,,41,0
74640,note_on,0,0,1,,,,,,,,,0,,,61,100
74640,note_on,0,0,1,,,,,,,,,0,,,63,100
74640,note_on,90,0,1,,,,,,,,,0,,,70,100
74640,note_on,90,0,2,,,,,,,,,0,,,43,100
74640,note_on,0,0,2,,,,,,,,,0,,,55,100
74670,note_on,30,0,1,,,,,,,,,0,,,61,0
74670,note_on,0,0,2,,,,,,,,,0,,,43,0
74670,note_on,0,0,1,,,,,,,,,0,,,70,0
74670,note_on,0,0,1,,,,,,,,,0,,,63,0
74670,note_on,30,0,2,,,,,,,,,0,,,55,0
74760,note_on,0,0,1,,,,,,,,,0,,,63,100
74760,note_on,0,0,1,,,,,,,,,0,,,61,100
74760,note_on,0,0,1,,,,,,,,,0,,,67,100
74760,note_on,90,0,1,,,,,,,,,0,,,73,100
74760,note_on,90,0,2,,,,,,,,,0,,,39,100
74760,note_on,0,0,2,,,,,,,,,0,,,51,100
74760,note_on,0,0,1,,,,,,,,,0,,,70,100
74790,note_on,30,0,1,,,,,,,,,0,,,61,0
74790,note_on,0,0,1,,,,,,,,,0,,,67,0
74790,note_on,0,0,1,,,,,,,,,0,,,73,0
74790,note_on,0,0,1,,,,,,,,,0,,,70,0
74790,note_on,0,0,1,,,,,,,,,0,,,63,0
74790,note_on,30,0,2,,,,,,,,,0,,,51,0
74790,note_on,0,0,2,,,,,,,,,0,,,39,0
74880,note_on,0,0,2,,,,,,,,,0,,,56,100
74880,note_on,0,0,1,,,,,,,,,0,,,63,100
74880,note_on,0,0,2,,,,,,,,,0,,,51,100
74880,note_on,0,0,1,,,,,,,,,0,,,60,100
74880,note_on,0,0,1,,,,,,,,,0,,,68,100
74880,control_change,420,0,3,,,,,,,,,0,64,127,,
74880,note_on,90,0,1,,,,,,,,,0,,,72,100
74880,note_on,90,0,2,,,,,,,,,0,,,44,100
75120,control_change,240,0,3,,,,,,,,,0,64,0,,
75180,note_on,300,0,2,,,,,,,,,0,,,56,0
75180,note_on,0,0,2,,,,,,,,,0,,,44,0
75180,note_on,300,0,1,,,,,,,,,0,,,60,0
75180,note_on,0,0,1,,,,,,,,,0,,,72,0
75180,note_on,0,0,1,,,,,,,,,0,,,63,0
75180,note_on,0,0,1,,,,,,,,,0,,,77,110
75180,note_on,0,0,1,,,,,,,,,0,,,68,110
75180,note_on,0,0,1,,,,,,,,,0,,,65,110
75180,control_change,60,0,3,,,,,,,,,0,64,127,,
75180,note_on,0,0,2,,,,,,,,,0,,,51,0
75180,note_on,0,0,1,,,,,,,,,0,,,68,0
75180,note_on,0,0,2,,,,,,,,,0,,,49,110
75180,note_on,0,0,2,,,,,,,,,0,,,44,110
75180,note_on,0,0,2,,,,,,,,,0,,,37,110
75240,note_on,0,0,1,,,,,,,,,0,,,68,0
75240,note_on,0,0,1,,,,,,,,,0,,,65,110
75240,note_on,0,0,1,,,,,,,,,0,,,68,110
75240,note_on,0,0,2,,,,,,,,,0,,,49,110
75240,note_on,0,0,2,,,,,,,,,0,,,44,110
75240,note_on,0,0,1,,,,,,,,,0,,,77,110
75240,note_on,0,0,2,,,,,,,,,0,,,37,110
75240,note_on,60,0,1,,,,,,,,,0,,,65,0
75240,note_on,0,0,2,,,,,,,,,0,,,49,0
75240,note_on,0,0,2,,,,,,,,,0,,,44,0
75240,note_on,60,0,2,,,,,,,,,0,,,37,0
75240,note_on,0,0,1,,,,,,,,,0,,,77,0
75360,note_on,120,0,1,,,,,,,,,0,,,65,0
75360,note_on,120,0,2,,,,,,,,,0,,,37,0
75360,note_on,0,0,1,,,,,,,,,0,,,77,0
75360,note_on,0,0,1,,,,,,,,,0,,,77,110
75360,note_on,0,0,1,,,,,,,,,0,,,68,110
75360,note_on,0,0,1,,,,,,,,,0,,,65,110
75360,note_on,0,0,2,,,,,,,,,0,,,49,110
75360,note_on,0,0,2,,,,,,,,,0,,,44,110
75360,note_on,0,0,2,,,,,,,,,0,,,37,110
75360,note_on,0,0,2,,,,,,,,,0,,,49,0
75360,note_on,0,0,2,,,,,,,,,0,,,44,0
75360,note_on,0,0,1,,,,,,,,,0,,,68,0
75540,note_on,0,0,2,,,,,,,,,0,,,37,110
75540,note_on,0,0,2,,,,,,,,,0,,,49,110
75540,note_on,0,0,2,,,,,,,,,0,,,37,0
75540,note_on,0,0,2,,,,,,,,,0,,,44,0
75540,note_on,180,0,2,,,,,,,,,0,,,49,0
75540,control_change,360,0,3,,,,,,,,,0,64,0,,
75540,note_on,0,0,2,,,,,,,,,0,,,44,110
75540,note_on,180,0,1,,,,,,,,,0,,,65,0
75540,note_on,0,0,1,,,,,,,,,0,,,68,0
75540,note_on,0,0,1,,,,,,,,,0,,,77,0
75540,note_on,0,0,1,,,,,,,,,0,,,73,110
75540,note_on,0,0,1,,,,,,,,,0,,,65,110
75540,note_on,0,0,1,,,,,,,,,0,,,68,110
75600,note_on,0,0,2,,,,,,,,,0,,,37,110
75600,note_on,0,0,2,,,,,,,,,0,,,49,0
75600,note_on,0,0,2,,,,,,,,,0,,,44,0
75600,note_on,60,0,2,,,,,,,,,0,,,37,0
75600,note_on,0,0,2,,,,,,,,,0,,,49,110
75600,note_on,0,0,2,,,,,,,,,0,,,44,110
75600,control_change,60,0,3,,,,,,,,,0,64,127,,
75600,note_on,60,0,1,,,,,,,,,0,,,65,0
75600,note_on,0,0,1,,,,,,,,,0,,,68,0
75600,note_on,0,0,1,,,,,,,,,0,,,68,110
75600,note_on,0,0,1,,,,,,,,,0,,,73,110
75600,note_on,0,0,1,,,,,,,,,0,,,73,0
75600,note_on,0,0,1,,,,,,,,,0,,,65,110
75720,note_on,0,0,2,,,,,,,,,0,,,37,110
75720,note_on,120,0,1,,,,,,,,,0,,,65,0
75720,note_on,0,0,1,,,,,,,,,0,,,68,0
75720,note_on,0,0,1,,,,,,,,,0,,,73,110
75720,note_on,0,0,1,,,,,,,,,0,,,68,110
75720,note_on,0,0,1,,,,,,,,,0,,,65,110
75720,note_on,0,0,2,,,,,,,,,0,,,49,110
75720,note_on,0,0,2,,,,,,,,,0,,,44,0
75720,note_on,0,0,2,,,,,,,,,0,,,37,0
75720,note_on,0,0,2,,,,,,,,,0,,,44,110
75720,note_on,0,0,1,,,,,,,,,0,,,73,0
75720,note_on,120,0,2,,,,,,,,,0,,,49,0
75900,note_on,180,0,1,,,,,,,,,0,,,65,0
75900,note_on,0,0,1,,,,,,,,,0,,,73,0
75900,note_on,0,0,1,,,,,,,,,0,,,68,110
75900,note_on,0,0,1,,,,,,,,,0,,,65,110
75900,note_on,0,0,1,,,,,,,,,0,,,68,0
75900,note_on,180,0,2,,,,,,,,,0,,,49,0
75900,note_on,0,0,2,,,,,,,,,0,,,49,110
75900,note_on,0,0,2,,,,,,,,,0,,,37,0
75900,note_on,0,0,2,,,,,,,,,0,,,37,110
75900,note_on,0,0,2,,,,,,,,,0,,,44,0
75900,control_change,300,0,3,,,,,,,,,0,64,0,,
75960,note_on,0,0,1,,,,,,,,,0,,,68,110
75960,note_on,0,0,1,,,,,,,,,0,,,68,0
75960,note_on,60,0,1,,,,,,,,,0,,,65,0
75960,note_on,0,0,1,,,,,,,,,0,,,65,110
75960,note_on,60,0,2,,,,,,,,,0,,,37,0
75960,note_on,0,0,2,,,,,,,,,0,,,49,0
75960,note_on,0,0,2,,,,,,,,,0,,,49,110
75960,note_on,0,0,2,,,,,,,,,0,,,37,110
75990,note_on,30,0,1,,,,,,,,,0,,,65,0
75990,note_on,0,0,2,,,,,,,,,0,,,49,0
75990,note_on,0,0,1,,,,,,,,,0,,,68,0
75990,note_on,30,0,2,,,,,,,,,0,,,37,0
76080,note_on,0,0,1,,,,,,,,,0,,,66,110
76080,note_on,90,0,1,,,,,,,,,0,,,73,110
76080,note_on,0,0,1,,,,,,,,,0,,,69,110
76080,note_on,0,0,2,,,,,,,,,0,,,33,110
76080,note_on,90,0,2,,,,,,,,,0,,,45,110
76110,note_on,0,0,1,,,,,,,,,0,,,73,0
76110,note_on,0,0,1,,,,,,,,,0,,,69,0
76110,note_on,30,0,2,,,,,,,,,0,,,33,0
76110,note_on,0,0,2,,,,,,,,,0,,,45,0
76110,note_on,30,0,1,,,,,,,,,0,,,66,0
76200,note_on,0,0,2,,,,,,,,,0,,,30,110
76200,note_on,90,0,2,,,,,,,,,0,,,42,110
76200,note_on,0,0,1,,,,,,,,,0,,,66,110
76200,note_on,0,0,1,,,,,,,,,0,,,69,110
76200,note_on,90,0,1,,,,,,,,,0,,,78,110
76200,note_on,0,0,1,,,,,,,,,0,,,73,110
76230,note_on,0,0,1,,,,,,,,,0,,,73,0
76230,note_on,0,0,2,,,,,,,,,0,,,42,0
76230,note_on,0,0,1,,,,,,,,,0,,,78,0
76230,note_on,0,0,1,,,,,,,,,0,,,69,0
76230,note_on,30,0,1,,,,,,,,,0,,,66,0
76230,note_on,30,0,2,,,,,,,,,0,,,30,0
76320,note_on,0,0,1,,,,,,,,,0,,,68,110
76320,note_on,0,0,2,,,,,,,,,0,,,49,110
76320,note_on,90,0,2,,,,,,,,,0,,,37,110
76320,control_change,420,0,3,,,,,,,,,0,64,127,,
76320,note_on,0,0,1,,,,,,,,,0,,,65,110
76320,note_on,0,0,1,,,,,,,,,0,,,73,110
76320,note_on,90,0,1,,,,,,,,,0,,,77,110
76620,note_on,0,0,1,,,,,,,,,0,,,78,110
76620,note_on,0,0,1,,,,,,,,,0,,,68,0
76620,note_on,0,0,1,,,,,,,,,0,,,73,0
76620,note_on,0,0,1,,,,,,,,,0,,,77,0
76620,note_on,0,0,1,,,,,,,,,0,,,73,110
76620,note_on,0,0,2,,,,,,,,,0,,,45,110
76620,note_on,0,0,2,,,,,,,,,0,,,33,110
76620,note_on,0,0,2,,,,,,,,,0,,,37,0
76620,note_on,300,0,1,,,,,,,,,0,,,65,0
76620,note_on,0,0,1,,,,,,,,,0,,,66,110
76620,note_on,300,0,2,,,,,,,,,0,,,49,0
76620,control_change,300,0,3,,,,,,,,,0,64,0,,
76680,note_on,60,0,2,,,,,,,,,0,,,45,0
76680,note_on,0,0,2,,,,,,,,,0,,,33,110
76680,note_on,0,0,2,,,,,,,,,0,,,45,110
76680,note_on,0,0,1,,,,,,,,,0,,,73,0
76680,note_on,0,0,1,,,,,,,,,0,,,78,0
76680,note_on,0,0,1,,,,,,,,,0,,,78,110
76680,note_on,0,0,1,,,,,,,,,0,,,73,110
76680,note_on,0,0,1,,,,,,,,,0,,,66,110
76680,note_on,0,0,2,,,,,,,,,0,,,33,0
76680,note_on,60,0,1,,,,,,,,,0,,,66,0
77040,note_on,360,0,1,,,,,,,,,0,,,66,0
77040,note_on,0,0,1,,,,,,,,,0,,,73,0
77040,note_on,0,0,1,,,,,,,,,0,,,78,0
77040,note_on,0,0,1,,,,,,,,,0,,,76,60
77040,note_on,0,0,1,,,,,,,,,0,,,73,60
77040,set_tempo,3240,1,0,,,,,,454580,,,,,,,
77040,control_change,420,0,3,,,,,,,,,0,64,127,,
77040,note_on,0,0,1,,,,,,,,,0,,,67,60
77054,set_tempo,14,1,0,,,,,,455615,,,,,,,
77061,set_tempo,7,1,0,,,,,,456656,,,,,,,
77068,set_tempo,7,1,0,,,,,,457701,,,,,,,
77075,set_tempo,7,1,0,,,,,,458751,,,,,,,
77082,set_tempo,7,1,0,,,,,,459805,,,,,,,
77089,set_tempo,7,1,0,,,,,,460865,,,,,,,
77096,set_tempo,7,1,0,,,,,,461929,,,,,,,
77103,set_tempo,7,1,0,,,,,,462999,,,,,,,
77110,set_tempo,7,1,0,,,,,,464073,,,,,,,
77117,set_tempo,7,1,0,,,,,,465152,,,,,,,
77124,set_tempo,7,1,0,,,,,,466237,,,,,,,
77131,set_tempo,7,1,0,,,,,,467326,,,,,,,
77138,set_tempo,7,1,0,,,,,,468421,,,,,,,
77145,set_tempo,7,1,0,,,,,,469520,,,,,,,
77152,set_tempo,7,1,0,,,,,,470625,,,,,,,
77160,note_on,0,0,1,,,,,,,,,0,,,75,60
77160,set_tempo,8,1,0,,,,,,471735,,,,,,,
77160,note_on,120,0,1,,,,,,,,,0,,,76,0
77167,set_tempo,7,1,0,,,,,,472851,,,,,,,
77174,set_tempo,7,1,0,,,,,,473971,,,,,,,
77181,set_tempo,7,1,0,,,,,,475097,,,,,,,
77188,set_tempo,7,1,0,,,,,,476228,,,,,,,
77195,set_tempo,7,1,0,,,,,,477365,,,,,,,
77202,set_tempo,7,1,0,,,,,,478507,,,,,,,
77209,set_tempo,7,1,0,,,,,,479655,,,,,,,
77216,set_tempo,7,1,0,,,,,,480808,,,,,,,
77223,set_tempo,7,1,0,,,,,,481966,,,,,,,
77230,set_tempo,7,1,0,,,,,,483131,,,,,,,
77237,set_tempo,7,1,0,,,,,,484301,,,,,,,
77244,set_tempo,7,1,0,,,,,,485476,,,,,,,
77251,set_tempo,7,1,0,,,,,,486657,,,,,,,
77258,set_tempo,7,1,0,,,,,,487845,,,,,,,
77265,set_tempo,7,1,0,,,,,,489037,,,,,,,
77272,set_tempo,7,1,0,,,,,,490236,,,,,,,
77280,note_on,0,0,1,,,,,,,,,0,,,73,0
77280,note_on,0,0,1,,,,,,,,,0,,,73,60
77280,set_tempo,8,1,0,,,,,,491441,,,,,,,
77280,control_change,240,0,3,,,,,,,,,0,64,0,,
77280,note_on,120,0,1,,,,,,,,,0,,,75,0
77287,set_tempo,7,1,0,,,,,,492651,,,,,,,
77294,set_tempo,7,1,0,,,,,,493868,,,,,,,
77301,set_tempo,7,1,0,,,,,,495090,,,,,,,
77308,set_tempo,7,1,0,,,,,,496319,,,,,,,
77315,set_tempo,7,1,0,,,,,,497554,,,,,,,
77322,set_tempo,7,1,0,,,,,,498795,,,,,,,
77329,set_tempo,7,1,0,,,,,,500042,,,,,,,
77336,set_tempo,7,1,0,,,,,,501295,,,,,,,
77340,note_on,60,0,1,,,,,,,,,0,,,73,0
77340,note_on,0,0,1,,,,,,,,,0,,,67,0
77340,note_on,0,0,1,,,,,,,,,0,,,61,60
77340,note_on,0,0,2,,,,,,,,,0,,,52,60
77340,note_on,0,0,2,,,,,,,,,0,,,40,60
77340,note_on,660,0,2,,,,,,,,,0,,,45,0
77340,note_on,0,0,2,,,,,,,,,0,,,33,0
77340,note_on,0,0,1,,,,,,,,,0,,,68,60
77343,set_tempo,7,1,0,,,,,,502555,,,,,,,
77350,set_tempo,7,1,0,,,,,,503821,,,,,,,
77357,set_tempo,7,1,0,,,,,,505093,,,,,,,
77364,set_tempo,7,1,0,,,,,,506372,,,,,,,
77370,note_on,30,0,2,,,,,,,,,0,,,52,0
77370,note_on,0,0,2,,,,,,,,,0,,,40,0
77370,note_on,30,0,1,,,,,,,,,0,,,68,0
77370,note_on,0,0,1,,,,,,,,,0,,,61,0
77371,set_tempo,7,1,0,,,,,,507657,,,,,,,
77378,set_tempo,7,1,0,,,,,,508949,,,,,,,
77385,set_tempo,7,1,0,,,,,,510247,,,,,,,
77392,set_tempo,7,1,0,,,,,,511553,,,,,,,
77400,note_on,0,0,1,,,,,,,,,0,,,68,110
77400,control_change,120,0,3,,,,,,,,,0,64,127,,
77400,note_on,30,0,1,,,,,,,,,0,,,61,110
77400,note_on,0,0,2,,,,,,,,,0,,,52,110
77400,note_on,30,0,2,,,,,,,,,0,,,40,110
77407,set_tempo,15,1,0,,,,,,512864,,,,,,,
77414,set_tempo,7,1,0,,,,,,514183,,,,,,,
77421,set_tempo,7,1,0,,,,,,515508,,,,,,,
77428,set_tempo,7,1,0,,,,,,516840,,,,,,,
77435,set_tempo,7,1,0,,,,,,518179,,,,,,,
77442,set_tempo,7,1,0,,,,,,519526,,,,,,,
77449,set_tempo,7,1,0,,,,,,520879,,,,,,,
77456,set_tempo,7,1,0,,,,,,522239,,,,,,,
77463,set_tempo,7,1,0,,,,,,523606,,,,,,,
77470,set_tempo,7,1,0,,,,,,524980,,,,,,,
77477,set_tempo,7,1,0,,,,,,526362,,,,,,,
77484,set_tempo,7,1,0,,,,,,527751,,,,,,,
77491,set_tempo,7,1,0,,,,,,529147,,,,,,,
77498,set_tempo,7,1,0,,,,,,530551,,,,,,,
77505,set_tempo,7,1,0,,,,,,531962,,,,,,,
77512,set_tempo,7,1,0,,,,,,533381,,,,,,,
77520,set_tempo,8,1,0,,,,,,534807,,,,,,,
77520,note_on,120,0,1,,,,,,,,,0,,,68,0
77520,note_on,0,0,1,,,,,,,,,0,,,70,93
77527,set_tempo,7,1,0,,,,,,536241,,,,,,,
77534,set_tempo,7,1,0,,,,,,537683,,,,,,,
77541,set_tempo,7,1,0,,,,,,539132,,,,,,,
77548,set_tempo,7,1,0,,,,,,540589,,,,,,,
77555,set_tempo,7,1,0,,,,,,542054,,,,,,,
77562,set_tempo,7,1,0,,,,,,543527,,,,,,,
77569,set_tempo,7,1,0,,,,,,545009,,,,,,,
77576,set_tempo,7,1,0,,,,,,546498,,,,,,,
77580,note_on,0,0,1,,,,,,,,,0,,,68,85
77580,note_on,60,0,1,,,,,,,,,0,,,70,0
77583,set_tempo,7,1,0,,,,,,547995,,,,,,,
77590,set_tempo,7,1,0,,,,,,549501,,,,,,,
77597,set_tempo,7,1,0,,,,,,551015,,,,,,,
77604,set_tempo,7,1,0,,,,,,552537,,,,,,,
77611,set_tempo,7,1,0,,,,,,554068,,,,,,,
77618,set_tempo,7,1,0,,,,,,555607,,,,,,,
77625,set_tempo,7,1,0,,,,,,557155,,,,,,,
77632,set_tempo,7,1,0,,,,,,558711,,,,,,,
77640,note_on,0,0,1,,,,,,,,,0,,,67,76
77640,note_on,60,0,1,,,,,,,,,0,,,68,0
77640,set_tempo,8,1,0,,,,,,560276,,,,,,,
77647,set_tempo,7,1,0,,,,,,561850,,,,,,,
77654,set_tempo,7,1,0,,,,,,563433,,,,,,,
77661,set_tempo,7,1,0,,,,,,565025,,,,,,,
77668,set_tempo,7,1,0,,,,,,566626,,,,,,,
77675,set_tempo,7,1,0,,,,,,568236,,,,,,,
77682,set_tempo,7,1,0,,,,,,569855,,,,,,,
77689,set_tempo,7,1,0,,,,,,571483,,,,,,,
77696,set_tempo,7,1,0,,,,,,573121,,,,,,,
77700,note_on,60,0,1,,,,,,,,,0,,,67,0
77700,note_on,0,0,1,,,,,,,,,0,,,68,68
77703,set_tempo,7,1,0,,,,,,574768,,,,,,,
77710,set_tempo,7,1,0,,,,,,576424,,,,,,,
77717,set_tempo,7,1,0,,,,,,578090,,,,,,,
77724,set_tempo,7,1,0,,,,,,579766,,,,,,,
77731,set_tempo,7,1,0,,,,,,581452,,,,,,,
77738,set_tempo,7,1,0,,,,,,583147,,,,,,,
77745,control_change,345,0,3,,,,,,,,,0,64,0,,
77745,set_tempo,7,1,0,,,,,,584852,,,,,,,
77745,note_on,45,0,1,,,,,,,,,0,,,68,61
77752,set_tempo,7,1,0,,,,,,586568,,,,,,,
77760,note_on,15,0,1,,,,,,,,,0,,,68,0
77760,note_on,0,0,1,,,,,,,,,0,,,61,0
77760,note_on,0,0,1,,,,,,,,,0,,,72,60
77760,note_on,0,0,1,,,,,,,,,0,,,62,60
77767,set_tempo,15,1,0,,,,,,588293,,,,,,,
77774,set_tempo,7,1,0,,,,,,590029,,,,,,,
77781,set_tempo,7,1,0,,,,,,591774,,,,,,,
77788,set_tempo,7,1,0,,,,,,593531,,,,,,,
77795,set_tempo,7,1,0,,,,,,595297,,,,,,,
77802,set_tempo,7,1,0,,,,,,597074,,,,,,,
77809,set_tempo,7,1,0,,,,,,598862,,,,,,,
77816,set_tempo,7,1,0,,,,,,600661,,,,,,,
77823,set_tempo,7,1,0,,,,,,602470,,,,,,,
77830,set_tempo,7,1,0,,,,,,604290,,,,,,,
77837,set_tempo,7,1,0,,,,,,606122,,,,,,,
77844,set_tempo,7,1,0,,,,,,607964,,,,,,,
77851,set_tempo,7,1,0,,,,,,609818,,,,,,,
77858,set_tempo,7,1,0,,,,,,611683,,,,,,,
77865,set_tempo,7,1,0,,,,,,613560,,,,,,,
77872,set_tempo,7,1,0,,,,,,615448,,,,,,,
77880,note_on,0,0,1,,,,,,,,,0,,,70,58
77880,set_tempo,8,1,0,,,,,,617347,,,,,,,
77880,note_on,120,0,1,,,,,,,,,0,,,72,0
77887,set_tempo,7,1,0,,,,,,619259,,,,,,,
77894,set_tempo,7,1,0,,,,,,621182,,,,,,,
77901,set_tempo,7,1,0,,,,,,623118,,,,,,,
77908,set_tempo,7,1,0,,,,,,625065,,,,,,,
77915,set_tempo,7,1,0,,,,,,627025,,,,,,,
77922,set_tempo,7,1,0,,,,,,628997,,,,,,,
77929,set_tempo,7,1,0,,,,,,630981,,,,,,,
77936,set_tempo,7,1,0,,,,,,632978,,,,,,,
77943,set_tempo,7,1,0,,,,,,634988,,,,,,,
77950,set_tempo,7,1,0,,,,,,637010,,,,,,,
77957,set_tempo,7,1,0,,,,,,639046,,,,,,,
77964,set_tempo,7,1,0,,,,,,641094,,,,,,,
77971,set_tempo,7,1,0,,,,,,643156,,,,,,,
77978,set_tempo,7,1,0,,,,,,645231,,,,,,,
77985,set_tempo,7,1,0,,,,,,647319,,,,,,,
77992,set_tempo,7,1,0,,,,,,649421,,,,,,,
78000,set_tempo,8,1,0,,,,,,651537,,,,,,,
78000,note_on,120,0,1,,,,,,,,,0,,,70,0
78000,note_on,0,0,1,,,,,,,,,0,,,68,55
78007,set_tempo,7,1,0,,,,,,653666,,,,,,,
78014,set_tempo,7,1,0,,,,,,655809,,,,,,,
78021,set_tempo,7,1,0,,,,,,657967,,,,,,,
78028,set_tempo,7,1,0,,,,,,660139,,,,,,,
78035,set_tempo,7,1,0,,,,,,662325,,,,,,,
78042,set_tempo,7,1,0,,,,,,664525,,,,,,,
78049,set_tempo,7,1,0,,,,,,666741,,,,,,,
78056,set_tempo,7,1,0,,,,,,668971,,,,,,,
78063,set_tempo,7,1,0,,,,,,671216,,,,,,,
78070,set_tempo,7,1,0,,,,,,673476,,,,,,,
78077,set_tempo,7,1,0,,,,,,675752,,,,,,,
78084,set_tempo,7,1,0,,,,,,678043,,,,,,,
78091,set_tempo,7,1,0,,,,,,680349,,,,,,,
78098,set_tempo,7,1,0,,,,,,682672,,,,,,,
78105,set_tempo,7,1,0,,,,,,685010,,,,,,,
78112,set_tempo,7,1,0,,,,,,687364,,,,,,,
78120,note_on,0,0,1,,,,,,,,,0,,,56,53
78120,note_on,0,0,1,,,,,,,,,0,,,60,53
78120,note_on,0,0,1,,,,,,,,,0,,,62,0
78120,note_on,120,0,1,,,,,,,,,0,,,68,0
78120,note_on,720,0,2,,,,,,,,,0,,,52,0
78120,note_on,0,0,2,,,,,,,,,0,,,40,0
78120,note_on,0,0,2,,,,,,,,,0,,,51,53
78120,note_on,0,0,2,,,,,,,,,0,,,39,63
78120,control_change,375,0,3,,,,,,,,,0,64,127,,
78120,note_on,0,0,1,,,,,,,,,0,,,68,0
78120,note_on,0,0,1,,,,,,,,,0,,,63,53
78127,set_tempo,15,1,0,,,,,,689734,,,,,,,
78134,set_tempo,7,1,0,,,,,,692121,,,,,,,
78141,set_tempo,7,1,0,,,,,,694525,,,,,,,
78148,set_tempo,7,1,0,,,,,,696945,,,,,,,
78155,set_tempo,7,1,0,,,,,,699382,,,,,,,
78162,set_tempo,7,1,0,,,,,,701836,,,,,,,
78169,set_tempo,7,1,0,,,,,,704308,,,,,,,
78176,set_tempo,7,1,0,,,,,,706797,,,,,,,
78183,set_tempo,7,1,0,,,,,,709304,,,,,,,
78190,set_tempo,7,1,0,,,,,,711828,,,,,,,
78197,set_tempo,7,1,0,,,,,,714371,,,,,,,
78204,set_tempo,7,1,0,,,,,,716932,,,,,,,
78211,set_tempo,7,1,0,,,,,,719511,,,,,,,
78218,set_tempo,7,1,0,,,,,,722109,,,,,,,
78225,set_tempo,7,1,0,,,,,,724725,,,,,,,
78232,set_tempo,7,1,0,,,,,,727361,,,,,,,
78240,set_tempo,8,1,0,,,,,,730016,,,,,,,
78240,note_on,0,0,1,,,,,,,,,0,,,63,50
78240,note_on,0,0,2,,,,,,,,,0,,,51,50
78240,note_on,120,0,1,,,,,,,,,0,,,63,0
78240,note_on,120,0,2,,,,,,,,,0,,,51,0
78247,set_tempo,7,1,0,,,,,,732690,,,,,,,
78254,set_tempo,7,1,0,,,,,,735384,,,,,,,
78261,set_tempo,7,1,0,,,,,,738098,,,,,,,
78268,set_tempo,7,1,0,,,,,,740832,,,,,,,
78275,set_tempo,7,1,0,,,,,,743587,,,,,,,
78282,set_tempo,7,1,0,,,,,,746361,,,,,,,
78289,set_tempo,7,1,0,,,,,,749157,,,,,,,
78296,set_tempo,7,1,0,,,,,,751974,,,,,,,
78303,set_tempo,7,1,0,,,,,,754812,,,,,,,
78310,set_tempo,7,1,0,,,,,,757671,,,,,,,
78317,set_tempo,7,1,0,,,,,,760553,,,,,,,
78324,set_tempo,7,1,0,,,,,,763456,,,,,,,
78331,set_tempo,7,1,0,,,,,,766381,,,,,,,
78338,set_tempo,7,1,0,,,,,,769329,,,,,,,
78345,set_tempo,7,1,0,,,,,,772300,,,,,,,
78352,set_tempo,7,1,0,,,,,,775294,,,,,,,
78360,control_change,240,0,3,,,,,,,,,0,64,0,,
78360,set_tempo,8,1,0,,,,,,778311,,,,,,,
78367,set_tempo,7,1,0,,,,,,781352,,,,,,,
78374,set_tempo,7,1,0,,,,,,784416,,,,,,,
78381,set_tempo,7,1,0,,,,,,787505,,,,,,,
78388,set_tempo,7,1,0,,,,,,790618,,,,,,,
78395,set_tempo,7,1,0,,,,,,793756,,,,,,,
78402,set_tempo,7,1,0,,,,,,796919,,,,,,,
78409,set_tempo,7,1,0,,,,,,800107,,,,,,,
78416,set_tempo,7,1,0,,,,,,803320,,,,,,,
78423,set_tempo,7,1,0,,,,,,806560,,,,,,,
78430,set_tempo,7,1,0,,,,,,809826,,,,,,,
78437,set_tempo,7,1,0,,,,,,813118,,,,,,,
78444,set_tempo,7,1,0,,,,,,816438,,,,,,,
78451,set_tempo,7,1,0,,,,,,819784,,,,,,,
78458,set_tempo,7,1,0,,,,,,823158,,,,,,,
78465,set_tempo,7,1,0,,,,,,826560,,,,,,,
78472,set_tempo,7,1,0,,,,,,829990,,,,,,,
78480,note_on,0,0,1,,,,,,,,,0,,,58,45
78480,note_on,0,0,1,,,,,,,,,0,,,55,45
78480,note_on,0,0,1,,,,,,,,,0,,,63,45
78480,note_on,0,0,1,,,,,,,,,0,,,56,0
78480,note_on,0,0,1,,,,,,,,,0,,,60,0
78480,note_on,240,0,1,,,,,,,,,0,,,63,0
78480,set_tempo,8,1,0,,,,,,833333,,,,,,,
78480,control_change,120,0,3,,,,,,,,,0,64,127,,
78480,note_on,240,0,2,,,,,,,,,0,,,51,0
78480,note_on,0,0,2,,,,,,,,,0,,,39,0
78480,note_on,0,0,2,,,,,,,,,0,,,51,45
78480,note_on,0,0,2,,,,,,,,,0,,,39,55
78480,note_on,0,0,1,,,,,,,,,0,,,61,45
78600,note_on,120,0,2,,,,,,,,,0,,,51,0
78600,note_on,0,0,1,,,,,,,,,0,,,63,42
78600,note_on,120,0,1,,,,,,,,,0,,,63,0
78600,set_tempo,120,1,0,,,,,,1250000,,,,,,,
78600,note_on,0,0,2,,,,,,,,,0,,,51,42
78720,note_on,0,0,1,,,,,,,,,0,,,55,0
78720,set_tempo,120,1,0,,,,,,454545,,,,,,,
78720,note_on,0,0,1,,,,,,,,,0,,,61,0
78720,note_on,120,0,2,,,,,,,,,0,,,51,0
78720,note_on,0,0,2,,,,,,,,,0,,,39,0
78720,note_on,0,0,2,,,,,,,,,0,,,51,50
78720,control_change,240,0,3,,,,,,,,,0,64,0,,
78720,note_on,0,0,1,,,,,,,,,0,,,63,50
78720,note_on,0,0,1,,,,,,,,,0,,,58,0
78720,note_on,120,0,1,,,,,,,,,0,,,63,0
78840,note_on,120,0,2,,,,,,,,,0,,,51,0
78840,note_on,0,0,2,,,,,,,,,0,,,51,42
78840,note_on,0,0,2,,,,,,,,,0,,,44,52
78840,control_change,120,0,3,,,,,,,,,0,64,127,,
78840,note_on,0,0,1,,,,,,,,,0,,,60,42
78840,note_on,0,0,1,,,,,,,,,0,,,68,52
78840,note_on,0,0,1,,,,,,,,,0,,,63,42
78840,note_on,120,0,1,,,,,,,,,0,,,63,0
78960,note_on,120,0,1,,,,,,,,,0,,,68,0
78960,note_on,0,0,2,,,,,,,,,0,,,51,44
78960,note_on,120,0,2,,,,,,,,,0,,,51,0
78960,note_on,0,0,1,,,,,,,,,0,,,60,0
78960,note_on,0,0,1,,,,,,,,,0,,,68,54
78960,note_on,0,0,1,,,,,,,,,0,,,60,44
78960,note_on,0,0,1,,,,,,,,,0,,,63,44
78960,note_on,0,0,1,,,,,,,,,0,,,63,0
79080,control_change,240,0,3,,,,,,,,,0,64,0,,
79140,note_on,0,0,1,,,,,,,,,0,,,70,57
79140,note_on,180,0,1,,,,,,,,,0,,,68,0
79200,note_on,240,0,2,,,,,,,,,0,,,51,0
79200,note_on,0,0,2,,,,,,,,,0,,,44,0
79200,note_on,0,0,2,,,,,,,,,0,,,51,48
79200,note_on,0,0,2,,,,,,,,,0,,,46,58
79200,note_on,0,0,1,,,,,,,,,0,,,68,58
79200,note_on,0,0,1,,,,,,,,,0,,,63,48
79200,note_on,0,0,1,,,,,,,,,0,,,63,0
79200,note_on,60,0,1,,,,,,,,,0,,,70,0
79200,note_on,0,0,1,,,,,,,,,0,,,60,0
79200,note_on,0,0,1,,,,,,,,,0,,,61,48
79320,note_on,120,0,2,,,,,,,,,0,,,51,0
79320,control_change,240,0,3,,,,,,,,,0,64,127,,
79320,note_on,0,0,1,,,,,,,,,0,,,67,60
79320,note_on,0,0,1,,,,,,,,,0,,,61,0
79320,note_on,120,0,1,,,,,,,,,0,,,68,0
79320,note_on,0,0,1,,,,,,,,,0,,,63,0
79320,note_on,0,0,2,,,,,,,,,0,,,51,50
79320,note_on,0,0,1,,,,,,,,,0,,,61,50
79320,note_on,0,0,1,,,,,,,,,0,,,63,50
79500,note_on,180,0,1,,,,,,,,,0,,,67,0
79500,note_on,0,0,1,,,,,,,,,0,,,70,64
79560,control_change,240,0,3,,,,,,,,,0,64,0,,
79560,note_on,0,0,2,,,,,,,,,0,,,48,65
79560,note_on,0,0,2,,,,,,,,,0,,,46,0
79560,note_on,0,0,2,,,,,,,,,0,,,51,55
79560,note_on,0,0,1,,,,,,,,,0,,,70,65
79560,note_on,0,0,1,,,,,,,,,0,,,61,0
79560,note_on,0,0,1,,,,,,,,,0,,,63,0
79560,note_on,60,0,1,,,,,,,,,0,,,70,0
79560,note_on,240,0,2,,,,,,,,,0,,,51,0
79680,note_on,0,0,1,,,,,,,,,0,,,68,67
79680,note_on,120,0,1,,,,,,,,,0,,,70,0
79680,note_on,120,0,2,,,,,,,,,0,,,51,0
79680,note_on,0,0,2,,,,,,,,,0,,,51,57
79680,note_on,0,0,1,,,,,,,,,0,,,63,57
79800,note_on,120,0,2,,,,,,,,,0,,,51,0
79800,note_on,0,0,2,,,,,,,,,0,,,48,0
79800,note_on,0,0,1,,,,,,,,,0,,,70,69
79800,note_on,0,0,2,,,,,,,,,0,,,51,59
79800,note_on,120,0,1,,,,,,,,,0,,,68,0
79800,note_on,0,0,1,,,,,,,,,0,,,63,0
79800,note_on,0,0,1,,,,,,,,,0,,,61,59
79800,note_on,0,0,1,,,,,,,,,0,,,63,59
79800,note_on,0,0,2,,,,,,,,,0,,,43,69
79920,note_on,120,0,1,,,,,,,,,0,,,70,0
79920,note_on,0,0,1,,,,,,,,,0,,,61,0
79920,note_on,0,0,1,,,,,,,,,0,,,63,61
79920,note_on,0,0,1,,,,,,,,,0,,,60,61
79920,note_on,0,0,1,,,,,,,,,0,,,63,0
79920,note_on,0,0,2,,,,,,,,,0,,,44,71
79920,note_on,0,0,2,,,,,,,,,0,,,51,61
79920,note_on,0,0,2,,,,,,,,,0,,,51,0
79920,note_on,120,0,2,,,,,,,,,0,,,43,0
79920,note_on,0,0,1,,,,,,,,,0,,,72,71
80160,note_on,240,0,1,,,,,,,,,0,,,72,0
80160,note_on,0,0,1,,,,,,,,,0,,,60,0
80160,note_on,240,0,2,,,,,,,,,0,,,44,0
80160,note_on,0,0,1,,,,,,,,,0,,,63,0
80160,note_on,0,0,2,,,,,,,,,0,,,51,0
80160,note_on,0,0,2,,,,,,,,,0,,,51,76
80160,note_on,0,0,1,,,,,,,,,0,,,63,76
80280,note_on,0,0,2,,,,,,,,,0,,,42,78
80280,note_on,120,0,2,,,,,,,,,0,,,51,0
80280,note_on,0,0,2,,,,,,,,,0,,,51,68
80280,control_change,720,0,3,,,,,,,,,0,64,127,,
80280,note_on,120,0,1,,,,,,,,,0,,,63,0
80280,note_on,0,0,1,,,,,,,,,0,,,63,68
80280,note_on,0,0,1,,,,,,,,,0,,,60,68
80280,note_on,0,0,1,,,,,,,,,0,,,72,78
80400,note_on,0,0,1,,,,,,,,,0,,,63,70
80400,note_on,0,0,1,,,,,,,,,0,,,63,0
80400,note_on,0,0,1,,,,,,,,,0,,,72,80
80400,note_on,0,0,2,,,,,,,,,0,,,51,70
80400,note_on,120,0,2,,,,,,,,,0,,,51,0
80400,note_on,0,0,1,,,,,,,,,0,,,60,70
80400,note_on,120,0,1,,,,,,,,,0,,,72,0
80400,note_on,0,0,1,,,,,,,,,0,,,60,0
80580,note_on,0,0,1,,,,,,,,,0,,,61,73
80580,note_on,0,0,1,,,,,,,,,0,,,63,0
80580,note_on,0,0,1,,,,,,,,,0,,,60,0
80580,note_on,180,0,1,,,,,,,,,0,,,72,0
80580,note_on,0,0,1,,,,,,,,,0,,,70,83
80580,note_on,0,0,1,,,,,,,,,0,,,58,73
80640,note_on,240,0,2,,,,,,,,,0,,,51,0
80640,note_on,0,0,2,,,,,,,,,0,,,51,74
80640,note_on,0,0,1,,,,,,,,,0,,,70,84
80640,note_on,0,0,1,,,,,,,,,0,,,58,74
80640,note_on,0,0,1,,,,,,,,,0,,,61,74
80640,note_on,0,0,1,,,,,,,,,0,,,58,0
80640,note_on,0,0,1,,,,,,,,,0,,,61,0
80640,note_on,60,0,1,,,,,,,,,0,,,70,0
80640,control_change,360,0,3,,,,,,,,,0,64,0,,
80640,note_on,0,0,2,,,,,,,,,0,,,42,0
80640,note_on,0,0,2,,,,,,,,,0,,,41,84
80760,note_on,0,0,1,,,,,,,,,0,,,69,87
80760,note_on,0,0,1,,,,,,,,,0,,,57,77
80760,note_on,0,0,1,,,,,,,,,0,,,60,77
80760,note_on,0,0,1,,,,,,,,,0,,,61,0
80760,note_on,120,0,1,,,,,,,,,0,,,70,0
80760,note_on,0,0,1,,,,,,,,,0,,,58,0
80760,note_on,0,0,2,,,,,,,,,0,,,51,77
80760,note_on,120,0,2,,,,,,,,,0,,,51,0
80940,note_on,0,0,1,,,,,,,,,0,,,61,80
80940,note_on,0,0,1,,,,,,,,,0,,,70,90
80940,note_on,0,0,1,,,,,,,,,0,,,58,80
80940,note_on,0,0,1,,,,,,,,,0,,,60,0
80940,note_on,0,0,2,,,,,,,,,0,,,49,80
80940,note_on,180,0,1,,,,,,,,,0,,,69,0
80940,note_on,0,0,2,,,,,,,,,0,,,40,90
80940,note_on,0,0,2,,,,,,,,,0,,,41,0
80940,note_on,180,0,2,,,,,,,,,0,,,51,0
80940,note_on,0,0,1,,,,,,,,,0,,,57,0
81000,note_on,60,0,1,,,,,,,,,0,,,70,0
81000,note_on,0,0,1,,,,,,,,,0,,,58,0
81000,note_on,0,0,1,,,,,,,,,0,,,61,0
81000,note_on,0,0,1,,,,,,,,,0,,,61,80
81000,note_on,0,0,1,,,,,,,,,0,,,58,80
81000,note_on,0,0,1,,,,,,,,,0,,,70,90
81000,note_on,60,0,2,,,,,,,,,0,,,40,0
81000,note_on,0,0,2,,,,,,,,,0,,,49,0
81000,note_on,0,0,2,,,,,,,,,0,,,49,80
81000,note_on,0,0,2,,,,,,,,,0,,,40,90
81120,note_on,0,0,1,,,,,,,,,0,,,60,66
81120,note_on,120,0,2,,,,,,,,,0,,,40,0
81120,note_on,0,0,2,,,,,,,,,0,,,49,0
81120,note_on,0,0,2,,,,,,,,,0,,,51,66
81120,note_on,0,0,1,,,,,,,,,0,,,68,76
81120,note_on,0,0,2,,,,,,,,,0,,,39,76
81120,note_on,0,0,1,,,,,,,,,0,,,58,0
81120,note_on,0,0,1,,,,,,,,,0,,,56,66
81120,note_on,0,0,1,,,,,,,,,0,,,61,0
81120,note_on,120,0,1,,,,,,,,,0,,,70,0
81240,note_on,0,0,2,,,,,,,,,0,,,39,61
81240,note_on,0,0,2,,,,,,,,,0,,,51,51
81240,note_on,0,0,2,,,,,,,,,0,,,49,51
81240,note_on,0,0,2,,,,,,,,,0,,,51,0
81240,note_on,0,0,1,,,,,,,,,0,,,55,51
81240,note_on,120,0,1,,,,,,,,,0,,,68,0
81240,note_on,0,0,1,,,,,,,,,0,,,60,0
81240,note_on,0,0,1,,,,,,,,,0,,,56,0
81240,note_on,0,0,1,,,,,,,,,0,,,67,61
81240,note_on,120,0,2,,,,,,,,,0,,,39,0
81240,note_on,0,0,1,,,,,,,,,0,,,58,51
81270,note_on,30,0,1,,,,,,,,,0,,,67,0
81270,note_on,0,0,2,,,,,,,,,0,,,49,0
81270,note_on,30,0,2,,,,,,,,,0,,,39,0
81270,note_on,0,0,1,,,,,,,,,0,,,55,0
81270,note_on,0,0,1,,,,,,,,,0,,,58,0
81270,note_on,0,0,2,,,,,,,,,0,,,51,0
81360,note_on,0,0,1,,,,,,,,,0,,,56,40
81360,note_on,0,0,1,,,,,,,,,0,,,68,50
81360,note_on,90,0,2,,,,,,,,,0,,,48,40
81360,note_on,0,0,2,,,,,,,,,0,,,51,40
81360,note_on,0,0,2,,,,,,,,,0,,,44,50
81360,note_on,90,0,1,,,,,,,,,0,,,60,40
81600,note_on,240,0,1,,,,,,,,,0,,,68,0
81600,note_on,0,0,1,,,,,,,,,0,,,56,0
81600,note_on,0,0,1,,,,,,,,,0,,,60,0
81600,note_on,240,0,2,,,,,,,,,0,,,44,0
81600,note_on,0,0,2,,,,,,,,,0,,,51,0
81600,note_on,0,0,2,,,,,,,,,0,,,48,0
81600,control_change,960,0,3,,,,,,,,,0,64,127,,
81600,note_on,0,0,1,,,,,,,,,0,,,75,50
81600,note_on,0,0,2,,,,,,,,,0,,,51,50
81720,note_on,0,0,2,,,,,,,,,0,,,44,52
81720,note_on,0,0,1,,,,,,,,,0,,,75,42
81720,note_on,0,0,1,,,,,,,,,0,,,72,42
81720,note_on,120,0,2,,,,,,,,,0,,,51,0
81720,note_on,120,0,1,,,,,,,,,0,,,75,0
81720,note_on,0,0,1,,,,,,,,,0,,,80,52
81720,note_on,0,0,2,,,,,,,,,0,,,51,42
81840,note_on,120,0,1,,,,,,,,,0,,,80,0
81840,note_on,0,0,1,,,,,,,,,0,,,72,0
81840,note_on,0,0,1,,,,,,,,,0,,,75,0
81840,note_on,0,0,1,,,,,,,,,0,,,75,44
81840,note_on,120,0,2,,,,,,,,,0,,,51,0
81840,note_on,0,0,2,,,,,,,,,0,,,51,44
81840,note_on,0,0,1,,,,,,,,,0,,,72,44
81840,note_on,0,0,1,,,,,,,,,0,,,80,54
82020,note_on,180,0,1,,,,,,,,,0,,,80,0
82020,note_on,0,0,1,,,,,,,,,0,,,82,57
82020,control_change,420,0,3,,,,,,,,,0,64,0,,
82080,note_on,0,0,1,,,,,,,,,0,,,73,48
82080,note_on,0,0,1,,,,,,,,,0,,,75,48
82080,note_on,0,0,1,,,,,,,,,0,,,80,58
82080,note_on,0,0,1,,,,,,,,,0,,,75,0
82080,note_on,0,0,2,,,,,,,,,0,,,46,58
82080,note_on,240,0,2,,,,,,,,,0,,,51,0
82080,note_on,0,0,2,,,,,,,,,0,,,44,0
82080,note_on,60,0,1,,,,,,,,,0,,,82,0
82080,note_on,0,0,1,,,,,,,,,0,,,72,0
82080,note_on,0,0,2,,,,,,,,,0,,,51,48
82200,note_on,120,0,2,,,,,,,,,0,,,51,0
82200,note_on,0,0,2,,,,,,,,,0,,,51,50
82200,note_on,0,0,1,,,,,,,,,0,,,73,0
82200,note_on,0,0,1,,,,,,,,,0,,,75,50
82200,note_on,0,0,1,,,,,,,,,0,,,79,60
82200,control_change,180,0,3,,,,,,,,,0,64,127,,
82200,note_on,0,0,1,,,,,,,,,0,,,73,50
82200,note_on,120,0,1,,,,,,,,,0,,,80,0
82200,note_on,0,0,1,,,,,,,,,0,,,75,0
82380,note_on,180,0,1,,,,,,,,,0,,,79,0
82380,note_on,0,0,1,,,,,,,,,0,,,82,64
82440,control_change,240,0,3,,,,,,,,,0,64,0,,
82440,note_on,0,0,1,,,,,,,,,0,,,73,0
82440,note_on,60,0,1,,,,,,,,,0,,,82,0
82440,note_on,0,0,1,,,,,,,,,0,,,75,0
82440,note_on,0,0,2,,,,,,,,,0,,,48,65
82440,note_on,0,0,2,,,,,,,,,0,,,51,55
82440,note_on,0,0,2,,,,,,,,,0,,,46,0
82440,note_on,240,0,2,,,,,,,,,0,,,51,0
82440,note_on,0,0,1,,,,,,,,,0,,,82,65
82560,note_on,120,0,1,,,,,,,,,0,,,82,0
82560,note_on,0,0,1,,,,,,,,,0,,,80,67
82560,note_on,0,0,1,,,,,,,,,0,,,75,57
82560,note_on,0,0,2,,,,,,,,,0,,,51,57
82560,note_on,120,0,2,,,,,,,,,0,,,51,0
82680,note_on,120,0,2,,,,,,,,,0,,,51,0
82680,note_on,0,0,2,,,,,,,,,0,,,48,0
82680,note_on,120,0,1,,,,,,,,,0,,,80,0
82680,note_on,0,0,1,,,,,,,,,0,,,75,0
82680,note_on,0,0,1,,,,,,,,,0,,,73,59
82680,note_on,0,0,1,,,,,,,,,0,,,75,59
82680,note_on,0,0,1,,,,,,,,,0,,,82,69
82680,note_on,0,0,2,,,,,,,,,0,,,51,59
82680,note_on,0,0,2,,,,,,,,,0,,,43,69
82800,note_on,0,0,1,,,,,,,,,0,,,75,61
82800,note_on,0,0,2,,,,,,,,,0,,,44,71
82800,note_on,0,0,2,,,,,,,,,0,,,51,61
82800,note_on,120,0,2,,,,,,,,,0,,,43,0
82800,note_on,0,0,1,,,,,,,,,0,,,73,0
82800,note_on,0,0,1,,,,,,,,,0,,,72,61
82800,note_on,0,0,1,,,,,,,,,0,,,84,71
82800,note_on,120,0,1,,,,,,,,,0,,,82,0
82800,note_on,0,0,1,,,,,,,,,0,,,75,0
82800,note_on,0,0,2,,,,,,,,,0,,,51,0
83040,note_on,0,0,2,,,,,,,,,0,,,51,0
83040,note_on,240,0,2,,,,,,,,,0,,,44,0
83040,note_on,0,0,2,,,,,,,,,0,,,51,76
83040,note_on,0,0,1,,,,,,,,,0,,,75,76
83040,note_on,240,0,1,,,,,,,,,0,,,84,0
83040,note_on,0,0,1,,,,,,,,,0,,,75,0
83040,note_on,0,0,1,,,,,,,,,0,,,72,0
83160,note_on,0,0,2,,,,,,,,,0,,,42,78
83160,note_on,120,0,1,,,,,,,,,0,,,75,0
83160,note_on,0,0,2,,,,,,,,,0,,,51,68
83160,note_on,120,0,2,,,,,,,,,0,,,51,0
83160,note_on,0,0,1,,,,,,,,,0,,,72,68
83160,note_on,0,0,1,,,,,,,,,0,,,84,78
83160,note_on,0,0,1,,,,,,,,,0,,,75,68
83160,control_change,720,0,3,,,,,,,,,0,64,127,,
83280,note_on,0,0,2,,,,,,,,,0,,,51,70
83280,note_on,120,0,2,,,,,,,,,0,,,51,0
83280,note_on,120,0,1,,,,,,,,,0,,,84,0
83280,note_on,0,0,1,,,,,,,,,0,,,84,80
83280,note_on,0,0,1,,,,,,,,,0,,,72,70
83280,note_on,0,0,1,,,,,,,,,0,,,75,70
83280,note_on,0,0,1,,,,,,,,,0,,,72,0
83280,note_on,0,0,1,,,,,,,,,0,,,75,0
83460,note_on,0,0,1,,,,,,,,,0,,,72,0
83460,note_on,0,0,1,,,,,,,,,0,,,75,0
83460,note_on,0,0,1,,,,,,,,,0,,,73,73
83460,note_on,0,0,1,,,,,,,,,0,,,82,83
83460,note_on,180,0,1,,,,,,,,,0,,,84,0
83460,note_on,0,0,1,,,,,,,,,0,,,70,73
83520,note_on,240,0,2,,,,,,,,,0,,,51,0
83520,note_on,0,0,2,,,,,,,,,0,,,42,0
83520,note_on,0,0,2,,,,,,,,,0,,,51,74
83520,note_on,0,0,2,,,,,,,,,0,,,41,84
83520,note_on,0,0,1,,,,,,,,,0,,,82,84
83520,note_on,0,0,1,,,,,,,,,0,,,70,74
83520,note_on,0,0,1,,,,,,,,,0,,,73,74
83520,note_on,0,0,1,,,,,,,,,0,,,73,0
83520,note_on,60,0,1,,,,,,,,,0,,,82,0
83520,control_change,360,0,3,,,,,,,,,0,64,0,,
83520,note_on,0,0,1,,,,,,,,,0,,,70,0
83640,note_on,0,0,1,,,,,,,,,0,,,73,0
83640,note_on,0,0,2,,,,,,,,,0,,,51,77
83640,note_on,120,0,2,,,,,,,,,0,,,51,0
83640,note_on,0,0,1,,,,,,,,,0,,,70,0
83640,note_on,120,0,1,,,,,,,,,0,,,82,0
83640,note_on,0,0,1,,,,,,,,,0,,,72,77
83640,note_on,0,0,1,,,,,,,,,0,,,69,77
83640,note_on,0,0,1,,,,,,,,,0,,,81,87
83820,note_on,0,0,1,,,,,,,,,0,,,70,80
83820,note_on,0,0,2,,,,,,,,,0,,,40,90
83820,note_on,0,0,1,,,,,,,,,0,,,72,0
83820,note_on,0,0,1,,,,,,,,,0,,,73,80
83820,note_on,0,0,1,,,,,,,,,0,,,69,0
83820,note_on,0,0,1,,,,,,,,,0,,,82,90
83820,note_on,0,0,2,,,,,,,,,0,,,49,80
83820,note_on,180,0,1,,,,,,,,,0,,,81,0
83820,note_on,180,0,2,,,,,,,,,0,,,51,0
83820,note_on,0,0,2,,,,,,,,,0,,,41,0
83880,note_on,60,0,1,,,,,,,,,0,,,82,0
83880,note_on,0,0,1,,,,,,,,,0,,,70,0
83880,note_on,0,0,1,,,,,,,,,0,,,73,0
83880,note_on,0,0,2,,,,,,,,,0,,,40,90
83880,note_on,0,0,2,,,,,,,,,0,,,49,80
83880,note_on,0,0,2,,,,,,,,,0,,,49,0
83880,note_on,60,0,2,,,,,,,,,0,,,40,0
83880,note_on,0,0,1,,,,,,,,,0,,,73,80
83880,note_on,0,0,1,,,,,,,,,0,,,70,80
83880,note_on,0,0,1,,,,,,,,,0,,,82,90
84000,note_on,120,0,2,,,,,,,,,0,,,40,0
84000,note_on,120,0,1,,,,,,,,,0,,,82,0
84000,note_on,0,0,1,,,,,,,,,0,,,70,0
84000,note_on,0,0,1,,,,,,,,,0,,,73,0
84000,note_on,0,0,2,,,,,,,,,0,,,49,0
84000,note_on,0,0,1,,,,,,,,,0,,,72,66
84000,note_on,0,0,1,,,,,,,,,0,,,80,76
84000,note_on,0,0,2,,,,,,,,,0,,,51,66
84000,note_on,0,0,1,,,,,,,,,0,,,68,66
84000,note_on,0,0,2,,,,,,,,,0,,,39,76
84120,note_on,0,0,2,,,,,,,,,0,,,51,0
84120,note_on,0,0,1,,,,,,,,,0,,,67,51
84120,note_on,0,0,1,,,,,,,,,0,,,79,61
84120,note_on,120,0,2,,,,,,,,,0,,,39,0
84120,note_on,0,0,1,,,,,,,,,0,,,68,0
84120,note_on,120,0,1,,,,,,,,,0,,,80,0
84120,note_on,0,0,2,,,,,,,,,0,,,49,51
84120,note_on,0,0,2,,,,,,,,,0,,,51,51
84120,note_on,0,0,2,,,,,,,,,0,,,39,61
84120,note_on,0,0,1,,,,,,,,,0,,,72,0
84120,note_on,0,0,1,,,,,,,,,0,,,70,51
84150,note_on,30,0,2,,,,,,,,,0,,,39,0
84150,note_on,0,0,2,,,,,,,,,0,,,51,0
84150,note_on,0,0,2,,,,,,,,,0,,,49,0
84150,note_on,30,0,1,,,,,,,,,0,,,79,0
84150,note_on,0,0,1,,,,,,,,,0,,,67,0
84150,note_on,0,0,1,,,,,,,,,0,,,70,0
84240,note_on,0,0,2,,,,,,,,,0,,,48,40
84240,note_on,90,0,2,,,,,,,,,0,,,51,40
84240,note_on,90,0,1,,,,,,,,,0,,,72,40
84240,note_on,0,0,1,,,,,,,,,0,,,68,40
84240,note_on,0,0,1,,,,,,,,,0,,,80,50
84240,note_on,0,0,2,,,,,,,,,0,,,44,50
84480,note_on,0,0,1,,,,,,,,,0,,,68,0
84480,note_on,0,0,2,,,,,,,,,0,,,48,0
84480,note_on,240,0,2,,,,,,,,,0,,,44,0
84480,note_on,240,0,1,,,,,,,,,0,,,80,0
84480,note_on,0,0,1,,,,,,,,,0,,,72,0
84480,note_on,0,0,2,,,,,,,,,0,,,51,0
84540,note_on,0,0,1,,,,,,,,,0,,,61,40
84540,note_on,0,0,1,,,,,,,,,0,,,70,50
84540,note_on,0,0,2,,,,,,,,,0,,,40,50
84540,note_on,60,0,1,,,,,,,,,0,,,58,40
84540,note_on,60,0,2,,,,,,,,,0,,,49,40
84600,set_tempo,5880,1,0,,,,,,454580,,,,,,,
84600,note_on,60,0,2,,,,,,,,,0,,,40,0
84600,note_on,60,0,1,,,,,,,,,0,,,70,0
84600,note_on,0,0,2,,,,,,,,,0,,,49,40
84600,note_on,0,0,2,,,,,,,,,0,,,40,50
84600,note_on,0,0,1,,,,,,,,,0,,,58,40
84600,note_on,0,0,1,,,,,,,,,0,,,58,0
84600,note_on,0,0,1,,,,,,,,,0,,,61,0
84600,note_on,0,0,1,,,,,,,,,0,,,61,40
84600,note_on,0,0,2,,,,,,,,,0,,,49,0
84600,note_on,0,0,1,,,,,,,,,0,,,70,50
84614,set_tempo,14,1,0,,,,,,455615,,,,,,,
84621,set_tempo,7,1,0,,,,,,456656,,,,,,,
84628,set_tempo,7,1,0,,,,,,457701,,,,,,,
84635,set_tempo,7,1,0,,,,,,458751,,,,,,,
84642,set_tempo,7,1,0,,,,,,459805,,,,,,,
84649,set_tempo,7,1,0,,,,,,460865,,,,,,,
84656,set_tempo,7,1,0,,,,,,461929,,,,,,,
84670,set_tempo,14,1,0,,,,,,462999,,,,,,,
84677,set_tempo,7,1,0,,,,,,464073,,,,,,,
84684,set_tempo,7,1,0,,,,,,465152,,,,,,,
84691,set_tempo,7,1,0,,,,,,466237,,,,,,,
84698,set_tempo,7,1,0,,,,,,467326,,,,,,,
84705,set_tempo,7,1,0,,,,,,468421,,,,,,,
84712,set_tempo,7,1,0,,,,,,469520,,,,,,,
84720,note_on,0,0,2,,,,,,,,,0,,,49,0
84720,note_on,120,0,2,,,,,,,,,0,,,40,0
84720,note_on,0,0,1,,,,,,,,,0,,,61,0
84720,note_on,0,0,1,,,,,,,,,0,,,60,40
84720,note_on,120,0,1,,,,,,,,,0,,,70,0
84720,note_on,0,0,1,,,,,,,,,0,,,58,0
84720,note_on,0,0,1,,,,,,,,,0,,,68,50
84720,note_on,0,0,1,,,,,,,,,0,,,56,40
84720,note_on,0,0,2,,,,,,,,,0,,,51,40
84720,note_on,0,0,2,,,,,,,,,0,,,39,50
84727,set_tempo,15,1,0,,,,,,470625,,,,,,,
84734,set_tempo,7,1,0,,,,,,471735,,,,,,,
84741,set_tempo,7,1,0,,,,,,472851,,,,,,,
84748,set_tempo,7,1,0,,,,,,473971,,,,,,,
84755,set_tempo,7,1,0,,,,,,475097,,,,,,,
84762,set_tempo,7,1,0,,,,,,476228,,,,,,,
84769,set_tempo,7,1,0,,,,,,477365,,,,,,,
84783,set_tempo,14,1,0,,,,,,478507,,,,,,,
84790,set_tempo,7,1,0,,,,,,479655,,,,,,,
84797,set_tempo,7,1,0,,,,,,480808,,,,,,,
84804,set_tempo,7,1,0,,,,,,481966,,,,,,,
84811,set_tempo,7,1,0,,,,,,483131,,,,,,,
84818,set_tempo,7,1,0,,,,,,484301,,,,,,,
84825,set_tempo,7,1,0,,,,,,485476,,,,,,,
84840,note_on,0,0,1,,,,,,,,,0,,,56,0
84840,note_on,120,0,2,,,,,,,,,0,,,39,0
84840,note_on,0,0,2,,,,,,,,,0,,,51,0
84840,note_on,0,0,2,,,,,,,,,0,,,49,40
84840,note_on,0,0,2,,,,,,,,,0,,,51,40
84840,note_on,0,0,2,,,,,,,,,0,,,39,50
84840,set_tempo,15,1,0,,,,,,486657,,,,,,,
84840,note_on,0,0,1,,,,,,,,,0,,,67,50
84840,note_on,0,0,1,,,,,,,,,0,,,58,40
84840,note_on,120,0,1,,,,,,,,,0,,,68,0
84840,note_on,0,0,1,,,,,,,,,0,,,60,0
84840,note_on,0,0,1,,,,,,,,,0,,,55,40
84847,set_tempo,7,1,0,,,,,,487845,,,,,,,
84854,set_tempo,7,1,0,,,,,,489037,,,,,,,
84861,set_tempo,7,1,0,,,,,,490236,,,,,,,
84868,set_tempo,7,1,0,,,,,,491441,,,,,,,
84870,note_on,0,0,2,,,,,,,,,0,,,49,0
84870,note_on,0,0,2,,,,,,,,,0,,,51,0
84870,note_on,30,0,1,,,,,,,,,0,,,67,0
84870,note_on,0,0,1,,,,,,,,,0,,,58,0
84870,note_on,30,0,2,,,,,,,,,0,,,39,0
84870,note_on,0,0,1,,,,,,,,,0,,,55,0
84875,set_tempo,7,1,0,,,,,,492651,,,,,,,
84882,set_tempo,7,1,0,,,,,,493868,,,,,,,
84896,set_tempo,14,1,0,,,,,,495090,,,,,,,
84903,set_tempo,7,1,0,,,,,,496319,,,,,,,
84910,set_tempo,7,1,0,,,,,,497554,,,,,,,
84917,set_tempo,7,1,0,,,,,,498795,,,,,,,
84924,set_tempo,7,1,0,,,,,,500042,,,,,,,
84931,set_tempo,7,1,0,,,,,,501295,,,,,,,
84938,set_tempo,7,1,0,,,,,,502555,,,,,,,
84952,set_tempo,14,1,0,,,,,,503821,,,,,,,
84960,note_on,90,0,1,,,,,,,,,0,,,56,40
84960,note_on,0,0,1,,,,,,,,,0,,,68,50
84960,note_on,0,0,1,,,,,,,,,0,,,60,40
84960,note_on,0,0,2,,,,,,,,,0,,,44,50
84960,note_on,0,0,2,,,,,,,,,0,,,51,40
84960,set_tempo,8,1,0,,,,,,505093,,,,,,,
84960,note_on,90,0,2,,,,,,,,,0,,,48,40
84967,set_tempo,7,1,0,,,,,,506372,,,,,,,
84974,set_tempo,7,1,0,,,,,,507657,,,,,,,
84981,set_tempo,7,1,0,,,,,,508949,,,,,,,
84988,set_tempo,7,1,0,,,,,,510247,,,,,,,
84995,set_tempo,7,1,0,,,,,,511553,,,,,,,
85009,set_tempo,14,1,0,,,,,,512864,,,,,,,
85016,set_tempo,7,1,0,,,,,,514183,,,,,,,
85023,set_tempo,7,1,0,,,,,,515508,,,,,,,
85030,set_tempo,7,1,0,,,,,,516840,,,,,,,
85037,set_tempo,7,1,0,,,,,,518179,,,,,,,
85044,set_tempo,7,1,0,,,,,,519526,,,,,,,
85051,set_tempo,7,1,0,,,,,,520879,,,,,,,
85065,set_tempo,14,1,0,,,,,,522239,,,,,,,
85072,set_tempo,7,1,0,,,,,,523606,,,,,,,
85080,set_tempo,8,1,0,,,,,,524980,,,,,,,
85087,set_tempo,7,1,0,,,,,,526362,,,,,,,
85094,set_tempo,7,1,0,,,,,,527751,,,,,,,
85101,set_tempo,7,1,0,,,,,,529147,,,,,,,
85108,set_tempo,7,1,0,,,,,,530551,,,,,,,
85122,set_tempo,14,1,0,,,,,,531962,,,,,,,
85129,set_tempo,7,1,0,,,,,,533381,,,,,,,
85136,set_tempo,7,1,0,,,,,,534807,,,,,,,
85143,set_tempo,7,1,0,,,,,,536241,,,,,,,
85150,set_tempo,7,1,0,,,,,,537683,,,,,,,
85157,set_tempo,7,1,0,,,,,,539132,,,,,,,
85164,set_tempo,7,1,0,,,,,,540589,,,,,,,
85178,set_tempo,14,1,0,,,,,,542054,,,,,,,
85185,set_tempo,7,1,0,,,,,,543527,,,,,,,
85192,set_tempo,7,1,0,,,,,,545009,,,,,,,
85200,set_tempo,8,1,0,,,,,,546498,,,,,,,
85207,set_tempo,7,1,0,,,,,,547995,,,,,,,
85214,set_tempo,7,1,0,,,,,,549501,,,,,,,
85221,set_tempo,7,1,0,,,,,,551015,,,,,,,
85235,set_tempo,14,1,0,,,,,,552537,,,,,,,
85242,set_tempo,7,1,0,,,,,,554068,,,,,,,
85249,set_tempo,7,1,0,,,,,,555607,,,,,,,
85256,set_tempo,7,1,0,,,,,,557155,,,,,,,
85260,note_on,0,0,1,,,,,,,,,0,,,61,40
85260,note_on,0,0,1,,,,,,,,,0,,,70,40
85260,note_on,300,0,2,,,,,,,,,0,,,44,0
85260,note_on,0,0,2,,,,,,,,,0,,,40,50
85260,note_on,0,0,2,,,,,,,,,0,,,48,0
85260,note_on,0,0,2,,,,,,,,,0,,,46,40
85260,note_on,0,0,2,,,,,,,,,0,,,49,40
85260,note_on,300,0,1,,,,,,,,,0,,,68,0
85260,note_on,0,0,2,,,,,,,,,0,,,51,0
85260,note_on,0,0,1,,,,,,,,,0,,,73,50
85260,note_on,0,0,1,,,,,,,,,0,,,56,0
85260,note_on,0,0,1,,,,,,,,,0,,,60,0
85263,set_tempo,7,1,0,,,,,,558711,,,,,,,
85270,set_tempo,7,1,0,,,,,,560276,,,,,,,
85277,set_tempo,7,1,0,,,,,,561850,,,,,,,
85291,set_tempo,14,1,0,,,,,,563433,,,,,,,
85298,set_tempo,7,1,0,,,,,,565025,,,,,,,
85305,set_tempo,7,1,0,,,,,,566626,,,,,,,
85312,set_tempo,7,1,0,,,,,,568236,,,,,,,
85320,note_on,0,0,2,,,,,,,,,0,,,49,40
85320,note_on,0,0,1,,,,,,,,,0,,,61,40
85320,note_on,0,0,1,,,,,,,,,0,,,73,50
85320,note_on,0,0,1,,,,,,,,,0,,,61,0
85320,note_on,60,0,1,,,,,,,,,0,,,73,0
85320,note_on,0,0,2,,,,,,,,,0,,,49,0
85320,note_on,0,0,2,,,,,,,,,0,,,46,0
85320,note_on,0,0,1,,,,,,,,,0,,,70,0
85320,note_on,0,0,1,,,,,,,,,0,,,70,40
85320,note_on,0,0,2,,,,,,,,,0,,,40,50
85320,set_tempo,8,1,0,,,,,,569855,,,,,,,
85320,note_on,60,0,2,,,,,,,,,0,,,40,0
85320,note_on,0,0,2,,,,,,,,,0,,,46,40
85327,set_tempo,7,1,0,,,,,,571483,,,,,,,
85334,set_tempo,7,1,0,,,,,,573121,,,,,,,
85348,set_tempo,14,1,0,,,,,,574768,,,,,,,
85355,set_tempo,7,1,0,,,,,,576424,,,,,,,
85362,set_tempo,7,1,0,,,,,,578090,,,,,,,
85369,set_tempo,7,1,0,,,,,,579766,,,,,,,
85376,set_tempo,7,1,0,,,,,,581452,,,,,,,
85383,set_tempo,7,1,0,,,,,,583147,,,,,,,
85390,set_tempo,7,1,0,,,,,,584852,,,,,,,
85404,set_tempo,14,1,0,,,,,,586568,,,,,,,
85411,set_tempo,7,1,0,,,,,,588293,,,,,,,
85418,set_tempo,7,1,0,,,,,,590029,,,,,,,
85425,set_tempo,7,1,0,,,,,,591774,,,,,,,
85432,set_tempo,7,1,0,,,,,,593531,,,,,,,
85440,note_on,0,0,1,,,,,,,,,0,,,61,0
85440,note_on,0,0,1,,,,,,,,,0,,,70,0
85440,note_on,0,0,2,,,,,,,,,0,,,51,40
85440,note_on,0,0,2,,,,,,,,,0,,,48,40
85440,note_on,0,0,2,,,,,,,,,0,,,39,50
85440,note_on,0,0,1,,,,,,,,,0,,,72,50
85440,note_on,0,0,1,,,,,,,,,0,,,60,40
85440,note_on,0,0,1,,,,,,,,,0,,,68,40
85440,note_on,0,0,2,,,,,,,,,0,,,46,0
85440,note_on,120,0,1,,,,,,,,,0,,,73,0
85440,note_on,120,0,2,,,,,,,,,0,,,40,0
85440,set_tempo,8,1,0,,,,,,595297,,,,,,,
85440,note_on,0,0,2,,,,,,,,,0,,,49,0
85447,set_tempo,7,1,0,,,,,,597074,,,,,,,
85461,set_tempo,14,1,0,,,,,,598862,,,,,,,
85468,set_tempo,7,1,0,,,,,,600661,,,,,,,
85475,set_tempo,7,1,0,,,,,,602470,,,,,,,
85482,set_tempo,7,1,0,,,,,,604290,,,,,,,
85489,set_tempo,7,1,0,,,,,,606122,,,,,,,
85496,set_tempo,7,1,0,,,,,,607964,,,,,,,
85503,set_tempo,7,1,0,,,,,,609818,,,,,,,
85517,set_tempo,14,1,0,,,,,,611683,,,,,,,
85524,set_tempo,7,1,0,,,,,,613560,,,,,,,
85531,set_tempo,7,1,0,,,,,,615448,,,,,,,
85538,set_tempo,7,1,0,,,,,,617347,,,,,,,
85545,set_tempo,7,1,0,,,,,,619259,,,,,,,
85552,set_tempo,7,1,0,,,,,,621182,,,,,,,
85560,note_on,120,0,2,,,,,,,,,0,,,39,0
85560,note_on,0,0,2,,,,,,,,,0,,,48,0
85560,note_on,0,0,2,,,,,,,,,0,,,51,0
85560,note_on,0,0,2,,,,,,,,,0,,,49,40
85560,note_on,0,0,1,,,,,,,,,0,,,60,0
85560,note_on,0,0,1,,,,,,,,,0,,,58,40
85560,note_on,0,0,1,,,,,,,,,0,,,67,40
85560,note_on,0,0,1,,,,,,,,,0,,,68,0
85560,note_on,0,0,2,,,,,,,,,0,,,39,50
85560,note_on,120,0,1,,,,,,,,,0,,,72,0
85560,set_tempo,8,1,0,,,,,,623118,,,,,,,
85560,note_on,0,0,1,,,,,,,,,0,,,70,50
85560,note_on,0,0,2,,,,,,,,,0,,,51,40
85574,set_tempo,14,1,0,,,,,,625065,,,,,,,
85581,set_tempo,7,1,0,,,,,,627025,,,,,,,
85588,set_tempo,7,1,0,,,,,,628997,,,,,,,
85590,note_on,30,0,1,,,,,,,,,0,,,70,0
85590,note_on,0,0,2,,,,,,,,,0,,,51,0
85590,note_on,0,0,2,,,,,,,,,0,,,49,0
85590,note_on,0,0,1,,,,,,,,,0,,,58,0
85590,note_on,0,0,1,,,,,,,,,0,,,67,0
85590,note_on,30,0,2,,,,,,,,,0,,,39,0
85595,set_tempo,7,1,0,,,,,,630981,,,,,,,
85602,set_tempo,7,1,0,,,,,,632978,,,,,,,
85609,set_tempo,7,1,0,,,,,,634988,,,,,,,
85616,set_tempo,7,1,0,,,,,,637010,,,,,,,
85630,set_tempo,14,1,0,,,,,,639046,,,,,,,
85637,set_tempo,7,1,0,,,,,,641094,,,,,,,
85644,set_tempo,7,1,0,,,,,,643156,,,,,,,
85651,set_tempo,7,1,0,,,,,,645231,,,,,,,
85658,set_tempo,7,1,0,,,,,,647319,,,,,,,
85665,set_tempo,7,1,0,,,,,,649421,,,,,,,
85672,set_tempo,7,1,0,,,,,,651537,,,,,,,
85680,note_on,0,0,1,,,,,,,,,0,,,68,50
85680,note_on,90,0,1,,,,,,,,,0,,,56,40
85680,control_change,2160,0,3,,,,,,,,,0,64,127,,
85680,note_on,90,0,2,,,,,,,,,0,,,51,40
85680,note_on,0,0,2,,,,,,,,,0,,,48,40
85680,end_of_track,0,1,0,,,,,,,,,,,,,
85680,note_on,0,0,2,,,,,,,,,0,,,44,50
85680,set_tempo,8,1,0,,,,,,652174,,,,,,,
85920,end_of_track,0,1,2,,,,,,,,,,,,,
85920,end_of_track,0,1,1,,,,,,,,,,,,,
85920,note_on,0,0,2,,,,,,,,,0,,,51,0
85920,note_on,0,0,2,,,,,,,,,0,,,48,0
85920,note_on,240,0,2,,,,,,,,,0,,,44,0
85920,note_on,240,0,1,,,,,,,,,0,,,68,0
85920,note_on,0,0,1,,,,,,,,,0,,,56,0
86400,control_change,720,0,3,,,,,,,,,0,64,0,,
86760,control_change,360,0,3,,,,,,,,,0,64,127,,
87000,control_change,240,0,3,,,,,,,,,0,64,0,,
87000,end_of_track,0,1,3,,,,,,,,,,,,,
