tick,type,time,meta,track,numerator,denominator,clocks_per_click,notated_32nd_notes_per_beat,key,tempo,port,program,channel,control,value,note,velocity
0,track_name,0,1,0,,,,,,,,,,,,,
0,program_change,0,0,1,,,,,,,,0,0,,,,
0,control_change,0,0,1,,,,,,,,,0,7,127,,
0,control_change,0,0,1,,,,,,,,,0,10,64,,
0,note_on,0,0,1,,,,,,,,,0,,,70,50
0,track_name,0,1,5,,,,,,,,,,,,,
0,midi_port,0,1,2,,,,,,,0,,,,,,
0,track_name,0,1,2,,,,,,,,,,,,,
0,program_change,0,0,2,,,,,,,,0,0,,,,
0,control_change,0,0,2,,,,,,,,,0,7,127,,
0,control_change,0,0,2,,,,,,,,,0,10,64,,
0,track_name,0,1,1,,,,,,,,,,,,,
0,note_on,0,0,2,,,,,,,,,0,,,42,50
0,midi_port,0,1,3,,,,,,,0,,,,,,
0,track_name,0,1,3,,,,,,,,,,,,,
0,program_change,0,0,3,,,,,,,,0,0,,,,
0,control_change,0,0,3,,,,,,,,,0,7,127,,
0,control_change,0,0,3,,,,,,,,,0,10,64,,
0,control_change,0,0,3,,,,,,,,,0,64,127,,
0,midi_port,0,1,4,,,,,,,0,,,,,,
0,track_name,0,1,4,,,,,,,,,,,,,
0,end_of_track,0,1,4,,,,,,,,,,,,,
0,midi_port,0,1,5,,,,,,,0,,,,,,
0,note_on,0,0,2,,,,,,,,,0,,,49,50
0,midi_port,0,1,1,,,,,,,0,,,,,,
0,end_of_track,0,1,5,,,,,,,,,,,,,
0,copyright,0,1,0,,,,,,,,,,,,,
0,marker,0,1,0,,,,,,,,,,,,,
0,text,0,1,0,,,,,,,,,,,,,
0,key_signature,0,1,0,,,,,Gb,,,,,,,,
0,time_signature,0,1,0,4,2,48,8,,,,,,,,,
0,set_tempo,0,1,0,,,,,,652174,,,,,,,
7,set_tempo,7,1,0,,,,,,651537,,,,,,,
14,set_tempo,7,1,0,,,,,,634988,,,,,,,
21,set_tempo,7,1,0,,,,,,617347,,,,,,,
28,set_tempo,7,1,0,,,,,,600661,,,,,,,
35,set_tempo,7,1,0,,,,,,584852,,,,,,,
40,note_on,40,0,1,,,,,,,,,0,,,58,40
42,set_tempo,7,1,0,,,,,,569855,,,,,,,
49,set_tempo,7,1,0,,,,,,555607,,,,,,,
56,set_tempo,7,1,0,,,,,,542054,,,,,,,
63,set_tempo,7,1,0,,,,,,530551,,,,,,,
70,set_tempo,7,1,0,,,,,,518179,,,,,,,
77,set_tempo,7,1,0,,,,,,506372,,,,,,,
80,note_on,40,0,1,,,,,,,,,0,,,58,0
80,note_on,0,0,1,,,,,,,,,0,,,61,40
84,set_tempo,7,1,0,,,,,,495090,,,,,,,
91,set_tempo,7,1,0,,,,,,484301,,,,,,,
98,set_tempo,7,1,0,,,,,,473971,,,,,,,
105,set_tempo,7,1,0,,,,,,464073,,,,,,,
112,set_tempo,7,1,0,,,,,,454580,,,,,,,
120,set_tempo,8,1,0,,,,,,454545,,,,,,,
120,note_on,40,0,1,,,,,,,,,0,,,61,0
120,note_on,0,0,1,,,,,,,,,0,,,66,40
160,note_on,40,0,1,,,,,,,,,0,,,66,0
160,note_on,0,0,1,,,,,,,,,0,,,61,40
200,note_on,40,0,1,,,,,,,,,0,,,61,0
200,note_on,0,0,1,,,,,,,,,0,,,58,40
240,note_on,40,0,1,,,,,,,,,0,,,58,0
240,note_on,0,0,1,,,,,,,,,0,,,61,40
280,note_on,40,0,1,,,,,,,,,0,,,61,0
280,note_on,0,0,1,,,,,,,,,0,,,58,40
320,note_on,0,0,1,,,,,,,,,0,,,61,40
320,note_on,40,0,1,,,,,,,,,0,,,58,0
360,note_on,0,0,1,,,,,,,,,0,,,66,40
360,note_on,40,0,1,,,,,,,,,0,,,61,0
400,note_on,0,0,1,,,,,,,,,0,,,61,40
400,note_on,40,0,1,,,,,,,,,0,,,66,0
440,note_on,40,0,1,,,,,,,,,0,,,61,0
440,note_on,0,0,1,,,,,,,,,0,,,58,40
480,note_on,480,0,2,,,,,,,,,0,,,49,0
480,note_on,40,0,1,,,,,,,,,0,,,58,0
480,note_on,0,0,1,,,,,,,,,0,,,70,0
480,note_on,0,0,1,,,,,,,,,0,,,70,50
480,note_on,0,0,2,,,,,,,,,0,,,42,0
480,note_on,0,0,2,,,,,,,,,0,,,42,50
480,note_on,0,0,2,,,,,,,,,0,,,49,50
520,note_on,40,0,1,,,,,,,,,0,,,58,40
560,note_on,40,0,1,,,,,,,,,0,,,58,0
560,note_on,0,0,1,,,,,,,,,0,,,61,40
600,note_on,40,0,1,,,,,,,,,0,,,61,0
600,note_on,0,0,1,,,,,,,,,0,,,66,40
640,note_on,0,0,1,,,,,,,,,0,,,61,40
640,note_on,40,0,1,,,,,,,,,0,,,66,0
680,note_on,40,0,1,,,,,,,,,0,,,61,0
680,note_on,0,0,1,,,,,,,,,0,,,58,40
720,note_on,40,0,1,,,,,,,,,0,,,58,0
720,set_tempo,600,1,0,,,,,,454580,,,,,,,
720,note_on,0,0,2,,,,,,,,,0,,,42,50
720,note_on,0,0,2,,,,,,,,,0,,,49,50
720,note_on,0,0,2,,,,,,,,,0,,,42,0
720,note_on,240,0,2,,,,,,,,,0,,,49,0
720,note_on,0,0,1,,,,,,,,,0,,,70,50
720,note_on,0,0,1,,,,,,,,,0,,,70,0
727,set_tempo,7,1,0,,,,,,458751,,,,,,,
734,set_tempo,7,1,0,,,,,,462999,,,,,,,
741,set_tempo,7,1,0,,,,,,467326,,,,,,,
748,set_tempo,7,1,0,,,,,,471735,,,,,,,
755,set_tempo,7,1,0,,,,,,476228,,,,,,,
760,note_on,40,0,1,,,,,,,,,0,,,58,40
762,set_tempo,7,1,0,,,,,,480808,,,,,,,
769,set_tempo,7,1,0,,,,,,485476,,,,,,,
776,set_tempo,7,1,0,,,,,,490236,,,,,,,
783,set_tempo,7,1,0,,,,,,495090,,,,,,,
790,set_tempo,7,1,0,,,,,,500042,,,,,,,
797,set_tempo,7,1,0,,,,,,505093,,,,,,,
800,note_on,0,0,1,,,,,,,,,0,,,61,40
800,note_on,40,0,1,,,,,,,,,0,,,58,0
804,set_tempo,7,1,0,,,,,,510247,,,,,,,
811,set_tempo,7,1,0,,,,,,515508,,,,,,,
818,set_tempo,7,1,0,,,,,,520879,,,,,,,
825,set_tempo,7,1,0,,,,,,526362,,,,,,,
832,set_tempo,7,1,0,,,,,,531962,,,,,,,
840,note_on,40,0,1,,,,,,,,,0,,,61,0
840,note_on,0,0,1,,,,,,,,,0,,,66,40
840,set_tempo,8,1,0,,,,,,537683,,,,,,,
847,set_tempo,7,1,0,,,,,,543527,,,,,,,
854,set_tempo,7,1,0,,,,,,549501,,,,,,,
861,set_tempo,7,1,0,,,,,,555607,,,,,,,
868,set_tempo,7,1,0,,,,,,561850,,,,,,,
875,set_tempo,7,1,0,,,,,,568236,,,,,,,
880,note_on,40,0,1,,,,,,,,,0,,,66,0
880,note_on,0,0,1,,,,,,,,,0,,,61,40
882,set_tempo,7,1,0,,,,,,574768,,,,,,,
889,set_tempo,7,1,0,,,,,,581452,,,,,,,
896,set_tempo,7,1,0,,,,,,588293,,,,,,,
903,set_tempo,7,1,0,,,,,,595297,,,,,,,
910,set_tempo,7,1,0,,,,,,602470,,,,,,,
917,set_tempo,7,1,0,,,,,,609818,,,,,,,
920,note_on,40,0,1,,,,,,,,,0,,,61,0
920,note_on,0,0,1,,,,,,,,,0,,,58,40
924,set_tempo,7,1,0,,,,,,617347,,,,,,,
931,set_tempo,7,1,0,,,,,,625065,,,,,,,
938,set_tempo,7,1,0,,,,,,632978,,,,,,,
945,set_tempo,7,1,0,,,,,,641094,,,,,,,
945,control_change,945,0,3,,,,,,,,,0,64,0,,
952,set_tempo,7,1,0,,,,,,651537,,,,,,,
960,set_tempo,8,1,0,,,,,,454545,,,,,,,
960,control_change,15,0,3,,,,,,,,,0,64,127,,
960,note_on,0,0,2,,,,,,,,,0,,,51,50
960,note_on,0,0,2,,,,,,,,,0,,,39,50
960,note_on,0,0,2,,,,,,,,,0,,,49,0
960,note_on,240,0,2,,,,,,,,,0,,,42,0
960,note_on,40,0,1,,,,,,,,,0,,,58,0
960,note_on,0,0,1,,,,,,,,,0,,,70,0
960,note_on,0,0,1,,,,,,,,,0,,,70,50
1000,note_on,40,0,1,,,,,,,,,0,,,58,40
1040,note_on,0,0,1,,,,,,,,,0,,,63,40
1040,note_on,40,0,1,,,,,,,,,0,,,58,0
1080,note_on,0,0,1,,,,,,,,,0,,,66,40
1080,note_on,40,0,1,,,,,,,,,0,,,63,0
1120,note_on,0,0,1,,,,,,,,,0,,,63,40
1120,note_on,40,0,1,,,,,,,,,0,,,66,0
1160,note_on,0,0,1,,,,,,,,,0,,,58,40
1160,note_on,40,0,1,,,,,,,,,0,,,63,0
1200,note_on,0,0,1,,,,,,,,,0,,,63,40
1200,note_on,40,0,1,,,,,,,,,0,,,58,0
1240,note_on,0,0,1,,,,,,,,,0,,,58,40
1240,note_on,40,0,1,,,,,,,,,0,,,63,0
1280,note_on,0,0,1,,,,,,,,,0,,,63,40
1280,note_on,40,0,1,,,,,,,,,0,,,58,0
1320,note_on,0,0,1,,,,,,,,,0,,,66,40
1320,note_on,40,0,1,,,,,,,,,0,,,63,0
1360,note_on,0,0,1,,,,,,,,,0,,,63,40
1360,note_on,40,0,1,,,,,,,,,0,,,66,0
1400,note_on,40,0,1,,,,,,,,,0,,,63,0
1400,note_on,0,0,1,,,,,,,,,0,,,58,40
1440,note_on,40,0,1,,,,,,,,,0,,,58,0
1440,note_on,0,0,1,,,,,,,,,0,,,70,0
1440,note_on,0,0,1,,,,,,,,,0,,,66,50
1480,note_on,40,0,1,,,,,,,,,0,,,54,40
1520,note_on,40,0,1,,,,,,,,,0,,,54,0
1520,note_on,0,0,1,,,,,,,,,0,,,58,40
1560,note_on,40,0,1,,,,,,,,,0,,,58,0
1560,note_on,0,0,1,,,,,,,,,0,,,63,40
1600,note_on,40,0,1,,,,,,,,,0,,,63,0
1600,note_on,0,0,1,,,,,,,,,0,,,58,40
1640,note_on,40,0,1,,,,,,,,,0,,,58,0
1640,note_on,0,0,1,,,,,,,,,0,,,54,40
1680,note_on,40,0,1,,,,,,,,,0,,,54,0
1680,note_on,0,0,1,,,,,,,,,0,,,58,40
1720,note_on,0,0,1,,,,,,,,,0,,,54,40
1720,note_on,40,0,1,,,,,,,,,0,,,58,0
1760,note_on,40,0,1,,,,,,,,,0,,,54,0
1760,note_on,0,0,1,,,,,,,,,0,,,58,40
1800,note_on,0,0,1,,,,,,,,,0,,,63,40
1800,note_on,40,0,1,,,,,,,,,0,,,58,0
1840,note_on,40,0,1,,,,,,,,,0,,,63,0
1840,note_on,0,0,1,,,,,,,,,0,,,58,40
1880,note_on,0,0,1,,,,,,,,,0,,,54,40
1880,note_on,40,0,1,,,,,,,,,0,,,58,0
1905,control_change,945,0,3,,,,,,,,,0,64,0,,
1920,note_on,40,0,1,,,,,,,,,0,,,54,0
1920,control_change,15,0,3,,,,,,,,,0,64,127,,
1920,note_on,0,0,1,,,,,,,,,0,,,68,50
1920,note_on,0,0,2,,,,,,,,,0,,,35,50
1920,note_on,960,0,2,,,,,,,,,0,,,51,0
1920,note_on,0,0,2,,,,,,,,,0,,,47,50
1920,note_on,0,0,1,,,,,,,,,0,,,66,0
1920,note_on,0,0,2,,,,,,,,,0,,,39,0
1960,note_on,40,0,1,,,,,,,,,0,,,56,40
2000,note_on,0,0,1,,,,,,,,,0,,,59,40
2000,note_on,40,0,1,,,,,,,,,0,,,56,0
2040,note_on,40,0,1,,,,,,,,,0,,,59,0
2040,note_on,0,0,1,,,,,,,,,0,,,63,40
2080,note_on,40,0,1,,,,,,,,,0,,,63,0
2080,note_on,0,0,1,,,,,,,,,0,,,59,40
2120,note_on,0,0,1,,,,,,,,,0,,,56,40
2120,note_on,40,0,1,,,,,,,,,0,,,59,0
2160,note_on,0,0,1,,,,,,,,,0,,,59,40
2160,note_on,40,0,1,,,,,,,,,0,,,56,0
2200,note_on,0,0,1,,,,,,,,,0,,,56,40
2200,note_on,40,0,1,,,,,,,,,0,,,59,0
2240,note_on,0,0,1,,,,,,,,,0,,,59,40
2240,note_on,40,0,1,,,,,,,,,0,,,56,0
2280,note_on,0,0,1,,,,,,,,,0,,,63,40
2280,note_on,40,0,1,,,,,,,,,0,,,59,0
2320,note_on,40,0,1,,,,,,,,,0,,,63,0
2320,note_on,0,0,1,,,,,,,,,0,,,59,40
2360,note_on,40,0,1,,,,,,,,,0,,,59,0
2360,note_on,0,0,1,,,,,,,,,0,,,56,40
2385,control_change,465,0,3,,,,,,,,,0,64,0,,
2400,note_on,0,0,2,,,,,,,,,0,,,35,0
2400,note_on,0,0,1,,,,,,,,,0,,,68,0
2400,note_on,40,0,1,,,,,,,,,0,,,56,0
2400,set_tempo,1440,1,0,,,,,,454580,,,,,,,
2400,note_on,480,0,2,,,,,,,,,0,,,47,0
2400,note_on,0,0,1,,,,,,,,,0,,,66,50
2400,control_change,15,0,3,,,,,,,,,0,64,127,,
2400,note_on,0,0,2,,,,,,,,,0,,,49,50
2400,note_on,0,0,2,,,,,,,,,0,,,37,50
2414,set_tempo,14,1,0,,,,,,455615,,,,,,,
2421,set_tempo,7,1,0,,,,,,456656,,,,,,,
2428,set_tempo,7,1,0,,,,,,457701,,,,,,,
2435,set_tempo,7,1,0,,,,,,458751,,,,,,,
2440,note_on,40,0,1,,,,,,,,,0,,,56,40
2442,set_tempo,7,1,0,,,,,,459805,,,,,,,
2449,set_tempo,7,1,0,,,,,,460865,,,,,,,
2456,set_tempo,7,1,0,,,,,,461929,,,,,,,
2463,set_tempo,7,1,0,,,,,,462999,,,,,,,
2470,set_tempo,7,1,0,,,,,,464073,,,,,,,
2477,set_tempo,7,1,0,,,,,,465152,,,,,,,
2480,note_on,40,0,1,,,,,,,,,0,,,56,0
2480,note_on,0,0,1,,,,,,,,,0,,,59,40
2484,set_tempo,7,1,0,,,,,,466237,,,,,,,
2491,set_tempo,7,1,0,,,,,,467326,,,,,,,
2498,set_tempo,7,1,0,,,,,,468421,,,,,,,
2505,control_change,105,0,3,,,,,,,,,0,64,0,,
2505,set_tempo,7,1,0,,,,,,469520,,,,,,,
2512,set_tempo,7,1,0,,,,,,470625,,,,,,,
2520,note_on,40,0,1,,,,,,,,,0,,,59,0
2520,note_on,0,0,1,,,,,,,,,0,,,66,0
2520,note_on,0,0,1,,,,,,,,,0,,,65,50
2520,control_change,15,0,3,,,,,,,,,0,64,127,,
2520,set_tempo,8,1,0,,,,,,471735,,,,,,,
2527,set_tempo,7,1,0,,,,,,472851,,,,,,,
2534,set_tempo,7,1,0,,,,,,473971,,,,,,,
2541,set_tempo,7,1,0,,,,,,475097,,,,,,,
2548,set_tempo,7,1,0,,,,,,476228,,,,,,,
2555,set_tempo,7,1,0,,,,,,477365,,,,,,,
2560,note_on,40,0,1,,,,,,,,,0,,,56,40
2562,set_tempo,7,1,0,,,,,,478507,,,,,,,
2569,set_tempo,7,1,0,,,,,,479655,,,,,,,
2576,set_tempo,7,1,0,,,,,,480808,,,,,,,
2583,set_tempo,7,1,0,,,,,,481966,,,,,,,
2590,set_tempo,7,1,0,,,,,,483131,,,,,,,
2597,set_tempo,7,1,0,,,,,,484301,,,,,,,
2600,note_on,40,0,1,,,,,,,,,0,,,56,0
2600,note_on,0,0,1,,,,,,,,,0,,,59,40
2604,set_tempo,7,1,0,,,,,,485476,,,,,,,
2611,set_tempo,7,1,0,,,,,,486657,,,,,,,
2618,set_tempo,7,1,0,,,,,,487845,,,,,,,
2625,control_change,105,0,3,,,,,,,,,0,64,0,,
2625,set_tempo,7,1,0,,,,,,489037,,,,,,,
2632,set_tempo,7,1,0,,,,,,490236,,,,,,,
2640,note_on,0,0,1,,,,,,,,,0,,,63,50
2640,note_on,0,0,1,,,,,,,,,0,,,65,0
2640,note_on,40,0,1,,,,,,,,,0,,,59,0
2640,control_change,15,0,3,,,,,,,,,0,64,127,,
2640,set_tempo,8,1,0,,,,,,491441,,,,,,,
2647,set_tempo,7,1,0,,,,,,492651,,,,,,,
2654,set_tempo,7,1,0,,,,,,493868,,,,,,,
2661,set_tempo,7,1,0,,,,,,495090,,,,,,,
2668,set_tempo,7,1,0,,,,,,496319,,,,,,,
2675,set_tempo,7,1,0,,,,,,497554,,,,,,,
2680,note_on,40,0,1,,,,,,,,,0,,,56,40
2682,set_tempo,7,1,0,,,,,,498795,,,,,,,
2689,set_tempo,7,1,0,,,,,,500042,,,,,,,
2696,set_tempo,7,1,0,,,,,,501295,,,,,,,
2703,set_tempo,7,1,0,,,,,,502555,,,,,,,
2710,set_tempo,7,1,0,,,,,,503821,,,,,,,
2717,set_tempo,7,1,0,,,,,,505093,,,,,,,
2720,note_on,0,0,1,,,,,,,,,0,,,59,40
2720,note_on,40,0,1,,,,,,,,,0,,,56,0
2724,set_tempo,7,1,0,,,,,,506372,,,,,,,
2731,set_tempo,7,1,0,,,,,,507657,,,,,,,
2738,set_tempo,7,1,0,,,,,,508949,,,,,,,
2745,set_tempo,7,1,0,,,,,,510247,,,,,,,
2745,control_change,105,0,3,,,,,,,,,0,64,0,,
2752,set_tempo,7,1,0,,,,,,511553,,,,,,,
2760,note_on,0,0,2,,,,,,,,,0,,,47,50
2760,set_tempo,8,1,0,,,,,,512864,,,,,,,
2760,note_on,0,0,1,,,,,,,,,0,,,61,50
2760,control_change,15,0,3,,,,,,,,,0,64,127,,
2760,note_on,0,0,1,,,,,,,,,0,,,63,0
2760,note_on,40,0,1,,,,,,,,,0,,,59,0
2760,note_on,360,0,2,,,,,,,,,0,,,49,0
2760,note_on,0,0,2,,,,,,,,,0,,,49,50
2760,note_on,0,0,2,,,,,,,,,0,,,37,0
2767,set_tempo,7,1,0,,,,,,514183,,,,,,,
2774,set_tempo,7,1,0,,,,,,515508,,,,,,,
2781,set_tempo,7,1,0,,,,,,516840,,,,,,,
2788,set_tempo,7,1,0,,,,,,518179,,,,,,,
2795,set_tempo,7,1,0,,,,,,519526,,,,,,,
2800,note_on,40,0,1,,,,,,,,,0,,,53,40
2802,set_tempo,7,1,0,,,,,,520879,,,,,,,
2809,set_tempo,7,1,0,,,,,,522239,,,,,,,
2816,set_tempo,7,1,0,,,,,,523606,,,,,,,
2823,set_tempo,7,1,0,,,,,,524980,,,,,,,
2830,set_tempo,7,1,0,,,,,,526362,,,,,,,
2837,set_tempo,7,1,0,,,,,,527751,,,,,,,
2840,note_on,40,0,1,,,,,,,,,0,,,53,0
2840,note_on,0,0,1,,,,,,,,,0,,,56,40
2844,set_tempo,7,1,0,,,,,,529147,,,,,,,
2851,set_tempo,7,1,0,,,,,,530551,,,,,,,
2858,set_tempo,7,1,0,,,,,,531962,,,,,,,
2865,set_tempo,7,1,0,,,,,,533381,,,,,,,
2865,control_change,105,0,3,,,,,,,,,0,64,0,,
2872,set_tempo,7,1,0,,,,,,534807,,,,,,,
2880,note_on,120,0,2,,,,,,,,,0,,,47,0
2880,note_on,0,0,1,,,,,,,,,0,,,66,50
2880,note_on,0,0,1,,,,,,,,,0,,,61,0
2880,note_on,40,0,1,,,,,,,,,0,,,56,0
2880,set_tempo,8,1,0,,,,,,535714,,,,,,,
2880,control_change,15,0,3,,,,,,,,,0,64,127,,
2880,note_on,0,0,2,,,,,,,,,0,,,46,50
2880,note_on,0,0,2,,,,,,,,,0,,,49,50
2880,note_on,0,0,2,,,,,,,,,0,,,49,0
2920,note_on,40,0,1,,,,,,,,,0,,,54,41
2960,note_on,40,0,1,,,,,,,,,0,,,54,0
2960,note_on,0,0,1,,,,,,,,,0,,,58,43
3000,note_on,40,0,1,,,,,,,,,0,,,58,0
3000,note_on,0,0,1,,,,,,,,,0,,,61,45
3040,note_on,40,0,1,,,,,,,,,0,,,61,0
3040,note_on,0,0,1,,,,,,,,,0,,,58,47
3080,note_on,0,0,1,,,,,,,,,0,,,54,49
3080,note_on,40,0,1,,,,,,,,,0,,,58,0
3105,control_change,225,0,3,,,,,,,,,0,64,0,,
3120,note_on,0,0,2,,,,,,,,,0,,,49,0
3120,note_on,240,0,2,,,,,,,,,0,,,46,0
3120,note_on,40,0,1,,,,,,,,,0,,,54,0
3120,note_on,0,0,1,,,,,,,,,0,,,66,0
3120,note_on,0,0,1,,,,,,,,,0,,,70,60
3120,note_on,0,0,2,,,,,,,,,0,,,51,60
3120,note_on,0,0,2,,,,,,,,,0,,,42,60
3120,control_change,15,0,3,,,,,,,,,0,64,127,,
3160,note_on,40,0,1,,,,,,,,,0,,,60,52
3200,note_on,0,0,1,,,,,,,,,0,,,63,54
3200,note_on,40,0,1,,,,,,,,,0,,,60,0
3240,note_on,40,0,1,,,,,,,,,0,,,63,0
3240,note_on,0,0,1,,,,,,,,,0,,,66,56
3280,note_on,40,0,1,,,,,,,,,0,,,66,0
3280,note_on,0,0,1,,,,,,,,,0,,,63,58
3320,note_on,0,0,1,,,,,,,,,0,,,60,59
3320,note_on,40,0,1,,,,,,,,,0,,,63,0
3345,control_change,225,0,3,,,,,,,,,0,64,0,,
3360,note_on,0,0,2,,,,,,,,,0,,,51,0
3360,note_on,0,0,2,,,,,,,,,0,,,37,70
3360,control_change,15,0,3,,,,,,,,,0,64,127,,
3360,note_on,0,0,1,,,,,,,,,0,,,68,70
3360,note_on,0,0,1,,,,,,,,,0,,,70,0
3360,note_on,240,0,2,,,,,,,,,0,,,42,0
3360,note_on,40,0,1,,,,,,,,,0,,,60,0
3375,note_on,15,0,2,,,,,,,,,0,,,53,70
3400,note_on,40,0,1,,,,,,,,,0,,,56,60
3440,note_on,40,0,1,,,,,,,,,0,,,56,0
3440,note_on,0,0,1,,,,,,,,,0,,,61,60
3480,note_on,40,0,1,,,,,,,,,0,,,61,0
3480,note_on,0,0,1,,,,,,,,,0,,,65,60
3520,note_on,40,0,1,,,,,,,,,0,,,65,0
3520,note_on,0,0,1,,,,,,,,,0,,,61,60
3560,note_on,0,0,1,,,,,,,,,0,,,56,60
3560,note_on,40,0,1,,,,,,,,,0,,,61,0
3600,note_on,40,0,1,,,,,,,,,0,,,56,0
3600,note_on,0,0,1,,,,,,,,,0,,,61,60
3640,note_on,40,0,1,,,,,,,,,0,,,61,0
3640,note_on,0,0,1,,,,,,,,,0,,,56,60
3680,note_on,40,0,1,,,,,,,,,0,,,56,0
3680,note_on,0,0,1,,,,,,,,,0,,,61,60
3720,note_on,40,0,1,,,,,,,,,0,,,61,0
3720,set_tempo,840,1,0,,,,,,681818,,,,,,,
3720,note_on,0,0,1,,,,,,,,,0,,,68,0
3720,note_on,0,0,1,,,,,,,,,0,,,65,60
3720,note_on,0,0,1,,,,,,,,,0,,,69,70
3760,note_on,40,0,1,,,,,,,,,0,,,65,0
3760,note_on,0,0,1,,,,,,,,,0,,,61,60
3800,note_on,40,0,1,,,,,,,,,0,,,61,0
3800,note_on,0,0,1,,,,,,,,,0,,,57,60
3825,control_change,465,0,3,,,,,,,,,0,64,0,,
3840,note_on,0,0,2,,,,,,,,,0,,,37,0
3840,set_tempo,120,1,0,,,,,,652174,,,,,,,
3840,note_on,465,0,2,,,,,,,,,0,,,53,0
3840,note_on,0,0,2,,,,,,,,,0,,,49,70
3840,control_change,15,0,3,,,,,,,,,0,64,127,,
3840,note_on,0,0,1,,,,,,,,,0,,,70,70
3840,note_on,0,0,1,,,,,,,,,0,,,69,0
3840,note_on,40,0,1,,,,,,,,,0,,,57,0
3840,note_on,0,0,2,,,,,,,,,0,,,42,70
3847,set_tempo,7,1,0,,,,,,651537,,,,,,,
3854,set_tempo,7,1,0,,,,,,634988,,,,,,,
3861,set_tempo,7,1,0,,,,,,617347,,,,,,,
3868,set_tempo,7,1,0,,,,,,600661,,,,,,,
3875,set_tempo,7,1,0,,,,,,584852,,,,,,,
3880,note_on,40,0,1,,,,,,,,,0,,,58,60
3882,set_tempo,7,1,0,,,,,,569855,,,,,,,
3889,set_tempo,7,1,0,,,,,,555607,,,,,,,
3896,set_tempo,7,1,0,,,,,,542054,,,,,,,
3903,set_tempo,7,1,0,,,,,,530551,,,,,,,
3910,set_tempo,7,1,0,,,,,,518179,,,,,,,
3917,set_tempo,7,1,0,,,,,,506372,,,,,,,
3920,note_on,40,0,1,,,,,,,,,0,,,58,0
3920,note_on,0,0,1,,,,,,,,,0,,,61,60
3924,set_tempo,7,1,0,,,,,,495090,,,,,,,
3931,set_tempo,7,1,0,,,,,,484301,,,,,,,
3938,set_tempo,7,1,0,,,,,,473971,,,,,,,
3945,set_tempo,7,1,0,,,,,,464073,,,,,,,
3952,set_tempo,7,1,0,,,,,,454580,,,,,,,
3960,set_tempo,8,1,0,,,,,,454545,,,,,,,
3960,note_on,40,0,1,,,,,,,,,0,,,61,0
3960,note_on,0,0,1,,,,,,,,,0,,,66,60
4000,note_on,40,0,1,,,,,,,,,0,,,66,0
4000,note_on,0,0,1,,,,,,,,,0,,,61,60
4040,note_on,0,0,1,,,,,,,,,0,,,58,60
4040,note_on,40,0,1,,,,,,,,,0,,,61,0
4080,note_on,0,0,1,,,,,,,,,0,,,61,60
4080,note_on,40,0,1,,,,,,,,,0,,,58,0
4120,note_on,40,0,1,,,,,,,,,0,,,61,0
4120,note_on,0,0,1,,,,,,,,,0,,,58,60
4160,note_on,40,0,1,,,,,,,,,0,,,58,0
4160,note_on,0,0,1,,,,,,,,,0,,,61,60
4200,note_on,40,0,1,,,,,,,,,0,,,61,0
4200,note_on,0,0,1,,,,,,,,,0,,,66,60
4240,note_on,0,0,1,,,,,,,,,0,,,61,60
4240,note_on,40,0,1,,,,,,,,,0,,,66,0
4280,note_on,40,0,1,,,,,,,,,0,,,61,0
4280,note_on,0,0,1,,,,,,,,,0,,,58,60
4320,note_on,40,0,1,,,,,,,,,0,,,58,0
4320,note_on,0,0,1,,,,,,,,,0,,,70,0
4320,note_on,480,0,2,,,,,,,,,0,,,42,0
4320,note_on,0,0,2,,,,,,,,,0,,,49,0
4320,note_on,0,0,2,,,,,,,,,0,,,42,70
4320,note_on,0,0,1,,,,,,,,,0,,,70,70
4320,note_on,0,0,2,,,,,,,,,0,,,49,70
4360,note_on,40,0,1,,,,,,,,,0,,,58,60
4400,note_on,40,0,1,,,,,,,,,0,,,58,0
4400,note_on,0,0,1,,,,,,,,,0,,,61,60
4440,note_on,40,0,1,,,,,,,,,0,,,61,0
4440,note_on,0,0,1,,,,,,,,,0,,,66,60
4480,note_on,0,0,1,,,,,,,,,0,,,61,60
4480,note_on,40,0,1,,,,,,,,,0,,,66,0
4520,note_on,0,0,1,,,,,,,,,0,,,58,60
4520,note_on,40,0,1,,,,,,,,,0,,,61,0
4545,control_change,705,0,3,,,,,,,,,0,64,0,,
4560,note_on,240,0,2,,,,,,,,,0,,,49,0
4560,set_tempo,600,1,0,,,,,,454580,,,,,,,
4560,note_on,0,0,2,,,,,,,,,0,,,50,70
4560,note_on,40,0,1,,,,,,,,,0,,,58,0
4560,control_change,15,0,3,,,,,,,,,0,64,127,,
4560,note_on,0,0,1,,,,,,,,,0,,,70,0
4560,note_on,0,0,1,,,,,,,,,0,,,70,70
4560,note_on,0,0,2,,,,,,,,,0,,,41,70
4560,note_on,0,0,2,,,,,,,,,0,,,42,0
4567,set_tempo,7,1,0,,,,,,458751,,,,,,,
4574,set_tempo,7,1,0,,,,,,462999,,,,,,,
4581,set_tempo,7,1,0,,,,,,467326,,,,,,,
4588,set_tempo,7,1,0,,,,,,471735,,,,,,,
4595,set_tempo,7,1,0,,,,,,476228,,,,,,,
4600,note_on,40,0,1,,,,,,,,,0,,,58,60
4602,set_tempo,7,1,0,,,,,,480808,,,,,,,
4609,set_tempo,7,1,0,,,,,,485476,,,,,,,
4616,set_tempo,7,1,0,,,,,,490236,,,,,,,
4623,set_tempo,7,1,0,,,,,,495090,,,,,,,
4630,set_tempo,7,1,0,,,,,,500042,,,,,,,
4637,set_tempo,7,1,0,,,,,,505093,,,,,,,
4640,note_on,0,0,1,,,,,,,,,0,,,62,60
4640,note_on,40,0,1,,,,,,,,,0,,,58,0
4644,set_tempo,7,1,0,,,,,,510247,,,,,,,
4651,set_tempo,7,1,0,,,,,,515508,,,,,,,
4658,set_tempo,7,1,0,,,,,,520879,,,,,,,
4665,set_tempo,7,1,0,,,,,,526362,,,,,,,
4672,set_tempo,7,1,0,,,,,,531962,,,,,,,
4680,set_tempo,8,1,0,,,,,,537683,,,,,,,
4680,note_on,0,0,1,,,,,,,,,0,,,68,60
4680,note_on,40,0,1,,,,,,,,,0,,,62,0
4687,set_tempo,7,1,0,,,,,,543527,,,,,,,
4694,set_tempo,7,1,0,,,,,,549501,,,,,,,
4701,set_tempo,7,1,0,,,,,,555607,,,,,,,
4708,set_tempo,7,1,0,,,,,,561850,,,,,,,
4715,set_tempo,7,1,0,,,,,,568236,,,,,,,
4720,note_on,0,0,1,,,,,,,,,0,,,62,60
4720,note_on,40,0,1,,,,,,,,,0,,,68,0
4722,set_tempo,7,1,0,,,,,,574768,,,,,,,
4729,set_tempo,7,1,0,,,,,,581452,,,,,,,
4736,set_tempo,7,1,0,,,,,,588293,,,,,,,
4743,set_tempo,7,1,0,,,,,,595297,,,,,,,
4750,set_tempo,7,1,0,,,,,,602470,,,,,,,
4757,set_tempo,7,1,0,,,,,,609818,,,,,,,
4760,note_on,40,0,1,,,,,,,,,0,,,62,0
4760,note_on,0,0,1,,,,,,,,,0,,,58,60
4764,set_tempo,7,1,0,,,,,,617347,,,,,,,
4771,set_tempo,7,1,0,,,,,,625065,,,,,,,
4778,set_tempo,7,1,0,,,,,,632978,,,,,,,
4785,set_tempo,7,1,0,,,,,,641094,,,,,,,
4785,control_change,225,0,3,,,,,,,,,0,64,0,,
4792,set_tempo,7,1,0,,,,,,651537,,,,,,,
4800,note_on,40,0,1,,,,,,,,,0,,,58,0
4800,note_on,0,0,1,,,,,,,,,0,,,70,0
4800,control_change,15,0,3,,,,,,,,,0,64,127,,
4800,note_on,0,0,1,,,,,,,,,0,,,70,70
4800,set_tempo,8,1,0,,,,,,454545,,,,,,,
4800,note_on,0,0,2,,,,,,,,,0,,,51,70
4800,note_on,0,0,2,,,,,,,,,0,,,39,70
4800,note_on,0,0,2,,,,,,,,,0,,,50,0
4800,note_on,240,0,2,,,,,,,,,0,,,41,0
4840,note_on,40,0,1,,,,,,,,,0,,,58,60
4880,note_on,40,0,1,,,,,,,,,0,,,58,0
4880,note_on,0,0,1,,,,,,,,,0,,,63,60
4920,note_on,40,0,1,,,,,,,,,0,,,63,0
4920,note_on,0,0,1,,,,,,,,,0,,,66,60
4960,note_on,0,0,1,,,,,,,,,0,,,63,60
4960,note_on,40,0,1,,,,,,,,,0,,,66,0
5000,note_on,40,0,1,,,,,,,,,0,,,63,0
5000,note_on,0,0,1,,,,,,,,,0,,,58,60
5040,note_on,40,0,1,,,,,,,,,0,,,58,0
5040,note_on,0,0,1,,,,,,,,,0,,,63,60
5080,note_on,40,0,1,,,,,,,,,0,,,63,0
5080,note_on,0,0,1,,,,,,,,,0,,,58,60
5120,note_on,40,0,1,,,,,,,,,0,,,58,0
5120,note_on,0,0,1,,,,,,,,,0,,,63,60
5160,note_on,40,0,1,,,,,,,,,0,,,63,0
5160,note_on,0,0,1,,,,,,,,,0,,,66,60
5200,note_on,0,0,1,,,,,,,,,0,,,63,60
5200,note_on,40,0,1,,,,,,,,,0,,,66,0
5240,note_on,0,0,1,,,,,,,,,0,,,58,60
5240,note_on,40,0,1,,,,,,,,,0,,,63,0
5280,note_on,40,0,1,,,,,,,,,0,,,58,0
5280,note_on,0,0,2,,,,,,,,,0,,,39,0
5280,note_on,0,0,1,,,,,,,,,0,,,66,70
5280,note_on,0,0,2,,,,,,,,,0,,,51,70
5280,note_on,0,0,2,,,,,,,,,0,,,39,70
5280,note_on,480,0,2,,,,,,,,,0,,,51,0
5280,note_on,0,0,1,,,,,,,,,0,,,70,0
5320,note_on,40,0,1,,,,,,,,,0,,,54,60
5360,note_on,0,0,1,,,,,,,,,0,,,58,60
5360,note_on,40,0,1,,,,,,,,,0,,,54,0
5400,note_on,0,0,1,,,,,,,,,0,,,63,60
5400,note_on,40,0,1,,,,,,,,,0,,,58,0
5440,note_on,40,0,1,,,,,,,,,0,,,63,0
5440,note_on,0,0,1,,,,,,,,,0,,,58,60
5480,note_on,40,0,1,,,,,,,,,0,,,58,0
5480,note_on,0,0,1,,,,,,,,,0,,,54,60
5505,control_change,705,0,3,,,,,,,,,0,64,0,,
5520,note_on,0,0,2,,,,,,,,,0,,,46,70
5520,note_on,40,0,1,,,,,,,,,0,,,54,0
5520,note_on,0,0,1,,,,,,,,,0,,,66,0
5520,note_on,0,0,1,,,,,,,,,0,,,65,70
5520,note_on,0,0,2,,,,,,,,,0,,,34,70
5520,note_on,0,0,2,,,,,,,,,0,,,39,0
5520,note_on,240,0,2,,,,,,,,,0,,,51,0
5520,control_change,15,0,3,,,,,,,,,0,64,127,,
5560,note_on,40,0,2,,,,,,,,,0,,,53,60
5600,note_on,0,0,2,,,,,,,,,0,,,56,60
5600,note_on,40,0,2,,,,,,,,,0,,,53,0
5640,note_on,40,0,2,,,,,,,,,0,,,56,0
5640,note_on,0,0,2,,,,,,,,,0,,,62,60
5680,note_on,40,0,2,,,,,,,,,0,,,62,0
5680,note_on,0,0,2,,,,,,,,,0,,,56,60
5720,note_on,40,0,2,,,,,,,,,0,,,56,0
5720,note_on,0,0,2,,,,,,,,,0,,,53,60
5745,control_change,225,0,3,,,,,,,,,0,64,0,,
5760,note_on,240,0,1,,,,,,,,,0,,,65,0
5760,note_on,0,0,1,,,,,,,,,0,,,63,70
5760,control_change,15,0,3,,,,,,,,,0,64,127,,
5760,note_on,40,0,2,,,,,,,,,0,,,53,0
5760,note_on,0,0,2,,,,,,,,,0,,,46,0
5760,note_on,0,0,2,,,,,,,,,0,,,34,0
5760,note_on,0,0,2,,,,,,,,,0,,,35,70
5760,note_on,0,0,2,,,,,,,,,0,,,47,70
5800,note_on,40,0,2,,,,,,,,,0,,,51,60
5840,note_on,40,0,2,,,,,,,,,0,,,51,0
5840,note_on,0,0,2,,,,,,,,,0,,,54,60
5880,note_on,0,0,2,,,,,,,,,0,,,59,60
5880,note_on,40,0,2,,,,,,,,,0,,,54,0
5920,note_on,40,0,2,,,,,,,,,0,,,59,0
5920,note_on,0,0,2,,,,,,,,,0,,,54,60
5960,note_on,40,0,2,,,,,,,,,0,,,54,0
5960,note_on,0,0,2,,,,,,,,,0,,,51,60
5985,control_change,225,0,3,,,,,,,,,0,64,0,,
6000,note_on,40,0,2,,,,,,,,,0,,,51,0
6000,note_on,0,0,2,,,,,,,,,0,,,47,0
6000,note_on,0,0,2,,,,,,,,,0,,,35,0
6000,note_on,0,0,2,,,,,,,,,0,,,32,70
6000,note_on,0,0,1,,,,,,,,,0,,,68,70
6000,note_on,240,0,1,,,,,,,,,0,,,63,0
6000,control_change,15,0,3,,,,,,,,,0,64,127,,
6000,note_on,0,0,2,,,,,,,,,0,,,44,70
6040,note_on,40,0,1,,,,,,,,,0,,,56,60
6080,note_on,40,0,1,,,,,,,,,0,,,56,0
6080,note_on,0,0,1,,,,,,,,,0,,,59,60
6120,note_on,40,0,1,,,,,,,,,0,,,59,0
6120,note_on,0,0,1,,,,,,,,,0,,,63,60
6160,note_on,40,0,1,,,,,,,,,0,,,63,0
6160,note_on,0,0,1,,,,,,,,,0,,,59,60
6200,note_on,40,0,1,,,,,,,,,0,,,59,0
6200,note_on,0,0,1,,,,,,,,,0,,,56,60
6225,control_change,225,0,3,,,,,,,,,0,64,0,,
6240,note_on,0,0,2,,,,,,,,,0,,,32,0
6240,note_on,0,0,2,,,,,,,,,0,,,37,70
6240,note_on,0,0,2,,,,,,,,,0,,,49,70
6240,control_change,15,0,3,,,,,,,,,0,64,127,,
6240,note_on,0,0,1,,,,,,,,,0,,,66,70
6240,note_on,0,0,1,,,,,,,,,0,,,68,0
6240,note_on,40,0,1,,,,,,,,,0,,,56,0
6240,set_tempo,1440,1,0,,,,,,454580,,,,,,,
6240,note_on,240,0,2,,,,,,,,,0,,,44,0
6254,set_tempo,14,1,0,,,,,,455615,,,,,,,
6261,set_tempo,7,1,0,,,,,,456656,,,,,,,
6268,set_tempo,7,1,0,,,,,,457701,,,,,,,
6275,set_tempo,7,1,0,,,,,,458751,,,,,,,
6280,note_on,40,0,1,,,,,,,,,0,,,59,60
6282,set_tempo,7,1,0,,,,,,459805,,,,,,,
6289,set_tempo,7,1,0,,,,,,460865,,,,,,,
6296,set_tempo,7,1,0,,,,,,461929,,,,,,,
6303,set_tempo,7,1,0,,,,,,462999,,,,,,,
6310,set_tempo,7,1,0,,,,,,464073,,,,,,,
6317,set_tempo,7,1,0,,,,,,465152,,,,,,,
6320,note_on,40,0,1,,,,,,,,,0,,,59,0
6320,note_on,0,0,1,,,,,,,,,0,,,56,60
6324,set_tempo,7,1,0,,,,,,466237,,,,,,,
6331,set_tempo,7,1,0,,,,,,467326,,,,,,,
6338,set_tempo,7,1,0,,,,,,468421,,,,,,,
6345,control_change,105,0,3,,,,,,,,,0,64,0,,
6345,set_tempo,7,1,0,,,,,,469520,,,,,,,
6352,set_tempo,7,1,0,,,,,,470625,,,,,,,
6360,set_tempo,8,1,0,,,,,,471735,,,,,,,
6360,note_on,0,0,1,,,,,,,,,0,,,65,70
6360,control_change,15,0,3,,,,,,,,,0,64,127,,
6360,note_on,40,0,1,,,,,,,,,0,,,56,0
6360,note_on,0,0,1,,,,,,,,,0,,,66,0
6367,set_tempo,7,1,0,,,,,,472851,,,,,,,
6374,set_tempo,7,1,0,,,,,,473971,,,,,,,
6381,set_tempo,7,1,0,,,,,,475097,,,,,,,
6388,set_tempo,7,1,0,,,,,,476228,,,,,,,
6395,set_tempo,7,1,0,,,,,,477365,,,,,,,
6400,note_on,40,0,1,,,,,,,,,0,,,59,60
6402,set_tempo,7,1,0,,,,,,478507,,,,,,,
6409,set_tempo,7,1,0,,,,,,479655,,,,,,,
6416,set_tempo,7,1,0,,,,,,480808,,,,,,,
6423,set_tempo,7,1,0,,,,,,481966,,,,,,,
6430,set_tempo,7,1,0,,,,,,483131,,,,,,,
6437,set_tempo,7,1,0,,,,,,484301,,,,,,,
6440,note_on,40,0,1,,,,,,,,,0,,,59,0
6440,note_on,0,0,1,,,,,,,,,0,,,56,60
6444,set_tempo,7,1,0,,,,,,485476,,,,,,,
6451,set_tempo,7,1,0,,,,,,486657,,,,,,,
6458,set_tempo,7,1,0,,,,,,487845,,,,,,,
6465,set_tempo,7,1,0,,,,,,489037,,,,,,,
6465,control_change,105,0,3,,,,,,,,,0,64,0,,
6472,set_tempo,7,1,0,,,,,,490236,,,,,,,
6480,note_on,40,0,1,,,,,,,,,0,,,56,0
6480,note_on,0,0,1,,,,,,,,,0,,,65,0
6480,note_on,0,0,1,,,,,,,,,0,,,63,70
6480,control_change,15,0,3,,,,,,,,,0,64,127,,
6480,set_tempo,8,1,0,,,,,,491441,,,,,,,
6487,set_tempo,7,1,0,,,,,,492651,,,,,,,
6494,set_tempo,7,1,0,,,,,,493868,,,,,,,
6501,set_tempo,7,1,0,,,,,,495090,,,,,,,
6508,set_tempo,7,1,0,,,,,,496319,,,,,,,
6515,set_tempo,7,1,0,,,,,,497554,,,,,,,
6520,note_on,40,0,1,,,,,,,,,0,,,59,60
6522,set_tempo,7,1,0,,,,,,498795,,,,,,,
6529,set_tempo,7,1,0,,,,,,500042,,,,,,,
6536,set_tempo,7,1,0,,,,,,501295,,,,,,,
6543,set_tempo,7,1,0,,,,,,502555,,,,,,,
6550,set_tempo,7,1,0,,,,,,503821,,,,,,,
6557,set_tempo,7,1,0,,,,,,505093,,,,,,,
6560,note_on,0,0,1,,,,,,,,,0,,,56,60
6560,note_on,40,0,1,,,,,,,,,0,,,59,0
6564,set_tempo,7,1,0,,,,,,506372,,,,,,,
6571,set_tempo,7,1,0,,,,,,507657,,,,,,,
6578,set_tempo,7,1,0,,,,,,508949,,,,,,,
6585,control_change,105,0,3,,,,,,,,,0,64,0,,
6585,set_tempo,7,1,0,,,,,,510247,,,,,,,
6592,set_tempo,7,1,0,,,,,,511553,,,,,,,
6600,note_on,0,0,1,,,,,,,,,0,,,65,70
6600,note_on,0,0,1,,,,,,,,,0,,,63,0
6600,note_on,40,0,1,,,,,,,,,0,,,56,0
6600,control_change,15,0,3,,,,,,,,,0,64,127,,
6600,set_tempo,8,1,0,,,,,,512864,,,,,,,
6607,set_tempo,7,1,0,,,,,,514183,,,,,,,
6614,set_tempo,7,1,0,,,,,,515508,,,,,,,
6621,set_tempo,7,1,0,,,,,,516840,,,,,,,
6628,set_tempo,7,1,0,,,,,,518179,,,,,,,
6635,set_tempo,7,1,0,,,,,,519526,,,,,,,
6640,note_on,40,0,1,,,,,,,,,0,,,59,60
6642,set_tempo,7,1,0,,,,,,520879,,,,,,,
6649,set_tempo,7,1,0,,,,,,522239,,,,,,,
6656,set_tempo,7,1,0,,,,,,523606,,,,,,,
6663,set_tempo,7,1,0,,,,,,524980,,,,,,,
6670,set_tempo,7,1,0,,,,,,526362,,,,,,,
6677,set_tempo,7,1,0,,,,,,527751,,,,,,,
6680,note_on,0,0,1,,,,,,,,,0,,,56,60
6680,note_on,40,0,1,,,,,,,,,0,,,59,0
6684,set_tempo,7,1,0,,,,,,529147,,,,,,,
6691,set_tempo,7,1,0,,,,,,530551,,,,,,,
6698,set_tempo,7,1,0,,,,,,531962,,,,,,,
6705,set_tempo,7,1,0,,,,,,533381,,,,,,,
6705,control_change,105,0,3,,,,,,,,,0,64,0,,
6712,set_tempo,7,1,0,,,,,,534807,,,,,,,
6720,set_tempo,8,1,0,,,,,,535714,,,,,,,
6720,control_change,15,0,3,,,,,,,,,0,64,127,,
6720,note_on,0,0,2,,,,,,,,,0,,,42,70
6720,note_on,0,0,2,,,,,,,,,0,,,49,70
6720,note_on,0,0,2,,,,,,,,,0,,,37,0
6720,note_on,40,0,1,,,,,,,,,0,,,56,0
6720,note_on,0,0,1,,,,,,,,,0,,,65,0
6720,note_on,0,0,1,,,,,,,,,0,,,68,70
6720,note_on,480,0,2,,,,,,,,,0,,,49,0
6760,note_on,40,0,1,,,,,,,,,0,,,59,60
6800,note_on,40,0,1,,,,,,,,,0,,,59,0
6800,note_on,0,0,1,,,,,,,,,0,,,61,60
6840,note_on,0,0,1,,,,,,,,,0,,,65,60
6840,note_on,40,0,1,,,,,,,,,0,,,61,0
6880,note_on,0,0,1,,,,,,,,,0,,,61,60
6880,note_on,40,0,1,,,,,,,,,0,,,65,0
6920,note_on,0,0,1,,,,,,,,,0,,,59,60
6920,note_on,40,0,1,,,,,,,,,0,,,61,0
6960,note_on,0,0,1,,,,,,,,,0,,,61,60
6960,note_on,40,0,1,,,,,,,,,0,,,59,0
7000,note_on,40,0,1,,,,,,,,,0,,,61,0
7000,note_on,0,0,1,,,,,,,,,0,,,59,60
7040,note_on,40,0,1,,,,,,,,,0,,,59,0
7040,note_on,0,0,1,,,,,,,,,0,,,61,60
7080,note_on,40,0,1,,,,,,,,,0,,,61,0
7080,note_on,0,0,1,,,,,,,,,0,,,65,60
7120,note_on,40,0,1,,,,,,,,,0,,,65,0
7120,note_on,0,0,1,,,,,,,,,0,,,61,60
7160,note_on,40,0,1,,,,,,,,,0,,,61,0
7160,note_on,0,0,1,,,,,,,,,0,,,59,60
7185,control_change,465,0,3,,,,,,,,,0,64,0,,
7200,note_on,0,0,1,,,,,,,,,0,,,68,0
7200,control_change,15,0,3,,,,,,,,,0,64,127,,
7200,note_on,40,0,1,,,,,,,,,0,,,59,0
7200,note_on,0,0,1,,,,,,,,,0,,,66,70
7240,note_on,40,0,1,,,,,,,,,0,,,54,60
7280,note_on,40,0,1,,,,,,,,,0,,,54,0
7280,note_on,0,0,1,,,,,,,,,0,,,58,60
7320,note_on,40,0,1,,,,,,,,,0,,,58,0
7320,note_on,0,0,1,,,,,,,,,0,,,61,60
7360,note_on,40,0,1,,,,,,,,,0,,,61,0
7360,note_on,0,0,1,,,,,,,,,0,,,58,60
7400,note_on,40,0,1,,,,,,,,,0,,,58,0
7400,note_on,0,0,1,,,,,,,,,0,,,54,60
7440,note_on,40,0,1,,,,,,,,,0,,,54,0
7440,note_on,0,0,1,,,,,,,,,0,,,58,60
7480,note_on,0,0,1,,,,,,,,,0,,,54,60
7480,note_on,40,0,1,,,,,,,,,0,,,58,0
7520,note_on,40,0,1,,,,,,,,,0,,,54,0
7520,note_on,0,0,1,,,,,,,,,0,,,58,60
7560,note_on,40,0,1,,,,,,,,,0,,,58,0
7560,note_on,0,0,1,,,,,,,,,0,,,61,60
7600,note_on,40,0,1,,,,,,,,,0,,,61,0
7600,note_on,0,0,1,,,,,,,,,0,,,58,60
7640,note_on,40,0,1,,,,,,,,,0,,,58,0
7640,note_on,0,0,1,,,,,,,,,0,,,54,60
7665,control_change,465,0,3,,,,,,,,,0,64,0,,
7680,note_on,960,0,2,,,,,,,,,0,,,49,0
7680,note_on,0,0,2,,,,,,,,,0,,,42,0
7680,note_on,0,0,2,,,,,,,,,0,,,53,70
7680,note_on,0,0,2,,,,,,,,,0,,,49,70
7680,note_on,40,0,1,,,,,,,,,0,,,54,0
7680,control_change,15,0,3,,,,,,,,,0,64,127,,
7680,note_on,0,0,1,,,,,,,,,0,,,68,70
7680,note_on,0,0,1,,,,,,,,,0,,,66,0
7680,set_tempo,960,1,0,,,,,,652174,,,,,,,
7687,set_tempo,7,1,0,,,,,,651537,,,,,,,
7694,set_tempo,7,1,0,,,,,,634988,,,,,,,
7701,set_tempo,7,1,0,,,,,,617347,,,,,,,
7708,set_tempo,7,1,0,,,,,,600661,,,,,,,
7715,set_tempo,7,1,0,,,,,,584852,,,,,,,
7720,note_on,40,0,1,,,,,,,,,0,,,56,60
7722,set_tempo,7,1,0,,,,,,569855,,,,,,,
7729,set_tempo,7,1,0,,,,,,555607,,,,,,,
7736,set_tempo,7,1,0,,,,,,542054,,,,,,,
7743,set_tempo,7,1,0,,,,,,530551,,,,,,,
7750,set_tempo,7,1,0,,,,,,518179,,,,,,,
7757,set_tempo,7,1,0,,,,,,506372,,,,,,,
7760,note_on,0,0,1,,,,,,,,,0,,,61,60
7760,note_on,40,0,1,,,,,,,,,0,,,56,0
7764,set_tempo,7,1,0,,,,,,495090,,,,,,,
7771,set_tempo,7,1,0,,,,,,484301,,,,,,,
7778,set_tempo,7,1,0,,,,,,473971,,,,,,,
7785,set_tempo,7,1,0,,,,,,464073,,,,,,,
7792,set_tempo,7,1,0,,,,,,454580,,,,,,,
7800,set_tempo,8,1,0,,,,,,454545,,,,,,,
7800,note_on,40,0,1,,,,,,,,,0,,,61,0
7800,note_on,0,0,1,,,,,,,,,0,,,65,60
7840,note_on,40,0,1,,,,,,,,,0,,,65,0
7840,note_on,0,0,1,,,,,,,,,0,,,61,60
7880,note_on,40,0,1,,,,,,,,,0,,,61,0
7880,note_on,0,0,1,,,,,,,,,0,,,56,60
7920,note_on,40,0,1,,,,,,,,,0,,,56,0
7920,note_on,0,0,1,,,,,,,,,0,,,61,60
7960,note_on,40,0,1,,,,,,,,,0,,,61,0
7960,note_on,0,0,1,,,,,,,,,0,,,56,60
8000,note_on,40,0,1,,,,,,,,,0,,,56,0
8000,note_on,0,0,1,,,,,,,,,0,,,61,60
8040,note_on,40,0,1,,,,,,,,,0,,,61,0
8040,note_on,0,0,1,,,,,,,,,0,,,65,60
8080,note_on,40,0,1,,,,,,,,,0,,,65,0
8080,note_on,0,0,1,,,,,,,,,0,,,61,60
8120,note_on,40,0,1,,,,,,,,,0,,,61,0
8120,note_on,0,0,1,,,,,,,,,0,,,56,60
8145,control_change,465,0,3,,,,,,,,,0,64,0,,
8160,control_change,15,0,3,,,,,,,,,0,64,127,,
8160,note_on,0,0,2,,,,,,,,,0,,,55,70
8160,note_on,0,0,2,,,,,,,,,0,,,53,0
8160,note_on,480,0,2,,,,,,,,,0,,,49,0
8160,note_on,0,0,2,,,,,,,,,0,,,51,70
8160,note_on,40,0,1,,,,,,,,,0,,,56,0
8160,note_on,0,0,1,,,,,,,,,0,,,68,0
8160,note_on,0,0,1,,,,,,,,,0,,,70,70
8160,note_on,0,0,2,,,,,,,,,0,,,46,70
8200,note_on,40,0,1,,,,,,,,,0,,,61,60
8240,note_on,40,0,1,,,,,,,,,0,,,61,0
8240,note_on,0,0,1,,,,,,,,,0,,,63,60
8280,note_on,40,0,1,,,,,,,,,0,,,63,0
8280,note_on,0,0,1,,,,,,,,,0,,,67,60
8320,note_on,40,0,1,,,,,,,,,0,,,67,0
8320,note_on,0,0,1,,,,,,,,,0,,,63,60
8360,note_on,40,0,1,,,,,,,,,0,,,63,0
8360,note_on,0,0,1,,,,,,,,,0,,,61,60
8400,note_on,40,0,1,,,,,,,,,0,,,61,0
8400,note_on,0,0,1,,,,,,,,,0,,,63,60
8440,note_on,40,0,1,,,,,,,,,0,,,63,0
8440,note_on,0,0,1,,,,,,,,,0,,,61,60
8480,note_on,40,0,1,,,,,,,,,0,,,61,0
8480,note_on,0,0,1,,,,,,,,,0,,,63,60
8520,note_on,40,0,1,,,,,,,,,0,,,63,0
8520,note_on,0,0,1,,,,,,,,,0,,,67,60
8560,note_on,40,0,1,,,,,,,,,0,,,67,0
8560,note_on,0,0,1,,,,,,,,,0,,,63,60
8600,note_on,40,0,1,,,,,,,,,0,,,63,0
8600,note_on,0,0,1,,,,,,,,,0,,,61,60
8625,control_change,465,0,3,,,,,,,,,0,64,0,,
8640,note_on,0,0,2,,,,,,,,,0,,,55,0
8640,note_on,40,0,1,,,,,,,,,0,,,61,0
8640,note_on,0,0,1,,,,,,,,,0,,,70,0
8640,note_on,0,0,1,,,,,,,,,0,,,73,70
8640,note_on,0,0,2,,,,,,,,,0,,,56,70
8640,control_change,15,0,3,,,,,,,,,0,64,127,,
8640,note_on,0,0,2,,,,,,,,,0,,,51,0
8640,note_on,480,0,2,,,,,,,,,0,,,46,0
8640,note_on,0,0,2,,,,,,,,,0,,,51,70
8640,note_on,0,0,2,,,,,,,,,0,,,44,70
8680,note_on,40,0,1,,,,,,,,,0,,,61,60
8720,note_on,0,0,1,,,,,,,,,0,,,63,60
8720,note_on,40,0,1,,,,,,,,,0,,,61,0
8760,note_on,0,0,1,,,,,,,,,0,,,68,60
8760,note_on,40,0,1,,,,,,,,,0,,,63,0
8800,note_on,0,0,1,,,,,,,,,0,,,63,60
8800,note_on,40,0,1,,,,,,,,,0,,,68,0
8840,note_on,40,0,1,,,,,,,,,0,,,63,0
8840,note_on,0,0,1,,,,,,,,,0,,,61,60
8880,note_on,0,0,1,,,,,,,,,0,,,63,60
8880,note_on,40,0,1,,,,,,,,,0,,,61,0
8920,note_on,40,0,1,,,,,,,,,0,,,63,0
8920,note_on,0,0,1,,,,,,,,,0,,,61,60
8960,note_on,40,0,1,,,,,,,,,0,,,61,0
8960,note_on,0,0,1,,,,,,,,,0,,,63,60
9000,note_on,0,0,1,,,,,,,,,0,,,73,0
9000,note_on,0,0,1,,,,,,,,,0,,,68,60
9000,note_on,0,0,1,,,,,,,,,0,,,71,70
9000,note_on,40,0,1,,,,,,,,,0,,,63,0
9040,note_on,40,0,1,,,,,,,,,0,,,68,0
9040,note_on,0,0,1,,,,,,,,,0,,,63,60
9080,note_on,0,0,1,,,,,,,,,0,,,59,60
9080,note_on,40,0,1,,,,,,,,,0,,,63,0
9105,control_change,465,0,3,,,,,,,,,0,64,0,,
9120,note_on,40,0,1,,,,,,,,,0,,,59,0
9120,note_on,0,0,1,,,,,,,,,0,,,71,0
9120,note_on,0,0,1,,,,,,,,,0,,,71,70
9120,control_change,15,0,3,,,,,,,,,0,64,127,,
9160,note_on,40,0,1,,,,,,,,,0,,,59,60
9200,note_on,0,0,1,,,,,,,,,0,,,63,60
9200,note_on,40,0,1,,,,,,,,,0,,,59,0
9240,note_on,0,0,1,,,,,,,,,0,,,68,60
9240,note_on,40,0,1,,,,,,,,,0,,,63,0
9280,note_on,0,0,1,,,,,,,,,0,,,63,60
9280,note_on,40,0,1,,,,,,,,,0,,,68,0
9320,note_on,40,0,1,,,,,,,,,0,,,63,0
9320,note_on,0,0,1,,,,,,,,,0,,,59,60
9360,note_on,0,0,1,,,,,,,,,0,,,63,60
9360,note_on,40,0,1,,,,,,,,,0,,,59,0
9400,note_on,40,0,1,,,,,,,,,0,,,63,0
9400,note_on,0,0,1,,,,,,,,,0,,,59,60
9440,note_on,40,0,1,,,,,,,,,0,,,59,0
9440,note_on,0,0,1,,,,,,,,,0,,,63,60
9480,note_on,40,0,1,,,,,,,,,0,,,63,0
9480,note_on,0,0,1,,,,,,,,,0,,,68,60
9520,note_on,0,0,1,,,,,,,,,0,,,63,60
9520,note_on,40,0,1,,,,,,,,,0,,,68,0
9560,note_on,0,0,1,,,,,,,,,0,,,59,60
9560,note_on,40,0,1,,,,,,,,,0,,,63,0
9585,control_change,465,0,3,,,,,,,,,0,64,0,,
9600,set_tempo,1800,1,0,,,,,,652174,,,,,,,
9600,note_on,0,0,1,,,,,,,,,0,,,71,70
9600,note_on,0,0,2,,,,,,,,,0,,,52,70
9600,note_on,40,0,1,,,,,,,,,0,,,59,0
9600,note_on,960,0,2,,,,,,,,,0,,,44,0
9600,note_on,0,0,2,,,,,,,,,0,,,51,0
9600,note_on,0,0,2,,,,,,,,,0,,,56,0
9600,note_on,0,0,2,,,,,,,,,0,,,56,70
9600,control_change,15,0,3,,,,,,,,,0,64,127,,
9600,note_on,0,0,1,,,,,,,,,0,,,71,0
9607,set_tempo,7,1,0,,,,,,651537,,,,,,,
9614,set_tempo,7,1,0,,,,,,634988,,,,,,,
9621,set_tempo,7,1,0,,,,,,617347,,,,,,,
9628,set_tempo,7,1,0,,,,,,600661,,,,,,,
9635,set_tempo,7,1,0,,,,,,584852,,,,,,,
9640,note_on,40,0,1,,,,,,,,,0,,,59,60
9642,set_tempo,7,1,0,,,,,,569855,,,,,,,
9649,set_tempo,7,1,0,,,,,,555607,,,,,,,
9656,set_tempo,7,1,0,,,,,,542054,,,,,,,
9663,set_tempo,7,1,0,,,,,,530551,,,,,,,
9670,set_tempo,7,1,0,,,,,,518179,,,,,,,
9677,set_tempo,7,1,0,,,,,,506372,,,,,,,
9680,note_on,0,0,1,,,,,,,,,0,,,64,60
9680,note_on,40,0,1,,,,,,,,,0,,,59,0
9684,set_tempo,7,1,0,,,,,,495090,,,,,,,
9691,set_tempo,7,1,0,,,,,,484301,,,,,,,
9698,set_tempo,7,1,0,,,,,,473971,,,,,,,
9705,set_tempo,7,1,0,,,,,,464073,,,,,,,
9712,set_tempo,7,1,0,,,,,,454580,,,,,,,
9720,set_tempo,8,1,0,,,,,,454545,,,,,,,
9720,note_on,40,0,1,,,,,,,,,0,,,64,0
9720,note_on,0,0,1,,,,,,,,,0,,,68,61
9760,note_on,0,0,1,,,,,,,,,0,,,64,61
9760,note_on,40,0,1,,,,,,,,,0,,,68,0
9800,note_on,0,0,1,,,,,,,,,0,,,59,62
9800,note_on,40,0,1,,,,,,,,,0,,,64,0
9840,note_on,0,0,1,,,,,,,,,0,,,64,62
9840,note_on,40,0,1,,,,,,,,,0,,,59,0
9880,note_on,0,0,1,,,,,,,,,0,,,59,63
9880,note_on,40,0,1,,,,,,,,,0,,,64,0
9920,note_on,0,0,1,,,,,,,,,0,,,64,63
9920,note_on,40,0,1,,,,,,,,,0,,,59,0
9960,note_on,40,0,1,,,,,,,,,0,,,64,0
9960,note_on,0,0,1,,,,,,,,,0,,,68,64
10000,note_on,40,0,1,,,,,,,,,0,,,68,0
10000,note_on,0,0,1,,,,,,,,,0,,,64,64
10040,note_on,40,0,1,,,,,,,,,0,,,64,0
10040,note_on,0,0,1,,,,,,,,,0,,,59,65
10065,control_change,465,0,3,,,,,,,,,0,64,0,,
10080,note_on,0,0,2,,,,,,,,,0,,,51,75
10080,note_on,0,0,2,,,,,,,,,0,,,54,75
10080,note_on,0,0,2,,,,,,,,,0,,,56,0
10080,note_on,480,0,2,,,,,,,,,0,,,52,0
10080,note_on,40,0,1,,,,,,,,,0,,,59,0
10080,note_on,0,0,1,,,,,,,,,0,,,71,75
10080,note_on,0,0,1,,,,,,,,,0,,,71,0
10080,control_change,15,0,3,,,,,,,,,0,64,127,,
10120,note_on,40,0,1,,,,,,,,,0,,,59,66
10160,note_on,0,0,1,,,,,,,,,0,,,63,66
10160,note_on,40,0,1,,,,,,,,,0,,,59,0
10200,note_on,0,0,1,,,,,,,,,0,,,66,67
10200,note_on,40,0,1,,,,,,,,,0,,,63,0
10240,note_on,0,0,1,,,,,,,,,0,,,63,67
10240,note_on,40,0,1,,,,,,,,,0,,,66,0
10280,note_on,0,0,1,,,,,,,,,0,,,59,68
10280,note_on,40,0,1,,,,,,,,,0,,,63,0
10305,control_change,225,0,3,,,,,,,,,0,64,0,,
10320,note_on,0,0,2,,,,,,,,,0,,,54,0
10320,note_on,0,0,2,,,,,,,,,0,,,49,78
10320,note_on,0,0,2,,,,,,,,,0,,,54,78
10320,note_on,0,0,2,,,,,,,,,0,,,58,78
10320,control_change,15,0,3,,,,,,,,,0,64,127,,
10320,note_on,40,0,1,,,,,,,,,0,,,59,0
10320,note_on,0,0,1,,,,,,,,,0,,,71,0
10320,note_on,0,0,1,,,,,,,,,0,,,73,78
10320,note_on,240,0,2,,,,,,,,,0,,,51,0
10360,note_on,40,0,1,,,,,,,,,0,,,64,69
10400,note_on,40,0,1,,,,,,,,,0,,,64,0
10400,note_on,0,0,1,,,,,,,,,0,,,66,69
10440,note_on,0,0,1,,,,,,,,,0,,,70,70
10440,note_on,40,0,1,,,,,,,,,0,,,66,0
10480,note_on,0,0,1,,,,,,,,,0,,,66,70
10480,note_on,40,0,1,,,,,,,,,0,,,70,0
10520,note_on,0,0,1,,,,,,,,,0,,,64,71
10520,note_on,40,0,1,,,,,,,,,0,,,66,0
10545,control_change,225,0,3,,,,,,,,,0,64,0,,
10560,note_on,0,0,1,,,,,,,,,0,,,73,0
10560,note_on,0,0,2,,,,,,,,,0,,,58,0
10560,note_on,0,0,2,,,,,,,,,0,,,59,81
10560,note_on,0,0,2,,,,,,,,,0,,,54,81
10560,note_on,40,0,1,,,,,,,,,0,,,64,0
10560,note_on,0,0,2,,,,,,,,,0,,,54,0
10560,note_on,0,0,1,,,,,,,,,0,,,76,81
10560,note_on,240,0,2,,,,,,,,,0,,,49,0
10560,note_on,0,0,2,,,,,,,,,0,,,47,81
10560,control_change,15,0,3,,,,,,,,,0,64,127,,
10600,note_on,40,0,1,,,,,,,,,0,,,64,72
10640,note_on,0,0,1,,,,,,,,,0,,,66,72
10640,note_on,40,0,1,,,,,,,,,0,,,64,0
10680,note_on,0,0,1,,,,,,,,,0,,,71,73
10680,note_on,40,0,1,,,,,,,,,0,,,66,0
10720,note_on,40,0,1,,,,,,,,,0,,,71,0
10720,note_on,0,0,1,,,,,,,,,0,,,66,73
10760,note_on,40,0,1,,,,,,,,,0,,,66,0
10760,note_on,0,0,1,,,,,,,,,0,,,64,74
10800,note_on,40,0,1,,,,,,,,,0,,,64,0
10800,note_on,0,0,1,,,,,,,,,0,,,66,74
10840,note_on,40,0,1,,,,,,,,,0,,,66,0
10840,note_on,0,0,1,,,,,,,,,0,,,64,75
10880,note_on,0,0,1,,,,,,,,,0,,,66,75
10880,note_on,40,0,1,,,,,,,,,0,,,64,0
10920,note_on,0,0,1,,,,,,,,,0,,,76,0
10920,note_on,0,0,1,,,,,,,,,0,,,71,76
10920,note_on,0,0,1,,,,,,,,,0,,,75,86
10920,note_on,40,0,1,,,,,,,,,0,,,66,0
10960,note_on,40,0,1,,,,,,,,,0,,,71,0
10960,note_on,0,0,1,,,,,,,,,0,,,66,76
11000,note_on,40,0,1,,,,,,,,,0,,,66,0
11000,note_on,0,0,1,,,,,,,,,0,,,63,77
11025,control_change,465,0,3,,,,,,,,,0,64,0,,
11040,note_on,0,0,1,,,,,,,,,0,,,75,0
11040,note_on,40,0,1,,,,,,,,,0,,,63,0
11040,control_change,15,0,3,,,,,,,,,0,64,127,,
11040,note_on,0,0,1,,,,,,,,,0,,,75,87
11080,note_on,40,0,1,,,,,,,,,0,,,63,78
11120,note_on,0,0,1,,,,,,,,,0,,,66,78
11120,note_on,40,0,1,,,,,,,,,0,,,63,0
11160,note_on,40,0,1,,,,,,,,,0,,,66,0
11160,note_on,0,0,1,,,,,,,,,0,,,71,79
11200,note_on,40,0,1,,,,,,,,,0,,,71,0
11200,note_on,0,0,1,,,,,,,,,0,,,66,79
11240,note_on,40,0,1,,,,,,,,,0,,,66,0
11240,note_on,0,0,1,,,,,,,,,0,,,63,80
11280,note_on,40,0,1,,,,,,,,,0,,,63,0
11280,note_on,0,0,1,,,,,,,,,0,,,66,80
11320,note_on,0,0,1,,,,,,,,,0,,,63,80
11320,note_on,40,0,1,,,,,,,,,0,,,66,0
11360,note_on,40,0,1,,,,,,,,,0,,,63,0
11360,note_on,0,0,1,,,,,,,,,0,,,66,80
11400,note_on,40,0,1,,,,,,,,,0,,,66,0
11400,note_on,0,0,1,,,,,,,,,0,,,71,80
11440,note_on,40,0,1,,,,,,,,,0,,,71,0
11440,note_on,0,0,1,,,,,,,,,0,,,66,80
11480,note_on,40,0,1,,,,,,,,,0,,,66,0
11480,note_on,0,0,1,,,,,,,,,0,,,63,80
11505,control_change,465,0,3,,,,,,,,,0,64,0,,
11520,note_on,0,0,1,,,,,,,,,0,,,75,50
11520,note_on,0,0,1,,,,,,,,,0,,,75,0
11520,note_on,40,0,1,,,,,,,,,0,,,63,0
11520,control_change,15,0,3,,,,,,,,,0,64,127,,
11520,note_on,960,0,2,,,,,,,,,0,,,47,0
11520,note_on,0,0,2,,,,,,,,,0,,,54,0
11520,note_on,0,0,2,,,,,,,,,0,,,59,0
11520,note_on,0,0,2,,,,,,,,,0,,,47,50
11520,note_on,0,0,2,,,,,,,,,0,,,54,50
11560,note_on,40,0,1,,,,,,,,,0,,,63,40
11600,note_on,40,0,1,,,,,,,,,0,,,63,0
11600,note_on,0,0,1,,,,,,,,,0,,,66,40
11640,note_on,0,0,1,,,,,,,,,0,,,71,40
11640,note_on,40,0,1,,,,,,,,,0,,,66,0
11680,note_on,40,0,1,,,,,,,,,0,,,71,0
11680,note_on,0,0,1,,,,,,,,,0,,,66,40
11720,note_on,0,0,1,,,,,,,,,0,,,63,40
11720,note_on,40,0,1,,,,,,,,,0,,,66,0
11760,note_on,40,0,1,,,,,,,,,0,,,63,0
11760,note_on,0,0,1,,,,,,,,,0,,,66,40
11800,note_on,40,0,1,,,,,,,,,0,,,66,0
11800,note_on,0,0,1,,,,,,,,,0,,,63,40
11840,note_on,40,0,1,,,,,,,,,0,,,63,0
11840,note_on,0,0,1,,,,,,,,,0,,,66,40
11880,note_on,0,0,1,,,,,,,,,0,,,71,40
11880,note_on,40,0,1,,,,,,,,,0,,,66,0
11920,note_on,0,0,1,,,,,,,,,0,,,66,40
11920,note_on,40,0,1,,,,,,,,,0,,,71,0
11960,note_on,40,0,1,,,,,,,,,0,,,66,0
11960,note_on,0,0,1,,,,,,,,,0,,,63,40
11985,control_change,465,0,3,,,,,,,,,0,64,0,,
12000,note_on,40,0,1,,,,,,,,,0,,,63,0
12000,note_on,0,0,2,,,,,,,,,0,,,47,50
12000,note_on,0,0,1,,,,,,,,,0,,,75,0
12000,control_change,15,0,3,,,,,,,,,0,64,127,,
12000,note_on,480,0,2,,,,,,,,,0,,,54,0
12000,note_on,0,0,2,,,,,,,,,0,,,47,0
12000,note_on,0,0,2,,,,,,,,,0,,,56,50
12000,note_on,0,0,1,,,,,,,,,0,,,75,50
12040,note_on,40,0,1,,,,,,,,,0,,,68,40
12080,note_on,40,0,1,,,,,,,,,0,,,68,0
12080,note_on,0,0,1,,,,,,,,,0,,,65,40
12120,note_on,40,0,1,,,,,,,,,0,,,65,0
12120,note_on,0,0,1,,,,,,,,,0,,,75,0
12120,note_on,0,0,1,,,,,,,,,0,,,71,50
12160,note_on,40,0,1,,,,,,,,,0,,,68,40
12200,note_on,0,0,1,,,,,,,,,0,,,65,40
12200,note_on,40,0,1,,,,,,,,,0,,,68,0
12225,control_change,225,0,3,,,,,,,,,0,64,0,,
12240,note_on,240,0,2,,,,,,,,,0,,,56,0
12240,note_on,0,0,1,,,,,,,,,0,,,70,50
12240,note_on,0,0,1,,,,,,,,,0,,,71,0
12240,note_on,40,0,1,,,,,,,,,0,,,65,0
12240,note_on,0,0,2,,,,,,,,,0,,,53,50
12240,control_change,15,0,3,,,,,,,,,0,64,127,,
12280,note_on,40,0,1,,,,,,,,,0,,,65,40
12320,note_on,0,0,1,,,,,,,,,0,,,61,40
12320,note_on,40,0,1,,,,,,,,,0,,,65,0
12360,note_on,40,0,1,,,,,,,,,0,,,61,0
12360,note_on,0,0,1,,,,,,,,,0,,,70,0
12360,note_on,0,0,1,,,,,,,,,0,,,68,50
12400,note_on,40,0,1,,,,,,,,,0,,,65,40
12440,note_on,0,0,1,,,,,,,,,0,,,61,40
12440,note_on,40,0,1,,,,,,,,,0,,,65,0
12465,control_change,225,0,3,,,,,,,,,0,64,0,,
12480,note_on,0,0,1,,,,,,,,,0,,,68,0
12480,control_change,15,0,3,,,,,,,,,0,64,127,,
12480,note_on,40,0,1,,,,,,,,,0,,,61,0
12480,note_on,240,0,2,,,,,,,,,0,,,53,0
12480,note_on,0,0,2,,,,,,,,,0,,,47,0
12480,note_on,0,0,2,,,,,,,,,0,,,54,50
12480,note_on,0,0,2,,,,,,,,,0,,,46,50
12480,note_on,0,0,1,,,,,,,,,0,,,73,50
12520,note_on,40,0,1,,,,,,,,,0,,,61,40
12560,note_on,40,0,1,,,,,,,,,0,,,61,0
12560,note_on,0,0,1,,,,,,,,,0,,,66,40
12600,note_on,0,0,1,,,,,,,,,0,,,70,40
12600,note_on,40,0,1,,,,,,,,,0,,,66,0
12640,note_on,0,0,1,,,,,,,,,0,,,66,40
12640,note_on,40,0,1,,,,,,,,,0,,,70,0
12680,note_on,0,0,1,,,,,,,,,0,,,61,40
12680,note_on,40,0,1,,,,,,,,,0,,,66,0
12720,note_on,0,0,1,,,,,,,,,0,,,66,40
12720,note_on,40,0,1,,,,,,,,,0,,,61,0
12760,note_on,40,0,1,,,,,,,,,0,,,66,0
12760,note_on,0,0,1,,,,,,,,,0,,,61,40
12800,note_on,0,0,1,,,,,,,,,0,,,66,40
12800,note_on,40,0,1,,,,,,,,,0,,,61,0
12840,note_on,40,0,1,,,,,,,,,0,,,66,0
12840,note_on,0,0,1,,,,,,,,,0,,,70,40
12880,note_on,40,0,1,,,,,,,,,0,,,70,0
12880,note_on,0,0,1,,,,,,,,,0,,,66,40
12920,note_on,40,0,1,,,,,,,,,0,,,66,0
12920,note_on,0,0,1,,,,,,,,,0,,,61,40
12945,control_change,465,0,3,,,,,,,,,0,64,0,,
12960,note_on,480,0,2,,,,,,,,,0,,,46,0
12960,note_on,0,0,1,,,,,,,,,0,,,73,50
12960,note_on,0,0,1,,,,,,,,,0,,,73,0
12960,note_on,40,0,1,,,,,,,,,0,,,61,0
12960,control_change,15,0,3,,,,,,,,,0,64,127,,
12960,note_on,0,0,2,,,,,,,,,0,,,54,0
12960,note_on,0,0,2,,,,,,,,,0,,,54,50
12960,note_on,0,0,2,,,,,,,,,0,,,47,50
13000,note_on,40,0,1,,,,,,,,,0,,,66,40
13040,note_on,0,0,1,,,,,,,,,0,,,63,40
13040,note_on,40,0,1,,,,,,,,,0,,,66,0
13080,note_on,40,0,1,,,,,,,,,0,,,63,0
13080,note_on,0,0,1,,,,,,,,,0,,,71,50
13080,note_on,0,0,1,,,,,,,,,0,,,73,0
13120,note_on,40,0,1,,,,,,,,,0,,,66,40
13160,note_on,40,0,1,,,,,,,,,0,,,66,0
13160,note_on,0,0,1,,,,,,,,,0,,,63,40
13185,control_change,225,0,3,,,,,,,,,0,64,0,,
13200,note_on,0,0,2,,,,,,,,,0,,,56,50
13200,note_on,40,0,1,,,,,,,,,0,,,63,0
13200,note_on,240,0,2,,,,,,,,,0,,,54,0
13200,note_on,0,0,1,,,,,,,,,0,,,68,50
13200,control_change,15,0,3,,,,,,,,,0,64,127,,
13200,note_on,0,0,1,,,,,,,,,0,,,71,0
13240,note_on,40,0,1,,,,,,,,,0,,,63,40
13280,note_on,40,0,1,,,,,,,,,0,,,63,0
13280,note_on,0,0,1,,,,,,,,,0,,,59,40
13320,note_on,40,0,1,,,,,,,,,0,,,59,0
13320,note_on,0,0,1,,,,,,,,,0,,,68,0
13320,note_on,0,0,1,,,,,,,,,0,,,63,50
13360,note_on,40,0,1,,,,,,,,,0,,,59,40
13400,note_on,40,0,1,,,,,,,,,0,,,59,0
13400,note_on,0,0,1,,,,,,,,,0,,,56,40
13425,control_change,225,0,3,,,,,,,,,0,64,0,,
13440,control_change,15,0,3,,,,,,,,,0,64,127,,
13440,note_on,40,0,1,,,,,,,,,0,,,56,0
13440,note_on,0,0,1,,,,,,,,,0,,,63,0
13440,note_on,0,0,1,,,,,,,,,0,,,66,50
13440,note_on,240,0,2,,,,,,,,,0,,,56,0
13440,note_on,0,0,2,,,,,,,,,0,,,47,0
13440,note_on,0,0,2,,,,,,,,,0,,,49,50
13480,note_on,40,0,1,,,,,,,,,0,,,54,40
13520,note_on,40,0,1,,,,,,,,,0,,,54,0
13520,note_on,0,0,1,,,,,,,,,0,,,58,40
13560,note_on,0,0,1,,,,,,,,,0,,,61,40
13560,note_on,40,0,1,,,,,,,,,0,,,58,0
13600,note_on,40,0,1,,,,,,,,,0,,,61,0
13600,note_on,0,0,1,,,,,,,,,0,,,58,40
13640,note_on,40,0,1,,,,,,,,,0,,,58,0
13640,note_on,0,0,1,,,,,,,,,0,,,54,40
13680,note_on,40,0,1,,,,,,,,,0,,,54,0
13680,note_on,0,0,1,,,,,,,,,0,,,58,40
13720,note_on,40,0,1,,,,,,,,,0,,,58,0
13720,note_on,0,0,1,,,,,,,,,0,,,54,40
13760,note_on,40,0,1,,,,,,,,,0,,,54,0
13760,note_on,0,0,1,,,,,,,,,0,,,58,40
13800,note_on,40,0,1,,,,,,,,,0,,,58,0
13800,note_on,0,0,1,,,,,,,,,0,,,61,40
13840,note_on,0,0,1,,,,,,,,,0,,,58,40
13840,note_on,40,0,1,,,,,,,,,0,,,61,0
13880,note_on,0,0,1,,,,,,,,,0,,,54,40
13880,note_on,40,0,1,,,,,,,,,0,,,58,0
13880,note_on,440,0,2,,,,,,,,,0,,,37,50
13905,control_change,465,0,3,,,,,,,,,0,64,0,,
13920,note_on,0,0,1,,,,,,,,,0,,,66,50
13920,note_on,0,0,2,,,,,,,,,0,,,49,0
13920,note_on,0,0,2,,,,,,,,,0,,,49,50
13920,note_on,0,0,1,,,,,,,,,0,,,66,0
13920,note_on,40,0,1,,,,,,,,,0,,,54,0
13920,control_change,15,0,3,,,,,,,,,0,64,127,,
13920,set_tempo,4200,1,0,,,,,,454580,,,,,,,
13920,note_on,40,0,2,,,,,,,,,0,,,37,0
13934,set_tempo,14,1,0,,,,,,455615,,,,,,,
13941,set_tempo,7,1,0,,,,,,456656,,,,,,,
13948,set_tempo,7,1,0,,,,,,457701,,,,,,,
13955,set_tempo,7,1,0,,,,,,458751,,,,,,,
13960,note_on,40,0,1,,,,,,,,,0,,,59,40
13962,set_tempo,7,1,0,,,,,,459805,,,,,,,
13969,set_tempo,7,1,0,,,,,,460865,,,,,,,
13976,set_tempo,7,1,0,,,,,,461929,,,,,,,
13983,set_tempo,7,1,0,,,,,,462999,,,,,,,
13990,set_tempo,7,1,0,,,,,,464073,,,,,,,
13997,set_tempo,7,1,0,,,,,,465152,,,,,,,
14000,note_on,0,0,1,,,,,,,,,0,,,56,40
14000,note_on,40,0,1,,,,,,,,,0,,,59,0
14004,set_tempo,7,1,0,,,,,,466237,,,,,,,
14011,set_tempo,7,1,0,,,,,,467326,,,,,,,
14018,set_tempo,7,1,0,,,,,,468421,,,,,,,
14025,set_tempo,7,1,0,,,,,,469520,,,,,,,
14032,set_tempo,7,1,0,,,,,,470625,,,,,,,
14040,note_on,40,0,1,,,,,,,,,0,,,56,0
14040,note_on,0,0,1,,,,,,,,,0,,,65,50
14040,note_on,0,0,1,,,,,,,,,0,,,66,0
14040,set_tempo,8,1,0,,,,,,471735,,,,,,,
14047,set_tempo,7,1,0,,,,,,472851,,,,,,,
14054,set_tempo,7,1,0,,,,,,473971,,,,,,,
14061,set_tempo,7,1,0,,,,,,475097,,,,,,,
14068,set_tempo,7,1,0,,,,,,476228,,,,,,,
14075,set_tempo,7,1,0,,,,,,477365,,,,,,,
14080,note_on,40,0,1,,,,,,,,,0,,,59,40
14082,set_tempo,7,1,0,,,,,,478507,,,,,,,
14089,set_tempo,7,1,0,,,,,,479655,,,,,,,
14096,set_tempo,7,1,0,,,,,,480808,,,,,,,
14103,set_tempo,7,1,0,,,,,,481966,,,,,,,
14110,set_tempo,7,1,0,,,,,,483131,,,,,,,
14117,set_tempo,7,1,0,,,,,,484301,,,,,,,
14120,note_on,40,0,1,,,,,,,,,0,,,59,0
14120,note_on,0,0,1,,,,,,,,,0,,,56,40
14124,set_tempo,7,1,0,,,,,,485476,,,,,,,
14131,set_tempo,7,1,0,,,,,,486657,,,,,,,
14138,set_tempo,7,1,0,,,,,,487845,,,,,,,
14145,control_change,225,0,3,,,,,,,,,0,64,0,,
14145,set_tempo,7,1,0,,,,,,489037,,,,,,,
14152,set_tempo,7,1,0,,,,,,490236,,,,,,,
14160,note_on,0,0,1,,,,,,,,,0,,,65,0
14160,note_on,240,0,2,,,,,,,,,0,,,54,50
14160,note_on,40,0,1,,,,,,,,,0,,,56,0
14160,control_change,15,0,3,,,,,,,,,0,64,127,,
14160,note_on,0,0,1,,,,,,,,,0,,,70,50
14160,set_tempo,8,1,0,,,,,,491441,,,,,,,
14167,set_tempo,7,1,0,,,,,,492651,,,,,,,
14174,set_tempo,7,1,0,,,,,,493868,,,,,,,
14181,set_tempo,7,1,0,,,,,,495090,,,,,,,
14188,set_tempo,7,1,0,,,,,,496319,,,,,,,
14195,set_tempo,7,1,0,,,,,,497554,,,,,,,
14200,note_on,40,0,1,,,,,,,,,0,,,61,40
14202,set_tempo,7,1,0,,,,,,498795,,,,,,,
14209,set_tempo,7,1,0,,,,,,500042,,,,,,,
14216,set_tempo,7,1,0,,,,,,501295,,,,,,,
14223,set_tempo,7,1,0,,,,,,502555,,,,,,,
14230,set_tempo,7,1,0,,,,,,503821,,,,,,,
14237,set_tempo,7,1,0,,,,,,505093,,,,,,,
14240,note_on,0,0,1,,,,,,,,,0,,,59,40
14240,note_on,40,0,1,,,,,,,,,0,,,61,0
14244,set_tempo,7,1,0,,,,,,506372,,,,,,,
14251,set_tempo,7,1,0,,,,,,507657,,,,,,,
14258,set_tempo,7,1,0,,,,,,508949,,,,,,,
14265,set_tempo,7,1,0,,,,,,510247,,,,,,,
14272,set_tempo,7,1,0,,,,,,511553,,,,,,,
14280,note_on,0,0,1,,,,,,,,,0,,,70,0
14280,set_tempo,8,1,0,,,,,,512864,,,,,,,
14280,note_on,0,0,1,,,,,,,,,0,,,68,50
14280,note_on,40,0,1,,,,,,,,,0,,,59,0
14280,note_on,0,0,2,,,,,,,,,0,,,53,50
14280,note_on,120,0,2,,,,,,,,,0,,,54,0
14287,set_tempo,7,1,0,,,,,,514183,,,,,,,
14294,set_tempo,7,1,0,,,,,,515508,,,,,,,
14301,set_tempo,7,1,0,,,,,,516840,,,,,,,
14308,set_tempo,7,1,0,,,,,,518179,,,,,,,
14315,set_tempo,7,1,0,,,,,,519526,,,,,,,
14320,note_on,40,0,1,,,,,,,,,0,,,61,40
14322,set_tempo,7,1,0,,,,,,520879,,,,,,,
14329,set_tempo,7,1,0,,,,,,522239,,,,,,,
14336,set_tempo,7,1,0,,,,,,523606,,,,,,,
14343,set_tempo,7,1,0,,,,,,524980,,,,,,,
14350,set_tempo,7,1,0,,,,,,526362,,,,,,,
14357,set_tempo,7,1,0,,,,,,527751,,,,,,,
14360,note_on,0,0,1,,,,,,,,,0,,,59,40
14360,note_on,40,0,1,,,,,,,,,0,,,61,0
14364,set_tempo,7,1,0,,,,,,529147,,,,,,,
14371,set_tempo,7,1,0,,,,,,530551,,,,,,,
14378,set_tempo,7,1,0,,,,,,531962,,,,,,,
14385,control_change,225,0,3,,,,,,,,,0,64,0,,
14385,set_tempo,7,1,0,,,,,,533381,,,,,,,
14392,set_tempo,7,1,0,,,,,,534807,,,,,,,
14400,note_on,0,0,2,,,,,,,,,0,,,49,0
14400,note_on,0,0,1,,,,,,,,,0,,,66,50
14400,note_on,120,0,2,,,,,,,,,0,,,53,0
14400,control_change,15,0,3,,,,,,,,,0,64,127,,
14400,note_on,0,0,1,,,,,,,,,0,,,68,0
14400,note_on,0,0,2,,,,,,,,,0,,,49,50
14400,note_on,0,0,2,,,,,,,,,0,,,42,50
14400,set_tempo,8,1,0,,,,,,535714,,,,,,,
14400,note_on,40,0,1,,,,,,,,,0,,,59,0
14440,note_on,40,0,1,,,,,,,,,0,,,54,40
14480,note_on,0,0,1,,,,,,,,,0,,,58,40
14480,note_on,40,0,1,,,,,,,,,0,,,54,0
14520,note_on,0,0,1,,,,,,,,,0,,,61,40
14520,note_on,40,0,1,,,,,,,,,0,,,58,0
14560,note_on,0,0,1,,,,,,,,,0,,,58,40
14560,note_on,40,0,1,,,,,,,,,0,,,61,0
14600,note_on,40,0,1,,,,,,,,,0,,,58,0
14600,note_on,0,0,1,,,,,,,,,0,,,54,40
14640,note_on,40,0,1,,,,,,,,,0,,,54,0
14640,note_on,0,0,1,,,,,,,,,0,,,58,40
14680,note_on,40,0,1,,,,,,,,,0,,,58,0
14680,note_on,0,0,1,,,,,,,,,0,,,54,40
14720,note_on,40,0,1,,,,,,,,,0,,,54,0
14720,note_on,0,0,1,,,,,,,,,0,,,58,40
14760,note_on,40,0,1,,,,,,,,,0,,,58,0
14760,note_on,0,0,1,,,,,,,,,0,,,61,40
14800,note_on,40,0,1,,,,,,,,,0,,,61,0
14800,note_on,0,0,1,,,,,,,,,0,,,58,40
14840,note_on,40,0,1,,,,,,,,,0,,,58,0
14840,note_on,0,0,1,,,,,,,,,0,,,54,40
14865,control_change,465,0,3,,,,,,,,,0,64,0,,
14880,note_on,0,0,2,,,,,,,,,0,,,49,50
14880,note_on,0,0,1,,,,,,,,,0,,,66,0
14880,note_on,0,0,1,,,,,,,,,0,,,66,50
14880,set_tempo,480,1,0,,,,,,534807,,,,,,,
14880,note_on,0,0,2,,,,,,,,,0,,,42,0
14880,note_on,480,0,2,,,,,,,,,0,,,49,0
14880,note_on,40,0,1,,,,,,,,,0,,,54,0
14880,control_change,15,0,3,,,,,,,,,0,64,127,,
14880,note_on,0,0,2,,,,,,,,,0,,,46,50
14894,set_tempo,14,1,0,,,,,,533381,,,,,,,
14901,set_tempo,7,1,0,,,,,,531962,,,,,,,
14908,set_tempo,7,1,0,,,,,,530551,,,,,,,
14915,set_tempo,7,1,0,,,,,,529147,,,,,,,
14920,note_on,40,0,1,,,,,,,,,0,,,54,40
14922,set_tempo,7,1,0,,,,,,527751,,,,,,,
14929,set_tempo,7,1,0,,,,,,526362,,,,,,,
14936,set_tempo,7,1,0,,,,,,524980,,,,,,,
14943,set_tempo,7,1,0,,,,,,523606,,,,,,,
14950,set_tempo,7,1,0,,,,,,522239,,,,,,,
14957,set_tempo,7,1,0,,,,,,520879,,,,,,,
14960,note_on,0,0,1,,,,,,,,,0,,,58,40
14960,note_on,40,0,1,,,,,,,,,0,,,54,0
14964,set_tempo,7,1,0,,,,,,519526,,,,,,,
14971,set_tempo,7,1,0,,,,,,518179,,,,,,,
14978,set_tempo,7,1,0,,,,,,516840,,,,,,,
14985,set_tempo,7,1,0,,,,,,515508,,,,,,,
14992,set_tempo,7,1,0,,,,,,514183,,,,,,,
15000,set_tempo,8,1,0,,,,,,512864,,,,,,,
15000,note_on,0,0,1,,,,,,,,,0,,,61,50
15000,note_on,40,0,1,,,,,,,,,0,,,58,0
15007,set_tempo,7,1,0,,,,,,511553,,,,,,,
15014,set_tempo,7,1,0,,,,,,510247,,,,,,,
15021,set_tempo,7,1,0,,,,,,508949,,,,,,,
15028,set_tempo,7,1,0,,,,,,507657,,,,,,,
15035,set_tempo,7,1,0,,,,,,506372,,,,,,,
15040,note_on,0,0,1,,,,,,,,,0,,,58,40
15040,note_on,40,0,1,,,,,,,,,0,,,61,0
15042,set_tempo,7,1,0,,,,,,505093,,,,,,,
15049,set_tempo,7,1,0,,,,,,503821,,,,,,,
15056,set_tempo,7,1,0,,,,,,502555,,,,,,,
15063,set_tempo,7,1,0,,,,,,501295,,,,,,,
15070,set_tempo,7,1,0,,,,,,500042,,,,,,,
15077,set_tempo,7,1,0,,,,,,498795,,,,,,,
15080,note_on,40,0,1,,,,,,,,,0,,,58,0
15080,note_on,0,0,1,,,,,,,,,0,,,54,40
15084,set_tempo,7,1,0,,,,,,497554,,,,,,,
15091,set_tempo,7,1,0,,,,,,496319,,,,,,,
15098,set_tempo,7,1,0,,,,,,495090,,,,,,,
15105,set_tempo,7,1,0,,,,,,493868,,,,,,,
15105,control_change,225,0,3,,,,,,,,,0,64,0,,
15112,set_tempo,7,1,0,,,,,,492651,,,,,,,
15120,set_tempo,8,1,0,,,,,,491441,,,,,,,
15120,note_on,0,0,1,,,,,,,,,0,,,67,51
15120,note_on,0,0,1,,,,,,,,,0,,,66,0
15120,control_change,15,0,3,,,,,,,,,0,64,127,,
15120,note_on,240,0,2,,,,,,,,,0,,,46,0
15120,note_on,0,0,2,,,,,,,,,0,,,49,0
15120,note_on,0,0,2,,,,,,,,,0,,,49,51
15120,note_on,40,0,1,,,,,,,,,0,,,54,0
15120,note_on,0,0,2,,,,,,,,,0,,,46,51
15127,set_tempo,7,1,0,,,,,,490236,,,,,,,
15134,set_tempo,7,1,0,,,,,,489037,,,,,,,
15141,set_tempo,7,1,0,,,,,,487845,,,,,,,
15148,set_tempo,7,1,0,,,,,,486657,,,,,,,
15155,set_tempo,7,1,0,,,,,,485476,,,,,,,
15160,note_on,40,0,1,,,,,,,,,0,,,55,41
15162,set_tempo,7,1,0,,,,,,484301,,,,,,,
15169,set_tempo,7,1,0,,,,,,483131,,,,,,,
15176,set_tempo,7,1,0,,,,,,481966,,,,,,,
15183,set_tempo,7,1,0,,,,,,480808,,,,,,,
15190,set_tempo,7,1,0,,,,,,479655,,,,,,,
15197,set_tempo,7,1,0,,,,,,478507,,,,,,,
15200,note_on,40,0,1,,,,,,,,,0,,,55,0
15200,note_on,0,0,1,,,,,,,,,0,,,58,41
15204,set_tempo,7,1,0,,,,,,477365,,,,,,,
15211,set_tempo,7,1,0,,,,,,476228,,,,,,,
15218,set_tempo,7,1,0,,,,,,475097,,,,,,,
15225,set_tempo,7,1,0,,,,,,473971,,,,,,,
15232,set_tempo,7,1,0,,,,,,472851,,,,,,,
15240,note_on,40,0,1,,,,,,,,,0,,,58,0
15240,set_tempo,8,1,0,,,,,,471735,,,,,,,
15240,note_on,0,0,1,,,,,,,,,0,,,61,41
15247,set_tempo,7,1,0,,,,,,470625,,,,,,,
15254,set_tempo,7,1,0,,,,,,469520,,,,,,,
15261,set_tempo,7,1,0,,,,,,468421,,,,,,,
15268,set_tempo,7,1,0,,,,,,467326,,,,,,,
15275,set_tempo,7,1,0,,,,,,466237,,,,,,,
15280,note_on,40,0,1,,,,,,,,,0,,,61,0
15280,note_on,0,0,1,,,,,,,,,0,,,58,41
15282,set_tempo,7,1,0,,,,,,465152,,,,,,,
15289,set_tempo,7,1,0,,,,,,464073,,,,,,,
15296,set_tempo,7,1,0,,,,,,462999,,,,,,,
15303,set_tempo,7,1,0,,,,,,461929,,,,,,,
15310,set_tempo,7,1,0,,,,,,460865,,,,,,,
15317,set_tempo,7,1,0,,,,,,459805,,,,,,,
15320,note_on,40,0,1,,,,,,,,,0,,,58,0
15320,note_on,0,0,1,,,,,,,,,0,,,55,42
15324,set_tempo,7,1,0,,,,,,458751,,,,,,,
15331,set_tempo,7,1,0,,,,,,457701,,,,,,,
15338,set_tempo,7,1,0,,,,,,456656,,,,,,,
15345,control_change,225,0,3,,,,,,,,,0,64,0,,
15345,set_tempo,7,1,0,,,,,,455615,,,,,,,
15352,set_tempo,7,1,0,,,,,,454580,,,,,,,
15360,note_on,0,0,2,,,,,,,,,0,,,49,0
15360,note_on,0,0,2,,,,,,,,,0,,,53,52
15360,note_on,240,0,2,,,,,,,,,0,,,46,0
15360,note_on,0,0,2,,,,,,,,,0,,,49,52
15360,note_on,0,0,1,,,,,,,,,0,,,68,52
15360,note_on,40,0,1,,,,,,,,,0,,,55,0
15360,note_on,0,0,1,,,,,,,,,0,,,67,0
15360,set_tempo,8,1,0,,,,,,652174,,,,,,,
15360,control_change,15,0,3,,,,,,,,,0,64,127,,
15367,set_tempo,7,1,0,,,,,,651537,,,,,,,
15374,set_tempo,7,1,0,,,,,,634988,,,,,,,
15381,set_tempo,7,1,0,,,,,,617347,,,,,,,
15388,set_tempo,7,1,0,,,,,,600661,,,,,,,
15395,set_tempo,7,1,0,,,,,,584852,,,,,,,
15400,note_on,40,0,1,,,,,,,,,0,,,56,42
15402,set_tempo,7,1,0,,,,,,569855,,,,,,,
15409,set_tempo,7,1,0,,,,,,555607,,,,,,,
15416,set_tempo,7,1,0,,,,,,542054,,,,,,,
15423,set_tempo,7,1,0,,,,,,530551,,,,,,,
15430,set_tempo,7,1,0,,,,,,518179,,,,,,,
15437,set_tempo,7,1,0,,,,,,506372,,,,,,,
15440,note_on,40,0,1,,,,,,,,,0,,,56,0
15440,note_on,0,0,1,,,,,,,,,0,,,61,42
15444,set_tempo,7,1,0,,,,,,495090,,,,,,,
15451,set_tempo,7,1,0,,,,,,484301,,,,,,,
15458,set_tempo,7,1,0,,,,,,473971,,,,,,,
15465,set_tempo,7,1,0,,,,,,464073,,,,,,,
15472,set_tempo,7,1,0,,,,,,454580,,,,,,,
15480,set_tempo,8,1,0,,,,,,454545,,,,,,,
15480,note_on,0,0,1,,,,,,,,,0,,,65,42
15480,note_on,40,0,1,,,,,,,,,0,,,61,0
15520,note_on,0,0,1,,,,,,,,,0,,,61,43
15520,note_on,40,0,1,,,,,,,,,0,,,65,0
15560,note_on,0,0,1,,,,,,,,,0,,,56,43
15560,note_on,40,0,1,,,,,,,,,0,,,61,0
15600,note_on,0,0,1,,,,,,,,,0,,,61,43
15600,note_on,40,0,1,,,,,,,,,0,,,56,0
15640,note_on,40,0,1,,,,,,,,,0,,,61,0
15640,note_on,0,0,1,,,,,,,,,0,,,56,43
15680,note_on,0,0,1,,,,,,,,,0,,,61,43
15680,note_on,40,0,1,,,,,,,,,0,,,56,0
15720,note_on,40,0,1,,,,,,,,,0,,,61,0
15720,note_on,0,0,1,,,,,,,,,0,,,65,44
15760,note_on,40,0,1,,,,,,,,,0,,,65,0
15760,note_on,0,0,1,,,,,,,,,0,,,61,44
15800,note_on,40,0,1,,,,,,,,,0,,,61,0
15800,note_on,0,0,1,,,,,,,,,0,,,56,44
15825,control_change,465,0,3,,,,,,,,,0,64,0,,
15840,control_change,15,0,3,,,,,,,,,0,64,127,,
15840,note_on,0,0,2,,,,,,,,,0,,,52,54
15840,note_on,480,0,2,,,,,,,,,0,,,49,0
15840,note_on,0,0,2,,,,,,,,,0,,,53,0
15840,note_on,0,0,2,,,,,,,,,0,,,55,54
15840,note_on,40,0,1,,,,,,,,,0,,,56,0
15840,note_on,0,0,2,,,,,,,,,0,,,46,54
15840,note_on,0,0,1,,,,,,,,,0,,,68,0
15840,note_on,0,0,1,,,,,,,,,0,,,70,54
15880,note_on,40,0,1,,,,,,,,,0,,,61,44
15920,note_on,0,0,1,,,,,,,,,0,,,64,45
15920,note_on,40,0,1,,,,,,,,,0,,,61,0
15960,note_on,40,0,1,,,,,,,,,0,,,64,0
15960,note_on,0,0,1,,,,,,,,,0,,,67,45
16000,note_on,40,0,1,,,,,,,,,0,,,67,0
16000,note_on,0,0,1,,,,,,,,,0,,,64,45
16040,note_on,40,0,1,,,,,,,,,0,,,64,0
16040,note_on,0,0,1,,,,,,,,,0,,,61,45
16065,control_change,225,0,3,,,,,,,,,0,64,0,,
16080,note_on,0,0,2,,,,,,,,,0,,,51,55
16080,note_on,240,0,2,,,,,,,,,0,,,52,0
16080,control_change,15,0,3,,,,,,,,,0,64,127,,
16080,note_on,40,0,1,,,,,,,,,0,,,61,0
16080,note_on,0,0,1,,,,,,,,,0,,,63,45
16120,note_on,0,0,1,,,,,,,,,0,,,61,46
16120,note_on,40,0,1,,,,,,,,,0,,,63,0
16160,note_on,40,0,1,,,,,,,,,0,,,61,0
16160,note_on,0,0,1,,,,,,,,,0,,,63,46
16200,note_on,40,0,1,,,,,,,,,0,,,63,0
16200,note_on,0,0,1,,,,,,,,,0,,,67,46
16240,note_on,40,0,1,,,,,,,,,0,,,67,0
16240,note_on,0,0,1,,,,,,,,,0,,,63,46
16280,note_on,40,0,1,,,,,,,,,0,,,63,0
16280,note_on,0,0,1,,,,,,,,,0,,,61,46
16305,control_change,225,0,3,,,,,,,,,0,64,0,,
16320,note_on,0,0,2,,,,,,,,,0,,,55,57
16320,note_on,0,0,2,,,,,,,,,0,,,46,0
16320,note_on,0,0,2,,,,,,,,,0,,,55,0
16320,note_on,240,0,2,,,,,,,,,0,,,51,0
16320,note_on,0,0,1,,,,,,,,,0,,,73,57
16320,control_change,15,0,3,,,,,,,,,0,64,127,,
16320,note_on,0,0,1,,,,,,,,,0,,,70,0
16320,note_on,40,0,1,,,,,,,,,0,,,61,0
16320,note_on,0,0,2,,,,,,,,,0,,,51,57
16320,note_on,0,0,2,,,,,,,,,0,,,44,57
16360,note_on,40,0,1,,,,,,,,,0,,,61,47
16400,note_on,40,0,1,,,,,,,,,0,,,61,0
16400,note_on,0,0,1,,,,,,,,,0,,,63,47
16440,note_on,40,0,1,,,,,,,,,0,,,63,0
16440,note_on,0,0,1,,,,,,,,,0,,,70,47
16480,note_on,0,0,1,,,,,,,,,0,,,63,47
16480,note_on,40,0,1,,,,,,,,,0,,,70,0
16520,note_on,40,0,1,,,,,,,,,0,,,63,0
16520,note_on,0,0,1,,,,,,,,,0,,,61,47
16560,note_on,0,0,1,,,,,,,,,0,,,63,48
16560,note_on,40,0,1,,,,,,,,,0,,,61,0
16600,note_on,0,0,1,,,,,,,,,0,,,61,48
16600,note_on,40,0,1,,,,,,,,,0,,,63,0
16640,note_on,40,0,1,,,,,,,,,0,,,61,0
16640,note_on,0,0,1,,,,,,,,,0,,,63,48
16680,note_on,0,0,1,,,,,,,,,0,,,73,0
16680,note_on,0,0,1,,,,,,,,,0,,,68,48
16680,note_on,0,0,2,,,,,,,,,0,,,56,58
16680,note_on,360,0,2,,,,,,,,,0,,,55,0
16680,note_on,0,0,1,,,,,,,,,0,,,71,58
16680,note_on,40,0,1,,,,,,,,,0,,,63,0
16720,note_on,40,0,1,,,,,,,,,0,,,68,0
16720,note_on,0,0,1,,,,,,,,,0,,,63,48
16760,note_on,40,0,1,,,,,,,,,0,,,63,0
16760,note_on,0,0,1,,,,,,,,,0,,,59,49
16785,control_change,465,0,3,,,,,,,,,0,64,0,,
16800,note_on,0,0,1,,,,,,,,,0,,,71,0
16800,note_on,0,0,2,,,,,,,,,0,,,51,59
16800,note_on,0,0,2,,,,,,,,,0,,,56,59
16800,note_on,0,0,2,,,,,,,,,0,,,44,59
16800,note_on,0,0,2,,,,,,,,,0,,,44,0
16800,note_on,0,0,2,,,,,,,,,0,,,51,0
16800,note_on,120,0,2,,,,,,,,,0,,,56,0
16800,note_on,0,0,1,,,,,,,,,0,,,71,59
16800,control_change,15,0,3,,,,,,,,,0,64,127,,
16800,note_on,40,0,1,,,,,,,,,0,,,59,0
16840,note_on,40,0,1,,,,,,,,,0,,,59,49
16880,note_on,0,0,1,,,,,,,,,0,,,63,49
16880,note_on,40,0,1,,,,,,,,,0,,,59,0
16920,note_on,40,0,1,,,,,,,,,0,,,63,0
16920,note_on,0,0,1,,,,,,,,,0,,,68,49
16960,note_on,40,0,1,,,,,,,,,0,,,68,0
16960,note_on,0,0,1,,,,,,,,,0,,,63,50
17000,note_on,40,0,1,,,,,,,,,0,,,63,0
17000,note_on,0,0,1,,,,,,,,,0,,,59,50
17040,note_on,40,0,1,,,,,,,,,0,,,59,0
17040,note_on,0,0,1,,,,,,,,,0,,,63,50
17080,note_on,40,0,1,,,,,,,,,0,,,63,0
17080,note_on,0,0,1,,,,,,,,,0,,,59,50
17120,note_on,0,0,1,,,,,,,,,0,,,63,50
17120,note_on,40,0,1,,,,,,,,,0,,,59,0
17160,note_on,40,0,1,,,,,,,,,0,,,63,0
17160,note_on,0,0,1,,,,,,,,,0,,,68,51
17200,note_on,40,0,1,,,,,,,,,0,,,68,0
17200,note_on,0,0,1,,,,,,,,,0,,,63,51
17220,note_on,0,0,2,,,,,,,,,0,,,42,61
17220,note_on,420,0,2,,,,,,,,,0,,,44,0
17240,note_on,40,0,1,,,,,,,,,0,,,63,0
17240,note_on,0,0,1,,,,,,,,,0,,,59,51
17265,control_change,465,0,3,,,,,,,,,0,64,0,,
17280,set_tempo,1800,1,0,,,,,,652174,,,,,,,
17280,note_on,0,0,1,,,,,,,,,0,,,71,0
17280,note_on,60,0,2,,,,,,,,,0,,,42,0
17280,note_on,0,0,2,,,,,,,,,0,,,51,0
17280,note_on,0,0,2,,,,,,,,,0,,,56,0
17280,note_on,0,0,2,,,,,,,,,0,,,40,61
17280,note_on,0,0,1,,,,,,,,,0,,,71,61
17280,note_on,40,0,1,,,,,,,,,0,,,59,0
17280,control_change,15,0,3,,,,,,,,,0,64,127,,
17287,set_tempo,7,1,0,,,,,,651537,,,,,,,
17294,set_tempo,7,1,0,,,,,,634988,,,,,,,
17301,set_tempo,7,1,0,,,,,,617347,,,,,,,
17308,set_tempo,7,1,0,,,,,,600661,,,,,,,
17315,set_tempo,7,1,0,,,,,,584852,,,,,,,
17320,note_on,40,0,1,,,,,,,,,0,,,59,51
17322,set_tempo,7,1,0,,,,,,569855,,,,,,,
17329,set_tempo,7,1,0,,,,,,555607,,,,,,,
17336,set_tempo,7,1,0,,,,,,542054,,,,,,,
17343,set_tempo,7,1,0,,,,,,530551,,,,,,,
17350,set_tempo,7,1,0,,,,,,518179,,,,,,,
17357,set_tempo,7,1,0,,,,,,506372,,,,,,,
17360,note_on,0,0,1,,,,,,,,,0,,,64,52
17360,note_on,40,0,1,,,,,,,,,0,,,59,0
17364,set_tempo,7,1,0,,,,,,495090,,,,,,,
17371,set_tempo,7,1,0,,,,,,484301,,,,,,,
17378,set_tempo,7,1,0,,,,,,473971,,,,,,,
17385,set_tempo,7,1,0,,,,,,464073,,,,,,,
17392,set_tempo,7,1,0,,,,,,454580,,,,,,,
17400,set_tempo,8,1,0,,,,,,454545,,,,,,,
17400,note_on,40,0,1,,,,,,,,,0,,,64,0
17400,note_on,0,0,1,,,,,,,,,0,,,68,52
17440,note_on,40,0,1,,,,,,,,,0,,,68,0
17440,note_on,0,0,1,,,,,,,,,0,,,64,52
17480,note_on,0,0,1,,,,,,,,,0,,,59,52
17480,note_on,40,0,1,,,,,,,,,0,,,64,0
17520,note_on,0,0,1,,,,,,,,,0,,,64,52
17520,note_on,40,0,1,,,,,,,,,0,,,59,0
17560,note_on,0,0,1,,,,,,,,,0,,,59,53
17560,note_on,40,0,1,,,,,,,,,0,,,64,0
17600,note_on,0,0,1,,,,,,,,,0,,,64,53
17600,note_on,40,0,1,,,,,,,,,0,,,59,0
17640,note_on,0,0,1,,,,,,,,,0,,,68,53
17640,note_on,40,0,1,,,,,,,,,0,,,64,0
17680,note_on,40,0,1,,,,,,,,,0,,,68,0
17680,note_on,0,0,1,,,,,,,,,0,,,64,53
17720,note_on,0,0,1,,,,,,,,,0,,,59,53
17720,note_on,40,0,1,,,,,,,,,0,,,64,0
17745,control_change,465,0,3,,,,,,,,,0,64,0,,
17760,control_change,15,0,3,,,,,,,,,0,64,127,,
17760,note_on,480,0,2,,,,,,,,,0,,,40,0
17760,note_on,0,0,2,,,,,,,,,0,,,39,64
17760,note_on,0,0,1,,,,,,,,,0,,,71,64
17760,note_on,40,0,1,,,,,,,,,0,,,59,0
17760,note_on,0,0,1,,,,,,,,,0,,,71,0
17800,note_on,40,0,1,,,,,,,,,0,,,59,54
17840,note_on,0,0,1,,,,,,,,,0,,,63,54
17840,note_on,40,0,1,,,,,,,,,0,,,59,0
17880,note_on,0,0,1,,,,,,,,,0,,,66,54
17880,note_on,40,0,1,,,,,,,,,0,,,63,0
17920,note_on,40,0,1,,,,,,,,,0,,,66,0
17920,note_on,0,0,1,,,,,,,,,0,,,63,54
17960,note_on,0,0,1,,,,,,,,,0,,,59,55
17960,note_on,40,0,1,,,,,,,,,0,,,63,0
17985,control_change,225,0,3,,,,,,,,,0,64,0,,
18000,control_change,15,0,3,,,,,,,,,0,64,127,,
18000,note_on,0,0,2,,,,,,,,,0,,,37,65
18000,note_on,240,0,2,,,,,,,,,0,,,39,0
18000,note_on,0,0,1,,,,,,,,,0,,,71,0
18000,note_on,40,0,1,,,,,,,,,0,,,59,0
18000,note_on,0,0,1,,,,,,,,,0,,,73,65
18030,note_on,0,0,2,,,,,,,,,0,,,39,65
18030,note_on,30,0,2,,,,,,,,,0,,,37,0
18040,note_on,40,0,1,,,,,,,,,0,,,64,55
18060,note_on,30,0,2,,,,,,,,,0,,,39,0
18060,note_on,0,0,2,,,,,,,,,0,,,37,65
18080,note_on,20,0,2,,,,,,,,,0,,,37,0
18080,note_on,0,0,2,,,,,,,,,0,,,39,65
18080,note_on,0,0,1,,,,,,,,,0,,,66,55
18080,note_on,40,0,1,,,,,,,,,0,,,64,0
18100,note_on,20,0,2,,,,,,,,,0,,,39,0
18100,note_on,0,0,2,,,,,,,,,0,,,37,65
18120,note_on,40,0,1,,,,,,,,,0,,,66,0
18120,note_on,0,0,1,,,,,,,,,0,,,70,55
18120,note_on,20,0,2,,,,,,,,,0,,,37,0
18120,note_on,0,0,2,,,,,,,,,0,,,39,65
18140,note_on,20,0,2,,,,,,,,,0,,,39,0
18140,note_on,0,0,2,,,,,,,,,0,,,37,65
18160,note_on,40,0,1,,,,,,,,,0,,,70,0
18160,note_on,20,0,2,,,,,,,,,0,,,37,0
18160,note_on,0,0,2,,,,,,,,,0,,,39,65
18160,note_on,0,0,1,,,,,,,,,0,,,66,55
18180,note_on,20,0,2,,,,,,,,,0,,,39,0
18180,note_on,0,0,2,,,,,,,,,0,,,37,66
18200,note_on,0,0,2,,,,,,,,,0,,,35,66
18200,note_on,40,0,1,,,,,,,,,0,,,66,0
18200,note_on,0,0,1,,,,,,,,,0,,,64,56
18200,note_on,20,0,2,,,,,,,,,0,,,37,0
18220,note_on,20,0,2,,,,,,,,,0,,,35,0
18220,note_on,0,0,2,,,,,,,,,0,,,37,66
18225,control_change,225,0,3,,,,,,,,,0,64,0,,
18240,control_change,15,0,3,,,,,,,,,0,64,127,,
18240,note_on,0,0,1,,,,,,,,,0,,,73,0
18240,note_on,0,0,1,,,,,,,,,0,,,76,66
18240,note_on,40,0,1,,,,,,,,,0,,,64,0
18240,note_on,0,0,2,,,,,,,,,0,,,35,66
18240,note_on,20,0,2,,,,,,,,,0,,,37,0
18280,note_on,40,0,1,,,,,,,,,0,,,64,56
18320,note_on,40,0,1,,,,,,,,,0,,,64,0
18320,note_on,0,0,1,,,,,,,,,0,,,66,56
18360,note_on,40,0,1,,,,,,,,,0,,,66,0
18360,note_on,0,0,1,,,,,,,,,0,,,73,56
18400,note_on,40,0,1,,,,,,,,,0,,,73,0
18400,note_on,0,0,1,,,,,,,,,0,,,66,57
18440,note_on,40,0,1,,,,,,,,,0,,,66,0
18440,note_on,0,0,1,,,,,,,,,0,,,64,57
18480,note_on,40,0,1,,,,,,,,,0,,,64,0
18480,note_on,0,0,1,,,,,,,,,0,,,66,57
18520,note_on,40,0,1,,,,,,,,,0,,,66,0
18520,note_on,0,0,1,,,,,,,,,0,,,64,57
18560,note_on,0,0,1,,,,,,,,,0,,,66,57
18560,note_on,40,0,1,,,,,,,,,0,,,64,0
18600,note_on,40,0,1,,,,,,,,,0,,,66,0
18600,note_on,0,0,1,,,,,,,,,0,,,76,0
18600,note_on,0,0,1,,,,,,,,,0,,,71,58
18600,note_on,0,0,1,,,,,,,,,0,,,75,68
18640,note_on,40,0,1,,,,,,,,,0,,,71,0
18640,note_on,0,0,1,,,,,,,,,0,,,66,58
18680,note_on,0,0,1,,,,,,,,,0,,,63,58
18680,note_on,40,0,1,,,,,,,,,0,,,66,0
18705,control_change,465,0,3,,,,,,,,,0,64,0,,
18720,control_change,15,0,3,,,,,,,,,0,64,127,,
18720,note_on,40,0,1,,,,,,,,,0,,,63,0
18720,note_on,0,0,1,,,,,,,,,0,,,75,0
18720,note_on,0,0,1,,,,,,,,,0,,,75,68
18760,note_on,40,0,1,,,,,,,,,0,,,63,58
18800,note_on,0,0,1,,,,,,,,,0,,,66,59
18800,note_on,40,0,1,,,,,,,,,0,,,63,0
18840,note_on,40,0,1,,,,,,,,,0,,,66,0
18840,note_on,0,0,1,,,,,,,,,0,,,71,59
18880,note_on,40,0,1,,,,,,,,,0,,,71,0
18880,note_on,0,0,1,,,,,,,,,0,,,66,59
18920,note_on,40,0,1,,,,,,,,,0,,,66,0
18920,note_on,0,0,1,,,,,,,,,0,,,63,59
18960,note_on,40,0,1,,,,,,,,,0,,,63,0
18960,note_on,0,0,1,,,,,,,,,0,,,66,59
19000,note_on,0,0,1,,,,,,,,,0,,,63,60
19000,note_on,40,0,1,,,,,,,,,0,,,66,0
19040,note_on,40,0,1,,,,,,,,,0,,,63,0
19040,note_on,0,0,1,,,,,,,,,0,,,66,60
19080,note_on,40,0,1,,,,,,,,,0,,,66,0
19080,note_on,0,0,1,,,,,,,,,0,,,71,60
19120,note_on,40,0,1,,,,,,,,,0,,,71,0
19120,note_on,0,0,1,,,,,,,,,0,,,66,60
19160,note_on,40,0,1,,,,,,,,,0,,,66,0
19160,note_on,0,0,1,,,,,,,,,0,,,63,60
19185,control_change,465,0,3,,,,,,,,,0,64,0,,
19200,note_on,0,0,1,,,,,,,,,0,,,75,0
19200,note_on,0,0,1,,,,,,,,,0,,,75,50
19200,control_change,15,0,3,,,,,,,,,0,64,127,,
19200,note_on,960,0,2,,,,,,,,,0,,,35,0
19200,note_on,0,0,2,,,,,,,,,0,,,54,50
19200,note_on,0,0,2,,,,,,,,,0,,,47,50
19200,note_on,40,0,1,,,,,,,,,0,,,63,0
19240,note_on,40,0,1,,,,,,,,,0,,,63,40
19280,note_on,0,0,1,,,,,,,,,0,,,66,40
19280,note_on,40,0,1,,,,,,,,,0,,,63,0
19320,note_on,0,0,1,,,,,,,,,0,,,71,40
19320,note_on,40,0,1,,,,,,,,,0,,,66,0
19360,note_on,40,0,1,,,,,,,,,0,,,71,0
19360,note_on,0,0,1,,,,,,,,,0,,,66,40
19400,note_on,0,0,1,,,,,,,,,0,,,63,40
19400,note_on,40,0,1,,,,,,,,,0,,,66,0
19440,note_on,40,0,1,,,,,,,,,0,,,63,0
19440,note_on,0,0,1,,,,,,,,,0,,,66,40
19480,note_on,40,0,1,,,,,,,,,0,,,66,0
19480,note_on,0,0,1,,,,,,,,,0,,,63,40
19520,note_on,0,0,1,,,,,,,,,0,,,66,40
19520,note_on,40,0,1,,,,,,,,,0,,,63,0
19560,note_on,0,0,1,,,,,,,,,0,,,71,40
19560,note_on,40,0,1,,,,,,,,,0,,,66,0
19600,note_on,0,0,1,,,,,,,,,0,,,66,40
19600,note_on,40,0,1,,,,,,,,,0,,,71,0
19640,note_on,40,0,1,,,,,,,,,0,,,66,0
19640,note_on,0,0,1,,,,,,,,,0,,,63,40
19665,control_change,465,0,3,,,,,,,,,0,64,0,,
19680,note_on,0,0,2,,,,,,,,,0,,,47,50
19680,control_change,15,0,3,,,,,,,,,0,64,127,,
19680,note_on,480,0,2,,,,,,,,,0,,,54,0
19680,note_on,0,0,2,,,,,,,,,0,,,47,0
19680,note_on,0,0,2,,,,,,,,,0,,,56,50
19680,note_on,0,0,1,,,,,,,,,0,,,75,50
19680,note_on,40,0,1,,,,,,,,,0,,,63,0
19680,note_on,0,0,1,,,,,,,,,0,,,75,0
19720,note_on,40,0,1,,,,,,,,,0,,,68,40
19760,note_on,40,0,1,,,,,,,,,0,,,68,0
19760,note_on,0,0,1,,,,,,,,,0,,,65,40
19800,note_on,0,0,1,,,,,,,,,0,,,75,0
19800,note_on,0,0,1,,,,,,,,,0,,,74,50
19800,note_on,40,0,1,,,,,,,,,0,,,65,0
19840,note_on,40,0,1,,,,,,,,,0,,,68,40
19880,note_on,40,0,1,,,,,,,,,0,,,68,0
19880,note_on,0,0,1,,,,,,,,,0,,,65,40
19905,control_change,225,0,3,,,,,,,,,0,64,0,,
19920,note_on,0,0,1,,,,,,,,,0,,,74,0
19920,note_on,0,0,2,,,,,,,,,0,,,53,50
19920,note_on,240,0,2,,,,,,,,,0,,,56,0
19920,control_change,15,0,3,,,,,,,,,0,64,127,,
19920,note_on,0,0,1,,,,,,,,,0,,,71,50
19920,note_on,40,0,1,,,,,,,,,0,,,65,0
19960,note_on,40,0,1,,,,,,,,,0,,,65,40
20000,note_on,40,0,1,,,,,,,,,0,,,65,0
20000,note_on,0,0,1,,,,,,,,,0,,,62,40
20040,note_on,40,0,1,,,,,,,,,0,,,62,0
20040,note_on,0,0,1,,,,,,,,,0,,,71,0
20040,note_on,0,0,1,,,,,,,,,0,,,68,50
20080,note_on,40,0,1,,,,,,,,,0,,,65,40
20120,note_on,0,0,1,,,,,,,,,0,,,61,40
20120,note_on,40,0,1,,,,,,,,,0,,,65,0
20145,control_change,225,0,3,,,,,,,,,0,64,0,,
20160,note_on,0,0,1,,,,,,,,,0,,,68,0
20160,note_on,0,0,1,,,,,,,,,0,,,73,50
20160,control_change,15,0,3,,,,,,,,,0,64,127,,
20160,note_on,40,0,1,,,,,,,,,0,,,61,0
20160,note_on,240,0,2,,,,,,,,,0,,,53,0
20160,note_on,0,0,2,,,,,,,,,0,,,54,50
20160,note_on,0,0,2,,,,,,,,,0,,,46,50
20160,note_on,0,0,2,,,,,,,,,0,,,47,0
20200,note_on,40,0,1,,,,,,,,,0,,,61,40
20240,note_on,40,0,1,,,,,,,,,0,,,61,0
20240,note_on,0,0,1,,,,,,,,,0,,,66,40
20280,note_on,40,0,1,,,,,,,,,0,,,66,0
20280,note_on,0,0,1,,,,,,,,,0,,,70,40
20320,note_on,40,0,1,,,,,,,,,0,,,70,0
20320,note_on,0,0,1,,,,,,,,,0,,,66,40
20360,note_on,40,0,1,,,,,,,,,0,,,66,0
20360,note_on,0,0,1,,,,,,,,,0,,,61,40
20400,note_on,0,0,1,,,,,,,,,0,,,66,40
20400,note_on,40,0,1,,,,,,,,,0,,,61,0
20440,note_on,40,0,1,,,,,,,,,0,,,66,0
20440,note_on,0,0,1,,,,,,,,,0,,,61,40
20480,note_on,0,0,1,,,,,,,,,0,,,66,40
20480,note_on,40,0,1,,,,,,,,,0,,,61,0
20520,note_on,40,0,1,,,,,,,,,0,,,66,0
20520,note_on,0,0,1,,,,,,,,,0,,,70,40
20560,note_on,0,0,1,,,,,,,,,0,,,66,40
20560,note_on,40,0,1,,,,,,,,,0,,,70,0
20600,note_on,0,0,1,,,,,,,,,0,,,61,40
20600,note_on,40,0,1,,,,,,,,,0,,,66,0
20625,control_change,465,0,3,,,,,,,,,0,64,0,,
20640,note_on,40,0,1,,,,,,,,,0,,,61,0
20640,note_on,0,0,1,,,,,,,,,0,,,73,0
20640,control_change,15,0,3,,,,,,,,,0,64,127,,
20640,note_on,0,0,1,,,,,,,,,0,,,73,50
20640,note_on,480,0,2,,,,,,,,,0,,,46,0
20640,note_on,0,0,2,,,,,,,,,0,,,54,0
20640,note_on,0,0,2,,,,,,,,,0,,,55,50
20640,note_on,0,0,2,,,,,,,,,0,,,47,50
20680,note_on,40,0,1,,,,,,,,,0,,,67,40
20720,note_on,40,0,1,,,,,,,,,0,,,67,0
20720,note_on,0,0,1,,,,,,,,,0,,,63,40
20760,note_on,0,0,1,,,,,,,,,0,,,71,50
20760,note_on,0,0,2,,,,,,,,,0,,,56,50
20760,note_on,40,0,1,,,,,,,,,0,,,63,0
20760,note_on,120,0,2,,,,,,,,,0,,,55,0
20760,note_on,0,0,1,,,,,,,,,0,,,73,0
20800,note_on,40,0,1,,,,,,,,,0,,,68,40
20840,note_on,40,0,1,,,,,,,,,0,,,68,0
20840,note_on,0,0,1,,,,,,,,,0,,,63,40
20865,control_change,225,0,3,,,,,,,,,0,64,0,,
20880,note_on,40,0,1,,,,,,,,,0,,,63,0
20880,note_on,0,0,1,,,,,,,,,0,,,71,0
20880,note_on,0,0,1,,,,,,,,,0,,,68,50
20880,note_on,0,0,2,,,,,,,,,0,,,51,50
20880,note_on,120,0,2,,,,,,,,,0,,,56,0
20880,control_change,15,0,3,,,,,,,,,0,64,127,,
20920,note_on,40,0,1,,,,,,,,,0,,,63,40
20960,note_on,40,0,1,,,,,,,,,0,,,63,0
20960,note_on,0,0,1,,,,,,,,,0,,,59,40
21000,note_on,120,0,2,,,,,,,,,0,,,47,0
21000,note_on,0,0,2,,,,,,,,,0,,,48,50
21000,note_on,0,0,1,,,,,,,,,0,,,63,50
21000,note_on,0,0,1,,,,,,,,,0,,,68,0
21000,note_on,40,0,1,,,,,,,,,0,,,59,0
21040,note_on,40,0,1,,,,,,,,,0,,,60,40
21080,note_on,40,0,1,,,,,,,,,0,,,60,0
21080,note_on,0,0,1,,,,,,,,,0,,,56,40
21105,control_change,225,0,3,,,,,,,,,0,64,0,,
21120,note_on,120,0,2,,,,,,,,,0,,,48,0
21120,note_on,0,0,1,,,,,,,,,0,,,63,0
21120,note_on,0,0,1,,,,,,,,,0,,,66,50
21120,control_change,15,0,3,,,,,,,,,0,64,127,,
21120,note_on,0,0,2,,,,,,,,,0,,,49,50
21120,note_on,0,0,2,,,,,,,,,0,,,51,0
21120,note_on,40,0,1,,,,,,,,,0,,,56,0
21160,note_on,40,0,1,,,,,,,,,0,,,54,40
21200,note_on,0,0,1,,,,,,,,,0,,,58,40
21200,note_on,40,0,1,,,,,,,,,0,,,54,0
21240,note_on,40,0,1,,,,,,,,,0,,,58,0
21240,note_on,0,0,1,,,,,,,,,0,,,61,40
21280,note_on,40,0,1,,,,,,,,,0,,,61,0
21280,note_on,0,0,1,,,,,,,,,0,,,58,40
21320,note_on,40,0,1,,,,,,,,,0,,,58,0
21320,note_on,0,0,1,,,,,,,,,0,,,54,40
21360,note_on,40,0,1,,,,,,,,,0,,,54,0
21360,note_on,0,0,1,,,,,,,,,0,,,58,40
21400,note_on,40,0,1,,,,,,,,,0,,,58,0
21400,note_on,0,0,1,,,,,,,,,0,,,54,40
21440,note_on,40,0,1,,,,,,,,,0,,,54,0
21440,note_on,0,0,1,,,,,,,,,0,,,58,40
21480,note_on,0,0,1,,,,,,,,,0,,,61,40
21480,note_on,40,0,1,,,,,,,,,0,,,58,0
21520,note_on,0,0,1,,,,,,,,,0,,,58,40
21520,note_on,40,0,1,,,,,,,,,0,,,61,0
21560,note_on,440,0,2,,,,,,,,,0,,,37,50
21560,note_on,0,0,1,,,,,,,,,0,,,54,40
21560,note_on,40,0,1,,,,,,,,,0,,,58,0
21585,control_change,465,0,3,,,,,,,,,0,64,0,,
21600,note_on,0,0,2,,,,,,,,,0,,,49,50
21600,note_on,0,0,2,,,,,,,,,0,,,49,0
21600,note_on,40,0,2,,,,,,,,,0,,,37,0
21600,note_on,40,0,1,,,,,,,,,0,,,54,0
21600,note_on,0,0,1,,,,,,,,,0,,,66,0
21600,note_on,0,0,1,,,,,,,,,0,,,66,50
21600,set_tempo,4200,1,0,,,,,,454580,,,,,,,
21600,control_change,15,0,3,,,,,,,,,0,64,127,,
21614,set_tempo,14,1,0,,,,,,455615,,,,,,,
21621,set_tempo,7,1,0,,,,,,456656,,,,,,,
21628,set_tempo,7,1,0,,,,,,457701,,,,,,,
21635,set_tempo,7,1,0,,,,,,458751,,,,,,,
21640,note_on,40,0,1,,,,,,,,,0,,,59,40
21642,set_tempo,7,1,0,,,,,,459805,,,,,,,
21649,set_tempo,7,1,0,,,,,,460865,,,,,,,
21656,set_tempo,7,1,0,,,,,,461929,,,,,,,
21663,set_tempo,7,1,0,,,,,,462999,,,,,,,
21670,set_tempo,7,1,0,,,,,,464073,,,,,,,
21677,set_tempo,7,1,0,,,,,,465152,,,,,,,
21680,note_on,0,0,1,,,,,,,,,0,,,56,40
21680,note_on,40,0,1,,,,,,,,,0,,,59,0
21684,set_tempo,7,1,0,,,,,,466237,,,,,,,
21691,set_tempo,7,1,0,,,,,,467326,,,,,,,
21698,set_tempo,7,1,0,,,,,,468421,,,,,,,
21705,set_tempo,7,1,0,,,,,,469520,,,,,,,
21712,set_tempo,7,1,0,,,,,,470625,,,,,,,
21720,set_tempo,8,1,0,,,,,,471735,,,,,,,
21720,note_on,0,0,1,,,,,,,,,0,,,65,50
21720,note_on,0,0,1,,,,,,,,,0,,,66,0
21720,note_on,40,0,1,,,,,,,,,0,,,56,0
21727,set_tempo,7,1,0,,,,,,472851,,,,,,,
21734,set_tempo,7,1,0,,,,,,473971,,,,,,,
21741,set_tempo,7,1,0,,,,,,475097,,,,,,,
21748,set_tempo,7,1,0,,,,,,476228,,,,,,,
21755,set_tempo,7,1,0,,,,,,477365,,,,,,,
21760,note_on,40,0,1,,,,,,,,,0,,,59,40
21762,set_tempo,7,1,0,,,,,,478507,,,,,,,
21769,set_tempo,7,1,0,,,,,,479655,,,,,,,
21776,set_tempo,7,1,0,,,,,,480808,,,,,,,
21783,set_tempo,7,1,0,,,,,,481966,,,,,,,
21790,set_tempo,7,1,0,,,,,,483131,,,,,,,
21797,set_tempo,7,1,0,,,,,,484301,,,,,,,
21800,note_on,0,0,1,,,,,,,,,0,,,56,40
21800,note_on,40,0,1,,,,,,,,,0,,,59,0
21804,set_tempo,7,1,0,,,,,,485476,,,,,,,
21811,set_tempo,7,1,0,,,,,,486657,,,,,,,
21818,set_tempo,7,1,0,,,,,,487845,,,,,,,
21825,set_tempo,7,1,0,,,,,,489037,,,,,,,
21825,control_change,225,0,3,,,,,,,,,0,64,0,,
21832,set_tempo,7,1,0,,,,,,490236,,,,,,,
21840,control_change,15,0,3,,,,,,,,,0,64,127,,
21840,note_on,240,0,2,,,,,,,,,0,,,54,50
21840,note_on,40,0,1,,,,,,,,,0,,,56,0
21840,note_on,0,0,1,,,,,,,,,0,,,65,0
21840,note_on,0,0,1,,,,,,,,,0,,,70,50
21840,set_tempo,8,1,0,,,,,,491441,,,,,,,
21847,set_tempo,7,1,0,,,,,,492651,,,,,,,
21854,set_tempo,7,1,0,,,,,,493868,,,,,,,
21861,set_tempo,7,1,0,,,,,,495090,,,,,,,
21868,set_tempo,7,1,0,,,,,,496319,,,,,,,
21875,set_tempo,7,1,0,,,,,,497554,,,,,,,
21880,note_on,40,0,1,,,,,,,,,0,,,61,40
21882,set_tempo,7,1,0,,,,,,498795,,,,,,,
21889,set_tempo,7,1,0,,,,,,500042,,,,,,,
21896,set_tempo,7,1,0,,,,,,501295,,,,,,,
21903,set_tempo,7,1,0,,,,,,502555,,,,,,,
21910,set_tempo,7,1,0,,,,,,503821,,,,,,,
21917,set_tempo,7,1,0,,,,,,505093,,,,,,,
21920,note_on,40,0,1,,,,,,,,,0,,,61,0
21920,note_on,0,0,1,,,,,,,,,0,,,59,40
21924,set_tempo,7,1,0,,,,,,506372,,,,,,,
21931,set_tempo,7,1,0,,,,,,507657,,,,,,,
21938,set_tempo,7,1,0,,,,,,508949,,,,,,,
21945,set_tempo,7,1,0,,,,,,510247,,,,,,,
21952,set_tempo,7,1,0,,,,,,511553,,,,,,,
21960,note_on,0,0,1,,,,,,,,,0,,,70,0
21960,note_on,0,0,2,,,,,,,,,0,,,53,50
21960,note_on,120,0,2,,,,,,,,,0,,,54,0
21960,set_tempo,8,1,0,,,,,,512864,,,,,,,
21960,note_on,40,0,1,,,,,,,,,0,,,59,0
21960,note_on,0,0,1,,,,,,,,,0,,,68,50
21967,set_tempo,7,1,0,,,,,,514183,,,,,,,
21974,set_tempo,7,1,0,,,,,,515508,,,,,,,
21981,set_tempo,7,1,0,,,,,,516840,,,,,,,
21988,set_tempo,7,1,0,,,,,,518179,,,,,,,
21995,set_tempo,7,1,0,,,,,,519526,,,,,,,
22000,note_on,40,0,1,,,,,,,,,0,,,61,40
22002,set_tempo,7,1,0,,,,,,520879,,,,,,,
22009,set_tempo,7,1,0,,,,,,522239,,,,,,,
22016,set_tempo,7,1,0,,,,,,523606,,,,,,,
22023,set_tempo,7,1,0,,,,,,524980,,,,,,,
22030,set_tempo,7,1,0,,,,,,526362,,,,,,,
22037,set_tempo,7,1,0,,,,,,527751,,,,,,,
22040,note_on,40,0,1,,,,,,,,,0,,,61,0
22040,note_on,0,0,1,,,,,,,,,0,,,59,40
22044,set_tempo,7,1,0,,,,,,529147,,,,,,,
22051,set_tempo,7,1,0,,,,,,530551,,,,,,,
22058,set_tempo,7,1,0,,,,,,531962,,,,,,,
22065,control_change,225,0,3,,,,,,,,,0,64,0,,
22065,set_tempo,7,1,0,,,,,,533381,,,,,,,
22072,set_tempo,7,1,0,,,,,,534807,,,,,,,
22080,note_on,120,0,2,,,,,,,,,0,,,53,0
22080,note_on,40,0,1,,,,,,,,,0,,,59,0
22080,note_on,0,0,2,,,,,,,,,0,,,49,0
22080,control_change,15,0,3,,,,,,,,,0,64,127,,
22080,note_on,0,0,1,,,,,,,,,0,,,68,0
22080,note_on,0,0,2,,,,,,,,,0,,,49,50
22080,set_tempo,8,1,0,,,,,,535714,,,,,,,
22080,note_on,0,0,2,,,,,,,,,0,,,42,50
22080,note_on,0,0,1,,,,,,,,,0,,,66,50
22087,set_tempo,7,1,0,,,,,,534807,,,,,,,
22108,set_tempo,21,1,0,,,,,,533381,,,,,,,
22120,note_on,40,0,1,,,,,,,,,0,,,54,42
22122,set_tempo,14,1,0,,,,,,531962,,,,,,,
22136,set_tempo,14,1,0,,,,,,530551,,,,,,,
22150,set_tempo,14,1,0,,,,,,529147,,,,,,,
22160,note_on,40,0,1,,,,,,,,,0,,,54,0
22160,note_on,0,0,1,,,,,,,,,0,,,58,45
22164,set_tempo,14,1,0,,,,,,527751,,,,,,,
22178,set_tempo,14,1,0,,,,,,526362,,,,,,,
22192,set_tempo,14,1,0,,,,,,524980,,,,,,,
22200,note_on,40,0,1,,,,,,,,,0,,,58,0
22200,note_on,0,0,1,,,,,,,,,0,,,61,47
22207,set_tempo,15,1,0,,,,,,523606,,,,,,,
22221,set_tempo,14,1,0,,,,,,522239,,,,,,,
22235,set_tempo,14,1,0,,,,,,520879,,,,,,,
22240,note_on,0,0,1,,,,,,,,,0,,,58,50
22240,note_on,40,0,1,,,,,,,,,0,,,61,0
22249,set_tempo,14,1,0,,,,,,519526,,,,,,,
22263,set_tempo,14,1,0,,,,,,518179,,,,,,,
22277,set_tempo,14,1,0,,,,,,516840,,,,,,,
22280,note_on,40,0,1,,,,,,,,,0,,,58,0
22280,note_on,0,0,1,,,,,,,,,0,,,54,53
22291,set_tempo,14,1,0,,,,,,515508,,,,,,,
22305,set_tempo,14,1,0,,,,,,514183,,,,,,,
22320,note_on,40,0,1,,,,,,,,,0,,,54,0
22320,set_tempo,15,1,0,,,,,,512864,,,,,,,
22320,note_on,0,0,1,,,,,,,,,0,,,58,55
22334,set_tempo,14,1,0,,,,,,511553,,,,,,,
22348,set_tempo,14,1,0,,,,,,510247,,,,,,,
22360,note_on,40,0,1,,,,,,,,,0,,,58,0
22360,note_on,0,0,1,,,,,,,,,0,,,54,58
22362,set_tempo,14,1,0,,,,,,508949,,,,,,,
22376,set_tempo,14,1,0,,,,,,507657,,,,,,,
22390,set_tempo,14,1,0,,,,,,506372,,,,,,,
22400,note_on,40,0,1,,,,,,,,,0,,,54,0
22400,note_on,0,0,1,,,,,,,,,0,,,58,61
22404,set_tempo,14,1,0,,,,,,505093,,,,,,,
22418,set_tempo,14,1,0,,,,,,503821,,,,,,,
22432,set_tempo,14,1,0,,,,,,502555,,,,,,,
22440,note_on,40,0,1,,,,,,,,,0,,,58,0
22440,note_on,0,0,1,,,,,,,,,0,,,61,63
22447,set_tempo,15,1,0,,,,,,501295,,,,,,,
22461,set_tempo,14,1,0,,,,,,500042,,,,,,,
22475,set_tempo,14,1,0,,,,,,498795,,,,,,,
22480,note_on,40,0,1,,,,,,,,,0,,,61,0
22480,note_on,0,0,1,,,,,,,,,0,,,58,66
22489,set_tempo,14,1,0,,,,,,497554,,,,,,,
22503,set_tempo,14,1,0,,,,,,496319,,,,,,,
22517,set_tempo,14,1,0,,,,,,495090,,,,,,,
22520,note_on,0,0,1,,,,,,,,,0,,,54,69
22520,note_on,40,0,1,,,,,,,,,0,,,58,0
22531,set_tempo,14,1,0,,,,,,493868,,,,,,,
22545,set_tempo,14,1,0,,,,,,492651,,,,,,,
22560,set_tempo,15,1,0,,,,,,491441,,,,,,,
22560,note_on,40,0,1,,,,,,,,,0,,,54,0
22560,note_on,0,0,1,,,,,,,,,0,,,58,71
22581,set_tempo,21,1,0,,,,,,490236,,,,,,,
22595,set_tempo,14,1,0,,,,,,489037,,,,,,,
22600,note_on,40,0,1,,,,,,,,,0,,,58,0
22600,note_on,0,0,1,,,,,,,,,0,,,54,74
22609,set_tempo,14,1,0,,,,,,487845,,,,,,,
22623,set_tempo,14,1,0,,,,,,486657,,,,,,,
22637,set_tempo,14,1,0,,,,,,485476,,,,,,,
22640,note_on,0,0,1,,,,,,,,,0,,,58,77
22640,note_on,40,0,1,,,,,,,,,0,,,54,0
22651,set_tempo,14,1,0,,,,,,484301,,,,,,,
22665,set_tempo,14,1,0,,,,,,483131,,,,,,,
22680,set_tempo,15,1,0,,,,,,481966,,,,,,,
22680,note_on,40,0,1,,,,,,,,,0,,,58,0
22680,note_on,0,0,1,,,,,,,,,0,,,61,79
22694,set_tempo,14,1,0,,,,,,480808,,,,,,,
22708,set_tempo,14,1,0,,,,,,479655,,,,,,,
22720,note_on,0,0,1,,,,,,,,,0,,,58,82
22720,note_on,40,0,1,,,,,,,,,0,,,61,0
22722,set_tempo,14,1,0,,,,,,478507,,,,,,,
22736,set_tempo,14,1,0,,,,,,477365,,,,,,,
22750,set_tempo,14,1,0,,,,,,476228,,,,,,,
22760,note_on,40,0,1,,,,,,,,,0,,,58,0
22760,note_on,0,0,1,,,,,,,,,0,,,54,85
22764,set_tempo,14,1,0,,,,,,475097,,,,,,,
22778,set_tempo,14,1,0,,,,,,473971,,,,,,,
22785,control_change,705,0,3,,,,,,,,,0,64,0,,
22792,set_tempo,14,1,0,,,,,,472851,,,,,,,
22800,control_change,15,0,3,,,,,,,,,0,64,127,,
22800,note_on,0,0,1,,,,,,,,,0,,,58,87
22800,note_on,40,0,1,,,,,,,,,0,,,54,0
22800,note_on,720,0,2,,,,,,,,,0,,,49,0
22800,note_on,0,0,2,,,,,,,,,0,,,42,0
22800,note_on,0,0,2,,,,,,,,,0,,,41,97
22800,note_on,0,0,2,,,,,,,,,0,,,50,97
22807,set_tempo,15,1,0,,,,,,471735,,,,,,,
22821,set_tempo,14,1,0,,,,,,470625,,,,,,,
22835,set_tempo,14,1,0,,,,,,469520,,,,,,,
22840,note_on,0,0,1,,,,,,,,,0,,,54,90
22840,note_on,40,0,1,,,,,,,,,0,,,58,0
22849,set_tempo,14,1,0,,,,,,468421,,,,,,,
22863,set_tempo,14,1,0,,,,,,467326,,,,,,,
22877,set_tempo,14,1,0,,,,,,466237,,,,,,,
22880,note_on,40,0,1,,,,,,,,,0,,,54,0
22880,note_on,0,0,1,,,,,,,,,0,,,58,93
22891,set_tempo,14,1,0,,,,,,465152,,,,,,,
22905,set_tempo,14,1,0,,,,,,464073,,,,,,,
22920,note_on,40,0,1,,,,,,,,,0,,,58,0
22920,note_on,0,0,1,,,,,,,,,0,,,62,95
22920,set_tempo,15,1,0,,,,,,462999,,,,,,,
22934,set_tempo,14,1,0,,,,,,461929,,,,,,,
22948,set_tempo,14,1,0,,,,,,460865,,,,,,,
22960,note_on,0,0,1,,,,,,,,,0,,,58,98
22960,note_on,40,0,1,,,,,,,,,0,,,62,0
22962,set_tempo,14,1,0,,,,,,459805,,,,,,,
22976,set_tempo,14,1,0,,,,,,458751,,,,,,,
22990,set_tempo,14,1,0,,,,,,457701,,,,,,,
23000,note_on,40,0,1,,,,,,,,,0,,,58,0
23000,note_on,0,0,1,,,,,,,,,0,,,54,100
23004,set_tempo,14,1,0,,,,,,456656,,,,,,,
23018,set_tempo,14,1,0,,,,,,455615,,,,,,,
23025,control_change,225,0,3,,,,,,,,,0,64,0,,
23032,set_tempo,14,1,0,,,,,,454580,,,,,,,
23040,note_on,0,0,1,,,,,,,,,0,,,70,110
23040,set_tempo,8,1,0,,,,,,454545,,,,,,,
23040,note_on,0,0,2,,,,,,,,,0,,,51,110
23040,note_on,0,0,2,,,,,,,,,0,,,39,110
23040,note_on,0,0,2,,,,,,,,,0,,,41,0
23040,note_on,240,0,2,,,,,,,,,0,,,50,0
23040,control_change,15,0,3,,,,,,,,,0,64,127,,
23040,note_on,40,0,1,,,,,,,,,0,,,54,0
23040,note_on,0,0,1,,,,,,,,,0,,,66,0
23040,marker,0,1,0,,,,,,,,,,,,,
23080,note_on,40,0,1,,,,,,,,,0,,,58,100
23120,note_on,40,0,1,,,,,,,,,0,,,58,0
23120,note_on,0,0,1,,,,,,,,,0,,,63,100
23160,note_on,40,0,1,,,,,,,,,0,,,63,0
23160,note_on,0,0,1,,,,,,,,,0,,,66,100
23200,note_on,40,0,1,,,,,,,,,0,,,66,0
23200,note_on,0,0,1,,,,,,,,,0,,,63,100
23240,note_on,40,0,1,,,,,,,,,0,,,63,0
23240,note_on,0,0,1,,,,,,,,,0,,,58,100
23280,note_on,40,0,1,,,,,,,,,0,,,58,0
23280,note_on,0,0,1,,,,,,,,,0,,,63,100
23320,note_on,40,0,1,,,,,,,,,0,,,63,0
23320,note_on,0,0,1,,,,,,,,,0,,,58,100
23360,note_on,40,0,1,,,,,,,,,0,,,58,0
23360,note_on,0,0,1,,,,,,,,,0,,,63,100
23400,note_on,0,0,1,,,,,,,,,0,,,66,100
23400,note_on,360,0,2,,,,,,,,,0,,,51,0
23400,note_on,40,0,1,,,,,,,,,0,,,63,0
23400,note_on,0,0,2,,,,,,,,,0,,,39,110
23400,note_on,0,0,2,,,,,,,,,0,,,39,0
23440,note_on,40,0,2,,,,,,,,,0,,,39,0
23440,note_on,40,0,1,,,,,,,,,0,,,66,0
23440,note_on,0,0,1,,,,,,,,,0,,,63,100
23440,note_on,0,0,2,,,,,,,,,0,,,41,110
23480,note_on,40,0,1,,,,,,,,,0,,,63,0
23480,note_on,0,0,1,,,,,,,,,0,,,58,100
23480,note_on,0,0,2,,,,,,,,,0,,,42,110
23480,note_on,40,0,2,,,,,,,,,0,,,41,0
23505,control_change,465,0,3,,,,,,,,,0,64,0,,
23520,note_on,0,0,1,,,,,,,,,0,,,70,110
23520,note_on,0,0,1,,,,,,,,,0,,,70,0
23520,control_change,15,0,3,,,,,,,,,0,64,127,,
23520,note_on,0,0,2,,,,,,,,,0,,,42,110
23520,note_on,40,0,1,,,,,,,,,0,,,58,0
23520,note_on,40,0,2,,,,,,,,,0,,,42,0
23560,note_on,40,0,1,,,,,,,,,0,,,58,100
23600,note_on,0,0,1,,,,,,,,,0,,,63,100
23600,note_on,40,0,1,,,,,,,,,0,,,58,0
23640,note_on,0,0,1,,,,,,,,,0,,,66,100
23640,note_on,40,0,1,,,,,,,,,0,,,63,0
23680,note_on,0,0,1,,,,,,,,,0,,,63,100
23680,note_on,40,0,1,,,,,,,,,0,,,66,0
23720,note_on,40,0,1,,,,,,,,,0,,,63,0
23720,note_on,0,0,1,,,,,,,,,0,,,58,100
23760,note_on,0,0,1,,,,,,,,,0,,,63,100
23760,note_on,40,0,1,,,,,,,,,0,,,58,0
23800,note_on,0,0,1,,,,,,,,,0,,,58,100
23800,note_on,40,0,1,,,,,,,,,0,,,63,0
23840,note_on,0,0,1,,,,,,,,,0,,,63,100
23840,note_on,40,0,1,,,,,,,,,0,,,58,0
23880,note_on,360,0,2,,,,,,,,,0,,,42,0
23880,note_on,40,0,1,,,,,,,,,0,,,63,0
23880,note_on,0,0,2,,,,,,,,,0,,,42,110
23880,note_on,0,0,1,,,,,,,,,0,,,66,100
23920,note_on,0,0,2,,,,,,,,,0,,,44,110
23920,note_on,40,0,2,,,,,,,,,0,,,42,0
23920,note_on,0,0,1,,,,,,,,,0,,,63,100
23920,note_on,40,0,1,,,,,,,,,0,,,66,0
23960,note_on,0,0,2,,,,,,,,,0,,,46,110
23960,note_on,40,0,2,,,,,,,,,0,,,44,0
23960,note_on,40,0,1,,,,,,,,,0,,,63,0
23960,note_on,0,0,1,,,,,,,,,0,,,58,100
23985,control_change,465,0,3,,,,,,,,,0,64,0,,
24000,note_on,0,0,1,,,,,,,,,0,,,70,0
24000,note_on,0,0,2,,,,,,,,,0,,,46,110
24000,note_on,40,0,2,,,,,,,,,0,,,46,0
24000,control_change,15,0,3,,,,,,,,,0,64,127,,
24000,note_on,40,0,1,,,,,,,,,0,,,58,0
24000,note_on,0,0,1,,,,,,,,,0,,,70,110
24040,note_on,40,0,1,,,,,,,,,0,,,62,100
24080,note_on,40,0,1,,,,,,,,,0,,,62,0
24080,note_on,0,0,1,,,,,,,,,0,,,65,100
24105,control_change,105,0,3,,,,,,,,,0,64,0,,
24120,note_on,40,0,1,,,,,,,,,0,,,65,0
24120,note_on,0,0,1,,,,,,,,,0,,,70,0
24120,note_on,0,0,1,,,,,,,,,0,,,77,110
24120,control_change,15,0,3,,,,,,,,,0,64,127,,
24120,note_on,120,0,2,,,,,,,,,0,,,59,110
24160,note_on,40,0,1,,,,,,,,,0,,,65,100
24200,note_on,40,0,1,,,,,,,,,0,,,65,0
24200,note_on,0,0,1,,,,,,,,,0,,,68,100
24225,control_change,105,0,3,,,,,,,,,0,64,0,,
24240,note_on,0,0,1,,,,,,,,,0,,,77,0
24240,note_on,0,0,2,,,,,,,,,0,,,56,110
24240,control_change,15,0,3,,,,,,,,,0,64,127,,
24240,note_on,40,0,1,,,,,,,,,0,,,68,0
24240,note_on,120,0,2,,,,,,,,,0,,,59,0
24240,note_on,0,0,1,,,,,,,,,0,,,74,110
24280,note_on,40,0,1,,,,,,,,,0,,,65,100
24320,note_on,0,0,1,,,,,,,,,0,,,68,100
24320,note_on,40,0,1,,,,,,,,,0,,,65,0
24345,control_change,105,0,3,,,,,,,,,0,64,0,,
24360,control_change,15,0,3,,,,,,,,,0,64,127,,
24360,note_on,120,0,2,,,,,,,,,0,,,56,0
24360,note_on,40,0,1,,,,,,,,,0,,,68,0
24360,note_on,0,0,1,,,,,,,,,0,,,71,110
24360,note_on,0,0,1,,,,,,,,,0,,,74,0
24360,note_on,0,0,2,,,,,,,,,0,,,53,110
24400,note_on,40,0,1,,,,,,,,,0,,,65,100
24440,note_on,0,0,1,,,,,,,,,0,,,68,100
24440,note_on,40,0,1,,,,,,,,,0,,,65,0
24465,control_change,105,0,3,,,,,,,,,0,64,0,,
24480,note_on,0,0,1,,,,,,,,,0,,,71,110
24480,note_on,40,0,1,,,,,,,,,0,,,68,0
24480,note_on,120,0,2,,,,,,,,,0,,,53,0
24480,control_change,15,0,3,,,,,,,,,0,64,127,,
24480,note_on,0,0,2,,,,,,,,,0,,,50,110
24480,note_on,0,0,1,,,,,,,,,0,,,71,0
24520,note_on,40,0,1,,,,,,,,,0,,,65,97
24560,note_on,40,0,1,,,,,,,,,0,,,65,0
24560,note_on,0,0,1,,,,,,,,,0,,,68,93
24585,control_change,105,0,3,,,,,,,,,0,64,0,,
24600,note_on,0,0,1,,,,,,,,,0,,,71,0
24600,note_on,0,0,1,,,,,,,,,0,,,70,100
24600,control_change,15,0,3,,,,,,,,,0,64,127,,
24600,note_on,40,0,1,,,,,,,,,0,,,68,0
24640,note_on,40,0,1,,,,,,,,,0,,,65,86
24680,note_on,40,0,1,,,,,,,,,0,,,65,0
24680,note_on,0,0,1,,,,,,,,,0,,,68,82
24705,control_change,105,0,3,,,,,,,,,0,64,0,,
24720,note_on,0,0,1,,,,,,,,,0,,,70,0
24720,note_on,40,0,1,,,,,,,,,0,,,68,0
24720,note_on,0,0,1,,,,,,,,,0,,,70,89
24720,control_change,15,0,3,,,,,,,,,0,64,127,,
24760,note_on,40,0,1,,,,,,,,,0,,,58,75
24800,note_on,40,0,1,,,,,,,,,0,,,58,0
24800,note_on,0,0,1,,,,,,,,,0,,,65,71
24825,control_change,105,0,3,,,,,,,,,0,64,0,,
24840,note_on,0,0,1,,,,,,,,,0,,,70,0
24840,control_change,15,0,3,,,,,,,,,0,64,127,,
24840,note_on,0,0,1,,,,,,,,,0,,,68,78
24840,note_on,40,0,1,,,,,,,,,0,,,65,0
24880,note_on,40,0,1,,,,,,,,,0,,,58,64
24900,note_on,420,0,2,,,,,,,,,0,,,50,0
24900,note_on,0,0,2,,,,,,,,,0,,,48,72
24920,note_on,40,0,1,,,,,,,,,0,,,58,0
24920,note_on,0,0,1,,,,,,,,,0,,,65,61
24930,note_on,30,0,2,,,,,,,,,0,,,48,0
24930,note_on,0,0,2,,,,,,,,,0,,,50,70
24945,control_change,105,0,3,,,,,,,,,0,64,0,,
24960,note_on,0,0,1,,,,,,,,,0,,,68,0
24960,note_on,0,0,1,,,,,,,,,0,,,68,70
24960,note_on,30,0,2,,,,,,,,,0,,,50,0
24960,note_on,0,0,2,,,,,,,,,0,,,46,0
24960,note_on,0,0,2,,,,,,,,,0,,,51,70
24960,control_change,15,0,3,,,,,,,,,0,64,127,,
24960,note_on,40,0,1,,,,,,,,,0,,,65,0
25000,note_on,40,0,1,,,,,,,,,0,,,58,60
25040,note_on,40,0,1,,,,,,,,,0,,,58,0
25040,note_on,0,0,1,,,,,,,,,0,,,63,60
25065,control_change,105,0,3,,,,,,,,,0,64,0,,
25080,control_change,15,0,3,,,,,,,,,0,64,127,,
25080,note_on,40,0,1,,,,,,,,,0,,,63,0
25080,note_on,0,0,1,,,,,,,,,0,,,68,0
25080,note_on,0,0,1,,,,,,,,,0,,,66,70
25120,note_on,40,0,1,,,,,,,,,0,,,58,60
25160,note_on,0,0,1,,,,,,,,,0,,,63,60
25160,note_on,40,0,1,,,,,,,,,0,,,58,0
25185,control_change,105,0,3,,,,,,,,,0,64,0,,
25200,note_on,240,0,2,,,,,,,,,0,,,51,0
25200,note_on,0,0,2,,,,,,,,,0,,,44,70
25200,control_change,15,0,3,,,,,,,,,0,64,127,,
25200,note_on,40,0,1,,,,,,,,,0,,,63,0
25200,note_on,0,0,1,,,,,,,,,0,,,66,0
25200,note_on,0,0,1,,,,,,,,,0,,,65,70
25240,note_on,40,0,1,,,,,,,,,0,,,56,60
25280,note_on,40,0,1,,,,,,,,,0,,,56,0
25280,note_on,0,0,1,,,,,,,,,0,,,59,60
25305,control_change,105,0,3,,,,,,,,,0,64,0,,
25320,control_change,15,0,3,,,,,,,,,0,64,127,,
25320,note_on,0,0,1,,,,,,,,,0,,,68,70
25320,note_on,0,0,1,,,,,,,,,0,,,65,0
25320,note_on,40,0,1,,,,,,,,,0,,,59,0
25360,note_on,40,0,1,,,,,,,,,0,,,56,60
25400,note_on,40,0,1,,,,,,,,,0,,,56,0
25400,note_on,0,0,1,,,,,,,,,0,,,59,60
25425,control_change,105,0,3,,,,,,,,,0,64,0,,
25440,note_on,240,0,2,,,,,,,,,0,,,44,0
25440,note_on,0,0,2,,,,,,,,,0,,,46,70
25440,note_on,40,0,1,,,,,,,,,0,,,59,0
25440,note_on,0,0,1,,,,,,,,,0,,,68,0
25440,note_on,0,0,1,,,,,,,,,0,,,63,70
25440,control_change,15,0,3,,,,,,,,,0,64,127,,
25480,note_on,40,0,2,,,,,,,,,0,,,51,60
25520,note_on,40,0,2,,,,,,,,,0,,,51,0
25520,note_on,0,0,2,,,,,,,,,0,,,54,60
25560,note_on,40,0,2,,,,,,,,,0,,,54,0
25560,note_on,0,0,2,,,,,,,,,0,,,58,60
25600,note_on,40,0,2,,,,,,,,,0,,,58,0
25600,note_on,0,0,2,,,,,,,,,0,,,54,60
25640,note_on,40,0,2,,,,,,,,,0,,,54,0
25640,note_on,0,0,2,,,,,,,,,0,,,51,60
25665,control_change,225,0,3,,,,,,,,,0,64,0,,
25680,note_on,0,0,1,,,,,,,,,0,,,62,70
25680,note_on,40,0,2,,,,,,,,,0,,,51,0
25680,note_on,240,0,1,,,,,,,,,0,,,63,0
25680,control_change,15,0,3,,,,,,,,,0,64,127,,
25720,note_on,40,0,2,,,,,,,,,0,,,50,67
25760,note_on,40,0,2,,,,,,,,,0,,,50,0
25760,note_on,0,0,2,,,,,,,,,0,,,53,75
25800,note_on,0,0,2,,,,,,,,,0,,,44,93
25800,note_on,40,0,2,,,,,,,,,0,,,53,0
25800,note_on,0,0,2,,,,,,,,,0,,,58,83
25800,note_on,0,0,2,,,,,,,,,0,,,46,0
25840,note_on,40,0,2,,,,,,,,,0,,,44,0
25840,note_on,0,0,2,,,,,,,,,0,,,58,0
25840,note_on,0,0,2,,,,,,,,,0,,,53,91
25840,note_on,0,0,2,,,,,,,,,0,,,42,101
25860,note_on,0,0,1,,,,,,,,,0,,,70,105
25860,note_on,180,0,1,,,,,,,,,0,,,62,0
25880,note_on,40,0,2,,,,,,,,,0,,,42,0
25880,note_on,0,0,2,,,,,,,,,0,,,53,0
25880,note_on,0,0,2,,,,,,,,,0,,,41,109
25905,control_change,225,0,3,,,,,,,,,0,64,0,,
25920,control_change,15,0,3,,,,,,,,,0,64,127,,
25920,note_on,0,0,2,,,,,,,,,0,,,39,110
25920,note_on,60,0,1,,,,,,,,,0,,,70,0
25920,note_on,40,0,2,,,,,,,,,0,,,41,0
25920,note_on,0,0,1,,,,,,,,,0,,,70,110
25960,note_on,40,0,1,,,,,,,,,0,,,58,100
26000,note_on,40,0,1,,,,,,,,,0,,,58,0
26000,note_on,0,0,1,,,,,,,,,0,,,63,100
26040,note_on,0,0,1,,,,,,,,,0,,,66,100
26040,note_on,40,0,1,,,,,,,,,0,,,63,0
26080,note_on,40,0,1,,,,,,,,,0,,,66,0
26080,note_on,0,0,1,,,,,,,,,0,,,63,100
26120,note_on,40,0,1,,,,,,,,,0,,,63,0
26120,note_on,0,0,1,,,,,,,,,0,,,58,100
26160,note_on,0,0,1,,,,,,,,,0,,,63,100
26160,note_on,40,0,1,,,,,,,,,0,,,58,0
26200,note_on,40,0,1,,,,,,,,,0,,,63,0
26200,note_on,0,0,1,,,,,,,,,0,,,58,100
26240,note_on,40,0,1,,,,,,,,,0,,,58,0
26240,note_on,0,0,1,,,,,,,,,0,,,63,100
26280,note_on,0,0,2,,,,,,,,,0,,,39,110
26280,note_on,360,0,2,,,,,,,,,0,,,39,0
26280,note_on,0,0,1,,,,,,,,,0,,,66,100
26280,note_on,40,0,1,,,,,,,,,0,,,63,0
26320,note_on,0,0,2,,,,,,,,,0,,,41,110
26320,note_on,40,0,2,,,,,,,,,0,,,39,0
26320,note_on,0,0,1,,,,,,,,,0,,,63,100
26320,note_on,40,0,1,,,,,,,,,0,,,66,0
26360,note_on,0,0,2,,,,,,,,,0,,,42,110
26360,note_on,40,0,2,,,,,,,,,0,,,41,0
26360,note_on,0,0,1,,,,,,,,,0,,,58,100
26360,note_on,40,0,1,,,,,,,,,0,,,63,0
26385,control_change,465,0,3,,,,,,,,,0,64,0,,
26400,note_on,40,0,1,,,,,,,,,0,,,58,0
26400,note_on,0,0,1,,,,,,,,,0,,,70,110
26400,note_on,0,0,1,,,,,,,,,0,,,70,0
26400,control_change,15,0,3,,,,,,,,,0,64,127,,
26400,note_on,40,0,2,,,,,,,,,0,,,42,0
26400,note_on,0,0,2,,,,,,,,,0,,,42,110
26440,note_on,40,0,1,,,,,,,,,0,,,58,100
26480,note_on,40,0,1,,,,,,,,,0,,,58,0
26480,note_on,0,0,1,,,,,,,,,0,,,63,100
26520,note_on,40,0,1,,,,,,,,,0,,,63,0
26520,note_on,0,0,1,,,,,,,,,0,,,66,100
26560,note_on,40,0,1,,,,,,,,,0,,,66,0
26560,note_on,0,0,1,,,,,,,,,0,,,63,100
26600,note_on,0,0,1,,,,,,,,,0,,,58,100
26600,note_on,40,0,1,,,,,,,,,0,,,63,0
26640,note_on,0,0,1,,,,,,,,,0,,,63,100
26640,note_on,40,0,1,,,,,,,,,0,,,58,0
26680,note_on,40,0,1,,,,,,,,,0,,,63,0
26680,note_on,0,0,1,,,,,,,,,0,,,58,100
26720,note_on,0,0,1,,,,,,,,,0,,,63,100
26720,note_on,40,0,1,,,,,,,,,0,,,58,0
26760,note_on,0,0,1,,,,,,,,,0,,,71,110
26760,note_on,0,0,1,,,,,,,,,0,,,66,100
26760,note_on,0,0,1,,,,,,,,,0,,,70,0
26760,note_on,40,0,1,,,,,,,,,0,,,63,0
26760,note_on,360,0,2,,,,,,,,,0,,,42,0
26760,note_on,0,0,2,,,,,,,,,0,,,42,110
26800,note_on,40,0,1,,,,,,,,,0,,,66,0
26800,note_on,40,0,2,,,,,,,,,0,,,42,0
26800,note_on,0,0,2,,,,,,,,,0,,,44,110
26800,note_on,0,0,1,,,,,,,,,0,,,63,100
26840,note_on,40,0,2,,,,,,,,,0,,,44,0
26840,note_on,0,0,2,,,,,,,,,0,,,46,110
26840,note_on,40,0,1,,,,,,,,,0,,,63,0
26840,note_on,0,0,1,,,,,,,,,0,,,58,100
26865,control_change,465,0,3,,,,,,,,,0,64,0,,
26880,note_on,0,0,1,,,,,,,,,0,,,71,0
26880,note_on,0,0,1,,,,,,,,,0,,,70,110
26880,note_on,40,0,1,,,,,,,,,0,,,58,0
26880,control_change,15,0,3,,,,,,,,,0,64,127,,
26880,note_on,40,0,2,,,,,,,,,0,,,46,0
26880,note_on,0,0,2,,,,,,,,,0,,,46,110
26920,note_on,40,0,1,,,,,,,,,0,,,62,100
26960,note_on,40,0,1,,,,,,,,,0,,,62,0
26960,note_on,0,0,1,,,,,,,,,0,,,65,100
26985,control_change,105,0,3,,,,,,,,,0,64,0,,
27000,note_on,120,0,2,,,,,,,,,0,,,59,110
27000,note_on,0,0,1,,,,,,,,,0,,,70,0
27000,control_change,15,0,3,,,,,,,,,0,64,127,,
27000,note_on,40,0,1,,,,,,,,,0,,,65,0
27000,note_on,0,0,1,,,,,,,,,0,,,77,110
27040,note_on,40,0,1,,,,,,,,,0,,,65,100
27080,note_on,40,0,1,,,,,,,,,0,,,65,0
27080,note_on,0,0,1,,,,,,,,,0,,,68,100
27105,control_change,105,0,3,,,,,,,,,0,64,0,,
27120,note_on,120,0,2,,,,,,,,,0,,,59,0
27120,note_on,0,0,2,,,,,,,,,0,,,56,110
27120,note_on,0,0,1,,,,,,,,,0,,,77,0
27120,note_on,40,0,1,,,,,,,,,0,,,68,0
27120,note_on,0,0,1,,,,,,,,,0,,,74,110
27120,control_change,15,0,3,,,,,,,,,0,64,127,,
27160,note_on,40,0,1,,,,,,,,,0,,,65,100
27200,note_on,0,0,1,,,,,,,,,0,,,68,100
27200,note_on,40,0,1,,,,,,,,,0,,,65,0
27225,control_change,105,0,3,,,,,,,,,0,64,0,,
27240,note_on,0,0,1,,,,,,,,,0,,,71,110
27240,note_on,40,0,1,,,,,,,,,0,,,68,0
27240,note_on,120,0,2,,,,,,,,,0,,,56,0
27240,note_on,0,0,2,,,,,,,,,0,,,53,110
27240,control_change,15,0,3,,,,,,,,,0,64,127,,
27240,note_on,0,0,1,,,,,,,,,0,,,74,0
27280,note_on,40,0,1,,,,,,,,,0,,,65,100
27320,note_on,40,0,1,,,,,,,,,0,,,65,0
27320,note_on,0,0,1,,,,,,,,,0,,,68,100
27345,control_change,105,0,3,,,,,,,,,0,64,0,,
27360,note_on,0,0,1,,,,,,,,,0,,,70,110
27360,note_on,40,0,1,,,,,,,,,0,,,68,0
27360,control_change,15,0,3,,,,,,,,,0,64,127,,
27360,note_on,120,0,2,,,,,,,,,0,,,53,0
27360,note_on,0,0,2,,,,,,,,,0,,,50,110
27360,note_on,0,0,1,,,,,,,,,0,,,71,0
27400,note_on,40,0,1,,,,,,,,,0,,,65,97
27440,note_on,0,0,1,,,,,,,,,0,,,68,93
27440,note_on,40,0,1,,,,,,,,,0,,,65,0
27465,control_change,105,0,3,,,,,,,,,0,64,0,,
27480,control_change,15,0,3,,,,,,,,,0,64,127,,
27480,note_on,0,0,1,,,,,,,,,0,,,71,100
27480,note_on,40,0,1,,,,,,,,,0,,,68,0
27480,note_on,0,0,1,,,,,,,,,0,,,70,0
27520,note_on,40,0,1,,,,,,,,,0,,,65,86
27560,note_on,0,0,1,,,,,,,,,0,,,68,82
27560,note_on,40,0,1,,,,,,,,,0,,,65,0
27585,control_change,105,0,3,,,,,,,,,0,64,0,,
27600,note_on,0,0,2,,,,,,,,,0,,,50,89
27600,note_on,40,0,1,,,,,,,,,0,,,68,0
27600,note_on,240,0,2,,,,,,,,,0,,,50,0
27600,control_change,15,0,3,,,,,,,,,0,64,127,,
27600,note_on,0,0,1,,,,,,,,,0,,,70,89
27600,note_on,0,0,1,,,,,,,,,0,,,71,0
27630,note_on,30,0,2,,,,,,,,,0,,,50,0
27630,note_on,0,0,2,,,,,,,,,0,,,51,86
27640,note_on,40,0,1,,,,,,,,,0,,,58,75
27660,note_on,0,0,2,,,,,,,,,0,,,50,83
27660,note_on,30,0,2,,,,,,,,,0,,,51,0
27680,note_on,40,0,1,,,,,,,,,0,,,58,0
27680,note_on,0,0,1,,,,,,,,,0,,,65,71
27680,note_on,0,0,2,,,,,,,,,0,,,51,81
27680,note_on,20,0,2,,,,,,,,,0,,,50,0
27700,note_on,0,0,2,,,,,,,,,0,,,50,80
27700,note_on,20,0,2,,,,,,,,,0,,,51,0
27705,control_change,105,0,3,,,,,,,,,0,64,0,,
27720,control_change,15,0,3,,,,,,,,,0,64,127,,
27720,note_on,0,0,1,,,,,,,,,0,,,68,78
27720,note_on,40,0,1,,,,,,,,,0,,,65,0
27720,note_on,0,0,1,,,,,,,,,0,,,70,0
27720,note_on,0,0,2,,,,,,,,,0,,,51,78
27720,note_on,20,0,2,,,,,,,,,0,,,50,0
27740,note_on,0,0,2,,,,,,,,,0,,,50,76
27740,note_on,20,0,2,,,,,,,,,0,,,51,0
27760,note_on,40,0,1,,,,,,,,,0,,,58,64
27760,note_on,20,0,2,,,,,,,,,0,,,50,0
27760,note_on,0,0,2,,,,,,,,,0,,,51,74
27780,note_on,20,0,2,,,,,,,,,0,,,51,0
27780,note_on,0,0,2,,,,,,,,,0,,,50,72
27800,note_on,20,0,2,,,,,,,,,0,,,50,0
27800,note_on,40,0,1,,,,,,,,,0,,,58,0
27800,note_on,0,0,1,,,,,,,,,0,,,65,61
27800,note_on,0,0,2,,,,,,,,,0,,,48,71
27820,note_on,0,0,2,,,,,,,,,0,,,50,11
27820,note_on,20,0,2,,,,,,,,,0,,,48,0
27825,control_change,105,0,3,,,,,,,,,0,64,0,,
27840,note_on,20,0,2,,,,,,,,,0,,,50,0
27840,note_on,0,0,2,,,,,,,,,0,,,46,0
27840,note_on,0,0,2,,,,,,,,,0,,,51,70
27840,note_on,0,0,1,,,,,,,,,0,,,68,70
27840,note_on,40,0,1,,,,,,,,,0,,,65,0
27840,note_on,0,0,1,,,,,,,,,0,,,68,0
27840,control_change,15,0,3,,,,,,,,,0,64,127,,
27880,note_on,40,0,1,,,,,,,,,0,,,58,60
27920,note_on,0,0,1,,,,,,,,,0,,,63,60
27920,note_on,40,0,1,,,,,,,,,0,,,58,0
27945,control_change,105,0,3,,,,,,,,,0,64,0,,
27960,control_change,15,0,3,,,,,,,,,0,64,127,,
27960,note_on,0,0,1,,,,,,,,,0,,,66,70
27960,note_on,0,0,1,,,,,,,,,0,,,68,0
27960,note_on,40,0,1,,,,,,,,,0,,,63,0
28000,note_on,40,0,1,,,,,,,,,0,,,58,60
28040,note_on,0,0,1,,,,,,,,,0,,,63,60
28040,note_on,40,0,1,,,,,,,,,0,,,58,0
28065,control_change,105,0,3,,,,,,,,,0,64,0,,
28080,note_on,0,0,2,,,,,,,,,0,,,44,70
28080,note_on,0,0,1,,,,,,,,,0,,,65,70
28080,note_on,240,0,2,,,,,,,,,0,,,51,0
28080,note_on,40,0,1,,,,,,,,,0,,,63,0
28080,note_on,0,0,1,,,,,,,,,0,,,66,0
28080,control_change,15,0,3,,,,,,,,,0,64,127,,
28120,note_on,40,0,1,,,,,,,,,0,,,56,60
28160,note_on,0,0,1,,,,,,,,,0,,,59,60
28160,note_on,40,0,1,,,,,,,,,0,,,56,0
28185,control_change,105,0,3,,,,,,,,,0,64,0,,
28200,note_on,0,0,1,,,,,,,,,0,,,71,70
28200,note_on,0,0,1,,,,,,,,,0,,,65,0
28200,control_change,15,0,3,,,,,,,,,0,64,127,,
28200,note_on,40,0,1,,,,,,,,,0,,,59,0
28240,note_on,40,0,1,,,,,,,,,0,,,59,60
28280,note_on,40,0,1,,,,,,,,,0,,,59,0
28280,note_on,0,0,1,,,,,,,,,0,,,65,60
28305,control_change,105,0,3,,,,,,,,,0,64,0,,
28320,note_on,0,0,1,,,,,,,,,0,,,63,70
28320,note_on,240,0,2,,,,,,,,,0,,,44,0
28320,note_on,0,0,2,,,,,,,,,0,,,46,70
28320,note_on,0,0,1,,,,,,,,,0,,,71,0
28320,control_change,15,0,3,,,,,,,,,0,64,127,,
28320,note_on,40,0,1,,,,,,,,,0,,,65,0
28360,note_on,40,0,2,,,,,,,,,0,,,51,60
28400,note_on,0,0,2,,,,,,,,,0,,,54,60
28400,note_on,40,0,2,,,,,,,,,0,,,51,0
28440,note_on,40,0,2,,,,,,,,,0,,,54,0
28440,note_on,0,0,2,,,,,,,,,0,,,58,60
28480,note_on,0,0,2,,,,,,,,,0,,,54,60
28480,note_on,40,0,2,,,,,,,,,0,,,58,0
28520,note_on,40,0,2,,,,,,,,,0,,,54,0
28520,note_on,0,0,2,,,,,,,,,0,,,51,60
28545,control_change,225,0,3,,,,,,,,,0,64,0,,
28560,note_on,240,0,1,,,,,,,,,0,,,63,0
28560,control_change,15,0,3,,,,,,,,,0,64,127,,
28560,note_on,40,0,2,,,,,,,,,0,,,51,0
28560,note_on,0,0,1,,,,,,,,,0,,,62,70
28600,note_on,40,0,2,,,,,,,,,0,,,50,60
28640,note_on,0,0,2,,,,,,,,,0,,,58,60
28640,note_on,0,0,2,,,,,,,,,0,,,53,60
28640,note_on,40,0,2,,,,,,,,,0,,,50,0
28680,note_on,0,0,2,,,,,,,,,0,,,46,0
28680,note_on,0,0,2,,,,,,,,,0,,,58,0
28680,note_on,120,0,1,,,,,,,,,0,,,62,0
28680,note_on,0,0,2,,,,,,,,,0,,,38,70
28680,note_on,0,0,1,,,,,,,,,0,,,70,70
28680,note_on,0,0,2,,,,,,,,,0,,,50,70
28680,note_on,40,0,2,,,,,,,,,0,,,53,0
28720,note_on,40,0,1,,,,,,,,,0,,,58,60
28760,note_on,40,0,1,,,,,,,,,0,,,58,0
28760,note_on,0,0,1,,,,,,,,,0,,,65,60
28785,control_change,225,0,3,,,,,,,,,0,64,0,,
28800,note_on,0,0,2,,,,,,,,,0,,,38,0
28800,note_on,0,0,1,,,,,,,,,0,,,68,50
28800,note_on,0,0,1,,,,,,,,,0,,,70,0
28800,note_on,40,0,1,,,,,,,,,0,,,65,0
28800,note_on,0,0,2,,,,,,,,,0,,,39,50
28800,note_on,0,0,2,,,,,,,,,0,,,51,50
28800,note_on,120,0,2,,,,,,,,,0,,,50,0
28800,control_change,15,0,3,,,,,,,,,0,64,127,,
28840,note_on,40,0,1,,,,,,,,,0,,,58,40
28880,note_on,0,0,1,,,,,,,,,0,,,63,40
28880,note_on,40,0,1,,,,,,,,,0,,,58,0
28905,control_change,105,0,3,,,,,,,,,0,64,0,,
28920,note_on,40,0,1,,,,,,,,,0,,,63,0
28920,note_on,0,0,1,,,,,,,,,0,,,68,0
28920,note_on,0,0,1,,,,,,,,,0,,,66,50
28920,control_change,15,0,3,,,,,,,,,0,64,127,,
28960,note_on,40,0,1,,,,,,,,,0,,,58,40
29000,note_on,0,0,1,,,,,,,,,0,,,63,40
29000,note_on,40,0,1,,,,,,,,,0,,,58,0
29025,control_change,105,0,3,,,,,,,,,0,64,0,,
29040,note_on,0,0,2,,,,,,,,,0,,,32,50
29040,note_on,240,0,2,,,,,,,,,0,,,51,0
29040,control_change,15,0,3,,,,,,,,,0,64,127,,
29040,note_on,40,0,1,,,,,,,,,0,,,63,0
29040,note_on,0,0,1,,,,,,,,,0,,,64,50
29040,note_on,0,0,1,,,,,,,,,0,,,66,0
29040,note_on,0,0,2,,,,,,,,,0,,,44,50
29040,note_on,0,0,2,,,,,,,,,0,,,39,0
29080,note_on,40,0,1,,,,,,,,,0,,,56,40
29120,note_on,40,0,1,,,,,,,,,0,,,56,0
29120,note_on,0,0,1,,,,,,,,,0,,,59,40
29145,control_change,105,0,3,,,,,,,,,0,64,0,,
29160,note_on,40,0,1,,,,,,,,,0,,,59,0
29160,note_on,0,0,1,,,,,,,,,0,,,71,50
29160,control_change,15,0,3,,,,,,,,,0,64,127,,
29160,note_on,0,0,1,,,,,,,,,0,,,64,0
29200,note_on,40,0,1,,,,,,,,,0,,,59,40
29240,note_on,40,0,1,,,,,,,,,0,,,59,0
29240,note_on,0,0,1,,,,,,,,,0,,,64,40
29265,control_change,105,0,3,,,,,,,,,0,64,0,,
29280,note_on,0,0,2,,,,,,,,,0,,,30,50
29280,note_on,0,0,2,,,,,,,,,0,,,42,50
29280,control_change,15,0,3,,,,,,,,,0,64,127,,
29280,note_on,0,0,2,,,,,,,,,0,,,32,0
29280,note_on,240,0,2,,,,,,,,,0,,,44,0
29280,note_on,40,0,1,,,,,,,,,0,,,64,0
29280,note_on,0,0,1,,,,,,,,,0,,,71,0
29280,note_on,0,0,1,,,,,,,,,0,,,63,50
29320,note_on,40,0,2,,,,,,,,,0,,,51,40
29360,note_on,40,0,2,,,,,,,,,0,,,51,0
29360,note_on,0,0,2,,,,,,,,,0,,,54,40
29400,note_on,0,0,2,,,,,,,,,0,,,59,40
29400,note_on,40,0,2,,,,,,,,,0,,,54,0
29440,note_on,40,0,2,,,,,,,,,0,,,59,0
29440,note_on,0,0,2,,,,,,,,,0,,,54,40
29480,note_on,40,0,2,,,,,,,,,0,,,54,0
29480,note_on,0,0,2,,,,,,,,,0,,,51,40
29505,control_change,225,0,3,,,,,,,,,0,64,0,,
29520,note_on,0,0,1,,,,,,,,,0,,,61,50
29520,note_on,240,0,1,,,,,,,,,0,,,63,0
29520,note_on,0,0,2,,,,,,,,,0,,,42,0
29520,note_on,0,0,2,,,,,,,,,0,,,30,0
29520,note_on,40,0,2,,,,,,,,,0,,,51,0
29520,note_on,0,0,2,,,,,,,,,0,,,40,50
29520,control_change,15,0,3,,,,,,,,,0,64,127,,
29560,note_on,40,0,2,,,,,,,,,0,,,49,40
29600,note_on,40,0,2,,,,,,,,,0,,,49,0
29600,note_on,0,0,2,,,,,,,,,0,,,54,40
29640,note_on,40,0,2,,,,,,,,,0,,,54,0
29640,note_on,0,0,2,,,,,,,,,0,,,58,40
29680,note_on,0,0,2,,,,,,,,,0,,,54,40
29680,note_on,40,0,2,,,,,,,,,0,,,58,0
29720,note_on,0,0,2,,,,,,,,,0,,,49,40
29720,note_on,40,0,2,,,,,,,,,0,,,54,0
29745,control_change,225,0,3,,,,,,,,,0,64,0,,
29760,note_on,0,0,1,,,,,,,,,0,,,66,50
29760,note_on,240,0,1,,,,,,,,,0,,,61,0
29760,note_on,0,0,2,,,,,,,,,0,,,39,50
29760,control_change,15,0,3,,,,,,,,,0,64,127,,
29760,note_on,0,0,2,,,,,,,,,0,,,40,0
29760,note_on,40,0,2,,,,,,,,,0,,,49,0
29800,note_on,40,0,1,,,,,,,,,0,,,54,40
29840,note_on,0,0,1,,,,,,,,,0,,,59,40
29840,note_on,40,0,1,,,,,,,,,0,,,54,0
29880,note_on,40,0,1,,,,,,,,,0,,,59,0
29880,note_on,0,0,1,,,,,,,,,0,,,63,40
29920,note_on,40,0,1,,,,,,,,,0,,,63,0
29920,note_on,0,0,1,,,,,,,,,0,,,59,40
29960,note_on,40,0,1,,,,,,,,,0,,,59,0
29960,note_on,0,0,1,,,,,,,,,0,,,54,40
30000,note_on,40,0,1,,,,,,,,,0,,,54,0
30000,note_on,0,0,1,,,,,,,,,0,,,59,40
30040,note_on,40,0,1,,,,,,,,,0,,,59,0
30040,note_on,0,0,1,,,,,,,,,0,,,54,40
30080,note_on,40,0,1,,,,,,,,,0,,,54,0
30080,note_on,0,0,1,,,,,,,,,0,,,59,40
30120,note_on,40,0,1,,,,,,,,,0,,,59,0
30120,note_on,0,0,1,,,,,,,,,0,,,63,40
30160,note_on,0,0,1,,,,,,,,,0,,,59,40
30160,note_on,40,0,1,,,,,,,,,0,,,63,0
30200,note_on,0,0,1,,,,,,,,,0,,,54,40
30200,note_on,40,0,1,,,,,,,,,0,,,59,0
30225,control_change,465,0,3,,,,,,,,,0,64,0,,
30240,control_change,15,0,3,,,,,,,,,0,64,127,,
30240,note_on,480,0,2,,,,,,,,,0,,,39,0
30240,note_on,0,0,2,,,,,,,,,0,,,37,50
30240,note_on,40,0,1,,,,,,,,,0,,,54,0
30240,note_on,0,0,1,,,,,,,,,0,,,66,0
30240,note_on,0,0,1,,,,,,,,,0,,,66,50
30280,note_on,40,0,1,,,,,,,,,0,,,54,40
30320,note_on,0,0,1,,,,,,,,,0,,,58,40
30320,note_on,40,0,1,,,,,,,,,0,,,54,0
30360,note_on,40,0,1,,,,,,,,,0,,,58,0
30360,note_on,0,0,1,,,,,,,,,0,,,64,40
30400,note_on,40,0,1,,,,,,,,,0,,,64,0
30400,note_on,0,0,1,,,,,,,,,0,,,58,40
30440,note_on,40,0,1,,,,,,,,,0,,,58,0
30440,note_on,0,0,1,,,,,,,,,0,,,54,40
30465,control_change,225,0,3,,,,,,,,,0,64,0,,
30480,note_on,40,0,1,,,,,,,,,0,,,54,0
30480,note_on,0,0,1,,,,,,,,,0,,,66,0
30480,note_on,0,0,1,,,,,,,,,0,,,68,50
30480,control_change,15,0,3,,,,,,,,,0,64,127,,
30520,note_on,40,0,1,,,,,,,,,0,,,58,40
30560,note_on,0,0,1,,,,,,,,,0,,,61,40
30560,note_on,40,0,1,,,,,,,,,0,,,58,0
30600,note_on,0,0,1,,,,,,,,,0,,,68,0
30600,note_on,40,0,1,,,,,,,,,0,,,61,0
30600,note_on,0,0,1,,,,,,,,,0,,,66,50
30640,note_on,40,0,1,,,,,,,,,0,,,64,40
30680,note_on,0,0,1,,,,,,,,,0,,,58,40
30680,note_on,40,0,1,,,,,,,,,0,,,64,0
30705,control_change,225,0,3,,,,,,,,,0,64,0,,
30720,note_on,0,0,2,,,,,,,,,0,,,35,50
30720,note_on,480,0,2,,,,,,,,,0,,,37,0
30720,control_change,15,0,3,,,,,,,,,0,64,127,,
30720,note_on,0,0,1,,,,,,,,,0,,,75,50
30720,note_on,0,0,1,,,,,,,,,0,,,66,0
30720,note_on,40,0,1,,,,,,,,,0,,,58,0
30760,note_on,40,0,1,,,,,,,,,0,,,63,40
30800,note_on,0,0,1,,,,,,,,,0,,,66,40
30800,note_on,40,0,1,,,,,,,,,0,,,63,0
30840,note_on,40,0,1,,,,,,,,,0,,,66,0
30840,note_on,0,0,1,,,,,,,,,0,,,71,40
30880,note_on,40,0,1,,,,,,,,,0,,,71,0
30880,note_on,0,0,1,,,,,,,,,0,,,66,40
30920,note_on,0,0,1,,,,,,,,,0,,,63,40
30920,note_on,40,0,1,,,,,,,,,0,,,66,0
30960,note_on,40,0,1,,,,,,,,,0,,,63,0
30960,note_on,0,0,1,,,,,,,,,0,,,66,40
31000,note_on,40,0,1,,,,,,,,,0,,,66,0
31000,note_on,0,0,1,,,,,,,,,0,,,63,40
31040,note_on,40,0,1,,,,,,,,,0,,,63,0
31040,note_on,0,0,1,,,,,,,,,0,,,66,40
31080,note_on,40,0,1,,,,,,,,,0,,,66,0
31080,note_on,0,0,1,,,,,,,,,0,,,73,50
31080,note_on,0,0,1,,,,,,,,,0,,,75,0
31120,note_on,40,0,1,,,,,,,,,0,,,67,40
31160,note_on,40,0,1,,,,,,,,,0,,,67,0
31160,note_on,0,0,1,,,,,,,,,0,,,63,40
31185,control_change,465,0,3,,,,,,,,,0,64,0,,
31200,note_on,40,0,1,,,,,,,,,0,,,63,0
31200,note_on,480,0,2,,,,,,,,,0,,,35,0
31200,note_on,0,0,2,,,,,,,,,0,,,40,50
31200,note_on,0,0,1,,,,,,,,,0,,,73,50
31200,note_on,0,0,1,,,,,,,,,0,,,73,0
31200,control_change,15,0,3,,,,,,,,,0,64,127,,
31240,note_on,40,0,1,,,,,,,,,0,,,68,40
31280,note_on,40,0,1,,,,,,,,,0,,,68,0
31280,note_on,0,0,1,,,,,,,,,0,,,59,40
31320,note_on,0,0,1,,,,,,,,,0,,,71,50
31320,note_on,40,0,1,,,,,,,,,0,,,59,0
31320,note_on,0,0,1,,,,,,,,,0,,,73,0
31360,note_on,40,0,1,,,,,,,,,0,,,68,40
31400,note_on,0,0,1,,,,,,,,,0,,,59,40
31400,note_on,40,0,1,,,,,,,,,0,,,68,0
31425,control_change,225,0,3,,,,,,,,,0,64,0,,
31440,note_on,0,0,1,,,,,,,,,0,,,71,0
31440,control_change,15,0,3,,,,,,,,,0,64,127,,
31440,note_on,40,0,1,,,,,,,,,0,,,59,0
31440,note_on,0,0,1,,,,,,,,,0,,,68,50
31480,note_on,40,0,1,,,,,,,,,0,,,64,40
31520,note_on,40,0,1,,,,,,,,,0,,,64,0
31520,note_on,0,0,1,,,,,,,,,0,,,59,40
31560,note_on,0,0,1,,,,,,,,,0,,,64,50
31560,note_on,0,0,1,,,,,,,,,0,,,68,0
31560,note_on,40,0,1,,,,,,,,,0,,,59,0
31600,note_on,40,0,1,,,,,,,,,0,,,61,40
31640,note_on,40,0,1,,,,,,,,,0,,,61,0
31640,note_on,0,0,1,,,,,,,,,0,,,56,40
31665,control_change,225,0,3,,,,,,,,,0,64,0,,
31680,note_on,0,0,1,,,,,,,,,0,,,63,50
31680,note_on,0,0,2,,,,,,,,,0,,,42,50
31680,note_on,40,0,1,,,,,,,,,0,,,56,0
31680,note_on,480,0,2,,,,,,,,,0,,,40,0
31680,control_change,15,0,3,,,,,,,,,0,64,127,,
31680,note_on,0,0,1,,,,,,,,,0,,,64,0
31720,note_on,40,0,2,,,,,,,,,0,,,51,40
31760,note_on,40,0,2,,,,,,,,,0,,,51,0
31760,note_on,0,0,2,,,,,,,,,0,,,54,40
31800,note_on,0,0,2,,,,,,,,,0,,,59,40
31800,note_on,40,0,2,,,,,,,,,0,,,54,0
31840,note_on,40,0,2,,,,,,,,,0,,,59,0
31840,note_on,0,0,2,,,,,,,,,0,,,54,40
31880,note_on,40,0,2,,,,,,,,,0,,,54,0
31880,note_on,0,0,2,,,,,,,,,0,,,51,40
31920,note_on,40,0,2,,,,,,,,,0,,,51,0
31920,note_on,0,0,2,,,,,,,,,0,,,54,40
31960,note_on,40,0,2,,,,,,,,,0,,,54,0
31960,note_on,0,0,2,,,,,,,,,0,,,51,40
32000,note_on,0,0,2,,,,,,,,,0,,,54,40
32000,note_on,40,0,2,,,,,,,,,0,,,51,0
32040,note_on,360,0,1,,,,,,,,,0,,,63,0
32040,note_on,0,0,1,,,,,,,,,0,,,63,50
32040,note_on,0,0,2,,,,,,,,,0,,,59,40
32040,note_on,40,0,2,,,,,,,,,0,,,54,0
32080,note_on,0,0,2,,,,,,,,,0,,,54,40
32080,note_on,40,0,2,,,,,,,,,0,,,59,0
32120,note_on,0,0,2,,,,,,,,,0,,,51,40
32120,note_on,40,0,2,,,,,,,,,0,,,54,0
32145,control_change,465,0,3,,,,,,,,,0,64,0,,
32160,control_change,15,0,3,,,,,,,,,0,64,127,,
32160,set_tempo,9120,1,0,,,,,,454580,,,,,,,
32160,note_on,0,0,1,,,,,,,,,0,,,68,50
32160,note_on,120,0,1,,,,,,,,,0,,,63,0
32160,note_on,40,0,2,,,,,,,,,0,,,51,0
32160,note_on,0,0,2,,,,,,,,,0,,,42,0
32160,note_on,0,0,2,,,,,,,,,0,,,49,50
32160,note_on,0,0,2,,,,,,,,,0,,,42,50
32174,set_tempo,14,1,0,,,,,,455615,,,,,,,
32181,set_tempo,7,1,0,,,,,,456656,,,,,,,
32188,set_tempo,7,1,0,,,,,,457701,,,,,,,
32195,set_tempo,7,1,0,,,,,,458751,,,,,,,
32200,note_on,40,0,1,,,,,,,,,0,,,58,40
32202,set_tempo,7,1,0,,,,,,459805,,,,,,,
32209,set_tempo,7,1,0,,,,,,460865,,,,,,,
32216,set_tempo,7,1,0,,,,,,461929,,,,,,,
32223,set_tempo,7,1,0,,,,,,462999,,,,,,,
32230,set_tempo,7,1,0,,,,,,464073,,,,,,,
32237,set_tempo,7,1,0,,,,,,465152,,,,,,,
32240,note_on,0,0,1,,,,,,,,,0,,,61,40
32240,note_on,40,0,1,,,,,,,,,0,,,58,0
32244,set_tempo,7,1,0,,,,,,466237,,,,,,,
32251,set_tempo,7,1,0,,,,,,467326,,,,,,,
32258,set_tempo,7,1,0,,,,,,468421,,,,,,,
32265,set_tempo,7,1,0,,,,,,469520,,,,,,,
32272,set_tempo,7,1,0,,,,,,470625,,,,,,,
32280,note_on,40,0,1,,,,,,,,,0,,,61,0
32280,note_on,0,0,1,,,,,,,,,0,,,68,0
32280,set_tempo,8,1,0,,,,,,471735,,,,,,,
32280,note_on,0,0,1,,,,,,,,,0,,,66,50
32287,set_tempo,7,1,0,,,,,,472851,,,,,,,
32294,set_tempo,7,1,0,,,,,,473971,,,,,,,
32301,set_tempo,7,1,0,,,,,,475097,,,,,,,
32308,set_tempo,7,1,0,,,,,,476228,,,,,,,
32315,set_tempo,7,1,0,,,,,,477365,,,,,,,
32320,note_on,40,0,1,,,,,,,,,0,,,58,40
32322,set_tempo,7,1,0,,,,,,478507,,,,,,,
32329,set_tempo,7,1,0,,,,,,479655,,,,,,,
32336,set_tempo,7,1,0,,,,,,480808,,,,,,,
32343,set_tempo,7,1,0,,,,,,481966,,,,,,,
32350,set_tempo,7,1,0,,,,,,483131,,,,,,,
32357,set_tempo,7,1,0,,,,,,484301,,,,,,,
32360,note_on,0,0,1,,,,,,,,,0,,,61,40
32360,note_on,40,0,1,,,,,,,,,0,,,58,0
32364,set_tempo,7,1,0,,,,,,485476,,,,,,,
32371,set_tempo,7,1,0,,,,,,486657,,,,,,,
32378,set_tempo,7,1,0,,,,,,487845,,,,,,,
32385,set_tempo,7,1,0,,,,,,489037,,,,,,,
32385,control_change,225,0,3,,,,,,,,,0,64,0,,
32392,set_tempo,7,1,0,,,,,,490236,,,,,,,
32400,note_on,0,0,1,,,,,,,,,0,,,64,50
32400,control_change,15,0,3,,,,,,,,,0,64,127,,
32400,note_on,0,0,1,,,,,,,,,0,,,66,0
32400,set_tempo,8,1,0,,,,,,491441,,,,,,,
32400,note_on,40,0,1,,,,,,,,,0,,,61,0
32407,set_tempo,7,1,0,,,,,,492651,,,,,,,
32414,set_tempo,7,1,0,,,,,,493868,,,,,,,
32421,set_tempo,7,1,0,,,,,,495090,,,,,,,
32428,set_tempo,7,1,0,,,,,,496319,,,,,,,
32435,set_tempo,7,1,0,,,,,,497554,,,,,,,
32440,note_on,40,0,1,,,,,,,,,0,,,54,40
32442,set_tempo,7,1,0,,,,,,498795,,,,,,,
32449,set_tempo,7,1,0,,,,,,500042,,,,,,,
32456,set_tempo,7,1,0,,,,,,501295,,,,,,,
32463,set_tempo,7,1,0,,,,,,502555,,,,,,,
32470,set_tempo,7,1,0,,,,,,503821,,,,,,,
32477,set_tempo,7,1,0,,,,,,505093,,,,,,,
32480,note_on,0,0,1,,,,,,,,,0,,,58,40
32480,note_on,40,0,1,,,,,,,,,0,,,54,0
32484,set_tempo,7,1,0,,,,,,506372,,,,,,,
32491,set_tempo,7,1,0,,,,,,507657,,,,,,,
32498,set_tempo,7,1,0,,,,,,508949,,,,,,,
32505,set_tempo,7,1,0,,,,,,510247,,,,,,,
32512,set_tempo,7,1,0,,,,,,511553,,,,,,,
32520,note_on,0,0,1,,,,,,,,,0,,,61,50
32520,note_on,0,0,1,,,,,,,,,0,,,64,0
32520,note_on,40,0,1,,,,,,,,,0,,,58,0
32520,note_on,0,0,2,,,,,,,,,0,,,52,50
32520,set_tempo,8,1,0,,,,,,512864,,,,,,,
32520,note_on,360,0,2,,,,,,,,,0,,,49,0
32527,set_tempo,7,1,0,,,,,,514183,,,,,,,
32534,set_tempo,7,1,0,,,,,,515508,,,,,,,
32541,set_tempo,7,1,0,,,,,,516840,,,,,,,
32548,set_tempo,7,1,0,,,,,,518179,,,,,,,
32555,set_tempo,7,1,0,,,,,,519526,,,,,,,
32560,note_on,40,0,1,,,,,,,,,0,,,54,40
32562,set_tempo,7,1,0,,,,,,520879,,,,,,,
32569,set_tempo,7,1,0,,,,,,522239,,,,,,,
32576,set_tempo,7,1,0,,,,,,523606,,,,,,,
32583,set_tempo,7,1,0,,,,,,524980,,,,,,,
32590,set_tempo,7,1,0,,,,,,526362,,,,,,,
32597,set_tempo,7,1,0,,,,,,527751,,,,,,,
32600,note_on,0,0,1,,,,,,,,,0,,,58,40
32600,note_on,40,0,1,,,,,,,,,0,,,54,0
32604,set_tempo,7,1,0,,,,,,529147,,,,,,,
32611,set_tempo,7,1,0,,,,,,530551,,,,,,,
32618,set_tempo,7,1,0,,,,,,531962,,,,,,,
32625,set_tempo,7,1,0,,,,,,533381,,,,,,,
32625,control_change,225,0,3,,,,,,,,,0,64,0,,
32632,set_tempo,7,1,0,,,,,,534807,,,,,,,
32640,note_on,120,0,2,,,,,,,,,0,,,52,0
32640,set_tempo,8,1,0,,,,,,454545,,,,,,,
32640,note_on,0,0,1,,,,,,,,,0,,,59,40
32640,note_on,0,0,1,,,,,,,,,0,,,61,0
32640,note_on,40,0,1,,,,,,,,,0,,,58,0
32640,control_change,15,0,3,,,,,,,,,0,64,127,,
32640,note_on,0,0,2,,,,,,,,,0,,,35,40
32640,note_on,0,0,2,,,,,,,,,0,,,42,0
32680,note_on,40,0,2,,,,,,,,,0,,,47,30
32720,note_on,0,0,2,,,,,,,,,0,,,51,30
32720,note_on,40,0,2,,,,,,,,,0,,,47,0
32760,note_on,0,0,2,,,,,,,,,0,,,54,30
32760,note_on,40,0,2,,,,,,,,,0,,,51,0
32800,note_on,0,0,2,,,,,,,,,0,,,51,30
32800,note_on,40,0,2,,,,,,,,,0,,,54,0
32840,note_on,0,0,2,,,,,,,,,0,,,47,30
32840,note_on,40,0,2,,,,,,,,,0,,,51,0
32880,note_on,0,0,2,,,,,,,,,0,,,51,30
32880,note_on,40,0,2,,,,,,,,,0,,,47,0
32920,note_on,40,0,2,,,,,,,,,0,,,51,0
32920,note_on,0,0,2,,,,,,,,,0,,,47,30
32960,note_on,40,0,2,,,,,,,,,0,,,47,0
32960,note_on,0,0,2,,,,,,,,,0,,,51,30
33000,note_on,40,0,2,,,,,,,,,0,,,51,0
33000,note_on,0,0,2,,,,,,,,,0,,,54,30
33040,note_on,0,0,2,,,,,,,,,0,,,51,30
33040,note_on,40,0,2,,,,,,,,,0,,,54,0
33080,note_on,0,0,2,,,,,,,,,0,,,47,30
33080,note_on,40,0,2,,,,,,,,,0,,,51,0
33105,control_change,465,0,3,,,,,,,,,0,64,0,,
33120,note_on,0,0,2,,,,,,,,,0,,,31,40
33120,note_on,0,0,1,,,,,,,,,0,,,59,40
33120,note_on,0,0,2,,,,,,,,,0,,,35,0
33120,control_change,15,0,3,,,,,,,,,0,64,127,,
33120,note_on,480,0,1,,,,,,,,,0,,,59,0
33120,note_on,40,0,2,,,,,,,,,0,,,47,0
33160,note_on,40,0,2,,,,,,,,,0,,,47,30
33200,note_on,40,0,2,,,,,,,,,0,,,47,0
33200,note_on,0,0,2,,,,,,,,,0,,,52,30
33240,note_on,0,0,2,,,,,,,,,0,,,55,30
33240,note_on,40,0,2,,,,,,,,,0,,,52,0
33280,note_on,0,0,2,,,,,,,,,0,,,52,30
33280,note_on,40,0,2,,,,,,,,,0,,,55,0
33320,note_on,0,0,2,,,,,,,,,0,,,47,30
33320,note_on,40,0,2,,,,,,,,,0,,,52,0
33360,note_on,40,0,2,,,,,,,,,0,,,47,0
33360,note_on,0,0,2,,,,,,,,,0,,,52,30
33400,note_on,0,0,2,,,,,,,,,0,,,47,30
33400,note_on,40,0,2,,,,,,,,,0,,,52,0
33440,note_on,40,0,2,,,,,,,,,0,,,47,0
33440,note_on,0,0,2,,,,,,,,,0,,,52,30
33480,note_on,0,0,2,,,,,,,,,0,,,31,0
33480,note_on,40,0,2,,,,,,,,,0,,,52,0
33480,note_on,0,0,2,,,,,,,,,0,,,31,40
33480,note_on,0,0,2,,,,,,,,,0,,,55,30
33520,note_on,0,0,2,,,,,,,,,0,,,33,40
33520,note_on,0,0,2,,,,,,,,,0,,,52,30
33520,note_on,0,0,2,,,,,,,,,0,,,55,0
33520,note_on,40,0,2,,,,,,,,,0,,,31,0
33560,note_on,0,0,2,,,,,,,,,0,,,35,40
33560,note_on,0,0,2,,,,,,,,,0,,,47,30
33560,note_on,0,0,2,,,,,,,,,0,,,52,0
33560,note_on,40,0,2,,,,,,,,,0,,,33,0
33585,control_change,465,0,3,,,,,,,,,0,64,0,,
33600,note_on,0,0,2,,,,,,,,,0,,,35,40
33600,note_on,480,0,1,,,,,,,,,0,,,59,0
33600,note_on,0,0,1,,,,,,,,,0,,,59,40
33600,control_change,15,0,3,,,,,,,,,0,64,127,,
33600,note_on,40,0,2,,,,,,,,,0,,,35,0
33600,note_on,0,0,2,,,,,,,,,0,,,47,0
33640,note_on,40,0,2,,,,,,,,,0,,,47,36
33680,note_on,0,0,2,,,,,,,,,0,,,51,43
33680,note_on,40,0,2,,,,,,,,,0,,,47,0
33720,note_on,40,0,2,,,,,,,,,0,,,51,0
33720,note_on,0,0,2,,,,,,,,,0,,,54,49
33760,note_on,0,0,2,,,,,,,,,0,,,51,56
33760,note_on,40,0,2,,,,,,,,,0,,,54,0
33800,note_on,0,0,2,,,,,,,,,0,,,47,63
33800,note_on,40,0,2,,,,,,,,,0,,,51,0
33840,note_on,40,0,2,,,,,,,,,0,,,47,0
33840,note_on,0,0,2,,,,,,,,,0,,,51,69
33880,note_on,40,0,2,,,,,,,,,0,,,51,0
33880,note_on,0,0,2,,,,,,,,,0,,,47,76
33920,note_on,0,0,2,,,,,,,,,0,,,51,83
33920,note_on,40,0,2,,,,,,,,,0,,,47,0
33960,note_on,0,0,2,,,,,,,,,0,,,35,0
33960,note_on,0,0,2,,,,,,,,,0,,,37,99
33960,note_on,40,0,2,,,,,,,,,0,,,51,0
33960,note_on,0,0,2,,,,,,,,,0,,,54,89
33990,note_on,0,0,2,,,,,,,,,0,,,39,104
33990,note_on,30,0,2,,,,,,,,,0,,,37,0
34000,note_on,0,0,2,,,,,,,,,0,,,51,96
34000,note_on,10,0,2,,,,,,,,,0,,,54,0
34020,note_on,20,0,2,,,,,,,,,0,,,39,0
34020,note_on,0,0,2,,,,,,,,,0,,,40,109
34040,note_on,20,0,2,,,,,,,,,0,,,51,0
34040,note_on,0,0,2,,,,,,,,,0,,,47,100
34050,note_on,10,0,2,,,,,,,,,0,,,40,0
34050,note_on,0,0,2,,,,,,,,,0,,,42,110
34065,control_change,465,0,3,,,,,,,,,0,64,0,,
34080,note_on,0,0,2,,,,,,,,,0,,,47,0
34080,note_on,0,0,2,,,,,,,,,0,,,43,110
34080,control_change,15,0,3,,,,,,,,,0,64,127,,
34080,note_on,30,0,2,,,,,,,,,0,,,42,0
34080,note_on,0,0,1,,,,,,,,,0,,,59,110
34080,note_on,480,0,1,,,,,,,,,0,,,59,0
34120,note_on,40,0,2,,,,,,,,,0,,,47,93
34160,note_on,40,0,2,,,,,,,,,0,,,47,0
34160,note_on,0,0,2,,,,,,,,,0,,,50,85
34200,note_on,40,0,2,,,,,,,,,0,,,50,0
34200,note_on,0,0,2,,,,,,,,,0,,,53,77
34240,note_on,0,0,2,,,,,,,,,0,,,50,69
34240,note_on,40,0,2,,,,,,,,,0,,,53,0
34280,note_on,40,0,2,,,,,,,,,0,,,50,0
34280,note_on,0,0,2,,,,,,,,,0,,,47,61
34305,control_change,225,0,3,,,,,,,,,0,64,0,,
34320,note_on,0,0,2,,,,,,,,,0,,,42,70
34320,note_on,0,0,2,,,,,,,,,0,,,43,0
34320,control_change,15,0,3,,,,,,,,,0,64,127,,
34320,set_tempo,1680,1,0,,,,,,500000,,,,,,,
34320,note_on,240,0,1,,,,,,,,,0,,,59,0
34320,note_on,40,0,2,,,,,,,,,0,,,47,0
34320,note_on,0,0,1,,,,,,,,,0,,,58,70
34360,note_on,40,0,2,,,,,,,,,0,,,49,60
34400,note_on,40,0,2,,,,,,,,,0,,,49,0
34400,note_on,0,0,2,,,,,,,,,0,,,52,60
34440,note_on,40,0,2,,,,,,,,,0,,,52,0
34440,note_on,0,0,2,,,,,,,,,0,,,54,60
34480,note_on,40,0,2,,,,,,,,,0,,,54,0
34480,note_on,0,0,2,,,,,,,,,0,,,52,60
34520,note_on,40,0,2,,,,,,,,,0,,,52,0
34520,note_on,0,0,2,,,,,,,,,0,,,49,60
34545,control_change,225,0,3,,,,,,,,,0,64,0,,
34560,note_on,40,0,2,,,,,,,,,0,,,49,0
34560,note_on,240,0,1,,,,,,,,,0,,,58,0
34560,note_on,0,0,1,,,,,,,,,0,,,59,50
34560,set_tempo,240,1,0,,,,,,454545,,,,,,,
34560,note_on,0,0,2,,,,,,,,,0,,,42,0
34560,note_on,0,0,2,,,,,,,,,0,,,35,50
34560,control_change,15,0,3,,,,,,,,,0,64,127,,
34600,note_on,40,0,2,,,,,,,,,0,,,47,40
34640,note_on,0,0,2,,,,,,,,,0,,,51,40
34640,note_on,40,0,2,,,,,,,,,0,,,47,0
34680,note_on,0,0,2,,,,,,,,,0,,,54,40
34680,note_on,40,0,2,,,,,,,,,0,,,51,0
34720,note_on,0,0,2,,,,,,,,,0,,,51,40
34720,note_on,40,0,2,,,,,,,,,0,,,54,0
34760,note_on,0,0,2,,,,,,,,,0,,,47,40
34760,note_on,40,0,2,,,,,,,,,0,,,51,0
34800,note_on,40,0,2,,,,,,,,,0,,,47,0
34800,note_on,0,0,2,,,,,,,,,0,,,51,40
34840,note_on,40,0,2,,,,,,,,,0,,,51,0
34840,note_on,0,0,2,,,,,,,,,0,,,47,40
34880,note_on,40,0,2,,,,,,,,,0,,,47,0
34880,note_on,0,0,2,,,,,,,,,0,,,51,40
34920,note_on,40,0,2,,,,,,,,,0,,,51,0
34920,note_on,0,0,2,,,,,,,,,0,,,54,40
34960,note_on,0,0,2,,,,,,,,,0,,,51,40
34960,note_on,40,0,2,,,,,,,,,0,,,54,0
35000,note_on,0,0,2,,,,,,,,,0,,,47,40
35000,note_on,40,0,2,,,,,,,,,0,,,51,0
35025,control_change,465,0,3,,,,,,,,,0,64,0,,
35040,note_on,480,0,1,,,,,,,,,0,,,59,0
35040,control_change,15,0,3,,,,,,,,,0,64,127,,
35040,note_on,0,0,1,,,,,,,,,0,,,59,50
35040,note_on,0,0,2,,,,,,,,,0,,,35,0
35040,note_on,40,0,2,,,,,,,,,0,,,47,0
35040,note_on,0,0,2,,,,,,,,,0,,,32,50
35080,note_on,40,0,2,,,,,,,,,0,,,47,40
35120,note_on,40,0,2,,,,,,,,,0,,,47,0
35120,note_on,0,0,2,,,,,,,,,0,,,52,40
35160,note_on,40,0,2,,,,,,,,,0,,,52,0
35160,note_on,0,0,2,,,,,,,,,0,,,56,40
35200,note_on,0,0,2,,,,,,,,,0,,,52,40
35200,note_on,40,0,2,,,,,,,,,0,,,56,0
35240,note_on,0,0,2,,,,,,,,,0,,,47,40
35240,note_on,40,0,2,,,,,,,,,0,,,52,0
35280,note_on,40,0,2,,,,,,,,,0,,,47,0
35280,note_on,0,0,2,,,,,,,,,0,,,52,40
35320,note_on,40,0,2,,,,,,,,,0,,,52,0
35320,note_on,0,0,2,,,,,,,,,0,,,47,40
35360,note_on,0,0,2,,,,,,,,,0,,,52,40
35360,note_on,40,0,2,,,,,,,,,0,,,47,0
35400,note_on,0,0,2,,,,,,,,,0,,,32,50
35400,note_on,0,0,2,,,,,,,,,0,,,56,40
35400,note_on,40,0,2,,,,,,,,,0,,,52,0
35400,note_on,0,0,2,,,,,,,,,0,,,32,0
35440,note_on,0,0,2,,,,,,,,,0,,,52,40
35440,note_on,40,0,2,,,,,,,,,0,,,32,0
35440,note_on,0,0,2,,,,,,,,,0,,,56,0
35440,note_on,0,0,2,,,,,,,,,0,,,34,50
35480,note_on,0,0,2,,,,,,,,,0,,,35,50
35480,note_on,0,0,2,,,,,,,,,0,,,47,40
35480,note_on,40,0,2,,,,,,,,,0,,,34,0
35480,note_on,0,0,2,,,,,,,,,0,,,52,0
35505,control_change,465,0,3,,,,,,,,,0,64,0,,
35520,note_on,0,0,2,,,,,,,,,0,,,35,50
35520,note_on,480,0,1,,,,,,,,,0,,,59,0
35520,note_on,40,0,2,,,,,,,,,0,,,35,0
35520,note_on,0,0,1,,,,,,,,,0,,,59,50
35520,note_on,0,0,2,,,,,,,,,0,,,47,0
35520,control_change,15,0,3,,,,,,,,,0,64,127,,
35560,note_on,40,0,2,,,,,,,,,0,,,47,45
35600,note_on,40,0,2,,,,,,,,,0,,,47,0
35600,note_on,0,0,2,,,,,,,,,0,,,51,51
35640,note_on,40,0,2,,,,,,,,,0,,,51,0
35640,note_on,0,0,2,,,,,,,,,0,,,54,57
35680,note_on,40,0,2,,,,,,,,,0,,,54,0
35680,note_on,0,0,2,,,,,,,,,0,,,51,62
35720,note_on,40,0,2,,,,,,,,,0,,,51,0
35720,note_on,0,0,2,,,,,,,,,0,,,47,68
35760,note_on,0,0,2,,,,,,,,,0,,,51,74
35760,note_on,40,0,2,,,,,,,,,0,,,47,0
35800,note_on,0,0,2,,,,,,,,,0,,,47,79
35800,note_on,40,0,2,,,,,,,,,0,,,51,0
35840,note_on,40,0,2,,,,,,,,,0,,,47,0
35840,note_on,0,0,2,,,,,,,,,0,,,51,85
35880,note_on,40,0,2,,,,,,,,,0,,,51,0
35880,note_on,0,0,2,,,,,,,,,0,,,35,0
35880,note_on,0,0,2,,,,,,,,,0,,,54,91
35880,note_on,0,0,2,,,,,,,,,0,,,37,101
35910,note_on,0,0,2,,,,,,,,,0,,,39,105
35910,note_on,30,0,2,,,,,,,,,0,,,37,0
35920,note_on,0,0,2,,,,,,,,,0,,,51,97
35920,note_on,10,0,2,,,,,,,,,0,,,54,0
35940,note_on,0,0,2,,,,,,,,,0,,,40,109
35940,note_on,20,0,2,,,,,,,,,0,,,39,0
35960,note_on,0,0,2,,,,,,,,,0,,,47,100
35960,note_on,20,0,2,,,,,,,,,0,,,51,0
35970,note_on,0,0,2,,,,,,,,,0,,,42,110
35970,note_on,10,0,2,,,,,,,,,0,,,40,0
35985,control_change,465,0,3,,,,,,,,,0,64,0,,
36000,control_change,15,0,3,,,,,,,,,0,64,127,,
36000,note_on,0,0,1,,,,,,,,,0,,,59,110
36000,note_on,30,0,2,,,,,,,,,0,,,42,0
36000,note_on,0,0,2,,,,,,,,,0,,,47,0
36000,note_on,0,0,2,,,,,,,,,0,,,44,110
36000,note_on,480,0,1,,,,,,,,,0,,,59,0
36040,note_on,40,0,2,,,,,,,,,0,,,47,95
36080,note_on,40,0,2,,,,,,,,,0,,,47,0
36080,note_on,0,0,2,,,,,,,,,0,,,50,89
36120,note_on,40,0,2,,,,,,,,,0,,,50,0
36120,note_on,0,0,2,,,,,,,,,0,,,53,83
36160,note_on,40,0,2,,,,,,,,,0,,,53,0
36160,note_on,0,0,2,,,,,,,,,0,,,50,78
36200,note_on,40,0,2,,,,,,,,,0,,,50,0
36200,note_on,0,0,2,,,,,,,,,0,,,47,72
36225,control_change,225,0,3,,,,,,,,,0,64,0,,
36240,control_change,15,0,3,,,,,,,,,0,64,127,,
36240,note_on,0,0,1,,,,,,,,,0,,,58,76
36240,set_tempo,1680,1,0,,,,,,500000,,,,,,,
36240,note_on,0,0,2,,,,,,,,,0,,,44,0
36240,note_on,0,0,2,,,,,,,,,0,,,42,76
36240,note_on,240,0,1,,,,,,,,,0,,,59,0
36240,note_on,40,0,2,,,,,,,,,0,,,47,0
36280,note_on,40,0,2,,,,,,,,,0,,,49,61
36320,note_on,0,0,2,,,,,,,,,0,,,52,55
36320,note_on,40,0,2,,,,,,,,,0,,,49,0
36360,note_on,0,0,2,,,,,,,,,0,,,54,49
36360,note_on,40,0,2,,,,,,,,,0,,,52,0
36400,note_on,40,0,2,,,,,,,,,0,,,54,0
36400,note_on,0,0,2,,,,,,,,,0,,,52,43
36440,note_on,40,0,2,,,,,,,,,0,,,52,0
36440,note_on,0,0,2,,,,,,,,,0,,,49,40
36465,control_change,225,0,3,,,,,,,,,0,64,0,,
36480,set_tempo,240,1,0,,,,,,454545,,,,,,,
36480,note_on,0,0,1,,,,,,,,,0,,,59,50
36480,note_on,240,0,1,,,,,,,,,0,,,58,0
36480,control_change,15,0,3,,,,,,,,,0,64,127,,
36480,note_on,0,0,2,,,,,,,,,0,,,35,50
36480,note_on,0,0,2,,,,,,,,,0,,,42,0
36480,note_on,40,0,2,,,,,,,,,0,,,49,0
36520,note_on,40,0,2,,,,,,,,,0,,,47,40
36560,note_on,0,0,2,,,,,,,,,0,,,51,40
36560,note_on,40,0,2,,,,,,,,,0,,,47,0
36600,note_on,0,0,2,,,,,,,,,0,,,54,40
36600,note_on,40,0,2,,,,,,,,,0,,,51,0
36640,note_on,0,0,2,,,,,,,,,0,,,51,40
36640,note_on,40,0,2,,,,,,,,,0,,,54,0
36680,note_on,0,0,2,,,,,,,,,0,,,47,40
36680,note_on,40,0,2,,,,,,,,,0,,,51,0
36720,note_on,40,0,2,,,,,,,,,0,,,47,0
36720,note_on,0,0,2,,,,,,,,,0,,,51,40
36760,note_on,0,0,2,,,,,,,,,0,,,47,40
36760,note_on,40,0,2,,,,,,,,,0,,,51,0
36800,note_on,0,0,2,,,,,,,,,0,,,51,40
36800,note_on,40,0,2,,,,,,,,,0,,,47,0
36840,note_on,40,0,2,,,,,,,,,0,,,51,0
36840,note_on,0,0,2,,,,,,,,,0,,,54,40
36880,note_on,0,0,2,,,,,,,,,0,,,51,40
36880,note_on,40,0,2,,,,,,,,,0,,,54,0
36920,note_on,40,0,2,,,,,,,,,0,,,51,0
36920,note_on,0,0,2,,,,,,,,,0,,,47,40
36945,control_change,465,0,3,,,,,,,,,0,64,0,,
36960,control_change,15,0,3,,,,,,,,,0,64,127,,
36960,note_on,480,0,1,,,,,,,,,0,,,59,0
36960,note_on,0,0,1,,,,,,,,,0,,,59,50
36960,note_on,40,0,2,,,,,,,,,0,,,47,0
37000,note_on,40,0,2,,,,,,,,,0,,,51,45
37040,note_on,40,0,2,,,,,,,,,0,,,51,0
37040,note_on,0,0,2,,,,,,,,,0,,,54,51
37080,note_on,40,0,2,,,,,,,,,0,,,54,0
37080,note_on,0,0,1,,,,,,,,,0,,,63,67
37080,note_on,120,0,1,,,,,,,,,0,,,59,0
37120,note_on,40,0,2,,,,,,,,,0,,,54,62
37160,note_on,40,0,2,,,,,,,,,0,,,54,0
37160,note_on,0,0,2,,,,,,,,,0,,,59,68
37185,control_change,225,0,3,,,,,,,,,0,64,0,,
37200,note_on,120,0,1,,,,,,,,,0,,,63,0
37200,note_on,0,0,1,,,,,,,,,0,,,66,84
37200,note_on,40,0,2,,,,,,,,,0,,,59,0
37200,control_change,15,0,3,,,,,,,,,0,64,127,,
37240,note_on,40,0,1,,,,,,,,,0,,,59,79
37280,note_on,40,0,1,,,,,,,,,0,,,59,0
37280,note_on,0,0,1,,,,,,,,,0,,,63,85
37320,note_on,40,0,1,,,,,,,,,0,,,63,0
37320,note_on,0,0,1,,,,,,,,,0,,,66,0
37320,note_on,0,0,1,,,,,,,,,0,,,71,101
37360,note_on,40,0,1,,,,,,,,,0,,,63,97
37400,note_on,40,0,1,,,,,,,,,0,,,63,0
37400,note_on,0,0,1,,,,,,,,,0,,,66,100
37425,control_change,225,0,3,,,,,,,,,0,64,0,,
37440,note_on,0,0,1,,,,,,,,,0,,,71,110
37440,note_on,40,0,1,,,,,,,,,0,,,66,0
37440,control_change,15,0,3,,,,,,,,,0,64,127,,
37440,note_on,0,0,1,,,,,,,,,0,,,71,0
37440,note_on,240,0,2,,,,,,,,,0,,,35,0
37440,note_on,0,0,2,,,,,,,,,0,,,44,110
37480,note_on,40,0,1,,,,,,,,,0,,,59,100
37520,note_on,40,0,1,,,,,,,,,0,,,59,0
37520,note_on,0,0,1,,,,,,,,,0,,,62,100
37560,note_on,40,0,1,,,,,,,,,0,,,62,0
37560,note_on,0,0,1,,,,,,,,,0,,,65,100
37600,note_on,40,0,1,,,,,,,,,0,,,65,0
37600,note_on,0,0,1,,,,,,,,,0,,,62,100
37640,note_on,40,0,1,,,,,,,,,0,,,62,0
37640,note_on,0,0,1,,,,,,,,,0,,,59,100
37680,note_on,40,0,1,,,,,,,,,0,,,59,0
37680,note_on,0,0,1,,,,,,,,,0,,,62,100
37720,note_on,40,0,1,,,,,,,,,0,,,62,0
37720,note_on,0,0,1,,,,,,,,,0,,,59,100
37760,note_on,40,0,1,,,,,,,,,0,,,59,0
37760,note_on,0,0,1,,,,,,,,,0,,,62,100
37800,note_on,360,0,2,,,,,,,,,0,,,44,0
37800,note_on,0,0,2,,,,,,,,,0,,,44,110
37800,note_on,0,0,1,,,,,,,,,0,,,65,100
37800,note_on,40,0,1,,,,,,,,,0,,,62,0
37840,note_on,0,0,2,,,,,,,,,0,,,46,110
37840,note_on,40,0,2,,,,,,,,,0,,,44,0
37840,note_on,0,0,1,,,,,,,,,0,,,62,100
37840,note_on,40,0,1,,,,,,,,,0,,,65,0
37880,note_on,0,0,2,,,,,,,,,0,,,47,110
37880,note_on,40,0,2,,,,,,,,,0,,,46,0
37880,note_on,0,0,1,,,,,,,,,0,,,59,100
37880,note_on,40,0,1,,,,,,,,,0,,,62,0
37905,control_change,465,0,3,,,,,,,,,0,64,0,,
37920,control_change,15,0,3,,,,,,,,,0,64,127,,
37920,note_on,0,0,1,,,,,,,,,0,,,70,110
37920,note_on,0,0,1,,,,,,,,,0,,,71,0
37920,note_on,40,0,2,,,,,,,,,0,,,47,0
37920,note_on,0,0,2,,,,,,,,,0,,,47,110
37920,note_on,40,0,1,,,,,,,,,0,,,59,0
37960,note_on,40,0,1,,,,,,,,,0,,,56,100
38000,note_on,40,0,1,,,,,,,,,0,,,56,0
38000,note_on,0,0,1,,,,,,,,,0,,,62,100
38040,note_on,40,0,1,,,,,,,,,0,,,62,0
38040,note_on,0,0,1,,,,,,,,,0,,,68,110
38040,note_on,0,0,1,,,,,,,,,0,,,65,100
38040,note_on,0,0,1,,,,,,,,,0,,,70,0
38080,note_on,40,0,1,,,,,,,,,0,,,65,0
38080,note_on,0,0,1,,,,,,,,,0,,,62,100
38120,note_on,40,0,1,,,,,,,,,0,,,62,0
38120,note_on,0,0,1,,,,,,,,,0,,,56,100
38160,note_on,0,0,1,,,,,,,,,0,,,62,100
38160,note_on,40,0,1,,,,,,,,,0,,,56,0
38200,note_on,40,0,1,,,,,,,,,0,,,62,0
38200,note_on,0,0,1,,,,,,,,,0,,,56,100
38240,note_on,40,0,1,,,,,,,,,0,,,56,0
38240,note_on,0,0,1,,,,,,,,,0,,,62,100
38280,note_on,0,0,2,,,,,,,,,0,,,47,110
38280,note_on,360,0,2,,,,,,,,,0,,,47,0
38280,note_on,40,0,1,,,,,,,,,0,,,62,0
38280,note_on,0,0,1,,,,,,,,,0,,,65,100
38320,note_on,0,0,1,,,,,,,,,0,,,62,100
38320,note_on,0,0,2,,,,,,,,,0,,,49,110
38320,note_on,40,0,2,,,,,,,,,0,,,47,0
38320,note_on,40,0,1,,,,,,,,,0,,,65,0
38360,note_on,0,0,1,,,,,,,,,0,,,56,100
38360,note_on,40,0,1,,,,,,,,,0,,,62,0
38360,note_on,40,0,2,,,,,,,,,0,,,49,0
38360,note_on,0,0,2,,,,,,,,,0,,,50,110
38385,control_change,465,0,3,,,,,,,,,0,64,0,,
38400,note_on,0,0,1,,,,,,,,,0,,,68,0
38400,note_on,40,0,1,,,,,,,,,0,,,56,0
38400,note_on,0,0,1,,,,,,,,,0,,,66,110
38400,note_on,0,0,2,,,,,,,,,0,,,50,110
38400,note_on,40,0,2,,,,,,,,,0,,,50,0
38400,control_change,15,0,3,,,,,,,,,0,64,127,,
38440,note_on,40,0,1,,,,,,,,,0,,,56,100
38480,note_on,0,0,1,,,,,,,,,0,,,58,100
38480,note_on,40,0,1,,,,,,,,,0,,,56,0
38520,note_on,0,0,1,,,,,,,,,0,,,65,110
38520,note_on,0,0,1,,,,,,,,,0,,,59,100
38520,note_on,0,0,1,,,,,,,,,0,,,66,0
38520,note_on,40,0,1,,,,,,,,,0,,,58,0
38560,note_on,40,0,1,,,,,,,,,0,,,59,0
38560,note_on,0,0,1,,,,,,,,,0,,,58,100
38600,note_on,0,0,1,,,,,,,,,0,,,56,100
38600,note_on,40,0,1,,,,,,,,,0,,,58,0
38640,note_on,40,0,1,,,,,,,,,0,,,56,0
38640,note_on,0,0,1,,,,,,,,,0,,,58,100
38680,note_on,40,0,1,,,,,,,,,0,,,58,0
38680,note_on,0,0,1,,,,,,,,,0,,,56,100
38720,note_on,0,0,1,,,,,,,,,0,,,58,100
38720,note_on,40,0,1,,,,,,,,,0,,,56,0
38760,note_on,0,0,2,,,,,,,,,0,,,50,110
38760,note_on,40,0,1,,,,,,,,,0,,,58,0
38760,note_on,360,0,2,,,,,,,,,0,,,50,0
38760,note_on,0,0,1,,,,,,,,,0,,,59,100
38800,note_on,40,0,1,,,,,,,,,0,,,59,0
38800,note_on,0,0,1,,,,,,,,,0,,,58,100
38800,note_on,40,0,2,,,,,,,,,0,,,50,0
38800,note_on,0,0,2,,,,,,,,,0,,,51,110
38840,note_on,40,0,1,,,,,,,,,0,,,58,0
38840,note_on,0,0,1,,,,,,,,,0,,,56,100
38840,note_on,0,0,2,,,,,,,,,0,,,53,110
38840,note_on,40,0,2,,,,,,,,,0,,,51,0
38865,control_change,465,0,3,,,,,,,,,0,64,0,,
38880,note_on,0,0,2,,,,,,,,,0,,,53,110
38880,note_on,0,0,1,,,,,,,,,0,,,63,110
38880,note_on,0,0,1,,,,,,,,,0,,,65,0
38880,note_on,40,0,1,,,,,,,,,0,,,56,0
38880,note_on,40,0,2,,,,,,,,,0,,,53,0
38880,control_change,15,0,3,,,,,,,,,0,64,127,,
38920,note_on,40,0,1,,,,,,,,,0,,,56,100
38960,note_on,0,0,1,,,,,,,,,0,,,58,100
38960,note_on,40,0,1,,,,,,,,,0,,,56,0
39000,note_on,0,0,1,,,,,,,,,0,,,62,110
39000,note_on,0,0,1,,,,,,,,,0,,,59,100
39000,note_on,0,0,1,,,,,,,,,0,,,63,0
39000,note_on,40,0,1,,,,,,,,,0,,,58,0
39040,note_on,40,0,1,,,,,,,,,0,,,59,0
39040,note_on,0,0,1,,,,,,,,,0,,,58,100
39080,note_on,40,0,1,,,,,,,,,0,,,58,0
39080,note_on,0,0,1,,,,,,,,,0,,,56,100
39120,note_on,40,0,1,,,,,,,,,0,,,56,0
39120,note_on,0,0,1,,,,,,,,,0,,,58,100
39160,note_on,0,0,1,,,,,,,,,0,,,56,100
39160,note_on,40,0,1,,,,,,,,,0,,,58,0
39200,note_on,40,0,1,,,,,,,,,0,,,56,0
39200,note_on,0,0,1,,,,,,,,,0,,,58,100
39240,note_on,40,0,1,,,,,,,,,0,,,58,0
39240,note_on,360,0,2,,,,,,,,,0,,,53,0
39240,note_on,0,0,2,,,,,,,,,0,,,41,110
39240,note_on,0,0,1,,,,,,,,,0,,,59,100
39280,note_on,40,0,1,,,,,,,,,0,,,59,0
39280,note_on,0,0,1,,,,,,,,,0,,,58,100
39320,note_on,0,0,1,,,,,,,,,0,,,56,100
39320,note_on,40,0,1,,,,,,,,,0,,,58,0
39345,control_change,465,0,3,,,,,,,,,0,64,0,,
39360,control_change,15,0,3,,,,,,,,,0,64,127,,
39360,note_on,0,0,1,,,,,,,,,0,,,62,0
39360,note_on,0,0,1,,,,,,,,,0,,,65,70
39360,note_on,40,0,1,,,,,,,,,0,,,56,0
39360,note_on,120,0,2,,,,,,,,,0,,,41,0
39360,note_on,0,0,2,,,,,,,,,0,,,42,70
39400,note_on,40,0,1,,,,,,,,,0,,,54,60
39440,note_on,0,0,1,,,,,,,,,0,,,58,60
39440,note_on,40,0,1,,,,,,,,,0,,,54,0
39465,control_change,105,0,3,,,,,,,,,0,64,0,,
39480,note_on,0,0,1,,,,,,,,,0,,,63,70
39480,note_on,0,0,1,,,,,,,,,0,,,65,0
39480,control_change,15,0,3,,,,,,,,,0,64,127,,
39480,note_on,40,0,1,,,,,,,,,0,,,58,0
39520,note_on,40,0,1,,,,,,,,,0,,,54,60
39560,note_on,40,0,1,,,,,,,,,0,,,54,0
39560,note_on,0,0,1,,,,,,,,,0,,,58,60
39585,control_change,105,0,3,,,,,,,,,0,64,0,,
39600,note_on,40,0,1,,,,,,,,,0,,,58,0
39600,note_on,0,0,1,,,,,,,,,0,,,66,70
39600,note_on,0,0,1,,,,,,,,,0,,,63,0
39600,note_on,240,0,2,,,,,,,,,0,,,42,0
39600,note_on,0,0,2,,,,,,,,,0,,,38,70
39600,control_change,15,0,3,,,,,,,,,0,64,127,,
39640,note_on,40,0,1,,,,,,,,,0,,,56,60
39680,note_on,40,0,1,,,,,,,,,0,,,56,0
39680,note_on,0,0,1,,,,,,,,,0,,,59,60
39705,control_change,105,0,3,,,,,,,,,0,64,0,,
39720,control_change,15,0,3,,,,,,,,,0,64,127,,
39720,note_on,40,0,1,,,,,,,,,0,,,59,0
39720,note_on,0,0,1,,,,,,,,,0,,,66,0
39720,note_on,0,0,1,,,,,,,,,0,,,65,70
39760,note_on,40,0,1,,,,,,,,,0,,,56,60
39800,note_on,0,0,1,,,,,,,,,0,,,59,60
39800,note_on,40,0,1,,,,,,,,,0,,,56,0
39825,control_change,105,0,3,,,,,,,,,0,64,0,,
39840,note_on,0,0,2,,,,,,,,,0,,,39,70
39840,note_on,40,0,1,,,,,,,,,0,,,59,0
39840,note_on,0,0,1,,,,,,,,,0,,,65,0
39840,note_on,0,0,1,,,,,,,,,0,,,68,70
39840,control_change,15,0,3,,,,,,,,,0,64,127,,
39840,note_on,240,0,2,,,,,,,,,0,,,38,0
39880,note_on,40,0,1,,,,,,,,,0,,,58,60
39920,note_on,40,0,1,,,,,,,,,0,,,58,0
39920,note_on,0,0,1,,,,,,,,,0,,,63,60
39945,control_change,105,0,3,,,,,,,,,0,64,0,,
39960,note_on,0,0,1,,,,,,,,,0,,,68,0
39960,note_on,0,0,1,,,,,,,,,0,,,66,70
39960,note_on,40,0,1,,,,,,,,,0,,,63,0
39960,control_change,15,0,3,,,,,,,,,0,64,127,,
40000,note_on,40,0,1,,,,,,,,,0,,,58,60
40040,note_on,40,0,1,,,,,,,,,0,,,58,0
40040,note_on,0,0,1,,,,,,,,,0,,,63,60
40065,control_change,105,0,3,,,,,,,,,0,64,0,,
40080,note_on,0,0,1,,,,,,,,,0,,,65,70
40080,note_on,0,0,1,,,,,,,,,0,,,66,0
40080,note_on,40,0,1,,,,,,,,,0,,,63,0
40080,note_on,0,0,2,,,,,,,,,0,,,32,70
40080,note_on,240,0,2,,,,,,,,,0,,,39,0
40080,control_change,15,0,3,,,,,,,,,0,64,127,,
40120,note_on,40,0,1,,,,,,,,,0,,,56,60
40160,note_on,40,0,1,,,,,,,,,0,,,56,0
40160,note_on,0,0,1,,,,,,,,,0,,,59,60
40185,control_change,105,0,3,,,,,,,,,0,64,0,,
40200,control_change,15,0,3,,,,,,,,,0,64,127,,
40200,note_on,40,0,1,,,,,,,,,0,,,59,0
40200,note_on,0,0,1,,,,,,,,,0,,,65,0
40200,note_on,0,0,1,,,,,,,,,0,,,68,70
40240,note_on,40,0,1,,,,,,,,,0,,,56,60
40280,note_on,40,0,1,,,,,,,,,0,,,56,0
40280,note_on,0,0,1,,,,,,,,,0,,,59,60
40305,control_change,105,0,3,,,,,,,,,0,64,0,,
40320,note_on,0,0,1,,,,,,,,,0,,,63,70
40320,control_change,15,0,3,,,,,,,,,0,64,127,,
40320,note_on,240,0,2,,,,,,,,,0,,,32,0
40320,note_on,0,0,2,,,,,,,,,0,,,34,70
40320,note_on,0,0,1,,,,,,,,,0,,,68,0
40320,note_on,40,0,1,,,,,,,,,0,,,59,0
40360,note_on,40,0,2,,,,,,,,,0,,,51,61
40400,note_on,40,0,2,,,,,,,,,0,,,51,0
40400,note_on,0,0,2,,,,,,,,,0,,,54,63
40440,note_on,40,0,2,,,,,,,,,0,,,54,0
40440,note_on,0,0,2,,,,,,,,,0,,,58,65
40480,note_on,40,0,2,,,,,,,,,0,,,58,0
40480,note_on,0,0,2,,,,,,,,,0,,,54,66
40520,note_on,0,0,2,,,,,,,,,0,,,51,68
40520,note_on,40,0,2,,,,,,,,,0,,,54,0
40560,note_on,0,0,2,,,,,,,,,0,,,54,70
40560,note_on,40,0,2,,,,,,,,,0,,,51,0
40600,note_on,40,0,2,,,,,,,,,0,,,54,0
40600,note_on,0,0,2,,,,,,,,,0,,,34,0
40600,note_on,0,0,2,,,,,,,,,0,,,51,72
40600,note_on,0,0,2,,,,,,,,,0,,,33,82
40640,note_on,0,0,2,,,,,,,,,0,,,54,73
40640,note_on,0,0,2,,,,,,,,,0,,,51,0
40640,note_on,40,0,2,,,,,,,,,0,,,33,0
40640,note_on,0,0,2,,,,,,,,,0,,,34,83
40680,note_on,40,0,2,,,,,,,,,0,,,34,0
40680,note_on,0,0,2,,,,,,,,,0,,,54,0
40680,note_on,0,0,2,,,,,,,,,0,,,58,75
40680,note_on,0,0,2,,,,,,,,,0,,,35,85
40720,note_on,0,0,2,,,,,,,,,0,,,54,77
40720,note_on,0,0,2,,,,,,,,,0,,,34,87
40720,note_on,0,0,2,,,,,,,,,0,,,58,0
40720,note_on,40,0,2,,,,,,,,,0,,,35,0
40760,note_on,40,0,2,,,,,,,,,0,,,34,0
40760,note_on,0,0,2,,,,,,,,,0,,,54,0
40760,note_on,0,0,2,,,,,,,,,0,,,51,79
40760,note_on,0,0,2,,,,,,,,,0,,,33,89
40785,control_change,465,0,3,,,,,,,,,0,64,0,,
40800,note_on,0,0,1,,,,,,,,,0,,,62,90
40800,note_on,480,0,1,,,,,,,,,0,,,63,0
40800,control_change,15,0,3,,,,,,,,,0,64,127,,
40800,note_on,0,0,2,,,,,,,,,0,,,34,90
40800,note_on,0,0,2,,,,,,,,,0,,,51,0
40800,note_on,40,0,2,,,,,,,,,0,,,33,0
40840,note_on,40,0,2,,,,,,,,,0,,,50,82
40880,note_on,0,0,2,,,,,,,,,0,,,53,84
40880,note_on,40,0,2,,,,,,,,,0,,,50,0
40920,note_on,40,0,2,,,,,,,,,0,,,53,0
40920,note_on,0,0,2,,,,,,,,,0,,,58,86
40960,note_on,40,0,2,,,,,,,,,0,,,58,0
40960,note_on,0,0,2,,,,,,,,,0,,,53,87
41000,note_on,40,0,2,,,,,,,,,0,,,53,0
41000,note_on,0,0,2,,,,,,,,,0,,,50,89
41025,control_change,225,0,3,,,,,,,,,0,64,0,,
41040,note_on,240,0,1,,,,,,,,,0,,,62,0
41040,note_on,0,0,1,,,,,,,,,0,,,65,101
41040,note_on,40,0,2,,,,,,,,,0,,,50,0
41040,control_change,15,0,3,,,,,,,,,0,64,127,,
41080,note_on,40,0,1,,,,,,,,,0,,,58,93
41120,note_on,0,0,1,,,,,,,,,0,,,62,94
41120,note_on,40,0,1,,,,,,,,,0,,,58,0
41160,note_on,40,0,1,,,,,,,,,0,,,62,0
41160,note_on,0,0,1,,,,,,,,,0,,,70,106
41160,note_on,0,0,1,,,,,,,,,0,,,65,0
41160,note_on,0,0,2,,,,,,,,,0,,,46,106
41160,note_on,0,0,2,,,,,,,,,0,,,34,106
41160,note_on,120,0,2,,,,,,,,,0,,,34,0
41200,note_on,40,0,1,,,,,,,,,0,,,62,98
41240,note_on,40,0,1,,,,,,,,,0,,,62,0
41240,note_on,0,0,1,,,,,,,,,0,,,65,99
41265,control_change,225,0,3,,,,,,,,,0,64,0,,
41280,note_on,0,0,1,,,,,,,,,0,,,71,110
41280,note_on,0,0,1,,,,,,,,,0,,,70,0
41280,note_on,40,0,1,,,,,,,,,0,,,65,0
41280,control_change,15,0,3,,,,,,,,,0,64,127,,
41280,note_on,120,0,2,,,,,,,,,0,,,46,0
41280,note_on,0,0,2,,,,,,,,,0,,,34,0
41280,note_on,0,0,2,,,,,,,,,0,,,32,110
41280,note_on,0,0,2,,,,,,,,,0,,,44,110
41320,note_on,40,0,1,,,,,,,,,0,,,59,100
41360,note_on,40,0,1,,,,,,,,,0,,,59,0
41360,note_on,0,0,1,,,,,,,,,0,,,62,100
41400,note_on,40,0,1,,,,,,,,,0,,,62,0
41400,note_on,0,0,1,,,,,,,,,0,,,65,100
41440,note_on,0,0,1,,,,,,,,,0,,,62,100
41440,note_on,40,0,1,,,,,,,,,0,,,65,0
41480,note_on,40,0,1,,,,,,,,,0,,,62,0
41480,note_on,0,0,1,,,,,,,,,0,,,59,100
41520,note_on,0,0,1,,,,,,,,,0,,,62,100
41520,note_on,40,0,1,,,,,,,,,0,,,59,0
41560,note_on,0,0,1,,,,,,,,,0,,,59,100
41560,note_on,40,0,1,,,,,,,,,0,,,62,0
41600,note_on,40,0,1,,,,,,,,,0,,,59,0
41600,note_on,0,0,1,,,,,,,,,0,,,62,100
41640,note_on,360,0,2,,,,,,,,,0,,,44,0
41640,note_on,0,0,2,,,,,,,,,0,,,32,0
41640,note_on,0,0,2,,,,,,,,,0,,,44,110
41640,note_on,40,0,1,,,,,,,,,0,,,62,0
41640,note_on,0,0,1,,,,,,,,,0,,,65,100
41680,note_on,0,0,2,,,,,,,,,0,,,46,110
41680,note_on,40,0,1,,,,,,,,,0,,,65,0
41680,note_on,40,0,2,,,,,,,,,0,,,44,0
41680,note_on,0,0,1,,,,,,,,,0,,,62,100
41720,note_on,0,0,1,,,,,,,,,0,,,59,100
41720,note_on,40,0,1,,,,,,,,,0,,,62,0
41720,note_on,40,0,2,,,,,,,,,0,,,46,0
41720,note_on,0,0,2,,,,,,,,,0,,,47,110
41745,control_change,465,0,3,,,,,,,,,0,64,0,,
41760,note_on,40,0,2,,,,,,,,,0,,,47,0
41760,control_change,15,0,3,,,,,,,,,0,64,127,,
41760,note_on,0,0,2,,,,,,,,,0,,,47,110
41760,note_on,0,0,1,,,,,,,,,0,,,71,0
41760,note_on,40,0,1,,,,,,,,,0,,,59,0
41760,note_on,0,0,2,,,,,,,,,0,,,35,110
41760,note_on,0,0,1,,,,,,,,,0,,,70,110
41800,note_on,40,0,1,,,,,,,,,0,,,56,100
41840,note_on,40,0,1,,,,,,,,,0,,,56,0
41840,note_on,0,0,1,,,,,,,,,0,,,62,100
41880,note_on,40,0,1,,,,,,,,,0,,,62,0
41880,note_on,0,0,1,,,,,,,,,0,,,70,0
41880,note_on,0,0,1,,,,,,,,,0,,,65,100
41880,note_on,0,0,1,,,,,,,,,0,,,68,110
41920,note_on,40,0,1,,,,,,,,,0,,,65,0
41920,note_on,0,0,1,,,,,,,,,0,,,62,100
41960,note_on,0,0,1,,,,,,,,,0,,,56,100
41960,note_on,40,0,1,,,,,,,,,0,,,62,0
42000,note_on,40,0,1,,,,,,,,,0,,,56,0
42000,note_on,0,0,1,,,,,,,,,0,,,62,100
42040,note_on,40,0,1,,,,,,,,,0,,,62,0
42040,note_on,0,0,1,,,,,,,,,0,,,56,100
42080,note_on,40,0,1,,,,,,,,,0,,,56,0
42080,note_on,0,0,1,,,,,,,,,0,,,62,100
42120,note_on,0,0,2,,,,,,,,,0,,,35,0
42120,note_on,40,0,1,,,,,,,,,0,,,62,0
42120,note_on,360,0,2,,,,,,,,,0,,,47,0
42120,note_on,0,0,1,,,,,,,,,0,,,65,100
42120,note_on,0,0,2,,,,,,,,,0,,,47,110
42160,note_on,0,0,1,,,,,,,,,0,,,62,100
42160,note_on,40,0,1,,,,,,,,,0,,,65,0
42160,note_on,0,0,2,,,,,,,,,0,,,49,110
42160,note_on,40,0,2,,,,,,,,,0,,,47,0
42200,note_on,0,0,1,,,,,,,,,0,,,56,100
42200,note_on,40,0,1,,,,,,,,,0,,,62,0
42200,note_on,40,0,2,,,,,,,,,0,,,49,0
42200,note_on,0,0,2,,,,,,,,,0,,,50,110
42225,control_change,465,0,3,,,,,,,,,0,64,0,,
42240,note_on,0,0,1,,,,,,,,,0,,,66,110
42240,note_on,40,0,2,,,,,,,,,0,,,50,0
42240,note_on,0,0,2,,,,,,,,,0,,,38,110
42240,note_on,40,0,1,,,,,,,,,0,,,56,0
42240,note_on,0,0,1,,,,,,,,,0,,,68,0
42240,note_on,0,0,2,,,,,,,,,0,,,50,110
42240,control_change,15,0,3,,,,,,,,,0,64,127,,
42280,note_on,40,0,1,,,,,,,,,0,,,56,100
42320,note_on,0,0,1,,,,,,,,,0,,,58,100
42320,note_on,40,0,1,,,,,,,,,0,,,56,0
42360,note_on,40,0,1,,,,,,,,,0,,,58,0
42360,note_on,0,0,1,,,,,,,,,0,,,66,0
42360,note_on,0,0,1,,,,,,,,,0,,,59,100
42360,note_on,0,0,1,,,,,,,,,0,,,65,110
42400,note_on,40,0,1,,,,,,,,,0,,,59,0
42400,note_on,0,0,1,,,,,,,,,0,,,58,100
42440,note_on,40,0,1,,,,,,,,,0,,,58,0
42440,note_on,0,0,1,,,,,,,,,0,,,56,100
42480,note_on,40,0,1,,,,,,,,,0,,,56,0
42480,note_on,0,0,1,,,,,,,,,0,,,58,100
42520,note_on,40,0,1,,,,,,,,,0,,,58,0
42520,note_on,0,0,1,,,,,,,,,0,,,56,100
42560,note_on,40,0,1,,,,,,,,,0,,,56,0
42560,note_on,0,0,1,,,,,,,,,0,,,58,100
42600,note_on,360,0,2,,,,,,,,,0,,,50,0
42600,note_on,0,0,2,,,,,,,,,0,,,38,0
42600,note_on,40,0,1,,,,,,,,,0,,,58,0
42600,note_on,0,0,2,,,,,,,,,0,,,50,110
42600,note_on,0,0,1,,,,,,,,,0,,,59,100
42640,note_on,40,0,1,,,,,,,,,0,,,59,0
42640,note_on,0,0,2,,,,,,,,,0,,,51,110
42640,note_on,40,0,2,,,,,,,,,0,,,50,0
42640,note_on,0,0,1,,,,,,,,,0,,,58,100
42680,note_on,40,0,1,,,,,,,,,0,,,58,0
42680,note_on,0,0,1,,,,,,,,,0,,,56,100
42680,note_on,0,0,2,,,,,,,,,0,,,53,110
42680,note_on,40,0,2,,,,,,,,,0,,,51,0
42705,control_change,465,0,3,,,,,,,,,0,64,0,,
42720,note_on,40,0,1,,,,,,,,,0,,,56,0
42720,control_change,15,0,3,,,,,,,,,0,64,127,,
42720,note_on,0,0,2,,,,,,,,,0,,,53,110
42720,note_on,0,0,1,,,,,,,,,0,,,63,110
42720,note_on,40,0,2,,,,,,,,,0,,,53,0
42720,note_on,0,0,2,,,,,,,,,0,,,41,110
42720,note_on,0,0,1,,,,,,,,,0,,,65,0
42760,note_on,40,0,1,,,,,,,,,0,,,56,100
42800,note_on,0,0,1,,,,,,,,,0,,,58,100
42800,note_on,40,0,1,,,,,,,,,0,,,56,0
42840,note_on,40,0,1,,,,,,,,,0,,,58,0
42840,note_on,0,0,1,,,,,,,,,0,,,63,0
42840,note_on,0,0,1,,,,,,,,,0,,,59,100
42840,note_on,0,0,1,,,,,,,,,0,,,62,110
42880,note_on,40,0,1,,,,,,,,,0,,,59,0
42880,note_on,0,0,1,,,,,,,,,0,,,58,100
42920,note_on,0,0,1,,,,,,,,,0,,,56,100
42920,note_on,40,0,1,,,,,,,,,0,,,58,0
42960,note_on,40,0,1,,,,,,,,,0,,,56,0
42960,note_on,0,0,1,,,,,,,,,0,,,58,100
43000,note_on,0,0,1,,,,,,,,,0,,,56,100
43000,note_on,40,0,1,,,,,,,,,0,,,58,0
43040,note_on,0,0,1,,,,,,,,,0,,,58,100
43040,note_on,40,0,1,,,,,,,,,0,,,56,0
43080,note_on,0,0,1,,,,,,,,,0,,,59,100
43080,note_on,0,0,2,,,,,,,,,0,,,41,0
43080,note_on,360,0,2,,,,,,,,,0,,,53,0
43080,note_on,0,0,2,,,,,,,,,0,,,41,110
43080,note_on,40,0,1,,,,,,,,,0,,,58,0
43120,note_on,40,0,1,,,,,,,,,0,,,59,0
43120,note_on,0,0,1,,,,,,,,,0,,,58,100
43160,note_on,0,0,1,,,,,,,,,0,,,56,100
43160,note_on,40,0,1,,,,,,,,,0,,,58,0
43185,control_change,465,0,3,,,,,,,,,0,64,0,,
43200,note_on,120,0,2,,,,,,,,,0,,,41,0
43200,note_on,0,0,2,,,,,,,,,0,,,42,70
43200,note_on,0,0,1,,,,,,,,,0,,,65,70
43200,note_on,0,0,1,,,,,,,,,0,,,62,0
43200,note_on,40,0,1,,,,,,,,,0,,,56,0
43200,control_change,15,0,3,,,,,,,,,0,64,127,,
43240,note_on,40,0,1,,,,,,,,,0,,,54,60
43280,note_on,40,0,1,,,,,,,,,0,,,54,0
43280,note_on,0,0,1,,,,,,,,,0,,,58,60
43305,control_change,105,0,3,,,,,,,,,0,64,0,,
43320,control_change,15,0,3,,,,,,,,,0,64,127,,
43320,note_on,0,0,1,,,,,,,,,0,,,65,0
43320,note_on,40,0,1,,,,,,,,,0,,,58,0
43320,note_on,0,0,1,,,,,,,,,0,,,63,70
43360,note_on,40,0,1,,,,,,,,,0,,,54,60
43400,note_on,40,0,1,,,,,,,,,0,,,54,0
43400,note_on,0,0,1,,,,,,,,,0,,,58,60
43425,control_change,105,0,3,,,,,,,,,0,64,0,,
43440,note_on,0,0,1,,,,,,,,,0,,,66,70
43440,control_change,15,0,3,,,,,,,,,0,64,127,,
43440,note_on,40,0,1,,,,,,,,,0,,,58,0
43440,note_on,240,0,2,,,,,,,,,0,,,42,0
43440,note_on,0,0,2,,,,,,,,,0,,,38,70
43440,note_on,0,0,1,,,,,,,,,0,,,63,0
43470,note_on,30,0,2,,,,,,,,,0,,,38,0
43470,note_on,0,0,2,,,,,,,,,0,,,39,70
43480,note_on,40,0,1,,,,,,,,,0,,,56,60
43500,note_on,30,0,2,,,,,,,,,0,,,39,0
43500,note_on,0,0,2,,,,,,,,,0,,,38,70
43520,note_on,40,0,1,,,,,,,,,0,,,56,0
43520,note_on,0,0,2,,,,,,,,,0,,,39,70
43520,note_on,20,0,2,,,,,,,,,0,,,38,0
43520,note_on,0,0,1,,,,,,,,,0,,,59,60
43540,note_on,20,0,2,,,,,,,,,0,,,39,0
43540,note_on,0,0,2,,,,,,,,,0,,,38,70
43545,control_change,105,0,3,,,,,,,,,0,64,0,,
43560,control_change,15,0,3,,,,,,,,,0,64,127,,
43560,note_on,0,0,2,,,,,,,,,0,,,39,70
43560,note_on,40,0,1,,,,,,,,,0,,,59,0
43560,note_on,0,0,1,,,,,,,,,0,,,66,0
43560,note_on,0,0,1,,,,,,,,,0,,,65,70
43560,note_on,20,0,2,,,,,,,,,0,,,38,0
43580,note_on,0,0,2,,,,,,,,,0,,,38,70
43580,note_on,20,0,2,,,,,,,,,0,,,39,0
43600,note_on,20,0,2,,,,,,,,,0,,,38,0
43600,note_on,0,0,2,,,,,,,,,0,,,39,70
43600,note_on,40,0,1,,,,,,,,,0,,,56,60
43620,note_on,0,0,2,,,,,,,,,0,,,38,70
43620,note_on,20,0,2,,,,,,,,,0,,,39,0
43640,note_on,0,0,2,,,,,,,,,0,,,35,70
43640,note_on,20,0,2,,,,,,,,,0,,,38,0
43640,note_on,0,0,1,,,,,,,,,0,,,59,60
43640,note_on,40,0,1,,,,,,,,,0,,,56,0
43660,note_on,20,0,2,,,,,,,,,0,,,35,0
43660,note_on,0,0,2,,,,,,,,,0,,,38,70
43665,control_change,105,0,3,,,,,,,,,0,64,0,,
43680,control_change,15,0,3,,,,,,,,,0,64,127,,
43680,note_on,20,0,2,,,,,,,,,0,,,38,0
43680,note_on,40,0,1,,,,,,,,,0,,,59,0
43680,note_on,0,0,1,,,,,,,,,0,,,65,0
43680,note_on,0,0,2,,,,,,,,,0,,,39,70
43680,note_on,0,0,1,,,,,,,,,0,,,68,70
43720,note_on,40,0,1,,,,,,,,,0,,,58,60
43760,note_on,40,0,1,,,,,,,,,0,,,58,0
43760,note_on,0,0,1,,,,,,,,,0,,,63,60
43785,control_change,105,0,3,,,,,,,,,0,64,0,,
43800,note_on,40,0,1,,,,,,,,,0,,,63,0
43800,control_change,15,0,3,,,,,,,,,0,64,127,,
43800,note_on,0,0,1,,,,,,,,,0,,,68,0
43800,note_on,0,0,1,,,,,,,,,0,,,66,70
43840,note_on,40,0,1,,,,,,,,,0,,,58,60
43880,note_on,40,0,1,,,,,,,,,0,,,58,0
43880,note_on,0,0,1,,,,,,,,,0,,,63,60
43905,control_change,105,0,3,,,,,,,,,0,64,0,,
43920,note_on,240,0,2,,,,,,,,,0,,,39,0
43920,note_on,0,0,2,,,,,,,,,0,,,32,70
43920,note_on,0,0,1,,,,,,,,,0,,,64,70
43920,note_on,0,0,1,,,,,,,,,0,,,66,0
43920,note_on,40,0,1,,,,,,,,,0,,,63,0
43920,control_change,15,0,3,,,,,,,,,0,64,127,,
43960,note_on,40,0,1,,,,,,,,,0,,,56,60
44000,note_on,40,0,1,,,,,,,,,0,,,56,0
44000,note_on,0,0,1,,,,,,,,,0,,,59,60
44025,control_change,105,0,3,,,,,,,,,0,64,0,,
44040,note_on,40,0,1,,,,,,,,,0,,,59,0
44040,note_on,0,0,1,,,,,,,,,0,,,64,0
44040,note_on,0,0,1,,,,,,,,,0,,,71,70
44040,control_change,15,0,3,,,,,,,,,0,64,127,,
44080,note_on,40,0,1,,,,,,,,,0,,,59,60
44120,note_on,40,0,1,,,,,,,,,0,,,59,0
44120,note_on,0,0,1,,,,,,,,,0,,,64,60
44145,control_change,105,0,3,,,,,,,,,0,64,0,,
44160,control_change,15,0,3,,,,,,,,,0,64,127,,
44160,note_on,0,0,1,,,,,,,,,0,,,63,70
44160,note_on,0,0,2,,,,,,,,,0,,,34,70
44160,note_on,40,0,1,,,,,,,,,0,,,64,0
44160,note_on,240,0,2,,,,,,,,,0,,,32,0
44160,note_on,0,0,1,,,,,,,,,0,,,71,0
44200,note_on,40,0,2,,,,,,,,,0,,,51,60
44240,note_on,0,0,2,,,,,,,,,0,,,54,60
44240,note_on,40,0,2,,,,,,,,,0,,,51,0
44280,note_on,0,0,2,,,,,,,,,0,,,58,60
44280,note_on,40,0,2,,,,,,,,,0,,,54,0
44320,note_on,0,0,2,,,,,,,,,0,,,54,60
44320,note_on,40,0,2,,,,,,,,,0,,,58,0
44360,note_on,0,0,2,,,,,,,,,0,,,51,60
44360,note_on,40,0,2,,,,,,,,,0,,,54,0
44400,note_on,0,0,2,,,,,,,,,0,,,54,60
44400,note_on,40,0,2,,,,,,,,,0,,,51,0
44440,note_on,0,0,2,,,,,,,,,0,,,33,70
44440,note_on,0,0,2,,,,,,,,,0,,,51,60
44440,note_on,0,0,2,,,,,,,,,0,,,34,0
44440,note_on,40,0,2,,,,,,,,,0,,,54,0
44480,note_on,0,0,2,,,,,,,,,0,,,51,0
44480,note_on,40,0,2,,,,,,,,,0,,,33,0
44480,note_on,0,0,2,,,,,,,,,0,,,54,60
44480,note_on,0,0,2,,,,,,,,,0,,,34,70
44520,note_on,0,0,2,,,,,,,,,0,,,54,0
44520,note_on,0,0,2,,,,,,,,,0,,,58,60
44520,note_on,0,0,2,,,,,,,,,0,,,35,70
44520,note_on,40,0,2,,,,,,,,,0,,,34,0
44560,note_on,40,0,2,,,,,,,,,0,,,35,0
44560,note_on,0,0,2,,,,,,,,,0,,,58,0
44560,note_on,0,0,2,,,,,,,,,0,,,54,60
44560,note_on,0,0,2,,,,,,,,,0,,,34,70
44600,note_on,0,0,2,,,,,,,,,0,,,33,70
44600,note_on,0,0,2,,,,,,,,,0,,,51,60
44600,note_on,40,0,2,,,,,,,,,0,,,34,0
44600,note_on,0,0,2,,,,,,,,,0,,,54,0
44625,control_change,465,0,3,,,,,,,,,0,64,0,,
44640,note_on,0,0,2,,,,,,,,,0,,,51,0
44640,note_on,480,0,1,,,,,,,,,0,,,63,0
44640,control_change,15,0,3,,,,,,,,,0,64,127,,
44640,note_on,0,0,2,,,,,,,,,0,,,34,70
44640,note_on,40,0,2,,,,,,,,,0,,,33,0
44640,note_on,0,0,1,,,,,,,,,0,,,62,70
44680,note_on,40,0,2,,,,,,,,,0,,,50,60
44720,note_on,0,0,2,,,,,,,,,0,,,53,60
44720,note_on,40,0,2,,,,,,,,,0,,,50,0
44760,note_on,0,0,2,,,,,,,,,0,,,58,60
44760,note_on,40,0,2,,,,,,,,,0,,,53,0
44800,note_on,40,0,2,,,,,,,,,0,,,58,0
44800,note_on,0,0,2,,,,,,,,,0,,,53,60
44840,note_on,40,0,2,,,,,,,,,0,,,53,0
44840,note_on,0,0,2,,,,,,,,,0,,,50,60
44865,control_change,225,0,3,,,,,,,,,0,64,0,,
44880,control_change,15,0,3,,,,,,,,,0,64,127,,
44880,note_on,40,0,2,,,,,,,,,0,,,50,0
44880,note_on,0,0,2,,,,,,,,,0,,,34,0
44880,note_on,0,0,2,,,,,,,,,0,,,53,60
44880,note_on,0,0,2,,,,,,,,,0,,,32,70
44880,set_tempo,8400,1,0,,,,,,500000,,,,,,,
44920,note_on,0,0,2,,,,,,,,,0,,,50,60
44920,note_on,40,0,2,,,,,,,,,0,,,53,0
44960,note_on,0,0,2,,,,,,,,,0,,,53,60
44960,note_on,40,0,2,,,,,,,,,0,,,50,0
45000,note_on,40,0,2,,,,,,,,,0,,,53,0
45000,note_on,0,0,2,,,,,,,,,0,,,58,60
45040,note_on,0,0,2,,,,,,,,,0,,,53,60
45040,note_on,40,0,2,,,,,,,,,0,,,58,0
45080,note_on,0,0,2,,,,,,,,,0,,,50,60
45080,note_on,40,0,2,,,,,,,,,0,,,53,0
45105,control_change,225,0,3,,,,,,,,,0,64,0,,
45120,note_on,0,0,2,,,,,,,,,0,,,32,0
45120,note_on,0,0,2,,,,,,,,,0,,,31,50
45120,control_change,15,0,3,,,,,,,,,0,64,127,,
45120,note_on,40,0,2,,,,,,,,,0,,,50,0
45120,note_on,0,0,2,,,,,,,,,0,,,43,50
45120,set_tempo,240,1,0,,,,,,454545,,,,,,,
45120,note_on,0,0,1,,,,,,,,,0,,,70,50
45120,note_on,480,0,1,,,,,,,,,0,,,62,0
45160,note_on,40,0,1,,,,,,,,,0,,,58,40
45200,note_on,40,0,1,,,,,,,,,0,,,58,0
45200,note_on,0,0,1,,,,,,,,,0,,,63,40
45240,note_on,0,0,1,,,,,,,,,0,,,67,40
45240,note_on,40,0,1,,,,,,,,,0,,,63,0
45280,note_on,0,0,1,,,,,,,,,0,,,63,40
45280,note_on,40,0,1,,,,,,,,,0,,,67,0
45320,note_on,0,0,1,,,,,,,,,0,,,58,40
45320,note_on,40,0,1,,,,,,,,,0,,,63,0
45360,note_on,40,0,1,,,,,,,,,0,,,58,0
45360,note_on,0,0,1,,,,,,,,,0,,,63,40
45400,note_on,40,0,1,,,,,,,,,0,,,63,0
45400,note_on,0,0,1,,,,,,,,,0,,,58,40
45440,note_on,0,0,1,,,,,,,,,0,,,63,40
45440,note_on,40,0,1,,,,,,,,,0,,,58,0
45480,note_on,40,0,1,,,,,,,,,0,,,63,0
45480,note_on,0,0,1,,,,,,,,,0,,,67,40
45520,note_on,40,0,1,,,,,,,,,0,,,67,0
45520,note_on,0,0,1,,,,,,,,,0,,,63,40
45560,note_on,0,0,1,,,,,,,,,0,,,58,40
45560,note_on,40,0,1,,,,,,,,,0,,,63,0
45585,control_change,465,0,3,,,,,,,,,0,64,0,,
45600,control_change,15,0,3,,,,,,,,,0,64,127,,
45600,note_on,0,0,1,,,,,,,,,0,,,70,0
45600,note_on,0,0,2,,,,,,,,,0,,,31,0
45600,note_on,0,0,2,,,,,,,,,0,,,41,50
45600,note_on,480,0,2,,,,,,,,,0,,,43,0
45600,note_on,40,0,1,,,,,,,,,0,,,58,0
45600,note_on,0,0,1,,,,,,,,,0,,,70,50
45640,note_on,40,0,1,,,,,,,,,0,,,58,40
45680,note_on,40,0,1,,,,,,,,,0,,,58,0
45680,note_on,0,0,1,,,,,,,,,0,,,62,40
45720,note_on,40,0,1,,,,,,,,,0,,,62,0
45720,note_on,0,0,1,,,,,,,,,0,,,68,40
45760,note_on,40,0,1,,,,,,,,,0,,,68,0
45760,note_on,0,0,1,,,,,,,,,0,,,62,40
45800,note_on,40,0,1,,,,,,,,,0,,,62,0
45800,note_on,0,0,1,,,,,,,,,0,,,58,40
45825,control_change,225,0,3,,,,,,,,,0,64,0,,
45840,note_on,0,0,1,,,,,,,,,0,,,72,50
45840,note_on,40,0,1,,,,,,,,,0,,,58,0
45840,control_change,15,0,3,,,,,,,,,0,64,127,,
45840,note_on,0,0,1,,,,,,,,,0,,,70,0
45880,note_on,40,0,1,,,,,,,,,0,,,58,40
45920,note_on,40,0,1,,,,,,,,,0,,,58,0
45920,note_on,0,0,1,,,,,,,,,0,,,68,40
45960,note_on,40,0,1,,,,,,,,,0,,,68,0
45960,note_on,0,0,1,,,,,,,,,0,,,72,0
45960,note_on,0,0,1,,,,,,,,,0,,,70,50
46000,note_on,40,0,1,,,,,,,,,0,,,68,40
46040,note_on,0,0,1,,,,,,,,,0,,,58,40
46040,note_on,40,0,1,,,,,,,,,0,,,68,0
46065,control_change,225,0,3,,,,,,,,,0,64,0,,
46080,control_change,15,0,3,,,,,,,,,0,64,127,,
46080,note_on,0,0,1,,,,,,,,,0,,,70,0
46080,note_on,0,0,1,,,,,,,,,0,,,79,50
46080,note_on,0,0,2,,,,,,,,,0,,,39,50
46080,note_on,40,0,1,,,,,,,,,0,,,58,0
46080,note_on,480,0,2,,,,,,,,,0,,,41,0
46120,note_on,40,0,1,,,,,,,,,0,,,67,40
46160,note_on,40,0,1,,,,,,,,,0,,,67,0
46160,note_on,0,0,1,,,,,,,,,0,,,70,40
46200,note_on,40,0,1,,,,,,,,,0,,,70,0
46200,note_on,0,0,1,,,,,,,,,0,,,75,40
46240,note_on,40,0,1,,,,,,,,,0,,,75,0
46240,note_on,0,0,1,,,,,,,,,0,,,70,40
46280,note_on,40,0,1,,,,,,,,,0,,,70,0
46280,note_on,0,0,1,,,,,,,,,0,,,67,40
46320,note_on,40,0,1,,,,,,,,,0,,,67,0
46320,note_on,0,0,1,,,,,,,,,0,,,70,40
46360,note_on,40,0,1,,,,,,,,,0,,,70,0
46360,note_on,0,0,1,,,,,,,,,0,,,67,40
46400,note_on,40,0,1,,,,,,,,,0,,,67,0
46400,note_on,0,0,1,,,,,,,,,0,,,70,40
46440,note_on,0,0,1,,,,,,,,,0,,,79,0
46440,note_on,40,0,1,,,,,,,,,0,,,70,0
46440,note_on,0,0,1,,,,,,,,,0,,,77,50
46480,note_on,40,0,1,,,,,,,,,0,,,71,40
46520,note_on,40,0,1,,,,,,,,,0,,,71,0
46520,note_on,0,0,1,,,,,,,,,0,,,67,40
46545,control_change,465,0,3,,,,,,,,,0,64,0,,
46560,note_on,0,0,1,,,,,,,,,0,,,77,50
46560,note_on,0,0,2,,,,,,,,,0,,,44,50
46560,control_change,15,0,3,,,,,,,,,0,64,127,,
46560,note_on,480,0,2,,,,,,,,,0,,,39,0
46560,note_on,40,0,1,,,,,,,,,0,,,67,0
46560,note_on,0,0,1,,,,,,,,,0,,,77,0
46600,note_on,40,0,1,,,,,,,,,0,,,72,40
46640,note_on,40,0,1,,,,,,,,,0,,,72,0
46640,note_on,0,0,1,,,,,,,,,0,,,63,40
46680,note_on,0,0,1,,,,,,,,,0,,,75,50
46680,note_on,40,0,1,,,,,,,,,0,,,63,0
46680,note_on,0,0,1,,,,,,,,,0,,,77,0
46720,note_on,40,0,1,,,,,,,,,0,,,72,40
46760,note_on,40,0,1,,,,,,,,,0,,,72,0
46760,note_on,0,0,1,,,,,,,,,0,,,63,40
46785,control_change,225,0,3,,,,,,,,,0,64,0,,
46800,control_change,15,0,3,,,,,,,,,0,64,127,,
46800,note_on,40,0,1,,,,,,,,,0,,,63,0
46800,note_on,0,0,1,,,,,,,,,0,,,75,0
46800,note_on,0,0,1,,,,,,,,,0,,,72,50
46840,note_on,40,0,1,,,,,,,,,0,,,68,40
46880,note_on,40,0,1,,,,,,,,,0,,,68,0
46880,note_on,0,0,1,,,,,,,,,0,,,63,40
46920,note_on,0,0,1,,,,,,,,,0,,,68,50
46920,note_on,0,0,1,,,,,,,,,0,,,72,0
46920,note_on,40,0,1,,,,,,,,,0,,,63,0
46960,note_on,40,0,1,,,,,,,,,0,,,65,40
47000,note_on,40,0,1,,,,,,,,,0,,,65,0
47000,note_on,0,0,1,,,,,,,,,0,,,60,40
47025,control_change,225,0,3,,,,,,,,,0,64,0,,
47040,note_on,0,0,1,,,,,,,,,0,,,68,0
47040,note_on,0,0,1,,,,,,,,,0,,,67,50
47040,note_on,40,0,1,,,,,,,,,0,,,60,0
47040,note_on,0,0,2,,,,,,,,,0,,,46,50
47040,control_change,15,0,3,,,,,,,,,0,64,127,,
47040,note_on,480,0,2,,,,,,,,,0,,,44,0
47080,note_on,40,0,1,,,,,,,,,0,,,55,40
47120,note_on,40,0,1,,,,,,,,,0,,,55,0
47120,note_on,0,0,1,,,,,,,,,0,,,58,40
47160,note_on,40,0,1,,,,,,,,,0,,,58,0
47160,note_on,0,0,1,,,,,,,,,0,,,63,40
47200,note_on,40,0,1,,,,,,,,,0,,,63,0
47200,note_on,0,0,1,,,,,,,,,0,,,58,40
47240,note_on,40,0,1,,,,,,,,,0,,,58,0
47240,note_on,0,0,1,,,,,,,,,0,,,55,40
47280,note_on,0,0,1,,,,,,,,,0,,,58,40
47280,note_on,40,0,1,,,,,,,,,0,,,55,0
47320,note_on,0,0,1,,,,,,,,,0,,,55,40
47320,note_on,40,0,1,,,,,,,,,0,,,58,0
47360,note_on,40,0,1,,,,,,,,,0,,,55,0
47360,note_on,0,0,1,,,,,,,,,0,,,58,40
47400,note_on,40,0,1,,,,,,,,,0,,,58,0
47400,note_on,0,0,1,,,,,,,,,0,,,67,0
47400,note_on,0,0,1,,,,,,,,,0,,,63,40
47400,note_on,0,0,1,,,,,,,,,0,,,67,50
47440,note_on,40,0,1,,,,,,,,,0,,,63,0
47440,note_on,0,0,1,,,,,,,,,0,,,58,40
47480,note_on,0,0,1,,,,,,,,,0,,,55,40
47480,note_on,40,0,1,,,,,,,,,0,,,58,0
47505,control_change,465,0,3,,,,,,,,,0,64,0,,
47520,note_on,480,0,2,,,,,,,,,0,,,46,0
47520,control_change,15,0,3,,,,,,,,,0,64,127,,
47520,set_tempo,2400,1,0,,,,,,454580,,,,,,,
47520,note_on,0,0,1,,,,,,,,,0,,,67,0
47520,note_on,40,0,1,,,,,,,,,0,,,55,0
47520,note_on,0,0,2,,,,,,,,,0,,,53,50
47520,note_on,0,0,1,,,,,,,,,0,,,72,50
47520,note_on,0,0,2,,,,,,,,,0,,,46,50
47534,set_tempo,14,1,0,,,,,,455615,,,,,,,
47541,set_tempo,7,1,0,,,,,,456656,,,,,,,
47548,set_tempo,7,1,0,,,,,,457701,,,,,,,
47555,set_tempo,7,1,0,,,,,,458751,,,,,,,
47560,note_on,40,0,1,,,,,,,,,0,,,62,40
47562,set_tempo,7,1,0,,,,,,459805,,,,,,,
47569,set_tempo,7,1,0,,,,,,460865,,,,,,,
47576,set_tempo,7,1,0,,,,,,461929,,,,,,,
47583,set_tempo,7,1,0,,,,,,462999,,,,,,,
47590,set_tempo,7,1,0,,,,,,464073,,,,,,,
47597,set_tempo,7,1,0,,,,,,465152,,,,,,,
47600,note_on,0,0,1,,,,,,,,,0,,,65,40
47600,note_on,40,0,1,,,,,,,,,0,,,62,0
47604,set_tempo,7,1,0,,,,,,466237,,,,,,,
47611,set_tempo,7,1,0,,,,,,467326,,,,,,,
47618,set_tempo,7,1,0,,,,,,468421,,,,,,,
47625,set_tempo,7,1,0,,,,,,469520,,,,,,,
47632,set_tempo,7,1,0,,,,,,470625,,,,,,,
47640,note_on,40,0,1,,,,,,,,,0,,,65,0
47640,set_tempo,8,1,0,,,,,,471735,,,,,,,
47640,note_on,0,0,1,,,,,,,,,0,,,70,50
47640,note_on,0,0,1,,,,,,,,,0,,,72,0
47647,set_tempo,7,1,0,,,,,,472851,,,,,,,
47654,set_tempo,7,1,0,,,,,,473971,,,,,,,
47661,set_tempo,7,1,0,,,,,,475097,,,,,,,
47668,set_tempo,7,1,0,,,,,,476228,,,,,,,
47675,set_tempo,7,1,0,,,,,,477365,,,,,,,
47680,note_on,40,0,1,,,,,,,,,0,,,62,40
47682,set_tempo,7,1,0,,,,,,478507,,,,,,,
47689,set_tempo,7,1,0,,,,,,479655,,,,,,,
47696,set_tempo,7,1,0,,,,,,480808,,,,,,,
47703,set_tempo,7,1,0,,,,,,481966,,,,,,,
47710,set_tempo,7,1,0,,,,,,483131,,,,,,,
47717,set_tempo,7,1,0,,,,,,484301,,,,,,,
47720,note_on,0,0,1,,,,,,,,,0,,,65,40
47720,note_on,40,0,1,,,,,,,,,0,,,62,0
47724,set_tempo,7,1,0,,,,,,485476,,,,,,,
47731,set_tempo,7,1,0,,,,,,486657,,,,,,,
47738,set_tempo,7,1,0,,,,,,487845,,,,,,,
47745,control_change,225,0,3,,,,,,,,,0,64,0,,
47745,set_tempo,7,1,0,,,,,,489037,,,,,,,
47752,set_tempo,7,1,0,,,,,,490236,,,,,,,
47760,set_tempo,8,1,0,,,,,,491441,,,,,,,
47760,note_on,0,0,1,,,,,,,,,0,,,68,50
47760,note_on,0,0,1,,,,,,,,,0,,,70,0
47760,note_on,40,0,1,,,,,,,,,0,,,65,0
47760,control_change,15,0,3,,,,,,,,,0,64,127,,
47767,set_tempo,7,1,0,,,,,,492651,,,,,,,
47774,set_tempo,7,1,0,,,,,,493868,,,,,,,
47781,set_tempo,7,1,0,,,,,,495090,,,,,,,
47788,set_tempo,7,1,0,,,,,,496319,,,,,,,
47795,set_tempo,7,1,0,,,,,,497554,,,,,,,
47800,note_on,40,0,1,,,,,,,,,0,,,58,40
47802,set_tempo,7,1,0,,,,,,498795,,,,,,,
47809,set_tempo,7,1,0,,,,,,500042,,,,,,,
47816,set_tempo,7,1,0,,,,,,501295,,,,,,,
47823,set_tempo,7,1,0,,,,,,502555,,,,,,,
47830,set_tempo,7,1,0,,,,,,503821,,,,,,,
47837,set_tempo,7,1,0,,,,,,505093,,,,,,,
47840,note_on,40,0,1,,,,,,,,,0,,,58,0
47840,note_on,0,0,1,,,,,,,,,0,,,62,40
47844,set_tempo,7,1,0,,,,,,506372,,,,,,,
47851,set_tempo,7,1,0,,,,,,507657,,,,,,,
47858,set_tempo,7,1,0,,,,,,508949,,,,,,,
47865,set_tempo,7,1,0,,,,,,510247,,,,,,,
47872,set_tempo,7,1,0,,,,,,511553,,,,,,,
47880,set_tempo,8,1,0,,,,,,512864,,,,,,,
47880,note_on,40,0,1,,,,,,,,,0,,,62,0
47880,note_on,0,0,1,,,,,,,,,0,,,65,50
47880,note_on,0,0,1,,,,,,,,,0,,,68,0
47880,note_on,360,0,2,,,,,,,,,0,,,53,0
47880,note_on,0,0,2,,,,,,,,,0,,,56,50
47887,set_tempo,7,1,0,,,,,,514183,,,,,,,
47894,set_tempo,7,1,0,,,,,,515508,,,,,,,
47901,set_tempo,7,1,0,,,,,,516840,,,,,,,
47908,set_tempo,7,1,0,,,,,,518179,,,,,,,
47915,set_tempo,7,1,0,,,,,,519526,,,,,,,
47920,note_on,40,0,1,,,,,,,,,0,,,58,40
47922,set_tempo,7,1,0,,,,,,520879,,,,,,,
47929,set_tempo,7,1,0,,,,,,522239,,,,,,,
47936,set_tempo,7,1,0,,,,,,523606,,,,,,,
47943,set_tempo,7,1,0,,,,,,524980,,,,,,,
47950,set_tempo,7,1,0,,,,,,526362,,,,,,,
47957,set_tempo,7,1,0,,,,,,527751,,,,,,,
47960,note_on,0,0,1,,,,,,,,,0,,,62,40
47960,note_on,40,0,1,,,,,,,,,0,,,58,0
47964,set_tempo,7,1,0,,,,,,529147,,,,,,,
47971,set_tempo,7,1,0,,,,,,530551,,,,,,,
47978,set_tempo,7,1,0,,,,,,531962,,,,,,,
47985,set_tempo,7,1,0,,,,,,533381,,,,,,,
47985,control_change,225,0,3,,,,,,,,,0,64,0,,
47992,set_tempo,7,1,0,,,,,,534807,,,,,,,
48000,note_on,0,0,2,,,,,,,,,0,,,39,50
48000,note_on,0,0,2,,,,,,,,,0,,,46,0
48000,note_on,120,0,2,,,,,,,,,0,,,56,0
48000,control_change,15,0,3,,,,,,,,,0,64,127,,
48000,note_on,0,0,1,,,,,,,,,0,,,65,0
48000,set_tempo,8,1,0,,,,,,454545,,,,,,,
48000,note_on,40,0,1,,,,,,,,,0,,,62,0
48000,note_on,0,0,1,,,,,,,,,0,,,63,50
48040,note_on,40,0,2,,,,,,,,,0,,,51,40
48080,note_on,40,0,2,,,,,,,,,0,,,51,0
48080,note_on,0,0,2,,,,,,,,,0,,,55,40
48120,note_on,40,0,2,,,,,,,,,0,,,55,0
48120,note_on,0,0,2,,,,,,,,,0,,,58,40
48160,note_on,0,0,2,,,,,,,,,0,,,55,40
48160,note_on,40,0,2,,,,,,,,,0,,,58,0
48200,note_on,0,0,2,,,,,,,,,0,,,51,40
48200,note_on,40,0,2,,,,,,,,,0,,,55,0
48240,note_on,40,0,2,,,,,,,,,0,,,51,0
48240,note_on,0,0,2,,,,,,,,,0,,,55,40
48280,note_on,0,0,2,,,,,,,,,0,,,51,40
48280,note_on,40,0,2,,,,,,,,,0,,,55,0
48320,note_on,0,0,2,,,,,,,,,0,,,55,40
48320,note_on,40,0,2,,,,,,,,,0,,,51,0
48360,note_on,40,0,2,,,,,,,,,0,,,55,0
48360,note_on,0,0,2,,,,,,,,,0,,,58,40
48400,note_on,40,0,2,,,,,,,,,0,,,58,0
48400,note_on,0,0,2,,,,,,,,,0,,,55,40
48440,note_on,0,0,2,,,,,,,,,0,,,51,40
48440,note_on,40,0,2,,,,,,,,,0,,,55,0
48465,control_change,465,0,3,,,,,,,,,0,64,0,,
48480,note_on,40,0,2,,,,,,,,,0,,,51,0
48480,note_on,0,0,1,,,,,,,,,0,,,63,50
48480,note_on,0,0,2,,,,,,,,,0,,,39,0
48480,note_on,0,0,2,,,,,,,,,0,,,37,50
48480,control_change,15,0,3,,,,,,,,,0,64,127,,
48480,note_on,480,0,1,,,,,,,,,0,,,63,0
48520,note_on,40,0,2,,,,,,,,,0,,,51,40
48560,note_on,40,0,2,,,,,,,,,0,,,51,0
48560,note_on,0,0,2,,,,,,,,,0,,,55,40
48600,note_on,40,0,2,,,,,,,,,0,,,55,0
48600,note_on,0,0,2,,,,,,,,,0,,,58,40
48640,note_on,40,0,2,,,,,,,,,0,,,58,0
48640,note_on,0,0,2,,,,,,,,,0,,,55,40
48680,note_on,40,0,2,,,,,,,,,0,,,55,0
48680,note_on,0,0,2,,,,,,,,,0,,,51,40
48720,note_on,40,0,2,,,,,,,,,0,,,51,0
48720,note_on,0,0,2,,,,,,,,,0,,,55,40
48760,note_on,40,0,2,,,,,,,,,0,,,55,0
48760,note_on,0,0,2,,,,,,,,,0,,,51,40
48800,note_on,40,0,2,,,,,,,,,0,,,51,0
48800,note_on,0,0,2,,,,,,,,,0,,,55,40
48840,note_on,40,0,2,,,,,,,,,0,,,55,0
48840,note_on,0,0,2,,,,,,,,,0,,,37,0
48840,note_on,0,0,2,,,,,,,,,0,,,58,40
48840,note_on,0,0,2,,,,,,,,,0,,,40,50
48880,note_on,0,0,2,,,,,,,,,0,,,39,50
48880,note_on,0,0,2,,,,,,,,,0,,,55,40
48880,note_on,40,0,2,,,,,,,,,0,,,40,0
48880,note_on,0,0,2,,,,,,,,,0,,,58,0
48920,note_on,40,0,2,,,,,,,,,0,,,39,0
48920,note_on,0,0,2,,,,,,,,,0,,,55,0
48920,note_on,0,0,2,,,,,,,,,0,,,51,40
48920,note_on,0,0,2,,,,,,,,,0,,,37,50
48945,control_change,465,0,3,,,,,,,,,0,64,0,,
48960,note_on,0,0,2,,,,,,,,,0,,,35,50
48960,note_on,40,0,2,,,,,,,,,0,,,37,0
48960,note_on,0,0,2,,,,,,,,,0,,,51,0
48960,note_on,480,0,1,,,,,,,,,0,,,63,0
48960,note_on,0,0,1,,,,,,,,,0,,,63,50
48960,control_change,15,0,3,,,,,,,,,0,64,127,,
49000,note_on,40,0,2,,,,,,,,,0,,,51,40
49040,note_on,0,0,2,,,,,,,,,0,,,56,40
49040,note_on,40,0,2,,,,,,,,,0,,,51,0
49080,note_on,0,0,2,,,,,,,,,0,,,59,40
49080,note_on,40,0,2,,,,,,,,,0,,,56,0
49120,note_on,40,0,2,,,,,,,,,0,,,59,0
49120,note_on,0,0,2,,,,,,,,,0,,,56,40
49160,note_on,40,0,2,,,,,,,,,0,,,56,0
49160,note_on,0,0,2,,,,,,,,,0,,,51,40
49200,note_on,0,0,2,,,,,,,,,0,,,56,40
49200,note_on,40,0,2,,,,,,,,,0,,,51,0
49240,note_on,0,0,2,,,,,,,,,0,,,51,40
49240,note_on,40,0,2,,,,,,,,,0,,,56,0
49280,note_on,0,0,2,,,,,,,,,0,,,56,40
49280,note_on,40,0,2,,,,,,,,,0,,,51,0
49320,note_on,0,0,2,,,,,,,,,0,,,59,40
49320,note_on,40,0,2,,,,,,,,,0,,,56,0
49360,note_on,0,0,2,,,,,,,,,0,,,56,40
49360,note_on,40,0,2,,,,,,,,,0,,,59,0
49400,note_on,0,0,2,,,,,,,,,0,,,51,40
49400,note_on,40,0,2,,,,,,,,,0,,,56,0
49425,control_change,465,0,3,,,,,,,,,0,64,0,,
49440,note_on,40,0,2,,,,,,,,,0,,,51,0
49440,note_on,0,0,2,,,,,,,,,0,,,34,50
49440,control_change,15,0,3,,,,,,,,,0,64,127,,
49440,note_on,0,0,1,,,,,,,,,0,,,63,50
49440,note_on,0,0,2,,,,,,,,,0,,,35,0
49440,note_on,480,0,1,,,,,,,,,0,,,63,0
49480,note_on,40,0,2,,,,,,,,,0,,,51,41
49520,note_on,0,0,2,,,,,,,,,0,,,55,43
49520,note_on,40,0,2,,,,,,,,,0,,,51,0
49560,note_on,0,0,2,,,,,,,,,0,,,61,45
49560,note_on,40,0,2,,,,,,,,,0,,,55,0
49600,note_on,0,0,2,,,,,,,,,0,,,55,46
49600,note_on,40,0,2,,,,,,,,,0,,,61,0
49640,note_on,0,0,2,,,,,,,,,0,,,51,48
49640,note_on,40,0,2,,,,,,,,,0,,,55,0
49680,note_on,0,0,2,,,,,,,,,0,,,55,50
49680,note_on,40,0,2,,,,,,,,,0,,,51,0
49720,note_on,0,0,2,,,,,,,,,0,,,51,52
49720,note_on,0,0,2,,,,,,,,,0,,,34,0
49720,note_on,40,0,2,,,,,,,,,0,,,55,0
49720,note_on,0,0,2,,,,,,,,,0,,,35,62
49760,note_on,40,0,2,,,,,,,,,0,,,35,0
49760,note_on,0,0,2,,,,,,,,,0,,,51,0
49760,note_on,0,0,2,,,,,,,,,0,,,34,63
49760,note_on,0,0,2,,,,,,,,,0,,,55,53
49800,note_on,0,0,2,,,,,,,,,0,,,37,65
49800,note_on,0,0,2,,,,,,,,,0,,,55,0
49800,note_on,40,0,2,,,,,,,,,0,,,34,0
49800,note_on,0,0,2,,,,,,,,,0,,,61,55
49840,note_on,0,0,2,,,,,,,,,0,,,61,0
49840,note_on,0,0,2,,,,,,,,,0,,,55,57
49840,note_on,0,0,2,,,,,,,,,0,,,35,67
49840,note_on,40,0,2,,,,,,,,,0,,,37,0
49880,note_on,40,0,2,,,,,,,,,0,,,35,0
49880,note_on,0,0,2,,,,,,,,,0,,,51,59
49880,note_on,0,0,2,,,,,,,,,0,,,34,69
49880,note_on,0,0,2,,,,,,,,,0,,,55,0
49905,control_change,465,0,3,,,,,,,,,0,64,0,,
49920,note_on,0,0,1,,,,,,,,,0,,,63,70
49920,note_on,40,0,2,,,,,,,,,0,,,34,0
49920,control_change,15,0,3,,,,,,,,,0,64,127,,
49920,note_on,0,0,2,,,,,,,,,0,,,51,0
49920,note_on,0,0,2,,,,,,,,,0,,,32,70
49920,set_tempo,1920,1,0,,,,,,454580,,,,,,,
49920,note_on,480,0,1,,,,,,,,,0,,,63,0
49941,set_tempo,21,1,0,,,,,,455615,,,,,,,
49955,set_tempo,14,1,0,,,,,,456656,,,,,,,
49960,note_on,40,0,2,,,,,,,,,0,,,51,62
49969,set_tempo,14,1,0,,,,,,457701,,,,,,,
49983,set_tempo,14,1,0,,,,,,458751,,,,,,,
49997,set_tempo,14,1,0,,,,,,459805,,,,,,,
50000,note_on,0,0,2,,,,,,,,,0,,,56,64
50000,note_on,40,0,2,,,,,,,,,0,,,51,0
50011,set_tempo,14,1,0,,,,,,460865,,,,,,,
50025,set_tempo,14,1,0,,,,,,461929,,,,,,,
50040,note_on,40,0,2,,,,,,,,,0,,,56,0
50040,note_on,0,0,2,,,,,,,,,0,,,59,66
50040,set_tempo,15,1,0,,,,,,462999,,,,,,,
50054,set_tempo,14,1,0,,,,,,464073,,,,,,,
50068,set_tempo,14,1,0,,,,,,465152,,,,,,,
50080,note_on,40,0,2,,,,,,,,,0,,,59,0
50080,note_on,0,0,2,,,,,,,,,0,,,56,67
50082,set_tempo,14,1,0,,,,,,466237,,,,,,,
50096,set_tempo,14,1,0,,,,,,467326,,,,,,,
50110,set_tempo,14,1,0,,,,,,468421,,,,,,,
50120,note_on,40,0,2,,,,,,,,,0,,,56,0
50120,note_on,0,0,2,,,,,,,,,0,,,51,69
50124,set_tempo,14,1,0,,,,,,469520,,,,,,,
50138,set_tempo,14,1,0,,,,,,470625,,,,,,,
50152,set_tempo,14,1,0,,,,,,471735,,,,,,,
50160,note_on,0,0,2,,,,,,,,,0,,,56,71
50160,note_on,40,0,2,,,,,,,,,0,,,51,0
50167,set_tempo,15,1,0,,,,,,472851,,,,,,,
50181,set_tempo,14,1,0,,,,,,473971,,,,,,,
50195,set_tempo,14,1,0,,,,,,475097,,,,,,,
50200,note_on,0,0,2,,,,,,,,,0,,,51,73
50200,note_on,40,0,2,,,,,,,,,0,,,56,0
50209,set_tempo,14,1,0,,,,,,476228,,,,,,,
50223,set_tempo,14,1,0,,,,,,477365,,,,,,,
50237,set_tempo,14,1,0,,,,,,478507,,,,,,,
50240,note_on,0,0,2,,,,,,,,,0,,,56,74
50240,note_on,40,0,2,,,,,,,,,0,,,51,0
50251,set_tempo,14,1,0,,,,,,479655,,,,,,,
50265,set_tempo,14,1,0,,,,,,480808,,,,,,,
50280,note_on,40,0,2,,,,,,,,,0,,,56,0
50280,set_tempo,15,1,0,,,,,,481966,,,,,,,
50280,note_on,0,0,2,,,,,,,,,0,,,59,76
50294,set_tempo,14,1,0,,,,,,483131,,,,,,,
50315,set_tempo,21,1,0,,,,,,484301,,,,,,,
50320,note_on,0,0,2,,,,,,,,,0,,,56,78
50320,note_on,40,0,2,,,,,,,,,0,,,59,0
50329,set_tempo,14,1,0,,,,,,485476,,,,,,,
50343,set_tempo,14,1,0,,,,,,486657,,,,,,,
50357,set_tempo,14,1,0,,,,,,487845,,,,,,,
50360,note_on,0,0,2,,,,,,,,,0,,,51,79
50360,note_on,40,0,2,,,,,,,,,0,,,56,0
50371,set_tempo,14,1,0,,,,,,489037,,,,,,,
50385,control_change,465,0,3,,,,,,,,,0,64,0,,
50385,set_tempo,14,1,0,,,,,,490236,,,,,,,
50400,set_tempo,15,1,0,,,,,,491441,,,,,,,
50400,note_on,480,0,1,,,,,,,,,0,,,63,0
50400,note_on,0,0,2,,,,,,,,,0,,,30,91
50400,note_on,0,0,2,,,,,,,,,0,,,32,0
50400,note_on,40,0,2,,,,,,,,,0,,,51,0
50400,note_on,0,0,1,,,,,,,,,0,,,68,91
50400,control_change,15,0,3,,,,,,,,,0,64,127,,
50414,set_tempo,14,1,0,,,,,,492651,,,,,,,
50428,set_tempo,14,1,0,,,,,,493868,,,,,,,
50430,note_on,0,0,2,,,,,,,,,0,,,32,93
50430,note_on,30,0,2,,,,,,,,,0,,,30,0
50440,note_on,40,0,1,,,,,,,,,0,,,56,83
50442,set_tempo,14,1,0,,,,,,495090,,,,,,,
50456,set_tempo,14,1,0,,,,,,496319,,,,,,,
50460,note_on,30,0,2,,,,,,,,,0,,,32,0
50460,note_on,0,0,2,,,,,,,,,0,,,30,94
50470,set_tempo,14,1,0,,,,,,497554,,,,,,,
50480,note_on,20,0,2,,,,,,,,,0,,,30,0
50480,note_on,0,0,1,,,,,,,,,0,,,59,85
50480,note_on,0,0,2,,,,,,,,,0,,,32,95
50480,note_on,40,0,1,,,,,,,,,0,,,56,0
50484,set_tempo,14,1,0,,,,,,498795,,,,,,,
50498,set_tempo,14,1,0,,,,,,500042,,,,,,,
50500,note_on,20,0,2,,,,,,,,,0,,,32,0
50500,note_on,0,0,2,,,,,,,,,0,,,30,96
50512,set_tempo,14,1,0,,,,,,501295,,,,,,,
50520,note_on,20,0,2,,,,,,,,,0,,,30,0
50520,note_on,0,0,2,,,,,,,,,0,,,32,96
50520,note_on,0,0,1,,,,,,,,,0,,,62,86
50520,note_on,40,0,1,,,,,,,,,0,,,59,0
50527,set_tempo,15,1,0,,,,,,502555,,,,,,,
50540,note_on,20,0,2,,,,,,,,,0,,,32,0
50540,note_on,0,0,2,,,,,,,,,0,,,30,97
50541,set_tempo,14,1,0,,,,,,503821,,,,,,,
50555,set_tempo,14,1,0,,,,,,505093,,,,,,,
50560,note_on,40,0,1,,,,,,,,,0,,,62,0
50560,note_on,0,0,1,,,,,,,,,0,,,59,88
50560,note_on,20,0,2,,,,,,,,,0,,,30,0
50560,note_on,0,0,2,,,,,,,,,0,,,32,98
50569,set_tempo,14,1,0,,,,,,506372,,,,,,,
50580,note_on,20,0,2,,,,,,,,,0,,,32,0
50580,note_on,0,0,2,,,,,,,,,0,,,30,99
50583,set_tempo,14,1,0,,,,,,507657,,,,,,,
50597,set_tempo,14,1,0,,,,,,508949,,,,,,,
50600,note_on,0,0,1,,,,,,,,,0,,,56,90
50600,note_on,40,0,1,,,,,,,,,0,,,59,0
50600,note_on,0,0,2,,,,,,,,,0,,,32,100
50600,note_on,20,0,2,,,,,,,,,0,,,30,0
50611,set_tempo,14,1,0,,,,,,510247,,,,,,,
50620,note_on,20,0,2,,,,,,,,,0,,,32,0
50620,note_on,0,0,2,,,,,,,,,0,,,30,101
50625,set_tempo,14,1,0,,,,,,511553,,,,,,,
50640,note_on,0,0,1,,,,,,,,,0,,,59,92
50640,note_on,0,0,2,,,,,,,,,0,,,32,102
50640,note_on,40,0,1,,,,,,,,,0,,,56,0
50640,note_on,20,0,2,,,,,,,,,0,,,30,0
50640,set_tempo,15,1,0,,,,,,512864,,,,,,,
50654,set_tempo,14,1,0,,,,,,514183,,,,,,,
50660,note_on,20,0,2,,,,,,,,,0,,,32,0
50660,note_on,0,0,2,,,,,,,,,0,,,30,103
50668,set_tempo,14,1,0,,,,,,515508,,,,,,,
50680,note_on,40,0,1,,,,,,,,,0,,,59,0
50680,note_on,0,0,1,,,,,,,,,0,,,56,93
50680,note_on,20,0,2,,,,,,,,,0,,,30,0
50680,note_on,0,0,2,,,,,,,,,0,,,32,103
50682,set_tempo,14,1,0,,,,,,516840,,,,,,,
50700,note_on,20,0,2,,,,,,,,,0,,,32,0
50700,note_on,0,0,2,,,,,,,,,0,,,30,104
50703,set_tempo,21,1,0,,,,,,518179,,,,,,,
50717,set_tempo,14,1,0,,,,,,519526,,,,,,,
50720,note_on,20,0,2,,,,,,,,,0,,,30,0
50720,note_on,0,0,2,,,,,,,,,0,,,32,105
50720,note_on,40,0,1,,,,,,,,,0,,,56,0
50720,note_on,0,0,1,,,,,,,,,0,,,59,95
50731,set_tempo,14,1,0,,,,,,520879,,,,,,,
50740,note_on,0,0,2,,,,,,,,,0,,,30,106
50740,note_on,20,0,2,,,,,,,,,0,,,32,0
50745,set_tempo,14,1,0,,,,,,522239,,,,,,,
50760,note_on,0,0,2,,,,,,,,,0,,,32,107
50760,note_on,20,0,2,,,,,,,,,0,,,30,0
50760,note_on,40,0,1,,,,,,,,,0,,,59,0
50760,note_on,0,0,1,,,,,,,,,0,,,62,97
50760,set_tempo,15,1,0,,,,,,523606,,,,,,,
50774,set_tempo,14,1,0,,,,,,524980,,,,,,,
50780,note_on,0,0,2,,,,,,,,,0,,,30,108
50780,note_on,20,0,2,,,,,,,,,0,,,32,0
50788,set_tempo,14,1,0,,,,,,526362,,,,,,,
50800,note_on,20,0,2,,,,,,,,,0,,,30,0
50800,note_on,0,0,2,,,,,,,,,0,,,32,109
50800,note_on,40,0,1,,,,,,,,,0,,,62,0
50800,note_on,0,0,1,,,,,,,,,0,,,59,99
50802,set_tempo,14,1,0,,,,,,527751,,,,,,,
50816,set_tempo,14,1,0,,,,,,529147,,,,,,,
50820,note_on,20,0,2,,,,,,,,,0,,,32,0
50820,note_on,0,0,2,,,,,,,,,0,,,30,109
50830,set_tempo,14,1,0,,,,,,530551,,,,,,,
50840,note_on,40,0,1,,,,,,,,,0,,,59,0
50840,note_on,0,0,1,,,,,,,,,0,,,56,100
50840,note_on,20,0,2,,,,,,,,,0,,,30,0
50840,note_on,0,0,2,,,,,,,,,0,,,29,110
50844,set_tempo,14,1,0,,,,,,531962,,,,,,,
50858,set_tempo,14,1,0,,,,,,533381,,,,,,,
50860,note_on,20,0,2,,,,,,,,,0,,,29,0
50860,note_on,0,0,2,,,,,,,,,0,,,30,110
50865,control_change,465,0,3,,,,,,,,,0,64,0,,
50872,set_tempo,14,1,0,,,,,,534807,,,,,,,
50880,note_on,20,0,2,,,,,,,,,0,,,30,0
50880,note_on,0,0,2,,,,,,,,,0,,,29,110
50880,note_on,0,0,1,,,,,,,,,0,,,71,110
50880,note_on,0,0,2,,,,,,,,,0,,,41,110
50880,control_change,15,0,3,,,,,,,,,0,64,127,,
50880,note_on,40,0,1,,,,,,,,,0,,,56,0
50880,note_on,0,0,1,,,,,,,,,0,,,68,0
50887,set_tempo,15,1,0,,,,,,536241,,,,,,,
50901,set_tempo,14,1,0,,,,,,537683,,,,,,,
50915,set_tempo,14,1,0,,,,,,539132,,,,,,,
50920,note_on,40,0,1,,,,,,,,,0,,,59,98
50929,set_tempo,14,1,0,,,,,,540589,,,,,,,
50943,set_tempo,14,1,0,,,,,,542054,,,,,,,
50957,set_tempo,14,1,0,,,,,,543527,,,,,,,
50960,note_on,0,0,1,,,,,,,,,0,,,61,95
50960,note_on,40,0,1,,,,,,,,,0,,,59,0
50971,set_tempo,14,1,0,,,,,,545009,,,,,,,
50985,set_tempo,14,1,0,,,,,,546498,,,,,,,
51000,note_on,40,0,1,,,,,,,,,0,,,61,0
51000,note_on,0,0,1,,,,,,,,,0,,,68,93
51000,set_tempo,15,1,0,,,,,,547995,,,,,,,
51014,set_tempo,14,1,0,,,,,,549501,,,,,,,
51028,set_tempo,14,1,0,,,,,,551015,,,,,,,
51040,note_on,0,0,1,,,,,,,,,0,,,61,90
51040,note_on,40,0,1,,,,,,,,,0,,,68,0
51042,set_tempo,14,1,0,,,,,,552537,,,,,,,
51056,set_tempo,14,1,0,,,,,,554068,,,,,,,
51077,set_tempo,21,1,0,,,,,,555607,,,,,,,
51080,note_on,0,0,1,,,,,,,,,0,,,59,87
51080,note_on,40,0,1,,,,,,,,,0,,,61,0
51091,set_tempo,14,1,0,,,,,,557155,,,,,,,
51105,set_tempo,14,1,0,,,,,,558711,,,,,,,
51120,note_on,0,0,2,,,,,,,,,0,,,41,95
51120,note_on,240,0,2,,,,,,,,,0,,,29,0
51120,set_tempo,15,1,0,,,,,,560276,,,,,,,
51120,note_on,40,0,1,,,,,,,,,0,,,59,0
51120,note_on,0,0,1,,,,,,,,,0,,,61,85
51134,set_tempo,14,1,0,,,,,,561850,,,,,,,
51148,set_tempo,14,1,0,,,,,,563433,,,,,,,
51160,note_on,40,0,1,,,,,,,,,0,,,61,0
51160,note_on,0,0,1,,,,,,,,,0,,,59,82
51162,set_tempo,14,1,0,,,,,,565025,,,,,,,
51176,set_tempo,14,1,0,,,,,,566626,,,,,,,
51180,note_on,0,0,2,,,,,,,,,0,,,44,91
51180,note_on,60,0,2,,,,,,,,,0,,,41,0
51190,set_tempo,14,1,0,,,,,,568236,,,,,,,
51200,note_on,0,0,1,,,,,,,,,0,,,61,79
51200,note_on,40,0,1,,,,,,,,,0,,,59,0
51204,set_tempo,14,1,0,,,,,,569855,,,,,,,
51218,set_tempo,14,1,0,,,,,,571483,,,,,,,
51232,set_tempo,14,1,0,,,,,,573121,,,,,,,
51240,note_on,40,0,1,,,,,,,,,0,,,61,0
51240,note_on,0,0,2,,,,,,,,,0,,,47,87
51240,note_on,60,0,2,,,,,,,,,0,,,44,0
51240,note_on,0,0,1,,,,,,,,,0,,,68,77
51247,set_tempo,15,1,0,,,,,,574768,,,,,,,
51261,set_tempo,14,1,0,,,,,,576424,,,,,,,
51275,set_tempo,14,1,0,,,,,,578090,,,,,,,
51280,note_on,40,0,1,,,,,,,,,0,,,68,0
51280,note_on,0,0,1,,,,,,,,,0,,,61,74
51289,set_tempo,14,1,0,,,,,,579766,,,,,,,
51300,note_on,0,0,2,,,,,,,,,0,,,49,83
51300,note_on,60,0,2,,,,,,,,,0,,,47,0
51303,set_tempo,14,1,0,,,,,,581452,,,,,,,
51317,set_tempo,14,1,0,,,,,,583147,,,,,,,
51320,note_on,0,0,1,,,,,,,,,0,,,59,71
51320,note_on,40,0,1,,,,,,,,,0,,,61,0
51331,set_tempo,14,1,0,,,,,,584852,,,,,,,
51345,control_change,465,0,3,,,,,,,,,0,64,0,,
51345,set_tempo,14,1,0,,,,,,586568,,,,,,,
51360,note_on,0,0,1,,,,,,,,,0,,,62,69
51360,control_change,15,0,3,,,,,,,,,0,64,127,,
51360,note_on,60,0,2,,,,,,,,,0,,,49,0
51360,note_on,0,0,2,,,,,,,,,0,,,41,0
51360,note_on,0,0,2,,,,,,,,,0,,,41,79
51360,note_on,0,0,2,,,,,,,,,0,,,50,79
51360,note_on,40,0,1,,,,,,,,,0,,,59,0
51360,set_tempo,15,1,0,,,,,,588293,,,,,,,
51374,set_tempo,14,1,0,,,,,,590029,,,,,,,
51388,set_tempo,14,1,0,,,,,,591774,,,,,,,
51400,note_on,0,0,1,,,,,,,,,0,,,59,66
51400,note_on,40,0,1,,,,,,,,,0,,,62,0
51402,set_tempo,14,1,0,,,,,,593531,,,,,,,
51416,set_tempo,14,1,0,,,,,,595297,,,,,,,
51430,set_tempo,14,1,0,,,,,,597074,,,,,,,
51440,note_on,0,0,1,,,,,,,,,0,,,62,63
51440,note_on,40,0,1,,,,,,,,,0,,,59,0
51444,set_tempo,14,1,0,,,,,,598862,,,,,,,
51465,set_tempo,21,1,0,,,,,,600661,,,,,,,
51480,note_on,40,0,1,,,,,,,,,0,,,62,0
51480,note_on,0,0,1,,,,,,,,,0,,,68,61
51480,set_tempo,15,1,0,,,,,,602470,,,,,,,
51494,set_tempo,14,1,0,,,,,,604290,,,,,,,
51508,set_tempo,14,1,0,,,,,,606122,,,,,,,
51520,note_on,40,0,1,,,,,,,,,0,,,68,0
51520,note_on,0,0,1,,,,,,,,,0,,,62,58
51522,set_tempo,14,1,0,,,,,,607964,,,,,,,
51536,set_tempo,14,1,0,,,,,,609818,,,,,,,
51550,set_tempo,14,1,0,,,,,,611683,,,,,,,
51560,note_on,40,0,1,,,,,,,,,0,,,62,0
51560,note_on,0,0,1,,,,,,,,,0,,,59,55
51564,set_tempo,14,1,0,,,,,,613560,,,,,,,
51578,set_tempo,14,1,0,,,,,,615448,,,,,,,
51585,control_change,225,0,3,,,,,,,,,0,64,0,,
51592,set_tempo,14,1,0,,,,,,617347,,,,,,,
51600,note_on,240,0,2,,,,,,,,,0,,,50,0
51600,note_on,40,0,1,,,,,,,,,0,,,59,0
51600,note_on,0,0,1,,,,,,,,,0,,,61,53
51600,note_on,0,0,2,,,,,,,,,0,,,49,63
51600,control_change,15,0,3,,,,,,,,,0,64,127,,
51607,set_tempo,15,1,0,,,,,,619259,,,,,,,
51621,set_tempo,14,1,0,,,,,,621182,,,,,,,
51635,set_tempo,14,1,0,,,,,,623118,,,,,,,
51640,note_on,40,0,1,,,,,,,,,0,,,61,0
51640,note_on,0,0,1,,,,,,,,,0,,,59,50
51649,set_tempo,14,1,0,,,,,,625065,,,,,,,
51663,set_tempo,14,1,0,,,,,,627025,,,,,,,
51677,set_tempo,14,1,0,,,,,,628997,,,,,,,
51680,note_on,0,0,1,,,,,,,,,0,,,61,47
51680,note_on,40,0,1,,,,,,,,,0,,,59,0
51691,set_tempo,14,1,0,,,,,,630981,,,,,,,
51705,set_tempo,14,1,0,,,,,,632978,,,,,,,
51720,note_on,40,0,1,,,,,,,,,0,,,61,0
51720,set_tempo,15,1,0,,,,,,634988,,,,,,,
51720,note_on,0,0,1,,,,,,,,,0,,,68,45
51734,set_tempo,14,1,0,,,,,,637010,,,,,,,
51748,set_tempo,14,1,0,,,,,,639046,,,,,,,
51760,note_on,40,0,1,,,,,,,,,0,,,68,0
51760,note_on,0,0,1,,,,,,,,,0,,,61,42
51762,set_tempo,14,1,0,,,,,,641094,,,,,,,
51776,set_tempo,14,1,0,,,,,,643156,,,,,,,
51790,set_tempo,14,1,0,,,,,,645231,,,,,,,
51800,note_on,40,0,1,,,,,,,,,0,,,61,0
51800,note_on,0,0,1,,,,,,,,,0,,,59,40
51804,set_tempo,14,1,0,,,,,,647319,,,,,,,
51818,set_tempo,14,1,0,,,,,,649421,,,,,,,
51825,control_change,225,0,3,,,,,,,,,0,64,0,,
51832,set_tempo,14,1,0,,,,,,651537,,,,,,,
51840,control_change,15,0,3,,,,,,,,,0,64,127,,
51840,note_on,0,0,1,,,,,,,,,0,,,70,50
51840,note_on,0,0,1,,,,,,,,,0,,,71,0
51840,note_on,40,0,1,,,,,,,,,0,,,59,0
51840,note_on,0,0,2,,,,,,,,,0,,,49,50
51840,note_on,0,0,2,,,,,,,,,0,,,42,50
51840,note_on,0,0,2,,,,,,,,,0,,,41,0
51840,note_on,240,0,2,,,,,,,,,0,,,49,0
51840,set_tempo,8,1,0,,,,,,652174,,,,,,,
51840,marker,0,1,0,,,,,,,,,,,,,
51847,set_tempo,7,1,0,,,,,,651537,,,,,,,
51854,set_tempo,7,1,0,,,,,,634988,,,,,,,
51861,set_tempo,7,1,0,,,,,,617347,,,,,,,
51868,set_tempo,7,1,0,,,,,,600661,,,,,,,
51875,set_tempo,7,1,0,,,,,,584852,,,,,,,
51880,note_on,40,0,1,,,,,,,,,0,,,58,40
51882,set_tempo,7,1,0,,,,,,569855,,,,,,,
51889,set_tempo,7,1,0,,,,,,555607,,,,,,,
51896,set_tempo,7,1,0,,,,,,542054,,,,,,,
51903,set_tempo,7,1,0,,,,,,530551,,,,,,,
51910,set_tempo,7,1,0,,,,,,518179,,,,,,,
51917,set_tempo,7,1,0,,,,,,506372,,,,,,,
51920,note_on,40,0,1,,,,,,,,,0,,,58,0
51920,note_on,0,0,1,,,,,,,,,0,,,61,40
51924,set_tempo,7,1,0,,,,,,495090,,,,,,,
51931,set_tempo,7,1,0,,,,,,484301,,,,,,,
51938,set_tempo,7,1,0,,,,,,473971,,,,,,,
51945,set_tempo,7,1,0,,,,,,464073,,,,,,,
51952,set_tempo,7,1,0,,,,,,454580,,,,,,,
51960,note_on,40,0,1,,,,,,,,,0,,,61,0
51960,note_on,0,0,1,,,,,,,,,0,,,66,40
51960,set_tempo,8,1,0,,,,,,454545,,,,,,,
52000,note_on,0,0,1,,,,,,,,,0,,,61,40
52000,note_on,40,0,1,,,,,,,,,0,,,66,0
52040,note_on,0,0,1,,,,,,,,,0,,,58,40
52040,note_on,40,0,1,,,,,,,,,0,,,61,0
52080,note_on,40,0,1,,,,,,,,,0,,,58,0
52080,note_on,0,0,1,,,,,,,,,0,,,61,40
52120,note_on,40,0,1,,,,,,,,,0,,,61,0
52120,note_on,0,0,1,,,,,,,,,0,,,58,40
52160,note_on,40,0,1,,,,,,,,,0,,,58,0
52160,note_on,0,0,1,,,,,,,,,0,,,61,40
52200,note_on,40,0,1,,,,,,,,,0,,,61,0
52200,note_on,0,0,1,,,,,,,,,0,,,66,40
52240,note_on,0,0,1,,,,,,,,,0,,,61,40
52240,note_on,40,0,1,,,,,,,,,0,,,66,0
52280,note_on,0,0,1,,,,,,,,,0,,,58,40
52280,note_on,40,0,1,,,,,,,,,0,,,61,0
52320,note_on,0,0,2,,,,,,,,,0,,,42,0
52320,note_on,480,0,2,,,,,,,,,0,,,49,0
52320,note_on,0,0,1,,,,,,,,,0,,,70,0
52320,note_on,0,0,2,,,,,,,,,0,,,49,50
52320,note_on,0,0,1,,,,,,,,,0,,,70,50
52320,note_on,40,0,1,,,,,,,,,0,,,58,0
52320,note_on,0,0,2,,,,,,,,,0,,,42,50
52360,note_on,40,0,1,,,,,,,,,0,,,58,40
52400,note_on,0,0,1,,,,,,,,,0,,,61,40
52400,note_on,40,0,1,,,,,,,,,0,,,58,0
52440,note_on,0,0,1,,,,,,,,,0,,,66,40
52440,note_on,40,0,1,,,,,,,,,0,,,61,0
52480,note_on,0,0,1,,,,,,,,,0,,,61,40
52480,note_on,40,0,1,,,,,,,,,0,,,66,0
52520,note_on,40,0,1,,,,,,,,,0,,,61,0
52520,note_on,0,0,1,,,,,,,,,0,,,58,40
52560,note_on,0,0,2,,,,,,,,,0,,,42,0
52560,note_on,0,0,1,,,,,,,,,0,,,70,0
52560,set_tempo,600,1,0,,,,,,454580,,,,,,,
52560,note_on,40,0,1,,,,,,,,,0,,,58,0
52560,note_on,0,0,1,,,,,,,,,0,,,70,50
52560,note_on,240,0,2,,,,,,,,,0,,,49,0
52560,note_on,0,0,2,,,,,,,,,0,,,42,50
52560,note_on,0,0,2,,,,,,,,,0,,,49,50
52567,set_tempo,7,1,0,,,,,,458751,,,,,,,
52574,set_tempo,7,1,0,,,,,,462999,,,,,,,
52581,set_tempo,7,1,0,,,,,,467326,,,,,,,
52588,set_tempo,7,1,0,,,,,,471735,,,,,,,
52595,set_tempo,7,1,0,,,,,,476228,,,,,,,
52600,note_on,40,0,1,,,,,,,,,0,,,58,40
52602,set_tempo,7,1,0,,,,,,480808,,,,,,,
52609,set_tempo,7,1,0,,,,,,485476,,,,,,,
52616,set_tempo,7,1,0,,,,,,490236,,,,,,,
52623,set_tempo,7,1,0,,,,,,495090,,,,,,,
52630,set_tempo,7,1,0,,,,,,500042,,,,,,,
52637,set_tempo,7,1,0,,,,,,505093,,,,,,,
52640,note_on,40,0,1,,,,,,,,,0,,,58,0
52640,note_on,0,0,1,,,,,,,,,0,,,61,40
52644,set_tempo,7,1,0,,,,,,510247,,,,,,,
52651,set_tempo,7,1,0,,,,,,515508,,,,,,,
52658,set_tempo,7,1,0,,,,,,520879,,,,,,,
52665,set_tempo,7,1,0,,,,,,526362,,,,,,,
52672,set_tempo,7,1,0,,,,,,531962,,,,,,,
52680,set_tempo,8,1,0,,,,,,537683,,,,,,,
52680,note_on,0,0,1,,,,,,,,,0,,,66,40
52680,note_on,40,0,1,,,,,,,,,0,,,61,0
52687,set_tempo,7,1,0,,,,,,543527,,,,,,,
52694,set_tempo,7,1,0,,,,,,549501,,,,,,,
52701,set_tempo,7,1,0,,,,,,555607,,,,,,,
52708,set_tempo,7,1,0,,,,,,561850,,,,,,,
52715,set_tempo,7,1,0,,,,,,568236,,,,,,,
52720,note_on,0,0,1,,,,,,,,,0,,,61,40
52720,note_on,40,0,1,,,,,,,,,0,,,66,0
52722,set_tempo,7,1,0,,,,,,574768,,,,,,,
52729,set_tempo,7,1,0,,,,,,581452,,,,,,,
52736,set_tempo,7,1,0,,,,,,588293,,,,,,,
52743,set_tempo,7,1,0,,,,,,595297,,,,,,,
52750,set_tempo,7,1,0,,,,,,602470,,,,,,,
52757,set_tempo,7,1,0,,,,,,609818,,,,,,,
52760,note_on,0,0,1,,,,,,,,,0,,,58,40
52760,note_on,40,0,1,,,,,,,,,0,,,61,0
52764,set_tempo,7,1,0,,,,,,617347,,,,,,,
52771,set_tempo,7,1,0,,,,,,625065,,,,,,,
52778,set_tempo,7,1,0,,,,,,632978,,,,,,,
52785,set_tempo,7,1,0,,,,,,641094,,,,,,,
52785,control_change,945,0,3,,,,,,,,,0,64,0,,
52792,set_tempo,7,1,0,,,,,,651537,,,,,,,
52800,note_on,0,0,2,,,,,,,,,0,,,51,50
52800,set_tempo,8,1,0,,,,,,454545,,,,,,,
52800,note_on,0,0,2,,,,,,,,,0,,,39,50
52800,note_on,0,0,2,,,,,,,,,0,,,49,0
52800,note_on,240,0,2,,,,,,,,,0,,,42,0
52800,note_on,40,0,1,,,,,,,,,0,,,58,0
52800,note_on,0,0,1,,,,,,,,,0,,,70,0
52800,note_on,0,0,1,,,,,,,,,0,,,70,50
52800,control_change,15,0,3,,,,,,,,,0,64,127,,
52840,note_on,40,0,1,,,,,,,,,0,,,58,40
52880,note_on,0,0,1,,,,,,,,,0,,,63,40
52880,note_on,40,0,1,,,,,,,,,0,,,58,0
52920,note_on,40,0,1,,,,,,,,,0,,,63,0
52920,note_on,0,0,1,,,,,,,,,0,,,66,40
52960,note_on,0,0,1,,,,,,,,,0,,,63,40
52960,note_on,40,0,1,,,,,,,,,0,,,66,0
53000,note_on,40,0,1,,,,,,,,,0,,,63,0
53000,note_on,0,0,1,,,,,,,,,0,,,58,40
53040,note_on,40,0,1,,,,,,,,,0,,,58,0
53040,note_on,0,0,1,,,,,,,,,0,,,63,40
53080,note_on,40,0,1,,,,,,,,,0,,,63,0
53080,note_on,0,0,1,,,,,,,,,0,,,58,40
53120,note_on,40,0,1,,,,,,,,,0,,,58,0
53120,note_on,0,0,1,,,,,,,,,0,,,63,40
53160,note_on,0,0,1,,,,,,,,,0,,,66,40
53160,note_on,40,0,1,,,,,,,,,0,,,63,0
53200,note_on,0,0,1,,,,,,,,,0,,,63,40
53200,note_on,40,0,1,,,,,,,,,0,,,66,0
53240,note_on,40,0,1,,,,,,,,,0,,,63,0
53240,note_on,0,0,1,,,,,,,,,0,,,58,40
53280,note_on,0,0,1,,,,,,,,,0,,,66,50
53280,note_on,0,0,1,,,,,,,,,0,,,70,0
53280,note_on,40,0,1,,,,,,,,,0,,,58,0
53320,note_on,40,0,1,,,,,,,,,0,,,54,40
53360,note_on,40,0,1,,,,,,,,,0,,,54,0
53360,note_on,0,0,1,,,,,,,,,0,,,58,40
53400,note_on,40,0,1,,,,,,,,,0,,,58,0
53400,note_on,0,0,1,,,,,,,,,0,,,63,40
53440,note_on,40,0,1,,,,,,,,,0,,,63,0
53440,note_on,0,0,1,,,,,,,,,0,,,58,40
53480,note_on,40,0,1,,,,,,,,,0,,,58,0
53480,note_on,0,0,1,,,,,,,,,0,,,54,40
53520,note_on,0,0,1,,,,,,,,,0,,,58,40
53520,note_on,40,0,1,,,,,,,,,0,,,54,0
53560,note_on,40,0,1,,,,,,,,,0,,,58,0
53560,note_on,0,0,1,,,,,,,,,0,,,54,40
53600,note_on,40,0,1,,,,,,,,,0,,,54,0
53600,note_on,0,0,1,,,,,,,,,0,,,58,40
53640,note_on,40,0,1,,,,,,,,,0,,,58,0
53640,note_on,0,0,1,,,,,,,,,0,,,63,40
53680,note_on,40,0,1,,,,,,,,,0,,,63,0
53680,note_on,0,0,1,,,,,,,,,0,,,58,40
53720,note_on,40,0,1,,,,,,,,,0,,,58,0
53720,note_on,0,0,1,,,,,,,,,0,,,54,40
53745,control_change,945,0,3,,,,,,,,,0,64,0,,
53760,control_change,15,0,3,,,,,,,,,0,64,127,,
53760,note_on,0,0,2,,,,,,,,,0,,,39,0
53760,note_on,40,0,1,,,,,,,,,0,,,54,0
53760,note_on,0,0,1,,,,,,,,,0,,,68,50
53760,note_on,0,0,1,,,,,,,,,0,,,66,0
53760,note_on,960,0,2,,,,,,,,,0,,,51,0
53760,note_on,0,0,2,,,,,,,,,0,,,35,50
53760,note_on,0,0,2,,,,,,,,,0,,,47,50
53800,note_on,40,0,1,,,,,,,,,0,,,56,40
53840,note_on,40,0,1,,,,,,,,,0,,,56,0
53840,note_on,0,0,1,,,,,,,,,0,,,59,41
53880,note_on,0,0,1,,,,,,,,,0,,,63,41
53880,note_on,40,0,1,,,,,,,,,0,,,59,0
53920,note_on,0,0,1,,,,,,,,,0,,,59,42
53920,note_on,40,0,1,,,,,,,,,0,,,63,0
53960,note_on,0,0,1,,,,,,,,,0,,,56,42
53960,note_on,40,0,1,,,,,,,,,0,,,59,0
54000,note_on,40,0,1,,,,,,,,,0,,,56,0
54000,note_on,0,0,1,,,,,,,,,0,,,59,43
54040,note_on,0,0,1,,,,,,,,,0,,,56,44
54040,note_on,40,0,1,,,,,,,,,0,,,59,0
54080,note_on,0,0,1,,,,,,,,,0,,,59,44
54080,note_on,40,0,1,,,,,,,,,0,,,56,0
54120,note_on,40,0,1,,,,,,,,,0,,,59,0
54120,note_on,0,0,1,,,,,,,,,0,,,63,45
54160,note_on,40,0,1,,,,,,,,,0,,,63,0
54160,note_on,0,0,1,,,,,,,,,0,,,59,45
54200,note_on,40,0,1,,,,,,,,,0,,,59,0
54200,note_on,0,0,1,,,,,,,,,0,,,56,46
54225,control_change,465,0,3,,,,,,,,,0,64,0,,
54240,set_tempo,1440,1,0,,,,,,454580,,,,,,,
54240,note_on,0,0,1,,,,,,,,,0,,,66,57
54240,note_on,0,0,1,,,,,,,,,0,,,68,0
54240,note_on,40,0,1,,,,,,,,,0,,,56,0
54240,note_on,480,0,2,,,,,,,,,0,,,47,0
54240,note_on,0,0,2,,,,,,,,,0,,,49,57
54240,note_on,0,0,2,,,,,,,,,0,,,37,57
54240,note_on,0,0,2,,,,,,,,,0,,,35,0
54240,control_change,15,0,3,,,,,,,,,0,64,127,,
54254,set_tempo,14,1,0,,,,,,455615,,,,,,,
54261,set_tempo,7,1,0,,,,,,456656,,,,,,,
54268,set_tempo,7,1,0,,,,,,457701,,,,,,,
54275,set_tempo,7,1,0,,,,,,458751,,,,,,,
54280,note_on,40,0,1,,,,,,,,,0,,,56,47
54282,set_tempo,7,1,0,,,,,,459805,,,,,,,
54289,set_tempo,7,1,0,,,,,,460865,,,,,,,
54296,set_tempo,7,1,0,,,,,,461929,,,,,,,
54303,set_tempo,7,1,0,,,,,,462999,,,,,,,
54310,set_tempo,7,1,0,,,,,,464073,,,,,,,
54317,set_tempo,7,1,0,,,,,,465152,,,,,,,
54320,note_on,0,0,1,,,,,,,,,0,,,59,48
54320,note_on,40,0,1,,,,,,,,,0,,,56,0
54324,set_tempo,7,1,0,,,,,,466237,,,,,,,
54331,set_tempo,7,1,0,,,,,,467326,,,,,,,
54338,set_tempo,7,1,0,,,,,,468421,,,,,,,
54345,set_tempo,7,1,0,,,,,,469520,,,,,,,
54345,control_change,105,0,3,,,,,,,,,0,64,0,,
54352,set_tempo,7,1,0,,,,,,470625,,,,,,,
54360,control_change,15,0,3,,,,,,,,,0,64,127,,
54360,note_on,0,0,1,,,,,,,,,0,,,66,0
54360,note_on,0,0,1,,,,,,,,,0,,,65,58
54360,note_on,40,0,1,,,,,,,,,0,,,59,0
54360,set_tempo,8,1,0,,,,,,471735,,,,,,,
54367,set_tempo,7,1,0,,,,,,472851,,,,,,,
54374,set_tempo,7,1,0,,,,,,473971,,,,,,,
54381,set_tempo,7,1,0,,,,,,475097,,,,,,,
54388,set_tempo,7,1,0,,,,,,476228,,,,,,,
54395,set_tempo,7,1,0,,,,,,477365,,,,,,,
54400,note_on,40,0,1,,,,,,,,,0,,,56,49
54402,set_tempo,7,1,0,,,,,,478507,,,,,,,
54409,set_tempo,7,1,0,,,,,,479655,,,,,,,
54416,set_tempo,7,1,0,,,,,,480808,,,,,,,
54423,set_tempo,7,1,0,,,,,,481966,,,,,,,
54430,set_tempo,7,1,0,,,,,,483131,,,,,,,
54437,set_tempo,7,1,0,,,,,,484301,,,,,,,
54440,note_on,0,0,1,,,,,,,,,0,,,59,49
54440,note_on,40,0,1,,,,,,,,,0,,,56,0
54444,set_tempo,7,1,0,,,,,,485476,,,,,,,
54451,set_tempo,7,1,0,,,,,,486657,,,,,,,
54458,set_tempo,7,1,0,,,,,,487845,,,,,,,
54465,control_change,105,0,3,,,,,,,,,0,64,0,,
54465,set_tempo,7,1,0,,,,,,489037,,,,,,,
54472,set_tempo,7,1,0,,,,,,490236,,,,,,,
54480,note_on,0,0,1,,,,,,,,,0,,,63,60
54480,note_on,0,0,1,,,,,,,,,0,,,65,0
54480,note_on,40,0,1,,,,,,,,,0,,,59,0
54480,control_change,15,0,3,,,,,,,,,0,64,127,,
54480,set_tempo,8,1,0,,,,,,491441,,,,,,,
54487,set_tempo,7,1,0,,,,,,492651,,,,,,,
54494,set_tempo,7,1,0,,,,,,493868,,,,,,,
54501,set_tempo,7,1,0,,,,,,495090,,,,,,,
54508,set_tempo,7,1,0,,,,,,496319,,,,,,,
54515,set_tempo,7,1,0,,,,,,497554,,,,,,,
54520,note_on,40,0,1,,,,,,,,,0,,,56,51
54522,set_tempo,7,1,0,,,,,,498795,,,,,,,
54529,set_tempo,7,1,0,,,,,,500042,,,,,,,
54536,set_tempo,7,1,0,,,,,,501295,,,,,,,
54543,set_tempo,7,1,0,,,,,,502555,,,,,,,
54550,set_tempo,7,1,0,,,,,,503821,,,,,,,
54557,set_tempo,7,1,0,,,,,,505093,,,,,,,
54560,note_on,40,0,1,,,,,,,,,0,,,56,0
54560,note_on,0,0,1,,,,,,,,,0,,,59,51
54564,set_tempo,7,1,0,,,,,,506372,,,,,,,
54571,set_tempo,7,1,0,,,,,,507657,,,,,,,
54578,set_tempo,7,1,0,,,,,,508949,,,,,,,
54585,set_tempo,7,1,0,,,,,,510247,,,,,,,
54585,control_change,105,0,3,,,,,,,,,0,64,0,,
54592,set_tempo,7,1,0,,,,,,511553,,,,,,,
54600,note_on,0,0,2,,,,,,,,,0,,,47,62
54600,note_on,0,0,2,,,,,,,,,0,,,49,62
54600,note_on,0,0,2,,,,,,,,,0,,,37,0
54600,note_on,360,0,2,,,,,,,,,0,,,49,0
54600,note_on,0,0,1,,,,,,,,,0,,,63,0
54600,note_on,40,0,1,,,,,,,,,0,,,59,0
54600,note_on,0,0,1,,,,,,,,,0,,,61,62
54600,control_change,15,0,3,,,,,,,,,0,64,127,,
54600,set_tempo,8,1,0,,,,,,512864,,,,,,,
54607,set_tempo,7,1,0,,,,,,514183,,,,,,,
54614,set_tempo,7,1,0,,,,,,515508,,,,,,,
54621,set_tempo,7,1,0,,,,,,516840,,,,,,,
54628,set_tempo,7,1,0,,,,,,518179,,,,,,,
54635,set_tempo,7,1,0,,,,,,519526,,,,,,,
54640,note_on,40,0,1,,,,,,,,,0,,,53,52
54642,set_tempo,7,1,0,,,,,,520879,,,,,,,
54649,set_tempo,7,1,0,,,,,,522239,,,,,,,
54656,set_tempo,7,1,0,,,,,,523606,,,,,,,
54663,set_tempo,7,1,0,,,,,,524980,,,,,,,
54670,set_tempo,7,1,0,,,,,,526362,,,,,,,
54677,set_tempo,7,1,0,,,,,,527751,,,,,,,
54680,note_on,40,0,1,,,,,,,,,0,,,53,0
54680,note_on,0,0,1,,,,,,,,,0,,,56,53
54684,set_tempo,7,1,0,,,,,,529147,,,,,,,
54691,set_tempo,7,1,0,,,,,,530551,,,,,,,
54698,set_tempo,7,1,0,,,,,,531962,,,,,,,
54705,control_change,105,0,3,,,,,,,,,0,64,0,,
54705,set_tempo,7,1,0,,,,,,533381,,,,,,,
54712,set_tempo,7,1,0,,,,,,534807,,,,,,,
54720,note_on,40,0,1,,,,,,,,,0,,,56,0
54720,note_on,0,0,1,,,,,,,,,0,,,61,0
54720,note_on,0,0,1,,,,,,,,,0,,,66,64
54720,control_change,15,0,3,,,,,,,,,0,64,127,,
54720,note_on,0,0,2,,,,,,,,,0,,,49,0
54720,set_tempo,8,1,0,,,,,,535714,,,,,,,
54720,note_on,120,0,2,,,,,,,,,0,,,47,0
54720,note_on,0,0,2,,,,,,,,,0,,,49,64
54720,note_on,0,0,2,,,,,,,,,0,,,46,64
54760,note_on,40,0,1,,,,,,,,,0,,,54,54
54800,note_on,0,0,1,,,,,,,,,0,,,58,55
54800,note_on,40,0,1,,,,,,,,,0,,,54,0
54840,note_on,0,0,1,,,,,,,,,0,,,61,55
54840,note_on,40,0,1,,,,,,,,,0,,,58,0
54880,note_on,0,0,1,,,,,,,,,0,,,58,56
54880,note_on,40,0,1,,,,,,,,,0,,,61,0
54920,note_on,40,0,1,,,,,,,,,0,,,58,0
54920,note_on,0,0,1,,,,,,,,,0,,,54,57
54945,control_change,225,0,3,,,,,,,,,0,64,0,,
54960,note_on,0,0,1,,,,,,,,,0,,,66,0
54960,note_on,0,0,2,,,,,,,,,0,,,49,0
54960,note_on,0,0,2,,,,,,,,,0,,,51,67
54960,note_on,0,0,2,,,,,,,,,0,,,42,67
54960,control_change,15,0,3,,,,,,,,,0,64,127,,
54960,note_on,40,0,1,,,,,,,,,0,,,54,0
54960,note_on,240,0,2,,,,,,,,,0,,,46,0
54960,note_on,0,0,1,,,,,,,,,0,,,70,67
55000,note_on,40,0,1,,,,,,,,,0,,,60,58
55040,note_on,40,0,1,,,,,,,,,0,,,60,0
55040,note_on,0,0,1,,,,,,,,,0,,,63,58
55080,note_on,0,0,1,,,,,,,,,0,,,66,59
55080,note_on,40,0,1,,,,,,,,,0,,,63,0
55120,note_on,0,0,1,,,,,,,,,0,,,63,59
55120,note_on,40,0,1,,,,,,,,,0,,,66,0
55160,note_on,40,0,1,,,,,,,,,0,,,63,0
55160,note_on,0,0,1,,,,,,,,,0,,,60,60
55185,control_change,225,0,3,,,,,,,,,0,64,0,,
55200,note_on,240,0,2,,,,,,,,,0,,,42,0
55200,note_on,0,0,2,,,,,,,,,0,,,51,0
55200,control_change,15,0,3,,,,,,,,,0,64,127,,
55200,note_on,0,0,2,,,,,,,,,0,,,37,70
55200,note_on,40,0,1,,,,,,,,,0,,,60,0
55200,note_on,0,0,1,,,,,,,,,0,,,70,0
55200,note_on,0,0,1,,,,,,,,,0,,,68,70
55215,note_on,15,0,2,,,,,,,,,0,,,53,70
55240,note_on,40,0,1,,,,,,,,,0,,,56,60
55280,note_on,0,0,1,,,,,,,,,0,,,61,60
55280,note_on,40,0,1,,,,,,,,,0,,,56,0
55320,note_on,40,0,1,,,,,,,,,0,,,61,0
55320,note_on,0,0,1,,,,,,,,,0,,,65,60
55360,note_on,40,0,1,,,,,,,,,0,,,65,0
55360,note_on,0,0,1,,,,,,,,,0,,,61,60
55400,note_on,40,0,1,,,,,,,,,0,,,61,0
55400,note_on,0,0,1,,,,,,,,,0,,,56,60
55440,note_on,0,0,1,,,,,,,,,0,,,61,60
55440,note_on,40,0,1,,,,,,,,,0,,,56,0
55480,note_on,0,0,1,,,,,,,,,0,,,56,60
55480,note_on,40,0,1,,,,,,,,,0,,,61,0
55520,note_on,40,0,1,,,,,,,,,0,,,56,0
55520,note_on,0,0,1,,,,,,,,,0,,,61,60
55560,note_on,0,0,1,,,,,,,,,0,,,69,70
55560,set_tempo,840,1,0,,,,,,681818,,,,,,,
55560,note_on,0,0,1,,,,,,,,,0,,,68,0
55560,note_on,40,0,1,,,,,,,,,0,,,61,0
55560,note_on,0,0,1,,,,,,,,,0,,,65,60
55600,note_on,40,0,1,,,,,,,,,0,,,65,0
55600,note_on,0,0,1,,,,,,,,,0,,,61,60
55640,note_on,0,0,1,,,,,,,,,0,,,57,60
55640,note_on,40,0,1,,,,,,,,,0,,,61,0
55665,control_change,465,0,3,,,,,,,,,0,64,0,,
55680,note_on,0,0,2,,,,,,,,,0,,,42,70
55680,note_on,0,0,2,,,,,,,,,0,,,49,70
55680,note_on,0,0,2,,,,,,,,,0,,,37,0
55680,note_on,465,0,2,,,,,,,,,0,,,53,0
55680,set_tempo,120,1,0,,,,,,652174,,,,,,,
55680,control_change,15,0,3,,,,,,,,,0,64,127,,
55680,note_on,40,0,1,,,,,,,,,0,,,57,0
55680,note_on,0,0,1,,,,,,,,,0,,,69,0
55680,note_on,0,0,1,,,,,,,,,0,,,70,70
55687,set_tempo,7,1,0,,,,,,651537,,,,,,,
55694,set_tempo,7,1,0,,,,,,634988,,,,,,,
55701,set_tempo,7,1,0,,,,,,617347,,,,,,,
55708,set_tempo,7,1,0,,,,,,600661,,,,,,,
55715,set_tempo,7,1,0,,,,,,584852,,,,,,,
55720,note_on,40,0,1,,,,,,,,,0,,,58,60
55722,set_tempo,7,1,0,,,,,,569855,,,,,,,
55729,set_tempo,7,1,0,,,,,,555607,,,,,,,
55736,set_tempo,7,1,0,,,,,,542054,,,,,,,
55743,set_tempo,7,1,0,,,,,,530551,,,,,,,
55750,set_tempo,7,1,0,,,,,,518179,,,,,,,
55757,set_tempo,7,1,0,,,,,,506372,,,,,,,
55760,note_on,0,0,1,,,,,,,,,0,,,61,60
55760,note_on,40,0,1,,,,,,,,,0,,,58,0
55764,set_tempo,7,1,0,,,,,,495090,,,,,,,
55771,set_tempo,7,1,0,,,,,,484301,,,,,,,
55778,set_tempo,7,1,0,,,,,,473971,,,,,,,
55785,set_tempo,7,1,0,,,,,,464073,,,,,,,
55792,set_tempo,7,1,0,,,,,,454580,,,,,,,
55800,set_tempo,8,1,0,,,,,,454545,,,,,,,
55800,note_on,40,0,1,,,,,,,,,0,,,61,0
55800,note_on,0,0,1,,,,,,,,,0,,,66,60
55840,note_on,40,0,1,,,,,,,,,0,,,66,0
55840,note_on,0,0,1,,,,,,,,,0,,,61,60
55880,note_on,40,0,1,,,,,,,,,0,,,61,0
55880,note_on,0,0,1,,,,,,,,,0,,,58,60
55920,note_on,40,0,1,,,,,,,,,0,,,58,0
55920,note_on,0,0,1,,,,,,,,,0,,,61,60
55960,note_on,40,0,1,,,,,,,,,0,,,61,0
55960,note_on,0,0,1,,,,,,,,,0,,,58,60
56000,note_on,40,0,1,,,,,,,,,0,,,58,0
56000,note_on,0,0,1,,,,,,,,,0,,,61,60
56040,note_on,40,0,1,,,,,,,,,0,,,61,0
56040,note_on,0,0,1,,,,,,,,,0,,,66,60
56080,note_on,40,0,1,,,,,,,,,0,,,66,0
56080,note_on,0,0,1,,,,,,,,,0,,,61,60
56120,note_on,40,0,1,,,,,,,,,0,,,61,0
56120,note_on,0,0,1,,,,,,,,,0,,,58,60
56160,note_on,0,0,2,,,,,,,,,0,,,49,70
56160,note_on,0,0,2,,,,,,,,,0,,,49,0
56160,note_on,480,0,2,,,,,,,,,0,,,42,0
56160,note_on,0,0,2,,,,,,,,,0,,,42,70
56160,note_on,0,0,1,,,,,,,,,0,,,70,0
56160,note_on,40,0,1,,,,,,,,,0,,,58,0
56160,note_on,0,0,1,,,,,,,,,0,,,70,70
56200,note_on,40,0,1,,,,,,,,,0,,,58,60
56240,note_on,40,0,1,,,,,,,,,0,,,58,0
56240,note_on,0,0,1,,,,,,,,,0,,,61,60
56280,note_on,40,0,1,,,,,,,,,0,,,61,0
56280,note_on,0,0,1,,,,,,,,,0,,,66,60
56320,note_on,40,0,1,,,,,,,,,0,,,66,0
56320,note_on,0,0,1,,,,,,,,,0,,,61,60
56360,note_on,40,0,1,,,,,,,,,0,,,61,0
56360,note_on,0,0,1,,,,,,,,,0,,,58,60
56385,control_change,705,0,3,,,,,,,,,0,64,0,,
56400,set_tempo,600,1,0,,,,,,454580,,,,,,,
56400,note_on,0,0,2,,,,,,,,,0,,,41,70
56400,note_on,0,0,2,,,,,,,,,0,,,50,70
56400,note_on,0,0,2,,,,,,,,,0,,,42,0
56400,note_on,40,0,1,,,,,,,,,0,,,58,0
56400,note_on,0,0,1,,,,,,,,,0,,,70,0
56400,note_on,0,0,1,,,,,,,,,0,,,70,70
56400,note_on,240,0,2,,,,,,,,,0,,,49,0
56400,control_change,15,0,3,,,,,,,,,0,64,127,,
56407,set_tempo,7,1,0,,,,,,458751,,,,,,,
56414,set_tempo,7,1,0,,,,,,462999,,,,,,,
56421,set_tempo,7,1,0,,,,,,467326,,,,,,,
56428,set_tempo,7,1,0,,,,,,471735,,,,,,,
56435,set_tempo,7,1,0,,,,,,476228,,,,,,,
56440,note_on,40,0,1,,,,,,,,,0,,,58,60
56442,set_tempo,7,1,0,,,,,,480808,,,,,,,
56449,set_tempo,7,1,0,,,,,,485476,,,,,,,
56456,set_tempo,7,1,0,,,,,,490236,,,,,,,
56463,set_tempo,7,1,0,,,,,,495090,,,,,,,
56470,set_tempo,7,1,0,,,,,,500042,,,,,,,
56477,set_tempo,7,1,0,,,,,,505093,,,,,,,
56480,note_on,0,0,1,,,,,,,,,0,,,62,60
56480,note_on,40,0,1,,,,,,,,,0,,,58,0
56484,set_tempo,7,1,0,,,,,,510247,,,,,,,
56491,set_tempo,7,1,0,,,,,,515508,,,,,,,
56498,set_tempo,7,1,0,,,,,,520879,,,,,,,
56505,set_tempo,7,1,0,,,,,,526362,,,,,,,
56512,set_tempo,7,1,0,,,,,,531962,,,,,,,
56520,note_on,40,0,1,,,,,,,,,0,,,62,0
56520,set_tempo,8,1,0,,,,,,537683,,,,,,,
56520,note_on,0,0,1,,,,,,,,,0,,,68,60
56527,set_tempo,7,1,0,,,,,,543527,,,,,,,
56534,set_tempo,7,1,0,,,,,,549501,,,,,,,
56541,set_tempo,7,1,0,,,,,,555607,,,,,,,
56548,set_tempo,7,1,0,,,,,,561850,,,,,,,
56555,set_tempo,7,1,0,,,,,,568236,,,,,,,
56560,note_on,0,0,1,,,,,,,,,0,,,62,60
56560,note_on,40,0,1,,,,,,,,,0,,,68,0
56562,set_tempo,7,1,0,,,,,,574768,,,,,,,
56569,set_tempo,7,1,0,,,,,,581452,,,,,,,
56576,set_tempo,7,1,0,,,,,,588293,,,,,,,
56583,set_tempo,7,1,0,,,,,,595297,,,,,,,
56590,set_tempo,7,1,0,,,,,,602470,,,,,,,
56597,set_tempo,7,1,0,,,,,,609818,,,,,,,
56600,note_on,40,0,1,,,,,,,,,0,,,62,0
56600,note_on,0,0,1,,,,,,,,,0,,,58,60
56604,set_tempo,7,1,0,,,,,,617347,,,,,,,
56611,set_tempo,7,1,0,,,,,,625065,,,,,,,
56618,set_tempo,7,1,0,,,,,,632978,,,,,,,
56625,set_tempo,7,1,0,,,,,,641094,,,,,,,
56625,control_change,225,0,3,,,,,,,,,0,64,0,,
56632,set_tempo,7,1,0,,,,,,651537,,,,,,,
56640,control_change,15,0,3,,,,,,,,,0,64,127,,
56640,note_on,0,0,1,,,,,,,,,0,,,70,70
56640,note_on,0,0,1,,,,,,,,,0,,,70,0
56640,note_on,0,0,2,,,,,,,,,0,,,51,70
56640,note_on,0,0,2,,,,,,,,,0,,,50,0
56640,note_on,240,0,2,,,,,,,,,0,,,41,0
56640,note_on,40,0,1,,,,,,,,,0,,,58,0
56640,note_on,0,0,2,,,,,,,,,0,,,39,70
56640,set_tempo,8,1,0,,,,,,454545,,,,,,,
56680,note_on,40,0,1,,,,,,,,,0,,,58,60
56720,note_on,0,0,1,,,,,,,,,0,,,63,60
56720,note_on,40,0,1,,,,,,,,,0,,,58,0
56760,note_on,40,0,1,,,,,,,,,0,,,63,0
56760,note_on,0,0,1,,,,,,,,,0,,,66,60
56800,note_on,40,0,1,,,,,,,,,0,,,66,0
56800,note_on,0,0,1,,,,,,,,,0,,,63,60
56840,note_on,40,0,1,,,,,,,,,0,,,63,0
56840,note_on,0,0,1,,,,,,,,,0,,,58,60
56880,note_on,40,0,1,,,,,,,,,0,,,58,0
56880,note_on,0,0,1,,,,,,,,,0,,,63,60
56920,note_on,0,0,1,,,,,,,,,0,,,58,60
56920,note_on,40,0,1,,,,,,,,,0,,,63,0
56960,note_on,0,0,1,,,,,,,,,0,,,63,60
56960,note_on,40,0,1,,,,,,,,,0,,,58,0
57000,note_on,40,0,1,,,,,,,,,0,,,63,0
57000,note_on,0,0,1,,,,,,,,,0,,,66,60
57040,note_on,40,0,1,,,,,,,,,0,,,66,0
57040,note_on,0,0,1,,,,,,,,,0,,,63,60
57080,note_on,0,0,1,,,,,,,,,0,,,58,60
57080,note_on,40,0,1,,,,,,,,,0,,,63,0
57120,note_on,0,0,1,,,,,,,,,0,,,66,70
57120,note_on,40,0,1,,,,,,,,,0,,,58,0
57120,note_on,0,0,1,,,,,,,,,0,,,70,0
57160,note_on,40,0,1,,,,,,,,,0,,,54,60
57200,note_on,0,0,1,,,,,,,,,0,,,58,60
57200,note_on,40,0,1,,,,,,,,,0,,,54,0
57240,note_on,0,0,1,,,,,,,,,0,,,63,60
57240,note_on,40,0,1,,,,,,,,,0,,,58,0
57280,note_on,40,0,1,,,,,,,,,0,,,63,0
57280,note_on,0,0,1,,,,,,,,,0,,,58,60
57320,note_on,40,0,1,,,,,,,,,0,,,58,0
57320,note_on,0,0,1,,,,,,,,,0,,,54,60
57345,control_change,705,0,3,,,,,,,,,0,64,0,,
57360,note_on,0,0,1,,,,,,,,,0,,,66,0
57360,note_on,0,0,1,,,,,,,,,0,,,65,70
57360,note_on,40,0,1,,,,,,,,,0,,,54,0
57360,control_change,15,0,3,,,,,,,,,0,64,127,,
57360,note_on,720,0,2,,,,,,,,,0,,,51,0
57360,note_on,0,0,2,,,,,,,,,0,,,39,0
57360,note_on,0,0,2,,,,,,,,,0,,,34,70
57360,note_on,0,0,2,,,,,,,,,0,,,46,70
57400,note_on,40,0,2,,,,,,,,,0,,,53,60
57440,note_on,40,0,2,,,,,,,,,0,,,53,0
57440,note_on,0,0,2,,,,,,,,,0,,,56,60
57480,note_on,0,0,2,,,,,,,,,0,,,62,60
57480,note_on,40,0,2,,,,,,,,,0,,,56,0
57520,note_on,40,0,2,,,,,,,,,0,,,62,0
57520,note_on,0,0,2,,,,,,,,,0,,,56,60
57560,note_on,40,0,2,,,,,,,,,0,,,56,0
57560,note_on,0,0,2,,,,,,,,,0,,,53,60
57585,control_change,225,0,3,,,,,,,,,0,64,0,,
57600,note_on,0,0,1,,,,,,,,,0,,,63,70
57600,note_on,40,0,2,,,,,,,,,0,,,53,0
57600,note_on,0,0,2,,,,,,,,,0,,,46,0
57600,note_on,0,0,2,,,,,,,,,0,,,34,0
57600,note_on,0,0,2,,,,,,,,,0,,,35,70
57600,note_on,0,0,2,,,,,,,,,0,,,47,70
57600,control_change,15,0,3,,,,,,,,,0,64,127,,
57600,note_on,240,0,1,,,,,,,,,0,,,65,0
57640,note_on,40,0,2,,,,,,,,,0,,,51,60
57680,note_on,40,0,2,,,,,,,,,0,,,51,0
57680,note_on,0,0,2,,,,,,,,,0,,,54,60
57720,note_on,0,0,2,,,,,,,,,0,,,59,60
57720,note_on,40,0,2,,,,,,,,,0,,,54,0
57760,note_on,40,0,2,,,,,,,,,0,,,59,0
57760,note_on,0,0,2,,,,,,,,,0,,,54,60
57800,note_on,0,0,2,,,,,,,,,0,,,51,60
57800,note_on,40,0,2,,,,,,,,,0,,,54,0
57825,control_change,225,0,3,,,,,,,,,0,64,0,,
57840,control_change,15,0,3,,,,,,,,,0,64,127,,
57840,note_on,240,0,1,,,,,,,,,0,,,63,0
57840,note_on,0,0,1,,,,,,,,,0,,,68,70
57840,note_on,0,0,2,,,,,,,,,0,,,35,0
57840,note_on,0,0,2,,,,,,,,,0,,,32,70
57840,note_on,0,0,2,,,,,,,,,0,,,44,70
57840,note_on,40,0,2,,,,,,,,,0,,,51,0
57840,note_on,0,0,2,,,,,,,,,0,,,47,0
57880,note_on,40,0,1,,,,,,,,,0,,,56,60
57920,note_on,0,0,1,,,,,,,,,0,,,59,60
57920,note_on,40,0,1,,,,,,,,,0,,,56,0
57960,note_on,0,0,1,,,,,,,,,0,,,63,60
57960,note_on,40,0,1,,,,,,,,,0,,,59,0
58000,note_on,0,0,1,,,,,,,,,0,,,59,60
58000,note_on,40,0,1,,,,,,,,,0,,,63,0
58040,note_on,40,0,1,,,,,,,,,0,,,59,0
58040,note_on,0,0,1,,,,,,,,,0,,,56,60
58065,control_change,225,0,3,,,,,,,,,0,64,0,,
58080,note_on,0,0,2,,,,,,,,,0,,,49,70
58080,note_on,240,0,2,,,,,,,,,0,,,44,0
58080,note_on,0,0,2,,,,,,,,,0,,,32,0
58080,note_on,0,0,2,,,,,,,,,0,,,37,70
58080,note_on,40,0,1,,,,,,,,,0,,,56,0
58080,control_change,15,0,3,,,,,,,,,0,64,127,,
58080,note_on,0,0,1,,,,,,,,,0,,,66,70
58080,note_on,0,0,1,,,,,,,,,0,,,68,0
58080,set_tempo,1440,1,0,,,,,,454580,,,,,,,
58094,set_tempo,14,1,0,,,,,,455615,,,,,,,
58101,set_tempo,7,1,0,,,,,,456656,,,,,,,
58108,set_tempo,7,1,0,,,,,,457701,,,,,,,
58115,set_tempo,7,1,0,,,,,,458751,,,,,,,
58120,note_on,40,0,1,,,,,,,,,0,,,56,60
58122,set_tempo,7,1,0,,,,,,459805,,,,,,,
58129,set_tempo,7,1,0,,,,,,460865,,,,,,,
58136,set_tempo,7,1,0,,,,,,461929,,,,,,,
58143,set_tempo,7,1,0,,,,,,462999,,,,,,,
58150,set_tempo,7,1,0,,,,,,464073,,,,,,,
58157,set_tempo,7,1,0,,,,,,465152,,,,,,,
58160,note_on,0,0,1,,,,,,,,,0,,,59,60
58160,note_on,40,0,1,,,,,,,,,0,,,56,0
58164,set_tempo,7,1,0,,,,,,466237,,,,,,,
58171,set_tempo,7,1,0,,,,,,467326,,,,,,,
58178,set_tempo,7,1,0,,,,,,468421,,,,,,,
58185,set_tempo,7,1,0,,,,,,469520,,,,,,,
58185,control_change,105,0,3,,,,,,,,,0,64,0,,
58192,set_tempo,7,1,0,,,,,,470625,,,,,,,
58200,control_change,15,0,3,,,,,,,,,0,64,127,,
58200,note_on,40,0,1,,,,,,,,,0,,,59,0
58200,note_on,0,0,1,,,,,,,,,0,,,65,70
58200,note_on,0,0,1,,,,,,,,,0,,,66,0
58200,set_tempo,8,1,0,,,,,,471735,,,,,,,
58207,set_tempo,7,1,0,,,,,,472851,,,,,,,
58214,set_tempo,7,1,0,,,,,,473971,,,,,,,
58221,set_tempo,7,1,0,,,,,,475097,,,,,,,
58228,set_tempo,7,1,0,,,,,,476228,,,,,,,
58235,set_tempo,7,1,0,,,,,,477365,,,,,,,
58240,note_on,40,0,1,,,,,,,,,0,,,56,60
58242,set_tempo,7,1,0,,,,,,478507,,,,,,,
58249,set_tempo,7,1,0,,,,,,479655,,,,,,,
58256,set_tempo,7,1,0,,,,,,480808,,,,,,,
58263,set_tempo,7,1,0,,,,,,481966,,,,,,,
58270,set_tempo,7,1,0,,,,,,483131,,,,,,,
58277,set_tempo,7,1,0,,,,,,484301,,,,,,,
58280,note_on,0,0,1,,,,,,,,,0,,,59,60
58280,note_on,40,0,1,,,,,,,,,0,,,56,0
58284,set_tempo,7,1,0,,,,,,485476,,,,,,,
58291,set_tempo,7,1,0,,,,,,486657,,,,,,,
58298,set_tempo,7,1,0,,,,,,487845,,,,,,,
58305,control_change,105,0,3,,,,,,,,,0,64,0,,
58305,set_tempo,7,1,0,,,,,,489037,,,,,,,
58312,set_tempo,7,1,0,,,,,,490236,,,,,,,
58320,control_change,15,0,3,,,,,,,,,0,64,127,,
58320,note_on,0,0,1,,,,,,,,,0,,,65,0
58320,set_tempo,8,1,0,,,,,,491441,,,,,,,
58320,note_on,40,0,1,,,,,,,,,0,,,59,0
58320,note_on,0,0,1,,,,,,,,,0,,,63,70
58327,set_tempo,7,1,0,,,,,,492651,,,,,,,
58334,set_tempo,7,1,0,,,,,,493868,,,,,,,
58341,set_tempo,7,1,0,,,,,,495090,,,,,,,
58348,set_tempo,7,1,0,,,,,,496319,,,,,,,
58355,set_tempo,7,1,0,,,,,,497554,,,,,,,
58360,note_on,40,0,1,,,,,,,,,0,,,56,60
58362,set_tempo,7,1,0,,,,,,498795,,,,,,,
58369,set_tempo,7,1,0,,,,,,500042,,,,,,,
58376,set_tempo,7,1,0,,,,,,501295,,,,,,,
58383,set_tempo,7,1,0,,,,,,502555,,,,,,,
58390,set_tempo,7,1,0,,,,,,503821,,,,,,,
58397,set_tempo,7,1,0,,,,,,505093,,,,,,,
58400,note_on,0,0,1,,,,,,,,,0,,,59,60
58400,note_on,40,0,1,,,,,,,,,0,,,56,0
58404,set_tempo,7,1,0,,,,,,506372,,,,,,,
58411,set_tempo,7,1,0,,,,,,507657,,,,,,,
58418,set_tempo,7,1,0,,,,,,508949,,,,,,,
58425,control_change,105,0,3,,,,,,,,,0,64,0,,
58425,set_tempo,7,1,0,,,,,,510247,,,,,,,
58432,set_tempo,7,1,0,,,,,,511553,,,,,,,
58440,set_tempo,8,1,0,,,,,,512864,,,,,,,
58440,note_on,40,0,1,,,,,,,,,0,,,59,0
58440,note_on,0,0,1,,,,,,,,,0,,,63,0
58440,note_on,0,0,1,,,,,,,,,0,,,65,70
58440,control_change,15,0,3,,,,,,,,,0,64,127,,
58447,set_tempo,7,1,0,,,,,,514183,,,,,,,
58454,set_tempo,7,1,0,,,,,,515508,,,,,,,
58461,set_tempo,7,1,0,,,,,,516840,,,,,,,
58468,set_tempo,7,1,0,,,,,,518179,,,,,,,
58475,set_tempo,7,1,0,,,,,,519526,,,,,,,
58480,note_on,40,0,1,,,,,,,,,0,,,56,60
58482,set_tempo,7,1,0,,,,,,520879,,,,,,,
58489,set_tempo,7,1,0,,,,,,522239,,,,,,,
58496,set_tempo,7,1,0,,,,,,523606,,,,,,,
58503,set_tempo,7,1,0,,,,,,524980,,,,,,,
58510,set_tempo,7,1,0,,,,,,526362,,,,,,,
58517,set_tempo,7,1,0,,,,,,527751,,,,,,,
58520,note_on,40,0,1,,,,,,,,,0,,,56,0
58520,note_on,0,0,1,,,,,,,,,0,,,59,60
58524,set_tempo,7,1,0,,,,,,529147,,,,,,,
58531,set_tempo,7,1,0,,,,,,530551,,,,,,,
58538,set_tempo,7,1,0,,,,,,531962,,,,,,,
58545,set_tempo,7,1,0,,,,,,533381,,,,,,,
58545,control_change,105,0,3,,,,,,,,,0,64,0,,
58552,set_tempo,7,1,0,,,,,,534807,,,,,,,
58560,note_on,40,0,1,,,,,,,,,0,,,59,0
58560,control_change,15,0,3,,,,,,,,,0,64,127,,
58560,note_on,0,0,2,,,,,,,,,0,,,37,0
58560,note_on,480,0,2,,,,,,,,,0,,,49,0
58560,note_on,0,0,1,,,,,,,,,0,,,65,0
58560,note_on,0,0,1,,,,,,,,,0,,,68,70
58560,note_on,0,0,2,,,,,,,,,0,,,49,70
58560,note_on,0,0,2,,,,,,,,,0,,,42,70
58560,set_tempo,8,1,0,,,,,,535714,,,,,,,
58600,note_on,40,0,1,,,,,,,,,0,,,59,60
58640,note_on,0,0,1,,,,,,,,,0,,,61,60
58640,note_on,40,0,1,,,,,,,,,0,,,59,0
58680,note_on,40,0,1,,,,,,,,,0,,,61,0
58680,note_on,0,0,1,,,,,,,,,0,,,65,60
58720,note_on,0,0,1,,,,,,,,,0,,,61,60
58720,note_on,40,0,1,,,,,,,,,0,,,65,0
58760,note_on,0,0,1,,,,,,,,,0,,,59,60
58760,note_on,40,0,1,,,,,,,,,0,,,61,0
58800,note_on,40,0,1,,,,,,,,,0,,,59,0
58800,note_on,0,0,1,,,,,,,,,0,,,61,60
58840,note_on,40,0,1,,,,,,,,,0,,,61,0
58840,note_on,0,0,1,,,,,,,,,0,,,59,60
58880,note_on,40,0,1,,,,,,,,,0,,,59,0
58880,note_on,0,0,1,,,,,,,,,0,,,61,60
58920,note_on,40,0,1,,,,,,,,,0,,,61,0
58920,note_on,0,0,1,,,,,,,,,0,,,65,60
58960,note_on,0,0,1,,,,,,,,,0,,,61,60
58960,note_on,40,0,1,,,,,,,,,0,,,65,0
59000,note_on,40,0,1,,,,,,,,,0,,,61,0
59000,note_on,0,0,1,,,,,,,,,0,,,59,60
59025,control_change,465,0,3,,,,,,,,,0,64,0,,
59040,control_change,15,0,3,,,,,,,,,0,64,127,,
59040,note_on,40,0,1,,,,,,,,,0,,,59,0
59040,note_on,0,0,1,,,,,,,,,0,,,68,0
59040,note_on,0,0,1,,,,,,,,,0,,,66,70
59080,note_on,40,0,1,,,,,,,,,0,,,54,60
59120,note_on,40,0,1,,,,,,,,,0,,,54,0
59120,note_on,0,0,1,,,,,,,,,0,,,58,60
59160,note_on,40,0,1,,,,,,,,,0,,,58,0
59160,note_on,0,0,1,,,,,,,,,0,,,61,60
59200,note_on,40,0,1,,,,,,,,,0,,,61,0
59200,note_on,0,0,1,,,,,,,,,0,,,58,60
59240,note_on,40,0,1,,,,,,,,,0,,,58,0
59240,note_on,0,0,1,,,,,,,,,0,,,54,60
59280,note_on,0,0,1,,,,,,,,,0,,,58,60
59280,note_on,40,0,1,,,,,,,,,0,,,54,0
59320,note_on,0,0,1,,,,,,,,,0,,,54,60
59320,note_on,40,0,1,,,,,,,,,0,,,58,0
59360,note_on,40,0,1,,,,,,,,,0,,,54,0
59360,note_on,0,0,1,,,,,,,,,0,,,58,60
59400,note_on,40,0,1,,,,,,,,,0,,,58,0
59400,note_on,0,0,1,,,,,,,,,0,,,61,60
59440,note_on,40,0,1,,,,,,,,,0,,,61,0
59440,note_on,0,0,1,,,,,,,,,0,,,58,60
59480,note_on,40,0,1,,,,,,,,,0,,,58,0
59480,note_on,0,0,1,,,,,,,,,0,,,54,60
59505,control_change,465,0,3,,,,,,,,,0,64,0,,
59520,set_tempo,960,1,0,,,,,,652174,,,,,,,
59520,note_on,40,0,1,,,,,,,,,0,,,54,0
59520,note_on,0,0,1,,,,,,,,,0,,,66,0
59520,note_on,0,0,1,,,,,,,,,0,,,68,70
59520,note_on,0,0,2,,,,,,,,,0,,,49,70
59520,note_on,0,0,2,,,,,,,,,0,,,53,70
59520,control_change,15,0,3,,,,,,,,,0,64,127,,
59520,note_on,960,0,2,,,,,,,,,0,,,49,0
59520,note_on,0,0,2,,,,,,,,,0,,,42,0
59527,set_tempo,7,1,0,,,,,,651537,,,,,,,
59534,set_tempo,7,1,0,,,,,,634988,,,,,,,
59541,set_tempo,7,1,0,,,,,,617347,,,,,,,
59548,set_tempo,7,1,0,,,,,,600661,,,,,,,
59555,set_tempo,7,1,0,,,,,,584852,,,,,,,
59560,note_on,40,0,1,,,,,,,,,0,,,56,60
59562,set_tempo,7,1,0,,,,,,569855,,,,,,,
59569,set_tempo,7,1,0,,,,,,555607,,,,,,,
59576,set_tempo,7,1,0,,,,,,542054,,,,,,,
59583,set_tempo,7,1,0,,,,,,530551,,,,,,,
59590,set_tempo,7,1,0,,,,,,518179,,,,,,,
59597,set_tempo,7,1,0,,,,,,506372,,,,,,,
59600,note_on,0,0,1,,,,,,,,,0,,,61,60
59600,note_on,40,0,1,,,,,,,,,0,,,56,0
59604,set_tempo,7,1,0,,,,,,495090,,,,,,,
59611,set_tempo,7,1,0,,,,,,484301,,,,,,,
59618,set_tempo,7,1,0,,,,,,473971,,,,,,,
59625,set_tempo,7,1,0,,,,,,464073,,,,,,,
59632,set_tempo,7,1,0,,,,,,454580,,,,,,,
59640,note_on,40,0,1,,,,,,,,,0,,,61,0
59640,note_on,0,0,1,,,,,,,,,0,,,65,60
59640,set_tempo,8,1,0,,,,,,454545,,,,,,,
59680,note_on,40,0,1,,,,,,,,,0,,,65,0
59680,note_on,0,0,1,,,,,,,,,0,,,61,60
59720,note_on,40,0,1,,,,,,,,,0,,,61,0
59720,note_on,0,0,1,,,,,,,,,0,,,56,60
59760,note_on,40,0,1,,,,,,,,,0,,,56,0
59760,note_on,0,0,1,,,,,,,,,0,,,61,60
59800,note_on,0,0,1,,,,,,,,,0,,,56,60
59800,note_on,40,0,1,,,,,,,,,0,,,61,0
59840,note_on,0,0,1,,,,,,,,,0,,,61,60
59840,note_on,40,0,1,,,,,,,,,0,,,56,0
59880,note_on,40,0,1,,,,,,,,,0,,,61,0
59880,note_on,0,0,1,,,,,,,,,0,,,65,60
59920,note_on,40,0,1,,,,,,,,,0,,,65,0
59920,note_on,0,0,1,,,,,,,,,0,,,61,60
59960,note_on,0,0,1,,,,,,,,,0,,,56,60
59960,note_on,40,0,1,,,,,,,,,0,,,61,0
59985,control_change,465,0,3,,,,,,,,,0,64,0,,
60000,note_on,0,0,2,,,,,,,,,0,,,46,70
60000,note_on,0,0,2,,,,,,,,,0,,,55,70
60000,note_on,0,0,2,,,,,,,,,0,,,52,70
60000,note_on,0,0,2,,,,,,,,,0,,,53,0
60000,note_on,480,0,2,,,,,,,,,0,,,49,0
60000,note_on,40,0,1,,,,,,,,,0,,,56,0
60000,note_on,0,0,1,,,,,,,,,0,,,68,0
60000,note_on,0,0,1,,,,,,,,,0,,,70,70
60000,control_change,15,0,3,,,,,,,,,0,64,127,,
60040,note_on,40,0,1,,,,,,,,,0,,,61,60
60080,note_on,0,0,1,,,,,,,,,0,,,64,60
60080,note_on,40,0,1,,,,,,,,,0,,,61,0
60120,note_on,0,0,1,,,,,,,,,0,,,67,60
60120,note_on,40,0,1,,,,,,,,,0,,,64,0
60160,note_on,0,0,1,,,,,,,,,0,,,64,60
60160,note_on,40,0,1,,,,,,,,,0,,,67,0
60200,note_on,0,0,1,,,,,,,,,0,,,61,60
60200,note_on,40,0,1,,,,,,,,,0,,,64,0
60225,control_change,225,0,3,,,,,,,,,0,64,0,,
60240,note_on,0,0,2,,,,,,,,,0,,,51,70
60240,control_change,15,0,3,,,,,,,,,0,64,127,,
60240,note_on,40,0,1,,,,,,,,,0,,,61,0
60240,note_on,0,0,1,,,,,,,,,0,,,63,60
60240,note_on,240,0,2,,,,,,,,,0,,,52,0
60280,note_on,40,0,1,,,,,,,,,0,,,63,0
60280,note_on,0,0,1,,,,,,,,,0,,,61,60
60320,note_on,0,0,1,,,,,,,,,0,,,63,60
60320,note_on,40,0,1,,,,,,,,,0,,,61,0
60360,note_on,0,0,1,,,,,,,,,0,,,67,60
60360,note_on,40,0,1,,,,,,,,,0,,,63,0
60400,note_on,40,0,1,,,,,,,,,0,,,67,0
60400,note_on,0,0,1,,,,,,,,,0,,,63,60
60440,note_on,40,0,1,,,,,,,,,0,,,63,0
60440,note_on,0,0,1,,,,,,,,,0,,,61,60
60465,control_change,225,0,3,,,,,,,,,0,64,0,,
60480,note_on,40,0,1,,,,,,,,,0,,,61,0
60480,note_on,0,0,1,,,,,,,,,0,,,70,0
60480,note_on,0,0,2,,,,,,,,,0,,,44,70
60480,note_on,0,0,2,,,,,,,,,0,,,51,70
60480,note_on,0,0,2,,,,,,,,,0,,,55,0
60480,note_on,240,0,2,,,,,,,,,0,,,51,0
60480,control_change,15,0,3,,,,,,,,,0,64,127,,
60480,note_on,0,0,1,,,,,,,,,0,,,73,70
60480,note_on,0,0,2,,,,,,,,,0,,,46,0
60480,note_on,0,0,2,,,,,,,,,0,,,55,70
60520,note_on,40,0,1,,,,,,,,,0,,,61,60
60560,note_on,40,0,1,,,,,,,,,0,,,61,0
60560,note_on,0,0,1,,,,,,,,,0,,,63,60
60600,note_on,0,0,1,,,,,,,,,0,,,70,60
60600,note_on,40,0,1,,,,,,,,,0,,,63,0
60640,note_on,0,0,1,,,,,,,,,0,,,63,60
60640,note_on,40,0,1,,,,,,,,,0,,,70,0
60680,note_on,0,0,1,,,,,,,,,0,,,61,60
60680,note_on,40,0,1,,,,,,,,,0,,,63,0
60720,note_on,0,0,1,,,,,,,,,0,,,63,60
60720,note_on,40,0,1,,,,,,,,,0,,,61,0
60760,note_on,0,0,1,,,,,,,,,0,,,61,60
60760,note_on,40,0,1,,,,,,,,,0,,,63,0
60800,note_on,40,0,1,,,,,,,,,0,,,61,0
60800,note_on,0,0,1,,,,,,,,,0,,,63,60
60840,note_on,360,0,2,,,,,,,,,0,,,55,0
60840,note_on,40,0,1,,,,,,,,,0,,,63,0
60840,note_on,0,0,1,,,,,,,,,0,,,73,0
60840,note_on,0,0,1,,,,,,,,,0,,,68,60
60840,note_on,0,0,1,,,,,,,,,0,,,71,70
60840,note_on,0,0,2,,,,,,,,,0,,,56,70
60880,note_on,40,0,1,,,,,,,,,0,,,68,0
60880,note_on,0,0,1,,,,,,,,,0,,,63,60
60920,note_on,0,0,1,,,,,,,,,0,,,59,60
60920,note_on,40,0,1,,,,,,,,,0,,,63,0
60945,control_change,465,0,3,,,,,,,,,0,64,0,,
60960,note_on,0,0,2,,,,,,,,,0,,,44,70
60960,note_on,0,0,2,,,,,,,,,0,,,44,0
60960,note_on,0,0,2,,,,,,,,,0,,,51,0
60960,note_on,120,0,2,,,,,,,,,0,,,56,0
60960,control_change,15,0,3,,,,,,,,,0,64,127,,
60960,note_on,0,0,2,,,,,,,,,0,,,51,70
60960,note_on,40,0,1,,,,,,,,,0,,,59,0
60960,note_on,0,0,1,,,,,,,,,0,,,71,0
60960,note_on,0,0,1,,,,,,,,,0,,,71,70
60960,note_on,0,0,2,,,,,,,,,0,,,56,70
61000,note_on,40,0,1,,,,,,,,,0,,,59,60
61040,note_on,0,0,1,,,,,,,,,0,,,63,60
61040,note_on,40,0,1,,,,,,,,,0,,,59,0
61080,note_on,40,0,1,,,,,,,,,0,,,63,0
61080,note_on,0,0,1,,,,,,,,,0,,,68,60
61120,note_on,40,0,1,,,,,,,,,0,,,68,0
61120,note_on,0,0,1,,,,,,,,,0,,,63,60
61160,note_on,40,0,1,,,,,,,,,0,,,63,0
61160,note_on,0,0,1,,,,,,,,,0,,,59,60
61200,note_on,40,0,1,,,,,,,,,0,,,59,0
61200,note_on,0,0,1,,,,,,,,,0,,,63,60
61240,note_on,0,0,1,,,,,,,,,0,,,59,60
61240,note_on,40,0,1,,,,,,,,,0,,,63,0
61280,note_on,0,0,1,,,,,,,,,0,,,63,60
61280,note_on,40,0,1,,,,,,,,,0,,,59,0
61320,note_on,40,0,1,,,,,,,,,0,,,63,0
61320,note_on,0,0,1,,,,,,,,,0,,,68,60
61360,note_on,40,0,1,,,,,,,,,0,,,68,0
61360,note_on,0,0,1,,,,,,,,,0,,,63,60
61380,note_on,420,0,2,,,,,,,,,0,,,44,0
61380,note_on,0,0,2,,,,,,,,,0,,,42,70
61400,note_on,40,0,1,,,,,,,,,0,,,63,0
61400,note_on,0,0,1,,,,,,,,,0,,,59,60
61425,control_change,465,0,3,,,,,,,,,0,64,0,,
61440,note_on,0,0,2,,,,,,,,,0,,,40,70
61440,note_on,0,0,1,,,,,,,,,0,,,71,70
61440,note_on,0,0,1,,,,,,,,,0,,,71,0
61440,note_on,40,0,1,,,,,,,,,0,,,59,0
61440,note_on,0,0,2,,,,,,,,,0,,,56,0
61440,set_tempo,1800,1,0,,,,,,652174,,,,,,,
61440,note_on,60,0,2,,,,,,,,,0,,,42,0
61440,note_on,0,0,2,,,,,,,,,0,,,51,0
61440,control_change,15,0,3,,,,,,,,,0,64,127,,
61447,set_tempo,7,1,0,,,,,,651537,,,,,,,
61454,set_tempo,7,1,0,,,,,,634988,,,,,,,
61461,set_tempo,7,1,0,,,,,,617347,,,,,,,
61468,set_tempo,7,1,0,,,,,,600661,,,,,,,
61475,set_tempo,7,1,0,,,,,,584852,,,,,,,
61480,note_on,40,0,1,,,,,,,,,0,,,59,60
61482,set_tempo,7,1,0,,,,,,569855,,,,,,,
61489,set_tempo,7,1,0,,,,,,555607,,,,,,,
61496,set_tempo,7,1,0,,,,,,542054,,,,,,,
61503,set_tempo,7,1,0,,,,,,530551,,,,,,,
61510,set_tempo,7,1,0,,,,,,518179,,,,,,,
61517,set_tempo,7,1,0,,,,,,506372,,,,,,,
61520,note_on,0,0,1,,,,,,,,,0,,,64,60
61520,note_on,40,0,1,,,,,,,,,0,,,59,0
61524,set_tempo,7,1,0,,,,,,495090,,,,,,,
61531,set_tempo,7,1,0,,,,,,484301,,,,,,,
61538,set_tempo,7,1,0,,,,,,473971,,,,,,,
61545,set_tempo,7,1,0,,,,,,464073,,,,,,,
61552,set_tempo,7,1,0,,,,,,454580,,,,,,,
61560,set_tempo,8,1,0,,,,,,454545,,,,,,,
61560,note_on,40,0,1,,,,,,,,,0,,,64,0
61560,note_on,0,0,1,,,,,,,,,0,,,68,61
61600,note_on,0,0,1,,,,,,,,,0,,,64,61
61600,note_on,40,0,1,,,,,,,,,0,,,68,0
61640,note_on,40,0,1,,,,,,,,,0,,,64,0
61640,note_on,0,0,1,,,,,,,,,0,,,59,62
61680,note_on,40,0,1,,,,,,,,,0,,,59,0
61680,note_on,0,0,1,,,,,,,,,0,,,64,62
61720,note_on,40,0,1,,,,,,,,,0,,,64,0
61720,note_on,0,0,1,,,,,,,,,0,,,59,63
61760,note_on,40,0,1,,,,,,,,,0,,,59,0
61760,note_on,0,0,1,,,,,,,,,0,,,64,63
61800,note_on,40,0,1,,,,,,,,,0,,,64,0
61800,note_on,0,0,1,,,,,,,,,0,,,68,63
61840,note_on,40,0,1,,,,,,,,,0,,,68,0
61840,note_on,0,0,1,,,,,,,,,0,,,64,64
61880,note_on,40,0,1,,,,,,,,,0,,,64,0
61880,note_on,0,0,1,,,,,,,,,0,,,59,64
61905,control_change,465,0,3,,,,,,,,,0,64,0,,
61920,note_on,480,0,2,,,,,,,,,0,,,40,0
61920,note_on,0,0,2,,,,,,,,,0,,,39,75
61920,note_on,0,0,1,,,,,,,,,0,,,71,75
61920,note_on,0,0,1,,,,,,,,,0,,,71,0
61920,note_on,40,0,1,,,,,,,,,0,,,59,0
61920,control_change,15,0,3,,,,,,,,,0,64,127,,
61960,note_on,40,0,1,,,,,,,,,0,,,59,65
62000,note_on,40,0,1,,,,,,,,,0,,,59,0
62000,note_on,0,0,1,,,,,,,,,0,,,63,66
62040,note_on,40,0,1,,,,,,,,,0,,,63,0
62040,note_on,0,0,1,,,,,,,,,0,,,66,66
62080,note_on,40,0,1,,,,,,,,,0,,,66,0
62080,note_on,0,0,1,,,,,,,,,0,,,63,67
62120,note_on,0,0,1,,,,,,,,,0,,,59,67
62120,note_on,40,0,1,,,,,,,,,0,,,63,0
62145,control_change,225,0,3,,,,,,,,,0,64,0,,
62160,note_on,0,0,1,,,,,,,,,0,,,71,0
62160,note_on,0,0,1,,,,,,,,,0,,,73,77
62160,note_on,240,0,2,,,,,,,,,0,,,39,0
62160,control_change,15,0,3,,,,,,,,,0,64,127,,
62160,note_on,40,0,1,,,,,,,,,0,,,59,0
62160,note_on,0,0,2,,,,,,,,,0,,,37,77
62190,note_on,0,0,2,,,,,,,,,0,,,39,78
62190,note_on,30,0,2,,,,,,,,,0,,,37,0
62200,note_on,40,0,1,,,,,,,,,0,,,64,68
62220,note_on,30,0,2,,,,,,,,,0,,,39,0
62220,note_on,0,0,2,,,,,,,,,0,,,37,78
62240,note_on,40,0,1,,,,,,,,,0,,,64,0
62240,note_on,0,0,1,,,,,,,,,0,,,66,68
62240,note_on,20,0,2,,,,,,,,,0,,,37,0
62240,note_on,0,0,2,,,,,,,,,0,,,39,78
62260,note_on,0,0,2,,,,,,,,,0,,,37,79
62260,note_on,20,0,2,,,,,,,,,0,,,39,0
62280,note_on,40,0,1,,,,,,,,,0,,,66,0
62280,note_on,20,0,2,,,,,,,,,0,,,37,0
62280,note_on,0,0,1,,,,,,,,,0,,,70,69
62280,note_on,0,0,2,,,,,,,,,0,,,39,79
62300,note_on,0,0,2,,,,,,,,,0,,,37,79
62300,note_on,20,0,2,,,,,,,,,0,,,39,0
62320,note_on,40,0,1,,,,,,,,,0,,,70,0
62320,note_on,20,0,2,,,,,,,,,0,,,37,0
62320,note_on,0,0,2,,,,,,,,,0,,,39,79
62320,note_on,0,0,1,,,,,,,,,0,,,66,69
62340,note_on,20,0,2,,,,,,,,,0,,,39,0
62340,note_on,0,0,2,,,,,,,,,0,,,37,79
62360,note_on,0,0,1,,,,,,,,,0,,,64,70
62360,note_on,20,0,2,,,,,,,,,0,,,37,0
62360,note_on,40,0,1,,,,,,,,,0,,,66,0
62360,note_on,0,0,2,,,,,,,,,0,,,35,80
62380,note_on,20,0,2,,,,,,,,,0,,,35,0
62380,note_on,0,0,2,,,,,,,,,0,,,37,80
62385,control_change,225,0,3,,,,,,,,,0,64,0,,
62400,note_on,0,0,2,,,,,,,,,0,,,35,80
62400,note_on,40,0,1,,,,,,,,,0,,,64,0
62400,note_on,0,0,1,,,,,,,,,0,,,73,0
62400,note_on,0,0,1,,,,,,,,,0,,,76,80
62400,note_on,20,0,2,,,,,,,,,0,,,37,0
62400,control_change,15,0,3,,,,,,,,,0,64,127,,
62440,note_on,40,0,1,,,,,,,,,0,,,64,70
62480,note_on,0,0,1,,,,,,,,,0,,,66,71
62480,note_on,40,0,1,,,,,,,,,0,,,64,0
62520,note_on,0,0,1,,,,,,,,,0,,,73,71
62520,note_on,40,0,1,,,,,,,,,0,,,66,0
62560,note_on,40,0,1,,,,,,,,,0,,,73,0
62560,note_on,0,0,1,,,,,,,,,0,,,66,72
62600,note_on,0,0,1,,,,,,,,,0,,,64,72
62600,note_on,40,0,1,,,,,,,,,0,,,66,0
62640,note_on,40,0,1,,,,,,,,,0,,,64,0
62640,note_on,0,0,1,,,,,,,,,0,,,66,73
62680,note_on,40,0,1,,,,,,,,,0,,,66,0
62680,note_on,0,0,1,,,,,,,,,0,,,64,73
62720,note_on,40,0,1,,,,,,,,,0,,,64,0
62720,note_on,0,0,1,,,,,,,,,0,,,66,74
62760,note_on,0,0,1,,,,,,,,,0,,,76,0
62760,note_on,40,0,1,,,,,,,,,0,,,66,0
62760,note_on,0,0,1,,,,,,,,,0,,,71,74
62760,note_on,0,0,1,,,,,,,,,0,,,75,84
62800,note_on,40,0,1,,,,,,,,,0,,,71,0
62800,note_on,0,0,1,,,,,,,,,0,,,66,74
62840,note_on,40,0,1,,,,,,,,,0,,,66,0
62840,note_on,0,0,1,,,,,,,,,0,,,63,75
62865,control_change,465,0,3,,,,,,,,,0,64,0,,
62880,note_on,0,0,1,,,,,,,,,0,,,75,0
62880,control_change,15,0,3,,,,,,,,,0,64,127,,
62880,note_on,40,0,1,,,,,,,,,0,,,63,0
62880,note_on,0,0,1,,,,,,,,,0,,,75,85
62920,note_on,40,0,1,,,,,,,,,0,,,63,76
62960,note_on,0,0,1,,,,,,,,,0,,,66,76
62960,note_on,40,0,1,,,,,,,,,0,,,63,0
63000,note_on,40,0,1,,,,,,,,,0,,,66,0
63000,note_on,0,0,1,,,,,,,,,0,,,71,77
63040,note_on,40,0,1,,,,,,,,,0,,,71,0
63040,note_on,0,0,1,,,,,,,,,0,,,66,77
63080,note_on,40,0,1,,,,,,,,,0,,,66,0
63080,note_on,0,0,1,,,,,,,,,0,,,63,78
63120,note_on,40,0,1,,,,,,,,,0,,,63,0
63120,note_on,0,0,1,,,,,,,,,0,,,66,78
63160,note_on,0,0,1,,,,,,,,,0,,,63,78
63160,note_on,40,0,1,,,,,,,,,0,,,66,0
63200,note_on,40,0,1,,,,,,,,,0,,,63,0
63200,note_on,0,0,1,,,,,,,,,0,,,66,79
63240,note_on,40,0,1,,,,,,,,,0,,,66,0
63240,note_on,0,0,1,,,,,,,,,0,,,71,79
63280,note_on,0,0,1,,,,,,,,,0,,,66,80
63280,note_on,40,0,1,,,,,,,,,0,,,71,0
63320,note_on,40,0,1,,,,,,,,,0,,,66,0
63320,note_on,0,0,1,,,,,,,,,0,,,63,80
63345,control_change,465,0,3,,,,,,,,,0,64,0,,
63360,note_on,40,0,1,,,,,,,,,0,,,63,0
63360,note_on,0,0,1,,,,,,,,,0,,,75,0
63360,note_on,0,0,1,,,,,,,,,0,,,75,50
63360,control_change,15,0,3,,,,,,,,,0,64,127,,
63360,note_on,960,0,2,,,,,,,,,0,,,35,0
63360,note_on,0,0,2,,,,,,,,,0,,,47,50
63360,note_on,0,0,2,,,,,,,,,0,,,54,50
63400,note_on,40,0,1,,,,,,,,,0,,,63,40
63440,note_on,40,0,1,,,,,,,,,0,,,63,0
63440,note_on,0,0,1,,,,,,,,,0,,,66,40
63480,note_on,40,0,1,,,,,,,,,0,,,66,0
63480,note_on,0,0,1,,,,,,,,,0,,,71,40
63520,note_on,40,0,1,,,,,,,,,0,,,71,0
63520,note_on,0,0,1,,,,,,,,,0,,,66,40
63560,note_on,40,0,1,,,,,,,,,0,,,66,0
63560,note_on,0,0,1,,,,,,,,,0,,,63,40
63600,note_on,0,0,1,,,,,,,,,0,,,66,40
63600,note_on,40,0,1,,,,,,,,,0,,,63,0
63640,note_on,0,0,1,,,,,,,,,0,,,63,40
63640,note_on,40,0,1,,,,,,,,,0,,,66,0
63680,note_on,0,0,1,,,,,,,,,0,,,66,40
63680,note_on,40,0,1,,,,,,,,,0,,,63,0
63720,note_on,40,0,1,,,,,,,,,0,,,66,0
63720,note_on,0,0,1,,,,,,,,,0,,,71,40
63760,note_on,40,0,1,,,,,,,,,0,,,71,0
63760,note_on,0,0,1,,,,,,,,,0,,,66,40
63800,note_on,0,0,1,,,,,,,,,0,,,63,40
63800,note_on,40,0,1,,,,,,,,,0,,,66,0
63825,control_change,465,0,3,,,,,,,,,0,64,0,,
63840,note_on,0,0,2,,,,,,,,,0,,,47,50
63840,note_on,0,0,2,,,,,,,,,0,,,56,50
63840,note_on,0,0,2,,,,,,,,,0,,,47,0
63840,note_on,480,0,2,,,,,,,,,0,,,54,0
63840,note_on,40,0,1,,,,,,,,,0,,,63,0
63840,note_on,0,0,1,,,,,,,,,0,,,75,0
63840,control_change,15,0,3,,,,,,,,,0,64,127,,
63840,note_on,0,0,1,,,,,,,,,0,,,75,50
63880,note_on,40,0,1,,,,,,,,,0,,,68,40
63920,note_on,0,0,1,,,,,,,,,0,,,65,40
63920,note_on,40,0,1,,,,,,,,,0,,,68,0
63960,note_on,40,0,1,,,,,,,,,0,,,65,0
63960,note_on,0,0,1,,,,,,,,,0,,,71,50
63960,note_on,0,0,1,,,,,,,,,0,,,75,0
64000,note_on,40,0,1,,,,,,,,,0,,,68,40
64040,note_on,0,0,1,,,,,,,,,0,,,65,40
64040,note_on,40,0,1,,,,,,,,,0,,,68,0
64065,control_change,225,0,3,,,,,,,,,0,64,0,,
64080,note_on,0,0,2,,,,,,,,,0,,,53,50
64080,note_on,240,0,2,,,,,,,,,0,,,56,0
64080,note_on,0,0,1,,,,,,,,,0,,,70,50
64080,control_change,15,0,3,,,,,,,,,0,64,127,,
64080,note_on,0,0,1,,,,,,,,,0,,,71,0
64080,note_on,40,0,1,,,,,,,,,0,,,65,0
64120,note_on,40,0,1,,,,,,,,,0,,,65,40
64160,note_on,40,0,1,,,,,,,,,0,,,65,0
64160,note_on,0,0,1,,,,,,,,,0,,,61,40
64200,note_on,0,0,1,,,,,,,,,0,,,68,50
64200,note_on,0,0,1,,,,,,,,,0,,,70,0
64200,note_on,40,0,1,,,,,,,,,0,,,61,0
64240,note_on,40,0,1,,,,,,,,,0,,,65,40
64280,note_on,0,0,1,,,,,,,,,0,,,61,40
64280,note_on,40,0,1,,,,,,,,,0,,,65,0
64305,control_change,225,0,3,,,,,,,,,0,64,0,,
64320,note_on,0,0,2,,,,,,,,,0,,,47,0
64320,note_on,0,0,1,,,,,,,,,0,,,73,50
64320,note_on,240,0,2,,,,,,,,,0,,,53,0
64320,note_on,0,0,1,,,,,,,,,0,,,68,0
64320,control_change,15,0,3,,,,,,,,,0,64,127,,
64320,note_on,40,0,1,,,,,,,,,0,,,61,0
64320,note_on,0,0,2,,,,,,,,,0,,,46,50
64320,note_on,0,0,2,,,,,,,,,0,,,54,50
64360,note_on,40,0,1,,,,,,,,,0,,,61,40
64400,note_on,40,0,1,,,,,,,,,0,,,61,0
64400,note_on,0,0,1,,,,,,,,,0,,,66,40
64440,note_on,40,0,1,,,,,,,,,0,,,66,0
64440,note_on,0,0,1,,,,,,,,,0,,,70,40
64480,note_on,0,0,1,,,,,,,,,0,,,66,40
64480,note_on,40,0,1,,,,,,,,,0,,,70,0
64520,note_on,0,0,1,,,,,,,,,0,,,61,40
64520,note_on,40,0,1,,,,,,,,,0,,,66,0
64560,note_on,0,0,1,,,,,,,,,0,,,66,40
64560,note_on,40,0,1,,,,,,,,,0,,,61,0
64600,note_on,0,0,1,,,,,,,,,0,,,61,40
64600,note_on,40,0,1,,,,,,,,,0,,,66,0
64640,note_on,0,0,1,,,,,,,,,0,,,66,40
64640,note_on,40,0,1,,,,,,,,,0,,,61,0
64680,note_on,0,0,1,,,,,,,,,0,,,70,40
64680,note_on,40,0,1,,,,,,,,,0,,,66,0
64720,note_on,0,0,1,,,,,,,,,0,,,66,40
64720,note_on,40,0,1,,,,,,,,,0,,,70,0
64760,note_on,0,0,1,,,,,,,,,0,,,61,40
64760,note_on,40,0,1,,,,,,,,,0,,,66,0
64785,control_change,465,0,3,,,,,,,,,0,64,0,,
64800,control_change,15,0,3,,,,,,,,,0,64,127,,
64800,note_on,0,0,2,,,,,,,,,0,,,54,50
64800,note_on,0,0,2,,,,,,,,,0,,,54,0
64800,note_on,480,0,2,,,,,,,,,0,,,46,0
64800,note_on,0,0,2,,,,,,,,,0,,,47,50
64800,note_on,40,0,1,,,,,,,,,0,,,61,0
64800,note_on,0,0,1,,,,,,,,,0,,,73,0
64800,note_on,0,0,1,,,,,,,,,0,,,73,50
64840,note_on,40,0,1,,,,,,,,,0,,,66,40
64880,note_on,0,0,1,,,,,,,,,0,,,63,40
64880,note_on,40,0,1,,,,,,,,,0,,,66,0
64920,note_on,0,0,1,,,,,,,,,0,,,73,0
64920,note_on,40,0,1,,,,,,,,,0,,,63,0
64920,note_on,0,0,1,,,,,,,,,0,,,71,50
64960,note_on,40,0,1,,,,,,,,,0,,,66,40
65000,note_on,0,0,1,,,,,,,,,0,,,63,40
65000,note_on,40,0,1,,,,,,,,,0,,,66,0
65025,control_change,225,0,3,,,,,,,,,0,64,0,,
65040,control_change,15,0,3,,,,,,,,,0,64,127,,
65040,note_on,0,0,1,,,,,,,,,0,,,68,50
65040,note_on,0,0,1,,,,,,,,,0,,,71,0
65040,note_on,240,0,2,,,,,,,,,0,,,54,0
65040,note_on,0,0,2,,,,,,,,,0,,,56,50
65040,note_on,40,0,1,,,,,,,,,0,,,63,0
65080,note_on,40,0,1,,,,,,,,,0,,,63,40
65120,note_on,0,0,1,,,,,,,,,0,,,59,40
65120,note_on,40,0,1,,,,,,,,,0,,,63,0
65160,note_on,0,0,1,,,,,,,,,0,,,63,50
65160,note_on,0,0,1,,,,,,,,,0,,,68,0
65160,note_on,40,0,1,,,,,,,,,0,,,59,0
65200,note_on,40,0,1,,,,,,,,,0,,,59,40
65240,note_on,0,0,1,,,,,,,,,0,,,56,40
65240,note_on,40,0,1,,,,,,,,,0,,,59,0
65265,control_change,225,0,3,,,,,,,,,0,64,0,,
65280,note_on,240,0,2,,,,,,,,,0,,,56,0
65280,control_change,15,0,3,,,,,,,,,0,64,127,,
65280,note_on,0,0,2,,,,,,,,,0,,,49,50
65280,note_on,0,0,2,,,,,,,,,0,,,47,0
65280,note_on,0,0,1,,,,,,,,,0,,,63,0
65280,note_on,0,0,1,,,,,,,,,0,,,66,50
65280,note_on,40,0,1,,,,,,,,,0,,,56,0
65320,note_on,40,0,1,,,,,,,,,0,,,54,40
65360,note_on,40,0,1,,,,,,,,,0,,,54,0
65360,note_on,0,0,1,,,,,,,,,0,,,58,40
65400,note_on,0,0,1,,,,,,,,,0,,,61,40
65400,note_on,40,0,1,,,,,,,,,0,,,58,0
65440,note_on,40,0,1,,,,,,,,,0,,,61,0
65440,note_on,0,0,1,,,,,,,,,0,,,58,40
65480,note_on,0,0,1,,,,,,,,,0,,,54,40
65480,note_on,40,0,1,,,,,,,,,0,,,58,0
65520,note_on,0,0,1,,,,,,,,,0,,,58,40
65520,note_on,40,0,1,,,,,,,,,0,,,54,0
65560,note_on,40,0,1,,,,,,,,,0,,,58,0
65560,note_on,0,0,1,,,,,,,,,0,,,54,40
65600,note_on,40,0,1,,,,,,,,,0,,,54,0
65600,note_on,0,0,1,,,,,,,,,0,,,58,40
65640,note_on,40,0,1,,,,,,,,,0,,,58,0
65640,note_on,0,0,1,,,,,,,,,0,,,61,40
65680,note_on,0,0,1,,,,,,,,,0,,,58,40
65680,note_on,40,0,1,,,,,,,,,0,,,61,0
65720,note_on,40,0,1,,,,,,,,,0,,,58,0
65720,note_on,0,0,1,,,,,,,,,0,,,54,40
65720,note_on,440,0,2,,,,,,,,,0,,,37,50
65745,control_change,465,0,3,,,,,,,,,0,64,0,,
65760,note_on,40,0,1,,,,,,,,,0,,,54,0
65760,note_on,40,0,2,,,,,,,,,0,,,37,0
65760,control_change,15,0,3,,,,,,,,,0,64,127,,
65760,note_on,0,0,2,,,,,,,,,0,,,49,50
65760,set_tempo,4200,1,0,,,,,,454580,,,,,,,
65760,note_on,0,0,2,,,,,,,,,0,,,49,0
65760,note_on,0,0,1,,,,,,,,,0,,,66,0
65760,note_on,0,0,1,,,,,,,,,0,,,66,50
65774,set_tempo,14,1,0,,,,,,455615,,,,,,,
65781,set_tempo,7,1,0,,,,,,456656,,,,,,,
65788,set_tempo,7,1,0,,,,,,457701,,,,,,,
65795,set_tempo,7,1,0,,,,,,458751,,,,,,,
65800,note_on,40,0,1,,,,,,,,,0,,,59,40
65802,set_tempo,7,1,0,,,,,,459805,,,,,,,
65809,set_tempo,7,1,0,,,,,,460865,,,,,,,
65816,set_tempo,7,1,0,,,,,,461929,,,,,,,
65823,set_tempo,7,1,0,,,,,,462999,,,,,,,
65830,set_tempo,7,1,0,,,,,,464073,,,,,,,
65837,set_tempo,7,1,0,,,,,,465152,,,,,,,
65840,note_on,0,0,1,,,,,,,,,0,,,56,40
65840,note_on,40,0,1,,,,,,,,,0,,,59,0
65844,set_tempo,7,1,0,,,,,,466237,,,,,,,
65851,set_tempo,7,1,0,,,,,,467326,,,,,,,
65858,set_tempo,7,1,0,,,,,,468421,,,,,,,
65865,set_tempo,7,1,0,,,,,,469520,,,,,,,
65872,set_tempo,7,1,0,,,,,,470625,,,,,,,
65880,set_tempo,8,1,0,,,,,,471735,,,,,,,
65880,note_on,40,0,1,,,,,,,,,0,,,56,0
65880,note_on,0,0,1,,,,,,,,,0,,,66,0
65880,note_on,0,0,1,,,,,,,,,0,,,65,50
65887,set_tempo,7,1,0,,,,,,472851,,,,,,,
65894,set_tempo,7,1,0,,,,,,473971,,,,,,,
65901,set_tempo,7,1,0,,,,,,475097,,,,,,,
65908,set_tempo,7,1,0,,,,,,476228,,,,,,,
65915,set_tempo,7,1,0,,,,,,477365,,,,,,,
65920,note_on,40,0,1,,,,,,,,,0,,,59,40
65922,set_tempo,7,1,0,,,,,,478507,,,,,,,
65929,set_tempo,7,1,0,,,,,,479655,,,,,,,
65936,set_tempo,7,1,0,,,,,,480808,,,,,,,
65943,set_tempo,7,1,0,,,,,,481966,,,,,,,
65950,set_tempo,7,1,0,,,,,,483131,,,,,,,
65957,set_tempo,7,1,0,,,,,,484301,,,,,,,
65960,note_on,0,0,1,,,,,,,,,0,,,56,40
65960,note_on,40,0,1,,,,,,,,,0,,,59,0
65964,set_tempo,7,1,0,,,,,,485476,,,,,,,
65971,set_tempo,7,1,0,,,,,,486657,,,,,,,
65978,set_tempo,7,1,0,,,,,,487845,,,,,,,
65985,set_tempo,7,1,0,,,,,,489037,,,,,,,
65985,control_change,225,0,3,,,,,,,,,0,64,0,,
65992,set_tempo,7,1,0,,,,,,490236,,,,,,,
66000,note_on,0,0,1,,,,,,,,,0,,,70,50
66000,note_on,0,0,1,,,,,,,,,0,,,65,0
66000,note_on,40,0,1,,,,,,,,,0,,,56,0
66000,note_on,240,0,2,,,,,,,,,0,,,54,50
66000,control_change,15,0,3,,,,,,,,,0,64,127,,
66000,set_tempo,8,1,0,,,,,,491441,,,,,,,
66007,set_tempo,7,1,0,,,,,,492651,,,,,,,
66014,set_tempo,7,1,0,,,,,,493868,,,,,,,
66021,set_tempo,7,1,0,,,,,,495090,,,,,,,
66028,set_tempo,7,1,0,,,,,,496319,,,,,,,
66035,set_tempo,7,1,0,,,,,,497554,,,,,,,
66040,note_on,40,0,1,,,,,,,,,0,,,61,40
66042,set_tempo,7,1,0,,,,,,498795,,,,,,,
66049,set_tempo,7,1,0,,,,,,500042,,,,,,,
66056,set_tempo,7,1,0,,,,,,501295,,,,,,,
66063,set_tempo,7,1,0,,,,,,502555,,,,,,,
66070,set_tempo,7,1,0,,,,,,503821,,,,,,,
66077,set_tempo,7,1,0,,,,,,505093,,,,,,,
66080,note_on,0,0,1,,,,,,,,,0,,,59,40
66080,note_on,40,0,1,,,,,,,,,0,,,61,0
66084,set_tempo,7,1,0,,,,,,506372,,,,,,,
66091,set_tempo,7,1,0,,,,,,507657,,,,,,,
66098,set_tempo,7,1,0,,,,,,508949,,,,,,,
66105,set_tempo,7,1,0,,,,,,510247,,,,,,,
66112,set_tempo,7,1,0,,,,,,511553,,,,,,,
66120,note_on,40,0,1,,,,,,,,,0,,,59,0
66120,note_on,0,0,1,,,,,,,,,0,,,68,50
66120,note_on,0,0,1,,,,,,,,,0,,,70,0
66120,note_on,120,0,2,,,,,,,,,0,,,54,0
66120,note_on,0,0,2,,,,,,,,,0,,,53,50
66120,set_tempo,8,1,0,,,,,,512864,,,,,,,
66127,set_tempo,7,1,0,,,,,,514183,,,,,,,
66134,set_tempo,7,1,0,,,,,,515508,,,,,,,
66141,set_tempo,7,1,0,,,,,,516840,,,,,,,
66148,set_tempo,7,1,0,,,,,,518179,,,,,,,
66155,set_tempo,7,1,0,,,,,,519526,,,,,,,
66160,note_on,40,0,1,,,,,,,,,0,,,61,40
66162,set_tempo,7,1,0,,,,,,520879,,,,,,,
66169,set_tempo,7,1,0,,,,,,522239,,,,,,,
66176,set_tempo,7,1,0,,,,,,523606,,,,,,,
66183,set_tempo,7,1,0,,,,,,524980,,,,,,,
66190,set_tempo,7,1,0,,,,,,526362,,,,,,,
66197,set_tempo,7,1,0,,,,,,527751,,,,,,,
66200,note_on,40,0,1,,,,,,,,,0,,,61,0
66200,note_on,0,0,1,,,,,,,,,0,,,59,40
66204,set_tempo,7,1,0,,,,,,529147,,,,,,,
66211,set_tempo,7,1,0,,,,,,530551,,,,,,,
66218,set_tempo,7,1,0,,,,,,531962,,,,,,,
66225,set_tempo,7,1,0,,,,,,533381,,,,,,,
66225,control_change,225,0,3,,,,,,,,,0,64,0,,
66232,set_tempo,7,1,0,,,,,,534807,,,,,,,
66240,note_on,0,0,1,,,,,,,,,0,,,68,0
66240,note_on,40,0,1,,,,,,,,,0,,,59,0
66240,note_on,0,0,1,,,,,,,,,0,,,71,50
66240,note_on,0,0,2,,,,,,,,,0,,,54,50
66240,set_tempo,8,1,0,,,,,,535714,,,,,,,
66240,note_on,0,0,2,,,,,,,,,0,,,51,50
66240,note_on,120,0,2,,,,,,,,,0,,,53,0
66240,note_on,0,0,2,,,,,,,,,0,,,49,0
66240,control_change,15,0,3,,,,,,,,,0,64,127,,
66280,note_on,40,0,1,,,,,,,,,0,,,59,42
66320,note_on,40,0,1,,,,,,,,,0,,,59,0
66320,note_on,0,0,1,,,,,,,,,0,,,63,45
66360,note_on,40,0,1,,,,,,,,,0,,,63,0
66360,note_on,0,0,1,,,,,,,,,0,,,66,47
66400,note_on,40,0,1,,,,,,,,,0,,,66,0
66400,note_on,0,0,1,,,,,,,,,0,,,63,50
66440,note_on,40,0,1,,,,,,,,,0,,,63,0
66440,note_on,0,0,1,,,,,,,,,0,,,59,53
66480,note_on,40,0,1,,,,,,,,,0,,,59,0
66480,note_on,0,0,1,,,,,,,,,0,,,63,55
66520,note_on,40,0,1,,,,,,,,,0,,,63,0
66520,note_on,0,0,1,,,,,,,,,0,,,59,58
66560,note_on,40,0,1,,,,,,,,,0,,,59,0
66560,note_on,0,0,1,,,,,,,,,0,,,63,61
66600,note_on,40,0,1,,,,,,,,,0,,,63,0
66600,note_on,0,0,1,,,,,,,,,0,,,66,63
66640,note_on,40,0,1,,,,,,,,,0,,,66,0
66640,note_on,0,0,1,,,,,,,,,0,,,63,66
66680,note_on,0,0,1,,,,,,,,,0,,,59,69
66680,note_on,40,0,1,,,,,,,,,0,,,63,0
66705,control_change,465,0,3,,,,,,,,,0,64,0,,
66720,note_on,480,0,2,,,,,,,,,0,,,54,0
66720,note_on,0,0,2,,,,,,,,,0,,,51,0
66720,note_on,0,0,2,,,,,,,,,0,,,58,81
66720,control_change,15,0,3,,,,,,,,,0,64,127,,
66720,note_on,40,0,1,,,,,,,,,0,,,59,0
66720,note_on,0,0,1,,,,,,,,,0,,,71,0
66720,note_on,0,0,1,,,,,,,,,0,,,73,81
66720,note_on,0,0,2,,,,,,,,,0,,,54,81
66720,set_tempo,480,1,0,,,,,,534807,,,,,,,
66734,set_tempo,14,1,0,,,,,,533381,,,,,,,
66741,set_tempo,7,1,0,,,,,,531962,,,,,,,
66748,set_tempo,7,1,0,,,,,,530551,,,,,,,
66755,set_tempo,7,1,0,,,,,,529147,,,,,,,
66760,note_on,40,0,1,,,,,,,,,0,,,64,74
66762,set_tempo,7,1,0,,,,,,527751,,,,,,,
66769,set_tempo,7,1,0,,,,,,526362,,,,,,,
66776,set_tempo,7,1,0,,,,,,524980,,,,,,,
66783,set_tempo,7,1,0,,,,,,523606,,,,,,,
66790,set_tempo,7,1,0,,,,,,522239,,,,,,,
66797,set_tempo,7,1,0,,,,,,520879,,,,,,,
66800,note_on,40,0,1,,,,,,,,,0,,,64,0
66800,note_on,0,0,1,,,,,,,,,0,,,66,77
66804,set_tempo,7,1,0,,,,,,519526,,,,,,,
66811,set_tempo,7,1,0,,,,,,518179,,,,,,,
66818,set_tempo,7,1,0,,,,,,516840,,,,,,,
66825,set_tempo,7,1,0,,,,,,515508,,,,,,,
66832,set_tempo,7,1,0,,,,,,514183,,,,,,,
66840,set_tempo,8,1,0,,,,,,512864,,,,,,,
66840,note_on,40,0,1,,,,,,,,,0,,,66,0
66840,note_on,0,0,1,,,,,,,,,0,,,70,79
66847,set_tempo,7,1,0,,,,,,511553,,,,,,,
66854,set_tempo,7,1,0,,,,,,510247,,,,,,,
66861,set_tempo,7,1,0,,,,,,508949,,,,,,,
66868,set_tempo,7,1,0,,,,,,507657,,,,,,,
66875,set_tempo,7,1,0,,,,,,506372,,,,,,,
66880,note_on,40,0,1,,,,,,,,,0,,,70,0
66880,note_on,0,0,1,,,,,,,,,0,,,66,82
66882,set_tempo,7,1,0,,,,,,505093,,,,,,,
66889,set_tempo,7,1,0,,,,,,503821,,,,,,,
66896,set_tempo,7,1,0,,,,,,502555,,,,,,,
66903,set_tempo,7,1,0,,,,,,501295,,,,,,,
66910,set_tempo,7,1,0,,,,,,500042,,,,,,,
66917,set_tempo,7,1,0,,,,,,498795,,,,,,,
66920,note_on,0,0,1,,,,,,,,,0,,,64,85
66920,note_on,40,0,1,,,,,,,,,0,,,66,0
66924,set_tempo,7,1,0,,,,,,497554,,,,,,,
66931,set_tempo,7,1,0,,,,,,496319,,,,,,,
66938,set_tempo,7,1,0,,,,,,495090,,,,,,,
66945,control_change,225,0,3,,,,,,,,,0,64,0,,
66945,set_tempo,7,1,0,,,,,,493868,,,,,,,
66952,set_tempo,7,1,0,,,,,,492651,,,,,,,
66960,note_on,0,0,1,,,,,,,,,0,,,73,0
66960,control_change,15,0,3,,,,,,,,,0,64,127,,
66960,set_tempo,8,1,0,,,,,,491441,,,,,,,
66960,note_on,40,0,1,,,,,,,,,0,,,64,0
66960,note_on,0,0,1,,,,,,,,,0,,,74,97
66967,set_tempo,7,1,0,,,,,,490236,,,,,,,
66974,set_tempo,7,1,0,,,,,,489037,,,,,,,
66981,set_tempo,7,1,0,,,,,,487845,,,,,,,
66988,set_tempo,7,1,0,,,,,,486657,,,,,,,
66995,set_tempo,7,1,0,,,,,,485476,,,,,,,
67000,note_on,40,0,1,,,,,,,,,0,,,64,90
67002,set_tempo,7,1,0,,,,,,484301,,,,,,,
67009,set_tempo,7,1,0,,,,,,483131,,,,,,,
67016,set_tempo,7,1,0,,,,,,481966,,,,,,,
67023,set_tempo,7,1,0,,,,,,480808,,,,,,,
67030,set_tempo,7,1,0,,,,,,479655,,,,,,,
67037,set_tempo,7,1,0,,,,,,478507,,,,,,,
67040,note_on,0,0,1,,,,,,,,,0,,,66,93
67040,note_on,40,0,1,,,,,,,,,0,,,64,0
67044,set_tempo,7,1,0,,,,,,477365,,,,,,,
67051,set_tempo,7,1,0,,,,,,476228,,,,,,,
67058,set_tempo,7,1,0,,,,,,475097,,,,,,,
67065,set_tempo,7,1,0,,,,,,473971,,,,,,,
67072,set_tempo,7,1,0,,,,,,472851,,,,,,,
67080,set_tempo,8,1,0,,,,,,471735,,,,,,,
67080,note_on,0,0,1,,,,,,,,,0,,,70,95
67080,note_on,40,0,1,,,,,,,,,0,,,66,0
67087,set_tempo,7,1,0,,,,,,470625,,,,,,,
67094,set_tempo,7,1,0,,,,,,469520,,,,,,,
67101,set_tempo,7,1,0,,,,,,468421,,,,,,,
67108,set_tempo,7,1,0,,,,,,467326,,,,,,,
67115,set_tempo,7,1,0,,,,,,466237,,,,,,,
67120,note_on,40,0,1,,,,,,,,,0,,,70,0
67120,note_on,0,0,1,,,,,,,,,0,,,66,98
67122,set_tempo,7,1,0,,,,,,465152,,,,,,,
67129,set_tempo,7,1,0,,,,,,464073,,,,,,,
67136,set_tempo,7,1,0,,,,,,462999,,,,,,,
67143,set_tempo,7,1,0,,,,,,461929,,,,,,,
67150,set_tempo,7,1,0,,,,,,460865,,,,,,,
67157,set_tempo,7,1,0,,,,,,459805,,,,,,,
67160,note_on,0,0,1,,,,,,,,,0,,,64,100
67160,note_on,40,0,1,,,,,,,,,0,,,66,0
67164,set_tempo,7,1,0,,,,,,458751,,,,,,,
67171,set_tempo,7,1,0,,,,,,457701,,,,,,,
67178,set_tempo,7,1,0,,,,,,456656,,,,,,,
67185,set_tempo,7,1,0,,,,,,455615,,,,,,,
67185,control_change,225,0,3,,,,,,,,,0,64,0,,
67192,set_tempo,7,1,0,,,,,,454580,,,,,,,
67200,note_on,0,0,1,,,,,,,,,0,,,74,0
67200,note_on,40,0,1,,,,,,,,,0,,,64,0
67200,note_on,0,0,1,,,,,,,,,0,,,75,110
67200,control_change,15,0,3,,,,,,,,,0,64,127,,
67200,note_on,480,0,2,,,,,,,,,0,,,54,0
67200,note_on,0,0,2,,,,,,,,,0,,,58,0
67200,note_on,0,0,2,,,,,,,,,0,,,59,110
67200,note_on,0,0,2,,,,,,,,,0,,,47,110
67200,note_on,0,0,2,,,,,,,,,0,,,54,110
67200,set_tempo,8,1,0,,,,,,454545,,,,,,,
67240,note_on,40,0,1,,,,,,,,,0,,,63,95
67280,note_on,0,0,1,,,,,,,,,0,,,66,89
67280,note_on,40,0,1,,,,,,,,,0,,,63,0
67320,note_on,40,0,1,,,,,,,,,0,,,66,0
67320,note_on,0,0,1,,,,,,,,,0,,,71,83
67360,note_on,40,0,1,,,,,,,,,0,,,71,0
67360,note_on,0,0,1,,,,,,,,,0,,,66,78
67400,note_on,0,0,1,,,,,,,,,0,,,63,72
67400,note_on,40,0,1,,,,,,,,,0,,,66,0
67440,note_on,0,0,1,,,,,,,,,0,,,66,66
67440,note_on,40,0,1,,,,,,,,,0,,,63,0
67480,note_on,40,0,1,,,,,,,,,0,,,66,0
67480,note_on,0,0,1,,,,,,,,,0,,,63,61
67520,note_on,0,0,1,,,,,,,,,0,,,66,55
67520,note_on,40,0,1,,,,,,,,,0,,,63,0
67560,note_on,40,0,1,,,,,,,,,0,,,66,0
67560,note_on,0,0,1,,,,,,,,,0,,,71,49
67600,note_on,40,0,1,,,,,,,,,0,,,71,0
67600,note_on,0,0,1,,,,,,,,,0,,,66,43
67640,note_on,40,0,1,,,,,,,,,0,,,66,0
67640,note_on,0,0,1,,,,,,,,,0,,,63,40
67665,control_change,465,0,3,,,,,,,,,0,64,0,,
67680,note_on,0,0,2,,,,,,,,,0,,,47,50
67680,note_on,0,0,1,,,,,,,,,0,,,75,50
67680,control_change,15,0,3,,,,,,,,,0,64,127,,
67680,note_on,480,0,2,,,,,,,,,0,,,54,0
67680,note_on,0,0,2,,,,,,,,,0,,,47,0
67680,note_on,0,0,2,,,,,,,,,0,,,59,0
67680,note_on,0,0,2,,,,,,,,,0,,,56,50
67680,note_on,0,0,1,,,,,,,,,0,,,75,0
67680,note_on,40,0,1,,,,,,,,,0,,,63,0
67720,note_on,40,0,1,,,,,,,,,0,,,68,40
67760,note_on,40,0,1,,,,,,,,,0,,,68,0
67760,note_on,0,0,1,,,,,,,,,0,,,65,40
67800,note_on,40,0,1,,,,,,,,,0,,,65,0
67800,note_on,0,0,1,,,,,,,,,0,,,75,0
67800,note_on,0,0,1,,,,,,,,,0,,,74,50
67840,note_on,40,0,1,,,,,,,,,0,,,68,40
67880,note_on,40,0,1,,,,,,,,,0,,,68,0
67880,note_on,0,0,1,,,,,,,,,0,,,65,40
67905,control_change,225,0,3,,,,,,,,,0,64,0,,
67920,control_change,15,0,3,,,,,,,,,0,64,127,,
67920,note_on,0,0,2,,,,,,,,,0,,,53,50
67920,note_on,240,0,2,,,,,,,,,0,,,56,0
67920,note_on,40,0,1,,,,,,,,,0,,,65,0
67920,note_on,0,0,1,,,,,,,,,0,,,74,0
67920,note_on,0,0,1,,,,,,,,,0,,,71,50
67960,note_on,40,0,1,,,,,,,,,0,,,65,40
68000,note_on,40,0,1,,,,,,,,,0,,,65,0
68000,note_on,0,0,1,,,,,,,,,0,,,62,40
68040,note_on,0,0,1,,,,,,,,,0,,,68,50
68040,note_on,0,0,1,,,,,,,,,0,,,71,0
68040,note_on,40,0,1,,,,,,,,,0,,,62,0
68080,note_on,40,0,1,,,,,,,,,0,,,65,40
68120,note_on,0,0,1,,,,,,,,,0,,,61,40
68120,note_on,40,0,1,,,,,,,,,0,,,65,0
68145,control_change,225,0,3,,,,,,,,,0,64,0,,
68160,note_on,40,0,1,,,,,,,,,0,,,61,0
68160,note_on,0,0,1,,,,,,,,,0,,,68,0
68160,note_on,0,0,2,,,,,,,,,0,,,46,50
68160,note_on,0,0,2,,,,,,,,,0,,,54,50
68160,note_on,0,0,2,,,,,,,,,0,,,47,0
68160,control_change,15,0,3,,,,,,,,,0,64,127,,
68160,note_on,240,0,2,,,,,,,,,0,,,53,0
68160,note_on,0,0,1,,,,,,,,,0,,,73,50
68200,note_on,40,0,1,,,,,,,,,0,,,61,40
68240,note_on,40,0,1,,,,,,,,,0,,,61,0
68240,note_on,0,0,1,,,,,,,,,0,,,66,40
68280,note_on,0,0,1,,,,,,,,,0,,,70,40
68280,note_on,40,0,1,,,,,,,,,0,,,66,0
68320,note_on,0,0,1,,,,,,,,,0,,,66,40
68320,note_on,40,0,1,,,,,,,,,0,,,70,0
68360,note_on,0,0,1,,,,,,,,,0,,,61,40
68360,note_on,40,0,1,,,,,,,,,0,,,66,0
68400,note_on,40,0,1,,,,,,,,,0,,,61,0
68400,note_on,0,0,1,,,,,,,,,0,,,66,40
68440,note_on,40,0,1,,,,,,,,,0,,,66,0
68440,note_on,0,0,1,,,,,,,,,0,,,61,40
68480,note_on,40,0,1,,,,,,,,,0,,,61,0
68480,note_on,0,0,1,,,,,,,,,0,,,66,40
68520,note_on,0,0,1,,,,,,,,,0,,,70,40
68520,note_on,40,0,1,,,,,,,,,0,,,66,0
68560,note_on,0,0,1,,,,,,,,,0,,,66,40
68560,note_on,40,0,1,,,,,,,,,0,,,70,0
68600,note_on,0,0,1,,,,,,,,,0,,,61,40
68600,note_on,40,0,1,,,,,,,,,0,,,66,0
68625,control_change,465,0,3,,,,,,,,,0,64,0,,
68640,note_on,0,0,1,,,,,,,,,0,,,73,50
68640,note_on,0,0,1,,,,,,,,,0,,,73,0
68640,note_on,40,0,1,,,,,,,,,0,,,61,0
68640,note_on,480,0,2,,,,,,,,,0,,,46,0
68640,note_on,0,0,2,,,,,,,,,0,,,47,50
68640,note_on,0,0,2,,,,,,,,,0,,,55,50
68640,note_on,0,0,2,,,,,,,,,0,,,54,0
68640,control_change,15,0,3,,,,,,,,,0,64,127,,
68680,note_on,40,0,1,,,,,,,,,0,,,67,40
68720,note_on,0,0,1,,,,,,,,,0,,,63,40
68720,note_on,40,0,1,,,,,,,,,0,,,67,0
68760,note_on,0,0,1,,,,,,,,,0,,,71,50
68760,note_on,0,0,1,,,,,,,,,0,,,73,0
68760,note_on,40,0,1,,,,,,,,,0,,,63,0
68760,note_on,0,0,2,,,,,,,,,0,,,56,50
68760,note_on,120,0,2,,,,,,,,,0,,,55,0
68800,note_on,40,0,1,,,,,,,,,0,,,68,40
68840,note_on,40,0,1,,,,,,,,,0,,,68,0
68840,note_on,0,0,1,,,,,,,,,0,,,63,40
68865,control_change,225,0,3,,,,,,,,,0,64,0,,
68880,control_change,15,0,3,,,,,,,,,0,64,127,,
68880,note_on,0,0,1,,,,,,,,,0,,,71,0
68880,note_on,0,0,2,,,,,,,,,0,,,51,50
68880,note_on,120,0,2,,,,,,,,,0,,,56,0
68880,note_on,40,0,1,,,,,,,,,0,,,63,0
68880,note_on,0,0,1,,,,,,,,,0,,,68,50
68920,note_on,40,0,1,,,,,,,,,0,,,63,40
68960,note_on,40,0,1,,,,,,,,,0,,,63,0
68960,note_on,0,0,1,,,,,,,,,0,,,59,40
69000,note_on,40,0,1,,,,,,,,,0,,,59,0
69000,note_on,0,0,1,,,,,,,,,0,,,63,50
69000,note_on,0,0,2,,,,,,,,,0,,,48,50
69000,note_on,120,0,2,,,,,,,,,0,,,47,0
69000,note_on,0,0,1,,,,,,,,,0,,,68,0
69040,note_on,40,0,1,,,,,,,,,0,,,60,40
69080,note_on,0,0,1,,,,,,,,,0,,,56,40
69080,note_on,40,0,1,,,,,,,,,0,,,60,0
69105,control_change,225,0,3,,,,,,,,,0,64,0,,
69120,note_on,0,0,2,,,,,,,,,0,,,51,0
69120,note_on,120,0,2,,,,,,,,,0,,,48,0
69120,control_change,15,0,3,,,,,,,,,0,64,127,,
69120,note_on,0,0,1,,,,,,,,,0,,,63,0
69120,note_on,0,0,1,,,,,,,,,0,,,66,50
69120,note_on,0,0,2,,,,,,,,,0,,,49,50
69120,note_on,40,0,1,,,,,,,,,0,,,56,0
69160,note_on,40,0,1,,,,,,,,,0,,,54,40
69200,note_on,40,0,1,,,,,,,,,0,,,54,0
69200,note_on,0,0,1,,,,,,,,,0,,,58,40
69240,note_on,40,0,1,,,,,,,,,0,,,58,0
69240,note_on,0,0,1,,,,,,,,,0,,,61,40
69280,note_on,40,0,1,,,,,,,,,0,,,61,0
69280,note_on,0,0,1,,,,,,,,,0,,,58,40
69320,note_on,40,0,1,,,,,,,,,0,,,58,0
69320,note_on,0,0,1,,,,,,,,,0,,,54,40
69360,note_on,40,0,1,,,,,,,,,0,,,54,0
69360,note_on,0,0,1,,,,,,,,,0,,,58,40
69400,note_on,0,0,1,,,,,,,,,0,,,54,40
69400,note_on,40,0,1,,,,,,,,,0,,,58,0
69440,note_on,40,0,1,,,,,,,,,0,,,54,0
69440,note_on,0,0,1,,,,,,,,,0,,,58,40
69480,note_on,0,0,1,,,,,,,,,0,,,61,40
69480,note_on,40,0,1,,,,,,,,,0,,,58,0
69520,note_on,0,0,1,,,,,,,,,0,,,58,40
69520,note_on,40,0,1,,,,,,,,,0,,,61,0
69560,note_on,40,0,1,,,,,,,,,0,,,58,0
69560,note_on,440,0,2,,,,,,,,,0,,,37,50
69560,note_on,0,0,1,,,,,,,,,0,,,54,40
69585,control_change,465,0,3,,,,,,,,,0,64,0,,
69600,note_on,40,0,1,,,,,,,,,0,,,54,0
69600,note_on,0,0,2,,,,,,,,,0,,,49,50
69600,note_on,0,0,2,,,,,,,,,0,,,49,0
69600,note_on,40,0,2,,,,,,,,,0,,,37,0
69600,control_change,15,0,3,,,,,,,,,0,64,127,,
69600,note_on,0,0,1,,,,,,,,,0,,,66,0
69600,note_on,0,0,1,,,,,,,,,0,,,66,50
69600,set_tempo,2400,1,0,,,,,,454580,,,,,,,
69614,set_tempo,14,1,0,,,,,,455615,,,,,,,
69621,set_tempo,7,1,0,,,,,,456656,,,,,,,
69628,set_tempo,7,1,0,,,,,,457701,,,,,,,
69635,set_tempo,7,1,0,,,,,,458751,,,,,,,
69640,note_on,40,0,1,,,,,,,,,0,,,59,40
69642,set_tempo,7,1,0,,,,,,459805,,,,,,,
69649,set_tempo,7,1,0,,,,,,460865,,,,,,,
69656,set_tempo,7,1,0,,,,,,461929,,,,,,,
69663,set_tempo,7,1,0,,,,,,462999,,,,,,,
69670,set_tempo,7,1,0,,,,,,464073,,,,,,,
69677,set_tempo,7,1,0,,,,,,465152,,,,,,,
69680,note_on,40,0,1,,,,,,,,,0,,,59,0
69680,note_on,0,0,1,,,,,,,,,0,,,56,40
69684,set_tempo,7,1,0,,,,,,466237,,,,,,,
69691,set_tempo,7,1,0,,,,,,467326,,,,,,,
69698,set_tempo,7,1,0,,,,,,468421,,,,,,,
69705,set_tempo,7,1,0,,,,,,469520,,,,,,,
69712,set_tempo,7,1,0,,,,,,470625,,,,,,,
69720,set_tempo,8,1,0,,,,,,471735,,,,,,,
69720,note_on,0,0,1,,,,,,,,,0,,,66,0
69720,note_on,40,0,1,,,,,,,,,0,,,56,0
69720,note_on,0,0,1,,,,,,,,,0,,,65,50
69727,set_tempo,7,1,0,,,,,,472851,,,,,,,
69734,set_tempo,7,1,0,,,,,,473971,,,,,,,
69741,set_tempo,7,1,0,,,,,,475097,,,,,,,
69748,set_tempo,7,1,0,,,,,,476228,,,,,,,
69755,set_tempo,7,1,0,,,,,,477365,,,,,,,
69760,note_on,40,0,1,,,,,,,,,0,,,59,40
69762,set_tempo,7,1,0,,,,,,478507,,,,,,,
69769,set_tempo,7,1,0,,,,,,479655,,,,,,,
69776,set_tempo,7,1,0,,,,,,480808,,,,,,,
69783,set_tempo,7,1,0,,,,,,481966,,,,,,,
69790,set_tempo,7,1,0,,,,,,483131,,,,,,,
69797,set_tempo,7,1,0,,,,,,484301,,,,,,,
69800,note_on,40,0,1,,,,,,,,,0,,,59,0
69800,note_on,0,0,1,,,,,,,,,0,,,56,40
69804,set_tempo,7,1,0,,,,,,485476,,,,,,,
69811,set_tempo,7,1,0,,,,,,486657,,,,,,,
69818,set_tempo,7,1,0,,,,,,487845,,,,,,,
69825,control_change,225,0,3,,,,,,,,,0,64,0,,
69825,set_tempo,7,1,0,,,,,,489037,,,,,,,
69832,set_tempo,7,1,0,,,,,,490236,,,,,,,
69840,note_on,0,0,1,,,,,,,,,0,,,65,0
69840,note_on,40,0,1,,,,,,,,,0,,,56,0
69840,note_on,240,0,2,,,,,,,,,0,,,54,50
69840,control_change,15,0,3,,,,,,,,,0,64,127,,
69840,set_tempo,8,1,0,,,,,,491441,,,,,,,
69840,note_on,0,0,1,,,,,,,,,0,,,70,50
69847,set_tempo,7,1,0,,,,,,492651,,,,,,,
69854,set_tempo,7,1,0,,,,,,493868,,,,,,,
69861,set_tempo,7,1,0,,,,,,495090,,,,,,,
69868,set_tempo,7,1,0,,,,,,496319,,,,,,,
69875,set_tempo,7,1,0,,,,,,497554,,,,,,,
69880,note_on,40,0,1,,,,,,,,,0,,,61,40
69882,set_tempo,7,1,0,,,,,,498795,,,,,,,
69889,set_tempo,7,1,0,,,,,,500042,,,,,,,
69896,set_tempo,7,1,0,,,,,,501295,,,,,,,
69903,set_tempo,7,1,0,,,,,,502555,,,,,,,
69910,set_tempo,7,1,0,,,,,,503821,,,,,,,
69917,set_tempo,7,1,0,,,,,,505093,,,,,,,
69920,note_on,40,0,1,,,,,,,,,0,,,61,0
69920,note_on,0,0,1,,,,,,,,,0,,,59,40
69924,set_tempo,7,1,0,,,,,,506372,,,,,,,
69931,set_tempo,7,1,0,,,,,,507657,,,,,,,
69938,set_tempo,7,1,0,,,,,,508949,,,,,,,
69945,set_tempo,7,1,0,,,,,,510247,,,,,,,
69952,set_tempo,7,1,0,,,,,,511553,,,,,,,
69960,note_on,40,0,1,,,,,,,,,0,,,59,0
69960,note_on,0,0,1,,,,,,,,,0,,,70,0
69960,note_on,0,0,2,,,,,,,,,0,,,53,50
69960,set_tempo,8,1,0,,,,,,512864,,,,,,,
69960,note_on,120,0,2,,,,,,,,,0,,,54,0
69960,note_on,0,0,1,,,,,,,,,0,,,68,50
69967,set_tempo,7,1,0,,,,,,514183,,,,,,,
69974,set_tempo,7,1,0,,,,,,515508,,,,,,,
69981,set_tempo,7,1,0,,,,,,516840,,,,,,,
69988,set_tempo,7,1,0,,,,,,518179,,,,,,,
69995,set_tempo,7,1,0,,,,,,519526,,,,,,,
70000,note_on,40,0,1,,,,,,,,,0,,,61,40
70002,set_tempo,7,1,0,,,,,,520879,,,,,,,
70009,set_tempo,7,1,0,,,,,,522239,,,,,,,
70016,set_tempo,7,1,0,,,,,,523606,,,,,,,
70023,set_tempo,7,1,0,,,,,,524980,,,,,,,
70030,set_tempo,7,1,0,,,,,,526362,,,,,,,
70037,set_tempo,7,1,0,,,,,,527751,,,,,,,
70040,note_on,40,0,1,,,,,,,,,0,,,61,0
70040,note_on,0,0,1,,,,,,,,,0,,,59,40
70044,set_tempo,7,1,0,,,,,,529147,,,,,,,
70051,set_tempo,7,1,0,,,,,,530551,,,,,,,
70058,set_tempo,7,1,0,,,,,,531962,,,,,,,
70065,set_tempo,7,1,0,,,,,,533381,,,,,,,
70065,control_change,225,0,3,,,,,,,,,0,64,0,,
70072,set_tempo,7,1,0,,,,,,534807,,,,,,,
70080,set_tempo,8,1,0,,,,,,535714,,,,,,,
70080,note_on,0,0,2,,,,,,,,,0,,,42,50
70080,note_on,0,0,1,,,,,,,,,0,,,66,50
70080,note_on,120,0,2,,,,,,,,,0,,,53,0
70080,note_on,0,0,1,,,,,,,,,0,,,68,0
70080,note_on,40,0,1,,,,,,,,,0,,,59,0
70080,control_change,15,0,3,,,,,,,,,0,64,127,,
70080,note_on,0,0,2,,,,,,,,,0,,,49,0
70087,set_tempo,7,1,0,,,,,,534807,,,,,,,
70094,set_tempo,7,1,0,,,,,,533381,,,,,,,
70101,set_tempo,7,1,0,,,,,,531962,,,,,,,
70108,set_tempo,7,1,0,,,,,,530551,,,,,,,
70115,set_tempo,7,1,0,,,,,,529147,,,,,,,
70120,note_on,40,0,1,,,,,,,,,0,,,54,40
70122,set_tempo,7,1,0,,,,,,527751,,,,,,,
70129,set_tempo,7,1,0,,,,,,526362,,,,,,,
70136,set_tempo,7,1,0,,,,,,524980,,,,,,,
70143,set_tempo,7,1,0,,,,,,523606,,,,,,,
70150,set_tempo,7,1,0,,,,,,522239,,,,,,,
70157,set_tempo,7,1,0,,,,,,520879,,,,,,,
70160,note_on,40,0,1,,,,,,,,,0,,,54,0
70160,note_on,0,0,1,,,,,,,,,0,,,58,40
70164,set_tempo,7,1,0,,,,,,519526,,,,,,,
70171,set_tempo,7,1,0,,,,,,518179,,,,,,,
70178,set_tempo,7,1,0,,,,,,516840,,,,,,,
70185,set_tempo,7,1,0,,,,,,515508,,,,,,,
70192,set_tempo,7,1,0,,,,,,514183,,,,,,,
70200,note_on,40,0,1,,,,,,,,,0,,,58,0
70200,set_tempo,8,1,0,,,,,,512864,,,,,,,
70200,note_on,0,0,1,,,,,,,,,0,,,61,40
70207,set_tempo,7,1,0,,,,,,511553,,,,,,,
70214,set_tempo,7,1,0,,,,,,510247,,,,,,,
70221,set_tempo,7,1,0,,,,,,508949,,,,,,,
70228,set_tempo,7,1,0,,,,,,507657,,,,,,,
70235,set_tempo,7,1,0,,,,,,506372,,,,,,,
70240,note_on,40,0,1,,,,,,,,,0,,,61,0
70240,note_on,0,0,1,,,,,,,,,0,,,58,40
70242,set_tempo,7,1,0,,,,,,505093,,,,,,,
70249,set_tempo,7,1,0,,,,,,503821,,,,,,,
70256,set_tempo,7,1,0,,,,,,502555,,,,,,,
70263,set_tempo,7,1,0,,,,,,501295,,,,,,,
70270,set_tempo,7,1,0,,,,,,500042,,,,,,,
70277,set_tempo,7,1,0,,,,,,498795,,,,,,,
70280,note_on,40,0,1,,,,,,,,,0,,,58,0
70280,note_on,0,0,1,,,,,,,,,0,,,54,40
70284,set_tempo,7,1,0,,,,,,497554,,,,,,,
70291,set_tempo,7,1,0,,,,,,496319,,,,,,,
70298,set_tempo,7,1,0,,,,,,495090,,,,,,,
70305,set_tempo,7,1,0,,,,,,493868,,,,,,,
70312,set_tempo,7,1,0,,,,,,492651,,,,,,,
70320,note_on,0,0,1,,,,,,,,,0,,,58,40
70320,set_tempo,8,1,0,,,,,,491441,,,,,,,
70320,note_on,40,0,1,,,,,,,,,0,,,54,0
70327,set_tempo,7,1,0,,,,,,490236,,,,,,,
70334,set_tempo,7,1,0,,,,,,489037,,,,,,,
70341,set_tempo,7,1,0,,,,,,487845,,,,,,,
70348,set_tempo,7,1,0,,,,,,486657,,,,,,,
70355,set_tempo,7,1,0,,,,,,485476,,,,,,,
70360,note_on,40,0,1,,,,,,,,,0,,,58,0
70360,note_on,0,0,1,,,,,,,,,0,,,54,40
70362,set_tempo,7,1,0,,,,,,484301,,,,,,,
70369,set_tempo,7,1,0,,,,,,483131,,,,,,,
70376,set_tempo,7,1,0,,,,,,481966,,,,,,,
70383,set_tempo,7,1,0,,,,,,480808,,,,,,,
70390,set_tempo,7,1,0,,,,,,479655,,,,,,,
70397,set_tempo,7,1,0,,,,,,478507,,,,,,,
70400,note_on,40,0,1,,,,,,,,,0,,,54,0
70400,note_on,0,0,1,,,,,,,,,0,,,58,40
70404,set_tempo,7,1,0,,,,,,477365,,,,,,,
70411,set_tempo,7,1,0,,,,,,476228,,,,,,,
70418,set_tempo,7,1,0,,,,,,475097,,,,,,,
70425,set_tempo,7,1,0,,,,,,473971,,,,,,,
70432,set_tempo,7,1,0,,,,,,472851,,,,,,,
70440,set_tempo,8,1,0,,,,,,471735,,,,,,,
70440,note_on,40,0,1,,,,,,,,,0,,,58,0
70440,note_on,0,0,1,,,,,,,,,0,,,61,40
70447,set_tempo,7,1,0,,,,,,470625,,,,,,,
70454,set_tempo,7,1,0,,,,,,469520,,,,,,,
70461,set_tempo,7,1,0,,,,,,468421,,,,,,,
70468,set_tempo,7,1,0,,,,,,467326,,,,,,,
70475,set_tempo,7,1,0,,,,,,466237,,,,,,,
70480,note_on,0,0,1,,,,,,,,,0,,,58,40
70480,note_on,40,0,1,,,,,,,,,0,,,61,0
70482,set_tempo,7,1,0,,,,,,465152,,,,,,,
70489,set_tempo,7,1,0,,,,,,464073,,,,,,,
70496,set_tempo,7,1,0,,,,,,462999,,,,,,,
70503,set_tempo,7,1,0,,,,,,461929,,,,,,,
70510,set_tempo,7,1,0,,,,,,460865,,,,,,,
70517,set_tempo,7,1,0,,,,,,459805,,,,,,,
70520,note_on,0,0,1,,,,,,,,,0,,,54,40
70520,note_on,40,0,1,,,,,,,,,0,,,58,0
70524,set_tempo,7,1,0,,,,,,458751,,,,,,,
70531,set_tempo,7,1,0,,,,,,457701,,,,,,,
70538,set_tempo,7,1,0,,,,,,456656,,,,,,,
70545,set_tempo,7,1,0,,,,,,455615,,,,,,,
70545,control_change,465,0,3,,,,,,,,,0,64,0,,
70552,set_tempo,7,1,0,,,,,,454580,,,,,,,
70560,note_on,480,0,2,,,,,,,,,0,,,42,0
70560,note_on,0,0,2,,,,,,,,,0,,,40,50
70560,set_tempo,8,1,0,,,,,,454545,,,,,,,
70560,note_on,0,0,1,,,,,,,,,0,,,66,50
70560,note_on,40,0,1,,,,,,,,,0,,,54,0
70560,note_on,0,0,1,,,,,,,,,0,,,66,0
70560,control_change,15,0,3,,,,,,,,,0,64,127,,
70600,note_on,40,0,1,,,,,,,,,0,,,54,41
70640,note_on,0,0,1,,,,,,,,,0,,,58,42
70640,note_on,40,0,1,,,,,,,,,0,,,54,0
70680,note_on,0,0,1,,,,,,,,,0,,,61,43
70680,note_on,40,0,1,,,,,,,,,0,,,58,0
70720,note_on,0,0,1,,,,,,,,,0,,,58,45
70720,note_on,40,0,1,,,,,,,,,0,,,61,0
70760,note_on,40,0,1,,,,,,,,,0,,,58,0
70760,note_on,0,0,1,,,,,,,,,0,,,54,46
70800,note_on,40,0,1,,,,,,,,,0,,,54,0
70800,note_on,0,0,1,,,,,,,,,0,,,58,47
70840,note_on,40,0,1,,,,,,,,,0,,,58,0
70840,note_on,0,0,1,,,,,,,,,0,,,54,49
70880,note_on,40,0,1,,,,,,,,,0,,,54,0
70880,note_on,0,0,1,,,,,,,,,0,,,58,50
70920,note_on,0,0,1,,,,,,,,,0,,,61,51
70920,note_on,40,0,1,,,,,,,,,0,,,58,0
70960,note_on,40,0,1,,,,,,,,,0,,,61,0
70960,note_on,0,0,1,,,,,,,,,0,,,58,52
71000,note_on,40,0,1,,,,,,,,,0,,,58,0
71000,note_on,0,0,1,,,,,,,,,0,,,54,54
71025,control_change,465,0,3,,,,,,,,,0,64,0,,
71040,note_on,40,0,1,,,,,,,,,0,,,54,0
71040,note_on,0,0,1,,,,,,,,,0,,,66,0
71040,note_on,0,0,1,,,,,,,,,0,,,66,65
71040,note_on,0,0,2,,,,,,,,,0,,,38,65
71040,note_on,480,0,2,,,,,,,,,0,,,40,0
71040,control_change,15,0,3,,,,,,,,,0,64,127,,
71080,note_on,40,0,1,,,,,,,,,0,,,54,56
71120,note_on,0,0,1,,,,,,,,,0,,,59,58
71120,note_on,40,0,1,,,,,,,,,0,,,54,0
71160,note_on,0,0,1,,,,,,,,,0,,,62,59
71160,note_on,40,0,1,,,,,,,,,0,,,59,0
71200,note_on,40,0,1,,,,,,,,,0,,,62,0
71200,note_on,0,0,1,,,,,,,,,0,,,59,60
71240,note_on,40,0,1,,,,,,,,,0,,,59,0
71240,note_on,0,0,1,,,,,,,,,0,,,54,61
71280,note_on,0,0,1,,,,,,,,,0,,,59,63
71280,note_on,40,0,1,,,,,,,,,0,,,54,0
71320,note_on,0,0,1,,,,,,,,,0,,,54,64
71320,note_on,40,0,1,,,,,,,,,0,,,59,0
71360,note_on,40,0,1,,,,,,,,,0,,,54,0
71360,note_on,0,0,1,,,,,,,,,0,,,59,65
71400,note_on,40,0,1,,,,,,,,,0,,,59,0
71400,note_on,0,0,1,,,,,,,,,0,,,62,67
71440,note_on,0,0,1,,,,,,,,,0,,,59,68
71440,note_on,40,0,1,,,,,,,,,0,,,62,0
71480,note_on,0,0,1,,,,,,,,,0,,,54,69
71480,note_on,40,0,1,,,,,,,,,0,,,59,0
71505,control_change,465,0,3,,,,,,,,,0,64,0,,
71520,note_on,40,0,1,,,,,,,,,0,,,54,0
71520,note_on,0,0,1,,,,,,,,,0,,,66,0
71520,note_on,0,0,1,,,,,,,,,0,,,66,80
71520,note_on,480,0,2,,,,,,,,,0,,,38,0
71520,note_on,0,0,2,,,,,,,,,0,,,38,80
71520,control_change,15,0,3,,,,,,,,,0,64,127,,
71550,note_on,30,0,2,,,,,,,,,0,,,38,0
71550,note_on,0,0,2,,,,,,,,,0,,,37,81
71560,note_on,40,0,1,,,,,,,,,0,,,54,72
71580,note_on,30,0,2,,,,,,,,,0,,,37,0
71580,note_on,0,0,2,,,,,,,,,0,,,38,82
71600,note_on,0,0,2,,,,,,,,,0,,,37,83
71600,note_on,20,0,2,,,,,,,,,0,,,38,0
71600,note_on,0,0,1,,,,,,,,,0,,,58,73
71600,note_on,40,0,1,,,,,,,,,0,,,54,0
71620,note_on,20,0,2,,,,,,,,,0,,,37,0
71620,note_on,0,0,2,,,,,,,,,0,,,38,84
71640,note_on,20,0,2,,,,,,,,,0,,,38,0
71640,note_on,0,0,2,,,,,,,,,0,,,37,84
71640,note_on,0,0,1,,,,,,,,,0,,,64,74
71640,note_on,40,0,1,,,,,,,,,0,,,58,0
71660,note_on,20,0,2,,,,,,,,,0,,,37,0
71660,note_on,0,0,2,,,,,,,,,0,,,38,85
71680,note_on,20,0,2,,,,,,,,,0,,,38,0
71680,note_on,40,0,1,,,,,,,,,0,,,64,0
71680,note_on,0,0,1,,,,,,,,,0,,,58,76
71680,note_on,0,0,2,,,,,,,,,0,,,37,86
71700,note_on,0,0,2,,,,,,,,,0,,,38,86
71700,note_on,20,0,2,,,,,,,,,0,,,37,0
71720,note_on,20,0,2,,,,,,,,,0,,,38,0
71720,note_on,0,0,2,,,,,,,,,0,,,37,87
71720,note_on,0,0,1,,,,,,,,,0,,,54,77
71720,note_on,40,0,1,,,,,,,,,0,,,58,0
71740,note_on,0,0,2,,,,,,,,,0,,,38,88
71740,note_on,20,0,2,,,,,,,,,0,,,37,0
71745,control_change,225,0,3,,,,,,,,,0,64,0,,
71760,note_on,0,0,1,,,,,,,,,0,,,67,88
71760,note_on,0,0,1,,,,,,,,,0,,,58,78
71760,note_on,0,0,1,,,,,,,,,0,,,66,0
71760,note_on,40,0,1,,,,,,,,,0,,,54,0
71760,control_change,15,0,3,,,,,,,,,0,64,127,,
71760,note_on,20,0,2,,,,,,,,,0,,,38,0
71760,note_on,0,0,2,,,,,,,,,0,,,37,88
71780,note_on,20,0,2,,,,,,,,,0,,,37,0
71780,note_on,0,0,2,,,,,,,,,0,,,38,89
71800,note_on,20,0,2,,,,,,,,,0,,,38,0
71800,note_on,0,0,2,,,,,,,,,0,,,37,89
71800,note_on,40,0,1,,,,,,,,,0,,,58,0
71800,note_on,0,0,1,,,,,,,,,0,,,54,79
71820,note_on,20,0,2,,,,,,,,,0,,,37,0
71820,note_on,0,0,2,,,,,,,,,0,,,38,90
71840,note_on,40,0,1,,,,,,,,,0,,,54,0
71840,note_on,20,0,2,,,,,,,,,0,,,38,0
71840,note_on,0,0,2,,,,,,,,,0,,,37,91
71840,note_on,0,0,1,,,,,,,,,0,,,58,81
71860,note_on,20,0,2,,,,,,,,,0,,,37,0
71860,note_on,0,0,2,,,,,,,,,0,,,38,91
71880,note_on,0,0,1,,,,,,,,,0,,,67,0
71880,note_on,0,0,1,,,,,,,,,0,,,64,82
71880,note_on,0,0,1,,,,,,,,,0,,,66,92
71880,note_on,0,0,2,,,,,,,,,0,,,37,92
71880,note_on,20,0,2,,,,,,,,,0,,,38,0
71880,note_on,40,0,1,,,,,,,,,0,,,58,0
71900,note_on,20,0,2,,,,,,,,,0,,,37,0
71900,note_on,0,0,2,,,,,,,,,0,,,38,93
71920,note_on,0,0,2,,,,,,,,,0,,,37,93
71920,note_on,20,0,2,,,,,,,,,0,,,38,0
71920,note_on,40,0,1,,,,,,,,,0,,,64,0
71920,note_on,0,0,1,,,,,,,,,0,,,58,83
71940,note_on,0,0,2,,,,,,,,,0,,,35,94
71940,note_on,20,0,2,,,,,,,,,0,,,37,0
71960,note_on,0,0,1,,,,,,,,,0,,,54,85
71960,note_on,40,0,1,,,,,,,,,0,,,58,0
71970,note_on,0,0,2,,,,,,,,,0,,,37,95
71970,note_on,30,0,2,,,,,,,,,0,,,35,0
71985,control_change,225,0,3,,,,,,,,,0,64,0,,
72000,note_on,40,0,1,,,,,,,,,0,,,54,0
72000,note_on,0,0,1,,,,,,,,,0,,,66,0
72000,note_on,0,0,1,,,,,,,,,0,,,66,96
72000,control_change,15,0,3,,,,,,,,,0,64,127,,
72000,note_on,0,0,2,,,,,,,,,0,,,35,96
72000,note_on,30,0,2,,,,,,,,,0,,,37,0
72040,note_on,40,0,1,,,,,,,,,0,,,54,87
72080,note_on,40,0,1,,,,,,,,,0,,,54,0
72080,note_on,0,0,1,,,,,,,,,0,,,59,89
72120,note_on,0,0,1,,,,,,,,,0,,,62,90
72120,note_on,40,0,1,,,,,,,,,0,,,59,0
72160,note_on,0,0,1,,,,,,,,,0,,,59,91
72160,note_on,40,0,1,,,,,,,,,0,,,62,0
72200,note_on,0,0,1,,,,,,,,,0,,,54,92
72200,note_on,40,0,1,,,,,,,,,0,,,59,0
72240,note_on,0,0,1,,,,,,,,,0,,,59,94
72240,note_on,40,0,1,,,,,,,,,0,,,54,0
72280,note_on,40,0,1,,,,,,,,,0,,,59,0
72280,note_on,0,0,1,,,,,,,,,0,,,54,95
72320,note_on,40,0,1,,,,,,,,,0,,,54,0
72320,note_on,0,0,1,,,,,,,,,0,,,59,96
72360,note_on,0,0,1,,,,,,,,,0,,,62,98
72360,note_on,40,0,1,,,,,,,,,0,,,59,0
72400,note_on,40,0,1,,,,,,,,,0,,,62,0
72400,note_on,0,0,1,,,,,,,,,0,,,59,99
72440,note_on,40,0,1,,,,,,,,,0,,,59,0
72440,note_on,0,0,1,,,,,,,,,0,,,54,100
72465,control_change,465,0,3,,,,,,,,,0,64,0,,
72480,note_on,40,0,1,,,,,,,,,0,,,54,0
72480,note_on,0,0,1,,,,,,,,,0,,,66,0
72480,note_on,0,0,1,,,,,,,,,0,,,60,110
72480,control_change,15,0,3,,,,,,,,,0,64,127,,
72480,note_on,480,0,2,,,,,,,,,0,,,35,0
72480,note_on,0,0,2,,,,,,,,,0,,,38,110
72520,note_on,40,0,2,,,,,,,,,0,,,48,97
72560,note_on,0,0,2,,,,,,,,,0,,,54,93
72560,note_on,40,0,2,,,,,,,,,0,,,48,0
72600,note_on,40,0,2,,,,,,,,,0,,,54,0
72600,note_on,0,0,2,,,,,,,,,0,,,57,90
72640,note_on,40,0,2,,,,,,,,,0,,,57,0
72640,note_on,0,0,2,,,,,,,,,0,,,54,86
72680,note_on,40,0,2,,,,,,,,,0,,,54,0
72680,note_on,0,0,2,,,,,,,,,0,,,48,82
72720,note_on,0,0,2,,,,,,,,,0,,,54,79
72720,note_on,40,0,2,,,,,,,,,0,,,48,0
72760,note_on,0,0,2,,,,,,,,,0,,,48,75
72760,note_on,40,0,2,,,,,,,,,0,,,54,0
72800,note_on,40,0,2,,,,,,,,,0,,,48,0
72800,note_on,0,0,2,,,,,,,,,0,,,54,71
72840,note_on,0,0,2,,,,,,,,,0,,,57,68
72840,note_on,40,0,2,,,,,,,,,0,,,54,0
72880,note_on,0,0,2,,,,,,,,,0,,,54,64
72880,note_on,40,0,2,,,,,,,,,0,,,57,0
72920,note_on,0,0,2,,,,,,,,,0,,,48,61
72920,note_on,40,0,2,,,,,,,,,0,,,54,0
72945,control_change,465,0,3,,,,,,,,,0,64,0,,
72960,note_on,0,0,1,,,,,,,,,0,,,61,70
72960,note_on,480,0,1,,,,,,,,,0,,,60,0
72960,control_change,15,0,3,,,,,,,,,0,64,127,,
72960,note_on,0,0,2,,,,,,,,,0,,,38,0
72960,note_on,0,0,2,,,,,,,,,0,,,37,70
72960,note_on,40,0,2,,,,,,,,,0,,,48,0
73000,note_on,40,0,2,,,,,,,,,0,,,49,60
73040,note_on,40,0,2,,,,,,,,,0,,,49,0
73040,note_on,0,0,2,,,,,,,,,0,,,54,60
73080,note_on,40,0,2,,,,,,,,,0,,,54,0
73080,note_on,0,0,2,,,,,,,,,0,,,58,60
73120,note_on,40,0,2,,,,,,,,,0,,,58,0
73120,note_on,0,0,2,,,,,,,,,0,,,54,60
73160,note_on,0,0,2,,,,,,,,,0,,,49,60
73160,note_on,40,0,2,,,,,,,,,0,,,54,0
73200,note_on,0,0,2,,,,,,,,,0,,,54,60
73200,note_on,40,0,2,,,,,,,,,0,,,49,0
73240,note_on,0,0,2,,,,,,,,,0,,,49,60
73240,note_on,40,0,2,,,,,,,,,0,,,54,0
73280,note_on,40,0,2,,,,,,,,,0,,,49,0
73280,note_on,0,0,2,,,,,,,,,0,,,54,60
73320,note_on,40,0,2,,,,,,,,,0,,,54,0
73320,note_on,0,0,2,,,,,,,,,0,,,58,60
73360,note_on,40,0,2,,,,,,,,,0,,,58,0
73360,note_on,0,0,2,,,,,,,,,0,,,54,60
73400,note_on,40,0,2,,,,,,,,,0,,,54,0
73400,note_on,0,0,2,,,,,,,,,0,,,49,60
73425,control_change,465,0,3,,,,,,,,,0,64,0,,
73440,note_on,0,0,1,,,,,,,,,0,,,61,50
73440,note_on,0,0,2,,,,,,,,,0,,,37,0
73440,note_on,0,0,2,,,,,,,,,0,,,37,50
73440,control_change,15,0,3,,,,,,,,,0,64,127,,
73440,set_tempo,2880,1,0,,,,,,454580,,,,,,,
73440,note_on,40,0,2,,,,,,,,,0,,,49,0
73440,note_on,480,0,1,,,,,,,,,0,,,61,0
73454,set_tempo,14,1,0,,,,,,455615,,,,,,,
73461,set_tempo,7,1,0,,,,,,456656,,,,,,,
73468,set_tempo,7,1,0,,,,,,457701,,,,,,,
73475,set_tempo,7,1,0,,,,,,458751,,,,,,,
73480,note_on,40,0,1,,,,,,,,,0,,,53,40
73482,set_tempo,7,1,0,,,,,,459805,,,,,,,
73489,set_tempo,7,1,0,,,,,,460865,,,,,,,
73496,set_tempo,7,1,0,,,,,,461929,,,,,,,
73503,set_tempo,7,1,0,,,,,,462999,,,,,,,
73510,set_tempo,7,1,0,,,,,,464073,,,,,,,
73517,set_tempo,7,1,0,,,,,,465152,,,,,,,
73520,note_on,0,0,1,,,,,,,,,0,,,56,40
73520,note_on,40,0,1,,,,,,,,,0,,,53,0
73524,set_tempo,7,1,0,,,,,,466237,,,,,,,
73531,set_tempo,7,1,0,,,,,,467326,,,,,,,
73538,set_tempo,7,1,0,,,,,,468421,,,,,,,
73545,set_tempo,7,1,0,,,,,,469520,,,,,,,
73552,set_tempo,7,1,0,,,,,,470625,,,,,,,
73560,note_on,0,0,2,,,,,,,,,0,,,49,50
73560,note_on,120,0,2,,,,,,,,,0,,,37,0
73560,note_on,40,0,1,,,,,,,,,0,,,56,0
73560,note_on,0,0,1,,,,,,,,,0,,,61,0
73560,note_on,0,0,1,,,,,,,,,0,,,71,50
73560,set_tempo,8,1,0,,,,,,471735,,,,,,,
73567,set_tempo,7,1,0,,,,,,472851,,,,,,,
73574,set_tempo,7,1,0,,,,,,473971,,,,,,,
73581,set_tempo,7,1,0,,,,,,475097,,,,,,,
73588,set_tempo,7,1,0,,,,,,476228,,,,,,,
73595,set_tempo,7,1,0,,,,,,477365,,,,,,,
73600,note_on,40,0,1,,,,,,,,,0,,,59,40
73602,set_tempo,7,1,0,,,,,,478507,,,,,,,
73609,set_tempo,7,1,0,,,,,,479655,,,,,,,
73616,set_tempo,7,1,0,,,,,,480808,,,,,,,
73623,set_tempo,7,1,0,,,,,,481966,,,,,,,
73630,set_tempo,7,1,0,,,,,,483131,,,,,,,
73637,set_tempo,7,1,0,,,,,,484301,,,,,,,
73640,note_on,0,0,1,,,,,,,,,0,,,61,40
73640,note_on,40,0,1,,,,,,,,,0,,,59,0
73644,set_tempo,7,1,0,,,,,,485476,,,,,,,
73651,set_tempo,7,1,0,,,,,,486657,,,,,,,
73658,set_tempo,7,1,0,,,,,,487845,,,,,,,
73665,control_change,225,0,3,,,,,,,,,0,64,0,,
73665,set_tempo,7,1,0,,,,,,489037,,,,,,,
73672,set_tempo,7,1,0,,,,,,490236,,,,,,,
73680,note_on,120,0,2,,,,,,,,,0,,,53,50
73680,control_change,15,0,3,,,,,,,,,0,64,127,,
73680,note_on,0,0,1,,,,,,,,,0,,,68,50
73680,note_on,0,0,1,,,,,,,,,0,,,71,0
73680,note_on,40,0,1,,,,,,,,,0,,,61,0
73680,set_tempo,8,1,0,,,,,,491441,,,,,,,
73687,set_tempo,7,1,0,,,,,,492651,,,,,,,
73694,set_tempo,7,1,0,,,,,,493868,,,,,,,
73701,set_tempo,7,1,0,,,,,,495090,,,,,,,
73708,set_tempo,7,1,0,,,,,,496319,,,,,,,
73715,set_tempo,7,1,0,,,,,,497554,,,,,,,
73720,note_on,40,0,1,,,,,,,,,0,,,59,40
73722,set_tempo,7,1,0,,,,,,498795,,,,,,,
73729,set_tempo,7,1,0,,,,,,500042,,,,,,,
73736,set_tempo,7,1,0,,,,,,501295,,,,,,,
73743,set_tempo,7,1,0,,,,,,502555,,,,,,,
73750,set_tempo,7,1,0,,,,,,503821,,,,,,,
73757,set_tempo,7,1,0,,,,,,505093,,,,,,,
73760,note_on,40,0,1,,,,,,,,,0,,,59,0
73760,note_on,0,0,1,,,,,,,,,0,,,61,40
73764,set_tempo,7,1,0,,,,,,506372,,,,,,,
73771,set_tempo,7,1,0,,,,,,507657,,,,,,,
73778,set_tempo,7,1,0,,,,,,508949,,,,,,,
73785,set_tempo,7,1,0,,,,,,510247,,,,,,,
73792,set_tempo,7,1,0,,,,,,511553,,,,,,,
73800,note_on,0,0,1,,,,,,,,,0,,,65,50
73800,note_on,0,0,1,,,,,,,,,0,,,68,0
73800,note_on,40,0,1,,,,,,,,,0,,,61,0
73800,set_tempo,8,1,0,,,,,,512864,,,,,,,
73800,note_on,120,0,2,,,,,,,,,0,,,53,0
73800,note_on,0,0,2,,,,,,,,,0,,,56,50
73807,set_tempo,7,1,0,,,,,,514183,,,,,,,
73814,set_tempo,7,1,0,,,,,,515508,,,,,,,
73821,set_tempo,7,1,0,,,,,,516840,,,,,,,
73828,set_tempo,7,1,0,,,,,,518179,,,,,,,
73835,set_tempo,7,1,0,,,,,,519526,,,,,,,
73840,note_on,40,0,1,,,,,,,,,0,,,59,40
73842,set_tempo,7,1,0,,,,,,520879,,,,,,,
73849,set_tempo,7,1,0,,,,,,522239,,,,,,,
73856,set_tempo,7,1,0,,,,,,523606,,,,,,,
73863,set_tempo,7,1,0,,,,,,524980,,,,,,,
73870,set_tempo,7,1,0,,,,,,526362,,,,,,,
73877,set_tempo,7,1,0,,,,,,527751,,,,,,,
73880,note_on,40,0,1,,,,,,,,,0,,,59,0
73880,note_on,0,0,1,,,,,,,,,0,,,61,40
73884,set_tempo,7,1,0,,,,,,529147,,,,,,,
73891,set_tempo,7,1,0,,,,,,530551,,,,,,,
73898,set_tempo,7,1,0,,,,,,531962,,,,,,,
73905,control_change,225,0,3,,,,,,,,,0,64,0,,
73905,set_tempo,7,1,0,,,,,,533381,,,,,,,
73912,set_tempo,7,1,0,,,,,,534807,,,,,,,
73920,control_change,15,0,3,,,,,,,,,0,64,127,,
73920,set_tempo,8,1,0,,,,,,535714,,,,,,,
73920,note_on,0,0,2,,,,,,,,,0,,,42,50
73920,note_on,0,0,2,,,,,,,,,0,,,49,0
73920,note_on,120,0,2,,,,,,,,,0,,,56,0
73920,note_on,40,0,1,,,,,,,,,0,,,61,0
73920,note_on,0,0,1,,,,,,,,,0,,,65,0
73920,note_on,0,0,1,,,,,,,,,0,,,66,50
73927,set_tempo,7,1,0,,,,,,534807,,,,,,,
73934,set_tempo,7,1,0,,,,,,533381,,,,,,,
73941,set_tempo,7,1,0,,,,,,531962,,,,,,,
73948,set_tempo,7,1,0,,,,,,530551,,,,,,,
73955,set_tempo,7,1,0,,,,,,529147,,,,,,,
73960,note_on,40,0,1,,,,,,,,,0,,,54,40
73962,set_tempo,7,1,0,,,,,,527751,,,,,,,
73969,set_tempo,7,1,0,,,,,,526362,,,,,,,
73976,set_tempo,7,1,0,,,,,,524980,,,,,,,
73983,set_tempo,7,1,0,,,,,,523606,,,,,,,
73990,set_tempo,7,1,0,,,,,,522239,,,,,,,
73997,set_tempo,7,1,0,,,,,,520879,,,,,,,
74000,note_on,0,0,1,,,,,,,,,0,,,58,40
74000,note_on,40,0,1,,,,,,,,,0,,,54,0
74004,set_tempo,7,1,0,,,,,,519526,,,,,,,
74011,set_tempo,7,1,0,,,,,,518179,,,,,,,
74018,set_tempo,7,1,0,,,,,,516840,,,,,,,
74025,set_tempo,7,1,0,,,,,,515508,,,,,,,
74032,set_tempo,7,1,0,,,,,,514183,,,,,,,
74040,set_tempo,8,1,0,,,,,,512864,,,,,,,
74040,note_on,40,0,1,,,,,,,,,0,,,58,0
74040,note_on,0,0,1,,,,,,,,,0,,,61,40
74047,set_tempo,7,1,0,,,,,,511553,,,,,,,
74054,set_tempo,7,1,0,,,,,,510247,,,,,,,
74061,set_tempo,7,1,0,,,,,,508949,,,,,,,
74068,set_tempo,7,1,0,,,,,,507657,,,,,,,
74075,set_tempo,7,1,0,,,,,,506372,,,,,,,
74080,note_on,40,0,1,,,,,,,,,0,,,61,0
74080,note_on,0,0,1,,,,,,,,,0,,,58,40
74082,set_tempo,7,1,0,,,,,,505093,,,,,,,
74089,set_tempo,7,1,0,,,,,,503821,,,,,,,
74096,set_tempo,7,1,0,,,,,,502555,,,,,,,
74103,set_tempo,7,1,0,,,,,,501295,,,,,,,
74110,set_tempo,7,1,0,,,,,,500042,,,,,,,
74117,set_tempo,7,1,0,,,,,,498795,,,,,,,
74120,note_on,0,0,1,,,,,,,,,0,,,54,40
74120,note_on,40,0,1,,,,,,,,,0,,,58,0
74124,set_tempo,7,1,0,,,,,,497554,,,,,,,
74131,set_tempo,7,1,0,,,,,,496319,,,,,,,
74138,set_tempo,7,1,0,,,,,,495090,,,,,,,
74145,set_tempo,7,1,0,,,,,,493868,,,,,,,
74152,set_tempo,7,1,0,,,,,,492651,,,,,,,
74160,note_on,40,0,1,,,,,,,,,0,,,54,0
74160,note_on,0,0,1,,,,,,,,,0,,,58,40
74160,set_tempo,8,1,0,,,,,,491441,,,,,,,
74167,set_tempo,7,1,0,,,,,,490236,,,,,,,
74174,set_tempo,7,1,0,,,,,,489037,,,,,,,
74181,set_tempo,7,1,0,,,,,,487845,,,,,,,
74188,set_tempo,7,1,0,,,,,,486657,,,,,,,
74195,set_tempo,7,1,0,,,,,,485476,,,,,,,
74200,note_on,0,0,1,,,,,,,,,0,,,54,40
74200,note_on,40,0,1,,,,,,,,,0,,,58,0
74202,set_tempo,7,1,0,,,,,,484301,,,,,,,
74209,set_tempo,7,1,0,,,,,,483131,,,,,,,
74216,set_tempo,7,1,0,,,,,,481966,,,,,,,
74223,set_tempo,7,1,0,,,,,,480808,,,,,,,
74230,set_tempo,7,1,0,,,,,,479655,,,,,,,
74237,set_tempo,7,1,0,,,,,,478507,,,,,,,
74240,note_on,40,0,1,,,,,,,,,0,,,54,0
74240,note_on,0,0,1,,,,,,,,,0,,,58,40
74244,set_tempo,7,1,0,,,,,,477365,,,,,,,
74251,set_tempo,7,1,0,,,,,,476228,,,,,,,
74258,set_tempo,7,1,0,,,,,,475097,,,,,,,
74265,set_tempo,7,1,0,,,,,,473971,,,,,,,
74272,set_tempo,7,1,0,,,,,,472851,,,,,,,
74280,note_on,0,0,1,,,,,,,,,0,,,61,40
74280,set_tempo,8,1,0,,,,,,471735,,,,,,,
74280,note_on,40,0,1,,,,,,,,,0,,,58,0
74287,set_tempo,7,1,0,,,,,,470625,,,,,,,
74294,set_tempo,7,1,0,,,,,,469520,,,,,,,
74301,set_tempo,7,1,0,,,,,,468421,,,,,,,
74308,set_tempo,7,1,0,,,,,,467326,,,,,,,
74315,set_tempo,7,1,0,,,,,,466237,,,,,,,
74320,note_on,40,0,1,,,,,,,,,0,,,61,0
74320,note_on,0,0,1,,,,,,,,,0,,,58,40
74322,set_tempo,7,1,0,,,,,,465152,,,,,,,
74329,set_tempo,7,1,0,,,,,,464073,,,,,,,
74336,set_tempo,7,1,0,,,,,,462999,,,,,,,
74343,set_tempo,7,1,0,,,,,,461929,,,,,,,
74350,set_tempo,7,1,0,,,,,,460865,,,,,,,
74357,set_tempo,7,1,0,,,,,,459805,,,,,,,
74360,note_on,0,0,1,,,,,,,,,0,,,54,40
74360,note_on,40,0,1,,,,,,,,,0,,,58,0
74364,set_tempo,7,1,0,,,,,,458751,,,,,,,
74371,set_tempo,7,1,0,,,,,,457701,,,,,,,
74378,set_tempo,7,1,0,,,,,,456656,,,,,,,
74385,control_change,465,0,3,,,,,,,,,0,64,0,,
74385,set_tempo,7,1,0,,,,,,455615,,,,,,,
74392,set_tempo,7,1,0,,,,,,454580,,,,,,,
74400,note_on,480,0,2,,,,,,,,,0,,,42,0
74400,note_on,40,0,1,,,,,,,,,0,,,54,0
74400,note_on,0,0,1,,,,,,,,,0,,,66,0
74400,note_on,0,0,1,,,,,,,,,0,,,66,50
74400,control_change,15,0,3,,,,,,,,,0,64,127,,
74400,set_tempo,8,1,0,,,,,,454545,,,,,,,
74400,note_on,0,0,2,,,,,,,,,0,,,40,50
74440,note_on,40,0,1,,,,,,,,,0,,,54,41
74480,note_on,40,0,1,,,,,,,,,0,,,54,0
74480,note_on,0,0,1,,,,,,,,,0,,,58,42
74520,note_on,40,0,1,,,,,,,,,0,,,58,0
74520,note_on,0,0,1,,,,,,,,,0,,,61,43
74560,note_on,40,0,1,,,,,,,,,0,,,61,0
74560,note_on,0,0,1,,,,,,,,,0,,,58,45
74600,note_on,40,0,1,,,,,,,,,0,,,58,0
74600,note_on,0,0,1,,,,,,,,,0,,,54,46
74640,note_on,0,0,1,,,,,,,,,0,,,58,47
74640,note_on,40,0,1,,,,,,,,,0,,,54,0
74680,note_on,0,0,1,,,,,,,,,0,,,54,49
74680,note_on,40,0,1,,,,,,,,,0,,,58,0
74720,note_on,0,0,1,,,,,,,,,0,,,58,50
74720,note_on,40,0,1,,,,,,,,,0,,,54,0
74760,note_on,40,0,1,,,,,,,,,0,,,58,0
74760,note_on,0,0,1,,,,,,,,,0,,,61,51
74800,note_on,40,0,1,,,,,,,,,0,,,61,0
74800,note_on,0,0,1,,,,,,,,,0,,,58,52
74840,note_on,40,0,1,,,,,,,,,0,,,58,0
74840,note_on,0,0,1,,,,,,,,,0,,,54,54
74865,control_change,465,0,3,,,,,,,,,0,64,0,,
74880,note_on,480,0,2,,,,,,,,,0,,,40,0
74880,control_change,15,0,3,,,,,,,,,0,64,127,,
74880,key_signature,480,1,0,,,,,C,,,,,,,,
74880,note_on,0,0,2,,,,,,,,,0,,,38,65
74880,note_on,40,0,1,,,,,,,,,0,,,54,0
74880,note_on,0,0,1,,,,,,,,,0,,,66,0
74880,note_on,0,0,1,,,,,,,,,0,,,66,65
74920,note_on,40,0,1,,,,,,,,,0,,,54,56
74960,note_on,40,0,1,,,,,,,,,0,,,54,0
74960,note_on,0,0,1,,,,,,,,,0,,,59,58
75000,note_on,40,0,1,,,,,,,,,0,,,59,0
75000,note_on,0,0,1,,,,,,,,,0,,,62,59
75040,note_on,40,0,1,,,,,,,,,0,,,62,0
75040,note_on,0,0,1,,,,,,,,,0,,,59,60
75080,note_on,40,0,1,,,,,,,,,0,,,59,0
75080,note_on,0,0,1,,,,,,,,,0,,,54,61
75120,note_on,40,0,1,,,,,,,,,0,,,54,0
75120,note_on,0,0,1,,,,,,,,,0,,,59,63
75160,note_on,40,0,1,,,,,,,,,0,,,59,0
75160,note_on,0,0,1,,,,,,,,,0,,,54,64
75200,note_on,40,0,1,,,,,,,,,0,,,54,0
75200,note_on,0,0,1,,,,,,,,,0,,,59,65
75240,note_on,0,0,1,,,,,,,,,0,,,62,67
75240,note_on,40,0,1,,,,,,,,,0,,,59,0
75280,note_on,0,0,1,,,,,,,,,0,,,59,68
75280,note_on,40,0,1,,,,,,,,,0,,,62,0
75320,note_on,40,0,1,,,,,,,,,0,,,59,0
75320,note_on,0,0,1,,,,,,,,,0,,,54,69
75345,control_change,465,0,3,,,,,,,,,0,64,0,,
75360,note_on,0,0,2,,,,,,,,,0,,,36,80
75360,note_on,0,0,1,,,,,,,,,0,,,66,0
75360,note_on,0,0,1,,,,,,,,,0,,,66,80
75360,control_change,15,0,3,,,,,,,,,0,64,127,,
75360,note_on,480,0,2,,,,,,,,,0,,,38,0
75360,note_on,40,0,1,,,,,,,,,0,,,54,0
75390,note_on,0,0,2,,,,,,,,,0,,,38,81
75390,note_on,30,0,2,,,,,,,,,0,,,36,0
75400,note_on,40,0,1,,,,,,,,,0,,,54,72
75420,note_on,0,0,2,,,,,,,,,0,,,36,82
75420,note_on,30,0,2,,,,,,,,,0,,,38,0
75440,note_on,0,0,2,,,,,,,,,0,,,38,83
75440,note_on,40,0,1,,,,,,,,,0,,,54,0
75440,note_on,0,0,1,,,,,,,,,0,,,57,73
75440,note_on,20,0,2,,,,,,,,,0,,,36,0
75460,note_on,20,0,2,,,,,,,,,0,,,38,0
75460,note_on,0,0,2,,,,,,,,,0,,,36,84
75480,note_on,20,0,2,,,,,,,,,0,,,36,0
75480,note_on,0,0,2,,,,,,,,,0,,,38,84
75480,note_on,40,0,1,,,,,,,,,0,,,57,0
75480,note_on,0,0,1,,,,,,,,,0,,,62,74
75500,note_on,0,0,2,,,,,,,,,0,,,36,85
75500,note_on,20,0,2,,,,,,,,,0,,,38,0
75520,note_on,0,0,2,,,,,,,,,0,,,38,86
75520,note_on,20,0,2,,,,,,,,,0,,,36,0
75520,note_on,40,0,1,,,,,,,,,0,,,62,0
75520,note_on,0,0,1,,,,,,,,,0,,,57,76
75540,note_on,0,0,2,,,,,,,,,0,,,36,86
75540,note_on,20,0,2,,,,,,,,,0,,,38,0
75560,note_on,0,0,2,,,,,,,,,0,,,38,87
75560,note_on,20,0,2,,,,,,,,,0,,,36,0
75560,note_on,0,0,1,,,,,,,,,0,,,54,77
75560,note_on,40,0,1,,,,,,,,,0,,,57,0
75580,note_on,0,0,2,,,,,,,,,0,,,36,88
75580,note_on,20,0,2,,,,,,,,,0,,,38,0
75600,note_on,20,0,2,,,,,,,,,0,,,36,0
75600,note_on,0,0,1,,,,,,,,,0,,,57,78
75600,note_on,40,0,1,,,,,,,,,0,,,54,0
75600,note_on,0,0,2,,,,,,,,,0,,,38,88
75620,note_on,20,0,2,,,,,,,,,0,,,38,0
75620,note_on,0,0,2,,,,,,,,,0,,,36,89
75640,note_on,20,0,2,,,,,,,,,0,,,36,0
75640,note_on,0,0,2,,,,,,,,,0,,,38,89
75640,note_on,0,0,1,,,,,,,,,0,,,54,79
75640,note_on,40,0,1,,,,,,,,,0,,,57,0
75660,note_on,0,0,2,,,,,,,,,0,,,36,90
75660,note_on,20,0,2,,,,,,,,,0,,,38,0
75680,note_on,20,0,2,,,,,,,,,0,,,36,0
75680,note_on,40,0,1,,,,,,,,,0,,,54,0
75680,note_on,0,0,2,,,,,,,,,0,,,38,91
75680,note_on,0,0,1,,,,,,,,,0,,,57,81
75700,note_on,20,0,2,,,,,,,,,0,,,38,0
75700,note_on,0,0,2,,,,,,,,,0,,,36,91
75720,note_on,0,0,1,,,,,,,,,0,,,62,82
75720,note_on,40,0,1,,,,,,,,,0,,,57,0
75720,note_on,20,0,2,,,,,,,,,0,,,36,0
75720,note_on,0,0,2,,,,,,,,,0,,,38,92
75740,note_on,20,0,2,,,,,,,,,0,,,38,0
75740,note_on,0,0,2,,,,,,,,,0,,,36,93
75760,note_on,0,0,1,,,,,,,,,0,,,57,83
75760,note_on,40,0,1,,,,,,,,,0,,,62,0
75760,note_on,0,0,2,,,,,,,,,0,,,38,93
75760,note_on,20,0,2,,,,,,,,,0,,,36,0
75780,note_on,0,0,2,,,,,,,,,0,,,36,94
75780,note_on,20,0,2,,,,,,,,,0,,,38,0
75800,note_on,0,0,2,,,,,,,,,0,,,34,95
75800,note_on,20,0,2,,,,,,,,,0,,,36,0
75800,note_on,0,0,1,,,,,,,,,0,,,54,85
75800,note_on,40,0,1,,,,,,,,,0,,,57,0
75820,note_on,0,0,2,,,,,,,,,0,,,36,95
75820,note_on,20,0,2,,,,,,,,,0,,,34,0
75825,control_change,465,0,3,,,,,,,,,0,64,0,,
75840,note_on,40,0,1,,,,,,,,,0,,,54,0
75840,note_on,0,0,1,,,,,,,,,0,,,66,0
75840,note_on,0,0,1,,,,,,,,,0,,,67,96
75840,control_change,15,0,3,,,,,,,,,0,64,127,,
75840,key_signature,960,1,0,,,,,Gb,,,,,,,,
75840,note_on,0,0,2,,,,,,,,,0,,,34,96
75840,note_on,20,0,2,,,,,,,,,0,,,36,0
75880,note_on,40,0,1,,,,,,,,,0,,,55,87
75920,note_on,0,0,1,,,,,,,,,0,,,58,89
75920,note_on,40,0,1,,,,,,,,,0,,,55,0
75960,note_on,0,0,1,,,,,,,,,0,,,62,90
75960,note_on,40,0,1,,,,,,,,,0,,,58,0
76000,note_on,40,0,1,,,,,,,,,0,,,62,0
76000,note_on,0,0,1,,,,,,,,,0,,,58,91
76040,note_on,0,0,1,,,,,,,,,0,,,55,92
76040,note_on,40,0,1,,,,,,,,,0,,,58,0
76080,note_on,40,0,1,,,,,,,,,0,,,55,0
76080,note_on,0,0,1,,,,,,,,,0,,,58,94
76120,note_on,0,0,1,,,,,,,,,0,,,55,95
76120,note_on,40,0,1,,,,,,,,,0,,,58,0
76160,note_on,40,0,1,,,,,,,,,0,,,55,0
76160,note_on,0,0,1,,,,,,,,,0,,,58,96
76200,note_on,40,0,1,,,,,,,,,0,,,58,0
76200,note_on,0,0,1,,,,,,,,,0,,,62,98
76240,note_on,40,0,1,,,,,,,,,0,,,62,0
76240,note_on,0,0,1,,,,,,,,,0,,,58,99
76280,note_on,40,0,1,,,,,,,,,0,,,58,0
76280,note_on,0,0,1,,,,,,,,,0,,,55,100
76305,control_change,465,0,3,,,,,,,,,0,64,0,,
76320,note_on,0,0,1,,,,,,,,,0,,,67,0
76320,note_on,40,0,1,,,,,,,,,0,,,55,0
76320,note_on,480,0,2,,,,,,,,,0,,,34,0
76320,note_on,0,0,1,,,,,,,,,0,,,60,110
76320,control_change,15,0,3,,,,,,,,,0,64,127,,
76320,note_on,0,0,2,,,,,,,,,0,,,38,110
76360,note_on,40,0,2,,,,,,,,,0,,,48,97
76400,note_on,40,0,2,,,,,,,,,0,,,48,0
76400,note_on,0,0,2,,,,,,,,,0,,,54,93
76440,note_on,40,0,2,,,,,,,,,0,,,54,0
76440,note_on,0,0,2,,,,,,,,,0,,,57,90
76480,note_on,40,0,2,,,,,,,,,0,,,57,0
76480,note_on,0,0,2,,,,,,,,,0,,,54,86
76520,note_on,40,0,2,,,,,,,,,0,,,54,0
76520,note_on,0,0,2,,,,,,,,,0,,,48,82
76560,note_on,0,0,2,,,,,,,,,0,,,54,79
76560,note_on,40,0,2,,,,,,,,,0,,,48,0
76600,note_on,40,0,2,,,,,,,,,0,,,54,0
76600,note_on,0,0,2,,,,,,,,,0,,,48,75
76640,note_on,40,0,2,,,,,,,,,0,,,48,0
76640,note_on,0,0,2,,,,,,,,,0,,,54,71
76680,note_on,0,0,2,,,,,,,,,0,,,57,68
76680,note_on,40,0,2,,,,,,,,,0,,,54,0
76720,note_on,40,0,2,,,,,,,,,0,,,57,0
76720,note_on,0,0,2,,,,,,,,,0,,,54,64
76760,note_on,0,0,2,,,,,,,,,0,,,48,61
76760,note_on,40,0,2,,,,,,,,,0,,,54,0
76785,control_change,465,0,3,,,,,,,,,0,64,0,,
76800,control_change,15,0,3,,,,,,,,,0,64,127,,
76800,note_on,0,0,2,,,,,,,,,0,,,37,70
76800,note_on,480,0,1,,,,,,,,,0,,,60,0
76800,note_on,0,0,1,,,,,,,,,0,,,61,70
76800,note_on,0,0,2,,,,,,,,,0,,,38,0
76800,note_on,40,0,2,,,,,,,,,0,,,48,0
76840,note_on,40,0,2,,,,,,,,,0,,,49,60
76880,note_on,0,0,2,,,,,,,,,0,,,54,60
76880,note_on,40,0,2,,,,,,,,,0,,,49,0
76920,note_on,40,0,2,,,,,,,,,0,,,54,0
76920,note_on,0,0,2,,,,,,,,,0,,,58,60
76960,note_on,40,0,2,,,,,,,,,0,,,58,0
76960,note_on,0,0,2,,,,,,,,,0,,,54,60
77000,note_on,40,0,2,,,,,,,,,0,,,54,0
77000,note_on,0,0,2,,,,,,,,,0,,,49,60
77040,note_on,0,0,2,,,,,,,,,0,,,54,60
77040,note_on,40,0,2,,,,,,,,,0,,,49,0
77080,note_on,0,0,2,,,,,,,,,0,,,49,60
77080,note_on,40,0,2,,,,,,,,,0,,,54,0
77120,note_on,0,0,2,,,,,,,,,0,,,54,60
77120,note_on,40,0,2,,,,,,,,,0,,,49,0
77160,note_on,40,0,2,,,,,,,,,0,,,54,0
77160,note_on,0,0,2,,,,,,,,,0,,,58,60
77200,note_on,40,0,2,,,,,,,,,0,,,58,0
77200,note_on,0,0,2,,,,,,,,,0,,,54,60
77240,note_on,40,0,2,,,,,,,,,0,,,54,0
77240,note_on,0,0,2,,,,,,,,,0,,,49,60
77265,control_change,465,0,3,,,,,,,,,0,64,0,,
77280,note_on,0,0,1,,,,,,,,,0,,,61,50
77280,note_on,480,0,1,,,,,,,,,0,,,61,0
77280,note_on,40,0,2,,,,,,,,,0,,,49,0
77280,note_on,0,0,2,,,,,,,,,0,,,37,0
77280,note_on,0,0,2,,,,,,,,,0,,,37,50
77280,control_change,15,0,3,,,,,,,,,0,64,127,,
77320,note_on,40,0,1,,,,,,,,,0,,,53,40
77360,note_on,0,0,1,,,,,,,,,0,,,56,40
77360,note_on,40,0,1,,,,,,,,,0,,,53,0
77400,note_on,40,0,1,,,,,,,,,0,,,56,0
77400,note_on,0,0,1,,,,,,,,,0,,,61,0
77400,note_on,0,0,1,,,,,,,,,0,,,71,50
77400,note_on,0,0,2,,,,,,,,,0,,,49,50
77400,note_on,120,0,2,,,,,,,,,0,,,37,0
77440,note_on,40,0,1,,,,,,,,,0,,,59,40
77480,note_on,40,0,1,,,,,,,,,0,,,59,0
77480,note_on,0,0,1,,,,,,,,,0,,,61,40
77520,note_on,120,0,2,,,,,,,,,0,,,53,50
77520,note_on,0,0,1,,,,,,,,,0,,,68,50
77520,note_on,0,0,1,,,,,,,,,0,,,71,0
77520,note_on,40,0,1,,,,,,,,,0,,,61,0
77560,note_on,40,0,1,,,,,,,,,0,,,59,40
77600,note_on,40,0,1,,,,,,,,,0,,,59,0
77600,note_on,0,0,1,,,,,,,,,0,,,61,40
77640,note_on,0,0,2,,,,,,,,,0,,,56,50
77640,note_on,0,0,1,,,,,,,,,0,,,68,0
77640,note_on,40,0,1,,,,,,,,,0,,,61,0
77640,note_on,120,0,2,,,,,,,,,0,,,53,0
77640,note_on,0,0,1,,,,,,,,,0,,,65,50
77680,note_on,40,0,1,,,,,,,,,0,,,59,40
77720,note_on,40,0,1,,,,,,,,,0,,,59,0
77720,note_on,0,0,1,,,,,,,,,0,,,61,40
77745,control_change,465,0,3,,,,,,,,,0,64,0,,
77760,control_change,15,0,3,,,,,,,,,0,64,127,,
77760,note_on,40,0,1,,,,,,,,,0,,,61,0
77760,note_on,0,0,1,,,,,,,,,0,,,65,0
77760,note_on,0,0,1,,,,,,,,,0,,,66,50
77760,note_on,120,0,2,,,,,,,,,0,,,56,0
77760,note_on,0,0,2,,,,,,,,,0,,,49,0
77760,note_on,0,0,2,,,,,,,,,0,,,42,50
77800,note_on,40,0,1,,,,,,,,,0,,,54,40
77840,note_on,0,0,1,,,,,,,,,0,,,58,40
77840,note_on,40,0,1,,,,,,,,,0,,,54,0
77880,note_on,40,0,1,,,,,,,,,0,,,58,0
77880,note_on,120,0,2,,,,,,,,,0,,,49,50
77880,note_on,0,0,2,,,,,,,,,0,,,46,50
77880,note_on,0,0,1,,,,,,,,,0,,,61,40
77920,note_on,0,0,1,,,,,,,,,0,,,54,40
77920,note_on,40,0,1,,,,,,,,,0,,,61,0
77960,note_on,0,0,1,,,,,,,,,0,,,58,40
77960,note_on,40,0,1,,,,,,,,,0,,,54,0
78000,note_on,120,0,2,,,,,,,,,0,,,46,0
78000,note_on,0,0,2,,,,,,,,,0,,,49,0
78000,note_on,0,0,2,,,,,,,,,0,,,51,50
78000,note_on,0,0,2,,,,,,,,,0,,,47,50
78000,note_on,0,0,1,,,,,,,,,0,,,63,40
78000,note_on,40,0,1,,,,,,,,,0,,,58,0
78040,note_on,0,0,1,,,,,,,,,0,,,54,40
78040,note_on,40,0,1,,,,,,,,,0,,,63,0
78080,note_on,40,0,1,,,,,,,,,0,,,54,0
78080,note_on,0,0,1,,,,,,,,,0,,,59,40
78120,note_on,0,0,1,,,,,,,,,0,,,61,40
78120,note_on,120,0,2,,,,,,,,,0,,,47,0
78120,note_on,0,0,2,,,,,,,,,0,,,51,0
78120,note_on,0,0,2,,,,,,,,,0,,,49,50
78120,note_on,0,0,2,,,,,,,,,0,,,46,50
78120,note_on,40,0,1,,,,,,,,,0,,,59,0
78160,note_on,0,0,1,,,,,,,,,0,,,54,40
78160,note_on,40,0,1,,,,,,,,,0,,,61,0
78200,note_on,40,0,1,,,,,,,,,0,,,54,0
78200,note_on,0,0,1,,,,,,,,,0,,,58,40
78225,control_change,465,0,3,,,,,,,,,0,64,0,,
78240,note_on,0,0,2,,,,,,,,,0,,,42,0
78240,control_change,15,0,3,,,,,,,,,0,64,127,,
78240,note_on,0,0,2,,,,,,,,,0,,,37,50
78240,note_on,0,0,2,,,,,,,,,0,,,49,0
78240,note_on,120,0,2,,,,,,,,,0,,,46,0
78240,note_on,40,0,1,,,,,,,,,0,,,58,0
78240,note_on,0,0,1,,,,,,,,,0,,,66,0
78240,note_on,0,0,1,,,,,,,,,0,,,65,50
78280,note_on,40,0,1,,,,,,,,,0,,,59,40
78320,note_on,40,0,1,,,,,,,,,0,,,59,0
78320,note_on,0,0,1,,,,,,,,,0,,,61,40
78360,note_on,0,0,2,,,,,,,,,0,,,49,50
78360,note_on,120,0,2,,,,,,,,,0,,,37,0
78360,note_on,40,0,1,,,,,,,,,0,,,61,0
78360,note_on,0,0,1,,,,,,,,,0,,,65,0
78360,note_on,0,0,1,,,,,,,,,0,,,71,50
78400,note_on,40,0,1,,,,,,,,,0,,,59,40
78440,note_on,40,0,1,,,,,,,,,0,,,59,0
78440,note_on,0,0,1,,,,,,,,,0,,,61,40
78480,note_on,120,0,2,,,,,,,,,0,,,53,50
78480,note_on,40,0,1,,,,,,,,,0,,,61,0
78480,note_on,0,0,1,,,,,,,,,0,,,68,50
78480,note_on,0,0,1,,,,,,,,,0,,,71,0
78520,note_on,40,0,1,,,,,,,,,0,,,59,40
78560,note_on,40,0,1,,,,,,,,,0,,,59,0
78560,note_on,0,0,1,,,,,,,,,0,,,61,40
78600,note_on,40,0,1,,,,,,,,,0,,,61,0
78600,note_on,0,0,1,,,,,,,,,0,,,68,0
78600,note_on,0,0,1,,,,,,,,,0,,,65,50
78600,note_on,120,0,2,,,,,,,,,0,,,53,0
78600,note_on,0,0,2,,,,,,,,,0,,,56,50
78640,note_on,40,0,1,,,,,,,,,0,,,59,40
78680,note_on,40,0,1,,,,,,,,,0,,,59,0
78680,note_on,0,0,1,,,,,,,,,0,,,61,40
78705,control_change,465,0,3,,,,,,,,,0,64,0,,
78720,note_on,40,0,1,,,,,,,,,0,,,61,0
78720,note_on,0,0,1,,,,,,,,,0,,,66,50
78720,note_on,0,0,2,,,,,,,,,0,,,49,0
78720,note_on,120,0,2,,,,,,,,,0,,,56,0
78720,note_on,0,0,1,,,,,,,,,0,,,65,0
78720,control_change,15,0,3,,,,,,,,,0,64,127,,
78720,note_on,0,0,2,,,,,,,,,0,,,42,50
78760,note_on,40,0,1,,,,,,,,,0,,,54,40
78800,note_on,0,0,1,,,,,,,,,0,,,58,40
78800,note_on,40,0,1,,,,,,,,,0,,,54,0
78840,note_on,120,0,2,,,,,,,,,0,,,49,50
78840,note_on,0,0,2,,,,,,,,,0,,,46,50
78840,note_on,0,0,1,,,,,,,,,0,,,61,40
78840,note_on,40,0,1,,,,,,,,,0,,,58,0
78880,note_on,40,0,1,,,,,,,,,0,,,61,0
78880,note_on,0,0,1,,,,,,,,,0,,,54,40
78920,note_on,0,0,1,,,,,,,,,0,,,58,40
78920,note_on,40,0,1,,,,,,,,,0,,,54,0
78960,note_on,0,0,1,,,,,,,,,0,,,63,40
78960,note_on,40,0,1,,,,,,,,,0,,,58,0
78960,note_on,0,0,2,,,,,,,,,0,,,47,50
78960,note_on,0,0,2,,,,,,,,,0,,,51,50
78960,note_on,0,0,2,,,,,,,,,0,,,49,0
78960,note_on,120,0,2,,,,,,,,,0,,,46,0
79000,note_on,0,0,1,,,,,,,,,0,,,54,40
79000,note_on,40,0,1,,,,,,,,,0,,,63,0
79040,note_on,0,0,1,,,,,,,,,0,,,59,40
79040,note_on,40,0,1,,,,,,,,,0,,,54,0
79080,note_on,0,0,2,,,,,,,,,0,,,46,50
79080,note_on,120,0,2,,,,,,,,,0,,,47,0
79080,note_on,0,0,2,,,,,,,,,0,,,51,0
79080,note_on,0,0,2,,,,,,,,,0,,,49,50
79080,note_on,40,0,1,,,,,,,,,0,,,59,0
79080,note_on,0,0,1,,,,,,,,,0,,,61,40
79120,note_on,0,0,1,,,,,,,,,0,,,54,40
79120,note_on,40,0,1,,,,,,,,,0,,,61,0
79160,note_on,0,0,1,,,,,,,,,0,,,58,40
79160,note_on,40,0,1,,,,,,,,,0,,,54,0
79185,control_change,465,0,3,,,,,,,,,0,64,0,,
79200,control_change,15,0,3,,,,,,,,,0,64,127,,
79200,note_on,0,0,1,,,,,,,,,0,,,66,0
79200,note_on,40,0,1,,,,,,,,,0,,,58,0
79200,note_on,120,0,2,,,,,,,,,0,,,46,0
79200,note_on,0,0,2,,,,,,,,,0,,,49,0
79200,note_on,0,0,2,,,,,,,,,0,,,42,0
79200,note_on,0,0,2,,,,,,,,,0,,,37,50
79200,note_on,0,0,1,,,,,,,,,0,,,65,50
79240,note_on,40,0,1,,,,,,,,,0,,,59,40
79280,note_on,40,0,1,,,,,,,,,0,,,59,0
79280,note_on,0,0,1,,,,,,,,,0,,,61,40
79320,note_on,0,0,1,,,,,,,,,0,,,75,50
79320,note_on,120,0,2,,,,,,,,,0,,,37,0
79320,note_on,0,0,2,,,,,,,,,0,,,49,50
79320,note_on,0,0,1,,,,,,,,,0,,,65,0
79320,note_on,40,0,1,,,,,,,,,0,,,61,0
79360,note_on,40,0,1,,,,,,,,,0,,,65,40
79400,note_on,0,0,1,,,,,,,,,0,,,68,40
79400,note_on,40,0,1,,,,,,,,,0,,,65,0
79440,note_on,0,0,1,,,,,,,,,0,,,71,50
79440,note_on,0,0,1,,,,,,,,,0,,,75,0
79440,note_on,40,0,1,,,,,,,,,0,,,68,0
79440,note_on,120,0,2,,,,,,,,,0,,,56,50
79480,note_on,40,0,1,,,,,,,,,0,,,61,40
79520,note_on,0,0,1,,,,,,,,,0,,,65,40
79520,note_on,40,0,1,,,,,,,,,0,,,61,0
79560,note_on,0,0,1,,,,,,,,,0,,,71,0
79560,note_on,0,0,2,,,,,,,,,0,,,59,50
79560,note_on,40,0,1,,,,,,,,,0,,,65,0
79560,note_on,0,0,1,,,,,,,,,0,,,68,50
79560,note_on,120,0,2,,,,,,,,,0,,,56,0
79600,note_on,40,0,1,,,,,,,,,0,,,61,40
79640,note_on,40,0,1,,,,,,,,,0,,,61,0
79640,note_on,0,0,1,,,,,,,,,0,,,65,40
79665,control_change,465,0,3,,,,,,,,,0,64,0,,
79680,note_on,40,0,1,,,,,,,,,0,,,65,0
79680,note_on,0,0,1,,,,,,,,,0,,,68,0
79680,control_change,15,0,3,,,,,,,,,0,64,127,,
79680,set_tempo,3840,1,0,,,,,,454580,,,,,,,
79680,note_on,0,0,2,,,,,,,,,0,,,49,40
79680,note_on,0,0,2,,,,,,,,,0,,,49,0
79680,note_on,120,0,2,,,,,,,,,0,,,59,0
79680,note_on,0,0,1,,,,,,,,,0,,,66,40
79680,note_on,0,0,2,,,,,,,,,0,,,42,40
79715,set_tempo,35,1,0,,,,,,455615,,,,,,,
79720,note_on,40,0,1,,,,,,,,,0,,,54,30
79743,set_tempo,28,1,0,,,,,,456656,,,,,,,
79760,note_on,0,0,1,,,,,,,,,0,,,58,30
79760,note_on,40,0,1,,,,,,,,,0,,,54,0
79771,set_tempo,28,1,0,,,,,,457701,,,,,,,
79800,set_tempo,29,1,0,,,,,,458751,,,,,,,
79800,note_on,0,0,1,,,,,,,,,0,,,61,30
79800,note_on,40,0,1,,,,,,,,,0,,,58,0
79828,set_tempo,28,1,0,,,,,,459805,,,,,,,
79840,note_on,0,0,1,,,,,,,,,0,,,58,30
79840,note_on,40,0,1,,,,,,,,,0,,,61,0
79856,set_tempo,28,1,0,,,,,,460865,,,,,,,
79880,note_on,0,0,1,,,,,,,,,0,,,54,30
79880,note_on,40,0,1,,,,,,,,,0,,,58,0
79884,set_tempo,28,1,0,,,,,,461929,,,,,,,
79912,set_tempo,28,1,0,,,,,,462999,,,,,,,
79920,note_on,0,0,1,,,,,,,,,0,,,58,30
79920,note_on,40,0,1,,,,,,,,,0,,,54,0
79941,set_tempo,29,1,0,,,,,,464073,,,,,,,
79960,note_on,40,0,1,,,,,,,,,0,,,58,0
79960,note_on,0,0,1,,,,,,,,,0,,,54,30
79976,set_tempo,35,1,0,,,,,,465152,,,,,,,
80000,note_on,0,0,1,,,,,,,,,0,,,58,30
80000,note_on,40,0,1,,,,,,,,,0,,,54,0
80004,set_tempo,28,1,0,,,,,,466237,,,,,,,
80032,set_tempo,28,1,0,,,,,,467326,,,,,,,
80040,note_on,40,0,1,,,,,,,,,0,,,58,0
80040,note_on,0,0,1,,,,,,,,,0,,,61,30
80061,set_tempo,29,1,0,,,,,,468421,,,,,,,
80080,note_on,0,0,1,,,,,,,,,0,,,58,30
80080,note_on,40,0,1,,,,,,,,,0,,,61,0
80089,set_tempo,28,1,0,,,,,,469520,,,,,,,
80117,set_tempo,28,1,0,,,,,,470625,,,,,,,
80120,note_on,0,0,1,,,,,,,,,0,,,54,30
80120,note_on,40,0,1,,,,,,,,,0,,,58,0
80145,set_tempo,28,1,0,,,,,,471735,,,,,,,
80160,note_on,0,0,1,,,,,,,,,0,,,58,30
80160,note_on,0,0,1,,,,,,,,,0,,,66,40
80160,note_on,480,0,2,,,,,,,,,0,,,49,0
80160,note_on,0,0,2,,,,,,,,,0,,,42,0
80160,note_on,0,0,2,,,,,,,,,0,,,42,40
80160,note_on,0,0,2,,,,,,,,,0,,,49,40
80160,note_on,40,0,1,,,,,,,,,0,,,54,0
80160,note_on,0,0,1,,,,,,,,,0,,,66,0
80174,set_tempo,29,1,0,,,,,,472851,,,,,,,
80200,note_on,40,0,1,,,,,,,,,0,,,58,0
80200,note_on,0,0,1,,,,,,,,,0,,,54,30
80202,set_tempo,28,1,0,,,,,,473971,,,,,,,
80237,set_tempo,35,1,0,,,,,,475097,,,,,,,
80240,note_on,0,0,1,,,,,,,,,0,,,58,30
80240,note_on,40,0,1,,,,,,,,,0,,,54,0
80265,set_tempo,28,1,0,,,,,,476228,,,,,,,
80280,note_on,40,0,1,,,,,,,,,0,,,58,0
80280,note_on,0,0,1,,,,,,,,,0,,,61,30
80294,set_tempo,29,1,0,,,,,,477365,,,,,,,
80320,note_on,0,0,1,,,,,,,,,0,,,58,30
80320,note_on,40,0,1,,,,,,,,,0,,,61,0
80322,set_tempo,28,1,0,,,,,,478507,,,,,,,
80350,set_tempo,28,1,0,,,,,,479655,,,,,,,
80360,note_on,40,0,1,,,,,,,,,0,,,58,0
80360,note_on,0,0,1,,,,,,,,,0,,,54,30
80378,set_tempo,28,1,0,,,,,,480808,,,,,,,
80400,note_on,240,0,2,,,,,,,,,0,,,49,0
80400,note_on,0,0,2,,,,,,,,,0,,,42,0
80400,note_on,0,0,2,,,,,,,,,0,,,49,40
80400,note_on,0,0,2,,,,,,,,,0,,,42,40
80400,note_on,0,0,1,,,,,,,,,0,,,66,0
80400,note_on,0,0,1,,,,,,,,,0,,,58,30
80400,note_on,0,0,1,,,,,,,,,0,,,66,40
80400,note_on,40,0,1,,,,,,,,,0,,,54,0
80407,set_tempo,29,1,0,,,,,,481966,,,,,,,
80435,set_tempo,28,1,0,,,,,,483131,,,,,,,
80440,note_on,0,0,1,,,,,,,,,0,,,54,30
80440,note_on,40,0,1,,,,,,,,,0,,,58,0
80463,set_tempo,28,1,0,,,,,,484301,,,,,,,
80480,note_on,0,0,1,,,,,,,,,0,,,58,30
80480,note_on,40,0,1,,,,,,,,,0,,,54,0
80491,set_tempo,28,1,0,,,,,,485476,,,,,,,
80520,note_on,0,0,1,,,,,,,,,0,,,61,30
80520,note_on,40,0,1,,,,,,,,,0,,,58,0
80527,set_tempo,36,1,0,,,,,,486657,,,,,,,
80555,set_tempo,28,1,0,,,,,,487845,,,,,,,
80560,note_on,0,0,1,,,,,,,,,0,,,58,30
80560,note_on,40,0,1,,,,,,,,,0,,,61,0
80583,set_tempo,28,1,0,,,,,,489037,,,,,,,
80600,note_on,0,0,1,,,,,,,,,0,,,54,30
80600,note_on,40,0,1,,,,,,,,,0,,,58,0
80611,set_tempo,28,1,0,,,,,,490236,,,,,,,
80625,control_change,945,0,3,,,,,,,,,0,64,0,,
80640,note_on,0,0,2,,,,,,,,,0,,,49,0
80640,note_on,240,0,2,,,,,,,,,0,,,42,0
80640,note_on,0,0,1,,,,,,,,,0,,,66,40
80640,note_on,0,0,1,,,,,,,,,0,,,58,40
80640,note_on,0,0,1,,,,,,,,,0,,,54,40
80640,note_on,0,0,1,,,,,,,,,0,,,66,0
80640,note_on,40,0,1,,,,,,,,,0,,,54,0
80640,set_tempo,29,1,0,,,,,,491441,,,,,,,
80640,control_change,15,0,3,,,,,,,,,0,64,127,,
80668,set_tempo,28,1,0,,,,,,492651,,,,,,,
80680,note_on,40,0,2,,,,,,,,,0,,,42,30
80696,set_tempo,28,1,0,,,,,,493868,,,,,,,
80720,note_on,40,0,2,,,,,,,,,0,,,42,0
80720,note_on,0,0,2,,,,,,,,,0,,,46,30
80724,set_tempo,28,1,0,,,,,,495090,,,,,,,
80752,set_tempo,28,1,0,,,,,,496319,,,,,,,
80760,note_on,40,0,2,,,,,,,,,0,,,46,0
80760,note_on,0,0,2,,,,,,,,,0,,,49,30
80788,set_tempo,36,1,0,,,,,,497554,,,,,,,
80800,note_on,40,0,2,,,,,,,,,0,,,49,0
80800,note_on,0,0,2,,,,,,,,,0,,,46,30
80816,set_tempo,28,1,0,,,,,,498795,,,,,,,
80840,note_on,40,0,2,,,,,,,,,0,,,46,0
80840,note_on,0,0,2,,,,,,,,,0,,,42,30
80844,set_tempo,28,1,0,,,,,,500042,,,,,,,
80872,set_tempo,28,1,0,,,,,,501295,,,,,,,
80880,note_on,40,0,2,,,,,,,,,0,,,42,0
80880,note_on,0,0,2,,,,,,,,,0,,,46,30
80901,set_tempo,29,1,0,,,,,,502555,,,,,,,
80920,note_on,40,0,2,,,,,,,,,0,,,46,0
80920,note_on,0,0,2,,,,,,,,,0,,,42,30
80929,set_tempo,28,1,0,,,,,,503821,,,,,,,
80957,set_tempo,28,1,0,,,,,,505093,,,,,,,
80960,note_on,0,0,2,,,,,,,,,0,,,46,30
80960,note_on,40,0,2,,,,,,,,,0,,,42,0
80985,set_tempo,28,1,0,,,,,,506372,,,,,,,
81000,note_on,0,0,2,,,,,,,,,0,,,49,30
81000,note_on,40,0,2,,,,,,,,,0,,,46,0
81014,set_tempo,29,1,0,,,,,,507657,,,,,,,
81040,note_on,40,0,2,,,,,,,,,0,,,49,0
81040,note_on,0,0,2,,,,,,,,,0,,,46,30
81042,set_tempo,28,1,0,,,,,,508949,,,,,,,
81077,set_tempo,35,1,0,,,,,,510247,,,,,,,
81080,note_on,0,0,2,,,,,,,,,0,,,42,30
81080,note_on,40,0,2,,,,,,,,,0,,,46,0
81105,set_tempo,28,1,0,,,,,,511553,,,,,,,
81120,note_on,0,0,1,,,,,,,,,0,,,58,0
81120,note_on,480,0,1,,,,,,,,,0,,,66,0
81120,note_on,40,0,2,,,,,,,,,0,,,42,0
81120,note_on,0,0,1,,,,,,,,,0,,,66,40
81120,note_on,0,0,1,,,,,,,,,0,,,58,40
81120,note_on,0,0,1,,,,,,,,,0,,,54,40
81120,note_on,0,0,1,,,,,,,,,0,,,54,0
81120,note_on,0,0,2,,,,,,,,,0,,,46,30
81134,set_tempo,29,1,0,,,,,,512864,,,,,,,
81160,note_on,0,0,2,,,,,,,,,0,,,42,30
81160,note_on,40,0,2,,,,,,,,,0,,,46,0
81162,set_tempo,28,1,0,,,,,,514183,,,,,,,
81190,set_tempo,28,1,0,,,,,,515508,,,,,,,
81200,note_on,40,0,2,,,,,,,,,0,,,42,0
81200,note_on,0,0,2,,,,,,,,,0,,,46,30
81218,set_tempo,28,1,0,,,,,,516840,,,,,,,
81240,note_on,40,0,2,,,,,,,,,0,,,46,0
81240,note_on,0,0,2,,,,,,,,,0,,,49,30
81247,set_tempo,29,1,0,,,,,,518179,,,,,,,
81275,set_tempo,28,1,0,,,,,,519526,,,,,,,
81280,note_on,40,0,2,,,,,,,,,0,,,49,0
81280,note_on,0,0,2,,,,,,,,,0,,,46,30
81303,set_tempo,28,1,0,,,,,,520879,,,,,,,
81320,note_on,40,0,2,,,,,,,,,0,,,46,0
81320,note_on,0,0,2,,,,,,,,,0,,,42,30
81338,set_tempo,35,1,0,,,,,,522239,,,,,,,
81360,note_on,0,0,2,,,,,,,,,0,,,46,30
81360,note_on,0,0,1,,,,,,,,,0,,,54,40
81360,note_on,0,0,1,,,,,,,,,0,,,58,40
81360,note_on,0,0,1,,,,,,,,,0,,,66,40
81360,note_on,0,0,1,,,,,,,,,0,,,58,0
81360,note_on,240,0,1,,,,,,,,,0,,,66,0
81360,note_on,0,0,1,,,,,,,,,0,,,54,0
81360,note_on,40,0,2,,,,,,,,,0,,,42,0
81367,set_tempo,29,1,0,,,,,,523606,,,,,,,
81395,set_tempo,28,1,0,,,,,,524980,,,,,,,
81400,note_on,0,0,2,,,,,,,,,0,,,42,30
81400,note_on,40,0,2,,,,,,,,,0,,,46,0
81423,set_tempo,28,1,0,,,,,,526362,,,,,,,
81440,note_on,0,0,2,,,,,,,,,0,,,37,30
81440,note_on,40,0,2,,,,,,,,,0,,,42,0
81451,set_tempo,28,1,0,,,,,,527751,,,,,,,
81480,note_on,40,0,2,,,,,,,,,0,,,37,0
81480,note_on,0,0,2,,,,,,,,,0,,,42,30
81480,set_tempo,29,1,0,,,,,,529147,,,,,,,
81508,set_tempo,28,1,0,,,,,,530551,,,,,,,
81520,note_on,40,0,2,,,,,,,,,0,,,42,0
81520,note_on,0,0,2,,,,,,,,,0,,,37,30
81536,set_tempo,28,1,0,,,,,,531962,,,,,,,
81560,note_on,40,0,2,,,,,,,,,0,,,37,0
81560,note_on,0,0,2,,,,,,,,,0,,,34,30
81564,set_tempo,28,1,0,,,,,,533381,,,,,,,
81585,control_change,945,0,3,,,,,,,,,0,64,0,,
81592,set_tempo,28,1,0,,,,,,534807,,,,,,,
81600,note_on,0,0,1,,,,,,,,,0,,,58,40
81600,note_on,0,0,1,,,,,,,,,0,,,66,40
81600,control_change,15,0,3,,,,,,,,,0,64,127,,
81600,set_tempo,8,1,0,,,,,,535714,,,,,,,
81600,note_on,0,0,1,,,,,,,,,0,,,58,0
81600,note_on,0,0,1,,,,,,,,,0,,,54,0
81600,note_on,240,0,1,,,,,,,,,0,,,66,0
81600,end_of_track,0,1,0,,,,,,,,,,,,,
81600,note_on,40,0,2,,,,,,,,,0,,,34,0
81600,note_on,0,0,2,,,,,,,,,0,,,30,40
81600,note_on,0,0,2,,,,,,,,,0,,,37,40
81600,note_on,0,0,2,,,,,,,,,0,,,42,40
81600,note_on,0,0,1,,,,,,,,,0,,,54,40
82560,note_on,0,0,1,,,,,,,,,0,,,58,0
82560,note_on,960,0,1,,,,,,,,,0,,,66,0
82560,end_of_track,0,1,1,,,,,,,,,,,,,
82560,end_of_track,0,1,2,,,,,,,,,,,,,
82560,note_on,0,0,2,,,,,,,,,0,,,30,0
82560,note_on,0,0,2,,,,,,,,,0,,,37,0
82560,note_on,960,0,2,,,,,,,,,0,,,42,0
82560,note_on,0,0,1,,,,,,,,,0,,,54,0
83040,control_change,1440,0,3,,,,,,,,,0,64,0,,
83520,control_change,480,0,3,,,,,,,,,0,64,127,,
83760,end_of_track,0,1,3,,,,,,,,,,,,,
83760,control_change,240,0,3,,,,,,,,,0,64,0,,
