tick,type,time,meta,track,numerator,denominator,clocks_per_click,notated_32nd_notes_per_beat,key,tempo,port,program,channel,control,value,note,velocity
0,track_name,0,1,0,,,,,,,,,,,,,
0,program_change,0,0,1,,,,,,,,0,0,,,,
0,control_change,0,0,1,,,,,,,,,0,7,127,,
0,control_change,0,0,1,,,,,,,,,0,10,64,,
0,track_name,0,1,7,,,,,,,,,,,,,
0,midi_port,0,1,2,,,,,,,0,,,,,,
0,track_name,0,1,2,,,,,,,,,,,,,
0,program_change,0,0,2,,,,,,,,0,0,,,,
0,control_change,0,0,2,,,,,,,,,0,7,127,,
0,control_change,0,0,2,,,,,,,,,0,10,64,,
0,midi_port,0,1,3,,,,,,,0,,,,,,
0,track_name,0,1,3,,,,,,,,,,,,,
0,program_change,0,0,3,,,,,,,,0,0,,,,
0,control_change,0,0,3,,,,,,,,,0,7,127,,
0,track_name,0,1,1,,,,,,,,,,,,,
0,control_change,0,0,3,,,,,,,,,0,10,64,,
0,track_name,0,1,4,,,,,,,,,,,,,
0,program_change,0,0,4,,,,,,,,0,0,,,,
0,control_change,0,0,4,,,,,,,,,0,7,127,,
0,control_change,0,0,4,,,,,,,,,0,10,64,,
0,midi_port,0,1,5,,,,,,,0,,,,,,
0,track_name,0,1,5,,,,,,,,,,,,,
0,program_change,0,0,5,,,,,,,,0,0,,,,
0,control_change,0,0,5,,,,,,,,,0,7,127,,
0,control_change,0,0,5,,,,,,,,,0,10,64,,
0,midi_port,0,1,6,,,,,,,0,,,,,,
0,track_name,0,1,6,,,,,,,,,,,,,
0,end_of_track,0,1,6,,,,,,,,,,,,,
0,midi_port,0,1,7,,,,,,,0,,,,,,
0,midi_port,0,1,4,,,,,,,0,,,,,,
0,midi_port,0,1,1,,,,,,,0,,,,,,
0,end_of_track,0,1,7,,,,,,,,,,,,,
0,key_signature,0,1,0,,,,,Ab,,,,,,,,
0,marker,0,1,0,,,,,,,,,,,,,
0,set_tempo,0,1,0,,,,,,476190,,,,,,,
0,time_signature,0,1,0,3,8,12,8,,,,,,,,,
0,text,0,1,0,,,,,,,,,,,,,
0,copyright,0,1,0,,,,,,,,,,,,,
165,note_on,165,0,1,,,,,,,,,0,,,73,60
180,note_on,180,0,4,,,,,,,,,0,,,53,60
180,note_on,0,0,1,,,,,,,,,0,,,72,60
180,note_on,15,0,1,,,,,,,,,0,,,73,0
210,note_on,30,0,4,,,,,,,,,0,,,53,0
210,note_on,30,0,1,,,,,,,,,0,,,72,0
240,note_on,0,0,4,,,,,,,,,0,,,56,60
240,note_on,30,0,1,,,,,,,,,0,,,72,60
240,note_on,30,0,4,,,,,,,,,0,,,65,60
240,note_on,0,0,4,,,,,,,,,0,,,60,60
270,note_on,0,0,1,,,,,,,,,0,,,73,60
270,note_on,30,0,1,,,,,,,,,0,,,72,0
270,note_on,0,0,4,,,,,,,,,0,,,60,0
270,note_on,0,0,4,,,,,,,,,0,,,65,0
270,note_on,30,0,4,,,,,,,,,0,,,56,0
300,note_on,0,0,1,,,,,,,,,0,,,72,60
300,note_on,30,0,1,,,,,,,,,0,,,73,0
300,note_on,30,0,4,,,,,,,,,0,,,53,60
330,note_on,30,0,4,,,,,,,,,0,,,53,0
330,note_on,30,0,1,,,,,,,,,0,,,72,0
345,note_on,15,0,1,,,,,,,,,0,,,73,60
360,note_on,0,0,1,,,,,,,,,0,,,72,60
360,note_on,30,0,4,,,,,,,,,0,,,65,60
360,note_on,0,0,4,,,,,,,,,0,,,60,60
360,note_on,0,0,4,,,,,,,,,0,,,56,60
360,note_on,15,0,1,,,,,,,,,0,,,73,0
390,note_on,30,0,1,,,,,,,,,0,,,72,0
390,note_on,30,0,4,,,,,,,,,0,,,56,0
390,note_on,0,0,4,,,,,,,,,0,,,65,0
390,note_on,0,0,4,,,,,,,,,0,,,60,0
420,note_on,30,0,4,,,,,,,,,0,,,53,60
420,note_on,30,0,1,,,,,,,,,0,,,72,60
450,note_on,30,0,4,,,,,,,,,0,,,53,0
450,note_on,0,0,1,,,,,,,,,0,,,73,60
450,note_on,30,0,1,,,,,,,,,0,,,72,0
480,note_on,30,0,4,,,,,,,,,0,,,65,60
480,note_on,0,0,4,,,,,,,,,0,,,60,60
480,note_on,0,0,4,,,,,,,,,0,,,56,60
480,note_on,0,0,1,,,,,,,,,0,,,72,60
480,note_on,30,0,1,,,,,,,,,0,,,73,0
510,note_on,30,0,1,,,,,,,,,0,,,72,0
510,note_on,0,0,4,,,,,,,,,0,,,65,0
510,note_on,30,0,4,,,,,,,,,0,,,56,0
510,note_on,0,0,4,,,,,,,,,0,,,60,0
525,note_on,15,0,1,,,,,,,,,0,,,72,60
540,note_on,15,0,1,,,,,,,,,0,,,72,0
540,note_on,0,0,1,,,,,,,,,0,,,71,60
540,note_on,30,0,4,,,,,,,,,0,,,53,60
570,note_on,30,0,4,,,,,,,,,0,,,53,0
600,note_on,60,0,1,,,,,,,,,0,,,71,0
600,note_on,30,0,4,,,,,,,,,0,,,62,60
600,note_on,0,0,4,,,,,,,,,0,,,59,60
600,note_on,0,0,4,,,,,,,,,0,,,56,60
600,note_on,0,0,1,,,,,,,,,0,,,71,60
630,note_on,30,0,1,,,,,,,,,0,,,71,0
630,note_on,0,0,1,,,,,,,,,0,,,74,60
630,note_on,30,0,4,,,,,,,,,0,,,56,0
630,note_on,0,0,4,,,,,,,,,0,,,59,0
630,note_on,0,0,4,,,,,,,,,0,,,62,0
660,note_on,0,0,1,,,,,,,,,0,,,72,60
660,note_on,30,0,1,,,,,,,,,0,,,74,0
660,note_on,30,0,4,,,,,,,,,0,,,53,60
690,note_on,30,0,4,,,,,,,,,0,,,53,0
690,note_on,0,0,1,,,,,,,,,0,,,70,60
690,note_on,30,0,1,,,,,,,,,0,,,72,0
720,note_on,30,0,1,,,,,,,,,0,,,70,0
720,note_on,30,0,4,,,,,,,,,0,,,48,60
720,note_on,0,0,1,,,,,,,,,0,,,72,60
750,note_on,30,0,4,,,,,,,,,0,,,48,0
750,note_on,30,0,1,,,,,,,,,0,,,72,0
780,note_on,0,0,4,,,,,,,,,0,,,52,60
780,note_on,0,0,4,,,,,,,,,0,,,55,60
780,note_on,30,0,4,,,,,,,,,0,,,60,60
780,note_on,30,0,1,,,,,,,,,0,,,67,80
810,note_on,0,0,4,,,,,,,,,0,,,60,0
810,note_on,0,0,4,,,,,,,,,0,,,55,0
810,note_on,30,0,4,,,,,,,,,0,,,52,0
840,note_on,30,0,4,,,,,,,,,0,,,48,60
870,note_on,30,0,4,,,,,,,,,0,,,48,0
900,note_on,0,0,1,,,,,,,,,0,,,72,60
900,note_on,30,0,4,,,,,,,,,0,,,60,60
900,note_on,0,0,4,,,,,,,,,0,,,55,60
900,note_on,120,0,1,,,,,,,,,0,,,67,0
900,note_on,0,0,4,,,,,,,,,0,,,52,60
930,note_on,30,0,1,,,,,,,,,0,,,72,0
930,note_on,0,0,4,,,,,,,,,0,,,60,0
930,note_on,0,0,4,,,,,,,,,0,,,55,0
930,note_on,30,0,4,,,,,,,,,0,,,52,0
960,note_on,30,0,1,,,,,,,,,0,,,67,60
960,note_on,30,0,4,,,,,,,,,0,,,48,60
990,note_on,30,0,1,,,,,,,,,0,,,67,0
990,note_on,30,0,4,,,,,,,,,0,,,48,0
1020,note_on,0,0,4,,,,,,,,,0,,,52,60
1020,note_on,30,0,4,,,,,,,,,0,,,60,60
1020,note_on,0,0,4,,,,,,,,,0,,,55,60
1020,note_on,30,0,1,,,,,,,,,0,,,72,60
1050,note_on,30,0,1,,,,,,,,,0,,,72,0
1050,note_on,30,0,4,,,,,,,,,0,,,52,0
1050,note_on,0,0,4,,,,,,,,,0,,,55,0
1050,note_on,0,0,4,,,,,,,,,0,,,60,0
1080,note_on,30,0,1,,,,,,,,,0,,,70,80
1080,note_on,30,0,4,,,,,,,,,0,,,49,60
1110,note_on,30,0,4,,,,,,,,,0,,,49,0
1140,note_on,30,0,4,,,,,,,,,0,,,61,60
1140,note_on,0,0,1,,,,,,,,,0,,,68,60
1140,note_on,0,0,4,,,,,,,,,0,,,53,60
1140,note_on,60,0,1,,,,,,,,,0,,,70,0
1170,note_on,30,0,1,,,,,,,,,0,,,68,0
1170,note_on,30,0,4,,,,,,,,,0,,,53,0
1170,note_on,0,0,4,,,,,,,,,0,,,61,0
1170,note_on,0,0,1,,,,,,,,,0,,,67,60
1200,note_on,0,0,1,,,,,,,,,0,,,65,60
1200,note_on,30,0,1,,,,,,,,,0,,,67,0
1200,note_on,30,0,4,,,,,,,,,0,,,49,60
1230,note_on,30,0,1,,,,,,,,,0,,,65,0
1230,note_on,30,0,4,,,,,,,,,0,,,49,0
1260,note_on,30,0,1,,,,,,,,,0,,,67,60
1260,note_on,30,0,4,,,,,,,,,0,,,46,60
1290,note_on,30,0,1,,,,,,,,,0,,,67,0
1290,note_on,0,0,1,,,,,,,,,0,,,70,60
1320,note_on,0,0,4,,,,,,,,,0,,,55,60
1320,note_on,60,0,4,,,,,,,,,0,,,46,0
1320,note_on,30,0,1,,,,,,,,,0,,,70,0
1320,note_on,0,0,1,,,,,,,,,0,,,67,60
1320,note_on,0,0,4,,,,,,,,,0,,,58,60
1350,note_on,0,0,1,,,,,,,,,0,,,70,60
1350,note_on,0,0,4,,,,,,,,,0,,,58,0
1350,note_on,30,0,1,,,,,,,,,0,,,67,0
1350,note_on,30,0,4,,,,,,,,,0,,,55,0
1380,note_on,30,0,1,,,,,,,,,0,,,70,0
1380,note_on,30,0,4,,,,,,,,,0,,,58,60
1380,note_on,0,0,4,,,,,,,,,0,,,55,60
1380,note_on,0,0,4,,,,,,,,,0,,,48,60
1380,note_on,0,0,1,,,,,,,,,0,,,64,60
1410,note_on,30,0,4,,,,,,,,,0,,,48,0
1410,note_on,0,0,4,,,,,,,,,0,,,55,0
1410,note_on,0,0,4,,,,,,,,,0,,,58,0
1410,note_on,0,0,1,,,,,,,,,0,,,67,60
1410,note_on,30,0,1,,,,,,,,,0,,,64,0
1440,note_on,30,0,1,,,,,,,,,0,,,67,0
1440,note_on,30,0,4,,,,,,,,,0,,,56,60
1440,note_on,0,0,1,,,,,,,,,0,,,65,60
1440,note_on,0,0,4,,,,,,,,,0,,,53,60
1470,note_on,0,0,1,,,,,,,,,0,,,68,60
1470,note_on,30,0,1,,,,,,,,,0,,,65,0
1500,note_on,0,0,1,,,,,,,,,0,,,72,60
1500,note_on,30,0,1,,,,,,,,,0,,,68,0
1530,note_on,30,0,1,,,,,,,,,0,,,72,0
1530,note_on,0,0,1,,,,,,,,,0,,,77,60
1560,note_on,30,0,1,,,,,,,,,0,,,77,0
1560,note_on,0,0,1,,,,,,,,,0,,,80,60
1560,note_on,120,0,4,,,,,,,,,0,,,53,0
1560,note_on,0,0,4,,,,,,,,,0,,,56,0
1590,note_on,0,0,1,,,,,,,,,0,,,82,60
1590,note_on,30,0,1,,,,,,,,,0,,,80,0
1620,note_on,30,0,1,,,,,,,,,0,,,82,0
1620,note_on,0,0,1,,,,,,,,,0,,,84,60
1620,note_on,60,0,4,,,,,,,,,0,,,53,60
1650,note_on,30,0,4,,,,,,,,,0,,,53,0
1650,note_on,30,0,1,,,,,,,,,0,,,84,0
1680,note_on,30,0,4,,,,,,,,,0,,,65,60
1680,note_on,30,0,1,,,,,,,,,0,,,84,60
1680,note_on,0,0,4,,,,,,,,,0,,,56,60
1680,note_on,0,0,4,,,,,,,,,0,,,60,60
1710,note_on,0,0,1,,,,,,,,,0,,,85,60
1710,note_on,30,0,1,,,,,,,,,0,,,84,0
1710,note_on,30,0,4,,,,,,,,,0,,,56,0
1710,note_on,0,0,4,,,,,,,,,0,,,65,0
1710,note_on,0,0,4,,,,,,,,,0,,,60,0
1740,note_on,30,0,4,,,,,,,,,0,,,53,60
1740,note_on,0,0,1,,,,,,,,,0,,,84,60
1740,note_on,30,0,1,,,,,,,,,0,,,85,0
1770,note_on,30,0,4,,,,,,,,,0,,,53,0
1770,note_on,30,0,1,,,,,,,,,0,,,84,0
1785,note_on,15,0,1,,,,,,,,,0,,,85,60
1800,note_on,0,0,4,,,,,,,,,0,,,60,60
1800,note_on,30,0,4,,,,,,,,,0,,,65,60
1800,note_on,0,0,1,,,,,,,,,0,,,84,60
1800,note_on,15,0,1,,,,,,,,,0,,,85,0
1800,note_on,0,0,4,,,,,,,,,0,,,56,60
1830,note_on,0,0,4,,,,,,,,,0,,,60,0
1830,note_on,0,0,4,,,,,,,,,0,,,65,0
1830,note_on,30,0,4,,,,,,,,,0,,,56,0
1830,note_on,30,0,1,,,,,,,,,0,,,84,0
1860,note_on,30,0,1,,,,,,,,,0,,,84,60
1860,note_on,30,0,4,,,,,,,,,0,,,53,60
1890,note_on,30,0,1,,,,,,,,,0,,,84,0
1890,note_on,0,0,1,,,,,,,,,0,,,85,60
1890,note_on,30,0,4,,,,,,,,,0,,,53,0
1920,note_on,30,0,1,,,,,,,,,0,,,85,0
1920,note_on,0,0,1,,,,,,,,,0,,,84,60
1920,note_on,30,0,4,,,,,,,,,0,,,65,60
1920,note_on,0,0,4,,,,,,,,,0,,,60,60
1920,note_on,0,0,4,,,,,,,,,0,,,56,60
1950,note_on,0,0,4,,,,,,,,,0,,,65,0
1950,note_on,0,0,4,,,,,,,,,0,,,60,0
1950,note_on,30,0,1,,,,,,,,,0,,,84,0
1950,note_on,30,0,4,,,,,,,,,0,,,56,0
1980,note_on,30,0,4,,,,,,,,,0,,,53,60
1980,note_on,30,0,1,,,,,,,,,0,,,84,60
2010,note_on,30,0,4,,,,,,,,,0,,,53,0
2010,note_on,0,0,1,,,,,,,,,0,,,83,60
2010,note_on,30,0,1,,,,,,,,,0,,,84,0
2040,note_on,30,0,4,,,,,,,,,0,,,62,60
2040,note_on,0,0,4,,,,,,,,,0,,,56,60
2040,note_on,0,0,1,,,,,,,,,0,,,89,60
2040,note_on,30,0,1,,,,,,,,,0,,,83,0
2040,note_on,0,0,4,,,,,,,,,0,,,59,60
2070,note_on,30,0,4,,,,,,,,,0,,,56,0
2070,note_on,0,0,4,,,,,,,,,0,,,59,0
2070,note_on,0,0,4,,,,,,,,,0,,,62,0
2070,note_on,30,0,1,,,,,,,,,0,,,89,0
2070,note_on,0,0,1,,,,,,,,,0,,,83,60
2100,note_on,0,0,1,,,,,,,,,0,,,89,60
2100,note_on,30,0,1,,,,,,,,,0,,,83,0
2100,note_on,30,0,4,,,,,,,,,0,,,53,60
2130,note_on,0,0,1,,,,,,,,,0,,,83,60
2130,note_on,30,0,4,,,,,,,,,0,,,53,0
2130,note_on,30,0,1,,,,,,,,,0,,,89,0
2160,note_on,30,0,1,,,,,,,,,0,,,83,0
2160,note_on,0,0,1,,,,,,,,,0,,,84,60
2160,note_on,30,0,4,,,,,,,,,0,,,48,60
2190,note_on,30,0,1,,,,,,,,,0,,,84,0
2190,note_on,30,0,4,,,,,,,,,0,,,48,0
2220,note_on,30,0,4,,,,,,,,,0,,,60,60
2220,note_on,0,0,4,,,,,,,,,0,,,52,60
2220,note_on,0,0,4,,,,,,,,,0,,,55,60
2220,note_on,30,0,1,,,,,,,,,0,,,79,80
2250,note_on,30,0,4,,,,,,,,,0,,,52,0
2250,note_on,0,0,4,,,,,,,,,0,,,60,0
2250,note_on,0,0,4,,,,,,,,,0,,,55,0
2280,note_on,30,0,4,,,,,,,,,0,,,48,60
2310,note_on,30,0,4,,,,,,,,,0,,,48,0
2340,note_on,0,0,1,,,,,,,,,0,,,84,60
2340,note_on,30,0,4,,,,,,,,,0,,,60,60
2340,note_on,0,0,4,,,,,,,,,0,,,55,60
2340,note_on,0,0,4,,,,,,,,,0,,,52,60
2340,note_on,120,0,1,,,,,,,,,0,,,79,0
2370,note_on,30,0,1,,,,,,,,,0,,,84,0
2370,note_on,30,0,4,,,,,,,,,0,,,52,0
2370,note_on,0,0,4,,,,,,,,,0,,,55,0
2370,note_on,0,0,4,,,,,,,,,0,,,60,0
2400,note_on,30,0,4,,,,,,,,,0,,,48,60
2400,note_on,30,0,1,,,,,,,,,0,,,79,60
2430,note_on,30,0,1,,,,,,,,,0,,,79,0
2430,note_on,30,0,4,,,,,,,,,0,,,48,0
2460,note_on,30,0,4,,,,,,,,,0,,,60,60
2460,note_on,0,0,4,,,,,,,,,0,,,55,60
2460,note_on,0,0,4,,,,,,,,,0,,,52,60
2460,note_on,30,0,1,,,,,,,,,0,,,84,60
2490,note_on,30,0,4,,,,,,,,,0,,,52,0
2490,note_on,0,0,4,,,,,,,,,0,,,55,0
2490,note_on,0,0,4,,,,,,,,,0,,,60,0
2490,note_on,30,0,1,,,,,,,,,0,,,84,0
2520,note_on,30,0,1,,,,,,,,,0,,,82,80
2520,note_on,30,0,4,,,,,,,,,0,,,49,60
2550,note_on,30,0,4,,,,,,,,,0,,,49,0
2580,note_on,60,0,1,,,,,,,,,0,,,82,0
2580,note_on,0,0,1,,,,,,,,,0,,,80,60
2580,note_on,0,0,4,,,,,,,,,0,,,53,60
2580,note_on,30,0,4,,,,,,,,,0,,,61,60
2610,note_on,30,0,1,,,,,,,,,0,,,80,0
2610,note_on,0,0,1,,,,,,,,,0,,,79,60
2610,note_on,0,0,4,,,,,,,,,0,,,61,0
2610,note_on,30,0,4,,,,,,,,,0,,,53,0
2640,note_on,30,0,4,,,,,,,,,0,,,49,60
2640,note_on,0,0,1,,,,,,,,,0,,,77,60
2640,note_on,30,0,1,,,,,,,,,0,,,79,0
2670,note_on,30,0,1,,,,,,,,,0,,,77,0
2670,note_on,30,0,4,,,,,,,,,0,,,49,0
2700,note_on,30,0,1,,,,,,,,,0,,,79,60
2700,note_on,30,0,4,,,,,,,,,0,,,46,60
2730,note_on,0,0,1,,,,,,,,,0,,,82,60
2730,note_on,30,0,1,,,,,,,,,0,,,79,0
2760,note_on,0,0,4,,,,,,,,,0,,,58,60
2760,note_on,0,0,4,,,,,,,,,0,,,55,60
2760,note_on,60,0,4,,,,,,,,,0,,,46,0
2760,note_on,30,0,1,,,,,,,,,0,,,82,0
2760,note_on,0,0,1,,,,,,,,,0,,,79,60
2790,note_on,30,0,1,,,,,,,,,0,,,79,0
2790,note_on,0,0,1,,,,,,,,,0,,,82,60
2790,note_on,30,0,4,,,,,,,,,0,,,55,0
2790,note_on,0,0,4,,,,,,,,,0,,,58,0
2820,note_on,30,0,1,,,,,,,,,0,,,82,0
2820,note_on,0,0,1,,,,,,,,,0,,,76,60
2820,note_on,0,0,4,,,,,,,,,0,,,58,60
2820,note_on,30,0,4,,,,,,,,,0,,,48,60
2820,note_on,0,0,4,,,,,,,,,0,,,55,60
2850,note_on,0,0,4,,,,,,,,,0,,,48,0
2850,note_on,30,0,1,,,,,,,,,0,,,76,0
2850,note_on,0,0,1,,,,,,,,,0,,,79,60
2850,note_on,0,0,4,,,,,,,,,0,,,55,0
2850,note_on,30,0,4,,,,,,,,,0,,,58,0
2880,note_on,30,0,4,,,,,,,,,0,,,56,60
2880,note_on,0,0,1,,,,,,,,,0,,,77,60
2880,note_on,0,0,4,,,,,,,,,0,,,53,60
2880,note_on,30,0,1,,,,,,,,,0,,,79,0
2910,note_on,30,0,1,,,,,,,,,0,,,77,0
2910,note_on,30,0,4,,,,,,,,,0,,,53,0
2910,note_on,0,0,4,,,,,,,,,0,,,56,0
2940,note_on,30,0,1,,,,,,,,,0,,,65,100
2970,note_on,30,0,1,,,,,,,,,0,,,65,0
2970,note_on,0,0,1,,,,,,,,,0,,,67,100
3000,note_on,0,0,1,,,,,,,,,0,,,68,100
3000,note_on,30,0,1,,,,,,,,,0,,,67,0
3030,note_on,0,0,1,,,,,,,,,0,,,70,100
3030,note_on,30,0,1,,,,,,,,,0,,,68,0
3060,marker,3060,1,0,,,,,,,,,,,,,
3060,note_on,30,0,1,,,,,,,,,0,,,70,0
3060,note_on,0,0,1,,,,,,,,,0,,,72,120
3060,note_on,150,0,4,,,,,,,,,0,,,36,120
3090,note_on,30,0,4,,,,,,,,,0,,,36,0
3090,note_on,30,0,1,,,,,,,,,0,,,72,0
3120,note_on,30,0,4,,,,,,,,,0,,,48,100
3120,note_on,30,0,1,,,,,,,,,0,,,60,100
3150,note_on,30,0,4,,,,,,,,,0,,,48,0
3150,note_on,30,0,1,,,,,,,,,0,,,60,0
3180,note_on,30,0,4,,,,,,,,,0,,,36,120
3180,note_on,30,0,1,,,,,,,,,0,,,72,120
3210,note_on,30,0,4,,,,,,,,,0,,,36,0
3210,note_on,30,0,1,,,,,,,,,0,,,72,0
3240,note_on,30,0,1,,,,,,,,,0,,,60,100
3240,note_on,30,0,4,,,,,,,,,0,,,48,100
3270,note_on,30,0,4,,,,,,,,,0,,,48,0
3270,note_on,30,0,1,,,,,,,,,0,,,60,0
3300,note_on,30,0,1,,,,,,,,,0,,,72,120
3300,note_on,30,0,4,,,,,,,,,0,,,36,120
3330,note_on,30,0,4,,,,,,,,,0,,,36,0
3330,note_on,30,0,1,,,,,,,,,0,,,72,0
3360,note_on,30,0,4,,,,,,,,,0,,,48,100
3360,note_on,30,0,1,,,,,,,,,0,,,60,100
3390,note_on,30,0,4,,,,,,,,,0,,,48,0
3390,note_on,30,0,1,,,,,,,,,0,,,60,0
3420,note_on,30,0,4,,,,,,,,,0,,,36,60
3420,note_on,30,0,1,,,,,,,,,0,,,70,60
3420,note_on,0,0,1,,,,,,,,,0,,,67,60
3450,note_on,30,0,4,,,,,,,,,0,,,36,0
3450,note_on,30,0,1,,,,,,,,,0,,,67,0
3450,note_on,0,0,1,,,,,,,,,0,,,70,0
3480,note_on,30,0,1,,,,,,,,,0,,,68,60
3480,note_on,0,0,1,,,,,,,,,0,,,65,60
3480,note_on,30,0,4,,,,,,,,,0,,,48,60
3510,note_on,30,0,1,,,,,,,,,0,,,65,0
3510,note_on,0,0,1,,,,,,,,,0,,,67,60
3510,note_on,0,0,1,,,,,,,,,0,,,64,60
3510,note_on,0,0,1,,,,,,,,,0,,,68,0
3510,note_on,30,0,4,,,,,,,,,0,,,48,0
3540,note_on,30,0,4,,,,,,,,,0,,,36,60
3540,note_on,30,0,1,,,,,,,,,0,,,64,0
3540,note_on,0,0,1,,,,,,,,,0,,,67,0
3540,note_on,0,0,1,,,,,,,,,0,,,68,60
3540,note_on,0,0,1,,,,,,,,,0,,,65,60
3570,note_on,30,0,1,,,,,,,,,0,,,65,0
3570,note_on,0,0,1,,,,,,,,,0,,,68,0
3570,note_on,0,0,1,,,,,,,,,0,,,70,60
3570,note_on,0,0,1,,,,,,,,,0,,,67,60
3570,note_on,30,0,4,,,,,,,,,0,,,36,0
3600,note_on,30,0,4,,,,,,,,,0,,,48,60
3600,note_on,0,0,1,,,,,,,,,0,,,67,60
3600,note_on,30,0,1,,,,,,,,,0,,,67,0
3600,note_on,0,0,1,,,,,,,,,0,,,70,0
3600,note_on,0,0,1,,,,,,,,,0,,,64,60
3630,note_on,30,0,4,,,,,,,,,0,,,48,0
3660,note_on,30,0,4,,,,,,,,,0,,,36,60
3690,note_on,30,0,4,,,,,,,,,0,,,36,0
3720,note_on,30,0,4,,,,,,,,,0,,,48,60
3750,note_on,30,0,4,,,,,,,,,0,,,48,0
3780,note_on,0,0,1,,,,,,,,,0,,,72,100
3780,note_on,0,0,1,,,,,,,,,0,,,67,0
3780,note_on,180,0,1,,,,,,,,,0,,,64,0
3780,note_on,30,0,4,,,,,,,,,0,,,36,100
3810,note_on,30,0,4,,,,,,,,,0,,,36,0
3810,note_on,30,0,1,,,,,,,,,0,,,72,0
3840,note_on,30,0,4,,,,,,,,,0,,,48,100
3840,note_on,30,0,1,,,,,,,,,0,,,60,100
3870,note_on,30,0,1,,,,,,,,,0,,,60,0
3870,note_on,30,0,4,,,,,,,,,0,,,48,0
3900,note_on,30,0,4,,,,,,,,,0,,,36,100
3900,note_on,30,0,1,,,,,,,,,0,,,72,100
3960,note_on,60,0,4,,,,,,,,,0,,,36,0
3960,note_on,0,0,4,,,,,,,,,0,,,37,120
3960,note_on,60,0,1,,,,,,,,,0,,,72,0
3960,note_on,0,0,1,,,,,,,,,0,,,73,120
3990,note_on,30,0,4,,,,,,,,,0,,,37,0
3990,note_on,30,0,1,,,,,,,,,0,,,73,0
4020,note_on,30,0,1,,,,,,,,,0,,,61,100
4020,note_on,30,0,4,,,,,,,,,0,,,49,100
4050,note_on,30,0,4,,,,,,,,,0,,,49,0
4050,note_on,30,0,1,,,,,,,,,0,,,61,0
4080,note_on,30,0,4,,,,,,,,,0,,,37,100
4080,note_on,30,0,1,,,,,,,,,0,,,73,100
4110,note_on,30,0,4,,,,,,,,,0,,,37,0
4110,note_on,30,0,1,,,,,,,,,0,,,73,0
4140,note_on,30,0,4,,,,,,,,,0,,,36,60
4140,note_on,30,0,1,,,,,,,,,0,,,72,60
4140,note_on,0,0,1,,,,,,,,,0,,,68,60
4170,note_on,30,0,4,,,,,,,,,0,,,36,0
4170,note_on,0,0,1,,,,,,,,,0,,,67,60
4170,note_on,0,0,1,,,,,,,,,0,,,72,0
4170,note_on,30,0,1,,,,,,,,,0,,,68,0
4170,note_on,0,0,1,,,,,,,,,0,,,70,60
4200,note_on,30,0,1,,,,,,,,,0,,,67,0
4200,note_on,0,0,1,,,,,,,,,0,,,65,60
4200,note_on,30,0,4,,,,,,,,,0,,,48,60
4200,note_on,0,0,1,,,,,,,,,0,,,68,60
4200,note_on,0,0,1,,,,,,,,,0,,,70,0
4230,note_on,30,0,1,,,,,,,,,0,,,65,0
4230,note_on,0,0,1,,,,,,,,,0,,,70,60
4230,note_on,0,0,1,,,,,,,,,0,,,67,60
4230,note_on,30,0,4,,,,,,,,,0,,,48,0
4230,note_on,0,0,1,,,,,,,,,0,,,68,0
4260,note_on,30,0,1,,,,,,,,,0,,,67,0
4260,note_on,0,0,1,,,,,,,,,0,,,70,0
4260,note_on,0,0,1,,,,,,,,,0,,,68,60
4260,note_on,0,0,1,,,,,,,,,0,,,65,60
4260,note_on,30,0,4,,,,,,,,,0,,,36,60
4290,note_on,30,0,1,,,,,,,,,0,,,65,0
4290,note_on,30,0,4,,,,,,,,,0,,,36,0
4290,note_on,0,0,1,,,,,,,,,0,,,68,0
4290,note_on,0,0,1,,,,,,,,,0,,,67,60
4290,note_on,0,0,1,,,,,,,,,0,,,64,60
4320,note_on,30,0,1,,,,,,,,,0,,,64,0
4320,note_on,30,0,4,,,,,,,,,0,,,41,60
4320,note_on,0,0,1,,,,,,,,,0,,,65,60
4320,note_on,0,0,1,,,,,,,,,0,,,67,0
4350,note_on,30,0,1,,,,,,,,,0,,,65,0
4350,note_on,30,0,4,,,,,,,,,0,,,41,0
4380,note_on,30,0,1,,,,,,,,,0,,,77,100
4410,note_on,0,0,1,,,,,,,,,0,,,79,100
4410,note_on,30,0,1,,,,,,,,,0,,,77,0
4440,note_on,30,0,1,,,,,,,,,0,,,79,0
4440,note_on,0,0,1,,,,,,,,,0,,,80,100
4470,note_on,30,0,1,,,,,,,,,0,,,80,0
4470,note_on,0,0,1,,,,,,,,,0,,,82,100
4500,note_on,150,0,4,,,,,,,,,0,,,48,120
4500,note_on,0,0,1,,,,,,,,,0,,,84,120
4500,note_on,30,0,1,,,,,,,,,0,,,82,0
4530,note_on,30,0,4,,,,,,,,,0,,,48,0
4530,note_on,30,0,1,,,,,,,,,0,,,84,0
4560,note_on,30,0,1,,,,,,,,,0,,,72,100
4560,note_on,30,0,4,,,,,,,,,0,,,60,100
4590,note_on,30,0,4,,,,,,,,,0,,,60,0
4590,note_on,30,0,1,,,,,,,,,0,,,72,0
4620,note_on,30,0,1,,,,,,,,,0,,,84,120
4620,note_on,30,0,4,,,,,,,,,0,,,48,120
4650,note_on,30,0,4,,,,,,,,,0,,,48,0
4650,note_on,30,0,1,,,,,,,,,0,,,84,0
4680,note_on,30,0,4,,,,,,,,,0,,,60,100
4680,note_on,30,0,1,,,,,,,,,0,,,72,100
4710,note_on,30,0,1,,,,,,,,,0,,,72,0
4710,note_on,30,0,4,,,,,,,,,0,,,60,0
4740,note_on,30,0,4,,,,,,,,,0,,,48,120
4740,note_on,30,0,1,,,,,,,,,0,,,84,120
4770,note_on,30,0,4,,,,,,,,,0,,,48,0
4770,note_on,30,0,1,,,,,,,,,0,,,84,0
4800,note_on,30,0,1,,,,,,,,,0,,,72,100
4800,note_on,30,0,4,,,,,,,,,0,,,60,100
4830,note_on,30,0,4,,,,,,,,,0,,,60,0
4830,note_on,30,0,1,,,,,,,,,0,,,72,0
4860,note_on,30,0,4,,,,,,,,,0,,,48,60
4860,note_on,30,0,1,,,,,,,,,0,,,82,60
4860,note_on,0,0,1,,,,,,,,,0,,,79,60
4890,note_on,30,0,1,,,,,,,,,0,,,79,0
4890,note_on,0,0,1,,,,,,,,,0,,,82,0
4890,note_on,30,0,4,,,,,,,,,0,,,48,0
4920,note_on,30,0,4,,,,,,,,,0,,,60,60
4920,note_on,30,0,1,,,,,,,,,0,,,80,60
4920,note_on,0,0,1,,,,,,,,,0,,,77,60
4950,note_on,0,0,1,,,,,,,,,0,,,76,60
4950,note_on,0,0,1,,,,,,,,,0,,,80,0
4950,note_on,0,0,1,,,,,,,,,0,,,79,60
4950,note_on,30,0,1,,,,,,,,,0,,,77,0
4950,note_on,30,0,4,,,,,,,,,0,,,60,0
4980,note_on,0,0,1,,,,,,,,,0,,,80,60
4980,note_on,30,0,4,,,,,,,,,0,,,48,60
4980,note_on,30,0,1,,,,,,,,,0,,,76,0
4980,note_on,0,0,1,,,,,,,,,0,,,77,60
4980,note_on,0,0,1,,,,,,,,,0,,,79,0
5010,note_on,0,0,1,,,,,,,,,0,,,82,60
5010,note_on,0,0,1,,,,,,,,,0,,,80,0
5010,note_on,30,0,1,,,,,,,,,0,,,77,0
5010,note_on,0,0,1,,,,,,,,,0,,,79,60
5010,note_on,30,0,4,,,,,,,,,0,,,48,0
5040,note_on,0,0,1,,,,,,,,,0,,,82,0
5040,note_on,0,0,1,,,,,,,,,0,,,79,60
5040,note_on,30,0,1,,,,,,,,,0,,,79,0
5040,note_on,30,0,4,,,,,,,,,0,,,60,60
5040,note_on,0,0,1,,,,,,,,,0,,,76,60
5070,note_on,30,0,4,,,,,,,,,0,,,60,0
5100,note_on,30,0,4,,,,,,,,,0,,,48,60
5130,note_on,30,0,4,,,,,,,,,0,,,48,0
5160,note_on,30,0,4,,,,,,,,,0,,,60,60
5190,note_on,30,0,4,,,,,,,,,0,,,60,0
5220,note_on,180,0,1,,,,,,,,,0,,,76,0
5220,note_on,30,0,4,,,,,,,,,0,,,48,100
5220,note_on,0,0,1,,,,,,,,,0,,,84,100
5220,note_on,0,0,1,,,,,,,,,0,,,79,0
5250,note_on,30,0,1,,,,,,,,,0,,,84,0
5250,note_on,30,0,4,,,,,,,,,0,,,48,0
5280,note_on,30,0,4,,,,,,,,,0,,,60,100
5280,note_on,30,0,1,,,,,,,,,0,,,72,100
5310,note_on,30,0,1,,,,,,,,,0,,,72,0
5310,note_on,30,0,4,,,,,,,,,0,,,60,0
5340,note_on,30,0,1,,,,,,,,,0,,,84,100
5340,note_on,30,0,4,,,,,,,,,0,,,48,100
5400,note_on,60,0,1,,,,,,,,,0,,,84,0
5400,note_on,0,0,1,,,,,,,,,0,,,85,120
5400,note_on,60,0,4,,,,,,,,,0,,,48,0
5400,note_on,0,0,4,,,,,,,,,0,,,49,120
5430,note_on,30,0,4,,,,,,,,,0,,,49,0
5430,note_on,30,0,1,,,,,,,,,0,,,85,0
5460,note_on,30,0,1,,,,,,,,,0,,,73,100
5460,note_on,30,0,4,,,,,,,,,0,,,61,100
5490,note_on,30,0,4,,,,,,,,,0,,,61,0
5490,note_on,30,0,1,,,,,,,,,0,,,73,0
5520,note_on,30,0,1,,,,,,,,,0,,,85,100
5520,note_on,30,0,4,,,,,,,,,0,,,49,100
5550,note_on,30,0,1,,,,,,,,,0,,,85,0
5550,note_on,30,0,4,,,,,,,,,0,,,49,0
5580,note_on,30,0,1,,,,,,,,,0,,,73,60
5580,note_on,0,0,1,,,,,,,,,0,,,70,60
5580,note_on,30,0,4,,,,,,,,,0,,,49,60
5610,note_on,0,0,1,,,,,,,,,0,,,71,60
5610,note_on,30,0,1,,,,,,,,,0,,,70,0
5610,note_on,30,0,4,,,,,,,,,0,,,49,0
5610,note_on,0,0,1,,,,,,,,,0,,,68,60
5610,note_on,0,0,1,,,,,,,,,0,,,73,0
5640,note_on,30,0,4,,,,,,,,,0,,,61,60
5640,note_on,30,0,1,,,,,,,,,0,,,68,0
5640,note_on,0,0,1,,,,,,,,,0,,,71,0
5640,note_on,0,0,1,,,,,,,,,0,,,70,60
5640,note_on,0,0,1,,,,,,,,,0,,,66,60
5670,note_on,30,0,4,,,,,,,,,0,,,61,0
5670,note_on,0,0,1,,,,,,,,,0,,,68,60
5670,note_on,0,0,1,,,,,,,,,0,,,71,60
5670,note_on,30,0,1,,,,,,,,,0,,,66,0
5670,note_on,0,0,1,,,,,,,,,0,,,70,0
5700,note_on,30,0,1,,,,,,,,,0,,,68,0
5700,note_on,0,0,1,,,,,,,,,0,,,71,0
5700,note_on,0,0,1,,,,,,,,,0,,,70,60
5700,note_on,0,0,1,,,,,,,,,0,,,66,60
5700,note_on,30,0,4,,,,,,,,,0,,,49,60
5730,note_on,30,0,4,,,,,,,,,0,,,49,0
5730,note_on,0,0,1,,,,,,,,,0,,,65,60
5730,note_on,30,0,1,,,,,,,,,0,,,66,0
5730,note_on,0,0,1,,,,,,,,,0,,,70,0
5730,note_on,0,0,1,,,,,,,,,0,,,68,60
5760,note_on,30,0,1,,,,,,,,,0,,,65,0
5760,note_on,0,0,1,,,,,,,,,0,,,68,0
5760,note_on,0,0,1,,,,,,,,,0,,,70,60
5760,note_on,0,0,1,,,,,,,,,0,,,66,60
5760,note_on,30,0,4,,,,,,,,,0,,,61,60
5790,note_on,30,0,1,,,,,,,,,0,,,66,0
5790,note_on,0,0,1,,,,,,,,,0,,,70,0
5790,note_on,30,0,4,,,,,,,,,0,,,61,0
5820,note_on,30,0,4,,,,,,,,,0,,,49,60
5820,note_on,0,0,1,,,,,,,,,0,,,70,60
5820,note_on,30,0,1,,,,,,,,,0,,,66,60
5850,note_on,30,0,1,,,,,,,,,0,,,70,0
5850,note_on,0,0,1,,,,,,,,,0,,,66,0
5850,note_on,30,0,4,,,,,,,,,0,,,49,0
5880,note_on,0,0,1,,,,,,,,,0,,,70,60
5880,note_on,30,0,1,,,,,,,,,0,,,66,60
5880,note_on,30,0,4,,,,,,,,,0,,,61,60
5910,note_on,30,0,1,,,,,,,,,0,,,70,0
5910,note_on,0,0,1,,,,,,,,,0,,,66,0
5910,note_on,30,0,4,,,,,,,,,0,,,61,0
5940,note_on,30,0,1,,,,,,,,,0,,,71,60
5940,note_on,0,0,1,,,,,,,,,0,,,68,60
5940,note_on,0,0,1,,,,,,,,,0,,,65,60
5940,note_on,30,0,4,,,,,,,,,0,,,49,60
5970,note_on,30,0,1,,,,,,,,,0,,,65,0
5970,note_on,0,0,1,,,,,,,,,0,,,71,0
5970,note_on,0,0,1,,,,,,,,,0,,,68,0
5970,note_on,30,0,4,,,,,,,,,0,,,49,0
6000,note_on,0,0,1,,,,,,,,,0,,,65,67
6000,note_on,0,0,1,,,,,,,,,0,,,68,67
6000,note_on,30,0,1,,,,,,,,,0,,,71,67
6000,note_on,30,0,4,,,,,,,,,0,,,61,67
6030,note_on,30,0,4,,,,,,,,,0,,,61,0
6030,note_on,0,0,1,,,,,,,,,0,,,71,0
6030,note_on,0,0,1,,,,,,,,,0,,,68,0
6030,note_on,30,0,1,,,,,,,,,0,,,65,0
6060,note_on,0,0,1,,,,,,,,,0,,,65,74
6060,note_on,30,0,4,,,,,,,,,0,,,49,74
6060,note_on,30,0,1,,,,,,,,,0,,,71,74
6060,note_on,0,0,1,,,,,,,,,0,,,68,74
6090,note_on,0,0,1,,,,,,,,,0,,,68,0
6090,note_on,0,0,1,,,,,,,,,0,,,71,0
6090,note_on,30,0,4,,,,,,,,,0,,,49,0
6090,note_on,30,0,1,,,,,,,,,0,,,65,0
6120,note_on,30,0,1,,,,,,,,,0,,,83,82
6120,note_on,0,0,1,,,,,,,,,0,,,80,82
6120,note_on,30,0,4,,,,,,,,,0,,,61,82
6120,note_on,0,0,1,,,,,,,,,0,,,77,82
6150,note_on,30,0,1,,,,,,,,,0,,,77,0
6150,note_on,0,0,1,,,,,,,,,0,,,80,0
6150,note_on,30,0,4,,,,,,,,,0,,,61,0
6150,note_on,0,0,1,,,,,,,,,0,,,83,0
6180,note_on,0,0,1,,,,,,,,,0,,,77,89
6180,note_on,30,0,1,,,,,,,,,0,,,83,89
6180,note_on,0,0,1,,,,,,,,,0,,,80,89
6180,note_on,30,0,4,,,,,,,,,0,,,49,89
6210,note_on,0,0,1,,,,,,,,,0,,,83,0
6210,note_on,0,0,1,,,,,,,,,0,,,80,0
6210,note_on,30,0,1,,,,,,,,,0,,,77,0
6210,note_on,30,0,4,,,,,,,,,0,,,49,0
6240,note_on,30,0,4,,,,,,,,,0,,,61,97
6240,note_on,30,0,1,,,,,,,,,0,,,83,97
6240,note_on,0,0,1,,,,,,,,,0,,,80,97
6240,note_on,0,0,1,,,,,,,,,0,,,77,97
6270,note_on,30,0,4,,,,,,,,,0,,,61,0
6270,note_on,30,0,1,,,,,,,,,0,,,77,0
6270,note_on,0,0,1,,,,,,,,,0,,,80,0
6270,note_on,0,0,1,,,,,,,,,0,,,83,0
6300,note_on,30,0,4,,,,,,,,,0,,,48,100
6300,note_on,30,0,1,,,,,,,,,0,,,96,100
6300,note_on,0,0,1,,,,,,,,,0,,,92,100
6330,note_on,0,0,1,,,,,,,,,0,,,94,100
6330,note_on,0,0,1,,,,,,,,,0,,,96,0
6330,note_on,0,0,1,,,,,,,,,0,,,91,100
6330,note_on,30,0,4,,,,,,,,,0,,,48,0
6330,note_on,30,0,1,,,,,,,,,0,,,92,0
6360,note_on,0,0,1,,,,,,,,,0,,,89,100
6360,note_on,30,0,1,,,,,,,,,0,,,91,0
6360,note_on,30,0,4,,,,,,,,,0,,,60,100
6360,note_on,0,0,1,,,,,,,,,0,,,94,0
6360,note_on,0,0,1,,,,,,,,,0,,,92,100
6390,note_on,0,0,1,,,,,,,,,0,,,94,100
6390,note_on,0,0,1,,,,,,,,,0,,,91,100
6390,note_on,0,0,1,,,,,,,,,0,,,92,0
6390,note_on,30,0,1,,,,,,,,,0,,,89,0
6390,note_on,30,0,4,,,,,,,,,0,,,60,0
6420,note_on,0,0,1,,,,,,,,,0,,,92,100
6420,note_on,0,0,1,,,,,,,,,0,,,94,0
6420,note_on,30,0,1,,,,,,,,,0,,,91,0
6420,note_on,30,0,4,,,,,,,,,0,,,48,100
6420,note_on,0,0,1,,,,,,,,,0,,,89,100
6450,note_on,30,0,4,,,,,,,,,0,,,48,0
6450,note_on,0,0,1,,,,,,,,,0,,,91,100
6450,note_on,0,0,1,,,,,,,,,0,,,92,0
6450,note_on,0,0,1,,,,,,,,,0,,,88,100
6450,note_on,30,0,1,,,,,,,,,0,,,89,0
6480,note_on,0,0,1,,,,,,,,,0,,,89,100
6480,note_on,30,0,4,,,,,,,,,0,,,53,100
6480,note_on,30,0,1,,,,,,,,,0,,,88,0
6480,note_on,0,0,1,,,,,,,,,0,,,91,0
6510,note_on,30,0,1,,,,,,,,,0,,,89,0
6510,note_on,30,0,4,,,,,,,,,0,,,53,0
6540,note_on,30,0,1,,,,,,,,,0,,,65,100
6570,note_on,30,0,1,,,,,,,,,0,,,65,0
6570,note_on,0,0,1,,,,,,,,,0,,,67,100
6600,note_on,30,0,1,,,,,,,,,0,,,67,0
6600,note_on,0,0,1,,,,,,,,,0,,,68,100
6630,note_on,30,0,1,,,,,,,,,0,,,68,0
6630,note_on,0,0,1,,,,,,,,,0,,,70,100
6660,note_on,150,0,4,,,,,,,,,0,,,36,120
6660,note_on,30,0,1,,,,,,,,,0,,,70,0
6660,note_on,0,0,1,,,,,,,,,0,,,72,120
6690,note_on,30,0,1,,,,,,,,,0,,,72,0
6690,note_on,30,0,4,,,,,,,,,0,,,36,0
6720,note_on,30,0,1,,,,,,,,,0,,,60,100
6720,note_on,30,0,4,,,,,,,,,0,,,48,100
6750,note_on,30,0,4,,,,,,,,,0,,,48,0
6750,note_on,30,0,1,,,,,,,,,0,,,60,0
6780,note_on,30,0,1,,,,,,,,,0,,,72,120
6780,note_on,30,0,4,,,,,,,,,0,,,36,120
6810,note_on,30,0,4,,,,,,,,,0,,,36,0
6810,note_on,30,0,1,,,,,,,,,0,,,72,0
6840,note_on,30,0,1,,,,,,,,,0,,,60,100
6840,note_on,30,0,4,,,,,,,,,0,,,48,100
6870,note_on,30,0,1,,,,,,,,,0,,,60,0
6870,note_on,30,0,4,,,,,,,,,0,,,48,0
6900,note_on,30,0,1,,,,,,,,,0,,,72,120
6900,note_on,30,0,4,,,,,,,,,0,,,36,120
6930,note_on,30,0,4,,,,,,,,,0,,,36,0
6930,note_on,30,0,1,,,,,,,,,0,,,72,0
6960,note_on,30,0,1,,,,,,,,,0,,,60,100
6960,note_on,30,0,4,,,,,,,,,0,,,48,100
6990,note_on,30,0,4,,,,,,,,,0,,,48,0
6990,note_on,30,0,1,,,,,,,,,0,,,60,0
7020,note_on,30,0,4,,,,,,,,,0,,,36,60
7020,note_on,30,0,1,,,,,,,,,0,,,70,60
7020,note_on,0,0,1,,,,,,,,,0,,,67,60
7050,note_on,0,0,1,,,,,,,,,0,,,70,0
7050,note_on,30,0,4,,,,,,,,,0,,,36,0
7050,note_on,30,0,1,,,,,,,,,0,,,67,0
7080,note_on,30,0,4,,,,,,,,,0,,,48,60
7080,note_on,30,0,1,,,,,,,,,0,,,68,60
7080,note_on,0,0,1,,,,,,,,,0,,,65,60
7110,note_on,30,0,4,,,,,,,,,0,,,48,0
7110,note_on,30,0,1,,,,,,,,,0,,,65,0
7110,note_on,0,0,1,,,,,,,,,0,,,68,0
7110,note_on,0,0,1,,,,,,,,,0,,,67,60
7110,note_on,0,0,1,,,,,,,,,0,,,64,60
7140,note_on,0,0,1,,,,,,,,,0,,,67,0
7140,note_on,0,0,1,,,,,,,,,0,,,68,60
7140,note_on,0,0,1,,,,,,,,,0,,,65,60
7140,note_on,30,0,4,,,,,,,,,0,,,36,60
7140,note_on,30,0,1,,,,,,,,,0,,,64,0
7170,note_on,0,0,1,,,,,,,,,0,,,68,0
7170,note_on,0,0,1,,,,,,,,,0,,,70,60
7170,note_on,0,0,1,,,,,,,,,0,,,67,60
7170,note_on,30,0,4,,,,,,,,,0,,,36,0
7170,note_on,30,0,1,,,,,,,,,0,,,65,0
7200,note_on,0,0,1,,,,,,,,,0,,,70,0
7200,note_on,30,0,4,,,,,,,,,0,,,48,60
7200,note_on,30,0,1,,,,,,,,,0,,,67,0
7200,note_on,0,0,1,,,,,,,,,0,,,67,60
7200,note_on,0,0,1,,,,,,,,,0,,,64,60
7230,note_on,30,0,4,,,,,,,,,0,,,48,0
7260,note_on,30,0,4,,,,,,,,,0,,,36,60
7290,note_on,30,0,4,,,,,,,,,0,,,36,0
7320,note_on,30,0,4,,,,,,,,,0,,,48,60
7350,note_on,30,0,4,,,,,,,,,0,,,48,0
7380,note_on,0,0,1,,,,,,,,,0,,,67,0
7380,note_on,0,0,1,,,,,,,,,0,,,72,100
7380,note_on,30,0,4,,,,,,,,,0,,,36,100
7380,note_on,180,0,1,,,,,,,,,0,,,64,0
7410,note_on,30,0,4,,,,,,,,,0,,,36,0
7410,note_on,30,0,1,,,,,,,,,0,,,72,0
7440,note_on,30,0,1,,,,,,,,,0,,,60,100
7440,note_on,30,0,4,,,,,,,,,0,,,48,100
7470,note_on,30,0,1,,,,,,,,,0,,,60,0
7470,note_on,30,0,4,,,,,,,,,0,,,48,0
7500,note_on,30,0,1,,,,,,,,,0,,,72,100
7500,note_on,30,0,4,,,,,,,,,0,,,36,100
7560,note_on,0,0,1,,,,,,,,,0,,,73,120
7560,note_on,60,0,1,,,,,,,,,0,,,72,0
7560,note_on,60,0,4,,,,,,,,,0,,,36,0
7560,note_on,0,0,4,,,,,,,,,0,,,37,120
7590,note_on,30,0,4,,,,,,,,,0,,,37,0
7590,note_on,30,0,1,,,,,,,,,0,,,73,0
7620,note_on,30,0,4,,,,,,,,,0,,,49,100
7620,note_on,30,0,1,,,,,,,,,0,,,61,100
7650,note_on,30,0,4,,,,,,,,,0,,,49,0
7650,note_on,30,0,1,,,,,,,,,0,,,61,0
7680,note_on,30,0,4,,,,,,,,,0,,,37,100
7680,note_on,30,0,1,,,,,,,,,0,,,73,100
7710,note_on,30,0,1,,,,,,,,,0,,,73,0
7710,note_on,30,0,4,,,,,,,,,0,,,37,0
7740,note_on,0,0,1,,,,,,,,,0,,,68,60
7740,note_on,30,0,1,,,,,,,,,0,,,72,60
7740,note_on,30,0,4,,,,,,,,,0,,,36,60
7770,note_on,30,0,1,,,,,,,,,0,,,68,0
7770,note_on,0,0,1,,,,,,,,,0,,,67,60
7770,note_on,0,0,1,,,,,,,,,0,,,70,60
7770,note_on,0,0,1,,,,,,,,,0,,,72,0
7770,note_on,30,0,4,,,,,,,,,0,,,36,0
7800,note_on,0,0,1,,,,,,,,,0,,,65,60
7800,note_on,0,0,1,,,,,,,,,0,,,68,60
7800,note_on,0,0,1,,,,,,,,,0,,,70,0
7800,note_on,30,0,1,,,,,,,,,0,,,67,0
7800,note_on,30,0,4,,,,,,,,,0,,,48,60
7830,note_on,30,0,4,,,,,,,,,0,,,48,0
7830,note_on,0,0,1,,,,,,,,,0,,,67,60
7830,note_on,0,0,1,,,,,,,,,0,,,70,60
7830,note_on,30,0,1,,,,,,,,,0,,,65,0
7830,note_on,0,0,1,,,,,,,,,0,,,68,0
7860,note_on,0,0,1,,,,,,,,,0,,,68,60
7860,note_on,0,0,1,,,,,,,,,0,,,65,60
7860,note_on,30,0,1,,,,,,,,,0,,,67,0
7860,note_on,30,0,4,,,,,,,,,0,,,36,60
7860,note_on,0,0,1,,,,,,,,,0,,,70,0
7890,note_on,30,0,1,,,,,,,,,0,,,65,0
7890,note_on,0,0,1,,,,,,,,,0,,,67,60
7890,note_on,0,0,1,,,,,,,,,0,,,68,0
7890,note_on,30,0,4,,,,,,,,,0,,,36,0
7890,note_on,0,0,1,,,,,,,,,0,,,64,60
7920,note_on,0,0,1,,,,,,,,,0,,,67,0
7920,note_on,0,0,1,,,,,,,,,0,,,65,60
7920,note_on,30,0,4,,,,,,,,,0,,,41,60
7920,note_on,30,0,1,,,,,,,,,0,,,64,0
7950,note_on,30,0,1,,,,,,,,,0,,,65,0
7950,note_on,30,0,4,,,,,,,,,0,,,41,0
7980,note_on,30,0,1,,,,,,,,,0,,,77,100
8010,note_on,30,0,1,,,,,,,,,0,,,77,0
8010,note_on,0,0,1,,,,,,,,,0,,,79,100
8040,note_on,30,0,1,,,,,,,,,0,,,79,0
8040,note_on,0,0,1,,,,,,,,,0,,,80,100
8070,note_on,30,0,1,,,,,,,,,0,,,80,0
8070,note_on,0,0,1,,,,,,,,,0,,,82,100
8100,note_on,150,0,4,,,,,,,,,0,,,48,120
8100,note_on,30,0,1,,,,,,,,,0,,,82,0
8100,note_on,0,0,1,,,,,,,,,0,,,84,120
8130,note_on,30,0,4,,,,,,,,,0,,,48,0
8130,note_on,30,0,1,,,,,,,,,0,,,84,0
8160,note_on,30,0,4,,,,,,,,,0,,,60,100
8160,note_on,30,0,1,,,,,,,,,0,,,72,100
8190,note_on,30,0,4,,,,,,,,,0,,,60,0
8190,note_on,30,0,1,,,,,,,,,0,,,72,0
8220,note_on,30,0,4,,,,,,,,,0,,,48,120
8220,note_on,30,0,1,,,,,,,,,0,,,84,120
8250,note_on,30,0,1,,,,,,,,,0,,,84,0
8250,note_on,30,0,4,,,,,,,,,0,,,48,0
8280,note_on,30,0,1,,,,,,,,,0,,,72,100
8280,note_on,30,0,4,,,,,,,,,0,,,60,100
8310,note_on,30,0,1,,,,,,,,,0,,,72,0
8310,note_on,30,0,4,,,,,,,,,0,,,60,0
8340,note_on,30,0,1,,,,,,,,,0,,,84,120
8340,note_on,30,0,4,,,,,,,,,0,,,48,120
8370,note_on,30,0,4,,,,,,,,,0,,,48,0
8370,note_on,30,0,1,,,,,,,,,0,,,84,0
8400,note_on,30,0,4,,,,,,,,,0,,,60,100
8400,note_on,30,0,1,,,,,,,,,0,,,72,100
8430,note_on,30,0,4,,,,,,,,,0,,,60,0
8430,note_on,30,0,1,,,,,,,,,0,,,72,0
8460,note_on,30,0,4,,,,,,,,,0,,,48,60
8460,note_on,30,0,1,,,,,,,,,0,,,82,60
8460,note_on,0,0,1,,,,,,,,,0,,,79,60
8490,note_on,30,0,1,,,,,,,,,0,,,79,0
8490,note_on,0,0,1,,,,,,,,,0,,,82,0
8490,note_on,30,0,4,,,,,,,,,0,,,48,0
8520,note_on,0,0,1,,,,,,,,,0,,,77,60
8520,note_on,30,0,1,,,,,,,,,0,,,80,60
8520,note_on,30,0,4,,,,,,,,,0,,,60,60
8550,note_on,30,0,4,,,,,,,,,0,,,60,0
8550,note_on,0,0,1,,,,,,,,,0,,,76,60
8550,note_on,0,0,1,,,,,,,,,0,,,79,60
8550,note_on,0,0,1,,,,,,,,,0,,,80,0
8550,note_on,30,0,1,,,,,,,,,0,,,77,0
8580,note_on,30,0,4,,,,,,,,,0,,,48,60
8580,note_on,0,0,1,,,,,,,,,0,,,77,60
8580,note_on,0,0,1,,,,,,,,,0,,,80,60
8580,note_on,0,0,1,,,,,,,,,0,,,79,0
8580,note_on,30,0,1,,,,,,,,,0,,,76,0
8610,note_on,0,0,1,,,,,,,,,0,,,79,60
8610,note_on,30,0,4,,,,,,,,,0,,,48,0
8610,note_on,0,0,1,,,,,,,,,0,,,82,60
8610,note_on,30,0,1,,,,,,,,,0,,,77,0
8610,note_on,0,0,1,,,,,,,,,0,,,80,0
8640,note_on,0,0,1,,,,,,,,,0,,,76,60
8640,note_on,30,0,4,,,,,,,,,0,,,60,60
8640,note_on,0,0,1,,,,,,,,,0,,,82,0
8640,note_on,30,0,1,,,,,,,,,0,,,79,0
8640,note_on,0,0,1,,,,,,,,,0,,,79,60
8670,note_on,30,0,4,,,,,,,,,0,,,60,0
8700,note_on,30,0,4,,,,,,,,,0,,,48,60
8730,note_on,30,0,4,,,,,,,,,0,,,48,0
8760,note_on,30,0,4,,,,,,,,,0,,,60,60
8790,note_on,30,0,4,,,,,,,,,0,,,60,0
8820,note_on,30,0,4,,,,,,,,,0,,,48,100
8820,note_on,180,0,1,,,,,,,,,0,,,76,0
8820,note_on,0,0,1,,,,,,,,,0,,,84,100
8820,note_on,0,0,1,,,,,,,,,0,,,79,0
8850,note_on,30,0,4,,,,,,,,,0,,,48,0
8850,note_on,30,0,1,,,,,,,,,0,,,84,0
8880,note_on,30,0,1,,,,,,,,,0,,,72,100
8880,note_on,30,0,4,,,,,,,,,0,,,60,100
8910,note_on,30,0,1,,,,,,,,,0,,,72,0
8910,note_on,30,0,4,,,,,,,,,0,,,60,0
8940,note_on,30,0,1,,,,,,,,,0,,,84,100
8940,note_on,30,0,4,,,,,,,,,0,,,48,100
9000,note_on,0,0,1,,,,,,,,,0,,,85,120
9000,note_on,60,0,4,,,,,,,,,0,,,48,0
9000,note_on,0,0,4,,,,,,,,,0,,,49,120
9000,note_on,60,0,1,,,,,,,,,0,,,84,0
9030,note_on,30,0,4,,,,,,,,,0,,,49,0
9030,note_on,30,0,1,,,,,,,,,0,,,85,0
9060,note_on,30,0,4,,,,,,,,,0,,,61,100
9060,note_on,30,0,1,,,,,,,,,0,,,73,100
9090,note_on,30,0,1,,,,,,,,,0,,,73,0
9090,note_on,30,0,4,,,,,,,,,0,,,61,0
9120,note_on,30,0,1,,,,,,,,,0,,,85,100
9120,note_on,30,0,4,,,,,,,,,0,,,49,100
9150,note_on,30,0,4,,,,,,,,,0,,,49,0
9150,note_on,30,0,1,,,,,,,,,0,,,85,0
9180,note_on,30,0,4,,,,,,,,,0,,,49,60
9180,note_on,30,0,1,,,,,,,,,0,,,73,60
9180,note_on,0,0,1,,,,,,,,,0,,,70,60
9210,note_on,0,0,1,,,,,,,,,0,,,73,0
9210,note_on,0,0,1,,,,,,,,,0,,,71,60
9210,note_on,0,0,1,,,,,,,,,0,,,68,60
9210,note_on,30,0,4,,,,,,,,,0,,,49,0
9210,note_on,30,0,1,,,,,,,,,0,,,70,0
9240,note_on,30,0,4,,,,,,,,,0,,,61,60
9240,note_on,0,0,1,,,,,,,,,0,,,71,0
9240,note_on,0,0,1,,,,,,,,,0,,,66,60
9240,note_on,0,0,1,,,,,,,,,0,,,70,60
9240,note_on,30,0,1,,,,,,,,,0,,,68,0
9270,note_on,0,0,1,,,,,,,,,0,,,71,60
9270,note_on,0,0,1,,,,,,,,,0,,,68,60
9270,note_on,30,0,4,,,,,,,,,0,,,61,0
9270,note_on,30,0,1,,,,,,,,,0,,,66,0
9270,note_on,0,0,1,,,,,,,,,0,,,70,0
9300,note_on,30,0,4,,,,,,,,,0,,,49,60
9300,note_on,0,0,1,,,,,,,,,0,,,71,0
9300,note_on,30,0,1,,,,,,,,,0,,,68,0
9300,note_on,0,0,1,,,,,,,,,0,,,70,60
9300,note_on,0,0,1,,,,,,,,,0,,,66,60
9330,note_on,30,0,1,,,,,,,,,0,,,66,0
9330,note_on,0,0,1,,,,,,,,,0,,,70,0
9330,note_on,0,0,1,,,,,,,,,0,,,68,60
9330,note_on,0,0,1,,,,,,,,,0,,,65,60
9330,note_on,30,0,4,,,,,,,,,0,,,49,0
9360,note_on,0,0,1,,,,,,,,,0,,,70,60
9360,note_on,30,0,4,,,,,,,,,0,,,61,60
9360,note_on,30,0,1,,,,,,,,,0,,,65,0
9360,note_on,0,0,1,,,,,,,,,0,,,68,0
9360,note_on,0,0,1,,,,,,,,,0,,,66,60
9390,note_on,30,0,4,,,,,,,,,0,,,61,0
9390,note_on,0,0,1,,,,,,,,,0,,,70,0
9390,note_on,30,0,1,,,,,,,,,0,,,66,0
9420,note_on,0,0,1,,,,,,,,,0,,,70,60
9420,note_on,30,0,1,,,,,,,,,0,,,66,60
9420,note_on,30,0,4,,,,,,,,,0,,,49,60
9450,note_on,30,0,1,,,,,,,,,0,,,70,0
9450,note_on,30,0,4,,,,,,,,,0,,,49,0
9450,note_on,0,0,1,,,,,,,,,0,,,66,0
9480,note_on,30,0,1,,,,,,,,,0,,,66,60
9480,note_on,0,0,1,,,,,,,,,0,,,70,60
9480,note_on,30,0,4,,,,,,,,,0,,,61,60
9510,note_on,30,0,4,,,,,,,,,0,,,61,0
9510,note_on,30,0,1,,,,,,,,,0,,,70,0
9510,note_on,0,0,1,,,,,,,,,0,,,66,0
9540,note_on,30,0,4,,,,,,,,,0,,,49,60
9540,note_on,0,0,1,,,,,,,,,0,,,65,60
9540,note_on,0,0,1,,,,,,,,,0,,,68,60
9540,note_on,30,0,1,,,,,,,,,0,,,71,60
9570,note_on,0,0,1,,,,,,,,,0,,,71,0
9570,note_on,0,0,1,,,,,,,,,0,,,68,0
9570,note_on,30,0,1,,,,,,,,,0,,,65,0
9570,note_on,30,0,4,,,,,,,,,0,,,49,0
9600,note_on,30,0,4,,,,,,,,,0,,,61,67
9600,note_on,30,0,1,,,,,,,,,0,,,71,67
9600,note_on,0,0,1,,,,,,,,,0,,,68,67
9600,note_on,0,0,1,,,,,,,,,0,,,65,67
9630,note_on,30,0,1,,,,,,,,,0,,,65,0
9630,note_on,30,0,4,,,,,,,,,0,,,61,0
9630,note_on,0,0,1,,,,,,,,,0,,,68,0
9630,note_on,0,0,1,,,,,,,,,0,,,71,0
9660,note_on,0,0,1,,,,,,,,,0,,,65,74
9660,note_on,0,0,1,,,,,,,,,0,,,68,74
9660,note_on,30,0,4,,,,,,,,,0,,,49,74
9660,note_on,30,0,1,,,,,,,,,0,,,71,74
9690,note_on,30,0,4,,,,,,,,,0,,,49,0
9690,note_on,0,0,1,,,,,,,,,0,,,68,0
9690,note_on,30,0,1,,,,,,,,,0,,,65,0
9690,note_on,0,0,1,,,,,,,,,0,,,71,0
9720,note_on,0,0,1,,,,,,,,,0,,,77,82
9720,note_on,0,0,1,,,,,,,,,0,,,80,82
9720,note_on,30,0,4,,,,,,,,,0,,,61,82
9720,note_on,30,0,1,,,,,,,,,0,,,83,82
9750,note_on,30,0,1,,,,,,,,,0,,,77,0
9750,note_on,0,0,1,,,,,,,,,0,,,80,0
9750,note_on,0,0,1,,,,,,,,,0,,,83,0
9750,note_on,30,0,4,,,,,,,,,0,,,61,0
9780,note_on,30,0,4,,,,,,,,,0,,,49,89
9780,note_on,30,0,1,,,,,,,,,0,,,83,89
9780,note_on,0,0,1,,,,,,,,,0,,,77,89
9780,note_on,0,0,1,,,,,,,,,0,,,80,89
9810,note_on,30,0,4,,,,,,,,,0,,,49,0
9810,note_on,30,0,1,,,,,,,,,0,,,77,0
9810,note_on,0,0,1,,,,,,,,,0,,,80,0
9810,note_on,0,0,1,,,,,,,,,0,,,83,0
9840,note_on,0,0,1,,,,,,,,,0,,,77,97
9840,note_on,30,0,1,,,,,,,,,0,,,83,97
9840,note_on,0,0,1,,,,,,,,,0,,,80,97
9840,note_on,30,0,4,,,,,,,,,0,,,61,97
9870,note_on,30,0,1,,,,,,,,,0,,,77,0
9870,note_on,0,0,1,,,,,,,,,0,,,80,0
9870,note_on,0,0,1,,,,,,,,,0,,,83,0
9870,note_on,30,0,4,,,,,,,,,0,,,61,0
9900,note_on,0,0,1,,,,,,,,,0,,,92,100
9900,note_on,30,0,1,,,,,,,,,0,,,96,100
9900,note_on,30,0,4,,,,,,,,,0,,,48,100
9930,note_on,30,0,4,,,,,,,,,0,,,48,0
9930,note_on,30,0,1,,,,,,,,,0,,,92,0
9930,note_on,0,0,1,,,,,,,,,0,,,96,0
9930,note_on,0,0,1,,,,,,,,,0,,,94,100
9930,note_on,0,0,1,,,,,,,,,0,,,91,100
9960,note_on,30,0,4,,,,,,,,,0,,,60,100
9960,note_on,30,0,1,,,,,,,,,0,,,91,0
9960,note_on,0,0,1,,,,,,,,,0,,,94,0
9960,note_on,0,0,1,,,,,,,,,0,,,92,100
9960,note_on,0,0,1,,,,,,,,,0,,,89,100
9990,note_on,0,0,1,,,,,,,,,0,,,91,100
9990,note_on,0,0,1,,,,,,,,,0,,,94,100
9990,note_on,0,0,1,,,,,,,,,0,,,92,0
9990,note_on,30,0,1,,,,,,,,,0,,,89,0
9990,note_on,30,0,4,,,,,,,,,0,,,60,0
10020,note_on,0,0,1,,,,,,,,,0,,,94,0
10020,note_on,30,0,1,,,,,,,,,0,,,91,0
10020,note_on,0,0,1,,,,,,,,,0,,,89,100
10020,note_on,0,0,1,,,,,,,,,0,,,92,100
10020,note_on,30,0,4,,,,,,,,,0,,,48,100
10050,note_on,30,0,1,,,,,,,,,0,,,89,0
10050,note_on,30,0,4,,,,,,,,,0,,,48,0
10050,note_on,0,0,1,,,,,,,,,0,,,88,100
10050,note_on,0,0,1,,,,,,,,,0,,,91,100
10050,note_on,0,0,1,,,,,,,,,0,,,92,0
10080,note_on,0,0,1,,,,,,,,,0,,,91,0
10080,note_on,30,0,1,,,,,,,,,0,,,88,0
10080,note_on,0,0,1,,,,,,,,,0,,,89,100
10080,marker,7020,1,0,,,,,,,,,,,,,
10080,note_on,30,0,4,,,,,,,,,0,,,53,100
10110,note_on,30,0,4,,,,,,,,,0,,,53,0
10110,note_on,30,0,1,,,,,,,,,0,,,89,0
10140,note_on,0,0,4,,,,,,,,,0,,,53,120
10140,note_on,0,0,4,,,,,,,,,0,,,58,120
10140,note_on,30,0,1,,,,,,,,,0,,,91,100
10140,note_on,30,0,4,,,,,,,,,0,,,64,120
10140,note_on,0,0,4,,,,,,,,,0,,,61,120
10140,control_change,10140,0,5,,,,,,,,,0,64,127,,
10160,note_on,20,0,1,,,,,,,,,0,,,91,0
10160,note_on,0,0,1,,,,,,,,,0,,,92,100
10180,note_on,20,0,1,,,,,,,,,0,,,92,0
10180,note_on,0,0,1,,,,,,,,,0,,,91,100
10200,note_on,20,0,1,,,,,,,,,0,,,91,0
10200,note_on,0,0,1,,,,,,,,,0,,,92,100
10215,note_on,0,0,1,,,,,,,,,0,,,91,100
10215,note_on,15,0,1,,,,,,,,,0,,,92,0
10230,note_on,15,0,1,,,,,,,,,0,,,91,0
10230,note_on,0,0,1,,,,,,,,,0,,,92,100
10245,note_on,15,0,1,,,,,,,,,0,,,92,0
10245,note_on,0,0,1,,,,,,,,,0,,,91,100
10260,note_on,15,0,1,,,,,,,,,0,,,91,0
10260,note_on,0,0,1,,,,,,,,,0,,,92,100
10275,note_on,15,0,1,,,,,,,,,0,,,92,0
10275,note_on,0,0,1,,,,,,,,,0,,,91,100
10290,note_on,15,0,1,,,,,,,,,0,,,91,0
10290,note_on,0,0,1,,,,,,,,,0,,,92,100
10305,note_on,0,0,1,,,,,,,,,0,,,91,100
10305,note_on,15,0,1,,,,,,,,,0,,,92,0
10320,note_on,0,0,1,,,,,,,,,0,,,92,100
10320,note_on,15,0,1,,,,,,,,,0,,,91,0
10335,note_on,0,0,1,,,,,,,,,0,,,91,100
10335,note_on,15,0,1,,,,,,,,,0,,,92,0
10350,note_on,15,0,1,,,,,,,,,0,,,91,0
10350,note_on,0,0,1,,,,,,,,,0,,,90,100
10365,note_on,15,0,1,,,,,,,,,0,,,90,0
10365,note_on,0,0,1,,,,,,,,,0,,,91,100
10380,note_on,0,0,1,,,,,,,,,0,,,92,100
10380,note_on,15,0,1,,,,,,,,,0,,,91,0
10410,note_on,30,0,1,,,,,,,,,0,,,92,0
10410,note_on,0,0,1,,,,,,,,,0,,,91,100
10440,note_on,0,0,4,,,,,,,,,0,,,53,100
10440,note_on,0,0,4,,,,,,,,,0,,,56,100
10440,note_on,0,0,4,,,,,,,,,0,,,60,100
10440,note_on,0,0,4,,,,,,,,,0,,,65,100
10440,note_on,0,0,4,,,,,,,,,0,,,58,0
10440,note_on,0,0,1,,,,,,,,,0,,,89,100
10440,note_on,0,0,4,,,,,,,,,0,,,64,0
10440,note_on,30,0,1,,,,,,,,,0,,,91,0
10440,control_change,300,0,5,,,,,,,,,0,64,0,,
10440,note_on,300,0,4,,,,,,,,,0,,,53,0
10440,note_on,0,0,4,,,,,,,,,0,,,61,0
10470,note_on,30,0,1,,,,,,,,,0,,,89,0
10470,note_on,0,0,4,,,,,,,,,0,,,65,0
10470,note_on,0,0,4,,,,,,,,,0,,,56,0
10470,note_on,30,0,4,,,,,,,,,0,,,53,0
10470,note_on,0,0,4,,,,,,,,,0,,,60,0
10500,note_on,30,0,4,,,,,,,,,0,,,64,120
10500,note_on,0,0,4,,,,,,,,,0,,,58,120
10500,note_on,0,0,4,,,,,,,,,0,,,61,120
10500,note_on,30,0,1,,,,,,,,,0,,,79,100
10500,control_change,60,0,5,,,,,,,,,0,64,127,,
10500,note_on,0,0,4,,,,,,,,,0,,,53,120
10520,note_on,0,0,1,,,,,,,,,0,,,80,100
10520,note_on,20,0,1,,,,,,,,,0,,,79,0
10540,note_on,0,0,1,,,,,,,,,0,,,79,100
10540,note_on,20,0,1,,,,,,,,,0,,,80,0
10560,note_on,0,0,1,,,,,,,,,0,,,80,100
10560,note_on,20,0,1,,,,,,,,,0,,,79,0
10575,note_on,15,0,1,,,,,,,,,0,,,80,0
10575,note_on,0,0,1,,,,,,,,,0,,,79,100
10590,note_on,15,0,1,,,,,,,,,0,,,79,0
10590,note_on,0,0,1,,,,,,,,,0,,,80,100
10605,note_on,15,0,1,,,,,,,,,0,,,80,0
10605,note_on,0,0,1,,,,,,,,,0,,,79,100
10620,note_on,0,0,1,,,,,,,,,0,,,80,100
10620,note_on,15,0,1,,,,,,,,,0,,,79,0
10635,note_on,0,0,1,,,,,,,,,0,,,79,100
10635,note_on,15,0,1,,,,,,,,,0,,,80,0
10650,note_on,0,0,1,,,,,,,,,0,,,80,100
10650,note_on,15,0,1,,,,,,,,,0,,,79,0
10665,note_on,15,0,1,,,,,,,,,0,,,80,0
10665,note_on,0,0,1,,,,,,,,,0,,,79,100
10680,note_on,15,0,1,,,,,,,,,0,,,79,0
10680,note_on,0,0,1,,,,,,,,,0,,,80,100
10695,note_on,15,0,1,,,,,,,,,0,,,80,0
10695,note_on,0,0,1,,,,,,,,,0,,,79,100
10710,note_on,0,0,1,,,,,,,,,0,,,78,100
10710,note_on,15,0,1,,,,,,,,,0,,,79,0
10725,note_on,15,0,1,,,,,,,,,0,,,78,0
10725,note_on,0,0,1,,,,,,,,,0,,,79,100
10740,note_on,15,0,1,,,,,,,,,0,,,79,0
10740,note_on,0,0,1,,,,,,,,,0,,,80,100
10770,note_on,30,0,1,,,,,,,,,0,,,80,0
10770,note_on,0,0,1,,,,,,,,,0,,,79,100
10800,note_on,0,0,4,,,,,,,,,0,,,53,100
10800,control_change,300,0,5,,,,,,,,,0,64,0,,
10800,note_on,0,0,4,,,,,,,,,0,,,56,100
10800,note_on,0,0,4,,,,,,,,,0,,,58,0
10800,note_on,0,0,4,,,,,,,,,0,,,65,100
10800,note_on,0,0,1,,,,,,,,,0,,,77,100
10800,note_on,30,0,1,,,,,,,,,0,,,79,0
10800,note_on,300,0,4,,,,,,,,,0,,,53,0
10800,note_on,0,0,4,,,,,,,,,0,,,64,0
10800,note_on,0,0,4,,,,,,,,,0,,,61,0
10800,note_on,0,0,4,,,,,,,,,0,,,60,100
10830,note_on,30,0,1,,,,,,,,,0,,,77,0
10830,note_on,0,0,4,,,,,,,,,0,,,56,0
10830,note_on,0,0,4,,,,,,,,,0,,,60,0
10830,note_on,0,0,4,,,,,,,,,0,,,65,0
10830,note_on,30,0,4,,,,,,,,,0,,,53,0
10860,note_on,30,0,4,,,,,,,,,0,,,64,120
10860,note_on,0,0,4,,,,,,,,,0,,,53,120
10860,note_on,30,0,1,,,,,,,,,0,,,91,100
10860,control_change,60,0,5,,,,,,,,,0,64,127,,
10860,note_on,0,0,4,,,,,,,,,0,,,61,120
10860,note_on,0,0,4,,,,,,,,,0,,,58,120
10880,note_on,20,0,1,,,,,,,,,0,,,91,0
10880,note_on,0,0,1,,,,,,,,,0,,,92,100
10900,note_on,0,0,1,,,,,,,,,0,,,91,100
10900,note_on,20,0,1,,,,,,,,,0,,,92,0
10920,note_on,0,0,1,,,,,,,,,0,,,92,100
10920,note_on,20,0,1,,,,,,,,,0,,,91,0
10935,note_on,15,0,1,,,,,,,,,0,,,92,0
10935,note_on,0,0,1,,,,,,,,,0,,,91,100
10950,note_on,0,0,1,,,,,,,,,0,,,92,100
10950,note_on,15,0,1,,,,,,,,,0,,,91,0
10965,note_on,0,0,1,,,,,,,,,0,,,91,100
10965,note_on,15,0,1,,,,,,,,,0,,,92,0
10980,note_on,0,0,1,,,,,,,,,0,,,90,100
10980,note_on,15,0,1,,,,,,,,,0,,,91,0
10995,note_on,0,0,1,,,,,,,,,0,,,91,100
10995,note_on,15,0,1,,,,,,,,,0,,,90,0
11010,note_on,0,0,1,,,,,,,,,0,,,92,100
11010,note_on,15,0,1,,,,,,,,,0,,,91,0
11025,note_on,0,0,1,,,,,,,,,0,,,94,100
11025,note_on,15,0,1,,,,,,,,,0,,,92,0
11040,note_on,15,0,1,,,,,,,,,0,,,94,0
11040,note_on,0,0,1,,,,,,,,,0,,,96,100
11055,note_on,15,0,1,,,,,,,,,0,,,96,0
11055,note_on,0,0,1,,,,,,,,,0,,,97,100
11070,note_on,15,0,1,,,,,,,,,0,,,97,0
11070,note_on,0,0,1,,,,,,,,,0,,,100,100
11085,note_on,0,0,1,,,,,,,,,0,,,101,100
11085,note_on,15,0,1,,,,,,,,,0,,,100,0
11100,note_on,0,0,1,,,,,,,,,0,,,100,100
11100,note_on,15,0,1,,,,,,,,,0,,,101,0
11110,note_on,0,0,1,,,,,,,,,0,,,97,100
11110,note_on,10,0,1,,,,,,,,,0,,,100,0
11120,note_on,10,0,1,,,,,,,,,0,,,97,0
11120,note_on,0,0,1,,,,,,,,,0,,,96,100
11130,note_on,10,0,1,,,,,,,,,0,,,96,0
11130,note_on,0,0,1,,,,,,,,,0,,,94,100
11140,note_on,10,0,1,,,,,,,,,0,,,94,0
11140,note_on,0,0,1,,,,,,,,,0,,,92,100
11150,note_on,10,0,1,,,,,,,,,0,,,92,0
11150,note_on,0,0,1,,,,,,,,,0,,,91,100
11160,note_on,0,0,4,,,,,,,,,0,,,64,0
11160,note_on,300,0,4,,,,,,,,,0,,,53,0
11160,note_on,0,0,4,,,,,,,,,0,,,58,0
11160,note_on,10,0,1,,,,,,,,,0,,,91,0
11160,note_on,0,0,1,,,,,,,,,0,,,89,100
11160,note_on,0,0,4,,,,,,,,,0,,,65,100
11160,note_on,0,0,4,,,,,,,,,0,,,61,0
11160,note_on,0,0,4,,,,,,,,,0,,,56,100
11160,control_change,300,0,5,,,,,,,,,0,64,0,,
11160,note_on,0,0,4,,,,,,,,,0,,,60,100
11160,note_on,0,0,4,,,,,,,,,0,,,53,100
11190,note_on,30,0,4,,,,,,,,,0,,,53,0
11190,note_on,0,0,4,,,,,,,,,0,,,56,0
11190,note_on,30,0,1,,,,,,,,,0,,,89,0
11190,note_on,0,0,4,,,,,,,,,0,,,60,0
11190,note_on,0,0,4,,,,,,,,,0,,,65,0
11220,note_on,30,0,4,,,,,,,,,0,,,64,120
11220,control_change,60,0,5,,,,,,,,,0,64,127,,
11220,note_on,30,0,1,,,,,,,,,0,,,79,100
11220,note_on,0,0,4,,,,,,,,,0,,,58,120
11220,note_on,0,0,4,,,,,,,,,0,,,61,120
11220,note_on,0,0,4,,,,,,,,,0,,,53,120
11240,note_on,20,0,1,,,,,,,,,0,,,79,0
11240,note_on,0,0,1,,,,,,,,,0,,,80,100
11260,note_on,20,0,1,,,,,,,,,0,,,80,0
11260,note_on,0,0,1,,,,,,,,,0,,,79,100
11280,note_on,20,0,1,,,,,,,,,0,,,79,0
11280,note_on,0,0,1,,,,,,,,,0,,,80,100
11295,note_on,15,0,1,,,,,,,,,0,,,80,0
11295,note_on,0,0,1,,,,,,,,,0,,,79,100
11310,note_on,0,0,1,,,,,,,,,0,,,80,100
11310,note_on,15,0,1,,,,,,,,,0,,,79,0
11325,note_on,15,0,1,,,,,,,,,0,,,80,0
11325,note_on,0,0,1,,,,,,,,,0,,,79,100
11340,note_on,15,0,1,,,,,,,,,0,,,79,0
11340,note_on,0,0,1,,,,,,,,,0,,,77,100
11352,note_on,12,0,1,,,,,,,,,0,,,77,0
11352,note_on,0,0,1,,,,,,,,,0,,,79,100
11364,note_on,12,0,1,,,,,,,,,0,,,79,0
11364,note_on,0,0,1,,,,,,,,,0,,,80,100
11376,note_on,12,0,1,,,,,,,,,0,,,80,0
11376,note_on,0,0,1,,,,,,,,,0,,,82,100
11388,note_on,0,0,1,,,,,,,,,0,,,84,100
11388,note_on,12,0,1,,,,,,,,,0,,,82,0
11400,note_on,0,0,1,,,,,,,,,0,,,85,100
11400,note_on,12,0,1,,,,,,,,,0,,,84,0
11412,note_on,0,0,1,,,,,,,,,0,,,88,99
11412,note_on,12,0,1,,,,,,,,,0,,,85,0
11424,note_on,0,0,1,,,,,,,,,0,,,89,97
11424,note_on,12,0,1,,,,,,,,,0,,,88,0
11436,note_on,0,0,1,,,,,,,,,0,,,91,95
11436,note_on,12,0,1,,,,,,,,,0,,,89,0
11448,note_on,0,0,1,,,,,,,,,0,,,89,94
11448,note_on,12,0,1,,,,,,,,,0,,,91,0
11460,note_on,0,0,1,,,,,,,,,0,,,88,92
11460,note_on,12,0,1,,,,,,,,,0,,,89,0
11465,note_on,5,0,1,,,,,,,,,0,,,85,91
11471,note_on,6,0,1,,,,,,,,,0,,,88,0
11475,note_on,4,0,1,,,,,,,,,0,,,84,90
11476,note_on,1,0,1,,,,,,,,,0,,,85,0
11483,note_on,7,0,1,,,,,,,,,0,,,82,89
11486,note_on,3,0,1,,,,,,,,,0,,,84,0
11493,note_on,7,0,1,,,,,,,,,0,,,80,87
11494,note_on,1,0,1,,,,,,,,,0,,,82,0
11499,note_on,5,0,1,,,,,,,,,0,,,79,86
11504,note_on,5,0,1,,,,,,,,,0,,,80,0
11510,note_on,0,0,1,,,,,,,,,0,,,77,85
11510,note_on,6,0,1,,,,,,,,,0,,,79,0
11520,note_on,10,0,1,,,,,,,,,0,,,77,0
11520,note_on,0,0,1,,,,,,,,,0,,,76,83
11520,set_tempo,1440,1,0,,,,,,476228,,,,,,,
11520,control_change,300,0,5,,,,,,,,,0,64,0,,
11527,set_tempo,7,1,0,,,,,,484301,,,,,,,
11534,set_tempo,7,1,0,,,,,,492651,,,,,,,
11535,note_on,15,0,1,,,,,,,,,0,,,76,0
11535,note_on,0,0,1,,,,,,,,,0,,,73,81
11541,set_tempo,7,1,0,,,,,,501295,,,,,,,
11548,set_tempo,7,1,0,,,,,,510247,,,,,,,
11550,note_on,15,0,1,,,,,,,,,0,,,73,0
11550,note_on,0,0,1,,,,,,,,,0,,,72,79
11555,set_tempo,7,1,0,,,,,,519526,,,,,,,
11562,set_tempo,7,1,0,,,,,,529147,,,,,,,
11565,note_on,15,0,1,,,,,,,,,0,,,72,0
11565,note_on,0,0,1,,,,,,,,,0,,,70,77
11569,set_tempo,7,1,0,,,,,,540589,,,,,,,
11576,set_tempo,7,1,0,,,,,,551015,,,,,,,
11580,note_on,0,0,1,,,,,,,,,0,,,68,75
11580,note_on,15,0,1,,,,,,,,,0,,,70,0
11583,set_tempo,7,1,0,,,,,,561850,,,,,,,
11590,set_tempo,7,1,0,,,,,,573121,,,,,,,
11595,note_on,0,0,1,,,,,,,,,0,,,67,73
11595,note_on,15,0,1,,,,,,,,,0,,,68,0
11597,set_tempo,7,1,0,,,,,,584852,,,,,,,
11604,set_tempo,7,1,0,,,,,,597074,,,,,,,
11610,note_on,0,0,1,,,,,,,,,0,,,66,71
11610,note_on,15,0,1,,,,,,,,,0,,,67,0
11611,set_tempo,7,1,0,,,,,,611683,,,,,,,
11618,set_tempo,7,1,0,,,,,,625065,,,,,,,
11625,set_tempo,7,1,0,,,,,,639046,,,,,,,
11625,note_on,15,0,1,,,,,,,,,0,,,66,0
11625,note_on,0,0,1,,,,,,,,,0,,,67,68
11632,set_tempo,7,1,0,,,,,,653666,,,,,,,
11640,set_tempo,8,1,0,,,,,,668971,,,,,,,
11640,note_on,15,0,1,,,,,,,,,0,,,67,0
11640,note_on,0,0,1,,,,,,,,,0,,,68,66
11647,set_tempo,7,1,0,,,,,,685010,,,,,,,
11650,note_on,10,0,1,,,,,,,,,0,,,68,0
11650,note_on,0,0,1,,,,,,,,,0,,,69,65
11654,set_tempo,7,1,0,,,,,,704308,,,,,,,
11660,note_on,0,0,1,,,,,,,,,0,,,70,63
11660,note_on,10,0,1,,,,,,,,,0,,,69,0
11661,set_tempo,7,1,0,,,,,,722109,,,,,,,
11668,set_tempo,7,1,0,,,,,,740832,,,,,,,
11670,note_on,10,0,1,,,,,,,,,0,,,70,0
11670,note_on,0,0,1,,,,,,,,,0,,,71,62
11675,set_tempo,7,1,0,,,,,,760553,,,,,,,
11680,note_on,10,0,1,,,,,,,,,0,,,71,0
11680,note_on,0,0,1,,,,,,,,,0,,,72,61
11682,set_tempo,7,1,0,,,,,,781352,,,,,,,
11689,set_tempo,7,1,0,,,,,,803320,,,,,,,
11690,note_on,10,0,1,,,,,,,,,0,,,72,0
11690,note_on,0,0,1,,,,,,,,,0,,,73,60
11696,set_tempo,7,1,0,,,,,,829990,,,,,,,
11700,note_on,0,0,4,,,,,,,,,0,,,61,0
11700,note_on,0,0,4,,,,,,,,,0,,,58,0
11700,note_on,0,0,4,,,,,,,,,0,,,53,60
11700,note_on,0,0,4,,,,,,,,,0,,,64,0
11700,note_on,480,0,4,,,,,,,,,0,,,53,0
11700,set_tempo,4,1,0,,,,,,476190,,,,,,,
11700,note_on,10,0,1,,,,,,,,,0,,,73,0
11700,note_on,0,0,1,,,,,,,,,0,,,72,60
11730,note_on,30,0,4,,,,,,,,,0,,,53,0
11730,note_on,30,0,1,,,,,,,,,0,,,72,0
11760,note_on,30,0,4,,,,,,,,,0,,,65,60
11760,note_on,0,0,4,,,,,,,,,0,,,60,60
11760,note_on,0,0,4,,,,,,,,,0,,,56,60
11760,note_on,30,0,1,,,,,,,,,0,,,72,60
11790,note_on,30,0,1,,,,,,,,,0,,,72,0
11790,note_on,30,0,4,,,,,,,,,0,,,56,0
11790,note_on,0,0,4,,,,,,,,,0,,,65,0
11790,note_on,0,0,1,,,,,,,,,0,,,73,60
11790,note_on,0,0,4,,,,,,,,,0,,,60,0
11820,note_on,30,0,4,,,,,,,,,0,,,53,60
11820,note_on,0,0,1,,,,,,,,,0,,,72,60
11820,note_on,30,0,1,,,,,,,,,0,,,73,0
11850,note_on,30,0,1,,,,,,,,,0,,,72,0
11850,note_on,30,0,4,,,,,,,,,0,,,53,0
11865,note_on,15,0,1,,,,,,,,,0,,,73,60
11880,note_on,30,0,4,,,,,,,,,0,,,65,60
11880,note_on,0,0,4,,,,,,,,,0,,,60,60
11880,note_on,0,0,4,,,,,,,,,0,,,56,60
11880,note_on,0,0,1,,,,,,,,,0,,,72,60
11880,note_on,15,0,1,,,,,,,,,0,,,73,0
11910,note_on,0,0,4,,,,,,,,,0,,,60,0
11910,note_on,30,0,1,,,,,,,,,0,,,72,0
11910,note_on,30,0,4,,,,,,,,,0,,,56,0
11910,note_on,0,0,4,,,,,,,,,0,,,65,0
11940,note_on,30,0,1,,,,,,,,,0,,,72,60
11940,note_on,30,0,4,,,,,,,,,0,,,53,60
11970,note_on,30,0,4,,,,,,,,,0,,,53,0
11970,note_on,30,0,1,,,,,,,,,0,,,72,0
11970,note_on,0,0,1,,,,,,,,,0,,,73,60
12000,note_on,0,0,4,,,,,,,,,0,,,56,60
12000,note_on,30,0,4,,,,,,,,,0,,,65,60
12000,note_on,0,0,1,,,,,,,,,0,,,72,60
12000,note_on,30,0,1,,,,,,,,,0,,,73,0
12000,note_on,0,0,4,,,,,,,,,0,,,60,60
12030,note_on,30,0,4,,,,,,,,,0,,,56,0
12030,note_on,0,0,4,,,,,,,,,0,,,65,0
12030,note_on,30,0,1,,,,,,,,,0,,,72,0
12030,note_on,0,0,4,,,,,,,,,0,,,60,0
12060,note_on,30,0,4,,,,,,,,,0,,,53,60
12060,note_on,30,0,1,,,,,,,,,0,,,72,60
12090,note_on,30,0,4,,,,,,,,,0,,,53,0
12090,note_on,30,0,1,,,,,,,,,0,,,72,0
12090,note_on,0,0,1,,,,,,,,,0,,,71,60
12120,note_on,30,0,1,,,,,,,,,0,,,71,0
12120,note_on,0,0,1,,,,,,,,,0,,,71,60
12120,note_on,0,0,4,,,,,,,,,0,,,56,60
12120,note_on,30,0,4,,,,,,,,,0,,,62,60
12120,note_on,0,0,4,,,,,,,,,0,,,59,60
12150,note_on,30,0,1,,,,,,,,,0,,,71,0
12150,note_on,0,0,4,,,,,,,,,0,,,62,0
12150,note_on,0,0,4,,,,,,,,,0,,,59,0
12150,note_on,30,0,4,,,,,,,,,0,,,56,0
12150,note_on,0,0,1,,,,,,,,,0,,,74,60
12180,note_on,30,0,1,,,,,,,,,0,,,74,0
12180,note_on,30,0,4,,,,,,,,,0,,,53,60
12180,note_on,0,0,1,,,,,,,,,0,,,72,60
12210,note_on,30,0,1,,,,,,,,,0,,,72,0
12210,note_on,30,0,4,,,,,,,,,0,,,53,0
12210,note_on,0,0,1,,,,,,,,,0,,,70,60
12240,note_on,0,0,1,,,,,,,,,0,,,72,60
12240,note_on,30,0,4,,,,,,,,,0,,,48,60
12240,note_on,30,0,1,,,,,,,,,0,,,70,0
12270,note_on,30,0,1,,,,,,,,,0,,,72,0
12270,note_on,30,0,4,,,,,,,,,0,,,48,0
12300,note_on,0,0,4,,,,,,,,,0,,,55,60
12300,note_on,0,0,4,,,,,,,,,0,,,52,60
12300,note_on,30,0,1,,,,,,,,,0,,,67,80
12300,note_on,30,0,4,,,,,,,,,0,,,60,60
12330,note_on,0,0,4,,,,,,,,,0,,,55,0
12330,note_on,0,0,4,,,,,,,,,0,,,60,0
12330,note_on,30,0,4,,,,,,,,,0,,,52,0
12360,note_on,30,0,4,,,,,,,,,0,,,48,60
12390,note_on,30,0,4,,,,,,,,,0,,,48,0
12420,note_on,0,0,4,,,,,,,,,0,,,52,60
12420,note_on,30,0,4,,,,,,,,,0,,,60,60
12420,note_on,0,0,4,,,,,,,,,0,,,55,60
12420,note_on,0,0,1,,,,,,,,,0,,,72,60
12420,note_on,120,0,1,,,,,,,,,0,,,67,0
12450,note_on,30,0,1,,,,,,,,,0,,,72,0
12450,note_on,0,0,4,,,,,,,,,0,,,60,0
12450,note_on,30,0,4,,,,,,,,,0,,,52,0
12450,note_on,0,0,4,,,,,,,,,0,,,55,0
12480,note_on,30,0,1,,,,,,,,,0,,,67,60
12480,note_on,30,0,4,,,,,,,,,0,,,48,60
12510,note_on,30,0,4,,,,,,,,,0,,,48,0
12510,note_on,30,0,1,,,,,,,,,0,,,67,0
12540,note_on,0,0,4,,,,,,,,,0,,,52,60
12540,note_on,30,0,1,,,,,,,,,0,,,72,60
12540,note_on,30,0,4,,,,,,,,,0,,,60,60
12540,note_on,0,0,4,,,,,,,,,0,,,55,60
12570,note_on,30,0,4,,,,,,,,,0,,,52,0
12570,note_on,0,0,4,,,,,,,,,0,,,60,0
12570,note_on,0,0,4,,,,,,,,,0,,,55,0
12570,note_on,30,0,1,,,,,,,,,0,,,72,0
12600,note_on,30,0,4,,,,,,,,,0,,,49,60
12600,note_on,30,0,1,,,,,,,,,0,,,70,80
12630,note_on,30,0,4,,,,,,,,,0,,,49,0
12660,note_on,0,0,1,,,,,,,,,0,,,68,60
12660,note_on,30,0,4,,,,,,,,,0,,,61,60
12660,note_on,0,0,4,,,,,,,,,0,,,53,60
12660,note_on,60,0,1,,,,,,,,,0,,,70,0
12690,note_on,0,0,1,,,,,,,,,0,,,67,60
12690,note_on,30,0,4,,,,,,,,,0,,,53,0
12690,note_on,0,0,4,,,,,,,,,0,,,61,0
12690,note_on,30,0,1,,,,,,,,,0,,,68,0
12720,note_on,0,0,1,,,,,,,,,0,,,65,60
12720,note_on,30,0,1,,,,,,,,,0,,,67,0
12720,note_on,30,0,4,,,,,,,,,0,,,49,60
12750,note_on,30,0,1,,,,,,,,,0,,,65,0
12750,note_on,30,0,4,,,,,,,,,0,,,49,0
12780,note_on,30,0,4,,,,,,,,,0,,,46,60
12780,note_on,30,0,1,,,,,,,,,0,,,67,60
12810,note_on,0,0,1,,,,,,,,,0,,,70,60
12810,note_on,30,0,1,,,,,,,,,0,,,67,0
12840,note_on,60,0,4,,,,,,,,,0,,,46,0
12840,note_on,0,0,4,,,,,,,,,0,,,58,60
12840,note_on,0,0,4,,,,,,,,,0,,,55,60
12840,note_on,0,0,1,,,,,,,,,0,,,67,60
12840,note_on,30,0,1,,,,,,,,,0,,,70,0
12870,note_on,30,0,4,,,,,,,,,0,,,55,0
12870,note_on,0,0,4,,,,,,,,,0,,,58,0
12870,note_on,30,0,1,,,,,,,,,0,,,67,0
12870,note_on,0,0,1,,,,,,,,,0,,,70,60
12900,note_on,0,0,1,,,,,,,,,0,,,64,60
12900,note_on,30,0,1,,,,,,,,,0,,,70,0
12900,note_on,0,0,4,,,,,,,,,0,,,48,60
12900,note_on,30,0,4,,,,,,,,,0,,,58,60
12900,note_on,0,0,4,,,,,,,,,0,,,55,60
12930,note_on,0,0,4,,,,,,,,,0,,,55,0
12930,note_on,0,0,4,,,,,,,,,0,,,58,0
12930,note_on,30,0,1,,,,,,,,,0,,,64,0
12930,note_on,0,0,1,,,,,,,,,0,,,67,60
12930,note_on,30,0,4,,,,,,,,,0,,,48,0
12960,note_on,30,0,1,,,,,,,,,0,,,67,0
12960,note_on,30,0,4,,,,,,,,,0,,,56,60
12960,note_on,0,0,4,,,,,,,,,0,,,53,60
12960,note_on,0,0,1,,,,,,,,,0,,,65,60
12990,note_on,0,0,1,,,,,,,,,0,,,68,60
12990,note_on,30,0,1,,,,,,,,,0,,,65,0
13020,note_on,0,0,1,,,,,,,,,0,,,72,60
13020,note_on,30,0,1,,,,,,,,,0,,,68,0
13050,note_on,0,0,1,,,,,,,,,0,,,77,60
13050,note_on,30,0,1,,,,,,,,,0,,,72,0
13080,note_on,0,0,4,,,,,,,,,0,,,56,0
13080,note_on,120,0,4,,,,,,,,,0,,,53,0
13080,note_on,30,0,1,,,,,,,,,0,,,77,0
13080,note_on,0,0,1,,,,,,,,,0,,,80,60
13110,note_on,30,0,1,,,,,,,,,0,,,80,0
13110,note_on,0,0,1,,,,,,,,,0,,,82,60
13140,note_on,60,0,4,,,,,,,,,0,,,53,60
13140,note_on,30,0,1,,,,,,,,,0,,,82,0
13140,note_on,0,0,1,,,,,,,,,0,,,84,60
13170,note_on,30,0,4,,,,,,,,,0,,,53,0
13170,note_on,30,0,1,,,,,,,,,0,,,84,0
13200,note_on,30,0,1,,,,,,,,,0,,,84,60
13200,note_on,0,0,4,,,,,,,,,0,,,56,60
13200,note_on,0,0,4,,,,,,,,,0,,,60,60
13200,note_on,30,0,4,,,,,,,,,0,,,65,60
13230,note_on,0,0,4,,,,,,,,,0,,,60,0
13230,note_on,30,0,4,,,,,,,,,0,,,56,0
13230,note_on,0,0,4,,,,,,,,,0,,,65,0
13230,note_on,30,0,1,,,,,,,,,0,,,84,0
13230,note_on,0,0,1,,,,,,,,,0,,,85,60
13260,note_on,30,0,4,,,,,,,,,0,,,53,60
13260,note_on,30,0,1,,,,,,,,,0,,,85,0
13260,note_on,0,0,1,,,,,,,,,0,,,84,60
13290,note_on,30,0,1,,,,,,,,,0,,,84,0
13290,note_on,30,0,4,,,,,,,,,0,,,53,0
13305,note_on,15,0,1,,,,,,,,,0,,,85,60
13320,note_on,0,0,1,,,,,,,,,0,,,84,60
13320,note_on,15,0,1,,,,,,,,,0,,,85,0
13320,note_on,0,0,4,,,,,,,,,0,,,56,60
13320,note_on,0,0,4,,,,,,,,,0,,,60,60
13320,note_on,30,0,4,,,,,,,,,0,,,65,60
13350,note_on,30,0,1,,,,,,,,,0,,,84,0
13350,note_on,0,0,4,,,,,,,,,0,,,65,0
13350,note_on,0,0,4,,,,,,,,,0,,,60,0
13350,note_on,30,0,4,,,,,,,,,0,,,56,0
13380,note_on,30,0,1,,,,,,,,,0,,,84,60
13380,note_on,30,0,4,,,,,,,,,0,,,53,60
13410,note_on,0,0,1,,,,,,,,,0,,,85,60
13410,note_on,30,0,1,,,,,,,,,0,,,84,0
13410,note_on,30,0,4,,,,,,,,,0,,,53,0
13440,note_on,0,0,1,,,,,,,,,0,,,84,60
13440,note_on,30,0,1,,,,,,,,,0,,,85,0
13440,note_on,30,0,4,,,,,,,,,0,,,65,60
13440,note_on,0,0,4,,,,,,,,,0,,,60,60
13440,note_on,0,0,4,,,,,,,,,0,,,56,60
13470,note_on,30,0,4,,,,,,,,,0,,,56,0
13470,note_on,0,0,4,,,,,,,,,0,,,65,0
13470,note_on,0,0,4,,,,,,,,,0,,,60,0
13470,note_on,30,0,1,,,,,,,,,0,,,84,0
13500,note_on,30,0,1,,,,,,,,,0,,,84,60
13500,note_on,30,0,4,,,,,,,,,0,,,53,60
13530,note_on,30,0,1,,,,,,,,,0,,,84,0
13530,note_on,0,0,1,,,,,,,,,0,,,83,60
13530,note_on,30,0,4,,,,,,,,,0,,,53,0
13560,note_on,30,0,4,,,,,,,,,0,,,62,60
13560,note_on,0,0,4,,,,,,,,,0,,,59,60
13560,note_on,0,0,4,,,,,,,,,0,,,56,60
13560,note_on,30,0,1,,,,,,,,,0,,,83,0
13560,note_on,0,0,1,,,,,,,,,0,,,89,60
13590,note_on,0,0,1,,,,,,,,,0,,,83,60
13590,note_on,30,0,1,,,,,,,,,0,,,89,0
13590,note_on,30,0,4,,,,,,,,,0,,,56,0
13590,note_on,0,0,4,,,,,,,,,0,,,59,0
13590,note_on,0,0,4,,,,,,,,,0,,,62,0
13620,note_on,30,0,1,,,,,,,,,0,,,83,0
13620,note_on,30,0,4,,,,,,,,,0,,,53,60
13620,note_on,0,0,1,,,,,,,,,0,,,89,60
13650,note_on,30,0,4,,,,,,,,,0,,,53,0
13650,note_on,30,0,1,,,,,,,,,0,,,89,0
13650,note_on,0,0,1,,,,,,,,,0,,,83,60
13680,note_on,30,0,1,,,,,,,,,0,,,83,0
13680,note_on,0,0,1,,,,,,,,,0,,,84,60
13680,note_on,30,0,4,,,,,,,,,0,,,48,60
13710,note_on,30,0,1,,,,,,,,,0,,,84,0
13710,note_on,30,0,4,,,,,,,,,0,,,48,0
13740,note_on,30,0,1,,,,,,,,,0,,,79,80
13740,note_on,30,0,4,,,,,,,,,0,,,60,60
13740,note_on,0,0,4,,,,,,,,,0,,,55,60
13740,note_on,0,0,4,,,,,,,,,0,,,52,60
13770,note_on,30,0,4,,,,,,,,,0,,,52,0
13770,note_on,0,0,4,,,,,,,,,0,,,55,0
13770,note_on,0,0,4,,,,,,,,,0,,,60,0
13800,note_on,30,0,4,,,,,,,,,0,,,48,60
13830,note_on,30,0,4,,,,,,,,,0,,,48,0
13860,note_on,0,0,4,,,,,,,,,0,,,52,60
13860,note_on,120,0,1,,,,,,,,,0,,,79,0
13860,note_on,0,0,1,,,,,,,,,0,,,84,60
13860,note_on,0,0,4,,,,,,,,,0,,,55,60
13860,note_on,30,0,4,,,,,,,,,0,,,60,60
13890,note_on,0,0,4,,,,,,,,,0,,,60,0
13890,note_on,0,0,4,,,,,,,,,0,,,55,0
13890,note_on,30,0,1,,,,,,,,,0,,,84,0
13890,note_on,30,0,4,,,,,,,,,0,,,52,0
13920,note_on,30,0,1,,,,,,,,,0,,,79,60
13920,note_on,30,0,4,,,,,,,,,0,,,48,60
13950,note_on,30,0,1,,,,,,,,,0,,,79,0
13950,note_on,30,0,4,,,,,,,,,0,,,48,0
13980,note_on,0,0,4,,,,,,,,,0,,,52,60
13980,note_on,0,0,4,,,,,,,,,0,,,55,60
13980,note_on,30,0,1,,,,,,,,,0,,,84,60
13980,note_on,30,0,4,,,,,,,,,0,,,60,60
14010,note_on,0,0,4,,,,,,,,,0,,,55,0
14010,note_on,30,0,4,,,,,,,,,0,,,52,0
14010,note_on,30,0,1,,,,,,,,,0,,,84,0
14010,note_on,0,0,4,,,,,,,,,0,,,60,0
14040,note_on,30,0,4,,,,,,,,,0,,,49,60
14040,note_on,30,0,1,,,,,,,,,0,,,82,80
14070,note_on,30,0,4,,,,,,,,,0,,,49,0
14100,note_on,60,0,1,,,,,,,,,0,,,82,0
14100,note_on,0,0,1,,,,,,,,,0,,,80,60
14100,note_on,0,0,4,,,,,,,,,0,,,53,60
14100,note_on,30,0,4,,,,,,,,,0,,,61,60
14130,note_on,30,0,1,,,,,,,,,0,,,80,0
14130,note_on,0,0,1,,,,,,,,,0,,,79,60
14130,note_on,0,0,4,,,,,,,,,0,,,61,0
14130,note_on,30,0,4,,,,,,,,,0,,,53,0
14160,note_on,0,0,1,,,,,,,,,0,,,77,60
14160,note_on,30,0,1,,,,,,,,,0,,,79,0
14160,note_on,30,0,4,,,,,,,,,0,,,49,60
14190,note_on,30,0,1,,,,,,,,,0,,,77,0
14190,note_on,30,0,4,,,,,,,,,0,,,49,0
14220,note_on,30,0,4,,,,,,,,,0,,,50,60
14220,note_on,30,0,1,,,,,,,,,0,,,82,60
14250,note_on,30,0,4,,,,,,,,,0,,,50,0
14250,note_on,30,0,1,,,,,,,,,0,,,82,0
14280,note_on,30,0,4,,,,,,,,,0,,,62,63
14280,note_on,0,0,4,,,,,,,,,0,,,58,63
14280,note_on,30,0,1,,,,,,,,,0,,,77,63
14310,note_on,30,0,4,,,,,,,,,0,,,58,0
14310,note_on,0,0,4,,,,,,,,,0,,,62,0
14310,note_on,30,0,1,,,,,,,,,0,,,77,0
14340,note_on,30,0,4,,,,,,,,,0,,,50,67
14340,note_on,30,0,1,,,,,,,,,0,,,82,67
14370,note_on,30,0,4,,,,,,,,,0,,,50,0
14370,note_on,30,0,1,,,,,,,,,0,,,82,0
14400,note_on,30,0,1,,,,,,,,,0,,,80,90
14400,note_on,30,0,4,,,,,,,,,0,,,51,70
14430,note_on,30,0,4,,,,,,,,,0,,,51,0
14460,note_on,30,0,4,,,,,,,,,0,,,63,74
14460,note_on,60,0,1,,,,,,,,,0,,,80,0
14460,note_on,0,0,4,,,,,,,,,0,,,58,74
14460,note_on,0,0,1,,,,,,,,,0,,,79,74
14490,note_on,0,0,4,,,,,,,,,0,,,63,0
14490,note_on,0,0,1,,,,,,,,,0,,,77,75
14490,note_on,30,0,1,,,,,,,,,0,,,79,0
14490,note_on,30,0,4,,,,,,,,,0,,,58,0
14520,note_on,30,0,1,,,,,,,,,0,,,77,0
14520,note_on,0,0,1,,,,,,,,,0,,,75,77
14520,note_on,30,0,4,,,,,,,,,0,,,51,77
14550,note_on,30,0,1,,,,,,,,,0,,,75,0
14550,note_on,30,0,4,,,,,,,,,0,,,51,0
14580,note_on,30,0,1,,,,,,,,,0,,,80,81
14580,note_on,30,0,4,,,,,,,,,0,,,48,81
14610,note_on,30,0,1,,,,,,,,,0,,,80,0
14610,note_on,30,0,4,,,,,,,,,0,,,48,0
14640,note_on,30,0,1,,,,,,,,,0,,,75,84
14640,note_on,30,0,4,,,,,,,,,0,,,60,84
14670,note_on,30,0,1,,,,,,,,,0,,,75,0
14670,note_on,30,0,4,,,,,,,,,0,,,60,0
14700,note_on,30,0,4,,,,,,,,,0,,,48,88
14700,note_on,30,0,1,,,,,,,,,0,,,80,88
14730,note_on,30,0,4,,,,,,,,,0,,,48,0
14730,note_on,30,0,1,,,,,,,,,0,,,80,0
14760,note_on,30,0,1,,,,,,,,,0,,,81,91
14760,note_on,30,0,4,,,,,,,,,0,,,47,91
14790,note_on,30,0,1,,,,,,,,,0,,,81,0
14790,note_on,30,0,4,,,,,,,,,0,,,47,0
14820,note_on,30,0,4,,,,,,,,,0,,,59,95
14820,note_on,30,0,1,,,,,,,,,0,,,75,95
14850,note_on,30,0,1,,,,,,,,,0,,,75,0
14850,note_on,30,0,4,,,,,,,,,0,,,59,0
14880,note_on,30,0,1,,,,,,,,,0,,,81,98
14880,note_on,30,0,4,,,,,,,,,0,,,47,98
14910,note_on,30,0,1,,,,,,,,,0,,,81,0
14910,note_on,30,0,4,,,,,,,,,0,,,47,0
14940,note_on,30,0,4,,,,,,,,,0,,,46,120
14940,note_on,30,0,1,,,,,,,,,0,,,82,120
14970,note_on,30,0,1,,,,,,,,,0,,,82,0
14970,note_on,30,0,4,,,,,,,,,0,,,46,0
15000,note_on,0,0,4,,,,,,,,,0,,,53,100
15000,note_on,0,0,1,,,,,,,,,0,,,77,100
15000,note_on,30,0,1,,,,,,,,,0,,,74,100
15000,note_on,30,0,4,,,,,,,,,0,,,62,100
15000,note_on,0,0,4,,,,,,,,,0,,,58,100
15030,note_on,0,0,1,,,,,,,,,0,,,74,0
15030,note_on,30,0,1,,,,,,,,,0,,,77,0
15030,note_on,30,0,4,,,,,,,,,0,,,53,0
15030,note_on,0,0,4,,,,,,,,,0,,,58,0
15030,note_on,0,0,4,,,,,,,,,0,,,62,0
15060,note_on,30,0,1,,,,,,,,,0,,,86,120
15060,note_on,30,0,4,,,,,,,,,0,,,46,120
15090,note_on,30,0,1,,,,,,,,,0,,,86,0
15090,note_on,30,0,4,,,,,,,,,0,,,46,0
15120,note_on,0,0,4,,,,,,,,,0,,,58,100
15120,note_on,0,0,1,,,,,,,,,0,,,82,100
15120,note_on,0,0,4,,,,,,,,,0,,,53,100
15120,note_on,30,0,4,,,,,,,,,0,,,62,100
15120,note_on,30,0,1,,,,,,,,,0,,,77,100
15150,note_on,0,0,1,,,,,,,,,0,,,77,0
15150,note_on,30,0,1,,,,,,,,,0,,,82,0
15150,note_on,0,0,4,,,,,,,,,0,,,62,0
15150,note_on,0,0,4,,,,,,,,,0,,,58,0
15150,note_on,30,0,4,,,,,,,,,0,,,53,0
15180,note_on,30,0,1,,,,,,,,,0,,,89,120
15180,note_on,30,0,4,,,,,,,,,0,,,46,120
15210,note_on,30,0,1,,,,,,,,,0,,,89,0
15210,note_on,30,0,4,,,,,,,,,0,,,46,0
15240,note_on,0,0,4,,,,,,,,,0,,,53,100
15240,note_on,0,0,1,,,,,,,,,0,,,86,100
15240,note_on,30,0,4,,,,,,,,,0,,,62,100
15240,note_on,30,0,1,,,,,,,,,0,,,82,100
15240,note_on,0,0,4,,,,,,,,,0,,,58,100
15270,note_on,30,0,1,,,,,,,,,0,,,86,0
15270,note_on,0,0,1,,,,,,,,,0,,,82,0
15270,note_on,0,0,4,,,,,,,,,0,,,62,0
15270,note_on,30,0,4,,,,,,,,,0,,,53,0
15270,note_on,0,0,4,,,,,,,,,0,,,58,0
15300,note_on,30,0,4,,,,,,,,,0,,,46,120
15300,note_on,30,0,1,,,,,,,,,0,,,92,120
15330,note_on,30,0,4,,,,,,,,,0,,,46,0
15330,note_on,30,0,1,,,,,,,,,0,,,92,0
15330,note_on,0,0,1,,,,,,,,,0,,,90,100
15360,note_on,0,0,4,,,,,,,,,0,,,54,100
15360,note_on,0,0,4,,,,,,,,,0,,,57,100
15360,note_on,30,0,4,,,,,,,,,0,,,63,100
15360,note_on,30,0,1,,,,,,,,,0,,,90,0
15360,note_on,0,0,1,,,,,,,,,0,,,89,100
15390,note_on,0,0,4,,,,,,,,,0,,,63,0
15390,note_on,30,0,4,,,,,,,,,0,,,54,0
15390,note_on,30,0,1,,,,,,,,,0,,,89,0
15390,note_on,0,0,4,,,,,,,,,0,,,57,0
15390,note_on,0,0,1,,,,,,,,,0,,,90,100
15420,note_on,0,0,1,,,,,,,,,0,,,87,100
15420,note_on,30,0,4,,,,,,,,,0,,,46,100
15420,note_on,30,0,1,,,,,,,,,0,,,90,0
15450,note_on,30,0,4,,,,,,,,,0,,,46,0
15450,note_on,30,0,1,,,,,,,,,0,,,87,0
15480,note_on,30,0,1,,,,,,,,,0,,,84,100
15480,note_on,30,0,4,,,,,,,,,0,,,63,100
15480,note_on,0,0,4,,,,,,,,,0,,,57,100
15480,note_on,0,0,4,,,,,,,,,0,,,54,100
15510,note_on,30,0,1,,,,,,,,,0,,,84,0
15510,note_on,30,0,4,,,,,,,,,0,,,54,0
15510,note_on,0,0,4,,,,,,,,,0,,,57,0
15510,note_on,0,0,4,,,,,,,,,0,,,63,0
15540,note_on,30,0,1,,,,,,,,,0,,,81,100
15540,note_on,30,0,4,,,,,,,,,0,,,46,100
15570,note_on,30,0,4,,,,,,,,,0,,,46,0
15570,note_on,30,0,1,,,,,,,,,0,,,81,0
15600,note_on,0,0,4,,,,,,,,,0,,,57,100
15600,note_on,30,0,4,,,,,,,,,0,,,63,100
15600,note_on,0,0,4,,,,,,,,,0,,,54,100
15600,note_on,30,0,1,,,,,,,,,0,,,78,100
15630,note_on,0,0,4,,,,,,,,,0,,,63,0
15630,note_on,0,0,4,,,,,,,,,0,,,57,0
15630,note_on,30,0,4,,,,,,,,,0,,,54,0
15630,note_on,30,0,1,,,,,,,,,0,,,78,0
15660,note_on,30,0,4,,,,,,,,,0,,,46,120
15660,note_on,30,0,1,,,,,,,,,0,,,82,120
15690,note_on,30,0,1,,,,,,,,,0,,,82,0
15690,note_on,30,0,4,,,,,,,,,0,,,46,0
15720,note_on,30,0,4,,,,,,,,,0,,,62,100
15720,note_on,0,0,4,,,,,,,,,0,,,58,100
15720,note_on,0,0,4,,,,,,,,,0,,,53,100
15720,note_on,30,0,1,,,,,,,,,0,,,74,100
15720,note_on,0,0,1,,,,,,,,,0,,,77,100
15750,note_on,30,0,4,,,,,,,,,0,,,53,0
15750,note_on,0,0,1,,,,,,,,,0,,,74,0
15750,note_on,0,0,4,,,,,,,,,0,,,62,0
15750,note_on,0,0,4,,,,,,,,,0,,,58,0
15750,note_on,30,0,1,,,,,,,,,0,,,77,0
15780,note_on,30,0,4,,,,,,,,,0,,,46,120
15780,note_on,30,0,1,,,,,,,,,0,,,86,120
15810,note_on,30,0,1,,,,,,,,,0,,,86,0
15810,note_on,30,0,4,,,,,,,,,0,,,46,0
15840,note_on,30,0,1,,,,,,,,,0,,,77,100
15840,note_on,0,0,1,,,,,,,,,0,,,82,100
15840,note_on,0,0,4,,,,,,,,,0,,,58,100
15840,note_on,0,0,4,,,,,,,,,0,,,53,100
15840,note_on,30,0,4,,,,,,,,,0,,,62,100
15870,note_on,30,0,4,,,,,,,,,0,,,53,0
15870,note_on,30,0,1,,,,,,,,,0,,,82,0
15870,note_on,0,0,4,,,,,,,,,0,,,58,0
15870,note_on,0,0,1,,,,,,,,,0,,,77,0
15870,note_on,0,0,4,,,,,,,,,0,,,62,0
15900,note_on,30,0,4,,,,,,,,,0,,,46,120
15900,note_on,30,0,1,,,,,,,,,0,,,89,120
15930,note_on,30,0,4,,,,,,,,,0,,,46,0
15930,note_on,30,0,1,,,,,,,,,0,,,89,0
15960,note_on,0,0,4,,,,,,,,,0,,,53,100
15960,note_on,0,0,4,,,,,,,,,0,,,58,100
15960,note_on,30,0,4,,,,,,,,,0,,,62,100
15960,note_on,30,0,1,,,,,,,,,0,,,82,100
15960,note_on,0,0,1,,,,,,,,,0,,,86,100
15990,note_on,0,0,4,,,,,,,,,0,,,58,0
15990,note_on,0,0,4,,,,,,,,,0,,,62,0
15990,note_on,30,0,1,,,,,,,,,0,,,86,0
15990,note_on,0,0,1,,,,,,,,,0,,,82,0
15990,note_on,30,0,4,,,,,,,,,0,,,53,0
16020,note_on,30,0,4,,,,,,,,,0,,,46,120
16020,note_on,30,0,1,,,,,,,,,0,,,92,120
16050,note_on,0,0,1,,,,,,,,,0,,,90,100
16050,note_on,30,0,1,,,,,,,,,0,,,92,0
16050,note_on,30,0,4,,,,,,,,,0,,,46,0
16080,note_on,0,0,1,,,,,,,,,0,,,89,100
16080,note_on,30,0,1,,,,,,,,,0,,,90,0
16080,note_on,30,0,4,,,,,,,,,0,,,63,100
16080,note_on,0,0,4,,,,,,,,,0,,,54,100
16080,note_on,0,0,4,,,,,,,,,0,,,57,100
16110,note_on,0,0,1,,,,,,,,,0,,,90,100
16110,note_on,30,0,4,,,,,,,,,0,,,54,0
16110,note_on,0,0,4,,,,,,,,,0,,,57,0
16110,note_on,0,0,4,,,,,,,,,0,,,63,0
16110,note_on,30,0,1,,,,,,,,,0,,,89,0
16140,note_on,30,0,4,,,,,,,,,0,,,46,100
16140,note_on,0,0,1,,,,,,,,,0,,,87,100
16140,note_on,30,0,1,,,,,,,,,0,,,90,0
16170,note_on,30,0,4,,,,,,,,,0,,,46,0
16170,note_on,30,0,1,,,,,,,,,0,,,87,0
16200,note_on,30,0,1,,,,,,,,,0,,,84,100
16200,note_on,0,0,4,,,,,,,,,0,,,54,100
16200,note_on,0,0,4,,,,,,,,,0,,,57,100
16200,note_on,30,0,4,,,,,,,,,0,,,63,100
16230,note_on,30,0,1,,,,,,,,,0,,,84,0
16230,note_on,0,0,4,,,,,,,,,0,,,63,0
16230,note_on,0,0,4,,,,,,,,,0,,,57,0
16230,note_on,30,0,4,,,,,,,,,0,,,54,0
16260,note_on,30,0,4,,,,,,,,,0,,,46,100
16260,note_on,30,0,1,,,,,,,,,0,,,81,100
16290,note_on,30,0,4,,,,,,,,,0,,,46,0
16290,note_on,30,0,1,,,,,,,,,0,,,81,0
16320,note_on,30,0,4,,,,,,,,,0,,,63,100
16320,note_on,0,0,4,,,,,,,,,0,,,54,100
16320,note_on,0,0,4,,,,,,,,,0,,,57,100
16320,note_on,30,0,1,,,,,,,,,0,,,78,100
16350,note_on,30,0,4,,,,,,,,,0,,,54,0
16350,note_on,0,0,4,,,,,,,,,0,,,57,0
16350,note_on,0,0,4,,,,,,,,,0,,,63,0
16350,note_on,30,0,1,,,,,,,,,0,,,78,0
16380,note_on,30,0,1,,,,,,,,,0,,,82,120
16380,note_on,30,0,4,,,,,,,,,0,,,46,120
16410,note_on,30,0,4,,,,,,,,,0,,,46,0
16410,note_on,30,0,1,,,,,,,,,0,,,82,0
16440,note_on,30,0,1,,,,,,,,,0,,,74,100
16440,note_on,30,0,4,,,,,,,,,0,,,62,100
16440,note_on,0,0,4,,,,,,,,,0,,,58,100
16440,note_on,0,0,4,,,,,,,,,0,,,53,100
16440,note_on,0,0,1,,,,,,,,,0,,,77,100
16470,note_on,0,0,4,,,,,,,,,0,,,58,0
16470,note_on,0,0,4,,,,,,,,,0,,,62,0
16470,note_on,0,0,1,,,,,,,,,0,,,74,0
16470,note_on,30,0,1,,,,,,,,,0,,,77,0
16470,note_on,30,0,4,,,,,,,,,0,,,53,0
16500,note_on,30,0,4,,,,,,,,,0,,,44,120
16500,note_on,30,0,1,,,,,,,,,0,,,83,120
16530,note_on,30,0,1,,,,,,,,,0,,,83,0
16530,note_on,30,0,4,,,,,,,,,0,,,44,0
16560,note_on,30,0,1,,,,,,,,,0,,,74,100
16560,note_on,0,0,1,,,,,,,,,0,,,77,100
16560,note_on,30,0,4,,,,,,,,,0,,,56,100
16590,note_on,30,0,4,,,,,,,,,0,,,56,0
16590,note_on,30,0,1,,,,,,,,,0,,,77,0
16590,note_on,0,0,1,,,,,,,,,0,,,74,0
16620,note_on,30,0,1,,,,,,,,,0,,,86,120
16620,note_on,30,0,4,,,,,,,,,0,,,43,120
16650,note_on,30,0,4,,,,,,,,,0,,,43,0
16650,note_on,30,0,1,,,,,,,,,0,,,86,0
16680,note_on,30,0,4,,,,,,,,,0,,,55,100
16680,note_on,30,0,1,,,,,,,,,0,,,77,100
16680,note_on,0,0,1,,,,,,,,,0,,,83,100
16710,note_on,30,0,1,,,,,,,,,0,,,83,0
16710,note_on,0,0,1,,,,,,,,,0,,,77,0
16710,note_on,30,0,4,,,,,,,,,0,,,55,0
16740,note_on,30,0,1,,,,,,,,,0,,,84,120
16740,note_on,30,0,4,,,,,,,,,0,,,48,120
16770,note_on,30,0,1,,,,,,,,,0,,,84,0
16770,note_on,30,0,4,,,,,,,,,0,,,48,0
16800,note_on,30,0,4,,,,,,,,,0,,,60,100
16800,note_on,30,0,1,,,,,,,,,0,,,76,100
16800,note_on,0,0,1,,,,,,,,,0,,,79,100
16830,note_on,0,0,1,,,,,,,,,0,,,76,0
16830,note_on,30,0,1,,,,,,,,,0,,,79,0
16830,note_on,30,0,4,,,,,,,,,0,,,60,0
16860,note_on,30,0,4,,,,,,,,,0,,,46,120
16860,note_on,30,0,1,,,,,,,,,0,,,88,120
16890,note_on,30,0,1,,,,,,,,,0,,,88,0
16890,note_on,30,0,4,,,,,,,,,0,,,46,0
16920,note_on,0,0,1,,,,,,,,,0,,,79,100
16920,note_on,30,0,1,,,,,,,,,0,,,85,100
16920,note_on,30,0,4,,,,,,,,,0,,,58,100
16950,note_on,0,0,1,,,,,,,,,0,,,85,0
16950,note_on,30,0,1,,,,,,,,,0,,,79,0
16950,note_on,30,0,4,,,,,,,,,0,,,58,0
16980,note_on,30,0,4,,,,,,,,,0,,,43,120
16980,note_on,30,0,1,,,,,,,,,0,,,91,120
17010,note_on,30,0,1,,,,,,,,,0,,,91,0
17010,note_on,30,0,4,,,,,,,,,0,,,43,0
17040,note_on,30,0,4,,,,,,,,,0,,,55,100
17040,note_on,0,0,1,,,,,,,,,0,,,82,100
17040,note_on,0,0,1,,,,,,,,,0,,,85,100
17040,note_on,30,0,1,,,,,,,,,0,,,88,100
17070,note_on,0,0,1,,,,,,,,,0,,,85,0
17070,note_on,0,0,1,,,,,,,,,0,,,88,0
17070,note_on,30,0,4,,,,,,,,,0,,,55,0
17070,note_on,30,0,1,,,,,,,,,0,,,82,0
17100,note_on,30,0,1,,,,,,,,,0,,,89,120
17100,note_on,30,0,4,,,,,,,,,0,,,44,120
17130,note_on,30,0,1,,,,,,,,,0,,,89,0
17130,note_on,30,0,4,,,,,,,,,0,,,44,0
17160,note_on,0,0,1,,,,,,,,,0,,,84,100
17160,note_on,30,0,1,,,,,,,,,0,,,77,100
17160,note_on,30,0,4,,,,,,,,,0,,,56,100
17190,note_on,30,0,1,,,,,,,,,0,,,84,0
17190,note_on,0,0,1,,,,,,,,,0,,,77,0
17190,note_on,30,0,4,,,,,,,,,0,,,56,0
17220,note_on,30,0,4,,,,,,,,,0,,,34,120
17220,note_on,30,0,1,,,,,,,,,0,,,94,120
17250,note_on,30,0,4,,,,,,,,,0,,,34,0
17250,note_on,30,0,1,,,,,,,,,0,,,94,0
17280,note_on,30,0,4,,,,,,,,,0,,,46,100
17280,note_on,30,0,1,,,,,,,,,0,,,82,100
17310,note_on,30,0,4,,,,,,,,,0,,,46,0
17310,note_on,30,0,1,,,,,,,,,0,,,82,0
17340,note_on,30,0,1,,,,,,,,,0,,,96,120
17340,note_on,30,0,4,,,,,,,,,0,,,36,120
17370,note_on,30,0,4,,,,,,,,,0,,,36,0
17370,note_on,30,0,1,,,,,,,,,0,,,96,0
17400,note_on,30,0,1,,,,,,,,,0,,,84,100
17400,note_on,30,0,4,,,,,,,,,0,,,48,100
17430,note_on,30,0,1,,,,,,,,,0,,,84,0
17430,note_on,30,0,4,,,,,,,,,0,,,48,0
17460,note_on,0,0,1,,,,,,,,,0,,,89,100
17460,note_on,0,0,4,,,,,,,,,0,,,41,100
17460,note_on,30,0,4,,,,,,,,,0,,,29,100
17460,note_on,30,0,1,,,,,,,,,0,,,101,100
17490,note_on,30,0,1,,,,,,,,,0,,,89,0
17490,note_on,0,0,1,,,,,,,,,0,,,101,0
17490,note_on,0,0,4,,,,,,,,,0,,,29,0
17490,note_on,30,0,4,,,,,,,,,0,,,41,0
17520,note_on,30,0,1,,,,,,,,,0,,,91,100
17520,note_on,0,0,4,,,,,,,,,0,,,53,120
17520,note_on,0,0,4,,,,,,,,,0,,,58,120
17520,note_on,0,0,4,,,,,,,,,0,,,61,120
17520,note_on,30,0,4,,,,,,,,,0,,,64,120
17520,control_change,6000,0,5,,,,,,,,,0,64,127,,
17540,note_on,20,0,1,,,,,,,,,0,,,91,0
17540,note_on,0,0,1,,,,,,,,,0,,,92,100
17560,note_on,20,0,1,,,,,,,,,0,,,92,0
17560,note_on,0,0,1,,,,,,,,,0,,,91,100
17580,note_on,20,0,1,,,,,,,,,0,,,91,0
17580,note_on,0,0,1,,,,,,,,,0,,,92,100
17595,note_on,15,0,1,,,,,,,,,0,,,92,0
17595,note_on,0,0,1,,,,,,,,,0,,,91,100
17610,note_on,0,0,1,,,,,,,,,0,,,92,100
17610,note_on,15,0,1,,,,,,,,,0,,,91,0
17625,note_on,0,0,1,,,,,,,,,0,,,91,100
17625,note_on,15,0,1,,,,,,,,,0,,,92,0
17640,note_on,15,0,1,,,,,,,,,0,,,91,0
17640,note_on,0,0,1,,,,,,,,,0,,,92,100
17655,note_on,15,0,1,,,,,,,,,0,,,92,0
17655,note_on,0,0,1,,,,,,,,,0,,,91,100
17670,note_on,15,0,1,,,,,,,,,0,,,91,0
17670,note_on,0,0,1,,,,,,,,,0,,,92,100
17685,note_on,15,0,1,,,,,,,,,0,,,92,0
17685,note_on,0,0,1,,,,,,,,,0,,,91,100
17700,note_on,15,0,1,,,,,,,,,0,,,91,0
17700,note_on,0,0,1,,,,,,,,,0,,,92,100
17715,note_on,15,0,1,,,,,,,,,0,,,92,0
17715,note_on,0,0,1,,,,,,,,,0,,,91,100
17730,note_on,15,0,1,,,,,,,,,0,,,91,0
17730,note_on,0,0,1,,,,,,,,,0,,,90,100
17745,note_on,15,0,1,,,,,,,,,0,,,90,0
17745,note_on,0,0,1,,,,,,,,,0,,,91,100
17760,note_on,15,0,1,,,,,,,,,0,,,91,0
17760,note_on,0,0,1,,,,,,,,,0,,,92,100
17790,note_on,0,0,1,,,,,,,,,0,,,91,100
17790,note_on,30,0,1,,,,,,,,,0,,,92,0
17820,note_on,0,0,4,,,,,,,,,0,,,60,100
17820,note_on,300,0,4,,,,,,,,,0,,,53,0
17820,note_on,0,0,4,,,,,,,,,0,,,53,100
17820,control_change,300,0,5,,,,,,,,,0,64,0,,
17820,note_on,0,0,4,,,,,,,,,0,,,56,100
17820,note_on,0,0,4,,,,,,,,,0,,,65,100
17820,note_on,0,0,1,,,,,,,,,0,,,89,100
17820,note_on,0,0,4,,,,,,,,,0,,,61,0
17820,note_on,0,0,4,,,,,,,,,0,,,58,0
17820,note_on,30,0,1,,,,,,,,,0,,,91,0
17820,note_on,0,0,4,,,,,,,,,0,,,64,0
17850,note_on,30,0,1,,,,,,,,,0,,,89,0
17850,note_on,30,0,4,,,,,,,,,0,,,53,0
17850,note_on,0,0,4,,,,,,,,,0,,,65,0
17850,note_on,0,0,4,,,,,,,,,0,,,60,0
17850,note_on,0,0,4,,,,,,,,,0,,,56,0
17880,note_on,0,0,4,,,,,,,,,0,,,58,120
17880,control_change,60,0,5,,,,,,,,,0,64,127,,
17880,note_on,30,0,1,,,,,,,,,0,,,79,100
17880,note_on,0,0,4,,,,,,,,,0,,,53,120
17880,note_on,0,0,4,,,,,,,,,0,,,61,120
17880,note_on,30,0,4,,,,,,,,,0,,,64,120
17900,note_on,0,0,1,,,,,,,,,0,,,80,100
17900,note_on,20,0,1,,,,,,,,,0,,,79,0
17920,note_on,20,0,1,,,,,,,,,0,,,80,0
17920,note_on,0,0,1,,,,,,,,,0,,,79,100
17940,note_on,20,0,1,,,,,,,,,0,,,79,0
17940,note_on,0,0,1,,,,,,,,,0,,,80,100
17955,note_on,0,0,1,,,,,,,,,0,,,79,100
17955,note_on,15,0,1,,,,,,,,,0,,,80,0
17970,note_on,15,0,1,,,,,,,,,0,,,79,0
17970,note_on,0,0,1,,,,,,,,,0,,,80,100
17985,note_on,15,0,1,,,,,,,,,0,,,80,0
17985,note_on,0,0,1,,,,,,,,,0,,,79,100
18000,note_on,15,0,1,,,,,,,,,0,,,79,0
18000,note_on,0,0,1,,,,,,,,,0,,,80,100
18015,note_on,0,0,1,,,,,,,,,0,,,79,100
18015,note_on,15,0,1,,,,,,,,,0,,,80,0
18030,note_on,15,0,1,,,,,,,,,0,,,79,0
18030,note_on,0,0,1,,,,,,,,,0,,,80,100
18045,note_on,15,0,1,,,,,,,,,0,,,80,0
18045,note_on,0,0,1,,,,,,,,,0,,,79,100
18060,note_on,15,0,1,,,,,,,,,0,,,79,0
18060,note_on,0,0,1,,,,,,,,,0,,,80,100
18075,note_on,15,0,1,,,,,,,,,0,,,80,0
18075,note_on,0,0,1,,,,,,,,,0,,,79,100
18090,note_on,15,0,1,,,,,,,,,0,,,79,0
18090,note_on,0,0,1,,,,,,,,,0,,,78,100
18105,note_on,15,0,1,,,,,,,,,0,,,78,0
18105,note_on,0,0,1,,,,,,,,,0,,,79,100
18120,note_on,15,0,1,,,,,,,,,0,,,79,0
18120,note_on,0,0,1,,,,,,,,,0,,,80,100
18150,note_on,30,0,1,,,,,,,,,0,,,80,0
18150,note_on,0,0,1,,,,,,,,,0,,,79,100
18180,note_on,0,0,4,,,,,,,,,0,,,61,0
18180,note_on,30,0,1,,,,,,,,,0,,,79,0
18180,note_on,0,0,1,,,,,,,,,0,,,77,100
18180,note_on,0,0,4,,,,,,,,,0,,,65,100
18180,note_on,300,0,4,,,,,,,,,0,,,53,0
18180,note_on,0,0,4,,,,,,,,,0,,,64,0
18180,note_on,0,0,4,,,,,,,,,0,,,58,0
18180,note_on,0,0,4,,,,,,,,,0,,,60,100
18180,control_change,300,0,5,,,,,,,,,0,64,0,,
18180,note_on,0,0,4,,,,,,,,,0,,,56,100
18180,note_on,0,0,4,,,,,,,,,0,,,53,100
18210,note_on,0,0,4,,,,,,,,,0,,,65,0
18210,note_on,0,0,4,,,,,,,,,0,,,60,0
18210,note_on,30,0,1,,,,,,,,,0,,,77,0
18210,note_on,30,0,4,,,,,,,,,0,,,53,0
18210,note_on,0,0,4,,,,,,,,,0,,,56,0
18240,control_change,60,0,5,,,,,,,,,0,64,127,,
18240,note_on,0,0,4,,,,,,,,,0,,,61,120
18240,note_on,30,0,4,,,,,,,,,0,,,64,120
18240,note_on,0,0,4,,,,,,,,,0,,,58,120
18240,note_on,0,0,4,,,,,,,,,0,,,53,120
18240,note_on,30,0,1,,,,,,,,,0,,,91,100
18260,note_on,20,0,1,,,,,,,,,0,,,91,0
18260,note_on,0,0,1,,,,,,,,,0,,,92,100
18280,note_on,20,0,1,,,,,,,,,0,,,92,0
18280,note_on,0,0,1,,,,,,,,,0,,,91,100
18300,note_on,0,0,1,,,,,,,,,0,,,92,100
18300,note_on,20,0,1,,,,,,,,,0,,,91,0
18315,note_on,15,0,1,,,,,,,,,0,,,92,0
18315,note_on,0,0,1,,,,,,,,,0,,,91,100
18330,note_on,0,0,1,,,,,,,,,0,,,92,100
18330,note_on,15,0,1,,,,,,,,,0,,,91,0
18345,note_on,15,0,1,,,,,,,,,0,,,92,0
18345,note_on,0,0,1,,,,,,,,,0,,,91,100
18360,note_on,0,0,1,,,,,,,,,0,,,90,100
18360,note_on,15,0,1,,,,,,,,,0,,,91,0
18375,note_on,15,0,1,,,,,,,,,0,,,90,0
18375,note_on,0,0,1,,,,,,,,,0,,,91,100
18390,note_on,15,0,1,,,,,,,,,0,,,91,0
18390,note_on,0,0,1,,,,,,,,,0,,,92,100
18405,note_on,15,0,1,,,,,,,,,0,,,92,0
18405,note_on,0,0,1,,,,,,,,,0,,,94,100
18420,note_on,0,0,1,,,,,,,,,0,,,96,100
18420,note_on,15,0,1,,,,,,,,,0,,,94,0
18435,note_on,0,0,1,,,,,,,,,0,,,97,100
18435,note_on,15,0,1,,,,,,,,,0,,,96,0
18450,note_on,0,0,1,,,,,,,,,0,,,100,100
18450,note_on,15,0,1,,,,,,,,,0,,,97,0
18465,note_on,0,0,1,,,,,,,,,0,,,101,100
18465,note_on,15,0,1,,,,,,,,,0,,,100,0
18480,note_on,15,0,1,,,,,,,,,0,,,101,0
18480,note_on,0,0,1,,,,,,,,,0,,,100,100
18490,note_on,0,0,1,,,,,,,,,0,,,97,100
18490,note_on,10,0,1,,,,,,,,,0,,,100,0
18500,note_on,10,0,1,,,,,,,,,0,,,97,0
18500,note_on,0,0,1,,,,,,,,,0,,,96,100
18510,note_on,10,0,1,,,,,,,,,0,,,96,0
18510,note_on,0,0,1,,,,,,,,,0,,,94,100
18520,note_on,10,0,1,,,,,,,,,0,,,94,0
18520,note_on,0,0,1,,,,,,,,,0,,,92,100
18530,note_on,10,0,1,,,,,,,,,0,,,92,0
18530,note_on,0,0,1,,,,,,,,,0,,,91,100
18540,control_change,300,0,5,,,,,,,,,0,64,0,,
18540,note_on,0,0,4,,,,,,,,,0,,,58,0
18540,note_on,0,0,4,,,,,,,,,0,,,61,0
18540,note_on,0,0,1,,,,,,,,,0,,,89,100
18540,note_on,0,0,4,,,,,,,,,0,,,53,100
18540,note_on,0,0,4,,,,,,,,,0,,,56,100
18540,note_on,0,0,4,,,,,,,,,0,,,60,100
18540,note_on,0,0,4,,,,,,,,,0,,,65,100
18540,note_on,300,0,4,,,,,,,,,0,,,53,0
18540,note_on,0,0,4,,,,,,,,,0,,,64,0
18540,note_on,10,0,1,,,,,,,,,0,,,91,0
18570,note_on,30,0,4,,,,,,,,,0,,,53,0
18570,note_on,0,0,4,,,,,,,,,0,,,56,0
18570,note_on,0,0,4,,,,,,,,,0,,,65,0
18570,note_on,0,0,4,,,,,,,,,0,,,60,0
18570,note_on,30,0,1,,,,,,,,,0,,,89,0
18600,note_on,30,0,4,,,,,,,,,0,,,64,120
18600,note_on,0,0,4,,,,,,,,,0,,,61,120
18600,note_on,0,0,4,,,,,,,,,0,,,58,120
18600,note_on,0,0,4,,,,,,,,,0,,,53,120
18600,control_change,60,0,5,,,,,,,,,0,64,127,,
18600,note_on,30,0,1,,,,,,,,,0,,,79,100
18620,note_on,0,0,1,,,,,,,,,0,,,80,100
18620,note_on,20,0,1,,,,,,,,,0,,,79,0
18640,note_on,0,0,1,,,,,,,,,0,,,79,100
18640,note_on,20,0,1,,,,,,,,,0,,,80,0
18660,note_on,20,0,1,,,,,,,,,0,,,79,0
18660,note_on,0,0,1,,,,,,,,,0,,,80,100
18675,note_on,15,0,1,,,,,,,,,0,,,80,0
18675,note_on,0,0,1,,,,,,,,,0,,,79,100
18690,note_on,15,0,1,,,,,,,,,0,,,79,0
18690,note_on,0,0,1,,,,,,,,,0,,,80,100
18705,note_on,0,0,1,,,,,,,,,0,,,79,100
18705,note_on,15,0,1,,,,,,,,,0,,,80,0
18720,set_tempo,7020,1,0,,,,,,476228,,,,,,,
18720,note_on,15,0,1,,,,,,,,,0,,,79,0
18720,note_on,0,0,1,,,,,,,,,0,,,77,100
18727,set_tempo,7,1,0,,,,,,484301,,,,,,,
18732,note_on,12,0,1,,,,,,,,,0,,,77,0
18732,note_on,0,0,1,,,,,,,,,0,,,79,100
18734,set_tempo,7,1,0,,,,,,492651,,,,,,,
18741,set_tempo,7,1,0,,,,,,501295,,,,,,,
18744,note_on,12,0,1,,,,,,,,,0,,,79,0
18744,note_on,0,0,1,,,,,,,,,0,,,80,100
18748,set_tempo,7,1,0,,,,,,510247,,,,,,,
18755,set_tempo,7,1,0,,,,,,519526,,,,,,,
18756,note_on,0,0,1,,,,,,,,,0,,,82,100
18756,note_on,12,0,1,,,,,,,,,0,,,80,0
18762,set_tempo,7,1,0,,,,,,529147,,,,,,,
18768,note_on,0,0,1,,,,,,,,,0,,,84,100
18768,note_on,12,0,1,,,,,,,,,0,,,82,0
18769,set_tempo,7,1,0,,,,,,540589,,,,,,,
18776,set_tempo,7,1,0,,,,,,551015,,,,,,,
18780,note_on,12,0,1,,,,,,,,,0,,,84,0
18780,note_on,0,0,1,,,,,,,,,0,,,85,100
18783,set_tempo,7,1,0,,,,,,561850,,,,,,,
18790,set_tempo,7,1,0,,,,,,573121,,,,,,,
18792,note_on,12,0,1,,,,,,,,,0,,,85,0
18792,note_on,0,0,1,,,,,,,,,0,,,88,100
18797,set_tempo,7,1,0,,,,,,584852,,,,,,,
18804,set_tempo,7,1,0,,,,,,597074,,,,,,,
18804,note_on,12,0,1,,,,,,,,,0,,,88,0
18804,note_on,0,0,1,,,,,,,,,0,,,89,100
18811,set_tempo,7,1,0,,,,,,611683,,,,,,,
18816,note_on,12,0,1,,,,,,,,,0,,,89,0
18816,note_on,0,0,1,,,,,,,,,0,,,91,100
18818,set_tempo,7,1,0,,,,,,625065,,,,,,,
18825,set_tempo,7,1,0,,,,,,639046,,,,,,,
18828,note_on,12,0,1,,,,,,,,,0,,,91,0
18828,note_on,0,0,1,,,,,,,,,0,,,89,100
18832,set_tempo,7,1,0,,,,,,653666,,,,,,,
18840,note_on,0,0,1,,,,,,,,,0,,,88,100
18840,set_tempo,8,1,0,,,,,,668971,,,,,,,
18840,note_on,12,0,1,,,,,,,,,0,,,89,0
18843,note_on,3,0,1,,,,,,,,,0,,,85,100
18845,note_on,2,0,1,,,,,,,,,0,,,88,0
18847,set_tempo,7,1,0,,,,,,685010,,,,,,,
18848,note_on,3,0,1,,,,,,,,,0,,,85,0
18848,note_on,0,0,1,,,,,,,,,0,,,84,100
18851,note_on,3,0,1,,,,,,,,,0,,,82,100
18853,note_on,2,0,1,,,,,,,,,0,,,84,0
18854,set_tempo,7,1,0,,,,,,704308,,,,,,,
18856,note_on,3,0,1,,,,,,,,,0,,,82,0
18856,note_on,0,0,1,,,,,,,,,0,,,80,100
18859,note_on,3,0,1,,,,,,,,,0,,,79,100
18861,note_on,2,0,1,,,,,,,,,0,,,80,0
18861,set_tempo,7,1,0,,,,,,722109,,,,,,,
18864,note_on,3,0,1,,,,,,,,,0,,,79,0
18866,note_on,2,0,1,,,,,,,,,0,,,77,100
18868,set_tempo,7,1,0,,,,,,740832,,,,,,,
18869,note_on,3,0,1,,,,,,,,,0,,,76,100
18871,note_on,2,0,1,,,,,,,,,0,,,77,0
18874,note_on,0,0,1,,,,,,,,,0,,,73,100
18874,note_on,3,0,1,,,,,,,,,0,,,76,0
18875,set_tempo,7,1,0,,,,,,760553,,,,,,,
18879,note_on,0,0,1,,,,,,,,,0,,,72,100
18879,note_on,5,0,1,,,,,,,,,0,,,73,0
18882,set_tempo,7,1,0,,,,,,781352,,,,,,,
18884,note_on,0,0,1,,,,,,,,,0,,,70,100
18884,note_on,5,0,1,,,,,,,,,0,,,72,0
18888,note_on,4,0,1,,,,,,,,,0,,,68,100
18889,note_on,1,0,1,,,,,,,,,0,,,70,0
18889,set_tempo,7,1,0,,,,,,803320,,,,,,,
18893,note_on,4,0,1,,,,,,,,,0,,,68,0
18895,note_on,2,0,1,,,,,,,,,0,,,67,100
18896,set_tempo,7,1,0,,,,,,829990,,,,,,,
18900,set_tempo,4,1,0,,,,,,476190,,,,,,,
18900,control_change,300,0,5,,,,,,,,,0,64,0,,
18900,note_on,0,0,4,,,,,,,,,0,,,53,100
18900,note_on,0,0,1,,,,,,,,,0,,,65,100
18900,note_on,300,0,4,,,,,,,,,0,,,53,0
18900,note_on,0,0,4,,,,,,,,,0,,,64,0
18900,note_on,0,0,4,,,,,,,,,0,,,61,0
18900,note_on,0,0,4,,,,,,,,,0,,,58,0
18900,note_on,0,0,4,,,,,,,,,0,,,60,100
18900,note_on,0,0,4,,,,,,,,,0,,,56,100
18900,note_on,5,0,1,,,,,,,,,0,,,67,0
18930,note_on,0,0,4,,,,,,,,,0,,,60,0
18930,note_on,30,0,1,,,,,,,,,0,,,65,0
18930,note_on,0,0,4,,,,,,,,,0,,,56,0
18930,note_on,30,0,4,,,,,,,,,0,,,53,0
19080,note_on,150,0,4,,,,,,,,,0,,,63,120
19080,note_on,0,0,4,,,,,,,,,0,,,61,120
19080,note_on,0,0,4,,,,,,,,,0,,,51,120
19080,control_change,180,0,5,,,,,,,,,0,64,127,,
19080,note_on,0,0,4,,,,,,,,,0,,,58,120
19080,note_on,150,0,1,,,,,,,,,0,,,79,120
19080,note_on,0,0,1,,,,,,,,,0,,,73,120
19080,note_on,0,0,1,,,,,,,,,0,,,70,120
19080,note_on,0,0,1,,,,,,,,,0,,,75,120
19080,note_on,0,0,1,,,,,,,,,0,,,67,120
19110,note_on,0,0,4,,,,,,,,,0,,,61,0
19110,note_on,0,0,4,,,,,,,,,0,,,63,0
19110,note_on,30,0,4,,,,,,,,,0,,,51,0
19110,note_on,0,0,1,,,,,,,,,0,,,75,0
19110,note_on,0,0,1,,,,,,,,,0,,,79,0
19110,note_on,0,0,1,,,,,,,,,0,,,73,0
19110,note_on,30,0,1,,,,,,,,,0,,,67,0
19110,note_on,0,0,1,,,,,,,,,0,,,70,0
19110,note_on,0,0,4,,,,,,,,,0,,,58,0
19140,set_tempo,240,1,0,,,,,,1000000,,,,,,,
19140,control_change,60,0,5,,,,,,,,,0,64,0,,
19260,note_on,150,0,1,,,,,,,,,0,,,80,40
19260,set_tempo,120,1,0,,,,,,476190,,,,,,,
19260,marker,0,1,0,,,,,,,,,,,,,
19260,note_on,0,0,4,,,,,,,,,0,,,56,40
19260,note_on,0,0,4,,,,,,,,,0,,,60,40
19260,note_on,150,0,4,,,,,,,,,0,,,63,40
19290,note_on,0,0,1,,,,,,,,,0,,,82,40
19290,note_on,30,0,1,,,,,,,,,0,,,80,0
19320,note_on,30,0,1,,,,,,,,,0,,,82,0
19320,note_on,60,0,4,,,,,,,,,0,,,56,0
19320,note_on,0,0,4,,,,,,,,,0,,,60,0
19320,note_on,0,0,4,,,,,,,,,0,,,63,0
19320,note_on,0,0,4,,,,,,,,,0,,,63,40
19320,note_on,0,0,4,,,,,,,,,0,,,60,40
19320,note_on,0,0,4,,,,,,,,,0,,,56,40
19320,note_on,0,0,1,,,,,,,,,0,,,84,40
19350,note_on,0,0,1,,,,,,,,,0,,,85,40
19350,note_on,30,0,1,,,,,,,,,0,,,84,0
19380,note_on,0,0,1,,,,,,,,,0,,,87,40
19380,note_on,30,0,1,,,,,,,,,0,,,85,0
19380,note_on,0,0,4,,,,,,,,,0,,,56,40
19380,note_on,0,0,4,,,,,,,,,0,,,63,40
19380,note_on,0,0,4,,,,,,,,,0,,,63,0
19380,note_on,0,0,4,,,,,,,,,0,,,60,0
19380,note_on,60,0,4,,,,,,,,,0,,,56,0
19380,note_on,0,0,4,,,,,,,,,0,,,60,40
19410,note_on,30,0,1,,,,,,,,,0,,,87,0
19410,note_on,0,0,1,,,,,,,,,0,,,85,40
19440,note_on,30,0,1,,,,,,,,,0,,,85,0
19440,note_on,0,0,1,,,,,,,,,0,,,84,40
19470,note_on,30,0,1,,,,,,,,,0,,,84,0
19470,note_on,0,0,1,,,,,,,,,0,,,82,40
19500,note_on,30,0,1,,,,,,,,,0,,,82,0
19500,note_on,0,0,1,,,,,,,,,0,,,80,40
19530,note_on,0,0,1,,,,,,,,,0,,,79,40
19530,note_on,30,0,1,,,,,,,,,0,,,80,0
19560,note_on,30,0,1,,,,,,,,,0,,,79,0
19560,note_on,0,0,1,,,,,,,,,0,,,77,40
19590,note_on,30,0,1,,,,,,,,,0,,,77,0
19590,note_on,0,0,1,,,,,,,,,0,,,75,40
19620,note_on,0,0,4,,,,,,,,,0,,,63,0
19620,note_on,30,0,1,,,,,,,,,0,,,75,0
19620,note_on,0,0,1,,,,,,,,,0,,,73,40
19620,note_on,0,0,4,,,,,,,,,0,,,61,40
19620,note_on,0,0,4,,,,,,,,,0,,,65,40
19620,note_on,240,0,4,,,,,,,,,0,,,60,0
19650,note_on,0,0,1,,,,,,,,,0,,,72,40
19650,note_on,30,0,1,,,,,,,,,0,,,73,0
19680,note_on,0,0,1,,,,,,,,,0,,,70,40
19680,note_on,30,0,1,,,,,,,,,0,,,72,0
19710,note_on,0,0,1,,,,,,,,,0,,,68,40
19710,note_on,30,0,1,,,,,,,,,0,,,70,0
19740,note_on,0,0,1,,,,,,,,,0,,,67,40
19740,note_on,30,0,1,,,,,,,,,0,,,68,0
19770,note_on,30,0,1,,,,,,,,,0,,,67,0
19770,note_on,0,0,1,,,,,,,,,0,,,68,40
19800,note_on,30,0,1,,,,,,,,,0,,,68,0
19800,note_on,0,0,1,,,,,,,,,0,,,70,40
19830,note_on,0,0,1,,,,,,,,,0,,,72,40
19830,note_on,30,0,1,,,,,,,,,0,,,70,0
19860,note_on,0,0,1,,,,,,,,,0,,,73,40
19860,note_on,30,0,1,,,,,,,,,0,,,72,0
19890,note_on,30,0,1,,,,,,,,,0,,,73,0
19890,note_on,0,0,1,,,,,,,,,0,,,75,40
19920,note_on,30,0,1,,,,,,,,,0,,,75,0
19920,note_on,0,0,1,,,,,,,,,0,,,77,40
19950,note_on,30,0,1,,,,,,,,,0,,,77,0
19950,note_on,0,0,1,,,,,,,,,0,,,79,40
19980,note_on,360,0,4,,,,,,,,,0,,,61,0
19980,note_on,0,0,4,,,,,,,,,0,,,65,0
19980,note_on,0,0,4,,,,,,,,,0,,,56,0
19980,note_on,0,0,4,,,,,,,,,0,,,56,40
19980,note_on,0,0,4,,,,,,,,,0,,,60,40
19980,note_on,0,0,1,,,,,,,,,0,,,80,40
19980,note_on,30,0,1,,,,,,,,,0,,,79,0
19980,note_on,0,0,4,,,,,,,,,0,,,63,40
20010,note_on,30,0,1,,,,,,,,,0,,,80,0
20010,note_on,0,0,1,,,,,,,,,0,,,82,40
20040,note_on,0,0,1,,,,,,,,,0,,,84,40
20040,note_on,0,0,4,,,,,,,,,0,,,60,40
20040,note_on,0,0,4,,,,,,,,,0,,,60,0
20040,note_on,0,0,4,,,,,,,,,0,,,56,40
20040,note_on,0,0,4,,,,,,,,,0,,,63,40
20040,note_on,0,0,4,,,,,,,,,0,,,63,0
20040,note_on,60,0,4,,,,,,,,,0,,,56,0
20040,note_on,30,0,1,,,,,,,,,0,,,82,0
20070,note_on,0,0,1,,,,,,,,,0,,,85,40
20070,note_on,30,0,1,,,,,,,,,0,,,84,0
20100,note_on,30,0,1,,,,,,,,,0,,,85,0
20100,note_on,0,0,4,,,,,,,,,0,,,56,40
20100,note_on,0,0,4,,,,,,,,,0,,,63,40
20100,note_on,0,0,4,,,,,,,,,0,,,63,0
20100,note_on,0,0,4,,,,,,,,,0,,,60,0
20100,note_on,60,0,4,,,,,,,,,0,,,56,0
20100,note_on,0,0,1,,,,,,,,,0,,,89,40
20100,note_on,0,0,4,,,,,,,,,0,,,60,40
20130,note_on,30,0,1,,,,,,,,,0,,,89,0
20130,note_on,0,0,1,,,,,,,,,0,,,87,40
20160,note_on,30,0,1,,,,,,,,,0,,,87,0
20160,note_on,0,0,1,,,,,,,,,0,,,85,40
20190,note_on,30,0,1,,,,,,,,,0,,,85,0
20190,note_on,0,0,1,,,,,,,,,0,,,84,40
20220,note_on,30,0,1,,,,,,,,,0,,,84,0
20220,note_on,0,0,1,,,,,,,,,0,,,82,40
20250,note_on,30,0,1,,,,,,,,,0,,,82,0
20250,note_on,0,0,1,,,,,,,,,0,,,80,40
20280,note_on,0,0,1,,,,,,,,,0,,,79,40
20280,note_on,30,0,1,,,,,,,,,0,,,80,0
20310,note_on,0,0,1,,,,,,,,,0,,,77,40
20310,note_on,30,0,1,,,,,,,,,0,,,79,0
20340,note_on,0,0,1,,,,,,,,,0,,,75,40
20340,note_on,30,0,1,,,,,,,,,0,,,77,0
20340,note_on,240,0,4,,,,,,,,,0,,,60,0
20340,note_on,0,0,4,,,,,,,,,0,,,61,40
20370,note_on,0,0,1,,,,,,,,,0,,,77,40
20370,note_on,30,0,1,,,,,,,,,0,,,75,0
20400,note_on,0,0,1,,,,,,,,,0,,,73,40
20400,note_on,30,0,1,,,,,,,,,0,,,77,0
20400,note_on,0,0,4,,,,,,,,,0,,,58,40
20400,note_on,60,0,4,,,,,,,,,0,,,61,0
20430,note_on,0,0,1,,,,,,,,,0,,,75,40
20430,note_on,30,0,1,,,,,,,,,0,,,73,0
20460,note_on,0,0,4,,,,,,,,,0,,,60,40
20460,note_on,60,0,4,,,,,,,,,0,,,58,0
20460,note_on,0,0,1,,,,,,,,,0,,,72,40
20460,note_on,30,0,1,,,,,,,,,0,,,75,0
20490,note_on,0,0,1,,,,,,,,,0,,,75,40
20490,note_on,30,0,1,,,,,,,,,0,,,72,0
20520,note_on,0,0,4,,,,,,,,,0,,,61,40
20520,note_on,0,0,1,,,,,,,,,0,,,70,40
20520,note_on,30,0,1,,,,,,,,,0,,,75,0
20520,note_on,60,0,4,,,,,,,,,0,,,60,0
20550,note_on,0,0,1,,,,,,,,,0,,,75,40
20550,note_on,30,0,1,,,,,,,,,0,,,70,0
20580,note_on,60,0,4,,,,,,,,,0,,,61,0
20580,note_on,0,0,4,,,,,,,,,0,,,60,40
20580,note_on,0,0,1,,,,,,,,,0,,,68,40
20580,note_on,30,0,1,,,,,,,,,0,,,75,0
20610,note_on,30,0,1,,,,,,,,,0,,,68,0
20610,note_on,0,0,1,,,,,,,,,0,,,75,40
20640,note_on,30,0,1,,,,,,,,,0,,,75,0
20640,note_on,0,0,1,,,,,,,,,0,,,67,40
20640,note_on,60,0,4,,,,,,,,,0,,,60,0
20640,note_on,0,0,4,,,,,,,,,0,,,58,40
20670,note_on,0,0,1,,,,,,,,,0,,,75,40
20670,note_on,30,0,1,,,,,,,,,0,,,67,0
20700,note_on,0,0,1,,,,,,,,,0,,,80,40
20700,note_on,30,0,1,,,,,,,,,0,,,75,0
20700,note_on,60,0,4,,,,,,,,,0,,,58,0
20700,note_on,0,0,4,,,,,,,,,0,,,56,0
20700,note_on,0,0,4,,,,,,,,,0,,,63,0
20700,note_on,0,0,4,,,,,,,,,0,,,59,40
20700,note_on,0,0,4,,,,,,,,,0,,,56,40
20700,note_on,0,0,4,,,,,,,,,0,,,63,40
20730,note_on,30,0,1,,,,,,,,,0,,,80,0
20730,note_on,0,0,1,,,,,,,,,0,,,82,40
20760,note_on,0,0,4,,,,,,,,,0,,,56,40
20760,note_on,60,0,4,,,,,,,,,0,,,56,0
20760,note_on,0,0,4,,,,,,,,,0,,,59,0
20760,note_on,0,0,4,,,,,,,,,0,,,63,0
20760,note_on,0,0,4,,,,,,,,,0,,,63,40
20760,note_on,30,0,1,,,,,,,,,0,,,82,0
20760,note_on,0,0,1,,,,,,,,,0,,,83,40
20760,note_on,0,0,4,,,,,,,,,0,,,59,40
20790,note_on,30,0,1,,,,,,,,,0,,,83,0
20790,note_on,0,0,1,,,,,,,,,0,,,85,40
20820,note_on,0,0,1,,,,,,,,,0,,,87,40
20820,note_on,60,0,4,,,,,,,,,0,,,56,0
20820,note_on,0,0,4,,,,,,,,,0,,,59,0
20820,note_on,0,0,4,,,,,,,,,0,,,63,0
20820,note_on,0,0,4,,,,,,,,,0,,,63,40
20820,note_on,0,0,4,,,,,,,,,0,,,59,40
20820,note_on,0,0,4,,,,,,,,,0,,,56,40
20820,note_on,30,0,1,,,,,,,,,0,,,85,0
20850,note_on,0,0,1,,,,,,,,,0,,,85,40
20850,note_on,30,0,1,,,,,,,,,0,,,87,0
20880,note_on,0,0,1,,,,,,,,,0,,,83,40
20880,note_on,30,0,1,,,,,,,,,0,,,85,0
20910,note_on,30,0,1,,,,,,,,,0,,,83,0
20910,note_on,0,0,1,,,,,,,,,0,,,82,40
20940,note_on,30,0,1,,,,,,,,,0,,,82,0
20940,note_on,0,0,1,,,,,,,,,0,,,80,40
20970,note_on,30,0,1,,,,,,,,,0,,,80,0
20970,note_on,0,0,1,,,,,,,,,0,,,78,40
21000,note_on,0,0,1,,,,,,,,,0,,,76,40
21000,note_on,30,0,1,,,,,,,,,0,,,78,0
21030,note_on,30,0,1,,,,,,,,,0,,,76,0
21030,note_on,0,0,1,,,,,,,,,0,,,75,40
21060,note_on,0,0,4,,,,,,,,,0,,,63,0
21060,note_on,0,0,4,,,,,,,,,0,,,64,40
21060,note_on,0,0,4,,,,,,,,,0,,,61,40
21060,note_on,30,0,1,,,,,,,,,0,,,75,0
21060,note_on,0,0,1,,,,,,,,,0,,,73,40
21060,note_on,240,0,4,,,,,,,,,0,,,59,0
21090,note_on,0,0,1,,,,,,,,,0,,,71,40
21090,note_on,30,0,1,,,,,,,,,0,,,73,0
21120,note_on,0,0,1,,,,,,,,,0,,,70,40
21120,note_on,30,0,1,,,,,,,,,0,,,71,0
21150,note_on,30,0,1,,,,,,,,,0,,,70,0
21150,note_on,0,0,1,,,,,,,,,0,,,68,40
21180,note_on,0,0,1,,,,,,,,,0,,,67,40
21180,note_on,30,0,1,,,,,,,,,0,,,68,0
21210,note_on,30,0,1,,,,,,,,,0,,,67,0
21210,note_on,0,0,1,,,,,,,,,0,,,68,40
21240,note_on,30,0,1,,,,,,,,,0,,,68,0
21240,note_on,0,0,1,,,,,,,,,0,,,70,40
21270,note_on,30,0,1,,,,,,,,,0,,,70,0
21270,note_on,0,0,1,,,,,,,,,0,,,71,40
21300,note_on,0,0,1,,,,,,,,,0,,,73,40
21300,note_on,30,0,1,,,,,,,,,0,,,71,0
21330,note_on,0,0,1,,,,,,,,,0,,,75,40
21330,note_on,30,0,1,,,,,,,,,0,,,73,0
21360,note_on,30,0,1,,,,,,,,,0,,,75,0
21360,note_on,0,0,1,,,,,,,,,0,,,76,40
21390,note_on,30,0,1,,,,,,,,,0,,,76,0
21390,note_on,0,0,1,,,,,,,,,0,,,79,40
21420,note_on,30,0,1,,,,,,,,,0,,,79,0
21420,note_on,0,0,1,,,,,,,,,0,,,80,40
21420,note_on,0,0,4,,,,,,,,,0,,,56,40
21420,note_on,0,0,4,,,,,,,,,0,,,59,40
21420,note_on,0,0,4,,,,,,,,,0,,,63,40
21420,note_on,0,0,4,,,,,,,,,0,,,56,0
21420,note_on,0,0,4,,,,,,,,,0,,,64,0
21420,note_on,360,0,4,,,,,,,,,0,,,61,0
21450,note_on,0,0,1,,,,,,,,,0,,,82,40
21450,note_on,30,0,1,,,,,,,,,0,,,80,0
21480,note_on,0,0,4,,,,,,,,,0,,,63,0
21480,note_on,0,0,4,,,,,,,,,0,,,63,40
21480,note_on,0,0,4,,,,,,,,,0,,,59,40
21480,note_on,60,0,4,,,,,,,,,0,,,56,0
21480,note_on,0,0,1,,,,,,,,,0,,,83,40
21480,note_on,30,0,1,,,,,,,,,0,,,82,0
21480,note_on,0,0,4,,,,,,,,,0,,,59,0
21480,note_on,0,0,4,,,,,,,,,0,,,56,40
21510,note_on,0,0,1,,,,,,,,,0,,,85,40
21510,note_on,30,0,1,,,,,,,,,0,,,83,0
21540,note_on,0,0,4,,,,,,,,,0,,,56,40
21540,note_on,0,0,1,,,,,,,,,0,,,88,40
21540,note_on,60,0,4,,,,,,,,,0,,,56,0
21540,note_on,0,0,4,,,,,,,,,0,,,59,0
21540,note_on,0,0,4,,,,,,,,,0,,,63,40
21540,note_on,30,0,1,,,,,,,,,0,,,85,0
21540,note_on,0,0,4,,,,,,,,,0,,,59,40
21540,note_on,0,0,4,,,,,,,,,0,,,63,0
21570,note_on,0,0,1,,,,,,,,,0,,,87,40
21570,note_on,30,0,1,,,,,,,,,0,,,88,0
21600,note_on,30,0,1,,,,,,,,,0,,,87,0
21600,note_on,0,0,1,,,,,,,,,0,,,85,40
21630,note_on,30,0,1,,,,,,,,,0,,,85,0
21630,note_on,0,0,1,,,,,,,,,0,,,83,40
21660,note_on,30,0,1,,,,,,,,,0,,,83,0
21660,note_on,0,0,1,,,,,,,,,0,,,82,40
21690,note_on,30,0,1,,,,,,,,,0,,,82,0
21690,note_on,0,0,1,,,,,,,,,0,,,80,40
21720,note_on,30,0,1,,,,,,,,,0,,,80,0
21720,note_on,0,0,1,,,,,,,,,0,,,78,40
21750,note_on,30,0,1,,,,,,,,,0,,,78,0
21750,note_on,0,0,1,,,,,,,,,0,,,76,40
21780,note_on,30,0,1,,,,,,,,,0,,,76,0
21780,note_on,0,0,1,,,,,,,,,0,,,75,40
21780,note_on,0,0,4,,,,,,,,,0,,,61,40
21780,note_on,240,0,4,,,,,,,,,0,,,59,0
21810,note_on,30,0,1,,,,,,,,,0,,,75,0
21840,note_on,30,0,1,,,,,,,,,0,,,73,40
21840,note_on,0,0,4,,,,,,,,,0,,,58,40
21840,note_on,60,0,4,,,,,,,,,0,,,61,0
21870,note_on,30,0,1,,,,,,,,,0,,,73,0
21870,note_on,0,0,1,,,,,,,,,0,,,75,40
21900,note_on,30,0,1,,,,,,,,,0,,,75,0
21900,note_on,0,0,4,,,,,,,,,0,,,59,40
21900,note_on,60,0,4,,,,,,,,,0,,,58,0
21900,note_on,0,0,1,,,,,,,,,0,,,71,40
21930,note_on,30,0,1,,,,,,,,,0,,,71,0
21930,note_on,0,0,1,,,,,,,,,0,,,75,40
21960,note_on,0,0,4,,,,,,,,,0,,,61,40
21960,note_on,60,0,4,,,,,,,,,0,,,59,0
21960,note_on,30,0,1,,,,,,,,,0,,,75,0
21960,note_on,0,0,1,,,,,,,,,0,,,70,40
21990,note_on,0,0,1,,,,,,,,,0,,,75,40
21990,note_on,30,0,1,,,,,,,,,0,,,70,0
22020,note_on,0,0,4,,,,,,,,,0,,,59,40
22020,note_on,30,0,1,,,,,,,,,0,,,75,0
22020,note_on,0,0,1,,,,,,,,,0,,,68,40
22020,note_on,60,0,4,,,,,,,,,0,,,61,0
22050,note_on,0,0,1,,,,,,,,,0,,,75,40
22050,note_on,30,0,1,,,,,,,,,0,,,68,0
22080,note_on,60,0,4,,,,,,,,,0,,,59,0
22080,note_on,0,0,4,,,,,,,,,0,,,58,40
22080,note_on,30,0,1,,,,,,,,,0,,,75,0
22080,note_on,0,0,1,,,,,,,,,0,,,67,40
22110,note_on,30,0,1,,,,,,,,,0,,,67,0
22140,note_on,0,0,4,,,,,,,,,0,,,60,40
22140,note_on,0,0,4,,,,,,,,,0,,,63,40
22140,note_on,0,0,4,,,,,,,,,0,,,63,0
22140,note_on,0,0,4,,,,,,,,,0,,,56,40
22140,note_on,0,0,4,,,,,,,,,0,,,56,0
22140,note_on,60,0,4,,,,,,,,,0,,,58,0
22140,note_on,30,0,1,,,,,,,,,0,,,80,40
22170,note_on,30,0,1,,,,,,,,,0,,,80,0
22170,note_on,0,0,1,,,,,,,,,0,,,82,41
22200,note_on,60,0,4,,,,,,,,,0,,,56,0
22200,note_on,30,0,1,,,,,,,,,0,,,82,0
22200,note_on,0,0,1,,,,,,,,,0,,,84,42
22200,note_on,0,0,4,,,,,,,,,0,,,56,42
22200,note_on,0,0,4,,,,,,,,,0,,,60,42
22200,note_on,0,0,4,,,,,,,,,0,,,63,42
22200,note_on,0,0,4,,,,,,,,,0,,,63,0
22200,note_on,0,0,4,,,,,,,,,0,,,60,0
22230,note_on,30,0,1,,,,,,,,,0,,,84,0
22230,note_on,0,0,1,,,,,,,,,0,,,85,43
22260,note_on,60,0,4,,,,,,,,,0,,,56,0
22260,note_on,0,0,4,,,,,,,,,0,,,63,45
22260,note_on,0,0,4,,,,,,,,,0,,,56,45
22260,note_on,0,0,4,,,,,,,,,0,,,60,45
22260,note_on,0,0,4,,,,,,,,,0,,,63,0
22260,note_on,30,0,1,,,,,,,,,0,,,85,0
22260,note_on,0,0,1,,,,,,,,,0,,,87,45
22260,note_on,0,0,4,,,,,,,,,0,,,60,0
22290,note_on,0,0,1,,,,,,,,,0,,,85,46
22290,note_on,30,0,1,,,,,,,,,0,,,87,0
22320,note_on,30,0,1,,,,,,,,,0,,,85,0
22320,note_on,0,0,1,,,,,,,,,0,,,84,47
22350,note_on,30,0,1,,,,,,,,,0,,,84,0
22350,note_on,0,0,1,,,,,,,,,0,,,82,49
22380,note_on,0,0,1,,,,,,,,,0,,,80,50
22380,note_on,30,0,1,,,,,,,,,0,,,82,0
22410,note_on,0,0,1,,,,,,,,,0,,,79,51
22410,note_on,30,0,1,,,,,,,,,0,,,80,0
22440,note_on,0,0,1,,,,,,,,,0,,,77,53
22440,note_on,30,0,1,,,,,,,,,0,,,79,0
22470,note_on,0,0,1,,,,,,,,,0,,,75,54
22470,note_on,30,0,1,,,,,,,,,0,,,77,0
22500,note_on,30,0,1,,,,,,,,,0,,,75,0
22500,note_on,0,0,1,,,,,,,,,0,,,73,55
22500,note_on,0,0,4,,,,,,,,,0,,,65,55
22500,note_on,0,0,4,,,,,,,,,0,,,61,55
22500,note_on,0,0,4,,,,,,,,,0,,,60,0
22500,note_on,240,0,4,,,,,,,,,0,,,63,0
22530,note_on,0,0,1,,,,,,,,,0,,,72,56
22530,note_on,30,0,1,,,,,,,,,0,,,73,0
22560,note_on,0,0,1,,,,,,,,,0,,,70,58
22560,note_on,30,0,1,,,,,,,,,0,,,72,0
22590,note_on,30,0,1,,,,,,,,,0,,,70,0
22590,note_on,0,0,1,,,,,,,,,0,,,68,59
22620,note_on,30,0,1,,,,,,,,,0,,,68,0
22620,note_on,0,0,1,,,,,,,,,0,,,67,60
22650,note_on,30,0,1,,,,,,,,,0,,,67,0
22650,note_on,0,0,1,,,,,,,,,0,,,68,62
22680,note_on,30,0,1,,,,,,,,,0,,,68,0
22680,note_on,0,0,1,,,,,,,,,0,,,70,63
22710,note_on,30,0,1,,,,,,,,,0,,,70,0
22710,note_on,0,0,1,,,,,,,,,0,,,72,64
22740,note_on,30,0,1,,,,,,,,,0,,,72,0
22740,note_on,0,0,1,,,,,,,,,0,,,73,66
22770,note_on,0,0,1,,,,,,,,,0,,,75,67
22770,note_on,30,0,1,,,,,,,,,0,,,73,0
22800,note_on,0,0,1,,,,,,,,,0,,,77,68
22800,note_on,30,0,1,,,,,,,,,0,,,75,0
22830,note_on,0,0,1,,,,,,,,,0,,,79,69
22830,note_on,30,0,1,,,,,,,,,0,,,77,0
22860,note_on,0,0,4,,,,,,,,,0,,,56,0
22860,note_on,0,0,4,,,,,,,,,0,,,61,0
22860,note_on,0,0,4,,,,,,,,,0,,,63,71
22860,note_on,0,0,4,,,,,,,,,0,,,60,71
22860,note_on,0,0,4,,,,,,,,,0,,,56,71
22860,note_on,30,0,1,,,,,,,,,0,,,79,0
22860,note_on,0,0,1,,,,,,,,,0,,,80,71
22860,note_on,360,0,4,,,,,,,,,0,,,65,0
22890,note_on,0,0,1,,,,,,,,,0,,,82,72
22890,note_on,30,0,1,,,,,,,,,0,,,80,0
22920,note_on,0,0,4,,,,,,,,,0,,,56,73
22920,note_on,0,0,4,,,,,,,,,0,,,60,0
22920,note_on,30,0,1,,,,,,,,,0,,,82,0
22920,note_on,0,0,4,,,,,,,,,0,,,60,73
22920,note_on,0,0,1,,,,,,,,,0,,,84,73
22920,note_on,60,0,4,,,,,,,,,0,,,56,0
22920,note_on,0,0,4,,,,,,,,,0,,,63,73
22920,note_on,0,0,4,,,,,,,,,0,,,63,0
22950,note_on,0,0,1,,,,,,,,,0,,,85,75
22950,note_on,30,0,1,,,,,,,,,0,,,84,0
22980,note_on,0,0,1,,,,,,,,,0,,,87,76
22980,note_on,30,0,1,,,,,,,,,0,,,85,0
22980,note_on,60,0,4,,,,,,,,,0,,,56,0
22980,note_on,0,0,4,,,,,,,,,0,,,63,76
22980,note_on,0,0,4,,,,,,,,,0,,,63,0
22980,note_on,0,0,4,,,,,,,,,0,,,60,0
22980,note_on,0,0,4,,,,,,,,,0,,,60,76
22980,note_on,0,0,4,,,,,,,,,0,,,56,76
23010,note_on,30,0,1,,,,,,,,,0,,,87,0
23010,note_on,0,0,1,,,,,,,,,0,,,89,77
23040,note_on,30,0,1,,,,,,,,,0,,,89,0
23040,note_on,0,0,1,,,,,,,,,0,,,91,79
23070,note_on,0,0,1,,,,,,,,,0,,,92,80
23070,note_on,30,0,1,,,,,,,,,0,,,91,0
23100,note_on,30,0,1,,,,,,,,,0,,,92,0
23100,note_on,0,0,1,,,,,,,,,0,,,94,81
23130,note_on,30,0,1,,,,,,,,,0,,,94,0
23130,note_on,0,0,1,,,,,,,,,0,,,96,83
23160,note_on,30,0,1,,,,,,,,,0,,,96,0
23160,note_on,0,0,1,,,,,,,,,0,,,97,84
23190,note_on,0,0,1,,,,,,,,,0,,,99,85
23190,note_on,30,0,1,,,,,,,,,0,,,97,0
23220,note_on,0,0,1,,,,,,,,,0,,,101,86
23220,note_on,0,0,4,,,,,,,,,0,,,61,86
23220,note_on,0,0,4,,,,,,,,,0,,,55,86
23220,note_on,0,0,4,,,,,,,,,0,,,60,0
23220,note_on,240,0,4,,,,,,,,,0,,,56,0
23220,note_on,0,0,4,,,,,,,,,0,,,58,86
23220,note_on,30,0,1,,,,,,,,,0,,,99,0
23250,note_on,0,0,1,,,,,,,,,0,,,99,88
23250,note_on,30,0,1,,,,,,,,,0,,,101,0
23280,note_on,0,0,1,,,,,,,,,0,,,97,89
23280,note_on,30,0,1,,,,,,,,,0,,,99,0
23310,note_on,30,0,1,,,,,,,,,0,,,97,0
23310,note_on,0,0,1,,,,,,,,,0,,,96,90
23340,note_on,30,0,1,,,,,,,,,0,,,96,0
23340,note_on,0,0,1,,,,,,,,,0,,,94,92
23370,note_on,30,0,1,,,,,,,,,0,,,94,0
23370,note_on,0,0,1,,,,,,,,,0,,,92,93
23400,note_on,0,0,1,,,,,,,,,0,,,91,94
23400,note_on,30,0,1,,,,,,,,,0,,,92,0
23430,note_on,0,0,1,,,,,,,,,0,,,89,96
23430,note_on,30,0,1,,,,,,,,,0,,,91,0
23460,note_on,30,0,1,,,,,,,,,0,,,89,0
23460,note_on,0,0,1,,,,,,,,,0,,,87,97
23490,note_on,30,0,1,,,,,,,,,0,,,87,0
23490,note_on,0,0,1,,,,,,,,,0,,,85,98
23520,note_on,30,0,1,,,,,,,,,0,,,85,0
23520,note_on,0,0,1,,,,,,,,,0,,,84,99
23550,note_on,30,0,1,,,,,,,,,0,,,84,0
23550,note_on,0,0,1,,,,,,,,,0,,,82,100
23580,note_on,0,0,4,,,,,,,,,0,,,58,0
23580,note_on,0,0,4,,,,,,,,,0,,,63,0
23580,note_on,360,0,4,,,,,,,,,0,,,61,0
23580,note_on,30,0,1,,,,,,,,,0,,,82,0
23580,note_on,0,0,4,,,,,,,,,0,,,55,0
23580,note_on,0,0,4,,,,,,,,,0,,,56,100
23580,note_on,0,0,4,,,,,,,,,0,,,59,100
23580,note_on,0,0,4,,,,,,,,,0,,,63,100
23580,note_on,0,0,1,,,,,,,,,0,,,80,100
23610,note_on,0,0,1,,,,,,,,,0,,,82,100
23610,note_on,30,0,1,,,,,,,,,0,,,80,0
23640,note_on,30,0,1,,,,,,,,,0,,,82,0
23640,note_on,60,0,4,,,,,,,,,0,,,56,0
23640,note_on,0,0,4,,,,,,,,,0,,,59,0
23640,note_on,0,0,4,,,,,,,,,0,,,63,0
23640,note_on,0,0,4,,,,,,,,,0,,,63,100
23640,note_on,0,0,4,,,,,,,,,0,,,59,100
23640,note_on,0,0,4,,,,,,,,,0,,,56,100
23640,note_on,0,0,1,,,,,,,,,0,,,83,100
23670,note_on,30,0,1,,,,,,,,,0,,,83,0
23670,note_on,0,0,1,,,,,,,,,0,,,85,100
23700,note_on,60,0,4,,,,,,,,,0,,,56,0
23700,note_on,0,0,4,,,,,,,,,0,,,63,0
23700,note_on,0,0,4,,,,,,,,,0,,,63,100
23700,note_on,0,0,4,,,,,,,,,0,,,59,100
23700,note_on,0,0,4,,,,,,,,,0,,,56,100
23700,note_on,0,0,1,,,,,,,,,0,,,87,100
23700,note_on,30,0,1,,,,,,,,,0,,,85,0
23700,note_on,0,0,4,,,,,,,,,0,,,59,0
23730,note_on,0,0,1,,,,,,,,,0,,,85,100
23730,note_on,30,0,1,,,,,,,,,0,,,87,0
23760,note_on,30,0,1,,,,,,,,,0,,,85,0
23760,note_on,0,0,1,,,,,,,,,0,,,83,100
23790,note_on,30,0,1,,,,,,,,,0,,,83,0
23790,note_on,0,0,1,,,,,,,,,0,,,82,100
23820,note_on,30,0,1,,,,,,,,,0,,,82,0
23820,note_on,0,0,1,,,,,,,,,0,,,80,100
23850,note_on,30,0,1,,,,,,,,,0,,,80,0
23850,note_on,0,0,1,,,,,,,,,0,,,78,100
23880,note_on,0,0,1,,,,,,,,,0,,,76,100
23880,note_on,30,0,1,,,,,,,,,0,,,78,0
23910,note_on,0,0,1,,,,,,,,,0,,,75,100
23910,note_on,30,0,1,,,,,,,,,0,,,76,0
23940,note_on,30,0,1,,,,,,,,,0,,,75,0
23940,note_on,0,0,1,,,,,,,,,0,,,73,100
23940,note_on,0,0,4,,,,,,,,,0,,,64,100
23940,note_on,0,0,4,,,,,,,,,0,,,63,0
23940,note_on,240,0,4,,,,,,,,,0,,,59,0
23940,note_on,0,0,4,,,,,,,,,0,,,61,100
23970,note_on,30,0,1,,,,,,,,,0,,,73,0
23970,note_on,0,0,1,,,,,,,,,0,,,71,100
24000,note_on,30,0,1,,,,,,,,,0,,,71,0
24000,note_on,0,0,1,,,,,,,,,0,,,70,100
24030,note_on,0,0,1,,,,,,,,,0,,,68,100
24030,note_on,30,0,1,,,,,,,,,0,,,70,0
24060,note_on,30,0,1,,,,,,,,,0,,,68,0
24060,note_on,0,0,1,,,,,,,,,0,,,67,100
24090,note_on,30,0,1,,,,,,,,,0,,,67,0
24090,note_on,0,0,1,,,,,,,,,0,,,68,100
24120,note_on,30,0,1,,,,,,,,,0,,,68,0
24120,note_on,0,0,1,,,,,,,,,0,,,70,100
24150,note_on,30,0,1,,,,,,,,,0,,,70,0
24150,note_on,0,0,1,,,,,,,,,0,,,71,100
24180,note_on,30,0,1,,,,,,,,,0,,,71,0
24180,note_on,0,0,1,,,,,,,,,0,,,73,100
24210,note_on,30,0,1,,,,,,,,,0,,,73,0
24210,note_on,0,0,1,,,,,,,,,0,,,75,100
24240,note_on,30,0,1,,,,,,,,,0,,,75,0
24240,note_on,0,0,1,,,,,,,,,0,,,76,100
24270,note_on,30,0,1,,,,,,,,,0,,,76,0
24270,note_on,0,0,1,,,,,,,,,0,,,79,100
24300,note_on,0,0,4,,,,,,,,,0,,,56,100
24300,note_on,0,0,4,,,,,,,,,0,,,59,100
24300,note_on,0,0,4,,,,,,,,,0,,,63,100
24300,note_on,0,0,4,,,,,,,,,0,,,56,0
24300,note_on,360,0,4,,,,,,,,,0,,,61,0
24300,note_on,0,0,4,,,,,,,,,0,,,64,0
24300,note_on,0,0,1,,,,,,,,,0,,,80,100
24300,note_on,30,0,1,,,,,,,,,0,,,79,0
24330,note_on,0,0,1,,,,,,,,,0,,,82,100
24330,note_on,30,0,1,,,,,,,,,0,,,80,0
24360,note_on,0,0,4,,,,,,,,,0,,,59,0
24360,note_on,0,0,4,,,,,,,,,0,,,56,100
24360,note_on,30,0,1,,,,,,,,,0,,,82,0
24360,note_on,0,0,4,,,,,,,,,0,,,59,100
24360,note_on,60,0,4,,,,,,,,,0,,,56,0
24360,note_on,0,0,1,,,,,,,,,0,,,83,100
24360,note_on,0,0,4,,,,,,,,,0,,,63,0
24360,note_on,0,0,4,,,,,,,,,0,,,63,100
24390,note_on,30,0,1,,,,,,,,,0,,,83,0
24390,note_on,0,0,1,,,,,,,,,0,,,85,100
24420,note_on,60,0,4,,,,,,,,,0,,,56,0
24420,note_on,0,0,4,,,,,,,,,0,,,59,0
24420,note_on,0,0,4,,,,,,,,,0,,,63,100
24420,note_on,0,0,4,,,,,,,,,0,,,59,100
24420,note_on,0,0,4,,,,,,,,,0,,,56,100
24420,note_on,0,0,4,,,,,,,,,0,,,63,0
24420,note_on,30,0,1,,,,,,,,,0,,,85,0
24420,note_on,0,0,1,,,,,,,,,0,,,87,100
24450,note_on,0,0,1,,,,,,,,,0,,,89,100
24450,note_on,30,0,1,,,,,,,,,0,,,87,0
24480,note_on,30,0,1,,,,,,,,,0,,,89,0
24480,note_on,0,0,1,,,,,,,,,0,,,91,100
24510,note_on,30,0,1,,,,,,,,,0,,,91,0
24510,note_on,0,0,1,,,,,,,,,0,,,92,100
24540,note_on,0,0,1,,,,,,,,,0,,,94,100
24540,note_on,30,0,1,,,,,,,,,0,,,92,0
24570,note_on,0,0,1,,,,,,,,,0,,,95,100
24570,note_on,30,0,1,,,,,,,,,0,,,94,0
24600,note_on,0,0,1,,,,,,,,,0,,,97,100
24600,note_on,30,0,1,,,,,,,,,0,,,95,0
24630,note_on,0,0,1,,,,,,,,,0,,,99,100
24630,note_on,30,0,1,,,,,,,,,0,,,97,0
24660,note_on,0,0,4,,,,,,,,,0,,,64,100
24660,note_on,0,0,4,,,,,,,,,0,,,58,100
24660,note_on,30,0,1,,,,,,,,,0,,,99,0
24660,note_on,0,0,4,,,,,,,,,0,,,63,0
24660,note_on,0,0,4,,,,,,,,,0,,,59,0
24660,note_on,240,0,4,,,,,,,,,0,,,56,0
24660,note_on,0,0,4,,,,,,,,,0,,,55,100
24660,note_on,0,0,4,,,,,,,,,0,,,61,100
24660,note_on,0,0,1,,,,,,,,,0,,,100,100
24690,note_on,30,0,1,,,,,,,,,0,,,100,0
24690,note_on,0,0,1,,,,,,,,,0,,,99,100
24720,note_on,0,0,1,,,,,,,,,0,,,97,100
24720,note_on,30,0,1,,,,,,,,,0,,,99,0
24750,note_on,0,0,1,,,,,,,,,0,,,95,100
24750,note_on,30,0,1,,,,,,,,,0,,,97,0
24780,note_on,30,0,1,,,,,,,,,0,,,95,0
24780,note_on,0,0,1,,,,,,,,,0,,,94,100
24810,note_on,30,0,1,,,,,,,,,0,,,94,0
24810,note_on,0,0,1,,,,,,,,,0,,,92,100
24840,note_on,0,0,4,,,,,,,,,0,,,63,100
24840,note_on,180,0,4,,,,,,,,,0,,,64,0
24840,note_on,0,0,1,,,,,,,,,0,,,91,100
24840,note_on,30,0,1,,,,,,,,,0,,,92,0
24870,note_on,0,0,1,,,,,,,,,0,,,88,100
24870,note_on,30,0,1,,,,,,,,,0,,,91,0
24900,note_on,0,0,1,,,,,,,,,0,,,87,100
24900,note_on,30,0,1,,,,,,,,,0,,,88,0
24930,note_on,30,0,1,,,,,,,,,0,,,87,0
24930,note_on,0,0,1,,,,,,,,,0,,,85,100
24960,note_on,30,0,1,,,,,,,,,0,,,85,0
24960,note_on,0,0,1,,,,,,,,,0,,,83,100
24990,note_on,0,0,1,,,,,,,,,0,,,82,100
24990,note_on,30,0,1,,,,,,,,,0,,,83,0
25020,note_on,0,0,4,,,,,,,,,0,,,61,0
25020,note_on,180,0,4,,,,,,,,,0,,,63,0
25020,note_on,0,0,1,,,,,,,,,0,,,87,100
25020,note_on,30,0,1,,,,,,,,,0,,,82,0
25020,note_on,0,0,4,,,,,,,,,0,,,59,100
25020,note_on,0,0,4,,,,,,,,,0,,,56,100
25020,note_on,0,0,4,,,,,,,,,0,,,55,0
25020,note_on,0,0,4,,,,,,,,,0,,,63,100
25020,note_on,0,0,4,,,,,,,,,0,,,58,0
25050,note_on,30,0,1,,,,,,,,,0,,,87,0
25050,note_on,0,0,1,,,,,,,,,0,,,85,97
25080,note_on,0,0,1,,,,,,,,,0,,,83,93
25080,note_on,30,0,1,,,,,,,,,0,,,85,0
25110,note_on,0,0,1,,,,,,,,,0,,,82,89
25110,note_on,30,0,1,,,,,,,,,0,,,83,0
25140,note_on,30,0,1,,,,,,,,,0,,,82,0
25140,note_on,0,0,1,,,,,,,,,0,,,80,86
25170,note_on,0,0,1,,,,,,,,,0,,,78,82
25170,note_on,30,0,1,,,,,,,,,0,,,80,0
25200,note_on,30,0,1,,,,,,,,,0,,,78,0
25200,note_on,0,0,1,,,,,,,,,0,,,76,78
25200,note_on,180,0,4,,,,,,,,,0,,,56,0
25200,note_on,0,0,4,,,,,,,,,0,,,47,78
25200,note_on,0,0,4,,,,,,,,,0,,,51,78
25200,note_on,0,0,4,,,,,,,,,0,,,56,78
25200,note_on,0,0,4,,,,,,,,,0,,,63,0
25200,note_on,0,0,4,,,,,,,,,0,,,59,0
25230,note_on,30,0,1,,,,,,,,,0,,,76,0
25230,note_on,0,0,1,,,,,,,,,0,,,75,74
25260,note_on,0,0,1,,,,,,,,,0,,,73,71
25260,note_on,30,0,1,,,,,,,,,0,,,75,0
25290,note_on,0,0,1,,,,,,,,,0,,,71,67
25290,note_on,30,0,1,,,,,,,,,0,,,73,0
25320,note_on,30,0,1,,,,,,,,,0,,,71,0
25320,note_on,0,0,1,,,,,,,,,0,,,70,63
25350,note_on,30,0,1,,,,,,,,,0,,,70,0
25350,note_on,0,0,1,,,,,,,,,0,,,68,60
25380,note_on,30,0,1,,,,,,,,,0,,,68,0
25380,note_on,0,0,1,,,,,,,,,0,,,69,60
25380,note_on,180,0,4,,,,,,,,,0,,,47,0
25380,note_on,0,0,4,,,,,,,,,0,,,51,0
25380,note_on,0,0,4,,,,,,,,,0,,,56,0
25380,note_on,0,0,4,,,,,,,,,0,,,49,70
25410,note_on,30,0,1,,,,,,,,,0,,,69,0
25410,note_on,0,0,1,,,,,,,,,0,,,73,60
25440,note_on,30,0,1,,,,,,,,,0,,,73,0
25440,note_on,0,0,1,,,,,,,,,0,,,69,60
25470,note_on,0,0,1,,,,,,,,,0,,,73,60
25470,note_on,30,0,1,,,,,,,,,0,,,69,0
25500,note_on,0,0,4,,,,,,,,,0,,,57,60
25500,note_on,30,0,1,,,,,,,,,0,,,73,0
25500,note_on,120,0,4,,,,,,,,,0,,,61,60
25500,note_on,0,0,1,,,,,,,,,0,,,76,60
25530,note_on,30,0,1,,,,,,,,,0,,,76,0
25530,note_on,0,0,4,,,,,,,,,0,,,61,0
25530,note_on,30,0,4,,,,,,,,,0,,,57,0
25560,note_on,30,0,1,,,,,,,,,0,,,67,60
25560,note_on,30,0,4,,,,,,,,,0,,,49,0
25560,note_on,0,0,4,,,,,,,,,0,,,51,70
25590,note_on,30,0,1,,,,,,,,,0,,,67,0
25590,note_on,0,0,1,,,,,,,,,0,,,70,60
25620,note_on,30,0,1,,,,,,,,,0,,,70,0
25620,note_on,0,0,1,,,,,,,,,0,,,67,60
25650,note_on,0,0,1,,,,,,,,,0,,,70,60
25650,note_on,30,0,1,,,,,,,,,0,,,67,0
25680,note_on,0,0,4,,,,,,,,,0,,,58,60
25680,note_on,30,0,1,,,,,,,,,0,,,70,0
25680,note_on,0,0,1,,,,,,,,,0,,,75,60
25680,note_on,120,0,4,,,,,,,,,0,,,61,60
25710,note_on,30,0,4,,,,,,,,,0,,,58,0
25710,note_on,0,0,4,,,,,,,,,0,,,61,0
25710,note_on,30,0,1,,,,,,,,,0,,,75,0
25740,note_on,30,0,4,,,,,,,,,0,,,51,0
25740,note_on,0,0,4,,,,,,,,,0,,,47,110
25740,note_on,30,0,1,,,,,,,,,0,,,99,100
25770,note_on,30,0,1,,,,,,,,,0,,,99,0
25770,note_on,0,0,1,,,,,,,,,0,,,97,97
25800,note_on,30,0,1,,,,,,,,,0,,,97,0
25800,note_on,0,0,1,,,,,,,,,0,,,95,93
25830,note_on,30,0,1,,,,,,,,,0,,,95,0
25830,note_on,0,0,1,,,,,,,,,0,,,94,89
25860,note_on,120,0,4,,,,,,,,,0,,,59,86
25860,note_on,0,0,4,,,,,,,,,0,,,51,86
25860,note_on,30,0,1,,,,,,,,,0,,,94,0
25860,note_on,0,0,1,,,,,,,,,0,,,92,86
25860,note_on,0,0,4,,,,,,,,,0,,,56,86
25890,note_on,0,0,1,,,,,,,,,0,,,90,82
25890,note_on,30,0,1,,,,,,,,,0,,,92,0
25920,note_on,30,0,1,,,,,,,,,0,,,90,0
25920,note_on,0,0,1,,,,,,,,,0,,,88,78
25950,note_on,30,0,1,,,,,,,,,0,,,88,0
25950,note_on,0,0,1,,,,,,,,,0,,,87,74
25980,note_on,30,0,1,,,,,,,,,0,,,87,0
25980,note_on,0,0,1,,,,,,,,,0,,,85,71
26010,note_on,30,0,1,,,,,,,,,0,,,85,0
26010,note_on,0,0,1,,,,,,,,,0,,,83,67
26040,note_on,30,0,1,,,,,,,,,0,,,83,0
26040,note_on,0,0,1,,,,,,,,,0,,,82,63
26070,note_on,30,0,1,,,,,,,,,0,,,82,0
26070,note_on,0,0,1,,,,,,,,,0,,,80,60
26100,note_on,30,0,1,,,,,,,,,0,,,80,0
26100,note_on,0,0,1,,,,,,,,,0,,,81,60
26100,note_on,240,0,4,,,,,,,,,0,,,51,0
26100,note_on,0,0,4,,,,,,,,,0,,,47,0
26100,note_on,0,0,4,,,,,,,,,0,,,59,0
26100,note_on,0,0,4,,,,,,,,,0,,,56,0
26100,note_on,0,0,4,,,,,,,,,0,,,49,70
26130,note_on,0,0,1,,,,,,,,,0,,,85,60
26130,note_on,30,0,1,,,,,,,,,0,,,81,0
26160,note_on,0,0,1,,,,,,,,,0,,,81,60
26160,note_on,30,0,1,,,,,,,,,0,,,85,0
26190,note_on,0,0,1,,,,,,,,,0,,,85,60
26190,note_on,30,0,1,,,,,,,,,0,,,81,0
26220,note_on,30,0,1,,,,,,,,,0,,,85,0
26220,note_on,0,0,1,,,,,,,,,0,,,88,60
26220,note_on,0,0,4,,,,,,,,,0,,,57,60
26220,note_on,120,0,4,,,,,,,,,0,,,61,60
26250,note_on,0,0,4,,,,,,,,,0,,,61,0
26250,note_on,30,0,4,,,,,,,,,0,,,57,0
26250,note_on,30,0,1,,,,,,,,,0,,,88,0
26280,note_on,0,0,4,,,,,,,,,0,,,51,70
26280,note_on,30,0,4,,,,,,,,,0,,,49,0
26280,note_on,30,0,1,,,,,,,,,0,,,79,60
26310,note_on,30,0,1,,,,,,,,,0,,,79,0
26310,note_on,0,0,1,,,,,,,,,0,,,82,60
26340,note_on,0,0,1,,,,,,,,,0,,,79,60
26340,note_on,30,0,1,,,,,,,,,0,,,82,0
26370,note_on,0,0,1,,,,,,,,,0,,,82,60
26370,note_on,30,0,1,,,,,,,,,0,,,79,0
26400,note_on,0,0,1,,,,,,,,,0,,,87,60
26400,note_on,0,0,4,,,,,,,,,0,,,58,60
26400,note_on,30,0,1,,,,,,,,,0,,,82,0
26400,note_on,120,0,4,,,,,,,,,0,,,61,60
26430,note_on,0,0,4,,,,,,,,,0,,,61,0
26430,note_on,30,0,1,,,,,,,,,0,,,87,0
26430,note_on,30,0,4,,,,,,,,,0,,,58,0
26460,note_on,0,0,4,,,,,,,,,0,,,47,110
26460,note_on,30,0,1,,,,,,,,,0,,,92,100
26460,note_on,30,0,4,,,,,,,,,0,,,51,0
26490,note_on,30,0,1,,,,,,,,,0,,,92,0
26490,note_on,0,0,1,,,,,,,,,0,,,87,97
26520,note_on,30,0,1,,,,,,,,,0,,,87,0
26520,note_on,0,0,1,,,,,,,,,0,,,85,93
26550,note_on,30,0,1,,,,,,,,,0,,,85,0
26550,note_on,0,0,1,,,,,,,,,0,,,83,89
26580,note_on,120,0,4,,,,,,,,,0,,,59,86
26580,note_on,0,0,1,,,,,,,,,0,,,82,86
26580,note_on,0,0,4,,,,,,,,,0,,,56,86
26580,note_on,30,0,1,,,,,,,,,0,,,83,0
26580,note_on,0,0,4,,,,,,,,,0,,,51,86
26600,note_on,0,0,1,,,,,,,,,0,,,80,83
26600,note_on,20,0,1,,,,,,,,,0,,,82,0
26620,note_on,0,0,1,,,,,,,,,0,,,78,81
26620,note_on,20,0,1,,,,,,,,,0,,,80,0
26640,note_on,0,0,1,,,,,,,,,0,,,76,78
26640,note_on,20,0,1,,,,,,,,,0,,,78,0
26670,note_on,30,0,1,,,,,,,,,0,,,76,0
26670,note_on,0,0,1,,,,,,,,,0,,,75,74
26700,note_on,0,0,1,,,,,,,,,0,,,73,71
26700,note_on,30,0,1,,,,,,,,,0,,,75,0
26730,note_on,0,0,1,,,,,,,,,0,,,71,67
26730,note_on,30,0,1,,,,,,,,,0,,,73,0
26760,note_on,0,0,1,,,,,,,,,0,,,70,63
26760,note_on,30,0,1,,,,,,,,,0,,,71,0
26790,note_on,30,0,1,,,,,,,,,0,,,70,0
26790,note_on,0,0,1,,,,,,,,,0,,,68,60
26820,note_on,0,0,4,,,,,,,,,0,,,59,0
26820,note_on,0,0,4,,,,,,,,,0,,,56,0
26820,note_on,0,0,4,,,,,,,,,0,,,49,70
26820,note_on,30,0,1,,,,,,,,,0,,,68,0
26820,note_on,0,0,1,,,,,,,,,0,,,69,60
26820,note_on,0,0,4,,,,,,,,,0,,,47,0
26820,note_on,240,0,4,,,,,,,,,0,,,51,0
26823,set_tempo,7563,1,0,,,,,,476228,,,,,,,
26830,set_tempo,7,1,0,,,,,,486657,,,,,,,
26837,set_tempo,7,1,0,,,,,,497554,,,,,,,
26844,set_tempo,7,1,0,,,,,,508949,,,,,,,
26850,note_on,0,0,1,,,,,,,,,0,,,73,60
26850,note_on,30,0,1,,,,,,,,,0,,,69,0
26851,set_tempo,7,1,0,,,,,,520879,,,,,,,
26858,set_tempo,7,1,0,,,,,,533381,,,,,,,
26865,set_tempo,7,1,0,,,,,,546498,,,,,,,
26872,set_tempo,7,1,0,,,,,,560276,,,,,,,
26880,note_on,30,0,1,,,,,,,,,0,,,73,0
26880,set_tempo,8,1,0,,,,,,576424,,,,,,,
26880,note_on,0,0,1,,,,,,,,,0,,,69,60
26887,set_tempo,7,1,0,,,,,,591774,,,,,,,
26894,set_tempo,7,1,0,,,,,,607964,,,,,,,
26901,set_tempo,7,1,0,,,,,,625065,,,,,,,
26908,set_tempo,7,1,0,,,,,,643156,,,,,,,
26910,note_on,0,0,1,,,,,,,,,0,,,73,60
26910,note_on,30,0,1,,,,,,,,,0,,,69,0
26915,set_tempo,7,1,0,,,,,,662325,,,,,,,
26922,set_tempo,7,1,0,,,,,,682672,,,,,,,
26929,set_tempo,7,1,0,,,,,,704308,,,,,,,
26936,set_tempo,7,1,0,,,,,,730016,,,,,,,
26940,note_on,120,0,4,,,,,,,,,0,,,61,60
26940,note_on,0,0,1,,,,,,,,,0,,,76,60
26940,note_on,30,0,1,,,,,,,,,0,,,73,0
26940,note_on,0,0,4,,,,,,,,,0,,,57,60
26943,set_tempo,7,1,0,,,,,,754812,,,,,,,
26950,set_tempo,7,1,0,,,,,,781352,,,,,,,
26957,set_tempo,7,1,0,,,,,,809826,,,,,,,
26964,set_tempo,7,1,0,,,,,,840454,,,,,,,
26971,set_tempo,7,1,0,,,,,,873490,,,,,,,
26978,set_tempo,7,1,0,,,,,,909229,,,,,,,
26985,set_tempo,7,1,0,,,,,,948017,,,,,,,
26992,set_tempo,7,1,0,,,,,,995190,,,,,,,
27000,note_on,0,0,4,,,,,,,,,0,,,51,70
27000,note_on,0,0,4,,,,,,,,,0,,,49,0
27000,note_on,0,0,4,,,,,,,,,0,,,61,0
27000,note_on,60,0,4,,,,,,,,,0,,,57,0
27000,set_tempo,8,1,0,,,,,,1000000,,,,,,,
27060,note_on,0,0,1,,,,,,,,,0,,,75,60
27060,note_on,120,0,1,,,,,,,,,0,,,76,0
27120,note_on,120,0,4,,,,,,,,,0,,,61,60
27120,note_on,0,0,4,,,,,,,,,0,,,58,60
27120,set_tempo,120,1,0,,,,,,1363636,,,,,,,
27120,note_on,0,0,1,,,,,,,,,0,,,67,60
27120,note_on,60,0,1,,,,,,,,,0,,,75,0
27180,marker,0,1,0,,,,,,,,,,,,,
27180,note_on,0,0,1,,,,,,,,,0,,,68,40
27180,note_on,60,0,1,,,,,,,,,0,,,67,0
27180,note_on,0,0,4,,,,,,,,,0,,,44,50
27180,note_on,60,0,4,,,,,,,,,0,,,58,0
27180,note_on,0,0,4,,,,,,,,,0,,,61,0
27180,note_on,0,0,4,,,,,,,,,0,,,51,0
27180,set_tempo,60,1,0,,,,,,476190,,,,,,,
27210,note_on,0,0,1,,,,,,,,,0,,,71,40
27210,note_on,30,0,1,,,,,,,,,0,,,68,0
27240,note_on,0,0,1,,,,,,,,,0,,,68,40
27240,note_on,30,0,1,,,,,,,,,0,,,71,0
27240,note_on,60,0,4,,,,,,,,,0,,,44,0
27270,note_on,30,0,1,,,,,,,,,0,,,68,0
27270,note_on,0,0,1,,,,,,,,,0,,,71,40
27300,note_on,30,0,1,,,,,,,,,0,,,71,0
27300,note_on,0,0,1,,,,,,,,,0,,,80,40
27300,note_on,60,0,4,,,,,,,,,0,,,59,40
27300,note_on,0,0,4,,,,,,,,,0,,,56,40
27330,note_on,30,0,1,,,,,,,,,0,,,80,0
27330,note_on,30,0,4,,,,,,,,,0,,,56,0
27330,note_on,0,0,4,,,,,,,,,0,,,59,0
27360,note_on,30,0,1,,,,,,,,,0,,,70,40
27360,note_on,30,0,4,,,,,,,,,0,,,44,50
27390,note_on,30,0,1,,,,,,,,,0,,,70,0
27390,note_on,0,0,1,,,,,,,,,0,,,73,40
27420,note_on,60,0,4,,,,,,,,,0,,,44,0
27420,note_on,30,0,1,,,,,,,,,0,,,73,0
27420,note_on,0,0,1,,,,,,,,,0,,,70,40
27450,note_on,30,0,1,,,,,,,,,0,,,70,0
27450,note_on,0,0,1,,,,,,,,,0,,,73,40
27480,note_on,60,0,4,,,,,,,,,0,,,61,40
27480,note_on,0,0,4,,,,,,,,,0,,,58,40
27480,note_on,0,0,1,,,,,,,,,0,,,82,40
27480,note_on,30,0,1,,,,,,,,,0,,,73,0
27510,note_on,30,0,4,,,,,,,,,0,,,58,0
27510,note_on,30,0,1,,,,,,,,,0,,,82,0
27510,note_on,0,0,4,,,,,,,,,0,,,61,0
27540,note_on,30,0,4,,,,,,,,,0,,,44,50
27540,note_on,30,0,1,,,,,,,,,0,,,71,40
27570,note_on,0,0,1,,,,,,,,,0,,,75,40
27570,note_on,30,0,1,,,,,,,,,0,,,71,0
27600,note_on,0,0,1,,,,,,,,,0,,,71,40
27600,note_on,30,0,1,,,,,,,,,0,,,75,0
27600,note_on,60,0,4,,,,,,,,,0,,,44,0
27630,note_on,0,0,1,,,,,,,,,0,,,75,40
27630,note_on,30,0,1,,,,,,,,,0,,,71,0
27660,note_on,30,0,1,,,,,,,,,0,,,75,0
27660,note_on,60,0,4,,,,,,,,,0,,,63,40
27660,note_on,0,0,4,,,,,,,,,0,,,59,40
27660,note_on,0,0,1,,,,,,,,,0,,,83,40
27690,note_on,0,0,4,,,,,,,,,0,,,63,0
27690,note_on,30,0,1,,,,,,,,,0,,,83,0
27690,note_on,30,0,4,,,,,,,,,0,,,59,0
27720,note_on,0,0,1,,,,,,,,,0,,,70,50
27720,note_on,0,0,4,,,,,,,,,0,,,61,50
27720,note_on,0,0,4,,,,,,,,,0,,,58,50
27720,note_on,0,0,1,,,,,,,,,0,,,73,50
27720,note_on,30,0,4,,,,,,,,,0,,,63,50
27720,note_on,30,0,1,,,,,,,,,0,,,82,50
27750,note_on,0,0,4,,,,,,,,,0,,,61,0
27750,note_on,0,0,1,,,,,,,,,0,,,82,0
27750,note_on,0,0,1,,,,,,,,,0,,,73,0
27750,note_on,30,0,1,,,,,,,,,0,,,70,0
27750,note_on,0,0,4,,,,,,,,,0,,,63,0
27750,note_on,30,0,4,,,,,,,,,0,,,58,0
27780,note_on,0,0,4,,,,,,,,,0,,,61,50
27780,note_on,0,0,4,,,,,,,,,0,,,58,50
27780,note_on,30,0,4,,,,,,,,,0,,,63,50
27780,note_on,0,0,1,,,,,,,,,0,,,70,50
27780,note_on,30,0,1,,,,,,,,,0,,,73,50
27780,note_on,0,0,1,,,,,,,,,0,,,82,50
27810,note_on,0,0,4,,,,,,,,,0,,,58,0
27810,note_on,0,0,4,,,,,,,,,0,,,63,0
27810,note_on,0,0,1,,,,,,,,,0,,,73,0
27810,note_on,0,0,1,,,,,,,,,0,,,70,0
27810,note_on,30,0,4,,,,,,,,,0,,,61,0
27810,note_on,30,0,1,,,,,,,,,0,,,82,0
27840,note_on,0,0,4,,,,,,,,,0,,,56,50
27840,note_on,0,0,4,,,,,,,,,0,,,59,50
27840,note_on,30,0,4,,,,,,,,,0,,,63,50
27840,note_on,0,0,1,,,,,,,,,0,,,68,50
27840,note_on,0,0,1,,,,,,,,,0,,,80,50
27840,note_on,30,0,1,,,,,,,,,0,,,71,50
27870,note_on,0,0,1,,,,,,,,,0,,,71,0
27870,note_on,0,0,1,,,,,,,,,0,,,68,0
27870,note_on,30,0,1,,,,,,,,,0,,,80,0
27870,note_on,30,0,4,,,,,,,,,0,,,56,0
27870,note_on,0,0,4,,,,,,,,,0,,,59,0
27870,note_on,0,0,4,,,,,,,,,0,,,63,0
27900,note_on,30,0,1,,,,,,,,,0,,,67,40
27900,note_on,30,0,4,,,,,,,,,0,,,51,50
27930,note_on,30,0,1,,,,,,,,,0,,,67,0
27930,note_on,0,0,1,,,,,,,,,0,,,70,40
27960,note_on,30,0,1,,,,,,,,,0,,,70,0
27960,note_on,0,0,1,,,,,,,,,0,,,67,40
27990,note_on,0,0,1,,,,,,,,,0,,,70,40
27990,note_on,30,0,1,,,,,,,,,0,,,67,0
28020,note_on,30,0,1,,,,,,,,,0,,,70,0
28020,note_on,120,0,4,,,,,,,,,0,,,51,0
28020,note_on,0,0,4,,,,,,,,,0,,,58,40
28020,note_on,0,0,4,,,,,,,,,0,,,55,40
28020,note_on,0,0,1,,,,,,,,,0,,,79,40
28050,note_on,30,0,1,,,,,,,,,0,,,79,0
28050,note_on,30,0,4,,,,,,,,,0,,,55,0
28050,note_on,0,0,4,,,,,,,,,0,,,58,0
28080,note_on,30,0,1,,,,,,,,,0,,,68,40
28080,note_on,30,0,4,,,,,,,,,0,,,51,50
28110,note_on,30,0,1,,,,,,,,,0,,,68,0
28110,note_on,0,0,1,,,,,,,,,0,,,71,40
28140,note_on,30,0,1,,,,,,,,,0,,,71,0
28140,note_on,0,0,1,,,,,,,,,0,,,68,40
28170,note_on,0,0,1,,,,,,,,,0,,,71,40
28170,note_on,30,0,1,,,,,,,,,0,,,68,0
28200,note_on,0,0,4,,,,,,,,,0,,,56,40
28200,note_on,120,0,4,,,,,,,,,0,,,51,0
28200,note_on,30,0,1,,,,,,,,,0,,,71,0
28200,note_on,0,0,1,,,,,,,,,0,,,80,40
28200,note_on,0,0,4,,,,,,,,,0,,,59,40
28230,note_on,0,0,4,,,,,,,,,0,,,59,0
28230,note_on,30,0,4,,,,,,,,,0,,,56,0
28230,note_on,30,0,1,,,,,,,,,0,,,80,0
28260,note_on,30,0,1,,,,,,,,,0,,,70,40
28260,note_on,30,0,4,,,,,,,,,0,,,51,50
28290,note_on,30,0,1,,,,,,,,,0,,,70,0
28290,note_on,0,0,1,,,,,,,,,0,,,73,40
28320,note_on,30,0,1,,,,,,,,,0,,,73,0
28320,note_on,0,0,1,,,,,,,,,0,,,70,40
28350,note_on,0,0,1,,,,,,,,,0,,,73,40
28350,note_on,30,0,1,,,,,,,,,0,,,70,0
28380,note_on,120,0,4,,,,,,,,,0,,,51,0
28380,note_on,0,0,1,,,,,,,,,0,,,82,40
28380,note_on,30,0,1,,,,,,,,,0,,,73,0
28380,note_on,0,0,4,,,,,,,,,0,,,58,40
28380,note_on,0,0,4,,,,,,,,,0,,,61,40
28410,note_on,30,0,4,,,,,,,,,0,,,58,0
28410,note_on,0,0,4,,,,,,,,,0,,,61,0
28410,note_on,30,0,1,,,,,,,,,0,,,82,0
28440,note_on,30,0,4,,,,,,,,,0,,,59,50
28440,note_on,0,0,1,,,,,,,,,0,,,80,50
28440,note_on,0,0,4,,,,,,,,,0,,,56,50
28440,note_on,0,0,1,,,,,,,,,0,,,68,50
28440,note_on,30,0,1,,,,,,,,,0,,,71,50
28440,note_on,0,0,4,,,,,,,,,0,,,51,50
28470,note_on,0,0,4,,,,,,,,,0,,,59,0
28470,note_on,30,0,4,,,,,,,,,0,,,51,0
28470,note_on,0,0,1,,,,,,,,,0,,,71,0
28470,note_on,0,0,1,,,,,,,,,0,,,68,0
28470,note_on,30,0,1,,,,,,,,,0,,,80,0
28470,note_on,0,0,4,,,,,,,,,0,,,56,0
28500,note_on,30,0,4,,,,,,,,,0,,,59,50
28500,note_on,0,0,4,,,,,,,,,0,,,56,50
28500,note_on,0,0,4,,,,,,,,,0,,,51,50
28500,note_on,0,0,1,,,,,,,,,0,,,80,50
28500,note_on,0,0,1,,,,,,,,,0,,,68,50
28500,note_on,30,0,1,,,,,,,,,0,,,71,50
28530,note_on,0,0,1,,,,,,,,,0,,,71,0
28530,note_on,0,0,1,,,,,,,,,0,,,68,0
28530,note_on,30,0,1,,,,,,,,,0,,,80,0
28530,note_on,30,0,4,,,,,,,,,0,,,51,0
28530,note_on,0,0,4,,,,,,,,,0,,,56,0
28530,note_on,0,0,4,,,,,,,,,0,,,59,0
28560,note_on,30,0,4,,,,,,,,,0,,,58,50
28560,note_on,0,0,4,,,,,,,,,0,,,51,50
28560,note_on,0,0,4,,,,,,,,,0,,,55,50
28560,note_on,0,0,1,,,,,,,,,0,,,79,50
28560,note_on,0,0,1,,,,,,,,,0,,,70,50
28560,note_on,30,0,1,,,,,,,,,0,,,67,50
28590,note_on,30,0,1,,,,,,,,,0,,,79,0
28590,note_on,0,0,1,,,,,,,,,0,,,67,0
28590,note_on,30,0,4,,,,,,,,,0,,,51,0
28590,note_on,0,0,4,,,,,,,,,0,,,55,0
28590,note_on,0,0,4,,,,,,,,,0,,,58,0
28590,note_on,0,0,1,,,,,,,,,0,,,70,0
28620,note_on,30,0,4,,,,,,,,,0,,,44,50
28620,note_on,30,0,1,,,,,,,,,0,,,68,40
28650,note_on,0,0,1,,,,,,,,,0,,,71,40
28650,note_on,30,0,1,,,,,,,,,0,,,68,0
28680,note_on,0,0,1,,,,,,,,,0,,,68,40
28680,note_on,30,0,1,,,,,,,,,0,,,71,0
28680,note_on,60,0,4,,,,,,,,,0,,,44,0
28710,note_on,0,0,1,,,,,,,,,0,,,71,40
28710,note_on,30,0,1,,,,,,,,,0,,,68,0
28740,note_on,30,0,1,,,,,,,,,0,,,71,0
28740,note_on,60,0,4,,,,,,,,,0,,,59,40
28740,note_on,0,0,4,,,,,,,,,0,,,56,40
28740,note_on,0,0,1,,,,,,,,,0,,,80,40
28770,note_on,30,0,1,,,,,,,,,0,,,80,0
28770,note_on,30,0,4,,,,,,,,,0,,,56,0
28770,note_on,0,0,4,,,,,,,,,0,,,59,0
28800,note_on,30,0,1,,,,,,,,,0,,,70,40
28800,note_on,30,0,4,,,,,,,,,0,,,44,50
28830,note_on,0,0,1,,,,,,,,,0,,,73,40
28830,note_on,30,0,1,,,,,,,,,0,,,70,0
28860,note_on,30,0,1,,,,,,,,,0,,,73,0
28860,note_on,0,0,1,,,,,,,,,0,,,70,40
28860,note_on,60,0,4,,,,,,,,,0,,,44,0
28890,note_on,30,0,1,,,,,,,,,0,,,70,0
28890,note_on,0,0,1,,,,,,,,,0,,,73,40
28920,note_on,0,0,4,,,,,,,,,0,,,58,40
28920,note_on,30,0,1,,,,,,,,,0,,,73,0
28920,note_on,0,0,1,,,,,,,,,0,,,82,40
28920,note_on,60,0,4,,,,,,,,,0,,,61,40
28950,note_on,30,0,1,,,,,,,,,0,,,82,0
28950,note_on,0,0,4,,,,,,,,,0,,,61,0
28950,note_on,30,0,4,,,,,,,,,0,,,58,0
28980,note_on,30,0,4,,,,,,,,,0,,,44,50
28980,note_on,30,0,1,,,,,,,,,0,,,71,40
29010,note_on,0,0,1,,,,,,,,,0,,,75,40
29010,note_on,30,0,1,,,,,,,,,0,,,71,0
29040,note_on,30,0,1,,,,,,,,,0,,,75,0
29040,note_on,0,0,1,,,,,,,,,0,,,71,40
29040,note_on,60,0,4,,,,,,,,,0,,,44,0
29070,note_on,30,0,1,,,,,,,,,0,,,71,0
29070,note_on,0,0,1,,,,,,,,,0,,,75,40
29100,note_on,60,0,4,,,,,,,,,0,,,63,40
29100,note_on,0,0,4,,,,,,,,,0,,,59,40
29100,note_on,0,0,1,,,,,,,,,0,,,83,40
29100,note_on,30,0,1,,,,,,,,,0,,,75,0
29130,note_on,30,0,4,,,,,,,,,0,,,59,0
29130,note_on,0,0,4,,,,,,,,,0,,,63,0
29130,note_on,30,0,1,,,,,,,,,0,,,83,0
29160,note_on,30,0,1,,,,,,,,,0,,,85,50
29160,note_on,0,0,1,,,,,,,,,0,,,73,50
29160,note_on,0,0,4,,,,,,,,,0,,,61,50
29160,note_on,30,0,4,,,,,,,,,0,,,64,50
29160,note_on,0,0,4,,,,,,,,,0,,,54,50
29160,note_on,0,0,1,,,,,,,,,0,,,76,50
29220,note_on,0,0,1,,,,,,,,,0,,,85,0
29220,note_on,60,0,4,,,,,,,,,0,,,54,0
29220,note_on,0,0,4,,,,,,,,,0,,,64,0
29220,note_on,0,0,4,,,,,,,,,0,,,64,50
29220,note_on,0,0,4,,,,,,,,,0,,,61,50
29220,note_on,0,0,4,,,,,,,,,0,,,54,50
29220,note_on,60,0,1,,,,,,,,,0,,,73,0
29220,note_on,0,0,1,,,,,,,,,0,,,76,0
29220,note_on,0,0,1,,,,,,,,,0,,,85,50
29220,note_on,0,0,1,,,,,,,,,0,,,76,50
29220,note_on,0,0,1,,,,,,,,,0,,,73,50
29220,note_on,0,0,4,,,,,,,,,0,,,61,0
29280,note_on,60,0,1,,,,,,,,,0,,,73,0
29280,note_on,0,0,1,,,,,,,,,0,,,76,0
29280,note_on,0,0,1,,,,,,,,,0,,,85,0
29280,note_on,0,0,1,,,,,,,,,0,,,87,50
29280,note_on,0,0,1,,,,,,,,,0,,,75,50
29280,note_on,0,0,4,,,,,,,,,0,,,54,50
29280,note_on,0,0,4,,,,,,,,,0,,,58,50
29280,note_on,0,0,4,,,,,,,,,0,,,66,50
29280,note_on,0,0,4,,,,,,,,,0,,,64,0
29280,note_on,0,0,4,,,,,,,,,0,,,61,0
29280,note_on,60,0,4,,,,,,,,,0,,,54,0
29280,note_on,0,0,1,,,,,,,,,0,,,78,50
29340,note_on,0,0,4,,,,,,,,,0,,,58,0
29340,note_on,60,0,4,,,,,,,,,0,,,54,0
29340,note_on,0,0,4,,,,,,,,,0,,,66,0
29340,note_on,0,0,4,,,,,,,,,0,,,54,50
29340,note_on,0,0,1,,,,,,,,,0,,,71,40
29340,note_on,0,0,1,,,,,,,,,0,,,87,0
29340,note_on,0,0,1,,,,,,,,,0,,,78,0
29340,note_on,60,0,1,,,,,,,,,0,,,75,0
29370,note_on,0,0,1,,,,,,,,,0,,,75,40
29370,note_on,30,0,1,,,,,,,,,0,,,71,0
29400,note_on,0,0,1,,,,,,,,,0,,,71,40
29400,note_on,30,0,1,,,,,,,,,0,,,75,0
29430,note_on,0,0,1,,,,,,,,,0,,,75,40
29430,note_on,30,0,1,,,,,,,,,0,,,71,0
29460,note_on,0,0,1,,,,,,,,,0,,,83,40
29460,note_on,30,0,1,,,,,,,,,0,,,75,0
29460,note_on,120,0,4,,,,,,,,,0,,,63,40
29460,note_on,0,0,4,,,,,,,,,0,,,59,40
29490,note_on,0,0,4,,,,,,,,,0,,,63,0
29490,note_on,30,0,4,,,,,,,,,0,,,59,0
29490,note_on,30,0,1,,,,,,,,,0,,,83,0
29520,note_on,0,0,1,,,,,,,,,0,,,73,50
29520,note_on,0,0,1,,,,,,,,,0,,,76,50
29520,note_on,30,0,1,,,,,,,,,0,,,85,50
29520,note_on,30,0,4,,,,,,,,,0,,,54,0
29520,note_on,0,0,4,,,,,,,,,0,,,64,50
29520,note_on,0,0,4,,,,,,,,,0,,,54,50
29520,note_on,0,0,4,,,,,,,,,0,,,61,50
29580,note_on,0,0,1,,,,,,,,,0,,,73,50
29580,note_on,0,0,1,,,,,,,,,0,,,76,50
29580,note_on,0,0,1,,,,,,,,,0,,,85,50
29580,note_on,0,0,1,,,,,,,,,0,,,76,0
29580,note_on,60,0,1,,,,,,,,,0,,,73,0
29580,note_on,0,0,1,,,,,,,,,0,,,85,0
29580,note_on,0,0,4,,,,,,,,,0,,,61,0
29580,note_on,0,0,4,,,,,,,,,0,,,64,0
29580,note_on,0,0,4,,,,,,,,,0,,,64,50
29580,note_on,0,0,4,,,,,,,,,0,,,61,50
29580,note_on,0,0,4,,,,,,,,,0,,,54,50
29580,note_on,60,0,4,,,,,,,,,0,,,54,0
29640,note_on,0,0,1,,,,,,,,,0,,,78,50
29640,note_on,0,0,1,,,,,,,,,0,,,87,50
29640,note_on,0,0,1,,,,,,,,,0,,,85,0
29640,note_on,0,0,1,,,,,,,,,0,,,76,0
29640,note_on,0,0,4,,,,,,,,,0,,,64,0
29640,note_on,0,0,4,,,,,,,,,0,,,66,50
29640,note_on,0,0,4,,,,,,,,,0,,,61,0
29640,note_on,60,0,4,,,,,,,,,0,,,54,0
29640,note_on,0,0,1,,,,,,,,,0,,,75,50
29640,note_on,60,0,1,,,,,,,,,0,,,73,0
29640,note_on,0,0,4,,,,,,,,,0,,,58,50
29640,note_on,0,0,4,,,,,,,,,0,,,54,50
29700,note_on,0,0,4,,,,,,,,,0,,,58,0
29700,note_on,0,0,4,,,,,,,,,0,,,55,50
29700,note_on,60,0,4,,,,,,,,,0,,,54,0
29700,note_on,60,0,1,,,,,,,,,0,,,75,0
29700,note_on,0,0,1,,,,,,,,,0,,,78,0
29700,note_on,0,0,1,,,,,,,,,0,,,87,0
29700,note_on,0,0,1,,,,,,,,,0,,,70,40
29700,note_on,0,0,4,,,,,,,,,0,,,66,0
29730,note_on,30,0,1,,,,,,,,,0,,,70,0
29730,note_on,0,0,1,,,,,,,,,0,,,75,40
29760,note_on,0,0,1,,,,,,,,,0,,,70,40
29760,note_on,30,0,1,,,,,,,,,0,,,75,0
29790,note_on,30,0,1,,,,,,,,,0,,,70,0
29790,note_on,0,0,1,,,,,,,,,0,,,75,40
29820,note_on,30,0,1,,,,,,,,,0,,,75,0
29820,note_on,0,0,1,,,,,,,,,0,,,82,40
29820,note_on,0,0,4,,,,,,,,,0,,,58,40
29820,note_on,120,0,4,,,,,,,,,0,,,63,40
29850,note_on,30,0,1,,,,,,,,,0,,,82,0
29850,note_on,0,0,4,,,,,,,,,0,,,63,0
29850,note_on,30,0,4,,,,,,,,,0,,,58,0
29880,note_on,30,0,4,,,,,,,,,0,,,55,0
29880,note_on,30,0,1,,,,,,,,,0,,,71,40
29880,note_on,0,0,4,,,,,,,,,0,,,56,50
29910,note_on,30,0,1,,,,,,,,,0,,,71,0
29910,note_on,0,0,1,,,,,,,,,0,,,75,40
29940,note_on,30,0,1,,,,,,,,,0,,,75,0
29940,note_on,0,0,1,,,,,,,,,0,,,71,40
29970,note_on,0,0,1,,,,,,,,,0,,,75,40
29970,note_on,30,0,1,,,,,,,,,0,,,71,0
30000,note_on,120,0,4,,,,,,,,,0,,,63,40
30000,note_on,30,0,1,,,,,,,,,0,,,75,0
30000,note_on,0,0,1,,,,,,,,,0,,,83,40
30000,note_on,0,0,4,,,,,,,,,0,,,59,40
30030,note_on,30,0,1,,,,,,,,,0,,,83,0
30030,note_on,30,0,4,,,,,,,,,0,,,59,0
30030,note_on,0,0,4,,,,,,,,,0,,,63,0
30060,note_on,30,0,1,,,,,,,,,0,,,73,40
30060,note_on,0,0,4,,,,,,,,,0,,,49,50
30060,note_on,30,0,4,,,,,,,,,0,,,56,0
30090,note_on,0,0,1,,,,,,,,,0,,,76,40
30090,note_on,30,0,1,,,,,,,,,0,,,73,0
30120,note_on,60,0,4,,,,,,,,,0,,,49,0
30120,note_on,0,0,1,,,,,,,,,0,,,73,40
30120,note_on,30,0,1,,,,,,,,,0,,,76,0
30150,note_on,0,0,1,,,,,,,,,0,,,76,40
30150,note_on,30,0,1,,,,,,,,,0,,,73,0
30180,note_on,0,0,1,,,,,,,,,0,,,85,40
30180,note_on,60,0,4,,,,,,,,,0,,,64,40
30180,note_on,0,0,4,,,,,,,,,0,,,61,40
30180,note_on,30,0,1,,,,,,,,,0,,,76,0
30210,note_on,30,0,4,,,,,,,,,0,,,61,0
30210,note_on,0,0,4,,,,,,,,,0,,,64,0
30210,note_on,30,0,1,,,,,,,,,0,,,85,0
30240,note_on,30,0,1,,,,,,,,,0,,,83,50
30240,note_on,0,0,1,,,,,,,,,0,,,80,50
30240,note_on,0,0,1,,,,,,,,,0,,,75,50
30240,note_on,0,0,1,,,,,,,,,0,,,71,50
30240,note_on,0,0,4,,,,,,,,,0,,,51,50
30240,note_on,0,0,4,,,,,,,,,0,,,59,50
30240,note_on,30,0,4,,,,,,,,,0,,,63,50
30300,note_on,0,0,1,,,,,,,,,0,,,83,50
30300,note_on,0,0,4,,,,,,,,,0,,,63,0
30300,note_on,0,0,4,,,,,,,,,0,,,59,0
30300,note_on,60,0,4,,,,,,,,,0,,,51,0
30300,note_on,0,0,4,,,,,,,,,0,,,51,50
30300,note_on,0,0,4,,,,,,,,,0,,,63,50
30300,note_on,0,0,4,,,,,,,,,0,,,59,50
30300,note_on,0,0,1,,,,,,,,,0,,,75,50
30300,note_on,0,0,1,,,,,,,,,0,,,71,50
30300,note_on,0,0,1,,,,,,,,,0,,,75,0
30300,note_on,0,0,1,,,,,,,,,0,,,80,0
30300,note_on,0,0,1,,,,,,,,,0,,,83,0
30300,note_on,60,0,1,,,,,,,,,0,,,71,0
30300,note_on,0,0,1,,,,,,,,,0,,,80,50
30360,note_on,0,0,4,,,,,,,,,0,,,58,50
30360,note_on,0,0,4,,,,,,,,,0,,,63,50
30360,note_on,0,0,4,,,,,,,,,0,,,63,0
30360,note_on,0,0,4,,,,,,,,,0,,,59,0
30360,note_on,60,0,4,,,,,,,,,0,,,51,0
30360,note_on,0,0,4,,,,,,,,,0,,,51,50
30360,note_on,0,0,1,,,,,,,,,0,,,70,50
30360,note_on,0,0,1,,,,,,,,,0,,,82,50
30360,note_on,0,0,1,,,,,,,,,0,,,80,0
30360,note_on,0,0,1,,,,,,,,,0,,,75,0
30360,note_on,0,0,1,,,,,,,,,0,,,71,0
30360,note_on,60,0,1,,,,,,,,,0,,,83,0
30360,note_on,0,0,1,,,,,,,,,0,,,79,50
30360,note_on,0,0,1,,,,,,,,,0,,,75,50
30420,note_on,0,0,4,,,,,,,,,0,,,63,0
30420,note_on,60,0,4,,,,,,,,,0,,,51,0
30420,note_on,0,0,4,,,,,,,,,0,,,58,0
30420,note_on,0,0,1,,,,,,,,,0,,,70,40
30420,note_on,0,0,4,,,,,,,,,0,,,55,50
30420,note_on,60,0,1,,,,,,,,,0,,,70,0
30420,note_on,0,0,1,,,,,,,,,0,,,82,0
30420,note_on,0,0,1,,,,,,,,,0,,,79,0
30420,note_on,0,0,1,,,,,,,,,0,,,75,0
30450,note_on,0,0,1,,,,,,,,,0,,,75,40
30450,note_on,30,0,1,,,,,,,,,0,,,70,0
30480,note_on,30,0,1,,,,,,,,,0,,,75,0
30480,note_on,0,0,1,,,,,,,,,0,,,70,40
30510,note_on,30,0,1,,,,,,,,,0,,,70,0
30510,note_on,0,0,1,,,,,,,,,0,,,75,40
30540,note_on,120,0,4,,,,,,,,,0,,,63,40
30540,note_on,0,0,1,,,,,,,,,0,,,82,40
30540,note_on,0,0,4,,,,,,,,,0,,,58,40
30540,note_on,30,0,1,,,,,,,,,0,,,75,0
30570,note_on,30,0,1,,,,,,,,,0,,,82,0
30570,note_on,30,0,4,,,,,,,,,0,,,58,0
30570,note_on,0,0,4,,,,,,,,,0,,,63,0
30600,note_on,0,0,4,,,,,,,,,0,,,56,50
30600,note_on,30,0,1,,,,,,,,,0,,,71,40
30600,note_on,30,0,4,,,,,,,,,0,,,55,0
30630,note_on,30,0,1,,,,,,,,,0,,,71,0
30630,note_on,0,0,1,,,,,,,,,0,,,75,40
30660,note_on,30,0,1,,,,,,,,,0,,,75,0
30660,note_on,0,0,1,,,,,,,,,0,,,71,40
30690,note_on,30,0,1,,,,,,,,,0,,,71,0
30690,note_on,0,0,1,,,,,,,,,0,,,75,40
30720,note_on,0,0,1,,,,,,,,,0,,,83,40
30720,note_on,30,0,1,,,,,,,,,0,,,75,0
30720,note_on,120,0,4,,,,,,,,,0,,,63,40
30720,note_on,0,0,4,,,,,,,,,0,,,59,40
30750,note_on,30,0,1,,,,,,,,,0,,,83,0
30750,note_on,30,0,4,,,,,,,,,0,,,59,0
30750,note_on,0,0,4,,,,,,,,,0,,,63,0
30780,note_on,30,0,4,,,,,,,,,0,,,56,0
30780,note_on,0,0,4,,,,,,,,,0,,,49,50
30780,note_on,30,0,1,,,,,,,,,0,,,73,40
30810,note_on,0,0,1,,,,,,,,,0,,,76,40
30810,note_on,30,0,1,,,,,,,,,0,,,73,0
30840,note_on,60,0,4,,,,,,,,,0,,,49,0
30840,note_on,0,0,1,,,,,,,,,0,,,72,40
30840,note_on,30,0,1,,,,,,,,,0,,,76,0
30870,note_on,0,0,1,,,,,,,,,0,,,76,40
30870,note_on,30,0,1,,,,,,,,,0,,,72,0
30900,note_on,0,0,1,,,,,,,,,0,,,85,40
30900,note_on,30,0,1,,,,,,,,,0,,,76,0
30900,note_on,0,0,4,,,,,,,,,0,,,61,40
30900,note_on,60,0,4,,,,,,,,,0,,,64,40
30930,note_on,0,0,4,,,,,,,,,0,,,64,0
30930,note_on,30,0,1,,,,,,,,,0,,,85,0
30930,note_on,30,0,4,,,,,,,,,0,,,61,0
30960,note_on,30,0,1,,,,,,,,,0,,,83,50
30960,note_on,0,0,4,,,,,,,,,0,,,51,50
30960,note_on,0,0,1,,,,,,,,,0,,,71,50
30960,note_on,30,0,4,,,,,,,,,0,,,63,50
30960,note_on,0,0,1,,,,,,,,,0,,,80,50
30960,note_on,0,0,4,,,,,,,,,0,,,59,50
30960,note_on,0,0,1,,,,,,,,,0,,,75,50
31020,note_on,60,0,4,,,,,,,,,0,,,51,0
31020,note_on,0,0,1,,,,,,,,,0,,,83,50
31020,note_on,0,0,1,,,,,,,,,0,,,80,50
31020,note_on,0,0,1,,,,,,,,,0,,,75,50
31020,note_on,0,0,1,,,,,,,,,0,,,71,50
31020,note_on,0,0,4,,,,,,,,,0,,,59,0
31020,note_on,0,0,4,,,,,,,,,0,,,63,0
31020,note_on,0,0,4,,,,,,,,,0,,,63,50
31020,note_on,0,0,4,,,,,,,,,0,,,59,50
31020,note_on,0,0,1,,,,,,,,,0,,,75,0
31020,note_on,0,0,1,,,,,,,,,0,,,80,0
31020,note_on,0,0,1,,,,,,,,,0,,,83,0
31020,note_on,60,0,1,,,,,,,,,0,,,71,0
31020,note_on,0,0,4,,,,,,,,,0,,,51,50
31080,note_on,60,0,4,,,,,,,,,0,,,51,0
31080,note_on,0,0,4,,,,,,,,,0,,,59,0
31080,note_on,0,0,4,,,,,,,,,0,,,63,0
31080,note_on,0,0,4,,,,,,,,,0,,,63,50
31080,note_on,0,0,1,,,,,,,,,0,,,70,50
31080,note_on,0,0,4,,,,,,,,,0,,,51,50
31080,note_on,60,0,1,,,,,,,,,0,,,71,0
31080,note_on,0,0,1,,,,,,,,,0,,,83,0
31080,note_on,0,0,1,,,,,,,,,0,,,80,0
31080,note_on,0,0,1,,,,,,,,,0,,,75,0
31080,note_on,0,0,1,,,,,,,,,0,,,82,50
31080,note_on,0,0,1,,,,,,,,,0,,,79,50
31080,note_on,0,0,1,,,,,,,,,0,,,75,50
31080,note_on,0,0,4,,,,,,,,,0,,,58,50
31140,note_on,0,0,4,,,,,,,,,0,,,58,0
31140,note_on,0,0,4,,,,,,,,,0,,,63,0
31140,note_on,0,0,4,,,,,,,,,0,,,51,50
31140,note_on,0,0,1,,,,,,,,,0,,,75,0
31140,note_on,60,0,4,,,,,,,,,0,,,51,0
31140,note_on,0,0,1,,,,,,,,,0,,,79,0
31140,note_on,60,0,1,,,,,,,,,0,,,70,0
31140,note_on,0,0,1,,,,,,,,,0,,,73,40
31140,note_on,0,0,1,,,,,,,,,0,,,82,0
31170,note_on,30,0,1,,,,,,,,,0,,,73,0
31170,note_on,0,0,1,,,,,,,,,0,,,82,40
31200,note_on,0,0,1,,,,,,,,,0,,,73,40
31200,note_on,30,0,1,,,,,,,,,0,,,82,0
31230,note_on,0,0,1,,,,,,,,,0,,,82,40
31230,note_on,30,0,1,,,,,,,,,0,,,73,0
31260,note_on,0,0,4,,,,,,,,,0,,,61,40
31260,note_on,0,0,1,,,,,,,,,0,,,85,40
31260,note_on,30,0,1,,,,,,,,,0,,,82,0
31260,note_on,0,0,4,,,,,,,,,0,,,58,40
31260,note_on,120,0,4,,,,,,,,,0,,,51,0
31290,note_on,0,0,4,,,,,,,,,0,,,61,0
31290,note_on,30,0,4,,,,,,,,,0,,,58,0
31290,note_on,30,0,1,,,,,,,,,0,,,85,0
31320,note_on,30,0,4,,,,,,,,,0,,,51,50
31320,note_on,30,0,1,,,,,,,,,0,,,75,40
31350,note_on,30,0,1,,,,,,,,,0,,,75,0
31350,note_on,0,0,1,,,,,,,,,0,,,83,40
31380,note_on,30,0,1,,,,,,,,,0,,,83,0
31380,note_on,0,0,1,,,,,,,,,0,,,75,40
31410,note_on,30,0,1,,,,,,,,,0,,,75,0
31410,note_on,0,0,1,,,,,,,,,0,,,83,40
31440,note_on,120,0,4,,,,,,,,,0,,,51,0
31440,note_on,30,0,1,,,,,,,,,0,,,83,0
31440,note_on,0,0,1,,,,,,,,,0,,,87,40
31440,note_on,0,0,4,,,,,,,,,0,,,59,40
31440,note_on,0,0,4,,,,,,,,,0,,,63,40
31470,note_on,0,0,4,,,,,,,,,0,,,63,0
31470,note_on,30,0,4,,,,,,,,,0,,,59,0
31470,note_on,30,0,1,,,,,,,,,0,,,87,0
31500,note_on,30,0,4,,,,,,,,,0,,,51,50
31500,note_on,30,0,1,,,,,,,,,0,,,76,40
31530,note_on,30,0,1,,,,,,,,,0,,,76,0
31530,note_on,0,0,1,,,,,,,,,0,,,85,40
31560,note_on,30,0,1,,,,,,,,,0,,,85,0
31560,note_on,0,0,1,,,,,,,,,0,,,76,40
31590,note_on,0,0,1,,,,,,,,,0,,,85,40
31590,note_on,30,0,1,,,,,,,,,0,,,76,0
31620,note_on,120,0,4,,,,,,,,,0,,,51,0
31620,note_on,0,0,4,,,,,,,,,0,,,61,40
31620,note_on,30,0,1,,,,,,,,,0,,,85,0
31620,note_on,0,0,1,,,,,,,,,0,,,88,40
31620,note_on,0,0,4,,,,,,,,,0,,,64,40
31650,note_on,0,0,4,,,,,,,,,0,,,64,0
31650,note_on,30,0,4,,,,,,,,,0,,,61,0
31650,note_on,30,0,1,,,,,,,,,0,,,88,0
31680,note_on,0,0,4,,,,,,,,,0,,,58,50
31680,note_on,0,0,4,,,,,,,,,0,,,51,50
31680,note_on,30,0,4,,,,,,,,,0,,,61,50
31680,note_on,0,0,1,,,,,,,,,0,,,73,50
31680,note_on,30,0,1,,,,,,,,,0,,,85,50
31680,note_on,0,0,1,,,,,,,,,0,,,82,50
31740,note_on,0,0,4,,,,,,,,,0,,,61,0
31740,note_on,0,0,4,,,,,,,,,0,,,61,50
31740,note_on,0,0,1,,,,,,,,,0,,,85,50
31740,note_on,0,0,1,,,,,,,,,0,,,82,50
31740,note_on,0,0,1,,,,,,,,,0,,,73,50
31740,note_on,0,0,4,,,,,,,,,0,,,58,50
31740,note_on,0,0,4,,,,,,,,,0,,,51,50
31740,note_on,0,0,1,,,,,,,,,0,,,85,0
31740,note_on,0,0,1,,,,,,,,,0,,,82,0
31740,note_on,60,0,1,,,,,,,,,0,,,73,0
31740,note_on,60,0,4,,,,,,,,,0,,,51,0
31740,note_on,0,0,4,,,,,,,,,0,,,58,0
31800,note_on,60,0,4,,,,,,,,,0,,,51,0
31800,note_on,0,0,4,,,,,,,,,0,,,58,0
31800,note_on,0,0,4,,,,,,,,,0,,,51,50
31800,note_on,0,0,4,,,,,,,,,0,,,55,50
31800,note_on,0,0,4,,,,,,,,,0,,,58,50
31800,note_on,60,0,1,,,,,,,,,0,,,73,0
31800,note_on,0,0,1,,,,,,,,,0,,,82,0
31800,note_on,0,0,1,,,,,,,,,0,,,85,0
31800,note_on,0,0,1,,,,,,,,,0,,,82,50
31800,note_on,0,0,1,,,,,,,,,0,,,79,50
31800,note_on,0,0,1,,,,,,,,,0,,,70,50
31800,note_on,0,0,4,,,,,,,,,0,,,61,0
31860,note_on,60,0,1,,,,,,,,,0,,,70,0
31860,note_on,0,0,1,,,,,,,,,0,,,79,0
31860,note_on,0,0,1,,,,,,,,,0,,,82,0
31860,note_on,0,0,4,,,,,,,,,0,,,55,0
31860,note_on,0,0,4,,,,,,,,,0,,,58,0
31860,note_on,0,0,4,,,,,,,,,0,,,51,50
31860,note_on,0,0,1,,,,,,,,,0,,,76,40
31860,note_on,60,0,4,,,,,,,,,0,,,51,0
31890,note_on,30,0,1,,,,,,,,,0,,,76,0
31890,note_on,0,0,1,,,,,,,,,0,,,85,40
31920,note_on,60,0,4,,,,,,,,,0,,,51,0
31920,note_on,30,0,1,,,,,,,,,0,,,85,0
31920,note_on,0,0,1,,,,,,,,,0,,,76,40
31950,note_on,0,0,1,,,,,,,,,0,,,85,40
31950,note_on,30,0,1,,,,,,,,,0,,,76,0
31980,note_on,30,0,1,,,,,,,,,0,,,85,0
31980,note_on,0,0,1,,,,,,,,,0,,,88,40
31980,note_on,0,0,4,,,,,,,,,0,,,61,40
31980,note_on,60,0,4,,,,,,,,,0,,,64,40
32010,note_on,30,0,1,,,,,,,,,0,,,88,0
32010,note_on,30,0,4,,,,,,,,,0,,,61,0
32010,note_on,0,0,4,,,,,,,,,0,,,64,0
32040,note_on,0,0,1,,,,,,,,,0,,,73,50
32040,note_on,30,0,4,,,,,,,,,0,,,61,50
32040,note_on,30,0,1,,,,,,,,,0,,,85,50
32040,note_on,0,0,4,,,,,,,,,0,,,51,50
32040,note_on,0,0,1,,,,,,,,,0,,,82,50
32040,note_on,0,0,4,,,,,,,,,0,,,58,50
32100,note_on,0,0,1,,,,,,,,,0,,,85,0
32100,note_on,0,0,1,,,,,,,,,0,,,82,0
32100,note_on,0,0,4,,,,,,,,,0,,,58,50
32100,note_on,0,0,4,,,,,,,,,0,,,61,0
32100,note_on,0,0,4,,,,,,,,,0,,,58,0
32100,note_on,60,0,4,,,,,,,,,0,,,51,0
32100,note_on,0,0,4,,,,,,,,,0,,,51,50
32100,note_on,0,0,4,,,,,,,,,0,,,61,50
32100,note_on,0,0,1,,,,,,,,,0,,,85,50
32100,note_on,60,0,1,,,,,,,,,0,,,73,0
32100,note_on,0,0,1,,,,,,,,,0,,,82,50
32100,note_on,0,0,1,,,,,,,,,0,,,73,50
32160,note_on,0,0,1,,,,,,,,,0,,,70,50
32160,note_on,0,0,1,,,,,,,,,0,,,79,50
32160,note_on,0,0,4,,,,,,,,,0,,,58,0
32160,note_on,0,0,1,,,,,,,,,0,,,85,0
32160,note_on,0,0,1,,,,,,,,,0,,,82,0
32160,note_on,0,0,4,,,,,,,,,0,,,61,0
32160,note_on,0,0,4,,,,,,,,,0,,,58,50
32160,note_on,0,0,4,,,,,,,,,0,,,55,50
32160,note_on,0,0,4,,,,,,,,,0,,,51,50
32160,note_on,0,0,1,,,,,,,,,0,,,82,50
32160,note_on,60,0,4,,,,,,,,,0,,,51,0
32160,note_on,60,0,1,,,,,,,,,0,,,73,0
32220,note_on,0,0,4,,,,,,,,,0,,,55,0
32220,note_on,0,0,1,,,,,,,,,0,,,82,0
32220,note_on,0,0,1,,,,,,,,,0,,,79,0
32220,note_on,60,0,1,,,,,,,,,0,,,70,0
32220,note_on,60,0,4,,,,,,,,,0,,,51,0
32220,note_on,0,0,1,,,,,,,,,0,,,76,40
32220,note_on,0,0,4,,,,,,,,,0,,,58,0
32220,note_on,0,0,4,,,,,,,,,0,,,51,50
32250,note_on,0,0,1,,,,,,,,,0,,,85,40
32250,note_on,30,0,1,,,,,,,,,0,,,76,0
32280,note_on,30,0,1,,,,,,,,,0,,,85,0
32280,note_on,0,0,1,,,,,,,,,0,,,76,40
32310,note_on,30,0,1,,,,,,,,,0,,,76,0
32310,note_on,0,0,1,,,,,,,,,0,,,85,40
32340,note_on,0,0,4,,,,,,,,,0,,,64,40
32340,note_on,0,0,4,,,,,,,,,0,,,61,40
32340,note_on,30,0,1,,,,,,,,,0,,,85,0
32340,note_on,0,0,1,,,,,,,,,0,,,88,40
32340,note_on,120,0,4,,,,,,,,,0,,,51,0
32370,note_on,30,0,4,,,,,,,,,0,,,61,0
32370,note_on,30,0,1,,,,,,,,,0,,,88,0
32370,note_on,0,0,4,,,,,,,,,0,,,64,0
32400,note_on,30,0,4,,,,,,,,,0,,,51,50
32400,note_on,30,0,1,,,,,,,,,0,,,79,40
32430,note_on,30,0,1,,,,,,,,,0,,,79,0
32430,note_on,0,0,1,,,,,,,,,0,,,88,43
32460,note_on,0,0,1,,,,,,,,,0,,,79,46
32460,note_on,30,0,1,,,,,,,,,0,,,88,0
32490,note_on,0,0,1,,,,,,,,,0,,,88,49
32490,note_on,30,0,1,,,,,,,,,0,,,79,0
32520,note_on,30,0,1,,,,,,,,,0,,,88,0
32520,note_on,0,0,1,,,,,,,,,0,,,91,53
32520,note_on,0,0,4,,,,,,,,,0,,,61,53
32520,note_on,0,0,4,,,,,,,,,0,,,64,53
32520,note_on,120,0,4,,,,,,,,,0,,,51,0
32550,note_on,0,0,4,,,,,,,,,0,,,64,0
32550,note_on,30,0,4,,,,,,,,,0,,,61,0
32550,note_on,30,0,1,,,,,,,,,0,,,91,0
32580,control_change,13440,0,5,,,,,,,,,0,64,127,,
32580,note_on,30,0,4,,,,,,,,,0,,,51,69
32580,note_on,30,0,1,,,,,,,,,0,,,82,59
32610,note_on,0,0,1,,,,,,,,,0,,,91,63
32610,note_on,30,0,1,,,,,,,,,0,,,82,0
32640,note_on,0,0,1,,,,,,,,,0,,,82,66
32640,note_on,30,0,1,,,,,,,,,0,,,91,0
32670,note_on,0,0,1,,,,,,,,,0,,,91,69
32670,note_on,30,0,1,,,,,,,,,0,,,82,0
32700,note_on,0,0,4,,,,,,,,,0,,,61,73
32700,note_on,0,0,4,,,,,,,,,0,,,64,73
32700,note_on,120,0,4,,,,,,,,,0,,,51,0
32700,note_on,30,0,1,,,,,,,,,0,,,91,0
32700,note_on,0,0,1,,,,,,,,,0,,,94,73
32700,control_change,120,0,5,,,,,,,,,0,64,0,,
32730,note_on,30,0,1,,,,,,,,,0,,,94,0
32730,note_on,30,0,4,,,,,,,,,0,,,61,0
32730,note_on,0,0,4,,,,,,,,,0,,,64,0
32760,note_on,30,0,1,,,,,,,,,0,,,85,79
32760,control_change,60,0,5,,,,,,,,,0,64,127,,
32760,note_on,30,0,4,,,,,,,,,0,,,51,89
32790,note_on,0,0,1,,,,,,,,,0,,,94,83
32790,note_on,30,0,1,,,,,,,,,0,,,85,0
32820,note_on,0,0,1,,,,,,,,,0,,,85,86
32820,note_on,30,0,1,,,,,,,,,0,,,94,0
32850,note_on,0,0,1,,,,,,,,,0,,,94,89
32850,note_on,30,0,1,,,,,,,,,0,,,85,0
32880,note_on,30,0,1,,,,,,,,,0,,,94,0
32880,note_on,0,0,1,,,,,,,,,0,,,97,93
32880,note_on,0,0,4,,,,,,,,,0,,,61,93
32880,note_on,0,0,4,,,,,,,,,0,,,64,93
32880,control_change,120,0,5,,,,,,,,,0,64,0,,
32880,note_on,120,0,4,,,,,,,,,0,,,51,0
32910,note_on,0,0,4,,,,,,,,,0,,,64,0
32910,note_on,30,0,4,,,,,,,,,0,,,61,0
32910,note_on,30,0,1,,,,,,,,,0,,,97,0
32940,note_on,30,0,4,,,,,,,,,0,,,51,109
32940,control_change,60,0,5,,,,,,,,,0,64,127,,
32940,note_on,30,0,1,,,,,,,,,0,,,88,99
32970,note_on,30,0,1,,,,,,,,,0,,,88,0
32970,note_on,0,0,1,,,,,,,,,0,,,97,103
33000,note_on,30,0,1,,,,,,,,,0,,,97,0
33000,note_on,0,0,1,,,,,,,,,0,,,88,106
33030,note_on,30,0,1,,,,,,,,,0,,,88,0
33030,note_on,0,0,1,,,,,,,,,0,,,97,109
33060,note_on,0,0,1,,,,,,,,,0,,,100,110
33060,note_on,120,0,4,,,,,,,,,0,,,51,0
33060,note_on,0,0,4,,,,,,,,,0,,,64,110
33060,note_on,30,0,1,,,,,,,,,0,,,97,0
33060,control_change,120,0,5,,,,,,,,,0,64,0,,
33060,note_on,0,0,4,,,,,,,,,0,,,61,110
33090,note_on,0,0,4,,,,,,,,,0,,,64,0
33090,note_on,30,0,1,,,,,,,,,0,,,100,0
33090,note_on,30,0,4,,,,,,,,,0,,,61,0
33120,set_tempo,5940,1,0,,,,,,1000000,,,,,,,
33300,set_tempo,0,1,0,,,,,,476190,,,,,,,
33300,control_change,240,0,5,,,,,,,,,0,64,127,,
33300,marker,0,1,0,,,,,,,,,,,,,
33300,note_on,210,0,1,,,,,,,,,0,,,76,40
33300,note_on,210,0,4,,,,,,,,,0,,,52,50
33300,key_signature,180,1,0,,,,,C,,,,,,,,
33330,note_on,0,0,1,,,,,,,,,0,,,85,40
33330,note_on,30,0,1,,,,,,,,,0,,,76,0
33360,note_on,0,0,1,,,,,,,,,0,,,76,40
33360,note_on,30,0,1,,,,,,,,,0,,,85,0
33390,note_on,0,0,1,,,,,,,,,0,,,85,40
33390,note_on,30,0,1,,,,,,,,,0,,,76,0
33420,note_on,0,0,1,,,,,,,,,0,,,88,40
33420,control_change,120,0,5,,,,,,,,,0,64,0,,
33420,note_on,0,0,4,,,,,,,,,0,,,61,40
33420,note_on,0,0,4,,,,,,,,,0,,,64,40
33420,note_on,120,0,4,,,,,,,,,0,,,52,0
33420,note_on,30,0,1,,,,,,,,,0,,,85,0
33450,note_on,30,0,1,,,,,,,,,0,,,88,0
33450,note_on,0,0,4,,,,,,,,,0,,,64,0
33450,note_on,30,0,4,,,,,,,,,0,,,61,0
33480,note_on,30,0,4,,,,,,,,,0,,,52,50
33480,control_change,60,0,5,,,,,,,,,0,64,127,,
33480,note_on,30,0,1,,,,,,,,,0,,,76,40
33510,note_on,30,0,1,,,,,,,,,0,,,76,0
33510,note_on,0,0,1,,,,,,,,,0,,,85,40
33540,note_on,30,0,1,,,,,,,,,0,,,85,0
33540,note_on,0,0,1,,,,,,,,,0,,,76,40
33570,note_on,30,0,1,,,,,,,,,0,,,76,0
33570,note_on,0,0,1,,,,,,,,,0,,,85,40
33600,note_on,0,0,1,,,,,,,,,0,,,88,40
33600,note_on,120,0,4,,,,,,,,,0,,,52,0
33600,note_on,0,0,4,,,,,,,,,0,,,64,40
33600,note_on,0,0,4,,,,,,,,,0,,,61,40
33600,note_on,30,0,1,,,,,,,,,0,,,85,0
33600,control_change,120,0,5,,,,,,,,,0,64,0,,
33630,note_on,0,0,4,,,,,,,,,0,,,64,0
33630,note_on,30,0,4,,,,,,,,,0,,,61,0
33630,note_on,30,0,1,,,,,,,,,0,,,88,0
33660,control_change,60,0,5,,,,,,,,,0,64,127,,
33660,note_on,30,0,4,,,,,,,,,0,,,52,50
33660,note_on,30,0,1,,,,,,,,,0,,,76,40
33690,note_on,30,0,1,,,,,,,,,0,,,76,0
33690,note_on,0,0,1,,,,,,,,,0,,,85,40
33720,note_on,0,0,1,,,,,,,,,0,,,76,40
33720,note_on,30,0,1,,,,,,,,,0,,,85,0
33750,note_on,0,0,1,,,,,,,,,0,,,85,40
33750,note_on,30,0,1,,,,,,,,,0,,,76,0
33780,control_change,120,0,5,,,,,,,,,0,64,0,,
33780,note_on,120,0,4,,,,,,,,,0,,,52,0
33780,note_on,0,0,4,,,,,,,,,0,,,61,40
33780,note_on,30,0,1,,,,,,,,,0,,,85,0
33780,note_on,0,0,1,,,,,,,,,0,,,88,40
33780,note_on,0,0,4,,,,,,,,,0,,,64,40
33810,note_on,30,0,4,,,,,,,,,0,,,61,0
33810,note_on,30,0,1,,,,,,,,,0,,,88,0
33810,note_on,0,0,4,,,,,,,,,0,,,64,0
33840,note_on,0,0,4,,,,,,,,,0,,,59,50
33840,note_on,30,0,4,,,,,,,,,0,,,62,50
33840,note_on,0,0,4,,,,,,,,,0,,,52,50
33840,note_on,0,0,1,,,,,,,,,0,,,74,50
33840,note_on,30,0,1,,,,,,,,,0,,,83,50
33840,note_on,0,0,1,,,,,,,,,0,,,86,50
33870,note_on,0,0,4,,,,,,,,,0,,,59,0
33870,note_on,30,0,4,,,,,,,,,0,,,52,0
33870,note_on,30,0,1,,,,,,,,,0,,,74,0
33870,note_on,0,0,1,,,,,,,,,0,,,86,0
33870,note_on,0,0,4,,,,,,,,,0,,,62,0
33870,note_on,0,0,1,,,,,,,,,0,,,83,0
33900,note_on,0,0,4,,,,,,,,,0,,,52,50
33900,note_on,0,0,1,,,,,,,,,0,,,74,50
33900,note_on,0,0,4,,,,,,,,,0,,,59,50
33900,note_on,30,0,1,,,,,,,,,0,,,83,50
33900,note_on,30,0,4,,,,,,,,,0,,,62,50
33900,note_on,0,0,1,,,,,,,,,0,,,86,50
33930,note_on,30,0,1,,,,,,,,,0,,,74,0
33930,note_on,30,0,4,,,,,,,,,0,,,52,0
33930,note_on,0,0,4,,,,,,,,,0,,,59,0
33930,note_on,0,0,1,,,,,,,,,0,,,83,0
33930,note_on,0,0,4,,,,,,,,,0,,,62,0
33930,note_on,0,0,1,,,,,,,,,0,,,86,0
33960,note_on,30,0,4,,,,,,,,,0,,,61,50
33960,note_on,0,0,1,,,,,,,,,0,,,85,50
33960,note_on,0,0,1,,,,,,,,,0,,,73,50
33960,note_on,30,0,1,,,,,,,,,0,,,81,50
33960,note_on,0,0,4,,,,,,,,,0,,,57,50
33960,note_on,0,0,4,,,,,,,,,0,,,52,50
33990,note_on,0,0,1,,,,,,,,,0,,,81,0
33990,note_on,0,0,1,,,,,,,,,0,,,85,0
33990,note_on,30,0,1,,,,,,,,,0,,,73,0
33990,note_on,30,0,4,,,,,,,,,0,,,52,0
33990,note_on,0,0,4,,,,,,,,,0,,,57,0
33990,note_on,0,0,4,,,,,,,,,0,,,61,0
34020,note_on,30,0,1,,,,,,,,,0,,,74,40
34020,note_on,30,0,4,,,,,,,,,0,,,52,50
34020,control_change,240,0,5,,,,,,,,,0,64,127,,
34050,note_on,30,0,1,,,,,,,,,0,,,74,0
34050,note_on,0,0,1,,,,,,,,,0,,,83,40
34080,note_on,0,0,1,,,,,,,,,0,,,74,40
34080,note_on,30,0,1,,,,,,,,,0,,,83,0
34110,note_on,0,0,1,,,,,,,,,0,,,83,40
34110,note_on,30,0,1,,,,,,,,,0,,,74,0
34140,note_on,0,0,1,,,,,,,,,0,,,86,40
34140,note_on,30,0,1,,,,,,,,,0,,,83,0
34140,note_on,120,0,4,,,,,,,,,0,,,52,0
34140,note_on,0,0,4,,,,,,,,,0,,,59,40
34140,note_on,0,0,4,,,,,,,,,0,,,62,40
34140,control_change,120,0,5,,,,,,,,,0,64,0,,
34170,note_on,30,0,1,,,,,,,,,0,,,86,0
34170,note_on,30,0,4,,,,,,,,,0,,,59,0
34170,note_on,0,0,4,,,,,,,,,0,,,62,0
34200,note_on,30,0,1,,,,,,,,,0,,,74,40
34200,control_change,60,0,5,,,,,,,,,0,64,127,,
34200,note_on,30,0,4,,,,,,,,,0,,,52,50
34230,note_on,30,0,1,,,,,,,,,0,,,74,0
34230,note_on,0,0,1,,,,,,,,,0,,,83,40
34260,note_on,0,0,1,,,,,,,,,0,,,74,40
34260,note_on,30,0,1,,,,,,,,,0,,,83,0
34290,note_on,0,0,1,,,,,,,,,0,,,83,40
34290,note_on,30,0,1,,,,,,,,,0,,,74,0
34320,note_on,0,0,1,,,,,,,,,0,,,86,40
34320,note_on,30,0,1,,,,,,,,,0,,,83,0
34320,control_change,120,0,5,,,,,,,,,0,64,0,,
34320,note_on,120,0,4,,,,,,,,,0,,,52,0
34320,note_on,0,0,4,,,,,,,,,0,,,62,40
34320,note_on,0,0,4,,,,,,,,,0,,,59,40
34350,note_on,30,0,1,,,,,,,,,0,,,86,0
34350,note_on,30,0,4,,,,,,,,,0,,,59,0
34350,note_on,0,0,4,,,,,,,,,0,,,62,0
34380,control_change,60,0,5,,,,,,,,,0,64,127,,
34380,note_on,30,0,1,,,,,,,,,0,,,74,40
34380,note_on,30,0,4,,,,,,,,,0,,,52,50
34410,note_on,0,0,1,,,,,,,,,0,,,83,40
34410,note_on,30,0,1,,,,,,,,,0,,,74,0
34440,note_on,0,0,1,,,,,,,,,0,,,74,40
34440,note_on,30,0,1,,,,,,,,,0,,,83,0
34470,note_on,0,0,1,,,,,,,,,0,,,83,40
34470,note_on,30,0,1,,,,,,,,,0,,,74,0
34500,control_change,120,0,5,,,,,,,,,0,64,0,,
34500,note_on,0,0,4,,,,,,,,,0,,,59,40
34500,note_on,0,0,4,,,,,,,,,0,,,62,40
34500,note_on,0,0,1,,,,,,,,,0,,,86,40
34500,note_on,30,0,1,,,,,,,,,0,,,83,0
34500,note_on,120,0,4,,,,,,,,,0,,,52,0
34530,note_on,0,0,4,,,,,,,,,0,,,62,0
34530,note_on,30,0,4,,,,,,,,,0,,,59,0
34530,note_on,30,0,1,,,,,,,,,0,,,86,0
34560,note_on,30,0,1,,,,,,,,,0,,,73,50
34560,note_on,0,0,1,,,,,,,,,0,,,85,50
34560,note_on,0,0,1,,,,,,,,,0,,,81,50
34560,note_on,30,0,4,,,,,,,,,0,,,61,50
34560,note_on,0,0,4,,,,,,,,,0,,,57,50
34560,note_on,0,0,4,,,,,,,,,0,,,52,50
34590,note_on,0,0,4,,,,,,,,,0,,,61,0
34590,note_on,30,0,1,,,,,,,,,0,,,85,0
34590,note_on,30,0,4,,,,,,,,,0,,,52,0
34590,note_on,0,0,1,,,,,,,,,0,,,81,0
34590,note_on,0,0,1,,,,,,,,,0,,,73,0
34590,note_on,0,0,4,,,,,,,,,0,,,57,0
34620,note_on,30,0,4,,,,,,,,,0,,,61,50
34620,note_on,0,0,4,,,,,,,,,0,,,57,50
34620,note_on,30,0,1,,,,,,,,,0,,,73,50
34620,note_on,0,0,1,,,,,,,,,0,,,81,50
34620,note_on,0,0,1,,,,,,,,,0,,,85,50
34620,note_on,0,0,4,,,,,,,,,0,,,52,50
34650,note_on,0,0,1,,,,,,,,,0,,,73,0
34650,note_on,0,0,1,,,,,,,,,0,,,81,0
34650,note_on,0,0,4,,,,,,,,,0,,,61,0
34650,note_on,0,0,4,,,,,,,,,0,,,57,0
34650,note_on,30,0,4,,,,,,,,,0,,,52,0
34650,note_on,30,0,1,,,,,,,,,0,,,85,0
34680,note_on,0,0,4,,,,,,,,,0,,,52,50
34680,note_on,0,0,4,,,,,,,,,0,,,56,50
34680,note_on,30,0,4,,,,,,,,,0,,,59,50
34680,note_on,30,0,1,,,,,,,,,0,,,71,50
34680,note_on,0,0,1,,,,,,,,,0,,,80,50
34680,note_on,0,0,1,,,,,,,,,0,,,83,50
34710,note_on,0,0,1,,,,,,,,,0,,,71,0
34710,note_on,0,0,1,,,,,,,,,0,,,80,0
34710,note_on,0,0,4,,,,,,,,,0,,,56,0
34710,note_on,30,0,4,,,,,,,,,0,,,52,0
34710,note_on,0,0,4,,,,,,,,,0,,,59,0
34710,note_on,30,0,1,,,,,,,,,0,,,83,0
34740,note_on,30,0,1,,,,,,,,,0,,,76,40
34740,note_on,30,0,4,,,,,,,,,0,,,52,50
34740,control_change,240,0,5,,,,,,,,,0,64,127,,
34770,note_on,30,0,1,,,,,,,,,0,,,76,0
34770,note_on,0,0,1,,,,,,,,,0,,,85,40
34800,note_on,30,0,1,,,,,,,,,0,,,85,0
34800,note_on,0,0,1,,,,,,,,,0,,,76,40
34830,note_on,0,0,1,,,,,,,,,0,,,85,40
34830,note_on,30,0,1,,,,,,,,,0,,,76,0
34860,note_on,120,0,4,,,,,,,,,0,,,52,0
34860,control_change,120,0,5,,,,,,,,,0,64,0,,
34860,note_on,0,0,4,,,,,,,,,0,,,64,40
34860,note_on,0,0,4,,,,,,,,,0,,,61,40
34860,note_on,30,0,1,,,,,,,,,0,,,85,0
34860,note_on,0,0,1,,,,,,,,,0,,,88,40
34890,note_on,30,0,4,,,,,,,,,0,,,61,0
34890,note_on,0,0,4,,,,,,,,,0,,,64,0
34890,note_on,30,0,1,,,,,,,,,0,,,88,0
34920,control_change,60,0,5,,,,,,,,,0,64,127,,
34920,note_on,30,0,1,,,,,,,,,0,,,76,40
34920,note_on,30,0,4,,,,,,,,,0,,,52,50
34950,note_on,0,0,1,,,,,,,,,0,,,85,40
34950,note_on,30,0,1,,,,,,,,,0,,,76,0
34980,note_on,0,0,1,,,,,,,,,0,,,76,40
34980,note_on,30,0,1,,,,,,,,,0,,,85,0
35010,note_on,0,0,1,,,,,,,,,0,,,85,40
35010,note_on,30,0,1,,,,,,,,,0,,,76,0
35040,note_on,0,0,1,,,,,,,,,0,,,88,40
35040,note_on,120,0,4,,,,,,,,,0,,,52,0
35040,note_on,0,0,4,,,,,,,,,0,,,64,40
35040,note_on,0,0,4,,,,,,,,,0,,,61,40
35040,control_change,120,0,5,,,,,,,,,0,64,0,,
35040,note_on,30,0,1,,,,,,,,,0,,,85,0
35070,note_on,30,0,1,,,,,,,,,0,,,88,0
35070,note_on,0,0,4,,,,,,,,,0,,,64,0
35070,note_on,30,0,4,,,,,,,,,0,,,61,0
35100,control_change,60,0,5,,,,,,,,,0,64,127,,
35100,note_on,30,0,1,,,,,,,,,0,,,76,40
35100,note_on,30,0,4,,,,,,,,,0,,,52,50
35130,note_on,30,0,1,,,,,,,,,0,,,76,0
35130,note_on,0,0,1,,,,,,,,,0,,,85,40
35160,note_on,30,0,1,,,,,,,,,0,,,85,0
35160,note_on,0,0,1,,,,,,,,,0,,,76,40
35190,note_on,0,0,1,,,,,,,,,0,,,85,40
35190,note_on,30,0,1,,,,,,,,,0,,,76,0
35220,note_on,0,0,4,,,,,,,,,0,,,64,40
35220,note_on,0,0,4,,,,,,,,,0,,,61,40
35220,note_on,30,0,1,,,,,,,,,0,,,85,0
35220,note_on,0,0,1,,,,,,,,,0,,,88,40
35220,control_change,120,0,5,,,,,,,,,0,64,0,,
35220,note_on,120,0,4,,,,,,,,,0,,,52,0
35250,note_on,30,0,1,,,,,,,,,0,,,88,0
35250,note_on,30,0,4,,,,,,,,,0,,,61,0
35250,note_on,0,0,4,,,,,,,,,0,,,64,0
35280,note_on,30,0,4,,,,,,,,,0,,,62,50
35280,note_on,0,0,1,,,,,,,,,0,,,80,50
35280,note_on,0,0,4,,,,,,,,,0,,,59,50
35280,note_on,0,0,1,,,,,,,,,0,,,88,50
35280,note_on,0,0,4,,,,,,,,,0,,,52,50
35280,note_on,30,0,1,,,,,,,,,0,,,92,50
35310,note_on,0,0,4,,,,,,,,,0,,,62,0
35310,note_on,30,0,1,,,,,,,,,0,,,80,0
35310,note_on,0,0,1,,,,,,,,,0,,,88,0
35310,note_on,0,0,1,,,,,,,,,0,,,92,0
35310,note_on,30,0,4,,,,,,,,,0,,,52,0
35310,note_on,0,0,4,,,,,,,,,0,,,59,0
35340,note_on,0,0,4,,,,,,,,,0,,,52,50
35340,note_on,0,0,4,,,,,,,,,0,,,59,50
35340,note_on,30,0,1,,,,,,,,,0,,,92,50
35340,note_on,30,0,4,,,,,,,,,0,,,62,50
35340,note_on,0,0,1,,,,,,,,,0,,,80,50
35340,note_on,0,0,1,,,,,,,,,0,,,88,50
35370,note_on,30,0,1,,,,,,,,,0,,,80,0
35370,note_on,0,0,1,,,,,,,,,0,,,88,0
35370,note_on,0,0,4,,,,,,,,,0,,,62,0
35370,note_on,0,0,4,,,,,,,,,0,,,59,0
35370,note_on,30,0,4,,,,,,,,,0,,,52,0
35370,note_on,0,0,1,,,,,,,,,0,,,92,0
35400,note_on,0,0,1,,,,,,,,,0,,,81,50
35400,note_on,0,0,4,,,,,,,,,0,,,52,50
35400,note_on,0,0,4,,,,,,,,,0,,,57,50
35400,note_on,30,0,4,,,,,,,,,0,,,61,50
35400,note_on,30,0,1,,,,,,,,,0,,,93,50
35400,note_on,0,0,1,,,,,,,,,0,,,88,50
35430,note_on,0,0,1,,,,,,,,,0,,,93,0
35430,note_on,0,0,1,,,,,,,,,0,,,88,0
35430,note_on,30,0,1,,,,,,,,,0,,,81,0
35430,note_on,0,0,4,,,,,,,,,0,,,61,0
35430,note_on,0,0,4,,,,,,,,,0,,,57,0
35430,note_on,30,0,4,,,,,,,,,0,,,52,0
35460,control_change,240,0,5,,,,,,,,,0,64,127,,
35460,note_on,30,0,4,,,,,,,,,0,,,52,50
35460,note_on,30,0,1,,,,,,,,,0,,,74,40
35490,note_on,0,0,1,,,,,,,,,0,,,83,40
35490,note_on,30,0,1,,,,,,,,,0,,,74,0
35520,note_on,30,0,1,,,,,,,,,0,,,83,0
35520,note_on,0,0,1,,,,,,,,,0,,,74,40
35550,note_on,0,0,1,,,,,,,,,0,,,83,40
35550,note_on,30,0,1,,,,,,,,,0,,,74,0
35580,control_change,120,0,5,,,,,,,,,0,64,0,,
35580,note_on,0,0,1,,,,,,,,,0,,,86,40
35580,note_on,30,0,1,,,,,,,,,0,,,83,0
35580,note_on,0,0,4,,,,,,,,,0,,,59,40
35580,note_on,0,0,4,,,,,,,,,0,,,62,40
35580,note_on,120,0,4,,,,,,,,,0,,,52,0
35610,note_on,30,0,1,,,,,,,,,0,,,86,0
35610,note_on,0,0,4,,,,,,,,,0,,,62,0
35610,note_on,30,0,4,,,,,,,,,0,,,59,0
35640,note_on,30,0,4,,,,,,,,,0,,,52,50
35640,control_change,60,0,5,,,,,,,,,0,64,127,,
35640,note_on,30,0,1,,,,,,,,,0,,,74,40
35670,note_on,30,0,1,,,,,,,,,0,,,74,0
35670,note_on,0,0,1,,,,,,,,,0,,,83,40
35700,note_on,30,0,1,,,,,,,,,0,,,83,0
35700,note_on,0,0,1,,,,,,,,,0,,,74,40
35730,note_on,30,0,1,,,,,,,,,0,,,74,0
35730,note_on,0,0,1,,,,,,,,,0,,,83,40
35760,note_on,0,0,4,,,,,,,,,0,,,62,40
35760,note_on,0,0,4,,,,,,,,,0,,,59,40
35760,control_change,120,0,5,,,,,,,,,0,64,0,,
35760,note_on,0,0,1,,,,,,,,,0,,,86,40
35760,note_on,30,0,1,,,,,,,,,0,,,83,0
35760,note_on,120,0,4,,,,,,,,,0,,,52,0
35790,note_on,30,0,4,,,,,,,,,0,,,59,0
35790,note_on,0,0,4,,,,,,,,,0,,,62,0
35790,note_on,30,0,1,,,,,,,,,0,,,86,0
35820,note_on,30,0,4,,,,,,,,,0,,,52,50
35820,note_on,30,0,1,,,,,,,,,0,,,74,40
35820,control_change,60,0,5,,,,,,,,,0,64,127,,
35850,note_on,30,0,1,,,,,,,,,0,,,74,0
35850,note_on,0,0,1,,,,,,,,,0,,,83,40
35880,note_on,0,0,1,,,,,,,,,0,,,74,40
35880,note_on,30,0,1,,,,,,,,,0,,,83,0
35910,note_on,30,0,1,,,,,,,,,0,,,74,0
35910,note_on,0,0,1,,,,,,,,,0,,,83,40
35940,control_change,120,0,5,,,,,,,,,0,64,0,,
35940,note_on,120,0,4,,,,,,,,,0,,,52,0
35940,note_on,0,0,4,,,,,,,,,0,,,62,40
35940,note_on,0,0,4,,,,,,,,,0,,,59,40
35940,note_on,30,0,1,,,,,,,,,0,,,83,0
35940,note_on,0,0,1,,,,,,,,,0,,,86,40
35970,note_on,30,0,4,,,,,,,,,0,,,59,0
35970,note_on,0,0,4,,,,,,,,,0,,,62,0
35970,note_on,30,0,1,,,,,,,,,0,,,86,0
36000,note_on,30,0,4,,,,,,,,,0,,,61,50
36000,note_on,0,0,1,,,,,,,,,0,,,81,50
36000,note_on,0,0,1,,,,,,,,,0,,,93,50
36000,note_on,0,0,4,,,,,,,,,0,,,52,50
36000,note_on,0,0,4,,,,,,,,,0,,,57,50
36000,note_on,30,0,1,,,,,,,,,0,,,85,50
36030,note_on,30,0,1,,,,,,,,,0,,,93,0
36030,note_on,0,0,1,,,,,,,,,0,,,81,0
36030,note_on,0,0,1,,,,,,,,,0,,,85,0
36030,note_on,0,0,4,,,,,,,,,0,,,61,0
36030,note_on,0,0,4,,,,,,,,,0,,,57,0
36030,note_on,30,0,4,,,,,,,,,0,,,52,0
36060,note_on,30,0,4,,,,,,,,,0,,,61,50
36060,note_on,0,0,4,,,,,,,,,0,,,57,50
36060,note_on,0,0,1,,,,,,,,,0,,,85,50
36060,note_on,0,0,4,,,,,,,,,0,,,52,50
36060,note_on,30,0,1,,,,,,,,,0,,,81,50
36060,note_on,0,0,1,,,,,,,,,0,,,93,50
36090,note_on,0,0,4,,,,,,,,,0,,,57,0
36090,note_on,0,0,4,,,,,,,,,0,,,61,0
36090,note_on,30,0,1,,,,,,,,,0,,,93,0
36090,note_on,0,0,1,,,,,,,,,0,,,85,0
36090,note_on,0,0,1,,,,,,,,,0,,,81,0
36090,note_on,30,0,4,,,,,,,,,0,,,52,0
36120,note_on,0,0,4,,,,,,,,,0,,,52,50
36120,note_on,0,0,1,,,,,,,,,0,,,95,50
36120,note_on,0,0,1,,,,,,,,,0,,,83,50
36120,note_on,30,0,1,,,,,,,,,0,,,86,50
36120,note_on,0,0,4,,,,,,,,,0,,,56,50
36120,note_on,30,0,4,,,,,,,,,0,,,59,50
36150,note_on,0,0,4,,,,,,,,,0,,,59,0
36150,note_on,0,0,4,,,,,,,,,0,,,56,0
36150,note_on,30,0,4,,,,,,,,,0,,,52,0
36150,note_on,0,0,1,,,,,,,,,0,,,86,0
36150,note_on,30,0,1,,,,,,,,,0,,,95,0
36150,note_on,0,0,1,,,,,,,,,0,,,83,0
36180,control_change,240,0,5,,,,,,,,,0,64,127,,
36180,note_on,30,0,4,,,,,,,,,0,,,52,50
36180,note_on,30,0,1,,,,,,,,,0,,,73,40
36210,note_on,30,0,1,,,,,,,,,0,,,73,0
36210,note_on,0,0,1,,,,,,,,,0,,,81,40
36240,note_on,30,0,1,,,,,,,,,0,,,81,0
36240,note_on,0,0,1,,,,,,,,,0,,,73,40
36270,note_on,0,0,1,,,,,,,,,0,,,81,40
36270,note_on,30,0,1,,,,,,,,,0,,,73,0
36300,control_change,120,0,5,,,,,,,,,0,64,0,,
36300,note_on,0,0,1,,,,,,,,,0,,,85,40
36300,note_on,0,0,4,,,,,,,,,0,,,57,40
36300,note_on,120,0,4,,,,,,,,,0,,,61,40
36300,note_on,30,0,1,,,,,,,,,0,,,81,0
36330,note_on,30,0,4,,,,,,,,,0,,,57,0
36330,note_on,30,0,1,,,,,,,,,0,,,85,0
36330,note_on,0,0,4,,,,,,,,,0,,,61,0
36360,note_on,30,0,4,,,,,,,,,0,,,52,0
36360,note_on,0,0,4,,,,,,,,,0,,,52,50
36360,control_change,60,0,5,,,,,,,,,0,64,127,,
36360,note_on,30,0,1,,,,,,,,,0,,,71,40
36390,note_on,30,0,1,,,,,,,,,0,,,71,0
36390,note_on,0,0,1,,,,,,,,,0,,,80,43
36420,note_on,0,0,1,,,,,,,,,0,,,71,47
36420,note_on,30,0,1,,,,,,,,,0,,,80,0
36450,note_on,0,0,1,,,,,,,,,0,,,80,51
36450,note_on,30,0,1,,,,,,,,,0,,,71,0
36480,note_on,0,0,1,,,,,,,,,0,,,83,54
36480,control_change,120,0,5,,,,,,,,,0,64,0,,
36480,note_on,120,0,4,,,,,,,,,0,,,59,54
36480,note_on,30,0,1,,,,,,,,,0,,,80,0
36480,note_on,0,0,4,,,,,,,,,0,,,56,54
36510,note_on,0,0,4,,,,,,,,,0,,,59,0
36510,note_on,30,0,1,,,,,,,,,0,,,83,0
36510,note_on,30,0,4,,,,,,,,,0,,,56,0
36540,note_on,30,0,1,,,,,,,,,0,,,73,62
36540,note_on,0,0,4,,,,,,,,,0,,,52,72
36540,note_on,30,0,4,,,,,,,,,0,,,52,0
36540,control_change,60,0,5,,,,,,,,,0,64,127,,
36570,note_on,30,0,1,,,,,,,,,0,,,73,0
36570,note_on,0,0,1,,,,,,,,,0,,,81,66
36600,note_on,30,0,1,,,,,,,,,0,,,81,0
36600,note_on,0,0,1,,,,,,,,,0,,,73,69
36630,note_on,30,0,1,,,,,,,,,0,,,73,0
36630,note_on,0,0,1,,,,,,,,,0,,,81,73
36660,note_on,0,0,4,,,,,,,,,0,,,57,77
36660,note_on,120,0,4,,,,,,,,,0,,,61,77
36660,control_change,120,0,5,,,,,,,,,0,64,0,,
36660,note_on,30,0,1,,,,,,,,,0,,,81,0
36660,note_on,0,0,1,,,,,,,,,0,,,85,77
36690,note_on,0,0,4,,,,,,,,,0,,,61,0
36690,note_on,30,0,4,,,,,,,,,0,,,57,0
36690,note_on,30,0,1,,,,,,,,,0,,,85,0
36720,note_on,30,0,4,,,,,,,,,0,,,52,0
36720,note_on,0,0,4,,,,,,,,,0,,,52,94
36720,note_on,30,0,1,,,,,,,,,0,,,74,84
36720,control_change,60,0,5,,,,,,,,,0,64,127,,
36750,note_on,30,0,1,,,,,,,,,0,,,74,0
36750,note_on,0,0,1,,,,,,,,,0,,,83,88
36780,note_on,30,0,1,,,,,,,,,0,,,83,0
36780,note_on,0,0,1,,,,,,,,,0,,,74,92
36810,note_on,0,0,1,,,,,,,,,0,,,83,96
36810,note_on,30,0,1,,,,,,,,,0,,,74,0
36840,note_on,30,0,1,,,,,,,,,0,,,83,0
36840,control_change,120,0,5,,,,,,,,,0,64,0,,
36840,note_on,0,0,4,,,,,,,,,0,,,59,99
36840,note_on,120,0,4,,,,,,,,,0,,,62,99
36840,note_on,0,0,1,,,,,,,,,0,,,86,99
36870,note_on,0,0,4,,,,,,,,,0,,,62,0
36870,note_on,30,0,4,,,,,,,,,0,,,59,0
36870,note_on,30,0,1,,,,,,,,,0,,,86,0
36900,note_on,0,0,4,,,,,,,,,0,,,51,100
36900,note_on,0,0,4,,,,,,,,,0,,,56,100
36900,note_on,0,0,4,,,,,,,,,0,,,60,100
36900,note_on,0,0,4,,,,,,,,,0,,,63,100
36900,note_on,30,0,4,,,,,,,,,0,,,52,0
36900,note_on,30,0,1,,,,,,,,,0,,,84,100
36900,key_signature,3600,1,0,,,,,Ab,,,,,,,,
36930,note_on,30,0,1,,,,,,,,,0,,,84,0
36930,note_on,0,0,1,,,,,,,,,0,,,87,60
36960,note_on,0,0,4,,,,,,,,,0,,,56,0
36960,note_on,0,0,1,,,,,,,,,0,,,84,60
36960,note_on,30,0,1,,,,,,,,,0,,,87,0
36960,note_on,60,0,4,,,,,,,,,0,,,51,0
36960,note_on,0,0,4,,,,,,,,,0,,,63,0
36960,note_on,0,0,4,,,,,,,,,0,,,60,0
36960,note_on,0,0,4,,,,,,,,,0,,,51,60
36960,note_on,0,0,4,,,,,,,,,0,,,56,60
36960,note_on,0,0,4,,,,,,,,,0,,,60,60
36960,note_on,0,0,4,,,,,,,,,0,,,63,60
36990,note_on,0,0,1,,,,,,,,,0,,,87,60
36990,note_on,30,0,1,,,,,,,,,0,,,84,0
37020,note_on,0,0,1,,,,,,,,,0,,,92,60
37020,note_on,30,0,1,,,,,,,,,0,,,87,0
37020,note_on,60,0,4,,,,,,,,,0,,,51,0
37020,note_on,0,0,4,,,,,,,,,0,,,63,0
37020,note_on,0,0,4,,,,,,,,,0,,,60,0
37020,note_on,0,0,4,,,,,,,,,0,,,56,0
37020,note_on,0,0,4,,,,,,,,,0,,,60,60
37020,note_on,0,0,4,,,,,,,,,0,,,56,60
37020,note_on,0,0,4,,,,,,,,,0,,,63,60
37020,note_on,0,0,4,,,,,,,,,0,,,51,60
37050,note_on,30,0,1,,,,,,,,,0,,,92,0
37050,note_on,0,0,1,,,,,,,,,0,,,91,60
37080,note_on,30,0,1,,,,,,,,,0,,,91,0
37080,note_on,0,0,1,,,,,,,,,0,,,89,60
37110,note_on,0,0,1,,,,,,,,,0,,,87,60
37110,note_on,30,0,1,,,,,,,,,0,,,89,0
37140,note_on,30,0,1,,,,,,,,,0,,,87,0
37140,note_on,0,0,1,,,,,,,,,0,,,85,60
37170,note_on,0,0,1,,,,,,,,,0,,,84,60
37170,note_on,30,0,1,,,,,,,,,0,,,85,0
37200,note_on,30,0,1,,,,,,,,,0,,,84,0
37200,note_on,0,0,1,,,,,,,,,0,,,82,60
37230,note_on,30,0,1,,,,,,,,,0,,,82,0
37230,note_on,0,0,1,,,,,,,,,0,,,80,60
37260,note_on,240,0,4,,,,,,,,,0,,,56,0
37260,note_on,0,0,4,,,,,,,,,0,,,58,60
37260,note_on,0,0,4,,,,,,,,,0,,,61,60
37260,note_on,30,0,1,,,,,,,,,0,,,80,0
37260,note_on,0,0,1,,,,,,,,,0,,,79,60
37260,note_on,0,0,4,,,,,,,,,0,,,60,0
37290,note_on,30,0,1,,,,,,,,,0,,,79,0
37290,note_on,0,0,1,,,,,,,,,0,,,77,60
37320,note_on,30,0,1,,,,,,,,,0,,,77,0
37320,note_on,0,0,1,,,,,,,,,0,,,75,60
37350,note_on,0,0,1,,,,,,,,,0,,,73,60
37350,note_on,30,0,1,,,,,,,,,0,,,75,0
37380,note_on,30,0,1,,,,,,,,,0,,,73,0
37380,note_on,0,0,1,,,,,,,,,0,,,72,60
37410,note_on,0,0,1,,,,,,,,,0,,,70,60
37410,note_on,30,0,1,,,,,,,,,0,,,72,0
37440,note_on,30,0,1,,,,,,,,,0,,,70,0
37440,note_on,0,0,1,,,,,,,,,0,,,68,60
37470,note_on,30,0,1,,,,,,,,,0,,,68,0
37470,note_on,0,0,1,,,,,,,,,0,,,67,60
37500,note_on,30,0,1,,,,,,,,,0,,,67,0
37500,note_on,0,0,1,,,,,,,,,0,,,65,60
37530,note_on,0,0,1,,,,,,,,,0,,,64,60
37530,note_on,30,0,1,,,,,,,,,0,,,65,0
37560,note_on,0,0,1,,,,,,,,,0,,,63,60
37560,note_on,30,0,1,,,,,,,,,0,,,64,0
37590,note_on,30,0,1,,,,,,,,,0,,,63,0
37620,note_on,0,0,4,,,,,,,,,0,,,60,100
37620,note_on,0,0,4,,,,,,,,,0,,,51,100
37620,note_on,0,0,4,,,,,,,,,0,,,56,100
37620,note_on,0,0,4,,,,,,,,,0,,,63,100
37620,note_on,0,0,4,,,,,,,,,0,,,61,0
37620,note_on,0,0,4,,,,,,,,,0,,,63,0
37620,note_on,360,0,4,,,,,,,,,0,,,58,0
37620,note_on,30,0,1,,,,,,,,,0,,,87,100
37620,note_on,0,0,4,,,,,,,,,0,,,51,0
37650,note_on,30,0,1,,,,,,,,,0,,,87,0
37650,note_on,0,0,1,,,,,,,,,0,,,92,60
37680,note_on,0,0,4,,,,,,,,,0,,,60,60
37680,note_on,0,0,4,,,,,,,,,0,,,51,60
37680,note_on,0,0,4,,,,,,,,,0,,,56,60
37680,note_on,0,0,4,,,,,,,,,0,,,63,60
37680,note_on,30,0,1,,,,,,,,,0,,,92,0
37680,note_on,0,0,4,,,,,,,,,0,,,60,0
37680,note_on,0,0,4,,,,,,,,,0,,,63,0
37680,note_on,60,0,4,,,,,,,,,0,,,51,0
37680,note_on,0,0,1,,,,,,,,,0,,,87,60
37680,note_on,0,0,4,,,,,,,,,0,,,56,0
37710,note_on,30,0,1,,,,,,,,,0,,,87,0
37710,note_on,0,0,1,,,,,,,,,0,,,92,60
37740,note_on,0,0,1,,,,,,,,,0,,,96,60
37740,note_on,30,0,1,,,,,,,,,0,,,92,0
37740,note_on,0,0,4,,,,,,,,,0,,,63,0
37740,note_on,0,0,4,,,,,,,,,0,,,60,0
37740,note_on,0,0,4,,,,,,,,,0,,,56,0
37740,note_on,60,0,4,,,,,,,,,0,,,51,0
37740,note_on,0,0,4,,,,,,,,,0,,,56,60
37740,note_on,0,0,4,,,,,,,,,0,,,63,60
37740,note_on,0,0,4,,,,,,,,,0,,,51,60
37740,note_on,0,0,4,,,,,,,,,0,,,60,60
37770,note_on,30,0,1,,,,,,,,,0,,,96,0
37770,note_on,0,0,1,,,,,,,,,0,,,94,60
37800,note_on,30,0,1,,,,,,,,,0,,,94,0
37800,note_on,0,0,1,,,,,,,,,0,,,92,60
37830,note_on,30,0,1,,,,,,,,,0,,,92,0
37830,note_on,0,0,1,,,,,,,,,0,,,91,60
37860,note_on,0,0,1,,,,,,,,,0,,,89,60
37860,note_on,30,0,1,,,,,,,,,0,,,91,0
37890,note_on,30,0,1,,,,,,,,,0,,,89,0
37890,note_on,0,0,1,,,,,,,,,0,,,87,60
37920,note_on,0,0,1,,,,,,,,,0,,,85,60
37920,note_on,30,0,1,,,,,,,,,0,,,87,0
37950,note_on,30,0,1,,,,,,,,,0,,,85,0
37950,note_on,0,0,1,,,,,,,,,0,,,84,60
37980,note_on,0,0,4,,,,,,,,,0,,,55,60
37980,note_on,0,0,4,,,,,,,,,0,,,60,0
37980,note_on,0,0,4,,,,,,,,,0,,,61,60
37980,note_on,30,0,1,,,,,,,,,0,,,84,0
37980,note_on,240,0,4,,,,,,,,,0,,,56,0
37980,note_on,0,0,1,,,,,,,,,0,,,82,60
38010,note_on,30,0,1,,,,,,,,,0,,,82,0
38010,note_on,0,0,1,,,,,,,,,0,,,80,60
38040,note_on,0,0,1,,,,,,,,,0,,,79,60
38040,note_on,30,0,1,,,,,,,,,0,,,80,0
38070,note_on,30,0,1,,,,,,,,,0,,,79,0
38070,note_on,0,0,1,,,,,,,,,0,,,77,60
38100,note_on,30,0,1,,,,,,,,,0,,,77,0
38100,note_on,0,0,1,,,,,,,,,0,,,75,60
38130,note_on,30,0,1,,,,,,,,,0,,,75,0
38130,note_on,0,0,1,,,,,,,,,0,,,73,60
38160,note_on,30,0,1,,,,,,,,,0,,,73,0
38160,note_on,0,0,1,,,,,,,,,0,,,72,60
38190,note_on,30,0,1,,,,,,,,,0,,,72,0
38190,note_on,0,0,1,,,,,,,,,0,,,70,60
38220,note_on,30,0,1,,,,,,,,,0,,,70,0
38220,note_on,0,0,1,,,,,,,,,0,,,68,60
38250,note_on,0,0,1,,,,,,,,,0,,,67,60
38250,note_on,30,0,1,,,,,,,,,0,,,68,0
38280,note_on,0,0,1,,,,,,,,,0,,,65,60
38280,note_on,30,0,1,,,,,,,,,0,,,67,0
38310,note_on,30,0,1,,,,,,,,,0,,,65,0
38310,note_on,0,0,1,,,,,,,,,0,,,63,60
38340,note_on,30,0,1,,,,,,,,,0,,,63,0
38340,note_on,0,0,1,,,,,,,,,0,,,92,60
38340,note_on,0,0,4,,,,,,,,,0,,,56,60
38340,note_on,0,0,4,,,,,,,,,0,,,61,0
38340,note_on,0,0,4,,,,,,,,,0,,,60,60
38340,note_on,0,0,4,,,,,,,,,0,,,51,60
38340,note_on,360,0,4,,,,,,,,,0,,,55,0
38340,note_on,0,0,4,,,,,,,,,0,,,51,0
38340,note_on,0,0,4,,,,,,,,,0,,,63,0
38340,note_on,0,0,4,,,,,,,,,0,,,63,60
38370,note_on,30,0,1,,,,,,,,,0,,,92,0
38370,note_on,0,0,1,,,,,,,,,0,,,96,60
38400,note_on,0,0,1,,,,,,,,,0,,,92,60
38400,note_on,0,0,4,,,,,,,,,0,,,60,60
38400,note_on,0,0,4,,,,,,,,,0,,,56,0
38400,note_on,0,0,4,,,,,,,,,0,,,60,0
38400,note_on,0,0,4,,,,,,,,,0,,,63,60
38400,note_on,60,0,4,,,,,,,,,0,,,51,0
38400,note_on,0,0,4,,,,,,,,,0,,,56,60
38400,note_on,30,0,1,,,,,,,,,0,,,96,0
38400,note_on,0,0,4,,,,,,,,,0,,,63,0
38400,note_on,0,0,4,,,,,,,,,0,,,51,60
38430,note_on,0,0,1,,,,,,,,,0,,,96,60
38430,note_on,30,0,1,,,,,,,,,0,,,92,0
38460,note_on,0,0,1,,,,,,,,,0,,,99,60
38460,note_on,0,0,4,,,,,,,,,0,,,51,60
38460,note_on,0,0,4,,,,,,,,,0,,,60,60
38460,note_on,0,0,4,,,,,,,,,0,,,56,0
38460,note_on,0,0,4,,,,,,,,,0,,,60,0
38460,note_on,0,0,4,,,,,,,,,0,,,63,0
38460,note_on,60,0,4,,,,,,,,,0,,,51,0
38460,note_on,0,0,4,,,,,,,,,0,,,63,60
38460,note_on,0,0,4,,,,,,,,,0,,,56,60
38460,note_on,30,0,1,,,,,,,,,0,,,96,0
38490,note_on,0,0,1,,,,,,,,,0,,,97,60
38490,note_on,30,0,1,,,,,,,,,0,,,99,0
38520,note_on,0,0,1,,,,,,,,,0,,,96,60
38520,note_on,30,0,1,,,,,,,,,0,,,97,0
38550,note_on,0,0,1,,,,,,,,,0,,,94,62
38550,note_on,30,0,1,,,,,,,,,0,,,96,0
38580,note_on,30,0,1,,,,,,,,,0,,,94,0
38580,note_on,0,0,1,,,,,,,,,0,,,92,64
38610,note_on,30,0,1,,,,,,,,,0,,,92,0
38610,note_on,0,0,1,,,,,,,,,0,,,91,66
38640,note_on,30,0,1,,,,,,,,,0,,,91,0
38640,note_on,0,0,1,,,,,,,,,0,,,89,68
38670,note_on,30,0,1,,,,,,,,,0,,,89,0
38670,note_on,0,0,1,,,,,,,,,0,,,87,70
38700,note_on,240,0,4,,,,,,,,,0,,,56,0
38700,note_on,0,0,4,,,,,,,,,0,,,60,0
38700,note_on,0,0,4,,,,,,,,,0,,,61,72
38700,note_on,30,0,1,,,,,,,,,0,,,87,0
38700,note_on,0,0,1,,,,,,,,,0,,,85,72
38700,note_on,0,0,4,,,,,,,,,0,,,55,72
38730,note_on,0,0,1,,,,,,,,,0,,,84,74
38730,note_on,30,0,1,,,,,,,,,0,,,85,0
38760,note_on,30,0,1,,,,,,,,,0,,,84,0
38760,note_on,0,0,1,,,,,,,,,0,,,82,77
38790,note_on,30,0,1,,,,,,,,,0,,,82,0
38790,note_on,0,0,1,,,,,,,,,0,,,80,79
38820,note_on,0,0,1,,,,,,,,,0,,,79,81
38820,note_on,30,0,1,,,,,,,,,0,,,80,0
38850,note_on,0,0,1,,,,,,,,,0,,,77,83
38850,note_on,30,0,1,,,,,,,,,0,,,79,0
38880,note_on,30,0,1,,,,,,,,,0,,,77,0
38880,note_on,0,0,1,,,,,,,,,0,,,75,85
38900,note_on,0,0,1,,,,,,,,,0,,,73,87
38900,note_on,20,0,1,,,,,,,,,0,,,75,0
38920,note_on,20,0,1,,,,,,,,,0,,,73,0
38920,note_on,0,0,1,,,,,,,,,0,,,72,88
38940,note_on,20,0,1,,,,,,,,,0,,,72,0
38940,note_on,0,0,1,,,,,,,,,0,,,70,89
38940,note_on,0,0,4,,,,,,,,,0,,,61,0
38940,note_on,0,0,4,,,,,,,,,0,,,63,0
38940,note_on,0,0,4,,,,,,,,,0,,,51,0
38940,note_on,240,0,4,,,,,,,,,0,,,55,0
38955,note_on,0,0,1,,,,,,,,,0,,,68,91
38955,note_on,15,0,1,,,,,,,,,0,,,70,0
38970,note_on,0,0,1,,,,,,,,,0,,,67,92
38970,note_on,15,0,1,,,,,,,,,0,,,68,0
38985,note_on,15,0,1,,,,,,,,,0,,,67,0
38985,note_on,0,0,1,,,,,,,,,0,,,65,93
39000,note_on,15,0,1,,,,,,,,,0,,,65,0
39000,note_on,0,0,1,,,,,,,,,0,,,63,94
39015,note_on,15,0,1,,,,,,,,,0,,,63,0
39015,note_on,0,0,1,,,,,,,,,0,,,61,95
39030,note_on,0,0,1,,,,,,,,,0,,,60,96
39030,note_on,15,0,1,,,,,,,,,0,,,61,0
39045,note_on,15,0,1,,,,,,,,,0,,,60,0
39045,note_on,0,0,1,,,,,,,,,0,,,58,97
39060,note_on,0,0,1,,,,,,,,,0,,,56,98
39060,note_on,15,0,1,,,,,,,,,0,,,58,0
39120,note_on,60,0,1,,,,,,,,,0,,,56,0
39120,note_on,0,0,1,,,,,,,,,0,,,56,100
39120,note_on,180,0,4,,,,,,,,,0,,,44,100
39150,note_on,0,0,1,,,,,,,,,0,,,60,100
39150,note_on,0,0,4,,,,,,,,,0,,,48,100
39150,note_on,30,0,4,,,,,,,,,0,,,44,0
39150,note_on,30,0,1,,,,,,,,,0,,,56,0
39180,note_on,0,0,4,,,,,,,,,0,,,51,100
39180,note_on,30,0,4,,,,,,,,,0,,,48,0
39180,note_on,0,0,1,,,,,,,,,0,,,63,100
39180,note_on,30,0,1,,,,,,,,,0,,,60,0
39210,note_on,0,0,1,,,,,,,,,0,,,61,100
39210,note_on,30,0,4,,,,,,,,,0,,,51,0
39210,note_on,0,0,4,,,,,,,,,0,,,49,100
39210,note_on,30,0,1,,,,,,,,,0,,,63,0
39240,note_on,0,0,4,,,,,,,,,0,,,48,100
39240,note_on,39240,0,2,,,,,,,,,0,,,60,100
39240,note_on,30,0,1,,,,,,,,,0,,,61,0
39240,note_on,30,0,4,,,,,,,,,0,,,49,0
39270,note_on,0,0,2,,,,,,,,,0,,,58,100
39270,note_on,0,0,4,,,,,,,,,0,,,46,100
39270,note_on,30,0,4,,,,,,,,,0,,,48,0
39270,note_on,30,0,2,,,,,,,,,0,,,60,0
39300,note_on,30,0,4,,,,,,,,,0,,,46,0
39300,note_on,0,0,4,,,,,,,,,0,,,44,100
39300,note_on,30,0,2,,,,,,,,,0,,,58,0
39300,note_on,0,0,2,,,,,,,,,0,,,56,100
39330,note_on,0,0,2,,,,,,,,,0,,,55,100
39330,note_on,30,0,2,,,,,,,,,0,,,56,0
39330,note_on,30,0,4,,,,,,,,,0,,,44,0
39330,note_on,0,0,4,,,,,,,,,0,,,43,100
39360,note_on,0,0,2,,,,,,,,,0,,,53,100
39360,note_on,30,0,2,,,,,,,,,0,,,55,0
39360,note_on,30,0,4,,,,,,,,,0,,,43,0
39360,note_on,0,0,4,,,,,,,,,0,,,41,100
39390,note_on,0,0,2,,,,,,,,,0,,,51,100
39390,note_on,30,0,2,,,,,,,,,0,,,53,0
39390,note_on,0,0,4,,,,,,,,,0,,,39,100
39390,note_on,30,0,4,,,,,,,,,0,,,41,0
39420,note_on,30,0,4,,,,,,,,,0,,,39,0
39420,note_on,30,0,2,,,,,,,,,0,,,51,0
39420,note_on,0,0,2,,,,,,,,,0,,,49,100
39420,note_on,0,0,4,,,,,,,,,0,,,37,100
39450,note_on,0,0,2,,,,,,,,,0,,,48,100
39450,note_on,30,0,2,,,,,,,,,0,,,49,0
39450,note_on,0,0,4,,,,,,,,,0,,,36,100
39450,note_on,30,0,4,,,,,,,,,0,,,37,0
39480,note_on,0,0,4,,,,,,,,,0,,,34,100
39480,note_on,30,0,4,,,,,,,,,0,,,36,0
39480,note_on,0,0,2,,,,,,,,,0,,,46,100
39480,note_on,30,0,2,,,,,,,,,0,,,48,0
39510,note_on,30,0,4,,,,,,,,,0,,,34,0
39510,note_on,0,0,4,,,,,,,,,0,,,32,100
39510,note_on,0,0,2,,,,,,,,,0,,,44,100
39510,note_on,30,0,2,,,,,,,,,0,,,46,0
39540,note_on,30,0,4,,,,,,,,,0,,,32,0
39540,note_on,0,0,4,,,,,,,,,0,,,31,100
39540,note_on,0,0,2,,,,,,,,,0,,,43,100
39540,note_on,30,0,2,,,,,,,,,0,,,44,0
39570,note_on,30,0,4,,,,,,,,,0,,,31,0
39570,note_on,0,0,2,,,,,,,,,0,,,44,100
39570,note_on,30,0,2,,,,,,,,,0,,,43,0
39570,note_on,0,0,4,,,,,,,,,0,,,32,100
39600,note_on,30,0,4,,,,,,,,,0,,,32,0
39600,note_on,0,0,4,,,,,,,,,0,,,34,100
39600,note_on,0,0,2,,,,,,,,,0,,,46,100
39600,note_on,30,0,2,,,,,,,,,0,,,44,0
39630,note_on,0,0,4,,,,,,,,,0,,,36,100
39630,note_on,30,0,4,,,,,,,,,0,,,34,0
39630,note_on,0,0,2,,,,,,,,,0,,,48,100
39630,note_on,30,0,2,,,,,,,,,0,,,46,0
39660,note_on,0,0,4,,,,,,,,,0,,,37,100
39660,note_on,30,0,4,,,,,,,,,0,,,36,0
39660,note_on,0,0,2,,,,,,,,,0,,,49,100
39660,note_on,30,0,2,,,,,,,,,0,,,48,0
39690,note_on,0,0,2,,,,,,,,,0,,,51,100
39690,note_on,30,0,2,,,,,,,,,0,,,49,0
39690,note_on,30,0,4,,,,,,,,,0,,,37,0
39690,note_on,0,0,4,,,,,,,,,0,,,39,100
39720,note_on,0,0,4,,,,,,,,,0,,,41,100
39720,note_on,30,0,4,,,,,,,,,0,,,39,0
39720,note_on,30,0,2,,,,,,,,,0,,,51,0
39720,note_on,0,0,2,,,,,,,,,0,,,53,100
39750,note_on,0,0,4,,,,,,,,,0,,,43,100
39750,note_on,30,0,4,,,,,,,,,0,,,41,0
39750,note_on,30,0,2,,,,,,,,,0,,,53,0
39750,note_on,0,0,2,,,,,,,,,0,,,55,100
39780,note_on,0,0,4,,,,,,,,,0,,,44,100
39780,note_on,30,0,4,,,,,,,,,0,,,43,0
39780,note_on,30,0,2,,,,,,,,,0,,,55,0
39780,note_on,540,0,1,,,,,,,,,0,,,56,100
39810,note_on,30,0,1,,,,,,,,,0,,,56,0
39810,note_on,0,0,1,,,,,,,,,0,,,58,100
39810,note_on,0,0,4,,,,,,,,,0,,,46,100
39810,note_on,30,0,4,,,,,,,,,0,,,44,0
39840,note_on,0,0,1,,,,,,,,,0,,,60,101
39840,note_on,30,0,1,,,,,,,,,0,,,58,0
39840,note_on,0,0,4,,,,,,,,,0,,,48,101
39840,note_on,30,0,4,,,,,,,,,0,,,46,0
39870,note_on,0,0,1,,,,,,,,,0,,,61,102
39870,note_on,30,0,1,,,,,,,,,0,,,60,0
39870,note_on,0,0,4,,,,,,,,,0,,,49,102
39870,note_on,30,0,4,,,,,,,,,0,,,48,0
39900,note_on,0,0,1,,,,,,,,,0,,,63,103
39900,note_on,30,0,1,,,,,,,,,0,,,61,0
39900,note_on,0,0,4,,,,,,,,,0,,,51,103
39900,note_on,30,0,4,,,,,,,,,0,,,49,0
39930,note_on,0,0,1,,,,,,,,,0,,,65,104
39930,note_on,30,0,1,,,,,,,,,0,,,63,0
39930,note_on,0,0,4,,,,,,,,,0,,,53,104
39930,note_on,30,0,4,,,,,,,,,0,,,51,0
39960,note_on,30,0,1,,,,,,,,,0,,,65,0
39960,note_on,0,0,1,,,,,,,,,0,,,67,105
39960,note_on,0,0,4,,,,,,,,,0,,,55,105
39960,note_on,30,0,4,,,,,,,,,0,,,53,0
39990,note_on,0,0,4,,,,,,,,,0,,,56,106
39990,note_on,30,0,4,,,,,,,,,0,,,55,0
39990,note_on,30,0,1,,,,,,,,,0,,,67,0
39990,note_on,0,0,1,,,,,,,,,0,,,68,106
40020,note_on,0,0,1,,,,,,,,,0,,,70,107
40020,note_on,30,0,1,,,,,,,,,0,,,68,0
40020,note_on,30,0,4,,,,,,,,,0,,,56,0
40020,note_on,0,0,4,,,,,,,,,0,,,58,107
40050,note_on,0,0,1,,,,,,,,,0,,,72,108
40050,note_on,30,0,1,,,,,,,,,0,,,70,0
40050,note_on,30,0,4,,,,,,,,,0,,,58,0
40050,note_on,0,0,4,,,,,,,,,0,,,60,108
40080,note_on,0,0,1,,,,,,,,,0,,,73,109
40080,note_on,30,0,1,,,,,,,,,0,,,72,0
40080,note_on,0,0,4,,,,,,,,,0,,,61,109
40080,note_on,30,0,4,,,,,,,,,0,,,60,0
40110,note_on,0,0,4,,,,,,,,,0,,,63,110
40110,note_on,0,0,1,,,,,,,,,0,,,75,110
40110,note_on,30,0,4,,,,,,,,,0,,,61,0
40110,note_on,30,0,1,,,,,,,,,0,,,73,0
40140,note_on,30,0,4,,,,,,,,,0,,,63,0
40140,note_on,0,0,4,,,,,,,,,0,,,65,110
40140,note_on,0,0,1,,,,,,,,,0,,,77,110
40140,note_on,30,0,1,,,,,,,,,0,,,75,0
40170,note_on,30,0,4,,,,,,,,,0,,,65,0
40170,note_on,0,0,4,,,,,,,,,0,,,63,106
40170,note_on,0,0,1,,,,,,,,,0,,,75,106
40170,note_on,30,0,1,,,,,,,,,0,,,77,0
40200,note_on,0,0,1,,,,,,,,,0,,,73,102
40200,note_on,30,0,1,,,,,,,,,0,,,75,0
40200,note_on,30,0,4,,,,,,,,,0,,,63,0
40200,note_on,0,0,4,,,,,,,,,0,,,61,102
40230,note_on,30,0,1,,,,,,,,,0,,,73,0
40230,note_on,0,0,1,,,,,,,,,0,,,72,98
40230,note_on,30,0,4,,,,,,,,,0,,,61,0
40230,note_on,0,0,4,,,,,,,,,0,,,60,98
40260,note_on,30,0,1,,,,,,,,,0,,,72,0
40260,note_on,30,0,4,,,,,,,,,0,,,60,0
40260,note_on,0,0,4,,,,,,,,,0,,,58,93
40260,note_on,0,0,1,,,,,,,,,0,,,70,93
40290,note_on,30,0,4,,,,,,,,,0,,,58,0
40290,note_on,0,0,4,,,,,,,,,0,,,56,89
40290,note_on,30,0,1,,,,,,,,,0,,,70,0
40290,note_on,0,0,1,,,,,,,,,0,,,68,89
40320,note_on,0,0,1,,,,,,,,,0,,,67,85
40320,note_on,30,0,1,,,,,,,,,0,,,68,0
40320,note_on,0,0,4,,,,,,,,,0,,,55,85
40320,note_on,30,0,4,,,,,,,,,0,,,56,0
40350,note_on,30,0,4,,,,,,,,,0,,,55,0
40350,note_on,0,0,1,,,,,,,,,0,,,65,81
40350,note_on,30,0,1,,,,,,,,,0,,,67,0
40350,note_on,0,0,4,,,,,,,,,0,,,53,81
40380,note_on,0,0,1,,,,,,,,,0,,,63,76
40380,note_on,30,0,1,,,,,,,,,0,,,65,0
40380,note_on,0,0,4,,,,,,,,,0,,,51,76
40380,note_on,30,0,4,,,,,,,,,0,,,53,0
40410,note_on,30,0,1,,,,,,,,,0,,,63,0
40410,note_on,0,0,4,,,,,,,,,0,,,49,72
40410,note_on,30,0,4,,,,,,,,,0,,,51,0
40410,note_on,0,0,1,,,,,,,,,0,,,61,72
40440,note_on,0,0,1,,,,,,,,,0,,,60,68
40440,note_on,30,0,1,,,,,,,,,0,,,61,0
40440,note_on,0,0,4,,,,,,,,,0,,,48,68
40440,note_on,30,0,4,,,,,,,,,0,,,49,0
40470,note_on,0,0,4,,,,,,,,,0,,,46,63
40470,note_on,30,0,4,,,,,,,,,0,,,48,0
40470,note_on,30,0,1,,,,,,,,,0,,,60,0
40470,note_on,0,0,1,,,,,,,,,0,,,58,63
40500,note_on,30,0,4,,,,,,,,,0,,,46,0
40500,note_on,0,0,4,,,,,,,,,0,,,44,60
40500,note_on,30,0,1,,,,,,,,,0,,,58,0
40500,note_on,0,0,1,,,,,,,,,0,,,56,60
40560,note_on,60,0,1,,,,,,,,,0,,,56,0
40560,note_on,0,0,4,,,,,,,,,0,,,56,60
40560,note_on,0,0,1,,,,,,,,,0,,,68,60
40560,note_on,60,0,4,,,,,,,,,0,,,44,0
40590,note_on,0,0,1,,,,,,,,,0,,,72,60
40590,note_on,30,0,4,,,,,,,,,0,,,56,0
40590,note_on,0,0,4,,,,,,,,,0,,,60,60
40590,note_on,30,0,1,,,,,,,,,0,,,68,0
40620,note_on,30,0,1,,,,,,,,,0,,,72,0
40620,note_on,0,0,1,,,,,,,,,0,,,75,60
40620,note_on,0,0,4,,,,,,,,,0,,,63,60
40620,note_on,30,0,4,,,,,,,,,0,,,60,0
40650,note_on,30,0,4,,,,,,,,,0,,,63,0
40650,note_on,0,0,4,,,,,,,,,0,,,61,60
40650,note_on,30,0,1,,,,,,,,,0,,,75,0
40650,note_on,0,0,1,,,,,,,,,0,,,73,60
40680,note_on,30,0,4,,,,,,,,,0,,,61,0
40680,note_on,0,0,4,,,,,,,,,0,,,60,60
40680,note_on,30,0,1,,,,,,,,,0,,,73,0
40680,note_on,0,0,1,,,,,,,,,0,,,72,60
40710,note_on,0,0,1,,,,,,,,,0,,,70,60
40710,note_on,30,0,1,,,,,,,,,0,,,72,0
40710,note_on,0,0,4,,,,,,,,,0,,,58,60
40710,note_on,30,0,4,,,,,,,,,0,,,60,0
40740,note_on,30,0,4,,,,,,,,,0,,,58,0
40740,note_on,0,0,4,,,,,,,,,0,,,56,60
40740,note_on,30,0,1,,,,,,,,,0,,,70,0
40740,note_on,0,0,1,,,,,,,,,0,,,68,60
40770,note_on,30,0,4,,,,,,,,,0,,,56,0
40770,note_on,0,0,4,,,,,,,,,0,,,55,60
40770,note_on,30,0,1,,,,,,,,,0,,,68,0
40770,note_on,0,0,1,,,,,,,,,0,,,67,60
40800,note_on,0,0,1,,,,,,,,,0,,,65,60
40800,note_on,30,0,1,,,,,,,,,0,,,67,0
40800,note_on,30,0,4,,,,,,,,,0,,,55,0
40800,note_on,0,0,4,,,,,,,,,0,,,53,60
40830,note_on,30,0,1,,,,,,,,,0,,,65,0
40830,note_on,0,0,1,,,,,,,,,0,,,63,60
40830,note_on,30,0,4,,,,,,,,,0,,,53,0
40830,note_on,0,0,4,,,,,,,,,0,,,51,60
40860,note_on,30,0,1,,,,,,,,,0,,,63,0
40860,note_on,0,0,1,,,,,,,,,0,,,61,60
40860,note_on,30,0,4,,,,,,,,,0,,,51,0
40860,note_on,0,0,4,,,,,,,,,0,,,49,60
40890,note_on,30,0,4,,,,,,,,,0,,,49,0
40890,note_on,0,0,4,,,,,,,,,0,,,48,60
40890,note_on,30,0,1,,,,,,,,,0,,,61,0
40890,note_on,0,0,1,,,,,,,,,0,,,60,60
40920,note_on,30,0,4,,,,,,,,,0,,,48,0
40920,note_on,0,0,1,,,,,,,,,0,,,58,60
40920,note_on,30,0,1,,,,,,,,,0,,,60,0
40920,note_on,0,0,4,,,,,,,,,0,,,46,60
40950,note_on,30,0,4,,,,,,,,,0,,,46,0
40950,note_on,0,0,1,,,,,,,,,0,,,56,60
40950,note_on,30,0,1,,,,,,,,,0,,,58,0
40950,note_on,0,0,4,,,,,,,,,0,,,44,60
40980,note_on,30,0,4,,,,,,,,,0,,,44,0
40980,note_on,0,0,4,,,,,,,,,0,,,43,60
40980,note_on,30,0,1,,,,,,,,,0,,,56,0
40980,note_on,0,0,1,,,,,,,,,0,,,55,60
41010,note_on,30,0,1,,,,,,,,,0,,,55,0
41010,note_on,0,0,1,,,,,,,,,0,,,56,60
41010,note_on,30,0,4,,,,,,,,,0,,,43,0
41010,note_on,0,0,4,,,,,,,,,0,,,44,60
41040,note_on,30,0,1,,,,,,,,,0,,,56,0
41040,note_on,0,0,1,,,,,,,,,0,,,58,60
41040,note_on,0,0,4,,,,,,,,,0,,,46,60
41040,note_on,30,0,4,,,,,,,,,0,,,44,0
41070,note_on,0,0,1,,,,,,,,,0,,,60,60
41070,note_on,30,0,4,,,,,,,,,0,,,46,0
41070,note_on,30,0,1,,,,,,,,,0,,,58,0
41070,note_on,0,0,4,,,,,,,,,0,,,48,60
41100,note_on,0,0,1,,,,,,,,,0,,,61,60
41100,note_on,30,0,1,,,,,,,,,0,,,60,0
41100,note_on,0,0,4,,,,,,,,,0,,,49,60
41100,note_on,30,0,4,,,,,,,,,0,,,48,0
41130,note_on,30,0,1,,,,,,,,,0,,,61,0
41130,note_on,0,0,4,,,,,,,,,0,,,51,60
41130,note_on,0,0,1,,,,,,,,,0,,,63,60
41130,note_on,30,0,4,,,,,,,,,0,,,49,0
41160,note_on,30,0,1,,,,,,,,,0,,,63,0
41160,note_on,0,0,1,,,,,,,,,0,,,65,60
41160,note_on,0,0,4,,,,,,,,,0,,,53,60
41160,note_on,30,0,4,,,,,,,,,0,,,51,0
41190,note_on,30,0,4,,,,,,,,,0,,,53,0
41190,note_on,0,0,4,,,,,,,,,0,,,55,60
41190,note_on,30,0,1,,,,,,,,,0,,,65,0
41190,note_on,0,0,1,,,,,,,,,0,,,67,60
41220,note_on,30,0,4,,,,,,,,,0,,,55,0
41220,note_on,0,0,4,,,,,,,,,0,,,56,60
41220,note_on,30,0,1,,,,,,,,,0,,,67,0
41220,note_on,0,0,1,,,,,,,,,0,,,68,60
41250,note_on,0,0,1,,,,,,,,,0,,,70,61
41250,note_on,30,0,1,,,,,,,,,0,,,68,0
41250,note_on,0,0,4,,,,,,,,,0,,,58,61
41250,note_on,30,0,4,,,,,,,,,0,,,56,0
41280,note_on,0,0,1,,,,,,,,,0,,,72,63
41280,note_on,30,0,1,,,,,,,,,0,,,70,0
41280,note_on,0,0,4,,,,,,,,,0,,,60,63
41280,note_on,30,0,4,,,,,,,,,0,,,58,0
41310,note_on,30,0,1,,,,,,,,,0,,,72,0
41310,note_on,30,0,4,,,,,,,,,0,,,60,0
41310,note_on,0,0,4,,,,,,,,,0,,,61,65
41310,note_on,0,0,1,,,,,,,,,0,,,73,65
41340,note_on,30,0,4,,,,,,,,,0,,,61,0
41340,note_on,0,0,4,,,,,,,,,0,,,63,67
41340,note_on,30,0,1,,,,,,,,,0,,,73,0
41340,note_on,0,0,1,,,,,,,,,0,,,75,67
41370,note_on,30,0,4,,,,,,,,,0,,,63,0
41370,note_on,0,0,4,,,,,,,,,0,,,65,68
41370,note_on,30,0,1,,,,,,,,,0,,,75,0
41370,note_on,0,0,1,,,,,,,,,0,,,77,68
41400,note_on,30,0,4,,,,,,,,,0,,,65,0
41400,note_on,41400,0,3,,,,,,,,,0,,,67,70
41400,note_on,30,0,1,,,,,,,,,0,,,77,0
41400,note_on,0,0,1,,,,,,,,,0,,,79,70
41430,note_on,0,0,3,,,,,,,,,0,,,68,72
41430,note_on,30,0,3,,,,,,,,,0,,,67,0
41430,note_on,30,0,1,,,,,,,,,0,,,79,0
41430,note_on,0,0,1,,,,,,,,,0,,,80,72
41460,note_on,30,0,1,,,,,,,,,0,,,80,0
41460,note_on,0,0,1,,,,,,,,,0,,,82,74
41460,note_on,30,0,3,,,,,,,,,0,,,68,0
41460,note_on,0,0,3,,,,,,,,,0,,,70,74
41490,note_on,30,0,1,,,,,,,,,0,,,82,0
41490,note_on,0,0,1,,,,,,,,,0,,,84,75
41490,note_on,0,0,3,,,,,,,,,0,,,72,75
41490,note_on,30,0,3,,,,,,,,,0,,,70,0
41520,note_on,30,0,1,,,,,,,,,0,,,84,0
41520,note_on,0,0,1,,,,,,,,,0,,,85,77
41520,note_on,30,0,3,,,,,,,,,0,,,72,0
41520,note_on,0,0,3,,,,,,,,,0,,,73,77
41550,note_on,30,0,3,,,,,,,,,0,,,73,0
41550,note_on,0,0,3,,,,,,,,,0,,,75,79
41550,note_on,0,0,1,,,,,,,,,0,,,87,79
41550,note_on,30,0,1,,,,,,,,,0,,,85,0
41580,note_on,30,0,1,,,,,,,,,0,,,87,0
41580,note_on,0,0,1,,,,,,,,,0,,,89,80
41580,note_on,30,0,3,,,,,,,,,0,,,75,0
41580,note_on,0,0,3,,,,,,,,,0,,,77,80
41610,note_on,30,0,1,,,,,,,,,0,,,89,0
41610,note_on,0,0,1,,,,,,,,,0,,,87,79
41610,note_on,30,0,3,,,,,,,,,0,,,77,0
41610,note_on,0,0,3,,,,,,,,,0,,,75,79
41640,note_on,30,0,3,,,,,,,,,0,,,75,0
41640,note_on,0,0,3,,,,,,,,,0,,,73,77
41640,note_on,30,0,1,,,,,,,,,0,,,87,0
41640,note_on,0,0,1,,,,,,,,,0,,,85,77
41670,note_on,30,0,3,,,,,,,,,0,,,73,0
41670,note_on,0,0,3,,,,,,,,,0,,,72,75
41670,note_on,0,0,1,,,,,,,,,0,,,84,75
41670,note_on,30,0,1,,,,,,,,,0,,,85,0
41700,note_on,30,0,1,,,,,,,,,0,,,84,0
41700,note_on,0,0,1,,,,,,,,,0,,,82,73
41700,note_on,0,0,3,,,,,,,,,0,,,70,73
41700,note_on,30,0,3,,,,,,,,,0,,,72,0
41730,note_on,30,0,1,,,,,,,,,0,,,82,0
41730,note_on,0,0,1,,,,,,,,,0,,,80,72
41730,note_on,0,0,3,,,,,,,,,0,,,68,72
41730,note_on,30,0,3,,,,,,,,,0,,,70,0
41760,note_on,30,0,3,,,,,,,,,0,,,68,0
41760,note_on,30,0,1,,,,,,,,,0,,,80,0
41760,note_on,0,0,1,,,,,,,,,0,,,79,70
41760,note_on,0,0,3,,,,,,,,,0,,,67,70
41790,note_on,30,0,3,,,,,,,,,0,,,67,0
41790,note_on,0,0,1,,,,,,,,,0,,,77,68
41790,note_on,30,0,1,,,,,,,,,0,,,79,0
41790,note_on,0,0,3,,,,,,,,,0,,,65,68
41820,note_on,30,0,3,,,,,,,,,0,,,65,0
41820,note_on,0,0,3,,,,,,,,,0,,,63,66
41820,note_on,0,0,1,,,,,,,,,0,,,75,66
41820,note_on,30,0,1,,,,,,,,,0,,,77,0
41850,note_on,0,0,1,,,,,,,,,0,,,73,65
41850,note_on,0,0,3,,,,,,,,,0,,,61,65
41850,note_on,30,0,3,,,,,,,,,0,,,63,0
41850,note_on,30,0,1,,,,,,,,,0,,,75,0
41880,note_on,0,0,1,,,,,,,,,0,,,72,63
41880,note_on,30,0,1,,,,,,,,,0,,,73,0
41880,note_on,0,0,3,,,,,,,,,0,,,60,63
41880,note_on,30,0,3,,,,,,,,,0,,,61,0
41910,note_on,0,0,3,,,,,,,,,0,,,58,61
41910,note_on,30,0,3,,,,,,,,,0,,,60,0
41910,note_on,0,0,1,,,,,,,,,0,,,70,61
41910,note_on,30,0,1,,,,,,,,,0,,,72,0
41940,note_on,0,0,1,,,,,,,,,0,,,68,60
41940,note_on,30,0,3,,,,,,,,,0,,,58,0
41940,note_on,30,0,1,,,,,,,,,0,,,70,0
41940,note_on,0,0,3,,,,,,,,,0,,,56,60
42000,note_on,600,0,4,,,,,,,,,0,,,56,100
42000,note_on,60,0,3,,,,,,,,,0,,,56,0
42000,note_on,0,0,1,,,,,,,,,0,,,68,100
42000,note_on,60,0,1,,,,,,,,,0,,,68,0
42030,note_on,0,0,4,,,,,,,,,0,,,59,100
42030,note_on,30,0,1,,,,,,,,,0,,,68,0
42030,note_on,30,0,4,,,,,,,,,0,,,56,0
42030,note_on,0,0,1,,,,,,,,,0,,,71,100
42060,note_on,0,0,1,,,,,,,,,0,,,75,100
42060,note_on,30,0,1,,,,,,,,,0,,,71,0
42060,note_on,30,0,4,,,,,,,,,0,,,59,0
42060,note_on,0,0,4,,,,,,,,,0,,,63,100
42090,note_on,0,0,1,,,,,,,,,0,,,73,100
42090,note_on,30,0,4,,,,,,,,,0,,,63,0
42090,note_on,0,0,4,,,,,,,,,0,,,61,100
42090,note_on,30,0,1,,,,,,,,,0,,,75,0
42120,note_on,30,0,4,,,,,,,,,0,,,61,0
42120,note_on,0,0,4,,,,,,,,,0,,,59,100
42120,note_on,0,0,1,,,,,,,,,0,,,71,100
42120,note_on,30,0,1,,,,,,,,,0,,,73,0
42150,note_on,30,0,4,,,,,,,,,0,,,59,0
42150,note_on,0,0,4,,,,,,,,,0,,,58,100
42150,note_on,0,0,1,,,,,,,,,0,,,70,100
42150,note_on,30,0,1,,,,,,,,,0,,,71,0
42180,note_on,0,0,1,,,,,,,,,0,,,68,100
42180,note_on,30,0,1,,,,,,,,,0,,,70,0
42180,note_on,0,0,4,,,,,,,,,0,,,56,100
42180,note_on,30,0,4,,,,,,,,,0,,,58,0
42210,note_on,30,0,4,,,,,,,,,0,,,56,0
42210,note_on,30,0,1,,,,,,,,,0,,,68,0
42210,note_on,0,0,1,,,,,,,,,0,,,66,100
42210,note_on,0,0,4,,,,,,,,,0,,,54,100
42240,note_on,0,0,4,,,,,,,,,0,,,52,100
42240,note_on,30,0,1,,,,,,,,,0,,,66,0
42240,note_on,0,0,1,,,,,,,,,0,,,64,100
42240,note_on,30,0,4,,,,,,,,,0,,,54,0
42270,note_on,30,0,4,,,,,,,,,0,,,52,0
42270,note_on,0,0,1,,,,,,,,,0,,,63,100
42270,note_on,30,0,1,,,,,,,,,0,,,64,0
42270,note_on,0,0,4,,,,,,,,,0,,,51,100
42300,note_on,0,0,1,,,,,,,,,0,,,61,100
42300,note_on,0,0,4,,,,,,,,,0,,,49,100
42300,note_on,30,0,1,,,,,,,,,0,,,63,0
42300,note_on,30,0,4,,,,,,,,,0,,,51,0
42330,note_on,0,0,4,,,,,,,,,0,,,47,100
42330,note_on,30,0,4,,,,,,,,,0,,,49,0
42330,note_on,30,0,1,,,,,,,,,0,,,61,0
42330,note_on,0,0,1,,,,,,,,,0,,,59,100
42360,note_on,30,0,4,,,,,,,,,0,,,47,0
42360,note_on,0,0,1,,,,,,,,,0,,,58,100
42360,note_on,0,0,4,,,,,,,,,0,,,46,100
42360,note_on,30,0,1,,,,,,,,,0,,,59,0
42390,note_on,30,0,1,,,,,,,,,0,,,58,0
42390,note_on,0,0,1,,,,,,,,,0,,,56,100
42390,note_on,0,0,4,,,,,,,,,0,,,44,100
42390,note_on,30,0,4,,,,,,,,,0,,,46,0
42420,note_on,30,0,1,,,,,,,,,0,,,56,0
42420,note_on,0,0,1,,,,,,,,,0,,,55,100
42420,note_on,30,0,4,,,,,,,,,0,,,44,0
42420,note_on,0,0,4,,,,,,,,,0,,,43,100
42450,note_on,30,0,1,,,,,,,,,0,,,55,0
42450,note_on,30,0,4,,,,,,,,,0,,,43,0
42450,note_on,0,0,4,,,,,,,,,0,,,44,100
42450,note_on,0,0,1,,,,,,,,,0,,,56,100
42480,note_on,30,0,4,,,,,,,,,0,,,44,0
42480,note_on,0,0,4,,,,,,,,,0,,,46,100
42480,note_on,0,0,1,,,,,,,,,0,,,58,100
42480,note_on,30,0,1,,,,,,,,,0,,,56,0
42510,note_on,30,0,4,,,,,,,,,0,,,46,0
42510,note_on,0,0,4,,,,,,,,,0,,,47,100
42510,note_on,0,0,1,,,,,,,,,0,,,59,100
42510,note_on,30,0,1,,,,,,,,,0,,,58,0
42540,note_on,30,0,1,,,,,,,,,0,,,59,0
42540,note_on,0,0,1,,,,,,,,,0,,,61,100
42540,note_on,0,0,4,,,,,,,,,0,,,49,100
42540,note_on,30,0,4,,,,,,,,,0,,,47,0
42570,note_on,30,0,1,,,,,,,,,0,,,61,0
42570,note_on,0,0,4,,,,,,,,,0,,,51,100
42570,note_on,30,0,4,,,,,,,,,0,,,49,0
42570,note_on,0,0,1,,,,,,,,,0,,,63,100
42600,note_on,0,0,4,,,,,,,,,0,,,53,100
42600,note_on,0,0,1,,,,,,,,,0,,,65,100
42600,note_on,30,0,1,,,,,,,,,0,,,63,0
42600,note_on,30,0,4,,,,,,,,,0,,,51,0
42630,note_on,0,0,4,,,,,,,,,0,,,55,100
42630,note_on,30,0,4,,,,,,,,,0,,,53,0
42630,note_on,30,0,1,,,,,,,,,0,,,65,0
42630,note_on,0,0,1,,,,,,,,,0,,,67,100
42660,note_on,0,0,4,,,,,,,,,0,,,56,100
42660,note_on,30,0,4,,,,,,,,,0,,,55,0
42660,note_on,30,0,1,,,,,,,,,0,,,67,0
42660,note_on,0,0,1,,,,,,,,,0,,,68,100
42690,note_on,30,0,1,,,,,,,,,0,,,68,0
42690,note_on,30,0,4,,,,,,,,,0,,,56,0
42690,note_on,0,0,4,,,,,,,,,0,,,58,100
42690,note_on,0,0,1,,,,,,,,,0,,,70,100
42720,note_on,30,0,1,,,,,,,,,0,,,70,0
42720,note_on,30,0,4,,,,,,,,,0,,,58,0
42720,note_on,0,0,4,,,,,,,,,0,,,59,101
42720,note_on,0,0,1,,,,,,,,,0,,,71,101
42750,note_on,0,0,4,,,,,,,,,0,,,61,102
42750,note_on,30,0,1,,,,,,,,,0,,,71,0
42750,note_on,0,0,1,,,,,,,,,0,,,73,102
42750,note_on,30,0,4,,,,,,,,,0,,,59,0
42780,note_on,30,0,1,,,,,,,,,0,,,73,0
42780,note_on,0,0,1,,,,,,,,,0,,,75,103
42780,note_on,30,0,4,,,,,,,,,0,,,61,0
42780,note_on,0,0,4,,,,,,,,,0,,,63,103
42810,note_on,30,0,1,,,,,,,,,0,,,75,0
42810,note_on,0,0,1,,,,,,,,,0,,,77,104
42810,note_on,30,0,4,,,,,,,,,0,,,63,0
42810,note_on,0,0,4,,,,,,,,,0,,,65,104
42840,note_on,30,0,4,,,,,,,,,0,,,65,0
42840,note_on,840,0,3,,,,,,,,,0,,,67,105
42840,note_on,0,0,1,,,,,,,,,0,,,79,105
42840,note_on,30,0,1,,,,,,,,,0,,,77,0
42870,note_on,30,0,3,,,,,,,,,0,,,67,0
42870,note_on,30,0,1,,,,,,,,,0,,,79,0
42870,note_on,0,0,3,,,,,,,,,0,,,68,106
42870,note_on,0,0,1,,,,,,,,,0,,,80,106
42900,note_on,30,0,3,,,,,,,,,0,,,68,0
42900,note_on,0,0,3,,,,,,,,,0,,,70,107
42900,note_on,30,0,1,,,,,,,,,0,,,80,0
42900,note_on,0,0,1,,,,,,,,,0,,,82,107
42930,note_on,30,0,1,,,,,,,,,0,,,82,0
42930,note_on,0,0,1,,,,,,,,,0,,,83,108
42930,note_on,30,0,3,,,,,,,,,0,,,70,0
42930,note_on,0,0,3,,,,,,,,,0,,,71,108
42960,note_on,0,0,3,,,,,,,,,0,,,73,109
42960,note_on,30,0,3,,,,,,,,,0,,,71,0
42960,note_on,30,0,1,,,,,,,,,0,,,83,0
42960,note_on,0,0,1,,,,,,,,,0,,,85,109
42990,note_on,0,0,3,,,,,,,,,0,,,75,110
42990,note_on,30,0,3,,,,,,,,,0,,,73,0
42990,note_on,0,0,1,,,,,,,,,0,,,87,110
42990,note_on,30,0,1,,,,,,,,,0,,,85,0
43020,note_on,0,0,3,,,,,,,,,0,,,76,110
43020,note_on,30,0,3,,,,,,,,,0,,,75,0
43020,note_on,0,0,1,,,,,,,,,0,,,88,110
43020,note_on,30,0,1,,,,,,,,,0,,,87,0
43050,note_on,30,0,1,,,,,,,,,0,,,88,0
43050,note_on,0,0,3,,,,,,,,,0,,,74,109
43050,note_on,30,0,3,,,,,,,,,0,,,76,0
43050,note_on,0,0,1,,,,,,,,,0,,,86,109
43080,note_on,30,0,3,,,,,,,,,0,,,74,0
43080,note_on,30,0,1,,,,,,,,,0,,,86,0
43080,note_on,0,0,3,,,,,,,,,0,,,73,107
43080,note_on,0,0,1,,,,,,,,,0,,,85,107
43110,note_on,0,0,1,,,,,,,,,0,,,83,105
43110,note_on,30,0,3,,,,,,,,,0,,,73,0
43110,note_on,0,0,3,,,,,,,,,0,,,71,105
43110,note_on,30,0,1,,,,,,,,,0,,,85,0
43140,note_on,0,0,3,,,,,,,,,0,,,69,103
43140,note_on,30,0,1,,,,,,,,,0,,,83,0
43140,note_on,0,0,1,,,,,,,,,0,,,81,103
43140,note_on,30,0,3,,,,,,,,,0,,,71,0
43170,note_on,30,0,3,,,,,,,,,0,,,69,0
43170,note_on,0,0,1,,,,,,,,,0,,,80,101
43170,note_on,30,0,1,,,,,,,,,0,,,81,0
43170,note_on,0,0,3,,,,,,,,,0,,,68,101
43200,note_on,360,0,4,,,,,,,,,0,,,66,100
43200,note_on,30,0,1,,,,,,,,,0,,,80,0
43200,note_on,30,0,3,,,,,,,,,0,,,68,0
43200,note_on,0,0,1,,,,,,,,,0,,,78,100
43230,note_on,30,0,1,,,,,,,,,0,,,78,0
43230,note_on,30,0,4,,,,,,,,,0,,,66,0
43230,note_on,0,0,4,,,,,,,,,0,,,64,100
43230,note_on,0,0,1,,,,,,,,,0,,,76,100
43260,note_on,30,0,1,,,,,,,,,0,,,76,0
43260,note_on,0,0,1,,,,,,,,,0,,,74,100
43260,note_on,0,0,4,,,,,,,,,0,,,62,100
43260,note_on,30,0,4,,,,,,,,,0,,,64,0
43290,note_on,0,0,1,,,,,,,,,0,,,73,100
43290,note_on,0,0,4,,,,,,,,,0,,,61,100
43290,note_on,30,0,4,,,,,,,,,0,,,62,0
43290,note_on,30,0,1,,,,,,,,,0,,,74,0
43320,note_on,30,0,4,,,,,,,,,0,,,61,0
43320,note_on,0,0,4,,,,,,,,,0,,,59,100
43320,note_on,30,0,1,,,,,,,,,0,,,73,0
43320,note_on,0,0,1,,,,,,,,,0,,,71,100
43350,note_on,30,0,4,,,,,,,,,0,,,59,0
43350,note_on,0,0,4,,,,,,,,,0,,,57,100
43350,note_on,0,0,1,,,,,,,,,0,,,69,100
43350,note_on,30,0,1,,,,,,,,,0,,,71,0
43380,note_on,30,0,1,,,,,,,,,0,,,69,0
43380,note_on,0,0,4,,,,,,,,,0,,,56,100
43380,note_on,30,0,4,,,,,,,,,0,,,57,0
43380,note_on,0,0,1,,,,,,,,,0,,,68,100
43410,note_on,0,0,4,,,,,,,,,0,,,54,100
43410,note_on,30,0,1,,,,,,,,,0,,,68,0
43410,note_on,0,0,1,,,,,,,,,0,,,66,100
43410,note_on,30,0,4,,,,,,,,,0,,,56,0
43440,note_on,30,0,1,,,,,,,,,0,,,66,0
43440,note_on,0,0,4,,,,,,,,,0,,,52,100
43440,note_on,0,0,1,,,,,,,,,0,,,64,100
43440,note_on,30,0,4,,,,,,,,,0,,,54,0
43470,note_on,0,0,1,,,,,,,,,0,,,62,100
43470,note_on,30,0,4,,,,,,,,,0,,,52,0
43470,note_on,30,0,1,,,,,,,,,0,,,64,0
43470,note_on,0,0,4,,,,,,,,,0,,,50,100
43500,note_on,30,0,1,,,,,,,,,0,,,62,0
43500,note_on,30,0,4,,,,,,,,,0,,,50,0
43500,note_on,0,0,4,,,,,,,,,0,,,49,100
43500,note_on,0,0,1,,,,,,,,,0,,,61,100
43530,note_on,0,0,4,,,,,,,,,0,,,47,100
43530,note_on,30,0,1,,,,,,,,,0,,,61,0
43530,note_on,30,0,4,,,,,,,,,0,,,49,0
43530,note_on,0,0,1,,,,,,,,,0,,,59,100
43560,note_on,3780,0,2,,,,,,,,,0,,,57,100
43560,note_on,0,0,4,,,,,,,,,0,,,45,100
43560,note_on,30,0,1,,,,,,,,,0,,,59,0
43560,note_on,30,0,4,,,,,,,,,0,,,47,0
43590,note_on,30,0,4,,,,,,,,,0,,,45,0
43590,note_on,0,0,2,,,,,,,,,0,,,56,100
43590,note_on,30,0,2,,,,,,,,,0,,,57,0
43590,note_on,0,0,4,,,,,,,,,0,,,44,100
43620,note_on,30,0,4,,,,,,,,,0,,,44,0
43620,note_on,0,0,4,,,,,,,,,0,,,42,100
43620,note_on,0,0,2,,,,,,,,,0,,,54,100
43620,note_on,30,0,2,,,,,,,,,0,,,56,0
43650,note_on,30,0,4,,,,,,,,,0,,,42,0
43650,note_on,0,0,4,,,,,,,,,0,,,40,100
43650,note_on,0,0,2,,,,,,,,,0,,,52,100
43650,note_on,30,0,2,,,,,,,,,0,,,54,0
43680,note_on,30,0,2,,,,,,,,,0,,,52,0
43680,note_on,0,0,4,,,,,,,,,0,,,38,100
43680,note_on,30,0,4,,,,,,,,,0,,,40,0
43680,note_on,0,0,2,,,,,,,,,0,,,50,100
43700,note_on,20,0,4,,,,,,,,,0,,,38,0
43700,note_on,20,0,2,,,,,,,,,0,,,50,0
43700,note_on,0,0,2,,,,,,,,,0,,,49,100
43700,note_on,0,0,4,,,,,,,,,0,,,37,100
43720,note_on,0,0,2,,,,,,,,,0,,,47,100
43720,note_on,0,0,4,,,,,,,,,0,,,35,100
43720,note_on,20,0,2,,,,,,,,,0,,,49,0
43720,note_on,20,0,4,,,,,,,,,0,,,37,0
43740,note_on,20,0,4,,,,,,,,,0,,,35,0
43740,note_on,20,0,2,,,,,,,,,0,,,47,0
43740,note_on,0,0,2,,,,,,,,,0,,,45,100
43740,control_change,6900,0,5,,,,,,,,,0,64,127,,
43740,note_on,0,0,4,,,,,,,,,0,,,33,110
43740,marker,6840,1,0,,,,,,,,,,,,,
43770,note_on,30,0,2,,,,,,,,,0,,,45,0
43770,note_on,0,0,2,,,,,,,,,0,,,49,100
43800,note_on,30,0,2,,,,,,,,,0,,,49,0
43800,note_on,0,0,2,,,,,,,,,0,,,45,100
43830,note_on,30,0,2,,,,,,,,,0,,,45,0
43830,note_on,0,0,2,,,,,,,,,0,,,49,100
43860,control_change,120,0,5,,,,,,,,,0,64,0,,
43860,note_on,0,0,2,,,,,,,,,0,,,52,100
43860,note_on,30,0,2,,,,,,,,,0,,,49,0
43890,note_on,30,0,2,,,,,,,,,0,,,52,0
43920,note_on,30,0,2,,,,,,,,,0,,,49,100
43920,note_on,0,0,4,,,,,,,,,0,,,33,110
43920,note_on,0,0,4,,,,,,,,,0,,,45,110
43920,control_change,60,0,5,,,,,,,,,0,64,127,,
43920,note_on,180,0,4,,,,,,,,,0,,,33,0
43950,note_on,30,0,2,,,,,,,,,0,,,49,0
43950,note_on,0,0,2,,,,,,,,,0,,,52,100
43980,note_on,30,0,2,,,,,,,,,0,,,52,0
43980,note_on,0,0,2,,,,,,,,,0,,,49,100
44010,note_on,30,0,2,,,,,,,,,0,,,49,0
44010,note_on,0,0,2,,,,,,,,,0,,,52,100
44040,note_on,30,0,2,,,,,,,,,0,,,52,0
44040,note_on,0,0,2,,,,,,,,,0,,,57,100
44040,control_change,120,0,5,,,,,,,,,0,64,0,,
44070,note_on,30,0,2,,,,,,,,,0,,,57,0
44100,note_on,30,0,2,,,,,,,,,0,,,52,100
44100,control_change,60,0,5,,,,,,,,,0,64,127,,
44100,note_on,0,0,4,,,,,,,,,0,,,45,110
44100,note_on,0,0,4,,,,,,,,,0,,,33,110
44100,note_on,0,0,4,,,,,,,,,0,,,45,0
44100,note_on,180,0,4,,,,,,,,,0,,,33,0
44130,note_on,0,0,2,,,,,,,,,0,,,57,100
44130,note_on,30,0,2,,,,,,,,,0,,,52,0
44160,note_on,0,0,2,,,,,,,,,0,,,52,100
44160,note_on,30,0,2,,,,,,,,,0,,,57,0
44190,note_on,0,0,2,,,,,,,,,0,,,57,100
44190,note_on,30,0,2,,,,,,,,,0,,,52,0
44220,note_on,30,0,2,,,,,,,,,0,,,57,0
44220,note_on,0,0,2,,,,,,,,,0,,,61,100
44220,control_change,120,0,5,,,,,,,,,0,64,0,,
44250,note_on,30,0,2,,,,,,,,,0,,,61,0
44280,control_change,60,0,5,,,,,,,,,0,64,127,,
44280,note_on,30,0,2,,,,,,,,,0,,,57,100
44280,note_on,180,0,4,,,,,,,,,0,,,45,0
44280,note_on,0,0,4,,,,,,,,,0,,,33,0
44280,note_on,0,0,4,,,,,,,,,0,,,33,110
44280,note_on,0,0,4,,,,,,,,,0,,,45,110
44310,note_on,0,0,2,,,,,,,,,0,,,61,100
44310,note_on,30,0,2,,,,,,,,,0,,,57,0
44340,note_on,0,0,2,,,,,,,,,0,,,57,100
44340,note_on,30,0,2,,,,,,,,,0,,,61,0
44370,note_on,30,0,2,,,,,,,,,0,,,57,0
44370,note_on,0,0,2,,,,,,,,,0,,,61,100
44400,note_on,0,0,2,,,,,,,,,0,,,64,100
44400,note_on,30,0,2,,,,,,,,,0,,,61,0
44400,control_change,120,0,5,,,,,,,,,0,64,0,,
44430,note_on,30,0,2,,,,,,,,,0,,,64,0
44460,note_on,900,0,1,,,,,,,,,0,,,61,100
44460,note_on,0,0,4,,,,,,,,,0,,,45,110
44460,note_on,0,0,4,,,,,,,,,0,,,33,110
44460,note_on,0,0,4,,,,,,,,,0,,,33,0
44460,note_on,180,0,4,,,,,,,,,0,,,45,0
44460,control_change,60,0,5,,,,,,,,,0,64,127,,
44490,note_on,30,0,1,,,,,,,,,0,,,61,0
44490,note_on,0,0,1,,,,,,,,,0,,,64,100
44520,note_on,30,0,1,,,,,,,,,0,,,64,0
44520,note_on,0,0,1,,,,,,,,,0,,,61,100
44550,note_on,30,0,1,,,,,,,,,0,,,61,0
44550,note_on,0,0,1,,,,,,,,,0,,,64,100
44580,note_on,0,0,1,,,,,,,,,0,,,69,100
44580,note_on,30,0,1,,,,,,,,,0,,,64,0
44580,control_change,120,0,5,,,,,,,,,0,64,0,,
44610,note_on,30,0,1,,,,,,,,,0,,,69,0
44640,note_on,30,0,1,,,,,,,,,0,,,64,100
44640,note_on,0,0,4,,,,,,,,,0,,,45,0
44640,note_on,0,0,4,,,,,,,,,0,,,52,110
44640,note_on,0,0,4,,,,,,,,,0,,,49,110
44640,note_on,0,0,4,,,,,,,,,0,,,45,110
44640,control_change,60,0,5,,,,,,,,,0,64,127,,
44640,note_on,180,0,4,,,,,,,,,0,,,33,0
44670,note_on,30,0,1,,,,,,,,,0,,,64,0
44670,note_on,0,0,1,,,,,,,,,0,,,69,98
44700,note_on,0,0,1,,,,,,,,,0,,,64,96
44700,note_on,30,0,1,,,,,,,,,0,,,69,0
44730,note_on,0,0,1,,,,,,,,,0,,,69,94
44730,note_on,30,0,1,,,,,,,,,0,,,64,0
44760,note_on,30,0,1,,,,,,,,,0,,,69,0
44760,control_change,120,0,5,,,,,,,,,0,64,0,,
44760,note_on,0,0,1,,,,,,,,,0,,,73,91
44790,note_on,30,0,1,,,,,,,,,0,,,73,0
44820,control_change,60,0,5,,,,,,,,,0,64,127,,
44820,note_on,0,0,4,,,,,,,,,0,,,45,97
44820,note_on,0,0,4,,,,,,,,,0,,,49,97
44820,note_on,0,0,4,,,,,,,,,0,,,52,97
44820,note_on,0,0,4,,,,,,,,,0,,,57,97
44820,note_on,0,0,4,,,,,,,,,0,,,52,0
44820,note_on,0,0,4,,,,,,,,,0,,,49,0
44820,note_on,180,0,4,,,,,,,,,0,,,45,0
44820,note_on,30,0,1,,,,,,,,,0,,,69,87
44850,note_on,30,0,1,,,,,,,,,0,,,69,0
44850,note_on,0,0,1,,,,,,,,,0,,,73,84
44880,note_on,0,0,1,,,,,,,,,0,,,69,82
44880,note_on,30,0,1,,,,,,,,,0,,,73,0
44910,note_on,0,0,1,,,,,,,,,0,,,73,80
44910,note_on,30,0,1,,,,,,,,,0,,,69,0
44940,note_on,0,0,1,,,,,,,,,0,,,76,77
44940,note_on,30,0,1,,,,,,,,,0,,,73,0
44940,control_change,120,0,5,,,,,,,,,0,64,0,,
44970,note_on,30,0,1,,,,,,,,,0,,,76,0
45000,note_on,30,0,1,,,,,,,,,0,,,71,73
45000,note_on,0,0,4,,,,,,,,,0,,,56,83
45000,note_on,0,0,4,,,,,,,,,0,,,59,83
45000,note_on,0,0,4,,,,,,,,,0,,,57,0
45000,note_on,0,0,4,,,,,,,,,0,,,49,0
45000,note_on,0,0,4,,,,,,,,,0,,,52,0
45000,note_on,0,0,4,,,,,,,,,0,,,52,83
45000,note_on,180,0,4,,,,,,,,,0,,,45,0
45000,control_change,60,0,5,,,,,,,,,0,64,127,,
45030,note_on,30,0,1,,,,,,,,,0,,,71,0
45030,note_on,0,0,1,,,,,,,,,0,,,74,71
45060,note_on,30,0,1,,,,,,,,,0,,,74,0
45060,note_on,0,0,1,,,,,,,,,0,,,71,68
45090,note_on,30,0,1,,,,,,,,,0,,,71,0
45090,note_on,0,0,1,,,,,,,,,0,,,74,66
45120,note_on,30,0,1,,,,,,,,,0,,,74,0
45120,note_on,0,0,1,,,,,,,,,0,,,83,64
45120,control_change,120,0,5,,,,,,,,,0,64,0,,
45150,note_on,30,0,1,,,,,,,,,0,,,83,0
45180,note_on,30,0,1,,,,,,,,,0,,,72,60
45180,control_change,60,0,5,,,,,,,,,0,64,127,,
45180,note_on,180,0,4,,,,,,,,,0,,,52,0
45180,note_on,0,0,4,,,,,,,,,0,,,56,0
45180,note_on,0,0,4,,,,,,,,,0,,,59,0
45180,note_on,0,0,4,,,,,,,,,0,,,51,70
45210,note_on,30,0,1,,,,,,,,,0,,,72,0
45210,note_on,0,0,1,,,,,,,,,0,,,75,60
45240,note_on,30,0,1,,,,,,,,,0,,,75,0
45240,note_on,0,0,1,,,,,,,,,0,,,72,60
45270,note_on,0,0,1,,,,,,,,,0,,,75,60
45270,note_on,30,0,1,,,,,,,,,0,,,72,0
45300,control_change,120,0,5,,,,,,,,,0,64,0,,
45300,note_on,0,0,1,,,,,,,,,0,,,84,60
45300,note_on,30,0,1,,,,,,,,,0,,,75,0
45300,note_on,120,0,4,,,,,,,,,0,,,60,60
45300,note_on,0,0,4,,,,,,,,,0,,,56,60
45330,note_on,30,0,1,,,,,,,,,0,,,84,0
45330,note_on,30,0,4,,,,,,,,,0,,,56,0
45330,note_on,0,0,4,,,,,,,,,0,,,60,0
45360,note_on,30,0,1,,,,,,,,,0,,,75,60
45360,control_change,60,0,5,,,,,,,,,0,64,127,,
45360,note_on,0,0,4,,,,,,,,,0,,,51,70
45360,note_on,30,0,4,,,,,,,,,0,,,51,0
45390,note_on,0,0,1,,,,,,,,,0,,,84,60
45390,note_on,30,0,1,,,,,,,,,0,,,75,0
45420,note_on,0,0,1,,,,,,,,,0,,,75,60
45420,note_on,30,0,1,,,,,,,,,0,,,84,0
45450,note_on,0,0,1,,,,,,,,,0,,,84,60
45450,note_on,30,0,1,,,,,,,,,0,,,75,0
45480,note_on,120,0,4,,,,,,,,,0,,,63,60
45480,note_on,0,0,4,,,,,,,,,0,,,60,60
45480,note_on,0,0,1,,,,,,,,,0,,,87,60
45480,note_on,30,0,1,,,,,,,,,0,,,84,0
45480,control_change,120,0,5,,,,,,,,,0,64,0,,
45510,note_on,0,0,4,,,,,,,,,0,,,63,0
45510,note_on,30,0,4,,,,,,,,,0,,,60,0
45510,note_on,30,0,1,,,,,,,,,0,,,87,0
45540,note_on,30,0,1,,,,,,,,,0,,,73,60
45540,note_on,30,0,4,,,,,,,,,0,,,51,0
45540,note_on,0,0,4,,,,,,,,,0,,,51,70
45540,control_change,60,0,5,,,,,,,,,0,64,127,,
45570,note_on,0,0,1,,,,,,,,,0,,,82,60
45570,note_on,30,0,1,,,,,,,,,0,,,73,0
45600,note_on,0,0,1,,,,,,,,,0,,,73,60
45600,note_on,30,0,1,,,,,,,,,0,,,82,0
45630,note_on,0,0,1,,,,,,,,,0,,,82,60
45630,note_on,30,0,1,,,,,,,,,0,,,73,0
45660,note_on,0,0,1,,,,,,,,,0,,,85,60
45660,note_on,0,0,4,,,,,,,,,0,,,58,60
45660,note_on,30,0,1,,,,,,,,,0,,,82,0
45660,note_on,120,0,4,,,,,,,,,0,,,61,60
45660,control_change,120,0,5,,,,,,,,,0,64,0,,
45690,note_on,30,0,1,,,,,,,,,0,,,85,0
45690,note_on,0,0,4,,,,,,,,,0,,,61,0
45690,note_on,30,0,4,,,,,,,,,0,,,58,0
45720,note_on,0,0,4,,,,,,,,,0,,,51,70
45720,control_change,60,0,5,,,,,,,,,0,64,127,,
45720,note_on,30,0,4,,,,,,,,,0,,,51,0
45720,note_on,30,0,1,,,,,,,,,0,,,70,60
45750,note_on,30,0,1,,,,,,,,,0,,,70,0
45750,note_on,0,0,1,,,,,,,,,0,,,79,60
45780,note_on,30,0,1,,,,,,,,,0,,,79,0
45780,note_on,0,0,1,,,,,,,,,0,,,70,60
45810,note_on,0,0,1,,,,,,,,,0,,,79,60
45810,note_on,30,0,1,,,,,,,,,0,,,70,0
45840,note_on,30,0,1,,,,,,,,,0,,,79,0
45840,note_on,0,0,1,,,,,,,,,0,,,82,60
45840,control_change,120,0,5,,,,,,,,,0,64,0,,
45840,note_on,120,0,4,,,,,,,,,0,,,58,60
45840,note_on,0,0,4,,,,,,,,,0,,,55,60
45870,note_on,30,0,1,,,,,,,,,0,,,82,0
45870,note_on,30,0,4,,,,,,,,,0,,,55,0
45870,note_on,0,0,4,,,,,,,,,0,,,58,0
45900,note_on,30,0,1,,,,,,,,,0,,,72,60
45900,note_on,0,0,4,,,,,,,,,0,,,51,70
45900,control_change,60,0,5,,,,,,,,,0,64,127,,
45900,note_on,30,0,4,,,,,,,,,0,,,51,0
45930,note_on,30,0,1,,,,,,,,,0,,,72,0
45930,note_on,0,0,1,,,,,,,,,0,,,75,60
45960,note_on,30,0,1,,,,,,,,,0,,,75,0
45960,note_on,0,0,1,,,,,,,,,0,,,72,60
45990,note_on,30,0,1,,,,,,,,,0,,,72,0
45990,note_on,0,0,1,,,,,,,,,0,,,75,60
46020,note_on,0,0,4,,,,,,,,,0,,,56,60
46020,note_on,120,0,4,,,,,,,,,0,,,60,60
46020,note_on,30,0,1,,,,,,,,,0,,,75,0
46020,note_on,0,0,1,,,,,,,,,0,,,84,60
46020,control_change,120,0,5,,,,,,,,,0,64,0,,
46050,note_on,30,0,1,,,,,,,,,0,,,84,0
46050,note_on,0,0,4,,,,,,,,,0,,,60,0
46050,note_on,30,0,4,,,,,,,,,0,,,56,0
46080,note_on,0,0,4,,,,,,,,,0,,,51,70
46080,note_on,30,0,4,,,,,,,,,0,,,51,0
46080,note_on,30,0,1,,,,,,,,,0,,,80,60
46080,control_change,60,0,5,,,,,,,,,0,64,127,,
46110,note_on,30,0,1,,,,,,,,,0,,,80,0
46110,note_on,0,0,1,,,,,,,,,0,,,87,61
46140,note_on,30,0,1,,,,,,,,,0,,,87,0
46140,note_on,0,0,1,,,,,,,,,0,,,80,63
46170,note_on,30,0,1,,,,,,,,,0,,,80,0
46170,note_on,0,0,1,,,,,,,,,0,,,87,65
46200,note_on,30,0,1,,,,,,,,,0,,,87,0
46200,note_on,0,0,1,,,,,,,,,0,,,92,67
46200,note_on,120,0,4,,,,,,,,,0,,,63,67
46200,control_change,120,0,5,,,,,,,,,0,64,0,,
46200,note_on,0,0,4,,,,,,,,,0,,,60,67
46230,note_on,0,0,4,,,,,,,,,0,,,63,0
46230,note_on,30,0,4,,,,,,,,,0,,,60,0
46230,note_on,30,0,1,,,,,,,,,0,,,92,0
46260,control_change,60,0,5,,,,,,,,,0,64,127,,
46260,note_on,0,0,4,,,,,,,,,0,,,51,80
46260,note_on,30,0,4,,,,,,,,,0,,,51,0
46260,note_on,30,0,1,,,,,,,,,0,,,79,70
46290,note_on,30,0,1,,,,,,,,,0,,,79,0
46290,note_on,0,0,1,,,,,,,,,0,,,85,72
46320,note_on,0,0,1,,,,,,,,,0,,,79,74
46320,note_on,30,0,1,,,,,,,,,0,,,85,0
46350,note_on,0,0,1,,,,,,,,,0,,,85,75
46350,note_on,30,0,1,,,,,,,,,0,,,79,0
46380,note_on,30,0,1,,,,,,,,,0,,,85,0
46380,note_on,0,0,1,,,,,,,,,0,,,91,77
46380,note_on,0,0,4,,,,,,,,,0,,,58,77
46380,note_on,120,0,4,,,,,,,,,0,,,61,77
46380,control_change,120,0,5,,,,,,,,,0,64,0,,
46410,note_on,0,0,4,,,,,,,,,0,,,61,0
46410,note_on,30,0,1,,,,,,,,,0,,,91,0
46410,note_on,30,0,4,,,,,,,,,0,,,58,0
46440,note_on,0,0,4,,,,,,,,,0,,,51,91
46440,note_on,30,0,1,,,,,,,,,0,,,73,81
46440,note_on,30,0,4,,,,,,,,,0,,,51,0
46440,control_change,60,0,5,,,,,,,,,0,64,127,,
46470,note_on,0,0,1,,,,,,,,,0,,,79,82
46470,note_on,30,0,1,,,,,,,,,0,,,73,0
46500,note_on,30,0,1,,,,,,,,,0,,,79,0
46500,note_on,0,0,1,,,,,,,,,0,,,73,84
46530,note_on,30,0,1,,,,,,,,,0,,,73,0
46530,note_on,0,0,1,,,,,,,,,0,,,79,86
46560,note_on,0,0,4,,,,,,,,,0,,,55,88
46560,note_on,120,0,4,,,,,,,,,0,,,58,88
46560,note_on,30,0,1,,,,,,,,,0,,,79,0
46560,note_on,0,0,1,,,,,,,,,0,,,85,88
46560,control_change,120,0,5,,,,,,,,,0,64,0,,
46590,note_on,0,0,4,,,,,,,,,0,,,58,0
46590,note_on,30,0,4,,,,,,,,,0,,,55,0
46590,note_on,30,0,1,,,,,,,,,0,,,85,0
46620,control_change,60,0,5,,,,,,,,,0,64,127,,
46620,note_on,0,0,4,,,,,,,,,0,,,51,101
46620,note_on,30,0,4,,,,,,,,,0,,,51,0
46620,note_on,30,0,1,,,,,,,,,0,,,72,91
46650,note_on,0,0,1,,,,,,,,,0,,,80,93
46650,note_on,30,0,1,,,,,,,,,0,,,72,0
46680,note_on,0,0,1,,,,,,,,,0,,,72,95
46680,note_on,30,0,1,,,,,,,,,0,,,80,0
46710,note_on,30,0,1,,,,,,,,,0,,,72,0
46710,note_on,0,0,1,,,,,,,,,0,,,80,97
46740,control_change,120,0,5,,,,,,,,,0,64,0,,
46740,note_on,30,0,1,,,,,,,,,0,,,80,0
46740,note_on,0,0,1,,,,,,,,,0,,,84,98
46740,note_on,0,0,4,,,,,,,,,0,,,56,98
46740,note_on,120,0,4,,,,,,,,,0,,,60,98
46770,note_on,0,0,4,,,,,,,,,0,,,60,0
46770,note_on,30,0,4,,,,,,,,,0,,,56,0
46770,note_on,30,0,1,,,,,,,,,0,,,84,0
46800,note_on,30,0,1,,,,,,,,,0,,,87,100
46800,note_on,0,0,4,,,,,,,,,0,,,48,110
46800,control_change,60,0,5,,,,,,,,,0,64,127,,
46800,note_on,30,0,4,,,,,,,,,0,,,51,0
46830,note_on,0,0,1,,,,,,,,,0,,,96,98
46830,note_on,30,0,1,,,,,,,,,0,,,87,0
46860,note_on,0,0,1,,,,,,,,,0,,,87,96
46860,note_on,30,0,1,,,,,,,,,0,,,96,0
46890,note_on,0,0,1,,,,,,,,,0,,,96,94
46890,note_on,30,0,1,,,,,,,,,0,,,87,0
46920,note_on,0,0,1,,,,,,,,,0,,,99,91
46920,control_change,120,0,5,,,,,,,,,0,64,0,,
46920,note_on,120,0,4,,,,,,,,,0,,,60,91
46920,note_on,0,0,4,,,,,,,,,0,,,54,91
46920,note_on,0,0,4,,,,,,,,,0,,,51,91
46920,note_on,0,0,4,,,,,,,,,0,,,57,91
46920,note_on,30,0,1,,,,,,,,,0,,,96,0
46950,note_on,30,0,1,,,,,,,,,0,,,99,0
46950,note_on,0,0,4,,,,,,,,,0,,,60,0
46950,note_on,0,0,4,,,,,,,,,0,,,54,0
46950,note_on,0,0,4,,,,,,,,,0,,,57,0
46950,note_on,30,0,4,,,,,,,,,0,,,51,0
46980,note_on,30,0,1,,,,,,,,,0,,,85,87
46980,control_change,60,0,5,,,,,,,,,0,64,127,,
46980,note_on,0,0,4,,,,,,,,,0,,,49,97
46980,note_on,30,0,4,,,,,,,,,0,,,48,0
47010,note_on,30,0,1,,,,,,,,,0,,,85,0
47010,note_on,0,0,1,,,,,,,,,0,,,94,84
47040,note_on,0,0,1,,,,,,,,,0,,,85,82
47040,note_on,30,0,1,,,,,,,,,0,,,94,0
47070,note_on,30,0,1,,,,,,,,,0,,,85,0
47070,note_on,0,0,1,,,,,,,,,0,,,94,80
47100,note_on,120,0,4,,,,,,,,,0,,,61,77
47100,note_on,30,0,1,,,,,,,,,0,,,94,0
47100,note_on,0,0,1,,,,,,,,,0,,,97,77
47100,note_on,0,0,4,,,,,,,,,0,,,53,77
47100,control_change,120,0,5,,,,,,,,,0,64,0,,
47100,note_on,0,0,4,,,,,,,,,0,,,58,77
47130,note_on,30,0,1,,,,,,,,,0,,,97,0
47130,note_on,0,0,4,,,,,,,,,0,,,61,0
47130,note_on,0,0,4,,,,,,,,,0,,,58,0
47130,note_on,30,0,4,,,,,,,,,0,,,53,0
47160,note_on,0,0,4,,,,,,,,,0,,,51,83
47160,control_change,60,0,5,,,,,,,,,0,64,127,,
47160,note_on,30,0,1,,,,,,,,,0,,,82,73
47160,note_on,30,0,4,,,,,,,,,0,,,49,0
47190,note_on,30,0,1,,,,,,,,,0,,,82,0
47190,note_on,0,0,1,,,,,,,,,0,,,91,71
47220,note_on,0,0,1,,,,,,,,,0,,,82,68
47220,note_on,30,0,1,,,,,,,,,0,,,91,0
47250,note_on,0,0,1,,,,,,,,,0,,,91,66
47250,note_on,30,0,1,,,,,,,,,0,,,82,0
47280,control_change,120,0,5,,,,,,,,,0,64,0,,
47280,note_on,120,0,4,,,,,,,,,0,,,58,64
47280,note_on,30,0,1,,,,,,,,,0,,,91,0
47280,note_on,0,0,1,,,,,,,,,0,,,94,64
47280,note_on,0,0,4,,,,,,,,,0,,,55,64
47310,note_on,30,0,1,,,,,,,,,0,,,94,0
47310,note_on,0,0,4,,,,,,,,,0,,,58,0
47310,note_on,30,0,4,,,,,,,,,0,,,55,0
47340,note_on,30,0,1,,,,,,,,,0,,,72,60
47340,note_on,0,0,4,,,,,,,,,0,,,40,70
47340,note_on,30,0,4,,,,,,,,,0,,,51,0
47340,control_change,60,0,5,,,,,,,,,0,64,127,,
47370,note_on,30,0,1,,,,,,,,,0,,,72,0
47370,note_on,0,0,1,,,,,,,,,0,,,79,60
47400,note_on,30,0,1,,,,,,,,,0,,,79,0
47400,note_on,0,0,1,,,,,,,,,0,,,72,60
47430,note_on,0,0,1,,,,,,,,,0,,,79,60
47430,note_on,30,0,1,,,,,,,,,0,,,72,0
47460,note_on,120,0,4,,,,,,,,,0,,,40,0
47460,note_on,30,0,1,,,,,,,,,0,,,79,0
47460,note_on,0,0,1,,,,,,,,,0,,,84,60
47460,note_on,0,0,4,,,,,,,,,0,,,52,60
47460,control_change,120,0,5,,,,,,,,,0,64,0,,
47460,note_on,0,0,4,,,,,,,,,0,,,60,60
47460,note_on,0,0,4,,,,,,,,,0,,,55,60
47490,note_on,30,0,1,,,,,,,,,0,,,84,0
47490,note_on,0,0,4,,,,,,,,,0,,,60,0
47490,note_on,0,0,4,,,,,,,,,0,,,55,0
47490,note_on,30,0,4,,,,,,,,,0,,,52,0
47520,note_on,30,0,4,,,,,,,,,0,,,40,70
47520,control_change,60,0,5,,,,,,,,,0,64,127,,
47520,note_on,30,0,1,,,,,,,,,0,,,72,60
47550,note_on,0,0,1,,,,,,,,,0,,,79,60
47550,note_on,30,0,1,,,,,,,,,0,,,72,0
47580,note_on,30,0,1,,,,,,,,,0,,,79,0
47580,note_on,0,0,1,,,,,,,,,0,,,72,60
47610,note_on,0,0,1,,,,,,,,,0,,,79,60
47610,note_on,30,0,1,,,,,,,,,0,,,72,0
47640,note_on,30,0,1,,,,,,,,,0,,,79,0
47640,note_on,0,0,1,,,,,,,,,0,,,84,60
47640,note_on,120,0,4,,,,,,,,,0,,,40,0
47640,note_on,0,0,4,,,,,,,,,0,,,60,60
47640,note_on,0,0,4,,,,,,,,,0,,,55,60
47640,note_on,0,0,4,,,,,,,,,0,,,52,60
47640,control_change,120,0,5,,,,,,,,,0,64,0,,
47670,note_on,30,0,4,,,,,,,,,0,,,52,0
47670,note_on,0,0,4,,,,,,,,,0,,,60,0
47670,note_on,30,0,1,,,,,,,,,0,,,84,0
47670,note_on,0,0,4,,,,,,,,,0,,,55,0
47700,note_on,30,0,4,,,,,,,,,0,,,40,70
47700,note_on,30,0,1,,,,,,,,,0,,,79,60
47700,control_change,60,0,5,,,,,,,,,0,64,127,,
47730,note_on,30,0,1,,,,,,,,,0,,,79,0
47730,note_on,0,0,1,,,,,,,,,0,,,84,67
47760,note_on,30,0,1,,,,,,,,,0,,,84,0
47760,note_on,0,0,1,,,,,,,,,0,,,79,74
47790,note_on,30,0,1,,,,,,,,,0,,,79,0
47790,note_on,0,0,1,,,,,,,,,0,,,84,82
47820,control_change,120,0,5,,,,,,,,,0,64,0,,
47820,note_on,120,0,4,,,,,,,,,0,,,40,0
47820,note_on,0,0,4,,,,,,,,,0,,,60,89
47820,note_on,0,0,1,,,,,,,,,0,,,91,89
47820,note_on,30,0,1,,,,,,,,,0,,,84,0
47820,note_on,0,0,4,,,,,,,,,0,,,55,89
47820,note_on,0,0,4,,,,,,,,,0,,,52,89
47850,note_on,0,0,4,,,,,,,,,0,,,60,0
47850,note_on,30,0,4,,,,,,,,,0,,,52,0
47850,note_on,0,0,4,,,,,,,,,0,,,55,0
47850,note_on,30,0,1,,,,,,,,,0,,,91,0
47880,note_on,30,0,1,,,,,,,,,0,,,84,100
47880,note_on,30,0,4,,,,,,,,,0,,,40,110
47880,control_change,60,0,5,,,,,,,,,0,64,127,,
47910,note_on,0,0,1,,,,,,,,,0,,,91,93
47910,note_on,30,0,1,,,,,,,,,0,,,84,0
47940,note_on,0,0,1,,,,,,,,,0,,,84,86
47940,note_on,30,0,1,,,,,,,,,0,,,91,0
47970,note_on,0,0,1,,,,,,,,,0,,,91,78
47970,note_on,30,0,1,,,,,,,,,0,,,84,0
48000,note_on,30,0,1,,,,,,,,,0,,,91,0
48000,control_change,120,0,5,,,,,,,,,0,64,0,,
48000,note_on,0,0,4,,,,,,,,,0,,,52,71
48000,note_on,0,0,4,,,,,,,,,0,,,55,71
48000,note_on,0,0,4,,,,,,,,,0,,,60,71
48000,note_on,120,0,4,,,,,,,,,0,,,40,0
48000,note_on,0,0,1,,,,,,,,,0,,,96,71
48030,note_on,0,0,4,,,,,,,,,0,,,55,0
48030,note_on,0,0,4,,,,,,,,,0,,,60,0
48030,note_on,30,0,1,,,,,,,,,0,,,96,0
48030,note_on,30,0,4,,,,,,,,,0,,,52,0
48060,note_on,30,0,4,,,,,,,,,0,,,39,70
48060,note_on,30,0,1,,,,,,,,,0,,,84,60
48090,note_on,0,0,1,,,,,,,,,0,,,87,60
48090,note_on,30,0,1,,,,,,,,,0,,,84,0
48120,note_on,30,0,1,,,,,,,,,0,,,87,0
48120,note_on,0,0,1,,,,,,,,,0,,,84,60
48150,note_on,30,0,1,,,,,,,,,0,,,84,0
48150,note_on,0,0,1,,,,,,,,,0,,,87,60
48180,note_on,30,0,1,,,,,,,,,0,,,87,0
48180,note_on,0,0,1,,,,,,,,,0,,,92,60
48180,note_on,120,0,4,,,,,,,,,0,,,39,0
48180,note_on,0,0,4,,,,,,,,,0,,,60,60
48180,note_on,0,0,4,,,,,,,,,0,,,56,60
48180,note_on,0,0,4,,,,,,,,,0,,,51,60
48210,note_on,30,0,1,,,,,,,,,0,,,92,0
48210,note_on,0,0,1,,,,,,,,,0,,,91,60
48240,note_on,30,0,1,,,,,,,,,0,,,91,0
48240,note_on,0,0,1,,,,,,,,,0,,,89,60
48270,note_on,30,0,1,,,,,,,,,0,,,89,0
48270,note_on,0,0,1,,,,,,,,,0,,,87,60
48300,note_on,0,0,1,,,,,,,,,0,,,85,60
48300,note_on,30,0,1,,,,,,,,,0,,,87,0
48330,note_on,0,0,1,,,,,,,,,0,,,84,60
48330,note_on,30,0,1,,,,,,,,,0,,,85,0
48360,note_on,30,0,1,,,,,,,,,0,,,84,0
48360,note_on,0,0,1,,,,,,,,,0,,,82,60
48390,note_on,30,0,1,,,,,,,,,0,,,82,0
48390,note_on,0,0,1,,,,,,,,,0,,,80,60
48420,note_on,30,0,1,,,,,,,,,0,,,80,0
48420,note_on,0,0,1,,,,,,,,,0,,,79,60
48420,note_on,240,0,4,,,,,,,,,0,,,56,0
48420,note_on,0,0,4,,,,,,,,,0,,,60,0
48420,note_on,0,0,4,,,,,,,,,0,,,61,60
48420,note_on,0,0,4,,,,,,,,,0,,,58,60
48450,note_on,30,0,1,,,,,,,,,0,,,79,0
48450,note_on,0,0,1,,,,,,,,,0,,,77,60
48480,note_on,30,0,1,,,,,,,,,0,,,77,0
48480,note_on,0,0,1,,,,,,,,,0,,,75,60
48510,note_on,30,0,1,,,,,,,,,0,,,75,0
48510,note_on,0,0,1,,,,,,,,,0,,,73,60
48540,note_on,30,0,1,,,,,,,,,0,,,73,0
48540,note_on,0,0,1,,,,,,,,,0,,,72,60
48570,note_on,30,0,1,,,,,,,,,0,,,72,0
48570,note_on,0,0,1,,,,,,,,,0,,,70,60
48600,note_on,0,0,1,,,,,,,,,0,,,68,60
48600,note_on,30,0,1,,,,,,,,,0,,,70,0
48630,note_on,0,0,1,,,,,,,,,0,,,67,60
48630,note_on,30,0,1,,,,,,,,,0,,,68,0
48660,note_on,30,0,1,,,,,,,,,0,,,67,0
48660,note_on,0,0,1,,,,,,,,,0,,,65,60
48690,note_on,30,0,1,,,,,,,,,0,,,65,0
48690,note_on,0,0,1,,,,,,,,,0,,,64,60
48720,note_on,0,0,1,,,,,,,,,0,,,63,60
48720,note_on,30,0,1,,,,,,,,,0,,,64,0
48750,note_on,30,0,1,,,,,,,,,0,,,63,0
48780,note_on,0,0,4,,,,,,,,,0,,,40,70
48780,note_on,0,0,4,,,,,,,,,0,,,51,0
48780,note_on,0,0,4,,,,,,,,,0,,,61,0
48780,note_on,30,0,1,,,,,,,,,0,,,72,60
48780,note_on,360,0,4,,,,,,,,,0,,,58,0
48810,note_on,30,0,4,,,,,,,,,0,,,40,0
48810,note_on,0,0,1,,,,,,,,,0,,,79,60
48810,note_on,30,0,1,,,,,,,,,0,,,72,0
48840,note_on,0,0,1,,,,,,,,,0,,,72,60
48840,note_on,30,0,1,,,,,,,,,0,,,79,0
48870,note_on,0,0,1,,,,,,,,,0,,,79,60
48870,note_on,30,0,1,,,,,,,,,0,,,72,0
48900,note_on,90,0,4,,,,,,,,,0,,,60,60
48900,note_on,0,0,4,,,,,,,,,0,,,55,60
48900,note_on,0,0,4,,,,,,,,,0,,,52,60
48900,note_on,30,0,1,,,,,,,,,0,,,79,0
48900,note_on,0,0,1,,,,,,,,,0,,,84,60
48930,note_on,30,0,1,,,,,,,,,0,,,84,0
48930,note_on,0,0,4,,,,,,,,,0,,,55,0
48930,note_on,0,0,4,,,,,,,,,0,,,60,0
48930,note_on,30,0,4,,,,,,,,,0,,,52,0
48960,note_on,30,0,1,,,,,,,,,0,,,72,60
48960,note_on,30,0,4,,,,,,,,,0,,,40,70
48990,note_on,30,0,1,,,,,,,,,0,,,72,0
48990,note_on,0,0,1,,,,,,,,,0,,,79,60
48990,note_on,30,0,4,,,,,,,,,0,,,40,0
49020,note_on,30,0,1,,,,,,,,,0,,,79,0
49020,note_on,0,0,1,,,,,,,,,0,,,72,60
49050,note_on,30,0,1,,,,,,,,,0,,,72,0
49050,note_on,0,0,1,,,,,,,,,0,,,79,60
49080,note_on,0,0,1,,,,,,,,,0,,,84,60
49080,note_on,0,0,4,,,,,,,,,0,,,55,60
49080,note_on,90,0,4,,,,,,,,,0,,,60,60
49080,note_on,0,0,4,,,,,,,,,0,,,52,60
49080,note_on,30,0,1,,,,,,,,,0,,,79,0
49110,note_on,30,0,1,,,,,,,,,0,,,84,0
49110,note_on,30,0,4,,,,,,,,,0,,,52,0
49110,note_on,0,0,4,,,,,,,,,0,,,55,0
49110,note_on,0,0,4,,,,,,,,,0,,,60,0
49140,note_on,30,0,1,,,,,,,,,0,,,79,60
49140,note_on,30,0,4,,,,,,,,,0,,,40,70
49170,note_on,30,0,1,,,,,,,,,0,,,79,0
49170,note_on,0,0,1,,,,,,,,,0,,,84,67
49170,note_on,30,0,4,,,,,,,,,0,,,40,0
49200,note_on,0,0,1,,,,,,,,,0,,,79,74
49200,note_on,30,0,1,,,,,,,,,0,,,84,0
49230,note_on,30,0,1,,,,,,,,,0,,,79,0
49230,note_on,0,0,1,,,,,,,,,0,,,84,82
49260,note_on,0,0,4,,,,,,,,,0,,,55,89
49260,note_on,0,0,1,,,,,,,,,0,,,91,89
49260,note_on,90,0,4,,,,,,,,,0,,,60,89
49260,note_on,30,0,1,,,,,,,,,0,,,84,0
49260,note_on,0,0,4,,,,,,,,,0,,,52,89
49290,note_on,30,0,4,,,,,,,,,0,,,52,0
49290,note_on,0,0,4,,,,,,,,,0,,,55,0
49290,note_on,0,0,4,,,,,,,,,0,,,60,0
49290,note_on,30,0,1,,,,,,,,,0,,,91,0
49320,note_on,30,0,4,,,,,,,,,0,,,40,110
49320,note_on,30,0,1,,,,,,,,,0,,,84,100
49350,note_on,30,0,1,,,,,,,,,0,,,84,0
49350,note_on,30,0,4,,,,,,,,,0,,,40,0
49350,note_on,0,0,1,,,,,,,,,0,,,91,93
49380,note_on,0,0,1,,,,,,,,,0,,,84,86
49380,note_on,30,0,1,,,,,,,,,0,,,91,0
49410,note_on,0,0,1,,,,,,,,,0,,,91,78
49410,note_on,30,0,1,,,,,,,,,0,,,84,0
49440,note_on,30,0,1,,,,,,,,,0,,,91,0
49440,note_on,0,0,1,,,,,,,,,0,,,96,71
49440,note_on,90,0,4,,,,,,,,,0,,,60,71
49440,note_on,0,0,4,,,,,,,,,0,,,55,71
49440,note_on,0,0,4,,,,,,,,,0,,,52,71
49470,note_on,0,0,4,,,,,,,,,0,,,60,0
49470,note_on,30,0,1,,,,,,,,,0,,,96,0
49470,note_on,30,0,4,,,,,,,,,0,,,52,0
49470,note_on,0,0,4,,,,,,,,,0,,,55,0
49500,note_on,30,0,1,,,,,,,,,0,,,87,60
49500,note_on,30,0,4,,,,,,,,,0,,,39,70
49530,note_on,30,0,1,,,,,,,,,0,,,87,0
49530,note_on,0,0,1,,,,,,,,,0,,,92,60
49530,note_on,30,0,4,,,,,,,,,0,,,39,0
49560,note_on,30,0,1,,,,,,,,,0,,,92,0
49560,note_on,0,0,1,,,,,,,,,0,,,87,60
49590,note_on,30,0,1,,,,,,,,,0,,,87,0
49590,note_on,0,0,1,,,,,,,,,0,,,92,60
49620,note_on,90,0,4,,,,,,,,,0,,,60,60
49620,note_on,0,0,1,,,,,,,,,0,,,96,60
49620,note_on,0,0,4,,,,,,,,,0,,,51,60
49620,note_on,30,0,1,,,,,,,,,0,,,92,0
49620,note_on,0,0,4,,,,,,,,,0,,,56,60
49650,note_on,30,0,1,,,,,,,,,0,,,96,0
49650,note_on,0,0,1,,,,,,,,,0,,,94,60
49680,note_on,30,0,1,,,,,,,,,0,,,94,0
49680,note_on,0,0,1,,,,,,,,,0,,,92,60
49710,note_on,30,0,1,,,,,,,,,0,,,92,0
49710,note_on,0,0,1,,,,,,,,,0,,,91,60
49740,note_on,0,0,1,,,,,,,,,0,,,89,60
49740,note_on,30,0,1,,,,,,,,,0,,,91,0
49770,note_on,0,0,1,,,,,,,,,0,,,87,60
49770,note_on,30,0,1,,,,,,,,,0,,,89,0
49800,note_on,30,0,1,,,,,,,,,0,,,87,0
49800,note_on,0,0,1,,,,,,,,,0,,,85,60
49830,note_on,30,0,1,,,,,,,,,0,,,85,0
49830,note_on,0,0,1,,,,,,,,,0,,,84,60
49860,note_on,30,0,1,,,,,,,,,0,,,84,0
49860,note_on,0,0,1,,,,,,,,,0,,,82,60
49860,note_on,240,0,4,,,,,,,,,0,,,56,0
49860,note_on,0,0,4,,,,,,,,,0,,,60,0
49860,note_on,0,0,4,,,,,,,,,0,,,61,60
49860,note_on,0,0,4,,,,,,,,,0,,,55,60
49890,note_on,30,0,1,,,,,,,,,0,,,82,0
49890,note_on,0,0,1,,,,,,,,,0,,,80,60
49920,note_on,30,0,1,,,,,,,,,0,,,80,0
49920,note_on,0,0,1,,,,,,,,,0,,,79,60
49950,note_on,30,0,1,,,,,,,,,0,,,79,0
49950,note_on,0,0,1,,,,,,,,,0,,,77,60
49980,note_on,0,0,1,,,,,,,,,0,,,75,60
49980,note_on,30,0,1,,,,,,,,,0,,,77,0
50010,note_on,0,0,1,,,,,,,,,0,,,73,60
50010,note_on,30,0,1,,,,,,,,,0,,,75,0
50040,note_on,0,0,1,,,,,,,,,0,,,72,60
50040,note_on,30,0,1,,,,,,,,,0,,,73,0
50070,note_on,0,0,1,,,,,,,,,0,,,70,60
50070,note_on,30,0,1,,,,,,,,,0,,,72,0
50100,note_on,0,0,1,,,,,,,,,0,,,68,60
50100,note_on,30,0,1,,,,,,,,,0,,,70,0
50120,note_on,0,0,1,,,,,,,,,0,,,67,60
50120,note_on,20,0,1,,,,,,,,,0,,,68,0
50140,note_on,20,0,1,,,,,,,,,0,,,67,0
50140,note_on,0,0,1,,,,,,,,,0,,,65,60
50160,note_on,20,0,1,,,,,,,,,0,,,65,0
50160,note_on,0,0,1,,,,,,,,,0,,,63,60
50190,note_on,30,0,1,,,,,,,,,0,,,63,0
50220,note_on,30,0,1,,,,,,,,,0,,,72,60
50220,control_change,2220,0,5,,,,,,,,,0,64,127,,
50220,note_on,0,0,4,,,,,,,,,0,,,40,70
50220,note_on,0,0,4,,,,,,,,,0,,,51,0
50220,note_on,0,0,4,,,,,,,,,0,,,61,0
50220,note_on,360,0,4,,,,,,,,,0,,,55,0
50250,note_on,30,0,1,,,,,,,,,0,,,72,0
50250,note_on,0,0,1,,,,,,,,,0,,,79,60
50280,note_on,0,0,1,,,,,,,,,0,,,72,60
50280,note_on,30,0,1,,,,,,,,,0,,,79,0
50310,note_on,0,0,1,,,,,,,,,0,,,79,60
50310,note_on,30,0,1,,,,,,,,,0,,,72,0
50340,note_on,0,0,4,,,,,,,,,0,,,52,60
50340,note_on,120,0,4,,,,,,,,,0,,,40,0
50340,control_change,120,0,5,,,,,,,,,0,64,0,,
50340,note_on,30,0,1,,,,,,,,,0,,,79,0
50340,note_on,0,0,1,,,,,,,,,0,,,84,60
50340,note_on,0,0,4,,,,,,,,,0,,,55,60
50340,note_on,0,0,4,,,,,,,,,0,,,60,60
50370,note_on,30,0,1,,,,,,,,,0,,,84,0
50370,note_on,0,0,4,,,,,,,,,0,,,60,0
50370,note_on,0,0,4,,,,,,,,,0,,,55,0
50370,note_on,30,0,4,,,,,,,,,0,,,52,0
50400,note_on,30,0,1,,,,,,,,,0,,,72,60
50400,control_change,60,0,5,,,,,,,,,0,64,127,,
50400,note_on,30,0,4,,,,,,,,,0,,,40,70
50430,note_on,0,0,1,,,,,,,,,0,,,79,60
50430,note_on,30,0,1,,,,,,,,,0,,,72,0
50460,note_on,0,0,1,,,,,,,,,0,,,72,60
50460,note_on,30,0,1,,,,,,,,,0,,,79,0
50490,note_on,0,0,1,,,,,,,,,0,,,79,60
50490,note_on,30,0,1,,,,,,,,,0,,,72,0
50520,note_on,0,0,1,,,,,,,,,0,,,84,60
50520,note_on,30,0,1,,,,,,,,,0,,,79,0
50520,note_on,120,0,4,,,,,,,,,0,,,40,0
50520,note_on,0,0,4,,,,,,,,,0,,,55,60
50520,note_on,0,0,4,,,,,,,,,0,,,60,60
50520,note_on,0,0,4,,,,,,,,,0,,,52,60
50520,control_change,120,0,5,,,,,,,,,0,64,0,,
50550,note_on,30,0,1,,,,,,,,,0,,,84,0
50550,note_on,0,0,4,,,,,,,,,0,,,55,0
50550,note_on,30,0,4,,,,,,,,,0,,,52,0
50550,note_on,0,0,4,,,,,,,,,0,,,60,0
50580,note_on,30,0,4,,,,,,,,,0,,,40,70
50580,note_on,30,0,1,,,,,,,,,0,,,79,60
50580,control_change,60,0,5,,,,,,,,,0,64,127,,
50610,note_on,0,0,1,,,,,,,,,0,,,84,60
50610,note_on,30,0,1,,,,,,,,,0,,,79,0
50640,note_on,30,0,1,,,,,,,,,0,,,84,0
50640,note_on,0,0,1,,,,,,,,,0,,,79,60
50670,note_on,0,0,1,,,,,,,,,0,,,84,60
50670,note_on,30,0,1,,,,,,,,,0,,,79,0
50700,note_on,0,0,4,,,,,,,,,0,,,55,60
50700,note_on,0,0,4,,,,,,,,,0,,,60,60
50700,note_on,120,0,4,,,,,,,,,0,,,40,0
50700,note_on,0,0,4,,,,,,,,,0,,,52,60
50700,note_on,0,0,1,,,,,,,,,0,,,91,60
50700,control_change,120,0,5,,,,,,,,,0,64,0,,
50700,note_on,30,0,1,,,,,,,,,0,,,84,0
50730,note_on,30,0,1,,,,,,,,,0,,,91,0
50730,note_on,30,0,4,,,,,,,,,0,,,52,0
50730,note_on,0,0,4,,,,,,,,,0,,,55,0
50730,note_on,0,0,4,,,,,,,,,0,,,60,0
50760,note_on,30,0,1,,,,,,,,,0,,,84,60
50760,note_on,30,0,4,,,,,,,,,0,,,40,70
50760,control_change,60,0,5,,,,,,,,,0,64,127,,
50790,note_on,0,0,1,,,,,,,,,0,,,91,60
50790,note_on,30,0,1,,,,,,,,,0,,,84,0
50820,note_on,0,0,1,,,,,,,,,0,,,84,60
50820,note_on,30,0,1,,,,,,,,,0,,,91,0
50850,note_on,0,0,1,,,,,,,,,0,,,91,60
50850,note_on,30,0,1,,,,,,,,,0,,,84,0
50880,note_on,30,0,1,,,,,,,,,0,,,91,0
50880,control_change,120,0,5,,,,,,,,,0,64,0,,
50880,note_on,120,0,4,,,,,,,,,0,,,40,0
50880,note_on,0,0,4,,,,,,,,,0,,,60,60
50880,note_on,0,0,4,,,,,,,,,0,,,55,60
50880,note_on,0,0,4,,,,,,,,,0,,,52,60
50880,note_on,0,0,1,,,,,,,,,0,,,96,60
50910,note_on,30,0,1,,,,,,,,,0,,,96,0
50910,note_on,30,0,4,,,,,,,,,0,,,52,0
50910,note_on,0,0,4,,,,,,,,,0,,,60,0
50910,note_on,0,0,4,,,,,,,,,0,,,55,0
50940,note_on,30,0,4,,,,,,,,,0,,,43,70
50940,note_on,30,0,1,,,,,,,,,0,,,91,60
50970,note_on,30,0,1,,,,,,,,,0,,,91,0
50970,note_on,0,0,1,,,,,,,,,0,,,96,60
51000,note_on,0,0,1,,,,,,,,,0,,,91,60
51000,note_on,30,0,1,,,,,,,,,0,,,96,0
51030,note_on,0,0,1,,,,,,,,,0,,,96,60
51030,note_on,30,0,1,,,,,,,,,0,,,91,0
51060,note_on,0,0,4,,,,,,,,,0,,,52,60
51060,note_on,0,0,4,,,,,,,,,0,,,55,60
51060,note_on,120,0,4,,,,,,,,,0,,,43,0
51060,note_on,0,0,4,,,,,,,,,0,,,60,60
51060,note_on,0,0,1,,,,,,,,,0,,,100,60
51060,note_on,30,0,1,,,,,,,,,0,,,96,0
51090,note_on,0,0,1,,,,,,,,,0,,,98,60
51090,note_on,30,0,1,,,,,,,,,0,,,100,0
51120,note_on,0,0,1,,,,,,,,,0,,,96,60
51120,note_on,30,0,1,,,,,,,,,0,,,98,0
51150,note_on,30,0,1,,,,,,,,,0,,,96,0
51150,note_on,0,0,1,,,,,,,,,0,,,95,60
51180,note_on,0,0,1,,,,,,,,,0,,,93,60
51180,note_on,30,0,1,,,,,,,,,0,,,95,0
51210,note_on,30,0,1,,,,,,,,,0,,,93,0
51210,note_on,0,0,1,,,,,,,,,0,,,91,60
51240,note_on,30,0,1,,,,,,,,,0,,,91,0
51240,note_on,0,0,1,,,,,,,,,0,,,89,60
51270,note_on,0,0,1,,,,,,,,,0,,,88,60
51270,note_on,30,0,1,,,,,,,,,0,,,89,0
51300,note_on,0,0,4,,,,,,,,,0,,,53,60
51300,note_on,0,0,4,,,,,,,,,0,,,55,60
51300,note_on,0,0,4,,,,,,,,,0,,,59,60
51300,note_on,0,0,4,,,,,,,,,0,,,60,0
51300,note_on,0,0,4,,,,,,,,,0,,,55,0
51300,note_on,240,0,4,,,,,,,,,0,,,52,0
51300,note_on,0,0,1,,,,,,,,,0,,,86,60
51300,note_on,30,0,1,,,,,,,,,0,,,88,0
51330,note_on,30,0,1,,,,,,,,,0,,,86,0
51330,note_on,0,0,1,,,,,,,,,0,,,84,60
51360,note_on,30,0,1,,,,,,,,,0,,,84,0
51360,note_on,0,0,1,,,,,,,,,0,,,83,60
51390,note_on,0,0,1,,,,,,,,,0,,,81,60
51390,note_on,30,0,1,,,,,,,,,0,,,83,0
51420,note_on,30,0,1,,,,,,,,,0,,,81,0
51420,note_on,0,0,1,,,,,,,,,0,,,79,60
51440,note_on,0,0,1,,,,,,,,,0,,,77,60
51440,note_on,20,0,1,,,,,,,,,0,,,79,0
51460,note_on,20,0,1,,,,,,,,,0,,,77,0
51460,note_on,0,0,1,,,,,,,,,0,,,76,60
51480,note_on,20,0,1,,,,,,,,,0,,,76,0
51480,note_on,0,0,1,,,,,,,,,0,,,74,60
51510,note_on,0,0,1,,,,,,,,,0,,,72,60
51510,note_on,30,0,1,,,,,,,,,0,,,74,0
51540,note_on,30,0,1,,,,,,,,,0,,,72,0
51540,note_on,0,0,1,,,,,,,,,0,,,71,60
51570,note_on,30,0,1,,,,,,,,,0,,,71,0
51570,note_on,0,0,1,,,,,,,,,0,,,69,60
51600,note_on,30,0,1,,,,,,,,,0,,,69,0
51600,note_on,0,0,1,,,,,,,,,0,,,67,60
51630,note_on,30,0,1,,,,,,,,,0,,,67,0
51660,note_on,0,0,4,,,,,,,,,0,,,59,0
51660,note_on,360,0,4,,,,,,,,,0,,,53,0
51660,note_on,0,0,4,,,,,,,,,0,,,39,110
51660,note_on,30,0,1,,,,,,,,,0,,,92,100
51660,note_on,0,0,4,,,,,,,,,0,,,55,0
51690,note_on,0,0,1,,,,,,,,,0,,,96,100
51690,note_on,30,0,4,,,,,,,,,0,,,39,0
51690,note_on,30,0,1,,,,,,,,,0,,,92,0
51720,note_on,0,0,1,,,,,,,,,0,,,92,100
51720,note_on,30,0,1,,,,,,,,,0,,,96,0
51750,note_on,30,0,1,,,,,,,,,0,,,92,0
51750,note_on,0,0,1,,,,,,,,,0,,,96,100
51780,note_on,30,0,1,,,,,,,,,0,,,96,0
51780,note_on,0,0,1,,,,,,,,,0,,,99,100
51780,note_on,0,0,4,,,,,,,,,0,,,51,100
51780,note_on,0,0,4,,,,,,,,,0,,,56,100
51780,note_on,90,0,4,,,,,,,,,0,,,60,100
51810,note_on,30,0,1,,,,,,,,,0,,,99,0
51810,note_on,0,0,1,,,,,,,,,0,,,97,100
51840,note_on,0,0,1,,,,,,,,,0,,,96,100
51840,note_on,30,0,1,,,,,,,,,0,,,97,0
51870,note_on,30,0,1,,,,,,,,,0,,,96,0
51870,note_on,0,0,1,,,,,,,,,0,,,94,100
51900,note_on,0,0,1,,,,,,,,,0,,,92,100
51900,note_on,30,0,1,,,,,,,,,0,,,94,0
51930,note_on,0,0,1,,,,,,,,,0,,,91,100
51930,note_on,30,0,1,,,,,,,,,0,,,92,0
51960,note_on,0,0,1,,,,,,,,,0,,,89,100
51960,note_on,30,0,1,,,,,,,,,0,,,91,0
51990,note_on,0,0,1,,,,,,,,,0,,,87,100
51990,note_on,30,0,1,,,,,,,,,0,,,89,0
52020,note_on,240,0,4,,,,,,,,,0,,,56,0
52020,note_on,0,0,4,,,,,,,,,0,,,60,0
52020,note_on,0,0,4,,,,,,,,,0,,,55,100
52020,note_on,0,0,4,,,,,,,,,0,,,61,100
52020,note_on,0,0,4,,,,,,,,,0,,,58,100
52020,note_on,30,0,1,,,,,,,,,0,,,87,0
52020,note_on,0,0,1,,,,,,,,,0,,,85,100
52050,note_on,30,0,1,,,,,,,,,0,,,85,0
52050,note_on,0,0,1,,,,,,,,,0,,,84,100
52080,note_on,30,0,1,,,,,,,,,0,,,84,0
52080,note_on,0,0,1,,,,,,,,,0,,,82,100
52110,note_on,30,0,1,,,,,,,,,0,,,82,0
52110,note_on,0,0,1,,,,,,,,,0,,,80,100
52140,note_on,30,0,1,,,,,,,,,0,,,80,0
52140,note_on,0,0,1,,,,,,,,,0,,,79,100
52170,note_on,30,0,1,,,,,,,,,0,,,79,0
52170,note_on,0,0,1,,,,,,,,,0,,,77,100
52200,note_on,0,0,1,,,,,,,,,0,,,75,100
52200,note_on,30,0,1,,,,,,,,,0,,,77,0
52220,note_on,0,0,1,,,,,,,,,0,,,73,101
52220,note_on,20,0,1,,,,,,,,,0,,,75,0
52240,note_on,0,0,1,,,,,,,,,0,,,72,102
52240,note_on,20,0,1,,,,,,,,,0,,,73,0
52260,note_on,0,0,1,,,,,,,,,0,,,70,103
52260,note_on,20,0,1,,,,,,,,,0,,,72,0
52280,note_on,0,0,1,,,,,,,,,0,,,68,104
52280,note_on,20,0,1,,,,,,,,,0,,,70,0
52300,note_on,0,0,1,,,,,,,,,0,,,67,106
52300,note_on,20,0,1,,,,,,,,,0,,,68,0
52320,note_on,0,0,1,,,,,,,,,0,,,65,107
52320,note_on,20,0,1,,,,,,,,,0,,,67,0
52320,note_on,0,0,4,,,,,,,,,0,,,51,0
52320,note_on,300,0,4,,,,,,,,,0,,,58,0
52320,note_on,0,0,4,,,,,,,,,0,,,61,0
52320,note_on,0,0,4,,,,,,,,,0,,,55,0
52332,note_on,0,0,1,,,,,,,,,0,,,63,108
52332,note_on,12,0,1,,,,,,,,,0,,,65,0
52344,note_on,0,0,1,,,,,,,,,0,,,61,108
52344,note_on,12,0,1,,,,,,,,,0,,,63,0
52356,note_on,12,0,1,,,,,,,,,0,,,61,0
52356,note_on,0,0,1,,,,,,,,,0,,,60,109
52368,note_on,12,0,1,,,,,,,,,0,,,60,0
52368,note_on,0,0,1,,,,,,,,,0,,,58,110
52380,note_on,12,0,1,,,,,,,,,0,,,58,0
52380,note_on,0,0,1,,,,,,,,,0,,,56,110
52380,note_on,60,0,4,,,,,,,,,0,,,44,110
52410,note_on,30,0,1,,,,,,,,,0,,,56,0
52410,note_on,30,0,4,,,,,,,,,0,,,44,0
52440,note_on,30,0,4,,,,,,,,,0,,,56,110
52440,note_on,30,0,1,,,,,,,,,0,,,68,110
52470,note_on,30,0,4,,,,,,,,,0,,,56,0
52470,note_on,0,0,4,,,,,,,,,0,,,60,110
52470,note_on,0,0,1,,,,,,,,,0,,,72,110
52470,note_on,30,0,1,,,,,,,,,0,,,68,0
52500,note_on,0,0,4,,,,,,,,,0,,,63,110
52500,note_on,30,0,1,,,,,,,,,0,,,72,0
52500,note_on,30,0,4,,,,,,,,,0,,,60,0
52500,note_on,0,0,1,,,,,,,,,0,,,75,110
52530,note_on,30,0,4,,,,,,,,,0,,,63,0
52530,note_on,0,0,4,,,,,,,,,0,,,61,110
52530,note_on,30,0,1,,,,,,,,,0,,,75,0
52530,note_on,0,0,1,,,,,,,,,0,,,73,110
52560,note_on,0,0,1,,,,,,,,,0,,,72,110
52560,note_on,0,0,4,,,,,,,,,0,,,60,110
52560,note_on,30,0,4,,,,,,,,,0,,,61,0
52560,note_on,30,0,1,,,,,,,,,0,,,73,0
52590,note_on,30,0,4,,,,,,,,,0,,,60,0
52590,note_on,30,0,1,,,,,,,,,0,,,72,0
52590,note_on,0,0,1,,,,,,,,,0,,,70,110
52590,note_on,0,0,4,,,,,,,,,0,,,58,110
52620,note_on,0,0,1,,,,,,,,,0,,,68,110
52620,note_on,30,0,4,,,,,,,,,0,,,58,0
52620,note_on,0,0,4,,,,,,,,,0,,,56,110
52620,note_on,30,0,1,,,,,,,,,0,,,70,0
52650,note_on,30,0,1,,,,,,,,,0,,,68,0
52650,note_on,0,0,4,,,,,,,,,0,,,55,110
52650,note_on,0,0,1,,,,,,,,,0,,,67,110
52650,note_on,30,0,4,,,,,,,,,0,,,56,0
52680,note_on,30,0,1,,,,,,,,,0,,,67,0
52680,note_on,0,0,1,,,,,,,,,0,,,65,110
52680,note_on,0,0,4,,,,,,,,,0,,,53,110
52680,note_on,30,0,4,,,,,,,,,0,,,55,0
52710,note_on,30,0,4,,,,,,,,,0,,,53,0
52710,note_on,0,0,4,,,,,,,,,0,,,51,110
52710,note_on,0,0,1,,,,,,,,,0,,,63,110
52710,note_on,30,0,1,,,,,,,,,0,,,65,0
52740,note_on,30,0,1,,,,,,,,,0,,,63,0
52740,note_on,30,0,4,,,,,,,,,0,,,51,0
52740,note_on,0,0,4,,,,,,,,,0,,,49,110
52740,note_on,8310,0,2,,,,,,,,,0,,,61,110
52770,note_on,0,0,2,,,,,,,,,0,,,60,110
52770,note_on,30,0,4,,,,,,,,,0,,,49,0
52770,note_on,0,0,4,,,,,,,,,0,,,48,110
52770,note_on,30,0,2,,,,,,,,,0,,,61,0
52800,note_on,30,0,4,,,,,,,,,0,,,48,0
52800,note_on,0,0,4,,,,,,,,,0,,,46,110
52800,note_on,0,0,2,,,,,,,,,0,,,58,110
52800,note_on,30,0,2,,,,,,,,,0,,,60,0
52830,note_on,0,0,2,,,,,,,,,0,,,56,110
52830,note_on,30,0,2,,,,,,,,,0,,,58,0
52830,note_on,0,0,4,,,,,,,,,0,,,44,110
52830,note_on,30,0,4,,,,,,,,,0,,,46,0
52860,note_on,0,0,2,,,,,,,,,0,,,55,110
52860,note_on,30,0,2,,,,,,,,,0,,,56,0
52860,note_on,30,0,4,,,,,,,,,0,,,44,0
52860,note_on,0,0,4,,,,,,,,,0,,,43,110
52890,note_on,30,0,4,,,,,,,,,0,,,43,0
52890,note_on,0,0,4,,,,,,,,,0,,,41,110
52890,note_on,30,0,2,,,,,,,,,0,,,55,0
52890,note_on,0,0,2,,,,,,,,,0,,,53,110
52920,note_on,0,0,2,,,,,,,,,0,,,51,110
52920,note_on,30,0,2,,,,,,,,,0,,,53,0
52920,note_on,0,0,4,,,,,,,,,0,,,39,110
52920,note_on,30,0,4,,,,,,,,,0,,,41,0
52950,note_on,30,0,4,,,,,,,,,0,,,39,0
52950,note_on,0,0,4,,,,,,,,,0,,,41,110
52950,note_on,0,0,2,,,,,,,,,0,,,53,110
52950,note_on,30,0,2,,,,,,,,,0,,,51,0
52980,note_on,0,0,2,,,,,,,,,0,,,51,110
52980,note_on,30,0,4,,,,,,,,,0,,,41,0
52980,note_on,0,0,4,,,,,,,,,0,,,39,110
52980,note_on,30,0,2,,,,,,,,,0,,,53,0
53010,note_on,30,0,2,,,,,,,,,0,,,51,0
53010,note_on,0,0,2,,,,,,,,,0,,,49,110
53010,note_on,30,0,4,,,,,,,,,0,,,39,0
53010,note_on,0,0,4,,,,,,,,,0,,,37,110
53040,note_on,30,0,2,,,,,,,,,0,,,49,0
53040,note_on,0,0,2,,,,,,,,,0,,,48,110
53040,note_on,30,0,4,,,,,,,,,0,,,37,0
53040,note_on,0,0,4,,,,,,,,,0,,,36,110
53070,note_on,30,0,4,,,,,,,,,0,,,36,0
53070,note_on,0,0,4,,,,,,,,,0,,,34,110
53070,note_on,0,0,2,,,,,,,,,0,,,46,110
53070,note_on,30,0,2,,,,,,,,,0,,,48,0
53100,note_on,0,0,4,,,,,,,,,0,,,32,110
53100,note_on,30,0,4,,,,,,,,,0,,,34,0
53100,note_on,0,0,2,,,,,,,,,0,,,44,110
53100,note_on,30,0,2,,,,,,,,,0,,,46,0
53130,note_on,0,0,2,,,,,,,,,0,,,48,110
53130,note_on,30,0,2,,,,,,,,,0,,,44,0
53130,note_on,30,0,4,,,,,,,,,0,,,32,0
53130,note_on,0,0,4,,,,,,,,,0,,,36,110
53160,note_on,30,0,4,,,,,,,,,0,,,36,0
53160,note_on,0,0,4,,,,,,,,,0,,,32,110
53160,note_on,0,0,2,,,,,,,,,0,,,44,110
53160,note_on,30,0,2,,,,,,,,,0,,,48,0
53190,note_on,30,0,4,,,,,,,,,0,,,32,0
53190,note_on,0,0,2,,,,,,,,,0,,,48,110
53190,note_on,0,0,4,,,,,,,,,0,,,36,110
53190,note_on,30,0,2,,,,,,,,,0,,,44,0
53220,note_on,0,0,2,,,,,,,,,0,,,51,110
53220,note_on,30,0,2,,,,,,,,,0,,,48,0
53220,note_on,0,0,4,,,,,,,,,0,,,39,110
53220,note_on,30,0,4,,,,,,,,,0,,,36,0
53250,note_on,30,0,4,,,,,,,,,0,,,39,0
53250,note_on,30,0,2,,,,,,,,,0,,,51,0
53280,note_on,30,0,4,,,,,,,,,0,,,32,110
53280,note_on,30,0,2,,,,,,,,,0,,,44,110
53310,note_on,30,0,4,,,,,,,,,0,,,32,0
53310,note_on,0,0,4,,,,,,,,,0,,,36,110
53310,note_on,0,0,2,,,,,,,,,0,,,48,110
53310,note_on,30,0,2,,,,,,,,,0,,,44,0
53340,note_on,30,0,4,,,,,,,,,0,,,36,0
53340,note_on,0,0,4,,,,,,,,,0,,,32,110
53340,note_on,30,0,2,,,,,,,,,0,,,48,0
53340,note_on,0,0,2,,,,,,,,,0,,,44,110
53370,note_on,0,0,2,,,,,,,,,0,,,48,110
53370,note_on,30,0,2,,,,,,,,,0,,,44,0
53370,note_on,30,0,4,,,,,,,,,0,,,32,0
53370,note_on,0,0,4,,,,,,,,,0,,,36,110
53400,note_on,0,0,2,,,,,,,,,0,,,51,110
53400,note_on,30,0,2,,,,,,,,,0,,,48,0
53400,note_on,30,0,4,,,,,,,,,0,,,36,0
53400,note_on,0,0,4,,,,,,,,,0,,,39,110
53430,note_on,30,0,2,,,,,,,,,0,,,51,0
53430,note_on,30,0,4,,,,,,,,,0,,,39,0
53460,note_on,30,0,4,,,,,,,,,0,,,32,110
53460,note_on,30,0,2,,,,,,,,,0,,,44,110
53490,note_on,0,0,4,,,,,,,,,0,,,36,110
53490,note_on,30,0,4,,,,,,,,,0,,,32,0
53490,note_on,0,0,2,,,,,,,,,0,,,48,110
53490,note_on,30,0,2,,,,,,,,,0,,,44,0
53520,note_on,30,0,4,,,,,,,,,0,,,36,0
53520,note_on,0,0,2,,,,,,,,,0,,,44,110
53520,note_on,30,0,2,,,,,,,,,0,,,48,0
53520,note_on,0,0,4,,,,,,,,,0,,,32,110
53550,note_on,30,0,4,,,,,,,,,0,,,32,0
53550,note_on,0,0,4,,,,,,,,,0,,,36,110
53550,note_on,0,0,2,,,,,,,,,0,,,48,110
53550,note_on,30,0,2,,,,,,,,,0,,,44,0
53580,note_on,30,0,4,,,,,,,,,0,,,36,0
53580,note_on,0,0,2,,,,,,,,,0,,,51,110
53580,note_on,30,0,2,,,,,,,,,0,,,48,0
53580,note_on,0,0,4,,,,,,,,,0,,,39,110
53610,note_on,30,0,4,,,,,,,,,0,,,39,0
53610,note_on,30,0,2,,,,,,,,,0,,,51,0
53640,note_on,30,0,4,,,,,,,,,0,,,32,110
53640,note_on,30,0,2,,,,,,,,,0,,,44,110
53670,note_on,0,0,4,,,,,,,,,0,,,36,110
53670,note_on,30,0,4,,,,,,,,,0,,,32,0
53670,note_on,30,0,2,,,,,,,,,0,,,44,0
53670,note_on,0,0,2,,,,,,,,,0,,,48,110
53700,note_on,0,0,4,,,,,,,,,0,,,32,110
53700,note_on,30,0,4,,,,,,,,,0,,,36,0
53700,note_on,30,0,2,,,,,,,,,0,,,48,0
53700,note_on,0,0,2,,,,,,,,,0,,,44,110
53730,note_on,0,0,4,,,,,,,,,0,,,36,110
53730,note_on,30,0,4,,,,,,,,,0,,,32,0
53730,note_on,30,0,2,,,,,,,,,0,,,44,0
53730,note_on,0,0,2,,,,,,,,,0,,,48,110
53760,note_on,0,0,2,,,,,,,,,0,,,51,110
53760,note_on,30,0,2,,,,,,,,,0,,,48,0
53760,note_on,30,0,4,,,,,,,,,0,,,36,0
53760,note_on,0,0,4,,,,,,,,,0,,,39,110
53790,note_on,30,0,2,,,,,,,,,0,,,51,0
53790,note_on,30,0,4,,,,,,,,,0,,,39,0
53820,note_on,30,0,2,,,,,,,,,0,,,44,110
53820,note_on,30,0,4,,,,,,,,,0,,,32,110
53850,note_on,0,0,2,,,,,,,,,0,,,48,110
53850,note_on,30,0,2,,,,,,,,,0,,,44,0
53880,note_on,0,0,2,,,,,,,,,0,,,44,110
53880,note_on,30,0,2,,,,,,,,,0,,,48,0
53910,note_on,0,0,2,,,,,,,,,0,,,48,110
53910,note_on,30,0,2,,,,,,,,,0,,,44,0
53940,note_on,30,0,2,,,,,,,,,0,,,48,0
53940,note_on,0,0,2,,,,,,,,,0,,,51,110
53940,note_on,120,0,4,,,,,,,,,0,,,32,0
53970,note_on,30,0,2,,,,,,,,,0,,,51,0
54000,note_on,30,0,2,,,,,,,,,0,,,48,110
54030,note_on,30,0,2,,,,,,,,,0,,,48,0
54030,note_on,0,0,2,,,,,,,,,0,,,51,108
54060,note_on,0,0,2,,,,,,,,,0,,,48,105
54060,note_on,30,0,2,,,,,,,,,0,,,51,0
54090,note_on,0,0,2,,,,,,,,,0,,,51,102
54090,note_on,30,0,2,,,,,,,,,0,,,48,0
54120,note_on,0,0,2,,,,,,,,,0,,,56,99
54120,note_on,30,0,2,,,,,,,,,0,,,51,0
54150,note_on,30,0,2,,,,,,,,,0,,,56,0
54180,note_on,30,0,2,,,,,,,,,0,,,51,93
54210,note_on,0,0,2,,,,,,,,,0,,,56,90
54210,note_on,30,0,2,,,,,,,,,0,,,51,0
54240,note_on,0,0,2,,,,,,,,,0,,,51,87
54240,note_on,30,0,2,,,,,,,,,0,,,56,0
54270,note_on,30,0,2,,,,,,,,,0,,,51,0
54270,note_on,0,0,2,,,,,,,,,0,,,56,84
54300,note_on,0,0,2,,,,,,,,,0,,,60,81
54300,note_on,30,0,2,,,,,,,,,0,,,56,0
54330,note_on,30,0,2,,,,,,,,,0,,,60,0
54330,end_of_track,0,1,2,,,,,,,,,,,,,
54360,note_on,1620,0,1,,,,,,,,,0,,,56,75
54390,note_on,30,0,1,,,,,,,,,0,,,56,0
54390,note_on,0,0,1,,,,,,,,,0,,,60,72
54420,note_on,30,0,1,,,,,,,,,0,,,60,0
54420,note_on,0,0,1,,,,,,,,,0,,,56,69
54450,note_on,30,0,1,,,,,,,,,0,,,56,0
54450,note_on,0,0,1,,,,,,,,,0,,,60,66
54480,note_on,30,0,1,,,,,,,,,0,,,60,0
54480,note_on,0,0,1,,,,,,,,,0,,,63,63
54510,note_on,30,0,1,,,,,,,,,0,,,63,0
54540,note_on,30,0,1,,,,,,,,,0,,,56,60
54570,note_on,30,0,1,,,,,,,,,0,,,56,0
54570,note_on,0,0,1,,,,,,,,,0,,,60,60
54600,note_on,30,0,1,,,,,,,,,0,,,60,0
54600,note_on,0,0,1,,,,,,,,,0,,,56,60
54630,note_on,30,0,1,,,,,,,,,0,,,56,0
54630,note_on,0,0,1,,,,,,,,,0,,,60,60
54660,note_on,30,0,1,,,,,,,,,0,,,60,0
54660,note_on,0,0,1,,,,,,,,,0,,,63,60
54690,note_on,30,0,1,,,,,,,,,0,,,63,0
54690,note_on,0,0,1,,,,,,,,,0,,,61,60
54720,note_on,30,0,1,,,,,,,,,0,,,61,0
54720,note_on,0,0,1,,,,,,,,,0,,,60,60
54750,note_on,810,0,4,,,,,,,,,0,,,58,60
54750,note_on,30,0,1,,,,,,,,,0,,,60,0
54780,note_on,0,0,4,,,,,,,,,0,,,56,60
54780,note_on,30,0,4,,,,,,,,,0,,,58,0
54810,note_on,0,0,4,,,,,,,,,0,,,55,60
54810,note_on,30,0,4,,,,,,,,,0,,,56,0
54840,note_on,0,0,4,,,,,,,,,0,,,53,60
54840,note_on,30,0,4,,,,,,,,,0,,,55,0
54870,note_on,0,0,4,,,,,,,,,0,,,51,60
54870,note_on,30,0,4,,,,,,,,,0,,,53,0
54900,note_on,0,0,4,,,,,,,,,0,,,49,60
54900,note_on,30,0,4,,,,,,,,,0,,,51,0
54930,note_on,30,0,4,,,,,,,,,0,,,49,0
54930,note_on,0,0,4,,,,,,,,,0,,,48,60
54960,note_on,0,0,4,,,,,,,,,0,,,46,60
54960,note_on,30,0,4,,,,,,,,,0,,,48,0
54990,note_on,30,0,4,,,,,,,,,0,,,46,0
54990,note_on,0,0,4,,,,,,,,,0,,,44,60
55020,note_on,30,0,4,,,,,,,,,0,,,44,0
55020,note_on,0,0,4,,,,,,,,,0,,,43,60
55050,note_on,30,0,4,,,,,,,,,0,,,43,0
55050,note_on,0,0,4,,,,,,,,,0,,,44,60
55080,note_on,30,0,4,,,,,,,,,0,,,44,0
55080,note_on,0,0,4,,,,,,,,,0,,,46,60
55110,note_on,0,0,4,,,,,,,,,0,,,48,60
55110,note_on,30,0,4,,,,,,,,,0,,,46,0
55140,note_on,30,0,4,,,,,,,,,0,,,48,0
55140,note_on,0,0,4,,,,,,,,,0,,,49,60
55170,note_on,30,0,4,,,,,,,,,0,,,49,0
55170,note_on,0,0,4,,,,,,,,,0,,,51,60
55200,note_on,30,0,4,,,,,,,,,0,,,51,0
55200,note_on,0,0,4,,,,,,,,,0,,,53,60
55230,note_on,0,0,4,,,,,,,,,0,,,55,60
55230,note_on,30,0,4,,,,,,,,,0,,,53,0
55260,note_on,30,0,4,,,,,,,,,0,,,55,0
55260,note_on,0,0,4,,,,,,,,,0,,,56,60
55290,note_on,0,0,4,,,,,,,,,0,,,58,60
55290,note_on,30,0,4,,,,,,,,,0,,,56,0
55320,note_on,30,0,4,,,,,,,,,0,,,58,0
55320,note_on,570,0,1,,,,,,,,,0,,,60,60
55350,note_on,30,0,1,,,,,,,,,0,,,60,0
55350,note_on,0,0,1,,,,,,,,,0,,,61,60
55380,note_on,30,0,1,,,,,,,,,0,,,61,0
55380,note_on,0,0,1,,,,,,,,,0,,,63,60
55410,note_on,30,0,1,,,,,,,,,0,,,63,0
55410,note_on,0,0,1,,,,,,,,,0,,,64,60
55440,note_on,0,0,1,,,,,,,,,0,,,64,60
55440,note_on,0,0,1,,,,,,,,,0,,,61,60
55440,note_on,0,0,1,,,,,,,,,0,,,58,60
55440,note_on,30,0,1,,,,,,,,,0,,,64,0
55620,note_on,300,0,4,,,,,,,,,0,,,43,60
55650,note_on,30,0,4,,,,,,,,,0,,,43,0
55650,note_on,0,0,4,,,,,,,,,0,,,46,60
55680,note_on,30,0,4,,,,,,,,,0,,,46,0
55680,note_on,0,0,4,,,,,,,,,0,,,43,60
55710,note_on,0,0,4,,,,,,,,,0,,,46,60
55710,note_on,30,0,4,,,,,,,,,0,,,43,0
55740,note_on,0,0,4,,,,,,,,,0,,,49,60
55740,note_on,30,0,4,,,,,,,,,0,,,46,0
55770,note_on,30,0,4,,,,,,,,,0,,,49,0
55800,note_on,30,0,4,,,,,,,,,0,,,43,60
55830,note_on,0,0,4,,,,,,,,,0,,,46,60
55830,note_on,30,0,4,,,,,,,,,0,,,43,0
55860,note_on,30,0,4,,,,,,,,,0,,,46,0
55860,note_on,0,0,4,,,,,,,,,0,,,43,60
55890,note_on,0,0,4,,,,,,,,,0,,,46,60
55890,note_on,30,0,4,,,,,,,,,0,,,43,0
55920,note_on,0,0,4,,,,,,,,,0,,,49,60
55920,note_on,30,0,4,,,,,,,,,0,,,46,0
55950,note_on,30,0,4,,,,,,,,,0,,,49,0
55980,note_on,30,0,4,,,,,,,,,0,,,43,60
56010,note_on,30,0,4,,,,,,,,,0,,,43,0
56010,note_on,0,0,4,,,,,,,,,0,,,46,60
56040,note_on,30,0,4,,,,,,,,,0,,,46,0
56040,note_on,0,0,4,,,,,,,,,0,,,43,60
56070,note_on,30,0,4,,,,,,,,,0,,,43,0
56070,note_on,0,0,4,,,,,,,,,0,,,46,60
56100,note_on,0,0,4,,,,,,,,,0,,,49,60
56100,note_on,30,0,4,,,,,,,,,0,,,46,0
56130,note_on,30,0,4,,,,,,,,,0,,,49,0
56160,note_on,720,0,1,,,,,,,,,0,,,64,0
56160,note_on,0,0,1,,,,,,,,,0,,,61,0
56160,note_on,0,0,1,,,,,,,,,0,,,58,0
56160,set_tempo,12420,1,0,,,,,,1000000,,,,,,,
56340,set_tempo,180,1,0,,,,,,476190,,,,,,,
56340,note_on,180,0,1,,,,,,,,,0,,,68,60
56370,note_on,30,0,1,,,,,,,,,0,,,68,0
56370,note_on,0,0,1,,,,,,,,,0,,,72,60
56400,note_on,30,0,1,,,,,,,,,0,,,72,0
56400,note_on,0,0,1,,,,,,,,,0,,,68,60
56430,note_on,0,0,1,,,,,,,,,0,,,72,60
56430,note_on,30,0,1,,,,,,,,,0,,,68,0
56460,note_on,0,0,1,,,,,,,,,0,,,75,60
56460,note_on,30,0,1,,,,,,,,,0,,,72,0
56490,note_on,30,0,1,,,,,,,,,0,,,75,0
56490,note_on,0,0,1,,,,,,,,,0,,,73,60
56520,note_on,0,0,1,,,,,,,,,0,,,72,60
56520,note_on,30,0,1,,,,,,,,,0,,,73,0
56550,note_on,0,0,1,,,,,,,,,0,,,70,60
56550,note_on,30,0,1,,,,,,,,,0,,,72,0
56580,note_on,0,0,1,,,,,,,,,0,,,68,60
56580,note_on,30,0,1,,,,,,,,,0,,,70,0
56610,note_on,30,0,1,,,,,,,,,0,,,68,0
56610,note_on,0,0,1,,,,,,,,,0,,,67,60
56640,note_on,30,0,1,,,,,,,,,0,,,67,0
56640,note_on,0,0,1,,,,,,,,,0,,,65,60
56670,note_on,0,0,1,,,,,,,,,0,,,63,60
56670,note_on,30,0,1,,,,,,,,,0,,,65,0
56700,note_on,30,0,1,,,,,,,,,0,,,63,0
56700,note_on,0,0,1,,,,,,,,,0,,,61,60
56730,note_on,30,0,1,,,,,,,,,0,,,61,0
56730,note_on,0,0,1,,,,,,,,,0,,,60,60
56760,note_on,0,0,1,,,,,,,,,0,,,58,60
56760,note_on,30,0,1,,,,,,,,,0,,,60,0
56790,note_on,0,0,1,,,,,,,,,0,,,56,60
56790,note_on,30,0,1,,,,,,,,,0,,,58,0
56820,note_on,30,0,1,,,,,,,,,0,,,56,0
56820,note_on,0,0,1,,,,,,,,,0,,,55,60
56850,note_on,30,0,1,,,,,,,,,0,,,55,0
56850,note_on,0,0,1,,,,,,,,,0,,,56,60
56880,note_on,30,0,1,,,,,,,,,0,,,56,0
56880,note_on,0,0,1,,,,,,,,,0,,,58,60
56910,note_on,0,0,1,,,,,,,,,0,,,60,60
56910,note_on,30,0,1,,,,,,,,,0,,,58,0
56940,note_on,0,0,1,,,,,,,,,0,,,61,60
56940,note_on,30,0,1,,,,,,,,,0,,,60,0
56970,note_on,0,0,1,,,,,,,,,0,,,63,60
56970,note_on,30,0,1,,,,,,,,,0,,,61,0
57000,note_on,30,0,1,,,,,,,,,0,,,63,0
57000,note_on,0,0,1,,,,,,,,,0,,,65,60
57030,note_on,30,0,1,,,,,,,,,0,,,65,0
57030,note_on,0,0,1,,,,,,,,,0,,,67,60
57060,note_on,30,0,1,,,,,,,,,0,,,67,0
57060,note_on,0,0,1,,,,,,,,,0,,,68,60
57090,note_on,0,0,1,,,,,,,,,0,,,70,60
57090,note_on,30,0,1,,,,,,,,,0,,,68,0
57120,note_on,0,0,1,,,,,,,,,0,,,72,60
57120,note_on,30,0,1,,,,,,,,,0,,,70,0
57150,note_on,30,0,1,,,,,,,,,0,,,72,0
57150,note_on,0,0,1,,,,,,,,,0,,,73,60
57180,note_on,30,0,1,,,,,,,,,0,,,73,0
57180,note_on,0,0,1,,,,,,,,,0,,,75,60
57210,note_on,30,0,1,,,,,,,,,0,,,75,0
57210,note_on,0,0,1,,,,,,,,,0,,,76,60
57240,note_on,0,0,1,,,,,,,,,0,,,70,60
57240,note_on,0,0,1,,,,,,,,,0,,,73,60
57240,note_on,30,0,1,,,,,,,,,0,,,76,0
57240,note_on,0,0,1,,,,,,,,,0,,,76,60
57420,note_on,1290,0,4,,,,,,,,,0,,,55,60
57450,note_on,0,0,4,,,,,,,,,0,,,58,60
57450,note_on,30,0,4,,,,,,,,,0,,,55,0
57480,note_on,30,0,4,,,,,,,,,0,,,58,0
57480,note_on,0,0,4,,,,,,,,,0,,,55,60
57510,note_on,30,0,4,,,,,,,,,0,,,55,0
57510,note_on,0,0,4,,,,,,,,,0,,,58,60
57540,note_on,0,0,4,,,,,,,,,0,,,61,60
57540,note_on,30,0,4,,,,,,,,,0,,,58,0
57570,note_on,30,0,4,,,,,,,,,0,,,61,0
57600,note_on,30,0,4,,,,,,,,,0,,,55,60
57630,note_on,0,0,4,,,,,,,,,0,,,58,60
57630,note_on,30,0,4,,,,,,,,,0,,,55,0
57660,note_on,30,0,4,,,,,,,,,0,,,58,0
57660,note_on,0,0,4,,,,,,,,,0,,,55,60
57690,note_on,0,0,4,,,,,,,,,0,,,58,60
57690,note_on,30,0,4,,,,,,,,,0,,,55,0
57720,note_on,0,0,4,,,,,,,,,0,,,61,60
57720,note_on,30,0,4,,,,,,,,,0,,,58,0
57750,note_on,30,0,4,,,,,,,,,0,,,61,0
57780,note_on,30,0,4,,,,,,,,,0,,,55,60
57810,note_on,0,0,4,,,,,,,,,0,,,58,60
57810,note_on,30,0,4,,,,,,,,,0,,,55,0
57840,note_on,30,0,4,,,,,,,,,0,,,58,0
57840,note_on,0,0,4,,,,,,,,,0,,,55,60
57870,note_on,30,0,4,,,,,,,,,0,,,55,0
57870,note_on,0,0,4,,,,,,,,,0,,,58,60
57900,note_on,0,0,4,,,,,,,,,0,,,61,60
57900,note_on,30,0,4,,,,,,,,,0,,,58,0
57930,note_on,30,0,4,,,,,,,,,0,,,61,0
57960,note_on,0,0,1,,,,,,,,,0,,,76,0
57960,note_on,0,0,1,,,,,,,,,0,,,73,0
57960,note_on,720,0,1,,,,,,,,,0,,,70,0
57960,set_tempo,1620,1,0,,,,,,1000000,,,,,,,
58140,set_tempo,180,1,0,,,,,,476190,,,,,,,
58140,note_on,180,0,1,,,,,,,,,0,,,79,40
58170,note_on,30,0,1,,,,,,,,,0,,,79,0
58170,note_on,0,0,1,,,,,,,,,0,,,82,40
58200,note_on,0,0,1,,,,,,,,,0,,,85,40
58200,note_on,30,0,1,,,,,,,,,0,,,82,0
58230,note_on,0,0,1,,,,,,,,,0,,,84,40
58230,note_on,30,0,1,,,,,,,,,0,,,85,0
58260,note_on,30,0,1,,,,,,,,,0,,,84,0
58260,note_on,0,0,1,,,,,,,,,0,,,82,40
58290,note_on,30,0,1,,,,,,,,,0,,,82,0
58290,note_on,0,0,1,,,,,,,,,0,,,80,40
58320,note_on,30,0,1,,,,,,,,,0,,,80,0
58320,note_on,0,0,1,,,,,,,,,0,,,79,40
58350,note_on,30,0,1,,,,,,,,,0,,,79,0
58350,note_on,0,0,1,,,,,,,,,0,,,77,40
58380,note_on,0,0,1,,,,,,,,,0,,,76,40
58380,note_on,30,0,1,,,,,,,,,0,,,77,0
58410,note_on,0,0,1,,,,,,,,,0,,,73,40
58410,note_on,30,0,1,,,,,,,,,0,,,76,0
58440,note_on,0,0,1,,,,,,,,,0,,,72,40
58440,note_on,30,0,1,,,,,,,,,0,,,73,0
58470,note_on,30,0,1,,,,,,,,,0,,,72,0
58470,note_on,0,0,1,,,,,,,,,0,,,73,40
58500,note_on,0,0,1,,,,,,,,,0,,,76,40
58500,note_on,30,0,1,,,,,,,,,0,,,73,0
58530,note_on,30,0,1,,,,,,,,,0,,,76,0
58530,note_on,0,0,1,,,,,,,,,0,,,77,40
58560,note_on,30,0,1,,,,,,,,,0,,,77,0
58560,note_on,0,0,1,,,,,,,,,0,,,79,40
58590,note_on,0,0,1,,,,,,,,,0,,,80,40
58590,note_on,30,0,1,,,,,,,,,0,,,79,0
58620,note_on,30,0,1,,,,,,,,,0,,,80,0
58620,note_on,0,0,1,,,,,,,,,0,,,82,40
58650,note_on,30,0,1,,,,,,,,,0,,,82,0
58650,note_on,0,0,1,,,,,,,,,0,,,84,40
58680,note_on,30,0,1,,,,,,,,,0,,,84,0
58680,note_on,0,0,1,,,,,,,,,0,,,85,40
58680,note_on,0,0,1,,,,,,,,,0,,,82,40
58680,note_on,0,0,1,,,,,,,,,0,,,79,40
58860,note_on,15660,0,3,,,,,,,,,0,,,64,40
58890,note_on,0,0,3,,,,,,,,,0,,,67,40
58890,note_on,30,0,3,,,,,,,,,0,,,64,0
58920,note_on,30,0,3,,,,,,,,,0,,,67,0
58920,note_on,0,0,3,,,,,,,,,0,,,64,40
58950,note_on,30,0,3,,,,,,,,,0,,,64,0
58950,note_on,0,0,3,,,,,,,,,0,,,67,40
58980,note_on,0,0,3,,,,,,,,,0,,,70,40
58980,note_on,30,0,3,,,,,,,,,0,,,67,0
59010,note_on,30,0,3,,,,,,,,,0,,,70,0
59040,note_on,30,0,3,,,,,,,,,0,,,64,40
59070,note_on,0,0,3,,,,,,,,,0,,,67,40
59070,note_on,30,0,3,,,,,,,,,0,,,64,0
59100,note_on,0,0,3,,,,,,,,,0,,,64,40
59100,note_on,30,0,3,,,,,,,,,0,,,67,0
59130,note_on,30,0,3,,,,,,,,,0,,,64,0
59130,note_on,0,0,3,,,,,,,,,0,,,67,40
59160,note_on,0,0,3,,,,,,,,,0,,,70,40
59160,note_on,30,0,3,,,,,,,,,0,,,67,0
59190,note_on,30,0,3,,,,,,,,,0,,,70,0
59220,set_tempo,1080,1,0,,,,,,1000000,,,,,,,
59220,note_on,0,0,1,,,,,,,,,0,,,85,0
59220,note_on,540,0,1,,,,,,,,,0,,,79,0
59220,note_on,0,0,1,,,,,,,,,0,,,82,0
59400,set_tempo,180,1,0,,,,,,476190,,,,,,,
59400,note_on,180,0,1,,,,,,,,,0,,,88,40
59430,note_on,0,0,1,,,,,,,,,0,,,91,40
59430,note_on,30,0,1,,,,,,,,,0,,,88,0
59460,note_on,0,0,1,,,,,,,,,0,,,94,40
59460,note_on,30,0,1,,,,,,,,,0,,,91,0
59490,note_on,30,0,1,,,,,,,,,0,,,94,0
59490,note_on,0,0,1,,,,,,,,,0,,,92,40
59520,note_on,0,0,1,,,,,,,,,0,,,91,40
59520,note_on,30,0,1,,,,,,,,,0,,,92,0
59550,note_on,0,0,1,,,,,,,,,0,,,89,40
59550,note_on,30,0,1,,,,,,,,,0,,,91,0
59580,note_on,30,0,1,,,,,,,,,0,,,89,0
59580,note_on,0,0,1,,,,,,,,,0,,,88,40
59610,note_on,30,0,1,,,,,,,,,0,,,88,0
59610,note_on,0,0,1,,,,,,,,,0,,,85,40
59640,note_on,30,0,1,,,,,,,,,0,,,85,0
59640,note_on,0,0,1,,,,,,,,,0,,,84,40
59670,note_on,30,0,1,,,,,,,,,0,,,84,0
59670,note_on,0,0,1,,,,,,,,,0,,,82,40
59700,note_on,30,0,1,,,,,,,,,0,,,82,0
59700,note_on,0,0,1,,,,,,,,,0,,,81,40
59730,note_on,30,0,1,,,,,,,,,0,,,81,0
59730,note_on,0,0,1,,,,,,,,,0,,,82,40
59760,note_on,0,0,1,,,,,,,,,0,,,84,40
59760,note_on,30,0,1,,,,,,,,,0,,,82,0
59790,note_on,30,0,1,,,,,,,,,0,,,84,0
59790,note_on,0,0,1,,,,,,,,,0,,,85,40
59820,note_on,30,0,1,,,,,,,,,0,,,85,0
59820,note_on,0,0,1,,,,,,,,,0,,,88,40
59850,note_on,30,0,1,,,,,,,,,0,,,88,0
59850,note_on,0,0,1,,,,,,,,,0,,,89,40
59880,note_on,30,0,1,,,,,,,,,0,,,89,0
59880,note_on,0,0,1,,,,,,,,,0,,,91,40
59910,note_on,0,0,1,,,,,,,,,0,,,92,40
59910,note_on,30,0,1,,,,,,,,,0,,,91,0
59940,note_on,30,0,1,,,,,,,,,0,,,92,0
59940,note_on,0,0,1,,,,,,,,,0,,,94,40
59940,note_on,0,0,1,,,,,,,,,0,,,91,40
59940,note_on,0,0,1,,,,,,,,,0,,,88,40
60120,note_on,930,0,3,,,,,,,,,0,,,72,40
60150,note_on,30,0,3,,,,,,,,,0,,,72,0
60150,note_on,0,0,3,,,,,,,,,0,,,79,40
60180,note_on,30,0,3,,,,,,,,,0,,,79,0
60180,note_on,0,0,3,,,,,,,,,0,,,72,40
60210,note_on,30,0,3,,,,,,,,,0,,,72,0
60210,note_on,0,0,3,,,,,,,,,0,,,79,40
60240,note_on,30,0,3,,,,,,,,,0,,,79,0
60240,note_on,0,0,3,,,,,,,,,0,,,82,40
60270,note_on,30,0,3,,,,,,,,,0,,,82,0
60300,note_on,30,0,3,,,,,,,,,0,,,72,40
60330,note_on,30,0,3,,,,,,,,,0,,,72,0
60330,note_on,0,0,3,,,,,,,,,0,,,79,40
60360,note_on,30,0,3,,,,,,,,,0,,,79,0
60360,note_on,0,0,3,,,,,,,,,0,,,72,40
60390,note_on,30,0,3,,,,,,,,,0,,,72,0
60390,note_on,0,0,3,,,,,,,,,0,,,79,40
60420,note_on,0,0,3,,,,,,,,,0,,,82,40
60420,note_on,30,0,3,,,,,,,,,0,,,79,0
60450,note_on,30,0,3,,,,,,,,,0,,,82,0
60480,note_on,0,0,1,,,,,,,,,0,,,91,0
60480,note_on,540,0,1,,,,,,,,,0,,,88,0
60480,note_on,0,0,1,,,,,,,,,0,,,94,0
60660,note_on,180,0,1,,,,,,,,,0,,,83,40
60660,note_on,0,0,1,,,,,,,,,0,,,80,40
60660,note_on,0,0,1,,,,,,,,,0,,,77,40
60840,note_on,390,0,3,,,,,,,,,0,,,60,40
60870,note_on,30,0,3,,,,,,,,,0,,,60,0
60870,note_on,0,0,3,,,,,,,,,0,,,68,40
60900,note_on,30,0,3,,,,,,,,,0,,,68,0
60900,note_on,0,0,3,,,,,,,,,0,,,60,40
60930,note_on,30,0,3,,,,,,,,,0,,,60,0
60930,note_on,0,0,3,,,,,,,,,0,,,68,40
60960,note_on,30,0,3,,,,,,,,,0,,,68,0
60960,note_on,0,0,3,,,,,,,,,0,,,71,40
60990,note_on,30,0,3,,,,,,,,,0,,,71,0
61020,note_on,30,0,3,,,,,,,,,0,,,60,40
61050,note_on,0,0,3,,,,,,,,,0,,,68,40
61050,note_on,30,0,3,,,,,,,,,0,,,60,0
61080,note_on,0,0,3,,,,,,,,,0,,,60,40
61080,note_on,30,0,3,,,,,,,,,0,,,68,0
61110,note_on,30,0,3,,,,,,,,,0,,,60,0
61110,note_on,0,0,3,,,,,,,,,0,,,68,40
61140,note_on,30,0,3,,,,,,,,,0,,,68,0
61140,note_on,0,0,3,,,,,,,,,0,,,71,40
61170,note_on,30,0,3,,,,,,,,,0,,,71,0
61170,end_of_track,0,1,3,,,,,,,,,,,,,
61200,note_on,0,0,1,,,,,,,,,0,,,83,0
61200,note_on,0,0,1,,,,,,,,,0,,,80,0
61200,note_on,540,0,1,,,,,,,,,0,,,77,0
61380,note_on,180,0,1,,,,,,,,,0,,,72,40
61380,note_on,0,0,1,,,,,,,,,0,,,64,40
61380,note_on,0,0,1,,,,,,,,,0,,,67,40
61560,note_on,3630,0,4,,,,,,,,,0,,,48,40
61590,note_on,30,0,4,,,,,,,,,0,,,48,0
61590,note_on,0,0,4,,,,,,,,,0,,,55,40
61620,note_on,0,0,4,,,,,,,,,0,,,48,40
61620,note_on,30,0,4,,,,,,,,,0,,,55,0
61650,note_on,30,0,4,,,,,,,,,0,,,48,0
61650,note_on,0,0,4,,,,,,,,,0,,,55,40
61680,note_on,0,0,4,,,,,,,,,0,,,60,40
61680,note_on,30,0,4,,,,,,,,,0,,,55,0
61710,note_on,30,0,4,,,,,,,,,0,,,60,0
61740,note_on,30,0,4,,,,,,,,,0,,,48,40
61770,note_on,30,0,4,,,,,,,,,0,,,48,0
61770,note_on,0,0,4,,,,,,,,,0,,,55,40
61800,note_on,0,0,4,,,,,,,,,0,,,48,40
61800,note_on,30,0,4,,,,,,,,,0,,,55,0
61830,note_on,0,0,4,,,,,,,,,0,,,55,40
61830,note_on,30,0,4,,,,,,,,,0,,,48,0
61860,note_on,30,0,4,,,,,,,,,0,,,55,0
61860,note_on,0,0,4,,,,,,,,,0,,,60,40
61860,set_tempo,2460,1,0,,,,,,2500000,,,,,,,
61920,note_on,0,0,1,,,,,,,,,0,,,72,40
61920,note_on,0,0,1,,,,,,,,,0,,,72,0
61920,note_on,0,0,1,,,,,,,,,0,,,67,0
61920,note_on,540,0,1,,,,,,,,,0,,,64,0
61920,marker,0,1,0,,,,,,,,,,,,,
61920,set_tempo,60,1,0,,,,,,476190,,,,,,,
61920,note_on,60,0,4,,,,,,,,,0,,,60,0
61950,note_on,30,0,1,,,,,,,,,0,,,72,0
61980,note_on,30,0,1,,,,,,,,,0,,,60,40
62010,note_on,30,0,1,,,,,,,,,0,,,60,0
62040,note_on,30,0,1,,,,,,,,,0,,,72,40
62070,note_on,30,0,1,,,,,,,,,0,,,72,0
62100,note_on,30,0,1,,,,,,,,,0,,,60,40
62130,note_on,30,0,1,,,,,,,,,0,,,60,0
62160,note_on,30,0,1,,,,,,,,,0,,,72,40
62190,note_on,30,0,1,,,,,,,,,0,,,72,0
62220,note_on,30,0,1,,,,,,,,,0,,,60,40
62250,note_on,30,0,1,,,,,,,,,0,,,60,0
62280,note_on,360,0,4,,,,,,,,,0,,,48,40
62310,note_on,30,0,4,,,,,,,,,0,,,48,0
62340,note_on,30,0,4,,,,,,,,,0,,,60,40
62370,note_on,30,0,4,,,,,,,,,0,,,60,0
62400,note_on,30,0,4,,,,,,,,,0,,,48,40
62430,note_on,30,0,4,,,,,,,,,0,,,48,0
62460,note_on,30,0,4,,,,,,,,,0,,,60,40
62490,note_on,30,0,4,,,,,,,,,0,,,60,0
62520,note_on,30,0,4,,,,,,,,,0,,,48,40
62550,note_on,30,0,4,,,,,,,,,0,,,48,0
62580,note_on,30,0,4,,,,,,,,,0,,,60,40
62610,note_on,30,0,4,,,,,,,,,0,,,60,0
62625,note_on,375,0,1,,,,,,,,,0,,,73,40
62640,note_on,0,0,4,,,,,,,,,0,,,48,40
62640,note_on,30,0,4,,,,,,,,,0,,,52,40
62640,note_on,0,0,1,,,,,,,,,0,,,72,60
62640,note_on,15,0,1,,,,,,,,,0,,,73,0
62670,note_on,30,0,1,,,,,,,,,0,,,72,0
62670,note_on,0,0,4,,,,,,,,,0,,,52,0
62670,note_on,30,0,4,,,,,,,,,0,,,48,0
62700,note_on,30,0,4,,,,,,,,,0,,,60,40
62700,note_on,30,0,1,,,,,,,,,0,,,72,40
62730,note_on,30,0,1,,,,,,,,,0,,,72,0
62730,note_on,0,0,1,,,,,,,,,0,,,73,40
62730,note_on,30,0,4,,,,,,,,,0,,,60,0
62760,note_on,30,0,1,,,,,,,,,0,,,73,0
62760,note_on,30,0,4,,,,,,,,,0,,,48,40
62760,note_on,0,0,1,,,,,,,,,0,,,72,40
62760,note_on,0,0,4,,,,,,,,,0,,,52,40
62790,note_on,0,0,4,,,,,,,,,0,,,48,0
62790,note_on,30,0,4,,,,,,,,,0,,,52,0
62790,note_on,30,0,1,,,,,,,,,0,,,72,0
62820,note_on,30,0,4,,,,,,,,,0,,,60,40
62820,note_on,30,0,1,,,,,,,,,0,,,72,40
62850,note_on,30,0,4,,,,,,,,,0,,,60,0
62850,note_on,30,0,1,,,,,,,,,0,,,72,0
62880,note_on,30,0,4,,,,,,,,,0,,,48,40
62880,note_on,0,0,4,,,,,,,,,0,,,52,40
62880,note_on,30,0,1,,,,,,,,,0,,,72,40
62910,note_on,30,0,4,,,,,,,,,0,,,52,0
62910,note_on,0,0,4,,,,,,,,,0,,,48,0
62910,note_on,30,0,1,,,,,,,,,0,,,72,0
62940,note_on,30,0,1,,,,,,,,,0,,,72,40
62940,note_on,30,0,4,,,,,,,,,0,,,60,40
62970,note_on,30,0,1,,,,,,,,,0,,,72,0
62970,note_on,30,0,4,,,,,,,,,0,,,60,0
62985,note_on,15,0,1,,,,,,,,,0,,,73,40
63000,note_on,15,0,1,,,,,,,,,0,,,73,0
63000,note_on,0,0,1,,,,,,,,,0,,,72,60
63000,note_on,30,0,4,,,,,,,,,0,,,53,40
63000,note_on,0,0,4,,,,,,,,,0,,,49,40
63030,note_on,0,0,4,,,,,,,,,0,,,53,0
63030,note_on,30,0,4,,,,,,,,,0,,,49,0
63030,note_on,30,0,1,,,,,,,,,0,,,72,0
63060,note_on,30,0,4,,,,,,,,,0,,,60,40
63060,note_on,30,0,1,,,,,,,,,0,,,72,40
63090,note_on,30,0,1,,,,,,,,,0,,,72,0
63090,note_on,30,0,4,,,,,,,,,0,,,60,0
63090,note_on,0,0,1,,,,,,,,,0,,,73,40
63120,note_on,0,0,4,,,,,,,,,0,,,53,40
63120,note_on,30,0,4,,,,,,,,,0,,,49,40
63120,note_on,30,0,1,,,,,,,,,0,,,73,0
63120,note_on,0,0,1,,,,,,,,,0,,,72,40
63150,note_on,0,0,4,,,,,,,,,0,,,49,0
63150,note_on,30,0,1,,,,,,,,,0,,,72,0
63150,note_on,30,0,4,,,,,,,,,0,,,53,0
63180,note_on,30,0,4,,,,,,,,,0,,,60,40
63180,note_on,30,0,1,,,,,,,,,0,,,72,40
63210,note_on,30,0,4,,,,,,,,,0,,,60,0
63210,note_on,30,0,1,,,,,,,,,0,,,72,0
63240,note_on,30,0,1,,,,,,,,,0,,,72,40
63240,note_on,30,0,4,,,,,,,,,0,,,49,40
63240,note_on,0,0,4,,,,,,,,,0,,,53,40
63270,note_on,30,0,4,,,,,,,,,0,,,53,0
63270,note_on,0,0,4,,,,,,,,,0,,,49,0
63270,note_on,30,0,1,,,,,,,,,0,,,72,0
63300,note_on,30,0,1,,,,,,,,,0,,,72,40
63300,note_on,30,0,4,,,,,,,,,0,,,60,40
63330,note_on,30,0,1,,,,,,,,,0,,,72,0
63330,note_on,30,0,4,,,,,,,,,0,,,60,0
63345,note_on,15,0,1,,,,,,,,,0,,,73,40
63360,note_on,0,0,1,,,,,,,,,0,,,72,60
63360,note_on,15,0,1,,,,,,,,,0,,,73,0
63360,note_on,30,0,4,,,,,,,,,0,,,55,40
63360,note_on,0,0,4,,,,,,,,,0,,,52,40
63390,note_on,30,0,4,,,,,,,,,0,,,52,0
63390,note_on,0,0,4,,,,,,,,,0,,,55,0
63390,note_on,30,0,1,,,,,,,,,0,,,72,0
63420,note_on,30,0,4,,,,,,,,,0,,,60,42
63420,note_on,30,0,1,,,,,,,,,0,,,72,42
63450,note_on,30,0,1,,,,,,,,,0,,,72,0
63450,note_on,30,0,4,,,,,,,,,0,,,60,0
63450,note_on,0,0,1,,,,,,,,,0,,,73,42
63480,note_on,30,0,4,,,,,,,,,0,,,52,43
63480,note_on,0,0,4,,,,,,,,,0,,,55,43
63480,note_on,0,0,1,,,,,,,,,0,,,72,43
63480,note_on,30,0,1,,,,,,,,,0,,,73,0
63510,note_on,30,0,1,,,,,,,,,0,,,72,0
63510,note_on,30,0,4,,,,,,,,,0,,,55,0
63510,note_on,0,0,4,,,,,,,,,0,,,52,0
63525,note_on,15,0,1,,,,,,,,,0,,,73,45
63540,note_on,15,0,1,,,,,,,,,0,,,73,0
63540,note_on,0,0,1,,,,,,,,,0,,,72,65
63540,note_on,0,0,4,,,,,,,,,0,,,53,45
63540,note_on,30,0,4,,,,,,,,,0,,,56,45
63570,note_on,0,0,4,,,,,,,,,0,,,56,0
63570,note_on,30,0,4,,,,,,,,,0,,,53,0
63570,note_on,30,0,1,,,,,,,,,0,,,72,0
63600,note_on,30,0,1,,,,,,,,,0,,,72,47
63600,note_on,30,0,4,,,,,,,,,0,,,60,47
63630,note_on,0,0,1,,,,,,,,,0,,,73,48
63630,note_on,30,0,1,,,,,,,,,0,,,72,0
63630,note_on,30,0,4,,,,,,,,,0,,,60,0
63660,note_on,0,0,1,,,,,,,,,0,,,72,48
63660,note_on,30,0,1,,,,,,,,,0,,,73,0
63660,note_on,0,0,4,,,,,,,,,0,,,56,48
63660,note_on,30,0,4,,,,,,,,,0,,,53,48
63690,note_on,0,0,4,,,,,,,,,0,,,53,0
63690,note_on,30,0,1,,,,,,,,,0,,,72,0
63690,note_on,30,0,4,,,,,,,,,0,,,56,0
63720,note_on,0,0,4,,,,,,,,,0,,,55,50
63720,note_on,30,0,4,,,,,,,,,0,,,58,50
63720,note_on,30,0,1,,,,,,,,,0,,,72,50
63780,note_on,0,0,1,,,,,,,,,0,,,72,52
63780,note_on,0,0,4,,,,,,,,,0,,,55,52
63780,note_on,0,0,4,,,,,,,,,0,,,58,0
63780,note_on,60,0,4,,,,,,,,,0,,,55,0
63780,note_on,0,0,4,,,,,,,,,0,,,58,52
63780,note_on,0,0,4,,,,,,,,,0,,,60,52
63780,note_on,60,0,1,,,,,,,,,0,,,72,0
63840,note_on,60,0,1,,,,,,,,,0,,,72,0
63840,note_on,0,0,4,,,,,,,,,0,,,61,54
63840,note_on,0,0,4,,,,,,,,,0,,,55,54
63840,note_on,0,0,4,,,,,,,,,0,,,58,0
63840,note_on,60,0,4,,,,,,,,,0,,,55,0
63840,note_on,0,0,4,,,,,,,,,0,,,60,0
63840,note_on,0,0,1,,,,,,,,,0,,,72,54
63840,note_on,0,0,4,,,,,,,,,0,,,58,54
63900,note_on,0,0,1,,,,,,,,,0,,,72,55
63900,note_on,60,0,4,,,,,,,,,0,,,55,0
63900,note_on,0,0,4,,,,,,,,,0,,,58,0
63900,note_on,0,0,4,,,,,,,,,0,,,61,0
63900,note_on,0,0,4,,,,,,,,,0,,,62,55
63900,note_on,0,0,4,,,,,,,,,0,,,58,55
63900,note_on,60,0,1,,,,,,,,,0,,,72,0
63900,note_on,0,0,4,,,,,,,,,0,,,55,55
63960,note_on,0,0,4,,,,,,,,,0,,,58,57
63960,note_on,60,0,4,,,,,,,,,0,,,55,0
63960,note_on,0,0,1,,,,,,,,,0,,,72,57
63960,note_on,60,0,1,,,,,,,,,0,,,72,0
63960,note_on,0,0,4,,,,,,,,,0,,,58,0
63960,note_on,0,0,4,,,,,,,,,0,,,62,0
63960,note_on,0,0,4,,,,,,,,,0,,,63,57
63960,note_on,0,0,4,,,,,,,,,0,,,55,57
64020,note_on,0,0,1,,,,,,,,,0,,,72,59
64020,note_on,60,0,1,,,,,,,,,0,,,72,0
64020,note_on,0,0,4,,,,,,,,,0,,,58,59
64020,note_on,0,0,4,,,,,,,,,0,,,64,59
64020,note_on,0,0,4,,,,,,,,,0,,,58,0
64020,note_on,60,0,4,,,,,,,,,0,,,55,0
64020,note_on,0,0,4,,,,,,,,,0,,,55,59
64020,note_on,0,0,4,,,,,,,,,0,,,63,0
64065,note_on,45,0,1,,,,,,,,,0,,,73,60
64080,note_on,0,0,4,,,,,,,,,0,,,58,0
64080,note_on,15,0,1,,,,,,,,,0,,,73,0
64080,note_on,0,0,4,,,,,,,,,0,,,53,60
64080,note_on,0,0,1,,,,,,,,,0,,,72,60
64080,note_on,0,0,1,,,,,,,,,0,,,72,0
64080,note_on,0,0,4,,,,,,,,,0,,,64,0
64080,note_on,60,0,4,,,,,,,,,0,,,55,0
64110,note_on,30,0,4,,,,,,,,,0,,,53,0
64110,note_on,30,0,1,,,,,,,,,0,,,72,0
64140,note_on,30,0,1,,,,,,,,,0,,,72,60
64140,note_on,0,0,4,,,,,,,,,0,,,56,60
64140,note_on,0,0,4,,,,,,,,,0,,,60,60
64140,note_on,30,0,4,,,,,,,,,0,,,65,60
64170,note_on,30,0,1,,,,,,,,,0,,,72,0
64170,note_on,0,0,1,,,,,,,,,0,,,73,60
64170,note_on,0,0,4,,,,,,,,,0,,,65,0
64170,note_on,0,0,4,,,,,,,,,0,,,60,0
64170,note_on,30,0,4,,,,,,,,,0,,,56,0
64200,note_on,30,0,1,,,,,,,,,0,,,73,0
64200,note_on,0,0,1,,,,,,,,,0,,,72,60
64200,note_on,30,0,4,,,,,,,,,0,,,53,60
64230,note_on,30,0,4,,,,,,,,,0,,,53,0
64230,note_on,30,0,1,,,,,,,,,0,,,72,0
64245,note_on,15,0,1,,,,,,,,,0,,,73,60
64260,note_on,30,0,4,,,,,,,,,0,,,65,60
64260,note_on,0,0,1,,,,,,,,,0,,,72,60
64260,note_on,0,0,4,,,,,,,,,0,,,56,60
64260,note_on,0,0,4,,,,,,,,,0,,,60,60
64260,note_on,15,0,1,,,,,,,,,0,,,73,0
64290,note_on,0,0,4,,,,,,,,,0,,,65,0
64290,note_on,0,0,4,,,,,,,,,0,,,60,0
64290,note_on,30,0,4,,,,,,,,,0,,,56,0
64290,note_on,30,0,1,,,,,,,,,0,,,72,0
64320,note_on,30,0,1,,,,,,,,,0,,,72,60
64320,note_on,30,0,4,,,,,,,,,0,,,53,60
64350,note_on,0,0,1,,,,,,,,,0,,,73,60
64350,note_on,30,0,1,,,,,,,,,0,,,72,0
64350,note_on,30,0,4,,,,,,,,,0,,,53,0
64380,note_on,0,0,4,,,,,,,,,0,,,56,60
64380,note_on,0,0,4,,,,,,,,,0,,,60,60
64380,note_on,30,0,4,,,,,,,,,0,,,65,60
64380,note_on,30,0,1,,,,,,,,,0,,,73,0
64380,note_on,0,0,1,,,,,,,,,0,,,72,60
64410,note_on,30,0,1,,,,,,,,,0,,,72,0
64410,note_on,0,0,4,,,,,,,,,0,,,65,0
64410,note_on,0,0,4,,,,,,,,,0,,,60,0
64410,note_on,30,0,4,,,,,,,,,0,,,56,0
64440,note_on,30,0,4,,,,,,,,,0,,,53,60
64440,note_on,30,0,1,,,,,,,,,0,,,72,60
64470,note_on,30,0,4,,,,,,,,,0,,,53,0
64470,note_on,30,0,1,,,,,,,,,0,,,72,0
64470,note_on,0,0,1,,,,,,,,,0,,,71,60
64500,note_on,30,0,4,,,,,,,,,0,,,62,60
64500,note_on,0,0,4,,,,,,,,,0,,,56,60
64500,note_on,0,0,4,,,,,,,,,0,,,59,60
64500,note_on,0,0,1,,,,,,,,,0,,,71,60
64500,note_on,30,0,1,,,,,,,,,0,,,71,0
64530,note_on,30,0,4,,,,,,,,,0,,,56,0
64530,note_on,0,0,4,,,,,,,,,0,,,59,0
64530,note_on,0,0,4,,,,,,,,,0,,,62,0
64530,note_on,30,0,1,,,,,,,,,0,,,71,0
64530,note_on,0,0,1,,,,,,,,,0,,,74,60
64560,note_on,30,0,1,,,,,,,,,0,,,74,0
64560,note_on,0,0,1,,,,,,,,,0,,,72,60
64560,note_on,30,0,4,,,,,,,,,0,,,53,60
64590,note_on,30,0,1,,,,,,,,,0,,,72,0
64590,note_on,0,0,1,,,,,,,,,0,,,70,60
64590,note_on,30,0,4,,,,,,,,,0,,,53,0
64620,note_on,30,0,1,,,,,,,,,0,,,70,0
64620,note_on,0,0,1,,,,,,,,,0,,,72,60
64620,note_on,30,0,4,,,,,,,,,0,,,48,60
64650,note_on,30,0,1,,,,,,,,,0,,,72,0
64650,note_on,30,0,4,,,,,,,,,0,,,48,0
64680,note_on,30,0,1,,,,,,,,,0,,,67,80
64680,note_on,30,0,4,,,,,,,,,0,,,60,60
64680,note_on,0,0,4,,,,,,,,,0,,,55,60
64680,note_on,0,0,4,,,,,,,,,0,,,52,60
64710,note_on,30,0,4,,,,,,,,,0,,,52,0
64710,note_on,0,0,4,,,,,,,,,0,,,60,0
64710,note_on,0,0,4,,,,,,,,,0,,,55,0
64740,note_on,30,0,4,,,,,,,,,0,,,48,60
64770,note_on,30,0,4,,,,,,,,,0,,,48,0
64800,note_on,0,0,4,,,,,,,,,0,,,55,60
64800,note_on,0,0,1,,,,,,,,,0,,,72,60
64800,note_on,0,0,4,,,,,,,,,0,,,52,60
64800,note_on,30,0,4,,,,,,,,,0,,,60,60
64800,note_on,120,0,1,,,,,,,,,0,,,67,0
64830,note_on,30,0,1,,,,,,,,,0,,,72,0
64830,note_on,30,0,4,,,,,,,,,0,,,52,0
64830,note_on,0,0,4,,,,,,,,,0,,,55,0
64830,note_on,0,0,4,,,,,,,,,0,,,60,0
64860,note_on,30,0,4,,,,,,,,,0,,,48,60
64860,note_on,30,0,1,,,,,,,,,0,,,67,60
64890,note_on,30,0,4,,,,,,,,,0,,,48,0
64890,note_on,30,0,1,,,,,,,,,0,,,67,0
64920,note_on,0,0,4,,,,,,,,,0,,,55,60
64920,note_on,0,0,4,,,,,,,,,0,,,52,60
64920,note_on,30,0,1,,,,,,,,,0,,,72,60
64920,note_on,30,0,4,,,,,,,,,0,,,60,60
64950,note_on,30,0,4,,,,,,,,,0,,,52,0
64950,note_on,30,0,1,,,,,,,,,0,,,72,0
64950,note_on,0,0,4,,,,,,,,,0,,,60,0
64950,note_on,0,0,4,,,,,,,,,0,,,55,0
64980,note_on,30,0,1,,,,,,,,,0,,,70,80
64980,note_on,30,0,4,,,,,,,,,0,,,49,60
65010,note_on,30,0,4,,,,,,,,,0,,,49,0
65040,note_on,0,0,1,,,,,,,,,0,,,68,60
65040,note_on,30,0,4,,,,,,,,,0,,,61,60
65040,note_on,0,0,4,,,,,,,,,0,,,53,60
65040,note_on,60,0,1,,,,,,,,,0,,,70,0
65070,note_on,30,0,1,,,,,,,,,0,,,68,0
65070,note_on,0,0,1,,,,,,,,,0,,,67,60
65070,note_on,30,0,4,,,,,,,,,0,,,53,0
65070,note_on,0,0,4,,,,,,,,,0,,,61,0
65100,note_on,30,0,4,,,,,,,,,0,,,49,60
65100,note_on,0,0,1,,,,,,,,,0,,,65,60
65100,note_on,30,0,1,,,,,,,,,0,,,67,0
65130,note_on,30,0,1,,,,,,,,,0,,,65,0
65130,note_on,30,0,4,,,,,,,,,0,,,49,0
65160,note_on,30,0,4,,,,,,,,,0,,,46,60
65160,note_on,30,0,1,,,,,,,,,0,,,67,60
65190,note_on,30,0,1,,,,,,,,,0,,,67,0
65190,note_on,0,0,1,,,,,,,,,0,,,70,60
65220,note_on,0,0,4,,,,,,,,,0,,,58,60
65220,note_on,0,0,4,,,,,,,,,0,,,55,60
65220,note_on,60,0,4,,,,,,,,,0,,,46,0
65220,note_on,30,0,1,,,,,,,,,0,,,70,0
65220,note_on,0,0,1,,,,,,,,,0,,,67,60
65250,note_on,30,0,1,,,,,,,,,0,,,67,0
65250,note_on,0,0,1,,,,,,,,,0,,,70,60
65250,note_on,30,0,4,,,,,,,,,0,,,55,0
65250,note_on,0,0,4,,,,,,,,,0,,,58,0
65280,note_on,30,0,4,,,,,,,,,0,,,58,60
65280,note_on,0,0,1,,,,,,,,,0,,,64,60
65280,note_on,30,0,1,,,,,,,,,0,,,70,0
65280,note_on,0,0,4,,,,,,,,,0,,,55,60
65280,note_on,0,0,4,,,,,,,,,0,,,48,60
65310,note_on,0,0,1,,,,,,,,,0,,,67,60
65310,note_on,30,0,1,,,,,,,,,0,,,64,0
65310,note_on,0,0,4,,,,,,,,,0,,,55,0
65310,note_on,0,0,4,,,,,,,,,0,,,58,0
65310,note_on,30,0,4,,,,,,,,,0,,,48,0
65340,note_on,30,0,1,,,,,,,,,0,,,67,0
65340,note_on,0,0,1,,,,,,,,,0,,,65,60
65340,note_on,0,0,4,,,,,,,,,0,,,53,60
65340,note_on,30,0,4,,,,,,,,,0,,,56,60
65370,note_on,30,0,1,,,,,,,,,0,,,65,0
65370,note_on,0,0,1,,,,,,,,,0,,,68,60
65400,note_on,30,0,1,,,,,,,,,0,,,68,0
65400,note_on,0,0,1,,,,,,,,,0,,,72,60
65430,note_on,0,0,1,,,,,,,,,0,,,77,60
65430,note_on,30,0,1,,,,,,,,,0,,,72,0
65460,note_on,120,0,4,,,,,,,,,0,,,53,0
65460,note_on,0,0,1,,,,,,,,,0,,,80,60
65460,note_on,0,0,4,,,,,,,,,0,,,56,0
65460,note_on,30,0,1,,,,,,,,,0,,,77,0
65490,note_on,0,0,1,,,,,,,,,0,,,82,60
65490,note_on,30,0,1,,,,,,,,,0,,,80,0
65520,note_on,60,0,4,,,,,,,,,0,,,53,60
65520,note_on,30,0,1,,,,,,,,,0,,,82,0
65520,note_on,0,0,1,,,,,,,,,0,,,84,60
65550,note_on,30,0,4,,,,,,,,,0,,,53,0
65550,note_on,30,0,1,,,,,,,,,0,,,84,0
65580,note_on,30,0,1,,,,,,,,,0,,,84,60
65580,note_on,30,0,4,,,,,,,,,0,,,65,60
65580,note_on,0,0,4,,,,,,,,,0,,,60,60
65580,note_on,0,0,4,,,,,,,,,0,,,56,60
65610,note_on,30,0,1,,,,,,,,,0,,,84,0
65610,note_on,0,0,1,,,,,,,,,0,,,85,60
65610,note_on,0,0,4,,,,,,,,,0,,,65,0
65610,note_on,0,0,4,,,,,,,,,0,,,60,0
65610,note_on,30,0,4,,,,,,,,,0,,,56,0
65640,note_on,30,0,1,,,,,,,,,0,,,85,0
65640,note_on,0,0,1,,,,,,,,,0,,,84,60
65640,note_on,30,0,4,,,,,,,,,0,,,53,60
65670,note_on,30,0,1,,,,,,,,,0,,,84,0
65670,note_on,30,0,4,,,,,,,,,0,,,53,0
65685,note_on,15,0,1,,,,,,,,,0,,,85,60
65700,note_on,0,0,4,,,,,,,,,0,,,56,60
65700,note_on,30,0,4,,,,,,,,,0,,,65,60
65700,note_on,0,0,4,,,,,,,,,0,,,60,60
65700,note_on,0,0,1,,,,,,,,,0,,,84,60
65700,note_on,15,0,1,,,,,,,,,0,,,85,0
65730,note_on,0,0,4,,,,,,,,,0,,,65,0
65730,note_on,30,0,1,,,,,,,,,0,,,84,0
65730,note_on,30,0,4,,,,,,,,,0,,,56,0
65730,note_on,0,0,4,,,,,,,,,0,,,60,0
65760,note_on,30,0,1,,,,,,,,,0,,,84,60
65760,note_on,30,0,4,,,,,,,,,0,,,53,60
65790,note_on,30,0,1,,,,,,,,,0,,,84,0
65790,note_on,0,0,1,,,,,,,,,0,,,85,60
65790,note_on,30,0,4,,,,,,,,,0,,,53,0
65820,note_on,30,0,1,,,,,,,,,0,,,85,0
65820,note_on,0,0,4,,,,,,,,,0,,,60,60
65820,note_on,0,0,4,,,,,,,,,0,,,56,60
65820,note_on,0,0,1,,,,,,,,,0,,,84,60
65820,note_on,30,0,4,,,,,,,,,0,,,65,60
65850,note_on,30,0,4,,,,,,,,,0,,,56,0
65850,note_on,0,0,4,,,,,,,,,0,,,65,0
65850,note_on,30,0,1,,,,,,,,,0,,,84,0
65850,note_on,0,0,4,,,,,,,,,0,,,60,0
65880,note_on,30,0,4,,,,,,,,,0,,,53,60
65880,note_on,30,0,1,,,,,,,,,0,,,84,60
65910,note_on,30,0,4,,,,,,,,,0,,,53,0
65910,note_on,30,0,1,,,,,,,,,0,,,84,0
65910,note_on,0,0,1,,,,,,,,,0,,,83,60
65940,note_on,0,0,4,,,,,,,,,0,,,59,60
65940,note_on,0,0,4,,,,,,,,,0,,,56,60
65940,note_on,30,0,1,,,,,,,,,0,,,83,0
65940,note_on,0,0,1,,,,,,,,,0,,,89,60
65940,note_on,30,0,4,,,,,,,,,0,,,62,60
65970,note_on,30,0,4,,,,,,,,,0,,,56,0
65970,note_on,0,0,4,,,,,,,,,0,,,59,0
65970,note_on,0,0,4,,,,,,,,,0,,,62,0
65970,note_on,30,0,1,,,,,,,,,0,,,89,0
65970,note_on,0,0,1,,,,,,,,,0,,,83,60
66000,note_on,30,0,4,,,,,,,,,0,,,53,60
66000,note_on,0,0,1,,,,,,,,,0,,,89,60
66000,note_on,30,0,1,,,,,,,,,0,,,83,0
66030,note_on,0,0,1,,,,,,,,,0,,,83,60
66030,note_on,30,0,1,,,,,,,,,0,,,89,0
66030,note_on,30,0,4,,,,,,,,,0,,,53,0
66060,note_on,30,0,4,,,,,,,,,0,,,48,60
66060,note_on,0,0,1,,,,,,,,,0,,,84,60
66060,note_on,30,0,1,,,,,,,,,0,,,83,0
66090,note_on,30,0,1,,,,,,,,,0,,,84,0
66090,note_on,30,0,4,,,,,,,,,0,,,48,0
66120,note_on,30,0,4,,,,,,,,,0,,,60,60
66120,note_on,30,0,1,,,,,,,,,0,,,79,80
66120,note_on,0,0,4,,,,,,,,,0,,,55,60
66120,note_on,0,0,4,,,,,,,,,0,,,52,60
66150,note_on,30,0,4,,,,,,,,,0,,,52,0
66150,note_on,0,0,4,,,,,,,,,0,,,55,0
66150,note_on,0,0,4,,,,,,,,,0,,,60,0
66180,note_on,30,0,4,,,,,,,,,0,,,48,60
66210,note_on,30,0,4,,,,,,,,,0,,,48,0
66240,note_on,0,0,4,,,,,,,,,0,,,52,60
66240,note_on,30,0,4,,,,,,,,,0,,,60,60
66240,note_on,0,0,4,,,,,,,,,0,,,55,60
66240,note_on,0,0,1,,,,,,,,,0,,,84,60
66240,note_on,120,0,1,,,,,,,,,0,,,79,0
66270,note_on,0,0,4,,,,,,,,,0,,,60,0
66270,note_on,0,0,4,,,,,,,,,0,,,55,0
66270,note_on,30,0,4,,,,,,,,,0,,,52,0
66270,note_on,30,0,1,,,,,,,,,0,,,84,0
66300,note_on,30,0,1,,,,,,,,,0,,,79,60
66300,note_on,30,0,4,,,,,,,,,0,,,48,60
66330,note_on,30,0,4,,,,,,,,,0,,,48,0
66330,note_on,30,0,1,,,,,,,,,0,,,79,0
66360,note_on,30,0,4,,,,,,,,,0,,,60,60
66360,note_on,0,0,4,,,,,,,,,0,,,52,60
66360,note_on,30,0,1,,,,,,,,,0,,,84,60
66360,note_on,0,0,4,,,,,,,,,0,,,55,60
66390,note_on,30,0,1,,,,,,,,,0,,,84,0
66390,note_on,0,0,4,,,,,,,,,0,,,60,0
66390,note_on,0,0,4,,,,,,,,,0,,,55,0
66390,note_on,30,0,4,,,,,,,,,0,,,52,0
66420,note_on,30,0,4,,,,,,,,,0,,,49,60
66420,note_on,30,0,1,,,,,,,,,0,,,82,80
66450,note_on,30,0,4,,,,,,,,,0,,,49,0
66480,note_on,0,0,4,,,,,,,,,0,,,53,60
66480,note_on,30,0,4,,,,,,,,,0,,,61,60
66480,note_on,60,0,1,,,,,,,,,0,,,82,0
66480,note_on,0,0,1,,,,,,,,,0,,,80,60
66510,note_on,30,0,1,,,,,,,,,0,,,80,0
66510,note_on,0,0,1,,,,,,,,,0,,,79,60
66510,note_on,0,0,4,,,,,,,,,0,,,61,0
66510,note_on,30,0,4,,,,,,,,,0,,,53,0
66540,note_on,0,0,1,,,,,,,,,0,,,77,60
66540,note_on,30,0,4,,,,,,,,,0,,,49,60
66540,note_on,30,0,1,,,,,,,,,0,,,79,0
66570,note_on,30,0,4,,,,,,,,,0,,,49,0
66570,note_on,30,0,1,,,,,,,,,0,,,77,0
66600,note_on,30,0,4,,,,,,,,,0,,,46,60
66600,note_on,30,0,1,,,,,,,,,0,,,79,60
66630,note_on,0,0,1,,,,,,,,,0,,,82,60
66630,note_on,30,0,1,,,,,,,,,0,,,79,0
66660,note_on,30,0,1,,,,,,,,,0,,,82,0
66660,note_on,0,0,1,,,,,,,,,0,,,79,60
66660,note_on,60,0,4,,,,,,,,,0,,,46,0
66660,note_on,0,0,4,,,,,,,,,0,,,58,60
66660,note_on,0,0,4,,,,,,,,,0,,,55,60
66690,note_on,0,0,4,,,,,,,,,0,,,58,0
66690,note_on,30,0,1,,,,,,,,,0,,,79,0
66690,note_on,0,0,1,,,,,,,,,0,,,82,60
66690,note_on,30,0,4,,,,,,,,,0,,,55,0
66720,note_on,0,0,1,,,,,,,,,0,,,76,60
66720,note_on,30,0,4,,,,,,,,,0,,,48,60
66720,note_on,0,0,4,,,,,,,,,0,,,55,60
66720,note_on,0,0,4,,,,,,,,,0,,,58,60
66720,note_on,30,0,1,,,,,,,,,0,,,82,0
66750,note_on,30,0,4,,,,,,,,,0,,,58,0
66750,note_on,0,0,4,,,,,,,,,0,,,55,0
66750,note_on,0,0,4,,,,,,,,,0,,,48,0
66750,note_on,30,0,1,,,,,,,,,0,,,76,0
66750,note_on,0,0,1,,,,,,,,,0,,,79,60
66780,note_on,30,0,4,,,,,,,,,0,,,56,60
66780,note_on,30,0,1,,,,,,,,,0,,,79,0
66780,note_on,0,0,4,,,,,,,,,0,,,53,60
66780,note_on,0,0,1,,,,,,,,,0,,,77,60
66810,note_on,30,0,4,,,,,,,,,0,,,53,0
66810,note_on,30,0,1,,,,,,,,,0,,,77,0
66810,note_on,0,0,4,,,,,,,,,0,,,56,0
66840,note_on,30,0,1,,,,,,,,,0,,,65,100
66870,note_on,30,0,1,,,,,,,,,0,,,65,0
66870,note_on,0,0,1,,,,,,,,,0,,,67,100
66900,note_on,30,0,1,,,,,,,,,0,,,67,0
66900,note_on,0,0,1,,,,,,,,,0,,,68,100
66930,note_on,30,0,1,,,,,,,,,0,,,68,0
66930,note_on,0,0,1,,,,,,,,,0,,,70,100
66960,note_on,30,0,1,,,,,,,,,0,,,70,0
66960,note_on,0,0,1,,,,,,,,,0,,,72,120
66960,note_on,150,0,4,,,,,,,,,0,,,36,120
66990,note_on,30,0,1,,,,,,,,,0,,,72,0
66990,note_on,30,0,4,,,,,,,,,0,,,36,0
67020,note_on,30,0,1,,,,,,,,,0,,,60,100
67020,note_on,30,0,4,,,,,,,,,0,,,48,100
67050,note_on,30,0,4,,,,,,,,,0,,,48,0
67050,note_on,30,0,1,,,,,,,,,0,,,60,0
67080,note_on,30,0,1,,,,,,,,,0,,,72,120
67080,note_on,30,0,4,,,,,,,,,0,,,36,120
67110,note_on,30,0,1,,,,,,,,,0,,,72,0
67110,note_on,30,0,4,,,,,,,,,0,,,36,0
67140,note_on,30,0,1,,,,,,,,,0,,,60,100
67140,note_on,30,0,4,,,,,,,,,0,,,48,100
67170,note_on,30,0,4,,,,,,,,,0,,,48,0
67170,note_on,30,0,1,,,,,,,,,0,,,60,0
67200,note_on,30,0,1,,,,,,,,,0,,,72,120
67200,note_on,30,0,4,,,,,,,,,0,,,36,120
67230,note_on,30,0,1,,,,,,,,,0,,,72,0
67230,note_on,30,0,4,,,,,,,,,0,,,36,0
67260,note_on,30,0,4,,,,,,,,,0,,,48,100
67260,note_on,30,0,1,,,,,,,,,0,,,60,100
67290,note_on,30,0,4,,,,,,,,,0,,,48,0
67290,note_on,30,0,1,,,,,,,,,0,,,60,0
67320,note_on,30,0,1,,,,,,,,,0,,,70,60
67320,note_on,0,0,1,,,,,,,,,0,,,67,60
67320,note_on,30,0,4,,,,,,,,,0,,,36,60
67350,note_on,30,0,1,,,,,,,,,0,,,67,0
67350,note_on,30,0,4,,,,,,,,,0,,,36,0
67350,note_on,0,0,1,,,,,,,,,0,,,70,0
67380,note_on,0,0,1,,,,,,,,,0,,,65,60
67380,note_on,30,0,4,,,,,,,,,0,,,48,60
67380,note_on,30,0,1,,,,,,,,,0,,,68,60
67410,note_on,30,0,4,,,,,,,,,0,,,48,0
67410,note_on,0,0,1,,,,,,,,,0,,,67,60
67410,note_on,0,0,1,,,,,,,,,0,,,64,60
67410,note_on,0,0,1,,,,,,,,,0,,,68,0
67410,note_on,30,0,1,,,,,,,,,0,,,65,0
67440,note_on,0,0,1,,,,,,,,,0,,,65,60
67440,note_on,0,0,1,,,,,,,,,0,,,68,60
67440,note_on,0,0,1,,,,,,,,,0,,,67,0
67440,note_on,30,0,1,,,,,,,,,0,,,64,0
67440,note_on,30,0,4,,,,,,,,,0,,,36,60
67470,note_on,0,0,1,,,,,,,,,0,,,70,60
67470,note_on,0,0,1,,,,,,,,,0,,,68,0
67470,note_on,30,0,1,,,,,,,,,0,,,65,0
67470,note_on,30,0,4,,,,,,,,,0,,,36,0
67470,note_on,0,0,1,,,,,,,,,0,,,67,60
67500,note_on,30,0,4,,,,,,,,,0,,,48,60
67500,note_on,0,0,1,,,,,,,,,0,,,67,60
67500,note_on,0,0,1,,,,,,,,,0,,,70,0
67500,note_on,0,0,1,,,,,,,,,0,,,64,60
67500,note_on,30,0,1,,,,,,,,,0,,,67,0
67530,note_on,30,0,4,,,,,,,,,0,,,48,0
67560,note_on,30,0,4,,,,,,,,,0,,,36,60
67590,note_on,30,0,4,,,,,,,,,0,,,36,0
67620,note_on,30,0,4,,,,,,,,,0,,,48,60
67650,note_on,30,0,4,,,,,,,,,0,,,48,0
67680,note_on,180,0,1,,,,,,,,,0,,,64,0
67680,note_on,30,0,4,,,,,,,,,0,,,36,100
67680,note_on,0,0,1,,,,,,,,,0,,,67,0
67680,note_on,0,0,1,,,,,,,,,0,,,72,100
67710,note_on,30,0,4,,,,,,,,,0,,,36,0
67710,note_on,30,0,1,,,,,,,,,0,,,72,0
67740,note_on,30,0,4,,,,,,,,,0,,,48,100
67740,note_on,30,0,1,,,,,,,,,0,,,60,100
67770,note_on,30,0,4,,,,,,,,,0,,,48,0
67770,note_on,30,0,1,,,,,,,,,0,,,60,0
67800,note_on,30,0,4,,,,,,,,,0,,,36,100
67800,note_on,30,0,1,,,,,,,,,0,,,72,100
67860,note_on,60,0,1,,,,,,,,,0,,,72,0
67860,note_on,0,0,1,,,,,,,,,0,,,73,120
67860,note_on,0,0,4,,,,,,,,,0,,,37,120
67860,note_on,60,0,4,,,,,,,,,0,,,36,0
67890,note_on,30,0,1,,,,,,,,,0,,,73,0
67890,note_on,30,0,4,,,,,,,,,0,,,37,0
67920,note_on,30,0,4,,,,,,,,,0,,,49,100
67920,note_on,30,0,1,,,,,,,,,0,,,61,100
67950,note_on,30,0,4,,,,,,,,,0,,,49,0
67950,note_on,30,0,1,,,,,,,,,0,,,61,0
67980,note_on,30,0,1,,,,,,,,,0,,,73,100
67980,note_on,30,0,4,,,,,,,,,0,,,37,100
68010,note_on,30,0,4,,,,,,,,,0,,,37,0
68010,note_on,30,0,1,,,,,,,,,0,,,73,0
68040,note_on,0,0,1,,,,,,,,,0,,,68,60
68040,note_on,30,0,4,,,,,,,,,0,,,36,60
68040,note_on,30,0,1,,,,,,,,,0,,,72,60
68070,note_on,30,0,4,,,,,,,,,0,,,36,0
68070,note_on,0,0,1,,,,,,,,,0,,,67,60
68070,note_on,0,0,1,,,,,,,,,0,,,70,60
68070,note_on,0,0,1,,,,,,,,,0,,,72,0
68070,note_on,30,0,1,,,,,,,,,0,,,68,0
68100,note_on,30,0,1,,,,,,,,,0,,,67,0
68100,note_on,0,0,1,,,,,,,,,0,,,68,60
68100,note_on,0,0,1,,,,,,,,,0,,,65,60
68100,note_on,30,0,4,,,,,,,,,0,,,48,60
68100,note_on,0,0,1,,,,,,,,,0,,,70,0
68130,note_on,30,0,1,,,,,,,,,0,,,65,0
68130,note_on,0,0,1,,,,,,,,,0,,,68,0
68130,note_on,0,0,1,,,,,,,,,0,,,70,60
68130,note_on,0,0,1,,,,,,,,,0,,,67,60
68130,note_on,30,0,4,,,,,,,,,0,,,48,0
68160,note_on,0,0,1,,,,,,,,,0,,,65,60
68160,note_on,30,0,4,,,,,,,,,0,,,36,60
68160,note_on,0,0,1,,,,,,,,,0,,,70,0
68160,note_on,30,0,1,,,,,,,,,0,,,67,0
68160,note_on,0,0,1,,,,,,,,,0,,,68,60
68190,note_on,30,0,4,,,,,,,,,0,,,36,0
68190,note_on,0,0,1,,,,,,,,,0,,,68,0
68190,note_on,0,0,1,,,,,,,,,0,,,67,60
68190,note_on,0,0,1,,,,,,,,,0,,,64,60
68190,note_on,30,0,1,,,,,,,,,0,,,65,0
68220,note_on,30,0,4,,,,,,,,,0,,,41,60
68220,note_on,30,0,1,,,,,,,,,0,,,64,0
68220,note_on,0,0,1,,,,,,,,,0,,,67,0
68220,note_on,0,0,1,,,,,,,,,0,,,65,60
68250,note_on,30,0,4,,,,,,,,,0,,,41,0
68250,note_on,30,0,1,,,,,,,,,0,,,65,0
68280,note_on,30,0,1,,,,,,,,,0,,,77,100
68310,note_on,30,0,1,,,,,,,,,0,,,77,0
68310,note_on,0,0,1,,,,,,,,,0,,,79,100
68340,note_on,30,0,1,,,,,,,,,0,,,79,0
68340,note_on,0,0,1,,,,,,,,,0,,,80,100
68370,note_on,30,0,1,,,,,,,,,0,,,80,0
68370,note_on,0,0,1,,,,,,,,,0,,,82,100
68400,note_on,30,0,1,,,,,,,,,0,,,82,0
68400,note_on,0,0,1,,,,,,,,,0,,,84,120
68400,note_on,150,0,4,,,,,,,,,0,,,48,120
68430,note_on,30,0,4,,,,,,,,,0,,,48,0
68430,note_on,30,0,1,,,,,,,,,0,,,84,0
68460,note_on,30,0,4,,,,,,,,,0,,,60,100
68460,note_on,30,0,1,,,,,,,,,0,,,72,100
68490,note_on,30,0,4,,,,,,,,,0,,,60,0
68490,note_on,30,0,1,,,,,,,,,0,,,72,0
68520,note_on,30,0,4,,,,,,,,,0,,,48,120
68520,note_on,30,0,1,,,,,,,,,0,,,84,120
68550,note_on,30,0,4,,,,,,,,,0,,,48,0
68550,note_on,30,0,1,,,,,,,,,0,,,84,0
68580,note_on,30,0,4,,,,,,,,,0,,,60,100
68580,note_on,30,0,1,,,,,,,,,0,,,72,100
68610,note_on,30,0,4,,,,,,,,,0,,,60,0
68610,note_on,30,0,1,,,,,,,,,0,,,72,0
68640,note_on,30,0,1,,,,,,,,,0,,,84,120
68640,note_on,30,0,4,,,,,,,,,0,,,48,120
68670,note_on,30,0,4,,,,,,,,,0,,,48,0
68670,note_on,30,0,1,,,,,,,,,0,,,84,0
68700,note_on,30,0,4,,,,,,,,,0,,,60,100
68700,note_on,30,0,1,,,,,,,,,0,,,72,100
68730,note_on,30,0,4,,,,,,,,,0,,,60,0
68730,note_on,30,0,1,,,,,,,,,0,,,72,0
68760,note_on,0,0,1,,,,,,,,,0,,,79,60
68760,note_on,30,0,4,,,,,,,,,0,,,48,60
68760,note_on,30,0,1,,,,,,,,,0,,,82,60
68790,note_on,30,0,1,,,,,,,,,0,,,79,0
68790,note_on,0,0,1,,,,,,,,,0,,,82,0
68790,note_on,30,0,4,,,,,,,,,0,,,48,0
68820,note_on,30,0,4,,,,,,,,,0,,,60,60
68820,note_on,30,0,1,,,,,,,,,0,,,80,60
68820,note_on,0,0,1,,,,,,,,,0,,,77,60
68850,note_on,0,0,1,,,,,,,,,0,,,76,60
68850,note_on,0,0,1,,,,,,,,,0,,,79,60
68850,note_on,30,0,4,,,,,,,,,0,,,60,0
68850,note_on,30,0,1,,,,,,,,,0,,,77,0
68850,note_on,0,0,1,,,,,,,,,0,,,80,0
68880,note_on,30,0,4,,,,,,,,,0,,,48,60
68880,note_on,0,0,1,,,,,,,,,0,,,79,0
68880,note_on,0,0,1,,,,,,,,,0,,,80,60
68880,note_on,0,0,1,,,,,,,,,0,,,77,60
68880,note_on,30,0,1,,,,,,,,,0,,,76,0
68910,note_on,0,0,1,,,,,,,,,0,,,80,0
68910,note_on,0,0,1,,,,,,,,,0,,,82,60
68910,note_on,0,0,1,,,,,,,,,0,,,79,60
68910,note_on,30,0,1,,,,,,,,,0,,,77,0
68910,note_on,30,0,4,,,,,,,,,0,,,48,0
68940,note_on,30,0,1,,,,,,,,,0,,,79,0
68940,note_on,0,0,1,,,,,,,,,0,,,76,60
68940,note_on,0,0,1,,,,,,,,,0,,,79,60
68940,note_on,0,0,1,,,,,,,,,0,,,82,0
68940,note_on,30,0,4,,,,,,,,,0,,,60,60
68970,note_on,30,0,4,,,,,,,,,0,,,60,0
69000,note_on,30,0,4,,,,,,,,,0,,,48,60
69030,note_on,30,0,4,,,,,,,,,0,,,48,0
69060,note_on,30,0,4,,,,,,,,,0,,,60,60
69090,note_on,30,0,4,,,,,,,,,0,,,60,0
69120,note_on,30,0,4,,,,,,,,,0,,,48,100
69120,note_on,180,0,1,,,,,,,,,0,,,76,0
69120,note_on,0,0,1,,,,,,,,,0,,,84,100
69120,note_on,0,0,1,,,,,,,,,0,,,79,0
69150,note_on,30,0,4,,,,,,,,,0,,,48,0
69150,note_on,30,0,1,,,,,,,,,0,,,84,0
69180,note_on,30,0,4,,,,,,,,,0,,,60,100
69180,note_on,30,0,1,,,,,,,,,0,,,72,100
69210,note_on,30,0,4,,,,,,,,,0,,,60,0
69210,note_on,30,0,1,,,,,,,,,0,,,72,0
69240,note_on,30,0,4,,,,,,,,,0,,,48,100
69240,note_on,30,0,1,,,,,,,,,0,,,84,100
69300,note_on,60,0,1,,,,,,,,,0,,,84,0
69300,note_on,60,0,4,,,,,,,,,0,,,48,0
69300,note_on,0,0,1,,,,,,,,,0,,,85,120
69300,note_on,0,0,4,,,,,,,,,0,,,49,120
69330,note_on,30,0,4,,,,,,,,,0,,,49,0
69330,note_on,30,0,1,,,,,,,,,0,,,85,0
69360,note_on,30,0,1,,,,,,,,,0,,,73,100
69360,note_on,30,0,4,,,,,,,,,0,,,61,100
69390,note_on,30,0,1,,,,,,,,,0,,,73,0
69390,note_on,30,0,4,,,,,,,,,0,,,61,0
69420,note_on,30,0,1,,,,,,,,,0,,,85,100
69420,note_on,30,0,4,,,,,,,,,0,,,49,100
69450,note_on,30,0,4,,,,,,,,,0,,,49,0
69450,note_on,30,0,1,,,,,,,,,0,,,85,0
69480,note_on,30,0,4,,,,,,,,,0,,,49,60
69480,note_on,0,0,1,,,,,,,,,0,,,70,60
69480,note_on,30,0,1,,,,,,,,,0,,,73,60
69510,note_on,0,0,1,,,,,,,,,0,,,71,60
69510,note_on,30,0,4,,,,,,,,,0,,,49,0
69510,note_on,0,0,1,,,,,,,,,0,,,73,0
69510,note_on,0,0,1,,,,,,,,,0,,,68,60
69510,note_on,30,0,1,,,,,,,,,0,,,70,0
69540,note_on,30,0,4,,,,,,,,,0,,,61,60
69540,note_on,0,0,1,,,,,,,,,0,,,70,60
69540,note_on,0,0,1,,,,,,,,,0,,,71,0
69540,note_on,0,0,1,,,,,,,,,0,,,66,60
69540,note_on,30,0,1,,,,,,,,,0,,,68,0
69570,note_on,30,0,1,,,,,,,,,0,,,66,0
69570,note_on,0,0,1,,,,,,,,,0,,,70,0
69570,note_on,0,0,1,,,,,,,,,0,,,71,60
69570,note_on,0,0,1,,,,,,,,,0,,,68,60
69570,note_on,30,0,4,,,,,,,,,0,,,61,0
69600,note_on,30,0,4,,,,,,,,,0,,,49,60
69600,note_on,30,0,1,,,,,,,,,0,,,68,0
69600,note_on,0,0,1,,,,,,,,,0,,,71,0
69600,note_on,0,0,1,,,,,,,,,0,,,70,60
69600,note_on,0,0,1,,,,,,,,,0,,,66,60
69630,note_on,30,0,4,,,,,,,,,0,,,49,0
69630,note_on,0,0,1,,,,,,,,,0,,,70,0
69630,note_on,30,0,1,,,,,,,,,0,,,66,0
69630,note_on,0,0,1,,,,,,,,,0,,,65,60
69630,note_on,0,0,1,,,,,,,,,0,,,68,60
69660,note_on,0,0,1,,,,,,,,,0,,,66,60
69660,note_on,30,0,4,,,,,,,,,0,,,61,60
69660,note_on,0,0,1,,,,,,,,,0,,,70,60
69660,note_on,0,0,1,,,,,,,,,0,,,68,0
69660,note_on,30,0,1,,,,,,,,,0,,,65,0
69690,note_on,0,0,1,,,,,,,,,0,,,70,0
69690,note_on,30,0,1,,,,,,,,,0,,,66,0
69690,note_on,30,0,4,,,,,,,,,0,,,61,0
69720,note_on,30,0,4,,,,,,,,,0,,,49,60
69720,note_on,30,0,1,,,,,,,,,0,,,66,60
69720,note_on,0,0,1,,,,,,,,,0,,,70,60
69750,note_on,30,0,1,,,,,,,,,0,,,70,0
69750,note_on,30,0,4,,,,,,,,,0,,,49,0
69750,note_on,0,0,1,,,,,,,,,0,,,66,0
69780,note_on,30,0,4,,,,,,,,,0,,,61,60
69780,note_on,30,0,1,,,,,,,,,0,,,66,60
69780,note_on,0,0,1,,,,,,,,,0,,,70,60
69810,note_on,30,0,4,,,,,,,,,0,,,61,0
69810,note_on,30,0,1,,,,,,,,,0,,,70,0
69810,note_on,0,0,1,,,,,,,,,0,,,66,0
69840,note_on,0,0,1,,,,,,,,,0,,,68,60
69840,note_on,30,0,1,,,,,,,,,0,,,71,60
69840,note_on,0,0,1,,,,,,,,,0,,,65,60
69840,note_on,30,0,4,,,,,,,,,0,,,49,60
69870,note_on,0,0,1,,,,,,,,,0,,,71,0
69870,note_on,30,0,1,,,,,,,,,0,,,65,0
69870,note_on,0,0,1,,,,,,,,,0,,,68,0
69870,note_on,30,0,4,,,,,,,,,0,,,49,0
69900,note_on,30,0,1,,,,,,,,,0,,,71,67
69900,note_on,30,0,4,,,,,,,,,0,,,61,67
69900,note_on,0,0,1,,,,,,,,,0,,,68,67
69900,note_on,0,0,1,,,,,,,,,0,,,65,67
69930,note_on,30,0,4,,,,,,,,,0,,,61,0
69930,note_on,30,0,1,,,,,,,,,0,,,65,0
69930,note_on,0,0,1,,,,,,,,,0,,,68,0
69930,note_on,0,0,1,,,,,,,,,0,,,71,0
69960,note_on,30,0,4,,,,,,,,,0,,,49,74
69960,note_on,30,0,1,,,,,,,,,0,,,71,74
69960,note_on,0,0,1,,,,,,,,,0,,,65,74
69960,note_on,0,0,1,,,,,,,,,0,,,68,74
69990,note_on,30,0,1,,,,,,,,,0,,,65,0
69990,note_on,0,0,1,,,,,,,,,0,,,71,0
69990,note_on,0,0,1,,,,,,,,,0,,,68,0
69990,note_on,30,0,4,,,,,,,,,0,,,49,0
70020,note_on,30,0,1,,,,,,,,,0,,,83,82
70020,note_on,0,0,1,,,,,,,,,0,,,80,82
70020,note_on,0,0,1,,,,,,,,,0,,,77,82
70020,note_on,30,0,4,,,,,,,,,0,,,61,82
70050,note_on,30,0,1,,,,,,,,,0,,,77,0
70050,note_on,0,0,1,,,,,,,,,0,,,80,0
70050,note_on,0,0,1,,,,,,,,,0,,,83,0
70050,note_on,30,0,4,,,,,,,,,0,,,61,0
70080,note_on,30,0,4,,,,,,,,,0,,,49,89
70080,note_on,30,0,1,,,,,,,,,0,,,83,89
70080,note_on,0,0,1,,,,,,,,,0,,,77,89
70080,note_on,0,0,1,,,,,,,,,0,,,80,89
70110,note_on,30,0,4,,,,,,,,,0,,,49,0
70110,note_on,30,0,1,,,,,,,,,0,,,77,0
70110,note_on,0,0,1,,,,,,,,,0,,,80,0
70110,note_on,0,0,1,,,,,,,,,0,,,83,0
70140,note_on,30,0,1,,,,,,,,,0,,,83,97
70140,note_on,30,0,4,,,,,,,,,0,,,61,97
70140,note_on,0,0,1,,,,,,,,,0,,,80,97
70140,note_on,0,0,1,,,,,,,,,0,,,77,97
70170,note_on,0,0,1,,,,,,,,,0,,,83,0
70170,note_on,30,0,4,,,,,,,,,0,,,61,0
70170,note_on,30,0,1,,,,,,,,,0,,,77,0
70170,note_on,0,0,1,,,,,,,,,0,,,80,0
70200,note_on,30,0,4,,,,,,,,,0,,,48,100
70200,note_on,30,0,1,,,,,,,,,0,,,96,100
70200,note_on,0,0,1,,,,,,,,,0,,,92,100
70230,note_on,30,0,4,,,,,,,,,0,,,48,0
70230,note_on,30,0,1,,,,,,,,,0,,,92,0
70230,note_on,0,0,1,,,,,,,,,0,,,94,100
70230,note_on,0,0,1,,,,,,,,,0,,,91,100
70230,note_on,0,0,1,,,,,,,,,0,,,96,0
70260,note_on,0,0,1,,,,,,,,,0,,,89,100
70260,note_on,0,0,1,,,,,,,,,0,,,92,100
70260,note_on,0,0,1,,,,,,,,,0,,,94,0
70260,note_on,30,0,1,,,,,,,,,0,,,91,0
70260,note_on,30,0,4,,,,,,,,,0,,,60,100
70290,note_on,30,0,1,,,,,,,,,0,,,89,0
70290,note_on,0,0,1,,,,,,,,,0,,,94,100
70290,note_on,0,0,1,,,,,,,,,0,,,91,100
70290,note_on,30,0,4,,,,,,,,,0,,,60,0
70290,note_on,0,0,1,,,,,,,,,0,,,92,0
70320,note_on,0,0,1,,,,,,,,,0,,,94,0
70320,note_on,30,0,1,,,,,,,,,0,,,91,0
70320,note_on,0,0,1,,,,,,,,,0,,,89,100
70320,note_on,0,0,1,,,,,,,,,0,,,92,100
70320,note_on,30,0,4,,,,,,,,,0,,,48,100
70350,note_on,0,0,1,,,,,,,,,0,,,88,100
70350,note_on,0,0,1,,,,,,,,,0,,,91,100
70350,note_on,0,0,1,,,,,,,,,0,,,92,0
70350,note_on,30,0,1,,,,,,,,,0,,,89,0
70350,note_on,30,0,4,,,,,,,,,0,,,48,0
70380,note_on,30,0,4,,,,,,,,,0,,,53,100
70380,note_on,0,0,1,,,,,,,,,0,,,91,0
70380,note_on,0,0,1,,,,,,,,,0,,,89,100
70380,note_on,30,0,1,,,,,,,,,0,,,88,0
70410,note_on,30,0,4,,,,,,,,,0,,,53,0
70410,note_on,30,0,1,,,,,,,,,0,,,89,0
70440,note_on,30,0,1,,,,,,,,,0,,,91,100
70440,control_change,19560,0,5,,,,,,,,,0,64,127,,
70440,note_on,30,0,4,,,,,,,,,0,,,64,120
70440,note_on,0,0,4,,,,,,,,,0,,,61,120
70440,note_on,0,0,4,,,,,,,,,0,,,58,120
70440,note_on,0,0,4,,,,,,,,,0,,,53,120
70460,note_on,20,0,1,,,,,,,,,0,,,91,0
70460,note_on,0,0,1,,,,,,,,,0,,,92,100
70480,note_on,20,0,1,,,,,,,,,0,,,92,0
70480,note_on,0,0,1,,,,,,,,,0,,,91,100
70500,note_on,20,0,1,,,,,,,,,0,,,91,0
70500,note_on,0,0,1,,,,,,,,,0,,,92,100
70515,note_on,15,0,1,,,,,,,,,0,,,92,0
70515,note_on,0,0,1,,,,,,,,,0,,,91,100
70530,note_on,15,0,1,,,,,,,,,0,,,91,0
70530,note_on,0,0,1,,,,,,,,,0,,,92,100
70545,note_on,15,0,1,,,,,,,,,0,,,92,0
70545,note_on,0,0,1,,,,,,,,,0,,,91,100
70560,note_on,15,0,1,,,,,,,,,0,,,91,0
70560,note_on,0,0,1,,,,,,,,,0,,,92,100
70575,note_on,15,0,1,,,,,,,,,0,,,92,0
70575,note_on,0,0,1,,,,,,,,,0,,,91,100
70590,note_on,15,0,1,,,,,,,,,0,,,91,0
70590,note_on,0,0,1,,,,,,,,,0,,,92,100
70605,note_on,15,0,1,,,,,,,,,0,,,92,0
70605,note_on,0,0,1,,,,,,,,,0,,,91,100
70620,note_on,15,0,1,,,,,,,,,0,,,91,0
70620,note_on,0,0,1,,,,,,,,,0,,,92,100
70635,note_on,15,0,1,,,,,,,,,0,,,92,0
70635,note_on,0,0,1,,,,,,,,,0,,,91,100
70650,note_on,15,0,1,,,,,,,,,0,,,91,0
70650,note_on,0,0,1,,,,,,,,,0,,,90,100
70665,note_on,15,0,1,,,,,,,,,0,,,90,0
70665,note_on,0,0,1,,,,,,,,,0,,,91,100
70680,note_on,15,0,1,,,,,,,,,0,,,91,0
70680,note_on,0,0,1,,,,,,,,,0,,,92,100
70710,note_on,30,0,1,,,,,,,,,0,,,92,0
70710,note_on,0,0,1,,,,,,,,,0,,,91,100
70740,note_on,30,0,1,,,,,,,,,0,,,91,0
70740,note_on,0,0,1,,,,,,,,,0,,,89,100
70740,note_on,0,0,4,,,,,,,,,0,,,53,100
70740,note_on,0,0,4,,,,,,,,,0,,,56,100
70740,note_on,0,0,4,,,,,,,,,0,,,60,100
70740,note_on,0,0,4,,,,,,,,,0,,,58,0
70740,note_on,0,0,4,,,,,,,,,0,,,61,0
70740,note_on,0,0,4,,,,,,,,,0,,,64,0
70740,note_on,0,0,4,,,,,,,,,0,,,65,100
70740,control_change,300,0,5,,,,,,,,,0,64,0,,
70740,note_on,300,0,4,,,,,,,,,0,,,53,0
70770,note_on,30,0,1,,,,,,,,,0,,,89,0
70770,note_on,30,0,4,,,,,,,,,0,,,53,0
70770,note_on,0,0,4,,,,,,,,,0,,,65,0
70770,note_on,0,0,4,,,,,,,,,0,,,60,0
70770,note_on,0,0,4,,,,,,,,,0,,,56,0
70800,control_change,60,0,5,,,,,,,,,0,64,127,,
70800,note_on,0,0,4,,,,,,,,,0,,,53,120
70800,note_on,30,0,1,,,,,,,,,0,,,79,100
70800,note_on,30,0,4,,,,,,,,,0,,,64,120
70800,note_on,0,0,4,,,,,,,,,0,,,61,120
70800,note_on,0,0,4,,,,,,,,,0,,,58,120
70820,note_on,20,0,1,,,,,,,,,0,,,79,0
70820,note_on,0,0,1,,,,,,,,,0,,,80,100
70840,note_on,0,0,1,,,,,,,,,0,,,79,100
70840,note_on,20,0,1,,,,,,,,,0,,,80,0
70860,note_on,20,0,1,,,,,,,,,0,,,79,0
70860,note_on,0,0,1,,,,,,,,,0,,,80,100
70875,note_on,15,0,1,,,,,,,,,0,,,80,0
70875,note_on,0,0,1,,,,,,,,,0,,,79,100
70890,note_on,15,0,1,,,,,,,,,0,,,79,0
70890,note_on,0,0,1,,,,,,,,,0,,,80,100
70905,note_on,15,0,1,,,,,,,,,0,,,80,0
70905,note_on,0,0,1,,,,,,,,,0,,,79,100
70920,note_on,0,0,1,,,,,,,,,0,,,80,100
70920,note_on,15,0,1,,,,,,,,,0,,,79,0
70935,note_on,15,0,1,,,,,,,,,0,,,80,0
70935,note_on,0,0,1,,,,,,,,,0,,,79,100
70950,note_on,0,0,1,,,,,,,,,0,,,80,100
70950,note_on,15,0,1,,,,,,,,,0,,,79,0
70965,note_on,15,0,1,,,,,,,,,0,,,80,0
70965,note_on,0,0,1,,,,,,,,,0,,,79,100
70980,note_on,15,0,1,,,,,,,,,0,,,79,0
70980,note_on,0,0,1,,,,,,,,,0,,,80,100
70995,note_on,15,0,1,,,,,,,,,0,,,80,0
70995,note_on,0,0,1,,,,,,,,,0,,,79,100
71010,note_on,15,0,1,,,,,,,,,0,,,79,0
71010,note_on,0,0,1,,,,,,,,,0,,,78,100
71025,note_on,15,0,1,,,,,,,,,0,,,78,0
71025,note_on,0,0,1,,,,,,,,,0,,,79,100
71040,note_on,15,0,1,,,,,,,,,0,,,79,0
71040,note_on,0,0,1,,,,,,,,,0,,,80,100
71070,note_on,30,0,1,,,,,,,,,0,,,80,0
71070,note_on,0,0,1,,,,,,,,,0,,,79,100
71100,control_change,300,0,5,,,,,,,,,0,64,0,,
71100,note_on,0,0,4,,,,,,,,,0,,,61,0
71100,note_on,0,0,4,,,,,,,,,0,,,53,100
71100,note_on,300,0,4,,,,,,,,,0,,,53,0
71100,note_on,0,0,1,,,,,,,,,0,,,77,100
71100,note_on,0,0,4,,,,,,,,,0,,,56,100
71100,note_on,0,0,4,,,,,,,,,0,,,60,100
71100,note_on,0,0,4,,,,,,,,,0,,,65,100
71100,note_on,0,0,4,,,,,,,,,0,,,58,0
71100,note_on,0,0,4,,,,,,,,,0,,,64,0
71100,note_on,30,0,1,,,,,,,,,0,,,79,0
71130,note_on,30,0,1,,,,,,,,,0,,,77,0
71130,note_on,0,0,4,,,,,,,,,0,,,56,0
71130,note_on,0,0,4,,,,,,,,,0,,,60,0
71130,note_on,0,0,4,,,,,,,,,0,,,65,0
71130,note_on,30,0,4,,,,,,,,,0,,,53,0
71160,control_change,60,0,5,,,,,,,,,0,64,127,,
71160,note_on,30,0,4,,,,,,,,,0,,,64,120
71160,note_on,0,0,4,,,,,,,,,0,,,61,120
71160,note_on,0,0,4,,,,,,,,,0,,,58,120
71160,note_on,0,0,4,,,,,,,,,0,,,53,120
71160,note_on,30,0,1,,,,,,,,,0,,,91,100
71180,note_on,20,0,1,,,,,,,,,0,,,91,0
71180,note_on,0,0,1,,,,,,,,,0,,,92,100
71200,note_on,20,0,1,,,,,,,,,0,,,92,0
71200,note_on,0,0,1,,,,,,,,,0,,,91,100
71220,note_on,20,0,1,,,,,,,,,0,,,91,0
71220,note_on,0,0,1,,,,,,,,,0,,,92,100
71235,note_on,15,0,1,,,,,,,,,0,,,92,0
71235,note_on,0,0,1,,,,,,,,,0,,,91,100
71250,note_on,15,0,1,,,,,,,,,0,,,91,0
71250,note_on,0,0,1,,,,,,,,,0,,,92,100
71265,note_on,15,0,1,,,,,,,,,0,,,92,0
71265,note_on,0,0,1,,,,,,,,,0,,,91,100
71280,note_on,0,0,1,,,,,,,,,0,,,90,100
71280,note_on,15,0,1,,,,,,,,,0,,,91,0
71295,note_on,15,0,1,,,,,,,,,0,,,90,0
71295,note_on,0,0,1,,,,,,,,,0,,,91,100
71310,note_on,15,0,1,,,,,,,,,0,,,91,0
71310,note_on,0,0,1,,,,,,,,,0,,,92,100
71325,note_on,15,0,1,,,,,,,,,0,,,92,0
71325,note_on,0,0,1,,,,,,,,,0,,,94,100
71340,note_on,15,0,1,,,,,,,,,0,,,94,0
71340,note_on,0,0,1,,,,,,,,,0,,,96,100
71355,note_on,15,0,1,,,,,,,,,0,,,96,0
71355,note_on,0,0,1,,,,,,,,,0,,,97,100
71370,note_on,15,0,1,,,,,,,,,0,,,97,0
71370,note_on,0,0,1,,,,,,,,,0,,,100,100
71385,note_on,15,0,1,,,,,,,,,0,,,100,0
71385,note_on,0,0,1,,,,,,,,,0,,,101,100
71400,note_on,0,0,1,,,,,,,,,0,,,100,100
71400,note_on,15,0,1,,,,,,,,,0,,,101,0
71410,note_on,0,0,1,,,,,,,,,0,,,97,100
71410,note_on,10,0,1,,,,,,,,,0,,,100,0
71420,note_on,10,0,1,,,,,,,,,0,,,97,0
71420,note_on,0,0,1,,,,,,,,,0,,,96,100
71430,note_on,0,0,1,,,,,,,,,0,,,94,100
71430,note_on,10,0,1,,,,,,,,,0,,,96,0
71440,note_on,10,0,1,,,,,,,,,0,,,94,0
71440,note_on,0,0,1,,,,,,,,,0,,,92,100
71450,note_on,10,0,1,,,,,,,,,0,,,92,0
71450,note_on,0,0,1,,,,,,,,,0,,,91,100
71460,note_on,0,0,4,,,,,,,,,0,,,60,100
71460,note_on,0,0,4,,,,,,,,,0,,,56,100
71460,note_on,0,0,4,,,,,,,,,0,,,53,100
71460,note_on,0,0,4,,,,,,,,,0,,,61,0
71460,note_on,0,0,4,,,,,,,,,0,,,64,0
71460,note_on,300,0,4,,,,,,,,,0,,,53,0
71460,control_change,300,0,5,,,,,,,,,0,64,0,,
71460,note_on,0,0,1,,,,,,,,,0,,,89,100
71460,note_on,10,0,1,,,,,,,,,0,,,91,0
71460,note_on,0,0,4,,,,,,,,,0,,,65,100
71460,note_on,0,0,4,,,,,,,,,0,,,58,0
71490,note_on,30,0,4,,,,,,,,,0,,,53,0
71490,note_on,0,0,4,,,,,,,,,0,,,56,0
71490,note_on,30,0,1,,,,,,,,,0,,,89,0
71490,note_on,0,0,4,,,,,,,,,0,,,65,0
71490,note_on,0,0,4,,,,,,,,,0,,,60,0
71520,note_on,30,0,1,,,,,,,,,0,,,79,100
71520,control_change,60,0,5,,,,,,,,,0,64,127,,
71520,note_on,0,0,4,,,,,,,,,0,,,58,120
71520,note_on,30,0,4,,,,,,,,,0,,,64,120
71520,note_on,0,0,4,,,,,,,,,0,,,61,120
71520,note_on,0,0,4,,,,,,,,,0,,,53,120
71540,note_on,0,0,1,,,,,,,,,0,,,80,100
71540,note_on,20,0,1,,,,,,,,,0,,,79,0
71560,note_on,0,0,1,,,,,,,,,0,,,79,100
71560,note_on,20,0,1,,,,,,,,,0,,,80,0
71580,note_on,0,0,1,,,,,,,,,0,,,80,100
71580,note_on,20,0,1,,,,,,,,,0,,,79,0
71595,note_on,0,0,1,,,,,,,,,0,,,79,100
71595,note_on,15,0,1,,,,,,,,,0,,,80,0
71610,note_on,0,0,1,,,,,,,,,0,,,80,100
71610,note_on,15,0,1,,,,,,,,,0,,,79,0
71625,note_on,15,0,1,,,,,,,,,0,,,80,0
71625,note_on,0,0,1,,,,,,,,,0,,,79,100
71640,note_on,15,0,1,,,,,,,,,0,,,79,0
71640,note_on,0,0,1,,,,,,,,,0,,,77,100
71652,note_on,12,0,1,,,,,,,,,0,,,77,0
71652,note_on,0,0,1,,,,,,,,,0,,,79,100
71664,note_on,12,0,1,,,,,,,,,0,,,79,0
71664,note_on,0,0,1,,,,,,,,,0,,,80,100
71676,note_on,12,0,1,,,,,,,,,0,,,80,0
71676,note_on,0,0,1,,,,,,,,,0,,,82,100
71688,note_on,12,0,1,,,,,,,,,0,,,82,0
71688,note_on,0,0,1,,,,,,,,,0,,,84,100
71700,note_on,0,0,1,,,,,,,,,0,,,85,100
71700,note_on,12,0,1,,,,,,,,,0,,,84,0
71712,note_on,12,0,1,,,,,,,,,0,,,85,0
71712,note_on,0,0,1,,,,,,,,,0,,,88,99
71724,note_on,0,0,1,,,,,,,,,0,,,89,97
71724,note_on,12,0,1,,,,,,,,,0,,,88,0
71736,note_on,0,0,1,,,,,,,,,0,,,91,95
71736,note_on,12,0,1,,,,,,,,,0,,,89,0
71748,note_on,0,0,1,,,,,,,,,0,,,89,94
71748,note_on,12,0,1,,,,,,,,,0,,,91,0
71760,note_on,0,0,1,,,,,,,,,0,,,88,92
71760,note_on,12,0,1,,,,,,,,,0,,,89,0
71765,note_on,5,0,1,,,,,,,,,0,,,85,91
71771,note_on,6,0,1,,,,,,,,,0,,,88,0
71775,note_on,4,0,1,,,,,,,,,0,,,84,90
71776,note_on,1,0,1,,,,,,,,,0,,,85,0
71783,note_on,7,0,1,,,,,,,,,0,,,82,89
71786,note_on,3,0,1,,,,,,,,,0,,,84,0
71793,note_on,7,0,1,,,,,,,,,0,,,80,87
71794,note_on,1,0,1,,,,,,,,,0,,,82,0
71799,note_on,5,0,1,,,,,,,,,0,,,79,86
71804,note_on,5,0,1,,,,,,,,,0,,,80,0
71810,note_on,6,0,1,,,,,,,,,0,,,79,0
71810,note_on,0,0,1,,,,,,,,,0,,,77,85
71820,control_change,300,0,5,,,,,,,,,0,64,0,,
71820,note_on,10,0,1,,,,,,,,,0,,,77,0
71820,set_tempo,9900,1,0,,,,,,476228,,,,,,,
71820,note_on,0,0,1,,,,,,,,,0,,,76,83
71827,set_tempo,7,1,0,,,,,,484301,,,,,,,
71834,set_tempo,7,1,0,,,,,,492651,,,,,,,
71835,note_on,15,0,1,,,,,,,,,0,,,76,0
71835,note_on,0,0,1,,,,,,,,,0,,,73,81
71841,set_tempo,7,1,0,,,,,,501295,,,,,,,
71848,set_tempo,7,1,0,,,,,,510247,,,,,,,
71850,note_on,15,0,1,,,,,,,,,0,,,73,0
71850,note_on,0,0,1,,,,,,,,,0,,,72,79
71855,set_tempo,7,1,0,,,,,,519526,,,,,,,
71862,set_tempo,7,1,0,,,,,,529147,,,,,,,
71865,note_on,0,0,1,,,,,,,,,0,,,70,77
71865,note_on,15,0,1,,,,,,,,,0,,,72,0
71869,set_tempo,7,1,0,,,,,,540589,,,,,,,
71876,set_tempo,7,1,0,,,,,,551015,,,,,,,
71880,note_on,0,0,1,,,,,,,,,0,,,68,75
71880,note_on,15,0,1,,,,,,,,,0,,,70,0
71883,set_tempo,7,1,0,,,,,,561850,,,,,,,
71890,set_tempo,7,1,0,,,,,,573121,,,,,,,
71895,note_on,0,0,1,,,,,,,,,0,,,67,73
71895,note_on,15,0,1,,,,,,,,,0,,,68,0
71897,set_tempo,7,1,0,,,,,,584852,,,,,,,
71904,set_tempo,7,1,0,,,,,,597074,,,,,,,
71910,note_on,15,0,1,,,,,,,,,0,,,67,0
71910,note_on,0,0,1,,,,,,,,,0,,,66,71
71911,set_tempo,7,1,0,,,,,,611683,,,,,,,
71918,set_tempo,7,1,0,,,,,,625065,,,,,,,
71925,set_tempo,7,1,0,,,,,,639046,,,,,,,
71925,note_on,15,0,1,,,,,,,,,0,,,66,0
71925,note_on,0,0,1,,,,,,,,,0,,,67,68
71932,set_tempo,7,1,0,,,,,,653666,,,,,,,
71940,set_tempo,8,1,0,,,,,,668971,,,,,,,
71940,note_on,15,0,1,,,,,,,,,0,,,67,0
71940,note_on,0,0,1,,,,,,,,,0,,,68,66
71947,set_tempo,7,1,0,,,,,,685010,,,,,,,
71950,note_on,0,0,1,,,,,,,,,0,,,69,65
71950,note_on,10,0,1,,,,,,,,,0,,,68,0
71954,set_tempo,7,1,0,,,,,,704308,,,,,,,
71960,note_on,0,0,1,,,,,,,,,0,,,70,63
71960,note_on,10,0,1,,,,,,,,,0,,,69,0
71961,set_tempo,7,1,0,,,,,,722109,,,,,,,
71968,set_tempo,7,1,0,,,,,,740832,,,,,,,
71970,note_on,10,0,1,,,,,,,,,0,,,70,0
71970,note_on,0,0,1,,,,,,,,,0,,,71,62
71975,set_tempo,7,1,0,,,,,,760553,,,,,,,
71980,note_on,10,0,1,,,,,,,,,0,,,71,0
71980,note_on,0,0,1,,,,,,,,,0,,,72,61
71982,set_tempo,7,1,0,,,,,,781352,,,,,,,
71989,set_tempo,7,1,0,,,,,,803320,,,,,,,
71990,note_on,10,0,1,,,,,,,,,0,,,72,0
71990,note_on,0,0,1,,,,,,,,,0,,,73,60
71996,set_tempo,7,1,0,,,,,,829990,,,,,,,
72000,note_on,0,0,4,,,,,,,,,0,,,64,0
72000,note_on,0,0,4,,,,,,,,,0,,,53,60
72000,note_on,0,0,4,,,,,,,,,0,,,58,0
72000,note_on,0,0,4,,,,,,,,,0,,,61,0
72000,note_on,10,0,1,,,,,,,,,0,,,73,0
72000,note_on,0,0,1,,,,,,,,,0,,,72,60
72000,note_on,480,0,4,,,,,,,,,0,,,53,0
72000,set_tempo,4,1,0,,,,,,476190,,,,,,,
72030,note_on,30,0,4,,,,,,,,,0,,,53,0
72030,note_on,30,0,1,,,,,,,,,0,,,72,0
72060,note_on,30,0,4,,,,,,,,,0,,,65,60
72060,note_on,30,0,1,,,,,,,,,0,,,72,60
72060,note_on,0,0,4,,,,,,,,,0,,,56,60
72060,note_on,0,0,4,,,,,,,,,0,,,60,60
72090,note_on,0,0,4,,,,,,,,,0,,,65,0
72090,note_on,0,0,4,,,,,,,,,0,,,60,0
72090,note_on,30,0,4,,,,,,,,,0,,,56,0
72090,note_on,30,0,1,,,,,,,,,0,,,72,0
72090,note_on,0,0,1,,,,,,,,,0,,,73,60
72120,note_on,30,0,4,,,,,,,,,0,,,53,60
72120,note_on,30,0,1,,,,,,,,,0,,,73,0
72120,note_on,0,0,1,,,,,,,,,0,,,72,60
72150,note_on,30,0,1,,,,,,,,,0,,,72,0
72150,note_on,30,0,4,,,,,,,,,0,,,53,0
72165,note_on,15,0,1,,,,,,,,,0,,,73,60
72180,note_on,15,0,1,,,,,,,,,0,,,73,0
72180,note_on,0,0,1,,,,,,,,,0,,,72,60
72180,note_on,30,0,4,,,,,,,,,0,,,65,60
72180,note_on,0,0,4,,,,,,,,,0,,,60,60
72180,note_on,0,0,4,,,,,,,,,0,,,56,60
72210,note_on,30,0,1,,,,,,,,,0,,,72,0
72210,note_on,30,0,4,,,,,,,,,0,,,56,0
72210,note_on,0,0,4,,,,,,,,,0,,,60,0
72210,note_on,0,0,4,,,,,,,,,0,,,65,0
72240,note_on,30,0,1,,,,,,,,,0,,,72,60
72240,note_on,30,0,4,,,,,,,,,0,,,53,60
72270,note_on,0,0,1,,,,,,,,,0,,,73,60
72270,note_on,30,0,4,,,,,,,,,0,,,53,0
72270,note_on,30,0,1,,,,,,,,,0,,,72,0
72300,note_on,0,0,4,,,,,,,,,0,,,60,60
72300,note_on,0,0,4,,,,,,,,,0,,,56,60
72300,note_on,30,0,1,,,,,,,,,0,,,73,0
72300,note_on,0,0,1,,,,,,,,,0,,,72,60
72300,note_on,30,0,4,,,,,,,,,0,,,65,60
72330,note_on,30,0,4,,,,,,,,,0,,,56,0
72330,note_on,30,0,1,,,,,,,,,0,,,72,0
72330,note_on,0,0,4,,,,,,,,,0,,,65,0
72330,note_on,0,0,4,,,,,,,,,0,,,60,0
72360,note_on,30,0,1,,,,,,,,,0,,,72,60
72360,note_on,30,0,4,,,,,,,,,0,,,53,60
72390,note_on,30,0,4,,,,,,,,,0,,,53,0
72390,note_on,0,0,1,,,,,,,,,0,,,71,60
72390,note_on,30,0,1,,,,,,,,,0,,,72,0
72420,note_on,30,0,1,,,,,,,,,0,,,71,0
72420,note_on,30,0,4,,,,,,,,,0,,,62,60
72420,note_on,0,0,4,,,,,,,,,0,,,59,60
72420,note_on,0,0,4,,,,,,,,,0,,,56,60
72420,note_on,0,0,1,,,,,,,,,0,,,71,60
72450,note_on,0,0,1,,,,,,,,,0,,,74,60
72450,note_on,30,0,4,,,,,,,,,0,,,56,0
72450,note_on,0,0,4,,,,,,,,,0,,,62,0
72450,note_on,0,0,4,,,,,,,,,0,,,59,0
72450,note_on,30,0,1,,,,,,,,,0,,,71,0
72480,note_on,30,0,4,,,,,,,,,0,,,53,60
72480,note_on,30,0,1,,,,,,,,,0,,,74,0
72480,note_on,0,0,1,,,,,,,,,0,,,72,60
72510,note_on,30,0,4,,,,,,,,,0,,,53,0
72510,note_on,30,0,1,,,,,,,,,0,,,72,0
72510,note_on,0,0,1,,,,,,,,,0,,,70,60
72540,note_on,0,0,1,,,,,,,,,0,,,72,60
72540,note_on,30,0,4,,,,,,,,,0,,,48,60
72540,note_on,30,0,1,,,,,,,,,0,,,70,0
72570,note_on,30,0,4,,,,,,,,,0,,,48,0
72570,note_on,30,0,1,,,,,,,,,0,,,72,0
72600,note_on,30,0,4,,,,,,,,,0,,,60,60
72600,note_on,0,0,4,,,,,,,,,0,,,55,60
72600,note_on,0,0,4,,,,,,,,,0,,,52,60
72600,note_on,30,0,1,,,,,,,,,0,,,67,80
72630,note_on,0,0,4,,,,,,,,,0,,,55,0
72630,note_on,0,0,4,,,,,,,,,0,,,60,0
72630,note_on,30,0,4,,,,,,,,,0,,,52,0
72660,note_on,30,0,4,,,,,,,,,0,,,48,60
72690,note_on,30,0,4,,,,,,,,,0,,,48,0
72720,note_on,30,0,4,,,,,,,,,0,,,60,60
72720,note_on,0,0,4,,,,,,,,,0,,,55,60
72720,note_on,120,0,1,,,,,,,,,0,,,67,0
72720,note_on,0,0,1,,,,,,,,,0,,,72,60
72720,note_on,0,0,4,,,,,,,,,0,,,52,60
72750,note_on,30,0,4,,,,,,,,,0,,,52,0
72750,note_on,0,0,4,,,,,,,,,0,,,55,0
72750,note_on,30,0,1,,,,,,,,,0,,,72,0
72750,note_on,0,0,4,,,,,,,,,0,,,60,0
72780,note_on,30,0,1,,,,,,,,,0,,,67,60
72780,note_on,30,0,4,,,,,,,,,0,,,48,60
72810,note_on,30,0,1,,,,,,,,,0,,,67,0
72810,note_on,30,0,4,,,,,,,,,0,,,48,0
72840,note_on,30,0,1,,,,,,,,,0,,,72,60
72840,note_on,30,0,4,,,,,,,,,0,,,60,60
72840,note_on,0,0,4,,,,,,,,,0,,,52,60
72840,note_on,0,0,4,,,,,,,,,0,,,55,60
72870,note_on,0,0,4,,,,,,,,,0,,,60,0
72870,note_on,30,0,4,,,,,,,,,0,,,52,0
72870,note_on,30,0,1,,,,,,,,,0,,,72,0
72870,note_on,0,0,4,,,,,,,,,0,,,55,0
72900,note_on,30,0,4,,,,,,,,,0,,,49,60
72900,note_on,30,0,1,,,,,,,,,0,,,70,80
72930,note_on,30,0,4,,,,,,,,,0,,,49,0
72960,note_on,0,0,1,,,,,,,,,0,,,68,60
72960,note_on,30,0,4,,,,,,,,,0,,,61,60
72960,note_on,0,0,4,,,,,,,,,0,,,53,60
72960,note_on,60,0,1,,,,,,,,,0,,,70,0
72990,note_on,0,0,1,,,,,,,,,0,,,67,60
72990,note_on,30,0,4,,,,,,,,,0,,,53,0
72990,note_on,30,0,1,,,,,,,,,0,,,68,0
72990,note_on,0,0,4,,,,,,,,,0,,,61,0
73020,note_on,30,0,4,,,,,,,,,0,,,49,60
73020,note_on,0,0,1,,,,,,,,,0,,,65,60
73020,note_on,30,0,1,,,,,,,,,0,,,67,0
73050,note_on,30,0,4,,,,,,,,,0,,,49,0
73050,note_on,30,0,1,,,,,,,,,0,,,65,0
73080,note_on,30,0,4,,,,,,,,,0,,,46,60
73080,note_on,30,0,1,,,,,,,,,0,,,67,60
73110,note_on,30,0,1,,,,,,,,,0,,,67,0
73110,note_on,0,0,1,,,,,,,,,0,,,70,60
73140,note_on,30,0,1,,,,,,,,,0,,,70,0
73140,note_on,0,0,1,,,,,,,,,0,,,67,60
73140,note_on,0,0,4,,,,,,,,,0,,,55,60
73140,note_on,60,0,4,,,,,,,,,0,,,46,0
73140,note_on,0,0,4,,,,,,,,,0,,,58,60
73170,note_on,30,0,1,,,,,,,,,0,,,67,0
73170,note_on,0,0,1,,,,,,,,,0,,,70,60
73170,note_on,30,0,4,,,,,,,,,0,,,55,0
73170,note_on,0,0,4,,,,,,,,,0,,,58,0
73200,note_on,0,0,4,,,,,,,,,0,,,48,60
73200,note_on,0,0,4,,,,,,,,,0,,,55,60
73200,note_on,30,0,4,,,,,,,,,0,,,58,60
73200,note_on,30,0,1,,,,,,,,,0,,,70,0
73200,note_on,0,0,1,,,,,,,,,0,,,64,60
73230,note_on,0,0,1,,,,,,,,,0,,,67,60
73230,note_on,0,0,4,,,,,,,,,0,,,58,0
73230,note_on,0,0,4,,,,,,,,,0,,,55,0
73230,note_on,30,0,4,,,,,,,,,0,,,48,0
73230,note_on,30,0,1,,,,,,,,,0,,,64,0
73260,note_on,30,0,1,,,,,,,,,0,,,67,0
73260,note_on,0,0,1,,,,,,,,,0,,,65,60
73260,note_on,0,0,4,,,,,,,,,0,,,53,60
73260,note_on,30,0,4,,,,,,,,,0,,,56,60
73290,note_on,30,0,1,,,,,,,,,0,,,65,0
73290,note_on,0,0,1,,,,,,,,,0,,,68,60
73320,note_on,30,0,1,,,,,,,,,0,,,68,0
73320,note_on,0,0,1,,,,,,,,,0,,,72,60
73350,note_on,0,0,1,,,,,,,,,0,,,77,60
73350,note_on,30,0,1,,,,,,,,,0,,,72,0
73380,note_on,0,0,1,,,,,,,,,0,,,80,60
73380,note_on,30,0,1,,,,,,,,,0,,,77,0
73380,note_on,120,0,4,,,,,,,,,0,,,53,0
73380,note_on,0,0,4,,,,,,,,,0,,,56,0
73410,note_on,30,0,1,,,,,,,,,0,,,80,0
73410,note_on,0,0,1,,,,,,,,,0,,,82,60
73440,note_on,30,0,1,,,,,,,,,0,,,82,0
73440,note_on,0,0,1,,,,,,,,,0,,,84,60
73440,note_on,60,0,4,,,,,,,,,0,,,53,60
73470,note_on,30,0,1,,,,,,,,,0,,,84,0
73470,note_on,30,0,4,,,,,,,,,0,,,53,0
73500,note_on,0,0,4,,,,,,,,,0,,,56,60
73500,note_on,0,0,4,,,,,,,,,0,,,60,60
73500,note_on,30,0,1,,,,,,,,,0,,,84,60
73500,note_on,30,0,4,,,,,,,,,0,,,65,60
73530,note_on,0,0,4,,,,,,,,,0,,,60,0
73530,note_on,0,0,4,,,,,,,,,0,,,65,0
73530,note_on,0,0,1,,,,,,,,,0,,,85,60
73530,note_on,30,0,1,,,,,,,,,0,,,84,0
73530,note_on,30,0,4,,,,,,,,,0,,,56,0
73560,note_on,30,0,4,,,,,,,,,0,,,53,60
73560,note_on,0,0,1,,,,,,,,,0,,,84,60
73560,note_on,30,0,1,,,,,,,,,0,,,85,0
73590,note_on,30,0,4,,,,,,,,,0,,,53,0
73590,note_on,30,0,1,,,,,,,,,0,,,84,0
73605,note_on,15,0,1,,,,,,,,,0,,,85,60
73620,note_on,0,0,1,,,,,,,,,0,,,84,60
73620,note_on,15,0,1,,,,,,,,,0,,,85,0
73620,note_on,0,0,4,,,,,,,,,0,,,56,60
73620,note_on,0,0,4,,,,,,,,,0,,,60,60
73620,note_on,30,0,4,,,,,,,,,0,,,65,60
73650,note_on,0,0,4,,,,,,,,,0,,,65,0
73650,note_on,0,0,4,,,,,,,,,0,,,60,0
73650,note_on,30,0,4,,,,,,,,,0,,,56,0
73650,note_on,30,0,1,,,,,,,,,0,,,84,0
73680,note_on,30,0,1,,,,,,,,,0,,,84,60
73680,note_on,30,0,4,,,,,,,,,0,,,53,60
73710,note_on,0,0,1,,,,,,,,,0,,,85,60
73710,note_on,30,0,4,,,,,,,,,0,,,53,0
73710,note_on,30,0,1,,,,,,,,,0,,,84,0
73740,note_on,30,0,1,,,,,,,,,0,,,85,0
73740,note_on,0,0,4,,,,,,,,,0,,,56,60
73740,note_on,0,0,4,,,,,,,,,0,,,60,60
73740,note_on,30,0,4,,,,,,,,,0,,,65,60
73740,note_on,0,0,1,,,,,,,,,0,,,84,60
73770,note_on,30,0,1,,,,,,,,,0,,,84,0
73770,note_on,0,0,4,,,,,,,,,0,,,65,0
73770,note_on,30,0,4,,,,,,,,,0,,,56,0
73770,note_on,0,0,4,,,,,,,,,0,,,60,0
73800,note_on,30,0,1,,,,,,,,,0,,,84,60
73800,note_on,30,0,4,,,,,,,,,0,,,53,60
73830,note_on,30,0,1,,,,,,,,,0,,,84,0
73830,note_on,0,0,1,,,,,,,,,0,,,83,60
73830,note_on,30,0,4,,,,,,,,,0,,,53,0
73860,note_on,0,0,4,,,,,,,,,0,,,59,60
73860,note_on,0,0,1,,,,,,,,,0,,,89,60
73860,note_on,0,0,4,,,,,,,,,0,,,56,60
73860,note_on,30,0,1,,,,,,,,,0,,,83,0
73860,note_on,30,0,4,,,,,,,,,0,,,62,60
73890,note_on,0,0,1,,,,,,,,,0,,,83,60
73890,note_on,30,0,1,,,,,,,,,0,,,89,0
73890,note_on,0,0,4,,,,,,,,,0,,,62,0
73890,note_on,0,0,4,,,,,,,,,0,,,59,0
73890,note_on,30,0,4,,,,,,,,,0,,,56,0
73920,note_on,0,0,1,,,,,,,,,0,,,89,60
73920,note_on,30,0,1,,,,,,,,,0,,,83,0
73920,note_on,30,0,4,,,,,,,,,0,,,53,60
73950,note_on,0,0,1,,,,,,,,,0,,,83,60
73950,note_on,30,0,1,,,,,,,,,0,,,89,0
73950,note_on,30,0,4,,,,,,,,,0,,,53,0
73980,note_on,30,0,4,,,,,,,,,0,,,48,60
73980,note_on,30,0,1,,,,,,,,,0,,,83,0
73980,note_on,0,0,1,,,,,,,,,0,,,84,60
74010,note_on,30,0,4,,,,,,,,,0,,,48,0
74010,note_on,30,0,1,,,,,,,,,0,,,84,0
74040,note_on,30,0,4,,,,,,,,,0,,,60,60
74040,note_on,0,0,4,,,,,,,,,0,,,55,60
74040,note_on,0,0,4,,,,,,,,,0,,,52,60
74040,note_on,30,0,1,,,,,,,,,0,,,79,80
74070,note_on,0,0,4,,,,,,,,,0,,,55,0
74070,note_on,30,0,4,,,,,,,,,0,,,52,0
74070,note_on,0,0,4,,,,,,,,,0,,,60,0
74100,note_on,30,0,4,,,,,,,,,0,,,48,60
74130,note_on,30,0,4,,,,,,,,,0,,,48,0
74160,note_on,120,0,1,,,,,,,,,0,,,79,0
74160,note_on,0,0,1,,,,,,,,,0,,,84,60
74160,note_on,0,0,4,,,,,,,,,0,,,52,60
74160,note_on,0,0,4,,,,,,,,,0,,,55,60
74160,note_on,30,0,4,,,,,,,,,0,,,60,60
74190,note_on,30,0,1,,,,,,,,,0,,,84,0
74190,note_on,0,0,4,,,,,,,,,0,,,60,0
74190,note_on,30,0,4,,,,,,,,,0,,,52,0
74190,note_on,0,0,4,,,,,,,,,0,,,55,0
74220,note_on,30,0,1,,,,,,,,,0,,,79,60
74220,note_on,30,0,4,,,,,,,,,0,,,48,60
74250,note_on,30,0,1,,,,,,,,,0,,,79,0
74250,note_on,30,0,4,,,,,,,,,0,,,48,0
74280,note_on,0,0,4,,,,,,,,,0,,,52,60
74280,note_on,0,0,4,,,,,,,,,0,,,55,60
74280,note_on,30,0,4,,,,,,,,,0,,,60,60
74280,note_on,30,0,1,,,,,,,,,0,,,84,60
74310,note_on,30,0,1,,,,,,,,,0,,,84,0
74310,note_on,0,0,4,,,,,,,,,0,,,60,0
74310,note_on,0,0,4,,,,,,,,,0,,,55,0
74310,note_on,30,0,4,,,,,,,,,0,,,52,0
74340,note_on,30,0,4,,,,,,,,,0,,,49,60
74340,note_on,30,0,1,,,,,,,,,0,,,82,80
74370,note_on,30,0,4,,,,,,,,,0,,,49,0
74400,note_on,30,0,4,,,,,,,,,0,,,61,60
74400,note_on,60,0,1,,,,,,,,,0,,,82,0
74400,note_on,0,0,1,,,,,,,,,0,,,80,60
74400,note_on,0,0,4,,,,,,,,,0,,,53,60
74430,note_on,30,0,4,,,,,,,,,0,,,53,0
74430,note_on,30,0,1,,,,,,,,,0,,,80,0
74430,note_on,0,0,1,,,,,,,,,0,,,79,60
74430,note_on,0,0,4,,,,,,,,,0,,,61,0
74460,note_on,30,0,4,,,,,,,,,0,,,49,60
74460,note_on,0,0,1,,,,,,,,,0,,,77,60
74460,note_on,30,0,1,,,,,,,,,0,,,79,0
74490,note_on,30,0,1,,,,,,,,,0,,,77,0
74490,note_on,30,0,4,,,,,,,,,0,,,49,0
74520,note_on,30,0,4,,,,,,,,,0,,,50,60
74520,note_on,30,0,1,,,,,,,,,0,,,82,60
74550,note_on,30,0,1,,,,,,,,,0,,,82,0
74550,note_on,30,0,4,,,,,,,,,0,,,50,0
74580,note_on,0,0,4,,,,,,,,,0,,,58,63
74580,note_on,30,0,4,,,,,,,,,0,,,62,63
74580,note_on,30,0,1,,,,,,,,,0,,,77,63
74610,note_on,30,0,1,,,,,,,,,0,,,77,0
74610,note_on,0,0,4,,,,,,,,,0,,,62,0
74610,note_on,30,0,4,,,,,,,,,0,,,58,0
74640,note_on,30,0,4,,,,,,,,,0,,,50,67
74640,note_on,30,0,1,,,,,,,,,0,,,82,67
74670,note_on,30,0,1,,,,,,,,,0,,,82,0
74670,note_on,30,0,4,,,,,,,,,0,,,50,0
74700,note_on,30,0,1,,,,,,,,,0,,,80,90
74700,note_on,30,0,4,,,,,,,,,0,,,51,70
74730,note_on,30,0,4,,,,,,,,,0,,,51,0
74760,note_on,0,0,1,,,,,,,,,0,,,79,74
74760,note_on,30,0,4,,,,,,,,,0,,,63,74
74760,note_on,0,0,4,,,,,,,,,0,,,58,74
74760,note_on,60,0,1,,,,,,,,,0,,,80,0
74790,note_on,30,0,1,,,,,,,,,0,,,79,0
74790,note_on,30,0,4,,,,,,,,,0,,,58,0
74790,note_on,0,0,4,,,,,,,,,0,,,63,0
74790,note_on,0,0,1,,,,,,,,,0,,,77,75
74820,note_on,30,0,4,,,,,,,,,0,,,51,77
74820,note_on,0,0,1,,,,,,,,,0,,,75,77
74820,note_on,30,0,1,,,,,,,,,0,,,77,0
74850,note_on,30,0,4,,,,,,,,,0,,,51,0
74850,note_on,30,0,1,,,,,,,,,0,,,75,0
74880,note_on,30,0,4,,,,,,,,,0,,,48,81
74880,note_on,30,0,1,,,,,,,,,0,,,80,81
74910,note_on,30,0,4,,,,,,,,,0,,,48,0
74910,note_on,30,0,1,,,,,,,,,0,,,80,0
74940,note_on,30,0,4,,,,,,,,,0,,,60,84
74940,note_on,30,0,1,,,,,,,,,0,,,75,84
74970,note_on,30,0,1,,,,,,,,,0,,,75,0
74970,note_on,30,0,4,,,,,,,,,0,,,60,0
75000,note_on,30,0,4,,,,,,,,,0,,,48,88
75000,note_on,30,0,1,,,,,,,,,0,,,80,88
75030,note_on,30,0,1,,,,,,,,,0,,,80,0
75030,note_on,30,0,4,,,,,,,,,0,,,48,0
75060,note_on,30,0,4,,,,,,,,,0,,,47,91
75060,note_on,30,0,1,,,,,,,,,0,,,81,91
75090,note_on,30,0,1,,,,,,,,,0,,,81,0
75090,note_on,30,0,4,,,,,,,,,0,,,47,0
75120,note_on,30,0,4,,,,,,,,,0,,,59,95
75120,note_on,30,0,1,,,,,,,,,0,,,75,95
75150,note_on,30,0,4,,,,,,,,,0,,,59,0
75150,note_on,30,0,1,,,,,,,,,0,,,75,0
75180,note_on,30,0,1,,,,,,,,,0,,,81,98
75180,note_on,30,0,4,,,,,,,,,0,,,47,98
75210,note_on,30,0,4,,,,,,,,,0,,,47,0
75210,note_on,30,0,1,,,,,,,,,0,,,81,0
75240,note_on,30,0,4,,,,,,,,,0,,,46,120
75240,note_on,30,0,1,,,,,,,,,0,,,82,120
75270,note_on,30,0,4,,,,,,,,,0,,,46,0
75270,note_on,30,0,1,,,,,,,,,0,,,82,0
75300,note_on,0,0,1,,,,,,,,,0,,,77,100
75300,note_on,30,0,4,,,,,,,,,0,,,62,100
75300,note_on,0,0,4,,,,,,,,,0,,,58,100
75300,note_on,30,0,1,,,,,,,,,0,,,74,100
75300,note_on,0,0,4,,,,,,,,,0,,,53,100
75330,note_on,0,0,4,,,,,,,,,0,,,62,0
75330,note_on,30,0,1,,,,,,,,,0,,,77,0
75330,note_on,0,0,1,,,,,,,,,0,,,74,0
75330,note_on,0,0,4,,,,,,,,,0,,,58,0
75330,note_on,30,0,4,,,,,,,,,0,,,53,0
75360,note_on,30,0,1,,,,,,,,,0,,,86,120
75360,note_on,30,0,4,,,,,,,,,0,,,46,120
75390,note_on,30,0,1,,,,,,,,,0,,,86,0
75390,note_on,30,0,4,,,,,,,,,0,,,46,0
75420,note_on,30,0,4,,,,,,,,,0,,,62,100
75420,note_on,0,0,4,,,,,,,,,0,,,58,100
75420,note_on,0,0,4,,,,,,,,,0,,,53,100
75420,note_on,30,0,1,,,,,,,,,0,,,77,100
75420,note_on,0,0,1,,,,,,,,,0,,,82,100
75450,note_on,0,0,4,,,,,,,,,0,,,58,0
75450,note_on,0,0,4,,,,,,,,,0,,,62,0
75450,note_on,30,0,4,,,,,,,,,0,,,53,0
75450,note_on,30,0,1,,,,,,,,,0,,,82,0
75450,note_on,0,0,1,,,,,,,,,0,,,77,0
75480,note_on,30,0,1,,,,,,,,,0,,,89,120
75480,note_on,30,0,4,,,,,,,,,0,,,46,120
75510,note_on,30,0,1,,,,,,,,,0,,,89,0
75510,note_on,30,0,4,,,,,,,,,0,,,46,0
75540,note_on,0,0,1,,,,,,,,,0,,,86,100
75540,note_on,30,0,4,,,,,,,,,0,,,62,100
75540,note_on,0,0,4,,,,,,,,,0,,,58,100
75540,note_on,30,0,1,,,,,,,,,0,,,82,100
75540,note_on,0,0,4,,,,,,,,,0,,,53,100
75570,note_on,30,0,1,,,,,,,,,0,,,86,0
75570,note_on,0,0,4,,,,,,,,,0,,,62,0
75570,note_on,0,0,4,,,,,,,,,0,,,58,0
75570,note_on,30,0,4,,,,,,,,,0,,,53,0
75570,note_on,0,0,1,,,,,,,,,0,,,82,0
75600,note_on,30,0,4,,,,,,,,,0,,,46,120
75600,note_on,30,0,1,,,,,,,,,0,,,92,120
75630,note_on,30,0,1,,,,,,,,,0,,,92,0
75630,note_on,30,0,4,,,,,,,,,0,,,46,0
75630,note_on,0,0,1,,,,,,,,,0,,,90,100
75660,note_on,0,0,4,,,,,,,,,0,,,57,100
75660,note_on,0,0,4,,,,,,,,,0,,,54,100
75660,note_on,30,0,4,,,,,,,,,0,,,63,100
75660,note_on,0,0,1,,,,,,,,,0,,,89,100
75660,note_on,30,0,1,,,,,,,,,0,,,90,0
75690,note_on,0,0,4,,,,,,,,,0,,,63,0
75690,note_on,0,0,1,,,,,,,,,0,,,90,100
75690,note_on,30,0,1,,,,,,,,,0,,,89,0
75690,note_on,0,0,4,,,,,,,,,0,,,57,0
75690,note_on,30,0,4,,,,,,,,,0,,,54,0
75720,note_on,30,0,4,,,,,,,,,0,,,46,100
75720,note_on,0,0,1,,,,,,,,,0,,,87,100
75720,note_on,30,0,1,,,,,,,,,0,,,90,0
75750,note_on,30,0,1,,,,,,,,,0,,,87,0
75750,note_on,30,0,4,,,,,,,,,0,,,46,0
75780,note_on,30,0,1,,,,,,,,,0,,,84,100
75780,note_on,30,0,4,,,,,,,,,0,,,63,100
75780,note_on,0,0,4,,,,,,,,,0,,,57,100
75780,note_on,0,0,4,,,,,,,,,0,,,54,100
75810,note_on,30,0,1,,,,,,,,,0,,,84,0
75810,note_on,30,0,4,,,,,,,,,0,,,54,0
75810,note_on,0,0,4,,,,,,,,,0,,,57,0
75810,note_on,0,0,4,,,,,,,,,0,,,63,0
75840,note_on,30,0,4,,,,,,,,,0,,,46,100
75840,note_on,30,0,1,,,,,,,,,0,,,81,100
75870,note_on,30,0,4,,,,,,,,,0,,,46,0
75870,note_on,30,0,1,,,,,,,,,0,,,81,0
75900,note_on,30,0,1,,,,,,,,,0,,,78,100
75900,note_on,30,0,4,,,,,,,,,0,,,63,100
75900,note_on,0,0,4,,,,,,,,,0,,,57,100
75900,note_on,0,0,4,,,,,,,,,0,,,54,100
75930,note_on,0,0,4,,,,,,,,,0,,,63,0
75930,note_on,0,0,4,,,,,,,,,0,,,57,0
75930,note_on,30,0,4,,,,,,,,,0,,,54,0
75930,note_on,30,0,1,,,,,,,,,0,,,78,0
75960,note_on,30,0,4,,,,,,,,,0,,,46,120
75960,note_on,30,0,1,,,,,,,,,0,,,82,120
75990,note_on,30,0,1,,,,,,,,,0,,,82,0
75990,note_on,30,0,4,,,,,,,,,0,,,46,0
76020,note_on,0,0,4,,,,,,,,,0,,,58,100
76020,note_on,30,0,4,,,,,,,,,0,,,62,100
76020,note_on,0,0,4,,,,,,,,,0,,,53,100
76020,note_on,0,0,1,,,,,,,,,0,,,77,100
76020,note_on,30,0,1,,,,,,,,,0,,,74,100
76050,note_on,0,0,1,,,,,,,,,0,,,74,0
76050,note_on,30,0,1,,,,,,,,,0,,,77,0
76050,note_on,30,0,4,,,,,,,,,0,,,53,0
76050,note_on,0,0,4,,,,,,,,,0,,,58,0
76050,note_on,0,0,4,,,,,,,,,0,,,62,0
76080,note_on,30,0,4,,,,,,,,,0,,,46,120
76080,note_on,30,0,1,,,,,,,,,0,,,86,120
76110,note_on,30,0,4,,,,,,,,,0,,,46,0
76110,note_on,30,0,1,,,,,,,,,0,,,86,0
76140,note_on,30,0,4,,,,,,,,,0,,,62,100
76140,note_on,0,0,4,,,,,,,,,0,,,58,100
76140,note_on,0,0,4,,,,,,,,,0,,,53,100
76140,note_on,30,0,1,,,,,,,,,0,,,77,100
76140,note_on,0,0,1,,,,,,,,,0,,,82,100
76170,note_on,30,0,1,,,,,,,,,0,,,82,0
76170,note_on,0,0,1,,,,,,,,,0,,,77,0
76170,note_on,0,0,4,,,,,,,,,0,,,62,0
76170,note_on,0,0,4,,,,,,,,,0,,,58,0
76170,note_on,30,0,4,,,,,,,,,0,,,53,0
76200,note_on,30,0,4,,,,,,,,,0,,,46,120
76200,note_on,30,0,1,,,,,,,,,0,,,89,120
76230,note_on,30,0,4,,,,,,,,,0,,,46,0
76230,note_on,30,0,1,,,,,,,,,0,,,89,0
76260,note_on,0,0,4,,,,,,,,,0,,,58,100
76260,note_on,0,0,4,,,,,,,,,0,,,53,100
76260,note_on,0,0,1,,,,,,,,,0,,,86,100
76260,note_on,30,0,4,,,,,,,,,0,,,62,100
76260,note_on,30,0,1,,,,,,,,,0,,,82,100
76290,note_on,0,0,4,,,,,,,,,0,,,62,0
76290,note_on,0,0,4,,,,,,,,,0,,,58,0
76290,note_on,30,0,4,,,,,,,,,0,,,53,0
76290,note_on,30,0,1,,,,,,,,,0,,,86,0
76290,note_on,0,0,1,,,,,,,,,0,,,82,0
76320,note_on,30,0,1,,,,,,,,,0,,,92,120
76320,note_on,30,0,4,,,,,,,,,0,,,46,120
76350,note_on,30,0,4,,,,,,,,,0,,,46,0
76350,note_on,0,0,1,,,,,,,,,0,,,90,100
76350,note_on,30,0,1,,,,,,,,,0,,,92,0
76380,note_on,0,0,1,,,,,,,,,0,,,89,100
76380,note_on,30,0,1,,,,,,,,,0,,,90,0
76380,note_on,30,0,4,,,,,,,,,0,,,63,100
76380,note_on,0,0,4,,,,,,,,,0,,,57,100
76380,note_on,0,0,4,,,,,,,,,0,,,54,100
76410,note_on,0,0,4,,,,,,,,,0,,,63,0
76410,note_on,0,0,4,,,,,,,,,0,,,57,0
76410,note_on,30,0,4,,,,,,,,,0,,,54,0
76410,note_on,0,0,1,,,,,,,,,0,,,90,100
76410,note_on,30,0,1,,,,,,,,,0,,,89,0
76440,note_on,30,0,4,,,,,,,,,0,,,46,100
76440,note_on,30,0,1,,,,,,,,,0,,,90,0
76440,note_on,0,0,1,,,,,,,,,0,,,87,100
76470,note_on,30,0,1,,,,,,,,,0,,,87,0
76470,note_on,30,0,4,,,,,,,,,0,,,46,0
76500,note_on,30,0,4,,,,,,,,,0,,,63,100
76500,note_on,0,0,4,,,,,,,,,0,,,57,100
76500,note_on,30,0,1,,,,,,,,,0,,,84,100
76500,note_on,0,0,4,,,,,,,,,0,,,54,100
76530,note_on,0,0,4,,,,,,,,,0,,,63,0
76530,note_on,30,0,4,,,,,,,,,0,,,54,0
76530,note_on,0,0,4,,,,,,,,,0,,,57,0
76530,note_on,30,0,1,,,,,,,,,0,,,84,0
76560,note_on,30,0,1,,,,,,,,,0,,,81,100
76560,note_on,30,0,4,,,,,,,,,0,,,46,100
76590,note_on,30,0,4,,,,,,,,,0,,,46,0
76590,note_on,30,0,1,,,,,,,,,0,,,81,0
76620,note_on,0,0,4,,,,,,,,,0,,,54,100
76620,note_on,0,0,4,,,,,,,,,0,,,57,100
76620,note_on,30,0,4,,,,,,,,,0,,,63,100
76620,note_on,30,0,1,,,,,,,,,0,,,78,100
76650,note_on,30,0,1,,,,,,,,,0,,,78,0
76650,note_on,30,0,4,,,,,,,,,0,,,54,0
76650,note_on,0,0,4,,,,,,,,,0,,,63,0
76650,note_on,0,0,4,,,,,,,,,0,,,57,0
76680,note_on,30,0,4,,,,,,,,,0,,,46,120
76680,note_on,30,0,1,,,,,,,,,0,,,82,120
76710,note_on,30,0,4,,,,,,,,,0,,,46,0
76710,note_on,30,0,1,,,,,,,,,0,,,82,0
76740,note_on,0,0,1,,,,,,,,,0,,,77,100
76740,note_on,30,0,4,,,,,,,,,0,,,62,100
76740,note_on,0,0,4,,,,,,,,,0,,,58,100
76740,note_on,0,0,4,,,,,,,,,0,,,53,100
76740,note_on,30,0,1,,,,,,,,,0,,,74,100
76770,note_on,30,0,4,,,,,,,,,0,,,53,0
76770,note_on,0,0,4,,,,,,,,,0,,,58,0
76770,note_on,0,0,4,,,,,,,,,0,,,62,0
76770,note_on,30,0,1,,,,,,,,,0,,,77,0
76770,note_on,0,0,1,,,,,,,,,0,,,74,0
76800,note_on,30,0,1,,,,,,,,,0,,,83,120
76800,note_on,30,0,4,,,,,,,,,0,,,44,120
76830,note_on,30,0,1,,,,,,,,,0,,,83,0
76830,note_on,30,0,4,,,,,,,,,0,,,44,0
76860,note_on,0,0,1,,,,,,,,,0,,,77,100
76860,note_on,30,0,4,,,,,,,,,0,,,56,100
76860,note_on,30,0,1,,,,,,,,,0,,,74,100
76890,note_on,30,0,4,,,,,,,,,0,,,56,0
76890,note_on,0,0,1,,,,,,,,,0,,,74,0
76890,note_on,30,0,1,,,,,,,,,0,,,77,0
76920,note_on,30,0,4,,,,,,,,,0,,,43,120
76920,note_on,30,0,1,,,,,,,,,0,,,86,120
76950,note_on,30,0,1,,,,,,,,,0,,,86,0
76950,note_on,30,0,4,,,,,,,,,0,,,43,0
76980,note_on,30,0,4,,,,,,,,,0,,,55,100
76980,note_on,30,0,1,,,,,,,,,0,,,77,100
76980,note_on,0,0,1,,,,,,,,,0,,,83,100
77010,note_on,0,0,1,,,,,,,,,0,,,77,0
77010,note_on,30,0,1,,,,,,,,,0,,,83,0
77010,note_on,30,0,4,,,,,,,,,0,,,55,0
77040,note_on,30,0,4,,,,,,,,,0,,,48,120
77040,note_on,30,0,1,,,,,,,,,0,,,84,120
77070,note_on,30,0,4,,,,,,,,,0,,,48,0
77070,note_on,30,0,1,,,,,,,,,0,,,84,0
77100,note_on,0,0,1,,,,,,,,,0,,,79,100
77100,note_on,30,0,1,,,,,,,,,0,,,76,100
77100,note_on,30,0,4,,,,,,,,,0,,,60,100
77130,note_on,0,0,1,,,,,,,,,0,,,76,0
77130,note_on,30,0,1,,,,,,,,,0,,,79,0
77130,note_on,30,0,4,,,,,,,,,0,,,60,0
77160,note_on,30,0,1,,,,,,,,,0,,,88,120
77160,note_on,30,0,4,,,,,,,,,0,,,46,120
77190,note_on,30,0,4,,,,,,,,,0,,,46,0
77190,note_on,30,0,1,,,,,,,,,0,,,88,0
77220,note_on,30,0,1,,,,,,,,,0,,,85,100
77220,note_on,30,0,4,,,,,,,,,0,,,58,100
77220,note_on,0,0,1,,,,,,,,,0,,,79,100
77250,note_on,0,0,1,,,,,,,,,0,,,85,0
77250,note_on,30,0,1,,,,,,,,,0,,,79,0
77250,note_on,30,0,4,,,,,,,,,0,,,58,0
77280,note_on,30,0,1,,,,,,,,,0,,,91,120
77280,note_on,30,0,4,,,,,,,,,0,,,43,120
77310,note_on,30,0,4,,,,,,,,,0,,,43,0
77310,note_on,30,0,1,,,,,,,,,0,,,91,0
77340,note_on,30,0,4,,,,,,,,,0,,,55,100
77340,note_on,30,0,1,,,,,,,,,0,,,88,100
77340,note_on,0,0,1,,,,,,,,,0,,,85,100
77340,note_on,0,0,1,,,,,,,,,0,,,82,100
77370,note_on,0,0,1,,,,,,,,,0,,,88,0
77370,note_on,30,0,1,,,,,,,,,0,,,82,0
77370,note_on,0,0,1,,,,,,,,,0,,,85,0
77370,note_on,30,0,4,,,,,,,,,0,,,55,0
77400,note_on,30,0,1,,,,,,,,,0,,,89,120
77400,note_on,30,0,4,,,,,,,,,0,,,44,120
77430,note_on,30,0,4,,,,,,,,,0,,,44,0
77430,note_on,30,0,1,,,,,,,,,0,,,89,0
77460,note_on,30,0,4,,,,,,,,,0,,,56,100
77460,note_on,30,0,1,,,,,,,,,0,,,77,100
77460,note_on,0,0,1,,,,,,,,,0,,,84,100
77490,note_on,0,0,1,,,,,,,,,0,,,77,0
77490,note_on,30,0,4,,,,,,,,,0,,,56,0
77490,note_on,30,0,1,,,,,,,,,0,,,84,0
77520,note_on,30,0,4,,,,,,,,,0,,,34,120
77520,note_on,30,0,1,,,,,,,,,0,,,94,120
77550,note_on,30,0,4,,,,,,,,,0,,,34,0
77550,note_on,30,0,1,,,,,,,,,0,,,94,0
77580,note_on,30,0,4,,,,,,,,,0,,,46,100
77580,note_on,30,0,1,,,,,,,,,0,,,82,100
77610,note_on,30,0,4,,,,,,,,,0,,,46,0
77610,note_on,30,0,1,,,,,,,,,0,,,82,0
77640,note_on,30,0,4,,,,,,,,,0,,,36,120
77640,note_on,30,0,1,,,,,,,,,0,,,96,120
77670,note_on,30,0,4,,,,,,,,,0,,,36,0
77670,note_on,30,0,1,,,,,,,,,0,,,96,0
77700,note_on,30,0,4,,,,,,,,,0,,,48,100
77700,note_on,30,0,1,,,,,,,,,0,,,84,100
77730,note_on,30,0,4,,,,,,,,,0,,,48,0
77730,note_on,30,0,1,,,,,,,,,0,,,84,0
77760,note_on,0,0,1,,,,,,,,,0,,,89,100
77760,note_on,30,0,1,,,,,,,,,0,,,101,100
77760,note_on,30,0,4,,,,,,,,,0,,,29,100
77760,note_on,0,0,4,,,,,,,,,0,,,41,100
77790,note_on,0,0,1,,,,,,,,,0,,,101,0
77790,note_on,0,0,4,,,,,,,,,0,,,29,0
77790,note_on,30,0,4,,,,,,,,,0,,,41,0
77790,note_on,30,0,1,,,,,,,,,0,,,89,0
77820,note_on,30,0,1,,,,,,,,,0,,,91,100
77820,note_on,0,0,4,,,,,,,,,0,,,53,120
77820,note_on,0,0,4,,,,,,,,,0,,,58,120
77820,note_on,30,0,4,,,,,,,,,0,,,64,120
77820,note_on,0,0,4,,,,,,,,,0,,,61,120
77820,control_change,6000,0,5,,,,,,,,,0,64,127,,
77840,note_on,20,0,1,,,,,,,,,0,,,91,0
77840,note_on,0,0,1,,,,,,,,,0,,,92,100
77860,note_on,0,0,1,,,,,,,,,0,,,91,100
77860,note_on,20,0,1,,,,,,,,,0,,,92,0
77880,note_on,0,0,1,,,,,,,,,0,,,92,100
77880,note_on,20,0,1,,,,,,,,,0,,,91,0
77895,note_on,0,0,1,,,,,,,,,0,,,91,100
77895,note_on,15,0,1,,,,,,,,,0,,,92,0
77910,note_on,0,0,1,,,,,,,,,0,,,92,100
77910,note_on,15,0,1,,,,,,,,,0,,,91,0
77925,note_on,0,0,1,,,,,,,,,0,,,91,100
77925,note_on,15,0,1,,,,,,,,,0,,,92,0
77940,note_on,15,0,1,,,,,,,,,0,,,91,0
77940,note_on,0,0,1,,,,,,,,,0,,,92,100
77955,note_on,15,0,1,,,,,,,,,0,,,92,0
77955,note_on,0,0,1,,,,,,,,,0,,,91,100
77970,note_on,15,0,1,,,,,,,,,0,,,91,0
77970,note_on,0,0,1,,,,,,,,,0,,,92,100
77985,note_on,15,0,1,,,,,,,,,0,,,92,0
77985,note_on,0,0,1,,,,,,,,,0,,,91,100
78000,note_on,15,0,1,,,,,,,,,0,,,91,0
78000,note_on,0,0,1,,,,,,,,,0,,,92,100
78015,note_on,15,0,1,,,,,,,,,0,,,92,0
78015,note_on,0,0,1,,,,,,,,,0,,,91,100
78030,note_on,15,0,1,,,,,,,,,0,,,91,0
78030,note_on,0,0,1,,,,,,,,,0,,,90,100
78045,note_on,0,0,1,,,,,,,,,0,,,91,100
78045,note_on,15,0,1,,,,,,,,,0,,,90,0
78060,note_on,0,0,1,,,,,,,,,0,,,92,100
78060,note_on,15,0,1,,,,,,,,,0,,,91,0
78090,note_on,0,0,1,,,,,,,,,0,,,91,100
78090,note_on,30,0,1,,,,,,,,,0,,,92,0
78120,note_on,0,0,4,,,,,,,,,0,,,56,100
78120,note_on,0,0,4,,,,,,,,,0,,,60,100
78120,note_on,0,0,4,,,,,,,,,0,,,65,100
78120,note_on,0,0,4,,,,,,,,,0,,,58,0
78120,control_change,300,0,5,,,,,,,,,0,64,0,,
78120,note_on,0,0,4,,,,,,,,,0,,,61,0
78120,note_on,300,0,4,,,,,,,,,0,,,53,0
78120,note_on,0,0,4,,,,,,,,,0,,,53,100
78120,note_on,30,0,1,,,,,,,,,0,,,91,0
78120,note_on,0,0,1,,,,,,,,,0,,,89,100
78120,note_on,0,0,4,,,,,,,,,0,,,64,0
78150,note_on,0,0,4,,,,,,,,,0,,,56,0
78150,note_on,0,0,4,,,,,,,,,0,,,60,0
78150,note_on,30,0,1,,,,,,,,,0,,,89,0
78150,note_on,30,0,4,,,,,,,,,0,,,53,0
78150,note_on,0,0,4,,,,,,,,,0,,,65,0
78180,note_on,0,0,4,,,,,,,,,0,,,58,120
78180,note_on,30,0,4,,,,,,,,,0,,,64,120
78180,note_on,0,0,4,,,,,,,,,0,,,61,120
78180,note_on,0,0,4,,,,,,,,,0,,,53,120
78180,control_change,60,0,5,,,,,,,,,0,64,127,,
78180,note_on,30,0,1,,,,,,,,,0,,,79,100
78200,note_on,0,0,1,,,,,,,,,0,,,80,100
78200,note_on,20,0,1,,,,,,,,,0,,,79,0
78220,note_on,20,0,1,,,,,,,,,0,,,80,0
78220,note_on,0,0,1,,,,,,,,,0,,,79,100
78240,note_on,0,0,1,,,,,,,,,0,,,80,100
78240,note_on,20,0,1,,,,,,,,,0,,,79,0
78255,note_on,0,0,1,,,,,,,,,0,,,79,100
78255,note_on,15,0,1,,,,,,,,,0,,,80,0
78270,note_on,0,0,1,,,,,,,,,0,,,80,100
78270,note_on,15,0,1,,,,,,,,,0,,,79,0
78285,note_on,0,0,1,,,,,,,,,0,,,79,100
78285,note_on,15,0,1,,,,,,,,,0,,,80,0
78300,note_on,0,0,1,,,,,,,,,0,,,80,100
78300,note_on,15,0,1,,,,,,,,,0,,,79,0
78315,note_on,15,0,1,,,,,,,,,0,,,80,0
78315,note_on,0,0,1,,,,,,,,,0,,,79,100
78330,note_on,0,0,1,,,,,,,,,0,,,80,100
78330,note_on,15,0,1,,,,,,,,,0,,,79,0
78345,note_on,0,0,1,,,,,,,,,0,,,79,100
78345,note_on,15,0,1,,,,,,,,,0,,,80,0
78360,note_on,0,0,1,,,,,,,,,0,,,80,100
78360,note_on,15,0,1,,,,,,,,,0,,,79,0
78375,note_on,0,0,1,,,,,,,,,0,,,79,100
78375,note_on,15,0,1,,,,,,,,,0,,,80,0
78390,note_on,0,0,1,,,,,,,,,0,,,78,100
78390,note_on,15,0,1,,,,,,,,,0,,,79,0
78405,note_on,0,0,1,,,,,,,,,0,,,79,100
78405,note_on,15,0,1,,,,,,,,,0,,,78,0
78420,note_on,0,0,1,,,,,,,,,0,,,80,100
78420,note_on,15,0,1,,,,,,,,,0,,,79,0
78450,note_on,30,0,1,,,,,,,,,0,,,80,0
78450,note_on,0,0,1,,,,,,,,,0,,,79,100
78480,note_on,0,0,4,,,,,,,,,0,,,61,0
78480,note_on,0,0,1,,,,,,,,,0,,,77,100
78480,control_change,300,0,5,,,,,,,,,0,64,0,,
78480,note_on,30,0,1,,,,,,,,,0,,,79,0
78480,note_on,0,0,4,,,,,,,,,0,,,58,0
78480,note_on,0,0,4,,,,,,,,,0,,,65,100
78480,note_on,0,0,4,,,,,,,,,0,,,60,100
78480,note_on,0,0,4,,,,,,,,,0,,,56,100
78480,note_on,300,0,4,,,,,,,,,0,,,53,0
78480,note_on,0,0,4,,,,,,,,,0,,,64,0
78480,note_on,0,0,4,,,,,,,,,0,,,53,100
78510,note_on,30,0,4,,,,,,,,,0,,,53,0
78510,note_on,0,0,4,,,,,,,,,0,,,65,0
78510,note_on,0,0,4,,,,,,,,,0,,,60,0
78510,note_on,0,0,4,,,,,,,,,0,,,56,0
78510,note_on,30,0,1,,,,,,,,,0,,,77,0
78540,note_on,30,0,4,,,,,,,,,0,,,64,120
78540,control_change,60,0,5,,,,,,,,,0,64,127,,
78540,note_on,30,0,1,,,,,,,,,0,,,91,100
78540,note_on,0,0,4,,,,,,,,,0,,,61,120
78540,note_on,0,0,4,,,,,,,,,0,,,53,120
78540,note_on,0,0,4,,,,,,,,,0,,,58,120
78560,note_on,20,0,1,,,,,,,,,0,,,91,0
78560,note_on,0,0,1,,,,,,,,,0,,,92,100
78580,note_on,0,0,1,,,,,,,,,0,,,91,100
78580,note_on,20,0,1,,,,,,,,,0,,,92,0
78600,note_on,20,0,1,,,,,,,,,0,,,91,0
78600,note_on,0,0,1,,,,,,,,,0,,,92,100
78615,note_on,15,0,1,,,,,,,,,0,,,92,0
78615,note_on,0,0,1,,,,,,,,,0,,,91,100
78630,note_on,0,0,1,,,,,,,,,0,,,92,100
78630,note_on,15,0,1,,,,,,,,,0,,,91,0
78645,note_on,0,0,1,,,,,,,,,0,,,91,100
78645,note_on,15,0,1,,,,,,,,,0,,,92,0
78660,note_on,15,0,1,,,,,,,,,0,,,91,0
78660,note_on,0,0,1,,,,,,,,,0,,,90,100
78675,note_on,15,0,1,,,,,,,,,0,,,90,0
78675,note_on,0,0,1,,,,,,,,,0,,,91,100
78690,note_on,15,0,1,,,,,,,,,0,,,91,0
78690,note_on,0,0,1,,,,,,,,,0,,,92,100
78705,note_on,15,0,1,,,,,,,,,0,,,92,0
78705,note_on,0,0,1,,,,,,,,,0,,,94,100
78720,note_on,15,0,1,,,,,,,,,0,,,94,0
78720,note_on,0,0,1,,,,,,,,,0,,,96,100
78735,note_on,0,0,1,,,,,,,,,0,,,97,100
78735,note_on,15,0,1,,,,,,,,,0,,,96,0
78750,note_on,0,0,1,,,,,,,,,0,,,100,100
78750,note_on,15,0,1,,,,,,,,,0,,,97,0
78765,note_on,15,0,1,,,,,,,,,0,,,100,0
78765,note_on,0,0,1,,,,,,,,,0,,,101,100
78780,note_on,15,0,1,,,,,,,,,0,,,101,0
78780,note_on,0,0,1,,,,,,,,,0,,,100,100
78790,note_on,10,0,1,,,,,,,,,0,,,100,0
78790,note_on,0,0,1,,,,,,,,,0,,,97,100
78800,note_on,10,0,1,,,,,,,,,0,,,97,0
78800,note_on,0,0,1,,,,,,,,,0,,,96,100
78810,note_on,10,0,1,,,,,,,,,0,,,96,0
78810,note_on,0,0,1,,,,,,,,,0,,,94,100
78820,note_on,0,0,1,,,,,,,,,0,,,92,100
78820,note_on,10,0,1,,,,,,,,,0,,,94,0
78830,note_on,0,0,1,,,,,,,,,0,,,91,100
78830,note_on,10,0,1,,,,,,,,,0,,,92,0
78840,note_on,10,0,1,,,,,,,,,0,,,91,0
78840,note_on,0,0,4,,,,,,,,,0,,,64,0
78840,note_on,0,0,4,,,,,,,,,0,,,61,0
78840,note_on,0,0,4,,,,,,,,,0,,,58,0
78840,note_on,0,0,4,,,,,,,,,0,,,65,100
78840,note_on,0,0,4,,,,,,,,,0,,,60,100
78840,note_on,0,0,4,,,,,,,,,0,,,56,100
78840,note_on,0,0,4,,,,,,,,,0,,,53,100
78840,control_change,300,0,5,,,,,,,,,0,64,0,,
78840,note_on,0,0,1,,,,,,,,,0,,,89,100
78840,note_on,300,0,4,,,,,,,,,0,,,53,0
78870,note_on,30,0,1,,,,,,,,,0,,,89,0
78870,note_on,0,0,4,,,,,,,,,0,,,60,0
78870,note_on,0,0,4,,,,,,,,,0,,,65,0
78870,note_on,30,0,4,,,,,,,,,0,,,53,0
78870,note_on,0,0,4,,,,,,,,,0,,,56,0
78900,note_on,30,0,4,,,,,,,,,0,,,64,120
78900,note_on,30,0,1,,,,,,,,,0,,,79,100
78900,note_on,0,0,4,,,,,,,,,0,,,58,120
78900,note_on,0,0,4,,,,,,,,,0,,,53,120
78900,control_change,60,0,5,,,,,,,,,0,64,127,,
78900,note_on,0,0,4,,,,,,,,,0,,,61,120
78920,note_on,0,0,1,,,,,,,,,0,,,80,100
78920,note_on,20,0,1,,,,,,,,,0,,,79,0
78940,note_on,0,0,1,,,,,,,,,0,,,79,100
78940,note_on,20,0,1,,,,,,,,,0,,,80,0
78960,note_on,20,0,1,,,,,,,,,0,,,79,0
78960,note_on,0,0,1,,,,,,,,,0,,,80,100
78975,note_on,15,0,1,,,,,,,,,0,,,80,0
78975,note_on,0,0,1,,,,,,,,,0,,,79,100
78990,note_on,15,0,1,,,,,,,,,0,,,79,0
78990,note_on,0,0,1,,,,,,,,,0,,,80,100
79005,note_on,0,0,1,,,,,,,,,0,,,79,100
79005,note_on,15,0,1,,,,,,,,,0,,,80,0
79020,note_on,0,0,1,,,,,,,,,0,,,78,100
79020,set_tempo,7020,1,0,,,,,,476228,,,,,,,
79020,note_on,15,0,1,,,,,,,,,0,,,79,0
79026,note_on,6,0,1,,,,,,,,,0,,,79,100
79027,note_on,1,0,1,,,,,,,,,0,,,78,0
79027,set_tempo,7,1,0,,,,,,484301,,,,,,,
79033,note_on,6,0,1,,,,,,,,,0,,,79,0
79033,note_on,0,0,1,,,,,,,,,0,,,80,100
79034,set_tempo,7,1,0,,,,,,492651,,,,,,,
79040,note_on,7,0,1,,,,,,,,,0,,,80,0
79041,note_on,1,0,1,,,,,,,,,0,,,82,100
79041,set_tempo,7,1,0,,,,,,501295,,,,,,,
79048,set_tempo,7,1,0,,,,,,510247,,,,,,,
79048,note_on,7,0,1,,,,,,,,,0,,,82,0
79049,note_on,1,0,1,,,,,,,,,0,,,84,100
79055,set_tempo,7,1,0,,,,,,519526,,,,,,,
79056,note_on,0,0,1,,,,,,,,,0,,,85,100
79056,note_on,7,0,1,,,,,,,,,0,,,84,0
79062,set_tempo,7,1,0,,,,,,529147,,,,,,,
79063,note_on,7,0,1,,,,,,,,,0,,,85,0
79065,note_on,2,0,1,,,,,,,,,0,,,88,100
79069,set_tempo,7,1,0,,,,,,540589,,,,,,,
79072,note_on,7,0,1,,,,,,,,,0,,,88,0
79073,note_on,1,0,1,,,,,,,,,0,,,89,100
79076,set_tempo,7,1,0,,,,,,551015,,,,,,,
79080,note_on,7,0,1,,,,,,,,,0,,,89,0
79081,note_on,1,0,1,,,,,,,,,0,,,91,100
79083,set_tempo,7,1,0,,,,,,561850,,,,,,,
79088,note_on,7,0,1,,,,,,,,,0,,,91,0
79089,note_on,1,0,1,,,,,,,,,0,,,89,100
79090,set_tempo,7,1,0,,,,,,573121,,,,,,,
79096,note_on,0,0,1,,,,,,,,,0,,,88,100
79096,note_on,7,0,1,,,,,,,,,0,,,89,0
79097,set_tempo,7,1,0,,,,,,584852,,,,,,,
79103,note_on,7,0,1,,,,,,,,,0,,,88,0
79104,set_tempo,7,1,0,,,,,,597074,,,,,,,
79105,note_on,2,0,1,,,,,,,,,0,,,85,100
79111,set_tempo,7,1,0,,,,,,611683,,,,,,,
79112,note_on,7,0,1,,,,,,,,,0,,,85,0
79113,note_on,1,0,1,,,,,,,,,0,,,84,100
79118,set_tempo,7,1,0,,,,,,625065,,,,,,,
79120,note_on,7,0,1,,,,,,,,,0,,,84,0
79121,note_on,1,0,1,,,,,,,,,0,,,82,100
79125,set_tempo,7,1,0,,,,,,639046,,,,,,,
79128,note_on,7,0,1,,,,,,,,,0,,,82,0
79130,note_on,2,0,1,,,,,,,,,0,,,80,100
79132,set_tempo,7,1,0,,,,,,653666,,,,,,,
79137,note_on,0,0,1,,,,,,,,,0,,,79,100
79137,note_on,7,0,1,,,,,,,,,0,,,80,0
79140,set_tempo,8,1,0,,,,,,668971,,,,,,,
79144,note_on,7,0,1,,,,,,,,,0,,,79,0
79145,note_on,1,0,1,,,,,,,,,0,,,77,100
79147,set_tempo,7,1,0,,,,,,685010,,,,,,,
79152,note_on,7,0,1,,,,,,,,,0,,,77,0
79154,note_on,2,0,1,,,,,,,,,0,,,76,100
79154,set_tempo,7,1,0,,,,,,704308,,,,,,,
79160,note_on,6,0,1,,,,,,,,,0,,,73,100
79161,set_tempo,7,1,0,,,,,,722109,,,,,,,
79161,note_on,1,0,1,,,,,,,,,0,,,76,0
79167,note_on,6,0,1,,,,,,,,,0,,,73,0
79168,set_tempo,7,1,0,,,,,,740832,,,,,,,
79169,note_on,2,0,1,,,,,,,,,0,,,72,100
79175,set_tempo,7,1,0,,,,,,760553,,,,,,,
79176,note_on,7,0,1,,,,,,,,,0,,,72,0
79177,note_on,1,0,1,,,,,,,,,0,,,70,100
79182,set_tempo,7,1,0,,,,,,781352,,,,,,,
79184,note_on,7,0,1,,,,,,,,,0,,,70,0
79185,note_on,1,0,1,,,,,,,,,0,,,68,100
79189,set_tempo,7,1,0,,,,,,803320,,,,,,,
79192,note_on,7,0,1,,,,,,,,,0,,,68,0
79193,note_on,1,0,1,,,,,,,,,0,,,67,100
79196,set_tempo,7,1,0,,,,,,829990,,,,,,,
79200,note_on,7,0,1,,,,,,,,,0,,,67,0
79200,note_on,0,0,1,,,,,,,,,0,,,65,100
79200,note_on,0,0,4,,,,,,,,,0,,,64,0
79200,note_on,0,0,4,,,,,,,,,0,,,61,0
79200,note_on,300,0,4,,,,,,,,,0,,,53,0
79200,note_on,0,0,4,,,,,,,,,0,,,58,0
79200,note_on,0,0,4,,,,,,,,,0,,,60,100
79200,note_on,0,0,4,,,,,,,,,0,,,56,100
79200,note_on,0,0,4,,,,,,,,,0,,,53,100
79200,marker,0,1,0,,,,,,,,,,,,,
79200,set_tempo,4,1,0,,,,,,476190,,,,,,,
79200,control_change,300,0,5,,,,,,,,,0,64,0,,
79230,note_on,30,0,1,,,,,,,,,0,,,65,0
79230,note_on,30,0,4,,,,,,,,,0,,,53,0
79230,note_on,0,0,4,,,,,,,,,0,,,56,0
79230,note_on,0,0,4,,,,,,,,,0,,,60,0
79260,note_on,30,0,1,,,,,,,,,0,,,60,60
79290,note_on,30,0,1,,,,,,,,,0,,,60,0
79320,note_on,30,0,1,,,,,,,,,0,,,65,60
79350,note_on,30,0,1,,,,,,,,,0,,,65,0
79380,note_on,30,0,1,,,,,,,,,0,,,60,60
79410,note_on,30,0,1,,,,,,,,,0,,,60,0
79440,note_on,30,0,1,,,,,,,,,0,,,65,60
79470,note_on,30,0,1,,,,,,,,,0,,,65,0
79500,note_on,30,0,1,,,,,,,,,0,,,60,60
79530,note_on,30,0,1,,,,,,,,,0,,,60,0
79560,note_on,30,0,1,,,,,,,,,0,,,65,60
79590,note_on,30,0,1,,,,,,,,,0,,,65,0
79620,note_on,30,0,1,,,,,,,,,0,,,60,60
79650,note_on,30,0,1,,,,,,,,,0,,,60,0
79680,note_on,30,0,1,,,,,,,,,0,,,65,60
79710,note_on,30,0,1,,,,,,,,,0,,,65,0
79740,note_on,30,0,1,,,,,,,,,0,,,60,60
79770,note_on,30,0,1,,,,,,,,,0,,,60,0
79800,note_on,30,0,1,,,,,,,,,0,,,65,59
79830,note_on,30,0,1,,,,,,,,,0,,,65,0
79860,note_on,30,0,1,,,,,,,,,0,,,60,58
79890,note_on,30,0,1,,,,,,,,,0,,,60,0
79920,note_on,30,0,1,,,,,,,,,0,,,68,56
79920,note_on,0,0,1,,,,,,,,,0,,,65,56
79950,note_on,30,0,1,,,,,,,,,0,,,65,0
79950,note_on,0,0,1,,,,,,,,,0,,,68,0
79980,note_on,30,0,1,,,,,,,,,0,,,60,55
79980,note_on,0,0,1,,,,,,,,,0,,,65,55
80010,note_on,30,0,1,,,,,,,,,0,,,65,0
80010,note_on,0,0,1,,,,,,,,,0,,,60,0
80040,note_on,30,0,1,,,,,,,,,0,,,68,53
80040,note_on,0,0,1,,,,,,,,,0,,,65,53
80070,note_on,30,0,1,,,,,,,,,0,,,65,0
80070,note_on,0,0,1,,,,,,,,,0,,,68,0
80100,note_on,0,0,1,,,,,,,,,0,,,65,52
80100,note_on,30,0,1,,,,,,,,,0,,,60,52
80130,note_on,30,0,1,,,,,,,,,0,,,65,0
80130,note_on,0,0,1,,,,,,,,,0,,,60,0
80160,note_on,30,0,1,,,,,,,,,0,,,68,51
80160,note_on,0,0,1,,,,,,,,,0,,,65,51
80190,note_on,30,0,1,,,,,,,,,0,,,65,0
80190,note_on,0,0,1,,,,,,,,,0,,,68,0
80220,note_on,30,0,1,,,,,,,,,0,,,60,49
80220,note_on,0,0,1,,,,,,,,,0,,,65,49
80250,note_on,30,0,1,,,,,,,,,0,,,65,0
80250,note_on,0,0,1,,,,,,,,,0,,,60,0
80280,note_on,30,0,1,,,,,,,,,0,,,68,48
80280,note_on,0,0,1,,,,,,,,,0,,,65,48
80310,note_on,30,0,1,,,,,,,,,0,,,65,0
80310,note_on,0,0,1,,,,,,,,,0,,,68,0
80340,note_on,30,0,1,,,,,,,,,0,,,60,46
80340,note_on,0,0,1,,,,,,,,,0,,,65,46
80370,note_on,30,0,1,,,,,,,,,0,,,65,0
80370,note_on,0,0,1,,,,,,,,,0,,,60,0
80400,note_on,30,0,1,,,,,,,,,0,,,68,45
80400,note_on,0,0,1,,,,,,,,,0,,,65,45
80430,note_on,30,0,1,,,,,,,,,0,,,65,0
80430,note_on,0,0,1,,,,,,,,,0,,,68,0
80460,note_on,0,0,1,,,,,,,,,0,,,65,43
80460,note_on,30,0,1,,,,,,,,,0,,,60,43
80490,note_on,0,0,1,,,,,,,,,0,,,60,0
80490,note_on,30,0,1,,,,,,,,,0,,,65,0
80520,note_on,30,0,1,,,,,,,,,0,,,68,42
80520,note_on,0,0,1,,,,,,,,,0,,,65,42
80550,note_on,30,0,1,,,,,,,,,0,,,65,0
80550,note_on,0,0,1,,,,,,,,,0,,,68,0
80580,note_on,30,0,1,,,,,,,,,0,,,60,41
80580,note_on,0,0,1,,,,,,,,,0,,,65,41
80610,note_on,30,0,1,,,,,,,,,0,,,65,0
80610,note_on,0,0,1,,,,,,,,,0,,,60,0
80640,note_on,0,0,4,,,,,,,,,0,,,44,40
80640,note_on,1410,0,4,,,,,,,,,0,,,37,40
80640,note_on,0,0,1,,,,,,,,,0,,,65,40
80640,note_on,0,0,4,,,,,,,,,0,,,49,40
80640,note_on,30,0,1,,,,,,,,,0,,,68,40
80670,note_on,0,0,1,,,,,,,,,0,,,68,0
80670,note_on,30,0,1,,,,,,,,,0,,,65,0
80700,note_on,30,0,1,,,,,,,,,0,,,61,40
80700,note_on,0,0,1,,,,,,,,,0,,,65,40
80730,note_on,30,0,1,,,,,,,,,0,,,65,0
80730,note_on,0,0,1,,,,,,,,,0,,,61,0
80760,note_on,0,0,1,,,,,,,,,0,,,65,40
80760,note_on,30,0,1,,,,,,,,,0,,,68,40
80790,note_on,0,0,1,,,,,,,,,0,,,68,0
80790,note_on,30,0,1,,,,,,,,,0,,,65,0
80820,note_on,0,0,1,,,,,,,,,0,,,65,40
80820,note_on,30,0,1,,,,,,,,,0,,,61,40
80850,note_on,30,0,1,,,,,,,,,0,,,65,0
80850,note_on,0,0,1,,,,,,,,,0,,,61,0
80880,note_on,0,0,1,,,,,,,,,0,,,65,40
80880,note_on,30,0,1,,,,,,,,,0,,,68,40
80910,note_on,0,0,1,,,,,,,,,0,,,68,0
80910,note_on,30,0,1,,,,,,,,,0,,,65,0
80940,note_on,30,0,1,,,,,,,,,0,,,61,40
80940,note_on,0,0,1,,,,,,,,,0,,,65,40
80970,note_on,30,0,1,,,,,,,,,0,,,65,0
80970,note_on,0,0,1,,,,,,,,,0,,,61,0
81000,note_on,30,0,1,,,,,,,,,0,,,68,40
81000,note_on,0,0,1,,,,,,,,,0,,,65,40
81030,note_on,30,0,1,,,,,,,,,0,,,65,0
81030,note_on,0,0,1,,,,,,,,,0,,,68,0
81060,note_on,30,0,1,,,,,,,,,0,,,61,40
81060,note_on,0,0,1,,,,,,,,,0,,,65,40
81090,note_on,0,0,1,,,,,,,,,0,,,61,0
81090,note_on,30,0,1,,,,,,,,,0,,,65,0
81120,note_on,0,0,1,,,,,,,,,0,,,65,40
81120,note_on,30,0,1,,,,,,,,,0,,,68,40
81150,note_on,0,0,1,,,,,,,,,0,,,68,0
81150,note_on,30,0,1,,,,,,,,,0,,,65,0
81180,note_on,30,0,1,,,,,,,,,0,,,61,40
81180,note_on,0,0,1,,,,,,,,,0,,,65,40
81210,note_on,0,0,1,,,,,,,,,0,,,61,0
81210,note_on,30,0,1,,,,,,,,,0,,,65,0
81240,note_on,0,0,1,,,,,,,,,0,,,65,40
81240,note_on,30,0,1,,,,,,,,,0,,,68,40
81270,note_on,0,0,1,,,,,,,,,0,,,68,0
81270,note_on,30,0,1,,,,,,,,,0,,,65,0
81300,note_on,0,0,1,,,,,,,,,0,,,65,40
81300,note_on,30,0,1,,,,,,,,,0,,,61,40
81330,note_on,0,0,1,,,,,,,,,0,,,61,0
81330,note_on,30,0,1,,,,,,,,,0,,,65,0
81360,note_on,0,0,1,,,,,,,,,0,,,68,40
81360,note_on,0,0,4,,,,,,,,,0,,,48,40
81360,note_on,720,0,4,,,,,,,,,0,,,49,0
81360,note_on,0,0,4,,,,,,,,,0,,,44,0
81360,note_on,0,0,4,,,,,,,,,0,,,37,0
81360,note_on,0,0,4,,,,,,,,,0,,,36,40
81360,note_on,0,0,4,,,,,,,,,0,,,44,40
81360,note_on,30,0,1,,,,,,,,,0,,,66,40
81390,note_on,30,0,1,,,,,,,,,0,,,68,0
81390,note_on,0,0,1,,,,,,,,,0,,,66,0
81420,note_on,30,0,1,,,,,,,,,0,,,63,40
81420,note_on,0,0,1,,,,,,,,,0,,,66,40
81450,note_on,0,0,1,,,,,,,,,0,,,63,0
81450,note_on,30,0,1,,,,,,,,,0,,,66,0
81480,note_on,30,0,1,,,,,,,,,0,,,66,40
81480,note_on,0,0,1,,,,,,,,,0,,,68,40
81510,note_on,30,0,1,,,,,,,,,0,,,68,0
81510,note_on,0,0,1,,,,,,,,,0,,,66,0
81540,note_on,30,0,1,,,,,,,,,0,,,63,40
81540,note_on,0,0,1,,,,,,,,,0,,,66,40
81570,note_on,30,0,1,,,,,,,,,0,,,66,0
81570,note_on,0,0,1,,,,,,,,,0,,,63,0
81600,note_on,30,0,1,,,,,,,,,0,,,66,40
81600,note_on,0,0,1,,,,,,,,,0,,,68,40
81630,note_on,30,0,1,,,,,,,,,0,,,68,0
81630,note_on,0,0,1,,,,,,,,,0,,,66,0
81660,note_on,0,0,1,,,,,,,,,0,,,66,40
81660,note_on,30,0,1,,,,,,,,,0,,,63,40
81690,note_on,0,0,1,,,,,,,,,0,,,63,0
81690,note_on,30,0,1,,,,,,,,,0,,,66,0
81720,note_on,0,0,1,,,,,,,,,0,,,68,40
81720,note_on,30,0,1,,,,,,,,,0,,,66,40
81750,note_on,0,0,1,,,,,,,,,0,,,66,0
81750,note_on,30,0,1,,,,,,,,,0,,,68,0
81780,note_on,0,0,1,,,,,,,,,0,,,68,40
81780,note_on,30,0,1,,,,,,,,,0,,,75,40
81810,note_on,30,0,1,,,,,,,,,0,,,68,0
81810,note_on,0,0,1,,,,,,,,,0,,,75,0
81840,note_on,0,0,1,,,,,,,,,0,,,75,40
81840,note_on,30,0,1,,,,,,,,,0,,,78,40
81870,note_on,0,0,1,,,,,,,,,0,,,78,0
81870,note_on,30,0,1,,,,,,,,,0,,,75,0
81900,note_on,0,0,1,,,,,,,,,0,,,80,40
81900,note_on,30,0,1,,,,,,,,,0,,,78,40
81930,note_on,0,0,1,,,,,,,,,0,,,78,0
81930,note_on,30,0,1,,,,,,,,,0,,,80,0
81960,note_on,30,0,1,,,,,,,,,0,,,87,40
81960,note_on,0,0,1,,,,,,,,,0,,,80,40
81990,note_on,0,0,1,,,,,,,,,0,,,87,0
81990,note_on,30,0,1,,,,,,,,,0,,,80,0
82020,note_on,30,0,1,,,,,,,,,0,,,90,40
82020,note_on,0,0,1,,,,,,,,,0,,,87,40
82050,note_on,0,0,1,,,,,,,,,0,,,90,0
82050,note_on,30,0,1,,,,,,,,,0,,,87,0
82080,note_on,0,0,4,,,,,,,,,0,,,37,40
82080,note_on,0,0,4,,,,,,,,,0,,,36,0
82080,note_on,0,0,4,,,,,,,,,0,,,44,0
82080,note_on,720,0,4,,,,,,,,,0,,,48,0
82080,note_on,0,0,4,,,,,,,,,0,,,49,40
82080,note_on,0,0,1,,,,,,,,,0,,,85,40
82080,note_on,30,0,1,,,,,,,,,0,,,89,40
82080,note_on,0,0,4,,,,,,,,,0,,,44,40
82110,note_on,0,0,1,,,,,,,,,0,,,89,0
82110,note_on,30,0,1,,,,,,,,,0,,,85,0
82140,note_on,0,0,1,,,,,,,,,0,,,80,40
82140,note_on,30,0,1,,,,,,,,,0,,,77,40
82170,note_on,0,0,1,,,,,,,,,0,,,77,0
82170,note_on,30,0,1,,,,,,,,,0,,,80,0
82200,note_on,30,0,1,,,,,,,,,0,,,89,40
82200,note_on,0,0,1,,,,,,,,,0,,,85,40
82230,note_on,30,0,1,,,,,,,,,0,,,85,0
82230,note_on,0,0,1,,,,,,,,,0,,,89,0
82260,note_on,30,0,1,,,,,,,,,0,,,77,40
82260,note_on,0,0,1,,,,,,,,,0,,,80,40
82290,note_on,30,0,1,,,,,,,,,0,,,80,0
82290,note_on,0,0,1,,,,,,,,,0,,,77,0
82320,note_on,30,0,1,,,,,,,,,0,,,89,40
82320,note_on,0,0,1,,,,,,,,,0,,,85,40
82350,note_on,30,0,1,,,,,,,,,0,,,85,0
82350,note_on,0,0,1,,,,,,,,,0,,,89,0
82380,note_on,30,0,1,,,,,,,,,0,,,77,40
82380,note_on,0,0,1,,,,,,,,,0,,,80,40
82410,note_on,30,0,1,,,,,,,,,0,,,80,0
82410,note_on,0,0,1,,,,,,,,,0,,,77,0
82440,note_on,30,0,1,,,,,,,,,0,,,89,40
82440,note_on,0,0,1,,,,,,,,,0,,,85,40
82470,note_on,30,0,1,,,,,,,,,0,,,85,0
82470,note_on,0,0,1,,,,,,,,,0,,,89,0
82500,note_on,30,0,1,,,,,,,,,0,,,80,40
82500,note_on,0,0,1,,,,,,,,,0,,,85,40
82530,note_on,30,0,1,,,,,,,,,0,,,85,0
82530,note_on,0,0,1,,,,,,,,,0,,,80,0
82560,note_on,30,0,1,,,,,,,,,0,,,77,40
82560,note_on,0,0,1,,,,,,,,,0,,,80,40
82590,note_on,30,0,1,,,,,,,,,0,,,80,0
82590,note_on,0,0,1,,,,,,,,,0,,,77,0
82620,note_on,0,0,1,,,,,,,,,0,,,77,40
82620,note_on,30,0,1,,,,,,,,,0,,,73,40
82650,note_on,30,0,1,,,,,,,,,0,,,77,0
82650,note_on,0,0,1,,,,,,,,,0,,,73,0
82680,note_on,30,0,1,,,,,,,,,0,,,68,40
82680,note_on,0,0,1,,,,,,,,,0,,,73,40
82710,note_on,30,0,1,,,,,,,,,0,,,73,0
82710,note_on,0,0,1,,,,,,,,,0,,,68,0
82740,note_on,30,0,1,,,,,,,,,0,,,65,40
82740,note_on,0,0,1,,,,,,,,,0,,,68,40
82770,note_on,0,0,1,,,,,,,,,0,,,65,0
82770,note_on,30,0,1,,,,,,,,,0,,,68,0
82800,note_on,0,0,4,,,,,,,,,0,,,44,0
82800,note_on,30,0,1,,,,,,,,,0,,,66,40
82800,note_on,0,0,1,,,,,,,,,0,,,68,40
82800,note_on,0,0,4,,,,,,,,,0,,,48,40
82800,note_on,0,0,4,,,,,,,,,0,,,44,40
82800,note_on,0,0,4,,,,,,,,,0,,,36,40
82800,note_on,0,0,4,,,,,,,,,0,,,37,0
82800,note_on,720,0,4,,,,,,,,,0,,,49,0
82830,note_on,30,0,1,,,,,,,,,0,,,68,0
82830,note_on,0,0,1,,,,,,,,,0,,,66,0
82860,note_on,30,0,1,,,,,,,,,0,,,63,40
82860,note_on,0,0,1,,,,,,,,,0,,,66,40
82890,note_on,0,0,1,,,,,,,,,0,,,63,0
82890,note_on,30,0,1,,,,,,,,,0,,,66,0
82920,note_on,0,0,1,,,,,,,,,0,,,68,40
82920,note_on,30,0,1,,,,,,,,,0,,,66,40
82950,note_on,0,0,1,,,,,,,,,0,,,66,0
82950,note_on,30,0,1,,,,,,,,,0,,,68,0
82980,note_on,180,0,4,,,,,,,,,0,,,44,0
82980,note_on,0,0,4,,,,,,,,,0,,,45,40
82980,note_on,0,0,1,,,,,,,,,0,,,66,40
82980,note_on,30,0,1,,,,,,,,,0,,,69,40
83010,note_on,30,0,1,,,,,,,,,0,,,66,0
83010,note_on,0,0,1,,,,,,,,,0,,,69,0
83040,note_on,30,0,1,,,,,,,,,0,,,66,40
83040,note_on,0,0,1,,,,,,,,,0,,,63,40
83070,note_on,30,0,1,,,,,,,,,0,,,63,0
83070,note_on,0,0,1,,,,,,,,,0,,,66,0
83100,note_on,30,0,1,,,,,,,,,0,,,69,40
83100,note_on,0,0,1,,,,,,,,,0,,,66,40
83130,note_on,0,0,1,,,,,,,,,0,,,69,0
83130,note_on,30,0,1,,,,,,,,,0,,,66,0
83160,note_on,0,0,1,,,,,,,,,0,,,68,40
83160,note_on,0,0,4,,,,,,,,,0,,,44,40
83160,note_on,180,0,4,,,,,,,,,0,,,45,0
83160,note_on,30,0,1,,,,,,,,,0,,,66,40
83190,note_on,30,0,1,,,,,,,,,0,,,68,0
83190,note_on,0,0,1,,,,,,,,,0,,,66,0
83220,note_on,30,0,1,,,,,,,,,0,,,75,40
83220,note_on,0,0,1,,,,,,,,,0,,,68,40
83250,note_on,0,0,1,,,,,,,,,0,,,75,0
83250,note_on,30,0,1,,,,,,,,,0,,,68,0
83280,note_on,0,0,1,,,,,,,,,0,,,75,40
83280,note_on,30,0,1,,,,,,,,,0,,,78,40
83310,note_on,0,0,1,,,,,,,,,0,,,78,0
83310,note_on,30,0,1,,,,,,,,,0,,,75,0
83340,note_on,30,0,1,,,,,,,,,0,,,78,40
83340,note_on,0,0,1,,,,,,,,,0,,,80,40
83370,note_on,30,0,1,,,,,,,,,0,,,80,0
83370,note_on,0,0,1,,,,,,,,,0,,,78,0
83400,note_on,30,0,1,,,,,,,,,0,,,87,40
83400,note_on,0,0,1,,,,,,,,,0,,,80,40
83430,note_on,30,0,1,,,,,,,,,0,,,80,0
83430,note_on,0,0,1,,,,,,,,,0,,,87,0
83460,note_on,30,0,1,,,,,,,,,0,,,90,40
83460,note_on,0,0,1,,,,,,,,,0,,,87,40
83490,note_on,30,0,1,,,,,,,,,0,,,87,0
83490,note_on,0,0,1,,,,,,,,,0,,,90,0
83520,note_on,0,0,4,,,,,,,,,0,,,49,40
83520,note_on,360,0,4,,,,,,,,,0,,,44,0
83520,note_on,0,0,4,,,,,,,,,0,,,48,0
83520,note_on,0,0,1,,,,,,,,,0,,,85,40
83520,note_on,0,0,4,,,,,,,,,0,,,36,0
83520,note_on,0,0,4,,,,,,,,,0,,,37,40
83520,note_on,0,0,4,,,,,,,,,0,,,44,40
83520,note_on,30,0,1,,,,,,,,,0,,,89,40
83550,note_on,0,0,1,,,,,,,,,0,,,89,0
83550,note_on,30,0,1,,,,,,,,,0,,,85,0
83580,note_on,0,0,1,,,,,,,,,0,,,80,40
83580,note_on,30,0,1,,,,,,,,,0,,,77,40
83610,note_on,0,0,1,,,,,,,,,0,,,77,0
83610,note_on,30,0,1,,,,,,,,,0,,,80,0
83640,note_on,0,0,1,,,,,,,,,0,,,85,40
83640,note_on,30,0,1,,,,,,,,,0,,,89,40
83670,note_on,0,0,1,,,,,,,,,0,,,89,0
83670,note_on,30,0,1,,,,,,,,,0,,,85,0
83700,note_on,180,0,4,,,,,,,,,0,,,44,0
83700,note_on,0,0,4,,,,,,,,,0,,,46,40
83700,note_on,0,0,1,,,,,,,,,0,,,82,40
83700,note_on,30,0,1,,,,,,,,,0,,,77,40
83730,note_on,0,0,1,,,,,,,,,0,,,77,0
83730,note_on,30,0,1,,,,,,,,,0,,,82,0
83760,note_on,0,0,1,,,,,,,,,0,,,85,40
83760,note_on,30,0,1,,,,,,,,,0,,,89,40
83790,note_on,30,0,1,,,,,,,,,0,,,85,0
83790,note_on,0,0,1,,,,,,,,,0,,,89,0
83820,note_on,30,0,1,,,,,,,,,0,,,77,40
83820,note_on,0,0,1,,,,,,,,,0,,,82,40
83850,note_on,0,0,1,,,,,,,,,0,,,77,0
83850,note_on,30,0,1,,,,,,,,,0,,,82,0
83880,note_on,0,0,1,,,,,,,,,0,,,85,40
83880,note_on,30,0,1,,,,,,,,,0,,,89,40
83880,note_on,0,0,4,,,,,,,,,0,,,44,40
83880,note_on,180,0,4,,,,,,,,,0,,,46,0
83910,note_on,0,0,1,,,,,,,,,0,,,89,0
83910,note_on,30,0,1,,,,,,,,,0,,,85,0
83940,note_on,30,0,1,,,,,,,,,0,,,80,40
83940,note_on,0,0,1,,,,,,,,,0,,,85,40
83970,note_on,30,0,1,,,,,,,,,0,,,85,0
83970,note_on,0,0,1,,,,,,,,,0,,,80,0
84000,note_on,0,0,1,,,,,,,,,0,,,80,40
84000,note_on,30,0,1,,,,,,,,,0,,,77,40
84030,note_on,30,0,1,,,,,,,,,0,,,80,0
84030,note_on,0,0,1,,,,,,,,,0,,,77,0
84060,note_on,30,0,1,,,,,,,,,0,,,73,40
84060,note_on,0,0,1,,,,,,,,,0,,,77,40
84090,note_on,30,0,1,,,,,,,,,0,,,77,0
84090,note_on,0,0,1,,,,,,,,,0,,,73,0
84120,note_on,30,0,1,,,,,,,,,0,,,68,40
84120,note_on,0,0,1,,,,,,,,,0,,,73,40
84150,note_on,0,0,1,,,,,,,,,0,,,68,0
84150,note_on,30,0,1,,,,,,,,,0,,,73,0
84180,note_on,30,0,1,,,,,,,,,0,,,65,40
84180,note_on,0,0,1,,,,,,,,,0,,,68,40
84210,note_on,0,0,1,,,,,,,,,0,,,65,0
84210,note_on,30,0,1,,,,,,,,,0,,,68,0
84240,note_on,0,0,4,,,,,,,,,0,,,36,40
84240,note_on,360,0,4,,,,,,,,,0,,,44,0
84240,note_on,0,0,4,,,,,,,,,0,,,49,0
84240,note_on,0,0,4,,,,,,,,,0,,,37,0
84240,note_on,0,0,4,,,,,,,,,0,,,48,40
84240,note_on,0,0,4,,,,,,,,,0,,,41,40
84240,note_on,30,0,1,,,,,,,,,0,,,77,40
84240,note_on,0,0,1,,,,,,,,,0,,,75,40
84270,note_on,30,0,1,,,,,,,,,0,,,75,0
84270,note_on,0,0,1,,,,,,,,,0,,,77,0
84300,note_on,0,0,1,,,,,,,,,0,,,65,40
84300,note_on,30,0,1,,,,,,,,,0,,,69,40
84330,note_on,0,0,1,,,,,,,,,0,,,69,0
84330,note_on,30,0,1,,,,,,,,,0,,,65,0
84360,note_on,0,0,1,,,,,,,,,0,,,77,40
84360,note_on,30,0,1,,,,,,,,,0,,,75,40
84390,note_on,0,0,1,,,,,,,,,0,,,75,0
84390,note_on,30,0,1,,,,,,,,,0,,,77,0
84420,note_on,0,0,4,,,,,,,,,0,,,42,40
84420,note_on,0,0,1,,,,,,,,,0,,,69,40
84420,note_on,180,0,4,,,,,,,,,0,,,41,0
84420,note_on,30,0,1,,,,,,,,,0,,,66,40
84450,note_on,0,0,1,,,,,,,,,0,,,66,0
84450,note_on,30,0,1,,,,,,,,,0,,,69,0
84480,note_on,0,0,1,,,,,,,,,0,,,75,40
84480,note_on,30,0,1,,,,,,,,,0,,,78,40
84510,note_on,0,0,1,,,,,,,,,0,,,78,0
84510,note_on,30,0,1,,,,,,,,,0,,,75,0
84540,note_on,0,0,1,,,,,,,,,0,,,69,40
84540,note_on,30,0,1,,,,,,,,,0,,,66,40
84570,note_on,0,0,1,,,,,,,,,0,,,66,0
84570,note_on,30,0,1,,,,,,,,,0,,,69,0
84600,note_on,180,0,4,,,,,,,,,0,,,42,0
84600,note_on,0,0,4,,,,,,,,,0,,,41,40
84600,note_on,0,0,1,,,,,,,,,0,,,77,40
84600,note_on,30,0,1,,,,,,,,,0,,,75,40
84630,note_on,0,0,1,,,,,,,,,0,,,75,0
84630,note_on,30,0,1,,,,,,,,,0,,,77,0
84660,note_on,0,0,1,,,,,,,,,0,,,69,40
84660,note_on,30,0,1,,,,,,,,,0,,,65,40
84690,note_on,0,0,1,,,,,,,,,0,,,65,0
84690,note_on,30,0,1,,,,,,,,,0,,,69,0
84720,note_on,30,0,1,,,,,,,,,0,,,75,40
84720,note_on,0,0,1,,,,,,,,,0,,,77,40
84750,note_on,30,0,1,,,,,,,,,0,,,77,0
84750,note_on,0,0,1,,,,,,,,,0,,,75,0
84780,note_on,30,0,1,,,,,,,,,0,,,77,40
84780,note_on,0,0,1,,,,,,,,,0,,,81,40
84810,note_on,30,0,1,,,,,,,,,0,,,81,0
84810,note_on,0,0,1,,,,,,,,,0,,,77,0
84840,note_on,30,0,1,,,,,,,,,0,,,87,40
84840,note_on,0,0,1,,,,,,,,,0,,,81,40
84870,note_on,30,0,1,,,,,,,,,0,,,81,0
84870,note_on,0,0,1,,,,,,,,,0,,,87,0
84900,note_on,30,0,1,,,,,,,,,0,,,89,40
84900,note_on,0,0,1,,,,,,,,,0,,,87,40
84930,note_on,30,0,1,,,,,,,,,0,,,87,0
84930,note_on,0,0,1,,,,,,,,,0,,,89,0
84960,note_on,30,0,1,,,,,,,,,0,,,85,40
84960,note_on,0,0,1,,,,,,,,,0,,,89,40
84960,note_on,360,0,4,,,,,,,,,0,,,41,0
84960,note_on,0,0,4,,,,,,,,,0,,,36,0
84960,note_on,0,0,4,,,,,,,,,0,,,48,0
84960,note_on,0,0,4,,,,,,,,,0,,,46,40
84960,note_on,0,0,4,,,,,,,,,0,,,41,40
84960,note_on,0,0,4,,,,,,,,,0,,,34,40
84990,note_on,0,0,1,,,,,,,,,0,,,85,0
84990,note_on,30,0,1,,,,,,,,,0,,,89,0
85020,note_on,0,0,1,,,,,,,,,0,,,82,40
85020,note_on,30,0,1,,,,,,,,,0,,,77,40
85050,note_on,30,0,1,,,,,,,,,0,,,82,0
85050,note_on,0,0,1,,,,,,,,,0,,,77,0
85080,note_on,30,0,1,,,,,,,,,0,,,89,40
85080,note_on,0,0,1,,,,,,,,,0,,,85,40
85110,note_on,30,0,1,,,,,,,,,0,,,85,0
85110,note_on,0,0,1,,,,,,,,,0,,,89,0
85140,note_on,0,0,4,,,,,,,,,0,,,42,40
85140,note_on,180,0,4,,,,,,,,,0,,,41,0
85140,note_on,30,0,1,,,,,,,,,0,,,78,40
85140,note_on,0,0,1,,,,,,,,,0,,,82,40
85170,note_on,30,0,1,,,,,,,,,0,,,82,0
85170,note_on,0,0,1,,,,,,,,,0,,,78,0
85200,note_on,30,0,1,,,,,,,,,0,,,90,40
85200,note_on,0,0,1,,,,,,,,,0,,,85,40
85230,note_on,30,0,1,,,,,,,,,0,,,85,0
85230,note_on,0,0,1,,,,,,,,,0,,,90,0
85260,note_on,0,0,1,,,,,,,,,0,,,82,40
85260,note_on,30,0,1,,,,,,,,,0,,,78,40
85290,note_on,30,0,1,,,,,,,,,0,,,82,0
85290,note_on,0,0,1,,,,,,,,,0,,,78,0
85320,note_on,180,0,4,,,,,,,,,0,,,42,0
85320,note_on,0,0,4,,,,,,,,,0,,,41,40
85320,note_on,30,0,1,,,,,,,,,0,,,89,40
85320,note_on,0,0,1,,,,,,,,,0,,,85,40
85350,note_on,30,0,1,,,,,,,,,0,,,85,0
85350,note_on,0,0,1,,,,,,,,,0,,,89,0
85380,note_on,30,0,1,,,,,,,,,0,,,82,40
85380,note_on,0,0,1,,,,,,,,,0,,,85,40
85410,note_on,30,0,1,,,,,,,,,0,,,85,0
85410,note_on,0,0,1,,,,,,,,,0,,,82,0
85440,note_on,0,0,1,,,,,,,,,0,,,82,40
85440,note_on,30,0,1,,,,,,,,,0,,,77,40
85470,note_on,30,0,1,,,,,,,,,0,,,82,0
85470,note_on,0,0,1,,,,,,,,,0,,,77,0
85500,note_on,30,0,1,,,,,,,,,0,,,73,40
85500,note_on,0,0,1,,,,,,,,,0,,,77,40
85530,note_on,0,0,1,,,,,,,,,0,,,73,0
85530,note_on,30,0,1,,,,,,,,,0,,,77,0
85560,note_on,0,0,1,,,,,,,,,0,,,73,40
85560,note_on,30,0,1,,,,,,,,,0,,,70,40
85590,note_on,30,0,1,,,,,,,,,0,,,73,0
85590,note_on,0,0,1,,,,,,,,,0,,,70,0
85620,note_on,0,0,1,,,,,,,,,0,,,70,40
85620,note_on,30,0,1,,,,,,,,,0,,,65,40
85650,note_on,0,0,1,,,,,,,,,0,,,65,0
85650,note_on,30,0,1,,,,,,,,,0,,,70,0
85680,note_on,0,0,4,,,,,,,,,0,,,46,40
85680,note_on,0,0,4,,,,,,,,,0,,,34,0
85680,note_on,0,0,4,,,,,,,,,0,,,46,0
85680,note_on,360,0,4,,,,,,,,,0,,,41,0
85680,note_on,30,0,1,,,,,,,,,0,,,73,40
85680,note_on,0,0,1,,,,,,,,,0,,,65,40
85680,note_on,0,0,4,,,,,,,,,0,,,58,40
85710,note_on,0,0,1,,,,,,,,,0,,,73,0
85710,note_on,30,0,1,,,,,,,,,0,,,65,0
85740,note_on,0,0,1,,,,,,,,,0,,,61,40
85740,note_on,30,0,1,,,,,,,,,0,,,65,40
85770,note_on,0,0,1,,,,,,,,,0,,,65,0
85770,note_on,30,0,1,,,,,,,,,0,,,61,0
85800,note_on,0,0,1,,,,,,,,,0,,,65,40
85800,note_on,30,0,1,,,,,,,,,0,,,73,40
85830,note_on,0,0,1,,,,,,,,,0,,,73,0
85830,note_on,30,0,1,,,,,,,,,0,,,65,0
85860,note_on,30,0,1,,,,,,,,,0,,,65,40
85860,note_on,0,0,1,,,,,,,,,0,,,61,40
85890,note_on,30,0,1,,,,,,,,,0,,,61,0
85890,note_on,0,0,1,,,,,,,,,0,,,65,0
85920,note_on,0,0,1,,,,,,,,,0,,,65,40
85920,note_on,30,0,1,,,,,,,,,0,,,73,40
85950,note_on,30,0,1,,,,,,,,,0,,,65,0
85950,note_on,0,0,1,,,,,,,,,0,,,73,0
85980,note_on,30,0,1,,,,,,,,,0,,,65,40
85980,note_on,0,0,1,,,,,,,,,0,,,61,40
86010,note_on,30,0,1,,,,,,,,,0,,,61,0
86010,note_on,0,0,1,,,,,,,,,0,,,65,0
86040,note_on,0,0,1,,,,,,,,,0,,,65,40
86040,note_on,30,0,1,,,,,,,,,0,,,72,40
86040,note_on,360,0,4,,,,,,,,,0,,,58,0
86040,note_on,0,0,4,,,,,,,,,0,,,46,0
86040,note_on,0,0,4,,,,,,,,,0,,,56,40
86040,note_on,0,0,4,,,,,,,,,0,,,44,40
86070,note_on,0,0,1,,,,,,,,,0,,,72,0
86070,note_on,30,0,1,,,,,,,,,0,,,65,0
86100,note_on,30,0,1,,,,,,,,,0,,,65,40
86100,note_on,0,0,1,,,,,,,,,0,,,60,40
86130,note_on,30,0,1,,,,,,,,,0,,,60,0
86130,note_on,0,0,1,,,,,,,,,0,,,65,0
86160,note_on,30,0,1,,,,,,,,,0,,,72,40
86160,note_on,0,0,1,,,,,,,,,0,,,65,40
86190,note_on,30,0,1,,,,,,,,,0,,,65,0
86190,note_on,0,0,1,,,,,,,,,0,,,72,0
86220,note_on,30,0,1,,,,,,,,,0,,,65,40
86220,note_on,0,0,1,,,,,,,,,0,,,60,40
86250,note_on,30,0,1,,,,,,,,,0,,,60,0
86250,note_on,0,0,1,,,,,,,,,0,,,65,0
86280,note_on,30,0,1,,,,,,,,,0,,,72,40
86280,note_on,0,0,1,,,,,,,,,0,,,65,40
86310,note_on,30,0,1,,,,,,,,,0,,,65,0
86310,note_on,0,0,1,,,,,,,,,0,,,72,0
86340,note_on,0,0,1,,,,,,,,,0,,,60,40
86340,note_on,30,0,1,,,,,,,,,0,,,65,40
86370,note_on,30,0,1,,,,,,,,,0,,,60,0
86370,note_on,0,0,1,,,,,,,,,0,,,65,0
86400,note_on,0,0,1,,,,,,,,,0,,,71,40
86400,note_on,30,0,1,,,,,,,,,0,,,68,40
86400,note_on,0,0,4,,,,,,,,,0,,,38,100
86400,note_on,360,0,4,,,,,,,,,0,,,44,0
86400,note_on,0,0,4,,,,,,,,,0,,,56,0
86400,note_on,0,0,4,,,,,,,,,0,,,50,100
86430,note_on,30,0,1,,,,,,,,,0,,,71,0
86430,note_on,0,0,1,,,,,,,,,0,,,68,0
86460,note_on,30,0,1,,,,,,,,,0,,,68,40
86460,note_on,0,0,1,,,,,,,,,0,,,65,40
86490,note_on,30,0,1,,,,,,,,,0,,,65,0
86490,note_on,0,0,1,,,,,,,,,0,,,68,0
86520,note_on,30,0,1,,,,,,,,,0,,,71,40
86520,note_on,0,0,1,,,,,,,,,0,,,68,40
86550,note_on,0,0,1,,,,,,,,,0,,,71,0
86550,note_on,30,0,1,,,,,,,,,0,,,68,0
86580,note_on,0,0,1,,,,,,,,,0,,,65,40
86580,note_on,30,0,1,,,,,,,,,0,,,68,40
86610,note_on,30,0,1,,,,,,,,,0,,,65,0
86610,note_on,0,0,1,,,,,,,,,0,,,68,0
86640,note_on,30,0,1,,,,,,,,,0,,,71,40
86640,note_on,0,0,1,,,,,,,,,0,,,68,40
86670,note_on,30,0,1,,,,,,,,,0,,,68,0
86670,note_on,0,0,1,,,,,,,,,0,,,71,0
86700,note_on,30,0,1,,,,,,,,,0,,,77,40
86700,note_on,0,0,1,,,,,,,,,0,,,71,40
86730,note_on,30,0,1,,,,,,,,,0,,,71,0
86730,note_on,0,0,1,,,,,,,,,0,,,77,0
86760,note_on,0,0,1,,,,,,,,,0,,,77,40
86760,note_on,30,0,1,,,,,,,,,0,,,80,40
86790,note_on,0,0,1,,,,,,,,,0,,,80,0
86790,note_on,30,0,1,,,,,,,,,0,,,77,0
86820,note_on,30,0,1,,,,,,,,,0,,,83,40
86820,note_on,0,0,1,,,,,,,,,0,,,80,40
86850,note_on,30,0,1,,,,,,,,,0,,,80,0
86850,note_on,0,0,1,,,,,,,,,0,,,83,0
86880,note_on,30,0,1,,,,,,,,,0,,,80,40
86880,note_on,0,0,1,,,,,,,,,0,,,77,40
86910,note_on,30,0,1,,,,,,,,,0,,,77,0
86910,note_on,0,0,1,,,,,,,,,0,,,80,0
86940,note_on,30,0,1,,,,,,,,,0,,,77,40
86940,note_on,0,0,1,,,,,,,,,0,,,71,40
86970,note_on,30,0,1,,,,,,,,,0,,,71,0
86970,note_on,0,0,1,,,,,,,,,0,,,77,0
87000,note_on,30,0,1,,,,,,,,,0,,,71,40
87000,note_on,0,0,1,,,,,,,,,0,,,68,40
87030,note_on,30,0,1,,,,,,,,,0,,,68,0
87030,note_on,0,0,1,,,,,,,,,0,,,71,0
87060,note_on,0,0,1,,,,,,,,,0,,,65,40
87060,note_on,30,0,1,,,,,,,,,0,,,68,40
87090,note_on,0,0,1,,,,,,,,,0,,,68,0
87090,note_on,30,0,1,,,,,,,,,0,,,65,0
87120,note_on,0,0,4,,,,,,,,,0,,,52,40
87120,note_on,0,0,1,,,,,,,,,0,,,67,40
87120,note_on,0,0,4,,,,,,,,,0,,,40,40
87120,note_on,720,0,4,,,,,,,,,0,,,50,0
87120,note_on,0,0,4,,,,,,,,,0,,,38,0
87120,note_on,30,0,1,,,,,,,,,0,,,70,40
87150,note_on,30,0,1,,,,,,,,,0,,,67,0
87150,note_on,0,0,1,,,,,,,,,0,,,70,0
87180,note_on,30,0,1,,,,,,,,,0,,,67,40
87180,note_on,0,0,1,,,,,,,,,0,,,61,40
87210,note_on,0,0,1,,,,,,,,,0,,,67,0
87210,note_on,30,0,1,,,,,,,,,0,,,61,0
87240,note_on,0,0,1,,,,,,,,,0,,,67,40
87240,note_on,30,0,1,,,,,,,,,0,,,70,40
87270,note_on,0,0,1,,,,,,,,,0,,,70,0
87270,note_on,30,0,1,,,,,,,,,0,,,67,0
87300,note_on,0,0,1,,,,,,,,,0,,,61,40
87300,note_on,30,0,1,,,,,,,,,0,,,67,40
87330,note_on,0,0,1,,,,,,,,,0,,,67,0
87330,note_on,30,0,1,,,,,,,,,0,,,61,0
87360,note_on,0,0,1,,,,,,,,,0,,,67,40
87360,note_on,30,0,1,,,,,,,,,0,,,70,40
87390,note_on,30,0,1,,,,,,,,,0,,,67,0
87390,note_on,0,0,1,,,,,,,,,0,,,70,0
87420,note_on,30,0,1,,,,,,,,,0,,,67,40
87420,note_on,0,0,1,,,,,,,,,0,,,61,40
87450,note_on,30,0,1,,,,,,,,,0,,,61,0
87450,note_on,0,0,1,,,,,,,,,0,,,67,0
87480,note_on,360,0,4,,,,,,,,,0,,,52,0
87480,note_on,0,0,4,,,,,,,,,0,,,40,0
87480,note_on,0,0,4,,,,,,,,,0,,,41,40
87480,note_on,0,0,4,,,,,,,,,0,,,53,40
87480,note_on,0,0,1,,,,,,,,,0,,,65,40
87480,note_on,30,0,1,,,,,,,,,0,,,69,40
87510,note_on,30,0,1,,,,,,,,,0,,,65,0
87510,note_on,0,0,1,,,,,,,,,0,,,69,0
87540,note_on,0,0,1,,,,,,,,,0,,,60,40
87540,note_on,30,0,1,,,,,,,,,0,,,65,40
87570,note_on,30,0,1,,,,,,,,,0,,,60,0
87570,note_on,0,0,1,,,,,,,,,0,,,65,0
87600,note_on,30,0,1,,,,,,,,,0,,,69,40
87600,note_on,0,0,1,,,,,,,,,0,,,65,40
87630,note_on,30,0,1,,,,,,,,,0,,,65,0
87630,note_on,0,0,1,,,,,,,,,0,,,69,0
87660,note_on,30,0,1,,,,,,,,,0,,,65,40
87660,note_on,0,0,1,,,,,,,,,0,,,60,40
87690,note_on,30,0,1,,,,,,,,,0,,,60,0
87690,note_on,0,0,1,,,,,,,,,0,,,65,0
87720,note_on,30,0,1,,,,,,,,,0,,,69,40
87720,note_on,0,0,1,,,,,,,,,0,,,65,40
87750,note_on,0,0,1,,,,,,,,,0,,,69,0
87750,note_on,30,0,1,,,,,,,,,0,,,65,0
87780,note_on,0,0,1,,,,,,,,,0,,,60,40
87780,note_on,30,0,1,,,,,,,,,0,,,65,40
87810,note_on,0,0,1,,,,,,,,,0,,,65,0
87810,note_on,30,0,1,,,,,,,,,0,,,60,0
87840,note_on,0,0,1,,,,,,,,,0,,,65,40
87840,note_on,30,0,1,,,,,,,,,0,,,68,40
87840,note_on,360,0,4,,,,,,,,,0,,,53,0
87840,note_on,0,0,4,,,,,,,,,0,,,47,100
87840,note_on,0,0,4,,,,,,,,,0,,,35,100
87840,note_on,0,0,4,,,,,,,,,0,,,41,0
87870,note_on,30,0,1,,,,,,,,,0,,,65,0
87870,note_on,0,0,1,,,,,,,,,0,,,68,0
87900,note_on,30,0,1,,,,,,,,,0,,,65,40
87900,note_on,0,0,1,,,,,,,,,0,,,62,40
87930,note_on,0,0,1,,,,,,,,,0,,,65,0
87930,note_on,30,0,1,,,,,,,,,0,,,62,0
87960,note_on,0,0,1,,,,,,,,,0,,,65,40
87960,note_on,30,0,1,,,,,,,,,0,,,68,40
87990,note_on,30,0,1,,,,,,,,,0,,,65,0
87990,note_on,0,0,1,,,,,,,,,0,,,68,0
88020,note_on,0,0,1,,,,,,,,,0,,,62,40
88020,note_on,30,0,1,,,,,,,,,0,,,65,40
88050,note_on,30,0,1,,,,,,,,,0,,,62,0
88050,note_on,0,0,1,,,,,,,,,0,,,65,0
88080,note_on,30,0,1,,,,,,,,,0,,,68,40
88080,note_on,0,0,1,,,,,,,,,0,,,65,40
88110,note_on,30,0,1,,,,,,,,,0,,,65,0
88110,note_on,0,0,1,,,,,,,,,0,,,68,0
88140,note_on,30,0,1,,,,,,,,,0,,,65,40
88140,note_on,0,0,1,,,,,,,,,0,,,62,40
88170,note_on,0,0,1,,,,,,,,,0,,,65,0
88170,note_on,30,0,1,,,,,,,,,0,,,62,0
88200,note_on,0,0,1,,,,,,,,,0,,,62,40
88200,note_on,30,0,1,,,,,,,,,0,,,67,40
88230,note_on,0,0,1,,,,,,,,,0,,,67,0
88230,note_on,30,0,1,,,,,,,,,0,,,62,0
88260,note_on,30,0,1,,,,,,,,,0,,,55,40
88260,note_on,0,0,1,,,,,,,,,0,,,62,40
88290,note_on,30,0,1,,,,,,,,,0,,,62,0
88290,note_on,0,0,1,,,,,,,,,0,,,55,0
88320,note_on,30,0,1,,,,,,,,,0,,,67,40
88320,note_on,0,0,1,,,,,,,,,0,,,62,40
88350,note_on,30,0,1,,,,,,,,,0,,,62,0
88350,note_on,0,0,1,,,,,,,,,0,,,67,0
88380,note_on,30,0,1,,,,,,,,,0,,,65,40
88380,note_on,0,0,1,,,,,,,,,0,,,62,40
88410,note_on,0,0,1,,,,,,,,,0,,,65,0
88410,note_on,30,0,1,,,,,,,,,0,,,62,0
88440,note_on,0,0,1,,,,,,,,,0,,,56,40
88440,note_on,30,0,1,,,,,,,,,0,,,62,40
88470,note_on,30,0,1,,,,,,,,,0,,,56,0
88470,note_on,0,0,1,,,,,,,,,0,,,62,0
88500,note_on,30,0,1,,,,,,,,,0,,,65,40
88500,note_on,0,0,1,,,,,,,,,0,,,62,40
88530,note_on,0,0,1,,,,,,,,,0,,,65,0
88530,note_on,30,0,1,,,,,,,,,0,,,62,0
88560,note_on,720,0,4,,,,,,,,,0,,,47,0
88560,note_on,0,0,4,,,,,,,,,0,,,35,0
88560,note_on,0,0,4,,,,,,,,,0,,,36,40
88560,note_on,0,0,4,,,,,,,,,0,,,48,40
88560,note_on,30,0,1,,,,,,,,,0,,,60,40
88560,note_on,0,0,1,,,,,,,,,0,,,65,40
88590,note_on,30,0,1,,,,,,,,,0,,,65,0
88590,note_on,0,0,1,,,,,,,,,0,,,60,0
88620,note_on,0,0,1,,,,,,,,,0,,,60,40
88620,note_on,30,0,1,,,,,,,,,0,,,56,40
88650,note_on,30,0,1,,,,,,,,,0,,,60,0
88650,note_on,0,0,1,,,,,,,,,0,,,56,0
88680,note_on,30,0,1,,,,,,,,,0,,,65,40
88680,note_on,0,0,1,,,,,,,,,0,,,60,40
88710,note_on,30,0,1,,,,,,,,,0,,,60,0
88710,note_on,0,0,1,,,,,,,,,0,,,65,0
88740,note_on,0,0,1,,,,,,,,,0,,,60,40
88740,note_on,30,0,1,,,,,,,,,0,,,56,40
88770,note_on,30,0,1,,,,,,,,,0,,,60,0
88770,note_on,0,0,1,,,,,,,,,0,,,56,0
88800,note_on,0,0,1,,,,,,,,,0,,,60,40
88800,note_on,30,0,1,,,,,,,,,0,,,65,40
88830,note_on,0,0,1,,,,,,,,,0,,,65,0
88830,note_on,30,0,1,,,,,,,,,0,,,60,0
88860,note_on,0,0,1,,,,,,,,,0,,,60,40
88860,note_on,30,0,1,,,,,,,,,0,,,56,40
88890,note_on,0,0,1,,,,,,,,,0,,,56,0
88890,note_on,30,0,1,,,,,,,,,0,,,60,0
88920,note_on,0,0,1,,,,,,,,,0,,,60,40
88920,note_on,30,0,1,,,,,,,,,0,,,65,40
88950,note_on,0,0,1,,,,,,,,,0,,,65,0
88950,note_on,30,0,1,,,,,,,,,0,,,60,0
88980,note_on,30,0,1,,,,,,,,,0,,,55,40
88980,note_on,0,0,1,,,,,,,,,0,,,60,40
89010,note_on,30,0,1,,,,,,,,,0,,,60,0
89010,note_on,0,0,1,,,,,,,,,0,,,55,0
89040,note_on,0,0,1,,,,,,,,,0,,,60,40
89040,note_on,30,0,1,,,,,,,,,0,,,65,40
89070,note_on,30,0,1,,,,,,,,,0,,,60,0
89070,note_on,0,0,1,,,,,,,,,0,,,65,0
89100,note_on,30,0,1,,,,,,,,,0,,,55,40
89100,note_on,0,0,1,,,,,,,,,0,,,60,40
89130,note_on,30,0,1,,,,,,,,,0,,,60,0
89130,note_on,0,0,1,,,,,,,,,0,,,55,0
89160,note_on,0,0,1,,,,,,,,,0,,,60,40
89160,note_on,30,0,1,,,,,,,,,0,,,64,40
89190,note_on,30,0,1,,,,,,,,,0,,,60,0
89190,note_on,0,0,1,,,,,,,,,0,,,64,0
89220,note_on,30,0,1,,,,,,,,,0,,,68,40
89220,note_on,0,0,1,,,,,,,,,0,,,64,40
89250,note_on,30,0,1,,,,,,,,,0,,,64,0
89250,note_on,0,0,1,,,,,,,,,0,,,68,0
89280,note_on,0,0,4,,,,,,,,,0,,,34,100
89280,note_on,0,0,4,,,,,,,,,0,,,46,100
89280,note_on,0,0,4,,,,,,,,,0,,,36,0
89280,note_on,720,0,4,,,,,,,,,0,,,48,0
89280,note_on,30,0,1,,,,,,,,,0,,,68,40
89280,note_on,0,0,1,,,,,,,,,0,,,65,40
89310,note_on,30,0,1,,,,,,,,,0,,,65,0
89310,note_on,0,0,1,,,,,,,,,0,,,68,0
89340,note_on,30,0,1,,,,,,,,,0,,,61,40
89340,note_on,0,0,1,,,,,,,,,0,,,65,40
89370,note_on,30,0,1,,,,,,,,,0,,,65,0
89370,note_on,0,0,1,,,,,,,,,0,,,61,0
89400,note_on,30,0,1,,,,,,,,,0,,,68,40
89400,note_on,0,0,1,,,,,,,,,0,,,65,40
89430,note_on,30,0,1,,,,,,,,,0,,,65,0
89430,note_on,0,0,1,,,,,,,,,0,,,68,0
89460,note_on,30,0,1,,,,,,,,,0,,,61,40
89460,note_on,0,0,1,,,,,,,,,0,,,65,40
89490,note_on,30,0,1,,,,,,,,,0,,,65,0
89490,note_on,0,0,1,,,,,,,,,0,,,61,0
89520,note_on,30,0,1,,,,,,,,,0,,,68,40
89520,note_on,0,0,1,,,,,,,,,0,,,65,40
89550,note_on,0,0,1,,,,,,,,,0,,,68,0
89550,note_on,30,0,1,,,,,,,,,0,,,65,0
89580,note_on,0,0,1,,,,,,,,,0,,,65,40
89580,note_on,30,0,1,,,,,,,,,0,,,61,40
89610,note_on,0,0,1,,,,,,,,,0,,,61,0
89610,note_on,30,0,1,,,,,,,,,0,,,65,0
89640,note_on,30,0,1,,,,,,,,,0,,,67,40
89640,note_on,0,0,1,,,,,,,,,0,,,65,40
89670,note_on,30,0,1,,,,,,,,,0,,,65,0
89670,note_on,0,0,1,,,,,,,,,0,,,67,0
89700,note_on,30,0,1,,,,,,,,,0,,,61,40
89700,note_on,0,0,1,,,,,,,,,0,,,65,40
89730,note_on,30,0,1,,,,,,,,,0,,,65,0
89730,note_on,0,0,1,,,,,,,,,0,,,61,0
89760,note_on,30,0,1,,,,,,,,,0,,,67,40
89760,note_on,0,0,1,,,,,,,,,0,,,65,40
89790,note_on,30,0,1,,,,,,,,,0,,,65,0
89790,note_on,0,0,1,,,,,,,,,0,,,67,0
89820,note_on,0,0,1,,,,,,,,,0,,,65,40
89820,note_on,540,0,4,,,,,,,,,0,,,46,0
89820,note_on,0,0,4,,,,,,,,,0,,,34,0
89820,note_on,0,0,4,,,,,,,,,0,,,35,40
89820,note_on,0,0,4,,,,,,,,,0,,,47,40
89820,note_on,30,0,1,,,,,,,,,0,,,62,40
89850,note_on,0,0,1,,,,,,,,,0,,,62,0
89850,note_on,30,0,1,,,,,,,,,0,,,65,0
89880,note_on,30,0,1,,,,,,,,,0,,,55,40
89880,note_on,0,0,1,,,,,,,,,0,,,62,40
89910,note_on,0,0,1,,,,,,,,,0,,,55,0
89910,note_on,30,0,1,,,,,,,,,0,,,62,0
89940,note_on,0,0,1,,,,,,,,,0,,,62,40
89940,note_on,30,0,1,,,,,,,,,0,,,65,40
89970,note_on,0,0,1,,,,,,,,,0,,,65,0
89970,note_on,30,0,1,,,,,,,,,0,,,62,0
90000,note_on,0,0,1,,,,,,,,,0,,,65,40
90000,note_on,30,0,1,,,,,,,,,0,,,60,40
90000,note_on,0,0,4,,,,,,,,,0,,,36,40
90000,note_on,0,0,4,,,,,,,,,0,,,35,0
90000,note_on,180,0,4,,,,,,,,,0,,,47,0
90000,note_on,0,0,4,,,,,,,,,0,,,48,40
90030,note_on,0,0,1,,,,,,,,,0,,,60,0
90030,note_on,30,0,1,,,,,,,,,0,,,65,0
90060,note_on,0,0,1,,,,,,,,,0,,,60,40
90060,note_on,30,0,1,,,,,,,,,0,,,56,40
90090,note_on,30,0,1,,,,,,,,,0,,,60,0
90090,note_on,0,0,1,,,,,,,,,0,,,56,0
90120,note_on,0,0,1,,,,,,,,,0,,,60,40
90120,note_on,30,0,1,,,,,,,,,0,,,65,40
90150,note_on,0,0,1,,,,,,,,,0,,,65,0
90150,note_on,30,0,1,,,,,,,,,0,,,60,0
90180,note_on,0,0,1,,,,,,,,,0,,,60,40
90180,note_on,30,0,1,,,,,,,,,0,,,56,40
90210,note_on,0,0,1,,,,,,,,,0,,,56,0
90210,note_on,30,0,1,,,,,,,,,0,,,60,0
90240,note_on,0,0,1,,,,,,,,,0,,,60,40
90240,note_on,30,0,1,,,,,,,,,0,,,65,40
90270,note_on,30,0,1,,,,,,,,,0,,,60,0
90270,note_on,0,0,1,,,,,,,,,0,,,65,0
90300,note_on,30,0,1,,,,,,,,,0,,,56,40
90300,note_on,0,0,1,,,,,,,,,0,,,60,40
90330,note_on,0,0,1,,,,,,,,,0,,,56,0
90330,note_on,30,0,1,,,,,,,,,0,,,60,0
90360,note_on,0,0,1,,,,,,,,,0,,,65,40
90360,note_on,30,0,1,,,,,,,,,0,,,60,40
90390,note_on,0,0,1,,,,,,,,,0,,,60,0
90390,note_on,30,0,1,,,,,,,,,0,,,65,0
90420,note_on,30,0,1,,,,,,,,,0,,,56,40
90420,note_on,0,0,1,,,,,,,,,0,,,60,40
90450,note_on,0,0,1,,,,,,,,,0,,,56,0
90450,note_on,30,0,1,,,,,,,,,0,,,60,0
90480,note_on,0,0,1,,,,,,,,,0,,,60,40
90480,note_on,30,0,1,,,,,,,,,0,,,65,40
90510,note_on,0,0,1,,,,,,,,,0,,,65,0
90510,note_on,30,0,1,,,,,,,,,0,,,60,0
90540,note_on,0,0,1,,,,,,,,,0,,,60,40
90540,note_on,30,0,1,,,,,,,,,0,,,56,40
90570,note_on,0,0,1,,,,,,,,,0,,,56,0
90570,note_on,30,0,1,,,,,,,,,0,,,60,0
90600,note_on,30,0,1,,,,,,,,,0,,,65,40
90600,note_on,0,0,1,,,,,,,,,0,,,60,40
90630,note_on,0,0,1,,,,,,,,,0,,,65,0
90630,note_on,30,0,1,,,,,,,,,0,,,60,0
90660,note_on,0,0,1,,,,,,,,,0,,,60,40
90660,note_on,30,0,1,,,,,,,,,0,,,56,40
90690,note_on,30,0,1,,,,,,,,,0,,,60,0
90690,note_on,0,0,1,,,,,,,,,0,,,56,0
90720,note_on,720,0,4,,,,,,,,,0,,,48,0
90720,note_on,0,0,4,,,,,,,,,0,,,36,0
90720,note_on,0,0,4,,,,,,,,,0,,,36,40
90720,note_on,0,0,4,,,,,,,,,0,,,48,40
90720,note_on,30,0,1,,,,,,,,,0,,,65,40
90720,note_on,0,0,1,,,,,,,,,0,,,60,40
90750,note_on,30,0,1,,,,,,,,,0,,,60,0
90750,note_on,0,0,1,,,,,,,,,0,,,65,0
90780,note_on,30,0,1,,,,,,,,,0,,,55,40
90780,note_on,0,0,1,,,,,,,,,0,,,60,40
90810,note_on,30,0,1,,,,,,,,,0,,,60,0
90810,note_on,0,0,1,,,,,,,,,0,,,55,0
90840,note_on,30,0,1,,,,,,,,,0,,,65,40
90840,note_on,0,0,1,,,,,,,,,0,,,60,40
90870,note_on,30,0,1,,,,,,,,,0,,,60,0
90870,note_on,0,0,1,,,,,,,,,0,,,65,0
90900,note_on,30,0,1,,,,,,,,,0,,,55,40
90900,note_on,0,0,1,,,,,,,,,0,,,60,40
90930,note_on,30,0,1,,,,,,,,,0,,,60,0
90930,note_on,0,0,1,,,,,,,,,0,,,55,0
90960,note_on,0,0,1,,,,,,,,,0,,,60,40
90960,note_on,30,0,1,,,,,,,,,0,,,65,40
90990,note_on,0,0,1,,,,,,,,,0,,,65,0
90990,note_on,30,0,1,,,,,,,,,0,,,60,0
91020,note_on,0,0,1,,,,,,,,,0,,,60,40
91020,note_on,30,0,1,,,,,,,,,0,,,55,40
91050,note_on,0,0,1,,,,,,,,,0,,,55,0
91050,note_on,30,0,1,,,,,,,,,0,,,60,0
91080,note_on,0,0,1,,,,,,,,,0,,,60,40
91080,note_on,30,0,1,,,,,,,,,0,,,64,40
91110,note_on,0,0,1,,,,,,,,,0,,,64,0
91110,note_on,30,0,1,,,,,,,,,0,,,60,0
91140,note_on,0,0,1,,,,,,,,,0,,,60,40
91140,note_on,30,0,1,,,,,,,,,0,,,55,40
91170,note_on,0,0,1,,,,,,,,,0,,,55,0
91170,note_on,30,0,1,,,,,,,,,0,,,60,0
91200,note_on,30,0,1,,,,,,,,,0,,,64,40
91200,note_on,0,0,1,,,,,,,,,0,,,60,40
91230,note_on,30,0,1,,,,,,,,,0,,,60,0
91230,note_on,0,0,1,,,,,,,,,0,,,64,0
91260,note_on,30,0,1,,,,,,,,,0,,,55,40
91260,note_on,0,0,1,,,,,,,,,0,,,60,40
91290,note_on,30,0,1,,,,,,,,,0,,,60,0
91290,note_on,0,0,1,,,,,,,,,0,,,55,0
91320,note_on,0,0,1,,,,,,,,,0,,,60,40
91320,note_on,30,0,1,,,,,,,,,0,,,64,40
91350,note_on,0,0,1,,,,,,,,,0,,,64,0
91350,note_on,30,0,1,,,,,,,,,0,,,60,0
91380,note_on,0,0,1,,,,,,,,,0,,,60,40
91380,note_on,30,0,1,,,,,,,,,0,,,55,40
91410,note_on,0,0,1,,,,,,,,,0,,,55,0
91410,note_on,30,0,1,,,,,,,,,0,,,60,0
91440,note_on,0,0,4,,,,,,,,,0,,,36,0
91440,note_on,720,0,4,,,,,,,,,0,,,48,0
91800,note_on,390,0,1,,,,,,,,,0,,,77,127
91800,set_tempo,12600,1,0,,,,,,400000,,,,,,,
91800,end_of_track,0,1,0,,,,,,,,,,,,,
91800,note_on,360,0,4,,,,,,,,,0,,,41,127
91800,marker,0,1,0,,,,,,,,,,,,,
91830,note_on,30,0,1,,,,,,,,,0,,,77,0
91830,note_on,30,0,4,,,,,,,,,0,,,41,0
91860,note_on,30,0,1,,,,,,,,,0,,,65,110
91860,note_on,30,0,4,,,,,,,,,0,,,53,110
91890,note_on,30,0,1,,,,,,,,,0,,,65,0
91890,note_on,30,0,4,,,,,,,,,0,,,53,0
91920,note_on,30,0,1,,,,,,,,,0,,,77,110
91920,note_on,30,0,4,,,,,,,,,0,,,41,110
91950,note_on,30,0,4,,,,,,,,,0,,,41,0
91950,note_on,30,0,1,,,,,,,,,0,,,77,0
91980,note_on,30,0,4,,,,,,,,,0,,,44,127
91980,note_on,30,0,1,,,,,,,,,0,,,80,127
92010,note_on,30,0,4,,,,,,,,,0,,,44,0
92010,note_on,30,0,1,,,,,,,,,0,,,80,0
92040,note_on,30,0,4,,,,,,,,,0,,,56,110
92040,note_on,30,0,1,,,,,,,,,0,,,68,110
92070,note_on,30,0,4,,,,,,,,,0,,,56,0
92070,note_on,30,0,1,,,,,,,,,0,,,68,0
92100,note_on,30,0,1,,,,,,,,,0,,,80,110
92100,note_on,30,0,4,,,,,,,,,0,,,44,110
92130,note_on,30,0,4,,,,,,,,,0,,,44,0
92130,note_on,30,0,1,,,,,,,,,0,,,80,0
92160,note_on,30,0,4,,,,,,,,,0,,,48,127
92160,note_on,30,0,1,,,,,,,,,0,,,84,127
92190,note_on,30,0,4,,,,,,,,,0,,,48,0
92190,note_on,30,0,1,,,,,,,,,0,,,84,0
92220,note_on,30,0,4,,,,,,,,,0,,,60,110
92220,note_on,30,0,1,,,,,,,,,0,,,72,110
92250,note_on,30,0,4,,,,,,,,,0,,,60,0
92250,note_on,30,0,1,,,,,,,,,0,,,72,0
92280,note_on,30,0,4,,,,,,,,,0,,,48,110
92280,note_on,30,0,1,,,,,,,,,0,,,84,110
92310,note_on,30,0,4,,,,,,,,,0,,,48,0
92310,note_on,30,0,1,,,,,,,,,0,,,84,0
92340,note_on,30,0,4,,,,,,,,,0,,,43,127
92340,note_on,30,0,1,,,,,,,,,0,,,79,127
92370,note_on,30,0,4,,,,,,,,,0,,,43,0
92370,note_on,30,0,1,,,,,,,,,0,,,79,0
92400,note_on,30,0,1,,,,,,,,,0,,,67,110
92400,note_on,30,0,4,,,,,,,,,0,,,55,110
92430,note_on,30,0,4,,,,,,,,,0,,,55,0
92430,note_on,30,0,1,,,,,,,,,0,,,67,0
92460,note_on,30,0,1,,,,,,,,,0,,,79,110
92460,note_on,30,0,4,,,,,,,,,0,,,43,110
92490,note_on,30,0,4,,,,,,,,,0,,,43,0
92490,note_on,30,0,1,,,,,,,,,0,,,79,0
92520,note_on,30,0,4,,,,,,,,,0,,,46,127
92520,note_on,30,0,1,,,,,,,,,0,,,82,127
92550,note_on,30,0,4,,,,,,,,,0,,,46,0
92550,note_on,30,0,1,,,,,,,,,0,,,82,0
92580,note_on,30,0,4,,,,,,,,,0,,,58,110
92580,note_on,30,0,1,,,,,,,,,0,,,70,110
92610,note_on,30,0,1,,,,,,,,,0,,,70,0
92610,note_on,30,0,4,,,,,,,,,0,,,58,0
92640,note_on,30,0,4,,,,,,,,,0,,,46,110
92640,note_on,30,0,1,,,,,,,,,0,,,82,110
92670,note_on,30,0,4,,,,,,,,,0,,,46,0
92670,note_on,30,0,1,,,,,,,,,0,,,82,0
92700,note_on,30,0,4,,,,,,,,,0,,,41,127
92700,note_on,30,0,1,,,,,,,,,0,,,77,127
92730,note_on,30,0,1,,,,,,,,,0,,,77,0
92730,note_on,30,0,4,,,,,,,,,0,,,41,0
92760,note_on,30,0,1,,,,,,,,,0,,,65,110
92760,note_on,30,0,4,,,,,,,,,0,,,53,110
92790,note_on,30,0,1,,,,,,,,,0,,,65,0
92790,note_on,30,0,4,,,,,,,,,0,,,53,0
92820,note_on,30,0,4,,,,,,,,,0,,,41,110
92820,note_on,30,0,1,,,,,,,,,0,,,77,110
92850,note_on,30,0,1,,,,,,,,,0,,,77,0
92850,note_on,30,0,4,,,,,,,,,0,,,41,0
92880,note_on,0,0,1,,,,,,,,,0,,,77,127
92880,note_on,30,0,4,,,,,,,,,0,,,36,127
92880,note_on,30,0,1,,,,,,,,,0,,,80,127
92910,note_on,30,0,4,,,,,,,,,0,,,36,0
92910,note_on,30,0,1,,,,,,,,,0,,,77,0
92910,note_on,0,0,1,,,,,,,,,0,,,80,0
92940,note_on,30,0,4,,,,,,,,,0,,,48,110
92940,note_on,30,0,1,,,,,,,,,0,,,68,110
92970,note_on,30,0,1,,,,,,,,,0,,,68,0
92970,note_on,30,0,4,,,,,,,,,0,,,48,0
93000,note_on,30,0,4,,,,,,,,,0,,,36,110
93000,note_on,0,0,1,,,,,,,,,0,,,77,110
93000,note_on,30,0,1,,,,,,,,,0,,,80,110
93030,note_on,0,0,1,,,,,,,,,0,,,80,0
93030,note_on,30,0,4,,,,,,,,,0,,,36,0
93030,note_on,30,0,1,,,,,,,,,0,,,77,0
93060,note_on,30,0,1,,,,,,,,,0,,,79,127
93060,note_on,0,0,1,,,,,,,,,0,,,76,127
93060,note_on,30,0,4,,,,,,,,,0,,,36,127
93090,note_on,0,0,1,,,,,,,,,0,,,79,0
93090,note_on,30,0,1,,,,,,,,,0,,,76,0
93090,note_on,30,0,4,,,,,,,,,0,,,36,0
93120,note_on,30,0,1,,,,,,,,,0,,,67,110
93120,note_on,30,0,4,,,,,,,,,0,,,48,110
93150,note_on,30,0,1,,,,,,,,,0,,,67,0
93150,note_on,30,0,4,,,,,,,,,0,,,48,0
93180,note_on,30,0,4,,,,,,,,,0,,,36,110
93180,note_on,0,0,1,,,,,,,,,0,,,76,110
93180,note_on,30,0,1,,,,,,,,,0,,,79,110
93210,note_on,30,0,4,,,,,,,,,0,,,36,0
93210,note_on,0,0,1,,,,,,,,,0,,,79,0
93210,note_on,30,0,1,,,,,,,,,0,,,76,0
93240,note_on,30,0,4,,,,,,,,,0,,,41,127
93240,note_on,30,0,1,,,,,,,,,0,,,77,127
93270,note_on,30,0,4,,,,,,,,,0,,,41,0
93270,note_on,30,0,1,,,,,,,,,0,,,77,0
93300,note_on,30,0,4,,,,,,,,,0,,,53,110
93300,note_on,30,0,1,,,,,,,,,0,,,65,110
93330,note_on,30,0,1,,,,,,,,,0,,,65,0
93330,note_on,30,0,4,,,,,,,,,0,,,53,0
93360,note_on,30,0,4,,,,,,,,,0,,,41,110
93360,note_on,30,0,1,,,,,,,,,0,,,77,110
93390,note_on,30,0,4,,,,,,,,,0,,,41,0
93390,note_on,30,0,1,,,,,,,,,0,,,77,0
93420,note_on,30,0,4,,,,,,,,,0,,,37,127
93420,note_on,0,0,1,,,,,,,,,0,,,77,127
93420,note_on,30,0,1,,,,,,,,,0,,,80,127
93450,note_on,0,0,1,,,,,,,,,0,,,80,0
93450,note_on,30,0,1,,,,,,,,,0,,,77,0
93450,note_on,30,0,4,,,,,,,,,0,,,37,0
93480,note_on,30,0,1,,,,,,,,,0,,,68,110
93480,note_on,30,0,4,,,,,,,,,0,,,49,110
93510,note_on,30,0,1,,,,,,,,,0,,,68,0
93510,note_on,30,0,4,,,,,,,,,0,,,49,0
93540,note_on,30,0,1,,,,,,,,,0,,,80,110
93540,note_on,0,0,1,,,,,,,,,0,,,77,110
93540,note_on,30,0,4,,,,,,,,,0,,,37,110
93570,note_on,30,0,4,,,,,,,,,0,,,37,0
93570,note_on,0,0,1,,,,,,,,,0,,,80,0
93570,note_on,30,0,1,,,,,,,,,0,,,77,0
93600,note_on,30,0,4,,,,,,,,,0,,,32,127
93600,note_on,30,0,1,,,,,,,,,0,,,84,127
93600,note_on,0,0,1,,,,,,,,,0,,,75,127
93630,note_on,30,0,4,,,,,,,,,0,,,32,0
93630,note_on,30,0,1,,,,,,,,,0,,,75,0
93630,note_on,0,0,1,,,,,,,,,0,,,84,0
93660,note_on,30,0,4,,,,,,,,,0,,,44,110
93660,note_on,30,0,1,,,,,,,,,0,,,72,110
93690,note_on,30,0,4,,,,,,,,,0,,,44,0
93690,note_on,30,0,1,,,,,,,,,0,,,72,0
93720,note_on,0,0,1,,,,,,,,,0,,,75,110
93720,note_on,30,0,1,,,,,,,,,0,,,84,110
93720,note_on,30,0,4,,,,,,,,,0,,,32,110
93750,note_on,30,0,1,,,,,,,,,0,,,75,0
93750,note_on,0,0,1,,,,,,,,,0,,,84,0
93750,note_on,30,0,4,,,,,,,,,0,,,32,0
93780,note_on,30,0,1,,,,,,,,,0,,,79,127
93780,note_on,0,0,1,,,,,,,,,0,,,75,127
93780,note_on,30,0,4,,,,,,,,,0,,,39,127
93810,note_on,0,0,1,,,,,,,,,0,,,79,0
93810,note_on,30,0,1,,,,,,,,,0,,,75,0
93810,note_on,30,0,4,,,,,,,,,0,,,39,0
93840,note_on,30,0,1,,,,,,,,,0,,,70,110
93840,note_on,30,0,4,,,,,,,,,0,,,51,110
93870,note_on,30,0,1,,,,,,,,,0,,,70,0
93870,note_on,30,0,4,,,,,,,,,0,,,51,0
93900,note_on,30,0,1,,,,,,,,,0,,,79,110
93900,note_on,0,0,1,,,,,,,,,0,,,75,110
93900,note_on,30,0,4,,,,,,,,,0,,,39,110
93930,note_on,30,0,1,,,,,,,,,0,,,75,0
93930,note_on,0,0,1,,,,,,,,,0,,,79,0
93930,note_on,30,0,4,,,,,,,,,0,,,39,0
93960,note_on,30,0,1,,,,,,,,,0,,,82,127
93960,note_on,0,0,1,,,,,,,,,0,,,77,127
93960,note_on,0,0,1,,,,,,,,,0,,,73,127
93960,note_on,30,0,4,,,,,,,,,0,,,34,127
93990,note_on,30,0,1,,,,,,,,,0,,,73,0
93990,note_on,0,0,1,,,,,,,,,0,,,77,0
93990,note_on,0,0,1,,,,,,,,,0,,,82,0
93990,note_on,30,0,4,,,,,,,,,0,,,34,0
94020,note_on,30,0,4,,,,,,,,,0,,,46,110
94020,note_on,30,0,1,,,,,,,,,0,,,70,110
94050,note_on,30,0,4,,,,,,,,,0,,,46,0
94050,note_on,30,0,1,,,,,,,,,0,,,70,0
94080,note_on,30,0,4,,,,,,,,,0,,,34,110
94080,note_on,0,0,1,,,,,,,,,0,,,73,110
94080,note_on,0,0,1,,,,,,,,,0,,,77,110
94080,note_on,30,0,1,,,,,,,,,0,,,82,110
94110,note_on,30,0,4,,,,,,,,,0,,,34,0
94110,note_on,0,0,1,,,,,,,,,0,,,82,0
94110,note_on,0,0,1,,,,,,,,,0,,,77,0
94110,note_on,30,0,1,,,,,,,,,0,,,73,0
94140,note_on,30,0,1,,,,,,,,,0,,,77,127
94140,note_on,0,0,1,,,,,,,,,0,,,68,127
94140,note_on,30,0,4,,,,,,,,,0,,,37,127
94170,note_on,0,0,1,,,,,,,,,0,,,77,0
94170,note_on,30,0,1,,,,,,,,,0,,,68,0
94170,note_on,30,0,4,,,,,,,,,0,,,37,0
94200,note_on,30,0,1,,,,,,,,,0,,,65,110
94200,note_on,30,0,4,,,,,,,,,0,,,49,110
94230,note_on,30,0,1,,,,,,,,,0,,,65,0
94230,note_on,30,0,4,,,,,,,,,0,,,49,0
94260,note_on,0,0,1,,,,,,,,,0,,,68,110
94260,note_on,30,0,1,,,,,,,,,0,,,77,110
94260,note_on,30,0,4,,,,,,,,,0,,,37,110
94290,note_on,0,0,1,,,,,,,,,0,,,77,0
94290,note_on,30,0,4,,,,,,,,,0,,,37,0
94290,note_on,30,0,1,,,,,,,,,0,,,68,0
94320,note_on,30,0,4,,,,,,,,,0,,,36,127
94320,note_on,30,0,1,,,,,,,,,0,,,80,127
94320,note_on,0,0,1,,,,,,,,,0,,,77,127
94350,note_on,30,0,1,,,,,,,,,0,,,77,0
94350,note_on,0,0,1,,,,,,,,,0,,,80,0
94350,note_on,30,0,4,,,,,,,,,0,,,36,0
94380,note_on,30,0,1,,,,,,,,,0,,,68,110
94380,note_on,30,0,4,,,,,,,,,0,,,48,110
94410,note_on,30,0,4,,,,,,,,,0,,,48,0
94410,note_on,30,0,1,,,,,,,,,0,,,68,0
94440,note_on,30,0,4,,,,,,,,,0,,,36,110
94440,note_on,30,0,1,,,,,,,,,0,,,80,110
94440,note_on,0,0,1,,,,,,,,,0,,,77,110
94470,note_on,30,0,1,,,,,,,,,0,,,77,0
94470,note_on,0,0,1,,,,,,,,,0,,,80,0
94470,note_on,30,0,4,,,,,,,,,0,,,36,0
94500,note_on,0,0,1,,,,,,,,,0,,,76,127
94500,note_on,30,0,4,,,,,,,,,0,,,36,127
94500,note_on,30,0,1,,,,,,,,,0,,,79,127
94530,note_on,0,0,1,,,,,,,,,0,,,79,0
94530,note_on,30,0,1,,,,,,,,,0,,,76,0
94530,note_on,30,0,4,,,,,,,,,0,,,36,0
94560,note_on,30,0,1,,,,,,,,,0,,,67,110
94560,note_on,30,0,4,,,,,,,,,0,,,48,110
94590,note_on,30,0,1,,,,,,,,,0,,,67,0
94590,note_on,30,0,4,,,,,,,,,0,,,48,0
94620,note_on,30,0,4,,,,,,,,,0,,,36,110
94620,note_on,0,0,1,,,,,,,,,0,,,76,110
94620,note_on,30,0,1,,,,,,,,,0,,,79,110
94650,note_on,30,0,4,,,,,,,,,0,,,36,0
94650,note_on,30,0,1,,,,,,,,,0,,,76,0
94650,note_on,0,0,1,,,,,,,,,0,,,79,0
94680,note_on,30,0,4,,,,,,,,,0,,,53,127
94680,note_on,30,0,1,,,,,,,,,0,,,89,127
94710,note_on,30,0,1,,,,,,,,,0,,,89,0
94710,note_on,30,0,4,,,,,,,,,0,,,53,0
94740,note_on,30,0,4,,,,,,,,,0,,,65,110
94740,note_on,30,0,1,,,,,,,,,0,,,77,110
94770,note_on,30,0,4,,,,,,,,,0,,,65,0
94770,note_on,0,0,1,,,,,,,,,0,,,89,110
94770,note_on,30,0,1,,,,,,,,,0,,,77,0
94770,note_on,0,0,4,,,,,,,,,0,,,53,110
94800,note_on,30,0,4,,,,,,,,,0,,,53,0
94800,note_on,0,0,1,,,,,,,,,0,,,77,110
94800,note_on,0,0,4,,,,,,,,,0,,,65,110
94800,note_on,30,0,1,,,,,,,,,0,,,89,0
94830,note_on,30,0,1,,,,,,,,,0,,,77,0
94830,note_on,30,0,4,,,,,,,,,0,,,65,0
94860,note_on,30,0,1,,,,,,,,,0,,,92,127
94860,note_on,0,0,1,,,,,,,,,0,,,89,127
94860,note_on,30,0,4,,,,,,,,,0,,,49,127
94890,note_on,30,0,1,,,,,,,,,0,,,89,0
94890,note_on,0,0,1,,,,,,,,,0,,,92,0
94890,note_on,30,0,4,,,,,,,,,0,,,49,0
94920,note_on,30,0,1,,,,,,,,,0,,,80,110
94920,note_on,30,0,4,,,,,,,,,0,,,61,110
94950,note_on,30,0,4,,,,,,,,,0,,,61,0
94950,note_on,0,0,4,,,,,,,,,0,,,49,110
94950,note_on,0,0,1,,,,,,,,,0,,,89,110
94950,note_on,30,0,1,,,,,,,,,0,,,80,0
94950,note_on,0,0,1,,,,,,,,,0,,,92,110
94980,note_on,30,0,1,,,,,,,,,0,,,89,0
94980,note_on,0,0,1,,,,,,,,,0,,,92,0
94980,note_on,0,0,1,,,,,,,,,0,,,80,110
94980,note_on,30,0,4,,,,,,,,,0,,,49,0
94980,note_on,0,0,4,,,,,,,,,0,,,61,110
95010,note_on,30,0,1,,,,,,,,,0,,,80,0
95010,note_on,30,0,4,,,,,,,,,0,,,61,0
95040,note_on,30,0,4,,,,,,,,,0,,,44,127
95040,note_on,0,0,1,,,,,,,,,0,,,87,127
95040,note_on,30,0,1,,,,,,,,,0,,,96,127
95070,note_on,0,0,1,,,,,,,,,0,,,96,0
95070,note_on,30,0,4,,,,,,,,,0,,,44,0
95070,note_on,30,0,1,,,,,,,,,0,,,87,0
95100,note_on,30,0,4,,,,,,,,,0,,,56,110
95100,note_on,30,0,1,,,,,,,,,0,,,84,110
95130,note_on,30,0,4,,,,,,,,,0,,,56,0
95130,note_on,0,0,4,,,,,,,,,0,,,44,110
95130,note_on,0,0,1,,,,,,,,,0,,,87,110
95130,note_on,30,0,1,,,,,,,,,0,,,84,0
95130,note_on,0,0,1,,,,,,,,,0,,,96,110
95160,note_on,30,0,4,,,,,,,,,0,,,44,0
95160,note_on,0,0,4,,,,,,,,,0,,,56,110
95160,note_on,0,0,1,,,,,,,,,0,,,84,110
95160,note_on,30,0,1,,,,,,,,,0,,,87,0
95160,note_on,0,0,1,,,,,,,,,0,,,96,0
95190,note_on,30,0,1,,,,,,,,,0,,,84,0
95190,note_on,30,0,4,,,,,,,,,0,,,56,0
95220,note_on,0,0,1,,,,,,,,,0,,,87,127
95220,note_on,30,0,1,,,,,,,,,0,,,91,127
95220,note_on,30,0,4,,,,,,,,,0,,,51,127
95250,note_on,0,0,1,,,,,,,,,0,,,91,0
95250,note_on,30,0,1,,,,,,,,,0,,,87,0
95250,note_on,30,0,4,,,,,,,,,0,,,51,0
95280,note_on,30,0,4,,,,,,,,,0,,,63,110
95280,note_on,30,0,1,,,,,,,,,0,,,82,110
95310,note_on,0,0,1,,,,,,,,,0,,,91,110
95310,note_on,30,0,4,,,,,,,,,0,,,63,0
95310,note_on,0,0,4,,,,,,,,,0,,,51,110
95310,note_on,0,0,1,,,,,,,,,0,,,87,110
95310,note_on,30,0,1,,,,,,,,,0,,,82,0
95340,note_on,0,0,1,,,,,,,,,0,,,91,0
95340,note_on,30,0,1,,,,,,,,,0,,,87,0
95340,note_on,30,0,4,,,,,,,,,0,,,51,0
95340,note_on,0,0,4,,,,,,,,,0,,,63,110
95340,note_on,0,0,1,,,,,,,,,0,,,82,110
95370,note_on,30,0,1,,,,,,,,,0,,,82,0
95370,note_on,30,0,4,,,,,,,,,0,,,63,0
95400,note_on,0,0,1,,,,,,,,,0,,,85,127
95400,note_on,0,0,1,,,,,,,,,0,,,89,127
95400,note_on,30,0,1,,,,,,,,,0,,,94,127
95400,note_on,30,0,4,,,,,,,,,0,,,46,127
95430,note_on,0,0,1,,,,,,,,,0,,,94,0
95430,note_on,0,0,1,,,,,,,,,0,,,89,0
95430,note_on,30,0,1,,,,,,,,,0,,,85,0
95430,note_on,30,0,4,,,,,,,,,0,,,46,0
95460,note_on,30,0,1,,,,,,,,,0,,,82,110
95460,note_on,30,0,4,,,,,,,,,0,,,58,110
95490,note_on,0,0,1,,,,,,,,,0,,,89,110
95490,note_on,30,0,4,,,,,,,,,0,,,58,0
95490,note_on,0,0,1,,,,,,,,,0,,,94,110
95490,note_on,30,0,1,,,,,,,,,0,,,82,0
95490,note_on,0,0,1,,,,,,,,,0,,,85,110
95490,note_on,0,0,4,,,,,,,,,0,,,46,110
95520,note_on,0,0,4,,,,,,,,,0,,,58,110
95520,note_on,30,0,4,,,,,,,,,0,,,46,0
95520,note_on,0,0,1,,,,,,,,,0,,,82,110
95520,note_on,0,0,1,,,,,,,,,0,,,94,0
95520,note_on,0,0,1,,,,,,,,,0,,,89,0
95520,note_on,30,0,1,,,,,,,,,0,,,85,0
95550,note_on,30,0,1,,,,,,,,,0,,,82,0
95550,note_on,30,0,4,,,,,,,,,0,,,58,0
95580,note_on,30,0,4,,,,,,,,,0,,,49,127
95580,note_on,0,0,1,,,,,,,,,0,,,80,127
95580,note_on,30,0,1,,,,,,,,,0,,,89,127
95610,note_on,30,0,1,,,,,,,,,0,,,80,0
95610,note_on,0,0,1,,,,,,,,,0,,,89,0
95610,note_on,30,0,4,,,,,,,,,0,,,49,0
95640,note_on,30,0,1,,,,,,,,,0,,,77,110
95640,note_on,30,0,4,,,,,,,,,0,,,61,110
95670,note_on,30,0,4,,,,,,,,,0,,,61,0
95670,note_on,0,0,4,,,,,,,,,0,,,49,110
95670,note_on,30,0,1,,,,,,,,,0,,,77,0
95670,note_on,0,0,1,,,,,,,,,0,,,80,110
95670,note_on,0,0,1,,,,,,,,,0,,,89,110
95700,note_on,0,0,1,,,,,,,,,0,,,77,110
95700,note_on,0,0,1,,,,,,,,,0,,,89,0
95700,note_on,30,0,1,,,,,,,,,0,,,80,0
95700,note_on,0,0,4,,,,,,,,,0,,,61,110
95700,note_on,30,0,4,,,,,,,,,0,,,49,0
95730,note_on,30,0,1,,,,,,,,,0,,,77,0
95730,note_on,30,0,4,,,,,,,,,0,,,61,0
95760,note_on,0,0,1,,,,,,,,,0,,,89,127
95760,note_on,30,0,1,,,,,,,,,0,,,92,127
95760,note_on,30,0,4,,,,,,,,,0,,,48,127
95790,note_on,30,0,4,,,,,,,,,0,,,48,0
95790,note_on,30,0,1,,,,,,,,,0,,,89,0
95790,note_on,0,0,1,,,,,,,,,0,,,92,0
95820,note_on,30,0,4,,,,,,,,,0,,,60,110
95820,note_on,30,0,1,,,,,,,,,0,,,80,110
95850,note_on,0,0,1,,,,,,,,,0,,,92,110
95850,note_on,30,0,1,,,,,,,,,0,,,80,0
95850,note_on,0,0,1,,,,,,,,,0,,,89,110
95850,note_on,30,0,4,,,,,,,,,0,,,60,0
95850,note_on,0,0,4,,,,,,,,,0,,,48,110
95880,note_on,30,0,1,,,,,,,,,0,,,89,0
95880,note_on,0,0,4,,,,,,,,,0,,,60,110
95880,note_on,30,0,4,,,,,,,,,0,,,48,0
95880,note_on,0,0,1,,,,,,,,,0,,,80,110
95880,note_on,0,0,1,,,,,,,,,0,,,92,0
95910,note_on,30,0,1,,,,,,,,,0,,,80,0
95910,note_on,30,0,4,,,,,,,,,0,,,60,0
95940,note_on,0,0,1,,,,,,,,,0,,,88,127
95940,note_on,30,0,1,,,,,,,,,0,,,91,127
95940,note_on,30,0,4,,,,,,,,,0,,,48,127
95970,note_on,30,0,4,,,,,,,,,0,,,48,0
95970,note_on,30,0,1,,,,,,,,,0,,,88,0
95970,note_on,0,0,1,,,,,,,,,0,,,91,0
96000,note_on,30,0,4,,,,,,,,,0,,,60,110
96000,note_on,30,0,1,,,,,,,,,0,,,79,110
96030,note_on,0,0,1,,,,,,,,,0,,,88,110
96030,note_on,30,0,4,,,,,,,,,0,,,60,0
96030,note_on,30,0,1,,,,,,,,,0,,,79,0
96030,note_on,0,0,4,,,,,,,,,0,,,48,110
96030,note_on,0,0,1,,,,,,,,,0,,,91,110
96060,note_on,30,0,1,,,,,,,,,0,,,88,0
96060,note_on,0,0,1,,,,,,,,,0,,,91,0
96060,note_on,0,0,1,,,,,,,,,0,,,79,110
96060,note_on,30,0,4,,,,,,,,,0,,,48,0
96060,note_on,0,0,4,,,,,,,,,0,,,60,110
96090,note_on,30,0,1,,,,,,,,,0,,,79,0
96090,note_on,30,0,4,,,,,,,,,0,,,60,0
96120,note_on,30,0,4,,,,,,,,,0,,,48,127
96120,note_on,30,0,1,,,,,,,,,0,,,92,127
96120,note_on,0,0,1,,,,,,,,,0,,,89,127
96150,note_on,0,0,1,,,,,,,,,0,,,92,0
96150,note_on,30,0,4,,,,,,,,,0,,,48,0
96150,note_on,30,0,1,,,,,,,,,0,,,89,0
96180,note_on,30,0,4,,,,,,,,,0,,,60,110
96180,note_on,30,0,1,,,,,,,,,0,,,80,110
96210,note_on,30,0,1,,,,,,,,,0,,,80,0
96210,note_on,0,0,1,,,,,,,,,0,,,92,110
96210,note_on,0,0,4,,,,,,,,,0,,,48,110
96210,note_on,0,0,1,,,,,,,,,0,,,89,110
96210,note_on,30,0,4,,,,,,,,,0,,,60,0
96240,note_on,30,0,4,,,,,,,,,0,,,48,0
96240,note_on,0,0,4,,,,,,,,,0,,,60,110
96240,note_on,0,0,1,,,,,,,,,0,,,80,110
96240,note_on,0,0,1,,,,,,,,,0,,,92,0
96240,note_on,30,0,1,,,,,,,,,0,,,89,0
96270,note_on,30,0,1,,,,,,,,,0,,,80,0
96270,note_on,30,0,4,,,,,,,,,0,,,60,0
96300,note_on,0,0,1,,,,,,,,,0,,,88,127
96300,note_on,0,0,1,,,,,,,,,0,,,91,127
96300,note_on,30,0,1,,,,,,,,,0,,,96,127
96300,note_on,30,0,4,,,,,,,,,0,,,48,127
96330,note_on,30,0,4,,,,,,,,,0,,,48,0
96330,note_on,0,0,1,,,,,,,,,0,,,96,0
96330,note_on,0,0,1,,,,,,,,,0,,,91,0
96330,note_on,30,0,1,,,,,,,,,0,,,88,0
96360,note_on,30,0,1,,,,,,,,,0,,,84,110
96360,note_on,30,0,4,,,,,,,,,0,,,60,110
96390,note_on,30,0,1,,,,,,,,,0,,,84,0
96390,note_on,0,0,1,,,,,,,,,0,,,96,110
96390,note_on,0,0,1,,,,,,,,,0,,,91,110
96390,note_on,30,0,4,,,,,,,,,0,,,60,0
96390,note_on,0,0,4,,,,,,,,,0,,,48,110
96390,note_on,0,0,1,,,,,,,,,0,,,88,110
96420,note_on,30,0,1,,,,,,,,,0,,,88,0
96420,note_on,0,0,4,,,,,,,,,0,,,60,110
96420,note_on,0,0,1,,,,,,,,,0,,,96,0
96420,note_on,0,0,1,,,,,,,,,0,,,91,0
96420,note_on,30,0,4,,,,,,,,,0,,,48,0
96420,note_on,0,0,1,,,,,,,,,0,,,84,110
96450,note_on,30,0,4,,,,,,,,,0,,,60,0
96450,note_on,30,0,1,,,,,,,,,0,,,84,0
96480,note_on,30,0,4,,,,,,,,,0,,,48,127
96480,note_on,0,0,1,,,,,,,,,0,,,89,127
96480,note_on,0,0,1,,,,,,,,,0,,,92,127
96480,note_on,30,0,1,,,,,,,,,0,,,96,127
96510,note_on,0,0,1,,,,,,,,,0,,,92,0
96510,note_on,0,0,1,,,,,,,,,0,,,96,0
96510,note_on,30,0,1,,,,,,,,,0,,,89,0
96510,note_on,30,0,4,,,,,,,,,0,,,48,0
96540,note_on,30,0,4,,,,,,,,,0,,,60,110
96540,note_on,30,0,1,,,,,,,,,0,,,84,110
96570,note_on,0,0,1,,,,,,,,,0,,,92,110
96570,note_on,0,0,1,,,,,,,,,0,,,89,110
96570,note_on,0,0,1,,,,,,,,,0,,,96,110
96570,note_on,30,0,1,,,,,,,,,0,,,84,0
96570,note_on,0,0,4,,,,,,,,,0,,,48,110
96570,note_on,30,0,4,,,,,,,,,0,,,60,0
96600,note_on,30,0,4,,,,,,,,,0,,,48,0
96600,note_on,0,0,4,,,,,,,,,0,,,60,110
96600,note_on,30,0,1,,,,,,,,,0,,,89,0
96600,note_on,0,0,1,,,,,,,,,0,,,96,0
96600,note_on,0,0,1,,,,,,,,,0,,,84,110
96600,note_on,0,0,1,,,,,,,,,0,,,92,0
96630,note_on,30,0,4,,,,,,,,,0,,,60,0
96630,note_on,30,0,1,,,,,,,,,0,,,84,0
96660,note_on,30,0,1,,,,,,,,,0,,,100,127
96660,note_on,0,0,1,,,,,,,,,0,,,96,127
96660,note_on,0,0,1,,,,,,,,,0,,,91,127
96660,note_on,30,0,4,,,,,,,,,0,,,48,127
96690,note_on,30,0,4,,,,,,,,,0,,,48,0
96690,note_on,30,0,1,,,,,,,,,0,,,91,0
96690,note_on,0,0,1,,,,,,,,,0,,,96,0
96690,note_on,0,0,1,,,,,,,,,0,,,100,0
96720,note_on,30,0,4,,,,,,,,,0,,,60,110
96720,note_on,30,0,1,,,,,,,,,0,,,88,110
96750,note_on,30,0,4,,,,,,,,,0,,,60,0
96750,note_on,30,0,1,,,,,,,,,0,,,88,0
96750,note_on,0,0,4,,,,,,,,,0,,,48,110
96750,note_on,0,0,1,,,,,,,,,0,,,91,110
96750,note_on,0,0,1,,,,,,,,,0,,,96,110
96750,note_on,0,0,1,,,,,,,,,0,,,100,110
96780,note_on,0,0,4,,,,,,,,,0,,,60,110
96780,note_on,30,0,4,,,,,,,,,0,,,48,0
96780,note_on,0,0,1,,,,,,,,,0,,,88,110
96780,note_on,0,0,1,,,,,,,,,0,,,96,0
96780,note_on,30,0,1,,,,,,,,,0,,,91,0
96780,note_on,0,0,1,,,,,,,,,0,,,100,0
96810,note_on,0,0,1,,,,,,,,,0,,,89,110
96810,note_on,30,0,1,,,,,,,,,0,,,88,0
96810,note_on,30,0,4,,,,,,,,,0,,,60,0
96820,note_on,10,0,1,,,,,,,,,0,,,89,0
96820,note_on,0,0,1,,,,,,,,,0,,,92,110
96830,note_on,10,0,1,,,,,,,,,0,,,92,0
96830,note_on,0,0,1,,,,,,,,,0,,,96,110
96840,note_on,30,0,4,,,,,,,,,0,,,65,110
96840,note_on,0,0,4,,,,,,,,,0,,,60,110
96840,note_on,0,0,4,,,,,,,,,0,,,53,110
96840,note_on,0,0,4,,,,,,,,,0,,,56,110
96840,note_on,10,0,1,,,,,,,,,0,,,96,0
96840,note_on,0,0,1,,,,,,,,,0,,,101,110
96870,note_on,30,0,1,,,,,,,,,0,,,101,0
96870,note_on,0,0,1,,,,,,,,,0,,,99,110
96900,note_on,60,0,4,,,,,,,,,0,,,53,0
96900,note_on,0,0,4,,,,,,,,,0,,,53,110
96900,note_on,0,0,4,,,,,,,,,0,,,56,110
96900,note_on,0,0,4,,,,,,,,,0,,,60,110
96900,note_on,0,0,4,,,,,,,,,0,,,65,110
96900,note_on,0,0,4,,,,,,,,,0,,,56,0
96900,note_on,0,0,4,,,,,,,,,0,,,60,0
96900,note_on,0,0,4,,,,,,,,,0,,,65,0
96900,note_on,0,0,1,,,,,,,,,0,,,97,110
96900,note_on,30,0,1,,,,,,,,,0,,,99,0
96930,note_on,0,0,1,,,,,,,,,0,,,96,110
96930,note_on,30,0,1,,,,,,,,,0,,,97,0
96960,note_on,60,0,4,,,,,,,,,0,,,53,0
96960,note_on,0,0,4,,,,,,,,,0,,,56,127
96960,note_on,0,0,4,,,,,,,,,0,,,53,127
96960,note_on,0,0,4,,,,,,,,,0,,,65,0
96960,note_on,0,0,4,,,,,,,,,0,,,60,127
96960,note_on,0,0,4,,,,,,,,,0,,,65,127
96960,note_on,0,0,4,,,,,,,,,0,,,56,0
96960,note_on,0,0,4,,,,,,,,,0,,,60,0
96960,note_on,30,0,1,,,,,,,,,0,,,96,0
96960,note_on,0,0,1,,,,,,,,,0,,,94,110
96990,note_on,0,0,1,,,,,,,,,0,,,92,110
96990,note_on,30,0,1,,,,,,,,,0,,,94,0
97020,note_on,30,0,1,,,,,,,,,0,,,92,0
97020,note_on,0,0,1,,,,,,,,,0,,,91,110
97050,note_on,30,0,1,,,,,,,,,0,,,91,0
97050,note_on,0,0,1,,,,,,,,,0,,,89,110
97080,note_on,30,0,1,,,,,,,,,0,,,89,0
97080,note_on,0,0,1,,,,,,,,,0,,,87,110
97110,note_on,30,0,1,,,,,,,,,0,,,87,0
97110,note_on,0,0,1,,,,,,,,,0,,,85,110
97140,note_on,30,0,1,,,,,,,,,0,,,85,0
97140,note_on,0,0,1,,,,,,,,,0,,,84,110
97170,note_on,0,0,1,,,,,,,,,0,,,82,110
97170,note_on,30,0,1,,,,,,,,,0,,,84,0
97200,note_on,0,0,1,,,,,,,,,0,,,80,110
97200,note_on,30,0,1,,,,,,,,,0,,,82,0
97230,note_on,30,0,1,,,,,,,,,0,,,80,0
97230,note_on,0,0,1,,,,,,,,,0,,,79,110
97260,note_on,30,0,1,,,,,,,,,0,,,79,0
97260,note_on,0,0,1,,,,,,,,,0,,,77,110
97290,note_on,30,0,1,,,,,,,,,0,,,77,0
97290,note_on,0,0,1,,,,,,,,,0,,,75,110
97320,note_on,0,0,1,,,,,,,,,0,,,73,110
97320,note_on,30,0,1,,,,,,,,,0,,,75,0
97350,note_on,30,0,1,,,,,,,,,0,,,73,0
97350,note_on,0,0,1,,,,,,,,,0,,,72,110
97380,note_on,30,0,1,,,,,,,,,0,,,72,0
97380,note_on,0,0,1,,,,,,,,,0,,,70,110
97410,note_on,30,0,1,,,,,,,,,0,,,70,0
97410,note_on,0,0,1,,,,,,,,,0,,,68,110
97440,note_on,480,0,4,,,,,,,,,0,,,53,0
97440,note_on,0,0,4,,,,,,,,,0,,,65,0
97440,note_on,0,0,4,,,,,,,,,0,,,56,0
97440,note_on,0,0,4,,,,,,,,,0,,,60,0
97440,note_on,0,0,1,,,,,,,,,0,,,67,110
97440,note_on,30,0,1,,,,,,,,,0,,,68,0
97470,note_on,30,0,1,,,,,,,,,0,,,67,0
97470,note_on,0,0,1,,,,,,,,,0,,,65,110
97500,note_on,0,0,1,,,,,,,,,0,,,63,110
97500,note_on,30,0,1,,,,,,,,,0,,,65,0
97530,note_on,30,0,1,,,,,,,,,0,,,63,0
97530,note_on,0,0,1,,,,,,,,,0,,,61,110
97560,end_of_track,0,1,1,,,,,,,,,,,,,
97560,note_on,30,0,1,,,,,,,,,0,,,61,0
97560,note_on,120,0,4,,,,,,,,,0,,,60,110
97590,note_on,30,0,4,,,,,,,,,0,,,60,0
97590,note_on,0,0,4,,,,,,,,,0,,,58,110
97620,note_on,30,0,4,,,,,,,,,0,,,58,0
97620,note_on,0,0,4,,,,,,,,,0,,,56,110
97650,note_on,30,0,4,,,,,,,,,0,,,56,0
97650,note_on,0,0,4,,,,,,,,,0,,,55,110
97680,note_on,0,0,4,,,,,,,,,0,,,53,110
97680,note_on,30,0,4,,,,,,,,,0,,,55,0
97710,note_on,30,0,4,,,,,,,,,0,,,53,0
97710,note_on,0,0,4,,,,,,,,,0,,,51,110
97740,note_on,30,0,4,,,,,,,,,0,,,51,0
97740,note_on,0,0,4,,,,,,,,,0,,,49,110
97770,note_on,30,0,4,,,,,,,,,0,,,49,0
97770,note_on,0,0,4,,,,,,,,,0,,,48,110
97800,note_on,30,0,4,,,,,,,,,0,,,48,0
97800,note_on,0,0,4,,,,,,,,,0,,,46,110
97830,note_on,30,0,4,,,,,,,,,0,,,46,0
97830,note_on,0,0,4,,,,,,,,,0,,,44,110
97860,note_on,0,0,4,,,,,,,,,0,,,43,110
97860,note_on,30,0,4,,,,,,,,,0,,,44,0
97890,note_on,30,0,4,,,,,,,,,0,,,43,0
97890,note_on,0,0,4,,,,,,,,,0,,,41,110
97920,note_on,30,0,4,,,,,,,,,0,,,41,0
97920,note_on,0,0,4,,,,,,,,,0,,,39,110
97950,note_on,30,0,4,,,,,,,,,0,,,39,0
97950,note_on,0,0,4,,,,,,,,,0,,,37,110
97980,note_on,0,0,4,,,,,,,,,0,,,36,110
97980,note_on,30,0,4,,,,,,,,,0,,,37,0
98010,note_on,0,0,4,,,,,,,,,0,,,34,110
98010,note_on,30,0,4,,,,,,,,,0,,,36,0
98040,note_on,30,0,4,,,,,,,,,0,,,34,0
98040,note_on,0,0,4,,,,,,,,,0,,,32,110
98070,note_on,0,0,4,,,,,,,,,0,,,31,110
98070,note_on,30,0,4,,,,,,,,,0,,,32,0
98100,note_on,0,0,4,,,,,,,,,0,,,29,127
98100,note_on,30,0,4,,,,,,,,,0,,,31,0
98160,end_of_track,0,1,4,,,,,,,,,,,,,
98160,note_on,60,0,4,,,,,,,,,0,,,29,0
98280,control_change,19080,0,5,,,,,,,,,0,64,127,,
98640,control_change,360,0,5,,,,,,,,,0,64,0,,
98640,end_of_track,0,1,5,,,,,,,,,,,,,
