tick,type,time,meta,track,numerator,denominator,clocks_per_click,notated_32nd_notes_per_beat,key,tempo,port,program,channel,control,value,note,velocity
0,track_name,0,1,0,,,,,,,,,,,,,
0,program_change,0,0,1,,,,,,,,0,0,,,,
0,control_change,0,0,1,,,,,,,,,0,7,127,,
0,control_change,0,0,1,,,,,,,,,0,10,64,,
0,note_on,0,0,1,,,,,,,,,0,,,74,70
0,midi_port,0,1,2,,,,,,,0,,,,,,
0,track_name,0,1,2,,,,,,,,,,,,,
0,program_change,0,0,2,,,,,,,,0,0,,,,
0,control_change,0,0,2,,,,,,,,,0,7,127,,
0,control_change,0,0,2,,,,,,,,,0,10,64,,
0,midi_port,0,1,3,,,,,,,0,,,,,,
0,track_name,0,1,3,,,,,,,,,,,,,
0,program_change,0,0,3,,,,,,,,0,0,,,,
0,track_name,0,1,1,,,,,,,,,,,,,
0,control_change,0,0,3,,,,,,,,,0,7,127,,
0,note_on,0,0,3,,,,,,,,,0,,,46,70
0,track_name,0,1,6,,,,,,,,,,,,,
0,midi_port,0,1,4,,,,,,,0,,,,,,
0,track_name,0,1,4,,,,,,,,,,,,,
0,program_change,0,0,4,,,,,,,,0,0,,,,
0,control_change,0,0,4,,,,,,,,,0,7,127,,
0,control_change,0,0,4,,,,,,,,,0,10,64,,
0,control_change,0,0,4,,,,,,,,,0,64,127,,
0,midi_port,0,1,5,,,,,,,0,,,,,,
0,track_name,0,1,5,,,,,,,,,,,,,
0,end_of_track,0,1,5,,,,,,,,,,,,,
0,midi_port,0,1,6,,,,,,,0,,,,,,
0,control_change,0,0,3,,,,,,,,,0,10,64,,
0,midi_port,0,1,1,,,,,,,0,,,,,,
0,end_of_track,0,1,6,,,,,,,,,,,,,
0,copyright,0,1,0,,,,,,,,,,,,,
0,text,0,1,0,,,,,,,,,,,,,
0,time_signature,0,1,0,4,4,24,8,,,,,,,,,
0,key_signature,0,1,0,,,,,Bb,,,,,,,,
0,set_tempo,0,1,0,,,,,,652174,,,,,,,
0,marker,0,1,0,,,,,,,,,,,,,
30,note_on,30,0,3,,,,,,,,,0,,,46,0
60,note_on,30,0,3,,,,,,,,,0,,,62,60
120,note_on,60,0,3,,,,,,,,,0,,,62,0
120,note_on,0,0,3,,,,,,,,,0,,,53,60
120,note_on,0,0,3,,,,,,,,,0,,,58,60
120,note_on,0,0,1,,,,,,,,,0,,,74,70
120,note_on,120,0,1,,,,,,,,,0,,,74,0
180,note_on,60,0,3,,,,,,,,,0,,,58,0
180,note_on,0,0,1,,,,,,,,,0,,,74,70
180,note_on,60,0,1,,,,,,,,,0,,,74,0
180,note_on,0,0,3,,,,,,,,,0,,,62,60
180,note_on,0,0,3,,,,,,,,,0,,,53,0
225,control_change,225,0,4,,,,,,,,,0,64,0,,
240,note_on,60,0,3,,,,,,,,,0,,,62,0
240,note_on,0,0,3,,,,,,,,,0,,,50,70
240,control_change,15,0,4,,,,,,,,,0,64,127,,
240,note_on,60,0,1,,,,,,,,,0,,,74,0
240,note_on,0,0,1,,,,,,,,,0,,,70,70
270,note_on,30,0,3,,,,,,,,,0,,,50,0
300,note_on,30,0,3,,,,,,,,,0,,,65,60
360,note_on,0,0,3,,,,,,,,,0,,,58,60
360,note_on,60,0,3,,,,,,,,,0,,,65,0
360,note_on,120,0,1,,,,,,,,,0,,,70,0
360,note_on,0,0,1,,,,,,,,,0,,,70,70
360,note_on,0,0,3,,,,,,,,,0,,,53,60
420,note_on,60,0,3,,,,,,,,,0,,,58,0
420,note_on,0,0,3,,,,,,,,,0,,,65,60
420,note_on,0,0,3,,,,,,,,,0,,,53,0
465,control_change,225,0,4,,,,,,,,,0,64,0,,
480,note_on,0,0,1,,,,,,,,,0,,,69,70
480,note_on,120,0,1,,,,,,,,,0,,,70,0
480,control_change,15,0,4,,,,,,,,,0,64,127,,
480,note_on,0,0,3,,,,,,,,,0,,,48,70
480,note_on,60,0,3,,,,,,,,,0,,,65,0
510,note_on,30,0,3,,,,,,,,,0,,,48,0
540,note_on,30,0,3,,,,,,,,,0,,,63,60
600,note_on,0,0,3,,,,,,,,,0,,,57,60
600,note_on,0,0,3,,,,,,,,,0,,,53,60
600,note_on,60,0,3,,,,,,,,,0,,,63,0
600,note_on,0,0,1,,,,,,,,,0,,,69,70
600,note_on,120,0,1,,,,,,,,,0,,,69,0
660,note_on,0,0,1,,,,,,,,,0,,,69,70
660,note_on,0,0,3,,,,,,,,,0,,,63,60
660,note_on,60,0,1,,,,,,,,,0,,,69,0
660,note_on,60,0,3,,,,,,,,,0,,,57,0
660,note_on,0,0,3,,,,,,,,,0,,,53,0
705,control_change,225,0,4,,,,,,,,,0,64,0,,
720,note_on,0,0,3,,,,,,,,,0,,,41,70
720,note_on,60,0,1,,,,,,,,,0,,,69,0
720,control_change,15,0,4,,,,,,,,,0,64,127,,
720,note_on,0,0,1,,,,,,,,,0,,,69,60
720,note_on,60,0,3,,,,,,,,,0,,,63,0
735,note_on,15,0,1,,,,,,,,,0,,,69,0
735,note_on,0,0,1,,,,,,,,,0,,,75,70
750,note_on,30,0,3,,,,,,,,,0,,,41,0
780,note_on,30,0,3,,,,,,,,,0,,,60,60
840,note_on,60,0,3,,,,,,,,,0,,,60,0
840,note_on,0,0,3,,,,,,,,,0,,,57,60
840,note_on,0,0,3,,,,,,,,,0,,,53,60
900,note_on,0,0,3,,,,,,,,,0,,,60,60
900,note_on,0,0,3,,,,,,,,,0,,,53,0
900,note_on,60,0,3,,,,,,,,,0,,,57,0
945,control_change,225,0,4,,,,,,,,,0,64,0,,
960,note_on,0,0,3,,,,,,,,,0,,,46,70
960,note_on,60,0,3,,,,,,,,,0,,,60,0
960,note_on,0,0,1,,,,,,,,,0,,,74,70
960,note_on,225,0,1,,,,,,,,,0,,,75,0
960,control_change,15,0,4,,,,,,,,,0,64,127,,
990,note_on,30,0,3,,,,,,,,,0,,,46,0
1020,note_on,30,0,3,,,,,,,,,0,,,62,60
1080,note_on,0,0,3,,,,,,,,,0,,,58,60
1080,note_on,0,0,3,,,,,,,,,0,,,53,60
1080,note_on,60,0,3,,,,,,,,,0,,,62,0
1080,note_on,0,0,1,,,,,,,,,0,,,74,70
1080,note_on,120,0,1,,,,,,,,,0,,,74,0
1140,note_on,60,0,3,,,,,,,,,0,,,58,0
1140,note_on,0,0,3,,,,,,,,,0,,,53,0
1140,note_on,0,0,3,,,,,,,,,0,,,62,60
1140,note_on,60,0,1,,,,,,,,,0,,,74,0
1140,note_on,0,0,1,,,,,,,,,0,,,74,70
1185,control_change,225,0,4,,,,,,,,,0,64,0,,
1200,note_on,0,0,3,,,,,,,,,0,,,39,70
1200,note_on,60,0,3,,,,,,,,,0,,,62,0
1200,note_on,60,0,1,,,,,,,,,0,,,74,0
1200,note_on,0,0,1,,,,,,,,,0,,,74,70
1200,control_change,15,0,4,,,,,,,,,0,64,127,,
1230,note_on,30,0,3,,,,,,,,,0,,,39,0
1260,note_on,30,0,3,,,,,,,,,0,,,60,60
1260,note_on,60,0,1,,,,,,,,,0,,,74,0
1260,note_on,0,0,1,,,,,,,,,0,,,67,70
1290,note_on,30,0,1,,,,,,,,,0,,,67,0
1320,note_on,60,0,3,,,,,,,,,0,,,60,0
1320,note_on,30,0,1,,,,,,,,,0,,,67,70
1320,note_on,0,0,3,,,,,,,,,0,,,58,60
1320,note_on,0,0,3,,,,,,,,,0,,,51,60
1320,note_on,0,0,3,,,,,,,,,0,,,55,60
1380,note_on,0,0,3,,,,,,,,,0,,,55,0
1380,note_on,0,0,3,,,,,,,,,0,,,51,0
1380,note_on,0,0,3,,,,,,,,,0,,,60,60
1380,note_on,60,0,3,,,,,,,,,0,,,58,0
1425,control_change,225,0,4,,,,,,,,,0,64,0,,
1440,note_on,120,0,1,,,,,,,,,0,,,67,0
1440,note_on,0,0,1,,,,,,,,,0,,,72,70
1440,note_on,60,0,3,,,,,,,,,0,,,60,0
1440,note_on,0,0,3,,,,,,,,,0,,,40,70
1440,control_change,15,0,4,,,,,,,,,0,64,127,,
1470,note_on,30,0,3,,,,,,,,,0,,,40,0
1500,note_on,60,0,1,,,,,,,,,0,,,72,0
1500,note_on,0,0,1,,,,,,,,,0,,,71,70
1500,note_on,30,0,3,,,,,,,,,0,,,60,60
1530,note_on,30,0,1,,,,,,,,,0,,,71,0
1530,note_on,0,0,1,,,,,,,,,0,,,72,70
1560,note_on,0,0,3,,,,,,,,,0,,,58,60
1560,note_on,0,0,3,,,,,,,,,0,,,55,60
1560,note_on,0,0,3,,,,,,,,,0,,,52,60
1560,note_on,60,0,3,,,,,,,,,0,,,60,0
1560,note_on,30,0,1,,,,,,,,,0,,,72,0
1560,note_on,0,0,1,,,,,,,,,0,,,71,70
1590,note_on,0,0,1,,,,,,,,,0,,,72,70
1590,note_on,30,0,1,,,,,,,,,0,,,71,0
1620,note_on,0,0,3,,,,,,,,,0,,,52,0
1620,note_on,30,0,1,,,,,,,,,0,,,72,0
1620,note_on,0,0,1,,,,,,,,,0,,,74,70
1620,note_on,60,0,3,,,,,,,,,0,,,58,0
1620,note_on,0,0,3,,,,,,,,,0,,,55,0
1620,note_on,0,0,3,,,,,,,,,0,,,60,60
1650,note_on,30,0,1,,,,,,,,,0,,,74,0
1650,note_on,0,0,1,,,,,,,,,0,,,72,70
1665,control_change,225,0,4,,,,,,,,,0,64,0,,
1680,control_change,15,0,4,,,,,,,,,0,64,127,,
1680,note_on,0,0,1,,,,,,,,,0,,,65,70
1680,note_on,30,0,1,,,,,,,,,0,,,72,0
1680,note_on,60,0,3,,,,,,,,,0,,,60,0
1680,note_on,0,0,3,,,,,,,,,0,,,41,70
1710,note_on,30,0,3,,,,,,,,,0,,,41,0
1740,note_on,0,0,3,,,,,,,,,0,,,53,60
1740,note_on,60,0,1,,,,,,,,,0,,,60,60
1740,note_on,30,0,3,,,,,,,,,0,,,57,60
1800,note_on,60,0,3,,,,,,,,,0,,,57,0
1800,note_on,0,0,3,,,,,,,,,0,,,58,60
1800,note_on,0,0,1,,,,,,,,,0,,,62,60
1800,note_on,60,0,1,,,,,,,,,0,,,60,0
1860,note_on,60,0,3,,,,,,,,,0,,,58,0
1860,note_on,60,0,1,,,,,,,,,0,,,62,0
1860,note_on,0,0,3,,,,,,,,,0,,,60,60
1860,note_on,0,0,1,,,,,,,,,0,,,63,60
1905,control_change,225,0,4,,,,,,,,,0,64,0,,
1920,note_on,0,0,1,,,,,,,,,0,,,65,0
1920,note_on,60,0,1,,,,,,,,,0,,,63,0
1920,note_on,0,0,3,,,,,,,,,0,,,46,70
1920,note_on,60,0,3,,,,,,,,,0,,,60,0
1920,control_change,15,0,4,,,,,,,,,0,64,127,,
1920,note_on,0,0,3,,,,,,,,,0,,,53,0
1920,note_on,0,0,1,,,,,,,,,0,,,86,70
1920,note_on,0,0,1,,,,,,,,,0,,,74,70
1950,note_on,30,0,3,,,,,,,,,0,,,46,0
1980,note_on,30,0,3,,,,,,,,,0,,,62,60
2040,note_on,0,0,1,,,,,,,,,0,,,74,70
2040,note_on,0,0,3,,,,,,,,,0,,,58,60
2040,note_on,0,0,1,,,,,,,,,0,,,86,0
2040,note_on,0,0,3,,,,,,,,,0,,,53,70
2040,note_on,0,0,1,,,,,,,,,0,,,86,70
2040,note_on,60,0,3,,,,,,,,,0,,,62,0
2040,note_on,120,0,1,,,,,,,,,0,,,74,0
2100,note_on,0,0,1,,,,,,,,,0,,,86,70
2100,note_on,60,0,1,,,,,,,,,0,,,74,0
2100,note_on,60,0,3,,,,,,,,,0,,,53,0
2100,note_on,0,0,3,,,,,,,,,0,,,58,0
2100,note_on,0,0,1,,,,,,,,,0,,,86,0
2100,note_on,0,0,3,,,,,,,,,0,,,62,60
2100,note_on,0,0,1,,,,,,,,,0,,,74,70
2145,control_change,225,0,4,,,,,,,,,0,64,0,,
2160,note_on,60,0,1,,,,,,,,,0,,,74,0
2160,note_on,60,0,3,,,,,,,,,0,,,62,0
2160,note_on,0,0,1,,,,,,,,,0,,,70,70
2160,note_on,0,0,1,,,,,,,,,0,,,82,70
2160,note_on,0,0,1,,,,,,,,,0,,,86,0
2160,control_change,15,0,4,,,,,,,,,0,64,127,,
2160,note_on,0,0,3,,,,,,,,,0,,,50,70
2190,note_on,30,0,3,,,,,,,,,0,,,50,0
2220,note_on,30,0,3,,,,,,,,,0,,,65,60
2280,note_on,0,0,1,,,,,,,,,0,,,82,70
2280,note_on,0,0,1,,,,,,,,,0,,,70,70
2280,note_on,120,0,1,,,,,,,,,0,,,70,0
2280,note_on,0,0,1,,,,,,,,,0,,,82,0
2280,note_on,60,0,3,,,,,,,,,0,,,65,0
2280,note_on,0,0,3,,,,,,,,,0,,,53,60
2280,note_on,0,0,3,,,,,,,,,0,,,58,60
2340,note_on,60,0,3,,,,,,,,,0,,,58,0
2340,note_on,0,0,3,,,,,,,,,0,,,53,0
2340,note_on,0,0,3,,,,,,,,,0,,,65,60
2385,control_change,225,0,4,,,,,,,,,0,64,0,,
2400,control_change,15,0,4,,,,,,,,,0,64,127,,
2400,note_on,0,0,1,,,,,,,,,0,,,81,70
2400,note_on,0,0,1,,,,,,,,,0,,,69,70
2400,note_on,60,0,3,,,,,,,,,0,,,65,0
2400,note_on,0,0,3,,,,,,,,,0,,,48,70
2400,note_on,0,0,1,,,,,,,,,0,,,82,0
2400,note_on,120,0,1,,,,,,,,,0,,,70,0
2430,note_on,30,0,3,,,,,,,,,0,,,48,0
2460,note_on,30,0,3,,,,,,,,,0,,,63,60
2520,note_on,120,0,1,,,,,,,,,0,,,69,0
2520,note_on,60,0,3,,,,,,,,,0,,,63,0
2520,note_on,0,0,3,,,,,,,,,0,,,57,60
2520,note_on,0,0,3,,,,,,,,,0,,,53,60
2520,note_on,0,0,1,,,,,,,,,0,,,81,0
2520,note_on,0,0,1,,,,,,,,,0,,,69,70
2520,note_on,0,0,1,,,,,,,,,0,,,81,70
2580,note_on,0,0,1,,,,,,,,,0,,,69,70
2580,note_on,0,0,1,,,,,,,,,0,,,81,70
2580,note_on,60,0,3,,,,,,,,,0,,,57,0
2580,note_on,0,0,3,,,,,,,,,0,,,53,0
2580,note_on,0,0,1,,,,,,,,,0,,,81,0
2580,note_on,0,0,3,,,,,,,,,0,,,63,60
2580,note_on,60,0,1,,,,,,,,,0,,,69,0
2625,control_change,225,0,4,,,,,,,,,0,64,0,,
2640,note_on,0,0,1,,,,,,,,,0,,,81,0
2640,note_on,0,0,1,,,,,,,,,0,,,81,60
2640,note_on,0,0,1,,,,,,,,,0,,,75,70
2640,note_on,0,0,3,,,,,,,,,0,,,41,70
2640,note_on,60,0,3,,,,,,,,,0,,,63,0
2640,control_change,15,0,4,,,,,,,,,0,64,127,,
2640,note_on,60,0,1,,,,,,,,,0,,,69,0
2655,note_on,15,0,1,,,,,,,,,0,,,81,0
2655,note_on,0,0,1,,,,,,,,,0,,,87,70
2670,note_on,30,0,3,,,,,,,,,0,,,41,0
2700,note_on,30,0,3,,,,,,,,,0,,,60,60
2760,note_on,0,0,3,,,,,,,,,0,,,53,60
2760,note_on,60,0,3,,,,,,,,,0,,,60,0
2760,note_on,0,0,3,,,,,,,,,0,,,57,60
2820,note_on,0,0,3,,,,,,,,,0,,,60,60
2820,note_on,0,0,3,,,,,,,,,0,,,53,0
2820,note_on,60,0,3,,,,,,,,,0,,,57,0
2865,control_change,225,0,4,,,,,,,,,0,64,0,,
2880,note_on,0,0,3,,,,,,,,,0,,,46,70
2880,note_on,60,0,3,,,,,,,,,0,,,60,0
2880,control_change,15,0,4,,,,,,,,,0,64,127,,
2880,note_on,0,0,1,,,,,,,,,0,,,75,0
2880,note_on,0,0,1,,,,,,,,,0,,,74,70
2880,note_on,0,0,1,,,,,,,,,0,,,86,70
2880,note_on,225,0,1,,,,,,,,,0,,,87,0
2910,note_on,30,0,3,,,,,,,,,0,,,46,0
2940,note_on,30,0,3,,,,,,,,,0,,,62,65
3000,note_on,0,0,1,,,,,,,,,0,,,74,80
3000,note_on,0,0,1,,,,,,,,,0,,,86,80
3000,note_on,0,0,1,,,,,,,,,0,,,86,0
3000,note_on,120,0,1,,,,,,,,,0,,,74,0
3000,note_on,0,0,3,,,,,,,,,0,,,58,70
3000,note_on,60,0,3,,,,,,,,,0,,,62,0
3000,note_on,0,0,3,,,,,,,,,0,,,53,70
3060,note_on,0,0,3,,,,,,,,,0,,,62,76
3060,note_on,0,0,3,,,,,,,,,0,,,53,0
3060,note_on,60,0,3,,,,,,,,,0,,,58,0
3060,note_on,0,0,1,,,,,,,,,0,,,86,0
3060,note_on,0,0,1,,,,,,,,,0,,,86,86
3060,note_on,60,0,1,,,,,,,,,0,,,74,0
3060,note_on,0,0,1,,,,,,,,,0,,,74,86
3105,control_change,225,0,4,,,,,,,,,0,64,0,,
3120,control_change,15,0,4,,,,,,,,,0,64,127,,
3120,note_on,60,0,3,,,,,,,,,0,,,62,0
3120,note_on,0,0,3,,,,,,,,,0,,,40,90
3120,note_on,0,0,1,,,,,,,,,0,,,79,90
3120,note_on,60,0,1,,,,,,,,,0,,,74,0
3120,note_on,0,0,1,,,,,,,,,0,,,86,0
3120,note_on,0,0,1,,,,,,,,,0,,,91,90
3150,note_on,30,0,3,,,,,,,,,0,,,40,0
3180,note_on,30,0,3,,,,,,,,,0,,,61,75
3240,note_on,0,0,1,,,,,,,,,0,,,91,80
3240,note_on,0,0,1,,,,,,,,,0,,,79,70
3240,note_on,0,0,1,,,,,,,,,0,,,91,0
3240,note_on,0,0,3,,,,,,,,,0,,,58,70
3240,note_on,0,0,3,,,,,,,,,0,,,55,70
3240,note_on,0,0,3,,,,,,,,,0,,,52,70
3240,note_on,60,0,3,,,,,,,,,0,,,61,0
3240,note_on,120,0,1,,,,,,,,,0,,,79,0
3300,note_on,0,0,1,,,,,,,,,0,,,82,64
3300,note_on,0,0,3,,,,,,,,,0,,,61,64
3300,note_on,60,0,1,,,,,,,,,0,,,79,0
3300,note_on,60,0,3,,,,,,,,,0,,,58,0
3300,note_on,0,0,3,,,,,,,,,0,,,55,0
3300,note_on,0,0,3,,,,,,,,,0,,,52,0
3345,control_change,225,0,4,,,,,,,,,0,64,0,,
3360,control_change,15,0,4,,,,,,,,,0,64,127,,
3360,note_on,0,0,1,,,,,,,,,0,,,82,60
3360,note_on,0,0,1,,,,,,,,,0,,,91,0
3360,note_on,0,0,3,,,,,,,,,0,,,58,60
3360,note_on,0,0,1,,,,,,,,,0,,,84,70
3360,note_on,0,0,3,,,,,,,,,0,,,53,70
3360,note_on,0,0,3,,,,,,,,,0,,,60,60
3360,note_on,60,0,1,,,,,,,,,0,,,82,0
3360,note_on,60,0,3,,,,,,,,,0,,,61,0
3420,note_on,60,0,1,,,,,,,,,0,,,82,0
3420,note_on,0,0,1,,,,,,,,,0,,,81,60
3420,note_on,0,0,3,,,,,,,,,0,,,57,60
3420,note_on,60,0,3,,,,,,,,,0,,,58,0
3450,note_on,30,0,3,,,,,,,,,0,,,57,0
3450,note_on,0,0,3,,,,,,,,,0,,,55,60
3450,note_on,0,0,1,,,,,,,,,0,,,79,60
3450,note_on,30,0,1,,,,,,,,,0,,,81,0
3480,note_on,30,0,3,,,,,,,,,0,,,55,0
3480,note_on,0,0,3,,,,,,,,,0,,,57,60
3480,note_on,30,0,1,,,,,,,,,0,,,79,0
3480,note_on,0,0,1,,,,,,,,,0,,,81,60
3540,note_on,0,0,3,,,,,,,,,0,,,60,0
3540,note_on,0,0,3,,,,,,,,,0,,,53,70
3540,note_on,60,0,1,,,,,,,,,0,,,81,0
3540,note_on,0,0,1,,,,,,,,,0,,,84,0
3540,note_on,0,0,1,,,,,,,,,0,,,75,60
3540,note_on,0,0,1,,,,,,,,,0,,,81,60
3540,note_on,0,0,1,,,,,,,,,0,,,89,70
3540,note_on,0,0,3,,,,,,,,,0,,,53,0
3540,note_on,60,0,3,,,,,,,,,0,,,57,0
3540,note_on,0,0,3,,,,,,,,,0,,,60,60
3585,control_change,225,0,4,,,,,,,,,0,64,0,,
3600,note_on,60,0,3,,,,,,,,,0,,,53,0
3600,note_on,0,0,3,,,,,,,,,0,,,60,0
3600,note_on,0,0,3,,,,,,,,,0,,,46,70
3600,note_on,60,0,1,,,,,,,,,0,,,89,0
3600,note_on,0,0,1,,,,,,,,,0,,,74,70
3600,note_on,0,0,1,,,,,,,,,0,,,82,70
3600,note_on,0,0,1,,,,,,,,,0,,,75,0
3600,note_on,0,0,1,,,,,,,,,0,,,81,0
3600,control_change,15,0,4,,,,,,,,,0,64,127,,
3630,note_on,30,0,3,,,,,,,,,0,,,46,0
3660,note_on,30,0,3,,,,,,,,,0,,,58,60
3720,note_on,0,0,3,,,,,,,,,0,,,53,60
3720,note_on,60,0,3,,,,,,,,,0,,,58,0
3720,note_on,0,0,3,,,,,,,,,0,,,50,60
3780,note_on,60,0,3,,,,,,,,,0,,,53,0
3780,note_on,0,0,3,,,,,,,,,0,,,50,0
3780,note_on,0,0,3,,,,,,,,,0,,,58,60
3825,control_change,225,0,4,,,,,,,,,0,64,0,,
3840,note_on,60,0,3,,,,,,,,,0,,,58,0
3840,note_on,0,0,3,,,,,,,,,0,,,46,70
3840,note_on,0,0,1,,,,,,,,,0,,,74,70
3840,note_on,240,0,1,,,,,,,,,0,,,74,0
3840,control_change,15,0,4,,,,,,,,,0,64,127,,
3840,note_on,0,0,1,,,,,,,,,0,,,82,0
3870,note_on,30,0,3,,,,,,,,,0,,,46,0
3900,note_on,30,0,3,,,,,,,,,0,,,62,60
3960,note_on,120,0,1,,,,,,,,,0,,,74,0
3960,note_on,60,0,3,,,,,,,,,0,,,62,0
3960,note_on,0,0,3,,,,,,,,,0,,,53,60
3960,note_on,0,0,3,,,,,,,,,0,,,58,60
3960,note_on,0,0,1,,,,,,,,,0,,,74,70
4020,note_on,0,0,1,,,,,,,,,0,,,74,70
4020,note_on,60,0,1,,,,,,,,,0,,,74,0
4020,note_on,60,0,3,,,,,,,,,0,,,58,0
4020,note_on,0,0,3,,,,,,,,,0,,,53,0
4020,note_on,0,0,3,,,,,,,,,0,,,62,60
4065,control_change,225,0,4,,,,,,,,,0,64,0,,
4080,note_on,60,0,3,,,,,,,,,0,,,62,0
4080,note_on,0,0,3,,,,,,,,,0,,,50,70
4080,control_change,15,0,4,,,,,,,,,0,64,127,,
4080,note_on,0,0,1,,,,,,,,,0,,,70,70
4080,note_on,60,0,1,,,,,,,,,0,,,74,0
4110,note_on,30,0,3,,,,,,,,,0,,,50,0
4140,note_on,30,0,3,,,,,,,,,0,,,65,60
4200,note_on,0,0,1,,,,,,,,,0,,,70,70
4200,note_on,60,0,3,,,,,,,,,0,,,65,0
4200,note_on,0,0,3,,,,,,,,,0,,,53,60
4200,note_on,120,0,1,,,,,,,,,0,,,70,0
4200,note_on,0,0,3,,,,,,,,,0,,,58,60
4260,note_on,60,0,3,,,,,,,,,0,,,58,0
4260,note_on,0,0,3,,,,,,,,,0,,,53,0
4260,note_on,0,0,3,,,,,,,,,0,,,65,60
4305,control_change,225,0,4,,,,,,,,,0,64,0,,
4320,note_on,0,0,3,,,,,,,,,0,,,48,70
4320,note_on,120,0,1,,,,,,,,,0,,,70,0
4320,note_on,0,0,1,,,,,,,,,0,,,69,70
4320,control_change,15,0,4,,,,,,,,,0,64,127,,
4320,note_on,60,0,3,,,,,,,,,0,,,65,0
4350,note_on,30,0,3,,,,,,,,,0,,,48,0
4380,note_on,30,0,3,,,,,,,,,0,,,63,60
4440,note_on,0,0,3,,,,,,,,,0,,,57,60
4440,note_on,0,0,3,,,,,,,,,0,,,53,60
4440,note_on,120,0,1,,,,,,,,,0,,,69,0
4440,note_on,0,0,1,,,,,,,,,0,,,69,70
4440,note_on,60,0,3,,,,,,,,,0,,,63,0
4500,note_on,60,0,3,,,,,,,,,0,,,57,0
4500,note_on,0,0,3,,,,,,,,,0,,,53,0
4500,note_on,60,0,1,,,,,,,,,0,,,69,0
4500,note_on,0,0,3,,,,,,,,,0,,,63,60
4500,note_on,0,0,1,,,,,,,,,0,,,69,70
4545,control_change,225,0,4,,,,,,,,,0,64,0,,
4560,note_on,60,0,3,,,,,,,,,0,,,63,0
4560,control_change,15,0,4,,,,,,,,,0,64,127,,
4560,note_on,0,0,1,,,,,,,,,0,,,69,60
4560,note_on,60,0,1,,,,,,,,,0,,,69,0
4560,note_on,0,0,3,,,,,,,,,0,,,41,70
4575,note_on,0,0,1,,,,,,,,,0,,,75,70
4575,note_on,15,0,1,,,,,,,,,0,,,69,0
4590,note_on,30,0,3,,,,,,,,,0,,,41,0
4620,note_on,30,0,3,,,,,,,,,0,,,60,60
4680,note_on,60,0,3,,,,,,,,,0,,,60,0
4680,note_on,0,0,3,,,,,,,,,0,,,53,60
4680,note_on,0,0,3,,,,,,,,,0,,,57,60
4740,note_on,60,0,3,,,,,,,,,0,,,57,0
4740,note_on,0,0,3,,,,,,,,,0,,,53,0
4740,note_on,0,0,3,,,,,,,,,0,,,60,60
4785,control_change,225,0,4,,,,,,,,,0,64,0,,
4800,note_on,0,0,1,,,,,,,,,0,,,74,70
4800,control_change,15,0,4,,,,,,,,,0,64,127,,
4800,note_on,225,0,1,,,,,,,,,0,,,75,0
4800,note_on,60,0,3,,,,,,,,,0,,,60,0
4800,note_on,0,0,3,,,,,,,,,0,,,46,70
4830,note_on,30,0,3,,,,,,,,,0,,,46,0
4860,note_on,30,0,3,,,,,,,,,0,,,62,60
4920,note_on,60,0,3,,,,,,,,,0,,,62,0
4920,note_on,120,0,1,,,,,,,,,0,,,74,0
4920,note_on,0,0,1,,,,,,,,,0,,,74,70
4920,note_on,0,0,3,,,,,,,,,0,,,53,60
4920,note_on,0,0,3,,,,,,,,,0,,,58,60
4980,note_on,60,0,3,,,,,,,,,0,,,58,0
4980,note_on,0,0,3,,,,,,,,,0,,,53,0
4980,note_on,0,0,1,,,,,,,,,0,,,74,70
4980,note_on,60,0,1,,,,,,,,,0,,,74,0
4980,note_on,0,0,3,,,,,,,,,0,,,62,60
5025,control_change,225,0,4,,,,,,,,,0,64,0,,
5040,note_on,60,0,3,,,,,,,,,0,,,62,0
5040,note_on,60,0,1,,,,,,,,,0,,,74,0
5040,control_change,15,0,4,,,,,,,,,0,64,127,,
5040,note_on,0,0,3,,,,,,,,,0,,,39,70
5040,note_on,0,0,1,,,,,,,,,0,,,74,70
5070,note_on,30,0,3,,,,,,,,,0,,,39,0
5100,note_on,0,0,1,,,,,,,,,0,,,67,70
5100,note_on,30,0,3,,,,,,,,,0,,,60,60
5100,note_on,60,0,1,,,,,,,,,0,,,74,0
5130,note_on,30,0,1,,,,,,,,,0,,,67,0
5160,note_on,30,0,1,,,,,,,,,0,,,67,70
5160,note_on,60,0,3,,,,,,,,,0,,,60,0
5160,note_on,0,0,3,,,,,,,,,0,,,51,60
5160,note_on,0,0,3,,,,,,,,,0,,,55,60
5160,note_on,0,0,3,,,,,,,,,0,,,58,60
5220,note_on,60,0,3,,,,,,,,,0,,,58,0
5220,note_on,0,0,3,,,,,,,,,0,,,55,0
5220,note_on,0,0,3,,,,,,,,,0,,,51,0
5220,note_on,0,0,3,,,,,,,,,0,,,60,60
5265,control_change,225,0,4,,,,,,,,,0,64,0,,
5280,note_on,120,0,1,,,,,,,,,0,,,67,0
5280,control_change,15,0,4,,,,,,,,,0,64,127,,
5280,note_on,0,0,1,,,,,,,,,0,,,72,70
5280,note_on,60,0,3,,,,,,,,,0,,,60,0
5280,note_on,0,0,3,,,,,,,,,0,,,40,70
5310,note_on,30,0,3,,,,,,,,,0,,,40,0
5340,note_on,60,0,1,,,,,,,,,0,,,72,0
5340,note_on,0,0,1,,,,,,,,,0,,,71,70
5340,note_on,30,0,3,,,,,,,,,0,,,60,60
5370,note_on,0,0,1,,,,,,,,,0,,,72,70
5370,note_on,30,0,1,,,,,,,,,0,,,71,0
5400,note_on,0,0,3,,,,,,,,,0,,,52,60
5400,note_on,60,0,3,,,,,,,,,0,,,60,0
5400,note_on,0,0,3,,,,,,,,,0,,,58,60
5400,note_on,30,0,1,,,,,,,,,0,,,72,0
5400,note_on,0,0,1,,,,,,,,,0,,,71,70
5400,note_on,0,0,3,,,,,,,,,0,,,55,60
5430,note_on,30,0,1,,,,,,,,,0,,,71,0
5430,note_on,0,0,1,,,,,,,,,0,,,72,70
5460,note_on,0,0,1,,,,,,,,,0,,,74,70
5460,note_on,60,0,3,,,,,,,,,0,,,58,0
5460,note_on,0,0,3,,,,,,,,,0,,,55,0
5460,note_on,0,0,3,,,,,,,,,0,,,52,0
5460,note_on,0,0,3,,,,,,,,,0,,,60,60
5460,note_on,30,0,1,,,,,,,,,0,,,72,0
5490,note_on,0,0,1,,,,,,,,,0,,,72,70
5490,note_on,30,0,1,,,,,,,,,0,,,74,0
5505,control_change,225,0,4,,,,,,,,,0,64,0,,
5520,note_on,60,0,3,,,,,,,,,0,,,60,0
5520,note_on,30,0,1,,,,,,,,,0,,,72,0
5520,note_on,0,0,3,,,,,,,,,0,,,41,70
5520,control_change,15,0,4,,,,,,,,,0,64,127,,
5520,note_on,0,0,1,,,,,,,,,0,,,65,70
5550,note_on,30,0,3,,,,,,,,,0,,,41,0
5580,note_on,30,0,3,,,,,,,,,0,,,57,60
5580,note_on,60,0,1,,,,,,,,,0,,,60,60
5580,note_on,0,0,3,,,,,,,,,0,,,53,60
5640,note_on,0,0,3,,,,,,,,,0,,,58,60
5640,note_on,60,0,3,,,,,,,,,0,,,57,0
5640,note_on,60,0,1,,,,,,,,,0,,,60,0
5640,note_on,0,0,1,,,,,,,,,0,,,62,60
5700,note_on,60,0,3,,,,,,,,,0,,,58,0
5700,note_on,60,0,1,,,,,,,,,0,,,62,0
5700,note_on,0,0,3,,,,,,,,,0,,,60,60
5700,note_on,0,0,1,,,,,,,,,0,,,63,60
5745,control_change,225,0,4,,,,,,,,,0,64,0,,
5760,control_change,15,0,4,,,,,,,,,0,64,127,,
5760,note_on,0,0,3,,,,,,,,,0,,,46,70
5760,note_on,0,0,1,,,,,,,,,0,,,65,0
5760,note_on,0,0,1,,,,,,,,,0,,,86,70
5760,note_on,0,0,1,,,,,,,,,0,,,74,70
5760,note_on,0,0,3,,,,,,,,,0,,,53,0
5760,note_on,60,0,3,,,,,,,,,0,,,60,0
5760,note_on,60,0,1,,,,,,,,,0,,,63,0
5790,note_on,30,0,3,,,,,,,,,0,,,46,0
5820,note_on,30,0,3,,,,,,,,,0,,,62,60
5880,note_on,60,0,3,,,,,,,,,0,,,62,0
5880,note_on,0,0,1,,,,,,,,,0,,,86,70
5880,note_on,0,0,1,,,,,,,,,0,,,86,0
5880,note_on,120,0,1,,,,,,,,,0,,,74,0
5880,note_on,0,0,3,,,,,,,,,0,,,53,70
5880,note_on,0,0,1,,,,,,,,,0,,,74,70
5880,note_on,0,0,3,,,,,,,,,0,,,58,60
5940,note_on,60,0,1,,,,,,,,,0,,,74,0
5940,note_on,0,0,1,,,,,,,,,0,,,86,0
5940,note_on,0,0,1,,,,,,,,,0,,,86,70
5940,note_on,0,0,1,,,,,,,,,0,,,74,70
5940,note_on,0,0,3,,,,,,,,,0,,,62,60
5940,note_on,0,0,3,,,,,,,,,0,,,58,0
5940,note_on,60,0,3,,,,,,,,,0,,,53,0
5985,control_change,225,0,4,,,,,,,,,0,64,0,,
6000,note_on,0,0,1,,,,,,,,,0,,,70,70
6000,note_on,0,0,3,,,,,,,,,0,,,50,70
6000,note_on,0,0,1,,,,,,,,,0,,,82,70
6000,note_on,0,0,1,,,,,,,,,0,,,86,0
6000,note_on,60,0,1,,,,,,,,,0,,,74,0
6000,note_on,60,0,3,,,,,,,,,0,,,62,0
6000,control_change,15,0,4,,,,,,,,,0,64,127,,
6030,note_on,30,0,3,,,,,,,,,0,,,50,0
6060,note_on,30,0,3,,,,,,,,,0,,,65,60
6120,note_on,0,0,1,,,,,,,,,0,,,70,70
6120,note_on,0,0,3,,,,,,,,,0,,,58,60
6120,note_on,0,0,3,,,,,,,,,0,,,53,60
6120,note_on,60,0,3,,,,,,,,,0,,,65,0
6120,note_on,0,0,1,,,,,,,,,0,,,82,70
6120,note_on,0,0,1,,,,,,,,,0,,,82,0
6120,note_on,120,0,1,,,,,,,,,0,,,70,0
6180,note_on,0,0,3,,,,,,,,,0,,,53,0
6180,note_on,60,0,3,,,,,,,,,0,,,58,0
6180,note_on,0,0,3,,,,,,,,,0,,,65,60
6225,control_change,225,0,4,,,,,,,,,0,64,0,,
6240,note_on,60,0,3,,,,,,,,,0,,,65,0
6240,note_on,0,0,1,,,,,,,,,0,,,69,70
6240,note_on,0,0,1,,,,,,,,,0,,,81,70
6240,note_on,0,0,1,,,,,,,,,0,,,82,0
6240,note_on,0,0,3,,,,,,,,,0,,,48,70
6240,control_change,15,0,4,,,,,,,,,0,64,127,,
6240,note_on,120,0,1,,,,,,,,,0,,,70,0
6270,note_on,30,0,3,,,,,,,,,0,,,48,0
6300,note_on,30,0,3,,,,,,,,,0,,,63,60
6360,note_on,0,0,1,,,,,,,,,0,,,81,70
6360,note_on,60,0,3,,,,,,,,,0,,,63,0
6360,note_on,0,0,3,,,,,,,,,0,,,53,60
6360,note_on,0,0,3,,,,,,,,,0,,,57,60
6360,note_on,0,0,1,,,,,,,,,0,,,81,0
6360,note_on,0,0,1,,,,,,,,,0,,,69,70
6360,note_on,120,0,1,,,,,,,,,0,,,69,0
6420,note_on,60,0,1,,,,,,,,,0,,,69,0
6420,note_on,0,0,1,,,,,,,,,0,,,81,0
6420,note_on,0,0,1,,,,,,,,,0,,,81,70
6420,note_on,0,0,1,,,,,,,,,0,,,69,70
6420,note_on,60,0,3,,,,,,,,,0,,,57,0
6420,note_on,0,0,3,,,,,,,,,0,,,63,60
6420,note_on,0,0,3,,,,,,,,,0,,,53,0
6465,control_change,225,0,4,,,,,,,,,0,64,0,,
6480,note_on,0,0,3,,,,,,,,,0,,,41,70
6480,note_on,0,0,1,,,,,,,,,0,,,75,70
6480,note_on,0,0,1,,,,,,,,,0,,,81,0
6480,note_on,60,0,1,,,,,,,,,0,,,69,0
6480,note_on,60,0,3,,,,,,,,,0,,,63,0
6480,control_change,15,0,4,,,,,,,,,0,64,127,,
6480,note_on,0,0,1,,,,,,,,,0,,,81,60
6495,note_on,0,0,1,,,,,,,,,0,,,87,70
6495,note_on,15,0,1,,,,,,,,,0,,,81,0
6510,note_on,30,0,3,,,,,,,,,0,,,41,0
6540,note_on,30,0,3,,,,,,,,,0,,,60,60
6600,note_on,60,0,3,,,,,,,,,0,,,60,0
6600,note_on,0,0,3,,,,,,,,,0,,,53,60
6600,note_on,0,0,3,,,,,,,,,0,,,57,60
6660,note_on,60,0,3,,,,,,,,,0,,,57,0
6660,note_on,0,0,3,,,,,,,,,0,,,53,0
6660,note_on,0,0,3,,,,,,,,,0,,,60,60
6705,control_change,225,0,4,,,,,,,,,0,64,0,,
6720,note_on,225,0,1,,,,,,,,,0,,,87,0
6720,control_change,15,0,4,,,,,,,,,0,64,127,,
6720,note_on,60,0,3,,,,,,,,,0,,,60,0
6720,note_on,0,0,3,,,,,,,,,0,,,46,70
6720,note_on,0,0,1,,,,,,,,,0,,,74,70
6720,note_on,0,0,1,,,,,,,,,0,,,86,70
6720,note_on,0,0,1,,,,,,,,,0,,,75,0
6750,note_on,30,0,3,,,,,,,,,0,,,46,0
6780,note_on,30,0,3,,,,,,,,,0,,,62,65
6840,note_on,60,0,3,,,,,,,,,0,,,62,0
6840,note_on,0,0,3,,,,,,,,,0,,,58,70
6840,note_on,0,0,3,,,,,,,,,0,,,53,70
6840,note_on,120,0,1,,,,,,,,,0,,,74,0
6840,note_on,0,0,1,,,,,,,,,0,,,86,0
6840,note_on,0,0,1,,,,,,,,,0,,,86,80
6840,note_on,0,0,1,,,,,,,,,0,,,74,80
6900,note_on,0,0,3,,,,,,,,,0,,,62,76
6900,note_on,60,0,1,,,,,,,,,0,,,74,0
6900,note_on,0,0,1,,,,,,,,,0,,,86,0
6900,note_on,0,0,1,,,,,,,,,0,,,86,86
6900,note_on,0,0,1,,,,,,,,,0,,,74,86
6900,note_on,60,0,3,,,,,,,,,0,,,58,0
6900,note_on,0,0,3,,,,,,,,,0,,,53,0
6945,control_change,225,0,4,,,,,,,,,0,64,0,,
6960,note_on,60,0,1,,,,,,,,,0,,,74,0
6960,note_on,60,0,3,,,,,,,,,0,,,62,0
6960,note_on,0,0,3,,,,,,,,,0,,,40,90
6960,note_on,0,0,1,,,,,,,,,0,,,79,90
6960,note_on,0,0,1,,,,,,,,,0,,,91,90
6960,control_change,15,0,4,,,,,,,,,0,64,127,,
6960,note_on,0,0,1,,,,,,,,,0,,,86,0
6990,note_on,30,0,3,,,,,,,,,0,,,40,0
7020,note_on,30,0,3,,,,,,,,,0,,,61,75
7080,note_on,0,0,1,,,,,,,,,0,,,91,80
7080,note_on,0,0,1,,,,,,,,,0,,,79,70
7080,note_on,0,0,1,,,,,,,,,0,,,91,0
7080,note_on,120,0,1,,,,,,,,,0,,,79,0
7080,note_on,60,0,3,,,,,,,,,0,,,61,0
7080,note_on,0,0,3,,,,,,,,,0,,,58,70
7080,note_on,0,0,3,,,,,,,,,0,,,55,70
7080,note_on,0,0,3,,,,,,,,,0,,,52,70
7140,note_on,60,0,3,,,,,,,,,0,,,58,0
7140,note_on,0,0,3,,,,,,,,,0,,,55,0
7140,note_on,0,0,3,,,,,,,,,0,,,52,0
7140,note_on,0,0,3,,,,,,,,,0,,,61,64
7140,note_on,60,0,1,,,,,,,,,0,,,79,0
7140,note_on,0,0,1,,,,,,,,,0,,,82,64
7185,control_change,225,0,4,,,,,,,,,0,64,0,,
7200,note_on,60,0,1,,,,,,,,,0,,,82,0
7200,note_on,0,0,3,,,,,,,,,0,,,60,60
7200,note_on,0,0,3,,,,,,,,,0,,,53,70
7200,note_on,0,0,3,,,,,,,,,0,,,58,60
7200,note_on,0,0,1,,,,,,,,,0,,,91,0
7200,note_on,0,0,1,,,,,,,,,0,,,82,60
7200,note_on,0,0,1,,,,,,,,,0,,,84,70
7200,note_on,60,0,3,,,,,,,,,0,,,61,0
7200,control_change,15,0,4,,,,,,,,,0,64,127,,
7260,note_on,0,0,1,,,,,,,,,0,,,81,60
7260,note_on,60,0,1,,,,,,,,,0,,,82,0
7260,note_on,60,0,3,,,,,,,,,0,,,58,0
7260,note_on,0,0,3,,,,,,,,,0,,,57,60
7290,note_on,0,0,3,,,,,,,,,0,,,55,60
7290,note_on,0,0,1,,,,,,,,,0,,,79,60
7290,note_on,30,0,1,,,,,,,,,0,,,81,0
7290,note_on,30,0,3,,,,,,,,,0,,,57,0
7320,note_on,30,0,3,,,,,,,,,0,,,55,0
7320,note_on,0,0,3,,,,,,,,,0,,,57,60
7320,note_on,0,0,1,,,,,,,,,0,,,81,60
7320,note_on,30,0,1,,,,,,,,,0,,,79,0
7380,note_on,60,0,1,,,,,,,,,0,,,81,0
7380,note_on,0,0,3,,,,,,,,,0,,,60,60
7380,note_on,0,0,3,,,,,,,,,0,,,60,0
7380,note_on,0,0,3,,,,,,,,,0,,,53,0
7380,note_on,60,0,3,,,,,,,,,0,,,57,0
7380,note_on,0,0,1,,,,,,,,,0,,,89,70
7380,note_on,0,0,1,,,,,,,,,0,,,81,60
7380,note_on,0,0,1,,,,,,,,,0,,,75,60
7380,note_on,0,0,1,,,,,,,,,0,,,84,0
7380,note_on,0,0,3,,,,,,,,,0,,,53,70
7425,control_change,225,0,4,,,,,,,,,0,64,0,,
7440,note_on,60,0,3,,,,,,,,,0,,,53,0
7440,note_on,0,0,3,,,,,,,,,0,,,46,70
7440,note_on,0,0,1,,,,,,,,,0,,,75,0
7440,note_on,0,0,3,,,,,,,,,0,,,60,0
7440,note_on,60,0,1,,,,,,,,,0,,,89,0
7440,note_on,0,0,1,,,,,,,,,0,,,81,0
7440,control_change,15,0,4,,,,,,,,,0,64,127,,
7440,note_on,0,0,1,,,,,,,,,0,,,74,70
7440,note_on,0,0,1,,,,,,,,,0,,,82,70
7470,note_on,30,0,3,,,,,,,,,0,,,46,0
7500,note_on,30,0,3,,,,,,,,,0,,,58,60
7560,note_on,0,0,3,,,,,,,,,0,,,53,60
7560,note_on,0,0,3,,,,,,,,,0,,,50,60
7560,note_on,60,0,3,,,,,,,,,0,,,58,0
7620,note_on,0,0,3,,,,,,,,,0,,,58,60
7620,note_on,0,0,3,,,,,,,,,0,,,50,0
7620,note_on,60,0,3,,,,,,,,,0,,,53,0
7665,control_change,225,0,4,,,,,,,,,0,64,0,,
7680,note_on,240,0,1,,,,,,,,,0,,,74,0
7680,note_on,0,0,1,,,,,,,,,0,,,82,0
7680,note_on,0,0,1,,,,,,,,,0,,,74,90
7680,note_on,0,0,1,,,,,,,,,0,,,69,90
7680,note_on,0,0,3,,,,,,,,,0,,,50,90
7680,note_on,0,0,3,,,,,,,,,0,,,38,90
7680,control_change,15,0,4,,,,,,,,,0,64,127,,
7680,note_on,0,0,1,,,,,,,,,0,,,66,90
7680,note_on,60,0,3,,,,,,,,,0,,,58,0
7710,note_on,30,0,3,,,,,,,,,0,,,50,0
7710,note_on,0,0,3,,,,,,,,,0,,,38,0
7740,note_on,30,0,3,,,,,,,,,0,,,62,80
7800,note_on,0,0,1,,,,,,,,,0,,,74,90
7800,note_on,0,0,1,,,,,,,,,0,,,66,90
7800,note_on,120,0,1,,,,,,,,,0,,,66,0
7800,note_on,0,0,1,,,,,,,,,0,,,69,0
7800,note_on,0,0,1,,,,,,,,,0,,,74,0
7800,note_on,0,0,1,,,,,,,,,0,,,69,90
7800,note_on,0,0,3,,,,,,,,,0,,,57,80
7800,note_on,0,0,3,,,,,,,,,0,,,54,80
7800,note_on,60,0,3,,,,,,,,,0,,,62,0
7860,note_on,0,0,3,,,,,,,,,0,,,54,0
7860,note_on,60,0,3,,,,,,,,,0,,,57,0
7860,note_on,0,0,3,,,,,,,,,0,,,62,80
7860,note_on,0,0,1,,,,,,,,,0,,,74,90
7860,note_on,0,0,1,,,,,,,,,0,,,69,90
7860,note_on,0,0,1,,,,,,,,,0,,,66,90
7860,note_on,0,0,1,,,,,,,,,0,,,74,0
7860,note_on,0,0,1,,,,,,,,,0,,,69,0
7860,note_on,60,0,1,,,,,,,,,0,,,66,0
7905,control_change,225,0,4,,,,,,,,,0,64,0,,
7920,note_on,0,0,1,,,,,,,,,0,,,69,0
7920,control_change,15,0,4,,,,,,,,,0,64,127,,
7920,note_on,0,0,1,,,,,,,,,0,,,62,90
7920,note_on,0,0,1,,,,,,,,,0,,,67,90
7920,note_on,0,0,1,,,,,,,,,0,,,66,0
7920,note_on,0,0,1,,,,,,,,,0,,,70,90
7920,note_on,0,0,3,,,,,,,,,0,,,43,90
7920,note_on,60,0,3,,,,,,,,,0,,,62,0
7920,note_on,60,0,1,,,,,,,,,0,,,74,0
7950,note_on,30,0,3,,,,,,,,,0,,,43,0
7980,note_on,30,0,3,,,,,,,,,0,,,58,80
8040,note_on,120,0,1,,,,,,,,,0,,,62,0
8040,note_on,0,0,1,,,,,,,,,0,,,67,0
8040,note_on,0,0,1,,,,,,,,,0,,,70,0
8040,note_on,0,0,3,,,,,,,,,0,,,50,80
8040,note_on,0,0,1,,,,,,,,,0,,,67,90
8040,note_on,0,0,3,,,,,,,,,0,,,55,80
8040,note_on,0,0,1,,,,,,,,,0,,,62,90
8040,note_on,0,0,1,,,,,,,,,0,,,70,90
8040,note_on,60,0,3,,,,,,,,,0,,,58,0
8100,note_on,60,0,3,,,,,,,,,0,,,55,0
8100,note_on,0,0,3,,,,,,,,,0,,,50,0
8100,note_on,0,0,3,,,,,,,,,0,,,58,80
8145,control_change,225,0,4,,,,,,,,,0,64,0,,
8160,note_on,0,0,1,,,,,,,,,0,,,67,0
8160,note_on,0,0,1,,,,,,,,,0,,,70,90
8160,note_on,0,0,1,,,,,,,,,0,,,67,90
8160,note_on,0,0,1,,,,,,,,,0,,,62,90
8160,note_on,0,0,1,,,,,,,,,0,,,70,0
8160,note_on,0,0,3,,,,,,,,,0,,,43,90
8160,note_on,120,0,1,,,,,,,,,0,,,62,0
8160,control_change,15,0,4,,,,,,,,,0,64,127,,
8160,note_on,60,0,3,,,,,,,,,0,,,58,0
8190,note_on,30,0,3,,,,,,,,,0,,,43,0
8220,note_on,30,0,3,,,,,,,,,0,,,58,80
8250,note_on,90,0,1,,,,,,,,,0,,,72,80
8265,note_on,15,0,1,,,,,,,,,0,,,72,0
8265,note_on,0,0,1,,,,,,,,,0,,,70,80
8280,note_on,0,0,1,,,,,,,,,0,,,69,90
8280,note_on,15,0,1,,,,,,,,,0,,,70,0
8280,note_on,0,0,1,,,,,,,,,0,,,67,0
8280,note_on,0,0,1,,,,,,,,,0,,,70,0
8280,note_on,0,0,3,,,,,,,,,0,,,55,80
8280,note_on,0,0,3,,,,,,,,,0,,,50,80
8280,note_on,0,0,1,,,,,,,,,0,,,62,90
8280,note_on,0,0,1,,,,,,,,,0,,,62,0
8280,note_on,60,0,3,,,,,,,,,0,,,58,0
8340,note_on,60,0,1,,,,,,,,,0,,,62,0
8340,note_on,0,0,1,,,,,,,,,0,,,69,0
8340,note_on,0,0,1,,,,,,,,,0,,,62,90
8340,note_on,0,0,1,,,,,,,,,0,,,67,90
8340,note_on,60,0,3,,,,,,,,,0,,,55,0
8340,note_on,0,0,3,,,,,,,,,0,,,50,0
8340,note_on,0,0,3,,,,,,,,,0,,,58,80
8385,control_change,225,0,4,,,,,,,,,0,64,0,,
8400,note_on,0,0,1,,,,,,,,,0,,,67,0
8400,note_on,0,0,1,,,,,,,,,0,,,67,80
8400,note_on,0,0,1,,,,,,,,,0,,,64,80
8400,note_on,0,0,1,,,,,,,,,0,,,72,90
8400,note_on,60,0,1,,,,,,,,,0,,,62,0
8400,control_change,15,0,4,,,,,,,,,0,64,127,,
8400,note_on,0,0,3,,,,,,,,,0,,,36,90
8400,note_on,60,0,3,,,,,,,,,0,,,58,0
8430,note_on,30,0,3,,,,,,,,,0,,,36,0
8460,note_on,30,0,3,,,,,,,,,0,,,55,80
8520,note_on,60,0,3,,,,,,,,,0,,,55,0
8520,note_on,0,0,3,,,,,,,,,0,,,48,80
8520,note_on,0,0,3,,,,,,,,,0,,,52,80
8580,note_on,180,0,1,,,,,,,,,0,,,72,0
8580,note_on,0,0,1,,,,,,,,,0,,,70,90
8580,note_on,0,0,3,,,,,,,,,0,,,55,80
8580,note_on,60,0,3,,,,,,,,,0,,,52,0
8580,note_on,0,0,3,,,,,,,,,0,,,48,0
8625,control_change,225,0,4,,,,,,,,,0,64,0,,
8640,note_on,60,0,3,,,,,,,,,0,,,55,0
8640,note_on,0,0,1,,,,,,,,,0,,,60,90
8640,note_on,0,0,1,,,,,,,,,0,,,65,90
8640,note_on,0,0,1,,,,,,,,,0,,,69,90
8640,note_on,0,0,1,,,,,,,,,0,,,67,0
8640,note_on,60,0,1,,,,,,,,,0,,,70,0
8640,control_change,15,0,4,,,,,,,,,0,64,127,,
8640,note_on,0,0,1,,,,,,,,,0,,,64,0
8640,note_on,0,0,3,,,,,,,,,0,,,41,90
8670,note_on,30,0,3,,,,,,,,,0,,,41,0
8700,note_on,30,0,3,,,,,,,,,0,,,57,78
8760,note_on,60,0,3,,,,,,,,,0,,,57,0
8760,note_on,0,0,3,,,,,,,,,0,,,53,75
8760,note_on,0,0,3,,,,,,,,,0,,,48,75
8760,note_on,0,0,1,,,,,,,,,0,,,65,0
8760,note_on,0,0,1,,,,,,,,,0,,,69,0
8760,note_on,120,0,1,,,,,,,,,0,,,60,0
8760,note_on,0,0,1,,,,,,,,,0,,,60,85
8760,note_on,0,0,1,,,,,,,,,0,,,69,85
8760,note_on,0,0,1,,,,,,,,,0,,,65,85
8820,note_on,0,0,3,,,,,,,,,0,,,57,72
8820,note_on,0,0,3,,,,,,,,,0,,,48,0
8820,note_on,60,0,3,,,,,,,,,0,,,53,0
8820,note_on,60,0,1,,,,,,,,,0,,,60,0
8820,note_on,0,0,1,,,,,,,,,0,,,65,0
8820,note_on,0,0,1,,,,,,,,,0,,,69,0
8820,note_on,0,0,1,,,,,,,,,0,,,60,82
8820,note_on,0,0,1,,,,,,,,,0,,,69,82
8820,note_on,0,0,1,,,,,,,,,0,,,65,82
8865,control_change,225,0,4,,,,,,,,,0,64,0,,
8880,note_on,0,0,1,,,,,,,,,0,,,67,80
8880,note_on,0,0,3,,,,,,,,,0,,,34,80
8880,note_on,60,0,3,,,,,,,,,0,,,57,0
8880,control_change,15,0,4,,,,,,,,,0,64,127,,
8880,note_on,60,0,1,,,,,,,,,0,,,60,0
8880,note_on,0,0,1,,,,,,,,,0,,,69,0
8880,note_on,0,0,1,,,,,,,,,0,,,62,80
8880,note_on,0,0,1,,,,,,,,,0,,,65,80
8880,note_on,0,0,1,,,,,,,,,0,,,65,0
8910,note_on,30,0,3,,,,,,,,,0,,,34,0
8940,note_on,30,0,3,,,,,,,,,0,,,55,67
9000,note_on,0,0,3,,,,,,,,,0,,,50,64
9000,note_on,60,0,3,,,,,,,,,0,,,55,0
9000,note_on,0,0,3,,,,,,,,,0,,,53,64
9000,note_on,0,0,1,,,,,,,,,0,,,65,0
9000,note_on,120,0,1,,,,,,,,,0,,,62,0
9000,note_on,0,0,1,,,,,,,,,0,,,67,0
9000,note_on,0,0,1,,,,,,,,,0,,,67,74
9000,note_on,0,0,1,,,,,,,,,0,,,65,74
9000,note_on,0,0,1,,,,,,,,,0,,,62,74
9060,note_on,60,0,3,,,,,,,,,0,,,53,0
9060,note_on,0,0,3,,,,,,,,,0,,,50,0
9060,note_on,0,0,3,,,,,,,,,0,,,55,61
9105,control_change,225,0,4,,,,,,,,,0,64,0,,
9120,note_on,0,0,1,,,,,,,,,0,,,64,60
9120,note_on,60,0,3,,,,,,,,,0,,,55,0
9120,note_on,0,0,3,,,,,,,,,0,,,36,70
9120,note_on,0,0,1,,,,,,,,,0,,,67,70
9120,note_on,0,0,1,,,,,,,,,0,,,60,60
9120,note_on,0,0,1,,,,,,,,,0,,,67,0
9120,note_on,0,0,1,,,,,,,,,0,,,65,0
9120,note_on,120,0,1,,,,,,,,,0,,,62,0
9120,control_change,15,0,4,,,,,,,,,0,64,127,,
9150,note_on,30,0,3,,,,,,,,,0,,,36,0
9180,note_on,60,0,1,,,,,,,,,0,,,67,0
9180,note_on,0,0,1,,,,,,,,,0,,,69,70
9180,note_on,30,0,3,,,,,,,,,0,,,48,60
9180,note_on,0,0,3,,,,,,,,,0,,,55,60
9210,note_on,30,0,1,,,,,,,,,0,,,69,0
9210,note_on,0,0,1,,,,,,,,,0,,,70,70
9240,note_on,60,0,3,,,,,,,,,0,,,55,0
9240,note_on,0,0,3,,,,,,,,,0,,,57,60
9240,note_on,0,0,1,,,,,,,,,0,,,64,0
9240,note_on,0,0,1,,,,,,,,,0,,,65,60
9240,note_on,0,0,1,,,,,,,,,0,,,69,70
9240,note_on,30,0,1,,,,,,,,,0,,,70,0
9300,note_on,0,0,1,,,,,,,,,0,,,64,60
9300,note_on,60,0,1,,,,,,,,,0,,,69,0
9300,note_on,0,0,3,,,,,,,,,0,,,58,60
9300,note_on,60,0,3,,,,,,,,,0,,,57,0
9300,note_on,0,0,1,,,,,,,,,0,,,65,0
9300,note_on,0,0,1,,,,,,,,,0,,,67,70
9345,control_change,225,0,4,,,,,,,,,0,64,0,,
9360,note_on,0,0,3,,,,,,,,,0,,,41,70
9360,note_on,0,0,3,,,,,,,,,0,,,48,0
9360,control_change,15,0,4,,,,,,,,,0,64,127,,
9360,note_on,60,0,3,,,,,,,,,0,,,58,0
9360,note_on,0,0,1,,,,,,,,,0,,,64,0
9360,note_on,0,0,1,,,,,,,,,0,,,60,0
9360,note_on,0,0,1,,,,,,,,,0,,,65,70
9360,note_on,60,0,1,,,,,,,,,0,,,67,0
9390,note_on,30,0,3,,,,,,,,,0,,,41,0
9420,note_on,60,0,1,,,,,,,,,0,,,60,60
9420,note_on,30,0,3,,,,,,,,,0,,,53,60
9420,note_on,0,0,3,,,,,,,,,0,,,57,60
9480,note_on,0,0,1,,,,,,,,,0,,,62,60
9480,note_on,60,0,3,,,,,,,,,0,,,57,0
9480,note_on,0,0,3,,,,,,,,,0,,,58,60
9480,note_on,60,0,1,,,,,,,,,0,,,60,0
9540,note_on,60,0,1,,,,,,,,,0,,,62,0
9540,note_on,0,0,1,,,,,,,,,0,,,63,60
9540,note_on,60,0,3,,,,,,,,,0,,,58,0
9540,note_on,0,0,3,,,,,,,,,0,,,60,60
9585,control_change,225,0,4,,,,,,,,,0,64,0,,
9600,note_on,0,0,1,,,,,,,,,0,,,74,70
9600,note_on,0,0,3,,,,,,,,,0,,,53,0
9600,note_on,60,0,3,,,,,,,,,0,,,60,0
9600,note_on,60,0,1,,,,,,,,,0,,,63,0
9600,note_on,0,0,1,,,,,,,,,0,,,65,0
9600,note_on,0,0,1,,,,,,,,,0,,,86,70
9600,control_change,15,0,4,,,,,,,,,0,64,127,,
9600,note_on,0,0,3,,,,,,,,,0,,,46,70
9630,note_on,30,0,3,,,,,,,,,0,,,46,0
9660,note_on,30,0,3,,,,,,,,,0,,,62,60
9720,note_on,0,0,1,,,,,,,,,0,,,74,70
9720,note_on,0,0,1,,,,,,,,,0,,,86,70
9720,note_on,0,0,1,,,,,,,,,0,,,86,0
9720,note_on,120,0,1,,,,,,,,,0,,,74,0
9720,note_on,0,0,3,,,,,,,,,0,,,58,60
9720,note_on,0,0,3,,,,,,,,,0,,,53,60
9720,note_on,60,0,3,,,,,,,,,0,,,62,0
9780,note_on,0,0,3,,,,,,,,,0,,,62,60
9780,note_on,0,0,3,,,,,,,,,0,,,53,0
9780,note_on,60,0,3,,,,,,,,,0,,,58,0
9780,note_on,0,0,1,,,,,,,,,0,,,74,70
9780,note_on,60,0,1,,,,,,,,,0,,,74,0
9780,note_on,0,0,1,,,,,,,,,0,,,86,0
9780,note_on,0,0,1,,,,,,,,,0,,,86,70
9825,control_change,225,0,4,,,,,,,,,0,64,0,,
9840,control_change,15,0,4,,,,,,,,,0,64,127,,
9840,note_on,0,0,1,,,,,,,,,0,,,70,70
9840,note_on,0,0,1,,,,,,,,,0,,,82,70
9840,note_on,0,0,1,,,,,,,,,0,,,86,0
9840,note_on,60,0,1,,,,,,,,,0,,,74,0
9840,note_on,60,0,3,,,,,,,,,0,,,62,0
9840,note_on,0,0,3,,,,,,,,,0,,,50,70
9870,note_on,30,0,3,,,,,,,,,0,,,50,0
9900,note_on,30,0,3,,,,,,,,,0,,,65,60
9960,note_on,120,0,1,,,,,,,,,0,,,70,0
9960,note_on,0,0,3,,,,,,,,,0,,,58,60
9960,note_on,0,0,3,,,,,,,,,0,,,56,60
9960,note_on,60,0,3,,,,,,,,,0,,,65,0
9960,note_on,0,0,1,,,,,,,,,0,,,82,0
9960,note_on,0,0,1,,,,,,,,,0,,,82,70
9960,note_on,0,0,1,,,,,,,,,0,,,70,70
10020,note_on,0,0,3,,,,,,,,,0,,,65,60
10020,note_on,0,0,3,,,,,,,,,0,,,56,0
10020,note_on,60,0,3,,,,,,,,,0,,,58,0
10065,control_change,225,0,4,,,,,,,,,0,64,0,,
10080,note_on,0,0,3,,,,,,,,,0,,,51,70
10080,note_on,120,0,1,,,,,,,,,0,,,70,0
10080,note_on,0,0,1,,,,,,,,,0,,,82,0
10080,note_on,0,0,1,,,,,,,,,0,,,82,70
10080,control_change,15,0,4,,,,,,,,,0,64,127,,
10080,note_on,60,0,3,,,,,,,,,0,,,65,0
10110,note_on,30,0,3,,,,,,,,,0,,,51,0
10140,note_on,30,0,3,,,,,,,,,0,,,63,60
10170,note_on,90,0,1,,,,,,,,,0,,,82,0
10170,note_on,0,0,1,,,,,,,,,0,,,84,70
10185,note_on,15,0,1,,,,,,,,,0,,,84,0
10185,note_on,0,0,1,,,,,,,,,0,,,82,70
10200,note_on,15,0,1,,,,,,,,,0,,,82,0
10200,note_on,0,0,3,,,,,,,,,0,,,58,60
10200,note_on,0,0,1,,,,,,,,,0,,,81,70
10200,note_on,0,0,3,,,,,,,,,0,,,55,60
10200,note_on,60,0,3,,,,,,,,,0,,,63,0
10230,note_on,0,0,1,,,,,,,,,0,,,82,70
10230,note_on,30,0,1,,,,,,,,,0,,,81,0
10245,note_on,15,0,1,,,,,,,,,0,,,84,70
10252,note_on,7,0,1,,,,,,,,,0,,,86,70
10253,note_on,1,0,1,,,,,,,,,0,,,84,0
10260,note_on,0,0,3,,,,,,,,,0,,,55,0
10260,note_on,0,0,3,,,,,,,,,0,,,63,60
10260,note_on,7,0,1,,,,,,,,,0,,,86,0
10260,note_on,0,0,1,,,,,,,,,0,,,84,70
10260,note_on,60,0,3,,,,,,,,,0,,,58,0
10260,note_on,0,0,1,,,,,,,,,0,,,82,0
10290,note_on,30,0,1,,,,,,,,,0,,,84,0
10290,note_on,0,0,1,,,,,,,,,0,,,82,70
10305,control_change,225,0,4,,,,,,,,,0,64,0,,
10320,note_on,30,0,1,,,,,,,,,0,,,82,0
10320,control_change,15,0,4,,,,,,,,,0,64,127,,
10320,note_on,0,0,1,,,,,,,,,0,,,79,70
10320,note_on,0,0,3,,,,,,,,,0,,,52,70
10320,note_on,60,0,3,,,,,,,,,0,,,63,0
10320,note_on,0,0,1,,,,,,,,,0,,,91,70
10350,note_on,30,0,3,,,,,,,,,0,,,52,0
10380,note_on,30,0,3,,,,,,,,,0,,,67,60
10440,note_on,0,0,3,,,,,,,,,0,,,58,60
10440,note_on,0,0,3,,,,,,,,,0,,,61,60
10440,note_on,60,0,3,,,,,,,,,0,,,67,0
10500,note_on,0,0,3,,,,,,,,,0,,,61,0
10500,note_on,0,0,3,,,,,,,,,0,,,67,60
10500,note_on,60,0,3,,,,,,,,,0,,,58,0
10545,control_change,225,0,4,,,,,,,,,0,64,0,,
10560,note_on,240,0,1,,,,,,,,,0,,,79,0
10560,note_on,0,0,3,,,,,,,,,0,,,43,70
10560,note_on,60,0,3,,,,,,,,,0,,,67,0
10560,control_change,15,0,4,,,,,,,,,0,64,127,,
10560,note_on,0,0,1,,,,,,,,,0,,,64,70
10560,note_on,0,0,1,,,,,,,,,0,,,91,0
10560,note_on,0,0,1,,,,,,,,,0,,,70,70
10560,note_on,0,0,1,,,,,,,,,0,,,72,70
10590,note_on,30,0,3,,,,,,,,,0,,,43,0
10620,note_on,30,0,3,,,,,,,,,0,,,60,62
10680,note_on,120,0,1,,,,,,,,,0,,,64,0
10680,note_on,0,0,1,,,,,,,,,0,,,70,0
10680,note_on,0,0,1,,,,,,,,,0,,,72,0
10680,note_on,0,0,1,,,,,,,,,0,,,72,75
10680,note_on,0,0,1,,,,,,,,,0,,,64,75
10680,note_on,0,0,3,,,,,,,,,0,,,58,65
10680,note_on,60,0,3,,,,,,,,,0,,,60,0
10680,note_on,0,0,1,,,,,,,,,0,,,70,75
10680,note_on,0,0,3,,,,,,,,,0,,,55,65
10740,note_on,0,0,1,,,,,,,,,0,,,70,0
10740,note_on,60,0,3,,,,,,,,,0,,,58,0
10740,note_on,0,0,3,,,,,,,,,0,,,55,0
10740,note_on,0,0,3,,,,,,,,,0,,,60,68
10740,note_on,0,0,1,,,,,,,,,0,,,72,0
10740,note_on,0,0,1,,,,,,,,,0,,,72,78
10740,note_on,0,0,1,,,,,,,,,0,,,70,78
10740,note_on,0,0,1,,,,,,,,,0,,,64,78
10740,note_on,60,0,1,,,,,,,,,0,,,64,0
10785,control_change,225,0,4,,,,,,,,,0,64,0,,
10800,control_change,15,0,4,,,,,,,,,0,64,127,,
10800,note_on,60,0,3,,,,,,,,,0,,,60,0
10800,note_on,0,0,3,,,,,,,,,0,,,41,80
10800,note_on,60,0,1,,,,,,,,,0,,,64,0
10800,note_on,0,0,1,,,,,,,,,0,,,70,0
10800,note_on,0,0,1,,,,,,,,,0,,,72,0
10800,note_on,0,0,1,,,,,,,,,0,,,77,80
10800,note_on,0,0,1,,,,,,,,,0,,,70,80
10800,note_on,0,0,1,,,,,,,,,0,,,65,80
10800,note_on,0,0,1,,,,,,,,,0,,,74,80
10830,note_on,30,0,3,,,,,,,,,0,,,41,0
10860,note_on,30,0,3,,,,,,,,,0,,,62,73
10920,note_on,60,0,3,,,,,,,,,0,,,62,0
10920,note_on,0,0,3,,,,,,,,,0,,,53,76
10920,note_on,0,0,3,,,,,,,,,0,,,58,76
10920,note_on,120,0,1,,,,,,,,,0,,,65,0
10920,note_on,0,0,1,,,,,,,,,0,,,77,0
10920,note_on,0,0,1,,,,,,,,,0,,,70,0
10920,note_on,0,0,1,,,,,,,,,0,,,77,86
10920,note_on,0,0,1,,,,,,,,,0,,,74,86
10920,note_on,0,0,1,,,,,,,,,0,,,74,0
10920,note_on,0,0,1,,,,,,,,,0,,,65,86
10920,note_on,0,0,1,,,,,,,,,0,,,70,86
10980,note_on,60,0,3,,,,,,,,,0,,,58,0
10980,note_on,0,0,3,,,,,,,,,0,,,53,0
10980,note_on,0,0,3,,,,,,,,,0,,,62,79
11025,control_change,225,0,4,,,,,,,,,0,64,0,,
11040,note_on,0,0,1,,,,,,,,,0,,,70,0
11040,note_on,0,0,1,,,,,,,,,0,,,70,80
11040,note_on,0,0,3,,,,,,,,,0,,,41,90
11040,note_on,0,0,1,,,,,,,,,0,,,77,0
11040,note_on,120,0,1,,,,,,,,,0,,,65,0
11040,note_on,0,0,1,,,,,,,,,0,,,72,90
11040,note_on,60,0,3,,,,,,,,,0,,,62,0
11040,control_change,15,0,4,,,,,,,,,0,64,127,,
11040,note_on,0,0,1,,,,,,,,,0,,,74,0
11070,note_on,30,0,3,,,,,,,,,0,,,41,0
11100,note_on,30,0,3,,,,,,,,,0,,,60,75
11100,note_on,60,0,1,,,,,,,,,0,,,70,0
11100,note_on,0,0,1,,,,,,,,,0,,,69,75
11130,note_on,30,0,1,,,,,,,,,0,,,69,0
11130,note_on,0,0,1,,,,,,,,,0,,,67,72
11160,note_on,0,0,3,,,,,,,,,0,,,53,70
11160,note_on,60,0,3,,,,,,,,,0,,,60,0
11160,note_on,0,0,1,,,,,,,,,0,,,69,70
11160,note_on,30,0,1,,,,,,,,,0,,,67,0
11220,note_on,0,0,1,,,,,,,,,0,,,77,74
11220,note_on,0,0,1,,,,,,,,,0,,,63,64
11220,note_on,0,0,1,,,,,,,,,0,,,72,0
11220,note_on,60,0,1,,,,,,,,,0,,,69,0
11220,note_on,0,0,3,,,,,,,,,0,,,60,64
11220,note_on,60,0,3,,,,,,,,,0,,,53,0
11220,note_on,0,0,1,,,,,,,,,0,,,69,64
11265,control_change,225,0,4,,,,,,,,,0,64,0,,
11280,note_on,60,0,1,,,,,,,,,0,,,77,0
11280,note_on,0,0,1,,,,,,,,,0,,,69,0
11280,control_change,15,0,4,,,,,,,,,0,64,127,,
11280,note_on,0,0,1,,,,,,,,,0,,,63,0
11280,note_on,0,0,3,,,,,,,,,0,,,46,70
11280,note_on,0,0,1,,,,,,,,,0,,,62,70
11280,note_on,0,0,1,,,,,,,,,0,,,70,70
11280,note_on,60,0,3,,,,,,,,,0,,,60,0
11310,note_on,30,0,3,,,,,,,,,0,,,46,0
11340,note_on,30,0,3,,,,,,,,,0,,,58,60
11400,note_on,60,0,3,,,,,,,,,0,,,58,0
11400,note_on,0,0,3,,,,,,,,,0,,,50,60
11400,note_on,0,0,3,,,,,,,,,0,,,53,60
11460,note_on,0,0,3,,,,,,,,,0,,,50,0
11460,note_on,0,0,3,,,,,,,,,0,,,58,60
11460,note_on,60,0,3,,,,,,,,,0,,,53,0
11505,control_change,225,0,4,,,,,,,,,0,64,0,,
11520,control_change,15,0,4,,,,,,,,,0,64,127,,
11520,note_on,60,0,3,,,,,,,,,0,,,58,0
11520,note_on,0,0,3,,,,,,,,,0,,,50,90
11520,note_on,0,0,1,,,,,,,,,0,,,66,90
11520,note_on,0,0,1,,,,,,,,,0,,,69,90
11520,note_on,0,0,1,,,,,,,,,0,,,74,90
11520,note_on,0,0,1,,,,,,,,,0,,,62,0
11520,note_on,240,0,1,,,,,,,,,0,,,70,0
11520,note_on,0,0,3,,,,,,,,,0,,,38,90
11550,note_on,0,0,3,,,,,,,,,0,,,38,0
11550,note_on,30,0,3,,,,,,,,,0,,,50,0
11580,note_on,30,0,3,,,,,,,,,0,,,62,80
11640,note_on,0,0,1,,,,,,,,,0,,,66,90
11640,note_on,0,0,3,,,,,,,,,0,,,57,80
11640,note_on,0,0,1,,,,,,,,,0,,,69,90
11640,note_on,0,0,1,,,,,,,,,0,,,74,90
11640,note_on,0,0,1,,,,,,,,,0,,,74,0
11640,note_on,0,0,1,,,,,,,,,0,,,69,0
11640,note_on,60,0,3,,,,,,,,,0,,,62,0
11640,note_on,0,0,3,,,,,,,,,0,,,54,80
11640,note_on,120,0,1,,,,,,,,,0,,,66,0
11700,note_on,0,0,1,,,,,,,,,0,,,66,90
11700,note_on,0,0,1,,,,,,,,,0,,,74,90
11700,note_on,0,0,1,,,,,,,,,0,,,69,90
11700,note_on,0,0,1,,,,,,,,,0,,,74,0
11700,note_on,60,0,3,,,,,,,,,0,,,57,0
11700,note_on,60,0,1,,,,,,,,,0,,,66,0
11700,note_on,0,0,3,,,,,,,,,0,,,54,0
11700,note_on,0,0,3,,,,,,,,,0,,,62,80
11700,note_on,0,0,1,,,,,,,,,0,,,69,0
11745,control_change,225,0,4,,,,,,,,,0,64,0,,
11760,note_on,60,0,1,,,,,,,,,0,,,74,0
11760,note_on,0,0,1,,,,,,,,,0,,,69,0
11760,note_on,0,0,1,,,,,,,,,0,,,66,0
11760,note_on,0,0,1,,,,,,,,,0,,,70,90
11760,note_on,0,0,1,,,,,,,,,0,,,62,90
11760,note_on,0,0,1,,,,,,,,,0,,,67,90
11760,control_change,15,0,4,,,,,,,,,0,64,127,,
11760,note_on,60,0,3,,,,,,,,,0,,,62,0
11760,note_on,0,0,3,,,,,,,,,0,,,43,90
11790,note_on,30,0,3,,,,,,,,,0,,,43,0
11820,note_on,30,0,3,,,,,,,,,0,,,58,80
11880,note_on,0,0,1,,,,,,,,,0,,,67,90
11880,note_on,0,0,1,,,,,,,,,0,,,70,90
11880,note_on,0,0,1,,,,,,,,,0,,,62,90
11880,note_on,0,0,1,,,,,,,,,0,,,70,0
11880,note_on,0,0,1,,,,,,,,,0,,,67,0
11880,note_on,0,0,3,,,,,,,,,0,,,55,80
11880,note_on,0,0,3,,,,,,,,,0,,,50,80
11880,note_on,60,0,3,,,,,,,,,0,,,58,0
11880,note_on,120,0,1,,,,,,,,,0,,,62,0
11940,note_on,60,0,3,,,,,,,,,0,,,55,0
11940,note_on,0,0,3,,,,,,,,,0,,,58,80
11940,note_on,0,0,3,,,,,,,,,0,,,50,0
11985,control_change,225,0,4,,,,,,,,,0,64,0,,
12000,note_on,120,0,1,,,,,,,,,0,,,62,0
12000,note_on,60,0,3,,,,,,,,,0,,,58,0
12000,note_on,0,0,1,,,,,,,,,0,,,67,90
12000,note_on,0,0,3,,,,,,,,,0,,,43,90
12000,note_on,0,0,1,,,,,,,,,0,,,62,90
12000,note_on,0,0,1,,,,,,,,,0,,,70,0
12000,control_change,15,0,4,,,,,,,,,0,64,127,,
12000,note_on,0,0,1,,,,,,,,,0,,,70,90
12000,note_on,0,0,1,,,,,,,,,0,,,67,0
12030,note_on,30,0,3,,,,,,,,,0,,,43,0
12060,note_on,30,0,3,,,,,,,,,0,,,58,80
12090,note_on,90,0,1,,,,,,,,,0,,,72,80
12105,note_on,15,0,1,,,,,,,,,0,,,72,0
12105,note_on,0,0,1,,,,,,,,,0,,,70,80
12120,note_on,15,0,1,,,,,,,,,0,,,70,0
12120,note_on,0,0,1,,,,,,,,,0,,,62,0
12120,note_on,0,0,1,,,,,,,,,0,,,67,0
12120,note_on,0,0,3,,,,,,,,,0,,,55,80
12120,note_on,0,0,1,,,,,,,,,0,,,69,90
12120,note_on,0,0,1,,,,,,,,,0,,,62,90
12120,note_on,60,0,3,,,,,,,,,0,,,58,0
12120,note_on,0,0,3,,,,,,,,,0,,,50,80
12120,note_on,0,0,1,,,,,,,,,0,,,70,0
12180,note_on,0,0,3,,,,,,,,,0,,,50,0
12180,note_on,0,0,3,,,,,,,,,0,,,58,80
12180,note_on,0,0,1,,,,,,,,,0,,,62,90
12180,note_on,60,0,3,,,,,,,,,0,,,55,0
12180,note_on,0,0,1,,,,,,,,,0,,,67,90
12180,note_on,0,0,1,,,,,,,,,0,,,69,0
12180,note_on,60,0,1,,,,,,,,,0,,,62,0
12225,control_change,225,0,4,,,,,,,,,0,64,0,,
12240,note_on,0,0,1,,,,,,,,,0,,,67,0
12240,note_on,0,0,1,,,,,,,,,0,,,67,80
12240,note_on,0,0,1,,,,,,,,,0,,,72,90
12240,note_on,0,0,3,,,,,,,,,0,,,36,90
12240,control_change,15,0,4,,,,,,,,,0,64,127,,
12240,note_on,60,0,3,,,,,,,,,0,,,58,0
12240,note_on,60,0,1,,,,,,,,,0,,,62,0
12240,note_on,0,0,1,,,,,,,,,0,,,64,80
12270,note_on,30,0,3,,,,,,,,,0,,,36,0
12300,note_on,30,0,3,,,,,,,,,0,,,55,80
12360,note_on,60,0,3,,,,,,,,,0,,,55,0
12360,note_on,0,0,3,,,,,,,,,0,,,48,80
12360,note_on,0,0,3,,,,,,,,,0,,,52,80
12420,note_on,0,0,3,,,,,,,,,0,,,55,80
12420,note_on,60,0,3,,,,,,,,,0,,,52,0
12420,note_on,0,0,3,,,,,,,,,0,,,48,0
12420,note_on,180,0,1,,,,,,,,,0,,,72,0
12420,note_on,0,0,1,,,,,,,,,0,,,70,90
12465,control_change,225,0,4,,,,,,,,,0,64,0,,
12480,note_on,60,0,3,,,,,,,,,0,,,55,0
12480,note_on,0,0,1,,,,,,,,,0,,,60,90
12480,control_change,15,0,4,,,,,,,,,0,64,127,,
12480,note_on,0,0,1,,,,,,,,,0,,,65,90
12480,note_on,0,0,1,,,,,,,,,0,,,69,90
12480,note_on,0,0,1,,,,,,,,,0,,,67,0
12480,note_on,0,0,1,,,,,,,,,0,,,64,0
12480,note_on,0,0,3,,,,,,,,,0,,,41,90
12480,note_on,60,0,1,,,,,,,,,0,,,70,0
12510,note_on,30,0,3,,,,,,,,,0,,,41,0
12540,note_on,30,0,3,,,,,,,,,0,,,57,78
12600,note_on,60,0,3,,,,,,,,,0,,,57,0
12600,note_on,120,0,1,,,,,,,,,0,,,60,0
12600,note_on,0,0,1,,,,,,,,,0,,,65,0
12600,note_on,0,0,1,,,,,,,,,0,,,69,0
12600,note_on,0,0,1,,,,,,,,,0,,,69,85
12600,note_on,0,0,1,,,,,,,,,0,,,65,85
12600,note_on,0,0,1,,,,,,,,,0,,,60,85
12600,note_on,0,0,3,,,,,,,,,0,,,48,75
12600,note_on,0,0,3,,,,,,,,,0,,,53,75
12660,note_on,0,0,1,,,,,,,,,0,,,65,82
12660,note_on,0,0,1,,,,,,,,,0,,,69,82
12660,note_on,0,0,3,,,,,,,,,0,,,57,72
12660,note_on,60,0,3,,,,,,,,,0,,,53,0
12660,note_on,0,0,1,,,,,,,,,0,,,60,82
12660,note_on,0,0,1,,,,,,,,,0,,,69,0
12660,note_on,60,0,1,,,,,,,,,0,,,60,0
12660,note_on,0,0,3,,,,,,,,,0,,,48,0
12660,note_on,0,0,1,,,,,,,,,0,,,65,0
12705,control_change,225,0,4,,,,,,,,,0,64,0,,
12720,note_on,0,0,1,,,,,,,,,0,,,67,80
12720,note_on,0,0,1,,,,,,,,,0,,,65,80
12720,note_on,0,0,1,,,,,,,,,0,,,62,80
12720,note_on,0,0,1,,,,,,,,,0,,,65,0
12720,note_on,0,0,1,,,,,,,,,0,,,69,0
12720,control_change,15,0,4,,,,,,,,,0,64,127,,
12720,note_on,0,0,3,,,,,,,,,0,,,34,80
12720,note_on,60,0,3,,,,,,,,,0,,,57,0
12720,note_on,60,0,1,,,,,,,,,0,,,60,0
12750,note_on,30,0,3,,,,,,,,,0,,,34,0
12780,note_on,30,0,3,,,,,,,,,0,,,55,67
12840,note_on,0,0,1,,,,,,,,,0,,,62,74
12840,note_on,120,0,1,,,,,,,,,0,,,62,0
12840,note_on,0,0,1,,,,,,,,,0,,,65,0
12840,note_on,0,0,1,,,,,,,,,0,,,67,0
12840,note_on,0,0,1,,,,,,,,,0,,,65,74
12840,note_on,0,0,1,,,,,,,,,0,,,67,74
12840,note_on,60,0,3,,,,,,,,,0,,,55,0
12840,note_on,0,0,3,,,,,,,,,0,,,50,64
12840,note_on,0,0,3,,,,,,,,,0,,,53,64
12900,note_on,60,0,3,,,,,,,,,0,,,53,0
12900,note_on,0,0,3,,,,,,,,,0,,,55,61
12900,note_on,0,0,3,,,,,,,,,0,,,50,0
12945,control_change,225,0,4,,,,,,,,,0,64,0,,
12960,note_on,0,0,1,,,,,,,,,0,,,64,60
12960,note_on,0,0,3,,,,,,,,,0,,,36,70
12960,note_on,60,0,3,,,,,,,,,0,,,55,0
12960,note_on,120,0,1,,,,,,,,,0,,,62,0
12960,note_on,0,0,1,,,,,,,,,0,,,60,60
12960,note_on,0,0,1,,,,,,,,,0,,,67,70
12960,control_change,15,0,4,,,,,,,,,0,64,127,,
12960,note_on,0,0,1,,,,,,,,,0,,,67,0
12960,note_on,0,0,1,,,,,,,,,0,,,65,0
12990,note_on,30,0,3,,,,,,,,,0,,,36,0
13020,note_on,30,0,3,,,,,,,,,0,,,48,60
13020,note_on,0,0,3,,,,,,,,,0,,,55,60
13020,note_on,60,0,1,,,,,,,,,0,,,67,0
13020,note_on,0,0,1,,,,,,,,,0,,,69,70
13050,note_on,0,0,1,,,,,,,,,0,,,70,70
13050,note_on,30,0,1,,,,,,,,,0,,,69,0
13080,note_on,0,0,1,,,,,,,,,0,,,65,60
13080,note_on,0,0,1,,,,,,,,,0,,,64,0
13080,note_on,30,0,1,,,,,,,,,0,,,70,0
13080,note_on,60,0,3,,,,,,,,,0,,,55,0
13080,note_on,0,0,1,,,,,,,,,0,,,69,70
13080,note_on,0,0,3,,,,,,,,,0,,,57,60
13140,note_on,60,0,1,,,,,,,,,0,,,69,0
13140,note_on,0,0,1,,,,,,,,,0,,,67,70
13140,note_on,0,0,1,,,,,,,,,0,,,64,60
13140,note_on,0,0,3,,,,,,,,,0,,,58,60
13140,note_on,60,0,3,,,,,,,,,0,,,57,0
13140,note_on,0,0,1,,,,,,,,,0,,,65,0
13185,control_change,225,0,4,,,,,,,,,0,64,0,,
13200,note_on,60,0,3,,,,,,,,,0,,,58,0
13200,control_change,15,0,4,,,,,,,,,0,64,127,,
13200,note_on,0,0,1,,,,,,,,,0,,,65,70
13200,note_on,0,0,1,,,,,,,,,0,,,60,0
13200,note_on,0,0,1,,,,,,,,,0,,,64,0
13200,note_on,60,0,1,,,,,,,,,0,,,67,0
13200,note_on,0,0,3,,,,,,,,,0,,,41,70
13200,note_on,0,0,3,,,,,,,,,0,,,48,0
13230,note_on,30,0,3,,,,,,,,,0,,,41,0
13260,note_on,60,0,1,,,,,,,,,0,,,60,60
13260,note_on,0,0,3,,,,,,,,,0,,,57,60
13260,note_on,30,0,3,,,,,,,,,0,,,53,60
13320,note_on,60,0,1,,,,,,,,,0,,,60,0
13320,note_on,0,0,3,,,,,,,,,0,,,58,60
13320,note_on,60,0,3,,,,,,,,,0,,,57,0
13320,note_on,0,0,1,,,,,,,,,0,,,62,60
13380,note_on,0,0,3,,,,,,,,,0,,,60,60
13380,note_on,60,0,3,,,,,,,,,0,,,58,0
13380,note_on,0,0,1,,,,,,,,,0,,,63,60
13380,note_on,60,0,1,,,,,,,,,0,,,62,0
13425,control_change,225,0,4,,,,,,,,,0,64,0,,
13440,note_on,0,0,3,,,,,,,,,0,,,53,0
13440,note_on,0,0,3,,,,,,,,,0,,,46,70
13440,note_on,0,0,1,,,,,,,,,0,,,65,0
13440,note_on,0,0,1,,,,,,,,,0,,,86,70
13440,note_on,60,0,1,,,,,,,,,0,,,63,0
13440,note_on,0,0,1,,,,,,,,,0,,,74,70
13440,note_on,60,0,3,,,,,,,,,0,,,60,0
13440,control_change,15,0,4,,,,,,,,,0,64,127,,
13470,note_on,30,0,3,,,,,,,,,0,,,46,0
13500,note_on,30,0,3,,,,,,,,,0,,,62,60
13560,note_on,0,0,1,,,,,,,,,0,,,74,70
13560,note_on,0,0,1,,,,,,,,,0,,,86,70
13560,note_on,0,0,1,,,,,,,,,0,,,86,0
13560,note_on,0,0,3,,,,,,,,,0,,,58,60
13560,note_on,0,0,3,,,,,,,,,0,,,53,60
13560,note_on,60,0,3,,,,,,,,,0,,,62,0
13560,note_on,120,0,1,,,,,,,,,0,,,74,0
13620,note_on,60,0,3,,,,,,,,,0,,,58,0
13620,note_on,0,0,3,,,,,,,,,0,,,62,60
13620,note_on,0,0,1,,,,,,,,,0,,,74,70
13620,note_on,0,0,1,,,,,,,,,0,,,86,70
13620,note_on,0,0,1,,,,,,,,,0,,,86,0
13620,note_on,0,0,3,,,,,,,,,0,,,53,0
13620,note_on,60,0,1,,,,,,,,,0,,,74,0
13665,control_change,225,0,4,,,,,,,,,0,64,0,,
13680,note_on,60,0,3,,,,,,,,,0,,,62,0
13680,note_on,0,0,3,,,,,,,,,0,,,50,70
13680,note_on,0,0,1,,,,,,,,,0,,,86,0
13680,note_on,60,0,1,,,,,,,,,0,,,74,0
13680,note_on,0,0,1,,,,,,,,,0,,,82,70
13680,note_on,0,0,1,,,,,,,,,0,,,70,70
13680,control_change,15,0,4,,,,,,,,,0,64,127,,
13710,note_on,30,0,3,,,,,,,,,0,,,50,0
13740,note_on,30,0,3,,,,,,,,,0,,,65,60
13800,note_on,120,0,1,,,,,,,,,0,,,70,0
13800,note_on,0,0,3,,,,,,,,,0,,,58,60
13800,note_on,0,0,3,,,,,,,,,0,,,56,60
13800,note_on,60,0,3,,,,,,,,,0,,,65,0
13800,note_on,0,0,1,,,,,,,,,0,,,82,0
13800,note_on,0,0,1,,,,,,,,,0,,,82,70
13800,note_on,0,0,1,,,,,,,,,0,,,70,70
13860,note_on,0,0,3,,,,,,,,,0,,,65,60
13860,note_on,0,0,3,,,,,,,,,0,,,56,0
13860,note_on,60,0,3,,,,,,,,,0,,,58,0
13905,control_change,225,0,4,,,,,,,,,0,64,0,,
13920,control_change,15,0,4,,,,,,,,,0,64,127,,
13920,note_on,0,0,1,,,,,,,,,0,,,82,0
13920,note_on,60,0,3,,,,,,,,,0,,,65,0
13920,note_on,0,0,3,,,,,,,,,0,,,51,70
13920,note_on,0,0,1,,,,,,,,,0,,,82,70
13920,note_on,120,0,1,,,,,,,,,0,,,70,0
13950,note_on,30,0,3,,,,,,,,,0,,,51,0
13980,note_on,30,0,3,,,,,,,,,0,,,63,60
14010,note_on,90,0,1,,,,,,,,,0,,,82,0
14010,note_on,0,0,1,,,,,,,,,0,,,84,70
14025,note_on,15,0,1,,,,,,,,,0,,,84,0
14025,note_on,0,0,1,,,,,,,,,0,,,82,70
14040,note_on,15,0,1,,,,,,,,,0,,,82,0
14040,note_on,0,0,3,,,,,,,,,0,,,55,60
14040,note_on,60,0,3,,,,,,,,,0,,,63,0
14040,note_on,0,0,3,,,,,,,,,0,,,58,60
14040,note_on,0,0,1,,,,,,,,,0,,,81,70
14070,note_on,30,0,1,,,,,,,,,0,,,81,0
14070,note_on,0,0,1,,,,,,,,,0,,,82,70
14085,note_on,15,0,1,,,,,,,,,0,,,84,70
14092,note_on,7,0,1,,,,,,,,,0,,,86,70
14093,note_on,1,0,1,,,,,,,,,0,,,84,0
14100,note_on,0,0,3,,,,,,,,,0,,,55,0
14100,note_on,0,0,3,,,,,,,,,0,,,63,60
14100,note_on,7,0,1,,,,,,,,,0,,,86,0
14100,note_on,0,0,1,,,,,,,,,0,,,82,0
14100,note_on,0,0,1,,,,,,,,,0,,,84,70
14100,note_on,60,0,3,,,,,,,,,0,,,58,0
14130,note_on,30,0,1,,,,,,,,,0,,,84,0
14130,note_on,0,0,1,,,,,,,,,0,,,82,70
14145,control_change,225,0,4,,,,,,,,,0,64,0,,
14160,control_change,15,0,4,,,,,,,,,0,64,127,,
14160,note_on,60,0,3,,,,,,,,,0,,,63,0
14160,note_on,0,0,1,,,,,,,,,0,,,79,70
14160,note_on,30,0,1,,,,,,,,,0,,,82,0
14160,note_on,0,0,1,,,,,,,,,0,,,91,70
14160,note_on,0,0,3,,,,,,,,,0,,,52,70
14190,note_on,30,0,3,,,,,,,,,0,,,52,0
14220,note_on,30,0,3,,,,,,,,,0,,,67,60
14280,note_on,60,0,3,,,,,,,,,0,,,67,0
14280,note_on,0,0,3,,,,,,,,,0,,,61,60
14280,note_on,0,0,3,,,,,,,,,0,,,58,60
14340,note_on,60,0,3,,,,,,,,,0,,,58,0
14340,note_on,0,0,3,,,,,,,,,0,,,61,0
14340,note_on,0,0,3,,,,,,,,,0,,,67,60
14385,control_change,225,0,4,,,,,,,,,0,64,0,,
14400,note_on,0,0,3,,,,,,,,,0,,,43,70
14400,note_on,60,0,3,,,,,,,,,0,,,67,0
14400,control_change,15,0,4,,,,,,,,,0,64,127,,
14400,note_on,0,0,1,,,,,,,,,0,,,72,70
14400,note_on,0,0,1,,,,,,,,,0,,,91,0
14400,note_on,0,0,1,,,,,,,,,0,,,64,70
14400,note_on,0,0,1,,,,,,,,,0,,,70,70
14400,note_on,240,0,1,,,,,,,,,0,,,79,0
14430,note_on,30,0,3,,,,,,,,,0,,,43,0
14460,note_on,30,0,3,,,,,,,,,0,,,60,62
14520,note_on,0,0,3,,,,,,,,,0,,,58,65
14520,note_on,0,0,3,,,,,,,,,0,,,55,65
14520,note_on,60,0,3,,,,,,,,,0,,,60,0
14520,note_on,0,0,1,,,,,,,,,0,,,64,75
14520,note_on,0,0,1,,,,,,,,,0,,,70,0
14520,note_on,0,0,1,,,,,,,,,0,,,72,0
14520,note_on,0,0,1,,,,,,,,,0,,,72,75
14520,note_on,0,0,1,,,,,,,,,0,,,70,75
14520,note_on,120,0,1,,,,,,,,,0,,,64,0
14580,note_on,0,0,3,,,,,,,,,0,,,55,0
14580,note_on,60,0,3,,,,,,,,,0,,,58,0
14580,note_on,0,0,3,,,,,,,,,0,,,60,68
14580,note_on,60,0,1,,,,,,,,,0,,,64,0
14580,note_on,0,0,1,,,,,,,,,0,,,64,78
14580,note_on,0,0,1,,,,,,,,,0,,,70,78
14580,note_on,0,0,1,,,,,,,,,0,,,72,78
14580,note_on,0,0,1,,,,,,,,,0,,,72,0
14580,note_on,0,0,1,,,,,,,,,0,,,70,0
14625,control_change,225,0,4,,,,,,,,,0,64,0,,
14640,note_on,0,0,1,,,,,,,,,0,,,72,0
14640,note_on,0,0,1,,,,,,,,,0,,,65,80
14640,note_on,0,0,1,,,,,,,,,0,,,70,80
14640,note_on,0,0,1,,,,,,,,,0,,,74,80
14640,note_on,0,0,1,,,,,,,,,0,,,77,80
14640,note_on,0,0,1,,,,,,,,,0,,,70,0
14640,note_on,60,0,1,,,,,,,,,0,,,64,0
14640,control_change,15,0,4,,,,,,,,,0,64,127,,
14640,note_on,60,0,3,,,,,,,,,0,,,60,0
14640,note_on,0,0,3,,,,,,,,,0,,,41,80
14670,note_on,30,0,3,,,,,,,,,0,,,41,0
14700,note_on,30,0,3,,,,,,,,,0,,,62,73
14760,note_on,0,0,3,,,,,,,,,0,,,53,76
14760,note_on,0,0,3,,,,,,,,,0,,,58,76
14760,note_on,0,0,1,,,,,,,,,0,,,70,86
14760,note_on,0,0,1,,,,,,,,,0,,,65,86
14760,note_on,0,0,1,,,,,,,,,0,,,77,86
14760,note_on,0,0,1,,,,,,,,,0,,,70,0
14760,note_on,60,0,3,,,,,,,,,0,,,62,0
14760,note_on,0,0,1,,,,,,,,,0,,,74,86
14760,note_on,120,0,1,,,,,,,,,0,,,65,0
14760,note_on,0,0,1,,,,,,,,,0,,,77,0
14760,note_on,0,0,1,,,,,,,,,0,,,74,0
14820,note_on,0,0,3,,,,,,,,,0,,,53,0
14820,note_on,0,0,3,,,,,,,,,0,,,62,79
14820,note_on,60,0,3,,,,,,,,,0,,,58,0
14865,control_change,225,0,4,,,,,,,,,0,64,0,,
14880,note_on,120,0,1,,,,,,,,,0,,,65,0
14880,note_on,0,0,1,,,,,,,,,0,,,77,0
14880,note_on,0,0,1,,,,,,,,,0,,,74,0
14880,note_on,0,0,1,,,,,,,,,0,,,70,80
14880,control_change,15,0,4,,,,,,,,,0,64,127,,
14880,note_on,60,0,3,,,,,,,,,0,,,62,0
14880,note_on,0,0,3,,,,,,,,,0,,,41,90
14880,note_on,0,0,1,,,,,,,,,0,,,70,0
14880,note_on,0,0,1,,,,,,,,,0,,,72,90
14910,note_on,30,0,3,,,,,,,,,0,,,41,0
14940,note_on,30,0,3,,,,,,,,,0,,,60,75
14940,note_on,0,0,1,,,,,,,,,0,,,69,75
14940,note_on,60,0,1,,,,,,,,,0,,,70,0
14970,note_on,0,0,1,,,,,,,,,0,,,67,72
14970,note_on,30,0,1,,,,,,,,,0,,,69,0
15000,note_on,60,0,3,,,,,,,,,0,,,60,0
15000,note_on,0,0,3,,,,,,,,,0,,,53,70
15000,note_on,0,0,1,,,,,,,,,0,,,69,70
15000,note_on,30,0,1,,,,,,,,,0,,,67,0
15060,note_on,0,0,1,,,,,,,,,0,,,72,0
15060,note_on,0,0,1,,,,,,,,,0,,,69,64
15060,note_on,0,0,1,,,,,,,,,0,,,77,74
15060,note_on,60,0,3,,,,,,,,,0,,,53,0
15060,note_on,0,0,3,,,,,,,,,0,,,60,64
15060,note_on,60,0,1,,,,,,,,,0,,,69,0
15060,note_on,0,0,1,,,,,,,,,0,,,63,64
15105,control_change,225,0,4,,,,,,,,,0,64,0,,
15120,note_on,60,0,3,,,,,,,,,0,,,60,0
15120,note_on,0,0,3,,,,,,,,,0,,,46,70
15120,note_on,0,0,1,,,,,,,,,0,,,70,70
15120,note_on,60,0,1,,,,,,,,,0,,,77,0
15120,control_change,15,0,4,,,,,,,,,0,64,127,,
15120,note_on,0,0,1,,,,,,,,,0,,,69,0
15120,note_on,0,0,1,,,,,,,,,0,,,63,0
15120,note_on,0,0,1,,,,,,,,,0,,,62,70
15150,note_on,30,0,3,,,,,,,,,0,,,46,0
15180,note_on,30,0,3,,,,,,,,,0,,,58,60
15240,note_on,60,0,3,,,,,,,,,0,,,58,0
15240,note_on,0,0,3,,,,,,,,,0,,,53,60
15240,note_on,0,0,3,,,,,,,,,0,,,50,60
15300,note_on,0,0,3,,,,,,,,,0,,,50,0
15300,note_on,0,0,3,,,,,,,,,0,,,58,60
15300,note_on,60,0,3,,,,,,,,,0,,,53,0
15345,control_change,225,0,4,,,,,,,,,0,64,0,,
15360,note_on,240,0,1,,,,,,,,,0,,,70,0
15360,note_on,0,0,1,,,,,,,,,0,,,72,50
15360,control_change,15,0,4,,,,,,,,,0,64,127,,
15360,note_on,0,0,1,,,,,,,,,0,,,62,0
15360,note_on,0,0,3,,,,,,,,,0,,,41,50
15360,note_on,60,0,3,,,,,,,,,0,,,58,0
15360,note_on,0,0,1,,,,,,,,,0,,,70,40
15390,note_on,30,0,3,,,,,,,,,0,,,41,0
15420,note_on,0,0,1,,,,,,,,,0,,,69,40
15420,note_on,60,0,1,,,,,,,,,0,,,70,0
15420,note_on,30,0,3,,,,,,,,,0,,,60,40
15450,note_on,0,0,1,,,,,,,,,0,,,67,40
15450,note_on,30,0,1,,,,,,,,,0,,,69,0
15480,note_on,30,0,1,,,,,,,,,0,,,67,0
15480,note_on,0,0,1,,,,,,,,,0,,,69,40
15480,note_on,60,0,3,,,,,,,,,0,,,60,0
15480,note_on,0,0,3,,,,,,,,,0,,,53,40
15540,note_on,0,0,1,,,,,,,,,0,,,72,0
15540,note_on,60,0,1,,,,,,,,,0,,,69,0
15540,note_on,60,0,3,,,,,,,,,0,,,53,0
15540,note_on,0,0,3,,,,,,,,,0,,,60,40
15540,note_on,0,0,1,,,,,,,,,0,,,63,40
15540,note_on,0,0,1,,,,,,,,,0,,,69,40
15540,note_on,0,0,1,,,,,,,,,0,,,77,50
15585,control_change,225,0,4,,,,,,,,,0,64,0,,
15600,control_change,15,0,4,,,,,,,,,0,64,127,,
15600,note_on,0,0,1,,,,,,,,,0,,,70,50
15600,note_on,0,0,1,,,,,,,,,0,,,62,50
15600,note_on,0,0,1,,,,,,,,,0,,,63,0
15600,note_on,0,0,1,,,,,,,,,0,,,69,0
15600,note_on,60,0,1,,,,,,,,,0,,,77,0
15600,note_on,60,0,3,,,,,,,,,0,,,60,0
15600,note_on,0,0,3,,,,,,,,,0,,,46,50
15630,note_on,30,0,3,,,,,,,,,0,,,46,0
15660,note_on,30,0,3,,,,,,,,,0,,,58,40
15720,note_on,60,0,3,,,,,,,,,0,,,58,0
15720,note_on,0,0,3,,,,,,,,,0,,,53,40
15780,note_on,180,0,1,,,,,,,,,0,,,70,0
15780,note_on,0,0,1,,,,,,,,,0,,,62,0
15780,note_on,15780,0,2,,,,,,,,,0,,,58,50
15780,note_on,60,0,3,,,,,,,,,0,,,53,0
15780,note_on,0,0,3,,,,,,,,,0,,,50,40
15810,note_on,30,0,3,,,,,,,,,0,,,50,0
15825,control_change,225,0,4,,,,,,,,,0,64,0,,
15840,control_change,15,0,4,,,,,,,,,0,64,127,,
15840,note_on,0,0,2,,,,,,,,,0,,,60,50
15840,note_on,0,0,2,,,,,,,,,0,,,58,40
15840,note_on,60,0,2,,,,,,,,,0,,,58,0
15840,note_on,30,0,3,,,,,,,,,0,,,29,50
15870,note_on,30,0,3,,,,,,,,,0,,,29,0
15900,note_on,30,0,3,,,,,,,,,0,,,48,40
15900,note_on,0,0,2,,,,,,,,,0,,,57,40
15900,note_on,60,0,2,,,,,,,,,0,,,58,0
15930,note_on,30,0,2,,,,,,,,,0,,,57,0
15930,note_on,0,0,2,,,,,,,,,0,,,55,40
15960,note_on,0,0,2,,,,,,,,,0,,,57,40
15960,note_on,30,0,2,,,,,,,,,0,,,55,0
15960,note_on,60,0,3,,,,,,,,,0,,,48,0
15960,note_on,0,0,3,,,,,,,,,0,,,41,40
16020,note_on,0,0,2,,,,,,,,,0,,,51,40
16020,note_on,60,0,3,,,,,,,,,0,,,41,0
16020,note_on,0,0,3,,,,,,,,,0,,,48,40
16020,note_on,0,0,2,,,,,,,,,0,,,60,0
16020,note_on,0,0,2,,,,,,,,,0,,,57,40
16020,note_on,0,0,2,,,,,,,,,0,,,65,50
16020,note_on,60,0,2,,,,,,,,,0,,,57,0
16065,control_change,225,0,4,,,,,,,,,0,64,0,,
16080,note_on,0,0,2,,,,,,,,,0,,,57,0
16080,control_change,15,0,4,,,,,,,,,0,64,127,,
16080,note_on,0,0,2,,,,,,,,,0,,,50,50
16080,note_on,60,0,2,,,,,,,,,0,,,65,0
16080,note_on,0,0,3,,,,,,,,,0,,,34,50
16080,note_on,60,0,3,,,,,,,,,0,,,48,0
16080,note_on,0,0,3,,,,,,,,,0,,,46,50
16080,note_on,0,0,2,,,,,,,,,0,,,58,50
16080,note_on,0,0,2,,,,,,,,,0,,,51,0
16080,note_on,0,0,3,,,,,,,,,0,,,41,50
16305,control_change,225,0,4,,,,,,,,,0,64,0,,
16320,note_on,240,0,3,,,,,,,,,0,,,46,0
16320,note_on,0,0,3,,,,,,,,,0,,,41,0
16320,note_on,0,0,3,,,,,,,,,0,,,46,60
16320,marker,16320,1,0,,,,,,,,,,,,,
16320,note_on,540,0,1,,,,,,,,,0,,,74,50
16320,note_on,0,0,3,,,,,,,,,0,,,34,0
16320,control_change,15,0,4,,,,,,,,,0,64,127,,
16320,note_on,0,0,2,,,,,,,,,0,,,58,0
16320,note_on,240,0,2,,,,,,,,,0,,,50,0
16350,note_on,30,0,1,,,,,,,,,0,,,62,41
16380,note_on,30,0,1,,,,,,,,,0,,,62,0
16380,note_on,0,0,1,,,,,,,,,0,,,65,42
16380,note_on,60,0,3,,,,,,,,,0,,,53,42
16410,note_on,0,0,1,,,,,,,,,0,,,74,0
16410,note_on,30,0,1,,,,,,,,,0,,,65,0
16410,note_on,0,0,1,,,,,,,,,0,,,74,53
16440,note_on,30,0,1,,,,,,,,,0,,,74,0
16440,note_on,0,0,1,,,,,,,,,0,,,74,55
16470,note_on,30,0,1,,,,,,,,,0,,,62,46
16500,note_on,30,0,1,,,,,,,,,0,,,62,0
16500,note_on,0,0,3,,,,,,,,,0,,,53,47
16500,note_on,0,0,1,,,,,,,,,0,,,65,47
16500,note_on,120,0,3,,,,,,,,,0,,,53,0
16530,note_on,0,0,1,,,,,,,,,0,,,74,59
16530,note_on,30,0,1,,,,,,,,,0,,,65,0
16530,note_on,0,0,1,,,,,,,,,0,,,74,0
16545,control_change,225,0,4,,,,,,,,,0,64,0,,
16560,note_on,30,0,1,,,,,,,,,0,,,74,0
16560,note_on,0,0,1,,,,,,,,,0,,,72,60
16560,note_on,60,0,3,,,,,,,,,0,,,53,0
16560,note_on,0,0,3,,,,,,,,,0,,,46,0
16560,note_on,0,0,3,,,,,,,,,0,,,50,70
16560,control_change,15,0,4,,,,,,,,,0,64,127,,
16590,note_on,30,0,1,,,,,,,,,0,,,62,51
16620,note_on,30,0,1,,,,,,,,,0,,,62,0
16620,note_on,0,0,1,,,,,,,,,0,,,65,53
16620,note_on,60,0,3,,,,,,,,,0,,,53,53
16650,note_on,30,0,1,,,,,,,,,0,,,65,0
16650,note_on,0,0,1,,,,,,,,,0,,,72,0
16650,note_on,0,0,1,,,,,,,,,0,,,70,64
16680,note_on,30,0,1,,,,,,,,,0,,,70,0
16680,note_on,0,0,1,,,,,,,,,0,,,70,65
16710,note_on,30,0,1,,,,,,,,,0,,,62,56
16740,note_on,0,0,1,,,,,,,,,0,,,65,58
16740,note_on,0,0,3,,,,,,,,,0,,,53,58
16740,note_on,30,0,1,,,,,,,,,0,,,62,0
16740,note_on,120,0,3,,,,,,,,,0,,,53,0
16770,note_on,0,0,1,,,,,,,,,0,,,72,69
16770,note_on,0,0,1,,,,,,,,,0,,,70,0
16770,note_on,30,0,1,,,,,,,,,0,,,65,0
16785,control_change,225,0,4,,,,,,,,,0,64,0,,
16800,note_on,60,0,3,,,,,,,,,0,,,53,0
16800,note_on,0,0,3,,,,,,,,,0,,,50,0
16800,note_on,0,0,3,,,,,,,,,0,,,48,80
16800,note_on,30,0,1,,,,,,,,,0,,,72,0
16800,control_change,15,0,4,,,,,,,,,0,64,127,,
16800,note_on,0,0,1,,,,,,,,,0,,,70,70
16830,note_on,30,0,1,,,,,,,,,0,,,63,62
16860,note_on,30,0,1,,,,,,,,,0,,,63,0
16860,note_on,0,0,1,,,,,,,,,0,,,65,63
16860,note_on,60,0,3,,,,,,,,,0,,,53,63
16890,note_on,0,0,1,,,,,,,,,0,,,69,74
16890,note_on,0,0,1,,,,,,,,,0,,,70,0
16890,note_on,30,0,1,,,,,,,,,0,,,65,0
16920,note_on,0,0,1,,,,,,,,,0,,,72,76
16920,note_on,30,0,1,,,,,,,,,0,,,69,0
16950,note_on,30,0,1,,,,,,,,,0,,,65,67
16980,note_on,0,0,1,,,,,,,,,0,,,69,68
16980,note_on,120,0,3,,,,,,,,,0,,,53,0
16980,note_on,30,0,1,,,,,,,,,0,,,65,0
16980,note_on,0,0,3,,,,,,,,,0,,,53,68
17010,note_on,30,0,1,,,,,,,,,0,,,69,0
17010,note_on,0,0,1,,,,,,,,,0,,,72,0
17010,note_on,0,0,1,,,,,,,,,0,,,74,79
17025,control_change,225,0,4,,,,,,,,,0,64,0,,
17040,note_on,60,0,3,,,,,,,,,0,,,53,0
17040,note_on,0,0,3,,,,,,,,,0,,,48,0
17040,note_on,0,0,3,,,,,,,,,0,,,41,91
17040,control_change,15,0,4,,,,,,,,,0,64,127,,
17040,note_on,0,0,1,,,,,,,,,0,,,75,81
17040,note_on,30,0,1,,,,,,,,,0,,,74,0
17070,note_on,30,0,1,,,,,,,,,0,,,69,72
17100,note_on,0,0,1,,,,,,,,,0,,,72,73
17100,note_on,30,0,1,,,,,,,,,0,,,69,0
17100,note_on,60,0,3,,,,,,,,,0,,,53,73
17130,note_on,0,0,1,,,,,,,,,0,,,78,85
17130,note_on,0,0,1,,,,,,,,,0,,,75,0
17130,note_on,30,0,1,,,,,,,,,0,,,72,0
17160,note_on,30,0,1,,,,,,,,,0,,,78,0
17160,note_on,0,0,1,,,,,,,,,0,,,79,86
17190,note_on,30,0,1,,,,,,,,,0,,,69,77
17220,note_on,0,0,3,,,,,,,,,0,,,53,79
17220,note_on,0,0,1,,,,,,,,,0,,,72,79
17220,note_on,120,0,3,,,,,,,,,0,,,53,0
17220,note_on,30,0,1,,,,,,,,,0,,,69,0
17250,note_on,30,0,1,,,,,,,,,0,,,72,0
17250,note_on,0,0,1,,,,,,,,,0,,,79,0
17250,note_on,0,0,1,,,,,,,,,0,,,75,90
17265,control_change,225,0,4,,,,,,,,,0,64,0,,
17280,note_on,0,0,3,,,,,,,,,0,,,50,100
17280,note_on,0,0,3,,,,,,,,,0,,,41,0
17280,note_on,60,0,3,,,,,,,,,0,,,53,0
17280,note_on,30,0,1,,,,,,,,,0,,,75,0
17280,control_change,15,0,4,,,,,,,,,0,64,127,,
17280,note_on,0,0,1,,,,,,,,,0,,,74,90
17310,note_on,30,0,1,,,,,,,,,0,,,66,79
17340,note_on,60,0,3,,,,,,,,,0,,,57,78
17340,note_on,0,0,1,,,,,,,,,0,,,69,78
17340,note_on,30,0,1,,,,,,,,,0,,,66,0
17370,note_on,30,0,1,,,,,,,,,0,,,69,0
17370,note_on,0,0,1,,,,,,,,,0,,,75,87
17370,note_on,0,0,1,,,,,,,,,0,,,74,0
17400,note_on,30,0,1,,,,,,,,,0,,,75,0
17400,note_on,0,0,1,,,,,,,,,0,,,74,85
17430,note_on,30,0,1,,,,,,,,,0,,,66,74
17460,note_on,0,0,1,,,,,,,,,0,,,69,73
17460,note_on,0,0,3,,,,,,,,,0,,,57,73
17460,note_on,120,0,3,,,,,,,,,0,,,57,0
17460,note_on,30,0,1,,,,,,,,,0,,,66,0
17490,note_on,0,0,1,,,,,,,,,0,,,72,81
17490,note_on,30,0,1,,,,,,,,,0,,,69,0
17490,note_on,0,0,1,,,,,,,,,0,,,74,0
17505,control_change,225,0,4,,,,,,,,,0,64,0,,
17520,note_on,30,0,1,,,,,,,,,0,,,72,0
17520,note_on,0,0,1,,,,,,,,,0,,,72,80
17520,note_on,0,0,3,,,,,,,,,0,,,50,90
17520,note_on,0,0,3,,,,,,,,,0,,,50,0
17520,note_on,60,0,3,,,,,,,,,0,,,57,0
17520,control_change,15,0,4,,,,,,,,,0,64,127,,
17550,note_on,30,0,1,,,,,,,,,0,,,65,69
17580,note_on,60,0,3,,,,,,,,,0,,,56,67
17580,note_on,0,0,1,,,,,,,,,0,,,68,67
17580,note_on,30,0,1,,,,,,,,,0,,,65,0
17610,note_on,0,0,1,,,,,,,,,0,,,72,76
17610,note_on,0,0,1,,,,,,,,,0,,,72,0
17610,note_on,30,0,1,,,,,,,,,0,,,68,0
17640,note_on,0,0,1,,,,,,,,,0,,,71,75
17640,note_on,30,0,1,,,,,,,,,0,,,72,0
17670,note_on,30,0,1,,,,,,,,,0,,,65,64
17700,note_on,0,0,1,,,,,,,,,0,,,68,62
17700,note_on,120,0,3,,,,,,,,,0,,,56,0
17700,note_on,0,0,3,,,,,,,,,0,,,56,62
17700,note_on,30,0,1,,,,,,,,,0,,,65,0
17730,note_on,0,0,1,,,,,,,,,0,,,71,71
17730,note_on,0,0,1,,,,,,,,,0,,,71,0
17730,note_on,30,0,1,,,,,,,,,0,,,68,0
17745,control_change,225,0,4,,,,,,,,,0,64,0,,
17760,note_on,0,0,3,,,,,,,,,0,,,50,0
17760,note_on,0,0,1,,,,,,,,,0,,,71,70
17760,note_on,30,0,1,,,,,,,,,0,,,71,0
17760,control_change,15,0,4,,,,,,,,,0,64,127,,
17760,note_on,60,0,3,,,,,,,,,0,,,56,0
17760,note_on,0,0,3,,,,,,,,,0,,,51,80
17790,note_on,30,0,1,,,,,,,,,0,,,63,58
17820,note_on,60,0,3,,,,,,,,,0,,,55,57
17820,note_on,30,0,1,,,,,,,,,0,,,63,0
17820,note_on,0,0,1,,,,,,,,,0,,,67,57
17850,note_on,30,0,1,,,,,,,,,0,,,67,0
17850,note_on,0,0,1,,,,,,,,,0,,,71,0
17850,note_on,0,0,1,,,,,,,,,0,,,72,66
17880,note_on,30,0,1,,,,,,,,,0,,,72,0
17880,note_on,0,0,1,,,,,,,,,0,,,75,64
17910,note_on,30,0,1,,,,,,,,,0,,,63,53
17940,note_on,0,0,3,,,,,,,,,0,,,54,52
17940,note_on,120,0,3,,,,,,,,,0,,,55,0
17940,note_on,30,0,1,,,,,,,,,0,,,63,0
17940,note_on,0,0,1,,,,,,,,,0,,,66,52
17970,note_on,30,0,1,,,,,,,,,0,,,66,0
17970,note_on,0,0,1,,,,,,,,,0,,,75,0
17970,note_on,0,0,1,,,,,,,,,0,,,72,61
17985,control_change,225,0,4,,,,,,,,,0,64,0,,
18000,control_change,15,0,4,,,,,,,,,0,64,127,,
18000,note_on,0,0,3,,,,,,,,,0,,,41,69
18000,note_on,0,0,3,,,,,,,,,0,,,51,0
18000,note_on,60,0,3,,,,,,,,,0,,,54,0
18000,note_on,30,0,1,,,,,,,,,0,,,72,0
18000,note_on,0,0,1,,,,,,,,,0,,,70,59
18030,note_on,30,0,1,,,,,,,,,0,,,62,48
18060,note_on,0,0,1,,,,,,,,,0,,,65,47
18060,note_on,60,0,3,,,,,,,,,0,,,53,47
18060,note_on,30,0,1,,,,,,,,,0,,,62,0
18090,note_on,0,0,1,,,,,,,,,0,,,70,55
18090,note_on,30,0,1,,,,,,,,,0,,,65,0
18090,note_on,0,0,1,,,,,,,,,0,,,70,0
18120,note_on,30,0,1,,,,,,,,,0,,,70,0
18120,note_on,0,0,1,,,,,,,,,0,,,69,54
18150,note_on,30,0,1,,,,,,,,,0,,,60,43
18180,note_on,0,0,1,,,,,,,,,0,,,65,41
18180,note_on,30,0,1,,,,,,,,,0,,,60,0
18180,note_on,120,0,3,,,,,,,,,0,,,53,0
18180,note_on,0,0,3,,,,,,,,,0,,,53,41
18210,note_on,30,0,1,,,,,,,,,0,,,65,0
18210,note_on,0,0,1,,,,,,,,,0,,,69,50
18210,note_on,0,0,1,,,,,,,,,0,,,69,0
18225,control_change,225,0,4,,,,,,,,,0,64,0,,
18240,note_on,0,0,3,,,,,,,,,0,,,41,0
18240,note_on,0,0,3,,,,,,,,,0,,,46,60
18240,note_on,30,0,1,,,,,,,,,0,,,69,0
18240,control_change,15,0,4,,,,,,,,,0,64,127,,
18240,note_on,0,0,1,,,,,,,,,0,,,74,50
18240,note_on,60,0,3,,,,,,,,,0,,,53,0
18270,note_on,30,0,1,,,,,,,,,0,,,62,41
18300,note_on,60,0,3,,,,,,,,,0,,,53,42
18300,note_on,0,0,1,,,,,,,,,0,,,65,42
18300,note_on,30,0,1,,,,,,,,,0,,,62,0
18330,note_on,0,0,1,,,,,,,,,0,,,74,53
18330,note_on,30,0,1,,,,,,,,,0,,,65,0
18330,note_on,0,0,1,,,,,,,,,0,,,74,0
18360,note_on,30,0,1,,,,,,,,,0,,,74,0
18360,note_on,0,0,1,,,,,,,,,0,,,74,55
18390,note_on,30,0,1,,,,,,,,,0,,,62,46
18420,note_on,0,0,1,,,,,,,,,0,,,65,47
18420,note_on,30,0,1,,,,,,,,,0,,,62,0
18420,note_on,0,0,3,,,,,,,,,0,,,53,47
18420,note_on,120,0,3,,,,,,,,,0,,,53,0
18450,note_on,30,0,1,,,,,,,,,0,,,65,0
18450,note_on,0,0,1,,,,,,,,,0,,,74,0
18450,note_on,0,0,1,,,,,,,,,0,,,74,59
18465,control_change,225,0,4,,,,,,,,,0,64,0,,
18480,note_on,60,0,3,,,,,,,,,0,,,53,0
18480,note_on,0,0,3,,,,,,,,,0,,,46,0
18480,note_on,0,0,3,,,,,,,,,0,,,50,70
18480,control_change,15,0,4,,,,,,,,,0,64,127,,
18480,note_on,30,0,1,,,,,,,,,0,,,74,0
18480,note_on,0,0,1,,,,,,,,,0,,,72,60
18510,note_on,30,0,1,,,,,,,,,0,,,62,51
18540,note_on,0,0,1,,,,,,,,,0,,,65,53
18540,note_on,60,0,3,,,,,,,,,0,,,53,53
18540,note_on,30,0,1,,,,,,,,,0,,,62,0
18570,note_on,30,0,1,,,,,,,,,0,,,65,0
18570,note_on,0,0,1,,,,,,,,,0,,,72,0
18570,note_on,0,0,1,,,,,,,,,0,,,70,64
18600,note_on,30,0,1,,,,,,,,,0,,,70,0
18600,note_on,0,0,1,,,,,,,,,0,,,70,65
18630,note_on,30,0,1,,,,,,,,,0,,,62,56
18660,note_on,30,0,1,,,,,,,,,0,,,62,0
18660,note_on,0,0,1,,,,,,,,,0,,,65,58
18660,note_on,120,0,3,,,,,,,,,0,,,53,0
18660,note_on,0,0,3,,,,,,,,,0,,,53,58
18690,note_on,0,0,1,,,,,,,,,0,,,72,69
18690,note_on,0,0,1,,,,,,,,,0,,,70,0
18690,note_on,30,0,1,,,,,,,,,0,,,65,0
18705,control_change,225,0,4,,,,,,,,,0,64,0,,
18720,note_on,0,0,3,,,,,,,,,0,,,50,0
18720,control_change,15,0,4,,,,,,,,,0,64,127,,
18720,note_on,60,0,3,,,,,,,,,0,,,53,0
18720,note_on,30,0,1,,,,,,,,,0,,,72,0
18720,note_on,0,0,1,,,,,,,,,0,,,70,70
18720,note_on,0,0,3,,,,,,,,,0,,,48,80
18750,note_on,30,0,1,,,,,,,,,0,,,63,62
18780,note_on,60,0,3,,,,,,,,,0,,,53,63
18780,note_on,30,0,1,,,,,,,,,0,,,63,0
18780,note_on,0,0,1,,,,,,,,,0,,,65,63
18810,note_on,30,0,1,,,,,,,,,0,,,65,0
18810,note_on,0,0,1,,,,,,,,,0,,,70,0
18810,note_on,0,0,1,,,,,,,,,0,,,69,74
18840,note_on,30,0,1,,,,,,,,,0,,,69,0
18840,note_on,0,0,1,,,,,,,,,0,,,72,76
18870,note_on,30,0,1,,,,,,,,,0,,,65,67
18900,note_on,0,0,1,,,,,,,,,0,,,69,68
18900,note_on,120,0,3,,,,,,,,,0,,,53,0
18900,note_on,0,0,3,,,,,,,,,0,,,53,68
18900,note_on,30,0,1,,,,,,,,,0,,,65,0
18930,note_on,0,0,1,,,,,,,,,0,,,72,0
18930,note_on,0,0,1,,,,,,,,,0,,,74,79
18930,note_on,30,0,1,,,,,,,,,0,,,69,0
18945,control_change,225,0,4,,,,,,,,,0,64,0,,
18960,note_on,0,0,3,,,,,,,,,0,,,48,0
18960,note_on,30,0,1,,,,,,,,,0,,,74,0
18960,note_on,0,0,1,,,,,,,,,0,,,75,81
18960,control_change,15,0,4,,,,,,,,,0,64,127,,
18960,note_on,60,0,3,,,,,,,,,0,,,53,0
18960,note_on,0,0,3,,,,,,,,,0,,,41,91
18990,note_on,30,0,1,,,,,,,,,0,,,69,72
19020,note_on,30,0,1,,,,,,,,,0,,,69,0
19020,note_on,0,0,1,,,,,,,,,0,,,72,73
19020,note_on,60,0,3,,,,,,,,,0,,,53,73
19050,note_on,0,0,1,,,,,,,,,0,,,78,85
19050,note_on,0,0,1,,,,,,,,,0,,,75,0
19050,note_on,30,0,1,,,,,,,,,0,,,72,0
19080,note_on,30,0,1,,,,,,,,,0,,,78,0
19080,note_on,0,0,1,,,,,,,,,0,,,79,86
19110,note_on,30,0,1,,,,,,,,,0,,,69,77
19140,note_on,0,0,3,,,,,,,,,0,,,53,79
19140,note_on,30,0,1,,,,,,,,,0,,,69,0
19140,note_on,0,0,1,,,,,,,,,0,,,72,79
19140,note_on,120,0,3,,,,,,,,,0,,,53,0
19170,note_on,30,0,1,,,,,,,,,0,,,72,0
19170,note_on,0,0,1,,,,,,,,,0,,,79,0
19170,note_on,0,0,1,,,,,,,,,0,,,75,90
19185,control_change,225,0,4,,,,,,,,,0,64,0,,
19200,note_on,0,0,1,,,,,,,,,0,,,74,90
19200,note_on,0,0,3,,,,,,,,,0,,,46,100
19200,control_change,15,0,4,,,,,,,,,0,64,127,,
19200,note_on,0,0,3,,,,,,,,,0,,,41,0
19200,note_on,30,0,1,,,,,,,,,0,,,75,0
19200,note_on,60,0,3,,,,,,,,,0,,,53,0
19230,note_on,30,0,1,,,,,,,,,0,,,62,79
19260,note_on,30,0,1,,,,,,,,,0,,,62,0
19260,note_on,0,0,1,,,,,,,,,0,,,65,78
19260,note_on,60,0,3,,,,,,,,,0,,,53,78
19290,note_on,30,0,1,,,,,,,,,0,,,65,0
19290,note_on,0,0,1,,,,,,,,,0,,,69,86
19290,note_on,0,0,1,,,,,,,,,0,,,74,0
19320,note_on,30,0,1,,,,,,,,,0,,,69,0
19320,note_on,0,0,1,,,,,,,,,0,,,70,85
19350,note_on,30,0,1,,,,,,,,,0,,,62,74
19380,note_on,0,0,1,,,,,,,,,0,,,65,72
19380,note_on,120,0,3,,,,,,,,,0,,,53,0
19380,note_on,0,0,3,,,,,,,,,0,,,58,72
19380,note_on,30,0,1,,,,,,,,,0,,,62,0
19410,note_on,0,0,1,,,,,,,,,0,,,72,81
19410,note_on,0,0,1,,,,,,,,,0,,,70,0
19410,note_on,30,0,1,,,,,,,,,0,,,65,0
19425,control_change,225,0,4,,,,,,,,,0,64,0,,
19440,note_on,30,0,1,,,,,,,,,0,,,72,0
19440,control_change,15,0,4,,,,,,,,,0,64,127,,
19440,note_on,0,0,1,,,,,,,,,0,,,73,80
19440,note_on,60,0,3,,,,,,,,,0,,,58,0
19440,note_on,0,0,3,,,,,,,,,0,,,52,90
19440,note_on,0,0,3,,,,,,,,,0,,,46,0
19470,note_on,30,0,1,,,,,,,,,0,,,67,68
19500,note_on,60,0,3,,,,,,,,,0,,,61,67
19500,note_on,0,0,3,,,,,,,,,0,,,58,67
19500,note_on,30,0,1,,,,,,,,,0,,,67,0
19500,note_on,0,0,1,,,,,,,,,0,,,70,67
19530,note_on,0,0,1,,,,,,,,,0,,,79,76
19530,note_on,0,0,1,,,,,,,,,0,,,73,0
19530,note_on,30,0,1,,,,,,,,,0,,,70,0
19560,note_on,0,0,1,,,,,,,,,0,,,81,74
19560,note_on,30,0,1,,,,,,,,,0,,,79,0
19590,note_on,30,0,1,,,,,,,,,0,,,70,63
19620,note_on,0,0,3,,,,,,,,,0,,,58,61
19620,note_on,30,0,1,,,,,,,,,0,,,70,0
19620,note_on,0,0,1,,,,,,,,,0,,,73,61
19620,note_on,120,0,3,,,,,,,,,0,,,58,0
19620,note_on,0,0,3,,,,,,,,,0,,,61,0
19620,note_on,0,0,3,,,,,,,,,0,,,61,61
19650,note_on,0,0,1,,,,,,,,,0,,,82,70
19650,note_on,30,0,1,,,,,,,,,0,,,73,0
19650,note_on,0,0,1,,,,,,,,,0,,,81,0
19665,control_change,225,0,4,,,,,,,,,0,64,0,,
19680,control_change,15,0,4,,,,,,,,,0,64,127,,
19680,note_on,0,0,3,,,,,,,,,0,,,52,0
19680,note_on,0,0,1,,,,,,,,,0,,,72,69
19680,note_on,30,0,1,,,,,,,,,0,,,82,0
19680,note_on,0,0,3,,,,,,,,,0,,,53,79
19680,note_on,60,0,3,,,,,,,,,0,,,58,0
19680,note_on,0,0,3,,,,,,,,,0,,,61,0
19710,note_on,30,0,1,,,,,,,,,0,,,65,57
19740,note_on,60,0,3,,,,,,,,,0,,,60,56
19740,note_on,0,0,1,,,,,,,,,0,,,70,56
19740,note_on,30,0,1,,,,,,,,,0,,,65,0
19770,note_on,0,0,1,,,,,,,,,0,,,74,65
19770,note_on,0,0,1,,,,,,,,,0,,,72,0
19770,note_on,30,0,1,,,,,,,,,0,,,70,0
19800,note_on,0,0,1,,,,,,,,,0,,,75,63
19800,note_on,30,0,1,,,,,,,,,0,,,74,0
19830,note_on,30,0,1,,,,,,,,,0,,,65,52
19860,note_on,30,0,1,,,,,,,,,0,,,65,0
19860,note_on,0,0,1,,,,,,,,,0,,,69,51
19860,note_on,0,0,3,,,,,,,,,0,,,63,51
19860,note_on,120,0,3,,,,,,,,,0,,,60,0
19890,note_on,30,0,1,,,,,,,,,0,,,69,0
19890,note_on,0,0,1,,,,,,,,,0,,,75,0
19890,note_on,0,0,1,,,,,,,,,0,,,77,59
19905,control_change,225,0,4,,,,,,,,,0,64,0,,
19920,note_on,0,0,3,,,,,,,,,0,,,62,68
19920,note_on,0,0,3,,,,,,,,,0,,,53,0
19920,note_on,60,0,3,,,,,,,,,0,,,63,0
19920,note_on,0,0,1,,,,,,,,,0,,,70,58
19920,note_on,0,0,3,,,,,,,,,0,,,58,68
19920,control_change,15,0,4,,,,,,,,,0,64,127,,
19920,note_on,30,0,1,,,,,,,,,0,,,77,0
19950,note_on,30,0,1,,,,,,,,,0,,,62,46
19980,note_on,0,0,1,,,,,,,,,0,,,65,45
19980,note_on,30,0,1,,,,,,,,,0,,,62,0
20010,note_on,0,0,1,,,,,,,,,0,,,70,0
20010,note_on,30,0,1,,,,,,,,,0,,,65,0
20010,note_on,0,0,1,,,,,,,,,0,,,69,54
20040,note_on,120,0,3,,,,,,,,,0,,,58,0
20040,note_on,30,0,1,,,,,,,,,0,,,69,0
20040,note_on,0,0,3,,,,,,,,,0,,,62,0
20040,note_on,0,0,1,,,,,,,,,0,,,70,52
20070,note_on,30,0,1,,,,,,,,,0,,,62,41
20100,note_on,30,0,1,,,,,,,,,0,,,62,0
20100,note_on,0,0,1,,,,,,,,,0,,,65,40
20130,note_on,30,0,1,,,,,,,,,0,,,65,0
20130,note_on,0,0,1,,,,,,,,,0,,,70,0
20130,note_on,0,0,1,,,,,,,,,0,,,72,50
20145,control_change,225,0,4,,,,,,,,,0,64,0,,
20160,control_change,15,0,4,,,,,,,,,0,64,127,,
20160,note_on,30,0,1,,,,,,,,,0,,,72,0
20160,note_on,0,0,1,,,,,,,,,0,,,74,50
20160,note_on,120,0,3,,,,,,,,,0,,,46,60
20190,note_on,30,0,1,,,,,,,,,0,,,62,41
20220,note_on,60,0,3,,,,,,,,,0,,,53,42
20220,note_on,0,0,1,,,,,,,,,0,,,65,42
20220,note_on,30,0,1,,,,,,,,,0,,,62,0
20250,note_on,0,0,1,,,,,,,,,0,,,74,0
20250,note_on,0,0,1,,,,,,,,,0,,,74,53
20250,note_on,30,0,1,,,,,,,,,0,,,65,0
20280,note_on,0,0,1,,,,,,,,,0,,,74,55
20280,note_on,30,0,1,,,,,,,,,0,,,74,0
20310,note_on,30,0,1,,,,,,,,,0,,,62,46
20340,note_on,0,0,3,,,,,,,,,0,,,53,47
20340,note_on,30,0,1,,,,,,,,,0,,,62,0
20340,note_on,0,0,1,,,,,,,,,0,,,65,47
20340,note_on,120,0,3,,,,,,,,,0,,,53,0
20370,note_on,30,0,1,,,,,,,,,0,,,65,0
20370,note_on,0,0,1,,,,,,,,,0,,,74,0
20370,note_on,0,0,1,,,,,,,,,0,,,74,59
20385,control_change,225,0,4,,,,,,,,,0,64,0,,
20400,note_on,0,0,3,,,,,,,,,0,,,46,0
20400,note_on,60,0,3,,,,,,,,,0,,,53,0
20400,note_on,0,0,1,,,,,,,,,0,,,72,60
20400,note_on,30,0,1,,,,,,,,,0,,,74,0
20400,note_on,0,0,3,,,,,,,,,0,,,50,70
20400,control_change,15,0,4,,,,,,,,,0,64,127,,
20430,note_on,30,0,1,,,,,,,,,0,,,62,51
20460,note_on,30,0,1,,,,,,,,,0,,,62,0
20460,note_on,60,0,3,,,,,,,,,0,,,53,53
20460,note_on,0,0,1,,,,,,,,,0,,,65,53
20490,note_on,30,0,1,,,,,,,,,0,,,65,0
20490,note_on,0,0,1,,,,,,,,,0,,,72,0
20490,note_on,0,0,1,,,,,,,,,0,,,70,64
20520,note_on,30,0,1,,,,,,,,,0,,,70,0
20520,note_on,0,0,1,,,,,,,,,0,,,70,65
20550,note_on,30,0,1,,,,,,,,,0,,,62,56
20580,note_on,120,0,3,,,,,,,,,0,,,53,0
20580,note_on,0,0,3,,,,,,,,,0,,,53,58
20580,note_on,0,0,1,,,,,,,,,0,,,65,58
20580,note_on,30,0,1,,,,,,,,,0,,,62,0
20610,note_on,0,0,1,,,,,,,,,0,,,72,69
20610,note_on,0,0,1,,,,,,,,,0,,,70,0
20610,note_on,30,0,1,,,,,,,,,0,,,65,0
20625,control_change,225,0,4,,,,,,,,,0,64,0,,
20640,note_on,0,0,3,,,,,,,,,0,,,48,80
20640,control_change,15,0,4,,,,,,,,,0,64,127,,
20640,note_on,0,0,3,,,,,,,,,0,,,50,0
20640,note_on,60,0,3,,,,,,,,,0,,,53,0
20640,note_on,30,0,1,,,,,,,,,0,,,72,0
20640,note_on,0,0,1,,,,,,,,,0,,,70,70
20670,note_on,30,0,1,,,,,,,,,0,,,63,62
20700,note_on,30,0,1,,,,,,,,,0,,,63,0
20700,note_on,0,0,1,,,,,,,,,0,,,65,63
20700,note_on,60,0,3,,,,,,,,,0,,,53,63
20730,note_on,30,0,1,,,,,,,,,0,,,65,0
20730,note_on,0,0,1,,,,,,,,,0,,,70,0
20730,note_on,0,0,1,,,,,,,,,0,,,69,74
20760,note_on,0,0,1,,,,,,,,,0,,,72,76
20760,note_on,30,0,1,,,,,,,,,0,,,69,0
20790,note_on,30,0,1,,,,,,,,,0,,,65,67
20820,note_on,30,0,1,,,,,,,,,0,,,65,0
20820,note_on,120,0,3,,,,,,,,,0,,,53,0
20820,note_on,0,0,1,,,,,,,,,0,,,69,68
20820,note_on,0,0,3,,,,,,,,,0,,,53,68
20850,note_on,0,0,1,,,,,,,,,0,,,74,79
20850,note_on,30,0,1,,,,,,,,,0,,,69,0
20850,note_on,0,0,1,,,,,,,,,0,,,72,0
20865,control_change,225,0,4,,,,,,,,,0,64,0,,
20880,control_change,15,0,4,,,,,,,,,0,64,127,,
20880,note_on,30,0,1,,,,,,,,,0,,,74,0
20880,note_on,0,0,1,,,,,,,,,0,,,75,81
20880,note_on,0,0,3,,,,,,,,,0,,,48,0
20880,note_on,60,0,3,,,,,,,,,0,,,53,0
20880,note_on,0,0,3,,,,,,,,,0,,,41,91
20910,note_on,30,0,1,,,,,,,,,0,,,69,72
20940,note_on,30,0,1,,,,,,,,,0,,,69,0
20940,note_on,60,0,3,,,,,,,,,0,,,53,73
20940,note_on,0,0,1,,,,,,,,,0,,,72,73
20970,note_on,30,0,1,,,,,,,,,0,,,72,0
20970,note_on,0,0,1,,,,,,,,,0,,,75,0
20970,note_on,0,0,1,,,,,,,,,0,,,78,85
21000,note_on,0,0,1,,,,,,,,,0,,,79,86
21000,note_on,30,0,1,,,,,,,,,0,,,78,0
21030,note_on,30,0,1,,,,,,,,,0,,,69,77
21060,note_on,0,0,3,,,,,,,,,0,,,53,79
21060,note_on,120,0,3,,,,,,,,,0,,,53,0
21060,note_on,30,0,1,,,,,,,,,0,,,69,0
21060,note_on,0,0,1,,,,,,,,,0,,,72,79
21090,note_on,0,0,1,,,,,,,,,0,,,79,0
21090,note_on,30,0,1,,,,,,,,,0,,,72,0
21090,note_on,0,0,1,,,,,,,,,0,,,75,90
21105,control_change,225,0,4,,,,,,,,,0,64,0,,
21120,note_on,0,0,1,,,,,,,,,0,,,74,90
21120,note_on,0,0,3,,,,,,,,,0,,,50,100
21120,control_change,15,0,4,,,,,,,,,0,64,127,,
21120,note_on,60,0,3,,,,,,,,,0,,,53,0
21120,note_on,0,0,3,,,,,,,,,0,,,41,0
21120,note_on,30,0,1,,,,,,,,,0,,,75,0
21150,note_on,30,0,1,,,,,,,,,0,,,66,79
21180,note_on,30,0,1,,,,,,,,,0,,,66,0
21180,note_on,0,0,1,,,,,,,,,0,,,69,78
21180,note_on,60,0,3,,,,,,,,,0,,,57,78
21210,note_on,0,0,1,,,,,,,,,0,,,74,0
21210,note_on,0,0,1,,,,,,,,,0,,,75,87
21210,note_on,30,0,1,,,,,,,,,0,,,69,0
21240,note_on,0,0,1,,,,,,,,,0,,,74,85
21240,note_on,30,0,1,,,,,,,,,0,,,75,0
21270,note_on,30,0,1,,,,,,,,,0,,,66,74
21300,note_on,0,0,3,,,,,,,,,0,,,57,73
21300,note_on,120,0,3,,,,,,,,,0,,,57,0
21300,note_on,0,0,1,,,,,,,,,0,,,69,73
21300,note_on,30,0,1,,,,,,,,,0,,,66,0
21330,note_on,0,0,1,,,,,,,,,0,,,72,81
21330,note_on,0,0,1,,,,,,,,,0,,,74,0
21330,note_on,30,0,1,,,,,,,,,0,,,69,0
21345,control_change,225,0,4,,,,,,,,,0,64,0,,
21360,note_on,0,0,1,,,,,,,,,0,,,72,80
21360,control_change,15,0,4,,,,,,,,,0,64,127,,
21360,note_on,30,0,1,,,,,,,,,0,,,72,0
21360,note_on,60,0,3,,,,,,,,,0,,,57,0
21360,note_on,0,0,3,,,,,,,,,0,,,50,0
21360,note_on,0,0,3,,,,,,,,,0,,,50,90
21390,note_on,30,0,1,,,,,,,,,0,,,65,69
21420,note_on,0,0,1,,,,,,,,,0,,,68,67
21420,note_on,30,0,1,,,,,,,,,0,,,65,0
21420,note_on,60,0,3,,,,,,,,,0,,,56,67
21450,note_on,0,0,1,,,,,,,,,0,,,72,76
21450,note_on,30,0,1,,,,,,,,,0,,,68,0
21450,note_on,0,0,1,,,,,,,,,0,,,72,0
21480,note_on,30,0,1,,,,,,,,,0,,,72,0
21480,note_on,0,0,1,,,,,,,,,0,,,71,75
21510,note_on,30,0,1,,,,,,,,,0,,,65,64
21540,note_on,30,0,1,,,,,,,,,0,,,65,0
21540,note_on,0,0,1,,,,,,,,,0,,,68,62
21540,note_on,0,0,3,,,,,,,,,0,,,56,62
21540,note_on,120,0,3,,,,,,,,,0,,,56,0
21570,note_on,30,0,1,,,,,,,,,0,,,68,0
21570,note_on,0,0,1,,,,,,,,,0,,,71,0
21570,note_on,0,0,1,,,,,,,,,0,,,71,71
21585,control_change,225,0,4,,,,,,,,,0,64,0,,
21600,note_on,60,0,3,,,,,,,,,0,,,56,0
21600,note_on,0,0,3,,,,,,,,,0,,,50,0
21600,note_on,0,0,3,,,,,,,,,0,,,51,80
21600,control_change,15,0,4,,,,,,,,,0,64,127,,
21600,note_on,0,0,1,,,,,,,,,0,,,71,70
21600,note_on,30,0,1,,,,,,,,,0,,,71,0
21630,note_on,30,0,1,,,,,,,,,0,,,63,58
21660,note_on,60,0,3,,,,,,,,,0,,,55,57
21660,note_on,30,0,1,,,,,,,,,0,,,63,0
21660,note_on,0,0,1,,,,,,,,,0,,,67,57
21690,note_on,30,0,1,,,,,,,,,0,,,67,0
21690,note_on,0,0,1,,,,,,,,,0,,,71,0
21690,note_on,0,0,1,,,,,,,,,0,,,72,66
21720,note_on,30,0,1,,,,,,,,,0,,,72,0
21720,note_on,0,0,1,,,,,,,,,0,,,75,64
21750,note_on,30,0,1,,,,,,,,,0,,,63,53
21780,note_on,0,0,3,,,,,,,,,0,,,54,52
21780,note_on,120,0,3,,,,,,,,,0,,,55,0
21780,note_on,0,0,1,,,,,,,,,0,,,66,52
21780,note_on,30,0,1,,,,,,,,,0,,,63,0
21810,note_on,30,0,1,,,,,,,,,0,,,66,0
21810,note_on,0,0,1,,,,,,,,,0,,,75,0
21810,note_on,0,0,1,,,,,,,,,0,,,72,61
21825,control_change,225,0,4,,,,,,,,,0,64,0,,
21840,note_on,0,0,3,,,,,,,,,0,,,41,69
21840,note_on,0,0,3,,,,,,,,,0,,,51,0
21840,note_on,60,0,3,,,,,,,,,0,,,54,0
21840,control_change,15,0,4,,,,,,,,,0,64,127,,
21840,note_on,30,0,1,,,,,,,,,0,,,72,0
21840,note_on,0,0,1,,,,,,,,,0,,,70,59
21870,note_on,30,0,1,,,,,,,,,0,,,62,48
21900,note_on,60,0,3,,,,,,,,,0,,,53,47
21900,note_on,30,0,1,,,,,,,,,0,,,62,0
21900,note_on,0,0,1,,,,,,,,,0,,,65,47
21930,note_on,30,0,1,,,,,,,,,0,,,65,0
21930,note_on,0,0,1,,,,,,,,,0,,,70,55
21930,note_on,0,0,1,,,,,,,,,0,,,70,0
21960,note_on,0,0,1,,,,,,,,,0,,,69,54
21960,note_on,30,0,1,,,,,,,,,0,,,70,0
21990,note_on,30,0,1,,,,,,,,,0,,,60,43
22020,note_on,0,0,1,,,,,,,,,0,,,65,41
22020,note_on,30,0,1,,,,,,,,,0,,,60,0
22020,note_on,0,0,3,,,,,,,,,0,,,53,41
22020,note_on,120,0,3,,,,,,,,,0,,,53,0
22050,note_on,0,0,1,,,,,,,,,0,,,69,50
22050,note_on,0,0,1,,,,,,,,,0,,,69,0
22050,note_on,30,0,1,,,,,,,,,0,,,65,0
22065,control_change,225,0,4,,,,,,,,,0,64,0,,
22080,note_on,0,0,1,,,,,,,,,0,,,74,50
22080,note_on,60,0,3,,,,,,,,,0,,,53,0
22080,control_change,15,0,4,,,,,,,,,0,64,127,,
22080,note_on,0,0,3,,,,,,,,,0,,,46,60
22080,note_on,30,0,1,,,,,,,,,0,,,69,0
22080,note_on,0,0,3,,,,,,,,,0,,,41,0
22110,note_on,30,0,1,,,,,,,,,0,,,62,41
22140,note_on,60,0,3,,,,,,,,,0,,,53,42
22140,note_on,30,0,1,,,,,,,,,0,,,62,0
22140,note_on,0,0,1,,,,,,,,,0,,,65,42
22170,note_on,0,0,1,,,,,,,,,0,,,74,53
22170,note_on,30,0,1,,,,,,,,,0,,,65,0
22170,note_on,0,0,1,,,,,,,,,0,,,74,0
22200,note_on,30,0,1,,,,,,,,,0,,,74,0
22200,note_on,0,0,1,,,,,,,,,0,,,74,55
22230,note_on,30,0,1,,,,,,,,,0,,,62,46
22260,note_on,0,0,1,,,,,,,,,0,,,65,47
22260,note_on,30,0,1,,,,,,,,,0,,,62,0
22260,note_on,120,0,3,,,,,,,,,0,,,53,0
22260,note_on,0,0,3,,,,,,,,,0,,,53,47
22290,note_on,30,0,1,,,,,,,,,0,,,65,0
22290,note_on,0,0,1,,,,,,,,,0,,,74,0
22290,note_on,0,0,1,,,,,,,,,0,,,74,59
22305,control_change,225,0,4,,,,,,,,,0,64,0,,
22320,note_on,0,0,3,,,,,,,,,0,,,50,70
22320,note_on,30,0,1,,,,,,,,,0,,,74,0
22320,note_on,60,0,3,,,,,,,,,0,,,53,0
22320,note_on,0,0,3,,,,,,,,,0,,,46,0
22320,note_on,0,0,1,,,,,,,,,0,,,72,60
22320,control_change,15,0,4,,,,,,,,,0,64,127,,
22350,note_on,30,0,1,,,,,,,,,0,,,62,51
22380,note_on,0,0,1,,,,,,,,,0,,,65,53
22380,note_on,30,0,1,,,,,,,,,0,,,62,0
22380,note_on,60,0,3,,,,,,,,,0,,,53,53
22410,note_on,0,0,1,,,,,,,,,0,,,70,64
22410,note_on,0,0,1,,,,,,,,,0,,,72,0
22410,note_on,30,0,1,,,,,,,,,0,,,65,0
22440,note_on,0,0,1,,,,,,,,,0,,,70,65
22440,note_on,30,0,1,,,,,,,,,0,,,70,0
22470,note_on,30,0,1,,,,,,,,,0,,,62,56
22500,note_on,0,0,3,,,,,,,,,0,,,53,58
22500,note_on,30,0,1,,,,,,,,,0,,,62,0
22500,note_on,0,0,1,,,,,,,,,0,,,65,58
22500,note_on,120,0,3,,,,,,,,,0,,,53,0
22530,note_on,30,0,1,,,,,,,,,0,,,65,0
22530,note_on,0,0,1,,,,,,,,,0,,,70,0
22530,note_on,0,0,1,,,,,,,,,0,,,72,69
22545,control_change,225,0,4,,,,,,,,,0,64,0,,
22560,note_on,30,0,1,,,,,,,,,0,,,72,0
22560,note_on,0,0,3,,,,,,,,,0,,,48,80
22560,control_change,15,0,4,,,,,,,,,0,64,127,,
22560,note_on,0,0,3,,,,,,,,,0,,,50,0
22560,note_on,60,0,3,,,,,,,,,0,,,53,0
22560,note_on,0,0,1,,,,,,,,,0,,,70,70
22590,note_on,30,0,1,,,,,,,,,0,,,63,62
22620,note_on,0,0,1,,,,,,,,,0,,,65,63
22620,note_on,60,0,3,,,,,,,,,0,,,53,63
22620,note_on,30,0,1,,,,,,,,,0,,,63,0
22650,note_on,30,0,1,,,,,,,,,0,,,65,0
22650,note_on,0,0,1,,,,,,,,,0,,,70,0
22650,note_on,0,0,1,,,,,,,,,0,,,69,74
22680,note_on,0,0,1,,,,,,,,,0,,,72,76
22680,note_on,30,0,1,,,,,,,,,0,,,69,0
22710,note_on,30,0,1,,,,,,,,,0,,,65,67
22740,note_on,0,0,1,,,,,,,,,0,,,69,68
22740,note_on,0,0,3,,,,,,,,,0,,,53,68
22740,note_on,120,0,3,,,,,,,,,0,,,53,0
22740,note_on,30,0,1,,,,,,,,,0,,,65,0
22770,note_on,0,0,1,,,,,,,,,0,,,74,79
22770,note_on,0,0,1,,,,,,,,,0,,,72,0
22770,note_on,30,0,1,,,,,,,,,0,,,69,0
22785,control_change,225,0,4,,,,,,,,,0,64,0,,
22800,note_on,0,0,1,,,,,,,,,0,,,75,81
22800,note_on,30,0,1,,,,,,,,,0,,,74,0
22800,control_change,15,0,4,,,,,,,,,0,64,127,,
22800,note_on,0,0,3,,,,,,,,,0,,,48,0
22800,note_on,0,0,3,,,,,,,,,0,,,41,91
22800,note_on,60,0,3,,,,,,,,,0,,,53,0
22830,note_on,30,0,1,,,,,,,,,0,,,69,72
22860,note_on,60,0,3,,,,,,,,,0,,,53,73
22860,note_on,30,0,1,,,,,,,,,0,,,69,0
22860,note_on,0,0,1,,,,,,,,,0,,,72,73
22890,note_on,30,0,1,,,,,,,,,0,,,72,0
22890,note_on,0,0,1,,,,,,,,,0,,,78,85
22890,note_on,0,0,1,,,,,,,,,0,,,75,0
22920,note_on,0,0,1,,,,,,,,,0,,,79,86
22920,note_on,30,0,1,,,,,,,,,0,,,78,0
22950,note_on,30,0,1,,,,,,,,,0,,,69,77
22980,note_on,0,0,1,,,,,,,,,0,,,72,79
22980,note_on,30,0,1,,,,,,,,,0,,,69,0
22980,note_on,0,0,3,,,,,,,,,0,,,53,79
22980,note_on,120,0,3,,,,,,,,,0,,,53,0
23010,note_on,0,0,1,,,,,,,,,0,,,75,90
23010,note_on,0,0,1,,,,,,,,,0,,,79,0
23010,note_on,30,0,1,,,,,,,,,0,,,72,0
23025,control_change,225,0,4,,,,,,,,,0,64,0,,
23040,note_on,0,0,3,,,,,,,,,0,,,46,100
23040,note_on,0,0,3,,,,,,,,,0,,,41,0
23040,note_on,60,0,3,,,,,,,,,0,,,53,0
23040,control_change,15,0,4,,,,,,,,,0,64,127,,
23040,note_on,0,0,1,,,,,,,,,0,,,74,90
23040,note_on,30,0,1,,,,,,,,,0,,,75,0
23070,note_on,30,0,1,,,,,,,,,0,,,62,79
23100,note_on,60,0,3,,,,,,,,,0,,,53,78
23100,note_on,30,0,1,,,,,,,,,0,,,62,0
23100,note_on,0,0,1,,,,,,,,,0,,,65,78
23130,note_on,0,0,1,,,,,,,,,0,,,69,86
23130,note_on,0,0,1,,,,,,,,,0,,,74,0
23130,note_on,30,0,1,,,,,,,,,0,,,65,0
23160,note_on,0,0,1,,,,,,,,,0,,,70,85
23160,note_on,30,0,1,,,,,,,,,0,,,69,0
23190,note_on,30,0,1,,,,,,,,,0,,,62,74
23220,note_on,0,0,1,,,,,,,,,0,,,65,72
23220,note_on,30,0,1,,,,,,,,,0,,,62,0
23220,note_on,0,0,3,,,,,,,,,0,,,58,72
23220,note_on,120,0,3,,,,,,,,,0,,,53,0
23250,note_on,30,0,1,,,,,,,,,0,,,65,0
23250,note_on,0,0,1,,,,,,,,,0,,,70,0
23250,note_on,0,0,1,,,,,,,,,0,,,72,81
23265,control_change,225,0,4,,,,,,,,,0,64,0,,
23280,note_on,30,0,1,,,,,,,,,0,,,72,0
23280,control_change,15,0,4,,,,,,,,,0,64,127,,
23280,note_on,60,0,3,,,,,,,,,0,,,58,0
23280,note_on,0,0,3,,,,,,,,,0,,,46,0
23280,note_on,0,0,3,,,,,,,,,0,,,52,90
23280,note_on,0,0,1,,,,,,,,,0,,,73,80
23310,note_on,30,0,1,,,,,,,,,0,,,67,68
23340,note_on,0,0,3,,,,,,,,,0,,,58,67
23340,note_on,60,0,3,,,,,,,,,0,,,61,67
23340,note_on,30,0,1,,,,,,,,,0,,,67,0
23340,note_on,0,0,1,,,,,,,,,0,,,70,67
23370,note_on,30,0,1,,,,,,,,,0,,,70,0
23370,note_on,0,0,1,,,,,,,,,0,,,73,0
23370,note_on,0,0,1,,,,,,,,,0,,,79,76
23400,note_on,30,0,1,,,,,,,,,0,,,79,0
23400,note_on,0,0,1,,,,,,,,,0,,,81,74
23430,note_on,30,0,1,,,,,,,,,0,,,70,63
23460,note_on,30,0,1,,,,,,,,,0,,,70,0
23460,note_on,0,0,1,,,,,,,,,0,,,73,61
23460,note_on,120,0,3,,,,,,,,,0,,,58,0
23460,note_on,0,0,3,,,,,,,,,0,,,61,0
23460,note_on,0,0,3,,,,,,,,,0,,,61,61
23460,note_on,0,0,3,,,,,,,,,0,,,58,61
23490,note_on,30,0,1,,,,,,,,,0,,,73,0
23490,note_on,0,0,1,,,,,,,,,0,,,82,70
23490,note_on,0,0,1,,,,,,,,,0,,,81,0
23505,control_change,225,0,4,,,,,,,,,0,64,0,,
23520,note_on,0,0,3,,,,,,,,,0,,,52,0
23520,control_change,15,0,4,,,,,,,,,0,64,127,,
23520,note_on,0,0,3,,,,,,,,,0,,,53,79
23520,note_on,0,0,3,,,,,,,,,0,,,61,0
23520,note_on,60,0,3,,,,,,,,,0,,,58,0
23520,note_on,0,0,1,,,,,,,,,0,,,72,69
23520,note_on,30,0,1,,,,,,,,,0,,,82,0
23550,note_on,30,0,1,,,,,,,,,0,,,65,57
23580,note_on,30,0,1,,,,,,,,,0,,,65,0
23580,note_on,0,0,1,,,,,,,,,0,,,70,56
23580,note_on,60,0,3,,,,,,,,,0,,,60,56
23610,note_on,30,0,1,,,,,,,,,0,,,70,0
23610,note_on,0,0,1,,,,,,,,,0,,,72,0
23610,note_on,0,0,1,,,,,,,,,0,,,74,65
23640,note_on,30,0,1,,,,,,,,,0,,,74,0
23640,note_on,0,0,1,,,,,,,,,0,,,75,63
23670,note_on,30,0,1,,,,,,,,,0,,,65,52
23700,note_on,30,0,1,,,,,,,,,0,,,65,0
23700,note_on,0,0,1,,,,,,,,,0,,,69,51
23700,note_on,0,0,3,,,,,,,,,0,,,63,51
23700,note_on,120,0,3,,,,,,,,,0,,,60,0
23730,note_on,0,0,1,,,,,,,,,0,,,77,59
23730,note_on,30,0,1,,,,,,,,,0,,,69,0
23730,note_on,0,0,1,,,,,,,,,0,,,75,0
23745,control_change,225,0,4,,,,,,,,,0,64,0,,
23760,note_on,0,0,3,,,,,,,,,0,,,62,68
23760,note_on,60,0,3,,,,,,,,,0,,,63,0
23760,note_on,0,0,3,,,,,,,,,0,,,58,68
23760,note_on,0,0,1,,,,,,,,,0,,,70,58
23760,note_on,30,0,1,,,,,,,,,0,,,77,0
23760,note_on,0,0,3,,,,,,,,,0,,,53,0
23760,control_change,15,0,4,,,,,,,,,0,64,127,,
23790,note_on,30,0,1,,,,,,,,,0,,,62,46
23820,note_on,0,0,1,,,,,,,,,0,,,65,45
23820,note_on,30,0,1,,,,,,,,,0,,,62,0
23850,note_on,0,0,1,,,,,,,,,0,,,70,0
23850,note_on,30,0,1,,,,,,,,,0,,,65,0
23850,note_on,0,0,1,,,,,,,,,0,,,69,54
23880,note_on,0,0,3,,,,,,,,,0,,,62,0
23880,note_on,0,0,1,,,,,,,,,0,,,70,52
23880,note_on,30,0,1,,,,,,,,,0,,,69,0
23880,note_on,120,0,3,,,,,,,,,0,,,58,0
23910,note_on,30,0,1,,,,,,,,,0,,,62,41
23940,note_on,0,0,1,,,,,,,,,0,,,65,40
23940,note_on,30,0,1,,,,,,,,,0,,,62,0
23970,note_on,0,0,1,,,,,,,,,0,,,72,50
23970,note_on,0,0,1,,,,,,,,,0,,,70,0
23970,note_on,30,0,1,,,,,,,,,0,,,65,0
23985,control_change,225,0,4,,,,,,,,,0,64,0,,
24000,note_on,120,0,3,,,,,,,,,0,,,50,60
24000,note_on,30,0,1,,,,,,,,,0,,,72,0
24000,note_on,0,0,1,,,,,,,,,0,,,74,50
24000,control_change,15,0,4,,,,,,,,,0,64,127,,
24030,note_on,30,0,1,,,,,,,,,0,,,66,40
24060,note_on,0,0,1,,,,,,,,,0,,,69,40
24060,note_on,30,0,1,,,,,,,,,0,,,66,0
24060,note_on,60,0,3,,,,,,,,,0,,,60,40
24090,note_on,0,0,1,,,,,,,,,0,,,75,50
24090,note_on,30,0,1,,,,,,,,,0,,,69,0
24090,note_on,0,0,1,,,,,,,,,0,,,74,0
24120,note_on,30,0,1,,,,,,,,,0,,,75,0
24120,note_on,0,0,1,,,,,,,,,0,,,74,50
24150,note_on,30,0,1,,,,,,,,,0,,,66,40
24180,note_on,120,0,3,,,,,,,,,0,,,60,0
24180,note_on,0,0,3,,,,,,,,,0,,,57,40
24180,note_on,0,0,1,,,,,,,,,0,,,69,40
24180,note_on,30,0,1,,,,,,,,,0,,,66,0
24210,note_on,0,0,1,,,,,,,,,0,,,74,0
24210,note_on,30,0,1,,,,,,,,,0,,,69,0
24210,note_on,0,0,1,,,,,,,,,0,,,72,50
24225,control_change,225,0,4,,,,,,,,,0,64,0,,
24240,note_on,60,0,3,,,,,,,,,0,,,57,0
24240,note_on,0,0,3,,,,,,,,,0,,,43,60
24240,note_on,0,0,3,,,,,,,,,0,,,50,0
24240,note_on,30,0,1,,,,,,,,,0,,,72,0
24240,control_change,15,0,4,,,,,,,,,0,64,127,,
24240,note_on,0,0,1,,,,,,,,,0,,,72,50
24270,note_on,30,0,1,,,,,,,,,0,,,65,40
24300,note_on,30,0,1,,,,,,,,,0,,,65,0
24300,note_on,0,0,1,,,,,,,,,0,,,67,40
24300,note_on,60,0,3,,,,,,,,,0,,,43,0
24300,note_on,0,0,3,,,,,,,,,0,,,62,40
24300,note_on,0,0,3,,,,,,,,,0,,,55,40
24330,note_on,30,0,1,,,,,,,,,0,,,67,0
24330,note_on,0,0,1,,,,,,,,,0,,,71,50
24330,note_on,0,0,1,,,,,,,,,0,,,72,0
24360,note_on,60,0,3,,,,,,,,,0,,,55,0
24360,note_on,0,0,3,,,,,,,,,0,,,60,40
24360,note_on,0,0,3,,,,,,,,,0,,,56,40
24360,note_on,30,0,1,,,,,,,,,0,,,71,0
24360,note_on,0,0,3,,,,,,,,,0,,,62,0
24360,note_on,0,0,1,,,,,,,,,0,,,72,50
24390,note_on,30,0,1,,,,,,,,,0,,,65,40
24420,note_on,60,0,3,,,,,,,,,0,,,56,0
24420,note_on,0,0,3,,,,,,,,,0,,,60,0
24420,note_on,0,0,3,,,,,,,,,0,,,55,40
24420,note_on,0,0,3,,,,,,,,,0,,,59,40
24420,note_on,0,0,1,,,,,,,,,0,,,67,40
24420,note_on,30,0,1,,,,,,,,,0,,,65,0
24450,note_on,0,0,1,,,,,,,,,0,,,72,0
24450,note_on,30,0,1,,,,,,,,,0,,,67,0
24450,note_on,0,0,1,,,,,,,,,0,,,74,50
24465,control_change,225,0,4,,,,,,,,,0,64,0,,
24480,note_on,60,0,3,,,,,,,,,0,,,59,0
24480,note_on,0,0,3,,,,,,,,,0,,,55,0
24480,note_on,0,0,3,,,,,,,,,0,,,43,60
24480,control_change,15,0,4,,,,,,,,,0,64,127,,
24480,note_on,30,0,1,,,,,,,,,0,,,74,0
24480,note_on,0,0,1,,,,,,,,,0,,,79,50
24510,note_on,30,0,1,,,,,,,,,0,,,71,40
24540,note_on,0,0,3,,,,,,,,,0,,,65,41
24540,note_on,60,0,3,,,,,,,,,0,,,43,0
24540,note_on,30,0,1,,,,,,,,,0,,,71,0
24540,note_on,0,0,1,,,,,,,,,0,,,74,41
24540,note_on,0,0,3,,,,,,,,,0,,,55,41
24570,note_on,30,0,1,,,,,,,,,0,,,74,0
24570,note_on,0,0,1,,,,,,,,,0,,,80,51
24570,note_on,0,0,1,,,,,,,,,0,,,79,0
24600,note_on,30,0,1,,,,,,,,,0,,,80,0
24600,note_on,0,0,1,,,,,,,,,0,,,79,52
24630,note_on,30,0,1,,,,,,,,,0,,,71,43
24660,note_on,0,0,1,,,,,,,,,0,,,74,43
24660,note_on,120,0,3,,,,,,,,,0,,,65,0
24660,note_on,0,0,3,,,,,,,,,0,,,62,43
24660,note_on,30,0,1,,,,,,,,,0,,,71,0
24690,note_on,30,0,1,,,,,,,,,0,,,74,0
24690,note_on,0,0,1,,,,,,,,,0,,,79,0
24690,note_on,0,0,1,,,,,,,,,0,,,77,54
24705,control_change,225,0,4,,,,,,,,,0,64,0,,
24720,note_on,60,0,3,,,,,,,,,0,,,62,0
24720,note_on,0,0,3,,,,,,,,,0,,,55,0
24720,note_on,0,0,3,,,,,,,,,0,,,48,65
24720,note_on,30,0,1,,,,,,,,,0,,,77,0
24720,note_on,0,0,1,,,,,,,,,0,,,77,55
24720,control_change,15,0,4,,,,,,,,,0,64,127,,
24750,note_on,30,0,1,,,,,,,,,0,,,67,45
24780,note_on,60,0,3,,,,,,,,,0,,,60,46
24780,note_on,30,0,1,,,,,,,,,0,,,67,0
24780,note_on,0,0,1,,,,,,,,,0,,,70,46
24810,note_on,0,0,1,,,,,,,,,0,,,76,57
24810,note_on,0,0,1,,,,,,,,,0,,,77,0
24810,note_on,30,0,1,,,,,,,,,0,,,70,0
24840,note_on,0,0,1,,,,,,,,,0,,,74,57
24840,note_on,30,0,1,,,,,,,,,0,,,76,0
24870,note_on,30,0,1,,,,,,,,,0,,,64,48
24900,note_on,30,0,1,,,,,,,,,0,,,64,0
24900,note_on,120,0,3,,,,,,,,,0,,,48,0
24900,note_on,0,0,3,,,,,,,,,0,,,55,69
24900,note_on,0,0,1,,,,,,,,,0,,,70,49
24930,note_on,0,0,1,,,,,,,,,0,,,74,0
24930,note_on,30,0,1,,,,,,,,,0,,,70,0
24930,note_on,0,0,1,,,,,,,,,0,,,72,59
24945,control_change,225,0,4,,,,,,,,,0,64,0,,
24960,control_change,15,0,4,,,,,,,,,0,64,127,,
24960,note_on,0,0,1,,,,,,,,,0,,,72,60
24960,note_on,30,0,1,,,,,,,,,0,,,72,0
24960,note_on,0,0,3,,,,,,,,,0,,,60,0
24960,note_on,0,0,3,,,,,,,,,0,,,57,70
24960,note_on,60,0,3,,,,,,,,,0,,,55,0
24990,note_on,30,0,1,,,,,,,,,0,,,65,51
25020,note_on,30,0,1,,,,,,,,,0,,,65,0
25020,note_on,60,0,3,,,,,,,,,0,,,60,51
25020,note_on,0,0,1,,,,,,,,,0,,,69,51
25050,note_on,30,0,1,,,,,,,,,0,,,69,0
25050,note_on,0,0,1,,,,,,,,,0,,,72,0
25050,note_on,0,0,1,,,,,,,,,0,,,74,62
25080,note_on,30,0,1,,,,,,,,,0,,,74,0
25080,note_on,60,0,3,,,,,,,,,0,,,57,0
25080,note_on,0,0,3,,,,,,,,,0,,,53,73
25080,note_on,0,0,1,,,,,,,,,0,,,76,63
25110,note_on,30,0,1,,,,,,,,,0,,,69,53
25140,note_on,0,0,3,,,,,,,,,0,,,60,54
25140,note_on,60,0,3,,,,,,,,,0,,,60,0
25140,note_on,30,0,1,,,,,,,,,0,,,69,0
25140,note_on,0,0,1,,,,,,,,,0,,,72,54
25170,note_on,0,0,1,,,,,,,,,0,,,77,65
25170,note_on,0,0,1,,,,,,,,,0,,,76,0
25170,note_on,30,0,1,,,,,,,,,0,,,72,0
25185,control_change,225,0,4,,,,,,,,,0,64,0,,
25200,note_on,0,0,3,,,,,,,,,0,,,46,75
25200,note_on,0,0,3,,,,,,,,,0,,,53,0
25200,note_on,60,0,3,,,,,,,,,0,,,60,0
25200,control_change,15,0,4,,,,,,,,,0,64,127,,
25200,note_on,0,0,1,,,,,,,,,0,,,77,65
25200,note_on,30,0,1,,,,,,,,,0,,,77,0
25230,note_on,30,0,1,,,,,,,,,0,,,65,56
25260,note_on,0,0,1,,,,,,,,,0,,,70,57
25260,note_on,30,0,1,,,,,,,,,0,,,65,0
25260,note_on,60,0,3,,,,,,,,,0,,,46,0
25260,note_on,0,0,3,,,,,,,,,0,,,62,57
25260,note_on,0,0,3,,,,,,,,,0,,,58,57
25290,note_on,0,0,1,,,,,,,,,0,,,74,67
25290,note_on,30,0,1,,,,,,,,,0,,,70,0
25290,note_on,0,0,1,,,,,,,,,0,,,77,0
25320,note_on,0,0,3,,,,,,,,,0,,,60,58
25320,note_on,30,0,1,,,,,,,,,0,,,74,0
25320,note_on,0,0,1,,,,,,,,,0,,,72,68
25320,note_on,60,0,3,,,,,,,,,0,,,58,0
25320,note_on,0,0,3,,,,,,,,,0,,,62,0
25320,note_on,0,0,3,,,,,,,,,0,,,57,58
25350,note_on,30,0,1,,,,,,,,,0,,,66,59
25380,note_on,0,0,3,,,,,,,,,0,,,55,59
25380,note_on,0,0,3,,,,,,,,,0,,,58,59
25380,note_on,0,0,1,,,,,,,,,0,,,67,59
25380,note_on,0,0,3,,,,,,,,,0,,,57,0
25380,note_on,60,0,3,,,,,,,,,0,,,60,0
25380,note_on,30,0,1,,,,,,,,,0,,,66,0
25410,note_on,30,0,1,,,,,,,,,0,,,67,0
25410,note_on,0,0,1,,,,,,,,,0,,,70,70
25410,note_on,0,0,1,,,,,,,,,0,,,72,0
25425,control_change,225,0,4,,,,,,,,,0,64,0,,
25440,note_on,0,0,3,,,,,,,,,0,,,58,0
25440,note_on,0,0,3,,,,,,,,,0,,,48,80
25440,note_on,0,0,1,,,,,,,,,0,,,69,70
25440,note_on,30,0,1,,,,,,,,,0,,,70,0
25440,note_on,60,0,3,,,,,,,,,0,,,55,0
25440,control_change,15,0,4,,,,,,,,,0,64,127,,
25470,note_on,30,0,1,,,,,,,,,0,,,60,60
25500,note_on,0,0,1,,,,,,,,,0,,,65,60
25500,note_on,30,0,1,,,,,,,,,0,,,60,0
25500,note_on,60,0,3,,,,,,,,,0,,,57,60
25530,note_on,0,0,1,,,,,,,,,0,,,70,70
25530,note_on,0,0,1,,,,,,,,,0,,,69,0
25530,note_on,30,0,1,,,,,,,,,0,,,65,0
25560,note_on,0,0,1,,,,,,,,,0,,,67,70
25560,note_on,60,0,3,,,,,,,,,0,,,57,0
25560,note_on,0,0,3,,,,,,,,,0,,,48,80
25560,note_on,0,0,3,,,,,,,,,0,,,48,0
25560,note_on,30,0,1,,,,,,,,,0,,,70,0
25590,note_on,30,0,1,,,,,,,,,0,,,60,60
25620,note_on,60,0,3,,,,,,,,,0,,,58,60
25620,note_on,30,0,1,,,,,,,,,0,,,60,0
25620,note_on,0,0,1,,,,,,,,,0,,,64,60
25650,note_on,30,0,1,,,,,,,,,0,,,64,0
25650,note_on,0,0,1,,,,,,,,,0,,,67,0
25650,note_on,0,0,1,,,,,,,,,0,,,72,70
25665,control_change,225,0,4,,,,,,,,,0,64,0,,
25680,note_on,30,0,1,,,,,,,,,0,,,72,0
25680,note_on,60,0,3,,,,,,,,,0,,,58,0
25680,note_on,0,0,3,,,,,,,,,0,,,48,0
25680,control_change,15,0,4,,,,,,,,,0,64,127,,
25680,note_on,0,0,1,,,,,,,,,0,,,65,70
25680,note_on,0,0,3,,,,,,,,,0,,,57,60
25680,note_on,0,0,3,,,,,,,,,0,,,53,80
25710,note_on,30,0,1,,,,,,,,,0,,,60,60
25740,note_on,0,0,1,,,,,,,,,0,,,65,60
25740,note_on,30,0,1,,,,,,,,,0,,,60,0
25770,note_on,0,0,1,,,,,,,,,0,,,69,70
25770,note_on,0,0,1,,,,,,,,,0,,,65,0
25770,note_on,30,0,1,,,,,,,,,0,,,65,0
25800,note_on,30,0,1,,,,,,,,,0,,,69,0
25800,note_on,0,0,1,,,,,,,,,0,,,72,70
25830,note_on,30,0,1,,,,,,,,,0,,,65,60
25860,note_on,30,0,1,,,,,,,,,0,,,65,0
25860,note_on,0,0,1,,,,,,,,,0,,,72,0
25860,note_on,0,0,1,,,,,,,,,0,,,73,70
25890,note_on,30,0,1,,,,,,,,,0,,,65,60
25905,control_change,225,0,4,,,,,,,,,0,64,0,,
25920,note_on,240,0,3,,,,,,,,,0,,,53,0
25920,note_on,0,0,3,,,,,,,,,0,,,57,0
25920,note_on,0,0,3,,,,,,,,,0,,,46,80
25920,control_change,15,0,4,,,,,,,,,0,64,127,,
25920,note_on,0,0,1,,,,,,,,,0,,,74,70
25920,note_on,0,0,1,,,,,,,,,0,,,73,0
25920,note_on,30,0,1,,,,,,,,,0,,,65,0
25950,note_on,30,0,1,,,,,,,,,0,,,62,60
25980,note_on,0,0,1,,,,,,,,,0,,,65,60
25980,note_on,60,0,3,,,,,,,,,0,,,53,60
25980,note_on,30,0,1,,,,,,,,,0,,,62,0
26010,note_on,30,0,1,,,,,,,,,0,,,65,0
26010,note_on,0,0,1,,,,,,,,,0,,,74,0
26010,note_on,0,0,1,,,,,,,,,0,,,74,70
26040,note_on,30,0,1,,,,,,,,,0,,,74,0
26040,note_on,0,0,1,,,,,,,,,0,,,74,70
26070,note_on,30,0,1,,,,,,,,,0,,,62,60
26100,note_on,120,0,3,,,,,,,,,0,,,53,0
26100,note_on,0,0,3,,,,,,,,,0,,,53,60
26100,note_on,30,0,1,,,,,,,,,0,,,62,0
26100,note_on,0,0,1,,,,,,,,,0,,,65,60
26130,note_on,0,0,1,,,,,,,,,0,,,74,0
26130,note_on,0,0,1,,,,,,,,,0,,,74,70
26130,note_on,30,0,1,,,,,,,,,0,,,65,0
26145,control_change,225,0,4,,,,,,,,,0,64,0,,
26160,note_on,0,0,1,,,,,,,,,0,,,72,70
26160,note_on,30,0,1,,,,,,,,,0,,,74,0
26160,note_on,0,0,3,,,,,,,,,0,,,46,0
26160,note_on,60,0,3,,,,,,,,,0,,,53,0
26160,control_change,15,0,4,,,,,,,,,0,64,127,,
26160,note_on,0,0,3,,,,,,,,,0,,,50,80
26190,note_on,30,0,1,,,,,,,,,0,,,65,60
26220,note_on,60,0,3,,,,,,,,,0,,,58,60
26220,note_on,30,0,1,,,,,,,,,0,,,65,0
26220,note_on,0,0,1,,,,,,,,,0,,,68,60
26250,note_on,30,0,1,,,,,,,,,0,,,68,0
26250,note_on,0,0,1,,,,,,,,,0,,,72,0
26250,note_on,0,0,1,,,,,,,,,0,,,70,70
26280,note_on,30,0,1,,,,,,,,,0,,,70,0
26280,note_on,0,0,1,,,,,,,,,0,,,70,70
26310,note_on,30,0,1,,,,,,,,,0,,,65,60
26340,note_on,120,0,3,,,,,,,,,0,,,58,0
26340,note_on,0,0,1,,,,,,,,,0,,,68,60
26340,note_on,30,0,1,,,,,,,,,0,,,65,0
26340,note_on,0,0,3,,,,,,,,,0,,,58,60
26370,note_on,0,0,1,,,,,,,,,0,,,72,70
26370,note_on,30,0,1,,,,,,,,,0,,,68,0
26370,note_on,0,0,1,,,,,,,,,0,,,70,0
26385,control_change,225,0,4,,,,,,,,,0,64,0,,
26400,note_on,0,0,3,,,,,,,,,0,,,50,0
26400,note_on,0,0,3,,,,,,,,,0,,,51,80
26400,control_change,15,0,4,,,,,,,,,0,64,127,,
26400,note_on,30,0,1,,,,,,,,,0,,,72,0
26400,note_on,0,0,1,,,,,,,,,0,,,70,70
26400,note_on,60,0,3,,,,,,,,,0,,,58,0
26430,note_on,30,0,1,,,,,,,,,0,,,66,59
26460,note_on,60,0,3,,,,,,,,,0,,,58,58
26460,note_on,30,0,1,,,,,,,,,0,,,66,0
26460,note_on,0,0,1,,,,,,,,,0,,,67,58
26490,note_on,30,0,1,,,,,,,,,0,,,67,0
26490,note_on,0,0,1,,,,,,,,,0,,,70,0
26490,note_on,0,0,1,,,,,,,,,0,,,72,66
26520,note_on,0,0,1,,,,,,,,,0,,,74,65
26520,note_on,30,0,1,,,,,,,,,0,,,72,0
26550,note_on,30,0,1,,,,,,,,,0,,,67,54
26580,note_on,0,0,1,,,,,,,,,0,,,70,52
26580,note_on,120,0,3,,,,,,,,,0,,,58,0
26580,note_on,30,0,1,,,,,,,,,0,,,67,0
26580,note_on,0,0,3,,,,,,,,,0,,,58,52
26610,note_on,0,0,1,,,,,,,,,0,,,75,61
26610,note_on,0,0,1,,,,,,,,,0,,,74,0
26610,note_on,30,0,1,,,,,,,,,0,,,70,0
26625,control_change,225,0,4,,,,,,,,,0,64,0,,
26640,control_change,15,0,4,,,,,,,,,0,64,127,,
26640,note_on,0,0,1,,,,,,,,,0,,,78,60
26640,note_on,30,0,1,,,,,,,,,0,,,75,0
26640,note_on,0,0,3,,,,,,,,,0,,,52,70
26640,note_on,0,0,3,,,,,,,,,0,,,51,0
26640,note_on,60,0,3,,,,,,,,,0,,,58,0
26670,note_on,30,0,1,,,,,,,,,0,,,70,48
26700,note_on,0,0,3,,,,,,,,,0,,,58,47
26700,note_on,30,0,1,,,,,,,,,0,,,70,0
26700,note_on,0,0,1,,,,,,,,,0,,,73,47
26700,note_on,60,0,3,,,,,,,,,0,,,61,47
26730,note_on,0,0,1,,,,,,,,,0,,,78,0
26730,note_on,30,0,1,,,,,,,,,0,,,73,0
26730,note_on,0,0,1,,,,,,,,,0,,,79,56
26760,note_on,30,0,1,,,,,,,,,0,,,79,0
26760,note_on,0,0,1,,,,,,,,,0,,,81,54
26790,note_on,30,0,1,,,,,,,,,0,,,70,43
26820,note_on,0,0,3,,,,,,,,,0,,,58,41
26820,note_on,0,0,3,,,,,,,,,0,,,61,41
26820,note_on,0,0,3,,,,,,,,,0,,,61,0
26820,note_on,120,0,3,,,,,,,,,0,,,58,0
26820,note_on,0,0,1,,,,,,,,,0,,,73,41
26820,note_on,30,0,1,,,,,,,,,0,,,70,0
26850,note_on,30,0,1,,,,,,,,,0,,,73,0
26850,note_on,0,0,1,,,,,,,,,0,,,81,0
26850,note_on,0,0,1,,,,,,,,,0,,,82,50
26865,control_change,225,0,4,,,,,,,,,0,64,0,,
26880,note_on,60,0,3,,,,,,,,,0,,,58,0
26880,note_on,0,0,3,,,,,,,,,0,,,61,0
26880,note_on,0,0,3,,,,,,,,,0,,,52,0
26880,note_on,0,0,3,,,,,,,,,0,,,55,60
26880,control_change,15,0,4,,,,,,,,,0,64,127,,
26880,note_on,0,0,1,,,,,,,,,0,,,72,50
26880,note_on,30,0,1,,,,,,,,,0,,,82,0
26910,note_on,30,0,1,,,,,,,,,0,,,64,40
26940,note_on,0,0,1,,,,,,,,,0,,,70,40
26940,note_on,0,0,3,,,,,,,,,0,,,58,40
26940,note_on,60,0,3,,,,,,,,,0,,,60,40
26940,note_on,30,0,1,,,,,,,,,0,,,64,0
26970,note_on,0,0,1,,,,,,,,,0,,,72,0
26970,note_on,30,0,1,,,,,,,,,0,,,70,0
26970,note_on,0,0,1,,,,,,,,,0,,,74,50
27000,note_on,30,0,1,,,,,,,,,0,,,74,0
27000,note_on,0,0,1,,,,,,,,,0,,,72,50
27030,note_on,30,0,1,,,,,,,,,0,,,64,40
27060,note_on,0,0,3,,,,,,,,,0,,,61,40
27060,note_on,30,0,1,,,,,,,,,0,,,64,0
27060,note_on,0,0,1,,,,,,,,,0,,,70,40
27060,note_on,0,0,3,,,,,,,,,0,,,60,0
27060,note_on,120,0,3,,,,,,,,,0,,,58,0
27060,note_on,0,0,3,,,,,,,,,0,,,58,40
27090,note_on,30,0,1,,,,,,,,,0,,,70,0
27090,note_on,0,0,1,,,,,,,,,0,,,72,0
27090,note_on,0,0,1,,,,,,,,,0,,,73,50
27105,control_change,225,0,4,,,,,,,,,0,64,0,,
27120,note_on,30,0,1,,,,,,,,,0,,,73,0
27120,note_on,0,0,1,,,,,,,,,0,,,74,50
27120,control_change,15,0,4,,,,,,,,,0,64,127,,
27120,note_on,60,0,3,,,,,,,,,0,,,58,0
27120,note_on,0,0,3,,,,,,,,,0,,,61,0
27120,note_on,0,0,3,,,,,,,,,0,,,55,0
27120,note_on,0,0,3,,,,,,,,,0,,,53,60
27150,note_on,30,0,1,,,,,,,,,0,,,65,40
27180,note_on,30,0,1,,,,,,,,,0,,,65,0
27180,note_on,0,0,1,,,,,,,,,0,,,70,40
27180,note_on,0,0,3,,,,,,,,,0,,,58,40
27180,note_on,60,0,3,,,,,,,,,0,,,62,40
27210,note_on,0,0,1,,,,,,,,,0,,,74,0
27210,note_on,30,0,1,,,,,,,,,0,,,70,0
27210,note_on,0,0,1,,,,,,,,,0,,,74,50
27240,note_on,60,0,3,,,,,,,,,0,,,58,0
27240,note_on,0,0,3,,,,,,,,,0,,,62,0
27240,note_on,0,0,3,,,,,,,,,0,,,63,40
27240,note_on,0,0,3,,,,,,,,,0,,,61,40
27240,note_on,30,0,1,,,,,,,,,0,,,74,0
27240,note_on,0,0,1,,,,,,,,,0,,,75,50
27270,note_on,30,0,1,,,,,,,,,0,,,65,40
27300,note_on,30,0,1,,,,,,,,,0,,,65,0
27300,note_on,0,0,3,,,,,,,,,0,,,62,40
27300,note_on,0,0,1,,,,,,,,,0,,,75,0
27300,note_on,0,0,3,,,,,,,,,0,,,65,40
27300,note_on,0,0,3,,,,,,,,,0,,,63,0
27300,note_on,60,0,3,,,,,,,,,0,,,61,0
27300,note_on,0,0,1,,,,,,,,,0,,,74,50
27330,note_on,30,0,1,,,,,,,,,0,,,74,0
27330,note_on,0,0,1,,,,,,,,,0,,,77,50
27345,control_change,225,0,4,,,,,,,,,0,64,0,,
27360,note_on,0,0,3,,,,,,,,,0,,,53,60
27360,note_on,60,0,3,,,,,,,,,0,,,62,0
27360,note_on,0,0,3,,,,,,,,,0,,,65,0
27360,control_change,15,0,4,,,,,,,,,0,64,127,,
27360,note_on,0,0,3,,,,,,,,,0,,,53,0
27360,note_on,30,0,1,,,,,,,,,0,,,77,0
27360,note_on,0,0,1,,,,,,,,,0,,,77,50
27390,note_on,30,0,1,,,,,,,,,0,,,65,40
27420,note_on,30,0,1,,,,,,,,,0,,,65,0
27420,note_on,0,0,1,,,,,,,,,0,,,72,40
27420,note_on,60,0,3,,,,,,,,,0,,,63,40
27420,note_on,0,0,3,,,,,,,,,0,,,60,40
27450,note_on,30,0,1,,,,,,,,,0,,,72,0
27450,note_on,0,0,1,,,,,,,,,0,,,77,0
27450,note_on,0,0,1,,,,,,,,,0,,,75,50
27480,note_on,30,0,1,,,,,,,,,0,,,75,0
27480,note_on,0,0,3,,,,,,,,,0,,,63,0
27480,note_on,60,0,3,,,,,,,,,0,,,60,0
27480,note_on,0,0,1,,,,,,,,,0,,,74,50
27480,note_on,0,0,3,,,,,,,,,0,,,62,40
27480,note_on,0,0,3,,,,,,,,,0,,,58,40
27510,note_on,30,0,1,,,,,,,,,0,,,65,40
27540,note_on,0,0,3,,,,,,,,,0,,,53,40
27540,note_on,0,0,3,,,,,,,,,0,,,62,0
27540,note_on,60,0,3,,,,,,,,,0,,,58,0
27540,note_on,0,0,3,,,,,,,,,0,,,60,40
27540,note_on,0,0,1,,,,,,,,,0,,,69,40
27540,note_on,30,0,1,,,,,,,,,0,,,65,0
27570,note_on,0,0,1,,,,,,,,,0,,,74,0
27570,note_on,0,0,1,,,,,,,,,0,,,72,50
27570,note_on,30,0,1,,,,,,,,,0,,,69,0
27585,control_change,225,0,4,,,,,,,,,0,64,0,,
27600,note_on,60,0,3,,,,,,,,,0,,,60,0
27600,note_on,0,0,3,,,,,,,,,0,,,53,0
27600,note_on,0,0,3,,,,,,,,,0,,,58,40
27600,note_on,0,0,3,,,,,,,,,0,,,50,40
27600,note_on,0,0,3,,,,,,,,,0,,,46,60
27600,note_on,0,0,3,,,,,,,,,0,,,53,0
27600,control_change,15,0,4,,,,,,,,,0,64,127,,
27600,note_on,30,0,1,,,,,,,,,0,,,72,0
27600,note_on,0,0,1,,,,,,,,,0,,,70,50
27630,note_on,30,0,1,,,,,,,,,0,,,62,40
27660,note_on,30,0,1,,,,,,,,,0,,,62,0
27660,note_on,0,0,1,,,,,,,,,0,,,65,40
27690,note_on,30,0,1,,,,,,,,,0,,,65,0
27690,note_on,0,0,1,,,,,,,,,0,,,70,0
27690,note_on,0,0,1,,,,,,,,,0,,,69,50
27720,note_on,0,0,1,,,,,,,,,0,,,70,50
27720,note_on,120,0,3,,,,,,,,,0,,,46,0
27720,note_on,0,0,3,,,,,,,,,0,,,50,0
27720,note_on,0,0,3,,,,,,,,,0,,,58,0
27720,note_on,30,0,1,,,,,,,,,0,,,69,0
27750,note_on,30,0,1,,,,,,,,,0,,,62,40
27780,note_on,60,0,3,,,,,,,,,0,,,50,40
27780,note_on,30,0,1,,,,,,,,,0,,,62,0
27780,note_on,0,0,1,,,,,,,,,0,,,65,40
27810,note_on,30,0,1,,,,,,,,,0,,,65,0
27810,note_on,0,0,1,,,,,,,,,0,,,70,0
27810,note_on,0,0,1,,,,,,,,,0,,,72,50
27825,control_change,225,0,4,,,,,,,,,0,64,0,,
27840,control_change,15,0,4,,,,,,,,,0,64,127,,
27840,note_on,30,0,1,,,,,,,,,0,,,72,0
27840,note_on,0,0,1,,,,,,,,,0,,,74,50
27840,note_on,60,0,3,,,,,,,,,0,,,50,0
27840,note_on,0,0,3,,,,,,,,,0,,,50,60
27870,note_on,30,0,1,,,,,,,,,0,,,66,40
27900,note_on,60,0,3,,,,,,,,,0,,,60,40
27900,note_on,30,0,1,,,,,,,,,0,,,66,0
27900,note_on,0,0,1,,,,,,,,,0,,,69,40
27930,note_on,0,0,1,,,,,,,,,0,,,74,0
27930,note_on,0,0,1,,,,,,,,,0,,,75,50
27930,note_on,30,0,1,,,,,,,,,0,,,69,0
27960,note_on,30,0,1,,,,,,,,,0,,,75,0
27960,note_on,0,0,1,,,,,,,,,0,,,74,50
27990,note_on,30,0,1,,,,,,,,,0,,,66,40
28020,note_on,0,0,1,,,,,,,,,0,,,69,40
28020,note_on,30,0,1,,,,,,,,,0,,,66,0
28020,note_on,120,0,3,,,,,,,,,0,,,60,0
28020,note_on,0,0,3,,,,,,,,,0,,,57,40
28050,note_on,0,0,1,,,,,,,,,0,,,74,0
28050,note_on,30,0,1,,,,,,,,,0,,,69,0
28050,note_on,0,0,1,,,,,,,,,0,,,72,50
28065,control_change,225,0,4,,,,,,,,,0,64,0,,
28080,note_on,0,0,3,,,,,,,,,0,,,50,0
28080,note_on,0,0,3,,,,,,,,,0,,,43,60
28080,note_on,30,0,1,,,,,,,,,0,,,72,0
28080,control_change,15,0,4,,,,,,,,,0,64,127,,
28080,note_on,0,0,1,,,,,,,,,0,,,72,50
28080,note_on,60,0,3,,,,,,,,,0,,,57,0
28110,note_on,30,0,1,,,,,,,,,0,,,65,40
28140,note_on,0,0,3,,,,,,,,,0,,,55,40
28140,note_on,30,0,1,,,,,,,,,0,,,65,0
28140,note_on,0,0,1,,,,,,,,,0,,,67,40
28140,note_on,0,0,3,,,,,,,,,0,,,62,40
28140,note_on,60,0,3,,,,,,,,,0,,,43,0
28170,note_on,0,0,1,,,,,,,,,0,,,72,0
28170,note_on,0,0,1,,,,,,,,,0,,,71,50
28170,note_on,30,0,1,,,,,,,,,0,,,67,0
28200,note_on,0,0,1,,,,,,,,,0,,,72,50
28200,note_on,0,0,3,,,,,,,,,0,,,56,40
28200,note_on,30,0,1,,,,,,,,,0,,,71,0
28200,note_on,0,0,3,,,,,,,,,0,,,62,0
28200,note_on,0,0,3,,,,,,,,,0,,,60,40
28200,note_on,60,0,3,,,,,,,,,0,,,55,0
28230,note_on,30,0,1,,,,,,,,,0,,,65,40
28260,note_on,60,0,3,,,,,,,,,0,,,56,0
28260,note_on,30,0,1,,,,,,,,,0,,,65,0
28260,note_on,0,0,1,,,,,,,,,0,,,67,40
28260,note_on,0,0,3,,,,,,,,,0,,,59,40
28260,note_on,0,0,3,,,,,,,,,0,,,55,40
28260,note_on,0,0,3,,,,,,,,,0,,,60,0
28290,note_on,30,0,1,,,,,,,,,0,,,67,0
28290,note_on,0,0,1,,,,,,,,,0,,,72,0
28290,note_on,0,0,1,,,,,,,,,0,,,74,50
28305,control_change,225,0,4,,,,,,,,,0,64,0,,
28320,note_on,0,0,3,,,,,,,,,0,,,55,0
28320,note_on,60,0,3,,,,,,,,,0,,,59,0
28320,note_on,30,0,1,,,,,,,,,0,,,74,0
28320,note_on,0,0,1,,,,,,,,,0,,,79,50
28320,control_change,15,0,4,,,,,,,,,0,64,127,,
28320,note_on,0,0,3,,,,,,,,,0,,,43,60
28350,note_on,30,0,1,,,,,,,,,0,,,71,40
28380,note_on,0,0,1,,,,,,,,,0,,,74,41
28380,note_on,30,0,1,,,,,,,,,0,,,71,0
28380,note_on,0,0,3,,,,,,,,,0,,,55,41
28380,note_on,0,0,3,,,,,,,,,0,,,65,41
28380,note_on,60,0,3,,,,,,,,,0,,,43,0
28410,note_on,30,0,1,,,,,,,,,0,,,74,0
28410,note_on,0,0,1,,,,,,,,,0,,,79,0
28410,note_on,0,0,1,,,,,,,,,0,,,80,51
28440,note_on,30,0,1,,,,,,,,,0,,,80,0
28440,note_on,0,0,1,,,,,,,,,0,,,79,52
28470,note_on,30,0,1,,,,,,,,,0,,,71,43
28500,note_on,0,0,1,,,,,,,,,0,,,74,43
28500,note_on,30,0,1,,,,,,,,,0,,,71,0
28500,note_on,0,0,3,,,,,,,,,0,,,62,43
28500,note_on,120,0,3,,,,,,,,,0,,,65,0
28530,note_on,30,0,1,,,,,,,,,0,,,74,0
28530,note_on,0,0,1,,,,,,,,,0,,,79,0
28530,note_on,0,0,1,,,,,,,,,0,,,77,54
28545,control_change,225,0,4,,,,,,,,,0,64,0,,
28560,note_on,60,0,3,,,,,,,,,0,,,62,0
28560,note_on,0,0,3,,,,,,,,,0,,,55,0
28560,note_on,0,0,3,,,,,,,,,0,,,48,65
28560,control_change,15,0,4,,,,,,,,,0,64,127,,
28560,note_on,30,0,1,,,,,,,,,0,,,77,0
28560,note_on,0,0,1,,,,,,,,,0,,,77,55
28590,note_on,30,0,1,,,,,,,,,0,,,67,45
28620,note_on,0,0,1,,,,,,,,,0,,,70,46
28620,note_on,30,0,1,,,,,,,,,0,,,67,0
28620,note_on,60,0,3,,,,,,,,,0,,,60,46
28650,note_on,0,0,1,,,,,,,,,0,,,77,0
28650,note_on,30,0,1,,,,,,,,,0,,,70,0
28650,note_on,0,0,1,,,,,,,,,0,,,76,57
28680,note_on,30,0,1,,,,,,,,,0,,,76,0
28680,note_on,0,0,1,,,,,,,,,0,,,74,57
28710,note_on,30,0,1,,,,,,,,,0,,,64,48
28740,note_on,0,0,1,,,,,,,,,0,,,70,49
28740,note_on,30,0,1,,,,,,,,,0,,,64,0
28740,note_on,120,0,3,,,,,,,,,0,,,48,0
28740,note_on,0,0,3,,,,,,,,,0,,,55,69
28770,note_on,0,0,1,,,,,,,,,0,,,72,59
28770,note_on,0,0,1,,,,,,,,,0,,,74,0
28770,note_on,30,0,1,,,,,,,,,0,,,70,0
28785,control_change,225,0,4,,,,,,,,,0,64,0,,
28800,note_on,30,0,1,,,,,,,,,0,,,72,0
28800,note_on,0,0,1,,,,,,,,,0,,,72,60
28800,note_on,60,0,3,,,,,,,,,0,,,55,0
28800,note_on,0,0,3,,,,,,,,,0,,,60,0
28800,control_change,15,0,4,,,,,,,,,0,64,127,,
28800,note_on,0,0,3,,,,,,,,,0,,,57,70
28830,note_on,30,0,1,,,,,,,,,0,,,65,51
28860,note_on,60,0,3,,,,,,,,,0,,,60,51
28860,note_on,30,0,1,,,,,,,,,0,,,65,0
28860,note_on,0,0,1,,,,,,,,,0,,,69,51
28890,note_on,0,0,1,,,,,,,,,0,,,72,0
28890,note_on,0,0,1,,,,,,,,,0,,,74,62
28890,note_on,30,0,1,,,,,,,,,0,,,69,0
28920,note_on,0,0,1,,,,,,,,,0,,,76,63
28920,note_on,0,0,3,,,,,,,,,0,,,53,73
28920,note_on,60,0,3,,,,,,,,,0,,,57,0
28920,note_on,30,0,1,,,,,,,,,0,,,74,0
28950,note_on,30,0,1,,,,,,,,,0,,,69,53
28980,note_on,0,0,3,,,,,,,,,0,,,60,54
28980,note_on,60,0,3,,,,,,,,,0,,,60,0
28980,note_on,30,0,1,,,,,,,,,0,,,69,0
28980,note_on,0,0,1,,,,,,,,,0,,,72,54
29010,note_on,30,0,1,,,,,,,,,0,,,72,0
29010,note_on,0,0,1,,,,,,,,,0,,,77,65
29010,note_on,0,0,1,,,,,,,,,0,,,76,0
29025,control_change,225,0,4,,,,,,,,,0,64,0,,
29040,note_on,30,0,1,,,,,,,,,0,,,77,0
29040,control_change,15,0,4,,,,,,,,,0,64,127,,
29040,note_on,0,0,1,,,,,,,,,0,,,77,65
29040,note_on,0,0,3,,,,,,,,,0,,,46,75
29040,note_on,0,0,3,,,,,,,,,0,,,53,0
29040,note_on,60,0,3,,,,,,,,,0,,,60,0
29070,note_on,30,0,1,,,,,,,,,0,,,65,56
29100,note_on,0,0,3,,,,,,,,,0,,,58,57
29100,note_on,30,0,1,,,,,,,,,0,,,65,0
29100,note_on,0,0,1,,,,,,,,,0,,,70,57
29100,note_on,0,0,3,,,,,,,,,0,,,62,57
29100,note_on,60,0,3,,,,,,,,,0,,,46,0
29130,note_on,0,0,1,,,,,,,,,0,,,74,67
29130,note_on,30,0,1,,,,,,,,,0,,,70,0
29130,note_on,0,0,1,,,,,,,,,0,,,77,0
29160,note_on,0,0,3,,,,,,,,,0,,,60,58
29160,note_on,0,0,3,,,,,,,,,0,,,62,0
29160,note_on,30,0,1,,,,,,,,,0,,,74,0
29160,note_on,60,0,3,,,,,,,,,0,,,58,0
29160,note_on,0,0,3,,,,,,,,,0,,,57,58
29160,note_on,0,0,1,,,,,,,,,0,,,72,68
29190,note_on,30,0,1,,,,,,,,,0,,,66,59
29220,note_on,0,0,3,,,,,,,,,0,,,58,59
29220,note_on,0,0,3,,,,,,,,,0,,,57,0
29220,note_on,60,0,3,,,,,,,,,0,,,60,0
29220,note_on,0,0,3,,,,,,,,,0,,,55,59
29220,note_on,30,0,1,,,,,,,,,0,,,66,0
29220,note_on,0,0,1,,,,,,,,,0,,,67,59
29250,note_on,30,0,1,,,,,,,,,0,,,67,0
29250,note_on,0,0,1,,,,,,,,,0,,,72,0
29250,note_on,0,0,1,,,,,,,,,0,,,70,70
29265,control_change,225,0,4,,,,,,,,,0,64,0,,
29280,control_change,15,0,4,,,,,,,,,0,64,127,,
29280,note_on,0,0,3,,,,,,,,,0,,,48,80
29280,note_on,0,0,3,,,,,,,,,0,,,58,0
29280,note_on,0,0,1,,,,,,,,,0,,,69,70
29280,note_on,30,0,1,,,,,,,,,0,,,70,0
29280,note_on,60,0,3,,,,,,,,,0,,,55,0
29310,note_on,30,0,1,,,,,,,,,0,,,60,60
29340,note_on,60,0,3,,,,,,,,,0,,,57,60
29340,note_on,30,0,1,,,,,,,,,0,,,60,0
29340,note_on,0,0,1,,,,,,,,,0,,,65,60
29370,note_on,0,0,1,,,,,,,,,0,,,70,70
29370,note_on,30,0,1,,,,,,,,,0,,,65,0
29370,note_on,0,0,1,,,,,,,,,0,,,69,0
29400,note_on,30,0,1,,,,,,,,,0,,,70,0
29400,note_on,0,0,1,,,,,,,,,0,,,67,70
29400,note_on,60,0,3,,,,,,,,,0,,,57,0
29400,note_on,0,0,3,,,,,,,,,0,,,48,0
29400,note_on,0,0,3,,,,,,,,,0,,,48,80
29430,note_on,30,0,1,,,,,,,,,0,,,60,60
29460,note_on,60,0,3,,,,,,,,,0,,,58,60
29460,note_on,0,0,1,,,,,,,,,0,,,64,60
29460,note_on,30,0,1,,,,,,,,,0,,,60,0
29490,note_on,0,0,1,,,,,,,,,0,,,72,70
29490,note_on,30,0,1,,,,,,,,,0,,,64,0
29490,note_on,0,0,1,,,,,,,,,0,,,67,0
29505,control_change,225,0,4,,,,,,,,,0,64,0,,
29520,note_on,0,0,3,,,,,,,,,0,,,53,80
29520,note_on,60,0,3,,,,,,,,,0,,,58,0
29520,control_change,15,0,4,,,,,,,,,0,64,127,,
29520,note_on,0,0,3,,,,,,,,,0,,,57,60
29520,note_on,0,0,3,,,,,,,,,0,,,48,0
29520,note_on,0,0,1,,,,,,,,,0,,,65,70
29520,note_on,30,0,1,,,,,,,,,0,,,72,0
29550,note_on,30,0,1,,,,,,,,,0,,,60,60
29580,note_on,0,0,1,,,,,,,,,0,,,65,60
29580,note_on,30,0,1,,,,,,,,,0,,,60,0
29610,note_on,0,0,1,,,,,,,,,0,,,69,70
29610,note_on,0,0,1,,,,,,,,,0,,,65,0
29610,note_on,30,0,1,,,,,,,,,0,,,65,0
29640,note_on,0,0,1,,,,,,,,,0,,,72,70
29640,note_on,30,0,1,,,,,,,,,0,,,69,0
29670,note_on,30,0,1,,,,,,,,,0,,,65,60
29700,note_on,0,0,1,,,,,,,,,0,,,72,0
29700,note_on,0,0,1,,,,,,,,,0,,,73,70
29700,note_on,30,0,1,,,,,,,,,0,,,65,0
29730,note_on,30,0,1,,,,,,,,,0,,,65,60
29745,control_change,225,0,4,,,,,,,,,0,64,0,,
29760,note_on,0,0,3,,,,,,,,,0,,,57,0
29760,note_on,0,0,3,,,,,,,,,0,,,46,80
29760,note_on,0,0,1,,,,,,,,,0,,,74,70
29760,note_on,30,0,1,,,,,,,,,0,,,65,0
29760,control_change,15,0,4,,,,,,,,,0,64,127,,
29760,note_on,240,0,3,,,,,,,,,0,,,53,0
29760,note_on,0,0,1,,,,,,,,,0,,,73,0
29790,note_on,30,0,1,,,,,,,,,0,,,62,60
29820,note_on,60,0,3,,,,,,,,,0,,,53,60
29820,note_on,30,0,1,,,,,,,,,0,,,62,0
29820,note_on,0,0,1,,,,,,,,,0,,,65,60
29850,note_on,0,0,1,,,,,,,,,0,,,74,0
29850,note_on,0,0,1,,,,,,,,,0,,,74,70
29850,note_on,30,0,1,,,,,,,,,0,,,65,0
29880,note_on,0,0,1,,,,,,,,,0,,,74,70
29880,note_on,30,0,1,,,,,,,,,0,,,74,0
29910,note_on,30,0,1,,,,,,,,,0,,,62,60
29940,note_on,120,0,3,,,,,,,,,0,,,53,0
29940,note_on,0,0,1,,,,,,,,,0,,,65,60
29940,note_on,30,0,1,,,,,,,,,0,,,62,0
29940,note_on,0,0,3,,,,,,,,,0,,,53,60
29970,note_on,0,0,1,,,,,,,,,0,,,74,70
29970,note_on,0,0,1,,,,,,,,,0,,,74,0
29970,note_on,30,0,1,,,,,,,,,0,,,65,0
29985,control_change,225,0,4,,,,,,,,,0,64,0,,
30000,note_on,0,0,3,,,,,,,,,0,,,50,80
30000,note_on,0,0,3,,,,,,,,,0,,,46,0
30000,note_on,60,0,3,,,,,,,,,0,,,53,0
30000,note_on,0,0,1,,,,,,,,,0,,,72,70
30000,note_on,30,0,1,,,,,,,,,0,,,74,0
30000,control_change,15,0,4,,,,,,,,,0,64,127,,
30030,note_on,30,0,1,,,,,,,,,0,,,65,60
30060,note_on,30,0,1,,,,,,,,,0,,,65,0
30060,note_on,60,0,3,,,,,,,,,0,,,58,60
30060,note_on,0,0,1,,,,,,,,,0,,,68,60
30090,note_on,30,0,1,,,,,,,,,0,,,68,0
30090,note_on,0,0,1,,,,,,,,,0,,,72,0
30090,note_on,0,0,1,,,,,,,,,0,,,70,70
30120,note_on,30,0,1,,,,,,,,,0,,,70,0
30120,note_on,0,0,1,,,,,,,,,0,,,70,70
30150,note_on,30,0,1,,,,,,,,,0,,,65,60
30180,note_on,30,0,1,,,,,,,,,0,,,65,0
30180,note_on,0,0,1,,,,,,,,,0,,,68,60
30180,note_on,120,0,3,,,,,,,,,0,,,58,0
30180,note_on,0,0,3,,,,,,,,,0,,,58,60
30210,note_on,0,0,1,,,,,,,,,0,,,70,0
30210,note_on,30,0,1,,,,,,,,,0,,,68,0
30210,note_on,0,0,1,,,,,,,,,0,,,72,70
30225,control_change,225,0,4,,,,,,,,,0,64,0,,
30240,note_on,0,0,3,,,,,,,,,0,,,50,0
30240,note_on,60,0,3,,,,,,,,,0,,,58,0
30240,note_on,30,0,1,,,,,,,,,0,,,72,0
30240,note_on,0,0,1,,,,,,,,,0,,,70,70
30240,control_change,15,0,4,,,,,,,,,0,64,127,,
30240,note_on,0,0,3,,,,,,,,,0,,,51,80
30270,note_on,30,0,1,,,,,,,,,0,,,66,59
30300,note_on,60,0,3,,,,,,,,,0,,,58,58
30300,note_on,30,0,1,,,,,,,,,0,,,66,0
30300,note_on,0,0,1,,,,,,,,,0,,,67,58
30330,note_on,30,0,1,,,,,,,,,0,,,67,0
30330,note_on,0,0,1,,,,,,,,,0,,,70,0
30330,note_on,0,0,1,,,,,,,,,0,,,72,66
30360,note_on,0,0,1,,,,,,,,,0,,,74,65
30360,note_on,30,0,1,,,,,,,,,0,,,72,0
30390,note_on,30,0,1,,,,,,,,,0,,,67,54
30420,note_on,120,0,3,,,,,,,,,0,,,58,0
30420,note_on,0,0,3,,,,,,,,,0,,,58,52
30420,note_on,30,0,1,,,,,,,,,0,,,67,0
30420,note_on,0,0,1,,,,,,,,,0,,,70,52
30450,note_on,30,0,1,,,,,,,,,0,,,70,0
30450,note_on,0,0,1,,,,,,,,,0,,,74,0
30450,note_on,0,0,1,,,,,,,,,0,,,75,61
30465,control_change,225,0,4,,,,,,,,,0,64,0,,
30480,note_on,30,0,1,,,,,,,,,0,,,75,0
30480,note_on,0,0,1,,,,,,,,,0,,,78,60
30480,note_on,60,0,3,,,,,,,,,0,,,58,0
30480,note_on,0,0,3,,,,,,,,,0,,,51,0
30480,note_on,0,0,3,,,,,,,,,0,,,52,70
30480,control_change,15,0,4,,,,,,,,,0,64,127,,
30510,note_on,30,0,1,,,,,,,,,0,,,70,48
30540,note_on,30,0,1,,,,,,,,,0,,,70,0
30540,note_on,0,0,1,,,,,,,,,0,,,73,47
30540,note_on,60,0,3,,,,,,,,,0,,,61,47
30540,note_on,0,0,3,,,,,,,,,0,,,58,47
30570,note_on,30,0,1,,,,,,,,,0,,,73,0
30570,note_on,0,0,1,,,,,,,,,0,,,78,0
30570,note_on,0,0,1,,,,,,,,,0,,,79,56
30600,note_on,30,0,1,,,,,,,,,0,,,79,0
30600,note_on,0,0,1,,,,,,,,,0,,,81,54
30630,note_on,30,0,1,,,,,,,,,0,,,70,43
30660,note_on,0,0,3,,,,,,,,,0,,,61,0
30660,note_on,0,0,1,,,,,,,,,0,,,73,41
30660,note_on,0,0,3,,,,,,,,,0,,,61,41
30660,note_on,0,0,3,,,,,,,,,0,,,58,41
30660,note_on,30,0,1,,,,,,,,,0,,,70,0
30660,note_on,120,0,3,,,,,,,,,0,,,58,0
30690,note_on,0,0,1,,,,,,,,,0,,,82,50
30690,note_on,30,0,1,,,,,,,,,0,,,73,0
30690,note_on,0,0,1,,,,,,,,,0,,,81,0
30705,control_change,225,0,4,,,,,,,,,0,64,0,,
30720,note_on,30,0,1,,,,,,,,,0,,,82,0
30720,control_change,15,0,4,,,,,,,,,0,64,127,,
30720,note_on,0,0,1,,,,,,,,,0,,,72,50
30720,note_on,60,0,3,,,,,,,,,0,,,58,0
30720,note_on,0,0,3,,,,,,,,,0,,,61,0
30720,note_on,0,0,3,,,,,,,,,0,,,52,0
30720,note_on,0,0,3,,,,,,,,,0,,,55,60
30750,note_on,30,0,1,,,,,,,,,0,,,64,40
30780,note_on,60,0,3,,,,,,,,,0,,,60,40
30780,note_on,0,0,3,,,,,,,,,0,,,58,40
30780,note_on,0,0,1,,,,,,,,,0,,,70,40
30780,note_on,30,0,1,,,,,,,,,0,,,64,0
30810,note_on,30,0,1,,,,,,,,,0,,,70,0
30810,note_on,0,0,1,,,,,,,,,0,,,72,0
30810,note_on,0,0,1,,,,,,,,,0,,,74,50
30840,note_on,30,0,1,,,,,,,,,0,,,74,0
30840,note_on,0,0,1,,,,,,,,,0,,,72,50
30870,note_on,30,0,1,,,,,,,,,0,,,64,40
30900,note_on,0,0,1,,,,,,,,,0,,,70,40
30900,note_on,0,0,3,,,,,,,,,0,,,58,40
30900,note_on,0,0,3,,,,,,,,,0,,,61,40
30900,note_on,0,0,3,,,,,,,,,0,,,60,0
30900,note_on,120,0,3,,,,,,,,,0,,,58,0
30900,note_on,30,0,1,,,,,,,,,0,,,64,0
30930,note_on,30,0,1,,,,,,,,,0,,,70,0
30930,note_on,0,0,1,,,,,,,,,0,,,72,0
30930,note_on,0,0,1,,,,,,,,,0,,,73,50
30945,control_change,225,0,4,,,,,,,,,0,64,0,,
30960,control_change,15,0,4,,,,,,,,,0,64,127,,
30960,note_on,0,0,3,,,,,,,,,0,,,61,0
30960,note_on,60,0,3,,,,,,,,,0,,,58,0
30960,note_on,0,0,3,,,,,,,,,0,,,55,0
30960,note_on,30,0,1,,,,,,,,,0,,,73,0
30960,note_on,0,0,1,,,,,,,,,0,,,74,50
30960,note_on,0,0,3,,,,,,,,,0,,,53,60
30990,note_on,30,0,1,,,,,,,,,0,,,65,40
31020,note_on,0,0,3,,,,,,,,,0,,,58,40
31020,note_on,60,0,3,,,,,,,,,0,,,62,40
31020,note_on,0,0,1,,,,,,,,,0,,,70,40
31020,note_on,30,0,1,,,,,,,,,0,,,65,0
31050,note_on,0,0,1,,,,,,,,,0,,,74,50
31050,note_on,0,0,1,,,,,,,,,0,,,74,0
31050,note_on,30,0,1,,,,,,,,,0,,,70,0
31080,note_on,0,0,1,,,,,,,,,0,,,75,50
31080,note_on,30,0,1,,,,,,,,,0,,,74,0
31080,note_on,0,0,3,,,,,,,,,0,,,61,40
31080,note_on,0,0,3,,,,,,,,,0,,,63,40
31080,note_on,0,0,3,,,,,,,,,0,,,62,0
31080,note_on,60,0,3,,,,,,,,,0,,,58,0
31110,note_on,30,0,1,,,,,,,,,0,,,65,40
31140,note_on,0,0,1,,,,,,,,,0,,,75,0
31140,note_on,0,0,1,,,,,,,,,0,,,74,50
31140,note_on,60,0,3,,,,,,,,,0,,,61,0
31140,note_on,0,0,3,,,,,,,,,0,,,63,0
31140,note_on,0,0,3,,,,,,,,,0,,,65,40
31140,note_on,0,0,3,,,,,,,,,0,,,62,40
31140,note_on,30,0,1,,,,,,,,,0,,,65,0
31170,note_on,0,0,1,,,,,,,,,0,,,77,50
31170,note_on,30,0,1,,,,,,,,,0,,,74,0
31185,control_change,225,0,4,,,,,,,,,0,64,0,,
31200,note_on,30,0,1,,,,,,,,,0,,,77,0
31200,note_on,0,0,3,,,,,,,,,0,,,65,0
31200,note_on,0,0,3,,,,,,,,,0,,,53,0
31200,note_on,0,0,3,,,,,,,,,0,,,53,60
31200,note_on,60,0,3,,,,,,,,,0,,,62,0
31200,note_on,0,0,1,,,,,,,,,0,,,77,50
31200,control_change,15,0,4,,,,,,,,,0,64,127,,
31230,note_on,30,0,1,,,,,,,,,0,,,65,40
31260,note_on,30,0,1,,,,,,,,,0,,,65,0
31260,note_on,0,0,3,,,,,,,,,0,,,60,40
31260,note_on,0,0,1,,,,,,,,,0,,,72,40
31260,note_on,60,0,3,,,,,,,,,0,,,63,40
31290,note_on,30,0,1,,,,,,,,,0,,,72,0
31290,note_on,0,0,1,,,,,,,,,0,,,77,0
31290,note_on,0,0,1,,,,,,,,,0,,,75,50
31320,note_on,0,0,3,,,,,,,,,0,,,62,40
31320,note_on,0,0,3,,,,,,,,,0,,,63,0
31320,note_on,60,0,3,,,,,,,,,0,,,60,0
31320,note_on,30,0,1,,,,,,,,,0,,,75,0
31320,note_on,0,0,1,,,,,,,,,0,,,74,50
31320,note_on,0,0,3,,,,,,,,,0,,,58,40
31350,note_on,30,0,1,,,,,,,,,0,,,65,40
31380,note_on,0,0,1,,,,,,,,,0,,,69,40
31380,note_on,60,0,3,,,,,,,,,0,,,58,0
31380,note_on,0,0,3,,,,,,,,,0,,,53,40
31380,note_on,0,0,3,,,,,,,,,0,,,60,40
31380,note_on,0,0,3,,,,,,,,,0,,,62,0
31380,note_on,30,0,1,,,,,,,,,0,,,65,0
31410,note_on,30,0,1,,,,,,,,,0,,,69,0
31410,note_on,0,0,1,,,,,,,,,0,,,74,0
31410,note_on,0,0,1,,,,,,,,,0,,,72,50
31425,control_change,225,0,4,,,,,,,,,0,64,0,,
31440,control_change,15,0,4,,,,,,,,,0,64,127,,
31440,note_on,0,0,3,,,,,,,,,0,,,46,60
31440,note_on,0,0,3,,,,,,,,,0,,,50,40
31440,note_on,30,0,1,,,,,,,,,0,,,72,0
31440,note_on,0,0,3,,,,,,,,,0,,,53,0
31440,note_on,0,0,3,,,,,,,,,0,,,53,0
31440,note_on,60,0,3,,,,,,,,,0,,,60,0
31440,note_on,0,0,1,,,,,,,,,0,,,70,50
31440,note_on,0,0,3,,,,,,,,,0,,,58,40
31470,note_on,30,0,1,,,,,,,,,0,,,62,40
31500,note_on,0,0,1,,,,,,,,,0,,,65,40
31500,note_on,30,0,1,,,,,,,,,0,,,62,0
31530,note_on,30,0,1,,,,,,,,,0,,,65,0
31530,note_on,0,0,1,,,,,,,,,0,,,70,0
31530,note_on,0,0,1,,,,,,,,,0,,,72,50
31560,note_on,120,0,3,,,,,,,,,0,,,46,0
31560,note_on,0,0,3,,,,,,,,,0,,,50,0
31560,note_on,0,0,3,,,,,,,,,0,,,58,0
31560,note_on,30,0,1,,,,,,,,,0,,,72,0
31560,note_on,0,0,1,,,,,,,,,0,,,70,50
31590,note_on,30,0,1,,,,,,,,,0,,,62,40
31620,note_on,30,0,1,,,,,,,,,0,,,62,0
31620,note_on,60,0,3,,,,,,,,,0,,,58,40
31620,note_on,0,0,1,,,,,,,,,0,,,65,40
31650,note_on,30,0,1,,,,,,,,,0,,,65,0
31650,note_on,0,0,1,,,,,,,,,0,,,70,0
31650,note_on,0,0,1,,,,,,,,,0,,,74,50
31665,control_change,225,0,4,,,,,,,,,0,64,0,,
31680,note_on,60,0,3,,,,,,,,,0,,,58,0
31680,control_change,15,0,4,,,,,,,,,0,64,127,,
31680,set_tempo,15360,1,0,,,,,,653666,,,,,,,
31680,note_on,0,0,3,,,,,,,,,0,,,53,60
31680,note_on,0,0,3,,,,,,,,,0,,,62,40
31680,note_on,30,0,1,,,,,,,,,0,,,74,0
31680,note_on,0,0,1,,,,,,,,,0,,,77,50
31694,set_tempo,14,1,0,,,,,,655809,,,,,,,
31701,set_tempo,7,1,0,,,,,,657967,,,,,,,
31710,note_on,30,0,1,,,,,,,,,0,,,65,40
31715,set_tempo,14,1,0,,,,,,660139,,,,,,,
31722,set_tempo,7,1,0,,,,,,662325,,,,,,,
31729,set_tempo,7,1,0,,,,,,664525,,,,,,,
31740,note_on,0,0,3,,,,,,,,,0,,,60,40
31740,note_on,0,0,3,,,,,,,,,0,,,63,40
31740,note_on,60,0,3,,,,,,,,,0,,,62,0
31740,note_on,30,0,1,,,,,,,,,0,,,65,0
31740,note_on,0,0,1,,,,,,,,,0,,,72,40
31743,set_tempo,14,1,0,,,,,,666741,,,,,,,
31750,set_tempo,7,1,0,,,,,,668971,,,,,,,
31764,set_tempo,14,1,0,,,,,,671216,,,,,,,
31770,note_on,0,0,1,,,,,,,,,0,,,77,0
31770,note_on,30,0,1,,,,,,,,,0,,,72,0
31770,note_on,0,0,1,,,,,,,,,0,,,75,50
31771,set_tempo,7,1,0,,,,,,673476,,,,,,,
31778,set_tempo,7,1,0,,,,,,675752,,,,,,,
31792,set_tempo,14,1,0,,,,,,678043,,,,,,,
31800,note_on,30,0,1,,,,,,,,,0,,,75,0
31800,note_on,0,0,3,,,,,,,,,0,,,58,40
31800,note_on,0,0,3,,,,,,,,,0,,,62,40
31800,note_on,0,0,3,,,,,,,,,0,,,63,0
31800,note_on,60,0,3,,,,,,,,,0,,,60,0
31800,note_on,0,0,1,,,,,,,,,0,,,74,50
31800,set_tempo,8,1,0,,,,,,680349,,,,,,,
31814,set_tempo,14,1,0,,,,,,682672,,,,,,,
31821,set_tempo,7,1,0,,,,,,685010,,,,,,,
31828,set_tempo,7,1,0,,,,,,687364,,,,,,,
31830,note_on,30,0,1,,,,,,,,,0,,,65,40
31842,set_tempo,14,1,0,,,,,,689734,,,,,,,
31849,set_tempo,7,1,0,,,,,,692121,,,,,,,
31856,set_tempo,7,1,0,,,,,,694525,,,,,,,
31860,note_on,0,0,3,,,,,,,,,0,,,62,0
31860,note_on,0,0,1,,,,,,,,,0,,,69,40
31860,note_on,30,0,1,,,,,,,,,0,,,65,0
31860,note_on,60,0,3,,,,,,,,,0,,,58,0
31860,note_on,0,0,3,,,,,,,,,0,,,53,40
31860,note_on,0,0,3,,,,,,,,,0,,,60,40
31870,set_tempo,14,1,0,,,,,,696945,,,,,,,
31877,set_tempo,7,1,0,,,,,,699382,,,,,,,
31890,note_on,30,0,1,,,,,,,,,0,,,69,0
31890,note_on,0,0,1,,,,,,,,,0,,,72,50
31890,note_on,0,0,1,,,,,,,,,0,,,74,0
31891,set_tempo,14,1,0,,,,,,701836,,,,,,,
31898,set_tempo,7,1,0,,,,,,704308,,,,,,,
31905,control_change,225,0,4,,,,,,,,,0,64,0,,
31905,set_tempo,7,1,0,,,,,,706797,,,,,,,
31920,note_on,0,0,3,,,,,,,,,0,,,53,0
31920,note_on,0,0,3,,,,,,,,,0,,,53,0
31920,note_on,0,0,3,,,,,,,,,0,,,58,40
31920,note_on,0,0,3,,,,,,,,,0,,,50,40
31920,note_on,0,0,3,,,,,,,,,0,,,46,60
31920,note_on,0,0,1,,,,,,,,,0,,,70,50
31920,control_change,15,0,4,,,,,,,,,0,64,127,,
31920,note_on,60,0,3,,,,,,,,,0,,,60,0
31920,note_on,30,0,1,,,,,,,,,0,,,72,0
31920,set_tempo,15,1,0,,,,,,709304,,,,,,,
31927,set_tempo,7,1,0,,,,,,711828,,,,,,,
31941,set_tempo,14,1,0,,,,,,714371,,,,,,,
31948,set_tempo,7,1,0,,,,,,716932,,,,,,,
31950,note_on,30,0,1,,,,,,,,,0,,,62,40
31955,set_tempo,7,1,0,,,,,,719511,,,,,,,
31969,set_tempo,14,1,0,,,,,,722109,,,,,,,
31976,set_tempo,7,1,0,,,,,,724725,,,,,,,
31980,note_on,0,0,1,,,,,,,,,0,,,65,40
31980,note_on,30,0,1,,,,,,,,,0,,,62,0
31990,set_tempo,14,1,0,,,,,,727361,,,,,,,
31997,set_tempo,7,1,0,,,,,,730016,,,,,,,
32004,set_tempo,7,1,0,,,,,,732690,,,,,,,
32010,note_on,0,0,1,,,,,,,,,0,,,74,50
32010,note_on,30,0,1,,,,,,,,,0,,,65,0
32010,note_on,0,0,1,,,,,,,,,0,,,70,0
32018,set_tempo,14,1,0,,,,,,735384,,,,,,,
32025,set_tempo,7,1,0,,,,,,738098,,,,,,,
32032,set_tempo,7,1,0,,,,,,740832,,,,,,,
32040,note_on,0,0,1,,,,,,,,,0,,,70,50
32040,note_on,0,0,3,,,,,,,,,0,,,50,0
32040,note_on,0,0,3,,,,,,,,,0,,,58,0
32040,note_on,120,0,3,,,,,,,,,0,,,46,0
32040,note_on,30,0,1,,,,,,,,,0,,,74,0
32047,set_tempo,15,1,0,,,,,,743587,,,,,,,
32054,set_tempo,7,1,0,,,,,,746361,,,,,,,
32068,set_tempo,14,1,0,,,,,,749157,,,,,,,
32070,note_on,30,0,1,,,,,,,,,0,,,62,40
32075,set_tempo,7,1,0,,,,,,751974,,,,,,,
32082,set_tempo,7,1,0,,,,,,754812,,,,,,,
32096,set_tempo,14,1,0,,,,,,757671,,,,,,,
32100,note_on,0,0,1,,,,,,,,,0,,,65,40
32100,note_on,60,0,3,,,,,,,,,0,,,53,40
32100,note_on,0,0,3,,,,,,,,,0,,,50,40
32100,note_on,30,0,1,,,,,,,,,0,,,62,0
32103,set_tempo,7,1,0,,,,,,760553,,,,,,,
32117,set_tempo,14,1,0,,,,,,763456,,,,,,,
32124,set_tempo,7,1,0,,,,,,766381,,,,,,,
32130,note_on,0,0,1,,,,,,,,,0,,,67,50
32130,note_on,0,0,1,,,,,,,,,0,,,70,0
32130,note_on,30,0,1,,,,,,,,,0,,,65,0
32131,set_tempo,7,1,0,,,,,,769329,,,,,,,
32145,control_change,225,0,4,,,,,,,,,0,64,0,,
32145,set_tempo,14,1,0,,,,,,772300,,,,,,,
32152,set_tempo,7,1,0,,,,,,775294,,,,,,,
32160,note_on,0,0,3,,,,,,,,,0,,,53,0
32160,note_on,60,0,3,,,,,,,,,0,,,50,0
32160,note_on,30,0,1,,,,,,,,,0,,,67,0
32160,note_on,15840,0,2,,,,,,,,,0,,,65,50
32160,control_change,15,0,4,,,,,,,,,0,64,127,,
32160,note_on,0,0,3,,,,,,,,,0,,,41,60
32167,set_tempo,15,1,0,,,,,,778311,,,,,,,
32174,set_tempo,7,1,0,,,,,,781352,,,,,,,
32181,set_tempo,7,1,0,,,,,,784416,,,,,,,
32190,note_on,30,0,2,,,,,,,,,0,,,53,40
32195,set_tempo,14,1,0,,,,,,787505,,,,,,,
32202,set_tempo,7,1,0,,,,,,790618,,,,,,,
32209,set_tempo,7,1,0,,,,,,793756,,,,,,,
32220,note_on,0,0,3,,,,,,,,,0,,,48,40
32220,note_on,60,0,3,,,,,,,,,0,,,51,40
32220,note_on,30,0,2,,,,,,,,,0,,,53,0
32220,note_on,0,0,2,,,,,,,,,0,,,60,40
32223,set_tempo,14,1,0,,,,,,796919,,,,,,,
32230,set_tempo,7,1,0,,,,,,800107,,,,,,,
32244,set_tempo,14,1,0,,,,,,803320,,,,,,,
32250,note_on,0,0,2,,,,,,,,,0,,,63,50
32250,note_on,30,0,2,,,,,,,,,0,,,60,0
32250,note_on,0,0,2,,,,,,,,,0,,,65,0
32251,set_tempo,7,1,0,,,,,,806560,,,,,,,
32258,set_tempo,7,1,0,,,,,,809826,,,,,,,
32272,set_tempo,14,1,0,,,,,,813118,,,,,,,
32280,note_on,0,0,2,,,,,,,,,0,,,62,50
32280,note_on,30,0,2,,,,,,,,,0,,,63,0
32280,note_on,60,0,3,,,,,,,,,0,,,48,0
32280,note_on,0,0,3,,,,,,,,,0,,,46,40
32280,note_on,0,0,3,,,,,,,,,0,,,51,0
32280,set_tempo,8,1,0,,,,,,816438,,,,,,,
32280,note_on,0,0,3,,,,,,,,,0,,,50,40
32294,set_tempo,14,1,0,,,,,,819784,,,,,,,
32301,set_tempo,7,1,0,,,,,,823158,,,,,,,
32308,set_tempo,7,1,0,,,,,,826560,,,,,,,
32310,note_on,30,0,2,,,,,,,,,0,,,53,40
32322,set_tempo,14,1,0,,,,,,829990,,,,,,,
32329,set_tempo,7,1,0,,,,,,833449,,,,,,,
32340,note_on,30,0,2,,,,,,,,,0,,,53,0
32340,note_on,0,0,2,,,,,,,,,0,,,57,40
32340,note_on,60,0,3,,,,,,,,,0,,,50,0
32340,note_on,0,0,3,,,,,,,,,0,,,48,40
32340,note_on,0,0,3,,,,,,,,,0,,,41,40
32340,note_on,0,0,3,,,,,,,,,0,,,46,0
32343,set_tempo,14,1,0,,,,,,836937,,,,,,,
32350,set_tempo,7,1,0,,,,,,840454,,,,,,,
32357,set_tempo,7,1,0,,,,,,844001,,,,,,,
32370,note_on,0,0,2,,,,,,,,,0,,,60,50
32370,note_on,0,0,2,,,,,,,,,0,,,62,0
32370,note_on,30,0,2,,,,,,,,,0,,,57,0
32371,set_tempo,14,1,0,,,,,,847577,,,,,,,
32378,set_tempo,7,1,0,,,,,,851185,,,,,,,
32385,control_change,225,0,4,,,,,,,,,0,64,0,,
32385,set_tempo,7,1,0,,,,,,854823,,,,,,,
32400,note_on,30,0,2,,,,,,,,,0,,,60,0
32400,note_on,0,0,3,,,,,,,,,0,,,46,50
32400,control_change,15,0,4,,,,,,,,,0,64,127,,
32400,note_on,60,0,3,,,,,,,,,0,,,48,0
32400,set_tempo,15,1,0,,,,,,858492,,,,,,,
32400,note_on,0,0,3,,,,,,,,,0,,,34,50
32400,note_on,0,0,3,,,,,,,,,0,,,41,0
32400,note_on,0,0,2,,,,,,,,,0,,,58,50
32400,note_on,0,0,3,,,,,,,,,0,,,41,0
32400,note_on,0,0,3,,,,,,,,,0,,,41,50
32407,set_tempo,7,1,0,,,,,,862193,,,,,,,
32421,set_tempo,14,1,0,,,,,,865926,,,,,,,
32428,set_tempo,7,1,0,,,,,,869691,,,,,,,
32430,note_on,0,0,2,,,,,,,,,0,,,50,50
32430,note_on,30,0,2,,,,,,,,,0,,,58,0
32435,set_tempo,7,1,0,,,,,,873490,,,,,,,
32449,set_tempo,14,1,0,,,,,,877321,,,,,,,
32456,set_tempo,7,1,0,,,,,,881187,,,,,,,
32460,note_on,30,0,2,,,,,,,,,0,,,53,50
32470,set_tempo,14,1,0,,,,,,885086,,,,,,,
32477,set_tempo,7,1,0,,,,,,889021,,,,,,,
32484,set_tempo,7,1,0,,,,,,892990,,,,,,,
32490,note_on,30,0,2,,,,,,,,,0,,,57,50
32498,set_tempo,14,1,0,,,,,,896995,,,,,,,
32505,set_tempo,7,1,0,,,,,,901036,,,,,,,
32512,set_tempo,7,1,0,,,,,,905114,,,,,,,
32520,set_tempo,8,1,0,,,,,,1250000,,,,,,,
32520,note_on,30,0,2,,,,,,,,,0,,,57,0
32520,note_on,0,0,2,,,,,,,,,0,,,58,50
32625,control_change,225,0,4,,,,,,,,,0,64,0,,
32640,control_change,15,0,4,,,,,,,,,0,64,127,,
32640,note_on,0,0,2,,,,,,,,,0,,,50,0
32640,note_on,0,0,2,,,,,,,,,0,,,53,0
32640,note_on,0,0,3,,,,,,,,,0,,,41,0
32640,marker,0,1,0,,,,,,,,,,,,,
32640,set_tempo,120,1,0,,,,,,652174,,,,,,,
32640,note_on,120,0,2,,,,,,,,,0,,,58,0
32640,note_on,0,0,3,,,,,,,,,0,,,46,0
32640,note_on,240,0,3,,,,,,,,,0,,,34,0
32640,note_on,0,0,3,,,,,,,,,0,,,46,70
32640,note_on,480,0,1,,,,,,,,,0,,,74,60
32670,note_on,30,0,3,,,,,,,,,0,,,46,0
32700,note_on,0,0,1,,,,,,,,,0,,,73,60
32700,note_on,60,0,1,,,,,,,,,0,,,74,0
32700,note_on,0,0,3,,,,,,,,,0,,,58,60
32700,note_on,30,0,3,,,,,,,,,0,,,62,60
32700,note_on,0,0,3,,,,,,,,,0,,,53,60
32730,note_on,0,0,1,,,,,,,,,0,,,74,60
32730,note_on,30,0,1,,,,,,,,,0,,,73,0
32760,note_on,0,0,1,,,,,,,,,0,,,73,60
32760,note_on,30,0,1,,,,,,,,,0,,,74,0
32760,control_change,120,0,4,,,,,,,,,0,64,0,,
32790,note_on,0,0,1,,,,,,,,,0,,,74,60
32790,note_on,30,0,1,,,,,,,,,0,,,73,0
32820,note_on,30,0,1,,,,,,,,,0,,,74,0
32820,note_on,120,0,3,,,,,,,,,0,,,53,0
32820,note_on,0,0,3,,,,,,,,,0,,,53,60
32820,note_on,0,0,3,,,,,,,,,0,,,58,60
32820,note_on,0,0,3,,,,,,,,,0,,,58,0
32820,note_on,0,0,1,,,,,,,,,0,,,70,60
32820,note_on,0,0,3,,,,,,,,,0,,,62,0
32820,note_on,0,0,3,,,,,,,,,0,,,62,60
32850,note_on,0,0,1,,,,,,,,,0,,,67,60
32850,note_on,30,0,1,,,,,,,,,0,,,70,0
32880,control_change,120,0,4,,,,,,,,,0,64,127,,
32880,note_on,0,0,1,,,,,,,,,0,,,67,80
32880,note_on,30,0,1,,,,,,,,,0,,,67,0
32880,note_on,60,0,3,,,,,,,,,0,,,53,0
32880,note_on,0,0,3,,,,,,,,,0,,,58,0
32880,note_on,0,0,3,,,,,,,,,0,,,62,0
32880,note_on,0,0,3,,,,,,,,,0,,,50,70
32910,note_on,30,0,3,,,,,,,,,0,,,50,0
32940,note_on,30,0,3,,,,,,,,,0,,,62,60
32940,note_on,0,0,3,,,,,,,,,0,,,58,60
32940,note_on,0,0,3,,,,,,,,,0,,,53,60
33000,note_on,0,0,1,,,,,,,,,0,,,65,60
33000,note_on,120,0,1,,,,,,,,,0,,,67,0
33000,control_change,120,0,4,,,,,,,,,0,64,0,,
33060,note_on,120,0,3,,,,,,,,,0,,,53,0
33060,note_on,0,0,3,,,,,,,,,0,,,58,0
33060,note_on,0,0,3,,,,,,,,,0,,,62,0
33060,note_on,0,0,3,,,,,,,,,0,,,62,60
33060,note_on,0,0,3,,,,,,,,,0,,,58,60
33060,note_on,60,0,1,,,,,,,,,0,,,65,0
33060,note_on,0,0,3,,,,,,,,,0,,,53,60
33105,note_on,45,0,1,,,,,,,,,0,,,70,60
33120,note_on,60,0,3,,,,,,,,,0,,,53,0
33120,note_on,0,0,3,,,,,,,,,0,,,58,0
33120,note_on,0,0,3,,,,,,,,,0,,,62,0
33120,note_on,0,0,3,,,,,,,,,0,,,48,70
33120,note_on,15,0,1,,,,,,,,,0,,,70,0
33120,note_on,0,0,1,,,,,,,,,0,,,69,60
33120,control_change,120,0,4,,,,,,,,,0,64,127,,
33150,note_on,0,0,1,,,,,,,,,0,,,70,60
33150,note_on,30,0,1,,,,,,,,,0,,,69,0
33150,note_on,30,0,3,,,,,,,,,0,,,48,0
33160,note_on,0,0,1,,,,,,,,,0,,,69,60
33160,note_on,10,0,1,,,,,,,,,0,,,70,0
33170,note_on,0,0,1,,,,,,,,,0,,,67,60
33170,note_on,10,0,1,,,,,,,,,0,,,69,0
33180,note_on,10,0,1,,,,,,,,,0,,,67,0
33180,note_on,30,0,3,,,,,,,,,0,,,63,60
33180,note_on,0,0,3,,,,,,,,,0,,,57,60
33180,note_on,0,0,3,,,,,,,,,0,,,53,60
33180,note_on,0,0,1,,,,,,,,,0,,,69,60
33210,note_on,30,0,1,,,,,,,,,0,,,69,0
33210,note_on,0,0,1,,,,,,,,,0,,,70,60
33240,note_on,0,0,1,,,,,,,,,0,,,71,60
33240,note_on,30,0,1,,,,,,,,,0,,,70,0
33240,control_change,120,0,4,,,,,,,,,0,64,0,,
33270,note_on,30,0,1,,,,,,,,,0,,,71,0
33270,note_on,0,0,1,,,,,,,,,0,,,72,60
33300,note_on,0,0,1,,,,,,,,,0,,,73,60
33300,note_on,30,0,1,,,,,,,,,0,,,72,0
33300,note_on,0,0,3,,,,,,,,,0,,,63,0
33300,note_on,0,0,3,,,,,,,,,0,,,53,60
33300,note_on,0,0,3,,,,,,,,,0,,,57,60
33300,note_on,0,0,3,,,,,,,,,0,,,63,60
33300,note_on,120,0,3,,,,,,,,,0,,,53,0
33300,note_on,0,0,3,,,,,,,,,0,,,57,0
33330,note_on,30,0,1,,,,,,,,,0,,,73,0
33330,note_on,0,0,1,,,,,,,,,0,,,74,60
33360,control_change,120,0,4,,,,,,,,,0,64,127,,
33360,note_on,60,0,3,,,,,,,,,0,,,53,0
33360,note_on,0,0,3,,,,,,,,,0,,,57,0
33360,note_on,0,0,3,,,,,,,,,0,,,63,0
33360,note_on,0,0,3,,,,,,,,,0,,,41,70
33360,note_on,30,0,1,,,,,,,,,0,,,74,0
33360,note_on,0,0,1,,,,,,,,,0,,,77,80
33390,note_on,30,0,3,,,,,,,,,0,,,41,0
33420,note_on,30,0,3,,,,,,,,,0,,,60,60
33420,note_on,0,0,3,,,,,,,,,0,,,57,60
33420,note_on,0,0,3,,,,,,,,,0,,,53,60
33480,note_on,0,0,1,,,,,,,,,0,,,75,60
33480,control_change,120,0,4,,,,,,,,,0,64,0,,
33480,note_on,120,0,1,,,,,,,,,0,,,77,0
33540,note_on,0,0,3,,,,,,,,,0,,,53,60
33540,note_on,60,0,1,,,,,,,,,0,,,75,0
33540,note_on,0,0,3,,,,,,,,,0,,,60,60
33540,note_on,0,0,3,,,,,,,,,0,,,60,0
33540,note_on,0,0,3,,,,,,,,,0,,,57,0
33540,note_on,120,0,3,,,,,,,,,0,,,53,0
33540,note_on,0,0,3,,,,,,,,,0,,,57,60
33600,note_on,60,0,3,,,,,,,,,0,,,53,0
33600,note_on,0,0,3,,,,,,,,,0,,,60,0
33600,note_on,0,0,3,,,,,,,,,0,,,46,70
33600,note_on,60,0,1,,,,,,,,,0,,,74,60
33600,control_change,120,0,4,,,,,,,,,0,64,127,,
33600,note_on,0,0,3,,,,,,,,,0,,,57,0
33630,note_on,30,0,3,,,,,,,,,0,,,46,0
33660,note_on,60,0,1,,,,,,,,,0,,,74,0
33660,note_on,0,0,1,,,,,,,,,0,,,76,60
33660,note_on,0,0,3,,,,,,,,,0,,,53,60
33660,note_on,0,0,3,,,,,,,,,0,,,58,60
33660,note_on,30,0,3,,,,,,,,,0,,,62,60
33690,note_on,30,0,1,,,,,,,,,0,,,76,0
33690,note_on,0,0,1,,,,,,,,,0,,,77,60
33720,note_on,0,0,1,,,,,,,,,0,,,81,80
33720,note_on,30,0,1,,,,,,,,,0,,,77,0
33720,control_change,120,0,4,,,,,,,,,0,64,0,,
33750,note_on,0,0,1,,,,,,,,,0,,,82,60
33750,note_on,30,0,1,,,,,,,,,0,,,81,0
33780,note_on,0,0,1,,,,,,,,,0,,,77,60
33780,note_on,0,0,3,,,,,,,,,0,,,62,60
33780,note_on,0,0,3,,,,,,,,,0,,,53,60
33780,note_on,0,0,3,,,,,,,,,0,,,58,60
33780,note_on,0,0,3,,,,,,,,,0,,,62,0
33780,note_on,0,0,3,,,,,,,,,0,,,58,0
33780,note_on,120,0,3,,,,,,,,,0,,,53,0
33780,note_on,30,0,1,,,,,,,,,0,,,82,0
33810,note_on,0,0,1,,,,,,,,,0,,,74,60
33810,note_on,30,0,1,,,,,,,,,0,,,77,0
33840,note_on,0,0,3,,,,,,,,,0,,,58,0
33840,note_on,60,0,3,,,,,,,,,0,,,53,0
33840,note_on,0,0,3,,,,,,,,,0,,,39,70
33840,note_on,0,0,3,,,,,,,,,0,,,62,0
33840,control_change,120,0,4,,,,,,,,,0,64,127,,
33840,note_on,0,0,1,,,,,,,,,0,,,72,60
33840,note_on,30,0,1,,,,,,,,,0,,,74,0
33870,note_on,30,0,3,,,,,,,,,0,,,39,0
33900,note_on,0,0,3,,,,,,,,,0,,,58,60
33900,note_on,30,0,3,,,,,,,,,0,,,60,60
33900,note_on,0,0,3,,,,,,,,,0,,,51,60
33900,note_on,60,0,1,,,,,,,,,0,,,72,0
33900,note_on,0,0,1,,,,,,,,,0,,,78,60
33900,note_on,0,0,3,,,,,,,,,0,,,55,60
33930,note_on,30,0,1,,,,,,,,,0,,,78,0
33930,note_on,0,0,1,,,,,,,,,0,,,79,60
33960,control_change,120,0,4,,,,,,,,,0,64,0,,
33960,note_on,30,0,1,,,,,,,,,0,,,79,0
33960,note_on,0,0,1,,,,,,,,,0,,,81,80
33990,note_on,0,0,1,,,,,,,,,0,,,82,60
33990,note_on,30,0,1,,,,,,,,,0,,,81,0
34020,note_on,0,0,3,,,,,,,,,0,,,58,60
34020,note_on,0,0,3,,,,,,,,,0,,,60,0
34020,note_on,0,0,3,,,,,,,,,0,,,58,0
34020,note_on,0,0,3,,,,,,,,,0,,,55,0
34020,note_on,0,0,3,,,,,,,,,0,,,55,60
34020,note_on,0,0,3,,,,,,,,,0,,,51,60
34020,note_on,30,0,1,,,,,,,,,0,,,82,0
34020,note_on,0,0,1,,,,,,,,,0,,,79,60
34020,note_on,120,0,3,,,,,,,,,0,,,51,0
34020,note_on,0,0,3,,,,,,,,,0,,,60,60
34050,note_on,30,0,1,,,,,,,,,0,,,79,0
34050,note_on,0,0,1,,,,,,,,,0,,,72,60
34080,note_on,30,0,1,,,,,,,,,0,,,72,0
34080,note_on,0,0,1,,,,,,,,,0,,,72,60
34080,note_on,0,0,3,,,,,,,,,0,,,40,70
34080,note_on,0,0,3,,,,,,,,,0,,,58,0
34080,note_on,0,0,3,,,,,,,,,0,,,60,0
34080,note_on,60,0,3,,,,,,,,,0,,,51,0
34080,control_change,120,0,4,,,,,,,,,0,64,127,,
34080,note_on,0,0,3,,,,,,,,,0,,,55,0
34110,note_on,30,0,1,,,,,,,,,0,,,72,0
34110,note_on,0,0,1,,,,,,,,,0,,,84,60
34110,note_on,30,0,3,,,,,,,,,0,,,40,0
34140,note_on,30,0,1,,,,,,,,,0,,,84,0
34140,note_on,0,0,3,,,,,,,,,0,,,52,60
34140,note_on,0,0,3,,,,,,,,,0,,,60,60
34140,note_on,0,0,1,,,,,,,,,0,,,83,60
34140,note_on,30,0,3,,,,,,,,,0,,,55,60
34170,note_on,0,0,1,,,,,,,,,0,,,82,60
34170,note_on,30,0,1,,,,,,,,,0,,,83,0
34200,note_on,30,0,1,,,,,,,,,0,,,82,0
34200,note_on,0,0,1,,,,,,,,,0,,,81,60
34200,note_on,0,0,3,,,,,,,,,0,,,57,60
34200,note_on,60,0,3,,,,,,,,,0,,,55,0
34200,control_change,120,0,4,,,,,,,,,0,64,0,,
34230,note_on,0,0,1,,,,,,,,,0,,,72,60
34230,note_on,30,0,1,,,,,,,,,0,,,81,0
34260,note_on,30,0,1,,,,,,,,,0,,,72,0
34260,note_on,0,0,1,,,,,,,,,0,,,70,60
34260,note_on,60,0,3,,,,,,,,,0,,,57,0
34260,note_on,0,0,3,,,,,,,,,0,,,52,0
34260,note_on,0,0,3,,,,,,,,,0,,,52,60
34260,note_on,0,0,3,,,,,,,,,0,,,58,60
34290,note_on,0,0,1,,,,,,,,,0,,,79,60
34290,note_on,30,0,1,,,,,,,,,0,,,70,0
34320,note_on,0,0,1,,,,,,,,,0,,,69,60
34320,note_on,30,0,1,,,,,,,,,0,,,79,0
34320,note_on,60,0,3,,,,,,,,,0,,,58,0
34320,note_on,0,0,3,,,,,,,,,0,,,52,0
34320,note_on,0,0,3,,,,,,,,,0,,,60,0
34320,note_on,0,0,3,,,,,,,,,0,,,41,70
34350,note_on,0,0,1,,,,,,,,,0,,,77,60
34350,note_on,30,0,3,,,,,,,,,0,,,41,0
34350,note_on,30,0,1,,,,,,,,,0,,,69,0
34380,note_on,0,0,3,,,,,,,,,0,,,53,60
34380,note_on,0,0,3,,,,,,,,,0,,,57,60
34380,note_on,30,0,3,,,,,,,,,0,,,60,60
34380,note_on,0,0,1,,,,,,,,,0,,,72,60
34380,note_on,30,0,1,,,,,,,,,0,,,77,0
34410,note_on,30,0,1,,,,,,,,,0,,,72,0
34410,note_on,0,0,1,,,,,,,,,0,,,75,60
34440,note_on,0,0,3,,,,,,,,,0,,,58,60
34440,note_on,0,0,3,,,,,,,,,0,,,62,60
34440,note_on,0,0,3,,,,,,,,,0,,,60,0
34440,note_on,60,0,3,,,,,,,,,0,,,57,0
34440,note_on,30,0,1,,,,,,,,,0,,,75,0
34440,note_on,0,0,1,,,,,,,,,0,,,70,60
34470,note_on,0,0,1,,,,,,,,,0,,,74,60
34470,note_on,30,0,1,,,,,,,,,0,,,70,0
34500,note_on,0,0,1,,,,,,,,,0,,,69,60
34500,note_on,30,0,1,,,,,,,,,0,,,74,0
34500,note_on,0,0,3,,,,,,,,,0,,,62,0
34500,note_on,0,0,3,,,,,,,,,0,,,63,60
34500,note_on,0,0,3,,,,,,,,,0,,,60,60
34500,note_on,60,0,3,,,,,,,,,0,,,58,0
34530,note_on,0,0,1,,,,,,,,,0,,,72,60
34530,note_on,30,0,1,,,,,,,,,0,,,69,0
34560,note_on,30,0,1,,,,,,,,,0,,,72,0
34560,note_on,60,0,3,,,,,,,,,0,,,60,0
34560,note_on,0,0,3,,,,,,,,,0,,,63,0
34560,note_on,0,0,3,,,,,,,,,0,,,53,0
34560,note_on,0,0,1,,,,,,,,,0,,,70,60
34560,control_change,360,0,4,,,,,,,,,0,64,127,,
34560,note_on,0,0,3,,,,,,,,,0,,,46,70
34575,note_on,15,0,1,,,,,,,,,0,,,70,0
34590,note_on,30,0,3,,,,,,,,,0,,,46,0
34590,note_on,15,0,1,,,,,,,,,0,,,86,60
34620,note_on,30,0,3,,,,,,,,,0,,,62,60
34620,note_on,0,0,3,,,,,,,,,0,,,58,60
34620,note_on,0,0,3,,,,,,,,,0,,,53,60
34620,note_on,0,0,1,,,,,,,,,0,,,85,60
34620,note_on,30,0,1,,,,,,,,,0,,,86,0
34650,note_on,0,0,1,,,,,,,,,0,,,86,60
34650,note_on,30,0,1,,,,,,,,,0,,,85,0
34680,note_on,0,0,1,,,,,,,,,0,,,85,60
34680,note_on,30,0,1,,,,,,,,,0,,,86,0
34680,control_change,120,0,4,,,,,,,,,0,64,0,,
34710,note_on,0,0,1,,,,,,,,,0,,,86,60
34710,note_on,30,0,1,,,,,,,,,0,,,85,0
34740,note_on,0,0,3,,,,,,,,,0,,,58,60
34740,note_on,0,0,3,,,,,,,,,0,,,53,60
34740,note_on,0,0,1,,,,,,,,,0,,,82,60
34740,note_on,120,0,3,,,,,,,,,0,,,53,0
34740,note_on,0,0,3,,,,,,,,,0,,,58,0
34740,note_on,0,0,3,,,,,,,,,0,,,62,0
34740,note_on,0,0,3,,,,,,,,,0,,,62,60
34740,note_on,30,0,1,,,,,,,,,0,,,86,0
34770,note_on,30,0,1,,,,,,,,,0,,,82,0
34770,note_on,0,0,1,,,,,,,,,0,,,79,60
34800,note_on,30,0,1,,,,,,,,,0,,,79,0
34800,note_on,0,0,1,,,,,,,,,0,,,79,80
34800,note_on,0,0,3,,,,,,,,,0,,,50,70
34800,note_on,60,0,3,,,,,,,,,0,,,53,0
34800,note_on,0,0,3,,,,,,,,,0,,,58,0
34800,note_on,0,0,3,,,,,,,,,0,,,62,0
34800,control_change,120,0,4,,,,,,,,,0,64,127,,
34830,note_on,30,0,3,,,,,,,,,0,,,50,0
34860,note_on,30,0,3,,,,,,,,,0,,,65,60
34860,note_on,0,0,3,,,,,,,,,0,,,58,60
34860,note_on,0,0,3,,,,,,,,,0,,,53,60
34920,control_change,120,0,4,,,,,,,,,0,64,0,,
34920,note_on,120,0,1,,,,,,,,,0,,,79,0
34920,note_on,0,0,1,,,,,,,,,0,,,77,60
34980,note_on,60,0,1,,,,,,,,,0,,,77,0
34980,note_on,0,0,3,,,,,,,,,0,,,53,60
34980,note_on,120,0,3,,,,,,,,,0,,,53,0
34980,note_on,0,0,3,,,,,,,,,0,,,65,60
34980,note_on,0,0,3,,,,,,,,,0,,,65,0
34980,note_on,0,0,3,,,,,,,,,0,,,58,0
34980,note_on,0,0,3,,,,,,,,,0,,,58,60
35025,note_on,45,0,1,,,,,,,,,0,,,82,60
35040,control_change,120,0,4,,,,,,,,,0,64,127,,
35040,note_on,0,0,3,,,,,,,,,0,,,65,0
35040,note_on,0,0,3,,,,,,,,,0,,,48,70
35040,note_on,15,0,1,,,,,,,,,0,,,82,0
35040,note_on,0,0,3,,,,,,,,,0,,,58,0
35040,note_on,60,0,3,,,,,,,,,0,,,53,0
35040,note_on,0,0,1,,,,,,,,,0,,,81,60
35070,note_on,0,0,1,,,,,,,,,0,,,82,60
35070,note_on,30,0,3,,,,,,,,,0,,,48,0
35070,note_on,30,0,1,,,,,,,,,0,,,81,0
35080,note_on,0,0,1,,,,,,,,,0,,,81,60
35080,note_on,10,0,1,,,,,,,,,0,,,82,0
35090,note_on,0,0,1,,,,,,,,,0,,,79,60
35090,note_on,10,0,1,,,,,,,,,0,,,81,0
35100,note_on,0,0,1,,,,,,,,,0,,,81,60
35100,note_on,10,0,1,,,,,,,,,0,,,79,0
35100,note_on,0,0,3,,,,,,,,,0,,,53,60
35100,note_on,0,0,3,,,,,,,,,0,,,57,60
35100,note_on,30,0,3,,,,,,,,,0,,,63,60
35130,note_on,0,0,1,,,,,,,,,0,,,82,60
35130,note_on,30,0,1,,,,,,,,,0,,,81,0
35160,control_change,120,0,4,,,,,,,,,0,64,0,,
35160,note_on,0,0,1,,,,,,,,,0,,,83,60
35160,note_on,30,0,1,,,,,,,,,0,,,82,0
35190,note_on,30,0,1,,,,,,,,,0,,,83,0
35190,note_on,0,0,1,,,,,,,,,0,,,84,60
35220,note_on,30,0,1,,,,,,,,,0,,,84,0
35220,note_on,0,0,1,,,,,,,,,0,,,85,60
35220,note_on,0,0,3,,,,,,,,,0,,,53,60
35220,note_on,120,0,3,,,,,,,,,0,,,53,0
35220,note_on,0,0,3,,,,,,,,,0,,,57,60
35220,note_on,0,0,3,,,,,,,,,0,,,63,60
35220,note_on,0,0,3,,,,,,,,,0,,,63,0
35220,note_on,0,0,3,,,,,,,,,0,,,57,0
35250,note_on,0,0,1,,,,,,,,,0,,,86,60
35250,note_on,30,0,1,,,,,,,,,0,,,85,0
35280,note_on,30,0,1,,,,,,,,,0,,,86,0
35280,control_change,120,0,4,,,,,,,,,0,64,127,,
35280,note_on,0,0,3,,,,,,,,,0,,,63,0
35280,note_on,0,0,3,,,,,,,,,0,,,57,0
35280,note_on,0,0,3,,,,,,,,,0,,,41,70
35280,note_on,0,0,1,,,,,,,,,0,,,89,60
35280,note_on,60,0,3,,,,,,,,,0,,,53,0
35310,note_on,30,0,3,,,,,,,,,0,,,41,0
35340,note_on,30,0,3,,,,,,,,,0,,,60,60
35340,note_on,0,0,3,,,,,,,,,0,,,57,60
35340,note_on,0,0,3,,,,,,,,,0,,,53,60
35370,note_on,90,0,1,,,,,,,,,0,,,89,0
35370,note_on,0,0,1,,,,,,,,,0,,,88,60
35400,control_change,120,0,4,,,,,,,,,0,64,0,,
35400,note_on,30,0,1,,,,,,,,,0,,,88,0
35400,note_on,0,0,1,,,,,,,,,0,,,87,60
35460,note_on,60,0,1,,,,,,,,,0,,,87,0
35460,note_on,0,0,3,,,,,,,,,0,,,53,60
35460,note_on,0,0,3,,,,,,,,,0,,,60,0
35460,note_on,120,0,3,,,,,,,,,0,,,53,0
35460,note_on,0,0,3,,,,,,,,,0,,,57,0
35460,note_on,0,0,3,,,,,,,,,0,,,57,60
35460,note_on,0,0,3,,,,,,,,,0,,,60,60
35520,control_change,120,0,4,,,,,,,,,0,64,127,,
35520,note_on,60,0,1,,,,,,,,,0,,,86,60
35520,note_on,60,0,3,,,,,,,,,0,,,53,0
35520,note_on,0,0,3,,,,,,,,,0,,,46,70
35520,note_on,0,0,3,,,,,,,,,0,,,60,0
35520,note_on,0,0,3,,,,,,,,,0,,,57,0
35550,note_on,30,0,3,,,,,,,,,0,,,46,0
35580,note_on,0,0,1,,,,,,,,,0,,,88,62
35580,note_on,0,0,3,,,,,,,,,0,,,53,62
35580,note_on,0,0,3,,,,,,,,,0,,,58,62
35580,note_on,60,0,1,,,,,,,,,0,,,86,0
35580,note_on,30,0,3,,,,,,,,,0,,,62,62
35610,note_on,0,0,1,,,,,,,,,0,,,89,64
35610,note_on,30,0,1,,,,,,,,,0,,,88,0
35640,note_on,30,0,1,,,,,,,,,0,,,89,0
35640,note_on,0,0,1,,,,,,,,,0,,,93,85
35640,control_change,120,0,4,,,,,,,,,0,64,0,,
35670,note_on,30,0,1,,,,,,,,,0,,,93,0
35670,note_on,0,0,1,,,,,,,,,0,,,94,66
35700,note_on,0,0,3,,,,,,,,,0,,,58,0
35700,note_on,0,0,3,,,,,,,,,0,,,62,0
35700,note_on,0,0,3,,,,,,,,,0,,,62,68
35700,note_on,0,0,3,,,,,,,,,0,,,58,68
35700,note_on,30,0,1,,,,,,,,,0,,,94,0
35700,note_on,0,0,1,,,,,,,,,0,,,89,68
35700,note_on,120,0,3,,,,,,,,,0,,,53,0
35700,note_on,0,0,3,,,,,,,,,0,,,53,68
35730,note_on,30,0,1,,,,,,,,,0,,,89,0
35730,note_on,0,0,1,,,,,,,,,0,,,86,69
35760,note_on,60,0,3,,,,,,,,,0,,,53,0
35760,note_on,0,0,3,,,,,,,,,0,,,58,0
35760,note_on,0,0,3,,,,,,,,,0,,,40,80
35760,control_change,120,0,4,,,,,,,,,0,64,127,,
35760,note_on,0,0,3,,,,,,,,,0,,,62,0
35760,note_on,0,0,1,,,,,,,,,0,,,85,70
35760,note_on,30,0,1,,,,,,,,,0,,,86,0
35790,note_on,30,0,3,,,,,,,,,0,,,40,0
35820,note_on,30,0,3,,,,,,,,,0,,,61,73
35820,note_on,0,0,3,,,,,,,,,0,,,52,73
35820,note_on,0,0,3,,,,,,,,,0,,,58,73
35820,note_on,0,0,3,,,,,,,,,0,,,55,73
35820,note_on,0,0,1,,,,,,,,,0,,,91,73
35820,note_on,60,0,1,,,,,,,,,0,,,85,0
35850,note_on,0,0,1,,,,,,,,,0,,,94,74
35850,note_on,30,0,1,,,,,,,,,0,,,91,0
35880,note_on,0,0,1,,,,,,,,,0,,,96,96
35880,control_change,120,0,4,,,,,,,,,0,64,0,,
35880,note_on,30,0,1,,,,,,,,,0,,,94,0
35910,note_on,30,0,1,,,,,,,,,0,,,96,0
35910,note_on,0,0,1,,,,,,,,,0,,,97,77
35940,note_on,0,0,3,,,,,,,,,0,,,61,79
35940,note_on,0,0,3,,,,,,,,,0,,,55,79
35940,note_on,0,0,3,,,,,,,,,0,,,52,79
35940,note_on,0,0,3,,,,,,,,,0,,,61,0
35940,note_on,120,0,3,,,,,,,,,0,,,52,0
35940,note_on,0,0,3,,,,,,,,,0,,,58,79
35940,note_on,0,0,3,,,,,,,,,0,,,58,0
35940,note_on,0,0,1,,,,,,,,,0,,,94,79
35940,note_on,30,0,1,,,,,,,,,0,,,97,0
35940,note_on,0,0,3,,,,,,,,,0,,,55,0
35970,note_on,0,0,1,,,,,,,,,0,,,85,80
35970,note_on,30,0,1,,,,,,,,,0,,,94,0
36000,note_on,0,0,3,,,,,,,,,0,,,53,90
36000,note_on,0,0,1,,,,,,,,,0,,,84,80
36000,note_on,0,0,3,,,,,,,,,0,,,60,80
36000,note_on,30,0,1,,,,,,,,,0,,,85,0
36000,note_on,0,0,3,,,,,,,,,0,,,55,0
36000,note_on,0,0,3,,,,,,,,,0,,,58,0
36000,note_on,0,0,3,,,,,,,,,0,,,61,0
36000,note_on,60,0,3,,,,,,,,,0,,,52,0
36000,note_on,0,0,3,,,,,,,,,0,,,58,80
36030,note_on,0,0,1,,,,,,,,,0,,,86,79
36030,note_on,30,0,1,,,,,,,,,0,,,84,0
36060,note_on,60,0,3,,,,,,,,,0,,,58,0
36060,note_on,0,0,3,,,,,,,,,0,,,57,78
36060,note_on,0,0,1,,,,,,,,,0,,,87,78
36060,note_on,30,0,1,,,,,,,,,0,,,86,0
36090,note_on,30,0,1,,,,,,,,,0,,,87,0
36090,note_on,30,0,3,,,,,,,,,0,,,57,0
36090,note_on,0,0,3,,,,,,,,,0,,,55,76
36090,note_on,0,0,1,,,,,,,,,0,,,88,76
36120,note_on,0,0,1,,,,,,,,,0,,,89,75
36120,note_on,0,0,3,,,,,,,,,0,,,57,75
36120,note_on,30,0,3,,,,,,,,,0,,,55,0
36120,note_on,30,0,1,,,,,,,,,0,,,88,0
36150,note_on,0,0,1,,,,,,,,,0,,,91,73
36150,note_on,30,0,1,,,,,,,,,0,,,89,0
36180,note_on,0,0,3,,,,,,,,,0,,,60,72
36180,note_on,30,0,1,,,,,,,,,0,,,91,0
36180,note_on,0,0,1,,,,,,,,,0,,,87,72
36180,note_on,60,0,3,,,,,,,,,0,,,60,0
36180,note_on,0,0,3,,,,,,,,,0,,,63,72
36210,note_on,30,0,1,,,,,,,,,0,,,87,0
36210,note_on,0,0,1,,,,,,,,,0,,,84,71
36240,note_on,60,0,3,,,,,,,,,0,,,60,0
36240,note_on,30,0,1,,,,,,,,,0,,,84,0
36240,note_on,0,0,3,,,,,,,,,0,,,53,0
36240,note_on,0,0,3,,,,,,,,,0,,,57,0
36240,note_on,0,0,3,,,,,,,,,0,,,63,0
36240,note_on,0,0,3,,,,,,,,,0,,,62,79
36240,note_on,0,0,3,,,,,,,,,0,,,58,79
36240,note_on,0,0,1,,,,,,,,,0,,,82,69
36270,note_on,0,0,1,,,,,,,,,0,,,77,68
36270,note_on,30,0,1,,,,,,,,,0,,,82,0
36300,note_on,0,0,1,,,,,,,,,0,,,74,66
36300,note_on,30,0,1,,,,,,,,,0,,,77,0
36330,note_on,0,0,1,,,,,,,,,0,,,70,65
36330,note_on,30,0,1,,,,,,,,,0,,,74,0
36360,note_on,0,0,1,,,,,,,,,0,,,69,63
36360,note_on,30,0,1,,,,,,,,,0,,,70,0
36390,note_on,0,0,1,,,,,,,,,0,,,70,62
36390,note_on,30,0,1,,,,,,,,,0,,,69,0
36420,note_on,0,0,1,,,,,,,,,0,,,72,61
36420,note_on,30,0,1,,,,,,,,,0,,,70,0
36450,note_on,0,0,1,,,,,,,,,0,,,73,60
36450,note_on,30,0,1,,,,,,,,,0,,,72,0
36480,note_on,30,0,1,,,,,,,,,0,,,73,0
36480,note_on,0,0,3,,,,,,,,,0,,,62,0
36480,control_change,600,0,4,,,,,,,,,0,64,127,,
36480,note_on,0,0,1,,,,,,,,,0,,,74,60
36480,note_on,240,0,3,,,,,,,,,0,,,58,0
36480,note_on,0,0,3,,,,,,,,,0,,,46,70
36510,note_on,30,0,3,,,,,,,,,0,,,46,0
36540,note_on,30,0,3,,,,,,,,,0,,,62,60
36540,note_on,0,0,3,,,,,,,,,0,,,53,60
36540,note_on,0,0,3,,,,,,,,,0,,,58,60
36540,note_on,0,0,1,,,,,,,,,0,,,73,60
36540,note_on,60,0,1,,,,,,,,,0,,,74,0
36570,note_on,30,0,1,,,,,,,,,0,,,73,0
36570,note_on,0,0,1,,,,,,,,,0,,,74,60
36600,note_on,30,0,1,,,,,,,,,0,,,74,0
36600,note_on,0,0,1,,,,,,,,,0,,,73,60
36600,control_change,120,0,4,,,,,,,,,0,64,0,,
36630,note_on,30,0,1,,,,,,,,,0,,,73,0
36630,note_on,0,0,1,,,,,,,,,0,,,74,60
36660,note_on,0,0,3,,,,,,,,,0,,,58,0
36660,note_on,120,0,3,,,,,,,,,0,,,53,0
36660,note_on,0,0,3,,,,,,,,,0,,,53,60
36660,note_on,0,0,3,,,,,,,,,0,,,62,60
36660,note_on,0,0,3,,,,,,,,,0,,,62,0
36660,note_on,0,0,3,,,,,,,,,0,,,58,60
36660,note_on,30,0,1,,,,,,,,,0,,,74,0
36660,note_on,0,0,1,,,,,,,,,0,,,70,60
36690,note_on,30,0,1,,,,,,,,,0,,,70,0
36690,note_on,0,0,1,,,,,,,,,0,,,67,60
36720,note_on,0,0,3,,,,,,,,,0,,,62,0
36720,note_on,0,0,3,,,,,,,,,0,,,50,70
36720,note_on,0,0,3,,,,,,,,,0,,,58,0
36720,note_on,60,0,3,,,,,,,,,0,,,53,0
36720,note_on,0,0,1,,,,,,,,,0,,,67,80
36720,note_on,30,0,1,,,,,,,,,0,,,67,0
36720,control_change,120,0,4,,,,,,,,,0,64,127,,
36750,note_on,30,0,3,,,,,,,,,0,,,50,0
36780,note_on,0,0,3,,,,,,,,,0,,,53,60
36780,note_on,0,0,3,,,,,,,,,0,,,58,60
36780,note_on,30,0,3,,,,,,,,,0,,,62,60
36840,note_on,0,0,1,,,,,,,,,0,,,65,60
36840,control_change,120,0,4,,,,,,,,,0,64,0,,
36840,note_on,120,0,1,,,,,,,,,0,,,67,0
36900,note_on,60,0,1,,,,,,,,,0,,,65,0
36900,note_on,0,0,3,,,,,,,,,0,,,53,60
36900,note_on,0,0,3,,,,,,,,,0,,,62,0
36900,note_on,0,0,3,,,,,,,,,0,,,58,0
36900,note_on,120,0,3,,,,,,,,,0,,,53,0
36900,note_on,0,0,3,,,,,,,,,0,,,62,60
36900,note_on,0,0,3,,,,,,,,,0,,,58,60
36945,note_on,45,0,1,,,,,,,,,0,,,70,60
36960,note_on,0,0,1,,,,,,,,,0,,,69,60
36960,note_on,0,0,3,,,,,,,,,0,,,62,0
36960,note_on,0,0,3,,,,,,,,,0,,,58,0
36960,note_on,60,0,3,,,,,,,,,0,,,53,0
36960,note_on,15,0,1,,,,,,,,,0,,,70,0
36960,note_on,0,0,3,,,,,,,,,0,,,48,70
36960,control_change,120,0,4,,,,,,,,,0,64,127,,
36990,note_on,30,0,3,,,,,,,,,0,,,48,0
36990,note_on,0,0,1,,,,,,,,,0,,,70,60
36990,note_on,30,0,1,,,,,,,,,0,,,69,0
37000,note_on,0,0,1,,,,,,,,,0,,,69,60
37000,note_on,10,0,1,,,,,,,,,0,,,70,0
37010,note_on,10,0,1,,,,,,,,,0,,,69,0
37010,note_on,0,0,1,,,,,,,,,0,,,67,60
37020,note_on,30,0,3,,,,,,,,,0,,,63,60
37020,note_on,0,0,3,,,,,,,,,0,,,53,60
37020,note_on,0,0,3,,,,,,,,,0,,,57,60
37020,note_on,0,0,1,,,,,,,,,0,,,69,60
37020,note_on,10,0,1,,,,,,,,,0,,,67,0
37050,note_on,0,0,1,,,,,,,,,0,,,70,60
37050,note_on,30,0,1,,,,,,,,,0,,,69,0
37080,note_on,0,0,1,,,,,,,,,0,,,71,60
37080,control_change,120,0,4,,,,,,,,,0,64,0,,
37080,note_on,30,0,1,,,,,,,,,0,,,70,0
37110,note_on,30,0,1,,,,,,,,,0,,,71,0
37110,note_on,0,0,1,,,,,,,,,0,,,72,60
37140,note_on,0,0,3,,,,,,,,,0,,,53,60
37140,note_on,0,0,3,,,,,,,,,0,,,57,60
37140,note_on,0,0,3,,,,,,,,,0,,,63,0
37140,note_on,0,0,3,,,,,,,,,0,,,63,60
37140,note_on,0,0,1,,,,,,,,,0,,,73,60
37140,note_on,30,0,1,,,,,,,,,0,,,72,0
37140,note_on,0,0,3,,,,,,,,,0,,,57,0
37140,note_on,120,0,3,,,,,,,,,0,,,53,0
37170,note_on,30,0,1,,,,,,,,,0,,,73,0
37170,note_on,0,0,1,,,,,,,,,0,,,74,60
37200,note_on,60,0,3,,,,,,,,,0,,,53,0
37200,note_on,0,0,3,,,,,,,,,0,,,57,0
37200,note_on,0,0,3,,,,,,,,,0,,,63,0
37200,note_on,0,0,3,,,,,,,,,0,,,41,70
37200,note_on,30,0,1,,,,,,,,,0,,,74,0
37200,control_change,120,0,4,,,,,,,,,0,64,127,,
37200,note_on,0,0,1,,,,,,,,,0,,,77,80
37230,note_on,30,0,3,,,,,,,,,0,,,41,0
37260,note_on,0,0,3,,,,,,,,,0,,,53,60
37260,note_on,30,0,3,,,,,,,,,0,,,60,60
37260,note_on,0,0,3,,,,,,,,,0,,,57,60
37320,control_change,120,0,4,,,,,,,,,0,64,0,,
37320,note_on,0,0,1,,,,,,,,,0,,,75,60
37320,note_on,120,0,1,,,,,,,,,0,,,77,0
37380,note_on,60,0,1,,,,,,,,,0,,,75,0
37380,note_on,0,0,3,,,,,,,,,0,,,57,60
37380,note_on,120,0,3,,,,,,,,,0,,,53,0
37380,note_on,0,0,3,,,,,,,,,0,,,57,0
37380,note_on,0,0,3,,,,,,,,,0,,,60,0
37380,note_on,0,0,3,,,,,,,,,0,,,60,60
37380,note_on,0,0,3,,,,,,,,,0,,,53,60
37440,note_on,0,0,3,,,,,,,,,0,,,57,0
37440,note_on,60,0,1,,,,,,,,,0,,,74,60
37440,note_on,0,0,3,,,,,,,,,0,,,46,70
37440,note_on,60,0,3,,,,,,,,,0,,,53,0
37440,control_change,120,0,4,,,,,,,,,0,64,127,,
37440,note_on,0,0,3,,,,,,,,,0,,,60,0
37470,note_on,30,0,3,,,,,,,,,0,,,46,0
37500,note_on,30,0,3,,,,,,,,,0,,,62,60
37500,note_on,60,0,1,,,,,,,,,0,,,74,0
37500,note_on,0,0,1,,,,,,,,,0,,,76,60
37500,note_on,0,0,3,,,,,,,,,0,,,53,60
37500,note_on,0,0,3,,,,,,,,,0,,,58,60
37530,note_on,30,0,1,,,,,,,,,0,,,76,0
37530,note_on,0,0,1,,,,,,,,,0,,,77,60
37560,note_on,0,0,1,,,,,,,,,0,,,81,80
37560,control_change,120,0,4,,,,,,,,,0,64,0,,
37560,note_on,30,0,1,,,,,,,,,0,,,77,0
37590,note_on,0,0,1,,,,,,,,,0,,,82,60
37590,note_on,30,0,1,,,,,,,,,0,,,81,0
37620,note_on,30,0,1,,,,,,,,,0,,,82,0
37620,note_on,120,0,3,,,,,,,,,0,,,53,0
37620,note_on,0,0,3,,,,,,,,,0,,,58,60
37620,note_on,0,0,3,,,,,,,,,0,,,62,60
37620,note_on,0,0,3,,,,,,,,,0,,,62,0
37620,note_on,0,0,3,,,,,,,,,0,,,58,0
37620,note_on,0,0,3,,,,,,,,,0,,,53,60
37620,note_on,0,0,1,,,,,,,,,0,,,77,60
37650,note_on,30,0,1,,,,,,,,,0,,,77,0
37650,note_on,0,0,1,,,,,,,,,0,,,74,60
37680,note_on,60,0,3,,,,,,,,,0,,,53,0
37680,note_on,0,0,3,,,,,,,,,0,,,58,0
37680,note_on,0,0,3,,,,,,,,,0,,,62,0
37680,note_on,0,0,3,,,,,,,,,0,,,39,70
37680,note_on,30,0,1,,,,,,,,,0,,,74,0
37680,note_on,0,0,1,,,,,,,,,0,,,72,60
37680,control_change,120,0,4,,,,,,,,,0,64,127,,
37710,note_on,30,0,3,,,,,,,,,0,,,39,0
37740,note_on,30,0,3,,,,,,,,,0,,,60,60
37740,note_on,0,0,3,,,,,,,,,0,,,58,60
37740,note_on,0,0,3,,,,,,,,,0,,,55,60
37740,note_on,0,0,3,,,,,,,,,0,,,51,60
37740,note_on,60,0,1,,,,,,,,,0,,,72,0
37740,note_on,0,0,1,,,,,,,,,0,,,78,60
37770,note_on,30,0,1,,,,,,,,,0,,,78,0
37770,note_on,0,0,1,,,,,,,,,0,,,79,60
37800,note_on,0,0,1,,,,,,,,,0,,,81,80
37800,note_on,30,0,1,,,,,,,,,0,,,79,0
37800,control_change,120,0,4,,,,,,,,,0,64,0,,
37830,note_on,30,0,1,,,,,,,,,0,,,81,0
37830,note_on,0,0,1,,,,,,,,,0,,,82,60
37860,note_on,0,0,3,,,,,,,,,0,,,60,60
37860,note_on,0,0,3,,,,,,,,,0,,,58,60
37860,note_on,0,0,3,,,,,,,,,0,,,55,0
37860,note_on,0,0,3,,,,,,,,,0,,,58,0
37860,note_on,0,0,3,,,,,,,,,0,,,60,0
37860,note_on,0,0,3,,,,,,,,,0,,,51,60
37860,note_on,0,0,3,,,,,,,,,0,,,55,60
37860,note_on,0,0,1,,,,,,,,,0,,,79,60
37860,note_on,30,0,1,,,,,,,,,0,,,82,0
37860,note_on,120,0,3,,,,,,,,,0,,,51,0
37890,note_on,0,0,1,,,,,,,,,0,,,72,60
37890,note_on,30,0,1,,,,,,,,,0,,,79,0
37920,note_on,60,0,3,,,,,,,,,0,,,51,0
37920,note_on,0,0,3,,,,,,,,,0,,,60,0
37920,note_on,0,0,3,,,,,,,,,0,,,58,0
37920,note_on,0,0,3,,,,,,,,,0,,,55,0
37920,note_on,0,0,3,,,,,,,,,0,,,40,70
37920,control_change,120,0,4,,,,,,,,,0,64,127,,
37920,note_on,30,0,1,,,,,,,,,0,,,72,0
37920,note_on,0,0,1,,,,,,,,,0,,,72,60
37950,note_on,30,0,3,,,,,,,,,0,,,40,0
37950,note_on,0,0,1,,,,,,,,,0,,,84,60
37950,note_on,30,0,1,,,,,,,,,0,,,72,0
37980,note_on,0,0,3,,,,,,,,,0,,,52,60
37980,note_on,30,0,3,,,,,,,,,0,,,55,60
37980,note_on,0,0,3,,,,,,,,,0,,,60,60
37980,note_on,0,0,1,,,,,,,,,0,,,83,60
37980,note_on,30,0,1,,,,,,,,,0,,,84,0
38010,note_on,0,0,1,,,,,,,,,0,,,82,60
38010,note_on,30,0,1,,,,,,,,,0,,,83,0
38040,note_on,0,0,1,,,,,,,,,0,,,81,60
38040,note_on,30,0,1,,,,,,,,,0,,,82,0
38040,control_change,120,0,4,,,,,,,,,0,64,0,,
38040,note_on,0,0,3,,,,,,,,,0,,,57,60
38040,note_on,60,0,3,,,,,,,,,0,,,55,0
38070,note_on,30,0,1,,,,,,,,,0,,,81,0
38070,note_on,0,0,1,,,,,,,,,0,,,72,60
38100,note_on,0,0,3,,,,,,,,,0,,,52,60
38100,note_on,0,0,3,,,,,,,,,0,,,52,0
38100,note_on,60,0,3,,,,,,,,,0,,,57,0
38100,note_on,0,0,3,,,,,,,,,0,,,58,60
38100,note_on,30,0,1,,,,,,,,,0,,,72,0
38100,note_on,0,0,1,,,,,,,,,0,,,70,60
38130,note_on,30,0,1,,,,,,,,,0,,,70,0
38130,note_on,0,0,1,,,,,,,,,0,,,79,60
38160,note_on,60,0,3,,,,,,,,,0,,,58,0
38160,note_on,0,0,3,,,,,,,,,0,,,52,0
38160,note_on,0,0,3,,,,,,,,,0,,,60,0
38160,note_on,0,0,3,,,,,,,,,0,,,41,70
38160,note_on,0,0,1,,,,,,,,,0,,,69,60
38160,note_on,30,0,1,,,,,,,,,0,,,79,0
38190,note_on,0,0,1,,,,,,,,,0,,,77,60
38190,note_on,30,0,1,,,,,,,,,0,,,69,0
38190,note_on,30,0,3,,,,,,,,,0,,,41,0
38220,note_on,0,0,3,,,,,,,,,0,,,53,60
38220,note_on,0,0,3,,,,,,,,,0,,,57,60
38220,note_on,30,0,1,,,,,,,,,0,,,77,0
38220,note_on,0,0,1,,,,,,,,,0,,,72,60
38220,note_on,30,0,3,,,,,,,,,0,,,60,60
38250,note_on,0,0,1,,,,,,,,,0,,,75,60
38250,note_on,30,0,1,,,,,,,,,0,,,72,0
38280,note_on,0,0,3,,,,,,,,,0,,,62,60
38280,note_on,0,0,3,,,,,,,,,0,,,58,60
38280,note_on,0,0,1,,,,,,,,,0,,,70,60
38280,note_on,30,0,1,,,,,,,,,0,,,75,0
38280,note_on,60,0,3,,,,,,,,,0,,,57,0
38280,note_on,0,0,3,,,,,,,,,0,,,60,0
38310,note_on,30,0,1,,,,,,,,,0,,,70,0
38310,note_on,0,0,1,,,,,,,,,0,,,74,60
38340,note_on,0,0,3,,,,,,,,,0,,,62,0
38340,note_on,60,0,3,,,,,,,,,0,,,58,0
38340,note_on,0,0,1,,,,,,,,,0,,,69,60
38340,note_on,30,0,1,,,,,,,,,0,,,74,0
38340,note_on,0,0,3,,,,,,,,,0,,,60,60
38340,note_on,0,0,3,,,,,,,,,0,,,63,60
38370,note_on,0,0,1,,,,,,,,,0,,,72,60
38370,note_on,30,0,1,,,,,,,,,0,,,69,0
38400,note_on,0,0,3,,,,,,,,,0,,,53,0
38400,note_on,0,0,1,,,,,,,,,0,,,70,60
38400,control_change,360,0,4,,,,,,,,,0,64,127,,
38400,note_on,0,0,3,,,,,,,,,0,,,46,70
38400,note_on,0,0,3,,,,,,,,,0,,,63,0
38400,note_on,60,0,3,,,,,,,,,0,,,60,0
38400,note_on,30,0,1,,,,,,,,,0,,,72,0
38415,note_on,15,0,1,,,,,,,,,0,,,70,0
38430,note_on,15,0,1,,,,,,,,,0,,,86,60
38430,note_on,30,0,3,,,,,,,,,0,,,46,0
38460,note_on,30,0,3,,,,,,,,,0,,,62,60
38460,note_on,0,0,1,,,,,,,,,0,,,85,60
38460,note_on,30,0,1,,,,,,,,,0,,,86,0
38460,note_on,0,0,3,,,,,,,,,0,,,53,60
38460,note_on,0,0,3,,,,,,,,,0,,,58,60
38490,note_on,30,0,1,,,,,,,,,0,,,85,0
38490,note_on,0,0,1,,,,,,,,,0,,,86,60
38520,control_change,120,0,4,,,,,,,,,0,64,0,,
38520,note_on,30,0,1,,,,,,,,,0,,,86,0
38520,note_on,0,0,1,,,,,,,,,0,,,85,60
38550,note_on,30,0,1,,,,,,,,,0,,,85,0
38550,note_on,0,0,1,,,,,,,,,0,,,86,60
38580,note_on,30,0,1,,,,,,,,,0,,,86,0
38580,note_on,0,0,1,,,,,,,,,0,,,82,60
38580,note_on,120,0,3,,,,,,,,,0,,,53,0
38580,note_on,0,0,3,,,,,,,,,0,,,58,0
38580,note_on,0,0,3,,,,,,,,,0,,,62,0
38580,note_on,0,0,3,,,,,,,,,0,,,58,60
38580,note_on,0,0,3,,,,,,,,,0,,,53,60
38580,note_on,0,0,3,,,,,,,,,0,,,62,60
38610,note_on,30,0,1,,,,,,,,,0,,,82,0
38610,note_on,0,0,1,,,,,,,,,0,,,79,60
38640,note_on,0,0,3,,,,,,,,,0,,,50,70
38640,control_change,120,0,4,,,,,,,,,0,64,127,,
38640,note_on,0,0,3,,,,,,,,,0,,,62,0
38640,note_on,0,0,3,,,,,,,,,0,,,58,0
38640,note_on,60,0,3,,,,,,,,,0,,,53,0
38640,note_on,30,0,1,,,,,,,,,0,,,79,0
38640,note_on,0,0,1,,,,,,,,,0,,,79,80
38670,note_on,30,0,3,,,,,,,,,0,,,50,0
38700,note_on,0,0,3,,,,,,,,,0,,,53,60
38700,note_on,0,0,3,,,,,,,,,0,,,58,60
38700,note_on,30,0,3,,,,,,,,,0,,,65,60
38760,note_on,0,0,1,,,,,,,,,0,,,77,60
38760,control_change,120,0,4,,,,,,,,,0,64,0,,
38760,note_on,120,0,1,,,,,,,,,0,,,79,0
38820,note_on,60,0,1,,,,,,,,,0,,,77,0
38820,note_on,0,0,3,,,,,,,,,0,,,58,60
38820,note_on,0,0,3,,,,,,,,,0,,,65,60
38820,note_on,0,0,3,,,,,,,,,0,,,65,0
38820,note_on,0,0,3,,,,,,,,,0,,,53,60
38820,note_on,120,0,3,,,,,,,,,0,,,53,0
38820,note_on,0,0,3,,,,,,,,,0,,,58,0
38865,note_on,45,0,1,,,,,,,,,0,,,82,60
38880,note_on,60,0,3,,,,,,,,,0,,,53,0
38880,note_on,0,0,3,,,,,,,,,0,,,48,70
38880,note_on,0,0,1,,,,,,,,,0,,,81,60
38880,note_on,15,0,1,,,,,,,,,0,,,82,0
38880,note_on,0,0,3,,,,,,,,,0,,,65,0
38880,note_on,0,0,3,,,,,,,,,0,,,58,0
38880,control_change,120,0,4,,,,,,,,,0,64,127,,
38910,note_on,0,0,1,,,,,,,,,0,,,82,60
38910,note_on,30,0,1,,,,,,,,,0,,,81,0
38910,note_on,30,0,3,,,,,,,,,0,,,48,0
38920,note_on,10,0,1,,,,,,,,,0,,,82,0
38920,note_on,0,0,1,,,,,,,,,0,,,81,60
38930,note_on,0,0,1,,,,,,,,,0,,,79,60
38930,note_on,10,0,1,,,,,,,,,0,,,81,0
38940,note_on,30,0,3,,,,,,,,,0,,,63,60
38940,note_on,0,0,3,,,,,,,,,0,,,57,60
38940,note_on,0,0,3,,,,,,,,,0,,,53,60
38940,note_on,10,0,1,,,,,,,,,0,,,79,0
38940,note_on,0,0,1,,,,,,,,,0,,,81,60
38970,note_on,30,0,1,,,,,,,,,0,,,81,0
38970,note_on,0,0,1,,,,,,,,,0,,,82,60
39000,note_on,30,0,1,,,,,,,,,0,,,82,0
39000,control_change,120,0,4,,,,,,,,,0,64,0,,
39000,note_on,0,0,1,,,,,,,,,0,,,83,60
39030,note_on,0,0,1,,,,,,,,,0,,,84,60
39030,note_on,30,0,1,,,,,,,,,0,,,83,0
39060,note_on,0,0,1,,,,,,,,,0,,,85,60
39060,note_on,30,0,1,,,,,,,,,0,,,84,0
39060,note_on,120,0,3,,,,,,,,,0,,,53,0
39060,note_on,0,0,3,,,,,,,,,0,,,57,0
39060,note_on,0,0,3,,,,,,,,,0,,,57,60
39060,note_on,0,0,3,,,,,,,,,0,,,63,0
39060,note_on,0,0,3,,,,,,,,,0,,,63,60
39060,note_on,0,0,3,,,,,,,,,0,,,53,60
39090,note_on,0,0,1,,,,,,,,,0,,,86,60
39090,note_on,30,0,1,,,,,,,,,0,,,85,0
39120,control_change,120,0,4,,,,,,,,,0,64,127,,
39120,note_on,0,0,1,,,,,,,,,0,,,89,60
39120,note_on,30,0,1,,,,,,,,,0,,,86,0
39120,note_on,60,0,3,,,,,,,,,0,,,53,0
39120,note_on,0,0,3,,,,,,,,,0,,,57,0
39120,note_on,0,0,3,,,,,,,,,0,,,63,0
39120,note_on,0,0,3,,,,,,,,,0,,,41,70
39150,note_on,30,0,3,,,,,,,,,0,,,41,0
39180,note_on,30,0,3,,,,,,,,,0,,,60,60
39180,note_on,0,0,3,,,,,,,,,0,,,53,60
39180,note_on,0,0,3,,,,,,,,,0,,,57,60
39210,note_on,0,0,1,,,,,,,,,0,,,88,60
39210,note_on,90,0,1,,,,,,,,,0,,,89,0
39240,note_on,30,0,1,,,,,,,,,0,,,88,0
39240,control_change,120,0,4,,,,,,,,,0,64,0,,
39240,note_on,0,0,1,,,,,,,,,0,,,87,60
39300,note_on,60,0,1,,,,,,,,,0,,,87,0
39300,note_on,0,0,3,,,,,,,,,0,,,60,0
39300,note_on,0,0,3,,,,,,,,,0,,,57,0
39300,note_on,0,0,3,,,,,,,,,0,,,57,60
39300,note_on,0,0,3,,,,,,,,,0,,,53,60
39300,note_on,0,0,3,,,,,,,,,0,,,60,60
39300,note_on,120,0,3,,,,,,,,,0,,,53,0
39360,control_change,120,0,4,,,,,,,,,0,64,127,,
39360,note_on,60,0,3,,,,,,,,,0,,,53,0
39360,note_on,0,0,3,,,,,,,,,0,,,57,0
39360,note_on,0,0,3,,,,,,,,,0,,,60,0
39360,note_on,60,0,1,,,,,,,,,0,,,86,60
39360,note_on,0,0,3,,,,,,,,,0,,,46,70
39390,note_on,30,0,3,,,,,,,,,0,,,46,0
39420,note_on,0,0,3,,,,,,,,,0,,,53,62
39420,note_on,0,0,1,,,,,,,,,0,,,88,62
39420,note_on,60,0,1,,,,,,,,,0,,,86,0
39420,note_on,0,0,3,,,,,,,,,0,,,58,62
39420,note_on,30,0,3,,,,,,,,,0,,,62,62
39450,note_on,30,0,1,,,,,,,,,0,,,88,0
39450,note_on,0,0,1,,,,,,,,,0,,,89,64
39480,control_change,120,0,4,,,,,,,,,0,64,0,,
39480,note_on,30,0,1,,,,,,,,,0,,,89,0
39480,note_on,0,0,1,,,,,,,,,0,,,93,85
39510,note_on,30,0,1,,,,,,,,,0,,,93,0
39510,note_on,0,0,1,,,,,,,,,0,,,94,66
39540,note_on,0,0,3,,,,,,,,,0,,,58,0
39540,note_on,0,0,3,,,,,,,,,0,,,62,0
39540,note_on,0,0,3,,,,,,,,,0,,,62,68
39540,note_on,0,0,3,,,,,,,,,0,,,58,68
39540,note_on,0,0,3,,,,,,,,,0,,,53,68
39540,note_on,120,0,3,,,,,,,,,0,,,53,0
39540,note_on,30,0,1,,,,,,,,,0,,,94,0
39540,note_on,0,0,1,,,,,,,,,0,,,89,68
39570,note_on,30,0,1,,,,,,,,,0,,,89,0
39570,note_on,0,0,1,,,,,,,,,0,,,86,69
39600,note_on,30,0,1,,,,,,,,,0,,,86,0
39600,note_on,0,0,1,,,,,,,,,0,,,85,70
39600,control_change,120,0,4,,,,,,,,,0,64,127,,
39600,note_on,60,0,3,,,,,,,,,0,,,53,0
39600,note_on,0,0,3,,,,,,,,,0,,,62,0
39600,note_on,0,0,3,,,,,,,,,0,,,40,80
39600,note_on,0,0,3,,,,,,,,,0,,,58,0
39630,note_on,30,0,3,,,,,,,,,0,,,40,0
39660,note_on,30,0,3,,,,,,,,,0,,,61,73
39660,note_on,0,0,3,,,,,,,,,0,,,58,73
39660,note_on,0,0,3,,,,,,,,,0,,,55,73
39660,note_on,0,0,3,,,,,,,,,0,,,52,73
39660,note_on,60,0,1,,,,,,,,,0,,,85,0
39660,note_on,0,0,1,,,,,,,,,0,,,91,73
39690,note_on,30,0,1,,,,,,,,,0,,,91,0
39690,note_on,0,0,1,,,,,,,,,0,,,94,74
39720,note_on,30,0,1,,,,,,,,,0,,,94,0
39720,note_on,0,0,1,,,,,,,,,0,,,96,96
39720,control_change,120,0,4,,,,,,,,,0,64,0,,
39750,note_on,30,0,1,,,,,,,,,0,,,96,0
39750,note_on,0,0,1,,,,,,,,,0,,,97,77
39780,note_on,0,0,3,,,,,,,,,0,,,61,0
39780,note_on,30,0,1,,,,,,,,,0,,,97,0
39780,note_on,0,0,1,,,,,,,,,0,,,94,79
39780,note_on,0,0,3,,,,,,,,,0,,,58,0
39780,note_on,0,0,3,,,,,,,,,0,,,55,0
39780,note_on,120,0,3,,,,,,,,,0,,,52,0
39780,note_on,0,0,3,,,,,,,,,0,,,58,79
39780,note_on,0,0,3,,,,,,,,,0,,,61,79
39780,note_on,0,0,3,,,,,,,,,0,,,55,79
39780,note_on,0,0,3,,,,,,,,,0,,,52,79
39810,note_on,30,0,1,,,,,,,,,0,,,94,0
39810,note_on,0,0,1,,,,,,,,,0,,,85,80
39840,note_on,60,0,3,,,,,,,,,0,,,52,0
39840,note_on,0,0,1,,,,,,,,,0,,,84,80
39840,note_on,0,0,3,,,,,,,,,0,,,61,0
39840,note_on,0,0,3,,,,,,,,,0,,,58,0
39840,note_on,0,0,3,,,,,,,,,0,,,55,0
39840,note_on,0,0,3,,,,,,,,,0,,,58,80
39840,note_on,0,0,3,,,,,,,,,0,,,53,90
39840,note_on,0,0,3,,,,,,,,,0,,,60,80
39840,note_on,30,0,1,,,,,,,,,0,,,85,0
39870,note_on,30,0,1,,,,,,,,,0,,,84,0
39870,note_on,0,0,1,,,,,,,,,0,,,86,79
39900,note_on,60,0,3,,,,,,,,,0,,,58,0
39900,note_on,30,0,1,,,,,,,,,0,,,86,0
39900,note_on,0,0,1,,,,,,,,,0,,,87,78
39900,note_on,0,0,3,,,,,,,,,0,,,57,78
39930,note_on,30,0,3,,,,,,,,,0,,,57,0
39930,note_on,30,0,1,,,,,,,,,0,,,87,0
39930,note_on,0,0,3,,,,,,,,,0,,,55,76
39930,note_on,0,0,1,,,,,,,,,0,,,88,76
39960,note_on,30,0,3,,,,,,,,,0,,,55,0
39960,note_on,0,0,3,,,,,,,,,0,,,57,75
39960,note_on,0,0,1,,,,,,,,,0,,,89,75
39960,note_on,30,0,1,,,,,,,,,0,,,88,0
39990,note_on,30,0,1,,,,,,,,,0,,,89,0
39990,note_on,0,0,1,,,,,,,,,0,,,91,73
40020,note_on,30,0,1,,,,,,,,,0,,,91,0
40020,note_on,60,0,3,,,,,,,,,0,,,60,0
40020,note_on,0,0,1,,,,,,,,,0,,,87,72
40020,note_on,0,0,3,,,,,,,,,0,,,60,72
40020,note_on,0,0,3,,,,,,,,,0,,,63,72
40050,note_on,0,0,1,,,,,,,,,0,,,84,71
40050,note_on,30,0,1,,,,,,,,,0,,,87,0
40080,note_on,0,0,3,,,,,,,,,0,,,63,0
40080,note_on,0,0,1,,,,,,,,,0,,,82,69
40080,note_on,0,0,3,,,,,,,,,0,,,62,79
40080,note_on,0,0,3,,,,,,,,,0,,,58,79
40080,note_on,0,0,3,,,,,,,,,0,,,57,0
40080,note_on,0,0,3,,,,,,,,,0,,,53,0
40080,note_on,60,0,3,,,,,,,,,0,,,60,0
40080,note_on,30,0,1,,,,,,,,,0,,,84,0
40110,note_on,30,0,1,,,,,,,,,0,,,82,0
40110,note_on,0,0,1,,,,,,,,,0,,,77,68
40140,note_on,30,0,1,,,,,,,,,0,,,77,0
40140,note_on,0,0,1,,,,,,,,,0,,,74,66
40170,note_on,0,0,1,,,,,,,,,0,,,70,65
40170,note_on,30,0,1,,,,,,,,,0,,,74,0
40200,note_on,30,0,1,,,,,,,,,0,,,70,0
40200,note_on,0,0,1,,,,,,,,,0,,,69,63
40230,note_on,30,0,1,,,,,,,,,0,,,69,0
40230,note_on,0,0,1,,,,,,,,,0,,,70,62
40260,note_on,30,0,1,,,,,,,,,0,,,70,0
40260,note_on,0,0,1,,,,,,,,,0,,,72,61
40290,note_on,30,0,1,,,,,,,,,0,,,72,0
40290,note_on,0,0,1,,,,,,,,,0,,,73,60
40320,control_change,600,0,4,,,,,,,,,0,64,127,,
40320,note_on,240,0,3,,,,,,,,,0,,,58,0
40320,note_on,0,0,3,,,,,,,,,0,,,62,0
40320,note_on,0,0,3,,,,,,,,,0,,,50,110
40320,note_on,30,0,1,,,,,,,,,0,,,73,0
40320,note_on,0,0,1,,,,,,,,,0,,,74,100
40350,note_on,30,0,1,,,,,,,,,0,,,74,0
40380,note_on,0,0,3,,,,,,,,,0,,,54,110
40380,note_on,60,0,3,,,,,,,,,0,,,50,0
40380,note_on,0,0,1,,,,,,,,,0,,,69,100
40380,note_on,30,0,1,,,,,,,,,0,,,74,100
40380,note_on,0,0,1,,,,,,,,,0,,,66,100
40380,note_on,0,0,1,,,,,,,,,0,,,72,100
40410,note_on,0,0,3,,,,,,,,,0,,,57,110
40410,note_on,30,0,3,,,,,,,,,0,,,54,0
40440,control_change,120,0,4,,,,,,,,,0,64,0,,
40440,note_on,30,0,3,,,,,,,,,0,,,57,0
40440,note_on,0,0,3,,,,,,,,,0,,,61,110
40470,note_on,0,0,3,,,,,,,,,0,,,62,110
40470,note_on,30,0,3,,,,,,,,,0,,,61,0
40500,note_on,0,0,1,,,,,,,,,0,,,74,0
40500,note_on,0,0,3,,,,,,,,,0,,,50,110
40500,note_on,30,0,3,,,,,,,,,0,,,62,0
40500,note_on,120,0,1,,,,,,,,,0,,,66,0
40500,note_on,0,0,1,,,,,,,,,0,,,72,0
40500,note_on,0,0,1,,,,,,,,,0,,,69,0
40500,note_on,0,0,1,,,,,,,,,0,,,74,100
40500,note_on,0,0,1,,,,,,,,,0,,,72,100
40500,note_on,0,0,1,,,,,,,,,0,,,66,100
40500,note_on,0,0,1,,,,,,,,,0,,,69,100
40530,note_on,0,0,1,,,,,,,,,0,,,74,0
40530,note_on,0,0,3,,,,,,,,,0,,,62,110
40530,note_on,0,0,1,,,,,,,,,0,,,72,0
40530,note_on,0,0,1,,,,,,,,,0,,,69,0
40530,note_on,30,0,3,,,,,,,,,0,,,50,0
40530,note_on,30,0,1,,,,,,,,,0,,,66,0
40560,note_on,0,0,3,,,,,,,,,0,,,46,110
40560,control_change,120,0,4,,,,,,,,,0,64,127,,
40560,note_on,30,0,3,,,,,,,,,0,,,62,0
40590,note_on,0,0,3,,,,,,,,,0,,,58,110
40590,note_on,30,0,3,,,,,,,,,0,,,46,0
40620,note_on,0,0,3,,,,,,,,,0,,,45,110
40620,note_on,30,0,3,,,,,,,,,0,,,58,0
40620,note_on,0,0,1,,,,,,,,,0,,,67,100
40620,note_on,0,0,1,,,,,,,,,0,,,70,100
40620,note_on,0,0,1,,,,,,,,,0,,,74,100
40620,note_on,90,0,1,,,,,,,,,0,,,79,100
40650,note_on,30,0,3,,,,,,,,,0,,,45,0
40650,note_on,0,0,3,,,,,,,,,0,,,57,110
40680,note_on,0,0,3,,,,,,,,,0,,,43,110
40680,control_change,120,0,4,,,,,,,,,0,64,0,,
40680,note_on,30,0,3,,,,,,,,,0,,,57,0
40710,note_on,30,0,3,,,,,,,,,0,,,43,0
40710,note_on,0,0,3,,,,,,,,,0,,,55,110
40740,note_on,30,0,3,,,,,,,,,0,,,55,0
40740,note_on,0,0,3,,,,,,,,,0,,,42,110
40740,note_on,0,0,1,,,,,,,,,0,,,79,100
40740,note_on,0,0,1,,,,,,,,,0,,,70,0
40740,note_on,0,0,1,,,,,,,,,0,,,79,0
40740,note_on,0,0,1,,,,,,,,,0,,,74,100
40740,note_on,0,0,1,,,,,,,,,0,,,70,100
40740,note_on,0,0,1,,,,,,,,,0,,,67,100
40740,note_on,0,0,1,,,,,,,,,0,,,74,0
40740,note_on,120,0,1,,,,,,,,,0,,,67,0
40770,note_on,30,0,3,,,,,,,,,0,,,42,0
40770,note_on,0,0,3,,,,,,,,,0,,,54,110
40770,note_on,0,0,1,,,,,,,,,0,,,74,0
40770,note_on,0,0,1,,,,,,,,,0,,,79,0
40770,note_on,30,0,1,,,,,,,,,0,,,67,0
40770,note_on,0,0,1,,,,,,,,,0,,,70,0
40800,note_on,30,0,3,,,,,,,,,0,,,54,0
40800,note_on,0,0,3,,,,,,,,,0,,,43,110
40800,control_change,120,0,4,,,,,,,,,0,64,127,,
40830,note_on,0,0,3,,,,,,,,,0,,,55,110
40830,note_on,30,0,3,,,,,,,,,0,,,43,0
40860,note_on,90,0,1,,,,,,,,,0,,,66,100
40860,note_on,0,0,1,,,,,,,,,0,,,74,100
40860,note_on,0,0,3,,,,,,,,,0,,,45,110
40860,note_on,30,0,3,,,,,,,,,0,,,55,0
40890,note_on,0,0,3,,,,,,,,,0,,,57,110
40890,note_on,30,0,3,,,,,,,,,0,,,45,0
40920,note_on,0,0,3,,,,,,,,,0,,,46,110
40920,note_on,0,0,1,,,,,,,,,0,,,67,100
40920,note_on,60,0,1,,,,,,,,,0,,,66,0
40920,control_change,120,0,4,,,,,,,,,0,64,0,,
40920,note_on,30,0,3,,,,,,,,,0,,,57,0
40950,note_on,30,0,3,,,,,,,,,0,,,46,0
40950,note_on,0,0,3,,,,,,,,,0,,,58,110
40980,note_on,0,0,1,,,,,,,,,0,,,65,100
40980,note_on,0,0,1,,,,,,,,,0,,,74,0
40980,note_on,60,0,1,,,,,,,,,0,,,67,0
40980,note_on,0,0,1,,,,,,,,,0,,,74,100
40980,note_on,0,0,1,,,,,,,,,0,,,67,100
40980,note_on,0,0,1,,,,,,,,,0,,,77,100
40980,note_on,30,0,3,,,,,,,,,0,,,58,0
40980,note_on,0,0,3,,,,,,,,,0,,,47,110
41010,note_on,30,0,3,,,,,,,,,0,,,47,0
41010,note_on,0,0,3,,,,,,,,,0,,,59,110
41010,note_on,0,0,1,,,,,,,,,0,,,77,0
41010,note_on,30,0,1,,,,,,,,,0,,,74,0
41040,note_on,0,0,1,,,,,,,,,0,,,76,100
41040,note_on,30,0,3,,,,,,,,,0,,,59,0
41040,note_on,0,0,3,,,,,,,,,0,,,48,110
41040,control_change,120,0,4,,,,,,,,,0,64,127,,
41040,note_on,0,0,1,,,,,,,,,0,,,72,100
41040,note_on,30,0,1,,,,,,,,,0,,,67,0
41040,note_on,0,0,1,,,,,,,,,0,,,65,0
41040,note_on,0,0,1,,,,,,,,,0,,,64,100
41040,note_on,0,0,1,,,,,,,,,0,,,67,100
41100,note_on,0,0,3,,,,,,,,,0,,,52,110
41100,note_on,60,0,3,,,,,,,,,0,,,48,0
41130,note_on,30,0,3,,,,,,,,,0,,,52,0
41130,note_on,0,0,3,,,,,,,,,0,,,55,110
41160,control_change,120,0,4,,,,,,,,,0,64,0,,
41160,note_on,0,0,3,,,,,,,,,0,,,59,110
41160,note_on,30,0,3,,,,,,,,,0,,,55,0
41190,note_on,0,0,3,,,,,,,,,0,,,60,110
41190,note_on,30,0,3,,,,,,,,,0,,,59,0
41220,note_on,0,0,3,,,,,,,,,0,,,48,110
41220,note_on,30,0,3,,,,,,,,,0,,,60,0
41220,note_on,180,0,1,,,,,,,,,0,,,72,0
41220,note_on,0,0,1,,,,,,,,,0,,,70,100
41250,note_on,0,0,3,,,,,,,,,0,,,60,110
41250,note_on,30,0,3,,,,,,,,,0,,,48,0
41280,control_change,120,0,4,,,,,,,,,0,64,127,,
41280,note_on,0,0,3,,,,,,,,,0,,,41,110
41280,note_on,0,0,1,,,,,,,,,0,,,67,0
41280,note_on,60,0,1,,,,,,,,,0,,,70,0
41280,note_on,0,0,1,,,,,,,,,0,,,76,0
41280,note_on,30,0,3,,,,,,,,,0,,,60,0
41280,note_on,0,0,1,,,,,,,,,0,,,64,0
41340,note_on,0,0,3,,,,,,,,,0,,,45,110
41340,note_on,60,0,3,,,,,,,,,0,,,41,0
41340,note_on,60,0,1,,,,,,,,,0,,,81,100
41340,note_on,0,0,1,,,,,,,,,0,,,77,100
41340,note_on,0,0,1,,,,,,,,,0,,,69,100
41340,note_on,0,0,1,,,,,,,,,0,,,72,100
41370,note_on,30,0,3,,,,,,,,,0,,,45,0
41370,note_on,0,0,3,,,,,,,,,0,,,48,110
41400,note_on,0,0,3,,,,,,,,,0,,,52,110
41400,control_change,120,0,4,,,,,,,,,0,64,0,,
41400,note_on,30,0,3,,,,,,,,,0,,,48,0
41430,note_on,0,0,3,,,,,,,,,0,,,53,110
41430,note_on,30,0,3,,,,,,,,,0,,,52,0
41460,note_on,0,0,1,,,,,,,,,0,,,69,100
41460,note_on,0,0,1,,,,,,,,,0,,,81,0
41460,note_on,0,0,1,,,,,,,,,0,,,77,0
41460,note_on,0,0,1,,,,,,,,,0,,,72,0
41460,note_on,0,0,1,,,,,,,,,0,,,81,100
41460,note_on,0,0,1,,,,,,,,,0,,,77,100
41460,note_on,0,0,1,,,,,,,,,0,,,72,100
41460,note_on,120,0,1,,,,,,,,,0,,,69,0
41460,note_on,30,0,3,,,,,,,,,0,,,53,0
41460,note_on,0,0,3,,,,,,,,,0,,,57,110
41490,note_on,0,0,1,,,,,,,,,0,,,77,0
41490,note_on,0,0,1,,,,,,,,,0,,,81,0
41490,note_on,30,0,1,,,,,,,,,0,,,69,0
41490,note_on,30,0,3,,,,,,,,,0,,,57,0
41490,note_on,0,0,3,,,,,,,,,0,,,60,110
41490,note_on,0,0,1,,,,,,,,,0,,,72,0
41520,note_on,30,0,3,,,,,,,,,0,,,60,0
41520,note_on,0,0,3,,,,,,,,,0,,,46,100
41520,note_on,30,0,1,,,,,,,,,0,,,74,110
41520,control_change,120,0,4,,,,,,,,,0,64,127,,
41580,note_on,0,0,3,,,,,,,,,0,,,62,100
41580,note_on,0,0,3,,,,,,,,,0,,,65,100
41580,note_on,60,0,3,,,,,,,,,0,,,46,0
41580,note_on,0,0,1,,,,,,,,,0,,,79,110
41580,note_on,60,0,1,,,,,,,,,0,,,74,0
41580,note_on,0,0,3,,,,,,,,,0,,,55,100
41610,note_on,0,0,1,,,,,,,,,0,,,82,110
41610,note_on,30,0,1,,,,,,,,,0,,,79,0
41640,control_change,120,0,4,,,,,,,,,0,64,0,,
41640,note_on,30,0,1,,,,,,,,,0,,,82,0
41640,note_on,0,0,1,,,,,,,,,0,,,85,110
41670,note_on,30,0,1,,,,,,,,,0,,,85,0
41670,note_on,0,0,1,,,,,,,,,0,,,86,110
41700,note_on,30,0,1,,,,,,,,,0,,,86,0
41700,note_on,120,0,3,,,,,,,,,0,,,55,0
41700,note_on,0,0,3,,,,,,,,,0,,,62,0
41700,note_on,0,0,3,,,,,,,,,0,,,65,0
41700,note_on,0,0,3,,,,,,,,,0,,,65,100
41700,note_on,0,0,3,,,,,,,,,0,,,62,100
41700,note_on,0,0,3,,,,,,,,,0,,,55,100
41700,note_on,0,0,1,,,,,,,,,0,,,91,110
41730,note_on,30,0,3,,,,,,,,,0,,,55,0
41730,note_on,0,0,1,,,,,,,,,0,,,94,110
41730,note_on,30,0,1,,,,,,,,,0,,,91,0
41730,note_on,0,0,3,,,,,,,,,0,,,65,0
41730,note_on,0,0,3,,,,,,,,,0,,,62,0
41760,note_on,30,0,3,,,,,,,,,0,,,48,100
41760,note_on,0,0,1,,,,,,,,,0,,,88,110
41760,note_on,30,0,1,,,,,,,,,0,,,94,0
41760,control_change,120,0,4,,,,,,,,,0,64,127,,
41790,note_on,0,0,1,,,,,,,,,0,,,96,108
41790,note_on,30,0,1,,,,,,,,,0,,,88,0
41790,note_on,30,0,3,,,,,,,,,0,,,48,0
41820,note_on,0,0,3,,,,,,,,,0,,,55,95
41820,note_on,0,0,3,,,,,,,,,0,,,58,95
41820,note_on,0,0,3,,,,,,,,,0,,,60,95
41820,note_on,30,0,3,,,,,,,,,0,,,64,95
41820,note_on,30,0,1,,,,,,,,,0,,,96,0
41820,note_on,0,0,1,,,,,,,,,0,,,94,105
41835,note_on,15,0,1,,,,,,,,,0,,,94,0
41850,note_on,15,0,1,,,,,,,,,0,,,91,102
41865,note_on,15,0,1,,,,,,,,,0,,,91,0
41880,note_on,15,0,1,,,,,,,,,0,,,88,100
41880,control_change,120,0,4,,,,,,,,,0,64,0,,
41895,note_on,15,0,1,,,,,,,,,0,,,88,0
41910,note_on,15,0,1,,,,,,,,,0,,,84,97
41925,note_on,15,0,1,,,,,,,,,0,,,84,0
41940,note_on,15,0,1,,,,,,,,,0,,,82,94
41940,note_on,0,0,3,,,,,,,,,0,,,60,84
41940,note_on,120,0,3,,,,,,,,,0,,,55,0
41940,note_on,0,0,3,,,,,,,,,0,,,64,0
41940,note_on,0,0,3,,,,,,,,,0,,,60,0
41940,note_on,0,0,3,,,,,,,,,0,,,58,0
41940,note_on,0,0,3,,,,,,,,,0,,,64,84
41955,note_on,15,0,1,,,,,,,,,0,,,82,0
41970,note_on,15,0,1,,,,,,,,,0,,,79,91
41985,note_on,15,0,1,,,,,,,,,0,,,79,0
42000,control_change,120,0,4,,,,,,,,,0,64,127,,
42000,note_on,15,0,1,,,,,,,,,0,,,77,79
42000,note_on,60,0,3,,,,,,,,,0,,,60,0
42000,note_on,0,0,3,,,,,,,,,0,,,53,89
42000,note_on,0,0,3,,,,,,,,,0,,,64,0
42030,note_on,30,0,3,,,,,,,,,0,,,53,0
42030,note_on,30,0,1,,,,,,,,,0,,,77,0
42030,note_on,0,0,3,,,,,,,,,0,,,63,86
42060,note_on,30,0,3,,,,,,,,,0,,,63,0
42060,note_on,0,0,3,,,,,,,,,0,,,60,83
42060,note_on,0,0,1,,,,,,,,,0,,,69,73
42060,note_on,0,0,1,,,,,,,,,0,,,72,73
42060,note_on,0,0,1,,,,,,,,,0,,,75,73
42060,note_on,30,0,1,,,,,,,,,0,,,77,73
42075,note_on,15,0,3,,,,,,,,,0,,,60,0
42090,note_on,15,0,3,,,,,,,,,0,,,57,81
42105,note_on,15,0,3,,,,,,,,,0,,,57,0
42120,control_change,120,0,4,,,,,,,,,0,64,0,,
42120,note_on,15,0,3,,,,,,,,,0,,,53,78
42135,note_on,15,0,3,,,,,,,,,0,,,53,0
42150,note_on,15,0,3,,,,,,,,,0,,,51,75
42165,note_on,15,0,3,,,,,,,,,0,,,51,0
42180,note_on,15,0,3,,,,,,,,,0,,,48,72
42195,note_on,15,0,3,,,,,,,,,0,,,48,0
42210,note_on,15,0,3,,,,,,,,,0,,,53,70
42225,note_on,15,0,3,,,,,,,,,0,,,53,0
42240,note_on,180,0,1,,,,,,,,,0,,,69,0
42240,note_on,15,0,3,,,,,,,,,0,,,46,70
42240,note_on,0,0,1,,,,,,,,,0,,,86,60
42240,note_on,0,0,1,,,,,,,,,0,,,72,0
42240,note_on,0,0,1,,,,,,,,,0,,,75,0
42240,note_on,0,0,1,,,,,,,,,0,,,77,0
42240,control_change,120,0,4,,,,,,,,,0,64,127,,
42270,note_on,30,0,3,,,,,,,,,0,,,46,0
42300,note_on,60,0,1,,,,,,,,,0,,,86,0
42300,note_on,0,0,1,,,,,,,,,0,,,85,60
42300,note_on,0,0,3,,,,,,,,,0,,,53,60
42300,note_on,0,0,3,,,,,,,,,0,,,58,60
42300,note_on,30,0,3,,,,,,,,,0,,,62,60
42330,note_on,30,0,1,,,,,,,,,0,,,85,0
42330,note_on,0,0,1,,,,,,,,,0,,,86,60
42360,control_change,120,0,4,,,,,,,,,0,64,0,,
42360,note_on,30,0,1,,,,,,,,,0,,,86,0
42360,note_on,0,0,1,,,,,,,,,0,,,85,60
42390,note_on,0,0,1,,,,,,,,,0,,,86,60
42390,note_on,30,0,1,,,,,,,,,0,,,85,0
42420,note_on,30,0,1,,,,,,,,,0,,,86,0
42420,note_on,120,0,3,,,,,,,,,0,,,53,0
42420,note_on,0,0,1,,,,,,,,,0,,,89,60
42420,note_on,0,0,3,,,,,,,,,0,,,58,0
42420,note_on,0,0,3,,,,,,,,,0,,,62,0
42420,note_on,0,0,3,,,,,,,,,0,,,62,60
42420,note_on,0,0,3,,,,,,,,,0,,,58,60
42420,note_on,0,0,3,,,,,,,,,0,,,53,60
42450,note_on,30,0,1,,,,,,,,,0,,,89,0
42450,note_on,0,0,1,,,,,,,,,0,,,86,60
42480,control_change,120,0,4,,,,,,,,,0,64,127,,
42480,note_on,60,0,3,,,,,,,,,0,,,53,0
42480,note_on,0,0,3,,,,,,,,,0,,,62,0
42480,note_on,0,0,3,,,,,,,,,0,,,50,70
42480,note_on,0,0,1,,,,,,,,,0,,,84,80
42480,note_on,30,0,1,,,,,,,,,0,,,86,0
42480,note_on,0,0,3,,,,,,,,,0,,,58,0
42510,note_on,30,0,3,,,,,,,,,0,,,50,0
42540,note_on,30,0,3,,,,,,,,,0,,,65,60
42540,note_on,0,0,3,,,,,,,,,0,,,56,60
42540,note_on,0,0,3,,,,,,,,,0,,,58,60
42600,note_on,120,0,1,,,,,,,,,0,,,84,0
42600,control_change,120,0,4,,,,,,,,,0,64,0,,
42600,note_on,0,0,1,,,,,,,,,0,,,82,60
42660,note_on,60,0,1,,,,,,,,,0,,,82,0
42660,note_on,0,0,3,,,,,,,,,0,,,56,60
42660,note_on,0,0,3,,,,,,,,,0,,,58,60
42660,note_on,0,0,3,,,,,,,,,0,,,65,60
42660,note_on,0,0,3,,,,,,,,,0,,,65,0
42660,note_on,0,0,3,,,,,,,,,0,,,58,0
42660,note_on,120,0,3,,,,,,,,,0,,,56,0
42705,note_on,45,0,1,,,,,,,,,0,,,82,60
42720,note_on,15,0,1,,,,,,,,,0,,,82,0
42720,note_on,0,0,1,,,,,,,,,0,,,81,60
42720,note_on,0,0,3,,,,,,,,,0,,,51,70
42720,note_on,0,0,3,,,,,,,,,0,,,65,0
42720,note_on,0,0,3,,,,,,,,,0,,,58,0
42720,control_change,120,0,4,,,,,,,,,0,64,127,,
42720,note_on,60,0,3,,,,,,,,,0,,,56,0
42750,note_on,30,0,1,,,,,,,,,0,,,81,0
42750,note_on,0,0,1,,,,,,,,,0,,,82,60
42750,note_on,30,0,3,,,,,,,,,0,,,51,0
42780,note_on,0,0,3,,,,,,,,,0,,,58,60
42780,note_on,30,0,1,,,,,,,,,0,,,82,0
42780,note_on,0,0,1,,,,,,,,,0,,,84,60
42780,note_on,0,0,3,,,,,,,,,0,,,55,60
42780,note_on,30,0,3,,,,,,,,,0,,,63,60
42810,note_on,0,0,1,,,,,,,,,0,,,86,60
42810,note_on,30,0,1,,,,,,,,,0,,,84,0
42840,control_change,120,0,4,,,,,,,,,0,64,0,,
42840,note_on,0,0,1,,,,,,,,,0,,,87,60
42840,note_on,30,0,1,,,,,,,,,0,,,86,0
42870,note_on,30,0,1,,,,,,,,,0,,,87,0
42870,note_on,0,0,1,,,,,,,,,0,,,88,60
42900,note_on,0,0,3,,,,,,,,,0,,,63,60
42900,note_on,0,0,3,,,,,,,,,0,,,63,0
42900,note_on,0,0,3,,,,,,,,,0,,,58,0
42900,note_on,120,0,3,,,,,,,,,0,,,55,0
42900,note_on,0,0,3,,,,,,,,,0,,,55,60
42900,note_on,0,0,3,,,,,,,,,0,,,58,60
42900,note_on,0,0,1,,,,,,,,,0,,,89,60
42900,note_on,30,0,1,,,,,,,,,0,,,88,0
42930,note_on,0,0,1,,,,,,,,,0,,,90,60
42930,note_on,30,0,1,,,,,,,,,0,,,89,0
42960,control_change,120,0,4,,,,,,,,,0,64,127,,
42960,note_on,60,0,3,,,,,,,,,0,,,55,0
42960,note_on,0,0,3,,,,,,,,,0,,,58,0
42960,note_on,0,0,1,,,,,,,,,0,,,91,60
42960,note_on,0,0,3,,,,,,,,,0,,,63,0
42960,note_on,30,0,1,,,,,,,,,0,,,90,0
42960,note_on,0,0,3,,,,,,,,,0,,,52,70
42972,note_on,0,0,1,,,,,,,,,0,,,93,60
42972,note_on,12,0,1,,,,,,,,,0,,,91,0
42984,note_on,0,0,1,,,,,,,,,0,,,91,60
42984,note_on,12,0,1,,,,,,,,,0,,,93,0
42990,note_on,30,0,3,,,,,,,,,0,,,52,0
42996,note_on,0,0,1,,,,,,,,,0,,,90,60
42996,note_on,12,0,1,,,,,,,,,0,,,91,0
43008,note_on,0,0,1,,,,,,,,,0,,,91,60
43008,note_on,12,0,1,,,,,,,,,0,,,90,0
43020,note_on,0,0,3,,,,,,,,,0,,,58,60
43020,note_on,0,0,3,,,,,,,,,0,,,61,60
43020,note_on,30,0,3,,,,,,,,,0,,,67,60
43050,note_on,42,0,1,,,,,,,,,0,,,91,0
43050,note_on,0,0,1,,,,,,,,,0,,,93,60
43080,note_on,30,0,1,,,,,,,,,0,,,93,0
43080,note_on,0,0,1,,,,,,,,,0,,,94,60
43080,control_change,120,0,4,,,,,,,,,0,64,0,,
43110,note_on,30,0,1,,,,,,,,,0,,,94,0
43140,note_on,0,0,3,,,,,,,,,0,,,61,60
43140,note_on,120,0,3,,,,,,,,,0,,,58,0
43140,note_on,0,0,3,,,,,,,,,0,,,61,0
43140,note_on,0,0,3,,,,,,,,,0,,,67,0
43140,note_on,0,0,3,,,,,,,,,0,,,67,60
43140,note_on,0,0,3,,,,,,,,,0,,,58,60
43200,note_on,0,0,3,,,,,,,,,0,,,55,50
43200,note_on,90,0,1,,,,,,,,,0,,,72,40
43200,note_on,0,0,3,,,,,,,,,0,,,61,0
43200,note_on,60,0,3,,,,,,,,,0,,,58,0
43200,note_on,0,0,3,,,,,,,,,0,,,67,0
43200,control_change,120,0,4,,,,,,,,,0,64,127,,
43215,note_on,15,0,1,,,,,,,,,0,,,72,0
43215,note_on,0,0,1,,,,,,,,,0,,,74,40
43230,note_on,15,0,1,,,,,,,,,0,,,74,0
43230,note_on,0,0,1,,,,,,,,,0,,,72,40
43230,note_on,30,0,3,,,,,,,,,0,,,55,0
43260,note_on,30,0,1,,,,,,,,,0,,,72,0
43260,note_on,0,0,1,,,,,,,,,0,,,71,40
43260,note_on,30,0,3,,,,,,,,,0,,,64,40
43260,note_on,0,0,3,,,,,,,,,0,,,60,40
43260,note_on,0,0,3,,,,,,,,,0,,,58,40
43290,note_on,0,0,1,,,,,,,,,0,,,72,40
43290,note_on,30,0,1,,,,,,,,,0,,,71,0
43320,note_on,30,0,1,,,,,,,,,0,,,72,0
43320,control_change,120,0,4,,,,,,,,,0,64,0,,
43320,note_on,0,0,1,,,,,,,,,0,,,76,40
43350,note_on,0,0,1,,,,,,,,,0,,,82,40
43350,note_on,30,0,1,,,,,,,,,0,,,76,0
43380,note_on,0,0,1,,,,,,,,,0,,,79,40
43380,note_on,30,0,1,,,,,,,,,0,,,82,0
43380,note_on,0,0,3,,,,,,,,,0,,,58,40
43380,note_on,120,0,3,,,,,,,,,0,,,58,0
43380,note_on,0,0,3,,,,,,,,,0,,,60,0
43380,note_on,0,0,3,,,,,,,,,0,,,64,0
43380,note_on,0,0,3,,,,,,,,,0,,,64,40
43380,note_on,0,0,3,,,,,,,,,0,,,60,40
43410,note_on,30,0,1,,,,,,,,,0,,,79,0
43410,note_on,0,0,1,,,,,,,,,0,,,76,40
43440,note_on,0,0,3,,,,,,,,,0,,,64,0
43440,note_on,60,0,3,,,,,,,,,0,,,58,0
43440,control_change,120,0,4,,,,,,,,,0,64,127,,
43440,note_on,30,0,1,,,,,,,,,0,,,76,0
43440,note_on,0,0,1,,,,,,,,,0,,,77,40
43440,note_on,0,0,3,,,,,,,,,0,,,53,50
43440,note_on,0,0,3,,,,,,,,,0,,,60,0
43455,note_on,0,0,1,,,,,,,,,0,,,79,40
43455,note_on,15,0,1,,,,,,,,,0,,,77,0
43470,note_on,30,0,3,,,,,,,,,0,,,53,0
43470,note_on,15,0,1,,,,,,,,,0,,,79,0
43470,note_on,0,0,1,,,,,,,,,0,,,77,40
43500,note_on,0,0,3,,,,,,,,,0,,,58,40
43500,note_on,0,0,1,,,,,,,,,0,,,76,40
43500,note_on,30,0,3,,,,,,,,,0,,,65,40
43500,note_on,30,0,1,,,,,,,,,0,,,77,0
43500,note_on,0,0,3,,,,,,,,,0,,,62,40
43530,note_on,30,0,1,,,,,,,,,0,,,76,0
43530,note_on,0,0,1,,,,,,,,,0,,,77,40
43560,control_change,120,0,4,,,,,,,,,0,64,0,,
43560,note_on,30,0,1,,,,,,,,,0,,,77,0
43560,note_on,0,0,1,,,,,,,,,0,,,82,40
43590,note_on,30,0,1,,,,,,,,,0,,,82,0
43590,note_on,0,0,1,,,,,,,,,0,,,89,40
43620,note_on,30,0,1,,,,,,,,,0,,,89,0
43620,note_on,0,0,3,,,,,,,,,0,,,58,40
43620,note_on,0,0,3,,,,,,,,,0,,,62,40
43620,note_on,0,0,3,,,,,,,,,0,,,65,40
43620,note_on,0,0,3,,,,,,,,,0,,,65,0
43620,note_on,0,0,3,,,,,,,,,0,,,62,0
43620,note_on,120,0,3,,,,,,,,,0,,,58,0
43620,note_on,0,0,1,,,,,,,,,0,,,86,40
43650,note_on,0,0,1,,,,,,,,,0,,,82,40
43650,note_on,30,0,1,,,,,,,,,0,,,86,0
43680,note_on,0,0,3,,,,,,,,,0,,,62,0
43680,note_on,30,0,1,,,,,,,,,0,,,82,0
43680,note_on,60,0,3,,,,,,,,,0,,,58,0
43680,note_on,0,0,3,,,,,,,,,0,,,53,50
43680,note_on,0,0,3,,,,,,,,,0,,,65,0
43680,note_on,0,0,1,,,,,,,,,0,,,81,40
43695,note_on,15,0,1,,,,,,,,,0,,,81,0
43710,note_on,30,0,3,,,,,,,,,0,,,53,0
43710,note_on,15,0,1,,,,,,,,,0,,,82,40
43725,note_on,15,0,1,,,,,,,,,0,,,82,0
43740,note_on,15,0,1,,,,,,,,,0,,,84,40
43740,note_on,0,0,3,,,,,,,,,0,,,60,40
43740,note_on,0,0,3,,,,,,,,,0,,,63,40
43740,note_on,30,0,3,,,,,,,,,0,,,65,40
43755,note_on,15,0,1,,,,,,,,,0,,,84,0
43770,note_on,15,0,1,,,,,,,,,0,,,86,40
43785,note_on,15,0,1,,,,,,,,,0,,,86,0
43800,note_on,15,0,1,,,,,,,,,0,,,87,40
43815,note_on,15,0,1,,,,,,,,,0,,,87,0
43830,note_on,15,0,1,,,,,,,,,0,,,89,40
43845,note_on,15,0,1,,,,,,,,,0,,,89,0
43860,note_on,0,0,3,,,,,,,,,0,,,60,40
43860,note_on,0,0,3,,,,,,,,,0,,,63,40
43860,note_on,0,0,3,,,,,,,,,0,,,65,40
43860,note_on,0,0,3,,,,,,,,,0,,,65,0
43860,note_on,0,0,3,,,,,,,,,0,,,63,0
43860,note_on,120,0,3,,,,,,,,,0,,,60,0
43860,note_on,15,0,1,,,,,,,,,0,,,91,40
43875,note_on,15,0,1,,,,,,,,,0,,,91,0
43890,note_on,15,0,1,,,,,,,,,0,,,93,40
43905,note_on,15,0,1,,,,,,,,,0,,,93,0
43905,note_on,0,0,1,,,,,,,,,0,,,96,40
43920,note_on,0,0,3,,,,,,,,,0,,,46,50
43920,note_on,0,0,3,,,,,,,,,0,,,65,0
43920,note_on,0,0,3,,,,,,,,,0,,,63,0
43920,note_on,60,0,3,,,,,,,,,0,,,60,0
43920,note_on,0,0,1,,,,,,,,,0,,,94,40
43920,note_on,15,0,1,,,,,,,,,0,,,96,0
43935,note_on,15,0,1,,,,,,,,,0,,,94,0
43950,note_on,30,0,3,,,,,,,,,0,,,46,0
43950,note_on,15,0,1,,,,,,,,,0,,,89,40
43965,note_on,15,0,1,,,,,,,,,0,,,89,0
43980,note_on,0,0,3,,,,,,,,,0,,,58,40
43980,note_on,15,0,1,,,,,,,,,0,,,86,40
43980,note_on,0,0,3,,,,,,,,,0,,,62,40
43980,note_on,30,0,3,,,,,,,,,0,,,65,40
43995,note_on,15,0,1,,,,,,,,,0,,,86,0
44010,note_on,15,0,1,,,,,,,,,0,,,82,40
44025,note_on,15,0,1,,,,,,,,,0,,,82,0
44040,note_on,15,0,1,,,,,,,,,0,,,77,40
44055,note_on,15,0,1,,,,,,,,,0,,,77,0
44070,note_on,15,0,1,,,,,,,,,0,,,74,40
44085,note_on,15,0,1,,,,,,,,,0,,,74,0
44100,note_on,15,0,1,,,,,,,,,0,,,70,40
44115,note_on,15,0,1,,,,,,,,,0,,,70,0
44130,note_on,15,0,1,,,,,,,,,0,,,72,40
44145,note_on,15,0,1,,,,,,,,,0,,,72,0
44160,note_on,0,0,3,,,,,,,,,0,,,62,0
44160,note_on,0,0,3,,,,,,,,,0,,,50,110
44160,note_on,180,0,3,,,,,,,,,0,,,58,0
44160,note_on,0,0,3,,,,,,,,,0,,,65,0
44160,control_change,600,0,4,,,,,,,,,0,64,127,,
44160,note_on,15,0,1,,,,,,,,,0,,,74,100
44190,note_on,30,0,1,,,,,,,,,0,,,74,0
44220,note_on,0,0,1,,,,,,,,,0,,,69,100
44220,note_on,30,0,1,,,,,,,,,0,,,74,100
44220,note_on,0,0,3,,,,,,,,,0,,,54,110
44220,note_on,60,0,3,,,,,,,,,0,,,50,0
44220,note_on,0,0,1,,,,,,,,,0,,,72,100
44220,note_on,0,0,1,,,,,,,,,0,,,66,100
44250,note_on,0,0,3,,,,,,,,,0,,,57,110
44250,note_on,30,0,3,,,,,,,,,0,,,54,0
44280,control_change,120,0,4,,,,,,,,,0,64,0,,
44280,note_on,30,0,3,,,,,,,,,0,,,57,0
44280,note_on,0,0,3,,,,,,,,,0,,,61,110
44310,note_on,0,0,3,,,,,,,,,0,,,62,110
44310,note_on,30,0,3,,,,,,,,,0,,,61,0
44340,note_on,0,0,1,,,,,,,,,0,,,69,100
44340,note_on,0,0,1,,,,,,,,,0,,,74,100
44340,note_on,0,0,1,,,,,,,,,0,,,69,0
44340,note_on,0,0,1,,,,,,,,,0,,,72,0
44340,note_on,0,0,1,,,,,,,,,0,,,74,0
44340,note_on,120,0,1,,,,,,,,,0,,,66,0
44340,note_on,0,0,1,,,,,,,,,0,,,66,100
44340,note_on,0,0,1,,,,,,,,,0,,,72,100
44340,note_on,30,0,3,,,,,,,,,0,,,62,0
44340,note_on,0,0,3,,,,,,,,,0,,,50,110
44370,note_on,0,0,3,,,,,,,,,0,,,62,110
44370,note_on,30,0,1,,,,,,,,,0,,,66,0
44370,note_on,0,0,1,,,,,,,,,0,,,74,0
44370,note_on,0,0,1,,,,,,,,,0,,,72,0
44370,note_on,30,0,3,,,,,,,,,0,,,50,0
44370,note_on,0,0,1,,,,,,,,,0,,,69,0
44400,note_on,30,0,3,,,,,,,,,0,,,62,0
44400,note_on,0,0,3,,,,,,,,,0,,,46,110
44400,control_change,120,0,4,,,,,,,,,0,64,127,,
44430,note_on,30,0,3,,,,,,,,,0,,,46,0
44430,note_on,0,0,3,,,,,,,,,0,,,58,110
44460,note_on,0,0,3,,,,,,,,,0,,,45,110
44460,note_on,0,0,1,,,,,,,,,0,,,67,100
44460,note_on,0,0,1,,,,,,,,,0,,,70,100
44460,note_on,0,0,1,,,,,,,,,0,,,74,100
44460,note_on,90,0,1,,,,,,,,,0,,,79,100
44460,note_on,30,0,3,,,,,,,,,0,,,58,0
44490,note_on,30,0,3,,,,,,,,,0,,,45,0
44490,note_on,0,0,3,,,,,,,,,0,,,57,110
44520,note_on,30,0,3,,,,,,,,,0,,,57,0
44520,note_on,0,0,3,,,,,,,,,0,,,43,110
44520,control_change,120,0,4,,,,,,,,,0,64,0,,
44550,note_on,0,0,3,,,,,,,,,0,,,55,110
44550,note_on,30,0,3,,,,,,,,,0,,,43,0
44580,note_on,120,0,1,,,,,,,,,0,,,67,0
44580,note_on,0,0,1,,,,,,,,,0,,,79,0
44580,note_on,30,0,3,,,,,,,,,0,,,55,0
44580,note_on,0,0,1,,,,,,,,,0,,,74,0
44580,note_on,0,0,1,,,,,,,,,0,,,70,0
44580,note_on,0,0,1,,,,,,,,,0,,,79,100
44580,note_on,0,0,1,,,,,,,,,0,,,74,100
44580,note_on,0,0,1,,,,,,,,,0,,,70,100
44580,note_on,0,0,1,,,,,,,,,0,,,67,100
44580,note_on,0,0,3,,,,,,,,,0,,,42,110
44610,note_on,30,0,1,,,,,,,,,0,,,67,0
44610,note_on,30,0,3,,,,,,,,,0,,,42,0
44610,note_on,0,0,1,,,,,,,,,0,,,74,0
44610,note_on,0,0,1,,,,,,,,,0,,,79,0
44610,note_on,0,0,3,,,,,,,,,0,,,54,110
44610,note_on,0,0,1,,,,,,,,,0,,,70,0
44640,note_on,30,0,3,,,,,,,,,0,,,54,0
44640,note_on,0,0,3,,,,,,,,,0,,,43,110
44640,control_change,120,0,4,,,,,,,,,0,64,127,,
44670,note_on,30,0,3,,,,,,,,,0,,,43,0
44670,note_on,0,0,3,,,,,,,,,0,,,55,110
44700,note_on,90,0,1,,,,,,,,,0,,,66,100
44700,note_on,0,0,1,,,,,,,,,0,,,74,100
44700,note_on,30,0,3,,,,,,,,,0,,,55,0
44700,note_on,0,0,3,,,,,,,,,0,,,45,110
44730,note_on,0,0,3,,,,,,,,,0,,,57,110
44730,note_on,30,0,3,,,,,,,,,0,,,45,0
44760,note_on,0,0,1,,,,,,,,,0,,,67,100
44760,note_on,60,0,1,,,,,,,,,0,,,66,0
44760,note_on,0,0,3,,,,,,,,,0,,,46,110
44760,control_change,120,0,4,,,,,,,,,0,64,0,,
44760,note_on,30,0,3,,,,,,,,,0,,,57,0
44790,note_on,30,0,3,,,,,,,,,0,,,46,0
44790,note_on,0,0,3,,,,,,,,,0,,,58,110
44820,note_on,0,0,1,,,,,,,,,0,,,74,0
44820,note_on,30,0,3,,,,,,,,,0,,,58,0
44820,note_on,0,0,3,,,,,,,,,0,,,47,110
44820,note_on,0,0,1,,,,,,,,,0,,,74,100
44820,note_on,60,0,1,,,,,,,,,0,,,67,0
44820,note_on,0,0,1,,,,,,,,,0,,,77,100
44820,note_on,0,0,1,,,,,,,,,0,,,67,100
44820,note_on,0,0,1,,,,,,,,,0,,,65,100
44850,note_on,0,0,1,,,,,,,,,0,,,77,0
44850,note_on,30,0,1,,,,,,,,,0,,,74,0
44850,note_on,0,0,3,,,,,,,,,0,,,59,110
44850,note_on,30,0,3,,,,,,,,,0,,,47,0
44880,note_on,0,0,1,,,,,,,,,0,,,64,100
44880,note_on,0,0,1,,,,,,,,,0,,,76,100
44880,note_on,0,0,1,,,,,,,,,0,,,67,100
44880,note_on,0,0,1,,,,,,,,,0,,,72,100
44880,note_on,30,0,1,,,,,,,,,0,,,67,0
44880,control_change,120,0,4,,,,,,,,,0,64,127,,
44880,note_on,0,0,3,,,,,,,,,0,,,48,110
44880,note_on,30,0,3,,,,,,,,,0,,,59,0
44880,note_on,0,0,1,,,,,,,,,0,,,65,0
44940,note_on,0,0,3,,,,,,,,,0,,,52,110
44940,note_on,60,0,3,,,,,,,,,0,,,48,0
44970,note_on,0,0,3,,,,,,,,,0,,,55,110
44970,note_on,30,0,3,,,,,,,,,0,,,52,0
45000,note_on,0,0,3,,,,,,,,,0,,,59,110
45000,note_on,30,0,3,,,,,,,,,0,,,55,0
45000,control_change,120,0,4,,,,,,,,,0,64,0,,
45030,note_on,30,0,3,,,,,,,,,0,,,59,0
45030,note_on,0,0,3,,,,,,,,,0,,,60,110
45060,note_on,0,0,1,,,,,,,,,0,,,70,100
45060,note_on,0,0,3,,,,,,,,,0,,,48,110
45060,note_on,30,0,3,,,,,,,,,0,,,60,0
45060,note_on,180,0,1,,,,,,,,,0,,,72,0
45090,note_on,0,0,3,,,,,,,,,0,,,60,110
45090,note_on,30,0,3,,,,,,,,,0,,,48,0
45120,note_on,60,0,1,,,,,,,,,0,,,70,0
45120,note_on,0,0,3,,,,,,,,,0,,,41,110
45120,note_on,30,0,3,,,,,,,,,0,,,60,0
45120,note_on,0,0,1,,,,,,,,,0,,,76,0
45120,control_change,120,0,4,,,,,,,,,0,64,127,,
45120,note_on,0,0,1,,,,,,,,,0,,,64,0
45120,note_on,0,0,1,,,,,,,,,0,,,67,0
45180,note_on,60,0,1,,,,,,,,,0,,,81,100
45180,note_on,0,0,1,,,,,,,,,0,,,77,100
45180,note_on,0,0,1,,,,,,,,,0,,,72,100
45180,note_on,0,0,3,,,,,,,,,0,,,45,110
45180,note_on,60,0,3,,,,,,,,,0,,,41,0
45180,note_on,0,0,1,,,,,,,,,0,,,69,100
45210,note_on,30,0,3,,,,,,,,,0,,,45,0
45210,note_on,0,0,3,,,,,,,,,0,,,48,110
45240,control_change,120,0,4,,,,,,,,,0,64,0,,
45240,note_on,30,0,3,,,,,,,,,0,,,48,0
45240,note_on,0,0,3,,,,,,,,,0,,,52,110
45270,note_on,0,0,3,,,,,,,,,0,,,53,110
45270,note_on,30,0,3,,,,,,,,,0,,,52,0
45300,note_on,0,0,3,,,,,,,,,0,,,57,110
45300,note_on,30,0,3,,,,,,,,,0,,,53,0
45300,note_on,0,0,1,,,,,,,,,0,,,81,0
45300,note_on,0,0,1,,,,,,,,,0,,,77,0
45300,note_on,0,0,1,,,,,,,,,0,,,72,0
45300,note_on,0,0,1,,,,,,,,,0,,,81,100
45300,note_on,0,0,1,,,,,,,,,0,,,77,100
45300,note_on,0,0,1,,,,,,,,,0,,,72,100
45300,note_on,0,0,1,,,,,,,,,0,,,69,100
45300,note_on,120,0,1,,,,,,,,,0,,,69,0
45330,note_on,0,0,1,,,,,,,,,0,,,72,0
45330,note_on,0,0,1,,,,,,,,,0,,,77,0
45330,note_on,0,0,1,,,,,,,,,0,,,81,0
45330,note_on,30,0,1,,,,,,,,,0,,,69,0
45330,note_on,0,0,3,,,,,,,,,0,,,60,110
45330,note_on,30,0,3,,,,,,,,,0,,,57,0
45360,note_on,0,0,3,,,,,,,,,0,,,46,100
45360,note_on,30,0,1,,,,,,,,,0,,,74,110
45360,note_on,30,0,3,,,,,,,,,0,,,60,0
45360,control_change,120,0,4,,,,,,,,,0,64,127,,
45420,note_on,0,0,3,,,,,,,,,0,,,55,100
45420,note_on,0,0,1,,,,,,,,,0,,,79,110
45420,note_on,60,0,1,,,,,,,,,0,,,74,0
45420,note_on,0,0,3,,,,,,,,,0,,,62,100
45420,note_on,0,0,3,,,,,,,,,0,,,65,100
45420,note_on,60,0,3,,,,,,,,,0,,,46,0
45450,note_on,0,0,1,,,,,,,,,0,,,82,110
45450,note_on,30,0,1,,,,,,,,,0,,,79,0
45480,control_change,120,0,4,,,,,,,,,0,64,0,,
45480,note_on,30,0,1,,,,,,,,,0,,,82,0
45480,note_on,0,0,1,,,,,,,,,0,,,85,110
45510,note_on,0,0,1,,,,,,,,,0,,,86,110
45510,note_on,30,0,1,,,,,,,,,0,,,85,0
45540,note_on,0,0,3,,,,,,,,,0,,,55,100
45540,note_on,0,0,3,,,,,,,,,0,,,62,100
45540,note_on,0,0,3,,,,,,,,,0,,,65,0
45540,note_on,0,0,3,,,,,,,,,0,,,62,0
45540,note_on,120,0,3,,,,,,,,,0,,,55,0
45540,note_on,0,0,3,,,,,,,,,0,,,65,100
45540,note_on,0,0,1,,,,,,,,,0,,,91,110
45540,note_on,30,0,1,,,,,,,,,0,,,86,0
45570,note_on,30,0,1,,,,,,,,,0,,,91,0
45570,note_on,0,0,1,,,,,,,,,0,,,94,110
45570,note_on,0,0,3,,,,,,,,,0,,,65,0
45570,note_on,30,0,3,,,,,,,,,0,,,55,0
45570,note_on,0,0,3,,,,,,,,,0,,,62,0
45600,control_change,120,0,4,,,,,,,,,0,64,127,,
45600,note_on,30,0,3,,,,,,,,,0,,,48,100
45600,note_on,30,0,1,,,,,,,,,0,,,94,0
45600,note_on,0,0,1,,,,,,,,,0,,,88,110
45630,note_on,30,0,3,,,,,,,,,0,,,48,0
45630,note_on,30,0,1,,,,,,,,,0,,,88,0
45630,note_on,0,0,1,,,,,,,,,0,,,96,108
45660,note_on,30,0,1,,,,,,,,,0,,,96,0
45660,note_on,30,0,3,,,,,,,,,0,,,64,95
45660,note_on,0,0,3,,,,,,,,,0,,,60,95
45660,note_on,0,0,1,,,,,,,,,0,,,94,105
45660,note_on,0,0,3,,,,,,,,,0,,,58,95
45660,note_on,0,0,3,,,,,,,,,0,,,55,95
45675,note_on,15,0,1,,,,,,,,,0,,,94,0
45690,note_on,15,0,1,,,,,,,,,0,,,91,102
45705,note_on,15,0,1,,,,,,,,,0,,,91,0
45720,note_on,15,0,1,,,,,,,,,0,,,88,100
45720,control_change,120,0,4,,,,,,,,,0,64,0,,
45735,note_on,15,0,1,,,,,,,,,0,,,88,0
45750,note_on,15,0,1,,,,,,,,,0,,,84,97
45765,note_on,15,0,1,,,,,,,,,0,,,84,0
45780,note_on,0,0,3,,,,,,,,,0,,,64,84
45780,note_on,0,0,3,,,,,,,,,0,,,60,0
45780,note_on,0,0,3,,,,,,,,,0,,,58,0
45780,note_on,0,0,3,,,,,,,,,0,,,60,84
45780,note_on,120,0,3,,,,,,,,,0,,,55,0
45780,note_on,0,0,3,,,,,,,,,0,,,64,0
45780,note_on,15,0,1,,,,,,,,,0,,,82,94
45795,note_on,15,0,1,,,,,,,,,0,,,82,0
45810,note_on,15,0,1,,,,,,,,,0,,,79,91
45825,note_on,15,0,1,,,,,,,,,0,,,79,0
45840,note_on,0,0,3,,,,,,,,,0,,,53,89
45840,note_on,60,0,3,,,,,,,,,0,,,60,0
45840,control_change,120,0,4,,,,,,,,,0,64,127,,
45840,note_on,0,0,3,,,,,,,,,0,,,64,0
45840,note_on,15,0,1,,,,,,,,,0,,,77,79
45870,note_on,30,0,1,,,,,,,,,0,,,77,0
45870,note_on,0,0,3,,,,,,,,,0,,,63,86
45870,note_on,30,0,3,,,,,,,,,0,,,53,0
45900,note_on,30,0,1,,,,,,,,,0,,,77,73
45900,note_on,0,0,1,,,,,,,,,0,,,75,73
45900,note_on,30,0,3,,,,,,,,,0,,,63,0
45900,note_on,0,0,1,,,,,,,,,0,,,72,73
45900,note_on,0,0,1,,,,,,,,,0,,,69,73
45900,note_on,0,0,3,,,,,,,,,0,,,60,83
45915,note_on,15,0,3,,,,,,,,,0,,,60,0
45930,note_on,15,0,3,,,,,,,,,0,,,57,81
45945,note_on,15,0,3,,,,,,,,,0,,,57,0
45960,control_change,120,0,4,,,,,,,,,0,64,0,,
45960,note_on,15,0,3,,,,,,,,,0,,,53,78
45975,note_on,15,0,3,,,,,,,,,0,,,53,0
45990,note_on,15,0,3,,,,,,,,,0,,,51,75
46005,note_on,15,0,3,,,,,,,,,0,,,51,0
46020,note_on,15,0,3,,,,,,,,,0,,,48,72
46035,note_on,15,0,3,,,,,,,,,0,,,48,0
46050,note_on,15,0,3,,,,,,,,,0,,,53,70
46065,note_on,15,0,3,,,,,,,,,0,,,53,0
46080,note_on,0,0,1,,,,,,,,,0,,,77,0
46080,note_on,0,0,1,,,,,,,,,0,,,72,0
46080,note_on,0,0,1,,,,,,,,,0,,,86,60
46080,note_on,0,0,1,,,,,,,,,0,,,75,0
46080,control_change,120,0,4,,,,,,,,,0,64,127,,
46080,note_on,15,0,3,,,,,,,,,0,,,46,70
46080,note_on,180,0,1,,,,,,,,,0,,,69,0
46110,note_on,30,0,3,,,,,,,,,0,,,46,0
46140,note_on,60,0,1,,,,,,,,,0,,,86,0
46140,note_on,0,0,3,,,,,,,,,0,,,53,60
46140,note_on,30,0,3,,,,,,,,,0,,,62,60
46140,note_on,0,0,1,,,,,,,,,0,,,85,60
46140,note_on,0,0,3,,,,,,,,,0,,,58,60
46170,note_on,0,0,1,,,,,,,,,0,,,86,60
46170,note_on,30,0,1,,,,,,,,,0,,,85,0
46200,note_on,0,0,1,,,,,,,,,0,,,85,60
46200,note_on,30,0,1,,,,,,,,,0,,,86,0
46200,control_change,120,0,4,,,,,,,,,0,64,0,,
46230,note_on,0,0,1,,,,,,,,,0,,,86,60
46230,note_on,30,0,1,,,,,,,,,0,,,85,0
46260,note_on,120,0,3,,,,,,,,,0,,,53,0
46260,note_on,0,0,3,,,,,,,,,0,,,58,0
46260,note_on,0,0,3,,,,,,,,,0,,,62,0
46260,note_on,0,0,3,,,,,,,,,0,,,58,60
46260,note_on,0,0,1,,,,,,,,,0,,,89,60
46260,note_on,0,0,3,,,,,,,,,0,,,53,60
46260,note_on,0,0,3,,,,,,,,,0,,,62,60
46260,note_on,30,0,1,,,,,,,,,0,,,86,0
46290,note_on,30,0,1,,,,,,,,,0,,,89,0
46290,note_on,0,0,1,,,,,,,,,0,,,86,60
46320,note_on,60,0,3,,,,,,,,,0,,,53,0
46320,note_on,0,0,3,,,,,,,,,0,,,58,0
46320,note_on,0,0,3,,,,,,,,,0,,,62,0
46320,note_on,0,0,3,,,,,,,,,0,,,50,70
46320,note_on,30,0,1,,,,,,,,,0,,,86,0
46320,control_change,120,0,4,,,,,,,,,0,64,127,,
46320,note_on,0,0,1,,,,,,,,,0,,,84,80
46350,note_on,30,0,3,,,,,,,,,0,,,50,0
46380,note_on,0,0,3,,,,,,,,,0,,,58,60
46380,note_on,30,0,3,,,,,,,,,0,,,65,60
46380,note_on,0,0,3,,,,,,,,,0,,,56,60
46440,control_change,120,0,4,,,,,,,,,0,64,0,,
46440,note_on,120,0,1,,,,,,,,,0,,,84,0
46440,note_on,0,0,1,,,,,,,,,0,,,82,60
46500,note_on,0,0,3,,,,,,,,,0,,,65,0
46500,note_on,0,0,3,,,,,,,,,0,,,58,0
46500,note_on,120,0,3,,,,,,,,,0,,,56,0
46500,note_on,0,0,3,,,,,,,,,0,,,58,60
46500,note_on,0,0,3,,,,,,,,,0,,,56,60
46500,note_on,60,0,1,,,,,,,,,0,,,82,0
46500,note_on,0,0,3,,,,,,,,,0,,,65,60
46545,note_on,45,0,1,,,,,,,,,0,,,82,60
46560,note_on,0,0,1,,,,,,,,,0,,,81,60
46560,note_on,0,0,3,,,,,,,,,0,,,58,0
46560,note_on,15,0,1,,,,,,,,,0,,,82,0
46560,note_on,0,0,3,,,,,,,,,0,,,65,0
46560,control_change,120,0,4,,,,,,,,,0,64,127,,
46560,note_on,60,0,3,,,,,,,,,0,,,56,0
46560,note_on,0,0,3,,,,,,,,,0,,,51,70
46590,note_on,30,0,3,,,,,,,,,0,,,51,0
46590,note_on,0,0,1,,,,,,,,,0,,,82,60
46590,note_on,30,0,1,,,,,,,,,0,,,81,0
46620,note_on,0,0,1,,,,,,,,,0,,,84,60
46620,note_on,30,0,1,,,,,,,,,0,,,82,0
46620,note_on,0,0,3,,,,,,,,,0,,,55,60
46620,note_on,0,0,3,,,,,,,,,0,,,58,60
46620,note_on,30,0,3,,,,,,,,,0,,,63,60
46650,note_on,30,0,1,,,,,,,,,0,,,84,0
46650,note_on,0,0,1,,,,,,,,,0,,,86,60
46680,note_on,30,0,1,,,,,,,,,0,,,86,0
46680,note_on,0,0,1,,,,,,,,,0,,,87,60
46680,control_change,120,0,4,,,,,,,,,0,64,0,,
46710,note_on,30,0,1,,,,,,,,,0,,,87,0
46710,note_on,0,0,1,,,,,,,,,0,,,88,60
46740,note_on,0,0,3,,,,,,,,,0,,,58,0
46740,note_on,0,0,1,,,,,,,,,0,,,89,60
46740,note_on,30,0,1,,,,,,,,,0,,,88,0
46740,note_on,120,0,3,,,,,,,,,0,,,55,0
46740,note_on,0,0,3,,,,,,,,,0,,,58,60
46740,note_on,0,0,3,,,,,,,,,0,,,55,60
46740,note_on,0,0,3,,,,,,,,,0,,,63,60
46740,note_on,0,0,3,,,,,,,,,0,,,63,0
46770,note_on,0,0,1,,,,,,,,,0,,,90,60
46770,note_on,30,0,1,,,,,,,,,0,,,89,0
46800,control_change,120,0,4,,,,,,,,,0,64,127,,
46800,note_on,60,0,3,,,,,,,,,0,,,55,0
46800,note_on,0,0,3,,,,,,,,,0,,,58,0
46800,note_on,0,0,3,,,,,,,,,0,,,63,0
46800,note_on,0,0,3,,,,,,,,,0,,,52,70
46800,note_on,0,0,1,,,,,,,,,0,,,91,60
46800,note_on,30,0,1,,,,,,,,,0,,,90,0
46812,note_on,0,0,1,,,,,,,,,0,,,93,60
46812,note_on,12,0,1,,,,,,,,,0,,,91,0
46824,note_on,0,0,1,,,,,,,,,0,,,91,60
46824,note_on,12,0,1,,,,,,,,,0,,,93,0
46830,note_on,30,0,3,,,,,,,,,0,,,52,0
46836,note_on,12,0,1,,,,,,,,,0,,,91,0
46836,note_on,0,0,1,,,,,,,,,0,,,90,60
46848,note_on,0,0,1,,,,,,,,,0,,,91,60
46848,note_on,12,0,1,,,,,,,,,0,,,90,0
46860,note_on,30,0,3,,,,,,,,,0,,,67,60
46860,note_on,0,0,3,,,,,,,,,0,,,61,60
46860,note_on,0,0,3,,,,,,,,,0,,,58,60
46890,note_on,42,0,1,,,,,,,,,0,,,91,0
46890,note_on,0,0,1,,,,,,,,,0,,,93,60
46920,control_change,120,0,4,,,,,,,,,0,64,0,,
46920,note_on,30,0,1,,,,,,,,,0,,,93,0
46920,note_on,0,0,1,,,,,,,,,0,,,94,60
46950,note_on,30,0,1,,,,,,,,,0,,,94,0
46980,note_on,0,0,3,,,,,,,,,0,,,67,0
46980,note_on,0,0,3,,,,,,,,,0,,,61,0
46980,note_on,120,0,3,,,,,,,,,0,,,58,0
46980,note_on,0,0,3,,,,,,,,,0,,,61,60
46980,note_on,0,0,3,,,,,,,,,0,,,58,60
46980,note_on,0,0,3,,,,,,,,,0,,,67,60
47040,control_change,120,0,4,,,,,,,,,0,64,127,,
47040,note_on,90,0,1,,,,,,,,,0,,,72,40
47040,note_on,60,0,3,,,,,,,,,0,,,58,0
47040,note_on,0,0,3,,,,,,,,,0,,,61,0
47040,note_on,0,0,3,,,,,,,,,0,,,67,0
47040,note_on,0,0,3,,,,,,,,,0,,,55,50
47055,note_on,0,0,1,,,,,,,,,0,,,74,40
47055,note_on,15,0,1,,,,,,,,,0,,,72,0
47070,note_on,30,0,3,,,,,,,,,0,,,55,0
47070,note_on,0,0,1,,,,,,,,,0,,,72,40
47070,note_on,15,0,1,,,,,,,,,0,,,74,0
47100,note_on,0,0,1,,,,,,,,,0,,,71,40
47100,note_on,30,0,1,,,,,,,,,0,,,72,0
47100,note_on,30,0,3,,,,,,,,,0,,,64,40
47100,note_on,0,0,3,,,,,,,,,0,,,60,40
47100,note_on,0,0,3,,,,,,,,,0,,,58,40
47130,note_on,30,0,1,,,,,,,,,0,,,71,0
47130,note_on,0,0,1,,,,,,,,,0,,,72,40
47160,note_on,0,0,1,,,,,,,,,0,,,76,40
47160,note_on,30,0,1,,,,,,,,,0,,,72,0
47160,control_change,120,0,4,,,,,,,,,0,64,0,,
47190,note_on,0,0,1,,,,,,,,,0,,,82,40
47190,note_on,30,0,1,,,,,,,,,0,,,76,0
47220,note_on,30,0,1,,,,,,,,,0,,,82,0
47220,note_on,0,0,3,,,,,,,,,0,,,60,40
47220,note_on,0,0,3,,,,,,,,,0,,,64,0
47220,note_on,0,0,3,,,,,,,,,0,,,60,0
47220,note_on,120,0,3,,,,,,,,,0,,,58,0
47220,note_on,0,0,1,,,,,,,,,0,,,79,40
47220,note_on,0,0,3,,,,,,,,,0,,,58,40
47220,note_on,0,0,3,,,,,,,,,0,,,64,40
47250,note_on,30,0,1,,,,,,,,,0,,,79,0
47250,note_on,0,0,1,,,,,,,,,0,,,76,40
47280,note_on,0,0,3,,,,,,,,,0,,,60,0
47280,note_on,60,0,3,,,,,,,,,0,,,58,0
47280,control_change,120,0,4,,,,,,,,,0,64,127,,
47280,note_on,0,0,1,,,,,,,,,0,,,77,40
47280,note_on,0,0,3,,,,,,,,,0,,,64,0
47280,note_on,0,0,3,,,,,,,,,0,,,53,50
47280,note_on,30,0,1,,,,,,,,,0,,,76,0
47295,note_on,15,0,1,,,,,,,,,0,,,77,0
47295,note_on,0,0,1,,,,,,,,,0,,,79,40
47310,note_on,30,0,3,,,,,,,,,0,,,53,0
47310,note_on,15,0,1,,,,,,,,,0,,,79,0
47310,note_on,0,0,1,,,,,,,,,0,,,77,40
47340,note_on,0,0,3,,,,,,,,,0,,,62,40
47340,note_on,0,0,1,,,,,,,,,0,,,76,40
47340,note_on,0,0,3,,,,,,,,,0,,,58,40
47340,note_on,30,0,3,,,,,,,,,0,,,65,40
47340,note_on,30,0,1,,,,,,,,,0,,,77,0
47370,note_on,0,0,1,,,,,,,,,0,,,77,40
47370,note_on,30,0,1,,,,,,,,,0,,,76,0
47400,note_on,0,0,1,,,,,,,,,0,,,82,40
47400,note_on,30,0,1,,,,,,,,,0,,,77,0
47400,control_change,120,0,4,,,,,,,,,0,64,0,,
47430,note_on,30,0,1,,,,,,,,,0,,,82,0
47430,note_on,0,0,1,,,,,,,,,0,,,89,40
47460,note_on,30,0,1,,,,,,,,,0,,,89,0
47460,note_on,120,0,3,,,,,,,,,0,,,58,0
47460,note_on,0,0,3,,,,,,,,,0,,,62,0
47460,note_on,0,0,3,,,,,,,,,0,,,65,0
47460,note_on,0,0,3,,,,,,,,,0,,,65,40
47460,note_on,0,0,3,,,,,,,,,0,,,62,40
47460,note_on,0,0,1,,,,,,,,,0,,,86,40
47460,note_on,0,0,3,,,,,,,,,0,,,58,40
47490,note_on,0,0,1,,,,,,,,,0,,,82,40
47490,note_on,30,0,1,,,,,,,,,0,,,86,0
47520,note_on,60,0,3,,,,,,,,,0,,,58,0
47520,note_on,0,0,3,,,,,,,,,0,,,62,0
47520,note_on,0,0,3,,,,,,,,,0,,,65,0
47520,note_on,30,0,1,,,,,,,,,0,,,82,0
47520,note_on,0,0,1,,,,,,,,,0,,,81,40
47520,note_on,0,0,3,,,,,,,,,0,,,53,50
47535,note_on,15,0,1,,,,,,,,,0,,,81,0
47550,note_on,15,0,1,,,,,,,,,0,,,82,40
47550,note_on,30,0,3,,,,,,,,,0,,,53,0
47565,note_on,15,0,1,,,,,,,,,0,,,82,0
47580,note_on,15,0,1,,,,,,,,,0,,,84,40
47580,note_on,0,0,3,,,,,,,,,0,,,63,40
47580,note_on,30,0,3,,,,,,,,,0,,,65,40
47580,note_on,0,0,3,,,,,,,,,0,,,60,40
47595,note_on,15,0,1,,,,,,,,,0,,,84,0
47610,note_on,15,0,1,,,,,,,,,0,,,86,40
47625,note_on,15,0,1,,,,,,,,,0,,,86,0
47640,note_on,15,0,1,,,,,,,,,0,,,87,40
47655,note_on,15,0,1,,,,,,,,,0,,,87,0
47670,note_on,15,0,1,,,,,,,,,0,,,89,40
47685,note_on,15,0,1,,,,,,,,,0,,,89,0
47700,note_on,120,0,3,,,,,,,,,0,,,60,0
47700,note_on,0,0,3,,,,,,,,,0,,,63,0
47700,note_on,0,0,3,,,,,,,,,0,,,65,40
47700,note_on,0,0,3,,,,,,,,,0,,,63,40
47700,note_on,0,0,3,,,,,,,,,0,,,60,40
47700,note_on,15,0,1,,,,,,,,,0,,,91,40
47700,note_on,0,0,3,,,,,,,,,0,,,65,0
47715,note_on,15,0,1,,,,,,,,,0,,,91,0
47730,note_on,15,0,1,,,,,,,,,0,,,93,40
47745,note_on,0,0,1,,,,,,,,,0,,,96,40
47745,note_on,15,0,1,,,,,,,,,0,,,93,0
47760,note_on,0,0,3,,,,,,,,,0,,,65,0
47760,note_on,0,0,1,,,,,,,,,0,,,94,40
47760,note_on,0,0,3,,,,,,,,,0,,,63,0
47760,note_on,0,0,3,,,,,,,,,0,,,53,50
47760,note_on,15,0,1,,,,,,,,,0,,,96,0
47760,note_on,60,0,3,,,,,,,,,0,,,60,0
47775,note_on,15,0,1,,,,,,,,,0,,,94,0
47790,note_on,15,0,1,,,,,,,,,0,,,93,40
47790,note_on,30,0,3,,,,,,,,,0,,,53,0
47805,note_on,15,0,1,,,,,,,,,0,,,93,0
47820,note_on,15,0,1,,,,,,,,,0,,,91,40
47820,note_on,0,0,3,,,,,,,,,0,,,62,40
47820,note_on,30,0,3,,,,,,,,,0,,,65,40
47820,note_on,0,0,3,,,,,,,,,0,,,58,40
47835,note_on,15,0,1,,,,,,,,,0,,,91,0
47850,note_on,15,0,1,,,,,,,,,0,,,89,40
47865,note_on,15,0,1,,,,,,,,,0,,,89,0
47880,note_on,15,0,1,,,,,,,,,0,,,87,40
47895,note_on,15,0,1,,,,,,,,,0,,,87,0
47910,note_on,15,0,1,,,,,,,,,0,,,86,40
47925,note_on,15,0,1,,,,,,,,,0,,,86,0
47940,note_on,15,0,1,,,,,,,,,0,,,84,40
47940,note_on,0,0,3,,,,,,,,,0,,,62,40
47940,note_on,0,0,3,,,,,,,,,0,,,65,40
47940,note_on,0,0,3,,,,,,,,,0,,,65,0
47940,note_on,0,0,3,,,,,,,,,0,,,62,0
47940,note_on,120,0,3,,,,,,,,,0,,,58,0
47940,note_on,0,0,3,,,,,,,,,0,,,58,40
47955,note_on,15,0,1,,,,,,,,,0,,,84,0
47970,note_on,15,0,1,,,,,,,,,0,,,83,40
47985,note_on,0,0,1,,,,,,,,,0,,,86,40
47985,note_on,15,0,1,,,,,,,,,0,,,83,0
48000,note_on,0,0,1,,,,,,,,,0,,,84,40
48000,note_on,15,0,1,,,,,,,,,0,,,86,0
48000,note_on,60,0,3,,,,,,,,,0,,,58,0
48000,note_on,0,0,3,,,,,,,,,0,,,62,0
48000,note_on,0,0,3,,,,,,,,,0,,,65,0
48000,note_on,0,0,3,,,,,,,,,0,,,41,50
48000,set_tempo,15360,1,0,,,,,,653666,,,,,,,
48014,set_tempo,14,1,0,,,,,,655809,,,,,,,
48015,note_on,15,0,1,,,,,,,,,0,,,84,0
48021,set_tempo,7,1,0,,,,,,657967,,,,,,,
48030,note_on,15,0,1,,,,,,,,,0,,,82,40
48030,note_on,30,0,3,,,,,,,,,0,,,41,0
48035,set_tempo,14,1,0,,,,,,660139,,,,,,,
48042,set_tempo,7,1,0,,,,,,662325,,,,,,,
48045,note_on,15,0,1,,,,,,,,,0,,,82,0
48049,set_tempo,7,1,0,,,,,,664525,,,,,,,
48060,note_on,15,0,1,,,,,,,,,0,,,81,40
48060,note_on,30,0,3,,,,,,,,,0,,,63,40
48060,note_on,0,0,3,,,,,,,,,0,,,60,40
48060,note_on,0,0,3,,,,,,,,,0,,,53,40
48063,set_tempo,14,1,0,,,,,,666741,,,,,,,
48070,set_tempo,7,1,0,,,,,,668971,,,,,,,
48075,note_on,15,0,1,,,,,,,,,0,,,81,0
48084,set_tempo,14,1,0,,,,,,671216,,,,,,,
48090,note_on,15,0,1,,,,,,,,,0,,,79,40
48091,set_tempo,7,1,0,,,,,,673476,,,,,,,
48098,set_tempo,7,1,0,,,,,,675752,,,,,,,
48105,note_on,15,0,1,,,,,,,,,0,,,79,0
48112,set_tempo,14,1,0,,,,,,678043,,,,,,,
48120,set_tempo,8,1,0,,,,,,680349,,,,,,,
48120,note_on,15,0,1,,,,,,,,,0,,,77,40
48134,set_tempo,14,1,0,,,,,,682672,,,,,,,
48135,note_on,15,0,1,,,,,,,,,0,,,77,0
48141,set_tempo,7,1,0,,,,,,685010,,,,,,,
48148,set_tempo,7,1,0,,,,,,687364,,,,,,,
48150,note_on,15,0,1,,,,,,,,,0,,,75,40
48162,set_tempo,14,1,0,,,,,,689734,,,,,,,
48165,note_on,15,0,1,,,,,,,,,0,,,75,0
48169,set_tempo,7,1,0,,,,,,692121,,,,,,,
48176,set_tempo,7,1,0,,,,,,694525,,,,,,,
48180,note_on,0,0,3,,,,,,,,,0,,,63,0
48180,note_on,15,0,1,,,,,,,,,0,,,74,40
48180,note_on,0,0,3,,,,,,,,,0,,,60,0
48180,note_on,0,0,3,,,,,,,,,0,,,63,40
48180,note_on,120,0,3,,,,,,,,,0,,,53,0
48180,note_on,0,0,3,,,,,,,,,0,,,57,40
48180,note_on,0,0,3,,,,,,,,,0,,,53,40
48190,set_tempo,14,1,0,,,,,,696945,,,,,,,
48195,note_on,15,0,1,,,,,,,,,0,,,74,0
48197,set_tempo,7,1,0,,,,,,699382,,,,,,,
48210,note_on,15,0,1,,,,,,,,,0,,,73,40
48211,set_tempo,14,1,0,,,,,,701836,,,,,,,
48218,set_tempo,7,1,0,,,,,,704308,,,,,,,
48225,set_tempo,7,1,0,,,,,,706797,,,,,,,
48225,note_on,15,0,1,,,,,,,,,0,,,73,0
48225,note_on,0,0,1,,,,,,,,,0,,,84,40
48240,set_tempo,15,1,0,,,,,,709304,,,,,,,
48240,note_on,0,0,3,,,,,,,,,0,,,41,50
48240,note_on,15,0,1,,,,,,,,,0,,,84,0
48240,note_on,0,0,1,,,,,,,,,0,,,74,40
48240,note_on,0,0,1,,,,,,,,,0,,,82,40
48240,note_on,0,0,3,,,,,,,,,0,,,63,0
48240,note_on,0,0,3,,,,,,,,,0,,,57,0
48240,note_on,60,0,3,,,,,,,,,0,,,53,0
48247,set_tempo,7,1,0,,,,,,711828,,,,,,,
48255,note_on,0,0,1,,,,,,,,,0,,,74,0
48255,note_on,15,0,1,,,,,,,,,0,,,82,0
48261,set_tempo,14,1,0,,,,,,714371,,,,,,,
48268,set_tempo,7,1,0,,,,,,716932,,,,,,,
48270,note_on,15,0,1,,,,,,,,,0,,,81,40
48270,note_on,30,0,3,,,,,,,,,0,,,41,0
48275,set_tempo,7,1,0,,,,,,719511,,,,,,,
48285,note_on,15,0,1,,,,,,,,,0,,,81,0
48289,set_tempo,14,1,0,,,,,,722109,,,,,,,
48296,set_tempo,7,1,0,,,,,,724725,,,,,,,
48300,note_on,15,0,1,,,,,,,,,0,,,79,40
48300,note_on,30,0,3,,,,,,,,,0,,,62,40
48300,note_on,0,0,3,,,,,,,,,0,,,58,40
48300,note_on,0,0,3,,,,,,,,,0,,,53,40
48310,set_tempo,14,1,0,,,,,,727361,,,,,,,
48315,note_on,15,0,1,,,,,,,,,0,,,79,0
48317,set_tempo,7,1,0,,,,,,730016,,,,,,,
48324,set_tempo,7,1,0,,,,,,732690,,,,,,,
48330,note_on,15,0,1,,,,,,,,,0,,,77,40
48338,set_tempo,14,1,0,,,,,,735384,,,,,,,
48345,note_on,15,0,1,,,,,,,,,0,,,77,0
48345,set_tempo,7,1,0,,,,,,738098,,,,,,,
48352,set_tempo,7,1,0,,,,,,740832,,,,,,,
48360,note_on,15,0,1,,,,,,,,,0,,,75,40
48367,set_tempo,15,1,0,,,,,,743587,,,,,,,
48374,set_tempo,7,1,0,,,,,,746361,,,,,,,
48375,note_on,15,0,1,,,,,,,,,0,,,75,0
48388,set_tempo,14,1,0,,,,,,749157,,,,,,,
48390,note_on,15,0,1,,,,,,,,,0,,,74,40
48395,set_tempo,7,1,0,,,,,,751974,,,,,,,
48402,set_tempo,7,1,0,,,,,,754812,,,,,,,
48405,note_on,15,0,1,,,,,,,,,0,,,74,0
48416,set_tempo,14,1,0,,,,,,757671,,,,,,,
48420,note_on,0,0,3,,,,,,,,,0,,,58,0
48420,note_on,0,0,3,,,,,,,,,0,,,62,0
48420,note_on,15,0,1,,,,,,,,,0,,,72,40
48420,note_on,0,0,3,,,,,,,,,0,,,53,40
48420,note_on,0,0,3,,,,,,,,,0,,,58,40
48420,note_on,120,0,3,,,,,,,,,0,,,53,0
48420,note_on,0,0,3,,,,,,,,,0,,,62,40
48423,set_tempo,7,1,0,,,,,,760553,,,,,,,
48435,note_on,15,0,1,,,,,,,,,0,,,72,0
48437,set_tempo,14,1,0,,,,,,763456,,,,,,,
48444,set_tempo,7,1,0,,,,,,766381,,,,,,,
48450,note_on,15,0,1,,,,,,,,,0,,,71,40
48451,set_tempo,7,1,0,,,,,,769329,,,,,,,
48465,note_on,0,0,1,,,,,,,,,0,,,74,40
48465,set_tempo,14,1,0,,,,,,772300,,,,,,,
48465,note_on,15,0,1,,,,,,,,,0,,,71,0
48472,set_tempo,7,1,0,,,,,,775294,,,,,,,
48480,note_on,0,0,3,,,,,,,,,0,,,62,0
48480,note_on,0,0,1,,,,,,,,,0,,,72,40
48480,note_on,15,0,1,,,,,,,,,0,,,74,0
48480,note_on,0,0,3,,,,,,,,,0,,,41,50
48480,note_on,0,0,3,,,,,,,,,0,,,58,0
48480,note_on,60,0,3,,,,,,,,,0,,,53,0
48487,set_tempo,15,1,0,,,,,,778311,,,,,,,
48494,set_tempo,7,1,0,,,,,,781352,,,,,,,
48495,note_on,15,0,1,,,,,,,,,0,,,72,0
48501,set_tempo,7,1,0,,,,,,784416,,,,,,,
48510,note_on,30,0,3,,,,,,,,,0,,,41,0
48510,note_on,15,0,1,,,,,,,,,0,,,70,40
48515,set_tempo,14,1,0,,,,,,787505,,,,,,,
48522,set_tempo,7,1,0,,,,,,790618,,,,,,,
48525,note_on,15,0,1,,,,,,,,,0,,,70,0
48529,set_tempo,7,1,0,,,,,,793756,,,,,,,
48540,note_on,0,0,3,,,,,,,,,0,,,51,40
48540,note_on,0,0,3,,,,,,,,,0,,,53,40
48540,note_on,30,0,3,,,,,,,,,0,,,60,40
48540,note_on,15,0,1,,,,,,,,,0,,,69,40
48543,set_tempo,14,1,0,,,,,,796919,,,,,,,
48550,set_tempo,7,1,0,,,,,,800107,,,,,,,
48555,note_on,15,0,1,,,,,,,,,0,,,69,0
48564,set_tempo,14,1,0,,,,,,803320,,,,,,,
48570,note_on,15,0,1,,,,,,,,,0,,,67,40
48571,set_tempo,7,1,0,,,,,,806560,,,,,,,
48578,set_tempo,7,1,0,,,,,,809826,,,,,,,
48585,note_on,15,0,1,,,,,,,,,0,,,67,0
48592,set_tempo,14,1,0,,,,,,813118,,,,,,,
48600,set_tempo,8,1,0,,,,,,816438,,,,,,,
48600,note_on,15,0,1,,,,,,,,,0,,,65,40
48614,set_tempo,14,1,0,,,,,,819784,,,,,,,
48615,note_on,15,0,1,,,,,,,,,0,,,65,0
48621,set_tempo,7,1,0,,,,,,823158,,,,,,,
48628,set_tempo,7,1,0,,,,,,826560,,,,,,,
48630,note_on,15,0,1,,,,,,,,,0,,,63,40
48642,set_tempo,14,1,0,,,,,,829990,,,,,,,
48645,note_on,15,0,1,,,,,,,,,0,,,63,0
48649,set_tempo,7,1,0,,,,,,833449,,,,,,,
48660,note_on,0,0,3,,,,,,,,,0,,,57,40
48660,note_on,15,0,1,,,,,,,,,0,,,62,40
48660,note_on,0,0,3,,,,,,,,,0,,,53,40
48660,note_on,0,0,3,,,,,,,,,0,,,51,40
48660,note_on,120,0,3,,,,,,,,,0,,,51,0
48660,note_on,0,0,3,,,,,,,,,0,,,60,0
48660,note_on,0,0,3,,,,,,,,,0,,,53,0
48663,set_tempo,14,1,0,,,,,,836937,,,,,,,
48670,set_tempo,7,1,0,,,,,,840454,,,,,,,
48675,note_on,15,0,1,,,,,,,,,0,,,62,0
48677,set_tempo,7,1,0,,,,,,844001,,,,,,,
48690,note_on,15,0,1,,,,,,,,,0,,,60,40
48691,set_tempo,14,1,0,,,,,,847577,,,,,,,
48698,set_tempo,7,1,0,,,,,,851185,,,,,,,
48705,note_on,15,0,1,,,,,,,,,0,,,60,0
48705,set_tempo,7,1,0,,,,,,854823,,,,,,,
48720,note_on,60,0,3,,,,,,,,,0,,,51,0
48720,note_on,0,0,3,,,,,,,,,0,,,53,0
48720,set_tempo,15,1,0,,,,,,858492,,,,,,,
48720,note_on,0,0,3,,,,,,,,,0,,,57,0
48720,note_on,16080,0,2,,,,,,,,,0,,,58,50
48727,set_tempo,7,1,0,,,,,,862193,,,,,,,
48741,set_tempo,14,1,0,,,,,,865926,,,,,,,
48748,set_tempo,7,1,0,,,,,,869691,,,,,,,
48750,note_on,30,0,2,,,,,,,,,0,,,53,50
48755,set_tempo,7,1,0,,,,,,873490,,,,,,,
48769,set_tempo,14,1,0,,,,,,877321,,,,,,,
48776,set_tempo,7,1,0,,,,,,881187,,,,,,,
48780,note_on,30,0,2,,,,,,,,,0,,,50,50
48790,set_tempo,14,1,0,,,,,,885086,,,,,,,
48797,set_tempo,7,1,0,,,,,,889021,,,,,,,
48804,set_tempo,7,1,0,,,,,,892990,,,,,,,
48810,note_on,90,0,3,,,,,,,,,0,,,46,50
48818,set_tempo,14,1,0,,,,,,896995,,,,,,,
48825,set_tempo,7,1,0,,,,,,901036,,,,,,,
48832,set_tempo,7,1,0,,,,,,905114,,,,,,,
48840,note_on,30,0,3,,,,,,,,,0,,,34,50
48840,set_tempo,8,1,0,,,,,,1875000,,,,,,,
48900,note_on,0,0,2,,,,,,,,,0,,,58,0
48900,note_on,0,0,2,,,,,,,,,0,,,53,0
48900,note_on,120,0,2,,,,,,,,,0,,,50,0
48900,note_on,60,0,3,,,,,,,,,0,,,34,0
48900,note_on,195,0,1,,,,,,,,,0,,,65,60
48900,set_tempo,60,1,0,,,,,,1071429,,,,,,,
48900,note_on,0,0,3,,,,,,,,,0,,,46,0
48960,note_on,0,0,1,,,,,,,,,0,,,65,60
48960,note_on,60,0,3,,,,,,,,,0,,,34,70
48960,note_on,0,0,3,,,,,,,,,0,,,46,70
48960,note_on,60,0,1,,,,,,,,,0,,,65,0
48960,control_change,1560,0,4,,,,,,,,,0,64,127,,
48960,note_on,0,0,1,,,,,,,,,0,,,61,60
48960,marker,0,1,0,,,,,,,,,,,,,
48960,key_signature,60,1,0,,,,,Db,,,,,,,,
48960,set_tempo,0,1,0,,,,,,652174,,,,,,,
48960,note_on,0,0,1,,,,,,,,,0,,,73,60
49000,note_on,40,0,3,,,,,,,,,0,,,46,0
49000,note_on,0,0,3,,,,,,,,,0,,,34,0
49000,note_on,0,0,3,,,,,,,,,0,,,53,80
49000,note_on,0,0,3,,,,,,,,,0,,,49,80
49000,note_on,0,0,3,,,,,,,,,0,,,46,80
49040,note_on,0,0,3,,,,,,,,,0,,,52,60
49040,note_on,0,0,3,,,,,,,,,0,,,49,60
49040,note_on,0,0,3,,,,,,,,,0,,,53,0
49040,note_on,0,0,3,,,,,,,,,0,,,49,0
49040,note_on,40,0,3,,,,,,,,,0,,,46,0
49040,note_on,0,0,3,,,,,,,,,0,,,46,60
49080,note_on,0,0,3,,,,,,,,,0,,,46,60
49080,note_on,0,0,3,,,,,,,,,0,,,53,60
49080,note_on,0,0,3,,,,,,,,,0,,,49,60
49080,note_on,40,0,3,,,,,,,,,0,,,46,0
49080,note_on,0,0,3,,,,,,,,,0,,,52,0
49080,note_on,0,0,3,,,,,,,,,0,,,49,0
49120,note_on,40,0,3,,,,,,,,,0,,,46,0
49120,note_on,0,0,3,,,,,,,,,0,,,49,0
49120,note_on,0,0,3,,,,,,,,,0,,,53,0
49120,note_on,0,0,3,,,,,,,,,0,,,54,60
49120,note_on,0,0,3,,,,,,,,,0,,,49,60
49120,note_on,0,0,3,,,,,,,,,0,,,46,60
49140,note_on,0,0,1,,,,,,,,,0,,,73,0
49140,note_on,0,0,1,,,,,,,,,0,,,61,60
49140,note_on,0,0,1,,,,,,,,,0,,,65,60
49140,note_on,180,0,1,,,,,,,,,0,,,61,0
49140,note_on,0,0,1,,,,,,,,,0,,,73,60
49140,note_on,0,0,1,,,,,,,,,0,,,65,0
49160,note_on,40,0,3,,,,,,,,,0,,,46,0
49160,note_on,0,0,3,,,,,,,,,0,,,49,0
49160,note_on,0,0,3,,,,,,,,,0,,,54,0
49160,note_on,0,0,3,,,,,,,,,0,,,53,60
49160,note_on,0,0,3,,,,,,,,,0,,,49,60
49160,note_on,0,0,3,,,,,,,,,0,,,46,60
49185,control_change,225,0,4,,,,,,,,,0,64,0,,
49200,note_on,0,0,3,,,,,,,,,0,,,37,70
49200,note_on,40,0,3,,,,,,,,,0,,,46,0
49200,note_on,0,0,3,,,,,,,,,0,,,49,0
49200,note_on,0,0,3,,,,,,,,,0,,,53,0
49200,note_on,0,0,3,,,,,,,,,0,,,49,70
49200,note_on,0,0,1,,,,,,,,,0,,,65,0
49200,note_on,0,0,1,,,,,,,,,0,,,73,0
49200,note_on,0,0,1,,,,,,,,,0,,,60,60
49200,note_on,0,0,1,,,,,,,,,0,,,72,60
49200,note_on,60,0,1,,,,,,,,,0,,,61,0
49200,note_on,0,0,1,,,,,,,,,0,,,65,60
49200,control_change,15,0,4,,,,,,,,,0,64,127,,
49240,note_on,0,0,3,,,,,,,,,0,,,37,0
49240,note_on,0,0,3,,,,,,,,,0,,,53,80
49240,note_on,0,0,3,,,,,,,,,0,,,49,80
49240,note_on,40,0,3,,,,,,,,,0,,,49,0
49280,note_on,0,0,3,,,,,,,,,0,,,49,60
49280,note_on,40,0,3,,,,,,,,,0,,,49,0
49280,note_on,0,0,3,,,,,,,,,0,,,53,0
49280,note_on,0,0,3,,,,,,,,,0,,,52,60
49320,note_on,40,0,3,,,,,,,,,0,,,49,0
49320,note_on,120,0,1,,,,,,,,,0,,,72,0
49320,note_on,0,0,3,,,,,,,,,0,,,52,0
49320,note_on,0,0,3,,,,,,,,,0,,,49,60
49320,note_on,0,0,1,,,,,,,,,0,,,60,0
49320,note_on,0,0,1,,,,,,,,,0,,,58,60
49320,note_on,0,0,3,,,,,,,,,0,,,53,60
49320,note_on,0,0,1,,,,,,,,,0,,,70,60
49360,note_on,0,0,3,,,,,,,,,0,,,54,60
49360,note_on,0,0,3,,,,,,,,,0,,,49,60
49360,note_on,0,0,3,,,,,,,,,0,,,53,0
49360,note_on,40,0,3,,,,,,,,,0,,,49,0
49380,note_on,60,0,1,,,,,,,,,0,,,70,0
49380,note_on,0,0,1,,,,,,,,,0,,,58,60
49380,note_on,0,0,1,,,,,,,,,0,,,65,0
49380,note_on,0,0,1,,,,,,,,,0,,,65,60
49380,note_on,0,0,1,,,,,,,,,0,,,70,60
49380,note_on,0,0,1,,,,,,,,,0,,,58,0
49400,note_on,40,0,3,,,,,,,,,0,,,49,0
49400,note_on,0,0,3,,,,,,,,,0,,,54,0
49400,note_on,0,0,3,,,,,,,,,0,,,53,60
49400,note_on,0,0,3,,,,,,,,,0,,,49,60
49425,control_change,225,0,4,,,,,,,,,0,64,0,,
49440,control_change,15,0,4,,,,,,,,,0,64,127,,
49440,note_on,0,0,1,,,,,,,,,0,,,70,60
49440,note_on,0,0,1,,,,,,,,,0,,,58,0
49440,note_on,60,0,1,,,,,,,,,0,,,70,0
49440,note_on,0,0,1,,,,,,,,,0,,,65,0
49440,note_on,0,0,1,,,,,,,,,0,,,58,60
49440,note_on,0,0,1,,,,,,,,,0,,,65,60
49440,note_on,0,0,3,,,,,,,,,0,,,36,70
49440,note_on,0,0,3,,,,,,,,,0,,,53,0
49440,note_on,40,0,3,,,,,,,,,0,,,49,0
49480,note_on,0,0,3,,,,,,,,,0,,,51,87
49480,note_on,40,0,3,,,,,,,,,0,,,36,0
49480,note_on,0,0,3,,,,,,,,,0,,,48,87
49480,note_on,0,0,3,,,,,,,,,0,,,53,87
49520,note_on,0,0,3,,,,,,,,,0,,,48,75
49520,note_on,0,0,3,,,,,,,,,0,,,52,75
49520,note_on,0,0,3,,,,,,,,,0,,,53,0
49520,note_on,40,0,3,,,,,,,,,0,,,48,0
49520,note_on,0,0,3,,,,,,,,,0,,,51,0
49520,note_on,0,0,3,,,,,,,,,0,,,51,75
49530,note_on,0,0,1,,,,,,,,,0,,,69,77
49530,note_on,0,0,1,,,,,,,,,0,,,57,77
49530,note_on,0,0,1,,,,,,,,,0,,,58,0
49530,note_on,90,0,1,,,,,,,,,0,,,70,0
49560,note_on,0,0,1,,,,,,,,,0,,,72,83
49560,note_on,30,0,1,,,,,,,,,0,,,69,0
49560,note_on,40,0,3,,,,,,,,,0,,,48,0
49560,note_on,0,0,3,,,,,,,,,0,,,52,0
49560,note_on,0,0,3,,,,,,,,,0,,,51,0
49560,note_on,0,0,3,,,,,,,,,0,,,53,83
49560,note_on,0,0,3,,,,,,,,,0,,,51,83
49560,note_on,0,0,1,,,,,,,,,0,,,57,0
49560,note_on,0,0,3,,,,,,,,,0,,,48,83
49560,note_on,0,0,1,,,,,,,,,0,,,60,83
49560,note_on,0,0,1,,,,,,,,,0,,,65,0
49600,note_on,40,0,1,,,,,,,,,0,,,72,0
49600,note_on,0,0,1,,,,,,,,,0,,,60,0
49600,note_on,0,0,1,,,,,,,,,0,,,63,91
49600,note_on,0,0,1,,,,,,,,,0,,,75,91
49600,note_on,40,0,3,,,,,,,,,0,,,48,0
49600,note_on,0,0,3,,,,,,,,,0,,,51,0
49600,note_on,0,0,3,,,,,,,,,0,,,53,0
49600,note_on,0,0,3,,,,,,,,,0,,,48,91
49600,note_on,0,0,3,,,,,,,,,0,,,51,91
49640,note_on,0,0,3,,,,,,,,,0,,,54,99
49640,note_on,0,0,1,,,,,,,,,0,,,75,99
49640,note_on,0,0,1,,,,,,,,,0,,,66,99
49640,note_on,0,0,1,,,,,,,,,0,,,72,99
49640,note_on,0,0,3,,,,,,,,,0,,,51,0
49640,note_on,0,0,1,,,,,,,,,0,,,78,99
49640,note_on,40,0,3,,,,,,,,,0,,,48,0
49640,note_on,0,0,3,,,,,,,,,0,,,48,99
49640,note_on,0,0,3,,,,,,,,,0,,,51,99
49640,note_on,0,0,1,,,,,,,,,0,,,63,0
49640,note_on,40,0,1,,,,,,,,,0,,,75,0
49665,control_change,225,0,4,,,,,,,,,0,64,0,,
49680,control_change,15,0,4,,,,,,,,,0,64,127,,
49680,note_on,0,0,1,,,,,,,,,0,,,75,100
49680,note_on,40,0,1,,,,,,,,,0,,,75,0
49680,note_on,0,0,1,,,,,,,,,0,,,78,0
49680,note_on,0,0,1,,,,,,,,,0,,,72,0
49680,note_on,0,0,1,,,,,,,,,0,,,66,0
49680,note_on,0,0,1,,,,,,,,,0,,,77,100
49680,note_on,0,0,1,,,,,,,,,0,,,72,100
49680,note_on,40,0,3,,,,,,,,,0,,,48,0
49680,note_on,0,0,3,,,,,,,,,0,,,54,0
49680,note_on,0,0,3,,,,,,,,,0,,,33,110
49680,note_on,0,0,1,,,,,,,,,0,,,65,100
49680,note_on,0,0,3,,,,,,,,,0,,,51,0
49720,note_on,40,0,3,,,,,,,,,0,,,33,0
49720,note_on,0,0,3,,,,,,,,,0,,,53,80
49720,note_on,0,0,3,,,,,,,,,0,,,48,80
49720,note_on,0,0,3,,,,,,,,,0,,,45,80
49760,note_on,40,0,3,,,,,,,,,0,,,45,0
49760,note_on,0,0,3,,,,,,,,,0,,,48,0
49760,note_on,0,0,3,,,,,,,,,0,,,53,0
49760,note_on,0,0,3,,,,,,,,,0,,,48,60
49760,note_on,0,0,3,,,,,,,,,0,,,45,60
49760,note_on,0,0,3,,,,,,,,,0,,,52,60
49800,note_on,40,0,3,,,,,,,,,0,,,45,0
49800,note_on,0,0,3,,,,,,,,,0,,,48,0
49800,note_on,0,0,3,,,,,,,,,0,,,52,0
49800,note_on,0,0,3,,,,,,,,,0,,,53,60
49800,note_on,0,0,3,,,,,,,,,0,,,48,60
49800,note_on,0,0,3,,,,,,,,,0,,,45,60
49840,note_on,40,0,3,,,,,,,,,0,,,45,0
49840,note_on,0,0,3,,,,,,,,,0,,,45,60
49840,note_on,0,0,3,,,,,,,,,0,,,53,0
49840,note_on,0,0,3,,,,,,,,,0,,,54,60
49840,note_on,0,0,3,,,,,,,,,0,,,48,60
49840,note_on,0,0,3,,,,,,,,,0,,,48,0
49860,note_on,0,0,1,,,,,,,,,0,,,77,0
49860,note_on,0,0,1,,,,,,,,,0,,,75,0
49860,note_on,180,0,1,,,,,,,,,0,,,65,0
49860,note_on,0,0,1,,,,,,,,,0,,,72,0
49860,note_on,0,0,1,,,,,,,,,0,,,63,60
49860,note_on,0,0,1,,,,,,,,,0,,,75,60
49880,note_on,0,0,3,,,,,,,,,0,,,54,0
49880,note_on,0,0,3,,,,,,,,,0,,,48,60
49880,note_on,40,0,3,,,,,,,,,0,,,45,0
49880,note_on,0,0,3,,,,,,,,,0,,,45,60
49880,note_on,0,0,3,,,,,,,,,0,,,53,60
49880,note_on,0,0,3,,,,,,,,,0,,,48,0
49905,control_change,225,0,4,,,,,,,,,0,64,0,,
49920,note_on,60,0,1,,,,,,,,,0,,,75,0
49920,note_on,0,0,3,,,,,,,,,0,,,53,0
49920,control_change,15,0,4,,,,,,,,,0,64,127,,
49920,note_on,40,0,3,,,,,,,,,0,,,45,0
49920,note_on,0,0,1,,,,,,,,,0,,,75,60
49920,note_on,0,0,1,,,,,,,,,0,,,63,0
49920,note_on,0,0,3,,,,,,,,,0,,,34,70
49920,note_on,0,0,3,,,,,,,,,0,,,48,0
49920,note_on,0,0,1,,,,,,,,,0,,,63,60
49960,note_on,0,0,3,,,,,,,,,0,,,49,87
49960,note_on,0,0,3,,,,,,,,,0,,,46,87
49960,note_on,40,0,3,,,,,,,,,0,,,34,0
49960,note_on,0,0,3,,,,,,,,,0,,,53,87
50000,note_on,0,0,3,,,,,,,,,0,,,46,75
50000,note_on,0,0,3,,,,,,,,,0,,,49,75
50000,note_on,0,0,3,,,,,,,,,0,,,52,75
50000,note_on,0,0,3,,,,,,,,,0,,,53,0
50000,note_on,0,0,3,,,,,,,,,0,,,49,0
50000,note_on,40,0,3,,,,,,,,,0,,,46,0
50010,note_on,90,0,1,,,,,,,,,0,,,75,0
50010,note_on,0,0,1,,,,,,,,,0,,,61,77
50010,note_on,0,0,1,,,,,,,,,0,,,63,0
50010,note_on,0,0,1,,,,,,,,,0,,,73,77
50040,note_on,0,0,3,,,,,,,,,0,,,52,0
50040,note_on,30,0,1,,,,,,,,,0,,,73,0
50040,note_on,0,0,1,,,,,,,,,0,,,61,0
50040,note_on,0,0,1,,,,,,,,,0,,,58,83
50040,note_on,0,0,1,,,,,,,,,0,,,70,83
50040,note_on,40,0,3,,,,,,,,,0,,,46,0
50040,note_on,0,0,3,,,,,,,,,0,,,46,83
50040,note_on,0,0,3,,,,,,,,,0,,,49,83
50040,note_on,0,0,3,,,,,,,,,0,,,53,83
50040,note_on,0,0,3,,,,,,,,,0,,,49,0
50080,note_on,0,0,1,,,,,,,,,0,,,72,91
50080,note_on,0,0,1,,,,,,,,,0,,,60,91
50080,note_on,0,0,1,,,,,,,,,0,,,58,0
50080,note_on,0,0,3,,,,,,,,,0,,,46,91
50080,note_on,40,0,1,,,,,,,,,0,,,70,0
50080,note_on,40,0,3,,,,,,,,,0,,,46,0
50080,note_on,0,0,3,,,,,,,,,0,,,49,0
50080,note_on,0,0,3,,,,,,,,,0,,,53,0
50080,note_on,0,0,3,,,,,,,,,0,,,54,91
50080,note_on,0,0,3,,,,,,,,,0,,,49,91
50120,note_on,0,0,3,,,,,,,,,0,,,49,0
50120,note_on,0,0,3,,,,,,,,,0,,,54,0
50120,note_on,0,0,3,,,,,,,,,0,,,53,99
50120,note_on,0,0,3,,,,,,,,,0,,,49,99
50120,note_on,0,0,3,,,,,,,,,0,,,46,99
50120,note_on,40,0,1,,,,,,,,,0,,,72,0
50120,note_on,0,0,1,,,,,,,,,0,,,60,0
50120,note_on,40,0,3,,,,,,,,,0,,,46,0
50120,note_on,0,0,1,,,,,,,,,0,,,73,99
50120,note_on,0,0,1,,,,,,,,,0,,,61,99
50145,control_change,225,0,4,,,,,,,,,0,64,0,,
50160,note_on,0,0,3,,,,,,,,,0,,,49,0
50160,note_on,0,0,3,,,,,,,,,0,,,53,0
50160,note_on,0,0,3,,,,,,,,,0,,,30,110
50160,note_on,40,0,3,,,,,,,,,0,,,46,0
50160,note_on,0,0,1,,,,,,,,,0,,,77,100
50160,note_on,0,0,1,,,,,,,,,0,,,65,100
50160,note_on,0,0,1,,,,,,,,,0,,,61,0
50160,control_change,15,0,4,,,,,,,,,0,64,127,,
50160,note_on,40,0,1,,,,,,,,,0,,,73,0
50200,note_on,0,0,3,,,,,,,,,0,,,42,113
50200,note_on,0,0,3,,,,,,,,,0,,,46,113
50200,note_on,0,0,3,,,,,,,,,0,,,51,113
50200,note_on,40,0,3,,,,,,,,,0,,,30,0
50240,note_on,0,0,3,,,,,,,,,0,,,51,0
50240,note_on,0,0,3,,,,,,,,,0,,,42,85
50240,note_on,0,0,3,,,,,,,,,0,,,51,85
50240,note_on,0,0,3,,,,,,,,,0,,,45,85
50240,note_on,40,0,3,,,,,,,,,0,,,42,0
50240,note_on,0,0,3,,,,,,,,,0,,,46,0
50250,note_on,90,0,1,,,,,,,,,0,,,77,0
50250,note_on,0,0,1,,,,,,,,,0,,,65,0
50250,note_on,0,0,1,,,,,,,,,0,,,75,83
50250,note_on,0,0,1,,,,,,,,,0,,,63,83
50280,note_on,0,0,1,,,,,,,,,0,,,63,0
50280,note_on,0,0,1,,,,,,,,,0,,,63,77
50280,note_on,0,0,1,,,,,,,,,0,,,75,77
50280,note_on,0,0,3,,,,,,,,,0,,,42,77
50280,note_on,40,0,3,,,,,,,,,0,,,42,0
50280,note_on,0,0,3,,,,,,,,,0,,,51,0
50280,note_on,0,0,3,,,,,,,,,0,,,45,0
50280,note_on,0,0,3,,,,,,,,,0,,,51,77
50280,note_on,0,0,3,,,,,,,,,0,,,46,77
50280,note_on,30,0,1,,,,,,,,,0,,,75,0
50320,note_on,0,0,3,,,,,,,,,0,,,46,0
50320,note_on,40,0,3,,,,,,,,,0,,,42,0
50320,note_on,0,0,3,,,,,,,,,0,,,53,69
50320,note_on,0,0,3,,,,,,,,,0,,,46,69
50320,note_on,0,0,3,,,,,,,,,0,,,42,69
50320,note_on,0,0,1,,,,,,,,,0,,,73,69
50320,note_on,0,0,1,,,,,,,,,0,,,61,69
50320,note_on,0,0,1,,,,,,,,,0,,,63,0
50320,note_on,40,0,1,,,,,,,,,0,,,75,0
50320,note_on,0,0,3,,,,,,,,,0,,,51,0
50360,note_on,0,0,1,,,,,,,,,0,,,72,61
50360,note_on,0,0,1,,,,,,,,,0,,,60,61
50360,note_on,0,0,1,,,,,,,,,0,,,61,0
50360,note_on,40,0,1,,,,,,,,,0,,,73,0
50360,note_on,0,0,3,,,,,,,,,0,,,53,0
50360,note_on,0,0,3,,,,,,,,,0,,,42,61
50360,note_on,0,0,3,,,,,,,,,0,,,46,61
50360,note_on,0,0,3,,,,,,,,,0,,,51,61
50360,note_on,0,0,3,,,,,,,,,0,,,46,0
50360,note_on,40,0,3,,,,,,,,,0,,,42,0
50385,control_change,225,0,4,,,,,,,,,0,64,0,,
50400,note_on,40,0,1,,,,,,,,,0,,,72,0
50400,note_on,0,0,3,,,,,,,,,0,,,51,0
50400,note_on,0,0,3,,,,,,,,,0,,,46,0
50400,note_on,40,0,3,,,,,,,,,0,,,42,0
50400,note_on,0,0,3,,,,,,,,,0,,,29,70
50400,note_on,0,0,3,,,,,,,,,0,,,41,70
50400,note_on,0,0,1,,,,,,,,,0,,,60,0
50400,control_change,15,0,4,,,,,,,,,0,64,127,,
50400,note_on,0,0,1,,,,,,,,,0,,,70,60
50400,note_on,0,0,1,,,,,,,,,0,,,58,60
50440,note_on,0,0,3,,,,,,,,,0,,,29,0
50440,note_on,0,0,3,,,,,,,,,0,,,41,80
50440,note_on,0,0,3,,,,,,,,,0,,,46,80
50440,note_on,0,0,3,,,,,,,,,0,,,49,80
50440,note_on,40,0,3,,,,,,,,,0,,,41,0
50480,note_on,0,0,3,,,,,,,,,0,,,49,0
50480,note_on,0,0,3,,,,,,,,,0,,,41,60
50480,note_on,0,0,3,,,,,,,,,0,,,46,0
50480,note_on,40,0,3,,,,,,,,,0,,,41,0
50480,note_on,0,0,3,,,,,,,,,0,,,48,60
50480,note_on,0,0,3,,,,,,,,,0,,,46,60
50490,note_on,90,0,1,,,,,,,,,0,,,70,0
50490,note_on,0,0,1,,,,,,,,,0,,,58,0
50490,note_on,0,0,1,,,,,,,,,0,,,57,60
50490,note_on,0,0,1,,,,,,,,,0,,,69,60
50520,note_on,40,0,3,,,,,,,,,0,,,41,0
50520,note_on,30,0,1,,,,,,,,,0,,,69,0
50520,note_on,0,0,1,,,,,,,,,0,,,57,0
50520,note_on,0,0,1,,,,,,,,,0,,,58,60
50520,note_on,0,0,1,,,,,,,,,0,,,70,60
50520,note_on,0,0,3,,,,,,,,,0,,,46,0
50520,note_on,0,0,3,,,,,,,,,0,,,41,60
50520,note_on,0,0,3,,,,,,,,,0,,,46,60
50520,note_on,0,0,3,,,,,,,,,0,,,49,60
50520,note_on,0,0,3,,,,,,,,,0,,,48,0
50560,note_on,0,0,3,,,,,,,,,0,,,41,60
50560,note_on,0,0,3,,,,,,,,,0,,,51,60
50560,note_on,0,0,3,,,,,,,,,0,,,46,60
50560,note_on,0,0,3,,,,,,,,,0,,,49,0
50560,note_on,40,0,3,,,,,,,,,0,,,41,0
50560,note_on,0,0,3,,,,,,,,,0,,,46,0
50560,note_on,0,0,1,,,,,,,,,0,,,61,60
50560,note_on,0,0,1,,,,,,,,,0,,,58,0
50560,note_on,40,0,1,,,,,,,,,0,,,70,0
50560,note_on,0,0,1,,,,,,,,,0,,,73,60
50600,note_on,0,0,3,,,,,,,,,0,,,46,60
50600,note_on,0,0,3,,,,,,,,,0,,,52,60
50600,note_on,0,0,3,,,,,,,,,0,,,51,0
50600,note_on,0,0,3,,,,,,,,,0,,,46,0
50600,note_on,40,0,3,,,,,,,,,0,,,41,0
50600,note_on,0,0,3,,,,,,,,,0,,,41,60
50600,note_on,0,0,1,,,,,,,,,0,,,61,0
50600,note_on,0,0,1,,,,,,,,,0,,,60,60
50600,note_on,0,0,1,,,,,,,,,0,,,72,60
50600,note_on,40,0,1,,,,,,,,,0,,,73,0
50625,control_change,225,0,4,,,,,,,,,0,64,0,,
50640,note_on,0,0,3,,,,,,,,,0,,,41,70
50640,note_on,0,0,3,,,,,,,,,0,,,52,0
50640,note_on,0,0,3,,,,,,,,,0,,,46,0
50640,note_on,0,0,1,,,,,,,,,0,,,72,60
50640,note_on,0,0,3,,,,,,,,,0,,,29,70
50640,note_on,0,0,1,,,,,,,,,0,,,60,60
50640,note_on,0,0,1,,,,,,,,,0,,,60,0
50640,note_on,40,0,1,,,,,,,,,0,,,72,0
50640,control_change,15,0,4,,,,,,,,,0,64,127,,
50640,note_on,40,0,3,,,,,,,,,0,,,41,0
50680,note_on,40,0,3,,,,,,,,,0,,,41,0
50680,note_on,0,0,3,,,,,,,,,0,,,29,0
50680,note_on,0,0,3,,,,,,,,,0,,,53,80
50680,note_on,0,0,3,,,,,,,,,0,,,45,80
50680,note_on,0,0,3,,,,,,,,,0,,,41,80
50720,note_on,40,0,3,,,,,,,,,0,,,41,0
50720,note_on,0,0,3,,,,,,,,,0,,,45,0
50720,note_on,0,0,3,,,,,,,,,0,,,53,0
50720,note_on,0,0,3,,,,,,,,,0,,,52,60
50720,note_on,0,0,3,,,,,,,,,0,,,45,60
50720,note_on,0,0,3,,,,,,,,,0,,,41,60
50760,note_on,0,0,3,,,,,,,,,0,,,45,0
50760,note_on,0,0,3,,,,,,,,,0,,,52,0
50760,note_on,40,0,3,,,,,,,,,0,,,41,0
50760,note_on,0,0,3,,,,,,,,,0,,,45,60
50760,note_on,0,0,3,,,,,,,,,0,,,41,60
50760,note_on,0,0,3,,,,,,,,,0,,,53,60
50800,note_on,40,0,3,,,,,,,,,0,,,41,0
50800,note_on,0,0,3,,,,,,,,,0,,,45,0
50800,note_on,0,0,3,,,,,,,,,0,,,53,0
50800,note_on,0,0,3,,,,,,,,,0,,,54,60
50800,note_on,0,0,3,,,,,,,,,0,,,45,60
50800,note_on,0,0,3,,,,,,,,,0,,,41,60
50820,note_on,0,0,1,,,,,,,,,0,,,65,60
50820,note_on,180,0,1,,,,,,,,,0,,,72,0
50820,note_on,0,0,1,,,,,,,,,0,,,60,0
50840,note_on,0,0,3,,,,,,,,,0,,,54,0
50840,note_on,0,0,3,,,,,,,,,0,,,41,60
50840,note_on,0,0,3,,,,,,,,,0,,,45,0
50840,note_on,40,0,3,,,,,,,,,0,,,41,0
50840,note_on,0,0,3,,,,,,,,,0,,,53,60
50840,note_on,0,0,3,,,,,,,,,0,,,45,60
50865,control_change,225,0,4,,,,,,,,,0,64,0,,
50880,control_change,15,0,4,,,,,,,,,0,64,127,,
50880,note_on,60,0,1,,,,,,,,,0,,,65,0
50880,note_on,0,0,1,,,,,,,,,0,,,73,60
50880,note_on,0,0,1,,,,,,,,,0,,,65,60
50880,note_on,0,0,1,,,,,,,,,0,,,61,60
50880,note_on,40,0,3,,,,,,,,,0,,,41,0
50880,note_on,0,0,3,,,,,,,,,0,,,34,70
50880,note_on,0,0,3,,,,,,,,,0,,,53,0
50880,note_on,0,0,3,,,,,,,,,0,,,45,0
50880,note_on,0,0,3,,,,,,,,,0,,,46,70
50920,note_on,40,0,3,,,,,,,,,0,,,46,0
50920,note_on,0,0,3,,,,,,,,,0,,,34,0
50920,note_on,0,0,3,,,,,,,,,0,,,53,80
50920,note_on,0,0,3,,,,,,,,,0,,,49,80
50920,note_on,0,0,3,,,,,,,,,0,,,46,80
50960,note_on,0,0,3,,,,,,,,,0,,,49,0
50960,note_on,0,0,3,,,,,,,,,0,,,53,0
50960,note_on,40,0,3,,,,,,,,,0,,,46,0
50960,note_on,0,0,3,,,,,,,,,0,,,52,60
50960,note_on,0,0,3,,,,,,,,,0,,,49,60
50960,note_on,0,0,3,,,,,,,,,0,,,46,60
51000,note_on,40,0,3,,,,,,,,,0,,,46,0
51000,note_on,0,0,3,,,,,,,,,0,,,46,60
51000,note_on,0,0,3,,,,,,,,,0,,,49,60
51000,note_on,0,0,3,,,,,,,,,0,,,49,0
51000,note_on,0,0,3,,,,,,,,,0,,,52,0
51000,note_on,0,0,3,,,,,,,,,0,,,53,60
51040,note_on,0,0,3,,,,,,,,,0,,,49,0
51040,note_on,0,0,3,,,,,,,,,0,,,46,60
51040,note_on,0,0,3,,,,,,,,,0,,,49,60
51040,note_on,0,0,3,,,,,,,,,0,,,54,60
51040,note_on,0,0,3,,,,,,,,,0,,,53,0
51040,note_on,40,0,3,,,,,,,,,0,,,46,0
51060,note_on,0,0,1,,,,,,,,,0,,,65,0
51060,note_on,180,0,1,,,,,,,,,0,,,61,0
51060,note_on,0,0,1,,,,,,,,,0,,,61,60
51060,note_on,0,0,1,,,,,,,,,0,,,73,60
51060,note_on,0,0,1,,,,,,,,,0,,,65,60
51060,note_on,0,0,1,,,,,,,,,0,,,73,0
51080,note_on,0,0,3,,,,,,,,,0,,,54,0
51080,note_on,0,0,3,,,,,,,,,0,,,46,60
51080,note_on,0,0,3,,,,,,,,,0,,,49,60
51080,note_on,0,0,3,,,,,,,,,0,,,53,60
51080,note_on,0,0,3,,,,,,,,,0,,,49,0
51080,note_on,40,0,3,,,,,,,,,0,,,46,0
51105,control_change,225,0,4,,,,,,,,,0,64,0,,
51120,control_change,15,0,4,,,,,,,,,0,64,127,,
51120,note_on,60,0,1,,,,,,,,,0,,,61,0
51120,note_on,40,0,3,,,,,,,,,0,,,46,0
51120,note_on,0,0,1,,,,,,,,,0,,,73,0
51120,note_on,0,0,1,,,,,,,,,0,,,60,60
51120,note_on,0,0,1,,,,,,,,,0,,,72,60
51120,note_on,0,0,1,,,,,,,,,0,,,65,60
51120,note_on,0,0,3,,,,,,,,,0,,,49,0
51120,note_on,0,0,3,,,,,,,,,0,,,53,0
51120,note_on,0,0,3,,,,,,,,,0,,,37,70
51120,note_on,0,0,3,,,,,,,,,0,,,49,70
51120,note_on,0,0,1,,,,,,,,,0,,,65,0
51160,note_on,40,0,3,,,,,,,,,0,,,49,0
51160,note_on,0,0,3,,,,,,,,,0,,,53,80
51160,note_on,0,0,3,,,,,,,,,0,,,49,80
51160,note_on,0,0,3,,,,,,,,,0,,,37,0
51200,note_on,40,0,3,,,,,,,,,0,,,49,0
51200,note_on,0,0,3,,,,,,,,,0,,,53,0
51200,note_on,0,0,3,,,,,,,,,0,,,52,60
51200,note_on,0,0,3,,,,,,,,,0,,,49,60
51240,note_on,0,0,1,,,,,,,,,0,,,58,60
51240,note_on,0,0,1,,,,,,,,,0,,,70,60
51240,note_on,0,0,1,,,,,,,,,0,,,60,0
51240,note_on,40,0,3,,,,,,,,,0,,,49,0
51240,note_on,0,0,3,,,,,,,,,0,,,52,0
51240,note_on,0,0,3,,,,,,,,,0,,,53,60
51240,note_on,0,0,3,,,,,,,,,0,,,49,60
51240,note_on,120,0,1,,,,,,,,,0,,,72,0
51280,note_on,0,0,3,,,,,,,,,0,,,53,0
51280,note_on,40,0,3,,,,,,,,,0,,,49,0
51280,note_on,0,0,3,,,,,,,,,0,,,54,60
51280,note_on,0,0,3,,,,,,,,,0,,,49,60
51300,note_on,60,0,1,,,,,,,,,0,,,70,0
51300,note_on,0,0,1,,,,,,,,,0,,,58,0
51300,note_on,0,0,1,,,,,,,,,0,,,70,60
51300,note_on,0,0,1,,,,,,,,,0,,,65,60
51300,note_on,0,0,1,,,,,,,,,0,,,58,60
51300,note_on,0,0,1,,,,,,,,,0,,,65,0
51320,note_on,0,0,3,,,,,,,,,0,,,54,0
51320,note_on,0,0,3,,,,,,,,,0,,,49,60
51320,note_on,0,0,3,,,,,,,,,0,,,53,60
51320,note_on,40,0,3,,,,,,,,,0,,,49,0
51345,control_change,225,0,4,,,,,,,,,0,64,0,,
51360,note_on,0,0,1,,,,,,,,,0,,,65,0
51360,note_on,0,0,1,,,,,,,,,0,,,58,0
51360,note_on,0,0,1,,,,,,,,,0,,,58,60
51360,note_on,0,0,1,,,,,,,,,0,,,70,60
51360,note_on,0,0,1,,,,,,,,,0,,,65,60
51360,control_change,15,0,4,,,,,,,,,0,64,127,,
51360,note_on,0,0,3,,,,,,,,,0,,,53,0
51360,note_on,0,0,3,,,,,,,,,0,,,36,70
51360,note_on,60,0,1,,,,,,,,,0,,,70,0
51360,note_on,40,0,3,,,,,,,,,0,,,49,0
51400,note_on,0,0,3,,,,,,,,,0,,,53,87
51400,note_on,0,0,3,,,,,,,,,0,,,51,87
51400,note_on,0,0,3,,,,,,,,,0,,,48,87
51400,note_on,40,0,3,,,,,,,,,0,,,36,0
51440,note_on,0,0,3,,,,,,,,,0,,,51,75
51440,note_on,40,0,3,,,,,,,,,0,,,48,0
51440,note_on,0,0,3,,,,,,,,,0,,,51,0
51440,note_on,0,0,3,,,,,,,,,0,,,53,0
51440,note_on,0,0,3,,,,,,,,,0,,,52,75
51440,note_on,0,0,3,,,,,,,,,0,,,48,75
51450,note_on,0,0,1,,,,,,,,,0,,,69,77
51450,note_on,0,0,1,,,,,,,,,0,,,57,77
51450,note_on,0,0,1,,,,,,,,,0,,,58,0
51450,note_on,90,0,1,,,,,,,,,0,,,70,0
51480,note_on,0,0,1,,,,,,,,,0,,,72,83
51480,note_on,0,0,1,,,,,,,,,0,,,60,83
51480,note_on,0,0,1,,,,,,,,,0,,,65,0
51480,note_on,0,0,1,,,,,,,,,0,,,57,0
51480,note_on,30,0,1,,,,,,,,,0,,,69,0
51480,note_on,0,0,3,,,,,,,,,0,,,51,83
51480,note_on,0,0,3,,,,,,,,,0,,,52,0
51480,note_on,0,0,3,,,,,,,,,0,,,51,0
51480,note_on,0,0,3,,,,,,,,,0,,,53,83
51480,note_on,0,0,3,,,,,,,,,0,,,48,83
51480,note_on,40,0,3,,,,,,,,,0,,,48,0
51520,note_on,0,0,1,,,,,,,,,0,,,75,91
51520,note_on,0,0,1,,,,,,,,,0,,,63,91
51520,note_on,40,0,1,,,,,,,,,0,,,72,0
51520,note_on,0,0,3,,,,,,,,,0,,,48,91
51520,note_on,0,0,1,,,,,,,,,0,,,60,0
51520,note_on,0,0,3,,,,,,,,,0,,,51,91
51520,note_on,0,0,3,,,,,,,,,0,,,53,0
51520,note_on,0,0,3,,,,,,,,,0,,,51,0
51520,note_on,40,0,3,,,,,,,,,0,,,48,0
51560,note_on,0,0,1,,,,,,,,,0,,,78,99
51560,note_on,0,0,1,,,,,,,,,0,,,75,99
51560,note_on,0,0,1,,,,,,,,,0,,,66,99
51560,note_on,0,0,1,,,,,,,,,0,,,72,99
51560,note_on,0,0,3,,,,,,,,,0,,,48,99
51560,note_on,0,0,3,,,,,,,,,0,,,51,99
51560,note_on,40,0,1,,,,,,,,,0,,,75,0
51560,note_on,0,0,3,,,,,,,,,0,,,54,99
51560,note_on,0,0,3,,,,,,,,,0,,,51,0
51560,note_on,40,0,3,,,,,,,,,0,,,48,0
51560,note_on,0,0,1,,,,,,,,,0,,,63,0
51585,control_change,225,0,4,,,,,,,,,0,64,0,,
51600,note_on,40,0,1,,,,,,,,,0,,,75,0
51600,note_on,0,0,1,,,,,,,,,0,,,78,0
51600,note_on,0,0,1,,,,,,,,,0,,,72,0
51600,note_on,0,0,1,,,,,,,,,0,,,66,0
51600,note_on,0,0,1,,,,,,,,,0,,,77,100
51600,note_on,0,0,1,,,,,,,,,0,,,75,100
51600,note_on,0,0,1,,,,,,,,,0,,,65,100
51600,note_on,0,0,1,,,,,,,,,0,,,72,100
51600,note_on,40,0,3,,,,,,,,,0,,,48,0
51600,note_on,0,0,3,,,,,,,,,0,,,51,0
51600,note_on,0,0,3,,,,,,,,,0,,,54,0
51600,note_on,0,0,3,,,,,,,,,0,,,33,110
51600,control_change,15,0,4,,,,,,,,,0,64,127,,
51640,note_on,40,0,3,,,,,,,,,0,,,33,0
51640,note_on,0,0,3,,,,,,,,,0,,,53,80
51640,note_on,0,0,3,,,,,,,,,0,,,48,80
51640,note_on,0,0,3,,,,,,,,,0,,,45,80
51680,note_on,40,0,3,,,,,,,,,0,,,45,0
51680,note_on,0,0,3,,,,,,,,,0,,,48,0
51680,note_on,0,0,3,,,,,,,,,0,,,53,0
51680,note_on,0,0,3,,,,,,,,,0,,,52,60
51680,note_on,0,0,3,,,,,,,,,0,,,48,60
51680,note_on,0,0,3,,,,,,,,,0,,,45,60
51720,note_on,40,0,3,,,,,,,,,0,,,45,0
51720,note_on,0,0,3,,,,,,,,,0,,,53,60
51720,note_on,0,0,3,,,,,,,,,0,,,45,60
51720,note_on,0,0,3,,,,,,,,,0,,,48,60
51720,note_on,0,0,3,,,,,,,,,0,,,52,0
51720,note_on,0,0,3,,,,,,,,,0,,,48,0
51760,note_on,0,0,3,,,,,,,,,0,,,45,60
51760,note_on,0,0,3,,,,,,,,,0,,,48,60
51760,note_on,40,0,3,,,,,,,,,0,,,45,0
51760,note_on,0,0,3,,,,,,,,,0,,,53,0
51760,note_on,0,0,3,,,,,,,,,0,,,48,0
51760,note_on,0,0,3,,,,,,,,,0,,,54,60
51780,note_on,0,0,1,,,,,,,,,0,,,75,60
51780,note_on,0,0,1,,,,,,,,,0,,,63,60
51780,note_on,0,0,1,,,,,,,,,0,,,72,0
51780,note_on,0,0,1,,,,,,,,,0,,,75,0
51780,note_on,0,0,1,,,,,,,,,0,,,77,0
51780,note_on,180,0,1,,,,,,,,,0,,,65,0
51800,note_on,40,0,3,,,,,,,,,0,,,45,0
51800,note_on,0,0,3,,,,,,,,,0,,,48,0
51800,note_on,0,0,3,,,,,,,,,0,,,54,0
51800,note_on,0,0,3,,,,,,,,,0,,,48,60
51800,note_on,0,0,3,,,,,,,,,0,,,45,60
51800,note_on,0,0,3,,,,,,,,,0,,,53,60
51825,control_change,225,0,4,,,,,,,,,0,64,0,,
51840,control_change,15,0,4,,,,,,,,,0,64,127,,
51840,note_on,0,0,3,,,,,,,,,0,,,34,70
51840,note_on,0,0,3,,,,,,,,,0,,,53,0
51840,note_on,0,0,3,,,,,,,,,0,,,48,0
51840,note_on,40,0,3,,,,,,,,,0,,,45,0
51840,note_on,60,0,1,,,,,,,,,0,,,75,0
51840,note_on,0,0,1,,,,,,,,,0,,,75,60
51840,note_on,0,0,1,,,,,,,,,0,,,63,60
51840,note_on,0,0,1,,,,,,,,,0,,,63,0
51880,note_on,0,0,3,,,,,,,,,0,,,46,87
51880,note_on,0,0,3,,,,,,,,,0,,,53,87
51880,note_on,40,0,3,,,,,,,,,0,,,34,0
51880,note_on,0,0,3,,,,,,,,,0,,,49,87
51920,note_on,0,0,3,,,,,,,,,0,,,49,75
51920,note_on,40,0,3,,,,,,,,,0,,,46,0
51920,note_on,0,0,3,,,,,,,,,0,,,49,0
51920,note_on,0,0,3,,,,,,,,,0,,,53,0
51920,note_on,0,0,3,,,,,,,,,0,,,52,75
51920,note_on,0,0,3,,,,,,,,,0,,,46,75
51930,note_on,0,0,1,,,,,,,,,0,,,63,0
51930,note_on,0,0,1,,,,,,,,,0,,,61,77
51930,note_on,0,0,1,,,,,,,,,0,,,73,77
51930,note_on,90,0,1,,,,,,,,,0,,,75,0
51960,note_on,0,0,3,,,,,,,,,0,,,52,0
51960,note_on,0,0,3,,,,,,,,,0,,,53,83
51960,note_on,0,0,3,,,,,,,,,0,,,49,83
51960,note_on,0,0,3,,,,,,,,,0,,,49,0
51960,note_on,0,0,3,,,,,,,,,0,,,46,83
51960,note_on,0,0,1,,,,,,,,,0,,,70,83
51960,note_on,30,0,1,,,,,,,,,0,,,73,0
51960,note_on,0,0,1,,,,,,,,,0,,,61,0
51960,note_on,0,0,1,,,,,,,,,0,,,58,83
51960,note_on,40,0,3,,,,,,,,,0,,,46,0
52000,note_on,0,0,1,,,,,,,,,0,,,72,91
52000,note_on,40,0,1,,,,,,,,,0,,,70,0
52000,note_on,40,0,3,,,,,,,,,0,,,46,0
52000,note_on,0,0,3,,,,,,,,,0,,,49,0
52000,note_on,0,0,3,,,,,,,,,0,,,53,0
52000,note_on,0,0,3,,,,,,,,,0,,,54,91
52000,note_on,0,0,3,,,,,,,,,0,,,49,91
52000,note_on,0,0,3,,,,,,,,,0,,,46,91
52000,note_on,0,0,1,,,,,,,,,0,,,60,91
52000,note_on,0,0,1,,,,,,,,,0,,,58,0
52040,note_on,0,0,3,,,,,,,,,0,,,49,0
52040,note_on,0,0,1,,,,,,,,,0,,,61,99
52040,note_on,0,0,1,,,,,,,,,0,,,73,99
52040,note_on,40,0,3,,,,,,,,,0,,,46,0
52040,note_on,0,0,1,,,,,,,,,0,,,60,0
52040,note_on,0,0,3,,,,,,,,,0,,,54,0
52040,note_on,0,0,3,,,,,,,,,0,,,53,99
52040,note_on,0,0,3,,,,,,,,,0,,,49,99
52040,note_on,40,0,1,,,,,,,,,0,,,72,0
52040,note_on,0,0,3,,,,,,,,,0,,,46,99
52065,control_change,225,0,4,,,,,,,,,0,64,0,,
52080,note_on,40,0,3,,,,,,,,,0,,,46,0
52080,note_on,0,0,3,,,,,,,,,0,,,49,0
52080,note_on,0,0,3,,,,,,,,,0,,,53,0
52080,note_on,0,0,3,,,,,,,,,0,,,40,110
52080,note_on,0,0,1,,,,,,,,,0,,,72,100
52080,note_on,0,0,1,,,,,,,,,0,,,60,100
52080,note_on,0,0,1,,,,,,,,,0,,,61,0
52080,note_on,40,0,1,,,,,,,,,0,,,73,0
52080,control_change,15,0,4,,,,,,,,,0,64,127,,
52120,note_on,0,0,3,,,,,,,,,0,,,48,113
52120,note_on,40,0,3,,,,,,,,,0,,,40,0
52120,note_on,0,0,3,,,,,,,,,0,,,55,113
52120,note_on,0,0,3,,,,,,,,,0,,,46,113
52160,note_on,0,0,3,,,,,,,,,0,,,46,85
52160,note_on,0,0,3,,,,,,,,,0,,,49,85
52160,note_on,0,0,3,,,,,,,,,0,,,55,85
52160,note_on,0,0,3,,,,,,,,,0,,,55,0
52160,note_on,0,0,3,,,,,,,,,0,,,48,0
52160,note_on,40,0,3,,,,,,,,,0,,,46,0
52170,note_on,90,0,1,,,,,,,,,0,,,72,0
52170,note_on,0,0,1,,,,,,,,,0,,,60,0
52170,note_on,0,0,1,,,,,,,,,0,,,58,83
52170,note_on,0,0,1,,,,,,,,,0,,,70,83
52200,note_on,0,0,3,,,,,,,,,0,,,55,77
52200,note_on,30,0,1,,,,,,,,,0,,,70,0
52200,note_on,0,0,1,,,,,,,,,0,,,58,0
52200,note_on,0,0,1,,,,,,,,,0,,,61,77
52200,note_on,0,0,1,,,,,,,,,0,,,73,77
52200,note_on,0,0,3,,,,,,,,,0,,,49,0
52200,note_on,40,0,3,,,,,,,,,0,,,46,0
52200,note_on,0,0,3,,,,,,,,,0,,,46,77
52200,note_on,0,0,3,,,,,,,,,0,,,55,0
52240,note_on,0,0,1,,,,,,,,,0,,,72,69
52240,note_on,0,0,1,,,,,,,,,0,,,60,69
52240,note_on,0,0,3,,,,,,,,,0,,,46,69
52240,note_on,0,0,3,,,,,,,,,0,,,55,69
52240,note_on,0,0,1,,,,,,,,,0,,,61,0
52240,note_on,0,0,3,,,,,,,,,0,,,55,0
52240,note_on,40,0,3,,,,,,,,,0,,,46,0
52240,note_on,40,0,1,,,,,,,,,0,,,73,0
52240,note_on,0,0,3,,,,,,,,,0,,,48,69
52280,note_on,40,0,3,,,,,,,,,0,,,46,0
52280,note_on,0,0,3,,,,,,,,,0,,,48,0
52280,note_on,0,0,3,,,,,,,,,0,,,49,61
52280,note_on,0,0,3,,,,,,,,,0,,,55,61
52280,note_on,0,0,3,,,,,,,,,0,,,46,61
52280,note_on,0,0,1,,,,,,,,,0,,,60,0
52280,note_on,0,0,1,,,,,,,,,0,,,58,61
52280,note_on,0,0,1,,,,,,,,,0,,,70,61
52280,note_on,0,0,3,,,,,,,,,0,,,55,0
52280,note_on,40,0,1,,,,,,,,,0,,,72,0
52305,control_change,225,0,4,,,,,,,,,0,64,0,,
52320,note_on,0,0,3,,,,,,,,,0,,,41,70
52320,note_on,0,0,3,,,,,,,,,0,,,49,0
52320,note_on,0,0,3,,,,,,,,,0,,,55,0
52320,note_on,40,0,3,,,,,,,,,0,,,46,0
52320,control_change,15,0,4,,,,,,,,,0,64,127,,
52320,note_on,0,0,1,,,,,,,,,0,,,66,60
52320,note_on,0,0,1,,,,,,,,,0,,,54,60
52320,note_on,0,0,1,,,,,,,,,0,,,58,0
52320,note_on,40,0,1,,,,,,,,,0,,,70,0
52360,note_on,40,0,3,,,,,,,,,0,,,41,0
52360,note_on,0,0,3,,,,,,,,,0,,,46,80
52360,note_on,0,0,3,,,,,,,,,0,,,49,80
52400,note_on,0,0,3,,,,,,,,,0,,,46,60
52400,note_on,40,0,3,,,,,,,,,0,,,46,0
52400,note_on,0,0,3,,,,,,,,,0,,,49,60
52400,note_on,0,0,3,,,,,,,,,0,,,49,0
52410,note_on,0,0,1,,,,,,,,,0,,,53,60
52410,note_on,90,0,1,,,,,,,,,0,,,66,0
52410,note_on,0,0,1,,,,,,,,,0,,,65,60
52410,note_on,0,0,1,,,,,,,,,0,,,54,0
52425,control_change,105,0,4,,,,,,,,,0,64,0,,
52440,note_on,40,0,3,,,,,,,,,0,,,46,0
52440,note_on,0,0,3,,,,,,,,,0,,,49,0
52440,note_on,0,0,3,,,,,,,,,0,,,41,70
52440,note_on,30,0,1,,,,,,,,,0,,,65,0
52440,note_on,0,0,1,,,,,,,,,0,,,53,0
52440,note_on,0,0,1,,,,,,,,,0,,,53,60
52440,note_on,0,0,1,,,,,,,,,0,,,65,60
52440,control_change,15,0,4,,,,,,,,,0,64,127,,
52480,note_on,0,0,1,,,,,,,,,0,,,54,60
52480,note_on,0,0,1,,,,,,,,,0,,,53,0
52480,note_on,40,0,1,,,,,,,,,0,,,65,0
52480,note_on,0,0,1,,,,,,,,,0,,,66,60
52480,note_on,0,0,3,,,,,,,,,0,,,45,80
52480,note_on,0,0,3,,,,,,,,,0,,,48,80
52480,note_on,40,0,3,,,,,,,,,0,,,41,0
52520,note_on,0,0,3,,,,,,,,,0,,,45,60
52520,note_on,0,0,3,,,,,,,,,0,,,48,60
52520,note_on,0,0,1,,,,,,,,,0,,,65,60
52520,note_on,0,0,3,,,,,,,,,0,,,48,0
52520,note_on,40,0,3,,,,,,,,,0,,,45,0
52520,note_on,0,0,1,,,,,,,,,0,,,53,60
52520,note_on,0,0,1,,,,,,,,,0,,,54,0
52520,note_on,40,0,1,,,,,,,,,0,,,66,0
52545,control_change,105,0,4,,,,,,,,,0,64,0,,
52560,control_change,15,0,4,,,,,,,,,0,64,127,,
52560,note_on,40,0,1,,,,,,,,,0,,,65,0
52560,note_on,0,0,1,,,,,,,,,0,,,53,0
52560,note_on,0,0,3,,,,,,,,,0,,,48,0
52560,note_on,0,0,3,,,,,,,,,0,,,34,70
52560,note_on,40,0,3,,,,,,,,,0,,,45,0
52560,note_on,0,0,1,,,,,,,,,0,,,58,60
52600,note_on,40,0,3,,,,,,,,,0,,,34,0
52600,note_on,0,0,3,,,,,,,,,0,,,46,80
52600,note_on,0,0,3,,,,,,,,,0,,,49,80
52600,note_on,0,0,3,,,,,,,,,0,,,53,80
52640,note_on,0,0,3,,,,,,,,,0,,,51,60
52640,note_on,0,0,3,,,,,,,,,0,,,53,0
52640,note_on,0,0,3,,,,,,,,,0,,,49,0
52640,note_on,40,0,3,,,,,,,,,0,,,46,0
52640,note_on,0,0,3,,,,,,,,,0,,,48,60
52640,note_on,0,0,3,,,,,,,,,0,,,46,60
52665,control_change,105,0,4,,,,,,,,,0,64,0,,
52680,note_on,0,0,3,,,,,,,,,0,,,49,70
52680,note_on,0,0,3,,,,,,,,,0,,,51,0
52680,note_on,40,0,3,,,,,,,,,0,,,46,0
52680,control_change,15,0,4,,,,,,,,,0,64,127,,
52680,note_on,0,0,3,,,,,,,,,0,,,46,70
52680,note_on,0,0,3,,,,,,,,,0,,,48,0
52740,note_on,180,0,1,,,,,,,,,0,,,58,0
52740,note_on,0,0,1,,,,,,,,,0,,,77,60
52785,control_change,105,0,4,,,,,,,,,0,64,0,,
52800,control_change,15,0,4,,,,,,,,,0,64,127,,
52800,note_on,0,0,1,,,,,,,,,0,,,77,60
52800,note_on,0,0,1,,,,,,,,,0,,,85,60
52800,note_on,60,0,1,,,,,,,,,0,,,77,0
52800,note_on,0,0,3,,,,,,,,,0,,,46,70
52800,note_on,0,0,3,,,,,,,,,0,,,49,0
52800,note_on,0,0,1,,,,,,,,,0,,,73,60
52800,note_on,120,0,3,,,,,,,,,0,,,46,0
52840,note_on,0,0,3,,,,,,,,,0,,,65,80
52840,note_on,0,0,3,,,,,,,,,0,,,58,80
52840,note_on,0,0,3,,,,,,,,,0,,,61,80
52840,note_on,40,0,3,,,,,,,,,0,,,46,0
52880,note_on,0,0,3,,,,,,,,,0,,,65,0
52880,note_on,0,0,3,,,,,,,,,0,,,61,0
52880,note_on,0,0,3,,,,,,,,,0,,,64,60
52880,note_on,40,0,3,,,,,,,,,0,,,58,0
52880,note_on,0,0,3,,,,,,,,,0,,,61,60
52880,note_on,0,0,3,,,,,,,,,0,,,58,60
52920,note_on,0,0,3,,,,,,,,,0,,,61,60
52920,note_on,40,0,3,,,,,,,,,0,,,58,0
52920,note_on,0,0,3,,,,,,,,,0,,,58,60
52920,note_on,0,0,3,,,,,,,,,0,,,65,60
52920,note_on,0,0,3,,,,,,,,,0,,,64,0
52920,note_on,0,0,3,,,,,,,,,0,,,61,0
52960,note_on,0,0,3,,,,,,,,,0,,,58,60
52960,note_on,0,0,3,,,,,,,,,0,,,61,60
52960,note_on,0,0,3,,,,,,,,,0,,,66,60
52960,note_on,0,0,3,,,,,,,,,0,,,65,0
52960,note_on,0,0,3,,,,,,,,,0,,,61,0
52960,note_on,40,0,3,,,,,,,,,0,,,58,0
52980,note_on,0,0,1,,,,,,,,,0,,,85,60
52980,note_on,180,0,1,,,,,,,,,0,,,73,0
52980,note_on,0,0,1,,,,,,,,,0,,,77,60
52980,note_on,0,0,1,,,,,,,,,0,,,73,60
52980,note_on,0,0,1,,,,,,,,,0,,,85,0
52980,note_on,0,0,1,,,,,,,,,0,,,77,0
53000,note_on,0,0,3,,,,,,,,,0,,,65,60
53000,note_on,0,0,3,,,,,,,,,0,,,58,60
53000,note_on,0,0,3,,,,,,,,,0,,,61,60
53000,note_on,0,0,3,,,,,,,,,0,,,66,0
53000,note_on,0,0,3,,,,,,,,,0,,,61,0
53000,note_on,40,0,3,,,,,,,,,0,,,58,0
53025,control_change,225,0,4,,,,,,,,,0,64,0,,
53040,note_on,0,0,3,,,,,,,,,0,,,61,0
53040,note_on,40,0,3,,,,,,,,,0,,,58,0
53040,note_on,0,0,3,,,,,,,,,0,,,49,70
53040,note_on,0,0,3,,,,,,,,,0,,,65,0
53040,note_on,0,0,1,,,,,,,,,0,,,85,0
53040,note_on,0,0,1,,,,,,,,,0,,,72,60
53040,note_on,0,0,1,,,,,,,,,0,,,77,0
53040,note_on,60,0,1,,,,,,,,,0,,,73,0
53040,control_change,15,0,4,,,,,,,,,0,64,127,,
53040,note_on,0,0,1,,,,,,,,,0,,,77,60
53040,note_on,0,0,1,,,,,,,,,0,,,84,60
53080,note_on,40,0,3,,,,,,,,,0,,,49,0
53080,note_on,0,0,3,,,,,,,,,0,,,61,80
53080,note_on,0,0,3,,,,,,,,,0,,,65,80
53120,note_on,0,0,3,,,,,,,,,0,,,61,60
53120,note_on,0,0,3,,,,,,,,,0,,,64,60
53120,note_on,0,0,3,,,,,,,,,0,,,65,0
53120,note_on,40,0,3,,,,,,,,,0,,,61,0
53160,note_on,0,0,3,,,,,,,,,0,,,61,60
53160,note_on,0,0,3,,,,,,,,,0,,,65,60
53160,note_on,0,0,3,,,,,,,,,0,,,64,0
53160,note_on,40,0,3,,,,,,,,,0,,,61,0
53160,note_on,120,0,1,,,,,,,,,0,,,84,0
53160,note_on,0,0,1,,,,,,,,,0,,,72,0
53160,note_on,0,0,1,,,,,,,,,0,,,70,60
53160,note_on,0,0,1,,,,,,,,,0,,,82,60
53200,note_on,0,0,3,,,,,,,,,0,,,61,60
53200,note_on,0,0,3,,,,,,,,,0,,,66,60
53200,note_on,0,0,3,,,,,,,,,0,,,65,0
53200,note_on,40,0,3,,,,,,,,,0,,,61,0
53220,note_on,60,0,1,,,,,,,,,0,,,82,0
53220,note_on,0,0,1,,,,,,,,,0,,,70,0
53220,note_on,0,0,1,,,,,,,,,0,,,77,0
53220,note_on,0,0,1,,,,,,,,,0,,,70,60
53220,note_on,0,0,1,,,,,,,,,0,,,77,60
53220,note_on,0,0,1,,,,,,,,,0,,,82,60
53240,note_on,0,0,3,,,,,,,,,0,,,66,0
53240,note_on,0,0,3,,,,,,,,,0,,,61,60
53240,note_on,40,0,3,,,,,,,,,0,,,61,0
53240,note_on,0,0,3,,,,,,,,,0,,,65,60
53265,control_change,225,0,4,,,,,,,,,0,64,0,,
53280,note_on,40,0,3,,,,,,,,,0,,,61,0
53280,note_on,0,0,1,,,,,,,,,0,,,82,60
53280,note_on,60,0,1,,,,,,,,,0,,,82,0
53280,note_on,0,0,1,,,,,,,,,0,,,77,0
53280,control_change,15,0,4,,,,,,,,,0,64,127,,
53280,note_on,0,0,1,,,,,,,,,0,,,77,60
53280,note_on,0,0,1,,,,,,,,,0,,,70,0
53280,note_on,0,0,1,,,,,,,,,0,,,70,60
53280,note_on,0,0,3,,,,,,,,,0,,,48,70
53280,note_on,0,0,3,,,,,,,,,0,,,65,0
53320,note_on,0,0,3,,,,,,,,,0,,,60,87
53320,note_on,0,0,3,,,,,,,,,0,,,63,87
53320,note_on,40,0,3,,,,,,,,,0,,,48,0
53320,note_on,40,0,1,,,,,,,,,0,,,65,87
53360,note_on,40,0,1,,,,,,,,,0,,,65,0
53360,note_on,0,0,1,,,,,,,,,0,,,64,75
53360,note_on,0,0,3,,,,,,,,,0,,,63,0
53360,note_on,0,0,3,,,,,,,,,0,,,60,75
53360,note_on,0,0,3,,,,,,,,,0,,,63,75
53360,note_on,40,0,3,,,,,,,,,0,,,60,0
53370,note_on,0,0,1,,,,,,,,,0,,,82,0
53370,note_on,0,0,1,,,,,,,,,0,,,69,77
53370,note_on,10,0,1,,,,,,,,,0,,,70,0
53370,note_on,0,0,1,,,,,,,,,0,,,81,77
53400,note_on,0,0,1,,,,,,,,,0,,,72,83
53400,note_on,0,0,1,,,,,,,,,0,,,69,0
53400,note_on,0,0,3,,,,,,,,,0,,,60,83
53400,note_on,0,0,1,,,,,,,,,0,,,77,0
53400,note_on,0,0,1,,,,,,,,,0,,,64,0
53400,note_on,0,0,1,,,,,,,,,0,,,65,83
53400,note_on,0,0,1,,,,,,,,,0,,,84,83
53400,note_on,40,0,3,,,,,,,,,0,,,60,0
53400,note_on,0,0,3,,,,,,,,,0,,,63,0
53400,note_on,0,0,3,,,,,,,,,0,,,63,83
53400,note_on,30,0,1,,,,,,,,,0,,,81,0
53440,note_on,40,0,3,,,,,,,,,0,,,60,0
53440,note_on,0,0,1,,,,,,,,,0,,,75,91
53440,note_on,0,0,1,,,,,,,,,0,,,84,0
53440,note_on,0,0,1,,,,,,,,,0,,,72,0
53440,note_on,0,0,1,,,,,,,,,0,,,87,91
53440,note_on,0,0,1,,,,,,,,,0,,,63,91
53440,note_on,0,0,3,,,,,,,,,0,,,63,91
53440,note_on,0,0,3,,,,,,,,,0,,,63,0
53440,note_on,40,0,1,,,,,,,,,0,,,65,0
53440,note_on,0,0,3,,,,,,,,,0,,,60,91
53480,note_on,40,0,3,,,,,,,,,0,,,60,0
53480,note_on,0,0,3,,,,,,,,,0,,,63,0
53480,note_on,0,0,1,,,,,,,,,0,,,75,0
53480,note_on,0,0,1,,,,,,,,,0,,,87,0
53480,note_on,0,0,1,,,,,,,,,0,,,90,99
53480,note_on,0,0,1,,,,,,,,,0,,,84,99
53480,note_on,0,0,1,,,,,,,,,0,,,78,99
53480,note_on,0,0,1,,,,,,,,,0,,,87,99
53480,note_on,0,0,1,,,,,,,,,0,,,66,99
53480,note_on,0,0,3,,,,,,,,,0,,,60,99
53480,note_on,40,0,1,,,,,,,,,0,,,63,0
53480,note_on,0,0,3,,,,,,,,,0,,,63,99
53505,control_change,225,0,4,,,,,,,,,0,64,0,,
53520,note_on,40,0,3,,,,,,,,,0,,,60,0
53520,note_on,0,0,1,,,,,,,,,0,,,78,0
53520,note_on,0,0,1,,,,,,,,,0,,,90,0
53520,note_on,0,0,1,,,,,,,,,0,,,87,0
53520,note_on,0,0,1,,,,,,,,,0,,,89,100
53520,note_on,0,0,1,,,,,,,,,0,,,87,100
53520,note_on,0,0,1,,,,,,,,,0,,,84,100
53520,note_on,0,0,1,,,,,,,,,0,,,77,100
53520,control_change,15,0,4,,,,,,,,,0,64,127,,
53520,note_on,0,0,3,,,,,,,,,0,,,45,110
53520,note_on,0,0,3,,,,,,,,,0,,,63,0
53520,note_on,40,0,1,,,,,,,,,0,,,66,0
53520,note_on,0,0,1,,,,,,,,,0,,,84,0
53560,note_on,40,0,3,,,,,,,,,0,,,45,0
53560,note_on,0,0,3,,,,,,,,,0,,,60,80
53560,note_on,0,0,3,,,,,,,,,0,,,57,80
53560,note_on,0,0,3,,,,,,,,,0,,,65,80
53600,note_on,40,0,3,,,,,,,,,0,,,57,0
53600,note_on,0,0,3,,,,,,,,,0,,,60,0
53600,note_on,0,0,3,,,,,,,,,0,,,65,0
53600,note_on,0,0,3,,,,,,,,,0,,,64,60
53600,note_on,0,0,3,,,,,,,,,0,,,60,60
53600,note_on,0,0,3,,,,,,,,,0,,,57,60
53640,note_on,0,0,3,,,,,,,,,0,,,57,60
53640,note_on,0,0,3,,,,,,,,,0,,,60,60
53640,note_on,0,0,3,,,,,,,,,0,,,64,0
53640,note_on,0,0,3,,,,,,,,,0,,,60,0
53640,note_on,0,0,3,,,,,,,,,0,,,65,60
53640,note_on,40,0,3,,,,,,,,,0,,,57,0
53680,note_on,0,0,3,,,,,,,,,0,,,57,60
53680,note_on,0,0,3,,,,,,,,,0,,,66,60
53680,note_on,0,0,3,,,,,,,,,0,,,65,0
53680,note_on,0,0,3,,,,,,,,,0,,,60,0
53680,note_on,40,0,3,,,,,,,,,0,,,57,0
53680,note_on,0,0,3,,,,,,,,,0,,,60,60
53700,note_on,0,0,1,,,,,,,,,0,,,84,0
53700,note_on,0,0,1,,,,,,,,,0,,,87,0
53700,note_on,0,0,1,,,,,,,,,0,,,87,60
53700,note_on,0,0,1,,,,,,,,,0,,,89,0
53700,note_on,0,0,1,,,,,,,,,0,,,75,60
53700,note_on,180,0,1,,,,,,,,,0,,,77,0
53720,note_on,0,0,3,,,,,,,,,0,,,57,60
53720,note_on,0,0,3,,,,,,,,,0,,,60,60
53720,note_on,0,0,3,,,,,,,,,0,,,66,0
53720,note_on,0,0,3,,,,,,,,,0,,,65,60
53720,note_on,40,0,3,,,,,,,,,0,,,57,0
53720,note_on,0,0,3,,,,,,,,,0,,,60,0
53745,control_change,225,0,4,,,,,,,,,0,64,0,,
53760,note_on,0,0,1,,,,,,,,,0,,,87,60
53760,note_on,0,0,1,,,,,,,,,0,,,75,60
53760,note_on,0,0,1,,,,,,,,,0,,,75,0
53760,note_on,40,0,3,,,,,,,,,0,,,57,0
53760,note_on,0,0,3,,,,,,,,,0,,,60,0
53760,note_on,0,0,3,,,,,,,,,0,,,65,0
53760,note_on,0,0,3,,,,,,,,,0,,,46,70
53760,control_change,15,0,4,,,,,,,,,0,64,127,,
53760,note_on,60,0,1,,,,,,,,,0,,,87,0
53800,note_on,40,0,3,,,,,,,,,0,,,46,0
53800,note_on,0,0,3,,,,,,,,,0,,,61,87
53800,note_on,0,0,3,,,,,,,,,0,,,65,87
53800,note_on,0,0,3,,,,,,,,,0,,,58,87
53840,note_on,0,0,3,,,,,,,,,0,,,58,75
53840,note_on,0,0,3,,,,,,,,,0,,,61,75
53840,note_on,40,0,3,,,,,,,,,0,,,58,0
53840,note_on,0,0,3,,,,,,,,,0,,,65,0
53840,note_on,0,0,3,,,,,,,,,0,,,61,0
53840,note_on,0,0,3,,,,,,,,,0,,,64,75
53850,note_on,0,0,1,,,,,,,,,0,,,85,77
53850,note_on,0,0,1,,,,,,,,,0,,,73,77
53850,note_on,0,0,1,,,,,,,,,0,,,75,0
53850,note_on,90,0,1,,,,,,,,,0,,,87,0
53880,note_on,0,0,3,,,,,,,,,0,,,64,0
53880,note_on,40,0,3,,,,,,,,,0,,,58,0
53880,note_on,0,0,3,,,,,,,,,0,,,61,0
53880,note_on,0,0,1,,,,,,,,,0,,,82,83
53880,note_on,0,0,1,,,,,,,,,0,,,70,83
53880,note_on,0,0,3,,,,,,,,,0,,,61,83
53880,note_on,0,0,3,,,,,,,,,0,,,65,83
53880,note_on,0,0,3,,,,,,,,,0,,,58,83
53880,note_on,30,0,1,,,,,,,,,0,,,85,0
53880,note_on,0,0,1,,,,,,,,,0,,,73,0
53920,note_on,0,0,1,,,,,,,,,0,,,70,0
53920,note_on,40,0,1,,,,,,,,,0,,,82,0
53920,note_on,40,0,3,,,,,,,,,0,,,58,0
53920,note_on,0,0,3,,,,,,,,,0,,,58,91
53920,note_on,0,0,3,,,,,,,,,0,,,61,91
53920,note_on,0,0,3,,,,,,,,,0,,,66,91
53920,note_on,0,0,3,,,,,,,,,0,,,65,0
53920,note_on,0,0,3,,,,,,,,,0,,,61,0
53920,note_on,0,0,1,,,,,,,,,0,,,72,91
53920,note_on,0,0,1,,,,,,,,,0,,,84,91
53960,note_on,0,0,3,,,,,,,,,0,,,58,99
53960,note_on,0,0,1,,,,,,,,,0,,,72,0
53960,note_on,0,0,1,,,,,,,,,0,,,73,99
53960,note_on,0,0,1,,,,,,,,,0,,,85,99
53960,note_on,0,0,3,,,,,,,,,0,,,61,99
53960,note_on,0,0,3,,,,,,,,,0,,,65,99
53960,note_on,0,0,3,,,,,,,,,0,,,66,0
53960,note_on,0,0,3,,,,,,,,,0,,,61,0
53960,note_on,40,0,3,,,,,,,,,0,,,58,0
53960,note_on,40,0,1,,,,,,,,,0,,,84,0
53985,note_on,25,0,1,,,,,,,,,0,,,85,100
53985,control_change,225,0,4,,,,,,,,,0,64,0,,
54000,note_on,0,0,1,,,,,,,,,0,,,85,0
54000,note_on,0,0,1,,,,,,,,,0,,,73,0
54000,control_change,15,0,4,,,,,,,,,0,64,127,,
54000,note_on,15,0,1,,,,,,,,,0,,,85,0
54000,note_on,0,0,1,,,,,,,,,0,,,89,100
54000,note_on,40,0,3,,,,,,,,,0,,,58,0
54000,note_on,0,0,3,,,,,,,,,0,,,61,0
54000,note_on,0,0,3,,,,,,,,,0,,,65,0
54000,note_on,0,0,3,,,,,,,,,0,,,42,110
54000,note_on,0,0,1,,,,,,,,,0,,,77,100
54040,note_on,0,0,3,,,,,,,,,0,,,54,113
54040,note_on,40,0,3,,,,,,,,,0,,,42,0
54040,note_on,0,0,3,,,,,,,,,0,,,63,113
54040,note_on,0,0,3,,,,,,,,,0,,,58,113
54080,note_on,0,0,3,,,,,,,,,0,,,54,85
54080,note_on,0,0,3,,,,,,,,,0,,,63,85
54080,note_on,0,0,3,,,,,,,,,0,,,57,85
54080,note_on,40,0,3,,,,,,,,,0,,,54,0
54080,note_on,0,0,3,,,,,,,,,0,,,63,0
54080,note_on,0,0,3,,,,,,,,,0,,,58,0
54090,note_on,90,0,1,,,,,,,,,0,,,89,0
54090,note_on,0,0,1,,,,,,,,,0,,,77,0
54090,note_on,0,0,1,,,,,,,,,0,,,75,83
54090,note_on,0,0,1,,,,,,,,,0,,,87,83
54120,note_on,30,0,1,,,,,,,,,0,,,87,0
54120,note_on,0,0,1,,,,,,,,,0,,,75,0
54120,note_on,0,0,1,,,,,,,,,0,,,75,77
54120,note_on,0,0,1,,,,,,,,,0,,,87,77
54120,note_on,0,0,3,,,,,,,,,0,,,58,77
54120,note_on,0,0,3,,,,,,,,,0,,,63,77
54120,note_on,0,0,3,,,,,,,,,0,,,57,0
54120,note_on,0,0,3,,,,,,,,,0,,,63,0
54120,note_on,40,0,3,,,,,,,,,0,,,54,0
54120,note_on,0,0,3,,,,,,,,,0,,,54,77
54160,note_on,0,0,3,,,,,,,,,0,,,54,69
54160,note_on,40,0,3,,,,,,,,,0,,,54,0
54160,note_on,0,0,3,,,,,,,,,0,,,63,0
54160,note_on,0,0,3,,,,,,,,,0,,,65,69
54160,note_on,40,0,1,,,,,,,,,0,,,87,0
54160,note_on,0,0,1,,,,,,,,,0,,,75,0
54160,note_on,0,0,1,,,,,,,,,0,,,73,69
54160,note_on,0,0,1,,,,,,,,,0,,,85,69
54160,note_on,0,0,3,,,,,,,,,0,,,58,69
54160,note_on,0,0,3,,,,,,,,,0,,,58,0
54200,note_on,40,0,1,,,,,,,,,0,,,85,0
54200,note_on,0,0,1,,,,,,,,,0,,,73,0
54200,note_on,0,0,1,,,,,,,,,0,,,72,61
54200,note_on,0,0,1,,,,,,,,,0,,,84,61
54200,note_on,0,0,3,,,,,,,,,0,,,54,61
54200,note_on,40,0,3,,,,,,,,,0,,,54,0
54200,note_on,0,0,3,,,,,,,,,0,,,58,0
54200,note_on,0,0,3,,,,,,,,,0,,,65,0
54200,note_on,0,0,3,,,,,,,,,0,,,63,61
54200,note_on,0,0,3,,,,,,,,,0,,,58,61
54225,control_change,225,0,4,,,,,,,,,0,64,0,,
54240,note_on,0,0,1,,,,,,,,,0,,,72,0
54240,note_on,40,0,1,,,,,,,,,0,,,84,0
54240,control_change,15,0,4,,,,,,,,,0,64,127,,
54240,note_on,0,0,1,,,,,,,,,0,,,70,60
54240,note_on,0,0,3,,,,,,,,,0,,,58,0
54240,note_on,0,0,3,,,,,,,,,0,,,63,0
54240,note_on,0,0,3,,,,,,,,,0,,,41,70
54240,note_on,40,0,3,,,,,,,,,0,,,54,0
54240,note_on,0,0,1,,,,,,,,,0,,,82,60
54280,note_on,40,0,3,,,,,,,,,0,,,41,0
54280,note_on,0,0,3,,,,,,,,,0,,,61,80
54280,note_on,0,0,3,,,,,,,,,0,,,58,80
54280,note_on,0,0,3,,,,,,,,,0,,,53,80
54320,note_on,40,0,3,,,,,,,,,0,,,53,0
54320,note_on,0,0,3,,,,,,,,,0,,,53,60
54320,note_on,0,0,3,,,,,,,,,0,,,58,60
54320,note_on,0,0,3,,,,,,,,,0,,,60,60
54320,note_on,0,0,3,,,,,,,,,0,,,61,0
54320,note_on,0,0,3,,,,,,,,,0,,,58,0
54330,note_on,90,0,1,,,,,,,,,0,,,82,0
54330,note_on,0,0,1,,,,,,,,,0,,,70,0
54330,note_on,0,0,1,,,,,,,,,0,,,69,60
54330,note_on,0,0,1,,,,,,,,,0,,,81,60
54360,note_on,0,0,1,,,,,,,,,0,,,70,60
54360,note_on,0,0,3,,,,,,,,,0,,,53,60
54360,note_on,0,0,3,,,,,,,,,0,,,58,60
54360,note_on,0,0,1,,,,,,,,,0,,,82,60
54360,note_on,0,0,3,,,,,,,,,0,,,60,0
54360,note_on,0,0,3,,,,,,,,,0,,,61,60
54360,note_on,40,0,3,,,,,,,,,0,,,53,0
54360,note_on,30,0,1,,,,,,,,,0,,,81,0
54360,note_on,0,0,1,,,,,,,,,0,,,69,0
54360,note_on,0,0,3,,,,,,,,,0,,,58,0
54400,note_on,0,0,3,,,,,,,,,0,,,58,60
54400,note_on,40,0,3,,,,,,,,,0,,,53,0
54400,note_on,0,0,3,,,,,,,,,0,,,58,0
54400,note_on,0,0,3,,,,,,,,,0,,,61,0
54400,note_on,0,0,3,,,,,,,,,0,,,53,60
54400,note_on,0,0,3,,,,,,,,,0,,,63,60
54400,note_on,40,0,1,,,,,,,,,0,,,82,0
54400,note_on,0,0,1,,,,,,,,,0,,,70,0
54400,note_on,0,0,1,,,,,,,,,0,,,73,60
54400,note_on,0,0,1,,,,,,,,,0,,,85,60
54440,note_on,0,0,3,,,,,,,,,0,,,63,0
54440,note_on,0,0,3,,,,,,,,,0,,,64,60
54440,note_on,40,0,1,,,,,,,,,0,,,85,0
54440,note_on,0,0,1,,,,,,,,,0,,,73,0
54440,note_on,0,0,1,,,,,,,,,0,,,72,60
54440,note_on,0,0,1,,,,,,,,,0,,,84,60
54440,note_on,0,0,3,,,,,,,,,0,,,58,60
54440,note_on,0,0,3,,,,,,,,,0,,,58,0
54440,note_on,40,0,3,,,,,,,,,0,,,53,0
54440,note_on,0,0,3,,,,,,,,,0,,,53,60
54465,control_change,225,0,4,,,,,,,,,0,64,0,,
54480,note_on,0,0,1,,,,,,,,,0,,,72,0
54480,note_on,40,0,1,,,,,,,,,0,,,84,0
54480,note_on,0,0,1,,,,,,,,,0,,,84,60
54480,note_on,0,0,3,,,,,,,,,0,,,41,70
54480,note_on,0,0,3,,,,,,,,,0,,,64,0
54480,note_on,0,0,3,,,,,,,,,0,,,58,0
54480,note_on,40,0,3,,,,,,,,,0,,,53,0
54480,control_change,15,0,4,,,,,,,,,0,64,127,,
54480,note_on,0,0,1,,,,,,,,,0,,,72,60
54520,note_on,0,0,3,,,,,,,,,0,,,65,80
54520,note_on,0,0,3,,,,,,,,,0,,,53,80
54520,note_on,0,0,3,,,,,,,,,0,,,57,80
54520,note_on,40,0,3,,,,,,,,,0,,,41,0
54560,note_on,0,0,3,,,,,,,,,0,,,53,60
54560,note_on,0,0,3,,,,,,,,,0,,,65,0
54560,note_on,0,0,3,,,,,,,,,0,,,57,0
54560,note_on,40,0,3,,,,,,,,,0,,,53,0
54560,note_on,0,0,3,,,,,,,,,0,,,57,60
54560,note_on,0,0,3,,,,,,,,,0,,,64,60
54600,note_on,40,0,3,,,,,,,,,0,,,53,0
54600,note_on,0,0,3,,,,,,,,,0,,,57,0
54600,note_on,0,0,3,,,,,,,,,0,,,65,60
54600,note_on,0,0,3,,,,,,,,,0,,,64,0
54600,note_on,0,0,3,,,,,,,,,0,,,53,60
54600,note_on,0,0,3,,,,,,,,,0,,,57,60
54640,note_on,0,0,3,,,,,,,,,0,,,53,60
54640,note_on,40,0,3,,,,,,,,,0,,,53,0
54640,note_on,0,0,3,,,,,,,,,0,,,57,0
54640,note_on,0,0,3,,,,,,,,,0,,,65,0
54640,note_on,0,0,3,,,,,,,,,0,,,66,60
54640,note_on,0,0,3,,,,,,,,,0,,,57,60
54660,note_on,180,0,1,,,,,,,,,0,,,84,0
54660,note_on,0,0,1,,,,,,,,,0,,,72,0
54660,note_on,0,0,1,,,,,,,,,0,,,77,60
54680,note_on,0,0,3,,,,,,,,,0,,,57,60
54680,note_on,40,0,3,,,,,,,,,0,,,53,0
54680,note_on,0,0,3,,,,,,,,,0,,,57,0
54680,note_on,0,0,3,,,,,,,,,0,,,66,0
54680,note_on,0,0,3,,,,,,,,,0,,,53,60
54680,note_on,0,0,3,,,,,,,,,0,,,65,60
54705,control_change,225,0,4,,,,,,,,,0,64,0,,
54720,note_on,40,0,3,,,,,,,,,0,,,53,0
54720,note_on,0,0,3,,,,,,,,,0,,,57,0
54720,note_on,0,0,3,,,,,,,,,0,,,46,70
54720,note_on,0,0,3,,,,,,,,,0,,,65,0
54720,note_on,60,0,1,,,,,,,,,0,,,77,0
54720,note_on,0,0,1,,,,,,,,,0,,,85,60
54720,note_on,0,0,1,,,,,,,,,0,,,77,60
54720,note_on,0,0,1,,,,,,,,,0,,,73,60
54720,control_change,15,0,4,,,,,,,,,0,64,127,,
54760,note_on,40,0,3,,,,,,,,,0,,,46,0
54760,note_on,0,0,3,,,,,,,,,0,,,65,80
54760,note_on,0,0,3,,,,,,,,,0,,,61,80
54760,note_on,0,0,3,,,,,,,,,0,,,58,80
54800,note_on,40,0,3,,,,,,,,,0,,,58,0
54800,note_on,0,0,3,,,,,,,,,0,,,61,0
54800,note_on,0,0,3,,,,,,,,,0,,,65,0
54800,note_on,0,0,3,,,,,,,,,0,,,64,60
54800,note_on,0,0,3,,,,,,,,,0,,,61,60
54800,note_on,0,0,3,,,,,,,,,0,,,58,60
54840,note_on,0,0,3,,,,,,,,,0,,,61,0
54840,note_on,40,0,3,,,,,,,,,0,,,58,0
54840,note_on,0,0,3,,,,,,,,,0,,,65,60
54840,note_on,0,0,3,,,,,,,,,0,,,61,60
54840,note_on,0,0,3,,,,,,,,,0,,,58,60
54840,note_on,0,0,3,,,,,,,,,0,,,64,0
54880,note_on,40,0,3,,,,,,,,,0,,,58,0
54880,note_on,0,0,3,,,,,,,,,0,,,61,0
54880,note_on,0,0,3,,,,,,,,,0,,,65,0
54880,note_on,0,0,3,,,,,,,,,0,,,66,60
54880,note_on,0,0,3,,,,,,,,,0,,,61,60
54880,note_on,0,0,3,,,,,,,,,0,,,58,60
54900,note_on,0,0,1,,,,,,,,,0,,,73,60
54900,note_on,0,0,1,,,,,,,,,0,,,85,60
54900,note_on,0,0,1,,,,,,,,,0,,,85,0
54900,note_on,0,0,1,,,,,,,,,0,,,77,0
54900,note_on,180,0,1,,,,,,,,,0,,,73,0
54900,note_on,0,0,1,,,,,,,,,0,,,77,60
54920,note_on,0,0,3,,,,,,,,,0,,,61,60
54920,note_on,40,0,3,,,,,,,,,0,,,58,0
54920,note_on,0,0,3,,,,,,,,,0,,,61,0
54920,note_on,0,0,3,,,,,,,,,0,,,66,0
54920,note_on,0,0,3,,,,,,,,,0,,,65,60
54920,note_on,0,0,3,,,,,,,,,0,,,58,60
54945,control_change,225,0,4,,,,,,,,,0,64,0,,
54960,note_on,60,0,1,,,,,,,,,0,,,73,0
54960,note_on,0,0,1,,,,,,,,,0,,,77,0
54960,note_on,0,0,1,,,,,,,,,0,,,85,0
54960,note_on,0,0,1,,,,,,,,,0,,,72,60
54960,note_on,0,0,1,,,,,,,,,0,,,84,60
54960,note_on,0,0,1,,,,,,,,,0,,,77,60
54960,note_on,40,0,3,,,,,,,,,0,,,58,0
54960,note_on,0,0,3,,,,,,,,,0,,,49,70
54960,note_on,0,0,3,,,,,,,,,0,,,65,0
54960,note_on,0,0,3,,,,,,,,,0,,,61,0
54960,control_change,15,0,4,,,,,,,,,0,64,127,,
55000,note_on,0,0,3,,,,,,,,,0,,,61,80
55000,note_on,0,0,3,,,,,,,,,0,,,65,80
55000,note_on,40,0,3,,,,,,,,,0,,,49,0
55040,note_on,0,0,3,,,,,,,,,0,,,61,60
55040,note_on,0,0,3,,,,,,,,,0,,,64,60
55040,note_on,0,0,3,,,,,,,,,0,,,65,0
55040,note_on,40,0,3,,,,,,,,,0,,,61,0
55080,note_on,0,0,3,,,,,,,,,0,,,64,0
55080,note_on,0,0,1,,,,,,,,,0,,,72,0
55080,note_on,0,0,3,,,,,,,,,0,,,61,60
55080,note_on,120,0,1,,,,,,,,,0,,,84,0
55080,note_on,40,0,3,,,,,,,,,0,,,61,0
55080,note_on,0,0,3,,,,,,,,,0,,,65,60
55080,note_on,0,0,1,,,,,,,,,0,,,70,60
55080,note_on,0,0,1,,,,,,,,,0,,,82,60
55120,note_on,0,0,3,,,,,,,,,0,,,65,0
55120,note_on,0,0,3,,,,,,,,,0,,,61,60
55120,note_on,0,0,3,,,,,,,,,0,,,66,60
55120,note_on,40,0,3,,,,,,,,,0,,,61,0
55140,note_on,0,0,1,,,,,,,,,0,,,70,0
55140,note_on,0,0,1,,,,,,,,,0,,,77,0
55140,note_on,0,0,1,,,,,,,,,0,,,82,60
55140,note_on,0,0,1,,,,,,,,,0,,,77,60
55140,note_on,0,0,1,,,,,,,,,0,,,70,60
55140,note_on,60,0,1,,,,,,,,,0,,,82,0
55160,note_on,40,0,3,,,,,,,,,0,,,61,0
55160,note_on,0,0,3,,,,,,,,,0,,,66,0
55160,note_on,0,0,3,,,,,,,,,0,,,65,60
55160,note_on,0,0,3,,,,,,,,,0,,,61,60
55185,control_change,225,0,4,,,,,,,,,0,64,0,,
55200,note_on,0,0,3,,,,,,,,,0,,,65,0
55200,note_on,40,0,3,,,,,,,,,0,,,61,0
55200,note_on,0,0,3,,,,,,,,,0,,,48,70
55200,control_change,15,0,4,,,,,,,,,0,64,127,,
55200,note_on,0,0,1,,,,,,,,,0,,,77,60
55200,note_on,60,0,1,,,,,,,,,0,,,82,0
55200,note_on,0,0,1,,,,,,,,,0,,,77,0
55200,note_on,0,0,1,,,,,,,,,0,,,70,0
55200,note_on,0,0,1,,,,,,,,,0,,,70,60
55200,note_on,0,0,1,,,,,,,,,0,,,82,60
55240,note_on,0,0,3,,,,,,,,,0,,,63,87
55240,note_on,40,0,3,,,,,,,,,0,,,48,0
55240,note_on,40,0,1,,,,,,,,,0,,,65,87
55240,note_on,0,0,3,,,,,,,,,0,,,60,87
55280,note_on,0,0,3,,,,,,,,,0,,,63,75
55280,note_on,40,0,1,,,,,,,,,0,,,65,0
55280,note_on,0,0,1,,,,,,,,,0,,,64,75
55280,note_on,40,0,3,,,,,,,,,0,,,60,0
55280,note_on,0,0,3,,,,,,,,,0,,,60,75
55280,note_on,0,0,3,,,,,,,,,0,,,63,0
55290,note_on,10,0,1,,,,,,,,,0,,,70,0
55290,note_on,0,0,1,,,,,,,,,0,,,82,0
55290,note_on,0,0,1,,,,,,,,,0,,,69,77
55290,note_on,0,0,1,,,,,,,,,0,,,81,77
55320,note_on,0,0,3,,,,,,,,,0,,,63,0
55320,note_on,0,0,3,,,,,,,,,0,,,63,83
55320,note_on,0,0,3,,,,,,,,,0,,,60,83
55320,note_on,40,0,3,,,,,,,,,0,,,60,0
55320,note_on,0,0,1,,,,,,,,,0,,,64,0
55320,note_on,0,0,1,,,,,,,,,0,,,65,83
55320,note_on,0,0,1,,,,,,,,,0,,,72,83
55320,note_on,0,0,1,,,,,,,,,0,,,69,0
55320,note_on,0,0,1,,,,,,,,,0,,,77,0
55320,note_on,0,0,1,,,,,,,,,0,,,84,83
55320,note_on,30,0,1,,,,,,,,,0,,,81,0
55360,note_on,0,0,3,,,,,,,,,0,,,60,91
55360,note_on,0,0,3,,,,,,,,,0,,,63,91
55360,note_on,0,0,3,,,,,,,,,0,,,63,0
55360,note_on,40,0,3,,,,,,,,,0,,,60,0
55360,note_on,40,0,1,,,,,,,,,0,,,65,0
55360,note_on,0,0,1,,,,,,,,,0,,,84,0
55360,note_on,0,0,1,,,,,,,,,0,,,72,0
55360,note_on,0,0,1,,,,,,,,,0,,,75,91
55360,note_on,0,0,1,,,,,,,,,0,,,87,91
55360,note_on,0,0,1,,,,,,,,,0,,,63,91
55400,note_on,0,0,1,,,,,,,,,0,,,87,99
55400,note_on,0,0,3,,,,,,,,,0,,,63,99
55400,note_on,0,0,3,,,,,,,,,0,,,63,0
55400,note_on,40,0,3,,,,,,,,,0,,,60,0
55400,note_on,40,0,1,,,,,,,,,0,,,63,0
55400,note_on,0,0,1,,,,,,,,,0,,,87,0
55400,note_on,0,0,1,,,,,,,,,0,,,75,0
55400,note_on,0,0,1,,,,,,,,,0,,,90,99
55400,note_on,0,0,3,,,,,,,,,0,,,60,99
55400,note_on,0,0,1,,,,,,,,,0,,,84,99
55400,note_on,0,0,1,,,,,,,,,0,,,66,99
55400,note_on,0,0,1,,,,,,,,,0,,,78,99
55425,control_change,225,0,4,,,,,,,,,0,64,0,,
55440,control_change,15,0,4,,,,,,,,,0,64,127,,
55440,note_on,40,0,3,,,,,,,,,0,,,60,0
55440,note_on,0,0,1,,,,,,,,,0,,,87,0
55440,note_on,0,0,3,,,,,,,,,0,,,45,110
55440,note_on,40,0,1,,,,,,,,,0,,,66,0
55440,note_on,0,0,1,,,,,,,,,0,,,78,0
55440,note_on,0,0,1,,,,,,,,,0,,,90,0
55440,note_on,0,0,1,,,,,,,,,0,,,84,0
55440,note_on,0,0,1,,,,,,,,,0,,,89,100
55440,note_on,0,0,1,,,,,,,,,0,,,87,100
55440,note_on,0,0,1,,,,,,,,,0,,,84,100
55440,note_on,0,0,1,,,,,,,,,0,,,77,100
55440,note_on,0,0,3,,,,,,,,,0,,,63,0
55480,note_on,0,0,3,,,,,,,,,0,,,57,80
55480,note_on,0,0,3,,,,,,,,,0,,,60,80
55480,note_on,0,0,3,,,,,,,,,0,,,65,80
55480,note_on,40,0,3,,,,,,,,,0,,,45,0
55520,note_on,0,0,3,,,,,,,,,0,,,64,60
55520,note_on,0,0,3,,,,,,,,,0,,,65,0
55520,note_on,40,0,3,,,,,,,,,0,,,57,0
55520,note_on,0,0,3,,,,,,,,,0,,,60,0
55520,note_on,0,0,3,,,,,,,,,0,,,57,60
55520,note_on,0,0,3,,,,,,,,,0,,,60,60
55560,note_on,40,0,3,,,,,,,,,0,,,57,0
55560,note_on,0,0,3,,,,,,,,,0,,,64,0
55560,note_on,0,0,3,,,,,,,,,0,,,65,60
55560,note_on,0,0,3,,,,,,,,,0,,,60,60
55560,note_on,0,0,3,,,,,,,,,0,,,57,60
55560,note_on,0,0,3,,,,,,,,,0,,,60,0
55600,note_on,0,0,3,,,,,,,,,0,,,57,60
55600,note_on,0,0,3,,,,,,,,,0,,,60,60
55600,note_on,0,0,3,,,,,,,,,0,,,65,0
55600,note_on,0,0,3,,,,,,,,,0,,,60,0
55600,note_on,40,0,3,,,,,,,,,0,,,57,0
55600,note_on,0,0,3,,,,,,,,,0,,,66,60
55620,note_on,0,0,1,,,,,,,,,0,,,87,60
55620,note_on,180,0,1,,,,,,,,,0,,,77,0
55620,note_on,0,0,1,,,,,,,,,0,,,89,0
55620,note_on,0,0,1,,,,,,,,,0,,,87,0
55620,note_on,0,0,1,,,,,,,,,0,,,84,0
55620,note_on,0,0,1,,,,,,,,,0,,,75,60
55640,note_on,0,0,3,,,,,,,,,0,,,60,0
55640,note_on,0,0,3,,,,,,,,,0,,,60,60
55640,note_on,0,0,3,,,,,,,,,0,,,66,0
55640,note_on,40,0,3,,,,,,,,,0,,,57,0
55640,note_on,0,0,3,,,,,,,,,0,,,57,60
55640,note_on,0,0,3,,,,,,,,,0,,,65,60
55665,control_change,225,0,4,,,,,,,,,0,64,0,,
55680,note_on,0,0,3,,,,,,,,,0,,,46,70
55680,control_change,15,0,4,,,,,,,,,0,64,127,,
55680,note_on,0,0,3,,,,,,,,,0,,,65,0
55680,note_on,0,0,3,,,,,,,,,0,,,60,0
55680,note_on,60,0,1,,,,,,,,,0,,,87,0
55680,note_on,0,0,1,,,,,,,,,0,,,75,0
55680,note_on,0,0,1,,,,,,,,,0,,,75,60
55680,note_on,0,0,1,,,,,,,,,0,,,87,60
55680,note_on,40,0,3,,,,,,,,,0,,,57,0
55720,note_on,0,0,3,,,,,,,,,0,,,65,87
55720,note_on,0,0,3,,,,,,,,,0,,,58,87
55720,note_on,0,0,3,,,,,,,,,0,,,61,87
55720,note_on,40,0,3,,,,,,,,,0,,,46,0
55760,note_on,0,0,3,,,,,,,,,0,,,58,75
55760,note_on,0,0,3,,,,,,,,,0,,,61,75
55760,note_on,0,0,3,,,,,,,,,0,,,64,75
55760,note_on,0,0,3,,,,,,,,,0,,,65,0
55760,note_on,0,0,3,,,,,,,,,0,,,61,0
55760,note_on,40,0,3,,,,,,,,,0,,,58,0
55770,note_on,0,0,1,,,,,,,,,0,,,85,77
55770,note_on,90,0,1,,,,,,,,,0,,,87,0
55770,note_on,0,0,1,,,,,,,,,0,,,75,0
55770,note_on,0,0,1,,,,,,,,,0,,,73,77
55800,note_on,30,0,1,,,,,,,,,0,,,85,0
55800,note_on,0,0,3,,,,,,,,,0,,,65,83
55800,note_on,0,0,3,,,,,,,,,0,,,58,83
55800,note_on,0,0,1,,,,,,,,,0,,,82,83
55800,note_on,0,0,1,,,,,,,,,0,,,70,83
55800,note_on,0,0,1,,,,,,,,,0,,,73,0
55800,note_on,40,0,3,,,,,,,,,0,,,58,0
55800,note_on,0,0,3,,,,,,,,,0,,,61,0
55800,note_on,0,0,3,,,,,,,,,0,,,64,0
55800,note_on,0,0,3,,,,,,,,,0,,,61,83
55840,note_on,0,0,3,,,,,,,,,0,,,66,91
55840,note_on,0,0,3,,,,,,,,,0,,,61,0
55840,note_on,0,0,3,,,,,,,,,0,,,65,0
55840,note_on,0,0,3,,,,,,,,,0,,,61,91
55840,note_on,0,0,1,,,,,,,,,0,,,70,0
55840,note_on,0,0,1,,,,,,,,,0,,,72,91
55840,note_on,0,0,1,,,,,,,,,0,,,84,91
55840,note_on,40,0,1,,,,,,,,,0,,,82,0
55840,note_on,0,0,3,,,,,,,,,0,,,58,91
55840,note_on,40,0,3,,,,,,,,,0,,,58,0
55880,note_on,40,0,1,,,,,,,,,0,,,84,0
55880,note_on,0,0,1,,,,,,,,,0,,,72,0
55880,note_on,0,0,3,,,,,,,,,0,,,58,99
55880,note_on,0,0,3,,,,,,,,,0,,,61,99
55880,note_on,0,0,3,,,,,,,,,0,,,65,99
55880,note_on,0,0,3,,,,,,,,,0,,,66,0
55880,note_on,0,0,3,,,,,,,,,0,,,61,0
55880,note_on,40,0,3,,,,,,,,,0,,,58,0
55880,note_on,0,0,1,,,,,,,,,0,,,73,99
55880,note_on,0,0,1,,,,,,,,,0,,,85,99
55905,control_change,225,0,4,,,,,,,,,0,64,0,,
55920,control_change,15,0,4,,,,,,,,,0,64,127,,
55920,note_on,0,0,1,,,,,,,,,0,,,73,0
55920,note_on,40,0,1,,,,,,,,,0,,,85,0
55920,note_on,40,0,3,,,,,,,,,0,,,58,0
55920,note_on,0,0,3,,,,,,,,,0,,,61,0
55920,note_on,0,0,3,,,,,,,,,0,,,65,0
55920,note_on,0,0,3,,,,,,,,,0,,,52,110
55920,note_on,0,0,1,,,,,,,,,0,,,72,100
55920,note_on,0,0,1,,,,,,,,,0,,,84,100
55960,note_on,40,0,3,,,,,,,,,0,,,52,0
55960,note_on,0,0,3,,,,,,,,,0,,,58,113
55960,note_on,0,0,3,,,,,,,,,0,,,60,113
55960,note_on,0,0,3,,,,,,,,,0,,,67,113
56000,note_on,40,0,3,,,,,,,,,0,,,58,0
56000,note_on,0,0,3,,,,,,,,,0,,,60,0
56000,note_on,0,0,3,,,,,,,,,0,,,67,0
56000,note_on,0,0,3,,,,,,,,,0,,,61,85
56000,note_on,0,0,3,,,,,,,,,0,,,58,85
56000,note_on,0,0,3,,,,,,,,,0,,,67,85
56010,note_on,90,0,1,,,,,,,,,0,,,84,0
56010,note_on,0,0,1,,,,,,,,,0,,,72,0
56010,note_on,0,0,1,,,,,,,,,0,,,70,83
56010,note_on,0,0,1,,,,,,,,,0,,,82,83
56040,note_on,40,0,3,,,,,,,,,0,,,58,0
56040,note_on,0,0,3,,,,,,,,,0,,,61,0
56040,note_on,0,0,1,,,,,,,,,0,,,70,0
56040,note_on,30,0,1,,,,,,,,,0,,,82,0
56040,note_on,0,0,1,,,,,,,,,0,,,85,77
56040,note_on,0,0,3,,,,,,,,,0,,,58,77
56040,note_on,0,0,3,,,,,,,,,0,,,67,77
56040,note_on,0,0,3,,,,,,,,,0,,,67,0
56040,note_on,0,0,1,,,,,,,,,0,,,73,77
56080,note_on,0,0,3,,,,,,,,,0,,,67,69
56080,note_on,40,0,3,,,,,,,,,0,,,58,0
56080,note_on,0,0,3,,,,,,,,,0,,,60,69
56080,note_on,0,0,3,,,,,,,,,0,,,58,69
56080,note_on,0,0,3,,,,,,,,,0,,,67,0
56080,note_on,40,0,1,,,,,,,,,0,,,85,0
56080,note_on,0,0,1,,,,,,,,,0,,,73,0
56080,note_on,0,0,1,,,,,,,,,0,,,72,69
56080,note_on,0,0,1,,,,,,,,,0,,,84,69
56120,note_on,40,0,3,,,,,,,,,0,,,58,0
56120,note_on,0,0,3,,,,,,,,,0,,,60,0
56120,note_on,0,0,3,,,,,,,,,0,,,61,61
56120,note_on,0,0,3,,,,,,,,,0,,,58,61
56120,note_on,0,0,1,,,,,,,,,0,,,72,0
56120,note_on,0,0,3,,,,,,,,,0,,,67,0
56120,note_on,0,0,3,,,,,,,,,0,,,67,61
56120,note_on,40,0,1,,,,,,,,,0,,,84,0
56120,note_on,0,0,1,,,,,,,,,0,,,82,61
56120,note_on,0,0,1,,,,,,,,,0,,,70,61
56145,control_change,225,0,4,,,,,,,,,0,64,0,,
56160,note_on,0,0,3,,,,,,,,,0,,,53,70
56160,note_on,40,0,3,,,,,,,,,0,,,58,0
56160,note_on,0,0,3,,,,,,,,,0,,,67,0
56160,note_on,0,0,1,,,,,,,,,0,,,66,60
56160,note_on,0,0,1,,,,,,,,,0,,,78,60
56160,note_on,0,0,3,,,,,,,,,0,,,61,0
56160,note_on,0,0,1,,,,,,,,,0,,,70,0
56160,control_change,15,0,4,,,,,,,,,0,64,127,,
56160,note_on,40,0,1,,,,,,,,,0,,,82,0
56200,note_on,40,0,3,,,,,,,,,0,,,53,0
56200,note_on,0,0,3,,,,,,,,,0,,,58,80
56200,note_on,0,0,3,,,,,,,,,0,,,61,80
56240,note_on,40,0,3,,,,,,,,,0,,,58,0
56240,note_on,0,0,3,,,,,,,,,0,,,61,0
56240,note_on,0,0,3,,,,,,,,,0,,,61,60
56240,note_on,0,0,3,,,,,,,,,0,,,58,60
56250,note_on,0,0,1,,,,,,,,,0,,,65,60
56250,note_on,0,0,1,,,,,,,,,0,,,77,60
56250,note_on,90,0,1,,,,,,,,,0,,,78,0
56250,note_on,0,0,1,,,,,,,,,0,,,66,0
56265,control_change,105,0,4,,,,,,,,,0,64,0,,
56280,control_change,15,0,4,,,,,,,,,0,64,127,,
56280,note_on,30,0,1,,,,,,,,,0,,,77,0
56280,note_on,0,0,3,,,,,,,,,0,,,53,60
56280,note_on,0,0,3,,,,,,,,,0,,,61,0
56280,note_on,40,0,3,,,,,,,,,0,,,58,0
56280,note_on,0,0,1,,,,,,,,,0,,,65,0
56280,note_on,0,0,1,,,,,,,,,0,,,77,60
56280,note_on,0,0,1,,,,,,,,,0,,,65,60
56320,note_on,0,0,3,,,,,,,,,0,,,57,80
56320,note_on,0,0,3,,,,,,,,,0,,,60,80
56320,note_on,40,0,3,,,,,,,,,0,,,53,0
56320,note_on,0,0,1,,,,,,,,,0,,,78,60
56320,note_on,0,0,1,,,,,,,,,0,,,65,0
56320,note_on,0,0,1,,,,,,,,,0,,,66,60
56320,note_on,40,0,1,,,,,,,,,0,,,77,0
56360,note_on,40,0,1,,,,,,,,,0,,,78,0
56360,note_on,0,0,1,,,,,,,,,0,,,77,60
56360,note_on,0,0,3,,,,,,,,,0,,,57,60
56360,note_on,0,0,3,,,,,,,,,0,,,60,60
56360,note_on,0,0,1,,,,,,,,,0,,,65,60
56360,note_on,40,0,3,,,,,,,,,0,,,57,0
56360,note_on,0,0,1,,,,,,,,,0,,,66,0
56360,note_on,0,0,3,,,,,,,,,0,,,60,0
56385,control_change,105,0,4,,,,,,,,,0,64,0,,
56400,control_change,15,0,4,,,,,,,,,0,64,127,,
56400,note_on,0,0,1,,,,,,,,,0,,,70,60
56400,note_on,40,0,1,,,,,,,,,0,,,77,0
56400,note_on,0,0,1,,,,,,,,,0,,,65,0
56400,note_on,0,0,3,,,,,,,,,0,,,46,70
56400,note_on,0,0,1,,,,,,,,,0,,,58,60
56400,note_on,0,0,3,,,,,,,,,0,,,60,0
56400,note_on,40,0,3,,,,,,,,,0,,,57,0
56440,note_on,0,0,3,,,,,,,,,0,,,53,80
56440,note_on,40,0,3,,,,,,,,,0,,,46,0
56440,note_on,0,0,3,,,,,,,,,0,,,49,80
56480,note_on,0,0,3,,,,,,,,,0,,,51,60
56480,note_on,0,0,3,,,,,,,,,0,,,48,60
56480,note_on,40,0,3,,,,,,,,,0,,,49,0
56480,note_on,0,0,3,,,,,,,,,0,,,53,0
56505,control_change,105,0,4,,,,,,,,,0,64,0,,
56520,note_on,0,0,3,,,,,,,,,0,,,46,70
56520,note_on,0,0,3,,,,,,,,,0,,,49,70
56520,note_on,0,0,3,,,,,,,,,0,,,51,0
56520,note_on,40,0,3,,,,,,,,,0,,,48,0
56520,control_change,15,0,4,,,,,,,,,0,64,127,,
56580,note_on,0,0,3,,,,,,,,,0,,,49,0
56580,note_on,60,0,3,,,,,,,,,0,,,46,0
56580,note_on,0,0,1,,,,,,,,,0,,,61,100
56580,note_on,0,0,1,,,,,,,,,0,,,73,100
56580,note_on,0,0,1,,,,,,,,,0,,,58,0
56580,note_on,180,0,1,,,,,,,,,0,,,70,0
56625,control_change,105,0,4,,,,,,,,,0,64,0,,
56640,note_on,60,0,3,,,,,,,,,0,,,37,110
56640,note_on,0,0,1,,,,,,,,,0,,,61,100
56640,control_change,15,0,4,,,,,,,,,0,64,127,,
56640,note_on,0,0,1,,,,,,,,,0,,,73,100
56640,note_on,0,0,1,,,,,,,,,0,,,73,0
56640,note_on,60,0,1,,,,,,,,,0,,,61,0
56680,note_on,0,0,3,,,,,,,,,0,,,53,120
56680,note_on,40,0,3,,,,,,,,,0,,,37,0
56680,note_on,0,0,3,,,,,,,,,0,,,49,120
56680,note_on,0,0,3,,,,,,,,,0,,,56,120
56720,note_on,0,0,3,,,,,,,,,0,,,49,100
56720,note_on,0,0,3,,,,,,,,,0,,,53,100
56720,note_on,0,0,3,,,,,,,,,0,,,56,0
56720,note_on,0,0,3,,,,,,,,,0,,,53,0
56720,note_on,40,0,3,,,,,,,,,0,,,49,0
56720,note_on,0,0,3,,,,,,,,,0,,,56,100
56760,note_on,0,0,3,,,,,,,,,0,,,53,100
56760,note_on,0,0,3,,,,,,,,,0,,,49,100
56760,note_on,0,0,3,,,,,,,,,0,,,53,0
56760,note_on,40,0,3,,,,,,,,,0,,,49,0
56760,note_on,0,0,3,,,,,,,,,0,,,56,0
56760,note_on,120,0,1,,,,,,,,,0,,,73,0
56760,note_on,0,0,1,,,,,,,,,0,,,61,0
56760,note_on,0,0,1,,,,,,,,,0,,,61,100
56760,note_on,0,0,1,,,,,,,,,0,,,73,100
56760,note_on,0,0,3,,,,,,,,,0,,,57,100
56800,note_on,0,0,1,,,,,,,,,0,,,63,100
56800,note_on,0,0,1,,,,,,,,,0,,,61,0
56800,note_on,0,0,1,,,,,,,,,0,,,75,100
56800,note_on,0,0,3,,,,,,,,,0,,,49,100
56800,note_on,0,0,3,,,,,,,,,0,,,53,100
56800,note_on,0,0,3,,,,,,,,,0,,,57,100
56800,note_on,0,0,3,,,,,,,,,0,,,57,0
56800,note_on,0,0,3,,,,,,,,,0,,,53,0
56800,note_on,40,0,3,,,,,,,,,0,,,49,0
56800,note_on,40,0,1,,,,,,,,,0,,,73,0
56840,note_on,40,0,1,,,,,,,,,0,,,75,0
56840,note_on,0,0,3,,,,,,,,,0,,,57,0
56840,note_on,0,0,3,,,,,,,,,0,,,57,100
56840,note_on,0,0,3,,,,,,,,,0,,,53,100
56840,note_on,0,0,3,,,,,,,,,0,,,49,100
56840,note_on,0,0,1,,,,,,,,,0,,,73,100
56840,note_on,0,0,1,,,,,,,,,0,,,61,100
56840,note_on,0,0,1,,,,,,,,,0,,,63,0
56840,note_on,40,0,3,,,,,,,,,0,,,49,0
56840,note_on,0,0,3,,,,,,,,,0,,,53,0
56865,control_change,225,0,4,,,,,,,,,0,64,0,,
56880,note_on,0,0,3,,,,,,,,,0,,,53,0
56880,note_on,0,0,1,,,,,,,,,0,,,73,100
56880,note_on,0,0,1,,,,,,,,,0,,,61,100
56880,note_on,0,0,1,,,,,,,,,0,,,61,0
56880,note_on,40,0,1,,,,,,,,,0,,,73,0
56880,control_change,15,0,4,,,,,,,,,0,64,127,,
56880,note_on,40,0,3,,,,,,,,,0,,,49,0
56880,note_on,0,0,3,,,,,,,,,0,,,57,0
56880,note_on,0,0,3,,,,,,,,,0,,,42,110
56920,note_on,0,0,3,,,,,,,,,0,,,54,120
56920,note_on,40,0,3,,,,,,,,,0,,,42,0
56920,note_on,0,0,3,,,,,,,,,0,,,58,120
56920,note_on,0,0,3,,,,,,,,,0,,,49,120
56960,note_on,40,0,3,,,,,,,,,0,,,49,0
56960,note_on,0,0,3,,,,,,,,,0,,,54,0
56960,note_on,0,0,3,,,,,,,,,0,,,54,100
56960,note_on,0,0,3,,,,,,,,,0,,,49,100
56960,note_on,0,0,3,,,,,,,,,0,,,58,0
56960,note_on,0,0,3,,,,,,,,,0,,,58,100
56985,control_change,105,0,4,,,,,,,,,0,64,0,,
57000,note_on,40,0,3,,,,,,,,,0,,,49,0
57000,note_on,0,0,1,,,,,,,,,0,,,70,100
57000,note_on,0,0,1,,,,,,,,,0,,,58,100
57000,note_on,0,0,1,,,,,,,,,0,,,61,0
57000,note_on,120,0,1,,,,,,,,,0,,,73,0
57000,note_on,0,0,3,,,,,,,,,0,,,38,110
57000,note_on,0,0,3,,,,,,,,,0,,,54,0
57000,note_on,0,0,3,,,,,,,,,0,,,58,0
57000,control_change,15,0,4,,,,,,,,,0,64,127,,
57040,note_on,40,0,3,,,,,,,,,0,,,38,0
57040,note_on,0,0,3,,,,,,,,,0,,,58,120
57040,note_on,0,0,3,,,,,,,,,0,,,56,120
57040,note_on,0,0,3,,,,,,,,,0,,,53,120
57040,note_on,0,0,3,,,,,,,,,0,,,50,120
57080,note_on,0,0,3,,,,,,,,,0,,,53,0
57080,note_on,0,0,3,,,,,,,,,0,,,58,100
57080,note_on,0,0,3,,,,,,,,,0,,,50,100
57080,note_on,0,0,3,,,,,,,,,0,,,58,0
57080,note_on,0,0,3,,,,,,,,,0,,,56,0
57080,note_on,0,0,3,,,,,,,,,0,,,56,100
57080,note_on,0,0,3,,,,,,,,,0,,,53,100
57080,note_on,40,0,3,,,,,,,,,0,,,50,0
57090,note_on,0,0,1,,,,,,,,,0,,,82,100
57090,note_on,0,0,1,,,,,,,,,0,,,70,100
57090,note_on,0,0,1,,,,,,,,,0,,,58,0
57090,note_on,90,0,1,,,,,,,,,0,,,70,0
57105,control_change,105,0,4,,,,,,,,,0,64,0,,
57120,note_on,40,0,3,,,,,,,,,0,,,50,0
57120,note_on,0,0,3,,,,,,,,,0,,,56,0
57120,note_on,0,0,3,,,,,,,,,0,,,53,0
57120,note_on,0,0,3,,,,,,,,,0,,,39,110
57120,control_change,15,0,4,,,,,,,,,0,64,127,,
57120,note_on,30,0,1,,,,,,,,,0,,,82,0
57120,note_on,0,0,1,,,,,,,,,0,,,70,0
57120,note_on,0,0,1,,,,,,,,,0,,,70,100
57120,note_on,0,0,1,,,,,,,,,0,,,82,100
57120,note_on,0,0,3,,,,,,,,,0,,,58,0
57160,note_on,40,0,3,,,,,,,,,0,,,39,0
57160,note_on,0,0,3,,,,,,,,,0,,,54,120
57160,note_on,0,0,3,,,,,,,,,0,,,51,120
57160,note_on,0,0,3,,,,,,,,,0,,,58,120
57200,note_on,0,0,3,,,,,,,,,0,,,54,0
57200,note_on,0,0,3,,,,,,,,,0,,,51,100
57200,note_on,40,0,3,,,,,,,,,0,,,51,0
57200,note_on,0,0,3,,,,,,,,,0,,,58,0
57200,note_on,0,0,3,,,,,,,,,0,,,59,100
57200,note_on,0,0,3,,,,,,,,,0,,,54,100
57210,note_on,0,0,1,,,,,,,,,0,,,83,100
57210,note_on,0,0,1,,,,,,,,,0,,,71,100
57210,note_on,0,0,1,,,,,,,,,0,,,70,0
57210,note_on,90,0,1,,,,,,,,,0,,,82,0
57225,control_change,105,0,4,,,,,,,,,0,64,0,,
57240,note_on,0,0,3,,,,,,,,,0,,,54,0
57240,note_on,40,0,3,,,,,,,,,0,,,51,0
57240,note_on,0,0,3,,,,,,,,,0,,,59,0
57240,control_change,15,0,4,,,,,,,,,0,64,127,,
57240,note_on,0,0,3,,,,,,,,,0,,,40,110
57280,note_on,0,0,3,,,,,,,,,0,,,52,120
57280,note_on,0,0,3,,,,,,,,,0,,,55,120
57280,note_on,0,0,3,,,,,,,,,0,,,58,120
57280,note_on,0,0,3,,,,,,,,,0,,,60,120
57280,note_on,40,0,3,,,,,,,,,0,,,40,0
57280,note_on,70,0,1,,,,,,,,,0,,,83,0
57280,note_on,0,0,1,,,,,,,,,0,,,71,0
57280,note_on,0,0,1,,,,,,,,,0,,,84,100
57280,note_on,0,0,1,,,,,,,,,0,,,72,100
57320,note_on,0,0,1,,,,,,,,,0,,,72,0
57320,note_on,40,0,3,,,,,,,,,0,,,52,0
57320,note_on,0,0,3,,,,,,,,,0,,,60,0
57320,note_on,0,0,3,,,,,,,,,0,,,58,0
57320,note_on,0,0,3,,,,,,,,,0,,,55,0
57320,note_on,0,0,3,,,,,,,,,0,,,61,100
57320,note_on,40,0,1,,,,,,,,,0,,,84,0
57320,note_on,0,0,3,,,,,,,,,0,,,55,100
57320,note_on,0,0,3,,,,,,,,,0,,,52,100
57320,note_on,0,0,3,,,,,,,,,0,,,58,100
57320,note_on,0,0,1,,,,,,,,,0,,,85,100
57320,note_on,0,0,1,,,,,,,,,0,,,73,100
57345,note_on,25,0,1,,,,,,,,,0,,,85,100
57345,control_change,105,0,4,,,,,,,,,0,64,0,,
57360,note_on,0,0,3,,,,,,,,,0,,,61,0
57360,note_on,0,0,3,,,,,,,,,0,,,58,0
57360,note_on,0,0,1,,,,,,,,,0,,,73,0
57360,note_on,0,0,1,,,,,,,,,0,,,85,0
57360,note_on,15,0,1,,,,,,,,,0,,,85,0
57360,note_on,0,0,1,,,,,,,,,0,,,89,100
57360,control_change,15,0,4,,,,,,,,,0,64,127,,
57360,note_on,0,0,3,,,,,,,,,0,,,55,0
57360,note_on,0,0,3,,,,,,,,,0,,,41,110
57360,note_on,0,0,1,,,,,,,,,0,,,77,100
57360,note_on,40,0,3,,,,,,,,,0,,,52,0
57400,note_on,0,0,3,,,,,,,,,0,,,61,107
57400,note_on,0,0,3,,,,,,,,,0,,,53,107
57400,note_on,0,0,3,,,,,,,,,0,,,58,107
57400,note_on,40,0,3,,,,,,,,,0,,,41,0
57440,note_on,40,0,3,,,,,,,,,0,,,53,0
57440,note_on,0,0,3,,,,,,,,,0,,,58,0
57440,note_on,0,0,3,,,,,,,,,0,,,61,0
57440,note_on,0,0,3,,,,,,,,,0,,,61,74
57440,note_on,0,0,3,,,,,,,,,0,,,58,74
57440,note_on,0,0,3,,,,,,,,,0,,,53,74
57450,note_on,0,0,1,,,,,,,,,0,,,73,71
57450,note_on,0,0,1,,,,,,,,,0,,,77,0
57450,note_on,0,0,1,,,,,,,,,0,,,85,71
57450,note_on,90,0,1,,,,,,,,,0,,,89,0
57480,note_on,0,0,1,,,,,,,,,0,,,84,61
57480,note_on,0,0,1,,,,,,,,,0,,,72,61
57480,note_on,0,0,1,,,,,,,,,0,,,73,0
57480,note_on,30,0,1,,,,,,,,,0,,,85,0
57480,note_on,40,0,3,,,,,,,,,0,,,53,0
57480,note_on,0,0,3,,,,,,,,,0,,,61,0
57480,note_on,0,0,3,,,,,,,,,0,,,53,61
57480,note_on,0,0,3,,,,,,,,,0,,,57,61
57480,note_on,0,0,3,,,,,,,,,0,,,60,61
57480,note_on,0,0,3,,,,,,,,,0,,,58,0
57520,note_on,0,0,3,,,,,,,,,0,,,60,47
57520,note_on,0,0,3,,,,,,,,,0,,,60,0
57520,note_on,0,0,3,,,,,,,,,0,,,57,0
57520,note_on,40,0,3,,,,,,,,,0,,,53,0
57520,note_on,0,0,3,,,,,,,,,0,,,57,47
57520,note_on,0,0,3,,,,,,,,,0,,,53,47
57540,note_on,60,0,1,,,,,,,,,0,,,84,0
57540,note_on,0,0,1,,,,,,,,,0,,,72,0
57560,note_on,0,0,3,,,,,,,,,0,,,60,0
57560,note_on,0,0,3,,,,,,,,,0,,,60,40
57560,note_on,0,0,3,,,,,,,,,0,,,57,0
57560,note_on,0,0,3,,,,,,,,,0,,,57,40
57560,note_on,0,0,3,,,,,,,,,0,,,53,40
57560,note_on,40,0,3,,,,,,,,,0,,,53,0
57585,control_change,225,0,4,,,,,,,,,0,64,0,,
57600,control_change,15,0,4,,,,,,,,,0,64,127,,
57600,note_on,60,0,1,,,,,,,,,0,,,60,40
57600,note_on,0,0,1,,,,,,,,,0,,,72,40
57600,note_on,0,0,3,,,,,,,,,0,,,57,0
57600,note_on,0,0,3,,,,,,,,,0,,,60,0
57600,note_on,0,0,3,,,,,,,,,0,,,45,50
57600,note_on,40,0,3,,,,,,,,,0,,,53,0
57640,note_on,0,0,3,,,,,,,,,0,,,60,60
57640,note_on,0,0,3,,,,,,,,,0,,,53,60
57640,note_on,0,0,3,,,,,,,,,0,,,57,60
57640,note_on,40,0,3,,,,,,,,,0,,,45,0
57660,note_on,0,0,1,,,,,,,,,0,,,60,0
57660,note_on,60,0,1,,,,,,,,,0,,,72,0
57660,note_on,0,0,1,,,,,,,,,0,,,77,40
57660,note_on,0,0,1,,,,,,,,,0,,,65,40
57680,note_on,0,0,3,,,,,,,,,0,,,52,40
57680,note_on,0,0,3,,,,,,,,,0,,,60,40
57680,note_on,0,0,3,,,,,,,,,0,,,57,40
57680,note_on,40,0,3,,,,,,,,,0,,,57,0
57680,note_on,0,0,3,,,,,,,,,0,,,60,0
57680,note_on,0,0,3,,,,,,,,,0,,,53,0
57720,note_on,60,0,1,,,,,,,,,0,,,77,0
57720,note_on,0,0,1,,,,,,,,,0,,,65,0
57720,note_on,0,0,1,,,,,,,,,0,,,69,40
57720,note_on,0,0,3,,,,,,,,,0,,,53,40
57720,note_on,0,0,3,,,,,,,,,0,,,57,40
57720,note_on,0,0,3,,,,,,,,,0,,,60,40
57720,note_on,0,0,3,,,,,,,,,0,,,52,0
57720,note_on,0,0,3,,,,,,,,,0,,,60,0
57720,note_on,40,0,3,,,,,,,,,0,,,57,0
57720,note_on,0,0,1,,,,,,,,,0,,,81,40
57760,note_on,0,0,3,,,,,,,,,0,,,57,0
57760,note_on,0,0,3,,,,,,,,,0,,,60,0
57760,note_on,0,0,3,,,,,,,,,0,,,57,40
57760,note_on,0,0,3,,,,,,,,,0,,,53,40
57760,note_on,40,0,3,,,,,,,,,0,,,53,0
57760,note_on,0,0,3,,,,,,,,,0,,,62,40
57780,note_on,60,0,1,,,,,,,,,0,,,81,0
57780,note_on,0,0,1,,,,,,,,,0,,,69,0
57780,note_on,0,0,1,,,,,,,,,0,,,72,40
57780,note_on,0,0,1,,,,,,,,,0,,,84,40
57800,note_on,0,0,3,,,,,,,,,0,,,57,40
57800,note_on,0,0,3,,,,,,,,,0,,,53,40
57800,note_on,40,0,3,,,,,,,,,0,,,53,0
57800,note_on,0,0,3,,,,,,,,,0,,,57,0
57800,note_on,0,0,3,,,,,,,,,0,,,62,0
57800,note_on,0,0,3,,,,,,,,,0,,,60,40
57825,control_change,225,0,4,,,,,,,,,0,64,0,,
57840,control_change,15,0,4,,,,,,,,,0,64,127,,
57840,note_on,0,0,1,,,,,,,,,0,,,84,40
57840,note_on,60,0,1,,,,,,,,,0,,,84,0
57840,note_on,0,0,1,,,,,,,,,0,,,72,0
57840,note_on,0,0,1,,,,,,,,,0,,,72,40
57840,note_on,0,0,3,,,,,,,,,0,,,60,0
57840,note_on,0,0,3,,,,,,,,,0,,,46,50
57840,note_on,0,0,3,,,,,,,,,0,,,57,0
57840,note_on,40,0,3,,,,,,,,,0,,,53,0
57880,note_on,0,0,3,,,,,,,,,0,,,54,60
57880,note_on,0,0,3,,,,,,,,,0,,,57,60
57880,note_on,0,0,3,,,,,,,,,0,,,63,60
57880,note_on,40,0,3,,,,,,,,,0,,,46,0
57920,note_on,0,0,3,,,,,,,,,0,,,57,40
57920,note_on,0,0,3,,,,,,,,,0,,,62,40
57920,note_on,0,0,3,,,,,,,,,0,,,63,0
57920,note_on,0,0,3,,,,,,,,,0,,,57,0
57920,note_on,40,0,3,,,,,,,,,0,,,54,0
57920,note_on,0,0,3,,,,,,,,,0,,,54,40
57960,note_on,0,0,3,,,,,,,,,0,,,57,0
57960,note_on,0,0,3,,,,,,,,,0,,,62,0
57960,note_on,0,0,3,,,,,,,,,0,,,58,40
57960,note_on,0,0,3,,,,,,,,,0,,,62,40
57960,note_on,120,0,1,,,,,,,,,0,,,84,0
57960,note_on,0,0,1,,,,,,,,,0,,,72,0
57960,note_on,0,0,1,,,,,,,,,0,,,70,40
57960,note_on,0,0,1,,,,,,,,,0,,,82,40
57960,note_on,0,0,3,,,,,,,,,0,,,55,40
57960,note_on,40,0,3,,,,,,,,,0,,,54,0
58000,note_on,40,0,3,,,,,,,,,0,,,62,0
58000,note_on,0,0,3,,,,,,,,,0,,,58,0
58000,note_on,0,0,3,,,,,,,,,0,,,55,0
58000,note_on,0,0,3,,,,,,,,,0,,,57,40
58000,note_on,0,0,3,,,,,,,,,0,,,62,40
58000,note_on,40,0,1,,,,,,,,,0,,,82,0
58000,note_on,0,0,1,,,,,,,,,0,,,70,0
58000,note_on,0,0,1,,,,,,,,,0,,,69,40
58000,note_on,0,0,1,,,,,,,,,0,,,81,40
58000,note_on,0,0,3,,,,,,,,,0,,,60,40
58040,note_on,0,0,3,,,,,,,,,0,,,57,0
58040,note_on,0,0,3,,,,,,,,,0,,,58,40
58040,note_on,0,0,1,,,,,,,,,0,,,69,0
58040,note_on,0,0,3,,,,,,,,,0,,,62,40
58040,note_on,0,0,3,,,,,,,,,0,,,60,0
58040,note_on,40,0,1,,,,,,,,,0,,,81,0
58040,note_on,0,0,1,,,,,,,,,0,,,67,40
58040,note_on,0,0,1,,,,,,,,,0,,,79,40
58040,note_on,40,0,3,,,,,,,,,0,,,62,0
58065,control_change,225,0,4,,,,,,,,,0,64,0,,
58080,note_on,0,0,1,,,,,,,,,0,,,78,40
58080,note_on,40,0,1,,,,,,,,,0,,,79,0
58080,note_on,0,0,1,,,,,,,,,0,,,67,0
58080,note_on,40,0,3,,,,,,,,,0,,,62,0
58080,note_on,0,0,3,,,,,,,,,0,,,58,0
58080,note_on,0,0,3,,,,,,,,,0,,,48,50
58080,control_change,15,0,4,,,,,,,,,0,64,127,,
58080,note_on,0,0,1,,,,,,,,,0,,,66,40
58120,note_on,0,0,1,,,,,,,,,0,,,66,0
58120,note_on,0,0,1,,,,,,,,,0,,,69,40
58120,note_on,0,0,1,,,,,,,,,0,,,81,40
58120,note_on,40,0,1,,,,,,,,,0,,,78,0
58120,note_on,40,0,3,,,,,,,,,0,,,48,0
58120,note_on,0,0,3,,,,,,,,,0,,,60,60
58120,note_on,0,0,3,,,,,,,,,0,,,57,60
58160,note_on,0,0,3,,,,,,,,,0,,,60,40
58160,note_on,0,0,3,,,,,,,,,0,,,57,40
58160,note_on,0,0,1,,,,,,,,,0,,,77,40
58160,note_on,0,0,1,,,,,,,,,0,,,65,40
58160,note_on,0,0,1,,,,,,,,,0,,,69,0
58160,note_on,40,0,1,,,,,,,,,0,,,81,0
58160,note_on,40,0,3,,,,,,,,,0,,,57,0
58160,note_on,0,0,3,,,,,,,,,0,,,60,0
58185,control_change,105,0,4,,,,,,,,,0,64,0,,
58200,control_change,15,0,4,,,,,,,,,0,64,127,,
58200,note_on,0,0,3,,,,,,,,,0,,,60,0
58200,note_on,40,0,1,,,,,,,,,0,,,77,0
58200,note_on,0,0,1,,,,,,,,,0,,,65,0
58200,note_on,0,0,1,,,,,,,,,0,,,65,40
58200,note_on,0,0,3,,,,,,,,,0,,,48,50
58200,note_on,40,0,3,,,,,,,,,0,,,57,0
58200,note_on,0,0,1,,,,,,,,,0,,,77,40
58240,note_on,0,0,1,,,,,,,,,0,,,65,0
58240,note_on,0,0,1,,,,,,,,,0,,,66,40
58240,note_on,0,0,1,,,,,,,,,0,,,78,40
58240,note_on,40,0,1,,,,,,,,,0,,,77,0
58240,note_on,0,0,3,,,,,,,,,0,,,60,60
58240,note_on,0,0,3,,,,,,,,,0,,,55,60
58240,note_on,40,0,3,,,,,,,,,0,,,48,0
58240,note_on,0,0,3,,,,,,,,,0,,,58,60
58280,note_on,40,0,1,,,,,,,,,0,,,78,0
58280,note_on,0,0,1,,,,,,,,,0,,,76,40
58280,note_on,40,0,3,,,,,,,,,0,,,55,0
58280,note_on,0,0,3,,,,,,,,,0,,,58,0
58280,note_on,0,0,3,,,,,,,,,0,,,60,0
58280,note_on,0,0,1,,,,,,,,,0,,,66,0
58280,note_on,0,0,3,,,,,,,,,0,,,58,40
58280,note_on,0,0,3,,,,,,,,,0,,,55,40
58280,note_on,0,0,3,,,,,,,,,0,,,60,40
58280,note_on,0,0,1,,,,,,,,,0,,,64,40
58305,control_change,105,0,4,,,,,,,,,0,64,0,,
58320,note_on,0,0,3,,,,,,,,,0,,,58,0
58320,note_on,0,0,3,,,,,,,,,0,,,60,0
58320,note_on,0,0,3,,,,,,,,,0,,,41,50
58320,note_on,0,0,1,,,,,,,,,0,,,64,0
58320,note_on,40,0,1,,,,,,,,,0,,,76,0
58320,note_on,0,0,1,,,,,,,,,0,,,65,40
58320,control_change,15,0,4,,,,,,,,,0,64,127,,
58320,note_on,0,0,1,,,,,,,,,0,,,77,40
58320,note_on,40,0,3,,,,,,,,,0,,,55,0
58360,note_on,40,0,3,,,,,,,,,0,,,41,0
58360,note_on,0,0,3,,,,,,,,,0,,,60,60
58360,note_on,0,0,3,,,,,,,,,0,,,57,60
58360,note_on,0,0,3,,,,,,,,,0,,,53,60
58400,note_on,0,0,3,,,,,,,,,0,,,60,0
58400,note_on,0,0,3,,,,,,,,,0,,,53,40
58400,note_on,40,0,3,,,,,,,,,0,,,53,0
58400,note_on,0,0,3,,,,,,,,,0,,,57,0
58425,control_change,105,0,4,,,,,,,,,0,64,0,,
58440,note_on,0,0,1,,,,,,,,,0,,,63,40
58440,note_on,120,0,1,,,,,,,,,0,,,77,0
58440,note_on,0,0,1,,,,,,,,,0,,,65,0
58440,note_on,0,0,1,,,,,,,,,0,,,75,40
58440,note_on,0,0,3,,,,,,,,,0,,,51,40
58440,note_on,40,0,3,,,,,,,,,0,,,53,0
58440,note_on,0,0,3,,,,,,,,,0,,,53,40
58440,control_change,15,0,4,,,,,,,,,0,64,127,,
58480,note_on,40,0,1,,,,,,,,,0,,,75,0
58480,note_on,0,0,3,,,,,,,,,0,,,53,79
58480,note_on,0,0,3,,,,,,,,,0,,,49,79
58480,note_on,0,0,3,,,,,,,,,0,,,51,0
58480,note_on,40,0,3,,,,,,,,,0,,,53,0
58480,note_on,0,0,1,,,,,,,,,0,,,63,0
58480,note_on,0,0,1,,,,,,,,,0,,,61,79
58480,note_on,0,0,1,,,,,,,,,0,,,73,79
58520,note_on,40,0,1,,,,,,,,,0,,,73,0
58520,note_on,0,0,3,,,,,,,,,0,,,53,100
58520,note_on,40,0,3,,,,,,,,,0,,,53,0
58520,note_on,0,0,1,,,,,,,,,0,,,61,0
58520,note_on,0,0,1,,,,,,,,,0,,,60,100
58520,note_on,0,0,3,,,,,,,,,0,,,49,0
58520,note_on,0,0,3,,,,,,,,,0,,,48,100
58520,note_on,0,0,1,,,,,,,,,0,,,72,100
58545,control_change,105,0,4,,,,,,,,,0,64,0,,
58560,note_on,0,0,1,,,,,,,,,0,,,60,0
58560,control_change,15,0,4,,,,,,,,,0,64,127,,
58560,note_on,40,0,1,,,,,,,,,0,,,72,0
58560,note_on,0,0,3,,,,,,,,,0,,,30,110
58560,note_on,0,0,3,,,,,,,,,0,,,42,110
58560,note_on,0,0,3,,,,,,,,,0,,,48,0
58560,note_on,40,0,3,,,,,,,,,0,,,53,0
58560,note_on,0,0,1,,,,,,,,,0,,,72,100
58560,note_on,0,0,1,,,,,,,,,0,,,60,100
58600,note_on,40,0,3,,,,,,,,,0,,,30,0
58600,note_on,0,0,3,,,,,,,,,0,,,49,120
58600,note_on,0,0,3,,,,,,,,,0,,,46,120
58600,note_on,0,0,3,,,,,,,,,0,,,42,120
58600,note_on,0,0,3,,,,,,,,,0,,,42,0
58640,note_on,40,0,3,,,,,,,,,0,,,42,0
58640,note_on,0,0,3,,,,,,,,,0,,,46,0
58640,note_on,0,0,3,,,,,,,,,0,,,49,0
58640,note_on,0,0,3,,,,,,,,,0,,,48,100
58640,note_on,0,0,3,,,,,,,,,0,,,46,100
58640,note_on,0,0,3,,,,,,,,,0,,,42,100
58680,note_on,0,0,1,,,,,,,,,0,,,60,0
58680,note_on,0,0,1,,,,,,,,,0,,,58,100
58680,note_on,0,0,1,,,,,,,,,0,,,70,100
58680,note_on,120,0,1,,,,,,,,,0,,,72,0
58680,note_on,0,0,3,,,,,,,,,0,,,49,100
58680,note_on,40,0,3,,,,,,,,,0,,,42,0
58680,note_on,0,0,3,,,,,,,,,0,,,46,0
58680,note_on,0,0,3,,,,,,,,,0,,,48,0
58680,note_on,0,0,3,,,,,,,,,0,,,46,100
58680,note_on,0,0,3,,,,,,,,,0,,,42,100
58720,note_on,0,0,3,,,,,,,,,0,,,42,100
58720,note_on,40,0,3,,,,,,,,,0,,,42,0
58720,note_on,0,0,3,,,,,,,,,0,,,46,0
58720,note_on,0,0,3,,,,,,,,,0,,,49,0
58720,note_on,0,0,3,,,,,,,,,0,,,51,100
58720,note_on,0,0,3,,,,,,,,,0,,,46,100
58740,note_on,60,0,1,,,,,,,,,0,,,70,0
58740,note_on,0,0,1,,,,,,,,,0,,,70,100
58740,note_on,0,0,1,,,,,,,,,0,,,58,0
58740,note_on,0,0,1,,,,,,,,,0,,,58,100
58760,note_on,0,0,3,,,,,,,,,0,,,49,100
58760,note_on,0,0,3,,,,,,,,,0,,,42,100
58760,note_on,0,0,3,,,,,,,,,0,,,46,100
58760,note_on,0,0,3,,,,,,,,,0,,,51,0
58760,note_on,0,0,3,,,,,,,,,0,,,46,0
58760,note_on,40,0,3,,,,,,,,,0,,,42,0
58785,control_change,225,0,4,,,,,,,,,0,64,0,,
58800,control_change,15,0,4,,,,,,,,,0,64,127,,
58800,note_on,60,0,1,,,,,,,,,0,,,70,0
58800,note_on,0,0,1,,,,,,,,,0,,,72,100
58800,note_on,0,0,1,,,,,,,,,0,,,58,0
58800,note_on,0,0,3,,,,,,,,,0,,,41,110
58800,note_on,0,0,3,,,,,,,,,0,,,29,110
58800,note_on,0,0,3,,,,,,,,,0,,,49,0
58800,note_on,0,0,3,,,,,,,,,0,,,46,0
58800,note_on,40,0,3,,,,,,,,,0,,,42,0
58800,note_on,0,0,1,,,,,,,,,0,,,60,100
58840,note_on,0,0,3,,,,,,,,,0,,,49,120
58840,note_on,0,0,3,,,,,,,,,0,,,29,0
58840,note_on,0,0,3,,,,,,,,,0,,,41,120
58840,note_on,40,0,3,,,,,,,,,0,,,41,0
58840,note_on,0,0,3,,,,,,,,,0,,,46,120
58880,note_on,0,0,3,,,,,,,,,0,,,49,0
58880,note_on,0,0,3,,,,,,,,,0,,,41,100
58880,note_on,0,0,3,,,,,,,,,0,,,46,0
58880,note_on,40,0,3,,,,,,,,,0,,,41,0
58880,note_on,0,0,3,,,,,,,,,0,,,48,100
58880,note_on,0,0,3,,,,,,,,,0,,,46,100
58920,note_on,120,0,1,,,,,,,,,0,,,72,0
58920,note_on,0,0,1,,,,,,,,,0,,,60,0
58920,note_on,0,0,3,,,,,,,,,0,,,49,100
58920,note_on,0,0,1,,,,,,,,,0,,,58,100
58920,note_on,0,0,3,,,,,,,,,0,,,46,100
58920,note_on,40,0,3,,,,,,,,,0,,,41,0
58920,note_on,0,0,3,,,,,,,,,0,,,46,0
58920,note_on,0,0,3,,,,,,,,,0,,,48,0
58920,note_on,0,0,3,,,,,,,,,0,,,41,100
58920,note_on,0,0,1,,,,,,,,,0,,,70,100
58960,note_on,40,0,3,,,,,,,,,0,,,41,0
58960,note_on,0,0,3,,,,,,,,,0,,,46,0
58960,note_on,0,0,3,,,,,,,,,0,,,49,0
58960,note_on,0,0,3,,,,,,,,,0,,,46,100
58960,note_on,0,0,3,,,,,,,,,0,,,41,100
58960,note_on,0,0,3,,,,,,,,,0,,,51,100
58980,note_on,0,0,1,,,,,,,,,0,,,70,100
58980,note_on,60,0,1,,,,,,,,,0,,,70,0
58980,note_on,0,0,1,,,,,,,,,0,,,58,0
58980,note_on,0,0,1,,,,,,,,,0,,,58,100
59000,note_on,0,0,3,,,,,,,,,0,,,46,100
59000,note_on,0,0,3,,,,,,,,,0,,,49,100
59000,note_on,0,0,3,,,,,,,,,0,,,51,0
59000,note_on,0,0,3,,,,,,,,,0,,,46,0
59000,note_on,40,0,3,,,,,,,,,0,,,41,0
59000,note_on,0,0,3,,,,,,,,,0,,,41,100
59025,control_change,225,0,4,,,,,,,,,0,64,0,,
59040,note_on,0,0,3,,,,,,,,,0,,,38,110
59040,note_on,0,0,3,,,,,,,,,0,,,49,0
59040,note_on,0,0,3,,,,,,,,,0,,,46,0
59040,control_change,15,0,4,,,,,,,,,0,64,127,,
59040,note_on,40,0,3,,,,,,,,,0,,,41,0
59040,note_on,60,0,1,,,,,,,,,0,,,70,0
59040,note_on,0,0,1,,,,,,,,,0,,,59,100
59040,note_on,0,0,1,,,,,,,,,0,,,58,0
59040,note_on,0,0,1,,,,,,,,,0,,,71,100
59080,note_on,0,0,3,,,,,,,,,0,,,50,120
59080,note_on,0,0,3,,,,,,,,,0,,,53,120
59080,note_on,40,0,1,,,,,,,,,0,,,71,0
59080,note_on,40,0,3,,,,,,,,,0,,,38,0
59080,note_on,0,0,1,,,,,,,,,0,,,70,100
59080,note_on,0,0,1,,,,,,,,,0,,,58,100
59080,note_on,0,0,1,,,,,,,,,0,,,59,0
59080,note_on,0,0,3,,,,,,,,,0,,,56,120
59120,note_on,0,0,3,,,,,,,,,0,,,56,0
59120,note_on,0,0,3,,,,,,,,,0,,,53,0
59120,note_on,0,0,3,,,,,,,,,0,,,53,100
59120,note_on,0,0,3,,,,,,,,,0,,,50,100
59120,note_on,0,0,3,,,,,,,,,0,,,57,100
59120,note_on,40,0,3,,,,,,,,,0,,,50,0
59120,note_on,40,0,1,,,,,,,,,0,,,70,0
59120,note_on,0,0,1,,,,,,,,,0,,,58,0
59120,note_on,0,0,1,,,,,,,,,0,,,62,100
59120,note_on,0,0,1,,,,,,,,,0,,,74,100
59160,note_on,0,0,3,,,,,,,,,0,,,50,100
59160,note_on,0,0,3,,,,,,,,,0,,,53,100
59160,note_on,0,0,3,,,,,,,,,0,,,57,0
59160,note_on,0,0,3,,,,,,,,,0,,,53,0
59160,note_on,40,0,3,,,,,,,,,0,,,50,0
59160,note_on,0,0,3,,,,,,,,,0,,,58,100
59160,note_on,0,0,1,,,,,,,,,0,,,65,100
59160,note_on,0,0,1,,,,,,,,,0,,,77,100
59160,note_on,0,0,1,,,,,,,,,0,,,62,0
59160,note_on,40,0,1,,,,,,,,,0,,,74,0
59200,note_on,0,0,1,,,,,,,,,0,,,80,100
59200,note_on,0,0,3,,,,,,,,,0,,,50,100
59200,note_on,0,0,3,,,,,,,,,0,,,53,100
59200,note_on,0,0,3,,,,,,,,,0,,,56,100
59200,note_on,0,0,1,,,,,,,,,0,,,68,100
59200,note_on,0,0,3,,,,,,,,,0,,,58,0
59200,note_on,40,0,3,,,,,,,,,0,,,50,0
59200,note_on,40,0,1,,,,,,,,,0,,,65,0
59200,note_on,0,0,3,,,,,,,,,0,,,53,0
59200,note_on,0,0,1,,,,,,,,,0,,,77,0
59240,note_on,0,0,3,,,,,,,,,0,,,50,100
59240,note_on,40,0,3,,,,,,,,,0,,,50,0
59240,note_on,0,0,3,,,,,,,,,0,,,53,0
59240,note_on,0,0,3,,,,,,,,,0,,,56,0
59240,note_on,0,0,3,,,,,,,,,0,,,59,100
59240,note_on,0,0,3,,,,,,,,,0,,,53,100
59240,note_on,0,0,3,,,,,,,,,0,,,56,100
59240,note_on,40,0,1,,,,,,,,,0,,,68,0
59240,note_on,0,0,1,,,,,,,,,0,,,80,0
59240,note_on,0,0,1,,,,,,,,,0,,,83,100
59240,note_on,0,0,1,,,,,,,,,0,,,80,100
59240,note_on,0,0,1,,,,,,,,,0,,,77,100
59240,note_on,0,0,1,,,,,,,,,0,,,71,100
59265,control_change,225,0,4,,,,,,,,,0,64,0,,
59280,note_on,40,0,3,,,,,,,,,0,,,50,0
59280,note_on,0,0,3,,,,,,,,,0,,,53,0
59280,note_on,0,0,3,,,,,,,,,0,,,39,110
59280,control_change,15,0,4,,,,,,,,,0,64,127,,
59280,note_on,0,0,3,,,,,,,,,0,,,56,0
59280,note_on,0,0,1,,,,,,,,,0,,,82,100
59280,note_on,0,0,1,,,,,,,,,0,,,70,100
59280,note_on,0,0,1,,,,,,,,,0,,,77,100
59280,note_on,0,0,1,,,,,,,,,0,,,77,0
59280,note_on,0,0,1,,,,,,,,,0,,,80,0
59280,note_on,0,0,1,,,,,,,,,0,,,83,0
59280,note_on,40,0,1,,,,,,,,,0,,,71,0
59280,note_on,0,0,1,,,,,,,,,0,,,80,100
59280,note_on,0,0,3,,,,,,,,,0,,,59,0
59320,note_on,0,0,3,,,,,,,,,0,,,51,113
59320,note_on,0,0,3,,,,,,,,,0,,,54,113
59320,note_on,0,0,3,,,,,,,,,0,,,58,113
59320,note_on,40,0,3,,,,,,,,,0,,,39,0
59360,note_on,0,0,3,,,,,,,,,0,,,54,85
59360,note_on,0,0,3,,,,,,,,,0,,,57,85
59360,note_on,0,0,3,,,,,,,,,0,,,58,0
59360,note_on,0,0,3,,,,,,,,,0,,,54,0
59360,note_on,40,0,3,,,,,,,,,0,,,51,0
59360,note_on,0,0,3,,,,,,,,,0,,,51,85
59400,note_on,0,0,3,,,,,,,,,0,,,57,0
59400,note_on,0,0,3,,,,,,,,,0,,,51,77
59400,note_on,0,0,3,,,,,,,,,0,,,54,77
59400,note_on,0,0,3,,,,,,,,,0,,,58,77
59400,note_on,0,0,3,,,,,,,,,0,,,54,0
59400,note_on,40,0,3,,,,,,,,,0,,,51,0
59400,note_on,120,0,1,,,,,,,,,0,,,80,0
59400,note_on,0,0,1,,,,,,,,,0,,,77,0
59400,note_on,0,0,1,,,,,,,,,0,,,78,77
59400,note_on,0,0,1,,,,,,,,,0,,,75,77
59440,note_on,0,0,3,,,,,,,,,0,,,54,69
59440,note_on,0,0,3,,,,,,,,,0,,,51,69
59440,note_on,0,0,3,,,,,,,,,0,,,54,0
59440,note_on,40,0,3,,,,,,,,,0,,,51,0
59440,note_on,0,0,3,,,,,,,,,0,,,58,0
59440,note_on,0,0,3,,,,,,,,,0,,,60,69
59460,note_on,0,0,1,,,,,,,,,0,,,82,0
59460,note_on,0,0,1,,,,,,,,,0,,,75,65
59460,note_on,0,0,1,,,,,,,,,0,,,78,0
59460,note_on,60,0,1,,,,,,,,,0,,,75,0
59460,note_on,0,0,1,,,,,,,,,0,,,70,0
59460,note_on,0,0,1,,,,,,,,,0,,,63,65
59480,note_on,40,0,3,,,,,,,,,0,,,51,0
59480,note_on,0,0,3,,,,,,,,,0,,,60,0
59480,note_on,0,0,3,,,,,,,,,0,,,58,61
59480,note_on,0,0,3,,,,,,,,,0,,,54,61
59480,note_on,0,0,3,,,,,,,,,0,,,51,61
59480,note_on,0,0,3,,,,,,,,,0,,,54,0
59505,control_change,225,0,4,,,,,,,,,0,64,0,,
59520,note_on,0,0,1,,,,,,,,,0,,,73,60
59520,note_on,0,0,3,,,,,,,,,0,,,42,70
59520,note_on,40,0,3,,,,,,,,,0,,,51,0
59520,note_on,0,0,3,,,,,,,,,0,,,54,0
59520,note_on,0,0,3,,,,,,,,,0,,,58,0
59520,note_on,0,0,1,,,,,,,,,0,,,61,60
59520,control_change,15,0,4,,,,,,,,,0,64,127,,
59520,note_on,60,0,1,,,,,,,,,0,,,75,0
59520,note_on,0,0,1,,,,,,,,,0,,,63,0
59560,note_on,0,0,3,,,,,,,,,0,,,54,80
59560,note_on,0,0,3,,,,,,,,,0,,,58,80
59560,note_on,40,0,3,,,,,,,,,0,,,42,0
59600,note_on,40,0,3,,,,,,,,,0,,,54,0
59600,note_on,0,0,3,,,,,,,,,0,,,58,0
59600,note_on,0,0,3,,,,,,,,,0,,,58,60
59600,note_on,0,0,3,,,,,,,,,0,,,54,60
59610,note_on,0,0,1,,,,,,,,,0,,,60,60
59610,note_on,0,0,1,,,,,,,,,0,,,61,0
59610,note_on,90,0,1,,,,,,,,,0,,,73,0
59610,note_on,0,0,1,,,,,,,,,0,,,72,60
59640,note_on,0,0,1,,,,,,,,,0,,,60,0
59640,note_on,0,0,1,,,,,,,,,0,,,60,60
59640,note_on,0,0,1,,,,,,,,,0,,,72,60
59640,note_on,30,0,1,,,,,,,,,0,,,72,0
59640,note_on,0,0,3,,,,,,,,,0,,,54,60
59640,note_on,0,0,3,,,,,,,,,0,,,58,0
59640,note_on,0,0,3,,,,,,,,,0,,,58,60
59640,note_on,40,0,3,,,,,,,,,0,,,54,0
59680,note_on,40,0,3,,,,,,,,,0,,,54,0
59680,note_on,0,0,3,,,,,,,,,0,,,58,0
59680,note_on,0,0,3,,,,,,,,,0,,,58,60
59680,note_on,0,0,1,,,,,,,,,0,,,73,60
59680,note_on,0,0,3,,,,,,,,,0,,,54,60
59680,note_on,0,0,1,,,,,,,,,0,,,61,60
59680,note_on,0,0,1,,,,,,,,,0,,,60,0
59680,note_on,40,0,1,,,,,,,,,0,,,72,0
59720,note_on,0,0,1,,,,,,,,,0,,,75,60
59720,note_on,40,0,1,,,,,,,,,0,,,73,0
59720,note_on,0,0,3,,,,,,,,,0,,,58,60
59720,note_on,0,0,1,,,,,,,,,0,,,63,60
59720,note_on,0,0,3,,,,,,,,,0,,,60,60
59720,note_on,0,0,3,,,,,,,,,0,,,58,0
59720,note_on,40,0,3,,,,,,,,,0,,,54,0
59720,note_on,0,0,3,,,,,,,,,0,,,54,60
59720,note_on,0,0,1,,,,,,,,,0,,,61,0
59745,control_change,225,0,4,,,,,,,,,0,64,0,,
59745,note_on,25,0,1,,,,,,,,,0,,,75,60
59760,control_change,15,0,4,,,,,,,,,0,64,127,,
59760,note_on,0,0,1,,,,,,,,,0,,,66,60
59760,note_on,0,0,1,,,,,,,,,0,,,78,60
59760,note_on,0,0,1,,,,,,,,,0,,,63,0
59760,note_on,0,0,3,,,,,,,,,0,,,60,0
59760,note_on,40,0,3,,,,,,,,,0,,,54,0
59760,note_on,15,0,1,,,,,,,,,0,,,75,0
59760,note_on,0,0,3,,,,,,,,,0,,,41,70
59760,note_on,0,0,1,,,,,,,,,0,,,75,0
59760,note_on,0,0,3,,,,,,,,,0,,,58,0
59800,note_on,0,0,3,,,,,,,,,0,,,53,80
59800,note_on,0,0,3,,,,,,,,,0,,,58,80
59800,note_on,40,0,3,,,,,,,,,0,,,41,0
59800,note_on,0,0,3,,,,,,,,,0,,,61,80
59840,note_on,0,0,3,,,,,,,,,0,,,58,60
59840,note_on,0,0,3,,,,,,,,,0,,,53,60
59840,note_on,0,0,3,,,,,,,,,0,,,61,0
59840,note_on,0,0,3,,,,,,,,,0,,,58,0
59840,note_on,40,0,3,,,,,,,,,0,,,53,0
59840,note_on,0,0,3,,,,,,,,,0,,,61,60
59850,note_on,0,0,1,,,,,,,,,0,,,77,60
59850,note_on,0,0,1,,,,,,,,,0,,,66,0
59850,note_on,90,0,1,,,,,,,,,0,,,78,0
59850,note_on,0,0,1,,,,,,,,,0,,,65,60
59880,note_on,0,0,1,,,,,,,,,0,,,65,60
59880,note_on,0,0,1,,,,,,,,,0,,,77,60
59880,note_on,30,0,1,,,,,,,,,0,,,77,0
59880,note_on,0,0,1,,,,,,,,,0,,,65,0
59880,note_on,0,0,3,,,,,,,,,0,,,61,60
59880,note_on,40,0,3,,,,,,,,,0,,,53,0
59880,note_on,0,0,3,,,,,,,,,0,,,58,0
59880,note_on,0,0,3,,,,,,,,,0,,,61,0
59880,note_on,0,0,3,,,,,,,,,0,,,53,60
59880,note_on,0,0,3,,,,,,,,,0,,,58,60
59920,note_on,0,0,1,,,,,,,,,0,,,65,0
59920,note_on,0,0,3,,,,,,,,,0,,,58,0
59920,note_on,40,0,1,,,,,,,,,0,,,77,0
59920,note_on,40,0,3,,,,,,,,,0,,,53,0
59920,note_on,0,0,1,,,,,,,,,0,,,82,60
59920,note_on,0,0,3,,,,,,,,,0,,,61,0
59920,note_on,0,0,3,,,,,,,,,0,,,61,60
59920,note_on,0,0,3,,,,,,,,,0,,,58,60
59920,note_on,0,0,3,,,,,,,,,0,,,52,60
59920,note_on,0,0,1,,,,,,,,,0,,,70,60
59960,note_on,40,0,3,,,,,,,,,0,,,52,0
59960,note_on,0,0,1,,,,,,,,,0,,,73,60
59960,note_on,0,0,1,,,,,,,,,0,,,70,0
59960,note_on,0,0,3,,,,,,,,,0,,,58,0
59960,note_on,0,0,1,,,,,,,,,0,,,85,60
59960,note_on,0,0,3,,,,,,,,,0,,,53,60
59960,note_on,0,0,3,,,,,,,,,0,,,58,60
59960,note_on,0,0,3,,,,,,,,,0,,,61,60
59960,note_on,0,0,3,,,,,,,,,0,,,61,0
59960,note_on,40,0,1,,,,,,,,,0,,,82,0
59985,control_change,225,0,4,,,,,,,,,0,64,0,,
60000,note_on,40,0,1,,,,,,,,,0,,,85,0
60000,note_on,0,0,1,,,,,,,,,0,,,73,0
60000,note_on,0,0,1,,,,,,,,,0,,,85,60
60000,note_on,0,0,1,,,,,,,,,0,,,73,60
60000,note_on,0,0,3,,,,,,,,,0,,,40,70
60000,note_on,0,0,3,,,,,,,,,0,,,61,0
60000,control_change,15,0,4,,,,,,,,,0,64,127,,
60000,note_on,40,0,3,,,,,,,,,0,,,53,0
60000,note_on,0,0,3,,,,,,,,,0,,,58,0
60040,note_on,0,0,3,,,,,,,,,0,,,52,80
60040,note_on,0,0,3,,,,,,,,,0,,,55,80
60040,note_on,0,0,3,,,,,,,,,0,,,58,80
60040,note_on,0,0,3,,,,,,,,,0,,,61,80
60040,note_on,40,0,3,,,,,,,,,0,,,40,0
60080,note_on,0,0,3,,,,,,,,,0,,,55,60
60080,note_on,0,0,3,,,,,,,,,0,,,58,60
60080,note_on,0,0,3,,,,,,,,,0,,,55,0
60080,note_on,40,0,3,,,,,,,,,0,,,52,0
60080,note_on,0,0,3,,,,,,,,,0,,,61,0
60080,note_on,0,0,3,,,,,,,,,0,,,58,0
60080,note_on,0,0,3,,,,,,,,,0,,,60,60
60080,note_on,0,0,3,,,,,,,,,0,,,52,60
60090,note_on,90,0,1,,,,,,,,,0,,,73,0
60090,note_on,0,0,1,,,,,,,,,0,,,85,0
60090,note_on,0,0,1,,,,,,,,,0,,,72,60
60090,note_on,0,0,1,,,,,,,,,0,,,84,60
60105,control_change,105,0,4,,,,,,,,,0,64,0,,
60120,control_change,15,0,4,,,,,,,,,0,64,127,,
60120,note_on,0,0,3,,,,,,,,,0,,,41,70
60120,note_on,0,0,3,,,,,,,,,0,,,55,0
60120,note_on,0,0,3,,,,,,,,,0,,,58,0
60120,note_on,0,0,3,,,,,,,,,0,,,60,0
60120,note_on,40,0,3,,,,,,,,,0,,,52,0
60120,note_on,30,0,1,,,,,,,,,0,,,84,0
60120,note_on,0,0,1,,,,,,,,,0,,,72,60
60120,note_on,0,0,1,,,,,,,,,0,,,84,60
60120,note_on,0,0,1,,,,,,,,,0,,,72,0
60160,note_on,0,0,1,,,,,,,,,0,,,75,60
60160,note_on,0,0,1,,,,,,,,,0,,,87,60
60160,note_on,0,0,3,,,,,,,,,0,,,57,80
60160,note_on,0,0,3,,,,,,,,,0,,,53,80
60160,note_on,0,0,3,,,,,,,,,0,,,66,80
60160,note_on,40,0,1,,,,,,,,,0,,,72,0
60160,note_on,0,0,1,,,,,,,,,0,,,84,0
60160,note_on,0,0,3,,,,,,,,,0,,,60,80
60160,note_on,40,0,3,,,,,,,,,0,,,41,0
60200,note_on,0,0,3,,,,,,,,,0,,,66,0
60200,note_on,0,0,3,,,,,,,,,0,,,60,0
60200,note_on,0,0,3,,,,,,,,,0,,,57,0
60200,note_on,0,0,3,,,,,,,,,0,,,65,60
60200,note_on,0,0,3,,,,,,,,,0,,,63,60
60200,note_on,0,0,3,,,,,,,,,0,,,60,60
60200,note_on,0,0,3,,,,,,,,,0,,,53,60
60200,note_on,40,0,3,,,,,,,,,0,,,53,0
60200,note_on,0,0,1,,,,,,,,,0,,,81,60
60200,note_on,0,0,1,,,,,,,,,0,,,87,0
60200,note_on,40,0,1,,,,,,,,,0,,,75,0
60200,note_on,0,0,1,,,,,,,,,0,,,69,60
60225,control_change,105,0,4,,,,,,,,,0,64,0,,
60240,note_on,0,0,1,,,,,,,,,0,,,81,0
60240,note_on,0,0,1,,,,,,,,,0,,,82,60
60240,note_on,0,0,1,,,,,,,,,0,,,70,60
60240,note_on,40,0,1,,,,,,,,,0,,,69,0
60240,note_on,0,0,3,,,,,,,,,0,,,65,0
60240,note_on,0,0,3,,,,,,,,,0,,,63,0
60240,note_on,0,0,3,,,,,,,,,0,,,60,0
60240,control_change,15,0,4,,,,,,,,,0,64,127,,
60240,note_on,0,0,3,,,,,,,,,0,,,46,70
60240,note_on,40,0,3,,,,,,,,,0,,,53,0
60280,note_on,40,0,3,,,,,,,,,0,,,46,0
60280,note_on,0,0,3,,,,,,,,,0,,,61,80
60280,note_on,0,0,3,,,,,,,,,0,,,53,80
60280,note_on,0,0,3,,,,,,,,,0,,,65,80
60320,note_on,0,0,3,,,,,,,,,0,,,61,0
60320,note_on,0,0,3,,,,,,,,,0,,,65,0
60320,note_on,0,0,3,,,,,,,,,0,,,63,60
60320,note_on,40,0,3,,,,,,,,,0,,,53,0
60320,note_on,0,0,3,,,,,,,,,0,,,53,60
60320,note_on,0,0,3,,,,,,,,,0,,,60,60
60345,control_change,105,0,4,,,,,,,,,0,64,0,,
60360,note_on,40,0,3,,,,,,,,,0,,,53,0
60360,note_on,0,0,3,,,,,,,,,0,,,61,60
60360,note_on,0,0,3,,,,,,,,,0,,,60,0
60360,note_on,0,0,3,,,,,,,,,0,,,58,60
60360,note_on,0,0,3,,,,,,,,,0,,,53,60
60360,control_change,15,0,4,,,,,,,,,0,64,127,,
60360,note_on,0,0,3,,,,,,,,,0,,,63,0
60420,note_on,60,0,3,,,,,,,,,0,,,53,0
60420,note_on,0,0,3,,,,,,,,,0,,,61,0
60420,note_on,0,0,3,,,,,,,,,0,,,58,0
60420,note_on,180,0,1,,,,,,,,,0,,,70,0
60420,note_on,0,0,1,,,,,,,,,0,,,61,100
60420,note_on,0,0,1,,,,,,,,,0,,,73,100
60420,note_on,0,0,1,,,,,,,,,0,,,82,0
60465,control_change,105,0,4,,,,,,,,,0,64,0,,
60480,note_on,60,0,3,,,,,,,,,0,,,37,110
60480,control_change,15,0,4,,,,,,,,,0,64,127,,
60480,note_on,0,0,1,,,,,,,,,0,,,73,100
60480,note_on,0,0,1,,,,,,,,,0,,,73,0
60480,note_on,0,0,1,,,,,,,,,0,,,61,100
60480,note_on,60,0,1,,,,,,,,,0,,,61,0
60520,note_on,0,0,3,,,,,,,,,0,,,49,120
60520,note_on,0,0,3,,,,,,,,,0,,,53,120
60520,note_on,0,0,3,,,,,,,,,0,,,56,120
60520,note_on,40,0,3,,,,,,,,,0,,,37,0
60560,note_on,0,0,3,,,,,,,,,0,,,56,100
60560,note_on,0,0,3,,,,,,,,,0,,,53,0
60560,note_on,40,0,3,,,,,,,,,0,,,49,0
60560,note_on,0,0,3,,,,,,,,,0,,,56,0
60560,note_on,0,0,3,,,,,,,,,0,,,53,100
60560,note_on,0,0,3,,,,,,,,,0,,,49,100
60600,note_on,0,0,3,,,,,,,,,0,,,56,0
60600,note_on,0,0,3,,,,,,,,,0,,,57,100
60600,note_on,0,0,3,,,,,,,,,0,,,53,100
60600,note_on,0,0,3,,,,,,,,,0,,,49,100
60600,note_on,0,0,3,,,,,,,,,0,,,53,0
60600,note_on,0,0,1,,,,,,,,,0,,,73,100
60600,note_on,0,0,1,,,,,,,,,0,,,61,100
60600,note_on,0,0,1,,,,,,,,,0,,,61,0
60600,note_on,120,0,1,,,,,,,,,0,,,73,0
60600,note_on,40,0,3,,,,,,,,,0,,,49,0
60640,note_on,0,0,3,,,,,,,,,0,,,57,0
60640,note_on,0,0,3,,,,,,,,,0,,,53,0
60640,note_on,40,0,3,,,,,,,,,0,,,49,0
60640,note_on,0,0,3,,,,,,,,,0,,,49,100
60640,note_on,0,0,3,,,,,,,,,0,,,53,100
60640,note_on,0,0,3,,,,,,,,,0,,,57,100
60640,note_on,40,0,1,,,,,,,,,0,,,73,0
60640,note_on,0,0,1,,,,,,,,,0,,,61,0
60640,note_on,0,0,1,,,,,,,,,0,,,63,100
60640,note_on,0,0,1,,,,,,,,,0,,,75,100
60680,note_on,0,0,3,,,,,,,,,0,,,53,0
60680,note_on,0,0,3,,,,,,,,,0,,,57,100
60680,note_on,0,0,3,,,,,,,,,0,,,57,0
60680,note_on,40,0,3,,,,,,,,,0,,,49,0
60680,note_on,0,0,3,,,,,,,,,0,,,53,100
60680,note_on,40,0,1,,,,,,,,,0,,,75,0
60680,note_on,0,0,1,,,,,,,,,0,,,61,100
60680,note_on,0,0,1,,,,,,,,,0,,,73,100
60680,note_on,0,0,1,,,,,,,,,0,,,63,0
60680,note_on,0,0,3,,,,,,,,,0,,,49,100
60705,control_change,225,0,4,,,,,,,,,0,64,0,,
60720,note_on,40,0,3,,,,,,,,,0,,,49,0
60720,note_on,0,0,3,,,,,,,,,0,,,53,0
60720,note_on,0,0,3,,,,,,,,,0,,,57,0
60720,note_on,0,0,3,,,,,,,,,0,,,42,110
60720,control_change,15,0,4,,,,,,,,,0,64,127,,
60720,note_on,0,0,1,,,,,,,,,0,,,61,0
60720,note_on,0,0,1,,,,,,,,,0,,,61,100
60720,note_on,0,0,1,,,,,,,,,0,,,73,100
60720,note_on,40,0,1,,,,,,,,,0,,,73,0
60760,note_on,40,0,3,,,,,,,,,0,,,42,0
60760,note_on,0,0,3,,,,,,,,,0,,,58,120
60760,note_on,0,0,3,,,,,,,,,0,,,54,120
60760,note_on,0,0,3,,,,,,,,,0,,,49,120
60800,note_on,40,0,3,,,,,,,,,0,,,49,0
60800,note_on,0,0,3,,,,,,,,,0,,,58,100
60800,note_on,0,0,3,,,,,,,,,0,,,58,0
60800,note_on,0,0,3,,,,,,,,,0,,,54,100
60800,note_on,0,0,3,,,,,,,,,0,,,49,100
60800,note_on,0,0,3,,,,,,,,,0,,,54,0
60825,control_change,105,0,4,,,,,,,,,0,64,0,,
60840,note_on,0,0,3,,,,,,,,,0,,,58,0
60840,note_on,0,0,3,,,,,,,,,0,,,38,110
60840,note_on,120,0,1,,,,,,,,,0,,,73,0
60840,note_on,0,0,1,,,,,,,,,0,,,61,0
60840,note_on,0,0,1,,,,,,,,,0,,,58,100
60840,note_on,0,0,1,,,,,,,,,0,,,70,100
60840,note_on,0,0,3,,,,,,,,,0,,,54,0
60840,control_change,15,0,4,,,,,,,,,0,64,127,,
60840,note_on,40,0,3,,,,,,,,,0,,,49,0
60880,note_on,40,0,3,,,,,,,,,0,,,38,0
60880,note_on,0,0,3,,,,,,,,,0,,,58,120
60880,note_on,0,0,3,,,,,,,,,0,,,56,120
60880,note_on,0,0,3,,,,,,,,,0,,,53,120
60880,note_on,0,0,3,,,,,,,,,0,,,50,120
60920,note_on,0,0,3,,,,,,,,,0,,,56,0
60920,note_on,0,0,3,,,,,,,,,0,,,50,100
60920,note_on,40,0,3,,,,,,,,,0,,,50,0
60920,note_on,0,0,3,,,,,,,,,0,,,58,0
60920,note_on,0,0,3,,,,,,,,,0,,,53,0
60920,note_on,0,0,3,,,,,,,,,0,,,58,100
60920,note_on,0,0,3,,,,,,,,,0,,,56,100
60920,note_on,0,0,3,,,,,,,,,0,,,53,100
60930,note_on,0,0,1,,,,,,,,,0,,,82,100
60930,note_on,0,0,1,,,,,,,,,0,,,58,0
60930,note_on,90,0,1,,,,,,,,,0,,,70,0
60930,note_on,0,0,1,,,,,,,,,0,,,70,100
60945,control_change,105,0,4,,,,,,,,,0,64,0,,
60960,note_on,30,0,1,,,,,,,,,0,,,82,0
60960,note_on,0,0,1,,,,,,,,,0,,,70,0
60960,note_on,0,0,1,,,,,,,,,0,,,70,100
60960,note_on,0,0,1,,,,,,,,,0,,,82,100
60960,note_on,40,0,3,,,,,,,,,0,,,50,0
60960,control_change,15,0,4,,,,,,,,,0,64,127,,
60960,note_on,0,0,3,,,,,,,,,0,,,58,0
60960,note_on,0,0,3,,,,,,,,,0,,,39,110
60960,note_on,0,0,3,,,,,,,,,0,,,53,0
60960,note_on,0,0,3,,,,,,,,,0,,,56,0
61000,note_on,0,0,3,,,,,,,,,0,,,51,120
61000,note_on,0,0,3,,,,,,,,,0,,,54,120
61000,note_on,0,0,3,,,,,,,,,0,,,58,120
61000,note_on,40,0,3,,,,,,,,,0,,,39,0
61040,note_on,0,0,3,,,,,,,,,0,,,59,100
61040,note_on,0,0,3,,,,,,,,,0,,,58,0
61040,note_on,0,0,3,,,,,,,,,0,,,54,0
61040,note_on,40,0,3,,,,,,,,,0,,,51,0
61040,note_on,0,0,3,,,,,,,,,0,,,51,100
61040,note_on,0,0,3,,,,,,,,,0,,,54,100
61050,note_on,0,0,1,,,,,,,,,0,,,70,0
61050,note_on,0,0,1,,,,,,,,,0,,,71,100
61050,note_on,0,0,1,,,,,,,,,0,,,83,100
61050,note_on,90,0,1,,,,,,,,,0,,,82,0
61065,control_change,105,0,4,,,,,,,,,0,64,0,,
61080,note_on,40,0,3,,,,,,,,,0,,,51,0
61080,control_change,15,0,4,,,,,,,,,0,64,127,,
61080,note_on,0,0,3,,,,,,,,,0,,,59,0
61080,note_on,0,0,3,,,,,,,,,0,,,40,110
61080,note_on,0,0,3,,,,,,,,,0,,,54,0
61120,note_on,70,0,1,,,,,,,,,0,,,83,0
61120,note_on,0,0,1,,,,,,,,,0,,,71,0
61120,note_on,0,0,1,,,,,,,,,0,,,72,100
61120,note_on,0,0,1,,,,,,,,,0,,,84,100
61120,note_on,0,0,3,,,,,,,,,0,,,58,120
61120,note_on,0,0,3,,,,,,,,,0,,,55,120
61120,note_on,40,0,3,,,,,,,,,0,,,40,0
61120,note_on,0,0,3,,,,,,,,,0,,,52,120
61120,note_on,0,0,3,,,,,,,,,0,,,60,120
61160,note_on,40,0,3,,,,,,,,,0,,,52,0
61160,note_on,0,0,3,,,,,,,,,0,,,60,0
61160,note_on,0,0,1,,,,,,,,,0,,,85,100
61160,note_on,0,0,1,,,,,,,,,0,,,73,100
61160,note_on,0,0,1,,,,,,,,,0,,,72,0
61160,note_on,40,0,1,,,,,,,,,0,,,84,0
61160,note_on,0,0,3,,,,,,,,,0,,,58,0
61160,note_on,0,0,3,,,,,,,,,0,,,55,0
61160,note_on,0,0,3,,,,,,,,,0,,,61,100
61160,note_on,0,0,3,,,,,,,,,0,,,58,100
61160,note_on,0,0,3,,,,,,,,,0,,,52,100
61160,note_on,0,0,3,,,,,,,,,0,,,55,100
61185,note_on,25,0,1,,,,,,,,,0,,,85,100
61185,control_change,105,0,4,,,,,,,,,0,64,0,,
61200,note_on,0,0,1,,,,,,,,,0,,,73,0
61200,note_on,0,0,1,,,,,,,,,0,,,85,0
61200,note_on,0,0,1,,,,,,,,,0,,,77,100
61200,note_on,0,0,1,,,,,,,,,0,,,89,100
61200,note_on,0,0,3,,,,,,,,,0,,,41,110
61200,note_on,0,0,3,,,,,,,,,0,,,55,0
61200,note_on,0,0,3,,,,,,,,,0,,,58,0
61200,note_on,0,0,3,,,,,,,,,0,,,61,0
61200,control_change,15,0,4,,,,,,,,,0,64,127,,
61200,note_on,15,0,1,,,,,,,,,0,,,85,0
61200,note_on,40,0,3,,,,,,,,,0,,,52,0
61240,note_on,0,0,3,,,,,,,,,0,,,61,107
61240,note_on,0,0,3,,,,,,,,,0,,,58,107
61240,note_on,0,0,3,,,,,,,,,0,,,53,107
61240,note_on,40,0,3,,,,,,,,,0,,,41,0
61280,note_on,40,0,3,,,,,,,,,0,,,53,0
61280,note_on,0,0,3,,,,,,,,,0,,,58,0
61280,note_on,0,0,3,,,,,,,,,0,,,61,0
61280,note_on,0,0,3,,,,,,,,,0,,,61,74
61280,note_on,0,0,3,,,,,,,,,0,,,58,74
61280,note_on,0,0,3,,,,,,,,,0,,,53,74
61290,note_on,0,0,1,,,,,,,,,0,,,85,71
61290,note_on,90,0,1,,,,,,,,,0,,,89,0
61290,note_on,0,0,1,,,,,,,,,0,,,77,0
61290,note_on,0,0,1,,,,,,,,,0,,,73,71
61320,note_on,0,0,1,,,,,,,,,0,,,73,0
61320,note_on,0,0,1,,,,,,,,,0,,,72,61
61320,note_on,0,0,1,,,,,,,,,0,,,84,61
61320,note_on,0,0,3,,,,,,,,,0,,,53,61
61320,note_on,0,0,3,,,,,,,,,0,,,57,61
61320,note_on,0,0,3,,,,,,,,,0,,,60,61
61320,note_on,0,0,3,,,,,,,,,0,,,61,0
61320,note_on,0,0,3,,,,,,,,,0,,,58,0
61320,note_on,40,0,3,,,,,,,,,0,,,53,0
61320,note_on,30,0,1,,,,,,,,,0,,,85,0
61360,note_on,40,0,3,,,,,,,,,0,,,53,0
61360,note_on,0,0,3,,,,,,,,,0,,,57,0
61360,note_on,0,0,3,,,,,,,,,0,,,60,0
61360,note_on,0,0,3,,,,,,,,,0,,,60,47
61360,note_on,0,0,3,,,,,,,,,0,,,53,47
61360,note_on,0,0,3,,,,,,,,,0,,,57,47
61380,note_on,0,0,1,,,,,,,,,0,,,72,0
61380,note_on,60,0,1,,,,,,,,,0,,,84,0
61400,note_on,0,0,3,,,,,,,,,0,,,60,0
61400,note_on,0,0,3,,,,,,,,,0,,,57,40
61400,note_on,0,0,3,,,,,,,,,0,,,60,40
61400,note_on,0,0,3,,,,,,,,,0,,,57,0
61400,note_on,40,0,3,,,,,,,,,0,,,53,0
61400,note_on,0,0,3,,,,,,,,,0,,,53,40
61425,control_change,225,0,4,,,,,,,,,0,64,0,,
61440,note_on,0,0,3,,,,,,,,,0,,,57,0
61440,control_change,15,0,4,,,,,,,,,0,64,127,,
61440,note_on,0,0,3,,,,,,,,,0,,,45,50
61440,note_on,0,0,3,,,,,,,,,0,,,60,0
61440,note_on,40,0,3,,,,,,,,,0,,,53,0
61440,note_on,0,0,1,,,,,,,,,0,,,72,40
61440,note_on,60,0,1,,,,,,,,,0,,,60,40
61480,note_on,0,0,3,,,,,,,,,0,,,53,60
61480,note_on,40,0,3,,,,,,,,,0,,,45,0
61480,note_on,0,0,3,,,,,,,,,0,,,57,60
61480,note_on,0,0,3,,,,,,,,,0,,,60,60
61500,note_on,0,0,1,,,,,,,,,0,,,77,40
61500,note_on,0,0,1,,,,,,,,,0,,,65,40
61500,note_on,0,0,1,,,,,,,,,0,,,60,0
61500,note_on,60,0,1,,,,,,,,,0,,,72,0
61520,note_on,40,0,3,,,,,,,,,0,,,57,0
61520,note_on,0,0,3,,,,,,,,,0,,,53,0
61520,note_on,0,0,3,,,,,,,,,0,,,60,0
61520,note_on,0,0,3,,,,,,,,,0,,,57,40
61520,note_on,0,0,3,,,,,,,,,0,,,60,40
61520,note_on,0,0,3,,,,,,,,,0,,,52,40
61560,note_on,40,0,3,,,,,,,,,0,,,57,0
61560,note_on,0,0,3,,,,,,,,,0,,,60,0
61560,note_on,0,0,3,,,,,,,,,0,,,52,0
61560,note_on,0,0,1,,,,,,,,,0,,,65,0
61560,note_on,0,0,3,,,,,,,,,0,,,60,40
61560,note_on,0,0,3,,,,,,,,,0,,,53,40
61560,note_on,0,0,1,,,,,,,,,0,,,81,40
61560,note_on,0,0,1,,,,,,,,,0,,,69,40
61560,note_on,60,0,1,,,,,,,,,0,,,77,0
61560,note_on,0,0,3,,,,,,,,,0,,,57,40
61600,note_on,40,0,3,,,,,,,,,0,,,53,0
61600,note_on,0,0,3,,,,,,,,,0,,,57,0
61600,note_on,0,0,3,,,,,,,,,0,,,60,0
61600,note_on,0,0,3,,,,,,,,,0,,,62,40
61600,note_on,0,0,3,,,,,,,,,0,,,57,40
61600,note_on,0,0,3,,,,,,,,,0,,,53,40
61620,note_on,0,0,1,,,,,,,,,0,,,84,40
61620,note_on,0,0,1,,,,,,,,,0,,,72,40
61620,note_on,0,0,1,,,,,,,,,0,,,69,0
61620,note_on,60,0,1,,,,,,,,,0,,,81,0
61640,note_on,0,0,3,,,,,,,,,0,,,60,40
61640,note_on,40,0,3,,,,,,,,,0,,,53,0
61640,note_on,0,0,3,,,,,,,,,0,,,57,0
61640,note_on,0,0,3,,,,,,,,,0,,,62,0
61640,note_on,0,0,3,,,,,,,,,0,,,57,40
61640,note_on,0,0,3,,,,,,,,,0,,,53,40
61665,control_change,225,0,4,,,,,,,,,0,64,0,,
61680,note_on,0,0,3,,,,,,,,,0,,,46,50
61680,note_on,0,0,3,,,,,,,,,0,,,60,0
61680,note_on,0,0,3,,,,,,,,,0,,,57,0
61680,control_change,15,0,4,,,,,,,,,0,64,127,,
61680,note_on,0,0,1,,,,,,,,,0,,,72,40
61680,note_on,0,0,1,,,,,,,,,0,,,84,40
61680,note_on,60,0,1,,,,,,,,,0,,,84,0
61680,note_on,40,0,3,,,,,,,,,0,,,53,0
61680,note_on,0,0,1,,,,,,,,,0,,,72,0
61720,note_on,40,0,3,,,,,,,,,0,,,46,0
61720,note_on,0,0,3,,,,,,,,,0,,,57,60
61720,note_on,0,0,3,,,,,,,,,0,,,63,60
61720,note_on,0,0,3,,,,,,,,,0,,,54,60
61760,note_on,40,0,3,,,,,,,,,0,,,54,0
61760,note_on,0,0,3,,,,,,,,,0,,,57,0
61760,note_on,0,0,3,,,,,,,,,0,,,63,0
61760,note_on,0,0,3,,,,,,,,,0,,,62,40
61760,note_on,0,0,3,,,,,,,,,0,,,57,40
61760,note_on,0,0,3,,,,,,,,,0,,,54,40
61800,note_on,0,0,1,,,,,,,,,0,,,70,40
61800,note_on,120,0,1,,,,,,,,,0,,,84,0
61800,note_on,0,0,1,,,,,,,,,0,,,72,0
61800,note_on,0,0,1,,,,,,,,,0,,,82,40
61800,note_on,0,0,3,,,,,,,,,0,,,57,0
61800,note_on,0,0,3,,,,,,,,,0,,,55,40
61800,note_on,0,0,3,,,,,,,,,0,,,62,40
61800,note_on,0,0,3,,,,,,,,,0,,,58,40
61800,note_on,0,0,3,,,,,,,,,0,,,62,0
61800,note_on,40,0,3,,,,,,,,,0,,,54,0
61840,note_on,0,0,3,,,,,,,,,0,,,55,0
61840,note_on,0,0,3,,,,,,,,,0,,,58,0
61840,note_on,40,0,3,,,,,,,,,0,,,62,0
61840,note_on,0,0,1,,,,,,,,,0,,,81,40
61840,note_on,0,0,3,,,,,,,,,0,,,60,40
61840,note_on,0,0,3,,,,,,,,,0,,,62,40
61840,note_on,40,0,1,,,,,,,,,0,,,82,0
61840,note_on,0,0,1,,,,,,,,,0,,,70,0
61840,note_on,0,0,3,,,,,,,,,0,,,57,40
61840,note_on,0,0,1,,,,,,,,,0,,,69,40
61880,note_on,0,0,3,,,,,,,,,0,,,57,0
61880,note_on,40,0,3,,,,,,,,,0,,,62,0
61880,note_on,0,0,3,,,,,,,,,0,,,60,0
61880,note_on,0,0,1,,,,,,,,,0,,,69,0
61880,note_on,40,0,1,,,,,,,,,0,,,81,0
61880,note_on,0,0,1,,,,,,,,,0,,,67,40
61880,note_on,0,0,1,,,,,,,,,0,,,79,40
61880,note_on,0,0,3,,,,,,,,,0,,,58,40
61880,note_on,0,0,3,,,,,,,,,0,,,62,40
61905,control_change,225,0,4,,,,,,,,,0,64,0,,
61920,note_on,0,0,1,,,,,,,,,0,,,66,40
61920,note_on,40,0,1,,,,,,,,,0,,,79,0
61920,control_change,15,0,4,,,,,,,,,0,64,127,,
61920,note_on,0,0,3,,,,,,,,,0,,,58,0
61920,note_on,0,0,3,,,,,,,,,0,,,48,50
61920,note_on,40,0,3,,,,,,,,,0,,,62,0
61920,note_on,0,0,1,,,,,,,,,0,,,78,40
61920,note_on,0,0,1,,,,,,,,,0,,,67,0
61960,note_on,0,0,3,,,,,,,,,0,,,57,60
61960,note_on,0,0,1,,,,,,,,,0,,,81,40
61960,note_on,0,0,3,,,,,,,,,0,,,60,60
61960,note_on,0,0,1,,,,,,,,,0,,,66,0
61960,note_on,40,0,1,,,,,,,,,0,,,78,0
61960,note_on,40,0,3,,,,,,,,,0,,,48,0
61960,note_on,0,0,1,,,,,,,,,0,,,69,40
62000,note_on,0,0,3,,,,,,,,,0,,,57,40
62000,note_on,40,0,3,,,,,,,,,0,,,57,0
62000,note_on,0,0,3,,,,,,,,,0,,,60,0
62000,note_on,0,0,3,,,,,,,,,0,,,60,40
62000,note_on,0,0,1,,,,,,,,,0,,,77,40
62000,note_on,0,0,1,,,,,,,,,0,,,65,40
62000,note_on,40,0,1,,,,,,,,,0,,,81,0
62000,note_on,0,0,1,,,,,,,,,0,,,69,0
62025,control_change,105,0,4,,,,,,,,,0,64,0,,
62040,note_on,0,0,1,,,,,,,,,0,,,77,40
62040,note_on,0,0,1,,,,,,,,,0,,,65,40
62040,control_change,15,0,4,,,,,,,,,0,64,127,,
62040,note_on,40,0,1,,,,,,,,,0,,,77,0
62040,note_on,40,0,3,,,,,,,,,0,,,57,0
62040,note_on,0,0,3,,,,,,,,,0,,,60,0
62040,note_on,0,0,3,,,,,,,,,0,,,48,50
62040,note_on,0,0,1,,,,,,,,,0,,,65,0
62080,note_on,0,0,3,,,,,,,,,0,,,55,60
62080,note_on,0,0,3,,,,,,,,,0,,,58,60
62080,note_on,0,0,3,,,,,,,,,0,,,60,60
62080,note_on,40,0,3,,,,,,,,,0,,,48,0
62080,note_on,0,0,1,,,,,,,,,0,,,78,40
62080,note_on,0,0,1,,,,,,,,,0,,,66,40
62080,note_on,0,0,1,,,,,,,,,0,,,65,0
62080,note_on,40,0,1,,,,,,,,,0,,,77,0
62120,note_on,40,0,1,,,,,,,,,0,,,78,0
62120,note_on,0,0,1,,,,,,,,,0,,,76,40
62120,note_on,40,0,3,,,,,,,,,0,,,55,0
62120,note_on,0,0,1,,,,,,,,,0,,,64,40
62120,note_on,0,0,1,,,,,,,,,0,,,66,0
62120,note_on,0,0,3,,,,,,,,,0,,,55,40
62120,note_on,0,0,3,,,,,,,,,0,,,58,40
62120,note_on,0,0,3,,,,,,,,,0,,,60,40
62120,note_on,0,0,3,,,,,,,,,0,,,60,0
62120,note_on,0,0,3,,,,,,,,,0,,,58,0
62145,control_change,105,0,4,,,,,,,,,0,64,0,,
62160,note_on,0,0,1,,,,,,,,,0,,,65,40
62160,note_on,40,0,1,,,,,,,,,0,,,76,0
62160,note_on,0,0,1,,,,,,,,,0,,,64,0
62160,note_on,0,0,3,,,,,,,,,0,,,60,0
62160,note_on,0,0,3,,,,,,,,,0,,,58,0
62160,note_on,40,0,3,,,,,,,,,0,,,55,0
62160,note_on,0,0,1,,,,,,,,,0,,,77,40
62160,note_on,0,0,3,,,,,,,,,0,,,41,50
62160,control_change,15,0,4,,,,,,,,,0,64,127,,
62200,note_on,0,0,3,,,,,,,,,0,,,57,60
62200,note_on,0,0,3,,,,,,,,,0,,,60,60
62200,note_on,0,0,3,,,,,,,,,0,,,53,60
62200,note_on,40,0,3,,,,,,,,,0,,,41,0
62240,note_on,0,0,3,,,,,,,,,0,,,60,0
62240,note_on,0,0,3,,,,,,,,,0,,,57,0
62240,note_on,40,0,3,,,,,,,,,0,,,53,0
62240,note_on,0,0,3,,,,,,,,,0,,,53,40
62265,control_change,105,0,4,,,,,,,,,0,64,0,,
62280,note_on,0,0,3,,,,,,,,,0,,,53,40
62280,note_on,0,0,3,,,,,,,,,0,,,51,40
62280,control_change,15,0,4,,,,,,,,,0,64,127,,
62280,note_on,120,0,1,,,,,,,,,0,,,77,0
62280,note_on,0,0,1,,,,,,,,,0,,,65,0
62280,note_on,0,0,1,,,,,,,,,0,,,63,40
62280,note_on,0,0,1,,,,,,,,,0,,,75,40
62280,note_on,40,0,3,,,,,,,,,0,,,53,0
62320,note_on,40,0,3,,,,,,,,,0,,,53,0
62320,note_on,0,0,3,,,,,,,,,0,,,51,0
62320,note_on,0,0,3,,,,,,,,,0,,,49,79
62320,note_on,0,0,3,,,,,,,,,0,,,53,79
62320,note_on,0,0,1,,,,,,,,,0,,,63,0
62320,note_on,0,0,1,,,,,,,,,0,,,61,79
62320,note_on,40,0,1,,,,,,,,,0,,,75,0
62320,note_on,0,0,1,,,,,,,,,0,,,73,79
62360,note_on,40,0,1,,,,,,,,,0,,,73,0
62360,note_on,0,0,3,,,,,,,,,0,,,53,100
62360,note_on,0,0,3,,,,,,,,,0,,,48,100
62360,note_on,0,0,3,,,,,,,,,0,,,49,0
62360,note_on,40,0,3,,,,,,,,,0,,,53,0
62360,note_on,0,0,1,,,,,,,,,0,,,72,100
62360,note_on,0,0,1,,,,,,,,,0,,,60,100
62360,note_on,0,0,1,,,,,,,,,0,,,61,0
62385,control_change,105,0,4,,,,,,,,,0,64,0,,
62400,note_on,0,0,1,,,,,,,,,0,,,60,0
62400,note_on,0,0,1,,,,,,,,,0,,,72,100
62400,note_on,0,0,3,,,,,,,,,0,,,30,110
62400,note_on,40,0,3,,,,,,,,,0,,,53,0
62400,note_on,0,0,3,,,,,,,,,0,,,48,0
62400,note_on,0,0,3,,,,,,,,,0,,,42,110
62400,control_change,15,0,4,,,,,,,,,0,64,127,,
62400,note_on,0,0,1,,,,,,,,,0,,,60,100
62400,note_on,40,0,1,,,,,,,,,0,,,72,0
62440,note_on,0,0,3,,,,,,,,,0,,,49,120
62440,note_on,0,0,3,,,,,,,,,0,,,42,120
62440,note_on,0,0,3,,,,,,,,,0,,,46,120
62440,note_on,0,0,3,,,,,,,,,0,,,42,0
62440,note_on,40,0,3,,,,,,,,,0,,,30,0
62480,note_on,0,0,3,,,,,,,,,0,,,42,100
62480,note_on,0,0,3,,,,,,,,,0,,,46,100
62480,note_on,0,0,3,,,,,,,,,0,,,48,100
62480,note_on,0,0,3,,,,,,,,,0,,,49,0
62480,note_on,0,0,3,,,,,,,,,0,,,46,0
62480,note_on,40,0,3,,,,,,,,,0,,,42,0
62520,note_on,120,0,1,,,,,,,,,0,,,72,0
62520,note_on,0,0,1,,,,,,,,,0,,,60,0
62520,note_on,0,0,1,,,,,,,,,0,,,58,100
62520,note_on,0,0,1,,,,,,,,,0,,,70,100
62520,note_on,0,0,3,,,,,,,,,0,,,46,0
62520,note_on,40,0,3,,,,,,,,,0,,,42,0
62520,note_on,0,0,3,,,,,,,,,0,,,48,0
62520,note_on,0,0,3,,,,,,,,,0,,,49,100
62520,note_on,0,0,3,,,,,,,,,0,,,46,100
62520,note_on,0,0,3,,,,,,,,,0,,,42,100
62560,note_on,0,0,3,,,,,,,,,0,,,49,0
62560,note_on,0,0,3,,,,,,,,,0,,,51,100
62560,note_on,0,0,3,,,,,,,,,0,,,46,100
62560,note_on,0,0,3,,,,,,,,,0,,,42,100
62560,note_on,40,0,3,,,,,,,,,0,,,42,0
62560,note_on,0,0,3,,,,,,,,,0,,,46,0
62580,note_on,60,0,1,,,,,,,,,0,,,70,0
62580,note_on,0,0,1,,,,,,,,,0,,,58,0
62580,note_on,0,0,1,,,,,,,,,0,,,58,100
62580,note_on,0,0,1,,,,,,,,,0,,,70,100
62600,note_on,0,0,3,,,,,,,,,0,,,49,100
62600,note_on,0,0,3,,,,,,,,,0,,,46,100
62600,note_on,40,0,3,,,,,,,,,0,,,42,0
62600,note_on,0,0,3,,,,,,,,,0,,,46,0
62600,note_on,0,0,3,,,,,,,,,0,,,51,0
62600,note_on,0,0,3,,,,,,,,,0,,,42,100
62625,control_change,225,0,4,,,,,,,,,0,64,0,,
62640,control_change,15,0,4,,,,,,,,,0,64,127,,
62640,note_on,0,0,3,,,,,,,,,0,,,49,0
62640,note_on,0,0,3,,,,,,,,,0,,,29,110
62640,note_on,60,0,1,,,,,,,,,0,,,70,0
62640,note_on,0,0,1,,,,,,,,,0,,,58,0
62640,note_on,0,0,1,,,,,,,,,0,,,60,100
62640,note_on,0,0,1,,,,,,,,,0,,,72,100
62640,note_on,0,0,3,,,,,,,,,0,,,46,0
62640,note_on,0,0,3,,,,,,,,,0,,,41,110
62640,note_on,40,0,3,,,,,,,,,0,,,42,0
62680,note_on,0,0,3,,,,,,,,,0,,,29,0
62680,note_on,0,0,3,,,,,,,,,0,,,49,120
62680,note_on,0,0,3,,,,,,,,,0,,,46,120
62680,note_on,0,0,3,,,,,,,,,0,,,41,120
62680,note_on,40,0,3,,,,,,,,,0,,,41,0
62720,note_on,0,0,3,,,,,,,,,0,,,48,100
62720,note_on,0,0,3,,,,,,,,,0,,,49,0
62720,note_on,0,0,3,,,,,,,,,0,,,46,100
62720,note_on,0,0,3,,,,,,,,,0,,,41,100
62720,note_on,0,0,3,,,,,,,,,0,,,46,0
62720,note_on,40,0,3,,,,,,,,,0,,,41,0
62760,note_on,0,0,1,,,,,,,,,0,,,60,0
62760,note_on,0,0,1,,,,,,,,,0,,,58,100
62760,note_on,0,0,1,,,,,,,,,0,,,70,100
62760,note_on,120,0,1,,,,,,,,,0,,,72,0
62760,note_on,0,0,3,,,,,,,,,0,,,46,100
62760,note_on,0,0,3,,,,,,,,,0,,,49,100
62760,note_on,0,0,3,,,,,,,,,0,,,48,0
62760,note_on,0,0,3,,,,,,,,,0,,,46,0
62760,note_on,40,0,3,,,,,,,,,0,,,41,0
62760,note_on,0,0,3,,,,,,,,,0,,,41,100
62800,note_on,40,0,3,,,,,,,,,0,,,41,0
62800,note_on,0,0,3,,,,,,,,,0,,,46,0
62800,note_on,0,0,3,,,,,,,,,0,,,51,100
62800,note_on,0,0,3,,,,,,,,,0,,,46,100
62800,note_on,0,0,3,,,,,,,,,0,,,41,100
62800,note_on,0,0,3,,,,,,,,,0,,,49,0
62820,note_on,0,0,1,,,,,,,,,0,,,58,100
62820,note_on,0,0,1,,,,,,,,,0,,,58,0
62820,note_on,60,0,1,,,,,,,,,0,,,70,0
62820,note_on,0,0,1,,,,,,,,,0,,,70,100
62840,note_on,0,0,3,,,,,,,,,0,,,41,100
62840,note_on,0,0,3,,,,,,,,,0,,,46,100
62840,note_on,0,0,3,,,,,,,,,0,,,49,100
62840,note_on,0,0,3,,,,,,,,,0,,,51,0
62840,note_on,0,0,3,,,,,,,,,0,,,46,0
62840,note_on,40,0,3,,,,,,,,,0,,,41,0
62865,control_change,225,0,4,,,,,,,,,0,64,0,,
62880,note_on,40,0,3,,,,,,,,,0,,,41,0
62880,note_on,0,0,1,,,,,,,,,0,,,58,0
62880,note_on,0,0,1,,,,,,,,,0,,,59,100
62880,note_on,0,0,1,,,,,,,,,0,,,71,100
62880,note_on,0,0,3,,,,,,,,,0,,,38,110
62880,note_on,0,0,3,,,,,,,,,0,,,49,0
62880,note_on,0,0,3,,,,,,,,,0,,,46,0
62880,control_change,15,0,4,,,,,,,,,0,64,127,,
62880,note_on,60,0,1,,,,,,,,,0,,,70,0
62920,note_on,40,0,1,,,,,,,,,0,,,71,0
62920,note_on,0,0,1,,,,,,,,,0,,,70,100
62920,note_on,0,0,1,,,,,,,,,0,,,58,100
62920,note_on,0,0,1,,,,,,,,,0,,,59,0
62920,note_on,40,0,3,,,,,,,,,0,,,38,0
62920,note_on,0,0,3,,,,,,,,,0,,,53,120
62920,note_on,0,0,3,,,,,,,,,0,,,50,120
62920,note_on,0,0,3,,,,,,,,,0,,,56,120
62960,note_on,40,0,3,,,,,,,,,0,,,50,0
62960,note_on,40,0,1,,,,,,,,,0,,,70,0
62960,note_on,0,0,1,,,,,,,,,0,,,58,0
62960,note_on,0,0,1,,,,,,,,,0,,,62,100
62960,note_on,0,0,1,,,,,,,,,0,,,74,100
62960,note_on,0,0,3,,,,,,,,,0,,,53,0
62960,note_on,0,0,3,,,,,,,,,0,,,56,0
62960,note_on,0,0,3,,,,,,,,,0,,,57,100
62960,note_on,0,0,3,,,,,,,,,0,,,53,100
62960,note_on,0,0,3,,,,,,,,,0,,,50,100
63000,note_on,40,0,3,,,,,,,,,0,,,50,0
63000,note_on,0,0,3,,,,,,,,,0,,,53,0
63000,note_on,0,0,3,,,,,,,,,0,,,53,100
63000,note_on,0,0,3,,,,,,,,,0,,,58,100
63000,note_on,0,0,3,,,,,,,,,0,,,50,100
63000,note_on,0,0,1,,,,,,,,,0,,,65,100
63000,note_on,0,0,1,,,,,,,,,0,,,77,100
63000,note_on,0,0,1,,,,,,,,,0,,,62,0
63000,note_on,40,0,1,,,,,,,,,0,,,74,0
63000,note_on,0,0,3,,,,,,,,,0,,,57,0
63040,note_on,0,0,1,,,,,,,,,0,,,77,0
63040,note_on,40,0,1,,,,,,,,,0,,,65,0
63040,note_on,0,0,1,,,,,,,,,0,,,80,100
63040,note_on,0,0,1,,,,,,,,,0,,,68,100
63040,note_on,0,0,3,,,,,,,,,0,,,53,100
63040,note_on,0,0,3,,,,,,,,,0,,,50,100
63040,note_on,0,0,3,,,,,,,,,0,,,58,0
63040,note_on,0,0,3,,,,,,,,,0,,,56,100
63040,note_on,40,0,3,,,,,,,,,0,,,50,0
63040,note_on,0,0,3,,,,,,,,,0,,,53,0
63080,note_on,40,0,3,,,,,,,,,0,,,50,0
63080,note_on,0,0,3,,,,,,,,,0,,,53,0
63080,note_on,0,0,3,,,,,,,,,0,,,56,0
63080,note_on,0,0,3,,,,,,,,,0,,,59,100
63080,note_on,0,0,3,,,,,,,,,0,,,56,100
63080,note_on,0,0,1,,,,,,,,,0,,,80,100
63080,note_on,0,0,1,,,,,,,,,0,,,77,100
63080,note_on,0,0,1,,,,,,,,,0,,,71,100
63080,note_on,40,0,1,,,,,,,,,0,,,68,0
63080,note_on,0,0,1,,,,,,,,,0,,,80,0
63080,note_on,0,0,1,,,,,,,,,0,,,83,100
63080,note_on,0,0,3,,,,,,,,,0,,,53,100
63080,note_on,0,0,3,,,,,,,,,0,,,50,100
63105,control_change,225,0,4,,,,,,,,,0,64,0,,
63120,note_on,0,0,3,,,,,,,,,0,,,59,0
63120,note_on,0,0,1,,,,,,,,,0,,,83,0
63120,note_on,40,0,3,,,,,,,,,0,,,50,0
63120,note_on,0,0,3,,,,,,,,,0,,,56,0
63120,note_on,0,0,3,,,,,,,,,0,,,53,0
63120,note_on,0,0,3,,,,,,,,,0,,,39,110
63120,note_on,40,0,1,,,,,,,,,0,,,71,0
63120,control_change,15,0,4,,,,,,,,,0,64,127,,
63120,note_on,0,0,1,,,,,,,,,0,,,82,100
63120,note_on,0,0,1,,,,,,,,,0,,,80,100
63120,note_on,0,0,1,,,,,,,,,0,,,77,100
63120,note_on,0,0,1,,,,,,,,,0,,,77,0
63120,note_on,0,0,1,,,,,,,,,0,,,80,0
63120,note_on,0,0,1,,,,,,,,,0,,,70,100
63160,note_on,0,0,3,,,,,,,,,0,,,51,113
63160,note_on,0,0,3,,,,,,,,,0,,,58,113
63160,note_on,40,0,3,,,,,,,,,0,,,39,0
63160,note_on,0,0,3,,,,,,,,,0,,,54,113
63200,note_on,0,0,3,,,,,,,,,0,,,58,0
63200,note_on,0,0,3,,,,,,,,,0,,,54,85
63200,note_on,0,0,3,,,,,,,,,0,,,51,85
63200,note_on,0,0,3,,,,,,,,,0,,,57,85
63200,note_on,0,0,3,,,,,,,,,0,,,54,0
63200,note_on,40,0,3,,,,,,,,,0,,,51,0
63240,note_on,0,0,3,,,,,,,,,0,,,57,0
63240,note_on,0,0,3,,,,,,,,,0,,,54,77
63240,note_on,0,0,3,,,,,,,,,0,,,51,77
63240,note_on,0,0,3,,,,,,,,,0,,,54,0
63240,note_on,120,0,1,,,,,,,,,0,,,80,0
63240,note_on,0,0,1,,,,,,,,,0,,,77,0
63240,note_on,0,0,1,,,,,,,,,0,,,78,77
63240,note_on,0,0,3,,,,,,,,,0,,,58,77
63240,note_on,40,0,3,,,,,,,,,0,,,51,0
63240,note_on,0,0,1,,,,,,,,,0,,,75,77
63280,note_on,40,0,3,,,,,,,,,0,,,51,0
63280,note_on,0,0,3,,,,,,,,,0,,,54,0
63280,note_on,0,0,3,,,,,,,,,0,,,58,0
63280,note_on,0,0,3,,,,,,,,,0,,,60,69
63280,note_on,0,0,3,,,,,,,,,0,,,54,69
63280,note_on,0,0,3,,,,,,,,,0,,,51,69
63300,note_on,60,0,1,,,,,,,,,0,,,75,0
63300,note_on,0,0,1,,,,,,,,,0,,,75,65
63300,note_on,0,0,1,,,,,,,,,0,,,63,65
63300,note_on,0,0,1,,,,,,,,,0,,,78,0
63300,note_on,0,0,1,,,,,,,,,0,,,82,0
63300,note_on,0,0,1,,,,,,,,,0,,,70,0
63320,note_on,0,0,3,,,,,,,,,0,,,58,61
63320,note_on,0,0,3,,,,,,,,,0,,,60,0
63320,note_on,0,0,3,,,,,,,,,0,,,54,0
63320,note_on,0,0,3,,,,,,,,,0,,,51,61
63320,note_on,0,0,3,,,,,,,,,0,,,54,61
63320,note_on,40,0,3,,,,,,,,,0,,,51,0
63345,control_change,225,0,4,,,,,,,,,0,64,0,,
63360,note_on,60,0,1,,,,,,,,,0,,,75,0
63360,note_on,0,0,1,,,,,,,,,0,,,63,0
63360,note_on,0,0,1,,,,,,,,,0,,,61,60
63360,note_on,0,0,1,,,,,,,,,0,,,73,60
63360,control_change,15,0,4,,,,,,,,,0,64,127,,
63360,note_on,0,0,3,,,,,,,,,0,,,54,0
63360,note_on,40,0,3,,,,,,,,,0,,,51,0
63360,note_on,0,0,3,,,,,,,,,0,,,42,70
63360,note_on,0,0,3,,,,,,,,,0,,,58,0
63400,note_on,40,0,3,,,,,,,,,0,,,42,0
63400,note_on,0,0,3,,,,,,,,,0,,,58,80
63400,note_on,0,0,3,,,,,,,,,0,,,54,80
63440,note_on,40,0,3,,,,,,,,,0,,,54,0
63440,note_on,0,0,3,,,,,,,,,0,,,58,0
63440,note_on,0,0,3,,,,,,,,,0,,,58,60
63440,note_on,0,0,3,,,,,,,,,0,,,54,60
63450,note_on,0,0,1,,,,,,,,,0,,,72,60
63450,note_on,0,0,1,,,,,,,,,0,,,60,60
63450,note_on,0,0,1,,,,,,,,,0,,,61,0
63450,note_on,90,0,1,,,,,,,,,0,,,73,0
63480,note_on,30,0,1,,,,,,,,,0,,,72,0
63480,note_on,0,0,1,,,,,,,,,0,,,72,60
63480,note_on,0,0,3,,,,,,,,,0,,,54,60
63480,note_on,0,0,1,,,,,,,,,0,,,60,0
63480,note_on,0,0,3,,,,,,,,,0,,,58,60
63480,note_on,0,0,3,,,,,,,,,0,,,58,0
63480,note_on,40,0,3,,,,,,,,,0,,,54,0
63480,note_on,0,0,1,,,,,,,,,0,,,60,60
63520,note_on,0,0,1,,,,,,,,,0,,,60,0
63520,note_on,40,0,1,,,,,,,,,0,,,72,0
63520,note_on,0,0,3,,,,,,,,,0,,,58,60
63520,note_on,0,0,1,,,,,,,,,0,,,61,60
63520,note_on,0,0,3,,,,,,,,,0,,,58,0
63520,note_on,0,0,3,,,,,,,,,0,,,54,60
63520,note_on,40,0,3,,,,,,,,,0,,,54,0
63520,note_on,0,0,1,,,,,,,,,0,,,73,60
63560,note_on,40,0,3,,,,,,,,,0,,,54,0
63560,note_on,0,0,1,,,,,,,,,0,,,75,60
63560,note_on,0,0,1,,,,,,,,,0,,,63,60
63560,note_on,0,0,1,,,,,,,,,0,,,61,0
63560,note_on,40,0,1,,,,,,,,,0,,,73,0
63560,note_on,0,0,3,,,,,,,,,0,,,60,60
63560,note_on,0,0,3,,,,,,,,,0,,,58,60
63560,note_on,0,0,3,,,,,,,,,0,,,54,60
63560,note_on,0,0,3,,,,,,,,,0,,,58,0
63585,note_on,25,0,1,,,,,,,,,0,,,75,60
63585,control_change,225,0,4,,,,,,,,,0,64,0,,
63600,note_on,0,0,3,,,,,,,,,0,,,41,70
63600,control_change,15,0,4,,,,,,,,,0,64,127,,
63600,note_on,0,0,1,,,,,,,,,0,,,63,0
63600,note_on,0,0,1,,,,,,,,,0,,,66,60
63600,note_on,0,0,1,,,,,,,,,0,,,78,60
63600,note_on,0,0,1,,,,,,,,,0,,,75,0
63600,note_on,40,0,3,,,,,,,,,0,,,54,0
63600,note_on,0,0,3,,,,,,,,,0,,,58,0
63600,note_on,0,0,3,,,,,,,,,0,,,60,0
63600,note_on,15,0,1,,,,,,,,,0,,,75,0
63640,note_on,0,0,3,,,,,,,,,0,,,53,80
63640,note_on,40,0,3,,,,,,,,,0,,,41,0
63640,note_on,0,0,3,,,,,,,,,0,,,58,80
63640,note_on,0,0,3,,,,,,,,,0,,,61,80
63680,note_on,0,0,3,,,,,,,,,0,,,61,60
63680,note_on,0,0,3,,,,,,,,,0,,,53,60
63680,note_on,0,0,3,,,,,,,,,0,,,58,60
63680,note_on,40,0,3,,,,,,,,,0,,,53,0
63680,note_on,0,0,3,,,,,,,,,0,,,58,0
63680,note_on,0,0,3,,,,,,,,,0,,,61,0
63690,note_on,0,0,1,,,,,,,,,0,,,66,0
63690,note_on,90,0,1,,,,,,,,,0,,,78,0
63690,note_on,0,0,1,,,,,,,,,0,,,77,60
63690,note_on,0,0,1,,,,,,,,,0,,,65,60
63720,note_on,0,0,3,,,,,,,,,0,,,58,0
63720,note_on,0,0,3,,,,,,,,,0,,,61,0
63720,note_on,0,0,3,,,,,,,,,0,,,58,60
63720,note_on,40,0,3,,,,,,,,,0,,,53,0
63720,note_on,0,0,3,,,,,,,,,0,,,53,60
63720,note_on,0,0,3,,,,,,,,,0,,,61,60
63720,note_on,0,0,1,,,,,,,,,0,,,65,0
63720,note_on,0,0,1,,,,,,,,,0,,,65,60
63720,note_on,0,0,1,,,,,,,,,0,,,77,60
63720,note_on,30,0,1,,,,,,,,,0,,,77,0
63760,note_on,0,0,3,,,,,,,,,0,,,61,0
63760,note_on,0,0,3,,,,,,,,,0,,,61,60
63760,note_on,0,0,3,,,,,,,,,0,,,58,60
63760,note_on,0,0,3,,,,,,,,,0,,,52,60
63760,note_on,0,0,3,,,,,,,,,0,,,58,0
63760,note_on,40,0,3,,,,,,,,,0,,,53,0
63760,note_on,0,0,1,,,,,,,,,0,,,82,60
63760,note_on,0,0,1,,,,,,,,,0,,,70,60
63760,note_on,0,0,1,,,,,,,,,0,,,65,0
63760,note_on,40,0,1,,,,,,,,,0,,,77,0
63800,note_on,0,0,3,,,,,,,,,0,,,61,60
63800,note_on,0,0,3,,,,,,,,,0,,,58,0
63800,note_on,40,0,3,,,,,,,,,0,,,52,0
63800,note_on,0,0,3,,,,,,,,,0,,,53,60
63800,note_on,0,0,3,,,,,,,,,0,,,58,60
63800,note_on,0,0,3,,,,,,,,,0,,,61,0
63800,note_on,40,0,1,,,,,,,,,0,,,82,0
63800,note_on,0,0,1,,,,,,,,,0,,,85,60
63800,note_on,0,0,1,,,,,,,,,0,,,73,60
63800,note_on,0,0,1,,,,,,,,,0,,,70,0
63825,control_change,225,0,4,,,,,,,,,0,64,0,,
63840,note_on,0,0,3,,,,,,,,,0,,,40,70
63840,control_change,15,0,4,,,,,,,,,0,64,127,,
63840,note_on,0,0,1,,,,,,,,,0,,,73,60
63840,note_on,0,0,1,,,,,,,,,0,,,85,60
63840,note_on,0,0,1,,,,,,,,,0,,,73,0
63840,note_on,40,0,1,,,,,,,,,0,,,85,0
63840,note_on,0,0,3,,,,,,,,,0,,,61,0
63840,note_on,40,0,3,,,,,,,,,0,,,53,0
63840,note_on,0,0,3,,,,,,,,,0,,,58,0
63880,note_on,0,0,3,,,,,,,,,0,,,58,80
63880,note_on,0,0,3,,,,,,,,,0,,,55,80
63880,note_on,0,0,3,,,,,,,,,0,,,52,80
63880,note_on,0,0,3,,,,,,,,,0,,,61,80
63880,note_on,40,0,3,,,,,,,,,0,,,40,0
63920,note_on,40,0,3,,,,,,,,,0,,,52,0
63920,note_on,0,0,3,,,,,,,,,0,,,52,60
63920,note_on,0,0,3,,,,,,,,,0,,,55,60
63920,note_on,0,0,3,,,,,,,,,0,,,58,60
63920,note_on,0,0,3,,,,,,,,,0,,,60,60
63920,note_on,0,0,3,,,,,,,,,0,,,55,0
63920,note_on,0,0,3,,,,,,,,,0,,,58,0
63920,note_on,0,0,3,,,,,,,,,0,,,61,0
63930,note_on,0,0,1,,,,,,,,,0,,,85,0
63930,note_on,90,0,1,,,,,,,,,0,,,73,0
63930,note_on,0,0,1,,,,,,,,,0,,,84,60
63930,note_on,0,0,1,,,,,,,,,0,,,72,60
63945,control_change,105,0,4,,,,,,,,,0,64,0,,
63960,note_on,0,0,3,,,,,,,,,0,,,58,0
63960,note_on,0,0,3,,,,,,,,,0,,,60,0
63960,note_on,40,0,3,,,,,,,,,0,,,52,0
63960,note_on,0,0,3,,,,,,,,,0,,,41,70
63960,note_on,0,0,3,,,,,,,,,0,,,55,0
63960,note_on,0,0,1,,,,,,,,,0,,,72,0
63960,note_on,0,0,1,,,,,,,,,0,,,72,60
63960,note_on,30,0,1,,,,,,,,,0,,,84,0
63960,note_on,0,0,1,,,,,,,,,0,,,84,60
63960,control_change,15,0,4,,,,,,,,,0,64,127,,
64000,note_on,0,0,3,,,,,,,,,0,,,66,80
64000,note_on,40,0,3,,,,,,,,,0,,,41,0
64000,note_on,0,0,3,,,,,,,,,0,,,60,80
64000,note_on,0,0,3,,,,,,,,,0,,,53,80
64000,note_on,0,0,3,,,,,,,,,0,,,57,80
64000,note_on,0,0,1,,,,,,,,,0,,,84,0
64000,note_on,0,0,1,,,,,,,,,0,,,87,60
64000,note_on,0,0,1,,,,,,,,,0,,,75,60
64000,note_on,40,0,1,,,,,,,,,0,,,72,0
64040,note_on,40,0,3,,,,,,,,,0,,,53,0
64040,note_on,0,0,3,,,,,,,,,0,,,53,60
64040,note_on,0,0,3,,,,,,,,,0,,,60,60
64040,note_on,0,0,3,,,,,,,,,0,,,63,60
64040,note_on,0,0,3,,,,,,,,,0,,,65,60
64040,note_on,0,0,3,,,,,,,,,0,,,57,0
64040,note_on,0,0,3,,,,,,,,,0,,,66,0
64040,note_on,0,0,3,,,,,,,,,0,,,60,0
64040,note_on,0,0,1,,,,,,,,,0,,,69,60
64040,note_on,0,0,1,,,,,,,,,0,,,81,60
64040,note_on,0,0,1,,,,,,,,,0,,,87,0
64040,note_on,40,0,1,,,,,,,,,0,,,75,0
64065,control_change,105,0,4,,,,,,,,,0,64,0,,
64080,note_on,0,0,1,,,,,,,,,0,,,70,60
64080,note_on,0,0,1,,,,,,,,,0,,,82,60
64080,note_on,0,0,1,,,,,,,,,0,,,81,0
64080,control_change,15,0,4,,,,,,,,,0,64,127,,
64080,note_on,40,0,1,,,,,,,,,0,,,69,0
64080,note_on,40,0,3,,,,,,,,,0,,,53,0
64080,note_on,0,0,3,,,,,,,,,0,,,65,0
64080,note_on,0,0,3,,,,,,,,,0,,,63,0
64080,note_on,0,0,3,,,,,,,,,0,,,60,0
64080,note_on,0,0,3,,,,,,,,,0,,,46,70
64120,note_on,40,0,3,,,,,,,,,0,,,46,0
64120,note_on,0,0,3,,,,,,,,,0,,,61,80
64120,note_on,0,0,3,,,,,,,,,0,,,58,80
64120,note_on,0,0,3,,,,,,,,,0,,,53,80
64160,note_on,0,0,3,,,,,,,,,0,,,60,60
64160,note_on,0,0,3,,,,,,,,,0,,,53,60
64160,note_on,40,0,3,,,,,,,,,0,,,53,0
64160,note_on,0,0,3,,,,,,,,,0,,,57,60
64160,note_on,0,0,3,,,,,,,,,0,,,58,0
64160,note_on,0,0,3,,,,,,,,,0,,,61,0
64200,note_on,0,0,1,,,,,,,,,0,,,82,0
64200,note_on,120,0,1,,,,,,,,,0,,,70,0
64200,note_on,0,0,3,,,,,,,,,0,,,57,0
64200,note_on,0,0,3,,,,,,,,,0,,,53,60
64200,note_on,0,0,3,,,,,,,,,0,,,58,60
64200,note_on,0,0,3,,,,,,,,,0,,,61,60
64200,note_on,0,0,3,,,,,,,,,0,,,60,0
64200,note_on,40,0,3,,,,,,,,,0,,,53,0
64240,note_on,0,0,3,,,,,,,,,0,,,53,60
64240,note_on,0,0,3,,,,,,,,,0,,,65,60
64240,note_on,0,0,3,,,,,,,,,0,,,61,60
64240,note_on,0,0,3,,,,,,,,,0,,,61,0
64240,note_on,0,0,3,,,,,,,,,0,,,58,0
64240,note_on,40,0,3,,,,,,,,,0,,,53,0
64260,note_on,60,0,1,,,,,,,,,0,,,73,60
64280,note_on,40,0,3,,,,,,,,,0,,,53,0
64280,note_on,0,0,3,,,,,,,,,0,,,65,0
64280,note_on,0,0,3,,,,,,,,,0,,,61,0
64280,note_on,0,0,3,,,,,,,,,0,,,61,60
64280,note_on,0,0,3,,,,,,,,,0,,,58,60
64280,note_on,0,0,3,,,,,,,,,0,,,53,60
64305,control_change,225,0,4,,,,,,,,,0,64,0,,
64320,control_change,15,0,4,,,,,,,,,0,64,127,,
64320,note_on,0,0,1,,,,,,,,,0,,,73,60
64320,note_on,40,0,3,,,,,,,,,0,,,53,0
64320,note_on,0,0,3,,,,,,,,,0,,,58,0
64320,note_on,0,0,3,,,,,,,,,0,,,40,70
64320,note_on,0,0,3,,,,,,,,,0,,,61,0
64320,set_tempo,15360,1,0,,,,,,653666,,,,,,,
64320,note_on,60,0,1,,,,,,,,,0,,,73,0
64334,set_tempo,14,1,0,,,,,,655809,,,,,,,
64341,set_tempo,7,1,0,,,,,,657967,,,,,,,
64355,set_tempo,14,1,0,,,,,,660139,,,,,,,
64360,note_on,0,0,3,,,,,,,,,0,,,61,79
64360,note_on,40,0,3,,,,,,,,,0,,,40,0
64360,note_on,0,0,3,,,,,,,,,0,,,52,79
64360,note_on,0,0,3,,,,,,,,,0,,,58,79
64360,note_on,0,0,3,,,,,,,,,0,,,55,79
64362,set_tempo,7,1,0,,,,,,662325,,,,,,,
64369,set_tempo,7,1,0,,,,,,664525,,,,,,,
64383,set_tempo,14,1,0,,,,,,666741,,,,,,,
64390,set_tempo,7,1,0,,,,,,668971,,,,,,,
64400,note_on,0,0,3,,,,,,,,,0,,,58,0
64400,note_on,0,0,3,,,,,,,,,0,,,55,0
64400,note_on,0,0,3,,,,,,,,,0,,,60,57
64400,note_on,0,0,3,,,,,,,,,0,,,58,57
64400,note_on,0,0,3,,,,,,,,,0,,,55,57
64400,note_on,0,0,3,,,,,,,,,0,,,52,57
64400,note_on,0,0,3,,,,,,,,,0,,,61,0
64400,note_on,40,0,3,,,,,,,,,0,,,52,0
64404,set_tempo,14,1,0,,,,,,671216,,,,,,,
64410,note_on,90,0,1,,,,,,,,,0,,,73,0
64410,note_on,0,0,1,,,,,,,,,0,,,72,56
64411,set_tempo,7,1,0,,,,,,673476,,,,,,,
64418,set_tempo,7,1,0,,,,,,675752,,,,,,,
64425,control_change,105,0,4,,,,,,,,,0,64,0,,
64432,set_tempo,14,1,0,,,,,,678043,,,,,,,
64440,control_change,15,0,4,,,,,,,,,0,64,127,,
64440,set_tempo,8,1,0,,,,,,680349,,,,,,,
64440,note_on,40,0,3,,,,,,,,,0,,,52,0
64440,note_on,0,0,3,,,,,,,,,0,,,60,0
64440,note_on,0,0,1,,,,,,,,,0,,,72,55
64440,note_on,0,0,3,,,,,,,,,0,,,58,0
64440,note_on,0,0,3,,,,,,,,,0,,,55,0
64440,note_on,30,0,1,,,,,,,,,0,,,72,0
64440,note_on,0,0,3,,,,,,,,,0,,,41,65
64454,set_tempo,14,1,0,,,,,,682672,,,,,,,
64461,set_tempo,7,1,0,,,,,,685010,,,,,,,
64468,set_tempo,7,1,0,,,,,,687364,,,,,,,
64480,note_on,40,0,1,,,,,,,,,0,,,72,0
64480,note_on,0,0,1,,,,,,,,,0,,,75,53
64480,note_on,0,0,3,,,,,,,,,0,,,60,73
64480,note_on,40,0,3,,,,,,,,,0,,,41,0
64480,note_on,0,0,3,,,,,,,,,0,,,57,73
64480,note_on,0,0,3,,,,,,,,,0,,,53,73
64482,set_tempo,14,1,0,,,,,,689734,,,,,,,
64489,set_tempo,7,1,0,,,,,,692121,,,,,,,
64496,set_tempo,7,1,0,,,,,,694525,,,,,,,
64510,set_tempo,14,1,0,,,,,,696945,,,,,,,
64517,set_tempo,7,1,0,,,,,,699382,,,,,,,
64520,note_on,40,0,1,,,,,,,,,0,,,75,0
64520,note_on,0,0,1,,,,,,,,,0,,,69,51
64520,note_on,0,0,3,,,,,,,,,0,,,53,51
64520,note_on,0,0,3,,,,,,,,,0,,,60,51
64520,note_on,0,0,3,,,,,,,,,0,,,63,51
64520,note_on,0,0,3,,,,,,,,,0,,,60,0
64520,note_on,40,0,3,,,,,,,,,0,,,53,0
64520,note_on,0,0,1,,,,,,,,,0,,,65,51
64520,note_on,0,0,3,,,,,,,,,0,,,57,0
64531,set_tempo,14,1,0,,,,,,701836,,,,,,,
64538,set_tempo,7,1,0,,,,,,704308,,,,,,,
64545,set_tempo,7,1,0,,,,,,706797,,,,,,,
64545,control_change,105,0,4,,,,,,,,,0,64,0,,
64560,note_on,0,0,3,,,,,,,,,0,,,46,60
64560,note_on,0,0,3,,,,,,,,,0,,,63,0
64560,note_on,0,0,3,,,,,,,,,0,,,60,0
64560,note_on,40,0,3,,,,,,,,,0,,,53,0
64560,control_change,15,0,4,,,,,,,,,0,64,127,,
64560,note_on,0,0,1,,,,,,,,,0,,,65,50
64560,note_on,0,0,1,,,,,,,,,0,,,70,50
64560,note_on,0,0,1,,,,,,,,,0,,,65,0
64560,note_on,40,0,1,,,,,,,,,0,,,69,0
64560,set_tempo,15,1,0,,,,,,709304,,,,,,,
64567,set_tempo,7,1,0,,,,,,711828,,,,,,,
64581,set_tempo,14,1,0,,,,,,714371,,,,,,,
64588,set_tempo,7,1,0,,,,,,716932,,,,,,,
64595,set_tempo,7,1,0,,,,,,719511,,,,,,,
64600,note_on,0,0,3,,,,,,,,,0,,,53,68
64600,note_on,0,0,3,,,,,,,,,0,,,61,68
64600,note_on,40,0,3,,,,,,,,,0,,,46,0
64600,note_on,0,0,3,,,,,,,,,0,,,58,68
64609,set_tempo,14,1,0,,,,,,722109,,,,,,,
64616,set_tempo,7,1,0,,,,,,724725,,,,,,,
64630,set_tempo,14,1,0,,,,,,727361,,,,,,,
64637,set_tempo,7,1,0,,,,,,730016,,,,,,,
64640,note_on,0,0,3,,,,,,,,,0,,,61,0
64640,note_on,0,0,3,,,,,,,,,0,,,53,46
64640,note_on,0,0,3,,,,,,,,,0,,,57,46
64640,note_on,0,0,3,,,,,,,,,0,,,60,46
64640,note_on,0,0,3,,,,,,,,,0,,,58,0
64640,note_on,40,0,3,,,,,,,,,0,,,53,0
64644,set_tempo,7,1,0,,,,,,732690,,,,,,,
64658,set_tempo,14,1,0,,,,,,735384,,,,,,,
64665,set_tempo,7,1,0,,,,,,738098,,,,,,,
64672,set_tempo,7,1,0,,,,,,740832,,,,,,,
64680,note_on,0,0,1,,,,,,,,,0,,,70,44
64680,note_on,0,0,3,,,,,,,,,0,,,53,44
64680,note_on,0,0,3,,,,,,,,,0,,,57,0
64680,note_on,0,0,1,,,,,,,,,0,,,70,0
64680,note_on,0,0,3,,,,,,,,,0,,,58,44
64680,note_on,0,0,3,,,,,,,,,0,,,61,44
64680,note_on,0,0,3,,,,,,,,,0,,,60,0
64680,note_on,120,0,1,,,,,,,,,0,,,65,0
64680,note_on,40,0,3,,,,,,,,,0,,,53,0
64687,set_tempo,15,1,0,,,,,,743587,,,,,,,
64694,set_tempo,7,1,0,,,,,,746361,,,,,,,
64708,set_tempo,14,1,0,,,,,,749157,,,,,,,
64715,set_tempo,7,1,0,,,,,,751974,,,,,,,
64720,note_on,40,0,3,,,,,,,,,0,,,53,0
64720,note_on,0,0,3,,,,,,,,,0,,,58,0
64720,note_on,0,0,3,,,,,,,,,0,,,61,0
64720,note_on,0,0,3,,,,,,,,,0,,,61,42
64720,note_on,0,0,3,,,,,,,,,0,,,53,42
64720,note_on,0,0,3,,,,,,,,,0,,,65,42
64720,note_on,0,0,1,,,,,,,,,0,,,73,42
64720,note_on,40,0,1,,,,,,,,,0,,,70,0
64722,set_tempo,7,1,0,,,,,,754812,,,,,,,
64736,set_tempo,14,1,0,,,,,,757671,,,,,,,
64743,set_tempo,7,1,0,,,,,,760553,,,,,,,
64757,set_tempo,14,1,0,,,,,,763456,,,,,,,
64760,note_on,40,0,1,,,,,,,,,0,,,73,0
64760,note_on,0,0,1,,,,,,,,,0,,,77,41
64760,note_on,0,0,3,,,,,,,,,0,,,53,41
64760,note_on,0,0,3,,,,,,,,,0,,,58,41
64760,note_on,0,0,3,,,,,,,,,0,,,61,41
64760,note_on,0,0,3,,,,,,,,,0,,,61,0
64760,note_on,0,0,3,,,,,,,,,0,,,65,0
64760,note_on,40,0,3,,,,,,,,,0,,,53,0
64764,set_tempo,7,1,0,,,,,,766381,,,,,,,
64771,set_tempo,7,1,0,,,,,,769329,,,,,,,
64785,set_tempo,14,1,0,,,,,,772300,,,,,,,
64785,control_change,225,0,4,,,,,,,,,0,64,0,,
64792,set_tempo,7,1,0,,,,,,775294,,,,,,,
64800,note_on,40,0,3,,,,,,,,,0,,,53,0
64800,note_on,40,0,1,,,,,,,,,0,,,77,0
64800,note_on,0,0,1,,,,,,,,,0,,,77,40
64800,note_on,0,0,1,,,,,,,,,0,,,73,40
64800,note_on,0,0,3,,,,,,,,,0,,,42,50
64800,control_change,15,0,4,,,,,,,,,0,64,127,,
64800,note_on,0,0,3,,,,,,,,,0,,,61,0
64800,note_on,0,0,3,,,,,,,,,0,,,58,0
64807,set_tempo,15,1,0,,,,,,778311,,,,,,,
64814,set_tempo,7,1,0,,,,,,781352,,,,,,,
64821,set_tempo,7,1,0,,,,,,784416,,,,,,,
64835,set_tempo,14,1,0,,,,,,787505,,,,,,,
64840,note_on,40,0,3,,,,,,,,,0,,,42,0
64840,note_on,0,0,3,,,,,,,,,0,,,58,60
64840,note_on,0,0,3,,,,,,,,,0,,,54,60
64842,set_tempo,7,1,0,,,,,,790618,,,,,,,
64849,set_tempo,7,1,0,,,,,,793756,,,,,,,
64863,set_tempo,14,1,0,,,,,,796919,,,,,,,
64870,set_tempo,7,1,0,,,,,,800107,,,,,,,
64880,note_on,40,0,3,,,,,,,,,0,,,54,0
64880,note_on,0,0,3,,,,,,,,,0,,,58,0
64880,note_on,0,0,3,,,,,,,,,0,,,60,40
64880,note_on,0,0,3,,,,,,,,,0,,,58,40
64880,note_on,0,0,3,,,,,,,,,0,,,54,40
64884,set_tempo,14,1,0,,,,,,803320,,,,,,,
64890,note_on,0,0,1,,,,,,,,,0,,,72,40
64890,note_on,0,0,1,,,,,,,,,0,,,77,0
64890,note_on,90,0,1,,,,,,,,,0,,,73,0
64890,note_on,0,0,1,,,,,,,,,0,,,75,40
64891,set_tempo,7,1,0,,,,,,806560,,,,,,,
64898,set_tempo,7,1,0,,,,,,809826,,,,,,,
64905,control_change,105,0,4,,,,,,,,,0,64,0,,
64912,set_tempo,14,1,0,,,,,,813118,,,,,,,
64920,note_on,0,0,1,,,,,,,,,0,,,75,40
64920,note_on,30,0,1,,,,,,,,,0,,,72,0
64920,note_on,0,0,3,,,,,,,,,0,,,41,50
64920,note_on,0,0,3,,,,,,,,,0,,,60,0
64920,note_on,0,0,3,,,,,,,,,0,,,58,0
64920,note_on,40,0,3,,,,,,,,,0,,,54,0
64920,control_change,15,0,4,,,,,,,,,0,64,127,,
64920,note_on,0,0,1,,,,,,,,,0,,,72,40
64920,note_on,0,0,1,,,,,,,,,0,,,75,0
64920,set_tempo,8,1,0,,,,,,816438,,,,,,,
64934,set_tempo,14,1,0,,,,,,819784,,,,,,,
64941,set_tempo,7,1,0,,,,,,823158,,,,,,,
64948,set_tempo,7,1,0,,,,,,826560,,,,,,,
64960,note_on,40,0,1,,,,,,,,,0,,,75,0
64960,note_on,0,0,3,,,,,,,,,0,,,57,60
64960,note_on,0,0,1,,,,,,,,,0,,,78,40
64960,note_on,0,0,1,,,,,,,,,0,,,75,40
64960,note_on,40,0,3,,,,,,,,,0,,,41,0
64960,note_on,0,0,3,,,,,,,,,0,,,60,60
64960,note_on,0,0,3,,,,,,,,,0,,,53,60
64960,note_on,0,0,1,,,,,,,,,0,,,72,0
64962,set_tempo,14,1,0,,,,,,829990,,,,,,,
64969,set_tempo,7,1,0,,,,,,833449,,,,,,,
64983,set_tempo,14,1,0,,,,,,836937,,,,,,,
64990,set_tempo,7,1,0,,,,,,840454,,,,,,,
64997,set_tempo,7,1,0,,,,,,844001,,,,,,,
65000,note_on,40,0,1,,,,,,,,,0,,,75,0
65000,note_on,0,0,1,,,,,,,,,0,,,77,40
65000,note_on,0,0,3,,,,,,,,,0,,,53,40
65000,note_on,0,0,1,,,,,,,,,0,,,81,40
65000,note_on,0,0,1,,,,,,,,,0,,,78,0
65000,note_on,0,0,3,,,,,,,,,0,,,60,40
65000,note_on,0,0,1,,,,,,,,,0,,,69,40
65000,note_on,0,0,3,,,,,,,,,0,,,63,40
65000,note_on,0,0,3,,,,,,,,,0,,,60,0
65000,note_on,0,0,3,,,,,,,,,0,,,57,0
65000,note_on,40,0,3,,,,,,,,,0,,,53,0
65000,note_on,0,0,1,,,,,,,,,0,,,72,40
65011,set_tempo,14,1,0,,,,,,847577,,,,,,,
65018,set_tempo,7,1,0,,,,,,851185,,,,,,,
65025,control_change,105,0,4,,,,,,,,,0,64,0,,
65025,set_tempo,7,1,0,,,,,,854823,,,,,,,
65040,control_change,15,0,4,,,,,,,,,0,64,127,,
65040,note_on,40,0,3,,,,,,,,,0,,,53,0
65040,note_on,0,0,3,,,,,,,,,0,,,60,0
65040,note_on,0,0,3,,,,,,,,,0,,,63,0
65040,note_on,0,0,3,,,,,,,,,0,,,34,50
65040,note_on,0,0,1,,,,,,,,,0,,,70,40
65040,note_on,0,0,1,,,,,,,,,0,,,77,40
65040,set_tempo,15,1,0,,,,,,858492,,,,,,,
65040,note_on,0,0,1,,,,,,,,,0,,,82,40
65040,note_on,0,0,1,,,,,,,,,0,,,72,0
65040,note_on,0,0,1,,,,,,,,,0,,,77,0
65040,note_on,0,0,1,,,,,,,,,0,,,81,0
65040,note_on,40,0,1,,,,,,,,,0,,,69,0
65040,note_on,0,0,1,,,,,,,,,0,,,73,40
65047,set_tempo,7,1,0,,,,,,862193,,,,,,,
65061,set_tempo,14,1,0,,,,,,865926,,,,,,,
65068,set_tempo,7,1,0,,,,,,869691,,,,,,,
65075,set_tempo,7,1,0,,,,,,873490,,,,,,,
65080,note_on,0,0,3,,,,,,,,,0,,,53,60
65080,note_on,0,0,3,,,,,,,,,0,,,58,60
65080,note_on,40,0,3,,,,,,,,,0,,,34,0
65080,note_on,0,0,3,,,,,,,,,0,,,61,60
65089,set_tempo,14,1,0,,,,,,877321,,,,,,,
65096,set_tempo,7,1,0,,,,,,881187,,,,,,,
65110,set_tempo,14,1,0,,,,,,885086,,,,,,,
65117,set_tempo,7,1,0,,,,,,889021,,,,,,,
65120,note_on,0,0,3,,,,,,,,,0,,,61,40
65120,note_on,0,0,3,,,,,,,,,0,,,58,0
65120,note_on,40,0,3,,,,,,,,,0,,,53,0
65120,note_on,0,0,3,,,,,,,,,0,,,53,40
65120,note_on,0,0,3,,,,,,,,,0,,,61,0
65120,note_on,0,0,3,,,,,,,,,0,,,65,40
65124,set_tempo,7,1,0,,,,,,892990,,,,,,,
65138,set_tempo,14,1,0,,,,,,896995,,,,,,,
65145,control_change,105,0,4,,,,,,,,,0,64,0,,
65145,set_tempo,7,1,0,,,,,,901036,,,,,,,
65152,set_tempo,7,1,0,,,,,,905114,,,,,,,
65160,note_on,0,0,3,,,,,,,,,0,,,61,40
65160,note_on,0,0,3,,,,,,,,,0,,,58,40
65160,note_on,0,0,3,,,,,,,,,0,,,61,0
65160,note_on,0,0,3,,,,,,,,,0,,,53,40
65160,control_change,15,0,4,,,,,,,,,0,64,127,,
65160,note_on,0,0,3,,,,,,,,,0,,,65,0
65160,note_on,40,0,3,,,,,,,,,0,,,53,0
65160,set_tempo,8,1,0,,,,,,1875000,,,,,,,
65220,set_tempo,60,1,0,,,,,,1071429,,,,,,,
65220,note_on,180,0,1,,,,,,,,,0,,,70,0
65220,note_on,0,0,1,,,,,,,,,0,,,82,0
65220,note_on,0,0,1,,,,,,,,,0,,,77,0
65220,note_on,0,0,1,,,,,,,,,0,,,73,0
65220,note_on,60,0,3,,,,,,,,,0,,,53,0
65220,note_on,0,0,3,,,,,,,,,0,,,58,0
65220,note_on,0,0,3,,,,,,,,,0,,,61,0
65220,note_on,0,0,1,,,,,,,,,0,,,73,60
65265,control_change,105,0,4,,,,,,,,,0,64,0,,
65280,note_on,60,0,3,,,,,,,,,0,,,42,70
65280,note_on,60,0,1,,,,,,,,,0,,,73,0
65280,note_on,0,0,1,,,,,,,,,0,,,61,60
65280,control_change,15,0,4,,,,,,,,,0,64,127,,
65280,key_signature,60,1,0,,,,,Gb,,,,,,,,
65280,set_tempo,0,1,0,,,,,,652174,,,,,,,
65280,marker,0,1,0,,,,,,,,,,,,,
65310,note_on,30,0,1,,,,,,,,,0,,,61,0
65310,note_on,0,0,1,,,,,,,,,0,,,73,60
65325,note_on,0,0,3,,,,,,,,,0,,,49,70
65325,note_on,45,0,3,,,,,,,,,0,,,42,0
65340,note_on,0,0,3,,,,,,,,,0,,,58,80
65340,note_on,15,0,3,,,,,,,,,0,,,49,0
65340,note_on,0,0,1,,,,,,,,,0,,,70,60
65340,note_on,0,0,1,,,,,,,,,0,,,66,60
65340,note_on,30,0,1,,,,,,,,,0,,,73,0
65370,note_on,0,0,1,,,,,,,,,0,,,73,60
65370,note_on,0,0,1,,,,,,,,,0,,,66,0
65370,note_on,30,0,1,,,,,,,,,0,,,70,0
65400,note_on,0,0,1,,,,,,,,,0,,,61,60
65400,note_on,30,0,1,,,,,,,,,0,,,73,0
65430,note_on,0,0,1,,,,,,,,,0,,,73,60
65430,note_on,30,0,1,,,,,,,,,0,,,61,0
65445,note_on,0,0,3,,,,,,,,,0,,,54,70
65445,note_on,105,0,3,,,,,,,,,0,,,58,0
65460,note_on,15,0,3,,,,,,,,,0,,,54,0
65460,note_on,0,0,1,,,,,,,,,0,,,70,60
65460,note_on,0,0,1,,,,,,,,,0,,,66,60
65460,note_on,30,0,1,,,,,,,,,0,,,73,0
65460,note_on,0,0,3,,,,,,,,,0,,,58,80
65490,note_on,0,0,1,,,,,,,,,0,,,73,60
65490,note_on,0,0,1,,,,,,,,,0,,,66,0
65490,note_on,30,0,1,,,,,,,,,0,,,70,0
65520,note_on,0,0,1,,,,,,,,,0,,,61,60
65520,note_on,30,0,1,,,,,,,,,0,,,73,0
65520,control_change,240,0,4,,,,,,,,,0,64,0,,
65550,note_on,0,0,1,,,,,,,,,0,,,73,60
65550,note_on,30,0,1,,,,,,,,,0,,,61,0
65580,note_on,0,0,3,,,,,,,,,0,,,54,70
65580,note_on,120,0,3,,,,,,,,,0,,,58,0
65580,note_on,30,0,1,,,,,,,,,0,,,73,0
65580,note_on,0,0,1,,,,,,,,,0,,,66,60
65580,note_on,0,0,1,,,,,,,,,0,,,70,60
65610,note_on,30,0,1,,,,,,,,,0,,,70,0
65610,note_on,0,0,1,,,,,,,,,0,,,73,60
65610,note_on,0,0,1,,,,,,,,,0,,,66,0
65640,note_on,0,0,1,,,,,,,,,0,,,61,60
65640,note_on,60,0,3,,,,,,,,,0,,,54,0
65640,note_on,0,0,3,,,,,,,,,0,,,49,70
65640,note_on,30,0,1,,,,,,,,,0,,,73,0
65670,note_on,30,0,1,,,,,,,,,0,,,61,0
65670,note_on,0,0,1,,,,,,,,,0,,,73,60
65700,note_on,0,0,1,,,,,,,,,0,,,70,60
65700,note_on,0,0,3,,,,,,,,,0,,,46,70
65700,note_on,0,0,1,,,,,,,,,0,,,66,60
65700,note_on,30,0,1,,,,,,,,,0,,,73,0
65700,note_on,60,0,3,,,,,,,,,0,,,49,0
65730,note_on,30,0,1,,,,,,,,,0,,,70,0
65730,note_on,0,0,1,,,,,,,,,0,,,73,60
65730,note_on,0,0,1,,,,,,,,,0,,,66,0
65760,control_change,240,0,4,,,,,,,,,0,64,127,,
65760,note_on,60,0,3,,,,,,,,,0,,,46,0
65760,note_on,0,0,3,,,,,,,,,0,,,41,70
65760,note_on,0,0,1,,,,,,,,,0,,,61,60
65760,note_on,30,0,1,,,,,,,,,0,,,73,0
65790,note_on,0,0,1,,,,,,,,,0,,,73,60
65790,note_on,30,0,1,,,,,,,,,0,,,61,0
65805,note_on,45,0,3,,,,,,,,,0,,,41,0
65805,note_on,0,0,3,,,,,,,,,0,,,49,70
65820,note_on,15,0,3,,,,,,,,,0,,,49,0
65820,note_on,30,0,1,,,,,,,,,0,,,73,0
65820,note_on,0,0,1,,,,,,,,,0,,,68,60
65820,note_on,0,0,1,,,,,,,,,0,,,71,60
65820,note_on,0,0,3,,,,,,,,,0,,,59,80
65850,note_on,0,0,1,,,,,,,,,0,,,73,60
65850,note_on,30,0,1,,,,,,,,,0,,,71,0
65850,note_on,0,0,1,,,,,,,,,0,,,68,0
65880,note_on,0,0,1,,,,,,,,,0,,,61,60
65880,note_on,30,0,1,,,,,,,,,0,,,73,0
65910,note_on,0,0,1,,,,,,,,,0,,,73,60
65910,note_on,30,0,1,,,,,,,,,0,,,61,0
65925,note_on,0,0,3,,,,,,,,,0,,,56,70
65925,note_on,105,0,3,,,,,,,,,0,,,59,0
65940,note_on,15,0,3,,,,,,,,,0,,,56,0
65940,note_on,30,0,1,,,,,,,,,0,,,73,0
65940,note_on,0,0,3,,,,,,,,,0,,,59,80
65940,note_on,0,0,1,,,,,,,,,0,,,68,60
65940,note_on,0,0,1,,,,,,,,,0,,,71,60
65970,note_on,30,0,1,,,,,,,,,0,,,71,0
65970,note_on,0,0,1,,,,,,,,,0,,,68,0
65970,note_on,0,0,1,,,,,,,,,0,,,73,60
66000,note_on,30,0,1,,,,,,,,,0,,,73,0
66000,control_change,240,0,4,,,,,,,,,0,64,0,,
66000,note_on,0,0,1,,,,,,,,,0,,,61,60
66030,note_on,30,0,1,,,,,,,,,0,,,61,0
66030,note_on,0,0,1,,,,,,,,,0,,,73,60
66060,note_on,120,0,3,,,,,,,,,0,,,59,0
66060,note_on,0,0,3,,,,,,,,,0,,,56,70
66060,note_on,0,0,1,,,,,,,,,0,,,71,60
66060,note_on,0,0,1,,,,,,,,,0,,,68,60
66060,note_on,30,0,1,,,,,,,,,0,,,73,0
66090,note_on,0,0,1,,,,,,,,,0,,,73,60
66090,note_on,0,0,1,,,,,,,,,0,,,68,0
66090,note_on,30,0,1,,,,,,,,,0,,,71,0
66120,note_on,0,0,1,,,,,,,,,0,,,61,60
66120,note_on,60,0,3,,,,,,,,,0,,,56,0
66120,note_on,30,0,1,,,,,,,,,0,,,73,0
66120,note_on,0,0,3,,,,,,,,,0,,,53,70
66150,note_on,0,0,1,,,,,,,,,0,,,73,60
66150,note_on,30,0,1,,,,,,,,,0,,,61,0
66180,note_on,0,0,3,,,,,,,,,0,,,49,70
66180,note_on,60,0,3,,,,,,,,,0,,,53,0
66180,note_on,0,0,1,,,,,,,,,0,,,68,60
66180,note_on,0,0,1,,,,,,,,,0,,,71,60
66180,note_on,30,0,1,,,,,,,,,0,,,73,0
66210,note_on,30,0,1,,,,,,,,,0,,,71,0
66210,note_on,0,0,1,,,,,,,,,0,,,68,0
66210,note_on,0,0,1,,,,,,,,,0,,,73,60
66240,control_change,240,0,4,,,,,,,,,0,64,127,,
66240,note_on,60,0,3,,,,,,,,,0,,,49,0
66240,note_on,30,0,1,,,,,,,,,0,,,73,0
66240,note_on,0,0,3,,,,,,,,,0,,,42,70
66240,note_on,0,0,1,,,,,,,,,0,,,61,60
66270,note_on,0,0,1,,,,,,,,,0,,,73,60
66270,note_on,30,0,1,,,,,,,,,0,,,61,0
66285,note_on,45,0,3,,,,,,,,,0,,,42,0
66285,note_on,0,0,3,,,,,,,,,0,,,49,70
66300,note_on,0,0,1,,,,,,,,,0,,,66,60
66300,note_on,30,0,1,,,,,,,,,0,,,73,0
66300,note_on,15,0,3,,,,,,,,,0,,,49,0
66300,note_on,0,0,3,,,,,,,,,0,,,58,80
66300,note_on,0,0,1,,,,,,,,,0,,,70,60
66330,note_on,30,0,1,,,,,,,,,0,,,70,0
66330,note_on,0,0,1,,,,,,,,,0,,,66,0
66330,note_on,0,0,1,,,,,,,,,0,,,73,60
66360,note_on,30,0,1,,,,,,,,,0,,,73,0
66360,note_on,0,0,1,,,,,,,,,0,,,61,60
66390,note_on,30,0,1,,,,,,,,,0,,,61,0
66390,note_on,0,0,1,,,,,,,,,0,,,73,60
66405,note_on,0,0,3,,,,,,,,,0,,,54,70
66405,note_on,105,0,3,,,,,,,,,0,,,58,0
66420,note_on,30,0,1,,,,,,,,,0,,,73,0
66420,note_on,0,0,1,,,,,,,,,0,,,66,60
66420,note_on,0,0,1,,,,,,,,,0,,,70,60
66420,note_on,0,0,3,,,,,,,,,0,,,58,80
66420,note_on,15,0,3,,,,,,,,,0,,,54,0
66450,note_on,30,0,1,,,,,,,,,0,,,70,0
66450,note_on,0,0,1,,,,,,,,,0,,,66,0
66450,note_on,0,0,1,,,,,,,,,0,,,73,60
66480,note_on,60,0,3,,,,,,,,,0,,,47,80
66480,control_change,240,0,4,,,,,,,,,0,64,0,,
66480,note_on,0,0,1,,,,,,,,,0,,,63,60
66480,note_on,30,0,1,,,,,,,,,0,,,73,0
66510,note_on,0,0,1,,,,,,,,,0,,,75,60
66510,note_on,30,0,1,,,,,,,,,0,,,63,0
66540,note_on,0,0,1,,,,,,,,,0,,,68,60
66540,note_on,0,0,1,,,,,,,,,0,,,71,60
66540,note_on,0,0,3,,,,,,,,,0,,,56,70
66540,note_on,60,0,3,,,,,,,,,0,,,58,0
66540,note_on,30,0,1,,,,,,,,,0,,,75,0
66570,note_on,30,0,1,,,,,,,,,0,,,71,0
66570,note_on,0,0,1,,,,,,,,,0,,,68,0
66570,note_on,0,0,1,,,,,,,,,0,,,75,60
66600,note_on,60,0,3,,,,,,,,,0,,,56,0
66600,note_on,0,0,3,,,,,,,,,0,,,51,70
66600,note_on,0,0,1,,,,,,,,,0,,,63,60
66600,note_on,30,0,1,,,,,,,,,0,,,75,0
66630,note_on,30,0,1,,,,,,,,,0,,,63,0
66630,note_on,0,0,1,,,,,,,,,0,,,75,60
66660,note_on,30,0,1,,,,,,,,,0,,,75,0
66660,note_on,0,0,3,,,,,,,,,0,,,56,70
66660,note_on,60,0,3,,,,,,,,,0,,,51,0
66660,note_on,0,0,1,,,,,,,,,0,,,68,60
66660,note_on,0,0,1,,,,,,,,,0,,,71,60
66690,note_on,30,0,1,,,,,,,,,0,,,71,0
66690,note_on,0,0,1,,,,,,,,,0,,,75,60
66690,note_on,0,0,1,,,,,,,,,0,,,68,0
66720,note_on,30,0,1,,,,,,,,,0,,,75,0
66720,control_change,240,0,4,,,,,,,,,0,64,127,,
66720,note_on,0,0,1,,,,,,,,,0,,,68,60
66720,note_on,0,0,3,,,,,,,,,0,,,48,80
66720,note_on,0,0,3,,,,,,,,,0,,,56,70
66720,note_on,0,0,3,,,,,,,,,0,,,47,0
66720,note_on,60,0,3,,,,,,,,,0,,,56,0
66750,note_on,0,0,1,,,,,,,,,0,,,80,62
66750,note_on,30,0,1,,,,,,,,,0,,,68,0
66780,note_on,0,0,1,,,,,,,,,0,,,60,75
66780,note_on,0,0,1,,,,,,,,,0,,,78,65
66780,note_on,0,0,1,,,,,,,,,0,,,75,65
66780,note_on,30,0,1,,,,,,,,,0,,,80,0
66780,note_on,60,0,3,,,,,,,,,0,,,56,0
66810,note_on,0,0,1,,,,,,,,,0,,,80,68
66810,note_on,0,0,1,,,,,,,,,0,,,75,0
66810,note_on,30,0,1,,,,,,,,,0,,,78,0
66840,note_on,0,0,1,,,,,,,,,0,,,78,70
66840,note_on,0,0,1,,,,,,,,,0,,,72,70
66840,note_on,30,0,1,,,,,,,,,0,,,80,0
66840,note_on,0,0,3,,,,,,,,,0,,,56,90
66840,note_on,60,0,3,,,,,,,,,0,,,48,0
66840,note_on,0,0,1,,,,,,,,,0,,,63,80
66840,note_on,0,0,1,,,,,,,,,0,,,60,0
66870,note_on,0,0,1,,,,,,,,,0,,,80,73
66870,note_on,30,0,1,,,,,,,,,0,,,78,0
66870,note_on,0,0,1,,,,,,,,,0,,,72,0
66900,note_on,30,0,1,,,,,,,,,0,,,80,0
66900,note_on,0,0,1,,,,,,,,,0,,,63,0
66900,note_on,0,0,1,,,,,,,,,0,,,72,76
66900,note_on,0,0,1,,,,,,,,,0,,,75,76
66900,note_on,0,0,1,,,,,,,,,0,,,66,86
66930,note_on,0,0,1,,,,,,,,,0,,,80,79
66930,note_on,30,0,1,,,,,,,,,0,,,75,0
66930,note_on,0,0,1,,,,,,,,,0,,,72,0
66945,control_change,225,0,4,,,,,,,,,0,64,0,,
66960,note_on,0,0,3,,,,,,,,,0,,,61,101
66960,control_change,15,0,4,,,,,,,,,0,64,127,,
66960,note_on,30,0,1,,,,,,,,,0,,,80,0
66960,note_on,0,0,1,,,,,,,,,0,,,66,0
66960,note_on,120,0,3,,,,,,,,,0,,,56,0
66960,note_on,0,0,1,,,,,,,,,0,,,73,81
66960,note_on,0,0,1,,,,,,,,,0,,,77,81
66960,note_on,0,0,1,,,,,,,,,0,,,65,91
66990,note_on,30,0,1,,,,,,,,,0,,,77,0
66990,note_on,0,0,1,,,,,,,,,0,,,80,84
66990,note_on,0,0,1,,,,,,,,,0,,,73,0
67020,note_on,30,0,1,,,,,,,,,0,,,80,0
67020,note_on,0,0,1,,,,,,,,,0,,,65,0
67020,note_on,0,0,1,,,,,,,,,0,,,68,97
67020,note_on,0,0,1,,,,,,,,,0,,,83,87
67020,note_on,0,0,1,,,,,,,,,0,,,77,87
67050,note_on,0,0,1,,,,,,,,,0,,,85,89
67050,note_on,0,0,1,,,,,,,,,0,,,77,0
67050,note_on,30,0,1,,,,,,,,,0,,,83,0
67065,control_change,105,0,4,,,,,,,,,0,64,0,,
67080,note_on,0,0,1,,,,,,,,,0,,,82,92
67080,note_on,0,0,1,,,,,,,,,0,,,78,92
67080,note_on,30,0,1,,,,,,,,,0,,,85,0
67080,control_change,15,0,4,,,,,,,,,0,64,127,,
67080,note_on,0,0,1,,,,,,,,,0,,,70,102
67080,note_on,0,0,1,,,,,,,,,0,,,68,0
67110,note_on,0,0,1,,,,,,,,,0,,,85,95
67110,note_on,0,0,1,,,,,,,,,0,,,78,0
67110,note_on,30,0,1,,,,,,,,,0,,,82,0
67140,note_on,0,0,1,,,,,,,,,0,,,71,108
67140,note_on,0,0,1,,,,,,,,,0,,,80,98
67140,note_on,0,0,1,,,,,,,,,0,,,77,98
67140,note_on,0,0,1,,,,,,,,,0,,,70,0
67140,note_on,30,0,1,,,,,,,,,0,,,85,0
67170,note_on,30,0,1,,,,,,,,,0,,,80,0
67170,note_on,0,0,1,,,,,,,,,0,,,85,100
67170,note_on,0,0,1,,,,,,,,,0,,,77,0
67185,control_change,105,0,4,,,,,,,,,0,64,0,,
67200,note_on,240,0,3,,,,,,,,,0,,,61,0
67200,note_on,0,0,3,,,,,,,,,0,,,42,100
67200,note_on,30,0,1,,,,,,,,,0,,,85,0
67200,note_on,0,0,1,,,,,,,,,0,,,90,110
67200,note_on,0,0,1,,,,,,,,,0,,,71,0
67200,control_change,15,0,4,,,,,,,,,0,64,127,,
67215,note_on,15,0,3,,,,,,,,,0,,,42,0
67230,note_on,15,0,3,,,,,,,,,0,,,58,100
67245,note_on,0,0,1,,,,,,,,,0,,,85,110
67245,note_on,45,0,1,,,,,,,,,0,,,90,0
67260,note_on,15,0,1,,,,,,,,,0,,,85,0
67260,note_on,0,0,1,,,,,,,,,0,,,94,120
67260,note_on,30,0,3,,,,,,,,,0,,,58,0
67260,note_on,0,0,3,,,,,,,,,0,,,49,100
67260,note_on,0,0,1,,,,,,,,,0,,,82,120
67290,note_on,30,0,3,,,,,,,,,0,,,49,0
67290,note_on,0,0,3,,,,,,,,,0,,,58,100
67320,note_on,30,0,3,,,,,,,,,0,,,58,0
67320,note_on,0,0,3,,,,,,,,,0,,,54,100
67350,note_on,0,0,3,,,,,,,,,0,,,58,100
67350,note_on,30,0,3,,,,,,,,,0,,,54,0
67365,note_on,0,0,1,,,,,,,,,0,,,90,110
67365,note_on,105,0,1,,,,,,,,,0,,,94,0
67365,note_on,0,0,1,,,,,,,,,0,,,82,0
67380,note_on,0,0,1,,,,,,,,,0,,,82,120
67380,note_on,0,0,1,,,,,,,,,0,,,94,120
67380,note_on,30,0,3,,,,,,,,,0,,,58,0
67380,note_on,15,0,1,,,,,,,,,0,,,90,0
67380,note_on,0,0,3,,,,,,,,,0,,,49,100
67410,note_on,0,0,3,,,,,,,,,0,,,58,100
67410,note_on,30,0,3,,,,,,,,,0,,,49,0
67440,note_on,0,0,3,,,,,,,,,0,,,42,100
67440,note_on,30,0,3,,,,,,,,,0,,,58,0
67455,note_on,15,0,3,,,,,,,,,0,,,42,0
67470,note_on,15,0,3,,,,,,,,,0,,,58,100
67500,note_on,120,0,1,,,,,,,,,0,,,94,0
67500,note_on,0,0,1,,,,,,,,,0,,,82,0
67500,note_on,0,0,3,,,,,,,,,0,,,49,100
67500,note_on,0,0,1,,,,,,,,,0,,,78,110
67500,note_on,30,0,3,,,,,,,,,0,,,58,0
67500,note_on,0,0,1,,,,,,,,,0,,,90,110
67530,note_on,30,0,3,,,,,,,,,0,,,49,0
67530,note_on,0,0,3,,,,,,,,,0,,,58,100
67560,note_on,0,0,1,,,,,,,,,0,,,90,0
67560,note_on,60,0,1,,,,,,,,,0,,,78,0
67560,note_on,0,0,3,,,,,,,,,0,,,54,100
67560,note_on,0,0,1,,,,,,,,,0,,,85,110
67560,note_on,30,0,3,,,,,,,,,0,,,58,0
67560,note_on,0,0,1,,,,,,,,,0,,,73,110
67590,note_on,30,0,3,,,,,,,,,0,,,54,0
67590,note_on,0,0,3,,,,,,,,,0,,,58,100
67620,note_on,60,0,1,,,,,,,,,0,,,73,0
67620,note_on,0,0,1,,,,,,,,,0,,,85,0
67620,note_on,0,0,1,,,,,,,,,0,,,82,110
67620,note_on,0,0,1,,,,,,,,,0,,,70,110
67620,note_on,30,0,3,,,,,,,,,0,,,58,0
67620,note_on,0,0,3,,,,,,,,,0,,,49,100
67650,note_on,0,0,3,,,,,,,,,0,,,58,100
67650,note_on,30,0,3,,,,,,,,,0,,,49,0
67665,control_change,465,0,4,,,,,,,,,0,64,0,,
67680,control_change,15,0,4,,,,,,,,,0,64,127,,
67680,note_on,30,0,3,,,,,,,,,0,,,58,0
67680,note_on,0,0,1,,,,,,,,,0,,,82,0
67680,note_on,60,0,1,,,,,,,,,0,,,70,0
67680,note_on,0,0,3,,,,,,,,,0,,,41,100
67695,note_on,15,0,3,,,,,,,,,0,,,41,0
67710,note_on,15,0,3,,,,,,,,,0,,,59,100
67725,note_on,45,0,1,,,,,,,,,0,,,85,110
67740,note_on,30,0,3,,,,,,,,,0,,,59,0
67740,note_on,15,0,1,,,,,,,,,0,,,85,0
67740,note_on,0,0,1,,,,,,,,,0,,,83,120
67740,note_on,0,0,1,,,,,,,,,0,,,95,120
67740,note_on,0,0,3,,,,,,,,,0,,,49,100
67770,note_on,30,0,3,,,,,,,,,0,,,49,0
67770,note_on,0,0,3,,,,,,,,,0,,,59,100
67800,note_on,0,0,3,,,,,,,,,0,,,56,100
67800,note_on,30,0,3,,,,,,,,,0,,,59,0
67830,note_on,0,0,3,,,,,,,,,0,,,59,100
67830,note_on,30,0,3,,,,,,,,,0,,,56,0
67845,note_on,105,0,1,,,,,,,,,0,,,83,0
67845,note_on,0,0,1,,,,,,,,,0,,,95,0
67845,note_on,0,0,1,,,,,,,,,0,,,92,110
67860,note_on,30,0,3,,,,,,,,,0,,,59,0
67860,note_on,0,0,3,,,,,,,,,0,,,49,100
67860,note_on,15,0,1,,,,,,,,,0,,,92,0
67860,note_on,0,0,1,,,,,,,,,0,,,83,120
67860,note_on,0,0,1,,,,,,,,,0,,,95,120
67890,note_on,0,0,3,,,,,,,,,0,,,59,100
67890,note_on,30,0,3,,,,,,,,,0,,,49,0
67920,note_on,30,0,3,,,,,,,,,0,,,59,0
67920,note_on,0,0,3,,,,,,,,,0,,,41,100
67935,note_on,15,0,3,,,,,,,,,0,,,41,0
67950,note_on,15,0,3,,,,,,,,,0,,,59,100
67980,note_on,30,0,3,,,,,,,,,0,,,59,0
67980,note_on,0,0,3,,,,,,,,,0,,,49,100
67980,note_on,0,0,1,,,,,,,,,0,,,92,110
67980,note_on,0,0,1,,,,,,,,,0,,,80,110
67980,note_on,0,0,1,,,,,,,,,0,,,95,0
67980,note_on,120,0,1,,,,,,,,,0,,,83,0
68010,note_on,30,0,3,,,,,,,,,0,,,49,0
68010,note_on,0,0,3,,,,,,,,,0,,,59,100
68040,note_on,0,0,3,,,,,,,,,0,,,56,100
68040,note_on,0,0,1,,,,,,,,,0,,,92,0
68040,note_on,60,0,1,,,,,,,,,0,,,80,0
68040,note_on,0,0,1,,,,,,,,,0,,,77,110
68040,note_on,30,0,3,,,,,,,,,0,,,59,0
68040,note_on,0,0,1,,,,,,,,,0,,,89,110
68070,note_on,30,0,3,,,,,,,,,0,,,56,0
68070,note_on,0,0,3,,,,,,,,,0,,,59,100
68100,note_on,60,0,1,,,,,,,,,0,,,77,0
68100,note_on,0,0,3,,,,,,,,,0,,,49,100
68100,note_on,30,0,3,,,,,,,,,0,,,59,0
68100,note_on,0,0,1,,,,,,,,,0,,,83,110
68100,note_on,0,0,1,,,,,,,,,0,,,89,0
68100,note_on,0,0,1,,,,,,,,,0,,,71,110
68130,note_on,30,0,3,,,,,,,,,0,,,49,0
68130,note_on,0,0,3,,,,,,,,,0,,,59,100
68145,control_change,465,0,4,,,,,,,,,0,64,0,,
68160,note_on,60,0,1,,,,,,,,,0,,,71,0
68160,note_on,0,0,1,,,,,,,,,0,,,83,0
68160,control_change,15,0,4,,,,,,,,,0,64,127,,
68160,note_on,30,0,3,,,,,,,,,0,,,59,0
68160,note_on,0,0,3,,,,,,,,,0,,,42,100
68175,note_on,15,0,3,,,,,,,,,0,,,42,0
68190,note_on,15,0,3,,,,,,,,,0,,,58,98
68205,note_on,45,0,1,,,,,,,,,0,,,73,106
68220,note_on,15,0,1,,,,,,,,,0,,,73,0
68220,note_on,0,0,1,,,,,,,,,0,,,82,115
68220,note_on,0,0,1,,,,,,,,,0,,,70,115
68220,note_on,0,0,3,,,,,,,,,0,,,49,95
68220,note_on,30,0,3,,,,,,,,,0,,,58,0
68250,note_on,0,0,3,,,,,,,,,0,,,58,92
68250,note_on,30,0,3,,,,,,,,,0,,,49,0
68280,note_on,30,0,3,,,,,,,,,0,,,58,0
68280,note_on,0,0,3,,,,,,,,,0,,,54,90
68310,note_on,30,0,3,,,,,,,,,0,,,54,0
68310,note_on,0,0,3,,,,,,,,,0,,,58,87
68325,note_on,0,0,1,,,,,,,,,0,,,82,0
68325,note_on,105,0,1,,,,,,,,,0,,,70,0
68325,note_on,0,0,1,,,,,,,,,0,,,78,96
68340,note_on,15,0,1,,,,,,,,,0,,,78,0
68340,note_on,0,0,1,,,,,,,,,0,,,82,104
68340,note_on,0,0,1,,,,,,,,,0,,,70,104
68340,note_on,30,0,3,,,,,,,,,0,,,58,0
68340,note_on,0,0,3,,,,,,,,,0,,,49,84
68370,note_on,0,0,3,,,,,,,,,0,,,58,81
68370,note_on,30,0,3,,,,,,,,,0,,,49,0
68385,control_change,225,0,4,,,,,,,,,0,64,0,,
68400,control_change,15,0,4,,,,,,,,,0,64,127,,
68400,note_on,0,0,3,,,,,,,,,0,,,36,79
68400,note_on,30,0,3,,,,,,,,,0,,,58,0
68415,note_on,15,0,3,,,,,,,,,0,,,36,0
68430,note_on,15,0,3,,,,,,,,,0,,,48,76
68460,note_on,0,0,3,,,,,,,,,0,,,51,73
68460,note_on,30,0,3,,,,,,,,,0,,,48,0
68460,note_on,120,0,1,,,,,,,,,0,,,70,0
68460,note_on,0,0,1,,,,,,,,,0,,,82,0
68460,note_on,0,0,1,,,,,,,,,0,,,69,83
68460,note_on,0,0,1,,,,,,,,,0,,,81,83
68490,note_on,30,0,3,,,,,,,,,0,,,51,0
68490,note_on,0,0,3,,,,,,,,,0,,,48,71
68520,note_on,0,0,1,,,,,,,,,0,,,69,0
68520,note_on,60,0,1,,,,,,,,,0,,,81,0
68520,note_on,0,0,3,,,,,,,,,0,,,56,68
68520,note_on,30,0,3,,,,,,,,,0,,,48,0
68520,note_on,0,0,1,,,,,,,,,0,,,68,78
68520,note_on,0,0,1,,,,,,,,,0,,,80,78
68550,note_on,30,0,3,,,,,,,,,0,,,56,0
68550,note_on,0,0,3,,,,,,,,,0,,,48,65
68580,note_on,60,0,1,,,,,,,,,0,,,80,0
68580,note_on,30,0,3,,,,,,,,,0,,,48,0
68580,note_on,0,0,3,,,,,,,,,0,,,57,62
68580,note_on,0,0,1,,,,,,,,,0,,,68,0
68580,note_on,0,0,1,,,,,,,,,0,,,78,72
68580,note_on,0,0,1,,,,,,,,,0,,,66,72
68610,note_on,30,0,3,,,,,,,,,0,,,57,0
68610,note_on,0,0,3,,,,,,,,,0,,,48,60
68625,control_change,225,0,4,,,,,,,,,0,64,0,,
68640,note_on,0,0,1,,,,,,,,,0,,,66,0
68640,note_on,0,0,1,,,,,,,,,0,,,65,70
68640,note_on,0,0,1,,,,,,,,,0,,,77,70
68640,note_on,60,0,1,,,,,,,,,0,,,78,0
68640,note_on,30,0,3,,,,,,,,,0,,,48,0
68640,note_on,0,0,3,,,,,,,,,0,,,37,60
68640,control_change,15,0,4,,,,,,,,,0,64,127,,
68655,note_on,15,0,3,,,,,,,,,0,,,37,0
68670,note_on,15,0,3,,,,,,,,,0,,,49,60
68700,note_on,30,0,3,,,,,,,,,0,,,49,0
68700,note_on,0,0,3,,,,,,,,,0,,,53,60
68700,note_on,60,0,1,,,,,,,,,0,,,65,0
68700,note_on,0,0,1,,,,,,,,,0,,,77,0
68700,note_on,0,0,1,,,,,,,,,0,,,85,70
68700,note_on,0,0,1,,,,,,,,,0,,,73,70
68730,note_on,30,0,3,,,,,,,,,0,,,53,0
68730,note_on,0,0,3,,,,,,,,,0,,,49,60
68760,note_on,0,0,1,,,,,,,,,0,,,71,70
68760,note_on,30,0,3,,,,,,,,,0,,,49,0
68760,note_on,0,0,1,,,,,,,,,0,,,83,70
68760,note_on,0,0,1,,,,,,,,,0,,,85,0
68760,note_on,60,0,1,,,,,,,,,0,,,73,0
68760,note_on,0,0,3,,,,,,,,,0,,,56,60
68790,note_on,30,0,3,,,,,,,,,0,,,56,0
68790,note_on,0,0,3,,,,,,,,,0,,,49,60
68820,note_on,60,0,1,,,,,,,,,0,,,71,0
68820,note_on,0,0,1,,,,,,,,,0,,,83,0
68820,note_on,0,0,1,,,,,,,,,0,,,80,70
68820,note_on,30,0,3,,,,,,,,,0,,,49,0
68820,note_on,0,0,3,,,,,,,,,0,,,59,60
68820,note_on,0,0,1,,,,,,,,,0,,,68,70
68850,note_on,30,0,3,,,,,,,,,0,,,59,0
68850,note_on,0,0,3,,,,,,,,,0,,,49,60
68865,control_change,225,0,4,,,,,,,,,0,64,0,,
68880,note_on,0,0,1,,,,,,,,,0,,,66,70
68880,note_on,0,0,1,,,,,,,,,0,,,78,70
68880,note_on,60,0,1,,,,,,,,,0,,,68,0
68880,note_on,0,0,1,,,,,,,,,0,,,80,0
68880,note_on,30,0,3,,,,,,,,,0,,,49,0
68880,control_change,15,0,4,,,,,,,,,0,64,127,,
68880,note_on,0,0,3,,,,,,,,,0,,,42,60
68895,note_on,15,0,3,,,,,,,,,0,,,42,0
68910,note_on,15,0,3,,,,,,,,,0,,,49,60
68940,note_on,30,0,3,,,,,,,,,0,,,49,0
68940,note_on,0,0,3,,,,,,,,,0,,,58,60
68970,note_on,30,0,3,,,,,,,,,0,,,58,0
68970,note_on,0,0,3,,,,,,,,,0,,,54,60
69000,note_on,30,0,3,,,,,,,,,0,,,54,0
69000,note_on,0,0,3,,,,,,,,,0,,,49,60
69030,note_on,30,0,3,,,,,,,,,0,,,49,0
69030,note_on,0,0,3,,,,,,,,,0,,,54,60
69060,note_on,0,0,3,,,,,,,,,0,,,49,60
69060,note_on,30,0,3,,,,,,,,,0,,,54,0
69090,note_on,30,0,3,,,,,,,,,0,,,49,0
69090,note_on,0,0,3,,,,,,,,,0,,,46,60
69105,control_change,225,0,4,,,,,,,,,0,64,0,,
69120,control_change,15,0,4,,,,,,,,,0,64,127,,
69120,note_on,240,0,1,,,,,,,,,0,,,66,0
69120,note_on,0,0,1,,,,,,,,,0,,,78,0
69120,note_on,0,0,1,,,,,,,,,0,,,61,60
69120,note_on,30,0,3,,,,,,,,,0,,,46,0
69120,note_on,0,0,3,,,,,,,,,0,,,42,70
69150,note_on,30,0,1,,,,,,,,,0,,,61,0
69150,note_on,0,0,1,,,,,,,,,0,,,73,60
69165,note_on,45,0,3,,,,,,,,,0,,,42,0
69165,note_on,0,0,3,,,,,,,,,0,,,49,70
69180,note_on,0,0,3,,,,,,,,,0,,,58,80
69180,note_on,15,0,3,,,,,,,,,0,,,49,0
69180,note_on,0,0,1,,,,,,,,,0,,,66,60
69180,note_on,0,0,1,,,,,,,,,0,,,70,60
69180,note_on,30,0,1,,,,,,,,,0,,,73,0
69210,note_on,0,0,1,,,,,,,,,0,,,73,60
69210,note_on,0,0,1,,,,,,,,,0,,,66,0
69210,note_on,30,0,1,,,,,,,,,0,,,70,0
69240,note_on,0,0,1,,,,,,,,,0,,,61,60
69240,note_on,30,0,1,,,,,,,,,0,,,73,0
69270,note_on,0,0,1,,,,,,,,,0,,,73,60
69270,note_on,30,0,1,,,,,,,,,0,,,61,0
69285,note_on,0,0,3,,,,,,,,,0,,,54,70
69285,note_on,105,0,3,,,,,,,,,0,,,58,0
69300,note_on,0,0,1,,,,,,,,,0,,,70,60
69300,note_on,0,0,3,,,,,,,,,0,,,58,80
69300,note_on,15,0,3,,,,,,,,,0,,,54,0
69300,note_on,0,0,1,,,,,,,,,0,,,66,60
69300,note_on,30,0,1,,,,,,,,,0,,,73,0
69330,note_on,0,0,1,,,,,,,,,0,,,73,60
69330,note_on,0,0,1,,,,,,,,,0,,,66,0
69330,note_on,30,0,1,,,,,,,,,0,,,70,0
69360,note_on,0,0,1,,,,,,,,,0,,,61,60
69360,control_change,240,0,4,,,,,,,,,0,64,0,,
69360,note_on,30,0,1,,,,,,,,,0,,,73,0
69390,note_on,0,0,1,,,,,,,,,0,,,73,60
69390,note_on,30,0,1,,,,,,,,,0,,,61,0
69420,note_on,0,0,1,,,,,,,,,0,,,70,60
69420,note_on,0,0,1,,,,,,,,,0,,,66,60
69420,note_on,30,0,1,,,,,,,,,0,,,73,0
69420,note_on,120,0,3,,,,,,,,,0,,,58,0
69420,note_on,0,0,3,,,,,,,,,0,,,54,70
69450,note_on,0,0,1,,,,,,,,,0,,,73,60
69450,note_on,0,0,1,,,,,,,,,0,,,66,0
69450,note_on,30,0,1,,,,,,,,,0,,,70,0
69480,note_on,60,0,3,,,,,,,,,0,,,54,0
69480,note_on,0,0,3,,,,,,,,,0,,,49,70
69480,note_on,0,0,1,,,,,,,,,0,,,61,60
69480,note_on,30,0,1,,,,,,,,,0,,,73,0
69510,note_on,0,0,1,,,,,,,,,0,,,73,60
69510,note_on,30,0,1,,,,,,,,,0,,,61,0
69540,note_on,30,0,1,,,,,,,,,0,,,73,0
69540,note_on,0,0,1,,,,,,,,,0,,,66,60
69540,note_on,0,0,3,,,,,,,,,0,,,46,70
69540,note_on,60,0,3,,,,,,,,,0,,,49,0
69540,note_on,0,0,1,,,,,,,,,0,,,70,60
69570,note_on,30,0,1,,,,,,,,,0,,,70,0
69570,note_on,0,0,1,,,,,,,,,0,,,66,0
69570,note_on,0,0,1,,,,,,,,,0,,,73,60
69600,note_on,0,0,1,,,,,,,,,0,,,61,60
69600,note_on,60,0,3,,,,,,,,,0,,,46,0
69600,note_on,0,0,3,,,,,,,,,0,,,41,70
69600,control_change,240,0,4,,,,,,,,,0,64,127,,
69600,note_on,30,0,1,,,,,,,,,0,,,73,0
69630,note_on,0,0,1,,,,,,,,,0,,,73,60
69630,note_on,30,0,1,,,,,,,,,0,,,61,0
69645,note_on,0,0,3,,,,,,,,,0,,,49,70
69645,note_on,45,0,3,,,,,,,,,0,,,41,0
69660,note_on,0,0,1,,,,,,,,,0,,,68,60
69660,note_on,30,0,1,,,,,,,,,0,,,73,0
69660,note_on,0,0,1,,,,,,,,,0,,,71,60
69660,note_on,0,0,3,,,,,,,,,0,,,59,80
69660,note_on,15,0,3,,,,,,,,,0,,,49,0
69690,note_on,0,0,1,,,,,,,,,0,,,73,60
69690,note_on,0,0,1,,,,,,,,,0,,,68,0
69690,note_on,30,0,1,,,,,,,,,0,,,71,0
69720,note_on,0,0,1,,,,,,,,,0,,,61,60
69720,note_on,30,0,1,,,,,,,,,0,,,73,0
69750,note_on,30,0,1,,,,,,,,,0,,,61,0
69750,note_on,0,0,1,,,,,,,,,0,,,73,60
69765,note_on,105,0,3,,,,,,,,,0,,,59,0
69765,note_on,0,0,3,,,,,,,,,0,,,56,70
69780,note_on,30,0,1,,,,,,,,,0,,,73,0
69780,note_on,15,0,3,,,,,,,,,0,,,56,0
69780,note_on,0,0,3,,,,,,,,,0,,,59,80
69780,note_on,0,0,1,,,,,,,,,0,,,71,60
69780,note_on,0,0,1,,,,,,,,,0,,,68,60
69810,note_on,0,0,1,,,,,,,,,0,,,68,0
69810,note_on,0,0,1,,,,,,,,,0,,,73,60
69810,note_on,30,0,1,,,,,,,,,0,,,71,0
69840,control_change,240,0,4,,,,,,,,,0,64,0,,
69840,note_on,0,0,1,,,,,,,,,0,,,61,60
69840,note_on,30,0,1,,,,,,,,,0,,,73,0
69870,note_on,0,0,1,,,,,,,,,0,,,73,60
69870,note_on,30,0,1,,,,,,,,,0,,,61,0
69900,note_on,0,0,1,,,,,,,,,0,,,68,60
69900,note_on,0,0,1,,,,,,,,,0,,,71,60
69900,note_on,30,0,1,,,,,,,,,0,,,73,0
69900,note_on,0,0,3,,,,,,,,,0,,,56,70
69900,note_on,120,0,3,,,,,,,,,0,,,59,0
69930,note_on,0,0,1,,,,,,,,,0,,,68,0
69930,note_on,0,0,1,,,,,,,,,0,,,73,60
69930,note_on,30,0,1,,,,,,,,,0,,,71,0
69960,note_on,0,0,3,,,,,,,,,0,,,53,70
69960,note_on,60,0,3,,,,,,,,,0,,,56,0
69960,note_on,0,0,1,,,,,,,,,0,,,61,60
69960,note_on,30,0,1,,,,,,,,,0,,,73,0
69990,note_on,0,0,1,,,,,,,,,0,,,73,60
69990,note_on,30,0,1,,,,,,,,,0,,,61,0
70020,note_on,0,0,3,,,,,,,,,0,,,49,70
70020,note_on,60,0,3,,,,,,,,,0,,,53,0
70020,note_on,0,0,1,,,,,,,,,0,,,71,60
70020,note_on,0,0,1,,,,,,,,,0,,,68,60
70020,note_on,30,0,1,,,,,,,,,0,,,73,0
70050,note_on,0,0,1,,,,,,,,,0,,,68,0
70050,note_on,30,0,1,,,,,,,,,0,,,71,0
70050,note_on,0,0,1,,,,,,,,,0,,,73,60
70080,note_on,30,0,1,,,,,,,,,0,,,73,0
70080,note_on,0,0,1,,,,,,,,,0,,,61,60
70080,note_on,60,0,3,,,,,,,,,0,,,49,0
70080,note_on,0,0,3,,,,,,,,,0,,,42,70
70080,control_change,240,0,4,,,,,,,,,0,64,127,,
70110,note_on,30,0,1,,,,,,,,,0,,,61,0
70110,note_on,0,0,1,,,,,,,,,0,,,73,60
70125,note_on,45,0,3,,,,,,,,,0,,,42,0
70125,note_on,0,0,3,,,,,,,,,0,,,49,70
70140,note_on,0,0,1,,,,,,,,,0,,,70,60
70140,note_on,0,0,1,,,,,,,,,0,,,66,60
70140,note_on,15,0,3,,,,,,,,,0,,,49,0
70140,note_on,30,0,1,,,,,,,,,0,,,73,0
70140,note_on,0,0,3,,,,,,,,,0,,,58,80
70170,note_on,0,0,1,,,,,,,,,0,,,73,60
70170,note_on,0,0,1,,,,,,,,,0,,,66,0
70170,note_on,30,0,1,,,,,,,,,0,,,70,0
70200,note_on,0,0,1,,,,,,,,,0,,,61,60
70200,note_on,30,0,1,,,,,,,,,0,,,73,0
70230,note_on,30,0,1,,,,,,,,,0,,,61,0
70230,note_on,0,0,1,,,,,,,,,0,,,73,60
70245,note_on,105,0,3,,,,,,,,,0,,,58,0
70245,note_on,0,0,3,,,,,,,,,0,,,54,70
70260,note_on,0,0,1,,,,,,,,,0,,,66,60
70260,note_on,30,0,1,,,,,,,,,0,,,73,0
70260,note_on,0,0,1,,,,,,,,,0,,,70,60
70260,note_on,0,0,3,,,,,,,,,0,,,58,80
70260,note_on,15,0,3,,,,,,,,,0,,,54,0
70290,note_on,0,0,1,,,,,,,,,0,,,73,60
70290,note_on,30,0,1,,,,,,,,,0,,,70,0
70290,note_on,0,0,1,,,,,,,,,0,,,66,0
70320,note_on,60,0,3,,,,,,,,,0,,,47,80
70320,control_change,240,0,4,,,,,,,,,0,64,0,,
70320,note_on,30,0,1,,,,,,,,,0,,,73,0
70320,note_on,0,0,1,,,,,,,,,0,,,63,60
70350,note_on,0,0,1,,,,,,,,,0,,,75,60
70350,note_on,30,0,1,,,,,,,,,0,,,63,0
70380,note_on,0,0,3,,,,,,,,,0,,,56,70
70380,note_on,30,0,1,,,,,,,,,0,,,75,0
70380,note_on,0,0,1,,,,,,,,,0,,,68,60
70380,note_on,0,0,1,,,,,,,,,0,,,71,60
70380,note_on,60,0,3,,,,,,,,,0,,,58,0
70410,note_on,30,0,1,,,,,,,,,0,,,71,0
70410,note_on,0,0,1,,,,,,,,,0,,,68,0
70410,note_on,0,0,1,,,,,,,,,0,,,75,60
70440,note_on,30,0,1,,,,,,,,,0,,,75,0
70440,note_on,0,0,1,,,,,,,,,0,,,63,60
70440,note_on,0,0,3,,,,,,,,,0,,,51,70
70440,note_on,60,0,3,,,,,,,,,0,,,56,0
70470,note_on,0,0,1,,,,,,,,,0,,,75,60
70470,note_on,30,0,1,,,,,,,,,0,,,63,0
70500,note_on,60,0,3,,,,,,,,,0,,,51,0
70500,note_on,0,0,1,,,,,,,,,0,,,71,60
70500,note_on,0,0,1,,,,,,,,,0,,,68,60
70500,note_on,30,0,1,,,,,,,,,0,,,75,0
70500,note_on,0,0,3,,,,,,,,,0,,,56,70
70530,note_on,0,0,1,,,,,,,,,0,,,68,0
70530,note_on,30,0,1,,,,,,,,,0,,,71,0
70530,note_on,0,0,1,,,,,,,,,0,,,75,60
70560,note_on,60,0,3,,,,,,,,,0,,,56,0
70560,note_on,0,0,3,,,,,,,,,0,,,47,0
70560,note_on,0,0,3,,,,,,,,,0,,,56,70
70560,note_on,0,0,3,,,,,,,,,0,,,48,80
70560,note_on,0,0,1,,,,,,,,,0,,,68,60
70560,note_on,30,0,1,,,,,,,,,0,,,75,0
70560,control_change,240,0,4,,,,,,,,,0,64,127,,
70590,note_on,30,0,1,,,,,,,,,0,,,68,0
70590,note_on,0,0,1,,,,,,,,,0,,,80,62
70620,note_on,60,0,3,,,,,,,,,0,,,56,0
70620,note_on,30,0,1,,,,,,,,,0,,,80,0
70620,note_on,0,0,1,,,,,,,,,0,,,75,65
70620,note_on,0,0,1,,,,,,,,,0,,,78,65
70620,note_on,0,0,1,,,,,,,,,0,,,60,75
70650,note_on,0,0,1,,,,,,,,,0,,,80,68
70650,note_on,0,0,1,,,,,,,,,0,,,75,0
70650,note_on,30,0,1,,,,,,,,,0,,,78,0
70680,note_on,30,0,1,,,,,,,,,0,,,80,0
70680,note_on,0,0,1,,,,,,,,,0,,,60,0
70680,note_on,0,0,1,,,,,,,,,0,,,72,70
70680,note_on,0,0,1,,,,,,,,,0,,,78,70
70680,note_on,0,0,1,,,,,,,,,0,,,63,80
70680,note_on,0,0,3,,,,,,,,,0,,,56,90
70680,note_on,60,0,3,,,,,,,,,0,,,48,0
70710,note_on,0,0,1,,,,,,,,,0,,,72,0
70710,note_on,0,0,1,,,,,,,,,0,,,80,73
70710,note_on,30,0,1,,,,,,,,,0,,,78,0
70740,note_on,0,0,1,,,,,,,,,0,,,66,86
70740,note_on,0,0,1,,,,,,,,,0,,,72,76
70740,note_on,0,0,1,,,,,,,,,0,,,63,0
70740,note_on,30,0,1,,,,,,,,,0,,,80,0
70740,note_on,0,0,1,,,,,,,,,0,,,75,76
70770,note_on,30,0,1,,,,,,,,,0,,,75,0
70770,note_on,0,0,1,,,,,,,,,0,,,72,0
70770,note_on,0,0,1,,,,,,,,,0,,,80,79
70785,control_change,225,0,4,,,,,,,,,0,64,0,,
70800,note_on,30,0,1,,,,,,,,,0,,,80,0
70800,note_on,0,0,1,,,,,,,,,0,,,66,0
70800,note_on,0,0,1,,,,,,,,,0,,,73,81
70800,note_on,0,0,1,,,,,,,,,0,,,77,81
70800,note_on,0,0,1,,,,,,,,,0,,,65,91
70800,control_change,15,0,4,,,,,,,,,0,64,127,,
70800,note_on,120,0,3,,,,,,,,,0,,,56,0
70800,note_on,0,0,3,,,,,,,,,0,,,61,101
70830,note_on,0,0,1,,,,,,,,,0,,,80,84
70830,note_on,0,0,1,,,,,,,,,0,,,73,0
70830,note_on,30,0,1,,,,,,,,,0,,,77,0
70860,note_on,0,0,1,,,,,,,,,0,,,68,97
70860,note_on,0,0,1,,,,,,,,,0,,,83,87
70860,note_on,0,0,1,,,,,,,,,0,,,77,87
70860,note_on,0,0,1,,,,,,,,,0,,,65,0
70860,note_on,30,0,1,,,,,,,,,0,,,80,0
70890,note_on,0,0,1,,,,,,,,,0,,,85,89
70890,note_on,30,0,1,,,,,,,,,0,,,83,0
70890,note_on,0,0,1,,,,,,,,,0,,,77,0
70905,control_change,105,0,4,,,,,,,,,0,64,0,,
70920,note_on,0,0,1,,,,,,,,,0,,,70,102
70920,note_on,0,0,1,,,,,,,,,0,,,82,92
70920,note_on,0,0,1,,,,,,,,,0,,,78,92
70920,note_on,0,0,1,,,,,,,,,0,,,68,0
70920,note_on,30,0,1,,,,,,,,,0,,,85,0
70920,control_change,15,0,4,,,,,,,,,0,64,127,,
70950,note_on,0,0,1,,,,,,,,,0,,,85,95
70950,note_on,0,0,1,,,,,,,,,0,,,78,0
70950,note_on,30,0,1,,,,,,,,,0,,,82,0
70980,note_on,0,0,1,,,,,,,,,0,,,71,108
70980,note_on,0,0,1,,,,,,,,,0,,,80,98
70980,note_on,0,0,1,,,,,,,,,0,,,77,98
70980,note_on,30,0,1,,,,,,,,,0,,,85,0
70980,note_on,0,0,1,,,,,,,,,0,,,70,0
71010,note_on,0,0,1,,,,,,,,,0,,,85,100
71010,note_on,0,0,1,,,,,,,,,0,,,77,0
71010,note_on,30,0,1,,,,,,,,,0,,,80,0
71025,control_change,105,0,4,,,,,,,,,0,64,0,,
71040,note_on,0,0,3,,,,,,,,,0,,,42,100
71040,note_on,240,0,3,,,,,,,,,0,,,61,0
71040,note_on,30,0,1,,,,,,,,,0,,,85,0
71040,note_on,0,0,1,,,,,,,,,0,,,71,0
71040,note_on,0,0,1,,,,,,,,,0,,,90,110
71040,control_change,15,0,4,,,,,,,,,0,64,127,,
71055,note_on,15,0,3,,,,,,,,,0,,,42,0
71070,note_on,15,0,3,,,,,,,,,0,,,58,100
71085,note_on,0,0,1,,,,,,,,,0,,,85,110
71085,note_on,45,0,1,,,,,,,,,0,,,90,0
71100,note_on,0,0,1,,,,,,,,,0,,,82,120
71100,note_on,0,0,3,,,,,,,,,0,,,49,100
71100,note_on,30,0,3,,,,,,,,,0,,,58,0
71100,note_on,15,0,1,,,,,,,,,0,,,85,0
71100,note_on,0,0,1,,,,,,,,,0,,,94,120
71130,note_on,30,0,3,,,,,,,,,0,,,49,0
71130,note_on,0,0,3,,,,,,,,,0,,,58,100
71160,note_on,0,0,3,,,,,,,,,0,,,54,100
71160,note_on,30,0,3,,,,,,,,,0,,,58,0
71190,note_on,0,0,3,,,,,,,,,0,,,58,100
71190,note_on,30,0,3,,,,,,,,,0,,,54,0
71205,note_on,105,0,1,,,,,,,,,0,,,94,0
71205,note_on,0,0,1,,,,,,,,,0,,,82,0
71205,note_on,0,0,1,,,,,,,,,0,,,90,110
71220,note_on,30,0,3,,,,,,,,,0,,,58,0
71220,note_on,0,0,3,,,,,,,,,0,,,49,100
71220,note_on,15,0,1,,,,,,,,,0,,,90,0
71220,note_on,0,0,1,,,,,,,,,0,,,94,120
71220,note_on,0,0,1,,,,,,,,,0,,,82,120
71250,note_on,30,0,3,,,,,,,,,0,,,49,0
71250,note_on,0,0,3,,,,,,,,,0,,,58,100
71280,note_on,30,0,3,,,,,,,,,0,,,58,0
71280,note_on,0,0,3,,,,,,,,,0,,,42,100
71295,note_on,15,0,3,,,,,,,,,0,,,42,0
71310,note_on,15,0,3,,,,,,,,,0,,,58,100
71340,note_on,0,0,1,,,,,,,,,0,,,90,110
71340,note_on,30,0,3,,,,,,,,,0,,,58,0
71340,note_on,0,0,3,,,,,,,,,0,,,49,100
71340,note_on,120,0,1,,,,,,,,,0,,,94,0
71340,note_on,0,0,1,,,,,,,,,0,,,78,110
71340,note_on,0,0,1,,,,,,,,,0,,,82,0
71370,note_on,30,0,3,,,,,,,,,0,,,49,0
71370,note_on,0,0,3,,,,,,,,,0,,,58,100
71400,note_on,30,0,3,,,,,,,,,0,,,58,0
71400,note_on,0,0,3,,,,,,,,,0,,,54,100
71400,note_on,60,0,1,,,,,,,,,0,,,78,0
71400,note_on,0,0,1,,,,,,,,,0,,,90,0
71400,note_on,0,0,1,,,,,,,,,0,,,73,110
71400,note_on,0,0,1,,,,,,,,,0,,,85,110
71430,note_on,0,0,3,,,,,,,,,0,,,58,100
71430,note_on,30,0,3,,,,,,,,,0,,,54,0
71460,note_on,0,0,3,,,,,,,,,0,,,49,100
71460,note_on,30,0,3,,,,,,,,,0,,,58,0
71460,note_on,0,0,1,,,,,,,,,0,,,70,110
71460,note_on,0,0,1,,,,,,,,,0,,,82,110
71460,note_on,0,0,1,,,,,,,,,0,,,85,0
71460,note_on,60,0,1,,,,,,,,,0,,,73,0
71490,note_on,0,0,3,,,,,,,,,0,,,58,100
71490,note_on,30,0,3,,,,,,,,,0,,,49,0
71505,control_change,465,0,4,,,,,,,,,0,64,0,,
71520,note_on,0,0,3,,,,,,,,,0,,,41,100
71520,note_on,30,0,3,,,,,,,,,0,,,58,0
71520,control_change,15,0,4,,,,,,,,,0,64,127,,
71520,note_on,0,0,1,,,,,,,,,0,,,82,0
71520,note_on,60,0,1,,,,,,,,,0,,,70,0
71535,note_on,15,0,3,,,,,,,,,0,,,41,0
71550,note_on,15,0,3,,,,,,,,,0,,,59,100
71565,note_on,45,0,1,,,,,,,,,0,,,85,110
71580,note_on,30,0,3,,,,,,,,,0,,,59,0
71580,note_on,0,0,3,,,,,,,,,0,,,49,100
71580,note_on,0,0,1,,,,,,,,,0,,,95,120
71580,note_on,15,0,1,,,,,,,,,0,,,85,0
71580,note_on,0,0,1,,,,,,,,,0,,,83,120
71610,note_on,30,0,3,,,,,,,,,0,,,49,0
71610,note_on,0,0,3,,,,,,,,,0,,,59,100
71640,note_on,30,0,3,,,,,,,,,0,,,59,0
71640,note_on,0,0,3,,,,,,,,,0,,,56,100
71670,note_on,30,0,3,,,,,,,,,0,,,56,0
71670,note_on,0,0,3,,,,,,,,,0,,,59,100
71685,note_on,0,0,1,,,,,,,,,0,,,92,110
71685,note_on,105,0,1,,,,,,,,,0,,,83,0
71685,note_on,0,0,1,,,,,,,,,0,,,95,0
71700,note_on,30,0,3,,,,,,,,,0,,,59,0
71700,note_on,0,0,3,,,,,,,,,0,,,49,100
71700,note_on,15,0,1,,,,,,,,,0,,,92,0
71700,note_on,0,0,1,,,,,,,,,0,,,95,120
71700,note_on,0,0,1,,,,,,,,,0,,,83,120
71730,note_on,30,0,3,,,,,,,,,0,,,49,0
71730,note_on,0,0,3,,,,,,,,,0,,,59,100
71760,note_on,0,0,3,,,,,,,,,0,,,41,100
71760,note_on,30,0,3,,,,,,,,,0,,,59,0
71775,note_on,15,0,3,,,,,,,,,0,,,41,0
71790,note_on,15,0,3,,,,,,,,,0,,,59,100
71820,note_on,0,0,1,,,,,,,,,0,,,80,110
71820,note_on,0,0,1,,,,,,,,,0,,,92,110
71820,note_on,0,0,3,,,,,,,,,0,,,49,100
71820,note_on,0,0,1,,,,,,,,,0,,,95,0
71820,note_on,120,0,1,,,,,,,,,0,,,83,0
71820,note_on,30,0,3,,,,,,,,,0,,,59,0
71850,note_on,30,0,3,,,,,,,,,0,,,49,0
71850,note_on,0,0,3,,,,,,,,,0,,,59,100
71880,note_on,0,0,1,,,,,,,,,0,,,77,110
71880,note_on,0,0,1,,,,,,,,,0,,,89,110
71880,note_on,0,0,1,,,,,,,,,0,,,92,0
71880,note_on,60,0,1,,,,,,,,,0,,,80,0
71880,note_on,30,0,3,,,,,,,,,0,,,59,0
71880,note_on,0,0,3,,,,,,,,,0,,,56,100
71910,note_on,0,0,3,,,,,,,,,0,,,59,100
71910,note_on,30,0,3,,,,,,,,,0,,,56,0
71940,note_on,0,0,1,,,,,,,,,0,,,83,110
71940,note_on,0,0,3,,,,,,,,,0,,,49,100
71940,note_on,60,0,1,,,,,,,,,0,,,77,0
71940,note_on,0,0,1,,,,,,,,,0,,,71,110
71940,note_on,0,0,1,,,,,,,,,0,,,89,0
71940,note_on,30,0,3,,,,,,,,,0,,,59,0
71970,note_on,30,0,3,,,,,,,,,0,,,49,0
71970,note_on,0,0,3,,,,,,,,,0,,,59,100
71985,control_change,465,0,4,,,,,,,,,0,64,0,,
72000,control_change,15,0,4,,,,,,,,,0,64,127,,
72000,note_on,0,0,3,,,,,,,,,0,,,42,100
72000,note_on,0,0,1,,,,,,,,,0,,,83,0
72000,note_on,60,0,1,,,,,,,,,0,,,71,0
72000,note_on,30,0,3,,,,,,,,,0,,,59,0
72015,note_on,15,0,3,,,,,,,,,0,,,42,0
72030,note_on,15,0,3,,,,,,,,,0,,,58,98
72045,note_on,45,0,1,,,,,,,,,0,,,73,106
72060,note_on,0,0,1,,,,,,,,,0,,,82,115
72060,note_on,15,0,1,,,,,,,,,0,,,73,0
72060,note_on,0,0,1,,,,,,,,,0,,,70,115
72060,note_on,30,0,3,,,,,,,,,0,,,58,0
72060,note_on,0,0,3,,,,,,,,,0,,,49,95
72090,note_on,30,0,3,,,,,,,,,0,,,49,0
72090,note_on,0,0,3,,,,,,,,,0,,,58,92
72120,note_on,30,0,3,,,,,,,,,0,,,58,0
72120,note_on,0,0,3,,,,,,,,,0,,,54,90
72150,note_on,30,0,3,,,,,,,,,0,,,54,0
72150,note_on,0,0,3,,,,,,,,,0,,,58,87
72165,note_on,0,0,1,,,,,,,,,0,,,82,0
72165,note_on,0,0,1,,,,,,,,,0,,,78,96
72165,note_on,105,0,1,,,,,,,,,0,,,70,0
72180,note_on,30,0,3,,,,,,,,,0,,,58,0
72180,note_on,0,0,1,,,,,,,,,0,,,70,104
72180,note_on,0,0,1,,,,,,,,,0,,,82,104
72180,note_on,15,0,1,,,,,,,,,0,,,78,0
72180,note_on,0,0,3,,,,,,,,,0,,,49,84
72210,note_on,30,0,3,,,,,,,,,0,,,49,0
72210,note_on,0,0,3,,,,,,,,,0,,,58,81
72225,control_change,225,0,4,,,,,,,,,0,64,0,,
72240,control_change,15,0,4,,,,,,,,,0,64,127,,
72240,note_on,0,0,3,,,,,,,,,0,,,36,79
72240,note_on,30,0,3,,,,,,,,,0,,,58,0
72255,note_on,15,0,3,,,,,,,,,0,,,36,0
72270,note_on,15,0,3,,,,,,,,,0,,,48,76
72300,note_on,0,0,1,,,,,,,,,0,,,82,0
72300,note_on,0,0,3,,,,,,,,,0,,,51,73
72300,note_on,30,0,3,,,,,,,,,0,,,48,0
72300,note_on,0,0,1,,,,,,,,,0,,,69,83
72300,note_on,120,0,1,,,,,,,,,0,,,70,0
72300,note_on,0,0,1,,,,,,,,,0,,,81,83
72330,note_on,30,0,3,,,,,,,,,0,,,51,0
72330,note_on,0,0,3,,,,,,,,,0,,,48,71
72360,note_on,0,0,3,,,,,,,,,0,,,56,68
72360,note_on,30,0,3,,,,,,,,,0,,,48,0
72360,note_on,0,0,1,,,,,,,,,0,,,80,78
72360,note_on,0,0,1,,,,,,,,,0,,,68,78
72360,note_on,0,0,1,,,,,,,,,0,,,69,0
72360,note_on,60,0,1,,,,,,,,,0,,,81,0
72390,note_on,30,0,3,,,,,,,,,0,,,56,0
72390,note_on,0,0,3,,,,,,,,,0,,,48,65
72420,note_on,0,0,1,,,,,,,,,0,,,66,72
72420,note_on,60,0,1,,,,,,,,,0,,,80,0
72420,note_on,0,0,1,,,,,,,,,0,,,78,72
72420,note_on,0,0,1,,,,,,,,,0,,,68,0
72420,note_on,0,0,3,,,,,,,,,0,,,57,62
72420,note_on,30,0,3,,,,,,,,,0,,,48,0
72450,note_on,30,0,3,,,,,,,,,0,,,57,0
72450,note_on,0,0,3,,,,,,,,,0,,,48,60
72465,control_change,225,0,4,,,,,,,,,0,64,0,,
72480,note_on,0,0,1,,,,,,,,,0,,,77,70
72480,note_on,30,0,3,,,,,,,,,0,,,48,0
72480,note_on,0,0,3,,,,,,,,,0,,,37,60
72480,note_on,0,0,1,,,,,,,,,0,,,66,0
72480,control_change,15,0,4,,,,,,,,,0,64,127,,
72480,note_on,0,0,1,,,,,,,,,0,,,65,70
72480,note_on,60,0,1,,,,,,,,,0,,,78,0
72495,note_on,15,0,3,,,,,,,,,0,,,37,0
72510,note_on,15,0,3,,,,,,,,,0,,,49,60
72540,note_on,60,0,1,,,,,,,,,0,,,65,0
72540,note_on,0,0,3,,,,,,,,,0,,,53,60
72540,note_on,0,0,1,,,,,,,,,0,,,77,0
72540,note_on,0,0,1,,,,,,,,,0,,,85,70
72540,note_on,0,0,1,,,,,,,,,0,,,73,70
72540,note_on,30,0,3,,,,,,,,,0,,,49,0
72570,note_on,30,0,3,,,,,,,,,0,,,53,0
72570,note_on,0,0,3,,,,,,,,,0,,,49,60
72600,note_on,60,0,1,,,,,,,,,0,,,73,0
72600,note_on,0,0,1,,,,,,,,,0,,,71,70
72600,note_on,0,0,1,,,,,,,,,0,,,85,0
72600,note_on,30,0,3,,,,,,,,,0,,,49,0
72600,note_on,0,0,3,,,,,,,,,0,,,56,60
72600,note_on,0,0,1,,,,,,,,,0,,,83,70
72630,note_on,30,0,3,,,,,,,,,0,,,56,0
72630,note_on,0,0,3,,,,,,,,,0,,,49,60
72660,note_on,30,0,3,,,,,,,,,0,,,49,0
72660,note_on,0,0,3,,,,,,,,,0,,,59,60
72660,note_on,0,0,1,,,,,,,,,0,,,68,70
72660,note_on,0,0,1,,,,,,,,,0,,,80,70
72660,note_on,0,0,1,,,,,,,,,0,,,83,0
72660,note_on,60,0,1,,,,,,,,,0,,,71,0
72690,note_on,30,0,3,,,,,,,,,0,,,59,0
72690,note_on,0,0,3,,,,,,,,,0,,,49,60
72705,control_change,225,0,4,,,,,,,,,0,64,0,,
72720,note_on,0,0,3,,,,,,,,,0,,,42,60
72720,note_on,0,0,1,,,,,,,,,0,,,80,0
72720,note_on,0,0,1,,,,,,,,,0,,,78,70
72720,note_on,0,0,1,,,,,,,,,0,,,66,70
72720,note_on,30,0,3,,,,,,,,,0,,,49,0
72720,note_on,60,0,1,,,,,,,,,0,,,68,0
72720,control_change,15,0,4,,,,,,,,,0,64,127,,
72735,note_on,15,0,3,,,,,,,,,0,,,42,0
72750,note_on,15,0,3,,,,,,,,,0,,,49,60
72780,note_on,0,0,3,,,,,,,,,0,,,58,60
72780,note_on,30,0,3,,,,,,,,,0,,,49,0
72810,note_on,30,0,3,,,,,,,,,0,,,58,0
72810,note_on,0,0,3,,,,,,,,,0,,,54,60
72840,note_on,0,0,3,,,,,,,,,0,,,49,60
72840,note_on,30,0,3,,,,,,,,,0,,,54,0
72870,note_on,30,0,3,,,,,,,,,0,,,49,0
72870,note_on,0,0,3,,,,,,,,,0,,,54,60
72900,note_on,30,0,3,,,,,,,,,0,,,54,0
72900,note_on,0,0,3,,,,,,,,,0,,,49,60
72930,note_on,30,0,3,,,,,,,,,0,,,49,0
72930,note_on,0,0,3,,,,,,,,,0,,,46,60
72945,control_change,225,0,4,,,,,,,,,0,64,0,,
72960,note_on,30,0,3,,,,,,,,,0,,,46,0
72960,note_on,240,0,1,,,,,,,,,0,,,66,0
72960,control_change,15,0,4,,,,,,,,,0,64,127,,
72960,note_on,0,0,1,,,,,,,,,0,,,78,0
72960,note_on,0,0,1,,,,,,,,,0,,,62,100
72990,note_on,30,0,1,,,,,,,,,0,,,62,0
72990,note_on,0,0,1,,,,,,,,,0,,,74,100
73005,note_on,45,0,3,,,,,,,,,0,,,46,110
73020,note_on,15,0,3,,,,,,,,,0,,,58,120
73020,note_on,30,0,1,,,,,,,,,0,,,74,0
73020,note_on,0,0,1,,,,,,,,,0,,,70,100
73020,note_on,0,0,1,,,,,,,,,0,,,65,100
73050,note_on,0,0,1,,,,,,,,,0,,,65,0
73050,note_on,0,0,1,,,,,,,,,0,,,74,100
73050,note_on,30,0,1,,,,,,,,,0,,,70,0
73080,note_on,30,0,1,,,,,,,,,0,,,74,0
73080,note_on,0,0,1,,,,,,,,,0,,,62,100
73110,note_on,0,0,1,,,,,,,,,0,,,74,100
73110,note_on,30,0,1,,,,,,,,,0,,,62,0
73125,note_on,105,0,3,,,,,,,,,0,,,58,0
73125,note_on,0,0,3,,,,,,,,,0,,,46,0
73125,note_on,0,0,3,,,,,,,,,0,,,46,110
73140,note_on,0,0,1,,,,,,,,,0,,,70,100
73140,note_on,0,0,1,,,,,,,,,0,,,65,100
73140,note_on,30,0,1,,,,,,,,,0,,,74,0
73140,note_on,15,0,3,,,,,,,,,0,,,58,120
73170,note_on,0,0,1,,,,,,,,,0,,,74,100
73170,note_on,0,0,1,,,,,,,,,0,,,65,0
73170,note_on,30,0,1,,,,,,,,,0,,,70,0
73200,note_on,0,0,1,,,,,,,,,0,,,63,100
73200,note_on,30,0,1,,,,,,,,,0,,,74,0
73200,control_change,240,0,4,,,,,,,,,0,64,0,,
73230,note_on,30,0,1,,,,,,,,,0,,,63,0
73230,note_on,0,0,1,,,,,,,,,0,,,75,100
73260,note_on,30,0,1,,,,,,,,,0,,,75,0
73260,note_on,0,0,3,,,,,,,,,0,,,46,0
73260,note_on,0,0,3,,,,,,,,,0,,,42,110
73260,note_on,0,0,3,,,,,,,,,0,,,54,110
73260,note_on,0,0,1,,,,,,,,,0,,,70,100
73260,note_on,0,0,1,,,,,,,,,0,,,66,100
73260,note_on,120,0,3,,,,,,,,,0,,,58,0
73290,note_on,30,0,3,,,,,,,,,0,,,54,0
73290,note_on,0,0,3,,,,,,,,,0,,,42,0
73290,note_on,0,0,1,,,,,,,,,0,,,66,0
73290,note_on,30,0,1,,,,,,,,,0,,,70,0
73290,note_on,0,0,1,,,,,,,,,0,,,75,100
73320,note_on,30,0,3,,,,,,,,,0,,,39,110
73320,note_on,0,0,3,,,,,,,,,0,,,51,110
73320,note_on,0,0,1,,,,,,,,,0,,,70,100
73320,note_on,30,0,1,,,,,,,,,0,,,75,0
73350,note_on,0,0,1,,,,,,,,,0,,,82,100
73350,note_on,0,0,3,,,,,,,,,0,,,39,0
73350,note_on,30,0,1,,,,,,,,,0,,,70,0
73350,note_on,30,0,3,,,,,,,,,0,,,51,0
73380,note_on,30,0,3,,,,,,,,,0,,,34,110
73380,note_on,0,0,3,,,,,,,,,0,,,46,110
73380,note_on,0,0,1,,,,,,,,,0,,,78,100
73380,note_on,0,0,1,,,,,,,,,0,,,75,100
73380,note_on,30,0,1,,,,,,,,,0,,,82,0
73410,note_on,30,0,3,,,,,,,,,0,,,46,0
73410,note_on,0,0,3,,,,,,,,,0,,,34,0
73410,note_on,0,0,1,,,,,,,,,0,,,82,100
73410,note_on,0,0,1,,,,,,,,,0,,,75,0
73410,note_on,30,0,1,,,,,,,,,0,,,78,0
73440,control_change,240,0,4,,,,,,,,,0,64,127,,
73440,note_on,0,0,1,,,,,,,,,0,,,63,100
73440,note_on,30,0,1,,,,,,,,,0,,,82,0
73470,note_on,0,0,1,,,,,,,,,0,,,75,100
73470,note_on,30,0,1,,,,,,,,,0,,,63,0
73485,note_on,75,0,3,,,,,,,,,0,,,46,110
73500,note_on,30,0,1,,,,,,,,,0,,,75,0
73500,note_on,15,0,3,,,,,,,,,0,,,58,120
73500,note_on,0,0,1,,,,,,,,,0,,,66,100
73500,note_on,0,0,1,,,,,,,,,0,,,70,100
73530,note_on,30,0,1,,,,,,,,,0,,,70,0
73530,note_on,0,0,1,,,,,,,,,0,,,66,0
73530,note_on,0,0,1,,,,,,,,,0,,,75,100
73560,note_on,30,0,1,,,,,,,,,0,,,75,0
73560,note_on,0,0,1,,,,,,,,,0,,,63,100
73590,note_on,30,0,1,,,,,,,,,0,,,63,0
73590,note_on,0,0,1,,,,,,,,,0,,,75,100
73605,note_on,0,0,3,,,,,,,,,0,,,45,110
73605,note_on,0,0,3,,,,,,,,,0,,,46,0
73605,note_on,105,0,3,,,,,,,,,0,,,58,0
73620,note_on,0,0,1,,,,,,,,,0,,,73,100
73620,note_on,30,0,1,,,,,,,,,0,,,75,0
73620,note_on,0,0,1,,,,,,,,,0,,,67,100
73620,note_on,15,0,3,,,,,,,,,0,,,57,120
73650,note_on,0,0,1,,,,,,,,,0,,,67,0
73650,note_on,0,0,1,,,,,,,,,0,,,75,100
73650,note_on,30,0,1,,,,,,,,,0,,,73,0
73680,control_change,240,0,4,,,,,,,,,0,64,0,,
73680,note_on,0,0,1,,,,,,,,,0,,,63,100
73680,note_on,30,0,1,,,,,,,,,0,,,75,0
73710,note_on,30,0,1,,,,,,,,,0,,,63,0
73710,note_on,0,0,1,,,,,,,,,0,,,75,100
73740,note_on,30,0,1,,,,,,,,,0,,,75,0
73740,note_on,0,0,1,,,,,,,,,0,,,68,100
73740,note_on,0,0,1,,,,,,,,,0,,,72,100
73740,note_on,0,0,3,,,,,,,,,0,,,45,0
73740,note_on,120,0,3,,,,,,,,,0,,,57,0
73740,note_on,0,0,3,,,,,,,,,0,,,39,110
73740,note_on,0,0,3,,,,,,,,,0,,,51,110
73770,note_on,30,0,1,,,,,,,,,0,,,72,0
73770,note_on,0,0,3,,,,,,,,,0,,,39,0
73770,note_on,30,0,3,,,,,,,,,0,,,51,0
73770,note_on,0,0,1,,,,,,,,,0,,,75,100
73770,note_on,0,0,1,,,,,,,,,0,,,68,0
73800,note_on,0,0,3,,,,,,,,,0,,,48,110
73800,note_on,30,0,3,,,,,,,,,0,,,36,110
73800,note_on,0,0,1,,,,,,,,,0,,,72,100
73800,note_on,30,0,1,,,,,,,,,0,,,75,0
73830,note_on,0,0,3,,,,,,,,,0,,,36,0
73830,note_on,30,0,3,,,,,,,,,0,,,48,0
73830,note_on,0,0,1,,,,,,,,,0,,,84,100
73830,note_on,30,0,1,,,,,,,,,0,,,72,0
73860,note_on,30,0,3,,,,,,,,,0,,,30,110
73860,note_on,0,0,3,,,,,,,,,0,,,42,110
73860,note_on,0,0,1,,,,,,,,,0,,,80,100
73860,note_on,0,0,1,,,,,,,,,0,,,75,100
73860,note_on,30,0,1,,,,,,,,,0,,,84,0
73890,note_on,30,0,3,,,,,,,,,0,,,42,0
73890,note_on,0,0,3,,,,,,,,,0,,,30,0
73890,note_on,0,0,1,,,,,,,,,0,,,84,100
73890,note_on,0,0,1,,,,,,,,,0,,,75,0
73890,note_on,30,0,1,,,,,,,,,0,,,80,0
73920,control_change,240,0,4,,,,,,,,,0,64,127,,
73920,note_on,30,0,1,,,,,,,,,0,,,84,0
73920,note_on,30,0,3,,,,,,,,,0,,,41,60
73950,note_on,0,0,3,,,,,,,,,0,,,53,60
73950,note_on,30,0,3,,,,,,,,,0,,,41,0
73965,note_on,45,0,1,,,,,,,,,0,,,73,70
73980,note_on,30,0,3,,,,,,,,,0,,,53,0
73980,note_on,0,0,3,,,,,,,,,0,,,44,60
73980,note_on,0,0,3,,,,,,,,,0,,,49,60
73980,note_on,15,0,1,,,,,,,,,0,,,85,80
74010,note_on,30,0,3,,,,,,,,,0,,,49,0
74010,note_on,0,0,3,,,,,,,,,0,,,44,0
74010,note_on,0,0,3,,,,,,,,,0,,,53,60
74025,control_change,105,0,4,,,,,,,,,0,64,0,,
74040,note_on,0,0,3,,,,,,,,,0,,,43,60
74040,note_on,30,0,3,,,,,,,,,0,,,53,0
74040,control_change,15,0,4,,,,,,,,,0,64,127,,
74070,note_on,30,0,3,,,,,,,,,0,,,43,0
74070,note_on,0,0,3,,,,,,,,,0,,,53,60
74085,note_on,0,0,1,,,,,,,,,0,,,73,70
74085,note_on,105,0,1,,,,,,,,,0,,,85,0
74085,note_on,0,0,1,,,,,,,,,0,,,73,0
74100,note_on,15,0,1,,,,,,,,,0,,,85,80
74100,note_on,30,0,3,,,,,,,,,0,,,53,0
74100,note_on,0,0,3,,,,,,,,,0,,,44,60
74100,note_on,0,0,3,,,,,,,,,0,,,49,60
74130,note_on,30,0,3,,,,,,,,,0,,,49,0
74130,note_on,0,0,3,,,,,,,,,0,,,44,0
74130,note_on,0,0,3,,,,,,,,,0,,,53,60
74145,control_change,105,0,4,,,,,,,,,0,64,0,,
74160,control_change,15,0,4,,,,,,,,,0,64,127,,
74160,note_on,0,0,3,,,,,,,,,0,,,42,60
74160,note_on,30,0,3,,,,,,,,,0,,,53,0
74190,note_on,0,0,3,,,,,,,,,0,,,51,60
74190,note_on,30,0,3,,,,,,,,,0,,,42,0
74220,note_on,0,0,1,,,,,,,,,0,,,73,0
74220,note_on,0,0,1,,,,,,,,,0,,,70,70
74220,note_on,0,0,3,,,,,,,,,0,,,49,60
74220,note_on,0,0,3,,,,,,,,,0,,,46,60
74220,note_on,30,0,3,,,,,,,,,0,,,51,0
74220,note_on,120,0,1,,,,,,,,,0,,,85,0
74220,note_on,0,0,1,,,,,,,,,0,,,82,70
74250,note_on,0,0,3,,,,,,,,,0,,,51,60
74250,note_on,0,0,3,,,,,,,,,0,,,46,0
74250,note_on,30,0,3,,,,,,,,,0,,,49,0
74265,control_change,105,0,4,,,,,,,,,0,64,0,,
74280,control_change,15,0,4,,,,,,,,,0,64,127,,
74280,note_on,0,0,1,,,,,,,,,0,,,66,70
74280,note_on,0,0,1,,,,,,,,,0,,,70,0
74280,note_on,0,0,1,,,,,,,,,0,,,78,70
74280,note_on,0,0,3,,,,,,,,,0,,,45,60
74280,note_on,30,0,3,,,,,,,,,0,,,51,0
74280,note_on,60,0,1,,,,,,,,,0,,,82,0
74310,note_on,0,0,3,,,,,,,,,0,,,54,60
74310,note_on,30,0,3,,,,,,,,,0,,,45,0
74340,note_on,0,0,1,,,,,,,,,0,,,82,70
74340,note_on,60,0,1,,,,,,,,,0,,,78,0
74340,note_on,0,0,1,,,,,,,,,0,,,66,0
74340,note_on,30,0,3,,,,,,,,,0,,,54,0
74340,note_on,0,0,3,,,,,,,,,0,,,46,60
74340,note_on,0,0,1,,,,,,,,,0,,,70,70
74340,note_on,0,0,3,,,,,,,,,0,,,49,60
74370,note_on,0,0,3,,,,,,,,,0,,,54,60
74370,note_on,0,0,3,,,,,,,,,0,,,46,0
74370,note_on,30,0,3,,,,,,,,,0,,,49,0
74385,control_change,105,0,4,,,,,,,,,0,64,0,,
74400,note_on,30,0,3,,,,,,,,,0,,,54,0
74400,note_on,0,0,1,,,,,,,,,0,,,73,70
74400,note_on,0,0,1,,,,,,,,,0,,,61,70
74400,note_on,0,0,1,,,,,,,,,0,,,70,0
74400,note_on,60,0,1,,,,,,,,,0,,,82,0
74400,control_change,15,0,4,,,,,,,,,0,64,127,,
74400,note_on,0,0,3,,,,,,,,,0,,,44,60
74430,note_on,0,0,3,,,,,,,,,0,,,56,60
74430,note_on,30,0,3,,,,,,,,,0,,,44,0
74460,note_on,0,0,3,,,,,,,,,0,,,49,60
74460,note_on,30,0,3,,,,,,,,,0,,,56,0
74460,note_on,0,0,1,,,,,,,,,0,,,68,70
74460,note_on,0,0,3,,,,,,,,,0,,,53,60
74460,note_on,0,0,1,,,,,,,,,0,,,61,0
74460,note_on,60,0,1,,,,,,,,,0,,,73,0
74460,note_on,0,0,1,,,,,,,,,0,,,80,70
74490,note_on,30,0,3,,,,,,,,,0,,,53,0
74490,note_on,0,0,3,,,,,,,,,0,,,56,60
74490,note_on,0,0,3,,,,,,,,,0,,,49,0
74505,control_change,105,0,4,,,,,,,,,0,64,0,,
74520,note_on,30,0,3,,,,,,,,,0,,,56,0
74520,note_on,0,0,3,,,,,,,,,0,,,44,60
74520,note_on,0,0,1,,,,,,,,,0,,,78,70
74520,note_on,0,0,1,,,,,,,,,0,,,66,70
74520,note_on,0,0,1,,,,,,,,,0,,,68,0
74520,control_change,15,0,4,,,,,,,,,0,64,127,,
74520,note_on,60,0,1,,,,,,,,,0,,,80,0
74550,note_on,30,0,3,,,,,,,,,0,,,44,0
74550,note_on,0,0,3,,,,,,,,,0,,,56,60
74580,note_on,0,0,1,,,,,,,,,0,,,63,70
74580,note_on,0,0,1,,,,,,,,,0,,,66,0
74580,note_on,60,0,1,,,,,,,,,0,,,78,0
74580,note_on,0,0,1,,,,,,,,,0,,,75,70
74580,note_on,0,0,3,,,,,,,,,0,,,54,60
74580,note_on,0,0,3,,,,,,,,,0,,,48,60
74580,note_on,30,0,3,,,,,,,,,0,,,56,0
74610,note_on,30,0,3,,,,,,,,,0,,,54,0
74610,note_on,0,0,3,,,,,,,,,0,,,48,0
74610,note_on,0,0,3,,,,,,,,,0,,,56,60
74625,control_change,105,0,4,,,,,,,,,0,64,0,,
74640,note_on,0,0,1,,,,,,,,,0,,,63,0
74640,note_on,60,0,1,,,,,,,,,0,,,75,0
74640,note_on,30,0,3,,,,,,,,,0,,,56,0
74640,control_change,15,0,4,,,,,,,,,0,64,127,,
74640,note_on,0,0,3,,,,,,,,,0,,,37,60
74640,note_on,0,0,1,,,,,,,,,0,,,73,80
74640,note_on,0,0,1,,,,,,,,,0,,,61,70
74655,note_on,15,0,3,,,,,,,,,0,,,37,0
74670,note_on,15,0,3,,,,,,,,,0,,,49,60
74700,note_on,0,0,1,,,,,,,,,0,,,68,70
74700,note_on,60,0,1,,,,,,,,,0,,,61,0
74700,note_on,30,0,3,,,,,,,,,0,,,49,0
74700,note_on,0,0,3,,,,,,,,,0,,,56,60
74700,note_on,0,0,3,,,,,,,,,0,,,53,60
74700,note_on,0,0,1,,,,,,,,,0,,,71,70
74730,note_on,0,0,3,,,,,,,,,0,,,56,0
74730,note_on,30,0,3,,,,,,,,,0,,,53,0
74730,note_on,0,0,3,,,,,,,,,0,,,49,60
74745,control_change,105,0,4,,,,,,,,,0,64,0,,
74760,note_on,0,0,1,,,,,,,,,0,,,71,0
74760,note_on,0,0,1,,,,,,,,,0,,,66,70
74760,note_on,0,0,1,,,,,,,,,0,,,70,70
74760,control_change,15,0,4,,,,,,,,,0,64,127,,
74760,note_on,60,0,1,,,,,,,,,0,,,68,0
74760,note_on,30,0,3,,,,,,,,,0,,,49,0
74760,note_on,0,0,3,,,,,,,,,0,,,58,60
74760,note_on,0,0,3,,,,,,,,,0,,,54,60
74790,note_on,30,0,3,,,,,,,,,0,,,54,0
74790,note_on,0,0,3,,,,,,,,,0,,,58,0
74790,note_on,0,0,3,,,,,,,,,0,,,49,60
74820,note_on,30,0,3,,,,,,,,,0,,,49,0
74820,note_on,0,0,3,,,,,,,,,0,,,59,60
74820,note_on,0,0,3,,,,,,,,,0,,,56,60
74820,note_on,0,0,1,,,,,,,,,0,,,68,70
74820,note_on,0,0,1,,,,,,,,,0,,,65,70
74820,note_on,0,0,1,,,,,,,,,0,,,66,0
74820,note_on,60,0,1,,,,,,,,,0,,,70,0
74850,note_on,30,0,3,,,,,,,,,0,,,56,0
74850,note_on,0,0,3,,,,,,,,,0,,,59,0
74850,note_on,0,0,3,,,,,,,,,0,,,49,60
74865,control_change,105,0,4,,,,,,,,,0,64,0,,
74880,note_on,30,0,3,,,,,,,,,0,,,49,0
74880,control_change,15,0,4,,,,,,,,,0,64,127,,
74880,note_on,0,0,3,,,,,,,,,0,,,42,70
74880,note_on,0,0,1,,,,,,,,,0,,,61,60
74880,note_on,0,0,1,,,,,,,,,0,,,73,0
74880,note_on,0,0,1,,,,,,,,,0,,,65,0
74880,note_on,60,0,1,,,,,,,,,0,,,68,0
74910,note_on,0,0,1,,,,,,,,,0,,,73,62
74910,note_on,30,0,1,,,,,,,,,0,,,61,0
74925,note_on,45,0,3,,,,,,,,,0,,,42,0
74925,note_on,0,0,3,,,,,,,,,0,,,49,74
74940,note_on,0,0,1,,,,,,,,,0,,,70,65
74940,note_on,0,0,3,,,,,,,,,0,,,58,85
74940,note_on,15,0,3,,,,,,,,,0,,,49,0
74940,note_on,30,0,1,,,,,,,,,0,,,73,0
74940,note_on,0,0,1,,,,,,,,,0,,,66,65
74970,note_on,30,0,1,,,,,,,,,0,,,70,0
74970,note_on,0,0,1,,,,,,,,,0,,,66,0
74970,note_on,0,0,1,,,,,,,,,0,,,73,68
75000,note_on,30,0,1,,,,,,,,,0,,,73,0
75000,note_on,0,0,1,,,,,,,,,0,,,61,70
75030,note_on,0,0,1,,,,,,,,,0,,,73,73
75030,note_on,30,0,1,,,,,,,,,0,,,61,0
75045,note_on,0,0,3,,,,,,,,,0,,,54,84
75045,note_on,105,0,3,,,,,,,,,0,,,58,0
75060,note_on,30,0,1,,,,,,,,,0,,,73,0
75060,note_on,0,0,3,,,,,,,,,0,,,58,96
75060,note_on,0,0,1,,,,,,,,,0,,,70,76
75060,note_on,15,0,3,,,,,,,,,0,,,54,0
75060,note_on,0,0,1,,,,,,,,,0,,,66,76
75090,note_on,30,0,1,,,,,,,,,0,,,70,0
75090,note_on,0,0,1,,,,,,,,,0,,,66,0
75090,note_on,0,0,1,,,,,,,,,0,,,73,79
75120,note_on,30,0,1,,,,,,,,,0,,,73,0
75120,note_on,0,0,1,,,,,,,,,0,,,64,81
75120,control_change,240,0,4,,,,,,,,,0,64,0,,
75150,note_on,30,0,1,,,,,,,,,0,,,64,0
75150,note_on,0,0,1,,,,,,,,,0,,,76,84
75180,note_on,120,0,3,,,,,,,,,0,,,58,0
75180,note_on,30,0,1,,,,,,,,,0,,,76,0
75180,note_on,0,0,1,,,,,,,,,0,,,73,87
75180,note_on,0,0,1,,,,,,,,,0,,,66,87
75180,note_on,0,0,3,,,,,,,,,0,,,54,97
75210,note_on,0,0,1,,,,,,,,,0,,,66,0
75210,note_on,0,0,1,,,,,,,,,0,,,76,89
75210,note_on,30,0,1,,,,,,,,,0,,,73,0
75240,note_on,0,0,1,,,,,,,,,0,,,64,92
75240,note_on,30,0,1,,,,,,,,,0,,,76,0
75240,note_on,60,0,3,,,,,,,,,0,,,54,0
75240,note_on,0,0,3,,,,,,,,,0,,,49,102
75270,note_on,0,0,1,,,,,,,,,0,,,76,95
75270,note_on,30,0,1,,,,,,,,,0,,,64,0
75300,note_on,0,0,1,,,,,,,,,0,,,66,98
75300,note_on,30,0,1,,,,,,,,,0,,,76,0
75300,note_on,0,0,3,,,,,,,,,0,,,46,108
75300,note_on,0,0,1,,,,,,,,,0,,,73,98
75300,note_on,60,0,3,,,,,,,,,0,,,49,0
75330,note_on,30,0,1,,,,,,,,,0,,,73,0
75330,note_on,0,0,1,,,,,,,,,0,,,66,0
75330,note_on,0,0,1,,,,,,,,,0,,,76,100
75360,note_on,30,0,1,,,,,,,,,0,,,76,0
75360,note_on,0,0,1,,,,,,,,,0,,,63,100
75360,control_change,240,0,4,,,,,,,,,0,64,127,,
75360,note_on,60,0,3,,,,,,,,,0,,,46,0
75360,note_on,0,0,3,,,,,,,,,0,,,35,110
75390,note_on,0,0,1,,,,,,,,,0,,,75,100
75390,note_on,30,0,1,,,,,,,,,0,,,63,0
75405,note_on,0,0,3,,,,,,,,,0,,,47,110
75405,note_on,45,0,3,,,,,,,,,0,,,35,0
75420,note_on,0,0,1,,,,,,,,,0,,,71,100
75420,note_on,30,0,1,,,,,,,,,0,,,75,0
75420,note_on,0,0,1,,,,,,,,,0,,,66,100
75420,note_on,0,0,3,,,,,,,,,0,,,51,120
75420,note_on,15,0,3,,,,,,,,,0,,,47,0
75450,note_on,0,0,1,,,,,,,,,0,,,75,100
75450,note_on,0,0,1,,,,,,,,,0,,,66,0
75450,note_on,30,0,1,,,,,,,,,0,,,71,0
75480,note_on,0,0,1,,,,,,,,,0,,,63,100
75480,note_on,30,0,1,,,,,,,,,0,,,75,0
75510,note_on,0,0,1,,,,,,,,,0,,,75,100
75510,note_on,30,0,1,,,,,,,,,0,,,63,0
75525,note_on,105,0,3,,,,,,,,,0,,,51,0
75525,note_on,0,0,3,,,,,,,,,0,,,47,110
75540,note_on,30,0,1,,,,,,,,,0,,,75,0
75540,note_on,0,0,3,,,,,,,,,0,,,51,120
75540,note_on,0,0,1,,,,,,,,,0,,,66,100
75540,note_on,0,0,1,,,,,,,,,0,,,71,100
75540,note_on,15,0,3,,,,,,,,,0,,,47,0
75570,note_on,30,0,1,,,,,,,,,0,,,71,0
75570,note_on,0,0,1,,,,,,,,,0,,,66,0
75570,note_on,0,0,1,,,,,,,,,0,,,75,100
75600,control_change,240,0,4,,,,,,,,,0,64,0,,
75600,note_on,30,0,1,,,,,,,,,0,,,75,0
75600,note_on,0,0,1,,,,,,,,,0,,,69,100
75630,note_on,30,0,1,,,,,,,,,0,,,69,0
75630,note_on,0,0,1,,,,,,,,,0,,,81,100
75660,note_on,30,0,1,,,,,,,,,0,,,81,0
75660,note_on,0,0,1,,,,,,,,,0,,,75,100
75660,note_on,0,0,1,,,,,,,,,0,,,78,100
75660,note_on,0,0,3,,,,,,,,,0,,,48,110
75660,note_on,120,0,3,,,,,,,,,0,,,51,0
75690,note_on,30,0,1,,,,,,,,,0,,,78,0
75690,note_on,0,0,1,,,,,,,,,0,,,75,0
75690,note_on,0,0,1,,,,,,,,,0,,,81,100
75690,note_on,30,0,3,,,,,,,,,0,,,48,0
75720,note_on,30,0,3,,,,,,,,,0,,,45,110
75720,note_on,30,0,1,,,,,,,,,0,,,81,0
75720,note_on,0,0,1,,,,,,,,,0,,,69,100
75750,note_on,30,0,1,,,,,,,,,0,,,69,0
75750,note_on,0,0,1,,,,,,,,,0,,,81,86
75750,note_on,30,0,3,,,,,,,,,0,,,45,0
75780,note_on,30,0,1,,,,,,,,,0,,,81,0
75780,note_on,0,0,1,,,,,,,,,0,,,75,71
75780,note_on,0,0,1,,,,,,,,,0,,,78,71
75780,note_on,30,0,3,,,,,,,,,0,,,36,81
75810,note_on,30,0,3,,,,,,,,,0,,,36,0
75810,note_on,30,0,1,,,,,,,,,0,,,78,0
75810,note_on,0,0,1,,,,,,,,,0,,,75,0
75810,note_on,0,0,1,,,,,,,,,0,,,81,60
75840,note_on,30,0,3,,,,,,,,,0,,,51,60
75840,control_change,240,0,4,,,,,,,,,0,64,127,,
75840,note_on,30,0,1,,,,,,,,,0,,,81,0
75855,note_on,15,0,3,,,,,,,,,0,,,51,0
75870,note_on,15,0,3,,,,,,,,,0,,,60,60
75885,note_on,45,0,1,,,,,,,,,0,,,84,70
75900,note_on,30,0,3,,,,,,,,,0,,,60,0
75900,note_on,0,0,3,,,,,,,,,0,,,54,60
75900,note_on,0,0,3,,,,,,,,,0,,,57,60
75900,note_on,15,0,1,,,,,,,,,0,,,96,80
75930,note_on,0,0,3,,,,,,,,,0,,,60,60
75930,note_on,0,0,3,,,,,,,,,0,,,54,0
75930,note_on,30,0,3,,,,,,,,,0,,,57,0
75945,control_change,105,0,4,,,,,,,,,0,64,0,,
75960,note_on,0,0,3,,,,,,,,,0,,,53,60
75960,control_change,15,0,4,,,,,,,,,0,64,127,,
75960,note_on,30,0,3,,,,,,,,,0,,,60,0
75990,note_on,0,0,3,,,,,,,,,0,,,60,60
75990,note_on,30,0,3,,,,,,,,,0,,,53,0
76005,note_on,0,0,1,,,,,,,,,0,,,84,0
76005,note_on,0,0,1,,,,,,,,,0,,,84,70
76005,note_on,105,0,1,,,,,,,,,0,,,96,0
76020,note_on,0,0,3,,,,,,,,,0,,,54,60
76020,note_on,30,0,3,,,,,,,,,0,,,60,0
76020,note_on,15,0,1,,,,,,,,,0,,,96,80
76020,note_on,0,0,3,,,,,,,,,0,,,57,60
76050,note_on,30,0,3,,,,,,,,,0,,,57,0
76050,note_on,0,0,3,,,,,,,,,0,,,54,0
76050,note_on,0,0,3,,,,,,,,,0,,,60,60
76065,control_change,105,0,4,,,,,,,,,0,64,0,,
76080,note_on,30,0,3,,,,,,,,,0,,,60,0
76080,note_on,0,0,3,,,,,,,,,0,,,49,60
76080,note_on,0,0,1,,,,,,,,,0,,,84,0
76080,note_on,60,0,1,,,,,,,,,0,,,96,0
76080,control_change,15,0,4,,,,,,,,,0,64,127,,
76080,note_on,0,0,1,,,,,,,,,0,,,99,70
76080,note_on,0,0,1,,,,,,,,,0,,,87,70
76110,note_on,30,0,3,,,,,,,,,0,,,49,0
76110,note_on,0,0,3,,,,,,,,,0,,,61,60
76140,note_on,0,0,1,,,,,,,,,0,,,85,70
76140,note_on,0,0,1,,,,,,,,,0,,,99,0
76140,note_on,0,0,1,,,,,,,,,0,,,97,70
76140,note_on,30,0,3,,,,,,,,,0,,,61,0
76140,note_on,0,0,3,,,,,,,,,0,,,58,60
76140,note_on,60,0,1,,,,,,,,,0,,,87,0
76140,note_on,0,0,3,,,,,,,,,0,,,54,60
76170,note_on,0,0,3,,,,,,,,,0,,,54,0
76170,note_on,0,0,3,,,,,,,,,0,,,61,60
76170,note_on,30,0,3,,,,,,,,,0,,,58,0
76185,control_change,105,0,4,,,,,,,,,0,64,0,,
76200,control_change,15,0,4,,,,,,,,,0,64,127,,
76200,note_on,0,0,3,,,,,,,,,0,,,53,60
76200,note_on,30,0,3,,,,,,,,,0,,,61,0
76200,note_on,60,0,1,,,,,,,,,0,,,85,0
76200,note_on,0,0,1,,,,,,,,,0,,,97,0
76200,note_on,0,0,1,,,,,,,,,0,,,94,70
76200,note_on,0,0,1,,,,,,,,,0,,,82,70
76230,note_on,0,0,3,,,,,,,,,0,,,61,60
76230,note_on,30,0,3,,,,,,,,,0,,,53,0
76260,note_on,0,0,1,,,,,,,,,0,,,78,70
76260,note_on,30,0,3,,,,,,,,,0,,,61,0
76260,note_on,0,0,3,,,,,,,,,0,,,54,60
76260,note_on,0,0,3,,,,,,,,,0,,,58,60
76260,note_on,60,0,1,,,,,,,,,0,,,82,0
76260,note_on,0,0,1,,,,,,,,,0,,,94,0
76260,note_on,0,0,1,,,,,,,,,0,,,90,70
76290,note_on,30,0,3,,,,,,,,,0,,,58,0
76290,note_on,0,0,3,,,,,,,,,0,,,54,0
76290,note_on,0,0,3,,,,,,,,,0,,,61,60
76305,control_change,105,0,4,,,,,,,,,0,64,0,,
76320,note_on,0,0,1,,,,,,,,,0,,,90,0
76320,note_on,0,0,1,,,,,,,,,0,,,89,70
76320,note_on,0,0,3,,,,,,,,,0,,,37,60
76320,control_change,15,0,4,,,,,,,,,0,64,127,,
76320,note_on,30,0,3,,,,,,,,,0,,,61,0
76320,note_on,60,0,1,,,,,,,,,0,,,78,0
76320,note_on,0,0,1,,,,,,,,,0,,,77,70
76335,note_on,15,0,3,,,,,,,,,0,,,37,0
76350,note_on,15,0,3,,,,,,,,,0,,,49,60
76380,note_on,60,0,1,,,,,,,,,0,,,77,0
76380,note_on,0,0,3,,,,,,,,,0,,,53,60
76380,note_on,0,0,1,,,,,,,,,0,,,85,70
76380,note_on,0,0,1,,,,,,,,,0,,,89,0
76380,note_on,0,0,1,,,,,,,,,0,,,97,70
76380,note_on,30,0,3,,,,,,,,,0,,,49,0
76410,note_on,0,0,3,,,,,,,,,0,,,49,60
76410,note_on,30,0,3,,,,,,,,,0,,,53,0
76440,note_on,0,0,1,,,,,,,,,0,,,83,70
76440,note_on,0,0,1,,,,,,,,,0,,,95,70
76440,note_on,0,0,1,,,,,,,,,0,,,97,0
76440,note_on,0,0,3,,,,,,,,,0,,,56,60
76440,note_on,30,0,3,,,,,,,,,0,,,49,0
76440,note_on,60,0,1,,,,,,,,,0,,,85,0
76470,note_on,0,0,3,,,,,,,,,0,,,49,60
76470,note_on,30,0,3,,,,,,,,,0,,,56,0
76500,note_on,0,0,1,,,,,,,,,0,,,95,0
76500,note_on,60,0,1,,,,,,,,,0,,,83,0
76500,note_on,0,0,1,,,,,,,,,0,,,80,70
76500,note_on,0,0,3,,,,,,,,,0,,,59,60
76500,note_on,30,0,3,,,,,,,,,0,,,49,0
76500,note_on,0,0,1,,,,,,,,,0,,,92,70
76530,note_on,0,0,3,,,,,,,,,0,,,49,60
76530,note_on,30,0,3,,,,,,,,,0,,,59,0
76545,control_change,225,0,4,,,,,,,,,0,64,0,,
76560,note_on,0,0,1,,,,,,,,,0,,,92,0
76560,note_on,0,0,3,,,,,,,,,0,,,42,60
76560,note_on,60,0,1,,,,,,,,,0,,,80,0
76560,control_change,15,0,4,,,,,,,,,0,64,127,,
76560,note_on,30,0,3,,,,,,,,,0,,,49,0
76560,note_on,0,0,1,,,,,,,,,0,,,90,70
76560,note_on,0,0,1,,,,,,,,,0,,,78,70
76575,note_on,15,0,3,,,,,,,,,0,,,42,0
76590,note_on,15,0,3,,,,,,,,,0,,,49,60
76620,note_on,30,0,3,,,,,,,,,0,,,49,0
76620,note_on,0,0,3,,,,,,,,,0,,,58,60
76650,note_on,30,0,3,,,,,,,,,0,,,58,0
76650,note_on,0,0,3,,,,,,,,,0,,,54,60
76680,note_on,30,0,3,,,,,,,,,0,,,54,0
76680,note_on,0,0,3,,,,,,,,,0,,,49,60
76710,note_on,30,0,3,,,,,,,,,0,,,49,0
76710,note_on,0,0,3,,,,,,,,,0,,,54,60
76740,note_on,30,0,3,,,,,,,,,0,,,54,0
76740,note_on,0,0,3,,,,,,,,,0,,,49,60
76770,note_on,0,0,3,,,,,,,,,0,,,46,60
76770,note_on,30,0,3,,,,,,,,,0,,,49,0
76785,control_change,225,0,4,,,,,,,,,0,64,0,,
76800,control_change,15,0,4,,,,,,,,,0,64,127,,
76800,note_on,0,0,1,,,,,,,,,0,,,78,0
76800,note_on,240,0,1,,,,,,,,,0,,,90,0
76800,note_on,0,0,1,,,,,,,,,0,,,62,100
76800,note_on,30,0,3,,,,,,,,,0,,,46,0
76830,note_on,0,0,1,,,,,,,,,0,,,74,100
76830,note_on,30,0,1,,,,,,,,,0,,,62,0
76845,note_on,45,0,3,,,,,,,,,0,,,46,110
76860,note_on,0,0,1,,,,,,,,,0,,,70,100
76860,note_on,0,0,1,,,,,,,,,0,,,65,100
76860,note_on,30,0,1,,,,,,,,,0,,,74,0
76860,note_on,15,0,3,,,,,,,,,0,,,58,120
76890,note_on,0,0,1,,,,,,,,,0,,,65,0
76890,note_on,0,0,1,,,,,,,,,0,,,74,100
76890,note_on,30,0,1,,,,,,,,,0,,,70,0
76920,note_on,30,0,1,,,,,,,,,0,,,74,0
76920,note_on,0,0,1,,,,,,,,,0,,,62,100
76950,note_on,30,0,1,,,,,,,,,0,,,62,0
76950,note_on,0,0,1,,,,,,,,,0,,,74,100
76965,note_on,0,0,3,,,,,,,,,0,,,46,0
76965,note_on,105,0,3,,,,,,,,,0,,,58,0
76965,note_on,0,0,3,,,,,,,,,0,,,46,110
76980,note_on,0,0,1,,,,,,,,,0,,,65,100
76980,note_on,0,0,1,,,,,,,,,0,,,70,100
76980,note_on,15,0,3,,,,,,,,,0,,,58,120
76980,note_on,30,0,1,,,,,,,,,0,,,74,0
77010,note_on,30,0,1,,,,,,,,,0,,,70,0
77010,note_on,0,0,1,,,,,,,,,0,,,65,0
77010,note_on,0,0,1,,,,,,,,,0,,,74,100
77040,control_change,240,0,4,,,,,,,,,0,64,0,,
77040,note_on,30,0,1,,,,,,,,,0,,,74,0
77040,note_on,0,0,1,,,,,,,,,0,,,63,100
77070,note_on,30,0,1,,,,,,,,,0,,,63,0
77070,note_on,0,0,1,,,,,,,,,0,,,75,100
77100,note_on,30,0,1,,,,,,,,,0,,,75,0
77100,note_on,0,0,3,,,,,,,,,0,,,42,110
77100,note_on,0,0,1,,,,,,,,,0,,,70,100
77100,note_on,0,0,3,,,,,,,,,0,,,54,110
77100,note_on,0,0,3,,,,,,,,,0,,,46,0
77100,note_on,120,0,3,,,,,,,,,0,,,58,0
77100,note_on,0,0,1,,,,,,,,,0,,,66,100
77130,note_on,0,0,1,,,,,,,,,0,,,66,0
77130,note_on,0,0,1,,,,,,,,,0,,,75,100
77130,note_on,30,0,3,,,,,,,,,0,,,54,0
77130,note_on,0,0,3,,,,,,,,,0,,,42,0
77130,note_on,30,0,1,,,,,,,,,0,,,70,0
77160,note_on,30,0,1,,,,,,,,,0,,,75,0
77160,note_on,0,0,1,,,,,,,,,0,,,70,100
77160,note_on,30,0,3,,,,,,,,,0,,,39,110
77160,note_on,0,0,3,,,,,,,,,0,,,51,110
77190,note_on,0,0,1,,,,,,,,,0,,,82,100
77190,note_on,0,0,3,,,,,,,,,0,,,39,0
77190,note_on,30,0,3,,,,,,,,,0,,,51,0
77190,note_on,30,0,1,,,,,,,,,0,,,70,0
77220,note_on,30,0,1,,,,,,,,,0,,,82,0
77220,note_on,0,0,1,,,,,,,,,0,,,75,100
77220,note_on,0,0,1,,,,,,,,,0,,,78,100
77220,note_on,0,0,3,,,,,,,,,0,,,46,110
77220,note_on,30,0,3,,,,,,,,,0,,,34,110
77250,note_on,30,0,1,,,,,,,,,0,,,78,0
77250,note_on,0,0,1,,,,,,,,,0,,,82,100
77250,note_on,0,0,3,,,,,,,,,0,,,34,0
77250,note_on,30,0,3,,,,,,,,,0,,,46,0
77250,note_on,0,0,1,,,,,,,,,0,,,75,0
77280,note_on,0,0,1,,,,,,,,,0,,,63,100
77280,control_change,240,0,4,,,,,,,,,0,64,127,,
77280,note_on,30,0,1,,,,,,,,,0,,,82,0
77310,note_on,30,0,1,,,,,,,,,0,,,63,0
77310,note_on,0,0,1,,,,,,,,,0,,,75,100
77325,note_on,75,0,3,,,,,,,,,0,,,46,110
77340,note_on,30,0,1,,,,,,,,,0,,,75,0
77340,note_on,0,0,1,,,,,,,,,0,,,66,100
77340,note_on,0,0,1,,,,,,,,,0,,,70,100
77340,note_on,15,0,3,,,,,,,,,0,,,58,120
77370,note_on,0,0,1,,,,,,,,,0,,,75,100
77370,note_on,30,0,1,,,,,,,,,0,,,70,0
77370,note_on,0,0,1,,,,,,,,,0,,,66,0
77400,note_on,30,0,1,,,,,,,,,0,,,75,0
77400,note_on,0,0,1,,,,,,,,,0,,,63,100
77430,note_on,30,0,1,,,,,,,,,0,,,63,0
77430,note_on,0,0,1,,,,,,,,,0,,,75,100
77445,note_on,0,0,3,,,,,,,,,0,,,46,0
77445,note_on,105,0,3,,,,,,,,,0,,,58,0
77445,note_on,0,0,3,,,,,,,,,0,,,45,110
77460,note_on,15,0,3,,,,,,,,,0,,,57,120
77460,note_on,0,0,1,,,,,,,,,0,,,73,100
77460,note_on,0,0,1,,,,,,,,,0,,,67,100
77460,note_on,30,0,1,,,,,,,,,0,,,75,0
77490,note_on,0,0,1,,,,,,,,,0,,,75,100
77490,note_on,0,0,1,,,,,,,,,0,,,67,0
77490,note_on,30,0,1,,,,,,,,,0,,,73,0
77520,control_change,240,0,4,,,,,,,,,0,64,0,,
77520,note_on,30,0,1,,,,,,,,,0,,,75,0
77520,note_on,0,0,1,,,,,,,,,0,,,63,100
77550,note_on,30,0,1,,,,,,,,,0,,,63,0
77550,note_on,0,0,1,,,,,,,,,0,,,75,100
77580,note_on,0,0,3,,,,,,,,,0,,,51,110
77580,note_on,0,0,3,,,,,,,,,0,,,39,110
77580,note_on,0,0,3,,,,,,,,,0,,,45,0
77580,note_on,120,0,3,,,,,,,,,0,,,57,0
77580,note_on,0,0,1,,,,,,,,,0,,,68,100
77580,note_on,0,0,1,,,,,,,,,0,,,72,100
77580,note_on,30,0,1,,,,,,,,,0,,,75,0
77610,note_on,0,0,1,,,,,,,,,0,,,75,100
77610,note_on,0,0,1,,,,,,,,,0,,,68,0
77610,note_on,30,0,1,,,,,,,,,0,,,72,0
77610,note_on,30,0,3,,,,,,,,,0,,,51,0
77610,note_on,0,0,3,,,,,,,,,0,,,39,0
77640,note_on,30,0,3,,,,,,,,,0,,,36,110
77640,note_on,0,0,1,,,,,,,,,0,,,72,100
77640,note_on,30,0,1,,,,,,,,,0,,,75,0
77640,note_on,0,0,3,,,,,,,,,0,,,48,110
77670,note_on,30,0,1,,,,,,,,,0,,,72,0
77670,note_on,0,0,3,,,,,,,,,0,,,36,0
77670,note_on,0,0,1,,,,,,,,,0,,,84,100
77670,note_on,30,0,3,,,,,,,,,0,,,48,0
77700,note_on,30,0,3,,,,,,,,,0,,,30,110
77700,note_on,0,0,3,,,,,,,,,0,,,42,110
77700,note_on,30,0,1,,,,,,,,,0,,,84,0
77700,note_on,0,0,1,,,,,,,,,0,,,75,100
77700,note_on,0,0,1,,,,,,,,,0,,,80,100
77730,note_on,0,0,3,,,,,,,,,0,,,30,0
77730,note_on,0,0,1,,,,,,,,,0,,,75,0
77730,note_on,0,0,1,,,,,,,,,0,,,84,100
77730,note_on,30,0,3,,,,,,,,,0,,,42,0
77730,note_on,30,0,1,,,,,,,,,0,,,80,0
77760,note_on,30,0,3,,,,,,,,,0,,,41,60
77760,note_on,30,0,1,,,,,,,,,0,,,84,0
77760,control_change,240,0,4,,,,,,,,,0,64,127,,
77790,note_on,0,0,3,,,,,,,,,0,,,53,60
77790,note_on,30,0,3,,,,,,,,,0,,,41,0
77805,note_on,45,0,1,,,,,,,,,0,,,73,70
77820,note_on,15,0,1,,,,,,,,,0,,,85,80
77820,note_on,30,0,3,,,,,,,,,0,,,53,0
77820,note_on,0,0,3,,,,,,,,,0,,,44,60
77820,note_on,0,0,3,,,,,,,,,0,,,49,60
77850,note_on,0,0,3,,,,,,,,,0,,,44,0
77850,note_on,30,0,3,,,,,,,,,0,,,49,0
77850,note_on,0,0,3,,,,,,,,,0,,,53,60
77865,control_change,105,0,4,,,,,,,,,0,64,0,,
77880,control_change,15,0,4,,,,,,,,,0,64,127,,
77880,note_on,30,0,3,,,,,,,,,0,,,53,0
77880,note_on,0,0,3,,,,,,,,,0,,,43,60
77910,note_on,30,0,3,,,,,,,,,0,,,43,0
77910,note_on,0,0,3,,,,,,,,,0,,,53,60
77925,note_on,105,0,1,,,,,,,,,0,,,85,0
77925,note_on,0,0,1,,,,,,,,,0,,,73,0
77925,note_on,0,0,1,,,,,,,,,0,,,73,70
77940,note_on,0,0,3,,,,,,,,,0,,,49,60
77940,note_on,0,0,3,,,,,,,,,0,,,44,60
77940,note_on,30,0,3,,,,,,,,,0,,,53,0
77940,note_on,15,0,1,,,,,,,,,0,,,85,80
77970,note_on,0,0,3,,,,,,,,,0,,,44,0
77970,note_on,0,0,3,,,,,,,,,0,,,53,60
77970,note_on,30,0,3,,,,,,,,,0,,,49,0
77985,control_change,105,0,4,,,,,,,,,0,64,0,,
78000,note_on,30,0,3,,,,,,,,,0,,,53,0
78000,note_on,0,0,3,,,,,,,,,0,,,42,60
78000,control_change,15,0,4,,,,,,,,,0,64,127,,
78030,note_on,0,0,3,,,,,,,,,0,,,51,60
78030,note_on,30,0,3,,,,,,,,,0,,,42,0
78060,note_on,120,0,1,,,,,,,,,0,,,85,0
78060,note_on,0,0,3,,,,,,,,,0,,,46,60
78060,note_on,30,0,3,,,,,,,,,0,,,51,0
78060,note_on,0,0,3,,,,,,,,,0,,,49,60
78060,note_on,0,0,1,,,,,,,,,0,,,70,70
78060,note_on,0,0,1,,,,,,,,,0,,,73,0
78060,note_on,0,0,1,,,,,,,,,0,,,82,70
78090,note_on,0,0,3,,,,,,,,,0,,,51,60
78090,note_on,0,0,3,,,,,,,,,0,,,46,0
78090,note_on,30,0,3,,,,,,,,,0,,,49,0
78105,control_change,105,0,4,,,,,,,,,0,64,0,,
78120,note_on,60,0,1,,,,,,,,,0,,,82,0
78120,control_change,15,0,4,,,,,,,,,0,64,127,,
78120,note_on,0,0,3,,,,,,,,,0,,,45,60
78120,note_on,0,0,1,,,,,,,,,0,,,66,70
78120,note_on,0,0,1,,,,,,,,,0,,,78,70
78120,note_on,0,0,1,,,,,,,,,0,,,70,0
78120,note_on,30,0,3,,,,,,,,,0,,,51,0
78150,note_on,30,0,3,,,,,,,,,0,,,45,0
78150,note_on,0,0,3,,,,,,,,,0,,,54,60
78180,note_on,0,0,3,,,,,,,,,0,,,46,60
78180,note_on,0,0,3,,,,,,,,,0,,,49,60
78180,note_on,30,0,3,,,,,,,,,0,,,54,0
78180,note_on,60,0,1,,,,,,,,,0,,,78,0
78180,note_on,0,0,1,,,,,,,,,0,,,66,0
78180,note_on,0,0,1,,,,,,,,,0,,,70,70
78180,note_on,0,0,1,,,,,,,,,0,,,82,70
78210,note_on,0,0,3,,,,,,,,,0,,,54,60
78210,note_on,0,0,3,,,,,,,,,0,,,46,0
78210,note_on,30,0,3,,,,,,,,,0,,,49,0
78225,control_change,105,0,4,,,,,,,,,0,64,0,,
78240,note_on,0,0,3,,,,,,,,,0,,,44,60
78240,note_on,30,0,3,,,,,,,,,0,,,54,0
78240,control_change,15,0,4,,,,,,,,,0,64,127,,
78240,note_on,0,0,1,,,,,,,,,0,,,73,70
78240,note_on,0,0,1,,,,,,,,,0,,,61,70
78240,note_on,0,0,1,,,,,,,,,0,,,70,0
78240,note_on,60,0,1,,,,,,,,,0,,,82,0
78270,note_on,30,0,3,,,,,,,,,0,,,44,0
78270,note_on,0,0,3,,,,,,,,,0,,,56,60
78300,note_on,0,0,1,,,,,,,,,0,,,61,0
78300,note_on,0,0,3,,,,,,,,,0,,,49,60
78300,note_on,0,0,3,,,,,,,,,0,,,53,60
78300,note_on,60,0,1,,,,,,,,,0,,,73,0
78300,note_on,30,0,3,,,,,,,,,0,,,56,0
78300,note_on,0,0,1,,,,,,,,,0,,,68,70
78300,note_on,0,0,1,,,,,,,,,0,,,80,70
78330,note_on,30,0,3,,,,,,,,,0,,,53,0
78330,note_on,0,0,3,,,,,,,,,0,,,49,0
78330,note_on,0,0,3,,,,,,,,,0,,,56,60
78345,control_change,105,0,4,,,,,,,,,0,64,0,,
78360,note_on,30,0,3,,,,,,,,,0,,,56,0
78360,note_on,60,0,1,,,,,,,,,0,,,80,0
78360,note_on,0,0,1,,,,,,,,,0,,,68,0
78360,control_change,15,0,4,,,,,,,,,0,64,127,,
78360,note_on,0,0,1,,,,,,,,,0,,,66,70
78360,note_on,0,0,1,,,,,,,,,0,,,78,70
78360,note_on,0,0,3,,,,,,,,,0,,,44,60
78390,note_on,30,0,3,,,,,,,,,0,,,44,0
78390,note_on,0,0,3,,,,,,,,,0,,,56,60
78420,note_on,30,0,3,,,,,,,,,0,,,56,0
78420,note_on,0,0,3,,,,,,,,,0,,,48,60
78420,note_on,0,0,3,,,,,,,,,0,,,54,60
78420,note_on,0,0,1,,,,,,,,,0,,,75,70
78420,note_on,60,0,1,,,,,,,,,0,,,78,0
78420,note_on,0,0,1,,,,,,,,,0,,,63,70
78420,note_on,0,0,1,,,,,,,,,0,,,66,0
78450,note_on,0,0,3,,,,,,,,,0,,,56,60
78450,note_on,0,0,3,,,,,,,,,0,,,48,0
78450,note_on,30,0,3,,,,,,,,,0,,,54,0
78465,control_change,105,0,4,,,,,,,,,0,64,0,,
78480,note_on,0,0,3,,,,,,,,,0,,,37,60
78480,note_on,30,0,3,,,,,,,,,0,,,56,0
78480,note_on,0,0,1,,,,,,,,,0,,,63,0
78480,control_change,15,0,4,,,,,,,,,0,64,127,,
78480,note_on,60,0,1,,,,,,,,,0,,,75,0
78480,note_on,0,0,1,,,,,,,,,0,,,73,80
78480,note_on,0,0,1,,,,,,,,,0,,,61,70
78495,note_on,15,0,3,,,,,,,,,0,,,37,0
78510,note_on,15,0,3,,,,,,,,,0,,,49,60
78540,note_on,0,0,3,,,,,,,,,0,,,53,60
78540,note_on,0,0,1,,,,,,,,,0,,,68,70
78540,note_on,0,0,1,,,,,,,,,0,,,71,70
78540,note_on,60,0,1,,,,,,,,,0,,,61,0
78540,note_on,0,0,3,,,,,,,,,0,,,56,60
78540,note_on,30,0,3,,,,,,,,,0,,,49,0
78570,note_on,30,0,3,,,,,,,,,0,,,53,0
78570,note_on,0,0,3,,,,,,,,,0,,,56,0
78570,note_on,0,0,3,,,,,,,,,0,,,49,60
78585,control_change,105,0,4,,,,,,,,,0,64,0,,
78600,note_on,30,0,3,,,,,,,,,0,,,49,0
78600,note_on,0,0,3,,,,,,,,,0,,,58,60
78600,note_on,0,0,3,,,,,,,,,0,,,54,60
78600,note_on,0,0,1,,,,,,,,,0,,,70,70
78600,note_on,60,0,1,,,,,,,,,0,,,68,0
78600,note_on,0,0,1,,,,,,,,,0,,,66,70
78600,control_change,15,0,4,,,,,,,,,0,64,127,,
78600,note_on,0,0,1,,,,,,,,,0,,,71,0
78630,note_on,0,0,3,,,,,,,,,0,,,49,60
78630,note_on,30,0,3,,,,,,,,,0,,,54,0
78630,note_on,0,0,3,,,,,,,,,0,,,58,0
78660,note_on,60,0,1,,,,,,,,,0,,,70,0
78660,note_on,0,0,1,,,,,,,,,0,,,66,0
78660,note_on,0,0,1,,,,,,,,,0,,,65,70
78660,note_on,0,0,1,,,,,,,,,0,,,68,70
78660,note_on,0,0,3,,,,,,,,,0,,,59,60
78660,note_on,0,0,3,,,,,,,,,0,,,56,60
78660,note_on,30,0,3,,,,,,,,,0,,,49,0
78690,note_on,0,0,3,,,,,,,,,0,,,49,60
78690,note_on,0,0,3,,,,,,,,,0,,,59,0
78690,note_on,30,0,3,,,,,,,,,0,,,56,0
78705,control_change,105,0,4,,,,,,,,,0,64,0,,
78720,note_on,0,0,3,,,,,,,,,0,,,42,70
78720,control_change,15,0,4,,,,,,,,,0,64,127,,
78720,note_on,60,0,1,,,,,,,,,0,,,68,0
78720,note_on,0,0,1,,,,,,,,,0,,,65,0
78720,note_on,30,0,3,,,,,,,,,0,,,49,0
78720,note_on,0,0,1,,,,,,,,,0,,,73,0
78720,note_on,0,0,1,,,,,,,,,0,,,61,60
78750,note_on,30,0,1,,,,,,,,,0,,,61,0
78750,note_on,0,0,1,,,,,,,,,0,,,73,62
78765,note_on,0,0,3,,,,,,,,,0,,,49,74
78765,note_on,45,0,3,,,,,,,,,0,,,42,0
78780,note_on,30,0,1,,,,,,,,,0,,,73,0
78780,note_on,0,0,1,,,,,,,,,0,,,66,65
78780,note_on,0,0,1,,,,,,,,,0,,,70,65
78780,note_on,15,0,3,,,,,,,,,0,,,49,0
78780,note_on,0,0,3,,,,,,,,,0,,,58,85
78810,note_on,30,0,1,,,,,,,,,0,,,70,0
78810,note_on,0,0,1,,,,,,,,,0,,,66,0
78810,note_on,0,0,1,,,,,,,,,0,,,73,68
78840,note_on,0,0,1,,,,,,,,,0,,,61,70
78840,note_on,30,0,1,,,,,,,,,0,,,73,0
78870,note_on,30,0,1,,,,,,,,,0,,,61,0
78870,note_on,0,0,1,,,,,,,,,0,,,73,73
78885,note_on,0,0,3,,,,,,,,,0,,,54,84
78885,note_on,105,0,3,,,,,,,,,0,,,58,0
78900,note_on,0,0,3,,,,,,,,,0,,,58,96
78900,note_on,30,0,1,,,,,,,,,0,,,73,0
78900,note_on,0,0,1,,,,,,,,,0,,,66,76
78900,note_on,0,0,1,,,,,,,,,0,,,70,76
78900,note_on,15,0,3,,,,,,,,,0,,,54,0
78930,note_on,30,0,1,,,,,,,,,0,,,70,0
78930,note_on,0,0,1,,,,,,,,,0,,,73,79
78930,note_on,0,0,1,,,,,,,,,0,,,66,0
78960,control_change,240,0,4,,,,,,,,,0,64,0,,
78960,note_on,30,0,1,,,,,,,,,0,,,73,0
78960,note_on,0,0,1,,,,,,,,,0,,,64,81
78990,note_on,30,0,1,,,,,,,,,0,,,64,0
78990,note_on,0,0,1,,,,,,,,,0,,,76,84
79020,note_on,0,0,1,,,,,,,,,0,,,66,87
79020,note_on,0,0,1,,,,,,,,,0,,,73,87
79020,note_on,30,0,1,,,,,,,,,0,,,76,0
79020,note_on,0,0,3,,,,,,,,,0,,,54,97
79020,note_on,120,0,3,,,,,,,,,0,,,58,0
79050,note_on,0,0,1,,,,,,,,,0,,,76,89
79050,note_on,0,0,1,,,,,,,,,0,,,66,0
79050,note_on,30,0,1,,,,,,,,,0,,,73,0
79080,note_on,30,0,1,,,,,,,,,0,,,76,0
79080,note_on,0,0,1,,,,,,,,,0,,,64,92
79080,note_on,60,0,3,,,,,,,,,0,,,54,0
79080,note_on,0,0,3,,,,,,,,,0,,,49,102
79110,note_on,0,0,1,,,,,,,,,0,,,76,95
79110,note_on,30,0,1,,,,,,,,,0,,,64,0
79140,note_on,0,0,1,,,,,,,,,0,,,66,98
79140,note_on,60,0,3,,,,,,,,,0,,,49,0
79140,note_on,0,0,3,,,,,,,,,0,,,46,108
79140,note_on,30,0,1,,,,,,,,,0,,,76,0
79140,note_on,0,0,1,,,,,,,,,0,,,73,98
79170,note_on,0,0,1,,,,,,,,,0,,,66,0
79170,note_on,0,0,1,,,,,,,,,0,,,76,100
79170,note_on,30,0,1,,,,,,,,,0,,,73,0
79200,note_on,60,0,3,,,,,,,,,0,,,46,0
79200,note_on,30,0,1,,,,,,,,,0,,,76,0
79200,note_on,0,0,1,,,,,,,,,0,,,63,100
79200,control_change,240,0,4,,,,,,,,,0,64,127,,
79200,note_on,0,0,3,,,,,,,,,0,,,35,110
79230,note_on,30,0,1,,,,,,,,,0,,,63,0
79230,note_on,0,0,1,,,,,,,,,0,,,75,100
79245,note_on,45,0,3,,,,,,,,,0,,,35,0
79245,note_on,0,0,3,,,,,,,,,0,,,47,110
79260,note_on,0,0,1,,,,,,,,,0,,,66,100
79260,note_on,0,0,3,,,,,,,,,0,,,51,120
79260,note_on,15,0,3,,,,,,,,,0,,,47,0
79260,note_on,30,0,1,,,,,,,,,0,,,75,0
79260,note_on,0,0,1,,,,,,,,,0,,,71,100
79290,note_on,0,0,1,,,,,,,,,0,,,75,100
79290,note_on,0,0,1,,,,,,,,,0,,,66,0
79290,note_on,30,0,1,,,,,,,,,0,,,71,0
79320,note_on,0,0,1,,,,,,,,,0,,,63,100
79320,note_on,30,0,1,,,,,,,,,0,,,75,0
79350,note_on,0,0,1,,,,,,,,,0,,,75,100
79350,note_on,30,0,1,,,,,,,,,0,,,63,0
79365,note_on,0,0,3,,,,,,,,,0,,,47,110
79365,note_on,105,0,3,,,,,,,,,0,,,51,0
79380,note_on,0,0,1,,,,,,,,,0,,,71,100
79380,note_on,0,0,1,,,,,,,,,0,,,66,100
79380,note_on,15,0,3,,,,,,,,,0,,,47,0
79380,note_on,0,0,3,,,,,,,,,0,,,51,120
79380,note_on,30,0,1,,,,,,,,,0,,,75,0
79410,note_on,30,0,1,,,,,,,,,0,,,71,0
79410,note_on,0,0,1,,,,,,,,,0,,,66,0
79410,note_on,0,0,1,,,,,,,,,0,,,75,100
79440,control_change,240,0,4,,,,,,,,,0,64,0,,
79440,note_on,30,0,1,,,,,,,,,0,,,75,0
79440,note_on,0,0,1,,,,,,,,,0,,,69,100
79470,note_on,30,0,1,,,,,,,,,0,,,69,0
79470,note_on,0,0,1,,,,,,,,,0,,,81,100
79500,note_on,30,0,1,,,,,,,,,0,,,81,0
79500,note_on,0,0,3,,,,,,,,,0,,,48,110
79500,note_on,120,0,3,,,,,,,,,0,,,51,0
79500,note_on,0,0,1,,,,,,,,,0,,,75,100
79500,note_on,0,0,1,,,,,,,,,0,,,78,100
79530,note_on,30,0,3,,,,,,,,,0,,,48,0
79530,note_on,0,0,1,,,,,,,,,0,,,75,0
79530,note_on,30,0,1,,,,,,,,,0,,,78,0
79530,note_on,0,0,1,,,,,,,,,0,,,81,100
79560,note_on,30,0,3,,,,,,,,,0,,,45,110
79560,note_on,30,0,1,,,,,,,,,0,,,81,0
79560,note_on,0,0,1,,,,,,,,,0,,,69,100
79590,note_on,30,0,1,,,,,,,,,0,,,69,0
79590,note_on,0,0,1,,,,,,,,,0,,,81,86
79590,note_on,30,0,3,,,,,,,,,0,,,45,0
79620,note_on,30,0,1,,,,,,,,,0,,,81,0
79620,note_on,0,0,1,,,,,,,,,0,,,75,71
79620,note_on,0,0,1,,,,,,,,,0,,,78,71
79620,note_on,30,0,3,,,,,,,,,0,,,36,81
79650,note_on,30,0,3,,,,,,,,,0,,,36,0
79650,note_on,30,0,1,,,,,,,,,0,,,78,0
79650,note_on,0,0,1,,,,,,,,,0,,,75,0
79650,note_on,0,0,1,,,,,,,,,0,,,81,60
79680,control_change,240,0,4,,,,,,,,,0,64,127,,
79680,note_on,30,0,1,,,,,,,,,0,,,81,0
79680,note_on,30,0,3,,,,,,,,,0,,,51,60
79695,note_on,15,0,3,,,,,,,,,0,,,51,0
79710,note_on,15,0,3,,,,,,,,,0,,,60,60
79725,note_on,45,0,1,,,,,,,,,0,,,84,70
79740,note_on,0,0,3,,,,,,,,,0,,,54,60
79740,note_on,0,0,3,,,,,,,,,0,,,57,60
79740,note_on,15,0,1,,,,,,,,,0,,,96,80
79740,note_on,30,0,3,,,,,,,,,0,,,60,0
79770,note_on,30,0,3,,,,,,,,,0,,,57,0
79770,note_on,0,0,3,,,,,,,,,0,,,54,0
79770,note_on,0,0,3,,,,,,,,,0,,,60,60
79785,control_change,105,0,4,,,,,,,,,0,64,0,,
79800,note_on,30,0,3,,,,,,,,,0,,,60,0
79800,note_on,0,0,3,,,,,,,,,0,,,53,60
79800,control_change,15,0,4,,,,,,,,,0,64,127,,
79830,note_on,30,0,3,,,,,,,,,0,,,53,0
79830,note_on,0,0,3,,,,,,,,,0,,,60,60
79845,note_on,105,0,1,,,,,,,,,0,,,96,0
79845,note_on,0,0,1,,,,,,,,,0,,,84,70
79845,note_on,0,0,1,,,,,,,,,0,,,84,0
79860,note_on,30,0,3,,,,,,,,,0,,,60,0
79860,note_on,0,0,3,,,,,,,,,0,,,57,60
79860,note_on,0,0,3,,,,,,,,,0,,,54,60
79860,note_on,15,0,1,,,,,,,,,0,,,96,80
79890,note_on,30,0,3,,,,,,,,,0,,,57,0
79890,note_on,0,0,3,,,,,,,,,0,,,54,0
79890,note_on,0,0,3,,,,,,,,,0,,,60,60
79905,control_change,105,0,4,,,,,,,,,0,64,0,,
79920,note_on,30,0,3,,,,,,,,,0,,,60,0
79920,note_on,0,0,3,,,,,,,,,0,,,49,60
79920,control_change,15,0,4,,,,,,,,,0,64,127,,
79920,note_on,0,0,1,,,,,,,,,0,,,87,70
79920,note_on,0,0,1,,,,,,,,,0,,,99,70
79920,note_on,0,0,1,,,,,,,,,0,,,84,0
79920,note_on,60,0,1,,,,,,,,,0,,,96,0
79950,note_on,0,0,3,,,,,,,,,0,,,61,60
79950,note_on,30,0,3,,,,,,,,,0,,,49,0
79980,note_on,30,0,3,,,,,,,,,0,,,61,0
79980,note_on,60,0,1,,,,,,,,,0,,,87,0
79980,note_on,0,0,3,,,,,,,,,0,,,58,60
79980,note_on,0,0,3,,,,,,,,,0,,,54,60
79980,note_on,0,0,1,,,,,,,,,0,,,85,70
79980,note_on,0,0,1,,,,,,,,,0,,,97,70
79980,note_on,0,0,1,,,,,,,,,0,,,99,0
80010,note_on,0,0,3,,,,,,,,,0,,,61,60
80010,note_on,0,0,3,,,,,,,,,0,,,54,0
80010,note_on,30,0,3,,,,,,,,,0,,,58,0
80025,control_change,105,0,4,,,,,,,,,0,64,0,,
80040,note_on,60,0,1,,,,,,,,,0,,,85,0
80040,note_on,0,0,1,,,,,,,,,0,,,97,0
80040,note_on,0,0,1,,,,,,,,,0,,,94,70
80040,note_on,0,0,1,,,,,,,,,0,,,82,70
80040,control_change,15,0,4,,,,,,,,,0,64,127,,
80040,note_on,30,0,3,,,,,,,,,0,,,61,0
80040,note_on,0,0,3,,,,,,,,,0,,,53,60
80070,note_on,30,0,3,,,,,,,,,0,,,53,0
80070,note_on,0,0,3,,,,,,,,,0,,,61,60
80100,note_on,30,0,3,,,,,,,,,0,,,61,0
80100,note_on,0,0,3,,,,,,,,,0,,,54,60
80100,note_on,0,0,3,,,,,,,,,0,,,58,60
80100,note_on,0,0,1,,,,,,,,,0,,,90,70
80100,note_on,0,0,1,,,,,,,,,0,,,94,0
80100,note_on,60,0,1,,,,,,,,,0,,,82,0
80100,note_on,0,0,1,,,,,,,,,0,,,78,70
80130,note_on,0,0,3,,,,,,,,,0,,,54,0
80130,note_on,0,0,3,,,,,,,,,0,,,61,60
80130,note_on,30,0,3,,,,,,,,,0,,,58,0
80145,control_change,105,0,4,,,,,,,,,0,64,0,,
80160,control_change,15,0,4,,,,,,,,,0,64,127,,
80160,note_on,60,0,1,,,,,,,,,0,,,78,0
80160,note_on,0,0,3,,,,,,,,,0,,,37,60
80160,note_on,0,0,1,,,,,,,,,0,,,77,70
80160,note_on,0,0,1,,,,,,,,,0,,,90,0
80160,note_on,30,0,3,,,,,,,,,0,,,61,0
80160,note_on,0,0,1,,,,,,,,,0,,,89,70
80175,note_on,15,0,3,,,,,,,,,0,,,37,0
80190,note_on,15,0,3,,,,,,,,,0,,,49,60
80220,note_on,30,0,3,,,,,,,,,0,,,49,0
80220,note_on,0,0,3,,,,,,,,,0,,,53,60
80220,note_on,0,0,1,,,,,,,,,0,,,85,70
80220,note_on,0,0,1,,,,,,,,,0,,,97,70
80220,note_on,0,0,1,,,,,,,,,0,,,77,0
80220,note_on,60,0,1,,,,,,,,,0,,,89,0
80250,note_on,30,0,3,,,,,,,,,0,,,53,0
80250,note_on,0,0,3,,,,,,,,,0,,,49,60
80280,note_on,0,0,1,,,,,,,,,0,,,83,70
80280,note_on,0,0,1,,,,,,,,,0,,,95,70
80280,note_on,0,0,1,,,,,,,,,0,,,97,0
80280,note_on,60,0,1,,,,,,,,,0,,,85,0
80280,note_on,0,0,3,,,,,,,,,0,,,56,60
80280,note_on,30,0,3,,,,,,,,,0,,,49,0
80310,note_on,30,0,3,,,,,,,,,0,,,56,0
80310,note_on,0,0,3,,,,,,,,,0,,,49,60
80340,note_on,0,0,1,,,,,,,,,0,,,92,70
80340,note_on,30,0,3,,,,,,,,,0,,,49,0
80340,note_on,0,0,3,,,,,,,,,0,,,59,60
80340,note_on,60,0,1,,,,,,,,,0,,,83,0
80340,note_on,0,0,1,,,,,,,,,0,,,95,0
80340,note_on,0,0,1,,,,,,,,,0,,,80,70
80370,note_on,30,0,3,,,,,,,,,0,,,59,0
80370,note_on,0,0,3,,,,,,,,,0,,,49,60
80385,control_change,225,0,4,,,,,,,,,0,64,0,,
80400,note_on,0,0,3,,,,,,,,,0,,,42,60
80400,note_on,0,0,1,,,,,,,,,0,,,78,70
80400,note_on,0,0,1,,,,,,,,,0,,,90,70
80400,note_on,0,0,1,,,,,,,,,0,,,92,0
80400,note_on,30,0,3,,,,,,,,,0,,,49,0
80400,control_change,15,0,4,,,,,,,,,0,64,127,,
80400,note_on,60,0,1,,,,,,,,,0,,,80,0
80415,note_on,15,0,3,,,,,,,,,0,,,42,0
80430,note_on,15,0,3,,,,,,,,,0,,,58,60
80460,note_on,30,0,3,,,,,,,,,0,,,58,0
80460,note_on,0,0,3,,,,,,,,,0,,,49,60
80490,note_on,30,0,3,,,,,,,,,0,,,49,0
80490,note_on,0,0,3,,,,,,,,,0,,,58,60
80520,note_on,0,0,3,,,,,,,,,0,,,54,60
80520,note_on,30,0,3,,,,,,,,,0,,,58,0
80550,note_on,0,0,3,,,,,,,,,0,,,58,60
80550,note_on,30,0,3,,,,,,,,,0,,,54,0
80580,note_on,180,0,1,,,,,,,,,0,,,90,0
80580,note_on,0,0,1,,,,,,,,,0,,,78,0
80580,note_on,0,0,1,,,,,,,,,0,,,78,70
80580,note_on,0,0,3,,,,,,,,,0,,,49,60
80580,note_on,0,0,1,,,,,,,,,0,,,66,70
80580,note_on,30,0,3,,,,,,,,,0,,,58,0
80610,note_on,30,0,3,,,,,,,,,0,,,49,0
80610,note_on,0,0,3,,,,,,,,,0,,,58,60
80625,control_change,225,0,4,,,,,,,,,0,64,0,,
80640,note_on,0,0,1,,,,,,,,,0,,,66,0
80640,note_on,0,0,1,,,,,,,,,0,,,77,70
80640,note_on,0,0,1,,,,,,,,,0,,,65,70
80640,note_on,60,0,1,,,,,,,,,0,,,78,0
80640,note_on,30,0,3,,,,,,,,,0,,,58,0
80640,note_on,0,0,3,,,,,,,,,0,,,37,60
80640,control_change,15,0,4,,,,,,,,,0,64,127,,
80655,note_on,15,0,3,,,,,,,,,0,,,37,0
80670,note_on,15,0,3,,,,,,,,,0,,,59,59
80700,note_on,0,0,3,,,,,,,,,0,,,49,58
80700,note_on,30,0,3,,,,,,,,,0,,,59,0
80700,note_on,0,0,1,,,,,,,,,0,,,73,68
80700,note_on,0,0,1,,,,,,,,,0,,,85,68
80700,note_on,0,0,1,,,,,,,,,0,,,77,0
80700,note_on,60,0,1,,,,,,,,,0,,,65,0
80700,note_on,0,0,3,,,,,,,,,0,,,53,58
80730,note_on,30,0,3,,,,,,,,,0,,,53,0
80730,note_on,0,0,3,,,,,,,,,0,,,49,0
80730,note_on,0,0,3,,,,,,,,,0,,,59,56
80760,note_on,60,0,1,,,,,,,,,0,,,73,0
80760,note_on,0,0,1,,,,,,,,,0,,,71,65
80760,note_on,0,0,1,,,,,,,,,0,,,83,65
80760,note_on,0,0,1,,,,,,,,,0,,,85,0
80760,note_on,0,0,3,,,,,,,,,0,,,53,55
80760,note_on,0,0,3,,,,,,,,,0,,,50,55
80760,note_on,30,0,3,,,,,,,,,0,,,59,0
80790,note_on,0,0,3,,,,,,,,,0,,,59,54
80790,note_on,0,0,3,,,,,,,,,0,,,50,0
80790,note_on,30,0,3,,,,,,,,,0,,,53,0
80820,note_on,60,0,1,,,,,,,,,0,,,71,0
80820,note_on,0,0,1,,,,,,,,,0,,,80,62
80820,note_on,0,0,1,,,,,,,,,0,,,68,62
80820,note_on,0,0,3,,,,,,,,,0,,,53,52
80820,note_on,0,0,3,,,,,,,,,0,,,49,52
80820,note_on,0,0,1,,,,,,,,,0,,,83,0
80820,note_on,30,0,3,,,,,,,,,0,,,59,0
80850,note_on,0,0,3,,,,,,,,,0,,,49,0
80850,note_on,0,0,3,,,,,,,,,0,,,59,51
80850,note_on,30,0,3,,,,,,,,,0,,,53,0
80865,control_change,225,0,4,,,,,,,,,0,64,0,,
80880,note_on,0,0,3,,,,,,,,,0,,,42,50
80880,note_on,30,0,3,,,,,,,,,0,,,59,0
80880,note_on,0,0,1,,,,,,,,,0,,,66,60
80880,note_on,0,0,1,,,,,,,,,0,,,78,60
80880,note_on,0,0,1,,,,,,,,,0,,,80,0
80880,note_on,60,0,1,,,,,,,,,0,,,68,0
80880,control_change,15,0,4,,,,,,,,,0,64,127,,
80895,note_on,15,0,3,,,,,,,,,0,,,42,0
80910,note_on,15,0,3,,,,,,,,,0,,,58,48
80940,note_on,30,0,3,,,,,,,,,0,,,58,0
80940,note_on,0,0,3,,,,,,,,,0,,,49,47
80970,note_on,30,0,3,,,,,,,,,0,,,49,0
80970,note_on,0,0,3,,,,,,,,,0,,,58,46
81000,note_on,30,0,3,,,,,,,,,0,,,58,0
81000,note_on,0,0,3,,,,,,,,,0,,,54,44
81030,note_on,0,0,3,,,,,,,,,0,,,58,43
81030,note_on,30,0,3,,,,,,,,,0,,,54,0
81060,note_on,30,0,3,,,,,,,,,0,,,58,0
81060,note_on,0,0,1,,,,,,,,,0,,,66,51
81060,note_on,0,0,1,,,,,,,,,0,,,66,0
81060,note_on,180,0,1,,,,,,,,,0,,,78,0
81060,note_on,0,0,3,,,,,,,,,0,,,49,41
81090,note_on,0,0,3,,,,,,,,,0,,,58,40
81090,note_on,30,0,3,,,,,,,,,0,,,49,0
81105,control_change,225,0,4,,,,,,,,,0,64,0,,
81120,note_on,0,0,3,,,,,,,,,0,,,37,40
81120,note_on,30,0,3,,,,,,,,,0,,,58,0
81120,control_change,15,0,4,,,,,,,,,0,64,127,,
81120,note_on,0,0,1,,,,,,,,,0,,,65,50
81120,note_on,60,0,1,,,,,,,,,0,,,66,0
81135,note_on,15,0,3,,,,,,,,,0,,,37,0
81150,note_on,15,0,3,,,,,,,,,0,,,59,40
81180,note_on,0,0,3,,,,,,,,,0,,,53,40
81180,note_on,0,0,1,,,,,,,,,0,,,73,50
81180,note_on,30,0,3,,,,,,,,,0,,,59,0
81180,note_on,60,0,1,,,,,,,,,0,,,65,0
81180,note_on,0,0,3,,,,,,,,,0,,,49,40
81210,note_on,30,0,3,,,,,,,,,0,,,53,0
81210,note_on,0,0,3,,,,,,,,,0,,,49,0
81210,note_on,0,0,3,,,,,,,,,0,,,59,40
81240,note_on,0,0,1,,,,,,,,,0,,,71,50
81240,note_on,0,0,3,,,,,,,,,0,,,50,40
81240,note_on,0,0,3,,,,,,,,,0,,,53,40
81240,note_on,60,0,1,,,,,,,,,0,,,73,0
81240,note_on,30,0,3,,,,,,,,,0,,,59,0
81270,note_on,0,0,3,,,,,,,,,0,,,50,0
81270,note_on,30,0,3,,,,,,,,,0,,,53,0
81270,note_on,0,0,3,,,,,,,,,0,,,59,40
81300,note_on,0,0,3,,,,,,,,,0,,,49,40
81300,note_on,0,0,3,,,,,,,,,0,,,53,40
81300,note_on,0,0,1,,,,,,,,,0,,,68,50
81300,note_on,60,0,1,,,,,,,,,0,,,71,0
81300,note_on,30,0,3,,,,,,,,,0,,,59,0
81330,note_on,0,0,3,,,,,,,,,0,,,59,40
81330,note_on,30,0,3,,,,,,,,,0,,,53,0
81330,note_on,0,0,3,,,,,,,,,0,,,49,0
81345,control_change,225,0,4,,,,,,,,,0,64,0,,
81360,note_on,60,0,1,,,,,,,,,0,,,68,0
81360,note_on,30,0,3,,,,,,,,,0,,,59,0
81360,note_on,0,0,3,,,,,,,,,0,,,42,40
81360,note_on,0,0,1,,,,,,,,,0,,,66,50
81360,control_change,15,0,4,,,,,,,,,0,64,127,,
81375,note_on,15,0,3,,,,,,,,,0,,,42,0
81390,note_on,15,0,3,,,,,,,,,0,,,58,40
81420,note_on,30,0,3,,,,,,,,,0,,,58,0
81420,note_on,0,0,3,,,,,,,,,0,,,49,40
81450,note_on,30,0,3,,,,,,,,,0,,,49,0
81450,note_on,0,0,3,,,,,,,,,0,,,58,40
81480,note_on,30,0,3,,,,,,,,,0,,,58,0
81480,note_on,0,0,3,,,,,,,,,0,,,54,40
81510,note_on,0,0,3,,,,,,,,,0,,,58,40
81510,note_on,30,0,3,,,,,,,,,0,,,54,0
81540,note_on,30,0,3,,,,,,,,,0,,,58,0
81540,note_on,0,0,3,,,,,,,,,0,,,49,40
81570,note_on,30,0,3,,,,,,,,,0,,,49,0
81570,note_on,0,0,3,,,,,,,,,0,,,58,40
81585,control_change,225,0,4,,,,,,,,,0,64,0,,
81600,note_on,0,0,1,,,,,,,,,0,,,66,50
81600,control_change,15,0,4,,,,,,,,,0,64,127,,
81600,note_on,30,0,3,,,,,,,,,0,,,58,0
81600,note_on,0,0,3,,,,,,,,,0,,,42,40
81600,note_on,240,0,1,,,,,,,,,0,,,66,0
81615,note_on,15,0,3,,,,,,,,,0,,,42,0
81630,note_on,15,0,3,,,,,,,,,0,,,58,40
81660,note_on,0,0,3,,,,,,,,,0,,,49,40
81660,note_on,30,0,3,,,,,,,,,0,,,58,0
81690,note_on,30,0,3,,,,,,,,,0,,,49,0
81690,note_on,0,0,3,,,,,,,,,0,,,58,40
81720,note_on,30,0,3,,,,,,,,,0,,,58,0
81720,note_on,0,0,1,,,,,,,,,0,,,66,50
81720,note_on,0,0,3,,,,,,,,,0,,,54,40
81720,note_on,120,0,1,,,,,,,,,0,,,66,0
81750,note_on,0,0,3,,,,,,,,,0,,,58,40
81750,note_on,30,0,3,,,,,,,,,0,,,54,0
81780,note_on,30,0,3,,,,,,,,,0,,,58,0
81780,note_on,0,0,3,,,,,,,,,0,,,49,40
81810,note_on,30,0,3,,,,,,,,,0,,,49,0
81810,note_on,0,0,3,,,,,,,,,0,,,58,40
81825,control_change,225,0,4,,,,,,,,,0,64,0,,
81840,control_change,15,0,4,,,,,,,,,0,64,127,,
81840,note_on,0,0,3,,,,,,,,,0,,,42,40
81840,note_on,30,0,3,,,,,,,,,0,,,58,0
81855,note_on,15,0,3,,,,,,,,,0,,,42,0
81870,note_on,15,0,3,,,,,,,,,0,,,58,40
81900,note_on,30,0,3,,,,,,,,,0,,,58,0
81900,note_on,180,0,1,,,,,,,,,0,,,66,0
81900,note_on,0,0,1,,,,,,,,,0,,,66,50
81900,note_on,0,0,3,,,,,,,,,0,,,49,40
81930,note_on,0,0,3,,,,,,,,,0,,,58,40
81930,note_on,30,0,3,,,,,,,,,0,,,49,0
81960,note_on,60,0,1,,,,,,,,,0,,,66,0
81960,note_on,0,0,3,,,,,,,,,0,,,54,40
81960,note_on,30,0,3,,,,,,,,,0,,,58,0
81960,note_on,0,0,1,,,,,,,,,0,,,65,50
81990,note_on,0,0,3,,,,,,,,,0,,,58,40
81990,note_on,30,0,3,,,,,,,,,0,,,54,0
82020,note_on,0,0,3,,,,,,,,,0,,,49,40
82020,note_on,30,0,3,,,,,,,,,0,,,58,0
82020,note_on,60,0,1,,,,,,,,,0,,,65,0
82020,note_on,0,0,1,,,,,,,,,0,,,64,50
82050,note_on,0,0,3,,,,,,,,,0,,,58,40
82050,note_on,30,0,3,,,,,,,,,0,,,49,0
82065,control_change,225,0,4,,,,,,,,,0,64,0,,
82080,note_on,0,0,1,,,,,,,,,0,,,65,50
82080,note_on,30,0,3,,,,,,,,,0,,,58,0
82080,control_change,15,0,4,,,,,,,,,0,64,127,,
82080,set_tempo,16800,1,0,,,,,,653666,,,,,,,
82080,note_on,60,0,1,,,,,,,,,0,,,64,0
82080,note_on,0,0,3,,,,,,,,,0,,,41,40
82094,set_tempo,14,1,0,,,,,,655809,,,,,,,
82095,note_on,15,0,3,,,,,,,,,0,,,41,0
82101,set_tempo,7,1,0,,,,,,657967,,,,,,,
82110,note_on,15,0,3,,,,,,,,,0,,,58,40
82115,set_tempo,14,1,0,,,,,,660139,,,,,,,
82122,set_tempo,7,1,0,,,,,,662325,,,,,,,
82129,set_tempo,7,1,0,,,,,,664525,,,,,,,
82140,note_on,0,0,3,,,,,,,,,0,,,50,40
82140,note_on,30,0,3,,,,,,,,,0,,,58,0
82143,set_tempo,14,1,0,,,,,,666741,,,,,,,
82150,set_tempo,7,1,0,,,,,,668971,,,,,,,
82164,set_tempo,14,1,0,,,,,,671216,,,,,,,
82170,note_on,0,0,3,,,,,,,,,0,,,58,40
82170,note_on,30,0,3,,,,,,,,,0,,,50,0
82171,set_tempo,7,1,0,,,,,,673476,,,,,,,
82178,set_tempo,7,1,0,,,,,,675752,,,,,,,
82192,set_tempo,14,1,0,,,,,,678043,,,,,,,
82200,set_tempo,8,1,0,,,,,,680349,,,,,,,
82200,note_on,0,0,3,,,,,,,,,0,,,53,40
82200,note_on,30,0,3,,,,,,,,,0,,,58,0
82214,set_tempo,14,1,0,,,,,,682672,,,,,,,
82221,set_tempo,7,1,0,,,,,,685010,,,,,,,
82228,set_tempo,7,1,0,,,,,,687364,,,,,,,
82230,note_on,0,0,3,,,,,,,,,0,,,58,40
82230,note_on,30,0,3,,,,,,,,,0,,,53,0
82242,set_tempo,14,1,0,,,,,,689734,,,,,,,
82249,set_tempo,7,1,0,,,,,,692121,,,,,,,
82256,set_tempo,7,1,0,,,,,,694525,,,,,,,
82260,note_on,0,0,3,,,,,,,,,0,,,50,40
82260,note_on,30,0,3,,,,,,,,,0,,,58,0
82270,set_tempo,14,1,0,,,,,,696945,,,,,,,
82277,set_tempo,7,1,0,,,,,,699382,,,,,,,
82290,note_on,30,0,3,,,,,,,,,0,,,50,0
82290,note_on,0,0,3,,,,,,,,,0,,,58,40
82291,set_tempo,14,1,0,,,,,,701836,,,,,,,
82298,set_tempo,7,1,0,,,,,,704308,,,,,,,
82305,set_tempo,7,1,0,,,,,,706797,,,,,,,
82305,control_change,225,0,4,,,,,,,,,0,64,0,,
82320,note_on,30,0,3,,,,,,,,,0,,,58,0
82320,note_on,0,0,3,,,,,,,,,0,,,41,40
82320,control_change,15,0,4,,,,,,,,,0,64,127,,
82320,set_tempo,15,1,0,,,,,,709304,,,,,,,
82327,set_tempo,7,1,0,,,,,,711828,,,,,,,
82335,note_on,15,0,3,,,,,,,,,0,,,41,0
82341,set_tempo,14,1,0,,,,,,714371,,,,,,,
82348,set_tempo,7,1,0,,,,,,716932,,,,,,,
82350,note_on,15,0,3,,,,,,,,,0,,,58,40
82355,set_tempo,7,1,0,,,,,,719511,,,,,,,
82369,set_tempo,14,1,0,,,,,,722109,,,,,,,
82376,set_tempo,7,1,0,,,,,,724725,,,,,,,
82380,note_on,30,0,3,,,,,,,,,0,,,58,0
82380,note_on,0,0,3,,,,,,,,,0,,,50,40
82390,set_tempo,14,1,0,,,,,,727361,,,,,,,
82397,set_tempo,7,1,0,,,,,,730016,,,,,,,
82404,set_tempo,7,1,0,,,,,,732690,,,,,,,
82410,note_on,30,0,3,,,,,,,,,0,,,50,0
82410,note_on,0,0,3,,,,,,,,,0,,,58,40
82418,set_tempo,14,1,0,,,,,,735384,,,,,,,
82425,set_tempo,7,1,0,,,,,,738098,,,,,,,
82432,set_tempo,7,1,0,,,,,,740832,,,,,,,
82440,note_on,30,0,3,,,,,,,,,0,,,58,0
82440,note_on,0,0,3,,,,,,,,,0,,,53,40
82440,note_on,0,0,1,,,,,,,,,0,,,70,50
82440,note_on,360,0,1,,,,,,,,,0,,,65,0
82447,set_tempo,15,1,0,,,,,,743587,,,,,,,
82454,set_tempo,7,1,0,,,,,,746361,,,,,,,
82468,set_tempo,14,1,0,,,,,,749157,,,,,,,
82470,note_on,0,0,3,,,,,,,,,0,,,58,40
82470,note_on,30,0,3,,,,,,,,,0,,,53,0
82475,set_tempo,7,1,0,,,,,,751974,,,,,,,
82482,set_tempo,7,1,0,,,,,,754812,,,,,,,
82496,set_tempo,14,1,0,,,,,,757671,,,,,,,
82500,note_on,0,0,3,,,,,,,,,0,,,50,40
82500,note_on,30,0,3,,,,,,,,,0,,,58,0
82503,set_tempo,7,1,0,,,,,,760553,,,,,,,
82517,set_tempo,14,1,0,,,,,,763456,,,,,,,
82524,set_tempo,7,1,0,,,,,,766381,,,,,,,
82530,note_on,0,0,3,,,,,,,,,0,,,58,40
82530,note_on,30,0,3,,,,,,,,,0,,,50,0
82531,set_tempo,7,1,0,,,,,,769329,,,,,,,
82545,control_change,225,0,4,,,,,,,,,0,64,0,,
82545,set_tempo,14,1,0,,,,,,772300,,,,,,,
82552,set_tempo,7,1,0,,,,,,775294,,,,,,,
82560,note_on,30,0,3,,,,,,,,,0,,,58,0
82560,note_on,120,0,1,,,,,,,,,0,,,70,0
82560,note_on,0,0,1,,,,,,,,,0,,,69,50
82560,control_change,15,0,4,,,,,,,,,0,64,127,,
82560,note_on,0,0,3,,,,,,,,,0,,,41,40
82567,set_tempo,15,1,0,,,,,,778311,,,,,,,
82574,set_tempo,7,1,0,,,,,,781352,,,,,,,
82575,note_on,15,0,3,,,,,,,,,0,,,41,0
82581,set_tempo,7,1,0,,,,,,784416,,,,,,,
82590,note_on,15,0,3,,,,,,,,,0,,,57,40
82595,set_tempo,14,1,0,,,,,,787505,,,,,,,
82602,set_tempo,7,1,0,,,,,,790618,,,,,,,
82609,set_tempo,7,1,0,,,,,,793756,,,,,,,
82620,note_on,30,0,3,,,,,,,,,0,,,57,0
82620,note_on,0,0,3,,,,,,,,,0,,,51,40
82623,set_tempo,14,1,0,,,,,,796919,,,,,,,
82630,set_tempo,7,1,0,,,,,,800107,,,,,,,
82644,set_tempo,14,1,0,,,,,,803320,,,,,,,
82650,note_on,30,0,3,,,,,,,,,0,,,51,0
82650,note_on,0,0,3,,,,,,,,,0,,,57,40
82651,set_tempo,7,1,0,,,,,,806560,,,,,,,
82658,set_tempo,7,1,0,,,,,,809826,,,,,,,
82672,set_tempo,14,1,0,,,,,,813118,,,,,,,
82680,note_on,30,0,3,,,,,,,,,0,,,57,0
82680,note_on,0,0,3,,,,,,,,,0,,,53,40
82680,set_tempo,8,1,0,,,,,,816438,,,,,,,
82680,note_on,120,0,1,,,,,,,,,0,,,69,0
82680,note_on,0,0,1,,,,,,,,,0,,,77,50
82694,set_tempo,14,1,0,,,,,,819784,,,,,,,
82701,set_tempo,7,1,0,,,,,,823158,,,,,,,
82708,set_tempo,7,1,0,,,,,,826560,,,,,,,
82710,note_on,30,0,3,,,,,,,,,0,,,53,0
82710,note_on,0,0,3,,,,,,,,,0,,,57,40
82722,set_tempo,14,1,0,,,,,,829990,,,,,,,
82729,set_tempo,7,1,0,,,,,,833449,,,,,,,
82740,note_on,30,0,3,,,,,,,,,0,,,57,0
82740,note_on,0,0,3,,,,,,,,,0,,,51,40
82743,set_tempo,14,1,0,,,,,,836937,,,,,,,
82750,set_tempo,7,1,0,,,,,,840454,,,,,,,
82757,set_tempo,7,1,0,,,,,,844001,,,,,,,
82770,note_on,30,0,3,,,,,,,,,0,,,51,0
82770,note_on,0,0,3,,,,,,,,,0,,,57,40
82771,set_tempo,14,1,0,,,,,,847577,,,,,,,
82778,set_tempo,7,1,0,,,,,,851185,,,,,,,
82785,control_change,225,0,4,,,,,,,,,0,64,0,,
82785,set_tempo,7,1,0,,,,,,854823,,,,,,,
82800,control_change,15,0,4,,,,,,,,,0,64,127,,
82800,note_on,0,0,3,,,,,,,,,0,,,41,40
82800,note_on,30,0,3,,,,,,,,,0,,,57,0
82800,note_on,0,0,1,,,,,,,,,0,,,75,50
82800,note_on,120,0,1,,,,,,,,,0,,,77,0
82800,set_tempo,15,1,0,,,,,,858492,,,,,,,
82807,set_tempo,7,1,0,,,,,,862193,,,,,,,
82815,note_on,15,0,3,,,,,,,,,0,,,41,0
82821,set_tempo,14,1,0,,,,,,865926,,,,,,,
82828,set_tempo,7,1,0,,,,,,869691,,,,,,,
82830,note_on,15,0,3,,,,,,,,,0,,,57,40
82835,set_tempo,7,1,0,,,,,,873490,,,,,,,
82849,set_tempo,14,1,0,,,,,,877321,,,,,,,
82856,set_tempo,7,1,0,,,,,,881187,,,,,,,
82860,note_on,0,0,3,,,,,,,,,0,,,51,40
82860,note_on,30,0,3,,,,,,,,,0,,,57,0
82870,set_tempo,14,1,0,,,,,,885086,,,,,,,
82877,set_tempo,7,1,0,,,,,,889021,,,,,,,
82884,set_tempo,7,1,0,,,,,,892990,,,,,,,
82890,note_on,0,0,3,,,,,,,,,0,,,57,40
82890,note_on,30,0,3,,,,,,,,,0,,,51,0
82898,set_tempo,14,1,0,,,,,,896995,,,,,,,
82905,set_tempo,7,1,0,,,,,,901036,,,,,,,
82912,set_tempo,7,1,0,,,,,,905114,,,,,,,
82920,note_on,0,0,3,,,,,,,,,0,,,53,40
82920,note_on,120,0,1,,,,,,,,,0,,,75,0
82920,note_on,30,0,3,,,,,,,,,0,,,57,0
82920,set_tempo,8,1,0,,,,,,1875000,,,,,,,
82920,note_on,0,0,1,,,,,,,,,0,,,72,50
82920,control_change,120,0,4,,,,,,,,,0,64,0,,
82950,note_on,30,0,3,,,,,,,,,0,,,57,40
82980,note_on,30,0,3,,,,,,,,,0,,,51,40
82980,set_tempo,60,1,0,,,,,,5000000,,,,,,,
83010,note_on,90,0,1,,,,,,,,,0,,,72,0
83010,note_on,0,0,3,,,,,,,,,0,,,53,0
83010,note_on,0,0,1,,,,,,,,,0,,,89,40
83010,set_tempo,30,1,0,,,,,,1071429,,,,,,,
83010,note_on,30,0,3,,,,,,,,,0,,,51,0
83010,note_on,0,0,3,,,,,,,,,0,,,57,0
83040,note_on,30,0,1,,,,,,,,,0,,,89,0
83040,marker,0,1,0,,,,,,,,,,,,,
83040,key_signature,30,1,0,,,,,Bb,,,,,,,,
83040,note_on,0,0,1,,,,,,,,,0,,,88,40
83040,set_tempo,0,1,0,,,,,,652174,,,,,,,
83040,control_change,120,0,4,,,,,,,,,0,64,127,,
83040,note_on,30,0,3,,,,,,,,,0,,,46,50
83060,note_on,20,0,1,,,,,,,,,0,,,88,0
83060,note_on,0,0,1,,,,,,,,,0,,,91,40
83070,note_on,30,0,3,,,,,,,,,0,,,46,0
83080,note_on,0,0,1,,,,,,,,,0,,,89,40
83080,note_on,20,0,1,,,,,,,,,0,,,91,0
83100,note_on,30,0,3,,,,,,,,,0,,,62,40
83100,note_on,0,0,3,,,,,,,,,0,,,58,40
83100,note_on,0,0,3,,,,,,,,,0,,,53,40
83100,note_on,0,0,1,,,,,,,,,0,,,87,40
83100,note_on,20,0,1,,,,,,,,,0,,,89,0
83120,note_on,20,0,1,,,,,,,,,0,,,87,0
83120,note_on,0,0,1,,,,,,,,,0,,,86,40
83140,note_on,20,0,1,,,,,,,,,0,,,86,0
83140,note_on,0,0,1,,,,,,,,,0,,,84,40
83145,control_change,105,0,4,,,,,,,,,0,64,0,,
83160,control_change,15,0,4,,,,,,,,,0,64,127,,
83160,note_on,20,0,1,,,,,,,,,0,,,84,0
83160,note_on,0,0,1,,,,,,,,,0,,,82,40
83180,note_on,20,0,1,,,,,,,,,0,,,82,0
83180,note_on,0,0,1,,,,,,,,,0,,,81,40
83200,note_on,20,0,1,,,,,,,,,0,,,81,0
83200,note_on,0,0,1,,,,,,,,,0,,,79,40
83220,note_on,0,0,3,,,,,,,,,0,,,58,0
83220,note_on,120,0,3,,,,,,,,,0,,,53,0
83220,note_on,0,0,3,,,,,,,,,0,,,62,40
83220,note_on,0,0,3,,,,,,,,,0,,,62,0
83220,note_on,0,0,3,,,,,,,,,0,,,58,40
83220,note_on,0,0,1,,,,,,,,,0,,,77,40
83220,note_on,20,0,1,,,,,,,,,0,,,79,0
83220,note_on,0,0,3,,,,,,,,,0,,,53,40
83240,note_on,0,0,1,,,,,,,,,0,,,75,40
83240,note_on,20,0,1,,,,,,,,,0,,,77,0
83260,note_on,20,0,1,,,,,,,,,0,,,75,0
83260,note_on,0,0,1,,,,,,,,,0,,,74,40
83265,control_change,105,0,4,,,,,,,,,0,64,0,,
83280,note_on,0,0,1,,,,,,,,,0,,,72,40
83280,control_change,15,0,4,,,,,,,,,0,64,127,,
83280,note_on,20,0,1,,,,,,,,,0,,,74,0
83280,note_on,60,0,3,,,,,,,,,0,,,53,0
83280,note_on,0,0,3,,,,,,,,,0,,,58,0
83280,note_on,0,0,3,,,,,,,,,0,,,62,0
83280,note_on,0,0,3,,,,,,,,,0,,,50,50
83310,note_on,30,0,3,,,,,,,,,0,,,50,0
83340,note_on,30,0,3,,,,,,,,,0,,,65,40
83340,note_on,0,0,3,,,,,,,,,0,,,58,40
83340,note_on,0,0,3,,,,,,,,,0,,,53,40
83385,control_change,105,0,4,,,,,,,,,0,64,0,,
83400,control_change,15,0,4,,,,,,,,,0,64,127,,
83400,note_on,120,0,1,,,,,,,,,0,,,72,0
83400,note_on,0,0,1,,,,,,,,,0,,,70,40
83430,note_on,30,0,1,,,,,,,,,0,,,70,0
83460,note_on,0,0,3,,,,,,,,,0,,,65,0
83460,note_on,0,0,3,,,,,,,,,0,,,58,0
83460,note_on,120,0,3,,,,,,,,,0,,,53,0
83460,note_on,0,0,3,,,,,,,,,0,,,53,40
83460,note_on,0,0,3,,,,,,,,,0,,,58,40
83460,note_on,0,0,3,,,,,,,,,0,,,65,40
83490,note_on,60,0,1,,,,,,,,,0,,,70,40
83505,control_change,105,0,4,,,,,,,,,0,64,0,,
83520,note_on,0,0,3,,,,,,,,,0,,,58,0
83520,note_on,60,0,3,,,,,,,,,0,,,53,0
83520,control_change,15,0,4,,,,,,,,,0,64,127,,
83520,note_on,0,0,3,,,,,,,,,0,,,48,50
83520,note_on,0,0,3,,,,,,,,,0,,,65,0
83520,note_on,30,0,1,,,,,,,,,0,,,70,0
83520,note_on,0,0,1,,,,,,,,,0,,,69,40
83540,note_on,20,0,1,,,,,,,,,0,,,69,0
83540,note_on,0,0,1,,,,,,,,,0,,,70,40
83550,note_on,30,0,3,,,,,,,,,0,,,48,0
83560,note_on,0,0,1,,,,,,,,,0,,,72,40
83560,note_on,20,0,1,,,,,,,,,0,,,70,0
83580,note_on,0,0,1,,,,,,,,,0,,,74,40
83580,note_on,20,0,1,,,,,,,,,0,,,72,0
83580,note_on,30,0,3,,,,,,,,,0,,,63,40
83580,note_on,0,0,3,,,,,,,,,0,,,57,40
83580,note_on,0,0,3,,,,,,,,,0,,,53,40
83600,note_on,0,0,1,,,,,,,,,0,,,75,40
83600,note_on,20,0,1,,,,,,,,,0,,,74,0
83620,note_on,20,0,1,,,,,,,,,0,,,75,0
83620,note_on,0,0,1,,,,,,,,,0,,,77,40
83625,control_change,105,0,4,,,,,,,,,0,64,0,,
83640,control_change,15,0,4,,,,,,,,,0,64,127,,
83640,note_on,0,0,1,,,,,,,,,0,,,79,40
83640,note_on,20,0,1,,,,,,,,,0,,,77,0
83660,note_on,0,0,1,,,,,,,,,0,,,81,40
83660,note_on,20,0,1,,,,,,,,,0,,,79,0
83680,note_on,0,0,1,,,,,,,,,0,,,82,40
83680,note_on,20,0,1,,,,,,,,,0,,,81,0
83700,note_on,20,0,1,,,,,,,,,0,,,82,0
83700,note_on,0,0,3,,,,,,,,,0,,,53,40
83700,note_on,0,0,3,,,,,,,,,0,,,57,40
83700,note_on,0,0,3,,,,,,,,,0,,,63,40
83700,note_on,0,0,3,,,,,,,,,0,,,63,0
83700,note_on,0,0,3,,,,,,,,,0,,,57,0
83700,note_on,120,0,3,,,,,,,,,0,,,53,0
83700,note_on,0,0,1,,,,,,,,,0,,,83,40
83720,note_on,20,0,1,,,,,,,,,0,,,83,0
83720,note_on,0,0,1,,,,,,,,,0,,,84,40
83740,note_on,20,0,1,,,,,,,,,0,,,84,0
83740,note_on,0,0,1,,,,,,,,,0,,,86,40
83745,control_change,105,0,4,,,,,,,,,0,64,0,,
83760,note_on,0,0,3,,,,,,,,,0,,,41,50
83760,note_on,0,0,3,,,,,,,,,0,,,63,0
83760,note_on,0,0,3,,,,,,,,,0,,,57,0
83760,note_on,60,0,3,,,,,,,,,0,,,53,0
83760,note_on,0,0,1,,,,,,,,,0,,,89,40
83760,control_change,15,0,4,,,,,,,,,0,64,127,,
83760,note_on,20,0,1,,,,,,,,,0,,,86,0
83790,note_on,30,0,3,,,,,,,,,0,,,41,0
83820,note_on,0,0,3,,,,,,,,,0,,,57,40
83820,note_on,30,0,3,,,,,,,,,0,,,60,40
83820,note_on,0,0,3,,,,,,,,,0,,,53,40
83865,control_change,105,0,4,,,,,,,,,0,64,0,,
83880,note_on,0,0,1,,,,,,,,,0,,,87,40
83880,control_change,15,0,4,,,,,,,,,0,64,127,,
83880,note_on,120,0,1,,,,,,,,,0,,,89,0
83910,note_on,30,0,1,,,,,,,,,0,,,87,0
83940,note_on,0,0,3,,,,,,,,,0,,,57,40
83940,note_on,0,0,3,,,,,,,,,0,,,60,40
83940,note_on,0,0,3,,,,,,,,,0,,,60,0
83940,note_on,0,0,3,,,,,,,,,0,,,57,0
83940,note_on,120,0,3,,,,,,,,,0,,,53,0
83940,note_on,0,0,3,,,,,,,,,0,,,53,40
83970,note_on,60,0,1,,,,,,,,,0,,,87,40
83985,control_change,105,0,4,,,,,,,,,0,64,0,,
84000,note_on,0,0,1,,,,,,,,,0,,,86,40
84000,control_change,15,0,4,,,,,,,,,0,64,127,,
84000,note_on,0,0,3,,,,,,,,,0,,,46,50
84000,note_on,0,0,3,,,,,,,,,0,,,60,0
84000,note_on,0,0,3,,,,,,,,,0,,,57,0
84000,note_on,30,0,1,,,,,,,,,0,,,87,0
84000,note_on,60,0,3,,,,,,,,,0,,,53,0
84020,note_on,20,0,1,,,,,,,,,0,,,86,0
84020,note_on,0,0,1,,,,,,,,,0,,,98,42
84030,note_on,30,0,3,,,,,,,,,0,,,46,0
84040,note_on,20,0,1,,,,,,,,,0,,,98,0
84040,note_on,0,0,1,,,,,,,,,0,,,96,45
84060,note_on,0,0,3,,,,,,,,,0,,,58,48
84060,note_on,30,0,3,,,,,,,,,0,,,62,48
84060,note_on,0,0,3,,,,,,,,,0,,,53,48
84060,note_on,0,0,1,,,,,,,,,0,,,94,48
84060,note_on,20,0,1,,,,,,,,,0,,,96,0
84080,note_on,20,0,1,,,,,,,,,0,,,94,0
84080,note_on,0,0,1,,,,,,,,,0,,,93,51
84100,note_on,20,0,1,,,,,,,,,0,,,93,0
84100,note_on,0,0,1,,,,,,,,,0,,,91,54
84105,control_change,105,0,4,,,,,,,,,0,64,0,,
84120,note_on,0,0,1,,,,,,,,,0,,,89,57
84120,control_change,15,0,4,,,,,,,,,0,64,127,,
84120,note_on,20,0,1,,,,,,,,,0,,,91,0
84140,note_on,20,0,1,,,,,,,,,0,,,89,0
84140,note_on,0,0,1,,,,,,,,,0,,,87,59
84160,note_on,20,0,1,,,,,,,,,0,,,87,0
84160,note_on,0,0,1,,,,,,,,,0,,,86,62
84180,note_on,120,0,3,,,,,,,,,0,,,53,0
84180,note_on,0,0,3,,,,,,,,,0,,,58,0
84180,note_on,0,0,3,,,,,,,,,0,,,62,0
84180,note_on,0,0,3,,,,,,,,,0,,,62,65
84180,note_on,0,0,3,,,,,,,,,0,,,58,65
84180,note_on,0,0,3,,,,,,,,,0,,,53,65
84180,note_on,0,0,1,,,,,,,,,0,,,84,65
84180,note_on,20,0,1,,,,,,,,,0,,,86,0
84200,note_on,0,0,1,,,,,,,,,0,,,82,68
84200,note_on,20,0,1,,,,,,,,,0,,,84,0
84220,note_on,20,0,1,,,,,,,,,0,,,82,0
84220,note_on,0,0,1,,,,,,,,,0,,,81,71
84225,control_change,105,0,4,,,,,,,,,0,64,0,,
84240,note_on,0,0,1,,,,,,,,,0,,,79,74
84240,control_change,15,0,4,,,,,,,,,0,64,127,,
84240,note_on,20,0,1,,,,,,,,,0,,,81,0
84240,note_on,60,0,3,,,,,,,,,0,,,53,0
84240,note_on,0,0,3,,,,,,,,,0,,,39,84
84240,note_on,0,0,3,,,,,,,,,0,,,62,0
84240,note_on,0,0,3,,,,,,,,,0,,,58,0
84260,note_on,20,0,1,,,,,,,,,0,,,79,0
84260,note_on,0,0,1,,,,,,,,,0,,,91,77
84270,note_on,30,0,3,,,,,,,,,0,,,39,0
84280,note_on,20,0,1,,,,,,,,,0,,,91,0
84280,note_on,0,0,1,,,,,,,,,0,,,89,79
84300,note_on,0,0,3,,,,,,,,,0,,,55,82
84300,note_on,0,0,3,,,,,,,,,0,,,58,82
84300,note_on,30,0,3,,,,,,,,,0,,,60,82
84300,note_on,0,0,1,,,,,,,,,0,,,87,82
84300,note_on,20,0,1,,,,,,,,,0,,,89,0
84300,note_on,0,0,3,,,,,,,,,0,,,51,82
84320,note_on,0,0,1,,,,,,,,,0,,,86,85
84320,note_on,20,0,1,,,,,,,,,0,,,87,0
84340,note_on,20,0,1,,,,,,,,,0,,,86,0
84340,note_on,0,0,1,,,,,,,,,0,,,84,88
84345,control_change,105,0,4,,,,,,,,,0,64,0,,
84360,note_on,20,0,1,,,,,,,,,0,,,84,0
84360,note_on,0,0,1,,,,,,,,,0,,,82,91
84360,control_change,15,0,4,,,,,,,,,0,64,127,,
84380,note_on,0,0,1,,,,,,,,,0,,,81,94
84380,note_on,20,0,1,,,,,,,,,0,,,82,0
84400,note_on,0,0,1,,,,,,,,,0,,,79,97
84400,note_on,20,0,1,,,,,,,,,0,,,81,0
84420,note_on,0,0,3,,,,,,,,,0,,,55,99
84420,note_on,20,0,1,,,,,,,,,0,,,79,0
84420,note_on,0,0,1,,,,,,,,,0,,,77,99
84420,note_on,0,0,3,,,,,,,,,0,,,51,99
84420,note_on,0,0,3,,,,,,,,,0,,,60,99
84420,note_on,0,0,3,,,,,,,,,0,,,58,0
84420,note_on,0,0,3,,,,,,,,,0,,,58,99
84420,note_on,0,0,3,,,,,,,,,0,,,55,0
84420,note_on,0,0,3,,,,,,,,,0,,,60,0
84420,note_on,120,0,3,,,,,,,,,0,,,51,0
84440,note_on,20,0,1,,,,,,,,,0,,,77,0
84440,note_on,0,0,1,,,,,,,,,0,,,75,100
84460,note_on,0,0,1,,,,,,,,,0,,,74,100
84460,note_on,20,0,1,,,,,,,,,0,,,75,0
84465,control_change,105,0,4,,,,,,,,,0,64,0,,
84480,note_on,0,0,3,,,,,,,,,0,,,58,0
84480,note_on,0,0,3,,,,,,,,,0,,,40,110
84480,note_on,60,0,3,,,,,,,,,0,,,51,0
84480,note_on,20,0,1,,,,,,,,,0,,,74,0
84480,control_change,15,0,4,,,,,,,,,0,64,127,,
84480,note_on,0,0,1,,,,,,,,,0,,,72,100
84480,note_on,0,0,3,,,,,,,,,0,,,55,0
84480,note_on,0,0,3,,,,,,,,,0,,,60,0
84500,note_on,0,0,1,,,,,,,,,0,,,76,98
84500,note_on,20,0,1,,,,,,,,,0,,,72,0
84510,note_on,30,0,3,,,,,,,,,0,,,40,0
84520,note_on,0,0,1,,,,,,,,,0,,,79,95
84520,note_on,20,0,1,,,,,,,,,0,,,76,0
84540,note_on,0,0,1,,,,,,,,,0,,,82,92
84540,note_on,0,0,3,,,,,,,,,0,,,52,92
84540,note_on,30,0,3,,,,,,,,,0,,,60,92
84540,note_on,0,0,3,,,,,,,,,0,,,58,92
84540,note_on,0,0,3,,,,,,,,,0,,,55,92
84540,note_on,20,0,1,,,,,,,,,0,,,79,0
84560,note_on,20,0,1,,,,,,,,,0,,,82,0
84560,note_on,0,0,1,,,,,,,,,0,,,79,89
84580,note_on,0,0,1,,,,,,,,,0,,,82,86
84580,note_on,20,0,1,,,,,,,,,0,,,79,0
84585,control_change,105,0,4,,,,,,,,,0,64,0,,
84600,note_on,0,0,1,,,,,,,,,0,,,84,83
84600,note_on,20,0,1,,,,,,,,,0,,,82,0
84600,control_change,15,0,4,,,,,,,,,0,64,127,,
84620,note_on,0,0,1,,,,,,,,,0,,,88,81
84620,note_on,20,0,1,,,,,,,,,0,,,84,0
84640,note_on,0,0,1,,,,,,,,,0,,,91,78
84640,note_on,20,0,1,,,,,,,,,0,,,88,0
84660,note_on,0,0,3,,,,,,,,,0,,,60,0
84660,note_on,0,0,1,,,,,,,,,0,,,94,75
84660,note_on,20,0,1,,,,,,,,,0,,,91,0
84660,note_on,0,0,3,,,,,,,,,0,,,48,75
84660,note_on,0,0,3,,,,,,,,,0,,,55,0
84660,note_on,0,0,3,,,,,,,,,0,,,58,0
84660,note_on,120,0,3,,,,,,,,,0,,,52,0
84680,note_on,0,0,1,,,,,,,,,0,,,91,72
84680,note_on,20,0,1,,,,,,,,,0,,,94,0
84700,note_on,20,0,1,,,,,,,,,0,,,91,0
84700,note_on,0,0,1,,,,,,,,,0,,,88,69
84705,control_change,105,0,4,,,,,,,,,0,64,0,,
84720,control_change,15,0,4,,,,,,,,,0,64,127,,
84720,note_on,0,0,3,,,,,,,,,0,,,41,76
84720,note_on,60,0,3,,,,,,,,,0,,,48,0
84720,note_on,20,0,1,,,,,,,,,0,,,88,0
84720,note_on,0,0,1,,,,,,,,,0,,,89,66
84750,note_on,30,0,3,,,,,,,,,0,,,41,0
84780,note_on,0,0,3,,,,,,,,,0,,,53,58
84780,note_on,0,0,3,,,,,,,,,0,,,57,58
84780,note_on,30,0,3,,,,,,,,,0,,,60,58
84780,note_on,60,0,1,,,,,,,,,0,,,89,0
84780,note_on,0,0,1,,,,,,,,,0,,,89,58
84800,note_on,0,0,1,,,,,,,,,0,,,91,55
84800,note_on,20,0,1,,,,,,,,,0,,,89,0
84820,note_on,20,0,1,,,,,,,,,0,,,91,0
84820,note_on,0,0,1,,,,,,,,,0,,,89,52
84825,control_change,105,0,4,,,,,,,,,0,64,0,,
84840,note_on,0,0,1,,,,,,,,,0,,,88,49
84840,note_on,0,0,3,,,,,,,,,0,,,58,49
84840,control_change,15,0,4,,,,,,,,,0,64,127,,
84840,note_on,20,0,1,,,,,,,,,0,,,89,0
84840,note_on,0,0,3,,,,,,,,,0,,,62,49
84840,note_on,0,0,3,,,,,,,,,0,,,60,0
84840,note_on,60,0,3,,,,,,,,,0,,,57,0
84860,note_on,20,0,1,,,,,,,,,0,,,88,0
84860,note_on,0,0,1,,,,,,,,,0,,,91,46
84880,note_on,20,0,1,,,,,,,,,0,,,91,0
84880,note_on,0,0,1,,,,,,,,,0,,,89,43
84900,note_on,0,0,1,,,,,,,,,0,,,87,41
84900,note_on,0,0,3,,,,,,,,,0,,,63,41
84900,note_on,0,0,3,,,,,,,,,0,,,62,0
84900,note_on,60,0,3,,,,,,,,,0,,,58,0
84900,note_on,0,0,3,,,,,,,,,0,,,57,41
84900,note_on,20,0,1,,,,,,,,,0,,,89,0
84920,note_on,20,0,1,,,,,,,,,0,,,87,0
84920,note_on,0,0,1,,,,,,,,,0,,,91,40
84940,note_on,0,0,1,,,,,,,,,0,,,89,40
84940,note_on,20,0,1,,,,,,,,,0,,,91,0
84945,control_change,105,0,4,,,,,,,,,0,64,0,,
84960,note_on,20,0,1,,,,,,,,,0,,,89,0
84960,note_on,0,0,1,,,,,,,,,0,,,88,40
84960,note_on,0,0,3,,,,,,,,,0,,,46,50
84960,control_change,15,0,4,,,,,,,,,0,64,127,,
84960,note_on,60,0,3,,,,,,,,,0,,,57,0
84960,note_on,0,0,3,,,,,,,,,0,,,63,0
84960,note_on,0,0,3,,,,,,,,,0,,,53,0
84980,note_on,0,0,1,,,,,,,,,0,,,91,40
84980,note_on,20,0,1,,,,,,,,,0,,,88,0
84990,note_on,30,0,3,,,,,,,,,0,,,46,0
85000,note_on,20,0,1,,,,,,,,,0,,,91,0
85000,note_on,0,0,1,,,,,,,,,0,,,89,40
85020,note_on,20,0,1,,,,,,,,,0,,,89,0
85020,note_on,0,0,1,,,,,,,,,0,,,87,40
85020,note_on,30,0,3,,,,,,,,,0,,,62,40
85020,note_on,0,0,3,,,,,,,,,0,,,58,40
85020,note_on,0,0,3,,,,,,,,,0,,,53,40
85040,note_on,0,0,1,,,,,,,,,0,,,86,40
85040,note_on,20,0,1,,,,,,,,,0,,,87,0
85060,note_on,0,0,1,,,,,,,,,0,,,84,40
85060,note_on,20,0,1,,,,,,,,,0,,,86,0
85065,control_change,105,0,4,,,,,,,,,0,64,0,,
85080,note_on,0,0,1,,,,,,,,,0,,,82,40
85080,note_on,20,0,1,,,,,,,,,0,,,84,0
85080,control_change,15,0,4,,,,,,,,,0,64,127,,
85100,note_on,20,0,1,,,,,,,,,0,,,82,0
85100,note_on,0,0,1,,,,,,,,,0,,,81,40
85120,note_on,20,0,1,,,,,,,,,0,,,81,0
85120,note_on,0,0,1,,,,,,,,,0,,,79,40
85140,note_on,120,0,3,,,,,,,,,0,,,53,0
85140,note_on,0,0,3,,,,,,,,,0,,,62,40
85140,note_on,0,0,3,,,,,,,,,0,,,58,40
85140,note_on,0,0,3,,,,,,,,,0,,,53,40
85140,note_on,0,0,3,,,,,,,,,0,,,62,0
85140,note_on,0,0,3,,,,,,,,,0,,,58,0
85140,note_on,0,0,1,,,,,,,,,0,,,77,40
85140,note_on,20,0,1,,,,,,,,,0,,,79,0
85160,note_on,0,0,1,,,,,,,,,0,,,75,40
85160,note_on,20,0,1,,,,,,,,,0,,,77,0
85180,note_on,0,0,1,,,,,,,,,0,,,74,40
85180,note_on,20,0,1,,,,,,,,,0,,,75,0
85185,control_change,105,0,4,,,,,,,,,0,64,0,,
85200,note_on,20,0,1,,,,,,,,,0,,,74,0
85200,note_on,0,0,1,,,,,,,,,0,,,72,40
85200,note_on,0,0,3,,,,,,,,,0,,,62,0
85200,note_on,0,0,3,,,,,,,,,0,,,58,0
85200,note_on,60,0,3,,,,,,,,,0,,,53,0
85200,control_change,15,0,4,,,,,,,,,0,64,127,,
85200,note_on,0,0,3,,,,,,,,,0,,,50,50
85230,note_on,30,0,3,,,,,,,,,0,,,50,0
85260,note_on,30,0,3,,,,,,,,,0,,,65,40
85260,note_on,0,0,3,,,,,,,,,0,,,53,40
85260,note_on,0,0,3,,,,,,,,,0,,,58,40
85305,control_change,105,0,4,,,,,,,,,0,64,0,,
85320,control_change,15,0,4,,,,,,,,,0,64,127,,
85320,note_on,0,0,1,,,,,,,,,0,,,70,40
85320,note_on,120,0,1,,,,,,,,,0,,,72,0
85350,note_on,30,0,1,,,,,,,,,0,,,70,0
85380,note_on,120,0,3,,,,,,,,,0,,,53,0
85380,note_on,0,0,3,,,,,,,,,0,,,58,40
85380,note_on,0,0,3,,,,,,,,,0,,,65,40
85380,note_on,0,0,3,,,,,,,,,0,,,65,0
85380,note_on,0,0,3,,,,,,,,,0,,,58,0
85380,note_on,0,0,3,,,,,,,,,0,,,53,40
85410,note_on,60,0,1,,,,,,,,,0,,,70,40
85425,control_change,105,0,4,,,,,,,,,0,64,0,,
85440,note_on,0,0,3,,,,,,,,,0,,,48,50
85440,note_on,0,0,3,,,,,,,,,0,,,58,0
85440,control_change,15,0,4,,,,,,,,,0,64,127,,
85440,note_on,30,0,1,,,,,,,,,0,,,70,0
85440,note_on,0,0,3,,,,,,,,,0,,,65,0
85440,note_on,0,0,1,,,,,,,,,0,,,69,40
85440,note_on,60,0,3,,,,,,,,,0,,,53,0
85460,note_on,20,0,1,,,,,,,,,0,,,69,0
85460,note_on,0,0,1,,,,,,,,,0,,,70,40
85470,note_on,30,0,3,,,,,,,,,0,,,48,0
85480,note_on,0,0,1,,,,,,,,,0,,,72,40
85480,note_on,20,0,1,,,,,,,,,0,,,70,0
85500,note_on,0,0,3,,,,,,,,,0,,,53,40
85500,note_on,0,0,1,,,,,,,,,0,,,74,40
85500,note_on,20,0,1,,,,,,,,,0,,,72,0
85500,note_on,0,0,3,,,,,,,,,0,,,57,40
85500,note_on,30,0,3,,,,,,,,,0,,,63,40
85520,note_on,20,0,1,,,,,,,,,0,,,74,0
85520,note_on,0,0,1,,,,,,,,,0,,,75,40
85540,note_on,20,0,1,,,,,,,,,0,,,75,0
85540,note_on,0,0,1,,,,,,,,,0,,,77,40
85545,control_change,105,0,4,,,,,,,,,0,64,0,,
85560,control_change,15,0,4,,,,,,,,,0,64,127,,
85560,note_on,0,0,1,,,,,,,,,0,,,79,40
85560,note_on,20,0,1,,,,,,,,,0,,,77,0
85580,note_on,20,0,1,,,,,,,,,0,,,79,0
85580,note_on,0,0,1,,,,,,,,,0,,,81,40
85600,note_on,20,0,1,,,,,,,,,0,,,81,0
85600,note_on,0,0,1,,,,,,,,,0,,,82,40
85620,note_on,20,0,1,,,,,,,,,0,,,82,0
85620,note_on,120,0,3,,,,,,,,,0,,,53,0
85620,note_on,0,0,3,,,,,,,,,0,,,57,0
85620,note_on,0,0,1,,,,,,,,,0,,,83,40
85620,note_on,0,0,3,,,,,,,,,0,,,63,0
85620,note_on,0,0,3,,,,,,,,,0,,,63,40
85620,note_on,0,0,3,,,,,,,,,0,,,57,40
85620,note_on,0,0,3,,,,,,,,,0,,,53,40
85640,note_on,20,0,1,,,,,,,,,0,,,83,0
85640,note_on,0,0,1,,,,,,,,,0,,,84,40
85660,note_on,20,0,1,,,,,,,,,0,,,84,0
85660,note_on,0,0,1,,,,,,,,,0,,,86,40
85665,control_change,105,0,4,,,,,,,,,0,64,0,,
85680,note_on,60,0,3,,,,,,,,,0,,,53,0
85680,control_change,15,0,4,,,,,,,,,0,64,127,,
85680,note_on,20,0,1,,,,,,,,,0,,,86,0
85680,note_on,0,0,1,,,,,,,,,0,,,89,40
85680,note_on,0,0,3,,,,,,,,,0,,,57,0
85680,note_on,0,0,3,,,,,,,,,0,,,63,0
85680,note_on,0,0,3,,,,,,,,,0,,,41,50
85710,note_on,30,0,3,,,,,,,,,0,,,41,0
85740,note_on,0,0,3,,,,,,,,,0,,,57,40
85740,note_on,30,0,3,,,,,,,,,0,,,60,40
85740,note_on,0,0,3,,,,,,,,,0,,,53,40
85770,note_on,90,0,1,,,,,,,,,0,,,89,0
85770,note_on,0,0,1,,,,,,,,,0,,,88,40
85785,control_change,105,0,4,,,,,,,,,0,64,0,,
85800,note_on,30,0,1,,,,,,,,,0,,,88,0
85800,note_on,0,0,1,,,,,,,,,0,,,87,40
85800,control_change,15,0,4,,,,,,,,,0,64,127,,
85830,note_on,30,0,1,,,,,,,,,0,,,87,0
85860,note_on,0,0,3,,,,,,,,,0,,,57,40
85860,note_on,0,0,3,,,,,,,,,0,,,57,0
85860,note_on,0,0,3,,,,,,,,,0,,,60,0
85860,note_on,0,0,3,,,,,,,,,0,,,60,40
85860,note_on,120,0,3,,,,,,,,,0,,,53,0
85860,note_on,0,0,3,,,,,,,,,0,,,53,40
85890,note_on,60,0,1,,,,,,,,,0,,,87,40
85905,control_change,105,0,4,,,,,,,,,0,64,0,,
85920,control_change,15,0,4,,,,,,,,,0,64,127,,
85920,note_on,0,0,1,,,,,,,,,0,,,86,40
85920,note_on,30,0,1,,,,,,,,,0,,,87,0
85920,note_on,60,0,3,,,,,,,,,0,,,53,0
85920,note_on,0,0,3,,,,,,,,,0,,,57,0
85920,note_on,0,0,3,,,,,,,,,0,,,60,0
85920,note_on,0,0,3,,,,,,,,,0,,,46,50
85940,note_on,20,0,1,,,,,,,,,0,,,86,0
85940,note_on,0,0,1,,,,,,,,,0,,,98,46
85950,note_on,30,0,3,,,,,,,,,0,,,46,0
85960,note_on,20,0,1,,,,,,,,,0,,,98,0
85960,note_on,0,0,1,,,,,,,,,0,,,96,53
85980,note_on,0,0,3,,,,,,,,,0,,,58,59
85980,note_on,30,0,3,,,,,,,,,0,,,62,59
85980,note_on,0,0,3,,,,,,,,,0,,,53,59
85980,note_on,20,0,1,,,,,,,,,0,,,96,0
85980,note_on,0,0,1,,,,,,,,,0,,,94,59
86000,note_on,0,0,1,,,,,,,,,0,,,93,66
86000,note_on,20,0,1,,,,,,,,,0,,,94,0
86020,note_on,20,0,1,,,,,,,,,0,,,93,0
86020,note_on,0,0,1,,,,,,,,,0,,,91,73
86025,control_change,105,0,4,,,,,,,,,0,64,0,,
86040,note_on,0,0,1,,,,,,,,,0,,,89,79
86040,control_change,15,0,4,,,,,,,,,0,64,127,,
86040,note_on,20,0,1,,,,,,,,,0,,,91,0
86060,note_on,0,0,1,,,,,,,,,0,,,87,86
86060,note_on,20,0,1,,,,,,,,,0,,,89,0
86080,note_on,0,0,1,,,,,,,,,0,,,86,93
86080,note_on,20,0,1,,,,,,,,,0,,,87,0
86100,note_on,0,0,1,,,,,,,,,0,,,84,99
86100,note_on,0,0,3,,,,,,,,,0,,,58,0
86100,note_on,0,0,3,,,,,,,,,0,,,62,0
86100,note_on,0,0,3,,,,,,,,,0,,,62,99
86100,note_on,20,0,1,,,,,,,,,0,,,86,0
86100,note_on,0,0,3,,,,,,,,,0,,,58,99
86100,note_on,120,0,3,,,,,,,,,0,,,53,0
86100,note_on,0,0,3,,,,,,,,,0,,,53,99
86120,note_on,20,0,1,,,,,,,,,0,,,84,0
86120,note_on,0,0,1,,,,,,,,,0,,,82,100
86140,note_on,20,0,1,,,,,,,,,0,,,82,0
86140,note_on,0,0,1,,,,,,,,,0,,,81,100
86145,control_change,105,0,4,,,,,,,,,0,64,0,,
86160,note_on,60,0,3,,,,,,,,,0,,,53,0
86160,note_on,0,0,3,,,,,,,,,0,,,58,0
86160,control_change,15,0,4,,,,,,,,,0,64,127,,
86160,note_on,20,0,1,,,,,,,,,0,,,81,0
86160,note_on,0,0,3,,,,,,,,,0,,,52,110
86160,note_on,0,0,3,,,,,,,,,0,,,62,0
86160,note_on,0,0,1,,,,,,,,,0,,,79,100
86180,note_on,0,0,1,,,,,,,,,0,,,94,97
86180,note_on,20,0,1,,,,,,,,,0,,,79,0
86190,note_on,30,0,3,,,,,,,,,0,,,52,0
86200,note_on,0,0,1,,,,,,,,,0,,,91,93
86200,note_on,20,0,1,,,,,,,,,0,,,94,0
86220,note_on,0,0,1,,,,,,,,,0,,,88,89
86220,note_on,20,0,1,,,,,,,,,0,,,91,0
86220,note_on,0,0,3,,,,,,,,,0,,,61,89
86220,note_on,0,0,3,,,,,,,,,0,,,58,89
86220,note_on,30,0,3,,,,,,,,,0,,,67,89
86240,note_on,0,0,1,,,,,,,,,0,,,85,85
86240,note_on,20,0,1,,,,,,,,,0,,,88,0
86260,note_on,20,0,1,,,,,,,,,0,,,85,0
86260,note_on,0,0,1,,,,,,,,,0,,,82,81
86265,control_change,105,0,4,,,,,,,,,0,64,0,,
86280,note_on,0,0,1,,,,,,,,,0,,,79,77
86280,control_change,15,0,4,,,,,,,,,0,64,127,,
86280,note_on,20,0,1,,,,,,,,,0,,,82,0
86300,note_on,0,0,1,,,,,,,,,0,,,76,73
86300,note_on,20,0,1,,,,,,,,,0,,,79,0
86320,note_on,20,0,1,,,,,,,,,0,,,76,0
86320,note_on,0,0,1,,,,,,,,,0,,,73,69
86340,note_on,0,0,3,,,,,,,,,0,,,67,0
86340,note_on,0,0,3,,,,,,,,,0,,,61,0
86340,note_on,120,0,3,,,,,,,,,0,,,58,0
86340,note_on,0,0,3,,,,,,,,,0,,,58,65
86340,note_on,0,0,3,,,,,,,,,0,,,55,65
86340,note_on,20,0,1,,,,,,,,,0,,,73,0
86340,note_on,0,0,1,,,,,,,,,0,,,70,65
86340,note_on,0,0,3,,,,,,,,,0,,,61,65
86360,note_on,20,0,1,,,,,,,,,0,,,70,0
86360,note_on,0,0,1,,,,,,,,,0,,,67,61
86380,note_on,0,0,1,,,,,,,,,0,,,64,60
86380,note_on,20,0,1,,,,,,,,,0,,,67,0
86385,control_change,105,0,4,,,,,,,,,0,64,0,,
86400,note_on,0,0,3,,,,,,,,,0,,,61,0
86400,note_on,0,0,3,,,,,,,,,0,,,41,70
86400,control_change,15,0,4,,,,,,,,,0,64,127,,
86400,note_on,0,0,3,,,,,,,,,0,,,58,0
86400,note_on,60,0,3,,,,,,,,,0,,,55,0
86400,note_on,20,0,1,,,,,,,,,0,,,64,0
86400,note_on,0,0,1,,,,,,,,,0,,,65,60
86420,note_on,0,0,1,,,,,,,,,0,,,64,60
86420,note_on,20,0,1,,,,,,,,,0,,,65,0
86430,note_on,30,0,3,,,,,,,,,0,,,41,0
86440,note_on,0,0,1,,,,,,,,,0,,,65,59
86440,note_on,20,0,1,,,,,,,,,0,,,64,0
86460,note_on,0,0,3,,,,,,,,,0,,,53,68
86460,note_on,0,0,3,,,,,,,,,0,,,60,58
86460,note_on,30,0,3,,,,,,,,,0,,,58,58
86460,note_on,0,0,1,,,,,,,,,0,,,67,58
86460,note_on,20,0,1,,,,,,,,,0,,,65,0
86480,note_on,20,0,1,,,,,,,,,0,,,67,0
86480,note_on,0,0,1,,,,,,,,,0,,,69,57
86500,note_on,20,0,1,,,,,,,,,0,,,69,0
86500,note_on,0,0,1,,,,,,,,,0,,,70,56
86505,control_change,105,0,4,,,,,,,,,0,64,0,,
86520,control_change,15,0,4,,,,,,,,,0,64,127,,
86520,note_on,20,0,1,,,,,,,,,0,,,70,0
86520,note_on,0,0,1,,,,,,,,,0,,,72,55
86520,note_on,60,0,3,,,,,,,,,0,,,58,0
86520,note_on,0,0,3,,,,,,,,,0,,,57,55
86540,note_on,20,0,1,,,,,,,,,0,,,72,0
86540,note_on,0,0,1,,,,,,,,,0,,,74,54
86560,note_on,0,0,1,,,,,,,,,0,,,75,53
86560,note_on,20,0,1,,,,,,,,,0,,,74,0
86580,note_on,0,0,3,,,,,,,,,0,,,63,52
86580,note_on,0,0,3,,,,,,,,,0,,,60,0
86580,note_on,0,0,1,,,,,,,,,0,,,77,52
86580,note_on,0,0,3,,,,,,,,,0,,,60,52
86580,note_on,60,0,3,,,,,,,,,0,,,57,0
86580,note_on,20,0,1,,,,,,,,,0,,,75,0
86600,note_on,20,0,1,,,,,,,,,0,,,77,0
86600,note_on,0,0,1,,,,,,,,,0,,,79,51
86620,note_on,20,0,1,,,,,,,,,0,,,79,0
86620,note_on,0,0,1,,,,,,,,,0,,,81,50
86625,control_change,105,0,4,,,,,,,,,0,64,0,,
86640,note_on,60,0,3,,,,,,,,,0,,,60,0
86640,note_on,20,0,1,,,,,,,,,0,,,81,0
86640,note_on,0,0,1,,,,,,,,,0,,,82,49
86640,note_on,0,0,3,,,,,,,,,0,,,63,0
86640,control_change,15,0,4,,,,,,,,,0,64,127,,
86640,note_on,0,0,3,,,,,,,,,0,,,46,59
86640,note_on,0,0,3,,,,,,,,,0,,,53,0
86660,note_on,0,0,1,,,,,,,,,0,,,86,48
86660,note_on,20,0,1,,,,,,,,,0,,,82,0
86670,note_on,30,0,3,,,,,,,,,0,,,46,0
86680,note_on,0,0,1,,,,,,,,,0,,,89,47
86680,note_on,20,0,1,,,,,,,,,0,,,86,0
86700,note_on,0,0,1,,,,,,,,,0,,,94,46
86700,note_on,20,0,1,,,,,,,,,0,,,89,0
86700,note_on,30,0,3,,,,,,,,,0,,,62,46
86700,note_on,0,0,3,,,,,,,,,0,,,58,46
86720,note_on,20,0,1,,,,,,,,,0,,,94,0
86720,note_on,0,0,1,,,,,,,,,0,,,98,45
86740,note_on,20,0,1,,,,,,,,,0,,,98,0
86740,note_on,0,0,1,,,,,,,,,0,,,96,44
86745,control_change,105,0,4,,,,,,,,,0,64,0,,
86760,note_on,0,0,1,,,,,,,,,0,,,94,43
86760,note_on,20,0,1,,,,,,,,,0,,,96,0
86760,control_change,15,0,4,,,,,,,,,0,64,127,,
86780,note_on,0,0,1,,,,,,,,,0,,,89,42
86780,note_on,20,0,1,,,,,,,,,0,,,94,0
86800,note_on,0,0,1,,,,,,,,,0,,,86,41
86800,note_on,20,0,1,,,,,,,,,0,,,89,0
86820,note_on,0,0,1,,,,,,,,,0,,,82,41
86820,note_on,20,0,1,,,,,,,,,0,,,86,0
86840,note_on,0,0,1,,,,,,,,,0,,,86,40
86840,note_on,20,0,1,,,,,,,,,0,,,82,0
86860,note_on,20,0,1,,,,,,,,,0,,,86,0
86860,note_on,0,0,1,,,,,,,,,0,,,89,40
86865,control_change,105,0,4,,,,,,,,,0,64,0,,
86880,note_on,0,0,1,,,,,,,,,0,,,88,40
86880,note_on,0,0,3,,,,,,,,,0,,,62,0
86880,note_on,0,0,3,,,,,,,,,0,,,46,50
86880,note_on,20,0,1,,,,,,,,,0,,,89,0
86880,control_change,15,0,4,,,,,,,,,0,64,127,,
86880,note_on,180,0,3,,,,,,,,,0,,,58,0
86900,note_on,20,0,1,,,,,,,,,0,,,88,0
86900,note_on,0,0,1,,,,,,,,,0,,,91,40
86910,note_on,30,0,3,,,,,,,,,0,,,46,0
86920,note_on,20,0,1,,,,,,,,,0,,,91,0
86920,note_on,0,0,1,,,,,,,,,0,,,89,40
86940,note_on,30,0,3,,,,,,,,,0,,,62,40
86940,note_on,0,0,3,,,,,,,,,0,,,58,40
86940,note_on,0,0,3,,,,,,,,,0,,,53,40
86940,note_on,0,0,1,,,,,,,,,0,,,87,40
86940,note_on,20,0,1,,,,,,,,,0,,,89,0
86960,note_on,20,0,1,,,,,,,,,0,,,87,0
86960,note_on,0,0,1,,,,,,,,,0,,,86,40
86980,note_on,20,0,1,,,,,,,,,0,,,86,0
86980,note_on,0,0,1,,,,,,,,,0,,,84,40
86985,control_change,105,0,4,,,,,,,,,0,64,0,,
87000,note_on,0,0,1,,,,,,,,,0,,,82,40
87000,control_change,15,0,4,,,,,,,,,0,64,127,,
87000,note_on,20,0,1,,,,,,,,,0,,,84,0
87020,note_on,20,0,1,,,,,,,,,0,,,82,0
87020,note_on,0,0,1,,,,,,,,,0,,,81,40
87040,note_on,20,0,1,,,,,,,,,0,,,81,0
87040,note_on,0,0,1,,,,,,,,,0,,,79,40
87060,note_on,120,0,3,,,,,,,,,0,,,53,0
87060,note_on,20,0,1,,,,,,,,,0,,,79,0
87060,note_on,0,0,1,,,,,,,,,0,,,77,40
87060,note_on,0,0,3,,,,,,,,,0,,,53,40
87060,note_on,0,0,3,,,,,,,,,0,,,58,0
87060,note_on,0,0,3,,,,,,,,,0,,,62,40
87060,note_on,0,0,3,,,,,,,,,0,,,62,0
87060,note_on,0,0,3,,,,,,,,,0,,,58,40
87080,note_on,0,0,1,,,,,,,,,0,,,75,40
87080,note_on,20,0,1,,,,,,,,,0,,,77,0
87100,note_on,0,0,1,,,,,,,,,0,,,74,40
87100,note_on,20,0,1,,,,,,,,,0,,,75,0
87105,control_change,105,0,4,,,,,,,,,0,64,0,,
87120,note_on,60,0,3,,,,,,,,,0,,,53,0
87120,note_on,0,0,3,,,,,,,,,0,,,58,0
87120,note_on,0,0,3,,,,,,,,,0,,,50,50
87120,note_on,0,0,3,,,,,,,,,0,,,62,0
87120,note_on,0,0,1,,,,,,,,,0,,,72,40
87120,note_on,20,0,1,,,,,,,,,0,,,74,0
87120,control_change,15,0,4,,,,,,,,,0,64,127,,
87150,note_on,30,0,3,,,,,,,,,0,,,50,0
87180,note_on,30,0,3,,,,,,,,,0,,,65,40
87180,note_on,0,0,3,,,,,,,,,0,,,58,40
87180,note_on,0,0,3,,,,,,,,,0,,,53,40
87225,control_change,105,0,4,,,,,,,,,0,64,0,,
87240,note_on,0,0,1,,,,,,,,,0,,,70,40
87240,note_on,120,0,1,,,,,,,,,0,,,72,0
87240,control_change,15,0,4,,,,,,,,,0,64,127,,
87270,note_on,30,0,1,,,,,,,,,0,,,70,0
87300,note_on,0,0,3,,,,,,,,,0,,,58,0
87300,note_on,0,0,3,,,,,,,,,0,,,65,0
87300,note_on,0,0,3,,,,,,,,,0,,,65,40
87300,note_on,0,0,3,,,,,,,,,0,,,58,40
87300,note_on,120,0,3,,,,,,,,,0,,,53,0
87300,note_on,0,0,3,,,,,,,,,0,,,53,40
87330,note_on,60,0,1,,,,,,,,,0,,,70,40
87345,control_change,105,0,4,,,,,,,,,0,64,0,,
87360,note_on,0,0,1,,,,,,,,,0,,,69,40
87360,note_on,30,0,1,,,,,,,,,0,,,70,0
87360,control_change,15,0,4,,,,,,,,,0,64,127,,
87360,note_on,60,0,3,,,,,,,,,0,,,53,0
87360,note_on,0,0,3,,,,,,,,,0,,,58,0
87360,note_on,0,0,3,,,,,,,,,0,,,65,0
87360,note_on,0,0,3,,,,,,,,,0,,,48,50
87380,note_on,20,0,1,,,,,,,,,0,,,69,0
87380,note_on,0,0,1,,,,,,,,,0,,,70,40
87390,note_on,30,0,3,,,,,,,,,0,,,48,0
87400,note_on,20,0,1,,,,,,,,,0,,,70,0
87400,note_on,0,0,1,,,,,,,,,0,,,72,40
87420,note_on,30,0,3,,,,,,,,,0,,,63,40
87420,note_on,0,0,3,,,,,,,,,0,,,57,40
87420,note_on,0,0,3,,,,,,,,,0,,,53,40
87420,note_on,0,0,1,,,,,,,,,0,,,74,40
87420,note_on,20,0,1,,,,,,,,,0,,,72,0
87440,note_on,0,0,1,,,,,,,,,0,,,75,40
87440,note_on,20,0,1,,,,,,,,,0,,,74,0
87460,note_on,0,0,1,,,,,,,,,0,,,77,40
87460,note_on,20,0,1,,,,,,,,,0,,,75,0
87465,control_change,105,0,4,,,,,,,,,0,64,0,,
87480,note_on,20,0,1,,,,,,,,,0,,,77,0
87480,note_on,0,0,1,,,,,,,,,0,,,79,40
87480,control_change,15,0,4,,,,,,,,,0,64,127,,
87500,note_on,0,0,1,,,,,,,,,0,,,81,40
87500,note_on,20,0,1,,,,,,,,,0,,,79,0
87520,note_on,0,0,1,,,,,,,,,0,,,82,40
87520,note_on,20,0,1,,,,,,,,,0,,,81,0
87540,note_on,0,0,3,,,,,,,,,0,,,53,40
87540,note_on,20,0,1,,,,,,,,,0,,,82,0
87540,note_on,0,0,3,,,,,,,,,0,,,63,40
87540,note_on,120,0,3,,,,,,,,,0,,,53,0
87540,note_on,0,0,3,,,,,,,,,0,,,57,0
87540,note_on,0,0,3,,,,,,,,,0,,,63,0
87540,note_on,0,0,3,,,,,,,,,0,,,57,40
87540,note_on,0,0,1,,,,,,,,,0,,,83,40
87560,note_on,0,0,1,,,,,,,,,0,,,84,40
87560,note_on,20,0,1,,,,,,,,,0,,,83,0
87580,note_on,0,0,1,,,,,,,,,0,,,86,40
87580,note_on,20,0,1,,,,,,,,,0,,,84,0
87585,control_change,105,0,4,,,,,,,,,0,64,0,,
87600,note_on,0,0,1,,,,,,,,,0,,,89,40
87600,note_on,60,0,3,,,,,,,,,0,,,53,0
87600,note_on,0,0,3,,,,,,,,,0,,,57,0
87600,note_on,0,0,3,,,,,,,,,0,,,63,0
87600,note_on,0,0,3,,,,,,,,,0,,,41,50
87600,note_on,20,0,1,,,,,,,,,0,,,86,0
87600,control_change,15,0,4,,,,,,,,,0,64,127,,
87630,note_on,30,0,3,,,,,,,,,0,,,41,0
87660,note_on,0,0,3,,,,,,,,,0,,,57,40
87660,note_on,0,0,3,,,,,,,,,0,,,53,40
87660,note_on,30,0,3,,,,,,,,,0,,,60,40
87705,control_change,105,0,4,,,,,,,,,0,64,0,,
87720,control_change,15,0,4,,,,,,,,,0,64,127,,
87720,note_on,120,0,1,,,,,,,,,0,,,89,0
87720,note_on,0,0,1,,,,,,,,,0,,,87,40
87750,note_on,30,0,1,,,,,,,,,0,,,87,0
87780,note_on,120,0,3,,,,,,,,,0,,,53,0
87780,note_on,0,0,3,,,,,,,,,0,,,57,0
87780,note_on,0,0,3,,,,,,,,,0,,,60,0
87780,note_on,0,0,3,,,,,,,,,0,,,60,40
87780,note_on,0,0,3,,,,,,,,,0,,,57,40
87780,note_on,0,0,3,,,,,,,,,0,,,53,40
87810,note_on,60,0,1,,,,,,,,,0,,,87,40
87825,control_change,105,0,4,,,,,,,,,0,64,0,,
87840,note_on,60,0,3,,,,,,,,,0,,,53,0
87840,note_on,0,0,3,,,,,,,,,0,,,46,50
87840,control_change,15,0,4,,,,,,,,,0,64,127,,
87840,note_on,0,0,3,,,,,,,,,0,,,60,0
87840,note_on,0,0,1,,,,,,,,,0,,,86,40
87840,note_on,0,0,3,,,,,,,,,0,,,57,0
87840,note_on,30,0,1,,,,,,,,,0,,,87,0
87860,note_on,20,0,1,,,,,,,,,0,,,86,0
87860,note_on,0,0,1,,,,,,,,,0,,,98,42
87870,note_on,30,0,3,,,,,,,,,0,,,46,0
87880,note_on,20,0,1,,,,,,,,,0,,,98,0
87880,note_on,0,0,1,,,,,,,,,0,,,96,45
87900,note_on,20,0,1,,,,,,,,,0,,,96,0
87900,note_on,0,0,1,,,,,,,,,0,,,94,48
87900,note_on,0,0,3,,,,,,,,,0,,,53,48
87900,note_on,30,0,3,,,,,,,,,0,,,62,48
87900,note_on,0,0,3,,,,,,,,,0,,,58,48
87920,note_on,20,0,1,,,,,,,,,0,,,94,0
87920,note_on,0,0,1,,,,,,,,,0,,,93,51
87940,note_on,0,0,1,,,,,,,,,0,,,91,54
87940,note_on,20,0,1,,,,,,,,,0,,,93,0
87945,control_change,105,0,4,,,,,,,,,0,64,0,,
87960,control_change,15,0,4,,,,,,,,,0,64,127,,
87960,note_on,0,0,1,,,,,,,,,0,,,89,57
87960,note_on,20,0,1,,,,,,,,,0,,,91,0
87980,note_on,0,0,1,,,,,,,,,0,,,87,59
87980,note_on,20,0,1,,,,,,,,,0,,,89,0
88000,note_on,20,0,1,,,,,,,,,0,,,87,0
88000,note_on,0,0,1,,,,,,,,,0,,,86,62
88020,note_on,0,0,3,,,,,,,,,0,,,62,0
88020,note_on,0,0,3,,,,,,,,,0,,,53,65
88020,note_on,0,0,3,,,,,,,,,0,,,58,65
88020,note_on,0,0,3,,,,,,,,,0,,,62,65
88020,note_on,20,0,1,,,,,,,,,0,,,86,0
88020,note_on,120,0,3,,,,,,,,,0,,,53,0
88020,note_on,0,0,3,,,,,,,,,0,,,58,0
88020,note_on,0,0,1,,,,,,,,,0,,,84,65
88040,note_on,0,0,1,,,,,,,,,0,,,82,68
88040,note_on,20,0,1,,,,,,,,,0,,,84,0
88060,note_on,20,0,1,,,,,,,,,0,,,82,0
88060,note_on,0,0,1,,,,,,,,,0,,,81,71
88065,control_change,105,0,4,,,,,,,,,0,64,0,,
88080,note_on,0,0,3,,,,,,,,,0,,,62,0
88080,note_on,0,0,3,,,,,,,,,0,,,58,0
88080,note_on,0,0,3,,,,,,,,,0,,,39,84
88080,control_change,15,0,4,,,,,,,,,0,64,127,,
88080,note_on,60,0,3,,,,,,,,,0,,,53,0
88080,note_on,20,0,1,,,,,,,,,0,,,81,0
88080,note_on,0,0,1,,,,,,,,,0,,,79,74
88100,note_on,0,0,1,,,,,,,,,0,,,91,77
88100,note_on,20,0,1,,,,,,,,,0,,,79,0
88110,note_on,30,0,3,,,,,,,,,0,,,39,0
88120,note_on,0,0,1,,,,,,,,,0,,,89,79
88120,note_on,20,0,1,,,,,,,,,0,,,91,0
88140,note_on,30,0,3,,,,,,,,,0,,,60,82
88140,note_on,0,0,1,,,,,,,,,0,,,87,82
88140,note_on,0,0,3,,,,,,,,,0,,,58,82
88140,note_on,20,0,1,,,,,,,,,0,,,89,0
88140,note_on,0,0,3,,,,,,,,,0,,,51,82
88140,note_on,0,0,3,,,,,,,,,0,,,55,82
88160,note_on,0,0,1,,,,,,,,,0,,,86,85
88160,note_on,20,0,1,,,,,,,,,0,,,87,0
88180,note_on,0,0,1,,,,,,,,,0,,,84,88
88180,note_on,20,0,1,,,,,,,,,0,,,86,0
88185,control_change,105,0,4,,,,,,,,,0,64,0,,
88200,control_change,15,0,4,,,,,,,,,0,64,127,,
88200,note_on,0,0,1,,,,,,,,,0,,,82,91
88200,note_on,20,0,1,,,,,,,,,0,,,84,0
88220,note_on,0,0,1,,,,,,,,,0,,,81,94
88220,note_on,20,0,1,,,,,,,,,0,,,82,0
88240,note_on,0,0,1,,,,,,,,,0,,,79,97
88240,note_on,20,0,1,,,,,,,,,0,,,81,0
88260,note_on,0,0,1,,,,,,,,,0,,,77,99
88260,note_on,20,0,1,,,,,,,,,0,,,79,0
88260,note_on,0,0,3,,,,,,,,,0,,,60,0
88260,note_on,120,0,3,,,,,,,,,0,,,51,0
88260,note_on,0,0,3,,,,,,,,,0,,,58,0
88260,note_on,0,0,3,,,,,,,,,0,,,51,99
88260,note_on,0,0,3,,,,,,,,,0,,,55,99
88260,note_on,0,0,3,,,,,,,,,0,,,55,0
88260,note_on,0,0,3,,,,,,,,,0,,,60,99
88260,note_on,0,0,3,,,,,,,,,0,,,58,99
88280,note_on,20,0,1,,,,,,,,,0,,,77,0
88280,note_on,0,0,1,,,,,,,,,0,,,75,100
88300,note_on,0,0,1,,,,,,,,,0,,,74,100
88300,note_on,20,0,1,,,,,,,,,0,,,75,0
88305,control_change,105,0,4,,,,,,,,,0,64,0,,
88320,note_on,60,0,3,,,,,,,,,0,,,51,0
88320,note_on,0,0,3,,,,,,,,,0,,,60,0
88320,note_on,0,0,3,,,,,,,,,0,,,58,0
88320,note_on,0,0,3,,,,,,,,,0,,,55,0
88320,control_change,15,0,4,,,,,,,,,0,64,127,,
88320,note_on,0,0,3,,,,,,,,,0,,,40,110
88320,note_on,20,0,1,,,,,,,,,0,,,74,0
88320,note_on,0,0,1,,,,,,,,,0,,,72,100
88340,note_on,20,0,1,,,,,,,,,0,,,72,0
88340,note_on,0,0,1,,,,,,,,,0,,,76,98
88350,note_on,30,0,3,,,,,,,,,0,,,40,0
88360,note_on,20,0,1,,,,,,,,,0,,,76,0
88360,note_on,0,0,1,,,,,,,,,0,,,79,95
88380,note_on,0,0,3,,,,,,,,,0,,,52,92
88380,note_on,20,0,1,,,,,,,,,0,,,79,0
88380,note_on,30,0,3,,,,,,,,,0,,,60,92
88380,note_on,0,0,3,,,,,,,,,0,,,55,92
88380,note_on,0,0,3,,,,,,,,,0,,,58,92
88380,note_on,0,0,1,,,,,,,,,0,,,82,92
88400,note_on,0,0,1,,,,,,,,,0,,,79,89
88400,note_on,20,0,1,,,,,,,,,0,,,82,0
88420,note_on,0,0,1,,,,,,,,,0,,,82,86
88420,note_on,20,0,1,,,,,,,,,0,,,79,0
88425,control_change,105,0,4,,,,,,,,,0,64,0,,
88440,note_on,20,0,1,,,,,,,,,0,,,82,0
88440,note_on,0,0,1,,,,,,,,,0,,,84,83
88440,control_change,15,0,4,,,,,,,,,0,64,127,,
88460,note_on,0,0,1,,,,,,,,,0,,,88,81
88460,note_on,20,0,1,,,,,,,,,0,,,84,0
88480,note_on,20,0,1,,,,,,,,,0,,,88,0
88480,note_on,0,0,1,,,,,,,,,0,,,91,78
88500,note_on,20,0,1,,,,,,,,,0,,,91,0
88500,note_on,0,0,1,,,,,,,,,0,,,94,75
88500,note_on,0,0,3,,,,,,,,,0,,,48,75
88500,note_on,0,0,3,,,,,,,,,0,,,55,0
88500,note_on,0,0,3,,,,,,,,,0,,,58,0
88500,note_on,120,0,3,,,,,,,,,0,,,52,0
88500,note_on,0,0,3,,,,,,,,,0,,,60,0
88520,note_on,20,0,1,,,,,,,,,0,,,94,0
88520,note_on,0,0,1,,,,,,,,,0,,,91,72
88540,note_on,20,0,1,,,,,,,,,0,,,91,0
88540,note_on,0,0,1,,,,,,,,,0,,,88,69
88545,control_change,105,0,4,,,,,,,,,0,64,0,,
88560,note_on,0,0,1,,,,,,,,,0,,,89,66
88560,note_on,20,0,1,,,,,,,,,0,,,88,0
88560,note_on,60,0,3,,,,,,,,,0,,,48,0
88560,note_on,0,0,3,,,,,,,,,0,,,41,76
88560,control_change,15,0,4,,,,,,,,,0,64,127,,
88590,note_on,30,0,3,,,,,,,,,0,,,41,0
88620,note_on,60,0,1,,,,,,,,,0,,,89,0
88620,note_on,30,0,3,,,,,,,,,0,,,60,58
88620,note_on,0,0,3,,,,,,,,,0,,,57,58
88620,note_on,0,0,3,,,,,,,,,0,,,53,58
88620,note_on,0,0,1,,,,,,,,,0,,,89,58
88640,note_on,0,0,1,,,,,,,,,0,,,91,55
88640,note_on,20,0,1,,,,,,,,,0,,,89,0
88660,note_on,0,0,1,,,,,,,,,0,,,89,52
88660,note_on,20,0,1,,,,,,,,,0,,,91,0
88665,control_change,105,0,4,,,,,,,,,0,64,0,,
88680,note_on,0,0,3,,,,,,,,,0,,,60,0
88680,note_on,20,0,1,,,,,,,,,0,,,89,0
88680,note_on,0,0,1,,,,,,,,,0,,,88,49
88680,note_on,0,0,3,,,,,,,,,0,,,62,49
88680,note_on,0,0,3,,,,,,,,,0,,,58,49
88680,control_change,15,0,4,,,,,,,,,0,64,127,,
88680,note_on,60,0,3,,,,,,,,,0,,,57,0
88700,note_on,0,0,1,,,,,,,,,0,,,91,46
88700,note_on,20,0,1,,,,,,,,,0,,,88,0
88720,note_on,20,0,1,,,,,,,,,0,,,91,0
88720,note_on,0,0,1,,,,,,,,,0,,,89,43
88740,note_on,0,0,3,,,,,,,,,0,,,62,0
88740,note_on,0,0,3,,,,,,,,,0,,,63,41
88740,note_on,0,0,3,,,,,,,,,0,,,57,41
88740,note_on,60,0,3,,,,,,,,,0,,,58,0
88740,note_on,20,0,1,,,,,,,,,0,,,89,0
88740,note_on,0,0,1,,,,,,,,,0,,,87,41
88760,note_on,20,0,1,,,,,,,,,0,,,87,0
88760,note_on,0,0,1,,,,,,,,,0,,,91,40
88780,note_on,0,0,1,,,,,,,,,0,,,89,40
88780,note_on,20,0,1,,,,,,,,,0,,,91,0
88785,control_change,105,0,4,,,,,,,,,0,64,0,,
88800,control_change,15,0,4,,,,,,,,,0,64,127,,
88800,note_on,60,0,3,,,,,,,,,0,,,57,0
88800,note_on,0,0,3,,,,,,,,,0,,,53,0
88800,note_on,0,0,3,,,,,,,,,0,,,46,50
88800,note_on,0,0,3,,,,,,,,,0,,,63,0
88800,note_on,20,0,1,,,,,,,,,0,,,89,0
88800,note_on,0,0,1,,,,,,,,,0,,,88,40
88820,note_on,20,0,1,,,,,,,,,0,,,88,0
88820,note_on,0,0,1,,,,,,,,,0,,,91,40
88830,note_on,30,0,3,,,,,,,,,0,,,46,0
88840,note_on,20,0,1,,,,,,,,,0,,,91,0
88840,note_on,0,0,1,,,,,,,,,0,,,89,40
88860,note_on,30,0,3,,,,,,,,,0,,,62,40
88860,note_on,20,0,1,,,,,,,,,0,,,89,0
88860,note_on,0,0,1,,,,,,,,,0,,,87,40
88860,note_on,0,0,3,,,,,,,,,0,,,58,40
88860,note_on,0,0,3,,,,,,,,,0,,,53,40
88880,note_on,20,0,1,,,,,,,,,0,,,87,0
88880,note_on,0,0,1,,,,,,,,,0,,,86,40
88900,note_on,20,0,1,,,,,,,,,0,,,86,0
88900,note_on,0,0,1,,,,,,,,,0,,,84,40
88905,control_change,105,0,4,,,,,,,,,0,64,0,,
88920,note_on,20,0,1,,,,,,,,,0,,,84,0
88920,note_on,0,0,1,,,,,,,,,0,,,82,40
88920,control_change,15,0,4,,,,,,,,,0,64,127,,
88940,note_on,20,0,1,,,,,,,,,0,,,82,0
88940,note_on,0,0,1,,,,,,,,,0,,,81,40
88960,note_on,20,0,1,,,,,,,,,0,,,81,0
88960,note_on,0,0,1,,,,,,,,,0,,,79,40
88980,note_on,0,0,1,,,,,,,,,0,,,77,40
88980,note_on,120,0,3,,,,,,,,,0,,,53,0
88980,note_on,20,0,1,,,,,,,,,0,,,79,0
88980,note_on,0,0,3,,,,,,,,,0,,,62,0
88980,note_on,0,0,3,,,,,,,,,0,,,62,40
88980,note_on,0,0,3,,,,,,,,,0,,,58,40
88980,note_on,0,0,3,,,,,,,,,0,,,53,40
88980,note_on,0,0,3,,,,,,,,,0,,,58,0
89000,note_on,0,0,1,,,,,,,,,0,,,75,40
89000,note_on,20,0,1,,,,,,,,,0,,,77,0
89020,note_on,20,0,1,,,,,,,,,0,,,75,0
89020,note_on,0,0,1,,,,,,,,,0,,,74,40
89025,control_change,105,0,4,,,,,,,,,0,64,0,,
89040,note_on,0,0,1,,,,,,,,,0,,,72,40
89040,note_on,0,0,3,,,,,,,,,0,,,50,50
89040,note_on,0,0,3,,,,,,,,,0,,,62,0
89040,note_on,0,0,3,,,,,,,,,0,,,58,0
89040,note_on,20,0,1,,,,,,,,,0,,,74,0
89040,control_change,15,0,4,,,,,,,,,0,64,127,,
89040,note_on,60,0,3,,,,,,,,,0,,,53,0
89070,note_on,30,0,3,,,,,,,,,0,,,50,0
89100,note_on,0,0,3,,,,,,,,,0,,,58,40
89100,note_on,0,0,3,,,,,,,,,0,,,53,40
89100,note_on,30,0,3,,,,,,,,,0,,,65,40
89145,control_change,105,0,4,,,,,,,,,0,64,0,,
89160,control_change,15,0,4,,,,,,,,,0,64,127,,
89160,note_on,0,0,1,,,,,,,,,0,,,70,40
89160,note_on,120,0,1,,,,,,,,,0,,,72,0
89190,note_on,30,0,1,,,,,,,,,0,,,70,0
89220,note_on,120,0,3,,,,,,,,,0,,,53,0
89220,note_on,0,0,3,,,,,,,,,0,,,58,0
89220,note_on,0,0,3,,,,,,,,,0,,,65,0
89220,note_on,0,0,3,,,,,,,,,0,,,53,40
89220,note_on,0,0,3,,,,,,,,,0,,,58,40
89220,note_on,0,0,3,,,,,,,,,0,,,65,40
89250,note_on,60,0,1,,,,,,,,,0,,,70,40
89265,control_change,105,0,4,,,,,,,,,0,64,0,,
89280,control_change,15,0,4,,,,,,,,,0,64,127,,
89280,note_on,30,0,1,,,,,,,,,0,,,70,0
89280,note_on,0,0,1,,,,,,,,,0,,,69,40
89280,note_on,0,0,3,,,,,,,,,0,,,58,0
89280,note_on,0,0,3,,,,,,,,,0,,,65,0
89280,note_on,0,0,3,,,,,,,,,0,,,48,50
89280,note_on,60,0,3,,,,,,,,,0,,,53,0
89300,note_on,0,0,1,,,,,,,,,0,,,70,40
89300,note_on,20,0,1,,,,,,,,,0,,,69,0
89310,note_on,30,0,3,,,,,,,,,0,,,48,0
89320,note_on,20,0,1,,,,,,,,,0,,,70,0
89320,note_on,0,0,1,,,,,,,,,0,,,72,40
89340,note_on,30,0,3,,,,,,,,,0,,,63,40
89340,note_on,0,0,1,,,,,,,,,0,,,74,40
89340,note_on,20,0,1,,,,,,,,,0,,,72,0
89340,note_on,0,0,3,,,,,,,,,0,,,57,40
89340,note_on,0,0,3,,,,,,,,,0,,,53,40
89360,note_on,0,0,1,,,,,,,,,0,,,75,40
89360,note_on,20,0,1,,,,,,,,,0,,,74,0
89380,note_on,0,0,1,,,,,,,,,0,,,77,40
89380,note_on,20,0,1,,,,,,,,,0,,,75,0
89385,control_change,105,0,4,,,,,,,,,0,64,0,,
89400,note_on,0,0,1,,,,,,,,,0,,,79,40
89400,note_on,20,0,1,,,,,,,,,0,,,77,0
89400,control_change,15,0,4,,,,,,,,,0,64,127,,
89420,note_on,0,0,1,,,,,,,,,0,,,81,40
89420,note_on,20,0,1,,,,,,,,,0,,,79,0
89440,note_on,20,0,1,,,,,,,,,0,,,81,0
89440,note_on,0,0,1,,,,,,,,,0,,,82,40
89460,note_on,0,0,3,,,,,,,,,0,,,63,0
89460,note_on,0,0,3,,,,,,,,,0,,,53,40
89460,note_on,120,0,3,,,,,,,,,0,,,53,0
89460,note_on,0,0,1,,,,,,,,,0,,,83,40
89460,note_on,20,0,1,,,,,,,,,0,,,82,0
89460,note_on,0,0,3,,,,,,,,,0,,,57,40
89460,note_on,0,0,3,,,,,,,,,0,,,63,40
89460,note_on,0,0,3,,,,,,,,,0,,,57,0
89480,note_on,20,0,1,,,,,,,,,0,,,83,0
89480,note_on,0,0,1,,,,,,,,,0,,,84,40
89500,note_on,20,0,1,,,,,,,,,0,,,84,0
89500,note_on,0,0,1,,,,,,,,,0,,,86,40
89505,control_change,105,0,4,,,,,,,,,0,64,0,,
89520,note_on,0,0,3,,,,,,,,,0,,,57,0
89520,note_on,20,0,1,,,,,,,,,0,,,86,0
89520,note_on,60,0,3,,,,,,,,,0,,,53,0
89520,control_change,15,0,4,,,,,,,,,0,64,127,,
89520,note_on,0,0,1,,,,,,,,,0,,,89,40
89520,note_on,0,0,3,,,,,,,,,0,,,41,50
89520,note_on,0,0,3,,,,,,,,,0,,,63,0
89550,note_on,30,0,3,,,,,,,,,0,,,41,0
89580,note_on,30,0,3,,,,,,,,,0,,,60,40
89580,note_on,0,0,3,,,,,,,,,0,,,57,40
89580,note_on,0,0,3,,,,,,,,,0,,,53,40
89610,note_on,90,0,1,,,,,,,,,0,,,89,0
89610,note_on,0,0,1,,,,,,,,,0,,,88,40
89625,control_change,105,0,4,,,,,,,,,0,64,0,,
89640,note_on,30,0,1,,,,,,,,,0,,,88,0
89640,note_on,0,0,1,,,,,,,,,0,,,87,40
89640,control_change,15,0,4,,,,,,,,,0,64,127,,
89670,note_on,30,0,1,,,,,,,,,0,,,87,0
89700,note_on,0,0,3,,,,,,,,,0,,,57,0
89700,note_on,0,0,3,,,,,,,,,0,,,57,40
89700,note_on,120,0,3,,,,,,,,,0,,,53,0
89700,note_on,0,0,3,,,,,,,,,0,,,60,40
89700,note_on,0,0,3,,,,,,,,,0,,,60,0
89700,note_on,0,0,3,,,,,,,,,0,,,53,40
89730,note_on,60,0,1,,,,,,,,,0,,,87,40
89745,control_change,105,0,4,,,,,,,,,0,64,0,,
89760,note_on,30,0,1,,,,,,,,,0,,,87,0
89760,note_on,0,0,1,,,,,,,,,0,,,86,40
89760,note_on,0,0,3,,,,,,,,,0,,,60,0
89760,note_on,0,0,3,,,,,,,,,0,,,46,50
89760,note_on,0,0,3,,,,,,,,,0,,,57,0
89760,note_on,60,0,3,,,,,,,,,0,,,53,0
89760,control_change,15,0,4,,,,,,,,,0,64,127,,
89780,note_on,0,0,1,,,,,,,,,0,,,98,46
89780,note_on,20,0,1,,,,,,,,,0,,,86,0
89790,note_on,30,0,3,,,,,,,,,0,,,46,0
89800,note_on,0,0,1,,,,,,,,,0,,,96,53
89800,note_on,20,0,1,,,,,,,,,0,,,98,0
89820,note_on,0,0,3,,,,,,,,,0,,,58,59
89820,note_on,0,0,1,,,,,,,,,0,,,94,59
89820,note_on,0,0,3,,,,,,,,,0,,,53,59
89820,note_on,20,0,1,,,,,,,,,0,,,96,0
89820,note_on,30,0,3,,,,,,,,,0,,,62,59
89840,note_on,20,0,1,,,,,,,,,0,,,94,0
89840,note_on,0,0,1,,,,,,,,,0,,,93,66
89860,note_on,20,0,1,,,,,,,,,0,,,93,0
89860,note_on,0,0,1,,,,,,,,,0,,,91,73
89865,control_change,105,0,4,,,,,,,,,0,64,0,,
89880,note_on,20,0,1,,,,,,,,,0,,,91,0
89880,control_change,15,0,4,,,,,,,,,0,64,127,,
89880,note_on,0,0,1,,,,,,,,,0,,,89,79
89900,note_on,0,0,1,,,,,,,,,0,,,87,86
89900,note_on,20,0,1,,,,,,,,,0,,,89,0
89920,note_on,0,0,1,,,,,,,,,0,,,86,93
89920,note_on,20,0,1,,,,,,,,,0,,,87,0
89940,note_on,0,0,1,,,,,,,,,0,,,84,99
89940,note_on,20,0,1,,,,,,,,,0,,,86,0
89940,note_on,0,0,3,,,,,,,,,0,,,62,99
89940,note_on,0,0,3,,,,,,,,,0,,,58,0
89940,note_on,0,0,3,,,,,,,,,0,,,53,99
89940,note_on,0,0,3,,,,,,,,,0,,,62,0
89940,note_on,0,0,3,,,,,,,,,0,,,58,99
89940,note_on,120,0,3,,,,,,,,,0,,,53,0
89960,note_on,20,0,1,,,,,,,,,0,,,84,0
89960,note_on,0,0,1,,,,,,,,,0,,,82,100
89980,note_on,20,0,1,,,,,,,,,0,,,82,0
89980,note_on,0,0,1,,,,,,,,,0,,,81,100
89985,control_change,105,0,4,,,,,,,,,0,64,0,,
90000,note_on,0,0,3,,,,,,,,,0,,,62,0
90000,note_on,20,0,1,,,,,,,,,0,,,81,0
90000,control_change,15,0,4,,,,,,,,,0,64,127,,
90000,note_on,0,0,3,,,,,,,,,0,,,52,110
90000,note_on,0,0,3,,,,,,,,,0,,,58,0
90000,note_on,60,0,3,,,,,,,,,0,,,53,0
90000,note_on,0,0,1,,,,,,,,,0,,,79,100
90020,note_on,20,0,1,,,,,,,,,0,,,79,0
90020,note_on,0,0,1,,,,,,,,,0,,,94,97
90030,note_on,30,0,3,,,,,,,,,0,,,52,0
90040,note_on,20,0,1,,,,,,,,,0,,,94,0
90040,note_on,0,0,1,,,,,,,,,0,,,91,93
90060,note_on,20,0,1,,,,,,,,,0,,,91,0
90060,note_on,0,0,3,,,,,,,,,0,,,58,89
90060,note_on,0,0,3,,,,,,,,,0,,,61,89
90060,note_on,30,0,3,,,,,,,,,0,,,67,89
90060,note_on,0,0,1,,,,,,,,,0,,,88,89
90080,note_on,20,0,1,,,,,,,,,0,,,88,0
90080,note_on,0,0,1,,,,,,,,,0,,,85,85
90100,note_on,20,0,1,,,,,,,,,0,,,85,0
90100,note_on,0,0,1,,,,,,,,,0,,,82,81
90105,control_change,105,0,4,,,,,,,,,0,64,0,,
90120,note_on,20,0,1,,,,,,,,,0,,,82,0
90120,note_on,0,0,1,,,,,,,,,0,,,79,77
90120,control_change,15,0,4,,,,,,,,,0,64,127,,
90140,note_on,20,0,1,,,,,,,,,0,,,79,0
90140,note_on,0,0,1,,,,,,,,,0,,,76,73
90160,note_on,20,0,1,,,,,,,,,0,,,76,0
90160,note_on,0,0,1,,,,,,,,,0,,,73,69
90180,note_on,20,0,1,,,,,,,,,0,,,73,0
90180,note_on,0,0,1,,,,,,,,,0,,,70,65
90180,note_on,0,0,3,,,,,,,,,0,,,55,65
90180,note_on,0,0,3,,,,,,,,,0,,,58,65
90180,note_on,0,0,3,,,,,,,,,0,,,67,0
90180,note_on,120,0,3,,,,,,,,,0,,,58,0
90180,note_on,0,0,3,,,,,,,,,0,,,61,65
90180,note_on,0,0,3,,,,,,,,,0,,,61,0
90200,note_on,0,0,1,,,,,,,,,0,,,67,61
90200,note_on,20,0,1,,,,,,,,,0,,,70,0
90220,note_on,0,0,1,,,,,,,,,0,,,64,60
90220,note_on,20,0,1,,,,,,,,,0,,,67,0
90225,control_change,105,0,4,,,,,,,,,0,64,0,,
90240,note_on,60,0,3,,,,,,,,,0,,,55,0
90240,note_on,0,0,3,,,,,,,,,0,,,58,0
90240,note_on,0,0,3,,,,,,,,,0,,,61,0
90240,note_on,0,0,3,,,,,,,,,0,,,41,70
90240,control_change,15,0,4,,,,,,,,,0,64,127,,
90240,note_on,0,0,1,,,,,,,,,0,,,65,60
90240,note_on,20,0,1,,,,,,,,,0,,,64,0
90260,note_on,20,0,1,,,,,,,,,0,,,65,0
90260,note_on,0,0,1,,,,,,,,,0,,,64,61
90270,note_on,30,0,3,,,,,,,,,0,,,41,0
90280,note_on,20,0,1,,,,,,,,,0,,,64,0
90280,note_on,0,0,1,,,,,,,,,0,,,65,63
90300,note_on,30,0,3,,,,,,,,,0,,,58,65
90300,note_on,0,0,3,,,,,,,,,0,,,60,65
90300,note_on,0,0,3,,,,,,,,,0,,,53,65
90300,note_on,20,0,1,,,,,,,,,0,,,65,0
90300,note_on,0,0,1,,,,,,,,,0,,,67,65
90320,note_on,20,0,1,,,,,,,,,0,,,67,0
90320,note_on,0,0,1,,,,,,,,,0,,,69,67
90340,note_on,20,0,1,,,,,,,,,0,,,69,0
90340,note_on,0,0,1,,,,,,,,,0,,,70,69
90345,control_change,105,0,4,,,,,,,,,0,64,0,,
90360,note_on,60,0,3,,,,,,,,,0,,,58,0
90360,note_on,20,0,1,,,,,,,,,0,,,70,0
90360,note_on,0,0,1,,,,,,,,,0,,,72,70
90360,note_on,0,0,3,,,,,,,,,0,,,57,70
90360,control_change,15,0,4,,,,,,,,,0,64,127,,
90380,note_on,20,0,1,,,,,,,,,0,,,72,0
90380,note_on,0,0,1,,,,,,,,,0,,,74,72
90400,note_on,20,0,1,,,,,,,,,0,,,74,0
90400,note_on,0,0,1,,,,,,,,,0,,,75,74
90420,note_on,60,0,3,,,,,,,,,0,,,57,0
90420,note_on,0,0,3,,,,,,,,,0,,,60,0
90420,note_on,0,0,3,,,,,,,,,0,,,63,76
90420,note_on,0,0,3,,,,,,,,,0,,,60,76
90420,note_on,0,0,1,,,,,,,,,0,,,77,76
90420,note_on,20,0,1,,,,,,,,,0,,,75,0
90440,note_on,20,0,1,,,,,,,,,0,,,77,0
90440,note_on,0,0,1,,,,,,,,,0,,,79,78
90460,note_on,0,0,1,,,,,,,,,0,,,81,79
90460,note_on,20,0,1,,,,,,,,,0,,,79,0
90465,control_change,105,0,4,,,,,,,,,0,64,0,,
90480,note_on,0,0,1,,,,,,,,,0,,,82,81
90480,note_on,60,0,3,,,,,,,,,0,,,60,0
90480,note_on,0,0,3,,,,,,,,,0,,,63,0
90480,note_on,0,0,3,,,,,,,,,0,,,53,0
90480,note_on,0,0,3,,,,,,,,,0,,,46,91
90480,control_change,15,0,4,,,,,,,,,0,64,127,,
90480,note_on,20,0,1,,,,,,,,,0,,,81,0
90500,note_on,20,0,1,,,,,,,,,0,,,82,0
90500,note_on,0,0,1,,,,,,,,,0,,,86,83
90510,note_on,30,0,3,,,,,,,,,0,,,46,0
90520,note_on,20,0,1,,,,,,,,,0,,,86,0
90520,note_on,0,0,1,,,,,,,,,0,,,89,85
90540,note_on,30,0,3,,,,,,,,,0,,,62,87
90540,note_on,0,0,3,,,,,,,,,0,,,58,87
90540,note_on,20,0,1,,,,,,,,,0,,,89,0
90540,note_on,0,0,1,,,,,,,,,0,,,94,87
90560,note_on,0,0,1,,,,,,,,,0,,,98,89
90560,note_on,20,0,1,,,,,,,,,0,,,94,0
90580,note_on,0,0,1,,,,,,,,,0,,,96,90
90580,note_on,20,0,1,,,,,,,,,0,,,98,0
90585,control_change,105,0,4,,,,,,,,,0,64,0,,
90600,note_on,0,0,1,,,,,,,,,0,,,94,92
90600,note_on,20,0,1,,,,,,,,,0,,,96,0
90600,control_change,15,0,4,,,,,,,,,0,64,127,,
90620,note_on,0,0,1,,,,,,,,,0,,,89,94
90620,note_on,20,0,1,,,,,,,,,0,,,94,0
90640,note_on,20,0,1,,,,,,,,,0,,,89,0
90640,note_on,0,0,1,,,,,,,,,0,,,86,96
90660,note_on,20,0,1,,,,,,,,,0,,,86,0
90660,note_on,0,0,1,,,,,,,,,0,,,82,98
90680,note_on,20,0,1,,,,,,,,,0,,,82,0
90680,note_on,0,0,1,,,,,,,,,0,,,84,99
90700,note_on,20,0,1,,,,,,,,,0,,,84,0
90700,note_on,0,0,1,,,,,,,,,0,,,85,100
90705,control_change,105,0,4,,,,,,,,,0,64,0,,
90720,note_on,0,0,3,,,,,,,,,0,,,62,0
90720,note_on,180,0,3,,,,,,,,,0,,,58,0
90720,control_change,15,0,4,,,,,,,,,0,64,127,,
90720,note_on,20,0,1,,,,,,,,,0,,,85,0
90720,note_on,0,0,1,,,,,,,,,0,,,86,100
90720,note_on,0,0,3,,,,,,,,,0,,,38,100
90740,note_on,0,0,3,,,,,,,,,0,,,40,100
90740,note_on,20,0,3,,,,,,,,,0,,,38,0
90760,note_on,20,0,3,,,,,,,,,0,,,40,0
90760,note_on,0,0,3,,,,,,,,,0,,,42,100
90780,note_on,20,0,3,,,,,,,,,0,,,42,0
90780,note_on,0,0,3,,,,,,,,,0,,,43,100
90780,note_on,60,0,1,,,,,,,,,0,,,86,0
90780,note_on,0,0,1,,,,,,,,,0,,,86,100
90780,note_on,0,0,1,,,,,,,,,0,,,74,100
90780,note_on,0,0,1,,,,,,,,,0,,,78,100
90780,note_on,0,0,1,,,,,,,,,0,,,84,100
90800,note_on,20,0,3,,,,,,,,,0,,,43,0
90800,note_on,0,0,3,,,,,,,,,0,,,45,100
90820,note_on,0,0,3,,,,,,,,,0,,,46,100
90820,note_on,20,0,3,,,,,,,,,0,,,45,0
90825,control_change,105,0,4,,,,,,,,,0,64,0,,
90840,note_on,20,0,3,,,,,,,,,0,,,46,0
90840,control_change,15,0,4,,,,,,,,,0,64,127,,
90840,note_on,0,0,3,,,,,,,,,0,,,48,100
90860,note_on,0,0,3,,,,,,,,,0,,,50,100
90860,note_on,20,0,3,,,,,,,,,0,,,48,0
90880,note_on,20,0,3,,,,,,,,,0,,,50,0
90880,note_on,0,0,3,,,,,,,,,0,,,52,100
90900,note_on,0,0,1,,,,,,,,,0,,,86,100
90900,note_on,20,0,3,,,,,,,,,0,,,52,0
90900,note_on,0,0,3,,,,,,,,,0,,,54,100
90900,note_on,0,0,1,,,,,,,,,0,,,84,100
90900,note_on,120,0,1,,,,,,,,,0,,,74,0
90900,note_on,0,0,1,,,,,,,,,0,,,86,0
90900,note_on,0,0,1,,,,,,,,,0,,,84,0
90900,note_on,0,0,1,,,,,,,,,0,,,78,0
90900,note_on,0,0,1,,,,,,,,,0,,,78,100
90900,note_on,0,0,1,,,,,,,,,0,,,74,100
90920,note_on,0,0,3,,,,,,,,,0,,,55,100
90920,note_on,20,0,3,,,,,,,,,0,,,54,0
90940,note_on,20,0,3,,,,,,,,,0,,,55,0
90940,note_on,0,0,3,,,,,,,,,0,,,57,100
90945,control_change,105,0,4,,,,,,,,,0,64,0,,
90960,note_on,0,0,3,,,,,,,,,0,,,58,100
90960,note_on,20,0,3,,,,,,,,,0,,,57,0
90960,control_change,15,0,4,,,,,,,,,0,64,127,,
90960,note_on,0,0,1,,,,,,,,,0,,,86,0
90960,note_on,0,0,1,,,,,,,,,0,,,84,0
90960,note_on,0,0,1,,,,,,,,,0,,,78,0
90960,note_on,60,0,1,,,,,,,,,0,,,74,0
90980,note_on,0,0,3,,,,,,,,,0,,,62,100
90980,note_on,20,0,3,,,,,,,,,0,,,58,0
91000,note_on,20,0,3,,,,,,,,,0,,,62,0
91000,note_on,0,0,3,,,,,,,,,0,,,58,100
91020,note_on,0,0,1,,,,,,,,,0,,,74,100
91020,note_on,0,0,1,,,,,,,,,0,,,79,100
91020,note_on,0,0,1,,,,,,,,,0,,,82,100
91020,note_on,60,0,1,,,,,,,,,0,,,86,100
91020,note_on,20,0,3,,,,,,,,,0,,,58,0
91020,note_on,0,0,3,,,,,,,,,0,,,55,100
91040,note_on,20,0,3,,,,,,,,,0,,,55,0
91040,note_on,0,0,3,,,,,,,,,0,,,58,100
91060,note_on,20,0,3,,,,,,,,,0,,,58,0
91060,note_on,0,0,3,,,,,,,,,0,,,55,100
91065,control_change,105,0,4,,,,,,,,,0,64,0,,
91080,note_on,20,0,3,,,,,,,,,0,,,55,0
91080,note_on,0,0,3,,,,,,,,,0,,,50,100
91080,control_change,15,0,4,,,,,,,,,0,64,127,,
91100,note_on,20,0,3,,,,,,,,,0,,,50,0
91100,note_on,0,0,3,,,,,,,,,0,,,55,100
91120,note_on,20,0,3,,,,,,,,,0,,,55,0
91120,note_on,0,0,3,,,,,,,,,0,,,50,100
91140,note_on,0,0,1,,,,,,,,,0,,,79,100
91140,note_on,0,0,1,,,,,,,,,0,,,82,100
91140,note_on,0,0,1,,,,,,,,,0,,,86,100
91140,note_on,0,0,1,,,,,,,,,0,,,91,100
91140,note_on,0,0,1,,,,,,,,,0,,,79,0
91140,note_on,0,0,1,,,,,,,,,0,,,82,0
91140,note_on,0,0,1,,,,,,,,,0,,,86,0
91140,note_on,120,0,1,,,,,,,,,0,,,74,0
91140,note_on,20,0,3,,,,,,,,,0,,,50,0
91140,note_on,0,0,3,,,,,,,,,0,,,46,100
91160,note_on,0,0,3,,,,,,,,,0,,,50,100
91160,note_on,20,0,3,,,,,,,,,0,,,46,0
91180,note_on,0,0,3,,,,,,,,,0,,,46,100
91180,note_on,20,0,3,,,,,,,,,0,,,50,0
91185,control_change,105,0,4,,,,,,,,,0,64,0,,
91200,note_on,0,0,1,,,,,,,,,0,,,82,0
91200,control_change,15,0,4,,,,,,,,,0,64,127,,
91200,note_on,0,0,1,,,,,,,,,0,,,86,0
91200,note_on,20,0,3,,,,,,,,,0,,,46,0
91200,note_on,0,0,3,,,,,,,,,0,,,43,100
91200,note_on,60,0,1,,,,,,,,,0,,,79,0
91200,note_on,0,0,1,,,,,,,,,0,,,91,0
91220,note_on,20,0,3,,,,,,,,,0,,,43,0
91220,note_on,0,0,3,,,,,,,,,0,,,45,100
91240,note_on,20,0,3,,,,,,,,,0,,,45,0
91240,note_on,0,0,3,,,,,,,,,0,,,46,100
91260,note_on,0,0,1,,,,,,,,,0,,,86,100
91260,note_on,0,0,1,,,,,,,,,0,,,82,100
91260,note_on,20,0,3,,,,,,,,,0,,,46,0
91260,note_on,0,0,3,,,,,,,,,0,,,48,100
91260,note_on,60,0,1,,,,,,,,,0,,,94,100
91280,note_on,0,0,3,,,,,,,,,0,,,50,100
91280,note_on,20,0,3,,,,,,,,,0,,,48,0
91300,note_on,20,0,3,,,,,,,,,0,,,50,0
91300,note_on,0,0,3,,,,,,,,,0,,,52,100
91305,control_change,105,0,4,,,,,,,,,0,64,0,,
91320,note_on,20,0,3,,,,,,,,,0,,,52,0
91320,note_on,0,0,3,,,,,,,,,0,,,54,100
91320,control_change,15,0,4,,,,,,,,,0,64,127,,
91340,note_on,20,0,3,,,,,,,,,0,,,54,0
91340,note_on,0,0,3,,,,,,,,,0,,,55,100
91360,note_on,20,0,3,,,,,,,,,0,,,55,0
91360,note_on,0,0,3,,,,,,,,,0,,,56,100
91380,note_on,0,0,1,,,,,,,,,0,,,79,100
91380,note_on,0,0,1,,,,,,,,,0,,,91,100
91380,note_on,0,0,1,,,,,,,,,0,,,86,100
91380,note_on,0,0,3,,,,,,,,,0,,,57,100
91380,note_on,120,0,1,,,,,,,,,0,,,82,0
91380,note_on,0,0,1,,,,,,,,,0,,,86,0
91380,note_on,0,0,1,,,,,,,,,0,,,94,0
91380,note_on,20,0,3,,,,,,,,,0,,,56,0
91400,note_on,0,0,3,,,,,,,,,0,,,58,100
91400,note_on,20,0,3,,,,,,,,,0,,,57,0
91420,note_on,0,0,3,,,,,,,,,0,,,59,100
91420,note_on,20,0,3,,,,,,,,,0,,,58,0
91425,control_change,105,0,4,,,,,,,,,0,64,0,,
91440,note_on,0,0,1,,,,,,,,,0,,,76,100
91440,note_on,0,0,1,,,,,,,,,0,,,86,0
91440,note_on,60,0,1,,,,,,,,,0,,,91,0
91440,note_on,0,0,1,,,,,,,,,0,,,84,100
91440,control_change,15,0,4,,,,,,,,,0,64,127,,
91440,note_on,0,0,1,,,,,,,,,0,,,79,100
91440,note_on,0,0,1,,,,,,,,,0,,,79,0
91440,note_on,20,0,3,,,,,,,,,0,,,59,0
91440,note_on,0,0,1,,,,,,,,,0,,,88,100
91440,note_on,0,0,3,,,,,,,,,0,,,60,100
91460,note_on,0,0,3,,,,,,,,,0,,,64,100
91460,note_on,20,0,3,,,,,,,,,0,,,60,0
91480,note_on,0,0,3,,,,,,,,,0,,,60,100
91480,note_on,20,0,3,,,,,,,,,0,,,64,0
91500,note_on,0,0,3,,,,,,,,,0,,,55,100
91500,note_on,20,0,3,,,,,,,,,0,,,60,0
91520,note_on,0,0,3,,,,,,,,,0,,,60,100
91520,note_on,20,0,3,,,,,,,,,0,,,55,0
91540,note_on,0,0,3,,,,,,,,,0,,,55,100
91540,note_on,20,0,3,,,,,,,,,0,,,60,0
91545,control_change,105,0,4,,,,,,,,,0,64,0,,
91560,note_on,20,0,3,,,,,,,,,0,,,55,0
91560,note_on,0,0,3,,,,,,,,,0,,,52,100
91560,control_change,15,0,4,,,,,,,,,0,64,127,,
91580,note_on,20,0,3,,,,,,,,,0,,,52,0
91580,note_on,0,0,3,,,,,,,,,0,,,55,100
91600,note_on,20,0,3,,,,,,,,,0,,,55,0
91600,note_on,0,0,3,,,,,,,,,0,,,52,100
91620,note_on,20,0,3,,,,,,,,,0,,,52,0
91620,note_on,0,0,3,,,,,,,,,0,,,48,100
91665,control_change,105,0,4,,,,,,,,,0,64,0,,
91680,control_change,15,0,4,,,,,,,,,0,64,127,,
91680,note_on,0,0,1,,,,,,,,,0,,,79,0
91680,note_on,240,0,1,,,,,,,,,0,,,76,0
91680,note_on,60,0,3,,,,,,,,,0,,,48,0
91680,note_on,0,0,1,,,,,,,,,0,,,84,0
91680,note_on,0,0,1,,,,,,,,,0,,,88,0
91680,note_on,0,0,3,,,,,,,,,0,,,45,100
91700,note_on,20,0,3,,,,,,,,,0,,,45,0
91700,note_on,0,0,3,,,,,,,,,0,,,48,100
91720,note_on,20,0,3,,,,,,,,,0,,,48,0
91720,note_on,0,0,3,,,,,,,,,0,,,53,100
91740,note_on,0,0,3,,,,,,,,,0,,,57,100
91740,note_on,60,0,1,,,,,,,,,0,,,89,110
91740,note_on,0,0,1,,,,,,,,,0,,,84,110
91740,note_on,0,0,1,,,,,,,,,0,,,77,110
91740,note_on,20,0,3,,,,,,,,,0,,,53,0
91760,note_on,0,0,3,,,,,,,,,0,,,60,100
91760,note_on,20,0,3,,,,,,,,,0,,,57,0
91780,note_on,40,0,1,,,,,,,,,0,,,65,100
91780,note_on,20,0,3,,,,,,,,,0,,,60,0
91785,control_change,105,0,4,,,,,,,,,0,64,0,,
91800,note_on,0,0,1,,,,,,,,,0,,,69,100
91800,note_on,0,0,1,,,,,,,,,0,,,84,0
91800,note_on,0,0,1,,,,,,,,,0,,,77,0
91800,note_on,20,0,1,,,,,,,,,0,,,65,0
91800,control_change,15,0,4,,,,,,,,,0,64,127,,
91820,note_on,20,0,1,,,,,,,,,0,,,89,0
91820,note_on,0,0,1,,,,,,,,,0,,,84,100
91830,note_on,10,0,1,,,,,,,,,0,,,69,0
91840,note_on,10,0,1,,,,,,,,,0,,,84,0
91840,note_on,0,0,1,,,,,,,,,0,,,81,100
91860,note_on,0,0,1,,,,,,,,,0,,,77,100
91860,note_on,20,0,1,,,,,,,,,0,,,81,0
91880,note_on,0,0,1,,,,,,,,,0,,,72,100
91880,note_on,20,0,1,,,,,,,,,0,,,77,0
91900,note_on,0,0,1,,,,,,,,,0,,,69,100
91900,note_on,20,0,1,,,,,,,,,0,,,72,0
91905,control_change,105,0,4,,,,,,,,,0,64,0,,
91920,note_on,20,0,1,,,,,,,,,0,,,69,0
91920,note_on,140,0,3,,,,,,,,,0,,,46,100
91920,note_on,0,0,1,,,,,,,,,0,,,67,100
91920,control_change,15,0,4,,,,,,,,,0,64,127,,
91940,note_on,0,0,3,,,,,,,,,0,,,50,100
91940,note_on,20,0,3,,,,,,,,,0,,,46,0
91950,note_on,30,0,1,,,,,,,,,0,,,67,0
91960,note_on,0,0,3,,,,,,,,,0,,,55,100
91960,note_on,20,0,3,,,,,,,,,0,,,50,0
91980,note_on,0,0,1,,,,,,,,,0,,,86,110
91980,note_on,0,0,1,,,,,,,,,0,,,77,110
91980,note_on,30,0,1,,,,,,,,,0,,,89,110
91980,note_on,0,0,3,,,,,,,,,0,,,58,100
91980,note_on,20,0,3,,,,,,,,,0,,,55,0
92000,note_on,20,0,1,,,,,,,,,0,,,62,100
92000,note_on,20,0,3,,,,,,,,,0,,,58,0
92020,note_on,20,0,1,,,,,,,,,0,,,62,0
92020,note_on,0,0,1,,,,,,,,,0,,,67,100
92025,control_change,105,0,4,,,,,,,,,0,64,0,,
92040,control_change,15,0,4,,,,,,,,,0,64,127,,
92040,note_on,20,0,1,,,,,,,,,0,,,67,0
92040,note_on,0,0,1,,,,,,,,,0,,,77,0
92040,note_on,0,0,1,,,,,,,,,0,,,86,0
92040,note_on,0,0,1,,,,,,,,,0,,,70,100
92060,note_on,0,0,1,,,,,,,,,0,,,86,100
92060,note_on,20,0,1,,,,,,,,,0,,,89,0
92070,note_on,10,0,1,,,,,,,,,0,,,70,0
92080,note_on,10,0,1,,,,,,,,,0,,,86,0
92080,note_on,0,0,1,,,,,,,,,0,,,82,100
92100,note_on,20,0,1,,,,,,,,,0,,,82,0
92100,note_on,0,0,1,,,,,,,,,0,,,77,100
92120,note_on,20,0,1,,,,,,,,,0,,,77,0
92120,note_on,0,0,1,,,,,,,,,0,,,74,100
92140,note_on,0,0,1,,,,,,,,,0,,,70,100
92140,note_on,20,0,1,,,,,,,,,0,,,74,0
92145,control_change,105,0,4,,,,,,,,,0,64,0,,
92160,note_on,0,0,1,,,,,,,,,0,,,69,100
92160,note_on,20,0,1,,,,,,,,,0,,,70,0
92160,note_on,160,0,3,,,,,,,,,0,,,48,110
92160,control_change,15,0,4,,,,,,,,,0,64,127,,
92180,note_on,20,0,1,,,,,,,,,0,,,69,0
92180,note_on,0,0,1,,,,,,,,,0,,,84,98
92190,note_on,30,0,3,,,,,,,,,0,,,48,0
92200,note_on,20,0,1,,,,,,,,,0,,,84,0
92200,note_on,0,0,1,,,,,,,,,0,,,82,95
92220,note_on,0,0,3,,,,,,,,,0,,,60,92
92220,note_on,30,0,3,,,,,,,,,0,,,65,92
92220,note_on,20,0,1,,,,,,,,,0,,,82,0
92220,note_on,0,0,1,,,,,,,,,0,,,81,92
92220,note_on,0,0,3,,,,,,,,,0,,,57,92
92240,note_on,20,0,1,,,,,,,,,0,,,81,0
92240,note_on,0,0,1,,,,,,,,,0,,,79,89
92250,note_on,0,0,3,,,,,,,,,0,,,60,0
92250,note_on,0,0,3,,,,,,,,,0,,,65,0
92250,note_on,30,0,3,,,,,,,,,0,,,57,0
92260,note_on,0,0,1,,,,,,,,,0,,,77,86
92260,note_on,20,0,1,,,,,,,,,0,,,79,0
92265,control_change,105,0,4,,,,,,,,,0,64,0,,
92280,note_on,20,0,1,,,,,,,,,0,,,77,0
92280,note_on,0,0,1,,,,,,,,,0,,,76,83
92280,control_change,15,0,4,,,,,,,,,0,64,127,,
92280,note_on,30,0,3,,,,,,,,,0,,,48,93
92300,note_on,0,0,1,,,,,,,,,0,,,74,81
92300,note_on,20,0,1,,,,,,,,,0,,,76,0
92310,note_on,30,0,3,,,,,,,,,0,,,48,0
92320,note_on,20,0,1,,,,,,,,,0,,,74,0
92320,note_on,0,0,1,,,,,,,,,0,,,72,78
92340,note_on,0,0,1,,,,,,,,,0,,,70,75
92340,note_on,20,0,1,,,,,,,,,0,,,72,0
92340,note_on,30,0,3,,,,,,,,,0,,,64,75
92340,note_on,0,0,3,,,,,,,,,0,,,60,75
92340,note_on,0,0,3,,,,,,,,,0,,,58,75
92360,note_on,20,0,1,,,,,,,,,0,,,70,0
92360,note_on,0,0,1,,,,,,,,,0,,,69,72
92370,note_on,30,0,3,,,,,,,,,0,,,58,0
92370,note_on,0,0,3,,,,,,,,,0,,,64,0
92370,note_on,0,0,3,,,,,,,,,0,,,60,0
92380,note_on,0,0,1,,,,,,,,,0,,,67,69
92380,note_on,20,0,1,,,,,,,,,0,,,69,0
92385,control_change,105,0,4,,,,,,,,,0,64,0,,
92400,note_on,0,0,1,,,,,,,,,0,,,65,66
92400,note_on,20,0,1,,,,,,,,,0,,,67,0
92400,control_change,15,0,4,,,,,,,,,0,64,127,,
92400,note_on,30,0,3,,,,,,,,,0,,,41,76
92430,note_on,30,0,3,,,,,,,,,0,,,41,0
92430,note_on,30,0,1,,,,,,,,,0,,,65,0
92460,note_on,30,0,3,,,,,,,,,0,,,60,58
92460,note_on,0,0,3,,,,,,,,,0,,,57,58
92460,note_on,30,0,1,,,,,,,,,0,,,77,58
92460,note_on,0,0,3,,,,,,,,,0,,,53,68
92480,note_on,20,0,1,,,,,,,,,0,,,77,0
92480,note_on,0,0,1,,,,,,,,,0,,,79,55
92500,note_on,20,0,1,,,,,,,,,0,,,79,0
92500,note_on,0,0,1,,,,,,,,,0,,,77,52
92505,control_change,105,0,4,,,,,,,,,0,64,0,,
92520,note_on,0,0,3,,,,,,,,,0,,,60,0
92520,note_on,0,0,3,,,,,,,,,0,,,62,49
92520,note_on,0,0,1,,,,,,,,,0,,,76,49
92520,note_on,60,0,3,,,,,,,,,0,,,57,0
92520,note_on,0,0,3,,,,,,,,,0,,,58,49
92520,control_change,15,0,4,,,,,,,,,0,64,127,,
92520,note_on,20,0,1,,,,,,,,,0,,,77,0
92540,note_on,20,0,1,,,,,,,,,0,,,76,0
92540,note_on,0,0,1,,,,,,,,,0,,,79,46
92560,note_on,20,0,1,,,,,,,,,0,,,79,0
92560,note_on,0,0,1,,,,,,,,,0,,,77,43
92580,note_on,0,0,3,,,,,,,,,0,,,62,0
92580,note_on,60,0,3,,,,,,,,,0,,,58,0
92580,note_on,0,0,1,,,,,,,,,0,,,76,41
92580,note_on,20,0,1,,,,,,,,,0,,,77,0
92580,note_on,0,0,3,,,,,,,,,0,,,63,41
92580,note_on,0,0,3,,,,,,,,,0,,,57,41
92600,note_on,20,0,1,,,,,,,,,0,,,76,0
92600,note_on,0,0,1,,,,,,,,,0,,,91,40
92620,note_on,20,0,1,,,,,,,,,0,,,91,0
92620,note_on,0,0,1,,,,,,,,,0,,,89,40
92625,control_change,105,0,4,,,,,,,,,0,64,0,,
92640,note_on,0,0,3,,,,,,,,,0,,,46,50
92640,note_on,60,0,3,,,,,,,,,0,,,57,0
92640,note_on,20,0,1,,,,,,,,,0,,,89,0
92640,note_on,0,0,1,,,,,,,,,0,,,88,40
92640,note_on,0,0,3,,,,,,,,,0,,,53,0
92640,note_on,0,0,3,,,,,,,,,0,,,63,0
92640,control_change,15,0,4,,,,,,,,,0,64,127,,
92660,note_on,0,0,1,,,,,,,,,0,,,91,40
92660,note_on,20,0,1,,,,,,,,,0,,,88,0
92670,note_on,30,0,3,,,,,,,,,0,,,46,0
92680,note_on,20,0,1,,,,,,,,,0,,,91,0
92680,note_on,0,0,1,,,,,,,,,0,,,89,40
92700,note_on,30,0,3,,,,,,,,,0,,,62,40
92700,note_on,0,0,3,,,,,,,,,0,,,58,40
92700,note_on,0,0,3,,,,,,,,,0,,,53,40
92700,note_on,20,0,1,,,,,,,,,0,,,89,0
92700,note_on,0,0,1,,,,,,,,,0,,,87,40
92720,note_on,0,0,1,,,,,,,,,0,,,86,40
92720,note_on,20,0,1,,,,,,,,,0,,,87,0
92740,note_on,20,0,1,,,,,,,,,0,,,86,0
92740,note_on,0,0,1,,,,,,,,,0,,,84,40
92745,control_change,105,0,4,,,,,,,,,0,64,0,,
92760,note_on,20,0,1,,,,,,,,,0,,,84,0
92760,note_on,0,0,1,,,,,,,,,0,,,82,40
92760,control_change,15,0,4,,,,,,,,,0,64,127,,
92780,note_on,0,0,1,,,,,,,,,0,,,81,40
92780,note_on,20,0,1,,,,,,,,,0,,,82,0
92800,note_on,0,0,1,,,,,,,,,0,,,79,40
92800,note_on,20,0,1,,,,,,,,,0,,,81,0
92820,note_on,0,0,1,,,,,,,,,0,,,77,40
92820,note_on,0,0,3,,,,,,,,,0,,,53,40
92820,note_on,0,0,3,,,,,,,,,0,,,58,40
92820,note_on,0,0,3,,,,,,,,,0,,,62,40
92820,note_on,0,0,3,,,,,,,,,0,,,62,0
92820,note_on,0,0,3,,,,,,,,,0,,,58,0
92820,note_on,120,0,3,,,,,,,,,0,,,53,0
92820,note_on,20,0,1,,,,,,,,,0,,,79,0
92840,note_on,20,0,1,,,,,,,,,0,,,77,0
92840,note_on,0,0,1,,,,,,,,,0,,,75,40
92860,note_on,0,0,1,,,,,,,,,0,,,74,40
92860,note_on,20,0,1,,,,,,,,,0,,,75,0
92865,control_change,105,0,4,,,,,,,,,0,64,0,,
92880,note_on,0,0,3,,,,,,,,,0,,,62,0
92880,control_change,15,0,4,,,,,,,,,0,64,127,,
92880,note_on,60,0,3,,,,,,,,,0,,,53,0
92880,note_on,0,0,3,,,,,,,,,0,,,58,0
92880,note_on,20,0,1,,,,,,,,,0,,,74,0
92880,note_on,0,0,1,,,,,,,,,0,,,72,40
92880,note_on,0,0,3,,,,,,,,,0,,,50,50
92910,note_on,30,0,3,,,,,,,,,0,,,50,0
92940,note_on,0,0,3,,,,,,,,,0,,,56,40
92940,note_on,0,0,3,,,,,,,,,0,,,58,40
92940,note_on,30,0,3,,,,,,,,,0,,,65,40
92985,control_change,105,0,4,,,,,,,,,0,64,0,,
93000,note_on,0,0,1,,,,,,,,,0,,,70,40
93000,control_change,15,0,4,,,,,,,,,0,64,127,,
93000,note_on,120,0,1,,,,,,,,,0,,,72,0
93030,note_on,30,0,1,,,,,,,,,0,,,70,0
93060,note_on,0,0,3,,,,,,,,,0,,,58,0
93060,note_on,120,0,3,,,,,,,,,0,,,56,0
93060,note_on,0,0,3,,,,,,,,,0,,,58,40
93060,note_on,0,0,3,,,,,,,,,0,,,65,40
93060,note_on,0,0,3,,,,,,,,,0,,,65,0
93060,note_on,0,0,3,,,,,,,,,0,,,56,40
93090,note_on,60,0,1,,,,,,,,,0,,,69,40
93105,control_change,105,0,4,,,,,,,,,0,64,0,,
93120,note_on,0,0,3,,,,,,,,,0,,,51,50
93120,control_change,15,0,4,,,,,,,,,0,64,127,,
93120,note_on,60,0,3,,,,,,,,,0,,,56,0
93120,note_on,0,0,3,,,,,,,,,0,,,58,0
93120,note_on,30,0,1,,,,,,,,,0,,,69,0
93120,note_on,0,0,1,,,,,,,,,0,,,70,40
93120,note_on,0,0,3,,,,,,,,,0,,,65,0
93140,note_on,0,0,1,,,,,,,,,0,,,72,41
93140,note_on,20,0,1,,,,,,,,,0,,,70,0
93150,note_on,30,0,3,,,,,,,,,0,,,51,0
93160,note_on,0,0,1,,,,,,,,,0,,,74,43
93160,note_on,20,0,1,,,,,,,,,0,,,72,0
93180,note_on,0,0,3,,,,,,,,,0,,,55,45
93180,note_on,30,0,3,,,,,,,,,0,,,63,45
93180,note_on,0,0,1,,,,,,,,,0,,,75,45
93180,note_on,20,0,1,,,,,,,,,0,,,74,0
93180,note_on,0,0,3,,,,,,,,,0,,,58,45
93200,note_on,0,0,1,,,,,,,,,0,,,77,47
93200,note_on,20,0,1,,,,,,,,,0,,,75,0
93220,note_on,20,0,1,,,,,,,,,0,,,77,0
93220,note_on,0,0,1,,,,,,,,,0,,,79,49
93225,control_change,105,0,4,,,,,,,,,0,64,0,,
93240,note_on,20,0,1,,,,,,,,,0,,,79,0
93240,control_change,15,0,4,,,,,,,,,0,64,127,,
93240,note_on,0,0,1,,,,,,,,,0,,,81,50
93260,note_on,0,0,1,,,,,,,,,0,,,82,52
93260,note_on,20,0,1,,,,,,,,,0,,,81,0
93280,note_on,0,0,1,,,,,,,,,0,,,84,54
93280,note_on,20,0,1,,,,,,,,,0,,,82,0
93300,note_on,0,0,3,,,,,,,,,0,,,58,0
93300,note_on,0,0,3,,,,,,,,,0,,,63,0
93300,note_on,0,0,3,,,,,,,,,0,,,63,56
93300,note_on,120,0,3,,,,,,,,,0,,,55,0
93300,note_on,0,0,3,,,,,,,,,0,,,55,56
93300,note_on,0,0,3,,,,,,,,,0,,,58,56
93300,note_on,20,0,1,,,,,,,,,0,,,84,0
93300,note_on,0,0,1,,,,,,,,,0,,,86,56
93320,note_on,20,0,1,,,,,,,,,0,,,86,0
93320,note_on,0,0,1,,,,,,,,,0,,,87,58
93340,note_on,20,0,1,,,,,,,,,0,,,87,0
93340,note_on,0,0,1,,,,,,,,,0,,,89,59
93345,control_change,105,0,4,,,,,,,,,0,64,0,,
93360,control_change,15,0,4,,,,,,,,,0,64,127,,
93360,note_on,0,0,3,,,,,,,,,0,,,58,0
93360,note_on,20,0,1,,,,,,,,,0,,,89,0
93360,note_on,0,0,1,,,,,,,,,0,,,91,61
93360,note_on,0,0,3,,,,,,,,,0,,,52,71
93360,note_on,60,0,3,,,,,,,,,0,,,55,0
93360,note_on,0,0,3,,,,,,,,,0,,,63,0
93372,note_on,12,0,1,,,,,,,,,0,,,91,0
93372,note_on,0,0,1,,,,,,,,,0,,,93,62
93384,note_on,0,0,1,,,,,,,,,0,,,91,63
93384,note_on,12,0,1,,,,,,,,,0,,,93,0
93390,note_on,30,0,3,,,,,,,,,0,,,52,0
93396,note_on,12,0,1,,,,,,,,,0,,,91,0
93396,note_on,0,0,1,,,,,,,,,0,,,89,65
93408,note_on,12,0,1,,,,,,,,,0,,,89,0
93408,note_on,0,0,1,,,,,,,,,0,,,91,66
93420,note_on,0,0,3,,,,,,,,,0,,,61,67
93420,note_on,30,0,3,,,,,,,,,0,,,67,67
93420,note_on,0,0,3,,,,,,,,,0,,,58,67
93450,note_on,0,0,1,,,,,,,,,0,,,94,69
93450,note_on,42,0,1,,,,,,,,,0,,,91,0
93465,control_change,105,0,4,,,,,,,,,0,64,0,,
93480,note_on,0,0,1,,,,,,,,,0,,,97,72
93480,control_change,15,0,4,,,,,,,,,0,64,127,,
93480,note_on,30,0,1,,,,,,,,,0,,,94,0
93540,note_on,60,0,1,,,,,,,,,0,,,97,0
93540,note_on,120,0,3,,,,,,,,,0,,,58,0
93540,note_on,0,0,3,,,,,,,,,0,,,61,0
93540,note_on,0,0,3,,,,,,,,,0,,,67,0
93540,note_on,0,0,3,,,,,,,,,0,,,67,78
93540,note_on,0,0,3,,,,,,,,,0,,,61,78
93540,note_on,0,0,3,,,,,,,,,0,,,58,78
93570,note_on,30,0,1,,,,,,,,,0,,,72,80
93585,control_change,105,0,4,,,,,,,,,0,64,0,,
93600,note_on,0,0,1,,,,,,,,,0,,,71,83
93600,note_on,0,0,3,,,,,,,,,0,,,55,93
93600,note_on,0,0,3,,,,,,,,,0,,,67,0
93600,note_on,0,0,3,,,,,,,,,0,,,61,0
93600,note_on,60,0,3,,,,,,,,,0,,,58,0
93600,note_on,30,0,1,,,,,,,,,0,,,72,0
93600,control_change,15,0,4,,,,,,,,,0,64,127,,
93620,note_on,0,0,1,,,,,,,,,0,,,72,85
93620,note_on,20,0,1,,,,,,,,,0,,,71,0
93630,note_on,30,0,3,,,,,,,,,0,,,55,0
93640,note_on,0,0,1,,,,,,,,,0,,,74,87
93640,note_on,20,0,1,,,,,,,,,0,,,72,0
93660,note_on,0,0,3,,,,,,,,,0,,,58,89
93660,note_on,20,0,1,,,,,,,,,0,,,74,0
93660,note_on,0,0,1,,,,,,,,,0,,,76,89
93660,note_on,30,0,3,,,,,,,,,0,,,64,89
93660,note_on,0,0,3,,,,,,,,,0,,,60,89
93680,note_on,20,0,1,,,,,,,,,0,,,76,0
93680,note_on,0,0,1,,,,,,,,,0,,,77,90
93700,note_on,20,0,1,,,,,,,,,0,,,77,0
93700,note_on,0,0,1,,,,,,,,,0,,,79,92
93705,control_change,105,0,4,,,,,,,,,0,64,0,,
93720,control_change,15,0,4,,,,,,,,,0,64,127,,
93720,note_on,20,0,1,,,,,,,,,0,,,79,0
93720,note_on,0,0,1,,,,,,,,,0,,,81,94
93740,note_on,0,0,1,,,,,,,,,0,,,82,96
93740,note_on,20,0,1,,,,,,,,,0,,,81,0
93760,note_on,20,0,1,,,,,,,,,0,,,82,0
93760,note_on,0,0,1,,,,,,,,,0,,,84,98
93780,note_on,20,0,1,,,,,,,,,0,,,84,0
93780,note_on,0,0,1,,,,,,,,,0,,,86,99
93780,note_on,120,0,3,,,,,,,,,0,,,58,0
93780,note_on,0,0,3,,,,,,,,,0,,,60,0
93780,note_on,0,0,3,,,,,,,,,0,,,64,0
93780,note_on,0,0,3,,,,,,,,,0,,,64,99
93780,note_on,0,0,3,,,,,,,,,0,,,58,99
93780,note_on,0,0,3,,,,,,,,,0,,,60,99
93800,note_on,20,0,1,,,,,,,,,0,,,86,0
93800,note_on,0,0,1,,,,,,,,,0,,,87,100
93820,note_on,20,0,1,,,,,,,,,0,,,87,0
93820,note_on,0,0,1,,,,,,,,,0,,,88,100
93825,control_change,105,0,4,,,,,,,,,0,64,0,,
93840,note_on,0,0,1,,,,,,,,,0,,,89,100
93840,control_change,15,0,4,,,,,,,,,0,64,127,,
93840,note_on,20,0,1,,,,,,,,,0,,,88,0
93840,note_on,0,0,3,,,,,,,,,0,,,53,110
93840,note_on,0,0,3,,,,,,,,,0,,,64,0
93840,note_on,0,0,3,,,,,,,,,0,,,60,0
93840,note_on,60,0,3,,,,,,,,,0,,,58,0
93860,note_on,0,0,1,,,,,,,,,0,,,101,97
93860,note_on,20,0,1,,,,,,,,,0,,,89,0
93870,note_on,30,0,3,,,,,,,,,0,,,53,0
93880,note_on,20,0,1,,,,,,,,,0,,,101,0
93880,note_on,0,0,1,,,,,,,,,0,,,100,93
93900,note_on,30,0,3,,,,,,,,,0,,,65,89
93900,note_on,0,0,3,,,,,,,,,0,,,62,89
93900,note_on,0,0,3,,,,,,,,,0,,,58,89
93900,note_on,0,0,1,,,,,,,,,0,,,99,89
93900,note_on,20,0,1,,,,,,,,,0,,,100,0
93920,note_on,0,0,1,,,,,,,,,0,,,98,85
93920,note_on,20,0,1,,,,,,,,,0,,,99,0
93940,note_on,0,0,1,,,,,,,,,0,,,96,81
93940,note_on,20,0,1,,,,,,,,,0,,,98,0
93945,control_change,105,0,4,,,,,,,,,0,64,0,,
93960,control_change,15,0,4,,,,,,,,,0,64,127,,
93960,note_on,20,0,1,,,,,,,,,0,,,96,0
93960,note_on,0,0,1,,,,,,,,,0,,,94,77
93980,note_on,20,0,1,,,,,,,,,0,,,94,0
93980,note_on,0,0,1,,,,,,,,,0,,,93,73
94000,note_on,20,0,1,,,,,,,,,0,,,93,0
94000,note_on,0,0,1,,,,,,,,,0,,,91,69
94020,note_on,0,0,3,,,,,,,,,0,,,62,65
94020,note_on,0,0,3,,,,,,,,,0,,,62,0
94020,note_on,120,0,3,,,,,,,,,0,,,58,0
94020,note_on,0,0,3,,,,,,,,,0,,,58,65
94020,note_on,0,0,3,,,,,,,,,0,,,65,0
94020,note_on,0,0,3,,,,,,,,,0,,,65,65
94020,note_on,0,0,1,,,,,,,,,0,,,89,65
94020,note_on,20,0,1,,,,,,,,,0,,,91,0
94040,note_on,20,0,1,,,,,,,,,0,,,89,0
94040,note_on,0,0,1,,,,,,,,,0,,,87,61
94060,note_on,20,0,1,,,,,,,,,0,,,87,0
94060,note_on,0,0,1,,,,,,,,,0,,,86,60
94065,control_change,105,0,4,,,,,,,,,0,64,0,,
94080,note_on,20,0,1,,,,,,,,,0,,,86,0
94080,note_on,0,0,1,,,,,,,,,0,,,84,60
94080,note_on,0,0,3,,,,,,,,,0,,,65,0
94080,note_on,0,0,3,,,,,,,,,0,,,62,0
94080,note_on,60,0,3,,,,,,,,,0,,,58,0
94080,control_change,15,0,4,,,,,,,,,0,64,127,,
94080,note_on,0,0,3,,,,,,,,,0,,,41,70
94100,note_on,0,0,1,,,,,,,,,0,,,93,61
94100,note_on,20,0,1,,,,,,,,,0,,,84,0
94110,note_on,30,0,3,,,,,,,,,0,,,41,0
94120,note_on,0,0,1,,,,,,,,,0,,,91,63
94120,note_on,20,0,1,,,,,,,,,0,,,93,0
94140,note_on,20,0,1,,,,,,,,,0,,,91,0
94140,note_on,0,0,1,,,,,,,,,0,,,87,65
94140,note_on,0,0,3,,,,,,,,,0,,,53,65
94140,note_on,0,0,3,,,,,,,,,0,,,57,65
94140,note_on,30,0,3,,,,,,,,,0,,,63,65
94160,note_on,20,0,1,,,,,,,,,0,,,87,0
94160,note_on,0,0,1,,,,,,,,,0,,,84,67
94180,note_on,20,0,1,,,,,,,,,0,,,84,0
94180,note_on,0,0,1,,,,,,,,,0,,,82,69
94185,control_change,105,0,4,,,,,,,,,0,64,0,,
94200,note_on,20,0,1,,,,,,,,,0,,,82,0
94200,note_on,0,0,1,,,,,,,,,0,,,81,70
94200,control_change,15,0,4,,,,,,,,,0,64,127,,
94220,note_on,20,0,1,,,,,,,,,0,,,81,0
94220,note_on,0,0,1,,,,,,,,,0,,,79,72
94240,note_on,20,0,1,,,,,,,,,0,,,79,0
94240,note_on,0,0,1,,,,,,,,,0,,,77,74
94260,note_on,20,0,1,,,,,,,,,0,,,77,0
94260,note_on,0,0,3,,,,,,,,,0,,,57,76
94260,note_on,0,0,3,,,,,,,,,0,,,53,76
94260,note_on,120,0,3,,,,,,,,,0,,,53,0
94260,note_on,0,0,3,,,,,,,,,0,,,57,0
94260,note_on,0,0,3,,,,,,,,,0,,,63,0
94260,note_on,0,0,3,,,,,,,,,0,,,63,76
94260,note_on,0,0,1,,,,,,,,,0,,,75,76
94280,note_on,20,0,1,,,,,,,,,0,,,75,0
94280,note_on,0,0,1,,,,,,,,,0,,,74,78
94300,note_on,0,0,1,,,,,,,,,0,,,72,79
94300,note_on,20,0,1,,,,,,,,,0,,,74,0
94305,control_change,105,0,4,,,,,,,,,0,64,0,,
94320,note_on,0,0,3,,,,,,,,,0,,,46,91
94320,note_on,0,0,1,,,,,,,,,0,,,70,81
94320,control_change,15,0,4,,,,,,,,,0,64,127,,
94320,note_on,20,0,1,,,,,,,,,0,,,72,0
94320,note_on,0,0,3,,,,,,,,,0,,,57,0
94320,note_on,0,0,3,,,,,,,,,0,,,63,0
94320,note_on,60,0,3,,,,,,,,,0,,,53,0
94340,note_on,0,0,1,,,,,,,,,0,,,74,83
94340,note_on,20,0,1,,,,,,,,,0,,,70,0
94350,note_on,30,0,3,,,,,,,,,0,,,46,0
94360,note_on,0,0,1,,,,,,,,,0,,,77,85
94360,note_on,20,0,1,,,,,,,,,0,,,74,0
94380,note_on,30,0,3,,,,,,,,,0,,,62,87
94380,note_on,20,0,1,,,,,,,,,0,,,77,0
94380,note_on,0,0,1,,,,,,,,,0,,,82,87
94380,note_on,0,0,3,,,,,,,,,0,,,58,87
94400,note_on,20,0,1,,,,,,,,,0,,,82,0
94400,note_on,0,0,1,,,,,,,,,0,,,86,89
94420,note_on,0,0,1,,,,,,,,,0,,,84,90
94420,note_on,20,0,1,,,,,,,,,0,,,86,0
94425,control_change,105,0,4,,,,,,,,,0,64,0,,
94440,note_on,0,0,1,,,,,,,,,0,,,82,92
94440,control_change,15,0,4,,,,,,,,,0,64,127,,
94440,note_on,20,0,1,,,,,,,,,0,,,84,0
94460,note_on,20,0,1,,,,,,,,,0,,,82,0
94460,note_on,0,0,1,,,,,,,,,0,,,81,94
94480,note_on,20,0,1,,,,,,,,,0,,,81,0
94480,note_on,0,0,1,,,,,,,,,0,,,82,96
94500,note_on,0,0,1,,,,,,,,,0,,,83,98
94500,note_on,20,0,1,,,,,,,,,0,,,82,0
94520,note_on,0,0,1,,,,,,,,,0,,,84,99
94520,note_on,20,0,1,,,,,,,,,0,,,83,0
94540,note_on,0,0,1,,,,,,,,,0,,,85,100
94540,note_on,20,0,1,,,,,,,,,0,,,84,0
94545,control_change,105,0,4,,,,,,,,,0,64,0,,
94560,note_on,180,0,3,,,,,,,,,0,,,58,0
94560,note_on,0,0,1,,,,,,,,,0,,,86,100
94560,note_on,20,0,1,,,,,,,,,0,,,85,0
94560,control_change,15,0,4,,,,,,,,,0,64,127,,
94560,note_on,0,0,3,,,,,,,,,0,,,62,0
94560,note_on,0,0,3,,,,,,,,,0,,,38,100
94580,note_on,20,0,3,,,,,,,,,0,,,38,0
94580,note_on,0,0,3,,,,,,,,,0,,,40,100
94600,note_on,20,0,3,,,,,,,,,0,,,40,0
94600,note_on,0,0,3,,,,,,,,,0,,,42,100
94620,note_on,0,0,1,,,,,,,,,0,,,86,100
94620,note_on,20,0,3,,,,,,,,,0,,,42,0
94620,note_on,0,0,3,,,,,,,,,0,,,43,100
94620,note_on,0,0,1,,,,,,,,,0,,,74,100
94620,note_on,0,0,1,,,,,,,,,0,,,78,100
94620,note_on,0,0,1,,,,,,,,,0,,,84,100
94620,note_on,60,0,1,,,,,,,,,0,,,86,0
94640,note_on,20,0,3,,,,,,,,,0,,,43,0
94640,note_on,0,0,3,,,,,,,,,0,,,45,100
94660,note_on,20,0,3,,,,,,,,,0,,,45,0
94660,note_on,0,0,3,,,,,,,,,0,,,46,100
94665,control_change,105,0,4,,,,,,,,,0,64,0,,
94680,note_on,0,0,3,,,,,,,,,0,,,48,100
94680,note_on,20,0,3,,,,,,,,,0,,,46,0
94680,control_change,15,0,4,,,,,,,,,0,64,127,,
94700,note_on,20,0,3,,,,,,,,,0,,,48,0
94700,note_on,0,0,3,,,,,,,,,0,,,50,100
94720,note_on,0,0,3,,,,,,,,,0,,,52,100
94720,note_on,20,0,3,,,,,,,,,0,,,50,0
94740,note_on,0,0,3,,,,,,,,,0,,,54,100
94740,note_on,120,0,1,,,,,,,,,0,,,74,0
94740,note_on,20,0,3,,,,,,,,,0,,,52,0
94740,note_on,0,0,1,,,,,,,,,0,,,86,0
94740,note_on,0,0,1,,,,,,,,,0,,,84,0
94740,note_on,0,0,1,,,,,,,,,0,,,78,100
94740,note_on,0,0,1,,,,,,,,,0,,,74,100
94740,note_on,0,0,1,,,,,,,,,0,,,78,0
94740,note_on,0,0,1,,,,,,,,,0,,,86,100
94740,note_on,0,0,1,,,,,,,,,0,,,84,100
94760,note_on,0,0,3,,,,,,,,,0,,,55,100
94760,note_on,20,0,3,,,,,,,,,0,,,54,0
94780,note_on,20,0,3,,,,,,,,,0,,,55,0
94780,note_on,0,0,3,,,,,,,,,0,,,57,100
94785,control_change,105,0,4,,,,,,,,,0,64,0,,
94800,note_on,60,0,1,,,,,,,,,0,,,74,0
94800,note_on,0,0,1,,,,,,,,,0,,,78,0
94800,control_change,15,0,4,,,,,,,,,0,64,127,,
94800,note_on,0,0,1,,,,,,,,,0,,,84,0
94800,note_on,0,0,1,,,,,,,,,0,,,86,0
94800,note_on,20,0,3,,,,,,,,,0,,,57,0
94800,note_on,0,0,3,,,,,,,,,0,,,58,100
94820,note_on,20,0,3,,,,,,,,,0,,,58,0
94820,note_on,0,0,3,,,,,,,,,0,,,62,100
94840,note_on,0,0,3,,,,,,,,,0,,,58,100
94840,note_on,20,0,3,,,,,,,,,0,,,62,0
94860,note_on,0,0,1,,,,,,,,,0,,,82,100
94860,note_on,0,0,1,,,,,,,,,0,,,79,100
94860,note_on,0,0,1,,,,,,,,,0,,,74,100
94860,note_on,60,0,1,,,,,,,,,0,,,86,100
94860,note_on,20,0,3,,,,,,,,,0,,,58,0
94860,note_on,0,0,3,,,,,,,,,0,,,55,100
94880,note_on,20,0,3,,,,,,,,,0,,,55,0
94880,note_on,0,0,3,,,,,,,,,0,,,58,100
94900,note_on,20,0,3,,,,,,,,,0,,,58,0
94900,note_on,0,0,3,,,,,,,,,0,,,55,100
94905,control_change,105,0,4,,,,,,,,,0,64,0,,
94920,note_on,0,0,3,,,,,,,,,0,,,50,100
94920,control_change,15,0,4,,,,,,,,,0,64,127,,
94920,note_on,20,0,3,,,,,,,,,0,,,55,0
94940,note_on,20,0,3,,,,,,,,,0,,,50,0
94940,note_on,0,0,3,,,,,,,,,0,,,55,100
94960,note_on,20,0,3,,,,,,,,,0,,,55,0
94960,note_on,0,0,3,,,,,,,,,0,,,50,100
94980,note_on,0,0,1,,,,,,,,,0,,,86,0
94980,note_on,0,0,1,,,,,,,,,0,,,82,0
94980,note_on,120,0,1,,,,,,,,,0,,,74,0
94980,note_on,0,0,1,,,,,,,,,0,,,79,0
94980,note_on,0,0,1,,,,,,,,,0,,,91,100
94980,note_on,0,0,1,,,,,,,,,0,,,86,100
94980,note_on,0,0,1,,,,,,,,,0,,,82,100
94980,note_on,0,0,1,,,,,,,,,0,,,79,100
94980,note_on,0,0,3,,,,,,,,,0,,,46,100
94980,note_on,20,0,3,,,,,,,,,0,,,50,0
95000,note_on,0,0,3,,,,,,,,,0,,,50,100
95000,note_on,20,0,3,,,,,,,,,0,,,46,0
95020,note_on,20,0,3,,,,,,,,,0,,,50,0
95020,note_on,0,0,3,,,,,,,,,0,,,46,100
95025,control_change,105,0,4,,,,,,,,,0,64,0,,
95040,note_on,20,0,3,,,,,,,,,0,,,46,0
95040,note_on,0,0,3,,,,,,,,,0,,,43,100
95040,note_on,60,0,1,,,,,,,,,0,,,79,0
95040,control_change,15,0,4,,,,,,,,,0,64,127,,
95040,note_on,0,0,1,,,,,,,,,0,,,91,0
95040,note_on,0,0,1,,,,,,,,,0,,,86,0
95040,note_on,0,0,1,,,,,,,,,0,,,82,0
95060,note_on,0,0,3,,,,,,,,,0,,,45,100
95060,note_on,20,0,3,,,,,,,,,0,,,43,0
95080,note_on,20,0,3,,,,,,,,,0,,,45,0
95080,note_on,0,0,3,,,,,,,,,0,,,46,100
95100,note_on,60,0,1,,,,,,,,,0,,,94,100
95100,note_on,0,0,1,,,,,,,,,0,,,82,100
95100,note_on,0,0,3,,,,,,,,,0,,,48,100
95100,note_on,0,0,1,,,,,,,,,0,,,86,100
95100,note_on,20,0,3,,,,,,,,,0,,,46,0
95120,note_on,20,0,3,,,,,,,,,0,,,48,0
95120,note_on,0,0,3,,,,,,,,,0,,,50,100
95140,note_on,20,0,3,,,,,,,,,0,,,50,0
95140,note_on,0,0,3,,,,,,,,,0,,,52,100
95145,control_change,105,0,4,,,,,,,,,0,64,0,,
95160,note_on,0,0,3,,,,,,,,,0,,,54,100
95160,control_change,15,0,4,,,,,,,,,0,64,127,,
95160,note_on,20,0,3,,,,,,,,,0,,,52,0
95180,note_on,20,0,3,,,,,,,,,0,,,54,0
95180,note_on,0,0,3,,,,,,,,,0,,,55,100
95200,note_on,0,0,3,,,,,,,,,0,,,56,100
95200,note_on,20,0,3,,,,,,,,,0,,,55,0
95220,note_on,0,0,1,,,,,,,,,0,,,86,0
95220,note_on,0,0,1,,,,,,,,,0,,,91,100
95220,note_on,0,0,1,,,,,,,,,0,,,86,100
95220,note_on,0,0,1,,,,,,,,,0,,,79,100
95220,note_on,0,0,1,,,,,,,,,0,,,94,0
95220,note_on,20,0,3,,,,,,,,,0,,,56,0
95220,note_on,0,0,3,,,,,,,,,0,,,57,100
95220,note_on,120,0,1,,,,,,,,,0,,,82,0
95240,note_on,0,0,3,,,,,,,,,0,,,58,100
95240,note_on,20,0,3,,,,,,,,,0,,,57,0
95260,note_on,0,0,3,,,,,,,,,0,,,59,100
95260,note_on,20,0,3,,,,,,,,,0,,,58,0
95265,control_change,105,0,4,,,,,,,,,0,64,0,,
95280,note_on,0,0,3,,,,,,,,,0,,,60,100
95280,control_change,15,0,4,,,,,,,,,0,64,127,,
95280,note_on,0,0,1,,,,,,,,,0,,,76,100
95280,note_on,0,0,1,,,,,,,,,0,,,84,100
95280,note_on,0,0,1,,,,,,,,,0,,,88,100
95280,note_on,0,0,1,,,,,,,,,0,,,79,0
95280,note_on,0,0,1,,,,,,,,,0,,,86,0
95280,note_on,60,0,1,,,,,,,,,0,,,91,0
95280,note_on,20,0,3,,,,,,,,,0,,,59,0
95280,note_on,0,0,1,,,,,,,,,0,,,79,100
95300,note_on,0,0,3,,,,,,,,,0,,,64,100
95300,note_on,20,0,3,,,,,,,,,0,,,60,0
95320,note_on,20,0,3,,,,,,,,,0,,,64,0
95320,note_on,0,0,3,,,,,,,,,0,,,60,100
95340,note_on,20,0,3,,,,,,,,,0,,,60,0
95340,note_on,0,0,3,,,,,,,,,0,,,55,100
95360,note_on,0,0,3,,,,,,,,,0,,,60,100
95360,note_on,20,0,3,,,,,,,,,0,,,55,0
95380,note_on,20,0,3,,,,,,,,,0,,,60,0
95380,note_on,0,0,3,,,,,,,,,0,,,55,100
95385,control_change,105,0,4,,,,,,,,,0,64,0,,
95400,note_on,0,0,3,,,,,,,,,0,,,52,100
95400,note_on,20,0,3,,,,,,,,,0,,,55,0
95400,control_change,15,0,4,,,,,,,,,0,64,127,,
95420,note_on,0,0,3,,,,,,,,,0,,,55,100
95420,note_on,20,0,3,,,,,,,,,0,,,52,0
95440,note_on,0,0,3,,,,,,,,,0,,,52,100
95440,note_on,20,0,3,,,,,,,,,0,,,55,0
95460,note_on,0,0,3,,,,,,,,,0,,,48,100
95460,note_on,20,0,3,,,,,,,,,0,,,52,0
95505,control_change,105,0,4,,,,,,,,,0,64,0,,
95520,note_on,0,0,3,,,,,,,,,0,,,45,100
95520,note_on,60,0,3,,,,,,,,,0,,,48,0
95520,note_on,240,0,1,,,,,,,,,0,,,76,0
95520,control_change,15,0,4,,,,,,,,,0,64,127,,
95520,note_on,0,0,1,,,,,,,,,0,,,88,0
95520,note_on,0,0,1,,,,,,,,,0,,,84,0
95520,note_on,0,0,1,,,,,,,,,0,,,79,0
95540,note_on,20,0,3,,,,,,,,,0,,,45,0
95540,note_on,0,0,3,,,,,,,,,0,,,48,100
95560,note_on,20,0,3,,,,,,,,,0,,,48,0
95560,note_on,0,0,3,,,,,,,,,0,,,53,100
95580,note_on,0,0,1,,,,,,,,,0,,,77,110
95580,note_on,0,0,1,,,,,,,,,0,,,84,110
95580,note_on,20,0,3,,,,,,,,,0,,,53,0
95580,note_on,0,0,3,,,,,,,,,0,,,57,100
95580,note_on,60,0,1,,,,,,,,,0,,,89,110
95600,note_on,20,0,3,,,,,,,,,0,,,57,0
95600,note_on,0,0,3,,,,,,,,,0,,,60,100
95620,note_on,20,0,3,,,,,,,,,0,,,60,0
95620,note_on,40,0,1,,,,,,,,,0,,,65,100
95625,control_change,105,0,4,,,,,,,,,0,64,0,,
95640,note_on,20,0,1,,,,,,,,,0,,,65,0
95640,note_on,0,0,1,,,,,,,,,0,,,84,0
95640,note_on,0,0,1,,,,,,,,,0,,,77,0
95640,control_change,15,0,4,,,,,,,,,0,64,127,,
95640,note_on,0,0,1,,,,,,,,,0,,,69,100
95660,note_on,0,0,1,,,,,,,,,0,,,84,100
95660,note_on,20,0,1,,,,,,,,,0,,,89,0
95670,note_on,10,0,1,,,,,,,,,0,,,69,0
95680,note_on,0,0,1,,,,,,,,,0,,,81,100
95680,note_on,10,0,1,,,,,,,,,0,,,84,0
95700,note_on,20,0,1,,,,,,,,,0,,,81,0
95700,note_on,0,0,1,,,,,,,,,0,,,77,100
95720,note_on,0,0,1,,,,,,,,,0,,,72,100
95720,note_on,20,0,1,,,,,,,,,0,,,77,0
95740,note_on,0,0,1,,,,,,,,,0,,,69,100
95740,note_on,20,0,1,,,,,,,,,0,,,72,0
95745,control_change,105,0,4,,,,,,,,,0,64,0,,
95760,note_on,20,0,1,,,,,,,,,0,,,69,0
95760,control_change,15,0,4,,,,,,,,,0,64,127,,
95760,note_on,140,0,3,,,,,,,,,0,,,46,100
95760,note_on,0,0,1,,,,,,,,,0,,,67,100
95780,note_on,20,0,3,,,,,,,,,0,,,46,0
95780,note_on,0,0,3,,,,,,,,,0,,,50,100
95790,note_on,30,0,1,,,,,,,,,0,,,67,0
95800,note_on,20,0,3,,,,,,,,,0,,,50,0
95800,note_on,0,0,3,,,,,,,,,0,,,55,100
95820,note_on,20,0,3,,,,,,,,,0,,,55,0
95820,note_on,0,0,3,,,,,,,,,0,,,58,100
95820,note_on,0,0,1,,,,,,,,,0,,,86,110
95820,note_on,30,0,1,,,,,,,,,0,,,89,110
95820,note_on,0,0,1,,,,,,,,,0,,,77,110
95840,note_on,20,0,1,,,,,,,,,0,,,62,100
95840,note_on,20,0,3,,,,,,,,,0,,,58,0
95860,note_on,0,0,1,,,,,,,,,0,,,67,100
95860,note_on,20,0,1,,,,,,,,,0,,,62,0
95865,control_change,105,0,4,,,,,,,,,0,64,0,,
95880,control_change,15,0,4,,,,,,,,,0,64,127,,
95880,note_on,0,0,1,,,,,,,,,0,,,86,0
95880,note_on,20,0,1,,,,,,,,,0,,,67,0
95880,note_on,0,0,1,,,,,,,,,0,,,77,0
95880,note_on,0,0,1,,,,,,,,,0,,,70,100
95900,note_on,0,0,1,,,,,,,,,0,,,86,100
95900,note_on,20,0,1,,,,,,,,,0,,,89,0
95910,note_on,10,0,1,,,,,,,,,0,,,70,0
95920,note_on,0,0,1,,,,,,,,,0,,,82,100
95920,note_on,10,0,1,,,,,,,,,0,,,86,0
95940,note_on,0,0,1,,,,,,,,,0,,,77,100
95940,note_on,20,0,1,,,,,,,,,0,,,82,0
95960,note_on,0,0,1,,,,,,,,,0,,,74,100
95960,note_on,20,0,1,,,,,,,,,0,,,77,0
95980,note_on,0,0,1,,,,,,,,,0,,,70,100
95980,note_on,20,0,1,,,,,,,,,0,,,74,0
95985,control_change,105,0,4,,,,,,,,,0,64,0,,
96000,note_on,160,0,3,,,,,,,,,0,,,48,110
96000,note_on,20,0,1,,,,,,,,,0,,,70,0
96000,control_change,15,0,4,,,,,,,,,0,64,127,,
96000,note_on,0,0,1,,,,,,,,,0,,,69,100
96020,note_on,20,0,1,,,,,,,,,0,,,69,0
96020,note_on,0,0,1,,,,,,,,,0,,,84,98
96030,note_on,30,0,3,,,,,,,,,0,,,48,0
96040,note_on,20,0,1,,,,,,,,,0,,,84,0
96040,note_on,0,0,1,,,,,,,,,0,,,82,95
96060,note_on,0,0,1,,,,,,,,,0,,,81,92
96060,note_on,20,0,1,,,,,,,,,0,,,82,0
96060,note_on,0,0,3,,,,,,,,,0,,,57,92
96060,note_on,0,0,3,,,,,,,,,0,,,60,92
96060,note_on,30,0,3,,,,,,,,,0,,,65,92
96080,note_on,0,0,1,,,,,,,,,0,,,79,89
96080,note_on,20,0,1,,,,,,,,,0,,,81,0
96090,note_on,30,0,3,,,,,,,,,0,,,57,0
96090,note_on,0,0,3,,,,,,,,,0,,,65,0
96090,note_on,0,0,3,,,,,,,,,0,,,60,0
96100,note_on,20,0,1,,,,,,,,,0,,,79,0
96100,note_on,0,0,1,,,,,,,,,0,,,77,86
96105,control_change,105,0,4,,,,,,,,,0,64,0,,
96120,note_on,30,0,3,,,,,,,,,0,,,48,93
96120,note_on,20,0,1,,,,,,,,,0,,,77,0
96120,note_on,0,0,1,,,,,,,,,0,,,76,83
96120,control_change,15,0,4,,,,,,,,,0,64,127,,
96140,note_on,0,0,1,,,,,,,,,0,,,74,81
96140,note_on,20,0,1,,,,,,,,,0,,,76,0
96150,note_on,30,0,3,,,,,,,,,0,,,48,0
96160,note_on,0,0,1,,,,,,,,,0,,,72,78
96160,note_on,20,0,1,,,,,,,,,0,,,74,0
96180,note_on,0,0,1,,,,,,,,,0,,,70,75
96180,note_on,30,0,3,,,,,,,,,0,,,64,75
96180,note_on,0,0,3,,,,,,,,,0,,,60,75
96180,note_on,0,0,3,,,,,,,,,0,,,58,75
96180,note_on,20,0,1,,,,,,,,,0,,,72,0
96200,note_on,20,0,1,,,,,,,,,0,,,70,0
96200,note_on,0,0,1,,,,,,,,,0,,,69,72
96210,note_on,30,0,3,,,,,,,,,0,,,58,0
96210,note_on,0,0,3,,,,,,,,,0,,,60,0
96210,note_on,0,0,3,,,,,,,,,0,,,64,0
96220,note_on,20,0,1,,,,,,,,,0,,,69,0
96220,note_on,0,0,1,,,,,,,,,0,,,67,69
96225,control_change,105,0,4,,,,,,,,,0,64,0,,
96240,note_on,30,0,3,,,,,,,,,0,,,41,76
96240,note_on,20,0,1,,,,,,,,,0,,,67,0
96240,note_on,0,0,1,,,,,,,,,0,,,65,66
96240,control_change,15,0,4,,,,,,,,,0,64,127,,
96270,note_on,30,0,1,,,,,,,,,0,,,65,0
96270,note_on,30,0,3,,,,,,,,,0,,,41,0
96300,note_on,0,0,3,,,,,,,,,0,,,57,58
96300,note_on,30,0,3,,,,,,,,,0,,,60,58
96300,note_on,30,0,1,,,,,,,,,0,,,77,58
96300,note_on,0,0,3,,,,,,,,,0,,,53,68
96320,note_on,20,0,1,,,,,,,,,0,,,77,0
96320,note_on,0,0,1,,,,,,,,,0,,,79,55
96340,note_on,20,0,1,,,,,,,,,0,,,79,0
96340,note_on,0,0,1,,,,,,,,,0,,,77,52
96345,control_change,105,0,4,,,,,,,,,0,64,0,,
96360,note_on,0,0,3,,,,,,,,,0,,,60,0
96360,note_on,0,0,3,,,,,,,,,0,,,62,49
96360,note_on,0,0,3,,,,,,,,,0,,,58,49
96360,control_change,15,0,4,,,,,,,,,0,64,127,,
96360,note_on,20,0,1,,,,,,,,,0,,,77,0
96360,note_on,0,0,1,,,,,,,,,0,,,76,49
96360,note_on,60,0,3,,,,,,,,,0,,,57,0
96380,note_on,0,0,1,,,,,,,,,0,,,79,46
96380,note_on,20,0,1,,,,,,,,,0,,,76,0
96400,note_on,20,0,1,,,,,,,,,0,,,79,0
96400,note_on,0,0,1,,,,,,,,,0,,,77,43
96420,note_on,60,0,3,,,,,,,,,0,,,58,0
96420,note_on,0,0,3,,,,,,,,,0,,,62,0
96420,note_on,0,0,3,,,,,,,,,0,,,63,41
96420,note_on,0,0,3,,,,,,,,,0,,,57,41
96420,note_on,20,0,1,,,,,,,,,0,,,77,0
96420,note_on,0,0,1,,,,,,,,,0,,,76,41
96440,note_on,20,0,1,,,,,,,,,0,,,76,0
96440,note_on,0,0,1,,,,,,,,,0,,,91,40
96460,note_on,0,0,1,,,,,,,,,0,,,89,40
96460,note_on,20,0,1,,,,,,,,,0,,,91,0
96465,control_change,105,0,4,,,,,,,,,0,64,0,,
96480,note_on,0,0,1,,,,,,,,,0,,,88,40
96480,note_on,20,0,1,,,,,,,,,0,,,89,0
96480,note_on,0,0,3,,,,,,,,,0,,,46,50
96480,note_on,0,0,3,,,,,,,,,0,,,53,0
96480,note_on,0,0,3,,,,,,,,,0,,,63,0
96480,note_on,60,0,3,,,,,,,,,0,,,57,0
96480,control_change,15,0,4,,,,,,,,,0,64,127,,
96500,note_on,20,0,1,,,,,,,,,0,,,88,0
96500,note_on,0,0,1,,,,,,,,,0,,,91,40
96510,note_on,30,0,3,,,,,,,,,0,,,46,0
96520,note_on,20,0,1,,,,,,,,,0,,,91,0
96520,note_on,0,0,1,,,,,,,,,0,,,89,40
96540,note_on,20,0,1,,,,,,,,,0,,,89,0
96540,note_on,30,0,3,,,,,,,,,0,,,62,40
96540,note_on,0,0,3,,,,,,,,,0,,,53,40
96540,note_on,0,0,3,,,,,,,,,0,,,58,40
96540,note_on,0,0,1,,,,,,,,,0,,,87,40
96560,note_on,20,0,1,,,,,,,,,0,,,87,0
96560,note_on,0,0,1,,,,,,,,,0,,,86,40
96580,note_on,20,0,1,,,,,,,,,0,,,86,0
96580,note_on,0,0,1,,,,,,,,,0,,,84,40
96585,control_change,105,0,4,,,,,,,,,0,64,0,,
96600,control_change,15,0,4,,,,,,,,,0,64,127,,
96600,note_on,20,0,1,,,,,,,,,0,,,84,0
96600,note_on,0,0,1,,,,,,,,,0,,,82,40
96620,note_on,0,0,1,,,,,,,,,0,,,81,40
96620,note_on,20,0,1,,,,,,,,,0,,,82,0
96640,note_on,0,0,1,,,,,,,,,0,,,79,40
96640,note_on,20,0,1,,,,,,,,,0,,,81,0
96660,note_on,0,0,3,,,,,,,,,0,,,53,40
96660,note_on,120,0,3,,,,,,,,,0,,,53,0
96660,note_on,0,0,3,,,,,,,,,0,,,58,0
96660,note_on,0,0,3,,,,,,,,,0,,,58,40
96660,note_on,0,0,3,,,,,,,,,0,,,62,40
96660,note_on,0,0,3,,,,,,,,,0,,,62,0
96660,note_on,0,0,1,,,,,,,,,0,,,77,40
96660,note_on,20,0,1,,,,,,,,,0,,,79,0
96680,note_on,0,0,1,,,,,,,,,0,,,75,40
96680,note_on,20,0,1,,,,,,,,,0,,,77,0
96700,note_on,20,0,1,,,,,,,,,0,,,75,0
96700,note_on,0,0,1,,,,,,,,,0,,,74,40
96705,control_change,105,0,4,,,,,,,,,0,64,0,,
96720,note_on,20,0,1,,,,,,,,,0,,,74,0
96720,control_change,15,0,4,,,,,,,,,0,64,127,,
96720,note_on,0,0,1,,,,,,,,,0,,,72,40
96720,note_on,0,0,3,,,,,,,,,0,,,62,0
96720,note_on,0,0,3,,,,,,,,,0,,,50,50
96720,note_on,0,0,3,,,,,,,,,0,,,58,0
96720,note_on,60,0,3,,,,,,,,,0,,,53,0
96750,note_on,30,0,3,,,,,,,,,0,,,50,0
96780,note_on,0,0,3,,,,,,,,,0,,,58,40
96780,note_on,0,0,3,,,,,,,,,0,,,56,40
96780,note_on,30,0,3,,,,,,,,,0,,,65,40
96825,control_change,105,0,4,,,,,,,,,0,64,0,,
96840,control_change,15,0,4,,,,,,,,,0,64,127,,
96840,note_on,0,0,1,,,,,,,,,0,,,70,40
96840,note_on,120,0,1,,,,,,,,,0,,,72,0
96870,note_on,30,0,1,,,,,,,,,0,,,70,0
96900,note_on,0,0,3,,,,,,,,,0,,,65,0
96900,note_on,0,0,3,,,,,,,,,0,,,65,40
96900,note_on,0,0,3,,,,,,,,,0,,,56,40
96900,note_on,0,0,3,,,,,,,,,0,,,58,40
96900,note_on,0,0,3,,,,,,,,,0,,,58,0
96900,note_on,120,0,3,,,,,,,,,0,,,56,0
96930,note_on,60,0,1,,,,,,,,,0,,,69,40
96945,control_change,105,0,4,,,,,,,,,0,64,0,,
96960,note_on,0,0,1,,,,,,,,,0,,,70,40
96960,note_on,30,0,1,,,,,,,,,0,,,69,0
96960,control_change,15,0,4,,,,,,,,,0,64,127,,
96960,note_on,0,0,3,,,,,,,,,0,,,58,0
96960,note_on,60,0,3,,,,,,,,,0,,,56,0
96960,note_on,0,0,3,,,,,,,,,0,,,65,0
96960,note_on,0,0,3,,,,,,,,,0,,,51,50
96980,note_on,20,0,1,,,,,,,,,0,,,70,0
96980,note_on,0,0,1,,,,,,,,,0,,,72,41
96990,note_on,30,0,3,,,,,,,,,0,,,51,0
97000,note_on,20,0,1,,,,,,,,,0,,,72,0
97000,note_on,0,0,1,,,,,,,,,0,,,74,43
97020,note_on,0,0,3,,,,,,,,,0,,,58,45
97020,note_on,30,0,3,,,,,,,,,0,,,63,45
97020,note_on,20,0,1,,,,,,,,,0,,,74,0
97020,note_on,0,0,1,,,,,,,,,0,,,75,45
97020,note_on,0,0,3,,,,,,,,,0,,,55,45
97040,note_on,0,0,1,,,,,,,,,0,,,77,47
97040,note_on,20,0,1,,,,,,,,,0,,,75,0
97060,note_on,20,0,1,,,,,,,,,0,,,77,0
97060,note_on,0,0,1,,,,,,,,,0,,,79,49
97065,control_change,105,0,4,,,,,,,,,0,64,0,,
97080,control_change,15,0,4,,,,,,,,,0,64,127,,
97080,note_on,20,0,1,,,,,,,,,0,,,79,0
97080,note_on,0,0,1,,,,,,,,,0,,,81,50
97100,note_on,20,0,1,,,,,,,,,0,,,81,0
97100,note_on,0,0,1,,,,,,,,,0,,,82,52
97120,note_on,20,0,1,,,,,,,,,0,,,82,0
97120,note_on,0,0,1,,,,,,,,,0,,,84,54
97140,note_on,20,0,1,,,,,,,,,0,,,84,0
97140,note_on,0,0,1,,,,,,,,,0,,,86,56
97140,note_on,0,0,3,,,,,,,,,0,,,55,56
97140,note_on,0,0,3,,,,,,,,,0,,,58,56
97140,note_on,0,0,3,,,,,,,,,0,,,63,56
97140,note_on,0,0,3,,,,,,,,,0,,,63,0
97140,note_on,0,0,3,,,,,,,,,0,,,58,0
97140,note_on,120,0,3,,,,,,,,,0,,,55,0
97160,note_on,20,0,1,,,,,,,,,0,,,86,0
97160,note_on,0,0,1,,,,,,,,,0,,,87,58
97180,note_on,0,0,1,,,,,,,,,0,,,89,59
97180,note_on,20,0,1,,,,,,,,,0,,,87,0
97185,control_change,105,0,4,,,,,,,,,0,64,0,,
97200,control_change,15,0,4,,,,,,,,,0,64,127,,
97200,note_on,0,0,3,,,,,,,,,0,,,52,71
97200,note_on,0,0,3,,,,,,,,,0,,,63,0
97200,note_on,0,0,1,,,,,,,,,0,,,91,61
97200,note_on,20,0,1,,,,,,,,,0,,,89,0
97200,note_on,0,0,3,,,,,,,,,0,,,58,0
97200,note_on,60,0,3,,,,,,,,,0,,,55,0
97212,note_on,0,0,1,,,,,,,,,0,,,93,62
97212,note_on,12,0,1,,,,,,,,,0,,,91,0
97224,note_on,12,0,1,,,,,,,,,0,,,93,0
97224,note_on,0,0,1,,,,,,,,,0,,,91,63
97230,note_on,30,0,3,,,,,,,,,0,,,52,0
97236,note_on,0,0,1,,,,,,,,,0,,,89,65
97236,note_on,12,0,1,,,,,,,,,0,,,91,0
97248,note_on,0,0,1,,,,,,,,,0,,,91,66
97248,note_on,12,0,1,,,,,,,,,0,,,89,0
97260,note_on,0,0,3,,,,,,,,,0,,,61,67
97260,note_on,30,0,3,,,,,,,,,0,,,67,67
97260,note_on,0,0,3,,,,,,,,,0,,,58,67
97290,note_on,42,0,1,,,,,,,,,0,,,91,0
97290,note_on,0,0,1,,,,,,,,,0,,,94,69
97305,control_change,105,0,4,,,,,,,,,0,64,0,,
97320,note_on,30,0,1,,,,,,,,,0,,,94,0
97320,control_change,15,0,4,,,,,,,,,0,64,127,,
97320,note_on,0,0,1,,,,,,,,,0,,,97,72
97380,note_on,0,0,3,,,,,,,,,0,,,67,0
97380,note_on,60,0,1,,,,,,,,,0,,,97,0
97380,note_on,120,0,3,,,,,,,,,0,,,58,0
97380,note_on,0,0,3,,,,,,,,,0,,,61,0
97380,note_on,0,0,3,,,,,,,,,0,,,58,78
97380,note_on,0,0,3,,,,,,,,,0,,,67,78
97380,note_on,0,0,3,,,,,,,,,0,,,61,78
97410,note_on,30,0,1,,,,,,,,,0,,,72,80
97425,control_change,105,0,4,,,,,,,,,0,64,0,,
97440,control_change,15,0,4,,,,,,,,,0,64,127,,
97440,note_on,0,0,3,,,,,,,,,0,,,55,93
97440,note_on,60,0,3,,,,,,,,,0,,,58,0
97440,note_on,0,0,1,,,,,,,,,0,,,71,83
97440,note_on,0,0,3,,,,,,,,,0,,,61,0
97440,note_on,30,0,1,,,,,,,,,0,,,72,0
97440,note_on,0,0,3,,,,,,,,,0,,,67,0
97460,note_on,20,0,1,,,,,,,,,0,,,71,0
97460,note_on,0,0,1,,,,,,,,,0,,,72,85
97470,note_on,30,0,3,,,,,,,,,0,,,55,0
97480,note_on,20,0,1,,,,,,,,,0,,,72,0
97480,note_on,0,0,1,,,,,,,,,0,,,74,87
97500,note_on,20,0,1,,,,,,,,,0,,,74,0
97500,note_on,30,0,3,,,,,,,,,0,,,64,89
97500,note_on,0,0,3,,,,,,,,,0,,,60,89
97500,note_on,0,0,3,,,,,,,,,0,,,58,89
97500,note_on,0,0,1,,,,,,,,,0,,,76,89
97520,note_on,20,0,1,,,,,,,,,0,,,76,0
97520,note_on,0,0,1,,,,,,,,,0,,,77,90
97540,note_on,20,0,1,,,,,,,,,0,,,77,0
97540,note_on,0,0,1,,,,,,,,,0,,,79,92
97545,control_change,105,0,4,,,,,,,,,0,64,0,,
97560,note_on,20,0,1,,,,,,,,,0,,,79,0
97560,note_on,0,0,1,,,,,,,,,0,,,81,94
97560,control_change,15,0,4,,,,,,,,,0,64,127,,
97580,note_on,20,0,1,,,,,,,,,0,,,81,0
97580,note_on,0,0,1,,,,,,,,,0,,,82,96
97600,note_on,20,0,1,,,,,,,,,0,,,82,0
97600,note_on,0,0,1,,,,,,,,,0,,,84,98
97620,note_on,0,0,3,,,,,,,,,0,,,58,99
97620,note_on,20,0,1,,,,,,,,,0,,,84,0
97620,note_on,0,0,1,,,,,,,,,0,,,86,99
97620,note_on,0,0,3,,,,,,,,,0,,,60,99
97620,note_on,0,0,3,,,,,,,,,0,,,64,99
97620,note_on,0,0,3,,,,,,,,,0,,,64,0
97620,note_on,0,0,3,,,,,,,,,0,,,60,0
97620,note_on,120,0,3,,,,,,,,,0,,,58,0
97640,note_on,0,0,1,,,,,,,,,0,,,87,100
97640,note_on,20,0,1,,,,,,,,,0,,,86,0
97660,note_on,0,0,1,,,,,,,,,0,,,88,100
97660,note_on,20,0,1,,,,,,,,,0,,,87,0
97665,control_change,105,0,4,,,,,,,,,0,64,0,,
97680,note_on,0,0,1,,,,,,,,,0,,,89,100
97680,note_on,0,0,3,,,,,,,,,0,,,53,110
97680,control_change,15,0,4,,,,,,,,,0,64,127,,
97680,note_on,0,0,3,,,,,,,,,0,,,64,0
97680,note_on,0,0,3,,,,,,,,,0,,,60,0
97680,note_on,60,0,3,,,,,,,,,0,,,58,0
97680,note_on,20,0,1,,,,,,,,,0,,,88,0
97700,note_on,0,0,1,,,,,,,,,0,,,101,97
97700,note_on,20,0,1,,,,,,,,,0,,,89,0
97710,note_on,30,0,3,,,,,,,,,0,,,53,0
97720,note_on,20,0,1,,,,,,,,,0,,,101,0
97720,note_on,0,0,1,,,,,,,,,0,,,100,93
97740,note_on,30,0,3,,,,,,,,,0,,,65,89
97740,note_on,0,0,1,,,,,,,,,0,,,99,89
97740,note_on,0,0,3,,,,,,,,,0,,,62,89
97740,note_on,0,0,3,,,,,,,,,0,,,58,89
97740,note_on,20,0,1,,,,,,,,,0,,,100,0
97760,note_on,0,0,1,,,,,,,,,0,,,98,85
97760,note_on,20,0,1,,,,,,,,,0,,,99,0
97780,note_on,20,0,1,,,,,,,,,0,,,98,0
97780,note_on,0,0,1,,,,,,,,,0,,,96,81
97785,control_change,105,0,4,,,,,,,,,0,64,0,,
97800,control_change,15,0,4,,,,,,,,,0,64,127,,
97800,note_on,20,0,1,,,,,,,,,0,,,96,0
97800,note_on,0,0,1,,,,,,,,,0,,,94,77
97820,note_on,0,0,1,,,,,,,,,0,,,93,73
97820,note_on,20,0,1,,,,,,,,,0,,,94,0
97840,note_on,20,0,1,,,,,,,,,0,,,93,0
97840,note_on,0,0,1,,,,,,,,,0,,,91,69
97860,note_on,0,0,3,,,,,,,,,0,,,62,65
97860,note_on,0,0,3,,,,,,,,,0,,,65,65
97860,note_on,0,0,3,,,,,,,,,0,,,65,0
97860,note_on,0,0,3,,,,,,,,,0,,,62,0
97860,note_on,120,0,3,,,,,,,,,0,,,58,0
97860,note_on,0,0,3,,,,,,,,,0,,,58,65
97860,note_on,0,0,1,,,,,,,,,0,,,89,65
97860,note_on,20,0,1,,,,,,,,,0,,,91,0
97880,note_on,0,0,1,,,,,,,,,0,,,87,61
97880,note_on,20,0,1,,,,,,,,,0,,,89,0
97900,note_on,0,0,1,,,,,,,,,0,,,86,60
97900,note_on,20,0,1,,,,,,,,,0,,,87,0
97905,control_change,105,0,4,,,,,,,,,0,64,0,,
97920,control_change,15,0,4,,,,,,,,,0,64,127,,
97920,note_on,0,0,3,,,,,,,,,0,,,62,0
97920,note_on,60,0,3,,,,,,,,,0,,,58,0
97920,note_on,0,0,3,,,,,,,,,0,,,65,0
97920,note_on,0,0,3,,,,,,,,,0,,,41,70
97920,note_on,20,0,1,,,,,,,,,0,,,86,0
97920,note_on,0,0,1,,,,,,,,,0,,,84,60
97940,note_on,20,0,1,,,,,,,,,0,,,84,0
97940,note_on,0,0,1,,,,,,,,,0,,,93,60
97950,note_on,30,0,3,,,,,,,,,0,,,41,0
97960,note_on,20,0,1,,,,,,,,,0,,,93,0
97960,note_on,0,0,1,,,,,,,,,0,,,91,60
97980,note_on,20,0,1,,,,,,,,,0,,,91,0
97980,note_on,0,0,1,,,,,,,,,0,,,87,60
97980,note_on,30,0,3,,,,,,,,,0,,,63,60
97980,note_on,0,0,3,,,,,,,,,0,,,57,60
97980,note_on,0,0,3,,,,,,,,,0,,,53,60
98000,note_on,0,0,1,,,,,,,,,0,,,84,60
98000,note_on,20,0,1,,,,,,,,,0,,,87,0
98020,note_on,20,0,1,,,,,,,,,0,,,84,0
98020,note_on,0,0,1,,,,,,,,,0,,,82,60
98025,control_change,105,0,4,,,,,,,,,0,64,0,,
98040,note_on,0,0,1,,,,,,,,,0,,,81,60
98040,control_change,15,0,4,,,,,,,,,0,64,127,,
98040,note_on,20,0,1,,,,,,,,,0,,,82,0
98060,note_on,0,0,1,,,,,,,,,0,,,79,60
98060,note_on,20,0,1,,,,,,,,,0,,,81,0
98080,note_on,20,0,1,,,,,,,,,0,,,79,0
98080,note_on,0,0,1,,,,,,,,,0,,,77,60
98100,note_on,0,0,1,,,,,,,,,0,,,75,60
98100,note_on,20,0,1,,,,,,,,,0,,,77,0
98100,note_on,120,0,3,,,,,,,,,0,,,53,0
98100,note_on,0,0,3,,,,,,,,,0,,,57,0
98100,note_on,0,0,3,,,,,,,,,0,,,63,0
98100,note_on,0,0,3,,,,,,,,,0,,,63,60
98100,note_on,0,0,3,,,,,,,,,0,,,57,60
98100,note_on,0,0,3,,,,,,,,,0,,,53,60
98120,note_on,0,0,1,,,,,,,,,0,,,74,60
98120,note_on,20,0,1,,,,,,,,,0,,,75,0
98140,note_on,0,0,1,,,,,,,,,0,,,72,60
98140,note_on,20,0,1,,,,,,,,,0,,,74,0
98145,control_change,105,0,4,,,,,,,,,0,64,0,,
98160,control_change,15,0,4,,,,,,,,,0,64,127,,
98160,note_on,0,0,3,,,,,,,,,0,,,63,0
98160,note_on,0,0,3,,,,,,,,,0,,,57,0
98160,note_on,60,0,3,,,,,,,,,0,,,53,0
98160,note_on,20,0,1,,,,,,,,,0,,,72,0
98160,note_on,0,0,1,,,,,,,,,0,,,70,60
98160,note_on,0,0,3,,,,,,,,,0,,,41,70
98180,note_on,20,0,1,,,,,,,,,0,,,70,0
98180,note_on,0,0,1,,,,,,,,,0,,,74,60
98190,note_on,30,0,3,,,,,,,,,0,,,41,0
98200,note_on,20,0,1,,,,,,,,,0,,,74,0
98200,note_on,0,0,1,,,,,,,,,0,,,77,60
98220,note_on,0,0,3,,,,,,,,,0,,,53,60
98220,note_on,0,0,3,,,,,,,,,0,,,58,60
98220,note_on,30,0,3,,,,,,,,,0,,,62,60
98220,note_on,20,0,1,,,,,,,,,0,,,77,0
98220,note_on,0,0,1,,,,,,,,,0,,,82,60
98240,note_on,0,0,1,,,,,,,,,0,,,86,60
98240,note_on,20,0,1,,,,,,,,,0,,,82,0
98260,note_on,0,0,1,,,,,,,,,0,,,84,60
98260,note_on,20,0,1,,,,,,,,,0,,,86,0
98265,control_change,105,0,4,,,,,,,,,0,64,0,,
98280,control_change,15,0,4,,,,,,,,,0,64,127,,
98280,note_on,0,0,1,,,,,,,,,0,,,82,60
98280,note_on,20,0,1,,,,,,,,,0,,,84,0
98300,note_on,20,0,1,,,,,,,,,0,,,82,0
98300,note_on,0,0,1,,,,,,,,,0,,,81,60
98320,note_on,20,0,1,,,,,,,,,0,,,81,0
98320,note_on,0,0,1,,,,,,,,,0,,,79,60
98340,note_on,120,0,3,,,,,,,,,0,,,53,0
98340,note_on,0,0,3,,,,,,,,,0,,,58,0
98340,note_on,0,0,3,,,,,,,,,0,,,62,0
98340,note_on,0,0,3,,,,,,,,,0,,,62,60
98340,note_on,20,0,1,,,,,,,,,0,,,79,0
98340,note_on,0,0,3,,,,,,,,,0,,,53,60
98340,note_on,0,0,3,,,,,,,,,0,,,58,60
98340,note_on,0,0,1,,,,,,,,,0,,,77,60
98360,note_on,20,0,1,,,,,,,,,0,,,77,0
98360,note_on,0,0,1,,,,,,,,,0,,,75,60
98380,note_on,20,0,1,,,,,,,,,0,,,75,0
98380,note_on,0,0,1,,,,,,,,,0,,,74,60
98385,control_change,105,0,4,,,,,,,,,0,64,0,,
98400,note_on,20,0,1,,,,,,,,,0,,,74,0
98400,note_on,0,0,1,,,,,,,,,0,,,72,60
98400,set_tempo,15360,1,0,,,,,,653666,,,,,,,
98400,control_change,15,0,4,,,,,,,,,0,64,127,,
98400,note_on,0,0,3,,,,,,,,,0,,,58,0
98400,note_on,0,0,3,,,,,,,,,0,,,62,0
98400,note_on,0,0,3,,,,,,,,,0,,,41,70
98400,note_on,60,0,3,,,,,,,,,0,,,53,0
98414,set_tempo,14,1,0,,,,,,655809,,,,,,,
98420,note_on,20,0,1,,,,,,,,,0,,,72,0
98420,note_on,0,0,1,,,,,,,,,0,,,81,60
98421,set_tempo,7,1,0,,,,,,657967,,,,,,,
98428,set_tempo,7,1,0,,,,,,660139,,,,,,,
98430,note_on,30,0,3,,,,,,,,,0,,,41,0
98435,set_tempo,7,1,0,,,,,,662325,,,,,,,
98440,note_on,0,0,1,,,,,,,,,0,,,79,60
98440,note_on,20,0,1,,,,,,,,,0,,,81,0
98442,set_tempo,7,1,0,,,,,,664525,,,,,,,
98449,set_tempo,7,1,0,,,,,,666741,,,,,,,
98456,set_tempo,7,1,0,,,,,,668971,,,,,,,
98460,note_on,0,0,3,,,,,,,,,0,,,53,60
98460,note_on,0,0,1,,,,,,,,,0,,,75,60
98460,note_on,20,0,1,,,,,,,,,0,,,79,0
98460,note_on,30,0,3,,,,,,,,,0,,,57,60
98460,note_on,0,0,3,,,,,,,,,0,,,51,60
98463,set_tempo,7,1,0,,,,,,671216,,,,,,,
98470,set_tempo,7,1,0,,,,,,673476,,,,,,,
98477,set_tempo,7,1,0,,,,,,675752,,,,,,,
98480,note_on,0,0,1,,,,,,,,,0,,,72,60
98480,note_on,20,0,1,,,,,,,,,0,,,75,0
98484,set_tempo,7,1,0,,,,,,678043,,,,,,,
98491,set_tempo,7,1,0,,,,,,680349,,,,,,,
98498,set_tempo,7,1,0,,,,,,682672,,,,,,,
98500,note_on,0,0,1,,,,,,,,,0,,,70,60
98500,note_on,20,0,1,,,,,,,,,0,,,72,0
98505,control_change,105,0,4,,,,,,,,,0,64,0,,
98505,set_tempo,7,1,0,,,,,,685010,,,,,,,
98512,set_tempo,7,1,0,,,,,,687364,,,,,,,
98520,control_change,15,0,4,,,,,,,,,0,64,127,,
98520,note_on,0,0,1,,,,,,,,,0,,,69,60
98520,set_tempo,8,1,0,,,,,,689734,,,,,,,
98520,note_on,20,0,1,,,,,,,,,0,,,70,0
98527,set_tempo,7,1,0,,,,,,692121,,,,,,,
98534,set_tempo,7,1,0,,,,,,694525,,,,,,,
98540,note_on,0,0,1,,,,,,,,,0,,,67,60
98540,note_on,20,0,1,,,,,,,,,0,,,69,0
98548,set_tempo,14,1,0,,,,,,696945,,,,,,,
98555,set_tempo,7,1,0,,,,,,699382,,,,,,,
98560,note_on,0,0,1,,,,,,,,,0,,,65,60
98560,note_on,20,0,1,,,,,,,,,0,,,67,0
98562,set_tempo,7,1,0,,,,,,701836,,,,,,,
98569,set_tempo,7,1,0,,,,,,704308,,,,,,,
98576,set_tempo,7,1,0,,,,,,706797,,,,,,,
98580,note_on,0,0,1,,,,,,,,,0,,,63,60
98580,note_on,20,0,1,,,,,,,,,0,,,65,0
98580,note_on,0,0,3,,,,,,,,,0,,,51,60
98580,note_on,0,0,3,,,,,,,,,0,,,53,60
98580,note_on,0,0,3,,,,,,,,,0,,,57,60
98580,note_on,0,0,3,,,,,,,,,0,,,57,0
98580,note_on,0,0,3,,,,,,,,,0,,,53,0
98580,note_on,120,0,3,,,,,,,,,0,,,51,0
98583,set_tempo,7,1,0,,,,,,709304,,,,,,,
98590,set_tempo,7,1,0,,,,,,711828,,,,,,,
98597,set_tempo,7,1,0,,,,,,714371,,,,,,,
98600,note_on,20,0,1,,,,,,,,,0,,,63,0
98600,note_on,0,0,1,,,,,,,,,0,,,62,60
98604,set_tempo,7,1,0,,,,,,716932,,,,,,,
98611,set_tempo,7,1,0,,,,,,719511,,,,,,,
98618,set_tempo,7,1,0,,,,,,722109,,,,,,,
98620,note_on,0,0,1,,,,,,,,,0,,,60,60
98620,note_on,20,0,1,,,,,,,,,0,,,62,0
98625,set_tempo,7,1,0,,,,,,724725,,,,,,,
98625,control_change,105,0,4,,,,,,,,,0,64,0,,
98632,set_tempo,7,1,0,,,,,,727361,,,,,,,
98640,control_change,15,0,4,,,,,,,,,0,64,127,,
98640,set_tempo,8,1,0,,,,,,730016,,,,,,,
98640,note_on,0,0,3,,,,,,,,,0,,,41,70
98640,note_on,0,0,3,,,,,,,,,0,,,57,0
98640,note_on,60,0,3,,,,,,,,,0,,,51,0
98640,note_on,20,0,1,,,,,,,,,0,,,60,0
98640,note_on,0,0,1,,,,,,,,,0,,,58,60
98640,note_on,0,0,3,,,,,,,,,0,,,53,0
98647,set_tempo,7,1,0,,,,,,732690,,,,,,,
98654,set_tempo,7,1,0,,,,,,735384,,,,,,,
98660,note_on,20,0,1,,,,,,,,,0,,,58,0
98660,note_on,0,0,1,,,,,,,,,0,,,62,60
98661,set_tempo,7,1,0,,,,,,738098,,,,,,,
98668,set_tempo,7,1,0,,,,,,740832,,,,,,,
98670,note_on,30,0,3,,,,,,,,,0,,,41,0
98675,set_tempo,7,1,0,,,,,,743587,,,,,,,
98680,note_on,0,0,1,,,,,,,,,0,,,65,60
98680,note_on,20,0,1,,,,,,,,,0,,,62,0
98689,set_tempo,14,1,0,,,,,,746361,,,,,,,
98696,set_tempo,7,1,0,,,,,,749157,,,,,,,
98700,note_on,30,0,3,,,,,,,,,0,,,58,60
98700,note_on,0,0,3,,,,,,,,,0,,,53,60
98700,note_on,0,0,3,,,,,,,,,0,,,50,60
98700,note_on,20,0,1,,,,,,,,,0,,,65,0
98700,note_on,0,0,1,,,,,,,,,0,,,70,60
98703,set_tempo,7,1,0,,,,,,751974,,,,,,,
98710,set_tempo,7,1,0,,,,,,754812,,,,,,,
98717,set_tempo,7,1,0,,,,,,757671,,,,,,,
98720,note_on,20,0,1,,,,,,,,,0,,,70,0
98720,note_on,0,0,1,,,,,,,,,0,,,74,60
98724,set_tempo,7,1,0,,,,,,760553,,,,,,,
98731,set_tempo,7,1,0,,,,,,763456,,,,,,,
98738,set_tempo,7,1,0,,,,,,766381,,,,,,,
98740,note_on,20,0,1,,,,,,,,,0,,,74,0
98740,note_on,0,0,1,,,,,,,,,0,,,72,60
98745,set_tempo,7,1,0,,,,,,769329,,,,,,,
98745,control_change,105,0,4,,,,,,,,,0,64,0,,
98752,set_tempo,7,1,0,,,,,,772300,,,,,,,
98760,set_tempo,8,1,0,,,,,,775294,,,,,,,
98760,note_on,20,0,1,,,,,,,,,0,,,72,0
98760,control_change,15,0,4,,,,,,,,,0,64,127,,
98760,note_on,0,0,1,,,,,,,,,0,,,70,60
98767,set_tempo,7,1,0,,,,,,778311,,,,,,,
98774,set_tempo,7,1,0,,,,,,781352,,,,,,,
98780,note_on,20,0,1,,,,,,,,,0,,,70,0
98780,note_on,0,0,1,,,,,,,,,0,,,69,60
98781,set_tempo,7,1,0,,,,,,784416,,,,,,,
98788,set_tempo,7,1,0,,,,,,787505,,,,,,,
98795,set_tempo,7,1,0,,,,,,790618,,,,,,,
98800,note_on,20,0,1,,,,,,,,,0,,,69,0
98800,note_on,0,0,1,,,,,,,,,0,,,67,60
98802,set_tempo,7,1,0,,,,,,793756,,,,,,,
98809,set_tempo,7,1,0,,,,,,796919,,,,,,,
98816,set_tempo,7,1,0,,,,,,800107,,,,,,,
98820,note_on,0,0,3,,,,,,,,,0,,,58,60
98820,note_on,0,0,3,,,,,,,,,0,,,58,0
98820,note_on,0,0,3,,,,,,,,,0,,,53,0
98820,note_on,120,0,3,,,,,,,,,0,,,50,0
98820,note_on,0,0,3,,,,,,,,,0,,,50,60
98820,note_on,20,0,1,,,,,,,,,0,,,67,0
98820,note_on,0,0,1,,,,,,,,,0,,,65,60
98820,note_on,0,0,3,,,,,,,,,0,,,53,60
98830,set_tempo,14,1,0,,,,,,803320,,,,,,,
98837,set_tempo,7,1,0,,,,,,806560,,,,,,,
98840,note_on,0,0,1,,,,,,,,,0,,,63,60
98840,note_on,20,0,1,,,,,,,,,0,,,65,0
98844,set_tempo,7,1,0,,,,,,809826,,,,,,,
98851,set_tempo,7,1,0,,,,,,813118,,,,,,,
98858,set_tempo,7,1,0,,,,,,816438,,,,,,,
98860,note_on,20,0,1,,,,,,,,,0,,,63,0
98860,note_on,0,0,1,,,,,,,,,0,,,62,60
98865,control_change,105,0,4,,,,,,,,,0,64,0,,
98865,set_tempo,7,1,0,,,,,,819784,,,,,,,
98872,set_tempo,7,1,0,,,,,,823158,,,,,,,
98880,control_change,15,0,4,,,,,,,,,0,64,127,,
98880,note_on,60,0,3,,,,,,,,,0,,,50,0
98880,note_on,0,0,3,,,,,,,,,0,,,53,0
98880,note_on,0,0,1,,,,,,,,,0,,,60,60
98880,note_on,0,0,3,,,,,,,,,0,,,29,70
98880,note_on,0,0,3,,,,,,,,,0,,,58,0
98880,note_on,20,0,1,,,,,,,,,0,,,62,0
98880,set_tempo,8,1,0,,,,,,826560,,,,,,,
98887,set_tempo,7,1,0,,,,,,829990,,,,,,,
98894,set_tempo,7,1,0,,,,,,833449,,,,,,,
98900,note_on,20,0,1,,,,,,,,,0,,,60,0
98900,note_on,0,0,1,,,,,,,,,0,,,69,60
98901,set_tempo,7,1,0,,,,,,836937,,,,,,,
98908,set_tempo,7,1,0,,,,,,840454,,,,,,,
98910,note_on,30,0,3,,,,,,,,,0,,,29,0
98915,set_tempo,7,1,0,,,,,,844001,,,,,,,
98920,note_on,0,0,1,,,,,,,,,0,,,67,60
98920,note_on,20,0,1,,,,,,,,,0,,,69,0
98922,set_tempo,7,1,0,,,,,,847577,,,,,,,
98929,set_tempo,7,1,0,,,,,,851185,,,,,,,
98936,set_tempo,7,1,0,,,,,,854823,,,,,,,
98940,note_on,0,0,1,,,,,,,,,0,,,63,60
98940,note_on,0,0,3,,,,,,,,,0,,,41,60
98940,note_on,0,0,3,,,,,,,,,0,,,48,60
98940,note_on,30,0,3,,,,,,,,,0,,,51,60
98940,note_on,20,0,1,,,,,,,,,0,,,67,0
98943,set_tempo,7,1,0,,,,,,858492,,,,,,,
98950,set_tempo,7,1,0,,,,,,862193,,,,,,,
98960,note_on,20,0,1,,,,,,,,,0,,,63,0
98960,note_on,0,0,1,,,,,,,,,0,,,60,60
98964,set_tempo,14,1,0,,,,,,865926,,,,,,,
98971,set_tempo,7,1,0,,,,,,869691,,,,,,,
98978,set_tempo,7,1,0,,,,,,873490,,,,,,,
98980,note_on,0,0,1,,,,,,,,,0,,,58,60
98980,note_on,20,0,1,,,,,,,,,0,,,60,0
98985,control_change,105,0,4,,,,,,,,,0,64,0,,
98985,set_tempo,7,1,0,,,,,,877321,,,,,,,
98992,set_tempo,7,1,0,,,,,,881187,,,,,,,
99000,note_on,20,0,1,,,,,,,,,0,,,58,0
99000,note_on,50100,0,2,,,,,,,,,0,,,57,60
99000,set_tempo,8,1,0,,,,,,885086,,,,,,,
99007,set_tempo,7,1,0,,,,,,889021,,,,,,,
99010,note_on,10,0,2,,,,,,,,,0,,,57,0
99014,set_tempo,7,1,0,,,,,,892990,,,,,,,
99020,note_on,10,0,2,,,,,,,,,0,,,55,60
99021,set_tempo,7,1,0,,,,,,896995,,,,,,,
99028,set_tempo,7,1,0,,,,,,901036,,,,,,,
99030,note_on,10,0,2,,,,,,,,,0,,,55,0
99035,set_tempo,7,1,0,,,,,,905114,,,,,,,
99040,note_on,10,0,2,,,,,,,,,0,,,53,60
99042,set_tempo,7,1,0,,,,,,909229,,,,,,,
99049,set_tempo,7,1,0,,,,,,913381,,,,,,,
99050,note_on,10,0,2,,,,,,,,,0,,,53,0
99056,set_tempo,7,1,0,,,,,,917571,,,,,,,
99060,note_on,120,0,3,,,,,,,,,0,,,41,0
99060,note_on,10,0,2,,,,,,,,,0,,,51,60
99060,note_on,0,0,3,,,,,,,,,0,,,51,0
99060,note_on,0,0,3,,,,,,,,,0,,,48,0
99063,set_tempo,7,1,0,,,,,,921801,,,,,,,
99070,set_tempo,7,1,0,,,,,,926069,,,,,,,
99070,note_on,10,0,2,,,,,,,,,0,,,51,0
99077,set_tempo,7,1,0,,,,,,930377,,,,,,,
99080,note_on,10,0,2,,,,,,,,,0,,,50,60
99084,set_tempo,7,1,0,,,,,,934725,,,,,,,
99090,note_on,10,0,2,,,,,,,,,0,,,50,0
99091,set_tempo,7,1,0,,,,,,939114,,,,,,,
99100,note_on,10,0,2,,,,,,,,,0,,,48,60
99105,set_tempo,14,1,0,,,,,,943545,,,,,,,
99110,note_on,10,0,2,,,,,,,,,0,,,48,0
99112,set_tempo,7,1,0,,,,,,948017,,,,,,,
99120,set_tempo,8,1,0,,,,,,952532,,,,,,,
99127,set_tempo,7,1,0,,,,,,957090,,,,,,,
99134,set_tempo,7,1,0,,,,,,961693,,,,,,,
99141,set_tempo,7,1,0,,,,,,966339,,,,,,,
99148,set_tempo,7,1,0,,,,,,971031,,,,,,,
99155,set_tempo,7,1,0,,,,,,975768,,,,,,,
99162,set_tempo,7,1,0,,,,,,980552,,,,,,,
99169,set_tempo,7,1,0,,,,,,985383,,,,,,,
99176,set_tempo,7,1,0,,,,,,990262,,,,,,,
99183,set_tempo,7,1,0,,,,,,995190,,,,,,,
99190,set_tempo,7,1,0,,,,,,1000167,,,,,,,
99197,set_tempo,7,1,0,,,,,,1005193,,,,,,,
99204,set_tempo,7,1,0,,,,,,1010271,,,,,,,
99211,set_tempo,7,1,0,,,,,,1015400,,,,,,,
99218,set_tempo,7,1,0,,,,,,1020582,,,,,,,
99225,set_tempo,7,1,0,,,,,,1025816,,,,,,,
99232,set_tempo,7,1,0,,,,,,1031105,,,,,,,
99240,set_tempo,8,1,0,,,,,,2500000,,,,,,,
99300,note_on,190,0,2,,,,,,,,,0,,,53,40
99300,note_on,240,0,3,,,,,,,,,0,,,41,40
99360,set_tempo,120,1,0,,,,,,1071429,,,,,,,
99360,control_change,375,0,4,,,,,,,,,0,64,127,,
99360,note_on,0,0,3,,,,,,,,,0,,,46,40
99360,note_on,0,0,3,,,,,,,,,0,,,41,40
99360,note_on,0,0,3,,,,,,,,,0,,,34,40
99360,note_on,60,0,3,,,,,,,,,0,,,41,0
99360,marker,0,1,0,,,,,,,,,,,,,
99360,end_of_track,0,1,0,,,,,,,,,,,,,
99360,note_on,0,0,2,,,,,,,,,0,,,62,50
99360,note_on,0,0,2,,,,,,,,,0,,,53,40
99360,note_on,0,0,2,,,,,,,,,0,,,50,40
99360,note_on,60,0,2,,,,,,,,,0,,,53,0
99465,control_change,105,0,4,,,,,,,,,0,64,0,,
99480,note_on,0,0,2,,,,,,,,,0,,,50,0
99480,note_on,120,0,2,,,,,,,,,0,,,62,0
99480,note_on,120,0,3,,,,,,,,,0,,,46,0
99480,note_on,0,0,3,,,,,,,,,0,,,41,0
99480,note_on,0,0,3,,,,,,,,,0,,,34,0
99480,note_on,0,0,2,,,,,,,,,0,,,53,40
99480,control_change,15,0,4,,,,,,,,,0,64,127,,
99480,note_on,0,0,3,,,,,,,,,0,,,34,40
99480,note_on,0,0,3,,,,,,,,,0,,,41,40
99480,note_on,0,0,3,,,,,,,,,0,,,46,40
99480,note_on,0,0,2,,,,,,,,,0,,,50,40
99480,note_on,0,0,2,,,,,,,,,0,,,62,50
99480,note_on,0,0,2,,,,,,,,,0,,,53,0
99540,note_on,60,0,3,,,,,,,,,0,,,46,0
99540,note_on,0,0,3,,,,,,,,,0,,,41,0
99540,note_on,0,0,3,,,,,,,,,0,,,34,0
99540,note_on,0,0,3,,,,,,,,,0,,,34,40
99540,note_on,0,0,2,,,,,,,,,0,,,62,50
99540,note_on,0,0,3,,,,,,,,,0,,,46,40
99540,note_on,60,0,2,,,,,,,,,0,,,62,0
99540,note_on,0,0,2,,,,,,,,,0,,,53,0
99540,note_on,0,0,2,,,,,,,,,0,,,50,0
99540,note_on,0,0,2,,,,,,,,,0,,,50,40
99540,note_on,0,0,2,,,,,,,,,0,,,53,40
99540,note_on,0,0,3,,,,,,,,,0,,,41,40
99585,control_change,105,0,4,,,,,,,,,0,64,0,,
99600,control_change,15,0,4,,,,,,,,,0,64,127,,
99600,note_on,0,0,2,,,,,,,,,0,,,53,0
99600,note_on,60,0,2,,,,,,,,,0,,,62,0
99600,note_on,0,0,2,,,,,,,,,0,,,53,40
99600,note_on,0,0,2,,,,,,,,,0,,,50,40
99600,note_on,0,0,2,,,,,,,,,0,,,58,50
99600,note_on,60,0,3,,,,,,,,,0,,,46,0
99600,note_on,0,0,3,,,,,,,,,0,,,41,0
99600,note_on,0,0,3,,,,,,,,,0,,,34,0
99600,note_on,0,0,3,,,,,,,,,0,,,38,40
99600,note_on,0,0,3,,,,,,,,,0,,,41,40
99600,note_on,0,0,2,,,,,,,,,0,,,50,0
99705,control_change,105,0,4,,,,,,,,,0,64,0,,
99720,note_on,0,0,3,,,,,,,,,0,,,38,0
99720,note_on,0,0,3,,,,,,,,,0,,,38,40
99720,control_change,15,0,4,,,,,,,,,0,64,127,,
99720,note_on,0,0,3,,,,,,,,,0,,,41,40
99720,note_on,120,0,3,,,,,,,,,0,,,41,0
99720,note_on,0,0,2,,,,,,,,,0,,,50,0
99720,note_on,0,0,2,,,,,,,,,0,,,53,0
99720,note_on,0,0,2,,,,,,,,,0,,,50,40
99720,note_on,0,0,2,,,,,,,,,0,,,53,40
99720,note_on,0,0,2,,,,,,,,,0,,,58,50
99720,note_on,120,0,2,,,,,,,,,0,,,58,0
99825,control_change,105,0,4,,,,,,,,,0,64,0,,
99840,note_on,0,0,3,,,,,,,,,0,,,48,40
99840,note_on,0,0,2,,,,,,,,,0,,,57,50
99840,control_change,15,0,4,,,,,,,,,0,64,127,,
99840,note_on,0,0,2,,,,,,,,,0,,,53,40
99840,note_on,0,0,2,,,,,,,,,0,,,51,40
99840,note_on,0,0,3,,,,,,,,,0,,,36,40
99840,note_on,120,0,2,,,,,,,,,0,,,58,0
99840,note_on,0,0,3,,,,,,,,,0,,,41,0
99840,note_on,120,0,3,,,,,,,,,0,,,38,0
99840,note_on,0,0,2,,,,,,,,,0,,,53,0
99840,note_on,0,0,2,,,,,,,,,0,,,50,0
99840,note_on,0,0,3,,,,,,,,,0,,,41,40
99945,control_change,105,0,4,,,,,,,,,0,64,0,,
99960,note_on,0,0,2,,,,,,,,,0,,,51,40
99960,note_on,0,0,3,,,,,,,,,0,,,48,40
99960,note_on,0,0,3,,,,,,,,,0,,,36,0
99960,note_on,0,0,3,,,,,,,,,0,,,41,0
99960,note_on,120,0,3,,,,,,,,,0,,,48,0
99960,note_on,0,0,2,,,,,,,,,0,,,53,0
99960,note_on,0,0,2,,,,,,,,,0,,,53,40
99960,note_on,0,0,2,,,,,,,,,0,,,57,50
99960,note_on,0,0,3,,,,,,,,,0,,,36,40
99960,note_on,0,0,3,,,,,,,,,0,,,41,40
99960,control_change,15,0,4,,,,,,,,,0,64,127,,
99960,note_on,0,0,2,,,,,,,,,0,,,51,0
99960,note_on,120,0,2,,,,,,,,,0,,,57,0
100020,note_on,0,0,3,,,,,,,,,0,,,41,0
100020,note_on,0,0,3,,,,,,,,,0,,,41,40
100020,note_on,0,0,3,,,,,,,,,0,,,48,40
100020,note_on,0,0,3,,,,,,,,,0,,,36,40
100020,note_on,60,0,3,,,,,,,,,0,,,36,0
100020,note_on,0,0,3,,,,,,,,,0,,,48,0
100020,note_on,0,0,2,,,,,,,,,0,,,53,40
100020,note_on,0,0,2,,,,,,,,,0,,,53,0
100020,note_on,0,0,2,,,,,,,,,0,,,51,0
100020,note_on,0,0,2,,,,,,,,,0,,,51,40
100020,note_on,0,0,2,,,,,,,,,0,,,57,50
100020,note_on,60,0,2,,,,,,,,,0,,,57,0
100065,control_change,105,0,4,,,,,,,,,0,64,0,,
100080,control_change,15,0,4,,,,,,,,,0,64,127,,
100080,note_on,60,0,2,,,,,,,,,0,,,57,0
100080,note_on,0,0,2,,,,,,,,,0,,,51,0
100080,note_on,0,0,2,,,,,,,,,0,,,53,0
100080,note_on,0,0,3,,,,,,,,,0,,,41,0
100080,note_on,0,0,2,,,,,,,,,0,,,60,40
100080,note_on,0,0,2,,,,,,,,,0,,,63,40
100080,note_on,0,0,2,,,,,,,,,0,,,54,50
100080,note_on,0,0,3,,,,,,,,,0,,,45,40
100080,note_on,60,0,3,,,,,,,,,0,,,36,0
100080,note_on,0,0,3,,,,,,,,,0,,,48,0
100080,note_on,0,0,3,,,,,,,,,0,,,42,40
100080,note_on,0,0,3,,,,,,,,,0,,,33,40
100185,control_change,105,0,4,,,,,,,,,0,64,0,,
100200,note_on,120,0,2,,,,,,,,,0,,,54,0
100200,control_change,15,0,4,,,,,,,,,0,64,127,,
100200,note_on,0,0,2,,,,,,,,,0,,,53,50
100200,note_on,120,0,3,,,,,,,,,0,,,42,0
100200,note_on,0,0,3,,,,,,,,,0,,,41,40
100305,control_change,105,0,4,,,,,,,,,0,64,0,,
100320,note_on,0,0,2,,,,,,,,,0,,,58,40
100320,note_on,120,0,2,,,,,,,,,0,,,53,0
100320,note_on,0,0,2,,,,,,,,,0,,,53,40
100320,note_on,0,0,2,,,,,,,,,0,,,50,40
100320,note_on,0,0,2,,,,,,,,,0,,,62,50
100320,note_on,0,0,3,,,,,,,,,0,,,41,40
100320,note_on,0,0,3,,,,,,,,,0,,,34,40
100320,note_on,0,0,3,,,,,,,,,0,,,46,40
100320,note_on,0,0,2,,,,,,,,,0,,,63,0
100320,control_change,15,0,4,,,,,,,,,0,64,127,,
100320,note_on,0,0,3,,,,,,,,,0,,,45,0
100320,note_on,120,0,3,,,,,,,,,0,,,41,0
100320,note_on,0,0,3,,,,,,,,,0,,,33,0
100320,note_on,0,0,2,,,,,,,,,0,,,60,0
100425,control_change,105,0,4,,,,,,,,,0,64,0,,
100440,control_change,15,0,4,,,,,,,,,0,64,127,,
100440,note_on,0,0,3,,,,,,,,,0,,,31,40
100440,note_on,120,0,2,,,,,,,,,0,,,62,0
100440,note_on,0,0,2,,,,,,,,,0,,,58,0
100440,note_on,0,0,2,,,,,,,,,0,,,53,0
100440,note_on,0,0,2,,,,,,,,,0,,,59,40
100440,note_on,0,0,2,,,,,,,,,0,,,55,40
100440,note_on,0,0,2,,,,,,,,,0,,,53,40
100440,note_on,0,0,2,,,,,,,,,0,,,62,50
100440,note_on,120,0,3,,,,,,,,,0,,,46,0
100440,note_on,0,0,3,,,,,,,,,0,,,41,0
100440,note_on,0,0,3,,,,,,,,,0,,,34,0
100440,note_on,0,0,3,,,,,,,,,0,,,43,40
100440,note_on,0,0,2,,,,,,,,,0,,,50,0
100500,note_on,0,0,2,,,,,,,,,0,,,62,50
100500,note_on,0,0,2,,,,,,,,,0,,,55,0
100500,note_on,0,0,2,,,,,,,,,0,,,53,0
100500,note_on,0,0,2,,,,,,,,,0,,,53,40
100500,note_on,0,0,2,,,,,,,,,0,,,55,40
100500,note_on,0,0,2,,,,,,,,,0,,,59,40
100500,note_on,0,0,2,,,,,,,,,0,,,59,0
100500,note_on,60,0,3,,,,,,,,,0,,,43,0
100500,note_on,60,0,2,,,,,,,,,0,,,62,0
100500,note_on,0,0,3,,,,,,,,,0,,,43,40
100500,note_on,0,0,3,,,,,,,,,0,,,31,40
100500,note_on,0,0,3,,,,,,,,,0,,,31,0
100545,control_change,105,0,4,,,,,,,,,0,64,0,,
100560,note_on,0,0,2,,,,,,,,,0,,,62,50
100560,note_on,0,0,2,,,,,,,,,0,,,55,0
100560,note_on,0,0,2,,,,,,,,,0,,,53,0
100560,note_on,60,0,2,,,,,,,,,0,,,62,0
100560,note_on,0,0,2,,,,,,,,,0,,,51,40
100560,note_on,0,0,2,,,,,,,,,0,,,59,0
100560,note_on,0,0,2,,,,,,,,,0,,,55,40
100560,note_on,0,0,3,,,,,,,,,0,,,43,40
100560,control_change,15,0,4,,,,,,,,,0,64,127,,
100560,note_on,60,0,3,,,,,,,,,0,,,43,0
100560,note_on,0,0,3,,,,,,,,,0,,,31,0
100560,note_on,0,0,3,,,,,,,,,0,,,36,40
100560,note_on,0,0,3,,,,,,,,,0,,,48,40
100665,control_change,105,0,4,,,,,,,,,0,64,0,,
100680,note_on,120,0,2,,,,,,,,,0,,,62,0
100680,control_change,15,0,4,,,,,,,,,0,64,127,,
100680,note_on,0,0,2,,,,,,,,,0,,,55,50
100785,control_change,105,0,4,,,,,,,,,0,64,0,,
100800,note_on,0,0,2,,,,,,,,,0,,,51,0
100800,note_on,0,0,2,,,,,,,,,0,,,55,0
100800,note_on,0,0,2,,,,,,,,,0,,,51,40
100800,note_on,0,0,2,,,,,,,,,0,,,57,40
100800,note_on,0,0,2,,,,,,,,,0,,,60,50
100800,note_on,120,0,2,,,,,,,,,0,,,55,0
100800,control_change,15,0,4,,,,,,,,,0,64,127,,
100800,note_on,0,0,3,,,,,,,,,0,,,43,0
100800,note_on,0,0,3,,,,,,,,,0,,,36,0
100800,note_on,0,0,3,,,,,,,,,0,,,29,40
100800,note_on,0,0,3,,,,,,,,,0,,,41,40
100800,note_on,240,0,3,,,,,,,,,0,,,48,0
100860,note_on,0,0,2,,,,,,,,,0,,,59,50
100860,note_on,60,0,2,,,,,,,,,0,,,60,0
100890,note_on,30,0,2,,,,,,,,,0,,,59,0
100890,note_on,0,0,2,,,,,,,,,0,,,60,50
100905,control_change,105,0,4,,,,,,,,,0,64,0,,
100920,note_on,30,0,2,,,,,,,,,0,,,60,0
100920,note_on,0,0,2,,,,,,,,,0,,,59,50
100920,control_change,15,0,4,,,,,,,,,0,64,127,,
100950,note_on,30,0,2,,,,,,,,,0,,,59,0
100950,note_on,0,0,2,,,,,,,,,0,,,60,50
100980,note_on,30,0,2,,,,,,,,,0,,,60,0
100980,note_on,0,0,2,,,,,,,,,0,,,62,50
101025,note_on,45,0,2,,,,,,,,,0,,,62,0
101025,note_on,0,0,2,,,,,,,,,0,,,60,50
101025,control_change,105,0,4,,,,,,,,,0,64,0,,
101040,note_on,240,0,3,,,,,,,,,0,,,41,0
101040,control_change,15,0,4,,,,,,,,,0,64,127,,
101040,note_on,0,0,3,,,,,,,,,0,,,29,0
101040,note_on,0,0,3,,,,,,,,,0,,,46,40
101040,note_on,0,0,3,,,,,,,,,0,,,41,40
101040,note_on,0,0,3,,,,,,,,,0,,,34,40
101040,note_on,0,0,2,,,,,,,,,0,,,57,0
101040,note_on,15,0,2,,,,,,,,,0,,,60,0
101040,note_on,0,0,2,,,,,,,,,0,,,51,0
101040,note_on,0,0,2,,,,,,,,,0,,,50,40
101040,note_on,0,0,2,,,,,,,,,0,,,58,50
101145,control_change,105,0,4,,,,,,,,,0,64,0,,
101160,control_change,15,0,4,,,,,,,,,0,64,127,,
101265,control_change,105,0,4,,,,,,,,,0,64,0,,
101280,note_on,240,0,2,,,,,,,,,0,,,58,0
101280,note_on,0,0,3,,,,,,,,,0,,,58,40
101280,note_on,0,0,3,,,,,,,,,0,,,53,40
101280,note_on,0,0,3,,,,,,,,,0,,,46,40
101280,note_on,0,0,3,,,,,,,,,0,,,46,0
101280,note_on,0,0,1,,,,,,,,,0,,,74,50
101280,note_on,0,0,1,,,,,,,,,0,,,70,40
101280,note_on,0,0,2,,,,,,,,,0,,,50,0
101280,note_on,0,0,1,,,,,,,,,0,,,65,40
101280,end_of_track,0,1,2,,,,,,,,,,,,,
101280,control_change,15,0,4,,,,,,,,,0,64,127,,
101280,note_on,0,0,3,,,,,,,,,0,,,41,0
101280,note_on,240,0,3,,,,,,,,,0,,,34,0
101280,note_on,2280,0,1,,,,,,,,,0,,,62,40
101385,control_change,105,0,4,,,,,,,,,0,64,0,,
101400,note_on,0,0,3,,,,,,,,,0,,,53,0
101400,note_on,120,0,3,,,,,,,,,0,,,58,0
101400,note_on,0,0,3,,,,,,,,,0,,,46,0
101400,note_on,0,0,1,,,,,,,,,0,,,70,0
101400,note_on,0,0,3,,,,,,,,,0,,,55,40
101400,note_on,0,0,1,,,,,,,,,0,,,65,0
101400,note_on,0,0,1,,,,,,,,,0,,,62,0
101400,note_on,120,0,1,,,,,,,,,0,,,74,0
101400,note_on,0,0,1,,,,,,,,,0,,,67,40
101400,note_on,0,0,1,,,,,,,,,0,,,71,40
101400,note_on,0,0,1,,,,,,,,,0,,,74,50
101400,note_on,0,0,3,,,,,,,,,0,,,43,40
101400,note_on,0,0,1,,,,,,,,,0,,,65,40
101400,control_change,15,0,4,,,,,,,,,0,64,127,,
101460,note_on,0,0,1,,,,,,,,,0,,,65,0
101460,note_on,60,0,3,,,,,,,,,0,,,55,0
101460,note_on,0,0,3,,,,,,,,,0,,,43,0
101460,note_on,0,0,3,,,,,,,,,0,,,43,40
101460,note_on,0,0,3,,,,,,,,,0,,,55,40
101460,note_on,60,0,1,,,,,,,,,0,,,74,0
101460,note_on,0,0,1,,,,,,,,,0,,,67,0
101460,note_on,0,0,1,,,,,,,,,0,,,65,40
101460,note_on,0,0,1,,,,,,,,,0,,,71,40
101460,note_on,0,0,1,,,,,,,,,0,,,67,40
101460,note_on,0,0,1,,,,,,,,,0,,,74,50
101460,note_on,0,0,1,,,,,,,,,0,,,71,0
101505,control_change,105,0,4,,,,,,,,,0,64,0,,
101520,control_change,15,0,4,,,,,,,,,0,64,127,,
101520,note_on,60,0,3,,,,,,,,,0,,,55,0
101520,note_on,0,0,3,,,,,,,,,0,,,55,40
101520,note_on,0,0,3,,,,,,,,,0,,,60,40
101520,note_on,0,0,3,,,,,,,,,0,,,43,0
101520,note_on,0,0,3,,,,,,,,,0,,,48,40
101520,note_on,60,0,1,,,,,,,,,0,,,74,0
101520,note_on,0,0,1,,,,,,,,,0,,,71,0
101520,note_on,0,0,1,,,,,,,,,0,,,67,0
101520,note_on,0,0,1,,,,,,,,,0,,,65,0
101520,note_on,0,0,1,,,,,,,,,0,,,67,40
101520,note_on,0,0,1,,,,,,,,,0,,,63,40
101520,note_on,0,0,1,,,,,,,,,0,,,74,50
101625,control_change,105,0,4,,,,,,,,,0,64,0,,
101640,note_on,120,0,1,,,,,,,,,0,,,74,0
101640,note_on,0,0,1,,,,,,,,,0,,,67,50
101640,control_change,15,0,4,,,,,,,,,0,64,127,,
101745,control_change,105,0,4,,,,,,,,,0,64,0,,
101760,note_on,0,0,1,,,,,,,,,0,,,63,40
101760,note_on,0,0,1,,,,,,,,,0,,,67,0
101760,note_on,0,0,3,,,,,,,,,0,,,60,0
101760,note_on,0,0,3,,,,,,,,,0,,,41,40
101760,note_on,0,0,3,,,,,,,,,0,,,53,40
101760,note_on,0,0,1,,,,,,,,,0,,,63,0
101760,note_on,240,0,3,,,,,,,,,0,,,48,0
101760,note_on,120,0,1,,,,,,,,,0,,,67,0
101760,note_on,0,0,1,,,,,,,,,0,,,72,50
101760,note_on,0,0,1,,,,,,,,,0,,,69,40
101760,note_on,0,0,3,,,,,,,,,0,,,55,0
101760,control_change,15,0,4,,,,,,,,,0,64,127,,
101820,note_on,0,0,1,,,,,,,,,0,,,71,50
101820,note_on,60,0,1,,,,,,,,,0,,,72,0
101850,note_on,0,0,1,,,,,,,,,0,,,72,50
101850,note_on,30,0,1,,,,,,,,,0,,,71,0
101865,control_change,105,0,4,,,,,,,,,0,64,0,,
101880,control_change,15,0,4,,,,,,,,,0,64,127,,
101880,note_on,30,0,1,,,,,,,,,0,,,72,0
101880,note_on,0,0,1,,,,,,,,,0,,,71,50
101910,note_on,0,0,1,,,,,,,,,0,,,72,50
101910,note_on,30,0,1,,,,,,,,,0,,,71,0
101940,note_on,0,0,1,,,,,,,,,0,,,74,50
101940,note_on,30,0,1,,,,,,,,,0,,,72,0
101985,control_change,105,0,4,,,,,,,,,0,64,0,,
101985,note_on,0,0,1,,,,,,,,,0,,,72,50
101985,note_on,45,0,1,,,,,,,,,0,,,74,0
102000,note_on,0,0,1,,,,,,,,,0,,,63,0
102000,note_on,0,0,1,,,,,,,,,0,,,70,50
102000,note_on,0,0,1,,,,,,,,,0,,,69,0
102000,note_on,15,0,1,,,,,,,,,0,,,72,0
102000,note_on,0,0,1,,,,,,,,,0,,,62,40
102000,note_on,240,0,3,,,,,,,,,0,,,53,0
102000,control_change,15,0,4,,,,,,,,,0,64,127,,
102000,note_on,0,0,3,,,,,,,,,0,,,58,40
102000,note_on,0,0,3,,,,,,,,,0,,,53,40
102000,note_on,0,0,3,,,,,,,,,0,,,46,40
102000,note_on,0,0,3,,,,,,,,,0,,,41,0
102105,control_change,105,0,4,,,,,,,,,0,64,0,,
102120,control_change,15,0,4,,,,,,,,,0,64,127,,
102225,control_change,105,0,4,,,,,,,,,0,64,0,,
102240,note_on,0,0,1,,,,,,,,,0,,,75,40
102240,note_on,0,0,1,,,,,,,,,0,,,81,40
102240,control_change,15,0,4,,,,,,,,,0,64,127,,
102240,note_on,0,0,1,,,,,,,,,0,,,62,0
102240,note_on,240,0,1,,,,,,,,,0,,,70,0
102240,note_on,0,0,3,,,,,,,,,0,,,65,40
102240,note_on,0,0,3,,,,,,,,,0,,,60,40
102240,note_on,0,0,3,,,,,,,,,0,,,53,40
102240,note_on,0,0,3,,,,,,,,,0,,,58,0
102240,note_on,0,0,3,,,,,,,,,0,,,53,0
102240,note_on,240,0,3,,,,,,,,,0,,,46,0
102240,note_on,0,0,3,,,,,,,,,0,,,63,40
102240,note_on,0,0,1,,,,,,,,,0,,,84,50
102345,control_change,105,0,4,,,,,,,,,0,64,0,,
102360,control_change,15,0,4,,,,,,,,,0,64,127,,
102465,control_change,105,0,4,,,,,,,,,0,64,0,,
102480,control_change,15,0,4,,,,,,,,,0,64,127,,
102540,note_on,0,0,1,,,,,,,,,0,,,81,0
102540,note_on,0,0,1,,,,,,,,,0,,,75,0
102540,note_on,0,0,1,,,,,,,,,0,,,83,50
102540,note_on,300,0,1,,,,,,,,,0,,,84,0
102570,note_on,30,0,1,,,,,,,,,0,,,83,0
102570,note_on,0,0,1,,,,,,,,,0,,,84,50
102585,control_change,105,0,4,,,,,,,,,0,64,0,,
102600,control_change,15,0,4,,,,,,,,,0,64,127,,
102600,note_on,0,0,1,,,,,,,,,0,,,83,50
102600,note_on,30,0,1,,,,,,,,,0,,,84,0
102630,note_on,30,0,1,,,,,,,,,0,,,83,0
102630,note_on,0,0,1,,,,,,,,,0,,,84,50
102660,note_on,0,0,1,,,,,,,,,0,,,87,50
102660,note_on,30,0,1,,,,,,,,,0,,,84,0
102705,note_on,45,0,1,,,,,,,,,0,,,87,0
102705,note_on,0,0,1,,,,,,,,,0,,,81,50
102705,control_change,105,0,4,,,,,,,,,0,64,0,,
102720,note_on,0,0,3,,,,,,,,,0,,,62,40
102720,note_on,0,0,3,,,,,,,,,0,,,58,40
102720,note_on,0,0,3,,,,,,,,,0,,,60,0
102720,note_on,480,0,3,,,,,,,,,0,,,63,0
102720,note_on,0,0,1,,,,,,,,,0,,,82,50
102720,note_on,0,0,1,,,,,,,,,0,,,74,40
102720,note_on,15,0,1,,,,,,,,,0,,,81,0
102720,note_on,0,0,3,,,,,,,,,0,,,53,0
102840,note_on,0,0,1,,,,,,,,,0,,,74,0
102840,note_on,120,0,3,,,,,,,,,0,,,62,0
102840,note_on,0,0,3,,,,,,,,,0,,,58,0
102840,note_on,0,0,3,,,,,,,,,0,,,65,0
102840,note_on,120,0,1,,,,,,,,,0,,,82,0
102960,note_on,0,0,1,,,,,,,,,0,,,65,50
102960,note_on,120,0,3,,,,,,,,,0,,,46,50
102960,note_on,0,0,3,,,,,,,,,0,,,53,50
102960,note_on,0,0,3,,,,,,,,,0,,,58,50
102960,note_on,0,0,1,,,,,,,,,0,,,62,50
102960,note_on,120,0,1,,,,,,,,,0,,,74,50
102960,note_on,0,0,1,,,,,,,,,0,,,70,50
103080,note_on,120,0,3,,,,,,,,,0,,,58,0
103080,note_on,0,0,3,,,,,,,,,0,,,53,0
103080,note_on,0,0,3,,,,,,,,,0,,,46,0
103080,note_on,120,0,1,,,,,,,,,0,,,62,0
103080,note_on,0,0,1,,,,,,,,,0,,,74,0
103080,note_on,0,0,1,,,,,,,,,0,,,70,0
103080,note_on,0,0,1,,,,,,,,,0,,,65,0
103200,control_change,495,0,4,,,,,,,,,0,64,127,,
103200,note_on,0,0,1,,,,,,,,,0,,,65,50
103200,note_on,0,0,1,,,,,,,,,0,,,62,50
103200,note_on,120,0,1,,,,,,,,,0,,,70,50
103200,note_on,0,0,3,,,,,,,,,0,,,58,50
103200,note_on,0,0,3,,,,,,,,,0,,,53,50
103200,note_on,120,0,3,,,,,,,,,0,,,46,50
103680,note_on,0,0,1,,,,,,,,,0,,,70,0
103680,end_of_track,0,1,1,,,,,,,,,,,,,
103680,end_of_track,0,1,3,,,,,,,,,,,,,
103680,note_on,0,0,3,,,,,,,,,0,,,46,0
103680,note_on,0,0,3,,,,,,,,,0,,,53,0
103680,control_change,480,0,4,,,,,,,,,0,64,0,,
103680,note_on,480,0,3,,,,,,,,,0,,,58,0
103680,note_on,480,0,1,,,,,,,,,0,,,62,0
103680,note_on,0,0,1,,,,,,,,,0,,,65,0
103920,control_change,240,0,4,,,,,,,,,0,64,127,,
104160,control_change,240,0,4,,,,,,,,,0,64,0,,
104160,end_of_track,0,1,4,,,,,,,,,,,,,
